MFile 1 4 480
MTrk
0 Tempo 300000
0 TimeSig 4/4 24 8
65280 Tempo 352941
85497 Tempo 355029
85555 Tempo 357142
85612 Tempo 359281
85670 Tempo 361445
85727 Tempo 363636
85785 Tempo 365853
85842 Tempo 368098
85900 Tempo 370370
85957 Tempo 372670
86015 Tempo 375000
86072 Tempo 377358
86130 Tempo 379746
86187 Tempo 382165
86245 Tempo 384615
86302 Tempo 387096
86360 Tempo 389610
86417 Tempo 392156
86475 Tempo 394736
86532 Tempo 397350
86590 Tempo 400000
86647 Tempo 402684
86705 Tempo 405405
86762 Tempo 408163
86820 Tempo 410958
86880 Tempo 413793
86937 Tempo 416666
86995 Tempo 419580
87052 Tempo 422535
87110 Tempo 425531
87167 Tempo 428571
87225 Tempo 431654
87282 Tempo 434782
87340 Tempo 437956
87397 Tempo 441176
87455 Tempo 444444
87512 Tempo 447761
87570 Tempo 451127
87627 Tempo 454545
87685 Tempo 458015
87742 Tempo 461538
87800 Tempo 465116
87857 Tempo 468750
87915 Tempo 472440
87972 Tempo 476190
88030 Tempo 480000
88087 Tempo 483870
88145 Tempo 487804
88202 Tempo 491803
88260 Tempo 495867
88320 Tempo 500000
88320 Tempo 352941
108537 Tempo 355029
108595 Tempo 357142
108652 Tempo 359281
108710 Tempo 361445
108767 Tempo 363636
108825 Tempo 365853
108882 Tempo 368098
108940 Tempo 370370
108997 Tempo 372670
109055 Tempo 375000
109112 Tempo 377358
109170 Tempo 379746
109227 Tempo 382165
109285 Tempo 384615
109342 Tempo 387096
109400 Tempo 389610
109457 Tempo 392156
109515 Tempo 394736
109572 Tempo 397350
109630 Tempo 400000
109687 Tempo 402684
109745 Tempo 405405
109802 Tempo 408163
109860 Tempo 410958
109920 Tempo 413793
109977 Tempo 416666
110035 Tempo 419580
110092 Tempo 422535
110150 Tempo 425531
110207 Tempo 428571
110265 Tempo 431654
110322 Tempo 434782
110380 Tempo 437956
110437 Tempo 441176
110495 Tempo 444444
110552 Tempo 447761
110610 Tempo 451127
110667 Tempo 454545
110725 Tempo 458015
110782 Tempo 461538
110840 Tempo 465116
110897 Tempo 468750
110955 Tempo 472440
111012 Tempo 476190
111070 Tempo 480000
111127 Tempo 483870
111185 Tempo 487804
111242 Tempo 491803
111300 Tempo 495867
111360 Tempo 500000
111360 Tempo 352941
134400 Tempo 600000
135360 Tempo 375000
135407 Tempo 377358
135455 Tempo 379746
135502 Tempo 382165
135550 Tempo 384615
135600 Tempo 387096
135647 Tempo 389610
135695 Tempo 392156
135742 Tempo 394736
135790 Tempo 397350
135840 Tempo 400000
135887 Tempo 402684
135935 Tempo 405405
135982 Tempo 408163
136030 Tempo 410958
136080 Tempo 413793
136127 Tempo 416666
136175 Tempo 419580
136222 Tempo 422535
136270 Tempo 425531
136320 Tempo 428571
136367 Tempo 431654
136415 Tempo 434782
136462 Tempo 437956
136510 Tempo 441176
136560 Tempo 444444
136607 Tempo 447761
136655 Tempo 451127
136702 Tempo 454545
136750 Tempo 458015
136800 Tempo 461538
136847 Tempo 465116
136895 Tempo 468750
136942 Tempo 472440
136990 Tempo 476190
137040 Tempo 480000
137087 Tempo 483870
137135 Tempo 487804
137182 Tempo 491803
137230 Tempo 495867
137280 Tempo 500000
137327 Tempo 504201
137375 Tempo 508474
137422 Tempo 512820
137470 Tempo 517241
137520 Tempo 521739
137567 Tempo 526315
137615 Tempo 530973
137662 Tempo 535714
137710 Tempo 540540
137760 Tempo 545454
137807 Tempo 550458
137855 Tempo 555555
137902 Tempo 560747
137950 Tempo 566037
138000 Tempo 571428
138047 Tempo 576923
138095 Tempo 582524
138142 Tempo 588235
138190 Tempo 594059
138240 Tempo 600000
138240 Tempo 352941
149912 Tempo 355029
150065 Tempo 357142
150220 Tempo 359281
150372 Tempo 361445
150527 Tempo 363636
150680 Tempo 365853
150835 Tempo 368098
150987 Tempo 370370
151140 Tempo 372670
151295 Tempo 375000
151447 Tempo 377358
151602 Tempo 379746
151755 Tempo 382165
151910 Tempo 384615
152062 Tempo 387096
152217 Tempo 389610
152370 Tempo 392156
152522 Tempo 394736
152677 Tempo 397350
152830 Tempo 400000
152985 Tempo 402684
153137 Tempo 405405
153292 Tempo 408163
153445 Tempo 410958
153597 Tempo 413793
153752 Tempo 416666
153905 Tempo 419580
154060 Tempo 422535
154212 Tempo 425531
154367 Tempo 428571
154520 Tempo 431654
154675 Tempo 434782
154827 Tempo 437956
154980 Tempo 441176
155135 Tempo 444444
155287 Tempo 447761
155442 Tempo 451127
155595 Tempo 454545
155750 Tempo 458015
155902 Tempo 461538
156057 Tempo 465116
156210 Tempo 468750
156362 Tempo 472440
156517 Tempo 476190
156670 Tempo 480000
156825 Tempo 483870
156977 Tempo 487804
157132 Tempo 491803
157285 Tempo 495867
157440 Tempo 500000
157440 Tempo 300000
157440 Tempo 300000
157440 KeySig -2 major
157440 Meta TrkEnd
TrkEnd
MTrk
0 SeqSpec 43 00 01 00
0 Meta TrkName "Right Hand"
0 Meta 0x21 00
0 PrCh ch=1 p=0
0 Par ch=1 c=7 v=127
0 Par ch=1 c=10 v=80
0 On ch=1 n=g6 v=92
960 On ch=1 n=g6 v=0
960 On ch=1 n=a5 v=92
960 On ch=1 n=c6 v=92
960 On ch=1 n=d#6 v=92
960 On ch=1 n=g6 v=92
2400 On ch=1 n=g6 v=0
2400 On ch=1 n=d#6 v=0
2400 On ch=1 n=c6 v=0
2400 On ch=1 n=a5 v=0
2400 On ch=1 n=f#6 v=92
2880 On ch=1 n=f#6 v=0
2880 On ch=1 n=g6 v=92
3360 On ch=1 n=g6 v=0
3360 On ch=1 n=a6 v=92
3840 On ch=1 n=a6 v=0
3840 On ch=1 n=a#5 v=92
4800 On ch=1 n=a#5 v=0
4800 On ch=1 n=c#5 v=92
4800 On ch=1 n=e5 v=92
4800 On ch=1 n=g5 v=92
4800 On ch=1 n=a#5 v=92
6160 On ch=1 n=a#5 v=0
6160 On ch=1 n=g5 v=0
6160 On ch=1 n=e5 v=0
6160 On ch=1 n=c#5 v=0
6240 On ch=1 n=g5 v=92
6240 On ch=1 n=g5 v=92
6475 On ch=1 n=g5 v=0
6480 On ch=1 n=c#5 v=92
6480 On ch=1 n=e5 v=92
6640 On ch=1 n=g5 v=0
6715 On ch=1 n=e5 v=0
6715 On ch=1 n=c#5 v=0
6720 On ch=1 n=c#6 v=92
6720 On ch=1 n=c#6 v=92
6955 On ch=1 n=c#6 v=0
6960 On ch=1 n=e5 v=92
6960 On ch=1 n=a#5 v=92
7120 On ch=1 n=c#6 v=0
7195 On ch=1 n=a#5 v=0
7195 On ch=1 n=e5 v=0
7200 On ch=1 n=d6 v=92
7200 On ch=1 n=d6 v=92
7435 On ch=1 n=d6 v=0
7440 On ch=1 n=d5 v=92
7440 On ch=1 n=a5 v=92
7600 On ch=1 n=d6 v=0
7675 On ch=1 n=a5 v=0
7675 On ch=1 n=d5 v=0
7680 On ch=1 n=g6 v=127
8520 On ch=1 n=g6 v=0
8640 On ch=1 n=a5 v=127
8640 On ch=1 n=c6 v=127
8640 On ch=1 n=d#6 v=127
8640 On ch=1 n=g6 v=127
10000 On ch=1 n=g6 v=0
10000 On ch=1 n=d#6 v=0
10000 On ch=1 n=c6 v=0
10000 On ch=1 n=a5 v=0
10080 On ch=1 n=c7 v=92
10080 On ch=1 n=c7 v=92
10315 On ch=1 n=c7 v=0
10320 On ch=1 n=c6 v=92
10320 On ch=1 n=d#6 v=92
10480 On ch=1 n=c7 v=0
10555 On ch=1 n=d#6 v=0
10555 On ch=1 n=c6 v=0
10560 On ch=1 n=a6 v=92
10560 On ch=1 n=a6 v=92
10795 On ch=1 n=a6 v=0
10800 On ch=1 n=a5 v=92
10800 On ch=1 n=d#6 v=92
10960 On ch=1 n=a6 v=0
11035 On ch=1 n=d#6 v=0
11035 On ch=1 n=a5 v=0
11040 On ch=1 n=c6 v=92
11040 On ch=1 n=c6 v=92
11275 On ch=1 n=c6 v=0
11280 On ch=1 n=c5 v=92
11280 On ch=1 n=f#5 v=92
11440 On ch=1 n=c6 v=0
11515 On ch=1 n=f#5 v=0
11515 On ch=1 n=c5 v=0
11520 On ch=1 n=a#5 v=127
12360 On ch=1 n=a#5 v=0
12480 On ch=1 n=c#5 v=127
12480 On ch=1 n=e5 v=127
12480 On ch=1 n=g5 v=127
12480 On ch=1 n=a#5 v=127
13840 On ch=1 n=a#5 v=0
13840 On ch=1 n=g5 v=0
13840 On ch=1 n=e5 v=0
13840 On ch=1 n=c#5 v=0
13920 On ch=1 n=a5 v=92
13920 On ch=1 n=a5 v=92
14155 On ch=1 n=a5 v=0
14160 On ch=1 n=c#5 v=92
14160 On ch=1 n=e5 v=92
14320 On ch=1 n=a5 v=0
14395 On ch=1 n=e5 v=0
14395 On ch=1 n=c#5 v=0
14400 On ch=1 n=g5 v=92
14400 On ch=1 n=g5 v=92
14635 On ch=1 n=g5 v=0
14640 On ch=1 n=a#4 v=92
14640 On ch=1 n=e5 v=92
14800 On ch=1 n=g5 v=0
14875 On ch=1 n=e5 v=0
14875 On ch=1 n=a#4 v=0
14880 On ch=1 n=f#5 v=92
14880 On ch=1 n=f#5 v=92
15115 On ch=1 n=f#5 v=0
15120 On ch=1 n=a4 v=92
15120 On ch=1 n=d5 v=92
15280 On ch=1 n=f#5 v=0
15355 On ch=1 n=d5 v=0
15355 On ch=1 n=a4 v=0
15360 On ch=1 n=d#6 v=92
15600 On ch=1 n=d#6 v=0
15600 On ch=1 n=c6 v=92
15840 On ch=1 n=c6 v=0
15840 On ch=1 n=g#5 v=92
16080 On ch=1 n=g#5 v=0
16080 On ch=1 n=g5 v=92
16320 On ch=1 n=g5 v=0
16320 On ch=1 n=f#5 v=92
16560 On ch=1 n=f#5 v=0
16560 On ch=1 n=a5 v=92
16800 On ch=1 n=a5 v=0
16800 On ch=1 n=c#6 v=92
17040 On ch=1 n=c#6 v=0
17040 On ch=1 n=d6 v=92
17040 On ch=1 n=d6 v=92
17280 On ch=1 n=d6 v=0
17280 On ch=1 n=d6 v=0
17280 On ch=1 n=d#6 v=92
17520 On ch=1 n=d#6 v=0
17520 On ch=1 n=c6 v=92
17760 On ch=1 n=c6 v=0
17760 On ch=1 n=g#5 v=92
18000 On ch=1 n=g#5 v=0
18000 On ch=1 n=g5 v=92
18240 On ch=1 n=g5 v=0
18240 On ch=1 n=f#5 v=92
18480 On ch=1 n=f#5 v=0
18480 On ch=1 n=a5 v=92
18720 On ch=1 n=a5 v=0
18720 On ch=1 n=c#6 v=92
18960 On ch=1 n=c#6 v=0
18960 On ch=1 n=d6 v=92
18960 On ch=1 n=d6 v=92
19200 On ch=1 n=d6 v=0
19200 On ch=1 n=d6 v=0
19200 On ch=1 n=f6 v=92
19440 On ch=1 n=f6 v=0
19440 On ch=1 n=d6 v=92
19680 On ch=1 n=d6 v=0
19680 On ch=1 n=a#5 v=92
19920 On ch=1 n=a#5 v=0
19920 On ch=1 n=a5 v=92
20160 On ch=1 n=a5 v=0
20160 On ch=1 n=g#5 v=60
20160 On ch=1 n=g#5 v=60
20400 On ch=1 n=g#5 v=0
20400 On ch=1 n=b5 v=62
20640 On ch=1 n=b5 v=0
20640 On ch=1 n=g#5 v=0
20640 On ch=1 n=d#6 v=64
20880 On ch=1 n=d#6 v=0
20880 On ch=1 n=e6 v=66
20880 On ch=1 n=e6 v=66
21120 On ch=1 n=e6 v=0
21120 On ch=1 n=e6 v=0
21120 On ch=1 n=g6 v=68
21120 On ch=1 n=g6 v=68
21360 On ch=1 n=g6 v=0
21360 On ch=1 n=e6 v=71
21600 On ch=1 n=e6 v=0
21600 On ch=1 n=c6 v=74
21840 On ch=1 n=c6 v=0
21840 On ch=1 n=b5 v=77
22080 On ch=1 n=b5 v=0
22080 On ch=1 n=g6 v=0
22080 On ch=1 n=g6 v=80
22080 On ch=1 n=g6 v=80
22320 On ch=1 n=g6 v=0
22320 On ch=1 n=e6 v=83
22560 On ch=1 n=e6 v=0
22560 On ch=1 n=c6 v=86
22800 On ch=1 n=c6 v=0
22800 On ch=1 n=a#5 v=89
23040 On ch=1 n=a#5 v=0
23040 On ch=1 n=g6 v=0
23040 On ch=1 n=g6 v=92
23040 On ch=1 n=g6 v=92
23440 On ch=1 n=g6 v=0
23520 On ch=1 n=d#6 v=92
23520 On ch=1 n=d#6 v=92
23920 On ch=1 n=d#6 v=0
24000 On ch=1 n=c6 v=92
24000 On ch=1 n=c6 v=92
24400 On ch=1 n=c6 v=0
24480 On ch=1 n=a#5 v=92
24880 On ch=1 n=a#5 v=0
24960 On ch=1 n=a5 v=92
25360 On ch=1 n=a5 v=0
25360 On ch=1 n=c6 v=0
25360 On ch=1 n=d#6 v=0
25360 On ch=1 n=g6 v=0
25440 On ch=1 n=f#6 v=92
25440 On ch=1 n=f#6 v=92
25675 On ch=1 n=f#6 v=0
25680 On ch=1 n=a5 v=92
25680 On ch=1 n=c6 v=92
25680 On ch=1 n=d#6 v=92
25840 On ch=1 n=f#6 v=0
25915 On ch=1 n=d#6 v=0
25915 On ch=1 n=c6 v=0
25915 On ch=1 n=a5 v=0
25920 On ch=1 n=g6 v=92
25920 On ch=1 n=g6 v=92
26155 On ch=1 n=g6 v=0
26160 On ch=1 n=g5 v=92
26160 On ch=1 n=a#5 v=92
26160 On ch=1 n=d6 v=92
26320 On ch=1 n=g6 v=0
26395 On ch=1 n=d6 v=0
26395 On ch=1 n=a#5 v=0
26395 On ch=1 n=g5 v=0
26400 On ch=1 n=a6 v=92
26400 On ch=1 n=a6 v=92
26635 On ch=1 n=a6 v=0
26640 On ch=1 n=a5 v=92
26640 On ch=1 n=c6 v=92
26800 On ch=1 n=a6 v=0
26875 On ch=1 n=c6 v=0
26875 On ch=1 n=a5 v=0
26880 On ch=1 n=a#5 v=92
26880 On ch=1 n=a#5 v=92
27115 On ch=1 n=a#5 v=0
27120 On ch=1 n=g5 v=92
27355 On ch=1 n=g5 v=0
27360 On ch=1 n=d#5 v=92
27595 On ch=1 n=d#5 v=0
27600 On ch=1 n=d5 v=92
27720 On ch=1 n=a#5 v=0
27835 On ch=1 n=d5 v=0
27840 On ch=1 n=c#5 v=92
27840 On ch=1 n=e5 v=92
27840 On ch=1 n=g5 v=92
27840 On ch=1 n=a#5 v=92
29200 On ch=1 n=a#5 v=0
29200 On ch=1 n=g5 v=0
29200 On ch=1 n=e5 v=0
29280 On ch=1 n=g5 v=92
29280 On ch=1 n=g5 v=92
29515 On ch=1 n=g5 v=0
29520 On ch=1 n=c#5 v=92
29520 On ch=1 n=e5 v=92
29680 On ch=1 n=g5 v=0
29755 On ch=1 n=e5 v=0
29755 On ch=1 n=c#5 v=0
29760 On ch=1 n=c#6 v=92
29760 On ch=1 n=c#6 v=92
29995 On ch=1 n=c#6 v=0
30000 On ch=1 n=e5 v=92
30000 On ch=1 n=a#5 v=92
30160 On ch=1 n=c#6 v=0
30235 On ch=1 n=a#5 v=0
30235 On ch=1 n=e5 v=0
30240 On ch=1 n=d6 v=92
30240 On ch=1 n=d6 v=92
30475 On ch=1 n=d6 v=0
30480 On ch=1 n=d5 v=92
30480 On ch=1 n=a5 v=92
30640 On ch=1 n=d6 v=0
30715 On ch=1 n=a5 v=0
30715 On ch=1 n=d5 v=0
30720 On ch=1 n=g6 v=92
30720 On ch=1 n=g6 v=127
30955 On ch=1 n=g6 v=0
30960 On ch=1 n=d#6 v=92
31195 On ch=1 n=d#6 v=0
31200 On ch=1 n=c6 v=92
31435 On ch=1 n=c6 v=0
31440 On ch=1 n=a#5 v=92
31560 On ch=1 n=g6 v=0
31675 On ch=1 n=a#5 v=0
31680 On ch=1 n=a5 v=127
31680 On ch=1 n=c6 v=127
31680 On ch=1 n=d#6 v=127
31680 On ch=1 n=g6 v=127
33040 On ch=1 n=g6 v=0
33040 On ch=1 n=d#6 v=0
33040 On ch=1 n=c6 v=0
33040 On ch=1 n=a5 v=0
33120 On ch=1 n=c7 v=92
33120 On ch=1 n=c7 v=92
33355 On ch=1 n=c7 v=0
33360 On ch=1 n=c6 v=92
33360 On ch=1 n=d#6 v=92
33520 On ch=1 n=c7 v=0
33595 On ch=1 n=d#6 v=0
33595 On ch=1 n=c6 v=0
33600 On ch=1 n=a6 v=92
33600 On ch=1 n=a6 v=92
33835 On ch=1 n=a6 v=0
33840 On ch=1 n=a5 v=92
33840 On ch=1 n=d#6 v=92
34000 On ch=1 n=a6 v=0
34075 On ch=1 n=d#6 v=0
34075 On ch=1 n=a5 v=0
34080 On ch=1 n=c6 v=92
34080 On ch=1 n=c6 v=92
34315 On ch=1 n=c6 v=0
34320 On ch=1 n=c5 v=92
34320 On ch=1 n=f#5 v=92
34480 On ch=1 n=c6 v=0
34555 On ch=1 n=f#5 v=0
34555 On ch=1 n=c5 v=0
34560 On ch=1 n=a#5 v=92
34560 On ch=1 n=a#5 v=127
34795 On ch=1 n=a#5 v=0
34800 On ch=1 n=g5 v=92
35035 On ch=1 n=g5 v=0
35040 On ch=1 n=d#5 v=92
35275 On ch=1 n=d#5 v=0
35280 On ch=1 n=d5 v=92
35400 On ch=1 n=a#5 v=0
35515 On ch=1 n=d5 v=0
35520 On ch=1 n=c#5 v=127
35520 On ch=1 n=e5 v=127
35520 On ch=1 n=g5 v=127
35520 On ch=1 n=a#5 v=127
36880 On ch=1 n=a#5 v=0
36880 On ch=1 n=g5 v=0
36960 On ch=1 n=a5 v=92
36960 On ch=1 n=a5 v=92
37195 On ch=1 n=a5 v=0
37200 On ch=1 n=c#5 v=92
37200 On ch=1 n=e5 v=92
37360 On ch=1 n=a5 v=0
37435 On ch=1 n=e5 v=0
37435 On ch=1 n=c#5 v=0
37440 On ch=1 n=g5 v=92
37440 On ch=1 n=g5 v=92
37675 On ch=1 n=g5 v=0
37680 On ch=1 n=a#4 v=92
37680 On ch=1 n=e5 v=92
37840 On ch=1 n=g5 v=0
37915 On ch=1 n=a#4 v=0
37915 On ch=1 n=e5 v=0
37920 On ch=1 n=f#5 v=92
37920 On ch=1 n=f#5 v=92
38155 On ch=1 n=f#5 v=0
38160 On ch=1 n=a4 v=92
38160 On ch=1 n=d5 v=92
38320 On ch=1 n=f#5 v=0
38395 On ch=1 n=d5 v=0
38395 On ch=1 n=a4 v=0
38400 On ch=1 n=d6 v=75
38400 On ch=1 n=d6 v=75
38640 On ch=1 n=d6 v=0
38640 On ch=1 n=b5 v=75
38880 On ch=1 n=b5 v=0
38880 On ch=1 n=g5 v=75
39120 On ch=1 n=g5 v=0
39120 On ch=1 n=f#5 v=75
39360 On ch=1 n=f#5 v=0
39360 On ch=1 n=f5 v=75
39360 On ch=1 n=f5 v=75
39600 On ch=1 n=f5 v=0
39600 On ch=1 n=g#5 v=75
39840 On ch=1 n=g#5 v=0
39840 On ch=1 n=f5 v=0
39840 On ch=1 n=c6 v=75
40080 On ch=1 n=c6 v=0
40080 On ch=1 n=d6 v=0
40080 On ch=1 n=c#6 v=75
40320 On ch=1 n=c#6 v=0
40320 On ch=1 n=d6 v=75
40320 On ch=1 n=d6 v=75
40560 On ch=1 n=d6 v=0
40560 On ch=1 n=b5 v=75
40800 On ch=1 n=b5 v=0
40800 On ch=1 n=g5 v=75
41040 On ch=1 n=g5 v=0
41040 On ch=1 n=f#5 v=75
41280 On ch=1 n=f#5 v=0
41280 On ch=1 n=f5 v=75
41280 On ch=1 n=f5 v=75
41520 On ch=1 n=f5 v=0
41520 On ch=1 n=g#5 v=75
41760 On ch=1 n=g#5 v=0
41760 On ch=1 n=f5 v=0
41760 On ch=1 n=c6 v=75
42000 On ch=1 n=c6 v=0
42000 On ch=1 n=d6 v=0
42000 On ch=1 n=c#6 v=75
42240 On ch=1 n=c#6 v=0
42240 On ch=1 n=c#6 v=75
42240 On ch=1 n=c#6 v=75
42480 On ch=1 n=c#6 v=0
42480 On ch=1 n=a#5 v=75
42720 On ch=1 n=a#5 v=0
42720 On ch=1 n=f#5 v=75
42960 On ch=1 n=f#5 v=0
42960 On ch=1 n=f5 v=75
43200 On ch=1 n=f5 v=0
43200 On ch=1 n=e5 v=75
43200 On ch=1 n=e5 v=75
43440 On ch=1 n=e5 v=0
43440 On ch=1 n=g5 v=75
43680 On ch=1 n=g5 v=0
43680 On ch=1 n=e5 v=0
43680 On ch=1 n=b5 v=75
43920 On ch=1 n=b5 v=0
43920 On ch=1 n=c#6 v=0
43920 On ch=1 n=c6 v=75
44160 On ch=1 n=c6 v=0
44160 On ch=1 n=c6 v=75
44160 On ch=1 n=c6 v=75
44400 On ch=1 n=c6 v=0
44400 On ch=1 n=a5 v=75
44640 On ch=1 n=a5 v=0
44640 On ch=1 n=f5 v=75
44880 On ch=1 n=f5 v=0
44880 On ch=1 n=e5 v=75
45120 On ch=1 n=c6 v=0
45120 On ch=1 n=e5 v=0
45120 On ch=1 n=c6 v=76
45120 On ch=1 n=c6 v=76
45360 On ch=1 n=c6 v=0
45360 On ch=1 n=a5 v=77
45600 On ch=1 n=a5 v=0
45600 On ch=1 n=f5 v=78
45840 On ch=1 n=f5 v=0
45840 On ch=1 n=d#5 v=79
46080 On ch=1 n=d#5 v=0
46080 On ch=1 n=c6 v=0
46080 On ch=1 n=c6 v=80
46080 On ch=1 n=c6 v=80
46320 On ch=1 n=c6 v=0
46320 On ch=1 n=a5 v=81
46560 On ch=1 n=a5 v=0
46560 On ch=1 n=f#5 v=82
46800 On ch=1 n=f#5 v=0
46800 On ch=1 n=d5 v=83
47040 On ch=1 n=d5 v=0
47040 On ch=1 n=c6 v=0
47040 On ch=1 n=c#6 v=84
47040 On ch=1 n=c#6 v=84
47280 On ch=1 n=c#6 v=0
47280 On ch=1 n=a#5 v=85
47520 On ch=1 n=a#5 v=0
47520 On ch=1 n=g5 v=86
47760 On ch=1 n=g5 v=0
47760 On ch=1 n=d#5 v=87
48000 On ch=1 n=d#5 v=0
48000 On ch=1 n=c#6 v=0
48000 On ch=1 n=d6 v=88
48000 On ch=1 n=d6 v=88
48240 On ch=1 n=d6 v=0
48240 On ch=1 n=a#5 v=89
48480 On ch=1 n=a#5 v=0
48480 On ch=1 n=g5 v=90
48720 On ch=1 n=g5 v=0
48720 On ch=1 n=d5 v=91
48960 On ch=1 n=d5 v=0
48960 On ch=1 n=d6 v=0
48960 On ch=1 n=d#6 v=92
48960 On ch=1 n=d#6 v=92
49200 On ch=1 n=d#6 v=0
49200 On ch=1 n=a#5 v=93
49440 On ch=1 n=a#5 v=0
49440 On ch=1 n=g5 v=94
49680 On ch=1 n=g5 v=0
49680 On ch=1 n=c#5 v=95
49920 On ch=1 n=d#6 v=0
49920 On ch=1 n=c#5 v=0
49920 On ch=1 n=e6 v=96
49920 On ch=1 n=e6 v=96
50160 On ch=1 n=e6 v=0
50160 On ch=1 n=a#5 v=97
50400 On ch=1 n=a#5 v=0
50400 On ch=1 n=g5 v=98
50640 On ch=1 n=g5 v=0
50640 On ch=1 n=c5 v=99
50880 On ch=1 n=c5 v=0
50880 On ch=1 n=e6 v=0
50880 On ch=1 n=f6 v=100
50880 On ch=1 n=f6 v=100
51120 On ch=1 n=f6 v=0
51120 On ch=1 n=c6 v=101
51360 On ch=1 n=c6 v=0
51360 On ch=1 n=a5 v=102
51600 On ch=1 n=a5 v=0
51600 On ch=1 n=d#5 v=103
51840 On ch=1 n=d#5 v=0
51840 On ch=1 n=f6 v=0
51840 On ch=1 n=f#6 v=104
51840 On ch=1 n=f#6 v=104
52080 On ch=1 n=f#6 v=0
52080 On ch=1 n=c6 v=105
52320 On ch=1 n=c6 v=0
52320 On ch=1 n=a5 v=106
52560 On ch=1 n=a5 v=0
52560 On ch=1 n=d5 v=107
52800 On ch=1 n=d5 v=0
52800 On ch=1 n=f#6 v=0
54720 On ch=1 n=g5 v=127
54720 On ch=1 n=d#6 v=127
54720 On ch=1 n=g6 v=127
56520 On ch=1 n=g6 v=0
56520 On ch=1 n=d#6 v=0
56520 On ch=1 n=g5 v=0
56640 On ch=1 n=a#5 v=127
56640 On ch=1 n=e6 v=127
56640 On ch=1 n=g6 v=127
57480 On ch=1 n=a#5 v=0
57600 On ch=1 n=a5 v=127
58440 On ch=1 n=a5 v=0
58440 On ch=1 n=g6 v=0
58880 On ch=1 n=f#4 v=108
59195 On ch=1 n=f#4 v=0
59200 On ch=1 n=d5 v=108
59515 On ch=1 n=d5 v=0
59520 On ch=1 n=f#5 v=108
59835 On ch=1 n=f#5 v=0
59840 On ch=1 n=d6 v=108
60155 On ch=1 n=d6 v=0
60800 On ch=1 n=c5 v=108
61115 On ch=1 n=c5 v=0
61120 On ch=1 n=f#5 v=108
61435 On ch=1 n=f#5 v=0
61440 On ch=1 n=c6 v=108
61755 On ch=1 n=c6 v=0
61760 On ch=1 n=f#6 v=108
62075 On ch=1 n=f#6 v=0
62400 On ch=1 n=g5 v=108
62400 On ch=1 n=a#5 v=108
62400 On ch=1 n=d6 v=108
62400 On ch=1 n=g6 v=108
65160 On ch=1 n=g6 v=0
65160 On ch=1 n=d6 v=0
65160 On ch=1 n=a#5 v=0
65160 On ch=1 n=g5 v=0
65280 On ch=1 n=g4 v=45
65280 On ch=1 n=a#4 v=45
65280 On ch=1 n=g5 v=45
66240 On ch=1 n=g5 v=0
66240 On ch=1 n=a#4 v=0
66240 On ch=1 n=g4 v=0
66240 On ch=1 n=g4 v=45
66240 On ch=1 n=a#4 v=45
66240 On ch=1 n=g5 v=45
67200 On ch=1 n=g5 v=0
67200 On ch=1 n=a#4 v=0
67200 On ch=1 n=g4 v=0
67200 On ch=1 n=g4 v=45
67200 On ch=1 n=a#4 v=45
67200 On ch=1 n=d#5 v=45
67200 On ch=1 n=g5 v=45
67680 On ch=1 n=g5 v=0
67680 On ch=1 n=a#5 v=45
68160 On ch=1 n=a#5 v=0
68160 On ch=1 n=d#5 v=0
68160 On ch=1 n=a#4 v=0
68160 On ch=1 n=g4 v=0
68160 On ch=1 n=g#4 v=45
68160 On ch=1 n=a#4 v=45
68160 On ch=1 n=d5 v=45
68160 On ch=1 n=a#5 v=45
68480 On ch=1 n=d5 v=0
68480 On ch=1 n=d#5 v=48
68800 On ch=1 n=d#5 v=0
68800 On ch=1 n=a#5 v=0
68800 On ch=1 n=a#4 v=0
68800 On ch=1 n=g#4 v=0
68800 On ch=1 n=f5 v=51
69120 On ch=1 n=f5 v=0
69120 On ch=1 n=a#4 v=54
69120 On ch=1 n=d#5 v=54
69120 On ch=1 n=a#5 v=54
69600 On ch=1 n=a#5 v=0
69600 On ch=1 n=d#6 v=59
70080 On ch=1 n=d#6 v=0
70080 On ch=1 n=d#5 v=0
70080 On ch=1 n=a#4 v=0
70080 On ch=1 n=f5 v=64
70080 On ch=1 n=c6 v=64
70080 On ch=1 n=d#6 v=64
70400 On ch=1 n=f5 v=0
70400 On ch=1 n=g5 v=67
70720 On ch=1 n=g5 v=0
70720 On ch=1 n=g#5 v=71
71040 On ch=1 n=g#5 v=0
71040 On ch=1 n=d#6 v=0
71040 On ch=1 n=c6 v=0
71040 On ch=1 n=d#5 v=75
71040 On ch=1 n=a5 v=75
71040 On ch=1 n=d#6 v=75
71360 On ch=1 n=a5 v=0
71360 On ch=1 n=a#5 v=75
71680 On ch=1 n=a#5 v=0
71680 On ch=1 n=d#6 v=0
71680 On ch=1 n=d#5 v=0
71680 On ch=1 n=c6 v=76
72000 On ch=1 n=c6 v=0
72000 On ch=1 n=d5 v=77
72000 On ch=1 n=g#5 v=77
72000 On ch=1 n=a#5 v=77
72000 On ch=1 n=d6 v=77
72320 On ch=1 n=d6 v=0
72320 On ch=1 n=a#5 v=0
72320 On ch=1 n=g#5 v=0
72320 On ch=1 n=d5 v=0
72320 On ch=1 n=d#5 v=78
72320 On ch=1 n=d#6 v=78
72640 On ch=1 n=d#6 v=0
72640 On ch=1 n=d#5 v=0
72640 On ch=1 n=f5 v=79
72640 On ch=1 n=g#5 v=79
72640 On ch=1 n=d6 v=79
72640 On ch=1 n=f6 v=79
72960 On ch=1 n=f6 v=0
72960 On ch=1 n=d6 v=0
72960 On ch=1 n=g#5 v=0
72960 On ch=1 n=f5 v=0
72960 On ch=1 n=a#4 v=80
72960 On ch=1 n=g5 v=80
72960 On ch=1 n=a#5 v=80
73440 On ch=1 n=a#5 v=0
73440 On ch=1 n=g5 v=0
73440 On ch=1 n=a#4 v=0
73440 On ch=1 n=d#5 v=81
73440 On ch=1 n=d#6 v=81
73920 On ch=1 n=d#6 v=0
73920 On ch=1 n=d#5 v=0
73920 On ch=1 n=d#5 v=82
73920 On ch=1 n=c6 v=82
73920 On ch=1 n=d#6 v=82
74240 On ch=1 n=c6 v=0
74240 On ch=1 n=a#5 v=83
74560 On ch=1 n=a#5 v=0
74560 On ch=1 n=d#6 v=0
74560 On ch=1 n=d#5 v=0
74560 On ch=1 n=a5 v=84
74880 On ch=1 n=a5 v=0
74880 On ch=1 n=d#5 v=85
74880 On ch=1 n=a#5 v=85
74880 On ch=1 n=d#6 v=85
75360 On ch=1 n=d#6 v=0
75360 On ch=1 n=a#5 v=0
75360 On ch=1 n=d#5 v=0
75360 On ch=1 n=g5 v=86
75360 On ch=1 n=g6 v=86
75840 On ch=1 n=g6 v=0
75840 On ch=1 n=g5 v=0
75840 On ch=1 n=g5 v=88
75840 On ch=1 n=a5 v=88
75840 On ch=1 n=d#6 v=88
75840 On ch=1 n=g6 v=88
76160 On ch=1 n=a5 v=0
76160 On ch=1 n=a#5 v=89
76480 On ch=1 n=a#5 v=0
76480 On ch=1 n=g5 v=0
76480 On ch=1 n=c6 v=90
76800 On ch=1 n=c6 v=0
76800 On ch=1 n=g6 v=0
76800 On ch=1 n=d#6 v=0
76800 On ch=1 n=f#5 v=92
76800 On ch=1 n=d6 v=92
76800 On ch=1 n=f#6 v=92
77120 On ch=1 n=f#6 v=0
77120 On ch=1 n=d6 v=0
77120 On ch=1 n=f#5 v=0
77120 On ch=1 n=g5 v=94
77120 On ch=1 n=e6 v=94
77120 On ch=1 n=g6 v=94
77440 On ch=1 n=g6 v=0
77440 On ch=1 n=g5 v=0
77440 On ch=1 n=e6 v=0
77440 On ch=1 n=a5 v=96
77440 On ch=1 n=f#6 v=96
77440 On ch=1 n=a6 v=96
77760 On ch=1 n=a6 v=0
77760 On ch=1 n=f#6 v=0
77760 On ch=1 n=a5 v=0
77760 On ch=1 n=a#5 v=99
77760 On ch=1 n=g6 v=99
77760 On ch=1 n=a#6 v=99
78080 On ch=1 n=a#6 v=0
78080 On ch=1 n=g6 v=0
78080 On ch=1 n=a#5 v=0
78080 On ch=1 n=c6 v=102
78080 On ch=1 n=a6 v=102
78080 On ch=1 n=c7 v=102
78400 On ch=1 n=c7 v=0
78400 On ch=1 n=a6 v=0
78400 On ch=1 n=c6 v=0
78400 On ch=1 n=d6 v=105
78400 On ch=1 n=a#6 v=105
78400 On ch=1 n=d7 v=105
78720 On ch=1 n=d7 v=0
78720 On ch=1 n=a#6 v=0
78720 On ch=1 n=d6 v=0
78720 On ch=1 n=f6 v=108
78720 On ch=1 n=g6 v=108
78720 On ch=1 n=c7 v=108
78720 On ch=1 n=f7 v=108
79040 On ch=1 n=f7 v=0
79040 On ch=1 n=g6 v=0
79040 On ch=1 n=f6 v=0
79040 On ch=1 n=d#6 v=106
79040 On ch=1 n=d#7 v=106
79360 On ch=1 n=d#7 v=0
79360 On ch=1 n=d#6 v=0
79360 On ch=1 n=c7 v=0
79360 On ch=1 n=d6 v=104
79360 On ch=1 n=a#6 v=104
79360 On ch=1 n=d7 v=104
79680 On ch=1 n=d7 v=0
79680 On ch=1 n=a#6 v=0
79680 On ch=1 n=d6 v=0
79680 On ch=1 n=c6 v=101
79680 On ch=1 n=d#6 v=101
79680 On ch=1 n=a6 v=101
79680 On ch=1 n=c7 v=101
80000 On ch=1 n=c7 v=0
80000 On ch=1 n=a6 v=0
80000 On ch=1 n=d#6 v=0
80000 On ch=1 n=c6 v=0
80000 On ch=1 n=d6 v=98
80000 On ch=1 n=d7 v=98
80320 On ch=1 n=d7 v=0
80320 On ch=1 n=d6 v=0
80320 On ch=1 n=c6 v=95
80320 On ch=1 n=d#6 v=95
80320 On ch=1 n=a6 v=95
80320 On ch=1 n=c7 v=95
80640 On ch=1 n=c7 v=0
80640 On ch=1 n=a6 v=0
80640 On ch=1 n=d#6 v=0
80640 On ch=1 n=c6 v=0
80640 On ch=1 n=f5 v=108
80640 On ch=1 n=d6 v=108
80640 On ch=1 n=f6 v=108
81600 On ch=1 n=f6 v=0
81600 On ch=1 n=d6 v=0
81600 On ch=1 n=f5 v=0
81600 On ch=1 n=g5 v=92
81600 On ch=1 n=d#6 v=92
81600 On ch=1 n=g6 v=92
81920 On ch=1 n=g6 v=0
81920 On ch=1 n=d#6 v=0
81920 On ch=1 n=g5 v=0
81920 On ch=1 n=f5 v=92
81920 On ch=1 n=d6 v=92
81920 On ch=1 n=f6 v=92
82240 On ch=1 n=f6 v=0
82240 On ch=1 n=d6 v=0
82240 On ch=1 n=f5 v=0
82240 On ch=1 n=d#5 v=92
82240 On ch=1 n=c6 v=92
82240 On ch=1 n=d#6 v=92
82560 On ch=1 n=d#6 v=0
82560 On ch=1 n=c6 v=0
82560 On ch=1 n=d#5 v=0
82560 On ch=1 n=f5 v=108
82560 On ch=1 n=d6 v=108
82560 On ch=1 n=f6 v=108
83520 On ch=1 n=f6 v=0
83520 On ch=1 n=d6 v=0
83520 On ch=1 n=f5 v=0
83520 On ch=1 n=d#6 v=92
83520 On ch=1 n=g6 v=92
83520 On ch=1 n=d#7 v=92
83840 On ch=1 n=d#7 v=0
83840 On ch=1 n=g6 v=0
83840 On ch=1 n=d#6 v=0
83840 On ch=1 n=d6 v=92
83840 On ch=1 n=f6 v=92
83840 On ch=1 n=d7 v=92
84160 On ch=1 n=d7 v=0
84160 On ch=1 n=f6 v=0
84160 On ch=1 n=d6 v=0
84160 On ch=1 n=c6 v=92
84160 On ch=1 n=d#6 v=92
84160 On ch=1 n=c7 v=92
84480 On ch=1 n=c7 v=0
84480 On ch=1 n=d#6 v=0
84480 On ch=1 n=c6 v=0
84480 On ch=1 n=f5 v=92
84480 On ch=1 n=d6 v=92
84480 On ch=1 n=f6 v=92
85440 On ch=1 n=f6 v=0
85440 On ch=1 n=d6 v=0
85440 On ch=1 n=f5 v=0
85440 On ch=1 n=a#5 v=92
85440 On ch=1 n=a#6 v=92
86400 On ch=1 n=a#6 v=0
86400 On ch=1 n=a#5 v=0
86400 On ch=1 n=c5 v=107
86400 On ch=1 n=a#5 v=77
86720 On ch=1 n=c5 v=0
86720 On ch=1 n=a#4 v=72
86720 On ch=1 n=d5 v=72
87040 On ch=1 n=d5 v=0
87040 On ch=1 n=a#4 v=0
87040 On ch=1 n=c5 v=67
87040 On ch=1 n=d#5 v=67
87360 On ch=1 n=d#5 v=0
87360 On ch=1 n=c5 v=0
87360 On ch=1 n=a#5 v=0
87360 On ch=1 n=d5 v=86
87360 On ch=1 n=f5 v=86
87360 On ch=1 n=a#5 v=86
88320 On ch=1 n=a#5 v=0
88320 On ch=1 n=f5 v=0
88320 On ch=1 n=d5 v=0
88320 On ch=1 n=g4 v=45
88320 On ch=1 n=a#4 v=45
88320 On ch=1 n=g5 v=45
89280 On ch=1 n=g5 v=0
89280 On ch=1 n=a#4 v=0
89280 On ch=1 n=g4 v=0
89280 On ch=1 n=g4 v=45
89280 On ch=1 n=a#4 v=45
89280 On ch=1 n=g5 v=45
90240 On ch=1 n=g5 v=0
90240 On ch=1 n=a#4 v=0
90240 On ch=1 n=g4 v=0
90240 On ch=1 n=g4 v=45
90240 On ch=1 n=a#4 v=45
90240 On ch=1 n=d#5 v=45
90240 On ch=1 n=g5 v=45
90720 On ch=1 n=g5 v=0
90720 On ch=1 n=a#5 v=45
91200 On ch=1 n=a#5 v=0
91200 On ch=1 n=d#5 v=0
91200 On ch=1 n=a#4 v=0
91200 On ch=1 n=g4 v=0
91200 On ch=1 n=g#4 v=45
91200 On ch=1 n=a#4 v=45
91200 On ch=1 n=d5 v=45
91200 On ch=1 n=a#5 v=45
91520 On ch=1 n=d5 v=0
91520 On ch=1 n=d#5 v=48
91840 On ch=1 n=d#5 v=0
91840 On ch=1 n=a#5 v=0
91840 On ch=1 n=a#4 v=0
91840 On ch=1 n=g#4 v=0
91840 On ch=1 n=f5 v=51
92160 On ch=1 n=f5 v=0
92160 On ch=1 n=a#4 v=54
92160 On ch=1 n=d#5 v=54
92160 On ch=1 n=a#5 v=54
92640 On ch=1 n=a#5 v=0
92640 On ch=1 n=d#6 v=59
93120 On ch=1 n=d#6 v=0
93120 On ch=1 n=d#5 v=0
93120 On ch=1 n=a#4 v=0
93120 On ch=1 n=f5 v=64
93120 On ch=1 n=c6 v=64
93120 On ch=1 n=d#6 v=64
93440 On ch=1 n=f5 v=0
93440 On ch=1 n=g5 v=67
93760 On ch=1 n=g5 v=0
93760 On ch=1 n=g#5 v=71
94080 On ch=1 n=g#5 v=0
94080 On ch=1 n=d#6 v=0
94080 On ch=1 n=c6 v=0
94080 On ch=1 n=d#5 v=75
94080 On ch=1 n=a5 v=75
94080 On ch=1 n=d#6 v=75
94400 On ch=1 n=a5 v=0
94400 On ch=1 n=a#5 v=75
94720 On ch=1 n=a#5 v=0
94720 On ch=1 n=d#6 v=0
94720 On ch=1 n=d#5 v=0
94720 On ch=1 n=c6 v=76
95040 On ch=1 n=c6 v=0
95040 On ch=1 n=d5 v=77
95040 On ch=1 n=g#5 v=77
95040 On ch=1 n=a#5 v=77
95040 On ch=1 n=d6 v=77
95360 On ch=1 n=d6 v=0
95360 On ch=1 n=a#5 v=0
95360 On ch=1 n=g#5 v=0
95360 On ch=1 n=d5 v=0
95360 On ch=1 n=d#5 v=78
95360 On ch=1 n=d#6 v=78
95680 On ch=1 n=d#6 v=0
95680 On ch=1 n=d#5 v=0
95680 On ch=1 n=f5 v=79
95680 On ch=1 n=g#5 v=79
95680 On ch=1 n=d6 v=79
95680 On ch=1 n=f6 v=79
96000 On ch=1 n=f6 v=0
96000 On ch=1 n=d6 v=0
96000 On ch=1 n=g#5 v=0
96000 On ch=1 n=f5 v=0
96000 On ch=1 n=a#4 v=80
96000 On ch=1 n=g5 v=80
96000 On ch=1 n=a#5 v=80
96480 On ch=1 n=a#5 v=0
96480 On ch=1 n=g5 v=0
96480 On ch=1 n=a#4 v=0
96480 On ch=1 n=d#5 v=81
96480 On ch=1 n=d#6 v=81
96960 On ch=1 n=d#6 v=0
96960 On ch=1 n=d#5 v=0
96960 On ch=1 n=d#5 v=82
96960 On ch=1 n=c6 v=82
96960 On ch=1 n=d#6 v=82
97280 On ch=1 n=c6 v=0
97280 On ch=1 n=a#5 v=83
97600 On ch=1 n=a#5 v=0
97600 On ch=1 n=d#6 v=0
97600 On ch=1 n=d#5 v=0
97600 On ch=1 n=a5 v=84
97920 On ch=1 n=a5 v=0
97920 On ch=1 n=d#5 v=85
97920 On ch=1 n=a#5 v=85
97920 On ch=1 n=d#6 v=85
98400 On ch=1 n=d#6 v=0
98400 On ch=1 n=a#5 v=0
98400 On ch=1 n=d#5 v=0
98400 On ch=1 n=g5 v=86
98400 On ch=1 n=g6 v=86
98880 On ch=1 n=g6 v=0
98880 On ch=1 n=g5 v=0
98880 On ch=1 n=g5 v=88
98880 On ch=1 n=a5 v=88
98880 On ch=1 n=d#6 v=88
98880 On ch=1 n=g6 v=88
99200 On ch=1 n=a5 v=0
99200 On ch=1 n=a#5 v=89
99520 On ch=1 n=a#5 v=0
99520 On ch=1 n=g5 v=0
99520 On ch=1 n=c6 v=90
99840 On ch=1 n=c6 v=0
99840 On ch=1 n=g6 v=0
99840 On ch=1 n=d#6 v=0
99840 On ch=1 n=f#5 v=92
99840 On ch=1 n=d6 v=92
99840 On ch=1 n=f#6 v=92
100160 On ch=1 n=f#6 v=0
100160 On ch=1 n=d6 v=0
100160 On ch=1 n=f#5 v=0
100160 On ch=1 n=g5 v=94
100160 On ch=1 n=e6 v=94
100160 On ch=1 n=g6 v=94
100480 On ch=1 n=g6 v=0
100480 On ch=1 n=g5 v=0
100480 On ch=1 n=e6 v=0
100480 On ch=1 n=a5 v=96
100480 On ch=1 n=f#6 v=96
100480 On ch=1 n=a6 v=96
100800 On ch=1 n=a6 v=0
100800 On ch=1 n=f#6 v=0
100800 On ch=1 n=a5 v=0
100800 On ch=1 n=a#5 v=99
100800 On ch=1 n=g6 v=99
100800 On ch=1 n=a#6 v=99
101120 On ch=1 n=a#6 v=0
101120 On ch=1 n=g6 v=0
101120 On ch=1 n=a#5 v=0
101120 On ch=1 n=c6 v=102
101120 On ch=1 n=a6 v=102
101120 On ch=1 n=c7 v=102
101440 On ch=1 n=c7 v=0
101440 On ch=1 n=a6 v=0
101440 On ch=1 n=c6 v=0
101440 On ch=1 n=d6 v=105
101440 On ch=1 n=a#6 v=105
101440 On ch=1 n=d7 v=105
101760 On ch=1 n=d7 v=0
101760 On ch=1 n=a#6 v=0
101760 On ch=1 n=d6 v=0
101760 On ch=1 n=f6 v=108
101760 On ch=1 n=g6 v=108
101760 On ch=1 n=c7 v=108
101760 On ch=1 n=f7 v=108
102080 On ch=1 n=f7 v=0
102080 On ch=1 n=g6 v=0
102080 On ch=1 n=f6 v=0
102080 On ch=1 n=d#6 v=106
102080 On ch=1 n=d#7 v=106
102400 On ch=1 n=d#7 v=0
102400 On ch=1 n=d#6 v=0
102400 On ch=1 n=c7 v=0
102400 On ch=1 n=d6 v=104
102400 On ch=1 n=a#6 v=104
102400 On ch=1 n=d7 v=104
102720 On ch=1 n=d7 v=0
102720 On ch=1 n=a#6 v=0
102720 On ch=1 n=d6 v=0
102720 On ch=1 n=c6 v=101
102720 On ch=1 n=d#6 v=101
102720 On ch=1 n=a6 v=101
102720 On ch=1 n=c7 v=101
103040 On ch=1 n=c7 v=0
103040 On ch=1 n=a6 v=0
103040 On ch=1 n=d#6 v=0
103040 On ch=1 n=c6 v=0
103040 On ch=1 n=d6 v=98
103040 On ch=1 n=d7 v=98
103360 On ch=1 n=d7 v=0
103360 On ch=1 n=d6 v=0
103360 On ch=1 n=c6 v=95
103360 On ch=1 n=d#6 v=95
103360 On ch=1 n=a6 v=95
103360 On ch=1 n=c7 v=95
103680 On ch=1 n=c7 v=0
103680 On ch=1 n=a6 v=0
103680 On ch=1 n=d#6 v=0
103680 On ch=1 n=c6 v=0
103680 On ch=1 n=f5 v=108
103680 On ch=1 n=d6 v=108
103680 On ch=1 n=f6 v=108
104640 On ch=1 n=f6 v=0
104640 On ch=1 n=d6 v=0
104640 On ch=1 n=f5 v=0
104640 On ch=1 n=g5 v=92
104640 On ch=1 n=d#6 v=92
104640 On ch=1 n=g6 v=92
104960 On ch=1 n=g6 v=0
104960 On ch=1 n=d#6 v=0
104960 On ch=1 n=g5 v=0
104960 On ch=1 n=f5 v=92
104960 On ch=1 n=d6 v=92
104960 On ch=1 n=f6 v=92
105280 On ch=1 n=f6 v=0
105280 On ch=1 n=d6 v=0
105280 On ch=1 n=f5 v=0
105280 On ch=1 n=d#5 v=92
105280 On ch=1 n=c6 v=92
105280 On ch=1 n=d#6 v=92
105600 On ch=1 n=d#6 v=0
105600 On ch=1 n=c6 v=0
105600 On ch=1 n=d#5 v=0
105600 On ch=1 n=f5 v=108
105600 On ch=1 n=d6 v=108
105600 On ch=1 n=f6 v=108
106560 On ch=1 n=f6 v=0
106560 On ch=1 n=d6 v=0
106560 On ch=1 n=f5 v=0
106560 On ch=1 n=d#6 v=92
106560 On ch=1 n=g6 v=92
106560 On ch=1 n=d#7 v=92
106880 On ch=1 n=d#7 v=0
106880 On ch=1 n=g6 v=0
106880 On ch=1 n=d#6 v=0
106880 On ch=1 n=d6 v=92
106880 On ch=1 n=f6 v=92
106880 On ch=1 n=d7 v=92
107200 On ch=1 n=d7 v=0
107200 On ch=1 n=f6 v=0
107200 On ch=1 n=d6 v=0
107200 On ch=1 n=c6 v=92
107200 On ch=1 n=d#6 v=92
107200 On ch=1 n=c7 v=92
107520 On ch=1 n=c7 v=0
107520 On ch=1 n=d#6 v=0
107520 On ch=1 n=c6 v=0
107520 On ch=1 n=f5 v=92
107520 On ch=1 n=d6 v=92
107520 On ch=1 n=f6 v=92
108480 On ch=1 n=f6 v=0
108480 On ch=1 n=d6 v=0
108480 On ch=1 n=f5 v=0
108480 On ch=1 n=a#5 v=92
108480 On ch=1 n=a#6 v=92
109440 On ch=1 n=a#6 v=0
109440 On ch=1 n=a#5 v=0
109440 On ch=1 n=c5 v=107
109440 On ch=1 n=a#5 v=77
109760 On ch=1 n=c5 v=0
109760 On ch=1 n=d5 v=72
110080 On ch=1 n=d5 v=0
110080 On ch=1 n=c5 v=67
110080 On ch=1 n=d#5 v=67
110400 On ch=1 n=d#5 v=0
110400 On ch=1 n=c5 v=0
110400 On ch=1 n=a#5 v=0
110400 On ch=1 n=a#4 v=86
110400 On ch=1 n=d5 v=86
110400 On ch=1 n=a#5 v=62
110720 On ch=1 n=d5 v=0
110720 On ch=1 n=a#4 v=0
110720 On ch=1 n=c5 v=57
110720 On ch=1 n=d#5 v=57
111040 On ch=1 n=d#5 v=0
111040 On ch=1 n=c5 v=0
111040 On ch=1 n=d5 v=51
111040 On ch=1 n=f5 v=51
111360 On ch=1 n=f5 v=0
111360 On ch=1 n=d5 v=0
111360 On ch=1 n=a#5 v=0
111360 On ch=1 n=b4 v=63
111360 On ch=1 n=d5 v=63
111360 On ch=1 n=b5 v=63
112320 On ch=1 n=b5 v=0
112320 On ch=1 n=d5 v=0
112320 On ch=1 n=b4 v=0
112320 On ch=1 n=b4 v=63
112320 On ch=1 n=d5 v=63
112320 On ch=1 n=b5 v=63
113280 On ch=1 n=b5 v=0
113280 On ch=1 n=d5 v=0
113280 On ch=1 n=b4 v=0
113280 On ch=1 n=c5 v=45
113280 On ch=1 n=e5 v=45
113280 On ch=1 n=c6 v=45
113600 On ch=1 n=c6 v=0
113600 On ch=1 n=c5 v=0
113600 On ch=1 n=e5 v=0
113600 On ch=1 n=b4 v=45
113600 On ch=1 n=d5 v=45
113600 On ch=1 n=b5 v=45
113920 On ch=1 n=b5 v=0
113920 On ch=1 n=d5 v=0
113920 On ch=1 n=b4 v=0
113920 On ch=1 n=a4 v=45
113920 On ch=1 n=c5 v=45
113920 On ch=1 n=a5 v=45
114240 On ch=1 n=a5 v=0
114240 On ch=1 n=c5 v=0
114240 On ch=1 n=a4 v=0
114240 On ch=1 n=b4 v=45
114240 On ch=1 n=d5 v=45
114240 On ch=1 n=b5 v=45
115200 On ch=1 n=b5 v=0
115200 On ch=1 n=d5 v=0
115200 On ch=1 n=b4 v=0
115200 On ch=1 n=e5 v=45
115200 On ch=1 n=c6 v=45
115200 On ch=1 n=e6 v=45
115520 On ch=1 n=c6 v=0
115520 On ch=1 n=e5 v=0
115520 On ch=1 n=e6 v=0
115520 On ch=1 n=d5 v=47
115520 On ch=1 n=b5 v=47
115520 On ch=1 n=d6 v=47
115840 On ch=1 n=d6 v=0
115840 On ch=1 n=b5 v=0
115840 On ch=1 n=d5 v=0
115840 On ch=1 n=c5 v=49
115840 On ch=1 n=a5 v=49
115840 On ch=1 n=c6 v=49
116160 On ch=1 n=c6 v=0
116160 On ch=1 n=a5 v=0
116160 On ch=1 n=c5 v=0
116160 On ch=1 n=b4 v=51
116160 On ch=1 n=g5 v=51
116160 On ch=1 n=b5 v=51
116480 On ch=1 n=b5 v=0
116480 On ch=1 n=g5 v=0
116480 On ch=1 n=b4 v=0
116480 On ch=1 n=c5 v=54
116480 On ch=1 n=a5 v=54
116480 On ch=1 n=c6 v=54
116800 On ch=1 n=c6 v=0
116800 On ch=1 n=a5 v=0
116800 On ch=1 n=c5 v=0
116800 On ch=1 n=d5 v=57
116800 On ch=1 n=b5 v=57
116800 On ch=1 n=d6 v=57
117120 On ch=1 n=d6 v=0
117120 On ch=1 n=b5 v=0
117120 On ch=1 n=d5 v=0
117120 On ch=1 n=a4 v=75
117120 On ch=1 n=c#5 v=75
117120 On ch=1 n=e5 v=75
117120 On ch=1 n=a5 v=75
117600 On ch=1 n=a5 v=0
117600 On ch=1 n=a4 v=0
117600 On ch=1 n=e5 v=0
117600 On ch=1 n=c#5 v=0
117600 On ch=1 n=a5 v=75
117600 On ch=1 n=c#6 v=75
117600 On ch=1 n=g6 v=75
117600 On ch=1 n=a6 v=75
118080 On ch=1 n=a6 v=0
118080 On ch=1 n=g6 v=0
118080 On ch=1 n=c#6 v=0
118080 On ch=1 n=a5 v=0
118080 On ch=1 n=a5 v=75
118080 On ch=1 n=c6 v=75
118080 On ch=1 n=f#6 v=75
118080 On ch=1 n=a6 v=75
118560 On ch=1 n=a6 v=0
118560 On ch=1 n=f#6 v=0
118560 On ch=1 n=c6 v=0
118560 On ch=1 n=a5 v=0
118560 On ch=1 n=d5 v=75
118560 On ch=1 n=a5 v=75
118560 On ch=1 n=c6 v=75
118560 On ch=1 n=d6 v=75
119040 On ch=1 n=d6 v=0
119040 On ch=1 n=c6 v=0
119040 On ch=1 n=a5 v=0
119040 On ch=1 n=d5 v=0
119040 On ch=1 n=b5 v=75
119040 On ch=1 n=d6 v=75
119040 On ch=1 n=g6 v=75
119040 On ch=1 n=b6 v=75
120000 On ch=1 n=b6 v=0
120000 On ch=1 n=g6 v=0
120000 On ch=1 n=d6 v=0
120000 On ch=1 n=b5 v=0
120000 On ch=1 n=c6 v=75
120000 On ch=1 n=e6 v=75
120000 On ch=1 n=c7 v=75
120960 On ch=1 n=c7 v=0
120960 On ch=1 n=c6 v=0
120960 On ch=1 n=e6 v=0
120960 On ch=1 n=e6 v=75
120960 On ch=1 n=c7 v=75
120960 On ch=1 n=e7 v=75
121280 On ch=1 n=e7 v=0
121280 On ch=1 n=c7 v=0
121280 On ch=1 n=e6 v=0
121280 On ch=1 n=d6 v=77
121280 On ch=1 n=b6 v=77
121280 On ch=1 n=d7 v=77
121600 On ch=1 n=d7 v=0
121600 On ch=1 n=b6 v=0
121600 On ch=1 n=d6 v=0
121600 On ch=1 n=c6 v=80
121600 On ch=1 n=a6 v=80
121600 On ch=1 n=c7 v=80
121920 On ch=1 n=c7 v=0
121920 On ch=1 n=a6 v=0
121920 On ch=1 n=c6 v=0
121920 On ch=1 n=d6 v=83
121920 On ch=1 n=b6 v=83
121920 On ch=1 n=d7 v=83
122880 On ch=1 n=d7 v=0
122880 On ch=1 n=b6 v=0
122880 On ch=1 n=d6 v=0
122880 On ch=1 n=g6 v=92
122880 On ch=1 n=e7 v=92
122880 On ch=1 n=g7 v=92
123200 On ch=1 n=g7 v=0
123200 On ch=1 n=e7 v=0
123200 On ch=1 n=g6 v=0
123200 On ch=1 n=f#6 v=92
123200 On ch=1 n=d7 v=92
123200 On ch=1 n=f#7 v=92
123520 On ch=1 n=f#7 v=0
123520 On ch=1 n=d7 v=0
123520 On ch=1 n=f#6 v=0
123520 On ch=1 n=e6 v=92
123520 On ch=1 n=c7 v=92
123520 On ch=1 n=e7 v=92
123840 On ch=1 n=e7 v=0
123840 On ch=1 n=c7 v=0
123840 On ch=1 n=e6 v=0
123840 On ch=1 n=d6 v=92
123840 On ch=1 n=b6 v=92
123840 On ch=1 n=d7 v=92
124160 On ch=1 n=d7 v=0
124160 On ch=1 n=b6 v=0
124160 On ch=1 n=d6 v=0
124160 On ch=1 n=c6 v=92
124160 On ch=1 n=a6 v=92
124160 On ch=1 n=c7 v=92
124480 On ch=1 n=c7 v=0
124480 On ch=1 n=a6 v=0
124480 On ch=1 n=c6 v=0
124480 On ch=1 n=b5 v=92
124480 On ch=1 n=g6 v=92
124480 On ch=1 n=b6 v=92
124800 On ch=1 n=b6 v=0
124800 On ch=1 n=g6 v=0
124800 On ch=1 n=b5 v=0
124800 On ch=1 n=g6 v=92
124800 On ch=1 n=d#7 v=92
124800 On ch=1 n=g7 v=92
125120 On ch=1 n=g7 v=0
125120 On ch=1 n=d#7 v=0
125120 On ch=1 n=g6 v=0
125120 On ch=1 n=f6 v=92
125120 On ch=1 n=d7 v=92
125120 On ch=1 n=f7 v=92
125440 On ch=1 n=f7 v=0
125440 On ch=1 n=d7 v=0
125440 On ch=1 n=f6 v=0
125440 On ch=1 n=d#6 v=92
125440 On ch=1 n=c7 v=92
125440 On ch=1 n=d#7 v=92
125760 On ch=1 n=d#7 v=0
125760 On ch=1 n=c7 v=0
125760 On ch=1 n=d#6 v=0
125760 On ch=1 n=d6 v=92
125760 On ch=1 n=a#6 v=92
125760 On ch=1 n=d7 v=92
126080 On ch=1 n=d7 v=0
126080 On ch=1 n=a#6 v=0
126080 On ch=1 n=d6 v=0
126080 On ch=1 n=c6 v=92
126080 On ch=1 n=a6 v=92
126080 On ch=1 n=c7 v=92
126400 On ch=1 n=c7 v=0
126400 On ch=1 n=a6 v=0
126400 On ch=1 n=c6 v=0
126400 On ch=1 n=a#5 v=92
126400 On ch=1 n=g6 v=92
126400 On ch=1 n=a#6 v=92
126720 On ch=1 n=a#6 v=0
126720 On ch=1 n=g6 v=0
126720 On ch=1 n=a#5 v=0
126720 On ch=1 n=c6 v=92
126720 On ch=1 n=d#6 v=92
126720 On ch=1 n=g#6 v=92
126720 On ch=1 n=c7 v=92
127680 On ch=1 n=c7 v=0
127680 On ch=1 n=g#6 v=0
127680 On ch=1 n=d#6 v=0
127680 On ch=1 n=c6 v=0
127680 On ch=1 n=c6 v=92
127680 On ch=1 n=d6 v=92
127680 On ch=1 n=g#6 v=92
127680 On ch=1 n=c7 v=92
128000 On ch=1 n=c7 v=0
128000 On ch=1 n=g#6 v=0
128000 On ch=1 n=d6 v=0
128000 On ch=1 n=c6 v=0
128000 On ch=1 n=a#5 v=92
128000 On ch=1 n=a#6 v=92
128320 On ch=1 n=a#6 v=0
128320 On ch=1 n=a#5 v=0
128320 On ch=1 n=g#5 v=92
128320 On ch=1 n=g#6 v=92
128640 On ch=1 n=g#6 v=0
128640 On ch=1 n=g#5 v=0
128640 On ch=1 n=a#5 v=92
128640 On ch=1 n=d6 v=92
128640 On ch=1 n=g6 v=92
128640 On ch=1 n=a#6 v=92
129600 On ch=1 n=a#6 v=0
129600 On ch=1 n=g6 v=0
129600 On ch=1 n=d6 v=0
129600 On ch=1 n=a#5 v=0
129600 On ch=1 n=a#5 v=92
129600 On ch=1 n=c6 v=92
129600 On ch=1 n=g6 v=92
129600 On ch=1 n=a#6 v=92
129920 On ch=1 n=a#6 v=0
129920 On ch=1 n=g6 v=0
129920 On ch=1 n=c6 v=0
129920 On ch=1 n=a#5 v=0
129920 On ch=1 n=g#5 v=92
129920 On ch=1 n=g#6 v=92
130240 On ch=1 n=g#6 v=0
130240 On ch=1 n=g#5 v=0
130240 On ch=1 n=g5 v=92
130240 On ch=1 n=g6 v=92
130560 On ch=1 n=g6 v=0
130560 On ch=1 n=g5 v=0
130560 On ch=1 n=g#5 v=92
130560 On ch=1 n=c6 v=92
130560 On ch=1 n=f6 v=92
130560 On ch=1 n=g#6 v=92
131520 On ch=1 n=g#6 v=0
131520 On ch=1 n=f6 v=0
131520 On ch=1 n=c6 v=0
131520 On ch=1 n=g#5 v=0
131520 On ch=1 n=g5 v=92
131520 On ch=1 n=d6 v=92
131520 On ch=1 n=f6 v=92
131520 On ch=1 n=g6 v=92
132480 On ch=1 n=g6 v=0
132480 On ch=1 n=f6 v=0
132480 On ch=1 n=d6 v=0
132480 On ch=1 n=g5 v=0
132480 On ch=1 n=g#5 v=87
132480 On ch=1 n=c6 v=87
132480 On ch=1 n=f6 v=87
132480 On ch=1 n=g#6 v=87
133440 On ch=1 n=g#6 v=0
133440 On ch=1 n=f6 v=0
133440 On ch=1 n=c6 v=0
133440 On ch=1 n=g#5 v=0
133440 On ch=1 n=g5 v=81
133440 On ch=1 n=d6 v=81
133440 On ch=1 n=f6 v=81
133440 On ch=1 n=g6 v=81
134400 On ch=1 n=g6 v=0
134400 On ch=1 n=f6 v=0
134400 On ch=1 n=d6 v=0
134400 On ch=1 n=g5 v=0
134400 On ch=1 n=c5 v=108
134400 On ch=1 n=f#5 v=108
134400 On ch=1 n=g#5 v=108
135360 On ch=1 n=c5 v=0
135360 On ch=1 n=d5 v=92
135840 On ch=1 n=d5 v=0
135840 On ch=1 n=d#5 v=85
136320 On ch=1 n=d#5 v=0
136320 On ch=1 n=g#5 v=0
136320 On ch=1 n=f#5 v=0
136320 On ch=1 n=b4 v=77
136320 On ch=1 n=d5 v=77
136320 On ch=1 n=g5 v=77
137280 On ch=1 n=d5 v=0
137280 On ch=1 n=b4 v=0
137280 On ch=1 n=c5 v=61
137280 On ch=1 n=d#5 v=61
137760 On ch=1 n=d#5 v=0
137760 On ch=1 n=c5 v=0
137760 On ch=1 n=d5 v=53
137760 On ch=1 n=f5 v=53
138240 On ch=1 n=f5 v=0
138240 On ch=1 n=d5 v=0
138240 On ch=1 n=g5 v=0
138240 On ch=1 n=g4 v=63
138240 On ch=1 n=a#4 v=63
138240 On ch=1 n=g5 v=63
139200 On ch=1 n=g5 v=0
139200 On ch=1 n=a#4 v=0
139200 On ch=1 n=g4 v=0
139200 On ch=1 n=g4 v=63
139200 On ch=1 n=a#4 v=63
139200 On ch=1 n=g5 v=63
140160 On ch=1 n=g5 v=0
140160 On ch=1 n=a#4 v=0
140160 On ch=1 n=g4 v=0
140160 On ch=1 n=g4 v=45
140160 On ch=1 n=a#4 v=45
140160 On ch=1 n=d#5 v=45
140160 On ch=1 n=g5 v=45
140640 On ch=1 n=g5 v=0
140640 On ch=1 n=a#5 v=45
141120 On ch=1 n=a#5 v=0
141120 On ch=1 n=d#5 v=0
141120 On ch=1 n=a#4 v=0
141120 On ch=1 n=g4 v=0
141120 On ch=1 n=g#4 v=45
141120 On ch=1 n=a#4 v=45
141120 On ch=1 n=d5 v=45
141120 On ch=1 n=d6 v=45
141440 On ch=1 n=d5 v=0
141440 On ch=1 n=d#5 v=45
141760 On ch=1 n=f5 v=45
141920 On ch=1 n=d#5 v=0
142080 On ch=1 n=d6 v=0
142080 On ch=1 n=a#4 v=0
142080 On ch=1 n=g#4 v=0
142080 On ch=1 n=a#4 v=45
142080 On ch=1 n=d#5 v=45
142080 On ch=1 n=a#5 v=45
142240 On ch=1 n=f5 v=0
142560 On ch=1 n=a#5 v=0
142560 On ch=1 n=d#6 v=45
143040 On ch=1 n=d#6 v=0
143040 On ch=1 n=d#5 v=0
143040 On ch=1 n=a#4 v=0
143040 On ch=1 n=d#5 v=45
143040 On ch=1 n=a#5 v=45
143040 On ch=1 n=d#6 v=45
143360 On ch=1 n=a#5 v=0
143360 On ch=1 n=c6 v=50
143680 On ch=1 n=c6 v=0
143680 On ch=1 n=c#6 v=55
144000 On ch=1 n=c#6 v=0
144000 On ch=1 n=d#6 v=0
144000 On ch=1 n=d#5 v=0
144000 On ch=1 n=e5 v=60
144000 On ch=1 n=c6 v=60
144000 On ch=1 n=e6 v=60
144320 On ch=1 n=c6 v=0
144320 On ch=1 n=e6 v=0
144320 On ch=1 n=e5 v=0
144320 On ch=1 n=f5 v=65
144320 On ch=1 n=d6 v=65
144320 On ch=1 n=f6 v=65
144640 On ch=1 n=f6 v=0
144640 On ch=1 n=d6 v=0
144640 On ch=1 n=f5 v=0
144640 On ch=1 n=g5 v=70
144640 On ch=1 n=e6 v=70
144640 On ch=1 n=g6 v=70
144960 On ch=1 n=g6 v=0
144960 On ch=1 n=g5 v=0
144960 On ch=1 n=e6 v=0
144960 On ch=1 n=g#5 v=75
144960 On ch=1 n=f6 v=75
144960 On ch=1 n=g#6 v=75
145280 On ch=1 n=g#6 v=0
145280 On ch=1 n=f6 v=0
145280 On ch=1 n=g#5 v=0
145280 On ch=1 n=a#5 v=80
145280 On ch=1 n=g6 v=80
145280 On ch=1 n=a#6 v=80
145600 On ch=1 n=a#6 v=0
145600 On ch=1 n=g6 v=0
145600 On ch=1 n=a#5 v=0
145600 On ch=1 n=c6 v=86
145600 On ch=1 n=g#6 v=86
145600 On ch=1 n=c7 v=86
145920 On ch=1 n=c7 v=0
145920 On ch=1 n=g#6 v=0
145920 On ch=1 n=c6 v=0
145920 On ch=1 n=d#6 v=92
145920 On ch=1 n=g6 v=92
145920 On ch=1 n=d#7 v=92
146400 On ch=1 n=d#7 v=0
146400 On ch=1 n=g6 v=0
146400 On ch=1 n=d#6 v=0
146400 On ch=1 n=g5 v=92
146400 On ch=1 n=d#6 v=92
146400 On ch=1 n=g6 v=92
146880 On ch=1 n=g6 v=0
146880 On ch=1 n=d#6 v=0
146880 On ch=1 n=g5 v=0
146880 On ch=1 n=g#5 v=92
146880 On ch=1 n=a#5 v=92
146880 On ch=1 n=d6 v=92
146880 On ch=1 n=a#6 v=92
147200 On ch=1 n=d6 v=0
147200 On ch=1 n=d#6 v=92
147520 On ch=1 n=d#6 v=0
147520 On ch=1 n=f6 v=92
147840 On ch=1 n=f6 v=0
147840 On ch=1 n=a#6 v=0
147840 On ch=1 n=a#5 v=0
147840 On ch=1 n=g#5 v=0
147840 On ch=1 n=d#5 v=108
147840 On ch=1 n=g5 v=108
147840 On ch=1 n=d#6 v=108
148320 On ch=1 n=d#6 v=0
148320 On ch=1 n=g5 v=0
148320 On ch=1 n=d#5 v=0
148320 On ch=1 n=g4 v=93
148320 On ch=1 n=d#5 v=93
148320 On ch=1 n=g5 v=93
148800 On ch=1 n=g5 v=0
148800 On ch=1 n=d#5 v=0
148800 On ch=1 n=g4 v=0
148800 On ch=1 n=g#4 v=77
148800 On ch=1 n=a#4 v=77
148800 On ch=1 n=d5 v=77
148800 On ch=1 n=a#5 v=77
149120 On ch=1 n=d5 v=0
149120 On ch=1 n=d#5 v=67
149440 On ch=1 n=d#5 v=0
149440 On ch=1 n=f5 v=56
149760 On ch=1 n=f5 v=0
149760 On ch=1 n=a#5 v=0
149760 On ch=1 n=a#4 v=0
149760 On ch=1 n=g#4 v=0
149760 On ch=1 n=d#4 v=45
149760 On ch=1 n=g4 v=45
149760 On ch=1 n=d#5 v=45
150720 On ch=1 n=d#5 v=0
150720 On ch=1 n=g4 v=0
150720 On ch=1 n=d#4 v=0
150720 On ch=1 n=d#4 v=45
150720 On ch=1 n=g4 v=45
150720 On ch=1 n=d#5 v=45
152640 On ch=1 n=d#5 v=0
152640 On ch=1 n=g4 v=0
152640 On ch=1 n=d#4 v=0
152640 On ch=1 n=g4 v=45
152640 On ch=1 n=d#5 v=45
152640 On ch=1 n=g5 v=45
153600 On ch=1 n=g5 v=0
153600 On ch=1 n=d#5 v=0
153600 On ch=1 n=g4 v=0
153600 On ch=1 n=d#5 v=45
153600 On ch=1 n=g5 v=45
157440 On ch=1 n=g5 v=0
157440 On ch=1 n=d#5 v=0
157440 On ch=1 n=g6 v=92
157440 On ch=1 n=g6 v=92
157680 On ch=1 n=g6 v=0
157680 On ch=1 n=d#6 v=92
157920 On ch=1 n=d#6 v=0
157920 On ch=1 n=c6 v=92
158160 On ch=1 n=c6 v=0
158160 On ch=1 n=a#5 v=92
158400 On ch=1 n=a#5 v=0
158400 On ch=1 n=g6 v=0
158400 On ch=1 n=a5 v=92
158400 On ch=1 n=c6 v=92
158400 On ch=1 n=d#6 v=92
158400 On ch=1 n=g6 v=92
159840 On ch=1 n=g6 v=0
159840 On ch=1 n=d#6 v=0
159840 On ch=1 n=c6 v=0
159840 On ch=1 n=a5 v=0
159840 On ch=1 n=f#6 v=92
159840 On ch=1 n=f#6 v=92
160080 On ch=1 n=f#6 v=0
160080 On ch=1 n=a5 v=92
160080 On ch=1 n=c6 v=92
160080 On ch=1 n=d#6 v=92
160320 On ch=1 n=d#6 v=0
160320 On ch=1 n=c6 v=0
160320 On ch=1 n=a5 v=0
160320 On ch=1 n=f#6 v=0
160320 On ch=1 n=g6 v=92
160320 On ch=1 n=g6 v=92
160560 On ch=1 n=g6 v=0
160560 On ch=1 n=g5 v=92
160560 On ch=1 n=a#5 v=92
160560 On ch=1 n=d6 v=92
160800 On ch=1 n=d6 v=0
160800 On ch=1 n=a#5 v=0
160800 On ch=1 n=g5 v=0
160800 On ch=1 n=g6 v=0
160800 On ch=1 n=a6 v=92
160800 On ch=1 n=a6 v=92
161040 On ch=1 n=a6 v=0
161040 On ch=1 n=a5 v=92
161040 On ch=1 n=c6 v=92
161280 On ch=1 n=c6 v=0
161280 On ch=1 n=a5 v=0
161280 On ch=1 n=a6 v=0
161280 On ch=1 n=a#5 v=92
161280 On ch=1 n=a#5 v=92
161520 On ch=1 n=a#5 v=0
161520 On ch=1 n=g5 v=92
161760 On ch=1 n=g5 v=0
161760 On ch=1 n=d#5 v=92
162000 On ch=1 n=d#5 v=0
162000 On ch=1 n=d5 v=92
162240 On ch=1 n=d5 v=0
162240 On ch=1 n=a#5 v=0
162240 On ch=1 n=c#5 v=92
162240 On ch=1 n=e5 v=92
162240 On ch=1 n=g5 v=92
162240 On ch=1 n=a#5 v=92
163680 On ch=1 n=a#5 v=0
163680 On ch=1 n=g5 v=0
163680 On ch=1 n=g5 v=92
163680 On ch=1 n=g5 v=92
163920 On ch=1 n=g5 v=0
163920 On ch=1 n=c#5 v=92
163920 On ch=1 n=e5 v=92
164160 On ch=1 n=g5 v=0
164160 On ch=1 n=e5 v=0
164160 On ch=1 n=c#5 v=0
164160 On ch=1 n=c#6 v=92
164160 On ch=1 n=c#6 v=92
164400 On ch=1 n=c#6 v=0
164400 On ch=1 n=e5 v=92
164400 On ch=1 n=a#5 v=92
164640 On ch=1 n=a#5 v=0
164640 On ch=1 n=c#6 v=0
164640 On ch=1 n=e5 v=0
164640 On ch=1 n=d6 v=92
164640 On ch=1 n=d6 v=92
164880 On ch=1 n=d6 v=0
164880 On ch=1 n=d5 v=92
164880 On ch=1 n=a5 v=92
165120 On ch=1 n=a5 v=0
165120 On ch=1 n=d5 v=0
165120 On ch=1 n=d6 v=0
165120 On ch=1 n=g6 v=92
165120 On ch=1 n=g6 v=127
165360 On ch=1 n=g6 v=0
165360 On ch=1 n=d#6 v=92
165600 On ch=1 n=d#6 v=0
165600 On ch=1 n=c6 v=92
165840 On ch=1 n=c6 v=0
165840 On ch=1 n=a#5 v=92
166080 On ch=1 n=a#5 v=0
166080 On ch=1 n=g6 v=0
166080 On ch=1 n=a5 v=127
166080 On ch=1 n=c6 v=127
166080 On ch=1 n=d#6 v=127
166080 On ch=1 n=g6 v=127
167520 On ch=1 n=g6 v=0
167520 On ch=1 n=d#6 v=0
167520 On ch=1 n=c6 v=0
167520 On ch=1 n=a5 v=0
167520 On ch=1 n=c7 v=92
167520 On ch=1 n=c7 v=92
167760 On ch=1 n=c7 v=0
167760 On ch=1 n=c6 v=92
167760 On ch=1 n=d#6 v=92
168000 On ch=1 n=d#6 v=0
168000 On ch=1 n=c6 v=0
168000 On ch=1 n=c7 v=0
168000 On ch=1 n=a6 v=92
168000 On ch=1 n=a6 v=92
168240 On ch=1 n=a6 v=0
168240 On ch=1 n=a5 v=92
168240 On ch=1 n=d#6 v=92
168480 On ch=1 n=d#6 v=0
168480 On ch=1 n=a5 v=0
168480 On ch=1 n=a6 v=0
168480 On ch=1 n=c6 v=92
168480 On ch=1 n=c6 v=92
168720 On ch=1 n=c6 v=0
168720 On ch=1 n=c5 v=92
168720 On ch=1 n=f#5 v=92
168960 On ch=1 n=f#5 v=0
168960 On ch=1 n=c5 v=0
168960 On ch=1 n=c6 v=0
168960 On ch=1 n=a#5 v=92
168960 On ch=1 n=a#5 v=92
169200 On ch=1 n=a#5 v=0
169200 On ch=1 n=g5 v=92
169440 On ch=1 n=g5 v=0
169440 On ch=1 n=d#5 v=92
169680 On ch=1 n=d#5 v=0
169680 On ch=1 n=d5 v=92
169920 On ch=1 n=d5 v=0
169920 On ch=1 n=a#5 v=0
169920 On ch=1 n=c#5 v=92
169920 On ch=1 n=e5 v=92
169920 On ch=1 n=g5 v=92
169920 On ch=1 n=a#5 v=92
171360 On ch=1 n=a#5 v=0
171360 On ch=1 n=g5 v=0
171360 On ch=1 n=a5 v=92
171360 On ch=1 n=a5 v=92
171600 On ch=1 n=a5 v=0
171600 On ch=1 n=c#5 v=92
171600 On ch=1 n=e5 v=92
171840 On ch=1 n=a5 v=0
171840 On ch=1 n=e5 v=0
171840 On ch=1 n=c#5 v=0
171840 On ch=1 n=g5 v=92
171840 On ch=1 n=g5 v=92
172080 On ch=1 n=g5 v=0
172080 On ch=1 n=a#4 v=92
172080 On ch=1 n=e5 v=92
172320 On ch=1 n=a#4 v=0
172320 On ch=1 n=g5 v=0
172320 On ch=1 n=e5 v=0
172320 On ch=1 n=f#5 v=92
172320 On ch=1 n=f#5 v=92
172560 On ch=1 n=f#5 v=0
172560 On ch=1 n=a4 v=92
172560 On ch=1 n=d5 v=92
172800 On ch=1 n=d5 v=0
172800 On ch=1 n=a4 v=0
172800 On ch=1 n=f#5 v=0
172800 On ch=1 n=d#6 v=92
172800 On ch=1 n=d#6 v=92
173040 On ch=1 n=d#6 v=0
173040 On ch=1 n=c6 v=92
173280 On ch=1 n=c6 v=0
173280 On ch=1 n=g#5 v=92
173520 On ch=1 n=g#5 v=0
173520 On ch=1 n=g5 v=92
173760 On ch=1 n=g5 v=0
173760 On ch=1 n=f#5 v=92
173760 On ch=1 n=f#5 v=92
174000 On ch=1 n=f#5 v=0
174000 On ch=1 n=a5 v=92
174240 On ch=1 n=a5 v=0
174240 On ch=1 n=f#5 v=0
174240 On ch=1 n=c#6 v=92
174480 On ch=1 n=c#6 v=0
174480 On ch=1 n=d#6 v=0
174480 On ch=1 n=d6 v=92
174720 On ch=1 n=d6 v=0
174720 On ch=1 n=d#6 v=92
174720 On ch=1 n=d#6 v=92
174960 On ch=1 n=d#6 v=0
174960 On ch=1 n=c6 v=92
175200 On ch=1 n=c6 v=0
175200 On ch=1 n=g#5 v=92
175440 On ch=1 n=g#5 v=0
175440 On ch=1 n=g5 v=92
175680 On ch=1 n=g5 v=0
175680 On ch=1 n=f#5 v=92
175680 On ch=1 n=f#5 v=92
175920 On ch=1 n=f#5 v=0
175920 On ch=1 n=a5 v=92
176160 On ch=1 n=a5 v=0
176160 On ch=1 n=f#5 v=0
176160 On ch=1 n=c#6 v=92
176400 On ch=1 n=c#6 v=0
176400 On ch=1 n=d#6 v=0
176400 On ch=1 n=d6 v=92
176640 On ch=1 n=d6 v=0
176640 On ch=1 n=f6 v=75
176640 On ch=1 n=f6 v=75
176880 On ch=1 n=f6 v=0
176880 On ch=1 n=d6 v=77
177120 On ch=1 n=d6 v=0
177120 On ch=1 n=a#5 v=79
177360 On ch=1 n=a#5 v=0
177360 On ch=1 n=a5 v=81
177600 On ch=1 n=a5 v=0
177600 On ch=1 n=g#5 v=83
177600 On ch=1 n=g#5 v=83
177840 On ch=1 n=g#5 v=0
177840 On ch=1 n=b5 v=85
178080 On ch=1 n=b5 v=0
178080 On ch=1 n=g#5 v=0
178080 On ch=1 n=d#6 v=87
178320 On ch=1 n=d#6 v=0
178320 On ch=1 n=f6 v=0
178320 On ch=1 n=e6 v=89
178560 On ch=1 n=e6 v=0
178560 Par ch=1 c=64 v=0
178560 On ch=1 n=g6 v=91
178560 On ch=1 n=g6 v=91
178800 On ch=1 n=g6 v=0
178800 On ch=1 n=e6 v=93
179040 On ch=1 n=e6 v=0
179040 On ch=1 n=c6 v=95
179280 On ch=1 n=c6 v=0
179280 On ch=1 n=b5 v=97
179520 On ch=1 n=b5 v=0
179520 On ch=1 n=g6 v=0
179520 On ch=1 n=g6 v=99
179520 On ch=1 n=g6 v=99
179760 On ch=1 n=g6 v=0
179760 On ch=1 n=e6 v=101
180000 On ch=1 n=e6 v=0
180000 On ch=1 n=c6 v=103
180240 On ch=1 n=c6 v=0
180240 On ch=1 n=a#5 v=105
180480 On ch=1 n=a#5 v=0
180480 On ch=1 n=g6 v=0
180480 On ch=1 n=g5 v=92
180480 On ch=1 n=a5 v=92
180480 On ch=1 n=g6 v=92
180480 On ch=1 n=g6 v=92
180880 On ch=1 n=g6 v=0
180960 On ch=1 n=d#6 v=92
181360 On ch=1 n=d#6 v=0
181440 On ch=1 n=c6 v=92
181800 On ch=1 n=g6 v=0
181800 On ch=1 n=a5 v=0
181800 On ch=1 n=g5 v=0
181840 On ch=1 n=c6 v=0
181920 On ch=1 n=a#5 v=92
181920 On ch=1 n=d#6 v=92
181920 On ch=1 n=g6 v=92
182320 On ch=1 n=a#5 v=0
182400 On ch=1 n=a5 v=92
182800 On ch=1 n=a5 v=0
182800 On ch=1 n=g6 v=0
182800 On ch=1 n=d#6 v=0
182880 On ch=1 n=f#6 v=92
182880 On ch=1 n=f#6 v=92
183115 On ch=1 n=f#6 v=0
183120 On ch=1 n=a5 v=92
183120 On ch=1 n=c6 v=92
183120 On ch=1 n=d#6 v=92
183280 On ch=1 n=f#6 v=0
183355 On ch=1 n=d#6 v=0
183355 On ch=1 n=c6 v=0
183355 On ch=1 n=a5 v=0
183360 On ch=1 n=g6 v=92
183360 On ch=1 n=g6 v=92
183595 On ch=1 n=g6 v=0
183600 On ch=1 n=g5 v=92
183600 On ch=1 n=a#5 v=92
183600 On ch=1 n=d6 v=92
183760 On ch=1 n=g6 v=0
183835 On ch=1 n=d6 v=0
183835 On ch=1 n=a#5 v=0
183835 On ch=1 n=g5 v=0
183840 On ch=1 n=a6 v=92
183840 On ch=1 n=a6 v=92
184075 On ch=1 n=a6 v=0
184080 On ch=1 n=a5 v=92
184080 On ch=1 n=c6 v=92
184240 On ch=1 n=a6 v=0
184315 On ch=1 n=c6 v=0
184315 On ch=1 n=a5 v=0
184320 On ch=1 n=a#5 v=92
184320 On ch=1 n=a#5 v=92
184555 On ch=1 n=a#5 v=0
184560 On ch=1 n=g5 v=92
184795 On ch=1 n=g5 v=0
184800 On ch=1 n=d#5 v=92
185035 On ch=1 n=d#5 v=0
185040 On ch=1 n=d5 v=92
185160 On ch=1 n=a#5 v=0
185275 On ch=1 n=d5 v=0
185280 On ch=1 n=c#5 v=92
185280 On ch=1 n=e5 v=92
185280 On ch=1 n=g5 v=92
185280 On ch=1 n=a#5 v=92
186640 On ch=1 n=a#5 v=0
186640 On ch=1 n=g5 v=0
186720 On ch=1 n=g5 v=92
186720 On ch=1 n=g5 v=92
186955 On ch=1 n=g5 v=0
186960 On ch=1 n=c#5 v=92
186960 On ch=1 n=e5 v=92
187120 On ch=1 n=g5 v=0
187195 On ch=1 n=e5 v=0
187195 On ch=1 n=c#5 v=0
187200 On ch=1 n=c#6 v=92
187200 On ch=1 n=c#6 v=92
187435 On ch=1 n=c#6 v=0
187440 On ch=1 n=e5 v=92
187440 On ch=1 n=a#5 v=92
187600 On ch=1 n=c#6 v=0
187675 On ch=1 n=a#5 v=0
187675 On ch=1 n=e5 v=0
187680 On ch=1 n=d6 v=92
187680 On ch=1 n=d6 v=92
187915 On ch=1 n=d6 v=0
187920 On ch=1 n=d5 v=92
187920 On ch=1 n=a5 v=92
188080 On ch=1 n=d6 v=0
188155 On ch=1 n=a5 v=0
188155 On ch=1 n=d5 v=0
188160 On ch=1 n=g6 v=92
188160 On ch=1 n=g6 v=127
188395 On ch=1 n=g6 v=0
188400 On ch=1 n=d#6 v=92
188635 On ch=1 n=d#6 v=0
188640 On ch=1 n=c6 v=92
188875 On ch=1 n=c6 v=0
188880 On ch=1 n=a#5 v=92
189000 On ch=1 n=g6 v=0
189115 On ch=1 n=a#5 v=0
189120 On ch=1 n=a5 v=127
189120 On ch=1 n=c6 v=127
189120 On ch=1 n=d#6 v=127
189120 On ch=1 n=g6 v=127
190480 On ch=1 n=g6 v=0
190480 On ch=1 n=d#6 v=0
190480 On ch=1 n=c6 v=0
190480 On ch=1 n=a5 v=0
190560 On ch=1 n=c7 v=92
190560 On ch=1 n=c7 v=92
190795 On ch=1 n=c7 v=0
190800 On ch=1 n=c6 v=92
190800 On ch=1 n=d#6 v=92
190960 On ch=1 n=c7 v=0
191035 On ch=1 n=d#6 v=0
191035 On ch=1 n=c6 v=0
191040 On ch=1 n=a6 v=92
191040 On ch=1 n=a6 v=92
191275 On ch=1 n=a6 v=0
191280 On ch=1 n=a5 v=92
191280 On ch=1 n=d#6 v=92
191440 On ch=1 n=a6 v=0
191515 On ch=1 n=d#6 v=0
191515 On ch=1 n=a5 v=0
191520 On ch=1 n=c6 v=92
191520 On ch=1 n=c6 v=92
191755 On ch=1 n=c6 v=0
191760 On ch=1 n=c5 v=92
191760 On ch=1 n=f#5 v=92
191920 On ch=1 n=c6 v=0
191995 On ch=1 n=f#5 v=0
191995 On ch=1 n=c5 v=0
192000 On ch=1 n=a#5 v=92
192000 On ch=1 n=a#5 v=127
192235 On ch=1 n=a#5 v=0
192240 On ch=1 n=g5 v=92
192475 On ch=1 n=g5 v=0
192480 On ch=1 n=d#5 v=92
192715 On ch=1 n=d#5 v=0
192720 On ch=1 n=d5 v=92
192840 On ch=1 n=a#5 v=0
192955 On ch=1 n=d5 v=0
192960 On ch=1 n=c#5 v=92
192960 On ch=1 n=e5 v=92
192960 On ch=1 n=g5 v=92
192960 On ch=1 n=a#5 v=92
194320 On ch=1 n=a#5 v=0
194320 On ch=1 n=g5 v=0
194400 On ch=1 n=a5 v=92
194400 On ch=1 n=a5 v=92
194635 On ch=1 n=a5 v=0
194640 On ch=1 n=c#5 v=92
194640 On ch=1 n=e5 v=92
194800 On ch=1 n=a5 v=0
194875 On ch=1 n=e5 v=0
194875 On ch=1 n=c#5 v=0
194880 On ch=1 n=g5 v=92
194880 On ch=1 n=g5 v=92
195115 On ch=1 n=g5 v=0
195120 On ch=1 n=a#4 v=92
195120 On ch=1 n=e5 v=92
195280 On ch=1 n=g5 v=0
195355 On ch=1 n=a#4 v=0
195355 On ch=1 n=e5 v=0
195360 On ch=1 n=f#5 v=92
195360 On ch=1 n=f#5 v=92
195595 On ch=1 n=f#5 v=0
195600 On ch=1 n=a4 v=92
195600 On ch=1 n=d5 v=92
195760 On ch=1 n=f#5 v=0
195835 On ch=1 n=d5 v=0
195835 On ch=1 n=a4 v=0
195840 On ch=1 n=d6 v=60
195840 On ch=1 n=d6 v=60
196075 On ch=1 n=d6 v=0
196080 On ch=1 n=b5 v=60
196315 On ch=1 n=b5 v=0
196320 On ch=1 n=g5 v=60
196555 On ch=1 n=g5 v=0
196560 On ch=1 n=f#5 v=60
196795 On ch=1 n=f#5 v=0
196800 On ch=1 n=f5 v=60
196800 On ch=1 n=f5 v=60
197035 On ch=1 n=f5 v=0
197040 On ch=1 n=g#5 v=60
197200 On ch=1 n=f5 v=0
197275 On ch=1 n=g#5 v=0
197280 On ch=1 n=c6 v=60
197400 On ch=1 n=d6 v=0
197515 On ch=1 n=c6 v=0
197520 On ch=1 n=c#6 v=60
197755 On ch=1 n=c#6 v=0
197760 On ch=1 n=d6 v=60
197760 On ch=1 n=d6 v=60
197995 On ch=1 n=d6 v=0
198000 On ch=1 n=b5 v=60
198235 On ch=1 n=b5 v=0
198240 On ch=1 n=g5 v=60
198475 On ch=1 n=g5 v=0
198480 On ch=1 n=f#5 v=60
198715 On ch=1 n=f#5 v=0
198720 On ch=1 n=f5 v=60
198720 On ch=1 n=f5 v=60
198955 On ch=1 n=f5 v=0
198960 On ch=1 n=g#5 v=60
199120 On ch=1 n=f5 v=0
199195 On ch=1 n=g#5 v=0
199200 On ch=1 n=c6 v=60
199320 On ch=1 n=d6 v=0
199435 On ch=1 n=c6 v=0
199440 On ch=1 n=c#6 v=60
199675 On ch=1 n=c#6 v=0
199680 On ch=1 n=c#6 v=60
199680 On ch=1 n=c#6 v=60
199915 On ch=1 n=c#6 v=0
199920 On ch=1 n=a#5 v=60
200155 On ch=1 n=a#5 v=0
200160 On ch=1 n=f#5 v=60
200395 On ch=1 n=f#5 v=0
200400 On ch=1 n=f5 v=60
200635 On ch=1 n=f5 v=0
200640 On ch=1 n=e5 v=60
200640 On ch=1 n=e5 v=60
200875 On ch=1 n=e5 v=0
200880 On ch=1 n=g5 v=60
201040 On ch=1 n=e5 v=0
201115 On ch=1 n=g5 v=0
201120 On ch=1 n=b5 v=60
201240 On ch=1 n=c#6 v=0
201355 On ch=1 n=b5 v=0
201360 On ch=1 n=c6 v=60
201595 On ch=1 n=c6 v=0
201600 On ch=1 n=c6 v=60
201600 On ch=1 n=c6 v=60
201835 On ch=1 n=c6 v=0
201840 On ch=1 n=a5 v=60
202075 On ch=1 n=a5 v=0
202080 On ch=1 n=f5 v=60
202315 On ch=1 n=f5 v=0
202320 On ch=1 n=e5 v=60
202440 On ch=1 n=c6 v=0
202555 On ch=1 n=e5 v=0
202560 On ch=1 n=c6 v=60
202560 On ch=1 n=c6 v=60
202795 On ch=1 n=c6 v=0
202800 On ch=1 n=a5 v=60
203035 On ch=1 n=a5 v=0
203040 On ch=1 n=f5 v=60
203275 On ch=1 n=f5 v=0
203280 On ch=1 n=d#5 v=60
203400 On ch=1 n=c6 v=0
203515 On ch=1 n=d#5 v=0
203520 On ch=1 n=c6 v=60
203520 On ch=1 n=c6 v=60
203755 On ch=1 n=c6 v=0
203760 On ch=1 n=a5 v=62
203920 On ch=1 n=c6 v=0
203995 On ch=1 n=a5 v=0
204000 On ch=1 n=f#5 v=64
204235 On ch=1 n=f#5 v=0
204240 On ch=1 n=d5 v=66
204475 On ch=1 n=d5 v=0
204480 On ch=1 n=d#5 v=68
204480 On ch=1 n=d#5 v=68
204715 On ch=1 n=d#5 v=0
204720 On ch=1 n=g5 v=70
204880 On ch=1 n=d#5 v=0
204955 On ch=1 n=g5 v=0
204960 On ch=1 n=a#5 v=72
205195 On ch=1 n=a#5 v=0
205200 On ch=1 n=c#6 v=74
205435 On ch=1 n=c#6 v=0
205440 On ch=1 n=d6 v=76
205440 On ch=1 n=d6 v=76
205675 On ch=1 n=d6 v=0
205680 On ch=1 n=a#5 v=78
205840 On ch=1 n=d6 v=0
205915 On ch=1 n=a#5 v=0
205920 On ch=1 n=g5 v=80
206155 On ch=1 n=g5 v=0
206160 On ch=1 n=d5 v=82
206395 On ch=1 n=d5 v=0
206400 On ch=1 n=c#5 v=84
206400 On ch=1 n=c#5 v=84
206635 On ch=1 n=c#5 v=0
206640 On ch=1 n=g5 v=86
206800 On ch=1 n=c#5 v=0
206875 On ch=1 n=g5 v=0
206880 On ch=1 n=a#5 v=88
207115 On ch=1 n=a#5 v=0
207120 On ch=1 n=d#6 v=90
207355 On ch=1 n=d#6 v=0
207360 On ch=1 n=e6 v=92
207360 On ch=1 n=e6 v=92
207595 On ch=1 n=e6 v=0
207600 On ch=1 n=a#5 v=92
207760 On ch=1 n=e6 v=0
207835 On ch=1 n=a#5 v=0
207840 On ch=1 n=g5 v=92
208075 On ch=1 n=g5 v=0
208080 On ch=1 n=c5 v=92
208315 On ch=1 n=c5 v=0
208320 On ch=1 n=d#5 v=92
208320 On ch=1 n=d#5 v=92
208555 On ch=1 n=d#5 v=0
208560 On ch=1 n=a5 v=93
208720 On ch=1 n=d#5 v=0
208795 On ch=1 n=a5 v=0
208800 On ch=1 n=c6 v=94
209035 On ch=1 n=c6 v=0
209040 On ch=1 n=f6 v=95
209275 On ch=1 n=f6 v=0
209280 On ch=1 n=f#6 v=96
209280 On ch=1 n=f#6 v=96
209515 On ch=1 n=f#6 v=0
209520 On ch=1 n=c6 v=97
209680 On ch=1 n=f#6 v=0
209755 On ch=1 n=c6 v=0
209760 On ch=1 n=a5 v=98
209995 On ch=1 n=a5 v=0
210000 On ch=1 n=d5 v=99
210235 On ch=1 n=d5 v=0
212160 On ch=1 n=d#6 v=108
212160 On ch=1 n=g6 v=108
212160 On ch=1 n=d#7 v=108
213000 On ch=1 n=d#7 v=0
213000 On ch=1 n=d#6 v=0
213120 On ch=1 n=c6 v=108
213120 On ch=1 n=c7 v=108
213960 On ch=1 n=c7 v=0
213960 On ch=1 n=c6 v=0
213960 On ch=1 n=g6 v=0
214080 On ch=1 n=a#5 v=108
214080 On ch=1 n=e6 v=108
214080 On ch=1 n=g6 v=108
214080 On ch=1 n=a#6 v=108
214920 On ch=1 n=a#6 v=0
214920 On ch=1 n=g6 v=0
214920 On ch=1 n=a#5 v=0
215040 On ch=1 n=a5 v=108
215040 On ch=1 n=g6 v=108
215040 On ch=1 n=a6 v=108
215880 On ch=1 n=a6 v=0
215880 On ch=1 n=g6 v=0
215880 On ch=1 n=a5 v=0
216480 On ch=1 n=d5 v=108
217360 On ch=1 n=d5 v=0
217440 On ch=1 n=e5 v=108
217440 On ch=1 n=g5 v=108
217440 On ch=1 n=c#6 v=108
217440 On ch=1 n=e6 v=108
218280 On ch=1 n=c#6 v=0
218280 On ch=1 n=g5 v=0
218280 On ch=1 n=e6 v=0
218280 On ch=1 n=e5 v=0
218400 On ch=1 n=f#6 v=108
218400 On ch=1 n=c7 v=108
218400 On ch=1 n=f#7 v=108
218800 On ch=1 n=f#7 v=0
218800 On ch=1 n=c7 v=0
218800 On ch=1 n=f#6 v=0
219840 On ch=1 n=g6 v=108
219840 On ch=1 n=a#6 v=108
219840 On ch=1 n=d7 v=108
219840 On ch=1 n=g7 v=108
222600 On ch=1 n=g7 v=0
222600 On ch=1 n=d7 v=0
222600 On ch=1 n=a#6 v=0
222600 On ch=1 n=g6 v=0
222600 On ch=1 n=e6 v=0
222600 On ch=1 n=e5 v=0
222600 On ch=1 n=e6 v=0
222600 On ch=1 n=c#5 v=0
222600 On ch=1 n=c#5 v=0
222600 On ch=1 n=e5 v=0
222600 On ch=1 n=e5 v=0
222600 On ch=1 n=e5 v=0
222600 On ch=1 n=e5 v=0
222600 On ch=1 n=c#5 v=0
222600 On ch=1 n=c#5 v=0
222600 On ch=1 n=c#5 v=0
222600 On ch=1 n=c#5 v=0
222600 Meta TrkEnd
TrkEnd
MTrk
0 SeqSpec 43 00 01 00
0 Meta TrkName "Staff-1"
0 Meta 0x21 00
0 Par ch=3 c=7 v=127
0 Par ch=3 c=10 v=64
0 On ch=3 n=g6 v=92
240 On ch=3 n=g6 v=0
240 On ch=3 n=d#6 v=92
480 On ch=3 n=d#6 v=0
480 On ch=3 n=c6 v=92
720 On ch=3 n=c6 v=0
720 On ch=3 n=a#5 v=92
960 On ch=3 n=a#5 v=0
2400 On ch=3 n=f#6 v=92
2640 On ch=3 n=f#6 v=0
2640 On ch=3 n=a5 v=92
2640 On ch=3 n=c6 v=92
2640 On ch=3 n=d#6 v=92
2880 On ch=3 n=d#6 v=0
2880 On ch=3 n=c6 v=0
2880 On ch=3 n=a5 v=0
2880 On ch=3 n=g6 v=92
3120 On ch=3 n=g6 v=0
3120 On ch=3 n=g5 v=92
3120 On ch=3 n=a#5 v=92
3120 On ch=3 n=d6 v=92
3360 On ch=3 n=d6 v=0
3360 On ch=3 n=a#5 v=0
3360 On ch=3 n=g5 v=0
3360 On ch=3 n=a6 v=92
3600 On ch=3 n=a6 v=0
3600 On ch=3 n=a5 v=92
3600 On ch=3 n=c6 v=92
3840 On ch=3 n=c6 v=0
3840 On ch=3 n=a5 v=0
3840 On ch=3 n=a#5 v=92
4080 On ch=3 n=a#5 v=0
4080 On ch=3 n=g5 v=92
4320 On ch=3 n=g5 v=0
4320 On ch=3 n=d#5 v=92
4560 On ch=3 n=d#5 v=0
4560 On ch=3 n=d5 v=92
4800 On ch=3 n=d5 v=0
7680 On ch=3 n=g6 v=92
7915 On ch=3 n=g6 v=0
7920 On ch=3 n=d#6 v=92
8155 On ch=3 n=d#6 v=0
8160 On ch=3 n=c6 v=92
8395 On ch=3 n=c6 v=0
8400 On ch=3 n=a#5 v=92
8635 On ch=3 n=a#5 v=0
11520 On ch=3 n=a#5 v=92
11755 On ch=3 n=a#5 v=0
11760 On ch=3 n=g5 v=92
11995 On ch=3 n=g5 v=0
12000 On ch=3 n=d#5 v=92
12235 On ch=3 n=d#5 v=0
12240 On ch=3 n=d5 v=92
12475 On ch=3 n=d5 v=0
15360 On ch=3 n=d#6 v=92
17040 On ch=3 n=d#6 v=0
17280 On ch=3 n=d#6 v=92
18960 On ch=3 n=d#6 v=0
19200 On ch=3 n=f6 v=92
20880 On ch=3 n=f6 v=0
20880 Meta TrkEnd
TrkEnd
MTrk
0 SeqSpec 43 00 01 00
0 Meta TrkName "Left Hand"
0 Meta 0x21 00
0 PrCh ch=2 p=0
0 Par ch=2 c=7 v=127
0 Par ch=2 c=10 v=50
1200 Par ch=2 c=64 v=127
1200 On ch=2 n=d3 v=92
1440 On ch=2 n=d3 v=0
1440 On ch=2 n=a3 v=92
1680 On ch=2 n=a3 v=0
1680 On ch=2 n=c4 v=92
1920 On ch=2 n=c4 v=0
1920 On ch=2 n=d4 v=92
2160 On ch=2 n=d4 v=0
2160 On ch=2 n=a4 v=92
2400 On ch=2 n=a4 v=0
2400 On ch=2 n=c5 v=92
2640 On ch=2 n=c5 v=0
2640 On ch=2 n=d4 v=92
2880 On ch=2 n=d4 v=0
2880 On ch=2 n=a#4 v=92
3120 On ch=2 n=a#4 v=0
3120 On ch=2 n=d4 v=92
3360 On ch=2 n=d4 v=0
3360 On ch=2 n=f#4 v=92
3600 On ch=2 n=f#4 v=0
3600 On ch=2 n=d4 v=92
3840 On ch=2 n=d4 v=0
3840 Par ch=2 c=64 v=0
5040 Par ch=2 c=64 v=127
5040 On ch=2 n=g2 v=92
5275 On ch=2 n=g2 v=0
5280 On ch=2 n=g3 v=92
5515 On ch=2 n=g3 v=0
5520 On ch=2 n=a#3 v=92
5755 On ch=2 n=a#3 v=0
5760 On ch=2 n=e4 v=92
5995 On ch=2 n=e4 v=0
6000 On ch=2 n=g4 v=92
6235 On ch=2 n=g4 v=0
6240 On ch=2 n=a#4 v=92
6475 On ch=2 n=a#4 v=0
6480 On ch=2 n=d4 v=92
6715 On ch=2 n=d4 v=0
6720 On ch=2 n=g4 v=92
6955 On ch=2 n=g4 v=0
6960 On ch=2 n=d4 v=92
7195 On ch=2 n=d4 v=0
7200 On ch=2 n=f#4 v=92
7435 On ch=2 n=f#4 v=0
7440 On ch=2 n=d4 v=92
7675 On ch=2 n=d4 v=0
7680 Par ch=2 c=64 v=0
8880 Par ch=2 c=64 v=127
8880 On ch=2 n=c5 v=108
9115 On ch=2 n=c5 v=0
9120 On ch=2 n=a4 v=103
9355 On ch=2 n=a4 v=0
9360 On ch=2 n=d#4 v=98
9595 On ch=2 n=d#4 v=0
9600 On ch=2 n=c4 v=92
9835 On ch=2 n=c4 v=0
9840 On ch=2 n=d3 v=92
10075 On ch=2 n=d3 v=0
10080 On ch=2 n=f#4 v=92
10080 On ch=2 n=f#4 v=92
10315 On ch=2 n=f#4 v=0
10320 On ch=2 n=d4 v=92
10480 On ch=2 n=f#4 v=0
10555 On ch=2 n=d4 v=0
10560 On ch=2 n=g4 v=92
10560 On ch=2 n=g4 v=92
10795 On ch=2 n=g4 v=0
10800 On ch=2 n=d4 v=92
10960 On ch=2 n=g4 v=0
11035 On ch=2 n=d4 v=0
11040 On ch=2 n=a4 v=92
11040 On ch=2 n=a4 v=92
11275 On ch=2 n=a4 v=0
11280 On ch=2 n=d4 v=92
11440 On ch=2 n=a4 v=0
11515 On ch=2 n=d4 v=0
11520 Par ch=2 c=64 v=0
12720 Par ch=2 c=64 v=127
12720 On ch=2 n=g4 v=108
12955 On ch=2 n=g4 v=0
12960 On ch=2 n=e4 v=103
13195 On ch=2 n=e4 v=0
13200 On ch=2 n=a#3 v=98
13435 On ch=2 n=a#3 v=0
13440 On ch=2 n=g3 v=92
13675 On ch=2 n=g3 v=0
13680 On ch=2 n=g2 v=92
13915 On ch=2 n=g2 v=0
13920 On ch=2 n=a#3 v=92
13920 On ch=2 n=a#3 v=92
14155 On ch=2 n=a#3 v=0
14160 On ch=2 n=d3 v=92
14320 On ch=2 n=a#3 v=0
14395 On ch=2 n=d3 v=0
14400 On ch=2 n=c#4 v=92
14400 On ch=2 n=c#4 v=92
14635 On ch=2 n=c#4 v=0
14640 On ch=2 n=d3 v=92
14800 On ch=2 n=c#4 v=0
14875 On ch=2 n=d3 v=0
14880 On ch=2 n=d4 v=92
14880 On ch=2 n=d4 v=92
15115 On ch=2 n=d4 v=0
15120 On ch=2 n=d3 v=92
15280 On ch=2 n=d4 v=0
15355 On ch=2 n=d3 v=0
15360 Par ch=2 c=64 v=0
15360 On ch=2 n=d#5 v=92
15360 On ch=2 n=d#5 v=92
15600 On ch=2 n=d#5 v=0
15600 On ch=2 n=c5 v=92
15840 On ch=2 n=c5 v=0
15840 On ch=2 n=g#4 v=92
16080 On ch=2 n=g#4 v=0
16080 On ch=2 n=g4 v=92
16320 On ch=2 n=g4 v=0
16320 On ch=2 n=f#4 v=92
16560 On ch=2 n=f#4 v=0
16560 On ch=2 n=a4 v=92
16800 On ch=2 n=a4 v=0
16800 On ch=2 n=c#5 v=92
17040 On ch=2 n=c#5 v=0
17040 On ch=2 n=d#5 v=0
17040 On ch=2 n=d5 v=92
17280 On ch=2 n=d5 v=0
17280 On ch=2 n=d#5 v=92
17280 On ch=2 n=d#5 v=92
17520 On ch=2 n=d#5 v=0
17520 On ch=2 n=c5 v=92
17760 On ch=2 n=c5 v=0
17760 On ch=2 n=g#4 v=92
18000 On ch=2 n=g#4 v=0
18000 On ch=2 n=g4 v=92
18240 On ch=2 n=g4 v=0
18240 On ch=2 n=f#4 v=92
18240 On ch=2 n=f#4 v=92
18480 On ch=2 n=f#4 v=0
18480 On ch=2 n=a4 v=92
18720 On ch=2 n=a4 v=0
18720 On ch=2 n=f#4 v=0
18720 On ch=2 n=c#5 v=92
18960 On ch=2 n=c#5 v=0
18960 On ch=2 n=d#5 v=0
18960 On ch=2 n=d5 v=92
19200 On ch=2 n=d5 v=0
19200 On ch=2 n=f5 v=92
19200 On ch=2 n=f5 v=92
19440 On ch=2 n=f5 v=0
19440 On ch=2 n=d5 v=92
19680 On ch=2 n=d5 v=0
19680 On ch=2 n=a#4 v=92
19920 On ch=2 n=a#4 v=0
19920 On ch=2 n=a4 v=92
20160 On ch=2 n=a4 v=0
20160 On ch=2 n=g#4 v=60
20160 On ch=2 n=g#4 v=60
20400 On ch=2 n=g#4 v=0
20400 On ch=2 n=b4 v=62
20640 On ch=2 n=b4 v=0
20640 On ch=2 n=g#4 v=0
20640 On ch=2 n=d#5 v=64
20880 On ch=2 n=d#5 v=0
20880 On ch=2 n=f5 v=0
20880 On ch=2 n=e5 v=66
21120 On ch=2 n=e5 v=0
21120 On ch=2 n=g5 v=68
21120 On ch=2 n=g5 v=68
21360 On ch=2 n=g5 v=0
21360 On ch=2 n=e5 v=71
21600 On ch=2 n=e5 v=0
21600 On ch=2 n=c5 v=74
21840 On ch=2 n=c5 v=0
21840 On ch=2 n=b4 v=77
22080 On ch=2 n=b4 v=0
22080 On ch=2 n=g5 v=0
22080 On ch=2 n=g5 v=80
22080 On ch=2 n=g5 v=80
22320 On ch=2 n=g5 v=0
22320 On ch=2 n=e5 v=83
22560 On ch=2 n=e5 v=0
22560 On ch=2 n=c5 v=86
22800 On ch=2 n=c5 v=0
22800 On ch=2 n=a#4 v=89
23040 On ch=2 n=a#4 v=0
23040 On ch=2 n=g5 v=0
23040 Par ch=2 c=64 v=127
23040 On ch=2 n=g5 v=92
23275 On ch=2 n=g5 v=0
23280 On ch=2 n=d#5 v=92
23515 On ch=2 n=d#5 v=0
23520 On ch=2 n=c5 v=92
23755 On ch=2 n=c5 v=0
23760 On ch=2 n=a#4 v=92
23995 On ch=2 n=a#4 v=0
24000 On ch=2 n=a4 v=92
24235 On ch=2 n=a4 v=0
24240 On ch=2 n=d3 v=92
24475 On ch=2 n=d3 v=0
24480 On ch=2 n=a3 v=92
24715 On ch=2 n=a3 v=0
24720 On ch=2 n=c4 v=92
24955 On ch=2 n=c4 v=0
24960 Par ch=2 c=64 v=0
24960 Par ch=2 c=64 v=127
24960 On ch=2 n=d4 v=92
25195 On ch=2 n=d4 v=0
25200 On ch=2 n=a4 v=92
25435 On ch=2 n=a4 v=0
25440 On ch=2 n=c5 v=92
25675 On ch=2 n=c5 v=0
25680 On ch=2 n=d4 v=92
25915 On ch=2 n=d4 v=0
25920 On ch=2 n=a#4 v=92
26155 On ch=2 n=a#4 v=0
26160 On ch=2 n=d4 v=92
26395 On ch=2 n=d4 v=0
26400 On ch=2 n=f#4 v=92
26635 On ch=2 n=f#4 v=0
26640 On ch=2 n=d4 v=92
26875 On ch=2 n=d4 v=0
26880 Par ch=2 c=64 v=0
28080 Par ch=2 c=64 v=127
28080 On ch=2 n=g2 v=92
28315 On ch=2 n=g2 v=0
28320 On ch=2 n=g3 v=92
28555 On ch=2 n=g3 v=0
28560 On ch=2 n=a#3 v=92
28795 On ch=2 n=a#3 v=0
28800 On ch=2 n=e4 v=92
29035 On ch=2 n=e4 v=0
29040 On ch=2 n=g4 v=92
29275 On ch=2 n=g4 v=0
29280 On ch=2 n=a#4 v=92
29515 On ch=2 n=a#4 v=0
29520 On ch=2 n=d4 v=92
29755 On ch=2 n=d4 v=0
29760 On ch=2 n=g4 v=92
29995 On ch=2 n=g4 v=0
30000 On ch=2 n=d4 v=92
30235 On ch=2 n=d4 v=0
30240 On ch=2 n=f#4 v=92
30475 On ch=2 n=f#4 v=0
30480 On ch=2 n=d4 v=92
30715 On ch=2 n=d4 v=0
30720 Par ch=2 c=64 v=0
31920 Par ch=2 c=64 v=127
31920 On ch=2 n=c5 v=108
32155 On ch=2 n=c5 v=0
32160 On ch=2 n=a4 v=103
32395 On ch=2 n=a4 v=0
32400 On ch=2 n=d#4 v=98
32635 On ch=2 n=d#4 v=0
32640 On ch=2 n=c4 v=92
32875 On ch=2 n=c4 v=0
32880 On ch=2 n=d3 v=92
33115 On ch=2 n=d3 v=0
33120 On ch=2 n=f#4 v=92
33120 On ch=2 n=f#4 v=92
33355 On ch=2 n=f#4 v=0
33360 On ch=2 n=d4 v=92
33520 On ch=2 n=f#4 v=0
33595 On ch=2 n=d4 v=0
33600 On ch=2 n=g4 v=92
33600 On ch=2 n=g4 v=92
33835 On ch=2 n=g4 v=0
33840 On ch=2 n=d4 v=92
34000 On ch=2 n=g4 v=0
34075 On ch=2 n=d4 v=0
34080 On ch=2 n=a4 v=92
34080 On ch=2 n=a4 v=92
34315 On ch=2 n=a4 v=0
34320 On ch=2 n=d4 v=92
34480 On ch=2 n=a4 v=0
34555 On ch=2 n=d4 v=0
34560 Par ch=2 c=64 v=0
35760 Par ch=2 c=64 v=127
35760 On ch=2 n=g4 v=108
35995 On ch=2 n=g4 v=0
36000 On ch=2 n=e4 v=103
36235 On ch=2 n=e4 v=0
36240 On ch=2 n=a#3 v=98
36475 On ch=2 n=a#3 v=0
36480 On ch=2 n=g3 v=92
36715 On ch=2 n=g3 v=0
36720 On ch=2 n=g2 v=92
36955 On ch=2 n=g2 v=0
36960 On ch=2 n=a#3 v=92
36960 On ch=2 n=a#3 v=92
37195 On ch=2 n=a#3 v=0
37200 On ch=2 n=d3 v=92
37360 On ch=2 n=a#3 v=0
37435 On ch=2 n=d3 v=0
37440 On ch=2 n=c#4 v=92
37440 On ch=2 n=c#4 v=92
37675 On ch=2 n=c#4 v=0
37680 On ch=2 n=d3 v=92
37840 On ch=2 n=c#4 v=0
37915 On ch=2 n=d3 v=0
37920 On ch=2 n=d4 v=92
37920 On ch=2 n=d4 v=92
38155 On ch=2 n=d4 v=0
38160 On ch=2 n=d3 v=92
38320 On ch=2 n=d4 v=0
38395 On ch=2 n=d3 v=0
38400 Par ch=2 c=64 v=0
38400 Par ch=2 c=64 v=0
38400 Par ch=2 c=64 v=127
38400 On ch=2 n=d5 v=75
38400 On ch=2 n=d5 v=75
38640 On ch=2 n=d5 v=0
38640 On ch=2 n=b4 v=75
38880 On ch=2 n=b4 v=0
38880 On ch=2 n=g4 v=75
39120 On ch=2 n=g4 v=0
39120 On ch=2 n=f#4 v=75
39360 On ch=2 n=f#4 v=0
39360 On ch=2 n=f4 v=75
39360 On ch=2 n=f4 v=75
39600 On ch=2 n=f4 v=0
39600 On ch=2 n=g#4 v=75
39840 On ch=2 n=g#4 v=0
39840 On ch=2 n=f4 v=0
39840 On ch=2 n=c5 v=75
40080 On ch=2 n=c5 v=0
40080 On ch=2 n=d5 v=0
40080 On ch=2 n=c#5 v=75
40320 On ch=2 n=c#5 v=0
40320 Par ch=2 c=64 v=0
40320 Par ch=2 c=64 v=127
40320 On ch=2 n=d5 v=75
40320 On ch=2 n=d5 v=75
40560 On ch=2 n=d5 v=0
40560 On ch=2 n=b4 v=75
40800 On ch=2 n=b4 v=0
40800 On ch=2 n=g4 v=75
41040 On ch=2 n=g4 v=0
41040 On ch=2 n=f#4 v=75
41280 On ch=2 n=f#4 v=0
41280 On ch=2 n=f4 v=75
41280 On ch=2 n=f4 v=75
41520 On ch=2 n=f4 v=0
41520 On ch=2 n=g#4 v=75
41760 On ch=2 n=g#4 v=0
41760 On ch=2 n=f4 v=0
41760 On ch=2 n=c5 v=75
42000 On ch=2 n=c5 v=0
42000 On ch=2 n=d5 v=0
42000 On ch=2 n=c#5 v=75
42240 On ch=2 n=c#5 v=0
42240 Par ch=2 c=64 v=0
42240 Par ch=2 c=64 v=127
42240 On ch=2 n=c#5 v=75
42240 On ch=2 n=c#5 v=75
42480 On ch=2 n=c#5 v=0
42480 On ch=2 n=a#4 v=75
42720 On ch=2 n=a#4 v=0
42720 On ch=2 n=f#4 v=75
42960 On ch=2 n=f#4 v=0
42960 On ch=2 n=f4 v=75
43200 On ch=2 n=f4 v=0
43200 On ch=2 n=e4 v=75
43200 On ch=2 n=e4 v=75
43440 On ch=2 n=e4 v=0
43440 On ch=2 n=g4 v=75
43680 On ch=2 n=g4 v=0
43680 On ch=2 n=e4 v=0
43680 On ch=2 n=b4 v=75
43920 On ch=2 n=b4 v=0
43920 On ch=2 n=c#5 v=0
43920 On ch=2 n=c5 v=75
44160 On ch=2 n=c5 v=0
44160 Par ch=2 c=64 v=0
44160 Par ch=2 c=64 v=127
44160 On ch=2 n=c5 v=75
44160 On ch=2 n=c5 v=75
44400 On ch=2 n=c5 v=0
44400 On ch=2 n=a4 v=75
44640 On ch=2 n=a4 v=0
44640 On ch=2 n=f4 v=75
44880 On ch=2 n=f4 v=0
44880 On ch=2 n=e4 v=75
45120 On ch=2 n=e4 v=0
45120 On ch=2 n=c5 v=0
45120 On ch=2 n=c5 v=76
45120 On ch=2 n=c5 v=76
45360 On ch=2 n=c5 v=0
45360 On ch=2 n=a4 v=77
45600 On ch=2 n=a4 v=0
45600 On ch=2 n=f4 v=78
45840 On ch=2 n=f4 v=0
45840 On ch=2 n=d#4 v=79
46080 On ch=2 n=d#4 v=0
46080 On ch=2 n=c5 v=0
46080 Par ch=2 c=64 v=0
46080 Par ch=2 c=64 v=127
46080 On ch=2 n=c5 v=80
46080 On ch=2 n=c5 v=80
46320 On ch=2 n=c5 v=0
46320 On ch=2 n=a4 v=81
46560 On ch=2 n=a4 v=0
46560 On ch=2 n=f#4 v=82
46800 On ch=2 n=f#4 v=0
46800 On ch=2 n=d4 v=83
47040 On ch=2 n=d4 v=0
47040 On ch=2 n=c5 v=0
47040 On ch=2 n=c#5 v=84
47040 On ch=2 n=c#5 v=84
47280 On ch=2 n=c#5 v=0
47280 On ch=2 n=a#4 v=85
47520 On ch=2 n=a#4 v=0
47520 On ch=2 n=g4 v=86
47760 On ch=2 n=g4 v=0
47760 On ch=2 n=d#4 v=87
48000 On ch=2 n=d#4 v=0
48000 On ch=2 n=c#5 v=0
48000 Par ch=2 c=64 v=0
48000 Par ch=2 c=64 v=127
48000 On ch=2 n=d5 v=88
48000 On ch=2 n=d5 v=88
48240 On ch=2 n=d5 v=0
48240 On ch=2 n=a#4 v=89
48480 On ch=2 n=a#4 v=0
48480 On ch=2 n=g4 v=90
48720 On ch=2 n=g4 v=0
48720 On ch=2 n=d4 v=91
48960 On ch=2 n=d4 v=0
48960 On ch=2 n=d5 v=0
48960 On ch=2 n=d#5 v=92
48960 On ch=2 n=d#5 v=92
49200 On ch=2 n=d#5 v=0
49200 On ch=2 n=a#4 v=93
49440 On ch=2 n=a#4 v=0
49440 On ch=2 n=g4 v=94
49680 On ch=2 n=g4 v=0
49680 On ch=2 n=c#4 v=95
49920 On ch=2 n=c#4 v=0
49920 On ch=2 n=d#5 v=0
49920 Par ch=2 c=64 v=0
49920 Par ch=2 c=64 v=127
49920 On ch=2 n=e5 v=96
49920 On ch=2 n=e5 v=96
50160 On ch=2 n=e5 v=0
50160 On ch=2 n=a#4 v=97
50400 On ch=2 n=a#4 v=0
50400 On ch=2 n=g4 v=98
50640 On ch=2 n=g4 v=0
50640 On ch=2 n=c4 v=99
50880 On ch=2 n=c4 v=0
50880 On ch=2 n=e5 v=0
50880 On ch=2 n=f5 v=100
50880 On ch=2 n=f5 v=100
51120 On ch=2 n=f5 v=0
51120 On ch=2 n=c5 v=101
51360 On ch=2 n=c5 v=0
51360 On ch=2 n=a4 v=102
51600 On ch=2 n=a4 v=0
51600 On ch=2 n=d#4 v=103
51840 On ch=2 n=d#4 v=0
51840 On ch=2 n=f5 v=0
51840 Par ch=2 c=64 v=0
51840 Par ch=2 c=64 v=127
51840 On ch=2 n=f#5 v=104
51840 On ch=2 n=f#5 v=104
52080 On ch=2 n=f#5 v=0
52080 On ch=2 n=c5 v=105
52320 On ch=2 n=c5 v=0
52320 On ch=2 n=a4 v=106
52560 On ch=2 n=a4 v=0
52560 On ch=2 n=d4 v=107
52800 On ch=2 n=d4 v=0
52800 On ch=2 n=f#5 v=0
52800 Par ch=2 c=64 v=0
55040 On ch=2 n=c3 v=108
55355 On ch=2 n=c3 v=0
55360 On ch=2 n=d#4 v=108
55675 On ch=2 n=d#4 v=0
55680 On ch=2 n=g4 v=108
55995 On ch=2 n=g4 v=0
56000 On ch=2 n=d#5 v=108
56315 On ch=2 n=d#5 v=0
56960 On ch=2 n=c#3 v=108
57275 On ch=2 n=c#3 v=0
57280 On ch=2 n=e4 v=108
57595 On ch=2 n=e4 v=0
57600 On ch=2 n=g4 v=108
57915 On ch=2 n=g4 v=0
57920 On ch=2 n=e5 v=108
58235 On ch=2 n=e5 v=0
58560 On ch=2 n=d3 v=108
58560 On ch=2 n=d4 v=108
59400 On ch=2 n=d4 v=0
59400 On ch=2 n=d3 v=0
59520 On ch=2 n=a#2 v=108
59520 On ch=2 n=a#3 v=108
60360 On ch=2 n=a#3 v=0
60360 On ch=2 n=a#2 v=0
60480 On ch=2 n=a2 v=108
60480 On ch=2 n=a3 v=108
61320 On ch=2 n=a3 v=0
61320 On ch=2 n=a2 v=0
61440 On ch=2 n=g2 v=108
61440 On ch=2 n=g2 v=108
62280 On ch=2 n=g2 v=0
62400 On ch=2 n=d4 v=108
62400 On ch=2 n=g4 v=108
62400 On ch=2 n=a#4 v=108
62400 On ch=2 n=d5 v=108
63240 On ch=2 n=g2 v=0
63360 On ch=2 n=g3 v=108
65160 On ch=2 n=g3 v=0
65160 On ch=2 n=d5 v=0
65160 On ch=2 n=a#4 v=0
65160 On ch=2 n=g4 v=0
65160 On ch=2 n=d4 v=0
65280 On ch=2 n=d#3 v=63
65280 On ch=2 n=a#3 v=63
65280 On ch=2 n=d#4 v=63
66240 On ch=2 n=d#4 v=0
66240 On ch=2 n=a#3 v=0
66240 On ch=2 n=d#3 v=0
66240 On ch=2 n=d3 v=63
66240 On ch=2 n=a#3 v=63
66240 On ch=2 n=d4 v=63
66560 On ch=2 n=d4 v=0
66560 On ch=2 n=d3 v=0
66560 On ch=2 n=d#3 v=45
66560 On ch=2 n=d#4 v=45
66880 On ch=2 n=d#4 v=0
66880 On ch=2 n=d#3 v=0
66880 On ch=2 n=a#3 v=0
66880 On ch=2 n=f3 v=45
66880 On ch=2 n=f4 v=45
67200 On ch=2 n=f4 v=0
67200 On ch=2 n=f3 v=0
67200 On ch=2 n=d#3 v=63
67200 On ch=2 n=a#3 v=63
67200 On ch=2 n=d#4 v=63
68160 On ch=2 n=d#4 v=0
68160 On ch=2 n=a#3 v=0
68160 On ch=2 n=d#3 v=0
68160 On ch=2 n=a#2 v=63
68160 On ch=2 n=a#3 v=63
69120 On ch=2 n=a#3 v=0
69120 On ch=2 n=a#2 v=0
69120 On ch=2 n=a#3 v=77
69120 On ch=2 n=d#4 v=77
69120 On ch=2 n=g4 v=77
70080 On ch=2 n=g4 v=0
70080 On ch=2 n=d#4 v=0
70080 On ch=2 n=a#3 v=0
70080 On ch=2 n=g#3 v=65
70080 On ch=2 n=d#4 v=65
70080 On ch=2 n=f4 v=65
70400 On ch=2 n=g#3 v=0
70400 On ch=2 n=a#3 v=68
70720 On ch=2 n=a#3 v=0
70720 On ch=2 n=c4 v=71
71040 On ch=2 n=c4 v=0
71040 On ch=2 n=f4 v=0
71040 On ch=2 n=d#4 v=0
71040 On ch=2 n=f3 v=75
71040 On ch=2 n=c4 v=75
71040 On ch=2 n=f4 v=75
71360 On ch=2 n=c4 v=0
71360 On ch=2 n=a#3 v=75
71680 On ch=2 n=a#3 v=0
71680 On ch=2 n=f4 v=0
71680 On ch=2 n=f3 v=0
71680 On ch=2 n=a3 v=76
72000 On ch=2 n=a3 v=0
72000 On ch=2 n=a#3 v=77
72000 On ch=2 n=f4 v=77
72000 On ch=2 n=g#4 v=77
72480 On ch=2 n=g#4 v=0
72480 On ch=2 n=f4 v=0
72480 On ch=2 n=a#3 v=0
72480 On ch=2 n=a#2 v=78
72960 On ch=2 n=a#2 v=0
72960 On ch=2 n=d#3 v=79
73020 On ch=2 n=a#3 v=79
73080 On ch=2 n=g4 v=79
73232 On ch=2 n=g4 v=0
73232 On ch=2 n=a#3 v=0
73232 On ch=2 n=d#3 v=0
73280 On ch=2 n=d#3 v=80
73385 On ch=2 n=d#3 v=0
73600 On ch=2 n=d#2 v=81
73705 On ch=2 n=d#2 v=0
73920 On ch=2 n=c4 v=82
73920 On ch=2 n=d#4 v=82
73920 On ch=2 n=g4 v=82
73920 On ch=2 n=a4 v=82
74240 On ch=2 n=a4 v=0
74240 On ch=2 n=a#4 v=83
74560 On ch=2 n=a#4 v=0
74560 On ch=2 n=c5 v=84
74880 On ch=2 n=c5 v=0
74880 On ch=2 n=g4 v=0
74880 On ch=2 n=d#4 v=0
74880 On ch=2 n=c4 v=0
74880 On ch=2 n=g3 v=85
74940 On ch=2 n=d#4 v=85
75000 On ch=2 n=a#4 v=85
75200 On ch=2 n=a#4 v=0
75200 On ch=2 n=d#4 v=0
75200 On ch=2 n=g3 v=0
75200 On ch=2 n=d#3 v=86
75520 On ch=2 n=d#3 v=0
75520 On ch=2 n=d#2 v=87
75840 On ch=2 n=d#2 v=0
75840 On ch=2 n=c4 v=88
75840 On ch=2 n=d#4 v=88
75840 On ch=2 n=c5 v=88
76160 On ch=2 n=c5 v=0
76160 On ch=2 n=c4 v=0
76160 On ch=2 n=a#3 v=89
76160 On ch=2 n=a#4 v=89
76480 On ch=2 n=a#4 v=0
76480 On ch=2 n=a#3 v=0
76480 On ch=2 n=d#4 v=0
76480 On ch=2 n=a3 v=90
76480 On ch=2 n=a4 v=90
76800 On ch=2 n=a4 v=0
76800 On ch=2 n=a3 v=0
76800 On ch=2 n=d4 v=92
76860 On ch=2 n=a4 v=92
76920 On ch=2 n=d5 v=92
77080 On ch=2 n=d5 v=0
77080 On ch=2 n=a4 v=0
77080 On ch=2 n=d4 v=0
77280 On ch=2 n=d3 v=96
77280 On ch=2 n=d4 v=96
77400 On ch=2 n=d4 v=0
77400 On ch=2 n=d3 v=0
77760 On ch=2 n=g4 v=100
77820 On ch=2 n=d5 v=100
77880 On ch=2 n=g5 v=100
78040 On ch=2 n=g5 v=0
78040 On ch=2 n=d5 v=0
78040 On ch=2 n=g4 v=0
78240 On ch=2 n=g2 v=104
78360 On ch=2 n=g2 v=0
78720 On ch=2 n=c4 v=108
78780 On ch=2 n=g4 v=108
78840 On ch=2 n=c5 v=108
79000 On ch=2 n=c5 v=0
79000 On ch=2 n=g4 v=0
79000 On ch=2 n=c4 v=0
79200 On ch=2 n=d#4 v=104
79200 On ch=2 n=d#5 v=104
79320 On ch=2 n=d#5 v=0
79320 On ch=2 n=d#4 v=0
79680 On ch=2 n=f4 v=100
79740 On ch=2 n=a4 v=100
79800 On ch=2 n=c5 v=100
79860 On ch=2 n=d#5 v=100
79920 On ch=2 n=f5 v=100
80100 On ch=2 n=f5 v=0
80100 On ch=2 n=d#5 v=0
80100 On ch=2 n=c5 v=0
80100 On ch=2 n=a4 v=0
80100 On ch=2 n=f4 v=0
80160 On ch=2 n=f2 v=96
80160 On ch=2 n=f3 v=96
80280 On ch=2 n=f3 v=0
80280 On ch=2 n=f2 v=0
80640 On ch=2 n=a3 v=108
80640 On ch=2 n=d4 v=108
80640 On ch=2 n=f4 v=108
80640 On ch=2 n=a4 v=108
80960 On ch=2 n=a4 v=0
80960 On ch=2 n=a3 v=0
80960 On ch=2 n=a#3 v=103
80960 On ch=2 n=a#4 v=103
81280 On ch=2 n=a#4 v=0
81280 On ch=2 n=a#3 v=0
81280 On ch=2 n=f4 v=0
81280 On ch=2 n=d4 v=0
81280 On ch=2 n=c4 v=98
81280 On ch=2 n=c5 v=98
81600 On ch=2 n=c5 v=0
81600 On ch=2 n=c4 v=0
81600 On ch=2 n=a#3 v=92
81660 On ch=2 n=d#4 v=92
81720 On ch=2 n=g4 v=92
81780 On ch=2 n=a#4 v=92
81920 On ch=2 n=a#4 v=0
81920 On ch=2 n=g4 v=0
81920 On ch=2 n=d#4 v=0
81920 On ch=2 n=a#3 v=0
82080 On ch=2 n=d#2 v=92
82080 On ch=2 n=d#3 v=92
82200 On ch=2 n=d#3 v=0
82200 On ch=2 n=d#2 v=0
82560 On ch=2 n=a3 v=108
82560 On ch=2 n=d4 v=108
82560 On ch=2 n=f4 v=108
82560 On ch=2 n=a4 v=108
82880 On ch=2 n=a4 v=0
82880 On ch=2 n=a3 v=0
82880 On ch=2 n=a#3 v=103
82880 On ch=2 n=a#4 v=103
83200 On ch=2 n=a#4 v=0
83200 On ch=2 n=a#3 v=0
83200 On ch=2 n=f4 v=0
83200 On ch=2 n=d4 v=0
83200 On ch=2 n=c4 v=98
83200 On ch=2 n=c5 v=98
83520 On ch=2 n=c5 v=0
83520 On ch=2 n=c4 v=0
83520 On ch=2 n=a#3 v=92
83580 On ch=2 n=d#4 v=92
83640 On ch=2 n=g4 v=92
83700 On ch=2 n=a#4 v=92
83840 On ch=2 n=a#4 v=0
83840 On ch=2 n=g4 v=0
83840 On ch=2 n=d#4 v=0
83840 On ch=2 n=a#3 v=0
84000 On ch=2 n=d#2 v=92
84000 On ch=2 n=d#3 v=92
84120 On ch=2 n=d#3 v=0
84120 On ch=2 n=d#2 v=0
84480 On ch=2 n=a3 v=92
84480 On ch=2 n=d4 v=92
84480 On ch=2 n=f4 v=92
84480 On ch=2 n=a4 v=92
84800 On ch=2 n=a4 v=0
84800 On ch=2 n=a3 v=0
84800 On ch=2 n=a#3 v=92
84800 On ch=2 n=a#4 v=92
85120 On ch=2 n=a#4 v=0
85120 On ch=2 n=a#3 v=0
85120 On ch=2 n=f4 v=0
85120 On ch=2 n=d4 v=0
85120 On ch=2 n=c4 v=92
85120 On ch=2 n=c5 v=92
85440 On ch=2 n=c5 v=0
85440 On ch=2 n=c4 v=0
85440 On ch=2 n=a#3 v=127
85440 On ch=2 n=d4 v=127
85440 On ch=2 n=a#4 v=127
86400 On ch=2 n=a#4 v=0
86400 On ch=2 n=d4 v=0
86400 On ch=2 n=a#3 v=0
86400 On ch=2 n=a#3 v=107
86400 On ch=2 n=d#4 v=107
86400 On ch=2 n=a4 v=107
87360 On ch=2 n=a4 v=0
87360 On ch=2 n=d#4 v=0
87360 On ch=2 n=a#3 v=0
87360 On ch=2 n=a#3 v=85
87360 On ch=2 n=f4 v=85
87360 On ch=2 n=g#4 v=85
88320 On ch=2 n=g#4 v=0
88320 On ch=2 n=f4 v=0
88320 On ch=2 n=a#3 v=0
88320 On ch=2 n=d#3 v=63
88320 On ch=2 n=a#3 v=63
88320 On ch=2 n=d#4 v=63
89280 On ch=2 n=d#4 v=0
89280 On ch=2 n=a#3 v=0
89280 On ch=2 n=d#3 v=0
89280 On ch=2 n=d3 v=63
89280 On ch=2 n=a#3 v=63
89280 On ch=2 n=d4 v=63
89600 On ch=2 n=d4 v=0
89600 On ch=2 n=d3 v=0
89600 On ch=2 n=d#3 v=45
89600 On ch=2 n=d#4 v=45
89920 On ch=2 n=d#4 v=0
89920 On ch=2 n=d#3 v=0
89920 On ch=2 n=a#3 v=0
89920 On ch=2 n=f3 v=45
89920 On ch=2 n=f4 v=45
90240 On ch=2 n=f4 v=0
90240 On ch=2 n=f3 v=0
90240 On ch=2 n=d#3 v=63
90240 On ch=2 n=a#3 v=63
90240 On ch=2 n=d#4 v=63
91200 On ch=2 n=d#4 v=0
91200 On ch=2 n=a#3 v=0
91200 On ch=2 n=d#3 v=0
91200 On ch=2 n=a#2 v=63
91200 On ch=2 n=a#3 v=63
92160 On ch=2 n=a#3 v=0
92160 On ch=2 n=a#2 v=0
92160 On ch=2 n=a#3 v=77
92160 On ch=2 n=d#4 v=77
92160 On ch=2 n=g4 v=77
93120 On ch=2 n=g4 v=0
93120 On ch=2 n=d#4 v=0
93120 On ch=2 n=a#3 v=0
93120 On ch=2 n=g#3 v=65
93120 On ch=2 n=d#4 v=65
93120 On ch=2 n=f4 v=65
93440 On ch=2 n=g#3 v=0
93440 On ch=2 n=a#3 v=68
93760 On ch=2 n=a#3 v=0
93760 On ch=2 n=c4 v=71
94080 On ch=2 n=c4 v=0
94080 On ch=2 n=f4 v=0
94080 On ch=2 n=d#4 v=0
94080 On ch=2 n=f3 v=75
94080 On ch=2 n=c4 v=75
94080 On ch=2 n=f4 v=75
94400 On ch=2 n=c4 v=0
94400 On ch=2 n=a#3 v=75
94720 On ch=2 n=a#3 v=0
94720 On ch=2 n=f4 v=0
94720 On ch=2 n=f3 v=0
94720 On ch=2 n=a3 v=76
95040 On ch=2 n=a3 v=0
95040 On ch=2 n=a#3 v=77
95040 On ch=2 n=f4 v=77
95040 On ch=2 n=g#4 v=77
95520 On ch=2 n=g#4 v=0
95520 On ch=2 n=f4 v=0
95520 On ch=2 n=a#3 v=0
95520 On ch=2 n=a#2 v=78
96000 On ch=2 n=a#2 v=0
96000 On ch=2 n=d#3 v=79
96060 On ch=2 n=a#3 v=79
96120 On ch=2 n=g4 v=79
96272 On ch=2 n=g4 v=0
96272 On ch=2 n=a#3 v=0
96272 On ch=2 n=d#3 v=0
96320 On ch=2 n=d#3 v=80
96425 On ch=2 n=d#3 v=0
96640 On ch=2 n=d#2 v=81
96745 On ch=2 n=d#2 v=0
96960 On ch=2 n=c4 v=82
96960 On ch=2 n=d#4 v=82
96960 On ch=2 n=g4 v=82
96960 On ch=2 n=a4 v=82
97280 On ch=2 n=a4 v=0
97280 On ch=2 n=a#4 v=83
97600 On ch=2 n=a#4 v=0
97600 On ch=2 n=c5 v=84
97920 On ch=2 n=c5 v=0
97920 On ch=2 n=g4 v=0
97920 On ch=2 n=d#4 v=0
97920 On ch=2 n=c4 v=0
97920 On ch=2 n=g3 v=85
97980 On ch=2 n=d#4 v=85
98040 On ch=2 n=a#4 v=85
98240 On ch=2 n=a#4 v=0
98240 On ch=2 n=d#4 v=0
98240 On ch=2 n=g3 v=0
98240 On ch=2 n=d#3 v=86
98560 On ch=2 n=d#3 v=0
98560 On ch=2 n=d#2 v=87
98880 On ch=2 n=d#2 v=0
98880 On ch=2 n=c4 v=88
98880 On ch=2 n=d#4 v=88
98880 On ch=2 n=c5 v=88
99200 On ch=2 n=c5 v=0
99200 On ch=2 n=c4 v=0
99200 On ch=2 n=a#3 v=89
99200 On ch=2 n=a#4 v=89
99520 On ch=2 n=a#4 v=0
99520 On ch=2 n=a#3 v=0
99520 On ch=2 n=d#4 v=0
99520 On ch=2 n=a3 v=90
99520 On ch=2 n=a4 v=90
99840 On ch=2 n=a4 v=0
99840 On ch=2 n=a3 v=0
99840 On ch=2 n=d4 v=92
99900 On ch=2 n=a4 v=92
99960 On ch=2 n=d5 v=92
100120 On ch=2 n=d5 v=0
100120 On ch=2 n=a4 v=0
100120 On ch=2 n=d4 v=0
100320 On ch=2 n=d3 v=96
100320 On ch=2 n=d4 v=96
100440 On ch=2 n=d4 v=0
100440 On ch=2 n=d3 v=0
100800 On ch=2 n=g4 v=100
100860 On ch=2 n=d5 v=100
100920 On ch=2 n=g5 v=100
101080 On ch=2 n=g5 v=0
101080 On ch=2 n=d5 v=0
101080 On ch=2 n=g4 v=0
101280 On ch=2 n=g2 v=104
101400 On ch=2 n=g2 v=0
101760 On ch=2 n=c4 v=108
101820 On ch=2 n=g4 v=108
101880 On ch=2 n=c5 v=108
102040 On ch=2 n=c5 v=0
102040 On ch=2 n=g4 v=0
102040 On ch=2 n=c4 v=0
102240 On ch=2 n=d#4 v=104
102240 On ch=2 n=d#5 v=104
102360 On ch=2 n=d#5 v=0
102360 On ch=2 n=d#4 v=0
102720 On ch=2 n=f4 v=100
102780 On ch=2 n=a4 v=100
102840 On ch=2 n=c5 v=100
102900 On ch=2 n=d#5 v=100
102960 On ch=2 n=f5 v=100
103140 On ch=2 n=f5 v=0
103140 On ch=2 n=d#5 v=0
103140 On ch=2 n=c5 v=0
103140 On ch=2 n=a4 v=0
103140 On ch=2 n=f4 v=0
103200 On ch=2 n=f2 v=96
103200 On ch=2 n=f3 v=96
103320 On ch=2 n=f3 v=0
103320 On ch=2 n=f2 v=0
103680 On ch=2 n=a3 v=108
103680 On ch=2 n=d4 v=108
103680 On ch=2 n=f4 v=108
103680 On ch=2 n=a4 v=108
104000 On ch=2 n=a4 v=0
104000 On ch=2 n=a3 v=0
104000 On ch=2 n=a#3 v=103
104000 On ch=2 n=a#4 v=103
104320 On ch=2 n=a#4 v=0
104320 On ch=2 n=a#3 v=0
104320 On ch=2 n=f4 v=0
104320 On ch=2 n=d4 v=0
104320 On ch=2 n=c4 v=98
104320 On ch=2 n=c5 v=98
104640 On ch=2 n=c5 v=0
104640 On ch=2 n=c4 v=0
104640 On ch=2 n=a#3 v=92
104700 On ch=2 n=d#4 v=92
104760 On ch=2 n=g4 v=92
104820 On ch=2 n=a#4 v=92
104960 On ch=2 n=a#4 v=0
104960 On ch=2 n=g4 v=0
104960 On ch=2 n=d#4 v=0
104960 On ch=2 n=a#3 v=0
105120 On ch=2 n=d#2 v=92
105120 On ch=2 n=d#3 v=92
105240 On ch=2 n=d#3 v=0
105240 On ch=2 n=d#2 v=0
105600 On ch=2 n=a3 v=108
105600 On ch=2 n=d4 v=108
105600 On ch=2 n=f4 v=108
105600 On ch=2 n=a4 v=108
105920 On ch=2 n=a4 v=0
105920 On ch=2 n=a3 v=0
105920 On ch=2 n=a#3 v=103
105920 On ch=2 n=a#4 v=103
106240 On ch=2 n=a#4 v=0
106240 On ch=2 n=a#3 v=0
106240 On ch=2 n=f4 v=0
106240 On ch=2 n=d4 v=0
106240 On ch=2 n=c4 v=98
106240 On ch=2 n=c5 v=98
106560 On ch=2 n=c5 v=0
106560 On ch=2 n=c4 v=0
106560 On ch=2 n=a#3 v=92
106620 On ch=2 n=d#4 v=92
106680 On ch=2 n=g4 v=92
106740 On ch=2 n=a#4 v=92
106880 On ch=2 n=a#4 v=0
106880 On ch=2 n=g4 v=0
106880 On ch=2 n=d#4 v=0
106880 On ch=2 n=a#3 v=0
107040 On ch=2 n=d#2 v=92
107040 On ch=2 n=d#3 v=92
107160 On ch=2 n=d#3 v=0
107160 On ch=2 n=d#2 v=0
107520 On ch=2 n=a3 v=92
107520 On ch=2 n=d4 v=92
107520 On ch=2 n=f4 v=92
107520 On ch=2 n=a4 v=92
107840 On ch=2 n=a4 v=0
107840 On ch=2 n=a3 v=0
107840 On ch=2 n=a#3 v=92
107840 On ch=2 n=a#4 v=92
108160 On ch=2 n=a#4 v=0
108160 On ch=2 n=a#3 v=0
108160 On ch=2 n=f4 v=0
108160 On ch=2 n=d4 v=0
108160 On ch=2 n=c4 v=92
108160 On ch=2 n=c5 v=92
108480 On ch=2 n=c5 v=0
108480 On ch=2 n=c4 v=0
108480 On ch=2 n=a#3 v=127
108480 On ch=2 n=d4 v=127
108480 On ch=2 n=a#4 v=127
109440 On ch=2 n=a#4 v=0
109440 On ch=2 n=d4 v=0
109440 On ch=2 n=a#3 v=0
109440 On ch=2 n=a3 v=107
109440 On ch=2 n=d#4 v=107
109440 On ch=2 n=a#4 v=107
110400 On ch=2 n=a#4 v=0
110400 On ch=2 n=d#4 v=0
110400 On ch=2 n=a3 v=0
110400 On ch=2 n=g#3 v=61
110400 On ch=2 n=f4 v=85
110720 On ch=2 n=f4 v=0
110720 On ch=2 n=d#4 v=56
111040 On ch=2 n=d#4 v=0
111040 On ch=2 n=d4 v=51
111360 On ch=2 n=d4 v=0
111360 On ch=2 n=g#3 v=0
111360 On ch=2 n=g3 v=45
111360 On ch=2 n=d4 v=45
111360 On ch=2 n=g4 v=45
112320 On ch=2 n=g4 v=0
112320 On ch=2 n=d4 v=0
112320 On ch=2 n=g3 v=0
112320 On ch=2 n=f#3 v=45
112320 On ch=2 n=d4 v=45
112320 On ch=2 n=f#4 v=45
112640 On ch=2 n=f#4 v=0
112640 On ch=2 n=f#3 v=0
112640 On ch=2 n=g3 v=45
112640 On ch=2 n=g4 v=45
112960 On ch=2 n=g4 v=0
112960 On ch=2 n=g3 v=0
112960 On ch=2 n=d4 v=0
112960 On ch=2 n=a3 v=45
112960 On ch=2 n=a4 v=45
113280 On ch=2 n=a4 v=0
113280 On ch=2 n=a3 v=0
113280 On ch=2 n=g3 v=45
113280 On ch=2 n=c4 v=45
113280 On ch=2 n=e4 v=45
113280 On ch=2 n=g4 v=45
114240 On ch=2 n=g4 v=0
114240 On ch=2 n=e4 v=0
114240 On ch=2 n=c4 v=0
114240 On ch=2 n=g3 v=0
114240 On ch=2 n=f#3 v=45
114240 On ch=2 n=d4 v=45
114240 On ch=2 n=f#4 v=45
114560 On ch=2 n=f#4 v=0
114560 On ch=2 n=f#3 v=0
114560 On ch=2 n=g3 v=45
114560 On ch=2 n=g4 v=45
114880 On ch=2 n=g4 v=0
114880 On ch=2 n=g3 v=0
114880 On ch=2 n=d4 v=0
114880 On ch=2 n=a3 v=45
114880 On ch=2 n=a4 v=45
115200 On ch=2 n=a4 v=0
115200 On ch=2 n=a3 v=0
115200 On ch=2 n=g3 v=45
115200 On ch=2 n=c4 v=45
115200 On ch=2 n=g4 v=45
115520 On ch=2 n=c4 v=0
115520 On ch=2 n=d4 v=47
115840 On ch=2 n=d4 v=0
115840 On ch=2 n=e4 v=49
116160 On ch=2 n=e4 v=0
116160 On ch=2 n=g4 v=0
116160 On ch=2 n=g3 v=0
116160 On ch=2 n=g3 v=51
116160 On ch=2 n=d4 v=51
116160 On ch=2 n=g4 v=51
116480 On ch=2 n=d4 v=0
116480 On ch=2 n=c4 v=54
116800 On ch=2 n=c4 v=0
116800 On ch=2 n=b3 v=57
117120 On ch=2 n=b3 v=0
117120 On ch=2 n=g4 v=0
117120 On ch=2 n=g3 v=0
117120 On ch=2 n=g3 v=75
117120 On ch=2 n=a3 v=75
117120 On ch=2 n=c#4 v=75
117120 On ch=2 n=g4 v=75
117440 On ch=2 n=g4 v=0
117440 On ch=2 n=g3 v=0
117440 On ch=2 n=f#3 v=75
117440 On ch=2 n=f#4 v=75
117760 On ch=2 n=f#4 v=0
117760 On ch=2 n=f#3 v=0
117760 On ch=2 n=e3 v=75
117760 On ch=2 n=e4 v=75
118080 On ch=2 n=e4 v=0
118080 On ch=2 n=e3 v=0
118080 On ch=2 n=c#4 v=0
118080 On ch=2 n=a3 v=0
118080 On ch=2 n=d3 v=75
118080 On ch=2 n=a3 v=75
118080 On ch=2 n=d4 v=75
118400 On ch=2 n=d4 v=0
118400 On ch=2 n=d3 v=0
118400 On ch=2 n=e3 v=75
118400 On ch=2 n=e4 v=75
118720 On ch=2 n=e4 v=0
118720 On ch=2 n=e3 v=0
118720 On ch=2 n=f#3 v=75
118720 On ch=2 n=f#4 v=75
119040 On ch=2 n=f#4 v=0
119040 On ch=2 n=f#3 v=0
119040 On ch=2 n=a3 v=0
119040 On ch=2 n=g3 v=75
119100 On ch=2 n=d4 v=75
119160 On ch=2 n=g4 v=75
119312 On ch=2 n=g4 v=0
119312 On ch=2 n=d4 v=0
119312 On ch=2 n=g3 v=0
119360 On ch=2 n=d3 v=75
119465 On ch=2 n=d3 v=0
119680 On ch=2 n=g2 v=75
119785 On ch=2 n=g2 v=0
120000 On ch=2 n=f#3 v=75
120000 On ch=2 n=c4 v=75
120000 On ch=2 n=f#4 v=75
120320 On ch=2 n=f#4 v=0
120320 On ch=2 n=f#3 v=0
120320 On ch=2 n=g3 v=75
120320 On ch=2 n=g4 v=75
120640 On ch=2 n=g4 v=0
120640 On ch=2 n=g3 v=0
120640 On ch=2 n=a3 v=75
120640 On ch=2 n=a4 v=75
120960 On ch=2 n=a4 v=0
120960 On ch=2 n=a3 v=0
120960 On ch=2 n=c4 v=0
120960 On ch=2 n=g3 v=75
121020 On ch=2 n=c4 v=75
121080 On ch=2 n=e4 v=75
121140 On ch=2 n=g4 v=75
121280 On ch=2 n=g4 v=0
121280 On ch=2 n=e4 v=0
121280 On ch=2 n=c4 v=0
121280 On ch=2 n=g3 v=0
121440 On ch=2 n=c2 v=79
121440 On ch=2 n=c3 v=79
121560 On ch=2 n=c3 v=0
121560 On ch=2 n=c2 v=0
121920 On ch=2 n=f#3 v=83
121920 On ch=2 n=d4 v=83
121920 On ch=2 n=f#4 v=83
122240 On ch=2 n=f#4 v=0
122240 On ch=2 n=f#3 v=0
122240 On ch=2 n=g3 v=86
122240 On ch=2 n=g4 v=86
122560 On ch=2 n=g4 v=0
122560 On ch=2 n=g3 v=0
122560 On ch=2 n=a3 v=89
122560 On ch=2 n=a4 v=89
122880 On ch=2 n=a4 v=0
122880 On ch=2 n=a3 v=0
122880 On ch=2 n=d4 v=0
122880 On ch=2 n=g3 v=92
122940 On ch=2 n=c4 v=92
123000 On ch=2 n=e4 v=92
123060 On ch=2 n=g4 v=92
123200 On ch=2 n=g4 v=0
123200 On ch=2 n=e4 v=0
123200 On ch=2 n=c4 v=0
123200 On ch=2 n=g3 v=0
123360 On ch=2 n=c2 v=92
123360 On ch=2 n=c3 v=92
123480 On ch=2 n=c3 v=0
123480 On ch=2 n=c2 v=0
123840 On ch=2 n=g3 v=92
123900 On ch=2 n=d4 v=92
123960 On ch=2 n=b4 v=92
124120 On ch=2 n=b4 v=0
124120 On ch=2 n=d4 v=0
124120 On ch=2 n=g3 v=0
124320 On ch=2 n=g2 v=92
124320 On ch=2 n=g3 v=92
124440 On ch=2 n=g3 v=0
124440 On ch=2 n=g2 v=0
124800 On ch=2 n=c4 v=92
124860 On ch=2 n=d#4 v=92
124920 On ch=2 n=g4 v=92
124980 On ch=2 n=c5 v=92
125120 On ch=2 n=c5 v=0
125120 On ch=2 n=g4 v=0
125120 On ch=2 n=d#4 v=0
125120 On ch=2 n=c4 v=0
125280 On ch=2 n=d#4 v=92
125280 On ch=2 n=d#5 v=92
125400 On ch=2 n=d#5 v=0
125400 On ch=2 n=d#4 v=0
125760 On ch=2 n=g4 v=92
125820 On ch=2 n=a#4 v=92
125880 On ch=2 n=d5 v=92
125940 On ch=2 n=g5 v=92
126080 On ch=2 n=g5 v=0
126080 On ch=2 n=d5 v=0
126080 On ch=2 n=a#4 v=0
126080 On ch=2 n=g4 v=0
126240 On ch=2 n=g2 v=92
126240 On ch=2 n=g3 v=92
126360 On ch=2 n=g3 v=0
126360 On ch=2 n=g2 v=0
126720 On ch=2 n=g4 v=92
126720 On ch=2 n=c5 v=92
126720 On ch=2 n=d#5 v=92
126720 On ch=2 n=g5 v=92
127040 On ch=2 n=g5 v=0
127040 On ch=2 n=d#5 v=0
127040 On ch=2 n=c5 v=0
127040 On ch=2 n=g4 v=0
127040 On ch=2 n=f4 v=92
127040 On ch=2 n=f5 v=92
127360 On ch=2 n=f5 v=0
127360 On ch=2 n=f4 v=0
127360 On ch=2 n=d#4 v=92
127360 On ch=2 n=d#5 v=92
127680 On ch=2 n=d#5 v=0
127680 On ch=2 n=d#4 v=0
127680 On ch=2 n=f4 v=92
127680 On ch=2 n=g#4 v=92
127680 On ch=2 n=d5 v=92
127680 On ch=2 n=f5 v=92
128640 On ch=2 n=f5 v=0
128640 On ch=2 n=d5 v=0
128640 On ch=2 n=g#4 v=0
128640 On ch=2 n=g4 v=92
128640 On ch=2 n=d5 v=92
128640 On ch=2 n=f5 v=92
128960 On ch=2 n=f5 v=0
128960 On ch=2 n=d5 v=0
128960 On ch=2 n=g4 v=0
128960 On ch=2 n=f4 v=0
128960 On ch=2 n=d#4 v=92
128960 On ch=2 n=d#5 v=92
129280 On ch=2 n=d#5 v=0
129280 On ch=2 n=d#4 v=0
129280 On ch=2 n=d4 v=92
129280 On ch=2 n=d5 v=92
129600 On ch=2 n=d5 v=0
129600 On ch=2 n=d4 v=0
129600 On ch=2 n=d#4 v=92
129600 On ch=2 n=g4 v=92
129600 On ch=2 n=c5 v=92
129600 On ch=2 n=d#5 v=92
130560 On ch=2 n=d#5 v=0
130560 On ch=2 n=c5 v=0
130560 On ch=2 n=g4 v=0
130560 On ch=2 n=f4 v=92
130560 On ch=2 n=c5 v=92
130560 On ch=2 n=d#5 v=92
130880 On ch=2 n=d#5 v=0
130880 On ch=2 n=c5 v=0
130880 On ch=2 n=f4 v=0
130880 On ch=2 n=d#4 v=0
130880 On ch=2 n=d4 v=92
130880 On ch=2 n=d5 v=92
131200 On ch=2 n=d5 v=0
131200 On ch=2 n=d4 v=0
131200 On ch=2 n=c4 v=92
131200 On ch=2 n=c5 v=92
131520 On ch=2 n=c5 v=0
131520 On ch=2 n=c4 v=0
131520 On ch=2 n=b3 v=92
131520 On ch=2 n=d4 v=92
131520 On ch=2 n=g4 v=92
131520 On ch=2 n=b4 v=92
131840 On ch=2 n=b4 v=0
131840 On ch=2 n=g4 v=0
131840 On ch=2 n=d4 v=0
131840 On ch=2 n=b3 v=0
131840 On ch=2 n=a3 v=91
131840 On ch=2 n=a4 v=91
132160 On ch=2 n=a4 v=0
132160 On ch=2 n=a3 v=0
132160 On ch=2 n=g3 v=89
132160 On ch=2 n=g4 v=89
132480 On ch=2 n=g4 v=0
132480 On ch=2 n=g3 v=0
132480 On ch=2 n=d#4 v=87
132480 On ch=2 n=g#4 v=87
132480 On ch=2 n=c5 v=87
132480 On ch=2 n=d#5 v=87
132800 On ch=2 n=d#5 v=0
132800 On ch=2 n=c5 v=0
132800 On ch=2 n=g#4 v=0
132800 On ch=2 n=d#4 v=0
132800 On ch=2 n=d4 v=85
132800 On ch=2 n=d5 v=85
133120 On ch=2 n=d5 v=0
133120 On ch=2 n=d4 v=0
133120 On ch=2 n=c4 v=83
133120 On ch=2 n=c5 v=83
133440 On ch=2 n=c5 v=0
133440 On ch=2 n=c4 v=0
133440 On ch=2 n=b3 v=81
133440 On ch=2 n=d4 v=81
133440 On ch=2 n=g4 v=81
133440 On ch=2 n=b4 v=81
133760 On ch=2 n=b4 v=0
133760 On ch=2 n=g4 v=0
133760 On ch=2 n=d4 v=0
133760 On ch=2 n=b3 v=0
133760 On ch=2 n=a3 v=79
133760 On ch=2 n=a4 v=79
134080 On ch=2 n=a4 v=0
134080 On ch=2 n=a3 v=0
134080 On ch=2 n=g3 v=77
134080 On ch=2 n=g4 v=77
134400 On ch=2 n=g4 v=0
134400 On ch=2 n=g3 v=0
134400 On ch=2 n=d#3 v=108
134400 On ch=2 n=g#3 v=108
134400 On ch=2 n=c4 v=108
134400 On ch=2 n=d#4 v=108
134400 On ch=2 n=f#4 v=108
134400 On ch=2 n=g#4 v=108
135360 On ch=2 n=d#4 v=0
135360 On ch=2 n=c4 v=0
135360 On ch=2 n=g#3 v=0
135360 On ch=2 n=d#3 v=0
135360 On ch=2 n=d3 v=92
135360 On ch=2 n=d4 v=92
135840 On ch=2 n=d4 v=0
135840 On ch=2 n=d3 v=0
135840 On ch=2 n=c3 v=85
135840 On ch=2 n=c4 v=85
136320 On ch=2 n=c4 v=0
136320 On ch=2 n=c3 v=0
136320 On ch=2 n=g#4 v=0
136320 On ch=2 n=f#4 v=0
136320 On ch=2 n=g2 v=77
136320 On ch=2 n=g3 v=77
136320 On ch=2 n=g4 v=77
136800 On ch=2 n=g2 v=0
136800 On ch=2 n=b3 v=69
136800 On ch=2 n=d4 v=69
137280 On ch=2 n=d4 v=0
137280 On ch=2 n=b3 v=0
137280 On ch=2 n=c4 v=61
137280 On ch=2 n=d#4 v=61
137760 On ch=2 n=d#4 v=0
137760 On ch=2 n=c4 v=0
137760 On ch=2 n=d4 v=53
137760 On ch=2 n=f4 v=53
138240 On ch=2 n=f4 v=0
138240 On ch=2 n=d4 v=0
138240 On ch=2 n=g4 v=0
138240 On ch=2 n=g3 v=0
138240 On ch=2 n=d#3 v=45
138240 On ch=2 n=a#3 v=45
138240 On ch=2 n=d#4 v=45
139200 On ch=2 n=d#4 v=0
139200 On ch=2 n=a#3 v=0
139200 On ch=2 n=d#3 v=0
139200 On ch=2 n=d3 v=45
139200 On ch=2 n=a#3 v=45
139200 On ch=2 n=d4 v=45
139520 On ch=2 n=d4 v=0
139520 On ch=2 n=d3 v=0
139520 On ch=2 n=d#3 v=45
139520 On ch=2 n=d#4 v=45
139840 On ch=2 n=d#4 v=0
139840 On ch=2 n=d#3 v=0
139840 On ch=2 n=f3 v=45
139840 On ch=2 n=f4 v=45
140160 On ch=2 n=f4 v=0
140160 On ch=2 n=f3 v=0
140160 On ch=2 n=a#3 v=0
140160 On ch=2 n=d#3 v=63
140160 On ch=2 n=a#3 v=63
140160 On ch=2 n=d#4 v=63
141120 On ch=2 n=d#4 v=0
141120 On ch=2 n=a#3 v=0
141120 On ch=2 n=d#3 v=0
141120 On ch=2 n=a#2 v=63
141120 On ch=2 n=a#3 v=63
142080 On ch=2 n=a#3 v=0
142080 On ch=2 n=a#2 v=0
142080 On ch=2 n=a#3 v=63
142080 On ch=2 n=d#4 v=63
142080 On ch=2 n=g4 v=63
143040 On ch=2 n=g4 v=0
143040 On ch=2 n=d#4 v=0
143040 On ch=2 n=a#3 v=0
143040 On ch=2 n=g3 v=45
143040 On ch=2 n=d#4 v=45
143040 On ch=2 n=a#4 v=45
143360 On ch=2 n=a#4 v=0
143360 On ch=2 n=c5 v=50
143680 On ch=2 n=c5 v=0
143680 On ch=2 n=c#5 v=55
144000 On ch=2 n=c#5 v=0
144000 On ch=2 n=d#4 v=0
144000 On ch=2 n=g3 v=0
144000 On ch=2 n=c4 v=60
144060 On ch=2 n=g4 v=60
144120 On ch=2 n=a#4 v=60
144180 On ch=2 n=c5 v=60
144320 On ch=2 n=c5 v=0
144320 On ch=2 n=a#4 v=0
144320 On ch=2 n=g4 v=0
144320 On ch=2 n=c4 v=0
144480 On ch=2 n=c3 v=68
144600 On ch=2 n=c3 v=0
144960 On ch=2 n=f3 v=76
145020 On ch=2 n=c4 v=76
145080 On ch=2 n=f4 v=76
145240 On ch=2 n=f4 v=0
145240 On ch=2 n=c4 v=0
145240 On ch=2 n=f3 v=0
145440 On ch=2 n=f2 v=84
145560 On ch=2 n=f2 v=0
145920 On ch=2 n=a3 v=92
145920 On ch=2 n=d#4 v=92
145920 On ch=2 n=a4 v=92
146240 On ch=2 n=a4 v=0
146240 On ch=2 n=a3 v=0
146240 On ch=2 n=a#3 v=92
146240 On ch=2 n=a#4 v=92
146560 On ch=2 n=a#4 v=0
146560 On ch=2 n=a#3 v=0
146560 On ch=2 n=c4 v=92
146560 On ch=2 n=c5 v=92
146880 On ch=2 n=c5 v=0
146880 On ch=2 n=c4 v=0
146880 On ch=2 n=d#4 v=0
146880 On ch=2 n=a#3 v=92
146880 On ch=2 n=f4 v=92
146880 On ch=2 n=a#4 v=92
147200 On ch=2 n=f4 v=0
147200 On ch=2 n=d#4 v=92
147520 On ch=2 n=d#4 v=0
147520 On ch=2 n=d4 v=92
147840 On ch=2 n=d4 v=0
147840 On ch=2 n=a#4 v=0
147840 On ch=2 n=a#3 v=0
147840 On ch=2 n=a3 v=108
147840 On ch=2 n=d#4 v=108
147840 On ch=2 n=a4 v=108
148160 On ch=2 n=a4 v=0
148160 On ch=2 n=a3 v=0
148160 On ch=2 n=a#3 v=103
148160 On ch=2 n=a#4 v=103
148480 On ch=2 n=a#4 v=0
148480 On ch=2 n=a#3 v=0
148480 On ch=2 n=c4 v=98
148480 On ch=2 n=c5 v=98
148800 On ch=2 n=c5 v=0
148800 On ch=2 n=c4 v=0
148800 On ch=2 n=d#4 v=0
148800 On ch=2 n=a#3 v=93
148800 On ch=2 n=f4 v=93
149280 On ch=2 n=f4 v=0
149280 On ch=2 n=a#3 v=0
149280 On ch=2 n=a#2 v=84
149340 On ch=2 n=d4 v=84
149760 On ch=2 n=d4 v=0
149760 On ch=2 n=a#2 v=0
149760 On ch=2 n=d#3 v=75
150720 On ch=2 n=d#3 v=0
150720 On ch=2 n=d#3 v=75
150720 On ch=2 n=a3 v=75
151040 On ch=2 n=a3 v=0
151040 On ch=2 n=a#3 v=75
151360 On ch=2 n=a#3 v=0
151360 On ch=2 n=c4 v=75
151680 On ch=2 n=c4 v=0
151680 On ch=2 n=a#3 v=75
152640 On ch=2 n=a#3 v=0
152640 On ch=2 n=d#3 v=0
153600 On ch=2 n=a3 v=75
153600 On ch=2 n=d#4 v=75
153600 On ch=2 n=a4 v=75
154080 On ch=2 n=a4 v=0
154080 On ch=2 n=a3 v=0
154080 On ch=2 n=a#3 v=75
154080 On ch=2 n=a#4 v=75
154560 On ch=2 n=a#4 v=0
154560 On ch=2 n=a#3 v=0
154560 On ch=2 n=c4 v=75
154560 On ch=2 n=c5 v=75
155040 On ch=2 n=c5 v=0
155040 On ch=2 n=c4 v=0
155040 On ch=2 n=a#3 v=75
155040 On ch=2 n=a#4 v=75
157440 On ch=2 n=a#4 v=0
157440 On ch=2 n=a#3 v=0
157440 On ch=2 n=d#4 v=0
157440 On ch=2 n=a3 v=92
157500 On ch=2 n=a3 v=0
157500 On ch=2 n=d#4 v=92
157560 On ch=2 n=d#4 v=0
157560 On ch=2 n=c5 v=92
157620 On ch=2 n=c5 v=0
157620 On ch=2 n=a3 v=92
157620 On ch=2 n=d#4 v=92
157620 On ch=2 n=c5 v=92
157920 On ch=2 n=c5 v=0
157920 On ch=2 n=d#4 v=0
157920 On ch=2 n=a3 v=0
158640 Par ch=2 c=64 v=127
158640 On ch=2 n=d3 v=92
158880 On ch=2 n=d3 v=0
158880 On ch=2 n=a3 v=92
159120 On ch=2 n=a3 v=0
159120 On ch=2 n=c4 v=92
159360 On ch=2 n=c4 v=0
159360 On ch=2 n=d4 v=92
159600 On ch=2 n=d4 v=0
159600 On ch=2 n=a4 v=92
159840 On ch=2 n=a4 v=0
159840 On ch=2 n=c5 v=92
160080 On ch=2 n=c5 v=0
160080 On ch=2 n=d4 v=92
160320 On ch=2 n=d4 v=0
160320 On ch=2 n=a#4 v=92
160560 On ch=2 n=a#4 v=0
160560 On ch=2 n=d4 v=92
160800 On ch=2 n=d4 v=0
160800 On ch=2 n=f#4 v=92
161040 On ch=2 n=f#4 v=0
161040 On ch=2 n=d4 v=92
161280 On ch=2 n=d4 v=0
161280 Par ch=2 c=64 v=0
162480 Par ch=2 c=64 v=127
162480 On ch=2 n=g2 v=92
162720 On ch=2 n=g2 v=0
162720 On ch=2 n=g3 v=92
162960 On ch=2 n=g3 v=0
162960 On ch=2 n=a#3 v=92
163200 On ch=2 n=a#3 v=0
163200 On ch=2 n=e4 v=92
163440 On ch=2 n=e4 v=0
163440 On ch=2 n=g4 v=92
163680 On ch=2 n=g4 v=0
163680 On ch=2 n=a#4 v=92
163920 On ch=2 n=a#4 v=0
163920 On ch=2 n=d4 v=92
164160 On ch=2 n=d4 v=0
164160 On ch=2 n=g4 v=92
164400 On ch=2 n=g4 v=0
164400 On ch=2 n=d4 v=92
164640 On ch=2 n=d4 v=0
164640 On ch=2 n=f#4 v=92
164880 On ch=2 n=f#4 v=0
164880 On ch=2 n=d4 v=92
165120 On ch=2 n=d4 v=0
165120 Par ch=2 c=64 v=0
166320 Par ch=2 c=64 v=127
166320 On ch=2 n=c5 v=108
166560 On ch=2 n=c5 v=0
166560 On ch=2 n=a4 v=103
166800 On ch=2 n=a4 v=0
166800 On ch=2 n=d#4 v=98
167040 On ch=2 n=d#4 v=0
167040 On ch=2 n=c4 v=92
167280 On ch=2 n=c4 v=0
167280 On ch=2 n=d3 v=92
167520 On ch=2 n=d3 v=0
167520 On ch=2 n=f#4 v=92
167520 On ch=2 n=f#4 v=92
167760 On ch=2 n=f#4 v=0
167760 On ch=2 n=d4 v=92
168000 On ch=2 n=d4 v=0
168000 On ch=2 n=f#4 v=0
168000 On ch=2 n=g4 v=92
168000 On ch=2 n=g4 v=92
168240 On ch=2 n=g4 v=0
168240 On ch=2 n=d4 v=92
168480 On ch=2 n=d4 v=0
168480 On ch=2 n=g4 v=0
168480 On ch=2 n=a4 v=92
168480 On ch=2 n=a4 v=92
168720 On ch=2 n=a4 v=0
168720 On ch=2 n=d4 v=92
168960 On ch=2 n=d4 v=0
168960 On ch=2 n=a4 v=0
168960 Par ch=2 c=64 v=0
170160 On ch=2 n=g4 v=108
170400 On ch=2 n=g4 v=0
170400 On ch=2 n=e4 v=103
170640 On ch=2 n=e4 v=0
170640 On ch=2 n=a#3 v=98
170880 On ch=2 n=a#3 v=0
170880 On ch=2 n=g3 v=92
171120 On ch=2 n=g3 v=0
171120 On ch=2 n=g2 v=92
171360 On ch=2 n=g2 v=0
171360 On ch=2 n=a#3 v=92
171360 On ch=2 n=a#3 v=92
171600 On ch=2 n=a#3 v=0
171600 On ch=2 n=d3 v=92
171840 On ch=2 n=d3 v=0
171840 On ch=2 n=a#3 v=0
171840 On ch=2 n=c#4 v=92
171840 On ch=2 n=c#4 v=92
172080 On ch=2 n=c#4 v=0
172080 On ch=2 n=d3 v=92
172320 On ch=2 n=d3 v=0
172320 On ch=2 n=c#4 v=0
172320 On ch=2 n=d4 v=92
172320 On ch=2 n=d4 v=92
172560 On ch=2 n=d4 v=0
172560 On ch=2 n=d3 v=92
172800 On ch=2 n=d3 v=0
172800 On ch=2 n=d4 v=0
172800 Par ch=2 c=64 v=127
172800 On ch=2 n=c3 v=92
172800 On ch=2 n=c3 v=92
173040 On ch=2 n=c3 v=0
173040 On ch=2 n=d#3 v=92
173280 On ch=2 n=d#3 v=0
173280 On ch=2 n=c3 v=0
173280 On ch=2 n=g#3 v=92
173520 On ch=2 n=g#3 v=0
173520 On ch=2 n=c4 v=92
173760 On ch=2 n=c4 v=0
173760 Par ch=2 c=64 v=0
173760 Par ch=2 c=64 v=127
173760 On ch=2 n=d4 v=92
173760 On ch=2 n=d4 v=92
174000 On ch=2 n=d4 v=0
174000 On ch=2 n=f#4 v=92
174240 On ch=2 n=f#4 v=0
174240 On ch=2 n=d4 v=0
174240 On ch=2 n=a4 v=92
174480 On ch=2 n=a4 v=0
174480 On ch=2 n=d5 v=92
174720 On ch=2 n=d5 v=0
174720 Par ch=2 c=64 v=0
174720 Par ch=2 c=64 v=127
174720 On ch=2 n=c3 v=92
174720 On ch=2 n=c3 v=92
174960 On ch=2 n=c3 v=0
174960 On ch=2 n=d#3 v=92
175200 On ch=2 n=d#3 v=0
175200 On ch=2 n=c3 v=0
175200 On ch=2 n=g#3 v=92
175440 On ch=2 n=g#3 v=0
175440 On ch=2 n=c4 v=92
175680 On ch=2 n=c4 v=0
175680 Par ch=2 c=64 v=0
175680 Par ch=2 c=64 v=127
175680 On ch=2 n=d4 v=92
175680 On ch=2 n=d4 v=92
175920 On ch=2 n=d4 v=0
175920 On ch=2 n=f#4 v=92
176160 On ch=2 n=f#4 v=0
176160 On ch=2 n=d4 v=0
176160 On ch=2 n=a4 v=92
176400 On ch=2 n=a4 v=0
176400 On ch=2 n=d5 v=92
176640 On ch=2 n=d5 v=0
176640 Par ch=2 c=64 v=0
176640 Par ch=2 c=64 v=127
176640 On ch=2 n=d3 v=75
176640 On ch=2 n=d3 v=75
176880 On ch=2 n=d3 v=0
176880 On ch=2 n=f3 v=77
177120 On ch=2 n=f3 v=0
177120 On ch=2 n=d3 v=0
177120 On ch=2 n=a#3 v=79
177360 On ch=2 n=a#3 v=0
177360 On ch=2 n=d4 v=81
177600 On ch=2 n=d4 v=0
177600 Par ch=2 c=64 v=0
177600 Par ch=2 c=64 v=127
177600 On ch=2 n=e4 v=83
177600 On ch=2 n=e4 v=83
177840 On ch=2 n=e4 v=0
177840 On ch=2 n=g#4 v=85
178080 On ch=2 n=g#4 v=0
178080 On ch=2 n=e4 v=0
178080 On ch=2 n=b4 v=87
178320 On ch=2 n=b4 v=0
178320 On ch=2 n=e5 v=89
178560 On ch=2 n=e5 v=0
178560 Par ch=2 c=64 v=0
178560 Par ch=2 c=64 v=127
178560 On ch=2 n=e3 v=91
178560 On ch=2 n=e3 v=91
178800 On ch=2 n=e3 v=0
178800 On ch=2 n=g3 v=93
179040 On ch=2 n=g3 v=0
179040 On ch=2 n=e3 v=0
179040 On ch=2 n=c4 v=95
179280 On ch=2 n=c4 v=0
179280 On ch=2 n=d#4 v=97
179520 On ch=2 n=d#4 v=0
179520 On ch=2 n=e4 v=99
179520 On ch=2 n=e4 v=99
179760 On ch=2 n=e4 v=0
179760 On ch=2 n=g4 v=101
180000 On ch=2 n=g4 v=0
180000 On ch=2 n=e4 v=0
180000 On ch=2 n=c5 v=103
180240 On ch=2 n=c5 v=0
180240 On ch=2 n=e5 v=105
180480 On ch=2 n=e5 v=0
180480 Par ch=2 c=64 v=0
180480 Par ch=2 c=64 v=127
180480 On ch=2 n=c3 v=92
180635 On ch=2 n=c3 v=0
180640 On ch=2 n=d#3 v=92
180795 On ch=2 n=d#3 v=0
180800 On ch=2 n=a3 v=92
180955 On ch=2 n=a3 v=0
180960 On ch=2 n=c4 v=92
181075 On ch=2 n=c4 v=0
181080 On ch=2 n=d#4 v=92
181195 On ch=2 n=d#4 v=0
181200 On ch=2 n=a4 v=92
181315 On ch=2 n=a4 v=0
181320 On ch=2 n=c5 v=92
181435 On ch=2 n=c5 v=0
181440 On ch=2 n=d#5 v=92
181675 On ch=2 n=d#5 v=0
181680 Par ch=2 c=64 v=0
181920 Par ch=2 c=64 v=127
181920 On ch=2 n=c2 v=92
181920 On ch=2 n=c3 v=92
182320 On ch=2 n=c3 v=0
182320 On ch=2 n=c2 v=0
182400 On ch=2 n=d2 v=92
182635 On ch=2 n=d2 v=0
182640 On ch=2 n=d3 v=92
182875 On ch=2 n=d3 v=0
182880 On ch=2 n=c5 v=92
183115 On ch=2 n=c5 v=0
183120 On ch=2 n=d4 v=92
183355 On ch=2 n=d4 v=0
183360 On ch=2 n=a#4 v=92
183595 On ch=2 n=a#4 v=0
183600 On ch=2 n=d4 v=92
183835 On ch=2 n=d4 v=0
183840 On ch=2 n=f#4 v=92
184075 On ch=2 n=f#4 v=0
184080 On ch=2 n=d4 v=92
184315 On ch=2 n=d4 v=0
184320 Par ch=2 c=64 v=0
185520 Par ch=2 c=64 v=127
185520 On ch=2 n=g2 v=92
185755 On ch=2 n=g2 v=0
185760 On ch=2 n=g3 v=92
185995 On ch=2 n=g3 v=0
186000 On ch=2 n=a#3 v=92
186235 On ch=2 n=a#3 v=0
186240 On ch=2 n=e4 v=92
186475 On ch=2 n=e4 v=0
186480 On ch=2 n=g4 v=92
186715 On ch=2 n=g4 v=0
186720 On ch=2 n=a#4 v=92
186955 On ch=2 n=a#4 v=0
186960 On ch=2 n=d4 v=92
187195 On ch=2 n=d4 v=0
187200 On ch=2 n=g4 v=92
187435 On ch=2 n=g4 v=0
187440 On ch=2 n=d4 v=92
187675 On ch=2 n=d4 v=0
187680 On ch=2 n=f#4 v=92
187915 On ch=2 n=f#4 v=0
187920 On ch=2 n=d4 v=92
188155 On ch=2 n=d4 v=0
188160 Par ch=2 c=64 v=0
189360 Par ch=2 c=64 v=127
189360 On ch=2 n=c5 v=108
189595 On ch=2 n=c5 v=0
189600 On ch=2 n=a4 v=103
189835 On ch=2 n=a4 v=0
189840 On ch=2 n=d#4 v=98
190075 On ch=2 n=d#4 v=0
190080 On ch=2 n=c4 v=92
190315 On ch=2 n=c4 v=0
190320 On ch=2 n=d3 v=92
190555 On ch=2 n=d3 v=0
190560 On ch=2 n=f#4 v=92
190560 On ch=2 n=f#4 v=92
190795 On ch=2 n=f#4 v=0
190800 On ch=2 n=d4 v=92
190960 On ch=2 n=f#4 v=0
191035 On ch=2 n=d4 v=0
191040 On ch=2 n=g4 v=92
191040 On ch=2 n=g4 v=92
191275 On ch=2 n=g4 v=0
191280 On ch=2 n=d4 v=92
191440 On ch=2 n=g4 v=0
191515 On ch=2 n=d4 v=0
191520 On ch=2 n=a4 v=92
191520 On ch=2 n=a4 v=92
191755 On ch=2 n=a4 v=0
191760 On ch=2 n=d4 v=92
191920 On ch=2 n=a4 v=0
191995 On ch=2 n=d4 v=0
192000 Par ch=2 c=64 v=0
193200 Par ch=2 c=64 v=127
193200 On ch=2 n=g4 v=108
193435 On ch=2 n=g4 v=0
193440 On ch=2 n=e4 v=103
193675 On ch=2 n=e4 v=0
193680 On ch=2 n=a#3 v=98
193915 On ch=2 n=a#3 v=0
193920 On ch=2 n=g3 v=92
194155 On ch=2 n=g3 v=0
194160 On ch=2 n=g2 v=92
194395 On ch=2 n=g2 v=0
194400 On ch=2 n=a#3 v=92
194400 On ch=2 n=a#3 v=92
194635 On ch=2 n=a#3 v=0
194640 On ch=2 n=d3 v=92
194800 On ch=2 n=a#3 v=0
194875 On ch=2 n=d3 v=0
194880 On ch=2 n=c#4 v=92
194880 On ch=2 n=c#4 v=92
195115 On ch=2 n=c#4 v=0
195120 On ch=2 n=d3 v=92
195280 On ch=2 n=c#4 v=0
195355 On ch=2 n=d3 v=0
195360 On ch=2 n=d4 v=92
195360 On ch=2 n=d4 v=92
195595 On ch=2 n=d4 v=0
195600 On ch=2 n=d3 v=92
195760 On ch=2 n=d4 v=0
195835 On ch=2 n=d3 v=0
195840 Par ch=2 c=64 v=0
195840 Par ch=2 c=64 v=127
195840 On ch=2 n=b2 v=60
195840 On ch=2 n=b2 v=60
196075 On ch=2 n=b2 v=0
196080 On ch=2 n=d3 v=60
196240 On ch=2 n=b2 v=0
196315 On ch=2 n=d3 v=0
196320 On ch=2 n=g3 v=60
196555 On ch=2 n=g3 v=0
196560 On ch=2 n=b3 v=60
196795 On ch=2 n=b3 v=0
196800 Par ch=2 c=64 v=0
196800 Par ch=2 c=64 v=127
196800 On ch=2 n=c#4 v=60
196800 On ch=2 n=c#4 v=60
197035 On ch=2 n=c#4 v=0
197040 On ch=2 n=f4 v=60
197200 On ch=2 n=c#4 v=0
197275 On ch=2 n=f4 v=0
197280 On ch=2 n=g#4 v=60
197515 On ch=2 n=g#4 v=0
197520 On ch=2 n=c#5 v=60
197755 On ch=2 n=c#5 v=0
197760 Par ch=2 c=64 v=0
197760 Par ch=2 c=64 v=127
197760 On ch=2 n=b2 v=60
197760 On ch=2 n=b2 v=60
197995 On ch=2 n=b2 v=0
198000 On ch=2 n=d3 v=60
198160 On ch=2 n=b2 v=0
198235 On ch=2 n=d3 v=0
198240 On ch=2 n=g3 v=60
198475 On ch=2 n=g3 v=0
198480 On ch=2 n=b3 v=60
198715 On ch=2 n=b3 v=0
198720 Par ch=2 c=64 v=0
198720 Par ch=2 c=64 v=127
198720 On ch=2 n=c#4 v=60
198720 On ch=2 n=c#4 v=60
198955 On ch=2 n=c#4 v=0
198960 On ch=2 n=f4 v=60
199120 On ch=2 n=c#4 v=0
199195 On ch=2 n=f4 v=0
199200 On ch=2 n=g#4 v=60
199435 On ch=2 n=g#4 v=0
199440 On ch=2 n=c#5 v=60
199675 On ch=2 n=c#5 v=0
199680 Par ch=2 c=64 v=0
199680 Par ch=2 c=64 v=127
199680 On ch=2 n=a#2 v=60
199680 On ch=2 n=a#2 v=60
199915 On ch=2 n=a#2 v=0
199920 On ch=2 n=c#3 v=60
200080 On ch=2 n=a#2 v=0
200155 On ch=2 n=c#3 v=0
200160 On ch=2 n=f#3 v=60
200395 On ch=2 n=f#3 v=0
200400 On ch=2 n=a#3 v=60
200635 On ch=2 n=a#3 v=0
200640 Par ch=2 c=64 v=0
200640 Par ch=2 c=64 v=127
200640 On ch=2 n=c4 v=60
200640 On ch=2 n=c4 v=60
200875 On ch=2 n=c4 v=0
200880 On ch=2 n=e4 v=60
201040 On ch=2 n=c4 v=0
201115 On ch=2 n=e4 v=0
201120 On ch=2 n=g4 v=60
201355 On ch=2 n=g4 v=0
201360 On ch=2 n=c5 v=60
201595 On ch=2 n=c5 v=0
201600 Par ch=2 c=64 v=0
201600 Par ch=2 c=64 v=0
201600 Par ch=2 c=64 v=127
201600 On ch=2 n=a2 v=60
201600 On ch=2 n=a2 v=60
201835 On ch=2 n=a2 v=0
201840 On ch=2 n=c3 v=60
202000 On ch=2 n=a2 v=0
202075 On ch=2 n=c3 v=0
202080 On ch=2 n=f3 v=60
202315 On ch=2 n=f3 v=0
202320 On ch=2 n=g#3 v=60
202555 On ch=2 n=g#3 v=0
202560 Par ch=2 c=64 v=0
202560 Par ch=2 c=64 v=127
202560 On ch=2 n=a3 v=60
202560 On ch=2 n=a3 v=60
202795 On ch=2 n=a3 v=0
202800 On ch=2 n=c4 v=60
202960 On ch=2 n=a3 v=0
203035 On ch=2 n=c4 v=0
203040 On ch=2 n=f4 v=60
203275 On ch=2 n=f4 v=0
203280 On ch=2 n=a4 v=60
203515 On ch=2 n=a4 v=0
203520 Par ch=2 c=64 v=0
203520 Par ch=2 c=64 v=127
203520 On ch=2 n=d4 v=60
203520 On ch=2 n=d4 v=60
203755 On ch=2 n=d4 v=0
203760 On ch=2 n=f#4 v=62
203920 On ch=2 n=d4 v=0
203995 On ch=2 n=f#4 v=0
204000 On ch=2 n=a4 v=64
204235 On ch=2 n=a4 v=0
204240 On ch=2 n=c5 v=66
204475 On ch=2 n=c5 v=0
204480 Par ch=2 c=64 v=0
204480 Par ch=2 c=64 v=127
204480 On ch=2 n=c#5 v=68
204480 On ch=2 n=c#5 v=68
204715 On ch=2 n=c#5 v=0
204720 On ch=2 n=a#4 v=70
204880 On ch=2 n=c#5 v=0
204955 On ch=2 n=a#4 v=0
204960 On ch=2 n=g4 v=72
205195 On ch=2 n=g4 v=0
205200 On ch=2 n=d#4 v=74
205435 On ch=2 n=d#4 v=0
205440 Par ch=2 c=64 v=0
205440 Par ch=2 c=64 v=127
205440 On ch=2 n=d4 v=76
205440 On ch=2 n=d4 v=76
205675 On ch=2 n=d4 v=0
205680 On ch=2 n=g4 v=78
205840 On ch=2 n=d4 v=0
205915 On ch=2 n=g4 v=0
205920 On ch=2 n=a#4 v=80
206155 On ch=2 n=a#4 v=0
206160 On ch=2 n=d5 v=82
206395 On ch=2 n=d5 v=0
206400 Par ch=2 c=64 v=0
206400 Par ch=2 c=64 v=127
206400 On ch=2 n=d#5 v=84
206400 On ch=2 n=d#5 v=84
206635 On ch=2 n=d#5 v=0
206640 On ch=2 n=a#4 v=86
206800 On ch=2 n=d#5 v=0
206875 On ch=2 n=a#4 v=0
206880 On ch=2 n=g4 v=88
207115 On ch=2 n=g4 v=0
207120 On ch=2 n=c#4 v=90
207355 On ch=2 n=c#4 v=0
207360 Par ch=2 c=64 v=0
207360 Par ch=2 c=64 v=127
207360 On ch=2 n=c4 v=92
207360 On ch=2 n=c4 v=92
207595 On ch=2 n=c4 v=0
207600 On ch=2 n=g4 v=92
207760 On ch=2 n=c4 v=0
207835 On ch=2 n=g4 v=0
207840 On ch=2 n=a#4 v=92
208075 On ch=2 n=a#4 v=0
208080 On ch=2 n=e5 v=92
208315 On ch=2 n=e5 v=0
208320 On ch=2 n=f5 v=92
208320 On ch=2 n=f5 v=92
208555 On ch=2 n=f5 v=0
208560 Par ch=2 c=64 v=0
208560 Par ch=2 c=64 v=127
208560 On ch=2 n=c5 v=93
208720 On ch=2 n=f5 v=0
208795 On ch=2 n=c5 v=0
208800 On ch=2 n=a4 v=94
209035 On ch=2 n=a4 v=0
209040 On ch=2 n=d#4 v=95
209275 On ch=2 n=d#4 v=0
209280 Par ch=2 c=64 v=0
209280 Par ch=2 c=64 v=127
209280 On ch=2 n=d4 v=96
209280 On ch=2 n=d4 v=96
209515 On ch=2 n=d4 v=0
209520 On ch=2 n=a4 v=97
209680 On ch=2 n=d4 v=0
209755 On ch=2 n=a4 v=0
209760 On ch=2 n=c5 v=98
209995 On ch=2 n=c5 v=0
210000 On ch=2 n=f#5 v=99
210235 On ch=2 n=f#5 v=0
210240 Par ch=2 c=64 v=0
212160 On ch=2 n=d#2 v=108
212160 On ch=2 n=d#3 v=108
212560 On ch=2 n=d#3 v=0
212560 On ch=2 n=d#2 v=0
212640 On ch=2 n=g4 v=108
212640 On ch=2 n=d#5 v=108
212640 On ch=2 n=g5 v=108
213960 On ch=2 n=g5 v=0
213960 On ch=2 n=d#5 v=0
213960 On ch=2 n=g4 v=0
214080 On ch=2 n=c#2 v=108
214080 On ch=2 n=c#3 v=108
214480 On ch=2 n=c#3 v=0
214480 On ch=2 n=c#2 v=0
214560 On ch=2 n=e4 v=108
214560 On ch=2 n=g4 v=108
214560 On ch=2 n=e5 v=108
215880 On ch=2 n=g4 v=0
216000 On ch=2 n=d3 v=108
216000 On ch=2 n=d3 v=108
216400 On ch=2 n=d3 v=0
216480 On ch=2 n=d4 v=108
216480 On ch=2 n=f#4 v=108
216840 On ch=2 n=d3 v=0
216960 On ch=2 n=a#2 v=108
216960 On ch=2 n=a#3 v=108
217360 On ch=2 n=d4 v=0
217800 On ch=2 n=a#3 v=0
217800 On ch=2 n=a#2 v=0
217920 On ch=2 n=a2 v=108
217920 On ch=2 n=a3 v=108
217920 On ch=2 n=a3 v=108
218320 On ch=2 n=a3 v=0
218400 On ch=2 n=a4 v=108
218400 On ch=2 n=c5 v=108
218400 On ch=2 n=f#5 v=108
218760 On ch=2 n=a3 v=0
218760 On ch=2 n=a2 v=0
218800 On ch=2 n=f#5 v=0
218800 On ch=2 n=c5 v=0
218800 On ch=2 n=a4 v=0
218880 On ch=2 n=g2 v=108
218880 On ch=2 n=g3 v=108
218880 On ch=2 n=g3 v=108
219720 On ch=2 n=g3 v=0
219840 On ch=2 n=d4 v=108
219900 On ch=2 n=g4 v=108
219960 On ch=2 n=a#4 v=108
220020 On ch=2 n=d5 v=108
220080 On ch=2 n=g5 v=108
222600 On ch=2 n=g5 v=0
222600 On ch=2 n=d5 v=0
222600 On ch=2 n=a#4 v=0
222600 On ch=2 n=g4 v=0
222600 On ch=2 n=d4 v=0
222600 On ch=2 n=g3 v=0
222600 On ch=2 n=g2 v=0
222600 On ch=2 n=f#4 v=0
222600 On ch=2 n=e5 v=0
222600 On ch=2 n=e4 v=0
222600 Meta TrkEnd
TrkEnd
