MFile 1 3 480
MTrk
0 Tempo 428571
0 TimeSig 2/4 24 8
19200 TimeSig 6/8 24 8
89047 Tempo 431654
89055 Tempo 434782
89062 Tempo 437956
89070 Tempo 441176
89080 Tempo 444444
89087 Tempo 447761
89095 Tempo 451127
89102 Tempo 454545
89110 Tempo 458015
89120 Tempo 461538
89127 Tempo 465116
89135 Tempo 468750
89142 Tempo 472440
89150 Tempo 476190
89160 Tempo 480000
89167 Tempo 483870
89175 Tempo 487804
89182 Tempo 491803
89190 Tempo 495867
89200 Tempo 500000
89207 Tempo 504201
89215 Tempo 508474
89222 Tempo 512820
89230 Tempo 517241
89240 Tempo 521739
89247 Tempo 526315
89255 Tempo 530973
89262 Tempo 535714
89270 Tempo 540540
89280 Tempo 545454
89287 Tempo 550458
89295 Tempo 555555
89302 Tempo 560747
89310 Tempo 566037
89320 Tempo 571428
89327 Tempo 576923
89335 Tempo 582524
89342 Tempo 588235
89350 Tempo 594059
89360 Tempo 600000
89367 Tempo 606060
89375 Tempo 612244
89382 Tempo 618556
89390 Tempo 625000
89400 Tempo 631578
89407 Tempo 638297
89415 Tempo 645161
89422 Tempo 652173
89430 Tempo 659340
89440 Tempo 666666
89447 Tempo 674157
89455 Tempo 681818
89462 Tempo 689655
89470 Tempo 697674
89480 Tempo 705882
89487 Tempo 714285
89495 Tempo 722891
89502 Tempo 731707
89510 Tempo 740740
89520 Tempo 750000
89527 Tempo 759493
89535 Tempo 769230
89542 Tempo 779220
89550 Tempo 789473
89560 Tempo 800000
89567 Tempo 810810
89575 Tempo 821917
89582 Tempo 833333
89590 Tempo 845070
89600 Tempo 660534
89607 Tempo 672957
89615 Tempo 685744
89622 Tempo 698914
89630 Tempo 712482
89640 Tempo 923076
89647 Tempo 937500
89655 Tempo 952380
89662 Tempo 967741
89670 Tempo 983606
89680 Tempo 1000000
89687 Tempo 1016949
89695 Tempo 1034482
89702 Tempo 1052631
89710 Tempo 1071428
89720 Tempo 1090909
89727 Tempo 1111111
89735 Tempo 1132075
89742 Tempo 1153846
89750 Tempo 1176470
89760 Tempo 1200000
91200 Tempo 428571
91200 KeySig -1 major
91200 TimeSig 2/4 24 8
117120 TimeSig 3/8 24 8
128640 TimeSig 2/4 24 8
128640 Meta TrkEnd
TrkEnd
MTrk
0 SeqSpec 43 00 01 00
0 Meta TrkName "Right Hand"
0 Meta 0x21 00
0 PrCh ch=1 p=0
0 Par ch=1 c=7 v=127
0 Par ch=1 c=10 v=80
0 On ch=1 n=f6 v=75
0 On ch=1 n=f6 v=75
115 On ch=1 n=f6 v=0
120 On ch=1 n=d6 v=75
235 On ch=1 n=d6 v=0
240 On ch=1 n=b5 v=75
355 On ch=1 n=b5 v=0
360 On ch=1 n=g#5 v=75
400 On ch=1 n=f6 v=0
475 On ch=1 n=g#5 v=0
480 On ch=1 n=g5 v=75
480 On ch=1 n=a#5 v=75
480 On ch=1 n=e6 v=75
715 On ch=1 n=e6 v=0
715 On ch=1 n=a#5 v=0
715 On ch=1 n=g5 v=0
960 On ch=1 n=d6 v=75
960 On ch=1 n=d6 v=75
1075 On ch=1 n=d6 v=0
1080 On ch=1 n=b5 v=75
1195 On ch=1 n=b5 v=0
1200 On ch=1 n=g#5 v=75
1315 On ch=1 n=g#5 v=0
1320 On ch=1 n=f5 v=75
1360 On ch=1 n=d6 v=0
1435 On ch=1 n=f5 v=0
1440 On ch=1 n=c#5 v=75
1440 On ch=1 n=e5 v=75
1440 On ch=1 n=a5 v=75
1675 On ch=1 n=a5 v=0
1675 On ch=1 n=e5 v=0
1675 On ch=1 n=c#5 v=0
1920 On ch=1 n=f6 v=75
1920 On ch=1 n=f6 v=75
2035 On ch=1 n=f6 v=0
2040 On ch=1 n=d6 v=75
2155 On ch=1 n=d6 v=0
2160 On ch=1 n=b5 v=75
2275 On ch=1 n=b5 v=0
2280 On ch=1 n=g#5 v=75
2320 On ch=1 n=f6 v=0
2395 On ch=1 n=g#5 v=0
2400 On ch=1 n=g5 v=75
2400 On ch=1 n=a#5 v=75
2400 On ch=1 n=e6 v=75
2635 On ch=1 n=e6 v=0
2635 On ch=1 n=a#5 v=0
2635 On ch=1 n=g5 v=0
2880 On ch=1 n=d6 v=75
2880 On ch=1 n=d6 v=75
2995 On ch=1 n=d6 v=0
3000 On ch=1 n=b5 v=75
3115 On ch=1 n=b5 v=0
3120 On ch=1 n=g#5 v=75
3235 On ch=1 n=g#5 v=0
3240 On ch=1 n=f5 v=75
3280 On ch=1 n=d6 v=0
3355 On ch=1 n=f5 v=0
3360 On ch=1 n=c#5 v=75
3360 On ch=1 n=e5 v=75
3360 On ch=1 n=a5 v=75
3595 On ch=1 n=a5 v=0
3595 On ch=1 n=e5 v=0
3595 On ch=1 n=c#5 v=0
3840 On ch=1 n=a6 v=75
3840 On ch=1 n=a6 v=75
3955 On ch=1 n=a6 v=0
3960 On ch=1 n=d#6 v=75
4075 On ch=1 n=d#6 v=0
4080 On ch=1 n=c6 v=75
4195 On ch=1 n=c6 v=0
4200 On ch=1 n=a5 v=75
4240 On ch=1 n=a6 v=0
4315 On ch=1 n=a5 v=0
4320 On ch=1 n=g5 v=75
4320 On ch=1 n=b5 v=75
4320 On ch=1 n=d6 v=75
4555 On ch=1 n=d6 v=0
4555 On ch=1 n=b5 v=0
4555 On ch=1 n=g5 v=0
4800 On ch=1 n=g6 v=75
4800 On ch=1 n=g6 v=75
4915 On ch=1 n=g6 v=0
4920 On ch=1 n=c#6 v=75
5035 On ch=1 n=c#6 v=0
5040 On ch=1 n=a#5 v=75
5155 On ch=1 n=a#5 v=0
5160 On ch=1 n=g5 v=75
5200 On ch=1 n=g6 v=0
5275 On ch=1 n=g5 v=0
5280 On ch=1 n=f5 v=75
5280 On ch=1 n=a5 v=75
5280 On ch=1 n=c6 v=75
5515 On ch=1 n=c6 v=0
5515 On ch=1 n=a5 v=0
5515 On ch=1 n=f5 v=0
5760 On ch=1 n=f6 v=75
5880 On ch=1 n=c6 v=75
6000 On ch=1 n=a5 v=75
6120 On ch=1 n=f5 v=75
6595 On ch=1 n=f5 v=0
6595 On ch=1 n=a5 v=0
6595 On ch=1 n=c6 v=0
6595 On ch=1 n=f6 v=0
6600 On ch=1 n=b5 v=75
6715 On ch=1 n=b5 v=0
6720 On ch=1 n=e6 v=75
6720 On ch=1 n=e6 v=75
6835 On ch=1 n=e6 v=0
6840 On ch=1 n=b5 v=75
6955 On ch=1 n=b5 v=0
6960 On ch=1 n=g#5 v=75
7075 On ch=1 n=g#5 v=0
7075 On ch=1 n=e6 v=0
7080 On ch=1 n=a5 v=75
7195 On ch=1 n=a5 v=0
7200 On ch=1 n=d6 v=75
7200 On ch=1 n=d6 v=75
7315 On ch=1 n=d6 v=0
7320 On ch=1 n=a5 v=75
7435 On ch=1 n=a5 v=0
7440 On ch=1 n=f#5 v=75
7555 On ch=1 n=f#5 v=0
7555 On ch=1 n=d6 v=0
7560 On ch=1 n=g#5 v=75
7675 On ch=1 n=g#5 v=0
7680 On ch=1 n=d5 v=75
7680 On ch=1 n=e5 v=75
7680 On ch=1 n=a5 v=75
7680 On ch=1 n=d6 v=75
8035 On ch=1 n=d6 v=0
8035 On ch=1 n=a5 v=0
8035 On ch=1 n=e5 v=0
8035 On ch=1 n=d5 v=0
8040 On ch=1 n=b5 v=75
8275 On ch=1 n=b5 v=0
8280 On ch=1 n=c#6 v=75
8515 On ch=1 n=c#6 v=0
8520 On ch=1 n=e6 v=86
8755 On ch=1 n=e6 v=0
8760 On ch=1 n=g6 v=92
8995 On ch=1 n=g6 v=0
9000 On ch=1 n=a#6 v=84
9235 On ch=1 n=a#6 v=0
9240 On ch=1 n=a6 v=75
9475 On ch=1 n=a6 v=0
9480 On ch=1 n=e6 v=75
9595 On ch=1 n=e6 v=0
9720 On ch=1 n=f6 v=75
9720 On ch=1 n=f6 v=75
9835 On ch=1 n=f6 v=0
9840 On ch=1 n=b5 v=75
9955 On ch=1 n=b5 v=0
9960 On ch=1 n=g#5 v=75
10075 On ch=1 n=g#5 v=0
10075 On ch=1 n=f6 v=0
10080 On ch=1 n=g5 v=75
10080 On ch=1 n=a#5 v=75
10080 On ch=1 n=e6 v=75
10315 On ch=1 n=e6 v=0
10315 On ch=1 n=a#5 v=0
10315 On ch=1 n=g5 v=0
10680 On ch=1 n=d6 v=75
10680 On ch=1 n=d6 v=75
10795 On ch=1 n=d6 v=0
10800 On ch=1 n=g#5 v=75
10915 On ch=1 n=g#5 v=0
10920 On ch=1 n=f5 v=75
11035 On ch=1 n=f5 v=0
11035 On ch=1 n=d6 v=0
11040 On ch=1 n=c#5 v=75
11040 On ch=1 n=e5 v=75
11040 On ch=1 n=a5 v=75
11275 On ch=1 n=a5 v=0
11275 On ch=1 n=e5 v=0
11275 On ch=1 n=c#5 v=0
11640 On ch=1 n=f6 v=75
11640 On ch=1 n=f6 v=75
11755 On ch=1 n=f6 v=0
11760 On ch=1 n=b5 v=75
11875 On ch=1 n=b5 v=0
11880 On ch=1 n=g#5 v=75
11995 On ch=1 n=g#5 v=0
11995 On ch=1 n=f6 v=0
12000 On ch=1 n=g5 v=75
12000 On ch=1 n=a#5 v=75
12000 On ch=1 n=e6 v=75
12235 On ch=1 n=e6 v=0
12235 On ch=1 n=a#5 v=0
12235 On ch=1 n=g5 v=0
12600 On ch=1 n=d6 v=75
12600 On ch=1 n=d6 v=75
12715 On ch=1 n=d6 v=0
12720 On ch=1 n=g#5 v=75
12835 On ch=1 n=g#5 v=0
12840 On ch=1 n=f5 v=75
12955 On ch=1 n=f5 v=0
12955 On ch=1 n=d6 v=0
12960 On ch=1 n=c#5 v=75
12960 On ch=1 n=e5 v=75
12960 On ch=1 n=a5 v=75
13195 On ch=1 n=a5 v=0
13195 On ch=1 n=e5 v=0
13195 On ch=1 n=c#5 v=0
13560 On ch=1 n=a6 v=75
13560 On ch=1 n=a6 v=75
13675 On ch=1 n=a6 v=0
13680 On ch=1 n=c6 v=75
13795 On ch=1 n=c6 v=0
13800 On ch=1 n=a5 v=75
13915 On ch=1 n=a5 v=0
13915 On ch=1 n=a6 v=0
13920 On ch=1 n=g5 v=75
13920 On ch=1 n=b5 v=75
13920 On ch=1 n=d6 v=75
14155 On ch=1 n=d6 v=0
14155 On ch=1 n=b5 v=0
14155 On ch=1 n=g5 v=0
14520 On ch=1 n=g6 v=75
14520 On ch=1 n=g6 v=75
14635 On ch=1 n=g6 v=0
14640 On ch=1 n=a#5 v=75
14755 On ch=1 n=a#5 v=0
14760 On ch=1 n=g5 v=75
14875 On ch=1 n=g5 v=0
14875 On ch=1 n=g6 v=0
14880 On ch=1 n=f5 v=75
14880 On ch=1 n=a5 v=75
14880 On ch=1 n=c6 v=75
15115 On ch=1 n=c6 v=0
15115 On ch=1 n=a5 v=0
15115 On ch=1 n=f5 v=0
15480 On ch=1 n=f6 v=75
15480 On ch=1 n=f6 v=75
15595 On ch=1 n=f6 v=0
15600 On ch=1 n=a5 v=75
15715 On ch=1 n=a5 v=0
15715 On ch=1 n=f6 v=0
15720 On ch=1 n=b5 v=75
15720 On ch=1 n=b5 v=75
15835 On ch=1 n=b5 v=0
15835 On ch=1 n=b5 v=0
15960 On ch=1 n=f6 v=75
15960 On ch=1 n=f6 v=75
16075 On ch=1 n=f6 v=0
16080 On ch=1 n=a5 v=75
16195 On ch=1 n=a5 v=0
16195 On ch=1 n=f6 v=0
16200 On ch=1 n=b5 v=75
16200 On ch=1 n=b5 v=75
16315 On ch=1 n=b5 v=0
16315 On ch=1 n=b5 v=0
16440 On ch=1 n=e6 v=75
16440 On ch=1 n=e6 v=75
16555 On ch=1 n=e6 v=0
16560 On ch=1 n=g#5 v=75
16675 On ch=1 n=g#5 v=0
16675 On ch=1 n=e6 v=0
16680 On ch=1 n=a5 v=75
16680 On ch=1 n=a5 v=75
16795 On ch=1 n=a5 v=0
16795 On ch=1 n=a5 v=0
16920 On ch=1 n=d6 v=75
16920 On ch=1 n=d6 v=75
17035 On ch=1 n=d6 v=0
17040 On ch=1 n=f#5 v=75
17155 On ch=1 n=f#5 v=0
17155 On ch=1 n=d6 v=0
17160 On ch=1 n=g#5 v=75
17160 On ch=1 n=g#5 v=75
17275 On ch=1 n=g#5 v=0
17275 On ch=1 n=g#5 v=0
17400 On ch=1 n=d5 v=74
17400 On ch=1 n=e5 v=74
17400 On ch=1 n=a5 v=74
17400 On ch=1 n=d6 v=74
17635 On ch=1 n=d6 v=0
17635 On ch=1 n=a5 v=0
17635 On ch=1 n=e5 v=0
17635 On ch=1 n=d5 v=0
17640 On ch=1 n=b5 v=71
17875 On ch=1 n=b5 v=0
17880 On ch=1 n=c6 v=67
18115 On ch=1 n=c6 v=0
18120 On ch=1 n=a5 v=63
18355 On ch=1 n=a5 v=0
18360 On ch=1 n=f#5 v=59
18595 On ch=1 n=f#5 v=0
18600 On ch=1 n=d#5 v=55
18835 On ch=1 n=d#5 v=0
18840 On ch=1 n=g#4 v=51
18840 On ch=1 n=e5 v=51
19075 On ch=1 n=e5 v=0
19075 On ch=1 n=g#4 v=0
19080 On ch=1 n=a#4 v=47
19195 On ch=1 n=a#4 v=0
19440 On ch=1 n=c5 v=45
19840 On ch=1 n=c5 v=0
19920 On ch=1 n=b4 v=45
20320 On ch=1 n=b4 v=0
20640 On ch=1 n=d7 v=45
20875 On ch=1 n=d7 v=0
20880 On ch=1 n=b6 v=55
21115 On ch=1 n=b6 v=0
21120 On ch=1 n=f6 v=65
21355 On ch=1 n=f6 v=0
21360 On ch=1 n=d6 v=75
21595 On ch=1 n=d6 v=0
21600 On ch=1 n=b5 v=60
21835 On ch=1 n=b5 v=0
21840 On ch=1 n=d5 v=45
22315 On ch=1 n=d5 v=0
22320 On ch=1 n=e5 v=45
22720 On ch=1 n=e5 v=0
22800 On ch=1 n=d5 v=45
23200 On ch=1 n=d5 v=0
23520 On ch=1 n=f#7 v=45
23755 On ch=1 n=f#7 v=0
23760 On ch=1 n=d#7 v=55
23995 On ch=1 n=d#7 v=0
24000 On ch=1 n=a6 v=65
24235 On ch=1 n=a6 v=0
24240 On ch=1 n=f#6 v=75
24475 On ch=1 n=f#6 v=0
24480 On ch=1 n=d#6 v=70
24715 On ch=1 n=d#6 v=0
24720 On ch=1 n=f#5 v=65
25195 On ch=1 n=f#5 v=0
25200 On ch=1 n=a5 v=60
25600 On ch=1 n=a5 v=0
25680 On ch=1 n=g#5 v=60
26080 On ch=1 n=g#5 v=0
26400 On ch=1 n=b6 v=60
26635 On ch=1 n=b6 v=0
26640 On ch=1 n=g#6 v=60
26875 On ch=1 n=g#6 v=0
26880 On ch=1 n=d6 v=60
27115 On ch=1 n=d6 v=0
27120 On ch=1 n=c6 v=60
27355 On ch=1 n=c6 v=0
27360 On ch=1 n=a5 v=60
27595 On ch=1 n=a5 v=0
27600 On ch=1 n=c5 v=60
28075 On ch=1 n=c5 v=0
28080 On ch=1 n=e5 v=60
28480 On ch=1 n=e5 v=0
28560 On ch=1 n=d#5 v=60
28960 On ch=1 n=d#5 v=0
29280 On ch=1 n=f#6 v=57
29515 On ch=1 n=f#6 v=0
29520 On ch=1 n=d#6 v=56
29755 On ch=1 n=d#6 v=0
29760 On ch=1 n=a5 v=55
29995 On ch=1 n=a5 v=0
30000 On ch=1 n=g#5 v=54
30235 On ch=1 n=g#5 v=0
30240 On ch=1 n=e5 v=53
30475 On ch=1 n=e5 v=0
30480 On ch=1 n=d5 v=52
30715 On ch=1 n=d5 v=0
30960 On ch=1 n=c5 v=45
31360 On ch=1 n=c5 v=0
31440 On ch=1 n=b4 v=45
31840 On ch=1 n=b4 v=0
32160 On ch=1 n=d7 v=45
32395 On ch=1 n=d7 v=0
32400 On ch=1 n=b6 v=55
32635 On ch=1 n=b6 v=0
32640 On ch=1 n=f6 v=65
32875 On ch=1 n=f6 v=0
32880 On ch=1 n=d6 v=75
33115 On ch=1 n=d6 v=0
33120 On ch=1 n=b5 v=60
33355 On ch=1 n=b5 v=0
33360 On ch=1 n=d5 v=45
33835 On ch=1 n=d5 v=0
33840 On ch=1 n=e5 v=45
34240 On ch=1 n=e5 v=0
34320 On ch=1 n=d5 v=45
34720 On ch=1 n=d5 v=0
35040 On ch=1 n=f#7 v=45
35275 On ch=1 n=f#7 v=0
35280 On ch=1 n=d#7 v=55
35515 On ch=1 n=d#7 v=0
35520 On ch=1 n=a6 v=65
35755 On ch=1 n=a6 v=0
35760 On ch=1 n=f#6 v=75
35995 On ch=1 n=f#6 v=0
36000 On ch=1 n=d#6 v=70
36235 On ch=1 n=d#6 v=0
36240 On ch=1 n=f#5 v=65
36715 On ch=1 n=f#5 v=0
36720 On ch=1 n=a5 v=60
37120 On ch=1 n=a5 v=0
37200 On ch=1 n=g#5 v=60
37600 On ch=1 n=g#5 v=0
37920 On ch=1 n=b6 v=60
38155 On ch=1 n=b6 v=0
38160 On ch=1 n=g#6 v=60
38395 On ch=1 n=g#6 v=0
38400 On ch=1 n=d6 v=60
38635 On ch=1 n=d6 v=0
38640 On ch=1 n=c6 v=60
38875 On ch=1 n=c6 v=0
38880 On ch=1 n=a5 v=60
39115 On ch=1 n=a5 v=0
39120 On ch=1 n=c5 v=60
39595 On ch=1 n=c5 v=0
39600 On ch=1 n=e5 v=60
40000 On ch=1 n=e5 v=0
40080 On ch=1 n=d#5 v=60
40480 On ch=1 n=d#5 v=0
40800 On ch=1 n=f#6 v=57
41035 On ch=1 n=f#6 v=0
41040 On ch=1 n=d#6 v=56
41275 On ch=1 n=d#6 v=0
41280 On ch=1 n=a5 v=55
41515 On ch=1 n=a5 v=0
41520 On ch=1 n=g#5 v=54
41755 On ch=1 n=g#5 v=0
41760 On ch=1 n=e5 v=53
41995 On ch=1 n=e5 v=0
42000 On ch=1 n=d5 v=52
42235 On ch=1 n=d5 v=0
42480 On ch=1 n=c5 v=50
42480 On ch=1 n=a5 v=50
42480 On ch=1 n=c6 v=50
42880 On ch=1 n=c6 v=0
42880 On ch=1 n=a5 v=0
42880 On ch=1 n=c5 v=0
42960 On ch=1 n=b4 v=48
42960 On ch=1 n=g#5 v=48
42960 On ch=1 n=b5 v=48
43360 On ch=1 n=b5 v=0
43360 On ch=1 n=g#5 v=0
43360 On ch=1 n=b4 v=0
43440 On ch=1 n=e4 v=46
43680 On ch=1 n=d7 v=45
43915 On ch=1 n=d7 v=0
43915 On ch=1 n=e4 v=0
43920 On ch=1 n=b6 v=45
44155 On ch=1 n=b6 v=0
44160 On ch=1 n=g#6 v=45
44395 On ch=1 n=g#6 v=0
44400 On ch=1 n=d6 v=45
44635 On ch=1 n=d6 v=0
44640 On ch=1 n=b5 v=45
44875 On ch=1 n=b5 v=0
44880 On ch=1 n=d5 v=45
45115 On ch=1 n=d5 v=0
45360 On ch=1 n=d5 v=45
45360 On ch=1 n=b5 v=45
45360 On ch=1 n=d6 v=45
45760 On ch=1 n=d6 v=0
45760 On ch=1 n=b5 v=0
45760 On ch=1 n=d5 v=0
45840 On ch=1 n=c#5 v=45
45840 On ch=1 n=a#5 v=45
45840 On ch=1 n=c#6 v=45
46240 On ch=1 n=c#6 v=0
46240 On ch=1 n=a#5 v=0
46240 On ch=1 n=c#5 v=0
46560 On ch=1 n=e7 v=45
46795 On ch=1 n=e7 v=0
46800 On ch=1 n=c#7 v=47
47035 On ch=1 n=c#7 v=0
47040 On ch=1 n=a#6 v=49
47275 On ch=1 n=a#6 v=0
47280 On ch=1 n=e6 v=51
47515 On ch=1 n=e6 v=0
47520 On ch=1 n=c#6 v=53
47755 On ch=1 n=c#6 v=0
47760 On ch=1 n=e5 v=55
47995 On ch=1 n=e5 v=0
48240 On ch=1 n=g#4 v=59
48240 On ch=1 n=c#5 v=59
48240 On ch=1 n=e5 v=59
48240 On ch=1 n=g#5 v=59
48640 On ch=1 n=g#5 v=0
48640 On ch=1 n=e5 v=0
48640 On ch=1 n=c#5 v=0
48640 On ch=1 n=g#4 v=0
48720 On ch=1 n=g4 v=65
48720 On ch=1 n=c#5 v=65
48720 On ch=1 n=d#5 v=65
48720 On ch=1 n=g5 v=65
49120 On ch=1 n=g5 v=0
49120 On ch=1 n=d#5 v=0
49120 On ch=1 n=c#5 v=0
49120 On ch=1 n=g4 v=0
49440 On ch=1 n=g#6 v=74
49440 On ch=1 n=g#7 v=74
49675 On ch=1 n=g#7 v=0
49675 On ch=1 n=g#6 v=0
49680 On ch=1 n=d7 v=77
49915 On ch=1 n=d7 v=0
49920 On ch=1 n=b6 v=80
50155 On ch=1 n=b6 v=0
50160 On ch=1 n=g#6 v=83
50395 On ch=1 n=g#6 v=0
50400 On ch=1 n=d6 v=86
50635 On ch=1 n=d6 v=0
50640 On ch=1 n=b4 v=89
50640 On ch=1 n=d5 v=89
50640 On ch=1 n=g#5 v=89
50640 On ch=1 n=b5 v=89
51115 On ch=1 n=b5 v=0
51115 On ch=1 n=d5 v=0
51115 On ch=1 n=b4 v=0
51120 On ch=1 n=f6 v=92
51120 On ch=1 n=g#6 v=92
51120 On ch=1 n=f7 v=92
51520 On ch=1 n=f7 v=0
51520 On ch=1 n=g#6 v=0
51520 On ch=1 n=f6 v=0
51600 On ch=1 n=e6 v=92
51600 On ch=1 n=g#6 v=92
51600 On ch=1 n=b6 v=92
51600 On ch=1 n=e7 v=92
52000 On ch=1 n=e7 v=0
52000 On ch=1 n=b6 v=0
52000 On ch=1 n=g#6 v=0
52000 On ch=1 n=e6 v=0
52080 On ch=1 n=d#6 v=92
52080 On ch=1 n=g#6 v=92
52080 On ch=1 n=b6 v=92
52080 On ch=1 n=d#7 v=92
52555 On ch=1 n=b6 v=0
52560 On ch=1 n=e5 v=92
52560 On ch=1 n=d6 v=92
52560 On ch=1 n=e6 v=92
52795 On ch=1 n=e5 v=0
52800 On ch=1 n=g#5 v=92
52960 On ch=1 n=e6 v=0
52960 On ch=1 n=d6 v=0
53040 On ch=1 n=e5 v=81
53040 On ch=1 n=c6 v=81
53275 On ch=1 n=c6 v=0
53280 On ch=1 n=e6 v=69
53440 On ch=1 n=e5 v=0
53440 On ch=1 n=g#5 v=0
53515 On ch=1 n=e6 v=0
53520 On ch=1 n=g#5 v=57
53520 On ch=1 n=d6 v=57
53520 On ch=1 n=g#6 v=57
53755 On ch=1 n=d6 v=0
53755 On ch=1 n=g#5 v=0
53755 On ch=1 n=g#6 v=0
54000 On ch=1 n=c5 v=45
54400 On ch=1 n=c5 v=0
54480 On ch=1 n=b4 v=45
54880 On ch=1 n=b4 v=0
55200 On ch=1 n=c7 v=45
55435 On ch=1 n=c7 v=0
55440 On ch=1 n=a6 v=45
55675 On ch=1 n=a6 v=0
55680 On ch=1 n=e6 v=45
55915 On ch=1 n=e6 v=0
55920 On ch=1 n=c6 v=45
56155 On ch=1 n=c6 v=0
56160 On ch=1 n=a5 v=45
56395 On ch=1 n=a5 v=0
56400 On ch=1 n=d#5 v=45
56880 On ch=1 n=e5 v=45
57280 On ch=1 n=e5 v=0
57360 On ch=1 n=d5 v=49
57760 On ch=1 n=d5 v=0
58080 On ch=1 n=f7 v=55
58315 On ch=1 n=f7 v=0
58320 On ch=1 n=d7 v=57
58555 On ch=1 n=d7 v=0
58560 On ch=1 n=a6 v=59
58795 On ch=1 n=a6 v=0
58800 On ch=1 n=f6 v=61
59035 On ch=1 n=f6 v=0
59040 On ch=1 n=d6 v=63
59275 On ch=1 n=d6 v=0
59280 On ch=1 n=f5 v=65
59755 On ch=1 n=f5 v=0
59760 On ch=1 n=c6 v=69
60160 On ch=1 n=c6 v=0
60240 On ch=1 n=b5 v=73
60640 On ch=1 n=b5 v=0
60960 On ch=1 n=f7 v=79
61195 On ch=1 n=f7 v=0
61200 On ch=1 n=d7 v=81
61435 On ch=1 n=d7 v=0
61440 On ch=1 n=a6 v=83
61675 On ch=1 n=a6 v=0
61680 On ch=1 n=f6 v=86
61915 On ch=1 n=f6 v=0
61920 On ch=1 n=d6 v=89
62155 On ch=1 n=d6 v=0
62160 On ch=1 n=c6 v=92
62160 On ch=1 n=a6 v=92
62635 On ch=1 n=a6 v=0
62635 On ch=1 n=c6 v=0
62640 On ch=1 n=b5 v=85
62640 On ch=1 n=g#6 v=85
63040 On ch=1 n=b5 v=0
63040 On ch=1 n=g#6 v=0
63120 On ch=1 n=f5 v=69
63120 On ch=1 n=d6 v=69
63520 On ch=1 n=d6 v=0
63520 On ch=1 n=f5 v=0
63600 On ch=1 n=d5 v=53
63600 On ch=1 n=b5 v=53
63835 On ch=1 n=b5 v=0
63835 On ch=1 n=d5 v=0
63840 On ch=1 n=b4 v=45
63840 On ch=1 n=g#5 v=45
64480 On ch=1 n=b4 v=0
64480 On ch=1 n=g#5 v=0
64560 On ch=1 n=c5 v=45
64560 On ch=1 n=a5 v=45
64960 On ch=1 n=a5 v=0
64960 On ch=1 n=c5 v=0
65520 On ch=1 n=c5 v=45
65520 On ch=1 n=a5 v=45
65520 On ch=1 n=c6 v=45
65920 On ch=1 n=c6 v=0
65920 On ch=1 n=a5 v=0
65920 On ch=1 n=c5 v=0
66000 On ch=1 n=b4 v=45
66000 On ch=1 n=g#5 v=45
66000 On ch=1 n=b5 v=45
66400 On ch=1 n=b5 v=0
66400 On ch=1 n=b4 v=0
66400 On ch=1 n=g#5 v=0
66480 On ch=1 n=e4 v=45
66720 On ch=1 n=d7 v=45
66955 On ch=1 n=d7 v=0
66955 On ch=1 n=e4 v=0
66960 On ch=1 n=b6 v=45
67195 On ch=1 n=b6 v=0
67200 On ch=1 n=g#6 v=45
67435 On ch=1 n=g#6 v=0
67440 On ch=1 n=d6 v=45
67675 On ch=1 n=d6 v=0
67680 On ch=1 n=b5 v=45
67915 On ch=1 n=b5 v=0
67920 On ch=1 n=d5 v=45
68155 On ch=1 n=d5 v=0
68400 On ch=1 n=d5 v=45
68400 On ch=1 n=b5 v=45
68400 On ch=1 n=d6 v=45
68800 On ch=1 n=d6 v=0
68800 On ch=1 n=b5 v=0
68800 On ch=1 n=d5 v=0
68880 On ch=1 n=c#5 v=45
68880 On ch=1 n=a#5 v=45
68880 On ch=1 n=c#6 v=45
69280 On ch=1 n=c#6 v=0
69280 On ch=1 n=a#5 v=0
69280 On ch=1 n=c#5 v=0
69600 On ch=1 n=e7 v=45
69835 On ch=1 n=e7 v=0
69840 On ch=1 n=c#7 v=47
70075 On ch=1 n=c#7 v=0
70080 On ch=1 n=a#6 v=49
70315 On ch=1 n=a#6 v=0
70320 On ch=1 n=e6 v=51
70555 On ch=1 n=e6 v=0
70560 On ch=1 n=c#6 v=53
70795 On ch=1 n=c#6 v=0
70800 On ch=1 n=e5 v=55
71035 On ch=1 n=e5 v=0
71280 On ch=1 n=g#4 v=59
71280 On ch=1 n=c#5 v=59
71280 On ch=1 n=e5 v=59
71280 On ch=1 n=g#5 v=59
71680 On ch=1 n=e5 v=0
71680 On ch=1 n=c#5 v=0
71680 On ch=1 n=g#4 v=0
71680 On ch=1 n=g#5 v=0
71760 On ch=1 n=g4 v=65
71760 On ch=1 n=c#5 v=65
71760 On ch=1 n=d#5 v=65
71760 On ch=1 n=g5 v=65
72160 On ch=1 n=g5 v=0
72160 On ch=1 n=c#5 v=0
72160 On ch=1 n=g4 v=0
72160 On ch=1 n=d#5 v=0
72480 On ch=1 n=g#6 v=74
72480 On ch=1 n=g#7 v=74
72715 On ch=1 n=g#7 v=0
72715 On ch=1 n=g#6 v=0
72720 On ch=1 n=d7 v=77
72955 On ch=1 n=d7 v=0
72960 On ch=1 n=b6 v=80
73195 On ch=1 n=b6 v=0
73200 On ch=1 n=g#6 v=83
73435 On ch=1 n=g#6 v=0
73440 On ch=1 n=d6 v=86
73675 On ch=1 n=d6 v=0
73680 On ch=1 n=b4 v=89
73680 On ch=1 n=d5 v=89
73680 On ch=1 n=g#5 v=89
73680 On ch=1 n=b5 v=89
74155 On ch=1 n=b5 v=0
74155 On ch=1 n=d5 v=0
74155 On ch=1 n=b4 v=0
74160 On ch=1 n=f6 v=92
74160 On ch=1 n=g#6 v=92
74160 On ch=1 n=f7 v=92
74560 On ch=1 n=f7 v=0
74560 On ch=1 n=f6 v=0
74560 On ch=1 n=g#6 v=0
74640 On ch=1 n=e6 v=92
74640 On ch=1 n=g#6 v=92
74640 On ch=1 n=b6 v=92
74640 On ch=1 n=e7 v=92
75040 On ch=1 n=e7 v=0
75040 On ch=1 n=b6 v=0
75040 On ch=1 n=e6 v=0
75040 On ch=1 n=g#6 v=0
75120 On ch=1 n=d#6 v=92
75120 On ch=1 n=g#6 v=92
75120 On ch=1 n=b6 v=92
75120 On ch=1 n=d#7 v=92
75595 On ch=1 n=b6 v=0
75600 On ch=1 n=e5 v=92
75600 On ch=1 n=d6 v=92
75600 On ch=1 n=e6 v=92
75835 On ch=1 n=e5 v=0
75840 On ch=1 n=g#5 v=92
76000 On ch=1 n=e6 v=0
76000 On ch=1 n=d6 v=0
76080 On ch=1 n=e5 v=81
76080 On ch=1 n=c6 v=81
76315 On ch=1 n=c6 v=0
76320 On ch=1 n=e6 v=69
76480 On ch=1 n=e5 v=0
76480 On ch=1 n=g#5 v=0
76555 On ch=1 n=e6 v=0
76560 On ch=1 n=g#5 v=57
76560 On ch=1 n=d6 v=57
76560 On ch=1 n=g#6 v=57
76795 On ch=1 n=d6 v=0
76795 On ch=1 n=g#6 v=0
76795 On ch=1 n=g#5 v=0
77040 On ch=1 n=c5 v=45
77440 On ch=1 n=c5 v=0
77520 On ch=1 n=b4 v=45
77920 On ch=1 n=b4 v=0
78240 On ch=1 n=c7 v=45
78475 On ch=1 n=c7 v=0
78480 On ch=1 n=a6 v=45
78715 On ch=1 n=a6 v=0
78720 On ch=1 n=e6 v=45
78955 On ch=1 n=e6 v=0
78960 On ch=1 n=c6 v=45
79195 On ch=1 n=c6 v=0
79200 On ch=1 n=a5 v=45
79435 On ch=1 n=a5 v=0
79440 On ch=1 n=d#5 v=45
79920 On ch=1 n=e5 v=45
80320 On ch=1 n=e5 v=0
80400 On ch=1 n=d5 v=49
80800 On ch=1 n=d5 v=0
81120 On ch=1 n=f7 v=55
81355 On ch=1 n=f7 v=0
81360 On ch=1 n=d7 v=57
81595 On ch=1 n=d7 v=0
81600 On ch=1 n=a6 v=59
81835 On ch=1 n=a6 v=0
81840 On ch=1 n=f6 v=61
82075 On ch=1 n=f6 v=0
82080 On ch=1 n=d6 v=63
82315 On ch=1 n=d6 v=0
82320 On ch=1 n=f5 v=65
82795 On ch=1 n=f5 v=0
82800 On ch=1 n=c6 v=69
83200 On ch=1 n=c6 v=0
83280 On ch=1 n=b5 v=73
83680 On ch=1 n=b5 v=0
84000 On ch=1 n=f7 v=79
84235 On ch=1 n=f7 v=0
84240 On ch=1 n=d7 v=81
84475 On ch=1 n=d7 v=0
84480 On ch=1 n=a6 v=83
84715 On ch=1 n=a6 v=0
84720 On ch=1 n=f6 v=86
84955 On ch=1 n=f6 v=0
84960 On ch=1 n=d6 v=89
85195 On ch=1 n=d6 v=0
85200 On ch=1 n=c6 v=92
85200 On ch=1 n=a6 v=92
85680 On ch=1 n=b5 v=85
85680 On ch=1 n=g#6 v=85
86080 On ch=1 n=b5 v=0
86080 On ch=1 n=g#6 v=0
86160 On ch=1 n=g#5 v=69
86160 On ch=1 n=f6 v=69
86560 On ch=1 n=f6 v=0
86560 On ch=1 n=g#5 v=0
86640 On ch=1 n=f5 v=53
86640 On ch=1 n=d6 v=53
87115 On ch=1 n=d6 v=0
87115 On ch=1 n=f5 v=0
87120 On ch=1 n=d5 v=92
87120 On ch=1 n=b5 v=92
87520 On ch=1 n=b5 v=0
87520 On ch=1 n=d5 v=0
87600 On ch=1 n=b4 v=74
87600 On ch=1 n=g#5 v=74
88000 On ch=1 n=b4 v=0
88000 On ch=1 n=g#5 v=0
88080 On ch=1 n=d5 v=55
88080 On ch=1 n=f5 v=55
88315 On ch=1 n=f5 v=0
88315 On ch=1 n=d5 v=0
88560 On ch=1 n=c#5 v=45
88560 On ch=1 n=e5 v=45
88960 On ch=1 n=e5 v=0
88960 On ch=1 n=c#5 v=0
89040 On ch=1 n=b4 v=75
89040 On ch=1 n=d5 v=75
89440 On ch=1 n=d5 v=0
89440 On ch=1 n=b4 v=0
89520 On ch=1 n=e4 v=75
89520 On ch=1 n=c#5 v=75
91080 On ch=1 n=e4 v=0
92160 On ch=1 n=f5 v=45
92160 On ch=1 n=f5 v=63
92275 On ch=1 n=f5 v=0
92280 On ch=1 n=c#5 v=45
92395 On ch=1 n=c#5 v=0
92400 On ch=1 n=a4 v=45
92515 On ch=1 n=a4 v=0
92520 On ch=1 n=a#4 v=45
92560 On ch=1 n=f5 v=0
92635 On ch=1 n=a#4 v=0
92640 On ch=1 n=e5 v=45
92755 On ch=1 n=e5 v=0
92760 On ch=1 n=c#5 v=45
92875 On ch=1 n=c#5 v=0
92880 On ch=1 n=a4 v=45
92995 On ch=1 n=a4 v=0
93000 On ch=1 n=g4 v=45
93115 On ch=1 n=g4 v=0
94080 On ch=1 n=a5 v=45
94080 On ch=1 n=a5 v=63
94195 On ch=1 n=a5 v=0
94200 On ch=1 n=e5 v=45
94315 On ch=1 n=e5 v=0
94320 On ch=1 n=c5 v=45
94435 On ch=1 n=c5 v=0
94440 On ch=1 n=c#5 v=45
94480 On ch=1 n=a5 v=0
94555 On ch=1 n=c#5 v=0
94560 On ch=1 n=g5 v=45
94675 On ch=1 n=g5 v=0
94680 On ch=1 n=e5 v=45
94795 On ch=1 n=e5 v=0
94800 On ch=1 n=a4 v=45
94915 On ch=1 n=a4 v=0
94920 On ch=1 n=g4 v=45
95035 On ch=1 n=g4 v=0
96000 On ch=1 n=a#5 v=60
96000 On ch=1 n=a#5 v=84
96115 On ch=1 n=a#5 v=0
96120 On ch=1 n=e5 v=61
96235 On ch=1 n=e5 v=0
96240 On ch=1 n=c#5 v=63
96355 On ch=1 n=a#5 v=0
96355 On ch=1 n=c#5 v=0
96360 On ch=1 n=a5 v=65
96475 On ch=1 n=a5 v=0
96480 On ch=1 n=d5 v=67
96595 On ch=1 n=d5 v=0
96600 On ch=1 n=f5 v=69
96715 On ch=1 n=f5 v=0
96720 On ch=1 n=c6 v=71
96835 On ch=1 n=c6 v=0
96840 On ch=1 n=a#5 v=73
96955 On ch=1 n=a#5 v=0
96960 On ch=1 n=a#5 v=75
96960 On ch=1 n=a#5 v=105
97075 On ch=1 n=a#5 v=0
97080 On ch=1 n=g5 v=75
97195 On ch=1 n=g5 v=0
97200 On ch=1 n=e5 v=75
97315 On ch=1 n=e5 v=0
97315 On ch=1 n=a#5 v=0
97320 On ch=1 n=c#6 v=75
97435 On ch=1 n=c#6 v=0
97440 On ch=1 n=f5 v=75
97555 On ch=1 n=f5 v=0
97560 On ch=1 n=a5 v=75
97675 On ch=1 n=a5 v=0
97680 On ch=1 n=e6 v=75
97795 On ch=1 n=e6 v=0
97800 On ch=1 n=d6 v=75
97915 On ch=1 n=d6 v=0
97920 On ch=1 n=f6 v=75
97920 On ch=1 n=f6 v=105
98035 On ch=1 n=f6 v=0
98040 On ch=1 n=a#5 v=75
98155 On ch=1 n=a#5 v=0
98160 On ch=1 n=g5 v=75
98275 On ch=1 n=g5 v=0
98275 On ch=1 n=f6 v=0
98280 On ch=1 n=e6 v=75
98395 On ch=1 n=e6 v=0
98400 On ch=1 n=f6 v=75
98400 On ch=1 n=f6 v=105
98515 On ch=1 n=f6 v=0
98520 On ch=1 n=a#6 v=75
98635 On ch=1 n=a#6 v=0
98640 On ch=1 n=d7 v=75
98755 On ch=1 n=d7 v=0
98755 On ch=1 n=f6 v=0
98760 On ch=1 n=e6 v=75
98875 On ch=1 n=e6 v=0
98880 On ch=1 n=f6 v=75
98880 On ch=1 n=f6 v=105
98995 On ch=1 n=f6 v=0
99000 On ch=1 n=b5 v=75
99115 On ch=1 n=b5 v=0
99120 On ch=1 n=g#5 v=75
99235 On ch=1 n=f6 v=0
99235 On ch=1 n=g#5 v=0
99240 On ch=1 n=e6 v=75
99355 On ch=1 n=e6 v=0
99360 On ch=1 n=f6 v=75
99360 On ch=1 n=f6 v=105
99475 On ch=1 n=f6 v=0
99480 On ch=1 n=b6 v=75
99595 On ch=1 n=b6 v=0
99600 On ch=1 n=d7 v=75
99715 On ch=1 n=d7 v=0
99715 On ch=1 n=f6 v=0
99720 On ch=1 n=e6 v=75
99835 On ch=1 n=e6 v=0
99840 On ch=1 n=f6 v=75
99840 On ch=1 n=f6 v=105
99955 On ch=1 n=f6 v=0
99960 On ch=1 n=d6 v=75
100075 On ch=1 n=d6 v=0
100080 On ch=1 n=a5 v=75
100195 On ch=1 n=a5 v=0
100195 On ch=1 n=f6 v=0
100200 On ch=1 n=e6 v=75
100315 On ch=1 n=e6 v=0
100320 On ch=1 n=f6 v=76
100320 On ch=1 n=a6 v=76
100320 On ch=1 n=d7 v=76
100435 On ch=1 n=d7 v=0
100435 On ch=1 n=f6 v=0
100435 On ch=1 n=a6 v=0
100440 On ch=1 n=e6 v=77
100555 On ch=1 n=e6 v=0
100560 On ch=1 n=a5 v=78
100560 On ch=1 n=d6 v=78
100560 On ch=1 n=f6 v=78
100675 On ch=1 n=f6 v=0
100675 On ch=1 n=d6 v=0
100675 On ch=1 n=a5 v=0
100680 On ch=1 n=e6 v=79
100795 On ch=1 n=e6 v=0
100800 On ch=1 n=f6 v=80
100800 On ch=1 n=a#6 v=80
100800 On ch=1 n=d7 v=80
100915 On ch=1 n=d7 v=0
100915 On ch=1 n=a#6 v=0
100915 On ch=1 n=f6 v=0
100920 On ch=1 n=e6 v=81
101035 On ch=1 n=e6 v=0
101040 On ch=1 n=a#5 v=82
101040 On ch=1 n=d6 v=82
101040 On ch=1 n=f6 v=82
101155 On ch=1 n=f6 v=0
101155 On ch=1 n=d6 v=0
101155 On ch=1 n=a#5 v=0
101160 On ch=1 n=e6 v=83
101275 On ch=1 n=e6 v=0
101280 On ch=1 n=f6 v=84
101280 On ch=1 n=b6 v=84
101280 On ch=1 n=d7 v=84
101395 On ch=1 n=d7 v=0
101395 On ch=1 n=b6 v=0
101395 On ch=1 n=f6 v=0
101400 On ch=1 n=e6 v=86
101515 On ch=1 n=e6 v=0
101520 On ch=1 n=b5 v=88
101520 On ch=1 n=d6 v=88
101520 On ch=1 n=f6 v=88
101635 On ch=1 n=f6 v=0
101635 On ch=1 n=d6 v=0
101635 On ch=1 n=b5 v=0
101640 On ch=1 n=e6 v=90
101755 On ch=1 n=e6 v=0
101760 On ch=1 n=f6 v=127
101760 On ch=1 n=b6 v=127
101760 On ch=1 n=d7 v=127
101875 On ch=1 n=d7 v=0
101875 On ch=1 n=b6 v=0
101875 On ch=1 n=f6 v=0
101880 On ch=1 n=d6 v=92
101995 On ch=1 n=d6 v=0
102000 On ch=1 n=b5 v=92
102115 On ch=1 n=b5 v=0
102120 On ch=1 n=g#5 v=92
102235 On ch=1 n=g#5 v=0
102240 On ch=1 n=f5 v=127
102240 On ch=1 n=b5 v=127
102240 On ch=1 n=d6 v=127
102355 On ch=1 n=d6 v=0
102355 On ch=1 n=b5 v=0
102355 On ch=1 n=f5 v=0
102360 On ch=1 n=d5 v=92
102475 On ch=1 n=d5 v=0
102480 On ch=1 n=b4 v=92
102595 On ch=1 n=b4 v=0
102600 On ch=1 n=g#4 v=92
102715 On ch=1 n=g#4 v=0
103680 On ch=1 n=g4 v=127
103795 On ch=1 n=g4 v=0
103800 On ch=1 n=a#4 v=92
103915 On ch=1 n=a#4 v=0
103920 On ch=1 n=c#5 v=92
104035 On ch=1 n=c#5 v=0
104040 On ch=1 n=e5 v=92
104155 On ch=1 n=e5 v=0
104160 On ch=1 n=g5 v=127
104275 On ch=1 n=g5 v=0
104280 On ch=1 n=a#5 v=92
104395 On ch=1 n=a#5 v=0
104400 On ch=1 n=c#6 v=92
104515 On ch=1 n=c#6 v=0
104520 On ch=1 n=e6 v=92
104635 On ch=1 n=e6 v=0
104640 On ch=1 n=g6 v=127
104755 On ch=1 n=g6 v=0
104760 On ch=1 n=a#6 v=92
104875 On ch=1 n=a#6 v=0
104880 On ch=1 n=c#7 v=92
104995 On ch=1 n=c#7 v=0
105000 On ch=1 n=e7 v=92
105115 On ch=1 n=e7 v=0
105600 On ch=1 n=f6 v=75
105600 On ch=1 n=f6 v=75
105715 On ch=1 n=f6 v=0
105720 On ch=1 n=d6 v=75
105835 On ch=1 n=d6 v=0
105840 On ch=1 n=b5 v=75
105955 On ch=1 n=b5 v=0
105960 On ch=1 n=g#5 v=75
106000 On ch=1 n=f6 v=0
106075 On ch=1 n=g#5 v=0
106080 On ch=1 n=g5 v=75
106080 On ch=1 n=a#5 v=75
106080 On ch=1 n=e6 v=75
106315 On ch=1 n=e6 v=0
106315 On ch=1 n=a#5 v=0
106315 On ch=1 n=g5 v=0
106560 On ch=1 n=d6 v=75
106560 On ch=1 n=d6 v=75
106675 On ch=1 n=d6 v=0
106680 On ch=1 n=b5 v=75
106795 On ch=1 n=b5 v=0
106800 On ch=1 n=g#5 v=75
106915 On ch=1 n=g#5 v=0
106920 On ch=1 n=f5 v=75
106960 On ch=1 n=d6 v=0
107035 On ch=1 n=f5 v=0
107040 On ch=1 n=c#5 v=75
107040 On ch=1 n=e5 v=75
107040 On ch=1 n=a5 v=75
107275 On ch=1 n=a5 v=0
107275 On ch=1 n=e5 v=0
107275 On ch=1 n=c#5 v=0
107520 On ch=1 n=f6 v=75
107520 On ch=1 n=f6 v=75
107635 On ch=1 n=f6 v=0
107640 On ch=1 n=d6 v=75
107755 On ch=1 n=d6 v=0
107760 On ch=1 n=b5 v=75
107875 On ch=1 n=b5 v=0
107880 On ch=1 n=g#5 v=75
107920 On ch=1 n=f6 v=0
107995 On ch=1 n=g#5 v=0
108000 On ch=1 n=g5 v=75
108000 On ch=1 n=a#5 v=75
108000 On ch=1 n=e6 v=75
108235 On ch=1 n=e6 v=0
108235 On ch=1 n=a#5 v=0
108235 On ch=1 n=g5 v=0
108480 On ch=1 n=d6 v=75
108480 On ch=1 n=d6 v=75
108595 On ch=1 n=d6 v=0
108600 On ch=1 n=b5 v=75
108715 On ch=1 n=b5 v=0
108720 On ch=1 n=g#5 v=75
108835 On ch=1 n=g#5 v=0
108840 On ch=1 n=f5 v=75
108880 On ch=1 n=d6 v=0
108955 On ch=1 n=f5 v=0
108960 On ch=1 n=c#5 v=75
108960 On ch=1 n=e5 v=75
108960 On ch=1 n=a5 v=75
109195 On ch=1 n=a5 v=0
109195 On ch=1 n=e5 v=0
109195 On ch=1 n=c#5 v=0
109440 On ch=1 n=a6 v=75
109440 On ch=1 n=a6 v=75
109555 On ch=1 n=a6 v=0
109560 On ch=1 n=d#6 v=75
109675 On ch=1 n=d#6 v=0
109680 On ch=1 n=c6 v=75
109795 On ch=1 n=c6 v=0
109800 On ch=1 n=a5 v=75
109840 On ch=1 n=a6 v=0
109915 On ch=1 n=a5 v=0
109920 On ch=1 n=g5 v=75
109920 On ch=1 n=b5 v=75
109920 On ch=1 n=d6 v=75
110155 On ch=1 n=d6 v=0
110155 On ch=1 n=b5 v=0
110155 On ch=1 n=g5 v=0
110400 On ch=1 n=g6 v=75
110400 On ch=1 n=g6 v=75
110515 On ch=1 n=g6 v=0
110520 On ch=1 n=c#6 v=75
110635 On ch=1 n=c#6 v=0
110640 On ch=1 n=a#5 v=75
110755 On ch=1 n=a#5 v=0
110760 On ch=1 n=g5 v=75
110800 On ch=1 n=g6 v=0
110875 On ch=1 n=g5 v=0
110880 On ch=1 n=f5 v=75
110880 On ch=1 n=a5 v=75
110880 On ch=1 n=c6 v=75
111115 On ch=1 n=a5 v=0
111115 On ch=1 n=f5 v=0
111115 On ch=1 n=c6 v=0
111360 On ch=1 n=f6 v=75
111360 On ch=1 n=f6 v=75
111475 On ch=1 n=f6 v=0
111480 On ch=1 n=c6 v=75
111595 On ch=1 n=c6 v=0
111600 On ch=1 n=a5 v=75
111715 On ch=1 n=a5 v=0
111715 On ch=1 n=f6 v=0
111720 On ch=1 n=b5 v=75
111720 On ch=1 n=b5 v=75
111835 On ch=1 n=b5 v=0
111835 On ch=1 n=b5 v=0
111840 On ch=1 n=f6 v=75
111840 On ch=1 n=f6 v=75
111955 On ch=1 n=f6 v=0
111960 On ch=1 n=c6 v=75
112075 On ch=1 n=c6 v=0
112080 On ch=1 n=a5 v=75
112195 On ch=1 n=a5 v=0
112195 On ch=1 n=f6 v=0
112200 On ch=1 n=b5 v=75
112200 On ch=1 n=b5 v=75
112315 On ch=1 n=b5 v=0
112315 On ch=1 n=b5 v=0
112320 On ch=1 n=e6 v=75
112320 On ch=1 n=e6 v=75
112435 On ch=1 n=e6 v=0
112440 On ch=1 n=b5 v=75
112555 On ch=1 n=b5 v=0
112560 On ch=1 n=g#5 v=75
112675 On ch=1 n=e6 v=0
112675 On ch=1 n=g#5 v=0
112680 On ch=1 n=a5 v=75
112680 On ch=1 n=a5 v=75
112795 On ch=1 n=a5 v=0
112795 On ch=1 n=a5 v=0
112800 On ch=1 n=d6 v=75
112800 On ch=1 n=d6 v=75
112915 On ch=1 n=d6 v=0
112920 On ch=1 n=a5 v=75
113035 On ch=1 n=a5 v=0
113040 On ch=1 n=f#5 v=75
113155 On ch=1 n=f#5 v=0
113155 On ch=1 n=d6 v=0
113160 On ch=1 n=g#5 v=75
113160 On ch=1 n=g#5 v=75
113275 On ch=1 n=g#5 v=0
113275 On ch=1 n=g#5 v=0
113280 On ch=1 n=d5 v=75
113280 On ch=1 n=e5 v=75
113280 On ch=1 n=a5 v=75
113280 On ch=1 n=d6 v=75
113635 On ch=1 n=d6 v=0
113635 On ch=1 n=a5 v=0
113635 On ch=1 n=e5 v=0
113635 On ch=1 n=d5 v=0
113640 On ch=1 n=b5 v=75
113875 On ch=1 n=b5 v=0
113880 On ch=1 n=c#6 v=76
114115 On ch=1 n=c#6 v=0
114120 On ch=1 n=e6 v=77
114355 On ch=1 n=e6 v=0
114360 On ch=1 n=g6 v=77
114595 On ch=1 n=g6 v=0
114600 On ch=1 n=a#6 v=78
114835 On ch=1 n=a#6 v=0
114840 On ch=1 n=a6 v=79
115075 On ch=1 n=a6 v=0
115080 On ch=1 n=e6 v=80
115315 On ch=1 n=e6 v=0
115320 On ch=1 n=g6 v=80
115555 On ch=1 n=g6 v=0
115560 On ch=1 n=d6 v=81
115675 On ch=1 n=d6 v=0
115800 On ch=1 n=c5 v=81
115800 On ch=1 n=a5 v=81
115800 On ch=1 n=c6 v=81
116035 On ch=1 n=c5 v=0
116040 On ch=1 n=e5 v=83
116275 On ch=1 n=e5 v=0
116275 On ch=1 n=a5 v=0
116275 On ch=1 n=c6 v=0
116280 On ch=1 n=a#4 v=85
116280 On ch=1 n=g5 v=85
116280 On ch=1 n=a#5 v=85
116515 On ch=1 n=a#4 v=0
116520 On ch=1 n=d5 v=87
116635 On ch=1 n=d5 v=0
116635 On ch=1 n=a#5 v=0
116635 On ch=1 n=g5 v=0
116760 On ch=1 n=a4 v=89
116760 On ch=1 n=f5 v=89
116760 On ch=1 n=a5 v=89
116995 On ch=1 n=f5 v=0
117000 On ch=1 n=e5 v=91
117115 On ch=1 n=e5 v=0
117115 On ch=1 n=a5 v=0
117115 On ch=1 n=a4 v=0
117360 On ch=1 n=f6 v=75
117360 On ch=1 n=c#7 v=75
117360 On ch=1 n=f7 v=75
118075 On ch=1 n=f7 v=0
118075 On ch=1 n=f6 v=0
118080 On ch=1 n=e6 v=75
118080 On ch=1 n=e7 v=75
118480 On ch=1 n=e7 v=0
118480 On ch=1 n=e6 v=0
118800 On ch=1 n=f5 v=75
118800 On ch=1 n=g#5 v=75
118800 On ch=1 n=b5 v=75
118800 On ch=1 n=d6 v=75
118800 On ch=1 n=f6 v=75
119035 On ch=1 n=f6 v=0
119035 On ch=1 n=d6 v=0
119035 On ch=1 n=b5 v=0
119035 On ch=1 n=f5 v=0
119035 On ch=1 n=g#5 v=0
119040 On ch=1 n=g5 v=75
119040 On ch=1 n=a#5 v=75
119040 On ch=1 n=c#6 v=75
119040 On ch=1 n=e6 v=75
119275 On ch=1 n=e6 v=0
119275 On ch=1 n=c#6 v=0
119275 On ch=1 n=a#5 v=0
119275 On ch=1 n=g5 v=0
119520 On ch=1 n=f5 v=75
119520 On ch=1 n=g#5 v=75
119520 On ch=1 n=b5 v=75
119520 On ch=1 n=d6 v=75
119755 On ch=1 n=d6 v=0
119755 On ch=1 n=b5 v=0
119755 On ch=1 n=f5 v=0
119755 On ch=1 n=g#5 v=0
119760 On ch=1 n=a4 v=75
119760 On ch=1 n=c#5 v=75
119760 On ch=1 n=e5 v=75
119760 On ch=1 n=a5 v=75
119995 On ch=1 n=a5 v=0
119995 On ch=1 n=e5 v=0
119995 On ch=1 n=a4 v=0
119995 On ch=1 n=c#5 v=0
120240 On ch=1 n=f5 v=75
120240 On ch=1 n=g#5 v=75
120240 On ch=1 n=b5 v=75
120240 On ch=1 n=d6 v=75
120240 On ch=1 n=f6 v=75
120475 On ch=1 n=f6 v=0
120475 On ch=1 n=d6 v=0
120475 On ch=1 n=b5 v=0
120475 On ch=1 n=f5 v=0
120475 On ch=1 n=g#5 v=0
120480 On ch=1 n=g5 v=75
120480 On ch=1 n=a#5 v=75
120480 On ch=1 n=c#6 v=75
120480 On ch=1 n=e6 v=75
120715 On ch=1 n=e6 v=0
120715 On ch=1 n=c#6 v=0
120715 On ch=1 n=a#5 v=0
120715 On ch=1 n=g5 v=0
120960 On ch=1 n=f5 v=75
120960 On ch=1 n=g#5 v=75
120960 On ch=1 n=b5 v=75
120960 On ch=1 n=d6 v=75
121195 On ch=1 n=d6 v=0
121195 On ch=1 n=b5 v=0
121195 On ch=1 n=f5 v=0
121195 On ch=1 n=g#5 v=0
121200 On ch=1 n=a4 v=75
121200 On ch=1 n=c#5 v=75
121200 On ch=1 n=e5 v=75
121200 On ch=1 n=a5 v=75
121435 On ch=1 n=a5 v=0
121435 On ch=1 n=e5 v=0
121435 On ch=1 n=a4 v=0
121435 On ch=1 n=c#5 v=0
121680 On ch=1 n=a5 v=75
121680 On ch=1 n=c6 v=75
121680 On ch=1 n=d#6 v=75
121680 On ch=1 n=f#6 v=75
121680 On ch=1 n=a6 v=75
121915 On ch=1 n=f#6 v=0
121915 On ch=1 n=a5 v=0
121915 On ch=1 n=c6 v=0
121915 On ch=1 n=a6 v=0
121915 On ch=1 n=d#6 v=0
121920 On ch=1 n=g5 v=76
121920 On ch=1 n=b5 v=76
121920 On ch=1 n=d6 v=76
122155 On ch=1 n=d6 v=0
122155 On ch=1 n=b5 v=0
122155 On ch=1 n=g5 v=0
122400 On ch=1 n=b5 v=78
122400 On ch=1 n=d6 v=78
122400 On ch=1 n=f6 v=78
122400 On ch=1 n=g#6 v=78
122400 On ch=1 n=b6 v=78
122635 On ch=1 n=b6 v=0
122635 On ch=1 n=f6 v=0
122635 On ch=1 n=d6 v=0
122635 On ch=1 n=b5 v=0
122635 On ch=1 n=g#6 v=0
122640 On ch=1 n=a5 v=79
122640 On ch=1 n=c#6 v=79
122640 On ch=1 n=e6 v=79
122875 On ch=1 n=e6 v=0
122875 On ch=1 n=c#6 v=0
122875 On ch=1 n=a5 v=0
122880 On ch=1 n=c#6 v=80
122880 On ch=1 n=a#6 v=80
122880 On ch=1 n=c#7 v=80
123280 On ch=1 n=a#6 v=0
123280 On ch=1 n=c#6 v=0
123280 On ch=1 n=c#7 v=0
123360 On ch=1 n=c#6 v=82
123360 On ch=1 n=a6 v=82
123360 On ch=1 n=c#7 v=82
123595 On ch=1 n=a6 v=0
123600 On ch=1 n=g6 v=83
123835 On ch=1 n=g6 v=0
123835 On ch=1 n=c6 v=0
123840 On ch=1 n=c#6 v=84
123840 On ch=1 n=f6 v=84
123840 On ch=1 n=c#7 v=84
124075 On ch=1 n=f6 v=0
124080 On ch=1 n=e6 v=85
124240 On ch=1 n=c#7 v=0
124315 On ch=1 n=e6 v=0
124315 On ch=1 n=c#6 v=0
124320 On ch=1 n=c6 v=86
124320 On ch=1 n=d6 v=86
124320 On ch=1 n=c7 v=86
124320 On ch=1 n=d7 v=86
124720 On ch=1 n=d7 v=0
124720 On ch=1 n=c7 v=0
124720 On ch=1 n=d6 v=0
124720 On ch=1 n=c6 v=0
124800 On ch=1 n=d6 v=88
124800 On ch=1 n=a#6 v=88
124800 On ch=1 n=d7 v=88
125035 On ch=1 n=a#6 v=0
125040 On ch=1 n=a6 v=89
125275 On ch=1 n=d7 v=0
125275 On ch=1 n=d6 v=0
125275 On ch=1 n=a6 v=0
125280 On ch=1 n=d6 v=90
125280 On ch=1 n=g6 v=90
125280 On ch=1 n=d7 v=90
125515 On ch=1 n=g6 v=0
125520 On ch=1 n=f6 v=91
125755 On ch=1 n=f6 v=0
125755 On ch=1 n=d7 v=0
125755 On ch=1 n=d6 v=0
125760 On ch=1 n=d6 v=92
125760 On ch=1 n=e6 v=92
125760 On ch=1 n=d7 v=92
125760 On ch=1 n=e7 v=92
126160 On ch=1 n=e7 v=0
126160 On ch=1 n=d7 v=0
126160 On ch=1 n=e6 v=0
126160 On ch=1 n=d6 v=0
126240 On ch=1 n=e6 v=92
126240 On ch=1 n=c7 v=92
126240 On ch=1 n=e7 v=92
126475 On ch=1 n=c7 v=0
126480 On ch=1 n=a#6 v=93
126715 On ch=1 n=a#6 v=0
126715 On ch=1 n=e7 v=0
126715 On ch=1 n=e6 v=0
126720 On ch=1 n=e6 v=94
126720 On ch=1 n=a6 v=94
126720 On ch=1 n=e7 v=94
126955 On ch=1 n=a6 v=0
126960 On ch=1 n=g6 v=95
127195 On ch=1 n=g6 v=0
127195 On ch=1 n=e7 v=0
127195 On ch=1 n=e6 v=0
127200 On ch=1 n=e6 v=96
127200 On ch=1 n=c7 v=96
127200 On ch=1 n=e7 v=96
127435 On ch=1 n=c7 v=0
127440 On ch=1 n=a#6 v=98
127675 On ch=1 n=a#6 v=0
127675 On ch=1 n=e7 v=0
127675 On ch=1 n=e6 v=0
127680 On ch=1 n=e6 v=100
127680 On ch=1 n=a6 v=100
127680 On ch=1 n=e7 v=100
127915 On ch=1 n=a6 v=0
127920 On ch=1 n=g6 v=102
128155 On ch=1 n=g6 v=0
128155 On ch=1 n=e7 v=0
128155 On ch=1 n=e6 v=0
128160 On ch=1 n=e6 v=104
128160 On ch=1 n=c7 v=104
128160 On ch=1 n=e7 v=104
128395 On ch=1 n=c7 v=0
128400 On ch=1 n=a#6 v=106
128635 On ch=1 n=a#6 v=0
128635 On ch=1 n=e7 v=0
128635 On ch=1 n=e6 v=0
128640 On ch=1 n=f#6 v=108
128640 On ch=1 n=a6 v=108
128640 On ch=1 n=f#7 v=108
129480 On ch=1 n=f#7 v=0
129480 On ch=1 n=f#6 v=0
129480 On ch=1 n=a6 v=0
129600 On ch=1 n=d6 v=108
129600 On ch=1 n=a6 v=108
129600 On ch=1 n=d7 v=108
129835 On ch=1 n=d7 v=0
129835 On ch=1 n=d6 v=0
129835 On ch=1 n=a6 v=0
130080 On ch=1 n=d6 v=108
130080 On ch=1 n=a6 v=108
130080 On ch=1 n=d7 v=108
130315 On ch=1 n=d7 v=0
130315 On ch=1 n=a6 v=0
130315 On ch=1 n=d6 v=0
130315 On ch=1 n=a6 v=0
130315 On ch=1 n=c#7 v=0
130315 On ch=1 n=c#6 v=0
130315 On ch=1 n=c#7 v=0
130315 On ch=1 n=g#6 v=0
130315 On ch=1 n=d#6 v=0
130315 On ch=1 n=c#5 v=0
130315 On ch=1 n=g#5 v=0
130315 On ch=1 n=g#5 v=0
130315 On ch=1 n=d#6 v=0
130315 On ch=1 n=g#6 v=0
130315 On ch=1 n=d#5 v=0
130315 On ch=1 n=d#7 v=0
130315 On ch=1 n=d#5 v=0
130315 On ch=1 n=d#7 v=0
130315 Meta TrkEnd
TrkEnd
MTrk
0 SeqSpec 43 00 01 00
0 Meta TrkName "Left Hand"
0 Meta 0x21 00
0 PrCh ch=2 p=0
0 Par ch=2 c=7 v=127
0 Par ch=2 c=10 v=50
0 On ch=2 n=d3 v=75
235 On ch=2 n=d3 v=0
480 On ch=2 n=c#4 v=75
480 On ch=2 n=c#4 v=75
595 On ch=2 n=c#4 v=0
600 On ch=2 n=e4 v=75
715 On ch=2 n=e4 v=0
720 On ch=2 n=g4 v=75
835 On ch=2 n=g4 v=0
840 On ch=2 n=a#4 v=75
880 On ch=2 n=c#4 v=0
955 On ch=2 n=a#4 v=0
960 On ch=2 n=d4 v=75
960 On ch=2 n=f4 v=75
960 On ch=2 n=g#4 v=75
960 On ch=2 n=b4 v=75
1195 On ch=2 n=b4 v=0
1195 On ch=2 n=g#4 v=0
1195 On ch=2 n=f4 v=0
1195 On ch=2 n=d4 v=0
1440 On ch=2 n=a3 v=75
1440 On ch=2 n=a3 v=75
1555 On ch=2 n=a3 v=0
1560 On ch=2 n=c#4 v=75
1675 On ch=2 n=c#4 v=0
1680 On ch=2 n=e4 v=75
1795 On ch=2 n=e4 v=0
1800 On ch=2 n=a4 v=75
1840 On ch=2 n=a3 v=0
1915 On ch=2 n=a4 v=0
1920 On ch=2 n=d4 v=75
1920 On ch=2 n=g#4 v=75
1920 On ch=2 n=b4 v=75
2155 On ch=2 n=b4 v=0
2155 On ch=2 n=g#4 v=0
2155 On ch=2 n=d4 v=0
2400 On ch=2 n=c#4 v=75
2400 On ch=2 n=c#4 v=75
2515 On ch=2 n=c#4 v=0
2520 On ch=2 n=e4 v=75
2635 On ch=2 n=e4 v=0
2640 On ch=2 n=g4 v=75
2755 On ch=2 n=g4 v=0
2760 On ch=2 n=a#4 v=75
2800 On ch=2 n=c#4 v=0
2875 On ch=2 n=a#4 v=0
2880 On ch=2 n=d4 v=75
2880 On ch=2 n=f4 v=75
2880 On ch=2 n=g#4 v=75
2880 On ch=2 n=b4 v=75
3115 On ch=2 n=b4 v=0
3115 On ch=2 n=g#4 v=0
3115 On ch=2 n=f4 v=0
3115 On ch=2 n=d4 v=0
3360 On ch=2 n=a3 v=75
3360 On ch=2 n=a3 v=75
3475 On ch=2 n=a3 v=0
3480 On ch=2 n=c#4 v=75
3595 On ch=2 n=c#4 v=0
3600 On ch=2 n=e4 v=75
3715 On ch=2 n=e4 v=0
3720 On ch=2 n=a4 v=75
3760 On ch=2 n=a3 v=0
3835 On ch=2 n=a4 v=0
3840 On ch=2 n=f#4 v=75
3840 On ch=2 n=c5 v=75
3840 On ch=2 n=d#5 v=75
4075 On ch=2 n=d#5 v=0
4075 On ch=2 n=c5 v=0
4075 On ch=2 n=f#4 v=0
4320 On ch=2 n=g3 v=75
4320 On ch=2 n=g3 v=75
4435 On ch=2 n=g3 v=0
4440 On ch=2 n=b3 v=75
4555 On ch=2 n=b3 v=0
4560 On ch=2 n=d4 v=75
4675 On ch=2 n=d4 v=0
4680 On ch=2 n=g4 v=75
4720 On ch=2 n=g3 v=0
4795 On ch=2 n=g4 v=0
4800 On ch=2 n=e4 v=75
4800 On ch=2 n=a#4 v=75
4800 On ch=2 n=c#5 v=75
5035 On ch=2 n=c#5 v=0
5035 On ch=2 n=a#4 v=0
5035 On ch=2 n=e4 v=0
5280 On ch=2 n=f3 v=75
5280 On ch=2 n=f3 v=75
5395 On ch=2 n=f3 v=0
5400 On ch=2 n=a3 v=75
5515 On ch=2 n=a3 v=0
5520 On ch=2 n=c4 v=75
5635 On ch=2 n=c4 v=0
5640 On ch=2 n=f4 v=75
5680 On ch=2 n=f3 v=0
5755 On ch=2 n=f4 v=0
5760 On ch=2 n=d3 v=75
6115 On ch=2 n=d3 v=0
6120 On ch=2 n=d4 v=75
6235 On ch=2 n=d4 v=0
6240 On ch=2 n=f4 v=75
6355 On ch=2 n=f4 v=0
6360 On ch=2 n=a4 v=75
6475 On ch=2 n=a4 v=0
6480 On ch=2 n=c5 v=75
6595 On ch=2 n=c5 v=0
6600 On ch=2 n=b4 v=75
6715 On ch=2 n=b4 v=0
6720 On ch=2 n=c4 v=75
6720 On ch=2 n=c4 v=75
6835 On ch=2 n=c4 v=0
6840 On ch=2 n=g#4 v=75
6955 On ch=2 n=g#4 v=0
6960 On ch=2 n=b4 v=75
7075 On ch=2 n=b4 v=0
7080 On ch=2 n=a4 v=75
7120 On ch=2 n=c4 v=0
7195 On ch=2 n=a4 v=0
7200 On ch=2 n=b3 v=75
7200 On ch=2 n=b3 v=75
7315 On ch=2 n=b3 v=0
7320 On ch=2 n=f#4 v=75
7435 On ch=2 n=f#4 v=0
7440 On ch=2 n=a4 v=75
7555 On ch=2 n=a4 v=0
7560 On ch=2 n=g#4 v=75
7600 On ch=2 n=b3 v=0
7675 On ch=2 n=g#4 v=0
7680 On ch=2 n=a2 v=75
7680 On ch=2 n=a3 v=75
7915 On ch=2 n=a3 v=0
7915 On ch=2 n=a2 v=0
7920 On ch=2 n=b4 v=75
8155 On ch=2 n=b4 v=0
8160 On ch=2 n=c#5 v=75
8395 On ch=2 n=c#5 v=0
8400 On ch=2 n=e5 v=75
8635 On ch=2 n=e5 v=0
8640 On ch=2 n=g5 v=92
8875 On ch=2 n=g5 v=0
8880 On ch=2 n=a#5 v=92
9115 On ch=2 n=a#5 v=0
9120 On ch=2 n=a5 v=84
9355 On ch=2 n=a5 v=0
9360 On ch=2 n=e5 v=75
9595 On ch=2 n=e5 v=0
9600 On ch=2 n=d3 v=75
9835 On ch=2 n=d3 v=0
10200 On ch=2 n=c#4 v=75
10200 On ch=2 n=c#4 v=75
10315 On ch=2 n=c#4 v=0
10320 On ch=2 n=g4 v=75
10435 On ch=2 n=g4 v=0
10440 On ch=2 n=a#4 v=75
10555 On ch=2 n=a#4 v=0
10555 On ch=2 n=c#4 v=0
10560 On ch=2 n=d4 v=75
10560 On ch=2 n=f4 v=75
10560 On ch=2 n=g#4 v=75
10560 On ch=2 n=b4 v=75
10795 On ch=2 n=b4 v=0
10795 On ch=2 n=g#4 v=0
10795 On ch=2 n=f4 v=0
10795 On ch=2 n=d4 v=0
11160 On ch=2 n=a3 v=75
11160 On ch=2 n=a3 v=75
11275 On ch=2 n=a3 v=0
11280 On ch=2 n=e4 v=75
11395 On ch=2 n=e4 v=0
11400 On ch=2 n=a4 v=75
11515 On ch=2 n=a4 v=0
11515 On ch=2 n=a3 v=0
11520 On ch=2 n=d4 v=75
11520 On ch=2 n=g#4 v=75
11520 On ch=2 n=b4 v=75
11755 On ch=2 n=b4 v=0
11755 On ch=2 n=g#4 v=0
11755 On ch=2 n=d4 v=0
12120 On ch=2 n=c#4 v=75
12120 On ch=2 n=c#4 v=75
12235 On ch=2 n=c#4 v=0
12240 On ch=2 n=g4 v=75
12355 On ch=2 n=g4 v=0
12360 On ch=2 n=a#4 v=75
12475 On ch=2 n=a#4 v=0
12475 On ch=2 n=c#4 v=0
12480 On ch=2 n=d4 v=75
12480 On ch=2 n=f4 v=75
12480 On ch=2 n=g#4 v=75
12480 On ch=2 n=b4 v=75
12715 On ch=2 n=b4 v=0
12715 On ch=2 n=g#4 v=0
12715 On ch=2 n=f4 v=0
12715 On ch=2 n=d4 v=0
13080 On ch=2 n=a3 v=75
13080 On ch=2 n=a3 v=75
13195 On ch=2 n=a3 v=0
13200 On ch=2 n=e4 v=75
13315 On ch=2 n=e4 v=0
13320 On ch=2 n=a4 v=75
13435 On ch=2 n=a4 v=0
13435 On ch=2 n=a3 v=0
13440 On ch=2 n=f#4 v=75
13440 On ch=2 n=c5 v=75
13440 On ch=2 n=d#5 v=75
13675 On ch=2 n=d#5 v=0
13675 On ch=2 n=c5 v=0
13675 On ch=2 n=f#4 v=0
14040 On ch=2 n=g3 v=75
14040 On ch=2 n=g3 v=75
14155 On ch=2 n=g3 v=0
14160 On ch=2 n=d4 v=75
14275 On ch=2 n=d4 v=0
14280 On ch=2 n=g4 v=75
14395 On ch=2 n=g4 v=0
14395 On ch=2 n=g3 v=0
14400 On ch=2 n=e4 v=75
14400 On ch=2 n=a#4 v=75
14400 On ch=2 n=c#5 v=75
14635 On ch=2 n=c#5 v=0
14635 On ch=2 n=a#4 v=0
14635 On ch=2 n=e4 v=0
15000 On ch=2 n=f3 v=75
15000 On ch=2 n=f3 v=75
15115 On ch=2 n=f3 v=0
15120 On ch=2 n=c4 v=75
15235 On ch=2 n=c4 v=0
15240 On ch=2 n=f4 v=75
15355 On ch=2 n=f4 v=0
15355 On ch=2 n=f3 v=0
15360 On ch=2 n=d4 v=75
15360 On ch=2 n=d4 v=75
15475 On ch=2 n=d4 v=0
15480 On ch=2 n=a4 v=75
15595 On ch=2 n=a4 v=0
15600 On ch=2 n=c5 v=75
15715 On ch=2 n=c5 v=0
15720 On ch=2 n=b4 v=75
15760 On ch=2 n=d4 v=0
15835 On ch=2 n=b4 v=0
15840 On ch=2 n=d4 v=75
15840 On ch=2 n=d4 v=75
15955 On ch=2 n=d4 v=0
15960 On ch=2 n=a4 v=75
16075 On ch=2 n=a4 v=0
16080 On ch=2 n=c5 v=75
16195 On ch=2 n=c5 v=0
16200 On ch=2 n=b4 v=75
16240 On ch=2 n=d4 v=0
16315 On ch=2 n=b4 v=0
16320 On ch=2 n=c4 v=75
16320 On ch=2 n=c4 v=75
16435 On ch=2 n=c4 v=0
16440 On ch=2 n=g#4 v=75
16555 On ch=2 n=g#4 v=0
16560 On ch=2 n=b4 v=75
16675 On ch=2 n=b4 v=0
16680 On ch=2 n=a4 v=75
16720 On ch=2 n=c4 v=0
16795 On ch=2 n=a4 v=0
16800 On ch=2 n=b3 v=75
16800 On ch=2 n=b3 v=75
16915 On ch=2 n=b3 v=0
16920 On ch=2 n=f#4 v=75
17035 On ch=2 n=f#4 v=0
17040 On ch=2 n=a4 v=75
17155 On ch=2 n=a4 v=0
17160 On ch=2 n=g#4 v=75
17200 On ch=2 n=b3 v=0
17275 On ch=2 n=g#4 v=0
17280 On ch=2 n=a2 v=75
17280 On ch=2 n=a3 v=75
17515 On ch=2 n=a3 v=0
17515 On ch=2 n=a2 v=0
17520 On ch=2 n=b4 v=72
17755 On ch=2 n=b4 v=0
17760 On ch=2 n=c5 v=69
17995 On ch=2 n=c5 v=0
18000 On ch=2 n=a4 v=65
18235 On ch=2 n=a4 v=0
18240 On ch=2 n=f#4 v=61
18475 On ch=2 n=f#4 v=0
18480 On ch=2 n=d#4 v=57
18715 On ch=2 n=d#4 v=0
18720 On ch=2 n=e3 v=53
18720 On ch=2 n=e4 v=53
18955 On ch=2 n=e4 v=0
18960 On ch=2 n=b3 v=49
19120 On ch=2 n=e3 v=0
19195 On ch=2 n=b3 v=0
19200 On ch=2 n=a2 v=45
19435 On ch=2 n=a2 v=0
19440 On ch=2 n=e3 v=45
19675 On ch=2 n=e3 v=0
19680 On ch=2 n=a3 v=45
19915 On ch=2 n=a3 v=0
19920 On ch=2 n=c4 v=45
20155 On ch=2 n=c4 v=0
20160 On ch=2 n=e4 v=45
20395 On ch=2 n=e4 v=0
20400 On ch=2 n=a4 v=45
20875 On ch=2 n=a4 v=0
20880 On ch=2 n=g#4 v=55
21280 On ch=2 n=g#4 v=0
21360 On ch=2 n=f5 v=75
21760 On ch=2 n=f5 v=0
22080 On ch=2 n=c3 v=45
22315 On ch=2 n=c3 v=0
22320 On ch=2 n=a3 v=45
22555 On ch=2 n=a3 v=0
22560 On ch=2 n=c4 v=45
22795 On ch=2 n=c4 v=0
22800 On ch=2 n=e4 v=45
23035 On ch=2 n=e4 v=0
23040 On ch=2 n=a4 v=45
23275 On ch=2 n=a4 v=0
23280 On ch=2 n=c5 v=45
23755 On ch=2 n=c5 v=0
23760 On ch=2 n=b4 v=55
24160 On ch=2 n=b4 v=0
24240 On ch=2 n=a5 v=75
24640 On ch=2 n=a5 v=0
24960 On ch=2 n=e3 v=60
25195 On ch=2 n=e3 v=0
25200 On ch=2 n=b3 v=60
25435 On ch=2 n=b3 v=0
25440 On ch=2 n=e4 v=60
25675 On ch=2 n=e4 v=0
25680 On ch=2 n=f4 v=60
25915 On ch=2 n=f4 v=0
25920 On ch=2 n=b4 v=60
26155 On ch=2 n=b4 v=0
26160 On ch=2 n=d5 v=60
26635 On ch=2 n=d5 v=0
26640 On ch=2 n=f5 v=60
27040 On ch=2 n=f5 v=0
27120 On ch=2 n=e5 v=60
27520 On ch=2 n=e5 v=0
27840 On ch=2 n=a2 v=60
28075 On ch=2 n=a2 v=0
28080 On ch=2 n=f#3 v=60
28315 On ch=2 n=f#3 v=0
28320 On ch=2 n=a3 v=60
28555 On ch=2 n=a3 v=0
28560 On ch=2 n=c4 v=60
28795 On ch=2 n=c4 v=0
28800 On ch=2 n=f#4 v=59
29035 On ch=2 n=f#4 v=0
29040 On ch=2 n=a4 v=58
29515 On ch=2 n=a4 v=0
29520 On ch=2 n=c5 v=56
29920 On ch=2 n=c5 v=0
30000 On ch=2 n=b4 v=54
30400 On ch=2 n=b4 v=0
30480 On ch=2 n=e4 v=52
30715 On ch=2 n=e4 v=0
30720 On ch=2 n=a2 v=45
30955 On ch=2 n=a2 v=0
30960 On ch=2 n=e3 v=45
31195 On ch=2 n=e3 v=0
31200 On ch=2 n=a3 v=45
31435 On ch=2 n=a3 v=0
31440 On ch=2 n=c4 v=45
31675 On ch=2 n=c4 v=0
31680 On ch=2 n=e4 v=45
31915 On ch=2 n=e4 v=0
31920 On ch=2 n=a4 v=45
32395 On ch=2 n=a4 v=0
32400 On ch=2 n=g#4 v=55
32800 On ch=2 n=g#4 v=0
32880 On ch=2 n=f5 v=75
33280 On ch=2 n=f5 v=0
33600 On ch=2 n=c3 v=45
33835 On ch=2 n=c3 v=0
33840 On ch=2 n=a3 v=45
34075 On ch=2 n=a3 v=0
34080 On ch=2 n=c4 v=45
34315 On ch=2 n=c4 v=0
34320 On ch=2 n=e4 v=45
34555 On ch=2 n=e4 v=0
34560 On ch=2 n=a4 v=45
34795 On ch=2 n=a4 v=0
34800 On ch=2 n=c5 v=45
35275 On ch=2 n=c5 v=0
35280 On ch=2 n=b4 v=55
35680 On ch=2 n=b4 v=0
35760 On ch=2 n=a5 v=75
36160 On ch=2 n=a5 v=0
36480 On ch=2 n=e3 v=60
36715 On ch=2 n=e3 v=0
36720 On ch=2 n=b3 v=60
36955 On ch=2 n=b3 v=0
36960 On ch=2 n=e4 v=60
37195 On ch=2 n=e4 v=0
37200 On ch=2 n=f4 v=60
37435 On ch=2 n=f4 v=0
37440 On ch=2 n=b4 v=60
37675 On ch=2 n=b4 v=0
37680 On ch=2 n=d5 v=60
38155 On ch=2 n=d5 v=0
38160 On ch=2 n=f5 v=60
38560 On ch=2 n=f5 v=0
38640 On ch=2 n=e5 v=60
39040 On ch=2 n=e5 v=0
39360 On ch=2 n=a2 v=60
39595 On ch=2 n=a2 v=0
39600 On ch=2 n=f#3 v=60
39835 On ch=2 n=f#3 v=0
39840 On ch=2 n=a3 v=60
40075 On ch=2 n=a3 v=0
40080 On ch=2 n=c4 v=60
40315 On ch=2 n=c4 v=0
40320 On ch=2 n=f#4 v=59
40555 On ch=2 n=f#4 v=0
40560 On ch=2 n=a4 v=58
41035 On ch=2 n=a4 v=0
41040 On ch=2 n=c5 v=56
41440 On ch=2 n=c5 v=0
41520 On ch=2 n=b4 v=54
41920 On ch=2 n=b4 v=0
42000 On ch=2 n=e4 v=52
42235 On ch=2 n=e4 v=0
42240 On ch=2 n=e3 v=51
42475 On ch=2 n=e3 v=0
42480 On ch=2 n=a3 v=50
42715 On ch=2 n=a3 v=0
42720 On ch=2 n=c4 v=49
42955 On ch=2 n=c4 v=0
42960 On ch=2 n=e4 v=48
43195 On ch=2 n=e4 v=0
43200 On ch=2 n=g#4 v=47
43200 On ch=2 n=g#4 v=47
43435 On ch=2 n=g#4 v=0
43440 On ch=2 n=e5 v=46
43915 On ch=2 n=e5 v=0
43920 On ch=2 n=f4 v=45
43920 On ch=2 n=f5 v=45
44320 On ch=2 n=f5 v=0
44320 On ch=2 n=f4 v=0
44400 On ch=2 n=e4 v=45
44400 On ch=2 n=e5 v=45
44800 On ch=2 n=e5 v=0
44800 On ch=2 n=e4 v=0
44880 On ch=2 n=f4 v=45
44880 On ch=2 n=f5 v=45
45115 On ch=2 n=f5 v=0
45115 On ch=2 n=f4 v=0
45120 On ch=2 n=f#3 v=45
45355 On ch=2 n=f#3 v=0
45360 On ch=2 n=b3 v=45
45595 On ch=2 n=b3 v=0
45600 On ch=2 n=d4 v=45
45835 On ch=2 n=d4 v=0
45840 On ch=2 n=f#4 v=45
46075 On ch=2 n=f#4 v=0
46080 On ch=2 n=a#4 v=45
46080 On ch=2 n=a#4 v=45
46315 On ch=2 n=a#4 v=0
46320 On ch=2 n=f#4 v=45
46320 On ch=2 n=f#5 v=45
46555 On ch=2 n=f#4 v=0
46795 On ch=2 n=f#5 v=0
46800 On ch=2 n=g4 v=47
46800 On ch=2 n=g5 v=47
47200 On ch=2 n=g5 v=0
47200 On ch=2 n=g4 v=0
47280 On ch=2 n=f#4 v=52
47280 On ch=2 n=f#5 v=52
47680 On ch=2 n=f#5 v=0
47680 On ch=2 n=f#4 v=0
47760 On ch=2 n=g4 v=57
47760 On ch=2 n=g5 v=57
47995 On ch=2 n=g5 v=0
47995 On ch=2 n=g4 v=0
48000 On ch=2 n=e2 v=59
48235 On ch=2 n=e2 v=0
48240 On ch=2 n=e3 v=61
48475 On ch=2 n=e3 v=0
48480 On ch=2 n=g#3 v=63
48715 On ch=2 n=g#3 v=0
48720 On ch=2 n=c#4 v=65
48955 On ch=2 n=c#4 v=0
48960 On ch=2 n=e4 v=68
49195 On ch=2 n=e4 v=0
49200 On ch=2 n=g#4 v=71
49200 On ch=2 n=c#5 v=71
49200 On ch=2 n=e5 v=71
49200 On ch=2 n=g#5 v=71
49675 On ch=2 n=e5 v=0
49680 On ch=2 n=b4 v=77
49680 On ch=2 n=d5 v=77
49680 On ch=2 n=g#5 v=77
49680 On ch=2 n=b5 v=77
50080 On ch=2 n=b5 v=0
50080 On ch=2 n=d5 v=0
50080 On ch=2 n=b4 v=0
50080 On ch=2 n=g#5 v=0
50160 On ch=2 n=a#4 v=83
50160 On ch=2 n=d5 v=83
50160 On ch=2 n=g#5 v=83
50160 On ch=2 n=a#5 v=83
50560 On ch=2 n=a#5 v=0
50560 On ch=2 n=d5 v=0
50560 On ch=2 n=g#5 v=0
50560 On ch=2 n=a#4 v=0
50880 On ch=2 n=d2 v=92
51115 On ch=2 n=d2 v=0
51120 On ch=2 n=d3 v=92
51355 On ch=2 n=d3 v=0
51360 On ch=2 n=g#3 v=92
51595 On ch=2 n=g#3 v=0
51600 On ch=2 n=b3 v=92
51835 On ch=2 n=b3 v=0
51840 On ch=2 n=d4 v=92
52075 On ch=2 n=d4 v=0
52080 On ch=2 n=g#4 v=92
52315 On ch=2 n=g#4 v=0
52320 On ch=2 n=b4 v=92
52555 On ch=2 n=b4 v=0
52560 On ch=2 n=e4 v=92
52560 On ch=2 n=d5 v=92
52960 On ch=2 n=d5 v=0
52960 On ch=2 n=e4 v=0
53040 On ch=2 n=e4 v=92
53040 On ch=2 n=c5 v=92
53440 On ch=2 n=c5 v=0
53440 On ch=2 n=e4 v=0
53520 On ch=2 n=e4 v=61
53520 On ch=2 n=b4 v=61
53755 On ch=2 n=b4 v=0
53755 On ch=2 n=e4 v=0
53760 On ch=2 n=a2 v=45
53995 On ch=2 n=a2 v=0
54000 On ch=2 n=e3 v=45
54235 On ch=2 n=e3 v=0
54240 On ch=2 n=a3 v=45
54475 On ch=2 n=a3 v=0
54480 On ch=2 n=d#4 v=45
54715 On ch=2 n=d#4 v=0
54720 On ch=2 n=f#4 v=45
54955 On ch=2 n=f#4 v=0
54960 On ch=2 n=a4 v=45
55435 On ch=2 n=a4 v=0
55440 On ch=2 n=f#4 v=45
55840 On ch=2 n=f#4 v=0
55920 On ch=2 n=e5 v=45
56320 On ch=2 n=e5 v=0
56640 On ch=2 n=c3 v=45
56875 On ch=2 n=c3 v=0
56880 On ch=2 n=a3 v=45
57115 On ch=2 n=a3 v=0
57120 On ch=2 n=c4 v=47
57355 On ch=2 n=c4 v=0
57360 On ch=2 n=e4 v=49
57595 On ch=2 n=e4 v=0
57600 On ch=2 n=a4 v=51
57835 On ch=2 n=a4 v=0
57840 On ch=2 n=c5 v=53
58315 On ch=2 n=c5 v=0
58320 On ch=2 n=b4 v=57
58720 On ch=2 n=b4 v=0
58800 On ch=2 n=a5 v=61
59200 On ch=2 n=a5 v=0
59520 On ch=2 n=d3 v=67
59755 On ch=2 n=d3 v=0
59760 On ch=2 n=a3 v=69
59995 On ch=2 n=a3 v=0
60000 On ch=2 n=d4 v=71
60235 On ch=2 n=d4 v=0
60240 On ch=2 n=f4 v=73
60475 On ch=2 n=f4 v=0
60480 On ch=2 n=a4 v=75
60715 On ch=2 n=a4 v=0
60720 On ch=2 n=f5 v=77
61195 On ch=2 n=f5 v=0
61200 On ch=2 n=c6 v=81
61600 On ch=2 n=c6 v=0
61680 On ch=2 n=b5 v=86
62080 On ch=2 n=b5 v=0
62400 On ch=2 n=e2 v=92
62635 On ch=2 n=e2 v=0
62640 On ch=2 n=e3 v=85
62875 On ch=2 n=e3 v=0
62880 On ch=2 n=g#3 v=77
63115 On ch=2 n=g#3 v=0
63120 On ch=2 n=b3 v=69
63355 On ch=2 n=b3 v=0
63360 On ch=2 n=d4 v=61
63595 On ch=2 n=d4 v=0
63600 On ch=2 n=f4 v=53
63835 On ch=2 n=f4 v=0
63840 On ch=2 n=a2 v=45
64075 On ch=2 n=a2 v=0
64080 On ch=2 n=a3 v=45
64080 On ch=2 n=a3 v=45
64315 On ch=2 n=a3 v=0
64320 On ch=2 n=e4 v=45
64480 On ch=2 n=a3 v=0
64560 On ch=2 n=a3 v=45
64795 On ch=2 n=e4 v=0
64800 On ch=2 n=d#4 v=45
65035 On ch=2 n=d#4 v=0
65040 On ch=2 n=f#4 v=45
65200 On ch=2 n=a3 v=0
65275 On ch=2 n=f#4 v=0
65280 On ch=2 n=e3 v=45
65515 On ch=2 n=e3 v=0
65520 On ch=2 n=a3 v=45
65755 On ch=2 n=a3 v=0
65760 On ch=2 n=c4 v=45
65995 On ch=2 n=c4 v=0
66000 On ch=2 n=e4 v=45
66235 On ch=2 n=e4 v=0
66240 On ch=2 n=g#4 v=45
66240 On ch=2 n=g#4 v=45
66475 On ch=2 n=g#4 v=0
66480 On ch=2 n=e5 v=45
66955 On ch=2 n=e5 v=0
66960 On ch=2 n=f4 v=45
66960 On ch=2 n=f5 v=45
67360 On ch=2 n=f5 v=0
67360 On ch=2 n=f4 v=0
67440 On ch=2 n=e4 v=45
67440 On ch=2 n=e5 v=45
67840 On ch=2 n=e5 v=0
67840 On ch=2 n=e4 v=0
67920 On ch=2 n=f4 v=45
67920 On ch=2 n=f5 v=45
68155 On ch=2 n=f5 v=0
68155 On ch=2 n=f4 v=0
68160 On ch=2 n=f#3 v=45
68395 On ch=2 n=f#3 v=0
68400 On ch=2 n=b3 v=45
68635 On ch=2 n=b3 v=0
68640 On ch=2 n=d4 v=45
68875 On ch=2 n=d4 v=0
68880 On ch=2 n=f#4 v=45
69115 On ch=2 n=f#4 v=0
69120 On ch=2 n=a#4 v=45
69120 On ch=2 n=a#4 v=45
69355 On ch=2 n=a#4 v=0
69360 On ch=2 n=f#4 v=45
69360 On ch=2 n=f#5 v=45
69595 On ch=2 n=f#4 v=0
69835 On ch=2 n=f#5 v=0
69840 On ch=2 n=g4 v=47
69840 On ch=2 n=g5 v=47
70240 On ch=2 n=g5 v=0
70240 On ch=2 n=g4 v=0
70320 On ch=2 n=f#4 v=52
70320 On ch=2 n=f#5 v=52
70720 On ch=2 n=f#5 v=0
70720 On ch=2 n=f#4 v=0
70800 On ch=2 n=g4 v=57
70800 On ch=2 n=g5 v=57
71035 On ch=2 n=g5 v=0
71035 On ch=2 n=g4 v=0
71040 On ch=2 n=e2 v=59
71275 On ch=2 n=e2 v=0
71280 On ch=2 n=e3 v=61
71515 On ch=2 n=e3 v=0
71520 On ch=2 n=g#3 v=63
71755 On ch=2 n=g#3 v=0
71760 On ch=2 n=c#4 v=65
71995 On ch=2 n=c#4 v=0
72000 On ch=2 n=e4 v=68
72235 On ch=2 n=e4 v=0
72240 On ch=2 n=g#4 v=71
72240 On ch=2 n=c#5 v=71
72240 On ch=2 n=e5 v=71
72240 On ch=2 n=g#5 v=71
72715 On ch=2 n=e5 v=0
72720 On ch=2 n=b4 v=77
72720 On ch=2 n=d5 v=77
72720 On ch=2 n=g#5 v=77
72720 On ch=2 n=b5 v=77
73120 On ch=2 n=b5 v=0
73120 On ch=2 n=d5 v=0
73120 On ch=2 n=b4 v=0
73120 On ch=2 n=g#5 v=0
73200 On ch=2 n=a#4 v=83
73200 On ch=2 n=d5 v=83
73200 On ch=2 n=g#5 v=83
73200 On ch=2 n=a#5 v=83
73600 On ch=2 n=a#5 v=0
73600 On ch=2 n=d5 v=0
73600 On ch=2 n=g#5 v=0
73600 On ch=2 n=a#4 v=0
73920 On ch=2 n=d2 v=92
74155 On ch=2 n=d2 v=0
74160 On ch=2 n=d3 v=92
74395 On ch=2 n=d3 v=0
74400 On ch=2 n=g#3 v=92
74635 On ch=2 n=g#3 v=0
74640 On ch=2 n=b3 v=92
74875 On ch=2 n=b3 v=0
74880 On ch=2 n=d4 v=92
75115 On ch=2 n=d4 v=0
75120 On ch=2 n=g#4 v=92
75355 On ch=2 n=g#4 v=0
75360 On ch=2 n=b4 v=92
75595 On ch=2 n=b4 v=0
75600 On ch=2 n=e4 v=92
75600 On ch=2 n=d5 v=92
76000 On ch=2 n=d5 v=0
76000 On ch=2 n=e4 v=0
76080 On ch=2 n=e4 v=92
76080 On ch=2 n=c5 v=92
76480 On ch=2 n=c5 v=0
76480 On ch=2 n=e4 v=0
76560 On ch=2 n=e4 v=61
76560 On ch=2 n=b4 v=61
76795 On ch=2 n=b4 v=0
76795 On ch=2 n=e4 v=0
76800 On ch=2 n=a2 v=45
77035 On ch=2 n=a2 v=0
77040 On ch=2 n=e3 v=45
77275 On ch=2 n=e3 v=0
77280 On ch=2 n=a3 v=45
77515 On ch=2 n=a3 v=0
77520 On ch=2 n=d#4 v=45
77755 On ch=2 n=d#4 v=0
77760 On ch=2 n=f#4 v=45
77995 On ch=2 n=f#4 v=0
78000 On ch=2 n=a4 v=45
78475 On ch=2 n=a4 v=0
78480 On ch=2 n=f#4 v=45
78880 On ch=2 n=f#4 v=0
78960 On ch=2 n=e5 v=45
79360 On ch=2 n=e5 v=0
79680 On ch=2 n=c3 v=45
79915 On ch=2 n=c3 v=0
79920 On ch=2 n=a3 v=45
80155 On ch=2 n=a3 v=0
80160 On ch=2 n=c4 v=47
80395 On ch=2 n=c4 v=0
80400 On ch=2 n=e4 v=49
80635 On ch=2 n=e4 v=0
80640 On ch=2 n=a4 v=51
80875 On ch=2 n=a4 v=0
80880 On ch=2 n=c5 v=53
81355 On ch=2 n=c5 v=0
81360 On ch=2 n=b4 v=57
81760 On ch=2 n=b4 v=0
81840 On ch=2 n=a5 v=61
82240 On ch=2 n=a5 v=0
82560 On ch=2 n=d3 v=67
82795 On ch=2 n=d3 v=0
82800 On ch=2 n=a3 v=69
83035 On ch=2 n=a3 v=0
83040 On ch=2 n=d4 v=71
83275 On ch=2 n=d4 v=0
83280 On ch=2 n=f4 v=73
83515 On ch=2 n=f4 v=0
83520 On ch=2 n=a4 v=75
83755 On ch=2 n=a4 v=0
83760 On ch=2 n=f5 v=77
84235 On ch=2 n=f5 v=0
84240 On ch=2 n=c6 v=81
84640 On ch=2 n=c6 v=0
84720 On ch=2 n=b5 v=86
85120 On ch=2 n=b5 v=0
85440 On ch=2 n=e2 v=92
85675 On ch=2 n=e2 v=0
85680 On ch=2 n=e3 v=85
85915 On ch=2 n=e3 v=0
85920 On ch=2 n=g#3 v=77
86155 On ch=2 n=g#3 v=0
86160 On ch=2 n=b3 v=69
86395 On ch=2 n=b3 v=0
86400 On ch=2 n=d4 v=61
86635 On ch=2 n=d4 v=0
86640 On ch=2 n=g#4 v=53
86875 On ch=2 n=g#4 v=0
86880 On ch=2 n=b4 v=92
87115 On ch=2 n=b4 v=0
87120 On ch=2 n=g#4 v=92
87355 On ch=2 n=g#4 v=0
87360 On ch=2 n=f4 v=83
87595 On ch=2 n=f4 v=0
87600 On ch=2 n=d4 v=74
87835 On ch=2 n=d4 v=0
87840 On ch=2 n=b3 v=65
88075 On ch=2 n=b3 v=0
88080 On ch=2 n=g#3 v=55
88315 On ch=2 n=g#3 v=0
88320 On ch=2 n=a2 v=45
88555 On ch=2 n=a2 v=0
88560 On ch=2 n=a3 v=45
88560 On ch=2 n=a3 v=45
88795 On ch=2 n=a3 v=0
88800 On ch=2 n=c#4 v=60
88960 On ch=2 n=a3 v=0
89035 On ch=2 n=c#4 v=0
89040 On ch=2 n=a3 v=75
89040 On ch=2 n=f4 v=75
89275 On ch=2 n=f4 v=0
89280 On ch=2 n=g#4 v=75
89515 On ch=2 n=g#4 v=0
89520 On ch=2 n=a4 v=75
91080 On ch=2 n=a4 v=0
91080 On ch=2 n=a3 v=0
91200 On ch=2 n=a#4 v=45
91315 On ch=2 n=a#4 v=0
91320 On ch=2 n=g4 v=45
91435 On ch=2 n=g4 v=0
91440 On ch=2 n=e4 v=45
91555 On ch=2 n=e4 v=0
91560 On ch=2 n=c#4 v=45
91675 On ch=2 n=c#4 v=0
91680 On ch=2 n=e4 v=45
91795 On ch=2 n=e4 v=0
91800 On ch=2 n=g4 v=45
91915 On ch=2 n=g4 v=0
91920 On ch=2 n=c5 v=45
92035 On ch=2 n=c5 v=0
92040 On ch=2 n=a#4 v=45
92155 On ch=2 n=a#4 v=0
93120 On ch=2 n=a#4 v=45
93235 On ch=2 n=a#4 v=0
93240 On ch=2 n=g4 v=45
93355 On ch=2 n=g4 v=0
93360 On ch=2 n=e4 v=45
93475 On ch=2 n=e4 v=0
93480 On ch=2 n=c#4 v=45
93595 On ch=2 n=c#4 v=0
93600 On ch=2 n=e4 v=45
93715 On ch=2 n=e4 v=0
93720 On ch=2 n=g4 v=45
93835 On ch=2 n=g4 v=0
93840 On ch=2 n=c5 v=45
93955 On ch=2 n=c5 v=0
93960 On ch=2 n=a#4 v=45
94075 On ch=2 n=a#4 v=0
95040 On ch=2 n=a#4 v=45
95155 On ch=2 n=a#4 v=0
95160 On ch=2 n=g4 v=46
95275 On ch=2 n=g4 v=0
95280 On ch=2 n=e4 v=47
95395 On ch=2 n=e4 v=0
95400 On ch=2 n=c#4 v=49
95515 On ch=2 n=c#4 v=0
95520 On ch=2 n=g4 v=51
95635 On ch=2 n=g4 v=0
95640 On ch=2 n=a#4 v=53
95755 On ch=2 n=a#4 v=0
95760 On ch=2 n=f5 v=55
95875 On ch=2 n=f5 v=0
95880 On ch=2 n=e5 v=57
95995 On ch=2 n=e5 v=0
102720 On ch=2 n=f4 v=127
102720 On ch=2 n=b4 v=127
102720 On ch=2 n=d5 v=127
102835 On ch=2 n=d5 v=0
102835 On ch=2 n=b4 v=0
102835 On ch=2 n=f4 v=0
102840 On ch=2 n=d4 v=92
102955 On ch=2 n=d4 v=0
102960 On ch=2 n=b3 v=92
103075 On ch=2 n=b3 v=0
103080 On ch=2 n=g#3 v=92
103195 On ch=2 n=g#3 v=0
103200 On ch=2 n=g2 v=127
103200 On ch=2 n=g3 v=127
103315 On ch=2 n=g3 v=0
103315 On ch=2 n=g2 v=0
103320 On ch=2 n=a#2 v=92
103320 On ch=2 n=a#3 v=92
103435 On ch=2 n=a#3 v=0
103435 On ch=2 n=a#2 v=0
103440 On ch=2 n=c#3 v=92
103440 On ch=2 n=c#4 v=92
103555 On ch=2 n=c#4 v=0
103555 On ch=2 n=c#3 v=0
103560 On ch=2 n=e3 v=92
103560 On ch=2 n=e4 v=92
103675 On ch=2 n=e4 v=0
103675 On ch=2 n=e3 v=0
103680 On ch=2 n=g3 v=127
103795 On ch=2 n=g3 v=0
103800 On ch=2 n=a#3 v=92
103915 On ch=2 n=a#3 v=0
103920 On ch=2 n=c#4 v=92
104035 On ch=2 n=c#4 v=0
104040 On ch=2 n=e4 v=92
104155 On ch=2 n=e4 v=0
104160 On ch=2 n=g4 v=127
104275 On ch=2 n=g4 v=0
104280 On ch=2 n=a#4 v=92
104395 On ch=2 n=a#4 v=0
104400 On ch=2 n=c#5 v=92
104515 On ch=2 n=c#5 v=0
104520 On ch=2 n=e5 v=92
104635 On ch=2 n=e5 v=0
104640 On ch=2 n=g5 v=127
104755 On ch=2 n=g5 v=0
104760 On ch=2 n=a#5 v=92
104875 On ch=2 n=a#5 v=0
104880 On ch=2 n=c#6 v=92
104995 On ch=2 n=c#6 v=0
105000 On ch=2 n=e6 v=92
105115 On ch=2 n=e6 v=0
105600 On ch=2 n=d2 v=75
105600 On ch=2 n=d3 v=75
105835 On ch=2 n=d3 v=0
105835 On ch=2 n=d2 v=0
106080 On ch=2 n=c#4 v=75
106080 On ch=2 n=c4 v=75
106195 On ch=2 n=c4 v=0
106200 On ch=2 n=e4 v=75
106315 On ch=2 n=e4 v=0
106320 On ch=2 n=g4 v=75
106435 On ch=2 n=g4 v=0
106440 On ch=2 n=a#4 v=75
106480 On ch=2 n=c#4 v=0
106555 On ch=2 n=a#4 v=0
106560 On ch=2 n=d4 v=75
106560 On ch=2 n=f4 v=75
106560 On ch=2 n=g#4 v=75
106560 On ch=2 n=b4 v=75
106795 On ch=2 n=b4 v=0
106795 On ch=2 n=f4 v=0
106795 On ch=2 n=d4 v=0
106795 On ch=2 n=g#4 v=0
107040 On ch=2 n=a3 v=75
107040 On ch=2 n=a3 v=75
107155 On ch=2 n=a3 v=0
107160 On ch=2 n=c#4 v=75
107275 On ch=2 n=c#4 v=0
107280 On ch=2 n=e4 v=75
107395 On ch=2 n=e4 v=0
107400 On ch=2 n=a4 v=75
107440 On ch=2 n=a3 v=0
107515 On ch=2 n=a4 v=0
107520 On ch=2 n=d4 v=75
107520 On ch=2 n=g#4 v=75
107520 On ch=2 n=b4 v=75
107755 On ch=2 n=b4 v=0
107755 On ch=2 n=d4 v=0
107755 On ch=2 n=g#4 v=0
108000 On ch=2 n=c#4 v=75
108000 On ch=2 n=c4 v=75
108115 On ch=2 n=c4 v=0
108120 On ch=2 n=e4 v=75
108235 On ch=2 n=e4 v=0
108240 On ch=2 n=g4 v=75
108355 On ch=2 n=g4 v=0
108360 On ch=2 n=a#4 v=75
108400 On ch=2 n=c#4 v=0
108475 On ch=2 n=a#4 v=0
108480 On ch=2 n=d4 v=75
108480 On ch=2 n=f4 v=75
108480 On ch=2 n=g#4 v=75
108480 On ch=2 n=b4 v=75
108715 On ch=2 n=b4 v=0
108715 On ch=2 n=f4 v=0
108715 On ch=2 n=d4 v=0
108715 On ch=2 n=g#4 v=0
108960 On ch=2 n=a3 v=75
108960 On ch=2 n=a3 v=75
109075 On ch=2 n=a3 v=0
109080 On ch=2 n=c#4 v=75
109195 On ch=2 n=c#4 v=0
109200 On ch=2 n=e4 v=75
109315 On ch=2 n=e4 v=0
109320 On ch=2 n=a4 v=75
109360 On ch=2 n=a3 v=0
109435 On ch=2 n=a4 v=0
109440 On ch=2 n=f#4 v=75
109440 On ch=2 n=c5 v=75
109440 On ch=2 n=d#5 v=75
109675 On ch=2 n=d#5 v=0
109675 On ch=2 n=c5 v=0
109675 On ch=2 n=f#4 v=0
109920 On ch=2 n=g3 v=75
109920 On ch=2 n=g3 v=75
110035 On ch=2 n=g3 v=0
110040 On ch=2 n=b3 v=75
110155 On ch=2 n=b3 v=0
110160 On ch=2 n=d4 v=75
110275 On ch=2 n=d4 v=0
110280 On ch=2 n=g4 v=75
110320 On ch=2 n=g3 v=0
110395 On ch=2 n=g4 v=0
110400 On ch=2 n=e4 v=75
110400 On ch=2 n=a#4 v=75
110400 On ch=2 n=c#5 v=75
110635 On ch=2 n=e4 v=0
110635 On ch=2 n=a#4 v=0
110635 On ch=2 n=c#5 v=0
110880 On ch=2 n=f3 v=75
110880 On ch=2 n=f3 v=75
110995 On ch=2 n=f3 v=0
111000 On ch=2 n=a3 v=75
111115 On ch=2 n=a3 v=0
111120 On ch=2 n=c4 v=75
111235 On ch=2 n=c4 v=0
111240 On ch=2 n=f4 v=75
111280 On ch=2 n=f3 v=0
111355 On ch=2 n=f4 v=0
111360 On ch=2 n=d4 v=75
111360 On ch=2 n=d4 v=75
111475 On ch=2 n=d4 v=0
111480 On ch=2 n=a4 v=75
111595 On ch=2 n=a4 v=0
111600 On ch=2 n=c5 v=75
111715 On ch=2 n=c5 v=0
111720 On ch=2 n=b4 v=75
111760 On ch=2 n=d4 v=0
111835 On ch=2 n=b4 v=0
111840 On ch=2 n=d4 v=75
111840 On ch=2 n=d4 v=75
111955 On ch=2 n=d4 v=0
111960 On ch=2 n=a4 v=75
112075 On ch=2 n=a4 v=0
112080 On ch=2 n=c5 v=75
112195 On ch=2 n=c5 v=0
112200 On ch=2 n=b4 v=75
112240 On ch=2 n=d4 v=0
112315 On ch=2 n=b4 v=0
112320 On ch=2 n=c4 v=75
112320 On ch=2 n=c4 v=75
112435 On ch=2 n=c4 v=0
112440 On ch=2 n=g#4 v=75
112555 On ch=2 n=g#4 v=0
112560 On ch=2 n=b4 v=75
112675 On ch=2 n=b4 v=0
112680 On ch=2 n=a4 v=75
112720 On ch=2 n=c4 v=0
112795 On ch=2 n=a4 v=0
112800 On ch=2 n=b3 v=75
112800 On ch=2 n=b3 v=75
112915 On ch=2 n=b3 v=0
112920 On ch=2 n=f#4 v=75
113035 On ch=2 n=f#4 v=0
113040 On ch=2 n=a4 v=75
113155 On ch=2 n=a4 v=0
113160 On ch=2 n=g#4 v=75
113200 On ch=2 n=b3 v=0
113275 On ch=2 n=g#4 v=0
113280 On ch=2 n=a2 v=75
113280 On ch=2 n=a3 v=75
113515 On ch=2 n=a3 v=0
113515 On ch=2 n=a2 v=0
113520 On ch=2 n=b4 v=75
113755 On ch=2 n=b4 v=0
113760 On ch=2 n=c#5 v=76
113995 On ch=2 n=c#5 v=0
114000 On ch=2 n=e5 v=77
114235 On ch=2 n=e5 v=0
114240 On ch=2 n=g5 v=78
114475 On ch=2 n=g5 v=0
114480 On ch=2 n=a#5 v=79
114715 On ch=2 n=a#5 v=0
114720 On ch=2 n=a4 v=80
114720 On ch=2 n=a5 v=80
114955 On ch=2 n=a5 v=0
114960 On ch=2 n=e5 v=81
115120 On ch=2 n=a4 v=0
115195 On ch=2 n=e5 v=0
115200 On ch=2 n=a#4 v=82
115200 On ch=2 n=g5 v=82
115435 On ch=2 n=g5 v=0
115440 On ch=2 n=d5 v=83
115600 On ch=2 n=a#4 v=0
115675 On ch=2 n=d5 v=0
115680 On ch=2 n=a3 v=84
115680 On ch=2 n=a4 v=84
115915 On ch=2 n=a4 v=0
115915 On ch=2 n=a3 v=0
115920 On ch=2 n=c4 v=85
115920 On ch=2 n=e4 v=85
116155 On ch=2 n=e4 v=0
116155 On ch=2 n=c4 v=0
116160 On ch=2 n=g3 v=86
116160 On ch=2 n=g4 v=86
116395 On ch=2 n=g4 v=0
116395 On ch=2 n=g3 v=0
116400 On ch=2 n=a#3 v=87
116400 On ch=2 n=d4 v=87
116635 On ch=2 n=d4 v=0
116635 On ch=2 n=a#3 v=0
116640 On ch=2 n=a3 v=88
116640 On ch=2 n=f4 v=88
116875 On ch=2 n=f4 v=0
116880 On ch=2 n=e4 v=90
117040 On ch=2 n=a3 v=0
117115 On ch=2 n=e4 v=0
117120 On ch=2 n=a2 v=75
117120 On ch=2 n=a3 v=75
117355 On ch=2 n=a3 v=0
117355 On ch=2 n=a2 v=0
117360 On ch=2 n=a4 v=75
117360 On ch=2 n=c#5 v=75
117360 On ch=2 n=f5 v=75
117360 On ch=2 n=a5 v=75
118075 On ch=2 n=f5 v=0
118080 On ch=2 n=e5 v=75
118480 On ch=2 n=e5 v=0
118480 On ch=2 n=a5 v=0
118480 On ch=2 n=a4 v=0
118560 On ch=2 n=d2 v=75
118560 On ch=2 n=d3 v=75
118960 On ch=2 n=d3 v=0
118960 On ch=2 n=d2 v=0
119040 On ch=2 n=d4 v=75
119040 On ch=2 n=g4 v=75
119040 On ch=2 n=a#4 v=75
119040 On ch=2 n=c#5 v=75
119275 On ch=2 n=g4 v=0
119275 On ch=2 n=d4 v=0
119275 On ch=2 n=c#5 v=0
119275 On ch=2 n=a#4 v=0
119280 On ch=2 n=d3 v=75
119680 On ch=2 n=d3 v=0
119760 On ch=2 n=a3 v=75
119820 On ch=2 n=c#4 v=75
119880 On ch=2 n=e4 v=75
119995 On ch=2 n=e4 v=0
119995 On ch=2 n=c#4 v=0
119995 On ch=2 n=a3 v=0
120000 On ch=2 n=d2 v=75
120000 On ch=2 n=d3 v=75
120400 On ch=2 n=d3 v=0
120400 On ch=2 n=d2 v=0
120480 On ch=2 n=d4 v=76
120480 On ch=2 n=g4 v=76
120480 On ch=2 n=a#4 v=76
120480 On ch=2 n=c#5 v=76
120715 On ch=2 n=g4 v=0
120715 On ch=2 n=d4 v=0
120715 On ch=2 n=a#4 v=0
120715 On ch=2 n=c#5 v=0
120720 On ch=2 n=d3 v=76
121120 On ch=2 n=d3 v=0
121200 On ch=2 n=a3 v=77
121260 On ch=2 n=c#4 v=77
121320 On ch=2 n=e4 v=77
121435 On ch=2 n=e4 v=0
121435 On ch=2 n=c#4 v=0
121435 On ch=2 n=a3 v=0
121440 On ch=2 n=d3 v=77
121840 On ch=2 n=d3 v=0
121920 On ch=2 n=g4 v=78
121920 On ch=2 n=b4 v=78
121920 On ch=2 n=d5 v=78
122155 On ch=2 n=d5 v=0
122155 On ch=2 n=b4 v=0
122155 On ch=2 n=g4 v=0
122160 On ch=2 n=d3 v=78
122560 On ch=2 n=d3 v=0
122640 On ch=2 n=a4 v=79
122640 On ch=2 n=c#5 v=79
122640 On ch=2 n=e5 v=79
122875 On ch=2 n=e5 v=0
122875 On ch=2 n=a4 v=0
122875 On ch=2 n=c#5 v=0
122880 On ch=2 n=d2 v=80
122880 On ch=2 n=d3 v=80
123280 On ch=2 n=d3 v=0
123280 On ch=2 n=d2 v=0
123360 On ch=2 n=c#5 v=82
123360 On ch=2 n=f5 v=82
123360 On ch=2 n=a5 v=82
123595 On ch=2 n=a5 v=0
123595 On ch=2 n=f5 v=0
123600 On ch=2 n=e5 v=83
123600 On ch=2 n=g5 v=83
123835 On ch=2 n=g5 v=0
123835 On ch=2 n=e5 v=0
123840 On ch=2 n=a4 v=84
123840 On ch=2 n=c#5 v=84
123840 On ch=2 n=f5 v=84
124075 On ch=2 n=f5 v=0
124075 On ch=2 n=a4 v=0
124080 On ch=2 n=g4 v=85
124080 On ch=2 n=e5 v=85
124315 On ch=2 n=e5 v=0
124315 On ch=2 n=g4 v=0
124315 On ch=2 n=c#5 v=0
124320 On ch=2 n=d2 v=86
124320 On ch=2 n=d3 v=86
124720 On ch=2 n=d3 v=0
124720 On ch=2 n=d2 v=0
124800 On ch=2 n=d5 v=88
124800 On ch=2 n=g5 v=88
124800 On ch=2 n=a#5 v=88
125035 On ch=2 n=a#5 v=0
125035 On ch=2 n=g5 v=0
125040 On ch=2 n=f5 v=89
125040 On ch=2 n=a5 v=89
125275 On ch=2 n=a5 v=0
125275 On ch=2 n=f5 v=0
125275 On ch=2 n=d5 v=0
125280 On ch=2 n=a#4 v=90
125280 On ch=2 n=d5 v=90
125280 On ch=2 n=g5 v=90
125515 On ch=2 n=g5 v=0
125515 On ch=2 n=a#4 v=0
125520 On ch=2 n=a4 v=91
125520 On ch=2 n=f5 v=91
125755 On ch=2 n=f5 v=0
125755 On ch=2 n=a4 v=0
125755 On ch=2 n=d5 v=0
125760 On ch=2 n=d2 v=92
125760 On ch=2 n=d3 v=92
126160 On ch=2 n=d3 v=0
126160 On ch=2 n=d2 v=0
126240 On ch=2 n=e5 v=92
126240 On ch=2 n=a5 v=92
126240 On ch=2 n=c6 v=92
126475 On ch=2 n=c6 v=0
126475 On ch=2 n=a5 v=0
126480 On ch=2 n=g5 v=93
126480 On ch=2 n=a#5 v=93
126715 On ch=2 n=a#5 v=0
126715 On ch=2 n=g5 v=0
126715 On ch=2 n=e5 v=0
126720 On ch=2 n=c5 v=94
126720 On ch=2 n=e5 v=94
126720 On ch=2 n=a5 v=94
126955 On ch=2 n=a5 v=0
126955 On ch=2 n=c5 v=0
126960 On ch=2 n=a#4 v=95
126960 On ch=2 n=g5 v=95
127195 On ch=2 n=g5 v=0
127195 On ch=2 n=e5 v=0
127195 On ch=2 n=a#4 v=0
127200 On ch=2 n=a4 v=96
127200 On ch=2 n=c5 v=96
127200 On ch=2 n=e5 v=96
127435 On ch=2 n=c5 v=0
127435 On ch=2 n=a4 v=0
127440 On ch=2 n=g4 v=98
127440 On ch=2 n=a#4 v=98
127600 On ch=2 n=e5 v=0
127675 On ch=2 n=g4 v=0
127675 On ch=2 n=a#4 v=0
127680 On ch=2 n=c4 v=100
127680 On ch=2 n=e4 v=100
127680 On ch=2 n=a4 v=100
127915 On ch=2 n=a4 v=0
127915 On ch=2 n=c4 v=0
127920 On ch=2 n=a#3 v=102
127920 On ch=2 n=g4 v=102
128155 On ch=2 n=g4 v=0
128155 On ch=2 n=a#3 v=0
128155 On ch=2 n=e4 v=0
128160 On ch=2 n=a3 v=104
128160 On ch=2 n=c4 v=104
128160 On ch=2 n=e4 v=104
128395 On ch=2 n=c4 v=0
128395 On ch=2 n=a3 v=0
128400 On ch=2 n=g3 v=106
128400 On ch=2 n=a#3 v=106
128560 On ch=2 n=e4 v=0
128635 On ch=2 n=a#3 v=0
128635 On ch=2 n=g3 v=0
128640 On ch=2 n=d3 v=108
128640 On ch=2 n=a3 v=108
128640 On ch=2 n=d4 v=108
129480 On ch=2 n=d4 v=0
129480 On ch=2 n=a3 v=0
129480 On ch=2 n=d3 v=0
129600 On ch=2 n=f#4 v=108
129660 On ch=2 n=a4 v=108
129720 On ch=2 n=d5 v=108
129780 On ch=2 n=f#5 v=108
129835 On ch=2 n=f#5 v=0
129835 On ch=2 n=d5 v=0
129835 On ch=2 n=a4 v=0
129835 On ch=2 n=f#4 v=0
130080 On ch=2 n=d3 v=108
130140 On ch=2 n=a3 v=108
130200 On ch=2 n=f#4 v=108
130315 On ch=2 n=f#4 v=0
130315 On ch=2 n=a3 v=0
130315 On ch=2 n=d3 v=0
130560 On ch=2 n=d2 v=108
130560 On ch=2 n=d3 v=108
130560 On ch=2 n=d4 v=108
130560 On ch=2 n=f#4 v=108
130560 On ch=2 n=a4 v=108
130560 On ch=2 n=d5 v=108
132360 On ch=2 n=d5 v=0
132360 On ch=2 n=a4 v=0
132360 On ch=2 n=f#4 v=0
132360 On ch=2 n=d4 v=0
132360 On ch=2 n=d3 v=0
132360 On ch=2 n=d2 v=0
132360 On ch=2 n=a#4 v=0
132360 On ch=2 n=a#4 v=0
132360 On ch=2 n=c#5 v=0
132360 On ch=2 n=c#5 v=0
132360 On ch=2 n=c#5 v=0
132360 On ch=2 n=c#5 v=0
132360 On ch=2 n=g#4 v=0
132360 On ch=2 n=g#4 v=0
132360 On ch=2 n=g#4 v=0
132360 On ch=2 n=g#4 v=0
132360 On ch=2 n=g#5 v=0
132360 On ch=2 n=g#5 v=0
132360 Meta TrkEnd
TrkEnd
