MFile 1 3 480
MTrk
0 Tempo 428571
0 KeySig -1 major
0 TimeSig 3/8 24 8
137087 Tempo 425531
137375 Tempo 422535
137662 Tempo 419580
137950 Tempo 416666
138237 Tempo 413793
138527 Tempo 410958
138815 Tempo 408163
139102 Tempo 405405
139390 Tempo 402684
139677 Tempo 400000
139967 Tempo 397350
140255 Tempo 394736
140542 Tempo 392156
140830 Tempo 389610
141117 Tempo 387096
141407 Tempo 384615
141695 Tempo 382165
141982 Tempo 379746
142270 Tempo 377358
142560 Tempo 375000
142560 Tempo 428571
142560 Tempo 375000
142775 Tempo 425531
142990 Tempo 422535
143207 Tempo 419580
143422 Tempo 416666
143640 Tempo 413793
143855 Tempo 410958
144070 Tempo 408163
144287 Tempo 405405
144502 Tempo 402684
144720 Tempo 400000
144935 Tempo 397350
145150 Tempo 394736
145367 Tempo 392156
145582 Tempo 389610
145800 Tempo 387096
146015 Tempo 384615
146230 Tempo 382165
146447 Tempo 379746
146662 Tempo 377358
146880 Tempo 375000
146880 Tempo 428571
146880 Meta TrkEnd
TrkEnd
MTrk
0 SeqSpec 43 00 01 00
0 Meta TrkName "Right Hand"
0 Meta 0x21 00
0 PrCh ch=1 p=0
0 Par ch=1 c=7 v=127
0 Par ch=1 c=10 v=80
0 Par ch=1 c=64 v=0
0 On ch=1 n=d5 v=92
42 On ch=1 n=d5 v=0
60 On ch=1 n=f5 v=92
102 On ch=1 n=f5 v=0
120 On ch=1 n=a5 v=92
162 On ch=1 n=a5 v=0
180 On ch=1 n=d6 v=92
222 On ch=1 n=d6 v=0
240 On ch=1 n=d6 v=92
480 On ch=1 n=d6 v=0
480 On ch=1 n=d6 v=92
720 On ch=1 n=d6 v=0
720 On ch=1 n=a#5 v=92
720 On ch=1 n=a#6 v=92
890 On ch=1 n=a#6 v=0
890 On ch=1 n=a#5 v=0
960 On ch=1 n=a#5 v=92
960 On ch=1 n=a#6 v=92
1130 On ch=1 n=a#6 v=0
1130 On ch=1 n=a#5 v=0
1200 On ch=1 n=a#5 v=92
1200 On ch=1 n=d6 v=92
1200 On ch=1 n=a#6 v=92
1440 On ch=1 n=a#6 v=0
1440 On ch=1 n=a#5 v=0
1440 On ch=1 n=g5 v=92
1440 On ch=1 n=g6 v=92
1520 On ch=1 n=g6 v=0
1520 On ch=1 n=g5 v=0
1520 On ch=1 n=d6 v=0
1680 On ch=1 n=g5 v=92
1680 On ch=1 n=g6 v=92
1760 On ch=1 n=g6 v=0
1760 On ch=1 n=g5 v=0
1920 On ch=1 n=g5 v=92
1920 On ch=1 n=a#5 v=92
1920 On ch=1 n=d6 v=92
1920 On ch=1 n=g6 v=92
2155 On ch=1 n=g6 v=0
2155 On ch=1 n=g5 v=0
2160 On ch=1 n=e5 v=92
2160 On ch=1 n=e6 v=92
2240 On ch=1 n=e6 v=0
2240 On ch=1 n=e5 v=0
2240 On ch=1 n=d6 v=0
2240 On ch=1 n=a#5 v=0
2400 On ch=1 n=e5 v=92
2400 On ch=1 n=e6 v=92
2480 On ch=1 n=e6 v=0
2480 On ch=1 n=e5 v=0
2640 On ch=1 n=f5 v=92
2640 On ch=1 n=c#6 v=92
2640 On ch=1 n=f6 v=92
2875 On ch=1 n=f6 v=0
2875 On ch=1 n=f5 v=0
2880 On ch=1 n=e5 v=92
2880 On ch=1 n=e6 v=92
3115 On ch=1 n=e6 v=0
3115 On ch=1 n=e5 v=0
3120 On ch=1 n=d5 v=92
3120 On ch=1 n=d6 v=92
3355 On ch=1 n=d6 v=0
3355 On ch=1 n=d5 v=0
3360 On ch=1 n=g5 v=92
3360 On ch=1 n=d6 v=92
3360 On ch=1 n=g6 v=92
3595 On ch=1 n=g6 v=0
3595 On ch=1 n=g5 v=0
3600 On ch=1 n=f5 v=92
3600 On ch=1 n=f6 v=92
3835 On ch=1 n=f6 v=0
3835 On ch=1 n=f5 v=0
3835 On ch=1 n=d6 v=0
3840 On ch=1 n=e5 v=92
3840 On ch=1 n=e6 v=92
4075 On ch=1 n=e6 v=0
4075 On ch=1 n=e5 v=0
4080 On ch=1 n=f5 v=92
4080 On ch=1 n=c#6 v=92
4080 On ch=1 n=f6 v=92
4315 On ch=1 n=f6 v=0
4315 On ch=1 n=f5 v=0
4320 On ch=1 n=e5 v=92
4320 On ch=1 n=e6 v=92
4555 On ch=1 n=e6 v=0
4555 On ch=1 n=e5 v=0
4560 On ch=1 n=d5 v=92
4560 On ch=1 n=d6 v=92
4795 On ch=1 n=d6 v=0
4795 On ch=1 n=d5 v=0
4800 On ch=1 n=e5 v=92
4800 On ch=1 n=c6 v=92
4800 On ch=1 n=e6 v=92
5035 On ch=1 n=e6 v=0
5035 On ch=1 n=c6 v=0
5035 On ch=1 n=e5 v=0
5040 On ch=1 n=d5 v=108
5040 On ch=1 n=a#5 v=108
5040 On ch=1 n=d6 v=108
5440 On ch=1 n=d6 v=0
5440 On ch=1 n=a#5 v=0
5440 On ch=1 n=d5 v=0
5520 On ch=1 n=a#4 v=92
5520 On ch=1 n=g5 v=92
5520 On ch=1 n=a#5 v=92
5755 On ch=1 n=a#5 v=0
5755 On ch=1 n=g5 v=0
5755 On ch=1 n=a#4 v=0
5760 On ch=1 n=a4 v=92
5760 On ch=1 n=f5 v=92
5760 On ch=1 n=a5 v=92
5995 On ch=1 n=a5 v=0
5995 On ch=1 n=f5 v=0
5995 On ch=1 n=a4 v=0
6240 On ch=1 n=d6 v=92
6240 On ch=1 n=f6 v=92
6240 On ch=1 n=d7 v=92
6880 On ch=1 n=d7 v=0
6880 On ch=1 n=f6 v=0
6880 On ch=1 n=d6 v=0
6960 On ch=1 n=a#5 v=92
6960 On ch=1 n=d6 v=92
6960 On ch=1 n=a#6 v=92
7600 On ch=1 n=a#6 v=0
7600 On ch=1 n=d6 v=0
7600 On ch=1 n=a#5 v=0
7680 On ch=1 n=g5 v=92
7680 On ch=1 n=a#5 v=92
7680 On ch=1 n=d6 v=92
7680 On ch=1 n=g6 v=92
8320 On ch=1 n=g6 v=0
8320 On ch=1 n=d6 v=0
8320 On ch=1 n=a#5 v=0
8320 On ch=1 n=g5 v=0
8400 On ch=1 n=f5 v=92
8400 On ch=1 n=c#6 v=92
8400 On ch=1 n=f6 v=92
8635 On ch=1 n=f6 v=0
8635 On ch=1 n=f5 v=0
8640 On ch=1 n=e5 v=92
8640 On ch=1 n=e6 v=92
8875 On ch=1 n=e6 v=0
8875 On ch=1 n=e5 v=0
8880 On ch=1 n=d5 v=92
8880 On ch=1 n=d6 v=92
9115 On ch=1 n=d6 v=0
9115 On ch=1 n=d5 v=0
9120 On ch=1 n=g5 v=92
9120 On ch=1 n=d6 v=92
9120 On ch=1 n=g6 v=92
9355 On ch=1 n=g6 v=0
9355 On ch=1 n=g5 v=0
9360 On ch=1 n=f5 v=92
9360 On ch=1 n=f6 v=92
9595 On ch=1 n=f6 v=0
9595 On ch=1 n=f5 v=0
9595 On ch=1 n=d6 v=0
9600 On ch=1 n=e5 v=92
9600 On ch=1 n=e6 v=92
9835 On ch=1 n=e6 v=0
9835 On ch=1 n=e5 v=0
9840 On ch=1 n=f5 v=92
9840 On ch=1 n=c#6 v=92
9840 On ch=1 n=f6 v=92
10075 On ch=1 n=f6 v=0
10075 On ch=1 n=f5 v=0
10080 On ch=1 n=e5 v=92
10080 On ch=1 n=e6 v=92
10315 On ch=1 n=e6 v=0
10315 On ch=1 n=e5 v=0
10320 On ch=1 n=d5 v=92
10320 On ch=1 n=d6 v=92
10555 On ch=1 n=d6 v=0
10555 On ch=1 n=d5 v=0
10560 On ch=1 n=e5 v=109
10560 On ch=1 n=c6 v=109
10560 On ch=1 n=e6 v=109
10795 On ch=1 n=e6 v=0
10795 On ch=1 n=c6 v=0
10795 On ch=1 n=e5 v=0
10800 On ch=1 n=d5 v=127
10800 On ch=1 n=a#5 v=127
10800 On ch=1 n=d6 v=127
11200 On ch=1 n=d6 v=0
11200 On ch=1 n=a#5 v=0
11200 On ch=1 n=d5 v=0
11280 On ch=1 n=a#4 v=127
11280 On ch=1 n=g5 v=127
11280 On ch=1 n=a#5 v=127
11515 On ch=1 n=a#5 v=0
11515 On ch=1 n=g5 v=0
11515 On ch=1 n=a#4 v=0
11520 On ch=1 n=a4 v=92
11520 On ch=1 n=f5 v=92
11520 On ch=1 n=a5 v=92
11755 On ch=1 n=a5 v=0
11755 On ch=1 n=f5 v=0
11755 On ch=1 n=a4 v=0
12000 On ch=1 n=e6 v=92
12000 On ch=1 n=c7 v=92
12000 On ch=1 n=e7 v=92
12235 On ch=1 n=e7 v=0
12235 On ch=1 n=c7 v=0
12235 On ch=1 n=e6 v=0
12240 On ch=1 n=d6 v=92
12240 On ch=1 n=a#6 v=92
12240 On ch=1 n=d7 v=92
12640 On ch=1 n=d7 v=0
12640 On ch=1 n=a#6 v=0
12640 On ch=1 n=d6 v=0
12720 On ch=1 n=a#5 v=92
12720 On ch=1 n=g6 v=92
12720 On ch=1 n=a#6 v=92
12955 On ch=1 n=a#6 v=0
12955 On ch=1 n=g6 v=0
12955 On ch=1 n=a#5 v=0
12960 On ch=1 n=a5 v=92
12960 On ch=1 n=f6 v=92
12960 On ch=1 n=a6 v=92
13195 On ch=1 n=a6 v=0
13195 On ch=1 n=f6 v=0
13195 On ch=1 n=a5 v=0
13440 On ch=1 n=g5 v=92
13440 On ch=1 n=e6 v=92
13440 On ch=1 n=g6 v=92
13675 On ch=1 n=g6 v=0
13675 On ch=1 n=e6 v=0
13675 On ch=1 n=g5 v=0
13680 On ch=1 n=f5 v=92
13680 On ch=1 n=d6 v=92
13680 On ch=1 n=f6 v=92
14080 On ch=1 n=f6 v=0
14080 On ch=1 n=d6 v=0
14080 On ch=1 n=f5 v=0
14160 On ch=1 n=f5 v=92
14160 On ch=1 n=g5 v=92
14160 On ch=1 n=a#5 v=92
14160 On ch=1 n=d6 v=92
14395 On ch=1 n=d6 v=0
14395 On ch=1 n=a#5 v=0
14395 On ch=1 n=g5 v=0
14395 On ch=1 n=f5 v=0
14640 On ch=1 n=c5 v=45
14640 On ch=1 n=e5 v=45
14640 On ch=1 n=a#5 v=45
14640 On ch=1 n=c6 v=45
15040 On ch=1 n=c6 v=0
15040 On ch=1 n=a#5 v=0
15040 On ch=1 n=e5 v=0
15040 On ch=1 n=c5 v=0
15120 On ch=1 n=c5 v=45
15120 On ch=1 n=f5 v=45
15120 On ch=1 n=a#5 v=45
15120 On ch=1 n=c6 v=45
15520 On ch=1 n=c6 v=0
15520 On ch=1 n=a#5 v=0
15520 On ch=1 n=f5 v=0
15520 On ch=1 n=c5 v=0
15600 On ch=1 n=c5 v=51
15600 On ch=1 n=f#5 v=51
15600 On ch=1 n=a#5 v=51
15600 On ch=1 n=c6 v=51
16075 On ch=1 n=c6 v=0
16075 On ch=1 n=a#5 v=0
16075 On ch=1 n=c5 v=0
16080 On ch=1 n=c5 v=57
16080 On ch=1 n=g5 v=57
16080 On ch=1 n=a#5 v=57
16080 On ch=1 n=c6 v=57
16480 On ch=1 n=c6 v=0
16480 On ch=1 n=a#5 v=0
16480 On ch=1 n=g5 v=0
16480 On ch=1 n=c5 v=0
16560 On ch=1 n=c5 v=64
16560 On ch=1 n=g#5 v=64
16560 On ch=1 n=a#5 v=64
16560 On ch=1 n=c6 v=64
16960 On ch=1 n=c6 v=0
16960 On ch=1 n=a#5 v=0
16960 On ch=1 n=g#5 v=0
16960 On ch=1 n=c5 v=0
17040 On ch=1 n=c5 v=71
17040 On ch=1 n=a5 v=71
17040 On ch=1 n=c6 v=71
17515 On ch=1 n=c6 v=0
17515 On ch=1 n=a5 v=0
17515 On ch=1 n=c5 v=0
17520 On ch=1 n=e5 v=75
17520 On ch=1 n=a#5 v=75
17520 On ch=1 n=e6 v=75
17920 On ch=1 n=e6 v=0
17920 On ch=1 n=a#5 v=0
17920 On ch=1 n=e5 v=0
18000 On ch=1 n=d5 v=92
18000 On ch=1 n=a#5 v=92
18000 On ch=1 n=d6 v=92
18400 On ch=1 n=d6 v=0
18400 On ch=1 n=a#5 v=0
18400 On ch=1 n=d5 v=0
18480 On ch=1 n=c5 v=81
18480 On ch=1 n=a#5 v=81
18480 On ch=1 n=c6 v=81
18715 On ch=1 n=c6 v=0
18715 On ch=1 n=a#5 v=0
18715 On ch=1 n=c5 v=0
18960 On ch=1 n=g5 v=75
18960 On ch=1 n=a#5 v=75
18960 On ch=1 n=g6 v=75
19360 On ch=1 n=g6 v=0
19360 On ch=1 n=a#5 v=0
19360 On ch=1 n=g5 v=0
19440 On ch=1 n=f5 v=92
19440 On ch=1 n=a#5 v=92
19440 On ch=1 n=f6 v=92
19840 On ch=1 n=f6 v=0
19840 On ch=1 n=a#5 v=0
19840 On ch=1 n=f5 v=0
19920 On ch=1 n=f5 v=92
19920 On ch=1 n=a#5 v=92
19920 On ch=1 n=d6 v=92
20155 On ch=1 n=d6 v=0
20155 On ch=1 n=a#5 v=0
20155 On ch=1 n=f5 v=0
20400 On ch=1 n=c5 v=47
20400 On ch=1 n=e5 v=47
20400 On ch=1 n=a#5 v=47
20400 On ch=1 n=c6 v=47
20800 On ch=1 n=c6 v=0
20800 On ch=1 n=a#5 v=0
20800 On ch=1 n=e5 v=0
20800 On ch=1 n=c5 v=0
20880 On ch=1 n=c#5 v=52
20880 On ch=1 n=f5 v=52
20880 On ch=1 n=a#5 v=52
20880 On ch=1 n=c#6 v=52
21280 On ch=1 n=a#5 v=0
21280 On ch=1 n=f5 v=0
21280 On ch=1 n=c#5 v=0
21280 On ch=1 n=c#6 v=0
21360 On ch=1 n=d5 v=57
21360 On ch=1 n=f#5 v=57
21360 On ch=1 n=a#5 v=57
21360 On ch=1 n=d6 v=57
21595 On ch=1 n=d5 v=0
21600 On ch=1 n=d5 v=59
21835 On ch=1 n=d5 v=0
21835 On ch=1 n=d6 v=0
21835 On ch=1 n=a#5 v=0
21840 On ch=1 n=d#5 v=61
21840 On ch=1 n=g5 v=61
21840 On ch=1 n=a#5 v=61
21840 On ch=1 n=d#6 v=61
22240 On ch=1 n=d#6 v=0
22240 On ch=1 n=a#5 v=0
22240 On ch=1 n=g5 v=0
22240 On ch=1 n=d#5 v=0
22320 On ch=1 n=e5 v=66
22320 On ch=1 n=g#5 v=66
22320 On ch=1 n=a#5 v=66
22320 On ch=1 n=e6 v=66
22720 On ch=1 n=e6 v=0
22720 On ch=1 n=a#5 v=0
22720 On ch=1 n=g#5 v=0
22720 On ch=1 n=e5 v=0
22800 On ch=1 n=f5 v=72
22800 On ch=1 n=a5 v=72
22800 On ch=1 n=f6 v=72
23275 On ch=1 n=f6 v=0
23275 On ch=1 n=a5 v=0
23275 On ch=1 n=f5 v=0
23280 On ch=1 n=a5 v=75
23280 On ch=1 n=d#6 v=75
23280 On ch=1 n=a6 v=75
23680 On ch=1 n=a6 v=0
23680 On ch=1 n=d#6 v=0
23680 On ch=1 n=a5 v=0
23760 On ch=1 n=g5 v=92
23760 On ch=1 n=d#6 v=92
23760 On ch=1 n=g6 v=92
24160 On ch=1 n=g6 v=0
24160 On ch=1 n=d#6 v=0
24160 On ch=1 n=g5 v=0
24240 On ch=1 n=d#6 v=92
24240 On ch=1 n=f6 v=92
24475 On ch=1 n=f6 v=0
24475 On ch=1 n=d#6 v=0
24720 On ch=1 n=c6 v=75
24720 On ch=1 n=d#6 v=75
24720 On ch=1 n=a6 v=75
24720 On ch=1 n=c7 v=75
25120 On ch=1 n=c7 v=0
25120 On ch=1 n=a6 v=0
25120 On ch=1 n=d#6 v=0
25120 On ch=1 n=c6 v=0
25200 On ch=1 n=a#5 v=92
25200 On ch=1 n=d6 v=92
25200 On ch=1 n=g6 v=92
25200 On ch=1 n=a#6 v=92
25600 On ch=1 n=a#6 v=0
25600 On ch=1 n=g6 v=0
25600 On ch=1 n=d6 v=0
25600 On ch=1 n=a#5 v=0
25680 On ch=1 n=g5 v=61
25680 On ch=1 n=c#6 v=61
25680 On ch=1 n=g6 v=61
25915 On ch=1 n=g6 v=0
25915 On ch=1 n=g5 v=0
25915 On ch=1 n=c#6 v=0
26160 On ch=1 n=c6 v=55
26395 On ch=1 n=c6 v=0
26400 On ch=1 n=f5 v=65
26400 On ch=1 n=f6 v=65
26635 On ch=1 n=f6 v=0
26635 On ch=1 n=f5 v=0
26640 On ch=1 n=a5 v=75
26640 On ch=1 n=a6 v=75
26875 On ch=1 n=a6 v=0
26875 On ch=1 n=a5 v=0
26880 On ch=1 n=g#5 v=75
26880 On ch=1 n=g#6 v=75
27600 On ch=1 n=g5 v=75
27600 On ch=1 n=g6 v=75
28315 On ch=1 n=g6 v=0
28315 On ch=1 n=g5 v=0
28320 On ch=1 n=f5 v=75
28320 On ch=1 n=f6 v=75
28720 On ch=1 n=f6 v=0
28720 On ch=1 n=f5 v=0
29040 On ch=1 n=c6 v=75
29275 On ch=1 n=c6 v=0
29280 On ch=1 n=e5 v=80
29280 On ch=1 n=e6 v=80
29515 On ch=1 n=e6 v=0
29515 On ch=1 n=e5 v=0
29520 On ch=1 n=g5 v=86
29520 On ch=1 n=g6 v=86
29755 On ch=1 n=g6 v=0
29755 On ch=1 n=g5 v=0
29760 On ch=1 n=a#5 v=75
29760 On ch=1 n=a#6 v=75
30475 On ch=1 n=a#6 v=0
30475 On ch=1 n=a#5 v=0
30480 On ch=1 n=a5 v=75
30480 On ch=1 n=a6 v=75
31195 On ch=1 n=a6 v=0
31195 On ch=1 n=a5 v=0
31200 On ch=1 n=g5 v=75
31200 On ch=1 n=g6 v=75
31600 On ch=1 n=g6 v=0
31600 On ch=1 n=g5 v=0
31920 On ch=1 n=c6 v=75
32155 On ch=1 n=c6 v=0
32160 On ch=1 n=f5 v=80
32160 On ch=1 n=f6 v=80
32395 On ch=1 n=f6 v=0
32395 On ch=1 n=f5 v=0
32400 On ch=1 n=a5 v=86
32400 On ch=1 n=a6 v=86
32635 On ch=1 n=a6 v=0
32635 On ch=1 n=a5 v=0
32640 On ch=1 n=b5 v=75
32640 On ch=1 n=b6 v=75
33360 On ch=1 n=d6 v=75
33360 On ch=1 n=d7 v=75
34075 On ch=1 n=d7 v=0
34075 On ch=1 n=d6 v=0
34080 On ch=1 n=f6 v=75
34080 On ch=1 n=f7 v=75
34480 On ch=1 n=f7 v=0
34480 On ch=1 n=f6 v=0
34800 On ch=1 n=c6 v=75
35035 On ch=1 n=c6 v=0
35040 On ch=1 n=g5 v=78
35040 On ch=1 n=g6 v=78
35275 On ch=1 n=g6 v=0
35275 On ch=1 n=g5 v=0
35280 On ch=1 n=a#5 v=81
35280 On ch=1 n=a#6 v=81
35515 On ch=1 n=a#6 v=0
35515 On ch=1 n=a#5 v=0
35520 On ch=1 n=c#6 v=84
35520 On ch=1 n=c#7 v=84
36240 On ch=1 n=e6 v=93
36240 On ch=1 n=e7 v=93
36955 On ch=1 n=e7 v=0
36955 On ch=1 n=e6 v=0
36960 On ch=1 n=g6 v=102
36960 On ch=1 n=g7 v=102
37360 On ch=1 n=g7 v=0
37360 On ch=1 n=g6 v=0
37440 On ch=1 n=a#6 v=108
37440 On ch=1 n=e7 v=108
37440 On ch=1 n=a#7 v=108
37560 On ch=1 n=a#7 v=0
37560 On ch=1 n=e7 v=0
37560 On ch=1 n=a#6 v=0
38160 On ch=1 n=e5 v=108
38160 On ch=1 n=a#5 v=108
38160 On ch=1 n=e6 v=108
38280 On ch=1 n=e6 v=0
38280 On ch=1 n=a#5 v=0
38280 On ch=1 n=e5 v=0
38880 On ch=1 n=f6 v=108
38880 On ch=1 n=a6 v=108
38880 On ch=1 n=f7 v=108
39000 On ch=1 n=f7 v=0
39000 On ch=1 n=a6 v=0
39000 On ch=1 n=f6 v=0
39600 On ch=1 n=d5 v=108
39600 On ch=1 n=e5 v=108
39600 On ch=1 n=a#5 v=108
39600 On ch=1 n=d6 v=108
41680 On ch=1 n=d6 v=0
41680 On ch=1 n=a#5 v=0
41680 On ch=1 n=e5 v=0
41680 On ch=1 n=d5 v=0
41760 On ch=1 n=a4 v=92
41820 On ch=1 n=c#5 v=92
41880 On ch=1 n=a#5 v=92
41980 On ch=1 n=a#5 v=0
41980 On ch=1 n=c#5 v=0
42000 On ch=1 n=a#5 v=92
42080 On ch=1 n=a#5 v=0
42240 On ch=1 n=a#5 v=92
42475 On ch=1 n=a#5 v=0
42480 On ch=1 n=a#5 v=92
42480 On ch=1 n=a#6 v=92
42560 On ch=1 n=a#6 v=0
42560 On ch=1 n=a#5 v=0
42720 On ch=1 n=a#5 v=92
42720 On ch=1 n=a#6 v=92
42800 On ch=1 n=a#6 v=0
42800 On ch=1 n=a#5 v=0
42960 On ch=1 n=a#5 v=92
42960 On ch=1 n=c#6 v=92
42960 On ch=1 n=a#6 v=92
43195 On ch=1 n=a#6 v=0
43195 On ch=1 n=a#5 v=0
43200 On ch=1 n=g5 v=92
43200 On ch=1 n=g6 v=92
43280 On ch=1 n=g6 v=0
43280 On ch=1 n=g5 v=0
43440 On ch=1 n=g5 v=92
43440 On ch=1 n=g6 v=92
43520 On ch=1 n=g6 v=0
43520 On ch=1 n=g5 v=0
43680 On ch=1 n=g5 v=92
43680 On ch=1 n=a#5 v=92
43680 On ch=1 n=g6 v=92
43915 On ch=1 n=g6 v=0
43915 On ch=1 n=g5 v=0
43920 On ch=1 n=e5 v=92
43920 On ch=1 n=e6 v=92
44000 On ch=1 n=e6 v=0
44000 On ch=1 n=e5 v=0
44000 On ch=1 n=a#5 v=0
44160 On ch=1 n=e5 v=92
44160 On ch=1 n=e6 v=92
44240 On ch=1 n=e6 v=0
44240 On ch=1 n=e5 v=0
44400 On ch=1 n=f5 v=92
44400 On ch=1 n=c#6 v=92
44400 On ch=1 n=f6 v=92
44635 On ch=1 n=f6 v=0
44635 On ch=1 n=f5 v=0
44640 On ch=1 n=e5 v=92
44640 On ch=1 n=e6 v=92
44875 On ch=1 n=e6 v=0
44875 On ch=1 n=e5 v=0
44880 On ch=1 n=d5 v=92
44880 On ch=1 n=d6 v=92
45115 On ch=1 n=d6 v=0
45115 On ch=1 n=d5 v=0
45120 On ch=1 n=g5 v=92
45120 On ch=1 n=d6 v=92
45120 On ch=1 n=f6 v=92
45355 On ch=1 n=f6 v=0
45355 On ch=1 n=g5 v=0
45360 On ch=1 n=f5 v=92
45360 On ch=1 n=f6 v=92
45595 On ch=1 n=f6 v=0
45595 On ch=1 n=f5 v=0
45595 On ch=1 n=d6 v=0
45600 On ch=1 n=e5 v=92
45600 On ch=1 n=e6 v=92
45835 On ch=1 n=e6 v=0
45835 On ch=1 n=e5 v=0
45840 On ch=1 n=f5 v=92
45840 On ch=1 n=c#6 v=92
45840 On ch=1 n=f6 v=92
46075 On ch=1 n=f6 v=0
46075 On ch=1 n=f5 v=0
46080 On ch=1 n=e5 v=92
46080 On ch=1 n=e6 v=92
46315 On ch=1 n=e6 v=0
46315 On ch=1 n=e5 v=0
46320 On ch=1 n=d5 v=92
46320 On ch=1 n=d6 v=92
46555 On ch=1 n=d6 v=0
46555 On ch=1 n=d5 v=0
46560 On ch=1 n=e5 v=92
46560 On ch=1 n=c6 v=92
46560 On ch=1 n=e6 v=92
46795 On ch=1 n=e6 v=0
46795 On ch=1 n=c6 v=0
46795 On ch=1 n=e5 v=0
46800 On ch=1 n=d5 v=92
46800 On ch=1 n=a#5 v=92
46800 On ch=1 n=d6 v=92
47200 On ch=1 n=d6 v=0
47200 On ch=1 n=a#5 v=0
47200 On ch=1 n=d5 v=0
47280 On ch=1 n=a#4 v=92
47280 On ch=1 n=a#5 v=92
47515 On ch=1 n=a#5 v=0
47515 On ch=1 n=a#4 v=0
47760 On ch=1 n=a4 v=45
47760 On ch=1 n=a5 v=45
47840 On ch=1 n=a5 v=0
47840 On ch=1 n=a4 v=0
48240 On ch=1 n=f5 v=45
48240 On ch=1 n=a5 v=45
48320 On ch=1 n=a5 v=0
48320 On ch=1 n=f5 v=0
48720 On ch=1 n=f5 v=45
48720 On ch=1 n=a5 v=45
48955 On ch=1 n=a5 v=0
48955 On ch=1 n=f5 v=0
49200 On ch=1 n=a#4 v=45
49200 On ch=1 n=d5 v=45
49200 On ch=1 n=f5 v=45
49280 On ch=1 n=f5 v=0
49280 On ch=1 n=d5 v=0
49280 On ch=1 n=a#4 v=0
49680 On ch=1 n=b4 v=45
49680 On ch=1 n=d5 v=45
49680 On ch=1 n=f5 v=45
49680 On ch=1 n=a5 v=45
49760 On ch=1 n=a5 v=0
49760 On ch=1 n=f5 v=0
49760 On ch=1 n=d5 v=0
49760 On ch=1 n=b4 v=0
50160 On ch=1 n=c4 v=45
50160 On ch=1 n=e4 v=45
50160 On ch=1 n=g#4 v=45
50395 On ch=1 n=c4 v=0
50400 On ch=1 n=b3 v=45
50635 On ch=1 n=b3 v=0
50635 On ch=1 n=e4 v=0
50880 On ch=1 n=d5 v=45
50880 On ch=1 n=f5 v=45
50880 On ch=1 n=a5 v=45
51115 On ch=1 n=d5 v=0
51120 On ch=1 n=c5 v=50
51355 On ch=1 n=c5 v=0
51355 On ch=1 n=a5 v=0
51355 On ch=1 n=f5 v=0
51600 On ch=1 n=c4 v=62
51600 On ch=1 n=e4 v=62
51600 On ch=1 n=g#4 v=62
51835 On ch=1 n=c4 v=0
51840 On ch=1 n=b3 v=68
52075 On ch=1 n=b3 v=0
52075 On ch=1 n=e4 v=0
52320 On ch=1 n=d5 v=80
52320 On ch=1 n=f5 v=80
52320 On ch=1 n=a5 v=80
52555 On ch=1 n=d5 v=0
52560 On ch=1 n=c5 v=86
52795 On ch=1 n=c5 v=0
52795 On ch=1 n=a5 v=0
52795 On ch=1 n=f5 v=0
53040 On ch=1 n=d5 v=92
53040 On ch=1 n=f5 v=92
53040 On ch=1 n=g#5 v=92
53275 On ch=1 n=d5 v=0
53280 On ch=1 n=c5 v=92
53515 On ch=1 n=c5 v=0
53515 On ch=1 n=f5 v=0
53760 On ch=1 n=c5 v=92
53760 On ch=1 n=e5 v=92
53760 On ch=1 n=g5 v=92
53995 On ch=1 n=c5 v=0
54000 On ch=1 n=b4 v=92
54235 On ch=1 n=b4 v=0
54235 On ch=1 n=g5 v=0
54235 On ch=1 n=e5 v=0
54480 On ch=1 n=b4 v=92
54480 On ch=1 n=d5 v=92
54480 On ch=1 n=f5 v=92
54955 On ch=1 n=f5 v=0
54955 On ch=1 n=d5 v=0
55200 On ch=1 n=a4 v=92
55200 On ch=1 n=c5 v=92
55200 On ch=1 n=e5 v=92
55435 On ch=1 n=a4 v=0
55440 On ch=1 n=g4 v=92
55675 On ch=1 n=g4 v=0
55675 On ch=1 n=e5 v=0
55675 On ch=1 n=c5 v=0
55920 On ch=1 n=g4 v=92
55920 On ch=1 n=b4 v=92
55920 On ch=1 n=d5 v=92
56155 On ch=1 n=d5 v=0
56155 On ch=1 n=g4 v=0
56155 On ch=1 n=b4 v=0
56400 On ch=1 n=g#4 v=92
56400 On ch=1 n=b4 v=92
56400 On ch=1 n=e5 v=92
57840 On ch=1 n=c5 v=59
58960 On ch=1 n=e5 v=0
59280 On ch=1 n=c#5 v=30
59280 On ch=1 n=c#6 v=30
59360 On ch=1 n=c#5 v=0
59360 On ch=1 n=c#6 v=0
59760 On ch=1 n=a5 v=30
59760 On ch=1 n=c#6 v=30
59760 On ch=1 n=e6 v=30
59760 On ch=1 n=a6 v=30
59840 On ch=1 n=a6 v=0
59840 On ch=1 n=e6 v=0
59840 On ch=1 n=a5 v=0
59840 On ch=1 n=c#6 v=0
60240 On ch=1 n=a5 v=30
60240 On ch=1 n=c#6 v=30
60240 On ch=1 n=a6 v=30
60475 On ch=1 n=a6 v=0
60475 On ch=1 n=a5 v=0
60475 On ch=1 n=c#6 v=0
60720 On ch=1 n=f#5 v=30
60720 On ch=1 n=c#6 v=30
60720 On ch=1 n=f#6 v=30
60800 On ch=1 n=f#6 v=0
60800 On ch=1 n=c#6 v=0
60800 On ch=1 n=f#5 v=0
61200 On ch=1 n=a5 v=30
61200 On ch=1 n=c#6 v=30
61200 On ch=1 n=d#6 v=30
61280 On ch=1 n=d#6 v=0
61280 On ch=1 n=a5 v=0
61280 On ch=1 n=c#6 v=0
61680 On ch=1 n=a5 v=42
61680 On ch=1 n=c#6 v=42
61680 On ch=1 n=e6 v=42
61915 On ch=1 n=e6 v=0
61915 On ch=1 n=a5 v=0
61915 On ch=1 n=c#6 v=0
62160 On ch=1 n=a5 v=30
62160 On ch=1 n=c#6 v=30
62160 On ch=1 n=d#6 v=30
62240 On ch=1 n=d#6 v=0
62240 On ch=1 n=a5 v=0
62240 On ch=1 n=c#6 v=0
62640 On ch=1 n=a5 v=30
62640 On ch=1 n=c#6 v=30
62640 On ch=1 n=d#6 v=30
62720 On ch=1 n=d#6 v=0
62720 On ch=1 n=a5 v=0
62720 On ch=1 n=c#6 v=0
63120 On ch=1 n=a#5 v=42
63120 On ch=1 n=c#6 v=42
63120 On ch=1 n=e6 v=42
63355 On ch=1 n=e6 v=0
63355 On ch=1 n=a#5 v=0
63355 On ch=1 n=c#6 v=0
63600 On ch=1 n=a#5 v=30
63600 On ch=1 n=c#6 v=30
63600 On ch=1 n=d#6 v=30
63680 On ch=1 n=d#6 v=0
63680 On ch=1 n=a#5 v=0
63680 On ch=1 n=c#6 v=0
64080 On ch=1 n=a#5 v=30
64080 On ch=1 n=c#6 v=30
64080 On ch=1 n=d#6 v=30
64160 On ch=1 n=d#6 v=0
64160 On ch=1 n=a#5 v=0
64160 On ch=1 n=c#6 v=0
64560 On ch=1 n=g#5 v=30
64560 On ch=1 n=c6 v=30
64560 On ch=1 n=e6 v=30
64795 On ch=1 n=e6 v=0
64795 On ch=1 n=c6 v=0
64795 On ch=1 n=g#5 v=0
65040 On ch=1 n=g#5 v=30
65040 On ch=1 n=c6 v=30
65040 On ch=1 n=d#6 v=30
65120 On ch=1 n=d#6 v=0
65120 On ch=1 n=c6 v=0
65120 On ch=1 n=g#5 v=0
65520 On ch=1 n=g#5 v=30
65520 On ch=1 n=c6 v=30
65520 On ch=1 n=d#6 v=30
65600 On ch=1 n=d#6 v=0
65600 On ch=1 n=c6 v=0
65600 On ch=1 n=g#5 v=0
66000 On ch=1 n=g#5 v=30
66000 On ch=1 n=b5 v=30
66000 On ch=1 n=d#6 v=30
66000 On ch=1 n=f#6 v=30
66235 On ch=1 n=f#6 v=0
66235 On ch=1 n=d#6 v=0
66235 On ch=1 n=g#5 v=0
66235 On ch=1 n=b5 v=0
66480 On ch=1 n=g#5 v=60
66480 On ch=1 n=b5 v=60
66480 On ch=1 n=d#6 v=60
66480 On ch=1 n=f6 v=60
66560 On ch=1 n=f6 v=0
66560 On ch=1 n=d#6 v=0
66560 On ch=1 n=b5 v=0
66560 On ch=1 n=g#5 v=0
66960 On ch=1 n=g#5 v=92
66960 On ch=1 n=b5 v=92
66960 On ch=1 n=d#6 v=92
66960 On ch=1 n=f6 v=92
67040 On ch=1 n=f6 v=0
67040 On ch=1 n=d#6 v=0
67040 On ch=1 n=b5 v=0
67040 On ch=1 n=g#5 v=0
67440 On ch=1 n=b5 v=91
67440 On ch=1 n=d#6 v=91
67440 On ch=1 n=f6 v=91
67440 On ch=1 n=a#6 v=91
67675 On ch=1 n=a#6 v=0
67675 On ch=1 n=f6 v=0
67675 On ch=1 n=d#6 v=0
67675 On ch=1 n=b5 v=0
67920 On ch=1 n=b5 v=89
67920 On ch=1 n=d#6 v=89
67920 On ch=1 n=f6 v=89
67920 On ch=1 n=g#6 v=89
68000 On ch=1 n=f6 v=0
68000 On ch=1 n=d#6 v=0
68000 On ch=1 n=b5 v=0
68000 On ch=1 n=g#6 v=0
68400 On ch=1 n=a#4 v=87
68400 On ch=1 n=d5 v=87
68400 On ch=1 n=f5 v=87
68400 On ch=1 n=g#5 v=87
68480 On ch=1 n=f5 v=0
68480 On ch=1 n=d5 v=0
68480 On ch=1 n=a#4 v=0
68480 On ch=1 n=g#5 v=0
68880 On ch=1 n=a#5 v=85
68880 On ch=1 n=d6 v=85
68880 On ch=1 n=f6 v=85
68880 On ch=1 n=g#6 v=85
69115 On ch=1 n=f6 v=0
69115 On ch=1 n=d6 v=0
69115 On ch=1 n=a#5 v=0
69115 On ch=1 n=g#6 v=0
69360 On ch=1 n=a#5 v=83
69360 On ch=1 n=d#6 v=83
69360 On ch=1 n=f#6 v=83
69440 On ch=1 n=f#6 v=0
69440 On ch=1 n=d#6 v=0
69440 On ch=1 n=a#5 v=0
69840 On ch=1 n=a4 v=81
69840 On ch=1 n=c5 v=81
69840 On ch=1 n=d#5 v=81
69840 On ch=1 n=f#5 v=81
69920 On ch=1 n=d#5 v=0
69920 On ch=1 n=c5 v=0
69920 On ch=1 n=a4 v=0
69920 On ch=1 n=f#5 v=0
70320 On ch=1 n=a#5 v=79
70320 On ch=1 n=d6 v=79
70320 On ch=1 n=f#6 v=79
70555 On ch=1 n=f#6 v=0
70555 On ch=1 n=d6 v=0
70555 On ch=1 n=a#5 v=0
70800 On ch=1 n=a#5 v=77
70800 On ch=1 n=d6 v=77
70800 On ch=1 n=f6 v=77
70880 On ch=1 n=f6 v=0
70880 On ch=1 n=d6 v=0
70880 On ch=1 n=a#5 v=0
71280 On ch=1 n=f5 v=75
71280 On ch=1 n=a#5 v=75
71280 On ch=1 n=d6 v=75
71360 On ch=1 n=d6 v=0
71360 On ch=1 n=a#5 v=0
71360 On ch=1 n=f5 v=0
71760 On ch=1 n=a#4 v=69
71760 On ch=1 n=d5 v=69
71760 On ch=1 n=f#5 v=69
71995 On ch=1 n=d5 v=0
71995 On ch=1 n=a#4 v=0
71995 On ch=1 n=f#5 v=0
72240 On ch=1 n=a#4 v=63
72240 On ch=1 n=d5 v=63
72240 On ch=1 n=f5 v=63
72320 On ch=1 n=f5 v=0
72320 On ch=1 n=d5 v=0
72320 On ch=1 n=a#4 v=0
72720 On ch=1 n=f4 v=57
72720 On ch=1 n=a#4 v=57
72720 On ch=1 n=d5 v=57
72800 On ch=1 n=d5 v=0
72800 On ch=1 n=a#4 v=0
72800 On ch=1 n=f4 v=0
73200 On ch=1 n=d4 v=49
73200 On ch=1 n=f4 v=49
73200 On ch=1 n=a#4 v=49
73435 On ch=1 n=a#4 v=0
73435 On ch=1 n=f4 v=0
73435 On ch=1 n=d4 v=0
73680 On ch=1 n=f5 v=45
73680 On ch=1 n=f6 v=45
73915 On ch=1 n=f6 v=0
73915 On ch=1 n=f5 v=0
73920 On ch=1 n=a#5 v=45
73920 On ch=1 n=a#6 v=45
74155 On ch=1 n=a#6 v=0
74155 On ch=1 n=a#5 v=0
74160 On ch=1 n=c#6 v=45
74160 On ch=1 n=c#7 v=45
74240 On ch=1 n=c#6 v=0
74240 On ch=1 n=c#7 v=0
74400 On ch=1 n=c6 v=45
74400 On ch=1 n=c7 v=45
76240 On ch=1 n=c7 v=0
76240 On ch=1 n=c6 v=0
76560 On ch=1 n=d#6 v=45
76560 On ch=1 n=d#7 v=45
76795 On ch=1 n=d#7 v=0
76795 On ch=1 n=d#6 v=0
76800 On ch=1 n=c#6 v=45
76800 On ch=1 n=c#7 v=45
77035 On ch=1 n=c#7 v=0
77035 On ch=1 n=c#6 v=0
77040 On ch=1 n=c6 v=45
77040 On ch=1 n=c7 v=45
77120 On ch=1 n=c7 v=0
77120 On ch=1 n=c6 v=0
77280 On ch=1 n=a#5 v=45
77280 On ch=1 n=a#6 v=45
79120 On ch=1 n=a#6 v=0
79120 On ch=1 n=a#5 v=0
79440 On ch=1 n=f5 v=45
79440 On ch=1 n=f6 v=45
79675 On ch=1 n=f6 v=0
79675 On ch=1 n=f5 v=0
79680 On ch=1 n=a#5 v=47
79680 On ch=1 n=a#6 v=47
79915 On ch=1 n=a#6 v=0
79915 On ch=1 n=a#5 v=0
79920 On ch=1 n=c#6 v=49
79920 On ch=1 n=c#7 v=49
80000 On ch=1 n=c#7 v=0
80000 On ch=1 n=c#6 v=0
80160 On ch=1 n=d6 v=51
80160 On ch=1 n=d7 v=51
82000 On ch=1 n=d7 v=0
82000 On ch=1 n=d6 v=0
82320 On ch=1 n=g#6 v=69
82320 On ch=1 n=g#7 v=69
82555 On ch=1 n=g#7 v=0
82555 On ch=1 n=g#6 v=0
82560 On ch=1 n=f#6 v=71
82560 On ch=1 n=f#7 v=71
82795 On ch=1 n=f#7 v=0
82795 On ch=1 n=f#6 v=0
82800 On ch=1 n=f6 v=73
82800 On ch=1 n=f7 v=73
82880 On ch=1 n=f7 v=0
82880 On ch=1 n=f6 v=0
83040 On ch=1 n=d#6 v=75
83040 On ch=1 n=d#7 v=75
85200 On ch=1 n=a#6 v=92
85200 On ch=1 n=a#7 v=92
85435 On ch=1 n=a#7 v=0
85435 On ch=1 n=a#6 v=0
85440 On ch=1 n=f#6 v=92
85440 On ch=1 n=f#7 v=92
85675 On ch=1 n=f#7 v=0
85675 On ch=1 n=f#6 v=0
85680 On ch=1 n=d#6 v=92
85680 On ch=1 n=d#7 v=92
85915 On ch=1 n=d#7 v=0
85915 On ch=1 n=d#6 v=0
85920 On ch=1 n=c#6 v=92
85920 On ch=1 n=c#7 v=92
86640 On ch=1 n=c6 v=91
86640 On ch=1 n=c7 v=91
87355 On ch=1 n=c7 v=0
87355 On ch=1 n=c6 v=0
87360 On ch=1 n=a#5 v=90
87360 On ch=1 n=a#6 v=90
87760 On ch=1 n=a#6 v=0
87760 On ch=1 n=a#5 v=0
88080 On ch=1 n=c#6 v=87
88080 On ch=1 n=c#7 v=87
88315 On ch=1 n=c#7 v=0
88315 On ch=1 n=c#6 v=0
88320 On ch=1 n=a#5 v=86
88320 On ch=1 n=a#6 v=86
88555 On ch=1 n=a#6 v=0
88555 On ch=1 n=a#5 v=0
88560 On ch=1 n=f#5 v=85
88560 On ch=1 n=f#6 v=85
88795 On ch=1 n=f#6 v=0
88795 On ch=1 n=f#5 v=0
88800 On ch=1 n=f5 v=84
88800 On ch=1 n=f6 v=84
89515 On ch=1 n=f6 v=0
89515 On ch=1 n=f5 v=0
89520 On ch=1 n=e5 v=81
89520 On ch=1 n=e6 v=81
90235 On ch=1 n=e6 v=0
90235 On ch=1 n=e5 v=0
90240 On ch=1 n=c#5 v=78
90240 On ch=1 n=c#6 v=78
90960 On ch=1 n=a#4 v=75
90960 On ch=1 n=a#5 v=75
91675 On ch=1 n=a#5 v=0
91675 On ch=1 n=a#4 v=0
91680 On ch=1 n=g4 v=69
91680 On ch=1 n=g5 v=69
92395 On ch=1 n=g5 v=0
92395 On ch=1 n=g4 v=0
92400 On ch=1 n=e4 v=63
92400 On ch=1 n=e5 v=63
93115 On ch=1 n=e5 v=0
93115 On ch=1 n=e4 v=0
93120 On ch=1 n=c#4 v=57
93120 On ch=1 n=c#5 v=57
93840 On ch=1 n=a#3 v=51
93840 On ch=1 n=a#4 v=51
94240 On ch=1 n=a#4 v=0
94240 On ch=1 n=a#3 v=0
94560 On ch=1 n=f4 v=45
94560 On ch=1 n=a4 v=45
94560 On ch=1 n=d#5 v=45
94560 On ch=1 n=f5 v=45
94960 On ch=1 n=f5 v=0
94960 On ch=1 n=d#5 v=0
94960 On ch=1 n=f4 v=0
94960 On ch=1 n=a4 v=0
95040 On ch=1 n=f4 v=45
95040 On ch=1 n=a#4 v=45
95040 On ch=1 n=d#5 v=45
95040 On ch=1 n=f5 v=45
95440 On ch=1 n=f5 v=0
95440 On ch=1 n=d#5 v=0
95440 On ch=1 n=a#4 v=0
95440 On ch=1 n=f4 v=0
95520 On ch=1 n=f4 v=45
95520 On ch=1 n=b4 v=45
95520 On ch=1 n=d#5 v=45
95520 On ch=1 n=f5 v=45
95995 On ch=1 n=f5 v=0
95995 On ch=1 n=f4 v=0
96000 On ch=1 n=f4 v=51
96000 On ch=1 n=c5 v=51
96000 On ch=1 n=d#5 v=51
96000 On ch=1 n=f5 v=51
96400 On ch=1 n=f5 v=0
96400 On ch=1 n=f4 v=0
96400 On ch=1 n=d#5 v=0
96400 On ch=1 n=c5 v=0
96480 On ch=1 n=f4 v=59
96480 On ch=1 n=c#5 v=59
96480 On ch=1 n=d#5 v=59
96480 On ch=1 n=f5 v=59
96880 On ch=1 n=f5 v=0
96880 On ch=1 n=f4 v=0
96880 On ch=1 n=d#5 v=0
96880 On ch=1 n=c#5 v=0
96960 On ch=1 n=f4 v=67
96960 On ch=1 n=d5 v=67
96960 On ch=1 n=f5 v=67
97435 On ch=1 n=f5 v=0
97435 On ch=1 n=d5 v=0
97435 On ch=1 n=f4 v=0
97440 On ch=1 n=a4 v=75
97440 On ch=1 n=d#5 v=75
97440 On ch=1 n=a5 v=75
97840 On ch=1 n=a5 v=0
97840 On ch=1 n=d#5 v=0
97840 On ch=1 n=a4 v=0
97920 On ch=1 n=g4 v=92
97920 On ch=1 n=d#5 v=92
97920 On ch=1 n=g5 v=92
98320 On ch=1 n=g5 v=0
98320 On ch=1 n=g4 v=0
98320 On ch=1 n=d#5 v=0
98400 On ch=1 n=f4 v=81
98400 On ch=1 n=d#5 v=81
98400 On ch=1 n=f5 v=81
98635 On ch=1 n=f5 v=0
98635 On ch=1 n=f4 v=0
98635 On ch=1 n=d#5 v=0
98880 On ch=1 n=c5 v=75
98880 On ch=1 n=d#5 v=75
98880 On ch=1 n=c6 v=75
99280 On ch=1 n=c6 v=0
99280 On ch=1 n=d#5 v=0
99280 On ch=1 n=c5 v=0
99360 On ch=1 n=a#4 v=92
99360 On ch=1 n=d#5 v=92
99360 On ch=1 n=a#5 v=92
99760 On ch=1 n=a#5 v=0
99760 On ch=1 n=a#4 v=0
99760 On ch=1 n=d#5 v=0
99840 On ch=1 n=g4 v=81
99840 On ch=1 n=a#4 v=81
99840 On ch=1 n=d#5 v=81
99840 On ch=1 n=g5 v=81
100075 On ch=1 n=g5 v=0
100075 On ch=1 n=a#4 v=0
100075 On ch=1 n=g4 v=0
100075 On ch=1 n=d#5 v=0
100320 On ch=1 n=f5 v=45
100320 On ch=1 n=a5 v=45
100320 On ch=1 n=d#6 v=45
100320 On ch=1 n=f6 v=45
100720 On ch=1 n=f6 v=0
100720 On ch=1 n=a5 v=0
100720 On ch=1 n=f5 v=0
100720 On ch=1 n=d#6 v=0
100800 On ch=1 n=f#5 v=45
100800 On ch=1 n=a#5 v=45
100800 On ch=1 n=d#6 v=45
100800 On ch=1 n=f#6 v=45
101200 On ch=1 n=f#6 v=0
101200 On ch=1 n=a#5 v=0
101200 On ch=1 n=d#6 v=0
101200 On ch=1 n=f#5 v=0
101280 On ch=1 n=g5 v=51
101280 On ch=1 n=b5 v=51
101280 On ch=1 n=d#6 v=51
101280 On ch=1 n=g6 v=51
101755 On ch=1 n=g6 v=0
101755 On ch=1 n=g5 v=0
101760 On ch=1 n=g#5 v=57
101760 On ch=1 n=c6 v=57
101760 On ch=1 n=d#6 v=57
101760 On ch=1 n=g#6 v=57
102160 On ch=1 n=c6 v=0
102160 On ch=1 n=d#6 v=0
102160 On ch=1 n=g#6 v=0
102160 On ch=1 n=g#5 v=0
102240 On ch=1 n=a5 v=64
102240 On ch=1 n=c#6 v=64
102240 On ch=1 n=d#6 v=64
102240 On ch=1 n=a6 v=64
102640 On ch=1 n=a6 v=0
102640 On ch=1 n=a5 v=0
102640 On ch=1 n=d#6 v=0
102640 On ch=1 n=c#6 v=0
102720 On ch=1 n=a#5 v=71
102720 On ch=1 n=d6 v=71
102720 On ch=1 n=a#6 v=71
103195 On ch=1 n=a#6 v=0
103195 On ch=1 n=d6 v=0
103195 On ch=1 n=a#5 v=0
103200 On ch=1 n=d6 v=75
103200 On ch=1 n=g#6 v=75
103200 On ch=1 n=d7 v=75
103600 On ch=1 n=d7 v=0
103600 On ch=1 n=d6 v=0
103600 On ch=1 n=g#6 v=0
103680 On ch=1 n=c6 v=92
103680 On ch=1 n=g#6 v=92
103680 On ch=1 n=c7 v=92
104080 On ch=1 n=c7 v=0
104080 On ch=1 n=c6 v=0
104080 On ch=1 n=g#6 v=0
104160 On ch=1 n=a#5 v=81
104160 On ch=1 n=g#6 v=81
104160 On ch=1 n=a#6 v=81
104395 On ch=1 n=a#6 v=0
104395 On ch=1 n=a#5 v=0
104395 On ch=1 n=g#6 v=0
104640 On ch=1 n=f6 v=75
104640 On ch=1 n=g#6 v=75
104640 On ch=1 n=d7 v=75
104640 On ch=1 n=f7 v=75
105040 On ch=1 n=f7 v=0
105040 On ch=1 n=d7 v=0
105040 On ch=1 n=f6 v=0
105040 On ch=1 n=g#6 v=0
105120 On ch=1 n=d#6 v=92
105120 On ch=1 n=g6 v=92
105120 On ch=1 n=c7 v=92
105120 On ch=1 n=d#7 v=92
105520 On ch=1 n=c7 v=0
105520 On ch=1 n=g6 v=0
105520 On ch=1 n=d#6 v=0
105520 On ch=1 n=d#7 v=0
105600 On ch=1 n=c6 v=81
105600 On ch=1 n=f#6 v=81
105600 On ch=1 n=c7 v=81
105835 On ch=1 n=c7 v=0
105835 On ch=1 n=f#6 v=0
105835 On ch=1 n=c6 v=0
106080 On ch=1 n=f5 v=75
106080 On ch=1 n=f6 v=75
106315 On ch=1 n=f6 v=0
106315 On ch=1 n=f5 v=0
106320 On ch=1 n=a#5 v=83
106320 On ch=1 n=a#6 v=83
106555 On ch=1 n=a#6 v=0
106555 On ch=1 n=a#5 v=0
106560 On ch=1 n=d6 v=92
106560 On ch=1 n=d7 v=92
106640 On ch=1 n=d7 v=0
106640 On ch=1 n=d6 v=0
106800 On ch=1 n=c#6 v=75
106800 On ch=1 n=c#7 v=75
107520 On ch=1 n=c6 v=75
107520 On ch=1 n=c7 v=75
108235 On ch=1 n=c7 v=0
108235 On ch=1 n=c6 v=0
108240 On ch=1 n=a#5 v=75
108240 On ch=1 n=a#6 v=75
108640 On ch=1 n=a#6 v=0
108640 On ch=1 n=a#5 v=0
108960 On ch=1 n=f6 v=75
109195 On ch=1 n=f6 v=0
109200 On ch=1 n=a5 v=76
109200 On ch=1 n=a6 v=76
109435 On ch=1 n=a6 v=0
109435 On ch=1 n=a5 v=0
109440 On ch=1 n=c6 v=77
109440 On ch=1 n=c7 v=77
109675 On ch=1 n=c7 v=0
109675 On ch=1 n=c6 v=0
109680 On ch=1 n=d#6 v=78
109680 On ch=1 n=d#7 v=78
110400 On ch=1 n=d6 v=82
110400 On ch=1 n=d7 v=82
111115 On ch=1 n=d7 v=0
111115 On ch=1 n=d6 v=0
111120 On ch=1 n=c6 v=88
111120 On ch=1 n=c7 v=88
111520 On ch=1 n=c7 v=0
111520 On ch=1 n=c6 v=0
111840 On ch=1 n=f5 v=92
111840 On ch=1 n=f6 v=92
112075 On ch=1 n=f6 v=0
112075 On ch=1 n=f5 v=0
112080 On ch=1 n=a#5 v=92
112080 On ch=1 n=a#6 v=92
112315 On ch=1 n=a#6 v=0
112315 On ch=1 n=a#5 v=0
112320 On ch=1 n=d6 v=92
112320 On ch=1 n=d7 v=92
112400 On ch=1 n=d7 v=0
112400 On ch=1 n=d6 v=0
112560 On ch=1 n=e6 v=75
112560 On ch=1 n=e7 v=75
113275 On ch=1 n=e7 v=0
113275 On ch=1 n=e6 v=0
113280 On ch=1 n=g6 v=75
113280 On ch=1 n=g7 v=75
113995 On ch=1 n=g7 v=0
113995 On ch=1 n=g6 v=0
114000 On ch=1 n=a#6 v=75
114000 On ch=1 n=a#7 v=75
114400 On ch=1 n=a#7 v=0
114400 On ch=1 n=a#6 v=0
114720 On ch=1 n=f6 v=92
114955 On ch=1 n=f6 v=0
114960 On ch=1 n=c6 v=92
114960 On ch=1 n=c7 v=92
115195 On ch=1 n=c7 v=0
115195 On ch=1 n=c6 v=0
115200 On ch=1 n=d#6 v=92
115200 On ch=1 n=d#7 v=92
115435 On ch=1 n=d#7 v=0
115435 On ch=1 n=d#6 v=0
115440 On ch=1 n=f#6 v=92
115440 On ch=1 n=f#7 v=92
116160 On ch=1 n=a6 v=98
116160 On ch=1 n=a7 v=98
116875 On ch=1 n=a7 v=0
116875 On ch=1 n=a6 v=0
116880 On ch=1 n=c7 v=104
116880 On ch=1 n=c8 v=104
117280 On ch=1 n=c8 v=0
117280 On ch=1 n=c7 v=0
117360 On ch=1 n=d#7 v=108
117360 On ch=1 n=a7 v=108
117360 On ch=1 n=d#8 v=108
117480 On ch=1 n=d#8 v=0
117480 On ch=1 n=a7 v=0
117480 On ch=1 n=d#7 v=0
118080 On ch=1 n=a5 v=108
118080 On ch=1 n=d#6 v=108
118080 On ch=1 n=a6 v=108
118200 On ch=1 n=a6 v=0
118200 On ch=1 n=a5 v=0
118200 On ch=1 n=d#6 v=0
118800 On ch=1 n=a#5 v=108
118800 On ch=1 n=d6 v=108
118800 On ch=1 n=a#6 v=108
118920 On ch=1 n=a#6 v=0
118920 On ch=1 n=d6 v=0
118920 On ch=1 n=a#5 v=0
119520 On ch=1 n=d5 v=108
119520 On ch=1 n=a#5 v=108
119520 On ch=1 n=d6 v=108
121600 On ch=1 n=d6 v=0
121600 On ch=1 n=a#5 v=0
121600 On ch=1 n=d5 v=0
121680 On ch=1 n=a#6 v=108
121680 On ch=1 n=c#7 v=108
121680 On ch=1 n=e7 v=108
121680 On ch=1 n=a7 v=108
122635 On ch=1 n=a7 v=0
122635 On ch=1 n=e7 v=0
122640 On ch=1 n=g6 v=108
122640 On ch=1 n=e7 v=108
122640 On ch=1 n=g7 v=108
122720 On ch=1 n=g7 v=0
122720 On ch=1 n=e7 v=0
122720 On ch=1 n=g6 v=0
123120 On ch=1 n=f5 v=108
123120 On ch=1 n=d6 v=108
123120 On ch=1 n=f6 v=108
123200 On ch=1 n=f6 v=0
123200 On ch=1 n=d6 v=0
123200 On ch=1 n=f5 v=0
123600 On ch=1 n=d5 v=108
123600 On ch=1 n=b5 v=108
123600 On ch=1 n=d6 v=108
123680 On ch=1 n=d6 v=0
123680 On ch=1 n=d5 v=0
123680 On ch=1 n=b5 v=0
124080 On ch=1 n=a4 v=108
124080 On ch=1 n=f5 v=108
124080 On ch=1 n=a5 v=108
124160 On ch=1 n=a5 v=0
124160 On ch=1 n=f5 v=0
124160 On ch=1 n=a4 v=0
124560 On ch=1 n=e4 v=108
124560 On ch=1 n=g4 v=108
124560 On ch=1 n=a4 v=108
124560 On ch=1 n=c#5 v=108
125920 On ch=1 n=g4 v=0
125920 On ch=1 n=e4 v=0
125920 On ch=1 n=a4 v=0
125920 On ch=1 n=c5 v=0
126000 On ch=1 n=d4 v=92
126060 On ch=1 n=f4 v=92
126120 On ch=1 n=a4 v=92
126180 On ch=1 n=d5 v=92
126220 On ch=1 n=d5 v=0
126220 On ch=1 n=f4 v=0
126220 On ch=1 n=d4 v=0
126220 On ch=1 n=a4 v=0
126240 On ch=1 n=d6 v=92
126320 On ch=1 n=d6 v=0
126480 On ch=1 n=d6 v=92
126715 On ch=1 n=d6 v=0
126720 On ch=1 n=a#5 v=92
126720 On ch=1 n=a#6 v=92
126800 On ch=1 n=a#5 v=0
126800 On ch=1 n=a#6 v=0
126960 On ch=1 n=a#5 v=92
126960 On ch=1 n=a#6 v=92
127040 On ch=1 n=a#5 v=0
127040 On ch=1 n=a#6 v=0
127200 On ch=1 n=a#5 v=92
127200 On ch=1 n=d6 v=92
127200 On ch=1 n=a#6 v=92
127435 On ch=1 n=a#5 v=0
127435 On ch=1 n=a#6 v=0
127440 On ch=1 n=g5 v=92
127440 On ch=1 n=g6 v=92
127520 On ch=1 n=g6 v=0
127520 On ch=1 n=g5 v=0
127520 On ch=1 n=d6 v=0
127680 On ch=1 n=g5 v=92
127680 On ch=1 n=g6 v=92
127760 On ch=1 n=g6 v=0
127760 On ch=1 n=g5 v=0
127920 On ch=1 n=g5 v=92
127920 On ch=1 n=a#5 v=92
127920 On ch=1 n=d6 v=92
127920 On ch=1 n=g6 v=92
128155 On ch=1 n=g6 v=0
128155 On ch=1 n=g5 v=0
128160 On ch=1 n=e5 v=92
128160 On ch=1 n=e6 v=92
128240 On ch=1 n=e6 v=0
128240 On ch=1 n=e5 v=0
128240 On ch=1 n=d6 v=0
128240 On ch=1 n=a#5 v=0
128400 On ch=1 n=e5 v=92
128400 On ch=1 n=e6 v=92
128480 On ch=1 n=e6 v=0
128480 On ch=1 n=e5 v=0
128640 On ch=1 n=f5 v=92
128640 On ch=1 n=c#6 v=92
128640 On ch=1 n=f6 v=92
128875 On ch=1 n=f6 v=0
128875 On ch=1 n=f5 v=0
128880 On ch=1 n=e5 v=92
128880 On ch=1 n=e6 v=92
129115 On ch=1 n=e6 v=0
129115 On ch=1 n=e5 v=0
129120 On ch=1 n=d5 v=92
129120 On ch=1 n=d6 v=92
129355 On ch=1 n=d6 v=0
129355 On ch=1 n=d5 v=0
129360 On ch=1 n=g5 v=92
129360 On ch=1 n=d6 v=92
129360 On ch=1 n=g6 v=92
129595 On ch=1 n=g6 v=0
129595 On ch=1 n=g5 v=0
129600 On ch=1 n=f5 v=92
129600 On ch=1 n=f6 v=92
129835 On ch=1 n=f6 v=0
129835 On ch=1 n=f5 v=0
129835 On ch=1 n=d6 v=0
129840 On ch=1 n=e5 v=92
129840 On ch=1 n=e6 v=92
130075 On ch=1 n=e6 v=0
130075 On ch=1 n=e5 v=0
130080 On ch=1 n=f5 v=92
130080 On ch=1 n=c#6 v=92
130080 On ch=1 n=f6 v=92
130315 On ch=1 n=f6 v=0
130315 On ch=1 n=f5 v=0
130320 On ch=1 n=e5 v=92
130320 On ch=1 n=e6 v=92
130555 On ch=1 n=e6 v=0
130555 On ch=1 n=e5 v=0
130555 On ch=1 n=c#6 v=0
130560 On ch=1 n=d5 v=92
130560 On ch=1 n=d6 v=92
130795 On ch=1 n=d6 v=0
130795 On ch=1 n=d5 v=0
130800 On ch=1 n=g5 v=92
130800 On ch=1 n=d6 v=92
130800 On ch=1 n=g6 v=92
131035 On ch=1 n=g6 v=0
131035 On ch=1 n=g5 v=0
131040 On ch=1 n=f5 v=92
131040 On ch=1 n=f6 v=92
131275 On ch=1 n=f6 v=0
131275 On ch=1 n=f5 v=0
131275 On ch=1 n=d6 v=0
131280 On ch=1 n=e5 v=92
131280 On ch=1 n=e6 v=92
131515 On ch=1 n=e6 v=0
131515 On ch=1 n=e5 v=0
131520 On ch=1 n=g5 v=93
131520 On ch=1 n=a#5 v=93
131520 On ch=1 n=g6 v=93
131755 On ch=1 n=g6 v=0
131755 On ch=1 n=g5 v=0
131760 On ch=1 n=f5 v=94
131760 On ch=1 n=f6 v=94
131995 On ch=1 n=f6 v=0
131995 On ch=1 n=f5 v=0
132000 On ch=1 n=e5 v=95
132000 On ch=1 n=e6 v=95
132235 On ch=1 n=e6 v=0
132235 On ch=1 n=e5 v=0
132235 On ch=1 n=a#5 v=0
132240 On ch=1 n=a#5 v=96
132240 On ch=1 n=f6 v=96
132240 On ch=1 n=a#6 v=96
132475 On ch=1 n=a#5 v=0
132475 On ch=1 n=a#6 v=0
132480 On ch=1 n=a5 v=97
132480 On ch=1 n=a6 v=97
132715 On ch=1 n=a6 v=0
132715 On ch=1 n=a5 v=0
132720 On ch=1 n=g5 v=98
132720 On ch=1 n=g6 v=98
132955 On ch=1 n=g6 v=0
132955 On ch=1 n=g5 v=0
132955 On ch=1 n=f6 v=0
132960 On ch=1 n=g5 v=99
132960 On ch=1 n=a#5 v=99
132960 On ch=1 n=g6 v=99
133195 On ch=1 n=g6 v=0
133200 On ch=1 n=f6 v=100
133435 On ch=1 n=f6 v=0
133435 On ch=1 n=a#5 v=0
133435 On ch=1 n=g5 v=0
133440 On ch=1 n=a#5 v=101
133440 On ch=1 n=e6 v=101
133440 On ch=1 n=a#6 v=101
133675 On ch=1 n=a#6 v=0
133680 On ch=1 n=a6 v=102
133840 On ch=1 n=e6 v=0
133840 On ch=1 n=a#5 v=0
133915 On ch=1 n=a6 v=0
133920 On ch=1 n=e6 v=103
133920 On ch=1 n=g6 v=103
133920 On ch=1 n=e7 v=103
134155 On ch=1 n=e7 v=0
134160 On ch=1 n=d7 v=104
134320 On ch=1 n=g6 v=0
134320 On ch=1 n=e6 v=0
134395 On ch=1 n=d7 v=0
134400 On ch=1 n=a6 v=106
134400 On ch=1 n=c#7 v=106
134400 On ch=1 n=a7 v=106
134635 On ch=1 n=a7 v=0
134635 On ch=1 n=a6 v=0
134640 On ch=1 n=g6 v=108
134640 On ch=1 n=g7 v=108
135040 On ch=1 n=g7 v=0
135040 On ch=1 n=g6 v=0
135120 On ch=1 n=f6 v=108
135120 On ch=1 n=a6 v=108
135120 On ch=1 n=d7 v=108
135120 On ch=1 n=f7 v=108
135355 On ch=1 n=f7 v=0
135355 On ch=1 n=d7 v=0
135355 On ch=1 n=a6 v=0
135355 On ch=1 n=f6 v=0
135360 On ch=1 n=e6 v=108
135360 On ch=1 n=a#6 v=108
135360 On ch=1 n=e7 v=108
135480 On ch=1 n=e7 v=0
135480 On ch=1 n=e6 v=0
135480 On ch=1 n=a#6 v=0
136080 On ch=1 n=d6 v=108
136080 On ch=1 n=g6 v=108
136080 On ch=1 n=a#6 v=108
136080 On ch=1 n=d7 v=108
136200 On ch=1 n=d7 v=0
136200 On ch=1 n=g6 v=0
136200 On ch=1 n=d6 v=0
136200 On ch=1 n=a#6 v=0
136800 On ch=1 n=d6 v=108
136800 On ch=1 n=e6 v=108
136800 On ch=1 n=a6 v=108
136800 On ch=1 n=d7 v=108
137440 On ch=1 n=d7 v=0
137440 On ch=1 n=a6 v=0
137440 On ch=1 n=e6 v=0
137440 On ch=1 n=d6 v=0
137520 On ch=1 n=c#6 v=108
137520 On ch=1 n=c#7 v=108
137920 On ch=1 n=c#7 v=0
137920 On ch=1 n=c#6 v=0
138240 On ch=1 n=a3 v=108
138280 On ch=1 n=a3 v=0
138300 On ch=1 n=a4 v=108
138420 On ch=1 n=a4 v=0
138480 On ch=1 n=a4 v=108
138560 On ch=1 n=a4 v=0
138720 On ch=1 n=a4 v=108
138955 On ch=1 n=a4 v=0
138960 On ch=1 n=f4 v=108
139000 On ch=1 n=f4 v=0
139020 On ch=1 n=f5 v=108
139140 On ch=1 n=f5 v=0
139200 On ch=1 n=f5 v=108
139280 On ch=1 n=f5 v=0
139440 On ch=1 n=f5 v=108
139675 On ch=1 n=f5 v=0
139680 On ch=1 n=d5 v=108
139720 On ch=1 n=d5 v=0
139740 On ch=1 n=d6 v=108
139860 On ch=1 n=d6 v=0
139920 On ch=1 n=d6 v=108
140000 On ch=1 n=d6 v=0
140160 On ch=1 n=d6 v=108
140395 On ch=1 n=d6 v=0
140400 On ch=1 n=a#5 v=108
140440 On ch=1 n=a#5 v=0
140460 On ch=1 n=a#6 v=108
140580 On ch=1 n=a#6 v=0
140640 On ch=1 n=a#6 v=108
140720 On ch=1 n=a#6 v=0
140880 On ch=1 n=a#6 v=108
141115 On ch=1 n=a#6 v=0
141120 On ch=1 n=g6 v=108
141120 On ch=1 n=e7 v=108
141120 On ch=1 n=g7 v=108
141200 On ch=1 n=g7 v=0
141200 On ch=1 n=e7 v=0
141200 On ch=1 n=g6 v=0
141840 On ch=1 n=f6 v=108
141840 On ch=1 n=a#6 v=108
141840 On ch=1 n=d7 v=108
141840 On ch=1 n=f7 v=108
141920 On ch=1 n=f7 v=0
141920 On ch=1 n=d7 v=0
141920 On ch=1 n=f6 v=0
141920 On ch=1 n=a#6 v=0
142560 On ch=1 n=f6 v=108
142560 On ch=1 n=c#7 v=108
142560 On ch=1 n=f7 v=108
143200 On ch=1 n=f7 v=0
143200 On ch=1 n=f6 v=0
143200 On ch=1 n=c#7 v=0
143280 On ch=1 n=e6 v=108
143280 On ch=1 n=c7 v=108
143280 On ch=1 n=e7 v=108
143515 On ch=1 n=e7 v=0
143515 On ch=1 n=c7 v=0
143515 On ch=1 n=e6 v=0
144000 On ch=1 n=c#4 v=108
144040 On ch=1 n=c#4 v=0
144060 On ch=1 n=c#5 v=108
144180 On ch=1 n=c#5 v=0
144240 On ch=1 n=c#5 v=108
144320 On ch=1 n=c#5 v=0
144480 On ch=1 n=c#5 v=108
144715 On ch=1 n=c#5 v=0
144720 On ch=1 n=a4 v=108
144760 On ch=1 n=a4 v=0
144780 On ch=1 n=a5 v=108
144900 On ch=1 n=a5 v=0
144960 On ch=1 n=a5 v=108
145040 On ch=1 n=a5 v=0
145200 On ch=1 n=a5 v=108
145435 On ch=1 n=a5 v=0
145440 On ch=1 n=f5 v=108
145480 On ch=1 n=f5 v=0
145500 On ch=1 n=f6 v=108
145620 On ch=1 n=f6 v=0
145680 On ch=1 n=f6 v=108
145760 On ch=1 n=f6 v=0
145920 On ch=1 n=f6 v=108
146155 On ch=1 n=f6 v=0
146160 On ch=1 n=d6 v=108
146200 On ch=1 n=d6 v=0
146220 On ch=1 n=d7 v=108
146340 On ch=1 n=d7 v=0
146400 On ch=1 n=d7 v=108
146480 On ch=1 n=d7 v=0
146640 On ch=1 n=d7 v=108
146875 On ch=1 n=d7 v=0
146880 On ch=1 n=a#6 v=108
146880 On ch=1 n=g7 v=108
146880 On ch=1 n=a#7 v=108
146960 On ch=1 n=a#7 v=0
146960 On ch=1 n=g7 v=0
146960 On ch=1 n=a#6 v=0
147600 On ch=1 n=c#6 v=108
147600 On ch=1 n=e6 v=108
147600 On ch=1 n=a6 v=108
147600 On ch=1 n=c#7 v=108
147680 On ch=1 n=a6 v=0
147680 On ch=1 n=e6 v=0
147680 On ch=1 n=c#7 v=0
147680 On ch=1 n=c#6 v=0
148440 On ch=1 n=d6 v=108
148440 On ch=1 n=f6 v=108
148440 On ch=1 n=a6 v=108
148440 On ch=1 n=d7 v=108
150120 On ch=1 n=d7 v=0
150120 On ch=1 n=a6 v=0
150120 On ch=1 n=f6 v=0
150120 On ch=1 n=d6 v=0
150120 On ch=1 n=c#7 v=0
150120 On ch=1 n=c#6 v=0
150120 On ch=1 n=a#6 v=0
150120 On ch=1 n=a4 v=0
150120 On ch=1 n=c#5 v=0
150120 On ch=1 n=c#5 v=0
150120 On ch=1 n=c#5 v=0
150120 On ch=1 n=c#4 v=0
150120 On ch=1 n=c#7 v=0
150120 On ch=1 n=c#7 v=0
150120 On ch=1 n=c#6 v=0
150120 On ch=1 n=c#7 v=0
150120 On ch=1 n=c#6 v=0
150120 On ch=1 n=c#6 v=0
150120 On ch=1 n=b5 v=0
150120 On ch=1 n=c#7 v=0
150120 On ch=1 n=d#6 v=0
150120 On ch=1 n=d#7 v=0
150120 On ch=1 n=f#7 v=0
150120 On ch=1 n=f#6 v=0
150120 On ch=1 n=d#7 v=0
150120 On ch=1 n=d#6 v=0
150120 On ch=1 n=d#6 v=0
150120 On ch=1 n=c#6 v=0
150120 On ch=1 n=g#6 v=0
150120 On ch=1 n=c#6 v=0
150120 On ch=1 n=g#5 v=0
150120 On ch=1 n=b5 v=0
150120 On ch=1 n=f#5 v=0
150120 On ch=1 n=d#5 v=0
150120 On ch=1 n=b4 v=0
150120 On ch=1 n=c#6 v=0
150120 On ch=1 n=f#5 v=0
150120 On ch=1 n=c#6 v=0
150120 On ch=1 n=c#6 v=0
150120 On ch=1 n=c#6 v=0
150120 On ch=1 n=c#6 v=0
150120 On ch=1 n=c#6 v=0
150120 On ch=1 n=g#5 v=0
150120 On ch=1 n=b4 v=0
150120 On ch=1 n=g#4 v=0
150120 On ch=1 n=b4 v=0
150120 On ch=1 n=g#4 v=0
150120 On ch=1 n=g#4 v=0
150120 On ch=1 n=b6 v=0
150120 Meta TrkEnd
TrkEnd
MTrk
0 SeqSpec 43 00 01 00
0 Meta TrkName "Left Hand"
0 Meta 0x21 00
0 PrCh ch=2 p=0
0 Par ch=2 c=7 v=127
0 Par ch=2 c=10 v=50
0 Par ch=2 c=64 v=0
0 On ch=2 n=d3 v=92
42 On ch=2 n=d3 v=0
60 On ch=2 n=f3 v=92
102 On ch=2 n=f3 v=0
120 On ch=2 n=a3 v=92
162 On ch=2 n=a3 v=0
180 On ch=2 n=d4 v=92
222 On ch=2 n=d4 v=0
480 On ch=2 n=d4 v=92
480 On ch=2 n=f4 v=92
480 On ch=2 n=d5 v=92
1200 On ch=2 n=d5 v=0
1200 On ch=2 n=f4 v=0
1200 On ch=2 n=d4 v=0
1200 On ch=2 n=a#3 v=92
1200 On ch=2 n=d4 v=92
1200 On ch=2 n=a#4 v=92
1840 On ch=2 n=a#4 v=0
1840 On ch=2 n=d4 v=0
1840 On ch=2 n=a#3 v=0
1920 On ch=2 n=g3 v=92
1920 On ch=2 n=a#3 v=92
1920 On ch=2 n=d4 v=92
1920 On ch=2 n=g4 v=92
2560 On ch=2 n=g4 v=0
2560 On ch=2 n=d4 v=0
2560 On ch=2 n=a#3 v=0
2560 On ch=2 n=g3 v=0
2640 On ch=2 n=a3 v=92
2640 On ch=2 n=c#4 v=92
2640 On ch=2 n=a4 v=92
3280 On ch=2 n=a4 v=0
3280 On ch=2 n=a3 v=0
3360 On ch=2 n=a#3 v=92
3360 On ch=2 n=d4 v=92
3360 On ch=2 n=a#4 v=92
4000 On ch=2 n=a#4 v=0
4000 On ch=2 n=d4 v=0
4000 On ch=2 n=a#3 v=0
4080 On ch=2 n=a3 v=92
4080 On ch=2 n=c#4 v=92
4080 On ch=2 n=a4 v=92
4720 On ch=2 n=a4 v=0
4720 On ch=2 n=a3 v=0
4800 On ch=2 n=g3 v=92
4880 On ch=2 n=a#3 v=97
4960 On ch=2 n=d4 v=102
5040 On ch=2 n=e4 v=108
5680 On ch=2 n=e4 v=0
5680 On ch=2 n=d4 v=0
5680 On ch=2 n=a#3 v=0
5680 On ch=2 n=g3 v=0
5760 On ch=2 n=d2 v=92
5800 On ch=2 n=d2 v=0
5820 On ch=2 n=d3 v=92
5940 On ch=2 n=d3 v=0
6000 On ch=2 n=d3 v=92
6080 On ch=2 n=d3 v=0
6240 On ch=2 n=d3 v=92
6475 On ch=2 n=d3 v=0
6480 On ch=2 n=a#2 v=92
6520 On ch=2 n=a#2 v=0
6540 On ch=2 n=a#3 v=92
6660 On ch=2 n=a#3 v=0
6720 On ch=2 n=a#3 v=92
6800 On ch=2 n=a#3 v=0
6960 On ch=2 n=a#3 v=92
7195 On ch=2 n=a#3 v=0
7200 On ch=2 n=g3 v=92
7255 On ch=2 n=g3 v=0
7260 On ch=2 n=g4 v=92
7380 On ch=2 n=g4 v=0
7440 On ch=2 n=g4 v=92
7520 On ch=2 n=g4 v=0
7680 On ch=2 n=g4 v=92
7915 On ch=2 n=g4 v=0
7920 On ch=2 n=e4 v=92
7975 On ch=2 n=e4 v=0
7980 On ch=2 n=e5 v=92
8100 On ch=2 n=e5 v=0
8160 On ch=2 n=e5 v=92
8240 On ch=2 n=e5 v=0
8400 On ch=2 n=a3 v=92
8400 On ch=2 n=c#4 v=92
8400 On ch=2 n=a4 v=92
9040 On ch=2 n=a4 v=0
9040 On ch=2 n=a3 v=0
9120 On ch=2 n=a#3 v=92
9120 On ch=2 n=d4 v=92
9120 On ch=2 n=a#4 v=92
9760 On ch=2 n=a#4 v=0
9760 On ch=2 n=d4 v=0
9760 On ch=2 n=a#3 v=0
9840 On ch=2 n=a3 v=92
9840 On ch=2 n=c#4 v=92
9840 On ch=2 n=a4 v=92
10480 On ch=2 n=a4 v=0
10480 On ch=2 n=a3 v=0
10560 On ch=2 n=g3 v=92
10640 On ch=2 n=a#3 v=103
10720 On ch=2 n=d4 v=115
10800 On ch=2 n=e4 v=127
11440 On ch=2 n=e4 v=0
11440 On ch=2 n=d4 v=0
11440 On ch=2 n=a#3 v=0
11440 On ch=2 n=g3 v=0
11520 On ch=2 n=d2 v=92
11520 On ch=2 n=d3 v=92
11755 On ch=2 n=d3 v=0
11755 On ch=2 n=d2 v=0
11760 On ch=2 n=f4 v=92
11760 On ch=2 n=a4 v=92
11995 On ch=2 n=a4 v=0
11995 On ch=2 n=f4 v=0
12000 On ch=2 n=c5 v=92
12000 On ch=2 n=e5 v=92
12235 On ch=2 n=e5 v=0
12235 On ch=2 n=c5 v=0
12240 On ch=2 n=e2 v=92
12240 On ch=2 n=e3 v=92
12475 On ch=2 n=e3 v=0
12475 On ch=2 n=e2 v=0
12480 On ch=2 n=a#4 v=92
12480 On ch=2 n=d5 v=92
12715 On ch=2 n=d5 v=0
12715 On ch=2 n=a#4 v=0
12720 On ch=2 n=e4 v=92
12720 On ch=2 n=g4 v=92
12955 On ch=2 n=g4 v=0
12955 On ch=2 n=e4 v=0
12960 On ch=2 n=f2 v=92
12960 On ch=2 n=f3 v=92
13195 On ch=2 n=f3 v=0
13195 On ch=2 n=f2 v=0
13200 On ch=2 n=f4 v=92
13200 On ch=2 n=a4 v=92
13435 On ch=2 n=a4 v=0
13435 On ch=2 n=f4 v=0
13440 On ch=2 n=c#5 v=92
13440 On ch=2 n=e5 v=92
13675 On ch=2 n=e5 v=0
13675 On ch=2 n=c#5 v=0
13680 On ch=2 n=a#2 v=92
13680 On ch=2 n=a#3 v=92
13915 On ch=2 n=a#3 v=0
13915 On ch=2 n=a#2 v=0
13920 On ch=2 n=f4 v=92
13920 On ch=2 n=g4 v=92
13920 On ch=2 n=a#4 v=92
13920 On ch=2 n=d5 v=92
14320 On ch=2 n=d5 v=0
14320 On ch=2 n=a#4 v=0
14320 On ch=2 n=g4 v=0
14320 On ch=2 n=f4 v=0
14400 On ch=2 n=c3 v=45
14400 On ch=2 n=c4 v=45
14800 On ch=2 n=c4 v=0
14800 On ch=2 n=c3 v=0
14880 On ch=2 n=c#3 v=45
14880 On ch=2 n=c#4 v=45
15360 On ch=2 n=d3 v=48
15360 On ch=2 n=d4 v=48
15760 On ch=2 n=d4 v=0
15760 On ch=2 n=d3 v=0
15840 On ch=2 n=d#3 v=54
15840 On ch=2 n=d#4 v=54
16240 On ch=2 n=d#4 v=0
16240 On ch=2 n=d#3 v=0
16320 On ch=2 n=d#3 v=61
16320 On ch=2 n=e4 v=61
16795 On ch=2 n=e4 v=0
16800 On ch=2 n=f3 v=67
16800 On ch=2 n=f4 v=67
17200 On ch=2 n=f4 v=0
17200 On ch=2 n=f3 v=0
17280 On ch=2 n=f#3 v=75
17280 On ch=2 n=c4 v=75
17280 On ch=2 n=f#4 v=75
17680 On ch=2 n=f#4 v=0
17680 On ch=2 n=c4 v=0
17680 On ch=2 n=f#3 v=0
17760 On ch=2 n=g3 v=75
17760 On ch=2 n=c4 v=75
17760 On ch=2 n=g4 v=75
18235 On ch=2 n=g4 v=0
18235 On ch=2 n=c4 v=0
18235 On ch=2 n=g3 v=0
18240 On ch=2 n=e3 v=87
18240 On ch=2 n=c4 v=87
18240 On ch=2 n=e4 v=87
18640 On ch=2 n=e4 v=0
18640 On ch=2 n=c4 v=0
18640 On ch=2 n=e3 v=0
18720 On ch=2 n=c#3 v=75
18720 On ch=2 n=a#3 v=75
18720 On ch=2 n=c#4 v=75
19120 On ch=2 n=a#3 v=0
19120 On ch=2 n=c#3 v=0
19120 On ch=2 n=c#4 v=0
19200 On ch=2 n=d3 v=75
19200 On ch=2 n=a#3 v=75
19200 On ch=2 n=d4 v=75
19675 On ch=2 n=d4 v=0
19675 On ch=2 n=a#3 v=0
19675 On ch=2 n=d3 v=0
19680 On ch=2 n=g2 v=92
19680 On ch=2 n=g3 v=92
20080 On ch=2 n=g3 v=0
20080 On ch=2 n=g2 v=0
20160 On ch=2 n=c2 v=45
20160 On ch=2 n=c3 v=45
20560 On ch=2 n=c3 v=0
20560 On ch=2 n=c2 v=0
20640 On ch=2 n=c4 v=50
20640 On ch=2 n=a#4 v=50
21115 On ch=2 n=a#4 v=0
21115 On ch=2 n=c4 v=0
21120 On ch=2 n=c3 v=54
21120 On ch=2 n=a#3 v=54
21520 On ch=2 n=a#3 v=0
21520 On ch=2 n=c3 v=0
21600 On ch=2 n=c2 v=59
21600 On ch=2 n=c3 v=59
22000 On ch=2 n=c3 v=0
22000 On ch=2 n=c2 v=0
22080 On ch=2 n=c4 v=64
22080 On ch=2 n=a#4 v=64
22555 On ch=2 n=a#4 v=0
22555 On ch=2 n=c4 v=0
22560 On ch=2 n=c3 v=69
22560 On ch=2 n=a3 v=69
22560 On ch=2 n=c4 v=69
22960 On ch=2 n=c4 v=0
22960 On ch=2 n=a3 v=0
22960 On ch=2 n=c3 v=0
23040 On ch=2 n=b2 v=75
23040 On ch=2 n=f3 v=75
23040 On ch=2 n=b3 v=75
23440 On ch=2 n=b3 v=0
23440 On ch=2 n=f3 v=0
23440 On ch=2 n=b2 v=0
23520 On ch=2 n=c3 v=75
23520 On ch=2 n=f3 v=75
23520 On ch=2 n=c4 v=75
23995 On ch=2 n=c4 v=0
23995 On ch=2 n=f3 v=0
23995 On ch=2 n=c3 v=0
24000 On ch=2 n=a2 v=92
24000 On ch=2 n=f3 v=92
24000 On ch=2 n=a3 v=92
24400 On ch=2 n=a3 v=0
24400 On ch=2 n=f3 v=0
24400 On ch=2 n=a2 v=0
24480 On ch=2 n=f#2 v=75
24480 On ch=2 n=f#3 v=75
24880 On ch=2 n=f#3 v=0
24880 On ch=2 n=f#2 v=0
24960 On ch=2 n=g2 v=75
24960 On ch=2 n=g3 v=75
25435 On ch=2 n=g3 v=0
25435 On ch=2 n=g2 v=0
25440 On ch=2 n=a#2 v=77
25440 On ch=2 n=a#3 v=77
25840 On ch=2 n=a#3 v=0
25840 On ch=2 n=a#2 v=0
25920 On ch=2 n=c2 v=45
25920 On ch=2 n=c3 v=45
26320 On ch=2 n=c3 v=0
26320 On ch=2 n=c2 v=0
26880 Par ch=2 c=64 v=127
26880 On ch=2 n=f4 v=92
26880 On ch=2 n=f5 v=92
27115 On ch=2 n=f5 v=0
27115 On ch=2 n=f4 v=0
27120 On ch=2 n=d4 v=87
27120 On ch=2 n=d5 v=87
27355 On ch=2 n=d5 v=0
27355 On ch=2 n=d4 v=0
27360 On ch=2 n=b3 v=81
27360 On ch=2 n=b4 v=81
27595 On ch=2 n=b4 v=0
27595 On ch=2 n=b3 v=0
27600 On ch=2 n=g#3 v=75
27600 On ch=2 n=g#4 v=75
27835 On ch=2 n=g#4 v=0
27835 On ch=2 n=g#3 v=0
27840 On ch=2 n=f3 v=69
27840 On ch=2 n=f4 v=69
28075 On ch=2 n=f4 v=0
28075 On ch=2 n=f3 v=0
28080 On ch=2 n=d3 v=63
28080 On ch=2 n=d4 v=63
28315 On ch=2 n=d4 v=0
28315 On ch=2 n=d3 v=0
28320 On ch=2 n=b2 v=57
28320 On ch=2 n=b3 v=57
28555 On ch=2 n=b3 v=0
28555 On ch=2 n=b2 v=0
28560 On ch=2 n=g#2 v=51
28560 On ch=2 n=g#3 v=51
28795 On ch=2 n=g#3 v=0
28795 On ch=2 n=g#2 v=0
28800 On ch=2 n=c2 v=45
28800 On ch=2 n=c3 v=45
29200 On ch=2 n=c3 v=0
29200 On ch=2 n=c2 v=0
29280 Par ch=2 c=64 v=0
29760 Par ch=2 c=64 v=127
29760 On ch=2 n=g4 v=75
29760 On ch=2 n=g5 v=75
29995 On ch=2 n=g5 v=0
29995 On ch=2 n=g4 v=0
30000 On ch=2 n=e4 v=72
30000 On ch=2 n=e5 v=72
30235 On ch=2 n=e5 v=0
30235 On ch=2 n=e4 v=0
30240 On ch=2 n=c#4 v=69
30240 On ch=2 n=c#5 v=69
30475 On ch=2 n=c#5 v=0
30475 On ch=2 n=c#4 v=0
30480 On ch=2 n=a#3 v=65
30480 On ch=2 n=a#4 v=65
30715 On ch=2 n=a#4 v=0
30715 On ch=2 n=a#3 v=0
30720 On ch=2 n=g3 v=61
30720 On ch=2 n=g4 v=61
30955 On ch=2 n=g4 v=0
30955 On ch=2 n=g3 v=0
30960 On ch=2 n=e3 v=57
30960 On ch=2 n=e4 v=57
31195 On ch=2 n=e4 v=0
31195 On ch=2 n=e3 v=0
31200 On ch=2 n=c#3 v=53
31200 On ch=2 n=c#4 v=53
31435 On ch=2 n=c#3 v=0
31435 On ch=2 n=c#4 v=0
31440 On ch=2 n=a#2 v=49
31440 On ch=2 n=a#3 v=49
31675 On ch=2 n=a#3 v=0
31675 On ch=2 n=a#2 v=0
31680 On ch=2 n=c2 v=45
31680 On ch=2 n=c3 v=45
32080 On ch=2 n=c3 v=0
32080 On ch=2 n=c2 v=0
32160 Par ch=2 c=64 v=0
32640 Par ch=2 c=64 v=127
32640 On ch=2 n=g#4 v=75
32640 On ch=2 n=g#5 v=75
32875 On ch=2 n=g#5 v=0
32875 On ch=2 n=g#4 v=0
32880 On ch=2 n=f4 v=72
32880 On ch=2 n=f5 v=72
33115 On ch=2 n=f5 v=0
33115 On ch=2 n=f4 v=0
33120 On ch=2 n=d4 v=69
33120 On ch=2 n=d5 v=69
33355 On ch=2 n=d5 v=0
33355 On ch=2 n=d4 v=0
33360 On ch=2 n=b3 v=65
33360 On ch=2 n=b4 v=65
33595 On ch=2 n=b4 v=0
33595 On ch=2 n=b3 v=0
33600 On ch=2 n=g#3 v=61
33600 On ch=2 n=g#4 v=61
33835 On ch=2 n=g#4 v=0
33835 On ch=2 n=g#3 v=0
33840 On ch=2 n=f3 v=57
33840 On ch=2 n=f4 v=57
34075 On ch=2 n=f4 v=0
34075 On ch=2 n=f3 v=0
34080 On ch=2 n=d3 v=53
34080 On ch=2 n=d4 v=53
34315 On ch=2 n=d4 v=0
34315 On ch=2 n=d3 v=0
34320 On ch=2 n=b2 v=49
34320 On ch=2 n=b3 v=49
34555 On ch=2 n=b3 v=0
34555 On ch=2 n=b2 v=0
34560 On ch=2 n=c2 v=45
34560 On ch=2 n=c3 v=45
34960 On ch=2 n=c3 v=0
34960 On ch=2 n=c2 v=0
35040 Par ch=2 c=64 v=0
35520 Par ch=2 c=64 v=127
35520 On ch=2 n=a#4 v=75
35520 On ch=2 n=a#5 v=75
35755 On ch=2 n=a#5 v=0
35755 On ch=2 n=a#4 v=0
35760 On ch=2 n=g4 v=79
35760 On ch=2 n=g5 v=79
35995 On ch=2 n=g5 v=0
35995 On ch=2 n=g4 v=0
36000 On ch=2 n=e4 v=83
36000 On ch=2 n=e5 v=83
36235 On ch=2 n=e5 v=0
36235 On ch=2 n=e4 v=0
36240 On ch=2 n=c#4 v=87
36240 On ch=2 n=c#5 v=87
36475 On ch=2 n=c#5 v=0
36475 On ch=2 n=c#4 v=0
36480 On ch=2 n=a#3 v=91
36480 On ch=2 n=a#4 v=91
36715 On ch=2 n=a#4 v=0
36715 On ch=2 n=a#3 v=0
36720 On ch=2 n=g3 v=95
36720 On ch=2 n=g4 v=95
36955 On ch=2 n=g4 v=0
36955 On ch=2 n=g3 v=0
36960 On ch=2 n=e3 v=99
36960 On ch=2 n=e4 v=99
37195 On ch=2 n=e4 v=0
37195 On ch=2 n=e3 v=0
37200 On ch=2 n=c#3 v=103
37200 On ch=2 n=c#4 v=103
37435 On ch=2 n=c#3 v=0
37435 On ch=2 n=c#4 v=0
37440 Par ch=2 c=64 v=0
37440 On ch=2 n=c2 v=108
37440 On ch=2 n=c3 v=108
37560 On ch=2 n=c3 v=0
37560 On ch=2 n=c2 v=0
38160 On ch=2 n=c4 v=108
38160 On ch=2 n=g4 v=108
38160 On ch=2 n=c5 v=108
38280 On ch=2 n=c5 v=0
38280 On ch=2 n=g4 v=0
38280 On ch=2 n=c4 v=0
38880 On ch=2 n=f2 v=108
38880 On ch=2 n=f3 v=108
39000 On ch=2 n=f3 v=0
39000 On ch=2 n=f2 v=0
39600 On ch=2 n=g3 v=108
39600 On ch=2 n=e4 v=108
39600 On ch=2 n=g4 v=108
41680 On ch=2 n=g4 v=0
41680 On ch=2 n=e4 v=0
41680 On ch=2 n=g3 v=0
41760 On ch=2 n=a2 v=92
41820 On ch=2 n=c#3 v=92
41820 On ch=2 n=e3 v=92
41940 On ch=2 n=a3 v=92
41980 On ch=2 n=a3 v=0
41980 On ch=2 n=a2 v=0
41980 On ch=2 n=c#3 v=0
42240 On ch=2 n=g4 v=92
42240 On ch=2 n=g5 v=92
42880 On ch=2 n=g5 v=0
42880 On ch=2 n=g4 v=0
42960 On ch=2 n=e4 v=92
42960 On ch=2 n=e5 v=92
43600 On ch=2 n=e5 v=0
43600 On ch=2 n=e4 v=0
43680 On ch=2 n=c#4 v=92
43680 On ch=2 n=c#5 v=92
44400 On ch=2 n=a3 v=92
44400 On ch=2 n=c#4 v=92
44400 On ch=2 n=a4 v=92
45040 On ch=2 n=a4 v=0
45040 On ch=2 n=a3 v=0
45120 On ch=2 n=a#3 v=92
45120 On ch=2 n=d4 v=92
45120 On ch=2 n=a#4 v=92
45760 On ch=2 n=a#4 v=0
45760 On ch=2 n=d4 v=0
45760 On ch=2 n=a#3 v=0
45840 On ch=2 n=a3 v=92
45840 On ch=2 n=c#4 v=92
45840 On ch=2 n=a4 v=92
46480 On ch=2 n=a4 v=0
46480 On ch=2 n=a3 v=0
46560 On ch=2 n=g3 v=92
46640 On ch=2 n=a#3 v=92
46720 On ch=2 n=d4 v=92
46800 On ch=2 n=e4 v=92
47440 On ch=2 n=e4 v=0
47440 On ch=2 n=d4 v=0
47440 On ch=2 n=a#3 v=0
47440 On ch=2 n=g3 v=0
47520 On ch=2 n=a2 v=45
47520 On ch=2 n=a3 v=45
47600 On ch=2 n=a3 v=0
47600 On ch=2 n=a2 v=0
48000 On ch=2 n=a2 v=45
48000 On ch=2 n=a3 v=45
48235 On ch=2 n=a3 v=0
48235 On ch=2 n=a2 v=0
48480 On ch=2 n=f4 v=45
48480 On ch=2 n=a4 v=45
48560 On ch=2 n=a4 v=0
48560 On ch=2 n=f4 v=0
48960 On ch=2 n=d4 v=45
48960 On ch=2 n=f4 v=45
48960 On ch=2 n=a4 v=45
49040 On ch=2 n=a4 v=0
49040 On ch=2 n=f4 v=0
49040 On ch=2 n=d4 v=0
49440 On ch=2 n=d4 v=45
49440 On ch=2 n=f4 v=45
49440 On ch=2 n=a4 v=45
49675 On ch=2 n=a4 v=0
49675 On ch=2 n=f4 v=0
49675 On ch=2 n=d4 v=0
49920 On ch=2 n=b3 v=45
49920 On ch=2 n=d4 v=45
49920 On ch=2 n=f4 v=45
49920 On ch=2 n=a4 v=45
50000 On ch=2 n=a4 v=0
50000 On ch=2 n=f4 v=0
50000 On ch=2 n=d4 v=0
50000 On ch=2 n=b3 v=0
50640 On ch=2 n=a2 v=45
50640 On ch=2 n=a3 v=45
50720 On ch=2 n=a3 v=0
50720 On ch=2 n=a2 v=0
51360 On ch=2 n=b3 v=56
51360 On ch=2 n=b4 v=56
51440 On ch=2 n=b4 v=0
51440 On ch=2 n=b3 v=0
52080 On ch=2 n=a2 v=74
52080 On ch=2 n=a3 v=74
52160 On ch=2 n=a3 v=0
52160 On ch=2 n=a2 v=0
52800 On ch=2 n=b3 v=92
52800 On ch=2 n=b4 v=92
52880 On ch=2 n=b4 v=0
52880 On ch=2 n=b3 v=0
53520 On ch=2 n=b3 v=92
53520 On ch=2 n=b4 v=92
53600 On ch=2 n=b4 v=0
53600 On ch=2 n=b3 v=0
54240 On ch=2 n=a3 v=92
54240 On ch=2 n=a4 v=92
54320 On ch=2 n=a4 v=0
54320 On ch=2 n=a3 v=0
54960 On ch=2 n=g3 v=92
54960 On ch=2 n=g4 v=92
55040 On ch=2 n=g4 v=0
55040 On ch=2 n=g3 v=0
55680 On ch=2 n=f3 v=92
55680 On ch=2 n=f4 v=92
55760 On ch=2 n=f4 v=0
55760 On ch=2 n=f3 v=0
56160 On ch=2 n=e3 v=127
56160 On ch=2 n=g#3 v=127
56160 On ch=2 n=e4 v=127
57520 On ch=2 n=e4 v=0
57520 On ch=2 n=e3 v=0
57600 On ch=2 n=d#3 v=72
57600 On ch=2 n=d#4 v=72
59040 On ch=2 n=c#3 v=30
59040 On ch=2 n=c#4 v=30
59120 On ch=2 n=c#3 v=0
59120 On ch=2 n=c#4 v=0
59520 On ch=2 n=c#4 v=30
59520 On ch=2 n=c#5 v=30
59755 On ch=2 n=c#5 v=0
59755 On ch=2 n=c#4 v=0
60000 On ch=2 n=c#5 v=30
60000 On ch=2 n=e5 v=30
60000 On ch=2 n=a5 v=30
60080 On ch=2 n=a5 v=0
60080 On ch=2 n=e5 v=0
60080 On ch=2 n=c#5 v=0
60480 On ch=2 n=a4 v=30
60480 On ch=2 n=c#5 v=30
60480 On ch=2 n=f#5 v=30
60560 On ch=2 n=f#5 v=0
60560 On ch=2 n=a4 v=0
60560 On ch=2 n=c#5 v=0
60960 On ch=2 n=a4 v=30
60960 On ch=2 n=c#5 v=30
60960 On ch=2 n=f#5 v=30
61195 On ch=2 n=f#5 v=0
61195 On ch=2 n=a4 v=0
61195 On ch=2 n=c#5 v=0
61440 On ch=2 n=f#4 v=30
61440 On ch=2 n=a4 v=30
61440 On ch=2 n=c#5 v=30
61440 On ch=2 n=d#5 v=30
61520 On ch=2 n=d#5 v=0
61520 On ch=2 n=a4 v=0
61520 On ch=2 n=f#4 v=0
61520 On ch=2 n=c#5 v=0
61920 On ch=2 n=f#4 v=30
61920 On ch=2 n=a4 v=30
61920 On ch=2 n=c#5 v=30
61920 On ch=2 n=d#5 v=30
62000 On ch=2 n=d#5 v=0
62000 On ch=2 n=a4 v=0
62000 On ch=2 n=f#4 v=0
62000 On ch=2 n=c#5 v=0
62400 On ch=2 n=f#4 v=42
62400 On ch=2 n=a4 v=42
62400 On ch=2 n=c#5 v=42
62400 On ch=2 n=e5 v=42
62635 On ch=2 n=e5 v=0
62635 On ch=2 n=a4 v=0
62635 On ch=2 n=f#4 v=0
62635 On ch=2 n=c#5 v=0
62880 On ch=2 n=f#4 v=30
62880 On ch=2 n=a4 v=30
62880 On ch=2 n=c#5 v=30
62880 On ch=2 n=d#5 v=30
62960 On ch=2 n=d#5 v=0
62960 On ch=2 n=a4 v=0
62960 On ch=2 n=f#4 v=0
62960 On ch=2 n=c#5 v=0
63360 On ch=2 n=g4 v=30
63360 On ch=2 n=a#4 v=30
63360 On ch=2 n=c#5 v=30
63360 On ch=2 n=d#5 v=30
63440 On ch=2 n=d#5 v=0
63440 On ch=2 n=a#4 v=0
63440 On ch=2 n=g4 v=0
63440 On ch=2 n=c#5 v=0
63840 On ch=2 n=g4 v=30
63840 On ch=2 n=a#4 v=30
63840 On ch=2 n=c#5 v=30
63840 On ch=2 n=e5 v=30
64075 On ch=2 n=e5 v=0
64075 On ch=2 n=a#4 v=0
64075 On ch=2 n=g4 v=0
64075 On ch=2 n=c#5 v=0
64320 On ch=2 n=g4 v=30
64320 On ch=2 n=a#4 v=30
64320 On ch=2 n=c#5 v=30
64320 On ch=2 n=d#5 v=30
64400 On ch=2 n=d#5 v=0
64400 On ch=2 n=a#4 v=0
64400 On ch=2 n=g4 v=0
64400 On ch=2 n=c#5 v=0
64800 On ch=2 n=g#4 v=30
64800 On ch=2 n=c5 v=30
64800 On ch=2 n=d#5 v=30
65035 On ch=2 n=d#5 v=0
65035 On ch=2 n=c5 v=0
65035 On ch=2 n=g#4 v=0
65280 On ch=2 n=g#4 v=30
65280 On ch=2 n=c5 v=30
65280 On ch=2 n=e5 v=30
65515 On ch=2 n=e5 v=0
65515 On ch=2 n=c5 v=0
65515 On ch=2 n=g#4 v=0
65760 On ch=2 n=g#4 v=30
65760 On ch=2 n=c5 v=30
65760 On ch=2 n=d#5 v=30
65840 On ch=2 n=d#5 v=0
65840 On ch=2 n=c5 v=0
65840 On ch=2 n=g#4 v=0
66240 On ch=2 n=g#4 v=45
66240 On ch=2 n=b4 v=45
66240 On ch=2 n=d#5 v=45
66240 On ch=2 n=f5 v=45
66320 On ch=2 n=f5 v=0
66320 On ch=2 n=d#5 v=0
66320 On ch=2 n=b4 v=0
66320 On ch=2 n=g#4 v=0
66720 On ch=2 n=g#4 v=76
66720 On ch=2 n=b4 v=76
66720 On ch=2 n=d#5 v=76
66720 On ch=2 n=f#5 v=76
66955 On ch=2 n=f#5 v=0
66955 On ch=2 n=d#5 v=0
66955 On ch=2 n=b4 v=0
66955 On ch=2 n=g#4 v=0
67200 On ch=2 n=g#4 v=92
67200 On ch=2 n=b4 v=92
67200 On ch=2 n=d#5 v=92
67200 On ch=2 n=f5 v=92
67280 On ch=2 n=f5 v=0
67280 On ch=2 n=d#5 v=0
67280 On ch=2 n=b4 v=0
67280 On ch=2 n=g#4 v=0
67680 On ch=2 n=b4 v=90
67680 On ch=2 n=d#5 v=90
67680 On ch=2 n=f5 v=90
67680 On ch=2 n=g#5 v=90
67760 On ch=2 n=g#5 v=0
67760 On ch=2 n=f5 v=0
67760 On ch=2 n=d#5 v=0
67760 On ch=2 n=b4 v=0
68160 On ch=2 n=b3 v=88
68160 On ch=2 n=d#4 v=88
68160 On ch=2 n=f4 v=88
68160 On ch=2 n=g#4 v=88
68395 On ch=2 n=g#4 v=0
68395 On ch=2 n=f4 v=0
68395 On ch=2 n=b3 v=0
68395 On ch=2 n=d#4 v=0
68640 On ch=2 n=a#3 v=86
68640 On ch=2 n=d4 v=86
68640 On ch=2 n=f4 v=86
68640 On ch=2 n=g#4 v=86
68720 On ch=2 n=g#4 v=0
68720 On ch=2 n=f4 v=0
68720 On ch=2 n=d4 v=0
68720 On ch=2 n=a#3 v=0
69120 On ch=2 n=a#4 v=84
69120 On ch=2 n=d#5 v=84
69120 On ch=2 n=f#5 v=84
69200 On ch=2 n=f#5 v=0
69200 On ch=2 n=d#5 v=0
69200 On ch=2 n=a#4 v=0
69600 On ch=2 n=b3 v=82
69600 On ch=2 n=c4 v=82
69600 On ch=2 n=d#4 v=82
69600 On ch=2 n=f#4 v=82
69835 On ch=2 n=f#4 v=0
69835 On ch=2 n=c4 v=0
69835 On ch=2 n=b3 v=0
69835 On ch=2 n=d#4 v=0
70080 On ch=2 n=a3 v=80
70080 On ch=2 n=c4 v=80
70080 On ch=2 n=d#4 v=80
70080 On ch=2 n=f#4 v=80
70160 On ch=2 n=f#4 v=0
70160 On ch=2 n=c4 v=0
70160 On ch=2 n=a3 v=0
70160 On ch=2 n=d#4 v=0
70560 On ch=2 n=a#4 v=78
70560 On ch=2 n=d5 v=78
70560 On ch=2 n=f5 v=78
70640 On ch=2 n=f5 v=0
70640 On ch=2 n=d5 v=0
70640 On ch=2 n=a#4 v=0
71040 On ch=2 n=f#4 v=76
71040 On ch=2 n=a#4 v=76
71040 On ch=2 n=d5 v=76
71275 On ch=2 n=d5 v=0
71275 On ch=2 n=a#4 v=0
71275 On ch=2 n=f#4 v=0
71520 On ch=2 n=f4 v=72
71520 On ch=2 n=a#4 v=72
71520 On ch=2 n=d5 v=72
71600 On ch=2 n=d5 v=0
71600 On ch=2 n=a#4 v=0
71600 On ch=2 n=f4 v=0
72000 On ch=2 n=a#3 v=66
72000 On ch=2 n=d4 v=66
72000 On ch=2 n=f4 v=66
72080 On ch=2 n=f4 v=0
72080 On ch=2 n=d4 v=0
72080 On ch=2 n=a#3 v=0
72480 On ch=2 n=f#3 v=60
72480 On ch=2 n=a#3 v=60
72480 On ch=2 n=d4 v=60
72715 On ch=2 n=d4 v=0
72715 On ch=2 n=a#3 v=0
72715 On ch=2 n=f#3 v=0
72960 On ch=2 n=f3 v=53
72960 On ch=2 n=a#3 v=53
72960 On ch=2 n=d4 v=53
73040 On ch=2 n=d4 v=0
73040 On ch=2 n=a#3 v=0
73040 On ch=2 n=f3 v=0
73440 On ch=2 n=a#1 v=45
73440 On ch=2 n=a#2 v=45
74080 On ch=2 n=a#2 v=0
74080 On ch=2 n=a#1 v=0
74400 Par ch=2 c=64 v=127
74400 On ch=2 n=f#4 v=60
74400 On ch=2 n=f#5 v=60
74635 On ch=2 n=f#5 v=0
74635 On ch=2 n=f#4 v=0
74640 On ch=2 n=d#4 v=59
74640 On ch=2 n=d#5 v=59
74875 On ch=2 n=d#5 v=0
74875 On ch=2 n=d#4 v=0
74880 On ch=2 n=c4 v=57
74880 On ch=2 n=c5 v=57
75115 On ch=2 n=c5 v=0
75115 On ch=2 n=c4 v=0
75120 On ch=2 n=a3 v=55
75120 On ch=2 n=a4 v=55
75355 On ch=2 n=a4 v=0
75355 On ch=2 n=a3 v=0
75360 On ch=2 n=f#3 v=53
75360 On ch=2 n=f#4 v=53
75595 On ch=2 n=f#4 v=0
75595 On ch=2 n=f#3 v=0
75600 On ch=2 n=d#3 v=51
75600 On ch=2 n=d#4 v=51
75835 On ch=2 n=d#4 v=0
75835 On ch=2 n=d#3 v=0
75840 On ch=2 n=c3 v=49
75840 On ch=2 n=c4 v=49
76075 On ch=2 n=c4 v=0
76075 On ch=2 n=c3 v=0
76080 On ch=2 n=a2 v=47
76080 On ch=2 n=a3 v=47
76315 On ch=2 n=a3 v=0
76315 On ch=2 n=a2 v=0
76320 On ch=2 n=a#1 v=45
76320 On ch=2 n=a#2 v=45
76960 On ch=2 n=a#2 v=0
76960 On ch=2 n=a#1 v=0
77040 Par ch=2 c=64 v=0
77280 Par ch=2 c=64 v=127
77280 On ch=2 n=g4 v=60
77280 On ch=2 n=g5 v=60
77515 On ch=2 n=g5 v=0
77515 On ch=2 n=g4 v=0
77520 On ch=2 n=e4 v=59
77520 On ch=2 n=e5 v=59
77755 On ch=2 n=e5 v=0
77755 On ch=2 n=e4 v=0
77760 On ch=2 n=c#4 v=57
77760 On ch=2 n=c#5 v=57
77995 On ch=2 n=c#5 v=0
77995 On ch=2 n=c#4 v=0
78000 On ch=2 n=a#3 v=55
78000 On ch=2 n=a#4 v=55
78235 On ch=2 n=a#4 v=0
78235 On ch=2 n=a#3 v=0
78240 On ch=2 n=g3 v=53
78240 On ch=2 n=g4 v=53
78475 On ch=2 n=g4 v=0
78475 On ch=2 n=g3 v=0
78480 On ch=2 n=e3 v=51
78480 On ch=2 n=e4 v=51
78715 On ch=2 n=e4 v=0
78715 On ch=2 n=e3 v=0
78720 On ch=2 n=c#3 v=49
78720 On ch=2 n=c#4 v=49
78955 On ch=2 n=c#3 v=0
78955 On ch=2 n=c#4 v=0
78960 On ch=2 n=a#2 v=47
78960 On ch=2 n=a#3 v=47
79195 On ch=2 n=a#3 v=0
79195 On ch=2 n=a#2 v=0
79200 On ch=2 n=a#1 v=45
79200 On ch=2 n=a#2 v=45
79840 On ch=2 n=a#2 v=0
79840 On ch=2 n=a#1 v=0
79920 Par ch=2 c=64 v=0
80160 Par ch=2 c=64 v=127
80160 On ch=2 n=g#4 v=60
80160 On ch=2 n=g#5 v=60
80395 On ch=2 n=g#5 v=0
80395 On ch=2 n=g#4 v=0
80400 On ch=2 n=f4 v=59
80400 On ch=2 n=f5 v=59
80635 On ch=2 n=f5 v=0
80635 On ch=2 n=f4 v=0
80640 On ch=2 n=d4 v=58
80640 On ch=2 n=d5 v=58
80875 On ch=2 n=d5 v=0
80875 On ch=2 n=d4 v=0
80880 On ch=2 n=b3 v=57
80880 On ch=2 n=b4 v=57
81115 On ch=2 n=b4 v=0
81115 On ch=2 n=b3 v=0
81120 On ch=2 n=g#3 v=56
81120 On ch=2 n=g#4 v=56
81355 On ch=2 n=g#4 v=0
81355 On ch=2 n=g#3 v=0
81360 On ch=2 n=f3 v=55
81360 On ch=2 n=f4 v=55
81595 On ch=2 n=f4 v=0
81595 On ch=2 n=f3 v=0
81600 On ch=2 n=d3 v=54
81600 On ch=2 n=d4 v=54
81835 On ch=2 n=d4 v=0
81835 On ch=2 n=d3 v=0
81840 On ch=2 n=b2 v=53
81840 On ch=2 n=b3 v=53
82075 On ch=2 n=b3 v=0
82075 On ch=2 n=b2 v=0
82080 On ch=2 n=a#1 v=51
82080 On ch=2 n=a#2 v=51
82720 On ch=2 n=a#2 v=0
82720 On ch=2 n=a#1 v=0
82800 Par ch=2 c=64 v=0
83040 Par ch=2 c=64 v=127
83040 On ch=2 n=a4 v=75
83040 On ch=2 n=a5 v=75
83275 On ch=2 n=a5 v=0
83275 On ch=2 n=a4 v=0
83280 On ch=2 n=f#4 v=74
83280 On ch=2 n=f#5 v=74
83515 On ch=2 n=f#5 v=0
83515 On ch=2 n=f#4 v=0
83520 On ch=2 n=d#4 v=72
83520 On ch=2 n=d#5 v=72
83755 On ch=2 n=d#5 v=0
83755 On ch=2 n=d#4 v=0
83760 On ch=2 n=c4 v=70
83760 On ch=2 n=c5 v=70
83995 On ch=2 n=c5 v=0
83995 On ch=2 n=c4 v=0
84000 On ch=2 n=a3 v=68
84000 On ch=2 n=a4 v=68
84235 On ch=2 n=a4 v=0
84235 On ch=2 n=a3 v=0
84240 On ch=2 n=f#3 v=66
84240 On ch=2 n=f#4 v=66
84475 On ch=2 n=f#4 v=0
84475 On ch=2 n=f#3 v=0
84480 On ch=2 n=d#3 v=64
84480 On ch=2 n=d#4 v=64
84715 On ch=2 n=d#4 v=0
84715 On ch=2 n=d#3 v=0
84720 On ch=2 n=c3 v=62
84720 On ch=2 n=c4 v=62
84955 On ch=2 n=c4 v=0
84955 On ch=2 n=c3 v=0
84960 On ch=2 n=a#1 v=60
84960 On ch=2 n=a#2 v=60
85600 On ch=2 n=a#2 v=0
85600 On ch=2 n=a#1 v=0
85680 Par ch=2 c=64 v=0
85920 Par ch=2 c=64 v=127
85920 On ch=2 n=a#4 v=92
85920 On ch=2 n=a#5 v=92
86155 On ch=2 n=a#5 v=0
86155 On ch=2 n=a#4 v=0
86160 On ch=2 n=g4 v=90
86160 On ch=2 n=g5 v=90
86395 On ch=2 n=g5 v=0
86395 On ch=2 n=g4 v=0
86400 On ch=2 n=e4 v=88
86400 On ch=2 n=e5 v=88
86635 On ch=2 n=e5 v=0
86635 On ch=2 n=e4 v=0
86640 On ch=2 n=c#4 v=86
86640 On ch=2 n=c#5 v=86
86875 On ch=2 n=c#5 v=0
86875 On ch=2 n=c#4 v=0
86880 On ch=2 n=a#3 v=84
86880 On ch=2 n=a#4 v=84
87115 On ch=2 n=a#4 v=0
87115 On ch=2 n=a#3 v=0
87120 On ch=2 n=g3 v=82
87120 On ch=2 n=g4 v=82
87355 On ch=2 n=g4 v=0
87355 On ch=2 n=g3 v=0
87360 On ch=2 n=e3 v=80
87360 On ch=2 n=e4 v=80
87595 On ch=2 n=e4 v=0
87595 On ch=2 n=e3 v=0
87600 On ch=2 n=c#3 v=78
87600 On ch=2 n=c#4 v=78
87835 On ch=2 n=c#3 v=0
87835 On ch=2 n=c#4 v=0
87840 On ch=2 n=a#1 v=75
87840 On ch=2 n=a#2 v=75
88480 On ch=2 n=a#2 v=0
88480 On ch=2 n=a#1 v=0
88560 Par ch=2 c=64 v=0
88800 Par ch=2 c=64 v=127
88800 On ch=2 n=c#4 v=75
88800 On ch=2 n=c#5 v=75
89035 On ch=2 n=c#5 v=0
89035 On ch=2 n=c#4 v=0
89040 On ch=2 n=a#3 v=75
89040 On ch=2 n=a#4 v=75
89275 On ch=2 n=a#4 v=0
89275 On ch=2 n=a#3 v=0
89280 On ch=2 n=g3 v=75
89280 On ch=2 n=g4 v=75
90235 On ch=2 n=g4 v=0
90235 On ch=2 n=g3 v=0
90240 On ch=2 n=e3 v=75
90240 On ch=2 n=e4 v=75
90475 On ch=2 n=e4 v=0
90475 On ch=2 n=e3 v=0
90480 On ch=2 n=c#3 v=75
90480 On ch=2 n=c#4 v=75
90715 On ch=2 n=c#3 v=0
90715 On ch=2 n=c#4 v=0
90720 Par ch=2 c=64 v=0
90720 On ch=2 n=a#2 v=75
90720 On ch=2 n=a#3 v=75
91675 On ch=2 n=a#3 v=0
91675 On ch=2 n=a#2 v=0
91680 On ch=2 n=g2 v=73
91680 On ch=2 n=g3 v=73
91915 On ch=2 n=g3 v=0
91915 On ch=2 n=g2 v=0
91920 On ch=2 n=e2 v=71
91920 On ch=2 n=e3 v=71
93115 On ch=2 n=e2 v=0
93115 On ch=2 n=e3 v=0
93120 On ch=2 n=c#2 v=59
93120 On ch=2 n=c#3 v=59
93355 On ch=2 n=c#2 v=0
93355 On ch=2 n=c#3 v=0
93360 On ch=2 n=a#1 v=57
93360 On ch=2 n=a#2 v=57
94240 On ch=2 n=a#2 v=0
94240 On ch=2 n=a#1 v=0
94320 On ch=2 n=f2 v=45
94320 On ch=2 n=f3 v=45
94720 On ch=2 n=f3 v=0
94720 On ch=2 n=f2 v=0
94800 On ch=2 n=f#2 v=45
94800 On ch=2 n=f#3 v=45
95280 On ch=2 n=g2 v=45
95280 On ch=2 n=g3 v=45
95680 On ch=2 n=g3 v=0
95680 On ch=2 n=g2 v=0
95760 On ch=2 n=g#2 v=51
95760 On ch=2 n=g#3 v=51
96160 On ch=2 n=g#2 v=0
96160 On ch=2 n=g#3 v=0
96240 On ch=2 n=a2 v=57
96240 On ch=2 n=a3 v=57
96715 On ch=2 n=a3 v=0
96715 On ch=2 n=a2 v=0
96720 On ch=2 n=a#2 v=63
96720 On ch=2 n=a#3 v=63
97120 On ch=2 n=a#3 v=0
97120 On ch=2 n=a#2 v=0
97200 On ch=2 n=b2 v=69
97200 On ch=2 n=f3 v=69
97200 On ch=2 n=b3 v=69
97600 On ch=2 n=b3 v=0
97600 On ch=2 n=f3 v=0
97600 On ch=2 n=b2 v=0
97680 On ch=2 n=c3 v=75
97680 On ch=2 n=f3 v=75
97680 On ch=2 n=c4 v=75
98155 On ch=2 n=c4 v=0
98155 On ch=2 n=f3 v=0
98155 On ch=2 n=c3 v=0
98160 On ch=2 n=a2 v=87
98160 On ch=2 n=f3 v=87
98160 On ch=2 n=a3 v=87
98560 On ch=2 n=a3 v=0
98560 On ch=2 n=f3 v=0
98560 On ch=2 n=a2 v=0
98640 On ch=2 n=f#2 v=75
98640 On ch=2 n=f#3 v=75
99040 On ch=2 n=f#3 v=0
99040 On ch=2 n=f#2 v=0
99120 On ch=2 n=g2 v=75
99120 On ch=2 n=g3 v=75
99595 On ch=2 n=g3 v=0
99595 On ch=2 n=g2 v=0
99600 On ch=2 n=c3 v=87
99600 On ch=2 n=c4 v=87
100000 On ch=2 n=c4 v=0
100000 On ch=2 n=c3 v=0
100080 On ch=2 n=f2 v=45
100080 On ch=2 n=f3 v=45
100480 On ch=2 n=f3 v=0
100480 On ch=2 n=f2 v=0
100560 On ch=2 n=f4 v=45
100560 On ch=2 n=d#5 v=45
101035 On ch=2 n=f4 v=0
101040 On ch=2 n=f3 v=48
101040 On ch=2 n=d#4 v=48
101440 On ch=2 n=f3 v=0
101440 On ch=2 n=d#4 v=0
101520 On ch=2 n=f2 v=54
101520 On ch=2 n=f3 v=54
101920 On ch=2 n=f3 v=0
101920 On ch=2 n=f2 v=0
102000 On ch=2 n=f4 v=61
102000 On ch=2 n=d#5 v=61
102475 On ch=2 n=f4 v=0
102480 On ch=2 n=f3 v=67
102480 On ch=2 n=d4 v=67
102480 On ch=2 n=f4 v=67
102880 On ch=2 n=f4 v=0
102880 On ch=2 n=d4 v=0
102880 On ch=2 n=f3 v=0
102960 On ch=2 n=e3 v=75
102960 On ch=2 n=a#3 v=75
102960 On ch=2 n=e4 v=75
103360 On ch=2 n=e4 v=0
103360 On ch=2 n=a#3 v=0
103360 On ch=2 n=e3 v=0
103440 On ch=2 n=f3 v=75
103440 On ch=2 n=a#3 v=75
103440 On ch=2 n=f4 v=75
103915 On ch=2 n=f4 v=0
103915 On ch=2 n=a#3 v=0
103915 On ch=2 n=f3 v=0
103920 On ch=2 n=d3 v=87
103920 On ch=2 n=a#3 v=87
103920 On ch=2 n=d4 v=87
104320 On ch=2 n=d4 v=0
104320 On ch=2 n=a#3 v=0
104320 On ch=2 n=d3 v=0
104400 On ch=2 n=b2 v=75
104400 On ch=2 n=b3 v=75
104800 On ch=2 n=b3 v=0
104800 On ch=2 n=b2 v=0
104880 On ch=2 n=c3 v=75
104880 On ch=2 n=c4 v=75
105355 On ch=2 n=c4 v=0
105355 On ch=2 n=c3 v=0
105360 On ch=2 n=d#3 v=87
105360 On ch=2 n=d#4 v=87
105760 On ch=2 n=d#4 v=0
105760 On ch=2 n=d#3 v=0
105840 On ch=2 n=f2 v=75
105840 On ch=2 n=f3 v=75
106240 On ch=2 n=f3 v=0
106240 On ch=2 n=f2 v=0
106800 On ch=2 n=a#4 v=92
106800 On ch=2 n=a#5 v=92
107035 On ch=2 n=a#5 v=0
107035 On ch=2 n=a#4 v=0
107040 On ch=2 n=g4 v=87
107040 On ch=2 n=g5 v=87
107275 On ch=2 n=g5 v=0
107275 On ch=2 n=g4 v=0
107280 On ch=2 n=e4 v=81
107280 On ch=2 n=e5 v=81
107515 On ch=2 n=e5 v=0
107515 On ch=2 n=e4 v=0
107520 On ch=2 n=c#4 v=75
107520 On ch=2 n=c#5 v=75
107755 On ch=2 n=c#5 v=0
107755 On ch=2 n=c#4 v=0
107760 On ch=2 n=a#3 v=69
107760 On ch=2 n=a#4 v=69
107995 On ch=2 n=a#4 v=0
107995 On ch=2 n=a#3 v=0
108000 On ch=2 n=g3 v=63
108000 On ch=2 n=g4 v=63
108235 On ch=2 n=g4 v=0
108235 On ch=2 n=g3 v=0
108240 On ch=2 n=e3 v=57
108240 On ch=2 n=e4 v=57
108475 On ch=2 n=e4 v=0
108475 On ch=2 n=e3 v=0
108480 On ch=2 n=c#3 v=51
108480 On ch=2 n=c#4 v=51
108715 On ch=2 n=c#3 v=0
108715 On ch=2 n=c#4 v=0
108720 On ch=2 n=f2 v=45
108720 On ch=2 n=f3 v=45
109120 On ch=2 n=f3 v=0
109120 On ch=2 n=f2 v=0
109680 Par ch=2 c=64 v=127
109680 On ch=2 n=c5 v=92
109680 On ch=2 n=c6 v=92
109915 On ch=2 n=c6 v=0
109915 On ch=2 n=c5 v=0
109920 On ch=2 n=a4 v=86
109920 On ch=2 n=a5 v=86
110155 On ch=2 n=a5 v=0
110155 On ch=2 n=a4 v=0
110160 On ch=2 n=f#4 v=80
110160 On ch=2 n=f#5 v=80
110395 On ch=2 n=f#5 v=0
110395 On ch=2 n=f#4 v=0
110400 On ch=2 n=d#4 v=73
110400 On ch=2 n=d#5 v=73
110635 On ch=2 n=d#4 v=0
110635 On ch=2 n=d#5 v=0
110640 On ch=2 n=c4 v=66
110640 On ch=2 n=c5 v=66
110875 On ch=2 n=c5 v=0
110875 On ch=2 n=c4 v=0
110880 On ch=2 n=a3 v=59
110880 On ch=2 n=a4 v=59
111115 On ch=2 n=a4 v=0
111115 On ch=2 n=a3 v=0
111120 On ch=2 n=f#3 v=52
111120 On ch=2 n=f#4 v=52
111355 On ch=2 n=f#4 v=0
111355 On ch=2 n=f#3 v=0
111360 On ch=2 n=d#3 v=45
111360 On ch=2 n=d#4 v=45
111595 On ch=2 n=d#4 v=0
111595 On ch=2 n=d#3 v=0
111600 Par ch=2 c=64 v=0
111600 On ch=2 n=f2 v=45
111600 On ch=2 n=f3 v=45
112000 On ch=2 n=f3 v=0
112000 On ch=2 n=f2 v=0
112560 Par ch=2 c=64 v=127
112560 On ch=2 n=c#5 v=92
112560 On ch=2 n=c#6 v=92
112795 On ch=2 n=c#6 v=0
112795 On ch=2 n=c#5 v=0
112800 On ch=2 n=a#4 v=87
112800 On ch=2 n=a#5 v=87
113035 On ch=2 n=a#5 v=0
113035 On ch=2 n=a#4 v=0
113040 On ch=2 n=g4 v=81
113040 On ch=2 n=g5 v=81
113275 On ch=2 n=g5 v=0
113275 On ch=2 n=g4 v=0
113280 On ch=2 n=e4 v=75
113280 On ch=2 n=e5 v=75
113515 On ch=2 n=e5 v=0
113515 On ch=2 n=e4 v=0
113520 On ch=2 n=c#4 v=69
113520 On ch=2 n=c#5 v=69
113755 On ch=2 n=c#5 v=0
113755 On ch=2 n=c#4 v=0
113760 On ch=2 n=a#3 v=63
113760 On ch=2 n=a#4 v=63
113995 On ch=2 n=a#4 v=0
113995 On ch=2 n=a#3 v=0
114000 On ch=2 n=g3 v=57
114000 On ch=2 n=g4 v=57
114235 On ch=2 n=g4 v=0
114235 On ch=2 n=g3 v=0
114240 On ch=2 n=e3 v=51
114240 On ch=2 n=e4 v=51
114475 On ch=2 n=e4 v=0
114475 On ch=2 n=e3 v=0
114480 On ch=2 n=f2 v=45
114480 On ch=2 n=f3 v=45
114880 On ch=2 n=f3 v=0
114880 On ch=2 n=f2 v=0
114960 Par ch=2 c=64 v=0
115440 Par ch=2 c=64 v=127
115440 On ch=2 n=d#5 v=45
115440 On ch=2 n=d#6 v=45
115675 On ch=2 n=d#6 v=0
115675 On ch=2 n=d#5 v=0
115680 On ch=2 n=c5 v=52
115680 On ch=2 n=c6 v=52
115915 On ch=2 n=c6 v=0
115915 On ch=2 n=c5 v=0
115920 On ch=2 n=a4 v=60
115920 On ch=2 n=a5 v=60
116155 On ch=2 n=a5 v=0
116155 On ch=2 n=a4 v=0
116160 On ch=2 n=f#4 v=68
116160 On ch=2 n=f#5 v=68
116395 On ch=2 n=f#5 v=0
116395 On ch=2 n=f#4 v=0
116400 On ch=2 n=d#4 v=76
116400 On ch=2 n=d#5 v=76
116635 On ch=2 n=d#4 v=0
116635 On ch=2 n=d#5 v=0
116640 On ch=2 n=c4 v=84
116640 On ch=2 n=c5 v=84
116875 On ch=2 n=c5 v=0
116875 On ch=2 n=c4 v=0
116880 On ch=2 n=a3 v=92
116880 On ch=2 n=a4 v=92
117115 On ch=2 n=a4 v=0
117115 On ch=2 n=a3 v=0
117120 On ch=2 n=f#3 v=100
117120 On ch=2 n=f#4 v=100
117355 On ch=2 n=f#4 v=0
117355 On ch=2 n=f#3 v=0
117360 Par ch=2 c=64 v=0
117360 On ch=2 n=f2 v=108
117360 On ch=2 n=f3 v=108
117480 On ch=2 n=f3 v=0
117480 On ch=2 n=f2 v=0
118080 On ch=2 n=f#3 v=108
118080 On ch=2 n=c4 v=108
118080 On ch=2 n=f#4 v=108
118200 On ch=2 n=f#4 v=0
118200 On ch=2 n=c4 v=0
118200 On ch=2 n=f#3 v=0
118800 On ch=2 n=g2 v=108
118800 On ch=2 n=g3 v=108
118920 On ch=2 n=g3 v=0
118920 On ch=2 n=g2 v=0
119520 On ch=2 n=g#3 v=108
119520 On ch=2 n=d4 v=108
119520 On ch=2 n=a#4 v=108
121600 On ch=2 n=a#4 v=0
121600 On ch=2 n=d4 v=0
121680 On ch=2 n=a2 v=108
121680 On ch=2 n=c#3 v=108
121680 On ch=2 n=e3 v=108
121680 On ch=2 n=a3 v=108
122800 On ch=2 n=a3 v=0
122800 On ch=2 n=a2 v=0
122800 On ch=2 n=e3 v=0
122880 On ch=2 n=e5 v=108
122880 On ch=2 n=a5 v=108
122880 On ch=2 n=c#6 v=108
123115 On ch=2 n=c#6 v=0
123115 On ch=2 n=a5 v=0
123115 On ch=2 n=e5 v=0
123360 On ch=2 n=b4 v=108
123360 On ch=2 n=d5 v=108
123360 On ch=2 n=g#5 v=108
123440 On ch=2 n=g#5 v=0
123440 On ch=2 n=d5 v=0
123440 On ch=2 n=b4 v=0
123840 On ch=2 n=a3 v=108
123840 On ch=2 n=d4 v=108
123840 On ch=2 n=f4 v=108
123920 On ch=2 n=f4 v=0
123920 On ch=2 n=d4 v=0
123920 On ch=2 n=a3 v=0
124320 On ch=2 n=a1 v=108
124320 On ch=2 n=a2 v=108
125920 On ch=2 n=a2 v=0
125920 On ch=2 n=a1 v=0
126000 On ch=2 n=d2 v=92
126060 On ch=2 n=f2 v=92
126120 On ch=2 n=a2 v=92
126180 On ch=2 n=d3 v=92
126220 On ch=2 n=d3 v=0
126220 On ch=2 n=a2 v=0
126220 On ch=2 n=f2 v=0
126220 On ch=2 n=d2 v=0
126480 On ch=2 n=d4 v=92
126480 On ch=2 n=f4 v=92
126480 On ch=2 n=d5 v=92
127120 On ch=2 n=d5 v=0
127120 On ch=2 n=f4 v=0
127120 On ch=2 n=d4 v=0
127200 On ch=2 n=a#3 v=92
127200 On ch=2 n=d4 v=92
127200 On ch=2 n=a#4 v=92
127840 On ch=2 n=a#4 v=0
127840 On ch=2 n=d4 v=0
127840 On ch=2 n=a#3 v=0
127920 On ch=2 n=g3 v=92
127920 On ch=2 n=a#3 v=92
127920 On ch=2 n=d4 v=92
127920 On ch=2 n=g4 v=92
128560 On ch=2 n=g4 v=0
128560 On ch=2 n=d4 v=0
128560 On ch=2 n=a#3 v=0
128560 On ch=2 n=g3 v=0
128640 On ch=2 n=a3 v=92
128640 On ch=2 n=c#4 v=92
128640 On ch=2 n=a4 v=92
129280 On ch=2 n=a4 v=0
129280 On ch=2 n=a3 v=0
129360 On ch=2 n=a#3 v=92
129360 On ch=2 n=d4 v=92
129360 On ch=2 n=a#4 v=92
130000 On ch=2 n=a#4 v=0
130000 On ch=2 n=d4 v=0
130000 On ch=2 n=a#3 v=0
130080 On ch=2 n=a3 v=92
130080 On ch=2 n=c#4 v=92
130080 On ch=2 n=a4 v=92
130720 On ch=2 n=a4 v=0
130720 On ch=2 n=a3 v=0
130800 On ch=2 n=b3 v=92
130800 On ch=2 n=d4 v=92
130800 On ch=2 n=g4 v=92
130800 On ch=2 n=b4 v=92
131440 On ch=2 n=g4 v=0
131440 On ch=2 n=d4 v=0
131520 On ch=2 n=c4 v=92
131520 On ch=2 n=e4 v=92
131520 On ch=2 n=g4 v=92
131520 On ch=2 n=c5 v=92
132160 On ch=2 n=c5 v=0
132160 On ch=2 n=g4 v=0
132160 On ch=2 n=e4 v=0
132160 On ch=2 n=c4 v=0
132240 On ch=2 n=c#4 v=95
132240 On ch=2 n=f4 v=95
132240 On ch=2 n=g4 v=95
132240 On ch=2 n=c#5 v=95
132880 On ch=2 n=g4 v=0
132880 On ch=2 n=f4 v=0
132960 On ch=2 n=c4 v=98
132960 On ch=2 n=e4 v=98
132960 On ch=2 n=g4 v=98
132960 On ch=2 n=c5 v=98
133435 On ch=2 n=c5 v=0
133435 On ch=2 n=g4 v=0
133435 On ch=2 n=e4 v=0
133435 On ch=2 n=c4 v=0
133440 On ch=2 n=c#4 v=100
133440 On ch=2 n=e4 v=100
133440 On ch=2 n=g4 v=100
133440 On ch=2 n=c#5 v=100
133840 On ch=2 n=g4 v=0
133840 On ch=2 n=e4 v=0
133840 On ch=2 n=c#5 v=0
133840 On ch=2 n=c#4 v=0
133920 On ch=2 n=d4 v=103
133920 On ch=2 n=g4 v=103
133920 On ch=2 n=a#4 v=103
133920 On ch=2 n=d5 v=103
134320 On ch=2 n=d5 v=0
134320 On ch=2 n=a#4 v=0
134320 On ch=2 n=g4 v=0
134320 On ch=2 n=d4 v=0
134400 On ch=2 n=e4 v=106
134400 On ch=2 n=g4 v=106
134400 On ch=2 n=c#5 v=106
134400 On ch=2 n=e5 v=106
134875 On ch=2 n=e5 v=0
134875 On ch=2 n=g4 v=0
134875 On ch=2 n=e4 v=0
134880 On ch=2 n=f4 v=108
134880 On ch=2 n=a4 v=108
134880 On ch=2 n=d5 v=108
134880 On ch=2 n=f5 v=108
135280 On ch=2 n=f5 v=0
135280 On ch=2 n=d5 v=0
135280 On ch=2 n=a4 v=0
135280 On ch=2 n=f4 v=0
135360 On ch=2 n=g4 v=108
135420 On ch=2 n=a#4 v=108
135480 On ch=2 n=e5 v=108
135540 On ch=2 n=g5 v=108
135580 On ch=2 n=g5 v=0
135580 On ch=2 n=e5 v=0
135580 On ch=2 n=a#4 v=0
135580 On ch=2 n=g4 v=0
136080 On ch=2 n=e4 v=108
136140 On ch=2 n=g4 v=108
136200 On ch=2 n=a#4 v=108
136260 On ch=2 n=e5 v=108
136315 On ch=2 n=e5 v=0
136315 On ch=2 n=a#4 v=0
136315 On ch=2 n=g4 v=0
136315 On ch=2 n=e4 v=0
136800 On ch=2 n=a4 v=108
136860 On ch=2 n=e5 v=108
136920 On ch=2 n=a5 v=108
137020 On ch=2 n=a5 v=0
137020 On ch=2 n=e5 v=0
137020 On ch=2 n=a4 v=0
137520 On ch=2 n=a1 v=108
137560 On ch=2 n=a1 v=0
137580 On ch=2 n=a2 v=108
137700 On ch=2 n=a2 v=0
137760 On ch=2 n=a2 v=108
137840 On ch=2 n=a2 v=0
138000 On ch=2 n=a2 v=108
138235 On ch=2 n=a2 v=0
138240 On ch=2 n=f2 v=108
138280 On ch=2 n=f2 v=0
138300 On ch=2 n=f3 v=108
138420 On ch=2 n=f3 v=0
138480 On ch=2 n=f3 v=108
138560 On ch=2 n=f3 v=0
138720 On ch=2 n=f3 v=108
138955 On ch=2 n=f3 v=0
138960 On ch=2 n=d3 v=108
139000 On ch=2 n=d3 v=0
139020 On ch=2 n=d4 v=108
139140 On ch=2 n=d4 v=0
139200 On ch=2 n=d4 v=108
139280 On ch=2 n=d4 v=0
139440 On ch=2 n=d4 v=108
139675 On ch=2 n=d4 v=0
139680 On ch=2 n=a#3 v=108
139720 On ch=2 n=a#3 v=0
139740 On ch=2 n=a#4 v=108
139860 On ch=2 n=a#4 v=0
139920 On ch=2 n=a#4 v=108
140000 On ch=2 n=a#4 v=0
140160 On ch=2 n=a#4 v=108
140395 On ch=2 n=a#4 v=0
140400 On ch=2 n=g4 v=108
140440 On ch=2 n=g4 v=0
140460 On ch=2 n=g5 v=108
140580 On ch=2 n=g5 v=0
141120 On ch=2 n=e4 v=108
141180 On ch=2 n=g4 v=108
141240 On ch=2 n=a#4 v=108
141300 On ch=2 n=e5 v=108
141340 On ch=2 n=e5 v=0
141340 On ch=2 n=a#4 v=0
141340 On ch=2 n=g4 v=0
141340 On ch=2 n=e4 v=0
141840 On ch=2 n=g4 v=108
141900 On ch=2 n=a#4 v=108
141960 On ch=2 n=d5 v=108
141960 On ch=2 n=g5 v=108
142060 On ch=2 n=g5 v=0
142060 On ch=2 n=d5 v=0
142060 On ch=2 n=a#4 v=0
142060 On ch=2 n=g4 v=0
142560 On ch=2 n=a4 v=108
142620 On ch=2 n=c#5 v=108
142680 On ch=2 n=a5 v=108
142780 On ch=2 n=a5 v=0
142780 On ch=2 n=a4 v=0
142780 On ch=2 n=c#5 v=0
143280 On ch=2 n=c#2 v=108
143320 On ch=2 n=c#2 v=0
143340 On ch=2 n=c#3 v=108
143460 On ch=2 n=c#3 v=0
143520 On ch=2 n=c#3 v=108
143600 On ch=2 n=c#3 v=0
143760 On ch=2 n=c#3 v=108
143995 On ch=2 n=c#3 v=0
144000 On ch=2 n=a2 v=108
144040 On ch=2 n=a2 v=0
144060 On ch=2 n=a3 v=108
144180 On ch=2 n=a3 v=0
144240 On ch=2 n=a3 v=108
144320 On ch=2 n=a3 v=0
144480 On ch=2 n=a3 v=108
144715 On ch=2 n=a3 v=0
144720 On ch=2 n=f3 v=108
144760 On ch=2 n=f3 v=0
144780 On ch=2 n=f4 v=108
144900 On ch=2 n=f4 v=0
144960 On ch=2 n=f4 v=108
145040 On ch=2 n=f4 v=0
145200 On ch=2 n=f4 v=108
145435 On ch=2 n=f4 v=0
145440 On ch=2 n=d4 v=108
145480 On ch=2 n=d4 v=0
145500 On ch=2 n=d5 v=108
145620 On ch=2 n=d5 v=0
145680 On ch=2 n=d5 v=108
145760 On ch=2 n=d5 v=0
145920 On ch=2 n=d5 v=108
146155 On ch=2 n=d5 v=0
146160 On ch=2 n=a#4 v=108
146200 On ch=2 n=a#4 v=0
146220 On ch=2 n=a#5 v=108
146340 On ch=2 n=a#5 v=0
146880 On ch=2 n=g2 v=108
146940 On ch=2 n=a#2 v=108
147000 On ch=2 n=d3 v=108
147060 On ch=2 n=g3 v=108
147100 On ch=2 n=g3 v=0
147100 On ch=2 n=d3 v=0
147100 On ch=2 n=a#2 v=0
147100 On ch=2 n=g2 v=0
147600 On ch=2 n=a3 v=108
147660 On ch=2 n=c#4 v=108
147720 On ch=2 n=e4 v=108
147780 On ch=2 n=a4 v=108
147820 On ch=2 n=a4 v=0
147820 On ch=2 n=e4 v=0
147820 On ch=2 n=a3 v=0
147820 On ch=2 n=c#4 v=0
148320 On ch=2 n=d2 v=108
148375 On ch=2 n=d2 v=0
148380 On ch=2 n=d3 v=108
148435 On ch=2 n=d3 v=0
148440 On ch=2 n=d4 v=108
148440 On ch=2 n=f4 v=108
148440 On ch=2 n=a4 v=108
148440 On ch=2 n=d5 v=108
150120 On ch=2 n=d5 v=0
150120 On ch=2 n=a4 v=0
150120 On ch=2 n=f4 v=0
150120 On ch=2 n=d4 v=0
150120 On ch=2 n=c#4 v=0
150120 On ch=2 n=c#3 v=0
150120 On ch=2 n=c#3 v=0
150120 On ch=2 n=c#5 v=0
150120 On ch=2 n=c#5 v=0
150120 On ch=2 n=c#5 v=0
150120 On ch=2 n=c#4 v=0
150120 On ch=2 n=c#4 v=0
150120 On ch=2 n=b4 v=0
150120 On ch=2 n=b3 v=0
150120 On ch=2 n=c#4 v=0
150120 On ch=2 n=c#4 v=0
150120 On ch=2 n=e3 v=0
150120 On ch=2 n=g#3 v=0
150120 On ch=2 n=f#3 v=0
150120 On ch=2 n=d#5 v=0
150120 On ch=2 n=d#4 v=0
150120 On ch=2 n=d#5 v=0
150120 On ch=2 n=c#4 v=0
150120 On ch=2 n=d#3 v=0
150120 On ch=2 n=c#4 v=0
150120 On ch=2 n=c#4 v=0
150120 On ch=2 n=d#3 v=0
150120 On ch=2 n=f#2 v=0
150120 On ch=2 n=g#3 v=0
150120 On ch=2 n=c#4 v=0
150120 On ch=2 n=c#4 v=0
150120 On ch=2 n=c#4 v=0
150120 Meta TrkEnd
TrkEnd
