MFile 1 3 480
MTrk
0 Tempo 660534
0 TimeSig 6/8 24 8
17280 Tempo 660534
50735 Tempo 672957
50830 Tempo 685744
50927 Tempo 698914
51022 Tempo 712482
51120 Tempo 923076
51215 Tempo 937500
51310 Tempo 952380
51407 Tempo 967741
51502 Tempo 983606
51600 Tempo 1000000
51695 Tempo 1016949
51790 Tempo 1034482
51887 Tempo 1052631
51982 Tempo 1071428
52080 Tempo 1090909
52080 Tempo 660534
54887 Tempo 672957
55055 Tempo 685744
55222 Tempo 698914
55390 Tempo 712482
55557 Tempo 923076
55727 Tempo 937500
55895 Tempo 952380
56062 Tempo 967741
56230 Tempo 983606
56400 Tempo 1000000
57360 Tempo 660534
67847 Tempo 672957
68015 Tempo 685744
68182 Tempo 698914
68350 Tempo 712482
68517 Tempo 923076
68687 Tempo 937500
68855 Tempo 952380
69022 Tempo 967741
69190 Tempo 983606
69360 Tempo 1000000
69360 Tempo 660534
88175 Tempo 672957
88270 Tempo 685744
88367 Tempo 698914
88462 Tempo 712482
88560 Tempo 923076
88655 Tempo 937500
88750 Tempo 952380
88847 Tempo 967741
88942 Tempo 983606
89040 Tempo 1000000
89135 Tempo 1016949
89230 Tempo 1034482
89327 Tempo 1052631
89422 Tempo 1071428
89520 Tempo 1090909
89520 Tempo 660534
92327 Tempo 672957
92495 Tempo 685744
92662 Tempo 698914
92830 Tempo 712482
92997 Tempo 923076
93167 Tempo 937500
93335 Tempo 952380
93502 Tempo 967741
93670 Tempo 983606
93840 Tempo 1000000
94800 Tempo 660534
103680 Tempo 660534
103680 Meta TrkEnd
TrkEnd
MTrk
0 SeqSpec 43 00 01 00
0 Meta TrkName "Right Hand"
0 Meta 0x21 00
0 PrCh ch=1 p=0
0 Par ch=1 c=7 v=127
0 Par ch=1 c=10 v=80
0 Par ch=1 c=64 v=127
0 On ch=1 n=b4 v=45
0 On ch=1 n=g5 v=45
0 On ch=1 n=b5 v=45
235 On ch=1 n=b5 v=0
235 On ch=1 n=g5 v=0
235 On ch=1 n=b4 v=0
240 On ch=1 n=c6 v=45
475 On ch=1 n=c6 v=0
480 Par ch=1 c=64 v=0
480 Par ch=1 c=64 v=127
720 On ch=1 n=b5 v=45
720 On ch=1 n=e6 v=45
720 On ch=1 n=g6 v=45
955 On ch=1 n=g6 v=0
955 On ch=1 n=e6 v=0
955 On ch=1 n=b5 v=0
960 On ch=1 n=a#5 v=45
1195 On ch=1 n=a#5 v=0
1200 Par ch=1 c=64 v=0
1200 Par ch=1 c=64 v=127
1440 On ch=1 n=b4 v=45
1440 On ch=1 n=g5 v=45
1440 On ch=1 n=b5 v=45
1675 On ch=1 n=b5 v=0
1675 On ch=1 n=g5 v=0
1675 On ch=1 n=b4 v=0
1680 On ch=1 n=c6 v=45
1915 On ch=1 n=c6 v=0
1920 Par ch=1 c=64 v=0
1920 Par ch=1 c=64 v=127
2160 On ch=1 n=b5 v=45
2160 On ch=1 n=e6 v=45
2160 On ch=1 n=g6 v=45
2395 On ch=1 n=g6 v=0
2395 On ch=1 n=e6 v=0
2395 On ch=1 n=b5 v=0
2400 On ch=1 n=e5 v=45
2635 On ch=1 n=e5 v=0
2640 Par ch=1 c=64 v=0
2640 Par ch=1 c=64 v=127
2880 On ch=1 n=c5 v=45
2880 On ch=1 n=a5 v=45
2880 On ch=1 n=c6 v=45
3115 On ch=1 n=c6 v=0
3115 On ch=1 n=a5 v=0
3115 On ch=1 n=c5 v=0
3120 On ch=1 n=d6 v=45
3355 On ch=1 n=d6 v=0
3360 Par ch=1 c=64 v=0
3360 Par ch=1 c=64 v=127
3600 On ch=1 n=c6 v=45
3600 On ch=1 n=f#6 v=45
3600 On ch=1 n=a6 v=45
3835 On ch=1 n=a6 v=0
3835 On ch=1 n=f#6 v=0
3835 On ch=1 n=c6 v=0
3840 On ch=1 n=b5 v=45
4075 On ch=1 n=b5 v=0
4080 Par ch=1 c=64 v=0
4080 Par ch=1 c=64 v=127
4320 On ch=1 n=c5 v=45
4320 On ch=1 n=a5 v=45
4320 On ch=1 n=c6 v=45
4555 On ch=1 n=c6 v=0
4555 On ch=1 n=a5 v=0
4555 On ch=1 n=c5 v=0
4560 On ch=1 n=d6 v=45
4795 On ch=1 n=d6 v=0
4800 Par ch=1 c=64 v=0
4800 Par ch=1 c=64 v=127
5040 On ch=1 n=c6 v=45
5040 On ch=1 n=f#6 v=45
5040 On ch=1 n=a6 v=45
5275 On ch=1 n=a6 v=0
5275 On ch=1 n=f#6 v=0
5275 On ch=1 n=c6 v=0
5280 On ch=1 n=f#5 v=45
5515 On ch=1 n=f#5 v=0
5520 Par ch=1 c=64 v=0
5520 Par ch=1 c=64 v=127
5760 Par ch=1 c=64 v=0
5760 Par ch=1 c=64 v=127
5760 On ch=1 n=d5 v=45
5760 On ch=1 n=b5 v=45
5760 On ch=1 n=d6 v=45
5995 On ch=1 n=d6 v=0
5995 On ch=1 n=b5 v=0
5995 On ch=1 n=d5 v=0
6000 Par ch=1 c=64 v=0
6000 On ch=1 n=e6 v=47
6235 On ch=1 n=e6 v=0
6480 Par ch=1 c=64 v=127
6480 On ch=1 n=d6 v=51
6480 On ch=1 n=g#6 v=51
6480 On ch=1 n=b6 v=51
6715 On ch=1 n=b6 v=0
6715 On ch=1 n=g#6 v=0
6715 On ch=1 n=d6 v=0
6720 On ch=1 n=g#5 v=54
6955 On ch=1 n=g#5 v=0
6960 Par ch=1 c=64 v=0
6960 Par ch=1 c=64 v=127
7200 On ch=1 n=e5 v=60
7200 On ch=1 n=c6 v=60
7200 On ch=1 n=e6 v=60
7435 On ch=1 n=e6 v=0
7435 On ch=1 n=c6 v=0
7435 On ch=1 n=e5 v=0
7440 On ch=1 n=f6 v=63
7675 On ch=1 n=f6 v=0
7680 Par ch=1 c=64 v=0
7680 Par ch=1 c=64 v=127
7920 On ch=1 n=e6 v=69
7920 On ch=1 n=a#6 v=69
7920 On ch=1 n=c#7 v=69
8155 On ch=1 n=c#7 v=0
8155 On ch=1 n=a#6 v=0
8155 On ch=1 n=e6 v=0
8160 On ch=1 n=a#5 v=72
8395 On ch=1 n=a#5 v=0
8400 Par ch=1 c=64 v=0
8400 Par ch=1 c=64 v=127
8640 On ch=1 n=f5 v=75
8640 On ch=1 n=d6 v=75
8640 On ch=1 n=f6 v=75
8875 On ch=1 n=f6 v=0
8875 On ch=1 n=d6 v=0
8875 On ch=1 n=f5 v=0
8880 On ch=1 n=g6 v=75
9115 On ch=1 n=g6 v=0
9120 Par ch=1 c=64 v=0
9120 Par ch=1 c=64 v=127
9360 On ch=1 n=f#6 v=72
9360 On ch=1 n=c#7 v=72
9595 On ch=1 n=c#7 v=0
9600 On ch=1 n=g5 v=69
9835 On ch=1 n=g5 v=0
9835 On ch=1 n=f#6 v=0
9840 Par ch=1 c=64 v=0
9840 Par ch=1 c=64 v=127
10080 On ch=1 n=e6 v=63
10080 On ch=1 n=b6 v=63
10315 On ch=1 n=b6 v=0
10320 On ch=1 n=f#5 v=60
10555 On ch=1 n=f#5 v=0
10555 On ch=1 n=e6 v=0
10560 Par ch=1 c=64 v=0
10560 Par ch=1 c=64 v=0
10560 Par ch=1 c=64 v=127
10800 On ch=1 n=d6 v=54
10800 On ch=1 n=a#6 v=54
11275 On ch=1 n=d6 v=0
11280 On ch=1 n=c#6 v=48
11440 On ch=1 n=a#6 v=0
11515 On ch=1 n=c#6 v=0
11520 On ch=1 n=f#5 v=45
11520 On ch=1 n=d6 v=45
11520 On ch=1 n=f#6 v=45
11755 On ch=1 n=f#6 v=0
11755 On ch=1 n=d6 v=0
11755 On ch=1 n=f#5 v=0
11760 On ch=1 n=b6 v=60
11995 On ch=1 n=b6 v=0
12000 Par ch=1 c=64 v=0
12000 Par ch=1 c=64 v=127
12240 On ch=1 n=a6 v=65
12240 On ch=1 n=c#7 v=65
12240 On ch=1 n=e7 v=65
12475 On ch=1 n=e7 v=0
12475 On ch=1 n=c#7 v=0
12480 On ch=1 n=c#6 v=55
12715 On ch=1 n=c#6 v=0
12715 On ch=1 n=a6 v=0
12720 Par ch=1 c=64 v=0
12720 Par ch=1 c=64 v=127
12960 On ch=1 n=g6 v=45
12960 On ch=1 n=b6 v=45
12960 On ch=1 n=d7 v=45
13195 On ch=1 n=d7 v=0
13195 On ch=1 n=b6 v=0
13200 On ch=1 n=b5 v=45
13435 On ch=1 n=b5 v=0
13435 On ch=1 n=g6 v=0
13440 Par ch=1 c=64 v=0
13440 Par ch=1 c=64 v=127
13680 On ch=1 n=f#6 v=45
13680 On ch=1 n=a#6 v=45
13680 On ch=1 n=c#7 v=45
13915 On ch=1 n=c#7 v=0
13915 On ch=1 n=a#6 v=0
13920 On ch=1 n=a#5 v=45
14155 On ch=1 n=a#5 v=0
14155 On ch=1 n=f#6 v=0
14160 Par ch=1 c=64 v=0
14160 Par ch=1 c=64 v=127
14160 On ch=1 n=e6 v=45
14395 On ch=1 n=e6 v=0
14400 On ch=1 n=e5 v=45
14400 On ch=1 n=a#5 v=45
14635 On ch=1 n=a#5 v=0
14640 Par ch=1 c=64 v=0
14640 On ch=1 n=c#6 v=45
15760 On ch=1 n=e5 v=0
15840 On ch=1 n=d#5 v=45
15960 On ch=1 n=c#6 v=0
16080 On ch=1 n=f#5 v=45
16080 On ch=1 n=c6 v=45
17200 On ch=1 n=c6 v=0
17200 On ch=1 n=f#5 v=0
17280 Par ch=1 c=64 v=127
17280 On ch=1 n=b4 v=45
17280 On ch=1 n=g5 v=45
17280 On ch=1 n=b5 v=45
17515 On ch=1 n=b5 v=0
17515 On ch=1 n=g5 v=0
17515 On ch=1 n=b4 v=0
17520 On ch=1 n=c6 v=45
17755 On ch=1 n=c6 v=0
17760 Par ch=1 c=64 v=0
17760 Par ch=1 c=64 v=127
18000 On ch=1 n=b5 v=45
18000 On ch=1 n=e6 v=45
18000 On ch=1 n=g6 v=45
18235 On ch=1 n=g6 v=0
18235 On ch=1 n=e6 v=0
18235 On ch=1 n=b5 v=0
18240 On ch=1 n=a#5 v=45
18475 On ch=1 n=a#5 v=0
18480 Par ch=1 c=64 v=0
18480 Par ch=1 c=64 v=127
18720 On ch=1 n=b4 v=45
18720 On ch=1 n=g5 v=45
18720 On ch=1 n=b5 v=45
18955 On ch=1 n=b5 v=0
18955 On ch=1 n=g5 v=0
18955 On ch=1 n=b4 v=0
18960 On ch=1 n=c6 v=45
19195 On ch=1 n=c6 v=0
19200 Par ch=1 c=64 v=0
19200 Par ch=1 c=64 v=127
19440 On ch=1 n=b5 v=45
19440 On ch=1 n=e6 v=45
19440 On ch=1 n=g6 v=45
19675 On ch=1 n=g6 v=0
19675 On ch=1 n=e6 v=0
19675 On ch=1 n=b5 v=0
19680 On ch=1 n=e5 v=45
19915 On ch=1 n=e5 v=0
19920 Par ch=1 c=64 v=0
19920 Par ch=1 c=64 v=127
20160 On ch=1 n=c5 v=45
20160 On ch=1 n=a5 v=45
20160 On ch=1 n=c6 v=45
20395 On ch=1 n=c6 v=0
20395 On ch=1 n=a5 v=0
20395 On ch=1 n=c5 v=0
20400 On ch=1 n=d6 v=45
20635 On ch=1 n=d6 v=0
20640 Par ch=1 c=64 v=0
20640 Par ch=1 c=64 v=127
20880 On ch=1 n=c6 v=45
20880 On ch=1 n=f#6 v=45
20880 On ch=1 n=a6 v=45
21115 On ch=1 n=a6 v=0
21115 On ch=1 n=f#6 v=0
21115 On ch=1 n=c6 v=0
21120 On ch=1 n=b5 v=45
21355 On ch=1 n=b5 v=0
21360 Par ch=1 c=64 v=0
21360 Par ch=1 c=64 v=127
21600 On ch=1 n=c5 v=45
21600 On ch=1 n=a5 v=45
21600 On ch=1 n=c6 v=45
21835 On ch=1 n=c6 v=0
21835 On ch=1 n=a5 v=0
21835 On ch=1 n=c5 v=0
21840 On ch=1 n=d6 v=45
22075 On ch=1 n=d6 v=0
22080 Par ch=1 c=64 v=0
22080 Par ch=1 c=64 v=127
22320 On ch=1 n=c6 v=45
22320 On ch=1 n=f#6 v=45
22320 On ch=1 n=a6 v=45
22555 On ch=1 n=a6 v=0
22555 On ch=1 n=f#6 v=0
22555 On ch=1 n=c6 v=0
22560 On ch=1 n=f#5 v=45
22795 On ch=1 n=f#5 v=0
22800 Par ch=1 c=64 v=0
22800 Par ch=1 c=64 v=127
23040 Par ch=1 c=64 v=0
23040 Par ch=1 c=64 v=127
23040 On ch=1 n=d5 v=45
23040 On ch=1 n=b5 v=45
23040 On ch=1 n=d6 v=45
23275 On ch=1 n=d6 v=0
23275 On ch=1 n=b5 v=0
23275 On ch=1 n=d5 v=0
23280 Par ch=1 c=64 v=0
23280 On ch=1 n=e6 v=47
23515 On ch=1 n=e6 v=0
23760 Par ch=1 c=64 v=127
23760 On ch=1 n=d6 v=51
23760 On ch=1 n=g#6 v=51
23760 On ch=1 n=b6 v=51
23995 On ch=1 n=b6 v=0
23995 On ch=1 n=g#6 v=0
23995 On ch=1 n=d6 v=0
24000 On ch=1 n=g#5 v=54
24235 On ch=1 n=g#5 v=0
24240 Par ch=1 c=64 v=0
24240 Par ch=1 c=64 v=127
24480 On ch=1 n=e5 v=60
24480 On ch=1 n=c6 v=60
24480 On ch=1 n=e6 v=60
24715 On ch=1 n=e6 v=0
24715 On ch=1 n=c6 v=0
24715 On ch=1 n=e5 v=0
24720 On ch=1 n=f6 v=63
24955 On ch=1 n=f6 v=0
24960 Par ch=1 c=64 v=0
24960 Par ch=1 c=64 v=127
25200 On ch=1 n=e6 v=69
25200 On ch=1 n=a#6 v=69
25200 On ch=1 n=c#7 v=69
25435 On ch=1 n=c#7 v=0
25435 On ch=1 n=a#6 v=0
25435 On ch=1 n=e6 v=0
25440 On ch=1 n=a#5 v=72
25675 On ch=1 n=a#5 v=0
25680 Par ch=1 c=64 v=0
25680 Par ch=1 c=64 v=127
25920 On ch=1 n=f5 v=75
25920 On ch=1 n=d6 v=75
25920 On ch=1 n=f6 v=75
26155 On ch=1 n=f6 v=0
26155 On ch=1 n=d6 v=0
26155 On ch=1 n=f5 v=0
26160 On ch=1 n=g6 v=75
26395 On ch=1 n=g6 v=0
26400 Par ch=1 c=64 v=0
26400 Par ch=1 c=64 v=127
26640 On ch=1 n=f#6 v=72
26640 On ch=1 n=c#7 v=72
26875 On ch=1 n=c#7 v=0
26880 On ch=1 n=g5 v=69
27115 On ch=1 n=g5 v=0
27115 On ch=1 n=f#6 v=0
27120 Par ch=1 c=64 v=0
27120 Par ch=1 c=64 v=127
27360 On ch=1 n=e6 v=63
27360 On ch=1 n=b6 v=63
27595 On ch=1 n=b6 v=0
27600 On ch=1 n=f#5 v=60
27835 On ch=1 n=f#5 v=0
27835 On ch=1 n=e6 v=0
27840 Par ch=1 c=64 v=0
27840 Par ch=1 c=64 v=0
27840 Par ch=1 c=64 v=127
28080 On ch=1 n=d6 v=54
28080 On ch=1 n=a#6 v=54
28555 On ch=1 n=d6 v=0
28560 On ch=1 n=c#6 v=48
28720 On ch=1 n=a#6 v=0
28795 On ch=1 n=c#6 v=0
28800 On ch=1 n=f#5 v=45
28800 On ch=1 n=d6 v=45
28800 On ch=1 n=f#6 v=45
29035 On ch=1 n=f#6 v=0
29035 On ch=1 n=d6 v=0
29035 On ch=1 n=f#5 v=0
29040 On ch=1 n=b6 v=60
29275 On ch=1 n=b6 v=0
29280 Par ch=1 c=64 v=0
29280 Par ch=1 c=64 v=127
29520 On ch=1 n=a6 v=65
29520 On ch=1 n=c#7 v=65
29520 On ch=1 n=e7 v=65
29755 On ch=1 n=e7 v=0
29755 On ch=1 n=c#7 v=0
29760 On ch=1 n=c#6 v=55
29995 On ch=1 n=c#6 v=0
29995 On ch=1 n=a6 v=0
30000 Par ch=1 c=64 v=0
30000 Par ch=1 c=64 v=127
30240 On ch=1 n=g6 v=45
30240 On ch=1 n=b6 v=45
30240 On ch=1 n=d7 v=45
30475 On ch=1 n=d7 v=0
30475 On ch=1 n=b6 v=0
30480 On ch=1 n=b5 v=45
30715 On ch=1 n=b5 v=0
30715 On ch=1 n=g6 v=0
30720 Par ch=1 c=64 v=0
30720 Par ch=1 c=64 v=127
30960 On ch=1 n=f#6 v=45
30960 On ch=1 n=a#6 v=45
30960 On ch=1 n=c#7 v=45
31195 On ch=1 n=c#7 v=0
31195 On ch=1 n=a#6 v=0
31200 On ch=1 n=a#5 v=45
31435 On ch=1 n=a#5 v=0
31435 On ch=1 n=f#6 v=0
31440 Par ch=1 c=64 v=0
31440 Par ch=1 c=64 v=127
31440 On ch=1 n=e6 v=45
31675 On ch=1 n=e6 v=0
31680 On ch=1 n=e5 v=45
31680 On ch=1 n=a#5 v=45
31915 On ch=1 n=a#5 v=0
31920 Par ch=1 c=64 v=0
31920 On ch=1 n=e5 v=45
31920 On ch=1 n=c#6 v=45
32320 On ch=1 n=e5 v=0
32400 On ch=1 n=d#5 v=45
32635 On ch=1 n=d#5 v=0
32640 On ch=1 n=f#5 v=45
33040 On ch=1 n=c#6 v=0
33120 On ch=1 n=b5 v=45
33355 On ch=1 n=b5 v=0
33360 On ch=1 n=d#6 v=45
33760 On ch=1 n=f#5 v=0
33840 On ch=1 n=e5 v=45
34000 On ch=1 n=d#6 v=0
34075 On ch=1 n=e5 v=0
34080 On ch=1 n=g#5 v=45
34080 On ch=1 n=g#5 v=45
34480 On ch=1 n=g#5 v=0
34560 On ch=1 n=c5 v=45
34720 On ch=1 n=g#5 v=0
34795 On ch=1 n=c5 v=0
34800 On ch=1 n=d#5 v=45
34800 On ch=1 n=d#5 v=45
35200 On ch=1 n=d#5 v=0
35280 On ch=1 n=f4 v=45
35515 On ch=1 n=f4 v=0
35520 On ch=1 n=g#4 v=45
35920 On ch=1 n=d#5 v=0
36000 On ch=1 n=c#5 v=45
36235 On ch=1 n=c#5 v=0
36240 On ch=1 n=b4 v=45
36720 On ch=1 n=f#4 v=45
36880 On ch=1 n=b4 v=0
36955 On ch=1 n=f#4 v=0
37200 On ch=1 n=a#4 v=45
37435 On ch=1 n=a#4 v=0
37440 On ch=1 n=a#5 v=45
37675 On ch=1 n=a#5 v=0
37680 On ch=1 n=c#6 v=45
38320 On ch=1 n=c#6 v=0
38400 On ch=1 n=f#5 v=45
38400 On ch=1 n=f#5 v=45
38635 On ch=1 n=f#5 v=0
38640 On ch=1 n=b4 v=45
38875 On ch=1 n=b4 v=0
38880 On ch=1 n=b5 v=45
39040 On ch=1 n=f#5 v=0
39115 On ch=1 n=b5 v=0
39120 On ch=1 n=d#6 v=45
39760 On ch=1 n=d#6 v=0
39840 On ch=1 n=g#5 v=45
39840 On ch=1 n=g#5 v=45
40075 On ch=1 n=g#5 v=0
40080 On ch=1 n=c5 v=45
40315 On ch=1 n=c5 v=0
40320 On ch=1 n=c6 v=48
40480 On ch=1 n=g#5 v=0
40555 On ch=1 n=c6 v=0
40560 On ch=1 n=d#6 v=51
41200 On ch=1 n=d#6 v=0
41280 On ch=1 n=g#5 v=61
41280 On ch=1 n=g#5 v=61
41515 On ch=1 n=g#5 v=0
41520 On ch=1 n=c#5 v=64
41755 On ch=1 n=c#5 v=0
41760 On ch=1 n=c#6 v=67
41920 On ch=1 n=g#5 v=0
41995 On ch=1 n=c#6 v=0
42000 On ch=1 n=g#6 v=70
42640 On ch=1 n=g#6 v=0
42720 On ch=1 n=a#5 v=81
42720 On ch=1 n=a#5 v=81
42955 On ch=1 n=a#5 v=0
42960 On ch=1 n=f#5 v=84
43195 On ch=1 n=f#5 v=0
43200 On ch=1 n=f#6 v=88
43360 On ch=1 n=a#5 v=0
43435 On ch=1 n=f#6 v=0
43440 On ch=1 n=e6 v=92
44080 On ch=1 n=e6 v=0
44160 On ch=1 n=a5 v=92
44160 On ch=1 n=a5 v=92
44395 On ch=1 n=a5 v=0
44400 On ch=1 n=d#5 v=92
44635 On ch=1 n=d#5 v=0
44640 On ch=1 n=d#6 v=92
44800 On ch=1 n=a5 v=0
44875 On ch=1 n=d#6 v=0
44880 On ch=1 n=c6 v=92
45520 On ch=1 n=c6 v=0
45600 On ch=1 n=d#5 v=92
45600 On ch=1 n=d#5 v=92
45835 On ch=1 n=d#5 v=0
45840 On ch=1 n=a4 v=92
46075 On ch=1 n=a4 v=0
46080 On ch=1 n=a5 v=92
46240 On ch=1 n=d#5 v=0
46315 On ch=1 n=a5 v=0
46320 On ch=1 n=f#5 v=92
46960 On ch=1 n=f#5 v=0
47040 On ch=1 n=d#5 v=84
47040 On ch=1 n=d#5 v=84
47275 On ch=1 n=d#5 v=0
47280 On ch=1 n=a4 v=82
47515 On ch=1 n=a4 v=0
47520 On ch=1 n=a5 v=80
47680 On ch=1 n=d#5 v=0
47755 On ch=1 n=a5 v=0
47760 On ch=1 n=c6 v=78
48400 On ch=1 n=c6 v=0
48480 On ch=1 n=d#5 v=69
48480 On ch=1 n=d#5 v=69
48715 On ch=1 n=d#5 v=0
48720 On ch=1 n=a4 v=66
48955 On ch=1 n=a4 v=0
48960 On ch=1 n=a5 v=63
49120 On ch=1 n=d#5 v=0
49195 On ch=1 n=a5 v=0
49200 On ch=1 n=f#5 v=60
49840 On ch=1 n=f#5 v=0
49920 On ch=1 n=d#5 v=76
49920 On ch=1 n=d#5 v=76
50155 On ch=1 n=d#5 v=0
50160 On ch=1 n=a4 v=81
50395 On ch=1 n=a4 v=0
50400 On ch=1 n=a5 v=86
50560 On ch=1 n=d#5 v=0
50635 On ch=1 n=a5 v=0
50640 On ch=1 n=c6 v=92
52080 Par ch=1 c=64 v=0
52080 Par ch=1 c=64 v=127
52315 On ch=1 n=c6 v=0
52320 Par ch=1 c=64 v=0
52320 Par ch=1 c=64 v=127
52560 On ch=1 n=d#5 v=58
52560 On ch=1 n=a5 v=58
52560 On ch=1 n=b5 v=58
52795 On ch=1 n=b5 v=0
52795 On ch=1 n=a5 v=0
52795 On ch=1 n=d#5 v=0
52800 On ch=1 n=f#5 v=57
53035 On ch=1 n=f#5 v=0
53040 Par ch=1 c=64 v=0
53040 Par ch=1 c=64 v=127
53280 On ch=1 n=e5 v=55
53280 On ch=1 n=a5 v=55
53280 On ch=1 n=b5 v=55
53515 On ch=1 n=b5 v=0
53515 On ch=1 n=a5 v=0
53515 On ch=1 n=e5 v=0
53520 On ch=1 n=c6 v=54
53755 On ch=1 n=c6 v=0
53760 Par ch=1 c=64 v=0
53760 Par ch=1 c=64 v=127
54000 On ch=1 n=d#5 v=51
54000 On ch=1 n=a5 v=51
54000 On ch=1 n=b5 v=51
54235 On ch=1 n=b5 v=0
54235 On ch=1 n=a5 v=0
54235 On ch=1 n=d#5 v=0
54240 On ch=1 n=f#5 v=49
54475 On ch=1 n=f#5 v=0
54480 Par ch=1 c=64 v=0
54480 Par ch=1 c=64 v=127
54720 On ch=1 n=g5 v=45
54720 On ch=1 n=c6 v=45
54720 On ch=1 n=d#6 v=45
54955 On ch=1 n=d#6 v=0
54955 On ch=1 n=c6 v=0
54955 On ch=1 n=g5 v=0
54960 On ch=1 n=e6 v=44
55195 On ch=1 n=e6 v=0
55200 Par ch=1 c=64 v=0
55200 Par ch=1 c=64 v=127
55440 On ch=1 n=f#5 v=42
55440 On ch=1 n=c6 v=42
55440 On ch=1 n=d#6 v=42
55675 On ch=1 n=d#6 v=0
55675 On ch=1 n=c6 v=0
55675 On ch=1 n=f#5 v=0
55680 On ch=1 n=a5 v=41
55915 On ch=1 n=a5 v=0
55920 Par ch=1 c=64 v=0
55920 Par ch=1 c=64 v=127
56160 On ch=1 n=g5 v=39
56160 On ch=1 n=c6 v=39
56160 On ch=1 n=d#6 v=39
56395 On ch=1 n=d#6 v=0
56395 On ch=1 n=c6 v=0
56395 On ch=1 n=g5 v=0
56400 On ch=1 n=e6 v=38
56635 On ch=1 n=e6 v=0
56640 Par ch=1 c=64 v=0
56640 Par ch=1 c=64 v=127
56880 On ch=1 n=f#5 v=34
56880 On ch=1 n=c6 v=34
56880 On ch=1 n=d#6 v=34
57115 On ch=1 n=d#6 v=0
57115 On ch=1 n=c6 v=0
57115 On ch=1 n=f#5 v=0
57120 On ch=1 n=a5 v=32
57355 On ch=1 n=a5 v=0
57360 Par ch=1 c=64 v=0
57360 Par ch=1 c=64 v=127
57600 On ch=1 n=e5 v=30
57600 On ch=1 n=c6 v=30
57600 On ch=1 n=e6 v=30
57835 On ch=1 n=e6 v=0
57835 On ch=1 n=c6 v=0
57835 On ch=1 n=e5 v=0
57840 On ch=1 n=f6 v=30
58075 On ch=1 n=f6 v=0
58080 Par ch=1 c=64 v=0
58080 Par ch=1 c=64 v=127
58320 On ch=1 n=e6 v=30
58320 On ch=1 n=a6 v=30
58320 On ch=1 n=c7 v=30
58555 On ch=1 n=c7 v=0
58555 On ch=1 n=a6 v=0
58555 On ch=1 n=e6 v=0
58560 On ch=1 n=d#6 v=30
58795 On ch=1 n=d#6 v=0
58800 Par ch=1 c=64 v=0
58800 Par ch=1 c=64 v=127
59040 On ch=1 n=e5 v=30
59040 On ch=1 n=c6 v=30
59040 On ch=1 n=e6 v=30
59275 On ch=1 n=e6 v=0
59275 On ch=1 n=c6 v=0
59275 On ch=1 n=e5 v=0
59280 On ch=1 n=f6 v=30
59515 On ch=1 n=f6 v=0
59520 Par ch=1 c=64 v=0
59520 Par ch=1 c=64 v=127
59760 On ch=1 n=d#6 v=30
59760 On ch=1 n=a6 v=30
59760 On ch=1 n=c7 v=30
59995 On ch=1 n=c7 v=0
59995 On ch=1 n=a6 v=0
59995 On ch=1 n=d#6 v=0
60000 On ch=1 n=a5 v=30
60235 On ch=1 n=a5 v=0
60240 Par ch=1 c=64 v=0
60240 Par ch=1 c=64 v=127
60480 On ch=1 n=d5 v=30
60480 On ch=1 n=b5 v=30
60480 On ch=1 n=d6 v=30
60715 On ch=1 n=d6 v=0
60715 On ch=1 n=b5 v=0
60715 On ch=1 n=d5 v=0
60720 On ch=1 n=d#6 v=30
60955 On ch=1 n=d#6 v=0
60960 Par ch=1 c=64 v=0
60960 Par ch=1 c=64 v=127
61200 On ch=1 n=d6 v=30
61200 On ch=1 n=g6 v=30
61200 On ch=1 n=b6 v=30
61435 On ch=1 n=b6 v=0
61435 On ch=1 n=g6 v=0
61435 On ch=1 n=d6 v=0
61440 On ch=1 n=c#6 v=30
61675 On ch=1 n=c#6 v=0
61680 Par ch=1 c=64 v=0
61680 Par ch=1 c=64 v=127
61920 On ch=1 n=d5 v=30
61920 On ch=1 n=b5 v=30
61920 On ch=1 n=d6 v=30
62155 On ch=1 n=d6 v=0
62155 On ch=1 n=b5 v=0
62155 On ch=1 n=d5 v=0
62160 On ch=1 n=d#6 v=30
62395 On ch=1 n=d#6 v=0
62400 Par ch=1 c=64 v=0
62400 Par ch=1 c=64 v=127
62640 On ch=1 n=c#6 v=30
62640 On ch=1 n=g6 v=30
62640 On ch=1 n=a#6 v=30
62875 On ch=1 n=a#6 v=0
62875 On ch=1 n=g6 v=0
62875 On ch=1 n=c#6 v=0
62880 On ch=1 n=g5 v=30
63115 On ch=1 n=g5 v=0
63120 Par ch=1 c=64 v=0
63120 Par ch=1 c=64 v=127
63360 On ch=1 n=c5 v=30
63360 On ch=1 n=a5 v=30
63360 On ch=1 n=c6 v=30
63595 On ch=1 n=c6 v=0
63595 On ch=1 n=a5 v=0
63595 On ch=1 n=c5 v=0
63600 On ch=1 n=c#6 v=30
63835 On ch=1 n=c#6 v=0
63840 Par ch=1 c=64 v=0
63840 Par ch=1 c=64 v=127
64080 On ch=1 n=f5 v=30
64080 On ch=1 n=a5 v=30
64080 On ch=1 n=c6 v=30
64315 On ch=1 n=c6 v=0
64315 On ch=1 n=a5 v=0
64315 On ch=1 n=f5 v=0
64320 On ch=1 n=d6 v=33
64555 On ch=1 n=d6 v=0
64560 Par ch=1 c=64 v=0
64560 Par ch=1 c=64 v=127
64800 On ch=1 n=c6 v=39
64800 On ch=1 n=f6 v=39
64800 On ch=1 n=a6 v=39
65035 On ch=1 n=a6 v=0
65035 On ch=1 n=f6 v=0
65035 On ch=1 n=c6 v=0
65040 On ch=1 n=b5 v=42
65275 On ch=1 n=b5 v=0
65280 Par ch=1 c=64 v=0
65280 Par ch=1 c=64 v=127
65520 On ch=1 n=a5 v=48
65520 On ch=1 n=c6 v=48
65520 On ch=1 n=f6 v=48
65755 On ch=1 n=f6 v=0
65755 On ch=1 n=c6 v=0
65755 On ch=1 n=a5 v=0
65760 On ch=1 n=g5 v=52
65995 On ch=1 n=g5 v=0
66000 Par ch=1 c=64 v=0
66240 On ch=1 n=f5 v=60
66240 On ch=1 n=a5 v=60
66240 On ch=1 n=c6 v=60
66475 On ch=1 n=f5 v=0
66480 On ch=1 n=e5 v=63
67120 On ch=1 n=e5 v=0
67200 On ch=1 n=d#5 v=75
67600 On ch=1 n=c6 v=0
67600 On ch=1 n=a5 v=0
67680 On ch=1 n=c6 v=68
67915 On ch=1 n=c6 v=0
67920 On ch=1 n=b5 v=65
68560 On ch=1 n=b5 v=0
68640 On ch=1 n=e5 v=53
68640 On ch=1 n=a#5 v=53
69040 On ch=1 n=a#5 v=0
69040 On ch=1 n=e5 v=0
69120 On ch=1 n=a#5 v=45
69355 On ch=1 n=a#5 v=0
69360 On ch=1 n=e5 v=45
69360 On ch=1 n=c#6 v=45
69760 On ch=1 n=e5 v=0
69840 On ch=1 n=d#5 v=45
70075 On ch=1 n=d#5 v=0
70080 On ch=1 n=f#5 v=45
70480 On ch=1 n=c#6 v=0
70560 On ch=1 n=b5 v=45
70795 On ch=1 n=b5 v=0
70800 On ch=1 n=d#6 v=45
71200 On ch=1 n=f#5 v=0
71280 On ch=1 n=e5 v=45
71440 On ch=1 n=d#6 v=0
71515 On ch=1 n=e5 v=0
71520 On ch=1 n=g#5 v=45
71520 On ch=1 n=g#5 v=45
71920 On ch=1 n=g#5 v=0
72000 On ch=1 n=c5 v=45
72160 On ch=1 n=g#5 v=0
72235 On ch=1 n=c5 v=0
72240 On ch=1 n=d#5 v=45
72240 On ch=1 n=d#5 v=45
72640 On ch=1 n=d#5 v=0
72720 On ch=1 n=f4 v=45
72955 On ch=1 n=f4 v=0
72960 On ch=1 n=g#4 v=45
73360 On ch=1 n=d#5 v=0
73440 On ch=1 n=c#5 v=45
73675 On ch=1 n=c#5 v=0
73680 On ch=1 n=b4 v=45
74160 On ch=1 n=f#4 v=45
74320 On ch=1 n=b4 v=0
74395 On ch=1 n=f#4 v=0
74640 On ch=1 n=a#4 v=45
74875 On ch=1 n=a#4 v=0
74880 On ch=1 n=a#5 v=45
75115 On ch=1 n=a#5 v=0
75120 On ch=1 n=c#6 v=45
75760 On ch=1 n=c#6 v=0
75840 On ch=1 n=f#5 v=45
75840 On ch=1 n=f#5 v=45
76075 On ch=1 n=f#5 v=0
76080 On ch=1 n=b4 v=45
76315 On ch=1 n=b4 v=0
76320 On ch=1 n=b5 v=45
76480 On ch=1 n=f#5 v=0
76555 On ch=1 n=b5 v=0
76560 On ch=1 n=d#6 v=45
77200 On ch=1 n=d#6 v=0
77280 On ch=1 n=g#5 v=45
77280 On ch=1 n=g#5 v=45
77515 On ch=1 n=g#5 v=0
77520 On ch=1 n=c5 v=45
77755 On ch=1 n=c5 v=0
77760 On ch=1 n=c6 v=48
77920 On ch=1 n=g#5 v=0
77995 On ch=1 n=c6 v=0
78000 On ch=1 n=d#6 v=51
78640 On ch=1 n=d#6 v=0
78720 On ch=1 n=g#5 v=61
78720 On ch=1 n=g#5 v=61
78955 On ch=1 n=g#5 v=0
78960 On ch=1 n=c#5 v=64
79195 On ch=1 n=c#5 v=0
79200 On ch=1 n=c#6 v=67
79360 On ch=1 n=g#5 v=0
79435 On ch=1 n=c#6 v=0
79440 On ch=1 n=g#6 v=70
80080 On ch=1 n=g#6 v=0
80160 On ch=1 n=a#5 v=81
80160 On ch=1 n=a#5 v=81
80395 On ch=1 n=a#5 v=0
80400 On ch=1 n=f#5 v=84
80635 On ch=1 n=f#5 v=0
80640 On ch=1 n=f#6 v=88
80800 On ch=1 n=a#5 v=0
80875 On ch=1 n=f#6 v=0
80880 On ch=1 n=e6 v=92
81520 On ch=1 n=e6 v=0
81600 On ch=1 n=a5 v=92
81600 On ch=1 n=a5 v=92
81835 On ch=1 n=a5 v=0
81840 On ch=1 n=d#5 v=92
82075 On ch=1 n=d#5 v=0
82080 On ch=1 n=d#6 v=92
82240 On ch=1 n=a5 v=0
82315 On ch=1 n=d#6 v=0
82320 On ch=1 n=c6 v=92
82960 On ch=1 n=c6 v=0
83040 On ch=1 n=d#5 v=92
83040 On ch=1 n=d#5 v=92
83275 On ch=1 n=d#5 v=0
83280 On ch=1 n=a4 v=92
83515 On ch=1 n=a4 v=0
83520 On ch=1 n=a5 v=92
83680 On ch=1 n=d#5 v=0
83755 On ch=1 n=a5 v=0
83760 On ch=1 n=f#5 v=92
84400 On ch=1 n=f#5 v=0
84480 On ch=1 n=d#5 v=84
84480 On ch=1 n=d#5 v=84
84715 On ch=1 n=d#5 v=0
84720 On ch=1 n=a4 v=82
84955 On ch=1 n=a4 v=0
84960 On ch=1 n=a5 v=80
85120 On ch=1 n=d#5 v=0
85195 On ch=1 n=a5 v=0
85200 On ch=1 n=c6 v=78
85840 On ch=1 n=c6 v=0
85920 On ch=1 n=d#5 v=69
85920 On ch=1 n=d#5 v=69
86155 On ch=1 n=d#5 v=0
86160 On ch=1 n=a4 v=66
86395 On ch=1 n=a4 v=0
86400 On ch=1 n=a5 v=63
86560 On ch=1 n=d#5 v=0
86635 On ch=1 n=a5 v=0
86640 On ch=1 n=f#5 v=60
87280 On ch=1 n=f#5 v=0
87360 On ch=1 n=d#5 v=76
87360 On ch=1 n=d#5 v=76
87595 On ch=1 n=d#5 v=0
87600 On ch=1 n=a4 v=81
87835 On ch=1 n=a4 v=0
87840 On ch=1 n=a5 v=86
88000 On ch=1 n=d#5 v=0
88075 On ch=1 n=a5 v=0
88080 On ch=1 n=c6 v=92
89520 Par ch=1 c=64 v=0
89520 Par ch=1 c=64 v=127
89755 On ch=1 n=c6 v=0
89760 Par ch=1 c=64 v=0
89760 Par ch=1 c=64 v=127
90000 On ch=1 n=d#5 v=58
90000 On ch=1 n=a5 v=58
90000 On ch=1 n=b5 v=58
90235 On ch=1 n=b5 v=0
90235 On ch=1 n=a5 v=0
90235 On ch=1 n=d#5 v=0
90240 On ch=1 n=f#5 v=57
90475 On ch=1 n=f#5 v=0
90480 Par ch=1 c=64 v=0
90480 Par ch=1 c=64 v=127
90720 On ch=1 n=e5 v=55
90720 On ch=1 n=a5 v=55
90720 On ch=1 n=b5 v=55
90955 On ch=1 n=b5 v=0
90955 On ch=1 n=a5 v=0
90955 On ch=1 n=e5 v=0
90960 On ch=1 n=c6 v=54
91195 On ch=1 n=c6 v=0
91200 Par ch=1 c=64 v=0
91200 Par ch=1 c=64 v=127
91440 On ch=1 n=d#5 v=51
91440 On ch=1 n=a5 v=51
91440 On ch=1 n=b5 v=51
91675 On ch=1 n=b5 v=0
91675 On ch=1 n=a5 v=0
91675 On ch=1 n=d#5 v=0
91680 On ch=1 n=f#5 v=49
91915 On ch=1 n=f#5 v=0
91920 Par ch=1 c=64 v=0
91920 Par ch=1 c=64 v=127
92160 On ch=1 n=g5 v=45
92160 On ch=1 n=c6 v=45
92160 On ch=1 n=d#6 v=45
92395 On ch=1 n=d#6 v=0
92395 On ch=1 n=c6 v=0
92395 On ch=1 n=g5 v=0
92400 On ch=1 n=e6 v=44
92635 On ch=1 n=e6 v=0
92640 Par ch=1 c=64 v=0
92640 Par ch=1 c=64 v=127
92880 On ch=1 n=f#5 v=42
92880 On ch=1 n=c6 v=42
92880 On ch=1 n=d#6 v=42
93115 On ch=1 n=d#6 v=0
93115 On ch=1 n=c6 v=0
93115 On ch=1 n=f#5 v=0
93120 On ch=1 n=a5 v=41
93355 On ch=1 n=a5 v=0
93360 Par ch=1 c=64 v=0
93360 Par ch=1 c=64 v=127
93600 On ch=1 n=g5 v=39
93600 On ch=1 n=c6 v=39
93600 On ch=1 n=d#6 v=39
93835 On ch=1 n=d#6 v=0
93835 On ch=1 n=c6 v=0
93835 On ch=1 n=g5 v=0
93840 On ch=1 n=e6 v=38
94075 On ch=1 n=e6 v=0
94080 Par ch=1 c=64 v=0
94080 Par ch=1 c=64 v=127
94320 On ch=1 n=f#5 v=34
94320 On ch=1 n=c6 v=34
94320 On ch=1 n=d#6 v=34
94555 On ch=1 n=d#6 v=0
94555 On ch=1 n=c6 v=0
94555 On ch=1 n=f#5 v=0
94560 On ch=1 n=a5 v=32
94795 On ch=1 n=a5 v=0
94800 Par ch=1 c=64 v=0
94800 Par ch=1 c=64 v=127
95040 On ch=1 n=e5 v=30
95040 On ch=1 n=c6 v=30
95040 On ch=1 n=e6 v=30
95275 On ch=1 n=e6 v=0
95275 On ch=1 n=c6 v=0
95275 On ch=1 n=e5 v=0
95280 On ch=1 n=f6 v=30
95515 On ch=1 n=f6 v=0
95520 Par ch=1 c=64 v=0
95520 Par ch=1 c=64 v=127
95760 On ch=1 n=e6 v=30
95760 On ch=1 n=a6 v=30
95760 On ch=1 n=c7 v=30
95995 On ch=1 n=c7 v=0
95995 On ch=1 n=a6 v=0
95995 On ch=1 n=e6 v=0
96000 On ch=1 n=d#6 v=30
96235 On ch=1 n=d#6 v=0
96240 Par ch=1 c=64 v=0
96240 Par ch=1 c=64 v=127
96480 On ch=1 n=e5 v=30
96480 On ch=1 n=c6 v=30
96480 On ch=1 n=e6 v=30
96715 On ch=1 n=e6 v=0
96715 On ch=1 n=c6 v=0
96715 On ch=1 n=e5 v=0
96720 On ch=1 n=f6 v=30
96955 On ch=1 n=f6 v=0
96960 Par ch=1 c=64 v=0
96960 Par ch=1 c=64 v=127
97200 On ch=1 n=d#6 v=30
97200 On ch=1 n=a6 v=30
97200 On ch=1 n=c7 v=30
97435 On ch=1 n=c7 v=0
97435 On ch=1 n=a6 v=0
97435 On ch=1 n=d#6 v=0
97440 On ch=1 n=a5 v=30
97675 On ch=1 n=a5 v=0
97680 Par ch=1 c=64 v=0
97680 Par ch=1 c=64 v=127
97920 On ch=1 n=d5 v=30
97920 On ch=1 n=b5 v=30
97920 On ch=1 n=d6 v=30
98155 On ch=1 n=d6 v=0
98155 On ch=1 n=b5 v=0
98155 On ch=1 n=d5 v=0
98160 On ch=1 n=d#6 v=30
98395 On ch=1 n=d#6 v=0
98400 Par ch=1 c=64 v=0
98400 Par ch=1 c=64 v=127
98640 On ch=1 n=d6 v=30
98640 On ch=1 n=g6 v=30
98640 On ch=1 n=b6 v=30
98875 On ch=1 n=b6 v=0
98875 On ch=1 n=g6 v=0
98875 On ch=1 n=d6 v=0
98880 On ch=1 n=c#6 v=30
99115 On ch=1 n=c#6 v=0
99120 Par ch=1 c=64 v=0
99120 Par ch=1 c=64 v=127
99360 On ch=1 n=d5 v=30
99360 On ch=1 n=b5 v=30
99360 On ch=1 n=d6 v=30
99595 On ch=1 n=d6 v=0
99595 On ch=1 n=b5 v=0
99595 On ch=1 n=d5 v=0
99600 On ch=1 n=d#6 v=30
99835 On ch=1 n=d#6 v=0
99840 Par ch=1 c=64 v=0
99840 Par ch=1 c=64 v=127
100080 On ch=1 n=c#6 v=30
100080 On ch=1 n=g6 v=30
100080 On ch=1 n=a#6 v=30
100315 On ch=1 n=a#6 v=0
100315 On ch=1 n=g6 v=0
100315 On ch=1 n=c#6 v=0
100320 On ch=1 n=g5 v=30
100555 On ch=1 n=g5 v=0
100560 Par ch=1 c=64 v=0
100560 Par ch=1 c=64 v=127
100800 On ch=1 n=c5 v=30
100800 On ch=1 n=a5 v=30
100800 On ch=1 n=c6 v=30
101035 On ch=1 n=c6 v=0
101035 On ch=1 n=a5 v=0
101035 On ch=1 n=c5 v=0
101040 On ch=1 n=c#6 v=30
101275 On ch=1 n=c#6 v=0
101280 Par ch=1 c=64 v=0
101280 Par ch=1 c=64 v=127
101520 On ch=1 n=f5 v=30
101520 On ch=1 n=a5 v=30
101520 On ch=1 n=c6 v=30
101755 On ch=1 n=c6 v=0
101755 On ch=1 n=a5 v=0
101755 On ch=1 n=f5 v=0
101760 On ch=1 n=d6 v=33
101995 On ch=1 n=d6 v=0
102000 Par ch=1 c=64 v=0
102000 Par ch=1 c=64 v=127
102240 On ch=1 n=c6 v=39
102240 On ch=1 n=f6 v=39
102240 On ch=1 n=a6 v=39
102475 On ch=1 n=a6 v=0
102475 On ch=1 n=f6 v=0
102475 On ch=1 n=c6 v=0
102480 On ch=1 n=b5 v=42
102715 On ch=1 n=b5 v=0
102720 Par ch=1 c=64 v=0
102720 Par ch=1 c=64 v=127
102960 On ch=1 n=a5 v=48
102960 On ch=1 n=c6 v=48
102960 On ch=1 n=f6 v=48
103195 On ch=1 n=f6 v=0
103195 On ch=1 n=c6 v=0
103195 On ch=1 n=a5 v=0
103200 On ch=1 n=g5 v=52
103435 On ch=1 n=g5 v=0
103440 Par ch=1 c=64 v=0
103680 On ch=1 n=f5 v=75
103680 On ch=1 n=a5 v=75
103680 On ch=1 n=c6 v=75
103915 On ch=1 n=f5 v=0
103920 On ch=1 n=e5 v=72
106000 On ch=1 n=c6 v=0
106000 On ch=1 n=a5 v=0
106000 On ch=1 n=e5 v=0
106080 On ch=1 n=a4 v=45
106080 On ch=1 n=d#5 v=45
106080 On ch=1 n=b5 v=45
106720 On ch=1 n=d#5 v=0
106800 On ch=1 n=a5 v=45
107440 On ch=1 n=a5 v=0
107440 On ch=1 n=b5 v=0
107440 On ch=1 n=a4 v=0
107520 On ch=1 n=b4 v=45
107520 On ch=1 n=g#5 v=45
107520 On ch=1 n=b5 v=45
108160 On ch=1 n=g#5 v=0
108160 On ch=1 n=b4 v=0
108240 On ch=1 n=a4 v=75
108240 On ch=1 n=d#5 v=75
108240 On ch=1 n=f#5 v=75
109560 On ch=1 n=f#5 v=0
109560 On ch=1 n=a4 v=0
109560 On ch=1 n=d#5 v=0
109680 On ch=1 n=g#4 v=45
109680 On ch=1 n=e5 v=45
110080 On ch=1 n=e5 v=0
110080 On ch=1 n=g#4 v=0
110080 On ch=1 n=d#5 v=0
110080 On ch=1 n=b5 v=0
110080 On ch=1 n=d#5 v=0
110080 On ch=1 n=e5 v=0
110080 On ch=1 n=g#4 v=0
110080 On ch=1 n=g#4 v=0
110080 Meta TrkEnd
TrkEnd
MTrk
0 SeqSpec 43 00 01 00
0 Meta TrkName "Left Hand"
0 Meta 0x21 00
0 PrCh ch=2 p=0
0 Par ch=2 c=7 v=127
0 Par ch=2 c=10 v=50
0 Par ch=2 c=64 v=127
0 On ch=2 n=e4 v=45
0 On ch=2 n=g4 v=45
0 On ch=2 n=e5 v=45
235 On ch=2 n=e5 v=0
235 On ch=2 n=g4 v=0
235 On ch=2 n=e4 v=0
240 On ch=2 n=d#4 v=45
475 On ch=2 n=d#4 v=0
480 Par ch=2 c=64 v=0
480 Par ch=2 c=64 v=127
720 On ch=2 n=g3 v=45
720 On ch=2 n=b3 v=45
720 On ch=2 n=e4 v=45
955 On ch=2 n=e4 v=0
955 On ch=2 n=b3 v=0
955 On ch=2 n=g3 v=0
960 On ch=2 n=f#4 v=45
1195 On ch=2 n=f#4 v=0
1200 Par ch=2 c=64 v=0
1200 Par ch=2 c=64 v=127
1440 On ch=2 n=e4 v=45
1440 On ch=2 n=g4 v=45
1440 On ch=2 n=e5 v=45
1675 On ch=2 n=e5 v=0
1675 On ch=2 n=g4 v=0
1675 On ch=2 n=e4 v=0
1680 On ch=2 n=d#4 v=45
1915 On ch=2 n=d#4 v=0
1920 Par ch=2 c=64 v=0
1920 Par ch=2 c=64 v=127
2160 On ch=2 n=g3 v=45
2160 On ch=2 n=b3 v=45
2160 On ch=2 n=e4 v=45
2395 On ch=2 n=e4 v=0
2395 On ch=2 n=b3 v=0
2395 On ch=2 n=g3 v=0
2400 On ch=2 n=g4 v=45
2635 On ch=2 n=g4 v=0
2640 Par ch=2 c=64 v=0
2640 Par ch=2 c=64 v=127
2880 On ch=2 n=f#4 v=45
2880 On ch=2 n=a4 v=45
2880 On ch=2 n=f#5 v=45
3115 On ch=2 n=f#5 v=0
3115 On ch=2 n=a4 v=0
3115 On ch=2 n=f#4 v=0
3120 On ch=2 n=f4 v=45
3355 On ch=2 n=f4 v=0
3360 Par ch=2 c=64 v=0
3360 Par ch=2 c=64 v=127
3600 On ch=2 n=a3 v=45
3600 On ch=2 n=c4 v=45
3600 On ch=2 n=f#4 v=45
3835 On ch=2 n=f#4 v=0
3835 On ch=2 n=c4 v=0
3835 On ch=2 n=a3 v=0
3840 On ch=2 n=g4 v=45
4075 On ch=2 n=g4 v=0
4080 Par ch=2 c=64 v=0
4080 Par ch=2 c=64 v=127
4320 On ch=2 n=f#4 v=45
4320 On ch=2 n=a4 v=45
4320 On ch=2 n=f#5 v=45
4555 On ch=2 n=f#5 v=0
4555 On ch=2 n=a4 v=0
4555 On ch=2 n=f#4 v=0
4560 On ch=2 n=f4 v=45
4795 On ch=2 n=f4 v=0
4800 Par ch=2 c=64 v=0
4800 Par ch=2 c=64 v=127
5040 On ch=2 n=a3 v=45
5040 On ch=2 n=c4 v=45
5040 On ch=2 n=f#4 v=45
5275 On ch=2 n=f#4 v=0
5275 On ch=2 n=c4 v=0
5275 On ch=2 n=a3 v=0
5280 On ch=2 n=a4 v=45
5515 On ch=2 n=a4 v=0
5520 Par ch=2 c=64 v=0
5520 Par ch=2 c=64 v=127
5760 Par ch=2 c=64 v=0
5760 Par ch=2 c=64 v=127
5760 On ch=2 n=g4 v=45
5760 On ch=2 n=b4 v=45
5760 On ch=2 n=g5 v=45
5995 On ch=2 n=g5 v=0
5995 On ch=2 n=b4 v=0
5995 On ch=2 n=g4 v=0
6000 Par ch=2 c=64 v=0
6000 On ch=2 n=f#4 v=47
6235 On ch=2 n=f#4 v=0
6480 Par ch=2 c=64 v=127
6480 On ch=2 n=b3 v=51
6480 On ch=2 n=d4 v=51
6480 On ch=2 n=g#4 v=51
6715 On ch=2 n=g#4 v=0
6715 On ch=2 n=d4 v=0
6715 On ch=2 n=b3 v=0
6720 On ch=2 n=d5 v=54
6955 On ch=2 n=d5 v=0
6960 Par ch=2 c=64 v=0
6960 Par ch=2 c=64 v=127
7200 On ch=2 n=a4 v=60
7200 On ch=2 n=c5 v=60
7200 On ch=2 n=a5 v=60
7435 On ch=2 n=a5 v=0
7435 On ch=2 n=c5 v=0
7435 On ch=2 n=a4 v=0
7440 On ch=2 n=g#4 v=63
7675 On ch=2 n=g#4 v=0
7680 Par ch=2 c=64 v=0
7680 Par ch=2 c=64 v=127
7920 On ch=2 n=c#4 v=69
7920 On ch=2 n=e4 v=69
7920 On ch=2 n=a#4 v=69
8155 On ch=2 n=a#4 v=0
8155 On ch=2 n=e4 v=0
8155 On ch=2 n=c#4 v=0
8160 On ch=2 n=e5 v=72
8395 On ch=2 n=e5 v=0
8400 Par ch=2 c=64 v=0
8400 Par ch=2 c=64 v=127
8640 On ch=2 n=b4 v=75
8640 On ch=2 n=d5 v=75
8640 On ch=2 n=b5 v=75
8875 On ch=2 n=b5 v=0
8875 On ch=2 n=d5 v=0
8875 On ch=2 n=b4 v=0
8880 On ch=2 n=d4 v=75
9115 On ch=2 n=d4 v=0
9120 Par ch=2 c=64 v=0
9120 Par ch=2 c=64 v=127
9360 On ch=2 n=e4 v=72
9360 On ch=2 n=g4 v=72
9360 On ch=2 n=c#5 v=72
9595 On ch=2 n=c#5 v=0
9595 On ch=2 n=g4 v=0
9595 On ch=2 n=e4 v=0
9600 On ch=2 n=f#5 v=69
9835 On ch=2 n=f#5 v=0
9840 Par ch=2 c=64 v=0
9840 Par ch=2 c=64 v=127
10080 On ch=2 n=f#4 v=63
10080 On ch=2 n=b4 v=63
10315 On ch=2 n=b4 v=0
10315 On ch=2 n=f#4 v=0
10320 On ch=2 n=e5 v=60
10555 On ch=2 n=e5 v=0
10560 Par ch=2 c=64 v=0
10560 Par ch=2 c=64 v=0
10560 Par ch=2 c=64 v=127
10800 On ch=2 n=f#4 v=54
10800 On ch=2 n=a#4 v=54
11040 On ch=2 n=f#5 v=51
11275 On ch=2 n=f#5 v=0
11280 On ch=2 n=e5 v=48
11440 On ch=2 n=a#4 v=0
11440 On ch=2 n=f#4 v=0
11515 On ch=2 n=e5 v=0
11520 On ch=2 n=b4 v=45
11520 On ch=2 n=d5 v=45
11520 On ch=2 n=b5 v=45
11755 On ch=2 n=b5 v=0
11755 On ch=2 n=d5 v=0
11755 On ch=2 n=b4 v=0
11760 On ch=2 n=d4 v=60
11995 On ch=2 n=d4 v=0
12000 Par ch=2 c=64 v=0
12000 Par ch=2 c=64 v=127
12240 On ch=2 n=e4 v=65
12240 On ch=2 n=a4 v=65
12240 On ch=2 n=c#5 v=65
12475 On ch=2 n=c#5 v=0
12475 On ch=2 n=a4 v=0
12475 On ch=2 n=e4 v=0
12480 On ch=2 n=a5 v=55
12715 On ch=2 n=a5 v=0
12720 Par ch=2 c=64 v=0
12720 Par ch=2 c=64 v=127
12960 On ch=2 n=f#4 v=45
12960 On ch=2 n=b4 v=45
12960 On ch=2 n=d5 v=45
13195 On ch=2 n=d5 v=0
13195 On ch=2 n=b4 v=0
13195 On ch=2 n=f#4 v=0
13200 On ch=2 n=g5 v=45
13435 On ch=2 n=g5 v=0
13440 Par ch=2 c=64 v=0
13440 Par ch=2 c=64 v=127
13680 On ch=2 n=f#4 v=45
13680 On ch=2 n=c#5 v=45
13680 On ch=2 n=e5 v=45
13915 On ch=2 n=e5 v=0
13915 On ch=2 n=c#5 v=0
13915 On ch=2 n=f#4 v=0
13920 On ch=2 n=f#5 v=45
14155 On ch=2 n=f#5 v=0
14160 Par ch=2 c=64 v=0
14160 Par ch=2 c=64 v=127
14400 On ch=2 n=b2 v=45
14635 On ch=2 n=b2 v=0
14640 Par ch=2 c=64 v=0
14640 On ch=2 n=b3 v=45
14640 On ch=2 n=b3 v=45
15040 On ch=2 n=b3 v=0
15120 On ch=2 n=e4 v=45
15355 On ch=2 n=e4 v=0
15360 On ch=2 n=g4 v=45
15760 On ch=2 n=g4 v=0
15840 On ch=2 n=f#4 v=45
16075 On ch=2 n=f#4 v=0
16080 On ch=2 n=a4 v=45
17200 On ch=2 n=a4 v=0
17200 On ch=2 n=b3 v=0
17280 Par ch=2 c=64 v=127
17280 On ch=2 n=e4 v=45
17280 On ch=2 n=g4 v=45
17280 On ch=2 n=e5 v=45
17515 On ch=2 n=e5 v=0
17515 On ch=2 n=g4 v=0
17515 On ch=2 n=e4 v=0
17520 On ch=2 n=d#4 v=45
17755 On ch=2 n=d#4 v=0
17760 Par ch=2 c=64 v=0
17760 Par ch=2 c=64 v=127
18000 On ch=2 n=g3 v=45
18000 On ch=2 n=b3 v=45
18000 On ch=2 n=e4 v=45
18235 On ch=2 n=e4 v=0
18235 On ch=2 n=b3 v=0
18235 On ch=2 n=g3 v=0
18240 On ch=2 n=f#4 v=45
18475 On ch=2 n=f#4 v=0
18480 Par ch=2 c=64 v=0
18480 Par ch=2 c=64 v=127
18720 On ch=2 n=e4 v=45
18720 On ch=2 n=g4 v=45
18720 On ch=2 n=e5 v=45
18955 On ch=2 n=e5 v=0
18955 On ch=2 n=g4 v=0
18955 On ch=2 n=e4 v=0
18960 On ch=2 n=d#4 v=45
19195 On ch=2 n=d#4 v=0
19200 Par ch=2 c=64 v=0
19200 Par ch=2 c=64 v=127
19440 On ch=2 n=g3 v=45
19440 On ch=2 n=b3 v=45
19440 On ch=2 n=e4 v=45
19675 On ch=2 n=e4 v=0
19675 On ch=2 n=b3 v=0
19675 On ch=2 n=g3 v=0
19680 On ch=2 n=g4 v=45
19915 On ch=2 n=g4 v=0
19920 Par ch=2 c=64 v=0
19920 Par ch=2 c=64 v=127
20160 On ch=2 n=f#4 v=45
20160 On ch=2 n=a4 v=45
20160 On ch=2 n=f#5 v=45
20395 On ch=2 n=f#5 v=0
20395 On ch=2 n=a4 v=0
20395 On ch=2 n=f#4 v=0
20400 On ch=2 n=f4 v=45
20635 On ch=2 n=f4 v=0
20640 Par ch=2 c=64 v=0
20640 Par ch=2 c=64 v=127
20880 On ch=2 n=a3 v=45
20880 On ch=2 n=c4 v=45
20880 On ch=2 n=f#4 v=45
21115 On ch=2 n=f#4 v=0
21115 On ch=2 n=c4 v=0
21115 On ch=2 n=a3 v=0
21120 On ch=2 n=g4 v=45
21355 On ch=2 n=g4 v=0
21360 Par ch=2 c=64 v=0
21360 Par ch=2 c=64 v=127
21600 On ch=2 n=f#4 v=45
21600 On ch=2 n=a4 v=45
21600 On ch=2 n=f#5 v=45
21835 On ch=2 n=f#5 v=0
21835 On ch=2 n=a4 v=0
21835 On ch=2 n=f#4 v=0
21840 On ch=2 n=f4 v=45
22075 On ch=2 n=f4 v=0
22080 Par ch=2 c=64 v=0
22080 Par ch=2 c=64 v=127
22320 On ch=2 n=a3 v=45
22320 On ch=2 n=c4 v=45
22320 On ch=2 n=f#4 v=45
22555 On ch=2 n=f#4 v=0
22555 On ch=2 n=c4 v=0
22555 On ch=2 n=a3 v=0
22560 On ch=2 n=a4 v=45
22795 On ch=2 n=a4 v=0
22800 Par ch=2 c=64 v=0
22800 Par ch=2 c=64 v=127
23040 Par ch=2 c=64 v=0
23040 Par ch=2 c=64 v=127
23040 On ch=2 n=g4 v=45
23040 On ch=2 n=b4 v=45
23040 On ch=2 n=g5 v=45
23275 On ch=2 n=g5 v=0
23275 On ch=2 n=b4 v=0
23275 On ch=2 n=g4 v=0
23280 Par ch=2 c=64 v=0
23280 On ch=2 n=f#4 v=47
23515 On ch=2 n=f#4 v=0
23760 Par ch=2 c=64 v=127
23760 On ch=2 n=b3 v=51
23760 On ch=2 n=d4 v=51
23760 On ch=2 n=g#4 v=51
23995 On ch=2 n=g#4 v=0
23995 On ch=2 n=d4 v=0
23995 On ch=2 n=b3 v=0
24000 On ch=2 n=d5 v=54
24235 On ch=2 n=d5 v=0
24240 Par ch=2 c=64 v=0
24240 Par ch=2 c=64 v=127
24480 On ch=2 n=a4 v=60
24480 On ch=2 n=c5 v=60
24480 On ch=2 n=a5 v=60
24715 On ch=2 n=a5 v=0
24715 On ch=2 n=c5 v=0
24715 On ch=2 n=a4 v=0
24720 On ch=2 n=g#4 v=63
24955 On ch=2 n=g#4 v=0
24960 Par ch=2 c=64 v=0
24960 Par ch=2 c=64 v=127
25200 On ch=2 n=c#4 v=69
25200 On ch=2 n=e4 v=69
25200 On ch=2 n=a#4 v=69
25435 On ch=2 n=a#4 v=0
25435 On ch=2 n=e4 v=0
25435 On ch=2 n=c#4 v=0
25440 On ch=2 n=e5 v=72
25675 On ch=2 n=e5 v=0
25680 Par ch=2 c=64 v=0
25680 Par ch=2 c=64 v=127
25920 On ch=2 n=b4 v=75
25920 On ch=2 n=d5 v=75
25920 On ch=2 n=b5 v=75
26155 On ch=2 n=b5 v=0
26155 On ch=2 n=d5 v=0
26155 On ch=2 n=b4 v=0
26160 On ch=2 n=d4 v=75
26395 On ch=2 n=d4 v=0
26400 Par ch=2 c=64 v=0
26400 Par ch=2 c=64 v=127
26640 On ch=2 n=e4 v=72
26640 On ch=2 n=g4 v=72
26640 On ch=2 n=c#5 v=72
26875 On ch=2 n=c#5 v=0
26875 On ch=2 n=g4 v=0
26875 On ch=2 n=e4 v=0
26880 On ch=2 n=f#5 v=69
27115 On ch=2 n=f#5 v=0
27120 Par ch=2 c=64 v=0
27120 Par ch=2 c=64 v=127
27360 On ch=2 n=f#4 v=63
27360 On ch=2 n=b4 v=63
27595 On ch=2 n=b4 v=0
27595 On ch=2 n=f#4 v=0
27600 On ch=2 n=e5 v=60
27835 On ch=2 n=e5 v=0
27840 Par ch=2 c=64 v=0
27840 Par ch=2 c=64 v=0
27840 Par ch=2 c=64 v=127
28080 On ch=2 n=f#4 v=54
28080 On ch=2 n=a#4 v=54
28320 On ch=2 n=f#5 v=51
28555 On ch=2 n=f#5 v=0
28560 On ch=2 n=e5 v=48
28720 On ch=2 n=a#4 v=0
28720 On ch=2 n=f#4 v=0
28795 On ch=2 n=e5 v=0
28800 On ch=2 n=b4 v=45
28800 On ch=2 n=d5 v=45
28800 On ch=2 n=b5 v=45
29035 On ch=2 n=b5 v=0
29035 On ch=2 n=d5 v=0
29035 On ch=2 n=b4 v=0
29040 On ch=2 n=d4 v=60
29275 On ch=2 n=d4 v=0
29280 Par ch=2 c=64 v=0
29280 Par ch=2 c=64 v=127
29520 On ch=2 n=e4 v=65
29520 On ch=2 n=a4 v=65
29520 On ch=2 n=c#5 v=65
29755 On ch=2 n=c#5 v=0
29755 On ch=2 n=a4 v=0
29755 On ch=2 n=e4 v=0
29760 On ch=2 n=a5 v=55
29995 On ch=2 n=a5 v=0
30000 Par ch=2 c=64 v=0
30000 Par ch=2 c=64 v=127
30240 On ch=2 n=f#4 v=45
30240 On ch=2 n=b4 v=45
30240 On ch=2 n=d5 v=45
30475 On ch=2 n=d5 v=0
30475 On ch=2 n=b4 v=0
30475 On ch=2 n=f#4 v=0
30480 On ch=2 n=g5 v=45
30715 On ch=2 n=g5 v=0
30720 Par ch=2 c=64 v=0
30720 Par ch=2 c=64 v=127
30960 On ch=2 n=f#4 v=45
30960 On ch=2 n=c#5 v=45
30960 On ch=2 n=e5 v=45
31195 On ch=2 n=e5 v=0
31195 On ch=2 n=c#5 v=0
31195 On ch=2 n=f#4 v=0
31200 On ch=2 n=f#5 v=45
31435 On ch=2 n=f#5 v=0
31440 Par ch=2 c=64 v=0
31440 Par ch=2 c=64 v=127
31680 On ch=2 n=b2 v=45
31915 On ch=2 n=b2 v=0
31920 Par ch=2 c=64 v=0
31920 On ch=2 n=f#3 v=45
32320 On ch=2 n=f#3 v=0
32400 On ch=2 n=b3 v=45
32635 On ch=2 n=b3 v=0
32640 On ch=2 n=d#4 v=45
33040 On ch=2 n=d#4 v=0
33120 On ch=2 n=b2 v=45
33355 On ch=2 n=b2 v=0
33360 On ch=2 n=g#3 v=45
33760 On ch=2 n=g#3 v=0
33840 On ch=2 n=b3 v=45
34075 On ch=2 n=b3 v=0
34080 On ch=2 n=e4 v=45
34480 On ch=2 n=e4 v=0
34560 On ch=2 n=b2 v=45
34795 On ch=2 n=b2 v=0
34800 On ch=2 n=f3 v=45
35200 On ch=2 n=f3 v=0
35280 On ch=2 n=g#3 v=45
35515 On ch=2 n=g#3 v=0
35520 On ch=2 n=b3 v=45
35920 On ch=2 n=b3 v=0
36000 On ch=2 n=b2 v=45
36235 On ch=2 n=b2 v=0
36240 On ch=2 n=e3 v=45
36640 On ch=2 n=e3 v=0
36720 On ch=2 n=g3 v=45
36955 On ch=2 n=g3 v=0
36960 On ch=2 n=b3 v=45
36960 On ch=2 n=c#4 v=45
36960 On ch=2 n=e4 v=45
37600 On ch=2 n=e4 v=0
37600 On ch=2 n=c#4 v=0
37600 On ch=2 n=b3 v=0
37680 On ch=2 n=b3 v=45
37915 On ch=2 n=b3 v=0
37920 On ch=2 n=d#4 v=45
38155 On ch=2 n=d#4 v=0
38160 On ch=2 n=d#5 v=45
38395 On ch=2 n=d#5 v=0
38880 On ch=2 n=b2 v=45
38960 On ch=2 n=b2 v=0
39120 On ch=2 n=b3 v=45
39355 On ch=2 n=b3 v=0
39360 On ch=2 n=e4 v=45
39595 On ch=2 n=e4 v=0
39600 On ch=2 n=e5 v=45
39835 On ch=2 n=e5 v=0
40320 On ch=2 n=b2 v=45
40555 On ch=2 n=b2 v=0
40560 On ch=2 n=b3 v=48
40795 On ch=2 n=b3 v=0
40800 On ch=2 n=f4 v=51
41035 On ch=2 n=f4 v=0
41040 On ch=2 n=f5 v=54
41275 On ch=2 n=f5 v=0
41760 On ch=2 n=b2 v=64
41995 On ch=2 n=b2 v=0
42000 On ch=2 n=b3 v=68
42235 On ch=2 n=b3 v=0
42240 On ch=2 n=e4 v=72
42475 On ch=2 n=e4 v=0
42480 On ch=2 n=e5 v=76
42715 On ch=2 n=e5 v=0
43200 On ch=2 n=b2 v=88
43280 On ch=2 n=b2 v=0
43440 On ch=2 n=b3 v=92
43675 On ch=2 n=b3 v=0
43680 On ch=2 n=f#4 v=92
43915 On ch=2 n=f#4 v=0
43920 On ch=2 n=f#5 v=92
44155 On ch=2 n=f#5 v=0
44160 On ch=2 n=b2 v=92
44800 On ch=2 n=b2 v=0
44880 On ch=2 n=b3 v=92
45115 On ch=2 n=b3 v=0
45120 On ch=2 n=f#4 v=92
45355 On ch=2 n=f#4 v=0
45360 On ch=2 n=e5 v=92
45595 On ch=2 n=e5 v=0
45600 On ch=2 n=b2 v=92
46240 On ch=2 n=b2 v=0
46320 On ch=2 n=c4 v=92
46320 On ch=2 n=c4 v=92
46555 On ch=2 n=c4 v=0
46560 On ch=2 n=a4 v=90
46720 On ch=2 n=c4 v=0
46795 On ch=2 n=a4 v=0
46800 On ch=2 n=e5 v=88
47035 On ch=2 n=e5 v=0
47040 On ch=2 n=b3 v=86
47440 On ch=2 n=b3 v=0
47760 On ch=2 n=a3 v=78
47760 On ch=2 n=a3 v=78
47995 On ch=2 n=a3 v=0
48000 On ch=2 n=f#4 v=75
48160 On ch=2 n=a3 v=0
48235 On ch=2 n=f#4 v=0
48240 On ch=2 n=e5 v=72
48475 On ch=2 n=e5 v=0
48480 On ch=2 n=b3 v=69
48880 On ch=2 n=b3 v=0
49200 On ch=2 n=c4 v=60
49200 On ch=2 n=c4 v=60
49435 On ch=2 n=c4 v=0
49440 On ch=2 n=a4 v=65
49600 On ch=2 n=c4 v=0
49675 On ch=2 n=a4 v=0
49680 On ch=2 n=e5 v=70
49915 On ch=2 n=e5 v=0
49920 On ch=2 n=b3 v=75
50320 On ch=2 n=b3 v=0
50640 On ch=2 n=a3 v=92
50640 On ch=2 n=a3 v=92
50875 On ch=2 n=a3 v=0
50880 On ch=2 n=f#4 v=87
51040 On ch=2 n=a3 v=0
51115 On ch=2 n=f#4 v=0
51120 On ch=2 n=e5 v=82
51355 On ch=2 n=e5 v=0
51360 On ch=2 n=f#3 v=77
51360 On ch=2 n=f#3 v=77
51595 On ch=2 n=f#3 v=0
51600 On ch=2 n=a4 v=72
51760 On ch=2 n=f#3 v=0
51835 On ch=2 n=a4 v=0
51840 On ch=2 n=e5 v=66
52075 On ch=2 n=e5 v=0
52080 Par ch=2 c=64 v=0
52080 Par ch=2 c=64 v=127
52080 On ch=2 n=b3 v=60
52315 On ch=2 n=b3 v=0
52320 On ch=2 n=a4 v=59
52555 On ch=2 n=a4 v=0
52560 Par ch=2 c=64 v=0
52560 Par ch=2 c=64 v=127
53040 On ch=2 n=b4 v=56
53275 On ch=2 n=b4 v=0
53280 Par ch=2 c=64 v=0
53280 Par ch=2 c=64 v=127
53760 On ch=2 n=b3 v=53
53760 On ch=2 n=a4 v=53
53840 On ch=2 n=a4 v=0
53840 On ch=2 n=b3 v=0
54000 Par ch=2 c=64 v=0
54000 Par ch=2 c=64 v=127
54480 On ch=2 n=b4 v=47
54560 On ch=2 n=b4 v=0
54720 Par ch=2 c=64 v=0
54720 Par ch=2 c=64 v=127
55200 On ch=2 n=b3 v=43
55200 On ch=2 n=a4 v=43
55280 On ch=2 n=a4 v=0
55280 On ch=2 n=b3 v=0
55440 Par ch=2 c=64 v=0
55440 Par ch=2 c=64 v=127
55920 On ch=2 n=b4 v=40
56000 On ch=2 n=b4 v=0
56160 Par ch=2 c=64 v=0
56160 Par ch=2 c=64 v=127
56640 On ch=2 n=b3 v=36
56640 On ch=2 n=a4 v=36
56720 On ch=2 n=a4 v=0
56720 On ch=2 n=b3 v=0
56880 Par ch=2 c=64 v=0
56880 Par ch=2 c=64 v=127
57360 On ch=2 n=b4 v=30
57440 On ch=2 n=b4 v=0
57600 On ch=2 n=a4 v=30
57600 On ch=2 n=c5 v=30
57600 On ch=2 n=g5 v=30
57835 On ch=2 n=g5 v=0
57835 On ch=2 n=c5 v=0
57835 On ch=2 n=a4 v=0
57840 On ch=2 n=g#4 v=30
58075 On ch=2 n=g#4 v=0
58080 Par ch=2 c=64 v=0
58080 Par ch=2 c=64 v=127
58320 On ch=2 n=c4 v=30
58320 On ch=2 n=e4 v=30
58320 On ch=2 n=a4 v=30
58555 On ch=2 n=a4 v=0
58555 On ch=2 n=e4 v=0
58555 On ch=2 n=c4 v=0
58560 On ch=2 n=b4 v=30
58795 On ch=2 n=b4 v=0
58800 Par ch=2 c=64 v=0
58800 Par ch=2 c=64 v=127
59040 On ch=2 n=a4 v=30
59040 On ch=2 n=c5 v=30
59040 On ch=2 n=a5 v=30
59275 On ch=2 n=a5 v=0
59275 On ch=2 n=c5 v=0
59275 On ch=2 n=a4 v=0
59280 On ch=2 n=g#4 v=30
59515 On ch=2 n=g#4 v=0
59520 Par ch=2 c=64 v=0
59520 Par ch=2 c=64 v=127
59760 On ch=2 n=c4 v=30
59760 On ch=2 n=f#4 v=30
59760 On ch=2 n=a4 v=30
59995 On ch=2 n=a4 v=0
59995 On ch=2 n=f#4 v=0
59995 On ch=2 n=c4 v=0
60000 On ch=2 n=d#5 v=30
60235 On ch=2 n=d#5 v=0
60240 Par ch=2 c=64 v=0
60240 Par ch=2 c=64 v=127
60480 On ch=2 n=g4 v=30
60480 On ch=2 n=b4 v=30
60480 On ch=2 n=g#5 v=30
60715 On ch=2 n=g#5 v=0
60715 On ch=2 n=b4 v=0
60715 On ch=2 n=g4 v=0
60720 On ch=2 n=f#4 v=30
60955 On ch=2 n=f#4 v=0
60960 Par ch=2 c=64 v=0
60960 Par ch=2 c=64 v=127
61200 On ch=2 n=b3 v=30
61200 On ch=2 n=d4 v=30
61200 On ch=2 n=g4 v=30
61435 On ch=2 n=g4 v=0
61435 On ch=2 n=d4 v=0
61435 On ch=2 n=b3 v=0
61440 On ch=2 n=a4 v=30
61675 On ch=2 n=a4 v=0
61680 Par ch=2 c=64 v=0
61680 Par ch=2 c=64 v=127
61920 On ch=2 n=g4 v=30
61920 On ch=2 n=b4 v=30
61920 On ch=2 n=g5 v=30
62155 On ch=2 n=g5 v=0
62155 On ch=2 n=b4 v=0
62155 On ch=2 n=g4 v=0
62160 On ch=2 n=f#4 v=30
62395 On ch=2 n=f#4 v=0
62400 Par ch=2 c=64 v=0
62400 Par ch=2 c=64 v=127
62640 On ch=2 n=a#3 v=30
62640 On ch=2 n=e4 v=30
62640 On ch=2 n=g4 v=30
62875 On ch=2 n=g4 v=0
62875 On ch=2 n=e4 v=0
62875 On ch=2 n=a#3 v=0
62880 On ch=2 n=c#5 v=30
63115 On ch=2 n=c#5 v=0
63120 Par ch=2 c=64 v=0
63120 Par ch=2 c=64 v=127
63360 On ch=2 n=f4 v=30
63360 On ch=2 n=a4 v=30
63360 On ch=2 n=f5 v=30
63595 On ch=2 n=f5 v=0
63595 On ch=2 n=a4 v=0
63595 On ch=2 n=f4 v=0
63600 On ch=2 n=e4 v=30
63835 On ch=2 n=e4 v=0
63840 Par ch=2 c=64 v=0
63840 Par ch=2 c=64 v=127
64080 On ch=2 n=f4 v=30
64080 On ch=2 n=a4 v=30
64080 On ch=2 n=c5 v=30
64315 On ch=2 n=c5 v=0
64315 On ch=2 n=a4 v=0
64315 On ch=2 n=f4 v=0
64320 On ch=2 n=e4 v=33
64555 On ch=2 n=e4 v=0
64560 Par ch=2 c=64 v=0
64560 Par ch=2 c=64 v=127
64800 On ch=2 n=a3 v=39
64800 On ch=2 n=c4 v=39
64800 On ch=2 n=f4 v=39
65035 On ch=2 n=f4 v=0
65035 On ch=2 n=c4 v=0
65035 On ch=2 n=a3 v=0
65040 On ch=2 n=g#4 v=42
65275 On ch=2 n=g#4 v=0
65280 Par ch=2 c=64 v=0
65280 Par ch=2 c=64 v=127
65520 On ch=2 n=c4 v=48
65520 On ch=2 n=f4 v=48
65520 On ch=2 n=a4 v=48
65755 On ch=2 n=a4 v=0
65755 On ch=2 n=f4 v=0
65755 On ch=2 n=c4 v=0
65760 On ch=2 n=b4 v=52
65995 On ch=2 n=b4 v=0
66000 Par ch=2 c=64 v=0
66240 On ch=2 n=f4 v=60
66240 On ch=2 n=a4 v=60
66240 On ch=2 n=c5 v=60
67600 On ch=2 n=c5 v=0
67600 On ch=2 n=a4 v=0
67680 On ch=2 n=a4 v=68
67915 On ch=2 n=a4 v=0
67920 On ch=2 n=b4 v=65
68560 On ch=2 n=b4 v=0
68640 On ch=2 n=c#5 v=53
69040 On ch=2 n=c#5 v=0
69120 On ch=2 n=b2 v=45
69355 On ch=2 n=b2 v=0
69360 On ch=2 n=f#3 v=45
69760 On ch=2 n=f#3 v=0
69840 On ch=2 n=b3 v=45
70075 On ch=2 n=b3 v=0
70080 On ch=2 n=d#4 v=45
70480 On ch=2 n=d#4 v=0
70560 On ch=2 n=b2 v=45
70795 On ch=2 n=b2 v=0
70800 On ch=2 n=g#3 v=45
71200 On ch=2 n=g#3 v=0
71280 On ch=2 n=b3 v=45
71515 On ch=2 n=b3 v=0
71520 On ch=2 n=e4 v=45
71920 On ch=2 n=e4 v=0
72000 On ch=2 n=b2 v=45
72235 On ch=2 n=b2 v=0
72240 On ch=2 n=f3 v=45
72640 On ch=2 n=f3 v=0
72720 On ch=2 n=g#3 v=45
72955 On ch=2 n=g#3 v=0
72960 On ch=2 n=b3 v=45
73360 On ch=2 n=b3 v=0
73440 On ch=2 n=b2 v=45
73675 On ch=2 n=b2 v=0
73680 On ch=2 n=e3 v=45
74080 On ch=2 n=e3 v=0
74160 On ch=2 n=g3 v=45
74395 On ch=2 n=g3 v=0
74400 On ch=2 n=b3 v=45
74400 On ch=2 n=c#4 v=45
74400 On ch=2 n=e4 v=45
75040 On ch=2 n=e4 v=0
75040 On ch=2 n=c#4 v=0
75040 On ch=2 n=b3 v=0
75120 On ch=2 n=b3 v=45
75355 On ch=2 n=b3 v=0
75360 On ch=2 n=d#4 v=45
75595 On ch=2 n=d#4 v=0
75600 On ch=2 n=d#5 v=45
75835 On ch=2 n=d#5 v=0
76320 On ch=2 n=b2 v=45
76400 On ch=2 n=b2 v=0
76560 On ch=2 n=b3 v=45
76795 On ch=2 n=b3 v=0
76800 On ch=2 n=e4 v=45
77035 On ch=2 n=e4 v=0
77040 On ch=2 n=e5 v=45
77275 On ch=2 n=e5 v=0
77760 On ch=2 n=b2 v=45
77995 On ch=2 n=b2 v=0
78000 On ch=2 n=b3 v=48
78235 On ch=2 n=b3 v=0
78240 On ch=2 n=f4 v=51
78475 On ch=2 n=f4 v=0
78480 On ch=2 n=f5 v=54
78715 On ch=2 n=f5 v=0
79200 On ch=2 n=b2 v=64
79435 On ch=2 n=b2 v=0
79440 On ch=2 n=b3 v=68
79675 On ch=2 n=b3 v=0
79680 On ch=2 n=e4 v=72
79915 On ch=2 n=e4 v=0
79920 On ch=2 n=e5 v=76
80155 On ch=2 n=e5 v=0
80640 On ch=2 n=b2 v=88
80720 On ch=2 n=b2 v=0
80880 On ch=2 n=b3 v=92
81115 On ch=2 n=b3 v=0
81120 On ch=2 n=f#4 v=92
81355 On ch=2 n=f#4 v=0
81360 On ch=2 n=f#5 v=92
81595 On ch=2 n=f#5 v=0
81600 On ch=2 n=b2 v=92
82240 On ch=2 n=b2 v=0
82320 On ch=2 n=b3 v=92
82555 On ch=2 n=b3 v=0
82560 On ch=2 n=f#4 v=92
82795 On ch=2 n=f#4 v=0
82800 On ch=2 n=e5 v=92
83035 On ch=2 n=e5 v=0
83040 On ch=2 n=b2 v=92
83680 On ch=2 n=b2 v=0
83760 On ch=2 n=c4 v=92
83760 On ch=2 n=c4 v=92
83995 On ch=2 n=c4 v=0
84000 On ch=2 n=a4 v=90
84160 On ch=2 n=c4 v=0
84235 On ch=2 n=a4 v=0
84240 On ch=2 n=e5 v=88
84475 On ch=2 n=e5 v=0
84480 On ch=2 n=b3 v=86
84880 On ch=2 n=b3 v=0
85200 On ch=2 n=a3 v=78
85200 On ch=2 n=a3 v=78
85435 On ch=2 n=a3 v=0
85440 On ch=2 n=f#4 v=75
85600 On ch=2 n=a3 v=0
85675 On ch=2 n=f#4 v=0
85680 On ch=2 n=e5 v=72
85915 On ch=2 n=e5 v=0
85920 On ch=2 n=b3 v=69
86320 On ch=2 n=b3 v=0
86640 On ch=2 n=c4 v=60
86640 On ch=2 n=c4 v=60
86875 On ch=2 n=c4 v=0
86880 On ch=2 n=a4 v=65
87040 On ch=2 n=c4 v=0
87115 On ch=2 n=a4 v=0
87120 On ch=2 n=e5 v=70
87355 On ch=2 n=e5 v=0
87360 On ch=2 n=b3 v=75
87760 On ch=2 n=b3 v=0
88080 On ch=2 n=a3 v=92
88080 On ch=2 n=a3 v=92
88315 On ch=2 n=a3 v=0
88320 On ch=2 n=f#4 v=87
88480 On ch=2 n=a3 v=0
88555 On ch=2 n=f#4 v=0
88560 On ch=2 n=e5 v=82
88795 On ch=2 n=e5 v=0
88800 On ch=2 n=f#3 v=77
88800 On ch=2 n=f#3 v=77
89035 On ch=2 n=f#3 v=0
89040 On ch=2 n=a4 v=72
89200 On ch=2 n=f#3 v=0
89275 On ch=2 n=a4 v=0
89280 On ch=2 n=e5 v=66
89515 On ch=2 n=e5 v=0
89520 Par ch=2 c=64 v=0
89520 Par ch=2 c=64 v=127
89520 On ch=2 n=b3 v=60
89755 On ch=2 n=b3 v=0
89760 On ch=2 n=a4 v=59
89995 On ch=2 n=a4 v=0
90000 Par ch=2 c=64 v=0
90000 Par ch=2 c=64 v=127
90480 On ch=2 n=b4 v=56
90715 On ch=2 n=b4 v=0
90720 Par ch=2 c=64 v=0
90720 Par ch=2 c=64 v=127
91200 On ch=2 n=b3 v=53
91200 On ch=2 n=a4 v=53
91280 On ch=2 n=a4 v=0
91280 On ch=2 n=b3 v=0
91440 Par ch=2 c=64 v=0
91440 Par ch=2 c=64 v=127
91920 On ch=2 n=b4 v=47
92000 On ch=2 n=b4 v=0
92160 Par ch=2 c=64 v=0
92160 Par ch=2 c=64 v=127
92640 On ch=2 n=b3 v=43
92640 On ch=2 n=a4 v=43
92720 On ch=2 n=a4 v=0
92720 On ch=2 n=b3 v=0
92880 Par ch=2 c=64 v=0
92880 Par ch=2 c=64 v=127
93360 On ch=2 n=b4 v=40
93440 On ch=2 n=b4 v=0
93600 Par ch=2 c=64 v=0
93600 Par ch=2 c=64 v=127
94080 On ch=2 n=b3 v=36
94080 On ch=2 n=a4 v=36
94160 On ch=2 n=a4 v=0
94160 On ch=2 n=b3 v=0
94320 Par ch=2 c=64 v=0
94320 Par ch=2 c=64 v=127
94800 On ch=2 n=b4 v=30
94880 On ch=2 n=b4 v=0
95040 On ch=2 n=a4 v=30
95040 On ch=2 n=c5 v=30
95040 On ch=2 n=g5 v=30
95275 On ch=2 n=g5 v=0
95275 On ch=2 n=c5 v=0
95275 On ch=2 n=a4 v=0
95280 On ch=2 n=g#4 v=30
95515 On ch=2 n=g#4 v=0
95520 Par ch=2 c=64 v=0
95520 Par ch=2 c=64 v=127
95760 On ch=2 n=c4 v=30
95760 On ch=2 n=e4 v=30
95760 On ch=2 n=a4 v=30
95995 On ch=2 n=a4 v=0
95995 On ch=2 n=e4 v=0
95995 On ch=2 n=c4 v=0
96000 On ch=2 n=b4 v=30
96235 On ch=2 n=b4 v=0
96240 Par ch=2 c=64 v=0
96240 Par ch=2 c=64 v=127
96480 On ch=2 n=a4 v=30
96480 On ch=2 n=c5 v=30
96480 On ch=2 n=a5 v=30
96715 On ch=2 n=a5 v=0
96715 On ch=2 n=c5 v=0
96715 On ch=2 n=a4 v=0
96720 On ch=2 n=g#4 v=30
96955 On ch=2 n=g#4 v=0
96960 Par ch=2 c=64 v=0
96960 Par ch=2 c=64 v=127
97200 On ch=2 n=c4 v=30
97200 On ch=2 n=f#4 v=30
97200 On ch=2 n=a4 v=30
97435 On ch=2 n=a4 v=0
97435 On ch=2 n=f#4 v=0
97435 On ch=2 n=c4 v=0
97440 On ch=2 n=d#5 v=30
97675 On ch=2 n=d#5 v=0
97680 Par ch=2 c=64 v=0
97680 Par ch=2 c=64 v=127
97920 On ch=2 n=g4 v=30
97920 On ch=2 n=b4 v=30
97920 On ch=2 n=g#5 v=30
98155 On ch=2 n=g#5 v=0
98155 On ch=2 n=b4 v=0
98155 On ch=2 n=g4 v=0
98160 On ch=2 n=f#4 v=30
98395 On ch=2 n=f#4 v=0
98400 Par ch=2 c=64 v=0
98400 Par ch=2 c=64 v=127
98640 On ch=2 n=b3 v=30
98640 On ch=2 n=d4 v=30
98640 On ch=2 n=g4 v=30
98875 On ch=2 n=g4 v=0
98875 On ch=2 n=d4 v=0
98875 On ch=2 n=b3 v=0
98880 On ch=2 n=a4 v=30
99115 On ch=2 n=a4 v=0
99120 Par ch=2 c=64 v=0
99120 Par ch=2 c=64 v=127
99360 On ch=2 n=g4 v=30
99360 On ch=2 n=b4 v=30
99360 On ch=2 n=g5 v=30
99595 On ch=2 n=g5 v=0
99595 On ch=2 n=b4 v=0
99595 On ch=2 n=g4 v=0
99600 On ch=2 n=f#4 v=30
99835 On ch=2 n=f#4 v=0
99840 Par ch=2 c=64 v=0
99840 Par ch=2 c=64 v=127
100080 On ch=2 n=a#3 v=30
100080 On ch=2 n=e4 v=30
100080 On ch=2 n=g4 v=30
100315 On ch=2 n=g4 v=0
100315 On ch=2 n=e4 v=0
100315 On ch=2 n=a#3 v=0
100320 On ch=2 n=c#5 v=30
100555 On ch=2 n=c#5 v=0
100560 Par ch=2 c=64 v=0
100560 Par ch=2 c=64 v=127
100800 On ch=2 n=f4 v=30
100800 On ch=2 n=a4 v=30
100800 On ch=2 n=f5 v=30
101035 On ch=2 n=f5 v=0
101035 On ch=2 n=a4 v=0
101035 On ch=2 n=f4 v=0
101040 On ch=2 n=e4 v=30
101275 On ch=2 n=e4 v=0
101280 Par ch=2 c=64 v=0
101280 Par ch=2 c=64 v=127
101520 On ch=2 n=f4 v=30
101520 On ch=2 n=a4 v=30
101520 On ch=2 n=c5 v=30
101755 On ch=2 n=c5 v=0
101755 On ch=2 n=a4 v=0
101755 On ch=2 n=f4 v=0
101760 On ch=2 n=e4 v=33
101995 On ch=2 n=e4 v=0
102000 Par ch=2 c=64 v=0
102000 Par ch=2 c=64 v=127
102240 On ch=2 n=a3 v=39
102240 On ch=2 n=c4 v=39
102240 On ch=2 n=f4 v=39
102475 On ch=2 n=c4 v=0
102475 On ch=2 n=a3 v=0
102475 On ch=2 n=f4 v=0
102480 On ch=2 n=g#4 v=42
102715 On ch=2 n=g#4 v=0
102720 Par ch=2 c=64 v=0
102720 Par ch=2 c=64 v=127
102960 On ch=2 n=c4 v=48
102960 On ch=2 n=f4 v=48
102960 On ch=2 n=a4 v=48
103195 On ch=2 n=a4 v=0
103195 On ch=2 n=c4 v=0
103195 On ch=2 n=f4 v=0
103200 On ch=2 n=b4 v=52
103435 On ch=2 n=b4 v=0
103440 Par ch=2 c=64 v=0
103680 On ch=2 n=f4 v=75
103680 On ch=2 n=a4 v=75
103680 On ch=2 n=c5 v=75
106000 On ch=2 n=c5 v=0
106000 On ch=2 n=a4 v=0
106080 On ch=2 n=f#3 v=45
106080 On ch=2 n=b3 v=45
106080 On ch=2 n=f#4 v=45
107440 On ch=2 n=f#4 v=0
107440 On ch=2 n=b3 v=0
107440 On ch=2 n=f#3 v=0
107520 On ch=2 n=b2 v=45
107520 On ch=2 n=b3 v=45
108880 On ch=2 n=b3 v=0
108880 On ch=2 n=b2 v=0
108960 On ch=2 n=e2 v=60
108960 On ch=2 n=e3 v=60
110080 On ch=2 n=e3 v=0
110080 On ch=2 n=e2 v=0
110080 On ch=2 n=f4 v=0
110080 On ch=2 n=f4 v=0
110080 Meta TrkEnd
TrkEnd
