MFile 0 1 480
MTrk
0 SMPTE 96 0 0 0 0
0 TimeSig 4/4 24 8
0 KeySig 0 major
0 Tempo 500000
0 Par ch=1 c=64 v=127
0 Par ch=1 c=64 v=0
0 Par ch=1 c=64 v=127
0 On ch=1 n=f#6 v=52
0 On ch=1 n=c#4 v=16
202 Off ch=1 n=c#4 v=64
366 Off ch=1 n=f#6 v=64
526 On ch=1 n=g#5 v=12
546 On ch=1 n=f5 v=15
754 Off ch=1 n=f5 v=64
778 Off ch=1 n=g#5 v=64
846 On ch=1 n=f6 v=55
898 On ch=1 n=c#5 v=15
1008 Off ch=1 n=c#5 v=64
1128 On ch=1 n=g#4 v=28
1152 On ch=1 n=f5 v=19
1266 Off ch=1 n=f5 v=64
1284 Off ch=1 n=g#4 v=64
1380 On ch=1 n=d#6 v=68
1416 Off ch=1 n=f6 v=64
1668 On ch=1 n=f5 v=25
1736 Off ch=1 n=f5 v=64
1936 On ch=1 n=c#6 v=52
1952 Off ch=1 n=d#6 v=64
1954 On ch=1 n=c#4 v=17
1994 Par ch=1 c=64 v=0
2132 Par ch=1 c=64 v=127
2144 Off ch=1 n=c#4 v=64
2296 On ch=1 n=f5 v=15
2296 On ch=1 n=g#5 v=29
2466 Off ch=1 n=g#5 v=64
2524 Off ch=1 n=f5 v=64
2562 Off ch=1 n=c#6 v=64
2570 On ch=1 n=c6 v=52
2610 On ch=1 n=c#5 v=26
2696 Off ch=1 n=c#5 v=64
2834 On ch=1 n=f5 v=27
2870 On ch=1 n=g#4 v=16
2918 Off ch=1 n=f5 v=64
3050 Off ch=1 n=g#4 v=64
3080 On ch=1 n=a#5 v=60
3128 Off ch=1 n=c6 v=64
3368 Off ch=1 n=a#5 v=64
3372 On ch=1 n=f5 v=25
3538 Off ch=1 n=f5 v=64
3682 On ch=1 n=g5 v=54
3704 On ch=1 n=c#4 v=18
3730 Par ch=1 c=64 v=0
3992 Par ch=1 c=64 v=127
4004 On ch=1 n=e5 v=38
4048 Off ch=1 n=c#4 v=64
4094 Off ch=1 n=e5 v=64
4302 Off ch=1 n=g5 v=64
4320 On ch=1 n=g#5 v=44
4606 Par ch=1 c=64 v=0
4608 On ch=1 n=c#5 v=24
4776 Par ch=1 c=64 v=127
4852 On ch=1 n=a#5 v=50
4890 Off ch=1 n=c#5 v=64
4893 On ch=1 n=g#4 v=24
4906 Off ch=1 n=g#5 v=64
5058 Off ch=1 n=g#4 v=64
5142 On ch=1 n=f5 v=34
5212 Off ch=1 n=a#5 v=64
5406 Off ch=1 n=f5 v=64
5446 On ch=1 n=c6 v=45
5452 Par ch=1 c=64 v=0
5460 On ch=1 n=c#4 v=28
5614 Off ch=1 n=c#4 v=64
5636 Par ch=1 c=64 v=127
5750 On ch=1 n=f5 v=31
5759 On ch=1 n=g#5 v=32
5988 Off ch=1 n=c6 v=64
5998 Off ch=1 n=f5 v=64
6102 On ch=1 n=c#6 v=43
6142 On ch=1 n=c#5 v=19
6374 Par ch=1 c=64 v=0
6392 On ch=1 n=f5 v=21
6440 On ch=1 n=g#4 v=27
6558 Par ch=1 c=64 v=127
6569 Off ch=1 n=g#5 v=64
6616 Off ch=1 n=f5 v=64
6676 Off ch=1 n=c#5 v=64
6700 On ch=1 n=d#6 v=45
6776 Off ch=1 n=c#6 v=64
6814 Off ch=1 n=g#4 v=64
7000 On ch=1 n=f5 v=18
7082 Off ch=1 n=f5 v=64
7160 Off ch=1 n=d#6 v=64
7450 On ch=1 n=f#6 v=57
7494 On ch=1 n=c#4 v=19
7494 Par ch=1 c=64 v=0
7690 Off ch=1 n=c#4 v=64
7710 Par ch=1 c=64 v=127
7844 Off ch=1 n=f#6 v=64
7858 On ch=1 n=g#5 v=22
7892 On ch=1 n=f5 v=30
7988 Off ch=1 n=f5 v=64
8208 On ch=1 n=f6 v=72
8238 On ch=1 n=c#5 v=21
8340 Off ch=1 n=c#5 v=64
8374 Off ch=1 n=g#5 v=64
8502 On ch=1 n=f5 v=29
8516 On ch=1 n=g#4 v=23
8578 Off ch=1 n=f5 v=64
8684 Off ch=1 n=g#4 v=64
8762 Off ch=1 n=f6 v=64
8770 On ch=1 n=d#6 v=72
8962 Off ch=1 n=d#6 v=64
9014 On ch=1 n=f5 v=38
9084 Off ch=1 n=f5 v=64
9156 On ch=1 n=c#6 v=48
9210 Off ch=1 n=c#6 v=64
9228 On ch=1 n=d#6 v=55
9272 On ch=1 n=c#4 v=24
9277 On ch=1 n=c#6 v=59
9277 Par ch=1 c=64 v=0
9326 Off ch=1 n=d#6 v=64
9452 Off ch=1 n=c#4 v=64
9478 Par ch=1 c=64 v=127
9568 On ch=1 n=g#5 v=43
9578 On ch=1 n=f5 v=31
9680 Off ch=1 n=g#5 v=64
9746 Off ch=1 n=f5 v=64
9820 On ch=1 n=c6 v=67
9836 Off ch=1 n=c#6 v=64
9864 On ch=1 n=c#5 v=29
9938 Off ch=1 n=c#5 v=64
10088 On ch=1 n=f5 v=30
10118 On ch=1 n=g#4 v=25
10288 Off ch=1 n=g#4 v=64
10302 Off ch=1 n=f5 v=64
10305 On ch=1 n=a#5 v=61
10426 Off ch=1 n=c6 v=64
10592 On ch=1 n=f5 v=25
10726 Off ch=1 n=f5 v=64
10830 Par ch=1 c=64 v=0
10844 On ch=1 n=g#5 v=64
10858 On ch=1 n=c#4 v=31
10920 Off ch=1 n=a#5 v=64
11054 Off ch=1 n=c#4 v=64
11090 Par ch=1 c=64 v=127
11200 Off ch=1 n=g#5 v=64
11208 On ch=1 n=a#5 v=54
11218 On ch=1 n=e5 v=36
11326 Off ch=1 n=a#5 v=64
11440 Off ch=1 n=e5 v=64
11518 On ch=1 n=g5 v=69
11582 On ch=1 n=c#5 v=17
11668 Off ch=1 n=c#5 v=64
11792 On ch=1 n=e5 v=48
11806 On ch=1 n=a#4 v=15
11874 Off ch=1 n=g5 v=64
11958 Off ch=1 n=a#4 v=64
12014 Off ch=1 n=e5 v=64
12032 On ch=1 n=g#5 v=69
12316 On ch=1 n=e5 v=36
12382 Off ch=1 n=g#5 v=64
12566 Par ch=1 c=64 v=0
12569 On ch=1 n=a#5 v=60
12580 Off ch=1 n=e5 v=64
12586 On ch=1 n=c#4 v=25
12742 Off ch=1 n=c#4 v=64
12766 Par ch=1 c=64 v=127
12816 Off ch=1 n=a#5 v=64
12888 On ch=1 n=a#5 v=41
12912 On ch=1 n=e5 v=18
12960 Off ch=1 n=a#5 v=64
13100 Off ch=1 n=e5 v=64
13172 On ch=1 n=c6 v=55
13218 On ch=1 n=c#5 v=13
13308 Off ch=1 n=c#5 v=64
13446 On ch=1 n=e5 v=37
13468 On ch=1 n=a#4 v=13
13566 Off ch=1 n=e5 v=64
13592 Off ch=1 n=a#4 v=64
13720 On ch=1 n=c#6 v=53
13762 Off ch=1 n=c6 v=64
14046 On ch=1 n=e5 v=32
14130 Off ch=1 n=e5 v=64
14210 Off ch=1 n=c#6 v=64
14394 Par ch=1 c=64 v=0
14422 On ch=1 n=d6 v=59
14422 On ch=1 n=c4 v=23
14602 Off ch=1 n=c4 v=64
14608 Par ch=1 c=64 v=127
14766 On ch=1 n=f#5 v=42
14776 On ch=1 n=d#5 v=33
14832 Off ch=1 n=f#5 v=64
14874 Off ch=1 n=d#5 v=64
14914 Off ch=1 n=d6 v=64
15032 On ch=1 n=d#6 v=64
15060 On ch=1 n=c5 v=34
15152 Off ch=1 n=c5 v=64
15306 On ch=1 n=d#5 v=27
15342 On ch=1 n=a4 v=27
15428 Off ch=1 n=d#5 v=64
15620 On ch=1 n=c#6 v=62
15628 Off ch=1 n=a4 v=64
15680 Off ch=1 n=d#6 v=64
15874 On ch=1 n=d#5 v=41
15932 Off ch=1 n=d#5 v=64
16110 On ch=1 n=c6 v=71
16122 Off ch=1 n=c#6 v=64
16130 Par ch=1 c=64 v=0
16132 On ch=1 n=c#4 v=38
16284 Off ch=1 n=c#4 v=64
16298 Par ch=1 c=64 v=127
16378 On ch=1 n=g#5 v=51
16394 On ch=1 n=f5 v=36
16482 Off ch=1 n=g#5 v=64
16534 Off ch=1 n=f5 v=64
16622 On ch=1 n=a#5 v=72
16650 On ch=1 n=c#5 v=43
16694 Off ch=1 n=c6 v=64
16740 Off ch=1 n=c#5 v=64
16882 On ch=1 n=g#4 v=41
16898 On ch=1 n=f5 v=51
16982 Off ch=1 n=a#5 v=64
17040 Off ch=1 n=g#4 v=64
17070 Off ch=1 n=f5 v=64
17122 On ch=1 n=c#6 v=78
17410 On ch=1 n=f5 v=47
17526 Off ch=1 n=f5 v=64
17564 Off ch=1 n=c#6 v=64
17634 On ch=1 n=e6 v=88
17636 Par ch=1 c=64 v=0
17666 On ch=1 n=d4 v=63
17808 Off ch=1 n=d4 v=64
17820 Par ch=1 c=64 v=127
17922 On ch=1 n=f5 v=35
17928 On ch=1 n=g#5 v=47
18000 Off ch=1 n=g#5 v=64
18028 Off ch=1 n=f5 v=64
18144 On ch=1 n=f6 v=87
18184 On ch=1 n=b4 v=35
18212 Off ch=1 n=e6 v=64
18262 Off ch=1 n=b4 v=64
18405 On ch=1 n=f5 v=61
18428 On ch=1 n=g#4 v=41
18530 Off ch=1 n=f5 v=64
18584 Off ch=1 n=f6 v=64
18622 Off ch=1 n=g#4 v=64
18658 On ch=1 n=g6 v=76
18928 On ch=1 n=g5 v=47
19064 Off ch=1 n=g5 v=64
19104 Off ch=1 n=g6 v=64
19252 On ch=1 n=a#6 v=64
19258 On ch=1 n=f4 v=42
19264 Par ch=1 c=64 v=0
19456 Off ch=1 n=f4 v=64
19480 Par ch=1 c=64 v=127
19640 On ch=1 n=a#5 v=27
19642 On ch=1 n=b5 v=34
19776 Off ch=1 n=b5 v=64
19802 Off ch=1 n=a#5 v=64
19996 On ch=1 n=g#6 v=55
20014 On ch=1 n=d5 v=26
20038 Off ch=1 n=a#6 v=64
20112 Off ch=1 n=d5 v=64
20294 On ch=1 n=g#5 v=23
20322 Off ch=1 n=g#6 v=64
20336 On ch=1 n=b4 v=18
20516 Off ch=1 n=g#5 v=64
20522 Off ch=1 n=b4 v=64
20598 On ch=1 n=g#6 v=52
20898 On ch=1 n=g#5 v=24
21038 Off ch=1 n=g#5 v=64
21192 On ch=1 n=d#6 v=67
21200 Par ch=1 c=64 v=0
21204 Off ch=1 n=g#6 v=64
21244 On ch=1 n=d#4 v=35
21338 Off ch=1 n=d#4 v=64
21370 Par ch=1 c=64 v=127
21508 On ch=1 n=c#6 v=40
21526 On ch=1 n=g5 v=42
21598 Off ch=1 n=c#6 v=64
21600 Off ch=1 n=g5 v=64
21766 On ch=1 n=g6 v=84
21786 On ch=1 n=a#5 v=37
21808 Off ch=1 n=d#6 v=64
21822 Off ch=1 n=g6 v=64
21848 Off ch=1 n=a#5 v=64
22052 On ch=1 n=c6 v=64
22054 On ch=1 n=d#5 v=41
22148 Off ch=1 n=d#5 v=64
22168 Off ch=1 n=c6 v=64
22302 On ch=1 n=c7 v=89
22584 On ch=1 n=c#6 v=43
22724 Off ch=1 n=c#6 v=64
22920 On ch=1 n=a#6 v=70
22938 Par ch=1 c=64 v=0
22952 On ch=1 n=d#4 v=40
22964 Off ch=1 n=c7 v=64
23120 Par ch=1 c=64 v=127
23136 Off ch=1 n=d#4 v=64
23305 On ch=1 n=d6 v=42
23314 On ch=1 n=b5 v=23
23402 Off ch=1 n=b5 v=64
23405 Off ch=1 n=d6 v=64
23622 On ch=1 n=g#6 v=67
23634 On ch=1 n=g#5 v=32
23654 Off ch=1 n=a#6 v=64
23702 Off ch=1 n=g#5 v=64
23754 Off ch=1 n=g#6 v=64
23914 On ch=1 n=b5 v=50
23936 On ch=1 n=f5 v=24
24000 Off ch=1 n=b5 v=64
24002 Off ch=1 n=f5 v=64
24198 On ch=1 n=f6 v=63
24446 Off ch=1 n=f6 v=64
24468 On ch=1 n=g#5 v=42
24734 Off ch=1 n=g#5 v=64
24752 Par ch=1 c=64 v=0
24754 On ch=1 n=d6 v=66
24757 On ch=1 n=d#3 v=32
24884 Off ch=1 n=d#3 v=64
24918 Par ch=1 c=64 v=127
25056 On ch=1 n=g5 v=41
25070 On ch=1 n=e5 v=41
25154 Off ch=1 n=e5 v=64
25206 Off ch=1 n=g5 v=64
25356 On ch=1 n=c#6 v=53
25372 Off ch=1 n=d6 v=64
25374 On ch=1 n=c#5 v=37
25498 Off ch=1 n=c#5 v=64
25678 On ch=1 n=e5 v=43
25698 On ch=1 n=a#4 v=20
25834 Off ch=1 n=e5 v=64
25914 Off ch=1 n=a#4 v=64
25952 On ch=1 n=a#5 v=46
25982 Off ch=1 n=c#6 v=64
26276 On ch=1 n=c#5 v=30
26564 Off ch=1 n=a#5 v=64
26564 Off ch=1 n=c#5 v=64
26656 Par ch=1 c=64 v=0
26656 On ch=1 n=g5 v=34
26659 On ch=1 n=g#3 v=29
26904 Off ch=1 n=g#3 v=64
26916 Par ch=1 c=64 v=127
27106 On ch=1 n=d#5 v=15
27114 On ch=1 n=c5 v=25
27256 Off ch=1 n=g5 v=64
27368 Off ch=1 n=d#5 v=64
27516 On ch=1 n=g#5 v=21
27552 On ch=1 n=g#4 v=17
28130 Par ch=1 c=64 v=0
28148 On ch=1 n=d#4 v=17
28360 Par ch=1 c=64 v=127
28594 Off ch=1 n=c5 v=64
28824 Off ch=1 n=g#4 v=64
28948 Off ch=1 n=g#5 v=64
28986 Off ch=1 n=d#4 v=64
29494 On ch=1 n=f#6 v=60
29497 Par ch=1 c=64 v=0
29532 On ch=1 n=c#4 v=29
29698 Par ch=1 c=64 v=127
29728 Off ch=1 n=c#4 v=64
29858 Off ch=1 n=f#6 v=64
29922 On ch=1 n=g#5 v=30
29952 On ch=1 n=f5 v=26
30090 Off ch=1 n=f5 v=64
30296 On ch=1 n=f6 v=65
30330 On ch=1 n=c#5 v=28
30420 Off ch=1 n=c#5 v=64
30500 Off ch=1 n=g#5 v=64
30620 On ch=1 n=f5 v=28
30620 On ch=1 n=g#4 v=32
30692 Off ch=1 n=f5 v=64
30880 On ch=1 n=d#6 v=67
30918 Off ch=1 n=g#4 v=64
30932 Off ch=1 n=f6 v=64
31188 On ch=1 n=f5 v=27
31304 Off ch=1 n=d#6 v=64
31490 Off ch=1 n=f5 v=64
31500 On ch=1 n=c#6 v=51
31568 On ch=1 n=c#4 v=27
31586 Par ch=1 c=64 v=0
31772 Par ch=1 c=64 v=127
31775 Off ch=1 n=c#4 v=64
31840 On ch=1 n=f5 v=21
31864 Off ch=1 n=c#6 v=64
32028 Off ch=1 n=f5 v=64
32078 On ch=1 n=c6 v=55
32114 On ch=1 n=g#5 v=26
32232 Off ch=1 n=g#5 v=64
32328 On ch=1 n=f5 v=30
32356 On ch=1 n=c#5 v=23
32444 Off ch=1 n=c#5 v=64
32466 Off ch=1 n=f5 v=64
32574 On ch=1 n=a#5 v=61
32610 On ch=1 n=g#4 v=22
32628 Off ch=1 n=c6 v=64
32744 Off ch=1 n=g#4 v=64
32864 On ch=1 n=f5 v=35
32872 Off ch=1 n=a#5 v=64
33008 Off ch=1 n=f5 v=64
33146 On ch=1 n=g5 v=60
33186 On ch=1 n=c#4 v=28
33262 Par ch=1 c=64 v=0
33512 On ch=1 n=e5 v=44
33554 Par ch=1 c=64 v=127
33580 Off ch=1 n=c#4 v=64
33602 Off ch=1 n=g5 v=64
33764 Off ch=1 n=e5 v=64
33792 On ch=1 n=g#5 v=54
34082 On ch=1 n=c#5 v=32
34322 Par ch=1 c=64 v=0
34328 On ch=1 n=a#5 v=60
34352 On ch=1 n=g#4 v=28
34490 Par ch=1 c=64 v=127
34500 Off ch=1 n=g#5 v=64
34550 Off ch=1 n=c#5 v=64
34566 Off ch=1 n=g#4 v=64
34610 On ch=1 n=f5 v=36
34852 Off ch=1 n=f5 v=64
34862 On ch=1 n=c6 v=65
34894 Off ch=1 n=a#5 v=64
34894 On ch=1 n=c#4 v=31
34906 Par ch=1 c=64 v=0
35018 Off ch=1 n=c#4 v=64
35044 Par ch=1 c=64 v=127
35152 On ch=1 n=f5 v=40
35166 On ch=1 n=g#5 v=42
35256 Off ch=1 n=g#5 v=64
35370 On ch=1 n=c#6 v=76
35372 Off ch=1 n=f5 v=64
35388 Off ch=1 n=c6 v=64
35392 On ch=1 n=g#5 v=2
35414 On ch=1 n=c#5 v=31
35650 On ch=1 n=g#4 v=32
35653 On ch=1 n=f5 v=33
35658 Par ch=1 c=64 v=0
35790 Off ch=1 n=g#5 v=64
35798 Par ch=1 c=64 v=127
35834 Off ch=1 n=f5 v=64
35876 On ch=1 n=d#6 v=73
35912 Off ch=1 n=c#5 v=64
35942 Off ch=1 n=c#6 v=64
36000 Off ch=1 n=g#4 v=64
36169 On ch=1 n=f5 v=42
36318 Off ch=1 n=d#6 v=64
36510 Off ch=1 n=f5 v=64
36562 On ch=1 n=f#6 v=69
36565 Par ch=1 c=64 v=0
36588 On ch=1 n=c#4 v=26
36796 Par ch=1 c=64 v=127
36812 Off ch=1 n=c#4 v=64
36970 On ch=1 n=f5 v=27
36974 On ch=1 n=g#5 v=26
36984 Off ch=1 n=f#6 v=64
37212 Off ch=1 n=f5 v=64
37338 On ch=1 n=f6 v=59
37394 On ch=1 n=c#5 v=14
37632 On ch=1 n=f5 v=25
37652 Off ch=1 n=c#5 v=64
37678 On ch=1 n=g#4 v=23
37722 Off ch=1 n=g#5 v=64
37740 Off ch=1 n=f5 v=64
37882 Off ch=1 n=g#4 v=64
37882 On ch=1 n=d#6 v=53
37894 Off ch=1 n=f6 v=64
38024 Off ch=1 n=d#6 v=64
38110 On ch=1 n=f5 v=22
38228 Off ch=1 n=f5 v=64
38250 On ch=1 n=c#6 v=29
38310 On ch=1 n=d#6 v=42
38312 Off ch=1 n=c#6 v=64
38332 Par ch=1 c=64 v=0
38348 On ch=1 n=c#4 v=24
38370 Off ch=1 n=d#6 v=64
38374 On ch=1 n=c#6 v=62
38502 Off ch=1 n=c#4 v=64
38504 Par ch=1 c=64 v=127
38652 On ch=1 n=g#5 v=38
38656 On ch=1 n=f5 v=31
38694 Off ch=1 n=c#6 v=64
38752 Off ch=1 n=g#5 v=64
38892 On ch=1 n=c6 v=55
38908 Off ch=1 n=f5 v=64
38938 On ch=1 n=c#5 v=21
39040 Off ch=1 n=c#5 v=64
39158 On ch=1 n=f5 v=27
39174 On ch=1 n=g#4 v=23
39244 Off ch=1 n=f5 v=64
39330 Off ch=1 n=g#4 v=64
39394 On ch=1 n=a#5 v=48
39436 Off ch=1 n=c6 v=64
39678 Off ch=1 n=a#5 v=64
39681 On ch=1 n=f5 v=23
39946 Par ch=1 c=64 v=0
39974 On ch=1 n=g#5 v=37
39992 On ch=1 n=c#4 v=23
39995 Off ch=1 n=f5 v=64
40144 Off ch=1 n=c#4 v=64
40160 Par ch=1 c=64 v=127
40248 Off ch=1 n=g#5 v=64
40374 On ch=1 n=e5 v=12
40400 On ch=1 n=a#5 v=12
40494 Off ch=1 n=a#5 v=64
40592 Off ch=1 n=e5 v=64
40698 On ch=1 n=g5 v=30
40732 On ch=1 n=c#5 v=20
40838 Off ch=1 n=c#5 v=64
41000 On ch=1 n=e5 v=30
41012 Off ch=1 n=g5 v=64
41022 On ch=1 n=a#4 v=17
41164 Off ch=1 n=a#4 v=64
41236 Off ch=1 n=e5 v=64
41248 On ch=1 n=g#5 v=41
41524 On ch=1 n=e5 v=27
41544 Off ch=1 n=g#5 v=64
41742 Par ch=1 c=64 v=0
41754 On ch=1 n=c#4 v=23
41758 Off ch=1 n=e5 v=64
41758 On ch=1 n=a#5 v=38
41900 Off ch=1 n=c#4 v=64
41912 Par ch=1 c=64 v=127
41976 Off ch=1 n=a#5 v=64
42070 On ch=1 n=e5 v=26
42078 On ch=1 n=a#5 v=24
42192 Off ch=1 n=a#5 v=64
42314 Off ch=1 n=e5 v=64
42368 On ch=1 n=c6 v=46
42410 On ch=1 n=c#5 v=24
42502 Off ch=1 n=c#5 v=64
42622 On ch=1 n=e5 v=32
42678 On ch=1 n=a#4 v=15
42718 Off ch=1 n=e5 v=64
42866 Off ch=1 n=a#4 v=64
42869 On ch=1 n=c#6 v=65
42916 Off ch=1 n=c6 v=64
43168 On ch=1 n=e5 v=36
43171 Off ch=1 n=c#6 v=64
43234 Off ch=1 n=e5 v=64
43402 Par ch=1 c=64 v=0
43426 On ch=1 n=d6 v=69
43432 On ch=1 n=c4 v=30
43582 Off ch=1 n=c4 v=64
43602 Par ch=1 c=64 v=127
43786 On ch=1 n=f#5 v=22
43798 On ch=1 n=d#5 v=38
43940 Off ch=1 n=d6 v=64
44000 Off ch=1 n=d#5 v=64
44076 On ch=1 n=d#6 v=67
44110 Off ch=1 n=f#5 v=64
44110 On ch=1 n=c5 v=31
44196 Off ch=1 n=c5 v=64
44330 On ch=1 n=d#5 v=39
44348 On ch=1 n=a4 v=40
44394 Off ch=1 n=d#5 v=64
44424 Off ch=1 n=a4 v=64
44578 On ch=1 n=c#6 v=67
44632 Off ch=1 n=d#6 v=64
44836 On ch=1 n=d#5 v=44
44908 Off ch=1 n=d#5 v=64
45062 Par ch=1 c=64 v=0
45078 On ch=1 n=c#4 v=30
45081 On ch=1 n=c6 v=67
45098 Off ch=1 n=c#6 v=64
45246 Off ch=1 n=c#4 v=64
45278 Par ch=1 c=64 v=127
45364 On ch=1 n=g#5 v=43
45376 On ch=1 n=f5 v=28
45426 Off ch=1 n=g#5 v=64
45540 Off ch=1 n=f5 v=64
45644 On ch=1 n=a#5 v=66
45668 On ch=1 n=c#5 v=44
45678 Off ch=1 n=c6 v=64
45732 Off ch=1 n=c#5 v=64
45904 On ch=1 n=f5 v=51
45912 On ch=1 n=g#4 v=26
46044 Off ch=1 n=a#5 v=64
46064 Off ch=1 n=g#4 v=64
46086 Off ch=1 n=f5 v=64
46162 On ch=1 n=c#6 v=81
46438 On ch=1 n=f5 v=40
46524 Off ch=1 n=f5 v=64
46644 Off ch=1 n=c#6 v=64
46752 Par ch=1 c=64 v=0
46760 On ch=1 n=e6 v=75
46768 On ch=1 n=d4 v=37
46940 Off ch=1 n=d4 v=64
46952 Par ch=1 c=64 v=127
47112 On ch=1 n=g#5 v=31
47122 On ch=1 n=f5 v=31
47262 Off ch=1 n=g#5 v=64
47276 Off ch=1 n=f5 v=64
47368 On ch=1 n=f6 v=80
47396 Off ch=1 n=e6 v=64
47412 On ch=1 n=b4 v=26
47500 Off ch=1 n=b4 v=64
47644 On ch=1 n=f5 v=31
47652 On ch=1 n=g#4 v=34
47728 Off ch=1 n=f5 v=64
47790 Off ch=1 n=f6 v=64
47844 Off ch=1 n=g#4 v=64
47894 On ch=1 n=g6 v=81
48162 Off ch=1 n=g6 v=64
48180 On ch=1 n=g5 v=45
48250 Off ch=1 n=g5 v=64
48562 On ch=1 n=a#6 v=61
48580 Par ch=1 c=64 v=0
48592 On ch=1 n=f4 v=44
48782 Off ch=1 n=f4 v=64
48796 Par ch=1 c=64 v=127
48962 On ch=1 n=a#5 v=29
48974 On ch=1 n=b5 v=32
49110 Off ch=1 n=a#5 v=64
49166 Off ch=1 n=b5 v=64
49286 On ch=1 n=g#6 v=64
49314 Off ch=1 n=a#6 v=64
49317 On ch=1 n=d5 v=22
49410 Off ch=1 n=d5 v=64
49552 On ch=1 n=g#5 v=20
49604 On ch=1 n=b4 v=28
49606 Off ch=1 n=g#6 v=64
49678 Off ch=1 n=b4 v=64
49814 On ch=1 n=g#6 v=68
49820 Off ch=1 n=g#5 v=64
50094 On ch=1 n=g#5 v=35
50164 Off ch=1 n=g#6 v=64
50380 On ch=1 n=d#6 v=66
50394 Par ch=1 c=64 v=0
50402 Off ch=1 n=g#5 v=64
50424 On ch=1 n=d#4 v=36
50572 Off ch=1 n=d#4 v=64
50578 Par ch=1 c=64 v=127
50694 On ch=1 n=c#6 v=56
50710 On ch=1 n=g5 v=47
50792 Off ch=1 n=g5 v=64
50828 Off ch=1 n=c#6 v=64
50962 On ch=1 n=g6 v=91
50990 On ch=1 n=a#5 v=42
51012 Off ch=1 n=d#6 v=64
51052 Off ch=1 n=a#5 v=64
51068 Off ch=1 n=g6 v=64
51248 On ch=1 n=c6 v=59
51252 On ch=1 n=d#5 v=40
51336 Off ch=1 n=d#5 v=64
51394 Off ch=1 n=c6 v=64
51514 On ch=1 n=c7 v=89
51792 On ch=1 n=c#6 v=44
51910 Off ch=1 n=c#6 v=64
52100 Par ch=1 c=64 v=0
52103 On ch=1 n=a#6 v=64
52128 On ch=1 n=d#4 v=29
52134 Off ch=1 n=c7 v=64
52286 Off ch=1 n=d#4 v=64
52298 Par ch=1 c=64 v=127
52444 On ch=1 n=d6 v=39
52446 On ch=1 n=b5 v=30
52528 Off ch=1 n=b5 v=64
52556 Off ch=1 n=d6 v=64
52802 On ch=1 n=g#6 v=48
52810 On ch=1 n=g#5 v=23
52832 Off ch=1 n=a#6 v=64
52902 Off ch=1 n=g#5 v=64
53048 Off ch=1 n=g#6 v=64
53130 On ch=1 n=b5 v=32
53172 On ch=1 n=f5 v=5
53256 Off ch=1 n=f5 v=64
53270 Off ch=1 n=b5 v=64
53414 On ch=1 n=f6 v=48
53694 On ch=1 n=g#5 v=19
53856 Off ch=1 n=g#5 v=64
53936 Off ch=1 n=f6 v=64
53974 Par ch=1 c=64 v=0
53974 On ch=1 n=d#3 v=24
53986 On ch=1 n=d6 v=40
54116 Off ch=1 n=d#3 v=64
54144 Par ch=1 c=64 v=127
54320 On ch=1 n=e5 v=38
54338 Off ch=1 n=d6 v=64
54360 On ch=1 n=g5 v=14
54402 Off ch=1 n=e5 v=64
54482 Off ch=1 n=g5 v=64
54646 On ch=1 n=c#6 v=37
54660 On ch=1 n=c#5 v=26
54712 Off ch=1 n=c#6 v=64
54768 Off ch=1 n=c#5 v=64
54946 On ch=1 n=e5 v=38
54972 On ch=1 n=a#4 v=13
55086 Off ch=1 n=e5 v=64
55156 Off ch=1 n=a#4 v=64
55242 On ch=1 n=a#5 v=30
55580 On ch=1 n=c#5 v=26
55594 Off ch=1 n=a#5 v=64
55840 Off ch=1 n=c#5 v=64
55956 Par ch=1 c=64 v=0
55962 On ch=1 n=g#3 v=30
55982 On ch=1 n=g5 v=28
56218 Off ch=1 n=g#3 v=64
56232 Par ch=1 c=64 v=127
56448 On ch=1 n=d#5 v=14
56462 On ch=1 n=c5 v=12
56596 Off ch=1 n=g5 v=64
56708 Off ch=1 n=d#5 v=64
56872 On ch=1 n=g#5 v=22
56916 On ch=1 n=g#4 v=17
57430 On ch=1 n=d#4 v=14
57446 Par ch=1 c=64 v=0
57662 Par ch=1 c=64 v=127
57810 Off ch=1 n=g#4 v=64
57824 Off ch=1 n=c5 v=64
58088 Off ch=1 n=d#4 v=64
58126 Off ch=1 n=g#5 v=64
58660 Par ch=1 c=64 v=0
58674 On ch=1 n=f#6 v=64
58690 On ch=1 n=g#3 v=23
58844 Par ch=1 c=64 v=127
58868 Off ch=1 n=g#3 v=64
58932 Off ch=1 n=f#6 v=64
59178 On ch=1 n=f#5 v=18
59194 On ch=1 n=d#5 v=25
59282 Off ch=1 n=d#5 v=64
59360 Off ch=1 n=f#5 v=64
59558 On ch=1 n=f6 v=63
59590 On ch=1 n=c5 v=23
59696 Off ch=1 n=f6 v=64
59698 Off ch=1 n=c5 v=64
59896 On ch=1 n=d#5 v=30
59902 On ch=1 n=f#4 v=28
59982 Off ch=1 n=d#5 v=64
60112 Off ch=1 n=f#4 v=64
60168 On ch=1 n=d#6 v=67
60450 On ch=1 n=d#5 v=43
60452 Off ch=1 n=d#6 v=64
60524 Off ch=1 n=d#5 v=64
60716 On ch=1 n=d6 v=74
60722 On ch=1 n=a3 v=32
60750 Par ch=1 c=64 v=0
60854 Off ch=1 n=a3 v=64
60872 Par ch=1 c=64 v=127
60984 Off ch=1 n=d6 v=64
61026 On ch=1 n=d#5 v=33
61040 On ch=1 n=f#5 v=26
61142 Off ch=1 n=f#5 v=64
61168 Off ch=1 n=d#5 v=64
61264 On ch=1 n=d#6 v=72
61302 On ch=1 n=c5 v=36
61374 Off ch=1 n=c5 v=64
61444 Off ch=1 n=d#6 v=64
61504 On ch=1 n=f#4 v=38
61516 On ch=1 n=d#5 v=44
61574 Off ch=1 n=d#5 v=64
61648 Off ch=1 n=f#4 v=64
61760 On ch=1 n=f6 v=68
61866 Off ch=1 n=f6 v=64
62024 On ch=1 n=d#5 v=34
62104 Off ch=1 n=d#5 v=64
62290 On ch=1 n=f#6 v=54
62293 On ch=1 n=g#3 v=42
62302 Par ch=1 c=64 v=0
62458 Off ch=1 n=g#3 v=64
62470 Par ch=1 c=64 v=127
62506 Off ch=1 n=f#6 v=64
62654 On ch=1 n=f#5 v=22
62666 On ch=1 n=d#5 v=35
62728 Off ch=1 n=d#5 v=64
62740 Off ch=1 n=f#5 v=64
62944 On ch=1 n=f6 v=46
63012 On ch=1 n=c5 v=11
63032 Off ch=1 n=f6 v=64
63126 Off ch=1 n=c5 v=64
63224 On ch=1 n=d#5 v=42
63262 On ch=1 n=f#4 v=30
63314 Off ch=1 n=d#5 v=64
63466 On ch=1 n=d#6 v=57
63490 Off ch=1 n=f#4 v=64
63594 Off ch=1 n=d#6 v=64
63694 On ch=1 n=d#5 v=41
63772 Off ch=1 n=d#5 v=64
63810 On ch=1 n=c#6 v=41
63858 On ch=1 n=d#6 v=55
63860 Off ch=1 n=c#6 v=64
63918 Off ch=1 n=d#6 v=64
63926 On ch=1 n=c#6 v=57
64162 On ch=1 n=f#5 v=31
64178 On ch=1 n=d#5 v=35
64214 Off ch=1 n=c#6 v=64
64276 Off ch=1 n=f#5 v=64
64284 Off ch=1 n=d#5 v=64
64404 On ch=1 n=c6 v=62
64440 On ch=1 n=c5 v=30
64524 Off ch=1 n=c5 v=64
64638 On ch=1 n=d#5 v=34
64642 On ch=1 n=f#4 v=34
64734 Off ch=1 n=d#5 v=64
64766 Off ch=1 n=f#4 v=64
64866 On ch=1 n=a#5 v=60
64896 Off ch=1 n=c6 v=64
65124 On ch=1 n=d#5 v=39
65134 Off ch=1 n=a#5 v=64
65266 Off ch=1 n=d#5 v=64
65378 On ch=1 n=g#5 v=51
65390 Par ch=1 c=64 v=0
65394 On ch=1 n=g#3 v=30
65532 Off ch=1 n=g#3 v=64
65544 Par ch=1 c=64 v=127
65706 On ch=1 n=f#5 v=54
65746 Off ch=1 n=g#5 v=64
66034 On ch=1 n=g#5 v=46
66090 On ch=1 n=c5 v=11
66124 Off ch=1 n=f#5 v=64
66192 Off ch=1 n=g#5 v=64
66198 Off ch=1 n=c5 v=64
66308 On ch=1 n=f5 v=68
66336 On ch=1 n=f#4 v=36
66486 Off ch=1 n=f#4 v=64
66492 Off ch=1 n=f5 v=64
66588 On ch=1 n=g#5 v=51
66664 Off ch=1 n=g#5 v=64
66788 On ch=1 n=d#5 v=72
66936 On ch=1 n=a#5 v=45
67014 Off ch=1 n=a#5 v=64
67030 On ch=1 n=c6 v=45
67064 Par ch=1 c=64 v=0
67072 On ch=1 n=d#3 v=34
67098 On ch=1 n=a#5 v=48
67176 Off ch=1 n=c6 v=64
67194 Off ch=1 n=d#3 v=64
67218 Par ch=1 c=64 v=127
67298 Off ch=1 n=d#5 v=64
67318 Off ch=1 n=a#5 v=64
67400 On ch=1 n=d5 v=63
67402 On ch=1 n=f#5 v=44
67526 Off ch=1 n=f#5 v=64
67692 On ch=1 n=g#5 v=55
67724 On ch=1 n=c5 v=26
67744 Off ch=1 n=d5 v=64
67840 Off ch=1 n=c5 v=64
67938 Off ch=1 n=g#5 v=64
67956 On ch=1 n=d#5 v=61
67990 On ch=1 n=f#4 v=37
68116 Off ch=1 n=f#4 v=64
68212 On ch=1 n=g#5 v=47
68286 Off ch=1 n=d#5 v=64
68422 Off ch=1 n=g#5 v=64
68470 On ch=1 n=f5 v=57
68724 Par ch=1 c=64 v=0
68728 On ch=1 n=g#2 v=41
68740 On ch=1 n=g#5 v=53
68818 Off ch=1 n=f5 v=64
68908 Par ch=1 c=64 v=127
68920 Off ch=1 n=g#2 v=64
69112 On ch=1 n=f#5 v=67
69158 Off ch=1 n=g#5 v=64
69422 On ch=1 n=g#5 v=46
69480 On ch=1 n=c5 v=17
69574 Off ch=1 n=g#5 v=64
69590 Off ch=1 n=c5 v=64
69607 Off ch=1 n=f#5 v=64
69698 On ch=1 n=f5 v=57
69738 On ch=1 n=f#4 v=38
69796 Off ch=1 n=f#4 v=64
69974 On ch=1 n=g#5 v=45
70102 Off ch=1 n=f5 v=64
70178 Off ch=1 n=g#5 v=64
70206 On ch=1 n=d#5 v=59
70410 Off ch=1 n=d#5 v=64
70480 On ch=1 n=g#5 v=43
70626 Off ch=1 n=g#5 v=64
70782 On ch=1 n=c#5 v=69
70784 On ch=1 n=f#5 v=22
71082 Off ch=1 n=f#5 v=64
71238 Off ch=1 n=c#5 v=64
71420 On ch=1 n=d#5 v=32
71422 On ch=1 n=g#5 v=23
71514 Off ch=1 n=d#5 v=64
71570 Off ch=1 n=g#5 v=64
71760 On ch=1 n=c5 v=40
71812 On ch=1 n=f#4 v=25
71858 Par ch=1 c=64 v=0
72120 Par ch=1 c=64 v=127
72126 On ch=1 n=g#5 v=21
72272 Off ch=1 n=c5 v=64
72346 Off ch=1 n=g#5 v=64
72626 On ch=1 n=b4 v=29
72642 Par ch=1 c=64 v=0
72842 Par ch=1 c=64 v=127
72844 Off ch=1 n=f#4 v=64
72863 Off ch=1 n=b4 v=64
73276 On ch=1 n=b3 v=15
73304 On ch=1 n=a6 v=52
73452 Off ch=1 n=b3 v=64
73512 Off ch=1 n=a6 v=64
73782 On ch=1 n=a5 v=28
73788 On ch=1 n=f#5 v=14
73882 Off ch=1 n=a5 v=64
73934 Off ch=1 n=f#5 v=64
74122 On ch=1 n=g#6 v=58
74130 On ch=1 n=d#5 v=32
74224 Off ch=1 n=d#5 v=64
74300 Off ch=1 n=g#6 v=64
74444 On ch=1 n=f#5 v=16
74464 On ch=1 n=a4 v=15
74538 Off ch=1 n=f#5 v=64
74548 Off ch=1 n=a4 v=64
74722 On ch=1 n=f#6 v=57
75000 On ch=1 n=f#5 v=12
75092 Off ch=1 n=f#6 v=64
75140 Off ch=1 n=f#5 v=64
75208 On ch=1 n=c4 v=31
75210 On ch=1 n=f6 v=70
75224 Par ch=1 c=64 v=0
75358 Off ch=1 n=c4 v=64
75378 Par ch=1 c=64 v=127
75500 On ch=1 n=f#5 v=24
75514 On ch=1 n=a5 v=26
75602 Off ch=1 n=a5 v=64
75620 Off ch=1 n=f#5 v=64
75768 On ch=1 n=f#6 v=76
75790 Off ch=1 n=f6 v=64
75794 On ch=1 n=d#5 v=41
75882 Off ch=1 n=d#5 v=64
76018 On ch=1 n=f#5 v=34
76044 Off ch=1 n=f#6 v=64
76068 On ch=1 n=a4 v=22
76135 Off ch=1 n=a4 v=64
76142 Off ch=1 n=f#5 v=64
76266 On ch=1 n=g#6 v=80
76452 Off ch=1 n=g#6 v=64
76540 On ch=1 n=f#5 v=23
76628 Off ch=1 n=f#5 v=64
76790 Par ch=1 c=64 v=0
76800 On ch=1 n=a6 v=70
76805 On ch=1 n=b3 v=37
76958 Off ch=1 n=b3 v=64
76961 Par ch=1 c=64 v=127
77010 Off ch=1 n=a6 v=64
77154 On ch=1 n=f#5 v=31
77164 On ch=1 n=a5 v=17
77290 Off ch=1 n=f#5 v=64
77295 Off ch=1 n=a5 v=64
77472 On ch=1 n=g#6 v=52
77500 On ch=1 n=d#5 v=30
77638 Off ch=1 n=g#6 v=64
77748 On ch=1 n=f#5 v=27
77776 Off ch=1 n=d#5 v=64
77834 On ch=1 n=a4 v=18
77850 Off ch=1 n=f#5 v=64
77978 Off ch=1 n=a4 v=64
78008 On ch=1 n=f#6 v=49
78078 Off ch=1 n=f#6 v=64
78230 On ch=1 n=f#5 v=13
78310 Off ch=1 n=f#5 v=64
78380 On ch=1 n=e6 v=8
78422 On ch=1 n=f#6 v=51
78444 Off ch=1 n=e6 v=64
78544 On ch=1 n=e6 v=25
78570 Off ch=1 n=f#6 v=64
78844 On ch=1 n=f#5 v=16
78858 On ch=1 n=a5 v=18
78980 Off ch=1 n=f#5 v=64
78988 Off ch=1 n=a5 v=64
79120 On ch=1 n=d#6 v=36
79122 Off ch=1 n=e6 v=64
79126 On ch=1 n=d#5 v=24
79228 Off ch=1 n=d#5 v=64
79362 On ch=1 n=f#5 v=15
79422 On ch=1 n=a4 v=16
79488 Off ch=1 n=f#5 v=64
79590 Off ch=1 n=a4 v=64
79626 On ch=1 n=c#6 v=42
79642 Off ch=1 n=d#6 v=64
79892 Off ch=1 n=c#6 v=64
79906 On ch=1 n=f#5 v=10
80152 Off ch=1 n=f#5 v=64
80216 Par ch=1 c=64 v=0
80218 On ch=1 n=b3 v=18
80234 On ch=1 n=b5 v=31
80340 Par ch=1 c=64 v=127
80354 Off ch=1 n=b3 v=64
80550 Off ch=1 n=b5 v=64
80576 On ch=1 n=a5 v=44
80838 Off ch=1 n=a5 v=64
80918 On ch=1 n=b5 v=27
80921 On ch=1 n=d#5 v=22
81026 Off ch=1 n=d#5 v=64
81048 Off ch=1 n=b5 v=64
81180 On ch=1 n=g#5 v=53
81228 On ch=1 n=a4 v=19
81338 Off ch=1 n=a4 v=64
81398 Off ch=1 n=g#5 v=64
81460 On ch=1 n=b5 v=46
81518 Off ch=1 n=b5 v=64
81656 On ch=1 n=f#5 v=57
81872 On ch=1 n=c#6 v=44
81922 Off ch=1 n=c#6 v=64
81924 Off ch=1 n=f#5 v=64
81928 On ch=1 n=d#6 v=54
81988 On ch=1 n=c#6 v=52
82008 On ch=1 n=f#3 v=31
82016 Par ch=1 c=64 v=0
82040 Off ch=1 n=d#6 v=64
82140 Off ch=1 n=f#3 v=64
82152 Par ch=1 c=64 v=127
82280 Off ch=1 n=c#6 v=64
82294 On ch=1 n=f5 v=60
82326 On ch=1 n=a5 v=31
82462 Off ch=1 n=a5 v=64
82474 Off ch=1 n=f5 v=64
82578 On ch=1 n=b5 v=71
82610 On ch=1 n=d#5 v=38
82674 Off ch=1 n=d#5 v=64
82754 Off ch=1 n=b5 v=64
82832 On ch=1 n=f#5 v=49
82876 On ch=1 n=a4 v=24
82960 Off ch=1 n=a4 v=64
83104 On ch=1 n=b5 v=62
83240 Off ch=1 n=f#5 v=64
83310 Off ch=1 n=b5 v=64
83352 On ch=1 n=g#5 v=60
83614 Par ch=1 c=64 v=0
83628 On ch=1 n=b2 v=45
83638 On ch=1 n=b5 v=62
83728 Off ch=1 n=g#5 v=64
83744 Off ch=1 n=b2 v=64
83752 Par ch=1 c=64 v=127
83926 Off ch=1 n=b5 v=64
83986 On ch=1 n=a5 v=55
84288 Off ch=1 n=a5 v=64
84316 On ch=1 n=d#5 v=28
84318 On ch=1 n=b5 v=58
84458 Off ch=1 n=b5 v=64
84588 On ch=1 n=g#5 v=64
84640 On ch=1 n=a4 v=27
84762 Off ch=1 n=g#5 v=64
84776 Off ch=1 n=d#5 v=64
84850 On ch=1 n=b5 v=60
84902 Off ch=1 n=b5 v=64
85052 On ch=1 n=f#5 v=55
85228 On ch=1 n=c#6 v=46
85278 Off ch=1 n=c#6 v=64
85278 On ch=1 n=d#6 v=59
85281 Off ch=1 n=f#5 v=64
85338 On ch=1 n=c#6 v=59
85392 Off ch=1 n=d#6 v=64
85580 On ch=1 n=a5 v=34
85586 On ch=1 n=e5 v=59
85632 Off ch=1 n=a4 v=64
85734 Par ch=1 c=64 v=0
85826 Par ch=1 c=64 v=127
85846 On ch=1 n=b5 v=80
85858 On ch=1 n=b4 v=37
85892 Off ch=1 n=e5 v=64
85922 Off ch=1 n=c#6 v=64
86096 On ch=1 n=d#5 v=66
86168 On ch=1 n=a4 v=25
86328 On ch=1 n=a#5 v=72
86366 Off ch=1 n=b5 v=64
86408 Off ch=1 n=d#5 v=64
86540 Off ch=1 n=b4 v=64
86544 Off ch=1 n=a#5 v=64
86548 Off ch=1 n=a5 v=64
86574 On ch=1 n=d5 v=60
86662 Off ch=1 n=d5 v=64
86810 On ch=1 n=c#6 v=79
86978 Par ch=1 c=64 v=0
87052 On ch=1 n=a5 v=37
87076 On ch=1 n=e5 v=59
87124 Off ch=1 n=a4 v=64
87132 Par ch=1 c=64 v=127
87186 Off ch=1 n=e5 v=64
87316 On ch=1 n=b5 v=71
87342 On ch=1 n=b4 v=39
87362 Off ch=1 n=c#6 v=64
87558 On ch=1 n=d#5 v=44
87592 Par ch=1 c=64 v=0
87630 On ch=1 n=a4 v=27
87760 Off ch=1 n=a5 v=64
87762 Par ch=1 c=64 v=127
87794 On ch=1 n=a#5 v=58
87826 Off ch=1 n=b5 v=64
87868 Off ch=1 n=d#5 v=64
87930 Off ch=1 n=b4 v=64
87933 Off ch=1 n=a#5 v=64
87986 Off ch=1 n=a4 v=64
88062 On ch=1 n=d5 v=36
88142 Off ch=1 n=d5 v=64
88308 On ch=1 n=a5 v=60
88568 On ch=1 n=d#5 v=38
88576 On ch=1 n=c5 v=35
88576 Par ch=1 c=64 v=0
88760 Par ch=1 c=64 v=127
88810 On ch=1 n=g#5 v=53
88848 On ch=1 n=a4 v=21
88872 Off ch=1 n=a5 v=64
88912 Off ch=1 n=c5 v=64
89076 On ch=1 n=b4 v=35
89082 Par ch=1 c=64 v=0
89106 Off ch=1 n=a4 v=64
89128 On ch=1 n=f#4 v=29
89191 Par ch=1 c=64 v=127
89230 Off ch=1 n=d#5 v=64
89268 Off ch=1 n=b4 v=64
89318 On ch=1 n=f#5 v=45
89364 Off ch=1 n=g#5 v=64
89446 Off ch=1 n=f#4 v=64
89474 Off ch=1 n=f#5 v=64
89564 On ch=1 n=a4 v=28
89656 Off ch=1 n=a4 v=64
89804 On ch=1 n=e5 v=46
90018 On ch=1 n=g#4 v=34
90048 On ch=1 n=a4 v=26
90052 Par ch=1 c=64 v=0
90174 Par ch=1 c=64 v=127
90240 Off ch=1 n=a4 v=64
90262 On ch=1 n=d#5 v=51
90270 Off ch=1 n=e5 v=64
90292 Off ch=1 n=g#4 v=64
90292 On ch=1 n=f#4 v=32
90378 Off ch=1 n=f#4 v=64
90512 On ch=1 n=f#4 v=41
90566 On ch=1 n=b3 v=18
90688 Off ch=1 n=f#4 v=64
90728 Off ch=1 n=d#5 v=64
90728 On ch=1 n=c#5 v=62
90896 Off ch=1 n=c#5 v=64
90988 On ch=1 n=e4 v=55
91104 Off ch=1 n=e4 v=64
91224 On ch=1 n=b4 v=53
91440 On ch=1 n=d#4 v=55
91450 Par ch=1 c=64 v=0
91572 Par ch=1 c=64 v=127
91690 On ch=1 n=a#4 v=53
91712 Off ch=1 n=b4 v=64
91746 Off ch=1 n=d#4 v=64
91844 Off ch=1 n=b3 v=64
91852 Off ch=1 n=a#4 v=64
91924 On ch=1 n=f#3 v=57
91927 On ch=1 n=c#4 v=52
92190 On ch=1 n=a4 v=50
92370 Par ch=1 c=64 v=0
92514 On ch=1 n=d#4 v=54
92616 Par ch=1 c=64 v=127
92672 Off ch=1 n=c#4 v=64
92676 Off ch=1 n=a4 v=64
92978 On ch=1 n=f#4 v=54
92980 On ch=1 n=g#4 v=46
92984 On ch=1 n=c3 v=56
93140 Par ch=1 c=64 v=0
93468 On ch=1 n=g3 v=58
93558 Off ch=1 n=f#3 v=64
93816 On ch=1 n=g#3 v=60
93884 Off ch=1 n=g3 v=64
94107 On ch=1 n=a#3 v=53
94134 Off ch=1 n=g#3 v=64
94292 Par ch=1 c=64 v=127
94352 Off ch=1 n=c3 v=64
94386 On ch=1 n=c4 v=55
94446 Off ch=1 n=a#3 v=64
94638 On ch=1 n=c#4 v=54
94664 Off ch=1 n=c4 v=64
94822 Off ch=1 n=d#4 v=64
94922 On ch=1 n=d4 v=53
94938 Par ch=1 c=64 v=0
94956 Off ch=1 n=c#4 v=64
95062 Off ch=1 n=f#4 v=64
95206 On ch=1 n=d#4 v=50
95226 Off ch=1 n=d4 v=64
95260 Par ch=1 c=64 v=127
95364 Off ch=1 n=g#4 v=64
95526 On ch=1 n=f4 v=68
95580 Off ch=1 n=d#4 v=64
95582 Par ch=1 c=64 v=0
95836 On ch=1 n=f#4 v=52
95872 Off ch=1 n=f4 v=64
96226 On ch=1 n=g4 v=28
96258 Off ch=1 n=f#4 v=64
96628 Par ch=1 c=64 v=127
96684 On ch=1 n=g#4 v=18
96772 Off ch=1 n=g4 v=64
96918 Par ch=1 c=64 v=0
97104 Par ch=1 c=64 v=127
97298 On ch=1 n=f#6 v=39
97350 On ch=1 n=c#4 v=23
97366 Par ch=1 c=64 v=0
97388 Off ch=1 n=g#4 v=64
97534 Par ch=1 c=64 v=127
97558 Off ch=1 n=c#4 v=64
97698 Off ch=1 n=f#6 v=64
97824 On ch=1 n=g#5 v=18
97838 On ch=1 n=f5 v=10
98014 Off ch=1 n=f5 v=64
98052 Off ch=1 n=g#5 v=64
98156 On ch=1 n=f6 v=47
98206 On ch=1 n=c#5 v=15
98314 Off ch=1 n=c#5 v=64
98420 Off ch=1 n=f6 v=64
98450 On ch=1 n=f5 v=16
98488 On ch=1 n=g#4 v=24
98588 Off ch=1 n=f5 v=64
98634 Off ch=1 n=g#4 v=64
98690 On ch=1 n=d#6 v=52
98952 Off ch=1 n=d#6 v=64
98972 On ch=1 n=f5 v=19
99060 On ch=1 n=c#6 v=38
99114 Off ch=1 n=c#6 v=64
99116 Off ch=1 n=f5 v=64
99134 On ch=1 n=d#6 v=41
99148 Par ch=1 c=64 v=0
99202 On ch=1 n=c#6 v=45
99208 Off ch=1 n=d#6 v=64
99228 On ch=1 n=c#4 v=24
99344 Off ch=1 n=c#4 v=64
99346 Par ch=1 c=64 v=127
99524 Off ch=1 n=c#6 v=64
99542 On ch=1 n=f5 v=14
99552 On ch=1 n=g#5 v=16
99670 Off ch=1 n=g#5 v=64
99758 Off ch=1 n=f5 v=64
99832 On ch=1 n=c6 v=54
99870 On ch=1 n=c#5 v=21
100052 Off ch=1 n=c#5 v=64
100124 On ch=1 n=f5 v=23
100130 Off ch=1 n=c6 v=64
100132 On ch=1 n=g#4 v=17
100212 Off ch=1 n=f5 v=64
100378 On ch=1 n=a#5 v=41
100436 Off ch=1 n=g#4 v=64
100614 Off ch=1 n=a#5 v=64
100670 On ch=1 n=f5 v=19
100818 Off ch=1 n=f5 v=64
101038 On ch=1 n=g5 v=40
101056 On ch=1 n=c#4 v=19
101098 Par ch=1 c=64 v=0
101390 Par ch=1 c=64 v=127
101402 On ch=1 n=e5 v=33
101414 Off ch=1 n=c#4 v=64
101486 Off ch=1 n=e5 v=64
101642 Off ch=1 n=g5 v=64
101648 On ch=1 n=g#5 v=47
101928 On ch=1 n=c#5 v=29
102146 On ch=1 n=a#5 v=53
102154 Off ch=1 n=c#5 v=64
102176 On ch=1 n=g#4 v=28
102260 Off ch=1 n=g#5 v=64
102380 Off ch=1 n=g#4 v=64
102432 On ch=1 n=f5 v=29
102680 Off ch=1 n=f5 v=64
102680 Par ch=1 c=64 v=0
102694 On ch=1 n=c6 v=57
102706 On ch=1 n=c#4 v=30
102722 Off ch=1 n=a#5 v=64
102830 Off ch=1 n=c#4 v=64
102866 Par ch=1 c=64 v=127
102968 On ch=1 n=f5 v=25
102974 On ch=1 n=g#5 v=26
103112 Off ch=1 n=f5 v=64
103198 On ch=1 n=c#6 v=55
103228 Off ch=1 n=c6 v=64
103250 On ch=1 n=c#5 v=23
103486 On ch=1 n=f5 v=26
103510 On ch=1 n=g#4 v=24
103542 Par ch=1 c=64 v=0
103680 Par ch=1 c=64 v=127
103694 Off ch=1 n=g#5 v=64
103710 Off ch=1 n=f5 v=64
103722 On ch=1 n=d#6 v=57
103786 Off ch=1 n=c#5 v=64
103800 Off ch=1 n=c#6 v=64
103950 Off ch=1 n=g#4 v=64
103990 On ch=1 n=f5 v=27
104006 Off ch=1 n=d#6 v=64
104066 Off ch=1 n=f5 v=64
104360 On ch=1 n=f#6 v=51
104402 Par ch=1 c=64 v=0
104404 On ch=1 n=c#4 v=22
104602 Par ch=1 c=64 v=127
104612 Off ch=1 n=c#4 v=64
104778 On ch=1 n=f5 v=24
104786 Off ch=1 n=f#6 v=64
104796 On ch=1 n=g#5 v=24
104960 Off ch=1 n=f5 v=64
105002 Off ch=1 n=g#5 v=64
105068 On ch=1 n=f6 v=58
105110 On ch=1 n=c#5 v=22
105244 Off ch=1 n=c#5 v=64
105308 Off ch=1 n=f6 v=64
105360 On ch=1 n=g#4 v=22
105374 On ch=1 n=f5 v=28
105450 Off ch=1 n=f5 v=64
105520 Off ch=1 n=g#4 v=64
105594 On ch=1 n=d#6 v=58
105668 Off ch=1 n=d#6 v=64
105832 On ch=1 n=f5 v=26
105928 Off ch=1 n=f5 v=64
106042 On ch=1 n=c#4 v=17
106096 On ch=1 n=c#6 v=49
106188 Off ch=1 n=c#4 v=64
106360 On ch=1 n=g#5 v=36
106384 On ch=1 n=f5 v=26
106482 Off ch=1 n=g#5 v=64
106490 Off ch=1 n=f5 v=64
106616 On ch=1 n=c6 v=58
106644 On ch=1 n=c#5 v=27
106672 Off ch=1 n=c#6 v=64
106726 Off ch=1 n=c#5 v=64
106900 On ch=1 n=f5 v=25
106908 On ch=1 n=g#4 v=22
107034 Off ch=1 n=f5 v=64
107112 On ch=1 n=a#5 v=62
107190 Off ch=1 n=c6 v=64
107228 Off ch=1 n=g#4 v=64
107380 On ch=1 n=f5 v=35
107512 Off ch=1 n=f5 v=64
107542 Off ch=1 n=a#5 v=64
107672 On ch=1 n=g#5 v=55
107706 Par ch=1 c=64 v=0
107709 On ch=1 n=c#4 v=26
107866 Off ch=1 n=c#4 v=64
107890 Par ch=1 c=64 v=127
108022 Off ch=1 n=g#5 v=64
108044 On ch=1 n=e5 v=35
108044 On ch=1 n=a#5 v=33
108254 Off ch=1 n=a#5 v=64
108312 Off ch=1 n=e5 v=64
108346 On ch=1 n=g5 v=54
108378 On ch=1 n=c#5 v=29
108502 Off ch=1 n=c#5 v=64
108646 On ch=1 n=e5 v=37
108656 On ch=1 n=a#4 v=20
108692 Off ch=1 n=g5 v=64
108816 Off ch=1 n=a#4 v=64
108836 Off ch=1 n=e5 v=64
108862 On ch=1 n=g#5 v=62
109138 On ch=1 n=e5 v=32
109184 Off ch=1 n=g#5 v=64
109386 On ch=1 n=c#4 v=22
109389 On ch=1 n=a#5 v=37
109396 Par ch=1 c=64 v=0
109400 Off ch=1 n=e5 v=64
109538 Off ch=1 n=c#4 v=64
109594 Par ch=1 c=64 v=127
109644 Off ch=1 n=a#5 v=64
109720 On ch=1 n=a#5 v=29
109750 On ch=1 n=e5 v=28
109862 Off ch=1 n=a#5 v=64
109976 Off ch=1 n=e5 v=64
110038 On ch=1 n=c6 v=35
110062 On ch=1 n=c#5 v=22
110174 Off ch=1 n=c#5 v=64
110320 On ch=1 n=e5 v=23
110322 Off ch=1 n=c6 v=64
110368 On ch=1 n=a#4 v=13
110450 Off ch=1 n=e5 v=64
110500 Off ch=1 n=a#4 v=64
110606 On ch=1 n=c#6 v=35
110930 Off ch=1 n=c#6 v=64
110930 On ch=1 n=e5 v=24
111012 Off ch=1 n=e5 v=64
111302 Par ch=1 c=64 v=0
111318 On ch=1 n=d6 v=41
111330 On ch=1 n=c4 v=13
111500 Off ch=1 n=c4 v=64
111516 Par ch=1 c=64 v=127
111722 On ch=1 n=d#5 v=37
111728 On ch=1 n=f#5 v=14
111826 Off ch=1 n=d6 v=64
111912 Off ch=1 n=d#5 v=64
111928 Off ch=1 n=f#5 v=64
112016 On ch=1 n=d#6 v=47
112048 On ch=1 n=c5 v=20
112154 Off ch=1 n=c5 v=64
112294 On ch=1 n=d#5 v=26
112338 On ch=1 n=a4 v=24
112424 Off ch=1 n=d#5 v=64
112438 Off ch=1 n=a4 v=64
112568 On ch=1 n=c#6 v=48
112624 Off ch=1 n=d#6 v=64
112838 On ch=1 n=d#5 v=38
112904 Off ch=1 n=d#5 v=64
113054 On ch=1 n=c#4 v=38
113078 On ch=1 n=c6 v=54
113084 Par ch=1 c=64 v=0
113138 Off ch=1 n=c#6 v=64
113242 Off ch=1 n=c#4 v=64
113268 Par ch=1 c=64 v=127
113358 On ch=1 n=g#5 v=37
113366 On ch=1 n=f5 v=25
113480 Off ch=1 n=g#5 v=64
113534 Off ch=1 n=f5 v=64
113612 On ch=1 n=a#5 v=55
113628 On ch=1 n=c#5 v=39
113714 Off ch=1 n=c6 v=64
113726 Off ch=1 n=c#5 v=64
113892 On ch=1 n=g#4 v=28
113895 On ch=1 n=f5 v=32
113954 Off ch=1 n=a#5 v=64
113992 Off ch=1 n=f5 v=64
114126 On ch=1 n=c#6 v=70
114286 Off ch=1 n=g#4 v=64
114376 On ch=1 n=f5 v=38
114528 Off ch=1 n=f5 v=64
114628 On ch=1 n=d4 v=42
114642 On ch=1 n=e6 v=67
114650 Par ch=1 c=64 v=0
114682 Off ch=1 n=c#6 v=64
114814 Off ch=1 n=d4 v=64
114834 Par ch=1 c=64 v=127
114932 On ch=1 n=g#5 v=47
114952 On ch=1 n=f5 v=35
115086 Off ch=1 n=g#5 v=64
115152 Off ch=1 n=f5 v=64
115216 On ch=1 n=f6 v=81
115246 On ch=1 n=b4 v=30
115284 Off ch=1 n=e6 v=64
115350 Off ch=1 n=b4 v=64
115482 On ch=1 n=f5 v=46
115490 On ch=1 n=g#4 v=35
115570 Off ch=1 n=f5 v=64
115640 Off ch=1 n=f6 v=64
115684 Off ch=1 n=g#4 v=64
115732 On ch=1 n=g6 v=93
116004 Off ch=1 n=g6 v=64
116016 On ch=1 n=g5 v=49
116086 Off ch=1 n=g5 v=64
116358 On ch=1 n=a#6 v=73
116376 On ch=1 n=f4 v=46
116432 Par ch=1 c=64 v=0
116576 Off ch=1 n=f4 v=64
116586 Par ch=1 c=64 v=127
116710 On ch=1 n=a#5 v=35
116712 On ch=1 n=b5 v=54
116782 Off ch=1 n=b5 v=64
116920 Off ch=1 n=a#5 v=64
117040 On ch=1 n=g#6 v=73
117066 On ch=1 n=d5 v=37
117078 Off ch=1 n=a#6 v=64
117168 Off ch=1 n=d5 v=64
117300 On ch=1 n=g#5 v=35
117306 Off ch=1 n=g#6 v=64
117346 On ch=1 n=b4 v=30
117476 Off ch=1 n=b4 v=64
117540 Off ch=1 n=g#5 v=64
117554 On ch=1 n=g#6 v=78
117804 On ch=1 n=g#5 v=44
117868 Off ch=1 n=g#6 v=64
118060 Off ch=1 n=g#5 v=64
118080 On ch=1 n=d#6 v=78
118098 On ch=1 n=d#4 v=37
118108 Par ch=1 c=64 v=0
118260 Par ch=1 c=64 v=127
118262 Off ch=1 n=d#4 v=64
118388 On ch=1 n=c#6 v=47
118392 On ch=1 n=g5 v=51
118484 Off ch=1 n=g5 v=64
118542 Off ch=1 n=c#6 v=64
118648 On ch=1 n=g6 v=91
118662 On ch=1 n=a#5 v=38
118690 Off ch=1 n=d#6 v=64
118732 Off ch=1 n=a#5 v=64
118748 Off ch=1 n=g6 v=64
118922 On ch=1 n=d#5 v=35
118928 On ch=1 n=c6 v=63
119072 Off ch=1 n=d#5 v=64
119077 Off ch=1 n=c6 v=64
119188 On ch=1 n=c7 v=80
119460 On ch=1 n=c#6 v=42
119610 Off ch=1 n=c#6 v=64
119780 On ch=1 n=a#6 v=56
119798 Par ch=1 c=64 v=0
119808 Off ch=1 n=c7 v=64
119820 On ch=1 n=d#4 v=30
119982 Par ch=1 c=64 v=127
120010 Off ch=1 n=d#4 v=64
120174 On ch=1 n=b5 v=24
120188 On ch=1 n=d6 v=29
120318 Off ch=1 n=d6 v=64
120340 Off ch=1 n=b5 v=64
120500 On ch=1 n=g#6 v=42
120524 Off ch=1 n=a#6 v=64
120524 On ch=1 n=g#5 v=23
120614 Off ch=1 n=g#5 v=64
120766 Off ch=1 n=g#6 v=64
120860 On ch=1 n=b5 v=28
120890 On ch=1 n=f5 v=15
120986 Off ch=1 n=f5 v=64
121026 Off ch=1 n=b5 v=64
121144 On ch=1 n=f6 v=40
121386 Off ch=1 n=f6 v=64
121432 On ch=1 n=g#5 v=23
121736 Off ch=1 n=g#5 v=64
121750 On ch=1 n=d#3 v=26
121760 On ch=1 n=d6 v=27
121764 Par ch=1 c=64 v=0
121924 Off ch=1 n=d#3 v=64
121948 Par ch=1 c=64 v=127
122152 On ch=1 n=g5 v=13
122166 On ch=1 n=e5 v=26
122244 Off ch=1 n=e5 v=64
122332 Off ch=1 n=g5 v=64
122460 Off ch=1 n=d6 v=64
122498 On ch=1 n=c#6 v=28
122530 On ch=1 n=c#5 v=16
122776 Off ch=1 n=c#5 v=64
122846 On ch=1 n=e5 v=27
122892 On ch=1 n=a#4 v=11
122954 Off ch=1 n=e5 v=64
123004 Off ch=1 n=a#4 v=64
123132 On ch=1 n=a#5 v=28
123160 Off ch=1 n=c#6 v=64
123462 On ch=1 n=c#5 v=20
123668 Off ch=1 n=a#5 v=64
123790 Off ch=1 n=c#5 v=64
123850 On ch=1 n=g#3 v=20
123854 On ch=1 n=g5 v=19
123884 Par ch=1 c=64 v=0
124176 Off ch=1 n=g#3 v=64
124176 Par ch=1 c=64 v=127
124388 On ch=1 n=d#5 v=20
124410 On ch=1 n=c5 v=17
124572 Off ch=1 n=d#5 v=64
124642 Off ch=1 n=g5 v=64
124836 On ch=1 n=g#5 v=24
124862 On ch=1 n=g#4 v=11
125472 On ch=1 n=d#4 v=11
125682 Par ch=1 c=64 v=0
125836 Par ch=1 c=64 v=127
125936 Off ch=1 n=c5 v=64
126034 Off ch=1 n=g#4 v=64
126166 Off ch=1 n=d#4 v=64
126180 Off ch=1 n=g#5 v=64
126932 On ch=1 n=g#3 v=19
126944 On ch=1 n=f#6 v=42
127004 Par ch=1 c=64 v=0
127126 Par ch=1 c=64 v=127
127166 Off ch=1 n=g#3 v=64
127220 Off ch=1 n=f#6 v=64
127464 On ch=1 n=f#5 v=4
127482 On ch=1 n=d#5 v=23
127596 Off ch=1 n=d#5 v=64
127672 Off ch=1 n=f#5 v=64
127826 On ch=1 n=f6 v=54
127846 On ch=1 n=c5 v=19
127944 Off ch=1 n=f6 v=64
127958 Off ch=1 n=c5 v=64
128136 On ch=1 n=f#4 v=20
128144 On ch=1 n=d#5 v=22
128220 Off ch=1 n=d#5 v=64
128386 On ch=1 n=d#6 v=48
128478 Off ch=1 n=f#4 v=64
128646 Off ch=1 n=d#6 v=64
128649 On ch=1 n=d#5 v=23
128732 Off ch=1 n=d#5 v=64
128970 Par ch=1 c=64 v=0
128982 On ch=1 n=d6 v=42
128984 On ch=1 n=a3 v=23
129180 Off ch=1 n=a3 v=64
129186 Par ch=1 c=64 v=127
129378 On ch=1 n=f#5 v=21
129416 On ch=1 n=d#5 v=23
129540 Off ch=1 n=d6 v=64
129604 Off ch=1 n=d#5 v=64
129624 Off ch=1 n=f#5 v=64
129706 On ch=1 n=d#6 v=58
129742 On ch=1 n=c5 v=15
129894 Off ch=1 n=c5 v=64
129964 Off ch=1 n=d#6 v=64
129992 On ch=1 n=d#5 v=35
130016 On ch=1 n=f#4 v=32
130046 Off ch=1 n=d#5 v=64
130206 Off ch=1 n=f#4 v=64
130240 On ch=1 n=f6 v=74
130366 Off ch=1 n=f6 v=64
130504 On ch=1 n=d#5 v=48
130568 Off ch=1 n=d#5 v=64
130742 On ch=1 n=g#3 v=37
130768 Par ch=1 c=64 v=0
130780 On ch=1 n=f#6 v=70
130932 Off ch=1 n=g#3 v=64
130952 Par ch=1 c=64 v=127
130980 Off ch=1 n=f#6 v=64
131088 On ch=1 n=d#5 v=38
131091 On ch=1 n=f#5 v=41
131162 Off ch=1 n=d#5 v=64
131168 Off ch=1 n=f#5 v=64
131456 On ch=1 n=f6 v=62
131468 On ch=1 n=c5 v=16
131568 Off ch=1 n=c5 v=64
131584 Off ch=1 n=f6 v=64
131756 On ch=1 n=f#4 v=29
131764 On ch=1 n=d#5 v=29
131860 Off ch=1 n=d#5 v=64
131998 On ch=1 n=d#6 v=54
132168 Off ch=1 n=d#6 v=64
132194 On ch=1 n=d#5 v=45
132266 Off ch=1 n=d#5 v=64
132390 On ch=1 n=c#6 v=35
132442 On ch=1 n=d#6 v=48
132446 Off ch=1 n=c#6 v=64
132498 Off ch=1 n=d#6 v=64
132512 On ch=1 n=c#6 v=60
132516 Off ch=1 n=f#4 v=64
132754 On ch=1 n=f#5 v=26
132764 On ch=1 n=d#5 v=35
132852 Off ch=1 n=f#5 v=64
132920 Off ch=1 n=d#5 v=64
133008 On ch=1 n=c6 v=60
133048 On ch=1 n=c5 v=19
133084 Off ch=1 n=c#6 v=64
133136 Off ch=1 n=c5 v=64
133258 On ch=1 n=f#4 v=31
133262 On ch=1 n=d#5 v=25
133350 Off ch=1 n=d#5 v=64
133454 Off ch=1 n=f#4 v=64
133482 On ch=1 n=a#5 v=60
133524 Off ch=1 n=c6 v=64
133726 On ch=1 n=d#5 v=45
133820 Off ch=1 n=d#5 v=64
133860 Off ch=1 n=a#5 v=64
133966 On ch=1 n=g#5 v=61
133990 On ch=1 n=g#3 v=30
134010 Par ch=1 c=64 v=0
134122 Off ch=1 n=g#3 v=64
134148 Par ch=1 c=64 v=127
134270 On ch=1 n=f#5 v=70
134342 Off ch=1 n=g#5 v=64
134616 On ch=1 n=g#5 v=26
134658 On ch=1 n=c5 v=25
134716 Off ch=1 n=f#5 v=64
134748 Off ch=1 n=c5 v=64
134894 Off ch=1 n=g#5 v=64
134926 On ch=1 n=f5 v=72
134980 On ch=1 n=f#4 v=27
135152 Off ch=1 n=f#4 v=64
135218 On ch=1 n=g#5 v=55
135252 Off ch=1 n=f5 v=64
135318 Off ch=1 n=g#5 v=64
135426 On ch=1 n=d#5 v=78
135574 On ch=1 n=a#5 v=43
135624 Off ch=1 n=a#5 v=64
135652 On ch=1 n=c6 v=40
135684 Par ch=1 c=64 v=0
135692 On ch=1 n=a#5 v=41
135706 On ch=1 n=d#3 v=27
135738 Off ch=1 n=c6 v=64
135822 Par ch=1 c=64 v=127
135824 Off ch=1 n=d#3 v=64
135928 Off ch=1 n=d#5 v=64
136022 On ch=1 n=d5 v=67
136025 On ch=1 n=f#5 v=48
136102 Off ch=1 n=a#5 v=64
136226 Off ch=1 n=f#5 v=64
136320 On ch=1 n=g#5 v=52
136392 Off ch=1 n=d5 v=64
136392 On ch=1 n=c5 v=9
136550 Off ch=1 n=c5 v=64
136590 Off ch=1 n=g#5 v=64
136602 On ch=1 n=d#5 v=66
136658 On ch=1 n=f#4 v=41
136798 Off ch=1 n=f#4 v=64
136882 On ch=1 n=g#5 v=43
136974 Off ch=1 n=d#5 v=64
137148 On ch=1 n=f5 v=58
137212 Off ch=1 n=g#5 v=64
137452 Par ch=1 c=64 v=0
137466 On ch=1 n=g#2 v=26
137482 On ch=1 n=g#5 v=46
137602 Off ch=1 n=f5 v=64
137636 Par ch=1 c=64 v=127
137640 Off ch=1 n=g#2 v=64
137822 Off ch=1 n=g#5 v=64
137890 On ch=1 n=f#5 v=50
138250 On ch=1 n=g#5 v=26
138258 On ch=1 n=c5 v=22
138406 Off ch=1 n=g#5 v=64
138412 Off ch=1 n=c5 v=64
138512 Off ch=1 n=f#5 v=64
138526 On ch=1 n=f5 v=41
138574 On ch=1 n=f#4 v=27
138804 Off ch=1 n=f5 v=64
138812 On ch=1 n=g#5 v=42
138996 Off ch=1 n=g#5 v=64
139066 On ch=1 n=d#5 v=47
139120 Off ch=1 n=f#4 v=64
139342 Off ch=1 n=d#5 v=64
139356 On ch=1 n=g#5 v=35
139488 Off ch=1 n=g#5 v=64
139618 On ch=1 n=c#5 v=57
139620 On ch=1 n=f#5 v=33
139838 Off ch=1 n=f#5 v=64
139910 Off ch=1 n=c#5 v=64
139960 On ch=1 n=g#5 v=34
139996 On ch=1 n=d#5 v=27
140164 Off ch=1 n=g#5 v=64
140320 On ch=1 n=c5 v=50
140380 On ch=1 n=f#4 v=27
140464 Par ch=1 c=64 v=0
140738 Off ch=1 n=d#5 v=64
140746 On ch=1 n=g#5 v=29
140818 Par ch=1 c=64 v=127
140908 Off ch=1 n=c5 v=64
140980 Off ch=1 n=g#5 v=64
141276 On ch=1 n=b4 v=40
141308 Par ch=1 c=64 v=0
141318 Off ch=1 n=f#4 v=64
141554 Par ch=1 c=64 v=127
141600 Off ch=1 n=b4 v=64
141932 On ch=1 n=a6 v=54
141976 On ch=1 n=b3 v=17
142094 Off ch=1 n=b3 v=64
142176 Off ch=1 n=a6 v=64
142472 On ch=1 n=a5 v=21
142480 On ch=1 n=f#5 v=17
142612 Off ch=1 n=a5 v=64
142644 Off ch=1 n=f#5 v=64
142858 On ch=1 n=g#6 v=50
142882 On ch=1 n=d#5 v=24
143022 Off ch=1 n=d#5 v=64
143034 Off ch=1 n=g#6 v=64
143190 On ch=1 n=f#5 v=18
143240 On ch=1 n=a4 v=9
143296 Off ch=1 n=f#5 v=64
143332 Off ch=1 n=a4 v=64
143464 On ch=1 n=f#6 v=57
143694 Off ch=1 n=f#6 v=64
143744 On ch=1 n=f#5 v=24
143858 Off ch=1 n=f#5 v=64
143966 On ch=1 n=c4 v=42
143982 On ch=1 n=f6 v=64
144042 Par ch=1 c=64 v=0
144208 Off ch=1 n=c4 v=64
144220 Par ch=1 c=64 v=127
144346 On ch=1 n=f#5 v=24
144350 On ch=1 n=a5 v=38
144422 Off ch=1 n=a5 v=64
144468 Off ch=1 n=f#5 v=64
144610 On ch=1 n=f#6 v=78
144630 Off ch=1 n=f6 v=64
144630 On ch=1 n=d#5 v=43
144702 Off ch=1 n=d#5 v=64
144880 Off ch=1 n=f#6 v=64
144920 On ch=1 n=f#5 v=33
144926 On ch=1 n=a4 v=37
145010 Off ch=1 n=f#5 v=64
145022 Off ch=1 n=a4 v=64
145152 On ch=1 n=g#6 v=76
145286 Off ch=1 n=g#6 v=64
145410 On ch=1 n=f#5 v=28
145490 Off ch=1 n=f#5 v=64
145736 On ch=1 n=a6 v=80
145768 On ch=1 n=b3 v=39
145780 Par ch=1 c=64 v=0
145932 Off ch=1 n=b3 v=64
145934 Par ch=1 c=64 v=127
145962 Off ch=1 n=a6 v=64
146080 On ch=1 n=f#5 v=34
146092 On ch=1 n=a5 v=26
146220 Off ch=1 n=f#5 v=64
146224 Off ch=1 n=a5 v=64
146318 On ch=1 n=g#6 v=83
146360 On ch=1 n=d#5 v=33
146456 Off ch=1 n=d#5 v=64
146534 Off ch=1 n=g#6 v=64
146590 On ch=1 n=d#5 v=2
146632 On ch=1 n=f#5 v=37
146652 On ch=1 n=a4 v=27
146754 Off ch=1 n=f#5 v=64
146814 Off ch=1 n=d#5 v=64
146846 On ch=1 n=f#6 v=72
147014 On ch=1 n=f#5 v=41
147022 Off ch=1 n=f#6 v=64
147104 Off ch=1 n=f#5 v=64
147158 Off ch=1 n=a4 v=64
147164 On ch=1 n=e6 v=43
147218 Off ch=1 n=e6 v=64
147226 On ch=1 n=f#6 v=63
147300 On ch=1 n=e6 v=48
147348 Off ch=1 n=f#6 v=64
147532 On ch=1 n=a5 v=21
147552 Off ch=1 n=e6 v=64
147570 On ch=1 n=f#5 v=22
147692 Off ch=1 n=a5 v=64
147758 Off ch=1 n=f#5 v=64
147766 On ch=1 n=d#6 v=54
147808 On ch=1 n=b4 v=19
147880 Off ch=1 n=d#6 v=64
147958 Off ch=1 n=b4 v=64
148018 On ch=1 n=f#5 v=26
148084 On ch=1 n=a4 v=11
148114 Off ch=1 n=f#5 v=64
148182 Off ch=1 n=a4 v=64
148258 On ch=1 n=c#6 v=44
148388 Off ch=1 n=c#6 v=64
148526 On ch=1 n=f#5 v=13
148716 Off ch=1 n=f#5 v=64
148782 On ch=1 n=b3 v=26
148818 On ch=1 n=b5 v=58
148918 Off ch=1 n=b3 v=64
149126 Off ch=1 n=b5 v=64
149131 On ch=1 n=a5 v=65
149392 Off ch=1 n=a5 v=64
149438 On ch=1 n=d#5 v=25
149446 On ch=1 n=b5 v=49
149524 Off ch=1 n=b5 v=64
149552 Off ch=1 n=d#5 v=64
149652 On ch=1 n=g#5 v=77
149700 On ch=1 n=a4 v=23
149820 Off ch=1 n=a4 v=64
149888 Off ch=1 n=g#5 v=64
149918 On ch=1 n=b5 v=64
149968 Off ch=1 n=b5 v=64
150124 On ch=1 n=f#5 v=60
150350 On ch=1 n=c#6 v=51
150400 Off ch=1 n=c#6 v=64
150410 On ch=1 n=d#6 v=55
150414 On ch=1 n=f#3 v=33
150436 Par ch=1 c=64 v=0
150470 On ch=1 n=c#6 v=51
150530 Off ch=1 n=d#6 v=64
150560 Off ch=1 n=f#5 v=64
150586 Off ch=1 n=f#3 v=64
150604 Par ch=1 c=64 v=127
150756 Off ch=1 n=c#6 v=64
150786 On ch=1 n=f5 v=48
150786 On ch=1 n=a5 v=28
150880 Off ch=1 n=a5 v=64
150974 Off ch=1 n=f5 v=64
151088 On ch=1 n=b5 v=57
151096 On ch=1 n=d#5 v=36
151196 Off ch=1 n=d#5 v=64
151198 Off ch=1 n=b5 v=64
151346 On ch=1 n=f#5 v=40
151368 On ch=1 n=a4 v=23
151474 Off ch=1 n=a4 v=64
151616 On ch=1 n=b5 v=49
151744 Off ch=1 n=f#5 v=64
151828 Off ch=1 n=b5 v=64
151886 On ch=1 n=g#5 v=47
152174 On ch=1 n=b2 v=46
152186 Par ch=1 c=64 v=0
152200 On ch=1 n=b5 v=46
152264 Off ch=1 n=g#5 v=64
152304 Off ch=1 n=b2 v=64
152326 Par ch=1 c=64 v=127
152518 Off ch=1 n=b5 v=64
152540 On ch=1 n=a5 v=60
152782 Off ch=1 n=a5 v=64
152848 On ch=1 n=b5 v=57
152851 On ch=1 n=d#5 v=35
153080 On ch=1 n=g#5 v=68
153084 Off ch=1 n=b5 v=64
153148 On ch=1 n=a4 v=25
153350 On ch=1 n=b5 v=75
153360 Off ch=1 n=g#5 v=64
153378 Off ch=1 n=d#5 v=64
153394 Off ch=1 n=b5 v=64
153562 On ch=1 n=f#5 v=56
153714 On ch=1 n=c#6 v=51
153756 On ch=1 n=d#6 v=65
153759 Off ch=1 n=f#5 v=64
153759 Off ch=1 n=c#6 v=64
153818 On ch=1 n=c#6 v=66
153868 Off ch=1 n=d#6 v=64
154050 On ch=1 n=a5 v=35
154064 On ch=1 n=e5 v=67
154066 Off ch=1 n=a4 v=64
154214 Par ch=1 c=64 v=0
154276 Par ch=1 c=64 v=127
154342 On ch=1 n=b5 v=76
154370 On ch=1 n=b4 v=30
154376 Off ch=1 n=e5 v=64
154424 Off ch=1 n=c#6 v=64
154586 On ch=1 n=d#5 v=55
154634 On ch=1 n=a4 v=27
154722 Par ch=1 c=64 v=0
154814 Par ch=1 c=64 v=127
154816 On ch=1 n=a#5 v=64
154854 Off ch=1 n=a5 v=64
154868 Off ch=1 n=b5 v=64
154914 Off ch=1 n=d#5 v=64
154944 Off ch=1 n=b4 v=64
155006 Off ch=1 n=a#5 v=64
155066 On ch=1 n=d5 v=40
155126 Off ch=1 n=d5 v=64
155298 On ch=1 n=c#6 v=66
155428 Par ch=1 c=64 v=0
155538 On ch=1 n=a5 v=36
155586 On ch=1 n=e5 v=47
155598 Par ch=1 c=64 v=127
155644 Off ch=1 n=a4 v=64
155720 Off ch=1 n=e5 v=64
155816 On ch=1 n=b5 v=64
155830 On ch=1 n=b4 v=36
155876 Off ch=1 n=c#6 v=64
156048 On ch=1 n=d#5 v=47
156070 Off ch=1 n=a5 v=64
156120 On ch=1 n=a4 v=21
156144 Off ch=1 n=d#5 v=64
156258 Off ch=1 n=b4 v=64
156292 On ch=1 n=a#5 v=54
156322 Off ch=1 n=b5 v=64
156352 Off ch=1 n=a4 v=64
156444 Off ch=1 n=a#5 v=64
156536 On ch=1 n=d5 v=49
156624 Off ch=1 n=d5 v=64
156778 On ch=1 n=a5 v=64
157018 On ch=1 n=c5 v=47
157024 On ch=1 n=d#5 v=46
157026 Par ch=1 c=64 v=0
157212 Par ch=1 c=64 v=127
157254 On ch=1 n=g#5 v=62
157290 On ch=1 n=a4 v=26
157298 Off ch=1 n=a5 v=64
157334 Off ch=1 n=c5 v=64
157412 Off ch=1 n=d#5 v=64
157432 Off ch=1 n=g#5 v=64
157460 Off ch=1 n=a4 v=64
157502 On ch=1 n=b4 v=41
157552 On ch=1 n=f#4 v=31
157616 Off ch=1 n=b4 v=64
157702 Off ch=1 n=f#4 v=64
157712 On ch=1 n=f#5 v=51
157848 Off ch=1 n=f#5 v=64
157964 On ch=1 n=a4 v=48
158042 Off ch=1 n=a4 v=64
158190 On ch=1 n=e5 v=64
158414 On ch=1 n=g#4 v=53
158436 On ch=1 n=a4 v=33
158456 Par ch=1 c=64 v=0
158578 Par ch=1 c=64 v=127
158614 Off ch=1 n=g#4 v=64
158626 Off ch=1 n=a4 v=64
158654 On ch=1 n=d#5 v=63
158668 On ch=1 n=f#4 v=51
158684 Off ch=1 n=e5 v=64
158740 Off ch=1 n=f#4 v=64
158888 On ch=1 n=f#4 v=70
158960 On ch=1 n=b3 v=27
159042 Off ch=1 n=f#4 v=64
159094 Off ch=1 n=b3 v=64
159112 On ch=1 n=c#5 v=71
159152 Off ch=1 n=d#5 v=64
159238 Off ch=1 n=c#5 v=64
159344 On ch=1 n=e4 v=64
159460 Off ch=1 n=e4 v=64
159602 On ch=1 n=b4 v=67
159700 Par ch=1 c=64 v=0
159852 On ch=1 n=d#4 v=41
159870 Par ch=1 c=64 v=127
160160 On ch=1 n=a#4 v=43
160165 Off ch=1 n=b4 v=64
160192 Off ch=1 n=d#4 v=64
160392 Par ch=1 c=64 v=0
160404 On ch=1 n=c#4 v=41
160440 On ch=1 n=f#3 v=46
160660 On ch=1 n=a4 v=54
160702 Off ch=1 n=a#4 v=64
160744 Par ch=1 c=64 v=127
161004 On ch=1 n=d#4 v=44
161042 Off ch=1 n=c#4 v=64
161190 Off ch=1 n=a4 v=64
161474 On ch=1 n=f#4 v=45
161479 On ch=1 n=g#4 v=38
161492 On ch=1 n=c3 v=60
161560 Par ch=1 c=64 v=0
161908 On ch=1 n=g3 v=53
161988 Off ch=1 n=f#3 v=64
162242 On ch=1 n=g#3 v=60
162280 Off ch=1 n=g3 v=64
162524 On ch=1 n=a#3 v=55
162558 Off ch=1 n=g#3 v=64
162776 Off ch=1 n=c3 v=64
162812 On ch=1 n=c4 v=39
162836 Par ch=1 c=64 v=127
162876 Off ch=1 n=a#3 v=64
163016 Off ch=1 n=d#4 v=64
163092 On ch=1 n=c#4 v=46
163098 Off ch=1 n=c4 v=64
163384 Off ch=1 n=f#4 v=64
163402 On ch=1 n=d4 v=50
163414 Off ch=1 n=c#4 v=64
163450 Par ch=1 c=64 v=0
163666 Par ch=1 c=64 v=127
163688 On ch=1 n=d#4 v=48
163708 Off ch=1 n=g#4 v=64
163716 Off ch=1 n=d4 v=64
163802 Par ch=1 c=64 v=0
163926 Par ch=1 c=64 v=127
163974 On ch=1 n=f4 v=64
163998 Off ch=1 n=d#4 v=64
164063 Par ch=1 c=64 v=0
164248 Par ch=1 c=64 v=127
164282 On ch=1 n=f#4 v=48
164332 Off ch=1 n=f4 v=64
164386 Par ch=1 c=64 v=0
164624 On ch=1 n=g4 v=38
164664 Par ch=1 c=64 v=127
164740 Par ch=1 c=64 v=0
164764 Off ch=1 n=f#4 v=64
164970 Par ch=1 c=64 v=127
165048 On ch=1 n=g#4 v=30
165078 Off ch=1 n=g4 v=64
165108 Par ch=1 c=64 v=0
165356 Par ch=1 c=64 v=127
165596 On ch=1 n=f#6 v=55
165616 Par ch=1 c=64 v=0
165634 On ch=1 n=c#4 v=22
165644 Off ch=1 n=g#4 v=64
165800 Par ch=1 c=64 v=127
165846 Off ch=1 n=c#4 v=64
166016 Off ch=1 n=f#6 v=64
166032 On ch=1 n=g#5 v=30
166046 On ch=1 n=f5 v=26
166166 Off ch=1 n=f5 v=64
166344 On ch=1 n=f6 v=69
166376 On ch=1 n=c#5 v=27
166480 Off ch=1 n=g#5 v=64
166560 Off ch=1 n=f6 v=64
166592 Off ch=1 n=c#5 v=64
166646 On ch=1 n=f5 v=20
166652 On ch=1 n=g#4 v=27
166760 Off ch=1 n=f5 v=64
166790 Off ch=1 n=g#4 v=64
166874 On ch=1 n=c#6 v=76
167028 Off ch=1 n=c#6 v=64
167154 On ch=1 n=f5 v=41
167206 Off ch=1 n=f5 v=64
167546 On ch=1 n=g#6 v=71
167582 Par ch=1 c=64 v=0
167600 On ch=1 n=d#4 v=27
167798 Par ch=1 c=64 v=127
167824 Off ch=1 n=d#4 v=64
167854 Off ch=1 n=g#6 v=64
167978 On ch=1 n=g#5 v=24
167980 On ch=1 n=f#5 v=17
168191 Off ch=1 n=g#5 v=64
168208 Off ch=1 n=f#5 v=64
168376 On ch=1 n=f#6 v=45
168384 On ch=1 n=c5 v=22
168558 Off ch=1 n=c5 v=64
168682 Off ch=1 n=f#6 v=64
168700 On ch=1 n=g#4 v=16
168720 On ch=1 n=f#5 v=8
168878 Off ch=1 n=f#5 v=64
168986 Off ch=1 n=g#4 v=64
168994 On ch=1 n=d#6 v=32
169210 Off ch=1 n=d#6 v=64
169314 On ch=1 n=f#5 v=5
169650 On ch=1 n=a#5 v=53
169674 On ch=1 n=f4 v=39
169694 Off ch=1 n=f#5 v=64
170032 On ch=1 n=c#6 v=34
170066 On ch=1 n=f5 v=12
170072 Par ch=1 c=64 v=0
170210 Par ch=1 c=64 v=127
170274 Off ch=1 n=c#6 v=64
170296 Off ch=1 n=f5 v=64
170298 On ch=1 n=g#5 v=63
170320 On ch=1 n=c#5 v=29
170414 Off ch=1 n=a#5 v=64
170460 Off ch=1 n=f4 v=64
170598 Off ch=1 n=c#5 v=64
170604 On ch=1 n=c#6 v=38
170622 On ch=1 n=g#4 v=29
170774 Off ch=1 n=c#6 v=64
170816 Off ch=1 n=g#5 v=64
170838 Off ch=1 n=g#4 v=64
170888 On ch=1 n=f5 v=65
171202 On ch=1 n=c#6 v=34
171274 Off ch=1 n=f5 v=64
171428 Off ch=1 n=c#6 v=64
171606 On ch=1 n=e5 v=57
171622 On ch=1 n=g3 v=16
171622 Par ch=1 c=64 v=0
171854 Par ch=1 c=64 v=127
171860 Off ch=1 n=g3 v=64
172080 On ch=1 n=c#5 v=17
172080 On ch=1 n=c#6 v=25
172090 Off ch=1 n=e5 v=64
172266 Off ch=1 n=c#5 v=64
172406 Off ch=1 n=c#6 v=64
172442 On ch=1 n=d#5 v=39
172462 On ch=1 n=a#4 v=16
172648 Off ch=1 n=a#4 v=64
172780 On ch=1 n=a#5 v=18
172838 On ch=1 n=e4 v=24
172902 Off ch=1 n=d#5 v=64
173000 Off ch=1 n=e4 v=64
173100 On ch=1 n=c#5 v=31
173148 Off ch=1 n=a#5 v=64
173472 On ch=1 n=a#5 v=25
173650 Off ch=1 n=c#5 v=64
173958 On ch=1 n=g#5 v=40
173960 Par ch=1 c=64 v=0
173962 On ch=1 n=g#3 v=27
174014 Off ch=1 n=a#5 v=64
174164 Off ch=1 n=g#3 v=64
174190 Par ch=1 c=64 v=127
174266 Off ch=1 n=g#5 v=64
174348 On ch=1 n=g#5 v=31
174370 On ch=1 n=f5 v=21
174524 Off ch=1 n=g#5 v=64
174570 Off ch=1 n=f5 v=64
174644 On ch=1 n=c#6 v=60
174698 On ch=1 n=c#5 v=15
174794 Off ch=1 n=c#5 v=64
174936 On ch=1 n=f5 v=29
174946 On ch=1 n=g#4 v=18
175014 Off ch=1 n=f5 v=64
175064 Off ch=1 n=c#6 v=64
175130 Off ch=1 n=g#4 v=64
175194 On ch=1 n=f6 v=67
175388 Off ch=1 n=f6 v=64
175488 On ch=1 n=f5 v=23
175568 Off ch=1 n=f5 v=64
175834 Par ch=1 c=64 v=0
175852 On ch=1 n=g#6 v=51
175860 On ch=1 n=g#3 v=23
176034 Par ch=1 c=64 v=127
176048 Off ch=1 n=g#3 v=64
176086 Off ch=1 n=g#6 v=64
176312 On ch=1 n=g#5 v=25
176320 On ch=1 n=f#5 v=19
176412 Off ch=1 n=g#5 v=64
176626 Off ch=1 n=f#5 v=64
176676 On ch=1 n=d#6 v=36
176722 On ch=1 n=c5 v=15
176880 Off ch=1 n=c5 v=64
177018 On ch=1 n=f#5 v=18
177028 On ch=1 n=g#4 v=14
177106 Off ch=1 n=d#6 v=64
177162 Off ch=1 n=f#5 v=64
177322 On ch=1 n=f6 v=37
177448 Off ch=1 n=g#4 v=64
177624 On ch=1 n=f#5 v=18
177802 Off ch=1 n=f#5 v=64
178026 On ch=1 n=g#5 v=11
178028 Off ch=1 n=f6 v=64
178034 On ch=1 n=g#4 v=33
178384 Par ch=1 c=64 v=0
178404 On ch=1 n=c#6 v=23
178414 On ch=1 n=g#3 v=30
178528 Off ch=1 n=g#3 v=64
178584 Par ch=1 c=64 v=127
178616 Off ch=1 n=g#4 v=64
178652 Off ch=1 n=c#6 v=64
178738 On ch=1 n=c#5 v=50
178760 On ch=1 n=f5 v=18
178800 Off ch=1 n=g#5 v=64
178922 Off ch=1 n=f5 v=64
179042 On ch=1 n=c#6 v=31
179060 Off ch=1 n=c#5 v=64
179068 On ch=1 n=g#4 v=24
179144 Off ch=1 n=g#4 v=64
179256 Off ch=1 n=c#6 v=64
179296 On ch=1 n=g#5 v=37
179306 On ch=1 n=f5 v=49
179504 Off ch=1 n=f5 v=64
179584 Off ch=1 n=g#5 v=64
179604 On ch=1 n=c#6 v=24
179614 On ch=1 n=g#4 v=15
179800 Off ch=1 n=g#4 v=64
179928 Off ch=1 n=c#6 v=64
179948 On ch=1 n=a#5 v=22
179956 On ch=1 n=f#5 v=32
180044 Par ch=1 c=64 v=0
180228 Par ch=1 c=64 v=127
180396 On ch=1 n=c#6 v=20
180408 On ch=1 n=g#4 v=23
180450 Off ch=1 n=f#5 v=64
180576 Off ch=1 n=g#4 v=64
180660 Off ch=1 n=c#6 v=64
180716 Off ch=1 n=a#5 v=64
180738 On ch=1 n=g#5 v=16
180744 On ch=1 n=f5 v=27
180794 Par ch=1 c=64 v=0
180982 Par ch=1 c=64 v=127
181024 Off ch=1 n=f5 v=64
181032 On ch=1 n=g#4 v=21
181038 On ch=1 n=c#6 v=20
181194 Off ch=1 n=g#4 v=64
181218 Off ch=1 n=g#5 v=64
181234 Off ch=1 n=c#6 v=64
181324 On ch=1 n=d#5 v=29
181324 On ch=1 n=f#5 v=15
181396 Par ch=1 c=64 v=0
181596 Par ch=1 c=64 v=127
181644 On ch=1 n=c#6 v=23
181656 Off ch=1 n=d#5 v=64
181662 On ch=1 n=g#4 v=19
181752 Off ch=1 n=g#4 v=64
181766 Off ch=1 n=f#5 v=64
182072 On ch=1 n=g#5 v=37
182072 Par ch=1 c=64 v=0
182086 Off ch=1 n=c#6 v=64
182100 On ch=1 n=g#3 v=27
182252 Off ch=1 n=g#3 v=64
182286 Par ch=1 c=64 v=127
182474 On ch=1 n=f5 v=22
182612 Off ch=1 n=g#5 v=64
182674 Off ch=1 n=f5 v=64
182820 On ch=1 n=c#6 v=43
182820 On ch=1 n=c#5 v=25
182900 Off ch=1 n=c#5 v=64
183114 Off ch=1 n=c#6 v=64
183138 On ch=1 n=g#4 v=16
183141 On ch=1 n=f5 v=17
183286 Off ch=1 n=g#4 v=64
183308 Off ch=1 n=f5 v=64
183446 On ch=1 n=f6 v=54
183654 Off ch=1 n=f6 v=64
183828 On ch=1 n=f5 v=30
183898 Off ch=1 n=f5 v=64
184330 Par ch=1 c=64 v=0
184344 On ch=1 n=g#2 v=13
184346 On ch=1 n=g#6 v=36
184550 Off ch=1 n=g#2 v=64
184576 Par ch=1 c=64 v=127
184728 Off ch=1 n=g#6 v=64
185090 On ch=1 n=a#5 v=43
185092 On ch=1 n=f#5 v=20
185424 Off ch=1 n=a#5 v=64
185718 On ch=1 n=d#6 v=29
185728 Off ch=1 n=f#5 v=64
185764 On ch=1 n=c5 v=16
185966 Off ch=1 n=c5 v=64
186102 Off ch=1 n=d#6 v=64
186214 On ch=1 n=g#5 v=28
186296 On ch=1 n=g#4 v=13
186598 On ch=1 n=f6 v=35
186806 Off ch=1 n=g#5 v=64
186998 On ch=1 n=f#5 v=22
187024 Off ch=1 n=g#4 v=64
187394 Off ch=1 n=f6 v=64
187634 On ch=1 n=c#6 v=32
187637 Off ch=1 n=f#5 v=64
187644 On ch=1 n=c#3 v=18
187650 Par ch=1 c=64 v=0
187926 Off ch=1 n=c#3 v=64
187926 Par ch=1 c=64 v=127
188134 Off ch=1 n=c#6 v=64
188354 On ch=1 n=g#5 v=10
188370 On ch=1 n=f5 v=11
188578 Off ch=1 n=g#5 v=64
188632 Off ch=1 n=f5 v=64
188852 On ch=1 n=c#6 v=18
188862 On ch=1 n=c#5 v=20
189004 Off ch=1 n=c#5 v=64
189062 Off ch=1 n=c#6 v=64
189316 On ch=1 n=g#4 v=11
189332 On ch=1 n=f5 v=8
189642 Off ch=1 n=f5 v=64
189870 On ch=1 n=c#6 v=16
190166 Off ch=1 n=g#4 v=64
190186 Off ch=1 n=c#6 v=64
190720 On ch=1 n=f5 v=8
191018 Off ch=1 n=f5 v=64
192140 On ch=1 n=c#7 v=11
192142 On ch=1 n=g#3 v=15
192144 On ch=1 n=c#3 v=14
192372 Off ch=1 n=c#3 v=64
192440 Off ch=1 n=g#3 v=64
192614 Off ch=1 n=c#7 v=64
195840 Par ch=1 c=64 v=0
195840 Meta TrkEnd
TrkEnd
