MFile 0 1 480
MTrk
0 SMPTE 96 0 0 0 0
0 TimeSig 4/4 24 8
0 KeySig 0 major
0 Tempo 500000
0 On ch=1 n=a#5 v=36
2 On ch=1 n=a#4 v=29
12 On ch=1 n=c#6 v=31
68 Off ch=1 n=a#5 v=64
78 Off ch=1 n=c#6 v=64
88 Off ch=1 n=a#4 v=64
172 On ch=1 n=a#5 v=49
180 On ch=1 n=c#6 v=41
184 On ch=1 n=c5 v=65
234 Off ch=1 n=c5 v=64
256 Off ch=1 n=c#6 v=64
284 Off ch=1 n=a#5 v=64
378 On ch=1 n=a#5 v=56
380 On ch=1 n=c#5 v=100
392 On ch=1 n=c#6 v=76
520 Par ch=1 c=64 v=127
546 Off ch=1 n=c#6 v=64
566 Off ch=1 n=a#5 v=64
574 Off ch=1 n=c#5 v=64
634 On ch=1 n=a#5 v=57
642 On ch=1 n=c#6 v=42
664 On ch=1 n=c5 v=77
692 Off ch=1 n=a#5 v=64
696 Off ch=1 n=c#6 v=64
736 Off ch=1 n=c5 v=64
750 On ch=1 n=c#6 v=79
753 On ch=1 n=a#5 v=66
756 On ch=1 n=a#4 v=76
866 Off ch=1 n=c#6 v=64
866 Off ch=1 n=a#4 v=64
878 Off ch=1 n=a#5 v=64
938 On ch=1 n=a#4 v=64
941 On ch=1 n=c#6 v=59
941 On ch=1 n=a#5 v=62
1038 Off ch=1 n=a#4 v=64
1042 Par ch=1 c=64 v=0
1048 Off ch=1 n=c#6 v=64
1060 Off ch=1 n=a#5 v=64
1114 On ch=1 n=a#5 v=70
1116 On ch=1 n=c#6 v=70
1130 On ch=1 n=g5 v=79
1190 Off ch=1 n=g5 v=64
1208 Off ch=1 n=c#6 v=64
1234 Off ch=1 n=a#5 v=64
1292 On ch=1 n=a#5 v=71
1298 On ch=1 n=c#6 v=61
1302 On ch=1 n=f5 v=82
1364 Off ch=1 n=f5 v=64
1402 Off ch=1 n=a#5 v=64
1402 Off ch=1 n=c#6 v=64
1508 On ch=1 n=a#5 v=72
1508 On ch=1 n=c#6 v=84
1510 On ch=1 n=f5 v=94
1700 On ch=1 n=c3 v=94
1790 Off ch=1 n=a#5 v=64
1793 Off ch=1 n=f5 v=64
1886 Par ch=1 c=64 v=127
1894 On ch=1 n=c4 v=93
1899 On ch=1 n=e5 v=83
1902 On ch=1 n=c6 v=79
1912 Off ch=1 n=c3 v=64
1914 On ch=1 n=a#5 v=58
1926 Off ch=1 n=c#6 v=64
1980 Off ch=1 n=c4 v=64
2096 Off ch=1 n=c6 v=64
2108 Off ch=1 n=a#5 v=64
2118 On ch=1 n=c5 v=110
2138 Off ch=1 n=e5 v=64
2204 Off ch=1 n=c5 v=64
2258 Par ch=1 c=64 v=0
2318 On ch=1 n=a#4 v=94
2326 On ch=1 n=c#6 v=84
2326 On ch=1 n=a#5 v=73
2420 Off ch=1 n=a#4 v=64
2454 Off ch=1 n=c#6 v=64
2460 Off ch=1 n=a#5 v=64
2502 Par ch=1 c=64 v=127
2508 On ch=1 n=c5 v=100
2512 On ch=1 n=a#5 v=81
2514 On ch=1 n=c#6 v=69
2544 Off ch=1 n=c5 v=64
2650 Off ch=1 n=c#6 v=64
2680 Off ch=1 n=a#5 v=64
2732 Par ch=1 c=64 v=0
2848 On ch=1 n=c#5 v=101
2851 On ch=1 n=c#6 v=92
2851 On ch=1 n=a#5 v=81
2858 On ch=1 n=c3 v=115
2864 On ch=1 n=c2 v=110
2888 Off ch=1 n=c2 v=64
2958 Off ch=1 n=c3 v=64
2961 Par ch=1 c=64 v=127
3080 Off ch=1 n=c#6 v=64
3096 Off ch=1 n=a#5 v=64
3100 Off ch=1 n=c#5 v=64
3230 On ch=1 n=c#6 v=54
3236 On ch=1 n=a#5 v=56
3238 On ch=1 n=c5 v=88
3278 Off ch=1 n=c#6 v=64
3278 Off ch=1 n=a#5 v=64
3300 Off ch=1 n=c5 v=64
3326 On ch=1 n=c#6 v=83
3326 On ch=1 n=a#5 v=76
3334 On ch=1 n=a#4 v=85
3430 Off ch=1 n=a#4 v=64
3440 Off ch=1 n=c#6 v=64
3454 Off ch=1 n=a#5 v=64
3536 On ch=1 n=a#4 v=84
3539 On ch=1 n=a#5 v=61
3539 On ch=1 n=c#6 v=65
3626 Off ch=1 n=a#4 v=64
3652 Off ch=1 n=a#5 v=64
3652 Off ch=1 n=c#6 v=64
3720 On ch=1 n=a#5 v=62
3724 On ch=1 n=c#6 v=68
3728 On ch=1 n=g5 v=84
3780 Off ch=1 n=g5 v=64
3818 Off ch=1 n=a#5 v=64
3824 Off ch=1 n=c#6 v=64
3906 On ch=1 n=a#5 v=68
3909 On ch=1 n=c#6 v=65
3916 On ch=1 n=f5 v=93
3964 Off ch=1 n=f5 v=64
4014 Off ch=1 n=a#5 v=64
4024 Off ch=1 n=c#6 v=64
4104 On ch=1 n=c#6 v=81
4110 On ch=1 n=a#5 v=76
4116 On ch=1 n=f5 v=94
4284 Par ch=1 c=64 v=0
4296 On ch=1 n=c3 v=108
4402 Off ch=1 n=a#5 v=64
4448 Off ch=1 n=c#6 v=64
4498 On ch=1 n=a#5 v=48
4498 On ch=1 n=c6 v=84
4501 On ch=1 n=e5 v=82
4501 On ch=1 n=c4 v=89
4516 Off ch=1 n=f5 v=64
4516 Off ch=1 n=c3 v=64
4558 Off ch=1 n=c4 v=64
4590 Par ch=1 c=64 v=127
4604 Off ch=1 n=a#5 v=64
4604 Off ch=1 n=e5 v=64
4674 Off ch=1 n=c6 v=64
4724 On ch=1 n=c5 v=91
4762 Off ch=1 n=c5 v=64
4882 Par ch=1 c=64 v=0
4914 On ch=1 n=c5 v=101
5082 Par ch=1 c=64 v=127
5100 Off ch=1 n=c5 v=64
5148 On ch=1 n=c6 v=95
5228 Off ch=1 n=c6 v=64
5476 On ch=1 n=c7 v=101
5492 On ch=1 n=g#3 v=62
5612 Off ch=1 n=g#3 v=64
5732 On ch=1 n=c5 v=52
5928 Off ch=1 n=c5 v=64
5940 On ch=1 n=g#6 v=88
5970 On ch=1 n=f4 v=72
6010 Off ch=1 n=c7 v=64
6082 Off ch=1 n=f4 v=64
6110 Off ch=1 n=g#6 v=64
6132 On ch=1 n=c4 v=52
6292 Off ch=1 n=c4 v=64
6295 On ch=1 n=c5 v=66
6302 On ch=1 n=g6 v=97
6406 Off ch=1 n=g6 v=64
6476 Off ch=1 n=c5 v=64
6510 On ch=1 n=f4 v=80
6590 On ch=1 n=f6 v=91
6638 Off ch=1 n=f4 v=64
6676 On ch=1 n=a#3 v=61
6679 On ch=1 n=d#6 v=92
6679 Par ch=1 c=64 v=0
6704 Off ch=1 n=f6 v=64
6914 On ch=1 n=c#5 v=62
7064 Par ch=1 c=64 v=127
7092 Off ch=1 n=c#5 v=64
7144 On ch=1 n=c#6 v=83
7156 On ch=1 n=f4 v=69
7190 Off ch=1 n=a#3 v=64
7192 Off ch=1 n=d#6 v=64
7266 Off ch=1 n=c#6 v=64
7324 On ch=1 n=c#4 v=72
7330 Off ch=1 n=f4 v=64
7492 On ch=1 n=c6 v=88
7502 On ch=1 n=a#4 v=49
7600 Off ch=1 n=c6 v=64
7680 Off ch=1 n=c#4 v=64
7680 On ch=1 n=f4 v=78
7732 On ch=1 n=a#5 v=76
7772 Off ch=1 n=a#5 v=64
7826 On ch=1 n=a#5 v=69
7834 Par ch=1 c=64 v=0
7872 On ch=1 n=d#4 v=67
7876 Off ch=1 n=a#4 v=64
7882 Off ch=1 n=f4 v=64
7906 On ch=1 n=d#6 v=92
7956 Off ch=1 n=a#5 v=64
8096 On ch=1 n=c5 v=76
8216 Off ch=1 n=c5 v=64
8248 Par ch=1 c=64 v=127
8286 Off ch=1 n=d#6 v=64
8306 On ch=1 n=g#4 v=75
8344 Off ch=1 n=g#4 v=64
8394 Off ch=1 n=d#4 v=64
8494 Par ch=1 c=64 v=0
8504 On ch=1 n=c#5 v=83
8512 On ch=1 n=g5 v=90
8524 On ch=1 n=d#3 v=65
8602 Off ch=1 n=d#3 v=64
8648 Par ch=1 c=64 v=127
8722 On ch=1 n=a#4 v=74
8832 Off ch=1 n=g5 v=64
8840 Off ch=1 n=a#4 v=64
8912 On ch=1 n=d#4 v=83
8948 Off ch=1 n=d#4 v=64
8982 Off ch=1 n=c#5 v=64
9078 Par ch=1 c=64 v=0
9124 On ch=1 n=g#5 v=88
9132 On ch=1 n=c5 v=76
9132 On ch=1 n=g#2 v=78
9168 Off ch=1 n=g#2 v=64
9292 Par ch=1 c=64 v=127
9332 On ch=1 n=g#4 v=82
9524 On ch=1 n=d#4 v=86
9560 Off ch=1 n=g#4 v=64
9598 Off ch=1 n=c5 v=64
9676 Off ch=1 n=g#5 v=64
9696 Off ch=1 n=d#4 v=64
9746 On ch=1 n=g#3 v=95
9808 Off ch=1 n=g#3 v=64
9814 Par ch=1 c=64 v=0
9974 On ch=1 n=c#6 v=86
9984 On ch=1 n=a#5 v=78
9987 On ch=1 n=a#4 v=95
10076 Par ch=1 c=64 v=127
10086 Off ch=1 n=a#4 v=64
10102 Off ch=1 n=a#5 v=64
10108 Off ch=1 n=c#6 v=64
10164 On ch=1 n=c#6 v=80
10167 On ch=1 n=a#5 v=67
10176 On ch=1 n=c5 v=104
10218 Off ch=1 n=c5 v=64
10278 Off ch=1 n=a#5 v=64
10324 Off ch=1 n=c#6 v=64
10566 On ch=1 n=c#6 v=91
10566 On ch=1 n=c#5 v=97
10570 On ch=1 n=a#5 v=80
10574 On ch=1 n=c3 v=112
10578 On ch=1 n=c2 v=108
10606 Off ch=1 n=c2 v=64
10676 Off ch=1 n=c3 v=64
10782 Off ch=1 n=c#5 v=64
10784 Off ch=1 n=c#6 v=64
10808 Off ch=1 n=a#5 v=64
10918 On ch=1 n=a#5 v=43
10924 On ch=1 n=c#6 v=66
10926 On ch=1 n=c5 v=91
10966 Off ch=1 n=c#6 v=64
10969 Off ch=1 n=a#5 v=64
10990 Off ch=1 n=c5 v=64
11012 On ch=1 n=c#6 v=84
11016 On ch=1 n=a#5 v=81
11018 On ch=1 n=a#4 v=84
11128 Off ch=1 n=a#4 v=64
11142 Off ch=1 n=a#5 v=64
11148 Off ch=1 n=c#6 v=64
11212 On ch=1 n=c#6 v=68
11216 On ch=1 n=a#5 v=57
11228 On ch=1 n=a#4 v=81
11324 Off ch=1 n=a#4 v=64
11334 Off ch=1 n=a#5 v=64
11342 Off ch=1 n=c#6 v=64
11406 On ch=1 n=c#6 v=73
11406 On ch=1 n=a#5 v=66
11412 On ch=1 n=g5 v=88
11494 Off ch=1 n=g5 v=64
11508 Off ch=1 n=a#5 v=64
11526 Off ch=1 n=c#6 v=64
11598 On ch=1 n=c#6 v=73
11606 On ch=1 n=a#5 v=72
11612 On ch=1 n=f5 v=91
11692 Off ch=1 n=f5 v=64
11724 Off ch=1 n=c#6 v=64
11726 Off ch=1 n=a#5 v=64
11806 On ch=1 n=a#5 v=73
11808 On ch=1 n=c#6 v=78
11814 On ch=1 n=f5 v=97
12012 On ch=1 n=c3 v=109
12074 Par ch=1 c=64 v=0
12138 Off ch=1 n=a#5 v=64
12154 Off ch=1 n=c#6 v=64
12194 On ch=1 n=c4 v=91
12208 On ch=1 n=c6 v=86
12213 On ch=1 n=e5 v=82
12213 On ch=1 n=a#5 v=54
12230 Off ch=1 n=c3 v=64
12242 Off ch=1 n=f5 v=64
12272 Par ch=1 c=64 v=127
12292 Off ch=1 n=c4 v=64
12320 Off ch=1 n=e5 v=64
12352 Off ch=1 n=a#5 v=64
12392 Off ch=1 n=c6 v=64
12404 On ch=1 n=c5 v=106
12496 Off ch=1 n=c5 v=64
12550 Par ch=1 c=64 v=0
12600 On ch=1 n=c#6 v=86
12603 On ch=1 n=a#4 v=97
12608 On ch=1 n=a#5 v=75
12694 Off ch=1 n=a#4 v=64
12724 Off ch=1 n=a#5 v=64
12736 Off ch=1 n=c#6 v=64
12794 On ch=1 n=c#6 v=75
12797 On ch=1 n=a#5 v=64
12800 On ch=1 n=c5 v=102
12812 Par ch=1 c=64 v=127
12838 Off ch=1 n=c5 v=64
12928 Off ch=1 n=a#5 v=64
12956 Off ch=1 n=c#6 v=64
13132 On ch=1 n=c#5 v=99
13132 On ch=1 n=a#5 v=81
13132 On ch=1 n=c#6 v=92
13140 On ch=1 n=c3 v=114
13140 On ch=1 n=c2 v=108
13166 Off ch=1 n=c2 v=64
13240 Off ch=1 n=c3 v=64
13352 Off ch=1 n=c#6 v=64
13370 Off ch=1 n=a#5 v=64
13378 Off ch=1 n=c#5 v=64
13484 On ch=1 n=c5 v=100
13494 On ch=1 n=c#6 v=62
13498 On ch=1 n=a#5 v=42
13542 Off ch=1 n=c#6 v=64
13545 Off ch=1 n=a#5 v=64
13572 Off ch=1 n=c5 v=64
13592 On ch=1 n=c#6 v=84
13596 On ch=1 n=a#5 v=73
13604 On ch=1 n=a#4 v=90
13736 Off ch=1 n=c#6 v=64
13739 Off ch=1 n=a#4 v=64
13758 Off ch=1 n=a#5 v=64
13810 On ch=1 n=c#6 v=68
13816 On ch=1 n=a#5 v=69
13822 On ch=1 n=a#4 v=81
13940 Off ch=1 n=a#4 v=64
13956 Off ch=1 n=c#6 v=64
13960 Off ch=1 n=a#5 v=64
14008 On ch=1 n=c#6 v=81
14011 On ch=1 n=a#5 v=76
14016 On ch=1 n=g5 v=86
14102 Off ch=1 n=g5 v=64
14116 Off ch=1 n=a#5 v=64
14128 Off ch=1 n=c#6 v=64
14208 On ch=1 n=c#6 v=69
14216 On ch=1 n=a#5 v=70
14216 On ch=1 n=f5 v=93
14322 Off ch=1 n=a#5 v=64
14326 Off ch=1 n=f5 v=64
14338 Off ch=1 n=c#6 v=64
14420 On ch=1 n=c#6 v=77
14420 On ch=1 n=f5 v=87
14424 On ch=1 n=a#5 v=73
14608 On ch=1 n=c3 v=106
14610 Par ch=1 c=64 v=0
14752 Off ch=1 n=a#5 v=64
14762 Off ch=1 n=c#6 v=64
14806 On ch=1 n=c4 v=93
14814 Off ch=1 n=c3 v=64
14819 On ch=1 n=c6 v=86
14824 On ch=1 n=e5 v=84
14826 On ch=1 n=a#5 v=56
14840 Par ch=1 c=64 v=127
14843 Off ch=1 n=f5 v=64
14904 Off ch=1 n=e5 v=64
14912 Off ch=1 n=c4 v=64
14942 Off ch=1 n=a#5 v=64
14998 Off ch=1 n=c6 v=64
15012 On ch=1 n=c5 v=101
15044 Off ch=1 n=c5 v=64
15208 Par ch=1 c=64 v=0
15230 On ch=1 n=c5 v=96
15454 Par ch=1 c=64 v=127
15468 On ch=1 n=c6 v=95
15492 Off ch=1 n=c5 v=64
15540 Off ch=1 n=c6 v=64
15808 On ch=1 n=c7 v=105
15816 On ch=1 n=g#3 v=54
15954 Off ch=1 n=g#3 v=64
16072 On ch=1 n=c5 v=53
16278 Off ch=1 n=c5 v=64
16284 On ch=1 n=g#6 v=88
16316 On ch=1 n=f4 v=71
16350 Off ch=1 n=c7 v=64
16412 Off ch=1 n=f4 v=64
16432 Off ch=1 n=g#6 v=64
16490 On ch=1 n=c4 v=52
16612 Off ch=1 n=c4 v=64
16650 On ch=1 n=g6 v=97
16666 On ch=1 n=c5 v=62
16788 Off ch=1 n=g6 v=64
16802 Off ch=1 n=c5 v=64
16878 On ch=1 n=f4 v=87
16930 Off ch=1 n=f4 v=64
16956 On ch=1 n=f6 v=87
17020 Par ch=1 c=64 v=0
17038 On ch=1 n=d#6 v=91
17040 Off ch=1 n=f6 v=64
17054 On ch=1 n=a#3 v=62
17272 On ch=1 n=c#5 v=62
17428 Off ch=1 n=c#5 v=64
17450 Par ch=1 c=64 v=127
17538 On ch=1 n=c#6 v=78
17546 On ch=1 n=f4 v=75
17576 Off ch=1 n=d#6 v=64
17606 Off ch=1 n=a#3 v=64
17712 Off ch=1 n=c#6 v=64
17732 Off ch=1 n=f4 v=64
17734 On ch=1 n=c#4 v=59
17910 On ch=1 n=c6 v=84
17913 On ch=1 n=a#4 v=60
18042 Off ch=1 n=c6 v=64
18126 On ch=1 n=f4 v=81
18176 On ch=1 n=a#5 v=67
18216 Off ch=1 n=a#5 v=64
18258 On ch=1 n=a#5 v=83
18266 Par ch=1 c=64 v=0
18294 Off ch=1 n=c#4 v=64
18318 Off ch=1 n=a#4 v=64
18348 On ch=1 n=d#4 v=58
18360 Off ch=1 n=f4 v=64
18360 On ch=1 n=d#6 v=94
18400 Off ch=1 n=a#5 v=64
18584 On ch=1 n=c5 v=74
18714 Off ch=1 n=c5 v=64
18742 Par ch=1 c=64 v=127
18796 On ch=1 n=g#4 v=71
18804 Off ch=1 n=d#6 v=64
18840 Off ch=1 n=g#4 v=64
18892 Off ch=1 n=d#4 v=64
19004 Par ch=1 c=64 v=0
19004 On ch=1 n=c#5 v=74
19010 On ch=1 n=g5 v=83
19016 On ch=1 n=d#3 v=80
19150 Off ch=1 n=d#3 v=64
19172 Par ch=1 c=64 v=127
19248 On ch=1 n=a#4 v=57
19424 Off ch=1 n=a#4 v=64
19494 On ch=1 n=d#4 v=64
19532 Off ch=1 n=c#5 v=64
19634 Off ch=1 n=g5 v=64
19802 On ch=1 n=g#5 v=73
19812 On ch=1 n=g#4 v=41
19816 On ch=1 n=c5 v=59
19822 On ch=1 n=g#3 v=41
19894 Par ch=1 c=64 v=0
20400 Par ch=1 c=64 v=127
20402 Off ch=1 n=g#4 v=64
20450 Off ch=1 n=c5 v=64
20490 Off ch=1 n=g#3 v=64
20614 Off ch=1 n=d#4 v=64
20626 Off ch=1 n=g#5 v=64
21134 On ch=1 n=f6 v=57
21138 On ch=1 n=g#4 v=21
21140 Par ch=1 c=64 v=0
21150 On ch=1 n=c#4 v=19
21352 On ch=1 n=f5 v=19
21416 Par ch=1 c=64 v=127
21490 On ch=1 n=c#6 v=37
21493 Off ch=1 n=f5 v=64
21497 Off ch=1 n=f6 v=64
21632 On ch=1 n=d#6 v=36
21664 Off ch=1 n=c#6 v=64
21728 On ch=1 n=f6 v=67
21784 Off ch=1 n=d#6 v=64
21862 Off ch=1 n=f6 v=64
21862 On ch=1 n=f5 v=20
21932 Off ch=1 n=f5 v=64
21956 On ch=1 n=f#6 v=73
21962 On ch=1 n=a4 v=40
21980 Off ch=1 n=g#4 v=64
21998 Par ch=1 c=64 v=0
22074 On ch=1 n=f#5 v=49
22204 On ch=1 n=c#6 v=41
22214 Par ch=1 c=64 v=127
22264 Off ch=1 n=f#5 v=64
22294 Off ch=1 n=f#6 v=64
22300 On ch=1 n=d#6 v=48
22378 Off ch=1 n=c#6 v=64
22398 On ch=1 n=f#6 v=65
22482 Off ch=1 n=d#6 v=64
22496 On ch=1 n=f#5 v=63
22584 Off ch=1 n=f#5 v=64
22608 Off ch=1 n=a4 v=64
22628 On ch=1 n=g6 v=91
22631 On ch=1 n=a#4 v=38
22638 Off ch=1 n=f#6 v=64
22676 Par ch=1 c=64 v=0
22744 On ch=1 n=g5 v=62
22838 On ch=1 n=c#6 v=47
22860 Par ch=1 c=64 v=127
22888 Off ch=1 n=g6 v=64
22893 Off ch=1 n=g5 v=64
22930 On ch=1 n=d#6 v=62
22986 Off ch=1 n=c#6 v=64
23044 On ch=1 n=g6 v=86
23070 Off ch=1 n=d#6 v=64
23128 Off ch=1 n=a#4 v=64
23160 On ch=1 n=g5 v=43
23168 Off ch=1 n=g6 v=64
23226 Off ch=1 n=g5 v=64
23246 Off ch=1 n=c#4 v=64
23298 On ch=1 n=a#6 v=79
23302 On ch=1 n=g#4 v=36
23334 On ch=1 n=c4 v=27
23336 Par ch=1 c=64 v=0
23426 On ch=1 n=a#5 v=42
23584 On ch=1 n=d#6 v=40
23604 Off ch=1 n=a#5 v=64
23642 Par ch=1 c=64 v=127
23694 Off ch=1 n=d#6 v=64
23722 On ch=1 n=f#6 v=44
23832 On ch=1 n=g#6 v=68
23838 Off ch=1 n=g#4 v=64
23840 Off ch=1 n=a#6 v=64
23950 Off ch=1 n=f#6 v=64
23958 On ch=1 n=g#5 v=43
23968 Off ch=1 n=g#6 v=64
24010 Off ch=1 n=g#5 v=64
24068 On ch=1 n=g#4 v=46
24072 On ch=1 n=f6 v=81
24078 On ch=1 n=c#4 v=42
24088 Par ch=1 c=64 v=0
24090 Off ch=1 n=c4 v=64
24212 On ch=1 n=f5 v=51
24328 On ch=1 n=c#6 v=53
24350 Par ch=1 c=64 v=127
24358 Off ch=1 n=f5 v=64
24378 Off ch=1 n=f6 v=64
24424 On ch=1 n=d#6 v=59
24532 On ch=1 n=f6 v=73
24536 Off ch=1 n=c#6 v=64
24604 Off ch=1 n=d#6 v=64
24607 On ch=1 n=f5 v=67
24628 Off ch=1 n=f6 v=64
24680 Off ch=1 n=f5 v=64
24712 Off ch=1 n=g#4 v=64
24732 On ch=1 n=f#6 v=90
24754 On ch=1 n=a4 v=67
24810 Par ch=1 c=64 v=0
24854 On ch=1 n=f#5 v=63
24970 On ch=1 n=c#6 v=55
25032 Off ch=1 n=f#5 v=64
25042 Par ch=1 c=64 v=127
25068 On ch=1 n=d#6 v=68
25071 Off ch=1 n=f#6 v=64
25136 Off ch=1 n=c#6 v=64
25174 On ch=1 n=f#6 v=67
25248 Off ch=1 n=d#6 v=64
25268 On ch=1 n=f#5 v=64
25326 Off ch=1 n=f#5 v=64
25356 Off ch=1 n=a4 v=64
25388 On ch=1 n=a#4 v=56
25390 On ch=1 n=g6 v=97
25438 Off ch=1 n=f#6 v=64
25442 Par ch=1 c=64 v=0
25510 On ch=1 n=g5 v=68
25618 On ch=1 n=c#6 v=61
25656 Off ch=1 n=g5 v=64
25672 Par ch=1 c=64 v=127
25680 Off ch=1 n=g6 v=64
25706 On ch=1 n=d#6 v=70
25772 Off ch=1 n=c#6 v=64
25814 On ch=1 n=g6 v=84
25892 Off ch=1 n=d#6 v=64
25916 On ch=1 n=g5 v=57
25926 Off ch=1 n=g6 v=64
25970 Off ch=1 n=g5 v=64
26028 Off ch=1 n=a#4 v=64
26054 On ch=1 n=a#6 v=84
26078 On ch=1 n=g#4 v=42
26086 Off ch=1 n=c#4 v=64
26096 On ch=1 n=c4 v=35
26102 Par ch=1 c=64 v=0
26184 On ch=1 n=a#5 v=48
26316 On ch=1 n=d#6 v=44
26366 Off ch=1 n=a#5 v=64
26378 Par ch=1 c=64 v=127
26438 On ch=1 n=f#6 v=49
26518 Off ch=1 n=d#6 v=64
26574 On ch=1 n=g#6 v=59
26580 Off ch=1 n=a#6 v=64
26706 Off ch=1 n=f#6 v=64
26716 On ch=1 n=g#5 v=42
26738 Off ch=1 n=g#6 v=64
26772 Off ch=1 n=g#5 v=64
26832 On ch=1 n=c#4 v=44
26835 On ch=1 n=f6 v=75
26840 Par ch=1 c=64 v=0
26848 Off ch=1 n=c4 v=64
26966 On ch=1 n=f5 v=39
27068 On ch=1 n=c#6 v=43
27070 Par ch=1 c=64 v=127
27100 Off ch=1 n=f5 v=64
27114 Off ch=1 n=f6 v=64
27164 On ch=1 n=d#6 v=50
27262 On ch=1 n=f6 v=81
27264 On ch=1 n=c#5 v=84
27270 Off ch=1 n=c#6 v=64
27298 Off ch=1 n=d#6 v=64
27322 Off ch=1 n=c#4 v=64
27364 Off ch=1 n=g#4 v=64
27364 Off ch=1 n=f6 v=64
27364 On ch=1 n=f5 v=35
27386 Off ch=1 n=c#5 v=64
27432 Off ch=1 n=f5 v=64
27496 On ch=1 n=c#5 v=62
27500 On ch=1 n=f6 v=85
27520 On ch=1 n=d#4 v=52
27576 Par ch=1 c=64 v=0
27604 On ch=1 n=f#5 v=58
27726 On ch=1 n=c6 v=47
27760 Off ch=1 n=f#5 v=64
27822 On ch=1 n=c#6 v=51
27824 Par ch=1 c=64 v=127
27870 Off ch=1 n=c6 v=64
27886 Off ch=1 n=f6 v=64
27889 Off ch=1 n=c#5 v=64
27926 On ch=1 n=d#6 v=75
27932 On ch=1 n=c5 v=73
27978 Off ch=1 n=c#6 v=64
28022 On ch=1 n=f#5 v=56
28048 Off ch=1 n=d#6 v=64
28094 Off ch=1 n=f#5 v=64
28130 On ch=1 n=c#6 v=72
28134 On ch=1 n=a#4 v=60
28158 Off ch=1 n=c5 v=64
28161 Par ch=1 c=64 v=0
28184 On ch=1 n=f4 v=72
28236 Off ch=1 n=d#4 v=64
28239 On ch=1 n=d#5 v=63
28342 On ch=1 n=a5 v=46
28398 Off ch=1 n=d#5 v=64
28448 On ch=1 n=a#5 v=55
28484 Par ch=1 c=64 v=127
28504 Off ch=1 n=c#6 v=64
28522 Off ch=1 n=a5 v=64
28536 On ch=1 n=c6 v=74
28542 On ch=1 n=a4 v=59
28566 Off ch=1 n=a#4 v=64
28576 Off ch=1 n=f4 v=64
28591 Off ch=1 n=a#5 v=64
28602 Off ch=1 n=a4 v=64
28630 On ch=1 n=d#5 v=55
28650 Off ch=1 n=c6 v=64
28732 Off ch=1 n=d#5 v=64
28738 On ch=1 n=c#6 v=72
28768 On ch=1 n=a#4 v=49
28782 On ch=1 n=a#3 v=32
28822 Par ch=1 c=64 v=0
28844 On ch=1 n=c#5 v=57
28950 On ch=1 n=a#5 v=45
29046 Off ch=1 n=c#6 v=64
29052 Par ch=1 c=64 v=127
29056 On ch=1 n=c6 v=45
29072 Off ch=1 n=c#5 v=64
29160 On ch=1 n=c#6 v=58
29164 Off ch=1 n=a#5 v=64
29178 Off ch=1 n=a#4 v=64
29178 Off ch=1 n=a#3 v=64
29214 Off ch=1 n=c6 v=64
29240 Off ch=1 n=c#6 v=64
29254 On ch=1 n=c#5 v=67
29330 Off ch=1 n=c#5 v=64
29370 On ch=1 n=c#6 v=83
29382 On ch=1 n=a#4 v=55
29388 On ch=1 n=a#3 v=60
29476 On ch=1 n=c#5 v=67
29481 Par ch=1 c=64 v=0
29594 On ch=1 n=a#5 v=45
29664 Off ch=1 n=c#6 v=64
29666 Par ch=1 c=64 v=127
29684 On ch=1 n=c6 v=52
29694 Off ch=1 n=c#5 v=64
29774 On ch=1 n=c#4 v=76
29794 On ch=1 n=c#6 v=67
29806 Off ch=1 n=a#5 v=64
29840 Off ch=1 n=c6 v=64
29876 Off ch=1 n=a#4 v=64
29896 Off ch=1 n=a#3 v=64
29899 On ch=1 n=c#5 v=57
29928 Off ch=1 n=c#6 v=64
29954 Off ch=1 n=c#5 v=64
30020 Par ch=1 c=64 v=0
30028 On ch=1 n=c6 v=72
30044 On ch=1 n=f4 v=88
30048 On ch=1 n=g#4 v=44
30058 Off ch=1 n=c#4 v=64
30142 On ch=1 n=c5 v=61
30226 Off ch=1 n=c6 v=64
30234 On ch=1 n=g#5 v=37
30250 Par ch=1 c=64 v=127
30262 Off ch=1 n=g#4 v=64
30278 Off ch=1 n=f4 v=64
30320 Off ch=1 n=c5 v=64
30340 On ch=1 n=a#5 v=49
30430 Off ch=1 n=g#5 v=64
30442 On ch=1 n=f3 v=54
30442 On ch=1 n=c6 v=63
30494 Off ch=1 n=f3 v=64
30520 Off ch=1 n=c6 v=64
30536 Off ch=1 n=a#5 v=64
30542 On ch=1 n=c5 v=51
30602 Off ch=1 n=c5 v=64
30666 On ch=1 n=f#3 v=64
30670 On ch=1 n=f#4 v=59
30678 On ch=1 n=a#5 v=62
30680 Par ch=1 c=64 v=0
30782 On ch=1 n=a#4 v=53
30898 On ch=1 n=f#5 v=41
30924 Off ch=1 n=a#5 v=64
31006 Off ch=1 n=a#4 v=64
31018 On ch=1 n=g#5 v=41
31018 Par ch=1 c=64 v=127
31062 Off ch=1 n=f#4 v=64
31070 On ch=1 n=a#3 v=50
31094 On ch=1 n=a#5 v=42
31110 Off ch=1 n=f#5 v=64
31154 Off ch=1 n=g#5 v=64
31216 On ch=1 n=a#4 v=34
31230 Off ch=1 n=a#5 v=64
31264 Off ch=1 n=f#3 v=64
31296 Par ch=1 c=64 v=0
31328 Off ch=1 n=a#4 v=64
31346 On ch=1 n=f4 v=59
31348 On ch=1 n=g#5 v=44
31348 On ch=1 n=c#4 v=41
31374 Off ch=1 n=a#3 v=64
31466 On ch=1 n=g#4 v=38
31592 Off ch=1 n=f4 v=64
31598 Off ch=1 n=g#5 v=64
31604 On ch=1 n=f5 v=37
31680 Par ch=1 c=64 v=127
31704 Off ch=1 n=g#4 v=64
31734 Off ch=1 n=c#4 v=64
31740 On ch=1 n=f#5 v=30
31768 Off ch=1 n=f5 v=64
31818 Off ch=1 n=f#5 v=64
31820 On ch=1 n=g#5 v=37
31918 Off ch=1 n=g#5 v=64
31932 On ch=1 n=g#4 v=41
32012 Off ch=1 n=g#4 v=64
32080 On ch=1 n=g#5 v=41
32114 On ch=1 n=c#3 v=48
32170 Par ch=1 c=64 v=0
32202 On ch=1 n=g#4 v=45
32270 Off ch=1 n=g#5 v=64
32332 On ch=1 n=f5 v=37
32418 Off ch=1 n=g#4 v=64
32444 On ch=1 n=f#5 v=36
32462 Par ch=1 c=64 v=127
32490 Off ch=1 n=f5 v=64
32524 On ch=1 n=g#5 v=50
32542 On ch=1 n=d#3 v=52
32570 Off ch=1 n=f#5 v=64
32612 Off ch=1 n=g#5 v=64
32624 On ch=1 n=g#4 v=56
32648 Off ch=1 n=c#3 v=64
32722 Off ch=1 n=g#4 v=64
32746 On ch=1 n=f3 v=75
32752 On ch=1 n=g#5 v=55
32784 Off ch=1 n=d#3 v=64
32830 On ch=1 n=g#4 v=62
32856 Off ch=1 n=g#5 v=64
32894 Par ch=1 c=64 v=0
32980 On ch=1 n=f5 v=42
33040 On ch=1 n=f#5 v=46
33074 Off ch=1 n=g#4 v=64
33094 Par ch=1 c=64 v=127
33116 Off ch=1 n=f5 v=64
33136 On ch=1 n=g#5 v=56
33154 On ch=1 n=f#3 v=69
33176 Off ch=1 n=f3 v=64
33196 Off ch=1 n=f#5 v=64
33214 On ch=1 n=a#4 v=65
33270 Off ch=1 n=g#5 v=64
33348 On ch=1 n=g#5 v=49
33364 Off ch=1 n=a#4 v=64
33394 On ch=1 n=g#3 v=70
33428 Off ch=1 n=f#3 v=64
33446 Par ch=1 c=64 v=0
33464 On ch=1 n=c5 v=69
33528 Off ch=1 n=g#5 v=64
33560 On ch=1 n=f5 v=52
33668 On ch=1 n=f#5 v=58
33692 Par ch=1 c=64 v=127
33732 Off ch=1 n=c5 v=64
33762 Off ch=1 n=f5 v=64
33770 On ch=1 n=g#5 v=58
33780 On ch=1 n=a#3 v=50
33800 Off ch=1 n=g#3 v=64
33848 Off ch=1 n=f#5 v=64
33858 On ch=1 n=c#5 v=71
33908 Off ch=1 n=g#5 v=64
33990 Off ch=1 n=c#5 v=64
34008 On ch=1 n=g#5 v=40
34040 On ch=1 n=b3 v=48
34050 Off ch=1 n=a#3 v=64
34060 Par ch=1 c=64 v=0
34134 On ch=1 n=d5 v=44
34188 Off ch=1 n=g#5 v=64
34258 On ch=1 n=f5 v=32
34364 Off ch=1 n=d5 v=64
34366 Off ch=1 n=b3 v=64
34370 Par ch=1 c=64 v=127
34394 On ch=1 n=f#5 v=30
34428 Off ch=1 n=f5 v=64
34512 On ch=1 n=g#5 v=24
34520 Off ch=1 n=f#5 v=64
34530 On ch=1 n=c4 v=31
34596 Off ch=1 n=g#5 v=64
34616 On ch=1 n=d#5 v=37
34752 Par ch=1 c=64 v=0
34798 Off ch=1 n=c4 v=64
34808 On ch=1 n=g#4 v=41
34824 On ch=1 n=g#5 v=62
34832 Off ch=1 n=d#5 v=64
34854 On ch=1 n=c#4 v=21
34990 On ch=1 n=e5 v=47
35088 Off ch=1 n=e5 v=64
35106 On ch=1 n=f5 v=35
35182 Par ch=1 c=64 v=127
35190 On ch=1 n=g5 v=78
35230 Off ch=1 n=f5 v=64
35246 Off ch=1 n=g#4 v=64
35276 On ch=1 n=g4 v=57
35296 Off ch=1 n=g#5 v=64
35318 On ch=1 n=e5 v=54
35422 On ch=1 n=f5 v=50
35456 Off ch=1 n=e5 v=64
35546 On ch=1 n=g#5 v=73
35550 On ch=1 n=g#4 v=61
35554 Off ch=1 n=g4 v=64
35580 Off ch=1 n=f5 v=64
35642 Off ch=1 n=g5 v=64
35676 On ch=1 n=e5 v=54
35736 Par ch=1 c=64 v=0
35786 Off ch=1 n=e5 v=64
35786 On ch=1 n=f5 v=44
35896 On ch=1 n=a5 v=70
35904 Par ch=1 c=64 v=127
35920 Off ch=1 n=f5 v=64
35958 Off ch=1 n=g#4 v=64
35968 Off ch=1 n=g#5 v=64
36000 On ch=1 n=e5 v=56
36050 On ch=1 n=a4 v=51
36084 Off ch=1 n=c#4 v=64
36110 Off ch=1 n=e5 v=64
36130 On ch=1 n=f5 v=41
36170 Off ch=1 n=a5 v=64
36294 On ch=1 n=a#5 v=51
36316 On ch=1 n=a#4 v=32
36350 On ch=1 n=d4 v=31
36353 Off ch=1 n=f5 v=64
36396 Par ch=1 c=64 v=0
36436 Off ch=1 n=a4 v=64
36466 On ch=1 n=e5 v=43
36580 Off ch=1 n=e5 v=64
36608 On ch=1 n=f5 v=24
36694 On ch=1 n=g#5 v=56
36696 Off ch=1 n=f5 v=64
36780 Par ch=1 c=64 v=127
36782 Off ch=1 n=a#5 v=64
36812 On ch=1 n=e5 v=35
36850 On ch=1 n=g#4 v=39
36870 Off ch=1 n=d4 v=64
36880 Off ch=1 n=a#4 v=64
36928 Off ch=1 n=e5 v=64
36942 On ch=1 n=f5 v=30
37088 Par ch=1 c=64 v=0
37104 Off ch=1 n=f5 v=64
37107 On ch=1 n=f#5 v=41
37110 On ch=1 n=f#4 v=28
37116 Off ch=1 n=g#4 v=64
37122 Off ch=1 n=g#5 v=64
37152 On ch=1 n=d#4 v=29
37244 On ch=1 n=d5 v=38
37370 On ch=1 n=d#5 v=40
37374 Off ch=1 n=f#5 v=64
37374 Off ch=1 n=d5 v=64
37426 Par ch=1 c=64 v=127
37464 Off ch=1 n=f#4 v=64
37470 On ch=1 n=f#5 v=29
37486 Off ch=1 n=d#5 v=64
37512 Off ch=1 n=d#4 v=64
37612 On ch=1 n=d5 v=30
37646 Off ch=1 n=f#5 v=64
37684 Off ch=1 n=d5 v=64
37698 On ch=1 n=d#5 v=46
37776 Off ch=1 n=d#5 v=64
37866 On ch=1 n=a#5 v=38
37880 On ch=1 n=d#3 v=47
37968 On ch=1 n=a#4 v=41
38046 Off ch=1 n=a#5 v=64
38112 On ch=1 n=f#5 v=33
38222 On ch=1 n=g#5 v=37
38228 Off ch=1 n=a#4 v=64
38302 Off ch=1 n=f#5 v=64
38322 On ch=1 n=f3 v=56
38330 Off ch=1 n=d#3 v=64
38330 On ch=1 n=a#5 v=42
38370 Off ch=1 n=g#5 v=64
38404 Off ch=1 n=a#5 v=64
38410 On ch=1 n=a#4 v=49
38488 Off ch=1 n=a#4 v=64
38534 On ch=1 n=a#5 v=50
38552 On ch=1 n=f#3 v=64
38580 Off ch=1 n=f3 v=64
38624 On ch=1 n=a#4 v=60
38666 Off ch=1 n=a#5 v=64
38686 Par ch=1 c=64 v=0
38762 On ch=1 n=f#5 v=42
38852 On ch=1 n=g#5 v=48
38870 Par ch=1 c=64 v=127
38916 Off ch=1 n=a#4 v=64
38940 On ch=1 n=a#5 v=59
38944 On ch=1 n=g#3 v=77
39000 Off ch=1 n=f#5 v=64
39014 Off ch=1 n=g#5 v=64
39042 Off ch=1 n=f#3 v=64
39045 On ch=1 n=c5 v=76
39084 Off ch=1 n=a#5 v=64
39160 Off ch=1 n=c5 v=64
39160 On ch=1 n=a#5 v=50
39194 On ch=1 n=a#3 v=66
39246 Off ch=1 n=g#3 v=64
39270 Par ch=1 c=64 v=0
39274 On ch=1 n=d5 v=76
39382 Off ch=1 n=a#5 v=64
39388 On ch=1 n=f#5 v=54
39480 On ch=1 n=g#5 v=64
39516 Par ch=1 c=64 v=127
39526 Off ch=1 n=d5 v=64
39582 On ch=1 n=a#5 v=60
39590 Off ch=1 n=a#3 v=64
39594 On ch=1 n=c4 v=54
39606 Off ch=1 n=f#5 v=64
39636 Off ch=1 n=g#5 v=64
39658 On ch=1 n=d#5 v=78
39714 Off ch=1 n=a#5 v=64
39782 Off ch=1 n=d#5 v=64
39786 On ch=1 n=a#5 v=50
39832 On ch=1 n=c#4 v=60
39834 Off ch=1 n=c4 v=64
39884 Par ch=1 c=64 v=0
39938 On ch=1 n=e5 v=64
40054 On ch=1 n=g5 v=56
40074 Off ch=1 n=a#5 v=64
40084 Par ch=1 c=64 v=127
40164 On ch=1 n=g#5 v=57
40214 Off ch=1 n=e5 v=64
40230 Off ch=1 n=c#4 v=64
40246 Off ch=1 n=g5 v=64
40288 On ch=1 n=a#5 v=52
40300 On ch=1 n=d4 v=47
40326 Off ch=1 n=g#5 v=64
40382 On ch=1 n=f5 v=62
40408 Off ch=1 n=a#5 v=64
40500 Par ch=1 c=64 v=0
40536 On ch=1 n=a#4 v=56
40536 On ch=1 n=d#4 v=51
40544 On ch=1 n=a#5 v=75
40550 Off ch=1 n=f5 v=64
40553 Off ch=1 n=d4 v=64
40704 On ch=1 n=f5 v=55
40812 On ch=1 n=f#5 v=50
40842 Off ch=1 n=f5 v=64
40884 Par ch=1 c=64 v=127
40918 On ch=1 n=a5 v=80
40970 Off ch=1 n=f#5 v=64
40990 Off ch=1 n=a#4 v=64
41008 On ch=1 n=a4 v=69
41011 Off ch=1 n=a#5 v=64
41046 On ch=1 n=f5 v=59
41142 On ch=1 n=f#5 v=59
41178 Off ch=1 n=f5 v=64
41260 On ch=1 n=a#5 v=79
41276 On ch=1 n=a#4 v=57
41286 Off ch=1 n=f#5 v=64
41298 Off ch=1 n=a4 v=64
41344 Par ch=1 c=64 v=0
41354 Off ch=1 n=a5 v=64
41390 On ch=1 n=f5 v=68
41508 On ch=1 n=f#5 v=63
41534 Off ch=1 n=a#5 v=64
41544 Par ch=1 c=64 v=127
41550 Off ch=1 n=f5 v=64
41582 Off ch=1 n=a#4 v=64
41610 On ch=1 n=a#5 v=70
41650 Off ch=1 n=f#5 v=64
41734 On ch=1 n=a#4 v=68
41764 On ch=1 n=f5 v=48
41832 Off ch=1 n=d#4 v=64
41872 On ch=1 n=f#5 v=43
41908 Off ch=1 n=f5 v=64
42002 Off ch=1 n=f#5 v=64
42072 On ch=1 n=d#6 v=69
42118 On ch=1 n=d#5 v=50
42158 Par ch=1 c=64 v=0
42172 On ch=1 n=d#4 v=20
42186 Off ch=1 n=a#4 v=64
42206 Off ch=1 n=a#5 v=64
42292 On ch=1 n=f5 v=29
42450 Off ch=1 n=f5 v=64
42452 On ch=1 n=f#5 v=34
42496 Par ch=1 c=64 v=127
42524 Off ch=1 n=f#5 v=64
42612 On ch=1 n=c#6 v=58
42676 Off ch=1 n=d#5 v=64
42682 Off ch=1 n=d#6 v=64
42802 On ch=1 n=f5 v=22
42810 On ch=1 n=c#5 v=32
42896 Par ch=1 c=64 v=0
42922 Off ch=1 n=f5 v=64
42958 On ch=1 n=f#5 v=23
43018 Off ch=1 n=c#6 v=64
43018 Par ch=1 c=64 v=127
43070 Off ch=1 n=c#5 v=64
43130 On ch=1 n=c6 v=40
43164 Off ch=1 n=f#5 v=64
43167 On ch=1 n=c5 v=26
43176 On ch=1 n=g#4 v=23
43216 Par ch=1 c=64 v=0
43294 On ch=1 n=f5 v=30
43308 Off ch=1 n=d#4 v=64
43456 On ch=1 n=f#5 v=28
43460 Off ch=1 n=f5 v=64
43480 Par ch=1 c=64 v=127
43492 Off ch=1 n=c6 v=64
43578 On ch=1 n=c6 v=41
43592 Off ch=1 n=f#5 v=64
43702 Off ch=1 n=c5 v=64
43770 On ch=1 n=f5 v=33
43778 Off ch=1 n=g#4 v=64
43856 Off ch=1 n=f5 v=64
43956 On ch=1 n=f#5 v=38
44012 Off ch=1 n=f#5 v=64
44044 Off ch=1 n=c6 v=64
44212 On ch=1 n=f6 v=68
44230 On ch=1 n=c#3 v=35
44264 Par ch=1 c=64 v=0
44378 On ch=1 n=f5 v=35
44392 Off ch=1 n=c#3 v=64
44402 Par ch=1 c=64 v=127
44510 On ch=1 n=g#4 v=52
44512 Off ch=1 n=f5 v=64
44515 Off ch=1 n=f6 v=64
44522 On ch=1 n=c#6 v=38
44648 On ch=1 n=d#6 v=47
44660 Off ch=1 n=g#4 v=64
44726 Off ch=1 n=c#6 v=64
44754 On ch=1 n=g#3 v=54
44762 On ch=1 n=f6 v=72
44812 Off ch=1 n=g#3 v=64
44818 Off ch=1 n=d#6 v=64
44856 On ch=1 n=f5 v=57
44908 Off ch=1 n=f5 v=64
44956 Par ch=1 c=64 v=0
44984 On ch=1 n=c#3 v=70
44998 On ch=1 n=f#6 v=81
45022 Off ch=1 n=f6 v=64
45098 Off ch=1 n=c#3 v=64
45100 On ch=1 n=f#5 v=60
45108 Par ch=1 c=64 v=127
45200 On ch=1 n=a4 v=67
45218 On ch=1 n=c#6 v=48
45242 Off ch=1 n=f#5 v=64
45292 Off ch=1 n=f#6 v=64
45308 On ch=1 n=d#6 v=60
45330 Off ch=1 n=a4 v=64
45402 Off ch=1 n=c#6 v=64
45402 On ch=1 n=a3 v=59
45405 On ch=1 n=f#6 v=71
45466 Off ch=1 n=a3 v=64
45502 On ch=1 n=f#5 v=53
45514 Off ch=1 n=d#6 v=64
45560 Off ch=1 n=f#5 v=64
45584 Par ch=1 c=64 v=0
45616 On ch=1 n=c#3 v=81
45628 On ch=1 n=g6 v=94
45660 Off ch=1 n=f#6 v=64
45704 Off ch=1 n=c#3 v=64
45738 Par ch=1 c=64 v=127
45742 On ch=1 n=g5 v=69
45840 On ch=1 n=a#4 v=66
45854 Off ch=1 n=g6 v=64
45857 On ch=1 n=c#6 v=63
45896 Off ch=1 n=g5 v=64
45960 Off ch=1 n=a#4 v=64
45966 On ch=1 n=d#6 v=68
46000 Off ch=1 n=c#6 v=64
46046 On ch=1 n=a#3 v=63
46074 On ch=1 n=g6 v=89
46098 Off ch=1 n=a#3 v=64
46146 Off ch=1 n=d#6 v=64
46188 On ch=1 n=g5 v=56
46240 Off ch=1 n=g5 v=64
46268 Off ch=1 n=g6 v=64
46374 On ch=1 n=a#6 v=86
46374 On ch=1 n=c3 v=76
46384 Par ch=1 c=64 v=0
46516 Off ch=1 n=c3 v=64
46516 On ch=1 n=a#5 v=46
46554 Par ch=1 c=64 v=127
46638 On ch=1 n=g#4 v=71
46666 On ch=1 n=d#6 v=50
46684 Off ch=1 n=a#5 v=64
46756 On ch=1 n=f#6 v=65
46778 Off ch=1 n=g#4 v=64
46788 Off ch=1 n=a#6 v=64
46826 Off ch=1 n=d#6 v=64
46856 On ch=1 n=g#3 v=67
46864 On ch=1 n=g#6 v=77
46920 Off ch=1 n=g#3 v=64
46946 Off ch=1 n=f#6 v=64
46958 On ch=1 n=g#5 v=59
46974 Off ch=1 n=g#6 v=64
46998 Off ch=1 n=g#5 v=64
47014 Par ch=1 c=64 v=0
47060 On ch=1 n=c#3 v=83
47065 On ch=1 n=f6 v=92
47148 Off ch=1 n=c#3 v=64
47164 On ch=1 n=f5 v=62
47166 Par ch=1 c=64 v=127
47268 On ch=1 n=g#4 v=76
47274 On ch=1 n=c#6 v=62
47282 Off ch=1 n=f6 v=64
47302 Off ch=1 n=f5 v=64
47400 On ch=1 n=d#6 v=57
47432 Off ch=1 n=c#6 v=64
47470 On ch=1 n=f6 v=73
47473 Off ch=1 n=g#4 v=64
47480 On ch=1 n=g#3 v=77
47538 Off ch=1 n=d#6 v=64
47560 Off ch=1 n=g#3 v=64
47566 On ch=1 n=f5 v=85
47626 Off ch=1 n=f6 v=64
47630 Off ch=1 n=f5 v=64
47644 Par ch=1 c=64 v=0
47670 On ch=1 n=f#6 v=91
47676 On ch=1 n=c#3 v=90
47732 Off ch=1 n=c#3 v=64
47776 On ch=1 n=f#5 v=76
47796 Par ch=1 c=64 v=127
47876 On ch=1 n=a4 v=76
47878 On ch=1 n=c#6 v=61
47924 Off ch=1 n=f#5 v=64
47952 Off ch=1 n=f#6 v=64
47974 On ch=1 n=d#6 v=69
47996 Off ch=1 n=a4 v=64
48056 Off ch=1 n=c#6 v=64
48086 On ch=1 n=f#6 v=86
48090 On ch=1 n=a3 v=69
48142 Off ch=1 n=a3 v=64
48175 On ch=1 n=f#5 v=79
48179 Off ch=1 n=d#6 v=64
48272 Off ch=1 n=f#6 v=64
48290 Par ch=1 c=64 v=0
48293 Off ch=1 n=f#5 v=64
48304 On ch=1 n=g6 v=99
48312 On ch=1 n=c#3 v=86
48362 Off ch=1 n=c#3 v=64
48410 On ch=1 n=g5 v=85
48428 Par ch=1 c=64 v=127
48510 Off ch=1 n=g6 v=64
48516 On ch=1 n=c#6 v=68
48518 On ch=1 n=a#4 v=75
48582 Off ch=1 n=g5 v=64
48622 On ch=1 n=d#6 v=70
48644 Off ch=1 n=a#4 v=64
48678 Off ch=1 n=c#6 v=64
48716 On ch=1 n=a#3 v=64
48726 On ch=1 n=g6 v=91
48780 Off ch=1 n=d#6 v=64
48818 On ch=1 n=g5 v=63
48828 Off ch=1 n=a#3 v=64
48852 Off ch=1 n=g6 v=64
48870 Off ch=1 n=g5 v=64
48950 Par ch=1 c=64 v=0
48978 On ch=1 n=a#6 v=89
48980 On ch=1 n=c3 v=84
49048 Off ch=1 n=c3 v=64
49088 On ch=1 n=a#5 v=60
49102 Par ch=1 c=64 v=127
49228 On ch=1 n=g#4 v=62
49244 On ch=1 n=d#6 v=53
49296 Off ch=1 n=a#5 v=64
49386 On ch=1 n=f#6 v=47
49396 Off ch=1 n=a#6 v=64
49430 Off ch=1 n=d#6 v=64
49480 Off ch=1 n=g#4 v=64
49528 On ch=1 n=g#6 v=74
49540 On ch=1 n=g#3 v=60
49652 On ch=1 n=g#5 v=51
49660 Off ch=1 n=f#6 v=64
49666 Off ch=1 n=g#6 v=64
49696 Off ch=1 n=g#3 v=64
49714 Off ch=1 n=g#5 v=64
49792 On ch=1 n=f6 v=87
49820 On ch=1 n=c#3 v=79
49826 Par ch=1 c=64 v=0
49914 On ch=1 n=f5 v=55
50010 Par ch=1 c=64 v=127
50024 On ch=1 n=c#6 v=55
50032 On ch=1 n=g#3 v=82
50046 Off ch=1 n=f5 v=64
50052 Off ch=1 n=f6 v=64
50126 On ch=1 n=d#6 v=67
50176 Off ch=1 n=c#3 v=64
50222 Off ch=1 n=c#6 v=64
50228 On ch=1 n=f6 v=84
50228 On ch=1 n=c#4 v=89
50260 Off ch=1 n=g#3 v=64
50276 Off ch=1 n=d#6 v=64
50322 On ch=1 n=f5 v=54
50338 Off ch=1 n=f6 v=64
50338 Off ch=1 n=c#4 v=64
50378 Off ch=1 n=f5 v=64
50450 On ch=1 n=f6 v=68
50458 On ch=1 n=c#4 v=86
50484 On ch=1 n=d#3 v=60
50487 Par ch=1 c=64 v=0
50554 On ch=1 n=f#5 v=56
50682 On ch=1 n=c6 v=54
50716 Par ch=1 c=64 v=127
50752 Off ch=1 n=f#5 v=64
50804 On ch=1 n=c#6 v=57
50848 Off ch=1 n=f6 v=64
50860 Off ch=1 n=c6 v=64
50868 Off ch=1 n=c#4 v=64
50918 On ch=1 n=d#6 v=72
50922 On ch=1 n=c4 v=72
50986 Off ch=1 n=c#6 v=64
51010 On ch=1 n=f#5 v=61
51042 Off ch=1 n=d#6 v=64
51080 Off ch=1 n=f#5 v=64
51083 Off ch=1 n=d#3 v=64
51128 On ch=1 n=a#3 v=68
51130 On ch=1 n=c#6 v=73
51146 Off ch=1 n=c4 v=64
51148 On ch=1 n=f3 v=62
51176 Par ch=1 c=64 v=0
51248 On ch=1 n=d#5 v=68
51362 On ch=1 n=a5 v=53
51396 Off ch=1 n=d#5 v=64
51408 Par ch=1 c=64 v=127
51466 On ch=1 n=a#5 v=54
51512 Off ch=1 n=c#6 v=64
51524 Off ch=1 n=a#3 v=64
51532 Off ch=1 n=a5 v=64
51538 On ch=1 n=a3 v=66
51564 On ch=1 n=c6 v=71
51622 Off ch=1 n=a#5 v=64
51626 Off ch=1 n=f3 v=64
51646 Off ch=1 n=a3 v=64
51664 On ch=1 n=d#5 v=47
51702 Off ch=1 n=c6 v=64
51776 Off ch=1 n=d#5 v=64
51786 On ch=1 n=a#3 v=62
51792 Par ch=1 c=64 v=0
51792 On ch=1 n=c#6 v=58
51802 On ch=1 n=a#2 v=48
51894 On ch=1 n=c#5 v=53
52010 On ch=1 n=a#5 v=43
52100 Off ch=1 n=c#6 v=64
52100 Par ch=1 c=64 v=127
52148 Off ch=1 n=a#2 v=64
52148 On ch=1 n=c6 v=35
52158 Off ch=1 n=c#5 v=64
52234 Off ch=1 n=a#5 v=64
52254 On ch=1 n=c#6 v=59
52257 Off ch=1 n=a#3 v=64
52298 Off ch=1 n=c6 v=64
52336 Off ch=1 n=c#6 v=64
52339 On ch=1 n=c#5 v=53
52420 Off ch=1 n=c#5 v=64
52468 On ch=1 n=a#2 v=70
52468 On ch=1 n=a#3 v=57
52472 On ch=1 n=c#6 v=75
52514 Par ch=1 c=64 v=0
52558 On ch=1 n=c#5 v=55
52678 On ch=1 n=a#5 v=50
52746 Off ch=1 n=c#6 v=64
52774 Par ch=1 c=64 v=127
52779 Off ch=1 n=c#5 v=64
52782 On ch=1 n=c6 v=52
52794 Off ch=1 n=a#3 v=64
52890 On ch=1 n=c#6 v=66
52904 On ch=1 n=c#3 v=65
52926 Off ch=1 n=a#5 v=64
52938 Off ch=1 n=c6 v=64
52992 Off ch=1 n=a#2 v=64
52996 On ch=1 n=c#5 v=52
53034 Off ch=1 n=c#6 v=64
53056 Off ch=1 n=c#5 v=64
53128 Par ch=1 c=64 v=0
53134 Off ch=1 n=c#3 v=64
53138 On ch=1 n=c6 v=56
53148 On ch=1 n=g#3 v=56
53160 On ch=1 n=f3 v=59
53248 On ch=1 n=c5 v=41
53284 Off ch=1 n=c6 v=64
53334 Off ch=1 n=g#3 v=64
53344 Par ch=1 c=64 v=127
53350 Off ch=1 n=f3 v=64
53350 On ch=1 n=g#5 v=33
53440 Off ch=1 n=c5 v=64
53460 On ch=1 n=a#5 v=39
53502 Off ch=1 n=g#5 v=64
53538 On ch=1 n=f2 v=57
53566 On ch=1 n=c6 v=50
53598 Off ch=1 n=f2 v=64
53636 Off ch=1 n=c6 v=64
53650 Off ch=1 n=a#5 v=64
53664 On ch=1 n=c5 v=37
53732 Off ch=1 n=c5 v=64
53796 On ch=1 n=a#5 v=53
53818 On ch=1 n=f#3 v=30
53820 Par ch=1 c=64 v=0
53822 On ch=1 n=f#2 v=38
53890 On ch=1 n=a#4 v=46
54034 On ch=1 n=f#5 v=31
54039 Off ch=1 n=a#5 v=64
54142 Off ch=1 n=a#4 v=64
54142 Par ch=1 c=64 v=127
54156 On ch=1 n=g#5 v=38
54208 Off ch=1 n=f#2 v=64
54242 Off ch=1 n=f#5 v=64
54242 On ch=1 n=a#2 v=31
54254 On ch=1 n=a#5 v=50
54272 Off ch=1 n=f#3 v=64
54314 Off ch=1 n=g#5 v=64
54322 Off ch=1 n=a#2 v=64
54352 Off ch=1 n=a#5 v=64
54370 On ch=1 n=a#4 v=28
54434 Par ch=1 c=64 v=0
54466 Off ch=1 n=a#4 v=64
54478 On ch=1 n=c#3 v=32
54500 On ch=1 n=f3 v=53
54528 On ch=1 n=g#5 v=33
54550 Off ch=1 n=f3 v=64
54586 Off ch=1 n=c#3 v=64
54620 Par ch=1 c=64 v=127
54634 On ch=1 n=g#4 v=29
54716 Off ch=1 n=g#4 v=64
54764 Off ch=1 n=g#5 v=64
54816 On ch=1 n=f5 v=24
54980 Off ch=1 n=f5 v=64
54984 On ch=1 n=f#5 v=35
55132 Off ch=1 n=f#5 v=64
55150 On ch=1 n=g#5 v=34
55356 On ch=1 n=g#4 v=32
55480 Off ch=1 n=g#4 v=64
55506 Off ch=1 n=g#5 v=64
55772 On ch=1 n=c2 v=111
55774 On ch=1 n=c3 v=116
55818 Par ch=1 c=64 v=0
55866 Off ch=1 n=c2 v=64
55906 Off ch=1 n=c3 v=64
55924 Par ch=1 c=64 v=127
56126 On ch=1 n=a#4 v=95
56131 On ch=1 n=c#6 v=68
56142 On ch=1 n=a#5 v=53
56204 Off ch=1 n=a#5 v=64
56260 Off ch=1 n=a#4 v=64
56272 Off ch=1 n=c#6 v=64
56358 On ch=1 n=c#6 v=64
56366 On ch=1 n=c5 v=96
56370 On ch=1 n=a#5 v=74
56486 Off ch=1 n=c#6 v=64
56488 Off ch=1 n=a#5 v=64
56506 Off ch=1 n=c5 v=64
56600 On ch=1 n=c#6 v=80
56602 On ch=1 n=a#5 v=82
56610 On ch=1 n=c#5 v=113
56782 Off ch=1 n=c#6 v=64
56790 Off ch=1 n=a#5 v=64
56810 Off ch=1 n=c#5 v=64
56880 On ch=1 n=a#5 v=59
56888 On ch=1 n=c#6 v=50
56888 On ch=1 n=c5 v=95
56932 Off ch=1 n=a#5 v=64
56936 Off ch=1 n=c#6 v=64
56994 On ch=1 n=a#5 v=70
56994 On ch=1 n=a#4 v=87
56994 On ch=1 n=c#6 v=68
57042 Off ch=1 n=c5 v=64
57110 Off ch=1 n=a#4 v=64
57132 Off ch=1 n=c#6 v=64
57135 Off ch=1 n=a#5 v=64
57204 On ch=1 n=a#5 v=64
57207 On ch=1 n=c#6 v=58
57220 On ch=1 n=a#4 v=83
57302 Off ch=1 n=a#4 v=64
57348 Off ch=1 n=a#5 v=64
57360 Off ch=1 n=c#6 v=64
57406 On ch=1 n=a#5 v=69
57412 On ch=1 n=g5 v=87
57414 On ch=1 n=c#6 v=83
57518 Off ch=1 n=c#6 v=64
57522 Off ch=1 n=g5 v=64
57544 Off ch=1 n=a#5 v=64
57606 On ch=1 n=a#5 v=76
57606 On ch=1 n=c#6 v=75
57612 On ch=1 n=f5 v=100
57716 Off ch=1 n=c#6 v=64
57719 Off ch=1 n=f5 v=64
57752 Off ch=1 n=a#5 v=64
57816 On ch=1 n=a#5 v=77
57819 On ch=1 n=f5 v=85
57819 On ch=1 n=c#6 v=88
58006 On ch=1 n=c3 v=107
58112 Off ch=1 n=a#5 v=64
58160 Off ch=1 n=c#6 v=64
58208 On ch=1 n=c4 v=100
58214 On ch=1 n=a#5 v=50
58214 On ch=1 n=c6 v=87
58217 On ch=1 n=e5 v=91
58234 Off ch=1 n=c3 v=64
58258 Off ch=1 n=f5 v=64
58306 Off ch=1 n=c4 v=64
58402 Off ch=1 n=a#5 v=64
58424 Off ch=1 n=e5 v=64
58434 On ch=1 n=c5 v=106
58476 Off ch=1 n=c6 v=64
58522 Off ch=1 n=c5 v=64
58584 Par ch=1 c=64 v=0
58646 On ch=1 n=c#6 v=86
58646 On ch=1 n=a#4 v=99
58652 On ch=1 n=a#5 v=78
58766 Off ch=1 n=a#4 v=64
58769 Off ch=1 n=a#5 v=64
58778 Off ch=1 n=c#6 v=64
58798 Par ch=1 c=64 v=127
58850 On ch=1 n=c5 v=105
58853 On ch=1 n=c#6 v=72
58860 On ch=1 n=a#5 v=65
58926 Off ch=1 n=c5 v=64
59048 Off ch=1 n=c#6 v=64
59050 Off ch=1 n=a#5 v=64
59214 On ch=1 n=c#6 v=92
59214 On ch=1 n=c#5 v=103
59218 On ch=1 n=a#5 v=80
59228 On ch=1 n=c3 v=100
59234 On ch=1 n=c2 v=95
59265 Off ch=1 n=c2 v=64
59272 Off ch=1 n=c3 v=64
59458 Off ch=1 n=c#6 v=64
59478 Off ch=1 n=a#5 v=64
59488 Off ch=1 n=c#5 v=64
59568 On ch=1 n=a#5 v=50
59571 On ch=1 n=c#6 v=58
59574 On ch=1 n=c5 v=92
59626 Off ch=1 n=a#5 v=64
59626 Off ch=1 n=c#6 v=64
59676 Off ch=1 n=c5 v=64
59682 On ch=1 n=a#5 v=72
59682 On ch=1 n=c#6 v=79
59682 On ch=1 n=a#4 v=86
59802 Off ch=1 n=a#4 v=64
59818 Off ch=1 n=c#6 v=64
59830 Off ch=1 n=a#5 v=64
59880 On ch=1 n=c#6 v=76
59884 On ch=1 n=a#5 v=76
59892 On ch=1 n=a#4 v=83
60022 Off ch=1 n=a#4 v=64
60024 Off ch=1 n=c#6 v=64
60024 Off ch=1 n=a#5 v=64
60082 On ch=1 n=c#6 v=76
60086 On ch=1 n=a#5 v=70
60086 On ch=1 n=g5 v=90
60202 Off ch=1 n=c#6 v=64
60204 Off ch=1 n=a#5 v=64
60214 Off ch=1 n=g5 v=64
60282 On ch=1 n=c#6 v=69
60285 On ch=1 n=a#5 v=68
60290 On ch=1 n=f5 v=93
60400 Off ch=1 n=f5 v=64
60412 Off ch=1 n=c#6 v=64
60428 Off ch=1 n=a#5 v=64
60488 On ch=1 n=f5 v=80
60488 On ch=1 n=c#6 v=76
60490 On ch=1 n=a#5 v=70
60688 Par ch=1 c=64 v=0
60704 On ch=1 n=c3 v=107
60820 Off ch=1 n=a#5 v=64
60836 Off ch=1 n=c#6 v=64
60894 On ch=1 n=c4 v=83
60902 Par ch=1 c=64 v=127
60904 Off ch=1 n=f5 v=64
60907 On ch=1 n=c6 v=89
60907 On ch=1 n=a#5 v=52
60907 On ch=1 n=e5 v=94
60916 Off ch=1 n=c3 v=64
60990 Off ch=1 n=c4 v=64
61006 Off ch=1 n=a#5 v=64
61018 Off ch=1 n=e5 v=64
61030 Off ch=1 n=c6 v=64
61110 On ch=1 n=c5 v=96
61144 Off ch=1 n=c5 v=64
61242 Par ch=1 c=64 v=0
61316 On ch=1 n=f#6 v=89
61318 On ch=1 n=d#6 v=89
61318 On ch=1 n=d#5 v=106
61398 Off ch=1 n=d#5 v=64
61444 Off ch=1 n=f#6 v=64
61452 Off ch=1 n=d#6 v=64
61472 Par ch=1 c=64 v=127
61520 On ch=1 n=f#6 v=79
61522 On ch=1 n=f5 v=95
61524 On ch=1 n=d#6 v=77
61552 Off ch=1 n=f5 v=64
61684 Off ch=1 n=d#6 v=64
61730 Off ch=1 n=f#6 v=64
61858 On ch=1 n=f3 v=113
61858 On ch=1 n=f#5 v=96
61860 On ch=1 n=d#6 v=92
61862 On ch=1 n=f#6 v=100
61866 On ch=1 n=f2 v=102
61894 Off ch=1 n=f2 v=64
61924 Off ch=1 n=f3 v=64
62030 Off ch=1 n=f#5 v=64
62030 Off ch=1 n=f#6 v=64
62074 Off ch=1 n=d#6 v=64
62174 On ch=1 n=f#6 v=77
62182 On ch=1 n=d#6 v=60
62192 On ch=1 n=f5 v=73
62214 On ch=1 n=g5 v=29
62222 Off ch=1 n=d#6 v=64
62232 Off ch=1 n=f5 v=64
62240 Off ch=1 n=f#6 v=64
62282 Off ch=1 n=g5 v=64
62290 On ch=1 n=d#5 v=93
62290 On ch=1 n=f#6 v=95
62290 On ch=1 n=d#6 v=69
62398 Off ch=1 n=d#5 v=64
62414 Off ch=1 n=f#6 v=64
62426 Off ch=1 n=d#6 v=64
62494 On ch=1 n=d#5 v=82
62500 On ch=1 n=f#6 v=64
62504 On ch=1 n=d#6 v=67
62580 Off ch=1 n=d#5 v=64
62622 Off ch=1 n=d#6 v=64
62628 Off ch=1 n=f#6 v=64
62702 On ch=1 n=f#6 v=68
62708 On ch=1 n=d#4 v=100
62710 On ch=1 n=d#6 v=61
62714 On ch=1 n=c6 v=76
62716 On ch=1 n=c5 v=92
62746 Off ch=1 n=d#4 v=64
62754 Off ch=1 n=c5 v=64
62822 Off ch=1 n=d#6 v=64
62827 Off ch=1 n=f#6 v=64
62842 Off ch=1 n=c6 v=64
62890 On ch=1 n=d#6 v=70
62890 On ch=1 n=f#6 v=72
62893 On ch=1 n=a#5 v=79
62902 On ch=1 n=c5 v=98
62906 On ch=1 n=f4 v=110
62966 Off ch=1 n=f4 v=64
62982 Off ch=1 n=c5 v=64
62988 Off ch=1 n=a#5 v=64
63000 Off ch=1 n=d#6 v=64
63008 Off ch=1 n=f#6 v=64
63132 On ch=1 n=a#5 v=82
63140 On ch=1 n=d#6 v=81
63146 On ch=1 n=f#6 v=85
63168 On ch=1 n=f#4 v=108
63171 On ch=1 n=c5 v=97
63178 Par ch=1 c=64 v=0
63308 Off ch=1 n=d#6 v=64
63316 Off ch=1 n=f#6 v=64
63346 Par ch=1 c=64 v=127
63348 Off ch=1 n=a#5 v=64
63354 Off ch=1 n=c5 v=64
63408 Off ch=1 n=f#4 v=64
63416 On ch=1 n=f#6 v=58
63416 On ch=1 n=d#6 v=62
63424 On ch=1 n=a5 v=74
63492 On ch=1 n=c5 v=56
63504 On ch=1 n=f4 v=58
63548 Off ch=1 n=c5 v=64
63558 Off ch=1 n=f4 v=64
63598 On ch=1 n=c5 v=102
63600 On ch=1 n=d#4 v=85
63694 Off ch=1 n=c5 v=64
63718 Off ch=1 n=d#4 v=64
63792 Par ch=1 c=64 v=0
63810 On ch=1 n=d#4 v=88
63810 On ch=1 n=c5 v=96
63884 Off ch=1 n=f#6 v=64
63892 Off ch=1 n=c5 v=64
63900 Off ch=1 n=d#6 v=64
63916 Off ch=1 n=d#4 v=64
63930 Par ch=1 c=64 v=127
63950 Off ch=1 n=a5 v=64
63988 On ch=1 n=d#6 v=72
63988 On ch=1 n=f#6 v=77
64010 On ch=1 n=d#5 v=94
64098 Off ch=1 n=d#5 v=64
64110 Off ch=1 n=f#6 v=64
64113 Off ch=1 n=d#6 v=64
64178 On ch=1 n=f#6 v=75
64181 On ch=1 n=d#6 v=76
64184 On ch=1 n=f5 v=88
64212 Off ch=1 n=f5 v=64
64342 Off ch=1 n=f#6 v=64
64356 Off ch=1 n=d#6 v=64
64438 Par ch=1 c=64 v=0
64466 On ch=1 n=f#5 v=100
64468 On ch=1 n=d#6 v=86
64470 On ch=1 n=f#6 v=97
64474 On ch=1 n=f2 v=100
64476 On ch=1 n=f3 v=106
64504 Off ch=1 n=f2 v=64
64510 Off ch=1 n=f3 v=64
64576 Par ch=1 c=64 v=127
64650 Off ch=1 n=f#6 v=64
64664 Off ch=1 n=f#5 v=64
64672 Off ch=1 n=d#6 v=64
64748 On ch=1 n=d#6 v=62
64756 On ch=1 n=f#6 v=60
64756 On ch=1 n=f5 v=82
64794 Off ch=1 n=f5 v=64
64797 Off ch=1 n=f#6 v=64
64804 Off ch=1 n=d#6 v=64
64850 On ch=1 n=f#6 v=79
64852 On ch=1 n=d#5 v=98
64858 On ch=1 n=d#6 v=88
64956 Off ch=1 n=d#5 v=64
64966 Off ch=1 n=f#6 v=64
64996 Off ch=1 n=d#6 v=64
65038 On ch=1 n=d#5 v=89
65046 On ch=1 n=f#6 v=68
65052 On ch=1 n=d#6 v=84
65118 Off ch=1 n=d#5 v=64
65154 Off ch=1 n=d#6 v=64
65166 Off ch=1 n=f#6 v=64
65222 On ch=1 n=f#6 v=81
65230 On ch=1 n=d#6 v=72
65236 On ch=1 n=c6 v=87
65236 On ch=1 n=d#4 v=91
65238 On ch=1 n=c5 v=90
65280 Off ch=1 n=c5 v=64
65282 Off ch=1 n=d#4 v=64
65332 Off ch=1 n=d#6 v=64
65340 Off ch=1 n=f#6 v=64
65350 Off ch=1 n=c6 v=64
65406 On ch=1 n=f#6 v=76
65408 On ch=1 n=d#6 v=75
65410 On ch=1 n=a#5 v=90
65420 On ch=1 n=c5 v=85
65420 On ch=1 n=f4 v=103
65462 Off ch=1 n=f4 v=64
65478 Off ch=1 n=c5 v=64
65496 Off ch=1 n=a#5 v=64
65534 Off ch=1 n=f#6 v=64
65534 Off ch=1 n=d#6 v=64
65636 Par ch=1 c=64 v=0
65636 On ch=1 n=a#5 v=95
65644 On ch=1 n=f#6 v=78
65646 On ch=1 n=d#6 v=75
65660 On ch=1 n=f#4 v=102
65663 On ch=1 n=c5 v=91
65790 Par ch=1 c=64 v=127
65796 Off ch=1 n=c5 v=64
65810 Off ch=1 n=d#6 v=64
65812 Off ch=1 n=f#6 v=64
65842 Off ch=1 n=f#4 v=64
65846 Off ch=1 n=a#5 v=64
65890 On ch=1 n=f#6 v=69
65890 On ch=1 n=d#6 v=68
65900 On ch=1 n=a5 v=87
65952 On ch=1 n=f4 v=108
65955 On ch=1 n=c5 v=87
65994 Off ch=1 n=f4 v=64
65998 Off ch=1 n=c5 v=64
66060 On ch=1 n=c5 v=81
66062 On ch=1 n=d#4 v=92
66152 Off ch=1 n=c5 v=64
66194 Off ch=1 n=d#4 v=64
66278 Off ch=1 n=d#6 v=64
66286 On ch=1 n=d#4 v=82
66288 On ch=1 n=c5 v=87
66326 Off ch=1 n=c5 v=64
66374 Off ch=1 n=d#4 v=64
66388 Off ch=1 n=a5 v=64
66418 Off ch=1 n=f#6 v=64
66450 Par ch=1 c=64 v=0
66474 On ch=1 n=f3 v=96
66516 Off ch=1 n=f3 v=64
66522 On ch=1 n=c4 v=69
66538 On ch=1 n=f6 v=94
66540 On ch=1 n=d#6 v=79
66546 On ch=1 n=f5 v=87
66568 On ch=1 n=a4 v=87
66580 On ch=1 n=g5 v=42
66612 Off ch=1 n=a4 v=64
66618 Par ch=1 c=64 v=127
66626 Off ch=1 n=f5 v=64
66630 Off ch=1 n=f6 v=64
66638 Off ch=1 n=d#6 v=64
66652 Off ch=1 n=g5 v=64
66678 Off ch=1 n=c4 v=64
66746 On ch=1 n=f3 v=74
66758 On ch=1 n=c4 v=50
66766 On ch=1 n=f6 v=107
66772 On ch=1 n=f5 v=102
66786 Off ch=1 n=f3 v=64
66786 On ch=1 n=d#6 v=75
66800 Off ch=1 n=f5 v=64
66822 Off ch=1 n=d#6 v=64
66842 Off ch=1 n=c4 v=64
66844 On ch=1 n=a4 v=85
66878 Off ch=1 n=f6 v=64
66888 Off ch=1 n=a4 v=64
67162 On ch=1 n=a#3 v=59
67168 On ch=1 n=f7 v=102
67168 On ch=1 n=f6 v=105
67204 Par ch=1 c=64 v=0
67434 Par ch=1 c=64 v=127
67478 On ch=1 n=c#5 v=63
67524 Off ch=1 n=f7 v=64
67524 Off ch=1 n=f6 v=64
67560 Off ch=1 n=a#3 v=64
67638 Off ch=1 n=c#5 v=64
67686 On ch=1 n=c#7 v=99
67686 On ch=1 n=c#6 v=96
67700 On ch=1 n=f4 v=55
67776 Off ch=1 n=f4 v=64
67884 On ch=1 n=c#4 v=72
67986 Off ch=1 n=c#6 v=64
68000 Off ch=1 n=c#7 v=64
68072 On ch=1 n=c7 v=105
68074 On ch=1 n=c6 v=91
68100 On ch=1 n=c#5 v=62
68166 Off ch=1 n=c#4 v=64
68180 Off ch=1 n=c6 v=64
68190 Off ch=1 n=c7 v=64
68254 Off ch=1 n=c#5 v=64
68272 On ch=1 n=a#4 v=57
68328 Off ch=1 n=a#4 v=64
68366 On ch=1 n=a#5 v=81
68366 On ch=1 n=a#6 v=76
68402 Off ch=1 n=a#6 v=64
68406 Off ch=1 n=a#5 v=64
68454 On ch=1 n=a#6 v=72
68460 On ch=1 n=b3 v=36
68462 On ch=1 n=a#5 v=74
68464 Par ch=1 c=64 v=0
68690 Off ch=1 n=b3 v=64
68692 Par ch=1 c=64 v=127
68764 On ch=1 n=d5 v=59
68832 Off ch=1 n=a#5 v=64
68868 Off ch=1 n=a#6 v=64
68874 Off ch=1 n=d5 v=64
68930 On ch=1 n=g#6 v=87
68933 On ch=1 n=g#5 v=80
68956 On ch=1 n=g#4 v=54
69036 Off ch=1 n=g#4 v=64
69114 Off ch=1 n=g#6 v=64
69136 On ch=1 n=f4 v=91
69192 Off ch=1 n=g#5 v=64
69280 On ch=1 n=g6 v=100
69282 On ch=1 n=g5 v=88
69332 On ch=1 n=d5 v=58
69388 Off ch=1 n=f4 v=64
69388 Off ch=1 n=g5 v=64
69404 Off ch=1 n=g6 v=64
69500 On ch=1 n=g#4 v=60
69534 Off ch=1 n=d5 v=64
69606 On ch=1 n=f6 v=92
69608 On ch=1 n=f5 v=83
69638 Off ch=1 n=f6 v=64
69641 Off ch=1 n=f5 v=64
69692 Off ch=1 n=g#4 v=64
69756 On ch=1 n=c4 v=58
69758 On ch=1 n=g#6 v=91
69772 On ch=1 n=g#5 v=67
69830 Par ch=1 c=64 v=0
70009 On ch=1 n=c5 v=59
70052 Off ch=1 n=c4 v=64
70138 Par ch=1 c=64 v=127
70158 Off ch=1 n=c5 v=64
70222 On ch=1 n=g#4 v=54
70270 Off ch=1 n=g#4 v=64
70344 Off ch=1 n=g#5 v=64
70368 Off ch=1 n=g#6 v=64
70446 On ch=1 n=g6 v=88
70454 On ch=1 n=g5 v=67
70462 On ch=1 n=c3 v=58
70510 Off ch=1 n=c3 v=64
70688 On ch=1 n=c5 v=61
70870 Off ch=1 n=c5 v=64
70882 On ch=1 n=a#4 v=46
70934 Off ch=1 n=a#4 v=64
70942 Off ch=1 n=g6 v=64
70988 Off ch=1 n=g5 v=64
71098 On ch=1 n=f6 v=71
71104 On ch=1 n=f5 v=52
71106 Par ch=1 c=64 v=0
71125 On ch=1 n=f3 v=58
71228 Off ch=1 n=f3 v=64
71295 On ch=1 n=g#4 v=44
71382 Par ch=1 c=64 v=127
71496 Off ch=1 n=f5 v=64
71503 Off ch=1 n=g#4 v=64
71520 On ch=1 n=c4 v=36
71534 Off ch=1 n=f6 v=64
71590 Off ch=1 n=c4 v=64
71788 On ch=1 n=f3 v=28
71804 On ch=1 n=d#6 v=41
71812 On ch=1 n=d#5 v=33
71812 Par ch=1 c=64 v=0
71956 Off ch=1 n=f3 v=64
71996 Par ch=1 c=64 v=127
72076 On ch=1 n=a4 v=21
72254 Off ch=1 n=a4 v=64
72364 On ch=1 n=c4 v=22
72466 Off ch=1 n=d#5 v=64
72474 Off ch=1 n=c4 v=64
72526 Off ch=1 n=d#6 v=64
72710 On ch=1 n=d6 v=48
72718 Par ch=1 c=64 v=0
72722 On ch=1 n=d5 v=25
72736 On ch=1 n=a#3 v=24
72946 On ch=1 n=a#4 v=27
72950 Par ch=1 c=64 v=127
72970 Off ch=1 n=d5 v=64
73100 Off ch=1 n=a#3 v=64
73126 Off ch=1 n=a#4 v=64
73176 On ch=1 n=f4 v=38
73246 Off ch=1 n=f4 v=64
73344 On ch=1 n=d#5 v=38
73344 On ch=1 n=a5 v=46
73354 On ch=1 n=c4 v=26
73392 Off ch=1 n=d6 v=64
73472 Par ch=1 c=64 v=0
73572 On ch=1 n=c5 v=30
73688 Par ch=1 c=64 v=127
73708 Off ch=1 n=c5 v=64
73774 On ch=1 n=f4 v=43
73846 Off ch=1 n=c4 v=64
73856 Off ch=1 n=f4 v=64
73860 Off ch=1 n=a5 v=64
73926 Off ch=1 n=d#5 v=64
73964 On ch=1 n=a#5 v=55
73994 Par ch=1 c=64 v=0
74000 On ch=1 n=d4 v=33
74024 On ch=1 n=f5 v=7
74134 On ch=1 n=a#4 v=27
74194 Off ch=1 n=f5 v=64
74194 Par ch=1 c=64 v=127
74238 Off ch=1 n=a#5 v=64
74328 Off ch=1 n=a#4 v=64
74360 Off ch=1 n=d4 v=64
74374 On ch=1 n=f4 v=39
74436 Off ch=1 n=f4 v=64
74556 On ch=1 n=f5 v=55
74559 On ch=1 n=d#5 v=26
74566 On ch=1 n=c5 v=27
74576 On ch=1 n=a3 v=36
74716 Par ch=1 c=64 v=0
74744 On ch=1 n=f4 v=54
74873 Off ch=1 n=c5 v=64
74909 Off ch=1 n=f4 v=64
74909 On ch=1 n=c4 v=32
74916 Off ch=1 n=d#5 v=64
74916 Par ch=1 c=64 v=127
75018 Off ch=1 n=a3 v=64
75114 On ch=1 n=a#3 v=35
75127 Off ch=1 n=c4 v=64
75148 On ch=1 n=a#4 v=13
75154 On ch=1 n=d5 v=34
75192 Par ch=1 c=64 v=0
75356 On ch=1 n=f4 v=54
75454 Par ch=1 c=64 v=127
75470 Off ch=1 n=a#4 v=64
75514 Off ch=1 n=f4 v=64
75520 Off ch=1 n=d5 v=64
75554 On ch=1 n=d4 v=44
75618 Off ch=1 n=d4 v=64
75710 Off ch=1 n=a#3 v=64
75736 On ch=1 n=f3 v=49
75760 On ch=1 n=a#4 v=22
75768 On ch=1 n=e5 v=65
75768 On ch=1 n=c#5 v=35
75806 Off ch=1 n=f5 v=64
75808 Par ch=1 c=64 v=0
75974 On ch=1 n=e4 v=29
76040 Off ch=1 n=a#4 v=64
76050 Off ch=1 n=e4 v=64
76084 Par ch=1 c=64 v=127
76122 On ch=1 n=c#4 v=37
76126 Off ch=1 n=c#5 v=64
76178 Off ch=1 n=c#4 v=64
76344 On ch=1 n=f5 v=64
76344 On ch=1 n=a#4 v=29
76358 On ch=1 n=d5 v=37
76404 Off ch=1 n=e5 v=64
76484 Par ch=1 c=64 v=0
76514 On ch=1 n=f4 v=53
76598 Off ch=1 n=f4 v=64
76624 Off ch=1 n=a#4 v=64
76638 Par ch=1 c=64 v=127
76682 Off ch=1 n=d5 v=64
76698 On ch=1 n=d4 v=36
76756 Off ch=1 n=f3 v=64
76764 Off ch=1 n=d4 v=64
76890 On ch=1 n=e3 v=86
76893 On ch=1 n=g5 v=63
76914 On ch=1 n=c#5 v=27
76922 Off ch=1 n=f5 v=64
76922 On ch=1 n=a#4 v=7
76944 Par ch=1 c=64 v=0
77014 Off ch=1 n=c#5 v=64
77102 On ch=1 n=c#4 v=46
77128 Par ch=1 c=64 v=127
77152 Off ch=1 n=g5 v=64
77216 Off ch=1 n=a#4 v=64
77278 On ch=1 n=a#3 v=42
77286 Off ch=1 n=c#4 v=64
77342 Off ch=1 n=a#3 v=64
77464 On ch=1 n=d#3 v=66
77464 On ch=1 n=c5 v=73
77467 Off ch=1 n=e3 v=64
77474 On ch=1 n=a4 v=39
77486 On ch=1 n=f4 v=48
77546 Par ch=1 c=64 v=0
77678 On ch=1 n=c4 v=33
77750 Off ch=1 n=a4 v=64
77788 Off ch=1 n=f4 v=64
77806 Par ch=1 c=64 v=127
77822 Off ch=1 n=c4 v=64
77844 On ch=1 n=a3 v=32
77936 Off ch=1 n=a3 v=64
78024 On ch=1 n=d5 v=78
78036 Off ch=1 n=d#3 v=64
78040 On ch=1 n=d3 v=44
78042 On ch=1 n=b4 v=36
78046 On ch=1 n=g4 v=33
78050 Off ch=1 n=c5 v=64
78050 On ch=1 n=f4 v=44
78190 Par ch=1 c=64 v=0
78208 On ch=1 n=b3 v=40
78386 Off ch=1 n=g4 v=64
78394 Off ch=1 n=b3 v=64
78394 Par ch=1 c=64 v=127
78402 On ch=1 n=g3 v=41
78424 Off ch=1 n=f4 v=64
78448 Off ch=1 n=d5 v=64
78480 Off ch=1 n=g3 v=64
78552 Off ch=1 n=d3 v=64
78568 On ch=1 n=d#5 v=80
78571 On ch=1 n=c3 v=54
78578 On ch=1 n=c5 v=57
78590 Off ch=1 n=b4 v=64
78604 On ch=1 n=g4 v=34
78758 Par ch=1 c=64 v=0
78758 On ch=1 n=g3 v=46
78874 Off ch=1 n=c5 v=64
78920 Off ch=1 n=g4 v=64
78924 On ch=1 n=d#3 v=46
78930 Par ch=1 c=64 v=127
78972 Off ch=1 n=g3 v=64
78974 Off ch=1 n=d#3 v=64
79008 Off ch=1 n=d#5 v=64
79020 Off ch=1 n=c3 v=64
79078 On ch=1 n=e5 v=90
79096 On ch=1 n=a#2 v=66
79100 On ch=1 n=c#5 v=61
79102 On ch=1 n=g4 v=60
79202 Par ch=1 c=64 v=0
79290 On ch=1 n=e3 v=58
79386 Par ch=1 c=64 v=127
79396 Off ch=1 n=g4 v=64
79404 Off ch=1 n=e5 v=64
79422 Off ch=1 n=e3 v=64
79422 On ch=1 n=c#3 v=57
79534 Off ch=1 n=c#3 v=64
79632 On ch=1 n=f5 v=74
79634 On ch=1 n=a2 v=69
79638 Off ch=1 n=a#2 v=64
79638 On ch=1 n=c5 v=62
79642 On ch=1 n=f4 v=88
79678 Off ch=1 n=c#5 v=64
79678 Par ch=1 c=64 v=0
79828 On ch=1 n=f3 v=46
79978 On ch=1 n=c3 v=49
79990 Off ch=1 n=f3 v=64
80048 Par ch=1 c=64 v=127
80050 Off ch=1 n=c3 v=64
80106 Off ch=1 n=a2 v=64
80144 On ch=1 n=f2 v=70
80156 Par ch=1 c=64 v=0
80300 Off ch=1 n=f2 v=64
80324 Par ch=1 c=64 v=127
80360 Off ch=1 n=f4 v=64
80370 On ch=1 n=a3 v=44
80376 Off ch=1 n=c5 v=64
80474 Off ch=1 n=f5 v=64
80476 Off ch=1 n=a3 v=64
80572 On ch=1 n=f3 v=47
80626 Off ch=1 n=f3 v=64
80644 On ch=1 n=d#5 v=75
80662 On ch=1 n=f4 v=67
80676 On ch=1 n=c5 v=40
80730 Off ch=1 n=f4 v=64
80740 Off ch=1 n=c5 v=64
80754 Off ch=1 n=d#5 v=64
80822 On ch=1 n=a#2 v=35
80870 On ch=1 n=d#5 v=55
80896 On ch=1 n=f4 v=50
80908 Par ch=1 c=64 v=0
80940 On ch=1 n=c5 v=20
81098 On ch=1 n=a3 v=38
81254 Off ch=1 n=a3 v=64
81308 Par ch=1 c=64 v=127
81310 On ch=1 n=f3 v=32
81404 Off ch=1 n=f3 v=64
81524 On ch=1 n=a#4 v=29
81536 Off ch=1 n=c5 v=64
81548 On ch=1 n=d5 v=43
81554 Par ch=1 c=64 v=0
81556 Off ch=1 n=d#5 v=64
81718 On ch=1 n=a#3 v=35
81784 Par ch=1 c=64 v=127
81796 Off ch=1 n=d5 v=64
81810 Off ch=1 n=a#3 v=64
81850 Off ch=1 n=f4 v=64
81860 Off ch=1 n=a#2 v=64
81862 Off ch=1 n=a#4 v=64
81944 On ch=1 n=f3 v=27
82014 Off ch=1 n=f3 v=64
82170 On ch=1 n=d5 v=68
82186 On ch=1 n=d4 v=36
82188 On ch=1 n=a#2 v=41
82204 On ch=1 n=a#3 v=24
82214 Par ch=1 c=64 v=0
82366 Off ch=1 n=a#2 v=64
82369 Off ch=1 n=d4 v=64
82390 On ch=1 n=c3 v=46
82390 On ch=1 n=d#4 v=56
82414 Par ch=1 c=64 v=127
82500 Off ch=1 n=d#4 v=64
82562 On ch=1 n=f4 v=80
82565 Off ch=1 n=c3 v=64
82568 On ch=1 n=d3 v=53
82614 Off ch=1 n=d3 v=64
82670 Off ch=1 n=f4 v=64
82738 On ch=1 n=a#4 v=68
82752 Par ch=1 c=64 v=0
82757 On ch=1 n=g4 v=66
82757 On ch=1 n=d#3 v=54
82830 Off ch=1 n=d5 v=64
82884 Off ch=1 n=g4 v=64
82906 Par ch=1 c=64 v=127
82926 On ch=1 n=a4 v=66
82928 Off ch=1 n=d#3 v=64
82934 On ch=1 n=f3 v=59
82988 Off ch=1 n=a#4 v=64
83024 Off ch=1 n=a4 v=64
83030 Off ch=1 n=a#3 v=64
83072 Off ch=1 n=f3 v=64
83102 On ch=1 n=a#4 v=60
83128 On ch=1 n=g3 v=51
83180 Off ch=1 n=a#4 v=64
83192 Off ch=1 n=g3 v=64
83274 Par ch=1 c=64 v=0
83282 On ch=1 n=d#5 v=90
83302 On ch=1 n=c3 v=57
83302 On ch=1 n=d#4 v=59
83305 On ch=1 n=c4 v=39
83358 Off ch=1 n=d#4 v=64
83466 On ch=1 n=d3 v=53
83482 On ch=1 n=f4 v=71
83488 Off ch=1 n=c3 v=64
83491 Par ch=1 c=64 v=127
83538 Off ch=1 n=f4 v=64
83636 On ch=1 n=d#3 v=67
83638 Off ch=1 n=d3 v=64
83642 On ch=1 n=g4 v=69
83680 Off ch=1 n=d#3 v=64
83696 Off ch=1 n=g4 v=64
83798 On ch=1 n=c5 v=87
83800 On ch=1 n=a4 v=61
83820 On ch=1 n=f3 v=72
83828 Par ch=1 c=64 v=0
83868 Off ch=1 n=d#5 v=64
83982 Off ch=1 n=f3 v=64
83986 On ch=1 n=g3 v=59
83990 On ch=1 n=a#4 v=67
84012 Par ch=1 c=64 v=127
84014 Off ch=1 n=c5 v=64
84052 Off ch=1 n=a4 v=64
84104 Off ch=1 n=g3 v=64
84142 On ch=1 n=c5 v=75
84150 On ch=1 n=a3 v=59
84158 Off ch=1 n=c4 v=64
84178 Off ch=1 n=a#4 v=64
84202 Off ch=1 n=a3 v=64
84242 Off ch=1 n=c5 v=64
84304 Par ch=1 c=64 v=0
84322 On ch=1 n=f5 v=87
84332 On ch=1 n=d4 v=68
84334 On ch=1 n=f4 v=91
84342 On ch=1 n=d3 v=67
84386 Off ch=1 n=f4 v=64
84504 On ch=1 n=d#3 v=55
84515 On ch=1 n=g4 v=53
84520 Par ch=1 c=64 v=127
84523 Off ch=1 n=d3 v=64
84599 Off ch=1 n=g4 v=64
84678 On ch=1 n=a4 v=61
84680 On ch=1 n=f3 v=75
84700 Off ch=1 n=d#3 v=64
84726 Off ch=1 n=f3 v=64
84730 Off ch=1 n=a4 v=64
84866 On ch=1 n=d#5 v=83
84872 On ch=1 n=g3 v=68
84894 On ch=1 n=b4 v=56
84904 Par ch=1 c=64 v=0
84952 Off ch=1 n=f5 v=64
84994 Off ch=1 n=d4 v=64
85054 On ch=1 n=a3 v=63
85058 Off ch=1 n=b4 v=64
85060 On ch=1 n=c5 v=63
85088 Off ch=1 n=g3 v=64
85134 Par ch=1 c=64 v=127
85170 Off ch=1 n=a3 v=64
85184 Off ch=1 n=c5 v=64
85226 On ch=1 n=d5 v=84
85232 On ch=1 n=b3 v=53
85254 Off ch=1 n=d#5 v=64
85282 Off ch=1 n=d5 v=64
85394 Par ch=1 c=64 v=0
85396 On ch=1 n=c3 v=69
85406 On ch=1 n=d5 v=73
85420 On ch=1 n=b4 v=53
85426 Off ch=1 n=b3 v=64
85558 On ch=1 n=g#3 v=76
85580 Off ch=1 n=c3 v=64
85732 On ch=1 n=g3 v=72
85748 Off ch=1 n=g#3 v=64
85906 Off ch=1 n=g3 v=64
85924 Off ch=1 n=b4 v=64
85930 On ch=1 n=f3 v=54
85958 On ch=1 n=d#5 v=44
85974 On ch=1 n=c5 v=25
85980 Off ch=1 n=d5 v=64
85988 On ch=1 n=g4 v=14
86076 Off ch=1 n=f3 v=64
86110 On ch=1 n=d#3 v=49
86152 Off ch=1 n=g4 v=64
86194 Par ch=1 c=64 v=127
86206 Off ch=1 n=c5 v=64
86244 Off ch=1 n=d#5 v=64
86314 Off ch=1 n=d#3 v=64
86342 On ch=1 n=d3 v=44
86478 Off ch=1 n=d3 v=64
86602 On ch=1 n=d#6 v=70
86608 Par ch=1 c=64 v=0
86626 On ch=1 n=d#5 v=37
86630 On ch=1 n=c3 v=48
86696 Off ch=1 n=d#5 v=64
86770 Off ch=1 n=c3 v=64
86808 Par ch=1 c=64 v=127
86830 On ch=1 n=f5 v=32
86914 Off ch=1 n=f5 v=64
86974 On ch=1 n=g5 v=45
87030 Off ch=1 n=g5 v=64
87038 Off ch=1 n=d#6 v=64
87144 On ch=1 n=d6 v=72
87154 On ch=1 n=d5 v=50
87158 On ch=1 n=d4 v=58
87160 On ch=1 n=f#5 v=43
87208 Par ch=1 c=64 v=0
87266 Off ch=1 n=f#5 v=64
87326 On ch=1 n=g5 v=49
87358 On ch=1 n=e4 v=57
87364 Off ch=1 n=d4 v=64
87378 Par ch=1 c=64 v=127
87406 Off ch=1 n=g5 v=64
87436 Off ch=1 n=d5 v=64
87470 Off ch=1 n=d6 v=64
87470 Off ch=1 n=e4 v=64
87482 On ch=1 n=c6 v=76
87502 On ch=1 n=f#4 v=61
87524 Off ch=1 n=c6 v=64
87550 Off ch=1 n=f#4 v=64
87668 On ch=1 n=a#5 v=81
87682 On ch=1 n=g3 v=73
87685 On ch=1 n=g4 v=52
87685 On ch=1 n=a#4 v=54
87740 Off ch=1 n=a#4 v=64
87858 On ch=1 n=a3 v=62
87866 On ch=1 n=c5 v=60
87920 Off ch=1 n=g3 v=64
87956 Off ch=1 n=c5 v=64
88010 On ch=1 n=c#5 v=75
88016 Off ch=1 n=g4 v=64
88020 On ch=1 n=a#3 v=66
88056 Off ch=1 n=a3 v=64
88064 Off ch=1 n=c#5 v=64
88098 Off ch=1 n=a#3 v=64
88176 On ch=1 n=g#5 v=86
88194 On ch=1 n=d5 v=70
88194 On ch=1 n=b3 v=84
88204 On ch=1 n=f4 v=90
88206 Par ch=1 c=64 v=0
88272 Off ch=1 n=a#5 v=64
88356 On ch=1 n=d#5 v=77
88370 On ch=1 n=c4 v=64
88398 Off ch=1 n=d5 v=64
88422 Par ch=1 c=64 v=127
88434 Off ch=1 n=b3 v=64
88498 Off ch=1 n=f4 v=64
88526 On ch=1 n=d4 v=87
88526 On ch=1 n=f5 v=80
88542 Off ch=1 n=d#5 v=64
88552 Off ch=1 n=c4 v=64
88555 Off ch=1 n=g#5 v=64
88580 Off ch=1 n=d4 v=64
88630 Off ch=1 n=f5 v=64
88704 On ch=1 n=g5 v=98
88718 On ch=1 n=d#4 v=75
88724 On ch=1 n=g4 v=85
88728 On ch=1 n=d#3 v=77
88760 Off ch=1 n=g4 v=64
88864 On ch=1 n=f3 v=72
88870 Off ch=1 n=d#3 v=64
88882 On ch=1 n=g#4 v=88
88982 Off ch=1 n=g#4 v=64
88998 Off ch=1 n=d#4 v=64
89036 On ch=1 n=a#4 v=74
89044 On ch=1 n=g3 v=76
89064 Off ch=1 n=f3 v=64
89096 Off ch=1 n=a#4 v=64
89212 Off ch=1 n=g3 v=64
89220 On ch=1 n=f5 v=88
89223 On ch=1 n=g#3 v=74
89230 On ch=1 n=d4 v=63
89236 On ch=1 n=b4 v=72
89256 Off ch=1 n=g5 v=64
89268 Par ch=1 c=64 v=0
89412 On ch=1 n=b5 v=76
89600 On ch=1 n=g#5 v=68
89668 Off ch=1 n=b5 v=64
89676 Off ch=1 n=f5 v=64
89728 Par ch=1 c=64 v=127
89772 On ch=1 n=f5 v=45
89858 Off ch=1 n=b4 v=64
89864 Off ch=1 n=d4 v=64
89880 Off ch=1 n=g#5 v=64
89908 Off ch=1 n=g#3 v=64
89946 On ch=1 n=d5 v=56
90134 On ch=1 n=b4 v=54
90210 Off ch=1 n=b4 v=64
90222 Off ch=1 n=d5 v=64
90304 On ch=1 n=g#4 v=53
90330 Off ch=1 n=f5 v=64
90454 Off ch=1 n=g#4 v=64
90494 On ch=1 n=f4 v=79
90558 Off ch=1 n=f4 v=64
90678 On ch=1 n=d4 v=63
90726 Off ch=1 n=d4 v=64
90872 On ch=1 n=d#4 v=73
90874 On ch=1 n=g5 v=86
90874 On ch=1 n=g4 v=82
90886 On ch=1 n=d#3 v=68
90896 Par ch=1 c=64 v=0
90974 Off ch=1 n=g4 v=64
91034 Par ch=1 c=64 v=127
91100 On ch=1 n=g#4 v=77
91108 On ch=1 n=f3 v=55
91150 Off ch=1 n=d#3 v=64
91214 Off ch=1 n=g#4 v=64
91292 On ch=1 n=a#4 v=64
91336 On ch=1 n=g3 v=42
91356 Off ch=1 n=d#4 v=64
91370 Off ch=1 n=f3 v=64
91388 Off ch=1 n=a#4 v=64
91484 Off ch=1 n=g3 v=64
91534 Off ch=1 n=g5 v=64
91600 On ch=1 n=g#3 v=42
91600 On ch=1 n=c5 v=48
91603 On ch=1 n=f5 v=69
91618 Par ch=1 c=64 v=0
91618 On ch=1 n=d4 v=35
91896 On ch=1 n=c6 v=39
92032 Par ch=1 c=64 v=127
92124 On ch=1 n=g#5 v=60
92154 Off ch=1 n=c6 v=64
92230 Off ch=1 n=f5 v=64
92318 On ch=1 n=f5 v=44
92432 Off ch=1 n=g#5 v=64
92438 Off ch=1 n=c5 v=64
92502 Off ch=1 n=d4 v=64
92510 On ch=1 n=d5 v=51
92708 On ch=1 n=c5 v=48
92711 Off ch=1 n=d5 v=64
92886 Off ch=1 n=c5 v=64
92892 On ch=1 n=g#4 v=41
92990 Off ch=1 n=g#3 v=64
93068 Off ch=1 n=g#4 v=64
93154 On ch=1 n=f4 v=51
93230 Off ch=1 n=f4 v=64
93290 Off ch=1 n=f5 v=64
93374 On ch=1 n=d4 v=45
93428 Off ch=1 n=d4 v=64
93552 On ch=1 n=g5 v=75
93557 On ch=1 n=b4 v=60
93566 On ch=1 n=g3 v=63
93572 On ch=1 n=g4 v=49
93584 Par ch=1 c=64 v=0
93752 On ch=1 n=c5 v=69
93760 Off ch=1 n=b4 v=64
93774 On ch=1 n=a3 v=46
93796 Off ch=1 n=g3 v=64
93816 Par ch=1 c=64 v=127
93834 Off ch=1 n=c5 v=64
93894 Off ch=1 n=a3 v=64
93912 On ch=1 n=d5 v=71
93922 On ch=1 n=b3 v=56
93960 Off ch=1 n=d5 v=64
93968 Off ch=1 n=b3 v=64
94028 On ch=1 n=d#5 v=61
94058 On ch=1 n=f5 v=74
94062 Off ch=1 n=g5 v=64
94070 Off ch=1 n=d#5 v=64
94110 On ch=1 n=c4 v=59
94122 On ch=1 n=d#4 v=62
94122 Par ch=1 c=64 v=0
94125 On ch=1 n=d#5 v=87
94152 Off ch=1 n=g4 v=64
94178 Off ch=1 n=f5 v=64
94256 Off ch=1 n=d#4 v=64
94276 Off ch=1 n=d#5 v=64
94294 On ch=1 n=d5 v=67
94302 On ch=1 n=d4 v=75
94382 Off ch=1 n=d5 v=64
94404 Off ch=1 n=d4 v=64
94452 On ch=1 n=d#5 v=85
94466 On ch=1 n=d#4 v=69
94526 Off ch=1 n=d#5 v=64
94560 Off ch=1 n=d#4 v=64
94628 On ch=1 n=f5 v=87
94634 On ch=1 n=f4 v=95
94718 Off ch=1 n=f5 v=64
94724 Off ch=1 n=f4 v=64
94796 On ch=1 n=d#4 v=76
94802 On ch=1 n=d#5 v=84
94867 Off ch=1 n=d#5 v=64
94875 Off ch=1 n=d#4 v=64
94970 On ch=1 n=f5 v=81
94984 On ch=1 n=f4 v=94
95056 Off ch=1 n=f4 v=64
95070 Off ch=1 n=f5 v=64
95146 On ch=1 n=f#5 v=83
95158 On ch=1 n=f#4 v=79
95240 Off ch=1 n=f#4 v=64
95247 Off ch=1 n=f#5 v=64
95302 On ch=1 n=f5 v=90
95314 On ch=1 n=f4 v=95
95406 Off ch=1 n=f5 v=64
95420 Off ch=1 n=c4 v=64
95452 On ch=1 n=f#5 v=83
95460 Off ch=1 n=f4 v=64
95468 On ch=1 n=f#4 v=86
95580 Off ch=1 n=f#5 v=64
95582 Off ch=1 n=f#4 v=64
95632 On ch=1 n=g4 v=81
95635 On ch=1 n=b3 v=68
95648 On ch=1 n=g5 v=95
95660 On ch=1 n=f5 v=67
95690 Off ch=1 n=g4 v=64
95700 Off ch=1 n=f5 v=64
95726 Off ch=1 n=g5 v=64
95736 Par ch=1 c=64 v=127
95784 Off ch=1 n=b3 v=64
95944 On ch=1 n=g6 v=85
95946 On ch=1 n=g5 v=70
96118 On ch=1 n=f#6 v=83
96126 Off ch=1 n=g5 v=64
96140 On ch=1 n=f#5 v=58
96150 Off ch=1 n=g6 v=64
96274 Off ch=1 n=f#5 v=64
96308 On ch=1 n=f6 v=63
96311 On ch=1 n=f5 v=60
96326 Off ch=1 n=f#6 v=64
96454 Off ch=1 n=f5 v=64
96474 On ch=1 n=d6 v=65
96500 On ch=1 n=d5 v=57
96524 Off ch=1 n=f6 v=64
96566 Off ch=1 n=d5 v=64
96644 On ch=1 n=b5 v=62
96654 Off ch=1 n=d6 v=64
96654 On ch=1 n=b4 v=55
96674 Par ch=1 c=64 v=0
96702 Off ch=1 n=b4 v=64
96822 On ch=1 n=g4 v=62
96838 On ch=1 n=g5 v=53
96854 Off ch=1 n=b5 v=64
96998 On ch=1 n=f#4 v=73
97002 Off ch=1 n=g4 v=64
97104 Par ch=1 c=64 v=127
97122 Off ch=1 n=f#4 v=64
97168 On ch=1 n=f4 v=89
97324 Off ch=1 n=f4 v=64
97350 On ch=1 n=d4 v=77
97396 Par ch=1 c=64 v=0
97504 Off ch=1 n=d4 v=64
97504 On ch=1 n=b3 v=68
97512 Off ch=1 n=g5 v=64
97610 Par ch=1 c=64 v=127
97700 Off ch=1 n=b3 v=64
97700 On ch=1 n=g#3 v=73
97918 Par ch=1 c=64 v=0
97948 On ch=1 n=g5 v=69
97950 On ch=1 n=g3 v=60
97964 Off ch=1 n=g#3 v=64
97972 On ch=1 n=g4 v=35
97978 On ch=1 n=b4 v=23
98152 Off ch=1 n=b4 v=64
98170 On ch=1 n=c5 v=57
98192 On ch=1 n=a3 v=45
98210 Off ch=1 n=g3 v=64
98234 Off ch=1 n=c5 v=64
98240 Par ch=1 c=64 v=127
98310 Off ch=1 n=a3 v=64
98338 On ch=1 n=b3 v=64
98348 On ch=1 n=d5 v=62
98382 Off ch=1 n=b3 v=64
98398 Off ch=1 n=d5 v=64
98436 Off ch=1 n=g5 v=64
98446 Off ch=1 n=g4 v=64
98472 On ch=1 n=d#5 v=72
98512 Off ch=1 n=d#5 v=64
98516 On ch=1 n=f5 v=66
98524 On ch=1 n=d#4 v=62
98530 On ch=1 n=c4 v=58
98568 On ch=1 n=d#5 v=83
98594 Par ch=1 c=64 v=0
98602 On ch=1 n=f4 v=46
98606 Off ch=1 n=d#4 v=64
98630 Off ch=1 n=f5 v=64
98662 Off ch=1 n=f4 v=64
98700 Off ch=1 n=d#5 v=64
98762 On ch=1 n=d5 v=73
98762 On ch=1 n=d4 v=79
98888 Off ch=1 n=d5 v=64
98906 Off ch=1 n=d4 v=64
98922 On ch=1 n=d#5 v=84
98925 On ch=1 n=d#4 v=72
99034 Off ch=1 n=d#5 v=64
99060 Off ch=1 n=d#4 v=64
99084 On ch=1 n=f5 v=79
99087 On ch=1 n=f4 v=93
99138 Off ch=1 n=f4 v=64
99176 Off ch=1 n=f5 v=64
99240 On ch=1 n=d#4 v=73
99242 On ch=1 n=d#5 v=88
99340 Off ch=1 n=d#5 v=64
99372 Off ch=1 n=d#4 v=64
99404 On ch=1 n=f5 v=79
99404 On ch=1 n=f4 v=101
99512 Off ch=1 n=f5 v=64
99518 Off ch=1 n=f4 v=64
99568 On ch=1 n=g4 v=75
99570 On ch=1 n=g5 v=84
99660 Off ch=1 n=g4 v=64
99668 Off ch=1 n=g5 v=64
99730 On ch=1 n=f4 v=93
99732 On ch=1 n=f5 v=83
99802 Off ch=1 n=f5 v=64
99874 Off ch=1 n=c4 v=64
99886 On ch=1 n=g5 v=90
99892 Off ch=1 n=f4 v=64
99892 On ch=1 n=g4 v=65
99970 Off ch=1 n=g5 v=64
99990 On ch=1 n=c4 v=35
100028 Off ch=1 n=g4 v=64
100030 On ch=1 n=f#5 v=59
100132 On ch=1 n=g#4 v=64
100144 On ch=1 n=g#5 v=76
100172 Off ch=1 n=f#5 v=64
100236 Off ch=1 n=g#5 v=64
100238 Off ch=1 n=g#4 v=64
100253 Off ch=1 n=c4 v=64
100254 Par ch=1 c=64 v=127
100428 On ch=1 n=g#6 v=68
100440 On ch=1 n=g#5 v=44
100506 Off ch=1 n=g#5 v=64
100558 Off ch=1 n=g#6 v=64
100634 On ch=1 n=g6 v=74
100652 On ch=1 n=g5 v=43
100756 Off ch=1 n=g5 v=64
100814 On ch=1 n=f#6 v=68
100822 Off ch=1 n=g6 v=64
100828 On ch=1 n=f#5 v=32
100900 Off ch=1 n=f#5 v=64
100974 On ch=1 n=d#5 v=36
100988 On ch=1 n=d#6 v=57
101004 Off ch=1 n=f#6 v=64
101034 Off ch=1 n=d#5 v=64
101102 Off ch=1 n=d#6 v=64
101132 On ch=1 n=c5 v=31
101152 On ch=1 n=c6 v=57
101242 Off ch=1 n=c5 v=64
101328 On ch=1 n=g#5 v=52
101330 On ch=1 n=g#4 v=41
101368 Off ch=1 n=c6 v=64
101390 Off ch=1 n=g#4 v=64
101494 On ch=1 n=g4 v=52
101497 Par ch=1 c=64 v=0
101666 Off ch=1 n=g4 v=64
101669 On ch=1 n=f#4 v=60
101758 Par ch=1 c=64 v=127
101816 Off ch=1 n=f#4 v=64
101838 On ch=1 n=d#4 v=56
101898 Par ch=1 c=64 v=0
102032 Off ch=1 n=d#4 v=64
102034 On ch=1 n=c4 v=54
102082 Par ch=1 c=64 v=127
102148 Off ch=1 n=g#5 v=64
102168 Off ch=1 n=c4 v=64
102208 On ch=1 n=a3 v=56
102386 Off ch=1 n=a3 v=64
102464 On ch=1 n=g#5 v=59
102482 Par ch=1 c=64 v=0
102482 On ch=1 n=c5 v=45
102498 On ch=1 n=g#3 v=70
102498 On ch=1 n=g#4 v=42
102660 Off ch=1 n=c5 v=64
102664 On ch=1 n=c#5 v=62
102728 On ch=1 n=a#3 v=46
102764 Off ch=1 n=g#3 v=64
102804 Par ch=1 c=64 v=127
102818 Off ch=1 n=c#5 v=64
102830 On ch=1 n=d#5 v=72
102856 On ch=1 n=c4 v=60
102872 Off ch=1 n=d#5 v=64
102886 Off ch=1 n=g#5 v=64
102896 Off ch=1 n=a#3 v=64
102904 Off ch=1 n=c4 v=64
102950 On ch=1 n=f5 v=65
102996 Off ch=1 n=f5 v=64
103024 On ch=1 n=f#5 v=56
103042 Off ch=1 n=g#4 v=64
103080 On ch=1 n=f5 v=63
103094 On ch=1 n=f4 v=87
103100 On ch=1 n=c#4 v=64
103158 Off ch=1 n=f#5 v=64
103202 Off ch=1 n=f5 v=64
103210 Off ch=1 n=f4 v=64
103218 Par ch=1 c=64 v=0
103276 On ch=1 n=e5 v=76
103278 On ch=1 n=e4 v=78
103346 Off ch=1 n=e5 v=64
103402 Off ch=1 n=e4 v=64
103436 On ch=1 n=f5 v=81
103436 On ch=1 n=f4 v=97
103508 Off ch=1 n=f4 v=64
103536 Off ch=1 n=f5 v=64
103600 On ch=1 n=f#5 v=83
103608 On ch=1 n=f#4 v=81
103688 Off ch=1 n=f#4 v=64
103720 Off ch=1 n=f#5 v=64
103772 On ch=1 n=f5 v=78
103772 On ch=1 n=f4 v=100
103874 Off ch=1 n=f5 v=64
103874 Off ch=1 n=f4 v=64
103928 On ch=1 n=f#5 v=80
103931 On ch=1 n=f#4 v=92
104040 Off ch=1 n=f#4 v=64
104042 Off ch=1 n=f#5 v=64
104090 On ch=1 n=g#5 v=89
104106 On ch=1 n=g#4 v=69
104172 Off ch=1 n=g#4 v=64
104186 Off ch=1 n=g#5 v=64
104260 On ch=1 n=g5 v=83
104262 On ch=1 n=g4 v=72
104322 Off ch=1 n=g5 v=64
104416 On ch=1 n=g#5 v=78
104418 Off ch=1 n=c#4 v=64
104418 On ch=1 n=g#4 v=68
104440 Off ch=1 n=g4 v=64
104502 Off ch=1 n=g#4 v=64
104504 Off ch=1 n=g#5 v=64
104536 On ch=1 n=c#4 v=38
104572 On ch=1 n=g5 v=58
104644 On ch=1 n=a4 v=40
104658 Off ch=1 n=g5 v=64
104658 On ch=1 n=a5 v=70
104722 Off ch=1 n=c#4 v=64
104728 Off ch=1 n=a4 v=64
104740 Par ch=1 c=64 v=127
104758 Off ch=1 n=a5 v=64
104974 On ch=1 n=a6 v=71
104986 On ch=1 n=a5 v=42
105136 Off ch=1 n=a5 v=64
105160 On ch=1 n=g#6 v=75
105168 On ch=1 n=g#5 v=52
105188 Off ch=1 n=a6 v=64
105226 Off ch=1 n=g#5 v=64
105312 Off ch=1 n=g#6 v=64
105334 On ch=1 n=g6 v=82
105350 On ch=1 n=g5 v=49
105450 Off ch=1 n=g5 v=64
105502 On ch=1 n=e6 v=70
105514 On ch=1 n=e5 v=64
105526 Off ch=1 n=g6 v=64
105648 Off ch=1 n=e5 v=64
105662 On ch=1 n=c#6 v=63
105668 On ch=1 n=c#5 v=62
105728 Off ch=1 n=e6 v=64
105810 Off ch=1 n=c#5 v=64
105848 On ch=1 n=a5 v=52
105848 On ch=1 n=a4 v=51
105880 Off ch=1 n=c#6 v=64
105938 Par ch=1 c=64 v=0
105982 Off ch=1 n=a4 v=64
106022 On ch=1 n=a#4 v=63
106200 Par ch=1 c=64 v=127
106208 On ch=1 n=a4 v=65
106248 Off ch=1 n=a#4 v=64
106368 Par ch=1 c=64 v=0
106386 Off ch=1 n=a4 v=64
106388 On ch=1 n=g#4 v=60
106520 Off ch=1 n=g#4 v=64
106578 Off ch=1 n=a5 v=64
106584 Par ch=1 c=64 v=127
106587 On ch=1 n=g4 v=24
106735 Off ch=1 n=g4 v=64
106786 On ch=1 n=e4 v=40
106876 Par ch=1 c=64 v=0
106940 On ch=1 n=c4 v=35
106946 Off ch=1 n=e4 v=64
107028 On ch=1 n=d#5 v=41
107052 On ch=1 n=a4 v=29
107118 On ch=1 n=f5 v=40
107153 Off ch=1 n=d#5 v=64
107188 Off ch=1 n=f5 v=64
107189 Off ch=1 n=a4 v=64
107203 Off ch=1 n=c4 v=64
107214 Par ch=1 c=64 v=127
107442 On ch=1 n=a5 v=36
107460 On ch=1 n=a6 v=38
107556 Off ch=1 n=a5 v=64
107642 Off ch=1 n=a6 v=64
107660 On ch=1 n=g#6 v=48
107680 On ch=1 n=g#5 v=33
107796 Off ch=1 n=g#5 v=64
107814 Off ch=1 n=g#6 v=64
107884 On ch=1 n=g6 v=49
107896 On ch=1 n=g5 v=31
107948 Off ch=1 n=g6 v=64
107982 Off ch=1 n=g5 v=64
108058 Par ch=1 c=64 v=0
108060 On ch=1 n=f6 v=53
108070 On ch=1 n=f5 v=33
108114 Off ch=1 n=f6 v=64
108136 Off ch=1 n=f5 v=64
108226 On ch=1 n=d#6 v=56
108232 On ch=1 n=d#5 v=50
108288 Off ch=1 n=d#6 v=64
108291 Off ch=1 n=d#5 v=64
108406 On ch=1 n=d6 v=61
108424 On ch=1 n=d5 v=38
108460 Off ch=1 n=d6 v=64
108488 Off ch=1 n=d5 v=64
108578 On ch=1 n=c6 v=52
108582 On ch=1 n=c5 v=43
108640 Off ch=1 n=c6 v=64
108650 Off ch=1 n=c5 v=64
108744 On ch=1 n=a#4 v=42
108746 On ch=1 n=a#5 v=55
108810 Off ch=1 n=a#4 v=64
108842 Off ch=1 n=a#5 v=64
108932 On ch=1 n=a5 v=50
108954 On ch=1 n=a4 v=46
109024 Off ch=1 n=a4 v=64
109034 Off ch=1 n=a5 v=64
109136 On ch=1 n=g5 v=51
109142 On ch=1 n=g4 v=47
109206 Off ch=1 n=g4 v=64
109216 Off ch=1 n=g5 v=64
109368 On ch=1 n=f5 v=41
109390 On ch=1 n=f4 v=42
109448 Off ch=1 n=f4 v=64
109456 Off ch=1 n=f5 v=64
109642 Par ch=1 c=64 v=127
109670 On ch=1 n=d6 v=67
109684 On ch=1 n=a#3 v=24
109694 On ch=1 n=d5 v=34
109852 Off ch=1 n=a#3 v=64
109884 Off ch=1 n=d5 v=64
109890 On ch=1 n=a#4 v=26
109994 Off ch=1 n=a#4 v=64
110104 On ch=1 n=f4 v=52
110190 Off ch=1 n=f4 v=64
110258 On ch=1 n=a5 v=61
110261 On ch=1 n=d#5 v=41
110282 On ch=1 n=c4 v=36
110302 Off ch=1 n=d6 v=64
110378 Par ch=1 c=64 v=0
110446 On ch=1 n=c5 v=37
110548 Par ch=1 c=64 v=127
110592 Off ch=1 n=c5 v=64
110595 Off ch=1 n=d#5 v=64
110620 On ch=1 n=f4 v=63
110688 Off ch=1 n=c4 v=64
110702 Off ch=1 n=f4 v=64
110772 On ch=1 n=a#5 v=67
110792 On ch=1 n=f5 v=40
110792 Par ch=1 c=64 v=0
110810 On ch=1 n=d4 v=49
110812 Off ch=1 n=a5 v=64
110934 Off ch=1 n=f5 v=64
110952 On ch=1 n=a#4 v=36
110994 Par ch=1 c=64 v=127
111002 Off ch=1 n=a#5 v=64
111068 Off ch=1 n=a#4 v=64
111108 Off ch=1 n=d4 v=64
111164 On ch=1 n=f4 v=32
111224 Off ch=1 n=f4 v=64
111328 On ch=1 n=f5 v=59
111328 On ch=1 n=a3 v=57
111331 On ch=1 n=d#5 v=45
111342 On ch=1 n=c5 v=33
111438 Par ch=1 c=64 v=0
111556 On ch=1 n=f4 v=51
111664 Off ch=1 n=c5 v=64
111700 Par ch=1 c=64 v=127
111703 Off ch=1 n=f4 v=64
111716 On ch=1 n=c4 v=18
111750 Off ch=1 n=d#5 v=64
111804 Off ch=1 n=c4 v=64
111882 On ch=1 n=a#3 v=43
111890 On ch=1 n=a#4 v=28
111895 On ch=1 n=d5 v=40
111900 Off ch=1 n=a3 v=64
111976 Par ch=1 c=64 v=0
112100 On ch=1 n=f4 v=52
112176 Off ch=1 n=f4 v=64
112208 Off ch=1 n=a#4 v=64
112208 Par ch=1 c=64 v=127
112256 Off ch=1 n=d5 v=64
112272 On ch=1 n=d4 v=45
112324 Off ch=1 n=d4 v=64
112370 Off ch=1 n=a#3 v=64
112432 On ch=1 n=f3 v=62
112444 On ch=1 n=e5 v=60
112452 On ch=1 n=a#4 v=23
112474 Off ch=1 n=f5 v=64
112490 On ch=1 n=c#5 v=29
112560 Par ch=1 c=64 v=0
112656 On ch=1 n=e4 v=42
112728 Off ch=1 n=e4 v=64
112748 Off ch=1 n=a#4 v=64
112760 Par ch=1 c=64 v=127
112780 Off ch=1 n=c#5 v=64
112802 On ch=1 n=c#4 v=28
112866 Off ch=1 n=c#4 v=64
112980 On ch=1 n=f5 v=53
112983 On ch=1 n=a#4 v=26
112994 On ch=1 n=d5 v=28
113028 Off ch=1 n=e5 v=64
113082 Par ch=1 c=64 v=0
113154 On ch=1 n=f4 v=44
113226 Off ch=1 n=f4 v=64
113236 Par ch=1 c=64 v=127
113238 Off ch=1 n=a#4 v=64
113266 Off ch=1 n=f3 v=64
113278 Off ch=1 n=d5 v=64
113302 On ch=1 n=d4 v=43
113308 Off ch=1 n=f5 v=64
113358 Off ch=1 n=d4 v=64
113490 On ch=1 n=e3 v=72
113493 On ch=1 n=g5 v=63
113496 On ch=1 n=c#5 v=36
113498 Par ch=1 c=64 v=0
113498 On ch=1 n=a#4 v=25
113652 Par ch=1 c=64 v=127
113662 On ch=1 n=c#4 v=40
113684 Off ch=1 n=c#5 v=64
113704 Off ch=1 n=g5 v=64
113776 Off ch=1 n=a#4 v=64
113826 On ch=1 n=a#3 v=42
113888 Off ch=1 n=a#3 v=64
113990 Off ch=1 n=e3 v=64
113992 Off ch=1 n=c#4 v=64
114008 On ch=1 n=c5 v=72
114010 On ch=1 n=d#3 v=47
114022 On ch=1 n=a4 v=33
114032 On ch=1 n=f4 v=49
114112 Par ch=1 c=64 v=0
114202 On ch=1 n=c4 v=32
114264 Off ch=1 n=a4 v=64
114326 Off ch=1 n=f4 v=64
114328 Par ch=1 c=64 v=127
114348 On ch=1 n=a3 v=35
114374 Off ch=1 n=c4 v=64
114438 Off ch=1 n=a3 v=64
114500 Off ch=1 n=d#3 v=64
114522 Off ch=1 n=c5 v=64
114560 On ch=1 n=d3 v=45
114564 On ch=1 n=d5 v=72
114586 On ch=1 n=g4 v=32
114586 On ch=1 n=f4 v=58
114600 On ch=1 n=b4 v=22
114636 Par ch=1 c=64 v=0
114738 On ch=1 n=b3 v=25
114810 Off ch=1 n=g4 v=64
114850 Par ch=1 c=64 v=127
114862 Off ch=1 n=b4 v=64
114868 Off ch=1 n=f4 v=64
114888 On ch=1 n=g3 v=42
114942 Off ch=1 n=b3 v=64
114972 Off ch=1 n=g3 v=64
115062 Off ch=1 n=d3 v=64
115068 On ch=1 n=c3 v=55
115068 On ch=1 n=d#5 v=78
115086 On ch=1 n=g4 v=51
115102 On ch=1 n=c5 v=37
115130 Off ch=1 n=d5 v=64
115188 Par ch=1 c=64 v=0
115248 On ch=1 n=g3 v=42
115362 Off ch=1 n=g4 v=64
115388 Par ch=1 c=64 v=127
115396 Off ch=1 n=c5 v=64
115420 On ch=1 n=d#3 v=55
115490 Off ch=1 n=g3 v=64
115500 Off ch=1 n=d#3 v=64
115514 Off ch=1 n=c3 v=64
115596 On ch=1 n=e5 v=86
115602 On ch=1 n=c#5 v=57
115614 On ch=1 n=a#2 v=67
115624 On ch=1 n=g4 v=49
115656 Off ch=1 n=d#5 v=64
115710 Par ch=1 c=64 v=0
115806 On ch=1 n=e3 v=51
115876 Off ch=1 n=g4 v=64
115894 Par ch=1 c=64 v=127
115912 Off ch=1 n=e3 v=64
115914 Off ch=1 n=e5 v=64
115924 On ch=1 n=c#3 v=50
116054 Off ch=1 n=c#3 v=64
116146 On ch=1 n=f5 v=75
116160 On ch=1 n=a2 v=53
116164 On ch=1 n=f4 v=57
116170 On ch=1 n=c5 v=50
116174 Off ch=1 n=a#2 v=64
116218 Par ch=1 c=64 v=0
116238 Off ch=1 n=c#5 v=64
116326 On ch=1 n=f3 v=47
116474 On ch=1 n=c3 v=43
116526 Off ch=1 n=f3 v=64
116564 Off ch=1 n=c3 v=64
116612 Off ch=1 n=a2 v=64
116628 On ch=1 n=f2 v=49
116756 Par ch=1 c=64 v=127
116776 Off ch=1 n=c5 v=64
116780 Off ch=1 n=f2 v=64
116814 Off ch=1 n=f4 v=64
116860 On ch=1 n=a3 v=29
116966 Off ch=1 n=a3 v=64
116972 Off ch=1 n=f5 v=64
117066 On ch=1 n=f3 v=23
117086 On ch=1 n=d#5 v=63
117136 Off ch=1 n=f3 v=64
117172 Off ch=1 n=d#5 v=64
117296 On ch=1 n=a#2 v=25
117340 On ch=1 n=d#5 v=61
117358 On ch=1 n=c5 v=11
117360 On ch=1 n=f4 v=36
117416 Par ch=1 c=64 v=0
117528 On ch=1 n=a3 v=28
117608 Off ch=1 n=f4 v=64
117662 Par ch=1 c=64 v=127
117708 Off ch=1 n=a3 v=64
117730 On ch=1 n=f3 v=32
117814 Off ch=1 n=f3 v=64
117848 Off ch=1 n=c5 v=64
117934 On ch=1 n=d5 v=43
117958 Off ch=1 n=d#5 v=64
117961 On ch=1 n=a#4 v=14
117968 On ch=1 n=f4 v=33
118000 Par ch=1 c=64 v=0
118106 On ch=1 n=a#3 v=34
118200 Off ch=1 n=f4 v=64
118200 Par ch=1 c=64 v=127
118233 Off ch=1 n=a#4 v=64
118290 Off ch=1 n=d5 v=64
118310 Off ch=1 n=a#3 v=64
118336 On ch=1 n=f3 v=31
118339 Off ch=1 n=a#2 v=64
118396 Off ch=1 n=f3 v=64
118684 On ch=1 n=d#5 v=47
118704 On ch=1 n=g2 v=32
118706 Par ch=1 c=64 v=0
118712 On ch=1 n=a#4 v=21
118728 On ch=1 n=d#4 v=27
118878 Off ch=1 n=g2 v=64
118890 Par ch=1 c=64 v=127
118900 On ch=1 n=g3 v=43
119040 Off ch=1 n=g3 v=64
119098 On ch=1 n=f3 v=44
119200 Off ch=1 n=f3 v=64
119238 On ch=1 n=d#3 v=46
119314 Off ch=1 n=d#3 v=64
119326 Off ch=1 n=d#4 v=64
119328 Off ch=1 n=a#4 v=64
119410 On ch=1 n=d3 v=45
119524 Off ch=1 n=d#5 v=64
119576 On ch=1 n=c3 v=48
119584 Off ch=1 n=d3 v=64
119728 Off ch=1 n=c3 v=64
119758 On ch=1 n=e5 v=74
119768 On ch=1 n=e4 v=46
119768 On ch=1 n=a#4 v=26
119770 On ch=1 n=a#2 v=41
119774 On ch=1 n=c#5 v=43
119906 Par ch=1 c=64 v=0
119940 On ch=1 n=c#3 v=57
119970 Off ch=1 n=a#2 v=64
120058 Off ch=1 n=c#3 v=64
120090 Par ch=1 c=64 v=127
120098 On ch=1 n=c3 v=51
120120 Off ch=1 n=e4 v=64
120172 Off ch=1 n=e5 v=64
120214 Off ch=1 n=a#4 v=64
120230 Off ch=1 n=c3 v=64
120233 Off ch=1 n=c#5 v=64
120239 On ch=1 n=a#2 v=53
120358 Off ch=1 n=a#2 v=64
120406 On ch=1 n=a2 v=53
120584 On ch=1 n=g2 v=65
120594 Off ch=1 n=a2 v=64
120754 Off ch=1 n=g2 v=64
120762 On ch=1 n=f4 v=78
120765 On ch=1 n=f5 v=72
120765 Par ch=1 c=64 v=0
120770 On ch=1 n=a#4 v=36
120778 On ch=1 n=f2 v=55
120778 On ch=1 n=d5 v=55
120936 Off ch=1 n=f2 v=64
120942 On ch=1 n=f3 v=71
121042 Par ch=1 c=64 v=127
121120 On ch=1 n=d#3 v=58
121124 Off ch=1 n=f3 v=64
121296 Off ch=1 n=d#3 v=64
121302 On ch=1 n=d3 v=70
121396 Par ch=1 c=64 v=0
121464 On ch=1 n=c3 v=60
121470 Off ch=1 n=d3 v=64
121608 On ch=1 n=a#2 v=60
121632 Off ch=1 n=c3 v=64
121808 On ch=1 n=a2 v=58
121824 Off ch=1 n=a#2 v=64
121980 Off ch=1 n=a2 v=64
121988 On ch=1 n=c3 v=46
121994 Par ch=1 c=64 v=127
122136 Off ch=1 n=c3 v=64
122142 On ch=1 n=a#2 v=45
122224 Par ch=1 c=64 v=0
122294 Off ch=1 n=a#2 v=64
122312 On ch=1 n=a2 v=48
122471 Par ch=1 c=64 v=127
122498 Off ch=1 n=a2 v=64
122506 On ch=1 n=g2 v=50
122516 Off ch=1 n=f4 v=64
122522 Off ch=1 n=f5 v=64
122538 Off ch=1 n=a#4 v=64
122538 Off ch=1 n=d5 v=64
122679 Off ch=1 n=g2 v=64
122700 On ch=1 n=f2 v=60
122798 Off ch=1 n=f2 v=64
122962 On ch=1 n=d#5 v=73
122968 On ch=1 n=d#4 v=45
122988 On ch=1 n=a#4 v=38
123008 Par ch=1 c=64 v=0
123010 On ch=1 n=g2 v=36
123180 Off ch=1 n=g2 v=64
123192 On ch=1 n=g3 v=56
123286 Par ch=1 c=64 v=127
123378 On ch=1 n=f3 v=66
123380 Off ch=1 n=g3 v=64
123538 Off ch=1 n=f3 v=64
123546 On ch=1 n=d#3 v=65
123672 Off ch=1 n=a#4 v=64
123682 Off ch=1 n=d#3 v=64
123686 Off ch=1 n=d#4 v=64
123718 On ch=1 n=d3 v=61
123866 Off ch=1 n=d#5 v=64
123876 Off ch=1 n=d3 v=64
123888 On ch=1 n=c3 v=65
124070 Off ch=1 n=c3 v=64
124073 On ch=1 n=e5 v=76
124078 On ch=1 n=a#2 v=50
124086 On ch=1 n=e4 v=59
124088 On ch=1 n=c#5 v=50
124090 On ch=1 n=a#4 v=35
124162 Par ch=1 c=64 v=0
124262 Off ch=1 n=a#2 v=64
124268 On ch=1 n=c#3 v=51
124388 Off ch=1 n=e4 v=64
124390 Par ch=1 c=64 v=127
124402 Off ch=1 n=c#3 v=64
124432 Off ch=1 n=e5 v=64
124432 On ch=1 n=c3 v=49
124498 Off ch=1 n=a#4 v=64
124508 Off ch=1 n=c#5 v=64
124574 Off ch=1 n=c3 v=64
124580 On ch=1 n=a#2 v=59
124724 Off ch=1 n=a#2 v=64
124754 On ch=1 n=a2 v=52
124952 On ch=1 n=g2 v=59
124955 Off ch=1 n=a2 v=64
125126 Off ch=1 n=g2 v=64
125142 On ch=1 n=f4 v=72
125145 Par ch=1 c=64 v=0
125145 On ch=1 n=f5 v=57
125145 On ch=1 n=a#4 v=30
125162 On ch=1 n=d5 v=44
125165 On ch=1 n=f2 v=50
125324 Off ch=1 n=f2 v=64
125334 On ch=1 n=f3 v=65
125420 Par ch=1 c=64 v=127
125486 Off ch=1 n=f3 v=64
125496 On ch=1 n=d#3 v=54
125640 Off ch=1 n=d#3 v=64
125666 On ch=1 n=d3 v=57
125790 Par ch=1 c=64 v=0
125824 Off ch=1 n=d3 v=64
125842 On ch=1 n=c3 v=45
125978 On ch=1 n=a#2 v=50
125990 Off ch=1 n=c3 v=64
126176 On ch=1 n=a2 v=57
126200 Off ch=1 n=a#2 v=64
126350 Off ch=1 n=a2 v=64
126350 On ch=1 n=c3 v=55
126504 On ch=1 n=a#2 v=55
126512 Off ch=1 n=c3 v=64
126542 Par ch=1 c=64 v=127
126588 Par ch=1 c=64 v=0
126678 Off ch=1 n=a#2 v=64
126692 On ch=1 n=a2 v=48
126844 Off ch=1 n=a2 v=64
126874 On ch=1 n=g2 v=57
126958 Par ch=1 c=64 v=127
126966 Off ch=1 n=f4 v=64
126978 Off ch=1 n=d5 v=64
126980 Off ch=1 n=f5 v=64
126992 Off ch=1 n=a#4 v=64
127004 Off ch=1 n=g2 v=64
127066 On ch=1 n=f2 v=48
127218 Off ch=1 n=f2 v=64
127312 Par ch=1 c=64 v=0
127352 On ch=1 n=d#4 v=36
127354 On ch=1 n=d#5 v=54
127368 On ch=1 n=g2 v=56
127372 On ch=1 n=a#4 v=25
127560 Off ch=1 n=g2 v=64
127578 On ch=1 n=g3 v=49
127694 Par ch=1 c=64 v=127
127736 Off ch=1 n=g3 v=64
127760 On ch=1 n=f3 v=48
127848 Off ch=1 n=f3 v=64
127928 On ch=1 n=d#3 v=42
127968 Off ch=1 n=a#4 v=64
127992 Off ch=1 n=d#4 v=64
128056 Off ch=1 n=d#3 v=64
128106 On ch=1 n=d3 v=49
128198 Off ch=1 n=d3 v=64
128208 Off ch=1 n=d#5 v=64
128292 On ch=1 n=c3 v=32
128460 Off ch=1 n=c3 v=64
128480 Par ch=1 c=64 v=0
128492 On ch=1 n=e4 v=33
128498 On ch=1 n=e5 v=45
128501 On ch=1 n=a#4 v=20
128504 On ch=1 n=a#2 v=27
128506 On ch=1 n=c#5 v=27
128686 Off ch=1 n=a#2 v=64
128704 On ch=1 n=c#3 v=21
128806 Off ch=1 n=c#3 v=64
128832 Par ch=1 c=64 v=127
128864 On ch=1 n=c3 v=30
128940 Par ch=1 c=64 v=0
129054 On ch=1 n=a#2 v=39
129056 Off ch=1 n=c3 v=64
129226 Off ch=1 n=a#2 v=64
129230 On ch=1 n=g#2 v=39
129422 Off ch=1 n=g#2 v=64
129474 Off ch=1 n=c#5 v=64
129478 Par ch=1 c=64 v=127
129492 Off ch=1 n=e4 v=64
129498 On ch=1 n=g2 v=35
129514 Off ch=1 n=a#4 v=64
129536 Off ch=1 n=e5 v=64
129800 Par ch=1 c=64 v=0
129810 On ch=1 n=f5 v=39
129816 On ch=1 n=f4 v=55
129828 On ch=1 n=d5 v=33
129831 On ch=1 n=b4 v=33
130082 Off ch=1 n=g2 v=64
130098 On ch=1 n=g3 v=30
130152 Par ch=1 c=64 v=127
130216 Off ch=1 n=f4 v=64
130270 Off ch=1 n=b4 v=64
130280 Off ch=1 n=d5 v=64
130288 Off ch=1 n=g3 v=64
130290 Off ch=1 n=f5 v=64
130320 On ch=1 n=f3 v=38
130430 Off ch=1 n=f3 v=64
130488 On ch=1 n=d#3 v=36
130582 Off ch=1 n=d#3 v=64
130656 On ch=1 n=d3 v=44
130814 Off ch=1 n=d3 v=64
130828 On ch=1 n=c3 v=44
130924 Off ch=1 n=c3 v=64
130972 On ch=1 n=b2 v=53
131110 Off ch=1 n=b2 v=64
131138 On ch=1 n=d3 v=54
131310 Off ch=1 n=d3 v=64
131326 On ch=1 n=c3 v=56
131444 On ch=1 n=d#4 v=41
131460 Par ch=1 c=64 v=0
131474 Off ch=1 n=c3 v=64
131480 On ch=1 n=b2 v=62
131506 Off ch=1 n=d#4 v=64
131636 Off ch=1 n=b2 v=64
131656 On ch=1 n=g#2 v=50
131658 On ch=1 n=g#4 v=68
131664 On ch=1 n=b3 v=68
131670 On ch=1 n=f4 v=83
131716 Off ch=1 n=b3 v=64
131736 Off ch=1 n=f4 v=64
131740 Off ch=1 n=g#4 v=64
131768 Off ch=1 n=g#2 v=64
131812 On ch=1 n=g#4 v=67
131812 On ch=1 n=f4 v=99
131818 On ch=1 n=c4 v=77
131822 On ch=1 n=g2 v=50
131892 Off ch=1 n=c4 v=64
131910 Off ch=1 n=f4 v=64
131918 Off ch=1 n=g#4 v=64
131988 On ch=1 n=g#4 v=67
132000 On ch=1 n=d4 v=78
132002 On ch=1 n=f4 v=81
132102 Off ch=1 n=g2 v=64
132132 On ch=1 n=g3 v=58
132148 Off ch=1 n=d4 v=64
132152 Par ch=1 c=64 v=127
132186 Off ch=1 n=g#4 v=64
132194 Off ch=1 n=f4 v=64
132330 On ch=1 n=f3 v=61
132333 Off ch=1 n=g3 v=64
132486 Off ch=1 n=f3 v=64
132504 On ch=1 n=d#3 v=50
132534 Par ch=1 c=64 v=0
132664 Off ch=1 n=d#3 v=64
132666 On ch=1 n=d3 v=61
132840 On ch=1 n=c3 v=58
132862 Off ch=1 n=d3 v=64
133022 On ch=1 n=b2 v=77
133032 Off ch=1 n=c3 v=64
133200 On ch=1 n=d3 v=70
133218 Off ch=1 n=b2 v=64
133378 On ch=1 n=c3 v=74
133386 Off ch=1 n=d3 v=64
133546 Off ch=1 n=c3 v=64
133549 On ch=1 n=b2 v=87
133700 On ch=1 n=b3 v=80
133705 On ch=1 n=g#4 v=66
133712 On ch=1 n=g#2 v=65
133715 On ch=1 n=f4 v=92
133720 Off ch=1 n=b2 v=64
133746 Off ch=1 n=b3 v=64
133760 Off ch=1 n=f4 v=64
133763 Off ch=1 n=g#4 v=64
133850 On ch=1 n=g#4 v=61
133853 On ch=1 n=c4 v=80
133856 Off ch=1 n=g#2 v=64
133859 On ch=1 n=f4 v=76
133868 On ch=1 n=g2 v=75
133936 Off ch=1 n=f4 v=64
133942 Off ch=1 n=g#4 v=64
133952 Off ch=1 n=c4 v=64
134040 On ch=1 n=g#4 v=73
134044 On ch=1 n=f4 v=85
134046 On ch=1 n=d4 v=89
134168 Off ch=1 n=g2 v=64
134174 Off ch=1 n=f4 v=64
134188 Off ch=1 n=g#4 v=64
134210 On ch=1 n=g3 v=54
134210 Par ch=1 c=64 v=127
134256 Off ch=1 n=d4 v=64
134308 On ch=1 n=c4 v=66
134308 On ch=1 n=f4 v=57
134311 On ch=1 n=g#4 v=44
134354 Off ch=1 n=c4 v=64
134358 Off ch=1 n=f4 v=64
134362 Off ch=1 n=g#4 v=64
134378 Par ch=1 c=64 v=0
134388 Off ch=1 n=g3 v=64
134414 On ch=1 n=g#4 v=72
134414 On ch=1 n=f4 v=106
134418 On ch=1 n=b3 v=70
134420 On ch=1 n=f3 v=61
134594 Off ch=1 n=b3 v=64
134596 Off ch=1 n=f3 v=64
134606 Off ch=1 n=g#4 v=64
134606 On ch=1 n=d#3 v=61
134624 Off ch=1 n=f4 v=64
134766 Off ch=1 n=d#3 v=64
134769 On ch=1 n=d3 v=67
134952 On ch=1 n=c3 v=66
134956 Off ch=1 n=d3 v=64
135138 On ch=1 n=b2 v=68
135140 Off ch=1 n=c3 v=64
135298 Off ch=1 n=b2 v=64
135302 On ch=1 n=d3 v=59
135438 Par ch=1 c=64 v=127
135446 Off ch=1 n=d3 v=64
135478 On ch=1 n=c3 v=68
135600 Off ch=1 n=c3 v=64
135650 On ch=1 n=b2 v=71
135746 Par ch=1 c=64 v=0
135804 On ch=1 n=a#2 v=61
135808 On ch=1 n=g4 v=84
135810 Off ch=1 n=b2 v=64
135824 On ch=1 n=g5 v=55
135830 On ch=1 n=e5 v=65
135846 Off ch=1 n=g4 v=64
135874 Off ch=1 n=e5 v=64
135880 Off ch=1 n=g5 v=64
135944 Off ch=1 n=a#2 v=64
135956 On ch=1 n=g#4 v=91
135960 On ch=1 n=e5 v=60
135962 On ch=1 n=g#2 v=55
135964 On ch=1 n=g5 v=53
136030 Off ch=1 n=g5 v=64
136048 Off ch=1 n=g#4 v=64
136078 Off ch=1 n=e5 v=64
136092 Off ch=1 n=g#2 v=64
136116 On ch=1 n=a#4 v=82
136122 On ch=1 n=g5 v=84
136138 On ch=1 n=e5 v=83
136138 On ch=1 n=g2 v=82
136202 Off ch=1 n=g2 v=64
136252 Par ch=1 c=64 v=127
136254 Off ch=1 n=g5 v=64
136284 Off ch=1 n=e5 v=64
136290 Off ch=1 n=a#4 v=64
136312 On ch=1 n=c4 v=69
136494 On ch=1 n=a#3 v=53
136502 Off ch=1 n=c4 v=64
136660 On ch=1 n=g#3 v=68
136668 Par ch=1 c=64 v=0
136672 Off ch=1 n=a#3 v=64
136836 On ch=1 n=g3 v=61
136860 Off ch=1 n=g#3 v=64
136884 Par ch=1 c=64 v=127
137004 On ch=1 n=f3 v=74
137032 Off ch=1 n=g3 v=64
137178 On ch=1 n=e3 v=84
137192 Off ch=1 n=f3 v=64
137348 On ch=1 n=g3 v=59
137362 Off ch=1 n=e3 v=64
137514 On ch=1 n=f3 v=74
137544 Off ch=1 n=g3 v=64
137686 On ch=1 n=e3 v=91
137716 Off ch=1 n=f3 v=64
137826 On ch=1 n=g4 v=99
137836 On ch=1 n=g5 v=80
137839 On ch=1 n=e5 v=81
137852 On ch=1 n=c#5 v=59
137852 On ch=1 n=c#3 v=69
137860 Off ch=1 n=e3 v=64
137878 Off ch=1 n=g4 v=64
137878 Off ch=1 n=g5 v=64
137890 Off ch=1 n=e5 v=64
137902 Off ch=1 n=c#5 v=64
137930 Off ch=1 n=c#3 v=64
137978 On ch=1 n=c#5 v=62
137978 On ch=1 n=g#4 v=94
137981 On ch=1 n=e5 v=76
137981 On ch=1 n=g5 v=53
137992 On ch=1 n=c3 v=77
138086 Off ch=1 n=g#4 v=64
138102 Off ch=1 n=c3 v=64
138108 Off ch=1 n=g5 v=64
138114 Off ch=1 n=c#5 v=64
138118 Off ch=1 n=e5 v=64
138128 Par ch=1 c=64 v=0
138156 On ch=1 n=g5 v=98
138158 On ch=1 n=a#4 v=86
138166 On ch=1 n=a#2 v=75
138166 On ch=1 n=g2 v=95
138169 On ch=1 n=e5 v=85
138176 On ch=1 n=c#5 v=90
138212 Off ch=1 n=a#2 v=64
138220 Off ch=1 n=g2 v=64
138296 Par ch=1 c=64 v=127
138310 Off ch=1 n=g5 v=64
138340 Off ch=1 n=a#4 v=64
138356 Off ch=1 n=e5 v=64
138362 Off ch=1 n=c#5 v=64
138380 On ch=1 n=c4 v=73
138438 On ch=1 n=e5 v=57
138438 On ch=1 n=c#5 v=52
138438 On ch=1 n=g#4 v=82
138456 On ch=1 n=g5 v=48
138496 Off ch=1 n=e5 v=64
138496 Off ch=1 n=c#5 v=64
138496 Off ch=1 n=g#4 v=64
138510 Off ch=1 n=c4 v=64
138518 Off ch=1 n=g5 v=64
138558 On ch=1 n=a#3 v=67
138568 On ch=1 n=g4 v=88
138568 On ch=1 n=g5 v=91
138568 On ch=1 n=c#5 v=55
138578 On ch=1 n=e5 v=71
138732 On ch=1 n=g#3 v=80
138734 Off ch=1 n=a#3 v=64
138848 Off ch=1 n=g4 v=64
138848 Off ch=1 n=e5 v=64
138914 On ch=1 n=g3 v=82
138922 Off ch=1 n=g#3 v=64
138942 Off ch=1 n=c#5 v=64
139074 On ch=1 n=f3 v=89
139092 Off ch=1 n=g5 v=64
139098 Off ch=1 n=g3 v=64
139260 On ch=1 n=e3 v=101
139288 Off ch=1 n=f3 v=64
139356 Par ch=1 c=64 v=0
139422 On ch=1 n=g3 v=92
139474 Off ch=1 n=e3 v=64
139608 On ch=1 n=f3 v=100
139642 Off ch=1 n=g3 v=64
139664 Par ch=1 c=64 v=127
139776 On ch=1 n=e3 v=99
139822 Off ch=1 n=f3 v=64
139938 On ch=1 n=a#4 v=93
139948 On ch=1 n=c#3 v=80
139950 Off ch=1 n=e3 v=64
139950 On ch=1 n=a#5 v=79
139952 On ch=1 n=g5 v=83
139954 On ch=1 n=e5 v=86
140020 Off ch=1 n=c#3 v=64
140020 Off ch=1 n=e5 v=64
140030 Off ch=1 n=a#4 v=64
140064 Off ch=1 n=a#5 v=64
140074 Off ch=1 n=g5 v=64
140086 On ch=1 n=c3 v=75
140110 On ch=1 n=a#5 v=85
140115 On ch=1 n=c5 v=98
140115 On ch=1 n=e5 v=77
140132 On ch=1 n=g5 v=85
140196 Off ch=1 n=c3 v=64
140208 Off ch=1 n=c5 v=64
140246 Off ch=1 n=a#5 v=64
140250 Off ch=1 n=e5 v=64
140262 Off ch=1 n=g5 v=64
140294 Par ch=1 c=64 v=0
140312 On ch=1 n=a#5 v=83
140314 On ch=1 n=c#5 v=111
140314 On ch=1 n=e5 v=98
140316 On ch=1 n=g5 v=95
140318 On ch=1 n=g2 v=103
140322 On ch=1 n=a#2 v=79
140408 Off ch=1 n=g2 v=64
140420 Off ch=1 n=a#2 v=64
140478 Par ch=1 c=64 v=127
140536 Off ch=1 n=e5 v=64
140536 Off ch=1 n=g5 v=64
140544 Off ch=1 n=a#5 v=64
140548 Off ch=1 n=c#5 v=64
140552 On ch=1 n=c4 v=81
140628 On ch=1 n=a#5 v=56
140636 On ch=1 n=c5 v=80
140642 On ch=1 n=e5 v=52
140646 On ch=1 n=g5 v=43
140672 Off ch=1 n=a#5 v=64
140678 Off ch=1 n=c5 v=64
140690 Off ch=1 n=e5 v=64
140704 Off ch=1 n=g5 v=64
140714 Off ch=1 n=c4 v=64
140730 On ch=1 n=a#5 v=64
140736 On ch=1 n=a#3 v=82
140744 On ch=1 n=a#4 v=86
140754 On ch=1 n=e5 v=96
140756 On ch=1 n=g5 v=84
140918 On ch=1 n=g#3 v=90
140928 Off ch=1 n=a#4 v=64
140930 Off ch=1 n=a#3 v=64
140982 Off ch=1 n=e5 v=64
141004 Off ch=1 n=g5 v=64
141118 On ch=1 n=g3 v=92
141158 Off ch=1 n=g#3 v=64
141278 Off ch=1 n=a#5 v=64
141286 On ch=1 n=f3 v=102
141330 Off ch=1 n=g3 v=64
141466 On ch=1 n=e3 v=110
141516 Off ch=1 n=f3 v=64
141640 On ch=1 n=g3 v=97
141690 Off ch=1 n=e3 v=64
141840 On ch=1 n=f3 v=110
141888 Off ch=1 n=g3 v=64
142038 On ch=1 n=e3 v=111
142108 Off ch=1 n=f3 v=64
142210 Off ch=1 n=e3 v=64
142226 On ch=1 n=a#5 v=86
142229 On ch=1 n=a#4 v=98
142234 On ch=1 n=g5 v=83
142242 On ch=1 n=c#3 v=99
142346 Off ch=1 n=a#4 v=64
142360 Off ch=1 n=g5 v=64
142416 Off ch=1 n=a#5 v=64
142424 Off ch=1 n=c#3 v=64
142458 On ch=1 n=c5 v=108
142460 On ch=1 n=a#5 v=88
142460 On ch=1 n=c#6 v=86
142466 On ch=1 n=c3 v=100
142466 On ch=1 n=g5 v=55
142586 Off ch=1 n=c5 v=64
142596 Off ch=1 n=c#6 v=64
142636 Off ch=1 n=g5 v=64
142684 Off ch=1 n=a#5 v=64
142752 Par ch=1 c=64 v=0
142762 On ch=1 n=a#5 v=73
142764 On ch=1 n=c#5 v=113
142767 On ch=1 n=c#6 v=97
142767 On ch=1 n=c2 v=114
142772 On ch=1 n=g5 v=92
142826 Off ch=1 n=c2 v=64
142840 Off ch=1 n=c3 v=64
142892 Par ch=1 c=64 v=127
143000 Off ch=1 n=g5 v=64
143018 Off ch=1 n=a#5 v=64
143038 Off ch=1 n=c#6 v=64
143080 Off ch=1 n=c#5 v=64
143098 On ch=1 n=a#3 v=96
143104 On ch=1 n=a#2 v=91
143188 Off ch=1 n=a#2 v=64
143190 On ch=1 n=c5 v=94
143190 On ch=1 n=c#6 v=81
143206 Off ch=1 n=a#3 v=64
143210 On ch=1 n=a#5 v=61
143224 On ch=1 n=g5 v=44
143230 Off ch=1 n=c#6 v=64
143242 Off ch=1 n=c5 v=64
143256 Off ch=1 n=a#5 v=64
143300 On ch=1 n=c4 v=95
143312 On ch=1 n=a#5 v=65
143316 On ch=1 n=a#4 v=100
143316 On ch=1 n=c3 v=70
143358 Off ch=1 n=c3 v=64
143376 Off ch=1 n=c4 v=64
143442 Off ch=1 n=a#4 v=64
143468 Off ch=1 n=g5 v=64
143468 Off ch=1 n=a#5 v=64
143520 On ch=1 n=a#5 v=77
143522 On ch=1 n=a#4 v=69
143524 On ch=1 n=c#4 v=104
143528 On ch=1 n=g5 v=73
143536 On ch=1 n=c#3 v=95
143574 Off ch=1 n=c#3 v=64
143600 Off ch=1 n=c#4 v=64
143612 Off ch=1 n=a#4 v=64
143658 Off ch=1 n=g5 v=64
143688 Off ch=1 n=a#5 v=64
143726 On ch=1 n=g5 v=76
143728 On ch=1 n=c#6 v=88
143736 On ch=1 n=g4 v=105
143738 On ch=1 n=a#5 v=83
143746 On ch=1 n=g3 v=94
143782 Off ch=1 n=g3 v=64
143788 Off ch=1 n=g4 v=64
143832 Off ch=1 n=g5 v=64
143866 Off ch=1 n=a#5 v=64
143872 Off ch=1 n=c#6 v=64
143922 On ch=1 n=c#6 v=86
143925 On ch=1 n=a#5 v=76
143928 On ch=1 n=f5 v=98
143934 On ch=1 n=f4 v=117
143940 On ch=1 n=f3 v=105
143984 Off ch=1 n=f3 v=64
144032 Off ch=1 n=f4 v=64
144044 Off ch=1 n=f5 v=64
144062 Off ch=1 n=c#6 v=64
144088 Off ch=1 n=a#5 v=64
144132 On ch=1 n=f5 v=77
144134 On ch=1 n=a#5 v=88
144134 On ch=1 n=c#6 v=76
144144 On ch=1 n=f4 v=103
144152 On ch=1 n=f3 v=105
144200 Off ch=1 n=f4 v=64
144204 Off ch=1 n=f3 v=64
144342 On ch=1 n=c3 v=111
144452 Off ch=1 n=a#5 v=64
144470 Off ch=1 n=c#6 v=64
144522 On ch=1 n=a#5 v=70
144525 On ch=1 n=c5 v=105
144530 On ch=1 n=c6 v=97
144538 On ch=1 n=g5 v=85
144542 On ch=1 n=g3 v=89
144550 Par ch=1 c=64 v=0
144564 Off ch=1 n=f5 v=64
144638 Off ch=1 n=c3 v=64
144700 Off ch=1 n=g3 v=64
144703 Par ch=1 c=64 v=127
144724 On ch=1 n=e4 v=114
144740 Off ch=1 n=c5 v=64
144746 Off ch=1 n=g5 v=64
144782 Off ch=1 n=a#5 v=64
144826 Off ch=1 n=e4 v=64
144834 Off ch=1 n=c6 v=64
144924 On ch=1 n=a#5 v=79
144928 On ch=1 n=g5 v=83
144930 On ch=1 n=c#6 v=92
144934 On ch=1 n=a#4 v=98
145092 Off ch=1 n=g5 v=64
145100 Off ch=1 n=c#6 v=64
145110 Off ch=1 n=a#4 v=64
145113 Off ch=1 n=a#5 v=64
145158 On ch=1 n=c#6 v=81
145158 On ch=1 n=c5 v=105
145161 On ch=1 n=g5 v=80
145161 On ch=1 n=a#5 v=86
145244 Off ch=1 n=c5 v=64
145326 Off ch=1 n=a#5 v=64
145348 Off ch=1 n=c#6 v=64
145536 On ch=1 n=c#6 v=90
145536 On ch=1 n=c#5 v=99
145539 On ch=1 n=c3 v=116
145542 On ch=1 n=c2 v=116
145542 On ch=1 n=a#5 v=78
145622 Off ch=1 n=c2 v=64
145634 Off ch=1 n=g5 v=64
145662 Off ch=1 n=c3 v=64
145724 Off ch=1 n=a#5 v=64
145766 Off ch=1 n=c#6 v=64
145822 Off ch=1 n=c#5 v=64
145898 On ch=1 n=c5 v=100
145908 On ch=1 n=a#5 v=55
145912 On ch=1 n=c#6 v=65
145952 Off ch=1 n=c#6 v=64
145954 Off ch=1 n=a#5 v=64
146008 On ch=1 n=c#6 v=69
146010 On ch=1 n=a#4 v=89
146010 On ch=1 n=a#5 v=67
146078 Off ch=1 n=c5 v=64
146154 Off ch=1 n=c#6 v=64
146156 Off ch=1 n=a#4 v=64
146194 Off ch=1 n=a#5 v=64
146236 On ch=1 n=c#6 v=61
146236 On ch=1 n=a#4 v=83
146246 On ch=1 n=a#5 v=85
146364 Off ch=1 n=a#5 v=64
146374 Off ch=1 n=c#6 v=64
146374 Off ch=1 n=a#4 v=64
146436 On ch=1 n=a#5 v=68
146440 On ch=1 n=c#6 v=71
146440 On ch=1 n=g5 v=91
146552 Off ch=1 n=g5 v=64
146578 Off ch=1 n=c#6 v=64
146582 Off ch=1 n=a#5 v=64
146630 On ch=1 n=c#6 v=80
146636 On ch=1 n=f5 v=88
146636 On ch=1 n=a#5 v=72
146740 Off ch=1 n=f5 v=64
146754 Off ch=1 n=a#5 v=64
146760 Off ch=1 n=c#6 v=64
146836 On ch=1 n=c#6 v=80
146838 On ch=1 n=f5 v=85
146840 On ch=1 n=a#5 v=67
147030 On ch=1 n=c3 v=106
147144 Off ch=1 n=a#5 v=64
147180 Off ch=1 n=c#6 v=64
147192 Par ch=1 c=64 v=0
147228 On ch=1 n=a#5 v=44
147228 On ch=1 n=c6 v=88
147230 On ch=1 n=e5 v=89
147236 On ch=1 n=c4 v=94
147254 Off ch=1 n=f5 v=64
147278 Off ch=1 n=c3 v=64
147326 Off ch=1 n=c4 v=64
147380 Off ch=1 n=e5 v=64
147394 Par ch=1 c=64 v=127
147438 Off ch=1 n=a#5 v=64
147450 On ch=1 n=c5 v=94
147484 Off ch=1 n=c5 v=64
147586 Off ch=1 n=c6 v=64
147662 On ch=1 n=c5 v=100
147800 Off ch=1 n=c5 v=64
147926 On ch=1 n=c6 v=100
148026 Off ch=1 n=c6 v=64
148268 On ch=1 n=c7 v=111
148270 On ch=1 n=g#3 v=79
148300 Par ch=1 c=64 v=0
148484 Par ch=1 c=64 v=127
148514 Off ch=1 n=g#3 v=64
148576 On ch=1 n=c5 v=45
148746 Off ch=1 n=c5 v=64
148788 On ch=1 n=g#6 v=93
148802 On ch=1 n=f4 v=75
148834 Off ch=1 n=c7 v=64
148900 Off ch=1 n=f4 v=64
148906 Off ch=1 n=g#6 v=64
148994 On ch=1 n=c4 v=63
149168 Off ch=1 n=c4 v=64
149168 On ch=1 n=g6 v=98
149194 On ch=1 n=c5 v=65
149296 Off ch=1 n=c5 v=64
149338 Off ch=1 n=g6 v=64
149370 On ch=1 n=f4 v=95
149408 Off ch=1 n=f4 v=64
149458 On ch=1 n=f6 v=93
149522 On ch=1 n=a#3 v=70
149544 On ch=1 n=d#6 v=97
149544 Par ch=1 c=64 v=0
149598 Off ch=1 n=f6 v=64
149802 On ch=1 n=c#5 v=51
149928 Par ch=1 c=64 v=127
149976 Off ch=1 n=c#5 v=64
150056 On ch=1 n=f4 v=76
150114 On ch=1 n=c#6 v=87
150182 Off ch=1 n=d#6 v=64
150194 Off ch=1 n=f4 v=64
150224 Off ch=1 n=a#3 v=64
150256 On ch=1 n=c#4 v=54
150288 Off ch=1 n=c#6 v=64
150468 On ch=1 n=c6 v=100
150480 On ch=1 n=a#4 v=33
150652 Off ch=1 n=c6 v=64
150652 On ch=1 n=f4 v=88
150746 Off ch=1 n=a#4 v=64
150746 On ch=1 n=a#5 v=75
150786 Off ch=1 n=a#5 v=64
150830 On ch=1 n=a#5 v=81
150920 On ch=1 n=d#4 v=75
150954 On ch=1 n=d#6 v=98
150956 Off ch=1 n=f4 v=64
150970 Off ch=1 n=c#4 v=64
151006 Off ch=1 n=a#5 v=64
151050 Par ch=1 c=64 v=0
151194 On ch=1 n=c5 v=79
151376 Off ch=1 n=c5 v=64
151402 Par ch=1 c=64 v=127
151414 On ch=1 n=g#4 v=75
151484 Off ch=1 n=g#4 v=64
151490 Off ch=1 n=d#6 v=64
151542 Off ch=1 n=d#4 v=64
151626 On ch=1 n=c#5 v=87
151631 On ch=1 n=g5 v=92
151634 Par ch=1 c=64 v=0
151640 On ch=1 n=d#3 v=86
151764 Off ch=1 n=d#3 v=64
151802 Par ch=1 c=64 v=127
151864 On ch=1 n=a#4 v=63
152086 Off ch=1 n=a#4 v=64
152134 Off ch=1 n=g5 v=64
152148 On ch=1 n=d#4 v=69
152264 Off ch=1 n=c#5 v=64
152510 On ch=1 n=g#5 v=80
152526 On ch=1 n=g#4 v=55
152528 On ch=1 n=c5 v=60
152544 On ch=1 n=g#3 v=51
152632 Par ch=1 c=64 v=0
153124 Par ch=1 c=64 v=127
153206 Off ch=1 n=c5 v=64
153320 Off ch=1 n=g#3 v=64
153352 Off ch=1 n=d#4 v=64
153566 Off ch=1 n=g#5 v=64
153626 On ch=1 n=g#3 v=36
153734 On ch=1 n=c6 v=52
153744 Off ch=1 n=g#4 v=64
153798 On ch=1 n=d#4 v=34
153846 Par ch=1 c=64 v=0
153972 On ch=1 n=c5 v=26
154076 Par ch=1 c=64 v=127
154110 On ch=1 n=g#5 v=45
154150 Off ch=1 n=c5 v=64
154210 Off ch=1 n=c6 v=64
154260 On ch=1 n=a#5 v=40
154364 Off ch=1 n=g#5 v=64
154392 On ch=1 n=c6 v=72
154422 Off ch=1 n=a#5 v=64
154514 On ch=1 n=c5 v=16
154568 Off ch=1 n=c5 v=64
154616 On ch=1 n=c#6 v=69
154628 Off ch=1 n=d#4 v=64
154631 On ch=1 n=e4 v=48
154636 Off ch=1 n=c6 v=64
154660 Par ch=1 c=64 v=0
154730 On ch=1 n=c#5 v=58
154852 On ch=1 n=g#5 v=45
154876 Par ch=1 c=64 v=127
154898 Off ch=1 n=c#5 v=64
154950 On ch=1 n=a#5 v=52
154962 Off ch=1 n=c#6 v=64
155056 On ch=1 n=c#6 v=59
155072 Off ch=1 n=g#5 v=64
155148 On ch=1 n=c#5 v=57
155156 Off ch=1 n=a#5 v=64
155220 Off ch=1 n=c#5 v=64
155296 On ch=1 n=d6 v=77
155299 Off ch=1 n=e4 v=64
155306 Par ch=1 c=64 v=0
155324 On ch=1 n=f4 v=64
155350 Off ch=1 n=c#6 v=64
155400 On ch=1 n=d5 v=50
155504 On ch=1 n=g#5 v=54
155522 Par ch=1 c=64 v=127
155542 Off ch=1 n=d5 v=64
155570 Off ch=1 n=d6 v=64
155598 On ch=1 n=a#5 v=51
155678 Off ch=1 n=g#5 v=64
155681 Off ch=1 n=g#3 v=64
155722 On ch=1 n=d6 v=78
155770 Off ch=1 n=a#5 v=64
155818 Off ch=1 n=d6 v=64
155946 Off ch=1 n=f4 v=64
155980 On ch=1 n=d#4 v=39
155983 Par ch=1 c=64 v=0
155988 On ch=1 n=g3 v=31
155994 On ch=1 n=f6 v=67
156126 On ch=1 n=f5 v=29
156276 On ch=1 n=a#5 v=27
156284 Off ch=1 n=f5 v=64
156334 Par ch=1 c=64 v=127
156420 On ch=1 n=c#6 v=31
156422 Off ch=1 n=f6 v=64
156438 Off ch=1 n=a#5 v=64
156450 Off ch=1 n=d#4 v=64
156548 On ch=1 n=d#6 v=44
156668 Off ch=1 n=d#6 v=64
156671 On ch=1 n=d#5 v=30
156686 Off ch=1 n=c#6 v=64
156730 Off ch=1 n=d#5 v=64
156762 Off ch=1 n=g3 v=64
156765 On ch=1 n=c6 v=72
156776 On ch=1 n=g#3 v=38
156796 Par ch=1 c=64 v=0
156798 On ch=1 n=d#4 v=30
156874 On ch=1 n=c5 v=52
156992 On ch=1 n=g#5 v=51
157022 Off ch=1 n=c5 v=64
157026 Par ch=1 c=64 v=127
157092 Off ch=1 n=c6 v=64
157100 On ch=1 n=a#5 v=50
157188 Off ch=1 n=g#5 v=64
157190 On ch=1 n=c6 v=55
157272 Off ch=1 n=a#5 v=64
157292 On ch=1 n=c5 v=68
157306 Off ch=1 n=c6 v=64
157340 Off ch=1 n=c5 v=64
157408 On ch=1 n=c#6 v=79
157414 On ch=1 n=e4 v=80
157444 Off ch=1 n=d#4 v=64
157518 On ch=1 n=c#5 v=61
157564 Par ch=1 c=64 v=0
157634 On ch=1 n=g#5 v=53
157722 Off ch=1 n=c#5 v=64
157734 Off ch=1 n=c#6 v=64
157734 Par ch=1 c=64 v=127
157740 On ch=1 n=a#5 v=58
157832 On ch=1 n=c#6 v=71
157835 Off ch=1 n=g#5 v=64
157922 On ch=1 n=c#5 v=68
157944 Off ch=1 n=a#5 v=64
157984 Off ch=1 n=c#5 v=64
158030 Off ch=1 n=c#6 v=64
158050 On ch=1 n=d6 v=91
158056 Off ch=1 n=e4 v=64
158060 On ch=1 n=f4 v=81
158088 Par ch=1 c=64 v=0
158162 On ch=1 n=d5 v=59
158254 On ch=1 n=g#5 v=55
158300 Off ch=1 n=d5 v=64
158316 Par ch=1 c=64 v=127
158336 Off ch=1 n=d6 v=64
158336 On ch=1 n=a#5 v=65
158438 Off ch=1 n=g#5 v=64
158450 On ch=1 n=d6 v=77
158498 Off ch=1 n=g#3 v=64
158542 Off ch=1 n=a#5 v=64
158558 On ch=1 n=d5 v=44
158566 Off ch=1 n=d6 v=64
158566 On ch=1 n=g3 v=34
158616 Off ch=1 n=d5 v=64
158664 Off ch=1 n=f4 v=64
158710 On ch=1 n=f6 v=83
158740 On ch=1 n=d#4 v=43
158748 Par ch=1 c=64 v=0
158830 On ch=1 n=f5 v=54
158960 On ch=1 n=a#5 v=47
158988 Off ch=1 n=f5 v=64
159008 Par ch=1 c=64 v=127
159088 On ch=1 n=c#6 v=62
159108 Off ch=1 n=d#4 v=64
159116 Off ch=1 n=f6 v=64
159122 Off ch=1 n=a#5 v=64
159228 On ch=1 n=d#6 v=75
159310 Off ch=1 n=g3 v=64
159330 Off ch=1 n=c#6 v=64
159352 On ch=1 n=d#5 v=65
159380 On ch=1 n=g#3 v=48
159402 Off ch=1 n=d#6 v=64
159408 Off ch=1 n=d#5 v=64
159516 On ch=1 n=d#4 v=34
159520 On ch=1 n=c6 v=81
159632 On ch=1 n=c5 v=66
159640 Par ch=1 c=64 v=0
159750 On ch=1 n=g#5 v=52
159800 Off ch=1 n=c5 v=64
159832 Par ch=1 c=64 v=127
159846 On ch=1 n=a#5 v=56
159851 Off ch=1 n=c6 v=64
159956 Off ch=1 n=g#5 v=64
159968 On ch=1 n=c6 v=64
159974 On ch=1 n=g#4 v=72
160062 Off ch=1 n=g#3 v=64
160062 Off ch=1 n=a#5 v=64
160070 On ch=1 n=c5 v=55
160086 Off ch=1 n=g#4 v=64
160100 Off ch=1 n=c6 v=64
160154 Off ch=1 n=c5 v=64
160218 On ch=1 n=c6 v=70
160232 On ch=1 n=g#4 v=61
160235 On ch=1 n=a#3 v=44
160266 Off ch=1 n=d#4 v=64
160318 On ch=1 n=c#5 v=67
160346 Par ch=1 c=64 v=0
160446 On ch=1 n=g5 v=55
160480 Off ch=1 n=c#5 v=64
160530 Par ch=1 c=64 v=127
160550 On ch=1 n=g#5 v=60
160604 Off ch=1 n=g5 v=64
160628 Off ch=1 n=c6 v=64
160628 Off ch=1 n=g#4 v=64
160642 On ch=1 n=g4 v=68
160654 On ch=1 n=a#5 v=65
160740 Off ch=1 n=g#5 v=64
160758 On ch=1 n=c#5 v=64
160792 Off ch=1 n=a#5 v=64
160818 Off ch=1 n=c#5 v=64
160874 On ch=1 n=g#5 v=75
160888 Off ch=1 n=g4 v=64
160890 On ch=1 n=f4 v=84
160914 On ch=1 n=c4 v=38
160974 On ch=1 n=a#4 v=46
160980 Off ch=1 n=a#3 v=64
160990 Par ch=1 c=64 v=0
161092 On ch=1 n=e5 v=58
161226 On ch=1 n=f5 v=52
161254 Off ch=1 n=a#4 v=64
161282 Off ch=1 n=f4 v=64
161308 On ch=1 n=e4 v=77
161312 On ch=1 n=g5 v=76
161318 Off ch=1 n=e5 v=64
161330 Par ch=1 c=64 v=127
161380 Off ch=1 n=f5 v=64
161382 Off ch=1 n=g#5 v=64
161396 Off ch=1 n=c4 v=64
161398 On ch=1 n=a#4 v=50
161420 Off ch=1 n=e4 v=64
161492 Off ch=1 n=g5 v=64
161512 Off ch=1 n=a#4 v=64
161534 On ch=1 n=g#5 v=64
161546 On ch=1 n=f4 v=75
161552 On ch=1 n=f3 v=59
161634 On ch=1 n=g#4 v=55
161652 Par ch=1 c=64 v=0
161766 On ch=1 n=f5 v=59
161866 Par ch=1 c=64 v=127
161882 Off ch=1 n=g#5 v=64
161884 On ch=1 n=g5 v=58
161890 Off ch=1 n=g#4 v=64
161972 Off ch=1 n=f3 v=64
161982 On ch=1 n=g#5 v=39
161988 Off ch=1 n=f5 v=64
162052 Off ch=1 n=g5 v=64
162062 Off ch=1 n=g#5 v=64
162066 On ch=1 n=g#4 v=65
162128 Off ch=1 n=g#4 v=64
162182 On ch=1 n=g#5 v=68
162186 On ch=1 n=f3 v=91
162236 Par ch=1 c=64 v=0
162286 On ch=1 n=g#4 v=54
162408 On ch=1 n=f5 v=59
162476 Off ch=1 n=g#5 v=64
162496 Par ch=1 c=64 v=127
162501 Off ch=1 n=g#4 v=64
162518 Off ch=1 n=f4 v=64
162520 On ch=1 n=g5 v=59
162614 On ch=1 n=g#3 v=78
162620 On ch=1 n=g#5 v=64
162624 Off ch=1 n=f3 v=64
162690 Off ch=1 n=g5 v=64
162720 On ch=1 n=g#4 v=58
162740 Off ch=1 n=f5 v=64
162776 Off ch=1 n=g#5 v=64
162794 Off ch=1 n=g#4 v=64
162846 On ch=1 n=g5 v=67
162864 On ch=1 n=c4 v=53
162864 Par ch=1 c=64 v=0
162880 On ch=1 n=d#4 v=42
162892 Off ch=1 n=g#3 v=64
162974 On ch=1 n=g4 v=35
163066 On ch=1 n=d#5 v=50
163122 Off ch=1 n=d#4 v=64
163134 Par ch=1 c=64 v=127
163142 Off ch=1 n=g5 v=64
163146 Off ch=1 n=g4 v=64
163164 Off ch=1 n=c4 v=64
163200 On ch=1 n=f5 v=34
163298 Off ch=1 n=d#5 v=64
163301 On ch=1 n=c3 v=75
163308 On ch=1 n=g5 v=52
163372 Off ch=1 n=g5 v=64
163375 Off ch=1 n=f5 v=64
163398 Off ch=1 n=c3 v=64
163416 On ch=1 n=g4 v=30
163482 Off ch=1 n=g4 v=64
163520 On ch=1 n=c#4 v=58
163520 On ch=1 n=c#3 v=74
163528 On ch=1 n=f5 v=52
163556 Par ch=1 c=64 v=0
163622 On ch=1 n=f4 v=88
163732 On ch=1 n=c#5 v=58
163778 Off ch=1 n=f5 v=64
163806 Off ch=1 n=f4 v=64
163828 On ch=1 n=d#5 v=66
163834 Par ch=1 c=64 v=127
163916 On ch=1 n=f3 v=71
163926 On ch=1 n=f5 v=68
163936 Off ch=1 n=c#5 v=64
164026 On ch=1 n=f4 v=79
164028 Off ch=1 n=d#5 v=64
164048 Off ch=1 n=f5 v=64
164058 Off ch=1 n=c#4 v=64
164090 Off ch=1 n=f4 v=64
164092 Off ch=1 n=c#3 v=64
164184 On ch=1 n=g#3 v=50
164186 On ch=1 n=d#5 v=60
164189 On ch=1 n=c4 v=38
164214 Off ch=1 n=f3 v=64
164217 Par ch=1 c=64 v=0
164288 On ch=1 n=d#4 v=55
164422 On ch=1 n=c5 v=47
164434 Off ch=1 n=d#5 v=64
164478 Off ch=1 n=c4 v=64
164520 On ch=1 n=c#5 v=50
164526 Par ch=1 c=64 v=127
164548 Off ch=1 n=g#3 v=64
164554 Off ch=1 n=d#4 v=64
164592 Off ch=1 n=c5 v=64
164630 On ch=1 n=d#5 v=49
164674 Off ch=1 n=c#5 v=64
164690 Off ch=1 n=d#5 v=64
164716 On ch=1 n=d#4 v=43
164776 Off ch=1 n=d#4 v=64
164826 On ch=1 n=d#5 v=56
164846 On ch=1 n=g#2 v=73
164932 On ch=1 n=d#4 v=50
164968 Off ch=1 n=d#5 v=64
165046 On ch=1 n=c5 v=53
165140 On ch=1 n=c#5 v=48
165164 Off ch=1 n=d#4 v=64
165216 Off ch=1 n=c5 v=64
165232 On ch=1 n=d#5 v=56
165246 On ch=1 n=a#2 v=61
165292 Off ch=1 n=c#5 v=64
165326 On ch=1 n=d#4 v=66
165336 Off ch=1 n=d#5 v=64
165414 Off ch=1 n=g#2 v=64
165436 Off ch=1 n=d#4 v=64
165464 On ch=1 n=c3 v=75
165478 On ch=1 n=d#5 v=60
165528 Off ch=1 n=a#2 v=64
165580 On ch=1 n=d#4 v=84
165618 Off ch=1 n=d#5 v=64
165630 Par ch=1 c=64 v=0
165688 On ch=1 n=c5 v=59
165776 On ch=1 n=c#5 v=65
165794 Off ch=1 n=d#4 v=64
165800 Par ch=1 c=64 v=127
165848 On ch=1 n=c#3 v=86
165851 On ch=1 n=d#5 v=71
165860 Off ch=1 n=c5 v=64
165922 Off ch=1 n=c3 v=64
165942 On ch=1 n=f4 v=68
165946 Off ch=1 n=c#5 v=64
165964 Off ch=1 n=d#5 v=64
166020 Off ch=1 n=f4 v=64
166056 On ch=1 n=d#3 v=85
166066 On ch=1 n=d#5 v=52
166144 Off ch=1 n=c#3 v=64
166154 On ch=1 n=g4 v=66
166230 Par ch=1 c=64 v=0
166276 On ch=1 n=c5 v=58
166316 Off ch=1 n=d#5 v=64
166332 On ch=1 n=c#5 v=65
166406 Off ch=1 n=g4 v=64
166428 Off ch=1 n=c5 v=64
166428 Par ch=1 c=64 v=127
166456 On ch=1 n=d#5 v=69
166462 On ch=1 n=f3 v=92
166508 Off ch=1 n=d#3 v=64
166526 Off ch=1 n=c#5 v=64
166556 On ch=1 n=g#4 v=60
166590 Off ch=1 n=d#5 v=64
166630 Off ch=1 n=g#4 v=64
166684 On ch=1 n=d#5 v=54
166700 On ch=1 n=f#3 v=70
166722 Par ch=1 c=64 v=0
166740 Off ch=1 n=f3 v=64
166810 On ch=1 n=a4 v=64
166878 Off ch=1 n=d#5 v=64
166924 On ch=1 n=c5 v=51
167010 Off ch=1 n=a4 v=64
167013 Par ch=1 c=64 v=127
167024 On ch=1 n=c#5 v=61
167094 Off ch=1 n=c5 v=64
167128 Off ch=1 n=f#3 v=64
167136 On ch=1 n=g3 v=72
167148 On ch=1 n=d#5 v=58
167162 Off ch=1 n=c#5 v=64
167218 On ch=1 n=a#4 v=54
167246 Off ch=1 n=d#5 v=64
167322 Par ch=1 c=64 v=0
167348 On ch=1 n=g#3 v=59
167402 Off ch=1 n=g3 v=64
167426 On ch=1 n=d#4 v=52
167440 On ch=1 n=d#5 v=75
167464 Off ch=1 n=a#4 v=64
167572 On ch=1 n=b4 v=59
167682 On ch=1 n=c5 v=59
167716 Off ch=1 n=b4 v=64
167766 On ch=1 n=d5 v=86
167826 Off ch=1 n=c5 v=64
167829 Par ch=1 c=64 v=127
167834 Off ch=1 n=d#5 v=64
167876 On ch=1 n=b4 v=62
167890 On ch=1 n=d4 v=79
167893 Off ch=1 n=d#4 v=64
167980 On ch=1 n=c5 v=67
168010 Off ch=1 n=b4 v=64
168086 On ch=1 n=d#5 v=86
168128 Off ch=1 n=c5 v=64
168130 On ch=1 n=d#4 v=71
168152 Off ch=1 n=d4 v=64
168198 Off ch=1 n=d5 v=64
168220 On ch=1 n=b4 v=59
168228 Par ch=1 c=64 v=0
168314 On ch=1 n=c5 v=58
168344 Off ch=1 n=b4 v=64
168418 On ch=1 n=e5 v=90
168442 Par ch=1 c=64 v=127
168466 Off ch=1 n=c5 v=64
168476 On ch=1 n=e4 v=83
168486 Off ch=1 n=d#5 v=64
168518 Off ch=1 n=d#4 v=64
168518 On ch=1 n=b4 v=63
168528 Off ch=1 n=g#3 v=64
168614 On ch=1 n=c5 v=72
168622 Off ch=1 n=e5 v=64
168630 On ch=1 n=a3 v=53
168664 Off ch=1 n=b4 v=64
168688 Par ch=1 c=64 v=0
168734 On ch=1 n=f5 v=69
168742 Off ch=1 n=e4 v=64
168754 On ch=1 n=f4 v=91
168770 Off ch=1 n=c5 v=64
168890 On ch=1 n=b4 v=52
168980 Off ch=1 n=b4 v=64
168988 On ch=1 n=c5 v=55
169102 On ch=1 n=d#5 v=78
169130 Off ch=1 n=c5 v=64
169152 Off ch=1 n=f5 v=64
169196 Off ch=1 n=f4 v=64
169226 Par ch=1 c=64 v=127
169240 On ch=1 n=b4 v=46
169248 On ch=1 n=d#4 v=51
169349 On ch=1 n=c5 v=54
169356 Off ch=1 n=b4 v=64
169384 Off ch=1 n=d#4 v=64
169494 Off ch=1 n=c5 v=64
169500 On ch=1 n=c#5 v=59
169516 On ch=1 n=c#4 v=34
169522 Off ch=1 n=a3 v=64
169540 Off ch=1 n=d#5 v=64
169542 On ch=1 n=a#3 v=32
169606 On ch=1 n=a4 v=34
169626 Par ch=1 c=64 v=0
169710 On ch=1 n=a#4 v=45
169732 Off ch=1 n=c#5 v=64
169760 Off ch=1 n=a4 v=64
169820 On ch=1 n=c#5 v=57
169834 Off ch=1 n=c#4 v=64
169842 Par ch=1 c=64 v=127
169864 Off ch=1 n=a#4 v=64
169908 Off ch=1 n=a#3 v=64
169922 On ch=1 n=a4 v=53
169980 Off ch=1 n=c#5 v=64
170000 Off ch=1 n=a4 v=64
170020 On ch=1 n=a#4 v=45
170128 On ch=1 n=f5 v=64
170158 On ch=1 n=a#2 v=67
170161 Off ch=1 n=a#4 v=64
170226 On ch=1 n=f4 v=74
170326 Off ch=1 n=f5 v=64
170344 On ch=1 n=c#5 v=57
170378 Off ch=1 n=f4 v=64
170442 On ch=1 n=d#5 v=64
170530 Off ch=1 n=c#5 v=64
170542 On ch=1 n=f5 v=68
170552 On ch=1 n=c3 v=80
170570 Off ch=1 n=a#2 v=64
170638 Off ch=1 n=d#5 v=64
170656 On ch=1 n=f4 v=91
170659 Off ch=1 n=f5 v=64
170742 Off ch=1 n=f4 v=64
170780 On ch=1 n=f5 v=56
170788 On ch=1 n=c#3 v=83
170834 Off ch=1 n=c3 v=64
170884 On ch=1 n=f4 v=100
170932 Par ch=1 c=64 v=0
170956 Off ch=1 n=f5 v=64
170993 On ch=1 n=c#5 v=65
171084 On ch=1 n=d#5 v=68
171102 Par ch=1 c=64 v=127
171142 Off ch=1 n=f4 v=64
171180 On ch=1 n=d#3 v=79
171188 On ch=1 n=f5 v=67
171248 Off ch=1 n=c#5 v=64
171276 Off ch=1 n=c#3 v=64
171294 On ch=1 n=g4 v=81
171322 Off ch=1 n=f5 v=64
171324 Off ch=1 n=d#5 v=64
171408 Off ch=1 n=g4 v=64
171424 On ch=1 n=f5 v=54
171432 On ch=1 n=f3 v=92
171488 Off ch=1 n=d#3 v=64
171526 On ch=1 n=a4 v=68
171546 Par ch=1 c=64 v=0
171630 On ch=1 n=c#5 v=70
171648 Off ch=1 n=f5 v=64
171730 On ch=1 n=d#5 v=70
171776 Par ch=1 c=64 v=127
171810 Off ch=1 n=a4 v=64
171828 On ch=1 n=f5 v=68
171882 On ch=1 n=g3 v=77
171900 Off ch=1 n=f3 v=64
171900 Off ch=1 n=c#5 v=64
171922 Off ch=1 n=d#5 v=64
171932 On ch=1 n=a#4 v=75
171982 Off ch=1 n=f5 v=64
172064 On ch=1 n=f5 v=58
172072 Off ch=1 n=a#4 v=64
172106 On ch=1 n=g#3 v=72
172148 Off ch=1 n=g3 v=64
172200 Par ch=1 c=64 v=0
172204 On ch=1 n=b4 v=84
172336 Off ch=1 n=f5 v=64
172346 On ch=1 n=d5 v=67
172436 On ch=1 n=d#5 v=72
172438 Par ch=1 c=64 v=127
172524 Off ch=1 n=d5 v=64
172560 Off ch=1 n=g#3 v=64
172586 Off ch=1 n=b4 v=64
172586 On ch=1 n=f5 v=71
172602 On ch=1 n=a3 v=60
172644 Off ch=1 n=d#5 v=64
172722 On ch=1 n=c5 v=73
172734 Off ch=1 n=f5 v=64
172824 On ch=1 n=a#3 v=59
172884 Off ch=1 n=a3 v=64
172890 Off ch=1 n=c5 v=64
172910 On ch=1 n=f4 v=76
172920 On ch=1 n=f5 v=84
172976 Par ch=1 c=64 v=0
173050 On ch=1 n=c5 v=62
173152 On ch=1 n=c#5 v=69
173202 Off ch=1 n=c5 v=64
173262 On ch=1 n=e5 v=92
173267 Par ch=1 c=64 v=127
173290 Off ch=1 n=c#5 v=64
173318 Off ch=1 n=f5 v=64
173334 Off ch=1 n=f4 v=64
173338 On ch=1 n=e4 v=85
173374 On ch=1 n=c5 v=63
173476 On ch=1 n=c#5 v=76
173508 Off ch=1 n=c5 v=64
173598 On ch=1 n=f5 v=89
173626 On ch=1 n=f4 v=95
173628 Off ch=1 n=c#5 v=64
173636 Par ch=1 c=64 v=0
173650 Off ch=1 n=e5 v=64
173662 Off ch=1 n=e4 v=64
173720 On ch=1 n=c5 v=67
173804 Par ch=1 c=64 v=127
173828 On ch=1 n=c#5 v=72
173846 Off ch=1 n=f5 v=64
173872 Off ch=1 n=f4 v=64
173878 Off ch=1 n=c5 v=64
173940 On ch=1 n=f5 v=58
173946 Off ch=1 n=c#5 v=64
173970 On ch=1 n=f#5 v=28
173984 On ch=1 n=f4 v=96
174004 Off ch=1 n=a#3 v=64
174032 Off ch=1 n=f#5 v=64
174086 On ch=1 n=c5 v=51
174162 On ch=1 n=c#5 v=65
174176 Off ch=1 n=c5 v=64
174206 On ch=1 n=a#3 v=44
174280 Off ch=1 n=c#5 v=64
174374 Par ch=1 c=64 v=0
174378 On ch=1 n=a#5 v=67
174388 On ch=1 n=a#4 v=53
174430 Off ch=1 n=f4 v=64
174466 Off ch=1 n=f5 v=64
174612 On ch=1 n=c5 v=40
174750 On ch=1 n=c#5 v=56
174754 Off ch=1 n=c5 v=64
174804 Par ch=1 c=64 v=127
174846 Off ch=1 n=c#5 v=64
174896 On ch=1 n=g#5 v=65
174984 Off ch=1 n=a#5 v=64
174990 Off ch=1 n=a#4 v=64
175008 On ch=1 n=g#4 v=47
175056 On ch=1 n=c5 v=43
175190 On ch=1 n=c#5 v=47
175224 Off ch=1 n=c5 v=64
175236 Off ch=1 n=g#5 v=64
175332 Off ch=1 n=g#4 v=64
175344 On ch=1 n=g5 v=55
175370 On ch=1 n=g4 v=53
175373 Par ch=1 c=64 v=0
175412 On ch=1 n=d#4 v=33
175422 Off ch=1 n=c#5 v=64
175488 Off ch=1 n=a#3 v=64
175510 On ch=1 n=c5 v=40
175624 On ch=1 n=c#5 v=54
175664 Off ch=1 n=c5 v=64
175682 Off ch=1 n=g5 v=64
175696 Par ch=1 c=64 v=127
175758 On ch=1 n=g5 v=57
175768 Off ch=1 n=g4 v=64
175772 Off ch=1 n=c#5 v=64
175836 Off ch=1 n=d#4 v=64
175892 On ch=1 n=c5 v=30
175996 Off ch=1 n=c5 v=64
176008 On ch=1 n=c#5 v=60
176054 Off ch=1 n=c#5 v=64
176066 Off ch=1 n=g5 v=64
176170 On ch=1 n=c6 v=85
176180 On ch=1 n=g#2 v=55
176232 Par ch=1 c=64 v=0
176330 On ch=1 n=c5 v=52
176370 Off ch=1 n=g#2 v=64
176386 Par ch=1 c=64 v=127
176512 On ch=1 n=g#5 v=52
176517 Off ch=1 n=c6 v=64
176560 Off ch=1 n=c5 v=64
176562 On ch=1 n=d#4 v=60
176632 On ch=1 n=a#5 v=57
176704 Off ch=1 n=g#5 v=64
176752 On ch=1 n=c6 v=70
176776 Off ch=1 n=d#4 v=64
176784 On ch=1 n=d#3 v=68
176848 On ch=1 n=c5 v=72
176860 Off ch=1 n=c6 v=64
176863 Off ch=1 n=d#3 v=64
176904 Off ch=1 n=c5 v=64
176956 Par ch=1 c=64 v=0
176972 On ch=1 n=c#6 v=90
176974 Off ch=1 n=a#5 v=64
176986 On ch=1 n=g#2 v=75
177030 Off ch=1 n=g#2 v=64
177072 On ch=1 n=c#5 v=81
177077 Par ch=1 c=64 v=127
177184 On ch=1 n=e4 v=101
177186 On ch=1 n=g#5 v=60
177252 Off ch=1 n=c#5 v=64
177284 On ch=1 n=a#5 v=61
177290 Off ch=1 n=c#6 v=64
177334 Off ch=1 n=e4 v=64
177392 On ch=1 n=c#6 v=71
177396 Off ch=1 n=g#5 v=64
177400 On ch=1 n=e3 v=92
177442 Off ch=1 n=e3 v=64
177496 On ch=1 n=c#5 v=69
177512 Off ch=1 n=a#5 v=64
177566 Off ch=1 n=c#6 v=64
177600 Off ch=1 n=c#5 v=64
177646 On ch=1 n=d6 v=105
177648 Par ch=1 c=64 v=0
177648 On ch=1 n=g#2 v=70
177752 On ch=1 n=d5 v=77
177754 Off ch=1 n=g#2 v=64
177784 Par ch=1 c=64 v=127
177856 On ch=1 n=f4 v=111
177864 On ch=1 n=g#5 v=66
177898 Off ch=1 n=d5 v=64
177910 Off ch=1 n=d6 v=64
177952 On ch=1 n=a#5 v=68
177994 Off ch=1 n=f4 v=64
178044 Off ch=1 n=g#5 v=64
178056 On ch=1 n=f3 v=84
178064 On ch=1 n=d6 v=84
178152 Off ch=1 n=a#5 v=64
178154 Off ch=1 n=f3 v=64
178172 On ch=1 n=d5 v=74
178214 Off ch=1 n=d5 v=64
178250 Off ch=1 n=d6 v=64
178348 On ch=1 n=f6 v=99
178352 On ch=1 n=g2 v=98
178384 Par ch=1 c=64 v=0
178508 On ch=1 n=f5 v=54
178518 Off ch=1 n=g2 v=64
178538 Par ch=1 c=64 v=127
178632 On ch=1 n=d#4 v=80
178652 On ch=1 n=a#5 v=52
178672 Off ch=1 n=f5 v=64
178752 On ch=1 n=c#6 v=67
178780 Off ch=1 n=f6 v=64
178806 Off ch=1 n=d#4 v=64
178832 Off ch=1 n=a#5 v=64
178874 On ch=1 n=d#6 v=81
178877 On ch=1 n=d#3 v=74
178978 Off ch=1 n=d#3 v=64
178986 On ch=1 n=d#5 v=55
179000 Off ch=1 n=c#6 v=64
179014 Off ch=1 n=d#6 v=64
179050 Off ch=1 n=d#5 v=64
179076 Par ch=1 c=64 v=0
179092 On ch=1 n=c6 v=92
179100 On ch=1 n=g#2 v=92
179214 On ch=1 n=c5 v=63
179230 Par ch=1 c=64 v=127
179242 Off ch=1 n=g#2 v=64
179330 On ch=1 n=g#5 v=68
179336 On ch=1 n=d#4 v=86
179362 Off ch=1 n=c5 v=64
179376 Off ch=1 n=c6 v=64
179434 On ch=1 n=a#5 v=66
179508 Off ch=1 n=g#5 v=64
179510 Off ch=1 n=d#4 v=64
179540 On ch=1 n=c6 v=87
179542 On ch=1 n=d#3 v=78
179608 Off ch=1 n=a#5 v=64
179616 On ch=1 n=c5 v=74
179648 Off ch=1 n=c6 v=64
179654 Off ch=1 n=d#3 v=64
179684 Off ch=1 n=c5 v=64
179736 Par ch=1 c=64 v=0
179740 On ch=1 n=c#6 v=100
179742 On ch=1 n=g#2 v=86
179832 On ch=1 n=c#5 v=85
179850 Off ch=1 n=g#2 v=64
179858 Par ch=1 c=64 v=127
179952 On ch=1 n=g#5 v=70
179952 On ch=1 n=e4 v=104
180010 Off ch=1 n=c#5 v=64
180054 On ch=1 n=a#5 v=69
180056 Off ch=1 n=c#6 v=64
180096 Off ch=1 n=e4 v=64
180146 Off ch=1 n=g#5 v=64
180154 On ch=1 n=e3 v=98
180160 On ch=1 n=c#6 v=80
180242 Off ch=1 n=e3 v=64
180245 On ch=1 n=c#5 v=77
180266 Off ch=1 n=a#5 v=64
180330 Off ch=1 n=c#6 v=64
180340 Par ch=1 c=64 v=0
180354 Off ch=1 n=c#5 v=64
180360 On ch=1 n=g#2 v=92
180372 On ch=1 n=d6 v=102
180456 Off ch=1 n=g#2 v=64
180474 On ch=1 n=d5 v=74
180490 Par ch=1 c=64 v=127
180582 Off ch=1 n=d6 v=64
180582 On ch=1 n=f4 v=113
180585 On ch=1 n=g#5 v=67
180640 Off ch=1 n=d5 v=64
180680 On ch=1 n=a#5 v=69
180710 Off ch=1 n=f4 v=64
180784 Off ch=1 n=g#5 v=64
180784 On ch=1 n=f3 v=91
180806 On ch=1 n=d6 v=89
180876 Off ch=1 n=f3 v=64
180888 On ch=1 n=d5 v=75
180906 Off ch=1 n=a#5 v=64
180932 Off ch=1 n=d5 v=64
180952 Off ch=1 n=d6 v=64
181042 Par ch=1 c=64 v=0
181046 On ch=1 n=g2 v=101
181051 On ch=1 n=f6 v=101
181178 Off ch=1 n=g2 v=64
181212 On ch=1 n=f5 v=61
181242 Par ch=1 c=64 v=127
181344 On ch=1 n=d#4 v=80
181352 On ch=1 n=a#5 v=54
181382 Off ch=1 n=f5 v=64
181448 On ch=1 n=c#6 v=65
181460 Off ch=1 n=f6 v=64
181516 Off ch=1 n=a#5 v=64
181528 Off ch=1 n=d#4 v=64
181566 On ch=1 n=d#6 v=79
181584 On ch=1 n=d#3 v=81
181668 On ch=1 n=d#5 v=79
181678 Off ch=1 n=c#6 v=64
181696 Off ch=1 n=d#3 v=64
181706 Off ch=1 n=d#6 v=64
181748 Off ch=1 n=d#5 v=64
181796 On ch=1 n=c6 v=88
181806 On ch=1 n=g#3 v=90
181842 Par ch=1 c=64 v=0
181910 On ch=1 n=c5 v=81
182016 On ch=1 n=d#4 v=84
182026 On ch=1 n=g#5 v=71
182048 Off ch=1 n=c5 v=64
182072 Par ch=1 c=64 v=127
182110 Off ch=1 n=c6 v=64
182128 On ch=1 n=a#5 v=68
182146 Off ch=1 n=g#3 v=64
182232 Off ch=1 n=g#5 v=64
182234 On ch=1 n=c6 v=79
182248 On ch=1 n=g#4 v=90
182310 Off ch=1 n=a#5 v=64
182326 On ch=1 n=c5 v=80
182354 Off ch=1 n=c6 v=64
182374 Off ch=1 n=g#4 v=64
182386 Off ch=1 n=c5 v=64
182410 On ch=1 n=a#3 v=66
182482 On ch=1 n=c6 v=88
182498 Off ch=1 n=d#4 v=64
182502 Par ch=1 c=64 v=0
182504 On ch=1 n=g#4 v=76
182578 On ch=1 n=c#5 v=76
182706 On ch=1 n=g5 v=61
182762 Par ch=1 c=64 v=127
182776 Off ch=1 n=c#5 v=64
182822 On ch=1 n=g#5 v=62
182854 Off ch=1 n=g#4 v=64
182910 Off ch=1 n=c6 v=64
182910 Off ch=1 n=g5 v=64
182932 On ch=1 n=g4 v=67
182950 On ch=1 n=a#5 v=70
183032 Off ch=1 n=g#5 v=64
183060 On ch=1 n=c#5 v=62
183090 Off ch=1 n=a#5 v=64
183122 Off ch=1 n=g4 v=64
183124 Off ch=1 n=c#5 v=64
183166 On ch=1 n=g#5 v=86
183172 Off ch=1 n=a#3 v=64
183178 On ch=1 n=c4 v=47
183182 On ch=1 n=f4 v=78
183224 Par ch=1 c=64 v=0
183284 On ch=1 n=a#4 v=52
183386 On ch=1 n=e5 v=49
183424 Par ch=1 c=64 v=127
183426 Off ch=1 n=f4 v=64
183432 Off ch=1 n=a#4 v=64
183478 Off ch=1 n=g#5 v=64
183494 On ch=1 n=f5 v=53
183540 Off ch=1 n=e5 v=64
183554 On ch=1 n=e4 v=83
183586 On ch=1 n=g5 v=75
183620 Off ch=1 n=c4 v=64
183622 Off ch=1 n=f5 v=64
183632 Off ch=1 n=e4 v=64
183652 On ch=1 n=a#4 v=48
183720 Off ch=1 n=g5 v=64
183758 Off ch=1 n=a#4 v=64
183784 On ch=1 n=f4 v=94
183788 On ch=1 n=f3 v=78
183792 Par ch=1 c=64 v=0
183794 On ch=1 n=g#5 v=63
183882 On ch=1 n=g#4 v=70
184004 On ch=1 n=f5 v=63
184062 Off ch=1 n=g#5 v=64
184070 Par ch=1 c=64 v=127
184126 On ch=1 n=g5 v=64
184130 Off ch=1 n=g#4 v=64
184198 Off ch=1 n=f3 v=64
184216 Off ch=1 n=f5 v=64
184230 On ch=1 n=g#5 v=71
184240 Off ch=1 n=f4 v=64
184302 Off ch=1 n=g5 v=64
184320 On ch=1 n=g#4 v=71
184348 Off ch=1 n=g#5 v=64
184420 On ch=1 n=f3 v=84
184428 Off ch=1 n=g#4 v=64
184430 On ch=1 n=f4 v=91
184438 Par ch=1 c=64 v=0
184438 On ch=1 n=g#5 v=63
184536 On ch=1 n=g#4 v=63
184652 On ch=1 n=f5 v=68
184674 Off ch=1 n=g#5 v=64
184684 Par ch=1 c=64 v=127
184732 Off ch=1 n=f4 v=64
184744 Off ch=1 n=g#4 v=64
184764 On ch=1 n=g5 v=69
184838 On ch=1 n=g#3 v=82
184854 On ch=1 n=g#5 v=72
184866 Off ch=1 n=f3 v=64
184930 Off ch=1 n=g5 v=64
184960 On ch=1 n=g#4 v=61
185006 Off ch=1 n=g#5 v=64
185030 Off ch=1 n=f5 v=64
185040 Off ch=1 n=g#4 v=64
185118 On ch=1 n=g5 v=72
185128 On ch=1 n=d#4 v=43
185134 On ch=1 n=c4 v=54
185144 Par ch=1 c=64 v=0
185149 Off ch=1 n=g#3 v=64
185250 On ch=1 n=g4 v=66
185376 Par ch=1 c=64 v=127
185386 On ch=1 n=d#5 v=58
185406 Off ch=1 n=d#4 v=64
185418 Off ch=1 n=c4 v=64
185456 Off ch=1 n=g5 v=64
185474 Off ch=1 n=g4 v=64
185506 On ch=1 n=f5 v=41
185578 On ch=1 n=c3 v=64
185610 On ch=1 n=g5 v=66
185634 Off ch=1 n=d#5 v=64
185677 Off ch=1 n=c3 v=64
185686 Off ch=1 n=f5 v=64
185708 Off ch=1 n=g5 v=64
185732 On ch=1 n=g4 v=39
185798 Off ch=1 n=g4 v=64
185852 On ch=1 n=c#4 v=44
185852 On ch=1 n=f5 v=54
185855 On ch=1 n=c#3 v=50
185912 Par ch=1 c=64 v=0
185954 On ch=1 n=f4 v=84
186082 On ch=1 n=c#5 v=56
186118 Off ch=1 n=f4 v=64
186156 Off ch=1 n=f5 v=64
186216 On ch=1 n=d#5 v=56
186221 Par ch=1 c=64 v=127
186272 On ch=1 n=f3 v=46
186310 Off ch=1 n=c#5 v=64
186320 On ch=1 n=f5 v=55
186382 Off ch=1 n=d#5 v=64
186430 On ch=1 n=f4 v=67
186435 Off ch=1 n=f5 v=64
186448 Off ch=1 n=c#4 v=64
186490 Off ch=1 n=f4 v=64
186546 Off ch=1 n=f3 v=64
186580 On ch=1 n=g#3 v=42
186602 On ch=1 n=c4 v=37
186620 Par ch=1 c=64 v=0
186624 On ch=1 n=d#5 v=52
186628 Off ch=1 n=c#3 v=64
186738 On ch=1 n=d#4 v=39
186880 Par ch=1 c=64 v=127
186914 On ch=1 n=c5 v=36
186922 Off ch=1 n=d#5 v=64
186930 Off ch=1 n=c4 v=64
187004 Off ch=1 n=d#4 v=64
187024 Off ch=1 n=g#3 v=64
187064 On ch=1 n=c#5 v=47
187094 Off ch=1 n=c5 v=64
187236 On ch=1 n=d#5 v=44
187268 Off ch=1 n=c#5 v=64
187402 On ch=1 n=d#4 v=41
187534 Off ch=1 n=d#4 v=64
187612 Off ch=1 n=d#5 v=64
187680 Par ch=1 c=64 v=0
187690 On ch=1 n=c2 v=107
187692 On ch=1 n=c3 v=118
187818 Par ch=1 c=64 v=127
187861 Off ch=1 n=c2 v=64
187873 Off ch=1 n=c3 v=64
187966 On ch=1 n=g5 v=87
187966 On ch=1 n=c#6 v=78
187969 On ch=1 n=a#4 v=90
187972 On ch=1 n=a#5 v=62
188022 Off ch=1 n=a#4 v=64
188025 Off ch=1 n=a#5 v=64
188030 Off ch=1 n=g5 v=64
188074 Off ch=1 n=c#6 v=64
188170 On ch=1 n=c#6 v=66
188176 On ch=1 n=c5 v=103
188178 On ch=1 n=g5 v=73
188182 On ch=1 n=a#5 v=65
188228 Off ch=1 n=c5 v=64
188248 Off ch=1 n=g5 v=64
188256 Off ch=1 n=a#5 v=64
188288 Off ch=1 n=c#6 v=64
188402 On ch=1 n=c#6 v=84
188408 On ch=1 n=a#5 v=75
188408 On ch=1 n=c#5 v=115
188408 On ch=1 n=g5 v=91
188572 Off ch=1 n=g5 v=64
188616 Off ch=1 n=c#6 v=64
188616 Off ch=1 n=a#5 v=64
188622 Off ch=1 n=c#5 v=64
188680 On ch=1 n=c#6 v=74
188688 On ch=1 n=a#5 v=62
188700 On ch=1 n=c5 v=94
188706 On ch=1 n=g5 v=59
188732 Off ch=1 n=a#5 v=64
188748 Off ch=1 n=c#6 v=64
188758 Off ch=1 n=g5 v=64
188802 On ch=1 n=c#6 v=89
188804 On ch=1 n=a#4 v=91
188804 On ch=1 n=a#5 v=51
188808 On ch=1 n=g5 v=83
188850 Off ch=1 n=c5 v=64
188912 Off ch=1 n=a#4 v=64
188933 Off ch=1 n=a#5 v=64
188933 Off ch=1 n=g5 v=64
188940 Off ch=1 n=c#6 v=64
188996 On ch=1 n=c#6 v=75
189002 On ch=1 n=a#5 v=60
189002 On ch=1 n=g5 v=64
189008 On ch=1 n=a#4 v=81
189070 Off ch=1 n=g5 v=64
189096 Off ch=1 n=a#4 v=64
189134 Off ch=1 n=c#6 v=64
189134 Off ch=1 n=a#5 v=64
189188 On ch=1 n=c#6 v=82
189191 On ch=1 n=g5 v=91
189194 On ch=1 n=a#5 v=67
189290 Off ch=1 n=c#6 v=64
189298 Off ch=1 n=g5 v=64
189308 Off ch=1 n=a#5 v=64
189378 On ch=1 n=a#5 v=70
189378 On ch=1 n=c#6 v=73
189384 On ch=1 n=f5 v=97
189476 Off ch=1 n=f5 v=64
189510 Off ch=1 n=c#6 v=64
189518 Off ch=1 n=a#5 v=64
189584 On ch=1 n=a#5 v=70
189584 On ch=1 n=c#6 v=76
189588 On ch=1 n=f5 v=89
189778 On ch=1 n=c3 v=109
189816 Par ch=1 c=64 v=0
189864 Off ch=1 n=a#5 v=64
189914 Off ch=1 n=c#6 v=64
189968 On ch=1 n=c4 v=100
189974 On ch=1 n=c6 v=85
189977 On ch=1 n=e5 v=87
189982 Off ch=1 n=c3 v=64
189984 On ch=1 n=a#5 v=54
190014 Off ch=1 n=f5 v=64
190014 Par ch=1 c=64 v=127
190068 Off ch=1 n=c4 v=64
190118 Off ch=1 n=e5 v=64
190130 Off ch=1 n=a#5 v=64
190144 Off ch=1 n=c6 v=64
190176 On ch=1 n=c5 v=106
190276 Off ch=1 n=c5 v=64
190362 On ch=1 n=a#4 v=100
190364 On ch=1 n=c#6 v=82
190364 On ch=1 n=a#5 v=76
190366 On ch=1 n=g5 v=89
190444 Off ch=1 n=a#4 v=64
190502 Off ch=1 n=c#6 v=64
190504 Off ch=1 n=g5 v=64
190510 Off ch=1 n=a#5 v=64
190561 On ch=1 n=c5 v=107
190561 On ch=1 n=c#6 v=78
190565 On ch=1 n=a#5 v=76
190565 On ch=1 n=g5 v=85
190660 Off ch=1 n=c5 v=64
190724 Off ch=1 n=a#5 v=64
190742 Off ch=1 n=c#6 v=64
190748 Off ch=1 n=g5 v=64
190898 On ch=1 n=c3 v=114
190898 On ch=1 n=c#5 v=101
190900 On ch=1 n=c#6 v=92
190902 On ch=1 n=c2 v=111
190902 On ch=1 n=a#5 v=82
190908 On ch=1 n=g5 v=91
190932 Off ch=1 n=c2 v=64
190966 Off ch=1 n=c3 v=64
191116 Off ch=1 n=c#6 v=64
191118 Off ch=1 n=c#5 v=64
191136 Off ch=1 n=a#5 v=64
191162 Off ch=1 n=g5 v=64
191234 On ch=1 n=c5 v=102
191236 On ch=1 n=a#5 v=53
191246 On ch=1 n=c#6 v=60
191292 Off ch=1 n=a#5 v=64
191292 Off ch=1 n=c#6 v=64
191322 Off ch=1 n=c5 v=64
191346 On ch=1 n=c#6 v=80
191356 On ch=1 n=a#5 v=72
191359 On ch=1 n=a#4 v=94
191492 Off ch=1 n=a#4 v=64
191495 Off ch=1 n=c#6 v=64
191514 Off ch=1 n=a#5 v=64
191568 On ch=1 n=c#6 v=71
191568 On ch=1 n=a#5 v=77
191582 On ch=1 n=a#4 v=85
191714 Off ch=1 n=c#6 v=64
191718 Off ch=1 n=a#4 v=64
191726 Off ch=1 n=a#5 v=64
191770 On ch=1 n=c#6 v=79
191774 On ch=1 n=a#5 v=82
191776 On ch=1 n=g5 v=91
191884 Off ch=1 n=g5 v=64
191910 Off ch=1 n=c#6 v=64
191918 Off ch=1 n=a#5 v=64
191966 On ch=1 n=c#6 v=78
191968 On ch=1 n=a#5 v=80
191978 On ch=1 n=f5 v=93
192084 Off ch=1 n=f5 v=64
192108 Off ch=1 n=c#6 v=64
192114 Off ch=1 n=a#5 v=64
192196 On ch=1 n=f5 v=89
192196 On ch=1 n=a#5 v=66
192196 On ch=1 n=c#6 v=74
192382 Par ch=1 c=64 v=0
192400 On ch=1 n=c3 v=105
192498 Off ch=1 n=a#5 v=64
192548 Off ch=1 n=c#6 v=64
192590 On ch=1 n=a#5 v=50
192596 On ch=1 n=c6 v=88
192596 On ch=1 n=c4 v=91
192599 On ch=1 n=e5 v=83
192612 Off ch=1 n=c3 v=64
192634 Off ch=1 n=f5 v=64
192644 Par ch=1 c=64 v=127
192654 Off ch=1 n=c4 v=64
192672 Off ch=1 n=e5 v=64
192718 Off ch=1 n=a#5 v=64
192770 Off ch=1 n=c6 v=64
192800 On ch=1 n=c5 v=101
192832 Off ch=1 n=c5 v=64
193022 On ch=1 n=c5 v=103
193136 Off ch=1 n=c5 v=64
193260 On ch=1 n=c6 v=94
193580 Par ch=1 c=64 v=0
193594 On ch=1 n=c7 v=107
193597 On ch=1 n=g#3 v=91
193810 Par ch=1 c=64 v=127
193822 Off ch=1 n=g#3 v=64
193872 On ch=1 n=c5 v=74
193994 Off ch=1 n=c6 v=64
194016 Off ch=1 n=c5 v=64
194056 On ch=1 n=g#6 v=93
194088 On ch=1 n=f4 v=96
194090 Off ch=1 n=c7 v=64
194176 Off ch=1 n=g#6 v=64
194214 Off ch=1 n=f4 v=64
194272 On ch=1 n=c4 v=70
194406 On ch=1 n=g6 v=98
194426 Off ch=1 n=c4 v=64
194434 On ch=1 n=c5 v=87
194516 Off ch=1 n=g6 v=64
194566 Off ch=1 n=c5 v=64
194636 On ch=1 n=f4 v=100
194696 On ch=1 n=f6 v=97
194714 Off ch=1 n=f4 v=64
194792 On ch=1 n=a#3 v=84
194795 On ch=1 n=d#6 v=97
194832 Off ch=1 n=f6 v=64
194840 Par ch=1 c=64 v=0
195026 On ch=1 n=c#5 v=81
195148 Par ch=1 c=64 v=127
195196 Off ch=1 n=c#5 v=64
195210 On ch=1 n=c#6 v=95
195230 On ch=1 n=f4 v=95
195298 Off ch=1 n=d#6 v=64
195332 Off ch=1 n=a#3 v=64
195396 On ch=1 n=c#4 v=80
195402 Off ch=1 n=f4 v=64
195574 Off ch=1 n=c#6 v=64
195590 On ch=1 n=c6 v=95
195600 On ch=1 n=a#4 v=68
195754 Off ch=1 n=c6 v=64
195814 Off ch=1 n=a#4 v=64
195824 On ch=1 n=f4 v=94
195898 Off ch=1 n=c#4 v=64
195918 On ch=1 n=a#5 v=88
195980 Off ch=1 n=a#5 v=64
196026 On ch=1 n=a#5 v=87
196050 Off ch=1 n=f4 v=64
196120 On ch=1 n=c4 v=80
196123 On ch=1 n=c6 v=103
196146 Par ch=1 c=64 v=0
196178 Off ch=1 n=a#5 v=64
196352 On ch=1 n=c5 v=91
196392 Par ch=1 c=64 v=127
196410 Off ch=1 n=c6 v=64
196484 Off ch=1 n=c5 v=64
196554 On ch=1 n=g#4 v=83
196564 On ch=1 n=f4 v=109
196590 Off ch=1 n=c4 v=64
196630 Off ch=1 n=f4 v=64
196642 Off ch=1 n=g#4 v=64
196778 On ch=1 n=a#4 v=79
196780 On ch=1 n=e5 v=103
196780 On ch=1 n=g4 v=103
196782 On ch=1 n=c5 v=98
196868 Par ch=1 c=64 v=0
197028 On ch=1 n=c4 v=95
197198 Off ch=1 n=g4 v=64
197208 Off ch=1 n=c4 v=64
197222 Par ch=1 c=64 v=127
197228 Off ch=1 n=c5 v=64
197234 Off ch=1 n=a#4 v=64
197246 Off ch=1 n=e5 v=64
197310 On ch=1 n=c3 v=107
197404 Off ch=1 n=c3 v=64
197764 On ch=1 n=f5 v=96
197766 On ch=1 n=g#4 v=84
197769 On ch=1 n=c5 v=91
197770 On ch=1 n=f2 v=106
197770 On ch=1 n=f3 v=100
197772 On ch=1 n=f4 v=110
197806 Par ch=1 c=64 v=0
198360 Par ch=1 c=64 v=127
198376 Off ch=1 n=f3 v=64
198388 Off ch=1 n=f2 v=64
198400 Off ch=1 n=f4 v=64
198486 Off ch=1 n=g#4 v=64
198524 Off ch=1 n=f5 v=64
198524 Off ch=1 n=c5 v=64
199220 Par ch=1 c=64 v=0
201600 Par ch=1 c=64 v=0
201600 Meta TrkEnd
TrkEnd
