MFile 0 1 480
MTrk
0 SMPTE 96 0 0 0 0
0 TimeSig 4/4 24 8
0 KeySig 0 major
0 Tempo 500000
0 On ch=1 n=f2 v=66
3 On ch=1 n=f3 v=69
8 On ch=1 n=c5 v=70
14 On ch=1 n=f4 v=87
26 On ch=1 n=a4 v=38
46 Off ch=1 n=f2 v=64
46 Off ch=1 n=f3 v=64
56 Off ch=1 n=f4 v=64
62 Off ch=1 n=c5 v=64
88 Off ch=1 n=a4 v=64
314 On ch=1 n=a#4 v=63
314 On ch=1 n=a#2 v=79
317 On ch=1 n=c#5 v=78
317 On ch=1 n=f4 v=101
317 On ch=1 n=a#3 v=75
366 Off ch=1 n=f4 v=64
428 Off ch=1 n=c#5 v=64
431 Off ch=1 n=a#4 v=64
576 On ch=1 n=f4 v=92
578 On ch=1 n=c5 v=66
582 On ch=1 n=a4 v=53
620 Off ch=1 n=f4 v=64
644 Off ch=1 n=a4 v=64
650 Off ch=1 n=c5 v=64
832 On ch=1 n=c#5 v=83
835 On ch=1 n=f4 v=98
838 On ch=1 n=a#4 v=57
874 Off ch=1 n=f4 v=64
886 Off ch=1 n=a#4 v=64
928 Off ch=1 n=c#5 v=64
966 Off ch=1 n=a#3 v=64
1018 Off ch=1 n=a#2 v=64
1092 On ch=1 n=g#3 v=80
1095 On ch=1 n=g#2 v=84
1095 On ch=1 n=g#4 v=73
1110 On ch=1 n=d#5 v=70
1115 On ch=1 n=c5 v=57
1130 On ch=1 n=f#3 v=32
1132 Off ch=1 n=g#2 v=64
1152 Off ch=1 n=g#4 v=64
1162 Off ch=1 n=g#3 v=64
1176 Off ch=1 n=c5 v=64
1216 On ch=1 n=f#2 v=86
1232 Par ch=1 c=64 v=127
1262 Off ch=1 n=f#2 v=64
1304 Off ch=1 n=f#3 v=64
1308 Off ch=1 n=d#5 v=64
1336 On ch=1 n=f3 v=105
1338 On ch=1 n=f2 v=103
1340 Par ch=1 c=64 v=0
1346 On ch=1 n=g#4 v=81
1348 On ch=1 n=f5 v=78
1356 On ch=1 n=c#5 v=76
1414 Off ch=1 n=f3 v=64
1416 Off ch=1 n=f5 v=64
1419 Off ch=1 n=f2 v=64
1422 Off ch=1 n=c#5 v=64
1426 Off ch=1 n=g#4 v=64
1660 On ch=1 n=f#5 v=79
1663 On ch=1 n=g#4 v=84
1663 On ch=1 n=d#3 v=98
1666 On ch=1 n=d#2 v=98
1672 On ch=1 n=d#5 v=74
1710 Off ch=1 n=d#2 v=64
1740 Off ch=1 n=d#5 v=64
1760 Off ch=1 n=f#5 v=64
1760 Off ch=1 n=g#4 v=64
1760 Off ch=1 n=d#3 v=64
2086 On ch=1 n=c#5 v=84
2088 On ch=1 n=g#5 v=91
2090 On ch=1 n=b4 v=95
2092 On ch=1 n=f5 v=87
2096 On ch=1 n=c#3 v=103
2104 On ch=1 n=c#2 v=100
2154 Par ch=1 c=64 v=127
2474 Off ch=1 n=c#5 v=64
2476 Off ch=1 n=b4 v=64
2634 Off ch=1 n=c#3 v=64
2648 Off ch=1 n=c#2 v=64
2716 On ch=1 n=b4 v=83
2718 On ch=1 n=c#5 v=86
3108 Off ch=1 n=f5 v=64
3114 On ch=1 n=f#3 v=94
3116 On ch=1 n=f#2 v=98
3156 Off ch=1 n=b4 v=64
3190 Off ch=1 n=c#5 v=64
3418 On ch=1 n=f#5 v=81
3420 On ch=1 n=a#4 v=70
3424 On ch=1 n=c#5 v=79
3472 Off ch=1 n=g#5 v=64
3584 Off ch=1 n=a#4 v=64
3692 Par ch=1 c=64 v=0
3720 On ch=1 n=f5 v=83
3720 On ch=1 n=g#4 v=71
3796 Off ch=1 n=f#5 v=64
3799 Off ch=1 n=c#5 v=64
3886 Off ch=1 n=g#4 v=64
3912 Off ch=1 n=f#3 v=64
3922 Par ch=1 c=64 v=127
3974 Off ch=1 n=f#2 v=64
4006 On ch=1 n=f#4 v=87
4009 On ch=1 n=g#3 v=85
4009 On ch=1 n=d#5 v=86
4012 On ch=1 n=c5 v=70
4016 On ch=1 n=g#2 v=73
4028 Off ch=1 n=f5 v=64
4074 Off ch=1 n=g#2 v=64
4080 Off ch=1 n=g#3 v=64
4098 Off ch=1 n=c5 v=64
4108 Off ch=1 n=f#4 v=64
4172 Off ch=1 n=d#5 v=64
4322 On ch=1 n=f5 v=94
4322 On ch=1 n=f4 v=105
4324 On ch=1 n=c5 v=88
4330 On ch=1 n=a3 v=91
4332 On ch=1 n=a2 v=97
4444 Par ch=1 c=64 v=0
4618 On ch=1 n=d#5 v=95
4694 Off ch=1 n=f5 v=64
4712 Off ch=1 n=f4 v=64
4722 Off ch=1 n=c5 v=64
4752 Off ch=1 n=a3 v=64
4766 Par ch=1 c=64 v=127
4800 Off ch=1 n=d#5 v=64
4808 Off ch=1 n=a2 v=64
4890 On ch=1 n=c#5 v=97
4898 On ch=1 n=a#3 v=83
4900 On ch=1 n=f4 v=105
4902 On ch=1 n=a#2 v=81
4902 On ch=1 n=a#4 v=62
4948 Off ch=1 n=f4 v=64
4958 Off ch=1 n=a#3 v=64
4958 Off ch=1 n=a#4 v=64
5010 Off ch=1 n=a#2 v=64
5016 Off ch=1 n=c#5 v=64
5184 On ch=1 n=d#5 v=97
5188 On ch=1 n=d#4 v=85
5188 On ch=1 n=a#4 v=70
5198 On ch=1 n=g2 v=93
5204 On ch=1 n=g3 v=87
5228 Par ch=1 c=64 v=0
5446 On ch=1 n=c#5 v=89
5510 Off ch=1 n=a#4 v=64
5534 Off ch=1 n=d#5 v=64
5544 Off ch=1 n=d#4 v=64
5572 Off ch=1 n=g3 v=64
5582 Off ch=1 n=g2 v=64
5582 Par ch=1 c=64 v=127
5644 Off ch=1 n=c#5 v=64
5714 On ch=1 n=g#3 v=97
5718 On ch=1 n=d#4 v=83
5718 On ch=1 n=c5 v=85
5718 On ch=1 n=g#2 v=88
5718 On ch=1 n=g#4 v=65
5758 Off ch=1 n=d#4 v=64
5778 Off ch=1 n=g#4 v=64
5802 Off ch=1 n=g#3 v=64
5810 Off ch=1 n=g#2 v=64
5882 Off ch=1 n=c5 v=64
5900 Par ch=1 c=64 v=0
5976 On ch=1 n=c#4 v=96
5980 On ch=1 n=d#5 v=90
5982 On ch=1 n=g4 v=93
5988 On ch=1 n=a#4 v=66
5992 On ch=1 n=d#3 v=78
6022 Off ch=1 n=g4 v=64
6026 Off ch=1 n=d#3 v=64
6030 Off ch=1 n=c#4 v=64
6036 Off ch=1 n=a#4 v=64
6084 Off ch=1 n=d#5 v=64
6264 On ch=1 n=c#5 v=92
6267 On ch=1 n=d#6 v=91
6274 On ch=1 n=g5 v=82
6282 On ch=1 n=d#4 v=65
6294 On ch=1 n=a#5 v=35
6306 Off ch=1 n=d#6 v=64
6312 Off ch=1 n=c#5 v=64
6316 Off ch=1 n=g5 v=64
6328 Off ch=1 n=d#4 v=64
6360 Off ch=1 n=a#5 v=64
6554 On ch=1 n=g#5 v=86
6562 On ch=1 n=d#5 v=86
6562 On ch=1 n=c5 v=87
6562 On ch=1 n=g#4 v=79
6654 Off ch=1 n=g#4 v=64
6657 Off ch=1 n=c5 v=64
6702 Par ch=1 c=64 v=127
6762 Off ch=1 n=d#5 v=64
6806 Off ch=1 n=g#5 v=64
6829 On ch=1 n=g#3 v=99
6856 Par ch=1 c=64 v=0
6914 Off ch=1 n=g#3 v=64
7110 On ch=1 n=c5 v=97
7110 On ch=1 n=a5 v=78
7112 On ch=1 n=f3 v=106
7114 On ch=1 n=c6 v=91
7116 On ch=1 n=f4 v=112
7118 On ch=1 n=f5 v=78
7146 Off ch=1 n=f3 v=64
7148 Off ch=1 n=f4 v=64
7178 Off ch=1 n=f5 v=64
7214 Off ch=1 n=c5 v=64
7246 Off ch=1 n=c6 v=64
7276 Off ch=1 n=a5 v=64
7348 Par ch=1 c=64 v=127
7446 On ch=1 n=c#5 v=93
7449 On ch=1 n=a#5 v=72
7452 On ch=1 n=c#6 v=81
7464 On ch=1 n=f5 v=68
7466 On ch=1 n=a#4 v=88
7472 On ch=1 n=a#3 v=88
7602 Off ch=1 n=f5 v=64
7622 Off ch=1 n=c#5 v=64
7660 Off ch=1 n=a#5 v=64
7672 Off ch=1 n=c#6 v=64
7732 Par ch=1 c=64 v=0
7752 On ch=1 n=c6 v=87
7754 On ch=1 n=c5 v=94
7758 On ch=1 n=a5 v=70
7766 On ch=1 n=f5 v=71
7866 Off ch=1 n=c5 v=64
7868 Off ch=1 n=f5 v=64
7886 Off ch=1 n=c6 v=64
7886 Par ch=1 c=64 v=127
7898 Off ch=1 n=a#4 v=64
7908 Off ch=1 n=a5 v=64
7918 Off ch=1 n=a#3 v=64
8018 On ch=1 n=c#5 v=99
8021 On ch=1 n=c#6 v=86
8024 On ch=1 n=a#4 v=88
8026 On ch=1 n=f5 v=72
8030 On ch=1 n=a#5 v=67
8030 On ch=1 n=a#3 v=86
8112 Off ch=1 n=c#5 v=64
8120 Off ch=1 n=f5 v=64
8130 Off ch=1 n=a#4 v=64
8134 Off ch=1 n=a#3 v=64
8168 Off ch=1 n=c#6 v=64
8190 Off ch=1 n=a#5 v=64
8224 Par ch=1 c=64 v=0
8274 On ch=1 n=g#4 v=100
8278 On ch=1 n=g#3 v=102
8282 On ch=1 n=d#5 v=97
8282 On ch=1 n=d#6 v=86
8288 On ch=1 n=c6 v=69
8298 On ch=1 n=g#5 v=60
8334 Off ch=1 n=c6 v=64
8350 Off ch=1 n=g#3 v=64
8354 Off ch=1 n=g#5 v=64
8370 Off ch=1 n=g#4 v=64
8376 Off ch=1 n=d#6 v=64
8378 Par ch=1 c=64 v=127
8388 Off ch=1 n=d#5 v=64
8402 On ch=1 n=f#4 v=99
8405 On ch=1 n=f#3 v=96
8454 Par ch=1 c=64 v=0
8488 Off ch=1 n=f#4 v=64
8508 Off ch=1 n=f#3 v=64
8536 On ch=1 n=c6 v=84
8536 On ch=1 n=g#5 v=85
8536 On ch=1 n=f6 v=104
8539 On ch=1 n=f4 v=119
8539 On ch=1 n=f3 v=108
8539 On ch=1 n=f5 v=92
8614 Off ch=1 n=f6 v=64
8620 Off ch=1 n=f4 v=64
8636 Off ch=1 n=f5 v=64
8638 Off ch=1 n=f3 v=64
8664 Off ch=1 n=c6 v=64
8664 Off ch=1 n=g#5 v=64
8828 On ch=1 n=f#6 v=92
8830 On ch=1 n=f#5 v=79
8832 On ch=1 n=g#5 v=68
8834 On ch=1 n=d#4 v=100
8838 On ch=1 n=d#3 v=95
8842 On ch=1 n=c6 v=80
8868 Par ch=1 c=64 v=127
8900 Off ch=1 n=d#3 v=64
8910 Off ch=1 n=d#4 v=64
8940 Off ch=1 n=g#5 v=64
8968 Off ch=1 n=f#5 v=64
8982 Off ch=1 n=c6 v=64
8994 Off ch=1 n=f#6 v=64
9038 Par ch=1 c=64 v=0
9232 On ch=1 n=c#4 v=103
9232 On ch=1 n=g#6 v=99
9232 On ch=1 n=f6 v=85
9235 On ch=1 n=g#5 v=83
9235 On ch=1 n=b5 v=94
9235 On ch=1 n=c#3 v=101
9242 On ch=1 n=c#6 v=68
9268 Par ch=1 c=64 v=127
9484 Par ch=1 c=64 v=0
9690 Off ch=1 n=c#6 v=64
9708 Off ch=1 n=b5 v=64
9770 Off ch=1 n=g#5 v=64
9776 Par ch=1 c=64 v=127
9898 On ch=1 n=g#5 v=81
9898 On ch=1 n=c#6 v=81
9898 On ch=1 n=b5 v=90
10012 Off ch=1 n=c#3 v=64
10018 Off ch=1 n=c#4 v=64
10064 Off ch=1 n=g#6 v=64
10212 On ch=1 n=f#4 v=106
10218 On ch=1 n=f#3 v=96
10230 Off ch=1 n=f6 v=64
10256 Off ch=1 n=b5 v=64
10276 Off ch=1 n=c#6 v=64
10316 Off ch=1 n=g#5 v=64
10486 On ch=1 n=f#6 v=95
10486 On ch=1 n=c#6 v=77
10486 On ch=1 n=a#5 v=77
10486 On ch=1 n=f#5 v=83
10560 Par ch=1 c=64 v=0
10744 Par ch=1 c=64 v=127
10747 Off ch=1 n=f#6 v=64
10747 Off ch=1 n=f#5 v=64
10802 On ch=1 n=f6 v=98
10812 On ch=1 n=f5 v=78
10874 Off ch=1 n=c#6 v=64
10877 Off ch=1 n=f#4 v=64
10888 Off ch=1 n=f#3 v=64
10888 Off ch=1 n=a#5 v=64
10898 Off ch=1 n=f6 v=64
10936 Off ch=1 n=f5 v=64
11096 On ch=1 n=d#5 v=95
11098 On ch=1 n=c6 v=75
11098 On ch=1 n=d#6 v=93
11104 On ch=1 n=g#4 v=79
11114 On ch=1 n=g#3 v=80
11218 Off ch=1 n=g#4 v=64
11264 Off ch=1 n=d#5 v=64
11272 Off ch=1 n=g#3 v=64
11280 Off ch=1 n=c6 v=64
11282 Par ch=1 c=64 v=0
11354 Off ch=1 n=d#6 v=64
11396 On ch=1 n=a3 v=88
11424 On ch=1 n=f6 v=104
11424 On ch=1 n=c6 v=91
11427 On ch=1 n=f5 v=102
11442 Off ch=1 n=a3 v=64
11466 Par ch=1 c=64 v=127
11478 On ch=1 n=f4 v=65
11480 On ch=1 n=c5 v=94
11530 Off ch=1 n=f4 v=64
11535 Off ch=1 n=c5 v=64
11554 Off ch=1 n=f6 v=64
11586 Off ch=1 n=f5 v=64
11712 On ch=1 n=d#6 v=95
11715 On ch=1 n=d#5 v=100
11798 Off ch=1 n=c6 v=64
11804 Off ch=1 n=d#5 v=64
11840 Off ch=1 n=d#6 v=64
11980 On ch=1 n=c#6 v=87
11988 On ch=1 n=c#5 v=89
11992 On ch=1 n=a#4 v=78
11992 On ch=1 n=a#5 v=66
11998 On ch=1 n=a#3 v=68
12012 On ch=1 n=f4 v=101
12018 Par ch=1 c=64 v=0
12122 Off ch=1 n=f4 v=64
12130 Off ch=1 n=c#5 v=64
12133 Off ch=1 n=a#4 v=64
12172 Off ch=1 n=c#6 v=64
12180 Off ch=1 n=a#5 v=64
12184 Off ch=1 n=a#3 v=64
12266 On ch=1 n=f#3 v=93
12294 On ch=1 n=d#6 v=97
12296 On ch=1 n=d#5 v=103
12308 On ch=1 n=a#5 v=79
12346 Off ch=1 n=f#3 v=64
12346 Par ch=1 c=64 v=127
12372 On ch=1 n=a#4 v=88
12386 On ch=1 n=d#4 v=81
12420 Off ch=1 n=d#5 v=64
12438 Off ch=1 n=d#6 v=64
12450 Off ch=1 n=a#5 v=64
12498 Off ch=1 n=a#4 v=64
12572 On ch=1 n=c#6 v=93
12574 On ch=1 n=c#5 v=97
12594 On ch=1 n=a#4 v=2
12676 Off ch=1 n=a#4 v=64
12692 Off ch=1 n=d#4 v=64
12700 Off ch=1 n=c#5 v=64
12748 Off ch=1 n=c#6 v=64
12852 On ch=1 n=c6 v=99
12856 On ch=1 n=g#4 v=96
12860 On ch=1 n=c5 v=101
12860 On ch=1 n=g#3 v=92
12872 On ch=1 n=f#5 v=60
12872 On ch=1 n=g#5 v=68
12888 On ch=1 n=d#4 v=46
12898 Off ch=1 n=c5 v=64
12898 Off ch=1 n=g#3 v=64
12904 Off ch=1 n=c6 v=64
12906 Off ch=1 n=g#4 v=64
12918 Off ch=1 n=f#5 v=64
12920 Off ch=1 n=g#5 v=64
12946 Off ch=1 n=d#4 v=64
12998 On ch=1 n=a#4 v=93
13002 On ch=1 n=a#3 v=86
13002 On ch=1 n=g#5 v=55
13004 On ch=1 n=c#6 v=83
13004 On ch=1 n=c#5 v=95
13012 On ch=1 n=f#5 v=41
13018 On ch=1 n=d#4 v=61
13038 Off ch=1 n=c#5 v=64
13046 Off ch=1 n=c#6 v=64
13052 Off ch=1 n=a#3 v=64
13060 Off ch=1 n=d#4 v=64
13066 Off ch=1 n=f#5 v=64
13108 Off ch=1 n=a#4 v=64
13114 Off ch=1 n=g#5 v=64
13146 On ch=1 n=d#5 v=97
13146 On ch=1 n=f#5 v=57
13146 On ch=1 n=d#6 v=91
13152 On ch=1 n=c5 v=105
13156 On ch=1 n=c4 v=90
13156 On ch=1 n=g#5 v=45
13196 On ch=1 n=e4 v=55
13210 Off ch=1 n=g#5 v=64
13230 Off ch=1 n=d#5 v=64
13234 Off ch=1 n=c4 v=64
13242 Off ch=1 n=c5 v=64
13244 Off ch=1 n=e4 v=64
13260 Off ch=1 n=f#5 v=64
13266 Par ch=1 c=64 v=0
13280 Off ch=1 n=d#6 v=64
13452 On ch=1 n=f6 v=101
13454 On ch=1 n=g#4 v=88
13456 On ch=1 n=g#5 v=86
13456 On ch=1 n=f5 v=96
13456 On ch=1 n=c6 v=85
13456 On ch=1 n=g#3 v=92
13474 On ch=1 n=d#4 v=76
13514 Off ch=1 n=d#4 v=64
13536 Off ch=1 n=g#4 v=64
13539 Par ch=1 c=64 v=127
13552 Off ch=1 n=f6 v=64
13558 Off ch=1 n=f5 v=64
13558 Off ch=1 n=g#3 v=64
13570 Off ch=1 n=c6 v=64
13578 Off ch=1 n=g#5 v=64
13648 Par ch=1 c=64 v=0
13868 On ch=1 n=c#5 v=95
13868 On ch=1 n=c#6 v=90
13871 On ch=1 n=g#5 v=83
13871 On ch=1 n=c#4 v=92
13876 On ch=1 n=c#3 v=89
13876 On ch=1 n=f5 v=89
13890 On ch=1 n=g#3 v=80
13922 Off ch=1 n=c#3 v=64
13938 Off ch=1 n=g#3 v=64
13958 Off ch=1 n=c#5 v=64
13970 Off ch=1 n=c#4 v=64
13970 Par ch=1 c=64 v=127
13992 Off ch=1 n=f5 v=64
13994 Off ch=1 n=c#6 v=64
14040 Off ch=1 n=g#5 v=64
14294 Par ch=1 c=64 v=0
14598 On ch=1 n=f4 v=105
14598 On ch=1 n=a4 v=74
14600 On ch=1 n=f3 v=103
14602 On ch=1 n=c5 v=88
14604 On ch=1 n=f2 v=103
14636 Off ch=1 n=f2 v=64
14648 Off ch=1 n=f3 v=64
14674 Off ch=1 n=f4 v=64
14726 Off ch=1 n=a4 v=64
14764 Off ch=1 n=c5 v=64
14974 On ch=1 n=a#4 v=67
14976 On ch=1 n=c#5 v=80
14982 On ch=1 n=f4 v=103
14985 On ch=1 n=a#3 v=98
14990 On ch=1 n=a#2 v=95
15070 Off ch=1 n=f4 v=64
15134 Off ch=1 n=c#5 v=64
15196 Off ch=1 n=a#4 v=64
15292 On ch=1 n=c5 v=83
15295 On ch=1 n=f4 v=97
15300 On ch=1 n=a4 v=63
15350 Off ch=1 n=f4 v=64
15396 Off ch=1 n=a4 v=64
15418 Off ch=1 n=c5 v=64
15572 On ch=1 n=c#5 v=90
15574 On ch=1 n=a#4 v=70
15582 On ch=1 n=f4 v=100
15622 Off ch=1 n=f4 v=64
15646 Off ch=1 n=a#4 v=64
15672 Off ch=1 n=c#5 v=64
15718 Off ch=1 n=a#3 v=64
15726 Off ch=1 n=a#2 v=64
15752 Par ch=1 c=64 v=127
15844 On ch=1 n=g#4 v=75
15846 On ch=1 n=g#3 v=90
15846 On ch=1 n=g#2 v=87
15848 On ch=1 n=d#5 v=81
15860 On ch=1 n=c5 v=68
15884 Off ch=1 n=g#2 v=64
15900 Off ch=1 n=g#3 v=64
15906 Par ch=1 c=64 v=0
15930 Off ch=1 n=c5 v=64
15948 Off ch=1 n=g#4 v=64
15960 On ch=1 n=f#3 v=79
15960 On ch=1 n=f#2 v=87
16014 Off ch=1 n=f#2 v=64
16036 Off ch=1 n=d#5 v=64
16060 Off ch=1 n=f#3 v=64
16094 On ch=1 n=g#4 v=81
16094 On ch=1 n=f5 v=84
16094 On ch=1 n=f3 v=105
16097 On ch=1 n=f2 v=108
16097 On ch=1 n=c#5 v=80
16170 Off ch=1 n=f3 v=64
16186 Off ch=1 n=g#4 v=64
16192 Off ch=1 n=f2 v=64
16198 Off ch=1 n=f5 v=64
16200 Off ch=1 n=c#5 v=64
16416 On ch=1 n=d#3 v=100
16418 On ch=1 n=d#2 v=100
16420 On ch=1 n=f#5 v=82
16420 On ch=1 n=g#4 v=88
16428 On ch=1 n=d#5 v=80
16516 Off ch=1 n=d#2 v=64
16522 Off ch=1 n=d#3 v=64
16528 Off ch=1 n=g#4 v=64
16558 Off ch=1 n=d#5 v=64
16590 Off ch=1 n=f#5 v=64
16816 On ch=1 n=g#5 v=92
16818 On ch=1 n=c#3 v=106
16820 On ch=1 n=c#5 v=87
16824 On ch=1 n=c#2 v=102
16824 On ch=1 n=b4 v=97
16827 On ch=1 n=f5 v=89
16858 Par ch=1 c=64 v=127
17004 Off ch=1 n=c#3 v=64
17036 Off ch=1 n=c#2 v=64
17106 Off ch=1 n=b4 v=64
17128 Off ch=1 n=c#5 v=64
17606 On ch=1 n=c#5 v=94
17612 On ch=1 n=b4 v=95
17950 On ch=1 n=f#3 v=101
17953 On ch=1 n=f#2 v=100
17980 Off ch=1 n=f5 v=64
18006 Off ch=1 n=b4 v=64
18257 On ch=1 n=a#4 v=81
18257 On ch=1 n=f#5 v=86
18334 Par ch=1 c=64 v=0
18342 Off ch=1 n=g#5 v=64
18446 Off ch=1 n=a#4 v=64
18548 Par ch=1 c=64 v=127
18568 On ch=1 n=g#4 v=71
18570 On ch=1 n=f5 v=88
18612 Off ch=1 n=f#5 v=64
18642 Off ch=1 n=c#5 v=64
18676 Off ch=1 n=f#3 v=64
18696 Off ch=1 n=f#2 v=64
18720 Off ch=1 n=g#4 v=64
18860 On ch=1 n=f#4 v=91
18860 On ch=1 n=d#5 v=90
18866 On ch=1 n=c5 v=71
18870 On ch=1 n=g#3 v=92
18872 On ch=1 n=g#2 v=87
18876 Off ch=1 n=f5 v=64
18912 Off ch=1 n=g#2 v=64
18914 Off ch=1 n=g#3 v=64
18962 Off ch=1 n=c5 v=64
18972 Off ch=1 n=f#4 v=64
19048 Off ch=1 n=d#5 v=64
19182 On ch=1 n=f5 v=92
19184 On ch=1 n=f4 v=109
19186 On ch=1 n=c5 v=87
19196 On ch=1 n=a2 v=98
19196 On ch=1 n=a3 v=91
19240 Par ch=1 c=64 v=0
19318 Off ch=1 n=f4 v=64
19480 On ch=1 n=f4 v=2
19494 On ch=1 n=d#5 v=93
19548 Par ch=1 c=64 v=127
19568 Off ch=1 n=f5 v=64
19584 Off ch=1 n=f4 v=64
19610 Off ch=1 n=c5 v=64
19638 Off ch=1 n=a3 v=64
19674 Off ch=1 n=d#5 v=64
19700 Off ch=1 n=a2 v=64
19778 On ch=1 n=c#5 v=93
19786 On ch=1 n=a#4 v=66
19786 On ch=1 n=f4 v=105
19786 On ch=1 n=a#3 v=85
19789 On ch=1 n=a#2 v=83
19846 Off ch=1 n=f4 v=64
19890 Off ch=1 n=a#4 v=64
19902 Off ch=1 n=a#3 v=64
19918 Off ch=1 n=c#5 v=64
19921 Off ch=1 n=a#2 v=64
20024 Par ch=1 c=64 v=0
20086 On ch=1 n=d#5 v=95
20088 On ch=1 n=a#4 v=78
20090 On ch=1 n=d#4 v=89
20098 On ch=1 n=g3 v=94
20100 On ch=1 n=g2 v=97
20386 On ch=1 n=c#5 v=84
20394 Par ch=1 c=64 v=127
20438 Off ch=1 n=d#4 v=64
20460 Off ch=1 n=a#4 v=64
20468 Off ch=1 n=d#5 v=64
20516 Off ch=1 n=g3 v=64
20532 Off ch=1 n=g2 v=64
20630 Off ch=1 n=c#5 v=64
20668 Par ch=1 c=64 v=0
20673 On ch=1 n=d#4 v=90
20673 On ch=1 n=g#4 v=68
20677 On ch=1 n=c5 v=87
20677 On ch=1 n=g#3 v=103
20680 On ch=1 n=g#2 v=89
20744 Off ch=1 n=g#2 v=64
20758 Off ch=1 n=g#3 v=64
20770 Off ch=1 n=d#4 v=64
20792 Off ch=1 n=g#4 v=64
20824 Par ch=1 c=64 v=127
20848 Off ch=1 n=c5 v=64
20900 Par ch=1 c=64 v=0
20964 On ch=1 n=g4 v=94
20964 On ch=1 n=a#4 v=69
20967 On ch=1 n=d#3 v=95
20970 On ch=1 n=c#4 v=84
20970 On ch=1 n=d#5 v=92
21000 Off ch=1 n=d#3 v=64
21004 Off ch=1 n=c#4 v=64
21006 Off ch=1 n=g4 v=64
21040 Off ch=1 n=a#4 v=64
21076 Off ch=1 n=d#5 v=64
21100 Par ch=1 c=64 v=127
21176 Par ch=1 c=64 v=0
21254 On ch=1 n=d#6 v=92
21256 On ch=1 n=c#5 v=88
21260 On ch=1 n=g5 v=85
21264 On ch=1 n=d#4 v=84
21286 On ch=1 n=a#5 v=17
21304 Off ch=1 n=c#5 v=64
21310 Off ch=1 n=d#4 v=64
21312 Off ch=1 n=g5 v=64
21342 Off ch=1 n=a#5 v=64
21354 Off ch=1 n=d#6 v=64
21376 Par ch=1 c=64 v=127
21406 Par ch=1 c=64 v=0
21546 On ch=1 n=g#5 v=88
21546 On ch=1 n=c5 v=85
21550 On ch=1 n=d#5 v=88
21554 On ch=1 n=g#4 v=79
21604 Off ch=1 n=c5 v=64
21620 Off ch=1 n=g#4 v=64
21664 Off ch=1 n=d#5 v=64
21668 Par ch=1 c=64 v=127
21760 Off ch=1 n=g#5 v=64
21826 On ch=1 n=g#4 v=93
21828 On ch=1 n=g#3 v=99
21888 Off ch=1 n=g#4 v=64
21888 Off ch=1 n=g#3 v=64
22030 Par ch=1 c=64 v=0
22122 On ch=1 n=f4 v=117
22124 On ch=1 n=f3 v=108
22124 On ch=1 n=a5 v=79
22124 On ch=1 n=c5 v=98
22124 On ch=1 n=c6 v=92
22130 On ch=1 n=f5 v=81
22156 Off ch=1 n=f3 v=64
22160 Off ch=1 n=f4 v=64
22246 Off ch=1 n=c5 v=64
22252 Par ch=1 c=64 v=127
22270 Off ch=1 n=c6 v=64
22304 Off ch=1 n=a5 v=64
22307 Off ch=1 n=f5 v=64
22478 On ch=1 n=a#5 v=79
22478 On ch=1 n=c#5 v=95
22478 On ch=1 n=c#6 v=89
22484 On ch=1 n=f5 v=74
22484 On ch=1 n=a#4 v=95
22490 On ch=1 n=a#3 v=94
22560 Par ch=1 c=64 v=0
22732 Off ch=1 n=f5 v=64
22744 Par ch=1 c=64 v=127
22748 Off ch=1 n=c#5 v=64
22756 Off ch=1 n=c#6 v=64
22758 Off ch=1 n=a#5 v=64
22800 On ch=1 n=c5 v=92
22802 On ch=1 n=c6 v=89
22804 On ch=1 n=a5 v=72
22812 On ch=1 n=f5 v=62
22860 Off ch=1 n=f5 v=64
22874 Off ch=1 n=a#4 v=64
22878 Off ch=1 n=a#3 v=64
22900 Off ch=1 n=c5 v=64
22902 Off ch=1 n=c6 v=64
22942 Off ch=1 n=a5 v=64
23072 On ch=1 n=c#5 v=103
23074 On ch=1 n=c#6 v=86
23074 On ch=1 n=a#4 v=95
23077 On ch=1 n=a#3 v=97
23077 On ch=1 n=a#5 v=75
23081 On ch=1 n=f5 v=81
23126 Off ch=1 n=f5 v=64
23142 Off ch=1 n=a#3 v=64
23154 Off ch=1 n=c#5 v=64
23166 Off ch=1 n=a#4 v=64
23194 Off ch=1 n=a#5 v=64
23200 Off ch=1 n=c#6 v=64
23356 On ch=1 n=d#5 v=92
23356 On ch=1 n=g#4 v=103
23362 On ch=1 n=g#3 v=103
23365 On ch=1 n=c6 v=69
23365 On ch=1 n=d#6 v=78
23374 On ch=1 n=g#5 v=60
23410 Off ch=1 n=c6 v=64
23412 Off ch=1 n=g#3 v=64
23426 Off ch=1 n=g#5 v=64
23440 Off ch=1 n=d#5 v=64
23458 Off ch=1 n=g#4 v=64
23480 Off ch=1 n=d#6 v=64
23496 On ch=1 n=f#4 v=95
23506 On ch=1 n=f#3 v=88
23544 Off ch=1 n=f#3 v=64
23596 Off ch=1 n=f#4 v=64
23608 On ch=1 n=c6 v=72
23612 On ch=1 n=f6 v=101
23612 On ch=1 n=g#5 v=83
23616 On ch=1 n=f4 v=118
23616 On ch=1 n=f5 v=90
23620 Par ch=1 c=64 v=0
23620 On ch=1 n=f3 v=110
23696 Off ch=1 n=f6 v=64
23718 Off ch=1 n=f5 v=64
23720 Off ch=1 n=f4 v=64
23734 Off ch=1 n=g#5 v=64
23734 Off ch=1 n=f3 v=64
23740 Off ch=1 n=c6 v=64
23900 On ch=1 n=f#6 v=97
23902 On ch=1 n=f#5 v=90
23906 On ch=1 n=d#4 v=101
23908 On ch=1 n=c6 v=85
23910 On ch=1 n=g#5 v=81
23912 On ch=1 n=d#3 v=95
23974 Par ch=1 c=64 v=127
23986 Off ch=1 n=d#3 v=64
23988 Off ch=1 n=d#4 v=64
24014 Off ch=1 n=c6 v=64
24036 Off ch=1 n=g#5 v=64
24040 Off ch=1 n=f#5 v=64
24064 Off ch=1 n=f#6 v=64
24080 Par ch=1 c=64 v=0
24276 On ch=1 n=g#5 v=92
24278 On ch=1 n=f6 v=89
24278 On ch=1 n=c#6 v=82
24278 On ch=1 n=g#6 v=97
24280 On ch=1 n=b5 v=97
24284 On ch=1 n=c#4 v=105
24292 On ch=1 n=c#3 v=105
24496 Par ch=1 c=64 v=127
24634 Off ch=1 n=b5 v=64
24648 Off ch=1 n=g#5 v=64
24651 Off ch=1 n=c#6 v=64
24966 On ch=1 n=g#5 v=90
24972 On ch=1 n=b5 v=94
24976 On ch=1 n=c#6 v=83
25006 Off ch=1 n=c#3 v=64
25042 Off ch=1 n=c#4 v=64
25256 Off ch=1 n=g#6 v=64
25288 On ch=1 n=f#4 v=105
25291 On ch=1 n=f#3 v=95
25300 Off ch=1 n=f6 v=64
25322 Off ch=1 n=b5 v=64
25336 Off ch=1 n=c#6 v=64
25372 Off ch=1 n=g#5 v=64
25570 Par ch=1 c=64 v=0
25578 On ch=1 n=f#6 v=99
25582 On ch=1 n=c#6 v=87
25584 On ch=1 n=f#5 v=88
25586 On ch=1 n=a#5 v=79
25816 Par ch=1 c=64 v=127
25822 Off ch=1 n=f#5 v=64
25854 Off ch=1 n=f#6 v=64
25916 On ch=1 n=f6 v=100
25920 On ch=1 n=f5 v=84
25986 Off ch=1 n=c#6 v=64
26006 Off ch=1 n=a#5 v=64
26012 Off ch=1 n=f#4 v=64
26016 Off ch=1 n=f#3 v=64
26038 Off ch=1 n=f6 v=64
26052 Off ch=1 n=f5 v=64
26222 On ch=1 n=d#6 v=94
26225 On ch=1 n=d#5 v=99
26232 On ch=1 n=g#4 v=90
26232 On ch=1 n=c6 v=79
26238 On ch=1 n=g#3 v=88
26380 Off ch=1 n=g#4 v=64
26382 Off ch=1 n=g#3 v=64
26396 Off ch=1 n=d#5 v=64
26396 Off ch=1 n=c6 v=64
26478 Par ch=1 c=64 v=0
26481 Off ch=1 n=d#6 v=64
26560 On ch=1 n=a3 v=93
26578 On ch=1 n=f6 v=101
26586 On ch=1 n=f5 v=100
26588 On ch=1 n=c6 v=92
26612 Off ch=1 n=a3 v=64
26638 On ch=1 n=f4 v=94
26662 Par ch=1 c=64 v=127
26666 On ch=1 n=c5 v=91
26730 Off ch=1 n=f6 v=64
26752 Off ch=1 n=f5 v=64
26874 On ch=1 n=d#6 v=95
26874 On ch=1 n=d#5 v=102
26988 Off ch=1 n=d#5 v=64
26994 Off ch=1 n=c6 v=64
27000 Off ch=1 n=c5 v=64
27022 Off ch=1 n=d#6 v=64
27058 Off ch=1 n=f4 v=64
27156 On ch=1 n=c#6 v=89
27160 On ch=1 n=c#5 v=94
27162 On ch=1 n=a#4 v=71
27166 On ch=1 n=a#5 v=65
27174 On ch=1 n=a#3 v=76
27176 On ch=1 n=f4 v=89
27292 Par ch=1 c=64 v=0
27308 Off ch=1 n=a#4 v=64
27318 Off ch=1 n=f4 v=64
27360 Off ch=1 n=a#3 v=64
27384 Off ch=1 n=c#5 v=64
27412 On ch=1 n=f#3 v=89
27414 Off ch=1 n=c#6 v=64
27452 Off ch=1 n=f#3 v=64
27456 Off ch=1 n=a#5 v=64
27492 Par ch=1 c=64 v=127
27492 On ch=1 n=d#6 v=99
27498 On ch=1 n=d#5 v=101
27504 On ch=1 n=a#5 v=86
27520 On ch=1 n=a#4 v=97
27540 On ch=1 n=d#4 v=75
27590 Off ch=1 n=d#4 v=64
27604 Off ch=1 n=a#4 v=64
27668 Off ch=1 n=d#5 v=64
27684 Off ch=1 n=d#6 v=64
27722 Off ch=1 n=a#5 v=64
27790 On ch=1 n=c#5 v=95
27790 On ch=1 n=c#6 v=91
27930 Off ch=1 n=c#5 v=64
27982 Off ch=1 n=c#6 v=64
28084 On ch=1 n=c6 v=95
28084 On ch=1 n=g#4 v=95
28087 On ch=1 n=c5 v=101
28090 On ch=1 n=d#4 v=90
28096 On ch=1 n=g#3 v=77
28102 On ch=1 n=g#5 v=64
28104 On ch=1 n=f#5 v=53
28118 Off ch=1 n=g#4 v=64
28121 Off ch=1 n=d#4 v=64
28130 Off ch=1 n=c6 v=64
28130 Off ch=1 n=c5 v=64
28136 Off ch=1 n=g#3 v=64
28150 Off ch=1 n=f#5 v=64
28152 Off ch=1 n=g#5 v=64
28218 On ch=1 n=a#3 v=87
28218 On ch=1 n=d#4 v=57
28221 On ch=1 n=a#4 v=76
28224 On ch=1 n=f#5 v=47
28226 On ch=1 n=g#5 v=57
28228 On ch=1 n=c#5 v=91
28230 On ch=1 n=c#6 v=82
28234 On ch=1 n=g#4 v=45
28256 Off ch=1 n=a#3 v=64
28264 Off ch=1 n=c#5 v=64
28272 Off ch=1 n=d#4 v=64
28272 Off ch=1 n=c#6 v=64
28284 Off ch=1 n=g#4 v=64
28300 Off ch=1 n=a#4 v=64
28316 Off ch=1 n=f#5 v=64
28320 Off ch=1 n=g#5 v=64
28362 On ch=1 n=d#6 v=96
28365 On ch=1 n=c5 v=108
28374 On ch=1 n=c4 v=85
28374 On ch=1 n=d#4 v=74
28374 On ch=1 n=f#5 v=78
28377 On ch=1 n=d#5 v=47
28394 On ch=1 n=a5 v=47
28410 On ch=1 n=e5 v=49
28426 Off ch=1 n=c4 v=64
28432 Off ch=1 n=d#5 v=64
28446 Off ch=1 n=a5 v=64
28448 Off ch=1 n=c5 v=64
28462 Off ch=1 n=e5 v=64
28488 Off ch=1 n=f#5 v=64
28491 Par ch=1 c=64 v=0
28502 Off ch=1 n=d#4 v=64
28508 Off ch=1 n=d#6 v=64
28676 On ch=1 n=g#5 v=82
28678 On ch=1 n=f6 v=105
28680 On ch=1 n=c6 v=87
28680 On ch=1 n=f5 v=98
28680 On ch=1 n=g#4 v=92
28684 On ch=1 n=g#3 v=93
28698 On ch=1 n=d#4 v=78
28740 Off ch=1 n=g#4 v=64
28746 Off ch=1 n=d#4 v=64
28750 Off ch=1 n=f6 v=64
28778 Off ch=1 n=f5 v=64
28798 Off ch=1 n=c6 v=64
28798 Par ch=1 c=64 v=127
28806 Off ch=1 n=g#3 v=64
28822 Off ch=1 n=g#5 v=64
28874 Par ch=1 c=64 v=0
29066 On ch=1 n=c#6 v=94
29066 On ch=1 n=c#5 v=97
29069 On ch=1 n=g#5 v=86
29074 On ch=1 n=f5 v=87
29078 On ch=1 n=c#4 v=88
29086 On ch=1 n=c#3 v=83
29092 On ch=1 n=g#3 v=84
29112 Off ch=1 n=c#4 v=64
29118 Off ch=1 n=c#3 v=64
29126 Off ch=1 n=g#3 v=64
29136 Par ch=1 c=64 v=127
29224 Off ch=1 n=c#5 v=64
29288 Off ch=1 n=f5 v=64
29372 Off ch=1 n=g#5 v=64
29416 Off ch=1 n=c#6 v=64
29596 Par ch=1 c=64 v=0
29990 On ch=1 n=c5 v=57
30440 On ch=1 n=c6 v=66
30460 On ch=1 n=c3 v=23
30466 On ch=1 n=g3 v=28
30472 Par ch=1 c=64 v=127
30530 Off ch=1 n=c3 v=64
30536 Off ch=1 n=g3 v=64
30748 On ch=1 n=c3 v=38
30768 On ch=1 n=g3 v=39
30808 Off ch=1 n=c3 v=64
30820 Off ch=1 n=g3 v=64
30852 On ch=1 n=c4 v=42
30920 Off ch=1 n=c4 v=64
30964 Par ch=1 c=64 v=0
30978 On ch=1 n=g5 v=57
30981 On ch=1 n=e4 v=65
31026 Off ch=1 n=e4 v=64
31054 Off ch=1 n=c6 v=64
31224 On ch=1 n=f3 v=65
31270 On ch=1 n=g#5 v=66
31282 Off ch=1 n=f3 v=64
31302 On ch=1 n=f4 v=78
31328 Off ch=1 n=g5 v=64
31390 Off ch=1 n=f4 v=64
31394 Par ch=1 c=64 v=127
31424 Off ch=1 n=g#5 v=64
31566 On ch=1 n=g#5 v=69
31568 On ch=1 n=g#4 v=50
31604 Off ch=1 n=c5 v=64
31674 Off ch=1 n=g#4 v=64
31682 On ch=1 n=g5 v=74
31740 Off ch=1 n=g#5 v=64
31748 Par ch=1 c=64 v=0
31818 On ch=1 n=f5 v=76
31821 On ch=1 n=c5 v=59
31850 Off ch=1 n=g5 v=64
31874 Off ch=1 n=c5 v=64
31948 Par ch=1 c=64 v=127
31962 Off ch=1 n=f5 v=64
31974 On ch=1 n=a#3 v=65
32022 Off ch=1 n=a#3 v=64
32086 On ch=1 n=a#5 v=78
32104 On ch=1 n=f5 v=55
32107 On ch=1 n=c#5 v=75
32184 Off ch=1 n=c#5 v=64
32228 Off ch=1 n=f5 v=64
32258 Off ch=1 n=a#5 v=64
32270 Par ch=1 c=64 v=0
32374 On ch=1 n=a#5 v=62
32380 On ch=1 n=f5 v=59
32382 On ch=1 n=c#5 v=56
32444 Off ch=1 n=c#5 v=64
32450 Off ch=1 n=f5 v=64
32502 On ch=1 n=c6 v=62
32512 Off ch=1 n=a#5 v=64
32515 On ch=1 n=c5 v=47
32574 Off ch=1 n=c6 v=64
32574 Off ch=1 n=c5 v=64
32636 On ch=1 n=c#6 v=61
32640 On ch=1 n=a#4 v=53
32650 On ch=1 n=f5 v=51
32688 Off ch=1 n=a#4 v=64
32746 Par ch=1 c=64 v=127
32816 Off ch=1 n=f5 v=64
32822 Off ch=1 n=c#6 v=64
32854 Par ch=1 c=64 v=0
32950 On ch=1 n=c6 v=51
32954 On ch=1 n=g#4 v=40
32960 On ch=1 n=c4 v=26
32966 On ch=1 n=e5 v=44
33176 Par ch=1 c=64 v=127
33320 Off ch=1 n=g#4 v=64
33330 Par ch=1 c=64 v=0
33376 On ch=1 n=g4 v=29
33660 Off ch=1 n=c6 v=64
33672 On ch=1 n=c5 v=56
33684 Off ch=1 n=g4 v=64
33698 Par ch=1 c=64 v=127
33706 Off ch=1 n=c4 v=64
33718 Off ch=1 n=e5 v=64
33970 On ch=1 n=c6 v=76
33973 On ch=1 n=c3 v=70
33986 On ch=1 n=g3 v=55
33989 Par ch=1 c=64 v=0
34026 Off ch=1 n=c3 v=64
34036 Off ch=1 n=g3 v=64
34248 On ch=1 n=c3 v=66
34251 On ch=1 n=g3 v=65
34346 Off ch=1 n=c3 v=64
34364 On ch=1 n=c4 v=69
34367 Off ch=1 n=g3 v=64
34374 Par ch=1 c=64 v=127
34486 Off ch=1 n=c4 v=64
34486 On ch=1 n=g5 v=79
34500 On ch=1 n=e4 v=87
34524 Off ch=1 n=c6 v=64
34554 Off ch=1 n=e4 v=64
34588 Off ch=1 n=c5 v=64
34674 On ch=1 n=f3 v=85
34714 Par ch=1 c=64 v=0
34770 On ch=1 n=g#5 v=75
34778 On ch=1 n=c5 v=73
34786 On ch=1 n=f4 v=103
34789 Off ch=1 n=f3 v=64
34808 Off ch=1 n=g5 v=64
34872 Off ch=1 n=f4 v=64
34924 Off ch=1 n=g#5 v=64
35050 On ch=1 n=g#4 v=76
35052 On ch=1 n=g#5 v=69
35088 Off ch=1 n=c5 v=64
35108 Off ch=1 n=g#4 v=64
35170 On ch=1 n=g5 v=71
35204 Off ch=1 n=g#5 v=64
35284 Off ch=1 n=g5 v=64
35302 On ch=1 n=f5 v=73
35304 On ch=1 n=c5 v=58
35354 Off ch=1 n=c5 v=64
35436 Par ch=1 c=64 v=127
35446 Off ch=1 n=f5 v=64
35464 On ch=1 n=a#3 v=56
35510 Off ch=1 n=a#3 v=64
35566 On ch=1 n=g5 v=74
35582 On ch=1 n=c#5 v=76
35582 On ch=1 n=f5 v=51
35588 Par ch=1 c=64 v=0
35692 Off ch=1 n=g5 v=64
35698 On ch=1 n=g#5 v=69
35726 On ch=1 n=c5 v=80
35754 Off ch=1 n=c#5 v=64
35816 Off ch=1 n=g#5 v=64
35858 On ch=1 n=a#5 v=61
35861 On ch=1 n=a#4 v=75
35866 Off ch=1 n=c5 v=64
35902 Off ch=1 n=a#4 v=64
36022 Off ch=1 n=a#5 v=64
36096 Off ch=1 n=f5 v=64
36154 On ch=1 n=g#5 v=60
36158 On ch=1 n=g#4 v=44
36162 On ch=1 n=e5 v=54
36170 On ch=1 n=c4 v=44
36260 Off ch=1 n=c4 v=64
36270 Off ch=1 n=g#4 v=64
36296 Par ch=1 c=64 v=127
36538 On ch=1 n=f3 v=57
36541 On ch=1 n=f5 v=57
36560 Off ch=1 n=e5 v=64
36580 Off ch=1 n=g#5 v=64
36618 Par ch=1 c=64 v=0
37018 Par ch=1 c=64 v=127
37018 On ch=1 n=f4 v=71
37074 Off ch=1 n=f3 v=64
37078 Off ch=1 n=f5 v=64
37172 Off ch=1 n=f4 v=64
37362 On ch=1 n=c5 v=79
37448 Par ch=1 c=64 v=0
37744 On ch=1 n=c3 v=48
37746 On ch=1 n=g3 v=48
37748 On ch=1 n=c6 v=72
37812 Off ch=1 n=g3 v=64
37826 Off ch=1 n=c3 v=64
37864 Par ch=1 c=64 v=127
38056 On ch=1 n=g3 v=50
38056 On ch=1 n=c3 v=46
38114 Off ch=1 n=g3 v=64
38118 Off ch=1 n=c3 v=64
38158 On ch=1 n=c4 v=50
38244 Off ch=1 n=c4 v=64
38298 On ch=1 n=g5 v=63
38304 On ch=1 n=e4 v=71
38344 Off ch=1 n=e4 v=64
38354 Off ch=1 n=c6 v=64
38500 On ch=1 n=f3 v=46
38508 Par ch=1 c=64 v=0
38580 On ch=1 n=g#5 v=69
38596 On ch=1 n=f4 v=90
38632 Off ch=1 n=g5 v=64
38642 Off ch=1 n=f3 v=64
38698 Off ch=1 n=g#5 v=64
38710 Off ch=1 n=f4 v=64
38740 Par ch=1 c=64 v=127
38786 Par ch=1 c=64 v=0
38858 On ch=1 n=g#5 v=64
38861 On ch=1 n=g#4 v=65
38928 Off ch=1 n=g#4 v=64
38936 Off ch=1 n=c5 v=64
38976 On ch=1 n=g5 v=73
39008 Off ch=1 n=g#5 v=64
39106 On ch=1 n=c5 v=55
39114 On ch=1 n=f5 v=73
39156 Off ch=1 n=c5 v=64
39172 Off ch=1 n=g5 v=64
39216 Par ch=1 c=64 v=127
39244 On ch=1 n=a#3 v=61
39268 Off ch=1 n=f5 v=64
39294 Off ch=1 n=a#3 v=64
39368 On ch=1 n=f5 v=48
39374 On ch=1 n=a#5 v=68
39378 On ch=1 n=c#5 v=81
39430 Par ch=1 c=64 v=0
39469 Off ch=1 n=c#5 v=64
39484 Off ch=1 n=f5 v=64
39522 Off ch=1 n=a#5 v=64
39634 On ch=1 n=c#5 v=68
39644 On ch=1 n=f5 v=59
39656 On ch=1 n=a#5 v=67
39722 Off ch=1 n=f5 v=64
39770 Off ch=1 n=a#5 v=64
39771 Off ch=1 n=c#5 v=64
39774 On ch=1 n=c6 v=76
39776 On ch=1 n=c5 v=54
39897 Off ch=1 n=c5 v=64
39916 On ch=1 n=a#4 v=60
39918 Off ch=1 n=c6 v=64
39920 On ch=1 n=c#6 v=68
39928 On ch=1 n=f5 v=56
39962 Off ch=1 n=a#4 v=64
40104 Off ch=1 n=c#6 v=64
40138 Off ch=1 n=f5 v=64
40200 On ch=1 n=g#4 v=47
40206 On ch=1 n=c6 v=58
40212 On ch=1 n=e5 v=54
40214 On ch=1 n=c4 v=29
40504 Off ch=1 n=g#4 v=64
40538 On ch=1 n=g4 v=40
40822 Off ch=1 n=c6 v=64
40834 On ch=1 n=c5 v=57
40844 Par ch=1 c=64 v=127
40846 Off ch=1 n=g4 v=64
40862 Off ch=1 n=e5 v=64
40884 Off ch=1 n=c4 v=64
41140 On ch=1 n=c6 v=59
41150 On ch=1 n=g3 v=54
41150 Par ch=1 c=64 v=0
41158 On ch=1 n=c3 v=52
41208 Off ch=1 n=g3 v=64
41214 Off ch=1 n=c3 v=64
41418 On ch=1 n=c3 v=48
41422 On ch=1 n=g3 v=49
41484 Off ch=1 n=c3 v=64
41487 Off ch=1 n=g3 v=64
41520 On ch=1 n=c4 v=50
41652 On ch=1 n=g5 v=53
41653 Off ch=1 n=c4 v=64
41662 On ch=1 n=e4 v=63
41692 Off ch=1 n=c6 v=64
41704 Off ch=1 n=e4 v=64
41796 Par ch=1 c=64 v=127
41838 On ch=1 n=f3 v=61
41870 Off ch=1 n=c5 v=64
41904 Par ch=1 c=64 v=0
41944 Off ch=1 n=f3 v=64
41956 On ch=1 n=g#5 v=61
41968 On ch=1 n=f4 v=75
41994 Off ch=1 n=g5 v=64
42030 Off ch=1 n=f4 v=64
42088 Par ch=1 c=64 v=127
42102 Off ch=1 n=g#5 v=64
42196 Par ch=1 c=64 v=0
42234 On ch=1 n=g#4 v=55
42246 On ch=1 n=c5 v=53
42248 On ch=1 n=g#5 v=66
42300 Off ch=1 n=g#4 v=64
42318 Off ch=1 n=c5 v=64
42376 Off ch=1 n=g#5 v=64
42382 On ch=1 n=g5 v=45
42474 Off ch=1 n=g5 v=64
42494 On ch=1 n=c5 v=55
42500 On ch=1 n=f5 v=54
42544 Off ch=1 n=c5 v=64
42610 Par ch=1 c=64 v=127
42626 On ch=1 n=a#3 v=62
42654 Off ch=1 n=f5 v=64
42678 Off ch=1 n=a#3 v=64
42760 On ch=1 n=c#5 v=69
42760 On ch=1 n=f5 v=40
42770 On ch=1 n=g5 v=66
42780 Par ch=1 c=64 v=0
42852 Off ch=1 n=g5 v=64
42898 On ch=1 n=g#5 v=73
42918 On ch=1 n=c5 v=63
42952 Off ch=1 n=c#5 v=64
42974 Off ch=1 n=c5 v=64
42990 Off ch=1 n=g#5 v=64
43056 On ch=1 n=a#4 v=57
43058 On ch=1 n=a#5 v=54
43102 Off ch=1 n=a#4 v=64
43152 Off ch=1 n=a#5 v=64
43180 Off ch=1 n=f5 v=64
43348 On ch=1 n=g#4 v=39
43348 On ch=1 n=g#5 v=47
43366 On ch=1 n=e5 v=42
43370 On ch=1 n=c4 v=37
43442 Off ch=1 n=c4 v=64
43470 Par ch=1 c=64 v=127
43502 Off ch=1 n=g#4 v=64
43646 Off ch=1 n=e5 v=64
43740 On ch=1 n=f5 v=41
43740 On ch=1 n=f3 v=59
43764 Off ch=1 n=g#5 v=64
43964 Par ch=1 c=64 v=0
44112 Off ch=1 n=f5 v=64
44128 On ch=1 n=f4 v=91
44131 Off ch=1 n=f3 v=64
44131 Par ch=1 c=64 v=127
44224 Off ch=1 n=f4 v=64
44390 On ch=1 n=g#5 v=97
44546 Par ch=1 c=64 v=0
44838 On ch=1 n=g#6 v=107
44840 On ch=1 n=g#3 v=106
44848 On ch=1 n=g#2 v=98
44888 Off ch=1 n=g#2 v=64
44916 Off ch=1 n=g#5 v=64
44924 Off ch=1 n=g#3 v=64
44930 Par ch=1 c=64 v=127
44942 Off ch=1 n=g#6 v=64
45190 On ch=1 n=g#5 v=81
45200 On ch=1 n=d#4 v=79
45202 On ch=1 n=d#5 v=73
45208 On ch=1 n=c5 v=74
45210 On ch=1 n=g#4 v=62
45272 Off ch=1 n=g#4 v=64
45284 Off ch=1 n=c5 v=64
45316 On ch=1 n=d5 v=90
45322 On ch=1 n=d4 v=85
45342 Off ch=1 n=d#5 v=64
45366 Off ch=1 n=g#5 v=64
45370 Off ch=1 n=d#4 v=64
45438 Par ch=1 c=64 v=0
45444 On ch=1 n=g#5 v=54
45446 Off ch=1 n=d5 v=64
45452 On ch=1 n=d#5 v=78
45454 On ch=1 n=c6 v=97
45460 On ch=1 n=c5 v=89
45460 On ch=1 n=d#4 v=75
45468 On ch=1 n=g#4 v=68
45484 Off ch=1 n=d4 v=64
45630 Off ch=1 n=c5 v=64
45662 Off ch=1 n=d#5 v=64
45668 Par ch=1 c=64 v=127
45674 Off ch=1 n=g#4 v=64
45708 Off ch=1 n=g#5 v=64
45710 Off ch=1 n=c6 v=64
45712 Off ch=1 n=d#4 v=64
45776 Par ch=1 c=64 v=0
45796 On ch=1 n=d#6 v=97
45802 On ch=1 n=g#3 v=90
45822 Par ch=1 c=64 v=127
45844 Off ch=1 n=g#3 v=64
45906 Off ch=1 n=d#6 v=64
46078 On ch=1 n=g#5 v=72
46086 On ch=1 n=c#5 v=65
46088 On ch=1 n=g#4 v=55
46089 On ch=1 n=f5 v=66
46096 On ch=1 n=f4 v=95
46196 On ch=1 n=e5 v=88
46206 Off ch=1 n=c#5 v=64
46222 On ch=1 n=e4 v=88
46228 Off ch=1 n=f5 v=64
46230 Off ch=1 n=g#4 v=64
46230 Off ch=1 n=f4 v=64
46264 Off ch=1 n=g#5 v=64
46314 Par ch=1 c=64 v=0
46328 On ch=1 n=g#5 v=66
46334 On ch=1 n=c#6 v=88
46336 On ch=1 n=f5 v=66
46344 On ch=1 n=c#5 v=83
46358 Off ch=1 n=e5 v=64
46360 On ch=1 n=f4 v=92
46364 On ch=1 n=g#4 v=44
46370 Off ch=1 n=e4 v=64
46458 Off ch=1 n=c#5 v=64
46504 Off ch=1 n=g#4 v=64
46512 Off ch=1 n=f4 v=64
46528 Par ch=1 c=64 v=127
46566 Off ch=1 n=f5 v=64
46596 Off ch=1 n=c#6 v=64
46626 On ch=1 n=c6 v=97
46636 Par ch=1 c=64 v=0
46638 On ch=1 n=g#3 v=86
46676 Off ch=1 n=g#5 v=64
46682 Off ch=1 n=g#3 v=64
46774 Par ch=1 c=64 v=127
46904 On ch=1 n=c#5 v=74
46904 On ch=1 n=d#5 v=73
46907 On ch=1 n=g5 v=80
46914 On ch=1 n=g4 v=68
46918 On ch=1 n=d#4 v=68
46926 Off ch=1 n=c6 v=64
47020 On ch=1 n=d5 v=82
47024 Off ch=1 n=c#5 v=64
47052 On ch=1 n=d4 v=74
47054 Off ch=1 n=d#5 v=64
47064 Off ch=1 n=g4 v=64
47067 Off ch=1 n=g5 v=64
47122 Off ch=1 n=d5 v=64
47128 Par ch=1 c=64 v=0
47130 Off ch=1 n=d#4 v=64
47148 Off ch=1 n=d4 v=64
47150 On ch=1 n=a#5 v=83
47158 On ch=1 n=d#5 v=59
47166 On ch=1 n=c#5 v=81
47170 On ch=1 n=g5 v=47
47176 On ch=1 n=g4 v=41
47182 On ch=1 n=d#4 v=34
47300 Off ch=1 n=c#5 v=64
47320 Off ch=1 n=g4 v=64
47328 Par ch=1 c=64 v=127
47336 Off ch=1 n=d#5 v=64
47338 Off ch=1 n=g5 v=64
47388 Off ch=1 n=d#4 v=64
47436 Par ch=1 c=64 v=0
47439 On ch=1 n=c6 v=95
47446 On ch=1 n=g#3 v=92
47486 Off ch=1 n=a#5 v=64
47540 Off ch=1 n=g#3 v=64
47574 Par ch=1 c=64 v=127
47648 Off ch=1 n=c6 v=64
47742 On ch=1 n=c5 v=79
47742 On ch=1 n=d#4 v=83
47748 On ch=1 n=g#4 v=72
47828 Off ch=1 n=c5 v=64
47864 On ch=1 n=d4 v=95
47890 Off ch=1 n=g#4 v=64
47908 Off ch=1 n=d#4 v=64
47972 Par ch=1 c=64 v=0
48004 On ch=1 n=c6 v=98
48009 Off ch=1 n=d4 v=64
48018 On ch=1 n=d#4 v=83
48022 On ch=1 n=c5 v=91
48024 On ch=1 n=g#4 v=77
48120 Off ch=1 n=c5 v=64
48170 Off ch=1 n=g#4 v=64
48173 Par ch=1 c=64 v=127
48216 Off ch=1 n=d#4 v=64
48372 Par ch=1 c=64 v=0
48410 On ch=1 n=c7 v=114
48424 On ch=1 n=g#3 v=94
48426 On ch=1 n=g#2 v=88
48464 Off ch=1 n=g#2 v=64
48508 Off ch=1 n=c7 v=64
48520 Off ch=1 n=g#3 v=64
48540 Par ch=1 c=64 v=127
48542 Off ch=1 n=c6 v=64
48722 On ch=1 n=d#5 v=66
48724 On ch=1 n=g#5 v=64
48728 On ch=1 n=g#4 v=53
48734 On ch=1 n=c6 v=76
48756 On ch=1 n=c5 v=33
48798 Off ch=1 n=d#5 v=64
48832 On ch=1 n=g5 v=79
48840 On ch=1 n=g4 v=72
48843 Off ch=1 n=c5 v=64
48874 Off ch=1 n=g#5 v=64
48900 Off ch=1 n=g#4 v=64
48902 Off ch=1 n=c6 v=64
48970 On ch=1 n=c6 v=66
48972 Par ch=1 c=64 v=0
48972 On ch=1 n=d#6 v=92
48972 On ch=1 n=g#5 v=55
48984 Off ch=1 n=g4 v=64
48984 On ch=1 n=d#5 v=88
48994 On ch=1 n=g#4 v=62
49004 On ch=1 n=c5 v=67
49050 Off ch=1 n=g5 v=64
49052 Off ch=1 n=c5 v=64
49058 Off ch=1 n=d#5 v=64
49076 Off ch=1 n=c6 v=64
49088 Off ch=1 n=g#5 v=64
49094 Par ch=1 c=64 v=127
49104 Off ch=1 n=g#4 v=64
49122 Off ch=1 n=d#6 v=64
49324 Par ch=1 c=64 v=0
49328 On ch=1 n=g6 v=101
49344 On ch=1 n=g#3 v=88
49472 Off ch=1 n=g#3 v=64
49478 Par ch=1 c=64 v=127
49492 Off ch=1 n=g6 v=64
49608 On ch=1 n=g#5 v=68
49614 On ch=1 n=f5 v=66
49614 On ch=1 n=g#4 v=64
49616 On ch=1 n=c#6 v=61
49628 On ch=1 n=c#5 v=53
49660 Off ch=1 n=f5 v=64
49700 Off ch=1 n=c#5 v=64
49712 On ch=1 n=g5 v=79
49734 Off ch=1 n=g#5 v=64
49736 On ch=1 n=g4 v=75
49750 Off ch=1 n=g#4 v=64
49766 Off ch=1 n=c#6 v=64
49818 Off ch=1 n=g5 v=64
49832 Par ch=1 c=64 v=0
49850 On ch=1 n=f6 v=93
49853 On ch=1 n=c#6 v=48
49860 On ch=1 n=g#5 v=55
49868 On ch=1 n=f5 v=76
49872 On ch=1 n=g#4 v=70
49880 Off ch=1 n=g4 v=64
49884 On ch=1 n=c#5 v=65
49976 Off ch=1 n=f5 v=64
49998 Par ch=1 c=64 v=127
50000 Off ch=1 n=g#5 v=64
50012 Off ch=1 n=c#6 v=64
50014 Off ch=1 n=c#5 v=64
50034 Off ch=1 n=g#4 v=64
50124 Par ch=1 c=64 v=0
50136 On ch=1 n=d#6 v=92
50152 On ch=1 n=g#3 v=84
50180 Off ch=1 n=f6 v=64
50192 Off ch=1 n=g#3 v=64
50246 Par ch=1 c=64 v=127
50342 Off ch=1 n=d#6 v=64
50424 On ch=1 n=g5 v=66
50434 On ch=1 n=d#5 v=68
50434 On ch=1 n=c#5 v=51
50442 On ch=1 n=d#4 v=65
50486 Off ch=1 n=c#5 v=64
50532 Off ch=1 n=d#4 v=64
50544 Off ch=1 n=d#5 v=64
50548 On ch=1 n=d5 v=68
50566 On ch=1 n=d4 v=78
50582 Off ch=1 n=g5 v=64
50664 Off ch=1 n=d5 v=64
50680 On ch=1 n=g5 v=33
50680 On ch=1 n=c#6 v=79
50683 On ch=1 n=d#5 v=51
50686 Off ch=1 n=d4 v=64
50692 Par ch=1 c=64 v=0
50702 On ch=1 n=c#5 v=75
50704 On ch=1 n=d#4 v=57
50714 On ch=1 n=g4 v=52
50822 Off ch=1 n=c#5 v=64
50860 Off ch=1 n=g4 v=64
50862 Par ch=1 c=64 v=127
50916 Off ch=1 n=d#4 v=64
50968 Par ch=1 c=64 v=0
50984 Off ch=1 n=c#6 v=64
50984 On ch=1 n=c6 v=80
50998 Off ch=1 n=d#5 v=64
50998 On ch=1 n=g#3 v=78
51050 Off ch=1 n=g5 v=64
51116 Off ch=1 n=g#3 v=64
51138 Par ch=1 c=64 v=127
51212 Off ch=1 n=c6 v=64
51252 On ch=1 n=d#4 v=55
51255 On ch=1 n=c5 v=52
51260 On ch=1 n=g#4 v=51
51324 Off ch=1 n=c5 v=64
51372 On ch=1 n=d4 v=87
51376 Off ch=1 n=g#4 v=64
51394 Off ch=1 n=d#4 v=64
51532 On ch=1 n=c6 v=88
51534 Par ch=1 c=64 v=0
51558 Off ch=1 n=d4 v=64
51560 On ch=1 n=c5 v=55
51562 On ch=1 n=g#4 v=57
51562 On ch=1 n=d#4 v=53
51672 Off ch=1 n=c5 v=64
51722 Par ch=1 c=64 v=127
51738 Off ch=1 n=g#4 v=64
51784 Off ch=1 n=d#4 v=64
51872 On ch=1 n=c7 v=91
51882 Off ch=1 n=c6 v=64
51890 Par ch=1 c=64 v=0
51892 On ch=1 n=g#3 v=68
52030 Off ch=1 n=g#3 v=64
52060 Par ch=1 c=64 v=127
52126 Off ch=1 n=c7 v=64
52148 On ch=1 n=c5 v=21
52160 On ch=1 n=d#4 v=14
52162 On ch=1 n=g#4 v=39
52230 Off ch=1 n=c5 v=64
52242 Off ch=1 n=d#4 v=64
52250 Off ch=1 n=g#4 v=64
52262 On ch=1 n=d4 v=69
52346 Off ch=1 n=d4 v=64
52404 On ch=1 n=d#5 v=77
52424 On ch=1 n=c5 v=42
52428 On ch=1 n=d#4 v=44
52450 On ch=1 n=g#4 v=42
52532 Off ch=1 n=c5 v=64
52554 Off ch=1 n=g#4 v=64
52608 Off ch=1 n=d#4 v=64
52720 On ch=1 n=d#6 v=70
52736 Par ch=1 c=64 v=0
52752 Off ch=1 n=d#5 v=64
52752 On ch=1 n=g#3 v=45
52874 Off ch=1 n=g#3 v=64
52904 Par ch=1 c=64 v=127
52964 Off ch=1 n=d#6 v=64
53014 On ch=1 n=g#4 v=40
53020 On ch=1 n=d#4 v=14
53022 On ch=1 n=c5 v=32
53096 Off ch=1 n=c5 v=64
53100 Off ch=1 n=d#4 v=64
53110 Off ch=1 n=g#4 v=64
53144 On ch=1 n=d4 v=60
53258 Off ch=1 n=d4 v=64
53276 On ch=1 n=c6 v=70
53300 On ch=1 n=c5 v=46
53300 On ch=1 n=g#4 v=38
53308 On ch=1 n=d#4 v=46
53366 Off ch=1 n=g#4 v=64
53390 Off ch=1 n=c5 v=64
53456 Off ch=1 n=d#4 v=64
53674 Par ch=1 c=64 v=0
53690 Off ch=1 n=c6 v=64
53714 On ch=1 n=g3 v=34
53717 On ch=1 n=c7 v=63
53866 Off ch=1 n=g3 v=64
53918 Par ch=1 c=64 v=127
53990 Off ch=1 n=c7 v=64
54054 On ch=1 n=a#4 v=19
54058 On ch=1 n=c5 v=25
54132 Off ch=1 n=c5 v=64
54158 Off ch=1 n=a#4 v=64
54202 On ch=1 n=e4 v=39
54264 Off ch=1 n=e4 v=64
54342 On ch=1 n=e5 v=52
54374 On ch=1 n=c5 v=30
54380 On ch=1 n=a#4 v=15
54446 Off ch=1 n=c5 v=64
54458 Off ch=1 n=a#4 v=64
54632 Off ch=1 n=e5 v=64
54748 On ch=1 n=e6 v=34
54784 On ch=1 n=g3 v=28
54852 Off ch=1 n=g3 v=64
55118 Off ch=1 n=e6 v=64
55156 On ch=1 n=a#4 v=7
55163 On ch=1 n=c5 v=21
55261 Off ch=1 n=c5 v=64
55296 Off ch=1 n=a#4 v=64
55392 On ch=1 n=e4 v=14
55488 Off ch=1 n=e4 v=64
55572 On ch=1 n=c5 v=52
55574 On ch=1 n=a#4 v=20
55660 Off ch=1 n=a#4 v=64
55812 Off ch=1 n=c5 v=64
55930 On ch=1 n=c5 v=40
56084 On ch=1 n=g3 v=17
56094 On ch=1 n=c3 v=6
56150 On ch=1 n=c6 v=46
56174 Off ch=1 n=c3 v=64
56214 Off ch=1 n=g3 v=64
56476 On ch=1 n=g3 v=33
56479 On ch=1 n=c3 v=32
56486 Par ch=1 c=64 v=0
56532 Off ch=1 n=g3 v=64
56537 Off ch=1 n=c3 v=64
56570 On ch=1 n=c4 v=47
56578 Par ch=1 c=64 v=127
56652 Off ch=1 n=c4 v=64
56698 On ch=1 n=g5 v=49
56714 On ch=1 n=e4 v=44
56714 Par ch=1 c=64 v=0
56728 Off ch=1 n=c6 v=64
56768 Off ch=1 n=e4 v=64
56884 Par ch=1 c=64 v=127
56900 On ch=1 n=f3 v=45
56916 Par ch=1 c=64 v=0
56982 On ch=1 n=g#5 v=56
56992 Off ch=1 n=f3 v=64
57024 Off ch=1 n=g5 v=64
57024 On ch=1 n=f4 v=61
57096 Off ch=1 n=g#5 v=64
57106 Off ch=1 n=f4 v=64
57130 Par ch=1 c=64 v=127
57254 Par ch=1 c=64 v=0
57282 On ch=1 n=g#5 v=52
57288 On ch=1 n=g#4 v=52
57332 Off ch=1 n=c5 v=64
57364 Off ch=1 n=g#4 v=64
57402 On ch=1 n=g5 v=45
57416 Off ch=1 n=g#5 v=64
57550 Off ch=1 n=g5 v=64
57550 On ch=1 n=f5 v=58
57564 On ch=1 n=c5 v=28
57634 Off ch=1 n=c5 v=64
57638 Par ch=1 c=64 v=127
57674 Off ch=1 n=f5 v=64
57688 On ch=1 n=a#3 v=59
57750 Off ch=1 n=a#3 v=64
57822 Par ch=1 c=64 v=0
57826 On ch=1 n=a#5 v=57
57840 On ch=1 n=f5 v=51
57840 On ch=1 n=c#5 v=75
57904 Off ch=1 n=f5 v=64
57907 Off ch=1 n=c#5 v=64
57972 Off ch=1 n=a#5 v=64
57975 Par ch=1 c=64 v=127
58020 Par ch=1 c=64 v=0
58106 On ch=1 n=a#5 v=60
58122 On ch=1 n=c#5 v=61
58124 On ch=1 n=f5 v=48
58178 Off ch=1 n=c#5 v=64
58180 Off ch=1 n=f5 v=64
58197 Off ch=1 n=a#5 v=64
58238 On ch=1 n=c6 v=66
58246 On ch=1 n=c5 v=52
58296 Off ch=1 n=c6 v=64
58312 Off ch=1 n=c5 v=64
58368 On ch=1 n=a#4 v=61
58378 On ch=1 n=c#6 v=62
58382 On ch=1 n=f5 v=47
58412 Off ch=1 n=a#4 v=64
58436 Par ch=1 c=64 v=127
58520 Off ch=1 n=f5 v=64
58538 Off ch=1 n=c#6 v=64
58560 Par ch=1 c=64 v=0
58678 On ch=1 n=c6 v=47
58681 On ch=1 n=g#4 v=44
58688 On ch=1 n=e5 v=44
58698 On ch=1 n=c4 v=24
58990 Par ch=1 c=64 v=127
59034 Off ch=1 n=g#4 v=64
59094 On ch=1 n=g4 v=35
59128 Par ch=1 c=64 v=0
59282 Par ch=1 c=64 v=127
59304 Off ch=1 n=c6 v=64
59314 Off ch=1 n=g4 v=64
59340 Off ch=1 n=c4 v=64
59364 On ch=1 n=c5 v=59
59410 Off ch=1 n=e5 v=64
59682 On ch=1 n=g3 v=55
59685 On ch=1 n=c3 v=53
59688 On ch=1 n=c6 v=73
59798 Off ch=1 n=g3 v=64
59824 Off ch=1 n=c3 v=64
59958 Par ch=1 c=64 v=0
59976 On ch=1 n=g3 v=57
59976 On ch=1 n=c3 v=55
60044 Off ch=1 n=c3 v=64
60047 Off ch=1 n=g3 v=64
60074 On ch=1 n=c4 v=54
60112 Par ch=1 c=64 v=127
60142 Off ch=1 n=c4 v=64
60214 On ch=1 n=g5 v=67
60218 Par ch=1 c=64 v=0
60222 On ch=1 n=e4 v=71
60260 Off ch=1 n=c6 v=64
60262 Off ch=1 n=e4 v=64
60342 Par ch=1 c=64 v=127
60384 On ch=1 n=f3 v=76
60448 Par ch=1 c=64 v=0
60496 On ch=1 n=g#5 v=72
60512 Off ch=1 n=f3 v=64
60512 On ch=1 n=f4 v=84
60536 Off ch=1 n=g5 v=64
60606 Off ch=1 n=g#5 v=64
60614 Off ch=1 n=f4 v=64
60618 Par ch=1 c=64 v=127
60694 Par ch=1 c=64 v=0
60776 On ch=1 n=g#5 v=66
60786 On ch=1 n=g#4 v=62
60794 Off ch=1 n=c5 v=64
60864 Off ch=1 n=g#4 v=64
60906 Off ch=1 n=g#5 v=64
60912 On ch=1 n=g5 v=71
60986 Off ch=1 n=g5 v=64
61044 On ch=1 n=c5 v=56
61048 On ch=1 n=f5 v=71
61096 Off ch=1 n=c5 v=64
61140 Par ch=1 c=64 v=127
61174 Off ch=1 n=f5 v=64
61192 On ch=1 n=a#3 v=64
61244 Off ch=1 n=a#3 v=64
61316 On ch=1 n=g5 v=74
61326 Par ch=1 c=64 v=0
61332 On ch=1 n=f5 v=55
61335 On ch=1 n=c#5 v=70
61446 Off ch=1 n=g5 v=64
61452 On ch=1 n=g#5 v=73
61484 On ch=1 n=c5 v=68
61520 Off ch=1 n=c#5 v=64
61546 Off ch=1 n=c5 v=64
61586 Off ch=1 n=g#5 v=64
61614 On ch=1 n=a#5 v=65
61620 On ch=1 n=a#4 v=59
61666 Off ch=1 n=a#4 v=64
61762 Off ch=1 n=a#5 v=64
61876 Off ch=1 n=f5 v=64
61922 On ch=1 n=g#5 v=62
61946 On ch=1 n=g#4 v=30
61946 On ch=1 n=e5 v=40
61946 On ch=1 n=c4 v=50
62046 Off ch=1 n=g#4 v=64
62070 Off ch=1 n=c4 v=64
62078 Par ch=1 c=64 v=127
62334 Off ch=1 n=e5 v=64
62338 On ch=1 n=f5 v=51
62340 On ch=1 n=f3 v=44
62356 Off ch=1 n=g#5 v=64
62430 Par ch=1 c=64 v=0
62672 Off ch=1 n=f5 v=64
62678 Par ch=1 c=64 v=127
62798 On ch=1 n=f4 v=46
62858 Off ch=1 n=f4 v=64
62872 Off ch=1 n=f3 v=64
63108 Par ch=1 c=64 v=0
63142 On ch=1 n=f4 v=113
63144 On ch=1 n=c5 v=95
63144 On ch=1 n=a4 v=84
63152 On ch=1 n=f2 v=97
63154 On ch=1 n=f3 v=94
63184 Off ch=1 n=f2 v=64
63192 Off ch=1 n=f3 v=64
63240 Off ch=1 n=f4 v=64
63276 Par ch=1 c=64 v=127
63292 Off ch=1 n=a4 v=64
63336 Off ch=1 n=c5 v=64
63520 On ch=1 n=a#4 v=75
63523 On ch=1 n=c#5 v=92
63532 On ch=1 n=f4 v=107
63534 On ch=1 n=a#3 v=100
63538 On ch=1 n=a#2 v=98
63660 Off ch=1 n=f4 v=64
63738 Off ch=1 n=c#5 v=64
63768 Par ch=1 c=64 v=0
63804 Off ch=1 n=a#4 v=64
63848 On ch=1 n=c5 v=94
63854 On ch=1 n=a4 v=80
63856 On ch=1 n=f4 v=106
63924 Off ch=1 n=f4 v=64
63970 Off ch=1 n=a4 v=64
64048 Off ch=1 n=c5 v=64
64144 On ch=1 n=c#5 v=96
64144 On ch=1 n=a#4 v=81
64147 On ch=1 n=f4 v=106
64184 Off ch=1 n=f4 v=64
64184 Par ch=1 c=64 v=127
64206 Off ch=1 n=a#3 v=64
64206 Off ch=1 n=a#4 v=64
64226 Off ch=1 n=a#2 v=64
64230 Off ch=1 n=c#5 v=64
64418 On ch=1 n=g#4 v=83
64422 On ch=1 n=g#3 v=97
64424 On ch=1 n=d#5 v=90
64430 On ch=1 n=c5 v=76
64432 On ch=1 n=g#2 v=85
64444 Par ch=1 c=64 v=0
64474 Off ch=1 n=g#2 v=64
64514 Off ch=1 n=g#3 v=64
64540 Off ch=1 n=g#4 v=64
64566 On ch=1 n=f#3 v=93
64566 Par ch=1 c=64 v=127
64572 On ch=1 n=f#2 v=100
64578 Off ch=1 n=c5 v=64
64628 Off ch=1 n=d#5 v=64
64660 Par ch=1 c=64 v=0
64678 On ch=1 n=g#4 v=82
64678 On ch=1 n=f5 v=89
64681 On ch=1 n=c#5 v=85
64684 Off ch=1 n=f#2 v=64
64694 On ch=1 n=f3 v=108
64696 Off ch=1 n=f#3 v=64
64699 On ch=1 n=f2 v=102
64806 Off ch=1 n=f2 v=64
64814 Off ch=1 n=f3 v=64
64822 Off ch=1 n=g#4 v=64
64830 Off ch=1 n=f5 v=64
64840 Off ch=1 n=c#5 v=64
65010 On ch=1 n=f#5 v=89
65012 On ch=1 n=g#4 v=98
65015 On ch=1 n=d#3 v=103
65015 On ch=1 n=d#5 v=86
65015 On ch=1 n=d#2 v=102
65096 Off ch=1 n=d#3 v=64
65108 Off ch=1 n=d#2 v=64
65124 Par ch=1 c=64 v=127
65144 Off ch=1 n=g#4 v=64
65150 Off ch=1 n=d#5 v=64
65166 Par ch=1 c=64 v=0
65204 Off ch=1 n=f#5 v=64
65410 On ch=1 n=g#5 v=95
65418 On ch=1 n=c#5 v=88
65418 On ch=1 n=b4 v=94
65418 On ch=1 n=f5 v=93
65430 On ch=1 n=c#3 v=106
65434 On ch=1 n=c#2 v=104
65474 Par ch=1 c=64 v=127
65756 Off ch=1 n=b4 v=64
65790 Off ch=1 n=c#5 v=64
66164 On ch=1 n=c#5 v=98
66172 On ch=1 n=b4 v=96
66226 Off ch=1 n=c#3 v=64
66242 Off ch=1 n=c#2 v=64
66450 Off ch=1 n=f5 v=64
66492 Off ch=1 n=b4 v=64
66506 On ch=1 n=f#3 v=105
66510 On ch=1 n=f#2 v=101
66542 Off ch=1 n=c#5 v=64
66654 Off ch=1 n=g#5 v=64
66812 On ch=1 n=f#5 v=89
66818 On ch=1 n=a#4 v=83
66820 On ch=1 n=c#5 v=85
66856 Par ch=1 c=64 v=0
67026 Off ch=1 n=a#4 v=64
67102 Par ch=1 c=64 v=127
67142 On ch=1 n=f5 v=89
67142 On ch=1 n=g#4 v=76
67172 Off ch=1 n=f#5 v=64
67180 Par ch=1 c=64 v=0
67236 Off ch=1 n=c#5 v=64
67272 Par ch=1 c=64 v=127
67278 Off ch=1 n=f#3 v=64
67294 Off ch=1 n=g#4 v=64
67300 Off ch=1 n=f#2 v=64
67440 Par ch=1 c=64 v=0
67442 On ch=1 n=d#5 v=92
67442 On ch=1 n=f#4 v=84
67448 On ch=1 n=c5 v=76
67452 On ch=1 n=g#3 v=89
67456 On ch=1 n=g#2 v=84
67470 Off ch=1 n=f5 v=64
67564 Off ch=1 n=f#4 v=64
67572 Off ch=1 n=c5 v=64
67578 Par ch=1 c=64 v=127
67584 Off ch=1 n=g#3 v=64
67616 Off ch=1 n=g#2 v=64
67642 Off ch=1 n=d#5 v=64
67750 On ch=1 n=f5 v=94
67750 On ch=1 n=c5 v=81
67753 On ch=1 n=f4 v=110
67764 On ch=1 n=a2 v=97
67764 On ch=1 n=a3 v=88
67932 Par ch=1 c=64 v=0
68056 On ch=1 n=d#5 v=96
68124 Off ch=1 n=f5 v=64
68178 Par ch=1 c=64 v=127
68186 Off ch=1 n=f4 v=64
68208 Off ch=1 n=c5 v=64
68216 Off ch=1 n=a3 v=64
68280 Off ch=1 n=a2 v=64
68330 Off ch=1 n=d#5 v=64
68332 Par ch=1 c=64 v=0
68358 On ch=1 n=c#5 v=96
68361 On ch=1 n=a#3 v=83
68364 On ch=1 n=f4 v=107
68364 On ch=1 n=a#4 v=68
68372 On ch=1 n=a#2 v=76
68424 Off ch=1 n=f4 v=64
68476 Off ch=1 n=a#4 v=64
68484 Par ch=1 c=64 v=127
68490 Off ch=1 n=a#3 v=64
68502 Off ch=1 n=c#5 v=64
68562 Off ch=1 n=a#2 v=64
68654 Par ch=1 c=64 v=0
68668 On ch=1 n=d#5 v=97
68670 On ch=1 n=a#4 v=78
68672 On ch=1 n=d#4 v=93
68674 On ch=1 n=g3 v=94
68676 On ch=1 n=g2 v=97
68962 On ch=1 n=c#5 v=88
68994 Off ch=1 n=a#4 v=64
69020 Off ch=1 n=d#4 v=64
69022 Par ch=1 c=64 v=127
69040 Off ch=1 n=d#5 v=64
69070 Off ch=1 n=g3 v=64
69078 Off ch=1 n=g2 v=64
69172 Off ch=1 n=c#5 v=64
69234 On ch=1 n=c5 v=92
69238 Par ch=1 c=64 v=0
69238 On ch=1 n=g#3 v=101
69240 On ch=1 n=d#4 v=79
69242 On ch=1 n=g#2 v=88
69248 On ch=1 n=g#4 v=65
69310 Off ch=1 n=g#4 v=64
69344 Off ch=1 n=g#3 v=64
69344 Off ch=1 n=d#4 v=64
69350 Off ch=1 n=g#2 v=64
69392 Par ch=1 c=64 v=127
69414 Off ch=1 n=c5 v=64
69468 Par ch=1 c=64 v=0
69522 On ch=1 n=d#5 v=97
69522 On ch=1 n=c#4 v=97
69526 On ch=1 n=g4 v=95
69528 On ch=1 n=a#4 v=70
69530 On ch=1 n=d#3 v=87
69566 Off ch=1 n=g4 v=64
69568 Off ch=1 n=d#3 v=64
69586 Off ch=1 n=c#4 v=64
69586 Off ch=1 n=a#4 v=64
69638 Off ch=1 n=d#5 v=64
69814 On ch=1 n=d#6 v=95
69814 On ch=1 n=c#5 v=87
69817 On ch=1 n=g5 v=89
69826 On ch=1 n=d#4 v=75
69828 On ch=1 n=a#5 v=64
69866 Off ch=1 n=g5 v=64
69874 Off ch=1 n=d#4 v=64
69882 Off ch=1 n=a#5 v=64
69926 Off ch=1 n=c#5 v=64
69934 Off ch=1 n=d#6 v=64
70106 On ch=1 n=d#5 v=91
70109 On ch=1 n=g#5 v=92
70114 On ch=1 n=c5 v=88
70116 On ch=1 n=g#4 v=80
70190 Par ch=1 c=64 v=127
70208 Off ch=1 n=g#4 v=64
70218 Off ch=1 n=c5 v=64
70334 Off ch=1 n=d#5 v=64
70352 Off ch=1 n=g#5 v=64
70394 On ch=1 n=g#3 v=101
70496 Off ch=1 n=g#3 v=64
70514 Par ch=1 c=64 v=0
70668 On ch=1 n=a5 v=79
70670 On ch=1 n=c6 v=94
70670 On ch=1 n=c5 v=100
70676 On ch=1 n=f3 v=105
70676 On ch=1 n=f4 v=114
70678 On ch=1 n=f5 v=82
70706 Off ch=1 n=f4 v=64
70708 Off ch=1 n=f3 v=64
70774 Par ch=1 c=64 v=127
70786 Off ch=1 n=c5 v=64
70802 Off ch=1 n=c6 v=64
70824 Off ch=1 n=a5 v=64
70848 Off ch=1 n=f5 v=64
70974 On ch=1 n=a#5 v=79
70976 On ch=1 n=c#5 v=97
70976 On ch=1 n=c#6 v=90
70980 On ch=1 n=a#4 v=94
70982 On ch=1 n=a#3 v=98
70990 On ch=1 n=f5 v=82
71186 Off ch=1 n=f5 v=64
71218 Off ch=1 n=c#5 v=64
71218 Off ch=1 n=c#6 v=64
71228 Off ch=1 n=a#5 v=64
71250 Par ch=1 c=64 v=0
71276 On ch=1 n=c6 v=89
71276 On ch=1 n=f5 v=58
71278 On ch=1 n=a5 v=76
71280 On ch=1 n=c5 v=98
71382 Off ch=1 n=c5 v=64
71408 Off ch=1 n=a#4 v=64
71418 Off ch=1 n=a#3 v=64
71418 Off ch=1 n=c6 v=64
71430 Off ch=1 n=a5 v=64
71434 Par ch=1 c=64 v=127
71444 Off ch=1 n=f5 v=64
71544 Par ch=1 c=64 v=0
71552 On ch=1 n=a#4 v=90
71558 On ch=1 n=a#3 v=91
71558 On ch=1 n=c#5 v=100
71558 On ch=1 n=c#6 v=87
71561 On ch=1 n=a#5 v=73
71566 On ch=1 n=f5 v=74
71646 Off ch=1 n=a#3 v=64
71648 Off ch=1 n=c#5 v=64
71660 Off ch=1 n=a#4 v=64
71680 Off ch=1 n=f5 v=64
71680 Par ch=1 c=64 v=127
71714 Off ch=1 n=c#6 v=64
71744 Off ch=1 n=a#5 v=64
71820 Par ch=1 c=64 v=0
71834 On ch=1 n=d#5 v=98
71834 On ch=1 n=g#4 v=101
71840 On ch=1 n=c6 v=76
71840 On ch=1 n=d#6 v=88
71840 On ch=1 n=g#3 v=100
71848 On ch=1 n=g#5 v=69
71884 Off ch=1 n=g#3 v=64
71904 Off ch=1 n=c6 v=64
71926 Off ch=1 n=d#5 v=64
71929 Off ch=1 n=g#4 v=64
71958 Par ch=1 c=64 v=127
71968 Off ch=1 n=d#6 v=64
71970 On ch=1 n=f#4 v=99
71974 Off ch=1 n=g#5 v=64
71980 On ch=1 n=f#3 v=91
72044 Off ch=1 n=f#3 v=64
72056 Off ch=1 n=f#4 v=64
72080 Par ch=1 c=64 v=0
72106 On ch=1 n=f6 v=103
72108 On ch=1 n=g#5 v=82
72108 On ch=1 n=f5 v=96
72110 On ch=1 n=c6 v=81
72114 On ch=1 n=f4 v=118
72116 On ch=1 n=f3 v=107
72186 Off ch=1 n=f6 v=64
72186 Off ch=1 n=f4 v=64
72208 Off ch=1 n=f5 v=64
72214 Off ch=1 n=f3 v=64
72224 Off ch=1 n=c6 v=64
72234 Off ch=1 n=g#5 v=64
72234 Par ch=1 c=64 v=127
72296 Par ch=1 c=64 v=0
72402 On ch=1 n=f#5 v=86
72404 On ch=1 n=f#6 v=97
72407 On ch=1 n=g#5 v=81
72407 On ch=1 n=c6 v=77
72411 On ch=1 n=d#4 v=101
72414 On ch=1 n=d#3 v=96
72474 Off ch=1 n=d#3 v=64
72496 Off ch=1 n=d#4 v=64
72496 Par ch=1 c=64 v=127
72548 Off ch=1 n=f#5 v=64
72548 Off ch=1 n=g#5 v=64
72551 Off ch=1 n=c6 v=64
72578 Off ch=1 n=f#6 v=64
72780 On ch=1 n=g#6 v=98
72782 On ch=1 n=g#5 v=88
72782 On ch=1 n=b5 v=96
72782 On ch=1 n=f6 v=86
72784 On ch=1 n=c#6 v=76
72788 On ch=1 n=c#4 v=102
72794 On ch=1 n=c#3 v=103
72910 Par ch=1 c=64 v=0
73220 Off ch=1 n=c#6 v=64
73240 Off ch=1 n=b5 v=64
73248 Off ch=1 n=g#5 v=64
73280 Par ch=1 c=64 v=127
73406 On ch=1 n=g#5 v=86
73411 On ch=1 n=b5 v=94
73414 On ch=1 n=c#6 v=81
73428 Off ch=1 n=c#3 v=64
73494 Off ch=1 n=c#4 v=64
73734 Off ch=1 n=g#6 v=64
73740 Off ch=1 n=f6 v=64
73760 On ch=1 n=f#4 v=104
73762 Off ch=1 n=b5 v=64
73766 On ch=1 n=f#3 v=92
73778 Off ch=1 n=c#6 v=64
73832 Off ch=1 n=g#5 v=64
74046 On ch=1 n=f#6 v=96
74046 Par ch=1 c=64 v=0
74049 On ch=1 n=c#6 v=83
74052 On ch=1 n=f#5 v=83
74054 On ch=1 n=a#5 v=76
74278 Par ch=1 c=64 v=127
74288 Off ch=1 n=f#5 v=64
74318 Off ch=1 n=f#6 v=64
74376 On ch=1 n=f6 v=102
74381 On ch=1 n=f5 v=91
74402 Par ch=1 c=64 v=0
74446 Off ch=1 n=c#6 v=64
74472 Off ch=1 n=f#4 v=64
74484 Off ch=1 n=f#3 v=64
74490 Off ch=1 n=a#5 v=64
74508 Par ch=1 c=64 v=127
74512 Off ch=1 n=f6 v=64
74528 Off ch=1 n=f5 v=64
74682 On ch=1 n=d#6 v=94
74684 On ch=1 n=g#4 v=81
74684 On ch=1 n=d#5 v=98
74687 On ch=1 n=c6 v=78
74690 On ch=1 n=g#3 v=84
74792 Off ch=1 n=g#4 v=64
74830 Off ch=1 n=g#3 v=64
74846 Off ch=1 n=d#5 v=64
74846 Off ch=1 n=c6 v=64
74862 Par ch=1 c=64 v=0
74908 Off ch=1 n=d#6 v=64
74972 On ch=1 n=a3 v=83
75008 On ch=1 n=f6 v=101
75014 On ch=1 n=f5 v=97
75014 On ch=1 n=c6 v=81
75030 Off ch=1 n=a3 v=64
75046 Par ch=1 c=64 v=127
75052 On ch=1 n=f4 v=94
75066 On ch=1 n=c5 v=92
75138 Off ch=1 n=f6 v=64
75150 Off ch=1 n=f5 v=64
75306 On ch=1 n=d#6 v=92
75306 On ch=1 n=d#5 v=99
75370 Off ch=1 n=c5 v=64
75388 Off ch=1 n=c6 v=64
75398 Off ch=1 n=d#5 v=64
75401 Off ch=1 n=f4 v=64
75444 Off ch=1 n=d#6 v=64
75592 On ch=1 n=c#6 v=89
75600 On ch=1 n=c#5 v=91
75606 On ch=1 n=a#4 v=73
75608 On ch=1 n=a#5 v=61
75616 On ch=1 n=a#3 v=74
75622 On ch=1 n=f4 v=98
75630 Par ch=1 c=64 v=0
75710 Off ch=1 n=a#4 v=64
75738 Off ch=1 n=f4 v=64
75772 Off ch=1 n=c#5 v=64
75772 Off ch=1 n=a#3 v=64
75820 Off ch=1 n=c#6 v=64
75834 Off ch=1 n=a#5 v=64
75852 On ch=1 n=f#3 v=81
75884 Off ch=1 n=f#3 v=64
75890 Par ch=1 c=64 v=127
75924 On ch=1 n=d#6 v=98
75932 On ch=1 n=a#5 v=72
75932 On ch=1 n=d#5 v=99
75952 On ch=1 n=a#4 v=88
75966 On ch=1 n=d#4 v=81
76040 Off ch=1 n=d#4 v=64
76054 Off ch=1 n=d#5 v=64
76062 Off ch=1 n=a#4 v=64
76092 Off ch=1 n=d#6 v=64
76106 Off ch=1 n=a#5 v=64
76226 On ch=1 n=c#6 v=93
76229 On ch=1 n=c#5 v=90
76388 Off ch=1 n=c#5 v=64
76440 Off ch=1 n=c#6 v=64
76518 On ch=1 n=c6 v=84
76521 On ch=1 n=g#4 v=97
76521 On ch=1 n=c5 v=97
76525 On ch=1 n=g#3 v=90
76534 On ch=1 n=g#5 v=64
76534 On ch=1 n=f#5 v=56
76558 Off ch=1 n=g#4 v=64
76561 Off ch=1 n=g#3 v=64
76568 On ch=1 n=b5 v=25
76571 Off ch=1 n=c5 v=64
76584 Off ch=1 n=f#5 v=64
76594 Off ch=1 n=g#5 v=64
76610 Off ch=1 n=c6 v=64
76628 Off ch=1 n=b5 v=64
76660 On ch=1 n=a#4 v=78
76666 On ch=1 n=a#3 v=61
76672 On ch=1 n=d#4 v=62
76674 On ch=1 n=c#5 v=91
76674 On ch=1 n=g#5 v=56
76676 On ch=1 n=c#6 v=84
76684 On ch=1 n=f#5 v=38
76712 Off ch=1 n=c#5 v=64
76715 Off ch=1 n=a#3 v=64
76715 Off ch=1 n=c#6 v=64
76722 Off ch=1 n=d#4 v=64
76736 Off ch=1 n=f#5 v=64
76758 Off ch=1 n=g#5 v=64
76764 Off ch=1 n=a#4 v=64
76810 On ch=1 n=f#5 v=52
76814 On ch=1 n=d#5 v=86
76814 On ch=1 n=d#6 v=86
76816 On ch=1 n=g#5 v=70
76816 On ch=1 n=c5 v=106
76818 On ch=1 n=c4 v=89
76830 On ch=1 n=d#4 v=66
76860 Off ch=1 n=c4 v=64
76900 Off ch=1 n=c5 v=64
76904 Off ch=1 n=d#5 v=64
76904 Off ch=1 n=d#4 v=64
76928 Off ch=1 n=g#5 v=64
76938 Off ch=1 n=f#5 v=64
76942 Off ch=1 n=d#6 v=64
76952 Par ch=1 c=64 v=0
77112 On ch=1 n=g#5 v=87
77114 On ch=1 n=f6 v=103
77116 On ch=1 n=c6 v=89
77118 On ch=1 n=f5 v=94
77122 On ch=1 n=g#4 v=91
77124 On ch=1 n=g#3 v=97
77138 On ch=1 n=d#4 v=84
77182 Off ch=1 n=d#4 v=64
77190 Off ch=1 n=g#3 v=64
77196 Off ch=1 n=f6 v=64
77196 Off ch=1 n=g#4 v=64
77208 Off ch=1 n=f5 v=64
77212 Par ch=1 c=64 v=127
77248 Off ch=1 n=c6 v=64
77264 Off ch=1 n=g#5 v=64
77320 Par ch=1 c=64 v=0
77550 On ch=1 n=c#6 v=95
77550 On ch=1 n=c#5 v=100
77550 On ch=1 n=g#5 v=87
77556 On ch=1 n=c#4 v=93
77556 On ch=1 n=c#3 v=88
77558 On ch=1 n=f5 v=94
77572 On ch=1 n=g#3 v=87
77590 Off ch=1 n=c#3 v=64
77608 Off ch=1 n=g#3 v=64
77610 Off ch=1 n=c#4 v=64
77612 Par ch=1 c=64 v=127
77656 Off ch=1 n=c#5 v=64
77700 Off ch=1 n=c#6 v=64
77714 Off ch=1 n=f5 v=64
77748 Off ch=1 n=g#5 v=64
78088 Par ch=1 c=64 v=0
79058 On ch=1 n=a#4 v=33
79064 On ch=1 n=f#4 v=41
79072 On ch=1 n=c#4 v=34
79074 On ch=1 n=f#3 v=25
79394 Par ch=1 c=64 v=127
79500 Off ch=1 n=c#4 v=64
79592 Off ch=1 n=f#4 v=64
79820 Off ch=1 n=f#3 v=64
79966 On ch=1 n=c#4 v=23
79968 On ch=1 n=g#4 v=38
79975 On ch=1 n=f4 v=54
79976 On ch=1 n=c#3 v=30
79978 Par ch=1 c=64 v=0
80020 Off ch=1 n=a#4 v=64
80144 Off ch=1 n=c#4 v=64
80155 Off ch=1 n=f4 v=64
80162 Par ch=1 c=64 v=127
80214 Off ch=1 n=c#3 v=64
80286 Par ch=1 c=64 v=0
80322 On ch=1 n=c#4 v=49
80328 On ch=1 n=a#4 v=47
80328 On ch=1 n=f#3 v=38
80328 On ch=1 n=f#4 v=57
80346 Off ch=1 n=g#4 v=64
80470 Par ch=1 c=64 v=127
80480 Off ch=1 n=c#4 v=64
80508 Off ch=1 n=f#4 v=64
80632 Off ch=1 n=f#3 v=64
80654 Par ch=1 c=64 v=0
80666 On ch=1 n=c#3 v=35
80670 On ch=1 n=c#4 v=28
80676 On ch=1 n=g#4 v=43
80680 On ch=1 n=f4 v=47
80716 Off ch=1 n=a#4 v=64
80874 Off ch=1 n=c#3 v=64
80900 Par ch=1 c=64 v=127
80966 Off ch=1 n=f4 v=64
81006 Off ch=1 n=c#4 v=64
81026 On ch=1 n=c#3 v=37
81164 Off ch=1 n=c#3 v=64
81194 On ch=1 n=b2 v=44
81300 Off ch=1 n=b2 v=64
81330 Par ch=1 c=64 v=0
81388 On ch=1 n=a#4 v=27
81404 On ch=1 n=c#4 v=23
81412 On ch=1 n=g4 v=37
81412 On ch=1 n=d#4 v=22
81414 On ch=1 n=a#2 v=32
81442 Off ch=1 n=g#4 v=64
81792 Par ch=1 c=64 v=127
81818 Off ch=1 n=g4 v=64
81824 Off ch=1 n=c#4 v=64
81830 Off ch=1 n=d#4 v=64
81860 Off ch=1 n=a#2 v=64
81938 Off ch=1 n=a#4 v=64
82206 On ch=1 n=g#2 v=36
82216 On ch=1 n=b4 v=33
82218 On ch=1 n=d#4 v=22
82222 Par ch=1 c=64 v=0
82238 On ch=1 n=g#4 v=14
82336 Off ch=1 n=g#4 v=64
82372 Off ch=1 n=g#2 v=64
82372 On ch=1 n=a#2 v=45
82386 Off ch=1 n=d#4 v=64
82452 Par ch=1 c=64 v=127
82512 Par ch=1 c=64 v=0
82515 Off ch=1 n=a#2 v=64
82540 On ch=1 n=d#5 v=46
82546 Off ch=1 n=b4 v=64
82548 On ch=1 n=d#4 v=22
82554 On ch=1 n=g#4 v=28
82560 On ch=1 n=b2 v=55
82638 Off ch=1 n=g#4 v=64
82664 Off ch=1 n=b2 v=64
82698 Par ch=1 c=64 v=127
82710 On ch=1 n=c#3 v=57
82722 Off ch=1 n=d#4 v=64
82894 Off ch=1 n=c#3 v=64
82900 On ch=1 n=a#4 v=39
82908 On ch=1 n=d#4 v=35
82914 Off ch=1 n=d#5 v=64
82922 On ch=1 n=d#3 v=40
82926 On ch=1 n=f#4 v=35
82944 Par ch=1 c=64 v=0
83280 Off ch=1 n=f#4 v=64
83296 Par ch=1 c=64 v=127
83338 Off ch=1 n=d#3 v=64
83356 Off ch=1 n=a#4 v=64
83370 Off ch=1 n=d#4 v=64
83640 On ch=1 n=d#4 v=41
83644 On ch=1 n=d#5 v=64
83654 On ch=1 n=b2 v=56
83656 On ch=1 n=b4 v=41
83658 On ch=1 n=b3 v=41
83672 On ch=1 n=f#4 v=35
83804 Par ch=1 c=64 v=0
84006 Off ch=1 n=b3 v=64
84036 Off ch=1 n=f#4 v=64
84050 Par ch=1 c=64 v=127
84064 Off ch=1 n=d#5 v=64
84070 Off ch=1 n=b4 v=64
84084 Off ch=1 n=d#4 v=64
84088 Off ch=1 n=b2 v=64
84340 On ch=1 n=c#4 v=54
84342 On ch=1 n=c#5 v=61
84342 Par ch=1 c=64 v=0
84344 On ch=1 n=a#4 v=35
84348 On ch=1 n=f#2 v=70
84354 On ch=1 n=f#3 v=48
84362 On ch=1 n=f#4 v=44
84442 Off ch=1 n=f#3 v=64
84442 Off ch=1 n=f#4 v=64
84472 Off ch=1 n=c#4 v=64
84476 Off ch=1 n=f#2 v=64
84480 Par ch=1 c=64 v=127
84516 Off ch=1 n=c#5 v=64
84542 Off ch=1 n=a#4 v=64
84650 Par ch=1 c=64 v=0
84653 On ch=1 n=d#4 v=67
84653 On ch=1 n=d#5 v=75
84653 On ch=1 n=b4 v=63
84657 On ch=1 n=b3 v=69
84666 On ch=1 n=b2 v=80
84674 On ch=1 n=f#4 v=56
84798 Off ch=1 n=b3 v=64
84830 Off ch=1 n=d#5 v=64
84834 Par ch=1 c=64 v=127
84850 Off ch=1 n=b4 v=64
84850 Off ch=1 n=f#4 v=64
84856 Off ch=1 n=b2 v=64
84862 Off ch=1 n=d#4 v=64
84972 On ch=1 n=f#3 v=73
84974 On ch=1 n=f#2 v=82
84974 On ch=1 n=c#4 v=81
84976 On ch=1 n=c#5 v=80
84980 On ch=1 n=a#4 v=57
84986 On ch=1 n=f#4 v=59
85002 Par ch=1 c=64 v=0
85130 Off ch=1 n=f#3 v=64
85152 Off ch=1 n=f#2 v=64
85172 Off ch=1 n=c#4 v=64
85172 Par ch=1 c=64 v=127
85240 Off ch=1 n=f#4 v=64
85288 Off ch=1 n=a#4 v=64
85312 Off ch=1 n=c#5 v=64
85315 On ch=1 n=f#3 v=72
85318 On ch=1 n=f#2 v=77
85376 Off ch=1 n=f#2 v=64
85406 Off ch=1 n=f#3 v=64
85460 On ch=1 n=f3 v=89
85476 On ch=1 n=f2 v=51
85556 Off ch=1 n=f3 v=64
85568 Off ch=1 n=f2 v=64
85630 On ch=1 n=f#4 v=89
85630 On ch=1 n=f#5 v=79
85640 On ch=1 n=d#3 v=83
85640 On ch=1 n=a#4 v=62
85640 On ch=1 n=d#2 v=89
85643 On ch=1 n=d#5 v=79
85724 Par ch=1 c=64 v=0
86062 Par ch=1 c=64 v=127
86066 Off ch=1 n=f#4 v=64
86078 Off ch=1 n=d#5 v=64
86092 Off ch=1 n=a#4 v=64
86112 Off ch=1 n=d#2 v=64
86114 Off ch=1 n=d#3 v=64
86270 Off ch=1 n=f#5 v=64
86342 On ch=1 n=g#3 v=95
86350 On ch=1 n=g#2 v=88
86352 On ch=1 n=g#4 v=68
86356 On ch=1 n=d#5 v=84
86358 On ch=1 n=c5 v=73
86438 Off ch=1 n=g#3 v=64
86464 Off ch=1 n=g#2 v=64
86534 On ch=1 n=f#3 v=81
86542 On ch=1 n=f#2 v=95
86546 Off ch=1 n=c5 v=64
86556 Off ch=1 n=g#4 v=64
86568 Off ch=1 n=d#5 v=64
86672 On ch=1 n=g#5 v=88
86678 On ch=1 n=d#5 v=72
86682 On ch=1 n=g#4 v=86
86686 Off ch=1 n=f#3 v=64
86686 On ch=1 n=c5 v=85
86688 On ch=1 n=f2 v=101
86691 On ch=1 n=f3 v=96
86691 Par ch=1 c=64 v=0
86708 Off ch=1 n=f#2 v=64
87022 Off ch=1 n=f2 v=64
87030 Off ch=1 n=f3 v=64
87042 Off ch=1 n=c5 v=64
87048 Off ch=1 n=g#4 v=64
87062 Par ch=1 c=64 v=127
87066 Off ch=1 n=d#5 v=64
87248 Off ch=1 n=g#5 v=64
87276 On ch=1 n=a#3 v=96
87278 On ch=1 n=a#4 v=76
87284 On ch=1 n=f5 v=85
87286 On ch=1 n=a#2 v=89
87296 On ch=1 n=c#5 v=69
87352 Off ch=1 n=c#5 v=64
87358 Off ch=1 n=a#3 v=64
87368 Off ch=1 n=a#2 v=64
87382 Off ch=1 n=f5 v=64
87386 Off ch=1 n=a#4 v=64
87444 On ch=1 n=g#3 v=86
87450 On ch=1 n=g#2 v=83
87546 Off ch=1 n=g#3 v=64
87554 Par ch=1 c=64 v=0
87576 Off ch=1 n=g#2 v=64
87976 On ch=1 n=a#5 v=92
87976 On ch=1 n=a#4 v=93
87982 On ch=1 n=c#5 v=89
87982 On ch=1 n=g5 v=87
87985 On ch=1 n=e5 v=91
87990 On ch=1 n=g3 v=101
87992 On ch=1 n=g2 v=104
88336 Off ch=1 n=g3 v=64
88336 Off ch=1 n=g2 v=64
88338 Off ch=1 n=a#4 v=64
88338 Off ch=1 n=g5 v=64
88344 Off ch=1 n=c#5 v=64
88348 Off ch=1 n=e5 v=64
88368 Par ch=1 c=64 v=127
88404 Off ch=1 n=a#5 v=64
88658 On ch=1 n=c#6 v=97
88660 On ch=1 n=c#5 v=99
88660 On ch=1 n=a#5 v=78
88666 On ch=1 n=a#3 v=95
88668 On ch=1 n=e5 v=89
88668 On ch=1 n=g5 v=82
88674 On ch=1 n=a#2 v=92
88828 Par ch=1 c=64 v=0
88998 Off ch=1 n=e5 v=64
89014 Off ch=1 n=a#2 v=64
89016 Off ch=1 n=g5 v=64
89024 Off ch=1 n=c#5 v=64
89028 Par ch=1 c=64 v=127
89043 Off ch=1 n=a#5 v=64
89062 Off ch=1 n=a#3 v=64
89082 Off ch=1 n=c#6 v=64
89278 On ch=1 n=e6 v=98
89278 On ch=1 n=g5 v=85
89278 On ch=1 n=a#5 v=78
89281 On ch=1 n=e5 v=105
89281 On ch=1 n=c#6 v=86
89288 On ch=1 n=c#4 v=90
89290 Par ch=1 c=64 v=0
89290 On ch=1 n=c#3 v=87
89458 Par ch=1 c=64 v=127
89472 Off ch=1 n=c#4 v=64
89480 Off ch=1 n=g5 v=64
89492 Off ch=1 n=e5 v=64
89526 Off ch=1 n=e6 v=64
89526 Off ch=1 n=a#5 v=64
89540 Off ch=1 n=c#3 v=64
89546 Off ch=1 n=c#6 v=64
89566 Par ch=1 c=64 v=0
89612 On ch=1 n=g#2 v=100
89612 On ch=1 n=g#3 v=107
89764 Off ch=1 n=g#2 v=64
89786 Off ch=1 n=g#3 v=64
89812 Par ch=1 c=64 v=127
89994 On ch=1 n=f6 v=105
89997 On ch=1 n=c#6 v=82
89997 On ch=1 n=g#5 v=80
90001 On ch=1 n=g#4 v=76
90001 On ch=1 n=c#5 v=84
90001 On ch=1 n=f5 v=89
90150 Off ch=1 n=f5 v=64
90224 Off ch=1 n=f6 v=64
90226 Off ch=1 n=c#6 v=64
90258 Off ch=1 n=g#4 v=64
90268 Off ch=1 n=g#5 v=64
90324 Off ch=1 n=c#5 v=64
90410 On ch=1 n=d#6 v=90
90412 Par ch=1 c=64 v=0
90412 On ch=1 n=f#5 v=79
90414 On ch=1 n=g#5 v=68
90414 On ch=1 n=c6 v=84
90422 On ch=1 n=c5 v=78
90428 On ch=1 n=g#4 v=62
90652 Off ch=1 n=g#5 v=64
90671 Par ch=1 c=64 v=127
90682 Off ch=1 n=c6 v=64
90712 Off ch=1 n=c5 v=64
90726 Off ch=1 n=g#4 v=64
90750 Off ch=1 n=f#5 v=64
90820 On ch=1 n=g#5 v=72
90820 On ch=1 n=c#6 v=86
90823 On ch=1 n=f5 v=91
90834 On ch=1 n=c#5 v=78
90842 Par ch=1 c=64 v=0
90845 On ch=1 n=c#4 v=62
90860 On ch=1 n=g#4 v=44
90892 Off ch=1 n=d#6 v=64
91286 Par ch=1 c=64 v=127
91534 Off ch=1 n=f5 v=64
91550 Off ch=1 n=g#5 v=64
91606 Off ch=1 n=c#5 v=64
91622 Off ch=1 n=c#4 v=64
91630 Off ch=1 n=g#4 v=64
91642 Off ch=1 n=c#6 v=64
92224 Par ch=1 c=64 v=0
92284 On ch=1 n=b5 v=56
92322 On ch=1 n=b4 v=28
92328 On ch=1 n=d5 v=32
92330 On ch=1 n=c#4 v=26
92336 On ch=1 n=f5 v=19
92670 Par ch=1 c=64 v=127
92694 Off ch=1 n=b4 v=64
92758 Off ch=1 n=c#4 v=64
92776 Off ch=1 n=d5 v=64
92802 Off ch=1 n=b5 v=64
92802 Off ch=1 n=f5 v=64
93106 On ch=1 n=b5 v=64
93134 On ch=1 n=d5 v=27
93140 On ch=1 n=b4 v=26
93148 On ch=1 n=c#4 v=26
93154 On ch=1 n=f5 v=13
93236 Off ch=1 n=b4 v=64
93238 Off ch=1 n=c#4 v=64
93244 Off ch=1 n=d5 v=64
93252 Off ch=1 n=f5 v=64
93294 Off ch=1 n=b5 v=64
93520 On ch=1 n=a#5 v=58
93530 Par ch=1 c=64 v=0
93552 On ch=1 n=a#4 v=27
93564 On ch=1 n=d5 v=22
93567 On ch=1 n=c#4 v=23
93578 On ch=1 n=b4 v=17
93596 On ch=1 n=f5 v=14
93868 Par ch=1 c=64 v=127
93910 Off ch=1 n=b4 v=64
93952 Off ch=1 n=c#4 v=64
93962 Off ch=1 n=d5 v=64
93970 Off ch=1 n=f5 v=64
93992 Off ch=1 n=a#4 v=64
94034 Off ch=1 n=a#5 v=64
94402 On ch=1 n=g#5 v=38
94438 Par ch=1 c=64 v=0
94441 On ch=1 n=g#4 v=17
94447 On ch=1 n=b4 v=21
94447 On ch=1 n=c#4 v=15
94462 On ch=1 n=d5 v=20
94606 Par ch=1 c=64 v=127
94616 Off ch=1 n=b4 v=64
94630 Off ch=1 n=c#4 v=64
94644 Off ch=1 n=d5 v=64
94662 Off ch=1 n=g#4 v=64
94698 Off ch=1 n=g#5 v=64
94828 On ch=1 n=f#5 v=44
94854 On ch=1 n=d5 v=38
94864 On ch=1 n=b4 v=21
94872 On ch=1 n=f#4 v=27
94880 On ch=1 n=c#4 v=19
94950 Off ch=1 n=b4 v=64
94954 Off ch=1 n=d5 v=64
94972 Off ch=1 n=c#4 v=64
94982 Off ch=1 n=f#4 v=64
95046 Off ch=1 n=f#5 v=64
95190 Par ch=1 c=64 v=0
95190 On ch=1 n=f5 v=55
95206 On ch=1 n=b4 v=40
95209 On ch=1 n=c#4 v=35
95216 On ch=1 n=d5 v=42
95222 On ch=1 n=f4 v=69
95350 Off ch=1 n=b4 v=64
95358 Par ch=1 c=64 v=127
95360 Off ch=1 n=d5 v=64
95364 Off ch=1 n=c#4 v=64
95384 Off ch=1 n=f4 v=64
95410 Off ch=1 n=f5 v=64
95550 On ch=1 n=f#5 v=57
95558 Par ch=1 c=64 v=0
95560 On ch=1 n=c#4 v=34
95576 On ch=1 n=b4 v=40
95580 On ch=1 n=f#4 v=52
95584 On ch=1 n=d5 v=43
95698 Off ch=1 n=d5 v=64
95730 Off ch=1 n=b4 v=64
95736 Off ch=1 n=c#4 v=64
95758 Par ch=1 c=64 v=127
95786 Off ch=1 n=f#5 v=64
95792 Off ch=1 n=f#4 v=64
95958 Par ch=1 c=64 v=0
95958 On ch=1 n=g5 v=59
95988 On ch=1 n=d5 v=38
96000 On ch=1 n=b4 v=32
96008 On ch=1 n=c#4 v=31
96011 On ch=1 n=g4 v=50
96206 Off ch=1 n=b4 v=64
96234 Off ch=1 n=d5 v=64
96246 Off ch=1 n=c#4 v=64
96249 Par ch=1 c=64 v=127
96260 Off ch=1 n=g4 v=64
96300 Off ch=1 n=g5 v=64
96552 On ch=1 n=g#5 v=44
96604 Par ch=1 c=64 v=0
96607 On ch=1 n=g#4 v=24
96607 On ch=1 n=b4 v=21
96607 On ch=1 n=d5 v=28
96614 On ch=1 n=c#4 v=15
97064 Par ch=1 c=64 v=127
97234 Off ch=1 n=b4 v=64
97308 Off ch=1 n=g#4 v=64
97352 Off ch=1 n=c#4 v=64
97374 Off ch=1 n=g#5 v=64
97374 Off ch=1 n=d5 v=64
97822 On ch=1 n=g#5 v=47
97832 Par ch=1 c=64 v=0
97840 On ch=1 n=b4 v=24
97844 On ch=1 n=d5 v=35
97844 On ch=1 n=e4 v=22
98202 Par ch=1 c=64 v=127
98276 Off ch=1 n=b4 v=64
98276 Off ch=1 n=d5 v=64
98462 Off ch=1 n=g#5 v=64
98500 On ch=1 n=b5 v=11
98524 Par ch=1 c=64 v=0
98552 On ch=1 n=c#5 v=20
98554 On ch=1 n=a5 v=34
98560 Off ch=1 n=b5 v=64
98576 On ch=1 n=a4 v=19
98578 Off ch=1 n=e4 v=64
98588 On ch=1 n=a3 v=10
98752 Off ch=1 n=a4 v=64
98784 Par ch=1 c=64 v=127
98790 Off ch=1 n=a3 v=64
98798 Off ch=1 n=a5 v=64
98884 Off ch=1 n=c#5 v=64
99084 On ch=1 n=f5 v=54
99087 On ch=1 n=b4 v=43
99090 On ch=1 n=g#4 v=30
99122 On ch=1 n=c#4 v=22
99324 Par ch=1 c=64 v=0
99522 Par ch=1 c=64 v=127
99558 Off ch=1 n=b4 v=64
99612 Off ch=1 n=g#4 v=64
99716 On ch=1 n=g#5 v=29
99728 Off ch=1 n=f5 v=64
99784 Par ch=1 c=64 v=0
99786 Off ch=1 n=g#5 v=64
99806 On ch=1 n=a#4 v=32
99809 Off ch=1 n=c#4 v=64
99812 On ch=1 n=f#4 v=27
99820 On ch=1 n=f#5 v=35
99832 On ch=1 n=f#3 v=23
100014 Par ch=1 c=64 v=127
100070 Off ch=1 n=f#4 v=64
100078 Off ch=1 n=f#3 v=64
100104 Off ch=1 n=f#5 v=64
100107 Off ch=1 n=a#4 v=64
100328 On ch=1 n=g#4 v=44
100336 On ch=1 n=d5 v=59
100344 On ch=1 n=a#3 v=38
100356 On ch=1 n=f4 v=57
100492 Par ch=1 c=64 v=0
100774 Off ch=1 n=f4 v=64
100812 Par ch=1 c=64 v=127
100872 Off ch=1 n=d5 v=64
100996 Off ch=1 n=g#4 v=64
101068 On ch=1 n=f5 v=42
101142 Off ch=1 n=f5 v=64
101144 On ch=1 n=d#5 v=60
101148 On ch=1 n=f#4 v=55
101158 On ch=1 n=d#4 v=38
101164 On ch=1 n=d#3 v=33
101240 Off ch=1 n=a#3 v=64
101244 Par ch=1 c=64 v=0
101612 Par ch=1 c=64 v=127
102224 Off ch=1 n=d#5 v=64
102244 Off ch=1 n=d#3 v=64
102258 Par ch=1 c=64 v=0
102262 On ch=1 n=g#3 v=34
102268 On ch=1 n=c5 v=38
102502 Par ch=1 c=64 v=127
102528 Off ch=1 n=d#4 v=64
102684 On ch=1 n=d#5 v=32
102694 Off ch=1 n=c5 v=64
102724 Off ch=1 n=f#4 v=64
102776 Off ch=1 n=d#5 v=64
102796 Par ch=1 c=64 v=0
102810 On ch=1 n=c#5 v=33
102816 On ch=1 n=c#4 v=30
102816 On ch=1 n=f4 v=39
102826 On ch=1 n=c#3 v=26
102832 Off ch=1 n=g#3 v=64
103014 Off ch=1 n=f4 v=64
103040 Off ch=1 n=c#3 v=64
103070 Par ch=1 c=64 v=127
103122 Off ch=1 n=c#4 v=64
103174 Off ch=1 n=c#5 v=64
103604 On ch=1 n=a#6 v=84
103613 On ch=1 n=c#5 v=24
103614 On ch=1 n=a#5 v=45
103614 On ch=1 n=f#5 v=30
103616 On ch=1 n=f#6 v=44
103622 On ch=1 n=c#6 v=55
103732 Par ch=1 c=64 v=0
104121 Off ch=1 n=c#5 v=64
104148 Par ch=1 c=64 v=127
104202 Off ch=1 n=f#6 v=64
104222 Off ch=1 n=c#6 v=64
104228 Off ch=1 n=a#5 v=64
104292 Off ch=1 n=f#5 v=64
104310 Off ch=1 n=a#6 v=64
104516 On ch=1 n=g#6 v=78
104538 On ch=1 n=c#6 v=41
104538 On ch=1 n=g#5 v=35
104548 On ch=1 n=f6 v=43
104552 On ch=1 n=f5 v=35
104572 On ch=1 n=c#5 v=30
104594 Par ch=1 c=64 v=0
104666 Off ch=1 n=c#5 v=64
104710 Off ch=1 n=g#5 v=64
104716 Par ch=1 c=64 v=127
104730 Off ch=1 n=f5 v=64
104732 Off ch=1 n=c#6 v=64
104738 Off ch=1 n=f6 v=64
104792 Off ch=1 n=g#6 v=64
104886 On ch=1 n=a#6 v=86
104894 On ch=1 n=a#5 v=63
104900 On ch=1 n=f#6 v=61
104908 On ch=1 n=c#6 v=49
104916 Par ch=1 c=64 v=0
104922 On ch=1 n=f#5 v=44
104928 On ch=1 n=c#5 v=45
105084 Par ch=1 c=64 v=127
105090 Off ch=1 n=c#6 v=64
105100 Off ch=1 n=a#5 v=64
105112 Off ch=1 n=c#5 v=64
105120 Off ch=1 n=f#5 v=64
105142 Off ch=1 n=f#6 v=64
105148 Off ch=1 n=a#6 v=64
105256 On ch=1 n=g#6 v=85
105270 On ch=1 n=g#5 v=64
105280 On ch=1 n=c#6 v=47
105280 On ch=1 n=c#5 v=62
105283 On ch=1 n=f6 v=59
105298 On ch=1 n=f5 v=25
105378 Par ch=1 c=64 v=0
105534 Off ch=1 n=c#5 v=64
105562 Par ch=1 c=64 v=127
105596 Off ch=1 n=f5 v=64
105676 On ch=1 n=c#5 v=73
105786 Off ch=1 n=f6 v=64
105806 Off ch=1 n=c#6 v=64
105810 Off ch=1 n=c#5 v=64
105852 On ch=1 n=b4 v=76
105990 Off ch=1 n=g#5 v=64
106044 On ch=1 n=a#6 v=78
106052 On ch=1 n=c#6 v=47
106056 On ch=1 n=d#6 v=48
106058 On ch=1 n=g6 v=67
106064 On ch=1 n=g5 v=55
106070 On ch=1 n=a#4 v=43
106074 On ch=1 n=d#5 v=48
106078 Off ch=1 n=b4 v=64
106094 Off ch=1 n=g#6 v=64
106097 Par ch=1 c=64 v=0
106436 Par ch=1 c=64 v=127
106480 Off ch=1 n=d#6 v=64
106483 Off ch=1 n=g6 v=64
106488 Off ch=1 n=g5 v=64
106570 Off ch=1 n=d#5 v=64
106596 Off ch=1 n=c#6 v=64
106596 Off ch=1 n=a#4 v=64
106602 Off ch=1 n=a#6 v=64
106786 On ch=1 n=b6 v=104
106786 On ch=1 n=d#6 v=65
106800 On ch=1 n=g#5 v=66
106806 On ch=1 n=g#4 v=66
106812 On ch=1 n=g#6 v=50
106972 Off ch=1 n=d#6 v=64
106972 Off ch=1 n=g#6 v=64
107002 Off ch=1 n=g#4 v=64
107004 Off ch=1 n=b6 v=64
107022 On ch=1 n=a#4 v=59
107092 Off ch=1 n=g#5 v=64
107186 Off ch=1 n=a#4 v=64
107208 On ch=1 n=d#6 v=72
107216 On ch=1 n=b6 v=94
107216 On ch=1 n=d#7 v=70
107218 On ch=1 n=b4 v=64
107224 On ch=1 n=g#6 v=57
107226 On ch=1 n=d#5 v=62
107276 Off ch=1 n=d#5 v=64
107330 Off ch=1 n=g#6 v=64
107384 Off ch=1 n=d#6 v=64
107390 On ch=1 n=c#5 v=79
107430 Off ch=1 n=d#7 v=64
107440 Off ch=1 n=b4 v=64
107508 Off ch=1 n=c#5 v=64
107540 Off ch=1 n=b6 v=64
107574 Par ch=1 c=64 v=0
107582 On ch=1 n=a#6 v=77
107590 On ch=1 n=d#6 v=68
107590 On ch=1 n=d#5 v=76
107596 On ch=1 n=f#6 v=58
107818 Off ch=1 n=d#5 v=64
107836 Par ch=1 c=64 v=127
107862 Off ch=1 n=a#6 v=64
107880 Off ch=1 n=f#6 v=64
107906 Off ch=1 n=d#6 v=64
108368 On ch=1 n=d#6 v=95
108370 On ch=1 n=d#5 v=88
108370 On ch=1 n=b5 v=91
108373 On ch=1 n=b4 v=82
108378 On ch=1 n=f#5 v=65
108380 On ch=1 n=f#4 v=77
108382 On ch=1 n=b3 v=68
108572 Par ch=1 c=64 v=0
108956 Par ch=1 c=64 v=127
108970 Off ch=1 n=b4 v=64
108972 Off ch=1 n=d#6 v=64
108976 Off ch=1 n=f#5 v=64
109042 Off ch=1 n=b5 v=64
109044 Off ch=1 n=b3 v=64
109062 Off ch=1 n=d#5 v=64
109086 Off ch=1 n=f#4 v=64
109232 On ch=1 n=c#6 v=84
109232 On ch=1 n=c#5 v=90
109236 On ch=1 n=a#5 v=68
109238 On ch=1 n=f#5 v=62
109246 On ch=1 n=f#4 v=86
109260 On ch=1 n=f#3 v=73
109441 Off ch=1 n=c#5 v=64
109444 Off ch=1 n=f#3 v=64
109458 Off ch=1 n=f#5 v=64
109462 Off ch=1 n=f#4 v=64
109468 Off ch=1 n=c#6 v=64
109632 On ch=1 n=d#6 v=93
109634 On ch=1 n=d#5 v=90
109636 On ch=1 n=b5 v=89
109638 On ch=1 n=f#5 v=68
109646 On ch=1 n=b4 v=91
109662 On ch=1 n=b3 v=75
109690 Off ch=1 n=a#5 v=64
109694 Par ch=1 c=64 v=0
109830 Off ch=1 n=b4 v=64
109862 Off ch=1 n=d#6 v=64
109862 Par ch=1 c=64 v=127
109880 Off ch=1 n=b3 v=64
109883 Off ch=1 n=d#5 v=64
109898 Off ch=1 n=b5 v=64
109906 Off ch=1 n=f#5 v=64
109978 On ch=1 n=c#6 v=89
109980 On ch=1 n=f#5 v=64
109982 On ch=1 n=c#5 v=99
109984 On ch=1 n=f#4 v=95
109984 On ch=1 n=a#5 v=79
109994 On ch=1 n=f#3 v=88
110078 Par ch=1 c=64 v=0
110196 Off ch=1 n=f#4 v=64
110200 Par ch=1 c=64 v=127
110216 Off ch=1 n=f#3 v=64
110258 Off ch=1 n=c#5 v=64
110318 Off ch=1 n=f#5 v=64
110352 On ch=1 n=f#4 v=84
110360 On ch=1 n=f#3 v=81
110362 Off ch=1 n=a#5 v=64
110388 Off ch=1 n=c#6 v=64
110448 Off ch=1 n=f#4 v=64
110472 Off ch=1 n=f#3 v=64
110500 On ch=1 n=f4 v=111
110502 On ch=1 n=f3 v=97
110582 Off ch=1 n=f4 v=64
110638 Off ch=1 n=f3 v=64
110672 On ch=1 n=f#6 v=95
110674 On ch=1 n=f#5 v=84
110678 On ch=1 n=d#6 v=84
110680 On ch=1 n=a#5 v=73
110686 On ch=1 n=d#4 v=89
110690 On ch=1 n=d#3 v=91
110770 Par ch=1 c=64 v=0
111170 Par ch=1 c=64 v=127
111312 Off ch=1 n=d#6 v=64
111338 Off ch=1 n=d#3 v=64
111346 Off ch=1 n=d#4 v=64
111348 Off ch=1 n=f#5 v=64
111364 Off ch=1 n=a#5 v=64
111538 On ch=1 n=d#6 v=86
111542 On ch=1 n=g#5 v=69
111542 On ch=1 n=c6 v=79
111544 On ch=1 n=g#4 v=78
111547 On ch=1 n=g#3 v=88
111586 Off ch=1 n=f#6 v=64
111728 Off ch=1 n=g#4 v=64
111768 Off ch=1 n=g#3 v=64
111818 On ch=1 n=f#4 v=96
111826 On ch=1 n=f#3 v=93
111936 Off ch=1 n=c6 v=64
111960 Off ch=1 n=g#5 v=64
111970 Off ch=1 n=d#6 v=64
112134 Off ch=1 n=f#4 v=64
112146 Off ch=1 n=f#3 v=64
112180 On ch=1 n=f3 v=101
112182 On ch=1 n=c#5 v=92
112260 Par ch=1 c=64 v=0
112388 On ch=1 n=c#4 v=83
112478 Off ch=1 n=f3 v=64
112490 Par ch=1 c=64 v=127
112524 On ch=1 n=f4 v=102
112534 Off ch=1 n=c#5 v=64
112534 Off ch=1 n=c#4 v=64
112626 Off ch=1 n=f4 v=64
112638 On ch=1 n=g#4 v=84
112746 On ch=1 n=b4 v=87
112784 Off ch=1 n=g#4 v=64
112842 On ch=1 n=c#5 v=90
112852 On ch=1 n=c#6 v=82
112854 On ch=1 n=g#6 v=99
112860 On ch=1 n=g#5 v=85
112862 On ch=1 n=b5 v=96
112968 Off ch=1 n=b4 v=64
113234 On ch=1 n=b4 v=2
113274 Par ch=1 c=64 v=0
113382 Par ch=1 c=64 v=127
113836 Off ch=1 n=b4 v=64
113864 Off ch=1 n=c#5 v=64
114798 Off ch=1 n=g#5 v=64
114816 Off ch=1 n=g#6 v=64
114878 Off ch=1 n=b5 v=64
114900 Off ch=1 n=c#6 v=64
116316 Par ch=1 c=64 v=0
116318 On ch=1 n=b5 v=42
116328 On ch=1 n=c#4 v=13
116330 On ch=1 n=g#5 v=13
116342 On ch=1 n=b4 v=13
116352 On ch=1 n=f3 v=28
116670 Par ch=1 c=64 v=127
116846 Off ch=1 n=c#4 v=64
116858 Off ch=1 n=b4 v=64
116890 Off ch=1 n=b5 v=64
117004 Off ch=1 n=g#5 v=64
117038 Off ch=1 n=f3 v=64
117246 On ch=1 n=a#5 v=25
117254 Par ch=1 c=64 v=0
117264 On ch=1 n=f#3 v=15
117280 On ch=1 n=f#5 v=16
117282 On ch=1 n=c#4 v=16
117298 On ch=1 n=a#4 v=4
117426 Off ch=1 n=c#4 v=64
117438 Par ch=1 c=64 v=127
117462 Off ch=1 n=f#3 v=64
117474 Off ch=1 n=a#5 v=64
117478 Off ch=1 n=f#5 v=64
117532 Off ch=1 n=a#4 v=64
117734 On ch=1 n=g#4 v=31
117744 On ch=1 n=f5 v=35
117774 On ch=1 n=c#4 v=8
117780 On ch=1 n=b3 v=21
117792 Par ch=1 c=64 v=0
118100 Par ch=1 c=64 v=127
118126 Off ch=1 n=c#4 v=64
118200 Off ch=1 n=f5 v=64
118246 Off ch=1 n=g#4 v=64
118264 Off ch=1 n=b3 v=64
118530 Par ch=1 c=64 v=0
118533 On ch=1 n=f#4 v=29
118533 On ch=1 n=f#5 v=25
118533 On ch=1 n=c#4 v=23
118546 On ch=1 n=a#3 v=16
118746 Off ch=1 n=c#4 v=64
118758 Off ch=1 n=f#4 v=64
118758 Par ch=1 c=64 v=127
118766 Off ch=1 n=a#3 v=64
118792 Off ch=1 n=f#5 v=64
118966 On ch=1 n=b4 v=30
118968 On ch=1 n=b3 v=29
118974 On ch=1 n=d#5 v=42
118974 Par ch=1 c=64 v=0
118977 On ch=1 n=f#4 v=37
119360 Par ch=1 c=64 v=127
119402 Off ch=1 n=b4 v=64
119422 Off ch=1 n=f#4 v=64
119450 Off ch=1 n=b3 v=64
119482 Off ch=1 n=d#5 v=64
119666 Par ch=1 c=64 v=0
119694 On ch=1 n=f#4 v=41
119696 On ch=1 n=c#5 v=46
119700 On ch=1 n=c#4 v=32
119704 On ch=1 n=a#4 v=28
119846 Off ch=1 n=c#4 v=64
119848 Off ch=1 n=a#4 v=64
119862 Off ch=1 n=c#5 v=64
119866 Par ch=1 c=64 v=127
119868 Off ch=1 n=f#4 v=64
119928 Par ch=1 c=64 v=0
120064 On ch=1 n=c#3 v=51
120067 On ch=1 n=g#4 v=38
120070 On ch=1 n=c#5 v=47
120070 On ch=1 n=f4 v=69
120072 On ch=1 n=c#4 v=35
120168 Off ch=1 n=c#4 v=64
120188 Par ch=1 c=64 v=127
120218 Off ch=1 n=c#3 v=64
120220 Off ch=1 n=f4 v=64
120250 Off ch=1 n=g#4 v=64
120256 Off ch=1 n=c#5 v=64
120296 Par ch=1 c=64 v=0
120488 On ch=1 n=c#5 v=64
120494 On ch=1 n=f#4 v=56
120496 On ch=1 n=a#4 v=36
120498 On ch=1 n=f#3 v=47
120532 On ch=1 n=c#4 v=28
120628 Off ch=1 n=c#4 v=64
120650 Par ch=1 c=64 v=127
120672 Off ch=1 n=f#3 v=64
120700 Off ch=1 n=f#4 v=64
120750 Off ch=1 n=a#4 v=64
120776 Off ch=1 n=c#5 v=64
120834 Par ch=1 c=64 v=0
121216 On ch=1 n=b5 v=71
121218 On ch=1 n=c#5 v=41
121220 On ch=1 n=b4 v=48
121230 On ch=1 n=g#5 v=40
121246 On ch=1 n=c#4 v=29
121248 Par ch=1 c=64 v=127
121256 On ch=1 n=f3 v=42
121522 Off ch=1 n=b4 v=64
121610 Off ch=1 n=b5 v=64
121636 Off ch=1 n=c#4 v=64
121662 Off ch=1 n=c#5 v=64
121692 Off ch=1 n=g#5 v=64
121752 Off ch=1 n=f3 v=64
122062 Par ch=1 c=64 v=0
122078 On ch=1 n=a#5 v=57
122084 On ch=1 n=f#5 v=40
122090 On ch=1 n=c#5 v=42
122092 On ch=1 n=a#4 v=37
122096 On ch=1 n=f#3 v=28
122096 On ch=1 n=c#4 v=36
122212 Off ch=1 n=c#4 v=64
122222 Off ch=1 n=a#5 v=64
122238 Off ch=1 n=f#5 v=64
122246 Par ch=1 c=64 v=127
122264 Off ch=1 n=c#5 v=64
122268 Off ch=1 n=f#3 v=64
122280 Off ch=1 n=a#4 v=64
122556 On ch=1 n=f5 v=77
122558 On ch=1 n=g#4 v=46
122558 On ch=1 n=c#4 v=33
122558 On ch=1 n=f4 v=63
122560 On ch=1 n=c#5 v=48
122572 On ch=1 n=b3 v=43
122616 Par ch=1 c=64 v=0
122906 Off ch=1 n=f4 v=64
122908 Par ch=1 c=64 v=127
122918 Off ch=1 n=c#4 v=64
122968 Off ch=1 n=c#5 v=64
123036 Off ch=1 n=f5 v=64
123040 Off ch=1 n=g#4 v=64
123086 Off ch=1 n=b3 v=64
123308 Par ch=1 c=64 v=0
123311 On ch=1 n=f#5 v=46
123318 On ch=1 n=f#4 v=47
123322 On ch=1 n=c#5 v=42
123326 On ch=1 n=a#3 v=30
123332 On ch=1 n=c#4 v=37
123480 Off ch=1 n=c#4 v=64
123490 Off ch=1 n=f#4 v=64
123508 Off ch=1 n=c#5 v=64
123508 Par ch=1 c=64 v=127
123511 Off ch=1 n=f#5 v=64
123512 Off ch=1 n=a#3 v=64
123770 Par ch=1 c=64 v=0
123784 On ch=1 n=d#5 v=56
123794 On ch=1 n=f#4 v=42
123794 On ch=1 n=d#4 v=27
123797 On ch=1 n=b4 v=37
123798 On ch=1 n=b3 v=32
124200 Par ch=1 c=64 v=127
124264 Off ch=1 n=b3 v=64
124276 Off ch=1 n=b4 v=64
124284 Off ch=1 n=f#4 v=64
124300 Off ch=1 n=d#4 v=64
124356 Off ch=1 n=d#5 v=64
124522 Par ch=1 c=64 v=0
124530 On ch=1 n=c#5 v=42
124532 On ch=1 n=a#4 v=31
124534 On ch=1 n=f#4 v=38
124540 On ch=1 n=c#4 v=33
124670 Off ch=1 n=c#4 v=64
124694 Off ch=1 n=c#5 v=64
124710 Off ch=1 n=a#4 v=64
124722 Off ch=1 n=f#4 v=64
124722 Par ch=1 c=64 v=127
124828 Par ch=1 c=64 v=0
124944 On ch=1 n=c#4 v=20
124946 On ch=1 n=g#4 v=30
124948 On ch=1 n=c#5 v=40
124950 On ch=1 n=f4 v=50
124956 On ch=1 n=c#3 v=26
125080 Off ch=1 n=c#3 v=64
125094 Off ch=1 n=c#4 v=64
125112 Off ch=1 n=f4 v=64
125120 Par ch=1 c=64 v=127
125150 Off ch=1 n=g#4 v=64
125206 Off ch=1 n=c#5 v=64
125320 Par ch=1 c=64 v=0
125474 On ch=1 n=f#3 v=12
125480 On ch=1 n=c#4 v=16
125496 On ch=1 n=c#5 v=33
125502 On ch=1 n=f#4 v=30
125504 On ch=1 n=a#4 v=13
125766 Par ch=1 c=64 v=127
125784 Off ch=1 n=f#3 v=64
125822 Off ch=1 n=c#4 v=64
125868 Off ch=1 n=f#4 v=64
125908 Off ch=1 n=a#4 v=64
125964 Off ch=1 n=c#5 v=64
126304 Par ch=1 c=64 v=0
126610 On ch=1 n=b5 v=69
126636 On ch=1 n=d5 v=33
126644 On ch=1 n=f5 v=20
126654 On ch=1 n=b4 v=23
126658 Par ch=1 c=64 v=127
126666 On ch=1 n=c#4 v=23
126968 Off ch=1 n=b4 v=64
126982 Off ch=1 n=c#4 v=64
127020 Off ch=1 n=d5 v=64
127048 Off ch=1 n=b5 v=64
127068 Off ch=1 n=f5 v=64
127526 On ch=1 n=b5 v=64
127542 On ch=1 n=b4 v=29
127552 On ch=1 n=d5 v=24
127560 On ch=1 n=c#4 v=30
127570 On ch=1 n=f5 v=14
127622 Off ch=1 n=b4 v=64
127626 Off ch=1 n=d5 v=64
127626 Off ch=1 n=c#4 v=64
127646 Off ch=1 n=f5 v=64
127680 Off ch=1 n=b5 v=64
127960 On ch=1 n=a#5 v=49
127972 On ch=1 n=d5 v=41
127978 Par ch=1 c=64 v=0
127980 On ch=1 n=a#4 v=27
127986 On ch=1 n=c#4 v=28
128003 On ch=1 n=b4 v=26
128003 On ch=1 n=f5 v=18
128240 Par ch=1 c=64 v=127
128328 Off ch=1 n=b4 v=64
128344 Off ch=1 n=c#4 v=64
128362 Off ch=1 n=d5 v=64
128362 Off ch=1 n=f5 v=64
128386 Off ch=1 n=a#4 v=64
128430 Off ch=1 n=a#5 v=64
128830 On ch=1 n=g#5 v=36
128860 On ch=1 n=f5 v=22
128862 On ch=1 n=d5 v=22
128862 On ch=1 n=g#4 v=25
128870 Par ch=1 c=64 v=0
128882 On ch=1 n=b4 v=23
128908 On ch=1 n=c#4 v=10
128972 Off ch=1 n=b4 v=64
128986 Off ch=1 n=d5 v=64
128992 Off ch=1 n=f5 v=64
129016 Off ch=1 n=c#4 v=64
129038 Par ch=1 c=64 v=127
129054 Off ch=1 n=g#4 v=64
129062 Off ch=1 n=g#5 v=64
129188 On ch=1 n=f#5 v=49
129222 Par ch=1 c=64 v=0
129224 On ch=1 n=d5 v=45
129234 On ch=1 n=b4 v=28
129236 On ch=1 n=f#4 v=41
129248 On ch=1 n=c#4 v=24
129318 Off ch=1 n=d5 v=64
129321 Off ch=1 n=b4 v=64
129356 Off ch=1 n=c#4 v=64
129362 Par ch=1 c=64 v=127
129390 Off ch=1 n=f#4 v=64
129426 Off ch=1 n=f#5 v=64
129546 Par ch=1 c=64 v=0
129549 On ch=1 n=f5 v=51
129572 On ch=1 n=f4 v=70
129576 On ch=1 n=d5 v=39
129578 On ch=1 n=b4 v=32
129588 On ch=1 n=c#4 v=29
129710 Off ch=1 n=b4 v=64
129730 Par ch=1 c=64 v=127
129748 Off ch=1 n=d5 v=64
129756 Off ch=1 n=c#4 v=64
129774 Off ch=1 n=f4 v=64
129808 Off ch=1 n=f5 v=64
129962 On ch=1 n=f#5 v=57
129976 Par ch=1 c=64 v=0
129982 On ch=1 n=d5 v=43
129988 On ch=1 n=b4 v=35
129988 On ch=1 n=c#4 v=32
129991 On ch=1 n=f#4 v=52
130144 Off ch=1 n=b4 v=64
130162 Off ch=1 n=d5 v=64
130172 Off ch=1 n=c#4 v=64
130190 Par ch=1 c=64 v=127
130218 Off ch=1 n=f#4 v=64
130221 Off ch=1 n=f#5 v=64
130390 Par ch=1 c=64 v=0
130402 On ch=1 n=g5 v=53
130420 On ch=1 n=g4 v=31
130432 On ch=1 n=d5 v=33
130432 On ch=1 n=b4 v=32
130438 On ch=1 n=c#4 v=19
130594 Off ch=1 n=b4 v=64
130636 Off ch=1 n=c#4 v=64
130636 Par ch=1 c=64 v=127
130653 Off ch=1 n=d5 v=64
130674 Off ch=1 n=g4 v=64
130708 Off ch=1 n=g5 v=64
130928 Par ch=1 c=64 v=0
130950 On ch=1 n=g#5 v=38
130992 On ch=1 n=d5 v=19
130996 On ch=1 n=b4 v=23
131000 On ch=1 n=g#4 v=18
131018 On ch=1 n=c#4 v=19
131282 Par ch=1 c=64 v=127
131514 Off ch=1 n=b4 v=64
131636 Off ch=1 n=g#4 v=64
131794 Off ch=1 n=c#4 v=64
131810 Off ch=1 n=d5 v=64
131844 Off ch=1 n=g#5 v=64
132136 On ch=1 n=g#5 v=41
132154 On ch=1 n=d5 v=39
132158 On ch=1 n=b4 v=32
132174 Par ch=1 c=64 v=0
132196 On ch=1 n=e4 v=24
132512 Par ch=1 c=64 v=127
132708 Off ch=1 n=d5 v=64
132756 Off ch=1 n=e4 v=64
132832 Off ch=1 n=b4 v=64
132884 Off ch=1 n=g#5 v=64
132994 On ch=1 n=b5 v=30
133076 Off ch=1 n=b5 v=64
133080 Par ch=1 c=64 v=0
133092 On ch=1 n=a5 v=26
133099 On ch=1 n=c#5 v=28
133106 On ch=1 n=a4 v=20
133114 On ch=1 n=a3 v=17
133286 Off ch=1 n=a4 v=64
133310 Par ch=1 c=64 v=127
133330 Off ch=1 n=a3 v=64
133334 Off ch=1 n=a5 v=64
133435 Off ch=1 n=c#5 v=64
133602 On ch=1 n=b4 v=38
133605 On ch=1 n=g#4 v=34
133605 On ch=1 n=f5 v=48
133646 On ch=1 n=c#4 v=27
133694 Par ch=1 c=64 v=0
134048 Par ch=1 c=64 v=127
134108 Off ch=1 n=b4 v=64
134134 Off ch=1 n=g#4 v=64
134344 On ch=1 n=g#5 v=25
134364 Off ch=1 n=f5 v=64
134400 Par ch=1 c=64 v=0
134418 Off ch=1 n=g#5 v=64
134428 Off ch=1 n=c#4 v=64
134432 On ch=1 n=a#4 v=20
134434 On ch=1 n=f#4 v=25
134436 On ch=1 n=f#3 v=22
134446 On ch=1 n=f#5 v=35
134632 Par ch=1 c=64 v=127
134674 Off ch=1 n=f#3 v=64
134676 Off ch=1 n=a#4 v=64
134682 Off ch=1 n=f#4 v=64
134698 Off ch=1 n=f#5 v=64
134888 On ch=1 n=d5 v=44
134892 On ch=1 n=g#4 v=40
134894 On ch=1 n=a#3 v=25
134895 On ch=1 n=f4 v=48
134970 Par ch=1 c=64 v=0
135322 Par ch=1 c=64 v=127
135357 Off ch=1 n=f4 v=64
135436 Off ch=1 n=g#4 v=64
135506 Off ch=1 n=a#3 v=64
135642 On ch=1 n=f5 v=26
135662 Off ch=1 n=d5 v=64
135694 On ch=1 n=f#4 v=32
135697 On ch=1 n=d#4 v=34
135708 On ch=1 n=d#5 v=42
135711 Off ch=1 n=f5 v=64
135720 On ch=1 n=d#3 v=21
135784 Par ch=1 c=64 v=0
136198 Par ch=1 c=64 v=127
136364 Off ch=1 n=d#5 v=64
136570 Off ch=1 n=d#3 v=64
136752 Par ch=1 c=64 v=0
136756 On ch=1 n=g#3 v=28
136758 On ch=1 n=c5 v=28
136970 Off ch=1 n=d#4 v=64
136998 Par ch=1 c=64 v=127
137184 Off ch=1 n=c5 v=64
137228 On ch=1 n=d#5 v=21
137286 Off ch=1 n=f#4 v=64
137316 Off ch=1 n=d#5 v=64
137320 Par ch=1 c=64 v=0
137332 On ch=1 n=c#5 v=29
137350 Off ch=1 n=g#3 v=64
137372 On ch=1 n=c#4 v=15
137388 On ch=1 n=f4 v=31
137396 On ch=1 n=c#3 v=19
137538 Off ch=1 n=f4 v=64
137586 Off ch=1 n=c#3 v=64
137596 Par ch=1 c=64 v=127
137616 Off ch=1 n=c#4 v=64
137662 Off ch=1 n=c#5 v=64
138152 On ch=1 n=a#6 v=70
138168 On ch=1 n=c#6 v=43
138168 On ch=1 n=a#5 v=31
138168 On ch=1 n=f#5 v=24
138174 On ch=1 n=f#6 v=45
138175 On ch=1 n=c#5 v=20
138258 Par ch=1 c=64 v=0
138610 Par ch=1 c=64 v=127
138653 Off ch=1 n=c#5 v=64
138700 Off ch=1 n=c#6 v=64
138730 Off ch=1 n=a#5 v=64
138734 Off ch=1 n=f#6 v=64
138740 Off ch=1 n=a#6 v=64
138748 Off ch=1 n=f#5 v=64
139160 On ch=1 n=g#6 v=60
139182 On ch=1 n=c#6 v=33
139188 On ch=1 n=g#5 v=25
139188 On ch=1 n=f6 v=40
139194 On ch=1 n=c#5 v=8
139206 On ch=1 n=f5 v=24
139278 Off ch=1 n=c#5 v=64
139331 Off ch=1 n=g#5 v=64
139334 Off ch=1 n=f5 v=64
139352 Off ch=1 n=f6 v=64
139374 Off ch=1 n=c#6 v=64
139426 Off ch=1 n=g#6 v=64
139548 On ch=1 n=a#6 v=73
139553 On ch=1 n=f#6 v=56
139557 On ch=1 n=a#5 v=42
139558 On ch=1 n=f#5 v=31
139561 On ch=1 n=c#5 v=31
139564 On ch=1 n=c#6 v=50
139580 Par ch=1 c=64 v=0
139752 Off ch=1 n=a#5 v=64
139758 Off ch=1 n=c#5 v=64
139770 Off ch=1 n=f#5 v=64
139778 Par ch=1 c=64 v=127
139796 Off ch=1 n=c#6 v=64
139826 Off ch=1 n=a#6 v=64
139834 Off ch=1 n=f#6 v=64
139920 On ch=1 n=g#6 v=79
139942 On ch=1 n=c#6 v=43
139944 On ch=1 n=f5 v=34
139946 On ch=1 n=g#5 v=42
139946 On ch=1 n=f6 v=55
139958 On ch=1 n=c#5 v=40
139978 Par ch=1 c=64 v=0
140194 Par ch=1 c=64 v=127
140224 Off ch=1 n=c#5 v=64
140234 Off ch=1 n=f5 v=64
140344 On ch=1 n=c#5 v=41
140408 Off ch=1 n=f6 v=64
140438 Off ch=1 n=c#6 v=64
140480 Off ch=1 n=g#6 v=64
140508 Off ch=1 n=c#5 v=64
140554 On ch=1 n=b4 v=45
140678 Off ch=1 n=g#5 v=64
140690 Off ch=1 n=b4 v=64
140748 On ch=1 n=a#6 v=64
140758 On ch=1 n=c#6 v=33
140760 On ch=1 n=d#6 v=37
140762 On ch=1 n=g6 v=50
140772 On ch=1 n=d#5 v=41
140776 On ch=1 n=g5 v=39
140786 On ch=1 n=a#4 v=28
140884 Par ch=1 c=64 v=0
141178 Par ch=1 c=64 v=127
141226 Off ch=1 n=g6 v=64
141232 Off ch=1 n=d#6 v=64
141246 Off ch=1 n=c#6 v=64
141274 Off ch=1 n=g5 v=64
141288 Off ch=1 n=d#5 v=64
141294 Off ch=1 n=a#6 v=64
141374 Off ch=1 n=a#4 v=64
141558 On ch=1 n=b6 v=89
141562 On ch=1 n=d#6 v=46
141564 On ch=1 n=g#5 v=46
141574 On ch=1 n=g#6 v=45
141576 On ch=1 n=g#4 v=43
141682 Off ch=1 n=g#6 v=64
141698 Off ch=1 n=g#5 v=64
141700 Off ch=1 n=d#6 v=64
141728 Off ch=1 n=b6 v=64
141780 On ch=1 n=a#4 v=44
141782 Off ch=1 n=g#4 v=64
141934 Off ch=1 n=a#4 v=64
141954 On ch=1 n=d#7 v=61
141956 On ch=1 n=g#6 v=58
141956 On ch=1 n=d#6 v=55
141960 On ch=1 n=b6 v=87
141974 On ch=1 n=b4 v=50
141977 On ch=1 n=d#5 v=46
142062 Off ch=1 n=d#5 v=64
142112 Off ch=1 n=d#6 v=64
142142 Off ch=1 n=g#6 v=64
142144 Off ch=1 n=b4 v=64
142150 On ch=1 n=c#5 v=73
142190 Off ch=1 n=d#7 v=64
142238 Off ch=1 n=b6 v=64
142282 Off ch=1 n=c#5 v=64
142344 On ch=1 n=a#6 v=80
142350 On ch=1 n=f#6 v=72
142350 On ch=1 n=d#6 v=68
142360 On ch=1 n=d#5 v=73
142360 Par ch=1 c=64 v=0
142606 Off ch=1 n=d#5 v=64
142606 Par ch=1 c=64 v=127
142638 Off ch=1 n=a#6 v=64
142641 Off ch=1 n=f#6 v=64
142662 Off ch=1 n=d#6 v=64
143188 On ch=1 n=d#6 v=89
143191 On ch=1 n=b5 v=84
143191 On ch=1 n=d#5 v=80
143195 On ch=1 n=f#5 v=63
143198 On ch=1 n=b4 v=71
143200 On ch=1 n=f#4 v=69
143202 On ch=1 n=b3 v=61
143496 Par ch=1 c=64 v=0
143750 Off ch=1 n=f#4 v=64
143758 Par ch=1 c=64 v=127
143780 Off ch=1 n=b4 v=64
143830 Off ch=1 n=d#6 v=64
143836 Off ch=1 n=d#5 v=64
143844 Off ch=1 n=f#5 v=64
143850 Off ch=1 n=b5 v=64
143864 Off ch=1 n=b3 v=64
144116 On ch=1 n=c#5 v=85
144118 On ch=1 n=c#6 v=83
144120 On ch=1 n=a#5 v=69
144126 On ch=1 n=f#4 v=86
144126 On ch=1 n=f#5 v=63
144132 On ch=1 n=f#3 v=76
144188 Par ch=1 c=64 v=0
144298 Off ch=1 n=c#5 v=64
144322 Off ch=1 n=f#4 v=64
144322 Off ch=1 n=f#3 v=64
144340 Off ch=1 n=f#5 v=64
144340 Par ch=1 c=64 v=127
144348 Off ch=1 n=c#6 v=64
144430 Off ch=1 n=a#5 v=64
144496 On ch=1 n=d#6 v=92
144498 On ch=1 n=b5 v=87
144502 On ch=1 n=f#5 v=62
144504 On ch=1 n=d#5 v=82
144508 On ch=1 n=b4 v=89
144512 Par ch=1 c=64 v=0
144518 On ch=1 n=b3 v=79
144680 Par ch=1 c=64 v=127
144698 Off ch=1 n=b4 v=64
144736 Off ch=1 n=d#6 v=64
144750 Off ch=1 n=d#5 v=64
144756 Off ch=1 n=b3 v=64
144758 Off ch=1 n=b5 v=64
144776 Off ch=1 n=f#5 v=64
144866 On ch=1 n=c#5 v=95
144868 On ch=1 n=c#6 v=83
144870 On ch=1 n=f#5 v=54
144870 On ch=1 n=a#5 v=72
144874 On ch=1 n=f#4 v=88
144878 On ch=1 n=f#3 v=82
144926 Par ch=1 c=64 v=0
145080 Off ch=1 n=f#4 v=64
145094 Par ch=1 c=64 v=127
145120 Off ch=1 n=f#3 v=64
145200 Off ch=1 n=c#5 v=64
145240 Off ch=1 n=f#5 v=64
145260 On ch=1 n=f#3 v=88
145262 On ch=1 n=f#4 v=91
145280 Off ch=1 n=a#5 v=64
145288 Off ch=1 n=c#6 v=64
145378 Off ch=1 n=f#3 v=64
145378 Off ch=1 n=f#4 v=64
145436 On ch=1 n=f4 v=106
145444 On ch=1 n=f3 v=91
145556 Off ch=1 n=f4 v=64
145586 Off ch=1 n=f3 v=64
145640 On ch=1 n=f#6 v=91
145642 On ch=1 n=f#5 v=73
145644 On ch=1 n=a#5 v=69
145644 On ch=1 n=d#6 v=79
145664 On ch=1 n=d#3 v=86
145664 On ch=1 n=d#4 v=86
145756 Par ch=1 c=64 v=0
146170 Par ch=1 c=64 v=127
146264 Off ch=1 n=a#5 v=64
146284 Off ch=1 n=d#6 v=64
146292 Off ch=1 n=d#3 v=64
146302 Off ch=1 n=d#4 v=64
146310 Off ch=1 n=f#5 v=64
146526 Off ch=1 n=f#6 v=64
146552 On ch=1 n=g#5 v=81
146552 On ch=1 n=d#6 v=84
146558 On ch=1 n=g#4 v=88
146562 On ch=1 n=c6 v=76
146568 On ch=1 n=g#3 v=90
146586 Par ch=1 c=64 v=0
146762 Off ch=1 n=g#4 v=64
146770 Par ch=1 c=64 v=127
146784 Off ch=1 n=g#3 v=64
146834 Off ch=1 n=c6 v=64
146838 Off ch=1 n=g#5 v=64
146862 On ch=1 n=f#4 v=95
146872 On ch=1 n=f#3 v=83
146880 Off ch=1 n=d#6 v=64
147174 Off ch=1 n=f#3 v=64
147188 Off ch=1 n=f#4 v=64
147244 On ch=1 n=c#5 v=95
147254 On ch=1 n=f3 v=103
147292 Par ch=1 c=64 v=0
147486 On ch=1 n=c#4 v=87
147568 Par ch=1 c=64 v=127
147576 Off ch=1 n=f3 v=64
147630 Off ch=1 n=c#5 v=64
147646 Off ch=1 n=c#4 v=64
147646 On ch=1 n=f4 v=104
147752 Off ch=1 n=f4 v=64
147766 On ch=1 n=g#4 v=78
147872 On ch=1 n=b4 v=84
147892 Off ch=1 n=g#4 v=64
147956 Off ch=1 n=b4 v=64
147976 On ch=1 n=c#5 v=88
148056 Off ch=1 n=c#5 v=64
148080 On ch=1 n=g#6 v=95
148088 On ch=1 n=g#5 v=79
148094 On ch=1 n=b5 v=85
148094 On ch=1 n=c#6 v=68
148914 Off ch=1 n=g#5 v=64
149134 Off ch=1 n=b5 v=64
149330 Off ch=1 n=c#6 v=64
149976 Off ch=1 n=g#6 v=64
151250 On ch=1 n=b5 v=56
151278 On ch=1 n=g#5 v=23
151288 On ch=1 n=c#4 v=18
151294 On ch=1 n=b4 v=27
151296 On ch=1 n=f3 v=20
151302 Par ch=1 c=64 v=0
151640 Par ch=1 c=64 v=127
151700 Off ch=1 n=c#4 v=64
151714 Off ch=1 n=b4 v=64
151748 Off ch=1 n=b5 v=64
151832 Off ch=1 n=f3 v=64
152140 On ch=1 n=a#5 v=33
152148 Par ch=1 c=64 v=0
152154 Off ch=1 n=g#5 v=64
152162 On ch=1 n=f#3 v=16
152166 On ch=1 n=a#4 v=10
152168 On ch=1 n=c#4 v=18
152168 On ch=1 n=f#5 v=16
152372 Off ch=1 n=c#4 v=64
152378 Par ch=1 c=64 v=127
152402 Off ch=1 n=f#3 v=64
152416 Off ch=1 n=a#5 v=64
152422 Off ch=1 n=f#5 v=64
152428 Off ch=1 n=a#4 v=64
152662 On ch=1 n=f5 v=44
152670 On ch=1 n=g#4 v=24
152690 On ch=1 n=c#4 v=19
152702 On ch=1 n=b3 v=10
152916 Par ch=1 c=64 v=0
153078 Off ch=1 n=c#4 v=64
153100 Par ch=1 c=64 v=127
153218 Off ch=1 n=g#4 v=64
153292 Off ch=1 n=b3 v=64
153450 Off ch=1 n=f5 v=64
153458 On ch=1 n=f#4 v=29
153464 On ch=1 n=f#5 v=29
153476 On ch=1 n=c#4 v=20
153480 On ch=1 n=a#3 v=20
153484 Par ch=1 c=64 v=0
153668 Par ch=1 c=64 v=127
153670 Off ch=1 n=c#4 v=64
153684 Off ch=1 n=a#3 v=64
153706 Off ch=1 n=f#4 v=64
153736 Off ch=1 n=f#5 v=64
153972 On ch=1 n=d#5 v=35
153978 On ch=1 n=b4 v=2
153982 On ch=1 n=f#4 v=29
153992 Par ch=1 c=64 v=0
153992 On ch=1 n=b3 v=34
154390 Par ch=1 c=64 v=127
154398 Off ch=1 n=b4 v=64
154434 Off ch=1 n=f#4 v=64
154508 Off ch=1 n=b3 v=64
154724 Off ch=1 n=d#5 v=64
154760 On ch=1 n=c#5 v=37
154760 Par ch=1 c=64 v=0
154774 On ch=1 n=f#4 v=26
154776 On ch=1 n=c#4 v=26
154782 On ch=1 n=a#4 v=21
154910 Off ch=1 n=a#4 v=64
154929 Off ch=1 n=c#4 v=64
154942 Off ch=1 n=c#5 v=64
154945 Par ch=1 c=64 v=127
154962 Off ch=1 n=f#4 v=64
155082 Par ch=1 c=64 v=0
155174 On ch=1 n=g#4 v=32
155180 On ch=1 n=c#4 v=23
155180 On ch=1 n=c#5 v=36
155188 On ch=1 n=c#3 v=32
155196 On ch=1 n=f4 v=49
155304 Off ch=1 n=c#4 v=64
155326 Off ch=1 n=c#3 v=64
155344 Par ch=1 c=64 v=127
155348 Off ch=1 n=f4 v=64
155368 Off ch=1 n=g#4 v=64
155374 Off ch=1 n=c#5 v=64
155482 Par ch=1 c=64 v=0
155660 On ch=1 n=c#5 v=42
155670 On ch=1 n=f#4 v=36
155672 On ch=1 n=f#3 v=13
155675 On ch=1 n=c#4 v=27
155682 On ch=1 n=a#4 v=18
155776 Off ch=1 n=c#4 v=64
155896 Par ch=1 c=64 v=127
155932 Off ch=1 n=f#4 v=64
155938 Off ch=1 n=f#3 v=64
155990 Off ch=1 n=a#4 v=64
156022 Off ch=1 n=c#5 v=64
156112 Par ch=1 c=64 v=0
156556 Par ch=1 c=64 v=127
156638 On ch=1 n=b5 v=85
156641 On ch=1 n=g#5 v=41
156648 On ch=1 n=c#4 v=36
156658 On ch=1 n=b4 v=39
156662 On ch=1 n=f3 v=46
156662 On ch=1 n=c#5 v=42
157002 Off ch=1 n=c#4 v=64
157110 Off ch=1 n=c#5 v=64
157118 Off ch=1 n=b4 v=64
157130 Off ch=1 n=b5 v=64
157374 Off ch=1 n=f3 v=64
157418 Par ch=1 c=64 v=0
157432 On ch=1 n=a#5 v=64
157438 On ch=1 n=f#5 v=36
157440 Off ch=1 n=g#5 v=64
157442 On ch=1 n=a#4 v=41
157446 On ch=1 n=f#3 v=50
157448 On ch=1 n=c#5 v=43
157454 On ch=1 n=c#4 v=31
157544 Off ch=1 n=c#4 v=64
157588 Off ch=1 n=a#5 v=64
157598 Off ch=1 n=f#5 v=64
157602 Par ch=1 c=64 v=127
157616 Off ch=1 n=f#3 v=64
157618 Off ch=1 n=c#5 v=64
157666 Off ch=1 n=a#4 v=64
157974 On ch=1 n=c#5 v=39
157974 On ch=1 n=b3 v=35
157976 On ch=1 n=f5 v=71
157976 On ch=1 n=g#4 v=38
157982 On ch=1 n=c#4 v=38
157986 On ch=1 n=f4 v=59
158048 Par ch=1 c=64 v=0
158324 Par ch=1 c=64 v=127
158396 Off ch=1 n=f4 v=64
158416 Off ch=1 n=c#4 v=64
158462 Off ch=1 n=c#5 v=64
158528 Off ch=1 n=g#4 v=64
158532 Off ch=1 n=f5 v=64
158596 Off ch=1 n=b3 v=64
158862 On ch=1 n=f#5 v=38
158862 Par ch=1 c=64 v=0
158870 On ch=1 n=c#4 v=23
158872 On ch=1 n=f#4 v=34
158884 On ch=1 n=c#5 v=33
158886 On ch=1 n=a#3 v=25
159010 Off ch=1 n=c#4 v=64
159078 Par ch=1 c=64 v=127
159084 Off ch=1 n=f#4 v=64
159086 Off ch=1 n=a#3 v=64
159102 Off ch=1 n=f#5 v=64
159106 Off ch=1 n=c#5 v=64
159308 Par ch=1 c=64 v=0
159358 On ch=1 n=d#5 v=47
159358 On ch=1 n=f#4 v=37
159360 On ch=1 n=d#4 v=28
159361 On ch=1 n=b4 v=38
159370 On ch=1 n=b3 v=27
159768 Par ch=1 c=64 v=127
159798 Off ch=1 n=d#4 v=64
159988 Off ch=1 n=b4 v=64
159996 Off ch=1 n=f#4 v=64
160202 Off ch=1 n=b3 v=64
160384 Par ch=1 c=64 v=0
160384 On ch=1 n=c#5 v=37
160390 Off ch=1 n=d#5 v=64
160394 On ch=1 n=f#4 v=33
160400 On ch=1 n=c#4 v=30
160408 On ch=1 n=a#4 v=17
160518 Off ch=1 n=c#4 v=64
160550 Off ch=1 n=a#4 v=64
160564 Off ch=1 n=c#5 v=64
160568 Par ch=1 c=64 v=127
160578 Off ch=1 n=f#4 v=64
160752 Par ch=1 c=64 v=0
160796 On ch=1 n=c#5 v=47
160812 On ch=1 n=c#4 v=22
160812 On ch=1 n=c#3 v=33
160815 On ch=1 n=f4 v=49
160820 On ch=1 n=g#4 v=28
160890 Off ch=1 n=f4 v=64
160896 Off ch=1 n=c#4 v=64
160906 Off ch=1 n=c#3 v=64
160910 Off ch=1 n=g#4 v=64
160936 Par ch=1 c=64 v=127
160958 Off ch=1 n=c#5 v=64
161044 Par ch=1 c=64 v=0
161164 On ch=1 n=c#5 v=48
161178 On ch=1 n=f#3 v=38
161180 On ch=1 n=f#4 v=41
161188 On ch=1 n=a#4 v=25
161190 On ch=1 n=c#4 v=29
161244 Off ch=1 n=f#3 v=64
161254 Off ch=1 n=f#4 v=64
161258 Off ch=1 n=a#4 v=64
161278 Off ch=1 n=c#4 v=64
161304 Par ch=1 c=64 v=127
161314 Off ch=1 n=c#5 v=64
161428 Par ch=1 c=64 v=0
161494 On ch=1 n=a#4 v=43
161494 On ch=1 n=a#3 v=56
161542 Off ch=1 n=a#3 v=64
161558 Off ch=1 n=a#4 v=64
161786 On ch=1 n=a4 v=52
161788 On ch=1 n=c5 v=56
161788 On ch=1 n=c4 v=44
161800 On ch=1 n=f2 v=79
161800 On ch=1 n=f3 v=74
161840 Off ch=1 n=f2 v=64
161844 Off ch=1 n=f3 v=64
161850 Off ch=1 n=c4 v=64
161868 Off ch=1 n=a4 v=64
161900 Off ch=1 n=c5 v=64
162108 On ch=1 n=c#4 v=66
162110 On ch=1 n=c#5 v=68
162114 On ch=1 n=a#4 v=46
162126 On ch=1 n=a#3 v=89
162128 On ch=1 n=a#2 v=84
162180 Off ch=1 n=c#4 v=64
162184 Off ch=1 n=a#4 v=64
162384 Off ch=1 n=c#5 v=64
162422 On ch=1 n=f4 v=89
162425 On ch=1 n=a4 v=57
162425 On ch=1 n=c5 v=69
162464 Off ch=1 n=f4 v=64
162492 Off ch=1 n=a4 v=64
162495 Off ch=1 n=c5 v=64
162704 On ch=1 n=c#5 v=84
162707 On ch=1 n=a#4 v=62
162714 On ch=1 n=f4 v=95
162752 Off ch=1 n=f4 v=64
162760 Off ch=1 n=a#4 v=64
162804 Off ch=1 n=c#5 v=64
162820 Off ch=1 n=a#3 v=64
162836 Off ch=1 n=a#2 v=64
162842 Par ch=1 c=64 v=127
162990 On ch=1 n=g#3 v=92
162994 On ch=1 n=g#4 v=71
162998 On ch=1 n=d#5 v=79
163000 On ch=1 n=g#2 v=83
163012 On ch=1 n=c5 v=55
163042 Off ch=1 n=g#2 v=64
163052 Off ch=1 n=g#3 v=64
163060 Off ch=1 n=g#4 v=64
163082 Off ch=1 n=c5 v=64
163106 On ch=1 n=f#3 v=85
163117 On ch=1 n=f#2 v=89
163196 Par ch=1 c=64 v=0
163202 Off ch=1 n=d#5 v=64
163228 Off ch=1 n=f#3 v=64
163228 On ch=1 n=g#4 v=81
163228 On ch=1 n=f5 v=82
163231 On ch=1 n=f2 v=103
163234 On ch=1 n=f3 v=103
163234 On ch=1 n=c#5 v=83
163284 Off ch=1 n=f#2 v=64
163308 Off ch=1 n=f2 v=64
163310 Off ch=1 n=f3 v=64
163324 Off ch=1 n=g#4 v=64
163340 Off ch=1 n=f5 v=64
163356 Off ch=1 n=c#5 v=64
163534 On ch=1 n=d#3 v=103
163534 On ch=1 n=f#5 v=88
163537 On ch=1 n=g#4 v=93
163537 On ch=1 n=d#2 v=100
163544 On ch=1 n=d#5 v=81
163604 Off ch=1 n=d#2 v=64
163610 Off ch=1 n=d#5 v=64
163624 Off ch=1 n=d#3 v=64
163634 Off ch=1 n=g#4 v=64
163674 Off ch=1 n=f#5 v=64
163926 On ch=1 n=c#3 v=107
163930 On ch=1 n=g#5 v=97
163932 On ch=1 n=c#5 v=95
163932 On ch=1 n=b4 v=104
163932 On ch=1 n=c#2 v=107
163935 On ch=1 n=f5 v=96
163982 On ch=1 n=d#5 v=25
164046 Off ch=1 n=d#5 v=64
164178 Par ch=1 c=64 v=127
164294 Off ch=1 n=b4 v=64
164312 Off ch=1 n=c#5 v=64
164398 Off ch=1 n=c#3 v=64
164406 Off ch=1 n=c#2 v=64
164644 On ch=1 n=c#5 v=97
164652 On ch=1 n=b4 v=97
165016 Off ch=1 n=f5 v=64
165036 Off ch=1 n=b4 v=64
165039 On ch=1 n=f#3 v=96
165042 On ch=1 n=f#2 v=100
165066 Off ch=1 n=c#5 v=64
165352 On ch=1 n=a#4 v=83
165352 On ch=1 n=f#5 v=86
165355 On ch=1 n=c#5 v=86
165418 Off ch=1 n=g#5 v=64
165608 Off ch=1 n=a#4 v=64
165638 Par ch=1 c=64 v=0
165678 On ch=1 n=g#4 v=76
165684 On ch=1 n=f5 v=88
165752 Off ch=1 n=f#5 v=64
165818 Off ch=1 n=c#5 v=64
165822 Par ch=1 c=64 v=127
165868 Off ch=1 n=g#4 v=64
165900 Off ch=1 n=f#3 v=64
165962 Par ch=1 c=64 v=0
165988 On ch=1 n=d#5 v=92
165990 On ch=1 n=f#4 v=88
165992 Off ch=1 n=f#2 v=64
165994 On ch=1 n=g#2 v=79
165994 On ch=1 n=c5 v=75
165994 On ch=1 n=g#3 v=94
166014 Off ch=1 n=f5 v=64
166064 Off ch=1 n=g#3 v=64
166067 Off ch=1 n=g#2 v=64
166104 Off ch=1 n=f#4 v=64
166107 Off ch=1 n=c5 v=64
166114 Par ch=1 c=64 v=127
166204 Off ch=1 n=d#5 v=64
166324 On ch=1 n=f5 v=95
166326 On ch=1 n=f4 v=107
166326 On ch=1 n=c5 v=91
166334 On ch=1 n=a3 v=91
166334 On ch=1 n=a2 v=97
166438 Par ch=1 c=64 v=0
166626 On ch=1 n=d#5 v=95
166720 Off ch=1 n=f5 v=64
166728 Par ch=1 c=64 v=127
166738 Off ch=1 n=c5 v=64
166742 Off ch=1 n=f4 v=64
166772 Off ch=1 n=a3 v=64
166876 Off ch=1 n=a2 v=64
166914 Par ch=1 c=64 v=0
166930 On ch=1 n=c#5 v=92
166934 On ch=1 n=a#3 v=81
166934 On ch=1 n=a#4 v=66
166936 On ch=1 n=f4 v=101
166936 On ch=1 n=a#2 v=81
166966 Off ch=1 n=d#5 v=64
166994 Off ch=1 n=f4 v=64
167018 Off ch=1 n=a#4 v=64
167056 Off ch=1 n=c#5 v=64
167058 Off ch=1 n=a#3 v=64
167082 Par ch=1 c=64 v=127
167110 Off ch=1 n=a#2 v=64
167248 On ch=1 n=d#5 v=93
167252 Par ch=1 c=64 v=0
167252 On ch=1 n=g3 v=88
167254 On ch=1 n=a#4 v=73
167254 On ch=1 n=g2 v=94
167258 On ch=1 n=d#4 v=86
167546 Off ch=1 n=d#4 v=64
167566 On ch=1 n=c#5 v=88
167592 Off ch=1 n=a#4 v=64
167606 Par ch=1 c=64 v=127
167634 Off ch=1 n=d#5 v=64
167640 Off ch=1 n=g3 v=64
167742 Off ch=1 n=g2 v=64
167792 Off ch=1 n=c#5 v=64
167836 Par ch=1 c=64 v=0
167854 On ch=1 n=d#4 v=80
167854 On ch=1 n=c5 v=89
167857 On ch=1 n=g#2 v=88
167857 On ch=1 n=g#3 v=97
167862 On ch=1 n=g#4 v=65
167904 Off ch=1 n=d#4 v=64
167920 Off ch=1 n=g#4 v=64
167944 Off ch=1 n=g#3 v=64
167960 Off ch=1 n=g#2 v=64
167996 Off ch=1 n=c5 v=64
168144 On ch=1 n=c#4 v=88
168144 On ch=1 n=d#5 v=92
168147 On ch=1 n=g4 v=89
168152 On ch=1 n=d#3 v=84
168152 On ch=1 n=a#4 v=67
168186 Off ch=1 n=g4 v=64
168194 Off ch=1 n=d#3 v=64
168200 Off ch=1 n=c#4 v=64
168206 Off ch=1 n=a#4 v=64
168252 Off ch=1 n=d#5 v=64
168448 On ch=1 n=d#6 v=88
168450 On ch=1 n=c#5 v=86
168458 On ch=1 n=g5 v=71
168462 On ch=1 n=a#5 v=57
168464 On ch=1 n=d#4 v=68
168496 Off ch=1 n=c#5 v=64
168512 Off ch=1 n=g5 v=64
168512 Off ch=1 n=d#4 v=64
168520 Off ch=1 n=a#5 v=64
168532 Off ch=1 n=d#6 v=64
168740 On ch=1 n=g#5 v=86
168744 On ch=1 n=d#5 v=80
168748 On ch=1 n=c5 v=79
168754 On ch=1 n=g#4 v=74
168788 Par ch=1 c=64 v=127
168794 Off ch=1 n=c5 v=64
168798 Off ch=1 n=g#4 v=64
168862 Off ch=1 n=d#5 v=64
168942 Off ch=1 n=g#5 v=64
168942 Par ch=1 c=64 v=0
169040 On ch=1 n=g#3 v=96
169098 Off ch=1 n=g#3 v=64
169110 Par ch=1 c=64 v=127
169188 Par ch=1 c=64 v=0
169324 On ch=1 n=c5 v=93
169324 On ch=1 n=c6 v=89
169324 On ch=1 n=a5 v=74
169332 On ch=1 n=f5 v=74
169332 On ch=1 n=f4 v=111
169332 On ch=1 n=f3 v=103
169362 Off ch=1 n=f4 v=64
169362 Off ch=1 n=f3 v=64
169418 Par ch=1 c=64 v=127
169442 Off ch=1 n=c5 v=64
169462 Off ch=1 n=c6 v=64
169478 Off ch=1 n=a5 v=64
169480 Par ch=1 c=64 v=0
169490 Off ch=1 n=f5 v=64
169624 On ch=1 n=c#6 v=89
169624 On ch=1 n=a#5 v=78
169627 On ch=1 n=c#5 v=92
169634 On ch=1 n=f5 v=76
169640 On ch=1 n=a#4 v=90
169644 On ch=1 n=a#3 v=90
169680 Par ch=1 c=64 v=127
169788 Off ch=1 n=c#5 v=64
169800 Off ch=1 n=f5 v=64
169840 Off ch=1 n=a#5 v=64
169842 Off ch=1 n=c#6 v=64
169878 Par ch=1 c=64 v=0
169928 On ch=1 n=c6 v=92
169928 On ch=1 n=c5 v=95
169930 On ch=1 n=a5 v=73
169940 On ch=1 n=f5 v=54
170058 Off ch=1 n=c5 v=64
170078 Par ch=1 c=64 v=127
170086 Off ch=1 n=a#4 v=64
170092 Off ch=1 n=c6 v=64
170096 Off ch=1 n=a#3 v=64
170104 Off ch=1 n=a5 v=64
170116 Off ch=1 n=f5 v=64
170202 Par ch=1 c=64 v=0
170212 On ch=1 n=c#6 v=89
170212 On ch=1 n=c#5 v=98
170214 On ch=1 n=f5 v=58
170216 On ch=1 n=a#4 v=88
170218 On ch=1 n=a#5 v=76
170224 On ch=1 n=a#3 v=92
170260 Off ch=1 n=a#3 v=64
170264 Off ch=1 n=a#4 v=64
170304 Off ch=1 n=c#5 v=64
170308 Par ch=1 c=64 v=127
170312 Off ch=1 n=f5 v=64
170352 Off ch=1 n=a#5 v=64
170366 Off ch=1 n=c#6 v=64
170448 Par ch=1 c=64 v=0
170486 On ch=1 n=g#4 v=93
170488 On ch=1 n=g#3 v=97
170492 On ch=1 n=d#5 v=91
170492 On ch=1 n=d#6 v=88
170492 On ch=1 n=c6 v=72
170508 On ch=1 n=g#5 v=62
170534 Off ch=1 n=g#3 v=64
170544 Off ch=1 n=g#4 v=64
170550 Off ch=1 n=c6 v=64
170570 Off ch=1 n=g#5 v=64
170586 Par ch=1 c=64 v=127
170592 Off ch=1 n=d#6 v=64
170602 Off ch=1 n=d#5 v=64
170618 On ch=1 n=f#4 v=95
170624 On ch=1 n=f#3 v=90
170676 Off ch=1 n=f#3 v=64
170716 Off ch=1 n=f#4 v=64
170724 Par ch=1 c=64 v=0
170750 On ch=1 n=f6 v=100
170750 On ch=1 n=f5 v=91
170750 On ch=1 n=g#5 v=79
170756 On ch=1 n=c6 v=72
170756 On ch=1 n=f4 v=118
170758 On ch=1 n=f3 v=108
170830 Off ch=1 n=f6 v=64
170832 Off ch=1 n=f4 v=64
170850 Off ch=1 n=f3 v=64
170852 Off ch=1 n=f5 v=64
170876 Off ch=1 n=c6 v=64
170879 Par ch=1 c=64 v=127
170890 Off ch=1 n=g#5 v=64
170954 Par ch=1 c=64 v=0
171040 On ch=1 n=f#5 v=88
171042 On ch=1 n=f#6 v=98
171042 On ch=1 n=g#5 v=76
171046 On ch=1 n=d#4 v=100
171050 On ch=1 n=c6 v=85
171056 On ch=1 n=d#3 v=95
171092 Off ch=1 n=d#3 v=64
171136 Off ch=1 n=d#4 v=64
171142 Par ch=1 c=64 v=127
171156 Off ch=1 n=g#5 v=64
171182 Off ch=1 n=c6 v=64
171184 Off ch=1 n=f#5 v=64
171198 Off ch=1 n=f#6 v=64
171416 Par ch=1 c=64 v=0
171422 On ch=1 n=g#6 v=98
171427 On ch=1 n=c#6 v=75
171430 On ch=1 n=b5 v=92
171430 On ch=1 n=c#4 v=101
171430 On ch=1 n=f6 v=81
171433 On ch=1 n=g#5 v=75
171436 On ch=1 n=c#3 v=103
171570 Off ch=1 n=g#5 v=64
171872 Off ch=1 n=b5 v=64
171882 Off ch=1 n=c#6 v=64
171892 Par ch=1 c=64 v=127
172044 Off ch=1 n=c#3 v=64
172052 Off ch=1 n=c#4 v=64
172084 On ch=1 n=g#5 v=86
172084 On ch=1 n=b5 v=98
172087 On ch=1 n=c#6 v=84
172458 On ch=1 n=f#4 v=106
172464 On ch=1 n=f#3 v=99
172552 Off ch=1 n=g#5 v=64
172554 Off ch=1 n=f6 v=64
172554 Off ch=1 n=b5 v=64
172560 Off ch=1 n=c#6 v=64
172574 Off ch=1 n=g#6 v=64
172758 On ch=1 n=f#6 v=98
172761 On ch=1 n=f#5 v=91
172761 On ch=1 n=c#6 v=84
172761 On ch=1 n=a#5 v=84
172768 Par ch=1 c=64 v=0
173010 Off ch=1 n=f#5 v=64
173014 Par ch=1 c=64 v=127
173032 Off ch=1 n=f#6 v=64
173082 On ch=1 n=f6 v=100
173090 On ch=1 n=f5 v=78
173148 Off ch=1 n=c#6 v=64
173162 Off ch=1 n=f#4 v=64
173162 Off ch=1 n=f#3 v=64
173170 Off ch=1 n=a#5 v=64
173194 Off ch=1 n=f6 v=64
173204 Off ch=1 n=f5 v=64
173394 On ch=1 n=d#6 v=91
173397 On ch=1 n=d#5 v=95
173402 On ch=1 n=c6 v=79
173404 On ch=1 n=g#4 v=90
173410 On ch=1 n=g#3 v=89
173548 Off ch=1 n=g#4 v=64
173564 Off ch=1 n=d#5 v=64
173572 Off ch=1 n=c6 v=64
173584 Off ch=1 n=g#3 v=64
173612 Par ch=1 c=64 v=0
173648 Off ch=1 n=d#6 v=64
173712 On ch=1 n=a3 v=86
173728 On ch=1 n=f6 v=105
173734 On ch=1 n=c6 v=83
173736 On ch=1 n=f5 v=95
173792 Off ch=1 n=a3 v=64
173800 On ch=1 n=f4 v=98
173812 Par ch=1 c=64 v=127
173816 On ch=1 n=c5 v=87
173886 Off ch=1 n=f6 v=64
173902 Off ch=1 n=f5 v=64
174024 On ch=1 n=d#6 v=92
174026 On ch=1 n=d#5 v=99
174088 Off ch=1 n=c5 v=64
174104 Off ch=1 n=c6 v=64
174120 Off ch=1 n=d#5 v=64
174142 Off ch=1 n=f4 v=64
174154 Off ch=1 n=d#6 v=64
174334 On ch=1 n=c#6 v=88
174340 On ch=1 n=c#5 v=92
174342 On ch=1 n=a#5 v=66
174346 On ch=1 n=a#4 v=72
174350 Par ch=1 c=64 v=0
174352 On ch=1 n=a#3 v=75
174358 On ch=1 n=f4 v=92
174458 Off ch=1 n=a#4 v=64
174474 Off ch=1 n=f4 v=64
174484 Off ch=1 n=c#5 v=64
174513 Off ch=1 n=a#5 v=64
174513 Off ch=1 n=a#3 v=64
174522 Off ch=1 n=c#6 v=64
174626 On ch=1 n=f#3 v=88
174668 On ch=1 n=d#6 v=98
174670 On ch=1 n=d#5 v=104
174676 On ch=1 n=a#5 v=81
174704 Par ch=1 c=64 v=127
174712 Off ch=1 n=f#3 v=64
174730 On ch=1 n=a#4 v=90
174764 On ch=1 n=d#4 v=58
174790 Off ch=1 n=d#5 v=64
174804 Off ch=1 n=d#6 v=64
174832 Off ch=1 n=a#5 v=64
174950 On ch=1 n=c#6 v=94
174952 On ch=1 n=c#5 v=94
175064 Off ch=1 n=d#4 v=64
175082 Off ch=1 n=a#4 v=64
175096 Off ch=1 n=c#5 v=64
175142 Off ch=1 n=c#6 v=64
175252 On ch=1 n=c6 v=100
175255 On ch=1 n=c5 v=108
175255 Par ch=1 c=64 v=0
175260 On ch=1 n=g#4 v=95
175262 On ch=1 n=g#3 v=93
175274 On ch=1 n=g#5 v=64
175276 On ch=1 n=f#5 v=47
175290 Off ch=1 n=g#4 v=64
175294 Off ch=1 n=c6 v=64
175294 Off ch=1 n=g#3 v=64
175302 Off ch=1 n=c5 v=64
175320 Off ch=1 n=g#5 v=64
175324 Off ch=1 n=f#5 v=64
175364 Par ch=1 c=64 v=127
175394 On ch=1 n=g#5 v=60
175398 On ch=1 n=a#4 v=84
175398 On ch=1 n=f#5 v=52
175402 On ch=1 n=c#6 v=79
175404 On ch=1 n=c#5 v=84
175406 On ch=1 n=a#3 v=61
175442 Off ch=1 n=c#5 v=64
175444 Off ch=1 n=c#6 v=64
175444 Par ch=1 c=64 v=0
175454 Off ch=1 n=f#5 v=64
175456 Off ch=1 n=a#3 v=64
175456 On ch=1 n=d#4 v=13
175484 Off ch=1 n=a#4 v=64
175510 Off ch=1 n=d#4 v=64
175540 On ch=1 n=c5 v=103
175540 On ch=1 n=d#6 v=88
175543 On ch=1 n=d#5 v=92
175546 On ch=1 n=c4 v=83
175548 On ch=1 n=f#5 v=55
175562 On ch=1 n=d#4 v=64
175616 Off ch=1 n=d#4 v=64
175636 Off ch=1 n=c5 v=64
175636 Off ch=1 n=c4 v=64
175642 Off ch=1 n=g#5 v=64
175648 Off ch=1 n=d#5 v=64
175656 Off ch=1 n=d#6 v=64
175660 Off ch=1 n=f#5 v=64
175860 On ch=1 n=f6 v=101
175862 On ch=1 n=g#5 v=86
175862 On ch=1 n=g#4 v=93
175862 On ch=1 n=f5 v=96
175864 On ch=1 n=c6 v=85
175868 On ch=1 n=g#3 v=96
175884 On ch=1 n=d#4 v=74
175924 Off ch=1 n=d#4 v=64
175928 Off ch=1 n=g#3 v=64
175932 Off ch=1 n=f6 v=64
175938 Off ch=1 n=g#4 v=64
175948 Par ch=1 c=64 v=127
175974 Off ch=1 n=c6 v=64
175982 Off ch=1 n=f5 v=64
175994 Par ch=1 c=64 v=0
176006 Off ch=1 n=g#5 v=64
176252 On ch=1 n=c#5 v=94
176252 On ch=1 n=c#6 v=91
176258 On ch=1 n=g#5 v=81
176262 On ch=1 n=f5 v=81
176264 On ch=1 n=c#4 v=86
176266 On ch=1 n=c#3 v=88
176270 On ch=1 n=g#3 v=81
176314 Off ch=1 n=g#3 v=64
176332 Par ch=1 c=64 v=127
176346 Off ch=1 n=c#4 v=64
176358 Off ch=1 n=c#3 v=64
176430 Off ch=1 n=c#5 v=64
176470 Off ch=1 n=f5 v=64
176518 Off ch=1 n=c#6 v=64
176518 Off ch=1 n=g#5 v=64
176594 Par ch=1 c=64 v=0
177088 On ch=1 n=f5 v=45
177536 On ch=1 n=f3 v=33
177546 On ch=1 n=f6 v=58
177562 On ch=1 n=c4 v=22
177646 Off ch=1 n=f3 v=64
177666 Off ch=1 n=c4 v=64
177776 Par ch=1 c=64 v=127
177836 On ch=1 n=f3 v=34
177870 On ch=1 n=c4 v=27
177926 Off ch=1 n=f3 v=64
177938 Off ch=1 n=c4 v=64
177978 On ch=1 n=f4 v=73
178022 Par ch=1 c=64 v=0
178034 Off ch=1 n=f4 v=64
178094 On ch=1 n=a4 v=56
178106 On ch=1 n=c6 v=55
178148 Off ch=1 n=a4 v=64
178176 Off ch=1 n=f6 v=64
178222 Par ch=1 c=64 v=127
178300 Par ch=1 c=64 v=0
178300 On ch=1 n=a#3 v=55
178374 Off ch=1 n=a#3 v=64
178386 On ch=1 n=c#6 v=61
178408 On ch=1 n=a#4 v=48
178444 Off ch=1 n=c6 v=64
178518 Off ch=1 n=c#6 v=64
178536 Off ch=1 n=a#4 v=64
178676 On ch=1 n=c#6 v=57
178700 On ch=1 n=c#5 v=33
178774 Off ch=1 n=f5 v=64
178810 Off ch=1 n=c#5 v=64
178815 On ch=1 n=c6 v=67
178824 Off ch=1 n=c#6 v=64
178882 Off ch=1 n=c6 v=64
178948 On ch=1 n=a#5 v=58
178970 On ch=1 n=f5 v=42
179020 Off ch=1 n=f5 v=64
179082 Par ch=1 c=64 v=127
179108 Off ch=1 n=a#5 v=64
179112 On ch=1 n=d#4 v=56
179158 Off ch=1 n=d#4 v=64
179222 On ch=1 n=d#6 v=73
179224 On ch=1 n=f#5 v=57
179228 On ch=1 n=a#5 v=43
179306 Off ch=1 n=a#5 v=64
179308 Off ch=1 n=f#5 v=64
179358 Par ch=1 c=64 v=0
179364 Off ch=1 n=d#6 v=64
179482 On ch=1 n=f#5 v=56
179498 On ch=1 n=a#5 v=47
179502 On ch=1 n=d#6 v=69
179562 Off ch=1 n=f#5 v=64
179562 Off ch=1 n=a#5 v=64
179620 On ch=1 n=f6 v=66
179624 On ch=1 n=f5 v=48
179640 Off ch=1 n=d#6 v=64
179668 Off ch=1 n=f6 v=64
179680 Off ch=1 n=f5 v=64
179748 On ch=1 n=f#6 v=71
179754 On ch=1 n=a#5 v=50
179762 On ch=1 n=d#5 v=51
179774 Par ch=1 c=64 v=127
179810 Off ch=1 n=d#5 v=64
179816 Off ch=1 n=a#5 v=64
179836 Par ch=1 c=64 v=0
179928 Off ch=1 n=f#6 v=64
180046 On ch=1 n=c#5 v=29
180058 On ch=1 n=f6 v=57
180064 On ch=1 n=a5 v=37
180084 On ch=1 n=f4 v=46
180312 Par ch=1 c=64 v=127
180348 Off ch=1 n=c#5 v=64
180392 On ch=1 n=c5 v=36
180420 Par ch=1 c=64 v=0
180548 Off ch=1 n=f4 v=64
180551 Off ch=1 n=f6 v=64
180568 Off ch=1 n=c5 v=64
180588 Par ch=1 c=64 v=127
180646 On ch=1 n=f5 v=41
180672 Off ch=1 n=a5 v=64
180942 Par ch=1 c=64 v=0
180956 On ch=1 n=f6 v=57
180960 On ch=1 n=f3 v=56
180962 On ch=1 n=c4 v=37
181014 Off ch=1 n=f3 v=64
181022 Off ch=1 n=c4 v=64
181142 Par ch=1 c=64 v=127
181234 Par ch=1 c=64 v=0
181246 On ch=1 n=c4 v=49
181250 On ch=1 n=f3 v=59
181306 Off ch=1 n=c4 v=64
181324 Off ch=1 n=f3 v=64
181362 On ch=1 n=f4 v=74
181442 Off ch=1 n=f4 v=64
181474 On ch=1 n=c6 v=44
181480 On ch=1 n=a4 v=67
181486 Off ch=1 n=f6 v=64
181524 Off ch=1 n=a4 v=64
181588 Par ch=1 c=64 v=127
181642 Off ch=1 n=f5 v=64
181656 On ch=1 n=a#3 v=64
181694 Par ch=1 c=64 v=0
181716 Off ch=1 n=a#3 v=64
181750 On ch=1 n=c#6 v=65
181760 On ch=1 n=f5 v=44
181760 On ch=1 n=a#4 v=65
181798 Off ch=1 n=c6 v=64
181812 Off ch=1 n=a#4 v=64
181886 Off ch=1 n=c#6 v=64
181894 Par ch=1 c=64 v=127
181926 Par ch=1 c=64 v=0
182042 On ch=1 n=c#6 v=53
182046 On ch=1 n=c#5 v=64
182102 Off ch=1 n=c#5 v=64
182158 Off ch=1 n=f5 v=64
182166 On ch=1 n=c6 v=71
182176 Off ch=1 n=c#6 v=64
182254 Off ch=1 n=c6 v=64
182302 On ch=1 n=a#5 v=59
182318 On ch=1 n=f5 v=63
182360 Off ch=1 n=f5 v=64
182432 Par ch=1 c=64 v=127
182468 On ch=1 n=d#4 v=73
182476 Off ch=1 n=a#5 v=64
182518 Off ch=1 n=d#4 v=64
182580 On ch=1 n=c6 v=67
182588 On ch=1 n=a#5 v=37
182594 On ch=1 n=f#5 v=61
182600 Par ch=1 c=64 v=0
182712 On ch=1 n=c#6 v=75
182734 Off ch=1 n=c6 v=64
182734 On ch=1 n=f5 v=65
182786 Off ch=1 n=f#5 v=64
182788 Off ch=1 n=f5 v=64
182846 Off ch=1 n=c#6 v=64
182858 On ch=1 n=d#6 v=73
182861 On ch=1 n=d#5 v=76
182898 Off ch=1 n=d#5 v=64
182996 Off ch=1 n=a#5 v=64
183000 Off ch=1 n=d#6 v=64
183148 On ch=1 n=c#5 v=48
183150 On ch=1 n=c#6 v=64
183158 On ch=1 n=f4 v=75
183160 On ch=1 n=a5 v=39
183204 Off ch=1 n=c#5 v=64
183207 Off ch=1 n=f4 v=64
183272 Off ch=1 n=a5 v=64
183324 Par ch=1 c=64 v=127
183478 On ch=1 n=a#5 v=70
183482 Off ch=1 n=c#6 v=64
183482 On ch=1 n=a#3 v=50
183600 Par ch=1 c=64 v=0
183788 On ch=1 n=a#4 v=64
183793 Off ch=1 n=a#3 v=64
183830 Par ch=1 c=64 v=127
183836 Off ch=1 n=a#5 v=64
183854 Off ch=1 n=a#4 v=64
184058 On ch=1 n=c#6 v=95
184122 Par ch=1 c=64 v=0
184402 On ch=1 n=c#4 v=104
184412 On ch=1 n=c#3 v=97
184414 On ch=1 n=c#7 v=103
184452 Off ch=1 n=c#3 v=64
184476 Par ch=1 c=64 v=127
184486 Off ch=1 n=c#4 v=64
184506 Off ch=1 n=c#6 v=64
184508 Off ch=1 n=c#7 v=64
184688 On ch=1 n=c#6 v=72
184694 On ch=1 n=g#5 v=72
184694 On ch=1 n=g#4 v=75
184700 On ch=1 n=f5 v=79
184722 On ch=1 n=c#5 v=47
184752 Off ch=1 n=f5 v=64
184782 Off ch=1 n=c#5 v=64
184806 On ch=1 n=g4 v=84
184812 On ch=1 n=g5 v=91
184832 Off ch=1 n=g#4 v=64
184840 Off ch=1 n=g#5 v=64
184876 Off ch=1 n=c#6 v=64
184912 Off ch=1 n=g4 v=64
184918 Off ch=1 n=g5 v=64
184936 Par ch=1 c=64 v=0
184941 On ch=1 n=c#6 v=68
184948 On ch=1 n=f6 v=100
184948 On ch=1 n=g#5 v=68
184962 On ch=1 n=g#4 v=79
184964 On ch=1 n=f5 v=82
184974 On ch=1 n=c#5 v=69
185086 Off ch=1 n=f5 v=64
185126 Off ch=1 n=g#5 v=64
185128 Off ch=1 n=c#5 v=64
185152 Par ch=1 c=64 v=127
185166 Off ch=1 n=f6 v=64
185170 Off ch=1 n=g#4 v=64
185176 Off ch=1 n=c#6 v=64
185274 Par ch=1 c=64 v=0
185278 On ch=1 n=g#6 v=99
185280 On ch=1 n=c#4 v=95
185384 Off ch=1 n=c#4 v=64
185412 Par ch=1 c=64 v=127
185450 Off ch=1 n=g#6 v=64
185564 On ch=1 n=c#6 v=73
185568 On ch=1 n=a#5 v=62
185570 On ch=1 n=f#5 v=49
185578 On ch=1 n=a#4 v=47
185594 On ch=1 n=c#5 v=60
185668 Off ch=1 n=f#5 v=64
185674 On ch=1 n=a5 v=70
185677 On ch=1 n=a4 v=80
185700 Off ch=1 n=a#4 v=64
185704 Off ch=1 n=a#5 v=64
185720 Off ch=1 n=c#6 v=64
185728 Off ch=1 n=c#5 v=64
185782 Par ch=1 c=64 v=0
185788 Off ch=1 n=a4 v=64
185796 Off ch=1 n=a5 v=64
185798 On ch=1 n=f#6 v=95
185810 On ch=1 n=a#5 v=60
185810 On ch=1 n=c#6 v=52
185816 On ch=1 n=a#4 v=69
185818 On ch=1 n=f#5 v=73
185822 On ch=1 n=c#5 v=50
185934 Off ch=1 n=f#5 v=64
185970 Off ch=1 n=c#5 v=64
185998 Par ch=1 c=64 v=127
186012 Off ch=1 n=a#4 v=64
186068 Off ch=1 n=f#6 v=64
186100 On ch=1 n=f6 v=98
186102 On ch=1 n=c#4 v=88
186104 Par ch=1 c=64 v=0
186122 Off ch=1 n=a#5 v=64
186166 Off ch=1 n=c#6 v=64
186216 Off ch=1 n=c#4 v=64
186258 Par ch=1 c=64 v=127
186366 Off ch=1 n=f6 v=64
186384 On ch=1 n=f#5 v=68
186387 On ch=1 n=g#5 v=61
186390 On ch=1 n=g#4 v=69
186396 On ch=1 n=c6 v=72
186400 On ch=1 n=c5 v=65
186498 Off ch=1 n=f#5 v=64
186506 On ch=1 n=g5 v=73
186512 Off ch=1 n=g#5 v=64
186524 On ch=1 n=g4 v=89
186540 Off ch=1 n=c5 v=64
186546 Off ch=1 n=g#4 v=64
186548 Off ch=1 n=c6 v=64
186612 Par ch=1 c=64 v=0
186628 Off ch=1 n=g5 v=64
186630 On ch=1 n=d#6 v=88
186632 On ch=1 n=c6 v=54
186634 On ch=1 n=g#5 v=69
186636 Off ch=1 n=g4 v=64
186646 On ch=1 n=f#5 v=79
186658 On ch=1 n=g#4 v=65
186660 On ch=1 n=c5 v=42
186764 Off ch=1 n=f#5 v=64
186796 Par ch=1 c=64 v=127
186808 Off ch=1 n=c5 v=64
186826 Off ch=1 n=g#5 v=64
186846 Off ch=1 n=c6 v=64
186850 Off ch=1 n=g#4 v=64
186904 Par ch=1 c=64 v=0
186918 On ch=1 n=f6 v=94
186921 On ch=1 n=c#4 v=89
186986 Off ch=1 n=d#6 v=64
187048 Off ch=1 n=c#4 v=64
187072 Par ch=1 c=64 v=127
187130 Off ch=1 n=f6 v=64
187178 On ch=1 n=g#4 v=67
187184 On ch=1 n=f5 v=70
187194 On ch=1 n=c#5 v=66
187302 Off ch=1 n=f5 v=64
187306 On ch=1 n=g4 v=92
187330 Off ch=1 n=c#5 v=64
187342 Off ch=1 n=g#4 v=64
187438 Par ch=1 c=64 v=0
187466 Off ch=1 n=g4 v=64
187472 On ch=1 n=f6 v=105
187472 On ch=1 n=g#4 v=88
187486 On ch=1 n=f5 v=81
187492 On ch=1 n=c#5 v=76
187540 Off ch=1 n=f5 v=64
187608 Off ch=1 n=c#5 v=64
187611 Par ch=1 c=64 v=127
187648 Off ch=1 n=g#4 v=64
187886 Par ch=1 c=64 v=0
187888 On ch=1 n=f7 v=108
187904 On ch=1 n=c#3 v=92
187906 On ch=1 n=c#4 v=91
187952 Off ch=1 n=c#4 v=64
187960 Off ch=1 n=c#3 v=64
187984 Off ch=1 n=f7 v=64
187994 Par ch=1 c=64 v=127
188016 Off ch=1 n=f6 v=64
188208 On ch=1 n=c#6 v=73
188211 On ch=1 n=f6 v=76
188211 On ch=1 n=g#5 v=64
188234 On ch=1 n=f5 v=53
188238 On ch=1 n=c#5 v=49
188300 Off ch=1 n=g#5 v=64
188324 On ch=1 n=c6 v=83
188327 Off ch=1 n=c#5 v=64
188334 On ch=1 n=c5 v=76
188364 Off ch=1 n=c#6 v=64
188364 Off ch=1 n=f5 v=64
188386 Off ch=1 n=f6 v=64
188470 On ch=1 n=g#6 v=95
188470 On ch=1 n=f6 v=57
188478 On ch=1 n=g#5 v=79
188480 Off ch=1 n=c5 v=64
188480 On ch=1 n=c#5 v=65
188483 On ch=1 n=c#6 v=55
188486 Par ch=1 c=64 v=0
188496 On ch=1 n=f5 v=49
188504 Off ch=1 n=c6 v=64
188624 Par ch=1 c=64 v=127
188628 Off ch=1 n=g#5 v=64
188632 Off ch=1 n=f6 v=64
188634 Off ch=1 n=c#6 v=64
188648 Off ch=1 n=f5 v=64
188662 Off ch=1 n=g#6 v=64
188686 Off ch=1 n=c#5 v=64
188838 On ch=1 n=c#4 v=91
188841 On ch=1 n=c7 v=102
188926 Off ch=1 n=c#4 v=64
188946 Off ch=1 n=c7 v=64
189128 On ch=1 n=f#6 v=86
189136 On ch=1 n=c#6 v=69
189138 On ch=1 n=a#5 v=65
189150 On ch=1 n=c#5 v=69
189158 On ch=1 n=f#5 v=54
189260 On ch=1 n=c6 v=79
189268 Off ch=1 n=a#5 v=64
189268 On ch=1 n=c5 v=85
189286 Off ch=1 n=f#5 v=64
189294 Off ch=1 n=c#6 v=64
189294 Off ch=1 n=c#5 v=64
189338 Off ch=1 n=f#6 v=64
189362 Par ch=1 c=64 v=0
189390 On ch=1 n=a#6 v=93
189398 On ch=1 n=f#6 v=61
189402 On ch=1 n=a#5 v=81
189402 On ch=1 n=c#6 v=58
189412 On ch=1 n=c#5 v=67
189414 Off ch=1 n=c5 v=64
189418 Off ch=1 n=c6 v=64
189428 On ch=1 n=f#5 v=56
189512 Off ch=1 n=f#5 v=64
189515 Par ch=1 c=64 v=127
189524 Off ch=1 n=a#5 v=64
189570 Off ch=1 n=c#5 v=64
189602 Off ch=1 n=a#6 v=64
189608 Off ch=1 n=f#6 v=64
189644 Off ch=1 n=c#6 v=64
189654 Par ch=1 c=64 v=0
189686 On ch=1 n=g#6 v=93
189696 On ch=1 n=c#4 v=82
189744 Off ch=1 n=c#4 v=64
189776 Par ch=1 c=64 v=127
189802 Off ch=1 n=g#6 v=64
189956 On ch=1 n=f#5 v=48
189959 On ch=1 n=g#5 v=62
189962 On ch=1 n=g#4 v=61
189976 On ch=1 n=c6 v=61
189982 On ch=1 n=c5 v=50
190040 Off ch=1 n=f#5 v=64
190052 Off ch=1 n=c5 v=64
190078 On ch=1 n=g5 v=71
190096 Off ch=1 n=g#5 v=64
190101 On ch=1 n=g4 v=79
190112 Off ch=1 n=g#4 v=64
190128 Off ch=1 n=c6 v=64
190202 Off ch=1 n=g4 v=64
190206 On ch=1 n=f#6 v=86
190208 Off ch=1 n=g5 v=64
190210 On ch=1 n=c6 v=44
190212 On ch=1 n=g#5 v=50
190224 On ch=1 n=f#5 v=69
190238 Par ch=1 c=64 v=0
190240 On ch=1 n=g#4 v=55
190254 On ch=1 n=c5 v=49
190350 Off ch=1 n=f#5 v=64
190388 Off ch=1 n=c5 v=64
190390 Par ch=1 c=64 v=127
190424 Off ch=1 n=g#4 v=64
190490 Off ch=1 n=f#6 v=64
190508 Off ch=1 n=g#5 v=64
190510 On ch=1 n=f6 v=89
190514 Par ch=1 c=64 v=0
190530 On ch=1 n=c#4 v=77
190550 Off ch=1 n=c6 v=64
190646 Off ch=1 n=c#4 v=64
190668 Par ch=1 c=64 v=127
190682 Off ch=1 n=f6 v=64
190762 On ch=1 n=f5 v=64
190765 On ch=1 n=g#4 v=59
190774 On ch=1 n=c#5 v=62
190830 Off ch=1 n=f5 v=64
190888 Off ch=1 n=g#4 v=64
190890 On ch=1 n=g4 v=87
190906 Off ch=1 n=c#5 v=64
191008 On ch=1 n=f6 v=97
191022 Par ch=1 c=64 v=0
191024 On ch=1 n=g#4 v=72
191034 Off ch=1 n=g4 v=64
191034 On ch=1 n=f5 v=70
191054 On ch=1 n=c#5 v=56
191238 Off ch=1 n=f5 v=64
191290 Off ch=1 n=c#5 v=64
191320 Off ch=1 n=g#4 v=64
191346 On ch=1 n=f7 v=97
191349 Off ch=1 n=f6 v=64
191388 On ch=1 n=c#4 v=73
191391 Par ch=1 c=64 v=127
191440 Off ch=1 n=c#4 v=64
191592 Off ch=1 n=f7 v=64
191606 On ch=1 n=g#4 v=50
191608 On ch=1 n=f5 v=53
191620 On ch=1 n=c#5 v=50
191664 Off ch=1 n=f5 v=64
191698 Off ch=1 n=c#5 v=64
191742 Off ch=1 n=g#4 v=64
191745 On ch=1 n=g4 v=71
191850 Off ch=1 n=g4 v=64
191878 On ch=1 n=g#5 v=84
191894 On ch=1 n=g#4 v=51
191898 On ch=1 n=f5 v=52
191920 On ch=1 n=c#5 v=55
191988 Off ch=1 n=f5 v=64
192028 Off ch=1 n=c#5 v=64
192070 Off ch=1 n=g#4 v=64
192190 On ch=1 n=g#6 v=79
192212 On ch=1 n=c#4 v=61
192220 Par ch=1 c=64 v=0
192234 Off ch=1 n=g#5 v=64
192342 Off ch=1 n=c#4 v=64
192374 Par ch=1 c=64 v=127
192412 Off ch=1 n=g#6 v=64
192469 On ch=1 n=f5 v=42
192469 On ch=1 n=g#4 v=46
192476 On ch=1 n=c#5 v=50
192522 Off ch=1 n=f5 v=64
192536 Off ch=1 n=g#4 v=64
192562 Off ch=1 n=c#5 v=64
192588 On ch=1 n=g4 v=72
192650 Off ch=1 n=g4 v=64
192732 On ch=1 n=f6 v=87
192754 On ch=1 n=g#4 v=66
192756 On ch=1 n=f5 v=63
192776 On ch=1 n=c#5 v=51
192802 Off ch=1 n=f5 v=64
192838 Off ch=1 n=c#5 v=64
192886 Off ch=1 n=g#4 v=64
193080 Par ch=1 c=64 v=0
193126 Off ch=1 n=f6 v=64
193129 On ch=1 n=f7 v=76
193142 On ch=1 n=c4 v=36
193278 Off ch=1 n=c4 v=64
193312 Par ch=1 c=64 v=127
193368 Off ch=1 n=f7 v=64
193468 On ch=1 n=f5 v=37
193470 On ch=1 n=d#5 v=18
193532 Off ch=1 n=f5 v=64
193548 Off ch=1 n=d#5 v=64
193584 On ch=1 n=a4 v=42
193654 Off ch=1 n=a4 v=64
193748 On ch=1 n=a5 v=42
193776 On ch=1 n=f5 v=23
193788 On ch=1 n=d#5 v=41
193840 Off ch=1 n=f5 v=64
193840 Off ch=1 n=d#5 v=64
194092 Off ch=1 n=a5 v=64
194172 On ch=1 n=a6 v=52
194196 On ch=1 n=c4 v=25
194266 Off ch=1 n=c4 v=64
194566 On ch=1 n=d#5 v=22
194580 On ch=1 n=f5 v=22
194590 Off ch=1 n=a6 v=64
194670 Off ch=1 n=f5 v=64
194690 Off ch=1 n=d#5 v=64
194760 On ch=1 n=a4 v=17
194856 Off ch=1 n=a4 v=64
195004 On ch=1 n=f5 v=42
195020 On ch=1 n=d#5 v=32
195078 Off ch=1 n=d#5 v=64
195422 On ch=1 n=f6 v=52
195440 On ch=1 n=f3 v=39
195442 On ch=1 n=c4 v=25
195446 Par ch=1 c=64 v=0
195524 Off ch=1 n=c4 v=64
195529 Off ch=1 n=f3 v=64
195630 Par ch=1 c=64 v=127
195744 On ch=1 n=f3 v=42
195764 On ch=1 n=c4 v=23
195806 Off ch=1 n=f3 v=64
195830 Off ch=1 n=c4 v=64
195854 On ch=1 n=f4 v=63
195910 Off ch=1 n=f4 v=64
195968 Par ch=1 c=64 v=0
195986 On ch=1 n=c6 v=52
195992 On ch=1 n=a4 v=47
195996 Off ch=1 n=f6 v=64
196044 Off ch=1 n=a4 v=64
196106 Par ch=1 c=64 v=127
196166 On ch=1 n=a#3 v=50
196214 Par ch=1 c=64 v=0
196268 On ch=1 n=c#6 v=59
196272 Off ch=1 n=a#3 v=64
196298 On ch=1 n=a#4 v=43
196310 Off ch=1 n=c6 v=64
196366 Off ch=1 n=a#4 v=64
196372 Off ch=1 n=c#6 v=64
196398 Par ch=1 c=64 v=127
196506 Par ch=1 c=64 v=0
196540 On ch=1 n=c#6 v=48
196578 On ch=1 n=c#5 v=43
196660 Off ch=1 n=c#5 v=64
196672 On ch=1 n=c6 v=62
196680 Off ch=1 n=c#6 v=64
196706 Par ch=1 c=64 v=127
196710 Off ch=1 n=f5 v=64
196738 Par ch=1 c=64 v=0
196762 Off ch=1 n=c6 v=64
196806 On ch=1 n=f5 v=38
196808 On ch=1 n=a#5 v=49
196860 Off ch=1 n=f5 v=64
196920 Par ch=1 c=64 v=127
196966 On ch=1 n=d#4 v=70
196976 Off ch=1 n=a#5 v=64
197022 Off ch=1 n=d#4 v=64
197044 Par ch=1 c=64 v=0
197086 On ch=1 n=a#5 v=41
197089 On ch=1 n=d#6 v=66
197100 On ch=1 n=f#5 v=67
197142 Off ch=1 n=f#5 v=64
197166 Off ch=1 n=a#5 v=64
197198 Par ch=1 c=64 v=127
197234 Off ch=1 n=d#6 v=64
197260 Par ch=1 c=64 v=0
197366 On ch=1 n=f#5 v=55
197371 On ch=1 n=a#5 v=41
197380 On ch=1 n=d#6 v=59
197436 Off ch=1 n=d#6 v=64
197438 Off ch=1 n=f#5 v=64
197442 Off ch=1 n=a#5 v=64
197488 On ch=1 n=f6 v=73
197504 On ch=1 n=f5 v=46
197534 Off ch=1 n=f6 v=64
197560 Off ch=1 n=f5 v=64
197624 On ch=1 n=d#5 v=65
197624 On ch=1 n=a#5 v=54
197627 On ch=1 n=f#6 v=73
197658 Par ch=1 c=64 v=127
197664 Off ch=1 n=d#5 v=64
197696 Off ch=1 n=a#5 v=64
197704 Par ch=1 c=64 v=0
197772 Off ch=1 n=f#6 v=64
197924 On ch=1 n=f6 v=63
197927 On ch=1 n=c#5 v=36
197927 On ch=1 n=a5 v=36
197986 On ch=1 n=f4 v=26
198120 Par ch=1 c=64 v=127
198242 Off ch=1 n=c#5 v=64
198302 On ch=1 n=c5 v=25
198350 Par ch=1 c=64 v=0
198484 Off ch=1 n=f4 v=64
198488 Off ch=1 n=f6 v=64
198520 Par ch=1 c=64 v=127
198532 Off ch=1 n=c5 v=64
198586 Off ch=1 n=a5 v=64
198600 On ch=1 n=f5 v=55
198905 On ch=1 n=f3 v=54
198908 On ch=1 n=c4 v=45
198922 On ch=1 n=f6 v=57
198967 Off ch=1 n=f3 v=64
198978 Off ch=1 n=c4 v=64
199190 On ch=1 n=c4 v=59
199204 On ch=1 n=f3 v=54
199266 Off ch=1 n=c4 v=64
199266 Off ch=1 n=f3 v=64
199312 On ch=1 n=f4 v=76
199380 Off ch=1 n=f4 v=64
199430 On ch=1 n=a4 v=61
199438 On ch=1 n=c6 v=66
199472 Off ch=1 n=f6 v=64
199476 Off ch=1 n=a4 v=64
199608 On ch=1 n=a#3 v=65
199626 Par ch=1 c=64 v=0
199706 On ch=1 n=a#4 v=67
199709 On ch=1 n=c#6 v=75
199714 Off ch=1 n=a#3 v=64
199762 Off ch=1 n=c6 v=64
199794 Off ch=1 n=a#4 v=64
199811 Off ch=1 n=c#6 v=64
199842 Par ch=1 c=64 v=127
199888 Par ch=1 c=64 v=0
199998 On ch=1 n=c#6 v=68
200006 On ch=1 n=c#5 v=65
200058 Off ch=1 n=c#5 v=64
200072 Off ch=1 n=f5 v=64
200118 On ch=1 n=c6 v=73
200124 Off ch=1 n=c#6 v=64
200238 Off ch=1 n=c6 v=64
200242 On ch=1 n=a#5 v=70
200250 On ch=1 n=f5 v=55
200296 Off ch=1 n=f5 v=64
200374 Off ch=1 n=a#5 v=64
200378 Par ch=1 c=64 v=127
200402 On ch=1 n=d#4 v=57
200450 Off ch=1 n=d#4 v=64
200514 On ch=1 n=c6 v=72
200517 Par ch=1 c=64 v=0
200522 On ch=1 n=f#5 v=58
200524 On ch=1 n=a#5 v=33
200640 On ch=1 n=c#6 v=73
200646 Off ch=1 n=c6 v=64
200670 On ch=1 n=f5 v=49
200706 Off ch=1 n=f#5 v=64
200726 Off ch=1 n=f5 v=64
200764 Off ch=1 n=c#6 v=64
200792 On ch=1 n=d#5 v=64
200814 On ch=1 n=d#6 v=54
200834 Off ch=1 n=d#5 v=64
200910 Off ch=1 n=d#6 v=64
201038 Off ch=1 n=a#5 v=64
201084 On ch=1 n=c#6 v=49
201110 On ch=1 n=c#5 v=41
201113 On ch=1 n=a5 v=23
201124 On ch=1 n=f4 v=53
201182 Off ch=1 n=c#5 v=64
201188 Off ch=1 n=f4 v=64
201254 Par ch=1 c=64 v=127
201374 Off ch=1 n=a5 v=64
201392 Par ch=1 c=64 v=0
201446 On ch=1 n=a#5 v=40
201451 Off ch=1 n=c#6 v=64
201451 On ch=1 n=a#3 v=33
201654 Par ch=1 c=64 v=127
201738 Off ch=1 n=a#5 v=64
201752 Off ch=1 n=a#3 v=64
201808 On ch=1 n=a#4 v=34
201878 Off ch=1 n=a#4 v=64
202106 On ch=1 n=c5 v=83
202112 On ch=1 n=f4 v=93
202116 On ch=1 n=a4 v=51
202116 On ch=1 n=f2 v=91
202124 On ch=1 n=f3 v=78
202152 Off ch=1 n=f2 v=64
202155 Off ch=1 n=f4 v=64
202164 Off ch=1 n=f3 v=64
202188 Off ch=1 n=a4 v=64
202230 Off ch=1 n=c5 v=64
202252 Par ch=1 c=64 v=0
202418 On ch=1 n=a#4 v=75
202420 On ch=1 n=c#5 v=89
202424 On ch=1 n=f4 v=100
202428 On ch=1 n=a#3 v=93
202432 On ch=1 n=a#2 v=91
202478 Off ch=1 n=f4 v=64
202560 Par ch=1 c=64 v=127
202562 Off ch=1 n=c#5 v=64
202652 Off ch=1 n=a#4 v=64
202714 On ch=1 n=c5 v=89
202718 On ch=1 n=f4 v=103
202722 On ch=1 n=a4 v=71
202760 Off ch=1 n=f4 v=64
202776 Par ch=1 c=64 v=0
202794 Off ch=1 n=a4 v=64
202830 Off ch=1 n=c5 v=64
202944 Par ch=1 c=64 v=127
202994 On ch=1 n=c#5 v=92
202996 On ch=1 n=a#4 v=75
202998 On ch=1 n=f4 v=105
203006 Par ch=1 c=64 v=0
203038 Off ch=1 n=f4 v=64
203064 Off ch=1 n=a#3 v=64
203086 Off ch=1 n=a#2 v=64
203094 Off ch=1 n=c#5 v=64
203098 Off ch=1 n=a#4 v=64
203160 Par ch=1 c=64 v=127
203252 Par ch=1 c=64 v=0
203280 On ch=1 n=g#3 v=90
203282 On ch=1 n=g#4 v=78
203284 On ch=1 n=d#5 v=88
203292 On ch=1 n=g#2 v=77
203294 On ch=1 n=c5 v=70
203330 Off ch=1 n=g#2 v=64
203338 Off ch=1 n=g#3 v=64
203368 Off ch=1 n=c5 v=64
203371 Off ch=1 n=g#4 v=64
203400 On ch=1 n=f#3 v=86
203412 On ch=1 n=f#2 v=93
203420 Par ch=1 c=64 v=127
203492 Off ch=1 n=d#5 v=64
203498 Par ch=1 c=64 v=0
203526 Off ch=1 n=f#3 v=64
203534 On ch=1 n=g#4 v=91
203534 On ch=1 n=f5 v=92
203538 On ch=1 n=c#5 v=86
203542 On ch=1 n=f3 v=102
203552 On ch=1 n=f2 v=98
203598 Off ch=1 n=f#2 v=64
203640 Off ch=1 n=f2 v=64
203650 Off ch=1 n=g#4 v=64
203650 Off ch=1 n=f3 v=64
203666 Off ch=1 n=c#5 v=64
203690 Off ch=1 n=f5 v=64
203836 On ch=1 n=g#4 v=92
203836 On ch=1 n=f#5 v=90
203844 On ch=1 n=d#3 v=100
203844 On ch=1 n=d#5 v=83
203847 On ch=1 n=d#2 v=99
203912 Par ch=1 c=64 v=127
203924 Off ch=1 n=d#3 v=64
203954 Off ch=1 n=d#2 v=64
203962 Off ch=1 n=g#4 v=64
203966 Off ch=1 n=d#5 v=64
204004 Par ch=1 c=64 v=0
204014 Off ch=1 n=f#5 v=64
204220 On ch=1 n=g#5 v=95
204228 On ch=1 n=c#5 v=88
204228 On ch=1 n=b4 v=100
204231 On ch=1 n=c#3 v=109
204231 On ch=1 n=c#2 v=104
204231 On ch=1 n=f5 v=89
204600 Off ch=1 n=b4 v=64
204616 Off ch=1 n=c#5 v=64
204680 Par ch=1 c=64 v=127
204854 Off ch=1 n=c#3 v=64
204872 Off ch=1 n=c#2 v=64
204884 On ch=1 n=c#5 v=92
204890 On ch=1 n=b4 v=85
205212 Off ch=1 n=f5 v=64
205246 Off ch=1 n=b4 v=64
205252 On ch=1 n=f#3 v=98
205256 On ch=1 n=f#2 v=103
205264 Off ch=1 n=c#5 v=64
205418 Par ch=1 c=64 v=0
205566 On ch=1 n=f#5 v=84
205574 On ch=1 n=a#4 v=70
205574 On ch=1 n=c#5 v=79
205620 Off ch=1 n=g#5 v=64
205774 Off ch=1 n=a#4 v=64
205878 On ch=1 n=f5 v=87
205881 On ch=1 n=g#4 v=67
205928 Off ch=1 n=f#5 v=64
205936 Off ch=1 n=c#5 v=64
206018 Par ch=1 c=64 v=127
206024 Off ch=1 n=f#3 v=64
206036 Off ch=1 n=g#4 v=64
206050 Off ch=1 n=f#2 v=64
206140 Par ch=1 c=64 v=0
206174 On ch=1 n=f#4 v=84
206174 On ch=1 n=d#5 v=91
206180 Off ch=1 n=f5 v=64
206180 On ch=1 n=c5 v=73
206192 On ch=1 n=g#3 v=79
206195 On ch=1 n=g#2 v=76
206228 Off ch=1 n=g#3 v=64
206228 Off ch=1 n=g#2 v=64
206268 Off ch=1 n=f#4 v=64
206272 Off ch=1 n=c5 v=64
206294 Par ch=1 c=64 v=127
206438 Off ch=1 n=d#5 v=64
206498 On ch=1 n=f5 v=94
206500 On ch=1 n=f4 v=106
206502 On ch=1 n=c5 v=79
206508 On ch=1 n=a2 v=94
206510 On ch=1 n=a3 v=85
206556 Par ch=1 c=64 v=0
206782 On ch=1 n=d#5 v=94
206848 Off ch=1 n=c5 v=64
206864 Par ch=1 c=64 v=127
206874 Off ch=1 n=f5 v=64
206884 Off ch=1 n=f4 v=64
206918 Off ch=1 n=a3 v=64
206964 Off ch=1 n=a2 v=64
207062 Par ch=1 c=64 v=0
207074 On ch=1 n=c#5 v=92
207082 On ch=1 n=f4 v=103
207082 On ch=1 n=a#4 v=66
207085 On ch=1 n=a#3 v=83
207092 On ch=1 n=a#2 v=77
207104 Off ch=1 n=d#5 v=64
207132 Off ch=1 n=f4 v=64
207172 Off ch=1 n=a#4 v=64
207194 Off ch=1 n=a#3 v=64
207197 Off ch=1 n=c#5 v=64
207216 Par ch=1 c=64 v=127
207268 Off ch=1 n=a#2 v=64
207370 Par ch=1 c=64 v=0
207382 On ch=1 n=d#4 v=91
207382 On ch=1 n=d#5 v=93
207384 On ch=1 n=a#4 v=72
207396 On ch=1 n=g3 v=84
207398 On ch=1 n=g2 v=98
207684 On ch=1 n=c#5 v=90
207750 Off ch=1 n=d#5 v=64
207754 Par ch=1 c=64 v=127
207758 Off ch=1 n=g3 v=64
207760 Off ch=1 n=a#4 v=64
207776 Off ch=1 n=d#4 v=64
207848 Off ch=1 n=g2 v=64
207916 Off ch=1 n=c#5 v=64
207958 On ch=1 n=d#4 v=82
207960 On ch=1 n=c5 v=89
207967 On ch=1 n=g#2 v=89
207970 Par ch=1 c=64 v=0
207970 On ch=1 n=g#4 v=65
207970 On ch=1 n=g#3 v=90
208040 Off ch=1 n=g#4 v=64
208050 Off ch=1 n=g#3 v=64
208054 Off ch=1 n=d#4 v=64
208062 Off ch=1 n=g#2 v=64
208122 Par ch=1 c=64 v=127
208134 Off ch=1 n=c5 v=64
208184 Par ch=1 c=64 v=0
208246 On ch=1 n=d#5 v=93
208248 On ch=1 n=c#4 v=89
208254 On ch=1 n=d#3 v=90
208256 On ch=1 n=g4 v=85
208258 On ch=1 n=a#4 v=64
208294 Off ch=1 n=g4 v=64
208298 Off ch=1 n=d#3 v=64
208300 Off ch=1 n=c#4 v=64
208316 Off ch=1 n=a#4 v=64
208362 Off ch=1 n=d#5 v=64
208538 On ch=1 n=d#6 v=92
208544 On ch=1 n=c#5 v=89
208548 On ch=1 n=a#5 v=66
208550 On ch=1 n=g5 v=76
208566 On ch=1 n=d#4 v=60
208604 Off ch=1 n=g5 v=64
208614 Off ch=1 n=a#5 v=64
208620 Off ch=1 n=d#4 v=64
208630 Par ch=1 c=64 v=127
208632 Off ch=1 n=d#6 v=64
208636 Off ch=1 n=c#5 v=64
208660 Par ch=1 c=64 v=0
208826 On ch=1 n=d#5 v=86
208831 On ch=1 n=g#5 v=87
208838 On ch=1 n=g#4 v=79
208838 On ch=1 n=c5 v=84
208890 Off ch=1 n=c5 v=64
208918 Off ch=1 n=g#4 v=64
208922 Par ch=1 c=64 v=127
209010 Off ch=1 n=d#5 v=64
209038 Off ch=1 n=g#5 v=64
209110 On ch=1 n=g#3 v=94
209152 Off ch=1 n=g#3 v=64
209182 Par ch=1 c=64 v=0
209386 On ch=1 n=c6 v=89
209386 On ch=1 n=c5 v=89
209386 On ch=1 n=a5 v=72
209394 On ch=1 n=f4 v=109
209396 On ch=1 n=f3 v=99
209400 On ch=1 n=f5 v=71
209424 Off ch=1 n=f4 v=64
209426 Off ch=1 n=f3 v=64
209482 Off ch=1 n=c5 v=64
209502 Off ch=1 n=a5 v=64
209522 Off ch=1 n=c6 v=64
209546 Off ch=1 n=f5 v=64
209682 On ch=1 n=c#6 v=89
209684 On ch=1 n=c#5 v=91
209684 On ch=1 n=a#5 v=75
209694 On ch=1 n=f5 v=72
209700 On ch=1 n=a#4 v=90
209706 On ch=1 n=a#3 v=93
209766 Par ch=1 c=64 v=127
209844 Off ch=1 n=c#5 v=64
209850 Off ch=1 n=c#6 v=64
209856 Off ch=1 n=a#5 v=64
209861 Off ch=1 n=f5 v=64
209936 Par ch=1 c=64 v=0
209974 On ch=1 n=c5 v=96
209980 On ch=1 n=c6 v=84
209986 On ch=1 n=a5 v=66
210000 On ch=1 n=f5 v=60
210050 Off ch=1 n=a5 v=64
210050 Off ch=1 n=f5 v=64
210076 Off ch=1 n=a#4 v=64
210076 Off ch=1 n=c5 v=64
210079 Off ch=1 n=a#3 v=64
210079 Off ch=1 n=c6 v=64
210120 Par ch=1 c=64 v=127
210212 Par ch=1 c=64 v=0
210258 On ch=1 n=a#4 v=86
210260 On ch=1 n=c#5 v=97
210260 On ch=1 n=a#3 v=92
210262 On ch=1 n=a#5 v=73
210262 On ch=1 n=c#6 v=84
210264 On ch=1 n=f5 v=79
210308 Off ch=1 n=a#3 v=64
210312 Off ch=1 n=f5 v=64
210316 Off ch=1 n=a#4 v=64
210338 Off ch=1 n=c#5 v=64
210382 Off ch=1 n=a#5 v=64
210396 Par ch=1 c=64 v=127
210400 Off ch=1 n=c#6 v=64
210474 Par ch=1 c=64 v=0
210524 On ch=1 n=g#4 v=89
210526 On ch=1 n=g#3 v=95
210536 On ch=1 n=d#5 v=96
210544 On ch=1 n=d#6 v=84
210546 On ch=1 n=c6 v=78
210554 On ch=1 n=g#5 v=62
210572 Off ch=1 n=g#3 v=64
210584 Off ch=1 n=g#4 v=64
210594 Off ch=1 n=c6 v=64
210602 Off ch=1 n=g#5 v=64
210640 Off ch=1 n=d#6 v=64
210650 Off ch=1 n=d#5 v=64
210654 On ch=1 n=f#4 v=98
210658 Par ch=1 c=64 v=127
210660 On ch=1 n=f#3 v=96
210738 Off ch=1 n=f#4 v=64
210756 Off ch=1 n=f#3 v=64
210766 Par ch=1 c=64 v=0
210798 On ch=1 n=f6 v=102
210802 On ch=1 n=c6 v=80
210802 On ch=1 n=f5 v=92
210804 On ch=1 n=g#5 v=82
210812 On ch=1 n=f4 v=119
210812 On ch=1 n=f3 v=109
210886 Off ch=1 n=f4 v=64
210896 Off ch=1 n=f5 v=64
210910 Off ch=1 n=f6 v=64
210916 Off ch=1 n=c6 v=64
210920 Off ch=1 n=f3 v=64
210924 Off ch=1 n=g#5 v=64
210934 Par ch=1 c=64 v=127
210980 Par ch=1 c=64 v=0
211114 On ch=1 n=f#6 v=98
211114 On ch=1 n=f#5 v=90
211117 On ch=1 n=g#5 v=84
211117 On ch=1 n=c6 v=91
211121 On ch=1 n=d#4 v=100
211130 On ch=1 n=d#3 v=94
211170 Off ch=1 n=d#3 v=64
211180 Par ch=1 c=64 v=127
211216 Off ch=1 n=d#4 v=64
211258 Off ch=1 n=g#5 v=64
211260 Off ch=1 n=f#5 v=64
211260 Off ch=1 n=c6 v=64
211286 Off ch=1 n=f#6 v=64
211538 On ch=1 n=g#6 v=101
211540 On ch=1 n=c#6 v=81
211540 On ch=1 n=g#5 v=90
211540 On ch=1 n=f6 v=89
211542 On ch=1 n=b5 v=100
211546 On ch=1 n=c#4 v=100
211548 Par ch=1 c=64 v=0
211552 On ch=1 n=c#3 v=105
211992 Off ch=1 n=c#6 v=64
211998 Off ch=1 n=b5 v=64
212024 Off ch=1 n=g#5 v=64
212056 Par ch=1 c=64 v=127
212188 On ch=1 n=g#5 v=90
212191 On ch=1 n=b5 v=91
212191 On ch=1 n=c#6 v=83
212222 Off ch=1 n=c#3 v=64
212256 Off ch=1 n=c#4 v=64
212366 Off ch=1 n=g#6 v=64
212422 Off ch=1 n=f6 v=64
212490 Off ch=1 n=b5 v=64
212504 Off ch=1 n=c#6 v=64
212504 On ch=1 n=f#4 v=110
212504 On ch=1 n=f#3 v=97
212534 Off ch=1 n=g#5 v=64
212820 On ch=1 n=f#6 v=101
212822 On ch=1 n=f#5 v=91
212828 On ch=1 n=c#6 v=83
212828 On ch=1 n=a#5 v=75
212840 Par ch=1 c=64 v=0
213084 Off ch=1 n=f#5 v=64
213096 Off ch=1 n=f#6 v=64
213116 Par ch=1 c=64 v=127
213144 On ch=1 n=f6 v=101
213148 On ch=1 n=f5 v=89
213212 Off ch=1 n=f#4 v=64
213226 Off ch=1 n=f#3 v=64
213229 Off ch=1 n=c#6 v=64
213276 Off ch=1 n=f6 v=64
213276 Off ch=1 n=f5 v=64
213362 Off ch=1 n=a#5 v=64
213454 On ch=1 n=d#6 v=92
213458 On ch=1 n=d#5 v=97
213462 On ch=1 n=c6 v=80
213468 On ch=1 n=g#4 v=88
213476 On ch=1 n=g#3 v=92
213588 Off ch=1 n=g#4 v=64
213610 Off ch=1 n=g#3 v=64
213620 Off ch=1 n=d#5 v=64
213626 Off ch=1 n=c6 v=64
213674 Off ch=1 n=d#6 v=64
213686 Par ch=1 c=64 v=0
213766 On ch=1 n=a3 v=90
213784 On ch=1 n=f6 v=104
213790 On ch=1 n=f5 v=101
213792 On ch=1 n=c6 v=85
213824 Off ch=1 n=a3 v=64
213854 Par ch=1 c=64 v=127
213862 On ch=1 n=f4 v=73
213870 On ch=1 n=c5 v=94
213934 Off ch=1 n=f6 v=64
213976 Off ch=1 n=f5 v=64
214088 On ch=1 n=d#6 v=93
214092 On ch=1 n=d#5 v=100
214160 Off ch=1 n=c5 v=64
214178 Off ch=1 n=c6 v=64
214198 Off ch=1 n=d#5 v=64
214220 Off ch=1 n=d#6 v=64
214228 Off ch=1 n=f4 v=64
214388 On ch=1 n=c#6 v=92
214391 On ch=1 n=c#5 v=98
214398 On ch=1 n=a#5 v=69
214402 On ch=1 n=a#4 v=78
214408 On ch=1 n=a#3 v=79
214410 On ch=1 n=f4 v=88
214422 Par ch=1 c=64 v=0
214514 Off ch=1 n=f4 v=64
214522 Off ch=1 n=a#4 v=64
214536 Off ch=1 n=c#5 v=64
214566 Off ch=1 n=a#3 v=64
214584 Off ch=1 n=c#6 v=64
214590 Par ch=1 c=64 v=127
214600 Off ch=1 n=a#5 v=64
214636 Par ch=1 c=64 v=0
214656 On ch=1 n=f#3 v=90
214748 On ch=1 n=d#6 v=98
214752 On ch=1 n=d#5 v=101
214754 On ch=1 n=a#5 v=80
214758 Off ch=1 n=f#3 v=64
214780 On ch=1 n=a#4 v=92
214790 Par ch=1 c=64 v=127
214794 On ch=1 n=d#4 v=83
214850 Off ch=1 n=d#4 v=64
214870 Off ch=1 n=a#4 v=64
214890 Off ch=1 n=d#5 v=64
214920 Off ch=1 n=d#6 v=64
214934 Off ch=1 n=a#5 v=64
215072 On ch=1 n=c#6 v=93
215072 On ch=1 n=c#5 v=98
215212 Off ch=1 n=c#5 v=64
215254 Off ch=1 n=c#6 v=64
215374 On ch=1 n=c6 v=95
215377 On ch=1 n=c5 v=105
215382 On ch=1 n=g#4 v=95
215384 On ch=1 n=g#5 v=72
215386 On ch=1 n=d#4 v=84
215388 On ch=1 n=g#3 v=87
215388 On ch=1 n=f#5 v=60
215414 Off ch=1 n=g#4 v=64
215422 Off ch=1 n=d#4 v=64
215426 Off ch=1 n=g#3 v=64
215438 Off ch=1 n=f#5 v=64
215444 Off ch=1 n=c6 v=64
215458 Off ch=1 n=c5 v=64
215460 Off ch=1 n=g#5 v=64
215522 On ch=1 n=a#3 v=86
215524 On ch=1 n=a#4 v=92
215526 On ch=1 n=d#4 v=33
215528 On ch=1 n=c#6 v=92
215528 On ch=1 n=c#5 v=103
215534 On ch=1 n=g#5 v=63
215542 On ch=1 n=f#5 v=49
215580 Off ch=1 n=a#3 v=64
215594 Off ch=1 n=d#4 v=64
215598 Off ch=1 n=f#5 v=64
215616 Off ch=1 n=c#6 v=64
215626 Off ch=1 n=a#4 v=64
215638 Off ch=1 n=c#5 v=64
215652 Par ch=1 c=64 v=0
215666 Off ch=1 n=g#5 v=64
215692 On ch=1 n=g#5 v=58
215696 On ch=1 n=d#6 v=100
215698 On ch=1 n=d#5 v=101
215698 On ch=1 n=f#5 v=75
215702 On ch=1 n=c5 v=106
215710 On ch=1 n=d#4 v=31
215714 On ch=1 n=c4 v=67
215744 Off ch=1 n=g#5 v=64
215754 Off ch=1 n=c5 v=64
215760 Off ch=1 n=c4 v=64
215770 Off ch=1 n=d#4 v=64
215786 Off ch=1 n=d#5 v=64
215804 Par ch=1 c=64 v=127
215838 Off ch=1 n=f#5 v=64
215858 Off ch=1 n=d#6 v=64
215866 Par ch=1 c=64 v=0
216036 On ch=1 n=f6 v=106
216038 On ch=1 n=g#5 v=89
216042 On ch=1 n=f5 v=101
216044 On ch=1 n=c6 v=91
216048 On ch=1 n=g#4 v=97
216052 On ch=1 n=g#3 v=100
216062 On ch=1 n=d#4 v=84
216086 Off ch=1 n=g#3 v=64
216098 Off ch=1 n=d#4 v=64
216100 Off ch=1 n=g#4 v=64
216142 Par ch=1 c=64 v=127
216160 Off ch=1 n=f5 v=64
216163 Off ch=1 n=f6 v=64
216206 Off ch=1 n=c6 v=64
216230 Off ch=1 n=g#5 v=64
216312 Par ch=1 c=64 v=0
216530 On ch=1 n=g#5 v=88
216530 On ch=1 n=c#6 v=98
216530 On ch=1 n=c#5 v=101
216540 On ch=1 n=f5 v=91
216540 On ch=1 n=g#3 v=85
216542 On ch=1 n=c#4 v=88
216542 On ch=1 n=c#3 v=98
216580 Off ch=1 n=g#3 v=64
216580 Off ch=1 n=c#3 v=64
216588 Par ch=1 c=64 v=127
216598 Off ch=1 n=c#4 v=64
216662 Off ch=1 n=c#5 v=64
216710 Off ch=1 n=f5 v=64
216766 Off ch=1 n=g#5 v=64
216794 Off ch=1 n=c#6 v=64
217326 Par ch=1 c=64 v=0
218880 Par ch=1 c=64 v=0
218880 Meta TrkEnd
TrkEnd
