MFile 0 1 480
MTrk
0 SMPTE 96 0 0 0 0
0 TimeSig 4/4 24 8
0 KeySig 0 major
0 Tempo 500000
0 Par ch=1 c=64 v=127
0 Par ch=1 c=64 v=0
0 Par ch=1 c=64 v=127
0 Par ch=1 c=64 v=0
0 Par ch=1 c=64 v=127
0 On ch=1 n=f3 v=23
0 On ch=1 n=c4 v=20
230 On ch=1 n=f4 v=45
334 On ch=1 n=g#4 v=35
348 On ch=1 n=f5 v=31
388 Off ch=1 n=f4 v=64
440 Off ch=1 n=c4 v=64
462 Off ch=1 n=g#4 v=64
484 On ch=1 n=c5 v=32
578 Off ch=1 n=c5 v=64
610 Off ch=1 n=f5 v=64
614 On ch=1 n=c#5 v=40
618 On ch=1 n=e5 v=52
668 Par ch=1 c=64 v=0
748 On ch=1 n=a#4 v=31
778 Off ch=1 n=f3 v=64
806 Par ch=1 c=64 v=127
862 On ch=1 n=g4 v=35
928 Off ch=1 n=g4 v=64
942 Off ch=1 n=a#4 v=64
976 Off ch=1 n=c#5 v=64
990 On ch=1 n=e4 v=55
1006 Off ch=1 n=e5 v=64
1048 Off ch=1 n=e4 v=64
1130 On ch=1 n=c4 v=35
1156 On ch=1 n=f3 v=66
1190 Par ch=1 c=64 v=0
1290 On ch=1 n=f4 v=84
1374 Par ch=1 c=64 v=127
1386 Off ch=1 n=c4 v=64
1392 On ch=1 n=g#4 v=60
1400 Off ch=1 n=f4 v=64
1400 On ch=1 n=f5 v=67
1406 Off ch=1 n=f3 v=64
1520 On ch=1 n=c5 v=62
1524 Off ch=1 n=g#4 v=64
1648 Off ch=1 n=c5 v=64
1650 On ch=1 n=c#5 v=62
1650 On ch=1 n=e5 v=76
1666 Off ch=1 n=f5 v=64
1698 Par ch=1 c=64 v=0
1762 On ch=1 n=a#4 v=58
1792 Off ch=1 n=c#5 v=64
1828 Off ch=1 n=a#4 v=64
1836 Par ch=1 c=64 v=127
1874 Off ch=1 n=e5 v=64
1896 On ch=1 n=g4 v=38
1904 On ch=1 n=c5 v=84
1964 Off ch=1 n=g4 v=64
2048 On ch=1 n=e4 v=41
2102 Off ch=1 n=e4 v=64
2228 On ch=1 n=f3 v=25
2254 On ch=1 n=f5 v=79
2266 On ch=1 n=c4 v=44
2322 Off ch=1 n=c5 v=64
2358 Par ch=1 c=64 v=0
2455 Off ch=1 n=f3 v=64
2470 On ch=1 n=f4 v=90
2482 Par ch=1 c=64 v=127
2492 Off ch=1 n=c4 v=64
2522 On ch=1 n=g5 v=75
2586 Off ch=1 n=f4 v=64
2626 On ch=1 n=g#4 v=60
2668 Off ch=1 n=f5 v=64
2684 On ch=1 n=g#5 v=73
2742 On ch=1 n=c5 v=67
2756 Off ch=1 n=g#4 v=64
2778 Off ch=1 n=g5 v=64
2804 Off ch=1 n=c5 v=64
2844 On ch=1 n=c#5 v=62
2850 On ch=1 n=e5 v=57
2856 On ch=1 n=a#5 v=75
2912 Par ch=1 c=64 v=0
2920 Off ch=1 n=g#5 v=64
3012 Off ch=1 n=c#5 v=64
3026 On ch=1 n=a#4 v=46
3050 Par ch=1 c=64 v=127
3068 On ch=1 n=g#5 v=64
3100 Off ch=1 n=a#4 v=64
3156 Off ch=1 n=e5 v=64
3158 On ch=1 n=g4 v=30
3160 Off ch=1 n=a#5 v=64
3236 Off ch=1 n=g4 v=64
3256 On ch=1 n=e4 v=59
3272 On ch=1 n=g5 v=50
3294 Off ch=1 n=g#5 v=64
3302 Off ch=1 n=e4 v=64
3384 Off ch=1 n=g5 v=64
3450 On ch=1 n=f3 v=44
3474 On ch=1 n=c4 v=22
3526 Par ch=1 c=64 v=0
3630 On ch=1 n=f4 v=57
3708 Off ch=1 n=f4 v=64
3754 On ch=1 n=f5 v=44
3756 Par ch=1 c=64 v=127
3758 On ch=1 n=g#4 v=36
3772 Off ch=1 n=c4 v=64
3892 Off ch=1 n=g#4 v=64
3910 On ch=1 n=c5 v=38
3998 Off ch=1 n=c5 v=64
4040 On ch=1 n=e5 v=54
4044 On ch=1 n=c#5 v=41
4050 Off ch=1 n=f5 v=64
4078 Par ch=1 c=64 v=0
4176 On ch=1 n=a#4 v=29
4190 Off ch=1 n=f3 v=64
4232 Par ch=1 c=64 v=127
4296 On ch=1 n=g4 v=33
4322 Off ch=1 n=c#5 v=64
4344 Off ch=1 n=e5 v=64
4348 Off ch=1 n=a#4 v=64
4364 Off ch=1 n=g4 v=64
4392 On ch=1 n=c#4 v=55
4440 Off ch=1 n=c#4 v=64
4530 On ch=1 n=f3 v=50
4542 On ch=1 n=c4 v=55
4556 Par ch=1 c=64 v=0
4676 On ch=1 n=g4 v=60
4770 Par ch=1 c=64 v=127
4792 On ch=1 n=g#4 v=47
4798 On ch=1 n=f5 v=68
4802 Off ch=1 n=g4 v=64
4828 Off ch=1 n=f3 v=64
4878 Off ch=1 n=c4 v=64
4914 On ch=1 n=c5 v=69
4930 Off ch=1 n=g#4 v=64
4984 Off ch=1 n=f5 v=64
5018 On ch=1 n=f#3 v=70
5048 On ch=1 n=c4 v=48
5062 Off ch=1 n=c5 v=64
5078 Par ch=1 c=64 v=0
5160 On ch=1 n=g#4 v=70
5256 Off ch=1 n=c4 v=64
5292 Par ch=1 c=64 v=127
5296 On ch=1 n=a4 v=60
5298 On ch=1 n=d#5 v=74
5322 Off ch=1 n=g#4 v=64
5392 Off ch=1 n=f#3 v=64
5414 On ch=1 n=c5 v=66
5434 Off ch=1 n=a4 v=64
5470 Off ch=1 n=d#5 v=64
5516 On ch=1 n=g3 v=55
5536 Off ch=1 n=c5 v=64
5536 On ch=1 n=c4 v=51
5570 Par ch=1 c=64 v=0
5662 On ch=1 n=f#4 v=66
5780 Off ch=1 n=g3 v=64
5788 Off ch=1 n=c4 v=64
5798 On ch=1 n=g4 v=60
5802 On ch=1 n=d#5 v=68
5816 Par ch=1 c=64 v=127
5856 Off ch=1 n=f#4 v=64
5898 Off ch=1 n=g4 v=64
5944 On ch=1 n=c5 v=45
5968 Off ch=1 n=d#5 v=64
6066 Off ch=1 n=c5 v=64
6074 On ch=1 n=g3 v=49
6092 On ch=1 n=d4 v=58
6184 Par ch=1 c=64 v=0
6234 On ch=1 n=g4 v=52
6260 Off ch=1 n=d4 v=64
6272 Off ch=1 n=g3 v=64
6322 Par ch=1 c=64 v=127
6340 Off ch=1 n=g4 v=64
6386 On ch=1 n=g5 v=77
6398 On ch=1 n=b4 v=55
6460 Off ch=1 n=b4 v=64
6514 On ch=1 n=d5 v=56
6598 Off ch=1 n=d5 v=64
6674 On ch=1 n=c6 v=92
6674 Par ch=1 c=64 v=0
6680 On ch=1 n=c4 v=37
6708 On ch=1 n=g4 v=52
6738 Off ch=1 n=g5 v=64
6814 Off ch=1 n=c4 v=64
6834 Off ch=1 n=g4 v=64
6844 Par ch=1 c=64 v=127
6850 On ch=1 n=c5 v=66
6886 On ch=1 n=d6 v=98
6958 Off ch=1 n=c6 v=64
6982 Off ch=1 n=c5 v=64
6992 On ch=1 n=d#5 v=73
7034 On ch=1 n=d#6 v=90
7060 Off ch=1 n=d#5 v=64
7090 On ch=1 n=g5 v=74
7108 Off ch=1 n=d6 v=64
7136 Off ch=1 n=g5 v=64
7212 On ch=1 n=f6 v=95
7224 On ch=1 n=g#5 v=72
7230 On ch=1 n=b5 v=79
7260 Par ch=1 c=64 v=0
7280 Off ch=1 n=d#6 v=64
7352 Off ch=1 n=g#5 v=64
7378 On ch=1 n=f5 v=59
7398 Par ch=1 c=64 v=127
7420 On ch=1 n=d#6 v=73
7436 Off ch=1 n=f5 v=64
7470 Off ch=1 n=b5 v=64
7474 Off ch=1 n=f6 v=64
7490 On ch=1 n=d5 v=66
7560 Off ch=1 n=d5 v=64
7580 On ch=1 n=d6 v=83
7592 On ch=1 n=b4 v=43
7616 Off ch=1 n=d#6 v=64
7619 Off ch=1 n=d6 v=64
7646 Off ch=1 n=b4 v=64
7738 On ch=1 n=g4 v=76
7746 On ch=1 n=c4 v=54
7766 Par ch=1 c=64 v=0
7864 On ch=1 n=c5 v=64
7980 On ch=1 n=d#5 v=60
7983 Off ch=1 n=c5 v=64
7986 On ch=1 n=c6 v=55
7996 Par ch=1 c=64 v=127
8006 Off ch=1 n=g4 v=64
8076 Off ch=1 n=d#5 v=64
8110 On ch=1 n=g5 v=65
8228 Off ch=1 n=g5 v=64
8228 Par ch=1 c=64 v=0
8231 On ch=1 n=g#5 v=68
8238 On ch=1 n=b5 v=78
8268 Off ch=1 n=c6 v=64
8364 Off ch=1 n=c4 v=64
8372 Off ch=1 n=g#5 v=64
8378 On ch=1 n=f5 v=58
8412 Par ch=1 c=64 v=127
8488 Off ch=1 n=f5 v=64
8510 Off ch=1 n=b5 v=64
8524 On ch=1 n=d5 v=58
8560 On ch=1 n=g5 v=95
8600 Off ch=1 n=d5 v=64
8670 On ch=1 n=b4 v=57
8714 Off ch=1 n=b4 v=64
8814 Off ch=1 n=g5 v=64
8814 On ch=1 n=c4 v=63
8814 On ch=1 n=c6 v=93
8826 On ch=1 n=g4 v=61
8828 Par ch=1 c=64 v=0
8926 Off ch=1 n=c4 v=64
8954 Off ch=1 n=g4 v=64
8970 On ch=1 n=c5 v=70
8980 Par ch=1 c=64 v=127
9006 On ch=1 n=d6 v=95
9042 Off ch=1 n=c5 v=64
9086 Off ch=1 n=c6 v=64
9090 On ch=1 n=d#5 v=64
9154 On ch=1 n=d#6 v=88
9204 Off ch=1 n=d#5 v=64
9207 On ch=1 n=g5 v=67
9240 Off ch=1 n=d6 v=64
9252 Off ch=1 n=g5 v=64
9316 On ch=1 n=f6 v=94
9328 On ch=1 n=g#5 v=68
9332 On ch=1 n=b5 v=66
9348 Par ch=1 c=64 v=0
9390 Off ch=1 n=d#6 v=64
9450 Off ch=1 n=g#5 v=64
9482 On ch=1 n=f5 v=57
9488 Par ch=1 c=64 v=127
9510 On ch=1 n=d#6 v=69
9532 Off ch=1 n=b5 v=64
9554 Off ch=1 n=f5 v=64
9574 Off ch=1 n=f6 v=64
9610 On ch=1 n=d5 v=46
9654 On ch=1 n=b4 v=59
9660 Off ch=1 n=d5 v=64
9664 On ch=1 n=d6 v=81
9696 Off ch=1 n=b4 v=64
9700 Off ch=1 n=d#6 v=64
9700 Off ch=1 n=d6 v=64
9822 On ch=1 n=c4 v=56
9822 On ch=1 n=g4 v=74
9872 Par ch=1 c=64 v=0
9932 On ch=1 n=c5 v=67
10038 On ch=1 n=c6 v=73
10038 On ch=1 n=d#5 v=67
10062 Off ch=1 n=c5 v=64
10090 Off ch=1 n=g4 v=64
10102 Par ch=1 c=64 v=127
10156 Off ch=1 n=d#5 v=64
10174 On ch=1 n=g5 v=63
10270 Off ch=1 n=g5 v=64
10306 On ch=1 n=g#5 v=65
10306 On ch=1 n=b5 v=82
10309 Off ch=1 n=c6 v=64
10332 Par ch=1 c=64 v=0
10412 Off ch=1 n=c4 v=64
10438 On ch=1 n=f5 v=62
10446 Off ch=1 n=g#5 v=64
10486 Par ch=1 c=64 v=127
10500 Off ch=1 n=f5 v=64
10576 On ch=1 n=g5 v=94
10590 Off ch=1 n=b5 v=64
10596 On ch=1 n=d5 v=56
10678 Off ch=1 n=g5 v=64
10678 Off ch=1 n=d5 v=64
10718 On ch=1 n=b4 v=59
10764 Off ch=1 n=b4 v=64
10828 On ch=1 n=c6 v=90
10860 On ch=1 n=g4 v=60
10862 On ch=1 n=c4 v=68
10886 Par ch=1 c=64 v=0
10994 Off ch=1 n=c4 v=64
11000 Off ch=1 n=g4 v=64
11014 On ch=1 n=c5 v=71
11032 On ch=1 n=d#6 v=90
11038 Par ch=1 c=64 v=127
11132 Off ch=1 n=c6 v=64
11150 Off ch=1 n=c5 v=64
11158 On ch=1 n=d#5 v=70
11206 On ch=1 n=g6 v=102
11248 Off ch=1 n=d#6 v=64
11312 On ch=1 n=g5 v=57
11362 Off ch=1 n=d#5 v=64
11480 Off ch=1 n=g5 v=64
11480 On ch=1 n=c7 v=97
11504 On ch=1 n=c6 v=48
11548 Off ch=1 n=g6 v=64
11624 Off ch=1 n=c6 v=64
11653 On ch=1 n=g#5 v=67
11767 Off ch=1 n=g#5 v=64
11808 On ch=1 n=g5 v=43
11878 Off ch=1 n=g5 v=64
11950 On ch=1 n=d#5 v=51
11994 Off ch=1 n=d#5 v=64
12076 On ch=1 n=c5 v=65
12158 Off ch=1 n=c5 v=64
12192 On ch=1 n=g#4 v=60
12314 On ch=1 n=g4 v=70
12320 Off ch=1 n=g#4 v=64
12434 Off ch=1 n=g4 v=64
12442 On ch=1 n=d#4 v=50
12490 Off ch=1 n=d#4 v=64
12546 On ch=1 n=c4 v=59
12608 Off ch=1 n=c4 v=64
12636 Par ch=1 c=64 v=0
12654 On ch=1 n=g#3 v=64
12768 On ch=1 n=g3 v=51
12792 Off ch=1 n=g#3 v=64
12794 Off ch=1 n=c7 v=64
12806 Par ch=1 c=64 v=127
12845 Off ch=1 n=g3 v=64
12852 On ch=1 n=d#3 v=58
12974 Off ch=1 n=d#3 v=64
13014 On ch=1 n=g3 v=52
13017 On ch=1 n=c3 v=44
13020 Par ch=1 c=64 v=0
13164 On ch=1 n=c4 v=46
13214 Off ch=1 n=g3 v=64
13264 Off ch=1 n=c4 v=64
13268 On ch=1 n=d#4 v=49
13272 On ch=1 n=c5 v=53
13282 Par ch=1 c=64 v=127
13394 On ch=1 n=g4 v=54
13404 Off ch=1 n=d#4 v=64
13498 Par ch=1 c=64 v=0
13518 Off ch=1 n=g4 v=64
13522 On ch=1 n=g#4 v=50
13527 On ch=1 n=b4 v=54
13550 Off ch=1 n=c5 v=64
13642 Off ch=1 n=c3 v=64
13642 On ch=1 n=f4 v=67
13686 Off ch=1 n=g#4 v=64
13712 Par ch=1 c=64 v=127
13740 On ch=1 n=d4 v=55
13782 Off ch=1 n=f4 v=64
13802 Off ch=1 n=d4 v=64
13850 On ch=1 n=b3 v=60
13860 Off ch=1 n=b4 v=64
13894 Off ch=1 n=b3 v=64
13944 Par ch=1 c=64 v=0
13960 On ch=1 n=g3 v=36
13978 On ch=1 n=c3 v=57
14090 Off ch=1 n=g3 v=64
14108 On ch=1 n=c4 v=52
14170 Off ch=1 n=c4 v=64
14218 On ch=1 n=d#4 v=51
14220 On ch=1 n=c5 v=58
14342 Par ch=1 c=64 v=127
14354 On ch=1 n=g4 v=49
14356 Off ch=1 n=d#4 v=64
14460 Off ch=1 n=g4 v=64
14464 Par ch=1 c=64 v=0
14482 On ch=1 n=b4 v=51
14484 Off ch=1 n=c5 v=64
14484 On ch=1 n=g#4 v=48
14578 Off ch=1 n=g#4 v=64
14588 Off ch=1 n=c3 v=64
14600 On ch=1 n=f4 v=59
14728 Par ch=1 c=64 v=127
14728 On ch=1 n=d4 v=41
14754 Off ch=1 n=f4 v=64
14794 Off ch=1 n=d4 v=64
14816 On ch=1 n=g#3 v=67
14828 Off ch=1 n=b4 v=64
14872 Off ch=1 n=g#3 v=64
14880 Par ch=1 c=64 v=0
14942 On ch=1 n=c3 v=60
14952 On ch=1 n=g3 v=66
15072 On ch=1 n=d4 v=67
15156 Off ch=1 n=g3 v=64
15162 Off ch=1 n=c3 v=64
15178 On ch=1 n=d#4 v=56
15184 On ch=1 n=c5 v=61
15188 Par ch=1 c=64 v=127
15198 Off ch=1 n=d4 v=64
15294 On ch=1 n=g4 v=74
15310 Off ch=1 n=d#4 v=64
15352 Off ch=1 n=c5 v=64
15372 Par ch=1 c=64 v=0
15384 On ch=1 n=g#3 v=69
15390 On ch=1 n=c3 v=64
15426 Off ch=1 n=g4 v=64
15464 Off ch=1 n=c3 v=64
15526 On ch=1 n=e4 v=79
15572 Par ch=1 c=64 v=127
15606 Off ch=1 n=e4 v=64
15632 On ch=1 n=d5 v=83
15642 On ch=1 n=f4 v=94
15676 Off ch=1 n=g#3 v=64
15736 On ch=1 n=b4 v=80
15786 Par ch=1 c=64 v=0
15794 Off ch=1 n=d5 v=64
15794 Off ch=1 n=f4 v=64
15824 On ch=1 n=c3 v=68
15838 On ch=1 n=a3 v=62
15858 Off ch=1 n=b4 v=64
15868 Off ch=1 n=c3 v=64
15952 Off ch=1 n=a3 v=64
15952 On ch=1 n=f4 v=106
15956 Par ch=1 c=64 v=127
16056 Off ch=1 n=f4 v=64
16064 On ch=1 n=d#5 v=83
16064 On ch=1 n=f#4 v=73
16176 On ch=1 n=c5 v=78
16202 Off ch=1 n=f#4 v=64
16254 Off ch=1 n=d#5 v=64
16268 On ch=1 n=c3 v=71
16268 Par ch=1 c=64 v=0
16290 On ch=1 n=a#3 v=68
16314 Off ch=1 n=c5 v=64
16370 Off ch=1 n=c3 v=64
16444 On ch=1 n=e4 v=74
16448 Par ch=1 c=64 v=127
16448 On ch=1 n=e5 v=88
16450 On ch=1 n=g4 v=82
16518 Off ch=1 n=g4 v=64
16568 Off ch=1 n=e4 v=64
16596 On ch=1 n=c5 v=101
16624 Off ch=1 n=a#3 v=64
16640 Off ch=1 n=e5 v=64
16832 On ch=1 n=f3 v=67
16850 On ch=1 n=c4 v=53
16890 On ch=1 n=f5 v=97
16892 Par ch=1 c=64 v=0
16900 Off ch=1 n=c5 v=64
17046 Off ch=1 n=f3 v=64
17070 Off ch=1 n=c4 v=64
17092 Par ch=1 c=64 v=127
17094 On ch=1 n=f4 v=80
17122 On ch=1 n=g#5 v=90
17176 Off ch=1 n=f4 v=64
17188 Off ch=1 n=f5 v=64
17238 On ch=1 n=g#4 v=57
17308 On ch=1 n=c6 v=94
17356 Off ch=1 n=g#5 v=64
17378 On ch=1 n=c5 v=53
17442 Off ch=1 n=g#4 v=64
17518 Off ch=1 n=c5 v=64
17550 On ch=1 n=f5 v=44
17582 On ch=1 n=f6 v=91
17644 Off ch=1 n=c6 v=64
17656 Off ch=1 n=f5 v=64
17742 On ch=1 n=c5 v=41
17810 Off ch=1 n=c5 v=64
17850 On ch=1 n=g#4 v=41
17910 Off ch=1 n=g#4 v=64
17972 Off ch=1 n=f6 v=64
17994 On ch=1 n=f4 v=64
18062 Off ch=1 n=f4 v=64
18112 On ch=1 n=c4 v=59
18152 On ch=1 n=f3 v=37
18200 Par ch=1 c=64 v=0
18266 On ch=1 n=f4 v=81
18352 On ch=1 n=g#4 v=61
18366 On ch=1 n=f5 v=61
18382 Off ch=1 n=c4 v=64
18384 Off ch=1 n=f4 v=64
18398 Par ch=1 c=64 v=127
18456 Off ch=1 n=g#4 v=64
18488 On ch=1 n=c5 v=53
18578 Off ch=1 n=c5 v=64
18586 On ch=1 n=e5 v=84
18596 On ch=1 n=c#5 v=65
18610 Off ch=1 n=f5 v=64
18654 Off ch=1 n=f3 v=64
18662 On ch=1 n=a#4 v=70
18696 Off ch=1 n=c#5 v=64
18722 Off ch=1 n=a#4 v=64
18748 Off ch=1 n=e5 v=64
18800 On ch=1 n=c5 v=102
18814 On ch=1 n=g4 v=57
18876 Off ch=1 n=g4 v=64
18944 On ch=1 n=e4 v=48
18994 Off ch=1 n=e4 v=64
19064 On ch=1 n=f3 v=71
19074 On ch=1 n=c4 v=40
19090 Par ch=1 c=64 v=0
19140 Off ch=1 n=c5 v=64
19152 On ch=1 n=f5 v=95
19198 Off ch=1 n=f3 v=64
19258 Par ch=1 c=64 v=127
19270 Off ch=1 n=c4 v=64
19286 On ch=1 n=f4 v=76
19370 On ch=1 n=g#5 v=89
19394 Off ch=1 n=f4 v=64
19400 Off ch=1 n=f5 v=64
19428 On ch=1 n=g#4 v=55
19474 Off ch=1 n=g#5 v=64
19528 On ch=1 n=c6 v=95
19602 On ch=1 n=c5 v=54
19748 Off ch=1 n=c5 v=64
19798 Par ch=1 c=64 v=0
19806 On ch=1 n=g#6 v=91
19818 Off ch=1 n=c6 v=64
19838 On ch=1 n=f5 v=31
19946 Off ch=1 n=f5 v=64
19970 Off ch=1 n=g#4 v=64
19982 Par ch=1 c=64 v=127
20034 On ch=1 n=c5 v=32
20114 Off ch=1 n=c5 v=64
20188 On ch=1 n=g#4 v=31
20194 On ch=1 n=g6 v=88
20254 Off ch=1 n=g#4 v=64
20286 Off ch=1 n=g#6 v=64
20352 On ch=1 n=f4 v=28
20434 Off ch=1 n=f4 v=64
20510 On ch=1 n=f3 v=45
20518 On ch=1 n=f6 v=81
20540 Off ch=1 n=g6 v=64
20550 Par ch=1 c=64 v=0
20664 On ch=1 n=c#4 v=46
20692 Off ch=1 n=f3 v=64
20720 Par ch=1 c=64 v=127
20724 Off ch=1 n=c#4 v=64
20780 On ch=1 n=d#6 v=63
20808 On ch=1 n=f4 v=53
20862 Off ch=1 n=f6 v=64
20862 Off ch=1 n=f4 v=64
20906 On ch=1 n=g#4 v=47
21014 Off ch=1 n=g#4 v=64
21048 On ch=1 n=c#6 v=71
21056 On ch=1 n=f5 v=43
21116 Off ch=1 n=f5 v=64
21146 Off ch=1 n=d#6 v=64
21202 On ch=1 n=g#4 v=45
21252 Off ch=1 n=g#4 v=64
21326 On ch=1 n=c6 v=73
21334 Off ch=1 n=c#6 v=64
21346 On ch=1 n=f4 v=73
21396 Off ch=1 n=f4 v=64
21436 On ch=1 n=c#4 v=55
21498 Off ch=1 n=c#4 v=64
21578 On ch=1 n=g3 v=39
21588 On ch=1 n=a#5 v=78
21606 Off ch=1 n=c6 v=64
21610 Par ch=1 c=64 v=0
21720 On ch=1 n=a#4 v=44
21736 Off ch=1 n=g3 v=64
21810 Par ch=1 c=64 v=127
21846 On ch=1 n=c#5 v=58
21860 Off ch=1 n=a#4 v=64
21910 Off ch=1 n=c#5 v=64
21950 On ch=1 n=d#5 v=52
22002 Off ch=1 n=d#5 v=64
22088 On ch=1 n=g#5 v=69
22106 On ch=1 n=e5 v=52
22154 Off ch=1 n=a#5 v=64
22240 Par ch=1 c=64 v=0
22240 On ch=1 n=c#5 v=55
22318 Off ch=1 n=e5 v=64
22338 On ch=1 n=g#4 v=38
22394 Par ch=1 c=64 v=127
22454 Off ch=1 n=c#5 v=64
22458 On ch=1 n=g#3 v=43
22502 Off ch=1 n=g#4 v=64
22600 Off ch=1 n=g#3 v=64
22608 Par ch=1 c=64 v=0
22610 On ch=1 n=g5 v=62
22628 On ch=1 n=a#3 v=24
22742 Off ch=1 n=g#5 v=64
22778 On ch=1 n=a#4 v=25
22876 On ch=1 n=c#5 v=40
22962 Par ch=1 c=64 v=127
23010 Off ch=1 n=c#5 v=64
23012 On ch=1 n=d#5 v=34
23072 Off ch=1 n=a#3 v=64
23080 Off ch=1 n=d#5 v=64
23110 Off ch=1 n=a#4 v=64
23172 Off ch=1 n=g5 v=64
23178 On ch=1 n=e5 v=44
23240 Off ch=1 n=e5 v=64
23340 On ch=1 n=c#5 v=69
23454 On ch=1 n=a#4 v=27
23532 Off ch=1 n=a#4 v=64
23634 On ch=1 n=g4 v=33
23704 Off ch=1 n=g4 v=64
23760 Par ch=1 c=64 v=0
23828 On ch=1 n=e4 v=39
23841 On ch=1 n=a3 v=34
23976 Par ch=1 c=64 v=127
23990 Off ch=1 n=e4 v=64
24029 Off ch=1 n=a3 v=64
24050 On ch=1 n=g4 v=30
24094 On ch=1 n=e5 v=58
24112 Off ch=1 n=c#5 v=64
24130 Off ch=1 n=g4 v=64
24230 Off ch=1 n=e5 v=64
24242 On ch=1 n=a4 v=20
24298 On ch=1 n=g5 v=52
24336 Off ch=1 n=a4 v=64
24402 On ch=1 n=c#5 v=33
24516 Off ch=1 n=c#5 v=64
24550 Off ch=1 n=g5 v=64
24612 On ch=1 n=g6 v=59
24640 On ch=1 n=e5 v=28
24718 Off ch=1 n=e5 v=64
24816 On ch=1 n=c#5 v=20
24898 Off ch=1 n=c#5 v=64
24960 On ch=1 n=a4 v=26
24964 On ch=1 n=f#6 v=48
25024 Off ch=1 n=a4 v=64
25058 Off ch=1 n=g6 v=64
25116 On ch=1 n=g4 v=17
25176 Off ch=1 n=g4 v=64
25260 On ch=1 n=e6 v=47
25272 On ch=1 n=a3 v=23
25274 On ch=1 n=e4 v=34
25296 Off ch=1 n=f#6 v=64
25338 Off ch=1 n=e4 v=64
25350 Off ch=1 n=a3 v=64
25436 On ch=1 n=g4 v=26
25470 Off ch=1 n=e6 v=64
25504 Off ch=1 n=g4 v=64
25504 On ch=1 n=d6 v=47
25544 On ch=1 n=a4 v=31
25618 Off ch=1 n=a4 v=64
25660 On ch=1 n=c#5 v=52
25716 Off ch=1 n=c#5 v=64
25760 On ch=1 n=c#6 v=47
25792 On ch=1 n=e5 v=40
25804 Off ch=1 n=d6 v=64
25854 Off ch=1 n=e5 v=64
25894 On ch=1 n=c#5 v=48
25954 Off ch=1 n=c#5 v=64
26018 On ch=1 n=a4 v=28
26032 On ch=1 n=b5 v=63
26090 Off ch=1 n=a4 v=64
26106 Off ch=1 n=c#6 v=64
26109 Off ch=1 n=b5 v=64
26128 On ch=1 n=g4 v=52
26276 Off ch=1 n=g4 v=64
26308 On ch=1 n=f#4 v=56
26316 On ch=1 n=a3 v=41
26320 On ch=1 n=a5 v=48
26374 Par ch=1 c=64 v=0
26482 On ch=1 n=a4 v=48
26618 On ch=1 n=d5 v=50
26618 Par ch=1 c=64 v=127
26634 Off ch=1 n=a4 v=64
26682 Off ch=1 n=d5 v=64
26685 Off ch=1 n=f#4 v=64
26736 On ch=1 n=f#5 v=38
26768 Off ch=1 n=a5 v=64
26866 On ch=1 n=g5 v=65
26878 Off ch=1 n=f#5 v=64
26890 On ch=1 n=e5 v=51
26926 Par ch=1 c=64 v=0
27012 On ch=1 n=c#5 v=49
27034 Off ch=1 n=a3 v=64
27060 Off ch=1 n=e5 v=64
27100 On ch=1 n=a4 v=41
27126 Par ch=1 c=64 v=127
27172 Off ch=1 n=a4 v=64
27226 Off ch=1 n=c#5 v=64
27234 On ch=1 n=g4 v=51
27290 Off ch=1 n=g4 v=64
27356 Par ch=1 c=64 v=0
27418 On ch=1 n=a3 v=42
27424 On ch=1 n=f#4 v=52
27427 On ch=1 n=f#5 v=55
27470 Off ch=1 n=g5 v=64
27590 On ch=1 n=a4 v=36
27666 Off ch=1 n=f#4 v=64
27712 On ch=1 n=c5 v=44
27722 Off ch=1 n=a4 v=64
27740 Par ch=1 c=64 v=127
27826 Off ch=1 n=c5 v=64
27848 On ch=1 n=d5 v=39
27990 On ch=1 n=d#5 v=46
28006 Off ch=1 n=d5 v=64
28018 Par ch=1 c=64 v=0
28148 On ch=1 n=c5 v=38
28168 Off ch=1 n=d#5 v=64
28216 Par ch=1 c=64 v=127
28226 Off ch=1 n=a3 v=64
28304 Off ch=1 n=c5 v=64
28328 On ch=1 n=a4 v=8
28425 On ch=1 n=f#4 v=8
28428 Off ch=1 n=a4 v=64
28525 Off ch=1 n=f#4 v=64
28666 On ch=1 n=a#3 v=39
28706 Off ch=1 n=f#5 v=64
28708 Par ch=1 c=64 v=0
28746 On ch=1 n=d#4 v=3
28942 On ch=1 n=f#4 v=37
29056 On ch=1 n=f#5 v=34
29059 On ch=1 n=a#4 v=30
29096 Off ch=1 n=f#4 v=64
29170 Off ch=1 n=d#4 v=64
29186 Par ch=1 c=64 v=127
29194 On ch=1 n=d#5 v=44
29220 Off ch=1 n=a#4 v=64
29282 Off ch=1 n=d#5 v=64
29338 On ch=1 n=f5 v=35
29344 On ch=1 n=d5 v=15
29370 Par ch=1 c=64 v=0
29373 Off ch=1 n=f#5 v=64
29454 On ch=1 n=b4 v=45
29496 Off ch=1 n=d5 v=64
29560 On ch=1 n=g#4 v=27
29568 Par ch=1 c=64 v=127
29592 Off ch=1 n=b4 v=64
29628 Off ch=1 n=a#3 v=64
29664 Off ch=1 n=g#4 v=64
29676 On ch=1 n=f4 v=61
29728 Off ch=1 n=f5 v=64
29736 Off ch=1 n=f4 v=64
29818 On ch=1 n=a#3 v=48
29842 On ch=1 n=d#4 v=41
29846 Par ch=1 c=64 v=0
29976 On ch=1 n=f#4 v=58
30092 On ch=1 n=f#5 v=62
30095 On ch=1 n=a#4 v=52
30110 Off ch=1 n=f#4 v=64
30138 Par ch=1 c=64 v=127
30170 Off ch=1 n=d#4 v=64
30238 On ch=1 n=d#5 v=61
30266 Off ch=1 n=a#4 v=64
30348 Off ch=1 n=d#5 v=64
30386 On ch=1 n=f5 v=72
30386 On ch=1 n=d5 v=63
30424 Off ch=1 n=f#5 v=64
30430 Par ch=1 c=64 v=0
30534 Off ch=1 n=d5 v=64
30534 On ch=1 n=b4 v=64
30584 Par ch=1 c=64 v=127
30587 Off ch=1 n=b4 v=64
30632 Off ch=1 n=f5 v=64
30760 On ch=1 n=a#4 v=89
30760 On ch=1 n=a#5 v=90
30768 On ch=1 n=g#4 v=55
30848 Off ch=1 n=a#3 v=64
30862 Off ch=1 n=a#4 v=64
30862 Off ch=1 n=a#5 v=64
30934 On ch=1 n=f4 v=84
31058 Off ch=1 n=f4 v=64
31110 On ch=1 n=d#5 v=100
31110 On ch=1 n=d#6 v=97
31138 On ch=1 n=a#3 v=59
31198 Off ch=1 n=g#4 v=64
31236 Off ch=1 n=d#5 v=64
31254 Off ch=1 n=d#6 v=64
31314 On ch=1 n=d#4 v=57
31340 On ch=1 n=f6 v=102
31344 On ch=1 n=f5 v=98
31418 Off ch=1 n=f5 v=64
31424 Off ch=1 n=f6 v=64
31456 On ch=1 n=f#4 v=65
31526 On ch=1 n=f#5 v=87
31526 On ch=1 n=f#6 v=95
31590 On ch=1 n=c5 v=71
31624 Off ch=1 n=f#4 v=64
31624 Off ch=1 n=f#5 v=64
31632 Off ch=1 n=f#6 v=64
31660 Off ch=1 n=c5 v=64
31700 On ch=1 n=f#6 v=84
31708 On ch=1 n=a5 v=79
31712 On ch=1 n=f#5 v=75
31712 On ch=1 n=d#6 v=85
31712 On ch=1 n=c6 v=78
31720 Par ch=1 c=64 v=0
31732 On ch=1 n=c5 v=69
31798 Off ch=1 n=d#4 v=64
31854 Off ch=1 n=c5 v=64
31874 Par ch=1 c=64 v=127
31874 On ch=1 n=f#4 v=69
31918 Off ch=1 n=a#3 v=64
31998 On ch=1 n=d#4 v=58
32008 Off ch=1 n=f#4 v=64
32068 On ch=1 n=a#3 v=53
32130 Off ch=1 n=d#4 v=64
32134 Off ch=1 n=a#3 v=64
32232 On ch=1 n=a#3 v=64
32368 On ch=1 n=d#4 v=70
32442 Off ch=1 n=a#3 v=64
32496 On ch=1 n=f#4 v=81
32556 Off ch=1 n=a5 v=64
32568 Off ch=1 n=d#4 v=64
32626 On ch=1 n=c5 v=71
32630 Off ch=1 n=f#4 v=64
32634 Off ch=1 n=f#5 v=64
32636 Off ch=1 n=f#6 v=64
32676 Off ch=1 n=c5 v=64
32722 Off ch=1 n=d#6 v=64
32736 On ch=1 n=f6 v=98
32744 On ch=1 n=f5 v=81
32754 Off ch=1 n=c6 v=64
32768 On ch=1 n=c5 v=58
32872 Off ch=1 n=f5 v=64
32884 Off ch=1 n=f6 v=64
32910 On ch=1 n=f#4 v=73
32932 Off ch=1 n=c5 v=64
33004 On ch=1 n=d#5 v=100
33006 On ch=1 n=d#6 v=95
33052 On ch=1 n=d#4 v=61
33058 Off ch=1 n=f#4 v=64
33096 Off ch=1 n=d#5 v=64
33112 Off ch=1 n=d#6 v=64
33170 On ch=1 n=a#3 v=45
33196 Off ch=1 n=d#4 v=64
33222 Off ch=1 n=a#3 v=64
33288 Par ch=1 c=64 v=0
33314 On ch=1 n=a#6 v=92
33316 On ch=1 n=a#5 v=83
33330 On ch=1 n=a#3 v=25
33344 On ch=1 n=d#4 v=54
33456 Par ch=1 c=64 v=127
33466 Off ch=1 n=a#6 v=64
33496 Off ch=1 n=d#4 v=64
33504 On ch=1 n=f#4 v=55
33507 Off ch=1 n=a#5 v=64
33636 Off ch=1 n=f#4 v=64
33670 On ch=1 n=a#4 v=66
33678 On ch=1 n=f#5 v=67
33760 Off ch=1 n=a#4 v=64
33814 On ch=1 n=d#5 v=49
33928 Off ch=1 n=d#5 v=64
33960 On ch=1 n=d5 v=48
33960 On ch=1 n=f5 v=60
33994 Par ch=1 c=64 v=0
34006 Off ch=1 n=f#5 v=64
34094 On ch=1 n=b4 v=57
34170 Off ch=1 n=d5 v=64
34178 Par ch=1 c=64 v=127
34204 On ch=1 n=g#4 v=48
34208 Off ch=1 n=a#3 v=64
34236 Off ch=1 n=b4 v=64
34304 Off ch=1 n=f5 v=64
34306 Off ch=1 n=g#4 v=64
34330 On ch=1 n=f4 v=69
34398 Off ch=1 n=f4 v=64
34432 On ch=1 n=a#3 v=45
34454 On ch=1 n=d#4 v=49
34502 Par ch=1 c=64 v=0
34562 On ch=1 n=f#4 v=75
34684 On ch=1 n=a#4 v=57
34687 On ch=1 n=f#5 v=64
34702 Off ch=1 n=f#4 v=64
34716 Par ch=1 c=64 v=127
34770 Off ch=1 n=d#4 v=64
34808 On ch=1 n=d#5 v=62
34832 Off ch=1 n=a#4 v=64
34922 On ch=1 n=f5 v=66
34944 Off ch=1 n=f#5 v=64
34944 On ch=1 n=d5 v=64
34962 Par ch=1 c=64 v=0
34964 Off ch=1 n=d#5 v=64
35064 On ch=1 n=b4 v=57
35092 Off ch=1 n=f5 v=64
35094 Off ch=1 n=d5 v=64
35100 Par ch=1 c=64 v=127
35110 Off ch=1 n=b4 v=64
35188 On ch=1 n=b5 v=107
35196 On ch=1 n=b4 v=72
35198 Off ch=1 n=a#3 v=64
35208 On ch=1 n=g#4 v=62
35310 Off ch=1 n=b4 v=64
35344 Off ch=1 n=b5 v=64
35358 On ch=1 n=f4 v=86
35508 Off ch=1 n=f4 v=64
35512 Off ch=1 n=g#4 v=64
35530 On ch=1 n=a#3 v=71
35568 On ch=1 n=d#6 v=100
35570 On ch=1 n=d#5 v=104
35650 Off ch=1 n=d#5 v=64
35684 Off ch=1 n=d#6 v=64
35728 On ch=1 n=d#4 v=75
35814 On ch=1 n=f5 v=105
35814 On ch=1 n=f6 v=106
35890 Off ch=1 n=f6 v=64
35904 On ch=1 n=f#4 v=76
35914 Off ch=1 n=f5 v=64
35994 On ch=1 n=f#6 v=97
35994 On ch=1 n=f#5 v=97
36068 On ch=1 n=a4 v=59
36076 On ch=1 n=b4 v=79
36114 Off ch=1 n=f#6 v=64
36122 Off ch=1 n=f#5 v=64
36128 Off ch=1 n=b4 v=64
36142 Off ch=1 n=a4 v=64
36164 Off ch=1 n=f#4 v=64
36186 On ch=1 n=f#6 v=84
36194 On ch=1 n=f#5 v=89
36197 On ch=1 n=a5 v=79
36202 On ch=1 n=d#6 v=88
36206 On ch=1 n=b5 v=83
36222 Par ch=1 c=64 v=0
36224 On ch=1 n=a4 v=57
36224 On ch=1 n=b4 v=77
36326 Off ch=1 n=d#4 v=64
36380 On ch=1 n=f#4 v=80
36406 Par ch=1 c=64 v=127
36440 Off ch=1 n=a#3 v=64
36464 Off ch=1 n=b4 v=64
36472 Off ch=1 n=a4 v=64
36508 On ch=1 n=d#4 v=69
36554 Off ch=1 n=f#4 v=64
36592 On ch=1 n=a#3 v=63
36634 Off ch=1 n=d#4 v=64
36652 Off ch=1 n=a#3 v=64
36754 On ch=1 n=a#3 v=64
36882 On ch=1 n=d#4 v=76
36996 On ch=1 n=f#4 v=84
36998 Off ch=1 n=b5 v=64
37002 Off ch=1 n=a5 v=64
37012 Off ch=1 n=a#3 v=64
37092 Off ch=1 n=f#6 v=64
37102 Off ch=1 n=d#4 v=64
37104 Off ch=1 n=f#5 v=64
37104 On ch=1 n=a4 v=58
37112 On ch=1 n=b4 v=84
37140 Off ch=1 n=f#4 v=64
37156 Off ch=1 n=b4 v=64
37162 Off ch=1 n=a4 v=64
37192 Off ch=1 n=d#6 v=64
37222 On ch=1 n=f6 v=104
37222 On ch=1 n=f5 v=94
37258 On ch=1 n=a4 v=49
37261 On ch=1 n=b4 v=42
37274 On ch=1 n=g5 v=22
37324 Off ch=1 n=g5 v=64
37327 Off ch=1 n=f5 v=64
37346 Off ch=1 n=f6 v=64
37406 On ch=1 n=f#4 v=72
37516 On ch=1 n=d#4 v=62
37518 On ch=1 n=d#5 v=103
37518 On ch=1 n=d#6 v=100
37530 Off ch=1 n=f#4 v=64
37594 Off ch=1 n=d#5 v=64
37636 Off ch=1 n=b4 v=64
37639 Off ch=1 n=a4 v=64
37642 Off ch=1 n=d#6 v=64
37680 On ch=1 n=a#3 v=56
37780 Off ch=1 n=d#4 v=64
37798 Off ch=1 n=a#3 v=64
37852 Par ch=1 c=64 v=0
37864 On ch=1 n=d#7 v=95
37868 On ch=1 n=d#6 v=78
37874 On ch=1 n=f#6 v=75
37876 On ch=1 n=a#6 v=64
37880 On ch=1 n=a#3 v=55
37890 On ch=1 n=d#4 v=48
38048 Off ch=1 n=d#7 v=64
38051 Par ch=1 c=64 v=127
38100 Off ch=1 n=a#6 v=64
38114 On ch=1 n=f#4 v=58
38116 Off ch=1 n=f#6 v=64
38120 Off ch=1 n=d#6 v=64
38282 Off ch=1 n=f#4 v=64
38296 On ch=1 n=f#5 v=66
38296 On ch=1 n=a#4 v=59
38334 Off ch=1 n=d#4 v=64
38362 Off ch=1 n=a#4 v=64
38434 On ch=1 n=d#5 v=61
38586 Off ch=1 n=d#5 v=64
38598 On ch=1 n=f5 v=58
38604 On ch=1 n=d5 v=48
38650 Off ch=1 n=f#5 v=64
38680 Par ch=1 c=64 v=0
38726 On ch=1 n=b4 v=59
38794 Off ch=1 n=d5 v=64
38840 On ch=1 n=g#4 v=46
38864 Par ch=1 c=64 v=127
38870 Off ch=1 n=b4 v=64
38878 Off ch=1 n=a#3 v=64
38932 Off ch=1 n=f5 v=64
38957 Off ch=1 n=g#4 v=64
38962 On ch=1 n=f4 v=70
39042 Off ch=1 n=f4 v=64
39074 On ch=1 n=a#3 v=41
39090 On ch=1 n=d#4 v=43
39110 Par ch=1 c=64 v=0
39200 On ch=1 n=f#4 v=55
39300 Off ch=1 n=f#4 v=64
39318 On ch=1 n=a#4 v=37
39332 On ch=1 n=f#5 v=44
39340 Par ch=1 c=64 v=127
39350 Off ch=1 n=d#4 v=64
39464 On ch=1 n=d#5 v=39
39476 Off ch=1 n=a#4 v=64
39546 Off ch=1 n=d#5 v=64
39578 On ch=1 n=f5 v=39
39600 On ch=1 n=d5 v=32
39616 Off ch=1 n=f#5 v=64
39616 Par ch=1 c=64 v=0
39732 On ch=1 n=b4 v=54
39762 Off ch=1 n=d5 v=64
39802 Par ch=1 c=64 v=127
39854 Off ch=1 n=b4 v=64
39900 On ch=1 n=g#4 v=37
39902 On ch=1 n=a#5 v=66
39932 Off ch=1 n=f5 v=64
40012 Off ch=1 n=a#3 v=64
40100 On ch=1 n=f4 v=45
40126 Off ch=1 n=g#4 v=64
40180 Off ch=1 n=f4 v=64
40244 On ch=1 n=a#3 v=41
40264 Par ch=1 c=64 v=0
40446 On ch=1 n=d#4 v=36
40462 Par ch=1 c=64 v=127
40542 Off ch=1 n=a#3 v=64
40572 On ch=1 n=d#6 v=73
40632 On ch=1 n=f#4 v=42
40640 Off ch=1 n=d#4 v=64
40696 Off ch=1 n=a#5 v=64
40696 Off ch=1 n=f#4 v=64
40750 On ch=1 n=d#5 v=53
40814 Off ch=1 n=d#5 v=64
40960 On ch=1 n=f#6 v=78
40976 On ch=1 n=d#5 v=55
41032 Off ch=1 n=d#6 v=64
41054 Off ch=1 n=d#5 v=64
41142 On ch=1 n=f#4 v=58
41204 Off ch=1 n=f#4 v=64
41276 On ch=1 n=f6 v=88
41306 On ch=1 n=d#4 v=23
41378 Off ch=1 n=f#6 v=64
41390 Off ch=1 n=d#4 v=64
41390 On ch=1 n=a#3 v=40
41452 Off ch=1 n=a#3 v=64
41554 Par ch=1 c=64 v=0
41572 On ch=1 n=b3 v=55
41575 On ch=1 n=d#6 v=76
41684 Off ch=1 n=f6 v=64
41734 On ch=1 n=d#4 v=52
41754 Par ch=1 c=64 v=127
41786 Off ch=1 n=b3 v=64
41862 On ch=1 n=c#6 v=76
41865 On ch=1 n=f#4 v=57
41878 Off ch=1 n=d#4 v=64
41924 Off ch=1 n=f#4 v=64
41964 Off ch=1 n=d#6 v=64
41992 On ch=1 n=d#5 v=50
42042 Off ch=1 n=d#5 v=64
42132 On ch=1 n=b5 v=88
42142 On ch=1 n=d#5 v=32
42152 Off ch=1 n=c#6 v=64
42236 Off ch=1 n=d#5 v=64
42300 On ch=1 n=f#4 v=44
42364 Off ch=1 n=f#4 v=64
42400 On ch=1 n=d#4 v=42
42400 On ch=1 n=a#5 v=78
42422 Off ch=1 n=b5 v=64
42498 Off ch=1 n=d#4 v=64
42498 On ch=1 n=b3 v=30
42504 Off ch=1 n=a#5 v=64
42568 Off ch=1 n=b3 v=64
42698 On ch=1 n=f3 v=51
42704 On ch=1 n=c#4 v=31
42718 On ch=1 n=g#5 v=72
42860 Par ch=1 c=64 v=0
42866 On ch=1 n=g#4 v=46
43004 On ch=1 n=b4 v=57
43060 Par ch=1 c=64 v=127
43066 Off ch=1 n=g#4 v=64
43110 On ch=1 n=c#5 v=56
43130 Off ch=1 n=b4 v=64
43144 Off ch=1 n=c#4 v=64
43164 Off ch=1 n=c#5 v=64
43242 On ch=1 n=f#5 v=71
43260 On ch=1 n=d5 v=51
43358 Off ch=1 n=g#5 v=64
43386 On ch=1 n=b4 v=56
43388 Par ch=1 c=64 v=0
43400 Off ch=1 n=d5 v=64
43480 On ch=1 n=f#4 v=61
43566 Par ch=1 c=64 v=127
43608 On ch=1 n=f#3 v=56
43622 Off ch=1 n=b4 v=64
43642 Off ch=1 n=f3 v=64
43648 Off ch=1 n=f#4 v=64
43770 On ch=1 n=g#3 v=51
43773 Off ch=1 n=f#3 v=64
43773 On ch=1 n=f5 v=70
43812 Par ch=1 c=64 v=0
43870 Off ch=1 n=f#5 v=64
43940 On ch=1 n=g#4 v=54
44078 On ch=1 n=b4 v=55
44140 Off ch=1 n=g#4 v=64
44180 Par ch=1 c=64 v=127
44208 On ch=1 n=c#5 v=45
44232 Off ch=1 n=b4 v=64
44388 On ch=1 n=d5 v=56
44408 Off ch=1 n=c#5 v=64
44444 Off ch=1 n=f5 v=64
44550 Par ch=1 c=64 v=0
44574 On ch=1 n=b4 v=72
44722 Off ch=1 n=d5 v=64
44760 On ch=1 n=g#4 v=33
44762 Off ch=1 n=g#3 v=64
44766 Par ch=1 c=64 v=127
44876 Off ch=1 n=g#4 v=64
44974 On ch=1 n=f4 v=51
45030 Off ch=1 n=f4 v=64
45160 On ch=1 n=g3 v=38
45160 On ch=1 n=d4 v=39
45164 Par ch=1 c=64 v=0
45350 Off ch=1 n=g3 v=64
45364 Par ch=1 c=64 v=127
45398 On ch=1 n=f4 v=60
45400 On ch=1 n=d5 v=70
45420 Off ch=1 n=d4 v=64
45434 Off ch=1 n=b4 v=64
45510 Off ch=1 n=f4 v=64
45596 On ch=1 n=g4 v=35
45620 Off ch=1 n=d5 v=64
45642 On ch=1 n=f5 v=66
45666 Off ch=1 n=g4 v=64
45760 On ch=1 n=b4 v=33
45832 Off ch=1 n=b4 v=64
45906 Off ch=1 n=f5 v=64
45944 On ch=1 n=d5 v=43
45958 On ch=1 n=f6 v=72
46016 Off ch=1 n=d5 v=64
46140 On ch=1 n=b4 v=34
46194 Off ch=1 n=b4 v=64
46294 On ch=1 n=e6 v=56
46300 On ch=1 n=g4 v=40
46424 Off ch=1 n=g4 v=64
46460 On ch=1 n=f4 v=44
46480 Off ch=1 n=f6 v=64
46518 Off ch=1 n=f4 v=64
46586 On ch=1 n=g3 v=57
46600 On ch=1 n=d4 v=40
46603 On ch=1 n=d6 v=63
46654 Off ch=1 n=g3 v=64
46694 Off ch=1 n=e6 v=64
46746 Off ch=1 n=d4 v=64
46768 On ch=1 n=f4 v=62
46822 Off ch=1 n=f4 v=64
46860 On ch=1 n=g4 v=53
46892 On ch=1 n=c6 v=66
46930 Off ch=1 n=g4 v=64
46976 Off ch=1 n=d6 v=64
47012 On ch=1 n=b4 v=28
47080 Off ch=1 n=b4 v=64
47140 On ch=1 n=b5 v=80
47150 Off ch=1 n=c6 v=64
47156 On ch=1 n=d5 v=28
47220 Off ch=1 n=d5 v=64
47274 On ch=1 n=b4 v=43
47322 Off ch=1 n=b4 v=64
47404 On ch=1 n=a5 v=66
47418 On ch=1 n=g4 v=59
47421 Off ch=1 n=b5 v=64
47492 Off ch=1 n=g4 v=64
47546 On ch=1 n=f4 v=66
47584 Off ch=1 n=a5 v=64
47594 Off ch=1 n=f4 v=64
47690 On ch=1 n=e4 v=65
47706 On ch=1 n=g5 v=70
47714 On ch=1 n=g3 v=28
47776 Par ch=1 c=64 v=0
47866 On ch=1 n=g4 v=59
47988 Off ch=1 n=g4 v=64
47990 On ch=1 n=c5 v=55
48038 Par ch=1 c=64 v=127
48042 Off ch=1 n=e4 v=64
48096 On ch=1 n=e5 v=55
48122 Off ch=1 n=c5 v=64
48222 Off ch=1 n=e5 v=64
48232 On ch=1 n=d5 v=56
48240 On ch=1 n=f5 v=69
48284 Par ch=1 c=64 v=0
48287 Off ch=1 n=g5 v=64
48312 Off ch=1 n=d5 v=64
48376 On ch=1 n=b4 v=47
48404 Off ch=1 n=g3 v=64
48422 Par ch=1 c=64 v=127
48468 On ch=1 n=g#4 v=53
48552 Off ch=1 n=b4 v=64
48588 Off ch=1 n=g#4 v=64
48630 On ch=1 n=f4 v=59
48682 Off ch=1 n=f4 v=64
48786 On ch=1 n=e5 v=65
48792 Par ch=1 c=64 v=0
48793 On ch=1 n=c4 v=31
48804 On ch=1 n=e4 v=39
48858 Off ch=1 n=f5 v=64
48946 On ch=1 n=g4 v=37
49068 On ch=1 n=a#4 v=37
49112 Off ch=1 n=g4 v=64
49176 Par ch=1 c=64 v=127
49224 Off ch=1 n=e4 v=64
49238 On ch=1 n=c5 v=42
49240 Off ch=1 n=a#4 v=64
49400 On ch=1 n=c#5 v=45
49410 Off ch=1 n=c5 v=64
49556 On ch=1 n=a#4 v=27
49602 Off ch=1 n=c#5 v=64
49742 Off ch=1 n=a#4 v=64
49742 On ch=1 n=g4 v=54
49769 Off ch=1 n=c4 v=64
49814 Off ch=1 n=g4 v=64
49938 On ch=1 n=e4 v=47
49990 Off ch=1 n=e4 v=64
50162 Off ch=1 n=e5 v=64
50164 On ch=1 n=f3 v=49
50168 On ch=1 n=c4 v=44
50204 Par ch=1 c=64 v=0
50358 On ch=1 n=f4 v=68
50494 On ch=1 n=f5 v=52
50500 On ch=1 n=g#4 v=47
50504 Off ch=1 n=f4 v=64
50554 Off ch=1 n=c4 v=64
50558 Par ch=1 c=64 v=127
50632 Off ch=1 n=g#4 v=64
50632 On ch=1 n=c5 v=48
50762 On ch=1 n=e5 v=63
50762 On ch=1 n=c#5 v=56
50765 Off ch=1 n=c5 v=64
50790 Off ch=1 n=f5 v=64
50820 Par ch=1 c=64 v=0
50864 On ch=1 n=a#4 v=47
50912 Off ch=1 n=f3 v=64
50958 Par ch=1 c=64 v=127
51006 On ch=1 n=g4 v=54
51064 Off ch=1 n=a#4 v=64
51066 Off ch=1 n=g4 v=64
51136 Off ch=1 n=c#5 v=64
51136 On ch=1 n=e4 v=49
51182 Off ch=1 n=e4 v=64
51200 Off ch=1 n=e5 v=64
51230 On ch=1 n=c4 v=27
51272 On ch=1 n=f3 v=80
51280 Par ch=1 c=64 v=0
51410 On ch=1 n=f4 v=73
51494 Off ch=1 n=f4 v=64
51494 Par ch=1 c=64 v=127
51510 Off ch=1 n=c4 v=64
51520 On ch=1 n=f5 v=72
51522 On ch=1 n=g#4 v=53
51648 On ch=1 n=c5 v=59
51651 Off ch=1 n=g#4 v=64
51788 On ch=1 n=c#5 v=65
51788 On ch=1 n=e5 v=80
51794 Off ch=1 n=c5 v=64
51802 Par ch=1 c=64 v=0
51826 Off ch=1 n=f5 v=64
51872 Off ch=1 n=f3 v=64
51888 On ch=1 n=a#4 v=54
51932 Off ch=1 n=c#5 v=64
51940 Par ch=1 c=64 v=127
51968 Off ch=1 n=a#4 v=64
52004 On ch=1 n=g4 v=44
52007 Off ch=1 n=e5 v=64
52060 On ch=1 n=c5 v=91
52080 Off ch=1 n=g4 v=64
52142 On ch=1 n=e4 v=68
52186 Off ch=1 n=e4 v=64
52284 On ch=1 n=f3 v=73
52284 On ch=1 n=c4 v=48
52324 Par ch=1 c=64 v=0
52352 On ch=1 n=f5 v=89
52424 Off ch=1 n=c5 v=64
52428 Off ch=1 n=f3 v=64
52454 Off ch=1 n=c4 v=64
52457 On ch=1 n=f4 v=94
52464 Par ch=1 c=64 v=127
52548 On ch=1 n=g5 v=90
52570 Off ch=1 n=f4 v=64
52598 On ch=1 n=g#4 v=52
52650 Off ch=1 n=f5 v=64
52712 On ch=1 n=g#5 v=86
52730 On ch=1 n=c5 v=58
52750 Off ch=1 n=g#4 v=64
52804 Off ch=1 n=g5 v=64
52810 Off ch=1 n=c5 v=64
52904 On ch=1 n=e5 v=52
52908 On ch=1 n=a#5 v=83
52910 On ch=1 n=c#5 v=56
52970 Par ch=1 c=64 v=0
52990 Off ch=1 n=g#5 v=64
53096 On ch=1 n=a#4 v=42
53124 Par ch=1 c=64 v=127
53150 On ch=1 n=g#5 v=78
53184 Off ch=1 n=a#4 v=64
53194 Off ch=1 n=c#5 v=64
53228 Off ch=1 n=a#5 v=64
53228 On ch=1 n=g4 v=27
53240 Off ch=1 n=e5 v=64
53318 Off ch=1 n=g4 v=64
53336 On ch=1 n=e4 v=56
53366 On ch=1 n=g5 v=73
53382 Off ch=1 n=e4 v=64
53402 Off ch=1 n=g#5 v=64
53440 Off ch=1 n=g5 v=64
53522 On ch=1 n=f3 v=58
53538 On ch=1 n=c4 v=41
53630 Par ch=1 c=64 v=0
53688 On ch=1 n=f4 v=65
53766 Off ch=1 n=f4 v=64
53770 On ch=1 n=f5 v=59
53780 On ch=1 n=g#4 v=42
53816 Par ch=1 c=64 v=127
53870 Off ch=1 n=c4 v=64
53904 Off ch=1 n=g#4 v=64
53908 On ch=1 n=c5 v=50
54010 Off ch=1 n=c5 v=64
54014 Par ch=1 c=64 v=0
54042 On ch=1 n=c#5 v=52
54050 On ch=1 n=e5 v=51
54100 Off ch=1 n=f5 v=64
54124 On ch=1 n=a#4 v=45
54152 Off ch=1 n=f3 v=64
54184 Par ch=1 c=64 v=127
54278 On ch=1 n=g4 v=49
54302 Off ch=1 n=a#4 v=64
54304 Off ch=1 n=c#5 v=64
54340 Off ch=1 n=g4 v=64
54354 Off ch=1 n=e5 v=64
54378 On ch=1 n=c#4 v=41
54432 Off ch=1 n=c#4 v=64
54490 On ch=1 n=f3 v=54
54516 On ch=1 n=c4 v=40
54584 Par ch=1 c=64 v=0
54646 On ch=1 n=g4 v=50
54732 On ch=1 n=g#4 v=47
54748 On ch=1 n=f5 v=48
54768 Par ch=1 c=64 v=127
54774 Off ch=1 n=g4 v=64
54800 Off ch=1 n=f3 v=64
54812 Off ch=1 n=c4 v=64
54866 On ch=1 n=c5 v=57
54892 Off ch=1 n=g#4 v=64
54974 On ch=1 n=f#3 v=63
54977 Off ch=1 n=c5 v=64
54980 Off ch=1 n=f5 v=64
54992 On ch=1 n=c4 v=46
55106 Par ch=1 c=64 v=0
55112 On ch=1 n=g#4 v=59
55220 On ch=1 n=a4 v=58
55234 Off ch=1 n=c4 v=64
55234 On ch=1 n=d#5 v=72
55285 Off ch=1 n=g#4 v=64
55300 Par ch=1 c=64 v=127
55312 Off ch=1 n=f#3 v=64
55342 On ch=1 n=c5 v=70
55414 Off ch=1 n=a4 v=64
55428 Off ch=1 n=d#5 v=64
55442 On ch=1 n=g3 v=70
55456 On ch=1 n=c4 v=62
55476 Off ch=1 n=c5 v=64
55582 Par ch=1 c=64 v=0
55596 On ch=1 n=f#4 v=78
55682 On ch=1 n=g4 v=69
55690 Off ch=1 n=c4 v=64
55690 On ch=1 n=d#5 v=78
55716 Off ch=1 n=g3 v=64
55736 Par ch=1 c=64 v=127
55762 Off ch=1 n=g4 v=64
55778 Off ch=1 n=f#4 v=64
55798 On ch=1 n=c5 v=70
55856 Off ch=1 n=d#5 v=64
55872 Off ch=1 n=c5 v=64
55894 On ch=1 n=g3 v=63
55904 Par ch=1 c=64 v=0
55906 On ch=1 n=d4 v=76
56014 On ch=1 n=g4 v=83
56020 Off ch=1 n=d4 v=64
56022 Off ch=1 n=g3 v=64
56042 Par ch=1 c=64 v=127
56068 Off ch=1 n=g4 v=64
56140 On ch=1 n=g5 v=91
56162 On ch=1 n=b4 v=63
56242 Off ch=1 n=b4 v=64
56280 On ch=1 n=d5 v=73
56400 Off ch=1 n=d5 v=64
56436 On ch=1 n=g4 v=64
56436 On ch=1 n=c6 v=91
56440 On ch=1 n=c4 v=46
56442 Par ch=1 c=64 v=0
56512 Off ch=1 n=g5 v=64
56546 Off ch=1 n=g4 v=64
56560 Off ch=1 n=c4 v=64
56572 On ch=1 n=c5 v=67
56600 Par ch=1 c=64 v=127
56618 On ch=1 n=d6 v=97
56696 On ch=1 n=d#5 v=76
56702 Off ch=1 n=c5 v=64
56722 Off ch=1 n=c6 v=64
56772 On ch=1 n=d#6 v=90
56818 Off ch=1 n=d#5 v=64
56820 On ch=1 n=g5 v=74
56864 Off ch=1 n=d6 v=64
56888 Off ch=1 n=g5 v=64
56960 On ch=1 n=g#5 v=72
56980 On ch=1 n=f6 v=98
56988 On ch=1 n=b5 v=77
57060 Off ch=1 n=d#6 v=64
57120 Off ch=1 n=g#5 v=64
57168 On ch=1 n=f5 v=47
57196 On ch=1 n=d#6 v=86
57276 Off ch=1 n=f6 v=64
57282 Off ch=1 n=f5 v=64
57288 On ch=1 n=d5 v=32
57292 Off ch=1 n=b5 v=64
57366 On ch=1 n=b4 v=55
57384 Off ch=1 n=d5 v=64
57384 On ch=1 n=d6 v=84
57410 Off ch=1 n=b4 v=64
57422 Off ch=1 n=d6 v=64
57424 Off ch=1 n=d#6 v=64
57540 On ch=1 n=g4 v=69
57544 On ch=1 n=c4 v=54
57564 Par ch=1 c=64 v=0
57650 On ch=1 n=c5 v=63
57752 On ch=1 n=c6 v=60
57762 Off ch=1 n=c5 v=64
57764 On ch=1 n=d#5 v=49
57776 Off ch=1 n=g4 v=64
57780 Par ch=1 c=64 v=127
57874 Off ch=1 n=d#5 v=64
57884 On ch=1 n=g5 v=52
58010 Par ch=1 c=64 v=0
58012 Off ch=1 n=g5 v=64
58032 On ch=1 n=b5 v=80
58035 On ch=1 n=g#5 v=54
58068 Off ch=1 n=c6 v=64
58128 Off ch=1 n=g#5 v=64
58180 Par ch=1 c=64 v=127
58188 Off ch=1 n=c4 v=64
58204 On ch=1 n=f5 v=54
58254 Off ch=1 n=f5 v=64
58316 Off ch=1 n=b5 v=64
58346 On ch=1 n=g5 v=95
58349 On ch=1 n=d5 v=49
58418 Off ch=1 n=d5 v=64
58468 On ch=1 n=b4 v=50
58514 Off ch=1 n=b4 v=64
58590 On ch=1 n=g4 v=48
58594 Par ch=1 c=64 v=0
58610 On ch=1 n=c6 v=95
58614 On ch=1 n=c4 v=57
58646 Off ch=1 n=g5 v=64
58700 Off ch=1 n=c4 v=64
58714 Off ch=1 n=g4 v=64
58746 On ch=1 n=c5 v=63
58746 Par ch=1 c=64 v=127
58802 On ch=1 n=d6 v=98
58836 Off ch=1 n=c5 v=64
58860 On ch=1 n=d#5 v=76
58894 Off ch=1 n=c6 v=64
58960 On ch=1 n=d#6 v=92
58980 Off ch=1 n=d#5 v=64
58992 On ch=1 n=g5 v=70
59048 Off ch=1 n=g5 v=64
59080 Off ch=1 n=d6 v=64
59124 On ch=1 n=g#5 v=71
59142 On ch=1 n=f6 v=98
59144 On ch=1 n=b5 v=85
59234 Off ch=1 n=d#6 v=64
59302 Off ch=1 n=g#5 v=64
59318 On ch=1 n=f5 v=50
59371 On ch=1 n=d#6 v=86
59434 On ch=1 n=d5 v=54
59440 Off ch=1 n=f5 v=64
59450 Off ch=1 n=b5 v=64
59452 Off ch=1 n=f6 v=64
59550 Off ch=1 n=d5 v=64
59550 On ch=1 n=b4 v=44
59556 On ch=1 n=d6 v=89
59600 Off ch=1 n=b4 v=64
59612 Off ch=1 n=d#6 v=64
59634 Off ch=1 n=d6 v=64
59718 On ch=1 n=c4 v=62
59720 On ch=1 n=g4 v=66
59762 Par ch=1 c=64 v=0
59840 On ch=1 n=c5 v=56
59924 On ch=1 n=c6 v=76
59940 On ch=1 n=d#5 v=61
59948 Off ch=1 n=c5 v=64
59962 Par ch=1 c=64 v=127
59970 Off ch=1 n=g4 v=64
60060 Off ch=1 n=d#5 v=64
60066 On ch=1 n=g5 v=61
60178 Off ch=1 n=g5 v=64
60232 On ch=1 n=b5 v=79
60238 Par ch=1 c=64 v=0
60242 On ch=1 n=g#5 v=51
60290 Off ch=1 n=c6 v=64
60376 Off ch=1 n=g#5 v=64
60388 On ch=1 n=f5 v=57
60404 Off ch=1 n=c4 v=64
60438 Par ch=1 c=64 v=127
60458 Off ch=1 n=f5 v=64
60522 On ch=1 n=d5 v=53
60544 On ch=1 n=g5 v=91
60588 Off ch=1 n=b5 v=64
60591 Off ch=1 n=d5 v=64
60662 On ch=1 n=b4 v=49
60710 Off ch=1 n=b4 v=64
60784 On ch=1 n=g4 v=41
60824 On ch=1 n=c4 v=56
60826 Par ch=1 c=64 v=0
60848 On ch=1 n=c6 v=92
60854 Off ch=1 n=g5 v=64
60922 Off ch=1 n=g4 v=64
60944 Off ch=1 n=c4 v=64
60960 Par ch=1 c=64 v=127
60966 On ch=1 n=c5 v=59
61066 On ch=1 n=d#6 v=87
61086 Off ch=1 n=c5 v=64
61104 On ch=1 n=d#5 v=71
61126 Off ch=1 n=c6 v=64
61196 Off ch=1 n=d#6 v=64
61238 On ch=1 n=g6 v=98
61262 On ch=1 n=g5 v=70
61340 Off ch=1 n=g5 v=64
61412 On ch=1 n=c6 v=44
61444 On ch=1 n=c7 v=99
61468 Par ch=1 c=64 v=0
61502 Off ch=1 n=g6 v=64
61572 On ch=1 n=g#5 v=65
61588 Off ch=1 n=c6 v=64
61600 Off ch=1 n=d#5 v=64
61606 Par ch=1 c=64 v=127
61686 Off ch=1 n=g#5 v=64
61696 On ch=1 n=g5 v=58
61810 Off ch=1 n=g5 v=64
61816 On ch=1 n=d#5 v=63
61858 Off ch=1 n=d#5 v=64
61956 On ch=1 n=c5 v=53
62070 On ch=1 n=g#4 v=63
62082 Off ch=1 n=c5 v=64
62188 On ch=1 n=g4 v=60
62190 Off ch=1 n=g#4 v=64
62300 Off ch=1 n=g4 v=64
62308 On ch=1 n=d#4 v=44
62362 Off ch=1 n=d#4 v=64
62430 On ch=1 n=c4 v=55
62490 Off ch=1 n=c4 v=64
62530 On ch=1 n=g#3 v=66
62578 Off ch=1 n=c7 v=64
62640 On ch=1 n=g3 v=54
62666 Off ch=1 n=g#3 v=64
62710 Off ch=1 n=g3 v=64
62720 On ch=1 n=d#3 v=56
62804 Par ch=1 c=64 v=0
62818 Off ch=1 n=d#3 v=64
62846 On ch=1 n=c3 v=55
62852 On ch=1 n=g3 v=57
62990 On ch=1 n=c4 v=37
63018 Off ch=1 n=g3 v=64
63050 Par ch=1 c=64 v=127
63084 On ch=1 n=c5 v=56
63088 Off ch=1 n=c4 v=64
63088 On ch=1 n=d#4 v=54
63212 Off ch=1 n=d#4 v=64
63220 On ch=1 n=g4 v=55
63326 Par ch=1 c=64 v=0
63366 Off ch=1 n=g4 v=64
63374 On ch=1 n=g#4 v=42
63386 On ch=1 n=b4 v=48
63436 Off ch=1 n=c5 v=64
63456 Off ch=1 n=c3 v=64
63472 On ch=1 n=f4 v=71
63542 Par ch=1 c=64 v=127
63562 Off ch=1 n=f4 v=64
63578 On ch=1 n=d4 v=43
63650 Off ch=1 n=d4 v=64
63690 On ch=1 n=b3 v=43
63698 Off ch=1 n=b4 v=64
63701 Off ch=1 n=g#4 v=64
63742 Off ch=1 n=b3 v=64
63811 On ch=1 n=c3 v=54
63818 Par ch=1 c=64 v=0
63821 On ch=1 n=g3 v=45
63964 On ch=1 n=c4 v=29
64030 Off ch=1 n=g3 v=64
64058 On ch=1 n=d#4 v=46
64060 On ch=1 n=c5 v=54
64086 Off ch=1 n=c4 v=64
64094 Par ch=1 c=64 v=127
64180 On ch=1 n=g4 v=49
64202 Off ch=1 n=d#4 v=64
64292 Off ch=1 n=g4 v=64
64326 On ch=1 n=g#4 v=48
64340 Par ch=1 c=64 v=0
64350 On ch=1 n=b4 v=55
64368 Off ch=1 n=c5 v=64
64391 Off ch=1 n=c3 v=64
64466 On ch=1 n=f4 v=69
64540 Par ch=1 c=64 v=127
64560 On ch=1 n=d4 v=43
64564 Off ch=1 n=g#4 v=64
64618 Off ch=1 n=f4 v=64
64630 Off ch=1 n=d4 v=64
64656 On ch=1 n=g#3 v=48
64706 Off ch=1 n=b4 v=64
64709 Off ch=1 n=g#3 v=64
64802 Par ch=1 c=64 v=0
64802 On ch=1 n=c3 v=43
64816 On ch=1 n=g3 v=50
64928 On ch=1 n=d4 v=57
64966 Off ch=1 n=c3 v=64
65030 On ch=1 n=d#4 v=47
65046 On ch=1 n=c5 v=59
65046 Par ch=1 c=64 v=127
65049 Off ch=1 n=g3 v=64
65064 Off ch=1 n=d4 v=64
65162 On ch=1 n=g4 v=58
65204 Off ch=1 n=d#4 v=64
65216 Par ch=1 c=64 v=0
65218 Off ch=1 n=c5 v=64
65248 On ch=1 n=c3 v=60
65262 Off ch=1 n=g4 v=64
65262 On ch=1 n=g#3 v=65
65322 Off ch=1 n=c3 v=64
65384 Par ch=1 c=64 v=127
65392 On ch=1 n=e4 v=76
65440 Off ch=1 n=e4 v=64
65480 On ch=1 n=d5 v=79
65498 On ch=1 n=f4 v=87
65558 Off ch=1 n=g#3 v=64
65602 On ch=1 n=b4 v=70
65632 Off ch=1 n=f4 v=64
65632 Par ch=1 c=64 v=0
65650 Off ch=1 n=d5 v=64
65674 On ch=1 n=c3 v=70
65674 On ch=1 n=a3 v=63
65716 Off ch=1 n=c3 v=64
65724 Off ch=1 n=b4 v=64
65800 Par ch=1 c=64 v=127
65814 On ch=1 n=f4 v=98
65854 Off ch=1 n=a3 v=64
65904 Off ch=1 n=f4 v=64
65904 On ch=1 n=f#4 v=76
65908 On ch=1 n=d#5 v=84
66022 On ch=1 n=c5 v=71
66072 Off ch=1 n=f#4 v=64
66088 On ch=1 n=c3 v=44
66132 On ch=1 n=a#3 v=66
66132 Par ch=1 c=64 v=0
66148 Off ch=1 n=d#5 v=64
66184 Off ch=1 n=c5 v=64
66202 Off ch=1 n=c3 v=64
66280 On ch=1 n=e4 v=75
66292 Par ch=1 c=64 v=127
66296 On ch=1 n=e5 v=85
66302 On ch=1 n=g4 v=76
66372 Off ch=1 n=a#3 v=64
66380 Off ch=1 n=g4 v=64
66392 Off ch=1 n=e4 v=64
66395 On ch=1 n=c5 v=99
66476 Off ch=1 n=e5 v=64
66570 Off ch=1 n=c5 v=64
66594 On ch=1 n=f3 v=63
66624 On ch=1 n=c4 v=52
66708 On ch=1 n=f5 v=92
66722 Par ch=1 c=64 v=0
66834 Off ch=1 n=f3 v=64
66858 Off ch=1 n=c4 v=64
66861 On ch=1 n=f4 v=89
66890 Par ch=1 c=64 v=127
66914 On ch=1 n=g#5 v=87
66974 Off ch=1 n=f4 v=64
66994 Off ch=1 n=f5 v=64
67010 On ch=1 n=g#4 v=55
67106 On ch=1 n=c6 v=93
67116 Off ch=1 n=g#5 v=64
67154 On ch=1 n=c5 v=60
67282 Off ch=1 n=g#4 v=64
67314 Off ch=1 n=c5 v=64
67330 On ch=1 n=f5 v=63
67406 On ch=1 n=f6 v=95
67454 Off ch=1 n=f5 v=64
67484 Off ch=1 n=c6 v=64
67500 On ch=1 n=c5 v=44
67622 Off ch=1 n=c5 v=64
67638 On ch=1 n=g#4 v=56
67690 Off ch=1 n=g#4 v=64
67738 Off ch=1 n=f6 v=64
67780 On ch=1 n=f4 v=75
67824 Off ch=1 n=f4 v=64
67894 On ch=1 n=c4 v=55
67912 On ch=1 n=f3 v=53
68026 On ch=1 n=f4 v=77
68144 On ch=1 n=f5 v=79
68150 Par ch=1 c=64 v=0
68155 On ch=1 n=g#4 v=56
68176 Off ch=1 n=c4 v=64
68210 Off ch=1 n=f4 v=64
68274 Par ch=1 c=64 v=127
68292 Off ch=1 n=g#4 v=64
68314 On ch=1 n=c5 v=36
68390 Off ch=1 n=c5 v=64
68398 Par ch=1 c=64 v=0
68406 On ch=1 n=e5 v=88
68408 On ch=1 n=c#5 v=76
68442 Off ch=1 n=f5 v=64
68468 Off ch=1 n=f3 v=64
68520 On ch=1 n=a#4 v=51
68544 Off ch=1 n=c#5 v=64
68550 Par ch=1 c=64 v=127
68578 Off ch=1 n=a#4 v=64
68608 Off ch=1 n=e5 v=64
68614 On ch=1 n=g4 v=46
68670 On ch=1 n=c5 v=97
68694 Off ch=1 n=g4 v=64
68734 On ch=1 n=e4 v=66
68778 Off ch=1 n=e4 v=64
68846 On ch=1 n=c4 v=46
68870 On ch=1 n=f3 v=73
68934 Par ch=1 c=64 v=0
68972 On ch=1 n=f5 v=94
69010 Off ch=1 n=c5 v=64
69050 Off ch=1 n=f3 v=64
69094 Off ch=1 n=c4 v=64
69104 Par ch=1 c=64 v=127
69104 On ch=1 n=f4 v=84
69180 On ch=1 n=g#5 v=88
69212 Off ch=1 n=f5 v=64
69238 Off ch=1 n=f4 v=64
69256 Off ch=1 n=g#5 v=64
69258 On ch=1 n=g#4 v=55
69360 On ch=1 n=c6 v=92
69466 On ch=1 n=c5 v=51
69632 Off ch=1 n=c5 v=64
69676 On ch=1 n=f5 v=38
69704 Off ch=1 n=c6 v=64
69710 On ch=1 n=g#6 v=90
69750 Off ch=1 n=g#4 v=64
69802 Off ch=1 n=f5 v=64
69880 On ch=1 n=c5 v=46
69950 Off ch=1 n=c5 v=64
70012 On ch=1 n=g#4 v=43
70066 Off ch=1 n=g#4 v=64
70176 On ch=1 n=f4 v=58
70240 Par ch=1 c=64 v=0
70306 Off ch=1 n=f4 v=64
70354 On ch=1 n=f3 v=46
70370 On ch=1 n=c4 v=44
70378 Par ch=1 c=64 v=127
70408 Off ch=1 n=g#6 v=64
70568 On ch=1 n=f4 v=49
70648 Off ch=1 n=c4 v=64
70654 Off ch=1 n=f4 v=64
70692 On ch=1 n=g#4 v=43
70695 On ch=1 n=f5 v=47
70824 Off ch=1 n=g#4 v=64
70852 On ch=1 n=c5 v=41
70932 Off ch=1 n=c5 v=64
71000 Off ch=1 n=f5 v=64
71002 On ch=1 n=e5 v=55
71012 On ch=1 n=c#5 v=43
71042 Off ch=1 n=f3 v=64
71134 On ch=1 n=a#4 v=30
71272 On ch=1 n=g4 v=36
71354 Off ch=1 n=g4 v=64
71370 Off ch=1 n=a#4 v=64
71392 On ch=1 n=c#4 v=41
71414 Off ch=1 n=c#5 v=64
71466 Off ch=1 n=e5 v=64
71482 Off ch=1 n=c#4 v=64
71520 On ch=1 n=f3 v=51
71544 On ch=1 n=c4 v=37
71592 Par ch=1 c=64 v=0
71706 On ch=1 n=g4 v=51
71804 On ch=1 n=g#4 v=46
71804 On ch=1 n=f5 v=58
71818 Off ch=1 n=g4 v=64
71824 Par ch=1 c=64 v=127
71874 Off ch=1 n=c4 v=64
71940 On ch=1 n=c5 v=49
71964 Off ch=1 n=g#4 v=64
72054 Par ch=1 c=64 v=0
72074 On ch=1 n=c4 v=48
72108 Off ch=1 n=c5 v=64
72200 Par ch=1 c=64 v=127
72202 On ch=1 n=g4 v=59
72226 Off ch=1 n=c4 v=64
72296 On ch=1 n=g#4 v=41
72310 Off ch=1 n=g4 v=64
72424 On ch=1 n=c5 v=42
72444 Off ch=1 n=g#4 v=64
72484 Par ch=1 c=64 v=0
72520 On ch=1 n=c4 v=51
72566 Off ch=1 n=c5 v=64
72644 Off ch=1 n=c4 v=64
72668 Par ch=1 c=64 v=127
72676 On ch=1 n=g4 v=36
72748 Off ch=1 n=g4 v=64
72768 On ch=1 n=g#4 v=44
72894 Off ch=1 n=g#4 v=64
72900 Par ch=1 c=64 v=0
72904 On ch=1 n=c5 v=43
73004 On ch=1 n=c4 v=38
73007 Off ch=1 n=c5 v=64
73098 Par ch=1 c=64 v=127
73110 Off ch=1 n=c4 v=64
73144 On ch=1 n=g4 v=38
73232 On ch=1 n=g#4 v=35
73236 Off ch=1 n=g4 v=64
73348 Off ch=1 n=g#4 v=64
73362 On ch=1 n=c5 v=37
73450 Off ch=1 n=c5 v=64
73482 On ch=1 n=c4 v=35
73482 Par ch=1 c=64 v=0
73576 Off ch=1 n=c4 v=64
73606 Par ch=1 c=64 v=127
73606 On ch=1 n=g4 v=23
73708 Off ch=1 n=g4 v=64
73708 On ch=1 n=g#4 v=30
73808 Off ch=1 n=g#4 v=64
73840 On ch=1 n=c5 v=23
73898 Par ch=1 c=64 v=0
73932 Off ch=1 n=c5 v=64
73932 On ch=1 n=c4 v=38
74034 Off ch=1 n=c4 v=64
74064 On ch=1 n=g4 v=44
74082 Par ch=1 c=64 v=127
74156 Off ch=1 n=g4 v=64
74170 On ch=1 n=g#4 v=27
74282 On ch=1 n=c5 v=37
74292 Off ch=1 n=g#4 v=64
74372 Off ch=1 n=c5 v=64
74404 Par ch=1 c=64 v=0
74428 On ch=1 n=c4 v=33
74556 On ch=1 n=g#4 v=41
74618 Off ch=1 n=c4 v=64
74634 Par ch=1 c=64 v=127
74688 Off ch=1 n=g#4 v=64
74696 On ch=1 n=a4 v=32
74816 Off ch=1 n=a4 v=64
74834 On ch=1 n=c5 v=33
74912 Par ch=1 c=64 v=0
74982 On ch=1 n=c4 v=25
75022 Off ch=1 n=c5 v=64
75154 On ch=1 n=g#4 v=21
75172 Par ch=1 c=64 v=127
75198 Off ch=1 n=f3 v=64
75266 Off ch=1 n=g#4 v=64
75268 Off ch=1 n=c4 v=64
75314 On ch=1 n=a4 v=15
75388 Off ch=1 n=f5 v=64
75442 Off ch=1 n=a4 v=64
75464 On ch=1 n=f3 v=36
75496 On ch=1 n=c5 v=28
75780 On ch=1 n=c4 v=24
75784 On ch=1 n=f5 v=63
75834 Par ch=1 c=64 v=0
75910 Off ch=1 n=f3 v=64
75942 Off ch=1 n=c5 v=64
75984 On ch=1 n=g#4 v=27
76048 Par ch=1 c=64 v=127
76074 Off ch=1 n=g#4 v=64
76077 Off ch=1 n=c4 v=64
76124 On ch=1 n=a4 v=24
76246 Off ch=1 n=a4 v=64
76252 On ch=1 n=f3 v=37
76258 On ch=1 n=c5 v=25
76294 Par ch=1 c=64 v=0
76418 On ch=1 n=c4 v=34
76436 Off ch=1 n=f3 v=64
76458 Off ch=1 n=c5 v=64
76478 Par ch=1 c=64 v=127
76534 Off ch=1 n=c4 v=64
76576 On ch=1 n=g#4 v=37
76638 Off ch=1 n=g#4 v=64
76712 On ch=1 n=a4 v=35
76798 Off ch=1 n=a4 v=64
76826 On ch=1 n=c5 v=47
76832 On ch=1 n=d4 v=31
76900 Off ch=1 n=c5 v=64
77036 On ch=1 n=a5 v=63
77062 Par ch=1 c=64 v=0
77078 On ch=1 n=a4 v=32
77132 Off ch=1 n=f5 v=64
77210 Off ch=1 n=a4 v=64
77218 On ch=1 n=c#5 v=31
77276 Off ch=1 n=d4 v=64
77276 Par ch=1 c=64 v=127
77358 Off ch=1 n=c#5 v=64
77366 On ch=1 n=d5 v=44
77444 Off ch=1 n=d5 v=64
77468 On ch=1 n=d4 v=42
77488 On ch=1 n=f5 v=41
77554 Par ch=1 c=64 v=0
77570 Off ch=1 n=f5 v=64
77626 On ch=1 n=a4 v=36
77708 Par ch=1 c=64 v=127
77746 Off ch=1 n=d4 v=64
77764 On ch=1 n=c#5 v=28
77772 Off ch=1 n=a4 v=64
77834 Off ch=1 n=c#5 v=64
77880 On ch=1 n=d5 v=43
77988 On ch=1 n=f#5 v=50
77994 Off ch=1 n=d5 v=64
78010 On ch=1 n=g3 v=32
78062 Par ch=1 c=64 v=0
78096 Off ch=1 n=f#5 v=64
78212 On ch=1 n=c6 v=75
78234 Off ch=1 n=g3 v=64
78262 Par ch=1 c=64 v=127
78262 On ch=1 n=f#4 v=38
78294 Off ch=1 n=a5 v=64
78466 On ch=1 n=c#5 v=33
78548 Off ch=1 n=c#5 v=64
78596 On ch=1 n=d5 v=52
78624 Off ch=1 n=f#4 v=64
78696 Off ch=1 n=d5 v=64
78732 On ch=1 n=a5 v=50
78748 On ch=1 n=a#3 v=33
78798 Par ch=1 c=64 v=0
78874 On ch=1 n=a#5 v=72
78902 Off ch=1 n=a5 v=64
78942 On ch=1 n=g4 v=39
78958 Off ch=1 n=c6 v=64
78972 Off ch=1 n=a#3 v=64
78984 Par ch=1 c=64 v=127
79038 Off ch=1 n=g4 v=64
79046 On ch=1 n=c#5 v=41
79128 Off ch=1 n=c#5 v=64
79162 On ch=1 n=d5 v=45
79252 On ch=1 n=d4 v=48
79264 Off ch=1 n=d5 v=64
79267 On ch=1 n=g5 v=48
79352 Par ch=1 c=64 v=0
79408 On ch=1 n=a5 v=63
79414 Off ch=1 n=g5 v=64
79428 On ch=1 n=a4 v=32
79490 Off ch=1 n=a#5 v=64
79564 On ch=1 n=c#5 v=37
79590 Off ch=1 n=a4 v=64
79592 Off ch=1 n=d4 v=64
79598 Par ch=1 c=64 v=127
79656 Off ch=1 n=c#5 v=64
79686 On ch=1 n=d5 v=40
79774 Off ch=1 n=d5 v=64
79786 On ch=1 n=f#5 v=43
79814 On ch=1 n=d4 v=21
79844 Par ch=1 c=64 v=0
79988 On ch=1 n=a4 v=30
80012 Par ch=1 c=64 v=127
80014 Off ch=1 n=f#5 v=64
80070 Off ch=1 n=d4 v=64
80090 Off ch=1 n=a4 v=64
80122 On ch=1 n=c#5 v=34
80190 Off ch=1 n=c#5 v=64
80260 On ch=1 n=d5 v=40
80334 Off ch=1 n=d5 v=64
80400 On ch=1 n=f#5 v=28
80410 On ch=1 n=a#3 v=35
80464 Off ch=1 n=f#5 v=64
80596 On ch=1 n=a#5 v=73
80612 Par ch=1 c=64 v=0
80658 On ch=1 n=f4 v=58
80690 Off ch=1 n=a5 v=64
80798 Off ch=1 n=a#3 v=64
80810 On ch=1 n=c#5 v=40
80826 Par ch=1 c=64 v=127
80852 Off ch=1 n=f4 v=64
80914 Off ch=1 n=c#5 v=64
80924 On ch=1 n=d5 v=38
81014 Off ch=1 n=d5 v=64
81032 On ch=1 n=f5 v=29
81062 On ch=1 n=d4 v=51
81150 Par ch=1 c=64 v=0
81218 On ch=1 n=f4 v=85
81260 Off ch=1 n=f5 v=64
81304 Par ch=1 c=64 v=127
81320 Off ch=1 n=d4 v=64
81346 Off ch=1 n=f4 v=64
81358 On ch=1 n=c#5 v=50
81446 Off ch=1 n=c#5 v=64
81464 On ch=1 n=d5 v=61
81558 On ch=1 n=a4 v=60
81576 On ch=1 n=f5 v=65
81588 Off ch=1 n=d5 v=64
81672 Off ch=1 n=f5 v=64
81740 On ch=1 n=a#4 v=46
81744 On ch=1 n=d6 v=99
81748 Par ch=1 c=64 v=0
81850 Off ch=1 n=a#5 v=64
81898 On ch=1 n=d5 v=50
81980 Off ch=1 n=a#4 v=64
81980 Par ch=1 c=64 v=127
81994 Off ch=1 n=d5 v=64
82006 On ch=1 n=f5 v=47
82040 Off ch=1 n=a4 v=64
82102 On ch=1 n=a#5 v=48
82126 Off ch=1 n=f5 v=64
82136 On ch=1 n=g4 v=58
82266 On ch=1 n=a#4 v=50
82272 Par ch=1 c=64 v=0
82292 Off ch=1 n=a#5 v=64
82390 On ch=1 n=d5 v=52
82418 Off ch=1 n=g4 v=64
82424 Par ch=1 c=64 v=127
82454 Off ch=1 n=a#4 v=64
82462 Off ch=1 n=d5 v=64
82490 On ch=1 n=f5 v=42
82604 On ch=1 n=f4 v=59
82626 Off ch=1 n=f5 v=64
82630 On ch=1 n=a#5 v=35
82662 Off ch=1 n=f4 v=64
82760 Off ch=1 n=a#5 v=64
82766 On ch=1 n=e4 v=63
82796 Off ch=1 n=d6 v=64
82918 On ch=1 n=g6 v=97
82996 On ch=1 n=c5 v=30
83070 Par ch=1 c=64 v=0
83140 On ch=1 n=f#5 v=40
83244 Off ch=1 n=e4 v=64
83270 Par ch=1 c=64 v=127
83272 On ch=1 n=g5 v=43
83280 Off ch=1 n=c5 v=64
83280 Off ch=1 n=f#5 v=64
83394 Off ch=1 n=g5 v=64
83426 On ch=1 n=a#5 v=42
83468 On ch=1 n=f4 v=59
83482 Off ch=1 n=a#5 v=64
83622 On ch=1 n=f6 v=94
83680 On ch=1 n=c5 v=35
83684 Par ch=1 c=64 v=0
83718 Off ch=1 n=g6 v=64
83796 On ch=1 n=f#5 v=35
83838 Off ch=1 n=c5 v=64
83855 Off ch=1 n=f#5 v=64
83855 Par ch=1 c=64 v=127
83918 On ch=1 n=g5 v=56
83984 Off ch=1 n=g5 v=64
83988 Off ch=1 n=f4 v=64
84020 On ch=1 n=a#5 v=50
84038 On ch=1 n=g4 v=30
84070 Off ch=1 n=a#5 v=64
84158 On ch=1 n=e6 v=87
84206 Par ch=1 c=64 v=0
84218 On ch=1 n=c5 v=17
84258 Off ch=1 n=f6 v=64
84294 On ch=1 n=f#5 v=27
84318 Off ch=1 n=c5 v=64
84398 Off ch=1 n=f#5 v=64
84408 Par ch=1 c=64 v=127
84458 On ch=1 n=g5 v=46
84466 Off ch=1 n=g4 v=64
84528 Off ch=1 n=g5 v=64
84528 On ch=1 n=a#4 v=24
84586 On ch=1 n=c6 v=58
84628 Off ch=1 n=c6 v=64
84740 On ch=1 n=d6 v=95
84748 On ch=1 n=c5 v=27
84820 Off ch=1 n=e6 v=64
84822 Par ch=1 c=64 v=0
84918 On ch=1 n=e5 v=37
84936 Off ch=1 n=c5 v=64
84990 Par ch=1 c=64 v=127
85014 Off ch=1 n=e5 v=64
85036 On ch=1 n=g5 v=63
85114 Off ch=1 n=g5 v=64
85158 On ch=1 n=c6 v=91
85190 Off ch=1 n=a#4 v=64
85210 On ch=1 n=a4 v=20
85218 Off ch=1 n=d6 v=64
85388 On ch=1 n=f6 v=88
85406 Par ch=1 c=64 v=0
85448 Off ch=1 n=c6 v=64
85460 On ch=1 n=c5 v=24
85614 On ch=1 n=e5 v=34
85636 Par ch=1 c=64 v=127
85676 Off ch=1 n=a4 v=64
85722 Off ch=1 n=c5 v=64
85722 Off ch=1 n=e5 v=64
85736 On ch=1 n=f5 v=44
85822 Off ch=1 n=f5 v=64
85872 On ch=1 n=c6 v=44
85922 On ch=1 n=a4 v=21
85930 Off ch=1 n=c6 v=64
85992 On ch=1 n=e6 v=79
86066 Off ch=1 n=f6 v=64
86082 Par ch=1 c=64 v=0
86084 On ch=1 n=c5 v=31
86186 On ch=1 n=e5 v=37
86206 Off ch=1 n=c5 v=64
86220 Par ch=1 c=64 v=127
86280 Off ch=1 n=e5 v=64
86312 On ch=1 n=f5 v=41
86376 Off ch=1 n=a4 v=64
86382 Off ch=1 n=f5 v=64
86416 On ch=1 n=a#4 v=39
86434 On ch=1 n=c6 v=42
86528 Par ch=1 c=64 v=0
86542 On ch=1 n=d6 v=84
86584 On ch=1 n=d5 v=41
86604 Off ch=1 n=c6 v=64
86634 Off ch=1 n=e6 v=64
86690 Off ch=1 n=d5 v=64
86712 On ch=1 n=e5 v=27
86744 Par ch=1 c=64 v=127
86798 Off ch=1 n=a#4 v=64
86800 On ch=1 n=f5 v=31
86818 Off ch=1 n=e5 v=64
86890 Off ch=1 n=f5 v=64
86898 On ch=1 n=a#5 v=43
86960 On ch=1 n=a4 v=34
87006 Off ch=1 n=a#5 v=64
87034 Par ch=1 c=64 v=0
87090 On ch=1 n=a#4 v=31
87188 Par ch=1 c=64 v=127
87234 On ch=1 n=e5 v=36
87296 Off ch=1 n=a4 v=64
87308 Off ch=1 n=e5 v=64
87312 Off ch=1 n=a#4 v=64
87340 On ch=1 n=f5 v=30
87416 Off ch=1 n=f5 v=64
87444 On ch=1 n=a#5 v=49
87512 Off ch=1 n=a#5 v=64
87518 On ch=1 n=g4 v=20
87634 Par ch=1 c=64 v=0
87666 On ch=1 n=e6 v=77
87692 On ch=1 n=a#4 v=25
87804 Off ch=1 n=d6 v=64
87858 On ch=1 n=d#5 v=40
87910 Par ch=1 c=64 v=127
87944 Off ch=1 n=g4 v=64
87972 Off ch=1 n=a#4 v=64
87972 Off ch=1 n=d#5 v=64
87990 On ch=1 n=e5 v=27
88092 On ch=1 n=a#5 v=38
88100 Off ch=1 n=e5 v=64
88168 Off ch=1 n=a#5 v=64
88192 On ch=1 n=g4 v=35
88268 On ch=1 n=d6 v=80
88278 Par ch=1 c=64 v=0
88326 Off ch=1 n=e6 v=64
88332 On ch=1 n=a#4 v=24
88438 On ch=1 n=d#5 v=36
88464 Par ch=1 c=64 v=127
88520 Off ch=1 n=g4 v=64
88524 Off ch=1 n=d#5 v=64
88530 Off ch=1 n=a#4 v=64
88558 On ch=1 n=e5 v=56
88648 Off ch=1 n=e5 v=64
88651 On ch=1 n=a#5 v=44
88702 On ch=1 n=a4 v=25
88718 Off ch=1 n=a#5 v=64
88772 Par ch=1 c=64 v=0
88794 On ch=1 n=c6 v=71
88838 On ch=1 n=c5 v=41
88914 Off ch=1 n=d6 v=64
88926 Off ch=1 n=c5 v=64
88940 On ch=1 n=d#5 v=41
89016 Par ch=1 c=64 v=127
89018 Off ch=1 n=d#5 v=64
89042 Off ch=1 n=a4 v=64
89046 On ch=1 n=e5 v=42
89140 Off ch=1 n=e5 v=64
89166 On ch=1 n=a5 v=32
89208 On ch=1 n=g4 v=41
89256 Off ch=1 n=a5 v=64
89308 Par ch=1 c=64 v=0
89350 On ch=1 n=a4 v=41
89492 Par ch=1 c=64 v=127
89496 On ch=1 n=d#5 v=38
89506 Off ch=1 n=g4 v=64
89538 Off ch=1 n=a4 v=64
89588 Off ch=1 n=d#5 v=64
89608 On ch=1 n=e5 v=43
89684 Off ch=1 n=e5 v=64
89724 On ch=1 n=a5 v=46
89768 On ch=1 n=f#4 v=40
89790 Off ch=1 n=a5 v=64
89892 Par ch=1 c=64 v=0
89938 On ch=1 n=d6 v=75
89978 On ch=1 n=a4 v=45
90012 Off ch=1 n=c6 v=64
90124 Par ch=1 c=64 v=127
90140 Off ch=1 n=a4 v=64
90148 On ch=1 n=c#5 v=42
90212 On ch=1 n=d5 v=48
90218 Off ch=1 n=c#5 v=64
90306 Off ch=1 n=f#4 v=64
90318 Off ch=1 n=d5 v=64
90346 On ch=1 n=a5 v=41
90424 On ch=1 n=f4 v=66
90448 Off ch=1 n=a5 v=64
90514 On ch=1 n=c6 v=79
90560 On ch=1 n=g#4 v=34
90568 Par ch=1 c=64 v=0
90580 Off ch=1 n=d6 v=64
90662 On ch=1 n=c#5 v=50
90752 Off ch=1 n=g#4 v=64
90768 Par ch=1 c=64 v=127
90784 On ch=1 n=d5 v=42
90810 Off ch=1 n=c#5 v=64
90884 On ch=1 n=g#5 v=55
90887 Off ch=1 n=d5 v=64
90980 On ch=1 n=g4 v=52
91002 Off ch=1 n=g#5 v=64
91028 On ch=1 n=b5 v=94
91060 Par ch=1 c=64 v=0
91126 Off ch=1 n=c6 v=64
91168 On ch=1 n=c#5 v=48
91244 Off ch=1 n=g4 v=64
91260 Par ch=1 c=64 v=127
91284 On ch=1 n=d5 v=55
91302 Off ch=1 n=c#5 v=64
91376 Off ch=1 n=f4 v=64
91382 Off ch=1 n=d5 v=64
91412 On ch=1 n=g5 v=46
91434 On ch=1 n=e4 v=50
91474 Off ch=1 n=g5 v=64
91554 On ch=1 n=c6 v=80
91566 Par ch=1 c=64 v=0
91578 On ch=1 n=g4 v=50
91628 Off ch=1 n=b5 v=64
91692 Off ch=1 n=g4 v=64
91728 On ch=1 n=b4 v=42
91768 Par ch=1 c=64 v=127
91788 Off ch=1 n=b4 v=64
91788 On ch=1 n=c5 v=60
91884 Off ch=1 n=c5 v=64
91908 Off ch=1 n=e4 v=64
91914 On ch=1 n=g5 v=57
91968 Off ch=1 n=g5 v=64
91972 On ch=1 n=d4 v=38
92022 Off ch=1 n=c6 v=64
92180 On ch=1 n=f6 v=79
92256 On ch=1 n=a4 v=33
92350 Par ch=1 c=64 v=0
92414 On ch=1 n=e5 v=37
92536 Par ch=1 c=64 v=127
92539 Off ch=1 n=e5 v=64
92539 On ch=1 n=f5 v=33
92606 Off ch=1 n=a4 v=64
92616 Off ch=1 n=f5 v=64
92628 On ch=1 n=a5 v=36
92654 Off ch=1 n=d4 v=64
92698 On ch=1 n=g4 v=39
92786 On ch=1 n=b5 v=84
92786 Par ch=1 c=64 v=0
92804 Off ch=1 n=f6 v=64
92816 Off ch=1 n=a5 v=64
92864 On ch=1 n=b4 v=36
92940 Off ch=1 n=b4 v=64
92970 On ch=1 n=d5 v=41
92980 Par ch=1 c=64 v=127
93040 Off ch=1 n=d5 v=64
93050 Off ch=1 n=g4 v=64
93074 On ch=1 n=f5 v=38
93148 Off ch=1 n=f5 v=64
93204 On ch=1 n=g5 v=27
93210 On ch=1 n=c4 v=33
93288 Par ch=1 c=64 v=0
93312 Off ch=1 n=g5 v=64
93372 On ch=1 n=g4 v=43
93488 Par ch=1 c=64 v=127
93508 Off ch=1 n=c4 v=64
93528 On ch=1 n=d5 v=25
93531 Off ch=1 n=g4 v=64
93644 Off ch=1 n=d5 v=64
93682 On ch=1 n=f5 v=21
93764 Off ch=1 n=f5 v=64
93792 On ch=1 n=g5 v=31
93798 On ch=1 n=c4 v=25
93914 Off ch=1 n=g5 v=64
93980 Par ch=1 c=64 v=0
93986 On ch=1 n=g4 v=27
93992 On ch=1 n=c6 v=37
94072 Off ch=1 n=b5 v=64
94162 Off ch=1 n=c4 v=64
94162 On ch=1 n=d#5 v=32
94256 Par ch=1 c=64 v=127
94290 Off ch=1 n=g4 v=64
94352 Off ch=1 n=d#5 v=64
94356 On ch=1 n=e5 v=27
94453 Off ch=1 n=e5 v=64
94528 On ch=1 n=g5 v=31
94550 On ch=1 n=e4 v=48
94624 Off ch=1 n=c6 v=64
94627 Off ch=1 n=g5 v=64
94876 On ch=1 n=a#4 v=27
94968 On ch=1 n=g6 v=81
95056 Par ch=1 c=64 v=0
95172 On ch=1 n=f#5 v=32
95246 Off ch=1 n=f#5 v=64
95252 Off ch=1 n=e4 v=64
95254 Par ch=1 c=64 v=127
95328 On ch=1 n=g5 v=31
95354 Off ch=1 n=a#4 v=64
95442 Off ch=1 n=g5 v=64
95458 On ch=1 n=a#5 v=27
95466 On ch=1 n=e4 v=37
95584 Off ch=1 n=g6 v=64
95592 On ch=1 n=c6 v=69
95598 Off ch=1 n=a#5 v=64
95640 On ch=1 n=c5 v=34
95654 Par ch=1 c=64 v=0
95738 Off ch=1 n=e4 v=64
95768 On ch=1 n=f#5 v=24
95776 Par ch=1 c=64 v=127
95836 Off ch=1 n=f#5 v=64
95839 Off ch=1 n=c5 v=64
95858 On ch=1 n=g5 v=36
95968 On ch=1 n=a#5 v=41
95982 Off ch=1 n=g5 v=64
95984 On ch=1 n=e4 v=49
96032 Off ch=1 n=a#5 v=64
96086 Par ch=1 c=64 v=0
96092 On ch=1 n=c#6 v=66
96142 On ch=1 n=c#5 v=38
96158 Off ch=1 n=c6 v=64
96262 Off ch=1 n=e4 v=64
96265 On ch=1 n=f#5 v=38
96314 Par ch=1 c=64 v=127
96340 Off ch=1 n=f#5 v=64
96384 Off ch=1 n=c#5 v=64
96408 On ch=1 n=g5 v=36
96498 On ch=1 n=e4 v=42
96510 Off ch=1 n=g5 v=64
96522 On ch=1 n=a#5 v=48
96588 Off ch=1 n=c#6 v=64
96694 On ch=1 n=c5 v=35
96697 Par ch=1 c=64 v=0
96706 On ch=1 n=c6 v=62
96742 Off ch=1 n=a#5 v=64
96794 Off ch=1 n=e4 v=64
96884 Par ch=1 c=64 v=127
96894 On ch=1 n=f#5 v=33
96932 Off ch=1 n=c5 v=64
96952 Off ch=1 n=f#5 v=64
97014 On ch=1 n=g5 v=27
97084 Off ch=1 n=c6 v=64
97124 Off ch=1 n=g5 v=64
97158 On ch=1 n=a#5 v=44
97194 On ch=1 n=c4 v=32
97212 Off ch=1 n=a#5 v=64
97388 On ch=1 n=g#4 v=50
97414 On ch=1 n=d#5 v=7
97474 Off ch=1 n=d#5 v=64
97514 On ch=1 n=f4 v=85
97688 On ch=1 n=e5 v=48
97760 Off ch=1 n=g#4 v=64
97804 Off ch=1 n=f4 v=64
97856 On ch=1 n=g4 v=77
97878 Off ch=1 n=e5 v=64
97892 On ch=1 n=f5 v=40
97898 Off ch=1 n=c4 v=64
98048 On ch=1 n=g#4 v=75
98072 Off ch=1 n=g4 v=64
98090 On ch=1 n=g#5 v=48
98106 Off ch=1 n=f5 v=64
98234 On ch=1 n=c4 v=34
98248 Off ch=1 n=g#4 v=64
98308 On ch=1 n=b4 v=61
98326 Par ch=1 c=64 v=0
98344 Off ch=1 n=g#5 v=64
98368 On ch=1 n=a#4 v=47
98576 On ch=1 n=e5 v=47
98592 Off ch=1 n=a#4 v=64
98604 On ch=1 n=g#4 v=41
98620 Par ch=1 c=64 v=127
98674 Off ch=1 n=g#4 v=64
98700 Off ch=1 n=c4 v=64
98746 On ch=1 n=g4 v=47
98746 On ch=1 n=f5 v=28
98768 Off ch=1 n=e5 v=64
98808 Off ch=1 n=g4 v=64
98844 On ch=1 n=c4 v=2
98866 On ch=1 n=g#5 v=47
98869 Off ch=1 n=b4 v=64
98888 On ch=1 n=f4 v=54
98918 Off ch=1 n=f5 v=64
98960 Off ch=1 n=f4 v=64
99006 Off ch=1 n=g#5 v=64
99008 Par ch=1 c=64 v=0
99022 On ch=1 n=c5 v=55
99044 On ch=1 n=e4 v=44
99188 On ch=1 n=d#5 v=56
99254 Off ch=1 n=c4 v=64
99280 Par ch=1 c=64 v=127
99282 Off ch=1 n=e4 v=64
99304 Off ch=1 n=d#5 v=64
99340 On ch=1 n=e5 v=53
99416 Off ch=1 n=c5 v=64
99444 On ch=1 n=a#3 v=41
99492 On ch=1 n=g5 v=35
99556 Off ch=1 n=e5 v=64
99556 Par ch=1 c=64 v=0
99640 On ch=1 n=e4 v=64
99710 Par ch=1 c=64 v=127
99718 Off ch=1 n=e4 v=64
99744 Off ch=1 n=a#3 v=64
99772 Off ch=1 n=g5 v=64
99802 On ch=1 n=c5 v=52
99888 Off ch=1 n=c5 v=64
99930 On ch=1 n=c#5 v=84
100126 Par ch=1 c=64 v=0
100142 On ch=1 n=a3 v=32
100182 On ch=1 n=e5 v=46
100274 Off ch=1 n=c#5 v=64
100294 Par ch=1 c=64 v=127
100372 Off ch=1 n=e5 v=64
100386 Off ch=1 n=a3 v=64
100442 On ch=1 n=e6 v=84
100510 On ch=1 n=e4 v=31
100662 On ch=1 n=c#5 v=39
100686 Off ch=1 n=e4 v=64
100828 On ch=1 n=e5 v=31
100840 Off ch=1 n=c#5 v=64
100946 Off ch=1 n=e5 v=64
101006 On ch=1 n=c#4 v=26
101008 On ch=1 n=g5 v=34
101148 On ch=1 n=a5 v=67
101172 Off ch=1 n=g5 v=64
101182 Off ch=1 n=c#4 v=64
101202 Off ch=1 n=e6 v=64
101242 On ch=1 n=a4 v=14
101316 On ch=1 n=d#5 v=44
101338 Off ch=1 n=a4 v=64
101416 Off ch=1 n=d#5 v=64
101452 On ch=1 n=e5 v=38
101564 Off ch=1 n=e5 v=64
101576 On ch=1 n=g5 v=37
101603 On ch=1 n=d#4 v=33
101652 Off ch=1 n=g5 v=64
101668 Off ch=1 n=d#4 v=64
101768 On ch=1 n=g4 v=32
101792 On ch=1 n=a#5 v=58
101882 Off ch=1 n=a5 v=64
101892 Par ch=1 c=64 v=0
101970 On ch=1 n=d#5 v=39
102046 Par ch=1 c=64 v=127
102056 Off ch=1 n=d#5 v=64
102076 Off ch=1 n=g4 v=64
102146 On ch=1 n=e5 v=30
102254 Off ch=1 n=e5 v=64
102280 On ch=1 n=g5 v=41
102283 On ch=1 n=a3 v=18
102308 Off ch=1 n=a#5 v=64
102416 Par ch=1 c=64 v=0
102450 On ch=1 n=a5 v=40
102458 Off ch=1 n=g5 v=64
102472 On ch=1 n=e4 v=42
102522 Off ch=1 n=a3 v=64
102598 Par ch=1 c=64 v=127
102666 On ch=1 n=c#5 v=44
102722 Off ch=1 n=c#5 v=64
102730 Off ch=1 n=e4 v=64
102742 On ch=1 n=e5 v=29
102812 Off ch=1 n=e5 v=64
102860 Off ch=1 n=a5 v=64
102860 On ch=1 n=g5 v=54
102882 On ch=1 n=a3 v=42
102914 Off ch=1 n=g5 v=64
103098 On ch=1 n=f4 v=64
103198 On ch=1 n=d4 v=50
103228 Par ch=1 c=64 v=0
103280 Off ch=1 n=f4 v=64
103306 On ch=1 n=c#5 v=42
103352 Par ch=1 c=64 v=127
103408 Off ch=1 n=d4 v=64
103444 On ch=1 n=e4 v=74
103504 Off ch=1 n=a3 v=64
103528 On ch=1 n=d5 v=29
103588 Off ch=1 n=c#5 v=64
103614 Off ch=1 n=e4 v=64
103630 On ch=1 n=f4 v=87
103684 Off ch=1 n=d5 v=64
103708 On ch=1 n=f5 v=22
103720 Off ch=1 n=f4 v=64
103752 On ch=1 n=a3 v=42
103890 Off ch=1 n=f5 v=64
103894 On ch=1 n=g#4 v=46
103904 Par ch=1 c=64 v=0
103918 On ch=1 n=g4 v=43
104100 Off ch=1 n=g4 v=64
104118 On ch=1 n=c#5 v=47
104166 On ch=1 n=f4 v=59
104182 Par ch=1 c=64 v=127
104222 Off ch=1 n=f4 v=64
104266 Off ch=1 n=c#5 v=64
104310 On ch=1 n=d5 v=30
104336 On ch=1 n=e4 v=32
104410 Off ch=1 n=e4 v=64
104418 Off ch=1 n=d5 v=64
104454 On ch=1 n=f5 v=35
104492 Off ch=1 n=g#4 v=64
104495 On ch=1 n=d4 v=25
104600 Off ch=1 n=d4 v=64
104612 Off ch=1 n=f5 v=64
104628 Par ch=1 c=64 v=0
104650 On ch=1 n=a4 v=45
104682 On ch=1 n=c#4 v=35
104890 On ch=1 n=c5 v=22
104992 Off ch=1 n=a3 v=64
104995 Par ch=1 c=64 v=127
105030 Off ch=1 n=c#4 v=64
105036 On ch=1 n=c#5 v=36
105039 Off ch=1 n=c5 v=64
105206 Off ch=1 n=a4 v=64
105220 On ch=1 n=g3 v=29
105232 On ch=1 n=e5 v=39
105294 Off ch=1 n=c#5 v=64
105432 On ch=1 n=e4 v=44
105626 Par ch=1 c=64 v=0
105654 On ch=1 n=a4 v=30
105810 Off ch=1 n=a4 v=64
105842 Par ch=1 c=64 v=127
105870 Off ch=1 n=e4 v=64
105882 On ch=1 n=a#4 v=26
105980 Off ch=1 n=g3 v=64
106152 On ch=1 n=c5 v=32
106170 Off ch=1 n=a#4 v=64
106224 On ch=1 n=f3 v=25
106410 Par ch=1 c=64 v=0
106530 On ch=1 n=c4 v=28
106584 Off ch=1 n=c5 v=64
106598 On ch=1 n=f5 v=48
106780 On ch=1 n=g#4 v=22
106798 Off ch=1 n=e5 v=64
106870 Off ch=1 n=c4 v=64
106878 Off ch=1 n=f3 v=64
106878 Off ch=1 n=g#4 v=64
106886 Par ch=1 c=64 v=127
106936 On ch=1 n=a4 v=30
107062 Off ch=1 n=a4 v=64
107078 On ch=1 n=f3 v=35
107104 On ch=1 n=c5 v=18
107162 Par ch=1 c=64 v=0
107230 On ch=1 n=c4 v=34
107236 Off ch=1 n=f3 v=64
107284 Par ch=1 c=64 v=127
107292 Off ch=1 n=c5 v=64
107352 Off ch=1 n=c4 v=64
107370 On ch=1 n=g#4 v=25
107446 Off ch=1 n=g#4 v=64
107504 On ch=1 n=a4 v=31
107590 Off ch=1 n=a4 v=64
107608 On ch=1 n=c5 v=43
107640 On ch=1 n=d4 v=30
107678 Off ch=1 n=c5 v=64
107746 Par ch=1 c=64 v=0
107764 On ch=1 n=a5 v=65
107806 On ch=1 n=a4 v=17
107854 Off ch=1 n=f5 v=64
107946 Par ch=1 c=64 v=127
107954 On ch=1 n=c#5 v=41
107978 Off ch=1 n=d4 v=64
107984 Off ch=1 n=a4 v=64
108026 Off ch=1 n=c#5 v=64
108052 On ch=1 n=d5 v=38
108148 Off ch=1 n=d5 v=64
108160 On ch=1 n=f5 v=52
108182 On ch=1 n=d4 v=42
108238 Par ch=1 c=64 v=0
108284 Off ch=1 n=f5 v=64
108324 On ch=1 n=a4 v=39
108360 Par ch=1 c=64 v=127
108384 Off ch=1 n=d4 v=64
108450 On ch=1 n=c#5 v=36
108453 Off ch=1 n=a4 v=64
108514 Off ch=1 n=c#5 v=64
108582 On ch=1 n=d5 v=49
108702 Off ch=1 n=d5 v=64
108706 On ch=1 n=f#5 v=41
108718 On ch=1 n=g3 v=54
108768 Par ch=1 c=64 v=0
108844 Off ch=1 n=f#5 v=64
108876 Off ch=1 n=g3 v=64
108929 On ch=1 n=c6 v=73
108929 Par ch=1 c=64 v=127
108954 On ch=1 n=f#4 v=42
109022 Off ch=1 n=f#4 v=64
109024 Off ch=1 n=a5 v=64
109124 On ch=1 n=f#4 v=38
109154 On ch=1 n=c#5 v=44
109234 Off ch=1 n=f#4 v=64
109244 Off ch=1 n=c#5 v=64
109282 On ch=1 n=d5 v=49
109410 On ch=1 n=a5 v=46
109412 On ch=1 n=a#3 v=28
109426 Off ch=1 n=d5 v=64
109468 Par ch=1 c=64 v=0
109554 On ch=1 n=a#5 v=76
109608 Off ch=1 n=a5 v=64
109616 On ch=1 n=g4 v=33
109624 Off ch=1 n=a#3 v=64
109634 Off ch=1 n=c6 v=64
109634 Par ch=1 c=64 v=127
109716 Off ch=1 n=g4 v=64
109728 On ch=1 n=c#5 v=35
109804 Off ch=1 n=c#5 v=64
109834 On ch=1 n=d5 v=45
109942 Off ch=1 n=d5 v=64
109960 On ch=1 n=g5 v=51
109976 On ch=1 n=d4 v=31
110066 Par ch=1 c=64 v=0
110100 On ch=1 n=a5 v=63
110140 On ch=1 n=a4 v=32
110152 Off ch=1 n=g5 v=64
110194 Off ch=1 n=a#5 v=64
110248 Off ch=1 n=a4 v=64
110254 On ch=1 n=c#5 v=39
110274 Off ch=1 n=d4 v=64
110282 Par ch=1 c=64 v=127
110346 Off ch=1 n=c#5 v=64
110370 On ch=1 n=d5 v=50
110464 On ch=1 n=d4 v=38
110496 Par ch=1 c=64 v=0
110498 Off ch=1 n=d5 v=64
110516 On ch=1 n=f#5 v=27
110624 On ch=1 n=a4 v=34
110682 Par ch=1 c=64 v=127
110704 Off ch=1 n=f#5 v=64
110772 Off ch=1 n=d4 v=64
110780 On ch=1 n=c#5 v=35
110800 Off ch=1 n=a4 v=64
110852 Off ch=1 n=c#5 v=64
110916 On ch=1 n=d5 v=32
111018 Off ch=1 n=d5 v=64
111042 On ch=1 n=f#5 v=29
111064 On ch=1 n=a#3 v=36
111108 Off ch=1 n=f#5 v=64
111188 Par ch=1 c=64 v=0
111246 On ch=1 n=a#5 v=60
111290 On ch=1 n=f4 v=42
111340 Off ch=1 n=a5 v=64
111410 On ch=1 n=c#5 v=36
111464 Par ch=1 c=64 v=127
111472 Off ch=1 n=f4 v=64
111478 Off ch=1 n=c#5 v=64
111516 On ch=1 n=d5 v=42
111534 Off ch=1 n=a#3 v=64
111618 Off ch=1 n=d5 v=64
111630 On ch=1 n=d4 v=43
111636 On ch=1 n=f5 v=23
111768 On ch=1 n=f4 v=79
111771 Par ch=1 c=64 v=0
111862 Off ch=1 n=f5 v=64
111888 Off ch=1 n=d4 v=64
111892 On ch=1 n=c#5 v=37
111897 Off ch=1 n=f4 v=64
111926 Par ch=1 c=64 v=127
112006 On ch=1 n=d5 v=48
112012 Off ch=1 n=c#5 v=64
112122 On ch=1 n=f5 v=46
112130 Off ch=1 n=d5 v=64
112140 On ch=1 n=a4 v=40
112178 Off ch=1 n=f5 v=64
112306 On ch=1 n=d6 v=88
112326 Par ch=1 c=64 v=0
112340 On ch=1 n=a#4 v=10
112414 Off ch=1 n=a#5 v=64
112428 On ch=1 n=d5 v=42
112470 Off ch=1 n=a#4 v=64
112524 Par ch=1 c=64 v=127
112536 Off ch=1 n=d5 v=64
112542 On ch=1 n=f5 v=55
112612 Off ch=1 n=a4 v=64
112658 Off ch=1 n=f5 v=64
112661 On ch=1 n=a#5 v=50
112690 On ch=1 n=g4 v=49
112818 Off ch=1 n=a#5 v=64
112824 On ch=1 n=a#4 v=43
112848 Par ch=1 c=64 v=0
112962 On ch=1 n=d5 v=44
112994 Off ch=1 n=g4 v=64
113016 Par ch=1 c=64 v=127
113046 Off ch=1 n=a#4 v=64
113058 Off ch=1 n=d5 v=64
113058 On ch=1 n=f5 v=52
113144 On ch=1 n=f4 v=88
113174 On ch=1 n=a#5 v=60
113182 Off ch=1 n=f5 v=64
113190 Off ch=1 n=f4 v=64
113250 Off ch=1 n=a#5 v=64
113288 Off ch=1 n=d6 v=64
113310 On ch=1 n=e4 v=68
113436 On ch=1 n=g6 v=102
113540 Par ch=1 c=64 v=0
113552 On ch=1 n=c5 v=43
113672 On ch=1 n=f#5 v=44
113738 Par ch=1 c=64 v=127
113770 Off ch=1 n=e4 v=64
113770 Off ch=1 n=c5 v=64
113782 Off ch=1 n=f#5 v=64
113786 On ch=1 n=g5 v=53
113912 On ch=1 n=a#5 v=52
113940 On ch=1 n=f4 v=73
113982 Off ch=1 n=g6 v=64
114056 Off ch=1 n=g5 v=64
114096 On ch=1 n=f6 v=92
114114 On ch=1 n=c5 v=41
114144 Off ch=1 n=a#5 v=64
114154 Par ch=1 c=64 v=0
114234 Off ch=1 n=c5 v=64
114244 On ch=1 n=f#5 v=47
114326 Off ch=1 n=f#5 v=64
114338 Par ch=1 c=64 v=127
114350 On ch=1 n=g5 v=53
114424 Off ch=1 n=f4 v=64
114438 On ch=1 n=g4 v=53
114468 Off ch=1 n=g5 v=64
114468 On ch=1 n=a#5 v=61
114526 Off ch=1 n=a#5 v=64
114592 On ch=1 n=e6 v=88
114614 Par ch=1 c=64 v=0
114624 On ch=1 n=c5 v=29
114690 Off ch=1 n=f6 v=64
114716 On ch=1 n=f#5 v=37
114722 Off ch=1 n=c5 v=64
114798 Par ch=1 c=64 v=127
114802 Off ch=1 n=g4 v=64
114804 Off ch=1 n=f#5 v=64
114840 On ch=1 n=g5 v=43
114956 On ch=1 n=a#4 v=40
114968 On ch=1 n=c6 v=62
114996 Off ch=1 n=g5 v=64
115016 Off ch=1 n=c6 v=64
115150 On ch=1 n=d6 v=98
115166 On ch=1 n=c5 v=38
115244 Par ch=1 c=64 v=0
115260 Off ch=1 n=e6 v=64
115286 Off ch=1 n=c5 v=64
115312 On ch=1 n=e5 v=44
115400 Off ch=1 n=e5 v=64
115400 On ch=1 n=g5 v=52
115412 Par ch=1 c=64 v=127
115518 On ch=1 n=c6 v=93
115524 Off ch=1 n=g5 v=64
115542 Off ch=1 n=a#4 v=64
115542 On ch=1 n=a4 v=41
115598 Off ch=1 n=d6 v=64
115744 On ch=1 n=f6 v=97
115774 On ch=1 n=c5 v=32
115794 Off ch=1 n=c6 v=64
115798 Par ch=1 c=64 v=0
115938 On ch=1 n=e5 v=44
115998 Par ch=1 c=64 v=127
116040 Off ch=1 n=a4 v=64
116048 On ch=1 n=f5 v=50
116054 Off ch=1 n=c5 v=64
116062 Off ch=1 n=e5 v=64
116132 Off ch=1 n=f5 v=64
116194 On ch=1 n=c6 v=43
116197 On ch=1 n=a4 v=28
116280 Off ch=1 n=c6 v=64
116288 On ch=1 n=e6 v=87
116336 Par ch=1 c=64 v=0
116346 On ch=1 n=c5 v=50
116348 Off ch=1 n=f6 v=64
116458 Par ch=1 c=64 v=127
116474 On ch=1 n=e5 v=45
116508 Off ch=1 n=c5 v=64
116562 Off ch=1 n=e5 v=64
116574 On ch=1 n=f5 v=48
116668 Off ch=1 n=f5 v=64
116680 On ch=1 n=c6 v=52
116688 Off ch=1 n=a4 v=64
116710 On ch=1 n=a#4 v=44
116740 Off ch=1 n=c6 v=64
116800 On ch=1 n=d6 v=88
116812 Par ch=1 c=64 v=0
116870 On ch=1 n=d5 v=51
116916 Off ch=1 n=e6 v=64
116984 Off ch=1 n=d5 v=64
116988 On ch=1 n=e5 v=49
117026 Par ch=1 c=64 v=127
117056 On ch=1 n=f5 v=37
117058 Off ch=1 n=e5 v=64
117101 Off ch=1 n=a#4 v=64
117168 On ch=1 n=a#5 v=46
117176 Off ch=1 n=f5 v=64
117214 On ch=1 n=a4 v=48
117340 Off ch=1 n=a#5 v=64
117350 Par ch=1 c=64 v=0
117358 On ch=1 n=a#4 v=42
117486 On ch=1 n=e5 v=54
117524 Off ch=1 n=a#4 v=64
117534 Par ch=1 c=64 v=127
117552 Off ch=1 n=e5 v=64
117618 On ch=1 n=f5 v=51
117662 Off ch=1 n=a4 v=64
117730 On ch=1 n=a#5 v=55
117740 Off ch=1 n=f5 v=64
117782 On ch=1 n=g4 v=47
117858 Off ch=1 n=a#5 v=64
117954 On ch=1 n=e6 v=78
117980 Par ch=1 c=64 v=0
117990 On ch=1 n=a#4 v=29
118074 Off ch=1 n=d6 v=64
118128 On ch=1 n=d#5 v=40
118170 Off ch=1 n=g4 v=64
118194 Par ch=1 c=64 v=127
118238 Off ch=1 n=d#5 v=64
118262 On ch=1 n=e5 v=47
118272 Off ch=1 n=a#4 v=64
118364 Off ch=1 n=e5 v=64
118384 On ch=1 n=a#5 v=43
118434 On ch=1 n=g4 v=48
118502 Par ch=1 c=64 v=0
118508 Off ch=1 n=a#5 v=64
118522 On ch=1 n=d6 v=79
118560 On ch=1 n=a#4 v=36
118594 Off ch=1 n=e6 v=64
118672 On ch=1 n=d#5 v=51
118686 Par ch=1 c=64 v=127
118696 Off ch=1 n=g4 v=64
118742 Off ch=1 n=d#5 v=64
118782 Off ch=1 n=a#4 v=64
118814 On ch=1 n=e5 v=34
118890 On ch=1 n=a#5 v=58
118928 Off ch=1 n=e5 v=64
118936 On ch=1 n=a4 v=47
119008 Par ch=1 c=64 v=0
119012 Off ch=1 n=a#5 v=64
119032 On ch=1 n=c6 v=80
119086 On ch=1 n=c5 v=46
119166 Off ch=1 n=d6 v=64
119208 On ch=1 n=d#5 v=50
119254 Off ch=1 n=c5 v=64
119254 Par ch=1 c=64 v=127
119274 Off ch=1 n=a4 v=64
119286 Off ch=1 n=d#5 v=64
119316 On ch=1 n=e5 v=50
119416 Off ch=1 n=e5 v=64
119452 On ch=1 n=g4 v=41
119454 On ch=1 n=a5 v=30
119530 Par ch=1 c=64 v=0
119588 On ch=1 n=a4 v=36
119634 Off ch=1 n=a5 v=64
119716 On ch=1 n=d#5 v=37
119732 Par ch=1 c=64 v=127
119738 Off ch=1 n=g4 v=64
119774 Off ch=1 n=a4 v=64
119836 Off ch=1 n=d#5 v=64
119862 On ch=1 n=e5 v=40
119952 Off ch=1 n=e5 v=64
119960 On ch=1 n=a5 v=39
120012 On ch=1 n=f#4 v=26
120042 Off ch=1 n=a5 v=64
120130 Par ch=1 c=64 v=0
120178 On ch=1 n=d6 v=66
120224 On ch=1 n=a4 v=32
120246 Off ch=1 n=c6 v=64
120314 Off ch=1 n=a4 v=64
120376 Par ch=1 c=64 v=127
120402 On ch=1 n=c#5 v=20
120472 Off ch=1 n=c#5 v=64
120484 On ch=1 n=d5 v=34
120554 Off ch=1 n=f#4 v=64
120640 Off ch=1 n=d5 v=64
120646 Off ch=1 n=d6 v=64
120662 On ch=1 n=a5 v=16
120664 On ch=1 n=d4 v=30
120816 On ch=1 n=c6 v=53
120832 On ch=1 n=a4 v=22
120852 Par ch=1 c=64 v=0
120894 Off ch=1 n=a5 v=64
120976 On ch=1 n=c5 v=38
121054 Off ch=1 n=a4 v=64
121076 On ch=1 n=d5 v=37
121082 Par ch=1 c=64 v=127
121112 Off ch=1 n=c5 v=64
121152 Off ch=1 n=d4 v=64
121187 Off ch=1 n=d5 v=64
121187 On ch=1 n=f#5 v=29
121252 On ch=1 n=g4 v=41
121304 On ch=1 n=a#5 v=51
121314 Par ch=1 c=64 v=0
121342 Off ch=1 n=f#5 v=64
121380 On ch=1 n=a#4 v=34
121420 Off ch=1 n=c6 v=64
121500 Off ch=1 n=a#4 v=64
121502 On ch=1 n=c#5 v=46
121544 Par ch=1 c=64 v=127
121564 Off ch=1 n=c#5 v=64
121580 Off ch=1 n=g4 v=64
121616 On ch=1 n=d5 v=32
121716 On ch=1 n=a#3 v=51
121730 On ch=1 n=g5 v=30
121818 Off ch=1 n=a#5 v=64
121884 Off ch=1 n=d5 v=64
121958 On ch=1 n=a5 v=50
121958 Par ch=1 c=64 v=0
121985 On ch=1 n=f#4 v=46
122022 Off ch=1 n=g5 v=64
122126 Off ch=1 n=a#3 v=64
122144 Par ch=1 c=64 v=127
122162 On ch=1 n=c5 v=42
122198 Off ch=1 n=f#4 v=64
122304 On ch=1 n=d5 v=34
122342 Off ch=1 n=c5 v=64
122424 Off ch=1 n=d5 v=64
122434 On ch=1 n=g4 v=28
122440 On ch=1 n=a#4 v=31
122446 On ch=1 n=g5 v=54
122470 Off ch=1 n=a5 v=64
122588 Par ch=1 c=64 v=0
122590 Off ch=1 n=a#4 v=64
122602 Off ch=1 n=g4 v=64
122654 On ch=1 n=c6 v=55
122657 On ch=1 n=f5 v=30
122664 On ch=1 n=c5 v=28
122669 On ch=1 n=a4 v=36
122672 On ch=1 n=c4 v=27
122684 Off ch=1 n=g5 v=64
122804 Off ch=1 n=c5 v=64
122824 Off ch=1 n=c4 v=64
122835 Off ch=1 n=a4 v=64
122850 Par ch=1 c=64 v=127
122858 Off ch=1 n=c6 v=64
122884 Off ch=1 n=f5 v=64
123004 Par ch=1 c=64 v=0
123304 On ch=1 n=c5 v=19
123306 On ch=1 n=a#4 v=28
123306 On ch=1 n=c4 v=29
123308 On ch=1 n=e5 v=42
123310 On ch=1 n=g4 v=27
123416 Off ch=1 n=c5 v=64
123452 Off ch=1 n=g4 v=64
123506 Off ch=1 n=c4 v=64
123509 Par ch=1 c=64 v=127
123514 Off ch=1 n=a#4 v=64
123562 Off ch=1 n=e5 v=64
123742 Par ch=1 c=64 v=0
123988 On ch=1 n=f5 v=27
123997 On ch=1 n=a4 v=24
123997 On ch=1 n=f3 v=32
124001 On ch=1 n=c5 v=15
124111 Par ch=1 c=64 v=127
124123 Off ch=1 n=f3 v=64
124200 On ch=1 n=f4 v=38
124286 Off ch=1 n=f4 v=64
124384 On ch=1 n=f#4 v=34
124396 On ch=1 n=d#4 v=22
124478 Off ch=1 n=d#4 v=64
124494 Off ch=1 n=f#4 v=64
124540 On ch=1 n=f4 v=52
124565 Off ch=1 n=a4 v=64
124565 Off ch=1 n=c5 v=64
124600 Off ch=1 n=f4 v=64
124652 On ch=1 n=f#4 v=53
124657 On ch=1 n=d#4 v=39
124664 Par ch=1 c=64 v=0
124674 Off ch=1 n=f5 v=64
124726 Off ch=1 n=d#4 v=64
124734 Off ch=1 n=f#4 v=64
124776 On ch=1 n=f4 v=71
124844 Off ch=1 n=f4 v=64
124878 On ch=1 n=a4 v=57
124878 On ch=1 n=c5 v=64
124898 On ch=1 n=f#4 v=51
124904 On ch=1 n=d#4 v=46
124936 Off ch=1 n=a4 v=64
124958 Off ch=1 n=c5 v=64
124968 Off ch=1 n=f#4 v=64
124971 Off ch=1 n=d#4 v=64
125022 On ch=1 n=f4 v=76
125082 Off ch=1 n=f4 v=64
125118 On ch=1 n=c#5 v=83
125126 On ch=1 n=a#4 v=56
125142 On ch=1 n=c#4 v=48
125152 On ch=1 n=f#4 v=40
125194 Off ch=1 n=a#4 v=64
125214 Off ch=1 n=c#4 v=64
125222 Off ch=1 n=c#5 v=64
125232 Off ch=1 n=f#4 v=64
125280 On ch=1 n=f4 v=53
125340 Off ch=1 n=f4 v=64
125386 On ch=1 n=d#5 v=69
125400 On ch=1 n=c4 v=34
125400 On ch=1 n=c5 v=50
125408 On ch=1 n=f#4 v=36
125462 Off ch=1 n=c5 v=64
125468 Off ch=1 n=c4 v=64
125474 Off ch=1 n=d#5 v=64
125486 Off ch=1 n=f#4 v=64
125528 On ch=1 n=f4 v=58
125598 Off ch=1 n=f4 v=64
125634 On ch=1 n=f5 v=57
125640 On ch=1 n=c#5 v=42
125654 On ch=1 n=f#4 v=40
125657 On ch=1 n=a#3 v=35
125700 Off ch=1 n=c#5 v=64
125712 Off ch=1 n=f5 v=64
125718 Off ch=1 n=f#4 v=64
125721 Off ch=1 n=a#3 v=64
125780 On ch=1 n=f4 v=58
125850 Off ch=1 n=f4 v=64
125884 On ch=1 n=f#5 v=52
125884 On ch=1 n=a3 v=54
125894 On ch=1 n=d#5 v=57
125898 On ch=1 n=f#4 v=32
125942 Off ch=1 n=d#5 v=64
125954 Off ch=1 n=a3 v=64
125970 Off ch=1 n=f#4 v=64
125984 Off ch=1 n=f#5 v=64
126008 On ch=1 n=f4 v=76
126071 Off ch=1 n=f4 v=64
126140 On ch=1 n=c#5 v=49
126142 On ch=1 n=f5 v=53
126162 On ch=1 n=f#4 v=38
126166 On ch=1 n=a#3 v=36
126210 Off ch=1 n=c#5 v=64
126218 Off ch=1 n=f5 v=64
126228 Off ch=1 n=f#4 v=64
126238 Off ch=1 n=a#3 v=64
126290 On ch=1 n=f4 v=60
126342 Off ch=1 n=f4 v=64
126384 On ch=1 n=d#5 v=56
126384 On ch=1 n=c4 v=49
126404 On ch=1 n=c5 v=39
126409 On ch=1 n=f#4 v=31
126458 Off ch=1 n=c4 v=64
126474 Off ch=1 n=d#5 v=64
126474 Off ch=1 n=c5 v=64
126474 Off ch=1 n=f#4 v=64
126530 On ch=1 n=f4 v=68
126578 Off ch=1 n=f4 v=64
126624 On ch=1 n=c#5 v=60
126624 On ch=1 n=c#4 v=53
126624 On ch=1 n=a#4 v=36
126648 On ch=1 n=f#4 v=42
126682 Off ch=1 n=c#4 v=64
126696 Off ch=1 n=c#5 v=64
126708 Off ch=1 n=a#4 v=64
126716 Off ch=1 n=f#4 v=64
126758 On ch=1 n=f4 v=74
126808 Off ch=1 n=f4 v=64
126864 On ch=1 n=d#4 v=59
126864 On ch=1 n=c5 v=69
126867 On ch=1 n=a4 v=57
126872 On ch=1 n=f#4 v=25
126920 Off ch=1 n=a4 v=64
126926 Off ch=1 n=d#4 v=64
126936 Off ch=1 n=f#4 v=64
126952 Off ch=1 n=c5 v=64
126982 On ch=1 n=f4 v=70
127042 Off ch=1 n=f4 v=64
127098 On ch=1 n=a#4 v=48
127100 On ch=1 n=c#5 v=72
127102 On ch=1 n=c#4 v=51
127108 On ch=1 n=f#4 v=36
127148 Off ch=1 n=c#5 v=64
127160 Off ch=1 n=a#4 v=64
127164 Off ch=1 n=c#4 v=64
127174 Off ch=1 n=f#4 v=64
127228 On ch=1 n=f4 v=61
127290 Off ch=1 n=f4 v=64
127334 On ch=1 n=a#5 v=65
127340 On ch=1 n=a#3 v=39
127342 On ch=1 n=c#5 v=70
127392 Off ch=1 n=a#5 v=64
127408 Off ch=1 n=a#3 v=64
127408 Off ch=1 n=c#5 v=64
127476 On ch=1 n=f4 v=61
127534 Off ch=1 n=f4 v=64
127590 On ch=1 n=a#4 v=47
127596 On ch=1 n=c#5 v=61
127608 On ch=1 n=f#4 v=29
127611 On ch=1 n=c#4 v=35
127648 Off ch=1 n=c#5 v=64
127654 Off ch=1 n=a#4 v=64
127684 Off ch=1 n=f#4 v=64
127684 Off ch=1 n=c#4 v=64
127716 On ch=1 n=f4 v=69
127778 Off ch=1 n=f4 v=64
127830 On ch=1 n=a#5 v=51
127840 On ch=1 n=c#5 v=58
127850 On ch=1 n=f#4 v=48
127866 On ch=1 n=a#3 v=31
127908 Off ch=1 n=f#4 v=64
127910 Off ch=1 n=a#5 v=64
127912 Off ch=1 n=c#5 v=64
127938 Off ch=1 n=a#3 v=64
127970 On ch=1 n=f4 v=67
128046 Off ch=1 n=f4 v=64
128104 On ch=1 n=a5 v=54
128114 On ch=1 n=c5 v=49
128114 On ch=1 n=f3 v=54
128182 Par ch=1 c=64 v=127
128186 Off ch=1 n=f3 v=64
128264 On ch=1 n=f4 v=65
128324 Off ch=1 n=f4 v=64
128406 On ch=1 n=f#4 v=37
128416 On ch=1 n=d#4 v=22
128480 Off ch=1 n=f#4 v=64
128486 Off ch=1 n=a5 v=64
128488 Off ch=1 n=d#4 v=64
128522 On ch=1 n=f4 v=53
128546 Off ch=1 n=c5 v=64
128580 Off ch=1 n=f4 v=64
128582 Par ch=1 c=64 v=0
128646 On ch=1 n=d#4 v=53
128650 On ch=1 n=f#4 v=45
128704 Off ch=1 n=d#4 v=64
128709 Off ch=1 n=f#4 v=64
128754 On ch=1 n=f4 v=76
128802 Off ch=1 n=f4 v=64
128846 On ch=1 n=a4 v=55
128848 On ch=1 n=c5 v=79
128870 On ch=1 n=d#4 v=44
128884 On ch=1 n=f#4 v=43
128914 Off ch=1 n=a4 v=64
128934 Off ch=1 n=d#4 v=64
128944 Off ch=1 n=f#4 v=64
128950 Off ch=1 n=c5 v=64
128980 On ch=1 n=f4 v=72
129040 Off ch=1 n=f4 v=64
129080 On ch=1 n=c#5 v=79
129082 On ch=1 n=a#4 v=66
129090 On ch=1 n=c#4 v=54
129148 Off ch=1 n=c#4 v=64
129148 On ch=1 n=f#4 v=30
129151 Off ch=1 n=a#4 v=64
129210 Off ch=1 n=c#5 v=64
129212 Off ch=1 n=f#4 v=64
129226 On ch=1 n=f4 v=69
129292 Off ch=1 n=f4 v=64
129328 On ch=1 n=d#5 v=64
129331 On ch=1 n=c5 v=56
129352 On ch=1 n=c4 v=36
129356 On ch=1 n=f#4 v=42
129398 Off ch=1 n=c5 v=64
129420 Off ch=1 n=c4 v=64
129423 Off ch=1 n=f#4 v=64
129468 On ch=1 n=f4 v=71
129482 Off ch=1 n=d#5 v=64
129520 Off ch=1 n=f4 v=64
129572 On ch=1 n=a#3 v=48
129580 On ch=1 n=c#5 v=62
129586 On ch=1 n=f5 v=62
129592 On ch=1 n=f#4 v=43
129630 Off ch=1 n=a#3 v=64
129638 Off ch=1 n=c#5 v=64
129642 Off ch=1 n=f5 v=64
129656 Off ch=1 n=f#4 v=64
129696 On ch=1 n=f4 v=65
129746 Off ch=1 n=f4 v=64
129804 On ch=1 n=a3 v=47
129818 On ch=1 n=d#5 v=62
129818 On ch=1 n=f#5 v=51
129832 On ch=1 n=f#4 v=47
129866 Off ch=1 n=a3 v=64
129869 Off ch=1 n=d#5 v=64
129894 Off ch=1 n=f#4 v=64
129908 Off ch=1 n=f#5 v=64
129934 On ch=1 n=f4 v=76
129986 Off ch=1 n=f4 v=64
130050 On ch=1 n=f5 v=59
130052 On ch=1 n=c#5 v=56
130054 On ch=1 n=a#3 v=41
130060 On ch=1 n=f#4 v=44
130112 Off ch=1 n=f5 v=64
130115 Off ch=1 n=c#5 v=64
130120 Off ch=1 n=a#3 v=64
130122 Off ch=1 n=f#4 v=64
130166 On ch=1 n=f4 v=72
130226 Off ch=1 n=f4 v=64
130284 On ch=1 n=d#5 v=59
130284 On ch=1 n=c5 v=53
130288 On ch=1 n=c4 v=37
130290 On ch=1 n=f#4 v=54
130364 Off ch=1 n=c5 v=64
130364 Off ch=1 n=c4 v=64
130364 Off ch=1 n=f#4 v=64
130376 Off ch=1 n=d#5 v=64
130414 On ch=1 n=f4 v=66
130474 Off ch=1 n=f4 v=64
130518 On ch=1 n=a#4 v=45
130522 On ch=1 n=c#5 v=58
130528 On ch=1 n=f#4 v=55
130542 On ch=1 n=c#4 v=38
130592 Off ch=1 n=c#5 v=64
130606 Off ch=1 n=f#4 v=64
130608 Off ch=1 n=c#4 v=64
130636 Off ch=1 n=a#4 v=64
130662 On ch=1 n=f4 v=62
130728 Off ch=1 n=f4 v=64
130778 On ch=1 n=c5 v=60
130778 On ch=1 n=a4 v=53
130781 On ch=1 n=f#4 v=38
130792 On ch=1 n=d#4 v=42
130830 Off ch=1 n=a4 v=64
130846 Off ch=1 n=c5 v=64
130852 Off ch=1 n=d#4 v=64
130856 Off ch=1 n=f#4 v=64
130908 On ch=1 n=f4 v=64
130964 Off ch=1 n=f4 v=64
131002 On ch=1 n=c#4 v=50
131008 On ch=1 n=c#5 v=73
131014 On ch=1 n=a#4 v=44
131066 Off ch=1 n=c#5 v=64
131076 Off ch=1 n=c#4 v=64
131079 Off ch=1 n=a#4 v=64
131126 On ch=1 n=f4 v=49
131194 Off ch=1 n=f4 v=64
131234 On ch=1 n=a#5 v=59
131238 On ch=1 n=a#3 v=32
131238 On ch=1 n=c#5 v=58
131266 On ch=1 n=f#4 v=39
131306 Off ch=1 n=a#5 v=64
131306 Off ch=1 n=c#5 v=64
131322 Off ch=1 n=a#3 v=64
131328 Off ch=1 n=f#4 v=64
131386 On ch=1 n=f4 v=58
131440 Off ch=1 n=f4 v=64
131476 On ch=1 n=a#4 v=44
131478 On ch=1 n=c#4 v=51
131484 On ch=1 n=c#5 v=57
131502 On ch=1 n=f#4 v=42
131542 Off ch=1 n=a#4 v=64
131542 Off ch=1 n=c#5 v=64
131548 Off ch=1 n=c#4 v=64
131584 Off ch=1 n=f#4 v=64
131618 On ch=1 n=f4 v=74
131676 Off ch=1 n=f4 v=64
131722 On ch=1 n=a#5 v=54
131738 On ch=1 n=c#5 v=59
131744 On ch=1 n=f#4 v=52
131782 On ch=1 n=a#3 v=13
131794 Off ch=1 n=f#4 v=64
131800 Off ch=1 n=c#5 v=64
131806 Off ch=1 n=a#5 v=64
131854 Off ch=1 n=a#3 v=64
131870 On ch=1 n=f4 v=56
131936 Off ch=1 n=f4 v=64
131992 Par ch=1 c=64 v=127
131998 On ch=1 n=f3 v=54
131998 On ch=1 n=c5 v=51
131998 On ch=1 n=a5 v=58
132056 Off ch=1 n=f3 v=64
132118 On ch=1 n=f4 v=55
132170 Off ch=1 n=f4 v=64
132210 On ch=1 n=e4 v=71
132238 Par ch=1 c=64 v=0
132258 Off ch=1 n=e4 v=64
132342 On ch=1 n=f4 v=49
132404 Off ch=1 n=f4 v=64
132420 On ch=1 n=b3 v=67
132490 Off ch=1 n=b3 v=64
132538 On ch=1 n=f4 v=50
132604 Off ch=1 n=f4 v=64
132636 On ch=1 n=c4 v=51
132692 Off ch=1 n=c4 v=64
132762 On ch=1 n=f4 v=64
132830 Off ch=1 n=f4 v=64
132864 On ch=1 n=g#3 v=60
132956 Off ch=1 n=g#3 v=64
132970 On ch=1 n=f4 v=64
133038 Off ch=1 n=f4 v=64
133056 On ch=1 n=a3 v=49
133178 Off ch=1 n=a3 v=64
133188 On ch=1 n=f4 v=57
133248 Off ch=1 n=f4 v=64
133302 On ch=1 n=e3 v=87
133424 On ch=1 n=f4 v=65
133427 Off ch=1 n=e3 v=64
133484 Off ch=1 n=f4 v=64
133528 On ch=1 n=f3 v=65
133614 Off ch=1 n=f3 v=64
133648 Off ch=1 n=c5 v=64
133656 Off ch=1 n=a5 v=64
133666 On ch=1 n=f4 v=41
133666 Par ch=1 c=64 v=127
133726 Off ch=1 n=f4 v=64
133766 On ch=1 n=a5 v=35
133771 On ch=1 n=c6 v=88
133780 On ch=1 n=c5 v=73
133820 Par ch=1 c=64 v=0
133906 On ch=1 n=f4 v=70
133960 Off ch=1 n=f4 v=64
134010 On ch=1 n=e4 v=65
134070 Off ch=1 n=e4 v=64
134130 On ch=1 n=f4 v=83
134190 Off ch=1 n=f4 v=64
134240 On ch=1 n=b3 v=70
134328 Off ch=1 n=b3 v=64
134358 On ch=1 n=f4 v=72
134410 Off ch=1 n=f4 v=64
134450 On ch=1 n=c4 v=56
134514 Off ch=1 n=c4 v=64
134572 On ch=1 n=f4 v=71
134628 Off ch=1 n=f4 v=64
134666 On ch=1 n=g#3 v=80
134796 Off ch=1 n=g#3 v=64
134818 On ch=1 n=f4 v=48
134876 On ch=1 n=a3 v=50
134879 Off ch=1 n=f4 v=64
134980 On ch=1 n=f4 v=63
134983 Off ch=1 n=a3 v=64
135054 Off ch=1 n=f4 v=64
135096 On ch=1 n=e3 v=84
135210 Off ch=1 n=e3 v=64
135213 On ch=1 n=f4 v=74
135264 Off ch=1 n=f4 v=64
135354 On ch=1 n=f3 v=57
135430 Off ch=1 n=f3 v=64
135462 On ch=1 n=f4 v=57
135496 Par ch=1 c=64 v=127
135516 Off ch=1 n=f4 v=64
135536 Off ch=1 n=c6 v=64
135539 Off ch=1 n=c5 v=64
135696 Par ch=1 c=64 v=0
135724 On ch=1 n=c#6 v=60
135730 On ch=1 n=c#3 v=45
135734 On ch=1 n=c#5 v=43
135746 On ch=1 n=g#5 v=43
135786 Off ch=1 n=a5 v=64
135876 Off ch=1 n=c#3 v=64
135880 Par ch=1 c=64 v=127
135992 On ch=1 n=f4 v=48
136056 Off ch=1 n=f4 v=64
136130 On ch=1 n=e4 v=27
136194 Off ch=1 n=e4 v=64
136246 On ch=1 n=f4 v=51
136304 Off ch=1 n=f4 v=64
136340 On ch=1 n=c4 v=45
136420 Off ch=1 n=c4 v=64
136468 On ch=1 n=f4 v=62
136522 Off ch=1 n=f4 v=64
136540 Par ch=1 c=64 v=0
136554 On ch=1 n=c#4 v=46
136616 Off ch=1 n=c#4 v=64
136618 Par ch=1 c=64 v=127
136662 Par ch=1 c=64 v=0
136664 On ch=1 n=f4 v=64
136724 Off ch=1 n=f4 v=64
136764 On ch=1 n=g3 v=63
136874 Off ch=1 n=g3 v=64
136898 On ch=1 n=f4 v=57
136956 Off ch=1 n=f4 v=64
136968 On ch=1 n=g#3 v=64
137048 Off ch=1 n=g#3 v=64
137088 On ch=1 n=f4 v=56
137094 Par ch=1 c=64 v=127
137140 Off ch=1 n=f4 v=64
137156 Par ch=1 c=64 v=0
137194 On ch=1 n=e3 v=87
137280 Off ch=1 n=e3 v=64
137312 On ch=1 n=f4 v=81
137400 Off ch=1 n=f4 v=64
137450 On ch=1 n=f3 v=52
137508 Off ch=1 n=f3 v=64
137540 Par ch=1 c=64 v=127
137554 On ch=1 n=f4 v=53
137614 Off ch=1 n=f4 v=64
137662 Par ch=1 c=64 v=0
137726 On ch=1 n=c#3 v=69
137729 On ch=1 n=f3 v=71
137816 Off ch=1 n=g#5 v=64
137824 Off ch=1 n=f3 v=64
137842 Off ch=1 n=c#6 v=64
137846 Par ch=1 c=64 v=127
137872 On ch=1 n=e3 v=84
137890 Off ch=1 n=c#5 v=64
137910 Off ch=1 n=c#3 v=64
137990 Off ch=1 n=e3 v=64
138004 On ch=1 n=f3 v=61
138054 Off ch=1 n=f3 v=64
138082 On ch=1 n=g3 v=55
138198 On ch=1 n=g#3 v=76
138198 Par ch=1 c=64 v=0
138201 On ch=1 n=f4 v=97
138208 Off ch=1 n=g3 v=64
138296 On ch=1 n=g3 v=62
138304 Off ch=1 n=f4 v=64
138313 Off ch=1 n=g#3 v=64
138322 On ch=1 n=e4 v=81
138392 Off ch=1 n=e4 v=64
138418 On ch=1 n=f4 v=83
138430 On ch=1 n=g#3 v=64
138440 Off ch=1 n=g3 v=64
138524 Off ch=1 n=f4 v=64
138528 On ch=1 n=a#3 v=71
138530 On ch=1 n=g4 v=75
138558 Off ch=1 n=g#3 v=64
138642 Off ch=1 n=g4 v=64
138642 On ch=1 n=g#4 v=70
138658 Off ch=1 n=a#3 v=64
138672 On ch=1 n=b3 v=69
138748 On ch=1 n=g4 v=57
138762 Off ch=1 n=g#4 v=64
138770 On ch=1 n=g#3 v=63
138796 Off ch=1 n=b3 v=64
138852 On ch=1 n=g#4 v=59
138878 On ch=1 n=f3 v=67
138886 Off ch=1 n=g4 v=64
138894 Off ch=1 n=g#3 v=64
138936 Off ch=1 n=f3 v=64
138968 On ch=1 n=c#3 v=74
138971 On ch=1 n=a#4 v=66
139002 Off ch=1 n=g#4 v=64
139020 Off ch=1 n=c#3 v=64
139090 Par ch=1 c=64 v=127
139092 On ch=1 n=b4 v=82
139104 On ch=1 n=f4 v=105
139142 Off ch=1 n=a#4 v=64
139148 Off ch=1 n=f4 v=64
139208 On ch=1 n=g#4 v=77
139234 Off ch=1 n=b4 v=64
139316 On ch=1 n=f4 v=94
139340 Off ch=1 n=g#4 v=64
139422 Off ch=1 n=f4 v=64
139435 On ch=1 n=c#4 v=69
139559 Off ch=1 n=c#4 v=64
139584 Par ch=1 c=64 v=0
139604 On ch=1 n=c#4 v=56
139607 On ch=1 n=f5 v=87
139614 On ch=1 n=f4 v=97
139744 Off ch=1 n=f4 v=64
139748 On ch=1 n=e4 v=79
139812 Off ch=1 n=c#4 v=64
139824 Off ch=1 n=f5 v=64
139828 Par ch=1 c=64 v=127
139838 On ch=1 n=f4 v=91
139860 Off ch=1 n=e4 v=64
139920 Par ch=1 c=64 v=0
139926 Off ch=1 n=f4 v=64
139948 On ch=1 n=g4 v=76
140060 On ch=1 n=f5 v=83
140062 On ch=1 n=g#4 v=72
140068 Off ch=1 n=g4 v=64
140166 Off ch=1 n=f5 v=64
140174 On ch=1 n=e5 v=77
140188 On ch=1 n=g4 v=76
140200 Off ch=1 n=g#4 v=64
140290 Off ch=1 n=e5 v=64
140298 On ch=1 n=f5 v=67
140301 On ch=1 n=g#4 v=66
140338 Off ch=1 n=g4 v=64
140400 On ch=1 n=g5 v=75
140414 On ch=1 n=a#4 v=66
140424 Off ch=1 n=g#4 v=64
140440 Off ch=1 n=f5 v=64
140512 On ch=1 n=g#5 v=78
140524 Off ch=1 n=a#4 v=64
140527 On ch=1 n=b4 v=72
140532 Off ch=1 n=g5 v=64
140616 On ch=1 n=g5 v=62
140622 On ch=1 n=g#4 v=73
140652 Off ch=1 n=g#5 v=64
140660 Off ch=1 n=b4 v=64
140714 On ch=1 n=g#5 v=69
140734 On ch=1 n=f4 v=89
140766 Off ch=1 n=g#4 v=64
140768 Off ch=1 n=g5 v=64
140818 Off ch=1 n=f4 v=64
140826 On ch=1 n=c#4 v=66
140830 On ch=1 n=a#5 v=72
140868 Off ch=1 n=g#5 v=64
140876 Off ch=1 n=c#4 v=64
140904 Par ch=1 c=64 v=127
140956 On ch=1 n=b5 v=94
140964 On ch=1 n=f5 v=84
141014 Off ch=1 n=a#5 v=64
141020 Off ch=1 n=f5 v=64
141096 On ch=1 n=g#5 v=76
141162 Off ch=1 n=b5 v=64
141206 On ch=1 n=f5 v=77
141280 Off ch=1 n=g#5 v=64
141324 On ch=1 n=c#5 v=79
141396 Par ch=1 c=64 v=0
141410 Off ch=1 n=f5 v=64
141470 On ch=1 n=c#6 v=91
141476 On ch=1 n=a5 v=71
141478 On ch=1 n=c#3 v=65
141488 On ch=1 n=f#3 v=61
141598 Off ch=1 n=f#3 v=64
141612 Par ch=1 c=64 v=127
141616 On ch=1 n=f3 v=76
141620 Off ch=1 n=c#3 v=64
141660 Off ch=1 n=c#6 v=64
141660 Off ch=1 n=a5 v=64
141720 Off ch=1 n=c#5 v=64
141756 On ch=1 n=f#3 v=73
141782 Off ch=1 n=f3 v=64
141864 On ch=1 n=g#3 v=69
141894 Off ch=1 n=f#3 v=64
141994 On ch=1 n=f#4 v=61
141996 On ch=1 n=a3 v=62
141998 Off ch=1 n=g#3 v=64
142026 Par ch=1 c=64 v=0
142074 On ch=1 n=g#3 v=52
142110 Off ch=1 n=f#4 v=64
142110 On ch=1 n=f4 v=85
142126 Off ch=1 n=a3 v=64
142184 Off ch=1 n=f4 v=64
142202 On ch=1 n=a3 v=46
142202 On ch=1 n=f#4 v=62
142290 Off ch=1 n=g#3 v=64
142306 On ch=1 n=b3 v=72
142328 On ch=1 n=g#4 v=71
142338 Off ch=1 n=a3 v=64
142348 Off ch=1 n=f#4 v=64
142404 Off ch=1 n=b3 v=64
142426 On ch=1 n=c#4 v=79
142438 On ch=1 n=a4 v=76
142472 Off ch=1 n=g#4 v=64
142538 On ch=1 n=a3 v=69
142538 On ch=1 n=g#4 v=70
142554 Off ch=1 n=a4 v=64
142562 Off ch=1 n=c#4 v=64
142648 On ch=1 n=a4 v=62
142652 On ch=1 n=f#3 v=68
142668 Off ch=1 n=a3 v=64
142688 Off ch=1 n=g#4 v=64
142740 Off ch=1 n=f#3 v=64
142744 On ch=1 n=c#3 v=72
142760 On ch=1 n=b4 v=84
142824 Off ch=1 n=a4 v=64
142838 Off ch=1 n=c#3 v=64
142840 Par ch=1 c=64 v=127
142886 On ch=1 n=f#4 v=90
142889 On ch=1 n=c#5 v=90
142916 Off ch=1 n=f#4 v=64
142948 Off ch=1 n=b4 v=64
143008 On ch=1 n=a4 v=80
143062 Off ch=1 n=c#5 v=64
143100 On ch=1 n=f#4 v=81
143126 Off ch=1 n=a4 v=64
143204 On ch=1 n=c#4 v=84
143250 Off ch=1 n=f#4 v=64
143282 Off ch=1 n=c#4 v=64
143348 Par ch=1 c=64 v=0
143402 On ch=1 n=f#5 v=68
143404 On ch=1 n=f#4 v=70
143406 On ch=1 n=c#4 v=55
143520 Off ch=1 n=f#4 v=64
143554 On ch=1 n=f4 v=92
143590 Off ch=1 n=c#4 v=64
143592 Par ch=1 c=64 v=127
143646 Off ch=1 n=f#5 v=64
143680 On ch=1 n=f#4 v=78
143714 Off ch=1 n=f4 v=64
143772 On ch=1 n=g#4 v=73
143792 Par ch=1 c=64 v=0
143804 Off ch=1 n=f#4 v=64
143868 On ch=1 n=f#5 v=73
143871 On ch=1 n=a4 v=83
143892 Off ch=1 n=g#4 v=64
143964 On ch=1 n=g#4 v=67
143978 Off ch=1 n=a4 v=64
143982 On ch=1 n=f5 v=79
144016 Off ch=1 n=f#5 v=64
144082 On ch=1 n=f#5 v=69
144100 On ch=1 n=a4 v=62
144138 Off ch=1 n=f5 v=64
144172 Off ch=1 n=g#4 v=64
144188 On ch=1 n=b4 v=87
144194 On ch=1 n=g#5 v=83
144216 Off ch=1 n=a4 v=64
144242 Off ch=1 n=f#5 v=64
144296 Off ch=1 n=b4 v=64
144304 On ch=1 n=c#5 v=88
144306 On ch=1 n=a5 v=79
144364 Off ch=1 n=g#5 v=64
144406 Par ch=1 c=64 v=127
144414 On ch=1 n=a4 v=78
144416 On ch=1 n=g#5 v=83
144434 Off ch=1 n=a5 v=64
144437 Par ch=1 c=64 v=0
144442 Off ch=1 n=c#5 v=64
144518 On ch=1 n=a5 v=79
144522 On ch=1 n=f#4 v=88
144546 Off ch=1 n=a4 v=64
144580 Off ch=1 n=g#5 v=64
144630 Off ch=1 n=f#4 v=64
144632 On ch=1 n=c#4 v=64
144634 On ch=1 n=b5 v=94
144668 Par ch=1 c=64 v=127
144680 Off ch=1 n=c#4 v=64
144706 Off ch=1 n=a5 v=64
144764 On ch=1 n=c#6 v=88
144764 On ch=1 n=f#5 v=85
144826 Off ch=1 n=b5 v=64
144860 Off ch=1 n=f#5 v=64
144884 On ch=1 n=a5 v=74
144966 Off ch=1 n=c#6 v=64
145002 On ch=1 n=f#5 v=69
145104 On ch=1 n=c#5 v=85
145168 Off ch=1 n=f#5 v=64
145190 Par ch=1 c=64 v=0
145214 Off ch=1 n=c#5 v=64
145268 On ch=1 n=f#5 v=71
145268 On ch=1 n=d#6 v=95
145270 On ch=1 n=c6 v=84
145280 On ch=1 n=c#3 v=79
145292 On ch=1 n=a3 v=72
145312 On ch=1 n=g#3 v=32
145346 Off ch=1 n=a5 v=64
145384 Off ch=1 n=g#3 v=64
145390 Par ch=1 c=64 v=127
145406 Off ch=1 n=a3 v=64
145408 Off ch=1 n=d#6 v=64
145411 Off ch=1 n=c6 v=64
145416 Off ch=1 n=c#3 v=64
145428 On ch=1 n=g#3 v=46
145462 Off ch=1 n=f#5 v=64
145544 On ch=1 n=a3 v=73
145580 Off ch=1 n=g#3 v=64
145652 Off ch=1 n=a3 v=64
145662 On ch=1 n=b3 v=79
145756 Off ch=1 n=b3 v=64
145778 On ch=1 n=a4 v=73
145794 On ch=1 n=c4 v=72
145864 Off ch=1 n=c4 v=64
145870 On ch=1 n=g#4 v=78
145878 Off ch=1 n=a4 v=64
145898 On ch=1 n=b3 v=78
145990 On ch=1 n=a4 v=58
145998 Off ch=1 n=g#4 v=64
146001 On ch=1 n=c4 v=72
146018 Off ch=1 n=b3 v=64
146072 On ch=1 n=d4 v=85
146080 Off ch=1 n=a4 v=64
146080 Off ch=1 n=c4 v=64
146104 On ch=1 n=b4 v=85
146164 Off ch=1 n=d4 v=64
146190 On ch=1 n=d#4 v=88
146190 Par ch=1 c=64 v=0
146208 On ch=1 n=c5 v=90
146213 Off ch=1 n=b4 v=64
146308 On ch=1 n=b4 v=78
146314 On ch=1 n=c4 v=52
146336 Off ch=1 n=d#4 v=64
146338 On ch=1 n=b3 v=39
146348 Off ch=1 n=c5 v=64
146358 Par ch=1 c=64 v=127
146402 Off ch=1 n=b3 v=64
146410 On ch=1 n=c5 v=86
146418 On ch=1 n=a3 v=56
146469 Off ch=1 n=b4 v=64
146469 Off ch=1 n=c4 v=64
146510 On ch=1 n=d5 v=88
146516 On ch=1 n=f#3 v=80
146544 Off ch=1 n=a3 v=64
146544 Par ch=1 c=64 v=0
146578 Off ch=1 n=c5 v=64
146644 On ch=1 n=d#5 v=92
146647 Off ch=1 n=f#3 v=64
146650 On ch=1 n=f#4 v=103
146702 Off ch=1 n=d5 v=64
146758 Par ch=1 c=64 v=127
146758 On ch=1 n=c5 v=88
146762 Off ch=1 n=f#4 v=64
146830 Off ch=1 n=d#5 v=64
146888 On ch=1 n=a4 v=79
146932 Off ch=1 n=c5 v=64
146978 On ch=1 n=f#4 v=86
147004 Off ch=1 n=a4 v=64
147012 Off ch=1 n=f#4 v=64
147218 Par ch=1 c=64 v=0
147248 On ch=1 n=f6 v=98
147248 On ch=1 n=c#3 v=92
147248 On ch=1 n=b3 v=98
147248 On ch=1 n=g#5 v=95
147258 On ch=1 n=d6 v=88
147376 Off ch=1 n=b3 v=64
147396 On ch=1 n=a#3 v=66
147398 Off ch=1 n=f6 v=64
147414 Off ch=1 n=d6 v=64
147420 Par ch=1 c=64 v=127
147434 Off ch=1 n=c#3 v=64
147450 Off ch=1 n=g#5 v=64
147514 On ch=1 n=b3 v=81
147524 Off ch=1 n=a#3 v=64
147592 Off ch=1 n=b3 v=64
147618 On ch=1 n=c#4 v=80
147738 On ch=1 n=d4 v=93
147746 On ch=1 n=b4 v=85
147768 Off ch=1 n=c#4 v=64
147832 Off ch=1 n=d4 v=64
147844 On ch=1 n=a#4 v=69
147848 On ch=1 n=c#4 v=68
147866 Off ch=1 n=b4 v=64
147948 On ch=1 n=b4 v=68
147960 Off ch=1 n=a#4 v=64
147984 On ch=1 n=d4 v=84
148026 Off ch=1 n=c#4 v=64
148060 On ch=1 n=c#5 v=81
148076 On ch=1 n=e4 v=89
148097 Off ch=1 n=b4 v=64
148101 Off ch=1 n=d4 v=64
148166 Off ch=1 n=e4 v=64
148174 On ch=1 n=d5 v=93
148186 On ch=1 n=f4 v=105
148206 Off ch=1 n=c#5 v=64
148268 On ch=1 n=c#5 v=81
148300 Off ch=1 n=d5 v=64
148310 On ch=1 n=d4 v=79
148340 Par ch=1 c=64 v=0
148360 On ch=1 n=d5 v=91
148372 Off ch=1 n=f4 v=64
148382 Off ch=1 n=c#5 v=64
148414 On ch=1 n=b3 v=72
148470 On ch=1 n=e5 v=75
148490 Off ch=1 n=d4 v=64
148514 On ch=1 n=g#3 v=93
148548 Off ch=1 n=b3 v=64
148552 Off ch=1 n=d5 v=64
148560 Par ch=1 c=64 v=127
148604 On ch=1 n=f5 v=88
148606 Off ch=1 n=g#3 v=64
148640 On ch=1 n=g#4 v=96
148652 Off ch=1 n=e5 v=64
148712 On ch=1 n=d5 v=92
148736 Off ch=1 n=g#4 v=64
148758 Off ch=1 n=f5 v=64
148816 On ch=1 n=b4 v=85
148826 Off ch=1 n=d5 v=64
148918 On ch=1 n=g#4 v=85
148954 Off ch=1 n=g#4 v=64
148956 Off ch=1 n=b4 v=64
149002 Par ch=1 c=64 v=0
149036 On ch=1 n=c#3 v=103
149156 Off ch=1 n=c#3 v=64
149156 Par ch=1 c=64 v=127
149244 On ch=1 n=g#6 v=97
149252 On ch=1 n=b5 v=101
149258 On ch=1 n=f6 v=87
149264 On ch=1 n=f4 v=108
149356 Off ch=1 n=f4 v=64
149398 On ch=1 n=e4 v=93
149416 Off ch=1 n=g#6 v=64
149416 Off ch=1 n=f6 v=64
149448 Off ch=1 n=b5 v=64
149490 Off ch=1 n=e4 v=64
149530 On ch=1 n=f4 v=103
149646 On ch=1 n=f#4 v=88
149664 Off ch=1 n=f4 v=64
149760 On ch=1 n=f5 v=81
149766 On ch=1 n=b5 v=92
149770 On ch=1 n=g#4 v=84
149800 Off ch=1 n=f#4 v=64
149854 Off ch=1 n=f5 v=64
149880 On ch=1 n=g4 v=86
149888 On ch=1 n=e5 v=79
149892 Off ch=1 n=g#4 v=64
149948 Off ch=1 n=b5 v=64
149988 Off ch=1 n=e5 v=64
149994 On ch=1 n=f5 v=80
150006 On ch=1 n=g#4 v=76
150052 Off ch=1 n=g4 v=64
150106 On ch=1 n=a#4 v=72
150106 On ch=1 n=f#5 v=67
150144 Off ch=1 n=f5 v=64
150172 Off ch=1 n=g#4 v=64
150186 Par ch=1 c=64 v=0
150208 On ch=1 n=d6 v=90
150213 On ch=1 n=b4 v=89
150222 On ch=1 n=g#5 v=83
150236 Off ch=1 n=a#4 v=64
150256 Off ch=1 n=f#5 v=64
150300 On ch=1 n=a#4 v=63
150322 On ch=1 n=g5 v=89
150328 Off ch=1 n=d6 v=64
150350 Off ch=1 n=b4 v=64
150353 Par ch=1 c=64 v=127
150372 Off ch=1 n=g#5 v=64
150416 On ch=1 n=b4 v=71
150422 On ch=1 n=g#5 v=85
150468 Off ch=1 n=g5 v=64
150510 On ch=1 n=c#5 v=88
150513 Off ch=1 n=a#4 v=64
150524 On ch=1 n=a#5 v=76
150544 Off ch=1 n=b4 v=64
150566 Off ch=1 n=g#5 v=64
150574 Off ch=1 n=a#5 v=64
150624 On ch=1 n=b5 v=101
150628 Off ch=1 n=c#5 v=64
150630 On ch=1 n=d5 v=92
150632 On ch=1 n=f6 v=95
150718 Off ch=1 n=b5 v=64
150721 On ch=1 n=a#5 v=78
150736 On ch=1 n=b4 v=73
150760 Off ch=1 n=d5 v=64
150762 Off ch=1 n=f6 v=64
150826 Off ch=1 n=a#5 v=64
150846 On ch=1 n=g#4 v=72
150850 On ch=1 n=b5 v=88
150876 Off ch=1 n=b4 v=64
150910 On ch=1 n=f#4 v=72
150934 On ch=1 n=c#6 v=66
150948 Off ch=1 n=g#4 v=64
150956 Off ch=1 n=b5 v=64
150960 Off ch=1 n=f#4 v=64
150984 Par ch=1 c=64 v=0
151022 Off ch=1 n=c#6 v=64
151040 On ch=1 n=g#6 v=92
151042 On ch=1 n=f4 v=111
151044 On ch=1 n=d6 v=101
151046 On ch=1 n=c#4 v=67
151076 On ch=1 n=c4 v=51
151090 Off ch=1 n=c#4 v=64
151132 Off ch=1 n=f4 v=64
151132 Off ch=1 n=c4 v=64
151164 On ch=1 n=b5 v=93
151170 Off ch=1 n=g#6 v=64
151170 On ch=1 n=e4 v=94
151170 Par ch=1 c=64 v=127
151184 Off ch=1 n=d6 v=64
151266 Off ch=1 n=e4 v=64
151268 Off ch=1 n=b5 v=64
151276 On ch=1 n=f4 v=108
151279 On ch=1 n=g#5 v=78
151374 On ch=1 n=f#4 v=92
151377 On ch=1 n=f#5 v=59
151396 Off ch=1 n=f4 v=64
151430 Par ch=1 c=64 v=0
151460 Off ch=1 n=g#5 v=64
151476 On ch=1 n=f5 v=83
151478 On ch=1 n=b5 v=95
151482 On ch=1 n=g#4 v=87
151512 Off ch=1 n=f#5 v=64
151516 Off ch=1 n=f#4 v=64
151562 Off ch=1 n=g#4 v=64
151572 Off ch=1 n=f5 v=64
151588 On ch=1 n=g4 v=88
151594 On ch=1 n=e5 v=92
151628 Off ch=1 n=b5 v=64
151630 Par ch=1 c=64 v=127
151686 Off ch=1 n=e5 v=64
151696 On ch=1 n=f5 v=81
151699 On ch=1 n=g#4 v=88
151760 Off ch=1 n=g4 v=64
151784 On ch=1 n=f#5 v=74
151804 On ch=1 n=a#4 v=82
151818 Off ch=1 n=f5 v=64
151844 Par ch=1 c=64 v=0
151854 Off ch=1 n=g#4 v=64
151886 On ch=1 n=d6 v=95
151892 On ch=1 n=g#5 v=88
151908 Off ch=1 n=f#5 v=64
151910 On ch=1 n=b4 v=92
151946 Off ch=1 n=a#4 v=64
151994 On ch=1 n=a#4 v=77
151994 On ch=1 n=g5 v=89
152012 Off ch=1 n=d6 v=64
152024 Off ch=1 n=b4 v=64
152038 Off ch=1 n=g#5 v=64
152058 Par ch=1 c=64 v=127
152096 On ch=1 n=g#5 v=80
152104 On ch=1 n=b4 v=58
152144 Off ch=1 n=g5 v=64
152192 Off ch=1 n=a#4 v=64
152196 On ch=1 n=c#5 v=90
152200 On ch=1 n=a#5 v=78
152224 Off ch=1 n=b4 v=64
152236 Off ch=1 n=g#5 v=64
152260 Par ch=1 c=64 v=0
152268 Off ch=1 n=a#5 v=64
152296 On ch=1 n=b5 v=101
152310 On ch=1 n=f6 v=93
152312 On ch=1 n=d5 v=92
152330 Off ch=1 n=c#5 v=64
152382 Par ch=1 c=64 v=127
152402 On ch=1 n=a#5 v=77
152414 Off ch=1 n=b5 v=64
152424 On ch=1 n=b4 v=81
152448 Off ch=1 n=d5 v=64
152458 Off ch=1 n=f6 v=64
152522 On ch=1 n=b5 v=81
152538 Off ch=1 n=a#5 v=64
152540 On ch=1 n=g#4 v=73
152564 Off ch=1 n=b4 v=64
152622 On ch=1 n=c#6 v=74
152625 On ch=1 n=f4 v=86
152642 Off ch=1 n=g#4 v=64
152704 Off ch=1 n=b5 v=64
152771 Off ch=1 n=f4 v=64
152776 Off ch=1 n=c#6 v=64
152788 On ch=1 n=g#6 v=91
152791 On ch=1 n=d6 v=91
152798 On ch=1 n=c#4 v=88
152814 On ch=1 n=f4 v=108
152828 Par ch=1 c=64 v=0
152976 On ch=1 n=g#4 v=75
153000 On ch=1 n=c#6 v=85
153058 Par ch=1 c=64 v=127
153074 Off ch=1 n=d6 v=64
153124 Off ch=1 n=f4 v=64
153127 Off ch=1 n=c#4 v=64
153152 On ch=1 n=d5 v=85
153166 On ch=1 n=b5 v=95
153214 Off ch=1 n=g#4 v=64
153220 Off ch=1 n=c#6 v=64
153234 Off ch=1 n=g#6 v=64
153246 Off ch=1 n=d5 v=64
153272 Off ch=1 n=b5 v=64
153334 On ch=1 n=b5 v=91
153338 On ch=1 n=d5 v=67
153468 On ch=1 n=g#4 v=67
153476 On ch=1 n=c#6 v=86
153546 Off ch=1 n=d5 v=64
153586 Off ch=1 n=b5 v=64
153594 On ch=1 n=d6 v=90
153614 On ch=1 n=f4 v=86
153628 Off ch=1 n=c#6 v=64
153702 On ch=1 n=g#6 v=83
153722 Off ch=1 n=g#4 v=64
153725 On ch=1 n=c#4 v=46
153760 Off ch=1 n=f4 v=64
153764 Off ch=1 n=d6 v=64
153778 Off ch=1 n=c#4 v=64
153811 Off ch=1 n=g#6 v=64
153848 On ch=1 n=c#4 v=68
153854 On ch=1 n=g#6 v=103
153974 On ch=1 n=f4 v=101
153978 On ch=1 n=d6 v=77
154062 Off ch=1 n=c#4 v=64
154088 On ch=1 n=g#4 v=72
154104 On ch=1 n=c#6 v=78
154170 Off ch=1 n=g#6 v=64
154174 Off ch=1 n=f4 v=64
154180 Off ch=1 n=d6 v=64
154198 On ch=1 n=d5 v=75
154210 On ch=1 n=b5 v=92
154234 Off ch=1 n=g#4 v=64
154260 Off ch=1 n=b5 v=64
154262 Off ch=1 n=c#6 v=64
154286 Off ch=1 n=d5 v=64
154350 On ch=1 n=d5 v=83
154352 On ch=1 n=b5 v=88
154470 On ch=1 n=g#4 v=77
154482 On ch=1 n=c#6 v=90
154524 Off ch=1 n=b5 v=64
154580 Off ch=1 n=d5 v=64
154602 On ch=1 n=f4 v=85
154605 On ch=1 n=d6 v=96
154646 Off ch=1 n=c#6 v=64
154738 On ch=1 n=c#4 v=75
154744 On ch=1 n=g#6 v=94
154770 Off ch=1 n=f4 v=64
154814 Off ch=1 n=d6 v=64
154828 Off ch=1 n=g#4 v=64
154858 Off ch=1 n=c#4 v=64
154874 Off ch=1 n=g#6 v=64
155014 On ch=1 n=g#6 v=100
155022 On ch=1 n=c#4 v=79
155040 Par ch=1 c=64 v=0
155256 Par ch=1 c=64 v=127
155314 On ch=1 n=b5 v=50
155328 On ch=1 n=g#4 v=40
155344 Off ch=1 n=g#6 v=64
155398 Off ch=1 n=c#4 v=64
155446 Off ch=1 n=g#4 v=64
155470 Off ch=1 n=b5 v=64
155488 On ch=1 n=f5 v=50
155506 On ch=1 n=c#5 v=52
155540 On ch=1 n=c#4 v=5
155586 Off ch=1 n=f5 v=64
155646 On ch=1 n=b5 v=63
155656 Off ch=1 n=c#5 v=64
155664 On ch=1 n=g#4 v=51
155744 Off ch=1 n=g#4 v=64
155794 On ch=1 n=f5 v=50
155800 Off ch=1 n=b5 v=64
155806 On ch=1 n=c#5 v=58
155874 Off ch=1 n=f5 v=64
155900 On ch=1 n=b5 v=44
155918 Off ch=1 n=c#5 v=64
155928 On ch=1 n=g#4 v=47
155998 Off ch=1 n=g#4 v=64
156036 Off ch=1 n=b5 v=64
156056 On ch=1 n=f5 v=39
156066 On ch=1 n=c#5 v=49
156124 Off ch=1 n=c#5 v=64
156134 Off ch=1 n=f5 v=64
156154 On ch=1 n=b5 v=46
156198 On ch=1 n=g#4 v=37
156260 Off ch=1 n=g#4 v=64
156274 Off ch=1 n=b5 v=64
156288 On ch=1 n=c#5 v=52
156306 On ch=1 n=f5 v=38
156364 Off ch=1 n=c#5 v=64
156380 Off ch=1 n=f5 v=64
156410 On ch=1 n=b5 v=47
156424 On ch=1 n=g#4 v=39
156490 Off ch=1 n=b5 v=64
156500 Off ch=1 n=g#4 v=64
156546 Off ch=1 n=c#4 v=64
156556 On ch=1 n=c#5 v=39
156562 On ch=1 n=f5 v=27
156626 Off ch=1 n=c#5 v=64
156642 Off ch=1 n=f5 v=64
156660 On ch=1 n=b5 v=40
156702 On ch=1 n=g#4 v=26
156750 Off ch=1 n=b5 v=64
156772 Off ch=1 n=g#4 v=64
156818 On ch=1 n=c#5 v=34
156836 On ch=1 n=f5 v=29
156892 Off ch=1 n=c#5 v=64
156930 Off ch=1 n=f5 v=64
156948 On ch=1 n=b5 v=47
156954 On ch=1 n=g#4 v=26
157034 Off ch=1 n=g#4 v=64
157068 Off ch=1 n=b5 v=64
157098 On ch=1 n=c#5 v=37
157132 On ch=1 n=f5 v=43
157186 Off ch=1 n=c#5 v=64
157204 Off ch=1 n=f5 v=64
157306 On ch=1 n=b5 v=52
157322 On ch=1 n=g#4 v=23
157396 Off ch=1 n=g#4 v=64
157444 Off ch=1 n=b5 v=64
157654 On ch=1 n=c6 v=65
157672 On ch=1 n=f3 v=36
157976 Par ch=1 c=64 v=0
157979 On ch=1 n=f5 v=30
158000 On ch=1 n=c4 v=20
158200 Off ch=1 n=f5 v=64
158206 Off ch=1 n=c4 v=64
158212 On ch=1 n=c5 v=26
158220 Par ch=1 c=64 v=127
158224 On ch=1 n=g#4 v=28
158322 Off ch=1 n=g#4 v=64
158374 Off ch=1 n=c5 v=64
158414 On ch=1 n=f5 v=25
158454 On ch=1 n=c4 v=8
158500 Off ch=1 n=f5 v=64
158544 Off ch=1 n=c4 v=64
158574 On ch=1 n=g#4 v=34
158608 On ch=1 n=c5 v=23
158656 Off ch=1 n=g#4 v=64
158714 Off ch=1 n=c5 v=64
158754 On ch=1 n=c4 v=19
158764 On ch=1 n=f5 v=23
158832 Off ch=1 n=c4 v=64
158836 Off ch=1 n=f5 v=64
158876 On ch=1 n=g#4 v=24
158904 On ch=1 n=c5 v=9
158954 Off ch=1 n=g#4 v=64
158990 Off ch=1 n=c5 v=64
159018 On ch=1 n=f5 v=33
159044 On ch=1 n=c4 v=12
159092 Off ch=1 n=f5 v=64
159114 Off ch=1 n=c4 v=64
159138 On ch=1 n=g#4 v=26
159148 On ch=1 n=c5 v=25
159220 Off ch=1 n=g#4 v=64
159244 Off ch=1 n=c5 v=64
159278 On ch=1 n=f5 v=31
159302 On ch=1 n=c4 v=14
159358 Off ch=1 n=f5 v=64
159378 Off ch=1 n=c4 v=64
159420 On ch=1 n=g#4 v=40
159424 On ch=1 n=c5 v=28
159496 Off ch=1 n=g#4 v=64
159530 Off ch=1 n=c5 v=64
159592 On ch=1 n=f5 v=27
159602 On ch=1 n=c4 v=13
159674 Off ch=1 n=f5 v=64
159684 Off ch=1 n=c4 v=64
159740 On ch=1 n=g#4 v=29
159748 On ch=1 n=c5 v=17
159828 Off ch=1 n=g#4 v=64
159866 Off ch=1 n=c5 v=64
159914 On ch=1 n=c4 v=12
159916 On ch=1 n=f5 v=24
159974 Off ch=1 n=f3 v=64
160034 Off ch=1 n=c4 v=64
160034 Off ch=1 n=f5 v=64
160102 On ch=1 n=g#4 v=29
160122 On ch=1 n=c5 v=12
160182 Off ch=1 n=g#4 v=64
160234 Off ch=1 n=c5 v=64
160339 On ch=1 n=f5 v=14
160366 On ch=1 n=c4 v=10
160444 Off ch=1 n=c4 v=64
160498 Off ch=1 n=c6 v=64
160536 Off ch=1 n=f5 v=64
160640 On ch=1 n=f3 v=25
160643 On ch=1 n=c4 v=18
160874 On ch=1 n=f4 v=46
160940 Par ch=1 c=64 v=0
161012 On ch=1 n=f5 v=39
161015 On ch=1 n=g#4 v=31
161066 Off ch=1 n=f4 v=64
161140 Par ch=1 c=64 v=127
161156 Off ch=1 n=g#4 v=64
161184 On ch=1 n=c5 v=41
161200 Off ch=1 n=c4 v=64
161280 Off ch=1 n=c5 v=64
161360 On ch=1 n=c#5 v=37
161366 On ch=1 n=e5 v=56
161400 Par ch=1 c=64 v=0
161420 Off ch=1 n=f5 v=64
161476 On ch=1 n=a#4 v=35
161508 Off ch=1 n=f3 v=64
161554 Par ch=1 c=64 v=127
161628 On ch=1 n=g4 v=42
161694 Off ch=1 n=g4 v=64
161760 Off ch=1 n=a#4 v=64
161762 On ch=1 n=e4 v=44
161770 Off ch=1 n=c#5 v=64
161800 Off ch=1 n=e5 v=64
161814 Off ch=1 n=e4 v=64
161874 On ch=1 n=c4 v=16
161900 On ch=1 n=f3 v=67
161938 Par ch=1 c=64 v=0
162034 Off ch=1 n=c4 v=64
162050 On ch=1 n=a#3 v=7
162058 On ch=1 n=f4 v=49
162102 Off ch=1 n=a#3 v=64
162124 Par ch=1 c=64 v=127
162127 Off ch=1 n=f4 v=64
162158 On ch=1 n=f5 v=67
162172 On ch=1 n=g#4 v=47
162280 Off ch=1 n=g#4 v=64
162296 On ch=1 n=c5 v=51
162406 Off ch=1 n=c5 v=64
162416 Par ch=1 c=64 v=0
162422 On ch=1 n=c#5 v=57
162430 On ch=1 n=e5 v=66
162452 Off ch=1 n=f5 v=64
162494 Off ch=1 n=f3 v=64
162520 On ch=1 n=a#4 v=47
162552 Off ch=1 n=c#5 v=64
162584 Par ch=1 c=64 v=127
162610 Off ch=1 n=a#4 v=64
162780 On ch=1 n=c5 v=79
162783 On ch=1 n=g4 v=39
162804 Off ch=1 n=e5 v=64
162860 Off ch=1 n=g4 v=64
162944 On ch=1 n=e4 v=28
163010 Off ch=1 n=e4 v=64
163096 On ch=1 n=f3 v=51
163112 On ch=1 n=c4 v=23
163118 On ch=1 n=f5 v=81
163152 Par ch=1 c=64 v=0
163220 Off ch=1 n=c5 v=64
163232 Off ch=1 n=f3 v=64
163244 Off ch=1 n=c4 v=64
163280 On ch=1 n=f4 v=79
163292 Par ch=1 c=64 v=127
163334 On ch=1 n=g5 v=87
163398 Off ch=1 n=f4 v=64
163420 On ch=1 n=g#4 v=59
163464 Off ch=1 n=f5 v=64
163476 On ch=1 n=g#5 v=83
163548 Off ch=1 n=g#4 v=64
163553 On ch=1 n=c5 v=59
163564 Off ch=1 n=g5 v=64
163620 Off ch=1 n=c5 v=64
163672 On ch=1 n=a#5 v=76
163690 Par ch=1 c=64 v=0
163700 On ch=1 n=c#5 v=57
163702 On ch=1 n=e5 v=50
163730 Off ch=1 n=g#5 v=64
163862 On ch=1 n=a#4 v=45
163874 Par ch=1 c=64 v=127
163886 Off ch=1 n=c#5 v=64
163896 On ch=1 n=g#5 v=64
163936 Off ch=1 n=a#4 v=64
163980 Off ch=1 n=a#5 v=64
164014 On ch=1 n=g4 v=37
164026 Off ch=1 n=e5 v=64
164098 On ch=1 n=g5 v=56
164104 Off ch=1 n=g4 v=64
164108 Off ch=1 n=g#5 v=64
164116 On ch=1 n=e4 v=51
164162 Off ch=1 n=e4 v=64
164200 Off ch=1 n=g5 v=64
164340 On ch=1 n=f3 v=38
164354 On ch=1 n=c4 v=32
164366 Par ch=1 c=64 v=0
164528 On ch=1 n=f4 v=40
164634 Off ch=1 n=f4 v=64
164638 On ch=1 n=f5 v=43
164638 On ch=1 n=g#4 v=34
164658 Par ch=1 c=64 v=127
164726 Off ch=1 n=c4 v=64
164802 Off ch=1 n=g#4 v=64
164805 On ch=1 n=c5 v=33
164952 Off ch=1 n=c5 v=64
164980 On ch=1 n=e5 v=45
164992 Off ch=1 n=f5 v=64
165000 On ch=1 n=c#5 v=32
165012 Par ch=1 c=64 v=0
165114 On ch=1 n=a#4 v=22
165130 Off ch=1 n=f3 v=64
165180 Par ch=1 c=64 v=127
165258 On ch=1 n=g4 v=19
165284 Off ch=1 n=c#5 v=64
165326 Off ch=1 n=g4 v=64
165362 Off ch=1 n=a#4 v=64
165376 Off ch=1 n=e5 v=64
165376 On ch=1 n=c#4 v=26
165442 Off ch=1 n=c#4 v=64
165488 Par ch=1 c=64 v=0
165516 On ch=1 n=f3 v=42
165524 On ch=1 n=c4 v=33
165676 On ch=1 n=g4 v=41
165734 Par ch=1 c=64 v=127
165780 On ch=1 n=g#4 v=31
165782 Off ch=1 n=g4 v=64
165794 On ch=1 n=f5 v=44
165842 Off ch=1 n=f3 v=64
165858 Off ch=1 n=c4 v=64
165922 Off ch=1 n=g#4 v=64
165924 On ch=1 n=c5 v=45
166014 Off ch=1 n=c5 v=64
166024 Off ch=1 n=f5 v=64
166026 On ch=1 n=f#3 v=51
166044 On ch=1 n=c4 v=36
166088 Par ch=1 c=64 v=0
166174 On ch=1 n=g#4 v=54
166286 On ch=1 n=a4 v=43
166286 Par ch=1 c=64 v=127
166292 On ch=1 n=d#5 v=59
166296 Off ch=1 n=c4 v=64
166312 Off ch=1 n=g#4 v=64
166374 Off ch=1 n=f#3 v=64
166402 On ch=1 n=c5 v=52
166426 Off ch=1 n=a4 v=64
166492 Off ch=1 n=d#5 v=64
166495 On ch=1 n=g3 v=68
166508 Off ch=1 n=c5 v=64
166550 On ch=1 n=c4 v=29
166610 Par ch=1 c=64 v=0
166678 On ch=1 n=f#4 v=57
166786 Off ch=1 n=c4 v=64
166800 On ch=1 n=g4 v=64
166802 On ch=1 n=d#5 v=70
166808 Off ch=1 n=g3 v=64
166840 Par ch=1 c=64 v=127
166862 Off ch=1 n=f#4 v=64
166896 Off ch=1 n=g4 v=64
166932 On ch=1 n=c5 v=52
166976 Off ch=1 n=d#5 v=64
167036 On ch=1 n=g3 v=73
167038 Off ch=1 n=c5 v=64
167070 Par ch=1 c=64 v=0
167084 On ch=1 n=d4 v=50
167174 Off ch=1 n=d4 v=64
167182 On ch=1 n=g4 v=72
167190 Off ch=1 n=g3 v=64
167208 Par ch=1 c=64 v=127
167242 Off ch=1 n=g4 v=64
167304 On ch=1 n=g5 v=85
167318 On ch=1 n=b4 v=55
167384 Off ch=1 n=b4 v=64
167428 On ch=1 n=d5 v=63
167476 Off ch=1 n=d5 v=64
167562 Par ch=1 c=64 v=0
167574 On ch=1 n=c6 v=87
167586 On ch=1 n=c4 v=30
167608 On ch=1 n=g4 v=57
167622 Off ch=1 n=g5 v=64
167728 Off ch=1 n=g4 v=64
167754 Off ch=1 n=c4 v=64
167760 On ch=1 n=c5 v=65
167778 Par ch=1 c=64 v=127
167808 On ch=1 n=d6 v=91
167860 Off ch=1 n=c5 v=64
167884 Off ch=1 n=c6 v=64
167894 On ch=1 n=d#5 v=65
167952 On ch=1 n=d#6 v=85
167994 Off ch=1 n=d#5 v=64
168000 On ch=1 n=g5 v=63
168022 Off ch=1 n=d6 v=64
168054 Off ch=1 n=g5 v=64
168130 On ch=1 n=g#5 v=60
168136 On ch=1 n=f6 v=91
168158 On ch=1 n=b5 v=57
168178 Par ch=1 c=64 v=0
168208 Off ch=1 n=d#6 v=64
168298 On ch=1 n=f5 v=50
168302 Off ch=1 n=g#5 v=64
168316 Par ch=1 c=64 v=127
168344 On ch=1 n=d#6 v=67
168364 Off ch=1 n=f5 v=64
168402 Off ch=1 n=f6 v=64
168404 Off ch=1 n=b5 v=64
168430 On ch=1 n=d5 v=41
168506 Off ch=1 n=d5 v=64
168522 On ch=1 n=b4 v=45
168525 On ch=1 n=d6 v=67
168538 Off ch=1 n=d#6 v=64
168570 Off ch=1 n=b4 v=64
168576 Off ch=1 n=d6 v=64
168706 On ch=1 n=c4 v=45
168718 On ch=1 n=g4 v=42
168776 Par ch=1 c=64 v=0
168864 On ch=1 n=c5 v=29
168960 On ch=1 n=d#5 v=47
168968 On ch=1 n=c6 v=51
168972 Off ch=1 n=c5 v=64
168992 Par ch=1 c=64 v=127
169026 Off ch=1 n=g4 v=64
169082 Off ch=1 n=d#5 v=64
169112 On ch=1 n=g5 v=40
169198 Off ch=1 n=g5 v=64
169270 On ch=1 n=b5 v=73
169276 On ch=1 n=g#5 v=42
169298 Par ch=1 c=64 v=0
169310 Off ch=1 n=c6 v=64
169380 Off ch=1 n=g#5 v=64
169420 Off ch=1 n=c4 v=64
169450 On ch=1 n=f5 v=48
169452 Par ch=1 c=64 v=127
169500 Off ch=1 n=f5 v=64
169592 On ch=1 n=g5 v=84
169610 On ch=1 n=d5 v=23
169630 Off ch=1 n=b5 v=64
169674 Off ch=1 n=d5 v=64
169684 On ch=1 n=b4 v=43
169732 Off ch=1 n=b4 v=64
169800 On ch=1 n=g4 v=51
169803 On ch=1 n=c4 v=55
169806 Par ch=1 c=64 v=0
169848 On ch=1 n=c6 v=89
169908 Off ch=1 n=g5 v=64
169934 Off ch=1 n=g4 v=64
169937 Off ch=1 n=c4 v=64
169960 Par ch=1 c=64 v=127
169976 On ch=1 n=c5 v=52
170028 On ch=1 n=d6 v=98
170086 Off ch=1 n=c5 v=64
170104 On ch=1 n=d#5 v=73
170116 Off ch=1 n=c6 v=64
170182 On ch=1 n=d#6 v=92
170216 Off ch=1 n=d#5 v=64
170230 On ch=1 n=g5 v=73
170262 Off ch=1 n=d6 v=64
170274 Off ch=1 n=g5 v=64
170372 On ch=1 n=g#5 v=59
170375 On ch=1 n=f6 v=97
170378 Par ch=1 c=64 v=0
170390 On ch=1 n=b5 v=68
170450 Off ch=1 n=d#6 v=64
170528 Par ch=1 c=64 v=127
170534 Off ch=1 n=g#5 v=64
170538 On ch=1 n=f5 v=58
170590 On ch=1 n=d#6 v=85
170614 Off ch=1 n=f5 v=64
170654 Off ch=1 n=f6 v=64
170660 On ch=1 n=d5 v=47
170666 Off ch=1 n=b5 v=64
170754 On ch=1 n=b4 v=56
170770 Off ch=1 n=d5 v=64
170780 On ch=1 n=d6 v=79
170798 Off ch=1 n=b4 v=64
170816 Off ch=1 n=d#6 v=64
170840 Off ch=1 n=d6 v=64
170946 On ch=1 n=c4 v=57
170964 On ch=1 n=g4 v=38
171020 Par ch=1 c=64 v=0
171070 On ch=1 n=c5 v=57
171184 On ch=1 n=c6 v=62
171194 On ch=1 n=d#5 v=47
171204 Off ch=1 n=c5 v=64
171204 Par ch=1 c=64 v=127
171258 Off ch=1 n=g4 v=64
171318 Off ch=1 n=d#5 v=64
171350 On ch=1 n=g5 v=32
171428 Off ch=1 n=g5 v=64
171510 On ch=1 n=g#5 v=47
171512 On ch=1 n=b5 v=69
171572 Par ch=1 c=64 v=0
171616 Off ch=1 n=c6 v=64
171652 Off ch=1 n=c4 v=64
171652 On ch=1 n=f5 v=54
171658 Off ch=1 n=g#5 v=64
171710 Par ch=1 c=64 v=127
171720 Off ch=1 n=f5 v=64
171750 On ch=1 n=d5 v=45
171802 On ch=1 n=g5 v=92
171814 Off ch=1 n=d5 v=64
171878 Off ch=1 n=b5 v=64
171898 On ch=1 n=b4 v=50
171950 Off ch=1 n=b4 v=64
172062 On ch=1 n=c4 v=57
172074 On ch=1 n=g4 v=63
172108 On ch=1 n=c6 v=98
172110 Par ch=1 c=64 v=0
172132 Off ch=1 n=g5 v=64
172192 Off ch=1 n=c4 v=64
172220 Off ch=1 n=g4 v=64
172250 Par ch=1 c=64 v=127
172253 On ch=1 n=c5 v=52
172326 On ch=1 n=d#6 v=92
172386 Off ch=1 n=c5 v=64
172390 Off ch=1 n=c6 v=64
172394 On ch=1 n=d#5 v=67
172492 On ch=1 n=g6 v=102
172506 Off ch=1 n=d#6 v=64
172536 On ch=1 n=g5 v=49
172600 Off ch=1 n=g5 v=64
172692 On ch=1 n=c6 v=55
172714 On ch=1 n=c7 v=100
172756 Off ch=1 n=d#5 v=64
172790 Off ch=1 n=g6 v=64
172860 Off ch=1 n=c6 v=64
172863 On ch=1 n=g#5 v=62
172992 Off ch=1 n=g#5 v=64
173002 On ch=1 n=g5 v=61
173128 Off ch=1 n=g5 v=64
173134 On ch=1 n=d#5 v=59
173176 Off ch=1 n=d#5 v=64
173272 On ch=1 n=c5 v=54
173308 Par ch=1 c=64 v=0
173392 On ch=1 n=g#4 v=62
173432 Par ch=1 c=64 v=127
173434 Off ch=1 n=c5 v=64
173512 On ch=1 n=g4 v=69
173515 Off ch=1 n=g#4 v=64
173622 Off ch=1 n=g4 v=64
173638 On ch=1 n=d#4 v=53
173686 Off ch=1 n=d#4 v=64
173762 On ch=1 n=c4 v=65
173816 Par ch=1 c=64 v=0
173870 On ch=1 n=g#3 v=72
173886 Off ch=1 n=c4 v=64
173970 Par ch=1 c=64 v=127
173982 On ch=1 n=g3 v=53
174004 Off ch=1 n=g#3 v=64
174026 Off ch=1 n=c7 v=64
174074 On ch=1 n=d#3 v=62
174082 Off ch=1 n=g3 v=64
174200 Off ch=1 n=d#3 v=64
174234 On ch=1 n=c3 v=52
174240 On ch=1 n=g3 v=42
174292 Par ch=1 c=64 v=0
174366 On ch=1 n=c4 v=45
174474 On ch=1 n=c5 v=43
174476 On ch=1 n=d#4 v=32
174478 Off ch=1 n=c4 v=64
174490 Off ch=1 n=g3 v=64
174538 Par ch=1 c=64 v=127
174596 Off ch=1 n=d#4 v=64
174608 On ch=1 n=g4 v=49
174738 On ch=1 n=b4 v=42
174744 On ch=1 n=g#4 v=47
174750 Off ch=1 n=g4 v=64
174753 Par ch=1 c=64 v=0
174812 Off ch=1 n=c5 v=64
174848 On ch=1 n=f4 v=77
174868 Off ch=1 n=c3 v=64
174930 Off ch=1 n=f4 v=64
174938 Par ch=1 c=64 v=127
174962 On ch=1 n=d4 v=60
175026 Off ch=1 n=g#4 v=64
175029 Off ch=1 n=d4 v=64
175036 Off ch=1 n=b4 v=64
175068 On ch=1 n=b3 v=60
175120 Off ch=1 n=b3 v=64
175184 Par ch=1 c=64 v=0
175184 On ch=1 n=g3 v=56
175208 On ch=1 n=c3 v=65
175330 On ch=1 n=c4 v=61
175378 Off ch=1 n=g3 v=64
175428 Par ch=1 c=64 v=127
175438 On ch=1 n=c5 v=76
175440 On ch=1 n=d#4 v=59
175450 Off ch=1 n=c4 v=64
175560 On ch=1 n=g4 v=69
175576 Off ch=1 n=d#4 v=64
175700 On ch=1 n=g#4 v=63
175704 Off ch=1 n=g4 v=64
175704 On ch=1 n=b4 v=73
175706 Par ch=1 c=64 v=0
175792 Off ch=1 n=c5 v=64
175816 Off ch=1 n=c3 v=64
175822 On ch=1 n=f4 v=78
175862 Off ch=1 n=g#4 v=64
175890 Par ch=1 c=64 v=127
175918 Off ch=1 n=f4 v=64
175954 On ch=1 n=d4 v=66
176004 Off ch=1 n=b4 v=64
176018 Off ch=1 n=d4 v=64
176044 On ch=1 n=g#3 v=68
176132 Off ch=1 n=g#3 v=64
176152 Par ch=1 c=64 v=0
176172 On ch=1 n=c3 v=68
176194 On ch=1 n=g3 v=71
176288 On ch=1 n=d4 v=72
176394 Off ch=1 n=c3 v=64
176410 On ch=1 n=d#4 v=50
176412 On ch=1 n=c5 v=75
176424 Off ch=1 n=d4 v=64
176426 Off ch=1 n=g3 v=64
176428 Par ch=1 c=64 v=127
176522 On ch=1 n=g4 v=74
176538 Off ch=1 n=d#4 v=64
176588 Off ch=1 n=c5 v=64
176596 Par ch=1 c=64 v=0
176614 On ch=1 n=c3 v=71
176618 On ch=1 n=g#3 v=75
176654 Off ch=1 n=g4 v=64
176674 Off ch=1 n=c3 v=64
176750 On ch=1 n=e4 v=85
176782 Par ch=1 c=64 v=127
176820 Off ch=1 n=e4 v=64
176860 On ch=1 n=d5 v=84
176876 On ch=1 n=f4 v=96
176914 Off ch=1 n=g#3 v=64
176972 On ch=1 n=b4 v=80
177012 Par ch=1 c=64 v=0
177015 Off ch=1 n=f4 v=64
177040 Off ch=1 n=d5 v=64
177050 On ch=1 n=c3 v=76
177062 On ch=1 n=a3 v=62
177104 Off ch=1 n=b4 v=64
177112 Off ch=1 n=c3 v=64
177180 Par ch=1 c=64 v=127
177190 On ch=1 n=f4 v=101
177276 On ch=1 n=f#4 v=73
177278 On ch=1 n=d#5 v=83
177288 Off ch=1 n=f4 v=64
177344 Off ch=1 n=a3 v=64
177392 On ch=1 n=c5 v=82
177430 Off ch=1 n=f#4 v=64
177494 Off ch=1 n=d#5 v=64
177502 On ch=1 n=c3 v=73
177504 Par ch=1 c=64 v=0
177534 On ch=1 n=a#3 v=61
177570 Off ch=1 n=c5 v=64
177602 Off ch=1 n=c3 v=64
177690 On ch=1 n=e5 v=88
177692 On ch=1 n=g4 v=79
177700 On ch=1 n=e4 v=66
177704 Par ch=1 c=64 v=127
177746 Off ch=1 n=g4 v=64
177816 Off ch=1 n=e4 v=64
177840 On ch=1 n=c5 v=103
177894 Off ch=1 n=e5 v=64
178062 Off ch=1 n=a#3 v=64
178087 On ch=1 n=f3 v=56
178126 Off ch=1 n=c5 v=64
178126 On ch=1 n=c4 v=41
178132 On ch=1 n=f5 v=94
178164 Par ch=1 c=64 v=0
178298 Off ch=1 n=f3 v=64
178316 Off ch=1 n=c4 v=64
178340 On ch=1 n=f4 v=73
178350 Par ch=1 c=64 v=127
178353 On ch=1 n=g#5 v=86
178414 Off ch=1 n=f5 v=64
178432 Off ch=1 n=f4 v=64
178494 On ch=1 n=g#4 v=55
178536 On ch=1 n=c6 v=89
178582 Off ch=1 n=g#5 v=64
178648 On ch=1 n=c5 v=60
178690 Off ch=1 n=g#4 v=64
178768 Off ch=1 n=c5 v=64
178816 On ch=1 n=f5 v=46
178816 On ch=1 n=f6 v=95
178894 Off ch=1 n=c6 v=64
178894 Off ch=1 n=f5 v=64
178962 On ch=1 n=c5 v=54
179040 Off ch=1 n=c5 v=64
179072 On ch=1 n=g#4 v=52
179116 Off ch=1 n=f6 v=64
179134 Off ch=1 n=g#4 v=64
179208 On ch=1 n=f4 v=83
179264 Off ch=1 n=f4 v=64
179336 On ch=1 n=c4 v=54
179358 On ch=1 n=f3 v=53
179440 Par ch=1 c=64 v=0
179488 On ch=1 n=f4 v=71
179564 On ch=1 n=g#4 v=55
179576 On ch=1 n=f5 v=67
179592 Par ch=1 c=64 v=127
179594 Off ch=1 n=f4 v=64
179656 Off ch=1 n=c4 v=64
179682 Off ch=1 n=g#4 v=64
179684 On ch=1 n=c5 v=63
179830 Off ch=1 n=c5 v=64
179833 On ch=1 n=e5 v=84
179836 On ch=1 n=c#5 v=65
179838 Par ch=1 c=64 v=0
179860 Off ch=1 n=f5 v=64
179930 Off ch=1 n=c#5 v=64
179932 On ch=1 n=a#4 v=60
179952 Off ch=1 n=f3 v=64
179988 Off ch=1 n=a#4 v=64
179994 Par ch=1 c=64 v=127
180068 Off ch=1 n=e5 v=64
180088 On ch=1 n=g4 v=47
180090 On ch=1 n=c5 v=95
180166 Off ch=1 n=g4 v=64
180230 On ch=1 n=e4 v=56
180276 Off ch=1 n=e4 v=64
180372 On ch=1 n=f3 v=68
180398 On ch=1 n=c4 v=48
180416 Off ch=1 n=c5 v=64
180422 Par ch=1 c=64 v=0
180428 On ch=1 n=f5 v=91
180516 Off ch=1 n=f3 v=64
180560 Off ch=1 n=c4 v=64
180572 On ch=1 n=f4 v=80
180575 Par ch=1 c=64 v=127
180656 On ch=1 n=g#5 v=84
180678 Off ch=1 n=f4 v=64
180686 Off ch=1 n=f5 v=64
180720 On ch=1 n=g#4 v=50
180744 Off ch=1 n=g#5 v=64
180824 On ch=1 n=c6 v=92
180902 On ch=1 n=c5 v=46
181102 Off ch=1 n=c5 v=64
181126 On ch=1 n=f5 v=39
181166 On ch=1 n=g#6 v=93
181176 Par ch=1 c=64 v=0
181190 Off ch=1 n=c6 v=64
181314 Par ch=1 c=64 v=127
181326 Off ch=1 n=f5 v=64
181362 Off ch=1 n=g#4 v=64
181380 On ch=1 n=c5 v=45
181466 Off ch=1 n=c5 v=64
181524 On ch=1 n=g#4 v=45
181538 On ch=1 n=g6 v=95
181574 Off ch=1 n=g#4 v=64
181688 On ch=1 n=f4 v=39
181752 Off ch=1 n=f4 v=64
181760 Off ch=1 n=g6 v=64
181822 On ch=1 n=f3 v=61
181830 On ch=1 n=f6 v=87
181836 Par ch=1 c=64 v=0
181846 On ch=1 n=c4 v=51
181938 Off ch=1 n=c4 v=64
181941 Off ch=1 n=f3 v=64
181962 On ch=1 n=f4 v=87
181974 Par ch=1 c=64 v=127
182010 Off ch=1 n=f4 v=64
182086 On ch=1 n=d#6 v=81
182096 Off ch=1 n=f6 v=64
182106 On ch=1 n=a4 v=48
182180 Off ch=1 n=a4 v=64
182232 On ch=1 n=d#5 v=78
182288 Off ch=1 n=d#5 v=64
182330 Off ch=1 n=d#6 v=64
182342 Off ch=1 n=g#6 v=64
182358 On ch=1 n=a6 v=95
182366 On ch=1 n=c#6 v=61
182374 On ch=1 n=f5 v=57
182418 On ch=1 n=f6 v=25
182472 Off ch=1 n=f5 v=64
182508 Off ch=1 n=f6 v=64
182520 On ch=1 n=d#5 v=51
182578 Off ch=1 n=d#5 v=64
182598 Off ch=1 n=c#6 v=64
182638 On ch=1 n=a4 v=43
182654 On ch=1 n=c6 v=78
182694 Off ch=1 n=a4 v=64
182794 On ch=1 n=f4 v=81
182806 Off ch=1 n=c6 v=64
182850 Off ch=1 n=f4 v=64
182948 On ch=1 n=a#3 v=35
182948 On ch=1 n=a#5 v=82
183020 Par ch=1 c=64 v=0
183130 On ch=1 n=f4 v=90
183154 Off ch=1 n=a#3 v=64
183172 Par ch=1 c=64 v=127
183246 Off ch=1 n=f4 v=64
183249 On ch=1 n=a#6 v=94
183264 Off ch=1 n=a#5 v=64
183286 On ch=1 n=a#4 v=52
183310 Off ch=1 n=a6 v=64
183476 On ch=1 n=c#5 v=55
183560 Off ch=1 n=c#5 v=64
183670 On ch=1 n=c#7 v=91
183674 Off ch=1 n=a#4 v=64
183708 On ch=1 n=f5 v=33
183744 Off ch=1 n=a#6 v=64
183744 Par ch=1 c=64 v=0
183834 Off ch=1 n=f5 v=64
183834 Par ch=1 c=64 v=127
183902 On ch=1 n=c#5 v=42
183970 Off ch=1 n=c#5 v=64
184030 On ch=1 n=c7 v=95
184038 On ch=1 n=a#4 v=39
184046 Off ch=1 n=c#7 v=64
184102 Off ch=1 n=a#4 v=64
184185 On ch=1 n=f4 v=81
184241 Off ch=1 n=f4 v=64
184312 On ch=1 n=a#3 v=53
184344 On ch=1 n=a#6 v=78
184402 Par ch=1 c=64 v=0
184482 Off ch=1 n=c7 v=64
184502 On ch=1 n=f#4 v=61
184524 Par ch=1 c=64 v=127
184554 Off ch=1 n=a#3 v=64
184590 Off ch=1 n=f#4 v=64
184630 On ch=1 n=g#6 v=80
184638 On ch=1 n=a#4 v=44
184698 Off ch=1 n=a#4 v=64
184754 On ch=1 n=c#5 v=62
184846 Off ch=1 n=a#6 v=64
184862 Off ch=1 n=c#5 v=64
184890 On ch=1 n=f#6 v=85
184890 On ch=1 n=f#5 v=60
184984 Off ch=1 n=g#6 v=64
185002 Off ch=1 n=f#5 v=64
185036 On ch=1 n=c#5 v=49
185088 Off ch=1 n=c#5 v=64
185156 On ch=1 n=f6 v=87
185172 Off ch=1 n=f#6 v=64
185175 On ch=1 n=a#4 v=45
185240 Off ch=1 n=a#4 v=64
185292 On ch=1 n=f#4 v=52
185344 Off ch=1 n=f#4 v=64
185412 On ch=1 n=c4 v=43
185432 Par ch=1 c=64 v=0
185456 On ch=1 n=d#6 v=80
185478 On ch=1 n=f#4 v=26
185481 Off ch=1 n=f6 v=64
185526 On ch=1 n=a4 v=48
185558 Off ch=1 n=c4 v=64
185564 Off ch=1 n=f#4 v=64
185600 Par ch=1 c=64 v=127
185684 On ch=1 n=d#5 v=45
185796 On ch=1 n=f#5 v=43
185806 Off ch=1 n=d#5 v=64
185870 Off ch=1 n=a4 v=64
185902 On ch=1 n=g#5 v=53
185934 Off ch=1 n=f#5 v=64
185958 Off ch=1 n=g#5 v=64
186044 On ch=1 n=c#6 v=72
186060 On ch=1 n=a5 v=40
186120 Off ch=1 n=d#6 v=64
186184 On ch=1 n=f#5 v=48
186230 Par ch=1 c=64 v=0
186252 Off ch=1 n=a5 v=64
186292 On ch=1 n=c#5 v=38
186400 Par ch=1 c=64 v=127
186412 On ch=1 n=c#4 v=37
186450 Off ch=1 n=c#5 v=64
186504 Off ch=1 n=f#5 v=64
186548 Off ch=1 n=c#4 v=64
186556 On ch=1 n=c6 v=67
186570 On ch=1 n=d#4 v=31
186600 Par ch=1 c=64 v=0
186624 Off ch=1 n=c#6 v=64
186706 On ch=1 n=d#5 v=54
186826 On ch=1 n=f#5 v=23
186876 Par ch=1 c=64 v=127
186918 Off ch=1 n=d#5 v=64
186950 On ch=1 n=g#5 v=36
186953 Off ch=1 n=d#4 v=64
186972 Off ch=1 n=f#5 v=64
187080 Off ch=1 n=g#5 v=64
187100 On ch=1 n=a5 v=31
187240 On ch=1 n=f#5 v=26
187276 Off ch=1 n=a5 v=64
187334 Off ch=1 n=f#5 v=64
187382 On ch=1 n=d#5 v=28
187464 Off ch=1 n=d#5 v=64
187520 On ch=1 n=f#5 v=53
187694 On ch=1 n=c5 v=36
187726 Off ch=1 n=c6 v=64
187798 Off ch=1 n=c5 v=64
187928 On ch=1 n=d4 v=39
187944 On ch=1 n=a4 v=16
187952 Par ch=1 c=64 v=0
188106 Off ch=1 n=d4 v=64
188116 Off ch=1 n=a4 v=64
188136 Par ch=1 c=64 v=127
188148 On ch=1 n=a5 v=39
188180 On ch=1 n=c5 v=22
188212 Off ch=1 n=f#5 v=64
188262 Off ch=1 n=c5 v=64
188352 On ch=1 n=d5 v=29
188360 Off ch=1 n=a5 v=64
188382 On ch=1 n=c6 v=63
188436 Off ch=1 n=d5 v=64
188538 On ch=1 n=f#5 v=26
188614 Off ch=1 n=f#5 v=64
188632 Off ch=1 n=c6 v=64
188696 On ch=1 n=c7 v=65
188748 On ch=1 n=a5 v=23
188828 Off ch=1 n=a5 v=64
188880 On ch=1 n=f#5 v=32
188944 Off ch=1 n=f#5 v=64
189006 On ch=1 n=d5 v=36
189022 On ch=1 n=b6 v=87
189062 Off ch=1 n=d5 v=64
189136 On ch=1 n=c5 v=38
189148 Off ch=1 n=c7 v=64
189218 Off ch=1 n=c5 v=64
189306 On ch=1 n=d4 v=31
189309 On ch=1 n=a6 v=72
189309 On ch=1 n=a4 v=28
189368 Off ch=1 n=b6 v=64
189384 Off ch=1 n=d4 v=64
189384 Off ch=1 n=a4 v=64
189444 On ch=1 n=c5 v=41
189510 Off ch=1 n=c5 v=64
189546 Off ch=1 n=a6 v=64
189560 On ch=1 n=g6 v=76
189578 On ch=1 n=d5 v=39
189646 Off ch=1 n=d5 v=64
189700 On ch=1 n=f#5 v=44
189756 Off ch=1 n=f#5 v=64
189814 On ch=1 n=f#6 v=71
189822 On ch=1 n=a5 v=36
189892 Off ch=1 n=g6 v=64
189902 Off ch=1 n=a5 v=64
189944 On ch=1 n=f#5 v=33
190006 Off ch=1 n=f#5 v=64
190052 On ch=1 n=d5 v=36
190084 On ch=1 n=e6 v=73
190114 Off ch=1 n=d5 v=64
190124 Off ch=1 n=f#6 v=64
190128 Off ch=1 n=e6 v=64
190174 On ch=1 n=c5 v=42
190242 Off ch=1 n=c5 v=64
190329 On ch=1 n=b4 v=37
190346 On ch=1 n=d4 v=33
190356 On ch=1 n=d6 v=73
190394 Par ch=1 c=64 v=0
190508 On ch=1 n=d5 v=38
190590 Off ch=1 n=d5 v=64
190616 On ch=1 n=g5 v=41
190622 Off ch=1 n=b4 v=64
190624 Par ch=1 c=64 v=127
190734 On ch=1 n=b5 v=41
190746 Off ch=1 n=d6 v=64
190774 Off ch=1 n=g5 v=64
190872 Par ch=1 c=64 v=0
190872 On ch=1 n=c6 v=65
190882 On ch=1 n=a5 v=44
190908 Off ch=1 n=b5 v=64
191034 On ch=1 n=f#5 v=29
191042 Off ch=1 n=d4 v=64
191044 Off ch=1 n=a5 v=64
191070 Par ch=1 c=64 v=127
191136 On ch=1 n=d5 v=29
191208 Off ch=1 n=c6 v=64
191222 Off ch=1 n=d5 v=64
191270 On ch=1 n=c5 v=24
191336 Off ch=1 n=c5 v=64
191448 On ch=1 n=b4 v=27
191472 On ch=1 n=b5 v=49
191482 On ch=1 n=d4 v=16
191516 Par ch=1 c=64 v=0
191628 Off ch=1 n=f#5 v=64
191684 On ch=1 n=d5 v=13
191792 On ch=1 n=f5 v=26
191824 Off ch=1 n=d5 v=64
191884 Par ch=1 c=64 v=127
191902 Off ch=1 n=f5 v=64
191928 On ch=1 n=g5 v=17
192042 On ch=1 n=g#5 v=41
192052 Off ch=1 n=g5 v=64
192096 Off ch=1 n=b4 v=64
192124 Off ch=1 n=b5 v=64
192160 Off ch=1 n=d4 v=64
192194 Off ch=1 n=g#5 v=64
192214 On ch=1 n=f5 v=28
192362 Off ch=1 n=f5 v=64
192364 On ch=1 n=d5 v=27
192444 Off ch=1 n=d5 v=64
192524 On ch=1 n=b4 v=15
192594 Off ch=1 n=b4 v=64
192674 On ch=1 n=d#4 v=34
192690 On ch=1 n=g#4 v=23
192730 Par ch=1 c=64 v=0
192888 On ch=1 n=b4 v=23
192994 On ch=1 n=b5 v=52
193016 Off ch=1 n=b4 v=64
193028 On ch=1 n=d#5 v=30
193126 On ch=1 n=g#5 v=37
193176 Par ch=1 c=64 v=127
193194 Off ch=1 n=g#4 v=64
193218 Off ch=1 n=d#5 v=64
193264 Off ch=1 n=g#5 v=64
193267 On ch=1 n=a#5 v=35
193282 Off ch=1 n=b5 v=64
193292 On ch=1 n=g5 v=21
193298 Par ch=1 c=64 v=0
193420 On ch=1 n=e5 v=31
193446 Off ch=1 n=g5 v=64
193520 Off ch=1 n=e5 v=64
193528 Par ch=1 c=64 v=127
193534 On ch=1 n=c#5 v=33
193580 Off ch=1 n=d#4 v=64
193632 Off ch=1 n=c#5 v=64
193642 On ch=1 n=a#4 v=34
193660 Off ch=1 n=a#5 v=64
193724 Off ch=1 n=a#4 v=64
193764 On ch=1 n=g#4 v=49
193780 On ch=1 n=d#4 v=34
193806 Par ch=1 c=64 v=0
193896 On ch=1 n=b4 v=46
193994 On ch=1 n=b5 v=72
194002 On ch=1 n=d#5 v=52
194056 Off ch=1 n=b4 v=64
194114 Par ch=1 c=64 v=127
194124 Off ch=1 n=d#5 v=64
194127 On ch=1 n=g#5 v=46
194168 Off ch=1 n=g#4 v=64
194220 Off ch=1 n=g#5 v=64
194246 On ch=1 n=a#5 v=63
194251 On ch=1 n=g5 v=56
194264 Off ch=1 n=b5 v=64
194266 Par ch=1 c=64 v=0
194374 Off ch=1 n=g5 v=64
194378 On ch=1 n=e5 v=52
194420 Par ch=1 c=64 v=127
194428 Off ch=1 n=e5 v=64
194448 Off ch=1 n=a#5 v=64
194510 On ch=1 n=d#6 v=90
194514 On ch=1 n=d#5 v=97
194538 On ch=1 n=c#5 v=57
194556 Off ch=1 n=d#5 v=64
194574 Off ch=1 n=d#4 v=64
194630 Off ch=1 n=d#6 v=64
194676 On ch=1 n=a#4 v=46
194722 Off ch=1 n=c#5 v=64
194818 Off ch=1 n=a#4 v=64
194821 On ch=1 n=d#4 v=61
194852 On ch=1 n=g#6 v=99
194854 On ch=1 n=g#5 v=93
194866 Par ch=1 c=64 v=0
194988 Off ch=1 n=g#5 v=64
194990 Par ch=1 c=64 v=127
195004 On ch=1 n=g#4 v=52
195009 Off ch=1 n=g#6 v=64
195066 On ch=1 n=a#6 v=93
195066 On ch=1 n=a#5 v=87
195140 On ch=1 n=b4 v=56
195152 Off ch=1 n=a#6 v=64
195174 Off ch=1 n=a#5 v=64
195224 On ch=1 n=b6 v=119
195232 On ch=1 n=b5 v=101
195248 On ch=1 n=f5 v=61
195262 Off ch=1 n=g#4 v=64
195282 Off ch=1 n=b5 v=64
195306 Off ch=1 n=b6 v=64
195346 Off ch=1 n=b4 v=64
195349 Off ch=1 n=f5 v=64
195404 Par ch=1 c=64 v=0
195412 On ch=1 n=b6 v=111
195414 On ch=1 n=d6 v=89
195414 On ch=1 n=g#6 v=86
195418 On ch=1 n=f6 v=85
195418 On ch=1 n=b5 v=108
195428 On ch=1 n=f5 v=70
195512 Off ch=1 n=d#4 v=64
195542 Par ch=1 c=64 v=127
195545 Off ch=1 n=f5 v=64
195554 On ch=1 n=b4 v=58
195654 On ch=1 n=g#4 v=69
195686 Off ch=1 n=b4 v=64
195724 On ch=1 n=d#4 v=68
195778 Off ch=1 n=g#4 v=64
195834 Off ch=1 n=d#4 v=64
195892 Off ch=1 n=f6 v=64
195892 On ch=1 n=d#4 v=82
196018 On ch=1 n=g#4 v=66
196060 Off ch=1 n=d#4 v=64
196134 Off ch=1 n=b6 v=64
196150 On ch=1 n=b4 v=63
196158 On ch=1 n=f6 v=2
196192 Off ch=1 n=g#4 v=64
196212 Off ch=1 n=b5 v=64
196262 Off ch=1 n=b4 v=64
196270 On ch=1 n=f5 v=58
196282 Off ch=1 n=d6 v=64
196308 Off ch=1 n=f6 v=64
196334 Off ch=1 n=f5 v=64
196338 Off ch=1 n=g#6 v=64
196404 On ch=1 n=a#6 v=98
196408 On ch=1 n=a#5 v=88
196432 On ch=1 n=f5 v=48
196520 Off ch=1 n=a#5 v=64
196570 Off ch=1 n=a#6 v=64
196570 Off ch=1 n=f5 v=64
196573 On ch=1 n=b4 v=56
196696 On ch=1 n=g#4 v=42
196706 On ch=1 n=g#5 v=92
196706 On ch=1 n=g#6 v=97
196709 Off ch=1 n=b4 v=64
196748 Off ch=1 n=g#5 v=64
196796 Off ch=1 n=g#6 v=64
196802 On ch=1 n=d#4 v=49
196844 Off ch=1 n=g#4 v=64
196857 Off ch=1 n=d#4 v=64
197018 Par ch=1 c=64 v=0
197036 On ch=1 n=d#4 v=38
197046 On ch=1 n=g#4 v=48
197076 On ch=1 n=d#7 v=92
197084 On ch=1 n=d#6 v=88
197200 Par ch=1 c=64 v=127
197212 Off ch=1 n=d#7 v=64
197242 Off ch=1 n=d#6 v=64
197266 Off ch=1 n=g#4 v=64
197300 On ch=1 n=b4 v=39
197372 Off ch=1 n=b4 v=64
197454 On ch=1 n=b5 v=74
197472 On ch=1 n=d#5 v=51
197592 On ch=1 n=g#5 v=46
197608 Off ch=1 n=d#5 v=64
197730 Off ch=1 n=g#5 v=64
197744 On ch=1 n=a#5 v=49
197748 On ch=1 n=g5 v=42
197804 Off ch=1 n=b5 v=64
197804 Par ch=1 c=64 v=0
197886 On ch=1 n=e5 v=54
197970 Par ch=1 c=64 v=127
197973 Off ch=1 n=d#4 v=64
197992 Off ch=1 n=e5 v=64
198000 Off ch=1 n=g5 v=64
198002 On ch=1 n=c#5 v=47
198112 On ch=1 n=a#4 v=40
198122 Off ch=1 n=c#5 v=64
198192 Off ch=1 n=a#4 v=64
198195 Off ch=1 n=a#5 v=64
198222 On ch=1 n=g#4 v=46
198248 On ch=1 n=d#4 v=44
198308 Par ch=1 c=64 v=0
198374 On ch=1 n=b4 v=38
198458 Off ch=1 n=g#4 v=64
198464 On ch=1 n=b5 v=53
198470 On ch=1 n=d#5 v=44
198501 Off ch=1 n=b4 v=64
198538 Par ch=1 c=64 v=127
198596 On ch=1 n=g#5 v=45
198640 Off ch=1 n=d#5 v=64
198724 Off ch=1 n=g#5 v=64
198730 On ch=1 n=a#5 v=42
198738 Par ch=1 c=64 v=0
198740 On ch=1 n=g5 v=33
198744 Off ch=1 n=b5 v=64
198854 Off ch=1 n=g5 v=64
198870 On ch=1 n=e5 v=48
198876 Par ch=1 c=64 v=127
198912 Off ch=1 n=a#5 v=64
198920 Off ch=1 n=e5 v=64
198990 On ch=1 n=e6 v=95
198996 On ch=1 n=e5 v=87
199012 Off ch=1 n=d#4 v=64
199018 On ch=1 n=c#5 v=50
199062 Off ch=1 n=e5 v=64
199082 Off ch=1 n=e6 v=64
199172 On ch=1 n=a#4 v=46
199298 Off ch=1 n=a#4 v=64
199326 Off ch=1 n=c#5 v=64
199332 On ch=1 n=g#5 v=96
199332 On ch=1 n=g#6 v=102
199352 On ch=1 n=d#4 v=55
199476 Off ch=1 n=g#5 v=64
199496 On ch=1 n=g#4 v=62
199506 Off ch=1 n=g#6 v=64
199564 On ch=1 n=a#5 v=90
199566 On ch=1 n=a#6 v=95
199626 On ch=1 n=b4 v=68
199648 Off ch=1 n=a#6 v=64
199652 Off ch=1 n=a#5 v=64
199748 On ch=1 n=b6 v=120
199756 On ch=1 n=b5 v=110
199782 On ch=1 n=d5 v=47
199784 On ch=1 n=e5 v=69
199834 Off ch=1 n=b4 v=64
199840 Off ch=1 n=d5 v=64
199843 Off ch=1 n=e5 v=64
199864 Off ch=1 n=b6 v=64
199884 Off ch=1 n=b5 v=64
199922 Off ch=1 n=g#4 v=64
199952 On ch=1 n=b6 v=118
199958 On ch=1 n=b5 v=106
199958 On ch=1 n=g#6 v=89
199961 On ch=1 n=e6 v=76
199964 On ch=1 n=d6 v=88
199982 Par ch=1 c=64 v=0
199994 On ch=1 n=e5 v=60
199994 On ch=1 n=c6 v=45
199997 On ch=1 n=d5 v=59
200126 On ch=1 n=b4 v=62
200152 Par ch=1 c=64 v=127
200164 Off ch=1 n=c6 v=64
200196 Off ch=1 n=d#4 v=64
200232 On ch=1 n=g#4 v=56
200244 Off ch=1 n=d5 v=64
200247 Off ch=1 n=e5 v=64
200280 Off ch=1 n=b4 v=64
200312 On ch=1 n=d#4 v=59
200372 Off ch=1 n=g#4 v=64
200408 Off ch=1 n=d#4 v=64
200476 On ch=1 n=d#4 v=78
200602 On ch=1 n=g#4 v=72
200698 Off ch=1 n=d#4 v=64
200720 Off ch=1 n=b6 v=64
200732 On ch=1 n=b4 v=78
200790 Off ch=1 n=g#4 v=64
200822 Off ch=1 n=b5 v=64
200856 On ch=1 n=e5 v=65
200859 Off ch=1 n=b4 v=64
200866 On ch=1 n=d5 v=47
200874 Off ch=1 n=d6 v=64
200898 Off ch=1 n=g#6 v=64
200902 Off ch=1 n=e5 v=64
200910 Off ch=1 n=e6 v=64
200918 Off ch=1 n=d5 v=64
200982 On ch=1 n=a#6 v=101
200984 On ch=1 n=a#5 v=100
201016 On ch=1 n=d5 v=26
201019 On ch=1 n=e5 v=42
201070 Off ch=1 n=a#5 v=64
201134 Off ch=1 n=a#6 v=64
201148 On ch=1 n=b4 v=63
201188 Off ch=1 n=e5 v=64
201282 Off ch=1 n=b4 v=64
201294 On ch=1 n=g#4 v=55
201314 On ch=1 n=g#5 v=95
201317 On ch=1 n=g#6 v=99
201362 Off ch=1 n=d5 v=64
201380 Off ch=1 n=g#5 v=64
201416 Off ch=1 n=g#6 v=64
201468 On ch=1 n=d#4 v=49
201558 Off ch=1 n=g#4 v=64
201574 Off ch=1 n=d#4 v=64
201672 Par ch=1 c=64 v=0
201676 On ch=1 n=g#7 v=98
201682 On ch=1 n=g#6 v=91
201690 On ch=1 n=d#7 v=66
201692 On ch=1 n=b6 v=97
201714 On ch=1 n=g#4 v=47
201720 On ch=1 n=d#4 v=50
201860 Off ch=1 n=g#7 v=64
201888 Par ch=1 c=64 v=127
201890 Off ch=1 n=b6 v=64
201892 Off ch=1 n=d#7 v=64
201920 Off ch=1 n=g#6 v=64
201962 Off ch=1 n=g#4 v=64
201970 On ch=1 n=b4 v=44
202066 Off ch=1 n=b4 v=64
202154 On ch=1 n=b5 v=63
202160 On ch=1 n=d#5 v=52
202278 On ch=1 n=g#5 v=42
202294 Off ch=1 n=d#5 v=64
202446 On ch=1 n=a#5 v=55
202452 On ch=1 n=g5 v=47
202488 Off ch=1 n=g#5 v=64
202522 Off ch=1 n=b5 v=64
202532 Par ch=1 c=64 v=0
202590 On ch=1 n=e5 v=60
202694 On ch=1 n=c#5 v=46
202702 Par ch=1 c=64 v=127
202728 Off ch=1 n=g5 v=64
202736 Off ch=1 n=e5 v=64
202742 Off ch=1 n=d#4 v=64
202810 On ch=1 n=a#4 v=40
202828 Off ch=1 n=c#5 v=64
202882 Off ch=1 n=a#5 v=64
202904 Off ch=1 n=a#4 v=64
202942 On ch=1 n=g#4 v=47
202952 On ch=1 n=d#4 v=42
202980 Par ch=1 c=64 v=0
203096 On ch=1 n=b4 v=41
203130 Off ch=1 n=g#4 v=64
203190 On ch=1 n=d#5 v=52
203204 On ch=1 n=b5 v=48
203216 Off ch=1 n=b4 v=64
203224 Par ch=1 c=64 v=127
203330 On ch=1 n=g#5 v=39
203346 Off ch=1 n=d#5 v=64
203462 Off ch=1 n=g#5 v=64
203518 On ch=1 n=a#5 v=43
203518 On ch=1 n=g5 v=36
203528 Off ch=1 n=b5 v=64
203566 Par ch=1 c=64 v=0
203684 On ch=1 n=e5 v=49
203690 Off ch=1 n=g5 v=64
203732 Par ch=1 c=64 v=127
203838 Off ch=1 n=a#5 v=64
203840 Off ch=1 n=e5 v=64
203840 On ch=1 n=c#5 v=38
203852 On ch=1 n=d#6 v=77
204014 Off ch=1 n=d#4 v=64
204022 On ch=1 n=a#4 v=29
204114 Off ch=1 n=a#4 v=64
204212 On ch=1 n=d#4 v=34
204238 Par ch=1 c=64 v=0
204246 Off ch=1 n=c#5 v=64
204382 On ch=1 n=g#4 v=38
204422 Par ch=1 c=64 v=127
204528 On ch=1 n=g#6 v=78
204546 Off ch=1 n=d#4 v=64
204586 On ch=1 n=b4 v=30
204616 Off ch=1 n=g#4 v=64
204642 Off ch=1 n=d#6 v=64
204712 Off ch=1 n=b4 v=64
204730 On ch=1 n=g#5 v=45
204798 Off ch=1 n=g#5 v=64
204914 On ch=1 n=b6 v=105
204934 On ch=1 n=g#5 v=36
205000 Off ch=1 n=g#6 v=64
205002 Off ch=1 n=g#5 v=64
205096 On ch=1 n=b4 v=42
205216 Off ch=1 n=b4 v=64
205224 On ch=1 n=g#4 v=32
205248 On ch=1 n=a#6 v=81
205316 Off ch=1 n=g#4 v=64
205336 On ch=1 n=d#4 v=42
205396 Off ch=1 n=b6 v=64
205400 Off ch=1 n=d#4 v=64
205542 On ch=1 n=e4 v=51
205544 On ch=1 n=g#6 v=78
205544 Par ch=1 c=64 v=0
205642 Off ch=1 n=a#6 v=64
205680 On ch=1 n=g#4 v=41
205728 Par ch=1 c=64 v=127
205760 Off ch=1 n=e4 v=64
205846 Off ch=1 n=g#4 v=64
205850 On ch=1 n=f#6 v=73
205866 On ch=1 n=b4 v=44
205946 Off ch=1 n=b4 v=64
205968 Off ch=1 n=g#6 v=64
205990 On ch=1 n=g#5 v=38
206048 Off ch=1 n=g#5 v=64
206144 On ch=1 n=g#5 v=26
206156 On ch=1 n=e6 v=67
206184 Off ch=1 n=f#6 v=64
206228 Off ch=1 n=g#5 v=64
206324 On ch=1 n=b4 v=41
206392 Off ch=1 n=b4 v=64
206448 On ch=1 n=g#4 v=33
206462 On ch=1 n=d#6 v=64
206488 Off ch=1 n=e6 v=64
206542 Off ch=1 n=g#4 v=64
206580 On ch=1 n=e4 v=38
206638 Off ch=1 n=e4 v=64
206776 Off ch=1 n=d#6 v=64
206850 On ch=1 n=a#3 v=25
206884 On ch=1 n=f#4 v=37
206906 On ch=1 n=c#6 v=64
207066 Par ch=1 c=64 v=0
207106 On ch=1 n=c#5 v=40
207252 On ch=1 n=e5 v=34
207260 Off ch=1 n=c#5 v=64
207280 Par ch=1 c=64 v=127
207324 Off ch=1 n=f#4 v=64
207352 Off ch=1 n=e5 v=64
207360 On ch=1 n=f#5 v=28
207398 Off ch=1 n=c#6 v=64
207478 Off ch=1 n=f#5 v=64
207504 On ch=1 n=b5 v=72
207524 On ch=1 n=g5 v=39
207534 Off ch=1 n=a#3 v=64
207678 On ch=1 n=e5 v=32
207788 Off ch=1 n=g5 v=64
207800 On ch=1 n=b4 v=34
207838 Off ch=1 n=e5 v=64
207906 Off ch=1 n=b4 v=64
207908 On ch=1 n=b3 v=46
208002 Off ch=1 n=b3 v=64
208060 On ch=1 n=a#5 v=51
208078 On ch=1 n=c#4 v=39
208142 Par ch=1 c=64 v=0
208170 Off ch=1 n=b5 v=64
208246 On ch=1 n=c#5 v=48
208356 On ch=1 n=e5 v=42
208416 Off ch=1 n=c#5 v=64
208454 Off ch=1 n=e5 v=64
208464 On ch=1 n=f#5 v=35
208480 Par ch=1 c=64 v=127
208632 Off ch=1 n=f#5 v=64
208636 On ch=1 n=g5 v=48
208692 Off ch=1 n=c#4 v=64
208730 Off ch=1 n=a#5 v=64
208828 Off ch=1 n=g5 v=64
208834 On ch=1 n=e5 v=65
208996 On ch=1 n=c#5 v=38
209122 Off ch=1 n=c#5 v=64
209172 On ch=1 n=a#4 v=28
209244 Off ch=1 n=a#4 v=64
209412 On ch=1 n=c4 v=25
209478 Par ch=1 c=64 v=0
209626 Off ch=1 n=c4 v=64
209652 On ch=1 n=g4 v=23
209662 Par ch=1 c=64 v=127
209730 On ch=1 n=g5 v=45
209754 Off ch=1 n=e5 v=64
209798 Off ch=1 n=g4 v=64
209846 Off ch=1 n=g5 v=64
209846 On ch=1 n=a#4 v=22
210008 On ch=1 n=a#5 v=42
210038 On ch=1 n=c#5 v=29
210058 Off ch=1 n=a#4 v=64
210126 Off ch=1 n=c#5 v=64
210268 On ch=1 n=e5 v=34
210280 Off ch=1 n=a#5 v=64
210294 On ch=1 n=a#6 v=57
210362 Off ch=1 n=e5 v=64
210474 On ch=1 n=c#5 v=38
210540 Off ch=1 n=c#5 v=64
210620 On ch=1 n=a#4 v=26
210624 On ch=1 n=g#6 v=62
210686 Off ch=1 n=a#6 v=64
210698 Off ch=1 n=a#4 v=64
210780 On ch=1 n=g4 v=18
210860 Off ch=1 n=g4 v=64
210924 On ch=1 n=g6 v=68
210936 On ch=1 n=c4 v=17
210958 Off ch=1 n=g#6 v=64
211086 Off ch=1 n=c4 v=64
211094 On ch=1 n=g4 v=53
211148 Off ch=1 n=g4 v=64
211210 On ch=1 n=f6 v=69
211214 On ch=1 n=a#4 v=45
211330 On ch=1 n=c#5 v=58
211338 Off ch=1 n=g6 v=64
211444 Off ch=1 n=c#5 v=64
211484 On ch=1 n=g5 v=44
211492 On ch=1 n=e6 v=71
211566 Off ch=1 n=g5 v=64
211576 Off ch=1 n=a#4 v=64
211588 Off ch=1 n=f6 v=64
211618 On ch=1 n=c#5 v=50
211728 Off ch=1 n=c#5 v=64
211754 On ch=1 n=a#4 v=29
211762 On ch=1 n=c#6 v=70
211832 Off ch=1 n=a#4 v=64
211876 Off ch=1 n=e6 v=64
211916 On ch=1 n=g4 v=22
211988 Off ch=1 n=g4 v=64
212044 On ch=1 n=c4 v=44
212062 On ch=1 n=c6 v=76
212090 Par ch=1 c=64 v=0
212140 Off ch=1 n=c#6 v=64
212182 Off ch=1 n=c4 v=64
212208 On ch=1 n=g4 v=54
212244 Par ch=1 c=64 v=127
212268 Off ch=1 n=g4 v=64
212304 On ch=1 n=a#4 v=58
212422 On ch=1 n=c#5 v=73
212544 Off ch=1 n=c#5 v=64
212586 On ch=1 n=c#6 v=75
212596 On ch=1 n=e5 v=48
212612 Par ch=1 c=64 v=0
212630 Off ch=1 n=a#4 v=64
212660 Off ch=1 n=c6 v=64
212766 On ch=1 n=c5 v=52
212772 Off ch=1 n=e5 v=64
212826 Par ch=1 c=64 v=127
212882 Off ch=1 n=c5 v=64
212914 On ch=1 n=a#4 v=36
212978 Off ch=1 n=a#4 v=64
213052 On ch=1 n=g4 v=30
213166 Off ch=1 n=g4 v=64
213190 On ch=1 n=e4 v=56
213330 Off ch=1 n=e4 v=64
213342 On ch=1 n=c4 v=43
213350 Par ch=1 c=64 v=0
213412 Par ch=1 c=64 v=127
213492 Off ch=1 n=c4 v=64
213492 On ch=1 n=a#3 v=55
213540 Off ch=1 n=a#3 v=64
213638 On ch=1 n=g3 v=42
213818 On ch=1 n=e3 v=46
213842 Par ch=1 c=64 v=0
213850 On ch=1 n=c6 v=43
213868 Off ch=1 n=g3 v=64
213964 Off ch=1 n=e3 v=64
213984 On ch=1 n=c3 v=39
214014 Off ch=1 n=c#6 v=64
214112 Off ch=1 n=c3 v=64
214126 On ch=1 n=a#2 v=44
214150 Par ch=1 c=64 v=127
214216 Off ch=1 n=a#2 v=64
214266 On ch=1 n=g2 v=50
214296 Off ch=1 n=c6 v=64
214316 Off ch=1 n=g2 v=64
214492 On ch=1 n=f3 v=56
214504 On ch=1 n=c4 v=36
214626 Par ch=1 c=64 v=0
214672 On ch=1 n=f4 v=62
214786 Off ch=1 n=f4 v=64
214800 On ch=1 n=g#4 v=50
214800 On ch=1 n=f5 v=52
214852 Off ch=1 n=c4 v=64
214918 Par ch=1 c=64 v=127
214936 Off ch=1 n=g#4 v=64
214936 On ch=1 n=c5 v=57
215056 Par ch=1 c=64 v=0
215059 Off ch=1 n=c5 v=64
215068 On ch=1 n=e5 v=61
215074 On ch=1 n=c#5 v=56
215102 Off ch=1 n=f5 v=64
215170 On ch=1 n=a#4 v=36
215178 Off ch=1 n=f3 v=64
215256 Par ch=1 c=64 v=127
215272 Off ch=1 n=e5 v=64
215320 On ch=1 n=g4 v=38
215324 Off ch=1 n=a#4 v=64
215354 Off ch=1 n=c#5 v=64
215382 Off ch=1 n=g4 v=64
215436 On ch=1 n=e4 v=39
215488 Off ch=1 n=e4 v=64
215562 Par ch=1 c=64 v=0
215586 On ch=1 n=c4 v=22
215596 On ch=1 n=f3 v=47
215718 On ch=1 n=f4 v=30
215804 Off ch=1 n=f4 v=64
215824 On ch=1 n=g#4 v=46
215838 On ch=1 n=f5 v=41
215870 Off ch=1 n=c4 v=64
215870 Par ch=1 c=64 v=127
215928 Off ch=1 n=g#4 v=64
215980 On ch=1 n=c5 v=32
216054 Par ch=1 c=64 v=0
216108 Off ch=1 n=f5 v=64
216122 On ch=1 n=c#5 v=43
216130 Off ch=1 n=c5 v=64
216130 On ch=1 n=e5 v=38
216250 On ch=1 n=a#4 v=19
216254 Off ch=1 n=f3 v=64
216284 Par ch=1 c=64 v=127
216330 Off ch=1 n=a#4 v=64
216454 On ch=1 n=c5 v=65
216457 On ch=1 n=g4 v=30
216490 Off ch=1 n=e5 v=64
216502 Off ch=1 n=c#5 v=64
216540 Off ch=1 n=g4 v=64
216590 On ch=1 n=e4 v=39
216642 Off ch=1 n=e4 v=64
216744 On ch=1 n=c4 v=28
216752 On ch=1 n=f3 v=49
216784 On ch=1 n=f5 v=61
216792 Par ch=1 c=64 v=0
216858 Off ch=1 n=c5 v=64
216866 Off ch=1 n=f3 v=64
216922 Off ch=1 n=c4 v=64
216930 Par ch=1 c=64 v=127
216954 On ch=1 n=f4 v=68
216994 On ch=1 n=g5 v=71
217008 Off ch=1 n=f4 v=64
217088 On ch=1 n=g#4 v=48
217116 Off ch=1 n=f5 v=64
217138 On ch=1 n=g#5 v=76
217194 Off ch=1 n=g#4 v=64
217218 On ch=1 n=c5 v=44
217226 Off ch=1 n=g5 v=64
217284 Off ch=1 n=c5 v=64
217322 On ch=1 n=a#5 v=78
217330 On ch=1 n=c#5 v=55
217332 On ch=1 n=e5 v=39
217392 Off ch=1 n=g#5 v=64
217406 Par ch=1 c=64 v=0
217504 On ch=1 n=a#4 v=39
217530 Par ch=1 c=64 v=127
217546 On ch=1 n=g#5 v=64
217572 Off ch=1 n=c#5 v=64
217616 Off ch=1 n=a#4 v=64
217630 Off ch=1 n=e5 v=64
217638 On ch=1 n=g4 v=39
217640 Off ch=1 n=a#5 v=64
217732 Off ch=1 n=g4 v=64
217754 On ch=1 n=e4 v=47
217776 On ch=1 n=g5 v=55
217806 Off ch=1 n=g#5 v=64
217806 Off ch=1 n=e4 v=64
217846 Off ch=1 n=g5 v=64
217944 On ch=1 n=c4 v=35
217954 On ch=1 n=f3 v=37
218020 Par ch=1 c=64 v=0
218104 On ch=1 n=f4 v=44
218198 Off ch=1 n=f4 v=64
218198 On ch=1 n=f5 v=48
218210 On ch=1 n=g#4 v=37
218252 Par ch=1 c=64 v=127
218312 Off ch=1 n=c4 v=64
218350 Off ch=1 n=g#4 v=64
218362 On ch=1 n=c5 v=35
218478 Off ch=1 n=c5 v=64
218498 Par ch=1 c=64 v=0
218504 On ch=1 n=e5 v=46
218504 On ch=1 n=c#5 v=41
218558 Off ch=1 n=f5 v=64
218604 On ch=1 n=a#4 v=32
218624 Off ch=1 n=f3 v=64
218682 Par ch=1 c=64 v=127
218738 On ch=1 n=g4 v=39
218810 Off ch=1 n=g4 v=64
218838 Off ch=1 n=c#5 v=64
218840 On ch=1 n=c#4 v=41
218850 Off ch=1 n=e5 v=64
218852 Off ch=1 n=a#4 v=64
218899 Off ch=1 n=c#4 v=64
218980 On ch=1 n=f3 v=53
219004 Par ch=1 c=64 v=0
219016 On ch=1 n=c4 v=28
219122 On ch=1 n=g4 v=47
219250 Par ch=1 c=64 v=127
219256 On ch=1 n=g#4 v=43
219260 Off ch=1 n=c4 v=64
219266 On ch=1 n=f5 v=48
219274 Off ch=1 n=g4 v=64
219304 Off ch=1 n=f3 v=64
219398 Off ch=1 n=g#4 v=64
219406 On ch=1 n=c5 v=56
219508 Off ch=1 n=c5 v=64
219516 On ch=1 n=f#3 v=57
219522 Off ch=1 n=f5 v=64
219542 On ch=1 n=c4 v=44
219604 Par ch=1 c=64 v=0
219658 On ch=1 n=g#4 v=56
219770 Off ch=1 n=c4 v=64
219784 On ch=1 n=a4 v=53
219790 On ch=1 n=d#5 v=64
219818 Par ch=1 c=64 v=127
219834 Off ch=1 n=g#4 v=64
219896 Off ch=1 n=f#3 v=64
219899 On ch=1 n=c5 v=61
219936 Off ch=1 n=a4 v=64
219982 Off ch=1 n=d#5 v=64
220010 On ch=1 n=g3 v=68
220016 On ch=1 n=c4 v=57
220044 Off ch=1 n=c5 v=64
220064 Par ch=1 c=64 v=0
220140 On ch=1 n=f#4 v=76
220254 On ch=1 n=g4 v=65
220260 On ch=1 n=d#5 v=77
220264 Off ch=1 n=c4 v=64
220266 Off ch=1 n=g3 v=64
220296 Par ch=1 c=64 v=127
220326 Off ch=1 n=f#4 v=64
220346 Off ch=1 n=g4 v=64
220362 On ch=1 n=c5 v=71
220430 Off ch=1 n=d#5 v=64
220470 Off ch=1 n=c5 v=64
220472 On ch=1 n=g3 v=74
220480 Par ch=1 c=64 v=0
220484 On ch=1 n=d4 v=69
220592 Off ch=1 n=g3 v=64
220595 Off ch=1 n=d4 v=64
220598 On ch=1 n=g4 v=87
220648 Par ch=1 c=64 v=127
220668 Off ch=1 n=g4 v=64
220736 On ch=1 n=b4 v=60
220742 On ch=1 n=g5 v=83
220842 Off ch=1 n=b4 v=64
220854 On ch=1 n=d5 v=66
220940 Off ch=1 n=d5 v=64
220996 On ch=1 n=g4 v=57
220999 On ch=1 n=c4 v=44
221002 On ch=1 n=c6 v=86
221002 Par ch=1 c=64 v=0
221070 Off ch=1 n=g5 v=64
221116 Off ch=1 n=g4 v=64
221128 Off ch=1 n=c4 v=64
221138 On ch=1 n=c5 v=66
221170 Par ch=1 c=64 v=127
221194 On ch=1 n=d6 v=91
221268 On ch=1 n=d#5 v=70
221274 Off ch=1 n=c5 v=64
221294 Off ch=1 n=c6 v=64
221332 Off ch=1 n=d#5 v=64
221362 On ch=1 n=d#6 v=86
221398 On ch=1 n=g5 v=61
221448 Off ch=1 n=d6 v=64
221448 Off ch=1 n=g5 v=64
221538 On ch=1 n=g#5 v=54
221540 On ch=1 n=b5 v=44
221541 On ch=1 n=f6 v=91
221616 Par ch=1 c=64 v=0
221620 Off ch=1 n=d#6 v=64
221706 On ch=1 n=f5 v=54
221724 Off ch=1 n=g#5 v=64
221748 On ch=1 n=d#6 v=72
221756 Par ch=1 c=64 v=127
221798 Off ch=1 n=f5 v=64
221804 Off ch=1 n=b5 v=64
221812 On ch=1 n=d5 v=51
221822 Off ch=1 n=f6 v=64
221928 Off ch=1 n=d5 v=64
221928 On ch=1 n=b4 v=51
221962 On ch=1 n=d6 v=64
221972 Off ch=1 n=b4 v=64
222002 Off ch=1 n=d#6 v=64
222005 Off ch=1 n=d6 v=64
222106 On ch=1 n=c4 v=50
222126 On ch=1 n=g4 v=35
222170 Par ch=1 c=64 v=0
222244 On ch=1 n=c5 v=47
222342 Off ch=1 n=c5 v=64
222352 On ch=1 n=d#5 v=38
222356 On ch=1 n=c6 v=44
222374 Off ch=1 n=g4 v=64
222430 Par ch=1 c=64 v=127
222470 Off ch=1 n=d#5 v=64
222486 On ch=1 n=g5 v=32
222574 Off ch=1 n=g5 v=64
222600 Par ch=1 c=64 v=0
222618 On ch=1 n=g#5 v=44
222624 On ch=1 n=b5 v=57
222680 Off ch=1 n=c6 v=64
222690 Off ch=1 n=g#5 v=64
222748 On ch=1 n=f5 v=28
222752 Off ch=1 n=c4 v=64
222768 Par ch=1 c=64 v=127
222812 Off ch=1 n=f5 v=64
222896 On ch=1 n=d5 v=39
222906 On ch=1 n=g5 v=73
222958 Off ch=1 n=b5 v=64
222978 Off ch=1 n=d5 v=64
223024 On ch=1 n=b4 v=37
223078 Off ch=1 n=b4 v=64
223148 On ch=1 n=g4 v=48
223154 Par ch=1 c=64 v=0
223160 On ch=1 n=c4 v=48
223186 On ch=1 n=c6 v=77
223248 Off ch=1 n=g5 v=64
223260 Off ch=1 n=c4 v=64
223288 Off ch=1 n=g4 v=64
223306 Par ch=1 c=64 v=127
223330 On ch=1 n=c5 v=49
223402 On ch=1 n=d6 v=86
223405 Off ch=1 n=c5 v=64
223454 On ch=1 n=d#5 v=65
223492 Off ch=1 n=c6 v=64
223574 On ch=1 n=d#6 v=83
223594 Off ch=1 n=d#5 v=64
223602 On ch=1 n=g5 v=46
223648 Off ch=1 n=d6 v=64
223660 Off ch=1 n=g5 v=64
223758 On ch=1 n=g#5 v=56
223806 On ch=1 n=f6 v=86
223816 On ch=1 n=b5 v=65
223830 Par ch=1 c=64 v=0
223870 Off ch=1 n=d#6 v=64
223940 Off ch=1 n=g#5 v=64
223948 On ch=1 n=f5 v=52
223968 Par ch=1 c=64 v=127
224008 On ch=1 n=d#6 v=82
224076 Off ch=1 n=f6 v=64
224082 On ch=1 n=d5 v=45
224086 Off ch=1 n=b5 v=64
224090 Off ch=1 n=f5 v=64
224170 On ch=1 n=b4 v=45
224172 Off ch=1 n=d5 v=64
224186 On ch=1 n=d6 v=81
224220 Off ch=1 n=b4 v=64
224248 Off ch=1 n=d#6 v=64
224250 Off ch=1 n=d6 v=64
224340 On ch=1 n=g4 v=72
224348 On ch=1 n=c4 v=52
224412 Par ch=1 c=64 v=0
224460 On ch=1 n=c5 v=69
224570 On ch=1 n=d#5 v=68
224570 On ch=1 n=c6 v=71
224596 Off ch=1 n=c5 v=64
224628 Par ch=1 c=64 v=127
224636 Off ch=1 n=g4 v=64
224726 On ch=1 n=g5 v=59
224728 Off ch=1 n=d#5 v=64
224856 Off ch=1 n=g5 v=64
224862 On ch=1 n=b5 v=94
224868 On ch=1 n=g#5 v=70
224874 Par ch=1 c=64 v=0
224932 Off ch=1 n=c6 v=64
224968 Off ch=1 n=c4 v=64
224974 On ch=1 n=f5 v=79
225014 Off ch=1 n=g#5 v=64
225028 Par ch=1 c=64 v=127
225052 Off ch=1 n=f5 v=64
225120 On ch=1 n=g5 v=98
225132 On ch=1 n=d5 v=55
225190 Off ch=1 n=d5 v=64
225210 Off ch=1 n=b5 v=64
225232 On ch=1 n=b4 v=59
225238 Off ch=1 n=g5 v=64
225276 Off ch=1 n=b4 v=64
225366 On ch=1 n=c4 v=63
225376 On ch=1 n=g4 v=59
225378 On ch=1 n=c6 v=97
225396 Par ch=1 c=64 v=0
225492 Off ch=1 n=c4 v=64
225512 Off ch=1 n=g4 v=64
225536 On ch=1 n=c5 v=67
225550 Par ch=1 c=64 v=127
225572 On ch=1 n=d#6 v=92
225658 Off ch=1 n=c5 v=64
225660 Off ch=1 n=c6 v=64
225672 On ch=1 n=d#5 v=70
225744 On ch=1 n=g6 v=101
225796 Off ch=1 n=d#6 v=64
225802 On ch=1 n=g5 v=63
225868 Off ch=1 n=g5 v=64
225936 On ch=1 n=c6 v=57
225939 Off ch=1 n=d#5 v=64
225960 On ch=1 n=c7 v=99
226032 Off ch=1 n=g6 v=64
226080 On ch=1 n=g#5 v=61
226084 Off ch=1 n=c6 v=64
226204 Off ch=1 n=g#5 v=64
226204 On ch=1 n=g5 v=56
226312 Off ch=1 n=g5 v=64
226326 On ch=1 n=d#5 v=62
226378 Off ch=1 n=d#5 v=64
226480 On ch=1 n=c5 v=52
226590 On ch=1 n=g#4 v=50
226598 Off ch=1 n=c5 v=64
226714 On ch=1 n=g4 v=57
226716 Off ch=1 n=g#4 v=64
226802 Off ch=1 n=g4 v=64
226820 On ch=1 n=d#4 v=61
226866 Off ch=1 n=d#4 v=64
226942 On ch=1 n=c4 v=67
227004 Off ch=1 n=c4 v=64
227040 Off ch=1 n=c7 v=64
227040 On ch=1 n=g#3 v=68
227142 On ch=1 n=g3 v=58
227192 Off ch=1 n=g#3 v=64
227232 On ch=1 n=d#3 v=63
227242 Off ch=1 n=g3 v=64
227348 Par ch=1 c=64 v=0
227360 Off ch=1 n=d#3 v=64
227386 On ch=1 n=c3 v=46
227400 On ch=1 n=g3 v=48
227516 On ch=1 n=c4 v=34
227560 Off ch=1 n=g3 v=64
227600 Off ch=1 n=c4 v=64
227602 On ch=1 n=c5 v=46
227608 On ch=1 n=d#4 v=38
227736 Off ch=1 n=d#4 v=64
227746 On ch=1 n=g4 v=40
227762 Par ch=1 c=64 v=127
227860 Off ch=1 n=g4 v=64
227869 Par ch=1 c=64 v=0
227894 On ch=1 n=g#4 v=39
227906 On ch=1 n=b4 v=35
227968 Off ch=1 n=c5 v=64
228004 On ch=1 n=f4 v=69
228014 Off ch=1 n=c3 v=64
228124 On ch=1 n=d4 v=44
228132 Par ch=1 c=64 v=127
228170 Off ch=1 n=g#4 v=64
228188 Off ch=1 n=f4 v=64
228206 Off ch=1 n=d4 v=64
228244 On ch=1 n=g3 v=50
228280 Off ch=1 n=b4 v=64
228308 Off ch=1 n=g3 v=64
228362 Par ch=1 c=64 v=0
228374 On ch=1 n=c3 v=55
228400 On ch=1 n=g3 v=50
228518 On ch=1 n=c4 v=49
228618 Off ch=1 n=c4 v=64
228634 On ch=1 n=d#4 v=55
228640 On ch=1 n=c5 v=65
228752 Off ch=1 n=g3 v=64
228762 Par ch=1 c=64 v=127
228765 On ch=1 n=g4 v=60
228780 Off ch=1 n=d#4 v=64
228908 On ch=1 n=g#4 v=56
228914 On ch=1 n=b4 v=67
228917 Off ch=1 n=g4 v=64
228946 Par ch=1 c=64 v=0
228998 Off ch=1 n=c5 v=64
229020 On ch=1 n=f4 v=88
229062 Off ch=1 n=c3 v=64
229112 Off ch=1 n=g#4 v=64
229148 On ch=1 n=d4 v=62
229176 Par ch=1 c=64 v=127
229186 Off ch=1 n=f4 v=64
229236 Off ch=1 n=d4 v=64
229246 On ch=1 n=g#3 v=76
229306 Off ch=1 n=b4 v=64
229344 Par ch=1 c=64 v=0
229358 Off ch=1 n=g#3 v=64
229390 On ch=1 n=g3 v=83
229398 On ch=1 n=c3 v=65
229526 On ch=1 n=d4 v=66
229622 On ch=1 n=d#4 v=60
229626 On ch=1 n=c5 v=71
229654 Off ch=1 n=d4 v=64
229668 Par ch=1 c=64 v=127
229670 Off ch=1 n=g3 v=64
229688 Off ch=1 n=c3 v=64
229734 On ch=1 n=g4 v=72
229750 Off ch=1 n=d#4 v=64
229790 Par ch=1 c=64 v=0
229822 Off ch=1 n=c5 v=64
229830 On ch=1 n=g#3 v=76
229838 On ch=1 n=c3 v=72
229872 Off ch=1 n=g4 v=64
229930 Off ch=1 n=c3 v=64
229984 On ch=1 n=e4 v=79
230006 Par ch=1 c=64 v=127
230094 Off ch=1 n=e4 v=64
230098 On ch=1 n=d5 v=90
230104 On ch=1 n=f4 v=101
230148 Off ch=1 n=g#3 v=64
230204 On ch=1 n=b4 v=84
230242 Off ch=1 n=f4 v=64
230264 Off ch=1 n=d5 v=64
230266 Par ch=1 c=64 v=0
230300 On ch=1 n=c3 v=77
230311 On ch=1 n=a3 v=69
230362 Off ch=1 n=b4 v=64
230366 Off ch=1 n=c3 v=64
230436 On ch=1 n=f4 v=108
230452 Par ch=1 c=64 v=127
230510 Off ch=1 n=a3 v=64
230526 Off ch=1 n=f4 v=64
230540 On ch=1 n=d#5 v=86
230544 On ch=1 n=f#4 v=77
230630 On ch=1 n=c5 v=84
230662 Off ch=1 n=f#4 v=64
230724 On ch=1 n=c3 v=75
230728 Par ch=1 c=64 v=0
230752 On ch=1 n=a#3 v=67
230755 Off ch=1 n=d#5 v=64
230812 Off ch=1 n=c3 v=64
230836 Off ch=1 n=c5 v=64
230880 On ch=1 n=e4 v=85
230898 On ch=1 n=e5 v=97
230902 On ch=1 n=g4 v=90
230912 Par ch=1 c=64 v=127
230956 Off ch=1 n=g4 v=64
230974 Off ch=1 n=e4 v=64
231028 On ch=1 n=c5 v=106
231080 Off ch=1 n=e5 v=64
231182 Off ch=1 n=a#3 v=64
231256 On ch=1 n=f3 v=85
231312 Off ch=1 n=c5 v=64
231322 On ch=1 n=f5 v=100
231328 Par ch=1 c=64 v=0
231496 Par ch=1 c=64 v=127
231514 Off ch=1 n=f3 v=64
231532 On ch=1 n=f4 v=88
231576 On ch=1 n=a5 v=89
231592 Off ch=1 n=f5 v=64
231634 Off ch=1 n=f4 v=64
231700 On ch=1 n=a4 v=58
231772 On ch=1 n=c6 v=98
231800 Off ch=1 n=a4 v=64
231828 Off ch=1 n=a5 v=64
231854 On ch=1 n=d#5 v=67
231922 Off ch=1 n=d#5 v=64
232034 On ch=1 n=f5 v=72
232114 On ch=1 n=f6 v=104
232156 Off ch=1 n=f5 v=64
232208 On ch=1 n=d#5 v=58
232211 Off ch=1 n=c6 v=64
232300 Off ch=1 n=d#5 v=64
232370 On ch=1 n=a4 v=44
232424 Off ch=1 n=a4 v=64
232492 On ch=1 n=f4 v=100
232546 Off ch=1 n=f4 v=64
232644 On ch=1 n=f3 v=84
232764 Off ch=1 n=f3 v=64
232764 On ch=1 n=f4 v=98
232810 Off ch=1 n=f4 v=64
232882 On ch=1 n=d#6 v=97
232904 On ch=1 n=a4 v=62
232970 Off ch=1 n=a4 v=64
233002 Off ch=1 n=f6 v=64
233034 On ch=1 n=d#5 v=72
233082 Off ch=1 n=d#5 v=64
233166 On ch=1 n=c#6 v=97
233169 On ch=1 n=f5 v=55
233250 Off ch=1 n=f5 v=64
233274 On ch=1 n=d#5 v=67
233278 Off ch=1 n=d#6 v=64
233336 Off ch=1 n=d#5 v=64
233394 On ch=1 n=a4 v=57
233412 On ch=1 n=c6 v=94
233440 Off ch=1 n=a4 v=64
233496 Off ch=1 n=c#6 v=64
233532 Off ch=1 n=c6 v=64
233550 On ch=1 n=f4 v=95
233574 On ch=1 n=c6 v=96
233652 Off ch=1 n=f4 v=64
233718 On ch=1 n=a#3 v=70
233744 On ch=1 n=d#6 v=95
233786 Par ch=1 c=64 v=0
233818 Off ch=1 n=c6 v=64
233872 On ch=1 n=f4 v=97
233904 Off ch=1 n=a#3 v=64
233954 Par ch=1 c=64 v=127
233968 Off ch=1 n=f4 v=64
234002 On ch=1 n=c#6 v=91
234008 On ch=1 n=a#4 v=67
234104 Off ch=1 n=d#6 v=64
234118 On ch=1 n=c#5 v=69
234152 Off ch=1 n=a#4 v=64
234226 Off ch=1 n=c#5 v=64
234248 On ch=1 n=c6 v=91
234252 On ch=1 n=f5 v=63
234272 Off ch=1 n=c#6 v=64
234344 Off ch=1 n=f5 v=64
234372 On ch=1 n=c#5 v=61
234440 Off ch=1 n=c#5 v=64
234440 On ch=1 n=a#4 v=64
234486 Off ch=1 n=a#4 v=64
234486 On ch=1 n=a#5 v=79
234540 Off ch=1 n=c6 v=64
234578 On ch=1 n=f4 v=100
234632 Off ch=1 n=f4 v=64
234724 On ch=1 n=c4 v=67
234752 On ch=1 n=c6 v=90
234784 Par ch=1 c=64 v=0
234846 Off ch=1 n=a#5 v=64
234868 On ch=1 n=f4 v=94
234974 On ch=1 n=g#4 v=66
235000 Par ch=1 c=64 v=127
235006 Off ch=1 n=f4 v=64
235024 Off ch=1 n=c4 v=64
235076 On ch=1 n=c5 v=75
235110 Off ch=1 n=g#4 v=64
235162 Off ch=1 n=c5 v=64
235184 On ch=1 n=e5 v=98
235198 On ch=1 n=g5 v=76
235211 On ch=1 n=c4 v=75
235230 Par ch=1 c=64 v=0
235342 On ch=1 n=e4 v=76
235414 Par ch=1 c=64 v=127
235432 Off ch=1 n=c4 v=64
235432 On ch=1 n=g4 v=81
235436 Off ch=1 n=e5 v=64
235454 Off ch=1 n=g5 v=64
235478 Off ch=1 n=e4 v=64
235478 Off ch=1 n=g4 v=64
235536 On ch=1 n=c5 v=100
235646 Par ch=1 c=64 v=0
235656 On ch=1 n=f3 v=86
235661 Off ch=1 n=c5 v=64
235704 On ch=1 n=f5 v=97
235796 Off ch=1 n=c6 v=64
235798 Par ch=1 c=64 v=127
235812 Off ch=1 n=f5 v=64
235854 Off ch=1 n=f3 v=64
235894 On ch=1 n=f4 v=80
235946 Off ch=1 n=f4 v=64
235960 On ch=1 n=a6 v=100
235962 On ch=1 n=a5 v=81
235992 Off ch=1 n=a6 v=64
235998 Off ch=1 n=a5 v=64
236076 On ch=1 n=a4 v=52
236158 On ch=1 n=c7 v=101
236162 On ch=1 n=c6 v=84
236194 Off ch=1 n=c6 v=64
236210 Off ch=1 n=c7 v=64
236274 On ch=1 n=d#5 v=85
236322 Off ch=1 n=a4 v=64
236392 Off ch=1 n=d#5 v=64
236432 On ch=1 n=f7 v=113
236436 On ch=1 n=f6 v=110
236452 On ch=1 n=f5 v=83
236564 Off ch=1 n=f5 v=64
236598 On ch=1 n=d#5 v=79
236678 Off ch=1 n=d#5 v=64
236720 On ch=1 n=a4 v=62
236764 Off ch=1 n=a4 v=64
236842 On ch=1 n=f4 v=98
236942 Off ch=1 n=f4 v=64
236968 On ch=1 n=f3 v=94
237092 Off ch=1 n=f7 v=64
237098 On ch=1 n=f4 v=103
237102 Off ch=1 n=f6 v=64
237104 Off ch=1 n=f3 v=64
237152 Off ch=1 n=f4 v=64
237230 On ch=1 n=d#7 v=97
237232 On ch=1 n=d#6 v=98
237246 On ch=1 n=a4 v=64
237364 Off ch=1 n=d#6 v=64
237386 On ch=1 n=d#5 v=73
237390 Off ch=1 n=d#7 v=64
237402 Off ch=1 n=a4 v=64
237460 Off ch=1 n=d#5 v=64
237514 On ch=1 n=c#6 v=99
237516 On ch=1 n=c#7 v=101
237524 On ch=1 n=f5 v=68
237622 On ch=1 n=d#5 v=68
237628 Off ch=1 n=f5 v=64
237678 Off ch=1 n=c#6 v=64
237678 Off ch=1 n=d#5 v=64
237684 Off ch=1 n=c#7 v=64
237716 On ch=1 n=a4 v=63
237758 Off ch=1 n=a4 v=64
237766 On ch=1 n=c6 v=97
237772 On ch=1 n=c7 v=97
237798 Off ch=1 n=c6 v=64
237800 Off ch=1 n=c7 v=64
237842 On ch=1 n=f4 v=105
237866 On ch=1 n=c7 v=67
237870 On ch=1 n=c6 v=75
237926 Off ch=1 n=f4 v=64
237942 Off ch=1 n=c7 v=64
237945 Off ch=1 n=c6 v=64
237996 On ch=1 n=a#3 v=84
238026 On ch=1 n=d#7 v=97
238029 On ch=1 n=d#6 v=98
238088 Par ch=1 c=64 v=0
238180 On ch=1 n=f4 v=103
238224 Off ch=1 n=a#3 v=64
238227 Par ch=1 c=64 v=127
238244 Off ch=1 n=d#7 v=64
238250 Off ch=1 n=d#6 v=64
238276 Off ch=1 n=f4 v=64
238304 On ch=1 n=c#6 v=90
238306 On ch=1 n=c#7 v=94
238316 On ch=1 n=a#4 v=72
238422 On ch=1 n=c#5 v=80
238452 Off ch=1 n=c#6 v=64
238460 Off ch=1 n=a#4 v=64
238472 Off ch=1 n=c#7 v=64
238536 On ch=1 n=c6 v=100
238538 On ch=1 n=c7 v=106
238540 Off ch=1 n=c#5 v=64
238550 On ch=1 n=f5 v=73
238604 Off ch=1 n=c7 v=64
238630 Off ch=1 n=c6 v=64
238644 On ch=1 n=c#5 v=62
238664 Off ch=1 n=f5 v=64
238756 On ch=1 n=a#5 v=92
238758 On ch=1 n=a#4 v=57
238760 On ch=1 n=a#6 v=90
238780 Off ch=1 n=c#5 v=64
238810 Off ch=1 n=a#6 v=64
238820 Off ch=1 n=a#5 v=64
238876 On ch=1 n=f4 v=91
238900 Off ch=1 n=a#4 v=64
238905 On ch=1 n=a#5 v=79
238910 On ch=1 n=a#6 v=74
238914 Off ch=1 n=f4 v=64
238962 Off ch=1 n=a#5 v=64
238994 Par ch=1 c=64 v=0
239024 On ch=1 n=c7 v=109
239024 On ch=1 n=c4 v=87
239028 On ch=1 n=c6 v=85
239074 Off ch=1 n=a#6 v=64
239148 Par ch=1 c=64 v=127
239156 On ch=1 n=f4 v=94
239170 Off ch=1 n=c7 v=64
239224 Off ch=1 n=c6 v=64
239268 On ch=1 n=g#4 v=71
239272 Off ch=1 n=c4 v=64
239302 Off ch=1 n=f4 v=64
239368 On ch=1 n=c5 v=86
239374 Off ch=1 n=g#4 v=64
239472 On ch=1 n=g5 v=88
239472 On ch=1 n=e6 v=95
239478 On ch=1 n=c#6 v=76
239478 On ch=1 n=a#5 v=68
239478 On ch=1 n=e5 v=96
239486 Par ch=1 c=64 v=0
239488 On ch=1 n=c#5 v=87
239518 Off ch=1 n=c5 v=64
239600 On ch=1 n=a#4 v=62
239616 Off ch=1 n=c#5 v=64
239624 Par ch=1 c=64 v=127
239646 Off ch=1 n=a#4 v=64
239708 Off ch=1 n=g5 v=64
239724 Off ch=1 n=e5 v=64
239726 On ch=1 n=g4 v=76
239762 Off ch=1 n=a#5 v=64
239792 Off ch=1 n=c#6 v=64
239812 Off ch=1 n=g4 v=64
239824 Off ch=1 n=e6 v=64
239828 On ch=1 n=e4 v=92
239864 Off ch=1 n=e4 v=64
239932 Par ch=1 c=64 v=0
239958 On ch=1 n=f5 v=96
239958 On ch=1 n=f6 v=101
239960 On ch=1 n=g#5 v=85
239964 On ch=1 n=c6 v=85
239978 On ch=1 n=c4 v=80
239996 On ch=1 n=f3 v=76
240028 Off ch=1 n=f6 v=64
240070 Off ch=1 n=c6 v=64
240082 Off ch=1 n=f5 v=64
240084 Par ch=1 c=64 v=127
240106 Off ch=1 n=g#5 v=64
240134 On ch=1 n=f4 v=91
240226 Off ch=1 n=f4 v=64
240236 On ch=1 n=g#4 v=75
240304 Off ch=1 n=g#4 v=64
240314 Off ch=1 n=c4 v=64
240326 On ch=1 n=c5 v=72
240458 Off ch=1 n=c5 v=64
240466 On ch=1 n=e5 v=95
240468 On ch=1 n=c#5 v=78
240516 Par ch=1 c=64 v=0
240560 On ch=1 n=a#4 v=73
240568 Off ch=1 n=f3 v=64
240654 Par ch=1 c=64 v=127
240704 On ch=1 n=g4 v=75
240712 Off ch=1 n=a#4 v=64
240794 On ch=1 n=c#4 v=46
240816 Off ch=1 n=g4 v=64
240860 Off ch=1 n=c#5 v=64
240874 Off ch=1 n=c#4 v=64
240900 Par ch=1 c=64 v=0
240928 On ch=1 n=c4 v=82
240930 On ch=1 n=g#4 v=79
240936 On ch=1 n=f5 v=85
240950 On ch=1 n=f3 v=78
240994 Off ch=1 n=e5 v=64
241044 Off ch=1 n=c4 v=64
241050 Off ch=1 n=g#4 v=64
241060 On ch=1 n=f4 v=103
241063 Off ch=1 n=f3 v=64
241084 Par ch=1 c=64 v=127
241092 Off ch=1 n=f5 v=64
241144 Off ch=1 n=f4 v=64
241190 On ch=1 n=g#4 v=73
241292 On ch=1 n=c5 v=81
241332 Off ch=1 n=g#4 v=64
241382 Off ch=1 n=c5 v=64
241392 Par ch=1 c=64 v=0
241404 On ch=1 n=e6 v=98
241404 On ch=1 n=c#6 v=76
241407 On ch=1 n=g5 v=80
241407 On ch=1 n=e5 v=97
241412 On ch=1 n=a#5 v=68
241416 On ch=1 n=c#5 v=88
241522 Off ch=1 n=c#5 v=64
241525 On ch=1 n=a#4 v=66
241544 Par ch=1 c=64 v=127
241570 Off ch=1 n=a#4 v=64
241573 Off ch=1 n=g5 v=64
241582 Off ch=1 n=e5 v=64
241620 Off ch=1 n=a#5 v=64
241634 Off ch=1 n=c#6 v=64
241646 On ch=1 n=g4 v=89
241654 Off ch=1 n=e6 v=64
241739 Off ch=1 n=g4 v=64
241746 On ch=1 n=c#4 v=78
241792 Par ch=1 c=64 v=0
241828 Off ch=1 n=c#4 v=64
241840 On ch=1 n=f6 v=104
241844 On ch=1 n=g#5 v=89
241844 On ch=1 n=f5 v=96
241852 On ch=1 n=c6 v=83
241870 On ch=1 n=c4 v=86
241873 On ch=1 n=f3 v=83
241892 Off ch=1 n=c6 v=64
241895 Off ch=1 n=f6 v=64
241930 Par ch=1 c=64 v=127
241940 Off ch=1 n=g#5 v=64
241943 Off ch=1 n=f5 v=64
241992 On ch=1 n=f4 v=96
242096 On ch=1 n=g#4 v=71
242101 Off ch=1 n=f4 v=64
242130 Off ch=1 n=c4 v=64
242194 On ch=1 n=c5 v=77
242197 Off ch=1 n=g#4 v=64
242310 On ch=1 n=c#5 v=85
242310 On ch=1 n=e5 v=98
242328 Par ch=1 c=64 v=0
242333 Off ch=1 n=c5 v=64
242402 On ch=1 n=a#4 v=76
242420 Off ch=1 n=f3 v=64
242498 Par ch=1 c=64 v=127
242532 On ch=1 n=g4 v=72
242556 Off ch=1 n=a#4 v=64
242592 Off ch=1 n=c#5 v=64
242598 On ch=1 n=c#4 v=73
242606 Off ch=1 n=g4 v=64
242712 Off ch=1 n=c#4 v=64
242714 Par ch=1 c=64 v=0
242740 On ch=1 n=g#4 v=84
242740 On ch=1 n=f3 v=82
242746 On ch=1 n=f5 v=91
242758 On ch=1 n=c4 v=72
242792 Off ch=1 n=e5 v=64
242826 Off ch=1 n=c4 v=64
242836 Off ch=1 n=g#4 v=64
242846 Off ch=1 n=f3 v=64
242848 On ch=1 n=f4 v=106
242866 Par ch=1 c=64 v=127
242870 Off ch=1 n=f5 v=64
242930 Off ch=1 n=f4 v=64
242972 On ch=1 n=g#4 v=76
243074 On ch=1 n=c5 v=81
243114 Off ch=1 n=g#4 v=64
243158 Par ch=1 c=64 v=0
243184 On ch=1 n=e6 v=99
243186 Off ch=1 n=c5 v=64
243186 On ch=1 n=c#6 v=84
243189 On ch=1 n=g5 v=88
243189 On ch=1 n=e5 v=103
243189 On ch=1 n=a#5 v=78
243204 On ch=1 n=c#5 v=95
243312 Off ch=1 n=c#5 v=64
243316 On ch=1 n=a#4 v=72
243326 Par ch=1 c=64 v=127
243358 Off ch=1 n=a#4 v=64
243422 Off ch=1 n=g5 v=64
243432 On ch=1 n=g4 v=87
243454 Off ch=1 n=a#5 v=64
243466 Off ch=1 n=e5 v=64
243510 Off ch=1 n=e6 v=64
243516 Off ch=1 n=c#6 v=64
243534 Off ch=1 n=g4 v=64
243538 On ch=1 n=c#4 v=77
243660 Off ch=1 n=c#4 v=64
243680 Par ch=1 c=64 v=0
243698 On ch=1 n=f6 v=104
243704 On ch=1 n=f5 v=98
243704 On ch=1 n=g#5 v=86
243707 On ch=1 n=c6 v=87
243710 On ch=1 n=f3 v=89
243714 On ch=1 n=c4 v=81
243820 Off ch=1 n=f6 v=64
243834 Off ch=1 n=f5 v=64
243848 Off ch=1 n=c6 v=64
243850 Par ch=1 c=64 v=127
243884 Off ch=1 n=g#5 v=64
243912 On ch=1 n=f4 v=91
243954 Off ch=1 n=c4 v=64
243954 Off ch=1 n=f4 v=64
243962 Off ch=1 n=f3 v=64
244030 On ch=1 n=a#4 v=33
244038 On ch=1 n=g#4 v=65
244116 Off ch=1 n=a#4 v=64
244120 On ch=1 n=c5 v=73
244152 Off ch=1 n=g#4 v=64
244242 On ch=1 n=c3 v=109
244270 Off ch=1 n=c5 v=64
244314 Off ch=1 n=c3 v=64
244422 On ch=1 n=f4 v=91
244470 Off ch=1 n=f4 v=64
244484 On ch=1 n=g#4 v=59
244568 On ch=1 n=c5 v=63
244604 Off ch=1 n=g#4 v=64
244684 On ch=1 n=g#3 v=111
244720 Off ch=1 n=c5 v=64
244940 On ch=1 n=g#4 v=58
245062 On ch=1 n=c5 v=64
245108 Off ch=1 n=g#3 v=64
245158 Off ch=1 n=g#4 v=64
245200 On ch=1 n=g3 v=108
245220 Off ch=1 n=c5 v=64
245354 On ch=1 n=f4 v=98
245374 On ch=1 n=a#3 v=20
245414 Off ch=1 n=f4 v=64
245442 Off ch=1 n=a#3 v=64
245462 On ch=1 n=g#4 v=56
245552 On ch=1 n=c5 v=70
245596 Off ch=1 n=g3 v=64
245598 Off ch=1 n=g#4 v=64
245674 On ch=1 n=f3 v=113
245678 Par ch=1 c=64 v=0
245682 On ch=1 n=f5 v=89
245758 Off ch=1 n=c5 v=64
245844 On ch=1 n=f4 v=97
245878 Par ch=1 c=64 v=127
245882 Off ch=1 n=f4 v=64
245908 Off ch=1 n=f3 v=64
245924 On ch=1 n=g#4 v=64
246018 On ch=1 n=c5 v=76
246054 Off ch=1 n=g#4 v=64
246156 On ch=1 n=c#3 v=106
246198 Off ch=1 n=c5 v=64
246280 Off ch=1 n=c#3 v=64
246372 On ch=1 n=f4 v=80
246412 Off ch=1 n=f4 v=64
246438 On ch=1 n=g#4 v=51
246524 Off ch=1 n=f5 v=64
246524 On ch=1 n=c5 v=71
246584 Off ch=1 n=g#4 v=64
246646 Par ch=1 c=64 v=0
246662 On ch=1 n=c3 v=118
246672 On ch=1 n=f5 v=93
246736 Off ch=1 n=c5 v=64
246796 Off ch=1 n=c3 v=64
246800 Par ch=1 c=64 v=127
246884 On ch=1 n=f4 v=97
246920 Off ch=1 n=f4 v=64
246978 On ch=1 n=g#4 v=62
247080 On ch=1 n=c5 v=76
247120 Off ch=1 n=g#4 v=64
247212 On ch=1 n=g#2 v=103
247272 Off ch=1 n=c5 v=64
247324 Off ch=1 n=g#2 v=64
247424 On ch=1 n=f4 v=85
247464 Off ch=1 n=f4 v=64
247552 On ch=1 n=g#4 v=75
247714 On ch=1 n=c5 v=87
247744 Off ch=1 n=g#4 v=64
247760 Off ch=1 n=f5 v=64
247956 On ch=1 n=f5 v=97
247966 On ch=1 n=f2 v=110
248030 Par ch=1 c=64 v=0
248058 Off ch=1 n=c5 v=64
248418 Off ch=1 n=f2 v=64
248444 Par ch=1 c=64 v=127
248584 Off ch=1 n=f5 v=64
248804 On ch=1 n=f3 v=83
248878 On ch=1 n=g3 v=87
248950 On ch=1 n=g#3 v=89
248972 Off ch=1 n=f3 v=64
249030 On ch=1 n=c4 v=82
249032 Off ch=1 n=g3 v=64
249108 Off ch=1 n=g#3 v=64
249140 Off ch=1 n=c4 v=64
249140 On ch=1 n=f4 v=101
249232 Off ch=1 n=f4 v=64
249252 On ch=1 n=f6 v=103
249252 On ch=1 n=g#5 v=78
249258 On ch=1 n=c6 v=88
249260 On ch=1 n=f5 v=95
249274 On ch=1 n=g#4 v=88
249282 On ch=1 n=c5 v=87
249504 Par ch=1 c=64 v=0
249658 Par ch=1 c=64 v=127
252440 Par ch=1 c=64 v=0
252500 Off ch=1 n=f6 v=64
252512 Off ch=1 n=c6 v=64
252522 Off ch=1 n=g#5 v=64
252526 Off ch=1 n=g#4 v=64
252526 Off ch=1 n=c5 v=64
252558 Off ch=1 n=f5 v=64
255360 Par ch=1 c=64 v=0
255360 Meta TrkEnd
TrkEnd
