MFile 1 2 480
MTrk
0 KeySig 0 major
0 SMPTE 96 0 0 0 0
0 Tempo 500000
0 TimeSig 4/4 24 8
0 Meta TrkEnd
TrkEnd
MTrk
10 On ch=1 n=f6 v=71
12 On ch=1 n=f3 v=33
60 On ch=1 n=f6 v=0
80 On ch=1 n=f3 v=0
94 On ch=1 n=g6 v=68
178 On ch=1 n=g6 v=0
182 On ch=1 n=f6 v=50
185 On ch=1 n=c5 v=36
187 On ch=1 n=a4 v=34
236 On ch=1 n=f6 v=0
247 On ch=1 n=c5 v=0
249 On ch=1 n=a4 v=0
256 On ch=1 n=f5 v=66
296 Par ch=1 c=64 v=0
304 On ch=1 n=f5 v=0
378 On ch=1 n=c6 v=76
398 On ch=1 n=c4 v=46
442 On ch=1 n=c6 v=0
458 On ch=1 n=d6 v=70
466 On ch=1 n=c4 v=0
480 Par ch=1 c=64 v=127
528 On ch=1 n=d6 v=0
540 On ch=1 n=c6 v=59
544 On ch=1 n=c5 v=39
545 On ch=1 n=a4 v=34
604 Par ch=1 c=64 v=0
606 On ch=1 n=c5 v=0
607 On ch=1 n=a4 v=0
622 On ch=1 n=c6 v=0
631 On ch=1 n=f5 v=52
687 On ch=1 n=f5 v=0
720 On ch=1 n=f4 v=81
724 On ch=1 n=d6 v=88
786 On ch=1 n=f4 v=0
820 On ch=1 n=e6 v=63
828 On ch=1 n=d6 v=0
834 Par ch=1 c=64 v=127
907 On ch=1 n=c5 v=36
910 On ch=1 n=d6 v=67
914 On ch=1 n=a4 v=16
952 On ch=1 n=e6 v=0
958 On ch=1 n=d6 v=0
958 Par ch=1 c=64 v=0
969 On ch=1 n=c5 v=0
976 On ch=1 n=a4 v=0
1000 On ch=1 n=f5 v=59
1062 On ch=1 n=f5 v=0
1066 On ch=1 n=c4 v=60
1072 On ch=1 n=e6 v=74
1128 On ch=1 n=c4 v=0
1152 On ch=1 n=f6 v=67
1164 On ch=1 n=e6 v=0
1202 Par ch=1 c=64 v=127
1210 On ch=1 n=c5 v=52
1226 On ch=1 n=a4 v=37
1226 On ch=1 n=e6 v=83
1249 On ch=1 n=f6 v=0
1264 On ch=1 n=c5 v=0
1280 Par ch=1 c=64 v=0
1288 On ch=1 n=a4 v=0
1318 On ch=1 n=f5 v=56
1324 On ch=1 n=e6 v=0
1364 On ch=1 n=f5 v=0
1396 On ch=1 n=f3 v=60
1404 On ch=1 n=f6 v=84
1446 On ch=1 n=f3 v=0
1484 On ch=1 n=g6 v=78
1494 On ch=1 n=f6 v=0
1510 Par ch=1 c=64 v=127
1556 Par ch=1 c=64 v=0
1562 On ch=1 n=f6 v=88
1578 On ch=1 n=a4 v=42
1582 On ch=1 n=c5 v=43
1604 On ch=1 n=g6 v=0
1612 On ch=1 n=f6 v=0
1636 On ch=1 n=a4 v=0
1640 On ch=1 n=c5 v=0
1648 On ch=1 n=f5 v=59
1690 On ch=1 n=f5 v=0
1740 On ch=1 n=c4 v=58
1740 On ch=1 n=g6 v=100
1796 On ch=1 n=c4 v=0
1830 On ch=1 n=a6 v=69
1834 On ch=1 n=g6 v=0
1896 On ch=1 n=g6 v=94
1916 On ch=1 n=c5 v=48
1928 On ch=1 n=a6 v=0
1932 On ch=1 n=a4 v=32
1936 On ch=1 n=g6 v=0
1974 On ch=1 n=c5 v=0
1992 On ch=1 n=a4 v=0
2002 On ch=1 n=f5 v=62
2046 On ch=1 n=f5 v=0
2108 On ch=1 n=a6 v=95
2118 On ch=1 n=f4 v=71
2180 On ch=1 n=f4 v=0
2296 On ch=1 n=c5 v=33
2308 On ch=1 n=a4 v=24
2340 Par ch=1 c=64 v=127
2368 On ch=1 n=c5 v=0
2396 On ch=1 n=a4 v=0
2458 On ch=1 n=c4 v=46
2468 On ch=1 n=a6 v=0
2514 On ch=1 n=c4 v=0
2666 On ch=1 n=c5 v=16
2672 On ch=1 n=a4 v=22
2722 On ch=1 n=c5 v=0
2736 On ch=1 n=a4 v=0
2800 Par ch=1 c=64 v=0
2840 On ch=1 n=f3 v=60
2844 On ch=1 n=c7 v=76
2890 On ch=1 n=f3 v=0
2904 On ch=1 n=c7 v=0
2922 On ch=1 n=d7 v=69
2986 Par ch=1 c=64 v=127
3002 On ch=1 n=d7 v=0
3005 On ch=1 n=c7 v=66
3034 On ch=1 n=c5 v=41
3050 On ch=1 n=a4 v=29
3062 Par ch=1 c=64 v=0
3094 On ch=1 n=f6 v=67
3098 On ch=1 n=c5 v=0
3106 On ch=1 n=c7 v=0
3116 On ch=1 n=a4 v=0
3142 On ch=1 n=f6 v=0
3186 On ch=1 n=d#4 v=63
3190 On ch=1 n=f7 v=91
3246 On ch=1 n=d#4 v=0
3282 On ch=1 n=g7 v=75
3298 On ch=1 n=f7 v=0
3308 Par ch=1 c=64 v=127
3362 On ch=1 n=f7 v=79
3374 On ch=1 n=c5 v=42
3382 On ch=1 n=g7 v=0
3386 On ch=1 n=a4 v=36
3400 Par ch=1 c=64 v=0
3408 On ch=1 n=f7 v=0
3434 On ch=1 n=c5 v=0
3444 On ch=1 n=a4 v=0
3444 On ch=1 n=f6 v=65
3498 On ch=1 n=f6 v=0
3536 On ch=1 n=d4 v=59
3536 On ch=1 n=b6 v=102
3586 On ch=1 n=d4 v=0
3592 On ch=1 n=b6 v=0
3622 On ch=1 n=c7 v=88
3630 Par ch=1 c=64 v=127
3706 On ch=1 n=b6 v=99
3708 On ch=1 n=f5 v=45
3742 On ch=1 n=b4 v=30
3745 On ch=1 n=c7 v=0
3760 On ch=1 n=f5 v=0
3770 Par ch=1 c=64 v=0
3794 On ch=1 n=f6 v=75
3806 On ch=1 n=b6 v=0
3806 On ch=1 n=b4 v=0
3840 On ch=1 n=f6 v=0
3880 On ch=1 n=c#4 v=70
3886 On ch=1 n=f7 v=92
3926 On ch=1 n=c#4 v=0
3952 Par ch=1 c=64 v=127
3974 On ch=1 n=g7 v=82
4000 On ch=1 n=f7 v=0
4054 On ch=1 n=f5 v=51
4054 On ch=1 n=f7 v=83
4057 On ch=1 n=a#4 v=51
4076 On ch=1 n=g7 v=0
4098 On ch=1 n=f5 v=0
4108 Par ch=1 c=64 v=0
4111 On ch=1 n=f7 v=0
4111 On ch=1 n=a#4 v=0
4148 On ch=1 n=f6 v=74
4204 On ch=1 n=f6 v=0
4246 On ch=1 n=c4 v=66
4254 On ch=1 n=c7 v=92
4290 On ch=1 n=c4 v=0
4352 Par ch=1 c=64 v=127
4358 On ch=1 n=d7 v=80
4360 On ch=1 n=c7 v=0
4432 On ch=1 n=c7 v=79
4440 On ch=1 n=e5 v=52
4444 On ch=1 n=c5 v=55
4478 On ch=1 n=d7 v=0
4490 On ch=1 n=e5 v=0
4498 On ch=1 n=c5 v=0
4528 On ch=1 n=c7 v=0
4531 On ch=1 n=g6 v=76
4576 On ch=1 n=g6 v=0
4584 Par ch=1 c=64 v=0
4632 On ch=1 n=g6 v=84
4638 On ch=1 n=e4 v=56
4734 On ch=1 n=a6 v=73
4736 On ch=1 n=e4 v=0
4746 On ch=1 n=g6 v=0
4782 Par ch=1 c=64 v=127
4806 On ch=1 n=g6 v=80
4826 On ch=1 n=e5 v=35
4826 On ch=1 n=c5 v=29
4840 On ch=1 n=a6 v=0
4884 On ch=1 n=g6 v=0
4892 On ch=1 n=e5 v=0
4900 On ch=1 n=c5 v=0
4904 On ch=1 n=c6 v=63
4952 On ch=1 n=c6 v=0
4998 Par ch=1 c=64 v=0
5010 On ch=1 n=c6 v=62
5044 On ch=1 n=g4 v=32
5248 On ch=1 n=c#6 v=46
5250 On ch=1 n=a#4 v=19
5254 On ch=1 n=e5 v=31
5260 On ch=1 n=c6 v=0
5374 On ch=1 n=e5 v=0
5436 On ch=1 n=a#4 v=0
5466 On ch=1 n=g4 v=0
5500 On ch=1 n=d6 v=49
5516 On ch=1 n=f#4 v=34
5536 On ch=1 n=c#6 v=0
5720 Par ch=1 c=64 v=127
5738 On ch=1 n=d6 v=0
5746 On ch=1 n=f#4 v=0
5768 On ch=1 n=a5 v=37
5770 On ch=1 n=a4 v=25
5776 On ch=1 n=d5 v=31
5832 On ch=1 n=a4 v=0
5838 On ch=1 n=d5 v=0
5994 On ch=1 n=a5 v=0
6028 Par ch=1 c=64 v=0
6052 On ch=1 n=g6 v=67
6060 On ch=1 n=g3 v=52
6106 On ch=1 n=g6 v=0
6106 On ch=1 n=g3 v=0
6150 On ch=1 n=a6 v=39
6182 Par ch=1 c=64 v=127
6208 On ch=1 n=g6 v=50
6218 On ch=1 n=a6 v=0
6260 On ch=1 n=d5 v=28
6262 On ch=1 n=a#4 v=34
6266 On ch=1 n=g6 v=0
6320 On ch=1 n=g5 v=55
6330 On ch=1 n=d5 v=0
6330 On ch=1 n=a#4 v=0
6350 Par ch=1 c=64 v=0
6386 On ch=1 n=g5 v=0
6414 On ch=1 n=d6 v=56
6418 On ch=1 n=a#3 v=62
6466 On ch=1 n=a#3 v=0
6469 On ch=1 n=d6 v=0
6478 On ch=1 n=e6 v=62
6554 On ch=1 n=e6 v=0
6568 On ch=1 n=d6 v=53
6588 On ch=1 n=d5 v=53
6614 On ch=1 n=a#4 v=28
6630 On ch=1 n=d6 v=0
6638 On ch=1 n=d5 v=0
6656 On ch=1 n=g5 v=54
6686 On ch=1 n=a#4 v=0
6718 On ch=1 n=g5 v=0
6768 On ch=1 n=d4 v=80
6776 On ch=1 n=d6 v=77
6828 On ch=1 n=d6 v=0
6858 On ch=1 n=e6 v=59
6947 On ch=1 n=d6 v=69
6954 On ch=1 n=d5 v=40
6957 On ch=1 n=a4 v=41
6972 On ch=1 n=e6 v=0
6998 On ch=1 n=d6 v=0
7030 On ch=1 n=a4 v=0
7030 On ch=1 n=f5 v=54
7042 On ch=1 n=d5 v=0
7078 On ch=1 n=f5 v=0
7130 On ch=1 n=f6 v=90
7218 On ch=1 n=g6 v=80
7234 On ch=1 n=f6 v=0
7270 On ch=1 n=d5 v=59
7290 On ch=1 n=a4 v=54
7300 On ch=1 n=f6 v=90
7316 On ch=1 n=d5 v=0
7336 On ch=1 n=g6 v=0
7338 On ch=1 n=a4 v=0
7348 On ch=1 n=f6 v=0
7364 On ch=1 n=d4 v=0
7374 On ch=1 n=f5 v=72
7430 On ch=1 n=f5 v=0
7472 On ch=1 n=g3 v=85
7496 On ch=1 n=g6 v=92
7508 On ch=1 n=g3 v=0
7564 Par ch=1 c=64 v=127
7578 On ch=1 n=a6 v=76
7602 On ch=1 n=g6 v=0
7664 On ch=1 n=g6 v=91
7672 Par ch=1 c=64 v=0
7674 On ch=1 n=a#4 v=55
7680 On ch=1 n=d5 v=48
7702 On ch=1 n=a6 v=0
7708 On ch=1 n=g6 v=0
7724 On ch=1 n=a#4 v=0
7734 On ch=1 n=d5 v=0
7742 On ch=1 n=g5 v=72
7812 On ch=1 n=g5 v=0
7840 On ch=1 n=a#3 v=75
7854 On ch=1 n=d6 v=89
7900 On ch=1 n=a#3 v=0
7944 On ch=1 n=e6 v=65
7956 On ch=1 n=d6 v=0
8018 On ch=1 n=d5 v=59
8022 On ch=1 n=d6 v=86
8024 On ch=1 n=a#4 v=52
8060 On ch=1 n=e6 v=0
8064 On ch=1 n=d5 v=0
8074 On ch=1 n=a#4 v=0
8088 On ch=1 n=d6 v=0
8108 On ch=1 n=g5 v=68
8166 On ch=1 n=g5 v=0
8214 On ch=1 n=d4 v=70
8222 On ch=1 n=d6 v=78
8280 On ch=1 n=d6 v=0
8304 On ch=1 n=e6 v=50
8370 On ch=1 n=d6 v=63
8384 On ch=1 n=d5 v=51
8406 On ch=1 n=e6 v=0
8406 On ch=1 n=a4 v=38
8466 On ch=1 n=d6 v=0
8466 On ch=1 n=d5 v=0
8469 On ch=1 n=a4 v=0
8469 On ch=1 n=f5 v=51
8520 On ch=1 n=f5 v=0
8562 On ch=1 n=f6 v=77
8622 On ch=1 n=f6 v=0
8644 On ch=1 n=g6 v=65
8706 On ch=1 n=d5 v=44
8714 On ch=1 n=a4 v=56
8718 On ch=1 n=f6 v=56
8736 On ch=1 n=g6 v=0
8758 On ch=1 n=d5 v=0
8762 On ch=1 n=a4 v=0
8772 On ch=1 n=f6 v=0
8796 On ch=1 n=d4 v=0
8808 On ch=1 n=f5 v=50
8870 On ch=1 n=f5 v=0
8898 On ch=1 n=a3 v=70
8918 On ch=1 n=f6 v=73
8940 On ch=1 n=a3 v=0
8968 On ch=1 n=f6 v=0
8996 On ch=1 n=g6 v=67
9058 On ch=1 n=f6 v=52
9058 On ch=1 n=c5 v=65
9068 On ch=1 n=f4 v=76
9076 On ch=1 n=g6 v=0
9120 On ch=1 n=f6 v=0
9160 On ch=1 n=f5 v=62
9266 On ch=1 n=f5 v=0
9280 On ch=1 n=f#5 v=72
9322 On ch=1 n=c5 v=0
9354 On ch=1 n=f#5 v=0
9373 On ch=1 n=g5 v=70
9440 On ch=1 n=f4 v=0
9480 On ch=1 n=f#5 v=72
9482 On ch=1 n=f#4 v=73
9489 On ch=1 n=g5 v=0
9528 On ch=1 n=f#4 v=0
9554 On ch=1 n=f#5 v=0
9578 On ch=1 n=c5 v=62
9630 On ch=1 n=c5 v=0
9698 On ch=1 n=a3 v=42
9722 On ch=1 n=f6 v=89
9762 On ch=1 n=a3 v=0
9796 On ch=1 n=f6 v=0
9804 On ch=1 n=g6 v=82
9886 On ch=1 n=f6 v=59
9892 On ch=1 n=c5 v=71
9902 On ch=1 n=f4 v=78
9932 On ch=1 n=g6 v=0
9948 On ch=1 n=f6 v=0
9996 On ch=1 n=f5 v=61
10042 On ch=1 n=f5 v=0
10112 On ch=1 n=f#5 v=69
10144 On ch=1 n=c5 v=0
10198 On ch=1 n=f#5 v=0
10208 On ch=1 n=g5 v=70
10276 On ch=1 n=f#5 v=52
10282 On ch=1 n=g5 v=0
10290 On ch=1 n=f4 v=0
10290 On ch=1 n=f#4 v=66
10336 On ch=1 n=f#4 v=0
10370 On ch=1 n=c5 v=51
10373 On ch=1 n=f#5 v=0
10430 On ch=1 n=c5 v=0
10458 On ch=1 n=a#3 v=69
10466 On ch=1 n=g5 v=78
10532 On ch=1 n=g5 v=0
10548 On ch=1 n=a5 v=52
10558 On ch=1 n=a#3 v=0
10618 On ch=1 n=g5 v=61
10648 On ch=1 n=g4 v=47
10650 On ch=1 n=d4 v=44
10678 On ch=1 n=a5 v=0
10692 On ch=1 n=g5 v=0
10704 On ch=1 n=d5 v=55
10706 On ch=1 n=g4 v=0
10714 On ch=1 n=d4 v=0
10760 On ch=1 n=d5 v=0
10800 On ch=1 n=a3 v=56
10804 On ch=1 n=a5 v=52
10858 On ch=1 n=a3 v=0
10874 On ch=1 n=a5 v=0
10882 On ch=1 n=a#5 v=51
10940 On ch=1 n=a5 v=54
10968 On ch=1 n=a4 v=45
10996 On ch=1 n=a#5 v=0
11022 On ch=1 n=a4 v=0
11050 On ch=1 n=d5 v=53
11058 On ch=1 n=a5 v=0
11108 On ch=1 n=d5 v=0
11132 On ch=1 n=a#5 v=63
11132 On ch=1 n=g3 v=75
11174 On ch=1 n=g3 v=0
11228 On ch=1 n=c6 v=57
11248 On ch=1 n=a#5 v=0
11304 On ch=1 n=a#5 v=68
11310 On ch=1 n=c6 v=0
11312 On ch=1 n=a#4 v=47
11368 On ch=1 n=a#4 v=0
11400 On ch=1 n=d5 v=49
11416 On ch=1 n=a#5 v=0
11476 On ch=1 n=d5 v=0
11538 On ch=1 n=c6 v=91
11584 On ch=1 n=c3 v=21
11620 Par ch=1 c=64 v=127
11644 On ch=1 n=c3 v=0
11774 On ch=1 n=a#4 v=46
11782 On ch=1 n=c6 v=0
11786 On ch=1 n=c5 v=40
11834 On ch=1 n=a#4 v=0
11856 On ch=1 n=c5 v=0
11974 Par ch=1 c=64 v=0
12038 On ch=1 n=f3 v=90
12040 On ch=1 n=f6 v=81
12074 On ch=1 n=f3 v=0
12102 On ch=1 n=g6 v=84
12106 On ch=1 n=f6 v=0
12142 Par ch=1 c=64 v=127
12194 On ch=1 n=f6 v=64
12238 On ch=1 n=g6 v=0
12270 On ch=1 n=f6 v=0
12299 On ch=1 n=c5 v=59
12300 On ch=1 n=a4 v=49
12308 On ch=1 n=f5 v=50
12351 On ch=1 n=c5 v=0
12352 On ch=1 n=a4 v=0
12364 On ch=1 n=f5 v=0
12412 On ch=1 n=c6 v=67
12420 Par ch=1 c=64 v=0
12450 On ch=1 n=c4 v=63
12460 On ch=1 n=c6 v=0
12494 On ch=1 n=d6 v=73
12506 On ch=1 n=c4 v=0
12566 On ch=1 n=d6 v=0
12572 On ch=1 n=c6 v=51
12616 On ch=1 n=c5 v=42
12634 On ch=1 n=c6 v=0
12634 On ch=1 n=a4 v=20
12650 On ch=1 n=f5 v=51
12678 On ch=1 n=c5 v=0
12698 On ch=1 n=a4 v=0
12706 On ch=1 n=f5 v=0
12750 On ch=1 n=d6 v=79
12762 On ch=1 n=f4 v=70
12800 On ch=1 n=d6 v=0
12812 On ch=1 n=f4 v=0
12824 On ch=1 n=e6 v=45
12902 On ch=1 n=d6 v=56
12918 On ch=1 n=c5 v=38
12928 On ch=1 n=e6 v=0
12932 On ch=1 n=a4 v=33
12968 On ch=1 n=d6 v=0
12980 On ch=1 n=c5 v=0
12982 On ch=1 n=f5 v=51
12992 On ch=1 n=a4 v=0
13060 On ch=1 n=f5 v=0
13084 On ch=1 n=e6 v=65
13090 On ch=1 n=c4 v=60
13146 On ch=1 n=c4 v=0
13150 On ch=1 n=e6 v=0
13166 On ch=1 n=f6 v=62
13228 On ch=1 n=e6 v=52
13240 On ch=1 n=a4 v=33
13246 On ch=1 n=f6 v=0
13246 On ch=1 n=c5 v=41
13300 On ch=1 n=a4 v=0
13312 On ch=1 n=e6 v=0
13312 On ch=1 n=c5 v=0
13316 On ch=1 n=f5 v=53
13368 On ch=1 n=f5 v=0
13416 On ch=1 n=f3 v=76
13419 On ch=1 n=f6 v=75
13448 Par ch=1 c=64 v=127
13456 On ch=1 n=f3 v=0
13475 On ch=1 n=f6 v=0
13479 Par ch=1 c=64 v=0
13492 On ch=1 n=g6 v=75
13554 On ch=1 n=f6 v=58
13570 On ch=1 n=g6 v=0
13606 On ch=1 n=c5 v=34
13612 On ch=1 n=a4 v=12
13632 On ch=1 n=f6 v=0
13648 On ch=1 n=f5 v=59
13664 On ch=1 n=a4 v=0
13676 On ch=1 n=c5 v=0
13692 On ch=1 n=f5 v=0
13754 On ch=1 n=c4 v=62
13754 On ch=1 n=g6 v=88
13806 On ch=1 n=g6 v=0
13808 On ch=1 n=c4 v=0
13836 On ch=1 n=a6 v=62
13912 On ch=1 n=g6 v=62
13925 On ch=1 n=a4 v=33
13928 On ch=1 n=c5 v=42
13952 On ch=1 n=a6 v=0
13952 On ch=1 n=g6 v=0
13985 On ch=1 n=a4 v=0
13990 On ch=1 n=c5 v=0
14020 On ch=1 n=f5 v=44
14072 On ch=1 n=f5 v=0
14114 On ch=1 n=a6 v=94
14124 On ch=1 n=f4 v=71
14190 On ch=1 n=f4 v=0
14294 Par ch=1 c=64 v=127
14312 On ch=1 n=c5 v=35
14318 On ch=1 n=a4 v=31
14380 On ch=1 n=c5 v=0
14388 On ch=1 n=a4 v=0
14476 On ch=1 n=c4 v=43
14484 On ch=1 n=a6 v=0
14532 On ch=1 n=c4 v=0
14670 On ch=1 n=c5 v=27
14684 On ch=1 n=a4 v=25
14740 On ch=1 n=c5 v=0
14752 On ch=1 n=a4 v=0
14846 On ch=1 n=f3 v=78
14858 On ch=1 n=c7 v=74
14884 On ch=1 n=f3 v=0
14906 On ch=1 n=c7 v=0
14936 On ch=1 n=d7 v=63
15016 Par ch=1 c=64 v=0
15022 On ch=1 n=c7 v=59
15028 On ch=1 n=d7 v=0
15034 On ch=1 n=c5 v=58
15060 On ch=1 n=a4 v=23
15088 On ch=1 n=c5 v=0
15092 On ch=1 n=c7 v=0
15102 On ch=1 n=f6 v=68
15130 On ch=1 n=a4 v=0
15154 On ch=1 n=f6 v=0
15202 On ch=1 n=f7 v=89
15216 On ch=1 n=d#4 v=66
15278 On ch=1 n=d#4 v=0
15288 On ch=1 n=g7 v=75
15306 On ch=1 n=f7 v=0
15368 On ch=1 n=f7 v=81
15372 On ch=1 n=g7 v=0
15400 On ch=1 n=c5 v=35
15400 On ch=1 n=a4 v=37
15416 On ch=1 n=f7 v=0
15448 On ch=1 n=f6 v=62
15462 On ch=1 n=a4 v=0
15470 On ch=1 n=c5 v=0
15510 On ch=1 n=f6 v=0
15524 On ch=1 n=d4 v=72
15542 On ch=1 n=b6 v=104
15570 On ch=1 n=d4 v=0
15592 On ch=1 n=b6 v=0
15616 Par ch=1 c=64 v=127
15619 On ch=1 n=c7 v=88
15676 Par ch=1 c=64 v=0
15704 On ch=1 n=f5 v=42
15706 On ch=1 n=b6 v=98
15712 On ch=1 n=b4 v=64
15730 On ch=1 n=c7 v=0
15752 On ch=1 n=b4 v=0
15760 On ch=1 n=f5 v=0
15778 On ch=1 n=f6 v=72
15792 On ch=1 n=b6 v=0
15830 On ch=1 n=f6 v=0
15868 On ch=1 n=c#4 v=78
15872 On ch=1 n=f7 v=98
15916 On ch=1 n=c#4 v=0
15922 Par ch=1 c=64 v=127
15962 On ch=1 n=f7 v=0
15965 On ch=1 n=g7 v=72
16018 On ch=1 n=f7 v=78
16040 On ch=1 n=f5 v=55
16040 On ch=1 n=a#4 v=56
16076 Par ch=1 c=64 v=0
16084 On ch=1 n=f5 v=0
16090 On ch=1 n=a#4 v=0
16096 On ch=1 n=g7 v=0
16128 On ch=1 n=f6 v=72
16131 On ch=1 n=f7 v=0
16184 On ch=1 n=f6 v=0
16234 On ch=1 n=c4 v=57
16240 On ch=1 n=c7 v=95
16284 On ch=1 n=c4 v=0
16336 On ch=1 n=d7 v=82
16348 On ch=1 n=c7 v=0
16354 Par ch=1 c=64 v=127
16414 On ch=1 n=c7 v=80
16440 On ch=1 n=e5 v=41
16452 On ch=1 n=c5 v=43
16470 On ch=1 n=d7 v=0
16492 On ch=1 n=e5 v=0
16514 On ch=1 n=c5 v=0
16514 On ch=1 n=g6 v=77
16522 On ch=1 n=c7 v=0
16556 On ch=1 n=g6 v=0
16568 Par ch=1 c=64 v=0
16618 On ch=1 n=e4 v=57
16621 On ch=1 n=g6 v=76
16692 On ch=1 n=e4 v=0
16718 On ch=1 n=a6 v=70
16724 On ch=1 n=g6 v=0
16794 On ch=1 n=g6 v=69
16797 Par ch=1 c=64 v=127
16810 On ch=1 n=e5 v=31
16834 On ch=1 n=c5 v=34
16842 On ch=1 n=a6 v=0
16872 On ch=1 n=e5 v=0
16886 On ch=1 n=g6 v=0
16894 On ch=1 n=c6 v=58
16900 On ch=1 n=c5 v=0
16942 On ch=1 n=c6 v=0
16952 Par ch=1 c=64 v=0
16994 On ch=1 n=c6 v=74
17048 On ch=1 n=g4 v=28
17222 On ch=1 n=c#6 v=55
17238 On ch=1 n=c6 v=0
17266 On ch=1 n=e5 v=32
17274 Par ch=1 c=64 v=127
17276 On ch=1 n=a#4 v=17
17348 On ch=1 n=e5 v=0
17422 On ch=1 n=g4 v=0
17422 On ch=1 n=a#4 v=0
17486 On ch=1 n=f#4 v=38
17486 On ch=1 n=d6 v=39
17496 On ch=1 n=c#6 v=0
17504 Par ch=1 c=64 v=0
17700 On ch=1 n=f#4 v=0
17720 Par ch=1 c=64 v=127
17728 On ch=1 n=d6 v=0
17750 On ch=1 n=d5 v=31
17758 On ch=1 n=a5 v=41
17770 On ch=1 n=a4 v=24
17806 On ch=1 n=d5 v=0
17840 On ch=1 n=a4 v=0
17950 On ch=1 n=a5 v=0
18012 On ch=1 n=g3 v=48
18024 On ch=1 n=g6 v=62
18060 On ch=1 n=g3 v=0
18072 On ch=1 n=g6 v=0
18092 On ch=1 n=a6 v=54
18136 Par ch=1 c=64 v=0
18152 On ch=1 n=g6 v=45
18194 On ch=1 n=a6 v=0
18208 On ch=1 n=a#4 v=47
18246 On ch=1 n=g6 v=0
18264 On ch=1 n=a#4 v=0
18268 On ch=1 n=g5 v=55
18346 On ch=1 n=g5 v=0
18368 On ch=1 n=a#3 v=67
18376 On ch=1 n=d6 v=62
18422 On ch=1 n=a#3 v=0
18432 On ch=1 n=d6 v=0
18460 On ch=1 n=e6 v=51
18534 On ch=1 n=d6 v=54
18554 On ch=1 n=d5 v=46
18558 On ch=1 n=a#4 v=34
18568 On ch=1 n=e6 v=0
18590 On ch=1 n=d6 v=0
18608 On ch=1 n=d5 v=0
18620 On ch=1 n=g5 v=47
18626 On ch=1 n=a#4 v=0
18682 On ch=1 n=g5 v=0
18728 On ch=1 n=d4 v=64
18738 On ch=1 n=d6 v=65
18788 On ch=1 n=d6 v=0
18818 On ch=1 n=e6 v=51
18910 On ch=1 n=d6 v=51
18926 On ch=1 n=e6 v=0
18926 On ch=1 n=d5 v=45
18936 On ch=1 n=a4 v=35
18974 On ch=1 n=d6 v=0
18994 On ch=1 n=d5 v=0
18994 On ch=1 n=f5 v=45
19004 On ch=1 n=a4 v=0
19052 On ch=1 n=f5 v=0
19092 On ch=1 n=f6 v=81
19176 On ch=1 n=f6 v=0
19182 On ch=1 n=g6 v=75
19244 On ch=1 n=d5 v=55
19247 On ch=1 n=f6 v=74
19262 On ch=1 n=a4 v=52
19286 On ch=1 n=g6 v=0
19290 On ch=1 n=d5 v=0
19312 On ch=1 n=a4 v=0
19328 On ch=1 n=f6 v=0
19331 On ch=1 n=d4 v=0
19342 On ch=1 n=f5 v=57
19388 On ch=1 n=f5 v=0
19436 On ch=1 n=g6 v=94
19436 On ch=1 n=g3 v=76
19472 Par ch=1 c=64 v=127
19474 On ch=1 n=g3 v=0
19518 Par ch=1 c=64 v=0
19518 On ch=1 n=a6 v=75
19538 On ch=1 n=g6 v=0
19606 On ch=1 n=g6 v=81
19606 On ch=1 n=a#4 v=59
19609 On ch=1 n=d5 v=56
19630 On ch=1 n=a6 v=0
19648 On ch=1 n=g6 v=0
19656 On ch=1 n=a#4 v=0
19656 On ch=1 n=d5 v=0
19680 On ch=1 n=g5 v=72
19756 On ch=1 n=g5 v=0
19776 On ch=1 n=a#3 v=68
19798 On ch=1 n=d6 v=87
19828 On ch=1 n=a#3 v=0
19864 On ch=1 n=d6 v=0
19876 On ch=1 n=e6 v=71
19946 On ch=1 n=d5 v=58
19949 On ch=1 n=a#4 v=50
19958 On ch=1 n=d6 v=74
19986 On ch=1 n=e6 v=0
19994 On ch=1 n=d5 v=0
20002 On ch=1 n=a#4 v=0
20046 On ch=1 n=g5 v=59
20054 On ch=1 n=d6 v=0
20104 On ch=1 n=g5 v=0
20138 On ch=1 n=d4 v=74
20144 On ch=1 n=d6 v=73
20232 On ch=1 n=e6 v=57
20242 On ch=1 n=d6 v=0
20302 On ch=1 n=d5 v=53
20308 On ch=1 n=d6 v=83
20320 On ch=1 n=a4 v=42
20348 On ch=1 n=e6 v=0
20382 On ch=1 n=a4 v=0
20392 On ch=1 n=f5 v=64
20406 On ch=1 n=d5 v=0
20406 On ch=1 n=d6 v=0
20448 On ch=1 n=f5 v=0
20496 On ch=1 n=f6 v=83
20568 On ch=1 n=f6 v=0
20576 On ch=1 n=g6 v=76
20634 On ch=1 n=d5 v=44
20642 On ch=1 n=f6 v=72
20644 On ch=1 n=a4 v=48
20686 On ch=1 n=d5 v=0
20696 On ch=1 n=a4 v=0
20698 On ch=1 n=g6 v=0
20702 On ch=1 n=d4 v=0
20750 On ch=1 n=f6 v=0
20750 On ch=1 n=f5 v=52
20812 On ch=1 n=f5 v=0
20830 On ch=1 n=f6 v=57
20850 On ch=1 n=a3 v=40
20912 On ch=1 n=a3 v=0
20922 On ch=1 n=g6 v=80
20934 On ch=1 n=f6 v=0
21008 On ch=1 n=f6 v=44
21012 On ch=1 n=g6 v=0
21020 On ch=1 n=c5 v=62
21044 On ch=1 n=f4 v=59
21054 On ch=1 n=f6 v=0
21090 On ch=1 n=f5 v=68
21168 On ch=1 n=f5 v=0
21226 On ch=1 n=c5 v=0
21232 On ch=1 n=f#5 v=64
21322 On ch=1 n=g5 v=78
21338 On ch=1 n=f#5 v=0
21378 On ch=1 n=f4 v=0
21402 On ch=1 n=f#5 v=64
21405 On ch=1 n=g5 v=0
21405 On ch=1 n=f#4 v=64
21454 On ch=1 n=f#4 v=0
21502 On ch=1 n=c5 v=75
21516 On ch=1 n=f#5 v=0
21546 On ch=1 n=c5 v=0
21650 On ch=1 n=a3 v=60
21672 On ch=1 n=f6 v=91
21696 On ch=1 n=a3 v=0
21768 On ch=1 n=f6 v=0
21768 On ch=1 n=g6 v=76
21836 On ch=1 n=f6 v=84
21839 On ch=1 n=c5 v=77
21846 On ch=1 n=f4 v=92
21892 On ch=1 n=g6 v=0
21942 On ch=1 n=f6 v=0
21948 On ch=1 n=f5 v=73
21994 On ch=1 n=f5 v=0
22024 On ch=1 n=c5 v=0
22066 On ch=1 n=f#5 v=70
22140 On ch=1 n=f#5 v=0
22144 On ch=1 n=g5 v=74
22204 On ch=1 n=f4 v=0
22212 On ch=1 n=f#4 v=76
22222 On ch=1 n=f#5 v=62
22258 On ch=1 n=f#4 v=0
22260 On ch=1 n=g5 v=0
22306 On ch=1 n=c5 v=79
22336 On ch=1 n=f#5 v=0
22382 On ch=1 n=c5 v=0
22382 On ch=1 n=a#3 v=78
22404 On ch=1 n=g5 v=80
22488 On ch=1 n=a5 v=62
22500 On ch=1 n=a#3 v=0
22510 On ch=1 n=g5 v=0
22572 On ch=1 n=g5 v=80
22572 On ch=1 n=g4 v=59
22580 On ch=1 n=d4 v=50
22610 On ch=1 n=a5 v=0
22624 On ch=1 n=g4 v=0
22630 On ch=1 n=g5 v=0
22634 On ch=1 n=d4 v=0
22656 On ch=1 n=d5 v=57
22706 On ch=1 n=d5 v=0
22748 On ch=1 n=a3 v=60
22762 On ch=1 n=a5 v=50
22812 On ch=1 n=a#5 v=62
22814 On ch=1 n=a3 v=0
22816 On ch=1 n=a5 v=0
22900 On ch=1 n=a5 v=35
22910 On ch=1 n=a4 v=44
22954 On ch=1 n=a#5 v=0
22966 On ch=1 n=a4 v=0
22996 On ch=1 n=d5 v=59
23008 On ch=1 n=a5 v=0
23048 On ch=1 n=d5 v=0
23080 On ch=1 n=g3 v=73
23092 On ch=1 n=a#5 v=62
23124 On ch=1 n=g3 v=0
23190 On ch=1 n=c6 v=59
23202 On ch=1 n=a#5 v=0
23254 On ch=1 n=a#4 v=52
23262 On ch=1 n=a#5 v=60
23292 On ch=1 n=c6 v=0
23308 On ch=1 n=a#4 v=0
23370 On ch=1 n=d5 v=52
23380 On ch=1 n=a#5 v=0
23428 On ch=1 n=d5 v=0
23484 On ch=1 n=c6 v=93
23486 On ch=1 n=c3 v=78
23524 On ch=1 n=c3 v=0
23544 Par ch=1 c=64 v=127
23692 On ch=1 n=c6 v=0
23714 On ch=1 n=c5 v=59
23764 On ch=1 n=c5 v=0
23974 Par ch=1 c=64 v=0
24014 On ch=1 n=f3 v=98
24018 On ch=1 n=f6 v=91
24084 On ch=1 n=f3 v=0
24104 On ch=1 n=g6 v=83
24110 On ch=1 n=f6 v=0
24128 Par ch=1 c=64 v=127
24186 On ch=1 n=f6 v=58
24230 On ch=1 n=g6 v=0
24294 On ch=1 n=f6 v=0
24314 On ch=1 n=f5 v=66
24374 On ch=1 n=f5 v=0
24388 On ch=1 n=c5 v=80
24394 On ch=1 n=d#4 v=76
24396 On ch=1 n=a4 v=68
24416 On ch=1 n=c6 v=78
24420 Par ch=1 c=64 v=0
24436 On ch=1 n=c5 v=0
24438 On ch=1 n=a4 v=0
24454 On ch=1 n=d#4 v=0
24506 On ch=1 n=d6 v=79
24544 On ch=1 n=c6 v=0
24608 On ch=1 n=c6 v=63
24630 On ch=1 n=d6 v=0
24666 On ch=1 n=d#4 v=76
24666 On ch=1 n=c5 v=70
24674 On ch=1 n=a4 v=48
24688 On ch=1 n=f5 v=65
24708 On ch=1 n=c6 v=0
24714 On ch=1 n=c5 v=0
24722 On ch=1 n=d#4 v=0
24728 On ch=1 n=a4 v=0
24762 On ch=1 n=b4 v=102
24768 On ch=1 n=f5 v=0
24768 On ch=1 n=a4 v=89
24776 On ch=1 n=d4 v=93
24778 On ch=1 n=b5 v=95
24850 Par ch=1 c=64 v=127
24868 On ch=1 n=c6 v=79
24884 On ch=1 n=b5 v=0
24942 On ch=1 n=a4 v=0
24966 On ch=1 n=b5 v=68
25004 On ch=1 n=c6 v=0
25028 On ch=1 n=b4 v=0
25064 On ch=1 n=f5 v=64
25068 On ch=1 n=b5 v=0
25106 On ch=1 n=d4 v=0
25122 On ch=1 n=f5 v=0
25140 Par ch=1 c=64 v=0
25158 On ch=1 n=c5 v=83
25162 On ch=1 n=a4 v=64
25174 On ch=1 n=c6 v=78
25177 On ch=1 n=d#4 v=58
25208 On ch=1 n=c5 v=0
25211 On ch=1 n=a4 v=0
25256 On ch=1 n=d#4 v=0
25268 On ch=1 n=c6 v=0
25268 On ch=1 n=d6 v=71
25294 Par ch=1 c=64 v=127
25358 On ch=1 n=c6 v=58
25386 On ch=1 n=d6 v=0
25452 On ch=1 n=f5 v=67
25470 On ch=1 n=c6 v=0
25480 Par ch=1 c=64 v=0
25528 On ch=1 n=f5 v=0
25548 On ch=1 n=f3 v=79
25566 On ch=1 n=f6 v=88
25584 On ch=1 n=f3 v=0
25666 On ch=1 n=g6 v=79
25670 On ch=1 n=f6 v=0
25678 Par ch=1 c=64 v=127
25766 On ch=1 n=f6 v=11
25796 On ch=1 n=g6 v=0
25830 On ch=1 n=f6 v=0
25862 On ch=1 n=f5 v=59
25908 On ch=1 n=f5 v=0
26002 On ch=1 n=d#6 v=86
26014 On ch=1 n=g5 v=71
26016 On ch=1 n=d#5 v=83
26072 On ch=1 n=g5 v=0
26104 On ch=1 n=d#6 v=0
26124 On ch=1 n=d#5 v=0
26124 Par ch=1 c=64 v=0
26127 On ch=1 n=f5 v=60
26208 On ch=1 n=d#5 v=53
26248 On ch=1 n=f5 v=0
26288 On ch=1 n=d#5 v=0
26298 On ch=1 n=d#6 v=46
26310 On ch=1 n=f4 v=76
26314 On ch=1 n=g5 v=40
26354 On ch=1 n=d#6 v=0
26378 On ch=1 n=g5 v=0
26392 On ch=1 n=d6 v=98
26394 On ch=1 n=d5 v=73
26404 On ch=1 n=f5 v=75
26426 On ch=1 n=f4 v=0
26474 On ch=1 n=d5 v=0
26486 On ch=1 n=d#5 v=72
26582 On ch=1 n=d5 v=50
26586 Par ch=1 c=64 v=127
26600 On ch=1 n=d#5 v=0
26662 On ch=1 n=f5 v=0
26662 On ch=1 n=f4 v=76
26694 On ch=1 n=d5 v=0
26712 On ch=1 n=d6 v=0
26754 Par ch=1 c=64 v=0
26778 On ch=1 n=f4 v=0
26798 On ch=1 n=c#5 v=68
26806 On ch=1 n=c#6 v=73
26824 On ch=1 n=e5 v=62
26870 On ch=1 n=c#6 v=0
26870 On ch=1 n=e5 v=0
26873 On ch=1 n=d5 v=67
26908 Par ch=1 c=64 v=127
26910 On ch=1 n=c#5 v=0
26976 On ch=1 n=c#5 v=72
27000 On ch=1 n=d5 v=0
27078 On ch=1 n=f4 v=88
27098 On ch=1 n=c#5 v=0
27118 On ch=1 n=f4 v=0
27262 Par ch=1 c=64 v=0
27314 On ch=1 n=f6 v=101
27317 On ch=1 n=f3 v=86
27410 On ch=1 n=g6 v=91
27440 On ch=1 n=f6 v=0
27440 On ch=1 n=f3 v=0
27446 Par ch=1 c=64 v=127
27502 On ch=1 n=f6 v=84
27548 On ch=1 n=g6 v=0
27594 On ch=1 n=f6 v=0
27612 On ch=1 n=f5 v=70
27670 On ch=1 n=f5 v=0
27698 On ch=1 n=a#4 v=64
27708 On ch=1 n=d4 v=72
27714 On ch=1 n=a#5 v=75
27738 Par ch=1 c=64 v=0
27764 On ch=1 n=d4 v=0
27766 On ch=1 n=a#4 v=0
27790 On ch=1 n=c6 v=77
27818 On ch=1 n=a#5 v=0
27900 On ch=1 n=a#5 v=44
27936 On ch=1 n=c6 v=0
27964 On ch=1 n=a#4 v=52
27976 On ch=1 n=d4 v=57
27976 On ch=1 n=f5 v=74
28008 On ch=1 n=a#5 v=0
28022 On ch=1 n=a#4 v=0
28030 On ch=1 n=f5 v=0
28032 On ch=1 n=d4 v=0
28062 On ch=1 n=a4 v=87
28072 On ch=1 n=c#4 v=81
28075 On ch=1 n=a5 v=87
28164 On ch=1 n=a#5 v=75
28178 On ch=1 n=a5 v=0
28246 Par ch=1 c=64 v=127
28258 On ch=1 n=a5 v=51
28296 On ch=1 n=a4 v=0
28312 On ch=1 n=a#5 v=0
28344 On ch=1 n=f5 v=68
28366 On ch=1 n=c#4 v=0
28366 On ch=1 n=a5 v=0
28384 Par ch=1 c=64 v=0
28422 On ch=1 n=f5 v=0
28442 On ch=1 n=a#4 v=71
28444 On ch=1 n=a#5 v=75
28460 On ch=1 n=d4 v=72
28520 On ch=1 n=d4 v=0
28546 On ch=1 n=a#4 v=0
28546 On ch=1 n=c6 v=51
28564 On ch=1 n=a#5 v=0
28568 Par ch=1 c=64 v=127
28626 On ch=1 n=a#5 v=54
28674 On ch=1 n=c6 v=0
28704 On ch=1 n=f5 v=72
28736 On ch=1 n=a#5 v=0
28736 Par ch=1 c=64 v=0
28758 On ch=1 n=f5 v=0
28822 On ch=1 n=f3 v=83
28844 On ch=1 n=f6 v=91
28860 On ch=1 n=f3 v=0
28914 On ch=1 n=g6 v=81
28936 Par ch=1 c=64 v=127
28944 On ch=1 n=f6 v=0
29014 On ch=1 n=f6 v=81
29038 On ch=1 n=g6 v=0
29124 On ch=1 n=f6 v=0
29132 On ch=1 n=f5 v=56
29174 On ch=1 n=f5 v=0
29276 On ch=1 n=f5 v=30
29280 On ch=1 n=d6 v=91
29282 On ch=1 n=d5 v=85
29348 On ch=1 n=d5 v=0
29358 On ch=1 n=f5 v=0
29376 On ch=1 n=d6 v=0
29388 On ch=1 n=d#5 v=81
29484 On ch=1 n=d5 v=49
29492 On ch=1 n=d#5 v=0
29566 On ch=1 n=f4 v=85
29584 On ch=1 n=d6 v=44
29584 On ch=1 n=f5 v=57
29598 On ch=1 n=d5 v=0
29628 Par ch=1 c=64 v=0
29638 On ch=1 n=f5 v=0
29641 On ch=1 n=d6 v=0
29676 On ch=1 n=f4 v=0
29679 On ch=1 n=c5 v=73
29686 On ch=1 n=c6 v=87
29696 On ch=1 n=d#5 v=74
29760 On ch=1 n=d5 v=71
29792 On ch=1 n=c5 v=0
29858 Par ch=1 c=64 v=127
29864 On ch=1 n=c5 v=59
29888 On ch=1 n=d5 v=0
29944 On ch=1 n=c6 v=0
29962 On ch=1 n=f4 v=78
29976 On ch=1 n=c5 v=0
29992 On ch=1 n=d#5 v=0
30028 Par ch=1 c=64 v=0
30040 On ch=1 n=f4 v=0
30084 On ch=1 n=a#4 v=57
30094 On ch=1 n=a#5 v=48
30112 On ch=1 n=d5 v=52
30156 On ch=1 n=a#5 v=0
30162 On ch=1 n=a#4 v=0
30166 On ch=1 n=d5 v=0
30174 On ch=1 n=c5 v=75
30212 Par ch=1 c=64 v=127
30268 On ch=1 n=a#4 v=38
30302 On ch=1 n=c5 v=0
30394 On ch=1 n=a#4 v=0
30398 On ch=1 n=f4 v=81
30474 Par ch=1 c=64 v=0
30477 On ch=1 n=f4 v=0
30524 On ch=1 n=a#4 v=29
30532 On ch=1 n=f#2 v=55
30632 On ch=1 n=b4 v=45
30644 On ch=1 n=f#2 v=0
30658 On ch=1 n=a#4 v=0
30704 Par ch=1 c=64 v=127
30726 On ch=1 n=b4 v=0
30730 On ch=1 n=a#4 v=57
30808 On ch=1 n=a#4 v=0
30810 On ch=1 n=e4 v=62
30888 Par ch=1 c=64 v=0
30914 On ch=1 n=c#4 v=47
30922 On ch=1 n=a#4 v=30
30926 On ch=1 n=e4 v=0
30970 On ch=1 n=c#4 v=0
30996 On ch=1 n=d#4 v=66
30998 On ch=1 n=b4 v=56
31002 On ch=1 n=a#4 v=0
31072 On ch=1 n=c#4 v=44
31072 On ch=1 n=a#4 v=44
31096 On ch=1 n=d#4 v=0
31104 On ch=1 n=b4 v=0
31154 On ch=1 n=c#4 v=0
31192 On ch=1 n=e4 v=62
31193 On ch=1 n=f#3 v=51
31198 On ch=1 n=a#4 v=0
31236 On ch=1 n=f#3 v=0
31286 On ch=1 n=b4 v=49
31300 On ch=1 n=f#2 v=89
31308 On ch=1 n=e4 v=0
31346 On ch=1 n=f#2 v=0
31380 On ch=1 n=c#5 v=63
31396 On ch=1 n=b4 v=0
31426 Par ch=1 c=64 v=127
31450 On ch=1 n=c#5 v=0
31484 On ch=1 n=b4 v=49
31564 On ch=1 n=b4 v=0
31564 On ch=1 n=e4 v=68
31596 Par ch=1 c=64 v=0
31628 On ch=1 n=e4 v=0
31680 On ch=1 n=c#5 v=69
31682 On ch=1 n=c#4 v=72
31728 On ch=1 n=c#4 v=0
31754 On ch=1 n=d#5 v=62
31762 On ch=1 n=d#4 v=65
31768 On ch=1 n=c#5 v=0
31842 On ch=1 n=c#5 v=60
31858 On ch=1 n=c#4 v=55
31880 On ch=1 n=d#4 v=0
31890 On ch=1 n=d#5 v=0
31902 Par ch=1 c=64 v=127
31918 On ch=1 n=c#4 v=0
31922 On ch=1 n=f#3 v=57
31922 On ch=1 n=e4 v=74
31956 On ch=1 n=c#5 v=0
31962 On ch=1 n=f#3 v=0
31968 On ch=1 n=e4 v=0
31994 Par ch=1 c=64 v=0
32054 On ch=1 n=d#5 v=75
32060 On ch=1 n=f#2 v=89
32096 On ch=1 n=f#2 v=0
32120 On ch=1 n=e5 v=63
32154 On ch=1 n=d#5 v=0
32178 Par ch=1 c=64 v=127
32224 On ch=1 n=d#5 v=73
32262 On ch=1 n=e5 v=0
32308 On ch=1 n=a4 v=51
32338 On ch=1 n=d#5 v=0
32364 On ch=1 n=a4 v=0
32364 Par ch=1 c=64 v=0
32418 On ch=1 n=d#5 v=68
32430 On ch=1 n=f#4 v=86
32504 On ch=1 n=g#4 v=78
32506 On ch=1 n=e5 v=75
32524 On ch=1 n=d#5 v=0
32546 On ch=1 n=f#4 v=0
32586 On ch=1 n=d#5 v=80
32608 Par ch=1 c=64 v=127
32610 On ch=1 n=e5 v=0
32613 On ch=1 n=f#4 v=80
32618 On ch=1 n=g#4 v=0
32672 On ch=1 n=f#4 v=0
32690 On ch=1 n=b3 v=43
32692 On ch=1 n=a4 v=54
32696 On ch=1 n=d#5 v=0
32716 Par ch=1 c=64 v=0
32748 On ch=1 n=b3 v=0
32770 On ch=1 n=a4 v=0
32790 On ch=1 n=e5 v=70
32810 On ch=1 n=f#3 v=89
32846 On ch=1 n=f#3 v=0
32874 On ch=1 n=f#5 v=69
32892 On ch=1 n=e5 v=0
32932 Par ch=1 c=64 v=127
32964 On ch=1 n=e5 v=59
33030 On ch=1 n=f#5 v=0
33042 On ch=1 n=a4 v=72
33070 Par ch=1 c=64 v=0
33084 On ch=1 n=e5 v=0
33156 On ch=1 n=a4 v=0
33168 On ch=1 n=f#4 v=90
33170 On ch=1 n=f#5 v=68
33232 On ch=1 n=g#4 v=79
33238 On ch=1 n=f#4 v=0
33238 On ch=1 n=g#5 v=67
33280 On ch=1 n=f#5 v=0
33324 On ch=1 n=f#4 v=78
33332 Par ch=1 c=64 v=127
33340 On ch=1 n=f#5 v=67
33342 On ch=1 n=g#4 v=0
33398 On ch=1 n=g#5 v=0
33408 On ch=1 n=b3 v=54
33414 On ch=1 n=f#4 v=0
33416 On ch=1 n=a4 v=66
33446 On ch=1 n=f#5 v=0
33454 On ch=1 n=b3 v=0
33486 Par ch=1 c=64 v=0
33496 On ch=1 n=a4 v=0
33538 On ch=1 n=f3 v=103
33546 On ch=1 n=g5 v=85
33604 On ch=1 n=a5 v=70
33626 On ch=1 n=f3 v=0
33666 On ch=1 n=g5 v=0
33669 Par ch=1 c=64 v=127
33722 On ch=1 n=g5 v=84
33760 On ch=1 n=a5 v=0
33790 On ch=1 n=b4 v=68
33850 On ch=1 n=g5 v=0
33854 Par ch=1 c=64 v=0
33874 On ch=1 n=b4 v=0
33922 On ch=1 n=g5 v=75
33925 On ch=1 n=g4 v=94
33986 On ch=1 n=a4 v=85
33992 On ch=1 n=g4 v=0
33996 On ch=1 n=a5 v=73
34036 On ch=1 n=g5 v=0
34092 On ch=1 n=g4 v=78
34094 On ch=1 n=a4 v=0
34094 On ch=1 n=g5 v=79
34100 Par ch=1 c=64 v=127
34160 On ch=1 n=g4 v=0
34162 On ch=1 n=a5 v=0
34168 On ch=1 n=d4 v=87
34174 On ch=1 n=b4 v=77
34204 On ch=1 n=g5 v=0
34204 On ch=1 n=d4 v=0
34226 On ch=1 n=b4 v=0
34252 Par ch=1 c=64 v=0
34302 On ch=1 n=a5 v=79
34308 On ch=1 n=d3 v=108
34364 On ch=1 n=d3 v=0
34372 On ch=1 n=b5 v=92
34408 On ch=1 n=a5 v=0
34452 Par ch=1 c=64 v=127
34466 On ch=1 n=a5 v=67
34532 On ch=1 n=b5 v=0
34550 On ch=1 n=c5 v=78
34598 On ch=1 n=a5 v=0
34622 Par ch=1 c=64 v=0
34630 On ch=1 n=c5 v=0
34664 On ch=1 n=g4 v=100
34682 On ch=1 n=b5 v=95
34744 On ch=1 n=a4 v=88
34760 On ch=1 n=c6 v=78
34772 On ch=1 n=g4 v=0
34790 On ch=1 n=b5 v=0
34836 On ch=1 n=g4 v=85
34850 On ch=1 n=a4 v=0
34850 On ch=1 n=b5 v=82
34868 Par ch=1 c=64 v=127
34912 On ch=1 n=d4 v=85
34924 On ch=1 n=c6 v=0
34936 On ch=1 n=d5 v=81
34940 On ch=1 n=g4 v=0
34950 On ch=1 n=d4 v=0
34982 On ch=1 n=b5 v=0
35042 On ch=1 n=d5 v=0
35052 Par ch=1 c=64 v=0
35080 On ch=1 n=c6 v=90
35088 On ch=1 n=c3 v=108
35091 On ch=1 n=g3 v=107
35180 On ch=1 n=d6 v=88
35222 On ch=1 n=c6 v=0
35222 On ch=1 n=c3 v=0
35238 On ch=1 n=g3 v=0
35278 On ch=1 n=c6 v=84
35298 Par ch=1 c=64 v=127
35340 On ch=1 n=d6 v=0
35362 On ch=1 n=e5 v=65
35406 On ch=1 n=c6 v=0
35414 On ch=1 n=e5 v=0
35542 On ch=1 n=g6 v=100
35548 On ch=1 n=c5 v=94
35554 On ch=1 n=g4 v=91
35558 On ch=1 n=e4 v=92
35574 Par ch=1 c=64 v=0
35626 On ch=1 n=a6 v=79
35648 On ch=1 n=c5 v=0
35648 On ch=1 n=g4 v=0
35666 On ch=1 n=g6 v=0
35676 On ch=1 n=e4 v=0
35730 On ch=1 n=g6 v=76
35812 On ch=1 n=a6 v=0
35820 On ch=1 n=c6 v=68
35820 On ch=1 n=e4 v=98
35828 On ch=1 n=c5 v=75
35834 On ch=1 n=g4 v=56
35844 On ch=1 n=g6 v=0
35858 On ch=1 n=e4 v=0
35874 On ch=1 n=c5 v=0
35884 On ch=1 n=g4 v=0
35920 On ch=1 n=f#6 v=86
35932 On ch=1 n=c6 v=0
35932 On ch=1 n=c5 v=93
35935 On ch=1 n=f#4 v=100
35948 On ch=1 n=d#4 v=93
35992 On ch=1 n=g6 v=88
36028 On ch=1 n=f#6 v=0
36050 Par ch=1 c=64 v=127
36068 On ch=1 n=c5 v=0
36086 On ch=1 n=f#6 v=73
36120 On ch=1 n=f#4 v=0
36148 On ch=1 n=g6 v=0
36160 On ch=1 n=d#4 v=0
36182 On ch=1 n=c6 v=67
36208 On ch=1 n=f#6 v=0
36246 On ch=1 n=c6 v=0
36316 On ch=1 n=b5 v=91
36320 On ch=1 n=c#4 v=102
36331 On ch=1 n=c#3 v=95
36344 Par ch=1 c=64 v=0
36410 On ch=1 n=c6 v=82
36434 On ch=1 n=c#4 v=0
36444 On ch=1 n=c#3 v=0
36530 On ch=1 n=c6 v=0
36586 On ch=1 n=c#4 v=89
36596 On ch=1 n=c#3 v=78
36599 On ch=1 n=f5 v=79
36620 On ch=1 n=b5 v=0
36638 On ch=1 n=c#4 v=0
36640 On ch=1 n=c#3 v=0
36706 On ch=1 n=c6 v=91
36712 On ch=1 n=g3 v=96
36714 On ch=1 n=c3 v=104
36748 On ch=1 n=f5 v=0
36786 On ch=1 n=d6 v=84
36824 On ch=1 n=c6 v=0
36830 On ch=1 n=c3 v=0
36848 On ch=1 n=g3 v=0
36880 Par ch=1 c=64 v=127
36882 On ch=1 n=c6 v=74
36942 On ch=1 n=d6 v=0
36958 On ch=1 n=e5 v=81
36996 On ch=1 n=e5 v=0
37014 On ch=1 n=c6 v=0
37122 On ch=1 n=c5 v=86
37124 On ch=1 n=g6 v=98
37126 On ch=1 n=g4 v=85
37128 On ch=1 n=e4 v=91
37188 Par ch=1 c=64 v=0
37202 On ch=1 n=c5 v=0
37206 On ch=1 n=e4 v=0
37208 On ch=1 n=a6 v=74
37218 On ch=1 n=g6 v=0
37226 On ch=1 n=g4 v=0
37300 On ch=1 n=g6 v=59
37376 On ch=1 n=a6 v=0
37388 On ch=1 n=g4 v=60
37388 On ch=1 n=c5 v=76
37388 On ch=1 n=c6 v=64
37391 On ch=1 n=e4 v=79
37422 On ch=1 n=g6 v=0
37432 On ch=1 n=e4 v=0
37434 On ch=1 n=c5 v=0
37440 On ch=1 n=g4 v=0
37460 On ch=1 n=c6 v=0
37482 On ch=1 n=c5 v=100
37488 On ch=1 n=f#6 v=89
37492 On ch=1 n=f#4 v=95
37492 On ch=1 n=d#4 v=91
37568 On ch=1 n=g6 v=90
37602 On ch=1 n=f#6 v=0
37602 Par ch=1 c=64 v=127
37626 On ch=1 n=c5 v=0
37656 On ch=1 n=f#6 v=72
37678 On ch=1 n=f#4 v=0
37712 On ch=1 n=d#4 v=0
37730 On ch=1 n=g6 v=0
37764 On ch=1 n=c6 v=43
37782 On ch=1 n=f#6 v=0
37820 On ch=1 n=c6 v=0
37862 On ch=1 n=b5 v=98
37870 On ch=1 n=c#4 v=90
37878 On ch=1 n=c#3 v=87
37894 Par ch=1 c=64 v=0
37942 On ch=1 n=c#3 v=0
37956 On ch=1 n=c6 v=87
37974 On ch=1 n=b5 v=0
37978 On ch=1 n=c#4 v=0
38044 On ch=1 n=b5 v=81
38074 On ch=1 n=c6 v=0
38124 On ch=1 n=c#4 v=82
38142 On ch=1 n=c#3 v=49
38144 On ch=1 n=f5 v=72
38150 On ch=1 n=b5 v=0
38164 On ch=1 n=c#4 v=0
38194 On ch=1 n=c#3 v=0
38224 On ch=1 n=f5 v=0
38242 On ch=1 n=c6 v=78
38242 On ch=1 n=g3 v=93
38245 On ch=1 n=c3 v=97
38324 On ch=1 n=d6 v=89
38362 On ch=1 n=c6 v=0
38400 On ch=1 n=c3 v=0
38422 On ch=1 n=c6 v=73
38424 On ch=1 n=g3 v=0
38464 Par ch=1 c=64 v=127
38478 On ch=1 n=d6 v=0
38508 On ch=1 n=e5 v=85
38562 On ch=1 n=c6 v=0
38570 On ch=1 n=e5 v=0
38748 On ch=1 n=a#5 v=69
38750 On ch=1 n=g6 v=101
38834 On ch=1 n=a#5 v=0
38860 On ch=1 n=a6 v=79
38878 On ch=1 n=c#6 v=66
38881 On ch=1 n=g6 v=0
38964 On ch=1 n=g6 v=78
38982 On ch=1 n=a#5 v=55
39004 On ch=1 n=c#6 v=0
39006 On ch=1 n=a6 v=0
39066 On ch=1 n=c6 v=74
39090 On ch=1 n=g6 v=0
39093 On ch=1 n=e5 v=71
39093 Par ch=1 c=64 v=0
39116 On ch=1 n=a#5 v=0
39182 On ch=1 n=c6 v=0
39190 On ch=1 n=a#5 v=48
39202 On ch=1 n=g6 v=77
39234 On ch=1 n=e5 v=0
39290 On ch=1 n=c#6 v=56
39308 On ch=1 n=a6 v=65
39310 On ch=1 n=a#5 v=0
39310 On ch=1 n=g6 v=0
39338 Par ch=1 c=64 v=127
39380 On ch=1 n=a#5 v=52
39392 On ch=1 n=g6 v=68
39402 On ch=1 n=c#6 v=0
39428 On ch=1 n=a6 v=0
39470 On ch=1 n=a#5 v=0
39486 On ch=1 n=c6 v=67
39498 On ch=1 n=g6 v=0
39508 On ch=1 n=e5 v=35
39508 Par ch=1 c=64 v=0
39544 On ch=1 n=c6 v=0
39566 On ch=1 n=e5 v=0
39580 On ch=1 n=a#5 v=31
39583 On ch=1 n=g6 v=53
39583 Par ch=1 c=64 v=127
39642 On ch=1 n=a#5 v=0
39662 On ch=1 n=c#6 v=50
39662 On ch=1 n=a6 v=66
39680 On ch=1 n=g6 v=0
39728 On ch=1 n=c#6 v=0
39754 On ch=1 n=g6 v=76
39754 On ch=1 n=a#5 v=35
39786 On ch=1 n=a6 v=0
39818 On ch=1 n=a#5 v=0
39844 On ch=1 n=c6 v=60
39862 On ch=1 n=g6 v=0
39866 On ch=1 n=e5 v=43
39876 Par ch=1 c=64 v=0
39914 On ch=1 n=c6 v=0
39928 On ch=1 n=e5 v=0
39950 On ch=1 n=g6 v=67
39960 On ch=1 n=a#5 v=45
40018 On ch=1 n=a#5 v=0
40038 On ch=1 n=a6 v=71
40041 On ch=1 n=c#6 v=52
40054 On ch=1 n=g6 v=0
40092 Par ch=1 c=64 v=127
40130 On ch=1 n=c#6 v=0
40136 On ch=1 n=g6 v=62
40144 On ch=1 n=a#5 v=37
40162 On ch=1 n=a6 v=0
40202 On ch=1 n=a#5 v=0
40234 On ch=1 n=d6 v=59
40240 On ch=1 n=g6 v=0
40246 On ch=1 n=e5 v=35
40276 Par ch=1 c=64 v=0
40286 On ch=1 n=d6 v=0
40308 On ch=1 n=e5 v=0
40324 On ch=1 n=g6 v=55
40330 On ch=1 n=a#5 v=26
40394 On ch=1 n=a#5 v=0
40404 On ch=1 n=c#6 v=42
40408 On ch=1 n=a6 v=58
40424 On ch=1 n=g6 v=0
40460 Par ch=1 c=64 v=127
40484 On ch=1 n=c#6 v=0
40490 On ch=1 n=g6 v=75
40504 On ch=1 n=a#5 v=26
40532 On ch=1 n=a6 v=0
40576 On ch=1 n=a#5 v=0
40606 On ch=1 n=c6 v=42
40608 On ch=1 n=g6 v=0
40630 Par ch=1 c=64 v=0
40658 On ch=1 n=e5 v=13
40674 On ch=1 n=c6 v=0
40696 On ch=1 n=g6 v=46
40722 On ch=1 n=a#5 v=23
40725 On ch=1 n=e5 v=0
40782 On ch=1 n=g6 v=0
40788 On ch=1 n=a#5 v=0
40796 On ch=1 n=a6 v=49
40802 Par ch=1 c=64 v=127
40802 On ch=1 n=c#6 v=33
40880 On ch=1 n=c#6 v=0
40892 On ch=1 n=a6 v=0
40900 On ch=1 n=a#5 v=17
40916 On ch=1 n=g6 v=23
40978 On ch=1 n=a#5 v=0
40996 On ch=1 n=g6 v=0
40996 On ch=1 n=d6 v=40
41060 Par ch=1 c=64 v=0
41070 On ch=1 n=d6 v=0
41080 On ch=1 n=e5 v=5
41126 On ch=1 n=g6 v=28
41132 On ch=1 n=a#5 v=23
41136 On ch=1 n=e5 v=0
41206 On ch=1 n=a#5 v=0
41222 On ch=1 n=g6 v=0
41231 On ch=1 n=c#6 v=33
41231 On ch=1 n=a6 v=41
41260 Par ch=1 c=64 v=127
41300 On ch=1 n=c#6 v=0
41312 On ch=1 n=a6 v=0
41320 On ch=1 n=g6 v=30
41364 On ch=1 n=a#5 v=23
41404 On ch=1 n=g6 v=0
41440 On ch=1 n=a#5 v=0
41474 On ch=1 n=c6 v=34
41508 On ch=1 n=e5 v=17
41566 On ch=1 n=e5 v=0
41704 On ch=1 n=c6 v=0
41720 On ch=1 n=f3 v=75
41724 On ch=1 n=f6 v=40
41760 On ch=1 n=f3 v=0
41782 On ch=1 n=f6 v=0
41796 On ch=1 n=g6 v=64
41862 On ch=1 n=g6 v=0
41866 On ch=1 n=f6 v=46
41874 Par ch=1 c=64 v=0
41894 On ch=1 n=c5 v=41
41894 On ch=1 n=a4 v=30
41938 On ch=1 n=f6 v=0
41956 On ch=1 n=c5 v=0
41962 On ch=1 n=a4 v=0
41982 On ch=1 n=f5 v=57
42042 On ch=1 n=f5 v=0
42078 On ch=1 n=c6 v=61
42081 On ch=1 n=c4 v=57
42140 On ch=1 n=c6 v=0
42152 On ch=1 n=c4 v=0
42168 On ch=1 n=d6 v=51
42244 On ch=1 n=c6 v=47
42252 On ch=1 n=a4 v=18
42254 On ch=1 n=d6 v=0
42254 On ch=1 n=c5 v=47
42302 On ch=1 n=c6 v=0
42312 On ch=1 n=c5 v=0
42314 On ch=1 n=a4 v=0
42340 On ch=1 n=f5 v=54
42392 On ch=1 n=f5 v=0
42404 On ch=1 n=f4 v=87
42418 On ch=1 n=d6 v=63
42454 On ch=1 n=f4 v=0
42518 On ch=1 n=d6 v=0
42524 On ch=1 n=e6 v=34
42584 On ch=1 n=e6 v=0
42594 On ch=1 n=d6 v=69
42594 On ch=1 n=a4 v=46
42601 On ch=1 n=c5 v=42
42638 On ch=1 n=d6 v=0
42648 On ch=1 n=a4 v=0
42659 On ch=1 n=c5 v=0
42674 On ch=1 n=f5 v=42
42730 On ch=1 n=f5 v=0
42750 On ch=1 n=e6 v=73
42753 On ch=1 n=c4 v=68
42810 On ch=1 n=c4 v=0
42836 On ch=1 n=f6 v=63
42852 On ch=1 n=e6 v=0
42915 On ch=1 n=a4 v=33
42918 On ch=1 n=e6 v=77
42921 On ch=1 n=f6 v=0
42921 On ch=1 n=c5 v=41
42974 On ch=1 n=e6 v=0
42975 On ch=1 n=a4 v=0
42988 On ch=1 n=c5 v=0
42996 On ch=1 n=f5 v=57
43046 On ch=1 n=f5 v=0
43092 On ch=1 n=f3 v=83
43092 On ch=1 n=f6 v=80
43128 On ch=1 n=f3 v=0
43168 On ch=1 n=g6 v=85
43202 On ch=1 n=f6 v=0
43258 On ch=1 n=f6 v=61
43266 On ch=1 n=c5 v=52
43272 On ch=1 n=g6 v=0
43276 On ch=1 n=a4 v=44
43312 On ch=1 n=f6 v=0
43324 On ch=1 n=c5 v=0
43330 On ch=1 n=a4 v=0
43334 On ch=1 n=f5 v=62
43380 On ch=1 n=f5 v=0
43440 On ch=1 n=c4 v=63
43468 On ch=1 n=g6 v=43
43492 On ch=1 n=c4 v=0
43518 On ch=1 n=a6 v=67
43532 On ch=1 n=g6 v=0
43604 On ch=1 n=g6 v=63
43616 On ch=1 n=c5 v=38
43622 On ch=1 n=a4 v=14
43626 On ch=1 n=a6 v=0
43650 On ch=1 n=g6 v=0
43682 On ch=1 n=c5 v=0
43682 On ch=1 n=a4 v=0
43712 On ch=1 n=f5 v=48
43762 On ch=1 n=f5 v=0
43810 On ch=1 n=f4 v=74
43812 On ch=1 n=a6 v=87
43874 On ch=1 n=f4 v=0
43992 On ch=1 n=c5 v=41
43998 On ch=1 n=a4 v=35
44060 On ch=1 n=c5 v=0
44078 On ch=1 n=a4 v=0
44118 Par ch=1 c=64 v=127
44144 On ch=1 n=c4 v=54
44186 On ch=1 n=a6 v=0
44198 On ch=1 n=c4 v=0
44326 On ch=1 n=c5 v=39
44340 On ch=1 n=a4 v=41
44388 On ch=1 n=c5 v=0
44400 On ch=1 n=a4 v=0
44470 Par ch=1 c=64 v=0
44498 On ch=1 n=c7 v=80
44512 On ch=1 n=f3 v=73
44554 On ch=1 n=f3 v=0
44560 On ch=1 n=c7 v=0
44576 On ch=1 n=d7 v=69
44656 On ch=1 n=c7 v=69
44685 On ch=1 n=a4 v=14
44686 On ch=1 n=c5 v=55
44712 On ch=1 n=d7 v=0
44744 On ch=1 n=c5 v=0
44745 On ch=1 n=a4 v=0
44746 On ch=1 n=f6 v=65
44764 On ch=1 n=c7 v=0
44798 On ch=1 n=f6 v=0
44842 On ch=1 n=f7 v=91
44850 On ch=1 n=d#4 v=64
44910 On ch=1 n=d#4 v=0
44920 On ch=1 n=g7 v=80
44934 On ch=1 n=f7 v=0
44990 On ch=1 n=f7 v=75
45026 On ch=1 n=c5 v=43
45036 On ch=1 n=a4 v=41
45044 On ch=1 n=g7 v=0
45086 On ch=1 n=c5 v=0
45089 On ch=1 n=f6 v=67
45092 On ch=1 n=a4 v=0
45096 On ch=1 n=f7 v=0
45148 On ch=1 n=f6 v=0
45176 On ch=1 n=d4 v=62
45188 On ch=1 n=b6 v=105
45224 On ch=1 n=d4 v=0
45238 On ch=1 n=b6 v=0
45264 On ch=1 n=c7 v=85
45346 On ch=1 n=b6 v=98
45350 On ch=1 n=f5 v=50
45352 On ch=1 n=b4 v=65
45388 On ch=1 n=c7 v=0
45398 On ch=1 n=f5 v=0
45398 On ch=1 n=b4 v=0
45422 On ch=1 n=f6 v=75
45452 On ch=1 n=b6 v=0
45472 On ch=1 n=f6 v=0
45518 On ch=1 n=c#4 v=82
45530 On ch=1 n=f7 v=92
45546 Par ch=1 c=64 v=127
45570 On ch=1 n=c#4 v=0
45576 Par ch=1 c=64 v=0
45608 On ch=1 n=g7 v=78
45618 On ch=1 n=f7 v=0
45676 On ch=1 n=f7 v=76
45684 On ch=1 n=f5 v=64
45686 On ch=1 n=a#4 v=58
45724 On ch=1 n=f5 v=0
45728 On ch=1 n=g7 v=0
45742 On ch=1 n=a#4 v=0
45770 On ch=1 n=f6 v=80
45776 On ch=1 n=f7 v=0
45836 On ch=1 n=f6 v=0
45874 On ch=1 n=c4 v=51
45892 On ch=1 n=c7 v=91
45932 On ch=1 n=c4 v=0
45978 On ch=1 n=d7 v=66
45994 On ch=1 n=c7 v=0
46054 Par ch=1 c=64 v=127
46057 On ch=1 n=c7 v=74
46062 On ch=1 n=e5 v=37
46084 On ch=1 n=c5 v=45
46114 On ch=1 n=d7 v=0
46117 On ch=1 n=e5 v=0
46144 On ch=1 n=c5 v=0
46154 On ch=1 n=g6 v=76
46170 On ch=1 n=c7 v=0
46198 On ch=1 n=g6 v=0
46222 Par ch=1 c=64 v=0
46246 On ch=1 n=e4 v=64
46256 On ch=1 n=g6 v=78
46300 On ch=1 n=e4 v=0
46362 On ch=1 n=a6 v=69
46365 On ch=1 n=g6 v=0
46392 Par ch=1 c=64 v=127
46432 On ch=1 n=g6 v=80
46435 On ch=1 n=e5 v=41
46444 On ch=1 n=a6 v=0
46450 On ch=1 n=c5 v=39
46492 On ch=1 n=e5 v=0
46516 On ch=1 n=g6 v=0
46522 On ch=1 n=c5 v=0
46538 On ch=1 n=c6 v=67
46584 On ch=1 n=c6 v=0
46606 Par ch=1 c=64 v=0
46644 On ch=1 n=c6 v=64
46658 On ch=1 n=g4 v=33
46866 On ch=1 n=c#6 v=47
46866 Par ch=1 c=64 v=127
46869 On ch=1 n=c6 v=0
46892 On ch=1 n=e5 v=24
46898 On ch=1 n=a#4 v=18
46914 Par ch=1 c=64 v=0
46982 On ch=1 n=e5 v=0
47006 On ch=1 n=g4 v=0
47092 On ch=1 n=a#4 v=0
47096 On ch=1 n=f#4 v=38
47116 On ch=1 n=d6 v=36
47146 On ch=1 n=c#6 v=0
47320 On ch=1 n=d6 v=0
47328 Par ch=1 c=64 v=127
47334 On ch=1 n=f#4 v=0
47346 On ch=1 n=d5 v=24
47354 On ch=1 n=a5 v=35
47366 On ch=1 n=a4 v=25
47412 On ch=1 n=d5 v=0
47436 On ch=1 n=a4 v=0
47450 On ch=1 n=a5 v=0
47528 Par ch=1 c=64 v=0
47584 On ch=1 n=g3 v=61
47592 On ch=1 n=g6 v=51
47628 On ch=1 n=g3 v=0
47644 On ch=1 n=g6 v=0
47654 On ch=1 n=a6 v=59
47722 On ch=1 n=g6 v=41
47740 On ch=1 n=d5 v=25
47740 On ch=1 n=a#4 v=38
47766 On ch=1 n=a6 v=0
47802 On ch=1 n=a#4 v=0
47806 On ch=1 n=d5 v=0
47816 On ch=1 n=g6 v=0
47859 On ch=1 n=g5 v=40
47922 On ch=1 n=g5 v=0
47938 On ch=1 n=d6 v=63
47948 On ch=1 n=a#3 v=50
47998 On ch=1 n=d6 v=0
47998 On ch=1 n=a#3 v=0
48026 On ch=1 n=e6 v=56
48102 On ch=1 n=e6 v=0
48102 On ch=1 n=d6 v=52
48116 On ch=1 n=d5 v=49
48122 On ch=1 n=a#4 v=38
48166 On ch=1 n=d6 v=0
48169 On ch=1 n=d5 v=0
48184 On ch=1 n=a#4 v=0
48192 On ch=1 n=g5 v=52
48252 On ch=1 n=g5 v=0
48298 On ch=1 n=d4 v=63
48320 On ch=1 n=d6 v=67
48370 On ch=1 n=d6 v=0
48402 On ch=1 n=e6 v=36
48474 On ch=1 n=d6 v=50
48482 On ch=1 n=d5 v=32
48494 On ch=1 n=a4 v=27
48496 Par ch=1 c=64 v=127
48512 On ch=1 n=e6 v=0
48556 On ch=1 n=d5 v=0
48564 On ch=1 n=a4 v=0
48567 On ch=1 n=f5 v=42
48578 On ch=1 n=d6 v=0
48620 On ch=1 n=f5 v=0
48672 On ch=1 n=f6 v=72
48682 Par ch=1 c=64 v=0
48752 On ch=1 n=f6 v=0
48764 On ch=1 n=g6 v=66
48814 On ch=1 n=d5 v=47
48824 On ch=1 n=f6 v=70
48826 On ch=1 n=g6 v=0
48828 On ch=1 n=a4 v=51
48866 On ch=1 n=d5 v=0
48878 On ch=1 n=a4 v=0
48894 On ch=1 n=f6 v=0
48904 On ch=1 n=d4 v=0
48924 On ch=1 n=f5 v=46
48972 On ch=1 n=f5 v=0
49024 On ch=1 n=g3 v=80
49038 On ch=1 n=g6 v=87
49060 On ch=1 n=g3 v=0
49118 On ch=1 n=a6 v=66
49120 On ch=1 n=g6 v=0
49194 On ch=1 n=g6 v=70
49216 On ch=1 n=d5 v=63
49220 On ch=1 n=a#4 v=38
49230 On ch=1 n=a6 v=0
49258 On ch=1 n=d5 v=0
49260 On ch=1 n=g6 v=0
49282 On ch=1 n=a#4 v=0
49314 On ch=1 n=g5 v=44
49376 On ch=1 n=g5 v=0
49390 On ch=1 n=a#3 v=72
49416 On ch=1 n=d6 v=69
49444 On ch=1 n=a#3 v=0
49474 On ch=1 n=d6 v=0
49492 On ch=1 n=e6 v=43
49570 On ch=1 n=d6 v=61
49580 On ch=1 n=a#4 v=45
49583 On ch=1 n=d5 v=44
49622 On ch=1 n=e6 v=0
49636 On ch=1 n=a#4 v=0
49636 On ch=1 n=d5 v=0
49656 On ch=1 n=g5 v=55
49668 On ch=1 n=d6 v=0
49716 On ch=1 n=g5 v=0
49756 On ch=1 n=d4 v=60
49780 On ch=1 n=d6 v=46
49862 On ch=1 n=e6 v=42
49880 On ch=1 n=d6 v=0
49934 On ch=1 n=d5 v=46
49948 On ch=1 n=a4 v=39
49952 On ch=1 n=e6 v=0
49956 On ch=1 n=d6 v=68
50004 On ch=1 n=d6 v=0
50014 On ch=1 n=d5 v=0
50014 On ch=1 n=a4 v=0
50032 On ch=1 n=f5 v=44
50086 On ch=1 n=f5 v=0
50144 On ch=1 n=f6 v=66
50201 On ch=1 n=f6 v=0
50206 On ch=1 n=g6 v=69
50278 On ch=1 n=d5 v=46
50292 On ch=1 n=a4 v=48
50302 On ch=1 n=f6 v=52
50330 On ch=1 n=d5 v=0
50333 On ch=1 n=d4 v=0
50344 On ch=1 n=a4 v=0
50356 On ch=1 n=g6 v=0
50394 On ch=1 n=f6 v=0
50410 On ch=1 n=f5 v=42
50466 On ch=1 n=f5 v=0
50472 On ch=1 n=a3 v=70
50508 On ch=1 n=f6 v=44
50516 On ch=1 n=a3 v=0
50584 On ch=1 n=g6 v=68
50588 On ch=1 n=f6 v=0
50646 On ch=1 n=g6 v=0
50674 On ch=1 n=f6 v=54
50676 On ch=1 n=c5 v=68
50684 On ch=1 n=f4 v=88
50718 On ch=1 n=f6 v=0
50760 On ch=1 n=f5 v=63
50814 On ch=1 n=f5 v=0
50886 On ch=1 n=c5 v=0
50886 On ch=1 n=f#5 v=68
50958 On ch=1 n=f#5 v=0
50980 On ch=1 n=g5 v=79
51015 On ch=1 n=f4 v=0
51042 On ch=1 n=f#4 v=78
51054 On ch=1 n=f#5 v=61
51076 On ch=1 n=g5 v=0
51090 On ch=1 n=f#4 v=0
51134 On ch=1 n=c5 v=76
51160 On ch=1 n=f#5 v=0
51178 On ch=1 n=c5 v=0
51270 On ch=1 n=b3 v=80
51302 On ch=1 n=g6 v=99
51314 On ch=1 n=b3 v=0
51386 On ch=1 n=a6 v=70
51402 On ch=1 n=g6 v=0
51462 On ch=1 n=d5 v=87
51462 On ch=1 n=g4 v=89
51462 On ch=1 n=g6 v=95
51508 Par ch=1 c=64 v=127
51518 On ch=1 n=a6 v=0
51564 On ch=1 n=g6 v=0
51567 On ch=1 n=g5 v=79
51616 On ch=1 n=g5 v=0
51678 On ch=1 n=g#5 v=82
51718 On ch=1 n=d5 v=0
51754 Par ch=1 c=64 v=0
51756 On ch=1 n=a5 v=78
51780 On ch=1 n=g#5 v=0
51829 On ch=1 n=g4 v=0
51834 On ch=1 n=g#5 v=81
51846 On ch=1 n=g#4 v=73
51874 On ch=1 n=a5 v=0
51926 On ch=1 n=g#4 v=0
51926 On ch=1 n=d5 v=72
51946 On ch=1 n=g#5 v=0
51964 On ch=1 n=d5 v=0
52000 Par ch=1 c=64 v=127
52046 Par ch=1 c=64 v=0
52084 On ch=1 n=c4 v=83
52108 On ch=1 n=a6 v=94
52129 On ch=1 n=c4 v=0
52188 On ch=1 n=a#6 v=65
52204 On ch=1 n=a6 v=0
52278 On ch=1 n=d#5 v=81
52280 On ch=1 n=a6 v=67
52284 On ch=1 n=a4 v=61
52304 On ch=1 n=f#4 v=66
52352 On ch=1 n=a#6 v=0
52374 On ch=1 n=f#4 v=0
52374 On ch=1 n=c6 v=73
52384 On ch=1 n=a6 v=0
52400 Par ch=1 c=64 v=127
52403 On ch=1 n=a4 v=0
52430 On ch=1 n=c6 v=0
52448 On ch=1 n=d#5 v=0
52498 On ch=1 n=c7 v=84
52552 Par ch=1 c=64 v=0
52574 On ch=1 n=d7 v=68
52588 On ch=1 n=c7 v=0
52650 On ch=1 n=c7 v=88
52659 On ch=1 n=f#5 v=55
52670 On ch=1 n=a4 v=50
52673 On ch=1 n=d#5 v=57
52696 On ch=1 n=d7 v=0
52722 On ch=1 n=d#5 v=0
52732 On ch=1 n=a4 v=0
52732 On ch=1 n=c6 v=78
52738 On ch=1 n=c7 v=0
52758 On ch=1 n=f#5 v=0
52790 On ch=1 n=c6 v=0
52842 On ch=1 n=c7 v=70
52842 On ch=1 n=g5 v=87
52844 On ch=1 n=e5 v=84
52854 On ch=1 n=a#4 v=60
52906 Par ch=1 c=64 v=127
52922 On ch=1 n=d7 v=69
52944 On ch=1 n=e5 v=0
52946 On ch=1 n=g5 v=0
52950 On ch=1 n=c7 v=0
52986 On ch=1 n=a#4 v=0
53014 On ch=1 n=c7 v=90
53048 On ch=1 n=d7 v=0
53092 On ch=1 n=c7 v=0
53108 On ch=1 n=c6 v=75
53168 On ch=1 n=c6 v=0
53168 Par ch=1 c=64 v=0
53232 On ch=1 n=c5 v=63
53235 On ch=1 n=a#6 v=75
53242 On ch=1 n=e4 v=64
53254 On ch=1 n=c4 v=42
53334 On ch=1 n=a#6 v=0
53337 On ch=1 n=c6 v=69
53346 On ch=1 n=c5 v=0
53352 On ch=1 n=e4 v=0
53366 Par ch=1 c=64 v=127
53388 On ch=1 n=c6 v=0
53394 On ch=1 n=c4 v=0
53436 On ch=1 n=g6 v=71
53492 On ch=1 n=g6 v=0
53504 On ch=1 n=c6 v=53
53520 Par ch=1 c=64 v=0
53564 On ch=1 n=c6 v=0
53604 On ch=1 n=a3 v=64
53626 On ch=1 n=f6 v=61
53650 On ch=1 n=a3 v=0
53696 On ch=1 n=f6 v=0
53702 On ch=1 n=g6 v=64
53774 On ch=1 n=f6 v=54
53792 On ch=1 n=c5 v=59
53802 On ch=1 n=f4 v=81
53816 On ch=1 n=g6 v=0
53832 On ch=1 n=f6 v=0
53894 On ch=1 n=f5 v=54
53942 On ch=1 n=f5 v=0
54014 On ch=1 n=f#5 v=62
54032 On ch=1 n=c5 v=0
54100 On ch=1 n=f4 v=0
54102 On ch=1 n=g5 v=78
54110 On ch=1 n=f#5 v=0
54180 On ch=1 n=f#5 v=60
54194 On ch=1 n=f#4 v=75
54218 On ch=1 n=g5 v=0
54258 On ch=1 n=f#4 v=0
54266 On ch=1 n=d5 v=68
54280 On ch=1 n=f#5 v=0
54308 On ch=1 n=d5 v=0
54402 On ch=1 n=b3 v=74
54414 On ch=1 n=g6 v=94
54444 On ch=1 n=b3 v=0
54486 On ch=1 n=a6 v=71
54514 On ch=1 n=g6 v=0
54576 On ch=1 n=g6 v=92
54590 On ch=1 n=g4 v=87
54593 On ch=1 n=d5 v=85
54638 On ch=1 n=a6 v=0
54666 On ch=1 n=g6 v=0
54690 On ch=1 n=g5 v=76
54752 On ch=1 n=g5 v=0
54800 On ch=1 n=g#5 v=84
54864 On ch=1 n=d5 v=0
54888 On ch=1 n=a5 v=75
54900 On ch=1 n=g#5 v=0
54952 On ch=1 n=g4 v=0
54954 On ch=1 n=g#5 v=77
54968 On ch=1 n=g#4 v=74
55006 On ch=1 n=a5 v=0
55044 On ch=1 n=g#4 v=0
55050 On ch=1 n=e5 v=74
55078 On ch=1 n=g#5 v=0
55090 On ch=1 n=e5 v=0
55162 On ch=1 n=c4 v=83
55204 On ch=1 n=c4 v=0
55208 On ch=1 n=a6 v=98
55302 On ch=1 n=a#6 v=72
55312 On ch=1 n=a6 v=0
55364 Par ch=1 c=64 v=127
55382 On ch=1 n=a6 v=63
55382 On ch=1 n=f#4 v=67
55384 On ch=1 n=a4 v=63
55385 On ch=1 n=d#5 v=90
55432 On ch=1 n=f#4 v=0
55474 On ch=1 n=a#6 v=0
55474 On ch=1 n=a4 v=0
55486 On ch=1 n=c6 v=78
55508 On ch=1 n=a6 v=0
55518 On ch=1 n=d#5 v=0
55532 On ch=1 n=c6 v=0
55606 On ch=1 n=c7 v=88
55692 On ch=1 n=d7 v=76
55707 On ch=1 n=c7 v=0
55718 Par ch=1 c=64 v=0
55760 On ch=1 n=f#5 v=66
55770 On ch=1 n=c7 v=92
55770 On ch=1 n=d#5 v=57
55772 On ch=1 n=a4 v=48
55816 On ch=1 n=d7 v=0
55820 On ch=1 n=d#5 v=0
55826 On ch=1 n=a4 v=0
55840 On ch=1 n=f#5 v=0
55854 On ch=1 n=c7 v=0
55854 On ch=1 n=c6 v=76
55908 On ch=1 n=c6 v=0
55956 On ch=1 n=g5 v=89
55962 On ch=1 n=e5 v=90
55970 On ch=1 n=c7 v=82
55972 On ch=1 n=a#4 v=63
56010 Par ch=1 c=64 v=127
56030 On ch=1 n=e5 v=0
56034 On ch=1 n=g5 v=0
56040 On ch=1 n=d7 v=75
56080 On ch=1 n=c7 v=0
56098 On ch=1 n=a#4 v=0
56138 On ch=1 n=c7 v=91
56154 On ch=1 n=d7 v=0
56224 Par ch=1 c=64 v=0
56236 On ch=1 n=c6 v=68
56238 On ch=1 n=c7 v=0
56290 On ch=1 n=c6 v=0
56341 On ch=1 n=c5 v=83
56343 On ch=1 n=c4 v=74
56345 On ch=1 n=a#6 v=87
56357 On ch=1 n=e4 v=80
56385 On ch=1 n=c5 v=0
56395 On ch=1 n=e4 v=0
56408 Par ch=1 c=64 v=127
56432 On ch=1 n=c6 v=73
56464 On ch=1 n=a#6 v=0
56465 On ch=1 n=c4 v=0
56482 On ch=1 n=c6 v=0
56486 Par ch=1 c=64 v=0
56528 On ch=1 n=g6 v=78
56548 On ch=1 n=f3 v=81
56586 On ch=1 n=c6 v=64
56606 On ch=1 n=g6 v=0
56620 On ch=1 n=c4 v=61
56644 On ch=1 n=f3 v=0
56652 On ch=1 n=c6 v=0
56680 On ch=1 n=c4 v=0
56680 On ch=1 n=a4 v=94
56706 On ch=1 n=f6 v=94
56718 On ch=1 n=a4 v=0
56732 Par ch=1 c=64 v=127
56784 On ch=1 n=g6 v=92
56802 On ch=1 n=f6 v=0
56860 On ch=1 n=f6 v=81
56954 On ch=1 n=g6 v=0
56962 On ch=1 n=c6 v=66
56994 On ch=1 n=f6 v=0
57004 On ch=1 n=c6 v=0
57040 Par ch=1 c=64 v=0
57043 On ch=1 n=a5 v=61
57122 On ch=1 n=a#5 v=77
57140 On ch=1 n=a5 v=0
57220 On ch=1 n=a5 v=55
57222 On ch=1 n=a#5 v=0
57298 On ch=1 n=f5 v=68
57336 On ch=1 n=f5 v=0
57340 On ch=1 n=a5 v=0
57404 On ch=1 n=c5 v=95
57494 On ch=1 n=d5 v=77
57504 On ch=1 n=c5 v=0
57572 On ch=1 n=c5 v=75
57618 On ch=1 n=d5 v=0
57660 On ch=1 n=a4 v=68
57682 On ch=1 n=c5 v=0
57706 On ch=1 n=a4 v=0
57760 On ch=1 n=f4 v=104
57840 On ch=1 n=g4 v=90
57852 On ch=1 n=f4 v=0
57908 On ch=1 n=g4 v=0
57932 On ch=1 n=f4 v=88
57996 On ch=1 n=c4 v=65
58038 On ch=1 n=f4 v=0
58040 On ch=1 n=c4 v=0
58108 On ch=1 n=a3 v=97
58188 On ch=1 n=a#3 v=78
58218 On ch=1 n=a3 v=0
58276 On ch=1 n=a3 v=61
58352 On ch=1 n=a#3 v=0
58364 On ch=1 n=f3 v=79
58388 On ch=1 n=a3 v=0
58410 On ch=1 n=f3 v=0
58468 On ch=1 n=c3 v=91
58546 On ch=1 n=c3 v=0
58546 On ch=1 n=d3 v=78
58620 On ch=1 n=c3 v=78
58624 On ch=1 n=d3 v=0
58724 On ch=1 n=a2 v=81
58726 On ch=1 n=c3 v=0
58788 On ch=1 n=a2 v=0
58840 On ch=1 n=f2 v=106
59200 On ch=1 n=f2 v=0
59206 Par ch=1 c=64 v=127
59230 On ch=1 n=f3 v=95
59318 On ch=1 n=f3 v=0
59452 Par ch=1 c=64 v=0
59998 On ch=1 n=c#4 v=38
60002 On ch=1 n=f3 v=33
60320 Par ch=1 c=64 v=127
60474 On ch=1 n=c#5 v=40
60478 On ch=1 n=g#4 v=26
60480 On ch=1 n=f4 v=45
60480 On ch=1 n=g#3 v=25
60568 On ch=1 n=f4 v=0
60570 On ch=1 n=f3 v=0
60716 On ch=1 n=g#4 v=0
60782 On ch=1 n=g#3 v=0
60926 On ch=1 n=a#4 v=39
60932 On ch=1 n=f#4 v=42
60934 Par ch=1 c=64 v=0
60938 On ch=1 n=f#3 v=16
61004 On ch=1 n=c#5 v=0
61120 On ch=1 n=c#4 v=0
61164 Par ch=1 c=64 v=127
61330 On ch=1 n=f#3 v=0
61364 Par ch=1 c=64 v=0
61384 On ch=1 n=f#4 v=0
61404 On ch=1 n=c#5 v=36
61418 On ch=1 n=a#4 v=0
61418 On ch=1 n=g#4 v=25
61426 On ch=1 n=c#4 v=23
61428 On ch=1 n=f4 v=55
61429 On ch=1 n=f3 v=13
61618 On ch=1 n=c#4 v=0
61638 On ch=1 n=f3 v=0
61640 Par ch=1 c=64 v=127
61646 On ch=1 n=f4 v=0
61670 On ch=1 n=c#5 v=0
61710 On ch=1 n=g#4 v=0
61840 On ch=1 n=c#4 v=62
61844 On ch=1 n=f3 v=27
62178 On ch=1 n=c#4 v=0
62268 On ch=1 n=f3 v=0
62292 On ch=1 n=c#5 v=65
62303 On ch=1 n=g#4 v=17
62312 On ch=1 n=f4 v=13
62313 On ch=1 n=g#3 v=26
62408 On ch=1 n=f4 v=0
62535 On ch=1 n=g#4 v=0
62603 On ch=1 n=g#3 v=0
62758 On ch=1 n=a#4 v=41
62772 On ch=1 n=f#3 v=19
62774 On ch=1 n=f#4 v=34
62776 On ch=1 n=c#4 v=15
62828 On ch=1 n=c#5 v=0
62838 Par ch=1 c=64 v=0
63054 Par ch=1 c=64 v=127
63086 On ch=1 n=c#4 v=0
63142 On ch=1 n=f#3 v=0
63154 On ch=1 n=f#4 v=0
63260 On ch=1 n=c#5 v=34
63266 On ch=1 n=a#4 v=0
63268 Par ch=1 c=64 v=0
63282 On ch=1 n=f4 v=33
63282 On ch=1 n=g#4 v=20
63288 On ch=1 n=f3 v=28
63440 On ch=1 n=f3 v=0
63448 On ch=1 n=f4 v=0
63516 Par ch=1 c=64 v=127
63532 On ch=1 n=g#4 v=0
63578 On ch=1 n=c#5 v=0
63742 On ch=1 n=a#4 v=35
63758 On ch=1 n=c#4 v=29
63758 On ch=1 n=f#3 v=24
63900 Par ch=1 c=64 v=0
64078 On ch=1 n=c#4 v=0
64098 Par ch=1 c=64 v=127
64188 On ch=1 n=c5 v=52
64198 On ch=1 n=g#3 v=34
64202 On ch=1 n=f#4 v=40
64248 On ch=1 n=f#3 v=0
64272 On ch=1 n=a#4 v=0
64376 Par ch=1 c=64 v=0
64528 Par ch=1 c=64 v=127
64586 On ch=1 n=f#4 v=0
64592 On ch=1 n=c#5 v=75
64602 On ch=1 n=a#3 v=37
64618 On ch=1 n=c5 v=0
64620 On ch=1 n=f4 v=72
64682 On ch=1 n=g#3 v=0
64806 Par ch=1 c=64 v=0
64958 Par ch=1 c=64 v=127
64962 On ch=1 n=f4 v=0
64998 On ch=1 n=d#5 v=78
65012 On ch=1 n=g#4 v=51
65015 On ch=1 n=c4 v=44
65018 On ch=1 n=c#5 v=0
65032 On ch=1 n=a#3 v=0
65160 Par ch=1 c=64 v=0
65282 Par ch=1 c=64 v=127
65426 On ch=1 n=c#4 v=51
65430 On ch=1 n=f5 v=76
65432 On ch=1 n=c4 v=0
65482 On ch=1 n=d#5 v=0
65590 Par ch=1 c=64 v=0
65726 On ch=1 n=g#4 v=0
65758 Par ch=1 c=64 v=127
65818 On ch=1 n=g5 v=69
65832 On ch=1 n=c#5 v=52
65836 On ch=1 n=c#4 v=0
65836 On ch=1 n=a#3 v=35
65836 On ch=1 n=e4 v=50
65844 On ch=1 n=f5 v=0
65896 Par ch=1 c=64 v=0
66034 Par ch=1 c=64 v=127
66203 On ch=1 n=e4 v=0
66250 On ch=1 n=a#5 v=46
66252 On ch=1 n=g5 v=0
66260 On ch=1 n=a#3 v=0
66266 Par ch=1 c=64 v=0
66274 On ch=1 n=c#4 v=30
66282 On ch=1 n=c#5 v=0
66288 On ch=1 n=e5 v=35
66314 On ch=1 n=g3 v=26
66542 Par ch=1 c=64 v=127
66684 On ch=1 n=e5 v=0
66726 On ch=1 n=g#5 v=39
66726 Par ch=1 c=64 v=0
66729 On ch=1 n=c4 v=20
66729 On ch=1 n=g#3 v=26
66733 On ch=1 n=d#5 v=23
66736 On ch=1 n=g3 v=0
66766 On ch=1 n=c#4 v=0
66786 On ch=1 n=a#5 v=0
66988 Par ch=1 c=64 v=127
67020 On ch=1 n=d#5 v=0
67056 On ch=1 n=g#5 v=0
67070 On ch=1 n=g#3 v=0
67098 On ch=1 n=c4 v=0
67168 On ch=1 n=c#6 v=70
67356 Par ch=1 c=64 v=0
67540 Par ch=1 c=64 v=127
67578 On ch=1 n=c#5 v=38
67584 On ch=1 n=e4 v=35
67588 On ch=1 n=g5 v=57
67593 On ch=1 n=a#3 v=26
67664 On ch=1 n=c#6 v=0
67740 Par ch=1 c=64 v=0
67926 Par ch=1 c=64 v=127
67936 On ch=1 n=e4 v=0
67954 On ch=1 n=c#5 v=0
68026 On ch=1 n=c#4 v=30
68029 On ch=1 n=a#5 v=39
68036 On ch=1 n=e5 v=28
68036 On ch=1 n=g3 v=30
68050 On ch=1 n=a#3 v=0
68078 Par ch=1 c=64 v=0
68134 On ch=1 n=g5 v=0
68370 Par ch=1 c=64 v=127
68450 On ch=1 n=e5 v=0
68480 On ch=1 n=c#4 v=0
68488 On ch=1 n=g3 v=0
68490 On ch=1 n=g#5 v=32
68502 On ch=1 n=d#5 v=22
68505 On ch=1 n=g#3 v=25
68508 Par ch=1 c=64 v=0
68511 On ch=1 n=c4 v=23
68560 On ch=1 n=a#5 v=0
68728 On ch=1 n=c4 v=0
68740 Par ch=1 c=64 v=127
68804 On ch=1 n=g#3 v=0
68958 On ch=1 n=f#5 v=38
68974 On ch=1 n=c5 v=31
68974 On ch=1 n=d#4 v=26
68978 On ch=1 n=a3 v=21
69032 On ch=1 n=g#5 v=0
69040 On ch=1 n=d#5 v=0
69094 Par ch=1 c=64 v=0
69308 Par ch=1 c=64 v=127
69383 On ch=1 n=a3 v=0
69388 On ch=1 n=d#4 v=0
69398 On ch=1 n=f5 v=56
69400 On ch=1 n=c#5 v=44
69408 On ch=1 n=c5 v=0
69424 On ch=1 n=a#3 v=30
69424 On ch=1 n=c#4 v=30
69446 Par ch=1 c=64 v=0
69472 On ch=1 n=f#5 v=0
69620 On ch=1 n=f5 v=0
69630 Par ch=1 c=64 v=127
69662 On ch=1 n=a#3 v=0
69682 On ch=1 n=c#5 v=0
69686 On ch=1 n=c#4 v=0
69853 On ch=1 n=f#4 v=29
69854 On ch=1 n=a4 v=30
69858 On ch=1 n=d#5 v=31
69859 On ch=1 n=c4 v=19
69984 Par ch=1 c=64 v=0
70168 Par ch=1 c=64 v=127
70205 On ch=1 n=f#4 v=0
70221 On ch=1 n=c4 v=0
70228 On ch=1 n=a4 v=0
70300 On ch=1 n=c#5 v=35
70301 On ch=1 n=f4 v=39
70302 On ch=1 n=d#5 v=0
70304 On ch=1 n=a#4 v=31
70308 On ch=1 n=c#4 v=19
70322 Par ch=1 c=64 v=0
70461 On ch=1 n=f4 v=0
70506 On ch=1 n=c#4 v=0
70506 Par ch=1 c=64 v=127
70532 On ch=1 n=c#5 v=0
70567 On ch=1 n=a#4 v=0
70798 On ch=1 n=c5 v=60
70804 On ch=1 n=f#4 v=51
70808 On ch=1 n=a4 v=26
70816 On ch=1 n=d#4 v=30
71226 On ch=1 n=f#4 v=0
71228 On ch=1 n=a4 v=0
71248 On ch=1 n=d#4 v=0
71248 On ch=1 n=c#5 v=56
71258 On ch=1 n=a#3 v=22
71268 On ch=1 n=e4 v=37
71272 On ch=1 n=g4 v=37
71306 Par ch=1 c=64 v=0
71312 On ch=1 n=c5 v=0
71450 On ch=1 n=e4 v=0
71460 On ch=1 n=g4 v=0
71474 On ch=1 n=a#3 v=0
71490 Par ch=1 c=64 v=127
71524 On ch=1 n=c#5 v=0
71716 On ch=1 n=c5 v=51
71716 On ch=1 n=f#4 v=38
71724 On ch=1 n=d#4 v=30
71730 On ch=1 n=a4 v=18
71858 Par ch=1 c=64 v=0
72042 Par ch=1 c=64 v=127
72064 On ch=1 n=a4 v=0
72072 On ch=1 n=f#4 v=0
72134 Par ch=1 c=64 v=0
72164 On ch=1 n=c#5 v=35
72178 On ch=1 n=a#3 v=20
72181 On ch=1 n=g4 v=28
72186 On ch=1 n=e4 v=28
72202 On ch=1 n=c5 v=0
72216 On ch=1 n=d#4 v=0
72366 Par ch=1 c=64 v=127
72369 On ch=1 n=g4 v=0
72398 On ch=1 n=e4 v=0
72422 On ch=1 n=a#3 v=0
72480 On ch=1 n=c#5 v=0
72618 On ch=1 n=g#4 v=29
72624 On ch=1 n=b4 v=43
72636 On ch=1 n=f4 v=49
72650 On ch=1 n=d4 v=28
72656 Par ch=1 c=64 v=0
72872 Par ch=1 c=64 v=127
72922 On ch=1 n=f4 v=0
73088 On ch=1 n=d4 v=0
73126 On ch=1 n=f#4 v=30
73146 On ch=1 n=g#3 v=19
73149 Par ch=1 c=64 v=0
73152 On ch=1 n=c5 v=37
73156 On ch=1 n=d#4 v=18
73160 On ch=1 n=b4 v=0
73440 Par ch=1 c=64 v=127
73702 On ch=1 n=c#5 v=26
73714 On ch=1 n=g#3 v=0
73730 On ch=1 n=c#4 v=27
73733 Par ch=1 c=64 v=0
73748 On ch=1 n=d#4 v=0
73788 On ch=1 n=c5 v=0
74118 Par ch=1 c=64 v=127
74284 On ch=1 n=f#4 v=0
74332 Par ch=1 c=64 v=0
74336 On ch=1 n=f4 v=25
74532 Par ch=1 c=64 v=127
74534 On ch=1 n=f4 v=0
74538 On ch=1 n=c#4 v=0
74566 On ch=1 n=g#4 v=0
74578 On ch=1 n=c#5 v=0
74982 On ch=1 n=e5 v=47
74992 On ch=1 n=g#4 v=18
74992 On ch=1 n=b4 v=23
75006 On ch=1 n=d4 v=20
75436 On ch=1 n=d4 v=0
75446 On ch=1 n=b4 v=0
75456 On ch=1 n=f5 v=51
75466 On ch=1 n=c#5 v=34
75480 On ch=1 n=c#4 v=29
75500 Par ch=1 c=64 v=0
75518 On ch=1 n=e5 v=0
75700 Par ch=1 c=64 v=127
75740 On ch=1 n=c#5 v=0
75748 On ch=1 n=f5 v=0
75788 On ch=1 n=c#4 v=0
75902 On ch=1 n=e5 v=73
75918 On ch=1 n=b4 v=47
75928 On ch=1 n=d4 v=34
76114 Par ch=1 c=64 v=0
76298 Par ch=1 c=64 v=127
76324 On ch=1 n=d4 v=0
76344 On ch=1 n=b4 v=0
76347 On ch=1 n=f5 v=72
76356 On ch=1 n=c#5 v=55
76362 On ch=1 n=c#4 v=44
76402 On ch=1 n=e5 v=0
76406 Par ch=1 c=64 v=0
76558 On ch=1 n=g#4 v=0
76561 Par ch=1 c=64 v=127
76576 On ch=1 n=c#4 v=0
76604 On ch=1 n=f5 v=0
76658 On ch=1 n=c#5 v=0
76830 On ch=1 n=g#5 v=55
76834 On ch=1 n=b3 v=24
76836 On ch=1 n=f4 v=26
76838 On ch=1 n=d5 v=28
76990 Par ch=1 c=64 v=0
77190 Par ch=1 c=64 v=127
77250 On ch=1 n=b3 v=0
77276 On ch=1 n=f4 v=0
77286 On ch=1 n=d5 v=0
77324 On ch=1 n=a#3 v=24
77326 On ch=1 n=f#5 v=44
77328 On ch=1 n=c#4 v=23
77329 On ch=1 n=c#5 v=28
77426 On ch=1 n=g#5 v=0
77452 Par ch=1 c=64 v=0
77604 Par ch=1 c=64 v=127
77720 On ch=1 n=c#4 v=0
77766 On ch=1 n=a#3 v=0
77770 On ch=1 n=f#5 v=0
77786 On ch=1 n=g#3 v=31
77786 On ch=1 n=f5 v=25
77790 On ch=1 n=d4 v=17
77790 On ch=1 n=b4 v=16
77864 On ch=1 n=c#5 v=0
77866 Par ch=1 c=64 v=0
78066 Par ch=1 c=64 v=127
78152 On ch=1 n=g#3 v=0
78166 On ch=1 n=b4 v=0
78234 On ch=1 n=d4 v=0
78254 On ch=1 n=a#4 v=15
78255 On ch=1 n=f5 v=0
78256 On ch=1 n=d#5 v=31
78256 On ch=1 n=f#3 v=10
78262 On ch=1 n=a#3 v=20
78280 Par ch=1 c=64 v=0
78436 On ch=1 n=a#3 v=0
78482 Par ch=1 c=64 v=127
78530 On ch=1 n=f#3 v=0
78538 On ch=1 n=a#4 v=0
78542 On ch=1 n=d#5 v=0
78790 On ch=1 n=c#5 v=46
78794 On ch=1 n=f3 v=19
78804 On ch=1 n=g#4 v=20
78812 On ch=1 n=b3 v=21
79018 Par ch=1 c=64 v=0
79172 Par ch=1 c=64 v=127
79222 On ch=1 n=f3 v=0
79228 On ch=1 n=b3 v=0
79248 On ch=1 n=g#3 v=37
79254 On ch=1 n=g#4 v=0
79256 On ch=1 n=d5 v=51
79262 On ch=1 n=e3 v=46
79266 On ch=1 n=b4 v=28
79326 On ch=1 n=c#5 v=0
79372 Par ch=1 c=64 v=0
79526 On ch=1 n=b4 v=0
79540 Par ch=1 c=64 v=127
79545 On ch=1 n=g#3 v=0
79612 On ch=1 n=d5 v=0
79646 On ch=1 n=e3 v=0
79684 On ch=1 n=c#5 v=56
79692 On ch=1 n=f3 v=50
79700 On ch=1 n=g#4 v=25
79710 On ch=1 n=b3 v=27
79832 Par ch=1 c=64 v=0
80032 Par ch=1 c=64 v=127
80070 On ch=1 n=b3 v=0
80106 On ch=1 n=f3 v=0
80114 On ch=1 n=g#4 v=0
80134 On ch=1 n=c#3 v=45
80140 On ch=1 n=d#5 v=56
80140 On ch=1 n=g#3 v=23
80145 On ch=1 n=b4 v=20
80172 Par ch=1 c=64 v=0
80182 On ch=1 n=c#5 v=0
80280 On ch=1 n=g#3 v=0
80340 On ch=1 n=b4 v=0
80370 Par ch=1 c=64 v=127
80442 On ch=1 n=d#5 v=0
80564 On ch=1 n=c#3 v=0
80598 On ch=1 n=c#5 v=45
80610 On ch=1 n=f3 v=32
80612 On ch=1 n=g#4 v=32
80614 On ch=1 n=b3 v=26
80678 Par ch=1 c=64 v=0
80828 On ch=1 n=b3 v=0
80894 Par ch=1 c=64 v=127
81046 On ch=1 n=f3 v=0
81094 On ch=1 n=b4 v=40
81094 On ch=1 n=f4 v=40
81098 On ch=1 n=g#3 v=35
81101 On ch=1 n=c#4 v=20
81216 Par ch=1 c=64 v=0
81240 On ch=1 n=g#4 v=0
81264 On ch=1 n=c#5 v=0
81446 Par ch=1 c=64 v=127
81584 On ch=1 n=f4 v=0
81658 On ch=1 n=a#4 v=32
81661 On ch=1 n=g#3 v=0
81672 On ch=1 n=f#4 v=36
81676 On ch=1 n=f#3 v=22
81724 Par ch=1 c=64 v=0
81762 On ch=1 n=b4 v=0
82106 Par ch=1 c=64 v=127
82308 On ch=1 n=c#4 v=0
82336 On ch=1 n=e4 v=31
82450 On ch=1 n=f#3 v=0
82476 On ch=1 n=f#4 v=0
82502 On ch=1 n=a#4 v=0
82592 On ch=1 n=e4 v=0
82948 On ch=1 n=b5 v=65
82958 On ch=1 n=f#5 v=29
82958 On ch=1 n=b4 v=16
82962 On ch=1 n=d#4 v=20
83136 Par ch=1 c=64 v=0
83304 Par ch=1 c=64 v=127
83412 On ch=1 n=b4 v=0
83436 On ch=1 n=a#5 v=67
83456 On ch=1 n=c#5 v=35
83456 On ch=1 n=f#4 v=33
83470 On ch=1 n=d#4 v=0
83476 On ch=1 n=c#4 v=28
83514 On ch=1 n=b5 v=0
83520 On ch=1 n=f#5 v=0
83520 Par ch=1 c=64 v=0
83682 On ch=1 n=c#5 v=0
83690 Par ch=1 c=64 v=127
83828 On ch=1 n=a#5 v=0
83850 On ch=1 n=c#4 v=0
83864 On ch=1 n=f#4 v=0
83906 On ch=1 n=d#6 v=70
83908 On ch=1 n=f#5 v=22
83926 On ch=1 n=b4 v=31
83934 On ch=1 n=b3 v=29
83966 Par ch=1 c=64 v=0
84150 Par ch=1 c=64 v=127
84216 On ch=1 n=d#6 v=0
84238 On ch=1 n=b4 v=0
84346 On ch=1 n=b3 v=0
84400 On ch=1 n=c#5 v=32
84406 On ch=1 n=c#6 v=42
84409 On ch=1 n=a#3 v=26
84422 On ch=1 n=f#4 v=12
84444 On ch=1 n=f#5 v=0
84458 Par ch=1 c=64 v=0
84574 On ch=1 n=c#5 v=0
84642 Par ch=1 c=64 v=127
84646 On ch=1 n=a#3 v=0
84650 On ch=1 n=f#4 v=0
84686 On ch=1 n=c#6 v=0
84892 On ch=1 n=b5 v=58
84914 On ch=1 n=d#4 v=26
84914 On ch=1 n=b4 v=31
84917 On ch=1 n=f#5 v=18
85026 Par ch=1 c=64 v=0
85210 Par ch=1 c=64 v=127
85338 On ch=1 n=a#5 v=51
85346 On ch=1 n=b4 v=0
85358 On ch=1 n=c#4 v=41
85360 On ch=1 n=c#5 v=34
85364 On ch=1 n=f#4 v=47
85380 Par ch=1 c=64 v=0
85384 On ch=1 n=b5 v=0
85384 On ch=1 n=f#5 v=0
85404 On ch=1 n=d#4 v=0
85574 On ch=1 n=c#5 v=0
85594 Par ch=1 c=64 v=127
85698 On ch=1 n=f#4 v=0
85814 On ch=1 n=a#5 v=0
85814 On ch=1 n=d#6 v=52
85817 On ch=1 n=c#4 v=0
85826 Par ch=1 c=64 v=0
85848 On ch=1 n=f#5 v=16
85858 On ch=1 n=b3 v=31
85864 On ch=1 n=b4 v=19
86056 Par ch=1 c=64 v=127
86132 On ch=1 n=d#6 v=0
86140 On ch=1 n=b4 v=0
86328 On ch=1 n=c#6 v=39
86336 On ch=1 n=b3 v=0
86350 On ch=1 n=c#5 v=19
86360 On ch=1 n=a#3 v=25
86363 Par ch=1 c=64 v=0
86378 On ch=1 n=f#4 v=7
86402 On ch=1 n=f#5 v=0
86582 On ch=1 n=a#3 v=0
86585 On ch=1 n=c#5 v=0
86592 Par ch=1 c=64 v=127
86606 On ch=1 n=f#4 v=0
86632 On ch=1 n=c#6 v=0
86892 On ch=1 n=b5 v=51
86894 On ch=1 n=f#5 v=18
86900 On ch=1 n=b4 v=16
86900 On ch=1 n=d#4 v=16
87024 Par ch=1 c=64 v=0
87224 Par ch=1 c=64 v=127
87346 On ch=1 n=b4 v=0
87358 On ch=1 n=d#4 v=0
87360 On ch=1 n=a#5 v=50
87376 On ch=1 n=c#5 v=33
87382 On ch=1 n=f#4 v=26
87384 On ch=1 n=c#4 v=19
87396 On ch=1 n=b5 v=0
87424 Par ch=1 c=64 v=0
87430 On ch=1 n=f#5 v=0
87622 Par ch=1 c=64 v=127
87684 On ch=1 n=c#5 v=0
87772 On ch=1 n=f#4 v=0
87802 On ch=1 n=c#4 v=0
87812 On ch=1 n=g#5 v=51
87822 On ch=1 n=d5 v=30
87823 On ch=1 n=b3 v=22
87832 On ch=1 n=f4 v=45
87870 On ch=1 n=a#5 v=0
87946 Par ch=1 c=64 v=0
88146 Par ch=1 c=64 v=127
88222 On ch=1 n=b3 v=0
88244 On ch=1 n=d5 v=0
88274 On ch=1 n=a#5 v=53
88276 On ch=1 n=f4 v=0
88290 On ch=1 n=d#5 v=38
88290 On ch=1 n=c4 v=19
88292 On ch=1 n=d#4 v=30
88330 Par ch=1 c=64 v=0
88350 On ch=1 n=g#5 v=0
88544 Par ch=1 c=64 v=127
88594 On ch=1 n=c4 v=0
88632 On ch=1 n=d#5 v=0
88716 On ch=1 n=d#4 v=0
88774 On ch=1 n=c5 v=12
88776 On ch=1 n=g#5 v=41
88784 On ch=1 n=g#3 v=33
88788 On ch=1 n=f4 v=39
88806 Par ch=1 c=64 v=0
88842 On ch=1 n=a#5 v=0
89036 Par ch=1 c=64 v=127
89176 On ch=1 n=f4 v=0
89211 On ch=1 n=c5 v=0
89236 Par ch=1 c=64 v=0
89258 On ch=1 n=f#5 v=35
89258 On ch=1 n=d#5 v=29
89278 On ch=1 n=c4 v=15
89282 On ch=1 n=d#4 v=18
89312 On ch=1 n=g#5 v=0
89358 On ch=1 n=g#3 v=0
89514 Par ch=1 c=64 v=127
89592 On ch=1 n=c4 v=0
89721 On ch=1 n=d#4 v=0
89748 On ch=1 n=d#5 v=0
89820 On ch=1 n=c#5 v=18
89820 On ch=1 n=g#4 v=10
89823 On ch=1 n=f5 v=25
89824 On ch=1 n=c#4 v=15
89868 Par ch=1 c=64 v=0
89998 On ch=1 n=f#5 v=0
90204 Par ch=1 c=64 v=127
90388 Par ch=1 c=64 v=0
90492 On ch=1 n=b4 v=13
90514 On ch=1 n=c#5 v=0
90634 Par ch=1 c=64 v=127
90652 On ch=1 n=c#4 v=0
90672 On ch=1 n=b4 v=0
90707 On ch=1 n=g#4 v=0
90724 On ch=1 n=f5 v=0
91080 Par ch=1 c=64 v=0
91126 On ch=1 n=f#3 v=28
91126 On ch=1 n=f#6 v=44
91186 On ch=1 n=f#6 v=0
91190 On ch=1 n=f#3 v=0
91212 On ch=1 n=g#6 v=42
91218 Par ch=1 c=64 v=127
91286 On ch=1 n=g#6 v=0
91298 On ch=1 n=f#6 v=25
91370 On ch=1 n=f#6 v=0
91432 On ch=1 n=f#5 v=31
91504 On ch=1 n=a#4 v=38
91506 On ch=1 n=c#5 v=43
91510 On ch=1 n=c#4 v=52
91512 On ch=1 n=f#4 v=33
91522 On ch=1 n=f#5 v=0
91526 On ch=1 n=c#6 v=47
91526 Par ch=1 c=64 v=0
91556 On ch=1 n=c#4 v=0
91562 On ch=1 n=c#5 v=0
91566 On ch=1 n=a#4 v=0
91586 On ch=1 n=f#4 v=0
91590 On ch=1 n=c#6 v=0
91626 On ch=1 n=d#6 v=45
91704 On ch=1 n=d#6 v=0
91736 On ch=1 n=c#6 v=34
91794 On ch=1 n=f#4 v=30
91800 On ch=1 n=c#5 v=49
91806 On ch=1 n=a#4 v=35
91806 On ch=1 n=c#4 v=47
91812 On ch=1 n=c#6 v=0
91824 On ch=1 n=f#5 v=35
91858 On ch=1 n=c#5 v=0
91872 On ch=1 n=c#4 v=0
91878 On ch=1 n=a#4 v=0
91900 On ch=1 n=f#4 v=0
91902 On ch=1 n=d#6 v=59
91942 On ch=1 n=c#4 v=6
91945 On ch=1 n=c#5 v=18
91950 On ch=1 n=f#4 v=30
91956 On ch=1 n=f#5 v=0
91956 On ch=1 n=a#4 v=12
91986 Par ch=1 c=64 v=127
92006 On ch=1 n=f6 v=52
92016 On ch=1 n=c#5 v=0
92024 On ch=1 n=d#6 v=0
92070 On ch=1 n=f6 v=0
92088 On ch=1 n=a#4 v=0
92096 On ch=1 n=d#6 v=61
92106 On ch=1 n=f#4 v=0
92132 On ch=1 n=c#4 v=0
92150 On ch=1 n=d#6 v=0
92172 On ch=1 n=f#5 v=38
92250 On ch=1 n=f#5 v=0
92266 On ch=1 n=f6 v=79
92276 On ch=1 n=f#3 v=52
92278 Par ch=1 c=64 v=0
92304 On ch=1 n=c#4 v=33
92332 On ch=1 n=f#3 v=0
92348 On ch=1 n=f#6 v=73
92372 On ch=1 n=c#4 v=0
92380 On ch=1 n=f6 v=0
92446 On ch=1 n=f6 v=80
92474 On ch=1 n=f#6 v=0
92522 On ch=1 n=c#4 v=71
92532 On ch=1 n=f#5 v=62
92536 On ch=1 n=f6 v=0
92538 On ch=1 n=f#3 v=53
92562 On ch=1 n=c#4 v=0
92582 On ch=1 n=f#3 v=0
92604 On ch=1 n=f#5 v=0
92624 On ch=1 n=f#6 v=82
92640 On ch=1 n=f#3 v=68
92646 On ch=1 n=c#4 v=49
92704 On ch=1 n=c#4 v=0
92710 On ch=1 n=g#6 v=73
92714 On ch=1 n=f#3 v=0
92740 Par ch=1 c=64 v=127
92742 On ch=1 n=f#6 v=0
92800 On ch=1 n=f#6 v=72
92832 On ch=1 n=g#6 v=0
92890 On ch=1 n=f#5 v=60
92930 On ch=1 n=f#6 v=0
92948 On ch=1 n=f#5 v=0
92994 On ch=1 n=c#5 v=51
93006 On ch=1 n=c#4 v=39
93009 On ch=1 n=g#6 v=86
93014 On ch=1 n=a#4 v=29
93016 Par ch=1 c=64 v=0
93018 On ch=1 n=f#4 v=48
93048 On ch=1 n=c#5 v=0
93066 On ch=1 n=c#4 v=0
93069 On ch=1 n=f#4 v=0
93080 On ch=1 n=a#4 v=0
93090 On ch=1 n=a#6 v=68
93106 On ch=1 n=g#6 v=0
93180 On ch=1 n=g#6 v=62
93220 On ch=1 n=a#6 v=0
93290 On ch=1 n=g#6 v=0
93290 On ch=1 n=c#4 v=52
93293 On ch=1 n=a#4 v=35
93293 On ch=1 n=f#5 v=67
93300 On ch=1 n=f#4 v=45
93310 On ch=1 n=c#5 v=17
93338 On ch=1 n=f#5 v=0
93342 On ch=1 n=c#4 v=0
93354 On ch=1 n=f#4 v=0
93360 On ch=1 n=a#4 v=0
93366 On ch=1 n=c#5 v=0
93406 On ch=1 n=a#6 v=94
93412 On ch=1 n=c#4 v=43
93414 On ch=1 n=f#4 v=73
93422 On ch=1 n=a#4 v=47
93442 On ch=1 n=c#5 v=10
93476 Par ch=1 c=64 v=127
93486 On ch=1 n=f#4 v=0
93492 On ch=1 n=a#4 v=0
93504 On ch=1 n=c#5 v=0
93614 On ch=1 n=c#4 v=0
93808 On ch=1 n=a#2 v=64
93814 On ch=1 n=a#3 v=46
93830 Par ch=1 c=64 v=0
93854 On ch=1 n=a#2 v=0
93874 On ch=1 n=a#3 v=0
94110 On ch=1 n=a#3 v=64
94114 On ch=1 n=a#2 v=65
94132 On ch=1 n=a#6 v=0
94154 On ch=1 n=a#2 v=0
94156 On ch=1 n=a#3 v=0
94238 On ch=1 n=a#6 v=61
94250 On ch=1 n=a#3 v=35
94250 On ch=1 n=a#2 v=43
94290 On ch=1 n=a#2 v=0
94302 On ch=1 n=a#3 v=0
94322 Par ch=1 c=64 v=127
94332 On ch=1 n=c7 v=73
94348 On ch=1 n=a#6 v=0
94420 On ch=1 n=a#6 v=56
94422 On ch=1 n=c7 v=0
94530 On ch=1 n=a#5 v=60
94566 On ch=1 n=a#6 v=0
94606 On ch=1 n=a#5 v=0
94628 On ch=1 n=c#5 v=54
94632 On ch=1 n=f6 v=78
94684 On ch=1 n=c#5 v=0
94704 On ch=1 n=f6 v=0
94718 On ch=1 n=g6 v=74
94732 On ch=1 n=f5 v=44
94800 On ch=1 n=f6 v=66
94800 On ch=1 n=c#5 v=56
94806 On ch=1 n=f5 v=0
94848 On ch=1 n=g6 v=0
94884 On ch=1 n=a#5 v=57
94886 On ch=1 n=c#5 v=0
94890 Par ch=1 c=64 v=0
94900 On ch=1 n=f6 v=0
94928 On ch=1 n=a#4 v=42
94944 On ch=1 n=a#5 v=0
94978 On ch=1 n=g6 v=95
95002 On ch=1 n=a#4 v=0
95006 On ch=1 n=f4 v=88
95062 On ch=1 n=f4 v=0
95076 On ch=1 n=a6 v=80
95090 Par ch=1 c=64 v=127
95098 On ch=1 n=g6 v=0
95152 On ch=1 n=g6 v=90
95190 On ch=1 n=a6 v=0
95262 On ch=1 n=a#5 v=59
95304 On ch=1 n=g6 v=0
95336 Par ch=1 c=64 v=0
95350 On ch=1 n=a6 v=80
95354 On ch=1 n=a#3 v=69
95362 On ch=1 n=a#2 v=72
95368 On ch=1 n=a#5 v=0
95400 On ch=1 n=a#2 v=0
95404 On ch=1 n=a#3 v=0
95428 On ch=1 n=a#6 v=75
95458 On ch=1 n=a6 v=0
95520 Par ch=1 c=64 v=127
95540 On ch=1 n=a6 v=61
95614 On ch=1 n=a#6 v=0
95618 On ch=1 n=a#5 v=62
95620 On ch=1 n=a#2 v=72
95622 On ch=1 n=a#3 v=67
95628 Par ch=1 c=64 v=0
95640 On ch=1 n=a6 v=0
95658 On ch=1 n=a#2 v=0
95666 On ch=1 n=a#3 v=0
95700 On ch=1 n=a#5 v=0
95728 On ch=1 n=a#3 v=50
95738 On ch=1 n=a#2 v=48
95738 On ch=1 n=a#6 v=88
95794 On ch=1 n=a#2 v=0
95812 Par ch=1 c=64 v=127
95816 On ch=1 n=a#3 v=0
95828 On ch=1 n=c7 v=80
95866 On ch=1 n=a#6 v=0
95920 On ch=1 n=a#6 v=78
95928 On ch=1 n=c7 v=0
95998 On ch=1 n=a#5 v=69
96008 On ch=1 n=a#6 v=0
96048 On ch=1 n=a#5 v=0
96108 On ch=1 n=c7 v=95
96114 On ch=1 n=c#5 v=67
96166 On ch=1 n=c#5 v=0
96194 On ch=1 n=c#7 v=84
96196 On ch=1 n=f5 v=61
96208 On ch=1 n=c7 v=0
96262 On ch=1 n=f5 v=0
96272 On ch=1 n=c7 v=81
96278 On ch=1 n=c#5 v=65
96338 On ch=1 n=c#5 v=0
96346 On ch=1 n=c#7 v=0
96356 On ch=1 n=c7 v=0
96362 On ch=1 n=a#6 v=34
96394 On ch=1 n=a#5 v=81
96410 On ch=1 n=a#4 v=52
96428 On ch=1 n=a#6 v=0
96484 On ch=1 n=a#5 v=0
96488 On ch=1 n=a#4 v=0
96522 On ch=1 n=c#7 v=104
96536 On ch=1 n=f4 v=87
96638 On ch=1 n=f4 v=0
96878 On ch=1 n=a#3 v=69
96890 On ch=1 n=a#2 v=74
96916 On ch=1 n=c#7 v=0
96940 On ch=1 n=a#2 v=0
96972 On ch=1 n=a#3 v=0
97114 On ch=1 n=a#3 v=68
97118 On ch=1 n=a#2 v=78
97174 On ch=1 n=a#2 v=0
97190 On ch=1 n=a#3 v=0
97226 Par ch=1 c=64 v=0
97300 On ch=1 n=f7 v=97
97310 On ch=1 n=a#3 v=81
97312 On ch=1 n=a#2 v=81
97350 On ch=1 n=a#2 v=0
97380 On ch=1 n=g7 v=80
97396 On ch=1 n=f7 v=0
97404 On ch=1 n=a#3 v=0
97426 Par ch=1 c=64 v=127
97476 On ch=1 n=f7 v=62
97528 On ch=1 n=g7 v=0
97590 On ch=1 n=f7 v=0
97592 On ch=1 n=f6 v=76
97640 On ch=1 n=f6 v=0
97754 On ch=1 n=c6 v=91
97760 On ch=1 n=a4 v=48
97814 On ch=1 n=a4 v=0
97834 On ch=1 n=c6 v=0
97837 On ch=1 n=c#6 v=81
97856 On ch=1 n=d#5 v=68
97928 On ch=1 n=c6 v=63
97940 On ch=1 n=a4 v=32
97958 On ch=1 n=d#5 v=0
97996 On ch=1 n=c#6 v=0
98002 On ch=1 n=f5 v=79
98010 Par ch=1 c=64 v=0
98026 On ch=1 n=a4 v=0
98034 On ch=1 n=f4 v=79
98040 On ch=1 n=c6 v=0
98064 On ch=1 n=f5 v=0
98102 On ch=1 n=d#4 v=73
98106 On ch=1 n=b5 v=103
98114 On ch=1 n=f4 v=0
98154 On ch=1 n=d#4 v=0
98178 Par ch=1 c=64 v=127
98192 On ch=1 n=c6 v=84
98204 On ch=1 n=b5 v=0
98274 On ch=1 n=b5 v=79
98310 On ch=1 n=c6 v=0
98366 On ch=1 n=b5 v=0
98366 On ch=1 n=f5 v=72
98416 On ch=1 n=f5 v=0
98440 Par ch=1 c=64 v=0
98454 On ch=1 n=c6 v=90
98488 On ch=1 n=a#3 v=67
98491 On ch=1 n=a#2 v=70
98536 On ch=1 n=c#6 v=75
98542 On ch=1 n=a#2 v=0
98544 On ch=1 n=a#3 v=0
98548 On ch=1 n=c6 v=0
98634 On ch=1 n=c6 v=56
98640 Par ch=1 c=64 v=127
98702 On ch=1 n=c#6 v=0
98720 On ch=1 n=f5 v=61
98736 On ch=1 n=c6 v=0
98758 On ch=1 n=a#3 v=69
98761 Par ch=1 c=64 v=0
98764 On ch=1 n=a#2 v=68
98768 On ch=1 n=f5 v=0
98800 On ch=1 n=a#2 v=0
98802 On ch=1 n=a#3 v=0
98838 On ch=1 n=f6 v=94
98856 On ch=1 n=a#2 v=75
98856 On ch=1 n=a#3 v=75
98908 On ch=1 n=g6 v=90
98926 On ch=1 n=a#2 v=0
98932 Par ch=1 c=64 v=127
98936 On ch=1 n=f6 v=0
98936 On ch=1 n=a#3 v=0
98998 On ch=1 n=f6 v=78
99014 On ch=1 n=g6 v=0
99100 On ch=1 n=f5 v=70
99103 On ch=1 n=f6 v=0
99212 On ch=1 n=f5 v=0
99222 On ch=1 n=d#6 v=81
99234 On ch=1 n=a4 v=51
99288 On ch=1 n=a4 v=0
99304 On ch=1 n=f6 v=75
99310 On ch=1 n=d#5 v=73
99322 On ch=1 n=d#6 v=0
99384 On ch=1 n=d#6 v=72
99396 On ch=1 n=a4 v=29
99404 On ch=1 n=d#5 v=0
99434 On ch=1 n=f6 v=0
99478 On ch=1 n=f5 v=64
99494 On ch=1 n=a4 v=0
99504 On ch=1 n=f4 v=73
99507 On ch=1 n=d#6 v=0
99580 On ch=1 n=f5 v=0
99590 On ch=1 n=c#6 v=86
99592 On ch=1 n=d#4 v=69
99662 On ch=1 n=f4 v=0
99674 On ch=1 n=d#6 v=63
99700 On ch=1 n=c#6 v=0
99710 On ch=1 n=d#4 v=0
99762 On ch=1 n=c#6 v=62
99824 On ch=1 n=d#6 v=0
99844 On ch=1 n=f5 v=70
99864 On ch=1 n=c#6 v=0
99884 Par ch=1 c=64 v=0
99912 On ch=1 n=f5 v=0
99936 On ch=1 n=a#3 v=69
99942 On ch=1 n=a#2 v=81
99950 On ch=1 n=c6 v=93
99996 On ch=1 n=a#2 v=0
100012 On ch=1 n=a#3 v=0
100012 On ch=1 n=c#6 v=76
100050 On ch=1 n=c6 v=0
100068 Par ch=1 c=64 v=127
100116 On ch=1 n=c6 v=76
100172 On ch=1 n=c#6 v=0
100204 On ch=1 n=f5 v=57
100230 On ch=1 n=c6 v=0
100238 On ch=1 n=a#3 v=75
100244 On ch=1 n=a#2 v=74
100247 On ch=1 n=f5 v=0
100268 Par ch=1 c=64 v=0
100286 On ch=1 n=a#2 v=0
100288 On ch=1 n=a#3 v=0
100381 On ch=1 n=f7 v=106
100383 On ch=1 n=a#3 v=85
100387 On ch=1 n=a#2 v=82
100423 On ch=1 n=a#2 v=0
100461 On ch=1 n=a#3 v=0
100477 On ch=1 n=g7 v=92
100480 Par ch=1 c=64 v=127
100515 On ch=1 n=f7 v=0
100577 On ch=1 n=f7 v=84
100637 On ch=1 n=g7 v=0
100677 On ch=1 n=f6 v=81
100689 On ch=1 n=f7 v=0
100715 On ch=1 n=f6 v=0
100867 On ch=1 n=a#4 v=44
100917 On ch=1 n=a#5 v=24
100933 On ch=1 n=a#4 v=0
100945 On ch=1 n=c#5 v=70
100974 On ch=1 n=c6 v=52
100979 On ch=1 n=a#5 v=0
101035 On ch=1 n=a#4 v=46
101051 On ch=1 n=a#5 v=70
101065 On ch=1 n=c#5 v=0
101083 On ch=1 n=c6 v=0
101123 On ch=1 n=f5 v=61
101125 On ch=1 n=f4 v=75
101165 On ch=1 n=a#5 v=0
101167 On ch=1 n=a#4 v=0
101181 On ch=1 n=f5 v=0
101211 On ch=1 n=c#4 v=71
101215 On ch=1 n=a5 v=83
101243 On ch=1 n=f4 v=0
101299 On ch=1 n=a#5 v=73
101313 On ch=1 n=c#4 v=0
101339 On ch=1 n=a5 v=0
101389 On ch=1 n=a5 v=84
101443 On ch=1 n=a#5 v=0
101469 On ch=1 n=f5 v=84
101503 On ch=1 n=a5 v=0
101539 Par ch=1 c=64 v=0
101547 On ch=1 n=f5 v=0
101561 On ch=1 n=a#3 v=70
101561 On ch=1 n=a#2 v=75
101567 On ch=1 n=a#5 v=89
101605 On ch=1 n=a#2 v=0
101613 On ch=1 n=a#3 v=0
101653 On ch=1 n=c6 v=75
101687 On ch=1 n=a#5 v=0
101725 Par ch=1 c=64 v=127
101739 On ch=1 n=a#5 v=75
101801 On ch=1 n=c6 v=0
101803 On ch=1 n=a#3 v=77
101811 On ch=1 n=a#2 v=65
101817 Par ch=1 c=64 v=0
101817 On ch=1 n=f5 v=74
101835 On ch=1 n=a#5 v=0
101851 On ch=1 n=a#2 v=0
101854 On ch=1 n=a#3 v=0
101861 On ch=1 n=f5 v=0
101923 On ch=1 n=f6 v=101
101929 On ch=1 n=a#3 v=62
101929 On ch=1 n=a#2 v=59
101977 On ch=1 n=a#2 v=0
101995 On ch=1 n=g6 v=85
102011 On ch=1 n=f6 v=0
102015 Par ch=1 c=64 v=127
102025 On ch=1 n=a#3 v=0
102077 On ch=1 n=f6 v=85
102103 On ch=1 n=g6 v=0
102177 On ch=1 n=f5 v=71
102180 On ch=1 n=f6 v=0
102283 On ch=1 n=f5 v=0
102293 On ch=1 n=c#6 v=81
102297 On ch=1 n=a#4 v=56
102349 On ch=1 n=a#4 v=0
102361 On ch=1 n=d#6 v=65
102377 On ch=1 n=c#5 v=74
102403 On ch=1 n=c#6 v=0
102459 On ch=1 n=c#6 v=73
102467 On ch=1 n=a#4 v=48
102497 On ch=1 n=c#5 v=0
102527 On ch=1 n=d#6 v=0
102547 On ch=1 n=f5 v=71
102563 On ch=1 n=c#6 v=0
102565 On ch=1 n=f4 v=74
102587 On ch=1 n=a#4 v=0
102625 On ch=1 n=c#4 v=70
102629 On ch=1 n=f4 v=0
102649 On ch=1 n=c6 v=88
102653 On ch=1 n=f5 v=0
102663 On ch=1 n=c#4 v=0
102727 On ch=1 n=c#6 v=70
102763 On ch=1 n=c6 v=0
102819 On ch=1 n=c6 v=76
102875 On ch=1 n=c#6 v=0
102887 On ch=1 n=c6 v=0
102901 On ch=1 n=f5 v=67
103001 On ch=1 n=c#3 v=89
103001 On ch=1 n=a#5 v=87
103001 On ch=1 n=c#2 v=95
103039 On ch=1 n=f5 v=0
103047 On ch=1 n=c#2 v=0
103083 On ch=1 n=c6 v=87
103091 On ch=1 n=c#3 v=0
103091 Par ch=1 c=64 v=0
103099 On ch=1 n=a#5 v=0
103121 Par ch=1 c=64 v=127
103169 On ch=1 n=a#5 v=56
103213 On ch=1 n=c6 v=0
103257 On ch=1 n=f5 v=75
103271 On ch=1 n=c#3 v=92
103274 On ch=1 n=c#2 v=83
103277 On ch=1 n=a#5 v=0
103297 On ch=1 n=f5 v=0
103335 On ch=1 n=c#2 v=0
103363 On ch=1 n=c#3 v=0
103415 Par ch=1 c=64 v=0
103481 On ch=1 n=c#3 v=108
103487 On ch=1 n=f7 v=109
103491 On ch=1 n=c#2 v=99
103537 On ch=1 n=c#2 v=0
103591 On ch=1 n=c#3 v=0
103594 On ch=1 n=g7 v=95
103623 On ch=1 n=f7 v=0
103629 Par ch=1 c=64 v=127
103679 On ch=1 n=f7 v=81
103751 On ch=1 n=g7 v=0
103785 On ch=1 n=f6 v=81
103797 On ch=1 n=f7 v=0
103821 On ch=1 n=f6 v=0
103929 On ch=1 n=f4 v=93
103943 On ch=1 n=b5 v=91
104001 On ch=1 n=f4 v=0
104017 On ch=1 n=b5 v=0
104017 On ch=1 n=c6 v=75
104031 On ch=1 n=b4 v=57
104101 On ch=1 n=b5 v=84
104101 On ch=1 n=f4 v=94
104129 On ch=1 n=b4 v=0
104171 On ch=1 n=c6 v=0
104193 On ch=1 n=f5 v=76
104199 On ch=1 n=c#4 v=67
104211 On ch=1 n=b5 v=0
104211 On ch=1 n=f4 v=0
104279 On ch=1 n=b3 v=80
104293 On ch=1 n=a#5 v=88
104319 On ch=1 n=f5 v=0
104365 On ch=1 n=c#4 v=0
104379 On ch=1 n=b5 v=97
104385 On ch=1 n=b3 v=0
104417 On ch=1 n=a#5 v=0
104471 On ch=1 n=a#5 v=78
104522 On ch=1 n=b5 v=0
104557 On ch=1 n=f5 v=82
104591 On ch=1 n=a#5 v=0
104631 On ch=1 n=f5 v=0
104639 On ch=1 n=c#3 v=100
104647 On ch=1 n=c#2 v=93
104657 On ch=1 n=b5 v=101
104695 On ch=1 n=c#2 v=0
104725 On ch=1 n=c#3 v=0
104728 On ch=1 n=c6 v=80
104773 On ch=1 n=b5 v=0
104831 On ch=1 n=b5 v=92
104879 On ch=1 n=c6 v=0
104915 On ch=1 n=f5 v=69
104923 On ch=1 n=c#3 v=92
104929 On ch=1 n=c#2 v=94
104941 On ch=1 n=b5 v=0
104955 On ch=1 n=f5 v=0
104987 On ch=1 n=c#2 v=0
105017 On ch=1 n=c#3 v=0
105073 Par ch=1 c=64 v=0
105105 On ch=1 n=f7 v=108
105107 On ch=1 n=c#3 v=105
105117 On ch=1 n=c#2 v=103
105201 On ch=1 n=g7 v=95
105223 On ch=1 n=f7 v=0
105223 On ch=1 n=c#2 v=0
105233 On ch=1 n=c#3 v=0
105273 Par ch=1 c=64 v=127
105285 On ch=1 n=f7 v=67
105357 On ch=1 n=g7 v=0
105387 On ch=1 n=f6 v=81
105393 On ch=1 n=f7 v=0
105423 On ch=1 n=f6 v=0
105537 On ch=1 n=c#6 v=88
105549 On ch=1 n=f4 v=91
105619 On ch=1 n=d#6 v=74
105643 On ch=1 n=c#6 v=0
105643 On ch=1 n=b4 v=84
105649 On ch=1 n=f4 v=0
105711 On ch=1 n=c#6 v=66
105733 On ch=1 n=f4 v=91
105777 On ch=1 n=b4 v=0
105793 On ch=1 n=d#6 v=0
105805 On ch=1 n=f5 v=78
105827 On ch=1 n=c#4 v=76
105847 On ch=1 n=c#6 v=0
105853 On ch=1 n=f4 v=0
105873 On ch=1 n=f5 v=0
105917 On ch=1 n=b3 v=93
105920 On ch=1 n=c6 v=94
105967 On ch=1 n=c#4 v=0
105973 On ch=1 n=b3 v=0
105983 On ch=1 n=c#6 v=76
106019 On ch=1 n=c6 v=0
106075 On ch=1 n=c6 v=80
106159 On ch=1 n=c#6 v=0
106177 On ch=1 n=f5 v=75
106215 On ch=1 n=c6 v=0
106241 On ch=1 n=f5 v=0
106275 On ch=1 n=c#3 v=93
106279 On ch=1 n=c#2 v=99
106281 On ch=1 n=b5 v=103
106359 On ch=1 n=c#3 v=0
106359 On ch=1 n=c6 v=83
106373 On ch=1 n=b5 v=0
106379 On ch=1 n=c#2 v=0
106489 On ch=1 n=b5 v=78
106519 On ch=1 n=c6 v=0
106551 On ch=1 n=c#3 v=83
106557 On ch=1 n=c#2 v=84
106573 On ch=1 n=b5 v=0
106575 On ch=1 n=f5 v=71
106601 On ch=1 n=c#3 v=0
106601 On ch=1 n=c#2 v=0
106611 Par ch=1 c=64 v=0
106663 On ch=1 n=f5 v=0
106681 On ch=1 n=c6 v=94
106685 On ch=1 n=c3 v=111
106687 On ch=1 n=c2 v=111
106783 On ch=1 n=d6 v=89
106791 On ch=1 n=c2 v=0
106821 On ch=1 n=c3 v=0
106823 On ch=1 n=c6 v=0
106871 Par ch=1 c=64 v=127
106881 On ch=1 n=c6 v=70
106935 On ch=1 n=d6 v=0
107011 On ch=1 n=e5 v=30
107033 On ch=1 n=c6 v=0
107069 On ch=1 n=e5 v=0
107171 On ch=1 n=g6 v=97
107179 On ch=1 n=g4 v=73
107231 On ch=1 n=a6 v=74
107241 On ch=1 n=e5 v=76
107259 On ch=1 n=g4 v=0
107271 On ch=1 n=g6 v=0
107327 On ch=1 n=e5 v=0
107337 On ch=1 n=g6 v=74
107343 On ch=1 n=g4 v=65
107403 On ch=1 n=g4 v=0
107419 On ch=1 n=c4 v=68
107427 On ch=1 n=a6 v=0
107430 On ch=1 n=c6 v=71
107461 On ch=1 n=c4 v=0
107477 On ch=1 n=g6 v=0
107555 On ch=1 n=f#6 v=88
107567 On ch=1 n=g3 v=100
107569 On ch=1 n=c6 v=0
107577 Par ch=1 c=64 v=0
107629 On ch=1 n=g6 v=87
107683 On ch=1 n=f#6 v=0
107723 On ch=1 n=g3 v=0
107741 On ch=1 n=f#6 v=71
107761 Par ch=1 c=64 v=127
107807 On ch=1 n=g6 v=0
107835 On ch=1 n=c6 v=66
107865 On ch=1 n=f#6 v=0
107891 On ch=1 n=c6 v=0
107901 Par ch=1 c=64 v=0
107947 On ch=1 n=g6 v=95
107951 On ch=1 n=g3 v=87
108011 On ch=1 n=g3 v=0
108017 On ch=1 n=a6 v=64
108020 On ch=1 n=e4 v=65
108039 Par ch=1 c=64 v=127
108061 On ch=1 n=g6 v=0
108080 On ch=1 n=e4 v=0
108111 On ch=1 n=g3 v=69
108121 On ch=1 n=g6 v=84
108169 On ch=1 n=a6 v=0
108196 On ch=1 n=c3 v=95
108199 On ch=1 n=c6 v=83
108205 On ch=1 n=g3 v=0
108241 On ch=1 n=g6 v=0
108255 Par ch=1 c=64 v=0
108290 On ch=1 n=c3 v=0
108299 On ch=1 n=c2 v=110
108303 On ch=1 n=c6 v=0
108313 On ch=1 n=c7 v=103
108375 On ch=1 n=c2 v=0
108397 On ch=1 n=d7 v=81
108421 On ch=1 n=c7 v=0
108439 Par ch=1 c=64 v=127
108477 On ch=1 n=c7 v=96
108539 On ch=1 n=d7 v=0
108587 On ch=1 n=c7 v=0
108593 On ch=1 n=c6 v=69
108683 On ch=1 n=c6 v=0
108719 On ch=1 n=g4 v=80
108727 On ch=1 n=g6 v=71
108783 On ch=1 n=a6 v=72
108789 On ch=1 n=e5 v=77
108797 On ch=1 n=g4 v=0
108841 On ch=1 n=e5 v=0
108873 On ch=1 n=g4 v=79
108937 On ch=1 n=a6 v=0
108943 On ch=1 n=g4 v=0
108955 On ch=1 n=c4 v=67
108961 On ch=1 n=c6 v=72
108999 On ch=1 n=g6 v=0
109001 On ch=1 n=c4 v=0
109039 Par ch=1 c=64 v=0
109069 On ch=1 n=f#6 v=93
109093 On ch=1 n=g3 v=100
109123 On ch=1 n=c6 v=0
109155 On ch=1 n=g6 v=96
109191 On ch=1 n=f#6 v=0
109243 On ch=1 n=f#6 v=84
109253 Par ch=1 c=64 v=127
109307 On ch=1 n=g6 v=0
109327 On ch=1 n=g3 v=0
109327 On ch=1 n=c6 v=81
109345 On ch=1 n=f#6 v=0
109422 On ch=1 n=c6 v=0
109422 Par ch=1 c=64 v=0
109429 On ch=1 n=g3 v=73
109445 On ch=1 n=g6 v=94
109519 On ch=1 n=e4 v=47
109519 On ch=1 n=a6 v=67
109545 On ch=1 n=g3 v=0
109559 On ch=1 n=g6 v=0
109569 On ch=1 n=e4 v=0
109590 Par ch=1 c=64 v=127
109625 On ch=1 n=g6 v=86
109632 On ch=1 n=g3 v=95
109662 On ch=1 n=g3 v=0
109675 On ch=1 n=a6 v=0
109713 On ch=1 n=c6 v=75
109716 On ch=1 n=c3 v=91
109739 On ch=1 n=g6 v=0
109813 On ch=1 n=c3 v=0
109821 On ch=1 n=c6 v=0
109823 Par ch=1 c=64 v=0
109845 On ch=1 n=c2 v=104
109847 On ch=1 n=c7 v=103
109947 On ch=1 n=c2 v=0
109961 On ch=1 n=d7 v=92
109987 On ch=1 n=c7 v=0
110021 Par ch=1 c=64 v=127
110045 On ch=1 n=c7 v=85
110107 On ch=1 n=d7 v=0
110153 On ch=1 n=c7 v=0
110157 On ch=1 n=c6 v=71
110267 On ch=1 n=f4 v=93
110270 On ch=1 n=c6 v=0
110270 On ch=1 n=b6 v=103
110315 On ch=1 n=f4 v=0
110339 On ch=1 n=b4 v=66
110339 On ch=1 n=c7 v=79
110369 On ch=1 n=b6 v=0
110429 On ch=1 n=b6 v=94
110433 On ch=1 n=f4 v=92
110451 Par ch=1 c=64 v=0
110453 On ch=1 n=b4 v=0
110491 On ch=1 n=c7 v=0
110507 On ch=1 n=c6 v=75
110529 On ch=1 n=d4 v=95
110539 On ch=1 n=b6 v=0
110547 On ch=1 n=f4 v=0
110579 On ch=1 n=d4 v=0
110637 On ch=1 n=b6 v=102
110639 On ch=1 n=c6 v=0
110651 Par ch=1 c=64 v=127
110671 On ch=1 n=f5 v=92
110735 On ch=1 n=c7 v=77
110761 On ch=1 n=b6 v=0
110777 On ch=1 n=f5 v=0
110831 On ch=1 n=b6 v=98
110889 On ch=1 n=c7 v=0
110901 On ch=1 n=c6 v=71
110947 On ch=1 n=b6 v=0
111003 Par ch=1 c=64 v=0
111019 On ch=1 n=c6 v=0
111019 On ch=1 n=g4 v=79
111025 On ch=1 n=a#6 v=70
111085 On ch=1 n=g4 v=0
111097 On ch=1 n=c5 v=72
111117 On ch=1 n=c7 v=69
111135 On ch=1 n=a#6 v=0
111189 Par ch=1 c=64 v=127
111191 On ch=1 n=a#6 v=70
111203 On ch=1 n=c5 v=0
111203 On ch=1 n=g4 v=63
111235 Par ch=1 c=64 v=0
111249 On ch=1 n=c7 v=0
111265 On ch=1 n=g4 v=0
111277 On ch=1 n=e4 v=92
111283 On ch=1 n=c6 v=65
111319 On ch=1 n=e4 v=0
111325 On ch=1 n=a#6 v=0
111387 On ch=1 n=c6 v=0
111401 On ch=1 n=a#6 v=65
111404 Par ch=1 c=64 v=127
111421 On ch=1 n=g5 v=79
111489 On ch=1 n=c7 v=60
111537 On ch=1 n=a#6 v=0
111537 On ch=1 n=g5 v=0
111597 On ch=1 n=a#6 v=61
111617 On ch=1 n=c7 v=0
111679 On ch=1 n=c6 v=47
111725 On ch=1 n=a#6 v=0
111749 On ch=1 n=c6 v=0
111799 On ch=1 n=c5 v=41
111819 Par ch=1 c=64 v=0
111857 On ch=1 n=c5 v=0
111857 On ch=1 n=g6 v=13
111864 On ch=1 n=e5 v=58
111895 On ch=1 n=a6 v=46
111917 On ch=1 n=g6 v=0
111939 On ch=1 n=e5 v=0
111942 Par ch=1 c=64 v=127
111963 On ch=1 n=a6 v=0
111969 On ch=1 n=c5 v=35
111987 On ch=1 n=g6 v=59
112019 Par ch=1 c=64 v=0
112057 On ch=1 n=g6 v=0
112067 On ch=1 n=c5 v=0
112079 On ch=1 n=g4 v=74
112097 On ch=1 n=c6 v=35
112127 On ch=1 n=g4 v=0
112203 On ch=1 n=c6 v=0
112203 Par ch=1 c=64 v=127
112253 On ch=1 n=g6 v=56
112265 On ch=1 n=a#5 v=56
112317 On ch=1 n=g6 v=0
112341 On ch=1 n=a6 v=43
112393 On ch=1 n=a#5 v=0
112411 On ch=1 n=a6 v=0
112447 On ch=1 n=g6 v=23
112551 On ch=1 n=c6 v=37
112577 On ch=1 n=g6 v=0
112697 On ch=1 n=c6 v=0
112709 On ch=1 n=f6 v=51
112709 Par ch=1 c=64 v=0
112735 On ch=1 n=c4 v=15
112785 On ch=1 n=f6 v=0
112801 On ch=1 n=g6 v=60
112801 On ch=1 n=a4 v=44
112811 On ch=1 n=c4 v=0
112857 On ch=1 n=a4 v=0
112863 Par ch=1 c=64 v=127
112877 On ch=1 n=c4 v=55
112909 On ch=1 n=f6 v=36
112927 On ch=1 n=c4 v=0
112937 On ch=1 n=g6 v=0
113013 On ch=1 n=f6 v=0
113021 On ch=1 n=c6 v=38
113041 On ch=1 n=f3 v=71
113087 On ch=1 n=f3 v=0
113109 Par ch=1 c=64 v=0
113149 On ch=1 n=f2 v=85
113151 On ch=1 n=c6 v=0
113157 On ch=1 n=f6 v=59
113187 On ch=1 n=f2 v=0
113207 On ch=1 n=f6 v=0
113221 On ch=1 n=g6 v=70
113263 Par ch=1 c=64 v=127
113307 On ch=1 n=f6 v=44
113319 On ch=1 n=g6 v=0
113385 On ch=1 n=f6 v=0
113421 On ch=1 n=f5 v=52
113485 On ch=1 n=f5 v=0
113515 On ch=1 n=c4 v=50
113521 On ch=1 n=c6 v=54
113555 Par ch=1 c=64 v=0
113571 On ch=1 n=c4 v=0
113591 On ch=1 n=c6 v=0
113597 On ch=1 n=d6 v=66
113665 On ch=1 n=c6 v=55
113667 On ch=1 n=d6 v=0
113673 On ch=1 n=c5 v=41
113691 On ch=1 n=a4 v=44
113735 On ch=1 n=c5 v=0
113753 On ch=1 n=a4 v=0
113755 On ch=1 n=c6 v=0
113755 On ch=1 n=f5 v=48
113813 On ch=1 n=f5 v=0
113855 On ch=1 n=d6 v=76
113858 On ch=1 n=f4 v=76
113903 On ch=1 n=f4 v=0
113921 On ch=1 n=d6 v=0
113929 On ch=1 n=e6 v=37
114005 On ch=1 n=d6 v=64
114019 On ch=1 n=c5 v=34
114029 On ch=1 n=a4 v=47
114061 On ch=1 n=e6 v=0
114083 On ch=1 n=c5 v=0
114083 On ch=1 n=a4 v=0
114089 On ch=1 n=f5 v=53
114109 On ch=1 n=d6 v=0
114167 On ch=1 n=f5 v=0
114189 On ch=1 n=c4 v=59
114191 On ch=1 n=e6 v=59
114247 On ch=1 n=c4 v=0
114259 On ch=1 n=e6 v=0
114261 On ch=1 n=f6 v=68
114341 On ch=1 n=e6 v=54
114345 On ch=1 n=a4 v=41
114349 On ch=1 n=c5 v=49
114375 On ch=1 n=f6 v=0
114404 On ch=1 n=a4 v=0
114405 On ch=1 n=c5 v=0
114427 On ch=1 n=f5 v=52
114445 On ch=1 n=e6 v=0
114481 On ch=1 n=f5 v=0
114525 On ch=1 n=f3 v=85
114527 On ch=1 n=f6 v=77
114561 On ch=1 n=f3 v=0
114599 On ch=1 n=g6 v=83
114633 On ch=1 n=f6 v=0
114695 On ch=1 n=g6 v=0
114707 On ch=1 n=c5 v=52
114709 On ch=1 n=f6 v=66
114709 On ch=1 n=a4 v=41
114751 On ch=1 n=f6 v=0
114765 On ch=1 n=c5 v=0
114765 On ch=1 n=f5 v=64
114768 On ch=1 n=a4 v=0
114813 On ch=1 n=f5 v=0
114879 On ch=1 n=c4 v=62
114885 On ch=1 n=g6 v=76
114927 On ch=1 n=c4 v=0
114941 On ch=1 n=g6 v=0
114957 On ch=1 n=a6 v=59
115013 On ch=1 n=g6 v=60
115061 On ch=1 n=c5 v=40
115063 On ch=1 n=a6 v=0
115077 On ch=1 n=a4 v=42
115099 On ch=1 n=g6 v=0
115125 On ch=1 n=c5 v=0
115136 On ch=1 n=a4 v=0
115136 On ch=1 n=f5 v=59
115177 On ch=1 n=f5 v=0
115253 On ch=1 n=a6 v=81
115269 On ch=1 n=f4 v=72
115323 On ch=1 n=f4 v=0
115445 On ch=1 n=c5 v=32
115453 On ch=1 n=a4 v=20
115515 On ch=1 n=c5 v=0
115531 On ch=1 n=a4 v=0
115601 On ch=1 n=c4 v=45
115657 On ch=1 n=c4 v=0
115681 On ch=1 n=a6 v=0
115767 Par ch=1 c=64 v=127
115795 On ch=1 n=c5 v=45
115807 On ch=1 n=a4 v=39
115853 On ch=1 n=c5 v=0
115869 On ch=1 n=a4 v=0
115985 On ch=1 n=c7 v=65
115987 On ch=1 n=f3 v=76
116025 On ch=1 n=f3 v=0
116045 Par ch=1 c=64 v=0
116048 On ch=1 n=c7 v=0
116071 On ch=1 n=d7 v=56
116139 On ch=1 n=c7 v=55
116163 On ch=1 n=d7 v=0
116179 On ch=1 n=c5 v=58
116211 On ch=1 n=a4 v=18
116231 On ch=1 n=c7 v=0
116231 On ch=1 n=c5 v=0
116247 On ch=1 n=f6 v=32
116271 On ch=1 n=a4 v=0
116301 On ch=1 n=f6 v=0
116337 On ch=1 n=f7 v=84
116341 On ch=1 n=d#4 v=72
116399 On ch=1 n=d#4 v=0
116409 On ch=1 n=g7 v=74
116413 Par ch=1 c=64 v=127
116431 On ch=1 n=f7 v=0
116497 On ch=1 n=f7 v=73
116505 Par ch=1 c=64 v=0
116523 On ch=1 n=g7 v=0
116533 On ch=1 n=c5 v=42
116557 On ch=1 n=a4 v=31
116579 On ch=1 n=f7 v=0
116603 On ch=1 n=c5 v=0
116609 On ch=1 n=f6 v=51
116627 On ch=1 n=a4 v=0
116671 On ch=1 n=f6 v=0
116705 On ch=1 n=d4 v=63
116717 On ch=1 n=b6 v=91
116755 On ch=1 n=d4 v=0
116761 On ch=1 n=b6 v=0
116795 On ch=1 n=c7 v=84
116843 Par ch=1 c=64 v=127
116873 On ch=1 n=f5 v=50
116887 On ch=1 n=b6 v=89
116901 On ch=1 n=b4 v=44
116913 On ch=1 n=c7 v=0
116921 On ch=1 n=f5 v=0
116921 Par ch=1 c=64 v=0
116941 On ch=1 n=b6 v=0
116951 On ch=1 n=b4 v=0
116961 On ch=1 n=f6 v=67
117003 On ch=1 n=f6 v=0
117047 On ch=1 n=c#4 v=75
117059 On ch=1 n=f7 v=92
117099 On ch=1 n=c#4 v=0
117135 Par ch=1 c=64 v=127
117145 On ch=1 n=g7 v=75
117175 On ch=1 n=f7 v=0
117211 On ch=1 n=f5 v=62
117229 On ch=1 n=a#4 v=44
117229 On ch=1 n=f7 v=87
117253 On ch=1 n=g7 v=0
117253 On ch=1 n=f5 v=0
117287 On ch=1 n=a#4 v=0
117305 Par ch=1 c=64 v=0
117313 On ch=1 n=f7 v=0
117323 On ch=1 n=f6 v=72
117375 On ch=1 n=f6 v=0
117411 On ch=1 n=c4 v=63
117423 On ch=1 n=c7 v=90
117457 On ch=1 n=c4 v=0
117511 On ch=1 n=d7 v=66
117521 On ch=1 n=c7 v=0
117565 Par ch=1 c=64 v=127
117585 On ch=1 n=c7 v=79
117593 On ch=1 n=e5 v=43
117605 On ch=1 n=c5 v=52
117639 On ch=1 n=d7 v=0
117647 On ch=1 n=e5 v=0
117663 On ch=1 n=c5 v=0
117683 On ch=1 n=c7 v=0
117685 On ch=1 n=g6 v=69
117719 Par ch=1 c=64 v=0
117729 On ch=1 n=g6 v=0
117781 On ch=1 n=e4 v=63
117799 On ch=1 n=g6 v=64
117865 On ch=1 n=e4 v=0
117899 On ch=1 n=a6 v=56
117905 On ch=1 n=g6 v=0
117965 Par ch=1 c=64 v=127
117971 On ch=1 n=a6 v=0
117971 On ch=1 n=g6 v=73
117999 On ch=1 n=e5 v=25
118021 On ch=1 n=c5 v=26
118055 On ch=1 n=g6 v=0
118069 On ch=1 n=e5 v=0
118079 On ch=1 n=c6 v=57
118099 On ch=1 n=c5 v=0
118127 On ch=1 n=c6 v=0
118149 Par ch=1 c=64 v=0
118185 On ch=1 n=c6 v=70
118213 On ch=1 n=g4 v=28
118377 On ch=1 n=c6 v=0
118379 Par ch=1 c=64 v=127
118401 On ch=1 n=c#6 v=44
118439 On ch=1 n=e5 v=32
118457 Par ch=1 c=64 v=0
118459 On ch=1 n=a#4 v=18
118531 On ch=1 n=e5 v=0
118573 On ch=1 n=g4 v=0
118625 Par ch=1 c=64 v=127
118651 On ch=1 n=a#4 v=0
118651 On ch=1 n=d6 v=44
118661 On ch=1 n=f#4 v=38
118669 On ch=1 n=c#6 v=0
118687 Par ch=1 c=64 v=0
118851 On ch=1 n=d6 v=0
118857 Par ch=1 c=64 v=127
118899 On ch=1 n=a5 v=41
118904 On ch=1 n=f#4 v=0
118907 On ch=1 n=d5 v=27
118941 On ch=1 n=a4 v=13
118967 On ch=1 n=d5 v=0
119005 On ch=1 n=a4 v=0
119033 On ch=1 n=a5 v=0
119101 Par ch=1 c=64 v=0
119115 On ch=1 n=g6 v=61
119117 On ch=1 n=g3 v=73
119159 On ch=1 n=g3 v=0
119167 On ch=1 n=g6 v=0
119181 On ch=1 n=a6 v=62
119259 On ch=1 n=g6 v=33
119287 Par ch=1 c=64 v=127
119295 On ch=1 n=a6 v=0
119305 On ch=1 n=d5 v=47
119317 Par ch=1 c=64 v=0
119319 On ch=1 n=a#4 v=35
119331 On ch=1 n=g6 v=0
119359 On ch=1 n=d5 v=0
119361 On ch=1 n=g5 v=61
119381 On ch=1 n=a#4 v=0
119443 On ch=1 n=g5 v=0
119473 On ch=1 n=d6 v=62
119483 On ch=1 n=a#3 v=67
119535 On ch=1 n=a#3 v=0
119541 On ch=1 n=d6 v=0
119561 On ch=1 n=e6 v=58
119637 On ch=1 n=e6 v=0
119651 On ch=1 n=d6 v=49
119665 On ch=1 n=d5 v=46
119669 On ch=1 n=a#4 v=46
119705 On ch=1 n=d6 v=0
119723 On ch=1 n=d5 v=0
119735 On ch=1 n=a#4 v=0
119735 On ch=1 n=g5 v=49
119797 On ch=1 n=g5 v=0
119845 On ch=1 n=d4 v=74
119855 On ch=1 n=d6 v=67
119909 On ch=1 n=d6 v=0
119943 On ch=1 n=e6 v=39
120001 On ch=1 n=d6 v=60
120025 On ch=1 n=e6 v=0
120067 On ch=1 n=a4 v=44
120077 On ch=1 n=d5 v=42
120105 On ch=1 n=f5 v=44
120113 On ch=1 n=d6 v=0
120143 On ch=1 n=d5 v=0
120145 On ch=1 n=a4 v=0
120147 Par ch=1 c=64 v=127
120159 On ch=1 n=f5 v=0
120177 Par ch=1 c=64 v=0
120211 On ch=1 n=f6 v=79
120297 On ch=1 n=g6 v=67
120305 On ch=1 n=f6 v=0
120363 On ch=1 n=d5 v=49
120371 On ch=1 n=g6 v=0
120374 On ch=1 n=a4 v=54
120377 On ch=1 n=f6 v=68
120415 On ch=1 n=d5 v=0
120425 On ch=1 n=a4 v=0
120431 On ch=1 n=f6 v=0
120445 On ch=1 n=d4 v=0
120459 On ch=1 n=f5 v=62
120507 On ch=1 n=f5 v=0
120567 On ch=1 n=g3 v=74
120573 On ch=1 n=g6 v=90
120607 On ch=1 n=g3 v=0
120635 On ch=1 n=g6 v=0
120659 On ch=1 n=a6 v=51
120725 On ch=1 n=g6 v=64
120747 On ch=1 n=a#4 v=66
120750 On ch=1 n=a6 v=0
120759 On ch=1 n=d5 v=50
120799 On ch=1 n=a#4 v=0
120805 On ch=1 n=g6 v=0
120809 On ch=1 n=d5 v=0
120823 On ch=1 n=g5 v=56
120907 On ch=1 n=g5 v=0
120923 On ch=1 n=a#3 v=71
120923 On ch=1 n=d6 v=75
120981 On ch=1 n=a#3 v=0
120995 On ch=1 n=d6 v=0
121001 On ch=1 n=e6 v=60
121081 On ch=1 n=d6 v=63
121091 On ch=1 n=d5 v=72
121101 On ch=1 n=a#4 v=52
121103 On ch=1 n=e6 v=0
121133 On ch=1 n=d5 v=0
121151 On ch=1 n=d6 v=0
121163 On ch=1 n=a#4 v=0
121169 On ch=1 n=g5 v=47
121237 On ch=1 n=g5 v=0
121271 On ch=1 n=d4 v=89
121283 On ch=1 n=d6 v=68
121363 On ch=1 n=e6 v=55
121373 On ch=1 n=d6 v=0
121453 On ch=1 n=d6 v=75
121461 On ch=1 n=d5 v=46
121473 On ch=1 n=a4 v=43
121505 On ch=1 n=e6 v=0
121521 On ch=1 n=f5 v=72
121531 On ch=1 n=d5 v=0
121537 On ch=1 n=a4 v=0
121551 On ch=1 n=d6 v=0
121569 On ch=1 n=f5 v=0
121633 On ch=1 n=f6 v=83
121707 On ch=1 n=g6 v=84
121729 On ch=1 n=f6 v=0
121775 On ch=1 n=d5 v=50
121789 On ch=1 n=f6 v=85
121792 On ch=1 n=a4 v=58
121823 On ch=1 n=g6 v=0
121823 On ch=1 n=d5 v=0
121837 On ch=1 n=a4 v=0
121849 On ch=1 n=d4 v=0
121881 On ch=1 n=f6 v=0
121889 On ch=1 n=f5 v=64
121951 On ch=1 n=f5 v=0
121997 On ch=1 n=f6 v=62
122003 On ch=1 n=a3 v=39
122067 On ch=1 n=a3 v=0
122069 On ch=1 n=g6 v=80
122097 On ch=1 n=f6 v=0
122171 On ch=1 n=g6 v=0
122171 On ch=1 n=f6 v=57
122193 On ch=1 n=c5 v=69
122205 On ch=1 n=f4 v=83
122221 On ch=1 n=f6 v=0
122251 Par ch=1 c=64 v=127
122265 On ch=1 n=f5 v=55
122317 On ch=1 n=f5 v=0
122375 Par ch=1 c=64 v=0
122389 On ch=1 n=f#5 v=70
122429 On ch=1 n=f#5 v=0
122443 On ch=1 n=c5 v=0
122493 On ch=1 n=g5 v=46
122503 On ch=1 n=f5 v=33
122533 On ch=1 n=f#4 v=70
122545 On ch=1 n=f4 v=0
122559 On ch=1 n=f5 v=0
122563 On ch=1 n=f#5 v=68
122577 On ch=1 n=g5 v=0
122593 On ch=1 n=f#4 v=0
122643 On ch=1 n=d5 v=73
122651 On ch=1 n=f#5 v=0
122683 On ch=1 n=d5 v=0
122749 On ch=1 n=b3 v=76
122789 On ch=1 n=g6 v=98
122791 On ch=1 n=b3 v=0
122887 On ch=1 n=a6 v=69
122897 On ch=1 n=g6 v=0
122941 On ch=1 n=g4 v=80
122943 On ch=1 n=d5 v=78
122959 On ch=1 n=g6 v=94
123013 On ch=1 n=a6 v=0
123057 On ch=1 n=g6 v=0
123065 On ch=1 n=g5 v=78
123117 On ch=1 n=g5 v=0
123143 Par ch=1 c=64 v=127
123173 On ch=1 n=g#5 v=86
123211 On ch=1 n=d5 v=0
123263 On ch=1 n=a5 v=67
123265 Par ch=1 c=64 v=0
123275 On ch=1 n=g#5 v=0
123345 On ch=1 n=g#5 v=72
123355 On ch=1 n=g#4 v=61
123383 On ch=1 n=g4 v=0
123397 On ch=1 n=a5 v=0
123423 On ch=1 n=g#4 v=0
123435 On ch=1 n=e5 v=78
123437 On ch=1 n=g#5 v=0
123473 On ch=1 n=e5 v=0
123555 On ch=1 n=c4 v=73
123587 On ch=1 n=a6 v=97
123599 On ch=1 n=c4 v=0
123685 On ch=1 n=a#6 v=76
123713 On ch=1 n=a6 v=0
123763 On ch=1 n=d#5 v=78
123771 On ch=1 n=a4 v=55
123773 Par ch=1 c=64 v=127
123775 On ch=1 n=a6 v=70
123799 On ch=1 n=f#4 v=41
123827 On ch=1 n=a4 v=0
123861 On ch=1 n=f#4 v=0
123875 On ch=1 n=c6 v=75
123881 On ch=1 n=a#6 v=0
123889 On ch=1 n=a6 v=0
123897 On ch=1 n=d#5 v=0
123925 On ch=1 n=c6 v=0
123977 On ch=1 n=c7 v=88
124033 Par ch=1 c=64 v=0
124061 On ch=1 n=d7 v=73
124071 On ch=1 n=c7 v=0
124121 On ch=1 n=f#5 v=64
124131 On ch=1 n=c7 v=97
124137 On ch=1 n=d#5 v=65
124143 On ch=1 n=a4 v=57
124181 On ch=1 n=d7 v=0
124181 On ch=1 n=d#5 v=0
124197 On ch=1 n=a4 v=0
124215 On ch=1 n=c7 v=0
124215 On ch=1 n=c6 v=81
124221 On ch=1 n=f#5 v=0
124267 On ch=1 n=c6 v=0
124315 On ch=1 n=g5 v=87
124315 On ch=1 n=e5 v=84
124317 On ch=1 n=c7 v=76
124321 On ch=1 n=a#4 v=65
124341 Par ch=1 c=64 v=127
124381 On ch=1 n=g5 v=0
124381 On ch=1 n=e5 v=0
124397 On ch=1 n=d7 v=73
124421 On ch=1 n=c7 v=0
124437 On ch=1 n=a#4 v=0
124481 On ch=1 n=c7 v=94
124507 On ch=1 n=d7 v=0
124565 On ch=1 n=c7 v=0
124570 On ch=1 n=c6 v=75
124619 On ch=1 n=c6 v=0
124675 On ch=1 n=a#6 v=84
124679 On ch=1 n=c5 v=70
124691 On ch=1 n=e4 v=72
124711 On ch=1 n=c4 v=32
124747 On ch=1 n=c5 v=0
124765 On ch=1 n=e4 v=0
124771 On ch=1 n=c6 v=72
124789 On ch=1 n=a#6 v=0
124813 On ch=1 n=c4 v=0
124827 On ch=1 n=c6 v=0
124875 On ch=1 n=g6 v=76
124933 On ch=1 n=c6 v=59
124941 On ch=1 n=g6 v=0
124957 Par ch=1 c=64 v=0
125011 On ch=1 n=c6 v=0
125047 On ch=1 n=a3 v=47
125053 On ch=1 n=f6 v=70
125101 On ch=1 n=a3 v=0
125133 On ch=1 n=g6 v=67
125143 On ch=1 n=f6 v=0
125211 On ch=1 n=f6 v=75
125217 Par ch=1 c=64 v=127
125243 On ch=1 n=g6 v=0
125243 On ch=1 n=c5 v=64
125259 On ch=1 n=f4 v=88
125263 On ch=1 n=f6 v=0
125319 On ch=1 n=f5 v=73
125371 On ch=1 n=f5 v=0
125421 On ch=1 n=f#5 v=74
125447 On ch=1 n=c5 v=0
125501 On ch=1 n=g5 v=81
125525 On ch=1 n=f4 v=0
125529 On ch=1 n=f#5 v=0
125585 On ch=1 n=f#5 v=77
125585 Par ch=1 c=64 v=0
125593 On ch=1 n=f#4 v=84
125629 On ch=1 n=g5 v=0
125659 On ch=1 n=d5 v=65
125671 On ch=1 n=f#4 v=0
125683 On ch=1 n=f#5 v=0
125705 On ch=1 n=d5 v=0
125789 On ch=1 n=b3 v=78
125791 On ch=1 n=g6 v=94
125829 On ch=1 n=b3 v=0
125855 On ch=1 n=g6 v=0
125867 On ch=1 n=a6 v=66
125939 Par ch=1 c=64 v=127
125945 On ch=1 n=g6 v=85
125967 On ch=1 n=g4 v=91
125973 On ch=1 n=d5 v=87
126011 On ch=1 n=a6 v=0
126049 On ch=1 n=g6 v=0
126049 On ch=1 n=g5 v=80
126117 On ch=1 n=g5 v=0
126155 On ch=1 n=d5 v=0
126169 On ch=1 n=g#5 v=80
126243 On ch=1 n=a5 v=72
126267 On ch=1 n=g4 v=0
126277 On ch=1 n=g#5 v=0
126327 On ch=1 n=g#4 v=75
126327 On ch=1 n=g#5 v=84
126355 Par ch=1 c=64 v=0
126369 On ch=1 n=a5 v=0
126403 On ch=1 n=e5 v=76
126413 On ch=1 n=g#5 v=0
126433 On ch=1 n=g#4 v=0
126441 On ch=1 n=e5 v=0
126525 On ch=1 n=c4 v=87
126561 On ch=1 n=a6 v=94
126567 On ch=1 n=c4 v=0
126643 On ch=1 n=a#6 v=74
126661 Par ch=1 c=64 v=127
126679 On ch=1 n=a6 v=0
126735 On ch=1 n=d#5 v=85
126737 On ch=1 n=a6 v=89
126739 On ch=1 n=a4 v=65
126757 On ch=1 n=f#4 v=66
126799 On ch=1 n=a4 v=0
126802 On ch=1 n=f#4 v=0
126817 On ch=1 n=a#6 v=0
126823 On ch=1 n=c6 v=78
126839 On ch=1 n=a6 v=0
126849 On ch=1 n=d#5 v=0
126881 On ch=1 n=c6 v=0
126939 On ch=1 n=c7 v=91
126985 Par ch=1 c=64 v=0
127025 On ch=1 n=d7 v=70
127041 On ch=1 n=c7 v=0
127085 On ch=1 n=f#5 v=66
127093 On ch=1 n=c7 v=73
127097 On ch=1 n=a4 v=68
127115 On ch=1 n=d#5 v=46
127153 On ch=1 n=d7 v=0
127163 On ch=1 n=d#5 v=0
127177 On ch=1 n=a4 v=0
127181 On ch=1 n=c6 v=67
127189 On ch=1 n=f#5 v=0
127203 On ch=1 n=c7 v=0
127249 On ch=1 n=c6 v=0
127283 On ch=1 n=c7 v=80
127286 On ch=1 n=g5 v=89
127289 On ch=1 n=e5 v=91
127301 On ch=1 n=a#4 v=60
127351 On ch=1 n=g5 v=0
127351 On ch=1 n=e5 v=0
127369 Par ch=1 c=64 v=127
127409 On ch=1 n=c7 v=0
127411 On ch=1 n=d7 v=49
127421 On ch=1 n=a#4 v=0
127463 On ch=1 n=c7 v=66
127487 On ch=1 n=d7 v=0
127537 Par ch=1 c=64 v=0
127547 On ch=1 n=c7 v=0
127577 On ch=1 n=c6 v=52
127631 On ch=1 n=c6 v=0
127651 On ch=1 n=c5 v=79
127661 On ch=1 n=c4 v=64
127667 On ch=1 n=a#6 v=87
127671 On ch=1 n=e4 v=51
127693 On ch=1 n=c5 v=0
127723 On ch=1 n=e4 v=0
127737 Par ch=1 c=64 v=127
127757 On ch=1 n=c6 v=59
127773 On ch=1 n=c4 v=0
127793 On ch=1 n=a#6 v=0
127813 On ch=1 n=c6 v=0
127845 Par ch=1 c=64 v=0
127869 On ch=1 n=g6 v=71
127877 On ch=1 n=f3 v=86
127923 On ch=1 n=c6 v=67
127929 On ch=1 n=g6 v=0
127935 On ch=1 n=c4 v=55
127987 On ch=1 n=c6 v=0
127991 On ch=1 n=f3 v=0
128011 On ch=1 n=a4 v=89
128033 On ch=1 n=c4 v=0
128043 On ch=1 n=f6 v=96
128047 On ch=1 n=a4 v=0
128105 Par ch=1 c=64 v=127
128125 On ch=1 n=g6 v=90
128171 On ch=1 n=f6 v=0
128199 Par ch=1 c=64 v=0
128215 On ch=1 n=f6 v=40
128293 On ch=1 n=g6 v=0
128305 On ch=1 n=c6 v=72
128347 On ch=1 n=f6 v=0
128347 On ch=1 n=c6 v=0
128399 On ch=1 n=a5 v=69
128475 On ch=1 n=a#5 v=78
128481 On ch=1 n=a5 v=0
128537 On ch=1 n=a#5 v=0
128569 On ch=1 n=a5 v=46
128659 On ch=1 n=f5 v=69
128677 On ch=1 n=a5 v=0
128729 On ch=1 n=f5 v=0
128761 On ch=1 n=c5 v=91
128825 On ch=1 n=c5 v=0
128847 On ch=1 n=d5 v=80
128911 On ch=1 n=c5 v=51
128969 On ch=1 n=d5 v=0
129011 On ch=1 n=a4 v=58
129027 On ch=1 n=c5 v=0
129059 On ch=1 n=a4 v=0
129113 On ch=1 n=f4 v=92
129165 On ch=1 n=f4 v=0
129189 On ch=1 n=g4 v=71
129243 On ch=1 n=g4 v=0
129269 On ch=1 n=f4 v=84
129311 On ch=1 n=f4 v=0
129349 On ch=1 n=c4 v=65
129413 On ch=1 n=c4 v=0
129536 On ch=1 n=f6 v=70
129546 On ch=1 n=f3 v=49
129594 On ch=1 n=f6 v=0
129594 On ch=1 n=f3 v=0
129618 On ch=1 n=g6 v=56
129644 Par ch=1 c=64 v=127
129682 On ch=1 n=g6 v=0
129684 On ch=1 n=f6 v=51
129752 On ch=1 n=f6 v=0
129812 On ch=1 n=f5 v=47
129860 Par ch=1 c=64 v=0
129868 On ch=1 n=f5 v=0
129878 On ch=1 n=d#5 v=61
129896 On ch=1 n=c6 v=53
129906 On ch=1 n=a4 v=29
129924 On ch=1 n=d#5 v=0
129960 On ch=1 n=c6 v=0
129978 On ch=1 n=a4 v=0
129980 On ch=1 n=d6 v=54
130044 On ch=1 n=c6 v=42
130054 On ch=1 n=d6 v=0
130138 On ch=1 n=d#5 v=59
130142 On ch=1 n=c6 v=0
130144 On ch=1 n=a4 v=42
130146 On ch=1 n=f5 v=47
130204 On ch=1 n=f5 v=0
130210 On ch=1 n=a4 v=0
130228 On ch=1 n=b5 v=76
130258 On ch=1 n=g#4 v=47
130284 On ch=1 n=b5 v=0
130326 On ch=1 n=c6 v=59
130400 On ch=1 n=c6 v=0
130400 On ch=1 n=b5 v=62
130460 On ch=1 n=b5 v=0
130496 On ch=1 n=f5 v=45
130502 On ch=1 n=g#4 v=0
130560 On ch=1 n=f5 v=0
130588 On ch=1 n=c6 v=68
130594 On ch=1 n=a4 v=51
130612 On ch=1 n=d#5 v=0
130644 On ch=1 n=a4 v=0
130674 On ch=1 n=c6 v=0
130696 On ch=1 n=d6 v=55
130736 Par ch=1 c=64 v=127
130756 On ch=1 n=c6 v=39
130808 On ch=1 n=d6 v=0
130842 On ch=1 n=f5 v=52
130858 Par ch=1 c=64 v=0
130862 On ch=1 n=c6 v=0
130890 On ch=1 n=f5 v=0
130946 On ch=1 n=f3 v=71
130962 On ch=1 n=f6 v=83
130986 On ch=1 n=f3 v=0
131034 On ch=1 n=g6 v=79
131060 On ch=1 n=f6 v=0
131074 Par ch=1 c=64 v=127
131126 On ch=1 n=f6 v=61
131162 On ch=1 n=g6 v=0
131165 Par ch=1 c=64 v=0
131202 On ch=1 n=d6 v=81
131244 On ch=1 n=f6 v=0
131247 On ch=1 n=d6 v=0
131304 On ch=1 n=a#5 v=65
131384 On ch=1 n=c6 v=71
131390 On ch=1 n=a#5 v=0
131464 On ch=1 n=a#5 v=49
131474 On ch=1 n=c6 v=0
131560 On ch=1 n=f5 v=55
131588 On ch=1 n=a#5 v=0
131632 On ch=1 n=d5 v=54
131692 On ch=1 n=f5 v=0
131730 On ch=1 n=d#5 v=61
131762 On ch=1 n=d5 v=0
131822 On ch=1 n=d#5 v=0
131838 On ch=1 n=d5 v=60
131908 On ch=1 n=d5 v=0
131924 On ch=1 n=a#4 v=54
131978 On ch=1 n=a#4 v=0
132004 On ch=1 n=f4 v=91
132044 On ch=1 n=f4 v=0
132068 On ch=1 n=g4 v=72
132130 On ch=1 n=g4 v=0
132136 On ch=1 n=f4 v=81
132216 On ch=1 n=f4 v=0
132224 On ch=1 n=d4 v=73
132266 On ch=1 n=d4 v=0
132352 On ch=1 n=c6 v=79
132360 On ch=1 n=f3 v=75
132400 On ch=1 n=f3 v=0
132412 On ch=1 n=d6 v=76
132420 On ch=1 n=c6 v=0
132486 Par ch=1 c=64 v=127
132494 On ch=1 n=c6 v=65
132542 On ch=1 n=d6 v=0
132588 On ch=1 n=c6 v=0
132604 On ch=1 n=c5 v=69
132648 On ch=1 n=c5 v=0
132656 Par ch=1 c=64 v=0
132694 On ch=1 n=g5 v=69
132696 On ch=1 n=a#4 v=67
132699 On ch=1 n=e4 v=76
132736 On ch=1 n=e4 v=0
132748 On ch=1 n=a#4 v=0
132766 On ch=1 n=a5 v=62
132772 On ch=1 n=g5 v=0
132854 On ch=1 n=g5 v=67
132884 On ch=1 n=a5 v=0
132948 On ch=1 n=c5 v=39
132956 On ch=1 n=g5 v=0
132958 On ch=1 n=a#4 v=49
132972 On ch=1 n=e4 v=57
133022 On ch=1 n=c5 v=0
133024 On ch=1 n=e4 v=0
133048 On ch=1 n=a#5 v=78
133066 On ch=1 n=d#4 v=67
133142 On ch=1 n=a#5 v=0
133154 On ch=1 n=c6 v=25
133200 On ch=1 n=a#5 v=58
133234 On ch=1 n=c6 v=0
133306 On ch=1 n=c5 v=60
133324 On ch=1 n=a#5 v=0
133340 On ch=1 n=d#4 v=0
133404 On ch=1 n=a5 v=55
133422 On ch=1 n=e4 v=61
133438 On ch=1 n=c5 v=0
133474 On ch=1 n=e4 v=0
133482 On ch=1 n=a5 v=0
133484 On ch=1 n=a#5 v=48
133516 On ch=1 n=a#4 v=0
133554 On ch=1 n=a5 v=43
133594 On ch=1 n=a#5 v=0
133594 Par ch=1 c=64 v=127
133644 On ch=1 n=c5 v=52
133668 On ch=1 n=a5 v=0
133670 Par ch=1 c=64 v=0
133718 On ch=1 n=c5 v=0
133756 On ch=1 n=f5 v=76
133766 On ch=1 n=f3 v=56
133822 On ch=1 n=f5 v=0
133836 On ch=1 n=g5 v=68
133842 On ch=1 n=f3 v=0
133932 On ch=1 n=f5 v=63
133964 On ch=1 n=g5 v=0
134024 On ch=1 n=c5 v=55
134038 On ch=1 n=f5 v=0
134074 On ch=1 n=c5 v=0
134118 On ch=1 n=a4 v=59
134184 On ch=1 n=a#4 v=72
134189 On ch=1 n=a4 v=0
134286 On ch=1 n=a4 v=46
134300 On ch=1 n=a#4 v=0
134392 On ch=1 n=f4 v=83
134420 On ch=1 n=a4 v=0
134430 On ch=1 n=f4 v=0
134478 On ch=1 n=c4 v=91
134574 On ch=1 n=d4 v=75
134582 On ch=1 n=c4 v=0
134648 On ch=1 n=c4 v=62
134686 On ch=1 n=d4 v=0
134738 On ch=1 n=a3 v=62
134756 On ch=1 n=c4 v=0
134788 On ch=1 n=a3 v=0
134822 On ch=1 n=f3 v=68
134902 On ch=1 n=f3 v=0
134910 On ch=1 n=g3 v=70
134978 On ch=1 n=g3 v=0
134978 On ch=1 n=f3 v=72
135058 On ch=1 n=c3 v=68
135068 On ch=1 n=f3 v=0
135096 On ch=1 n=c3 v=0
135166 On ch=1 n=f2 v=99
135169 On ch=1 n=f5 v=68
135204 On ch=1 n=f2 v=0
135218 On ch=1 n=f5 v=0
135222 On ch=1 n=g5 v=66
135284 Par ch=1 c=64 v=127
135290 On ch=1 n=g5 v=0
135306 On ch=1 n=f5 v=48
135378 On ch=1 n=f5 v=0
135414 On ch=1 n=f4 v=88
135484 Par ch=1 c=64 v=0
135502 On ch=1 n=f4 v=0
135528 On ch=1 n=c5 v=69
135531 On ch=1 n=d#4 v=66
135542 On ch=1 n=a3 v=52
135596 On ch=1 n=d#4 v=0
135596 On ch=1 n=a3 v=0
135610 On ch=1 n=d5 v=79
135638 On ch=1 n=c5 v=0
135700 On ch=1 n=c5 v=76
135720 On ch=1 n=d5 v=0
135780 On ch=1 n=c5 v=0
135790 On ch=1 n=d#4 v=57
135790 On ch=1 n=a3 v=57
135790 On ch=1 n=f4 v=92
135844 On ch=1 n=f4 v=0
135856 On ch=1 n=a3 v=0
135866 On ch=1 n=g#3 v=92
135886 On ch=1 n=b4 v=89
135974 On ch=1 n=c5 v=81
135984 On ch=1 n=b4 v=0
136054 On ch=1 n=b4 v=81
136094 On ch=1 n=c5 v=0
136148 On ch=1 n=b4 v=0
136156 On ch=1 n=f4 v=85
136206 On ch=1 n=f4 v=0
136214 On ch=1 n=g#3 v=0
136242 On ch=1 n=a3 v=69
136246 On ch=1 n=c5 v=69
136324 On ch=1 n=d#4 v=0
136342 On ch=1 n=d5 v=51
136345 On ch=1 n=a3 v=0
136352 On ch=1 n=c5 v=0
136416 On ch=1 n=c5 v=75
136460 On ch=1 n=d5 v=0
136482 Par ch=1 c=64 v=127
136508 On ch=1 n=f4 v=85
136536 On ch=1 n=c5 v=0
136554 On ch=1 n=f4 v=0
136558 Par ch=1 c=64 v=0
136618 On ch=1 n=f2 v=78
136640 On ch=1 n=f5 v=86
136664 On ch=1 n=f2 v=0
136716 On ch=1 n=g5 v=73
136760 On ch=1 n=f5 v=0
136816 On ch=1 n=f5 v=43
136858 On ch=1 n=g5 v=0
136896 On ch=1 n=d5 v=77
136924 On ch=1 n=f5 v=0
136938 On ch=1 n=d5 v=0
137002 On ch=1 n=a#4 v=65
137102 On ch=1 n=c5 v=72
137124 On ch=1 n=a#4 v=0
137178 On ch=1 n=a#4 v=66
137198 On ch=1 n=c5 v=0
137284 On ch=1 n=f4 v=83
137294 On ch=1 n=a#4 v=0
137370 On ch=1 n=f4 v=0
137388 On ch=1 n=d4 v=79
137468 On ch=1 n=d4 v=0
137484 On ch=1 n=e4 v=51
137548 On ch=1 n=e4 v=0
137548 On ch=1 n=d4 v=66
137626 On ch=1 n=a#3 v=48
137672 On ch=1 n=d4 v=0
137692 On ch=1 n=a#3 v=0
137740 On ch=1 n=f3 v=64
137786 On ch=1 n=f3 v=0
137820 On ch=1 n=g3 v=48
137881 On ch=1 n=f3 v=57
137884 On ch=1 n=g3 v=0
137969 On ch=1 n=f3 v=0
137970 On ch=1 n=d3 v=60
138014 On ch=1 n=d3 v=0
138090 On ch=1 n=f2 v=92
138104 On ch=1 n=c5 v=71
138174 On ch=1 n=f2 v=0
138174 On ch=1 n=c5 v=0
138174 On ch=1 n=d5 v=63
138228 On ch=1 n=d5 v=0
138250 Par ch=1 c=64 v=127
138253 On ch=1 n=c5 v=66
138352 On ch=1 n=c5 v=0
138368 On ch=1 n=c4 v=63
138402 Par ch=1 c=64 v=0
138416 On ch=1 n=c4 v=0
138442 On ch=1 n=a#3 v=61
138456 On ch=1 n=e3 v=87
138476 On ch=1 n=g4 v=78
138492 On ch=1 n=e3 v=0
138502 On ch=1 n=a#3 v=0
138550 On ch=1 n=a4 v=70
138582 On ch=1 n=g4 v=0
138642 On ch=1 n=g4 v=79
138654 On ch=1 n=a4 v=0
138710 On ch=1 n=e3 v=84
138720 On ch=1 n=g4 v=0
138720 On ch=1 n=a#3 v=55
138730 On ch=1 n=c4 v=55
138758 On ch=1 n=e3 v=0
138802 On ch=1 n=d#3 v=86
138816 On ch=1 n=a#4 v=65
138838 On ch=1 n=c4 v=0
138896 On ch=1 n=c5 v=59
138932 On ch=1 n=a#4 v=0
138988 On ch=1 n=a#4 v=61
138994 On ch=1 n=c5 v=0
139074 On ch=1 n=c4 v=49
139134 On ch=1 n=a#4 v=0
139154 On ch=1 n=d#3 v=0
139178 On ch=1 n=a4 v=53
139180 On ch=1 n=e3 v=84
139192 On ch=1 n=c4 v=0
139232 On ch=1 n=a#4 v=27
139238 On ch=1 n=a4 v=0
139272 On ch=1 n=e3 v=0
139286 On ch=1 n=a#3 v=0
139322 On ch=1 n=a4 v=46
139362 On ch=1 n=a#4 v=0
139414 On ch=1 n=c4 v=41
139436 On ch=1 n=a4 v=0
139496 On ch=1 n=c4 v=0
139530 On ch=1 n=f4 v=108
139533 On ch=1 n=f2 v=84
139542 On ch=1 n=f3 v=79
139602 On ch=1 n=f2 v=0
139616 On ch=1 n=g4 v=84
139624 On ch=1 n=f4 v=0
139642 On ch=1 n=f3 v=0
139694 On ch=1 n=f4 v=100
139752 On ch=1 n=g4 v=0
139804 On ch=1 n=c4 v=62
139826 On ch=1 n=f4 v=0
139860 On ch=1 n=c4 v=0
139888 On ch=1 n=a3 v=48
139946 On ch=1 n=a#3 v=66
139948 On ch=1 n=a3 v=0
140044 On ch=1 n=a3 v=44
140088 On ch=1 n=a#3 v=0
140152 On ch=1 n=f3 v=73
140178 On ch=1 n=a3 v=0
140202 On ch=1 n=f3 v=0
140274 On ch=1 n=b4 v=82
140276 On ch=1 n=f5 v=93
140286 On ch=1 n=c#4 v=61
140288 On ch=1 n=c#3 v=69
140320 On ch=1 n=b4 v=0
140356 On ch=1 n=c#3 v=0
140356 On ch=1 n=c5 v=63
140380 On ch=1 n=c#4 v=0
140416 Par ch=1 c=64 v=127
140438 On ch=1 n=b4 v=68
140488 On ch=1 n=b4 v=0
140500 On ch=1 n=c5 v=0
140528 On ch=1 n=f4 v=102
140584 Par ch=1 c=64 v=0
140612 On ch=1 n=f4 v=0
140634 On ch=1 n=c#4 v=61
140704 On ch=1 n=c#4 v=0
140710 On ch=1 n=g#4 v=76
140742 On ch=1 n=f5 v=0
140792 On ch=1 n=c#4 v=62
140816 Par ch=1 c=64 v=127
140828 On ch=1 n=g#4 v=0
140876 Par ch=1 c=64 v=0
140880 On ch=1 n=g#3 v=70
140904 On ch=1 n=c#4 v=0
140920 On ch=1 n=g#3 v=0
141018 On ch=1 n=f5 v=91
141028 On ch=1 n=a5 v=74
141036 On ch=1 n=c3 v=91
141039 On ch=1 n=c4 v=52
141066 On ch=1 n=c3 v=0
141096 On ch=1 n=c4 v=0
141110 On ch=1 n=f5 v=0
141118 On ch=1 n=g5 v=65
141122 Par ch=1 c=64 v=127
141200 On ch=1 n=f5 v=59
141236 On ch=1 n=g5 v=0
141298 On ch=1 n=a4 v=76
141326 On ch=1 n=f5 v=0
141360 On ch=1 n=a4 v=0
141382 On ch=1 n=c4 v=72
141466 On ch=1 n=a4 v=58
141474 On ch=1 n=a5 v=0
141484 On ch=1 n=c4 v=0
141566 On ch=1 n=c4 v=45
141580 On ch=1 n=a4 v=0
141614 On ch=1 n=a3 v=61
141630 Par ch=1 c=64 v=0
141646 On ch=1 n=c4 v=0
141662 On ch=1 n=a3 v=0
141750 On ch=1 n=c6 v=94
141756 On ch=1 n=g5 v=83
141770 On ch=1 n=c3 v=75
141780 On ch=1 n=c4 v=60
141800 On ch=1 n=g5 v=0
141812 On ch=1 n=c3 v=0
141828 On ch=1 n=a5 v=69
141830 On ch=1 n=c4 v=0
141890 Par ch=1 c=64 v=127
141910 On ch=1 n=g5 v=67
141946 On ch=1 n=a5 v=0
141966 On ch=1 n=g5 v=0
142002 On ch=1 n=c5 v=80
142082 On ch=1 n=c5 v=0
142092 On ch=1 n=e4 v=69
142140 On ch=1 n=e4 v=0
142154 On ch=1 n=a#4 v=63
142172 On ch=1 n=c6 v=0
142240 On ch=1 n=a#4 v=0
142246 On ch=1 n=e4 v=64
142326 On ch=1 n=a#3 v=70
142342 On ch=1 n=e4 v=0
142368 Par ch=1 c=64 v=0
142384 On ch=1 n=a#3 v=0
142458 On ch=1 n=f6 v=98
142464 On ch=1 n=c6 v=83
142474 On ch=1 n=f4 v=101
142477 On ch=1 n=f3 v=87
142508 On ch=1 n=c6 v=0
142516 On ch=1 n=f4 v=0
142538 On ch=1 n=f3 v=0
142538 On ch=1 n=d6 v=74
142610 On ch=1 n=c6 v=71
142628 Par ch=1 c=64 v=127
142652 On ch=1 n=d6 v=0
142706 On ch=1 n=f5 v=70
142722 On ch=1 n=c6 v=0
142725 On ch=1 n=f6 v=0
142770 On ch=1 n=f5 v=0
142802 On ch=1 n=c4 v=62
142872 On ch=1 n=a4 v=65
142880 On ch=1 n=c4 v=0
142974 On ch=1 n=a4 v=0
142974 On ch=1 n=c4 v=45
143018 On ch=1 n=a3 v=70
143042 On ch=1 n=c4 v=0
143058 Par ch=1 c=64 v=0
143070 On ch=1 n=a3 v=0
143174 On ch=1 n=c#4 v=95
143176 On ch=1 n=b5 v=103
143180 On ch=1 n=f6 v=100
143184 On ch=1 n=c#3 v=95
143220 On ch=1 n=c#3 v=0
143258 On ch=1 n=c#4 v=0
143262 On ch=1 n=b5 v=0
143272 On ch=1 n=c6 v=87
143304 Par ch=1 c=64 v=127
143330 On ch=1 n=b5 v=80
143420 On ch=1 n=c6 v=0
143426 On ch=1 n=f5 v=80
143446 On ch=1 n=b5 v=0
143494 On ch=1 n=f5 v=0
143538 On ch=1 n=c#5 v=80
143594 On ch=1 n=f6 v=0
143634 On ch=1 n=g#5 v=72
143658 On ch=1 n=c#5 v=0
143718 On ch=1 n=c#5 v=77
143721 On ch=1 n=g#5 v=0
143762 On ch=1 n=g#4 v=70
143798 On ch=1 n=c#5 v=0
143810 On ch=1 n=g#4 v=0
143826 Par ch=1 c=64 v=0
143926 On ch=1 n=f6 v=102
143931 On ch=1 n=a6 v=99
143954 On ch=1 n=c3 v=94
143960 On ch=1 n=c4 v=89
143984 On ch=1 n=c3 v=0
144000 On ch=1 n=c4 v=0
144010 On ch=1 n=f6 v=0
144024 On ch=1 n=g6 v=85
144088 Par ch=1 c=64 v=127
144106 On ch=1 n=f6 v=54
144192 On ch=1 n=a5 v=69
144266 On ch=1 n=a5 v=0
144278 On ch=1 n=c5 v=78
144290 On ch=1 n=g6 v=0
144290 On ch=1 n=f6 v=0
144354 On ch=1 n=a6 v=0
144368 On ch=1 n=a5 v=73
144384 On ch=1 n=c5 v=0
144458 On ch=1 n=c5 v=58
144486 On ch=1 n=a5 v=0
144526 On ch=1 n=a4 v=57
144548 Par ch=1 c=64 v=0
144566 On ch=1 n=c5 v=0
144572 On ch=1 n=a4 v=0
144648 On ch=1 n=c7 v=105
144648 On ch=1 n=g6 v=98
144662 On ch=1 n=c5 v=81
144670 On ch=1 n=c4 v=69
144708 On ch=1 n=g6 v=0
144708 On ch=1 n=c5 v=0
144718 On ch=1 n=c4 v=0
144746 On ch=1 n=a6 v=80
144764 Par ch=1 c=64 v=127
144830 On ch=1 n=g6 v=84
144922 On ch=1 n=c6 v=80
144954 On ch=1 n=a6 v=0
144978 On ch=1 n=c6 v=0
144986 On ch=1 n=g6 v=0
144986 On ch=1 n=e5 v=75
145060 On ch=1 n=e5 v=0
145062 On ch=1 n=a#5 v=75
145082 On ch=1 n=c7 v=0
145152 On ch=1 n=e5 v=64
145168 On ch=1 n=a#5 v=0
145198 On ch=1 n=e5 v=0
145202 On ch=1 n=a#4 v=69
145240 On ch=1 n=a#4 v=0
145286 Par ch=1 c=64 v=0
145396 On ch=1 n=f3 v=91
145424 On ch=1 n=c4 v=72
145426 On ch=1 n=f7 v=102
145432 On ch=1 n=c7 v=100
145438 On ch=1 n=f3 v=0
145480 On ch=1 n=a4 v=99
145486 On ch=1 n=c4 v=0
145506 On ch=1 n=c#4 v=9
145516 Par ch=1 c=64 v=127
145522 On ch=1 n=a4 v=0
145528 On ch=1 n=c7 v=0
145534 On ch=1 n=d7 v=84
145552 On ch=1 n=c#4 v=0
145618 On ch=1 n=c7 v=70
145718 On ch=1 n=d7 v=0
145724 On ch=1 n=f6 v=67
145748 On ch=1 n=c7 v=0
145856 On ch=1 n=c5 v=64
145858 On ch=1 n=f6 v=0
145924 On ch=1 n=a5 v=60
145940 On ch=1 n=c5 v=0
146002 On ch=1 n=a5 v=0
146005 On ch=1 n=f7 v=0
146026 On ch=1 n=c5 v=52
146106 On ch=1 n=a4 v=64
146130 On ch=1 n=c5 v=0
146152 On ch=1 n=a4 v=0
146200 On ch=1 n=f7 v=106
146210 On ch=1 n=c7 v=94
146248 On ch=1 n=c7 v=0
146296 On ch=1 n=d7 v=72
146364 On ch=1 n=c7 v=74
146432 On ch=1 n=d7 v=0
146456 On ch=1 n=f6 v=78
146490 On ch=1 n=c7 v=0
146546 On ch=1 n=f7 v=0
146546 On ch=1 n=c5 v=72
146586 On ch=1 n=f6 v=0
146632 On ch=1 n=a5 v=50
146634 On ch=1 n=c5 v=0
146728 On ch=1 n=a5 v=0
146734 On ch=1 n=c5 v=33
146806 On ch=1 n=a4 v=63
146838 On ch=1 n=c5 v=0
146896 On ch=1 n=a4 v=0
146940 On ch=1 n=c7 v=98
146952 On ch=1 n=a6 v=78
146996 On ch=1 n=a6 v=0
147022 On ch=1 n=a#6 v=56
147114 On ch=1 n=a6 v=56
147190 On ch=1 n=a#6 v=0
147215 On ch=1 n=c6 v=57
147238 On ch=1 n=a6 v=0
147252 On ch=1 n=c7 v=0
147320 On ch=1 n=a4 v=29
147336 On ch=1 n=c6 v=0
147376 On ch=1 n=f5 v=52
147388 On ch=1 n=a4 v=0
147430 On ch=1 n=f5 v=0
147450 On ch=1 n=a4 v=65
147550 On ch=1 n=f4 v=83
147554 On ch=1 n=a4 v=0
147598 On ch=1 n=f4 v=0
147664 On ch=1 n=f6 v=78
147670 On ch=1 n=a6 v=72
147714 On ch=1 n=f6 v=0
147756 On ch=1 n=g6 v=71
147848 On ch=1 n=f6 v=54
147884 On ch=1 n=g6 v=0
147920 On ch=1 n=f6 v=0
147938 On ch=1 n=a5 v=42
147942 On ch=1 n=a6 v=0
148008 On ch=1 n=a5 v=0
148040 On ch=1 n=f4 v=59
148094 On ch=1 n=f4 v=0
148110 On ch=1 n=c5 v=52
148178 On ch=1 n=c5 v=0
148194 On ch=1 n=f4 v=51
148294 On ch=1 n=f4 v=0
148304 On ch=1 n=c4 v=49
148354 On ch=1 n=c4 v=0
148620 Par ch=1 c=64 v=0
148933 On ch=1 n=f5 v=37
148938 On ch=1 n=f3 v=38
148940 On ch=1 n=a4 v=36
148940 On ch=1 n=c4 v=32
148992 On ch=1 n=f3 v=0
148996 On ch=1 n=a4 v=0
149010 On ch=1 n=c4 v=0
149020 Par ch=1 c=64 v=127
149024 On ch=1 n=f5 v=0
149392 On ch=1 n=a5 v=50
149394 On ch=1 n=c5 v=32
149398 On ch=1 n=f6 v=58
149406 On ch=1 n=f4 v=39
149446 On ch=1 n=a5 v=0
149446 On ch=1 n=f6 v=0
149468 On ch=1 n=c5 v=0
149470 On ch=1 n=f4 v=0
149774 On ch=1 n=f7 v=77
149778 On ch=1 n=a6 v=63
149794 On ch=1 n=c6 v=43
149822 On ch=1 n=a6 v=0
149832 On ch=1 n=f7 v=0
149852 On ch=1 n=c6 v=0
150214 On ch=1 n=f8 v=48
150214 On ch=1 n=a7 v=40
150217 On ch=1 n=c7 v=51
150230 On ch=1 n=f6 v=23
150266 On ch=1 n=c7 v=0
150269 On ch=1 n=f8 v=0
150280 On ch=1 n=a7 v=0
150286 On ch=1 n=f6 v=0
150608 On ch=1 n=a7 v=39
150610 On ch=1 n=f8 v=62
150624 On ch=1 n=c7 v=45
150625 On ch=1 n=f6 v=22
150650 On ch=1 n=f8 v=0
150668 On ch=1 n=a7 v=0
150676 On ch=1 n=c7 v=0
150690 On ch=1 n=f6 v=0
151024 On ch=1 n=f5 v=17
151026 On ch=1 n=c6 v=31
151026 On ch=1 n=a6 v=41
151032 On ch=1 n=f7 v=36
151084 On ch=1 n=a6 v=0
151092 On ch=1 n=f5 v=0
151096 On ch=1 n=c6 v=0
151096 On ch=1 n=f7 v=0
151454 On ch=1 n=c5 v=22
151456 On ch=1 n=f6 v=44
151458 On ch=1 n=a5 v=27
151458 On ch=1 n=f4 v=33
151504 On ch=1 n=f6 v=0
151519 On ch=1 n=c5 v=0
151520 On ch=1 n=f4 v=0
151536 On ch=1 n=a5 v=0
151966 On ch=1 n=f5 v=36
151966 On ch=1 n=c4 v=13
151974 On ch=1 n=f3 v=18
151976 On ch=1 n=a4 v=17
152024 On ch=1 n=f5 v=0
152040 On ch=1 n=f3 v=0
152044 On ch=1 n=c4 v=0
152052 On ch=1 n=a4 v=0
152814 Par ch=1 c=64 v=0
152858 On ch=1 n=f3 v=30
152864 On ch=1 n=a4 v=27
152864 On ch=1 n=c4 v=19
152870 On ch=1 n=f5 v=31
152992 On ch=1 n=a4 v=0
153016 Par ch=1 c=64 v=127
153022 On ch=1 n=c4 v=0
153032 On ch=1 n=f3 v=0
153048 On ch=1 n=f5 v=0
153952 Par ch=1 c=64 v=0
154014 On ch=1 n=f6 v=20
154014 On ch=1 n=c5 v=11
154016 On ch=1 n=a5 v=4
154017 On ch=1 n=f4 v=19
154106 On ch=1 n=a5 v=0
154108 On ch=1 n=f4 v=0
154114 On ch=1 n=c5 v=0
154152 Par ch=1 c=64 v=127
154198 On ch=1 n=f6 v=0
157440 Par ch=1 c=64 v=0
157440 Meta TrkEnd
TrkEnd
