MFile 0 1 480
MTrk
0 SMPTE 96 0 0 0 0
0 TimeSig 4/4 24 8
0 KeySig 0 major
0 Tempo 500000
0 On ch=1 n=c5 v=84
440 Par ch=1 c=64 v=127
550 On ch=1 n=f4 v=111
870 On ch=1 n=a2 v=48
934 On ch=1 n=f3 v=54
978 On ch=1 n=c4 v=79
978 On ch=1 n=f5 v=97
1008 Off ch=1 n=a2 v=64
1070 Off ch=1 n=c4 v=64
1096 Off ch=1 n=c5 v=64
1099 Off ch=1 n=f3 v=64
1104 Off ch=1 n=f4 v=64
1292 On ch=1 n=a#2 v=69
1346 On ch=1 n=f3 v=79
1362 Par ch=1 c=64 v=0
1380 On ch=1 n=g4 v=86
1388 On ch=1 n=f4 v=117
1398 On ch=1 n=c#4 v=91
1406 Off ch=1 n=a#2 v=64
1506 Off ch=1 n=f3 v=64
1546 Par ch=1 c=64 v=127
1584 Off ch=1 n=c#4 v=64
1668 Off ch=1 n=f4 v=64
1680 On ch=1 n=b2 v=75
1694 Off ch=1 n=g4 v=64
1724 Off ch=1 n=f5 v=64
1764 On ch=1 n=g3 v=58
1766 Off ch=1 n=b2 v=64
1790 On ch=1 n=g5 v=103
1810 On ch=1 n=d4 v=91
1912 Off ch=1 n=g3 v=64
1944 Off ch=1 n=d4 v=64
2064 On ch=1 n=c3 v=78
2130 Par ch=1 c=64 v=0
2148 On ch=1 n=g3 v=79
2212 Off ch=1 n=c3 v=64
2226 On ch=1 n=c5 v=98
2250 On ch=1 n=e4 v=101
2260 Off ch=1 n=g3 v=64
2308 Off ch=1 n=g5 v=64
2314 Par ch=1 c=64 v=127
2372 Off ch=1 n=c5 v=64
2396 Off ch=1 n=e4 v=64
2510 On ch=1 n=e3 v=97
2614 On ch=1 n=c4 v=66
2680 Off ch=1 n=e3 v=64
2780 Off ch=1 n=c4 v=64
2788 On ch=1 n=c6 v=106
2810 On ch=1 n=g5 v=72
2813 On ch=1 n=c5 v=63
2813 On ch=1 n=g4 v=89
2856 Off ch=1 n=g4 v=64
3066 Off ch=1 n=c5 v=64
3312 Off ch=1 n=g5 v=64
3670 On ch=1 n=a#5 v=83
3784 Off ch=1 n=c6 v=64
3926 On ch=1 n=a5 v=86
3992 Off ch=1 n=a#5 v=64
4058 On ch=1 n=f3 v=89
4066 Par ch=1 c=64 v=0
4118 On ch=1 n=c4 v=68
4124 On ch=1 n=g5 v=91
4150 Off ch=1 n=f3 v=64
4196 Off ch=1 n=a5 v=64
4220 Par ch=1 c=64 v=127
4220 On ch=1 n=f4 v=97
4256 Off ch=1 n=c4 v=64
4332 Off ch=1 n=f4 v=64
4338 On ch=1 n=a#4 v=70
4342 On ch=1 n=a#5 v=87
4430 Off ch=1 n=g5 v=64
4546 Off ch=1 n=a#4 v=64
4562 On ch=1 n=a5 v=83
4574 On ch=1 n=a4 v=83
4664 Off ch=1 n=a#5 v=64
4758 On ch=1 n=g5 v=92
4760 On ch=1 n=g4 v=88
4772 Off ch=1 n=a4 v=64
4814 Off ch=1 n=a5 v=64
4938 On ch=1 n=f5 v=95
4946 On ch=1 n=f4 v=101
4952 Off ch=1 n=g5 v=64
4958 Off ch=1 n=g4 v=64
5042 Off ch=1 n=f4 v=64
5114 Off ch=1 n=f5 v=64
5164 On ch=1 n=d5 v=94
5164 On ch=1 n=d6 v=100
5164 On ch=1 n=a#5 v=79
5167 On ch=1 n=f#5 v=80
5172 On ch=1 n=a#4 v=72
5174 On ch=1 n=d4 v=84
5186 Par ch=1 c=64 v=0
5446 Off ch=1 n=d5 v=64
5449 Par ch=1 c=64 v=127
5476 Off ch=1 n=d6 v=64
5536 Off ch=1 n=a#4 v=64
5570 On ch=1 n=c6 v=91
5573 On ch=1 n=a5 v=71
5576 On ch=1 n=c5 v=78
5596 On ch=1 n=a4 v=59
5644 Off ch=1 n=a#5 v=64
5694 Par ch=1 c=64 v=0
5832 Off ch=1 n=c5 v=64
5840 Off ch=1 n=a4 v=64
5845 Off ch=1 n=c6 v=64
5848 Par ch=1 c=64 v=127
5872 Off ch=1 n=a5 v=64
5998 On ch=1 n=c6 v=81
6002 Par ch=1 c=64 v=0
6012 On ch=1 n=a5 v=72
6014 On ch=1 n=a4 v=50
6026 On ch=1 n=c5 v=65
6216 Par ch=1 c=64 v=127
6244 Off ch=1 n=a4 v=64
6246 Off ch=1 n=c5 v=64
6254 Off ch=1 n=d4 v=64
6310 Off ch=1 n=f#5 v=64
6313 Off ch=1 n=a5 v=64
6478 On ch=1 n=a#5 v=68
6480 Par ch=1 c=64 v=0
6486 On ch=1 n=a#4 v=43
6488 On ch=1 n=g5 v=57
6500 On ch=1 n=d5 v=47
6500 On ch=1 n=d4 v=41
6518 On ch=1 n=g4 v=39
6546 Off ch=1 n=c6 v=64
6684 Off ch=1 n=d4 v=64
6724 Par ch=1 c=64 v=127
6750 Off ch=1 n=g4 v=64
6758 Off ch=1 n=a#4 v=64
6768 Off ch=1 n=g5 v=64
6768 Off ch=1 n=d5 v=64
6986 Par ch=1 c=64 v=0
7014 On ch=1 n=a5 v=48
7026 Off ch=1 n=a#5 v=64
7026 On ch=1 n=a4 v=27
7036 On ch=1 n=f#4 v=24
7040 On ch=1 n=f#5 v=31
7050 On ch=1 n=d5 v=27
7060 On ch=1 n=d4 v=28
7246 Par ch=1 c=64 v=127
7262 Off ch=1 n=a5 v=64
7266 Off ch=1 n=f#5 v=64
7274 Off ch=1 n=a4 v=64
7276 Off ch=1 n=f#4 v=64
7286 Off ch=1 n=d4 v=64
7372 Off ch=1 n=d5 v=64
7530 On ch=1 n=d5 v=87
7986 On ch=1 n=g4 v=95
8154 Par ch=1 c=64 v=0
8288 On ch=1 n=a#2 v=55
8344 On ch=1 n=g3 v=62
8346 Off ch=1 n=a#2 v=64
8352 Par ch=1 c=64 v=127
8392 On ch=1 n=g5 v=94
8402 On ch=1 n=d4 v=76
8430 Off ch=1 n=g3 v=64
8540 Off ch=1 n=d4 v=64
8558 Off ch=1 n=d5 v=64
8564 Off ch=1 n=g4 v=64
8658 On ch=1 n=b2 v=84
8744 On ch=1 n=g3 v=77
8748 Off ch=1 n=b2 v=64
8751 Par ch=1 c=64 v=0
8786 On ch=1 n=g#4 v=95
8818 On ch=1 n=d#4 v=86
8904 Off ch=1 n=g3 v=64
8904 Par ch=1 c=64 v=127
8992 Off ch=1 n=d#4 v=64
9010 Off ch=1 n=g5 v=64
9034 Off ch=1 n=g#4 v=64
9082 On ch=1 n=c#3 v=69
9156 On ch=1 n=a3 v=64
9166 Par ch=1 c=64 v=0
9178 On ch=1 n=a5 v=90
9188 Off ch=1 n=c#3 v=64
9192 On ch=1 n=a4 v=67
9194 On ch=1 n=g4 v=89
9198 On ch=1 n=e4 v=94
9254 Off ch=1 n=a3 v=64
9310 Off ch=1 n=e4 v=64
9320 Par ch=1 c=64 v=127
9342 Off ch=1 n=g4 v=64
9402 On ch=1 n=d3 v=82
9458 Par ch=1 c=64 v=0
9470 Off ch=1 n=a4 v=64
9488 On ch=1 n=a3 v=68
9522 Off ch=1 n=d3 v=64
9584 Off ch=1 n=a5 v=64
9590 On ch=1 n=d5 v=101
9594 Off ch=1 n=a3 v=64
9598 On ch=1 n=f#4 v=95
9628 Par ch=1 c=64 v=127
9702 Off ch=1 n=d5 v=64
9762 Off ch=1 n=f#4 v=64
9826 On ch=1 n=f#3 v=70
9928 On ch=1 n=d4 v=69
9978 Off ch=1 n=f#3 v=64
10056 Off ch=1 n=d4 v=64
10078 On ch=1 n=d6 v=109
10090 On ch=1 n=d5 v=72
10096 On ch=1 n=c5 v=88
10102 On ch=1 n=a4 v=78
10160 Off ch=1 n=a4 v=64
10210 Off ch=1 n=c5 v=64
10218 Off ch=1 n=d5 v=64
10868 On ch=1 n=c6 v=90
10988 Off ch=1 n=d6 v=64
11084 On ch=1 n=a#5 v=84
11150 Off ch=1 n=c6 v=64
11214 On ch=1 n=g3 v=73
11240 Par ch=1 c=64 v=0
11276 On ch=1 n=a5 v=84
11286 On ch=1 n=d4 v=75
11344 Off ch=1 n=a#5 v=64
11386 Off ch=1 n=g3 v=64
11392 On ch=1 n=g4 v=78
11400 Off ch=1 n=d4 v=64
11410 Par ch=1 c=64 v=127
11484 On ch=1 n=c6 v=89
11496 Off ch=1 n=g4 v=64
11498 On ch=1 n=d5 v=57
11514 On ch=1 n=c5 v=88
11538 Off ch=1 n=a5 v=64
11684 Off ch=1 n=c5 v=64
11718 On ch=1 n=a#5 v=82
11721 On ch=1 n=a#4 v=64
11778 Off ch=1 n=d5 v=64
11892 Off ch=1 n=c6 v=64
11892 Off ch=1 n=a#4 v=64
11908 On ch=1 n=a5 v=84
11911 On ch=1 n=a4 v=78
11990 Off ch=1 n=a#5 v=64
12034 Off ch=1 n=a4 v=64
12088 On ch=1 n=g4 v=86
12091 Off ch=1 n=a5 v=64
12091 On ch=1 n=g5 v=89
12134 Off ch=1 n=g4 v=64
12224 Off ch=1 n=g5 v=64
12304 On ch=1 n=c6 v=93
12312 On ch=1 n=c5 v=81
12314 On ch=1 n=a5 v=66
12314 On ch=1 n=c4 v=78
12316 On ch=1 n=e5 v=84
12354 On ch=1 n=g4 v=32
12360 On ch=1 n=a4 v=25
12362 Par ch=1 c=64 v=0
12500 Off ch=1 n=g4 v=64
12546 Off ch=1 n=a4 v=64
12624 Par ch=1 c=64 v=127
12706 On ch=1 n=a#5 v=81
12708 On ch=1 n=g5 v=83
12724 On ch=1 n=a#4 v=58
12732 Off ch=1 n=c5 v=64
12732 Par ch=1 c=64 v=0
12740 Off ch=1 n=a5 v=64
12746 On ch=1 n=g4 v=55
12780 Off ch=1 n=c6 v=64
12884 Par ch=1 c=64 v=127
12894 Off ch=1 n=g4 v=64
12896 Off ch=1 n=a#4 v=64
12906 Off ch=1 n=g5 v=64
12948 Off ch=1 n=a#5 v=64
13132 On ch=1 n=a#5 v=81
13132 Par ch=1 c=64 v=0
13140 On ch=1 n=g5 v=74
13144 On ch=1 n=a#4 v=60
13166 On ch=1 n=g4 v=62
13386 Off ch=1 n=g4 v=64
13392 Par ch=1 c=64 v=127
13452 Off ch=1 n=g5 v=64
13464 Off ch=1 n=a#5 v=64
13480 Off ch=1 n=e5 v=64
13494 Off ch=1 n=a#4 v=64
13580 On ch=1 n=a5 v=80
13592 Par ch=1 c=64 v=0
13598 On ch=1 n=f5 v=55
13602 On ch=1 n=a4 v=74
13622 On ch=1 n=f4 v=76
13820 Off ch=1 n=f4 v=64
13838 Par ch=1 c=64 v=127
13854 Off ch=1 n=f5 v=64
13900 Off ch=1 n=c4 v=64
13910 Off ch=1 n=a4 v=64
14130 On ch=1 n=f5 v=84
14130 Par ch=1 c=64 v=0
14146 On ch=1 n=c5 v=49
14151 On ch=1 n=f4 v=84
14154 On ch=1 n=a3 v=43
14180 Off ch=1 n=a5 v=64
14406 Par ch=1 c=64 v=127
14440 Off ch=1 n=c5 v=64
14444 Off ch=1 n=f4 v=64
14518 Off ch=1 n=f5 v=64
14542 Off ch=1 n=a3 v=64
14846 On ch=1 n=c5 v=78
14868 Par ch=1 c=64 v=0
15312 Par ch=1 c=64 v=127
15332 On ch=1 n=f4 v=107
15744 On ch=1 n=f5 v=87
15746 On ch=1 n=a3 v=73
15752 On ch=1 n=a2 v=76
15940 Off ch=1 n=c5 v=64
15978 Off ch=1 n=a3 v=64
15984 Off ch=1 n=a2 v=64
16128 Par ch=1 c=64 v=0
16164 On ch=1 n=d5 v=90
16167 On ch=1 n=a#3 v=84
16172 On ch=1 n=a#2 v=82
16280 Off ch=1 n=f5 v=64
16352 Off ch=1 n=d5 v=64
16358 Par ch=1 c=64 v=127
16394 Off ch=1 n=f4 v=64
16440 Off ch=1 n=a#2 v=64
16452 Off ch=1 n=a#3 v=64
16572 On ch=1 n=a#4 v=79
16588 On ch=1 n=f4 v=86
16594 On ch=1 n=d3 v=81
16596 On ch=1 n=d4 v=77
16618 Par ch=1 c=64 v=0
16736 Off ch=1 n=d4 v=64
16804 Off ch=1 n=f4 v=64
16804 Par ch=1 c=64 v=127
16960 Off ch=1 n=a#4 v=64
16980 Off ch=1 n=d3 v=64
16984 On ch=1 n=g4 v=87
16994 On ch=1 n=d4 v=72
16998 On ch=1 n=e3 v=85
17018 Par ch=1 c=64 v=0
17220 Off ch=1 n=d4 v=64
17234 Par ch=1 c=64 v=127
17398 Off ch=1 n=e3 v=64
17400 Off ch=1 n=g4 v=64
17416 On ch=1 n=c#4 v=61
17416 On ch=1 n=a4 v=72
17419 Par ch=1 c=64 v=0
17428 On ch=1 n=e4 v=66
17432 On ch=1 n=a3 v=46
17680 Par ch=1 c=64 v=127
17750 Off ch=1 n=c#4 v=64
17792 Off ch=1 n=e4 v=64
17840 Off ch=1 n=a3 v=64
17848 Par ch=1 c=64 v=0
17874 On ch=1 n=f4 v=94
17876 Off ch=1 n=a4 v=64
17884 On ch=1 n=d4 v=71
17892 On ch=1 n=d3 v=47
18002 Off ch=1 n=d4 v=64
18032 Par ch=1 c=64 v=127
18050 Off ch=1 n=f4 v=64
18050 Off ch=1 n=d3 v=64
18340 On ch=1 n=f5 v=96
18346 On ch=1 n=d#5 v=84
18346 On ch=1 n=a3 v=75
18346 On ch=1 n=a2 v=79
18636 Off ch=1 n=a3 v=64
18750 On ch=1 n=d5 v=90
18752 On ch=1 n=a#2 v=68
18754 On ch=1 n=a#3 v=80
18760 Off ch=1 n=a2 v=64
18770 Par ch=1 c=64 v=0
18782 Off ch=1 n=d#5 v=64
18912 Off ch=1 n=f5 v=64
18954 Par ch=1 c=64 v=127
19006 Off ch=1 n=a#3 v=64
19024 Off ch=1 n=d5 v=64
19106 Off ch=1 n=a#2 v=64
19140 On ch=1 n=a#5 v=86
19156 On ch=1 n=g2 v=81
19156 On ch=1 n=g3 v=75
19159 On ch=1 n=d5 v=77
19186 Par ch=1 c=64 v=0
19318 Off ch=1 n=g2 v=64
19354 Par ch=1 c=64 v=127
19368 Off ch=1 n=g3 v=64
19506 Off ch=1 n=d5 v=64
19554 On ch=1 n=g5 v=88
19554 Par ch=1 c=64 v=0
19560 On ch=1 n=c4 v=64
19566 On ch=1 n=d#5 v=68
19566 On ch=1 n=c3 v=71
19584 Off ch=1 n=a#5 v=64
19722 Par ch=1 c=64 v=127
19728 Off ch=1 n=g5 v=64
19748 Off ch=1 n=c4 v=64
19748 Off ch=1 n=d#5 v=64
19748 Off ch=1 n=c3 v=64
19972 On ch=1 n=d#5 v=86
19980 On ch=1 n=d#4 v=65
19982 On ch=1 n=g4 v=68
19986 On ch=1 n=d#3 v=60
20014 Par ch=1 c=64 v=0
20198 Par ch=1 c=64 v=127
20238 Off ch=1 n=d#3 v=64
20256 Off ch=1 n=g4 v=64
20272 Off ch=1 n=d#4 v=64
20314 Off ch=1 n=d#5 v=64
20368 Par ch=1 c=64 v=0
20370 On ch=1 n=c5 v=78
20378 On ch=1 n=a4 v=59
20390 On ch=1 n=f4 v=79
20400 On ch=1 n=f3 v=65
20472 Off ch=1 n=f4 v=64
20500 Off ch=1 n=a4 v=64
20506 Par ch=1 c=64 v=127
20514 Off ch=1 n=f3 v=64
20592 Off ch=1 n=c5 v=64
20764 On ch=1 n=f5 v=76
20766 On ch=1 n=c5 v=72
20766 On ch=1 n=a4 v=67
20778 On ch=1 n=f3 v=62
20781 On ch=1 n=f2 v=59
20814 Par ch=1 c=64 v=0
20952 Off ch=1 n=f2 v=64
20952 Par ch=1 c=64 v=127
20974 Off ch=1 n=f3 v=64
21008 Off ch=1 n=c5 v=64
21014 Off ch=1 n=a4 v=64
21072 Off ch=1 n=f5 v=64
21136 Par ch=1 c=64 v=0
21166 On ch=1 n=a#3 v=68
21166 On ch=1 n=a#4 v=60
21169 On ch=1 n=a#2 v=62
21169 On ch=1 n=d5 v=81
21290 Par ch=1 c=64 v=127
21296 Off ch=1 n=a#4 v=64
21301 Off ch=1 n=a#3 v=64
21312 Off ch=1 n=d5 v=64
21324 Off ch=1 n=a#2 v=64
21550 Par ch=1 c=64 v=0
21554 On ch=1 n=a#5 v=92
21566 On ch=1 n=g3 v=83
21566 On ch=1 n=e5 v=88
21568 On ch=1 n=d5 v=89
21568 On ch=1 n=g2 v=86
21734 Par ch=1 c=64 v=127
21760 Off ch=1 n=d5 v=64
21772 Off ch=1 n=g2 v=64
21808 Off ch=1 n=g3 v=64
21824 Off ch=1 n=a#5 v=64
21934 Par ch=1 c=64 v=0
21950 Off ch=1 n=e5 v=64
21956 On ch=1 n=c#5 v=97
21958 On ch=1 n=a5 v=95
21966 On ch=1 n=a3 v=93
21966 On ch=1 n=a2 v=92
22046 Off ch=1 n=c#5 v=64
22046 Off ch=1 n=a2 v=64
22068 Off ch=1 n=a3 v=64
22088 Par ch=1 c=64 v=127
22098 Off ch=1 n=a5 v=64
22430 On ch=1 n=a6 v=102
22438 On ch=1 n=e6 v=81
22442 On ch=1 n=c#4 v=87
22442 Par ch=1 c=64 v=0
22442 On ch=1 n=g5 v=79
22445 On ch=1 n=a5 v=68
22452 On ch=1 n=c#3 v=83
22626 Par ch=1 c=64 v=127
22658 Off ch=1 n=a6 v=64
22674 Off ch=1 n=e6 v=64
22690 Off ch=1 n=a5 v=64
22706 Off ch=1 n=g5 v=64
22748 Off ch=1 n=c#4 v=64
22752 Off ch=1 n=c#3 v=64
22858 Par ch=1 c=64 v=0
22890 On ch=1 n=f6 v=98
22896 On ch=1 n=f5 v=87
22904 On ch=1 n=d4 v=93
22906 On ch=1 n=d3 v=85
23042 Par ch=1 c=64 v=127
23052 Off ch=1 n=d3 v=64
23058 Off ch=1 n=f6 v=64
23098 Off ch=1 n=d4 v=64
23114 Off ch=1 n=f5 v=64
23272 Par ch=1 c=64 v=0
23280 On ch=1 n=d6 v=97
23290 On ch=1 n=d5 v=75
23296 On ch=1 n=a5 v=71
23296 On ch=1 n=f4 v=102
23300 On ch=1 n=f3 v=81
23456 Par ch=1 c=64 v=127
23458 Off ch=1 n=d6 v=64
23470 Off ch=1 n=f3 v=64
23482 Off ch=1 n=a5 v=64
23508 Off ch=1 n=f4 v=64
23536 Off ch=1 n=d5 v=64
23626 Par ch=1 c=64 v=0
23676 On ch=1 n=a5 v=88
23682 On ch=1 n=d5 v=89
23682 On ch=1 n=f5 v=81
23682 On ch=1 n=g4 v=97
23685 On ch=1 n=g3 v=88
23756 Off ch=1 n=f5 v=64
23778 Off ch=1 n=g4 v=64
23781 Off ch=1 n=d5 v=64
23794 Par ch=1 c=64 v=127
23818 Off ch=1 n=g3 v=64
23840 Off ch=1 n=a5 v=64
23932 Par ch=1 c=64 v=0
24054 On ch=1 n=b5 v=99
24058 On ch=1 n=f5 v=88
24062 On ch=1 n=d5 v=91
24066 On ch=1 n=g2 v=98
24068 On ch=1 n=g3 v=85
24122 Off ch=1 n=g2 v=64
24146 Par ch=1 c=64 v=127
24172 Off ch=1 n=d5 v=64
24186 Off ch=1 n=f5 v=64
24192 Off ch=1 n=g3 v=64
24206 Off ch=1 n=b5 v=64
24286 Par ch=1 c=64 v=0
24420 On ch=1 n=c6 v=101
24424 On ch=1 n=c5 v=98
24431 On ch=1 n=e5 v=88
24440 On ch=1 n=c4 v=93
24444 On ch=1 n=c3 v=89
24484 Off ch=1 n=c3 v=64
24502 Off ch=1 n=c5 v=64
24502 Par ch=1 c=64 v=127
24528 Off ch=1 n=e5 v=64
24548 Off ch=1 n=c4 v=64
24560 Off ch=1 n=c6 v=64
24608 Par ch=1 c=64 v=0
24816 On ch=1 n=g6 v=115
24822 On ch=1 n=g5 v=103
24828 On ch=1 n=g4 v=98
24836 On ch=1 n=g3 v=84
24870 Par ch=1 c=64 v=127
24878 Off ch=1 n=g3 v=64
24880 Off ch=1 n=g6 v=64
24902 Off ch=1 n=g4 v=64
24918 Off ch=1 n=g5 v=64
25206 On ch=1 n=a5 v=82
25206 On ch=1 n=d5 v=94
25212 On ch=1 n=f5 v=85
25252 Off ch=1 n=d5 v=64
25255 Off ch=1 n=f5 v=64
25296 Off ch=1 n=a5 v=64
25438 Par ch=1 c=64 v=0
25586 On ch=1 n=b5 v=101
25586 On ch=1 n=d5 v=98
25590 On ch=1 n=f5 v=89
25590 On ch=1 n=g3 v=98
25590 On ch=1 n=g2 v=97
25652 Par ch=1 c=64 v=127
25657 Off ch=1 n=g2 v=64
25690 Off ch=1 n=g3 v=64
25700 Off ch=1 n=d5 v=64
25703 Off ch=1 n=f5 v=64
25714 Off ch=1 n=b5 v=64
25790 Par ch=1 c=64 v=0
25960 On ch=1 n=c6 v=95
25962 On ch=1 n=e5 v=101
25968 On ch=1 n=c4 v=94
25971 On ch=1 n=g5 v=85
25971 On ch=1 n=c3 v=96
26006 Par ch=1 c=64 v=127
26030 Off ch=1 n=c3 v=64
26046 Off ch=1 n=e5 v=64
26046 Off ch=1 n=g5 v=64
26066 Off ch=1 n=c4 v=64
26106 Off ch=1 n=c6 v=64
26130 Par ch=1 c=64 v=0
26354 On ch=1 n=g6 v=111
26358 On ch=1 n=g5 v=107
26364 On ch=1 n=g4 v=100
26374 On ch=1 n=g3 v=91
26406 Par ch=1 c=64 v=127
26418 Off ch=1 n=g6 v=64
26430 Off ch=1 n=g3 v=64
26446 Off ch=1 n=g5 v=64
26446 Off ch=1 n=g4 v=64
26824 On ch=1 n=a5 v=91
26829 On ch=1 n=d5 v=93
26829 On ch=1 n=f5 v=87
26872 Off ch=1 n=d5 v=64
26880 Off ch=1 n=f5 v=64
26956 Off ch=1 n=a5 v=64
27174 Par ch=1 c=64 v=0
27242 On ch=1 n=b5 v=104
27244 On ch=1 n=d5 v=99
27246 On ch=1 n=g2 v=97
27246 On ch=1 n=g3 v=98
27248 On ch=1 n=f5 v=89
27348 Off ch=1 n=g2 v=64
27360 Off ch=1 n=d5 v=64
27370 Off ch=1 n=f5 v=64
27378 Off ch=1 n=g3 v=64
27380 Par ch=1 c=64 v=127
27382 Off ch=1 n=b5 v=64
27590 Par ch=1 c=64 v=0
27682 On ch=1 n=c6 v=97
27688 On ch=1 n=g5 v=97
27688 On ch=1 n=e5 v=102
27692 On ch=1 n=c4 v=89
27696 On ch=1 n=c3 v=94
27784 Off ch=1 n=c4 v=64
27786 Off ch=1 n=c3 v=64
27800 Par ch=1 c=64 v=127
27812 Off ch=1 n=c6 v=64
27812 Off ch=1 n=e5 v=64
27870 Off ch=1 n=g5 v=64
28200 On ch=1 n=c6 v=100
28200 On ch=1 n=c5 v=98
28206 On ch=1 n=g5 v=92
28208 On ch=1 n=e5 v=93
28212 On ch=1 n=c4 v=90
28218 On ch=1 n=c3 v=89
28308 Off ch=1 n=c6 v=64
28354 Off ch=1 n=g5 v=64
28354 Off ch=1 n=e5 v=64
28378 Off ch=1 n=c5 v=64
28694 Par ch=1 c=64 v=0
28708 On ch=1 n=f4 v=113
28708 On ch=1 n=a4 v=80
28708 On ch=1 n=f5 v=97
28711 On ch=1 n=c5 v=91
28814 Off ch=1 n=f4 v=64
28842 Off ch=1 n=a4 v=64
28850 Par ch=1 c=64 v=127
28864 Off ch=1 n=c5 v=64
28884 Off ch=1 n=c3 v=64
28888 Off ch=1 n=f5 v=64
28896 Off ch=1 n=c4 v=64
29174 On ch=1 n=f6 v=102
29178 On ch=1 n=a5 v=79
29180 On ch=1 n=f5 v=94
29180 On ch=1 n=c6 v=90
29190 On ch=1 n=c4 v=94
29193 On ch=1 n=c3 v=92
29246 Off ch=1 n=f6 v=64
29280 Off ch=1 n=c4 v=64
29282 Off ch=1 n=f5 v=64
29288 Off ch=1 n=a5 v=64
29294 Off ch=1 n=c6 v=64
29294 Off ch=1 n=c3 v=64
29602 Par ch=1 c=64 v=0
29612 On ch=1 n=c#5 v=92
29612 On ch=1 n=g5 v=101
29615 On ch=1 n=a#4 v=81
29618 On ch=1 n=g4 v=98
29622 On ch=1 n=f2 v=103
29624 On ch=1 n=f3 v=105
29712 Off ch=1 n=f2 v=64
29728 Off ch=1 n=g4 v=64
29740 Off ch=1 n=a#4 v=64
29756 Par ch=1 c=64 v=127
29759 Off ch=1 n=c#5 v=64
29770 Off ch=1 n=f3 v=64
29784 Off ch=1 n=g5 v=64
30050 On ch=1 n=c#6 v=87
30050 On ch=1 n=g6 v=99
30053 On ch=1 n=g5 v=91
30053 On ch=1 n=f5 v=93
30053 On ch=1 n=a#5 v=81
30053 On ch=1 n=f4 v=108
30066 On ch=1 n=f3 v=81
30069 On ch=1 n=f6 v=83
30116 Off ch=1 n=f6 v=64
30138 Off ch=1 n=g6 v=64
30170 Off ch=1 n=g5 v=64
30170 Off ch=1 n=f5 v=64
30184 Off ch=1 n=c#6 v=64
30187 Off ch=1 n=f4 v=64
30194 Off ch=1 n=a#5 v=64
30372 Off ch=1 n=f3 v=64
30524 Par ch=1 c=64 v=0
30556 On ch=1 n=c6 v=101
30558 On ch=1 n=c5 v=104
30561 On ch=1 n=a#5 v=81
30564 On ch=1 n=g5 v=88
30572 On ch=1 n=e4 v=107
30574 On ch=1 n=e3 v=109
30696 Off ch=1 n=e3 v=64
30714 Off ch=1 n=c5 v=64
30740 Off ch=1 n=e4 v=64
30754 Par ch=1 c=64 v=127
30774 Off ch=1 n=g5 v=64
30820 Off ch=1 n=c6 v=64
30822 Off ch=1 n=a#5 v=64
30982 On ch=1 n=e4 v=89
31086 Off ch=1 n=e4 v=64
31168 On ch=1 n=c7 v=109
31171 On ch=1 n=c6 v=98
31174 On ch=1 n=g6 v=99
31190 On ch=1 n=g5 v=93
31198 On ch=1 n=c5 v=79
31214 On ch=1 n=a#4 v=46
31652 Off ch=1 n=c5 v=64
31680 Off ch=1 n=c6 v=64
31750 Off ch=1 n=c7 v=64
31808 Off ch=1 n=g5 v=64
31820 Off ch=1 n=a#4 v=64
31972 On ch=1 n=a#6 v=88
31975 On ch=1 n=a#5 v=78
31988 On ch=1 n=a#4 v=71
32014 Off ch=1 n=g6 v=64
32124 Off ch=1 n=a#5 v=64
32148 Off ch=1 n=a#6 v=64
32182 Off ch=1 n=a#4 v=64
32206 On ch=1 n=a6 v=97
32212 On ch=1 n=a5 v=79
32218 On ch=1 n=a4 v=70
32304 Off ch=1 n=a5 v=64
32314 Off ch=1 n=a6 v=64
32414 On ch=1 n=g5 v=98
32416 On ch=1 n=g6 v=102
32422 On ch=1 n=g4 v=72
32424 Off ch=1 n=a4 v=64
32480 Off ch=1 n=g5 v=64
32512 Off ch=1 n=g6 v=64
32562 Off ch=1 n=g4 v=64
32582 Par ch=1 c=64 v=0
32616 On ch=1 n=a#6 v=90
32621 On ch=1 n=f5 v=78
32621 On ch=1 n=a#5 v=83
32624 On ch=1 n=f6 v=80
32628 On ch=1 n=f4 v=92
32636 On ch=1 n=a#4 v=55
32778 Off ch=1 n=a#5 v=64
32788 Off ch=1 n=a#6 v=64
32788 Par ch=1 c=64 v=127
32796 Off ch=1 n=f5 v=64
32846 On ch=1 n=a6 v=97
32848 On ch=1 n=a5 v=83
32856 Off ch=1 n=a#4 v=64
32858 Off ch=1 n=f6 v=64
32872 On ch=1 n=a4 v=62
32926 Off ch=1 n=a6 v=64
32942 Off ch=1 n=f4 v=64
32954 Off ch=1 n=a5 v=64
33022 Off ch=1 n=a4 v=64
33038 On ch=1 n=g6 v=101
33046 On ch=1 n=g5 v=80
33048 On ch=1 n=g4 v=84
33106 Off ch=1 n=g5 v=64
33148 Off ch=1 n=g6 v=64
33176 Off ch=1 n=g4 v=64
33214 On ch=1 n=f4 v=99
33224 On ch=1 n=f6 v=100
33236 On ch=1 n=f5 v=60
33276 Off ch=1 n=f4 v=64
33282 Off ch=1 n=f5 v=64
33302 Off ch=1 n=f6 v=64
33446 On ch=1 n=d7 v=111
33448 On ch=1 n=d5 v=91
33448 On ch=1 n=d4 v=87
33452 On ch=1 n=a#4 v=64
33454 On ch=1 n=f#6 v=92
33454 On ch=1 n=d6 v=105
33454 On ch=1 n=f#4 v=74
33457 On ch=1 n=a#6 v=81
33490 Par ch=1 c=64 v=0
33736 Par ch=1 c=64 v=127
33754 Off ch=1 n=d5 v=64
33759 Off ch=1 n=d7 v=64
33772 Off ch=1 n=a#4 v=64
33794 Off ch=1 n=d6 v=64
33842 Off ch=1 n=a#6 v=64
33882 On ch=1 n=c5 v=83
33882 On ch=1 n=c7 v=105
33882 On ch=1 n=c6 v=95
33888 On ch=1 n=a6 v=85
33890 On ch=1 n=a4 v=65
33904 Par ch=1 c=64 v=0
34023 Off ch=1 n=f#4 v=64
34027 Off ch=1 n=d4 v=64
34032 Off ch=1 n=a4 v=64
34074 Par ch=1 c=64 v=127
34077 Off ch=1 n=c5 v=64
34086 Off ch=1 n=a6 v=64
34118 Off ch=1 n=f#6 v=64
34136 Off ch=1 n=c7 v=64
34156 Off ch=1 n=c6 v=64
34316 On ch=1 n=c7 v=105
34320 On ch=1 n=c6 v=90
34322 On ch=1 n=g4 v=62
34322 On ch=1 n=d6 v=95
34324 On ch=1 n=a6 v=87
34336 On ch=1 n=d5 v=68
34348 On ch=1 n=c5 v=55
34630 Off ch=1 n=d6 v=64
34638 Off ch=1 n=c7 v=64
34658 Off ch=1 n=c6 v=64
34818 Off ch=1 n=c5 v=64
34818 On ch=1 n=a#6 v=84
34821 On ch=1 n=a#5 v=78
34826 Off ch=1 n=a6 v=64
34829 Off ch=1 n=d5 v=64
34829 On ch=1 n=g6 v=85
34829 On ch=1 n=g5 v=68
34842 On ch=1 n=a#4 v=46
34858 Par ch=1 c=64 v=0
34992 Off ch=1 n=g5 v=64
35010 Par ch=1 c=64 v=127
35022 Off ch=1 n=g6 v=64
35022 Off ch=1 n=a#4 v=64
35036 Off ch=1 n=g4 v=64
35096 Off ch=1 n=a#5 v=64
35116 Off ch=1 n=a#6 v=64
35256 Par ch=1 c=64 v=0
35276 On ch=1 n=a6 v=87
35281 On ch=1 n=a5 v=69
35281 On ch=1 n=f#6 v=62
35292 On ch=1 n=f#4 v=56
35306 On ch=1 n=d5 v=36
35306 On ch=1 n=d4 v=36
35388 Off ch=1 n=d5 v=64
35402 Off ch=1 n=a6 v=64
35410 Par ch=1 c=64 v=127
35430 Off ch=1 n=f#4 v=64
35433 Off ch=1 n=f#6 v=64
35456 Off ch=1 n=d4 v=64
35472 Off ch=1 n=a5 v=64
35710 On ch=1 n=d6 v=102
35715 On ch=1 n=d5 v=89
35726 On ch=1 n=d4 v=87
35790 Off ch=1 n=d6 v=64
35834 Off ch=1 n=d5 v=64
36124 On ch=1 n=g4 v=96
36124 On ch=1 n=g5 v=97
36128 Off ch=1 n=d4 v=64
36132 On ch=1 n=g3 v=91
36220 Off ch=1 n=g4 v=64
36260 Off ch=1 n=g5 v=64
36486 Par ch=1 c=64 v=0
36526 On ch=1 n=g6 v=107
36530 On ch=1 n=g5 v=98
36536 On ch=1 n=g4 v=88
36538 On ch=1 n=a#3 v=71
36616 Off ch=1 n=g3 v=64
36654 Par ch=1 c=64 v=127
36706 Off ch=1 n=g6 v=64
36714 Off ch=1 n=g5 v=64
36830 Off ch=1 n=g4 v=64
36930 Off ch=1 n=a#3 v=64
36938 On ch=1 n=d#5 v=98
36948 On ch=1 n=c4 v=92
36951 On ch=1 n=g4 v=91
37030 Off ch=1 n=c4 v=64
37042 Off ch=1 n=d#5 v=64
37062 Off ch=1 n=g4 v=64
37300 Par ch=1 c=64 v=0
37326 On ch=1 n=c#4 v=68
37350 On ch=1 n=a6 v=102
37353 On ch=1 n=a5 v=85
37358 On ch=1 n=g4 v=67
37358 On ch=1 n=e6 v=85
37370 Off ch=1 n=c#4 v=64
37373 On ch=1 n=a4 v=58
37386 On ch=1 n=e5 v=81
37468 Off ch=1 n=a6 v=64
37470 Par ch=1 c=64 v=127
37498 Off ch=1 n=g4 v=64
37512 Off ch=1 n=e6 v=64
37512 Off ch=1 n=e5 v=64
37534 Off ch=1 n=a4 v=64
37550 Off ch=1 n=a5 v=64
37762 Par ch=1 c=64 v=0
37790 On ch=1 n=d6 v=101
37793 On ch=1 n=d5 v=96
37798 On ch=1 n=d4 v=85
37798 On ch=1 n=f#4 v=85
37800 On ch=1 n=a5 v=76
37800 On ch=1 n=a4 v=83
37884 Off ch=1 n=d5 v=64
37902 Off ch=1 n=f#4 v=64
37902 Off ch=1 n=a4 v=64
37914 Off ch=1 n=d4 v=64
37938 Off ch=1 n=d6 v=64
37944 Par ch=1 c=64 v=127
37950 Off ch=1 n=a5 v=64
38174 On ch=1 n=f#4 v=75
38236 Off ch=1 n=f#4 v=64
38294 On ch=1 n=d7 v=108
38300 On ch=1 n=d6 v=101
38304 On ch=1 n=a6 v=91
38310 On ch=1 n=a5 v=85
38342 On ch=1 n=d5 v=62
38354 On ch=1 n=c5 v=24
38424 Off ch=1 n=c5 v=64
38538 Off ch=1 n=d5 v=64
38652 Off ch=1 n=a5 v=64
38836 Off ch=1 n=d7 v=64
38890 Off ch=1 n=d6 v=64
39000 Off ch=1 n=a6 v=64
39060 On ch=1 n=c6 v=86
39063 On ch=1 n=c7 v=100
39074 On ch=1 n=c5 v=85
39136 Off ch=1 n=c7 v=64
39158 Off ch=1 n=c6 v=64
39210 Off ch=1 n=c5 v=64
39280 On ch=1 n=a#5 v=87
39282 On ch=1 n=a#4 v=68
39284 On ch=1 n=a#6 v=89
39382 Off ch=1 n=a#5 v=64
39384 Off ch=1 n=a#6 v=64
39446 Off ch=1 n=a#4 v=64
39464 On ch=1 n=a4 v=59
39472 On ch=1 n=a6 v=99
39476 On ch=1 n=a5 v=77
39518 Off ch=1 n=a5 v=64
39552 Off ch=1 n=a4 v=64
39556 Off ch=1 n=a6 v=64
39590 On ch=1 n=g4 v=64
39634 Par ch=1 c=64 v=0
39696 On ch=1 n=c5 v=47
39714 On ch=1 n=c7 v=103
39714 On ch=1 n=g6 v=86
39717 On ch=1 n=c6 v=85
39741 On ch=1 n=g5 v=68
39826 Off ch=1 n=c7 v=64
39836 Par ch=1 c=64 v=127
39842 Off ch=1 n=c6 v=64
39896 Off ch=1 n=g5 v=64
39944 Off ch=1 n=g4 v=64
39956 On ch=1 n=a#4 v=57
39956 On ch=1 n=a#6 v=83
39956 On ch=1 n=a#5 v=85
40008 Off ch=1 n=c5 v=64
40016 Off ch=1 n=g6 v=64
40088 Off ch=1 n=a#5 v=64
40090 Off ch=1 n=a#6 v=64
40146 On ch=1 n=a6 v=95
40150 On ch=1 n=a4 v=67
40152 On ch=1 n=a5 v=78
40164 Off ch=1 n=a#4 v=64
40212 Off ch=1 n=a5 v=64
40242 Off ch=1 n=a4 v=64
40260 Off ch=1 n=a6 v=64
40336 On ch=1 n=g6 v=96
40344 On ch=1 n=g5 v=67
40366 On ch=1 n=g4 v=20
40376 Off ch=1 n=g6 v=64
40394 Off ch=1 n=g5 v=64
40424 Off ch=1 n=g4 v=64
40558 Par ch=1 c=64 v=0
40570 On ch=1 n=c7 v=106
40573 On ch=1 n=c6 v=95
40578 On ch=1 n=e6 v=61
40580 On ch=1 n=c4 v=71
40580 On ch=1 n=a4 v=59
40582 On ch=1 n=c5 v=79
40586 On ch=1 n=a6 v=76
40826 Off ch=1 n=c5 v=64
40848 Off ch=1 n=c7 v=64
40850 Par ch=1 c=64 v=127
40862 Off ch=1 n=c6 v=64
40872 Off ch=1 n=a4 v=64
40962 Off ch=1 n=a6 v=64
40976 Off ch=1 n=e6 v=64
40978 On ch=1 n=a#6 v=84
40982 On ch=1 n=a#5 v=84
40994 On ch=1 n=a#4 v=66
40994 On ch=1 n=g6 v=81
41010 On ch=1 n=g4 v=66
41086 Off ch=1 n=g4 v=64
41102 Off ch=1 n=a#5 v=64
41108 Off ch=1 n=a#4 v=64
41114 Off ch=1 n=g6 v=64
41150 Off ch=1 n=a#6 v=64
41424 On ch=1 n=a#6 v=84
41430 On ch=1 n=a#5 v=71
41430 On ch=1 n=a#4 v=52
41434 Par ch=1 c=64 v=0
41448 On ch=1 n=g6 v=75
41468 On ch=1 n=g4 v=56
41638 Off ch=1 n=g4 v=64
41664 Par ch=1 c=64 v=127
41734 Off ch=1 n=a#6 v=64
41739 Off ch=1 n=a#4 v=64
41748 Off ch=1 n=a#5 v=64
41764 Off ch=1 n=g6 v=64
41832 Par ch=1 c=64 v=0
41860 On ch=1 n=a5 v=66
41860 On ch=1 n=a6 v=83
41872 On ch=1 n=a4 v=50
41890 On ch=1 n=f6 v=48
41906 On ch=1 n=f4 v=50
42000 Off ch=1 n=f4 v=64
42032 Par ch=1 c=64 v=127
42050 Off ch=1 n=f6 v=64
42054 Off ch=1 n=c4 v=64
42058 Off ch=1 n=a6 v=64
42154 Off ch=1 n=a5 v=64
42179 Off ch=1 n=a4 v=64
42354 Par ch=1 c=64 v=0
42359 On ch=1 n=f6 v=68
42376 On ch=1 n=f5 v=39
42380 On ch=1 n=f4 v=57
42396 On ch=1 n=c6 v=31
42398 On ch=1 n=a3 v=32
42570 Par ch=1 c=64 v=127
42606 Off ch=1 n=f6 v=64
42638 Off ch=1 n=f5 v=64
42648 Off ch=1 n=c6 v=64
42676 Off ch=1 n=a3 v=64
42686 Off ch=1 n=f4 v=64
42956 On ch=1 n=c5 v=60
43416 Par ch=1 c=64 v=0
43428 On ch=1 n=f4 v=100
43706 Par ch=1 c=64 v=127
43848 On ch=1 n=f5 v=86
43856 On ch=1 n=a2 v=76
43862 On ch=1 n=a3 v=55
43972 Off ch=1 n=a3 v=64
43982 Off ch=1 n=c5 v=64
44032 Off ch=1 n=a2 v=64
44202 Off ch=1 n=f4 v=64
44246 Par ch=1 c=64 v=0
44270 On ch=1 n=d5 v=90
44286 On ch=1 n=a#3 v=75
44290 On ch=1 n=a#2 v=76
44378 Off ch=1 n=f5 v=64
44414 Par ch=1 c=64 v=127
44424 Off ch=1 n=d5 v=64
44438 Off ch=1 n=a#2 v=64
44460 Off ch=1 n=a#3 v=64
44670 On ch=1 n=a#4 v=73
44686 On ch=1 n=d4 v=73
44689 On ch=1 n=f4 v=89
44689 On ch=1 n=d3 v=62
44848 Off ch=1 n=f4 v=64
44892 Off ch=1 n=d4 v=64
44900 Off ch=1 n=d3 v=64
44934 Off ch=1 n=a#4 v=64
45090 On ch=1 n=g4 v=86
45090 Par ch=1 c=64 v=0
45104 On ch=1 n=e3 v=82
45107 On ch=1 n=e4 v=66
45110 On ch=1 n=d4 v=56
45292 Off ch=1 n=e4 v=64
45302 Off ch=1 n=d4 v=64
45320 Par ch=1 c=64 v=127
45474 Off ch=1 n=e3 v=64
45492 Off ch=1 n=g4 v=64
45502 On ch=1 n=a4 v=73
45505 Par ch=1 c=64 v=0
45512 On ch=1 n=c#4 v=50
45520 On ch=1 n=e4 v=61
45522 On ch=1 n=a3 v=41
45750 Par ch=1 c=64 v=127
45810 Off ch=1 n=c#4 v=64
45818 Off ch=1 n=e4 v=64
45866 Off ch=1 n=a3 v=64
45904 Par ch=1 c=64 v=0
45928 Off ch=1 n=a4 v=64
45930 On ch=1 n=d3 v=48
45930 On ch=1 n=f4 v=97
45933 On ch=1 n=d4 v=66
45996 Off ch=1 n=d4 v=64
46044 Off ch=1 n=d3 v=64
46044 Off ch=1 n=f4 v=64
46058 Par ch=1 c=64 v=127
46350 On ch=1 n=f5 v=91
46358 On ch=1 n=a3 v=57
46358 On ch=1 n=a2 v=58
46372 On ch=1 n=d#5 v=70
46442 Par ch=1 c=64 v=0
46638 Off ch=1 n=a3 v=64
46641 Par ch=1 c=64 v=127
46744 Off ch=1 n=a2 v=64
46758 Off ch=1 n=d#5 v=64
46766 On ch=1 n=d5 v=78
46768 On ch=1 n=a#3 v=75
46768 On ch=1 n=a#2 v=63
46780 Par ch=1 c=64 v=0
46964 Off ch=1 n=f5 v=64
46964 Par ch=1 c=64 v=127
47036 Off ch=1 n=d5 v=64
47036 Off ch=1 n=a#3 v=64
47130 Off ch=1 n=a#2 v=64
47176 On ch=1 n=a#5 v=85
47192 On ch=1 n=g3 v=76
47194 On ch=1 n=g2 v=88
47200 On ch=1 n=d5 v=63
47242 Par ch=1 c=64 v=0
47354 Off ch=1 n=g2 v=64
47404 Off ch=1 n=g3 v=64
47410 Par ch=1 c=64 v=127
47548 Off ch=1 n=d5 v=64
47592 On ch=1 n=g5 v=84
47595 On ch=1 n=c4 v=51
47595 On ch=1 n=d#5 v=68
47598 On ch=1 n=c3 v=63
47610 Par ch=1 c=64 v=0
47642 Off ch=1 n=a#5 v=64
47776 Off ch=1 n=g5 v=64
47779 Par ch=1 c=64 v=127
47794 Off ch=1 n=d#5 v=64
47814 Off ch=1 n=c4 v=64
47820 Off ch=1 n=c3 v=64
48002 On ch=1 n=d#5 v=83
48006 On ch=1 n=d#4 v=60
48020 On ch=1 n=d#3 v=51
48024 On ch=1 n=g4 v=60
48040 Par ch=1 c=64 v=0
48254 Par ch=1 c=64 v=127
48300 Off ch=1 n=d#3 v=64
48324 Off ch=1 n=d#4 v=64
48330 Off ch=1 n=g4 v=64
48408 On ch=1 n=c5 v=80
48414 Off ch=1 n=d#5 v=64
48414 On ch=1 n=a4 v=54
48422 On ch=1 n=f4 v=82
48424 Par ch=1 c=64 v=0
48438 On ch=1 n=f3 v=55
48582 Off ch=1 n=a4 v=64
48592 Off ch=1 n=f4 v=64
48592 Par ch=1 c=64 v=127
48660 Off ch=1 n=f3 v=64
48680 Off ch=1 n=c5 v=64
48808 On ch=1 n=f5 v=80
48816 On ch=1 n=a4 v=63
48824 On ch=1 n=c5 v=78
48854 On ch=1 n=f3 v=26
48864 On ch=1 n=f2 v=46
48996 Off ch=1 n=f2 v=64
49006 Off ch=1 n=f3 v=64
49110 Off ch=1 n=a4 v=64
49144 Off ch=1 n=c5 v=64
49168 Off ch=1 n=f5 v=64
49208 Par ch=1 c=64 v=0
49208 On ch=1 n=a#3 v=76
49214 On ch=1 n=a#4 v=59
49216 On ch=1 n=a#2 v=66
49218 On ch=1 n=d5 v=88
49356 Off ch=1 n=a#4 v=64
49368 Off ch=1 n=d5 v=64
49376 Par ch=1 c=64 v=127
49400 Off ch=1 n=a#3 v=64
49428 Off ch=1 n=a#2 v=64
49618 On ch=1 n=a#5 v=94
49628 On ch=1 n=g3 v=85
49628 On ch=1 n=g2 v=89
49631 On ch=1 n=e5 v=89
49634 On ch=1 n=d5 v=86
49668 Par ch=1 c=64 v=0
49822 Par ch=1 c=64 v=127
49830 Off ch=1 n=d5 v=64
49833 Off ch=1 n=g2 v=64
49856 Off ch=1 n=e5 v=64
49868 Off ch=1 n=g3 v=64
49910 Off ch=1 n=a#5 v=64
49992 Par ch=1 c=64 v=0
50004 On ch=1 n=a5 v=94
50014 On ch=1 n=c#5 v=94
50017 On ch=1 n=a3 v=94
50020 On ch=1 n=a2 v=89
50118 Off ch=1 n=c#5 v=64
50121 Off ch=1 n=a2 v=64
50130 Par ch=1 c=64 v=127
50156 Off ch=1 n=a5 v=64
50168 Off ch=1 n=a3 v=64
50422 Par ch=1 c=64 v=0
50428 On ch=1 n=a6 v=106
50431 On ch=1 n=e6 v=80
50431 On ch=1 n=a5 v=80
50440 On ch=1 n=c#4 v=90
50440 On ch=1 n=g5 v=95
50448 On ch=1 n=c#3 v=83
50622 Par ch=1 c=64 v=127
50646 Off ch=1 n=a6 v=64
50662 Off ch=1 n=e6 v=64
50724 Off ch=1 n=a5 v=64
50730 Off ch=1 n=g5 v=64
50784 Off ch=1 n=c#3 v=64
50804 Off ch=1 n=c#4 v=64
50852 Par ch=1 c=64 v=0
50872 On ch=1 n=f5 v=87
50874 On ch=1 n=f6 v=97
50878 On ch=1 n=d4 v=94
50882 On ch=1 n=d3 v=83
50886 On ch=1 n=d6 v=53
50932 Off ch=1 n=d6 v=64
51042 Off ch=1 n=f6 v=64
51042 Off ch=1 n=d3 v=64
51052 Par ch=1 c=64 v=127
51088 Off ch=1 n=d4 v=64
51098 Off ch=1 n=f5 v=64
51266 Par ch=1 c=64 v=0
51271 On ch=1 n=d6 v=101
51278 On ch=1 n=d5 v=85
51282 On ch=1 n=a5 v=70
51284 On ch=1 n=f4 v=106
51288 On ch=1 n=f3 v=88
51450 Par ch=1 c=64 v=127
51452 Off ch=1 n=d6 v=64
51455 Off ch=1 n=f3 v=64
51464 Off ch=1 n=a5 v=64
51478 Off ch=1 n=f4 v=64
51518 Off ch=1 n=d5 v=64
51604 Par ch=1 c=64 v=0
51652 On ch=1 n=a5 v=91
51662 On ch=1 n=d5 v=91
51662 On ch=1 n=f5 v=82
51665 On ch=1 n=g4 v=99
51672 On ch=1 n=g3 v=88
51744 Off ch=1 n=d5 v=64
51764 Off ch=1 n=f5 v=64
51772 Off ch=1 n=g4 v=64
51774 Par ch=1 c=64 v=127
51794 Off ch=1 n=g3 v=64
51824 Off ch=1 n=a5 v=64
51972 Par ch=1 c=64 v=0
52034 On ch=1 n=b5 v=100
52040 On ch=1 n=d5 v=92
52040 On ch=1 n=f5 v=86
52050 On ch=1 n=g3 v=78
52052 On ch=1 n=g2 v=82
52094 Off ch=1 n=g2 v=64
52128 Par ch=1 c=64 v=127
52164 Off ch=1 n=d5 v=64
52172 Off ch=1 n=g3 v=64
52176 Off ch=1 n=f5 v=64
52202 Off ch=1 n=b5 v=64
52280 Par ch=1 c=64 v=0
52408 On ch=1 n=c6 v=100
52411 On ch=1 n=c5 v=95
52414 On ch=1 n=e5 v=89
52428 On ch=1 n=c4 v=94
52431 On ch=1 n=c3 v=92
52472 Off ch=1 n=c3 v=64
52482 Off ch=1 n=c5 v=64
52496 Par ch=1 c=64 v=127
52526 Off ch=1 n=e5 v=64
52540 Off ch=1 n=c4 v=64
52552 Off ch=1 n=c6 v=64
52634 Par ch=1 c=64 v=0
52802 On ch=1 n=g6 v=115
52806 On ch=1 n=g5 v=107
52808 On ch=1 n=g4 v=104
52814 On ch=1 n=g3 v=95
52880 Par ch=1 c=64 v=127
52896 Off ch=1 n=g4 v=64
52910 Off ch=1 n=g3 v=64
52916 Off ch=1 n=g6 v=64
52936 Off ch=1 n=g5 v=64
53202 On ch=1 n=a5 v=89
53210 On ch=1 n=d5 v=93
53212 On ch=1 n=f5 v=82
53256 Off ch=1 n=f5 v=64
53259 Off ch=1 n=d5 v=64
53330 Off ch=1 n=a5 v=64
53510 Par ch=1 c=64 v=0
53582 On ch=1 n=b5 v=104
53585 On ch=1 n=g2 v=102
53585 On ch=1 n=d5 v=98
53588 On ch=1 n=f5 v=90
53592 On ch=1 n=g3 v=77
53636 On ch=1 n=f3 v=26
53650 Off ch=1 n=g2 v=64
53680 Par ch=1 c=64 v=127
53696 Off ch=1 n=f3 v=64
53698 Off ch=1 n=d5 v=64
53708 Off ch=1 n=g3 v=64
53728 Off ch=1 n=b5 v=64
53731 Off ch=1 n=f5 v=64
53786 Par ch=1 c=64 v=0
53982 On ch=1 n=c6 v=101
53986 On ch=1 n=e5 v=102
53986 On ch=1 n=g5 v=100
53994 On ch=1 n=c4 v=98
53998 On ch=1 n=c3 v=101
54070 Off ch=1 n=e5 v=64
54070 Par ch=1 c=64 v=127
54086 Off ch=1 n=c4 v=64
54088 Off ch=1 n=c3 v=64
54100 Off ch=1 n=g5 v=64
54144 Off ch=1 n=c6 v=64
54248 Par ch=1 c=64 v=0
54421 On ch=1 n=g6 v=113
54426 On ch=1 n=g5 v=107
54434 On ch=1 n=g4 v=103
54436 On ch=1 n=g3 v=95
54508 Par ch=1 c=64 v=127
54528 Off ch=1 n=g4 v=64
54531 Off ch=1 n=g3 v=64
54548 Off ch=1 n=g6 v=64
54618 Off ch=1 n=g5 v=64
54850 On ch=1 n=a5 v=93
54853 On ch=1 n=d5 v=94
54856 On ch=1 n=f5 v=87
54920 Off ch=1 n=d5 v=64
54928 Off ch=1 n=f5 v=64
55002 Off ch=1 n=a5 v=64
55200 Par ch=1 c=64 v=0
55300 On ch=1 n=b5 v=105
55303 On ch=1 n=f5 v=94
55303 On ch=1 n=d5 v=101
55308 On ch=1 n=g3 v=90
55308 On ch=1 n=g2 v=100
55406 Off ch=1 n=g2 v=64
55446 Par ch=1 c=64 v=127
55448 Off ch=1 n=g3 v=64
55460 Off ch=1 n=d5 v=64
55494 Off ch=1 n=b5 v=64
55500 Off ch=1 n=f5 v=64
55676 Par ch=1 c=64 v=0
55760 On ch=1 n=c6 v=97
55765 On ch=1 n=e5 v=103
55765 On ch=1 n=g5 v=99
55770 On ch=1 n=c4 v=92
55774 On ch=1 n=c3 v=96
55888 Off ch=1 n=c4 v=64
55891 Off ch=1 n=c3 v=64
55894 Off ch=1 n=e5 v=64
55900 Off ch=1 n=c6 v=64
55906 Par ch=1 c=64 v=127
55948 Off ch=1 n=g5 v=64
56246 On ch=1 n=c6 v=101
56249 On ch=1 n=c5 v=101
56252 On ch=1 n=g5 v=94
56252 On ch=1 n=e5 v=97
56256 On ch=1 n=c4 v=94
56258 On ch=1 n=c3 v=100
56378 Off ch=1 n=c6 v=64
56386 Off ch=1 n=c5 v=64
56418 Off ch=1 n=g5 v=64
56426 Off ch=1 n=e5 v=64
56768 Par ch=1 c=64 v=0
56771 On ch=1 n=f5 v=104
56774 On ch=1 n=f4 v=119
56774 On ch=1 n=a4 v=88
56774 On ch=1 n=c5 v=97
56874 Off ch=1 n=f4 v=64
56902 Off ch=1 n=a4 v=64
56908 Par ch=1 c=64 v=127
56924 Off ch=1 n=c5 v=64
56948 Off ch=1 n=c4 v=64
56954 Off ch=1 n=f5 v=64
56964 Off ch=1 n=c3 v=64
57210 On ch=1 n=f6 v=106
57212 On ch=1 n=a5 v=85
57212 On ch=1 n=c6 v=94
57212 On ch=1 n=f5 v=99
57224 On ch=1 n=c4 v=100
57227 On ch=1 n=c3 v=101
57306 Off ch=1 n=f6 v=64
57306 Off ch=1 n=c4 v=64
57309 Off ch=1 n=c6 v=64
57316 Off ch=1 n=c3 v=64
57328 Off ch=1 n=a5 v=64
57334 Off ch=1 n=f5 v=64
57612 Par ch=1 c=64 v=0
57638 On ch=1 n=c#5 v=97
57640 On ch=1 n=g5 v=104
57644 On ch=1 n=a#4 v=87
57644 On ch=1 n=g4 v=106
57656 On ch=1 n=f3 v=106
57658 On ch=1 n=f2 v=105
57708 On ch=1 n=d#5 v=26
57740 Off ch=1 n=f2 v=64
57756 Off ch=1 n=g4 v=64
57768 Off ch=1 n=d#5 v=64
57782 Off ch=1 n=a#4 v=64
57794 Off ch=1 n=c#5 v=64
57796 Par ch=1 c=64 v=127
57806 Off ch=1 n=f3 v=64
57818 Off ch=1 n=g5 v=64
58084 On ch=1 n=g6 v=112
58086 On ch=1 n=c#6 v=90
58086 On ch=1 n=g5 v=98
58092 On ch=1 n=a#5 v=83
58094 On ch=1 n=f4 v=116
58098 On ch=1 n=f5 v=92
58100 On ch=1 n=f3 v=95
58176 Off ch=1 n=g6 v=64
58194 Off ch=1 n=f5 v=64
58210 Off ch=1 n=a#5 v=64
58224 Off ch=1 n=g5 v=64
58224 Off ch=1 n=f4 v=64
58230 Off ch=1 n=c#6 v=64
58384 Off ch=1 n=f3 v=64
58596 Par ch=1 c=64 v=0
58612 On ch=1 n=c6 v=103
58614 On ch=1 n=a#5 v=85
58614 On ch=1 n=c5 v=109
58618 On ch=1 n=g5 v=91
58624 On ch=1 n=e4 v=111
58628 On ch=1 n=e3 v=111
58774 Off ch=1 n=e3 v=64
58777 Off ch=1 n=c5 v=64
58818 Off ch=1 n=e4 v=64
58826 Par ch=1 c=64 v=127
58834 Off ch=1 n=g5 v=64
58896 Off ch=1 n=c6 v=64
58902 Off ch=1 n=a#5 v=64
59008 On ch=1 n=e4 v=106
59110 Off ch=1 n=e4 v=64
59276 On ch=1 n=c7 v=113
59280 On ch=1 n=c6 v=105
59282 On ch=1 n=g6 v=103
59290 On ch=1 n=g5 v=96
59298 On ch=1 n=c5 v=78
59306 On ch=1 n=a#4 v=50
59372 Off ch=1 n=a#4 v=64
59394 Off ch=1 n=g5 v=64
59396 Off ch=1 n=c5 v=64
59672 Off ch=1 n=c6 v=64
59766 Off ch=1 n=c7 v=64
59930 On ch=1 n=a#5 v=90
59932 On ch=1 n=a#6 v=92
59944 On ch=1 n=a#4 v=78
60000 Off ch=1 n=g6 v=64
60090 Off ch=1 n=a#5 v=64
60100 Off ch=1 n=a#6 v=64
60128 Off ch=1 n=a#4 v=64
60164 On ch=1 n=a6 v=103
60164 On ch=1 n=a5 v=92
60170 On ch=1 n=a4 v=77
60260 Off ch=1 n=a5 v=64
60280 Off ch=1 n=a6 v=64
60336 Off ch=1 n=a4 v=64
60342 On ch=1 n=g4 v=73
60354 On ch=1 n=g6 v=103
60354 On ch=1 n=g5 v=95
60412 Off ch=1 n=g5 v=64
60446 On ch=1 n=f4 v=91
60458 Off ch=1 n=g4 v=64
60466 Off ch=1 n=g6 v=64
60500 Par ch=1 c=64 v=0
60530 On ch=1 n=a#4 v=71
60532 On ch=1 n=f5 v=79
60534 On ch=1 n=a#6 v=99
60538 On ch=1 n=a#5 v=91
60544 On ch=1 n=f6 v=79
60684 Off ch=1 n=f5 v=64
60692 Off ch=1 n=a#5 v=64
60700 Off ch=1 n=a#6 v=64
60702 Par ch=1 c=64 v=127
60758 Off ch=1 n=a#4 v=64
60768 On ch=1 n=a6 v=98
60770 On ch=1 n=a5 v=88
60770 On ch=1 n=a4 v=80
60816 Off ch=1 n=f4 v=64
60816 Off ch=1 n=f6 v=64
60860 Off ch=1 n=a5 v=64
60878 Off ch=1 n=a6 v=64
60952 Off ch=1 n=a4 v=64
60956 On ch=1 n=g4 v=82
60958 On ch=1 n=g6 v=105
60962 On ch=1 n=g5 v=96
61044 Off ch=1 n=g6 v=64
61046 Off ch=1 n=g5 v=64
61112 Off ch=1 n=g4 v=64
61124 On ch=1 n=f4 v=101
61136 On ch=1 n=f6 v=99
61139 On ch=1 n=f5 v=78
61176 Off ch=1 n=f5 v=64
61192 Off ch=1 n=f4 v=64
61218 Off ch=1 n=f6 v=64
61350 On ch=1 n=d7 v=111
61356 On ch=1 n=d5 v=97
61360 On ch=1 n=d6 v=100
61360 On ch=1 n=a#6 v=81
61362 On ch=1 n=f#6 v=86
61364 On ch=1 n=a#4 v=68
61366 On ch=1 n=d4 v=84
61376 On ch=1 n=f#4 v=66
61424 Par ch=1 c=64 v=0
61654 Par ch=1 c=64 v=127
61668 Off ch=1 n=d5 v=64
61676 Off ch=1 n=d7 v=64
61706 Off ch=1 n=d6 v=64
61720 Off ch=1 n=a#4 v=64
61736 Off ch=1 n=a#6 v=64
61794 On ch=1 n=c6 v=92
61798 On ch=1 n=c7 v=103
61802 On ch=1 n=a6 v=85
61802 On ch=1 n=c5 v=83
61816 Off ch=1 n=f#4 v=64
61816 On ch=1 n=a4 v=67
61822 Par ch=1 c=64 v=0
61872 Off ch=1 n=f#6 v=64
61964 Off ch=1 n=d4 v=64
61970 Off ch=1 n=a4 v=64
61974 Off ch=1 n=a6 v=64
62006 Par ch=1 c=64 v=127
62008 Off ch=1 n=c5 v=64
62032 Off ch=1 n=c7 v=64
62050 Off ch=1 n=c6 v=64
62202 On ch=1 n=g4 v=80
62214 On ch=1 n=c7 v=106
62214 On ch=1 n=d6 v=91
62217 On ch=1 n=c6 v=88
62224 On ch=1 n=a6 v=76
62236 On ch=1 n=d5 v=62
62236 On ch=1 n=a5 v=68
62248 On ch=1 n=c5 v=46
62258 On ch=1 n=g5 v=66
62422 Off ch=1 n=g5 v=64
62446 Off ch=1 n=a5 v=64
62462 Off ch=1 n=d6 v=64
62474 Off ch=1 n=c7 v=64
62480 Off ch=1 n=c6 v=64
62664 Off ch=1 n=a6 v=64
62692 On ch=1 n=a#5 v=88
62695 On ch=1 n=a#6 v=86
62702 On ch=1 n=g6 v=84
62708 Off ch=1 n=c5 v=64
62714 On ch=1 n=g5 v=79
62718 Off ch=1 n=d5 v=64
62724 On ch=1 n=a#4 v=55
62818 Off ch=1 n=g5 v=64
62852 Off ch=1 n=a#4 v=64
62856 Off ch=1 n=g6 v=64
62858 Off ch=1 n=g4 v=64
62926 Off ch=1 n=a#5 v=64
62950 Off ch=1 n=a#6 v=64
63082 Par ch=1 c=64 v=0
63100 On ch=1 n=a6 v=96
63102 On ch=1 n=a5 v=86
63110 On ch=1 n=d5 v=72
63114 On ch=1 n=f#6 v=72
63116 On ch=1 n=d4 v=63
63122 On ch=1 n=f#4 v=69
63184 Off ch=1 n=a6 v=64
63216 Off ch=1 n=d5 v=64
63234 Off ch=1 n=f#6 v=64
63234 Par ch=1 c=64 v=127
63242 Off ch=1 n=f#4 v=64
63254 Off ch=1 n=a5 v=64
63256 Off ch=1 n=d4 v=64
63514 On ch=1 n=d6 v=103
63517 On ch=1 n=d5 v=94
63526 On ch=1 n=d4 v=94
63590 Off ch=1 n=d6 v=64
63636 Off ch=1 n=d5 v=64
63892 Off ch=1 n=d4 v=64
63928 Par ch=1 c=64 v=0
63934 On ch=1 n=g5 v=98
63934 On ch=1 n=g4 v=101
63944 On ch=1 n=g3 v=92
64022 Off ch=1 n=g4 v=64
64080 Par ch=1 c=64 v=127
64090 Off ch=1 n=g5 v=64
64328 Par ch=1 c=64 v=0
64346 On ch=1 n=g6 v=107
64352 On ch=1 n=a#3 v=72
64352 On ch=1 n=g4 v=91
64352 On ch=1 n=g5 v=97
64388 Off ch=1 n=g3 v=64
64496 Par ch=1 c=64 v=127
64564 Off ch=1 n=g5 v=64
64576 Off ch=1 n=g6 v=64
64758 On ch=1 n=d#5 v=103
64762 On ch=1 n=c4 v=84
64786 Off ch=1 n=a#3 v=64
64872 Off ch=1 n=d#5 v=64
64884 Off ch=1 n=c4 v=64
64906 Off ch=1 n=g4 v=64
65126 Par ch=1 c=64 v=0
65134 On ch=1 n=c#4 v=73
65158 On ch=1 n=g4 v=70
65174 On ch=1 n=a6 v=105
65178 On ch=1 n=a5 v=91
65178 On ch=1 n=a4 v=52
65182 Off ch=1 n=c#4 v=64
65182 On ch=1 n=e6 v=85
65212 On ch=1 n=e5 v=94
65250 Off ch=1 n=g4 v=64
65294 Par ch=1 c=64 v=127
65326 Off ch=1 n=a6 v=64
65350 Off ch=1 n=e6 v=64
65356 Off ch=1 n=e5 v=64
65380 Off ch=1 n=a4 v=64
65410 Off ch=1 n=a5 v=64
65586 Par ch=1 c=64 v=0
65610 On ch=1 n=d6 v=104
65613 On ch=1 n=d5 v=101
65620 On ch=1 n=a5 v=79
65620 On ch=1 n=d4 v=83
65620 On ch=1 n=a4 v=84
65623 On ch=1 n=f#4 v=84
65698 Off ch=1 n=d5 v=64
65710 Off ch=1 n=d4 v=64
65718 Off ch=1 n=a4 v=64
65734 Off ch=1 n=f#4 v=64
65762 Off ch=1 n=d6 v=64
65770 Off ch=1 n=a5 v=64
65772 Par ch=1 c=64 v=127
65960 On ch=1 n=f#4 v=81
66058 Off ch=1 n=f#4 v=64
66108 On ch=1 n=d7 v=108
66112 On ch=1 n=d6 v=104
66116 On ch=1 n=a6 v=94
66126 On ch=1 n=a5 v=84
66152 On ch=1 n=c5 v=55
66152 On ch=1 n=d5 v=61
66392 Off ch=1 n=c5 v=64
66460 Off ch=1 n=d5 v=64
66463 Off ch=1 n=a5 v=64
66602 Off ch=1 n=d7 v=64
66630 Off ch=1 n=d6 v=64
66774 Off ch=1 n=a6 v=64
66808 On ch=1 n=c7 v=98
66808 On ch=1 n=c6 v=86
66826 On ch=1 n=c5 v=81
66886 Off ch=1 n=c7 v=64
66908 Off ch=1 n=c6 v=64
67026 On ch=1 n=a#5 v=85
67026 On ch=1 n=a#6 v=88
67036 On ch=1 n=a#4 v=60
67038 Off ch=1 n=c5 v=64
67132 Off ch=1 n=a#5 v=64
67154 Off ch=1 n=a#6 v=64
67212 On ch=1 n=a4 v=50
67214 On ch=1 n=a5 v=85
67214 On ch=1 n=a6 v=97
67216 Off ch=1 n=a#4 v=64
67258 Off ch=1 n=a5 v=64
67302 Off ch=1 n=a6 v=64
67308 On ch=1 n=g4 v=79
67326 Off ch=1 n=a4 v=64
67400 On ch=1 n=c5 v=70
67400 Par ch=1 c=64 v=0
67420 On ch=1 n=g6 v=84
67420 On ch=1 n=c7 v=103
67423 On ch=1 n=c6 v=78
67430 On ch=1 n=g5 v=86
67544 Off ch=1 n=c7 v=64
67552 Off ch=1 n=g5 v=64
67564 Off ch=1 n=c6 v=64
67570 Par ch=1 c=64 v=127
67640 Off ch=1 n=c5 v=64
67650 On ch=1 n=a#5 v=90
67650 On ch=1 n=a#6 v=87
67658 On ch=1 n=a#4 v=65
67698 Off ch=1 n=g4 v=64
67710 Off ch=1 n=g6 v=64
67770 Off ch=1 n=a#5 v=64
67784 Off ch=1 n=a#6 v=64
67842 Off ch=1 n=a#4 v=64
67842 On ch=1 n=a4 v=62
67845 On ch=1 n=a6 v=94
67852 On ch=1 n=a5 v=65
67890 On ch=1 n=b5 v=38
67906 Off ch=1 n=a6 v=64
67912 Off ch=1 n=a5 v=64
67960 Off ch=1 n=b5 v=64
67988 Off ch=1 n=a4 v=64
68016 On ch=1 n=g4 v=75
68024 On ch=1 n=g5 v=82
68024 On ch=1 n=g6 v=97
68056 On ch=1 n=a5 v=43
68062 Off ch=1 n=g4 v=64
68068 Off ch=1 n=g5 v=64
68082 Off ch=1 n=g6 v=64
68134 Off ch=1 n=a5 v=64
68230 Par ch=1 c=64 v=0
68252 On ch=1 n=a6 v=88
68254 On ch=1 n=c4 v=79
68254 On ch=1 n=c6 v=98
68256 On ch=1 n=c7 v=105
68256 On ch=1 n=c5 v=88
68260 On ch=1 n=e6 v=68
68260 On ch=1 n=a4 v=69
68454 Off ch=1 n=c5 v=64
68468 Off ch=1 n=c7 v=64
68490 Par ch=1 c=64 v=127
68500 Off ch=1 n=c6 v=64
68550 Off ch=1 n=a4 v=64
68630 Off ch=1 n=a6 v=64
68646 On ch=1 n=a#5 v=88
68646 On ch=1 n=a#6 v=84
68656 On ch=1 n=g6 v=86
68660 Off ch=1 n=e6 v=64
68660 On ch=1 n=a#4 v=60
68676 On ch=1 n=g4 v=70
68766 Off ch=1 n=g4 v=64
68770 Off ch=1 n=a#4 v=64
68794 Off ch=1 n=g6 v=64
68798 Off ch=1 n=a#5 v=64
68822 Off ch=1 n=a#6 v=64
69046 Par ch=1 c=64 v=0
69066 On ch=1 n=a#6 v=86
69068 On ch=1 n=a#5 v=86
69078 On ch=1 n=g6 v=87
69078 On ch=1 n=a#4 v=62
69090 On ch=1 n=g4 v=63
69266 Off ch=1 n=g4 v=64
69274 Par ch=1 c=64 v=127
69342 Off ch=1 n=a#6 v=64
69360 Off ch=1 n=a#4 v=64
69363 Off ch=1 n=g6 v=64
69366 Off ch=1 n=a#5 v=64
69474 Par ch=1 c=64 v=0
69532 On ch=1 n=a5 v=83
69536 On ch=1 n=a6 v=92
69544 On ch=1 n=a4 v=75
69548 On ch=1 n=f6 v=72
69572 On ch=1 n=f4 v=73
69674 Off ch=1 n=c4 v=64
69716 Off ch=1 n=f4 v=64
69750 Par ch=1 c=64 v=127
69772 Off ch=1 n=a6 v=64
69774 Off ch=1 n=f6 v=64
69830 Off ch=1 n=a4 v=64
69868 Off ch=1 n=a5 v=64
70080 On ch=1 n=f6 v=89
70082 On ch=1 n=f5 v=78
70086 On ch=1 n=f4 v=95
70088 Par ch=1 c=64 v=0
70090 On ch=1 n=c6 v=73
70090 On ch=1 n=a3 v=57
70382 Par ch=1 c=64 v=127
70402 Off ch=1 n=f4 v=64
70432 Off ch=1 n=a3 v=64
70438 Off ch=1 n=f5 v=64
70466 Off ch=1 n=c6 v=64
70478 Off ch=1 n=f6 v=64
70842 Par ch=1 c=64 v=0
71058 On ch=1 n=f6 v=68
71062 On ch=1 n=f5 v=61
71064 On ch=1 n=a#2 v=50
71064 On ch=1 n=a#3 v=46
71074 On ch=1 n=d6 v=61
71100 Off ch=1 n=f6 v=64
71108 Off ch=1 n=f5 v=64
71118 Off ch=1 n=a#2 v=64
71118 Off ch=1 n=d6 v=64
71126 Off ch=1 n=a#3 v=64
71212 On ch=1 n=a#3 v=37
71222 On ch=1 n=a#2 v=39
71225 On ch=1 n=f5 v=50
71228 On ch=1 n=f6 v=8
71232 On ch=1 n=d6 v=66
71272 Off ch=1 n=f5 v=64
71274 Off ch=1 n=d6 v=64
71280 Off ch=1 n=a#2 v=64
71280 Off ch=1 n=f6 v=64
71282 Off ch=1 n=a#3 v=64
71372 On ch=1 n=f6 v=80
71384 On ch=1 n=d6 v=70
71386 On ch=1 n=f5 v=40
71394 On ch=1 n=a#3 v=58
71396 On ch=1 n=a#2 v=52
71440 Off ch=1 n=a#3 v=64
71443 Off ch=1 n=a#2 v=64
71460 Off ch=1 n=f5 v=64
71484 Off ch=1 n=f6 v=64
71518 Par ch=1 c=64 v=127
71530 Off ch=1 n=d6 v=64
71538 On ch=1 n=g6 v=84
71576 Off ch=1 n=g6 v=64
71702 Par ch=1 c=64 v=0
71704 On ch=1 n=f5 v=63
71714 On ch=1 n=a#4 v=60
71714 On ch=1 n=f6 v=26
71720 On ch=1 n=d4 v=67
71746 Off ch=1 n=f5 v=64
71760 Off ch=1 n=a#4 v=64
71766 Off ch=1 n=d4 v=64
71782 Off ch=1 n=f6 v=64
71828 On ch=1 n=a#4 v=42
71830 On ch=1 n=d4 v=65
71844 On ch=1 n=d6 v=83
71844 On ch=1 n=f5 v=43
71884 Off ch=1 n=d4 v=64
71888 Off ch=1 n=d6 v=64
71900 Off ch=1 n=f5 v=64
71904 Off ch=1 n=a#4 v=64
72002 On ch=1 n=a#5 v=83
72008 On ch=1 n=f5 v=54
72016 On ch=1 n=a#4 v=56
72026 On ch=1 n=d4 v=56
72064 Off ch=1 n=f5 v=64
72064 Off ch=1 n=a#4 v=64
72080 Off ch=1 n=d4 v=64
72102 Off ch=1 n=a#5 v=64
72102 Par ch=1 c=64 v=127
72270 Par ch=1 c=64 v=0
72308 On ch=1 n=a#5 v=62
72310 On ch=1 n=a#4 v=61
72322 On ch=1 n=d5 v=67
72328 On ch=1 n=f5 v=53
72366 Off ch=1 n=a#4 v=64
72368 Off ch=1 n=d5 v=64
72372 Off ch=1 n=f5 v=64
72398 Off ch=1 n=a#5 v=64
72454 On ch=1 n=a#5 v=78
72462 On ch=1 n=f5 v=46
72464 On ch=1 n=d5 v=57
72470 On ch=1 n=a#4 v=54
72512 Off ch=1 n=d5 v=64
72516 Off ch=1 n=f5 v=64
72524 Off ch=1 n=a#4 v=64
72562 Off ch=1 n=a#5 v=64
72612 On ch=1 n=a#5 v=75
72618 On ch=1 n=d5 v=73
72620 On ch=1 n=f5 v=62
72624 On ch=1 n=a#4 v=51
72734 Off ch=1 n=f5 v=64
72746 Par ch=1 c=64 v=127
72748 Off ch=1 n=d5 v=64
72766 On ch=1 n=d#5 v=77
72776 On ch=1 n=g5 v=75
72784 Off ch=1 n=a#4 v=64
72808 Off ch=1 n=d#5 v=64
72810 Par ch=1 c=64 v=0
72824 Off ch=1 n=a#5 v=64
72840 Off ch=1 n=g5 v=64
72906 On ch=1 n=a#5 v=55
72922 On ch=1 n=d5 v=63
72928 On ch=1 n=f5 v=63
72968 Off ch=1 n=d5 v=64
72968 Off ch=1 n=f5 v=64
72982 Off ch=1 n=a#5 v=64
73046 On ch=1 n=a#4 v=64
73046 On ch=1 n=a#5 v=64
73056 On ch=1 n=d5 v=40
73096 Off ch=1 n=a#4 v=64
73096 Off ch=1 n=a#5 v=64
73110 Off ch=1 n=d5 v=64
73196 On ch=1 n=a#4 v=74
73202 On ch=1 n=a#5 v=60
73216 On ch=1 n=f4 v=93
73252 Off ch=1 n=f4 v=64
73266 Off ch=1 n=a#4 v=64
73280 Par ch=1 c=64 v=127
73308 Off ch=1 n=a#5 v=64
73408 Par ch=1 c=64 v=0
73484 On ch=1 n=a#5 v=72
73496 On ch=1 n=a#4 v=65
73498 On ch=1 n=d4 v=74
73500 On ch=1 n=f5 v=70
73540 Off ch=1 n=f5 v=64
73548 Off ch=1 n=d4 v=64
73556 Off ch=1 n=a#4 v=64
73584 Off ch=1 n=a#5 v=64
73624 On ch=1 n=f5 v=57
73628 On ch=1 n=f4 v=100
73628 On ch=1 n=c6 v=82
73630 On ch=1 n=c5 v=68
73632 On ch=1 n=a5 v=68
73666 Off ch=1 n=f4 v=64
73676 Off ch=1 n=a5 v=64
73684 Off ch=1 n=c6 v=64
73687 Off ch=1 n=f5 v=64
73690 Off ch=1 n=c5 v=64
73766 On ch=1 n=f5 v=86
73771 On ch=1 n=d6 v=99
73774 On ch=1 n=d5 v=89
73776 On ch=1 n=a#5 v=83
73788 On ch=1 n=a#4 v=74
73810 Off ch=1 n=d5 v=64
73826 Off ch=1 n=f5 v=64
73826 Off ch=1 n=a#5 v=64
73829 Off ch=1 n=a#4 v=64
73864 Off ch=1 n=d6 v=64
74066 On ch=1 n=c#6 v=87
74069 On ch=1 n=e6 v=89
74072 On ch=1 n=g5 v=88
74088 On ch=1 n=a4 v=39
74092 On ch=1 n=a3 v=46
74116 Off ch=1 n=g5 v=64
74146 Off ch=1 n=a3 v=64
74150 Off ch=1 n=a4 v=64
74158 Off ch=1 n=c#6 v=64
74186 Off ch=1 n=e6 v=64
74384 On ch=1 n=f5 v=92
74384 On ch=1 n=f6 v=95
74384 On ch=1 n=d4 v=88
74384 On ch=1 n=d3 v=82
74387 On ch=1 n=d6 v=92
74422 Off ch=1 n=d3 v=64
74430 Off ch=1 n=d4 v=64
74432 Off ch=1 n=f5 v=64
74450 Off ch=1 n=d6 v=64
74484 Par ch=1 c=64 v=127
74492 Off ch=1 n=f6 v=64
74622 Par ch=1 c=64 v=0
74692 On ch=1 n=d5 v=80
74696 On ch=1 n=d6 v=79
74698 On ch=1 n=f4 v=95
74698 On ch=1 n=a5 v=57
74746 Off ch=1 n=d5 v=64
74746 Off ch=1 n=d6 v=64
74749 Off ch=1 n=a5 v=64
74752 Off ch=1 n=f4 v=64
74819 On ch=1 n=e5 v=79
74822 On ch=1 n=a5 v=49
74822 On ch=1 n=a4 v=69
74826 On ch=1 n=e6 v=83
74828 On ch=1 n=c#6 v=75
74860 Off ch=1 n=e5 v=64
74874 Off ch=1 n=a4 v=64
74884 Off ch=1 n=a5 v=64
74886 Off ch=1 n=c#6 v=64
74890 Off ch=1 n=e6 v=64
74968 On ch=1 n=a5 v=79
74968 On ch=1 n=f6 v=97
74971 On ch=1 n=d6 v=98
74976 On ch=1 n=f5 v=80
74976 On ch=1 n=d5 v=88
75010 Off ch=1 n=f5 v=64
75013 Off ch=1 n=d5 v=64
75020 Off ch=1 n=d6 v=64
75034 Off ch=1 n=a5 v=64
75078 Off ch=1 n=f6 v=64
75272 On ch=1 n=g6 v=98
75275 On ch=1 n=d6 v=96
75278 On ch=1 n=b5 v=86
75280 On ch=1 n=g4 v=77
75284 On ch=1 n=g3 v=80
75320 Off ch=1 n=b5 v=64
75320 Off ch=1 n=g4 v=64
75326 Off ch=1 n=g3 v=64
75350 Off ch=1 n=d6 v=64
75396 Off ch=1 n=g6 v=64
75582 On ch=1 n=g6 v=98
75585 On ch=1 n=c6 v=87
75585 On ch=1 n=d#6 v=87
75589 On ch=1 n=c4 v=88
75589 On ch=1 n=c3 v=83
75622 Off ch=1 n=c3 v=64
75672 Off ch=1 n=c4 v=64
75674 Off ch=1 n=g6 v=64
75674 Off ch=1 n=d#6 v=64
75682 Par ch=1 c=64 v=127
75690 Off ch=1 n=c6 v=64
75850 Par ch=1 c=64 v=0
75892 On ch=1 n=c4 v=65
75892 On ch=1 n=d#4 v=68
75895 On ch=1 n=g6 v=90
75898 On ch=1 n=d#6 v=67
75900 On ch=1 n=c6 v=70
75940 Off ch=1 n=g6 v=64
75942 Off ch=1 n=d#4 v=64
75944 Off ch=1 n=c4 v=64
75944 Off ch=1 n=d#6 v=64
75944 Off ch=1 n=c6 v=64
76014 On ch=1 n=c4 v=57
76020 On ch=1 n=d#4 v=61
76026 On ch=1 n=d#6 v=68
76028 On ch=1 n=c6 v=57
76030 On ch=1 n=g6 v=88
76080 Off ch=1 n=d#4 v=64
76082 Off ch=1 n=c6 v=64
76084 Off ch=1 n=c4 v=64
76088 Off ch=1 n=g6 v=64
76124 Off ch=1 n=d#6 v=64
76194 On ch=1 n=d#6 v=72
76194 On ch=1 n=g6 v=101
76202 On ch=1 n=c6 v=83
76204 On ch=1 n=c4 v=61
76206 On ch=1 n=d#4 v=84
76260 Off ch=1 n=c4 v=64
76286 Off ch=1 n=d#4 v=64
76294 Off ch=1 n=g6 v=64
76296 Par ch=1 c=64 v=127
76318 Off ch=1 n=d#6 v=64
76346 On ch=1 n=g#6 v=80
76390 Off ch=1 n=c6 v=64
76424 Off ch=1 n=g#6 v=64
76434 Par ch=1 c=64 v=0
76498 On ch=1 n=d#4 v=72
76500 On ch=1 n=c5 v=65
76504 On ch=1 n=c6 v=60
76504 On ch=1 n=g6 v=83
76542 Off ch=1 n=d#4 v=64
76546 Off ch=1 n=c6 v=64
76548 Off ch=1 n=g6 v=64
76550 Off ch=1 n=c5 v=64
76636 On ch=1 n=c5 v=41
76636 On ch=1 n=d#6 v=79
76648 On ch=1 n=c6 v=24
76648 On ch=1 n=d#4 v=61
76698 Off ch=1 n=d#4 v=64
76702 Off ch=1 n=c5 v=64
76704 Off ch=1 n=c6 v=64
76712 Off ch=1 n=d#6 v=64
76794 On ch=1 n=c6 v=73
76796 On ch=1 n=c5 v=83
76802 On ch=1 n=d#4 v=73
76848 Off ch=1 n=d#4 v=64
76876 Off ch=1 n=c5 v=64
76890 Off ch=1 n=c6 v=64
76890 Par ch=1 c=64 v=127
77080 Par ch=1 c=64 v=0
77100 On ch=1 n=c6 v=69
77102 On ch=1 n=g5 v=66
77102 On ch=1 n=d#5 v=65
77105 On ch=1 n=c5 v=59
77146 Off ch=1 n=d#5 v=64
77148 Off ch=1 n=c6 v=64
77148 Off ch=1 n=g5 v=64
77158 Off ch=1 n=c5 v=64
77224 On ch=1 n=g5 v=60
77227 On ch=1 n=c6 v=65
77230 On ch=1 n=c5 v=62
77230 On ch=1 n=d#5 v=65
77282 Off ch=1 n=d#5 v=64
77284 Off ch=1 n=c6 v=64
77284 Off ch=1 n=c5 v=64
77306 Off ch=1 n=g5 v=64
77388 On ch=1 n=g5 v=83
77390 On ch=1 n=c6 v=85
77398 On ch=1 n=c5 v=64
77400 On ch=1 n=d#5 v=67
77502 Off ch=1 n=g5 v=64
77526 Par ch=1 c=64 v=127
77538 Off ch=1 n=d#5 v=64
77542 On ch=1 n=g#5 v=70
77552 On ch=1 n=f5 v=73
77564 Off ch=1 n=c5 v=64
77586 Par ch=1 c=64 v=0
77600 Off ch=1 n=c6 v=64
77600 Off ch=1 n=f5 v=64
77618 Off ch=1 n=g#5 v=64
77686 On ch=1 n=d#5 v=79
77690 On ch=1 n=g5 v=57
77700 On ch=1 n=c6 v=27
77720 Off ch=1 n=d#5 v=64
77746 Off ch=1 n=g5 v=64
77770 Off ch=1 n=c6 v=64
77812 On ch=1 n=d#5 v=48
77818 On ch=1 n=c6 v=57
77820 On ch=1 n=c5 v=69
77862 Off ch=1 n=c6 v=64
77868 Off ch=1 n=c5 v=64
77880 Off ch=1 n=d#5 v=64
77966 On ch=1 n=c6 v=68
77968 On ch=1 n=c5 v=67
77976 On ch=1 n=g4 v=82
78014 Off ch=1 n=c5 v=64
78016 Off ch=1 n=g4 v=64
78062 Par ch=1 c=64 v=127
78074 Off ch=1 n=c6 v=64
78274 On ch=1 n=c5 v=63
78274 On ch=1 n=d#4 v=69
78274 On ch=1 n=c6 v=72
78277 On ch=1 n=g5 v=66
78280 Par ch=1 c=64 v=0
78326 Off ch=1 n=g5 v=64
78330 Off ch=1 n=c6 v=64
78344 Off ch=1 n=c5 v=64
78358 Off ch=1 n=d#4 v=64
78404 On ch=1 n=d6 v=89
78407 On ch=1 n=g4 v=81
78411 On ch=1 n=d5 v=72
78411 On ch=1 n=g5 v=42
78411 On ch=1 n=b5 v=76
78450 Off ch=1 n=d5 v=64
78468 Off ch=1 n=g4 v=64
78468 Off ch=1 n=b5 v=64
78478 Off ch=1 n=g5 v=64
78480 Off ch=1 n=d6 v=64
78548 On ch=1 n=g5 v=82
78548 On ch=1 n=d#6 v=92
78554 On ch=1 n=d#5 v=92
78554 On ch=1 n=c6 v=84
78562 On ch=1 n=c5 v=83
78634 Off ch=1 n=c5 v=64
78648 Off ch=1 n=g5 v=64
78648 Off ch=1 n=d#5 v=64
78651 Off ch=1 n=c6 v=64
78674 Off ch=1 n=d#6 v=64
78846 On ch=1 n=f6 v=94
78852 On ch=1 n=f5 v=95
78854 On ch=1 n=a#4 v=69
78854 On ch=1 n=d6 v=89
78866 On ch=1 n=a#3 v=70
78890 Off ch=1 n=d6 v=64
78892 Off ch=1 n=f5 v=64
78898 Off ch=1 n=a#4 v=64
78910 Off ch=1 n=a#3 v=64
78936 Off ch=1 n=f6 v=64
79164 On ch=1 n=d#4 v=86
79164 On ch=1 n=d#3 v=76
79167 On ch=1 n=d#6 v=88
79170 On ch=1 n=g6 v=100
79170 On ch=1 n=g5 v=97
79198 Off ch=1 n=d#3 v=64
79224 Off ch=1 n=d#4 v=64
79262 Par ch=1 c=64 v=127
79274 Off ch=1 n=g5 v=64
79280 Off ch=1 n=g6 v=64
79326 Off ch=1 n=d#6 v=64
79456 On ch=1 n=g5 v=79
79458 On ch=1 n=d#6 v=77
79466 On ch=1 n=d#5 v=88
79468 On ch=1 n=g4 v=75
79476 Par ch=1 c=64 v=0
79504 Off ch=1 n=g5 v=64
79556 Off ch=1 n=d#5 v=64
79576 Off ch=1 n=d#6 v=64
79576 On ch=1 n=f5 v=76
79586 On ch=1 n=a#4 v=69
79590 On ch=1 n=f6 v=89
79592 On ch=1 n=a#5 v=81
79595 Off ch=1 n=g4 v=64
79686 Off ch=1 n=f5 v=64
79696 Off ch=1 n=f6 v=64
79699 Off ch=1 n=a#5 v=64
79708 Off ch=1 n=a#4 v=64
79740 On ch=1 n=d#6 v=83
79743 On ch=1 n=g5 v=95
79743 On ch=1 n=g6 v=102
79752 On ch=1 n=d#5 v=92
79764 On ch=1 n=a#5 v=45
79788 On ch=1 n=f6 v=25
79796 Off ch=1 n=d#5 v=64
79800 Off ch=1 n=g5 v=64
79826 Off ch=1 n=a#5 v=64
79832 Off ch=1 n=g6 v=64
79836 Off ch=1 n=d#6 v=64
79852 Off ch=1 n=f6 v=64
80056 On ch=1 n=a6 v=95
80060 On ch=1 n=f6 v=90
80062 On ch=1 n=c6 v=92
80066 On ch=1 n=f5 v=96
80070 On ch=1 n=f4 v=111
80142 Off ch=1 n=f5 v=64
80158 Off ch=1 n=a6 v=64
80170 Off ch=1 n=f4 v=64
80173 Off ch=1 n=c6 v=64
80198 Off ch=1 n=f6 v=64
80440 On ch=1 n=a#6 v=99
80442 On ch=1 n=a#5 v=97
80450 On ch=1 n=a#4 v=88
80460 On ch=1 n=a#3 v=86
80485 Par ch=1 c=64 v=2
80494 Off ch=1 n=a#3 v=64
80500 Par ch=1 c=64 v=2
80510 Par ch=1 c=64 v=126
80526 Off ch=1 n=a#4 v=64
80552 Off ch=1 n=a#5 v=64
80578 Off ch=1 n=a#6 v=64
80765 Par ch=1 c=64 v=2
80789 Par ch=1 c=64 v=2
80794 Par ch=1 c=64 v=2
80916 On ch=1 n=d#5 v=60
80922 On ch=1 n=c6 v=58
80922 On ch=1 n=a5 v=44
80928 On ch=1 n=f5 v=34
80966 Off ch=1 n=d#5 v=64
80976 Off ch=1 n=c6 v=64
80980 Off ch=1 n=a5 v=64
80982 Off ch=1 n=f5 v=64
81070 On ch=1 n=f5 v=40
81070 On ch=1 n=a5 v=35
81076 On ch=1 n=c6 v=47
81080 On ch=1 n=d#5 v=53
81126 Off ch=1 n=d#5 v=64
81128 Off ch=1 n=f5 v=64
81136 Off ch=1 n=a5 v=64
81136 Off ch=1 n=c6 v=64
81164 Par ch=1 c=64 v=2
81288 On ch=1 n=a5 v=35
81291 On ch=1 n=c6 v=55
81298 On ch=1 n=d#5 v=43
81304 On ch=1 n=f5 v=43
81385 Par ch=1 c=64 v=124
81412 Off ch=1 n=c6 v=64
81422 Off ch=1 n=f5 v=64
81436 Off ch=1 n=d#5 v=64
81442 Off ch=1 n=a5 v=64
81512 On ch=1 n=d6 v=65
81550 On ch=1 n=d5 v=29
81578 Off ch=1 n=d6 v=64
81599 Par ch=1 c=64 v=122
81605 Par ch=1 c=64 v=2
81620 Off ch=1 n=d5 v=64
81680 On ch=1 n=c6 v=63
81683 On ch=1 n=d#5 v=61
81683 On ch=1 n=f5 v=44
81686 On ch=1 n=a5 v=38
81740 Off ch=1 n=d#5 v=64
81746 Off ch=1 n=f5 v=64
81750 Off ch=1 n=c6 v=64
81789 Par ch=1 c=64 v=2
81790 Off ch=1 n=a5 v=64
81799 Par ch=1 c=64 v=0
81842 On ch=1 n=d#6 v=62
81854 On ch=1 n=c5 v=58
81902 Off ch=1 n=d#6 v=64
81910 Off ch=1 n=c5 v=64
82010 On ch=1 n=c6 v=63
82016 On ch=1 n=a5 v=45
82019 On ch=1 n=d#5 v=55
82022 On ch=1 n=f5 v=42
82040 Par ch=1 c=64 v=126
82082 Off ch=1 n=d#5 v=64
82088 Off ch=1 n=c6 v=64
82096 Off ch=1 n=a5 v=64
82099 Off ch=1 n=f5 v=64
82168 On ch=1 n=a#4 v=48
82169 Par ch=1 c=64 v=126
82175 Par ch=1 c=64 v=2
82176 On ch=1 n=e6 v=45
82236 Off ch=1 n=a#4 v=64
82240 Off ch=1 n=e6 v=64
82340 On ch=1 n=a5 v=40
82342 On ch=1 n=c6 v=56
82344 On ch=1 n=d#5 v=41
82344 On ch=1 n=f5 v=38
82404 Off ch=1 n=c6 v=64
82409 Par ch=1 c=64 v=2
82410 Off ch=1 n=f5 v=64
82412 Off ch=1 n=d#5 v=64
82416 Off ch=1 n=a5 v=64
82496 On ch=1 n=f6 v=63
82500 On ch=1 n=a4 v=42
82549 Par ch=1 c=64 v=127
82555 Par ch=1 c=64 v=2
82564 Off ch=1 n=a4 v=64
82598 Off ch=1 n=f6 v=64
82652 On ch=1 n=a5 v=49
82652 On ch=1 n=c6 v=57
82655 On ch=1 n=f5 v=44
82664 On ch=1 n=d#5 v=52
82722 Off ch=1 n=f5 v=64
82728 Off ch=1 n=a5 v=64
82732 Off ch=1 n=d#5 v=64
82738 Off ch=1 n=c6 v=64
82754 Par ch=1 c=64 v=2
82760 Par ch=1 c=64 v=124
82800 On ch=1 n=g6 v=72
82810 On ch=1 n=g4 v=55
82850 Off ch=1 n=g6 v=64
82868 Off ch=1 n=g4 v=64
82914 Par ch=1 c=64 v=122
82920 Par ch=1 c=64 v=4
82956 On ch=1 n=d#5 v=64
82964 On ch=1 n=a5 v=38
82966 On ch=1 n=f5 v=41
82978 On ch=1 n=c6 v=40
83004 Off ch=1 n=d#5 v=64
83024 Off ch=1 n=f5 v=64
83036 Off ch=1 n=a5 v=64
83059 Par ch=1 c=64 v=4
83060 Par ch=1 c=64 v=122
83076 Off ch=1 n=c6 v=64
83106 On ch=1 n=a6 v=55
83108 On ch=1 n=f4 v=83
83158 Off ch=1 n=f4 v=64
83164 Off ch=1 n=a6 v=64
83204 Par ch=1 c=64 v=122
83210 Par ch=1 c=64 v=2
83274 On ch=1 n=a5 v=38
83277 On ch=1 n=d#5 v=58
83282 On ch=1 n=f5 v=37
83286 On ch=1 n=c6 v=51
83354 Off ch=1 n=f5 v=64
83362 Off ch=1 n=d#5 v=64
83374 Off ch=1 n=a5 v=64
83402 Off ch=1 n=c6 v=64
83444 On ch=1 n=g6 v=64
83447 On ch=1 n=f4 v=75
83494 Off ch=1 n=f4 v=64
83496 Off ch=1 n=g6 v=64
83559 Par ch=1 c=64 v=2
83636 On ch=1 n=a#5 v=70
83639 On ch=1 n=f5 v=61
83644 On ch=1 n=f6 v=72
83652 On ch=1 n=d5 v=54
83684 Off ch=1 n=a#5 v=64
83684 Off ch=1 n=f5 v=64
83698 Off ch=1 n=d5 v=64
83700 Off ch=1 n=f6 v=64
83786 On ch=1 n=f6 v=73
83798 On ch=1 n=a#5 v=53
83801 On ch=1 n=d5 v=48
83804 On ch=1 n=f5 v=38
83846 Off ch=1 n=a#5 v=64
83848 Off ch=1 n=d5 v=64
83854 Off ch=1 n=f5 v=64
83896 Off ch=1 n=f6 v=64
83968 On ch=1 n=f6 v=69
84012 On ch=1 n=a#5 v=40
84016 On ch=1 n=d5 v=39
84016 On ch=1 n=f5 v=32
84086 Off ch=1 n=d5 v=64
84098 Off ch=1 n=a#5 v=64
84101 Off ch=1 n=f5 v=64
84104 Off ch=1 n=f6 v=64
84118 Par ch=1 c=64 v=127
84144 On ch=1 n=g6 v=74
84158 On ch=1 n=c#5 v=58
84186 Off ch=1 n=g6 v=64
84194 Par ch=1 c=64 v=0
84214 Off ch=1 n=c#5 v=64
84328 On ch=1 n=a#5 v=46
84328 On ch=1 n=f6 v=73
84346 On ch=1 n=f5 v=45
84356 On ch=1 n=d5 v=46
84390 Off ch=1 n=f6 v=64
84400 Off ch=1 n=f5 v=64
84404 Off ch=1 n=a#5 v=64
84416 Off ch=1 n=d5 v=64
84486 On ch=1 n=a6 v=74
84514 On ch=1 n=c5 v=52
84542 Off ch=1 n=a6 v=64
84568 Off ch=1 n=c5 v=64
84650 On ch=1 n=a#5 v=58
84660 On ch=1 n=f6 v=75
84666 On ch=1 n=f5 v=40
84674 On ch=1 n=d5 v=51
84722 Off ch=1 n=a#5 v=64
84726 Off ch=1 n=f5 v=64
84726 Off ch=1 n=d5 v=64
84760 Off ch=1 n=f6 v=64
84808 On ch=1 n=a#4 v=61
84808 On ch=1 n=a#6 v=72
84876 Off ch=1 n=a#4 v=64
84920 Off ch=1 n=a#6 v=64
84970 On ch=1 n=f6 v=87
84976 On ch=1 n=f5 v=59
84980 On ch=1 n=c6 v=67
84994 On ch=1 n=d5 v=63
85030 Off ch=1 n=c6 v=64
85038 Off ch=1 n=f5 v=64
85044 Off ch=1 n=d5 v=64
85080 Off ch=1 n=f6 v=64
85120 On ch=1 n=g#4 v=75
85126 On ch=1 n=c7 v=96
85184 Off ch=1 n=g#4 v=64
85230 Off ch=1 n=c7 v=64
85282 On ch=1 n=f6 v=86
85290 On ch=1 n=d6 v=72
85296 On ch=1 n=f5 v=63
85306 On ch=1 n=d5 v=64
85356 Off ch=1 n=f5 v=64
85366 Off ch=1 n=d5 v=64
85378 Par ch=1 c=64 v=127
85418 Off ch=1 n=d6 v=64
85430 Off ch=1 n=f6 v=64
85462 On ch=1 n=d7 v=89
85472 On ch=1 n=g4 v=68
85532 Off ch=1 n=g4 v=64
85564 Off ch=1 n=d7 v=64
85608 Par ch=1 c=64 v=0
85642 On ch=1 n=f5 v=48
85650 On ch=1 n=f6 v=69
85650 On ch=1 n=c6 v=63
85664 On ch=1 n=d5 v=51
85726 Off ch=1 n=f5 v=64
85729 Off ch=1 n=d5 v=64
85776 Off ch=1 n=c6 v=64
85796 On ch=1 n=g#4 v=58
85808 On ch=1 n=c7 v=74
85810 Off ch=1 n=f6 v=64
85838 Par ch=1 c=64 v=127
85852 Off ch=1 n=g#4 v=64
85855 Off ch=1 n=c7 v=64
85930 Par ch=1 c=64 v=0
85990 On ch=1 n=b5 v=47
85993 On ch=1 n=f6 v=57
86004 On ch=1 n=f5 v=42
86014 On ch=1 n=d5 v=44
86082 Off ch=1 n=f5 v=64
86084 Off ch=1 n=d5 v=64
86096 Off ch=1 n=f6 v=64
86098 Off ch=1 n=b5 v=64
86176 On ch=1 n=b6 v=79
86192 Par ch=1 c=64 v=127
86202 On ch=1 n=g4 v=45
86228 Off ch=1 n=b6 v=64
86260 Off ch=1 n=g4 v=64
86406 Par ch=1 c=64 v=0
86406 On ch=1 n=g6 v=79
86418 On ch=1 n=d#5 v=51
86426 On ch=1 n=c6 v=38
86428 On ch=1 n=g5 v=37
86452 Off ch=1 n=g6 v=64
86466 Off ch=1 n=d#5 v=64
86486 Off ch=1 n=c6 v=64
86486 Off ch=1 n=g5 v=64
86564 On ch=1 n=g5 v=48
86568 On ch=1 n=d#5 v=53
86570 On ch=1 n=c6 v=51
86570 On ch=1 n=g6 v=78
86632 Off ch=1 n=d#5 v=64
86634 Off ch=1 n=g6 v=64
86640 Off ch=1 n=g5 v=64
86642 Off ch=1 n=c6 v=64
86756 On ch=1 n=g6 v=81
86764 On ch=1 n=c6 v=50
86796 On ch=1 n=g5 v=37
86799 On ch=1 n=d#5 v=37
86900 Par ch=1 c=64 v=127
86914 Off ch=1 n=d#5 v=64
86930 Off ch=1 n=g5 v=64
86938 Off ch=1 n=g6 v=64
86938 On ch=1 n=g#6 v=70
86952 Off ch=1 n=c6 v=64
86998 Off ch=1 n=g#6 v=64
87006 Par ch=1 c=64 v=0
87086 On ch=1 n=f#5 v=48
87092 On ch=1 n=d5 v=52
87092 On ch=1 n=a6 v=87
87095 On ch=1 n=c6 v=71
87138 Off ch=1 n=f#5 v=64
87138 Off ch=1 n=a6 v=64
87141 Off ch=1 n=d5 v=64
87141 Off ch=1 n=c6 v=64
87252 On ch=1 n=f#5 v=47
87260 On ch=1 n=d5 v=37
87260 On ch=1 n=a6 v=85
87263 On ch=1 n=c6 v=65
87300 Off ch=1 n=a6 v=64
87306 Off ch=1 n=f#5 v=64
87310 Off ch=1 n=c6 v=64
87316 Off ch=1 n=d5 v=64
87414 On ch=1 n=a6 v=70
87417 On ch=1 n=c6 v=42
87434 On ch=1 n=f#5 v=40
87446 On ch=1 n=d5 v=25
87474 Off ch=1 n=c6 v=64
87538 Off ch=1 n=d5 v=64
87540 Off ch=1 n=a6 v=64
87544 Off ch=1 n=f#5 v=64
87546 Par ch=1 c=64 v=127
87580 On ch=1 n=d7 v=72
87622 Off ch=1 n=d7 v=64
87638 Par ch=1 c=64 v=0
87718 On ch=1 n=g5 v=64
87730 On ch=1 n=d#5 v=52
87744 On ch=1 n=c6 v=62
87766 Off ch=1 n=g5 v=64
87776 Off ch=1 n=d#5 v=64
87786 On ch=1 n=g6 v=26
87790 Off ch=1 n=c6 v=64
87850 Off ch=1 n=g6 v=64
87898 On ch=1 n=g5 v=82
87902 On ch=1 n=d#5 v=58
87906 On ch=1 n=c6 v=50
87920 On ch=1 n=g6 v=51
87952 Off ch=1 n=d#5 v=64
87954 Off ch=1 n=c6 v=64
87964 On ch=1 n=f6 v=14
87986 Off ch=1 n=g6 v=64
88000 Off ch=1 n=g5 v=64
88016 Off ch=1 n=f6 v=64
88042 On ch=1 n=g6 v=92
88045 On ch=1 n=c6 v=38
88056 On ch=1 n=d#5 v=45
88058 On ch=1 n=g5 v=78
88190 Par ch=1 c=64 v=127
88204 Off ch=1 n=c6 v=64
88228 On ch=1 n=g#5 v=82
88254 Off ch=1 n=d#5 v=64
88257 Off ch=1 n=g5 v=64
88298 Par ch=1 c=64 v=0
88308 Off ch=1 n=g6 v=64
88338 Off ch=1 n=g#5 v=64
88382 On ch=1 n=a5 v=79
88382 On ch=1 n=f#6 v=71
88394 On ch=1 n=c6 v=54
88406 On ch=1 n=d5 v=56
88440 Off ch=1 n=a5 v=64
88442 Off ch=1 n=f#6 v=64
88446 Off ch=1 n=c6 v=64
88456 Off ch=1 n=d5 v=64
88524 On ch=1 n=f#6 v=63
88534 On ch=1 n=a5 v=67
88546 On ch=1 n=d5 v=49
88552 On ch=1 n=c6 v=24
88592 Off ch=1 n=d5 v=64
88600 Off ch=1 n=a5 v=64
88616 Off ch=1 n=f#6 v=64
88626 Off ch=1 n=c6 v=64
88696 On ch=1 n=f#6 v=64
88699 On ch=1 n=c6 v=55
88708 On ch=1 n=a5 v=64
88740 On ch=1 n=d5 v=42
88794 Off ch=1 n=d5 v=64
88828 Off ch=1 n=f#6 v=64
88834 Par ch=1 c=64 v=127
88838 Off ch=1 n=c6 v=64
88868 Off ch=1 n=a5 v=64
88882 On ch=1 n=d6 v=65
89004 Par ch=1 c=64 v=0
89036 On ch=1 n=a#5 v=63
89042 Off ch=1 n=d6 v=64
89050 On ch=1 n=f6 v=69
89058 On ch=1 n=c#5 v=54
89062 On ch=1 n=f5 v=49
89090 Off ch=1 n=f6 v=64
89092 Off ch=1 n=a#5 v=64
89110 Off ch=1 n=f5 v=64
89112 Off ch=1 n=c#5 v=64
89186 On ch=1 n=f6 v=44
89186 On ch=1 n=a#5 v=46
89200 On ch=1 n=c#5 v=43
89200 On ch=1 n=f5 v=39
89264 Off ch=1 n=a#5 v=64
89264 Off ch=1 n=f5 v=64
89282 Off ch=1 n=f6 v=64
89282 Off ch=1 n=c#5 v=64
89358 On ch=1 n=f6 v=60
89378 On ch=1 n=a#5 v=30
89380 On ch=1 n=c#5 v=34
89394 On ch=1 n=f5 v=31
89502 Off ch=1 n=f6 v=64
89512 Par ch=1 c=64 v=127
89534 Off ch=1 n=c#5 v=64
89544 On ch=1 n=f#6 v=55
89562 Off ch=1 n=f5 v=64
89570 Off ch=1 n=a#5 v=64
89606 Off ch=1 n=f#6 v=64
89618 Par ch=1 c=64 v=0
89684 On ch=1 n=e5 v=51
89690 On ch=1 n=g6 v=69
89690 On ch=1 n=c5 v=41
89702 On ch=1 n=a#5 v=36
89734 Off ch=1 n=e5 v=64
89736 Off ch=1 n=g6 v=64
89752 Off ch=1 n=c5 v=64
89770 Off ch=1 n=a#5 v=64
89832 On ch=1 n=c5 v=46
89835 On ch=1 n=g6 v=51
89838 On ch=1 n=e5 v=48
89842 On ch=1 n=a#5 v=53
89892 Off ch=1 n=e5 v=64
89904 Off ch=1 n=g6 v=64
89904 Off ch=1 n=a#5 v=64
89907 Off ch=1 n=c5 v=64
89998 On ch=1 n=g6 v=69
90000 On ch=1 n=a#5 v=36
90014 On ch=1 n=e5 v=44
90030 On ch=1 n=c5 v=25
90048 Par ch=1 c=64 v=127
90052 Off ch=1 n=a#5 v=64
90068 Off ch=1 n=e5 v=64
90098 Off ch=1 n=c5 v=64
90156 On ch=1 n=c7 v=78
90202 Off ch=1 n=c7 v=64
90234 Off ch=1 n=g6 v=64
90294 Par ch=1 c=64 v=0
90320 On ch=1 n=f5 v=59
90330 On ch=1 n=a#5 v=65
90333 On ch=1 n=c#5 v=44
90344 On ch=1 n=f6 v=60
90372 Off ch=1 n=f5 v=64
90382 Off ch=1 n=a#5 v=64
90384 Off ch=1 n=f6 v=64
90392 Off ch=1 n=c#5 v=64
90468 On ch=1 n=f5 v=69
90468 On ch=1 n=f6 v=39
90470 On ch=1 n=c#5 v=58
90500 On ch=1 n=a#5 v=30
90520 Off ch=1 n=c#5 v=64
90548 Off ch=1 n=f6 v=64
90566 Off ch=1 n=f5 v=64
90570 Off ch=1 n=a#5 v=64
90622 On ch=1 n=f5 v=90
90644 On ch=1 n=f6 v=52
90646 On ch=1 n=c#5 v=55
90678 On ch=1 n=a#5 v=22
90722 Off ch=1 n=f6 v=64
90732 Off ch=1 n=c#5 v=64
90770 Par ch=1 c=64 v=127
90810 On ch=1 n=f#5 v=72
90840 Off ch=1 n=a#5 v=64
90843 Off ch=1 n=f5 v=64
90862 Par ch=1 c=64 v=0
90904 Off ch=1 n=f#5 v=64
90916 On ch=1 n=a#5 v=45
90928 On ch=1 n=e6 v=57
90938 On ch=1 n=g5 v=84
90962 On ch=1 n=c5 v=58
90976 Off ch=1 n=e6 v=64
90988 Off ch=1 n=a#5 v=64
90991 Off ch=1 n=g5 v=64
91014 Off ch=1 n=c5 v=64
91090 On ch=1 n=e6 v=47
91092 On ch=1 n=a#5 v=45
91102 On ch=1 n=g5 v=78
91102 On ch=1 n=c5 v=47
91148 Off ch=1 n=e6 v=64
91152 Off ch=1 n=g5 v=64
91154 Off ch=1 n=a#5 v=64
91158 Off ch=1 n=c5 v=64
91270 On ch=1 n=a#5 v=39
91276 On ch=1 n=e6 v=41
91286 On ch=1 n=g5 v=70
91298 On ch=1 n=c5 v=50
91400 Off ch=1 n=a#5 v=64
91402 Par ch=1 c=64 v=127
91436 Off ch=1 n=g5 v=64
91438 Off ch=1 n=e6 v=64
91470 On ch=1 n=c6 v=49
91482 Off ch=1 n=c5 v=64
91530 Off ch=1 n=c6 v=64
91632 Par ch=1 c=64 v=0
91635 On ch=1 n=g#5 v=77
91635 On ch=1 n=d#6 v=78
91639 On ch=1 n=c5 v=81
91696 Off ch=1 n=c5 v=64
91702 Off ch=1 n=g#5 v=64
91704 Off ch=1 n=d#6 v=64
91790 On ch=1 n=g#5 v=68
91796 On ch=1 n=d#6 v=76
91796 On ch=1 n=c5 v=61
91804 On ch=1 n=c6 v=70
91864 Off ch=1 n=c5 v=64
91866 Off ch=1 n=c6 v=64
91886 Off ch=1 n=g#5 v=64
91914 Off ch=1 n=d#6 v=64
91976 On ch=1 n=d#6 v=73
91984 On ch=1 n=g#5 v=66
91994 On ch=1 n=c6 v=71
92000 On ch=1 n=c5 v=65
92124 Par ch=1 c=64 v=127
92142 Off ch=1 n=c6 v=64
92176 On ch=1 n=f6 v=76
92180 Off ch=1 n=d#6 v=64
92182 Off ch=1 n=c5 v=64
92214 Off ch=1 n=g#5 v=64
92224 Off ch=1 n=f6 v=64
92276 Par ch=1 c=64 v=0
92320 On ch=1 n=c6 v=70
92326 On ch=1 n=g5 v=80
92328 On ch=1 n=d#6 v=75
92330 On ch=1 n=c5 v=64
92342 On ch=1 n=d#5 v=51
92366 Off ch=1 n=c6 v=64
92372 Off ch=1 n=g5 v=64
92374 Off ch=1 n=d#6 v=64
92386 Off ch=1 n=c5 v=64
92388 Off ch=1 n=d#5 v=64
92466 On ch=1 n=c6 v=62
92468 On ch=1 n=c5 v=59
92472 On ch=1 n=d#6 v=73
92474 On ch=1 n=d#5 v=53
92478 On ch=1 n=g5 v=72
92526 Off ch=1 n=c5 v=64
92534 Off ch=1 n=d#5 v=64
92538 Off ch=1 n=c6 v=64
92540 Off ch=1 n=g5 v=64
92586 Off ch=1 n=d#6 v=64
92638 On ch=1 n=d#6 v=85
92641 On ch=1 n=g5 v=84
92646 On ch=1 n=c6 v=70
92666 On ch=1 n=c5 v=61
92674 On ch=1 n=d#5 v=42
92688 Off ch=1 n=c6 v=64
92722 Off ch=1 n=c5 v=64
92724 Off ch=1 n=d#5 v=64
92734 Off ch=1 n=g5 v=64
92754 Par ch=1 c=64 v=127
92798 On ch=1 n=c6 v=46
92832 Off ch=1 n=d#6 v=64
92922 Par ch=1 c=64 v=0
92954 Off ch=1 n=c6 v=64
92954 On ch=1 n=f#5 v=83
92960 On ch=1 n=d6 v=84
92968 On ch=1 n=c5 v=59
92976 On ch=1 n=d5 v=60
93004 Off ch=1 n=d6 v=64
93018 Off ch=1 n=f#5 v=64
93020 Off ch=1 n=c5 v=64
93020 Off ch=1 n=d5 v=64
93100 On ch=1 n=c5 v=58
93102 On ch=1 n=f#5 v=70
93106 On ch=1 n=d5 v=52
93108 On ch=1 n=d6 v=76
93154 Off ch=1 n=d5 v=64
93178 Off ch=1 n=c5 v=64
93210 Off ch=1 n=f#5 v=64
93216 Off ch=1 n=d6 v=64
93276 On ch=1 n=d6 v=89
93280 On ch=1 n=f#5 v=69
93294 On ch=1 n=d5 v=75
93308 On ch=1 n=c5 v=42
93398 Par ch=1 c=64 v=127
93400 Off ch=1 n=c5 v=64
93406 Off ch=1 n=d5 v=64
93450 On ch=1 n=d#6 v=72
93464 Off ch=1 n=d6 v=64
93476 Off ch=1 n=f#5 v=64
93530 Off ch=1 n=d#6 v=64
93550 Par ch=1 c=64 v=0
93576 On ch=1 n=a4 v=64
93584 On ch=1 n=c5 v=60
93584 On ch=1 n=f#5 v=60
93598 On ch=1 n=c6 v=64
93630 Off ch=1 n=a4 v=64
93634 Off ch=1 n=c5 v=64
93646 Off ch=1 n=c6 v=64
93648 Off ch=1 n=f#5 v=64
93738 On ch=1 n=c6 v=59
93738 On ch=1 n=f#5 v=61
93754 On ch=1 n=a4 v=27
93802 Off ch=1 n=c6 v=64
93824 Off ch=1 n=f#5 v=64
93827 Off ch=1 n=a4 v=64
93888 On ch=1 n=a4 v=69
93904 On ch=1 n=f#5 v=57
93910 On ch=1 n=c6 v=66
93912 On ch=1 n=c5 v=54
94028 Par ch=1 c=64 v=127
94030 Off ch=1 n=c5 v=64
94044 Off ch=1 n=a4 v=64
94062 Off ch=1 n=c6 v=64
94076 Off ch=1 n=f#5 v=64
94076 On ch=1 n=a5 v=52
94132 Off ch=1 n=a5 v=64
94168 Par ch=1 c=64 v=0
94210 On ch=1 n=d5 v=78
94210 On ch=1 n=g4 v=81
94210 On ch=1 n=a#5 v=75
94220 On ch=1 n=g5 v=78
94248 Off ch=1 n=g4 v=64
94250 Off ch=1 n=d5 v=64
94264 Off ch=1 n=g5 v=64
94268 Off ch=1 n=a#5 v=64
94356 On ch=1 n=g4 v=66
94360 On ch=1 n=a#5 v=79
94360 On ch=1 n=d5 v=59
94364 On ch=1 n=g5 v=65
94404 Off ch=1 n=d5 v=64
94406 Off ch=1 n=g4 v=64
94412 Off ch=1 n=g5 v=64
94466 Off ch=1 n=a#5 v=64
94520 On ch=1 n=a#5 v=81
94524 On ch=1 n=g5 v=86
94532 On ch=1 n=d5 v=100
94532 On ch=1 n=g4 v=98
94598 Par ch=1 c=64 v=127
94676 On ch=1 n=c6 v=69
94694 Off ch=1 n=d5 v=64
94700 Off ch=1 n=g4 v=64
94704 Off ch=1 n=g5 v=64
94712 Off ch=1 n=a#5 v=64
94732 Off ch=1 n=c6 v=64
94750 Par ch=1 c=64 v=0
94826 On ch=1 n=c#5 v=75
94826 On ch=1 n=a#5 v=61
94836 On ch=1 n=g5 v=65
94846 On ch=1 n=f4 v=61
94872 Off ch=1 n=c#5 v=64
94884 Off ch=1 n=g5 v=64
94894 Off ch=1 n=a#5 v=64
94898 Off ch=1 n=f4 v=64
94976 On ch=1 n=f4 v=87
94982 On ch=1 n=c#5 v=69
94984 On ch=1 n=a#5 v=68
94996 On ch=1 n=g5 v=53
95028 Off ch=1 n=f4 v=64
95036 Off ch=1 n=c#5 v=64
95044 Off ch=1 n=g5 v=64
95070 Off ch=1 n=a#5 v=64
95142 On ch=1 n=c#5 v=79
95142 On ch=1 n=a#5 v=72
95145 On ch=1 n=g5 v=68
95150 On ch=1 n=f4 v=95
95258 Par ch=1 c=64 v=127
95298 Off ch=1 n=c#5 v=64
95304 On ch=1 n=a#4 v=61
95318 Off ch=1 n=f4 v=64
95340 Off ch=1 n=g5 v=64
95358 Off ch=1 n=a#4 v=64
95364 Off ch=1 n=a#5 v=64
95382 Par ch=1 c=64 v=0
95450 On ch=1 n=c5 v=73
95453 On ch=1 n=e4 v=88
95456 On ch=1 n=g5 v=61
95458 On ch=1 n=c6 v=71
95492 Off ch=1 n=e4 v=64
95498 Off ch=1 n=c5 v=64
95506 Off ch=1 n=g5 v=64
95510 Off ch=1 n=c6 v=64
95592 On ch=1 n=g5 v=67
95592 On ch=1 n=c6 v=79
95598 On ch=1 n=c5 v=67
95602 On ch=1 n=e4 v=83
95650 Off ch=1 n=e4 v=64
95654 Off ch=1 n=c5 v=64
95666 Off ch=1 n=g5 v=64
95712 Off ch=1 n=c6 v=64
95760 On ch=1 n=c6 v=95
95766 On ch=1 n=g5 v=68
95766 On ch=1 n=c5 v=72
95774 On ch=1 n=e4 v=93
95872 Par ch=1 c=64 v=127
95894 Off ch=1 n=c5 v=64
95930 Off ch=1 n=g5 v=64
95930 On ch=1 n=d6 v=80
95944 Off ch=1 n=e4 v=64
95956 Off ch=1 n=c6 v=64
95980 Off ch=1 n=d6 v=64
96010 Par ch=1 c=64 v=0
96054 On ch=1 n=c4 v=62
96062 On ch=1 n=g4 v=56
96066 On ch=1 n=a#5 v=62
96076 On ch=1 n=e5 v=60
96110 Off ch=1 n=c4 v=64
96113 Off ch=1 n=g4 v=64
96118 Off ch=1 n=a#5 v=64
96122 Off ch=1 n=e5 v=64
96224 On ch=1 n=g4 v=48
96224 On ch=1 n=a#5 v=60
96232 On ch=1 n=e5 v=42
96246 On ch=1 n=c4 v=27
96278 Off ch=1 n=g4 v=64
96290 Off ch=1 n=e5 v=64
96312 Off ch=1 n=a#5 v=64
96318 Off ch=1 n=c4 v=64
96396 On ch=1 n=c4 v=36
96408 On ch=1 n=g4 v=42
96414 On ch=1 n=a#5 v=45
96422 On ch=1 n=e5 v=48
96494 Off ch=1 n=g4 v=64
96518 Par ch=1 c=64 v=127
96556 Off ch=1 n=e5 v=64
96582 Off ch=1 n=c4 v=64
96588 On ch=1 n=c5 v=45
96644 Off ch=1 n=a#5 v=64
96650 Off ch=1 n=c5 v=64
96748 Par ch=1 c=64 v=0
96756 On ch=1 n=d#5 v=55
96756 On ch=1 n=a5 v=47
96764 On ch=1 n=c5 v=34
96774 On ch=1 n=f4 v=65
96810 Off ch=1 n=d#5 v=64
96814 Off ch=1 n=a5 v=64
96824 Off ch=1 n=f4 v=64
96826 Off ch=1 n=c5 v=64
96894 On ch=1 n=f4 v=84
96897 On ch=1 n=c5 v=56
96900 On ch=1 n=a5 v=42
96908 On ch=1 n=d#5 v=55
96962 Off ch=1 n=f4 v=64
96965 Off ch=1 n=d#5 v=64
96974 Off ch=1 n=c5 v=64
96998 Off ch=1 n=a5 v=64
97074 On ch=1 n=a5 v=53
97094 On ch=1 n=d#5 v=52
97104 On ch=1 n=c5 v=31
97112 On ch=1 n=f4 v=63
97224 Par ch=1 c=64 v=127
97238 Off ch=1 n=c5 v=64
97248 Off ch=1 n=f4 v=64
97258 Off ch=1 n=a5 v=64
97260 On ch=1 n=a#5 v=48
97262 Off ch=1 n=d#5 v=64
97310 Off ch=1 n=a#5 v=64
97348 Par ch=1 c=64 v=0
97390 On ch=1 n=f#4 v=71
97392 On ch=1 n=a#5 v=40
97404 On ch=1 n=c4 v=44
97408 On ch=1 n=a5 v=47
97414 On ch=1 n=d#5 v=49
97436 Off ch=1 n=f#4 v=64
97460 Off ch=1 n=c4 v=64
97462 Off ch=1 n=a#5 v=64
97464 Off ch=1 n=d#5 v=64
97466 Off ch=1 n=a5 v=64
97540 On ch=1 n=c4 v=42
97540 On ch=1 n=f#4 v=59
97543 On ch=1 n=a#5 v=56
97546 On ch=1 n=a5 v=33
97548 On ch=1 n=d#5 v=52
97600 Off ch=1 n=f#4 v=64
97608 Off ch=1 n=d#5 v=64
97610 Off ch=1 n=c4 v=64
97620 Off ch=1 n=a5 v=64
97654 Off ch=1 n=a#5 v=64
97722 On ch=1 n=b5 v=74
97728 On ch=1 n=f#4 v=54
97744 On ch=1 n=d#5 v=42
97747 On ch=1 n=a5 v=15
97754 On ch=1 n=c4 v=19
97824 Off ch=1 n=f#4 v=64
97834 Off ch=1 n=c4 v=64
97852 Off ch=1 n=a5 v=64
97854 Par ch=1 c=64 v=127
97858 Off ch=1 n=b5 v=64
97868 On ch=1 n=c6 v=58
97872 Off ch=1 n=d#5 v=64
97920 Off ch=1 n=c6 v=64
97946 Par ch=1 c=64 v=0
98010 On ch=1 n=c6 v=58
98014 On ch=1 n=c5 v=48
98018 On ch=1 n=g4 v=58
98028 On ch=1 n=a#5 v=56
98030 On ch=1 n=e5 v=62
98066 Off ch=1 n=c6 v=64
98071 Off ch=1 n=c5 v=64
98071 Off ch=1 n=g4 v=64
98074 Off ch=1 n=a#5 v=64
98074 Off ch=1 n=e5 v=64
98150 On ch=1 n=c5 v=49
98160 On ch=1 n=c6 v=73
98164 On ch=1 n=g4 v=49
98166 On ch=1 n=a#5 v=32
98170 On ch=1 n=e5 v=61
98220 Off ch=1 n=g4 v=64
98220 Off ch=1 n=e5 v=64
98223 Off ch=1 n=c6 v=64
98223 Off ch=1 n=a#5 v=64
98226 Off ch=1 n=c5 v=64
98326 On ch=1 n=c6 v=80
98334 On ch=1 n=c5 v=40
98338 On ch=1 n=e5 v=66
98338 On ch=1 n=a#5 v=47
98354 On ch=1 n=g4 v=46
98458 Off ch=1 n=c5 v=64
98458 Off ch=1 n=g4 v=64
98458 Par ch=1 c=64 v=127
98484 On ch=1 n=c#6 v=76
98490 Off ch=1 n=c6 v=64
98502 Off ch=1 n=a#5 v=64
98518 Off ch=1 n=e5 v=64
98546 Off ch=1 n=c#6 v=64
98560 Par ch=1 c=64 v=0
98620 On ch=1 n=c#6 v=76
98630 On ch=1 n=g4 v=65
98630 On ch=1 n=c4 v=54
98630 On ch=1 n=a#5 v=68
98633 On ch=1 n=e5 v=74
98674 Off ch=1 n=g4 v=64
98678 Off ch=1 n=a#5 v=64
98678 Off ch=1 n=e5 v=64
98682 Off ch=1 n=c4 v=64
98698 Off ch=1 n=c#6 v=64
98770 On ch=1 n=c#6 v=85
98772 On ch=1 n=g4 v=60
98772 On ch=1 n=c4 v=40
98780 On ch=1 n=a#5 v=65
98780 On ch=1 n=e5 v=79
98824 Off ch=1 n=g4 v=64
98832 Off ch=1 n=e5 v=64
98836 Off ch=1 n=c4 v=64
98854 Off ch=1 n=a#5 v=64
98858 Off ch=1 n=c#6 v=64
98926 On ch=1 n=c#6 v=74
98944 On ch=1 n=e5 v=79
98946 On ch=1 n=a#5 v=56
98948 On ch=1 n=g4 v=72
98952 On ch=1 n=c4 v=43
99046 Off ch=1 n=c4 v=64
99054 Off ch=1 n=g4 v=64
99054 Par ch=1 c=64 v=127
99074 Off ch=1 n=a#5 v=64
99100 On ch=1 n=d6 v=63
99118 Off ch=1 n=e5 v=64
99142 Off ch=1 n=d6 v=64
99150 Off ch=1 n=c#6 v=64
99160 Par ch=1 c=64 v=0
99242 On ch=1 n=d#5 v=78
99245 On ch=1 n=f4 v=72
99245 On ch=1 n=c5 v=39
99258 On ch=1 n=a5 v=46
99290 Off ch=1 n=f4 v=64
99296 Off ch=1 n=d#5 v=64
99312 Off ch=1 n=c5 v=64
99314 Off ch=1 n=a5 v=64
99390 On ch=1 n=a5 v=45
99408 On ch=1 n=c5 v=32
99412 On ch=1 n=d#5 v=51
99418 On ch=1 n=f4 v=55
99500 Off ch=1 n=d#5 v=64
99500 Off ch=1 n=f4 v=64
99526 Off ch=1 n=a5 v=64
99530 Off ch=1 n=c5 v=64
99584 On ch=1 n=f4 v=83
99587 On ch=1 n=a5 v=64
99587 On ch=1 n=d#5 v=39
99594 On ch=1 n=c5 v=42
99654 Off ch=1 n=f4 v=64
99660 Off ch=1 n=d#5 v=64
99710 Off ch=1 n=c5 v=64
99728 Par ch=1 c=64 v=127
99762 On ch=1 n=a#5 v=59
99824 Off ch=1 n=a5 v=64
99834 Off ch=1 n=a#5 v=64
99868 Par ch=1 c=64 v=0
99912 On ch=1 n=a5 v=36
99920 On ch=1 n=b5 v=75
99920 On ch=1 n=d#5 v=59
99920 On ch=1 n=f#4 v=72
99934 On ch=1 n=c4 v=37
99966 Off ch=1 n=f#4 v=64
99969 Off ch=1 n=b5 v=64
99969 Off ch=1 n=d#5 v=64
99986 Off ch=1 n=a5 v=64
100000 Off ch=1 n=c4 v=64
100058 On ch=1 n=f#4 v=59
100061 On ch=1 n=a5 v=49
100064 On ch=1 n=c4 v=56
100066 On ch=1 n=b5 v=67
100078 On ch=1 n=d#5 v=40
100128 Off ch=1 n=f#4 v=64
100131 Off ch=1 n=d#5 v=64
100134 Off ch=1 n=c4 v=64
100136 Off ch=1 n=a5 v=64
100150 Off ch=1 n=b5 v=64
100224 On ch=1 n=b5 v=76
100238 On ch=1 n=d#5 v=50
100238 On ch=1 n=a5 v=45
100250 On ch=1 n=c4 v=49
100250 On ch=1 n=f#4 v=66
100318 Off ch=1 n=c4 v=64
100330 Off ch=1 n=f#4 v=64
100372 Off ch=1 n=b5 v=64
100375 Off ch=1 n=a5 v=64
100375 Par ch=1 c=64 v=127
100386 On ch=1 n=c6 v=68
100398 Off ch=1 n=d#5 v=64
100430 Off ch=1 n=c6 v=64
100436 Par ch=1 c=64 v=0
100514 On ch=1 n=c6 v=67
100524 On ch=1 n=c5 v=60
100526 On ch=1 n=a#5 v=68
100526 On ch=1 n=g4 v=67
100526 On ch=1 n=e5 v=80
100568 Off ch=1 n=a#5 v=64
100568 Off ch=1 n=e5 v=64
100571 Off ch=1 n=g4 v=64
100576 Off ch=1 n=c5 v=64
100580 Off ch=1 n=c6 v=64
100666 On ch=1 n=c6 v=85
100668 On ch=1 n=a#5 v=53
100670 On ch=1 n=c5 v=46
100670 On ch=1 n=e5 v=77
100680 On ch=1 n=g4 v=53
100720 Off ch=1 n=e5 v=64
100730 Off ch=1 n=g4 v=64
100734 Off ch=1 n=c5 v=64
100740 Off ch=1 n=a#5 v=64
100748 Off ch=1 n=c6 v=64
100826 On ch=1 n=c6 v=88
100834 On ch=1 n=a#5 v=62
100834 On ch=1 n=c5 v=59
100834 On ch=1 n=e5 v=85
100852 On ch=1 n=g4 v=64
100928 Par ch=1 c=64 v=127
100936 Off ch=1 n=g4 v=64
100938 Off ch=1 n=c5 v=64
100976 Off ch=1 n=e5 v=64
100984 On ch=1 n=c#6 v=84
100992 Off ch=1 n=c6 v=64
101014 Off ch=1 n=a#5 v=64
101034 Par ch=1 c=64 v=0
101082 Off ch=1 n=c#6 v=64
101124 On ch=1 n=c4 v=55
101130 On ch=1 n=c#6 v=89
101130 On ch=1 n=g4 v=61
101138 On ch=1 n=e5 v=88
101142 On ch=1 n=a#5 v=67
101178 Off ch=1 n=c4 v=64
101180 Off ch=1 n=g4 v=64
101180 Off ch=1 n=e5 v=64
101186 Off ch=1 n=a#5 v=64
101226 Off ch=1 n=c#6 v=64
101284 On ch=1 n=c#6 v=87
101286 On ch=1 n=c4 v=41
101286 On ch=1 n=g4 v=52
101296 On ch=1 n=a#5 v=60
101296 On ch=1 n=e5 v=83
101336 Off ch=1 n=g4 v=64
101344 Off ch=1 n=c4 v=64
101346 Off ch=1 n=e5 v=64
101366 Off ch=1 n=a#5 v=64
101378 Off ch=1 n=c#6 v=64
101452 On ch=1 n=c#6 v=64
101474 On ch=1 n=a#5 v=50
101484 On ch=1 n=e5 v=61
101490 On ch=1 n=g4 v=37
101490 On ch=1 n=c4 v=33
101566 Off ch=1 n=g4 v=64
101588 Par ch=1 c=64 v=127
101602 Off ch=1 n=a#5 v=64
101605 Off ch=1 n=e5 v=64
101634 Off ch=1 n=c4 v=64
101642 On ch=1 n=d6 v=60
101678 Off ch=1 n=c#6 v=64
101684 Off ch=1 n=d6 v=64
101772 Par ch=1 c=64 v=0
101802 On ch=1 n=c5 v=49
101804 On ch=1 n=d#5 v=64
101808 On ch=1 n=a5 v=60
101834 On ch=1 n=f4 v=31
101848 Off ch=1 n=d#5 v=64
101860 Off ch=1 n=a5 v=64
101866 Off ch=1 n=c5 v=64
101892 Off ch=1 n=f4 v=64
101946 On ch=1 n=c5 v=52
101958 On ch=1 n=a5 v=45
101962 On ch=1 n=d#5 v=55
101984 On ch=1 n=f4 v=73
102022 Off ch=1 n=d#5 v=64
102030 Off ch=1 n=c5 v=64
102032 Off ch=1 n=f4 v=64
102070 Off ch=1 n=a5 v=64
102140 On ch=1 n=a5 v=59
102142 On ch=1 n=c5 v=36
102144 On ch=1 n=d#5 v=41
102152 On ch=1 n=f4 v=46
102278 Off ch=1 n=c5 v=64
102280 Par ch=1 c=64 v=127
102310 Off ch=1 n=f4 v=64
102320 On ch=1 n=a#5 v=56
102334 Off ch=1 n=a5 v=64
102352 Off ch=1 n=d#5 v=64
102386 Off ch=1 n=a#5 v=64
102434 Par ch=1 c=64 v=0
102472 On ch=1 n=f#3 v=62
102474 On ch=1 n=f#4 v=65
102484 On ch=1 n=a5 v=52
102487 On ch=1 n=b5 v=69
102487 On ch=1 n=d#5 v=53
102512 Off ch=1 n=f#3 v=64
102520 Off ch=1 n=f#4 v=64
102536 Off ch=1 n=b5 v=64
102536 Off ch=1 n=d#5 v=64
102542 Off ch=1 n=a5 v=64
102622 On ch=1 n=f#4 v=56
102624 On ch=1 n=b5 v=69
102626 On ch=1 n=a5 v=42
102630 On ch=1 n=d#5 v=55
102632 On ch=1 n=f#3 v=48
102680 Off ch=1 n=f#3 v=64
102690 Off ch=1 n=f#4 v=64
102692 Off ch=1 n=d#5 v=64
102702 Off ch=1 n=a5 v=64
102706 Off ch=1 n=b5 v=64
102800 On ch=1 n=b5 v=71
102800 On ch=1 n=f#4 v=76
102806 On ch=1 n=f#3 v=50
102806 On ch=1 n=d#5 v=65
102810 On ch=1 n=a5 v=43
102848 Off ch=1 n=f#3 v=64
102852 Off ch=1 n=f#4 v=64
102864 Par ch=1 c=64 v=127
102908 Off ch=1 n=a5 v=64
102932 Off ch=1 n=b5 v=64
102932 Off ch=1 n=d#5 v=64
102958 On ch=1 n=c6 v=72
103014 Off ch=1 n=c6 v=64
103032 Par ch=1 c=64 v=0
103090 On ch=1 n=c6 v=78
103100 On ch=1 n=e5 v=81
103102 On ch=1 n=c5 v=63
103104 On ch=1 n=a#5 v=64
103116 On ch=1 n=g4 v=55
103142 Off ch=1 n=e5 v=64
103148 Off ch=1 n=a#5 v=64
103154 Off ch=1 n=c5 v=64
103166 Off ch=1 n=g4 v=64
103168 Off ch=1 n=c6 v=64
103248 On ch=1 n=c6 v=88
103248 On ch=1 n=g4 v=58
103251 On ch=1 n=c5 v=49
103254 On ch=1 n=a#5 v=51
103254 On ch=1 n=e5 v=85
103300 Off ch=1 n=e5 v=64
103303 Off ch=1 n=g4 v=64
103310 Off ch=1 n=c5 v=64
103316 Off ch=1 n=a#5 v=64
103340 Off ch=1 n=c6 v=64
103408 On ch=1 n=c6 v=91
103418 On ch=1 n=e5 v=90
103420 On ch=1 n=a#5 v=66
103422 On ch=1 n=c5 v=74
103426 On ch=1 n=g4 v=92
103508 Par ch=1 c=64 v=127
103524 Off ch=1 n=c5 v=64
103530 Off ch=1 n=g4 v=64
103562 Off ch=1 n=c6 v=64
103566 On ch=1 n=c#6 v=79
103571 Off ch=1 n=e5 v=64
103638 Off ch=1 n=a#5 v=64
103646 Par ch=1 c=64 v=0
103664 Off ch=1 n=c#6 v=64
103706 On ch=1 n=b5 v=98
103712 On ch=1 n=g#4 v=78
103716 On ch=1 n=c#6 v=77
103718 On ch=1 n=g#3 v=84
103720 On ch=1 n=f5 v=74
103754 Off ch=1 n=g#4 v=64
103754 Off ch=1 n=g#3 v=64
103760 Off ch=1 n=f5 v=64
103764 Off ch=1 n=c#6 v=64
103796 Off ch=1 n=b5 v=64
103858 On ch=1 n=g#4 v=65
103862 On ch=1 n=b5 v=92
103868 On ch=1 n=g#3 v=71
103868 On ch=1 n=c#6 v=81
103868 On ch=1 n=f5 v=73
103918 Off ch=1 n=g#3 v=64
103921 Off ch=1 n=f5 v=64
103942 Off ch=1 n=g#4 v=64
103974 Off ch=1 n=b5 v=64
103974 Off ch=1 n=c#6 v=64
104020 On ch=1 n=c#6 v=90
104020 On ch=1 n=g#4 v=81
104030 On ch=1 n=b5 v=96
104030 On ch=1 n=f5 v=76
104040 On ch=1 n=g#3 v=81
104074 Off ch=1 n=g#3 v=64
104077 Par ch=1 c=64 v=127
104114 Off ch=1 n=g#4 v=64
104140 Off ch=1 n=f5 v=64
104150 Off ch=1 n=b5 v=64
104178 On ch=1 n=d6 v=85
104194 Off ch=1 n=c#6 v=64
104230 Par ch=1 c=64 v=0
104270 Off ch=1 n=d6 v=64
104328 On ch=1 n=f#5 v=75
104336 On ch=1 n=d6 v=92
104338 On ch=1 n=a4 v=76
104340 On ch=1 n=c5 v=79
104342 On ch=1 n=c6 v=73
104376 Off ch=1 n=d6 v=64
104386 Off ch=1 n=a4 v=64
104388 Off ch=1 n=c5 v=64
104390 Off ch=1 n=c6 v=64
104406 Off ch=1 n=f#5 v=64
104474 On ch=1 n=d6 v=85
104474 On ch=1 n=f#5 v=83
104480 On ch=1 n=c5 v=77
104480 On ch=1 n=c6 v=66
104483 On ch=1 n=a4 v=67
104540 Off ch=1 n=a4 v=64
104568 Off ch=1 n=d6 v=64
104578 Off ch=1 n=c5 v=64
104582 Off ch=1 n=f#5 v=64
104600 Off ch=1 n=c6 v=64
104634 On ch=1 n=d6 v=94
104634 On ch=1 n=f#5 v=84
104637 On ch=1 n=c5 v=92
104648 On ch=1 n=a4 v=85
104648 On ch=1 n=c6 v=98
104738 Par ch=1 c=64 v=127
104760 Off ch=1 n=c5 v=64
104790 Off ch=1 n=a4 v=64
104800 On ch=1 n=d#6 v=82
104820 Off ch=1 n=c6 v=64
104834 Off ch=1 n=d6 v=64
104860 Off ch=1 n=f#5 v=64
104906 Par ch=1 c=64 v=0
104914 Off ch=1 n=d#6 v=64
104940 On ch=1 n=g5 v=95
104940 On ch=1 n=c#6 v=84
104940 On ch=1 n=d#6 v=64
104943 On ch=1 n=a#3 v=79
104946 On ch=1 n=a#4 v=68
104984 Off ch=1 n=a#3 v=64
104986 Off ch=1 n=g5 v=64
104990 Off ch=1 n=c#6 v=64
104992 Off ch=1 n=a#4 v=64
105022 Off ch=1 n=d#6 v=64
105082 On ch=1 n=d#6 v=96
105084 On ch=1 n=g5 v=95
105084 On ch=1 n=a#4 v=61
105088 On ch=1 n=c#6 v=87
105090 On ch=1 n=a#3 v=64
105172 Off ch=1 n=a#4 v=64
105175 Off ch=1 n=d#6 v=64
105178 Off ch=1 n=a#3 v=64
105184 Off ch=1 n=c#6 v=64
105192 Off ch=1 n=g5 v=64
105248 On ch=1 n=d#6 v=92
105248 On ch=1 n=g5 v=100
105248 On ch=1 n=a#4 v=81
105251 On ch=1 n=c#6 v=78
105260 On ch=1 n=a#3 v=81
105306 Par ch=1 c=64 v=127
105324 Off ch=1 n=a#3 v=64
105352 Off ch=1 n=a#4 v=64
105394 Off ch=1 n=d#6 v=64
105420 Off ch=1 n=g5 v=64
105426 On ch=1 n=e6 v=72
105446 Off ch=1 n=c#6 v=64
105466 Off ch=1 n=e6 v=64
105552 Par ch=1 c=64 v=0
105584 On ch=1 n=b4 v=92
105586 On ch=1 n=g#5 v=85
105590 On ch=1 n=e6 v=76
105596 On ch=1 n=d6 v=78
105640 Off ch=1 n=d6 v=64
105646 Off ch=1 n=g#5 v=64
105660 Off ch=1 n=b4 v=64
105662 Off ch=1 n=e6 v=64
105724 On ch=1 n=b4 v=96
105732 On ch=1 n=e6 v=85
105734 On ch=1 n=g#5 v=82
105740 On ch=1 n=d6 v=68
105808 Off ch=1 n=b4 v=64
105834 Off ch=1 n=g#5 v=64
105840 Off ch=1 n=e6 v=64
105858 Off ch=1 n=d6 v=64
105898 On ch=1 n=b4 v=88
105898 On ch=1 n=e6 v=94
105901 On ch=1 n=g#5 v=85
105920 On ch=1 n=d6 v=94
105998 Off ch=1 n=b4 v=64
105998 Par ch=1 c=64 v=127
106038 Off ch=1 n=d6 v=64
106064 Off ch=1 n=g#5 v=64
106078 On ch=1 n=f6 v=91
106098 Off ch=1 n=e6 v=64
106172 Off ch=1 n=f6 v=64
106198 Par ch=1 c=64 v=0
106228 On ch=1 n=f6 v=103
106228 On ch=1 n=a5 v=95
106231 On ch=1 n=c5 v=92
106236 On ch=1 n=f4 v=101
106236 On ch=1 n=d#6 v=86
106239 On ch=1 n=c4 v=71
106288 Off ch=1 n=f4 v=64
106292 Off ch=1 n=c4 v=64
106302 Off ch=1 n=f6 v=64
106312 Off ch=1 n=c5 v=64
106316 Off ch=1 n=d#6 v=64
106332 Off ch=1 n=a5 v=64
106396 On ch=1 n=a5 v=87
106398 On ch=1 n=c5 v=85
106398 On ch=1 n=f6 v=88
106402 On ch=1 n=d#6 v=84
106408 On ch=1 n=f4 v=94
106414 On ch=1 n=c4 v=54
106468 Off ch=1 n=c4 v=64
106494 Off ch=1 n=a5 v=64
106502 Off ch=1 n=f4 v=64
106506 Off ch=1 n=c5 v=64
106510 Off ch=1 n=d#6 v=64
106520 Off ch=1 n=f6 v=64
106586 On ch=1 n=f6 v=103
106586 On ch=1 n=c5 v=94
106589 On ch=1 n=d#6 v=78
106592 On ch=1 n=a5 v=94
106592 On ch=1 n=f4 v=101
106604 On ch=1 n=c4 v=89
106662 Off ch=1 n=c5 v=64
106684 Off ch=1 n=c4 v=64
106686 Par ch=1 c=64 v=127
106702 Off ch=1 n=f4 v=64
106760 Off ch=1 n=f6 v=64
106784 Off ch=1 n=d#6 v=64
106786 On ch=1 n=g6 v=101
106866 Off ch=1 n=a5 v=64
106876 Off ch=1 n=g6 v=64
106934 Par ch=1 c=64 v=0
106984 On ch=1 n=f3 v=108
106988 On ch=1 n=f5 v=101
106988 On ch=1 n=f6 v=99
106988 On ch=1 n=f2 v=110
106992 On ch=1 n=d6 v=91
107022 Off ch=1 n=f2 v=64
107062 Off ch=1 n=f3 v=64
107074 Off ch=1 n=f6 v=64
107078 Off ch=1 n=f5 v=64
107106 Off ch=1 n=d6 v=64
107160 On ch=1 n=f2 v=108
107160 On ch=1 n=f3 v=98
107162 On ch=1 n=d6 v=100
107164 On ch=1 n=f6 v=76
107166 On ch=1 n=f5 v=87
107248 Off ch=1 n=f2 v=64
107258 Off ch=1 n=f3 v=64
107258 Off ch=1 n=f6 v=64
107268 Off ch=1 n=d6 v=64
107270 Off ch=1 n=f5 v=64
107386 On ch=1 n=d6 v=95
107386 On ch=1 n=f3 v=121
107386 On ch=1 n=f6 v=105
107386 On ch=1 n=f5 v=108
107392 On ch=1 n=f2 v=106
107420 Off ch=1 n=f2 v=64
107452 Off ch=1 n=f3 v=64
107488 Par ch=1 c=64 v=127
107492 Off ch=1 n=f5 v=64
107506 Off ch=1 n=f6 v=64
107584 On ch=1 n=g6 v=101
107634 Off ch=1 n=g6 v=64
107664 Off ch=1 n=d6 v=64
107742 On ch=1 n=a#4 v=78
107752 On ch=1 n=d4 v=84
107752 On ch=1 n=f6 v=92
107755 On ch=1 n=f5 v=83
107796 Off ch=1 n=d4 v=64
107805 Off ch=1 n=a#4 v=64
107816 Off ch=1 n=f5 v=64
107824 Off ch=1 n=f6 v=64
107898 On ch=1 n=d6 v=98
107898 On ch=1 n=f5 v=67
107901 On ch=1 n=a#4 v=75
107901 On ch=1 n=d4 v=76
107958 Off ch=1 n=d4 v=64
107994 Off ch=1 n=a#4 v=64
108008 Off ch=1 n=f5 v=64
108012 Off ch=1 n=d6 v=64
108070 On ch=1 n=f5 v=88
108076 On ch=1 n=a#5 v=96
108076 On ch=1 n=a#4 v=84
108094 On ch=1 n=d4 v=91
108130 Off ch=1 n=d4 v=64
108152 Off ch=1 n=a#4 v=64
108174 Off ch=1 n=f5 v=64
108192 Off ch=1 n=a#5 v=64
108348 Par ch=1 c=64 v=0
108380 On ch=1 n=a#5 v=76
108388 On ch=1 n=a#4 v=66
108388 On ch=1 n=d5 v=84
108391 On ch=1 n=f5 v=70
108424 Off ch=1 n=d5 v=64
108434 Off ch=1 n=a#4 v=64
108434 Off ch=1 n=f5 v=64
108440 Off ch=1 n=a#5 v=64
108528 On ch=1 n=a#5 v=75
108531 On ch=1 n=a#4 v=41
108535 On ch=1 n=f5 v=54
108542 On ch=1 n=d5 v=44
108586 Off ch=1 n=a#4 v=64
108590 Off ch=1 n=d5 v=64
108592 Off ch=1 n=f5 v=64
108602 Off ch=1 n=a#5 v=64
108688 On ch=1 n=a#5 v=73
108692 On ch=1 n=d5 v=71
108694 On ch=1 n=a#4 v=65
108696 On ch=1 n=f5 v=72
108804 Off ch=1 n=a#4 v=64
108808 Off ch=1 n=f5 v=64
108810 Off ch=1 n=d5 v=64
108810 Par ch=1 c=64 v=127
108842 On ch=1 n=d#5 v=79
108856 On ch=1 n=g5 v=70
108870 Par ch=1 c=64 v=0
108872 Off ch=1 n=a#5 v=64
108890 Off ch=1 n=d#5 v=64
108928 Off ch=1 n=g5 v=64
109006 On ch=1 n=d5 v=74
109010 On ch=1 n=a#5 v=58
109014 On ch=1 n=f5 v=62
109048 Off ch=1 n=d5 v=64
109056 Off ch=1 n=f5 v=64
109060 Off ch=1 n=a#5 v=64
109138 On ch=1 n=a#5 v=50
109140 On ch=1 n=d5 v=47
109146 On ch=1 n=a#4 v=75
109190 Off ch=1 n=a#4 v=64
109193 Off ch=1 n=a#5 v=64
109193 Off ch=1 n=d5 v=64
109312 On ch=1 n=f4 v=105
109318 On ch=1 n=a#4 v=93
109321 On ch=1 n=a#5 v=78
109346 Off ch=1 n=f4 v=64
109390 Off ch=1 n=a#5 v=64
109393 Off ch=1 n=a#4 v=64
109408 Par ch=1 c=64 v=127
109532 Par ch=1 c=64 v=0
109608 On ch=1 n=a#5 v=65
109611 On ch=1 n=d4 v=77
109616 On ch=1 n=a#4 v=65
109616 On ch=1 n=f5 v=55
109658 Off ch=1 n=d4 v=64
109660 Off ch=1 n=a#5 v=64
109662 Off ch=1 n=f5 v=64
109664 Off ch=1 n=a#4 v=64
109746 On ch=1 n=f5 v=59
109749 On ch=1 n=c5 v=79
109749 On ch=1 n=c6 v=81
109752 On ch=1 n=a5 v=67
109754 On ch=1 n=f4 v=98
109794 Off ch=1 n=f4 v=64
109798 Off ch=1 n=a5 v=64
109800 Off ch=1 n=c5 v=64
109812 Off ch=1 n=c6 v=64
109814 Off ch=1 n=f5 v=64
109896 On ch=1 n=f5 v=94
109896 On ch=1 n=d6 v=103
109896 On ch=1 n=d5 v=105
109896 On ch=1 n=a#5 v=87
109910 On ch=1 n=a#4 v=86
109940 Off ch=1 n=d5 v=64
109946 Off ch=1 n=a#4 v=64
109976 Off ch=1 n=d6 v=64
109984 Off ch=1 n=a#5 v=64
109996 Off ch=1 n=f5 v=64
110214 On ch=1 n=c#6 v=83
110216 On ch=1 n=a4 v=92
110216 On ch=1 n=e6 v=85
110220 On ch=1 n=g5 v=82
110224 On ch=1 n=a3 v=87
110254 Off ch=1 n=a4 v=64
110266 Off ch=1 n=a3 v=64
110268 Off ch=1 n=g5 v=64
110320 Off ch=1 n=e6 v=64
110322 Off ch=1 n=c#6 v=64
110536 On ch=1 n=f6 v=100
110540 On ch=1 n=f5 v=94
110540 On ch=1 n=d6 v=98
110544 On ch=1 n=d4 v=106
110544 On ch=1 n=d3 v=93
110574 Off ch=1 n=d3 v=64
110622 Off ch=1 n=f5 v=64
110628 Off ch=1 n=d6 v=64
110630 Off ch=1 n=d4 v=64
110652 Par ch=1 c=64 v=127
110662 Off ch=1 n=f6 v=64
110854 On ch=1 n=d5 v=89
110856 On ch=1 n=d6 v=77
110856 On ch=1 n=a5 v=69
110860 On ch=1 n=f4 v=98
110868 Par ch=1 c=64 v=0
110904 Off ch=1 n=a5 v=64
110914 Off ch=1 n=d6 v=64
110924 Off ch=1 n=d5 v=64
110972 On ch=1 n=e5 v=92
110976 On ch=1 n=c#6 v=82
110980 On ch=1 n=a4 v=73
110982 On ch=1 n=e6 v=91
110982 On ch=1 n=a5 v=63
110984 Off ch=1 n=f4 v=64
111036 Off ch=1 n=a4 v=64
111041 Off ch=1 n=a5 v=64
111058 Off ch=1 n=e5 v=64
111086 Off ch=1 n=c#6 v=64
111106 Off ch=1 n=e6 v=64
111130 On ch=1 n=a5 v=89
111130 On ch=1 n=f6 v=99
111133 On ch=1 n=f5 v=97
111136 On ch=1 n=d6 v=97
111138 On ch=1 n=d5 v=101
111192 Off ch=1 n=f5 v=64
111192 Off ch=1 n=d5 v=64
111212 Off ch=1 n=a5 v=64
111246 Off ch=1 n=f6 v=64
111246 Off ch=1 n=d6 v=64
111454 On ch=1 n=g4 v=99
111456 On ch=1 n=g6 v=101
111458 On ch=1 n=b5 v=100
111460 On ch=1 n=g3 v=95
111462 On ch=1 n=d6 v=94
111492 Off ch=1 n=g4 v=64
111506 Off ch=1 n=g3 v=64
111514 Off ch=1 n=b5 v=64
111532 Off ch=1 n=d6 v=64
111554 Off ch=1 n=g6 v=64
111784 On ch=1 n=g6 v=105
111786 On ch=1 n=c4 v=101
111786 On ch=1 n=c6 v=99
111789 On ch=1 n=d#6 v=96
111789 On ch=1 n=c3 v=96
111818 Off ch=1 n=c3 v=64
111868 Off ch=1 n=c6 v=64
111888 Off ch=1 n=c4 v=64
111896 Off ch=1 n=g6 v=64
111896 Off ch=1 n=d#6 v=64
111899 Par ch=1 c=64 v=127
112092 On ch=1 n=c4 v=80
112094 On ch=1 n=d#6 v=76
112094 On ch=1 n=g6 v=100
112098 On ch=1 n=c6 v=79
112100 On ch=1 n=d#4 v=76
112112 Par ch=1 c=64 v=0
112140 Off ch=1 n=c6 v=64
112144 Off ch=1 n=d#4 v=64
112150 Off ch=1 n=c4 v=64
112152 Off ch=1 n=g6 v=64
112170 Off ch=1 n=d#6 v=64
112234 On ch=1 n=d#4 v=72
112234 On ch=1 n=c4 v=57
112234 On ch=1 n=d#6 v=85
112234 On ch=1 n=g6 v=94
112237 On ch=1 n=c6 v=68
112282 Off ch=1 n=c6 v=64
112296 Off ch=1 n=d#4 v=64
112310 Off ch=1 n=c4 v=64
112324 Off ch=1 n=g6 v=64
112340 Off ch=1 n=d#6 v=64
112394 On ch=1 n=g6 v=102
112396 On ch=1 n=d#6 v=87
112398 On ch=1 n=c6 v=101
112402 On ch=1 n=d#4 v=95
112404 On ch=1 n=c4 v=74
112444 Off ch=1 n=d#4 v=64
112447 Off ch=1 n=c4 v=64
112500 Off ch=1 n=g6 v=64
112528 Off ch=1 n=d#6 v=64
112528 Par ch=1 c=64 v=127
112560 On ch=1 n=g#6 v=85
112624 Off ch=1 n=c6 v=64
112666 Par ch=1 c=64 v=0
112669 Off ch=1 n=g#6 v=64
112702 On ch=1 n=d#4 v=84
112702 On ch=1 n=c6 v=61
112704 On ch=1 n=c5 v=85
112712 On ch=1 n=g6 v=90
112712 On ch=1 n=d#6 v=69
112742 Off ch=1 n=d#4 v=64
112748 Off ch=1 n=c5 v=64
112754 Off ch=1 n=c6 v=64
112754 Off ch=1 n=d#6 v=64
112760 Off ch=1 n=g6 v=64
112838 On ch=1 n=c5 v=50
112841 On ch=1 n=d#4 v=73
112852 On ch=1 n=c6 v=71
112852 On ch=1 n=d#6 v=75
112900 Off ch=1 n=c6 v=64
112902 Off ch=1 n=d#4 v=64
112924 Off ch=1 n=c5 v=64
112948 Off ch=1 n=d#6 v=64
112998 On ch=1 n=c6 v=84
112998 On ch=1 n=c5 v=94
113014 On ch=1 n=d#4 v=92
113050 Off ch=1 n=d#4 v=64
113082 Off ch=1 n=c6 v=64
113092 Off ch=1 n=c5 v=64
113096 Par ch=1 c=64 v=127
113312 Par ch=1 c=64 v=0
113320 On ch=1 n=c6 v=67
113322 On ch=1 n=g5 v=76
113322 On ch=1 n=d#5 v=79
113328 On ch=1 n=c5 v=65
113366 Off ch=1 n=c6 v=64
113366 Off ch=1 n=g5 v=64
113366 Off ch=1 n=d#5 v=64
113376 Off ch=1 n=c5 v=64
113452 On ch=1 n=g5 v=69
113452 On ch=1 n=c5 v=64
113455 On ch=1 n=c6 v=63
113460 On ch=1 n=d#5 v=66
113502 Off ch=1 n=c6 v=64
113502 Off ch=1 n=d#5 v=64
113505 Off ch=1 n=c5 v=64
113516 Off ch=1 n=g5 v=64
113616 On ch=1 n=g5 v=89
113620 On ch=1 n=c6 v=91
113626 On ch=1 n=d#5 v=88
113630 On ch=1 n=c5 v=88
113718 Off ch=1 n=d#5 v=64
113726 Off ch=1 n=g5 v=64
113752 Off ch=1 n=c5 v=64
113762 On ch=1 n=g#5 v=70
113782 On ch=1 n=f5 v=77
113818 Off ch=1 n=c6 v=64
113828 Off ch=1 n=f5 v=64
113902 On ch=1 n=g5 v=72
113926 On ch=1 n=d#5 v=60
113926 On ch=1 n=c6 v=31
113968 Off ch=1 n=g5 v=64
113971 Off ch=1 n=d#5 v=64
113990 Off ch=1 n=c6 v=64
113993 Off ch=1 n=g#5 v=64
114046 On ch=1 n=c6 v=75
114052 On ch=1 n=d#5 v=70
114058 On ch=1 n=c5 v=44
114092 Off ch=1 n=c6 v=64
114122 Off ch=1 n=c5 v=64
114138 Off ch=1 n=d#5 v=64
114200 On ch=1 n=c6 v=82
114202 On ch=1 n=c5 v=80
114206 On ch=1 n=g4 v=83
114248 Off ch=1 n=g4 v=64
114252 Off ch=1 n=c5 v=64
114288 Off ch=1 n=c6 v=64
114294 Par ch=1 c=64 v=127
114510 Par ch=1 c=64 v=0
114516 On ch=1 n=c5 v=69
114520 On ch=1 n=g5 v=71
114520 On ch=1 n=c6 v=75
114520 On ch=1 n=d#4 v=60
114566 Off ch=1 n=c5 v=64
114566 Off ch=1 n=g5 v=64
114576 Off ch=1 n=d#4 v=64
114580 Off ch=1 n=c6 v=64
114652 On ch=1 n=d6 v=85
114654 On ch=1 n=g4 v=78
114654 On ch=1 n=d5 v=77
114654 On ch=1 n=g5 v=54
114662 On ch=1 n=b5 v=73
114694 Off ch=1 n=d5 v=64
114697 Off ch=1 n=g4 v=64
114710 Off ch=1 n=b5 v=64
114718 Off ch=1 n=g5 v=64
114738 Off ch=1 n=d6 v=64
114784 On ch=1 n=d#5 v=92
114790 On ch=1 n=d#6 v=90
114792 On ch=1 n=g5 v=81
114794 On ch=1 n=c6 v=83
114804 On ch=1 n=c5 v=76
114884 Off ch=1 n=d#5 v=64
114886 Off ch=1 n=g5 v=64
114890 Off ch=1 n=c5 v=64
114896 Off ch=1 n=c6 v=64
114910 Off ch=1 n=d#6 v=64
115076 On ch=1 n=f5 v=101
115078 On ch=1 n=f6 v=97
115080 On ch=1 n=a#4 v=83
115088 On ch=1 n=d6 v=84
115088 On ch=1 n=a#3 v=88
115122 Off ch=1 n=d6 v=64
115128 Off ch=1 n=a#4 v=64
115134 Off ch=1 n=a#3 v=64
115154 Off ch=1 n=f5 v=64
115174 Off ch=1 n=f6 v=64
115386 On ch=1 n=d#3 v=84
115388 On ch=1 n=g6 v=103
115390 On ch=1 n=d#4 v=92
115390 On ch=1 n=g5 v=98
115390 On ch=1 n=d#6 v=90
115422 Off ch=1 n=d#3 v=64
115472 Off ch=1 n=d#4 v=64
115490 Off ch=1 n=g6 v=64
115508 Par ch=1 c=64 v=127
115514 Off ch=1 n=g5 v=64
115540 Off ch=1 n=d#6 v=64
115682 On ch=1 n=d#6 v=81
115684 On ch=1 n=g5 v=74
115692 On ch=1 n=g4 v=76
115694 On ch=1 n=d#5 v=88
115732 Off ch=1 n=g5 v=64
115748 Off ch=1 n=d#5 v=64
115768 Off ch=1 n=g4 v=64
115802 Off ch=1 n=d#6 v=64
115818 On ch=1 n=f6 v=88
115821 On ch=1 n=a#5 v=81
115821 On ch=1 n=a#4 v=76
115825 On ch=1 n=f5 v=87
115908 Off ch=1 n=f5 v=64
115908 Par ch=1 c=64 v=0
115926 Off ch=1 n=a#5 v=64
115930 Off ch=1 n=f6 v=64
115942 Off ch=1 n=a#4 v=64
115977 On ch=1 n=g6 v=104
115982 On ch=1 n=g5 v=103
115982 On ch=1 n=d#6 v=89
115988 On ch=1 n=d#5 v=96
116086 Off ch=1 n=g5 v=64
116086 Off ch=1 n=d#5 v=64
116092 Off ch=1 n=g6 v=64
116112 Off ch=1 n=d#6 v=64
116326 On ch=1 n=a6 v=99
116332 On ch=1 n=c6 v=96
116332 On ch=1 n=f6 v=95
116335 On ch=1 n=f5 v=103
116340 On ch=1 n=f4 v=111
116424 Off ch=1 n=f5 v=64
116430 Off ch=1 n=c6 v=64
116450 Off ch=1 n=f4 v=64
116456 Off ch=1 n=a6 v=64
116496 Off ch=1 n=f6 v=64
116766 On ch=1 n=a#6 v=96
116770 On ch=1 n=a#5 v=91
116775 On ch=1 n=a#4 v=90
116780 On ch=1 n=a#3 v=84
116826 Off ch=1 n=a#3 v=64
116853 Off ch=1 n=a#4 v=64
116860 Par ch=1 c=64 v=127
116862 Off ch=1 n=a#5 v=64
116884 Off ch=1 n=a#6 v=64
117182 Par ch=1 c=64 v=0
117380 On ch=1 n=c5 v=105
117848 On ch=1 n=f4 v=118
118120 Par ch=1 c=64 v=127
118126 On ch=1 n=a2 v=60
118204 Off ch=1 n=a2 v=64
118214 On ch=1 n=f3 v=63
118236 On ch=1 n=f5 v=97
118254 On ch=1 n=c4 v=78
118404 Off ch=1 n=c4 v=64
118419 Off ch=1 n=f3 v=64
118446 Off ch=1 n=c5 v=64
118456 Off ch=1 n=f4 v=64
118508 Off ch=1 n=f5 v=64
118510 On ch=1 n=a#2 v=75
118578 On ch=1 n=f3 v=79
118636 Off ch=1 n=a#2 v=64
118636 On ch=1 n=g4 v=108
118639 On ch=1 n=c#4 v=106
118670 Off ch=1 n=f3 v=64
118784 Off ch=1 n=c#4 v=64
118896 On ch=1 n=b2 v=97
118966 Par ch=1 c=64 v=0
118974 On ch=1 n=g3 v=81
119006 Off ch=1 n=b2 v=64
119012 On ch=1 n=g5 v=100
119034 On ch=1 n=d4 v=102
119156 Off ch=1 n=g4 v=64
119168 Off ch=1 n=g3 v=64
119168 Off ch=1 n=d4 v=64
119180 Par ch=1 c=64 v=127
119264 On ch=1 n=c3 v=83
119360 On ch=1 n=g3 v=83
119396 Par ch=1 c=64 v=0
119466 Off ch=1 n=c3 v=64
119476 On ch=1 n=c5 v=97
119522 On ch=1 n=e4 v=99
119525 Off ch=1 n=g3 v=64
119610 Par ch=1 c=64 v=127
119654 Off ch=1 n=c5 v=64
119659 Off ch=1 n=g5 v=64
119666 Off ch=1 n=e4 v=64
119800 On ch=1 n=e3 v=96
119918 On ch=1 n=c4 v=65
119964 Off ch=1 n=e3 v=64
120026 Off ch=1 n=c4 v=64
120052 On ch=1 n=c6 v=107
120068 On ch=1 n=c5 v=83
120072 On ch=1 n=g5 v=84
120082 On ch=1 n=g4 v=92
120124 Off ch=1 n=g4 v=64
120126 Off ch=1 n=g5 v=64
120134 Off ch=1 n=c5 v=64
120832 On ch=1 n=a#5 v=86
120954 Off ch=1 n=c6 v=64
121030 On ch=1 n=a5 v=85
121080 Off ch=1 n=a#5 v=64
121144 On ch=1 n=f3 v=93
121148 Par ch=1 c=64 v=0
121194 On ch=1 n=c4 v=60
121204 On ch=1 n=g5 v=91
121238 Off ch=1 n=f3 v=64
121241 Off ch=1 n=a5 v=64
121320 On ch=1 n=f4 v=100
121348 Par ch=1 c=64 v=127
121351 Off ch=1 n=c4 v=64
121398 Off ch=1 n=f4 v=64
121418 On ch=1 n=a#5 v=89
121421 On ch=1 n=a#4 v=77
121486 Off ch=1 n=g5 v=64
121608 Off ch=1 n=a#4 v=64
121622 On ch=1 n=a5 v=87
121640 On ch=1 n=a4 v=79
121706 Off ch=1 n=a#5 v=64
121790 Off ch=1 n=a4 v=64
121812 On ch=1 n=g4 v=82
121812 On ch=1 n=g5 v=89
121818 Off ch=1 n=a5 v=64
121934 Off ch=1 n=g5 v=64
121970 Off ch=1 n=g4 v=64
121986 On ch=1 n=f5 v=82
121990 On ch=1 n=f4 v=97
122042 Off ch=1 n=f4 v=64
122086 Off ch=1 n=f5 v=64
122220 On ch=1 n=d6 v=99
122226 On ch=1 n=a#5 v=77
122234 On ch=1 n=d4 v=91
122238 On ch=1 n=f#5 v=67
122240 On ch=1 n=a#4 v=61
122240 On ch=1 n=d5 v=71
122316 Par ch=1 c=64 v=0
122518 Off ch=1 n=d5 v=64
122562 Par ch=1 c=64 v=127
122600 Off ch=1 n=a#4 v=64
122614 Off ch=1 n=a#5 v=64
122644 On ch=1 n=c6 v=89
122647 On ch=1 n=a5 v=61
122647 On ch=1 n=c5 v=78
122664 On ch=1 n=a4 v=62
122696 Off ch=1 n=d6 v=64
122778 Off ch=1 n=a5 v=64
122800 Off ch=1 n=c5 v=64
122806 Off ch=1 n=a4 v=64
122836 Off ch=1 n=c6 v=64
123052 Par ch=1 c=64 v=0
123056 On ch=1 n=c6 v=95
123066 On ch=1 n=c5 v=82
123078 On ch=1 n=a5 v=58
123078 On ch=1 n=a4 v=60
123240 Off ch=1 n=a4 v=64
123250 Off ch=1 n=c5 v=64
123270 Off ch=1 n=a5 v=64
123278 Off ch=1 n=f#5 v=64
123282 Par ch=1 c=64 v=127
123288 Off ch=1 n=d4 v=64
123468 On ch=1 n=a#5 v=79
123476 On ch=1 n=a#4 v=58
123488 On ch=1 n=g5 v=65
123488 On ch=1 n=d5 v=51
123498 Par ch=1 c=64 v=0
123504 On ch=1 n=d4 v=55
123512 On ch=1 n=g4 v=57
123524 Off ch=1 n=c6 v=64
123740 Off ch=1 n=g4 v=64
123744 Off ch=1 n=g5 v=64
123744 Par ch=1 c=64 v=127
123754 Off ch=1 n=d4 v=64
123830 Off ch=1 n=a#4 v=64
123830 Off ch=1 n=d5 v=64
123948 Off ch=1 n=a#5 v=64
123951 On ch=1 n=a5 v=71
123960 Par ch=1 c=64 v=0
123968 On ch=1 n=a4 v=52
123974 On ch=1 n=f#5 v=42
123984 On ch=1 n=d5 v=49
123990 On ch=1 n=d4 v=41
123990 On ch=1 n=f#4 v=50
124136 Off ch=1 n=f#5 v=64
124202 Off ch=1 n=f#4 v=64
124206 Par ch=1 c=64 v=127
124240 Off ch=1 n=a4 v=64
124276 Off ch=1 n=d4 v=64
124290 Off ch=1 n=d5 v=64
124394 On ch=1 n=d5 v=87
124430 Off ch=1 n=a5 v=64
124820 On ch=1 n=g4 v=85
125020 Par ch=1 c=64 v=0
125120 On ch=1 n=a#2 v=62
125196 Off ch=1 n=a#2 v=64
125210 On ch=1 n=g3 v=63
125234 Par ch=1 c=64 v=127
125242 On ch=1 n=g5 v=91
125260 On ch=1 n=d4 v=81
125326 Off ch=1 n=d5 v=64
125386 Off ch=1 n=d4 v=64
125400 Off ch=1 n=g3 v=64
125476 Off ch=1 n=g4 v=64
125512 On ch=1 n=b2 v=88
125588 Par ch=1 c=64 v=0
125620 On ch=1 n=g3 v=74
125632 Off ch=1 n=b2 v=64
125640 On ch=1 n=g#4 v=92
125702 On ch=1 n=d#4 v=80
125750 Off ch=1 n=g3 v=64
125772 Par ch=1 c=64 v=127
125818 Off ch=1 n=g5 v=64
125884 Off ch=1 n=d#4 v=64
125916 Off ch=1 n=g#4 v=64
125936 On ch=1 n=c#3 v=76
126018 Par ch=1 c=64 v=0
126026 On ch=1 n=a3 v=71
126042 On ch=1 n=a5 v=91
126056 On ch=1 n=a4 v=68
126059 On ch=1 n=g4 v=87
126070 Off ch=1 n=c#3 v=64
126072 On ch=1 n=e4 v=92
126188 Par ch=1 c=64 v=127
126216 Off ch=1 n=e4 v=64
126224 Off ch=1 n=a3 v=64
126300 On ch=1 n=d3 v=84
126316 Off ch=1 n=g4 v=64
126356 Par ch=1 c=64 v=0
126402 Off ch=1 n=a4 v=64
126424 On ch=1 n=a3 v=67
126470 Off ch=1 n=a5 v=64
126482 Off ch=1 n=d3 v=64
126538 On ch=1 n=d5 v=101
126564 On ch=1 n=f#4 v=95
126567 Off ch=1 n=a3 v=64
126588 Par ch=1 c=64 v=127
126664 Off ch=1 n=d5 v=64
126744 Off ch=1 n=f#4 v=64
126822 On ch=1 n=f#3 v=76
126924 On ch=1 n=d4 v=68
126944 Off ch=1 n=f#3 v=64
126978 Off ch=1 n=d4 v=64
127020 On ch=1 n=d6 v=107
127030 On ch=1 n=d5 v=75
127046 On ch=1 n=a4 v=79
127046 On ch=1 n=c5 v=68
127088 Off ch=1 n=a4 v=64
127094 Off ch=1 n=c5 v=64
127138 Off ch=1 n=d5 v=64
127816 On ch=1 n=c6 v=91
127934 Off ch=1 n=d6 v=64
128030 On ch=1 n=a#5 v=86
128100 Off ch=1 n=c6 v=64
128190 On ch=1 n=g3 v=80
128200 Par ch=1 c=64 v=0
128220 On ch=1 n=a5 v=80
128246 On ch=1 n=d4 v=74
128274 Off ch=1 n=a#5 v=64
128332 On ch=1 n=g4 v=87
128348 Off ch=1 n=g3 v=64
128354 Off ch=1 n=d4 v=64
128384 Par ch=1 c=64 v=127
128436 On ch=1 n=c6 v=88
128446 Off ch=1 n=g4 v=64
128452 On ch=1 n=d5 v=67
128468 On ch=1 n=c5 v=78
128490 Off ch=1 n=a5 v=64
128660 Off ch=1 n=c5 v=64
128666 On ch=1 n=a#5 v=84
128676 On ch=1 n=a#4 v=65
128692 Off ch=1 n=d5 v=64
128838 Off ch=1 n=c6 v=64
128866 On ch=1 n=a5 v=80
128874 On ch=1 n=a4 v=72
128906 Off ch=1 n=a#4 v=64
128980 Off ch=1 n=a#5 v=64
129034 Off ch=1 n=a5 v=64
129054 On ch=1 n=g4 v=79
129057 On ch=1 n=g5 v=90
129060 Off ch=1 n=a4 v=64
129110 Off ch=1 n=g4 v=64
129196 Off ch=1 n=g5 v=64
129264 On ch=1 n=c6 v=94
129266 On ch=1 n=a5 v=74
129268 On ch=1 n=c4 v=81
129276 On ch=1 n=a4 v=72
129280 On ch=1 n=e5 v=79
129288 On ch=1 n=c5 v=62
129352 Par ch=1 c=64 v=0
129520 Off ch=1 n=a4 v=64
129568 Par ch=1 c=64 v=127
129668 Off ch=1 n=c5 v=64
129680 On ch=1 n=a#5 v=83
129680 On ch=1 n=g5 v=82
129694 On ch=1 n=a#4 v=61
129696 On ch=1 n=g4 v=59
129710 Off ch=1 n=a5 v=64
129736 Par ch=1 c=64 v=0
129768 Off ch=1 n=c6 v=64
129826 Off ch=1 n=g4 v=64
129868 Off ch=1 n=a#4 v=64
129876 Par ch=1 c=64 v=127
129882 Off ch=1 n=g5 v=64
129910 Off ch=1 n=a#5 v=64
130086 On ch=1 n=a#5 v=76
130102 On ch=1 n=g5 v=68
130102 On ch=1 n=a#4 v=54
130112 On ch=1 n=g4 v=55
130314 Off ch=1 n=g5 v=64
130366 Off ch=1 n=g4 v=64
130390 Off ch=1 n=a#4 v=64
130440 On ch=1 n=g5 v=22
130474 Off ch=1 n=a#5 v=64
130520 Par ch=1 c=64 v=0
130536 Off ch=1 n=g5 v=64
130541 On ch=1 n=a5 v=70
130541 On ch=1 n=a4 v=58
130554 On ch=1 n=f4 v=61
130556 Off ch=1 n=e5 v=64
130558 On ch=1 n=f5 v=50
130736 Par ch=1 c=64 v=127
130748 Off ch=1 n=f4 v=64
130772 Off ch=1 n=f5 v=64
130784 Off ch=1 n=c4 v=64
130886 Off ch=1 n=a4 v=64
131012 Par ch=1 c=64 v=0
131030 On ch=1 n=f5 v=69
131044 On ch=1 n=c5 v=46
131048 On ch=1 n=f4 v=69
131052 On ch=1 n=a3 v=29
131062 Off ch=1 n=a5 v=64
131258 Par ch=1 c=64 v=127
131320 Off ch=1 n=f4 v=64
131342 Off ch=1 n=f5 v=64
131368 Off ch=1 n=a3 v=64
131384 Off ch=1 n=c5 v=64
131568 On ch=1 n=c5 v=89
132024 On ch=1 n=f4 v=105
132456 Par ch=1 c=64 v=0
132466 On ch=1 n=f5 v=88
132470 On ch=1 n=a3 v=73
132470 On ch=1 n=a2 v=78
132524 Off ch=1 n=c5 v=64
132688 Par ch=1 c=64 v=127
132720 Off ch=1 n=a3 v=64
132754 Off ch=1 n=a2 v=64
132856 Par ch=1 c=64 v=0
132882 On ch=1 n=d5 v=96
132885 On ch=1 n=a#3 v=84
132894 On ch=1 n=a#2 v=78
132962 Off ch=1 n=f5 v=64
133034 Off ch=1 n=d5 v=64
133040 Par ch=1 c=64 v=127
133054 Off ch=1 n=a#2 v=64
133098 Off ch=1 n=a#3 v=64
133112 Off ch=1 n=f4 v=64
133280 On ch=1 n=a#4 v=75
133284 On ch=1 n=d4 v=78
133288 On ch=1 n=d3 v=66
133296 On ch=1 n=f4 v=104
133302 Par ch=1 c=64 v=0
133486 Par ch=1 c=64 v=127
133516 Off ch=1 n=d3 v=64
133516 Off ch=1 n=f4 v=64
133522 Off ch=1 n=d4 v=64
133552 Off ch=1 n=a#4 v=64
133654 Par ch=1 c=64 v=0
133666 On ch=1 n=g4 v=92
133676 On ch=1 n=e3 v=91
133688 On ch=1 n=d4 v=57
133692 On ch=1 n=e4 v=58
133780 Off ch=1 n=e4 v=64
133870 Par ch=1 c=64 v=127
133882 Off ch=1 n=d4 v=64
134070 Off ch=1 n=e3 v=64
134070 Par ch=1 c=64 v=0
134073 On ch=1 n=a4 v=70
134076 On ch=1 n=c#4 v=71
134078 Off ch=1 n=g4 v=64
134082 On ch=1 n=a3 v=53
134088 On ch=1 n=e4 v=71
134300 Par ch=1 c=64 v=127
134386 Off ch=1 n=c#4 v=64
134402 Off ch=1 n=e4 v=64
134454 Off ch=1 n=a3 v=64
134454 Par ch=1 c=64 v=0
134480 Off ch=1 n=a4 v=64
134504 On ch=1 n=f4 v=102
134510 On ch=1 n=d4 v=75
134516 On ch=1 n=d3 v=50
134626 Off ch=1 n=d4 v=64
134654 Par ch=1 c=64 v=127
134668 Off ch=1 n=f4 v=64
134668 Off ch=1 n=d3 v=64
134978 On ch=1 n=f5 v=92
134986 On ch=1 n=d#5 v=82
134992 On ch=1 n=a3 v=66
134994 On ch=1 n=a2 v=72
135068 Par ch=1 c=64 v=0
135268 Par ch=1 c=64 v=127
135276 Off ch=1 n=a3 v=64
135428 On ch=1 n=d5 v=84
135431 On ch=1 n=a#3 v=79
135436 Off ch=1 n=d#5 v=64
135436 On ch=1 n=a#2 v=68
135436 Par ch=1 c=64 v=0
135439 Off ch=1 n=a2 v=64
135652 Par ch=1 c=64 v=127
135706 Off ch=1 n=d5 v=64
135718 Off ch=1 n=a#3 v=64
135788 Off ch=1 n=a#2 v=64
135820 Par ch=1 c=64 v=0
135828 On ch=1 n=a#5 v=85
135838 On ch=1 n=g2 v=87
135842 On ch=1 n=g3 v=78
135848 On ch=1 n=d5 v=83
135888 Off ch=1 n=f5 v=64
136008 Off ch=1 n=g2 v=64
136036 Par ch=1 c=64 v=127
136058 Off ch=1 n=g3 v=64
136188 Off ch=1 n=d5 v=64
136220 Par ch=1 c=64 v=0
136228 On ch=1 n=g5 v=90
136231 On ch=1 n=d#5 v=75
136236 Off ch=1 n=a#5 v=64
136238 On ch=1 n=c4 v=63
136242 On ch=1 n=c3 v=73
136348 Off ch=1 n=d#5 v=64
136386 Off ch=1 n=g5 v=64
136389 Par ch=1 c=64 v=127
136402 Off ch=1 n=c4 v=64
136405 Off ch=1 n=c3 v=64
136618 On ch=1 n=d#5 v=88
136626 On ch=1 n=d#4 v=67
136630 On ch=1 n=d#3 v=68
136638 On ch=1 n=g4 v=62
136870 Off ch=1 n=g4 v=64
136878 Off ch=1 n=d#3 v=64
136896 Off ch=1 n=d#4 v=64
137020 Par ch=1 c=64 v=0
137020 On ch=1 n=c5 v=88
137026 Off ch=1 n=d#5 v=64
137028 On ch=1 n=a4 v=63
137036 On ch=1 n=f4 v=90
137038 On ch=1 n=f3 v=73
137156 Off ch=1 n=f4 v=64
137173 Off ch=1 n=a4 v=64
137204 Par ch=1 c=64 v=127
137212 Off ch=1 n=f3 v=64
137286 Off ch=1 n=c5 v=64
137422 On ch=1 n=f5 v=85
137432 On ch=1 n=a4 v=70
137434 On ch=1 n=f2 v=69
137436 On ch=1 n=f3 v=66
137440 On ch=1 n=c5 v=74
137586 Off ch=1 n=f3 v=64
137650 Off ch=1 n=f2 v=64
137690 Off ch=1 n=c5 v=64
137706 Off ch=1 n=a4 v=64
137740 Off ch=1 n=f5 v=64
137814 On ch=1 n=a#4 v=64
137820 On ch=1 n=d5 v=93
137826 On ch=1 n=a#3 v=75
137828 On ch=1 n=a#2 v=67
137916 Off ch=1 n=a#4 v=64
137942 Off ch=1 n=d5 v=64
137980 Off ch=1 n=a#3 v=64
138046 Off ch=1 n=a#2 v=64
138188 Par ch=1 c=64 v=0
138210 On ch=1 n=a#5 v=88
138222 On ch=1 n=g3 v=82
138222 On ch=1 n=g2 v=87
138222 On ch=1 n=d5 v=89
138222 On ch=1 n=e5 v=87
138380 Off ch=1 n=d5 v=64
138402 Par ch=1 c=64 v=127
138407 Off ch=1 n=g2 v=64
138450 Off ch=1 n=a#5 v=64
138453 Off ch=1 n=g3 v=64
138482 Off ch=1 n=e5 v=64
138586 Par ch=1 c=64 v=0
138598 On ch=1 n=c#5 v=97
138602 On ch=1 n=a5 v=89
138608 On ch=1 n=a3 v=89
138610 On ch=1 n=a2 v=87
138716 Off ch=1 n=c#5 v=64
138726 Off ch=1 n=a2 v=64
138738 Off ch=1 n=a5 v=64
138740 Par ch=1 c=64 v=127
138784 Off ch=1 n=a3 v=64
139032 On ch=1 n=a6 v=105
139032 Par ch=1 c=64 v=0
139042 On ch=1 n=a5 v=70
139042 On ch=1 n=c#4 v=79
139046 On ch=1 n=c#3 v=72
139048 On ch=1 n=g5 v=84
139050 On ch=1 n=e6 v=52
139204 Off ch=1 n=g5 v=64
139218 Off ch=1 n=e6 v=64
139232 Par ch=1 c=64 v=127
139252 Off ch=1 n=a6 v=64
139298 Off ch=1 n=a5 v=64
139356 Off ch=1 n=c#3 v=64
139362 Off ch=1 n=c#4 v=64
139416 Par ch=1 c=64 v=0
139432 On ch=1 n=f6 v=100
139434 On ch=1 n=f5 v=94
139437 On ch=1 n=d4 v=94
139442 On ch=1 n=d3 v=83
139594 Off ch=1 n=d3 v=64
139600 Off ch=1 n=f6 v=64
139600 Par ch=1 c=64 v=127
139636 Off ch=1 n=d4 v=64
139654 Off ch=1 n=f5 v=64
139810 On ch=1 n=d6 v=102
139816 On ch=1 n=d5 v=91
139816 Par ch=1 c=64 v=0
139819 On ch=1 n=f4 v=100
139822 On ch=1 n=f3 v=84
139822 On ch=1 n=a5 v=76
139976 Off ch=1 n=a5 v=64
139984 Par ch=1 c=64 v=127
139986 Off ch=1 n=d6 v=64
140002 Off ch=1 n=f3 v=64
140046 Off ch=1 n=f4 v=64
140072 Off ch=1 n=d5 v=64
140154 Par ch=1 c=64 v=0
140188 On ch=1 n=a5 v=92
140194 On ch=1 n=f5 v=83
140196 On ch=1 n=d5 v=81
140198 On ch=1 n=g4 v=97
140202 On ch=1 n=g3 v=87
140256 Off ch=1 n=d5 v=64
140266 Off ch=1 n=f5 v=64
140302 Off ch=1 n=g4 v=64
140314 Off ch=1 n=g3 v=64
140324 Par ch=1 c=64 v=127
140362 Off ch=1 n=a5 v=64
140445 Par ch=1 c=64 v=0
140562 On ch=1 n=b5 v=97
140564 On ch=1 n=f5 v=82
140568 On ch=1 n=d5 v=80
140570 On ch=1 n=g2 v=97
140570 On ch=1 n=g3 v=88
140614 Off ch=1 n=g2 v=64
140662 Par ch=1 c=64 v=127
140688 Off ch=1 n=g3 v=64
140700 Off ch=1 n=d5 v=64
140726 Off ch=1 n=f5 v=64
140732 Off ch=1 n=b5 v=64
140784 Par ch=1 c=64 v=0
140930 On ch=1 n=c6 v=100
140935 On ch=1 n=c5 v=95
140940 On ch=1 n=e5 v=86
140950 On ch=1 n=c4 v=91
140954 On ch=1 n=c3 v=91
141002 Off ch=1 n=c3 v=64
141005 Off ch=1 n=c5 v=64
141014 Par ch=1 c=64 v=127
141030 Off ch=1 n=e5 v=64
141072 Off ch=1 n=c4 v=64
141080 Off ch=1 n=c6 v=64
141122 Par ch=1 c=64 v=0
141334 On ch=1 n=g6 v=114
141337 On ch=1 n=g5 v=100
141350 On ch=1 n=g4 v=98
141356 On ch=1 n=g3 v=88
141384 Par ch=1 c=64 v=127
141400 Off ch=1 n=g6 v=64
141405 Off ch=1 n=g4 v=64
141405 Off ch=1 n=g3 v=64
141458 Off ch=1 n=g5 v=64
141712 On ch=1 n=a5 v=86
141717 On ch=1 n=d5 v=89
141721 On ch=1 n=f5 v=83
141758 Off ch=1 n=d5 v=64
141768 Off ch=1 n=f5 v=64
141812 Off ch=1 n=a5 v=64
141952 Par ch=1 c=64 v=0
142086 On ch=1 n=b5 v=102
142088 On ch=1 n=d5 v=98
142092 On ch=1 n=g3 v=98
142092 On ch=1 n=g2 v=98
142092 On ch=1 n=f5 v=89
142150 Off ch=1 n=g2 v=64
142174 Off ch=1 n=d5 v=64
142182 Par ch=1 c=64 v=127
142192 Off ch=1 n=g3 v=64
142194 Off ch=1 n=b5 v=64
142226 Off ch=1 n=f5 v=64
142306 Par ch=1 c=64 v=0
142464 On ch=1 n=e5 v=103
142464 On ch=1 n=c6 v=97
142472 On ch=1 n=g5 v=89
142474 On ch=1 n=c4 v=96
142478 On ch=1 n=c3 v=100
142536 Par ch=1 c=64 v=127
142540 Off ch=1 n=e5 v=64
142576 Off ch=1 n=c3 v=64
142598 Off ch=1 n=g5 v=64
142598 Off ch=1 n=c4 v=64
142612 Off ch=1 n=c6 v=64
142644 Par ch=1 c=64 v=0
142908 On ch=1 n=g6 v=116
142912 On ch=1 n=g5 v=109
142912 On ch=1 n=g4 v=104
142916 On ch=1 n=g3 v=94
142966 Par ch=1 c=64 v=127
142994 Off ch=1 n=g4 v=64
143000 Off ch=1 n=g5 v=64
143014 Off ch=1 n=g6 v=64
143014 Off ch=1 n=g3 v=64
143324 On ch=1 n=a5 v=88
143329 On ch=1 n=d5 v=89
143334 On ch=1 n=f5 v=82
143382 Off ch=1 n=f5 v=64
143386 Off ch=1 n=d5 v=64
143466 Off ch=1 n=a5 v=64
143642 Par ch=1 c=64 v=0
143764 On ch=1 n=b5 v=101
143768 On ch=1 n=d5 v=97
143770 On ch=1 n=f5 v=87
143772 On ch=1 n=g2 v=100
143772 On ch=1 n=g3 v=93
143830 Off ch=1 n=g2 v=64
143888 Off ch=1 n=g3 v=64
143888 Par ch=1 c=64 v=127
143896 Off ch=1 n=d5 v=64
143922 Off ch=1 n=b5 v=64
143950 Off ch=1 n=f5 v=64
144072 Par ch=1 c=64 v=0
144216 On ch=1 n=c6 v=94
144222 On ch=1 n=e5 v=98
144222 On ch=1 n=g5 v=95
144228 On ch=1 n=c4 v=88
144230 On ch=1 n=c3 v=92
144320 Off ch=1 n=e5 v=64
144324 Off ch=1 n=c3 v=64
144332 Off ch=1 n=c4 v=64
144334 Par ch=1 c=64 v=127
144352 Off ch=1 n=c6 v=64
144378 Off ch=1 n=g5 v=64
144548 Par ch=1 c=64 v=0
144722 On ch=1 n=c5 v=104
144722 On ch=1 n=c6 v=101
144728 On ch=1 n=g5 v=93
144728 On ch=1 n=e5 v=95
144728 On ch=1 n=c4 v=91
144734 On ch=1 n=c3 v=91
144824 Par ch=1 c=64 v=127
144846 Off ch=1 n=c6 v=64
144849 Off ch=1 n=c5 v=64
144906 Off ch=1 n=g5 v=64
144906 Off ch=1 n=e5 v=64
145240 Par ch=1 c=64 v=0
145264 On ch=1 n=f5 v=99
145266 On ch=1 n=a4 v=87
145268 On ch=1 n=f4 v=115
145270 On ch=1 n=c5 v=92
145376 Off ch=1 n=f4 v=64
145394 Par ch=1 c=64 v=127
145410 Off ch=1 n=a4 v=64
145438 Off ch=1 n=c5 v=64
145442 Off ch=1 n=c4 v=64
145464 Off ch=1 n=f5 v=64
145502 Off ch=1 n=c3 v=64
145770 On ch=1 n=f5 v=100
145770 On ch=1 n=f6 v=102
145773 On ch=1 n=a5 v=83
145776 On ch=1 n=c6 v=91
145794 On ch=1 n=f3 v=98
145844 Off ch=1 n=f6 v=64
145878 Off ch=1 n=c6 v=64
145892 Off ch=1 n=a5 v=64
145902 Off ch=1 n=f5 v=64
146208 Par ch=1 c=64 v=0
146216 On ch=1 n=c#5 v=92
146216 On ch=1 n=g5 v=102
146216 On ch=1 n=a#4 v=86
146216 On ch=1 n=g4 v=102
146226 On ch=1 n=f2 v=107
146304 Off ch=1 n=f2 v=64
146326 Off ch=1 n=g4 v=64
146346 Par ch=1 c=64 v=127
146360 Off ch=1 n=a#4 v=64
146368 Off ch=1 n=f3 v=64
146374 Off ch=1 n=c#5 v=64
146402 Off ch=1 n=g5 v=64
146640 On ch=1 n=g6 v=110
146642 On ch=1 n=c#6 v=88
146646 On ch=1 n=g5 v=89
146646 On ch=1 n=f4 v=118
146646 On ch=1 n=a#5 v=81
146649 On ch=1 n=f3 v=98
146652 On ch=1 n=f5 v=89
146754 Off ch=1 n=g6 v=64
146757 Off ch=1 n=f5 v=64
146796 Off ch=1 n=a#5 v=64
146808 Off ch=1 n=c#6 v=64
146864 Off ch=1 n=g5 v=64
147018 Off ch=1 n=f4 v=64
147078 Off ch=1 n=f3 v=64
147130 Par ch=1 c=64 v=0
147150 On ch=1 n=c6 v=101
147152 On ch=1 n=a#5 v=84
147152 On ch=1 n=c5 v=106
147154 On ch=1 n=g5 v=93
147162 On ch=1 n=e4 v=106
147166 On ch=1 n=e3 v=110
147316 Off ch=1 n=e3 v=64
147362 Off ch=1 n=e4 v=64
147368 Off ch=1 n=c5 v=64
147398 Off ch=1 n=g5 v=64
147398 Par ch=1 c=64 v=127
147440 Off ch=1 n=a#5 v=64
147442 Off ch=1 n=c6 v=64
147612 On ch=1 n=e4 v=87
147728 Off ch=1 n=e4 v=64
147760 On ch=1 n=c7 v=108
147763 On ch=1 n=c6 v=100
147768 On ch=1 n=g6 v=100
147782 On ch=1 n=g5 v=93
147792 On ch=1 n=c5 v=71
147808 On ch=1 n=a#4 v=40
147852 Off ch=1 n=c5 v=64
147872 Off ch=1 n=a#4 v=64
147892 Off ch=1 n=g5 v=64
148488 Off ch=1 n=c6 v=64
148506 Off ch=1 n=c7 v=64
148692 On ch=1 n=a#6 v=92
148696 On ch=1 n=a#5 v=84
148708 On ch=1 n=a#4 v=68
148754 Off ch=1 n=g6 v=64
148866 Off ch=1 n=a#5 v=64
148894 Off ch=1 n=a#6 v=64
148940 Off ch=1 n=a#4 v=64
148964 On ch=1 n=a6 v=93
148966 On ch=1 n=a4 v=79
148968 On ch=1 n=a5 v=69
149064 Off ch=1 n=a6 v=64
149070 Off ch=1 n=a5 v=64
149172 On ch=1 n=g4 v=79
149172 On ch=1 n=g6 v=102
149175 Off ch=1 n=a4 v=64
149179 On ch=1 n=g5 v=88
149252 Off ch=1 n=g5 v=64
149268 Off ch=1 n=g6 v=64
149312 Off ch=1 n=g4 v=64
149372 Par ch=1 c=64 v=0
149380 On ch=1 n=f4 v=91
149388 On ch=1 n=a#6 v=95
149388 On ch=1 n=f5 v=80
149396 On ch=1 n=a#5 v=83
149399 On ch=1 n=a#4 v=62
149399 On ch=1 n=f6 v=81
149558 Par ch=1 c=64 v=127
149561 Off ch=1 n=a#5 v=64
149580 Off ch=1 n=a#6 v=64
149632 On ch=1 n=a6 v=98
149634 On ch=1 n=a5 v=84
149636 Off ch=1 n=f5 v=64
149648 On ch=1 n=a4 v=75
149670 Off ch=1 n=f6 v=64
149698 Off ch=1 n=a#4 v=64
149710 Off ch=1 n=a6 v=64
149716 Off ch=1 n=f4 v=64
149726 Off ch=1 n=a5 v=64
149826 Off ch=1 n=a4 v=64
149826 On ch=1 n=g6 v=101
149828 On ch=1 n=g4 v=85
149834 On ch=1 n=g5 v=88
149896 Off ch=1 n=g5 v=64
149936 Off ch=1 n=g6 v=64
149954 Off ch=1 n=g4 v=64
150014 On ch=1 n=f6 v=98
150017 On ch=1 n=f4 v=83
150020 On ch=1 n=f5 v=76
150056 Off ch=1 n=f5 v=64
150074 Off ch=1 n=f4 v=64
150094 Off ch=1 n=f6 v=64
150318 On ch=1 n=d7 v=111
150324 On ch=1 n=d6 v=103
150324 On ch=1 n=f#6 v=89
150324 On ch=1 n=d5 v=91
150327 On ch=1 n=a#4 v=69
150330 On ch=1 n=a#6 v=77
150334 On ch=1 n=d4 v=79
150338 On ch=1 n=f#4 v=70
150434 Par ch=1 c=64 v=0
150680 Par ch=1 c=64 v=127
150710 Off ch=1 n=d7 v=64
150712 Off ch=1 n=d5 v=64
150744 Off ch=1 n=a#4 v=64
150747 Off ch=1 n=d6 v=64
150774 Off ch=1 n=a#6 v=64
150818 Par ch=1 c=64 v=0
150832 On ch=1 n=c7 v=106
150836 On ch=1 n=c6 v=95
150838 On ch=1 n=c5 v=83
150840 On ch=1 n=a6 v=83
150844 On ch=1 n=a4 v=72
150902 Off ch=1 n=f#6 v=64
150944 Off ch=1 n=f#4 v=64
150962 Off ch=1 n=d4 v=64
150964 Off ch=1 n=a4 v=64
150986 Par ch=1 c=64 v=127
151004 Off ch=1 n=a6 v=64
151018 Off ch=1 n=c5 v=64
151080 Off ch=1 n=c7 v=64
151090 Off ch=1 n=c6 v=64
151206 On ch=1 n=g4 v=74
151262 Par ch=1 c=64 v=0
151267 On ch=1 n=c7 v=105
151271 On ch=1 n=d6 v=89
151275 On ch=1 n=c6 v=79
151286 On ch=1 n=a6 v=69
151292 On ch=1 n=a5 v=88
151296 On ch=1 n=d5 v=65
151299 On ch=1 n=c5 v=58
151432 Par ch=1 c=64 v=127
151435 Off ch=1 n=a6 v=64
151462 Off ch=1 n=c7 v=64
151522 Off ch=1 n=d6 v=64
151536 Off ch=1 n=c6 v=64
151578 Off ch=1 n=c5 v=64
151586 Off ch=1 n=a5 v=64
151722 On ch=1 n=a#6 v=89
151725 On ch=1 n=a#5 v=88
151730 On ch=1 n=g6 v=91
151734 On ch=1 n=g5 v=85
151736 Off ch=1 n=d5 v=64
151739 On ch=1 n=a#4 v=59
151842 Off ch=1 n=g5 v=64
151882 Off ch=1 n=a#4 v=64
151886 Off ch=1 n=g4 v=64
151936 Off ch=1 n=a#5 v=64
151954 Off ch=1 n=g6 v=64
151962 Off ch=1 n=a#6 v=64
152078 Par ch=1 c=64 v=0
152128 On ch=1 n=a5 v=84
152128 On ch=1 n=d5 v=81
152128 On ch=1 n=a6 v=98
152128 On ch=1 n=f#6 v=77
152131 On ch=1 n=f#4 v=76
152152 On ch=1 n=d4 v=56
152208 Off ch=1 n=a6 v=64
152230 Off ch=1 n=d5 v=64
152246 Par ch=1 c=64 v=127
152248 Off ch=1 n=f#6 v=64
152260 Off ch=1 n=f#4 v=64
152286 Off ch=1 n=d4 v=64
152302 Off ch=1 n=a5 v=64
152532 On ch=1 n=d6 v=100
152536 On ch=1 n=d5 v=89
152538 On ch=1 n=d4 v=96
152614 Off ch=1 n=d6 v=64
152644 Off ch=1 n=d5 v=64
152932 Off ch=1 n=d4 v=64
152942 On ch=1 n=g5 v=98
152942 On ch=1 n=g4 v=96
152945 On ch=1 n=g3 v=92
152988 Off ch=1 n=g4 v=64
153052 Off ch=1 n=g5 v=64
153322 Par ch=1 c=64 v=0
153332 On ch=1 n=g6 v=105
153337 On ch=1 n=g5 v=103
153340 On ch=1 n=a#3 v=77
153342 On ch=1 n=g4 v=92
153410 Off ch=1 n=g3 v=64
153438 Off ch=1 n=g6 v=64
153476 Par ch=1 c=64 v=127
153536 Off ch=1 n=g5 v=64
153546 Off ch=1 n=g4 v=64
153696 Off ch=1 n=a#3 v=64
153736 On ch=1 n=d#5 v=103
153742 On ch=1 n=c4 v=85
153744 On ch=1 n=g4 v=89
153752 Par ch=1 c=64 v=0
153832 Off ch=1 n=c4 v=64
153868 Off ch=1 n=d#5 v=64
153890 Off ch=1 n=g4 v=64
153890 Par ch=1 c=64 v=127
154106 Par ch=1 c=64 v=0
154109 On ch=1 n=c#4 v=74
154148 On ch=1 n=g4 v=64
154160 On ch=1 n=a6 v=103
154164 On ch=1 n=a4 v=64
154164 On ch=1 n=a5 v=87
154170 On ch=1 n=e6 v=82
154192 On ch=1 n=e5 v=95
154208 Off ch=1 n=c#4 v=64
154252 Off ch=1 n=g4 v=64
154274 Par ch=1 c=64 v=127
154300 Off ch=1 n=a6 v=64
154312 Off ch=1 n=e6 v=64
154348 Off ch=1 n=e5 v=64
154354 Off ch=1 n=a5 v=64
154370 Off ch=1 n=a4 v=64
154582 Par ch=1 c=64 v=0
154596 On ch=1 n=d6 v=103
154604 On ch=1 n=d5 v=92
154604 On ch=1 n=f#4 v=80
154604 On ch=1 n=d4 v=85
154607 On ch=1 n=a4 v=80
154607 On ch=1 n=a5 v=75
154712 Off ch=1 n=d4 v=64
154726 Off ch=1 n=d5 v=64
154738 Off ch=1 n=f#4 v=64
154738 Off ch=1 n=a4 v=64
154782 Par ch=1 c=64 v=127
154784 Off ch=1 n=a5 v=64
154796 Off ch=1 n=d6 v=64
154952 On ch=1 n=f#4 v=79
155062 Off ch=1 n=f#4 v=64
155129 On ch=1 n=d7 v=110
155134 On ch=1 n=d6 v=102
155138 On ch=1 n=a6 v=92
155144 On ch=1 n=a5 v=87
155168 On ch=1 n=d5 v=61
155180 On ch=1 n=c5 v=29
155216 Off ch=1 n=d5 v=64
155248 Off ch=1 n=a5 v=64
155248 Off ch=1 n=c5 v=64
155702 Off ch=1 n=d7 v=64
155782 Off ch=1 n=d6 v=64
155892 Off ch=1 n=a6 v=64
155998 On ch=1 n=c7 v=103
156001 On ch=1 n=c6 v=83
156010 On ch=1 n=c5 v=75
156070 Off ch=1 n=c6 v=64
156092 Off ch=1 n=c7 v=64
156170 Off ch=1 n=c5 v=64
156238 On ch=1 n=a#5 v=87
156241 On ch=1 n=a#6 v=90
156252 On ch=1 n=a#4 v=49
156338 Off ch=1 n=a#6 v=64
156344 Off ch=1 n=a#5 v=64
156418 Off ch=1 n=a#4 v=64
156444 On ch=1 n=a6 v=99
156444 On ch=1 n=a4 v=44
156447 On ch=1 n=a5 v=80
156492 Off ch=1 n=a5 v=64
156544 Off ch=1 n=a6 v=64
156582 Off ch=1 n=a4 v=64
156614 On ch=1 n=g4 v=46
156626 Par ch=1 c=64 v=0
156640 On ch=1 n=c5 v=68
156658 On ch=1 n=g5 v=83
156666 On ch=1 n=c7 v=104
156666 On ch=1 n=g6 v=85
156672 On ch=1 n=c6 v=69
156746 Off ch=1 n=c6 v=64
156776 Off ch=1 n=c7 v=64
156794 Par ch=1 c=64 v=127
156808 Off ch=1 n=g5 v=64
156838 Off ch=1 n=g6 v=64
156884 Off ch=1 n=c5 v=64
156894 On ch=1 n=a#6 v=88
156896 On ch=1 n=a#5 v=86
156912 On ch=1 n=a#4 v=61
156938 Off ch=1 n=g4 v=64
157008 Off ch=1 n=a#6 v=64
157011 Off ch=1 n=a#5 v=64
157088 On ch=1 n=a4 v=58
157096 On ch=1 n=a6 v=97
157102 On ch=1 n=a5 v=76
157108 Off ch=1 n=a#4 v=64
157140 Off ch=1 n=a6 v=64
157152 Off ch=1 n=a5 v=64
157224 Off ch=1 n=a4 v=64
157280 On ch=1 n=g4 v=69
157286 On ch=1 n=g6 v=100
157286 On ch=1 n=g5 v=86
157322 Off ch=1 n=g4 v=64
157325 Off ch=1 n=g5 v=64
157334 Off ch=1 n=g6 v=64
157546 Par ch=1 c=64 v=0
157552 On ch=1 n=a6 v=83
157552 On ch=1 n=c5 v=80
157554 On ch=1 n=a4 v=55
157554 On ch=1 n=c7 v=105
157554 On ch=1 n=c6 v=81
157560 On ch=1 n=e6 v=63
157564 On ch=1 n=c4 v=61
157778 Off ch=1 n=a4 v=64
157794 Par ch=1 c=64 v=127
157812 Off ch=1 n=c7 v=64
157812 Off ch=1 n=c6 v=64
157906 Off ch=1 n=e6 v=64
157926 Off ch=1 n=c5 v=64
158040 On ch=1 n=a#5 v=71
158040 On ch=1 n=a#6 v=84
158046 Off ch=1 n=a6 v=64
158050 On ch=1 n=g6 v=79
158056 On ch=1 n=a#4 v=55
158076 On ch=1 n=g4 v=51
158116 Par ch=1 c=64 v=0
158240 Off ch=1 n=g6 v=64
158246 Off ch=1 n=g4 v=64
158262 Off ch=1 n=a#4 v=64
158284 Par ch=1 c=64 v=127
158294 Off ch=1 n=a#6 v=64
158346 Off ch=1 n=a#5 v=64
158482 On ch=1 n=a#5 v=77
158482 On ch=1 n=a#6 v=82
158490 On ch=1 n=a#4 v=48
158494 On ch=1 n=g6 v=80
158500 Par ch=1 c=64 v=0
158514 On ch=1 n=g4 v=58
158746 Par ch=1 c=64 v=127
158788 Off ch=1 n=a#6 v=64
158816 Off ch=1 n=g4 v=64
158819 Off ch=1 n=a#5 v=64
158826 Off ch=1 n=g6 v=64
158844 Off ch=1 n=a#4 v=64
158916 Par ch=1 c=64 v=0
158960 On ch=1 n=a6 v=82
158962 On ch=1 n=a5 v=67
158970 On ch=1 n=a4 v=47
158994 On ch=1 n=f4 v=50
158996 On ch=1 n=f6 v=49
159148 Off ch=1 n=f4 v=64
159160 Par ch=1 c=64 v=127
159192 Off ch=1 n=a6 v=64
159204 Off ch=1 n=c4 v=64
159204 Off ch=1 n=a4 v=64
159215 Off ch=1 n=f6 v=64
159286 Off ch=1 n=a5 v=64
159622 Par ch=1 c=64 v=0
159650 On ch=1 n=f6 v=51
159676 On ch=1 n=f4 v=48
159684 On ch=1 n=c6 v=29
159688 On ch=1 n=f5 v=22
159692 On ch=1 n=a3 v=22
159948 Off ch=1 n=f4 v=64
159960 Par ch=1 c=64 v=127
160122 Off ch=1 n=a3 v=64
160128 Off ch=1 n=f5 v=64
160156 Off ch=1 n=c6 v=64
160162 Off ch=1 n=f6 v=64
160774 Par ch=1 c=64 v=0
161529 On ch=1 n=c5 v=2
161530 On ch=1 n=d#5 v=23
161534 On ch=1 n=f4 v=36
161536 On ch=1 n=a3 v=19
161988 Par ch=1 c=64 v=127
162027 Off ch=1 n=c5 v=64
162136 Off ch=1 n=f4 v=64
162242 Off ch=1 n=a3 v=64
162314 Off ch=1 n=d#5 v=64
163060 On ch=1 n=c5 v=14
163064 On ch=1 n=d#5 v=31
163072 On ch=1 n=a3 v=13
163075 On ch=1 n=f4 v=21
163156 Off ch=1 n=c5 v=64
163171 Off ch=1 n=f4 v=64
163192 Off ch=1 n=a3 v=64
163258 Off ch=1 n=d#5 v=64
163534 On ch=1 n=d#5 v=41
163540 On ch=1 n=a3 v=20
163543 On ch=1 n=f4 v=31
163544 On ch=1 n=c5 v=14
163640 Off ch=1 n=c5 v=64
163652 Off ch=1 n=f4 v=64
163696 Off ch=1 n=a3 v=64
163824 Off ch=1 n=d#5 v=64
164380 On ch=1 n=d#5 v=49
164380 On ch=1 n=a3 v=22
164384 On ch=1 n=f4 v=46
164386 On ch=1 n=c5 v=16
164462 Off ch=1 n=f4 v=64
164484 Off ch=1 n=c5 v=64
164546 Off ch=1 n=a3 v=64
164576 Off ch=1 n=d#5 v=64
165370 On ch=1 n=d#5 v=31
165373 On ch=1 n=g#3 v=26
165376 On ch=1 n=f#4 v=27
165378 On ch=1 n=c5 v=21
165414 Par ch=1 c=64 v=0
165814 Par ch=1 c=64 v=127
166024 Off ch=1 n=f#4 v=64
166058 Off ch=1 n=c5 v=64
166062 Off ch=1 n=g#3 v=64
166082 Off ch=1 n=d#5 v=64
166680 On ch=1 n=d#5 v=29
166688 On ch=1 n=c5 v=15
166689 On ch=1 n=f#4 v=17
166696 On ch=1 n=g#3 v=17
166842 Off ch=1 n=c5 v=64
166855 Off ch=1 n=f#4 v=64
166860 Off ch=1 n=g#3 v=64
166888 Off ch=1 n=d#5 v=64
167150 On ch=1 n=d#5 v=29
167154 On ch=1 n=f#4 v=20
167154 On ch=1 n=g#3 v=22
167154 On ch=1 n=c5 v=15
167258 Off ch=1 n=c5 v=64
167316 Off ch=1 n=f#4 v=64
167319 Off ch=1 n=d#5 v=64
167319 Off ch=1 n=g#3 v=64
168048 On ch=1 n=d#5 v=21
168056 On ch=1 n=g#3 v=16
168059 On ch=1 n=f#4 v=16
168066 On ch=1 n=c5 v=9
168262 Off ch=1 n=f#4 v=64
168300 Off ch=1 n=g#3 v=64
168306 Off ch=1 n=c5 v=64
168340 Off ch=1 n=d#5 v=64
169062 On ch=1 n=g#5 v=36
169068 On ch=1 n=g#3 v=23
169078 On ch=1 n=f4 v=45
169080 On ch=1 n=d#5 v=21
169164 Par ch=1 c=64 v=0
169440 Par ch=1 c=64 v=127
169592 Off ch=1 n=f4 v=64
169628 Off ch=1 n=g#3 v=64
169668 Off ch=1 n=d#5 v=64
169702 Off ch=1 n=g#5 v=64
170308 On ch=1 n=g#5 v=28
170312 On ch=1 n=d#5 v=25
170318 On ch=1 n=f4 v=28
170324 On ch=1 n=g#3 v=19
170410 Off ch=1 n=f4 v=64
170470 Off ch=1 n=g#3 v=64
170472 Off ch=1 n=g#5 v=64
170478 Off ch=1 n=d#5 v=64
170770 On ch=1 n=g#5 v=25
170782 On ch=1 n=f4 v=35
170786 On ch=1 n=d#5 v=12
170786 On ch=1 n=g#3 v=18
170994 Off ch=1 n=f4 v=64
171028 Off ch=1 n=d#5 v=64
171050 Off ch=1 n=g#3 v=64
171086 Off ch=1 n=g#5 v=64
171658 On ch=1 n=g#5 v=22
171680 On ch=1 n=f4 v=35
171684 On ch=1 n=g#3 v=12
171684 On ch=1 n=d#5 v=10
171788 Off ch=1 n=f4 v=64
171792 Off ch=1 n=d#5 v=64
171854 Off ch=1 n=g#5 v=64
171858 Off ch=1 n=g#3 v=64
172694 On ch=1 n=c#6 v=36
172700 On ch=1 n=a#4 v=10
172703 On ch=1 n=g5 v=22
172706 On ch=1 n=g#3 v=15
172706 On ch=1 n=e4 v=28
172898 Par ch=1 c=64 v=0
173174 Par ch=1 c=64 v=127
173180 Off ch=1 n=e4 v=64
173278 Off ch=1 n=a#4 v=64
173282 Off ch=1 n=g5 v=64
173286 Off ch=1 n=g#3 v=64
173464 Off ch=1 n=c#6 v=64
173988 On ch=1 n=a#4 v=6
173990 On ch=1 n=c#6 v=24
173994 On ch=1 n=g#3 v=15
174000 On ch=1 n=e4 v=25
174006 On ch=1 n=g5 v=19
174075 Off ch=1 n=e4 v=64
174102 Off ch=1 n=g5 v=64
174132 Off ch=1 n=a#4 v=64
174144 Off ch=1 n=c#6 v=64
174154 Off ch=1 n=g#3 v=64
174452 On ch=1 n=c#6 v=32
174452 On ch=1 n=a#4 v=11
174464 On ch=1 n=g#3 v=26
174468 On ch=1 n=e4 v=20
174478 On ch=1 n=g5 v=19
174548 Off ch=1 n=e4 v=64
174576 Off ch=1 n=g5 v=64
174604 Off ch=1 n=g#3 v=64
174606 Off ch=1 n=a#4 v=64
174630 Off ch=1 n=c#6 v=64
175342 On ch=1 n=c#6 v=21
175350 On ch=1 n=g#3 v=14
175351 On ch=1 n=g5 v=9
175352 On ch=1 n=a#4 v=8
175354 On ch=1 n=e4 v=20
175424 Off ch=1 n=e4 v=64
175457 Off ch=1 n=g5 v=64
175474 Off ch=1 n=a#4 v=64
175522 Off ch=1 n=c#6 v=64
175560 Off ch=1 n=g#3 v=64
176476 On ch=1 n=f#6 v=42
176488 On ch=1 n=d#6 v=32
176492 On ch=1 n=d#5 v=25
176492 On ch=1 n=c6 v=32
176492 On ch=1 n=g#3 v=33
176496 On ch=1 n=g#2 v=20
176738 Par ch=1 c=64 v=0
177014 Par ch=1 c=64 v=127
177176 Off ch=1 n=d#6 v=64
177176 Off ch=1 n=c6 v=64
177209 Off ch=1 n=f#6 v=64
177210 Off ch=1 n=g#3 v=64
177218 Off ch=1 n=g#2 v=64
177230 Off ch=1 n=d#5 v=64
177724 On ch=1 n=d#5 v=34
177726 On ch=1 n=f#6 v=44
177728 On ch=1 n=d#6 v=22
177738 On ch=1 n=g#3 v=25
177742 On ch=1 n=c6 v=18
177750 On ch=1 n=g#2 v=13
177814 Off ch=1 n=d#6 v=64
177822 Off ch=1 n=c6 v=64
177866 Off ch=1 n=g#2 v=64
177882 Off ch=1 n=g#3 v=64
177886 Off ch=1 n=d#5 v=64
177898 Off ch=1 n=f#6 v=64
178155 On ch=1 n=c6 v=21
178156 On ch=1 n=f#6 v=41
178168 On ch=1 n=d#6 v=16
178168 On ch=1 n=g#3 v=25
178174 On ch=1 n=d#5 v=27
178182 On ch=1 n=g#2 v=15
178244 Off ch=1 n=c6 v=64
178252 Off ch=1 n=d#6 v=64
178296 Off ch=1 n=g#2 v=64
178304 Off ch=1 n=g#3 v=64
178310 Off ch=1 n=d#5 v=64
178364 Off ch=1 n=f#6 v=64
179200 On ch=1 n=f#6 v=33
179208 On ch=1 n=c6 v=14
179208 On ch=1 n=d#6 v=10
179218 On ch=1 n=g#3 v=20
179226 On ch=1 n=g#2 v=16
179228 On ch=1 n=d#5 v=4
179318 Off ch=1 n=d#6 v=64
179329 Off ch=1 n=c6 v=64
179336 Off ch=1 n=d#5 v=64
179368 Off ch=1 n=g#2 v=64
179376 Off ch=1 n=g#3 v=64
179444 Off ch=1 n=f#6 v=64
180360 On ch=1 n=f5 v=31
180362 On ch=1 n=a2 v=30
180363 On ch=1 n=f4 v=44
180366 On ch=1 n=d#5 v=19
180366 On ch=1 n=c3 v=40
180370 On ch=1 n=c5 v=23
180372 On ch=1 n=a3 v=19
180610 Par ch=1 c=64 v=0
180888 Par ch=1 c=64 v=127
181038 Off ch=1 n=a2 v=64
181508 On ch=1 n=a2 v=32
181676 Off ch=1 n=a2 v=64
181940 On ch=1 n=a2 v=35
181962 Par ch=1 c=64 v=0
182208 Par ch=1 c=64 v=127
182224 Off ch=1 n=a2 v=64
182962 On ch=1 n=a2 v=25
183230 Off ch=1 n=a2 v=64
183278 Off ch=1 n=c5 v=64
183306 Off ch=1 n=d#5 v=64
183312 Off ch=1 n=c3 v=64
183316 Off ch=1 n=f4 v=64
183338 Off ch=1 n=f5 v=64
183442 Off ch=1 n=a3 v=64
183896 On ch=1 n=f5 v=37
183899 On ch=1 n=b2 v=48
183899 On ch=1 n=g3 v=34
183912 On ch=1 n=f4 v=41
183912 On ch=1 n=g4 v=24
183920 On ch=1 n=d5 v=24
183944 Par ch=1 c=64 v=0
184314 Par ch=1 c=64 v=127
184504 Off ch=1 n=b2 v=64
184998 On ch=1 n=b2 v=34
185134 Off ch=1 n=b2 v=64
185344 Par ch=1 c=64 v=0
185410 On ch=1 n=b2 v=30
185650 Par ch=1 c=64 v=127
185708 Off ch=1 n=b2 v=64
186288 On ch=1 n=b2 v=24
186438 Off ch=1 n=f4 v=64
186468 Off ch=1 n=g4 v=64
186538 Off ch=1 n=b2 v=64
186544 Off ch=1 n=d5 v=64
186586 Off ch=1 n=f5 v=64
186930 Off ch=1 n=g3 v=64
187170 On ch=1 n=a#4 v=9
187172 On ch=1 n=c3 v=42
187180 On ch=1 n=g4 v=24
187183 On ch=1 n=c5 v=22
187188 On ch=1 n=e4 v=28
187310 Par ch=1 c=64 v=0
187786 Par ch=1 c=64 v=127
188016 On ch=1 n=c4 v=43
188188 Off ch=1 n=c3 v=64
188876 On ch=1 n=c3 v=17
189134 Off ch=1 n=c4 v=64
189270 On ch=1 n=a#3 v=35
189360 Off ch=1 n=c3 v=64
189458 Off ch=1 n=c5 v=64
189458 Off ch=1 n=e4 v=64
189694 On ch=1 n=c5 v=39
189696 On ch=1 n=a3 v=50
189714 Off ch=1 n=a#3 v=64
189736 On ch=1 n=e4 v=31
189739 On ch=1 n=c3 v=33
189814 Off ch=1 n=g4 v=64
189852 Off ch=1 n=e4 v=64
189940 Off ch=1 n=a#4 v=64
190038 Off ch=1 n=a3 v=64
190134 On ch=1 n=g3 v=52
190196 Off ch=1 n=c3 v=64
190406 Off ch=1 n=g3 v=64
190586 On ch=1 n=f4 v=83
190589 On ch=1 n=f3 v=44
190604 On ch=1 n=f2 v=35
190628 Par ch=1 c=64 v=0
190730 Off ch=1 n=c5 v=64
191088 Par ch=1 c=64 v=127
191188 Off ch=1 n=f4 v=64
191232 Off ch=1 n=f2 v=64
191312 Off ch=1 n=f3 v=64
191400 On ch=1 n=f5 v=71
191762 On ch=1 n=f3 v=55
191872 Off ch=1 n=f3 v=64
192168 On ch=1 n=g4 v=77
192196 On ch=1 n=c#4 v=47
192216 On ch=1 n=a#4 v=36
192220 On ch=1 n=f3 v=37
192468 Off ch=1 n=f5 v=64
192568 Off ch=1 n=f3 v=64
192746 Off ch=1 n=a#4 v=64
192766 Off ch=1 n=g4 v=64
192940 On ch=1 n=g5 v=84
192956 On ch=1 n=d4 v=58
192962 On ch=1 n=g4 v=54
192966 On ch=1 n=b4 v=49
192978 Off ch=1 n=c#4 v=64
192990 On ch=1 n=f3 v=45
193458 Off ch=1 n=b4 v=64
193480 Off ch=1 n=f3 v=64
193500 Off ch=1 n=g5 v=64
193532 Off ch=1 n=g4 v=64
193552 Off ch=1 n=d4 v=64
193820 On ch=1 n=f3 v=41
193823 On ch=1 n=c5 v=80
193830 On ch=1 n=e4 v=54
193834 On ch=1 n=a#4 v=41
193852 On ch=1 n=g4 v=49
193978 Par ch=1 c=64 v=0
194208 Par ch=1 c=64 v=127
194254 Off ch=1 n=g4 v=64
194342 Off ch=1 n=f3 v=64
194344 Off ch=1 n=a#4 v=64
194384 Off ch=1 n=c5 v=64
194820 On ch=1 n=c6 v=78
195426 On ch=1 n=f3 v=30
195680 Off ch=1 n=f3 v=64
195956 On ch=1 n=f3 v=31
196432 On ch=1 n=a#5 v=37
196434 Off ch=1 n=f3 v=64
196442 Off ch=1 n=c6 v=64
196668 Off ch=1 n=a#5 v=64
196910 On ch=1 n=a5 v=43
196916 On ch=1 n=f3 v=17
196916 On ch=1 n=c4 v=10
196948 On ch=1 n=c5 v=27
196982 On ch=1 n=e5 v=11
197178 Off ch=1 n=c5 v=64
197238 Off ch=1 n=e4 v=64
197320 Off ch=1 n=f3 v=64
197374 On ch=1 n=a#4 v=14
197390 Off ch=1 n=a5 v=64
197404 On ch=1 n=g5 v=27
197500 Off ch=1 n=e5 v=64
197574 Off ch=1 n=g5 v=64
197694 Off ch=1 n=a#4 v=64
197896 On ch=1 n=f3 v=59
197898 On ch=1 n=f5 v=28
197914 On ch=1 n=a4 v=19
197918 Off ch=1 n=c4 v=64
198388 Par ch=1 c=64 v=0
198588 Par ch=1 c=64 v=127
198724 Off ch=1 n=f3 v=64
198786 On ch=1 n=f4 v=93
199200 Off ch=1 n=f4 v=64
199236 On ch=1 n=f3 v=55
199320 Off ch=1 n=f3 v=64
199626 Off ch=1 n=a4 v=64
199722 On ch=1 n=d5 v=38
199744 On ch=1 n=g3 v=62
199750 On ch=1 n=b4 v=30
199803 On ch=1 n=f3 v=27
199888 Off ch=1 n=f3 v=64
199906 Off ch=1 n=f5 v=64
199970 Par ch=1 c=64 v=0
200086 On ch=1 n=f3 v=2
200170 Par ch=1 c=64 v=127
200306 Off ch=1 n=f3 v=64
200716 On ch=1 n=c#5 v=48
200750 On ch=1 n=g4 v=64
200774 Off ch=1 n=b4 v=64
200782 Off ch=1 n=d5 v=64
200800 On ch=1 n=f3 v=24
200888 Off ch=1 n=f3 v=64
200902 Off ch=1 n=g3 v=64
200948 On ch=1 n=f3 v=5
201122 Off ch=1 n=f3 v=64
201174 Off ch=1 n=c#5 v=64
201282 Off ch=1 n=g4 v=64
201656 On ch=1 n=c5 v=48
201658 On ch=1 n=a#4 v=18
201670 On ch=1 n=c4 v=50
201682 On ch=1 n=g4 v=34
201682 On ch=1 n=f3 v=45
201768 Par ch=1 c=64 v=0
202126 Off ch=1 n=c5 v=64
202166 Par ch=1 c=64 v=127
202318 Off ch=1 n=f3 v=64
202810 On ch=1 n=c5 v=61
203406 On ch=1 n=f3 v=31
203568 Off ch=1 n=f3 v=64
203830 Off ch=1 n=a#4 v=64
203838 Off ch=1 n=g4 v=64
203952 On ch=1 n=f3 v=38
204372 Off ch=1 n=f3 v=64
204396 On ch=1 n=a#4 v=35
204876 On ch=1 n=a4 v=51
204954 On ch=1 n=f3 v=18
205170 Off ch=1 n=a#4 v=64
205342 Off ch=1 n=f3 v=64
205360 Off ch=1 n=c5 v=64
205378 On ch=1 n=g4 v=66
205454 Off ch=1 n=a4 v=64
205560 Off ch=1 n=c4 v=64
205638 Off ch=1 n=g4 v=64
206122 On ch=1 n=c5 v=37
206130 On ch=1 n=f4 v=51
206133 On ch=1 n=g4 v=41
206134 On ch=1 n=a#4 v=14
206134 On ch=1 n=c4 v=4
206152 On ch=1 n=c3 v=28
206346 Par ch=1 c=64 v=0
206454 Par ch=1 c=64 v=127
206652 On ch=1 n=f3 v=5
206690 Off ch=1 n=c4 v=64
206870 Off ch=1 n=f3 v=64
207258 Off ch=1 n=f4 v=64
207376 On ch=1 n=e4 v=45
207380 On ch=1 n=c4 v=23
207806 On ch=1 n=f3 v=45
207914 Par ch=1 c=64 v=0
208022 Par ch=1 c=64 v=127
208096 Off ch=1 n=f3 v=64
208124 Off ch=1 n=c3 v=64
208368 On ch=1 n=f3 v=42
208528 Par ch=1 c=64 v=0
208650 Par ch=1 c=64 v=127
208882 Off ch=1 n=c4 v=64
208882 Par ch=1 c=64 v=0
208884 On ch=1 n=a#3 v=36
209078 Off ch=1 n=f3 v=64
209112 Par ch=1 c=64 v=127
209496 Par ch=1 c=64 v=0
209522 On ch=1 n=a3 v=28
209538 Off ch=1 n=a#3 v=64
209584 On ch=1 n=f3 v=23
209864 Par ch=1 c=64 v=127
210122 Off ch=1 n=f3 v=64
210127 Off ch=1 n=a3 v=64
210127 Par ch=1 c=64 v=0
210138 On ch=1 n=g3 v=27
210434 Par ch=1 c=64 v=127
210526 Off ch=1 n=g3 v=64
210962 On ch=1 n=f3 v=33
211022 Off ch=1 n=c5 v=64
211050 Off ch=1 n=e4 v=64
211061 Off ch=1 n=g4 v=64
211094 Off ch=1 n=a#4 v=64
211216 Par ch=1 c=64 v=0
211816 Par ch=1 c=64 v=127
212342 Off ch=1 n=f3 v=64
213062 On ch=1 n=a4 v=20
213067 On ch=1 n=f5 v=12
213076 On ch=1 n=f4 v=31
213088 On ch=1 n=c3 v=18
214648 On ch=1 n=c5 v=28
214836 Off ch=1 n=c3 v=64
216002 On ch=1 n=a#2 v=20
216288 Par ch=1 c=64 v=0
216396 Off ch=1 n=a4 v=64
216456 Par ch=1 c=64 v=127
216688 On ch=1 n=d3 v=22
216758 Off ch=1 n=a#2 v=64
217026 Par ch=1 c=64 v=0
217148 Par ch=1 c=64 v=127
217336 Off ch=1 n=d3 v=64
217386 On ch=1 n=c3 v=20
217624 Par ch=1 c=64 v=0
217900 Par ch=1 c=64 v=127
218124 Off ch=1 n=c3 v=64
218552 On ch=1 n=a2 v=23
218976 Par ch=1 c=64 v=0
219268 Par ch=1 c=64 v=127
219440 Off ch=1 n=a2 v=64
219468 Off ch=1 n=f4 v=64
219658 Off ch=1 n=f5 v=64
219686 Off ch=1 n=c5 v=64
221108 On ch=1 n=f2 v=7
221110 On ch=1 n=a4 v=14
221114 On ch=1 n=f4 v=32
221124 On ch=1 n=c4 v=16
221127 On ch=1 n=f3 v=11
221522 Off ch=1 n=f3 v=64
221528 Off ch=1 n=f2 v=64
221530 Off ch=1 n=c4 v=64
221602 Off ch=1 n=f4 v=64
221608 Off ch=1 n=a4 v=64
223028 On ch=1 n=a4 v=17
223042 On ch=1 n=c4 v=17
223042 On ch=1 n=f4 v=24
223042 On ch=1 n=f2 v=7
223046 On ch=1 n=f3 v=15
223250 Off ch=1 n=f3 v=64
223292 Off ch=1 n=f2 v=64
223330 Off ch=1 n=c4 v=64
223350 Off ch=1 n=f4 v=64
223530 Off ch=1 n=a4 v=64
226261 On ch=1 n=f4 v=12
226264 On ch=1 n=a4 v=19
226264 On ch=1 n=c4 v=14
226268 On ch=1 n=f3 v=14
226274 On ch=1 n=f2 v=7
226562 Off ch=1 n=f3 v=64
226608 Off ch=1 n=f2 v=64
226636 Off ch=1 n=c4 v=64
226687 Off ch=1 n=f4 v=64
226930 Off ch=1 n=a4 v=64
231100 Par ch=1 c=64 v=0
232320 Par ch=1 c=64 v=0
232320 Meta TrkEnd
TrkEnd
