MFile 0 1 480
MTrk
0 Tempo 750000
0 KeySig 1 major
0 TimeSig 2/4 24 8
0 PrCh ch=1 p=0
0 Par ch=1 c=7 v=127
0 Par ch=1 c=10 v=64
0 Par ch=1 c=64 v=127
0 On ch=1 n=b5 v=60
0 On ch=1 n=b4 v=45
0 On ch=1 n=g4 v=53
155 On ch=1 n=b4 v=0
160 On ch=1 n=d5 v=45
235 On ch=1 n=g4 v=0
315 On ch=1 n=d5 v=0
320 On ch=1 n=g5 v=45
420 Par ch=1 c=64 v=0
475 On ch=1 n=g5 v=0
480 On ch=1 n=b5 v=0
480 Par ch=1 c=64 v=127
480 On ch=1 n=g6 v=60
480 On ch=1 n=a#4 v=45
480 On ch=1 n=c#4 v=53
635 On ch=1 n=a#4 v=0
640 On ch=1 n=e5 v=45
715 On ch=1 n=c#4 v=0
795 On ch=1 n=e5 v=0
800 On ch=1 n=g5 v=45
900 Par ch=1 c=64 v=0
955 On ch=1 n=g5 v=0
960 On ch=1 n=g6 v=0
960 Par ch=1 c=64 v=127
960 On ch=1 n=f#6 v=60
960 On ch=1 n=a4 v=45
960 On ch=1 n=d4 v=53
1115 On ch=1 n=a4 v=0
1120 On ch=1 n=d5 v=45
1195 On ch=1 n=d4 v=0
1275 On ch=1 n=d5 v=0
1280 On ch=1 n=f#5 v=45
1320 On ch=1 n=f#6 v=0
1320 On ch=1 n=e6 v=60
1380 Par ch=1 c=64 v=0
1435 On ch=1 n=f#5 v=0
1440 On ch=1 n=e6 v=0
1440 Par ch=1 c=64 v=127
1440 On ch=1 n=d6 v=60
1440 On ch=1 n=c5 v=45
1440 On ch=1 n=f#4 v=53
1595 On ch=1 n=c5 v=0
1600 On ch=1 n=d5 v=45
1675 On ch=1 n=f#4 v=0
1755 On ch=1 n=d5 v=0
1760 On ch=1 n=a5 v=45
1840 On ch=1 n=d6 v=0
1860 Par ch=1 c=64 v=0
1915 On ch=1 n=a5 v=0
1920 Par ch=1 c=64 v=127
1920 On ch=1 n=b5 v=60
1920 On ch=1 n=b4 v=45
1920 On ch=1 n=g4 v=53
2075 On ch=1 n=b4 v=0
2080 On ch=1 n=d5 v=45
2155 On ch=1 n=g4 v=0
2235 On ch=1 n=d5 v=0
2240 On ch=1 n=g5 v=45
2340 Par ch=1 c=64 v=0
2395 On ch=1 n=g5 v=0
2400 On ch=1 n=b5 v=0
2400 Par ch=1 c=64 v=127
2400 On ch=1 n=g6 v=60
2400 On ch=1 n=a#4 v=45
2400 On ch=1 n=c#4 v=53
2555 On ch=1 n=a#4 v=0
2560 On ch=1 n=e5 v=45
2635 On ch=1 n=c#4 v=0
2715 On ch=1 n=e5 v=0
2720 On ch=1 n=g5 v=45
2820 Par ch=1 c=64 v=0
2875 On ch=1 n=g5 v=0
2880 On ch=1 n=g6 v=0
2880 Par ch=1 c=64 v=127
2880 On ch=1 n=f#6 v=60
2880 On ch=1 n=a4 v=45
2880 On ch=1 n=d4 v=53
3035 On ch=1 n=a4 v=0
3040 On ch=1 n=d5 v=45
3115 On ch=1 n=d4 v=0
3195 On ch=1 n=d5 v=0
3200 On ch=1 n=f#5 v=45
3240 On ch=1 n=f#6 v=0
3240 On ch=1 n=e6 v=60
3300 Par ch=1 c=64 v=0
3355 On ch=1 n=f#5 v=0
3360 On ch=1 n=e6 v=0
3360 Par ch=1 c=64 v=127
3360 On ch=1 n=d6 v=60
3360 On ch=1 n=c5 v=45
3360 On ch=1 n=f#4 v=53
3515 On ch=1 n=c5 v=0
3520 On ch=1 n=d5 v=45
3595 On ch=1 n=f#4 v=0
3675 On ch=1 n=d5 v=0
3680 On ch=1 n=a5 v=45
3760 On ch=1 n=d6 v=0
3780 Par ch=1 c=64 v=0
3835 On ch=1 n=a5 v=0
3840 Par ch=1 c=64 v=127
3840 On ch=1 n=b5 v=60
3840 On ch=1 n=b4 v=45
3840 On ch=1 n=g4 v=53
3995 On ch=1 n=b4 v=0
4000 On ch=1 n=d5 v=45
4075 On ch=1 n=g4 v=0
4155 On ch=1 n=d5 v=0
4160 On ch=1 n=g5 v=45
4260 Par ch=1 c=64 v=0
4315 On ch=1 n=g5 v=0
4320 On ch=1 n=b5 v=0
4320 Par ch=1 c=64 v=127
4320 On ch=1 n=g6 v=60
4320 On ch=1 n=g4 v=53
4320 On ch=1 n=b3 v=60
4480 On ch=1 n=d5 v=45
4555 On ch=1 n=b3 v=0
4635 On ch=1 n=d5 v=0
4640 On ch=1 n=g5 v=45
4740 Par ch=1 c=64 v=0
4795 On ch=1 n=g5 v=0
4800 On ch=1 n=g6 v=0
4800 Par ch=1 c=64 v=127
4800 On ch=1 n=e6 v=60
4800 On ch=1 n=c4 v=60
4960 On ch=1 n=e5 v=45
5035 On ch=1 n=c4 v=0
5115 On ch=1 n=e5 v=0
5120 On ch=1 n=g5 v=45
5160 On ch=1 n=e6 v=0
5160 On ch=1 n=d6 v=60
5200 On ch=1 n=g4 v=0
5220 Par ch=1 c=64 v=0
5275 On ch=1 n=g5 v=0
5280 On ch=1 n=d6 v=0
5280 Par ch=1 c=64 v=127
5280 On ch=1 n=c6 v=60
5280 On ch=1 n=g4 v=45
5280 On ch=1 n=e4 v=53
5435 On ch=1 n=g4 v=0
5440 On ch=1 n=c5 v=45
5515 On ch=1 n=e4 v=0
5595 On ch=1 n=c5 v=0
5600 On ch=1 n=g5 v=45
5700 Par ch=1 c=64 v=0
5755 On ch=1 n=g5 v=0
5760 On ch=1 n=c6 v=0
5760 Par ch=1 c=64 v=127
5760 On ch=1 n=a5 v=60
5760 On ch=1 n=g4 v=45
5760 On ch=1 n=d4 v=53
5915 On ch=1 n=g4 v=0
5920 On ch=1 n=c5 v=45
5995 On ch=1 n=d4 v=0
6075 On ch=1 n=c5 v=0
6080 On ch=1 n=g5 v=45
6180 Par ch=1 c=64 v=0
6235 On ch=1 n=g5 v=0
6240 On ch=1 n=a5 v=0
6240 Par ch=1 c=64 v=127
6240 On ch=1 n=d6 v=60
6240 On ch=1 n=f#4 v=45
6240 On ch=1 n=d4 v=53
6395 On ch=1 n=f#4 v=0
6400 On ch=1 n=c5 v=45
6475 On ch=1 n=d4 v=0
6555 On ch=1 n=c5 v=0
6560 On ch=1 n=f#5 v=45
6660 Par ch=1 c=64 v=0
6715 On ch=1 n=f#5 v=0
6720 On ch=1 n=d6 v=0
6720 Par ch=1 c=64 v=127
6720 On ch=1 n=b5 v=60
6720 On ch=1 n=d4 v=45
6720 On ch=1 n=g3 v=53
6875 On ch=1 n=d4 v=0
6880 On ch=1 n=b4 v=45
6955 On ch=1 n=g3 v=0
7035 On ch=1 n=b4 v=0
7040 On ch=1 n=g5 v=45
7140 Par ch=1 c=64 v=0
7195 On ch=1 n=g5 v=0
7200 Par ch=1 c=64 v=127
7200 On ch=1 n=d4 v=53
7360 On ch=1 n=b4 v=45
7435 On ch=1 n=d4 v=0
7515 On ch=1 n=b4 v=0
7520 On ch=1 n=g5 v=45
7560 On ch=1 n=b5 v=0
7620 Par ch=1 c=64 v=0
7675 On ch=1 n=g5 v=0
7680 Tempo 750000
7680 Par ch=1 c=64 v=127
7680 On ch=1 n=b5 v=60
7680 On ch=1 n=b4 v=45
7680 On ch=1 n=g4 v=53
7835 On ch=1 n=b4 v=0
7840 On ch=1 n=d5 v=45
7915 On ch=1 n=g4 v=0
7995 On ch=1 n=d5 v=0
8000 On ch=1 n=g5 v=45
8100 Par ch=1 c=64 v=0
8155 On ch=1 n=g5 v=0
8160 On ch=1 n=b5 v=0
8160 Par ch=1 c=64 v=127
8160 On ch=1 n=g6 v=60
8160 On ch=1 n=a#4 v=45
8160 On ch=1 n=c#4 v=53
8315 On ch=1 n=a#4 v=0
8320 On ch=1 n=e5 v=45
8395 On ch=1 n=c#4 v=0
8475 On ch=1 n=e5 v=0
8480 On ch=1 n=g5 v=45
8580 Par ch=1 c=64 v=0
8635 On ch=1 n=g5 v=0
8640 On ch=1 n=g6 v=0
8640 Par ch=1 c=64 v=127
8640 On ch=1 n=f#6 v=60
8640 On ch=1 n=a4 v=45
8640 On ch=1 n=d4 v=53
8795 On ch=1 n=a4 v=0
8800 On ch=1 n=d5 v=45
8875 On ch=1 n=d4 v=0
8955 On ch=1 n=d5 v=0
8960 On ch=1 n=f#5 v=45
9000 On ch=1 n=f#6 v=0
9000 On ch=1 n=e6 v=60
9060 Par ch=1 c=64 v=0
9115 On ch=1 n=f#5 v=0
9120 On ch=1 n=e6 v=0
9120 Par ch=1 c=64 v=127
9120 On ch=1 n=d6 v=60
9120 On ch=1 n=c5 v=45
9120 On ch=1 n=f#4 v=53
9275 On ch=1 n=c5 v=0
9280 On ch=1 n=d5 v=45
9355 On ch=1 n=f#4 v=0
9435 On ch=1 n=d5 v=0
9440 On ch=1 n=a5 v=45
9520 On ch=1 n=d6 v=0
9540 Par ch=1 c=64 v=0
9595 On ch=1 n=a5 v=0
9600 Par ch=1 c=64 v=127
9600 On ch=1 n=b5 v=60
9600 On ch=1 n=b4 v=45
9600 On ch=1 n=g4 v=53
9755 On ch=1 n=b4 v=0
9760 On ch=1 n=d5 v=45
9835 On ch=1 n=g4 v=0
9915 On ch=1 n=d5 v=0
9920 On ch=1 n=g5 v=45
10020 Par ch=1 c=64 v=0
10075 On ch=1 n=g5 v=0
10080 On ch=1 n=b5 v=0
10080 Par ch=1 c=64 v=127
10080 On ch=1 n=g6 v=60
10080 On ch=1 n=a#4 v=45
10080 On ch=1 n=c#4 v=53
10235 On ch=1 n=a#4 v=0
10240 On ch=1 n=e5 v=45
10315 On ch=1 n=c#4 v=0
10395 On ch=1 n=e5 v=0
10400 On ch=1 n=g5 v=45
10500 Par ch=1 c=64 v=0
10555 On ch=1 n=g5 v=0
10560 On ch=1 n=g6 v=0
10560 Par ch=1 c=64 v=127
10560 On ch=1 n=f#6 v=60
10560 On ch=1 n=a4 v=45
10560 On ch=1 n=d4 v=53
10715 On ch=1 n=a4 v=0
10720 On ch=1 n=d5 v=45
10795 On ch=1 n=d4 v=0
10875 On ch=1 n=d5 v=0
10880 On ch=1 n=f#5 v=45
10920 On ch=1 n=f#6 v=0
10920 On ch=1 n=e6 v=60
10980 Par ch=1 c=64 v=0
11035 On ch=1 n=f#5 v=0
11040 On ch=1 n=e6 v=0
11040 Par ch=1 c=64 v=127
11040 On ch=1 n=d6 v=60
11040 On ch=1 n=c5 v=45
11040 On ch=1 n=f#4 v=53
11195 On ch=1 n=c5 v=0
11200 On ch=1 n=d5 v=45
11275 On ch=1 n=f#4 v=0
11355 On ch=1 n=d5 v=0
11360 On ch=1 n=a5 v=45
11440 On ch=1 n=d6 v=0
11460 Par ch=1 c=64 v=0
11515 On ch=1 n=a5 v=0
11520 Par ch=1 c=64 v=127
11520 On ch=1 n=b5 v=60
11520 On ch=1 n=b4 v=45
11520 On ch=1 n=g4 v=53
11675 On ch=1 n=b4 v=0
11680 On ch=1 n=d5 v=45
11755 On ch=1 n=g4 v=0
11835 On ch=1 n=d5 v=0
11840 On ch=1 n=g5 v=45
11940 Par ch=1 c=64 v=0
11995 On ch=1 n=g5 v=0
12000 On ch=1 n=b5 v=0
12000 Par ch=1 c=64 v=127
12000 On ch=1 n=g6 v=60
12000 On ch=1 n=g4 v=53
12000 On ch=1 n=b3 v=60
12160 On ch=1 n=d5 v=45
12235 On ch=1 n=b3 v=0
12315 On ch=1 n=d5 v=0
12320 On ch=1 n=g5 v=45
12420 Par ch=1 c=64 v=0
12475 On ch=1 n=g5 v=0
12480 On ch=1 n=g6 v=0
12480 Par ch=1 c=64 v=127
12480 On ch=1 n=e6 v=60
12480 On ch=1 n=c4 v=60
12640 On ch=1 n=e5 v=45
12715 On ch=1 n=c4 v=0
12795 On ch=1 n=e5 v=0
12800 On ch=1 n=g5 v=45
12840 On ch=1 n=e6 v=0
12840 On ch=1 n=d6 v=60
12880 On ch=1 n=g4 v=0
12900 Par ch=1 c=64 v=0
12955 On ch=1 n=g5 v=0
12960 On ch=1 n=d6 v=0
12960 Par ch=1 c=64 v=127
12960 On ch=1 n=c6 v=60
12960 On ch=1 n=g4 v=45
12960 On ch=1 n=e4 v=53
13115 On ch=1 n=g4 v=0
13120 On ch=1 n=c5 v=45
13195 On ch=1 n=e4 v=0
13275 On ch=1 n=c5 v=0
13280 On ch=1 n=g5 v=45
13380 Par ch=1 c=64 v=0
13435 On ch=1 n=g5 v=0
13440 On ch=1 n=c6 v=0
13440 Par ch=1 c=64 v=127
13440 On ch=1 n=a5 v=60
13440 On ch=1 n=g4 v=45
13440 On ch=1 n=d4 v=53
13595 On ch=1 n=g4 v=0
13600 On ch=1 n=c5 v=45
13675 On ch=1 n=d4 v=0
13755 On ch=1 n=c5 v=0
13760 On ch=1 n=g5 v=45
13860 Par ch=1 c=64 v=0
13915 On ch=1 n=g5 v=0
13920 On ch=1 n=a5 v=0
13920 Par ch=1 c=64 v=127
13920 On ch=1 n=d6 v=60
13920 On ch=1 n=f#4 v=45
13920 On ch=1 n=d4 v=53
14075 On ch=1 n=f#4 v=0
14080 On ch=1 n=c5 v=45
14155 On ch=1 n=d4 v=0
14235 On ch=1 n=c5 v=0
14240 On ch=1 n=f#5 v=45
14340 Par ch=1 c=64 v=0
14395 On ch=1 n=f#5 v=0
14400 On ch=1 n=d6 v=0
14400 Par ch=1 c=64 v=127
14400 On ch=1 n=b5 v=60
14400 On ch=1 n=d4 v=45
14400 On ch=1 n=g3 v=53
14555 On ch=1 n=d4 v=0
14560 On ch=1 n=b4 v=45
14635 On ch=1 n=g3 v=0
14715 On ch=1 n=b4 v=0
14720 On ch=1 n=g5 v=45
14820 Par ch=1 c=64 v=0
14875 On ch=1 n=g5 v=0
14880 Par ch=1 c=64 v=127
14880 On ch=1 n=d4 v=53
15040 On ch=1 n=b4 v=45
15115 On ch=1 n=d4 v=0
15195 On ch=1 n=b4 v=0
15200 On ch=1 n=g5 v=45
15240 On ch=1 n=b5 v=0
15300 Par ch=1 c=64 v=0
15355 On ch=1 n=g5 v=0
15360 Tempo 750000
15360 Par ch=1 c=64 v=127
15360 On ch=1 n=g5 v=60
15360 On ch=1 n=b5 v=60
15360 On ch=1 n=e4 v=60
15520 On ch=1 n=b4 v=45
15675 On ch=1 n=b4 v=0
15680 On ch=1 n=e5 v=45
15780 Par ch=1 c=64 v=0
15835 On ch=1 n=e5 v=0
15840 On ch=1 n=e4 v=0
15840 On ch=1 n=b5 v=0
15840 On ch=1 n=g5 v=0
15840 Par ch=1 c=64 v=127
15840 On ch=1 n=a5 v=60
15840 On ch=1 n=c6 v=60
15840 On ch=1 n=a3 v=60
16000 On ch=1 n=a4 v=45
16155 On ch=1 n=a4 v=0
16160 On ch=1 n=e5 v=45
16260 Par ch=1 c=64 v=0
16315 On ch=1 n=e5 v=0
16320 On ch=1 n=a3 v=0
16320 On ch=1 n=c6 v=0
16320 On ch=1 n=a5 v=0
16320 Par ch=1 c=64 v=127
16320 On ch=1 n=f#5 v=60
16320 On ch=1 n=a5 v=60
16320 On ch=1 n=d4 v=60
16480 On ch=1 n=a4 v=45
16635 On ch=1 n=a4 v=0
16640 On ch=1 n=d5 v=45
16680 On ch=1 n=d4 v=0
16680 On ch=1 n=c4 v=60
16740 Par ch=1 c=64 v=0
16795 On ch=1 n=d5 v=0
16800 On ch=1 n=c4 v=0
16800 On ch=1 n=a5 v=0
16800 On ch=1 n=f#5 v=0
16800 Par ch=1 c=64 v=127
16800 On ch=1 n=g5 v=60
16800 On ch=1 n=b5 v=60
16800 On ch=1 n=b3 v=60
16960 On ch=1 n=g4 v=45
17115 On ch=1 n=g4 v=0
17120 On ch=1 n=d5 v=45
17200 On ch=1 n=b3 v=0
17200 On ch=1 n=b5 v=0
17200 On ch=1 n=g5 v=0
17220 Par ch=1 c=64 v=0
17275 On ch=1 n=d5 v=0
17280 Par ch=1 c=64 v=127
17280 On ch=1 n=e5 v=60
17280 On ch=1 n=g5 v=60
17280 On ch=1 n=c4 v=60
17440 On ch=1 n=g4 v=45
17595 On ch=1 n=g4 v=0
17600 On ch=1 n=c5 v=45
17700 Par ch=1 c=64 v=0
17755 On ch=1 n=c5 v=0
17760 On ch=1 n=c4 v=0
17760 On ch=1 n=g5 v=0
17760 On ch=1 n=e5 v=0
17760 Par ch=1 c=64 v=127
17760 On ch=1 n=e5 v=60
17760 On ch=1 n=a5 v=60
17760 On ch=1 n=f#3 v=60
17920 On ch=1 n=f#4 v=45
18075 On ch=1 n=f#4 v=0
18080 On ch=1 n=c5 v=45
18180 Par ch=1 c=64 v=0
18235 On ch=1 n=c5 v=0
18240 On ch=1 n=f#3 v=0
18240 On ch=1 n=a5 v=0
18240 On ch=1 n=e5 v=0
18240 Tempo 750000
18240 Par ch=1 c=64 v=127
18240 On ch=1 n=d#5 v=60
18240 On ch=1 n=f#5 v=60
18240 On ch=1 n=b3 v=60
18355 Tempo 769230
18400 On ch=1 n=f#4 v=45
18470 Tempo 789473
18555 On ch=1 n=f#4 v=0
18560 On ch=1 n=b4 v=45
18585 Tempo 810810
18600 On ch=1 n=b3 v=0
18600 On ch=1 n=a3 v=60
18660 Par ch=1 c=64 v=0
18700 Tempo 833333
18715 On ch=1 n=b4 v=0
18720 On ch=1 n=a3 v=0
18720 On ch=1 n=f#5 v=0
18720 On ch=1 n=d#5 v=0
18720 Par ch=1 c=64 v=127
18720 On ch=1 n=d5 v=60
18720 On ch=1 n=g5 v=60
18720 On ch=1 n=g3 v=60
18815 Tempo 857142
18880 On ch=1 n=g4 v=45
18930 Tempo 882352
19035 On ch=1 n=g4 v=0
19040 On ch=1 n=b4 v=45
19045 Tempo 909090
19120 On ch=1 n=g3 v=0
19120 On ch=1 n=g5 v=0
19120 On ch=1 n=d5 v=0
19140 Par ch=1 c=64 v=0
19160 Tempo 937500
19195 On ch=1 n=b4 v=0
19200 Par ch=1 c=64 v=127
19200 On ch=1 n=e5 v=60
19200 On ch=1 n=c4 v=60
19275 Tempo 967741
19360 On ch=1 n=g4 v=45
19390 Tempo 1000000
19505 Tempo 1034482
19515 On ch=1 n=g4 v=0
19520 On ch=1 n=c5 v=45
19620 Tempo 1071428
19620 Par ch=1 c=64 v=0
19675 On ch=1 n=c5 v=0
19680 On ch=1 n=c4 v=0
19680 On ch=1 n=e5 v=0
19680 Par ch=1 c=64 v=127
19680 On ch=1 n=f#5 v=60
19680 On ch=1 n=c4 v=60
19737 Tempo 1111111
19840 On ch=1 n=d4 v=45
19852 Tempo 1153846
19967 Tempo 1200000
19995 On ch=1 n=d4 v=0
20000 On ch=1 n=a4 v=45
20082 Tempo 1250000
20100 Par ch=1 c=64 v=0
20155 On ch=1 n=a4 v=0
20160 On ch=1 n=c4 v=0
20160 On ch=1 n=f#5 v=0
20160 Par ch=1 c=64 v=127
20160 On ch=1 n=g5 v=60
20160 On ch=1 n=b3 v=60
20160 On ch=1 n=d4 v=60
20197 Tempo 1304347
20312 Tempo 1363636
20320 On ch=1 n=g4 v=45
20427 Tempo 1428571
20475 On ch=1 n=g4 v=0
20480 On ch=1 n=d5 v=45
20520 On ch=1 n=b3 v=0
20520 On ch=1 n=g5 v=0
20520 On ch=1 n=a5 v=60
20520 On ch=1 n=a3 v=60
20542 Tempo 1500000
20580 Par ch=1 c=64 v=0
20635 On ch=1 n=d5 v=0
20640 On ch=1 n=a3 v=0
20640 On ch=1 n=a5 v=0
20640 Par ch=1 c=64 v=127
20640 On ch=1 n=b5 v=60
20640 On ch=1 n=g3 v=60
20657 Tempo 1578947
20772 Tempo 1666666
20800 On ch=1 n=a4 v=45
20887 Tempo 1764705
20960 On ch=1 n=d5 v=45
21000 On ch=1 n=b5 v=0
21000 On ch=1 n=d4 v=0
21000 On ch=1 n=c6 v=60
21002 Tempo 1875000
21040 On ch=1 n=g3 v=0
21060 Par ch=1 c=64 v=0
21115 On ch=1 n=c6 v=0
21115 On ch=1 n=d5 v=0
21120 Tempo 2000000
21120 Tempo 750000
21120 Par ch=1 c=64 v=127
21120 On ch=1 n=d6 v=60
21120 On ch=1 n=b4 v=45
21120 On ch=1 n=g4 v=53
21200 On ch=1 n=a4 v=0
21275 On ch=1 n=b4 v=0
21280 On ch=1 n=d5 v=45
21355 On ch=1 n=g4 v=0
21435 On ch=1 n=d5 v=0
21440 On ch=1 n=g5 v=45
21540 Par ch=1 c=64 v=0
21595 On ch=1 n=g5 v=0
21600 On ch=1 n=d6 v=0
21600 Par ch=1 c=64 v=127
21600 On ch=1 n=g6 v=60
21600 On ch=1 n=a#4 v=45
21600 On ch=1 n=c#4 v=53
21755 On ch=1 n=a#4 v=0
21760 On ch=1 n=e5 v=45
21835 On ch=1 n=c#4 v=0
21915 On ch=1 n=e5 v=0
21920 On ch=1 n=g5 v=45
22020 Par ch=1 c=64 v=0
22075 On ch=1 n=g5 v=0
22080 On ch=1 n=g6 v=0
22080 Par ch=1 c=64 v=127
22080 On ch=1 n=f#6 v=60
22080 On ch=1 n=a4 v=45
22080 On ch=1 n=d4 v=53
22235 On ch=1 n=a4 v=0
22240 On ch=1 n=d5 v=45
22315 On ch=1 n=d4 v=0
22395 On ch=1 n=d5 v=0
22400 On ch=1 n=f#5 v=45
22440 On ch=1 n=f#6 v=0
22440 On ch=1 n=e6 v=60
22500 Par ch=1 c=64 v=0
22555 On ch=1 n=f#5 v=0
22560 On ch=1 n=e6 v=0
22560 Par ch=1 c=64 v=127
22560 On ch=1 n=d6 v=60
22560 On ch=1 n=c5 v=45
22560 On ch=1 n=f#4 v=53
22715 On ch=1 n=c5 v=0
22720 On ch=1 n=d5 v=45
22795 On ch=1 n=f#4 v=0
22875 On ch=1 n=d5 v=0
22880 On ch=1 n=a5 v=45
22960 On ch=1 n=d6 v=0
22980 Par ch=1 c=64 v=0
23035 On ch=1 n=a5 v=0
23040 Par ch=1 c=64 v=127
23040 On ch=1 n=b5 v=60
23040 On ch=1 n=b4 v=45
23040 On ch=1 n=g4 v=53
23195 On ch=1 n=b4 v=0
23200 On ch=1 n=d5 v=45
23275 On ch=1 n=g4 v=0
23355 On ch=1 n=d5 v=0
23360 On ch=1 n=g5 v=45
23460 Par ch=1 c=64 v=0
23515 On ch=1 n=g5 v=0
23520 On ch=1 n=b5 v=0
23520 Par ch=1 c=64 v=127
23520 On ch=1 n=g6 v=60
23520 On ch=1 n=a#4 v=45
23520 On ch=1 n=c#4 v=53
23675 On ch=1 n=a#4 v=0
23680 On ch=1 n=e5 v=45
23755 On ch=1 n=c#4 v=0
23835 On ch=1 n=e5 v=0
23840 On ch=1 n=g5 v=45
23940 Par ch=1 c=64 v=0
23995 On ch=1 n=g5 v=0
24000 On ch=1 n=g6 v=0
24000 Par ch=1 c=64 v=127
24000 On ch=1 n=f#6 v=60
24000 On ch=1 n=a4 v=45
24000 On ch=1 n=d4 v=53
24155 On ch=1 n=a4 v=0
24160 On ch=1 n=d5 v=45
24235 On ch=1 n=d4 v=0
24315 On ch=1 n=d5 v=0
24320 On ch=1 n=f#5 v=45
24360 On ch=1 n=f#6 v=0
24360 On ch=1 n=e6 v=60
24420 Par ch=1 c=64 v=0
24475 On ch=1 n=f#5 v=0
24480 On ch=1 n=e6 v=0
24480 Par ch=1 c=64 v=127
24480 On ch=1 n=d6 v=60
24480 On ch=1 n=c5 v=45
24480 On ch=1 n=f#4 v=53
24635 On ch=1 n=c5 v=0
24640 On ch=1 n=d5 v=45
24715 On ch=1 n=f#4 v=0
24795 On ch=1 n=d5 v=0
24800 On ch=1 n=a5 v=45
24880 On ch=1 n=d6 v=0
24900 Par ch=1 c=64 v=0
24955 On ch=1 n=a5 v=0
24960 Par ch=1 c=64 v=127
24960 On ch=1 n=b5 v=60
24960 On ch=1 n=b4 v=45
24960 On ch=1 n=g4 v=53
25115 On ch=1 n=b4 v=0
25120 On ch=1 n=d5 v=45
25195 On ch=1 n=g4 v=0
25275 On ch=1 n=d5 v=0
25280 On ch=1 n=g5 v=45
25380 Par ch=1 c=64 v=0
25435 On ch=1 n=g5 v=0
25440 On ch=1 n=b5 v=0
25440 Par ch=1 c=64 v=127
25440 On ch=1 n=g6 v=60
25440 On ch=1 n=g4 v=53
25440 On ch=1 n=b3 v=60
25600 On ch=1 n=d5 v=45
25675 On ch=1 n=b3 v=0
25755 On ch=1 n=d5 v=0
25760 On ch=1 n=g5 v=45
25860 Par ch=1 c=64 v=0
25915 On ch=1 n=g5 v=0
25920 On ch=1 n=g6 v=0
25920 Par ch=1 c=64 v=127
25920 On ch=1 n=e6 v=60
25920 On ch=1 n=c4 v=60
26080 On ch=1 n=e5 v=45
26155 On ch=1 n=c4 v=0
26235 On ch=1 n=e5 v=0
26240 On ch=1 n=g5 v=45
26280 On ch=1 n=e6 v=0
26280 On ch=1 n=d6 v=60
26320 On ch=1 n=g4 v=0
26340 Par ch=1 c=64 v=0
26395 On ch=1 n=g5 v=0
26400 On ch=1 n=d6 v=0
26400 Par ch=1 c=64 v=127
26400 On ch=1 n=c6 v=60
26400 On ch=1 n=g4 v=45
26400 On ch=1 n=e4 v=53
26555 On ch=1 n=g4 v=0
26560 On ch=1 n=c5 v=45
26635 On ch=1 n=e4 v=0
26715 On ch=1 n=c5 v=0
26720 On ch=1 n=g5 v=45
26820 Par ch=1 c=64 v=0
26875 On ch=1 n=g5 v=0
26880 On ch=1 n=c6 v=0
26880 Par ch=1 c=64 v=127
26880 On ch=1 n=a5 v=60
26880 On ch=1 n=g4 v=45
26880 On ch=1 n=d4 v=53
27035 On ch=1 n=g4 v=0
27040 On ch=1 n=c5 v=45
27115 On ch=1 n=d4 v=0
27195 On ch=1 n=c5 v=0
27200 On ch=1 n=g5 v=45
27300 Par ch=1 c=64 v=0
27355 On ch=1 n=g5 v=0
27360 On ch=1 n=a5 v=0
27360 Par ch=1 c=64 v=127
27360 On ch=1 n=d6 v=60
27360 On ch=1 n=f#4 v=45
27360 On ch=1 n=d4 v=53
27515 On ch=1 n=f#4 v=0
27520 On ch=1 n=c5 v=45
27595 On ch=1 n=d4 v=0
27675 On ch=1 n=c5 v=0
27680 On ch=1 n=f#5 v=45
27780 Par ch=1 c=64 v=0
27835 On ch=1 n=f#5 v=0
27840 On ch=1 n=d6 v=0
27840 Tempo 750000
27840 Par ch=1 c=64 v=127
27840 On ch=1 n=b5 v=60
27840 On ch=1 n=g3 v=53
27840 On ch=1 n=d4 v=53
27902 Tempo 769230
27967 Tempo 789473
28000 On ch=1 n=b4 v=45
28030 Tempo 810810
28095 Tempo 833333
28160 Tempo 857142
28160 On ch=1 n=g5 v=45
28222 Tempo 882352
28287 Tempo 909090
28315 On ch=1 n=g5 v=0
28350 Tempo 937500
28415 Tempo 967741
28475 On ch=1 n=b4 v=0
28480 Tempo 1000000
28480 On ch=1 n=b4 v=45
28542 Tempo 1034482
28607 Tempo 1071428
28635 On ch=1 n=b4 v=0
28640 On ch=1 n=g5 v=45
28670 Tempo 1111111
28680 On ch=1 n=d4 v=0
28680 On ch=1 n=g3 v=0
28680 On ch=1 n=b5 v=0
28735 Tempo 1153846
28740 Par ch=1 c=64 v=0
28795 On ch=1 n=g5 v=0
28800 Tempo 1200000
28800 Tempo 750000
28800 Par ch=1 c=64 v=127
28800 On ch=1 n=g5 v=60
28800 On ch=1 n=b5 v=60
28800 On ch=1 n=e4 v=60
28960 On ch=1 n=b4 v=45
29115 On ch=1 n=b4 v=0
29120 On ch=1 n=e5 v=45
29220 Par ch=1 c=64 v=0
29275 On ch=1 n=e5 v=0
29280 On ch=1 n=e4 v=0
29280 On ch=1 n=b5 v=0
29280 On ch=1 n=g5 v=0
29280 Par ch=1 c=64 v=127
29280 On ch=1 n=a5 v=60
29280 On ch=1 n=c6 v=60
29280 On ch=1 n=a3 v=60
29440 On ch=1 n=a4 v=45
29595 On ch=1 n=a4 v=0
29600 On ch=1 n=e5 v=45
29700 Par ch=1 c=64 v=0
29755 On ch=1 n=e5 v=0
29760 On ch=1 n=a3 v=0
29760 On ch=1 n=c6 v=0
29760 On ch=1 n=a5 v=0
29760 Par ch=1 c=64 v=127
29760 On ch=1 n=f#5 v=60
29760 On ch=1 n=a5 v=60
29760 On ch=1 n=d4 v=60
29920 On ch=1 n=a4 v=45
30075 On ch=1 n=a4 v=0
30080 On ch=1 n=d5 v=45
30120 On ch=1 n=d4 v=0
30120 On ch=1 n=c4 v=60
30180 Par ch=1 c=64 v=0
30235 On ch=1 n=d5 v=0
30240 On ch=1 n=c4 v=0
30240 On ch=1 n=a5 v=0
30240 On ch=1 n=f#5 v=0
30240 Par ch=1 c=64 v=127
30240 On ch=1 n=g5 v=60
30240 On ch=1 n=b5 v=60
30240 On ch=1 n=b3 v=60
30400 On ch=1 n=g4 v=45
30555 On ch=1 n=g4 v=0
30560 On ch=1 n=d5 v=45
30640 On ch=1 n=b3 v=0
30640 On ch=1 n=b5 v=0
30640 On ch=1 n=g5 v=0
30660 Par ch=1 c=64 v=0
30715 On ch=1 n=d5 v=0
30720 Par ch=1 c=64 v=127
30720 On ch=1 n=e5 v=60
30720 On ch=1 n=g5 v=60
30720 On ch=1 n=c4 v=60
30880 On ch=1 n=g4 v=45
31035 On ch=1 n=g4 v=0
31040 On ch=1 n=c5 v=45
31140 Par ch=1 c=64 v=0
31195 On ch=1 n=c5 v=0
31200 On ch=1 n=c4 v=0
31200 On ch=1 n=g5 v=0
31200 On ch=1 n=e5 v=0
31200 Par ch=1 c=64 v=127
31200 On ch=1 n=e5 v=60
31200 On ch=1 n=a5 v=60
31200 On ch=1 n=f#3 v=60
31360 On ch=1 n=f#4 v=45
31515 On ch=1 n=f#4 v=0
31520 On ch=1 n=c5 v=45
31620 Par ch=1 c=64 v=0
31675 On ch=1 n=c5 v=0
31680 On ch=1 n=f#3 v=0
31680 On ch=1 n=a5 v=0
31680 On ch=1 n=e5 v=0
31680 Tempo 750000
31680 Par ch=1 c=64 v=127
31680 On ch=1 n=d#5 v=60
31680 On ch=1 n=f#5 v=60
31680 On ch=1 n=b3 v=60
31795 Tempo 769230
31840 On ch=1 n=f#4 v=45
31910 Tempo 789473
31995 On ch=1 n=f#4 v=0
32000 On ch=1 n=b4 v=45
32025 Tempo 810810
32040 On ch=1 n=b3 v=0
32040 On ch=1 n=a3 v=60
32100 Par ch=1 c=64 v=0
32140 Tempo 833333
32155 On ch=1 n=b4 v=0
32160 On ch=1 n=a3 v=0
32160 On ch=1 n=f#5 v=0
32160 On ch=1 n=d#5 v=0
32160 Par ch=1 c=64 v=127
32160 On ch=1 n=d5 v=60
32160 On ch=1 n=g5 v=60
32160 On ch=1 n=g3 v=60
32255 Tempo 857142
32320 On ch=1 n=g4 v=45
32370 Tempo 882352
32475 On ch=1 n=g4 v=0
32480 On ch=1 n=b4 v=45
32485 Tempo 909090
32560 On ch=1 n=g3 v=0
32560 On ch=1 n=g5 v=0
32560 On ch=1 n=d5 v=0
32580 Par ch=1 c=64 v=0
32600 Tempo 937500
32635 On ch=1 n=b4 v=0
32640 Par ch=1 c=64 v=127
32640 On ch=1 n=e5 v=60
32640 On ch=1 n=c4 v=60
32715 Tempo 967741
32800 On ch=1 n=g4 v=45
32830 Tempo 1000000
32945 Tempo 1034482
32955 On ch=1 n=g4 v=0
32960 On ch=1 n=c5 v=45
33060 Tempo 1071428
33060 Par ch=1 c=64 v=0
33115 On ch=1 n=c5 v=0
33120 On ch=1 n=c4 v=0
33120 On ch=1 n=e5 v=0
33120 Par ch=1 c=64 v=127
33120 On ch=1 n=f#5 v=60
33120 On ch=1 n=c4 v=60
33177 Tempo 1111111
33280 On ch=1 n=d4 v=45
33292 Tempo 1153846
33407 Tempo 1200000
33435 On ch=1 n=d4 v=0
33440 On ch=1 n=a4 v=45
33522 Tempo 1250000
33540 Par ch=1 c=64 v=0
33595 On ch=1 n=a4 v=0
33600 On ch=1 n=c4 v=0
33600 On ch=1 n=f#5 v=0
33600 Par ch=1 c=64 v=127
33600 On ch=1 n=g5 v=60
33600 On ch=1 n=b3 v=60
33600 On ch=1 n=d4 v=60
33637 Tempo 1304347
33752 Tempo 1363636
33760 On ch=1 n=g4 v=45
33867 Tempo 1428571
33915 On ch=1 n=g4 v=0
33920 On ch=1 n=d5 v=45
33960 On ch=1 n=b3 v=0
33960 On ch=1 n=g5 v=0
33960 On ch=1 n=a5 v=60
33960 On ch=1 n=a3 v=60
33982 Tempo 1500000
34020 Par ch=1 c=64 v=0
34075 On ch=1 n=d5 v=0
34080 On ch=1 n=a3 v=0
34080 On ch=1 n=a5 v=0
34080 Par ch=1 c=64 v=127
34080 On ch=1 n=b5 v=60
34080 On ch=1 n=g3 v=60
34097 Tempo 1578947
34212 Tempo 1666666
34240 On ch=1 n=a4 v=45
34327 Tempo 1764705
34400 On ch=1 n=d5 v=45
34440 On ch=1 n=b5 v=0
34440 On ch=1 n=d4 v=0
34440 On ch=1 n=c6 v=60
34442 Tempo 1875000
34480 On ch=1 n=g3 v=0
34500 Par ch=1 c=64 v=0
34555 On ch=1 n=c6 v=0
34555 On ch=1 n=d5 v=0
34560 Tempo 2000000
34560 Tempo 750000
34560 Par ch=1 c=64 v=127
34560 On ch=1 n=d6 v=60
34560 On ch=1 n=b4 v=45
34560 On ch=1 n=g4 v=53
34640 On ch=1 n=a4 v=0
34715 On ch=1 n=b4 v=0
34720 On ch=1 n=d5 v=45
34795 On ch=1 n=g4 v=0
34875 On ch=1 n=d5 v=0
34880 On ch=1 n=g5 v=45
34980 Par ch=1 c=64 v=0
35035 On ch=1 n=g5 v=0
35040 On ch=1 n=d6 v=0
35040 Par ch=1 c=64 v=127
35040 On ch=1 n=g6 v=60
35040 On ch=1 n=a#4 v=45
35040 On ch=1 n=c#4 v=53
35195 On ch=1 n=a#4 v=0
35200 On ch=1 n=e5 v=45
35275 On ch=1 n=c#4 v=0
35355 On ch=1 n=e5 v=0
35360 On ch=1 n=g5 v=45
35460 Par ch=1 c=64 v=0
35515 On ch=1 n=g5 v=0
35520 On ch=1 n=g6 v=0
35520 Par ch=1 c=64 v=127
35520 On ch=1 n=f#6 v=60
35520 On ch=1 n=a4 v=45
35520 On ch=1 n=d4 v=53
35675 On ch=1 n=a4 v=0
35680 On ch=1 n=d5 v=45
35755 On ch=1 n=d4 v=0
35835 On ch=1 n=d5 v=0
35840 On ch=1 n=f#5 v=45
35880 On ch=1 n=f#6 v=0
35880 On ch=1 n=e6 v=60
35940 Par ch=1 c=64 v=0
35995 On ch=1 n=f#5 v=0
36000 On ch=1 n=e6 v=0
36000 Par ch=1 c=64 v=127
36000 On ch=1 n=d6 v=60
36000 On ch=1 n=c5 v=45
36000 On ch=1 n=f#4 v=53
36155 On ch=1 n=c5 v=0
36160 On ch=1 n=d5 v=45
36235 On ch=1 n=f#4 v=0
36315 On ch=1 n=d5 v=0
36320 On ch=1 n=a5 v=45
36400 On ch=1 n=d6 v=0
36420 Par ch=1 c=64 v=0
36475 On ch=1 n=a5 v=0
36480 Par ch=1 c=64 v=127
36480 On ch=1 n=b5 v=60
36480 On ch=1 n=b4 v=45
36480 On ch=1 n=g4 v=53
36635 On ch=1 n=b4 v=0
36640 On ch=1 n=d5 v=45
36715 On ch=1 n=g4 v=0
36795 On ch=1 n=d5 v=0
36800 On ch=1 n=g5 v=45
36900 Par ch=1 c=64 v=0
36955 On ch=1 n=g5 v=0
36960 On ch=1 n=b5 v=0
36960 Par ch=1 c=64 v=127
36960 On ch=1 n=a#4 v=45
36960 On ch=1 n=c#4 v=53
36960 On ch=1 n=g6 v=60
37115 On ch=1 n=a#4 v=0
37120 On ch=1 n=e5 v=45
37195 On ch=1 n=c#4 v=0
37275 On ch=1 n=e5 v=0
37280 On ch=1 n=g5 v=45
37380 Par ch=1 c=64 v=0
37435 On ch=1 n=g5 v=0
37440 On ch=1 n=g6 v=0
37440 Par ch=1 c=64 v=127
37440 On ch=1 n=f#6 v=60
37440 On ch=1 n=a4 v=45
37440 On ch=1 n=d4 v=53
37595 On ch=1 n=a4 v=0
37600 On ch=1 n=d5 v=45
37675 On ch=1 n=d4 v=0
37755 On ch=1 n=d5 v=0
37760 On ch=1 n=f#5 v=45
37800 On ch=1 n=f#6 v=0
37800 On ch=1 n=e6 v=60
37860 Par ch=1 c=64 v=0
37915 On ch=1 n=f#5 v=0
37920 On ch=1 n=e6 v=0
37920 Par ch=1 c=64 v=127
37920 On ch=1 n=d6 v=60
37920 On ch=1 n=c5 v=45
37920 On ch=1 n=f#4 v=53
38075 On ch=1 n=c5 v=0
38080 On ch=1 n=d5 v=45
38155 On ch=1 n=f#4 v=0
38235 On ch=1 n=d5 v=0
38240 On ch=1 n=a5 v=45
38320 On ch=1 n=d6 v=0
38340 Par ch=1 c=64 v=0
38395 On ch=1 n=a5 v=0
38400 Par ch=1 c=64 v=127
38400 On ch=1 n=b5 v=60
38400 On ch=1 n=b4 v=45
38400 On ch=1 n=g4 v=53
38555 On ch=1 n=b4 v=0
38560 On ch=1 n=d5 v=45
38635 On ch=1 n=g4 v=0
38715 On ch=1 n=d5 v=0
38720 On ch=1 n=g5 v=45
38820 Par ch=1 c=64 v=0
38875 On ch=1 n=g5 v=0
38880 On ch=1 n=b5 v=0
38880 Par ch=1 c=64 v=127
38880 On ch=1 n=g6 v=60
38880 On ch=1 n=g4 v=53
38880 On ch=1 n=b3 v=60
39040 On ch=1 n=d5 v=45
39115 On ch=1 n=b3 v=0
39195 On ch=1 n=d5 v=0
39200 On ch=1 n=g5 v=45
39300 Par ch=1 c=64 v=0
39355 On ch=1 n=g5 v=0
39360 On ch=1 n=g6 v=0
39360 Par ch=1 c=64 v=127
39360 On ch=1 n=e6 v=60
39360 On ch=1 n=c4 v=60
39520 On ch=1 n=e5 v=45
39595 On ch=1 n=c4 v=0
39675 On ch=1 n=e5 v=0
39680 On ch=1 n=g5 v=45
39720 On ch=1 n=e6 v=0
39720 On ch=1 n=d6 v=60
39760 On ch=1 n=g4 v=0
39780 Par ch=1 c=64 v=0
39835 On ch=1 n=g5 v=0
39840 On ch=1 n=d6 v=0
39840 Par ch=1 c=64 v=127
39840 On ch=1 n=c6 v=60
39840 On ch=1 n=g4 v=45
39840 On ch=1 n=e4 v=53
39995 On ch=1 n=g4 v=0
40000 On ch=1 n=c5 v=45
40075 On ch=1 n=e4 v=0
40155 On ch=1 n=c5 v=0
40160 On ch=1 n=g5 v=45
40260 Par ch=1 c=64 v=0
40315 On ch=1 n=g5 v=0
40320 On ch=1 n=c6 v=0
40320 Par ch=1 c=64 v=127
40320 On ch=1 n=a5 v=60
40320 On ch=1 n=g4 v=45
40320 On ch=1 n=d4 v=53
40475 On ch=1 n=g4 v=0
40480 On ch=1 n=c5 v=45
40555 On ch=1 n=d4 v=0
40635 On ch=1 n=c5 v=0
40640 On ch=1 n=g5 v=45
40740 Par ch=1 c=64 v=0
40795 On ch=1 n=g5 v=0
40800 On ch=1 n=a5 v=0
40800 Par ch=1 c=64 v=127
40800 On ch=1 n=d6 v=60
40800 On ch=1 n=f#4 v=45
40800 On ch=1 n=d4 v=53
40955 On ch=1 n=f#4 v=0
40960 On ch=1 n=c5 v=45
41035 On ch=1 n=d4 v=0
41115 On ch=1 n=c5 v=0
41120 On ch=1 n=f#5 v=45
41220 Par ch=1 c=64 v=0
41275 On ch=1 n=f#5 v=0
41280 On ch=1 n=d6 v=0
41280 Tempo 750000
41280 Par ch=1 c=64 v=127
41280 On ch=1 n=b5 v=60
41280 On ch=1 n=g3 v=53
41280 On ch=1 n=d4 v=53
41342 Tempo 769230
41407 Tempo 789473
41440 On ch=1 n=b4 v=45
41470 Tempo 810810
41535 Tempo 833333
41600 Tempo 857142
41600 On ch=1 n=g5 v=45
41662 Tempo 882352
41727 Tempo 909090
41755 On ch=1 n=g5 v=0
41790 Tempo 937500
41855 Tempo 967741
41915 On ch=1 n=b4 v=0
41920 Tempo 1000000
41920 On ch=1 n=b4 v=45
41982 Tempo 1034482
42047 Tempo 1071428
42075 On ch=1 n=b4 v=0
42080 On ch=1 n=g5 v=45
42110 Tempo 1111111
42120 On ch=1 n=d4 v=0
42120 On ch=1 n=g3 v=0
42120 On ch=1 n=b5 v=0
42175 Tempo 1153846
42180 Par ch=1 c=64 v=0
42235 On ch=1 n=g5 v=0
42240 Tempo 1200000
43200 Tempo 461538
43200 KeySig 2 major
43200 TimeSig 3/4 24 8
44160 On ch=1 n=d5 v=92
44160 On ch=1 n=f#5 v=92
44160 On ch=1 n=d4 v=75
44160 On ch=1 n=a4 v=75
44515 On ch=1 n=f#5 v=0
44515 On ch=1 n=d5 v=0
44520 On ch=1 n=b5 v=92
44560 On ch=1 n=a4 v=0
44560 On ch=1 n=d4 v=0
44575 On ch=1 n=b5 v=0
44580 On ch=1 n=a5 v=92
44635 On ch=1 n=a5 v=0
44640 On ch=1 n=c#5 v=92
44640 On ch=1 n=g5 v=92
44640 On ch=1 n=e4 v=75
44640 On ch=1 n=a4 v=75
44875 On ch=1 n=a4 v=0
44875 On ch=1 n=e4 v=0
44875 On ch=1 n=g5 v=0
44875 On ch=1 n=c#5 v=0
45000 On ch=1 n=c#5 v=92
45000 On ch=1 n=f#5 v=92
45000 On ch=1 n=d#4 v=75
45000 On ch=1 n=a4 v=75
45115 On ch=1 n=a4 v=0
45115 On ch=1 n=d#4 v=0
45115 On ch=1 n=f#5 v=0
45115 On ch=1 n=c#5 v=0
45120 On ch=1 n=c#5 v=92
45120 On ch=1 n=g5 v=92
45120 On ch=1 n=e4 v=75
45120 On ch=1 n=a4 v=75
45520 On ch=1 n=a4 v=0
45520 On ch=1 n=e4 v=0
45520 On ch=1 n=g5 v=0
45520 On ch=1 n=c#5 v=0
45600 On ch=1 n=c#5 v=92
45600 On ch=1 n=b5 v=92
45600 On ch=1 n=g4 v=75
45600 On ch=1 n=a4 v=75
46000 On ch=1 n=a4 v=0
46000 On ch=1 n=g4 v=0
46080 On ch=1 n=b5 v=0
46080 On ch=1 n=c#5 v=0
46080 On ch=1 n=d5 v=92
46080 On ch=1 n=a5 v=92
46080 On ch=1 n=f#4 v=75
46080 On ch=1 n=a4 v=75
46315 On ch=1 n=a4 v=0
46315 On ch=1 n=f#4 v=0
46440 On ch=1 n=f4 v=75
46440 On ch=1 n=a4 v=75
46555 On ch=1 n=a4 v=0
46555 On ch=1 n=f4 v=0
46560 On ch=1 n=f#4 v=75
46560 On ch=1 n=a4 v=75
46920 On ch=1 n=a5 v=0
46920 On ch=1 n=d5 v=0
46960 On ch=1 n=a4 v=0
46960 On ch=1 n=f#4 v=0
47040 On ch=1 n=a5 v=92
47040 On ch=1 n=d6 v=92
47040 On ch=1 n=f#4 v=75
47040 On ch=1 n=a4 v=75
47440 On ch=1 n=a4 v=0
47440 On ch=1 n=f#4 v=0
47440 On ch=1 n=d6 v=0
47440 On ch=1 n=a5 v=0
47520 On ch=1 n=g5 v=92
47520 On ch=1 n=c#6 v=92
47520 On ch=1 n=e4 v=75
47520 On ch=1 n=a4 v=75
47755 On ch=1 n=a4 v=0
47755 On ch=1 n=e4 v=0
47755 On ch=1 n=c#6 v=0
47755 On ch=1 n=g5 v=0
47880 On ch=1 n=f#5 v=92
47880 On ch=1 n=b5 v=92
47880 On ch=1 n=d4 v=75
47880 On ch=1 n=a4 v=75
47995 On ch=1 n=a4 v=0
47995 On ch=1 n=d4 v=0
47995 On ch=1 n=b5 v=0
47995 On ch=1 n=f#5 v=0
48000 On ch=1 n=e5 v=92
48000 On ch=1 n=a5 v=92
48000 On ch=1 n=c#4 v=75
48000 On ch=1 n=a4 v=75
48400 On ch=1 n=a4 v=0
48400 On ch=1 n=c#4 v=0
48400 On ch=1 n=a5 v=0
48400 On ch=1 n=e5 v=0
48480 On ch=1 n=g5 v=127
48480 On ch=1 n=a5 v=127
48480 On ch=1 n=g6 v=127
48480 On ch=1 n=a3 v=75
48480 On ch=1 n=a4 v=75
48960 On ch=1 n=a4 v=0
48960 On ch=1 n=a3 v=0
48960 On ch=1 n=g6 v=0
48960 On ch=1 n=a5 v=0
48960 On ch=1 n=g5 v=0
48960 On ch=1 n=f#5 v=92
48960 On ch=1 n=d6 v=92
48960 On ch=1 n=f#6 v=92
48960 On ch=1 n=d4 v=75
48960 On ch=1 n=a4 v=75
49195 On ch=1 n=a4 v=0
49195 On ch=1 n=d4 v=0
49195 On ch=1 n=f#6 v=0
49195 On ch=1 n=d6 v=0
49195 On ch=1 n=f#5 v=0
49320 On ch=1 n=g5 v=92
49320 On ch=1 n=c#6 v=92
49320 On ch=1 n=e6 v=92
49320 On ch=1 n=e4 v=75
49320 On ch=1 n=a4 v=75
49435 On ch=1 n=a4 v=0
49435 On ch=1 n=e4 v=0
49435 On ch=1 n=e6 v=0
49435 On ch=1 n=c#6 v=0
49435 On ch=1 n=g5 v=0
49440 On ch=1 n=a5 v=92
49440 On ch=1 n=d6 v=92
49440 On ch=1 n=f#4 v=75
49440 On ch=1 n=a4 v=75
49840 On ch=1 n=a4 v=0
49840 On ch=1 n=f#4 v=0
49840 On ch=1 n=d6 v=0
49840 On ch=1 n=a5 v=0
49920 On ch=1 n=d5 v=92
49920 On ch=1 n=f#5 v=92
49920 On ch=1 n=d4 v=75
49920 On ch=1 n=a4 v=75
50275 On ch=1 n=f#5 v=0
50275 On ch=1 n=d5 v=0
50280 On ch=1 n=b5 v=92
50335 On ch=1 n=b5 v=0
50340 On ch=1 n=a5 v=92
50395 On ch=1 n=a5 v=0
50400 On ch=1 n=a4 v=0
50400 On ch=1 n=d4 v=0
50400 On ch=1 n=c#5 v=92
50400 On ch=1 n=g5 v=92
50400 On ch=1 n=e4 v=75
50400 On ch=1 n=a4 v=75
50635 On ch=1 n=a4 v=0
50635 On ch=1 n=e4 v=0
50635 On ch=1 n=g5 v=0
50635 On ch=1 n=c#5 v=0
50760 On ch=1 n=c#5 v=92
50760 On ch=1 n=f#5 v=92
50760 On ch=1 n=d#4 v=75
50760 On ch=1 n=a4 v=75
50875 On ch=1 n=a4 v=0
50875 On ch=1 n=d#4 v=0
50875 On ch=1 n=f#5 v=0
50875 On ch=1 n=c#5 v=0
50880 On ch=1 n=c#5 v=92
50880 On ch=1 n=g5 v=92
50880 On ch=1 n=e4 v=75
50880 On ch=1 n=a4 v=75
51280 On ch=1 n=a4 v=0
51280 On ch=1 n=e4 v=0
51280 On ch=1 n=g5 v=0
51280 On ch=1 n=c#5 v=0
51360 On ch=1 n=c#5 v=92
51360 On ch=1 n=b5 v=92
51360 On ch=1 n=g4 v=75
51360 On ch=1 n=a4 v=75
51760 On ch=1 n=a4 v=0
51760 On ch=1 n=g4 v=0
51840 On ch=1 n=b5 v=0
51840 On ch=1 n=c#5 v=0
51840 On ch=1 n=d5 v=92
51840 On ch=1 n=a5 v=92
51840 On ch=1 n=f#4 v=75
51840 On ch=1 n=a4 v=75
52075 On ch=1 n=a4 v=0
52075 On ch=1 n=f#4 v=0
52200 On ch=1 n=f4 v=75
52200 On ch=1 n=a4 v=75
52315 On ch=1 n=a4 v=0
52315 On ch=1 n=f4 v=0
52320 On ch=1 n=f#4 v=75
52320 On ch=1 n=a4 v=75
52680 On ch=1 n=a5 v=0
52680 On ch=1 n=d5 v=0
52720 On ch=1 n=a4 v=0
52720 On ch=1 n=f#4 v=0
52800 On ch=1 n=d6 v=60
52800 On ch=1 n=a5 v=45
52800 On ch=1 n=a4 v=45
52800 On ch=1 n=f#4 v=45
53035 On ch=1 n=a4 v=0
53040 On ch=1 n=b4 v=45
53160 On ch=1 n=d6 v=0
53160 On ch=1 n=c#6 v=60
53200 On ch=1 n=a5 v=0
53275 On ch=1 n=c#6 v=0
53275 On ch=1 n=b4 v=0
53280 On ch=1 n=f#4 v=0
53280 On ch=1 n=c#6 v=60
53280 On ch=1 n=a5 v=45
53280 On ch=1 n=c#5 v=45
53280 On ch=1 n=e4 v=45
53520 On ch=1 n=c#5 v=0
53520 On ch=1 n=c#6 v=0
53520 On ch=1 n=d6 v=64
53520 On ch=1 n=d5 v=48
53680 On ch=1 n=e4 v=0
53760 On ch=1 n=d5 v=0
53760 On ch=1 n=d6 v=0
53760 On ch=1 n=e6 v=68
53760 On ch=1 n=e5 v=51
54000 On ch=1 n=e5 v=0
54000 On ch=1 n=e6 v=0
54000 On ch=1 n=f#6 v=72
54000 On ch=1 n=f#5 v=55
54120 On ch=1 n=a5 v=0
54240 On ch=1 n=f#5 v=0
54240 On ch=1 n=f#6 v=0
54240 On ch=1 n=f#6 v=76
54240 On ch=1 n=d6 v=60
54240 On ch=1 n=f#5 v=59
54240 On ch=1 n=e5 v=59
54600 On ch=1 n=f#5 v=0
54600 On ch=1 n=f#6 v=0
54600 On ch=1 n=g#6 v=82
54600 On ch=1 n=g#5 v=65
54720 On ch=1 n=g#5 v=0
54720 On ch=1 n=g#6 v=0
54720 On ch=1 n=g#6 v=84
54720 On ch=1 n=g#5 v=67
55120 On ch=1 n=e5 v=0
55120 On ch=1 n=d6 v=0
55200 On ch=1 n=g#5 v=0
55200 On ch=1 n=g#6 v=0
55200 On ch=1 n=a6 v=92
55200 On ch=1 n=c#6 v=75
55200 On ch=1 n=a5 v=75
55200 On ch=1 n=a4 v=75
55600 On ch=1 n=a4 v=0
55600 On ch=1 n=a5 v=0
55600 On ch=1 n=c#6 v=0
55600 On ch=1 n=a6 v=0
55680 On ch=1 n=d5 v=92
55680 On ch=1 n=f#5 v=92
55680 On ch=1 n=d4 v=75
55680 On ch=1 n=a4 v=75
56035 On ch=1 n=f#5 v=0
56035 On ch=1 n=d5 v=0
56040 On ch=1 n=b5 v=92
56080 On ch=1 n=a4 v=0
56080 On ch=1 n=d4 v=0
56095 On ch=1 n=b5 v=0
56100 On ch=1 n=a5 v=92
56155 On ch=1 n=a5 v=0
56160 On ch=1 n=c#5 v=92
56160 On ch=1 n=g5 v=92
56160 On ch=1 n=e4 v=75
56160 On ch=1 n=a4 v=75
56395 On ch=1 n=a4 v=0
56395 On ch=1 n=e4 v=0
56395 On ch=1 n=g5 v=0
56395 On ch=1 n=c#5 v=0
56520 On ch=1 n=c#5 v=92
56520 On ch=1 n=f#5 v=92
56520 On ch=1 n=d#4 v=75
56520 On ch=1 n=a4 v=75
56635 On ch=1 n=a4 v=0
56635 On ch=1 n=d#4 v=0
56635 On ch=1 n=f#5 v=0
56635 On ch=1 n=c#5 v=0
56640 On ch=1 n=c#5 v=92
56640 On ch=1 n=g5 v=92
56640 On ch=1 n=e4 v=75
56640 On ch=1 n=a4 v=75
57040 On ch=1 n=a4 v=0
57040 On ch=1 n=e4 v=0
57040 On ch=1 n=g5 v=0
57040 On ch=1 n=c#5 v=0
57120 On ch=1 n=c#5 v=92
57120 On ch=1 n=b5 v=92
57120 On ch=1 n=g4 v=75
57120 On ch=1 n=a4 v=75
57520 On ch=1 n=a4 v=0
57520 On ch=1 n=g4 v=0
57600 On ch=1 n=b5 v=0
57600 On ch=1 n=c#5 v=0
57600 On ch=1 n=d5 v=92
57600 On ch=1 n=a5 v=92
57600 On ch=1 n=f#4 v=75
57600 On ch=1 n=a4 v=75
57835 On ch=1 n=a4 v=0
57835 On ch=1 n=f#4 v=0
57960 On ch=1 n=f4 v=75
57960 On ch=1 n=a4 v=75
58075 On ch=1 n=a4 v=0
58075 On ch=1 n=f4 v=0
58080 On ch=1 n=f#4 v=75
58080 On ch=1 n=a4 v=75
58440 On ch=1 n=a5 v=0
58440 On ch=1 n=d5 v=0
58480 On ch=1 n=a4 v=0
58480 On ch=1 n=f#4 v=0
58560 On ch=1 n=a5 v=92
58560 On ch=1 n=d6 v=92
58560 On ch=1 n=f#4 v=75
58560 On ch=1 n=a4 v=75
58960 On ch=1 n=a4 v=0
58960 On ch=1 n=f#4 v=0
58960 On ch=1 n=d6 v=0
58960 On ch=1 n=a5 v=0
59040 On ch=1 n=g5 v=92
59040 On ch=1 n=c#6 v=92
59040 On ch=1 n=e4 v=75
59040 On ch=1 n=a4 v=75
59275 On ch=1 n=a4 v=0
59275 On ch=1 n=e4 v=0
59275 On ch=1 n=c#6 v=0
59275 On ch=1 n=g5 v=0
59400 On ch=1 n=f#5 v=92
59400 On ch=1 n=b5 v=92
59400 On ch=1 n=d4 v=75
59400 On ch=1 n=a4 v=75
59515 On ch=1 n=a4 v=0
59515 On ch=1 n=d4 v=0
59515 On ch=1 n=b5 v=0
59515 On ch=1 n=f#5 v=0
59520 On ch=1 n=e5 v=92
59520 On ch=1 n=a5 v=92
59520 On ch=1 n=c#4 v=75
59520 On ch=1 n=a4 v=75
59920 On ch=1 n=a4 v=0
59920 On ch=1 n=c#4 v=0
59920 On ch=1 n=a5 v=0
59920 On ch=1 n=e5 v=0
60000 On ch=1 n=g5 v=127
60000 On ch=1 n=a5 v=127
60000 On ch=1 n=g6 v=127
60000 On ch=1 n=a3 v=75
60000 On ch=1 n=a4 v=75
60480 On ch=1 n=a4 v=0
60480 On ch=1 n=a3 v=0
60480 On ch=1 n=g6 v=0
60480 On ch=1 n=a5 v=0
60480 On ch=1 n=g5 v=0
60480 On ch=1 n=f#5 v=92
60480 On ch=1 n=d6 v=92
60480 On ch=1 n=f#6 v=92
60480 On ch=1 n=d4 v=75
60480 On ch=1 n=a4 v=75
60715 On ch=1 n=a4 v=0
60715 On ch=1 n=d4 v=0
60715 On ch=1 n=f#6 v=0
60715 On ch=1 n=d6 v=0
60715 On ch=1 n=f#5 v=0
60840 On ch=1 n=g5 v=92
60840 On ch=1 n=c#6 v=92
60840 On ch=1 n=e6 v=92
60840 On ch=1 n=e4 v=75
60840 On ch=1 n=a4 v=75
60955 On ch=1 n=a4 v=0
60955 On ch=1 n=e4 v=0
60955 On ch=1 n=e6 v=0
60955 On ch=1 n=c#6 v=0
60955 On ch=1 n=g5 v=0
60960 On ch=1 n=a5 v=92
60960 On ch=1 n=d6 v=92
60960 On ch=1 n=f#4 v=75
60960 On ch=1 n=a4 v=75
61360 On ch=1 n=a4 v=0
61360 On ch=1 n=f#4 v=0
61360 On ch=1 n=d6 v=0
61360 On ch=1 n=a5 v=0
61440 On ch=1 n=d5 v=92
61440 On ch=1 n=f#5 v=92
61440 On ch=1 n=d4 v=75
61440 On ch=1 n=a4 v=75
61795 On ch=1 n=f#5 v=0
61795 On ch=1 n=d5 v=0
61800 On ch=1 n=b5 v=92
61840 On ch=1 n=a4 v=0
61840 On ch=1 n=d4 v=0
61855 On ch=1 n=b5 v=0
61860 On ch=1 n=a5 v=92
61915 On ch=1 n=a5 v=0
61920 On ch=1 n=c#5 v=92
61920 On ch=1 n=g5 v=92
61920 On ch=1 n=e4 v=75
61920 On ch=1 n=a4 v=75
62155 On ch=1 n=a4 v=0
62155 On ch=1 n=e4 v=0
62155 On ch=1 n=g5 v=0
62155 On ch=1 n=c#5 v=0
62280 On ch=1 n=c#5 v=92
62280 On ch=1 n=f#5 v=92
62280 On ch=1 n=d#4 v=75
62280 On ch=1 n=a4 v=75
62395 On ch=1 n=a4 v=0
62395 On ch=1 n=d#4 v=0
62395 On ch=1 n=f#5 v=0
62395 On ch=1 n=c#5 v=0
62400 On ch=1 n=c#5 v=92
62400 On ch=1 n=g5 v=92
62400 On ch=1 n=e4 v=75
62400 On ch=1 n=a4 v=75
62800 On ch=1 n=a4 v=0
62800 On ch=1 n=e4 v=0
62800 On ch=1 n=g5 v=0
62800 On ch=1 n=c#5 v=0
62880 On ch=1 n=c#5 v=92
62880 On ch=1 n=b5 v=92
62880 On ch=1 n=g4 v=75
62880 On ch=1 n=a4 v=75
63360 On ch=1 n=a4 v=0
63360 On ch=1 n=g4 v=0
63360 On ch=1 n=b5 v=0
63360 On ch=1 n=c#5 v=0
63360 On ch=1 n=d5 v=92
63360 On ch=1 n=a5 v=92
63360 On ch=1 n=f#4 v=75
63360 On ch=1 n=a4 v=75
63595 On ch=1 n=a4 v=0
63595 On ch=1 n=f#4 v=0
63720 On ch=1 n=f4 v=75
63720 On ch=1 n=a4 v=75
63835 On ch=1 n=a4 v=0
63835 On ch=1 n=f4 v=0
63840 On ch=1 n=f#4 v=75
63840 On ch=1 n=a4 v=75
64200 On ch=1 n=a5 v=0
64200 On ch=1 n=d5 v=0
64240 On ch=1 n=a4 v=0
64240 On ch=1 n=f#4 v=0
64320 On ch=1 n=d6 v=60
64320 On ch=1 n=a5 v=45
64320 On ch=1 n=a4 v=45
64320 On ch=1 n=f#4 v=45
64555 On ch=1 n=a4 v=0
64560 On ch=1 n=b4 v=45
64680 On ch=1 n=d6 v=0
64680 On ch=1 n=c#6 v=60
64720 On ch=1 n=a5 v=0
64795 On ch=1 n=c#6 v=0
64795 On ch=1 n=b4 v=0
64800 On ch=1 n=f#4 v=0
64800 On ch=1 n=c#6 v=61
64800 On ch=1 n=a5 v=45
64800 On ch=1 n=c#5 v=45
64800 On ch=1 n=e4 v=45
65040 On ch=1 n=c#5 v=0
65040 On ch=1 n=c#6 v=0
65040 On ch=1 n=d6 v=64
65040 On ch=1 n=d5 v=48
65200 On ch=1 n=e4 v=0
65280 On ch=1 n=d5 v=0
65280 On ch=1 n=d6 v=0
65280 On ch=1 n=e6 v=68
65280 On ch=1 n=e5 v=51
65520 On ch=1 n=e5 v=0
65520 On ch=1 n=e6 v=0
65520 On ch=1 n=f#6 v=72
65520 On ch=1 n=f#5 v=55
65640 On ch=1 n=a5 v=0
65760 On ch=1 n=f#5 v=0
65760 On ch=1 n=f#6 v=0
65760 On ch=1 n=f#6 v=76
65760 On ch=1 n=d6 v=60
65760 On ch=1 n=f#5 v=59
65760 On ch=1 n=e5 v=59
66120 On ch=1 n=f#5 v=0
66120 On ch=1 n=f#6 v=0
66120 On ch=1 n=g#6 v=82
66120 On ch=1 n=g#5 v=65
66240 On ch=1 n=g#5 v=0
66240 On ch=1 n=g#6 v=0
66240 On ch=1 n=g#6 v=84
66240 On ch=1 n=g#5 v=67
66640 On ch=1 n=e5 v=0
66640 On ch=1 n=d6 v=0
66720 On ch=1 n=g#5 v=0
66720 On ch=1 n=g#6 v=0
66720 On ch=1 n=a6 v=92
66720 On ch=1 n=c#6 v=75
66720 On ch=1 n=a5 v=75
66720 On ch=1 n=a4 v=75
67120 On ch=1 n=a4 v=0
67120 On ch=1 n=a5 v=0
67120 On ch=1 n=c#6 v=0
67120 On ch=1 n=a6 v=0
67200 On ch=1 n=e6 v=60
67200 On ch=1 n=c6 v=45
67200 On ch=1 n=e5 v=45
67200 On ch=1 n=a4 v=45
67440 On ch=1 n=e5 v=0
67440 On ch=1 n=e6 v=0
67440 On ch=1 n=f#6 v=60
67440 On ch=1 n=f#5 v=45
67600 On ch=1 n=c6 v=0
67680 On ch=1 n=f#5 v=0
67680 On ch=1 n=f#6 v=0
67680 On ch=1 n=a4 v=0
67680 On ch=1 n=g6 v=60
67680 On ch=1 n=b5 v=45
67680 On ch=1 n=g5 v=45
67680 On ch=1 n=b4 v=45
67920 On ch=1 n=g5 v=0
67920 On ch=1 n=g6 v=0
67920 On ch=1 n=a6 v=62
67920 On ch=1 n=a5 v=47
68160 On ch=1 n=a5 v=0
68160 On ch=1 n=a6 v=0
68160 On ch=1 n=g6 v=64
68160 On ch=1 n=g5 v=49
68400 On ch=1 n=g5 v=0
68400 On ch=1 n=g6 v=0
68400 On ch=1 n=f#6 v=66
68400 On ch=1 n=f#5 v=51
68520 On ch=1 n=b5 v=0
68640 On ch=1 n=f#5 v=0
68640 On ch=1 n=f#6 v=0
68640 On ch=1 n=b4 v=0
68640 On ch=1 n=g6 v=69
68640 On ch=1 n=d#6 v=55
68640 On ch=1 n=g5 v=54
68640 On ch=1 n=b4 v=55
68880 On ch=1 n=g5 v=0
68880 On ch=1 n=g6 v=0
68880 On ch=1 n=f#6 v=72
68880 On ch=1 n=f#5 v=57
69040 On ch=1 n=d#6 v=0
69120 On ch=1 n=f#5 v=0
69120 On ch=1 n=f#6 v=0
69120 On ch=1 n=b4 v=0
69120 On ch=1 n=e6 v=75
69120 On ch=1 n=c6 v=60
69120 On ch=1 n=e5 v=60
69120 On ch=1 n=c5 v=60
69360 On ch=1 n=c5 v=0
69360 On ch=1 n=b4 v=60
69600 On ch=1 n=b4 v=0
69600 On ch=1 n=a4 v=60
69840 On ch=1 n=a4 v=0
69840 On ch=1 n=g4 v=60
69960 On ch=1 n=e5 v=0
69960 On ch=1 n=c6 v=0
69960 On ch=1 n=e6 v=0
70075 On ch=1 n=g4 v=0
70080 On ch=1 n=d6 v=75
70080 On ch=1 n=a5 v=60
70080 On ch=1 n=d5 v=60
70080 On ch=1 n=g4 v=60
70315 On ch=1 n=d6 v=0
70320 On ch=1 n=g4 v=0
70320 On ch=1 n=c6 v=68
70320 On ch=1 n=f#4 v=53
70480 On ch=1 n=a5 v=0
70555 On ch=1 n=c6 v=0
70560 On ch=1 n=f#4 v=0
70560 On ch=1 n=b5 v=60
70560 On ch=1 n=g5 v=45
70560 On ch=1 n=g4 v=45
70800 On ch=1 n=g4 v=0
70800 On ch=1 n=f#4 v=45
70960 On ch=1 n=g5 v=0
70960 On ch=1 n=b5 v=0
70960 On ch=1 n=d5 v=0
71040 On ch=1 n=f#4 v=0
71040 On ch=1 n=c6 v=60
71040 On ch=1 n=g5 v=45
71040 On ch=1 n=c5 v=45
71040 On ch=1 n=e4 v=45
71275 On ch=1 n=g5 v=0
71280 On ch=1 n=e4 v=0
71280 On ch=1 n=a5 v=45
71280 On ch=1 n=f#4 v=45
71440 On ch=1 n=c5 v=0
71440 On ch=1 n=c6 v=0
71515 On ch=1 n=a5 v=0
71520 On ch=1 n=f#4 v=0
71520 On ch=1 n=b5 v=60
71520 On ch=1 n=d5 v=45
71520 On ch=1 n=a5 v=45
71520 On ch=1 n=b4 v=45
71520 On ch=1 n=g4 v=45
71755 On ch=1 n=a5 v=0
71755 On ch=1 n=d5 v=0
71760 On ch=1 n=g4 v=0
71760 On ch=1 n=g5 v=45
71760 On ch=1 n=d4 v=45
71920 On ch=1 n=b4 v=0
71920 On ch=1 n=b5 v=0
71995 On ch=1 n=d4 v=0
71995 On ch=1 n=g5 v=0
72000 On ch=1 n=a5 v=60
72000 On ch=1 n=d5 v=45
72000 On ch=1 n=g5 v=45
72000 On ch=1 n=d4 v=45
72000 On ch=1 n=a4 v=45
72000 On ch=1 n=g4 v=45
72235 On ch=1 n=g5 v=0
72235 On ch=1 n=d5 v=0
72240 On ch=1 n=g4 v=0
72240 On ch=1 n=f#5 v=45
72240 On ch=1 n=f#4 v=45
72475 On ch=1 n=f#5 v=0
72480 On ch=1 n=f#4 v=0
72480 On ch=1 n=e5 v=45
72480 On ch=1 n=e4 v=45
72715 On ch=1 n=e5 v=0
72720 On ch=1 n=e4 v=0
72720 On ch=1 n=d5 v=45
72720 On ch=1 n=d4 v=45
72840 On ch=1 n=a4 v=0
72840 On ch=1 n=d4 v=0
72840 On ch=1 n=a5 v=0
72955 On ch=1 n=d4 v=0
72955 On ch=1 n=d5 v=0
72960 On ch=1 n=f#5 v=60
72960 On ch=1 n=d5 v=45
72960 On ch=1 n=a4 v=45
72960 On ch=1 n=d4 v=45
73195 On ch=1 n=d5 v=0
73200 On ch=1 n=d4 v=0
73200 On ch=1 n=c5 v=60
73200 On ch=1 n=d#4 v=45
73315 On ch=1 n=f#5 v=0
73320 On ch=1 n=b5 v=60
73360 On ch=1 n=a4 v=0
73375 On ch=1 n=b5 v=0
73380 On ch=1 n=a5 v=60
73435 On ch=1 n=a5 v=0
73435 On ch=1 n=c5 v=0
73440 On ch=1 n=d#4 v=0
73440 On ch=1 n=c#5 v=60
73440 On ch=1 n=g5 v=60
73440 On ch=1 n=e4 v=45
73440 On ch=1 n=a4 v=45
73675 On ch=1 n=a4 v=0
73675 On ch=1 n=e4 v=0
73675 On ch=1 n=g5 v=0
73675 On ch=1 n=c#5 v=0
73800 On ch=1 n=c#5 v=60
73800 On ch=1 n=f#5 v=60
73800 On ch=1 n=d#4 v=45
73800 On ch=1 n=a4 v=45
73915 On ch=1 n=a4 v=0
73915 On ch=1 n=d#4 v=0
73915 On ch=1 n=f#5 v=0
73915 On ch=1 n=c#5 v=0
73920 On ch=1 n=c#5 v=60
73920 On ch=1 n=g5 v=60
73920 On ch=1 n=e4 v=45
73920 On ch=1 n=a4 v=45
74320 On ch=1 n=a4 v=0
74320 On ch=1 n=e4 v=0
74320 On ch=1 n=g5 v=0
74320 On ch=1 n=c#5 v=0
74400 On ch=1 n=c#5 v=60
74400 On ch=1 n=b5 v=60
74400 On ch=1 n=g4 v=45
74400 On ch=1 n=a4 v=45
74880 On ch=1 n=a4 v=0
74880 On ch=1 n=g4 v=0
74880 On ch=1 n=b5 v=0
74880 On ch=1 n=c#5 v=0
74880 On ch=1 n=d5 v=60
74880 On ch=1 n=a5 v=60
74880 On ch=1 n=f#4 v=45
74880 On ch=1 n=a4 v=45
75115 On ch=1 n=a4 v=0
75115 On ch=1 n=f#4 v=0
75240 On ch=1 n=f4 v=45
75240 On ch=1 n=a4 v=45
75355 On ch=1 n=a4 v=0
75355 On ch=1 n=f4 v=0
75360 On ch=1 n=f#4 v=45
75360 On ch=1 n=a4 v=45
75720 On ch=1 n=a5 v=0
75720 On ch=1 n=d5 v=0
75760 On ch=1 n=a4 v=0
75760 On ch=1 n=f#4 v=0
75840 On ch=1 n=a5 v=60
75840 On ch=1 n=d6 v=60
75840 On ch=1 n=f#4 v=45
75840 On ch=1 n=a4 v=45
76240 On ch=1 n=d6 v=0
76240 On ch=1 n=a5 v=0
76320 On ch=1 n=a4 v=0
76320 On ch=1 n=f#4 v=0
76320 On ch=1 n=g5 v=60
76320 On ch=1 n=c#6 v=60
76320 On ch=1 n=e4 v=45
76320 On ch=1 n=a4 v=45
76555 On ch=1 n=a4 v=0
76555 On ch=1 n=e4 v=0
76555 On ch=1 n=c#6 v=0
76555 On ch=1 n=g5 v=0
76680 On ch=1 n=f#5 v=60
76680 On ch=1 n=b5 v=60
76680 On ch=1 n=d4 v=45
76680 On ch=1 n=a4 v=45
76795 On ch=1 n=a4 v=0
76795 On ch=1 n=d4 v=0
76795 On ch=1 n=b5 v=0
76795 On ch=1 n=f#5 v=0
76800 On ch=1 n=e5 v=60
76800 On ch=1 n=a5 v=60
76800 On ch=1 n=c#4 v=45
76800 On ch=1 n=a4 v=45
77200 On ch=1 n=a4 v=0
77200 On ch=1 n=c#4 v=0
77200 On ch=1 n=a5 v=0
77200 On ch=1 n=e5 v=0
77280 On ch=1 n=g5 v=84
77280 On ch=1 n=a5 v=84
77280 On ch=1 n=g6 v=84
77280 On ch=1 n=a3 v=45
77280 On ch=1 n=a4 v=45
77520 On ch=1 n=a3 v=0
77520 On ch=1 n=c#4 v=45
77755 On ch=1 n=c#4 v=0
77760 On ch=1 n=a4 v=0
77760 On ch=1 n=g6 v=0
77760 On ch=1 n=a5 v=0
77760 On ch=1 n=g5 v=0
77760 On ch=1 n=f#5 v=60
77760 On ch=1 n=d6 v=60
77760 On ch=1 n=f#6 v=60
77760 On ch=1 n=d4 v=45
77760 On ch=1 n=a4 v=45
77995 On ch=1 n=a4 v=0
77995 On ch=1 n=d4 v=0
77995 On ch=1 n=f#6 v=0
77995 On ch=1 n=d6 v=0
77995 On ch=1 n=f#5 v=0
78120 On ch=1 n=g5 v=60
78120 On ch=1 n=c#6 v=60
78120 On ch=1 n=e6 v=60
78120 On ch=1 n=e4 v=45
78120 On ch=1 n=a4 v=45
78235 On ch=1 n=a4 v=0
78235 On ch=1 n=e4 v=0
78235 On ch=1 n=e6 v=0
78235 On ch=1 n=c#6 v=0
78235 On ch=1 n=g5 v=0
78240 On ch=1 n=a5 v=60
78240 On ch=1 n=d6 v=60
78240 On ch=1 n=f#4 v=45
78240 On ch=1 n=a4 v=45
78640 On ch=1 n=a4 v=0
78640 On ch=1 n=f#4 v=0
78640 On ch=1 n=d6 v=0
78640 On ch=1 n=a5 v=0
78720 On ch=1 n=d5 v=92
78720 On ch=1 n=f#5 v=92
78720 On ch=1 n=d4 v=75
78720 On ch=1 n=a4 v=75
79075 On ch=1 n=f#5 v=0
79075 On ch=1 n=d5 v=0
79080 On ch=1 n=b5 v=92
79135 On ch=1 n=b5 v=0
79140 On ch=1 n=a5 v=92
79195 On ch=1 n=a5 v=0
79200 On ch=1 n=a4 v=0
79200 On ch=1 n=d4 v=0
79200 On ch=1 n=c#5 v=92
79200 On ch=1 n=g5 v=92
79200 On ch=1 n=e4 v=75
79200 On ch=1 n=a4 v=75
79435 On ch=1 n=a4 v=0
79435 On ch=1 n=e4 v=0
79435 On ch=1 n=g5 v=0
79435 On ch=1 n=c#5 v=0
79560 On ch=1 n=c#5 v=92
79560 On ch=1 n=f#5 v=92
79560 On ch=1 n=d#4 v=75
79560 On ch=1 n=a4 v=75
79675 On ch=1 n=a4 v=0
79675 On ch=1 n=d#4 v=0
79675 On ch=1 n=f#5 v=0
79675 On ch=1 n=c#5 v=0
79680 On ch=1 n=c#5 v=92
79680 On ch=1 n=g5 v=92
79680 On ch=1 n=e4 v=75
79680 On ch=1 n=a4 v=75
80080 On ch=1 n=a4 v=0
80080 On ch=1 n=e4 v=0
80080 On ch=1 n=g5 v=0
80080 On ch=1 n=c#5 v=0
80160 On ch=1 n=b5 v=92
80160 On ch=1 n=c#5 v=75
80160 On ch=1 n=g4 v=75
80160 On ch=1 n=a4 v=75
80520 On ch=1 n=b5 v=0
80520 On ch=1 n=a5 v=92
80560 On ch=1 n=c#5 v=0
80635 On ch=1 n=a5 v=0
80640 On ch=1 n=a4 v=0
80640 On ch=1 n=g4 v=0
80640 On ch=1 n=d5 v=60
80640 On ch=1 n=a5 v=60
80640 On ch=1 n=a4 v=45
80640 On ch=1 n=f#4 v=45
80880 On ch=1 n=a4 v=0
80880 On ch=1 n=a5 v=0
80880 On ch=1 n=d5 v=0
80880 On ch=1 n=b5 v=63
80880 On ch=1 n=b4 v=47
81120 On ch=1 n=b4 v=0
81120 On ch=1 n=b5 v=0
81120 On ch=1 n=c#6 v=66
81120 On ch=1 n=c#5 v=49
81360 On ch=1 n=c#5 v=0
81360 On ch=1 n=c#6 v=0
81360 On ch=1 n=d6 v=69
81360 On ch=1 n=d5 v=51
81480 On ch=1 n=f#4 v=0
81600 On ch=1 n=d5 v=0
81600 On ch=1 n=d6 v=0
81600 On ch=1 n=d6 v=72
81600 On ch=1 n=b5 v=45
81600 On ch=1 n=d5 v=53
81600 On ch=1 n=g4 v=45
81840 On ch=1 n=d5 v=0
81840 On ch=1 n=d6 v=0
81840 On ch=1 n=e6 v=75
81840 On ch=1 n=e5 v=55
82000 On ch=1 n=b5 v=0
82080 On ch=1 n=e5 v=0
82080 On ch=1 n=e6 v=0
82080 On ch=1 n=g4 v=0
82080 Tempo 461538
82080 On ch=1 n=f#6 v=78
82080 On ch=1 n=a5 v=52
82080 On ch=1 n=f#5 v=57
82080 On ch=1 n=a4 v=52
82120 Tempo 468750
82160 Tempo 476190
82202 Tempo 483870
82242 Tempo 491803
82285 Tempo 500000
82320 On ch=1 n=f#5 v=0
82320 On ch=1 n=g5 v=60
82325 Tempo 508474
82367 Tempo 517241
82407 Tempo 526315
82450 Tempo 535714
82480 On ch=1 n=a5 v=0
82490 Tempo 545454
82532 Tempo 555555
82560 On ch=1 n=g5 v=0
82560 On ch=1 n=a5 v=63
82572 Tempo 566037
82612 Tempo 576923
82655 Tempo 588235
82695 Tempo 600000
82737 Tempo 612244
82777 Tempo 625000
82800 On ch=1 n=a5 v=0
82800 On ch=1 n=b5 v=66
82820 Tempo 638297
82860 Tempo 652173
82902 Tempo 666666
82942 Tempo 681818
82985 Tempo 697674
83025 Tempo 714285
83040 On ch=1 n=b5 v=0
83040 On ch=1 n=f#6 v=0
83040 On ch=1 n=e6 v=92
83040 On ch=1 n=g5 v=69
83040 On ch=1 n=b5 v=69
83065 Tempo 731707
83107 Tempo 750000
83147 Tempo 769230
83190 Tempo 789473
83230 Tempo 810810
83272 Tempo 833333
83280 On ch=1 n=b5 v=0
83280 On ch=1 n=c#6 v=72
83312 Tempo 857142
83355 Tempo 882352
83395 Tempo 909090
83437 Tempo 937500
83477 Tempo 967741
83520 On ch=1 n=c#6 v=0
83520 On ch=1 n=a4 v=0
83520 Tempo 1000000
83520 On ch=1 n=c#6 v=75
83520 On ch=1 n=d5 v=75
83920 On ch=1 n=c#6 v=0
83920 On ch=1 n=g5 v=0
84000 On ch=1 n=e6 v=0
84000 On ch=1 n=d6 v=75
84000 On ch=1 n=f#5 v=60
84360 On ch=1 n=d5 v=0
84400 On ch=1 n=f#5 v=0
84400 On ch=1 n=d6 v=0
84480 Tempo 461538
84480 On ch=1 n=e6 v=60
84480 On ch=1 n=c6 v=45
84480 On ch=1 n=e5 v=45
84480 On ch=1 n=a4 v=45
84720 On ch=1 n=e5 v=0
84720 On ch=1 n=e6 v=0
84720 On ch=1 n=f#6 v=60
84720 On ch=1 n=f#5 v=45
84880 On ch=1 n=a4 v=0
84880 On ch=1 n=c6 v=0
84960 On ch=1 n=f#5 v=0
84960 On ch=1 n=f#6 v=0
84960 On ch=1 n=g6 v=60
84960 On ch=1 n=b5 v=45
84960 On ch=1 n=g5 v=45
84960 On ch=1 n=b4 v=45
85200 On ch=1 n=g5 v=0
85200 On ch=1 n=g6 v=0
85200 On ch=1 n=a6 v=62
85200 On ch=1 n=a5 v=47
85440 On ch=1 n=a5 v=0
85440 On ch=1 n=a6 v=0
85440 On ch=1 n=g6 v=64
85440 On ch=1 n=g5 v=49
85680 On ch=1 n=g5 v=0
85680 On ch=1 n=g6 v=0
85680 On ch=1 n=f#6 v=66
85680 On ch=1 n=f#5 v=51
85800 On ch=1 n=b4 v=0
85800 On ch=1 n=b5 v=0
85920 On ch=1 n=f#5 v=0
85920 On ch=1 n=f#6 v=0
85920 On ch=1 n=g6 v=69
85920 On ch=1 n=d#6 v=55
85920 On ch=1 n=g5 v=54
85920 On ch=1 n=b4 v=55
86160 On ch=1 n=g5 v=0
86160 On ch=1 n=g6 v=0
86160 On ch=1 n=f#6 v=72
86160 On ch=1 n=f#5 v=57
86320 On ch=1 n=b4 v=0
86320 On ch=1 n=d#6 v=0
86400 On ch=1 n=f#5 v=0
86400 On ch=1 n=f#6 v=0
86400 On ch=1 n=e6 v=75
86400 On ch=1 n=c6 v=60
86400 On ch=1 n=e5 v=60
86400 On ch=1 n=c5 v=60
86640 On ch=1 n=c5 v=0
86640 On ch=1 n=b4 v=60
86880 On ch=1 n=b4 v=0
86880 On ch=1 n=a4 v=60
87120 On ch=1 n=a4 v=0
87120 On ch=1 n=g4 v=60
87240 On ch=1 n=e5 v=0
87240 On ch=1 n=c6 v=0
87240 On ch=1 n=e6 v=0
87355 On ch=1 n=g4 v=0
87360 On ch=1 n=d6 v=75
87360 On ch=1 n=a5 v=60
87360 On ch=1 n=d5 v=60
87360 On ch=1 n=g4 v=60
87600 On ch=1 n=g4 v=0
87600 On ch=1 n=d6 v=0
87600 On ch=1 n=c6 v=72
87600 On ch=1 n=f#4 v=57
87760 On ch=1 n=a5 v=0
87840 On ch=1 n=f#4 v=0
87840 On ch=1 n=c6 v=0
87840 On ch=1 n=b5 v=68
87840 On ch=1 n=g5 v=53
87840 On ch=1 n=g4 v=53
88080 On ch=1 n=g4 v=0
88080 On ch=1 n=f#4 v=49
88240 On ch=1 n=g5 v=0
88240 On ch=1 n=d5 v=0
88320 On ch=1 n=f#4 v=0
88320 On ch=1 n=b5 v=0
88320 On ch=1 n=c6 v=60
88320 On ch=1 n=g5 v=45
88320 On ch=1 n=c5 v=45
88320 On ch=1 n=e4 v=45
88555 On ch=1 n=g5 v=0
88560 On ch=1 n=e4 v=0
88560 On ch=1 n=a5 v=45
88560 On ch=1 n=f#4 v=45
88720 On ch=1 n=c5 v=0
88795 On ch=1 n=a5 v=0
88800 On ch=1 n=f#4 v=0
88800 On ch=1 n=c6 v=0
88800 On ch=1 n=b5 v=60
88800 On ch=1 n=d5 v=45
88800 On ch=1 n=a5 v=45
88800 On ch=1 n=b4 v=45
88800 On ch=1 n=g4 v=45
89035 On ch=1 n=a5 v=0
89035 On ch=1 n=d5 v=0
89040 On ch=1 n=g4 v=0
89040 On ch=1 n=g5 v=45
89040 On ch=1 n=d4 v=45
89200 On ch=1 n=b4 v=0
89275 On ch=1 n=d4 v=0
89275 On ch=1 n=g5 v=0
89280 On ch=1 n=b5 v=0
89280 On ch=1 n=a5 v=60
89280 On ch=1 n=d5 v=45
89280 On ch=1 n=g5 v=45
89280 On ch=1 n=d4 v=45
89280 On ch=1 n=a4 v=45
89280 On ch=1 n=g4 v=45
89520 On ch=1 n=g4 v=0
89520 On ch=1 n=g5 v=0
89520 On ch=1 n=d5 v=0
89520 On ch=1 n=f#5 v=45
89520 On ch=1 n=f#4 v=45
89760 On ch=1 n=f#4 v=0
89760 On ch=1 n=f#5 v=0
89760 On ch=1 n=e5 v=45
89760 On ch=1 n=e4 v=45
90000 On ch=1 n=e4 v=0
90000 On ch=1 n=e5 v=0
90000 On ch=1 n=d5 v=45
90000 On ch=1 n=d4 v=45
90120 On ch=1 n=a4 v=0
90120 On ch=1 n=d4 v=0
90120 On ch=1 n=a5 v=0
90235 On ch=1 n=d4 v=0
90235 On ch=1 n=d5 v=0
90240 On ch=1 n=f#5 v=60
90240 On ch=1 n=d5 v=45
90240 On ch=1 n=a4 v=45
90240 On ch=1 n=d4 v=45
90475 On ch=1 n=d5 v=0
90480 On ch=1 n=d4 v=0
90480 On ch=1 n=c5 v=60
90480 On ch=1 n=d#4 v=45
90600 On ch=1 n=f#5 v=0
90600 On ch=1 n=b5 v=60
90640 On ch=1 n=a4 v=0
90660 On ch=1 n=b5 v=0
90660 On ch=1 n=a5 v=60
90715 On ch=1 n=c5 v=0
90720 On ch=1 n=a5 v=0
90720 On ch=1 n=d#4 v=0
90720 On ch=1 n=c#5 v=60
90720 On ch=1 n=g5 v=60
90720 On ch=1 n=e4 v=45
90720 On ch=1 n=a4 v=45
90955 On ch=1 n=a4 v=0
90955 On ch=1 n=e4 v=0
90955 On ch=1 n=g5 v=0
90955 On ch=1 n=c#5 v=0
91080 On ch=1 n=c#5 v=60
91080 On ch=1 n=f#5 v=60
91080 On ch=1 n=d#4 v=45
91080 On ch=1 n=a4 v=45
91195 On ch=1 n=a4 v=0
91195 On ch=1 n=d#4 v=0
91195 On ch=1 n=f#5 v=0
91195 On ch=1 n=c#5 v=0
91200 On ch=1 n=c#5 v=60
91200 On ch=1 n=g5 v=60
91200 On ch=1 n=e4 v=45
91200 On ch=1 n=a4 v=45
91600 On ch=1 n=a4 v=0
91600 On ch=1 n=e4 v=0
91600 On ch=1 n=g5 v=0
91600 On ch=1 n=c#5 v=0
91680 On ch=1 n=c#5 v=60
91680 On ch=1 n=b5 v=60
91680 On ch=1 n=g4 v=45
91680 On ch=1 n=a4 v=45
92080 On ch=1 n=a4 v=0
92080 On ch=1 n=g4 v=0
92160 On ch=1 n=b5 v=0
92160 On ch=1 n=c#5 v=0
92160 On ch=1 n=d5 v=60
92160 On ch=1 n=a5 v=60
92160 On ch=1 n=f#4 v=45
92160 On ch=1 n=a4 v=45
92395 On ch=1 n=a4 v=0
92395 On ch=1 n=f#4 v=0
92520 On ch=1 n=f4 v=45
92520 On ch=1 n=a4 v=45
92635 On ch=1 n=a4 v=0
92635 On ch=1 n=f4 v=0
92640 On ch=1 n=f#4 v=45
92640 On ch=1 n=a4 v=45
93000 On ch=1 n=a5 v=0
93000 On ch=1 n=d5 v=0
93040 On ch=1 n=a4 v=0
93040 On ch=1 n=f#4 v=0
93120 On ch=1 n=a5 v=60
93120 On ch=1 n=d6 v=60
93120 On ch=1 n=f#4 v=45
93120 On ch=1 n=a4 v=45
93520 On ch=1 n=a4 v=0
93520 On ch=1 n=f#4 v=0
93520 On ch=1 n=d6 v=0
93520 On ch=1 n=a5 v=0
93600 On ch=1 n=g5 v=60
93600 On ch=1 n=c#6 v=60
93600 On ch=1 n=e4 v=45
93600 On ch=1 n=a4 v=45
93835 On ch=1 n=a4 v=0
93835 On ch=1 n=e4 v=0
93835 On ch=1 n=c#6 v=0
93835 On ch=1 n=g5 v=0
93960 On ch=1 n=f#5 v=60
93960 On ch=1 n=b5 v=60
93960 On ch=1 n=d4 v=45
93960 On ch=1 n=a4 v=45
94075 On ch=1 n=a4 v=0
94075 On ch=1 n=d4 v=0
94075 On ch=1 n=b5 v=0
94075 On ch=1 n=f#5 v=0
94080 On ch=1 n=e5 v=60
94080 On ch=1 n=a5 v=60
94080 On ch=1 n=c#4 v=45
94080 On ch=1 n=a4 v=45
94480 On ch=1 n=a4 v=0
94480 On ch=1 n=c#4 v=0
94480 On ch=1 n=a5 v=0
94480 On ch=1 n=e5 v=0
94560 On ch=1 n=g5 v=84
94560 On ch=1 n=a5 v=84
94560 On ch=1 n=g6 v=84
94560 On ch=1 n=a3 v=45
94560 On ch=1 n=a4 v=45
94795 On ch=1 n=a3 v=0
94800 On ch=1 n=c#4 v=45
95035 On ch=1 n=c#4 v=0
95040 On ch=1 n=a4 v=0
95040 On ch=1 n=g6 v=0
95040 On ch=1 n=a5 v=0
95040 On ch=1 n=g5 v=0
95040 On ch=1 n=f#5 v=60
95040 On ch=1 n=d6 v=60
95040 On ch=1 n=f#6 v=60
95040 On ch=1 n=d4 v=45
95040 On ch=1 n=a4 v=45
95275 On ch=1 n=a4 v=0
95275 On ch=1 n=d4 v=0
95275 On ch=1 n=f#6 v=0
95275 On ch=1 n=d6 v=0
95275 On ch=1 n=f#5 v=0
95400 On ch=1 n=g5 v=60
95400 On ch=1 n=c#6 v=60
95400 On ch=1 n=e6 v=60
95400 On ch=1 n=e4 v=45
95400 On ch=1 n=a4 v=45
95515 On ch=1 n=a4 v=0
95515 On ch=1 n=e4 v=0
95515 On ch=1 n=e6 v=0
95515 On ch=1 n=c#6 v=0
95515 On ch=1 n=g5 v=0
95520 On ch=1 n=a5 v=60
95520 On ch=1 n=d6 v=60
95520 On ch=1 n=f#4 v=45
95520 On ch=1 n=a4 v=45
95920 On ch=1 n=a4 v=0
95920 On ch=1 n=f#4 v=0
95920 On ch=1 n=d6 v=0
95920 On ch=1 n=a5 v=0
96000 On ch=1 n=d5 v=92
96000 On ch=1 n=f#5 v=92
96000 On ch=1 n=d4 v=75
96000 On ch=1 n=a4 v=75
96355 On ch=1 n=f#5 v=0
96355 On ch=1 n=d5 v=0
96360 On ch=1 n=b5 v=92
96415 On ch=1 n=b5 v=0
96420 On ch=1 n=a5 v=92
96475 On ch=1 n=a5 v=0
96480 On ch=1 n=a4 v=0
96480 On ch=1 n=d4 v=0
96480 On ch=1 n=c#5 v=92
96480 On ch=1 n=g5 v=92
96480 On ch=1 n=e4 v=75
96480 On ch=1 n=a4 v=75
96715 On ch=1 n=a4 v=0
96715 On ch=1 n=e4 v=0
96715 On ch=1 n=g5 v=0
96715 On ch=1 n=c#5 v=0
96840 On ch=1 n=c#5 v=92
96840 On ch=1 n=f#5 v=92
96840 On ch=1 n=d#4 v=75
96840 On ch=1 n=a4 v=75
96955 On ch=1 n=a4 v=0
96955 On ch=1 n=d#4 v=0
96955 On ch=1 n=f#5 v=0
96955 On ch=1 n=c#5 v=0
96960 On ch=1 n=c#5 v=92
96960 On ch=1 n=g5 v=92
96960 On ch=1 n=e4 v=75
96960 On ch=1 n=a4 v=75
97360 On ch=1 n=a4 v=0
97360 On ch=1 n=e4 v=0
97360 On ch=1 n=g5 v=0
97360 On ch=1 n=c#5 v=0
97440 On ch=1 n=b5 v=92
97440 On ch=1 n=c#5 v=75
97440 On ch=1 n=g4 v=75
97440 On ch=1 n=a4 v=75
97795 On ch=1 n=b5 v=0
97800 On ch=1 n=a5 v=92
97840 On ch=1 n=c#5 v=0
97915 On ch=1 n=a5 v=0
97920 On ch=1 n=a4 v=0
97920 On ch=1 n=g4 v=0
97920 On ch=1 n=d5 v=60
97920 On ch=1 n=a5 v=60
97920 On ch=1 n=a4 v=45
97920 On ch=1 n=f#4 v=45
98160 On ch=1 n=a4 v=0
98160 On ch=1 n=a5 v=0
98160 On ch=1 n=d5 v=0
98160 On ch=1 n=b5 v=60
98160 On ch=1 n=b4 v=45
98400 On ch=1 n=b4 v=0
98400 On ch=1 n=b5 v=0
98400 On ch=1 n=c#6 v=63
98400 On ch=1 n=c#5 v=47
98640 On ch=1 n=c#5 v=0
98640 On ch=1 n=c#6 v=0
98640 On ch=1 n=d6 v=66
98640 On ch=1 n=d5 v=49
98760 On ch=1 n=f#4 v=0
98880 On ch=1 n=d5 v=0
98880 On ch=1 n=d6 v=0
98880 On ch=1 n=d6 v=69
98880 On ch=1 n=b5 v=60
98880 On ch=1 n=d5 v=51
98880 On ch=1 n=g4 v=45
99120 On ch=1 n=d5 v=0
99120 On ch=1 n=d6 v=0
99120 On ch=1 n=e6 v=72
99120 On ch=1 n=e5 v=54
99280 On ch=1 n=b5 v=0
99360 On ch=1 n=e5 v=0
99360 On ch=1 n=e6 v=0
99360 On ch=1 n=g4 v=0
99360 Tempo 461538
99360 On ch=1 n=f#6 v=76
99360 On ch=1 n=a5 v=75
99360 On ch=1 n=f#5 v=57
99360 On ch=1 n=a4 v=60
99390 Tempo 468750
99422 Tempo 476190
99455 Tempo 483870
99487 Tempo 491803
99520 Tempo 500000
99550 Tempo 508474
99582 Tempo 517241
99600 On ch=1 n=f#5 v=0
99600 On ch=1 n=g5 v=60
99615 Tempo 526315
99647 Tempo 535714
99680 Tempo 545454
99710 Tempo 555555
99742 Tempo 566037
99760 On ch=1 n=a5 v=0
99775 Tempo 576923
99807 Tempo 588235
99840 On ch=1 n=g5 v=0
99840 Tempo 600000
99840 On ch=1 n=a5 v=63
99870 Tempo 612244
99902 Tempo 625000
99935 Tempo 638297
99967 Tempo 652173
100000 Tempo 666666
100030 Tempo 681818
100062 Tempo 697674
100080 On ch=1 n=a5 v=0
100080 On ch=1 n=b5 v=66
100095 Tempo 714285
100127 Tempo 731707
100160 Tempo 750000
100190 Tempo 769230
100222 Tempo 789473
100255 Tempo 810810
100287 Tempo 833333
100320 On ch=1 n=b5 v=0
100320 On ch=1 n=f#6 v=0
100320 Tempo 857142
100320 On ch=1 n=e6 v=92
100320 On ch=1 n=g5 v=69
100320 On ch=1 n=b5 v=69
100350 Tempo 882352
100382 Tempo 909090
100415 Tempo 937500
100447 Tempo 967741
100480 Tempo 1000000
100510 Tempo 1034482
100542 Tempo 1071428
100560 On ch=1 n=b5 v=0
100560 On ch=1 n=c#6 v=72
100575 Tempo 1111111
100607 Tempo 1153846
100640 Tempo 1200000
100670 Tempo 1250000
100702 Tempo 1304347
100735 Tempo 1363636
100767 Tempo 1428571
100800 On ch=1 n=c#6 v=0
100800 On ch=1 n=a4 v=0
100800 Tempo 1500000
100800 On ch=1 n=c#6 v=60
100800 On ch=1 n=d5 v=60
101200 On ch=1 n=c#6 v=0
101280 On ch=1 n=g5 v=0
101280 On ch=1 n=e6 v=0
101280 On ch=1 n=d6 v=75
101280 On ch=1 n=f#5 v=60
101640 On ch=1 n=d5 v=0
101680 On ch=1 n=f#5 v=0
101680 On ch=1 n=d6 v=0
103680 Meta Text "Hasche-Mann"
103680 Tempo 428571
103680 TimeSig 2/4 24 8
103680 On ch=1 n=b5 v=92
103680 On ch=1 n=f#5 v=75
103680 On ch=1 n=b3 v=75
103795 On ch=1 n=b3 v=0
103800 On ch=1 n=f#5 v=0
103800 On ch=1 n=d5 v=60
103915 On ch=1 n=d5 v=0
103920 On ch=1 n=b4 v=60
104000 On ch=1 n=b4 v=0
104040 On ch=1 n=f#4 v=60
104120 On ch=1 n=f#4 v=0
104160 On ch=1 n=b5 v=0
104160 On ch=1 n=c#6 v=60
104160 On ch=1 n=b3 v=60
104240 On ch=1 n=b3 v=0
104275 On ch=1 n=c#6 v=0
104280 On ch=1 n=d6 v=60
104360 On ch=1 n=d6 v=0
104400 On ch=1 n=e6 v=60
104400 On ch=1 n=f#4 v=60
104400 On ch=1 n=d5 v=60
104480 On ch=1 n=d5 v=0
104480 On ch=1 n=f#4 v=0
104480 On ch=1 n=e6 v=0
104520 On ch=1 n=f#6 v=60
104600 On ch=1 n=f#6 v=0
104640 On ch=1 n=a6 v=84
104640 On ch=1 n=e4 v=60
104720 On ch=1 n=e4 v=0
104720 On ch=1 n=a6 v=0
104760 On ch=1 n=g6 v=60
104840 On ch=1 n=g6 v=0
104880 On ch=1 n=f#6 v=60
104880 On ch=1 n=b4 v=60
104880 On ch=1 n=e5 v=60
104960 On ch=1 n=e5 v=0
104960 On ch=1 n=b4 v=0
104960 On ch=1 n=f#6 v=0
105000 On ch=1 n=e6 v=60
105080 On ch=1 n=e6 v=0
105120 On ch=1 n=g6 v=84
105120 On ch=1 n=b3 v=60
105200 On ch=1 n=b3 v=0
105200 On ch=1 n=g6 v=0
105240 On ch=1 n=f#6 v=60
105320 On ch=1 n=f#6 v=0
105360 On ch=1 n=e6 v=60
105360 On ch=1 n=b4 v=60
105360 On ch=1 n=d5 v=60
105440 On ch=1 n=d5 v=0
105440 On ch=1 n=b4 v=0
105440 On ch=1 n=e6 v=0
105480 On ch=1 n=d6 v=60
105560 On ch=1 n=d6 v=0
105600 On ch=1 n=e6 v=92
105600 On ch=1 n=b5 v=75
105600 On ch=1 n=e4 v=75
105715 On ch=1 n=e4 v=0
105720 On ch=1 n=b5 v=0
105720 On ch=1 n=g5 v=60
105835 On ch=1 n=g5 v=0
105840 On ch=1 n=e5 v=60
105920 On ch=1 n=e5 v=0
105960 On ch=1 n=b4 v=60
106040 On ch=1 n=b4 v=0
106080 On ch=1 n=e6 v=0
106080 On ch=1 n=f#6 v=60
106080 On ch=1 n=e4 v=45
106160 On ch=1 n=e4 v=0
106195 On ch=1 n=f#6 v=0
106200 On ch=1 n=g6 v=60
106280 On ch=1 n=g6 v=0
106320 On ch=1 n=a6 v=60
106320 On ch=1 n=e5 v=45
106320 On ch=1 n=g5 v=45
106400 On ch=1 n=g5 v=0
106400 On ch=1 n=e5 v=0
106400 On ch=1 n=a6 v=0
106440 On ch=1 n=b6 v=60
106520 On ch=1 n=b6 v=0
106560 On ch=1 n=d7 v=84
106560 On ch=1 n=f#4 v=45
106640 On ch=1 n=f#4 v=0
106640 On ch=1 n=d7 v=0
106680 On ch=1 n=c#7 v=60
106760 On ch=1 n=c#7 v=0
106800 On ch=1 n=b6 v=60
106800 On ch=1 n=e5 v=45
106800 On ch=1 n=a#5 v=45
106880 On ch=1 n=a#5 v=0
106880 On ch=1 n=e5 v=0
106880 On ch=1 n=b6 v=0
106920 On ch=1 n=a#6 v=60
107000 On ch=1 n=a#6 v=0
107040 On ch=1 n=f#6 v=60
107040 On ch=1 n=b6 v=60
107040 On ch=1 n=b4 v=45
107120 On ch=1 n=b4 v=0
107160 On ch=1 n=b6 v=0
107160 On ch=1 n=f#6 v=0
107160 On ch=1 n=d6 v=60
107275 On ch=1 n=d6 v=0
107280 On ch=1 n=b5 v=60
107360 On ch=1 n=b5 v=0
107400 On ch=1 n=f#5 v=60
107480 On ch=1 n=f#5 v=0
107520 On ch=1 n=b5 v=92
107520 On ch=1 n=f#5 v=75
107520 On ch=1 n=b3 v=75
107635 On ch=1 n=b3 v=0
107640 On ch=1 n=f#5 v=0
107640 On ch=1 n=d5 v=60
107755 On ch=1 n=d5 v=0
107760 On ch=1 n=b4 v=60
107840 On ch=1 n=b4 v=0
107880 On ch=1 n=f#4 v=60
107960 On ch=1 n=f#4 v=0
108000 On ch=1 n=b5 v=0
108000 On ch=1 n=c#6 v=60
108000 On ch=1 n=b3 v=45
108080 On ch=1 n=b3 v=0
108115 On ch=1 n=c#6 v=0
108120 On ch=1 n=d6 v=60
108200 On ch=1 n=d6 v=0
108240 On ch=1 n=e6 v=60
108240 On ch=1 n=f#4 v=45
108240 On ch=1 n=d5 v=45
108320 On ch=1 n=d5 v=0
108320 On ch=1 n=f#4 v=0
108320 On ch=1 n=e6 v=0
108360 On ch=1 n=f#6 v=60
108440 On ch=1 n=f#6 v=0
108480 On ch=1 n=a6 v=84
108480 On ch=1 n=e4 v=45
108560 On ch=1 n=e4 v=0
108560 On ch=1 n=a6 v=0
108600 On ch=1 n=g6 v=60
108680 On ch=1 n=g6 v=0
108720 On ch=1 n=f#6 v=60
108720 On ch=1 n=b4 v=45
108720 On ch=1 n=e5 v=45
108800 On ch=1 n=e5 v=0
108800 On ch=1 n=b4 v=0
108800 On ch=1 n=f#6 v=0
108840 On ch=1 n=e6 v=60
108920 On ch=1 n=e6 v=0
108960 On ch=1 n=g6 v=84
108960 On ch=1 n=b3 v=45
109040 On ch=1 n=b3 v=0
109040 On ch=1 n=g6 v=0
109080 On ch=1 n=f#6 v=60
109160 On ch=1 n=f#6 v=0
109200 On ch=1 n=e6 v=60
109200 On ch=1 n=b4 v=45
109200 On ch=1 n=d5 v=45
109280 On ch=1 n=d5 v=0
109280 On ch=1 n=b4 v=0
109280 On ch=1 n=e6 v=0
109320 On ch=1 n=d6 v=60
109400 On ch=1 n=d6 v=0
109440 On ch=1 n=e6 v=92
109440 On ch=1 n=b5 v=75
109440 On ch=1 n=e4 v=75
109555 On ch=1 n=e4 v=0
109560 On ch=1 n=b5 v=0
109560 On ch=1 n=g5 v=60
109675 On ch=1 n=g5 v=0
109680 On ch=1 n=e5 v=60
109760 On ch=1 n=e5 v=0
109800 On ch=1 n=b4 v=60
109880 On ch=1 n=b4 v=0
109920 On ch=1 n=e6 v=0
109920 On ch=1 n=f#6 v=60
109920 On ch=1 n=e4 v=45
110000 On ch=1 n=e4 v=0
110035 On ch=1 n=f#6 v=0
110040 On ch=1 n=g6 v=60
110120 On ch=1 n=g6 v=0
110160 On ch=1 n=a6 v=60
110160 On ch=1 n=e5 v=45
110160 On ch=1 n=g5 v=45
110240 On ch=1 n=g5 v=0
110240 On ch=1 n=e5 v=0
110240 On ch=1 n=a6 v=0
110280 On ch=1 n=b6 v=60
110360 On ch=1 n=b6 v=0
110400 On ch=1 n=d7 v=84
110400 On ch=1 n=f#4 v=45
110480 On ch=1 n=f#4 v=0
110480 On ch=1 n=d7 v=0
110520 On ch=1 n=c#7 v=60
110600 On ch=1 n=c#7 v=0
110640 On ch=1 n=b6 v=60
110640 On ch=1 n=e5 v=45
110640 On ch=1 n=a#5 v=45
110720 On ch=1 n=a#5 v=0
110720 On ch=1 n=e5 v=0
110720 On ch=1 n=b6 v=0
110760 On ch=1 n=a#6 v=60
110840 On ch=1 n=a#6 v=0
110880 On ch=1 n=f#6 v=60
110880 On ch=1 n=b6 v=60
110880 On ch=1 n=b4 v=45
110960 On ch=1 n=b4 v=0
111000 On ch=1 n=b6 v=0
111000 On ch=1 n=f#6 v=0
111000 On ch=1 n=d6 v=60
111115 On ch=1 n=d6 v=0
111120 On ch=1 n=b5 v=60
111200 On ch=1 n=b5 v=0
111240 On ch=1 n=f#5 v=60
111320 On ch=1 n=f#5 v=0
111360 On ch=1 n=g6 v=92
111360 On ch=1 n=d6 v=75
111360 On ch=1 n=b4 v=75
111475 On ch=1 n=b4 v=0
111480 On ch=1 n=d6 v=0
111480 On ch=1 n=b5 v=75
111595 On ch=1 n=b5 v=0
111600 On ch=1 n=g5 v=60
111680 On ch=1 n=g5 v=0
111720 On ch=1 n=d5 v=60
111800 On ch=1 n=d5 v=0
111840 On ch=1 n=g6 v=0
111840 On ch=1 n=a5 v=60
111840 On ch=1 n=b4 v=60
111920 On ch=1 n=b4 v=0
111955 On ch=1 n=a5 v=0
111960 On ch=1 n=b5 v=60
112040 On ch=1 n=b5 v=0
112080 On ch=1 n=c#6 v=60
112080 On ch=1 n=d5 v=60
112080 On ch=1 n=g5 v=60
112160 On ch=1 n=g5 v=0
112160 On ch=1 n=d5 v=0
112160 On ch=1 n=c#6 v=0
112200 On ch=1 n=d6 v=60
112280 On ch=1 n=d6 v=0
112320 On ch=1 n=f#6 v=60
112320 On ch=1 n=a4 v=60
112400 On ch=1 n=a4 v=0
112400 On ch=1 n=f#6 v=0
112440 On ch=1 n=e6 v=60
112520 On ch=1 n=e6 v=0
112560 On ch=1 n=d6 v=60
112560 On ch=1 n=c5 v=60
112560 On ch=1 n=g5 v=60
112640 On ch=1 n=g5 v=0
112640 On ch=1 n=c5 v=0
112640 On ch=1 n=d6 v=0
112680 On ch=1 n=c6 v=60
112760 On ch=1 n=c6 v=0
112800 On ch=1 n=b5 v=60
112800 On ch=1 n=d4 v=60
112880 On ch=1 n=d4 v=0
112880 On ch=1 n=b5 v=0
112920 On ch=1 n=a5 v=60
113000 On ch=1 n=a5 v=0
113040 On ch=1 n=g5 v=60
113040 On ch=1 n=c5 v=60
113120 On ch=1 n=c5 v=0
113120 On ch=1 n=g5 v=0
113160 On ch=1 n=f#5 v=60
113240 On ch=1 n=f#5 v=0
113280 On ch=1 n=g5 v=92
113280 On ch=1 n=e5 v=75
113400 On ch=1 n=e5 v=0
113400 On ch=1 n=b4 v=75
113515 On ch=1 n=b4 v=0
113520 On ch=1 n=g4 v=60
113600 On ch=1 n=g4 v=0
113640 On ch=1 n=e4 v=60
113720 On ch=1 n=e4 v=0
113760 On ch=1 n=g5 v=0
113760 On ch=1 n=f#5 v=60
113760 On ch=1 n=b3 v=60
113840 On ch=1 n=b3 v=0
113875 On ch=1 n=f#5 v=0
113880 On ch=1 n=g5 v=60
113960 On ch=1 n=g5 v=0
114000 On ch=1 n=a5 v=60
114000 On ch=1 n=g4 v=60
114000 On ch=1 n=b4 v=60
114080 On ch=1 n=b4 v=0
114080 On ch=1 n=g4 v=0
114080 On ch=1 n=a5 v=0
114120 On ch=1 n=b5 v=60
114200 On ch=1 n=b5 v=0
114240 On ch=1 n=d6 v=60
114240 On ch=1 n=a3 v=60
114320 On ch=1 n=a3 v=0
114320 On ch=1 n=d6 v=0
114360 On ch=1 n=c6 v=60
114440 On ch=1 n=c6 v=0
114480 On ch=1 n=b5 v=60
114480 On ch=1 n=f#4 v=60
114480 On ch=1 n=c5 v=60
114560 On ch=1 n=c5 v=0
114560 On ch=1 n=f#4 v=0
114560 On ch=1 n=b5 v=0
114600 On ch=1 n=a5 v=60
114680 On ch=1 n=a5 v=0
114720 On ch=1 n=g5 v=60
114720 On ch=1 n=b3 v=60
114800 On ch=1 n=b3 v=0
114800 On ch=1 n=g5 v=0
114840 On ch=1 n=f#5 v=60
114920 On ch=1 n=f#5 v=0
114960 On ch=1 n=e5 v=60
114960 On ch=1 n=f#4 v=60
114960 On ch=1 n=a4 v=60
115040 On ch=1 n=a4 v=0
115040 On ch=1 n=f#4 v=0
115040 On ch=1 n=e5 v=0
115080 On ch=1 n=d#5 v=60
115160 On ch=1 n=d#5 v=0
115200 On ch=1 n=e5 v=60
115200 On ch=1 n=c5 v=60
115320 On ch=1 n=c5 v=0
115320 On ch=1 n=g4 v=60
115435 On ch=1 n=g4 v=0
115440 On ch=1 n=e4 v=60
115520 On ch=1 n=e4 v=0
115560 On ch=1 n=c4 v=60
115640 On ch=1 n=c4 v=0
115680 On ch=1 n=e5 v=0
115680 On ch=1 n=d5 v=60
115680 On ch=1 n=c3 v=75
115680 On ch=1 n=g3 v=75
115800 On ch=1 n=e5 v=60
115915 On ch=1 n=d5 v=0
115920 On ch=1 n=e5 v=0
115920 On ch=1 n=f5 v=60
115920 On ch=1 n=b4 v=60
116040 On ch=1 n=f5 v=0
116040 On ch=1 n=g5 v=60
116155 On ch=1 n=g5 v=0
116155 On ch=1 n=b4 v=0
116160 On ch=1 n=e5 v=60
116160 On ch=1 n=c5 v=60
116280 On ch=1 n=c5 v=0
116280 On ch=1 n=g4 v=60
116395 On ch=1 n=g4 v=0
116400 On ch=1 n=e4 v=60
116480 On ch=1 n=e4 v=0
116520 On ch=1 n=c4 v=60
116560 On ch=1 n=g3 v=0
116560 On ch=1 n=c3 v=0
116600 On ch=1 n=c4 v=0
116640 On ch=1 n=e5 v=0
116640 On ch=1 n=f5 v=60
116640 On ch=1 n=c3 v=75
116640 On ch=1 n=g3 v=75
116760 On ch=1 n=g5 v=60
116875 On ch=1 n=f5 v=0
116880 On ch=1 n=g5 v=0
116880 On ch=1 n=a5 v=60
116880 On ch=1 n=d5 v=60
117000 On ch=1 n=a5 v=0
117000 On ch=1 n=b5 v=60
117115 On ch=1 n=b5 v=0
117115 On ch=1 n=d5 v=0
117120 On ch=1 n=c6 v=60
117120 On ch=1 n=g5 v=60
117240 On ch=1 n=g5 v=0
117240 On ch=1 n=e5 v=60
117355 On ch=1 n=e5 v=0
117355 On ch=1 n=g3 v=0
117355 On ch=1 n=c3 v=0
117360 On ch=1 n=c5 v=75
117440 On ch=1 n=c5 v=0
117480 On ch=1 n=g4 v=75
117520 On ch=1 n=c6 v=0
117560 On ch=1 n=g4 v=0
117600 On ch=1 n=a#5 v=84
117600 On ch=1 n=e6 v=84
117600 On ch=1 n=f#3 v=75
117600 On ch=1 n=f#4 v=75
117720 On ch=1 n=e5 v=60
117835 On ch=1 n=e5 v=0
117840 On ch=1 n=g#4 v=60
117955 On ch=1 n=g#4 v=0
117960 On ch=1 n=a4 v=60
118075 On ch=1 n=a4 v=0
118080 On ch=1 n=a#4 v=61
118195 On ch=1 n=a#4 v=0
118200 On ch=1 n=b4 v=62
118315 On ch=1 n=b4 v=0
118320 On ch=1 n=c5 v=63
118435 On ch=1 n=c5 v=0
118440 On ch=1 n=c#5 v=65
118555 On ch=1 n=c#5 v=0
118560 On ch=1 n=d5 v=67
118675 On ch=1 n=d5 v=0
118680 On ch=1 n=d#5 v=69
118795 On ch=1 n=d#5 v=0
118800 On ch=1 n=e5 v=71
118915 On ch=1 n=e5 v=0
118920 On ch=1 n=f#4 v=0
118920 On ch=1 n=f#3 v=0
118920 On ch=1 n=e6 v=0
118920 On ch=1 n=a#5 v=0
118920 On ch=1 n=f5 v=73
119035 On ch=1 n=f5 v=0
119040 On ch=1 n=b5 v=92
119040 On ch=1 n=f#5 v=75
119040 On ch=1 n=b3 v=75
119155 On ch=1 n=b3 v=0
119160 On ch=1 n=f#5 v=0
119160 On ch=1 n=d5 v=60
119275 On ch=1 n=d5 v=0
119280 On ch=1 n=b4 v=60
119360 On ch=1 n=b4 v=0
119400 On ch=1 n=f#4 v=60
119480 On ch=1 n=f#4 v=0
119520 On ch=1 n=b5 v=0
119520 On ch=1 n=c#6 v=60
119520 On ch=1 n=b3 v=60
119600 On ch=1 n=b3 v=0
119635 On ch=1 n=c#6 v=0
119640 On ch=1 n=d6 v=60
119720 On ch=1 n=d6 v=0
119760 On ch=1 n=e6 v=60
119760 On ch=1 n=f#4 v=60
119760 On ch=1 n=d5 v=60
119840 On ch=1 n=d5 v=0
119840 On ch=1 n=f#4 v=0
119840 On ch=1 n=e6 v=0
119880 On ch=1 n=f#6 v=60
119960 On ch=1 n=f#6 v=0
120000 On ch=1 n=a6 v=84
120000 On ch=1 n=e4 v=60
120080 On ch=1 n=e4 v=0
120080 On ch=1 n=a6 v=0
120120 On ch=1 n=g6 v=60
120200 On ch=1 n=g6 v=0
120240 On ch=1 n=f#6 v=60
120240 On ch=1 n=b4 v=60
120240 On ch=1 n=e5 v=60
120320 On ch=1 n=e5 v=0
120320 On ch=1 n=b4 v=0
120320 On ch=1 n=f#6 v=0
120360 On ch=1 n=e6 v=60
120440 On ch=1 n=e6 v=0
120480 On ch=1 n=g6 v=84
120480 On ch=1 n=b3 v=60
120560 On ch=1 n=b3 v=0
120560 On ch=1 n=g6 v=0
120600 On ch=1 n=f#6 v=60
120680 On ch=1 n=f#6 v=0
120720 On ch=1 n=e6 v=60
120720 On ch=1 n=b4 v=60
120720 On ch=1 n=d5 v=60
120800 On ch=1 n=d5 v=0
120800 On ch=1 n=b4 v=0
120800 On ch=1 n=e6 v=0
120840 On ch=1 n=d6 v=60
120920 On ch=1 n=d6 v=0
120960 On ch=1 n=e6 v=92
120960 On ch=1 n=b5 v=75
120960 On ch=1 n=e4 v=75
121075 On ch=1 n=e4 v=0
121080 On ch=1 n=b5 v=0
121080 On ch=1 n=g5 v=60
121195 On ch=1 n=g5 v=0
121200 On ch=1 n=e5 v=60
121280 On ch=1 n=e5 v=0
121320 On ch=1 n=b4 v=60
121400 On ch=1 n=b4 v=0
121440 On ch=1 n=e6 v=0
121440 On ch=1 n=f#6 v=60
121440 On ch=1 n=e4 v=45
121520 On ch=1 n=e4 v=0
121555 On ch=1 n=f#6 v=0
121560 On ch=1 n=g6 v=60
121640 On ch=1 n=g6 v=0
121680 On ch=1 n=a6 v=60
121680 On ch=1 n=e5 v=45
121680 On ch=1 n=g5 v=45
121760 On ch=1 n=g5 v=0
121760 On ch=1 n=e5 v=0
121760 On ch=1 n=a6 v=0
121800 On ch=1 n=b6 v=60
121880 On ch=1 n=b6 v=0
121920 On ch=1 n=d7 v=84
121920 On ch=1 n=f#4 v=45
122000 On ch=1 n=f#4 v=0
122000 On ch=1 n=d7 v=0
122040 On ch=1 n=c#7 v=60
122120 On ch=1 n=c#7 v=0
122160 On ch=1 n=b6 v=60
122160 On ch=1 n=e5 v=45
122160 On ch=1 n=a#5 v=45
122240 On ch=1 n=a#5 v=0
122240 On ch=1 n=e5 v=0
122240 On ch=1 n=b6 v=0
122280 On ch=1 n=a#6 v=60
122360 On ch=1 n=a#6 v=0
122400 On ch=1 n=f#6 v=60
122400 On ch=1 n=b6 v=60
122400 On ch=1 n=b4 v=45
122480 On ch=1 n=b4 v=0
122520 On ch=1 n=b6 v=0
122520 On ch=1 n=f#6 v=0
122520 On ch=1 n=d6 v=60
122635 On ch=1 n=d6 v=0
122640 On ch=1 n=b5 v=60
122720 On ch=1 n=b5 v=0
122760 On ch=1 n=f#5 v=60
122840 On ch=1 n=f#5 v=0
122880 On ch=1 n=g6 v=92
122880 On ch=1 n=d6 v=75
122880 On ch=1 n=b4 v=75
122995 On ch=1 n=b4 v=0
123000 On ch=1 n=d6 v=0
123000 On ch=1 n=b5 v=75
123115 On ch=1 n=b5 v=0
123120 On ch=1 n=g5 v=60
123200 On ch=1 n=g5 v=0
123240 On ch=1 n=d5 v=60
123320 On ch=1 n=d5 v=0
123360 On ch=1 n=g6 v=0
123360 On ch=1 n=a5 v=60
123360 On ch=1 n=b4 v=60
123440 On ch=1 n=b4 v=0
123475 On ch=1 n=a5 v=0
123480 On ch=1 n=b5 v=60
123560 On ch=1 n=b5 v=0
123600 On ch=1 n=c#6 v=60
123600 On ch=1 n=d5 v=60
123600 On ch=1 n=g5 v=60
123680 On ch=1 n=g5 v=0
123680 On ch=1 n=d5 v=0
123680 On ch=1 n=c#6 v=0
123720 On ch=1 n=d6 v=60
123800 On ch=1 n=d6 v=0
123840 On ch=1 n=f#6 v=60
123840 On ch=1 n=a4 v=60
123920 On ch=1 n=a4 v=0
123920 On ch=1 n=f#6 v=0
123960 On ch=1 n=e6 v=60
124040 On ch=1 n=e6 v=0
124080 On ch=1 n=d6 v=60
124080 On ch=1 n=c5 v=60
124080 On ch=1 n=g5 v=60
124160 On ch=1 n=g5 v=0
124160 On ch=1 n=c5 v=0
124160 On ch=1 n=d6 v=0
124200 On ch=1 n=c6 v=60
124280 On ch=1 n=c6 v=0
124320 On ch=1 n=b5 v=60
124320 On ch=1 n=d4 v=60
124400 On ch=1 n=d4 v=0
124400 On ch=1 n=b5 v=0
124440 On ch=1 n=a5 v=60
124520 On ch=1 n=a5 v=0
124560 On ch=1 n=g5 v=60
124560 On ch=1 n=c5 v=60
124640 On ch=1 n=c5 v=0
124640 On ch=1 n=g5 v=0
124680 On ch=1 n=f#5 v=60
124760 On ch=1 n=f#5 v=0
124800 On ch=1 n=g5 v=92
124800 On ch=1 n=e5 v=75
124920 On ch=1 n=e5 v=0
124920 On ch=1 n=b4 v=75
125035 On ch=1 n=b4 v=0
125040 On ch=1 n=g4 v=60
125120 On ch=1 n=g4 v=0
125160 On ch=1 n=e4 v=60
125240 On ch=1 n=e4 v=0
125280 On ch=1 n=g5 v=0
125280 On ch=1 n=f#5 v=60
125280 On ch=1 n=b3 v=60
125360 On ch=1 n=b3 v=0
125395 On ch=1 n=f#5 v=0
125400 On ch=1 n=g5 v=60
125480 On ch=1 n=g5 v=0
125520 On ch=1 n=a5 v=60
125520 On ch=1 n=b4 v=60
125520 On ch=1 n=g4 v=60
125600 On ch=1 n=g4 v=0
125600 On ch=1 n=b4 v=0
125600 On ch=1 n=a5 v=0
125640 On ch=1 n=b5 v=60
125720 On ch=1 n=b5 v=0
125760 On ch=1 n=d6 v=60
125760 On ch=1 n=a3 v=60
125840 On ch=1 n=a3 v=0
125840 On ch=1 n=d6 v=0
125880 On ch=1 n=c6 v=60
125960 On ch=1 n=c6 v=0
126000 On ch=1 n=b5 v=60
126000 On ch=1 n=f#4 v=60
126000 On ch=1 n=c5 v=60
126080 On ch=1 n=c5 v=0
126080 On ch=1 n=f#4 v=0
126080 On ch=1 n=b5 v=0
126120 On ch=1 n=a5 v=60
126200 On ch=1 n=a5 v=0
126240 On ch=1 n=g5 v=60
126240 On ch=1 n=b3 v=60
126320 On ch=1 n=b3 v=0
126320 On ch=1 n=g5 v=0
126360 On ch=1 n=f#5 v=60
126440 On ch=1 n=f#5 v=0
126480 On ch=1 n=e5 v=60
126480 On ch=1 n=f#4 v=60
126480 On ch=1 n=a4 v=60
126560 On ch=1 n=a4 v=0
126560 On ch=1 n=f#4 v=0
126560 On ch=1 n=e5 v=0
126600 On ch=1 n=d#5 v=60
126680 On ch=1 n=d#5 v=0
126720 On ch=1 n=e5 v=60
126720 On ch=1 n=c5 v=60
126840 On ch=1 n=c5 v=0
126840 On ch=1 n=g4 v=60
126955 On ch=1 n=g4 v=0
126960 On ch=1 n=e4 v=60
127040 On ch=1 n=e4 v=0
127080 On ch=1 n=c4 v=60
127160 On ch=1 n=c4 v=0
127200 On ch=1 n=e5 v=0
127200 On ch=1 n=d5 v=60
127200 On ch=1 n=c3 v=75
127200 On ch=1 n=g3 v=75
127320 On ch=1 n=e5 v=60
127435 On ch=1 n=d5 v=0
127440 On ch=1 n=e5 v=0
127440 On ch=1 n=f5 v=60
127440 On ch=1 n=b4 v=60
127560 On ch=1 n=f5 v=0
127560 On ch=1 n=g5 v=60
127675 On ch=1 n=g5 v=0
127675 On ch=1 n=b4 v=0
127680 On ch=1 n=e5 v=60
127680 On ch=1 n=c5 v=60
127800 On ch=1 n=c5 v=0
127800 On ch=1 n=g4 v=60
127915 On ch=1 n=g4 v=0
127920 On ch=1 n=e4 v=60
128000 On ch=1 n=e4 v=0
128040 On ch=1 n=c4 v=60
128080 On ch=1 n=g3 v=0
128080 On ch=1 n=c3 v=0
128120 On ch=1 n=c4 v=0
128160 On ch=1 n=e5 v=0
128160 On ch=1 n=f5 v=60
128160 On ch=1 n=c3 v=75
128160 On ch=1 n=g3 v=75
128280 On ch=1 n=g5 v=60
128395 On ch=1 n=f5 v=0
128400 On ch=1 n=g5 v=0
128400 On ch=1 n=a5 v=60
128400 On ch=1 n=d5 v=60
128520 On ch=1 n=a5 v=0
128520 On ch=1 n=b5 v=60
128635 On ch=1 n=b5 v=0
128635 On ch=1 n=d5 v=0
128640 On ch=1 n=c6 v=60
128640 On ch=1 n=g5 v=60
128760 On ch=1 n=g5 v=0
128760 On ch=1 n=e5 v=60
128875 On ch=1 n=e5 v=0
128875 On ch=1 n=g3 v=0
128875 On ch=1 n=c3 v=0
128880 On ch=1 n=c5 v=75
128960 On ch=1 n=c5 v=0
129000 On ch=1 n=g4 v=75
129040 On ch=1 n=c6 v=0
129080 On ch=1 n=g4 v=0
129120 On ch=1 n=a#5 v=84
129120 On ch=1 n=e6 v=84
129120 On ch=1 n=f#3 v=75
129120 On ch=1 n=f#4 v=75
129240 On ch=1 n=e5 v=60
129355 On ch=1 n=e5 v=0
129360 On ch=1 n=g#4 v=60
129475 On ch=1 n=g#4 v=0
129480 On ch=1 n=a4 v=60
129595 On ch=1 n=a4 v=0
129600 On ch=1 n=a#4 v=61
129715 On ch=1 n=a#4 v=0
129720 On ch=1 n=b4 v=62
129835 On ch=1 n=b4 v=0
129840 On ch=1 n=c5 v=63
129955 On ch=1 n=c5 v=0
129960 On ch=1 n=c#5 v=65
130075 On ch=1 n=c#5 v=0
130080 On ch=1 n=d5 v=67
130195 On ch=1 n=d5 v=0
130200 On ch=1 n=d#5 v=69
130315 On ch=1 n=d#5 v=0
130320 On ch=1 n=e5 v=71
130435 On ch=1 n=e5 v=0
130440 On ch=1 n=f#4 v=0
130440 On ch=1 n=f#3 v=0
130440 On ch=1 n=e6 v=0
130440 On ch=1 n=a#5 v=0
130440 On ch=1 n=f5 v=73
130555 On ch=1 n=f5 v=0
130560 On ch=1 n=b5 v=92
130560 On ch=1 n=f#5 v=75
130560 On ch=1 n=b3 v=75
130675 On ch=1 n=b3 v=0
130680 On ch=1 n=f#5 v=0
130680 On ch=1 n=d5 v=60
130795 On ch=1 n=d5 v=0
130800 On ch=1 n=b4 v=60
130880 On ch=1 n=b4 v=0
130920 On ch=1 n=f#4 v=60
131000 On ch=1 n=f#4 v=0
131040 On ch=1 n=b5 v=0
131040 On ch=1 n=c#6 v=60
131040 On ch=1 n=b3 v=60
131120 On ch=1 n=b3 v=0
131155 On ch=1 n=c#6 v=0
131160 On ch=1 n=d6 v=60
131240 On ch=1 n=d6 v=0
131280 On ch=1 n=e6 v=60
131280 On ch=1 n=f#4 v=60
131280 On ch=1 n=d5 v=60
131360 On ch=1 n=d5 v=0
131360 On ch=1 n=f#4 v=0
131360 On ch=1 n=e6 v=0
131400 On ch=1 n=f#6 v=60
131480 On ch=1 n=f#6 v=0
131520 On ch=1 n=a6 v=84
131520 On ch=1 n=e4 v=60
131600 On ch=1 n=e4 v=0
131600 On ch=1 n=a6 v=0
131640 On ch=1 n=g6 v=60
131720 On ch=1 n=g6 v=0
131760 On ch=1 n=f#6 v=60
131760 On ch=1 n=b4 v=60
131760 On ch=1 n=e5 v=60
131840 On ch=1 n=e5 v=0
131840 On ch=1 n=b4 v=0
131840 On ch=1 n=f#6 v=0
131880 On ch=1 n=e6 v=60
131960 On ch=1 n=e6 v=0
132000 On ch=1 n=g6 v=84
132000 On ch=1 n=b3 v=60
132080 On ch=1 n=b3 v=0
132080 On ch=1 n=g6 v=0
132120 On ch=1 n=f#6 v=60
132200 On ch=1 n=f#6 v=0
132240 On ch=1 n=e6 v=60
132240 On ch=1 n=b4 v=60
132240 On ch=1 n=d5 v=60
132320 On ch=1 n=d5 v=0
132320 On ch=1 n=b4 v=0
132320 On ch=1 n=e6 v=0
132360 On ch=1 n=d6 v=60
132440 On ch=1 n=d6 v=0
132480 On ch=1 n=e6 v=92
132480 On ch=1 n=b5 v=75
132480 On ch=1 n=e4 v=75
132595 On ch=1 n=e4 v=0
132600 On ch=1 n=b5 v=0
132600 On ch=1 n=g5 v=60
132715 On ch=1 n=g5 v=0
132720 On ch=1 n=e5 v=60
132800 On ch=1 n=e5 v=0
132840 On ch=1 n=b4 v=60
132920 On ch=1 n=b4 v=0
132960 On ch=1 n=e6 v=0
132960 On ch=1 n=f#6 v=60
132960 On ch=1 n=e4 v=45
133040 On ch=1 n=e4 v=0
133075 On ch=1 n=f#6 v=0
133080 On ch=1 n=g6 v=60
133160 On ch=1 n=g6 v=0
133200 On ch=1 n=a6 v=60
133200 On ch=1 n=e5 v=45
133200 On ch=1 n=g5 v=45
133280 On ch=1 n=g5 v=0
133280 On ch=1 n=e5 v=0
133280 On ch=1 n=a6 v=0
133320 On ch=1 n=b6 v=60
133400 On ch=1 n=b6 v=0
133440 Tempo 428571
133440 On ch=1 n=d7 v=84
133440 On ch=1 n=f#4 v=45
133455 Tempo 434782
133470 Tempo 441176
133487 Tempo 447761
133502 Tempo 454545
133520 On ch=1 n=f#4 v=0
133520 On ch=1 n=d7 v=0
133520 Tempo 461538
133535 Tempo 468750
133550 Tempo 476190
133560 On ch=1 n=c#7 v=60
133567 Tempo 483870
133582 Tempo 491803
133600 Tempo 500000
133615 Tempo 508474
133630 Tempo 517241
133640 On ch=1 n=c#7 v=0
133647 Tempo 526315
133662 Tempo 535714
133680 Tempo 545454
133680 On ch=1 n=b6 v=60
133680 On ch=1 n=e5 v=45
133680 On ch=1 n=a#5 v=45
133695 Tempo 555555
133710 Tempo 566037
133727 Tempo 576923
133742 Tempo 588235
133760 On ch=1 n=a#5 v=0
133760 On ch=1 n=e5 v=0
133760 On ch=1 n=b6 v=0
133760 Tempo 600000
133775 Tempo 612244
133790 Tempo 625000
133800 On ch=1 n=a#6 v=60
133807 Tempo 638297
133822 Tempo 652173
133840 Tempo 666666
133855 Tempo 681818
133870 Tempo 697674
133880 On ch=1 n=a#6 v=0
133887 Tempo 714285
133902 Tempo 731707
133920 Tempo 750000
133920 On ch=1 n=b6 v=60
133920 On ch=1 n=b4 v=45
133920 On ch=1 n=d5 v=45
133920 On ch=1 n=b5 v=45
134320 On ch=1 n=b5 v=0
134320 On ch=1 n=d5 v=0
134320 On ch=1 n=b4 v=0
134320 On ch=1 n=b6 v=0
135360 Meta Text "Bittendes Kind"
135360 Tempo 1200000
135360 Par ch=1 c=64 v=127
135360 On ch=1 n=b5 v=60
135360 On ch=1 n=g5 v=45
135360 On ch=1 n=a4 v=45
135475 On ch=1 n=g5 v=0
135480 On ch=1 n=e5 v=45
135595 On ch=1 n=e5 v=0
135595 On ch=1 n=a4 v=0
135600 On ch=1 n=b5 v=0
135600 On ch=1 n=g6 v=60
135600 On ch=1 n=b5 v=45
135715 On ch=1 n=b5 v=0
135720 On ch=1 n=g5 v=45
135780 Par ch=1 c=64 v=0
135835 On ch=1 n=g5 v=0
135840 On ch=1 n=g6 v=0
135840 Par ch=1 c=64 v=127
135840 On ch=1 n=f#6 v=60
135840 On ch=1 n=a#5 v=45
135840 On ch=1 n=c#5 v=45
135955 On ch=1 n=a#5 v=0
135960 On ch=1 n=g5 v=45
136075 On ch=1 n=g5 v=0
136075 On ch=1 n=c#5 v=0
136080 On ch=1 n=f#6 v=0
136080 On ch=1 n=e6 v=60
136080 On ch=1 n=a5 v=45
136195 On ch=1 n=a5 v=0
136200 On ch=1 n=g5 v=45
136260 Par ch=1 c=64 v=0
136315 On ch=1 n=g5 v=0
136320 On ch=1 n=e6 v=0
136320 Par ch=1 c=64 v=127
136320 On ch=1 n=d6 v=60
136320 On ch=1 n=a5 v=45
136320 On ch=1 n=d5 v=45
136435 On ch=1 n=a5 v=0
136440 On ch=1 n=f#5 v=45
136555 On ch=1 n=f#5 v=0
136555 On ch=1 n=d5 v=0
136560 On ch=1 n=d6 v=0
136560 On ch=1 n=g#5 v=60
136560 On ch=1 n=b5 v=60
136560 On ch=1 n=f5 v=45
136675 On ch=1 n=f5 v=0
136680 On ch=1 n=d5 v=45
136740 Par ch=1 c=64 v=0
136795 On ch=1 n=d5 v=0
136800 On ch=1 n=b5 v=0
136800 On ch=1 n=g#5 v=0
136800 Par ch=1 c=64 v=127
136800 On ch=1 n=a5 v=60
136800 On ch=1 n=c#6 v=60
136800 On ch=1 n=a4 v=45
136920 On ch=1 n=e5 v=45
137035 On ch=1 n=e5 v=0
137035 On ch=1 n=a4 v=0
137040 On ch=1 n=c#5 v=45
137155 On ch=1 n=c#5 v=0
137160 On ch=1 n=a4 v=45
137200 On ch=1 n=c#6 v=0
137200 On ch=1 n=a5 v=0
137220 Par ch=1 c=64 v=0
137275 On ch=1 n=a4 v=0
137280 Par ch=1 c=64 v=127
137280 On ch=1 n=b5 v=45
137280 On ch=1 n=g5 v=30
137280 On ch=1 n=a3 v=30
137395 On ch=1 n=g5 v=0
137400 On ch=1 n=e5 v=30
137515 On ch=1 n=e5 v=0
137515 On ch=1 n=a3 v=0
137520 On ch=1 n=b5 v=0
137520 On ch=1 n=g6 v=45
137520 On ch=1 n=b5 v=30
137635 On ch=1 n=b5 v=0
137640 On ch=1 n=g5 v=30
137700 Par ch=1 c=64 v=0
137755 On ch=1 n=g5 v=0
137760 On ch=1 n=g6 v=0
137760 Par ch=1 c=64 v=127
137760 On ch=1 n=f#6 v=45
137760 On ch=1 n=a#5 v=30
137760 On ch=1 n=c#5 v=30
137875 On ch=1 n=a#5 v=0
137880 On ch=1 n=g5 v=30
137995 On ch=1 n=g5 v=0
137995 On ch=1 n=c#5 v=0
138000 On ch=1 n=f#6 v=0
138000 On ch=1 n=e6 v=45
138000 On ch=1 n=a5 v=30
138115 On ch=1 n=a5 v=0
138120 On ch=1 n=g5 v=30
138180 Par ch=1 c=64 v=0
138235 On ch=1 n=g5 v=0
138240 On ch=1 n=e6 v=0
138240 Par ch=1 c=64 v=127
138240 On ch=1 n=d6 v=45
138240 On ch=1 n=a5 v=30
138240 On ch=1 n=d5 v=30
138355 On ch=1 n=a5 v=0
138360 On ch=1 n=f#5 v=30
138475 On ch=1 n=f#5 v=0
138475 On ch=1 n=d5 v=0
138480 On ch=1 n=d6 v=0
138480 On ch=1 n=g#5 v=45
138480 On ch=1 n=b5 v=45
138480 On ch=1 n=f5 v=30
138595 On ch=1 n=f5 v=0
138600 On ch=1 n=d5 v=30
138660 Par ch=1 c=64 v=0
138715 On ch=1 n=d5 v=0
138720 On ch=1 n=b5 v=0
138720 On ch=1 n=g#5 v=0
138720 Par ch=1 c=64 v=127
138720 On ch=1 n=a5 v=45
138720 On ch=1 n=c#6 v=45
138720 On ch=1 n=a4 v=30
138840 On ch=1 n=e5 v=30
138955 On ch=1 n=e5 v=0
138955 On ch=1 n=a4 v=0
138960 On ch=1 n=c#5 v=30
139075 On ch=1 n=c#5 v=0
139080 On ch=1 n=a4 v=30
139120 On ch=1 n=c#6 v=0
139120 On ch=1 n=a5 v=0
139140 Par ch=1 c=64 v=0
139195 On ch=1 n=a4 v=0
139200 Par ch=1 c=64 v=127
139200 On ch=1 n=c6 v=60
139200 On ch=1 n=a5 v=45
139200 On ch=1 n=d4 v=45
139315 On ch=1 n=a5 v=0
139320 On ch=1 n=e5 v=45
139435 On ch=1 n=e5 v=0
139440 On ch=1 n=c6 v=0
139440 On ch=1 n=a5 v=60
139440 On ch=1 n=f#5 v=45
139555 On ch=1 n=f#5 v=0
139560 On ch=1 n=d#5 v=45
139600 On ch=1 n=d4 v=0
139620 Par ch=1 c=64 v=0
139675 On ch=1 n=d#5 v=0
139680 On ch=1 n=a5 v=0
139680 Par ch=1 c=64 v=127
139680 On ch=1 n=b5 v=60
139680 On ch=1 n=g5 v=45
139680 On ch=1 n=d4 v=45
139795 On ch=1 n=g5 v=0
139800 On ch=1 n=d5 v=45
139915 On ch=1 n=d5 v=0
139920 On ch=1 n=b5 v=0
139920 On ch=1 n=f#5 v=60
139920 On ch=1 n=d#5 v=45
140035 On ch=1 n=d#5 v=0
140040 On ch=1 n=c5 v=45
140080 On ch=1 n=d4 v=0
140100 Par ch=1 c=64 v=0
140155 On ch=1 n=c5 v=0
140160 On ch=1 n=f#5 v=0
140160 Par ch=1 c=64 v=127
140160 On ch=1 n=g5 v=60
140160 On ch=1 n=d5 v=45
140160 On ch=1 n=d4 v=45
140275 On ch=1 n=d5 v=0
140280 On ch=1 n=b4 v=45
140395 On ch=1 n=b4 v=0
140400 On ch=1 n=g5 v=0
140400 On ch=1 n=e5 v=60
140400 On ch=1 n=c#5 v=45
140515 On ch=1 n=c#5 v=0
140520 On ch=1 n=a#4 v=45
140560 On ch=1 n=d4 v=0
140580 Par ch=1 c=64 v=0
140635 On ch=1 n=a#4 v=0
140640 On ch=1 n=e5 v=0
140640 Par ch=1 c=64 v=127
140640 On ch=1 n=d5 v=60
140640 On ch=1 n=f#5 v=60
140640 On ch=1 n=d4 v=45
140760 On ch=1 n=a4 v=45
140875 On ch=1 n=a4 v=0
140880 On ch=1 n=f#4 v=45
140995 On ch=1 n=f#4 v=0
141000 On ch=1 n=d4 v=45
141040 On ch=1 n=d4 v=0
141040 On ch=1 n=f#5 v=0
141040 On ch=1 n=d5 v=0
141060 Par ch=1 c=64 v=0
141115 On ch=1 n=d4 v=0
141120 Par ch=1 c=64 v=127
141120 On ch=1 n=c6 v=45
141120 On ch=1 n=a5 v=30
141120 On ch=1 n=d3 v=30
141235 On ch=1 n=a5 v=0
141240 On ch=1 n=e5 v=30
141355 On ch=1 n=e5 v=0
141360 On ch=1 n=c6 v=0
141360 On ch=1 n=a5 v=45
141360 On ch=1 n=f#5 v=30
141475 On ch=1 n=f#5 v=0
141480 On ch=1 n=d#5 v=30
141520 On ch=1 n=d3 v=0
141540 Par ch=1 c=64 v=0
141595 On ch=1 n=d#5 v=0
141600 On ch=1 n=a5 v=0
141600 Par ch=1 c=64 v=127
141600 On ch=1 n=b5 v=45
141600 On ch=1 n=g5 v=30
141600 On ch=1 n=d4 v=30
141715 On ch=1 n=g5 v=0
141720 On ch=1 n=d5 v=30
141835 On ch=1 n=d5 v=0
141840 On ch=1 n=b5 v=0
141840 On ch=1 n=f#5 v=45
141840 On ch=1 n=d#5 v=30
141955 On ch=1 n=d#5 v=0
141960 On ch=1 n=c5 v=30
142000 On ch=1 n=d4 v=0
142020 Par ch=1 c=64 v=0
142075 On ch=1 n=c5 v=0
142080 On ch=1 n=f#5 v=0
142080 Par ch=1 c=64 v=127
142080 On ch=1 n=g5 v=45
142080 On ch=1 n=d5 v=30
142080 On ch=1 n=d4 v=30
142195 On ch=1 n=d5 v=0
142200 On ch=1 n=b4 v=30
142315 On ch=1 n=b4 v=0
142320 On ch=1 n=g5 v=0
142320 On ch=1 n=e5 v=45
142320 On ch=1 n=c#5 v=30
142435 On ch=1 n=c#5 v=0
142440 On ch=1 n=a#4 v=30
142480 On ch=1 n=d4 v=0
142500 Par ch=1 c=64 v=0
142555 On ch=1 n=a#4 v=0
142560 On ch=1 n=e5 v=0
142560 Par ch=1 c=64 v=127
142560 On ch=1 n=d5 v=45
142560 On ch=1 n=f#5 v=45
142560 On ch=1 n=d4 v=30
142680 On ch=1 n=a4 v=30
142795 On ch=1 n=a4 v=0
142800 On ch=1 n=f#4 v=30
142915 On ch=1 n=f#4 v=0
142920 On ch=1 n=d4 v=30
142960 On ch=1 n=d4 v=0
142960 On ch=1 n=f#5 v=0
142960 On ch=1 n=d5 v=0
142980 Par ch=1 c=64 v=0
143035 On ch=1 n=d4 v=0
143040 Tempo 1200000
143040 Par ch=1 c=64 v=127
143040 On ch=1 n=f#5 v=60
143040 On ch=1 n=d5 v=45
143040 On ch=1 n=b3 v=45
143155 On ch=1 n=d5 v=0
143160 On ch=1 n=b4 v=45
143230 Tempo 1250000
143275 On ch=1 n=b4 v=0
143275 On ch=1 n=f#5 v=0
143280 On ch=1 n=g#5 v=60
143280 On ch=1 n=a4 v=45
143395 On ch=1 n=a4 v=0
143400 On ch=1 n=g#4 v=45
143422 Tempo 1304347
143440 On ch=1 n=b3 v=0
143460 Par ch=1 c=64 v=0
143515 On ch=1 n=g#4 v=0
143515 On ch=1 n=g#5 v=0
143520 Par ch=1 c=64 v=127
143520 On ch=1 n=a5 v=60
143520 On ch=1 n=f#4 v=45
143520 On ch=1 n=c#4 v=45
143615 Tempo 1363636
143635 On ch=1 n=f#4 v=0
143640 On ch=1 n=e4 v=45
143755 On ch=1 n=e4 v=0
143755 On ch=1 n=c#4 v=0
143755 On ch=1 n=a5 v=0
143760 On ch=1 n=b5 v=60
143760 On ch=1 n=d4 v=45
143807 Tempo 1428571
143880 On ch=1 n=f#5 v=45
143940 Par ch=1 c=64 v=0
143995 On ch=1 n=f#5 v=0
143995 On ch=1 n=d4 v=0
143995 On ch=1 n=b5 v=0
144000 Tempo 1500000
144000 Par ch=1 c=64 v=127
144000 On ch=1 n=c#6 v=60
144000 On ch=1 n=e4 v=45
144120 On ch=1 n=e5 v=45
144190 Tempo 1578947
144235 On ch=1 n=e5 v=0
144235 On ch=1 n=c#6 v=0
144240 On ch=1 n=g#5 v=60
144240 On ch=1 n=b5 v=60
144240 On ch=1 n=d#5 v=45
144355 On ch=1 n=d#5 v=0
144360 On ch=1 n=d5 v=45
144382 Tempo 1666666
144400 On ch=1 n=e4 v=0
144420 Par ch=1 c=64 v=0
144475 On ch=1 n=d5 v=0
144475 On ch=1 n=b5 v=0
144475 On ch=1 n=g#5 v=0
144480 Par ch=1 c=64 v=127
144480 On ch=1 n=a5 v=60
144480 On ch=1 n=a4 v=45
144575 Tempo 1764705
144600 On ch=1 n=c#5 v=45
144715 On ch=1 n=c#5 v=0
144720 On ch=1 n=e4 v=45
144767 Tempo 1875000
144835 On ch=1 n=e4 v=0
144840 On ch=1 n=c#4 v=45
144880 On ch=1 n=a4 v=0
144880 On ch=1 n=a5 v=0
144900 Par ch=1 c=64 v=0
144955 On ch=1 n=c#4 v=0
144960 Tempo 2000000
144960 Tempo 1200000
144960 Par ch=1 c=64 v=127
144960 On ch=1 n=f#5 v=45
144960 On ch=1 n=d5 v=30
144960 On ch=1 n=b3 v=30
145075 On ch=1 n=d5 v=0
145080 On ch=1 n=b4 v=30
145150 Tempo 1250000
145195 On ch=1 n=b4 v=0
145195 On ch=1 n=f#5 v=0
145200 On ch=1 n=g#5 v=45
145200 On ch=1 n=a4 v=30
145315 On ch=1 n=a4 v=0
145320 On ch=1 n=g#4 v=30
145342 Tempo 1304347
145360 On ch=1 n=b3 v=0
145380 Par ch=1 c=64 v=0
145435 On ch=1 n=g#4 v=0
145435 On ch=1 n=g#5 v=0
145440 Par ch=1 c=64 v=127
145440 On ch=1 n=a5 v=45
145440 On ch=1 n=f#4 v=30
145440 On ch=1 n=c#4 v=30
145535 Tempo 1363636
145555 On ch=1 n=f#4 v=0
145560 On ch=1 n=e4 v=30
145675 On ch=1 n=e4 v=0
145675 On ch=1 n=c#4 v=0
145675 On ch=1 n=a5 v=0
145680 On ch=1 n=b5 v=45
145680 On ch=1 n=d4 v=30
145727 Tempo 1428571
145800 On ch=1 n=f#5 v=30
145860 Par ch=1 c=64 v=0
145915 On ch=1 n=f#5 v=0
145915 On ch=1 n=d4 v=0
145915 On ch=1 n=b5 v=0
145920 Tempo 1500000
145920 Par ch=1 c=64 v=127
145920 On ch=1 n=c#6 v=45
145920 On ch=1 n=e4 v=30
146040 On ch=1 n=e5 v=30
146110 Tempo 1578947
146155 On ch=1 n=e5 v=0
146155 On ch=1 n=c#6 v=0
146160 On ch=1 n=g#5 v=45
146160 On ch=1 n=b5 v=45
146160 On ch=1 n=d#5 v=30
146275 On ch=1 n=d#5 v=0
146280 On ch=1 n=d5 v=30
146302 Tempo 1666666
146320 On ch=1 n=e4 v=0
146340 Par ch=1 c=64 v=0
146395 On ch=1 n=d5 v=0
146395 On ch=1 n=b5 v=0
146395 On ch=1 n=g#5 v=0
146400 Par ch=1 c=64 v=127
146400 On ch=1 n=a5 v=45
146400 On ch=1 n=a4 v=30
146495 Tempo 1764705
146520 On ch=1 n=c#5 v=30
146635 On ch=1 n=c#5 v=0
146640 On ch=1 n=e4 v=30
146687 Tempo 1875000
146755 On ch=1 n=e4 v=0
146760 On ch=1 n=c#4 v=30
146800 On ch=1 n=a4 v=0
146800 On ch=1 n=a5 v=0
146820 Par ch=1 c=64 v=0
146875 On ch=1 n=c#4 v=0
146880 Tempo 2000000
146880 Tempo 1200000
146880 Par ch=1 c=64 v=127
146880 On ch=1 n=b5 v=60
146880 On ch=1 n=g5 v=45
146880 On ch=1 n=a3 v=45
146995 On ch=1 n=g5 v=0
147000 On ch=1 n=e5 v=45
147115 On ch=1 n=e5 v=0
147115 On ch=1 n=a3 v=0
147115 On ch=1 n=b5 v=0
147120 On ch=1 n=g6 v=60
147120 On ch=1 n=b5 v=45
147235 On ch=1 n=b5 v=0
147240 On ch=1 n=g5 v=45
147300 Par ch=1 c=64 v=0
147355 On ch=1 n=g5 v=0
147355 On ch=1 n=g6 v=0
147360 Par ch=1 c=64 v=127
147360 On ch=1 n=f#6 v=60
147360 On ch=1 n=a#5 v=45
147360 On ch=1 n=c#5 v=45
147475 On ch=1 n=a#5 v=0
147480 On ch=1 n=g5 v=45
147595 On ch=1 n=g5 v=0
147595 On ch=1 n=c#5 v=0
147595 On ch=1 n=f#6 v=0
147600 On ch=1 n=e6 v=60
147600 On ch=1 n=a5 v=45
147715 On ch=1 n=a5 v=0
147720 On ch=1 n=g5 v=45
147780 Par ch=1 c=64 v=0
147835 On ch=1 n=g5 v=0
147835 On ch=1 n=e6 v=0
147840 Par ch=1 c=64 v=127
147840 On ch=1 n=d6 v=60
147840 On ch=1 n=a5 v=45
147840 On ch=1 n=d5 v=45
147955 On ch=1 n=a5 v=0
147960 On ch=1 n=f#5 v=45
148075 On ch=1 n=f#5 v=0
148075 On ch=1 n=d5 v=0
148075 On ch=1 n=d6 v=0
148080 On ch=1 n=g#5 v=60
148080 On ch=1 n=b5 v=60
148080 On ch=1 n=f5 v=45
148195 On ch=1 n=f5 v=0
148200 On ch=1 n=d5 v=45
148260 Par ch=1 c=64 v=0
148315 On ch=1 n=d5 v=0
148315 On ch=1 n=b5 v=0
148315 On ch=1 n=g#5 v=0
148320 Par ch=1 c=64 v=127
148320 On ch=1 n=a5 v=60
148320 On ch=1 n=c#6 v=60
148320 On ch=1 n=a4 v=45
148440 On ch=1 n=e5 v=45
148555 On ch=1 n=e5 v=0
148555 On ch=1 n=a4 v=0
148560 On ch=1 n=c#5 v=45
148675 On ch=1 n=c#5 v=0
148680 On ch=1 n=a4 v=45
148720 On ch=1 n=c#6 v=0
148720 On ch=1 n=a5 v=0
148740 Par ch=1 c=64 v=0
148795 On ch=1 n=a4 v=0
148800 Tempo 1200000
148800 Par ch=1 c=64 v=127
148800 On ch=1 n=b5 v=45
148800 On ch=1 n=g5 v=30
148800 On ch=1 n=a3 v=30
148915 On ch=1 n=g5 v=0
148920 On ch=1 n=e5 v=30
148990 Tempo 1250000
149035 On ch=1 n=e5 v=0
149035 On ch=1 n=a3 v=0
149035 On ch=1 n=b5 v=0
149040 On ch=1 n=g6 v=45
149040 On ch=1 n=b5 v=30
149155 On ch=1 n=b5 v=0
149160 On ch=1 n=g5 v=30
149182 Tempo 1304347
149220 Par ch=1 c=64 v=0
149275 On ch=1 n=g5 v=0
149275 On ch=1 n=g6 v=0
149280 Par ch=1 c=64 v=127
149280 On ch=1 n=f#6 v=45
149280 On ch=1 n=a#5 v=30
149280 On ch=1 n=c#5 v=30
149375 Tempo 1363636
149395 On ch=1 n=a#5 v=0
149400 On ch=1 n=g5 v=30
149515 On ch=1 n=g5 v=0
149515 On ch=1 n=c#5 v=0
149515 On ch=1 n=f#6 v=0
149520 On ch=1 n=e6 v=45
149520 On ch=1 n=a5 v=30
149567 Tempo 1428571
149635 On ch=1 n=a5 v=0
149640 On ch=1 n=g5 v=30
149700 Par ch=1 c=64 v=0
149755 On ch=1 n=g5 v=0
149755 On ch=1 n=e6 v=0
149760 Tempo 1500000
149760 Par ch=1 c=64 v=127
149760 On ch=1 n=d6 v=45
149760 On ch=1 n=a5 v=30
149760 On ch=1 n=d5 v=30
149875 On ch=1 n=a5 v=0
149880 On ch=1 n=f#5 v=30
149950 Tempo 1578947
149995 On ch=1 n=f#5 v=0
149995 On ch=1 n=d5 v=0
149995 On ch=1 n=d6 v=0
150000 On ch=1 n=g#5 v=45
150000 On ch=1 n=b5 v=45
150000 On ch=1 n=f5 v=30
150115 On ch=1 n=f5 v=0
150120 On ch=1 n=d5 v=30
150142 Tempo 1666666
150180 Par ch=1 c=64 v=0
150235 On ch=1 n=d5 v=0
150235 On ch=1 n=b5 v=0
150235 On ch=1 n=g#5 v=0
150240 Par ch=1 c=64 v=127
150240 On ch=1 n=a5 v=45
150240 On ch=1 n=c#6 v=45
150240 On ch=1 n=a4 v=30
150335 Tempo 1764705
150360 On ch=1 n=e5 v=30
150475 On ch=1 n=a4 v=0
150480 On ch=1 n=c#5 v=30
150527 Tempo 1875000
150600 On ch=1 n=a4 v=30
150660 Par ch=1 c=64 v=0
150720 Tempo 2000000
150720 Par ch=1 c=64 v=127
150720 On ch=1 n=g6 v=45
150720 On ch=1 n=a3 v=30
151120 On ch=1 n=a3 v=0
151120 On ch=1 n=g6 v=0
151120 On ch=1 n=a4 v=0
151120 On ch=1 n=c#5 v=0
151120 On ch=1 n=e5 v=0
151120 On ch=1 n=c#6 v=0
151120 On ch=1 n=a5 v=0
151620 Par ch=1 c=64 v=0
152640 Meta Text "Gl\xfffffffcckes genug"
152640 Tempo 1000000
153360 On ch=1 n=g#5 v=60
153480 On ch=1 n=e5 v=30
153480 On ch=1 n=g5 v=30
153595 On ch=1 n=g5 v=0
153595 On ch=1 n=e5 v=0
153595 On ch=1 n=g#5 v=0
153600 Par ch=1 c=64 v=127
153600 On ch=1 n=a5 v=60
153600 On ch=1 n=a2 v=45
153600 On ch=1 n=a3 v=45
153720 On ch=1 n=e5 v=30
153720 On ch=1 n=g5 v=30
153780 Par ch=1 c=64 v=0
153835 On ch=1 n=g5 v=0
153835 On ch=1 n=e5 v=0
153835 On ch=1 n=a3 v=0
153835 On ch=1 n=a2 v=0
153835 On ch=1 n=a5 v=0
153840 Par ch=1 c=64 v=127
153840 On ch=1 n=c#6 v=60
153960 On ch=1 n=g5 v=30
153960 On ch=1 n=a5 v=30
154020 Par ch=1 c=64 v=0
154075 On ch=1 n=a5 v=0
154075 On ch=1 n=g5 v=0
154075 On ch=1 n=c#6 v=0
154080 Par ch=1 c=64 v=127
154080 On ch=1 n=f#6 v=60
154200 On ch=1 n=g5 v=30
154200 On ch=1 n=a5 v=30
154260 Par ch=1 c=64 v=0
154315 On ch=1 n=a5 v=0
154315 On ch=1 n=g5 v=0
154315 On ch=1 n=f#6 v=0
154320 Par ch=1 c=64 v=127
154320 On ch=1 n=e6 v=60
154320 On ch=1 n=c#4 v=60
154440 On ch=1 n=g5 v=30
154440 On ch=1 n=a5 v=30
154500 Par ch=1 c=64 v=0
154555 On ch=1 n=a5 v=0
154555 On ch=1 n=g5 v=0
154555 On ch=1 n=c#4 v=0
154555 On ch=1 n=e6 v=0
154560 Par ch=1 c=64 v=127
154560 On ch=1 n=d6 v=60
154560 On ch=1 n=d4 v=60
154560 On ch=1 n=a3 v=45
154680 On ch=1 n=d5 v=30
154680 On ch=1 n=f#5 v=30
154740 Par ch=1 c=64 v=0
154795 On ch=1 n=f#5 v=0
154795 On ch=1 n=d5 v=0
154795 On ch=1 n=d4 v=0
154795 On ch=1 n=d6 v=0
154800 Par ch=1 c=64 v=127
154800 On ch=1 n=a5 v=60
154800 On ch=1 n=f#4 v=60
154920 On ch=1 n=d5 v=30
154920 On ch=1 n=f#5 v=30
154980 Par ch=1 c=64 v=0
155035 On ch=1 n=f#5 v=0
155035 On ch=1 n=d5 v=0
155035 On ch=1 n=f#4 v=0
155035 On ch=1 n=a5 v=0
155040 Par ch=1 c=64 v=127
155040 On ch=1 n=b4 v=60
155160 On ch=1 n=d5 v=30
155160 On ch=1 n=f#5 v=30
155220 Par ch=1 c=64 v=0
155275 On ch=1 n=f#5 v=0
155275 On ch=1 n=d5 v=0
155275 On ch=1 n=b4 v=0
155280 Par ch=1 c=64 v=127
155280 On ch=1 n=a5 v=60
155280 On ch=1 n=a4 v=60
155400 On ch=1 n=a3 v=0
155400 On ch=1 n=d5 v=30
155400 On ch=1 n=f#5 v=30
155460 Par ch=1 c=64 v=0
155515 On ch=1 n=f#5 v=0
155515 On ch=1 n=d5 v=0
155515 On ch=1 n=a4 v=0
155515 On ch=1 n=a5 v=0
155520 Par ch=1 c=64 v=127
155520 On ch=1 n=a5 v=60
155520 On ch=1 n=a3 v=45
155635 On ch=1 n=a3 v=0
155635 On ch=1 n=a5 v=0
155640 On ch=1 n=e5 v=60
155640 On ch=1 n=c#5 v=30
155640 On ch=1 n=g4 v=45
155640 On ch=1 n=a4 v=45
155700 Par ch=1 c=64 v=0
155755 On ch=1 n=a4 v=0
155755 On ch=1 n=g4 v=0
155755 On ch=1 n=c#5 v=0
155755 On ch=1 n=e5 v=0
155760 Par ch=1 c=64 v=127
155760 On ch=1 n=e5 v=60
155760 On ch=1 n=c#5 v=30
155760 On ch=1 n=a4 v=45
155760 On ch=1 n=g4 v=45
155875 On ch=1 n=g4 v=0
155875 On ch=1 n=e5 v=0
155880 On ch=1 n=f#5 v=60
155880 On ch=1 n=f#4 v=45
155940 Par ch=1 c=64 v=0
155995 On ch=1 n=f#4 v=0
155995 On ch=1 n=f#5 v=0
155995 On ch=1 n=c#5 v=0
156000 Par ch=1 c=64 v=127
156000 On ch=1 n=g5 v=60
156000 On ch=1 n=e4 v=45
156120 On ch=1 n=c#5 v=30
156120 On ch=1 n=e5 v=30
156180 Par ch=1 c=64 v=0
156235 On ch=1 n=e5 v=0
156235 On ch=1 n=c#5 v=0
156235 On ch=1 n=e4 v=0
156235 On ch=1 n=g5 v=0
156235 On ch=1 n=a4 v=0
156240 Par ch=1 c=64 v=127
156240 On ch=1 n=b5 v=60
156240 On ch=1 n=a3 v=45
156240 On ch=1 n=a2 v=45
156360 On ch=1 n=b4 v=30
156360 On ch=1 n=g5 v=30
156420 Par ch=1 c=64 v=0
156475 On ch=1 n=g5 v=0
156475 On ch=1 n=b4 v=0
156475 On ch=1 n=a2 v=0
156475 On ch=1 n=b5 v=0
156480 Par ch=1 c=64 v=127
156480 On ch=1 n=a5 v=60
156480 On ch=1 n=d3 v=45
156600 On ch=1 n=a4 v=30
156600 On ch=1 n=f#5 v=30
156660 Par ch=1 c=64 v=0
156715 On ch=1 n=f#5 v=0
156715 On ch=1 n=a4 v=0
156715 On ch=1 n=d3 v=0
156715 On ch=1 n=a5 v=0
156720 Par ch=1 c=64 v=127
156720 On ch=1 n=f#5 v=60
156720 On ch=1 n=f#3 v=45
156840 On ch=1 n=a4 v=30
156840 On ch=1 n=d5 v=30
156900 Par ch=1 c=64 v=0
156955 On ch=1 n=d5 v=0
156955 On ch=1 n=a4 v=0
156955 On ch=1 n=f#3 v=0
156955 On ch=1 n=f#5 v=0
156960 Par ch=1 c=64 v=127
156960 On ch=1 n=e5 v=60
156960 On ch=1 n=a3 v=45
157080 On ch=1 n=a4 v=30
157080 On ch=1 n=c#5 v=30
157140 Par ch=1 c=64 v=0
157195 On ch=1 n=c#5 v=0
157195 On ch=1 n=a4 v=0
157195 On ch=1 n=e5 v=0
157200 Par ch=1 c=64 v=127
157200 On ch=1 n=g#5 v=60
157320 On ch=1 n=a3 v=0
157320 On ch=1 n=e5 v=30
157320 On ch=1 n=g5 v=30
157375 On ch=1 n=a3 v=0
157380 Par ch=1 c=64 v=0
157380 On ch=1 n=a2 v=45
157435 On ch=1 n=a2 v=0
157435 On ch=1 n=g5 v=0
157435 On ch=1 n=e5 v=0
157435 On ch=1 n=g#5 v=0
157440 Par ch=1 c=64 v=127
157440 On ch=1 n=a5 v=60
157440 On ch=1 n=a3 v=45
157560 On ch=1 n=e5 v=30
157560 On ch=1 n=g5 v=30
157620 Par ch=1 c=64 v=0
157675 On ch=1 n=g5 v=0
157675 On ch=1 n=e5 v=0
157680 Par ch=1 c=64 v=127
157680 On ch=1 n=c#4 v=45
157800 On ch=1 n=g4 v=30
157800 On ch=1 n=a4 v=30
157840 On ch=1 n=a5 v=0
157860 Par ch=1 c=64 v=0
157915 On ch=1 n=a4 v=0
157915 On ch=1 n=g4 v=0
157915 On ch=1 n=c#4 v=0
157920 Par ch=1 c=64 v=127
157920 On ch=1 n=f#4 v=45
158040 On ch=1 n=g4 v=30
158040 On ch=1 n=a4 v=30
158100 Par ch=1 c=64 v=0
158155 On ch=1 n=a4 v=0
158155 On ch=1 n=g4 v=0
158155 On ch=1 n=f#4 v=0
158160 Par ch=1 c=64 v=127
158160 On ch=1 n=c#5 v=60
158160 On ch=1 n=e4 v=45
158280 On ch=1 n=a3 v=0
158280 On ch=1 n=g4 v=30
158280 On ch=1 n=a4 v=30
158340 Par ch=1 c=64 v=0
158395 On ch=1 n=a4 v=0
158395 On ch=1 n=g4 v=0
158395 On ch=1 n=e4 v=0
158395 On ch=1 n=c#5 v=0
158400 Par ch=1 c=64 v=127
158400 On ch=1 n=d5 v=60
158400 On ch=1 n=d3 v=45
158400 On ch=1 n=d4 v=45
158520 On ch=1 n=f#4 v=30
158520 On ch=1 n=a4 v=30
158580 Par ch=1 c=64 v=0
158635 On ch=1 n=a4 v=0
158635 On ch=1 n=f#4 v=0
158635 On ch=1 n=d5 v=0
158640 Par ch=1 c=64 v=127
158640 On ch=1 n=f#5 v=60
158760 On ch=1 n=a4 v=30
158760 On ch=1 n=d5 v=30
158820 Par ch=1 c=64 v=0
158875 On ch=1 n=d5 v=0
158875 On ch=1 n=a4 v=0
158875 On ch=1 n=f#5 v=0
158880 Par ch=1 c=64 v=127
158880 On ch=1 n=b5 v=60
159000 On ch=1 n=f#5 v=30
159000 On ch=1 n=d5 v=30
159040 On ch=1 n=d4 v=0
159040 On ch=1 n=d3 v=0
159060 Par ch=1 c=64 v=0
159115 On ch=1 n=d5 v=0
159115 On ch=1 n=f#5 v=0
159115 On ch=1 n=b5 v=0
159120 Par ch=1 c=64 v=127
159120 On ch=1 n=a5 v=60
159120 On ch=1 n=c3 v=45
159120 On ch=1 n=c4 v=45
159240 On ch=1 n=f#5 v=30
159240 On ch=1 n=d5 v=30
159300 Par ch=1 c=64 v=0
159355 On ch=1 n=d5 v=0
159355 On ch=1 n=f#5 v=0
159355 On ch=1 n=c4 v=0
159355 On ch=1 n=c3 v=0
159355 On ch=1 n=a5 v=0
159360 Par ch=1 c=64 v=127
159360 On ch=1 n=g5 v=60
159360 On ch=1 n=b2 v=45
159360 On ch=1 n=b3 v=45
159480 On ch=1 n=g4 v=30
159480 On ch=1 n=d5 v=30
159540 Par ch=1 c=64 v=0
159595 On ch=1 n=d5 v=0
159595 On ch=1 n=g4 v=0
159595 On ch=1 n=g5 v=0
159600 Par ch=1 c=64 v=127
159600 On ch=1 n=b5 v=60
159720 On ch=1 n=d5 v=30
159720 On ch=1 n=g5 v=30
159780 Par ch=1 c=64 v=0
159835 On ch=1 n=g5 v=0
159835 On ch=1 n=d5 v=0
159835 On ch=1 n=b5 v=0
159840 Tempo 1000000
159840 Par ch=1 c=64 v=127
159840 On ch=1 n=e6 v=60
159902 Tempo 1034482
159960 On ch=1 n=e5 v=30
159960 On ch=1 n=g5 v=30
159967 Tempo 1071428
160000 On ch=1 n=b3 v=0
160000 On ch=1 n=b2 v=0
160020 Par ch=1 c=64 v=0
160030 Tempo 1111111
160075 On ch=1 n=g5 v=0
160075 On ch=1 n=e5 v=0
160075 On ch=1 n=e6 v=0
160080 Par ch=1 c=64 v=127
160080 On ch=1 n=d6 v=60
160080 On ch=1 n=a#2 v=45
160080 On ch=1 n=a#3 v=45
160095 Tempo 1153846
160160 Tempo 1200000
160200 On ch=1 n=d5 v=30
160200 On ch=1 n=g5 v=30
160222 Tempo 1250000
160260 Par ch=1 c=64 v=0
160287 Tempo 1304347
160315 On ch=1 n=g5 v=0
160315 On ch=1 n=d5 v=0
160315 On ch=1 n=a#3 v=0
160315 On ch=1 n=a#2 v=0
160315 On ch=1 n=d6 v=0
160320 Par ch=1 c=64 v=127
160320 On ch=1 n=c#6 v=60
160320 On ch=1 n=a2 v=45
160320 On ch=1 n=a3 v=45
160350 Tempo 1363636
160415 Tempo 1428571
160440 On ch=1 n=c#5 v=30
160440 On ch=1 n=g5 v=30
160480 Tempo 1500000
160500 Par ch=1 c=64 v=0
160542 Tempo 1578947
160555 On ch=1 n=g5 v=0
160555 On ch=1 n=c#5 v=0
160555 On ch=1 n=a3 v=0
160555 On ch=1 n=a2 v=0
160555 On ch=1 n=c#6 v=0
160560 Par ch=1 c=64 v=127
160560 On ch=1 n=b5 v=60
160560 On ch=1 n=b2 v=45
160560 On ch=1 n=b3 v=45
160607 Tempo 1666666
160670 Tempo 1764705
160680 On ch=1 n=d5 v=30
160680 On ch=1 n=a5 v=30
160735 Tempo 1875000
160740 Par ch=1 c=64 v=0
160795 On ch=1 n=a5 v=0
160795 On ch=1 n=d5 v=0
160795 On ch=1 n=b3 v=0
160795 On ch=1 n=b2 v=0
160795 On ch=1 n=b5 v=0
160800 Tempo 2000000
160800 Par ch=1 c=64 v=127
160800 On ch=1 n=a5 v=60
160800 On ch=1 n=c3 v=45
160800 On ch=1 n=c4 v=45
160920 On ch=1 n=d#5 v=30
160920 On ch=1 n=g5 v=30
160980 Par ch=1 c=64 v=0
161035 On ch=1 n=g5 v=0
161035 On ch=1 n=d#5 v=0
161035 On ch=1 n=c4 v=0
161035 On ch=1 n=c3 v=0
161035 On ch=1 n=a5 v=0
161040 Tempo 1000000
161040 Par ch=1 c=64 v=127
161040 On ch=1 n=g#5 v=60
161040 On ch=1 n=c#3 v=45
161040 On ch=1 n=c#4 v=45
161160 On ch=1 n=e5 v=30
161160 On ch=1 n=g5 v=30
161220 Par ch=1 c=64 v=0
161275 On ch=1 n=g5 v=0
161275 On ch=1 n=e5 v=0
161275 On ch=1 n=g#5 v=0
161280 Par ch=1 c=64 v=127
161280 On ch=1 n=a5 v=60
161400 On ch=1 n=e5 v=30
161400 On ch=1 n=g5 v=30
161460 Par ch=1 c=64 v=0
161515 On ch=1 n=g5 v=0
161515 On ch=1 n=e5 v=0
161515 On ch=1 n=a5 v=0
161515 On ch=1 n=c#4 v=0
161515 On ch=1 n=c#3 v=0
161520 Par ch=1 c=64 v=127
161520 On ch=1 n=c#6 v=60
161520 On ch=1 n=a2 v=45
161640 On ch=1 n=g5 v=30
161640 On ch=1 n=a5 v=30
161700 Par ch=1 c=64 v=0
161755 On ch=1 n=a5 v=0
161755 On ch=1 n=g5 v=0
161755 On ch=1 n=a2 v=0
161755 On ch=1 n=c#6 v=0
161760 Par ch=1 c=64 v=127
161760 On ch=1 n=f#6 v=60
161880 On ch=1 n=g5 v=30
161880 On ch=1 n=a5 v=30
161940 Par ch=1 c=64 v=0
161995 On ch=1 n=a5 v=0
161995 On ch=1 n=g5 v=0
161995 On ch=1 n=f#6 v=0
162000 Par ch=1 c=64 v=127
162000 On ch=1 n=e6 v=60
162000 On ch=1 n=c#4 v=60
162120 On ch=1 n=g5 v=30
162120 On ch=1 n=a5 v=30
162180 Par ch=1 c=64 v=0
162235 On ch=1 n=a5 v=0
162235 On ch=1 n=g5 v=0
162235 On ch=1 n=c#4 v=0
162235 On ch=1 n=e6 v=0
162240 Par ch=1 c=64 v=127
162240 On ch=1 n=d6 v=60
162240 On ch=1 n=d4 v=60
162240 On ch=1 n=a3 v=45
162360 On ch=1 n=d5 v=30
162360 On ch=1 n=f#5 v=30
162420 Par ch=1 c=64 v=0
162475 On ch=1 n=f#5 v=0
162475 On ch=1 n=d5 v=0
162475 On ch=1 n=d4 v=0
162475 On ch=1 n=d6 v=0
162480 Par ch=1 c=64 v=127
162480 On ch=1 n=a5 v=60
162480 On ch=1 n=f#4 v=60
162600 On ch=1 n=d5 v=30
162600 On ch=1 n=f#5 v=30
162660 Par ch=1 c=64 v=0
162715 On ch=1 n=f#5 v=0
162715 On ch=1 n=d5 v=0
162715 On ch=1 n=f#4 v=0
162715 On ch=1 n=a5 v=0
162720 Par ch=1 c=64 v=127
162720 On ch=1 n=b4 v=60
162840 On ch=1 n=d5 v=30
162840 On ch=1 n=f#5 v=30
162900 Par ch=1 c=64 v=0
162955 On ch=1 n=f#5 v=0
162955 On ch=1 n=d5 v=0
162955 On ch=1 n=b4 v=0
162960 Par ch=1 c=64 v=127
162960 On ch=1 n=a5 v=60
162960 On ch=1 n=a4 v=60
163080 On ch=1 n=a3 v=0
163080 On ch=1 n=d5 v=30
163080 On ch=1 n=f#5 v=30
163140 Par ch=1 c=64 v=0
163195 On ch=1 n=f#5 v=0
163195 On ch=1 n=d5 v=0
163195 On ch=1 n=a4 v=0
163195 On ch=1 n=a5 v=0
163200 Par ch=1 c=64 v=127
163200 On ch=1 n=a5 v=60
163200 On ch=1 n=a3 v=45
163315 On ch=1 n=a3 v=0
163315 On ch=1 n=a5 v=0
163320 On ch=1 n=e5 v=60
163320 On ch=1 n=c#5 v=30
163320 On ch=1 n=g4 v=45
163320 On ch=1 n=a4 v=45
163380 Par ch=1 c=64 v=0
163435 On ch=1 n=a4 v=0
163435 On ch=1 n=g4 v=0
163435 On ch=1 n=c#5 v=0
163435 On ch=1 n=e5 v=0
163440 Par ch=1 c=64 v=127
163440 On ch=1 n=e5 v=60
163440 On ch=1 n=c#5 v=30
163440 On ch=1 n=a4 v=45
163440 On ch=1 n=g4 v=45
163555 On ch=1 n=g4 v=0
163555 On ch=1 n=e5 v=0
163560 On ch=1 n=f#5 v=60
163560 On ch=1 n=f#4 v=45
163620 Par ch=1 c=64 v=0
163675 On ch=1 n=f#4 v=0
163675 On ch=1 n=f#5 v=0
163675 On ch=1 n=c#5 v=0
163680 Par ch=1 c=64 v=127
163680 On ch=1 n=g5 v=60
163680 On ch=1 n=e4 v=45
163800 On ch=1 n=c#5 v=30
163800 On ch=1 n=e5 v=30
163860 Par ch=1 c=64 v=0
163915 On ch=1 n=e5 v=0
163915 On ch=1 n=c#5 v=0
163915 On ch=1 n=e4 v=0
163915 On ch=1 n=g5 v=0
163915 On ch=1 n=a4 v=0
163920 Par ch=1 c=64 v=127
163920 On ch=1 n=b5 v=60
163920 On ch=1 n=a3 v=45
163920 On ch=1 n=a2 v=45
164040 On ch=1 n=b4 v=30
164040 On ch=1 n=g5 v=30
164100 Par ch=1 c=64 v=0
164155 On ch=1 n=g5 v=0
164155 On ch=1 n=b4 v=0
164155 On ch=1 n=a2 v=0
164155 On ch=1 n=b5 v=0
164160 Par ch=1 c=64 v=127
164160 On ch=1 n=a5 v=60
164160 On ch=1 n=d3 v=45
164280 On ch=1 n=a4 v=30
164280 On ch=1 n=f#5 v=30
164340 Par ch=1 c=64 v=0
164395 On ch=1 n=f#5 v=0
164395 On ch=1 n=a4 v=0
164395 On ch=1 n=d3 v=0
164395 On ch=1 n=a5 v=0
164400 Par ch=1 c=64 v=127
164400 On ch=1 n=f#5 v=60
164400 On ch=1 n=f#3 v=45
164520 On ch=1 n=a4 v=30
164520 On ch=1 n=d5 v=30
164580 Par ch=1 c=64 v=0
164635 On ch=1 n=d5 v=0
164635 On ch=1 n=a4 v=0
164635 On ch=1 n=f#3 v=0
164635 On ch=1 n=f#5 v=0
164640 Par ch=1 c=64 v=127
164640 On ch=1 n=e5 v=60
164640 On ch=1 n=a3 v=45
164760 On ch=1 n=a4 v=30
164760 On ch=1 n=c#5 v=30
164820 Par ch=1 c=64 v=0
164875 On ch=1 n=c#5 v=0
164875 On ch=1 n=a4 v=0
164875 On ch=1 n=e5 v=0
164880 Par ch=1 c=64 v=127
164880 On ch=1 n=g#5 v=60
165000 On ch=1 n=a3 v=0
165000 On ch=1 n=e5 v=30
165000 On ch=1 n=g5 v=30
165055 On ch=1 n=a3 v=0
165060 Par ch=1 c=64 v=0
165060 On ch=1 n=a2 v=45
165115 On ch=1 n=a2 v=0
165115 On ch=1 n=g5 v=0
165115 On ch=1 n=e5 v=0
165115 On ch=1 n=g#5 v=0
165120 Par ch=1 c=64 v=127
165120 On ch=1 n=a5 v=60
165120 On ch=1 n=a3 v=45
165240 On ch=1 n=e5 v=30
165240 On ch=1 n=g5 v=30
165300 Par ch=1 c=64 v=0
165355 On ch=1 n=g5 v=0
165355 On ch=1 n=e5 v=0
165360 Par ch=1 c=64 v=127
165360 On ch=1 n=c#4 v=45
165480 On ch=1 n=g4 v=30
165480 On ch=1 n=a4 v=30
165520 On ch=1 n=a5 v=0
165540 Par ch=1 c=64 v=0
165595 On ch=1 n=a4 v=0
165595 On ch=1 n=g4 v=0
165595 On ch=1 n=c#4 v=0
165600 Par ch=1 c=64 v=127
165600 On ch=1 n=f#4 v=45
165720 On ch=1 n=g4 v=30
165720 On ch=1 n=a4 v=30
165780 Par ch=1 c=64 v=0
165835 On ch=1 n=a4 v=0
165835 On ch=1 n=g4 v=0
165835 On ch=1 n=f#4 v=0
165840 Par ch=1 c=64 v=127
165840 On ch=1 n=c#5 v=60
165840 On ch=1 n=e4 v=45
165960 On ch=1 n=a3 v=0
165960 On ch=1 n=g4 v=30
165960 On ch=1 n=a4 v=30
166020 Par ch=1 c=64 v=0
166075 On ch=1 n=a4 v=0
166075 On ch=1 n=g4 v=0
166075 On ch=1 n=e4 v=0
166075 On ch=1 n=c#5 v=0
166080 Par ch=1 c=64 v=127
166080 On ch=1 n=d5 v=60
166080 On ch=1 n=d3 v=45
166080 On ch=1 n=d4 v=45
166200 On ch=1 n=f#4 v=30
166200 On ch=1 n=a4 v=30
166260 Par ch=1 c=64 v=0
166315 On ch=1 n=a4 v=0
166315 On ch=1 n=f#4 v=0
166315 On ch=1 n=d5 v=0
166320 Par ch=1 c=64 v=127
166320 On ch=1 n=f#5 v=60
166440 On ch=1 n=a4 v=30
166440 On ch=1 n=d5 v=30
166500 Par ch=1 c=64 v=0
166555 On ch=1 n=d5 v=0
166555 On ch=1 n=a4 v=0
166555 On ch=1 n=f#5 v=0
166560 Par ch=1 c=64 v=127
166560 On ch=1 n=b5 v=60
166680 On ch=1 n=d5 v=30
166680 On ch=1 n=f#5 v=30
166720 On ch=1 n=d4 v=0
166720 On ch=1 n=d3 v=0
166740 Par ch=1 c=64 v=0
166795 On ch=1 n=f#5 v=0
166795 On ch=1 n=d5 v=0
166795 On ch=1 n=b5 v=0
166800 Par ch=1 c=64 v=127
166800 On ch=1 n=a5 v=60
166800 On ch=1 n=c3 v=45
166800 On ch=1 n=c4 v=45
166920 On ch=1 n=d5 v=30
166920 On ch=1 n=f#5 v=30
166980 Par ch=1 c=64 v=0
167035 On ch=1 n=f#5 v=0
167035 On ch=1 n=d5 v=0
167035 On ch=1 n=c4 v=0
167035 On ch=1 n=c3 v=0
167035 On ch=1 n=a5 v=0
167040 Par ch=1 c=64 v=127
167040 On ch=1 n=g5 v=60
167040 On ch=1 n=b2 v=45
167040 On ch=1 n=b3 v=45
167160 On ch=1 n=g4 v=30
167160 On ch=1 n=d5 v=30
167220 Par ch=1 c=64 v=0
167275 On ch=1 n=d5 v=0
167275 On ch=1 n=g4 v=0
167275 On ch=1 n=g5 v=0
167280 Par ch=1 c=64 v=127
167280 On ch=1 n=b5 v=60
167400 On ch=1 n=d5 v=30
167400 On ch=1 n=g5 v=30
167460 Par ch=1 c=64 v=0
167515 On ch=1 n=g5 v=0
167515 On ch=1 n=d5 v=0
167515 On ch=1 n=b5 v=0
167520 Tempo 1000000
167520 Par ch=1 c=64 v=127
167520 On ch=1 n=e6 v=60
167582 Tempo 1034482
167640 On ch=1 n=e5 v=30
167640 On ch=1 n=g5 v=30
167647 Tempo 1071428
167680 On ch=1 n=b3 v=0
167680 On ch=1 n=b2 v=0
167700 Par ch=1 c=64 v=0
167710 Tempo 1111111
167755 On ch=1 n=g5 v=0
167755 On ch=1 n=e5 v=0
167755 On ch=1 n=e6 v=0
167760 Par ch=1 c=64 v=127
167760 On ch=1 n=d6 v=60
167760 On ch=1 n=a#2 v=45
167760 On ch=1 n=a#3 v=45
167775 Tempo 1153846
167840 Tempo 1200000
167880 On ch=1 n=d5 v=30
167880 On ch=1 n=g5 v=30
167902 Tempo 1250000
167940 Par ch=1 c=64 v=0
167967 Tempo 1304347
167995 On ch=1 n=g5 v=0
167995 On ch=1 n=d5 v=0
167995 On ch=1 n=a#3 v=0
167995 On ch=1 n=a#2 v=0
167995 On ch=1 n=d6 v=0
168000 Par ch=1 c=64 v=127
168000 On ch=1 n=c#6 v=60
168000 On ch=1 n=a2 v=45
168000 On ch=1 n=a3 v=45
168030 Tempo 1363636
168095 Tempo 1428571
168120 On ch=1 n=c#5 v=30
168120 On ch=1 n=g5 v=30
168160 Tempo 1500000
168180 Par ch=1 c=64 v=0
168222 Tempo 1578947
168235 On ch=1 n=g5 v=0
168235 On ch=1 n=c#5 v=0
168235 On ch=1 n=a3 v=0
168235 On ch=1 n=a2 v=0
168235 On ch=1 n=c#6 v=0
168240 Par ch=1 c=64 v=127
168240 On ch=1 n=b5 v=60
168240 On ch=1 n=b2 v=45
168240 On ch=1 n=b3 v=45
168287 Tempo 1666666
168350 Tempo 1764705
168360 On ch=1 n=d5 v=30
168360 On ch=1 n=a5 v=30
168415 Tempo 1875000
168420 Par ch=1 c=64 v=0
168475 On ch=1 n=a5 v=0
168475 On ch=1 n=d5 v=0
168475 On ch=1 n=b3 v=0
168475 On ch=1 n=b2 v=0
168475 On ch=1 n=b5 v=0
168480 Tempo 2000000
168480 Par ch=1 c=64 v=127
168480 On ch=1 n=a5 v=60
168480 On ch=1 n=c3 v=45
168480 On ch=1 n=c4 v=45
168600 On ch=1 n=d#5 v=30
168600 On ch=1 n=g5 v=30
168660 Par ch=1 c=64 v=0
168715 On ch=1 n=g5 v=0
168715 On ch=1 n=d#5 v=0
168715 On ch=1 n=c4 v=0
168715 On ch=1 n=c3 v=0
168715 On ch=1 n=a5 v=0
168720 Tempo 1000000
168720 Par ch=1 c=64 v=127
168720 On ch=1 n=a5 v=60
168720 On ch=1 n=c#3 v=45
168720 On ch=1 n=c#4 v=45
168840 On ch=1 n=e5 v=30
168840 On ch=1 n=g5 v=30
168900 Par ch=1 c=64 v=0
168955 On ch=1 n=g5 v=0
168955 On ch=1 n=e5 v=0
168955 On ch=1 n=a5 v=0
168960 Par ch=1 c=64 v=127
168960 On ch=1 n=a#5 v=60
169080 On ch=1 n=e5 v=30
169080 On ch=1 n=g5 v=30
169140 Par ch=1 c=64 v=0
169195 On ch=1 n=g5 v=0
169195 On ch=1 n=e5 v=0
169195 On ch=1 n=a#5 v=0
169195 On ch=1 n=c#3 v=0
169200 Par ch=1 c=64 v=127
169200 On ch=1 n=e6 v=60
169320 On ch=1 n=g5 v=30
169320 On ch=1 n=a#5 v=30
169380 Par ch=1 c=64 v=0
169435 On ch=1 n=a#5 v=0
169435 On ch=1 n=g5 v=0
169435 On ch=1 n=e6 v=0
169440 Par ch=1 c=64 v=127
169440 On ch=1 n=a6 v=60
169560 On ch=1 n=g5 v=30
169560 On ch=1 n=a#5 v=30
169620 Par ch=1 c=64 v=0
169675 On ch=1 n=a#5 v=0
169675 On ch=1 n=g5 v=0
169675 On ch=1 n=a6 v=0
169680 Par ch=1 c=64 v=127
169680 On ch=1 n=g6 v=60
169680 On ch=1 n=e4 v=60
169800 On ch=1 n=c#4 v=0
169800 On ch=1 n=g5 v=30
169800 On ch=1 n=a#5 v=30
169860 Par ch=1 c=64 v=0
169915 On ch=1 n=a#5 v=0
169915 On ch=1 n=g5 v=0
169915 On ch=1 n=e4 v=0
169915 On ch=1 n=g6 v=0
169920 Par ch=1 c=64 v=127
169920 On ch=1 n=f6 v=60
169920 On ch=1 n=f4 v=60
169920 On ch=1 n=c4 v=45
170040 On ch=1 n=f5 v=30
170040 On ch=1 n=a5 v=30
170100 Par ch=1 c=64 v=0
170155 On ch=1 n=a5 v=0
170155 On ch=1 n=f5 v=0
170155 On ch=1 n=f4 v=0
170155 On ch=1 n=f6 v=0
170160 Par ch=1 c=64 v=127
170160 On ch=1 n=c6 v=60
170160 On ch=1 n=a4 v=60
170280 On ch=1 n=f5 v=30
170280 On ch=1 n=a5 v=30
170340 Par ch=1 c=64 v=0
170395 On ch=1 n=a5 v=0
170395 On ch=1 n=f5 v=0
170395 On ch=1 n=a4 v=0
170395 On ch=1 n=c6 v=0
170400 Par ch=1 c=64 v=127
170400 On ch=1 n=d5 v=60
170520 On ch=1 n=f5 v=30
170520 On ch=1 n=a5 v=30
170580 Par ch=1 c=64 v=0
170635 On ch=1 n=a5 v=0
170635 On ch=1 n=f5 v=0
170635 On ch=1 n=d5 v=0
170640 Par ch=1 c=64 v=127
170640 On ch=1 n=c6 v=60
170640 On ch=1 n=c5 v=60
170760 On ch=1 n=c4 v=0
170760 On ch=1 n=f5 v=30
170760 On ch=1 n=a5 v=30
170820 Par ch=1 c=64 v=0
170875 On ch=1 n=a5 v=0
170875 On ch=1 n=f5 v=0
170875 On ch=1 n=c5 v=0
170875 On ch=1 n=c6 v=0
170880 Par ch=1 c=64 v=127
170880 On ch=1 n=c6 v=60
170880 On ch=1 n=c4 v=45
170995 On ch=1 n=c4 v=0
170995 On ch=1 n=c6 v=0
171000 On ch=1 n=g5 v=60
171000 On ch=1 n=e5 v=30
171000 On ch=1 n=g5 v=30
171000 On ch=1 n=a#4 v=45
171000 On ch=1 n=d5 v=45
171060 Par ch=1 c=64 v=0
171115 On ch=1 n=d5 v=0
171115 On ch=1 n=a#4 v=0
171115 On ch=1 n=g5 v=0
171115 On ch=1 n=e5 v=0
171115 On ch=1 n=g5 v=0
171120 Par ch=1 c=64 v=127
171120 On ch=1 n=g5 v=60
171120 On ch=1 n=e5 v=30
171120 On ch=1 n=d5 v=45
171120 On ch=1 n=a#4 v=45
171235 On ch=1 n=a#4 v=0
171235 On ch=1 n=g5 v=0
171240 On ch=1 n=a5 v=60
171240 On ch=1 n=a4 v=45
171300 Par ch=1 c=64 v=0
171355 On ch=1 n=a4 v=0
171355 On ch=1 n=a5 v=0
171355 On ch=1 n=d5 v=0
171355 On ch=1 n=e5 v=0
171360 Par ch=1 c=64 v=127
171360 On ch=1 n=a#5 v=60
171360 On ch=1 n=g4 v=45
171480 On ch=1 n=e5 v=30
171480 On ch=1 n=g5 v=30
171540 Par ch=1 c=64 v=0
171595 On ch=1 n=g5 v=0
171595 On ch=1 n=e5 v=0
171595 On ch=1 n=g4 v=0
171595 On ch=1 n=a#5 v=0
171600 Par ch=1 c=64 v=127
171600 On ch=1 n=d6 v=60
171600 On ch=1 n=e4 v=45
171600 On ch=1 n=c3 v=45
171720 On ch=1 n=c5 v=30
171720 On ch=1 n=a#5 v=30
171780 Par ch=1 c=64 v=0
171835 On ch=1 n=a#5 v=0
171835 On ch=1 n=c5 v=0
171835 On ch=1 n=e4 v=0
171835 On ch=1 n=d6 v=0
171840 On ch=1 n=c3 v=0
171840 Par ch=1 c=64 v=127
171840 On ch=1 n=c6 v=60
171840 On ch=1 n=f4 v=45
171840 On ch=1 n=f3 v=45
171960 On ch=1 n=c5 v=30
171960 On ch=1 n=a5 v=30
172020 Par ch=1 c=64 v=0
172075 On ch=1 n=a5 v=0
172075 On ch=1 n=c5 v=0
172075 On ch=1 n=c6 v=0
172080 On ch=1 n=f3 v=0
172080 Par ch=1 c=64 v=127
172080 On ch=1 n=a5 v=60
172080 On ch=1 n=a3 v=45
172200 On ch=1 n=c5 v=30
172200 On ch=1 n=f5 v=30
172240 On ch=1 n=f4 v=0
172260 Par ch=1 c=64 v=0
172315 On ch=1 n=f5 v=0
172315 On ch=1 n=c5 v=0
172315 On ch=1 n=a5 v=0
172320 On ch=1 n=a3 v=0
172320 Par ch=1 c=64 v=127
172320 On ch=1 n=g5 v=60
172320 On ch=1 n=e4 v=45
172320 On ch=1 n=c4 v=45
172440 On ch=1 n=c5 v=30
172500 Par ch=1 c=64 v=0
172555 On ch=1 n=c5 v=0
172555 On ch=1 n=g5 v=0
172560 Par ch=1 c=64 v=127
172560 On ch=1 n=a5 v=60
172680 On ch=1 n=e5 v=30
172680 On ch=1 n=g5 v=30
172720 On ch=1 n=c4 v=0
172720 On ch=1 n=e4 v=0
172740 Par ch=1 c=64 v=0
172795 On ch=1 n=g5 v=0
172795 On ch=1 n=e5 v=0
172795 On ch=1 n=a5 v=0
172800 Par ch=1 c=64 v=127
172800 On ch=1 n=a#5 v=60
172800 On ch=1 n=c3 v=45
172800 On ch=1 n=c4 v=45
172920 On ch=1 n=e5 v=30
172920 On ch=1 n=g5 v=30
172980 Par ch=1 c=64 v=0
173035 On ch=1 n=g5 v=0
173035 On ch=1 n=e5 v=0
173035 On ch=1 n=a#5 v=0
173040 Par ch=1 c=64 v=127
173040 On ch=1 n=e6 v=60
173160 On ch=1 n=g5 v=30
173160 On ch=1 n=a#5 v=30
173220 Par ch=1 c=64 v=0
173275 On ch=1 n=a#5 v=0
173275 On ch=1 n=g5 v=0
173275 On ch=1 n=e6 v=0
173280 Par ch=1 c=64 v=127
173280 On ch=1 n=a6 v=60
173400 On ch=1 n=g5 v=30
173400 On ch=1 n=a#5 v=30
173440 On ch=1 n=c4 v=0
173440 On ch=1 n=c3 v=0
173460 Par ch=1 c=64 v=0
173515 On ch=1 n=a#5 v=0
173515 On ch=1 n=g5 v=0
173515 On ch=1 n=a6 v=0
173520 Par ch=1 c=64 v=127
173520 On ch=1 n=g6 v=60
173520 On ch=1 n=c#3 v=45
173520 On ch=1 n=c#4 v=45
173640 On ch=1 n=g5 v=30
173640 On ch=1 n=a#5 v=30
173700 Par ch=1 c=64 v=0
173755 On ch=1 n=a#5 v=0
173755 On ch=1 n=g5 v=0
173755 On ch=1 n=c#4 v=0
173755 On ch=1 n=c#3 v=0
173755 On ch=1 n=g6 v=0
173760 Par ch=1 c=64 v=127
173760 On ch=1 n=f#6 v=60
173760 On ch=1 n=d3 v=45
173760 On ch=1 n=d4 v=45
173880 On ch=1 n=f#5 v=30
173880 On ch=1 n=a5 v=30
173940 Par ch=1 c=64 v=0
173995 On ch=1 n=a5 v=0
173995 On ch=1 n=f#5 v=0
173995 On ch=1 n=d4 v=0
173995 On ch=1 n=d3 v=0
173995 On ch=1 n=f#6 v=0
174000 Par ch=1 c=64 v=127
174000 On ch=1 n=c#6 v=60
174000 On ch=1 n=e3 v=45
174000 On ch=1 n=e4 v=45
174120 On ch=1 n=g5 v=30
174120 On ch=1 n=a5 v=30
174180 Par ch=1 c=64 v=0
174235 On ch=1 n=a5 v=0
174235 On ch=1 n=g5 v=0
174235 On ch=1 n=e4 v=0
174235 On ch=1 n=e3 v=0
174235 On ch=1 n=c#6 v=0
174240 Par ch=1 c=64 v=127
174240 On ch=1 n=e6 v=60
174240 On ch=1 n=f3 v=45
174240 On ch=1 n=f4 v=45
174360 On ch=1 n=e5 v=30
174360 On ch=1 n=a5 v=30
174420 Par ch=1 c=64 v=0
174475 On ch=1 n=a5 v=0
174475 On ch=1 n=e5 v=0
174475 On ch=1 n=f4 v=0
174475 On ch=1 n=f3 v=0
174475 On ch=1 n=e6 v=0
174480 Par ch=1 c=64 v=127
174480 On ch=1 n=d6 v=60
174480 On ch=1 n=f#3 v=45
174480 On ch=1 n=f#4 v=45
174600 On ch=1 n=d5 v=30
174600 On ch=1 n=a5 v=30
174660 Par ch=1 c=64 v=0
174715 On ch=1 n=a5 v=0
174715 On ch=1 n=d5 v=0
174715 On ch=1 n=f#4 v=0
174715 On ch=1 n=f#3 v=0
174715 On ch=1 n=d6 v=0
174720 Par ch=1 c=64 v=127
174720 On ch=1 n=b5 v=60
174720 On ch=1 n=g3 v=45
174720 On ch=1 n=g4 v=45
174840 On ch=1 n=d5 v=30
174840 On ch=1 n=g5 v=30
174900 Par ch=1 c=64 v=0
174955 On ch=1 n=g5 v=0
174955 On ch=1 n=d5 v=0
174955 On ch=1 n=g4 v=0
174955 On ch=1 n=g3 v=0
174955 On ch=1 n=b5 v=0
174960 Par ch=1 c=64 v=127
174960 On ch=1 n=f#5 v=60
174960 On ch=1 n=a3 v=45
174960 On ch=1 n=a4 v=45
175080 On ch=1 n=c5 v=30
175080 On ch=1 n=d5 v=30
175140 Par ch=1 c=64 v=0
175195 On ch=1 n=d5 v=0
175195 On ch=1 n=c5 v=0
175195 On ch=1 n=a4 v=0
175195 On ch=1 n=a3 v=0
175195 On ch=1 n=f#5 v=0
175200 Tempo 1000000
175200 Par ch=1 c=64 v=127
175200 On ch=1 n=a5 v=60
175200 On ch=1 n=a#3 v=45
175200 On ch=1 n=a#4 v=45
175280 Tempo 1034482
175320 On ch=1 n=a4 v=30
175320 On ch=1 n=d5 v=30
175360 Tempo 1071428
175380 Par ch=1 c=64 v=0
175435 On ch=1 n=d5 v=0
175435 On ch=1 n=a4 v=0
175435 On ch=1 n=a#4 v=0
175435 On ch=1 n=a#3 v=0
175435 On ch=1 n=a5 v=0
175440 Tempo 1111111
175440 Par ch=1 c=64 v=127
175440 On ch=1 n=g5 v=60
175440 On ch=1 n=b3 v=45
175440 On ch=1 n=b4 v=45
175520 Tempo 1153846
175560 On ch=1 n=g4 v=30
175560 On ch=1 n=d5 v=30
175600 Tempo 1200000
175620 Par ch=1 c=64 v=0
175675 On ch=1 n=d5 v=0
175675 On ch=1 n=g4 v=0
175675 On ch=1 n=b4 v=0
175675 On ch=1 n=b3 v=0
175675 On ch=1 n=g5 v=0
175680 Tempo 1250000
175680 Par ch=1 c=64 v=127
175680 On ch=1 n=f#5 v=60
175680 On ch=1 n=a3 v=45
175760 Tempo 1304347
175800 On ch=1 n=a4 v=30
175800 On ch=1 n=d5 v=30
175840 Tempo 1363636
175860 Par ch=1 c=64 v=0
175915 On ch=1 n=d5 v=0
175915 On ch=1 n=a4 v=0
175915 On ch=1 n=f#5 v=0
175920 Tempo 1428571
175920 Par ch=1 c=64 v=127
175920 On ch=1 n=e5 v=60
175920 On ch=1 n=a2 v=45
176000 Tempo 1500000
176040 On ch=1 n=g4 v=30
176040 On ch=1 n=c#5 v=30
176080 Tempo 1578947
176100 Par ch=1 c=64 v=0
176155 On ch=1 n=c#5 v=0
176155 On ch=1 n=g4 v=0
176155 On ch=1 n=a2 v=0
176155 On ch=1 n=e5 v=0
176160 Tempo 1666666
176160 Par ch=1 c=64 v=127
176160 On ch=1 n=d5 v=60
176160 On ch=1 n=d3 v=45
176240 Tempo 1764705
176280 On ch=1 n=f#4 v=30
176280 On ch=1 n=a4 v=30
176320 Tempo 1875000
176400 Tempo 2000000
176560 On ch=1 n=d3 v=0
176560 On ch=1 n=d5 v=0
176560 On ch=1 n=a3 v=0
176580 Par ch=1 c=64 v=0
176635 On ch=1 n=a4 v=0
176635 On ch=1 n=f#4 v=0
177600 Meta Text "Wichtige Begebenheit"
177600 Tempo 461538
177600 KeySig 3 major
177600 TimeSig 3/4 24 8
178560 On ch=1 n=c#6 v=108
178560 On ch=1 n=e6 v=108
178560 On ch=1 n=a6 v=108
178560 On ch=1 n=a3 v=92
178560 On ch=1 n=a4 v=92
178795 On ch=1 n=a4 v=0
178795 On ch=1 n=a3 v=0
178800 On ch=1 n=c#4 v=92
178800 On ch=1 n=c#5 v=92
179035 On ch=1 n=c#5 v=0
179035 On ch=1 n=c#4 v=0
179040 On ch=1 n=a6 v=0
179040 On ch=1 n=e6 v=0
179040 On ch=1 n=c#6 v=0
179040 On ch=1 n=b5 v=108
179040 On ch=1 n=e6 v=108
179040 On ch=1 n=g#6 v=108
179040 On ch=1 n=e4 v=92
179040 On ch=1 n=e5 v=92
179395 On ch=1 n=e5 v=0
179395 On ch=1 n=e4 v=0
179395 On ch=1 n=g#6 v=0
179395 On ch=1 n=e6 v=0
179395 On ch=1 n=b5 v=0
179400 On ch=1 n=a5 v=108
179400 On ch=1 n=d#6 v=108
179400 On ch=1 n=f#6 v=108
179400 On ch=1 n=c4 v=92
179400 On ch=1 n=c5 v=92
179515 On ch=1 n=c5 v=0
179515 On ch=1 n=c4 v=0
179515 On ch=1 n=f#6 v=0
179515 On ch=1 n=d#6 v=0
179515 On ch=1 n=a5 v=0
179520 On ch=1 n=g#5 v=127
179520 On ch=1 n=c#6 v=127
179520 On ch=1 n=e6 v=127
179520 On ch=1 n=c#4 v=127
179520 On ch=1 n=c#5 v=127
179920 On ch=1 n=c#5 v=0
179920 On ch=1 n=c#4 v=0
179920 On ch=1 n=e6 v=0
179920 On ch=1 n=c#6 v=0
179920 On ch=1 n=g#5 v=0
180000 On ch=1 n=a5 v=127
180000 On ch=1 n=c#6 v=127
180000 On ch=1 n=f#6 v=127
180000 On ch=1 n=a3 v=127
180000 On ch=1 n=a4 v=127
180400 On ch=1 n=a4 v=0
180400 On ch=1 n=a3 v=0
180400 On ch=1 n=f#6 v=0
180400 On ch=1 n=c#6 v=0
180400 On ch=1 n=a5 v=0
180480 On ch=1 n=f#5 v=127
180480 On ch=1 n=b5 v=127
180480 On ch=1 n=d#6 v=127
180480 On ch=1 n=b3 v=127
180480 On ch=1 n=b4 v=127
180880 On ch=1 n=b4 v=0
180880 On ch=1 n=b3 v=0
180880 On ch=1 n=d#6 v=0
180880 On ch=1 n=b5 v=0
180880 On ch=1 n=f#5 v=0
180960 On ch=1 n=g#5 v=127
180960 On ch=1 n=b5 v=127
180960 On ch=1 n=e6 v=127
180960 On ch=1 n=e3 v=127
180960 On ch=1 n=e4 v=127
181360 On ch=1 n=e4 v=0
181360 On ch=1 n=e3 v=0
181360 On ch=1 n=e6 v=0
181360 On ch=1 n=b5 v=0
181360 On ch=1 n=g#5 v=0
181440 On ch=1 n=b5 v=108
181440 On ch=1 n=d6 v=108
181440 On ch=1 n=f#5 v=92
181440 On ch=1 n=f#3 v=92
181440 On ch=1 n=f#4 v=92
181675 On ch=1 n=f#4 v=0
181675 On ch=1 n=f#3 v=0
181675 On ch=1 n=f#5 v=0
181680 On ch=1 n=e5 v=92
181680 On ch=1 n=g#3 v=92
181680 On ch=1 n=g#4 v=92
181840 On ch=1 n=d6 v=0
181840 On ch=1 n=b5 v=0
181915 On ch=1 n=g#4 v=0
181915 On ch=1 n=g#3 v=0
181915 On ch=1 n=e5 v=0
181920 On ch=1 n=e5 v=108
181920 On ch=1 n=a5 v=108
181920 On ch=1 n=c#6 v=108
181920 On ch=1 n=a3 v=92
181920 On ch=1 n=a4 v=92
182275 On ch=1 n=a4 v=0
182275 On ch=1 n=a3 v=0
182275 On ch=1 n=c#6 v=0
182275 On ch=1 n=a5 v=0
182275 On ch=1 n=e5 v=0
182280 On ch=1 n=d5 v=108
182280 On ch=1 n=g#5 v=108
182280 On ch=1 n=b5 v=108
182280 On ch=1 n=f3 v=92
182280 On ch=1 n=f4 v=92
182395 On ch=1 n=f4 v=0
182395 On ch=1 n=f3 v=0
182395 On ch=1 n=b5 v=0
182395 On ch=1 n=g#5 v=0
182395 On ch=1 n=d5 v=0
182400 On ch=1 n=c#5 v=127
182400 On ch=1 n=f#5 v=127
182400 On ch=1 n=a5 v=127
182400 On ch=1 n=f#3 v=127
182400 On ch=1 n=f#4 v=127
182800 On ch=1 n=f#4 v=0
182800 On ch=1 n=f#3 v=0
182800 On ch=1 n=a5 v=0
182800 On ch=1 n=f#5 v=0
182800 On ch=1 n=c#5 v=0
182880 On ch=1 n=d5 v=127
182880 On ch=1 n=f#5 v=127
182880 On ch=1 n=b5 v=127
182880 On ch=1 n=d3 v=127
182880 On ch=1 n=d4 v=127
183280 On ch=1 n=d4 v=0
183280 On ch=1 n=d3 v=0
183280 On ch=1 n=b5 v=0
183280 On ch=1 n=f#5 v=0
183280 On ch=1 n=d5 v=0
183360 On ch=1 n=b4 v=127
183360 On ch=1 n=e5 v=127
183360 On ch=1 n=g#5 v=127
183360 On ch=1 n=e3 v=127
183360 On ch=1 n=e4 v=127
183760 On ch=1 n=e4 v=0
183760 On ch=1 n=e3 v=0
183760 On ch=1 n=g#5 v=0
183760 On ch=1 n=e5 v=0
183760 On ch=1 n=b4 v=0
183840 On ch=1 n=c#5 v=127
183840 On ch=1 n=e5 v=127
183840 On ch=1 n=a5 v=127
183840 On ch=1 n=a2 v=127
183840 On ch=1 n=a3 v=127
184240 On ch=1 n=a3 v=0
184240 On ch=1 n=a2 v=0
184240 On ch=1 n=a5 v=0
184240 On ch=1 n=e5 v=0
184240 On ch=1 n=c#5 v=0
184320 On ch=1 n=c#5 v=92
184320 On ch=1 n=e5 v=92
184320 On ch=1 n=a5 v=92
184320 On ch=1 n=a2 v=75
184320 On ch=1 n=a3 v=75
184555 On ch=1 n=a3 v=0
184555 On ch=1 n=a2 v=0
184560 On ch=1 n=c#3 v=75
184560 On ch=1 n=c#4 v=75
184795 On ch=1 n=c#4 v=0
184795 On ch=1 n=c#3 v=0
184800 On ch=1 n=a5 v=0
184800 On ch=1 n=e5 v=0
184800 On ch=1 n=c#5 v=0
184800 On ch=1 n=b4 v=92
184800 On ch=1 n=e5 v=92
184800 On ch=1 n=g#5 v=92
184800 On ch=1 n=e3 v=75
184800 On ch=1 n=e4 v=75
185155 On ch=1 n=e4 v=0
185155 On ch=1 n=e3 v=0
185155 On ch=1 n=g#5 v=0
185155 On ch=1 n=e5 v=0
185155 On ch=1 n=b4 v=0
185160 On ch=1 n=a4 v=92
185160 On ch=1 n=d#5 v=92
185160 On ch=1 n=f#5 v=92
185160 On ch=1 n=c3 v=75
185160 On ch=1 n=c4 v=75
185275 On ch=1 n=c4 v=0
185275 On ch=1 n=c3 v=0
185275 On ch=1 n=f#5 v=0
185275 On ch=1 n=d#5 v=0
185275 On ch=1 n=a4 v=0
185280 On ch=1 n=g#4 v=127
185280 On ch=1 n=c#5 v=127
185280 On ch=1 n=e5 v=127
185280 On ch=1 n=c#3 v=105
185280 On ch=1 n=c#4 v=105
185680 On ch=1 n=c#4 v=0
185680 On ch=1 n=c#3 v=0
185680 On ch=1 n=e5 v=0
185680 On ch=1 n=c#5 v=0
185680 On ch=1 n=g#4 v=0
185760 On ch=1 n=a4 v=127
185760 On ch=1 n=c#5 v=127
185760 On ch=1 n=f#5 v=127
185760 On ch=1 n=a3 v=105
185760 On ch=1 n=a2 v=105
186160 On ch=1 n=a2 v=0
186160 On ch=1 n=a3 v=0
186160 On ch=1 n=f#5 v=0
186160 On ch=1 n=c#5 v=0
186160 On ch=1 n=a4 v=0
186240 On ch=1 n=f#4 v=127
186240 On ch=1 n=b4 v=127
186240 On ch=1 n=d#5 v=127
186240 On ch=1 n=b2 v=105
186240 On ch=1 n=b3 v=105
186640 On ch=1 n=b3 v=0
186640 On ch=1 n=b2 v=0
186640 On ch=1 n=d#5 v=0
186640 On ch=1 n=b4 v=0
186640 On ch=1 n=f#4 v=0
186720 On ch=1 n=g#4 v=126
186720 On ch=1 n=b4 v=126
186720 On ch=1 n=e5 v=126
186720 On ch=1 n=e2 v=102
186720 On ch=1 n=e3 v=102
187120 On ch=1 n=e3 v=0
187120 On ch=1 n=e2 v=0
187120 On ch=1 n=e5 v=0
187120 On ch=1 n=b4 v=0
187120 On ch=1 n=g#4 v=0
187200 On ch=1 n=b4 v=87
187200 On ch=1 n=d5 v=87
187200 On ch=1 n=f#4 v=92
187200 On ch=1 n=f#2 v=71
187200 On ch=1 n=f#3 v=71
187435 On ch=1 n=f#3 v=0
187435 On ch=1 n=f#2 v=0
187435 On ch=1 n=f#4 v=0
187440 On ch=1 n=e4 v=92
187440 On ch=1 n=g#2 v=70
187440 On ch=1 n=g#3 v=70
187675 On ch=1 n=g#3 v=0
187675 On ch=1 n=g#2 v=0
187675 On ch=1 n=e4 v=0
187680 On ch=1 n=d5 v=0
187680 On ch=1 n=b4 v=0
187680 On ch=1 n=e4 v=84
187680 On ch=1 n=a4 v=84
187680 On ch=1 n=c#5 v=84
187680 On ch=1 n=a2 v=69
187680 On ch=1 n=a3 v=69
188035 On ch=1 n=a3 v=0
188035 On ch=1 n=a2 v=0
188035 On ch=1 n=c#5 v=0
188035 On ch=1 n=a4 v=0
188035 On ch=1 n=e4 v=0
188040 On ch=1 n=d4 v=82
188040 On ch=1 n=g#4 v=82
188040 On ch=1 n=b4 v=82
188040 On ch=1 n=f2 v=67
188040 On ch=1 n=f3 v=67
188155 On ch=1 n=f3 v=0
188155 On ch=1 n=f2 v=0
188155 On ch=1 n=b4 v=0
188155 On ch=1 n=g#4 v=0
188155 On ch=1 n=d4 v=0
188160 On ch=1 n=c#4 v=114
188160 On ch=1 n=f#4 v=114
188160 On ch=1 n=a4 v=114
188160 On ch=1 n=f#2 v=93
188160 On ch=1 n=f#3 v=93
188560 On ch=1 n=f#3 v=0
188560 On ch=1 n=f#2 v=0
188560 On ch=1 n=a4 v=0
188560 On ch=1 n=f#4 v=0
188560 On ch=1 n=c#4 v=0
188640 On ch=1 n=d4 v=110
188640 On ch=1 n=f#4 v=110
188640 On ch=1 n=b4 v=110
188640 On ch=1 n=d2 v=89
188640 On ch=1 n=d3 v=89
189040 On ch=1 n=d3 v=0
189040 On ch=1 n=d2 v=0
189040 On ch=1 n=b4 v=0
189040 On ch=1 n=f#4 v=0
189040 On ch=1 n=d4 v=0
189120 On ch=1 n=b3 v=105
189120 On ch=1 n=e4 v=105
189120 On ch=1 n=g#4 v=105
189120 On ch=1 n=e2 v=84
189120 On ch=1 n=e3 v=84
189520 On ch=1 n=e3 v=0
189520 On ch=1 n=e2 v=0
189520 On ch=1 n=g#4 v=0
189520 On ch=1 n=e4 v=0
189520 On ch=1 n=b3 v=0
189600 On ch=1 n=c#4 v=105
189600 On ch=1 n=e4 v=105
189600 On ch=1 n=a4 v=105
189600 On ch=1 n=a2 v=84
189600 On ch=1 n=e3 v=84
190000 On ch=1 n=e3 v=0
190000 On ch=1 n=a2 v=0
190000 On ch=1 n=a4 v=0
190000 On ch=1 n=e4 v=0
190000 On ch=1 n=c#4 v=0
190080 On ch=1 n=a4 v=108
190080 On ch=1 n=c#5 v=108
190080 On ch=1 n=e5 v=108
190080 On ch=1 n=a5 v=108
190080 On ch=1 n=a2 v=92
190080 On ch=1 n=a3 v=92
190315 On ch=1 n=a3 v=0
190315 On ch=1 n=a2 v=0
190320 On ch=1 n=c#4 v=92
190480 On ch=1 n=a5 v=0
190480 On ch=1 n=e5 v=0
190480 On ch=1 n=c#5 v=0
190480 On ch=1 n=a4 v=0
190555 On ch=1 n=c#4 v=0
190560 On ch=1 n=a4 v=108
190560 On ch=1 n=d5 v=108
190560 On ch=1 n=f#5 v=108
190560 On ch=1 n=a5 v=108
190560 On ch=1 n=d3 v=127
190560 On ch=1 n=d4 v=127
190795 On ch=1 n=d4 v=0
190795 On ch=1 n=d3 v=0
190800 On ch=1 n=a2 v=92
190800 On ch=1 n=a3 v=92
191035 On ch=1 n=a3 v=0
191035 On ch=1 n=a2 v=0
191040 On ch=1 n=g2 v=92
191040 On ch=1 n=g3 v=92
191275 On ch=1 n=g3 v=0
191275 On ch=1 n=g2 v=0
191280 On ch=1 n=f#2 v=92
191280 On ch=1 n=f#3 v=92
191400 On ch=1 n=a5 v=0
191400 On ch=1 n=f#5 v=0
191400 On ch=1 n=d5 v=0
191400 On ch=1 n=a4 v=0
191515 On ch=1 n=f#3 v=0
191515 On ch=1 n=f#2 v=0
191520 On ch=1 n=a4 v=108
191520 On ch=1 n=d5 v=108
191520 On ch=1 n=f#5 v=108
191520 On ch=1 n=a5 v=108
191520 On ch=1 n=f#2 v=92
191520 On ch=1 n=f#3 v=92
191920 On ch=1 n=f#3 v=0
191920 On ch=1 n=f#2 v=0
191920 On ch=1 n=a5 v=0
191920 On ch=1 n=f#5 v=0
191920 On ch=1 n=d5 v=0
191920 On ch=1 n=a4 v=0
192000 On ch=1 n=d5 v=127
192000 On ch=1 n=e5 v=127
192000 On ch=1 n=g5 v=127
192000 On ch=1 n=b5 v=127
192000 On ch=1 n=d3 v=127
192000 On ch=1 n=d4 v=127
192235 On ch=1 n=d4 v=0
192235 On ch=1 n=d3 v=0
192240 On ch=1 n=b2 v=92
192240 On ch=1 n=b3 v=92
192475 On ch=1 n=b3 v=0
192475 On ch=1 n=b2 v=0
192480 On ch=1 n=a2 v=92
192480 On ch=1 n=a3 v=92
192715 On ch=1 n=a3 v=0
192715 On ch=1 n=a2 v=0
192720 On ch=1 n=g2 v=92
192720 On ch=1 n=g3 v=92
192840 On ch=1 n=b5 v=0
192840 On ch=1 n=g5 v=0
192840 On ch=1 n=e5 v=0
192840 On ch=1 n=d5 v=0
192955 On ch=1 n=g3 v=0
192955 On ch=1 n=g2 v=0
192960 On ch=1 n=d5 v=108
192960 On ch=1 n=e5 v=108
192960 On ch=1 n=g5 v=108
192960 On ch=1 n=b5 v=108
192960 On ch=1 n=g2 v=92
192960 On ch=1 n=g3 v=92
193360 On ch=1 n=g3 v=0
193360 On ch=1 n=g2 v=0
193360 On ch=1 n=b5 v=0
193360 On ch=1 n=g5 v=0
193360 On ch=1 n=e5 v=0
193360 On ch=1 n=d5 v=0
193440 On ch=1 n=g4 v=127
193440 On ch=1 n=a4 v=127
193440 On ch=1 n=c#5 v=127
193440 On ch=1 n=e5 v=127
193440 On ch=1 n=a2 v=127
193440 On ch=1 n=a3 v=127
193675 On ch=1 n=a3 v=0
193675 On ch=1 n=a2 v=0
193680 On ch=1 n=e2 v=92
193680 On ch=1 n=e3 v=92
193840 On ch=1 n=e5 v=0
193840 On ch=1 n=c#5 v=0
193840 On ch=1 n=a4 v=0
193840 On ch=1 n=g4 v=0
193915 On ch=1 n=e3 v=0
193915 On ch=1 n=e2 v=0
193920 On ch=1 n=g4 v=127
193920 On ch=1 n=a4 v=127
193920 On ch=1 n=c#5 v=127
193920 On ch=1 n=e5 v=127
193920 On ch=1 n=d2 v=92
193920 On ch=1 n=d3 v=92
194155 On ch=1 n=d3 v=0
194155 On ch=1 n=d2 v=0
194160 On ch=1 n=c#2 v=92
194160 On ch=1 n=c#3 v=92
194320 On ch=1 n=e5 v=0
194320 On ch=1 n=c#5 v=0
194320 On ch=1 n=a4 v=0
194320 On ch=1 n=g4 v=0
194395 On ch=1 n=c#3 v=0
194395 On ch=1 n=c#2 v=0
194400 On ch=1 n=g4 v=127
194400 On ch=1 n=a4 v=127
194400 On ch=1 n=c#5 v=127
194400 On ch=1 n=e5 v=127
194400 On ch=1 n=c#2 v=92
194400 On ch=1 n=c#3 v=92
194800 On ch=1 n=c#3 v=0
194800 On ch=1 n=c#2 v=0
194800 On ch=1 n=e5 v=0
194800 On ch=1 n=c#5 v=0
194800 On ch=1 n=a4 v=0
194800 On ch=1 n=g4 v=0
194880 On ch=1 n=c5 v=108
194880 On ch=1 n=d5 v=108
194880 On ch=1 n=a5 v=108
194880 On ch=1 n=d3 v=127
194880 On ch=1 n=d4 v=127
195115 On ch=1 n=d4 v=0
195115 On ch=1 n=d3 v=0
195120 On ch=1 n=a2 v=92
195120 On ch=1 n=a3 v=92
195355 On ch=1 n=a3 v=0
195355 On ch=1 n=a2 v=0
195360 On ch=1 n=g2 v=92
195360 On ch=1 n=g3 v=92
195595 On ch=1 n=g3 v=0
195595 On ch=1 n=g2 v=0
195600 On ch=1 n=f#2 v=92
195600 On ch=1 n=f#3 v=92
195835 On ch=1 n=f#3 v=0
195835 On ch=1 n=f#2 v=0
195840 On ch=1 n=f#2 v=92
195840 On ch=1 n=f#3 v=92
196200 On ch=1 n=a5 v=0
196200 On ch=1 n=d5 v=0
196200 On ch=1 n=c5 v=0
196240 On ch=1 n=f#3 v=0
196240 On ch=1 n=f#2 v=0
196320 On ch=1 n=g4 v=127
196320 On ch=1 n=c5 v=127
196320 On ch=1 n=d5 v=127
196320 On ch=1 n=g2 v=75
196320 On ch=1 n=g3 v=75
196555 On ch=1 n=g3 v=0
196555 On ch=1 n=g2 v=0
196560 On ch=1 n=a2 v=77
196560 On ch=1 n=a3 v=77
196720 On ch=1 n=d5 v=0
196720 On ch=1 n=c5 v=0
196720 On ch=1 n=g4 v=0
196795 On ch=1 n=a3 v=0
196795 On ch=1 n=a2 v=0
196800 On ch=1 n=g4 v=127
196800 On ch=1 n=c5 v=127
196800 On ch=1 n=d5 v=127
196800 On ch=1 n=b2 v=80
196800 On ch=1 n=b3 v=80
197035 On ch=1 n=b3 v=0
197035 On ch=1 n=b2 v=0
197040 On ch=1 n=c3 v=83
197040 On ch=1 n=c4 v=83
197200 On ch=1 n=d5 v=0
197200 On ch=1 n=c5 v=0
197200 On ch=1 n=g4 v=0
197275 On ch=1 n=c4 v=0
197275 On ch=1 n=c3 v=0
197280 On ch=1 n=g4 v=127
197280 On ch=1 n=c5 v=127
197280 On ch=1 n=d5 v=127
197280 On ch=1 n=d3 v=86
197280 On ch=1 n=d4 v=86
197515 On ch=1 n=d4 v=0
197515 On ch=1 n=d3 v=0
197520 On ch=1 n=e3 v=89
197520 On ch=1 n=e4 v=89
197680 On ch=1 n=d5 v=0
197680 On ch=1 n=c5 v=0
197680 On ch=1 n=g4 v=0
197755 On ch=1 n=e4 v=0
197755 On ch=1 n=e3 v=0
197760 On ch=1 n=g4 v=127
197760 On ch=1 n=b4 v=127
197760 On ch=1 n=d5 v=127
197760 On ch=1 n=d3 v=92
197760 On ch=1 n=d4 v=92
198160 On ch=1 n=d4 v=0
198160 On ch=1 n=d3 v=0
198160 On ch=1 n=d5 v=0
198160 On ch=1 n=b4 v=0
198160 On ch=1 n=g4 v=0
198240 On ch=1 n=g4 v=127
198240 On ch=1 n=d5 v=127
198240 On ch=1 n=g5 v=127
198240 On ch=1 n=b2 v=127
198240 On ch=1 n=b3 v=127
198640 On ch=1 n=b3 v=0
198640 On ch=1 n=b2 v=0
198640 On ch=1 n=g5 v=0
198640 On ch=1 n=d5 v=0
198640 On ch=1 n=g4 v=0
198720 On ch=1 n=a4 v=127
198720 On ch=1 n=d5 v=127
198720 On ch=1 n=f#5 v=127
198720 On ch=1 n=a2 v=127
198720 On ch=1 n=a3 v=127
199120 On ch=1 n=a3 v=0
199120 On ch=1 n=a2 v=0
199120 On ch=1 n=f#5 v=0
199120 On ch=1 n=d5 v=0
199120 On ch=1 n=a4 v=0
199200 On ch=1 n=b4 v=127
199200 On ch=1 n=d5 v=127
199200 On ch=1 n=e5 v=127
199200 On ch=1 n=g2 v=127
199200 On ch=1 n=g3 v=127
199555 On ch=1 n=g3 v=0
199555 On ch=1 n=g2 v=0
199555 On ch=1 n=e5 v=0
199555 On ch=1 n=d5 v=0
199555 On ch=1 n=b4 v=0
199560 On ch=1 n=b4 v=108
199560 On ch=1 n=d5 v=108
199560 On ch=1 n=f#5 v=108
199560 On ch=1 n=f#2 v=92
199560 On ch=1 n=f#3 v=92
199675 On ch=1 n=f#3 v=0
199675 On ch=1 n=f#2 v=0
199675 On ch=1 n=f#5 v=0
199675 On ch=1 n=d5 v=0
199675 On ch=1 n=b4 v=0
199680 On ch=1 n=b4 v=127
199680 On ch=1 n=d5 v=127
199680 On ch=1 n=g5 v=127
199680 On ch=1 n=e2 v=127
199680 On ch=1 n=e3 v=127
200080 On ch=1 n=e3 v=0
200080 On ch=1 n=e2 v=0
200080 On ch=1 n=g5 v=0
200080 On ch=1 n=d5 v=0
200080 On ch=1 n=b4 v=0
200160 On ch=1 n=g4 v=127
200160 On ch=1 n=a4 v=127
200160 On ch=1 n=c#5 v=127
200160 On ch=1 n=e5 v=127
200160 On ch=1 n=a2 v=127
200160 On ch=1 n=a3 v=127
200560 On ch=1 n=a3 v=0
200560 On ch=1 n=a2 v=0
200560 On ch=1 n=e5 v=0
200560 On ch=1 n=c#5 v=0
200560 On ch=1 n=a4 v=0
200560 On ch=1 n=g4 v=0
200640 On ch=1 n=f#4 v=127
200640 On ch=1 n=a4 v=127
200640 On ch=1 n=d5 v=127
200640 On ch=1 n=d3 v=127
200640 On ch=1 n=d4 v=127
201040 On ch=1 n=d4 v=0
201040 On ch=1 n=d3 v=0
201040 On ch=1 n=d5 v=0
201040 On ch=1 n=a4 v=0
201040 On ch=1 n=f#4 v=0
201600 On ch=1 n=a4 v=108
201600 On ch=1 n=c#5 v=108
201600 On ch=1 n=e5 v=108
201600 On ch=1 n=a5 v=108
201600 On ch=1 n=a2 v=92
201600 On ch=1 n=a3 v=92
201835 On ch=1 n=a3 v=0
201835 On ch=1 n=a2 v=0
201840 On ch=1 n=c#4 v=92
202000 On ch=1 n=a5 v=0
202000 On ch=1 n=e5 v=0
202000 On ch=1 n=c#5 v=0
202000 On ch=1 n=a4 v=0
202075 On ch=1 n=c#4 v=0
202080 On ch=1 n=a4 v=108
202080 On ch=1 n=d5 v=108
202080 On ch=1 n=f#5 v=108
202080 On ch=1 n=a5 v=108
202080 On ch=1 n=d3 v=127
202080 On ch=1 n=d4 v=127
202315 On ch=1 n=d4 v=0
202315 On ch=1 n=d3 v=0
202320 On ch=1 n=a2 v=92
202320 On ch=1 n=a3 v=92
202555 On ch=1 n=a3 v=0
202555 On ch=1 n=a2 v=0
202560 On ch=1 n=g2 v=92
202560 On ch=1 n=g3 v=92
202795 On ch=1 n=g3 v=0
202795 On ch=1 n=g2 v=0
202800 On ch=1 n=f#2 v=92
202800 On ch=1 n=f#3 v=92
202920 On ch=1 n=a5 v=0
202920 On ch=1 n=f#5 v=0
202920 On ch=1 n=d5 v=0
202920 On ch=1 n=a4 v=0
203035 On ch=1 n=f#3 v=0
203035 On ch=1 n=f#2 v=0
203040 On ch=1 n=a4 v=108
203040 On ch=1 n=d5 v=108
203040 On ch=1 n=f#5 v=108
203040 On ch=1 n=a5 v=108
203040 On ch=1 n=f#2 v=92
203040 On ch=1 n=f#3 v=92
203440 On ch=1 n=f#3 v=0
203440 On ch=1 n=f#2 v=0
203440 On ch=1 n=a5 v=0
203440 On ch=1 n=f#5 v=0
203440 On ch=1 n=d5 v=0
203440 On ch=1 n=a4 v=0
203520 On ch=1 n=d5 v=127
203520 On ch=1 n=e5 v=127
203520 On ch=1 n=g5 v=127
203520 On ch=1 n=b5 v=127
203520 On ch=1 n=d3 v=127
203520 On ch=1 n=d4 v=127
203755 On ch=1 n=d4 v=0
203755 On ch=1 n=d3 v=0
203760 On ch=1 n=b2 v=92
203760 On ch=1 n=b3 v=92
203995 On ch=1 n=b3 v=0
203995 On ch=1 n=b2 v=0
204000 On ch=1 n=a2 v=92
204000 On ch=1 n=a3 v=92
204235 On ch=1 n=a3 v=0
204235 On ch=1 n=a2 v=0
204240 On ch=1 n=g2 v=92
204240 On ch=1 n=g3 v=92
204360 On ch=1 n=b5 v=0
204360 On ch=1 n=g5 v=0
204360 On ch=1 n=e5 v=0
204360 On ch=1 n=d5 v=0
204475 On ch=1 n=g3 v=0
204475 On ch=1 n=g2 v=0
204480 On ch=1 n=d5 v=108
204480 On ch=1 n=e5 v=108
204480 On ch=1 n=g5 v=108
204480 On ch=1 n=b5 v=108
204480 On ch=1 n=g2 v=92
204480 On ch=1 n=g3 v=92
204880 On ch=1 n=g3 v=0
204880 On ch=1 n=g2 v=0
204880 On ch=1 n=b5 v=0
204880 On ch=1 n=g5 v=0
204880 On ch=1 n=e5 v=0
204880 On ch=1 n=d5 v=0
204960 On ch=1 n=g4 v=127
204960 On ch=1 n=a4 v=127
204960 On ch=1 n=c#5 v=127
204960 On ch=1 n=e5 v=127
204960 On ch=1 n=a2 v=127
204960 On ch=1 n=a3 v=127
205195 On ch=1 n=a3 v=0
205195 On ch=1 n=a2 v=0
205200 On ch=1 n=e2 v=92
205200 On ch=1 n=e3 v=92
205360 On ch=1 n=e5 v=0
205360 On ch=1 n=c#5 v=0
205360 On ch=1 n=a4 v=0
205360 On ch=1 n=g4 v=0
205435 On ch=1 n=e3 v=0
205435 On ch=1 n=e2 v=0
205440 On ch=1 n=g4 v=127
205440 On ch=1 n=a4 v=127
205440 On ch=1 n=c#5 v=127
205440 On ch=1 n=e5 v=127
205440 On ch=1 n=d2 v=92
205440 On ch=1 n=d3 v=92
205675 On ch=1 n=d3 v=0
205675 On ch=1 n=d2 v=0
205680 On ch=1 n=c#2 v=92
205680 On ch=1 n=c#3 v=92
205840 On ch=1 n=e5 v=0
205840 On ch=1 n=c#5 v=0
205840 On ch=1 n=a4 v=0
205840 On ch=1 n=g4 v=0
205915 On ch=1 n=c#3 v=0
205915 On ch=1 n=c#2 v=0
205920 On ch=1 n=g4 v=127
205920 On ch=1 n=a4 v=127
205920 On ch=1 n=c#5 v=127
205920 On ch=1 n=e5 v=127
205920 On ch=1 n=c#2 v=92
205920 On ch=1 n=c#3 v=92
206320 On ch=1 n=c#3 v=0
206320 On ch=1 n=c#2 v=0
206320 On ch=1 n=e5 v=0
206320 On ch=1 n=c#5 v=0
206320 On ch=1 n=a4 v=0
206320 On ch=1 n=g4 v=0
206400 On ch=1 n=c5 v=108
206400 On ch=1 n=d5 v=108
206400 On ch=1 n=a5 v=108
206400 On ch=1 n=d3 v=127
206400 On ch=1 n=d4 v=127
206635 On ch=1 n=d4 v=0
206635 On ch=1 n=d3 v=0
206640 On ch=1 n=a2 v=92
206640 On ch=1 n=a3 v=92
206875 On ch=1 n=a3 v=0
206875 On ch=1 n=a2 v=0
206880 On ch=1 n=g2 v=92
206880 On ch=1 n=g3 v=92
207115 On ch=1 n=g3 v=0
207115 On ch=1 n=g2 v=0
207120 On ch=1 n=f#2 v=92
207120 On ch=1 n=f#3 v=92
207355 On ch=1 n=f#3 v=0
207355 On ch=1 n=f#2 v=0
207360 On ch=1 n=f#2 v=92
207360 On ch=1 n=f#3 v=92
207720 On ch=1 n=a5 v=0
207720 On ch=1 n=d5 v=0
207720 On ch=1 n=c5 v=0
207760 On ch=1 n=f#3 v=0
207760 On ch=1 n=f#2 v=0
207840 On ch=1 n=g4 v=127
207840 On ch=1 n=c5 v=127
207840 On ch=1 n=d5 v=127
207840 On ch=1 n=g2 v=75
207840 On ch=1 n=g3 v=75
208075 On ch=1 n=g3 v=0
208075 On ch=1 n=g2 v=0
208080 On ch=1 n=a2 v=77
208080 On ch=1 n=a3 v=77
208240 On ch=1 n=d5 v=0
208240 On ch=1 n=c5 v=0
208240 On ch=1 n=g4 v=0
208315 On ch=1 n=a3 v=0
208315 On ch=1 n=a2 v=0
208320 On ch=1 n=g4 v=127
208320 On ch=1 n=c5 v=127
208320 On ch=1 n=d5 v=127
208320 On ch=1 n=b2 v=80
208320 On ch=1 n=b3 v=80
208555 On ch=1 n=b3 v=0
208555 On ch=1 n=b2 v=0
208560 On ch=1 n=c3 v=83
208560 On ch=1 n=c4 v=83
208720 On ch=1 n=d5 v=0
208720 On ch=1 n=c5 v=0
208720 On ch=1 n=g4 v=0
208795 On ch=1 n=c4 v=0
208795 On ch=1 n=c3 v=0
208800 On ch=1 n=g4 v=127
208800 On ch=1 n=c5 v=127
208800 On ch=1 n=d5 v=127
208800 On ch=1 n=d3 v=86
208800 On ch=1 n=d4 v=86
209035 On ch=1 n=d4 v=0
209035 On ch=1 n=d3 v=0
209040 On ch=1 n=e3 v=89
209040 On ch=1 n=e4 v=89
209200 On ch=1 n=d5 v=0
209200 On ch=1 n=c5 v=0
209200 On ch=1 n=g4 v=0
209275 On ch=1 n=e4 v=0
209275 On ch=1 n=e3 v=0
209280 On ch=1 n=g4 v=127
209280 On ch=1 n=b4 v=127
209280 On ch=1 n=d5 v=127
209280 On ch=1 n=d3 v=92
209280 On ch=1 n=d4 v=92
209680 On ch=1 n=d4 v=0
209680 On ch=1 n=d3 v=0
209680 On ch=1 n=d5 v=0
209680 On ch=1 n=b4 v=0
209680 On ch=1 n=g4 v=0
209760 On ch=1 n=g4 v=127
209760 On ch=1 n=d5 v=127
209760 On ch=1 n=g5 v=127
209760 On ch=1 n=b2 v=127
209760 On ch=1 n=b3 v=127
210160 On ch=1 n=b3 v=0
210160 On ch=1 n=b2 v=0
210160 On ch=1 n=g5 v=0
210160 On ch=1 n=d5 v=0
210160 On ch=1 n=g4 v=0
210240 On ch=1 n=a4 v=127
210240 On ch=1 n=d5 v=127
210240 On ch=1 n=f#5 v=127
210240 On ch=1 n=a2 v=127
210240 On ch=1 n=a3 v=127
210640 On ch=1 n=a3 v=0
210640 On ch=1 n=a2 v=0
210640 On ch=1 n=f#5 v=0
210640 On ch=1 n=d5 v=0
210640 On ch=1 n=a4 v=0
210720 On ch=1 n=b4 v=127
210720 On ch=1 n=d5 v=127
210720 On ch=1 n=e5 v=127
210720 On ch=1 n=g2 v=127
210720 On ch=1 n=g3 v=127
211075 On ch=1 n=g3 v=0
211075 On ch=1 n=g2 v=0
211075 On ch=1 n=e5 v=0
211075 On ch=1 n=d5 v=0
211075 On ch=1 n=b4 v=0
211080 On ch=1 n=b4 v=108
211080 On ch=1 n=d5 v=108
211080 On ch=1 n=f#5 v=108
211080 On ch=1 n=f#2 v=92
211080 On ch=1 n=f#3 v=92
211195 On ch=1 n=f#3 v=0
211195 On ch=1 n=f#2 v=0
211195 On ch=1 n=f#5 v=0
211195 On ch=1 n=d5 v=0
211195 On ch=1 n=b4 v=0
211200 On ch=1 n=b4 v=127
211200 On ch=1 n=d5 v=127
211200 On ch=1 n=g5 v=127
211200 On ch=1 n=e2 v=127
211200 On ch=1 n=e3 v=127
211600 On ch=1 n=e3 v=0
211600 On ch=1 n=e2 v=0
211600 On ch=1 n=g5 v=0
211600 On ch=1 n=d5 v=0
211600 On ch=1 n=b4 v=0
211680 On ch=1 n=g4 v=127
211680 On ch=1 n=a4 v=127
211680 On ch=1 n=c#5 v=127
211680 On ch=1 n=e5 v=127
211680 On ch=1 n=a2 v=127
211680 On ch=1 n=a3 v=127
212080 On ch=1 n=a3 v=0
212080 On ch=1 n=a2 v=0
212080 On ch=1 n=e5 v=0
212080 On ch=1 n=c#5 v=0
212080 On ch=1 n=a4 v=0
212080 On ch=1 n=g4 v=0
212160 On ch=1 n=f#4 v=127
212160 On ch=1 n=a4 v=127
212160 On ch=1 n=d5 v=127
212160 On ch=1 n=d3 v=127
212160 On ch=1 n=d4 v=127
212560 On ch=1 n=d4 v=0
212560 On ch=1 n=d3 v=0
212560 On ch=1 n=d5 v=0
212560 On ch=1 n=a4 v=0
212560 On ch=1 n=f#4 v=0
213120 On ch=1 n=c#6 v=108
213120 On ch=1 n=e6 v=108
213120 On ch=1 n=a6 v=108
213120 On ch=1 n=a3 v=92
213120 On ch=1 n=a4 v=92
213355 On ch=1 n=a4 v=0
213355 On ch=1 n=a3 v=0
213360 On ch=1 n=c#4 v=92
213360 On ch=1 n=c#5 v=92
213595 On ch=1 n=c#5 v=0
213595 On ch=1 n=c#4 v=0
213600 On ch=1 n=a6 v=0
213600 On ch=1 n=e6 v=0
213600 On ch=1 n=c#6 v=0
213600 On ch=1 n=b5 v=108
213600 On ch=1 n=e6 v=108
213600 On ch=1 n=g#6 v=108
213600 On ch=1 n=e4 v=92
213600 On ch=1 n=e5 v=92
213955 On ch=1 n=e5 v=0
213955 On ch=1 n=e4 v=0
213955 On ch=1 n=g#6 v=0
213955 On ch=1 n=e6 v=0
213955 On ch=1 n=b5 v=0
213960 On ch=1 n=a5 v=108
213960 On ch=1 n=d#6 v=108
213960 On ch=1 n=f#6 v=108
213960 On ch=1 n=c4 v=92
213960 On ch=1 n=c5 v=92
214075 On ch=1 n=c5 v=0
214075 On ch=1 n=c4 v=0
214075 On ch=1 n=f#6 v=0
214075 On ch=1 n=d#6 v=0
214075 On ch=1 n=a5 v=0
214080 On ch=1 n=g#5 v=127
214080 On ch=1 n=c#6 v=127
214080 On ch=1 n=e6 v=127
214080 On ch=1 n=c#4 v=127
214080 On ch=1 n=c#5 v=127
214480 On ch=1 n=c#5 v=0
214480 On ch=1 n=c#4 v=0
214480 On ch=1 n=e6 v=0
214480 On ch=1 n=c#6 v=0
214480 On ch=1 n=g#5 v=0
214560 On ch=1 n=a5 v=127
214560 On ch=1 n=c#6 v=127
214560 On ch=1 n=f#6 v=127
214560 On ch=1 n=a3 v=127
214560 On ch=1 n=a4 v=127
214960 On ch=1 n=a4 v=0
214960 On ch=1 n=a3 v=0
214960 On ch=1 n=f#6 v=0
214960 On ch=1 n=c#6 v=0
214960 On ch=1 n=a5 v=0
215040 On ch=1 n=f#5 v=127
215040 On ch=1 n=b5 v=127
215040 On ch=1 n=d#6 v=127
215040 On ch=1 n=b3 v=127
215040 On ch=1 n=b4 v=127
215440 On ch=1 n=b4 v=0
215440 On ch=1 n=b3 v=0
215440 On ch=1 n=d#6 v=0
215440 On ch=1 n=b5 v=0
215440 On ch=1 n=f#5 v=0
215520 On ch=1 n=g#5 v=127
215520 On ch=1 n=b5 v=127
215520 On ch=1 n=e6 v=127
215520 On ch=1 n=e3 v=127
215520 On ch=1 n=e4 v=127
215920 On ch=1 n=e4 v=0
215920 On ch=1 n=e3 v=0
215920 On ch=1 n=e6 v=0
215920 On ch=1 n=b5 v=0
215920 On ch=1 n=g#5 v=0
216000 On ch=1 n=b5 v=108
216000 On ch=1 n=d6 v=108
216000 On ch=1 n=f#5 v=92
216000 On ch=1 n=f#3 v=92
216000 On ch=1 n=f#4 v=92
216235 On ch=1 n=f#4 v=0
216235 On ch=1 n=f#3 v=0
216235 On ch=1 n=f#5 v=0
216240 On ch=1 n=e5 v=92
216240 On ch=1 n=g#3 v=92
216240 On ch=1 n=g#4 v=92
216400 On ch=1 n=d6 v=0
216400 On ch=1 n=b5 v=0
216475 On ch=1 n=g#4 v=0
216475 On ch=1 n=g#3 v=0
216475 On ch=1 n=e5 v=0
216480 On ch=1 n=e5 v=108
216480 On ch=1 n=a5 v=108
216480 On ch=1 n=c#6 v=108
216480 On ch=1 n=a3 v=92
216480 On ch=1 n=a4 v=92
216835 On ch=1 n=a4 v=0
216835 On ch=1 n=a3 v=0
216835 On ch=1 n=c#6 v=0
216835 On ch=1 n=a5 v=0
216835 On ch=1 n=e5 v=0
216840 On ch=1 n=d5 v=108
216840 On ch=1 n=g#5 v=108
216840 On ch=1 n=b5 v=108
216840 On ch=1 n=f3 v=92
216840 On ch=1 n=f4 v=92
216955 On ch=1 n=f4 v=0
216955 On ch=1 n=f3 v=0
216955 On ch=1 n=b5 v=0
216955 On ch=1 n=g#5 v=0
216955 On ch=1 n=d5 v=0
216960 On ch=1 n=c#5 v=127
216960 On ch=1 n=f#5 v=127
216960 On ch=1 n=a5 v=127
216960 On ch=1 n=f#3 v=127
216960 On ch=1 n=f#4 v=127
217360 On ch=1 n=f#4 v=0
217360 On ch=1 n=f#3 v=0
217360 On ch=1 n=a5 v=0
217360 On ch=1 n=f#5 v=0
217360 On ch=1 n=c#5 v=0
217440 On ch=1 n=d5 v=127
217440 On ch=1 n=f#5 v=127
217440 On ch=1 n=b5 v=127
217440 On ch=1 n=d3 v=127
217440 On ch=1 n=d4 v=127
217840 On ch=1 n=d4 v=0
217840 On ch=1 n=d3 v=0
217840 On ch=1 n=b5 v=0
217840 On ch=1 n=f#5 v=0
217840 On ch=1 n=d5 v=0
217920 On ch=1 n=b4 v=127
217920 On ch=1 n=e5 v=127
217920 On ch=1 n=g#5 v=127
217920 On ch=1 n=e3 v=127
217920 On ch=1 n=e4 v=127
218320 On ch=1 n=e4 v=0
218320 On ch=1 n=e3 v=0
218320 On ch=1 n=g#5 v=0
218320 On ch=1 n=e5 v=0
218320 On ch=1 n=b4 v=0
218400 On ch=1 n=c#5 v=127
218400 On ch=1 n=e5 v=127
218400 On ch=1 n=a5 v=127
218400 On ch=1 n=a2 v=127
218400 On ch=1 n=a3 v=127
218800 On ch=1 n=a3 v=0
218800 On ch=1 n=a2 v=0
218800 On ch=1 n=a5 v=0
218800 On ch=1 n=e5 v=0
218800 On ch=1 n=c#5 v=0
218880 On ch=1 n=c#5 v=92
218880 On ch=1 n=e5 v=92
218880 On ch=1 n=a5 v=92
218880 On ch=1 n=a2 v=75
218880 On ch=1 n=a3 v=75
219115 On ch=1 n=a3 v=0
219115 On ch=1 n=a2 v=0
219120 On ch=1 n=c#3 v=75
219120 On ch=1 n=c#4 v=75
219355 On ch=1 n=c#4 v=0
219355 On ch=1 n=c#3 v=0
219360 On ch=1 n=a5 v=0
219360 On ch=1 n=e5 v=0
219360 On ch=1 n=c#5 v=0
219360 On ch=1 n=b4 v=92
219360 On ch=1 n=e5 v=92
219360 On ch=1 n=g#5 v=92
219360 On ch=1 n=e3 v=75
219360 On ch=1 n=e4 v=75
219715 On ch=1 n=e4 v=0
219715 On ch=1 n=e3 v=0
219715 On ch=1 n=g#5 v=0
219715 On ch=1 n=e5 v=0
219715 On ch=1 n=b4 v=0
219720 On ch=1 n=a4 v=92
219720 On ch=1 n=d#5 v=92
219720 On ch=1 n=f#5 v=92
219720 On ch=1 n=c3 v=75
219720 On ch=1 n=c4 v=75
219835 On ch=1 n=c4 v=0
219835 On ch=1 n=c3 v=0
219835 On ch=1 n=f#5 v=0
219835 On ch=1 n=d#5 v=0
219835 On ch=1 n=a4 v=0
219840 On ch=1 n=g#4 v=127
219840 On ch=1 n=c#5 v=127
219840 On ch=1 n=e5 v=127
219840 On ch=1 n=c#3 v=105
219840 On ch=1 n=c#4 v=105
220240 On ch=1 n=c#4 v=0
220240 On ch=1 n=c#3 v=0
220240 On ch=1 n=e5 v=0
220240 On ch=1 n=c#5 v=0
220240 On ch=1 n=g#4 v=0
220320 On ch=1 n=a4 v=127
220320 On ch=1 n=c#5 v=127
220320 On ch=1 n=f#5 v=127
220320 On ch=1 n=a2 v=105
220320 On ch=1 n=a3 v=105
220720 On ch=1 n=a3 v=0
220720 On ch=1 n=a2 v=0
220720 On ch=1 n=f#5 v=0
220720 On ch=1 n=c#5 v=0
220720 On ch=1 n=a4 v=0
220800 Tempo 461538
220800 On ch=1 n=f#4 v=127
220800 On ch=1 n=b4 v=127
220800 On ch=1 n=d#5 v=127
220800 On ch=1 n=b2 v=105
220800 On ch=1 n=b3 v=105
220870 Tempo 465116
220942 Tempo 468750
221015 Tempo 472440
221087 Tempo 476190
221157 Tempo 480000
221200 On ch=1 n=b3 v=0
221200 On ch=1 n=b2 v=0
221200 On ch=1 n=d#5 v=0
221200 On ch=1 n=b4 v=0
221200 On ch=1 n=f#4 v=0
221230 Tempo 483870
221280 On ch=1 n=g#4 v=126
221280 On ch=1 n=b4 v=126
221280 On ch=1 n=e5 v=126
221280 On ch=1 n=e2 v=102
221280 On ch=1 n=e3 v=102
221302 Tempo 487804
221375 Tempo 491803
221447 Tempo 495867
221517 Tempo 500000
221590 Tempo 504201
221662 Tempo 508474
221680 On ch=1 n=e3 v=0
221680 On ch=1 n=e2 v=0
221680 On ch=1 n=e5 v=0
221680 On ch=1 n=b4 v=0
221680 On ch=1 n=g#4 v=0
221735 Tempo 512820
221760 On ch=1 n=b4 v=87
221760 On ch=1 n=d5 v=87
221760 On ch=1 n=f#4 v=92
221760 On ch=1 n=f#2 v=71
221760 On ch=1 n=f#3 v=71
221807 Tempo 517241
221877 Tempo 521739
221950 Tempo 526315
221995 On ch=1 n=f#3 v=0
221995 On ch=1 n=f#2 v=0
221995 On ch=1 n=f#4 v=0
222000 On ch=1 n=e4 v=92
222000 On ch=1 n=g#2 v=70
222000 On ch=1 n=g#3 v=70
222022 Tempo 530973
222095 Tempo 535714
222167 Tempo 540540
222235 On ch=1 n=g#3 v=0
222235 On ch=1 n=g#2 v=0
222235 On ch=1 n=e4 v=0
222237 Tempo 545454
222240 On ch=1 n=d5 v=0
222240 On ch=1 n=b4 v=0
222240 On ch=1 n=e4 v=84
222240 On ch=1 n=a4 v=84
222240 On ch=1 n=c#5 v=84
222240 On ch=1 n=a2 v=69
222240 On ch=1 n=a3 v=69
222310 Tempo 550458
222382 Tempo 555555
222455 Tempo 560747
222527 Tempo 566037
222595 On ch=1 n=a3 v=0
222595 On ch=1 n=a2 v=0
222595 On ch=1 n=c#5 v=0
222595 On ch=1 n=a4 v=0
222595 On ch=1 n=e4 v=0
222597 Tempo 571428
222600 On ch=1 n=d4 v=82
222600 On ch=1 n=g#4 v=82
222600 On ch=1 n=b4 v=82
222600 On ch=1 n=f2 v=67
222600 On ch=1 n=f3 v=67
222670 Tempo 576923
222715 On ch=1 n=f3 v=0
222715 On ch=1 n=f2 v=0
222715 On ch=1 n=b4 v=0
222715 On ch=1 n=g#4 v=0
222715 On ch=1 n=d4 v=0
222720 On ch=1 n=c#4 v=114
222720 On ch=1 n=f#4 v=114
222720 On ch=1 n=a4 v=114
222720 On ch=1 n=f#2 v=93
222720 On ch=1 n=f#3 v=93
222742 Tempo 582524
222815 Tempo 588235
222887 Tempo 594059
222957 Tempo 600000
223030 Tempo 606060
223102 Tempo 612244
223120 On ch=1 n=f#3 v=0
223120 On ch=1 n=f#2 v=0
223120 On ch=1 n=a4 v=0
223120 On ch=1 n=f#4 v=0
223120 On ch=1 n=c#4 v=0
223175 Tempo 618556
223200 On ch=1 n=d4 v=110
223200 On ch=1 n=f#4 v=110
223200 On ch=1 n=b4 v=110
223200 On ch=1 n=d2 v=89
223200 On ch=1 n=d3 v=89
223247 Tempo 625000
223317 Tempo 631578
223390 Tempo 638297
223462 Tempo 645161
223535 Tempo 652173
223600 On ch=1 n=d3 v=0
223600 On ch=1 n=d2 v=0
223600 On ch=1 n=b4 v=0
223600 On ch=1 n=f#4 v=0
223600 On ch=1 n=d4 v=0
223607 Tempo 659340
223680 Tempo 666666
223680 On ch=1 n=b3 v=105
223680 On ch=1 n=e4 v=105
223680 On ch=1 n=g#4 v=105
223680 On ch=1 n=e2 v=84
223680 On ch=1 n=e3 v=84
224080 On ch=1 n=e3 v=0
224080 On ch=1 n=e2 v=0
224080 On ch=1 n=g#4 v=0
224080 On ch=1 n=e4 v=0
224080 On ch=1 n=b3 v=0
224160 On ch=1 n=c#4 v=105
224160 On ch=1 n=e4 v=105
224160 On ch=1 n=a4 v=105
224160 On ch=1 n=a2 v=84
224160 On ch=1 n=e3 v=84
224560 On ch=1 n=e3 v=0
224560 On ch=1 n=a2 v=0
224560 On ch=1 n=a4 v=0
224560 On ch=1 n=e4 v=0
224560 On ch=1 n=c#4 v=0
226560 Meta Text "Tr\xffffffe4umerei"
226560 Tempo 857142
226560 KeySig -1 major
226560 TimeSig 4/4 24 8
228000 On ch=1 n=c5 v=60
228480 On ch=1 n=c5 v=0
228480 Par ch=1 c=64 v=127
228480 On ch=1 n=f5 v=60
228480 On ch=1 n=f3 v=45
228960 On ch=1 n=f4 v=45
228960 On ch=1 n=c5 v=45
228960 On ch=1 n=c4 v=45
228960 On ch=1 n=a4 v=45
229675 On ch=1 n=f5 v=0
229680 On ch=1 n=e5 v=60
229915 On ch=1 n=e5 v=0
229920 On ch=1 n=f5 v=63
230155 On ch=1 n=f5 v=0
230160 On ch=1 n=a5 v=66
230280 On ch=1 n=c5 v=0
230280 On ch=1 n=f4 v=0
230395 On ch=1 n=a5 v=0
230400 On ch=1 n=c6 v=69
230635 On ch=1 n=c6 v=0
230640 Par ch=1 c=64 v=0
230640 On ch=1 n=f6 v=72
230755 On ch=1 n=f3 v=0
230760 Par ch=1 c=64 v=127
230760 On ch=1 n=a#3 v=60
230800 On ch=1 n=a4 v=0
230800 On ch=1 n=c4 v=0
230815 On ch=1 n=a#3 v=0
230820 On ch=1 n=f4 v=60
230875 On ch=1 n=f6 v=0
230880 On ch=1 n=d5 v=60
230880 On ch=1 n=f5 v=60
230880 On ch=1 n=f6 v=75
231720 On ch=1 n=f6 v=0
231720 On ch=1 n=d5 v=0
231840 On ch=1 n=e6 v=75
231840 On ch=1 n=c5 v=60
232075 On ch=1 n=e6 v=0
232080 On ch=1 n=c5 v=0
232080 On ch=1 n=d6 v=74
232080 On ch=1 n=a#4 v=59
232200 On ch=1 n=f4 v=0
232315 On ch=1 n=d6 v=0
232320 On ch=1 n=a#4 v=0
232320 Tempo 857142
232320 Par ch=1 c=64 v=0
232320 On ch=1 n=c6 v=72
232320 On ch=1 n=a4 v=58
232320 On ch=1 n=c4 v=60
232555 On ch=1 n=c6 v=0
232560 On ch=1 n=f6 v=70
232720 On ch=1 n=c4 v=0
232720 On ch=1 n=a4 v=0
232720 On ch=1 n=f5 v=0
232795 On ch=1 n=f6 v=0
232800 On ch=1 n=g5 v=68
232800 On ch=1 n=e5 v=60
232800 On ch=1 n=a#4 v=56
232800 On ch=1 n=c4 v=60
233035 On ch=1 n=g5 v=0
233040 On ch=1 n=a#4 v=0
233040 On ch=1 n=a5 v=66
233040 On ch=1 n=a4 v=55
233087 Tempo 882352
233275 On ch=1 n=a5 v=0
233280 On ch=1 n=a4 v=0
233280 On ch=1 n=a#5 v=64
233280 On ch=1 n=g4 v=54
233515 On ch=1 n=a#5 v=0
233520 On ch=1 n=d6 v=62
233640 On ch=1 n=c4 v=0
233640 On ch=1 n=e5 v=0
233680 On ch=1 n=g4 v=0
233755 On ch=1 n=d6 v=0
233760 On ch=1 n=f5 v=60
233760 On ch=1 n=c5 v=60
233760 On ch=1 n=f4 v=51
233760 On ch=1 n=a3 v=60
233855 Tempo 909090
233995 On ch=1 n=a3 v=0
233995 On ch=1 n=f5 v=0
234000 On ch=1 n=f4 v=0
234000 On ch=1 n=e5 v=60
234000 On ch=1 n=g5 v=60
234000 On ch=1 n=g4 v=50
234000 On ch=1 n=c4 v=60
234235 On ch=1 n=c4 v=0
234235 On ch=1 n=g5 v=0
234235 On ch=1 n=e5 v=0
234240 On ch=1 n=g4 v=0
234240 On ch=1 n=f5 v=60
234240 On ch=1 n=a5 v=60
234240 On ch=1 n=a4 v=49
234240 On ch=1 n=f4 v=60
234475 On ch=1 n=a5 v=0
234475 On ch=1 n=f5 v=0
234480 On ch=1 n=c6 v=60
234622 Tempo 937500
234640 On ch=1 n=f4 v=0
234640 On ch=1 n=c5 v=0
234715 On ch=1 n=c6 v=0
234720 On ch=1 n=a4 v=0
234720 On ch=1 n=e5 v=60
234720 On ch=1 n=g5 v=60
234720 On ch=1 n=c5 v=60
234720 On ch=1 n=g4 v=45
234720 On ch=1 n=c4 v=60
234955 On ch=1 n=c4 v=0
234960 On ch=1 n=d4 v=60
235195 On ch=1 n=d4 v=0
235200 On ch=1 n=c4 v=57
235390 Tempo 967741
235435 On ch=1 n=c4 v=0
235440 On ch=1 n=a#3 v=54
235560 On ch=1 n=g4 v=0
235560 On ch=1 n=c5 v=0
235560 On ch=1 n=g5 v=0
235560 On ch=1 n=e5 v=0
235675 On ch=1 n=a#3 v=0
235680 On ch=1 n=c5 v=60
235680 On ch=1 n=g3 v=51
235915 On ch=1 n=g3 v=0
235920 On ch=1 n=a3 v=48
236080 On ch=1 n=c5 v=0
236155 On ch=1 n=a3 v=0
236160 Tempo 1000000
236160 Tempo 857142
236160 Par ch=1 c=64 v=127
236160 On ch=1 n=f5 v=60
236160 On ch=1 n=f3 v=45
236640 On ch=1 n=f4 v=45
236640 On ch=1 n=c5 v=45
236640 On ch=1 n=c4 v=45
236640 On ch=1 n=a4 v=45
237355 On ch=1 n=f5 v=0
237360 On ch=1 n=e5 v=60
237595 On ch=1 n=e5 v=0
237600 On ch=1 n=f5 v=63
237835 On ch=1 n=f5 v=0
237840 On ch=1 n=a5 v=66
237960 On ch=1 n=c5 v=0
237960 On ch=1 n=f4 v=0
238075 On ch=1 n=a5 v=0
238080 On ch=1 n=c6 v=69
238315 On ch=1 n=c6 v=0
238320 Par ch=1 c=64 v=0
238320 On ch=1 n=a6 v=72
238435 On ch=1 n=f3 v=0
238440 Par ch=1 c=64 v=127
238440 On ch=1 n=c#4 v=45
238480 On ch=1 n=a4 v=0
238480 On ch=1 n=c4 v=0
238495 On ch=1 n=c#4 v=0
238500 On ch=1 n=a4 v=45
238555 On ch=1 n=a6 v=0
238560 On ch=1 n=a6 v=75
238560 On ch=1 n=g5 v=60
238560 On ch=1 n=a5 v=60
238560 On ch=1 n=e5 v=60
239200 On ch=1 n=a6 v=0
239280 On ch=1 n=g6 v=75
239515 On ch=1 n=g6 v=0
239520 On ch=1 n=f6 v=73
239755 On ch=1 n=f6 v=0
239760 On ch=1 n=e6 v=71
239880 On ch=1 n=g5 v=0
239880 Par ch=1 c=64 v=0
239995 On ch=1 n=e6 v=0
240000 On ch=1 n=e5 v=0
240000 Tempo 857142
240000 Par ch=1 c=64 v=127
240000 On ch=1 n=f6 v=69
240000 On ch=1 n=d5 v=60
240000 On ch=1 n=d4 v=45
240235 On ch=1 n=f6 v=0
240240 On ch=1 n=a6 v=67
240475 On ch=1 n=a6 v=0
240480 On ch=1 n=d6 v=65
240640 On ch=1 n=d4 v=0
240640 On ch=1 n=d5 v=0
240640 On ch=1 n=a5 v=0
240640 On ch=1 n=a4 v=0
240715 On ch=1 n=d6 v=0
240720 On ch=1 n=f6 v=63
240720 On ch=1 n=g#5 v=60
240720 On ch=1 n=f4 v=45
240720 On ch=1 n=c5 v=45
240767 Tempo 882352
240840 Par ch=1 c=64 v=0
240955 On ch=1 n=f4 v=0
240955 On ch=1 n=g#5 v=0
240955 On ch=1 n=f6 v=0
240960 Par ch=1 c=64 v=127
240960 On ch=1 n=e6 v=60
240960 On ch=1 n=g5 v=59
240960 On ch=1 n=g4 v=45
241195 On ch=1 n=g5 v=0
241200 On ch=1 n=c6 v=58
241435 On ch=1 n=c6 v=0
241440 On ch=1 n=e5 v=57
241535 Tempo 909090
241600 On ch=1 n=g4 v=0
241600 On ch=1 n=e6 v=0
241600 On ch=1 n=c5 v=0
241675 On ch=1 n=e5 v=0
241680 On ch=1 n=d#6 v=60
241680 On ch=1 n=f#5 v=55
241680 On ch=1 n=c5 v=60
241680 On ch=1 n=a4 v=45
241800 Par ch=1 c=64 v=0
241915 On ch=1 n=a4 v=0
241915 On ch=1 n=c5 v=0
241915 On ch=1 n=f#5 v=0
241915 On ch=1 n=d#6 v=0
241920 Par ch=1 c=64 v=127
241920 On ch=1 n=d6 v=60
241920 On ch=1 n=f5 v=53
241920 On ch=1 n=b4 v=57
241920 On ch=1 n=g4 v=45
242155 On ch=1 n=b4 v=0
242160 On ch=1 n=g5 v=54
242302 Tempo 937500
242320 On ch=1 n=d6 v=0
242395 On ch=1 n=g5 v=0
242400 On ch=1 n=e6 v=45
242400 On ch=1 n=a4 v=51
242635 On ch=1 n=a4 v=0
242640 On ch=1 n=b4 v=48
242755 On ch=1 n=e6 v=0
242760 On ch=1 n=g4 v=0
242760 On ch=1 n=f5 v=0
242760 Par ch=1 c=64 v=0
242760 On ch=1 n=c6 v=45
242875 On ch=1 n=c6 v=0
242875 On ch=1 n=b4 v=0
242880 On ch=1 n=c6 v=45
242880 On ch=1 n=e5 v=45
242880 On ch=1 n=c5 v=45
242880 On ch=1 n=c4 v=45
243070 Tempo 967741
243115 On ch=1 n=c4 v=0
243115 On ch=1 n=c5 v=0
243120 On ch=1 n=d4 v=45
243280 On ch=1 n=e5 v=0
243355 On ch=1 n=d4 v=0
243360 On ch=1 n=a#3 v=45
243595 On ch=1 n=a#3 v=0
243600 On ch=1 n=c5 v=60
243600 On ch=1 n=g3 v=45
243720 On ch=1 n=c6 v=0
243835 On ch=1 n=g3 v=0
243835 On ch=1 n=c5 v=0
243840 Tempo 1000000
243840 Par ch=1 c=64 v=127
243840 On ch=1 n=f5 v=45
243840 On ch=1 n=f3 v=45
244320 On ch=1 n=f4 v=45
244320 On ch=1 n=c5 v=45
244320 On ch=1 n=c4 v=45
244320 On ch=1 n=a4 v=45
245035 On ch=1 n=f5 v=0
245040 On ch=1 n=e5 v=45
245275 On ch=1 n=e5 v=0
245280 On ch=1 n=f5 v=51
245515 On ch=1 n=f5 v=0
245520 On ch=1 n=a5 v=57
245640 On ch=1 n=c5 v=0
245640 On ch=1 n=f4 v=0
245755 On ch=1 n=a5 v=0
245760 On ch=1 n=c6 v=63
245995 On ch=1 n=c6 v=0
246000 Par ch=1 c=64 v=0
246000 On ch=1 n=f6 v=69
246115 On ch=1 n=f3 v=0
246120 Par ch=1 c=64 v=127
246120 On ch=1 n=a#3 v=60
246160 On ch=1 n=a4 v=0
246160 On ch=1 n=c4 v=0
246175 On ch=1 n=a#3 v=0
246180 On ch=1 n=f4 v=60
246235 On ch=1 n=f6 v=0
246240 On ch=1 n=f6 v=75
246240 On ch=1 n=f5 v=60
246240 On ch=1 n=d5 v=60
247080 On ch=1 n=d5 v=0
247080 On ch=1 n=f6 v=0
247200 On ch=1 n=e6 v=75
247200 On ch=1 n=c5 v=60
247435 On ch=1 n=e6 v=0
247440 On ch=1 n=c5 v=0
247440 On ch=1 n=d6 v=74
247440 On ch=1 n=a#4 v=59
247560 On ch=1 n=f4 v=0
247675 On ch=1 n=d6 v=0
247680 On ch=1 n=a#4 v=0
247680 Tempo 857142
247680 Par ch=1 c=64 v=0
247680 On ch=1 n=c6 v=72
247680 On ch=1 n=a4 v=58
247680 On ch=1 n=c4 v=60
247915 On ch=1 n=c6 v=0
247920 On ch=1 n=f6 v=70
248080 On ch=1 n=c4 v=0
248080 On ch=1 n=a4 v=0
248080 On ch=1 n=f5 v=0
248155 On ch=1 n=f6 v=0
248160 On ch=1 n=g5 v=68
248160 On ch=1 n=e5 v=60
248160 On ch=1 n=a#4 v=56
248160 On ch=1 n=c4 v=60
248395 On ch=1 n=g5 v=0
248400 On ch=1 n=a#4 v=0
248400 On ch=1 n=a5 v=66
248400 On ch=1 n=a4 v=55
248447 Tempo 882352
248635 On ch=1 n=a5 v=0
248640 On ch=1 n=a4 v=0
248640 On ch=1 n=a#5 v=64
248640 On ch=1 n=g4 v=54
248875 On ch=1 n=a#5 v=0
248880 On ch=1 n=d6 v=62
249000 On ch=1 n=c4 v=0
249000 On ch=1 n=e5 v=0
249040 On ch=1 n=g4 v=0
249115 On ch=1 n=d6 v=0
249120 On ch=1 n=f5 v=60
249120 On ch=1 n=c5 v=60
249120 On ch=1 n=f4 v=51
249120 On ch=1 n=a3 v=60
249215 Tempo 909090
249355 On ch=1 n=a3 v=0
249355 On ch=1 n=f5 v=0
249360 On ch=1 n=f4 v=0
249360 On ch=1 n=e5 v=60
249360 On ch=1 n=g5 v=60
249360 On ch=1 n=g4 v=50
249360 On ch=1 n=c4 v=60
249595 On ch=1 n=c4 v=0
249595 On ch=1 n=g5 v=0
249595 On ch=1 n=e5 v=0
249600 On ch=1 n=g4 v=0
249600 On ch=1 n=f5 v=60
249600 On ch=1 n=a5 v=60
249600 On ch=1 n=a4 v=49
249600 On ch=1 n=f4 v=60
249835 On ch=1 n=a5 v=0
249835 On ch=1 n=f5 v=0
249840 On ch=1 n=c6 v=60
249982 Tempo 937500
250000 On ch=1 n=f4 v=0
250000 On ch=1 n=c5 v=0
250075 On ch=1 n=c6 v=0
250080 On ch=1 n=a4 v=0
250080 On ch=1 n=e5 v=60
250080 On ch=1 n=g5 v=60
250080 On ch=1 n=c5 v=60
250080 On ch=1 n=g4 v=45
250080 On ch=1 n=c4 v=60
250315 On ch=1 n=c4 v=0
250320 On ch=1 n=d4 v=60
250555 On ch=1 n=d4 v=0
250560 On ch=1 n=c4 v=57
250750 Tempo 967741
250795 On ch=1 n=c4 v=0
250800 On ch=1 n=a#3 v=54
250920 On ch=1 n=g4 v=0
250920 On ch=1 n=c5 v=0
250920 On ch=1 n=g5 v=0
250920 On ch=1 n=e5 v=0
251035 On ch=1 n=a#3 v=0
251040 On ch=1 n=c5 v=60
251040 On ch=1 n=g3 v=51
251275 On ch=1 n=g3 v=0
251280 On ch=1 n=a3 v=48
251440 On ch=1 n=c5 v=0
251515 On ch=1 n=a3 v=0
251520 Tempo 1000000
251520 Tempo 857142
251520 Par ch=1 c=64 v=127
251520 On ch=1 n=f5 v=60
251520 On ch=1 n=f3 v=45
252000 On ch=1 n=f4 v=45
252000 On ch=1 n=c5 v=45
252000 On ch=1 n=c4 v=45
252000 On ch=1 n=a4 v=45
252715 On ch=1 n=f5 v=0
252720 On ch=1 n=e5 v=60
252955 On ch=1 n=e5 v=0
252960 On ch=1 n=f5 v=63
253195 On ch=1 n=f5 v=0
253200 On ch=1 n=a5 v=66
253320 On ch=1 n=c5 v=0
253320 On ch=1 n=f4 v=0
253435 On ch=1 n=a5 v=0
253440 On ch=1 n=c6 v=69
253675 On ch=1 n=c6 v=0
253680 Par ch=1 c=64 v=0
253680 On ch=1 n=a6 v=72
253795 On ch=1 n=f3 v=0
253800 Par ch=1 c=64 v=127
253800 On ch=1 n=c#4 v=45
253840 On ch=1 n=a4 v=0
253840 On ch=1 n=c4 v=0
253855 On ch=1 n=c#4 v=0
253860 On ch=1 n=a4 v=45
253915 On ch=1 n=a6 v=0
253920 On ch=1 n=a6 v=75
253920 On ch=1 n=g5 v=60
253920 On ch=1 n=a5 v=60
253920 On ch=1 n=e5 v=60
254560 On ch=1 n=a6 v=0
254640 On ch=1 n=g6 v=75
254875 On ch=1 n=g6 v=0
254880 On ch=1 n=f6 v=73
255115 On ch=1 n=f6 v=0
255120 On ch=1 n=e6 v=71
255240 On ch=1 n=g5 v=0
255240 Par ch=1 c=64 v=0
255355 On ch=1 n=e6 v=0
255360 On ch=1 n=e5 v=0
255360 Tempo 857142
255360 Par ch=1 c=64 v=127
255360 On ch=1 n=f6 v=69
255360 On ch=1 n=d5 v=60
255360 On ch=1 n=d4 v=45
255595 On ch=1 n=f6 v=0
255600 On ch=1 n=a6 v=67
255835 On ch=1 n=a6 v=0
255840 On ch=1 n=d6 v=65
256000 On ch=1 n=d4 v=0
256000 On ch=1 n=d5 v=0
256000 On ch=1 n=a5 v=0
256000 On ch=1 n=a4 v=0
256075 On ch=1 n=d6 v=0
256080 On ch=1 n=f6 v=63
256080 On ch=1 n=g#5 v=60
256080 On ch=1 n=f4 v=45
256080 On ch=1 n=c5 v=45
256127 Tempo 882352
256200 Par ch=1 c=64 v=0
256315 On ch=1 n=f4 v=0
256315 On ch=1 n=g#5 v=0
256315 On ch=1 n=f6 v=0
256320 Par ch=1 c=64 v=127
256320 On ch=1 n=e6 v=60
256320 On ch=1 n=g5 v=59
256320 On ch=1 n=g4 v=45
256555 On ch=1 n=g5 v=0
256560 On ch=1 n=c6 v=58
256795 On ch=1 n=c6 v=0
256800 On ch=1 n=e5 v=57
256895 Tempo 909090
256960 On ch=1 n=g4 v=0
256960 On ch=1 n=e6 v=0
256960 On ch=1 n=c5 v=0
257035 On ch=1 n=e5 v=0
257040 On ch=1 n=d#6 v=60
257040 On ch=1 n=f#5 v=55
257040 On ch=1 n=c5 v=60
257040 On ch=1 n=a4 v=45
257160 Par ch=1 c=64 v=0
257275 On ch=1 n=a4 v=0
257275 On ch=1 n=c5 v=0
257275 On ch=1 n=f#5 v=0
257275 On ch=1 n=d#6 v=0
257280 Par ch=1 c=64 v=127
257280 On ch=1 n=d6 v=60
257280 On ch=1 n=f5 v=53
257280 On ch=1 n=b4 v=57
257280 On ch=1 n=g4 v=45
257515 On ch=1 n=b4 v=0
257520 On ch=1 n=g5 v=54
257662 Tempo 937500
257680 On ch=1 n=d6 v=0
257755 On ch=1 n=g5 v=0
257760 On ch=1 n=e6 v=45
257760 On ch=1 n=a4 v=51
257995 On ch=1 n=a4 v=0
258000 On ch=1 n=b4 v=48
258115 On ch=1 n=e6 v=0
258120 On ch=1 n=g4 v=0
258120 On ch=1 n=f5 v=0
258120 Par ch=1 c=64 v=0
258120 On ch=1 n=c6 v=45
258235 On ch=1 n=c6 v=0
258235 On ch=1 n=b4 v=0
258240 On ch=1 n=c6 v=45
258240 On ch=1 n=e5 v=45
258240 On ch=1 n=c5 v=45
258240 On ch=1 n=c4 v=45
258430 Tempo 967741
258475 On ch=1 n=c4 v=0
258475 On ch=1 n=c5 v=0
258480 On ch=1 n=d4 v=45
258640 On ch=1 n=e5 v=0
258715 On ch=1 n=d4 v=0
258720 On ch=1 n=a#3 v=45
258955 On ch=1 n=a#3 v=0
258960 On ch=1 n=c5 v=60
258960 On ch=1 n=g3 v=45
259080 On ch=1 n=c6 v=0
259195 On ch=1 n=g3 v=0
259195 On ch=1 n=c5 v=0
259200 Tempo 1000000
259200 Tempo 857142
259200 Par ch=1 c=64 v=127
259200 On ch=1 n=f5 v=60
259200 On ch=1 n=f3 v=45
259680 On ch=1 n=f4 v=45
259680 On ch=1 n=c5 v=45
259680 On ch=1 n=c4 v=45
259680 On ch=1 n=a4 v=45
260395 On ch=1 n=f5 v=0
260400 On ch=1 n=e5 v=60
260635 On ch=1 n=e5 v=0
260640 On ch=1 n=f5 v=63
260875 On ch=1 n=f5 v=0
260880 On ch=1 n=a5 v=66
261000 On ch=1 n=a4 v=0
261000 On ch=1 n=c4 v=0
261000 On ch=1 n=c5 v=0
261000 On ch=1 n=f4 v=0
261000 On ch=1 n=f3 v=0
261115 On ch=1 n=a5 v=0
261120 Tempo 800000
261120 On ch=1 n=c6 v=69
261355 On ch=1 n=c6 v=0
261360 Par ch=1 c=64 v=0
261360 On ch=1 n=d#6 v=72
261360 On ch=1 n=a#5 v=60
261360 On ch=1 n=g4 v=48
261360 On ch=1 n=c4 v=45
261480 Par ch=1 c=64 v=127
261595 On ch=1 n=c4 v=0
261595 On ch=1 n=g4 v=0
261595 On ch=1 n=a#5 v=0
261595 On ch=1 n=d#6 v=0
261600 On ch=1 n=d#6 v=75
261600 On ch=1 n=a5 v=60
261600 On ch=1 n=f#4 v=51
261600 On ch=1 n=d4 v=45
261835 On ch=1 n=f#4 v=0
261840 On ch=1 n=a4 v=54
262075 On ch=1 n=a4 v=0
262080 On ch=1 n=d5 v=60
262320 On ch=1 n=f#5 v=60
262440 On ch=1 n=a5 v=0
262440 On ch=1 n=d#6 v=0
262555 On ch=1 n=f#5 v=0
262560 On ch=1 n=d6 v=75
262560 On ch=1 n=a5 v=60
262795 On ch=1 n=d6 v=0
262795 On ch=1 n=d4 v=0
262800 On ch=1 n=c6 v=73
262800 On ch=1 n=f#4 v=60
262960 On ch=1 n=a5 v=0
263035 On ch=1 n=f#4 v=0
263035 On ch=1 n=c6 v=0
263040 Tempo 857142
263040 Par ch=1 c=64 v=0
263040 On ch=1 n=a#5 v=71
263040 On ch=1 n=g5 v=60
263040 On ch=1 n=g4 v=60
263275 On ch=1 n=a#5 v=0
263280 On ch=1 n=d6 v=69
263422 Tempo 882352
263515 On ch=1 n=d6 v=0
263520 On ch=1 n=g5 v=67
263680 On ch=1 n=g4 v=0
263680 On ch=1 n=g5 v=0
263680 On ch=1 n=d5 v=0
263755 On ch=1 n=g5 v=0
263760 On ch=1 n=a5 v=65
263760 On ch=1 n=d#5 v=55
263760 On ch=1 n=c4 v=57
263760 On ch=1 n=f#4 v=57
263807 Tempo 909090
263995 On ch=1 n=d#5 v=0
263995 On ch=1 n=a5 v=0
264000 On ch=1 n=f#4 v=0
264000 On ch=1 n=c4 v=0
264000 On ch=1 n=a#5 v=63
264000 On ch=1 n=d5 v=53
264000 On ch=1 n=d4 v=56
264000 On ch=1 n=g4 v=56
264190 Tempo 937500
264235 On ch=1 n=d5 v=0
264240 On ch=1 n=g5 v=51
264475 On ch=1 n=g5 v=0
264480 On ch=1 n=a#4 v=49
264575 Tempo 967741
264640 On ch=1 n=g4 v=0
264640 On ch=1 n=d4 v=0
264640 On ch=1 n=a#5 v=0
264715 On ch=1 n=a#4 v=0
264720 On ch=1 n=a5 v=56
264720 On ch=1 n=c5 v=47
264720 On ch=1 n=d#4 v=53
264955 On ch=1 n=d#4 v=0
264955 On ch=1 n=c5 v=0
264955 On ch=1 n=a5 v=0
264960 Tempo 1000000
264960 On ch=1 n=g5 v=54
264960 On ch=1 n=a#4 v=60
264960 On ch=1 n=d4 v=52
265195 On ch=1 n=a#4 v=0
265200 On ch=1 n=d5 v=58
265342 Tempo 1034482
265435 On ch=1 n=d5 v=0
265440 On ch=1 n=g4 v=56
265600 On ch=1 n=d4 v=0
265600 On ch=1 n=g5 v=0
265675 On ch=1 n=g4 v=0
265680 On ch=1 n=d5 v=45
265680 On ch=1 n=c5 v=45
265680 On ch=1 n=a4 v=54
265680 On ch=1 n=d4 v=49
265727 Tempo 1071428
265915 On ch=1 n=c5 v=0
265920 On ch=1 n=a#4 v=45
266110 Tempo 1111111
266155 On ch=1 n=d4 v=0
266155 On ch=1 n=a4 v=0
266160 On ch=1 n=g4 v=48
266320 On ch=1 n=a#4 v=0
266320 On ch=1 n=d5 v=0
266395 On ch=1 n=g4 v=0
266400 On ch=1 n=g3 v=45
266495 Tempo 1153846
266635 On ch=1 n=g3 v=0
266640 On ch=1 n=f5 v=60
266640 On ch=1 n=a3 v=45
266875 On ch=1 n=a3 v=0
266875 On ch=1 n=f5 v=0
266880 Tempo 1200000
266880 Tempo 857142
266880 Par ch=1 c=64 v=127
266880 On ch=1 n=a#5 v=60
266880 On ch=1 n=a#2 v=45
267280 On ch=1 n=a#2 v=0
267360 On ch=1 n=a#4 v=45
267360 On ch=1 n=f5 v=45
267360 On ch=1 n=f4 v=45
267360 On ch=1 n=d5 v=45
268075 On ch=1 n=a#5 v=0
268080 On ch=1 n=a5 v=60
268320 On ch=1 n=a5 v=0
268320 On ch=1 n=a#5 v=63
268560 On ch=1 n=a#5 v=0
268560 On ch=1 n=d6 v=66
268680 On ch=1 n=d5 v=0
268680 On ch=1 n=f4 v=0
268680 On ch=1 n=f5 v=0
268680 On ch=1 n=a#4 v=0
268800 On ch=1 n=d6 v=0
268800 Tempo 800000
268800 On ch=1 n=f6 v=45
269040 Par ch=1 c=64 v=0
269040 On ch=1 n=a#6 v=72
269040 On ch=1 n=d5 v=45
269040 On ch=1 n=g4 v=45
269160 Par ch=1 c=64 v=127
269200 On ch=1 n=f6 v=0
269275 On ch=1 n=g4 v=0
269275 On ch=1 n=d5 v=0
269275 On ch=1 n=a#6 v=0
269280 On ch=1 n=a#6 v=75
269280 On ch=1 n=e6 v=45
269280 On ch=1 n=c#5 v=45
269280 On ch=1 n=a4 v=45
269515 On ch=1 n=c#5 v=0
269520 On ch=1 n=e5 v=45
269755 On ch=1 n=e5 v=0
269760 On ch=1 n=a5 v=45
270000 On ch=1 n=c#6 v=45
270120 On ch=1 n=e6 v=0
270120 On ch=1 n=a#6 v=0
270235 On ch=1 n=c#6 v=0
270240 On ch=1 n=a6 v=75
270240 On ch=1 n=e6 v=45
270475 On ch=1 n=a4 v=0
270480 On ch=1 n=a6 v=0
270480 On ch=1 n=g6 v=73
270480 On ch=1 n=c#5 v=60
270640 On ch=1 n=e6 v=0
270715 On ch=1 n=c#5 v=0
270720 On ch=1 n=g6 v=0
270720 Tempo 857142
270720 Par ch=1 c=64 v=0
270720 On ch=1 n=f6 v=71
270720 On ch=1 n=d6 v=45
270720 On ch=1 n=d5 v=60
270960 On ch=1 n=f6 v=0
270960 On ch=1 n=a6 v=69
271120 On ch=1 n=d5 v=0
271200 On ch=1 n=a6 v=0
271200 On ch=1 n=d6 v=67
271295 Tempo 882352
271360 On ch=1 n=d6 v=0
271360 On ch=1 n=a5 v=0
271440 On ch=1 n=d6 v=0
271440 On ch=1 n=e6 v=65
271440 On ch=1 n=a#5 v=45
271440 On ch=1 n=g4 v=59
271440 On ch=1 n=c#5 v=59
271675 On ch=1 n=a#5 v=0
271680 On ch=1 n=c#5 v=0
271680 On ch=1 n=g4 v=0
271680 On ch=1 n=e6 v=0
271680 On ch=1 n=f6 v=63
271680 On ch=1 n=a5 v=45
271680 On ch=1 n=a4 v=58
271680 On ch=1 n=d5 v=58
271870 Tempo 909090
271920 On ch=1 n=a5 v=0
271920 On ch=1 n=d6 v=45
272160 On ch=1 n=d6 v=0
272160 On ch=1 n=f5 v=45
272320 On ch=1 n=d5 v=0
272320 On ch=1 n=a4 v=0
272400 On ch=1 n=f5 v=0
272400 On ch=1 n=f6 v=0
272400 On ch=1 n=e6 v=56
272400 On ch=1 n=g5 v=45
272400 On ch=1 n=a#4 v=54
272447 Tempo 937500
272635 On ch=1 n=a#4 v=0
272640 On ch=1 n=g5 v=0
272640 On ch=1 n=e6 v=0
272640 On ch=1 n=d6 v=54
272640 On ch=1 n=f5 v=45
272640 On ch=1 n=a4 v=53
272880 On ch=1 n=f5 v=0
272880 On ch=1 n=a5 v=45
273022 Tempo 967741
273115 On ch=1 n=a5 v=0
273120 On ch=1 n=d5 v=45
273355 On ch=1 n=d5 v=0
273360 On ch=1 n=d6 v=0
273360 On ch=1 n=a5 v=45
273360 On ch=1 n=g5 v=45
273360 On ch=1 n=c#5 v=45
273360 On ch=1 n=e5 v=45
273595 On ch=1 n=e5 v=0
273595 On ch=1 n=c#5 v=0
273595 On ch=1 n=g5 v=0
273600 Tempo 1000000
273600 On ch=1 n=f5 v=45
273600 On ch=1 n=d5 v=45
273695 Tempo 1034482
273790 Tempo 1071428
273835 On ch=1 n=a4 v=0
273840 On ch=1 n=a#4 v=45
273887 Tempo 1111111
273982 Tempo 1153846
274000 On ch=1 n=d5 v=0
274000 On ch=1 n=f5 v=0
274000 On ch=1 n=a5 v=0
274080 Tempo 1200000
274080 On ch=1 n=g5 v=45
274080 On ch=1 n=e5 v=45
274080 On ch=1 n=c5 v=45
274175 Tempo 1250000
274270 Tempo 1304347
274315 On ch=1 n=c5 v=0
274315 On ch=1 n=a#4 v=0
274320 On ch=1 n=c4 v=45
274367 Tempo 1363636
274440 On ch=1 n=g5 v=0
274440 On ch=1 n=c5 v=60
274462 Tempo 1428571
274480 On ch=1 n=e5 v=0
274555 On ch=1 n=c4 v=0
274560 On ch=1 n=c5 v=0
274560 Tempo 1500000
274560 Tempo 857142
274560 Par ch=1 c=64 v=127
274560 On ch=1 n=f5 v=60
274560 On ch=1 n=f3 v=45
275040 On ch=1 n=f4 v=45
275040 On ch=1 n=c5 v=45
275040 On ch=1 n=c4 v=45
275040 On ch=1 n=a4 v=45
275755 On ch=1 n=f5 v=0
275760 On ch=1 n=e5 v=60
276000 On ch=1 n=e5 v=0
276000 On ch=1 n=f5 v=63
276240 On ch=1 n=f5 v=0
276240 On ch=1 n=a5 v=66
276360 On ch=1 n=c5 v=0
276360 On ch=1 n=f4 v=0
276480 On ch=1 n=a5 v=0
276480 On ch=1 n=c6 v=69
276720 On ch=1 n=c6 v=0
276720 Par ch=1 c=64 v=0
276720 On ch=1 n=f6 v=72
276835 On ch=1 n=f3 v=0
276840 Par ch=1 c=64 v=127
276840 On ch=1 n=a#3 v=60
276880 On ch=1 n=a4 v=0
276880 On ch=1 n=c4 v=0
276895 On ch=1 n=a#3 v=0
276900 On ch=1 n=f4 v=60
276955 On ch=1 n=f6 v=0
276960 On ch=1 n=f6 v=75
276960 On ch=1 n=f5 v=60
276960 On ch=1 n=d5 v=60
277800 On ch=1 n=d5 v=0
277800 On ch=1 n=f6 v=0
277920 On ch=1 n=e6 v=75
277920 On ch=1 n=c5 v=60
278160 On ch=1 n=c5 v=0
278160 On ch=1 n=e6 v=0
278160 On ch=1 n=d6 v=72
278160 On ch=1 n=a#4 v=59
278280 On ch=1 n=f4 v=0
278400 On ch=1 n=a#4 v=0
278400 On ch=1 n=d6 v=0
278400 Par ch=1 c=64 v=0
278400 On ch=1 n=c6 v=69
278400 On ch=1 n=a4 v=57
278400 On ch=1 n=c4 v=45
278640 On ch=1 n=c6 v=0
278640 On ch=1 n=f6 v=65
278800 On ch=1 n=c4 v=0
278800 On ch=1 n=a4 v=0
278800 On ch=1 n=f5 v=0
278875 On ch=1 n=f6 v=0
278880 On ch=1 n=g5 v=61
278880 On ch=1 n=e5 v=45
278880 On ch=1 n=a#4 v=53
278880 On ch=1 n=c4 v=45
279120 On ch=1 n=a#4 v=0
279120 On ch=1 n=g5 v=0
279120 On ch=1 n=a5 v=57
279120 On ch=1 n=a4 v=51
279360 On ch=1 n=a4 v=0
279360 On ch=1 n=a5 v=0
279360 On ch=1 n=a#5 v=53
279360 On ch=1 n=g4 v=49
279600 On ch=1 n=a#5 v=0
279600 On ch=1 n=d6 v=49
279720 On ch=1 n=c4 v=0
279720 On ch=1 n=e5 v=0
279760 On ch=1 n=g4 v=0
279835 On ch=1 n=d6 v=0
279840 On ch=1 n=f5 v=45
279840 On ch=1 n=c5 v=45
279840 On ch=1 n=f4 v=45
279840 On ch=1 n=a3 v=45
280080 On ch=1 n=a3 v=0
280080 On ch=1 n=f4 v=0
280080 On ch=1 n=f5 v=0
280080 On ch=1 n=e5 v=45
280080 On ch=1 n=g5 v=45
280080 On ch=1 n=g4 v=45
280080 On ch=1 n=c4 v=45
280320 On ch=1 n=c4 v=0
280320 On ch=1 n=g4 v=0
280320 On ch=1 n=g5 v=0
280320 On ch=1 n=e5 v=0
280320 On ch=1 n=f5 v=45
280320 On ch=1 n=a5 v=45
280320 On ch=1 n=a4 v=45
280320 On ch=1 n=f4 v=45
280560 On ch=1 n=a5 v=0
280560 On ch=1 n=f5 v=0
280560 On ch=1 n=c6 v=45
280720 On ch=1 n=f4 v=0
280720 On ch=1 n=c5 v=0
280795 On ch=1 n=c6 v=0
280800 On ch=1 n=a4 v=0
280800 On ch=1 n=e5 v=45
280800 On ch=1 n=g5 v=45
280800 On ch=1 n=c5 v=45
280800 On ch=1 n=g4 v=45
280800 On ch=1 n=c4 v=60
281040 On ch=1 n=c4 v=0
281040 On ch=1 n=d4 v=60
281280 On ch=1 n=d4 v=0
281280 On ch=1 n=c4 v=57
281520 On ch=1 n=c4 v=0
281520 On ch=1 n=a#3 v=54
281640 On ch=1 n=g4 v=0
281640 On ch=1 n=c5 v=0
281640 On ch=1 n=g5 v=0
281640 On ch=1 n=e5 v=0
281760 On ch=1 n=a#3 v=0
281760 On ch=1 n=c5 v=60
281760 On ch=1 n=g3 v=51
282000 On ch=1 n=g3 v=0
282000 On ch=1 n=a3 v=48
282160 On ch=1 n=c5 v=0
282240 On ch=1 n=a3 v=0
282240 Par ch=1 c=64 v=127
282240 On ch=1 n=f5 v=60
282240 On ch=1 n=f3 v=45
282720 On ch=1 n=f4 v=45
282720 On ch=1 n=c5 v=45
282720 On ch=1 n=c4 v=45
282720 On ch=1 n=a4 v=45
283435 On ch=1 n=f5 v=0
283440 On ch=1 n=e5 v=60
283680 On ch=1 n=e5 v=0
283680 On ch=1 n=f5 v=63
283920 On ch=1 n=f5 v=0
283920 On ch=1 n=a5 v=67
284040 On ch=1 n=c5 v=0
284040 On ch=1 n=f4 v=0
284160 On ch=1 n=a5 v=0
284160 Tempo 1000000
284160 On ch=1 n=c6 v=71
284400 On ch=1 n=c6 v=0
284400 Par ch=1 c=64 v=0
284400 On ch=1 n=a6 v=75
284515 On ch=1 n=f3 v=0
284520 Tempo 1200000
284520 Par ch=1 c=64 v=127
284520 On ch=1 n=f5 v=45
284520 On ch=1 n=g3 v=45
284560 On ch=1 n=a4 v=0
284560 On ch=1 n=c4 v=0
284580 On ch=1 n=g5 v=45
284580 On ch=1 n=b3 v=45
284635 On ch=1 n=a6 v=0
284640 On ch=1 n=a6 v=60
284640 On ch=1 n=d6 v=45
284640 On ch=1 n=b4 v=45
285280 On ch=1 n=a6 v=0
285360 On ch=1 n=g6 v=60
285600 On ch=1 n=g6 v=0
285600 On ch=1 n=f6 v=60
285840 On ch=1 n=f6 v=0
285840 On ch=1 n=d6 v=60
285960 On ch=1 n=b4 v=0
285960 On ch=1 n=d6 v=0
285960 On ch=1 n=b3 v=0
285960 On ch=1 n=g5 v=0
285960 On ch=1 n=g3 v=0
286080 On ch=1 n=d6 v=0
286080 Tempo 1200000
286080 Par ch=1 c=64 v=0
286080 On ch=1 n=c6 v=60
286080 On ch=1 n=c4 v=45
286080 On ch=1 n=a4 v=45
286080 On ch=1 n=c5 v=45
286320 On ch=1 n=c6 v=0
286320 On ch=1 n=f6 v=60
286335 Tempo 1250000
286480 On ch=1 n=c5 v=0
286480 On ch=1 n=a4 v=0
286480 On ch=1 n=c4 v=0
286480 On ch=1 n=f5 v=0
286555 On ch=1 n=f6 v=0
286560 On ch=1 n=g5 v=60
286560 On ch=1 n=e5 v=45
286560 On ch=1 n=a#4 v=45
286560 On ch=1 n=c5 v=45
286560 On ch=1 n=c4 v=45
286590 Tempo 1304347
286800 On ch=1 n=a#4 v=0
286800 On ch=1 n=g5 v=0
286800 On ch=1 n=a5 v=60
286800 On ch=1 n=a4 v=45
286847 Tempo 1363636
287040 On ch=1 n=a4 v=0
287040 On ch=1 n=a5 v=0
287040 On ch=1 n=a#5 v=60
287040 On ch=1 n=g4 v=45
287102 Tempo 1428571
287280 On ch=1 n=a#5 v=0
287280 On ch=1 n=d6 v=60
287360 Tempo 1500000
287400 On ch=1 n=c4 v=0
287400 On ch=1 n=c5 v=0
287400 On ch=1 n=e5 v=0
287440 On ch=1 n=g4 v=0
287515 On ch=1 n=d6 v=0
287520 On ch=1 n=g5 v=60
287520 On ch=1 n=d5 v=45
287520 On ch=1 n=a#3 v=45
287520 On ch=1 n=g4 v=45
287615 Tempo 1578947
287760 On ch=1 n=g4 v=0
287760 On ch=1 n=a#3 v=0
287760 On ch=1 n=g5 v=0
287760 On ch=1 n=a5 v=60
287760 On ch=1 n=d4 v=45
287760 On ch=1 n=a4 v=45
287870 Tempo 1666666
288000 On ch=1 n=a4 v=0
288000 On ch=1 n=d4 v=0
288000 On ch=1 n=a5 v=0
288000 On ch=1 n=g5 v=60
288000 On ch=1 n=a#5 v=60
288000 On ch=1 n=g4 v=45
288000 On ch=1 n=a#4 v=45
288127 Tempo 1764705
288240 On ch=1 n=a#5 v=0
288240 On ch=1 n=g5 v=0
288240 On ch=1 n=d6 v=60
288382 Tempo 1875000
288400 On ch=1 n=a#4 v=0
288400 On ch=1 n=g4 v=0
288400 On ch=1 n=d5 v=0
288475 On ch=1 n=d6 v=0
288480 On ch=1 n=d5 v=60
288480 On ch=1 n=g4 v=45
288480 On ch=1 n=a#4 v=45
288480 On ch=1 n=c4 v=45
288640 Tempo 2000000
288720 On ch=1 n=d5 v=0
288720 On ch=1 n=c5 v=60
288720 On ch=1 n=e5 v=60
288720 On ch=1 n=c3 v=45
288880 On ch=1 n=a#4 v=0
288880 On ch=1 n=g4 v=0
288895 Tempo 2142857
288955 On ch=1 n=c3 v=0
288960 On ch=1 n=e5 v=0
288960 On ch=1 n=f5 v=60
288960 On ch=1 n=a4 v=45
288960 On ch=1 n=f3 v=45
289150 Tempo 2307692
289407 Tempo 2500000
289662 Tempo 2727272
289800 On ch=1 n=f3 v=0
289800 On ch=1 n=a4 v=0
289800 On ch=1 n=f5 v=0
289800 On ch=1 n=c5 v=0
289800 On ch=1 n=c4 v=0
289920 Tempo 600000
291840 Meta Text "Am Camin"
291840 Tempo 461538
291840 TimeSig 2/4 24 8
292560 On ch=1 n=c6 v=60
292800 On ch=1 n=c6 v=0
292800 On ch=1 n=f6 v=60
292800 On ch=1 n=f4 v=45
293035 On ch=1 n=f4 v=0
293040 On ch=1 n=f5 v=45
293040 On ch=1 n=c6 v=45
293040 On ch=1 n=a5 v=45
293040 On ch=1 n=c5 v=45
293275 On ch=1 n=c6 v=0
293275 On ch=1 n=f5 v=0
293280 On ch=1 n=f6 v=0
293280 On ch=1 n=e6 v=60
293440 On ch=1 n=c5 v=0
293440 On ch=1 n=a5 v=0
293520 On ch=1 n=e6 v=0
293520 On ch=1 n=f5 v=45
293520 On ch=1 n=c5 v=45
293520 On ch=1 n=a5 v=45
293520 On ch=1 n=d#6 v=60
293755 On ch=1 n=a5 v=0
293755 On ch=1 n=c5 v=0
293755 On ch=1 n=f5 v=0
293760 On ch=1 n=d#6 v=0
293760 On ch=1 n=d6 v=60
293760 On ch=1 n=a#4 v=45
294000 On ch=1 n=d6 v=0
294000 On ch=1 n=e6 v=60
294000 On ch=1 n=f5 v=45
294000 On ch=1 n=d5 v=45
294000 On ch=1 n=a#5 v=45
294235 On ch=1 n=a#5 v=0
294235 On ch=1 n=d5 v=0
294240 On ch=1 n=e6 v=0
294240 On ch=1 n=f6 v=60
294240 On ch=1 n=g4 v=45
294400 On ch=1 n=f5 v=0
294475 On ch=1 n=g4 v=0
294480 On ch=1 n=f6 v=0
294480 On ch=1 n=g6 v=60
294480 On ch=1 n=f5 v=45
294480 On ch=1 n=d5 v=45
294480 On ch=1 n=a#5 v=45
294600 On ch=1 n=a#4 v=0
294715 On ch=1 n=a#5 v=0
294715 On ch=1 n=d5 v=0
294715 On ch=1 n=f5 v=0
294715 On ch=1 n=g6 v=0
294720 On ch=1 n=c6 v=60
294720 On ch=1 n=c4 v=45
294955 On ch=1 n=c4 v=0
294960 On ch=1 n=g5 v=45
294960 On ch=1 n=c5 v=45
294960 On ch=1 n=e5 v=45
294960 On ch=1 n=a#4 v=45
295195 On ch=1 n=a#4 v=0
295195 On ch=1 n=g5 v=0
295200 On ch=1 n=a5 v=45
295200 On ch=1 n=a4 v=45
295360 On ch=1 n=e5 v=0
295360 On ch=1 n=c5 v=0
295435 On ch=1 n=a4 v=0
295435 On ch=1 n=a5 v=0
295440 On ch=1 n=c6 v=0
295440 On ch=1 n=a#5 v=60
295440 On ch=1 n=c5 v=45
295440 On ch=1 n=e5 v=45
295440 On ch=1 n=g4 v=45
295675 On ch=1 n=g4 v=0
295675 On ch=1 n=e5 v=0
295675 On ch=1 n=c5 v=0
295680 On ch=1 n=a#5 v=0
295680 On ch=1 n=a5 v=60
295680 On ch=1 n=f4 v=45
295915 On ch=1 n=f4 v=0
295920 On ch=1 n=c5 v=45
295920 On ch=1 n=f5 v=45
295920 On ch=1 n=a4 v=45
295920 On ch=1 n=f5 v=45
296080 On ch=1 n=a5 v=0
296320 On ch=1 n=f5 v=0
296320 On ch=1 n=a4 v=0
296320 On ch=1 n=f5 v=0
296320 On ch=1 n=c5 v=0
296400 On ch=1 n=c6 v=60
296400 On ch=1 n=a4 v=45
296400 On ch=1 n=f5 v=45
296635 On ch=1 n=f5 v=0
296635 On ch=1 n=a4 v=0
296635 On ch=1 n=c6 v=0
296640 On ch=1 n=c6 v=60
296640 On ch=1 n=f4 v=45
296880 On ch=1 n=c6 v=0
296880 On ch=1 n=f6 v=60
296880 On ch=1 n=f5 v=45
296880 On ch=1 n=c5 v=45
296880 On ch=1 n=a5 v=45
297040 On ch=1 n=f4 v=0
297120 On ch=1 n=f6 v=0
297120 On ch=1 n=e6 v=60
297120 On ch=1 n=a4 v=45
297280 On ch=1 n=a5 v=0
297280 On ch=1 n=c5 v=0
297280 On ch=1 n=f5 v=0
297360 On ch=1 n=e6 v=0
297360 On ch=1 n=d#6 v=60
297360 On ch=1 n=f5 v=45
297360 On ch=1 n=c5 v=45
297360 On ch=1 n=f5 v=45
297520 On ch=1 n=a4 v=0
297595 On ch=1 n=f5 v=0
297595 On ch=1 n=c5 v=0
297595 On ch=1 n=f5 v=0
297600 On ch=1 n=d#6 v=0
297600 On ch=1 n=d6 v=60
297600 On ch=1 n=a#4 v=45
297840 On ch=1 n=d6 v=0
297840 On ch=1 n=e6 v=60
297840 On ch=1 n=f5 v=45
297840 On ch=1 n=d5 v=45
297840 On ch=1 n=a#5 v=45
298075 On ch=1 n=a#5 v=0
298075 On ch=1 n=d5 v=0
298080 On ch=1 n=e6 v=0
298080 On ch=1 n=f6 v=60
298080 On ch=1 n=g4 v=45
298240 On ch=1 n=f5 v=0
298315 On ch=1 n=g4 v=0
298320 On ch=1 n=f6 v=0
298320 On ch=1 n=g6 v=60
298320 On ch=1 n=f5 v=45
298320 On ch=1 n=d5 v=45
298320 On ch=1 n=a#5 v=45
298440 On ch=1 n=a#4 v=0
298555 On ch=1 n=a#5 v=0
298555 On ch=1 n=d5 v=0
298555 On ch=1 n=f5 v=0
298555 On ch=1 n=g6 v=0
298560 On ch=1 n=c6 v=60
298560 On ch=1 n=c4 v=45
298795 On ch=1 n=c4 v=0
298800 On ch=1 n=g5 v=45
298800 On ch=1 n=c5 v=45
298800 On ch=1 n=e5 v=45
298800 On ch=1 n=a#4 v=45
299035 On ch=1 n=a#4 v=0
299035 On ch=1 n=g5 v=0
299040 On ch=1 n=a5 v=45
299040 On ch=1 n=a4 v=45
299200 On ch=1 n=e5 v=0
299200 On ch=1 n=c5 v=0
299275 On ch=1 n=a4 v=0
299275 On ch=1 n=a5 v=0
299280 On ch=1 n=c6 v=0
299280 On ch=1 n=a#5 v=60
299280 On ch=1 n=c5 v=45
299280 On ch=1 n=e5 v=45
299280 On ch=1 n=g4 v=45
299515 On ch=1 n=g4 v=0
299515 On ch=1 n=e5 v=0
299515 On ch=1 n=c5 v=0
299520 On ch=1 n=a#5 v=0
299520 On ch=1 n=a5 v=60
299520 On ch=1 n=f4 v=45
299755 On ch=1 n=f4 v=0
299760 On ch=1 n=c5 v=45
299760 On ch=1 n=f5 v=45
299760 On ch=1 n=c5 v=45
299760 On ch=1 n=a4 v=45
299920 On ch=1 n=a5 v=0
300160 On ch=1 n=a4 v=0
300160 On ch=1 n=c5 v=0
300160 On ch=1 n=f5 v=0
300160 On ch=1 n=c5 v=0
300240 On ch=1 n=c6 v=92
300240 On ch=1 n=f5 v=45
300240 On ch=1 n=a4 v=45
300475 On ch=1 n=a4 v=0
300475 On ch=1 n=f5 v=0
300475 On ch=1 n=c6 v=0
300480 On ch=1 n=c6 v=92
300480 On ch=1 n=c4 v=75
300720 On ch=1 n=c6 v=0
300720 On ch=1 n=g5 v=92
300720 On ch=1 n=c5 v=75
300720 On ch=1 n=a#4 v=75
300720 On ch=1 n=e5 v=75
300960 On ch=1 n=g5 v=0
300960 On ch=1 n=a5 v=92
301120 On ch=1 n=e5 v=0
301120 On ch=1 n=a#4 v=0
301120 On ch=1 n=c5 v=0
301200 On ch=1 n=a5 v=0
301200 On ch=1 n=a#5 v=92
301200 On ch=1 n=c5 v=75
301200 On ch=1 n=a#4 v=75
301200 On ch=1 n=e5 v=75
301320 On ch=1 n=c4 v=0
301435 On ch=1 n=e5 v=0
301435 On ch=1 n=a#4 v=0
301435 On ch=1 n=c5 v=0
301440 On ch=1 n=a#5 v=0
301440 On ch=1 n=d6 v=75
301440 On ch=1 n=c4 v=75
301680 On ch=1 n=d5 v=75
301680 On ch=1 n=d5 v=75
301920 On ch=1 n=e5 v=92
302080 On ch=1 n=d5 v=0
302080 On ch=1 n=d5 v=0
302080 On ch=1 n=d6 v=0
302160 On ch=1 n=e5 v=0
302160 On ch=1 n=f#5 v=92
302160 On ch=1 n=c5 v=75
302160 On ch=1 n=d5 v=75
302280 On ch=1 n=c4 v=0
302395 On ch=1 n=d5 v=0
302395 On ch=1 n=c5 v=0
302400 On ch=1 n=f#5 v=0
302400 On ch=1 n=g5 v=92
302400 On ch=1 n=a#4 v=75
302400 On ch=1 n=c4 v=75
302635 On ch=1 n=a#4 v=0
302640 On ch=1 n=g5 v=0
302640 On ch=1 n=a#5 v=92
302640 On ch=1 n=g4 v=75
302640 On ch=1 n=d5 v=75
302800 On ch=1 n=c4 v=0
302880 On ch=1 n=a#5 v=0
302880 On ch=1 n=d6 v=92
302880 On ch=1 n=c4 v=75
303040 On ch=1 n=g4 v=0
303120 On ch=1 n=d6 v=0
303120 On ch=1 n=d5 v=92
303120 On ch=1 n=c5 v=75
303120 On ch=1 n=f#4 v=75
303280 On ch=1 n=c4 v=0
303355 On ch=1 n=f#4 v=0
303355 On ch=1 n=c5 v=0
303355 On ch=1 n=d5 v=0
303360 On ch=1 n=d5 v=0
303360 On ch=1 n=g5 v=92
303360 On ch=1 n=c4 v=75
303600 On ch=1 n=a#4 v=75
303600 On ch=1 n=d5 v=75
303600 On ch=1 n=g4 v=75
303600 On ch=1 n=d5 v=75
303760 On ch=1 n=g5 v=0
304000 On ch=1 n=d5 v=0
304000 On ch=1 n=g4 v=0
304000 On ch=1 n=d5 v=0
304000 On ch=1 n=a#4 v=0
304080 On ch=1 n=a#5 v=92
304080 On ch=1 n=g4 v=75
304080 On ch=1 n=d5 v=75
304200 On ch=1 n=c4 v=0
304315 On ch=1 n=d5 v=0
304315 On ch=1 n=g4 v=0
304320 On ch=1 n=a#5 v=0
304320 On ch=1 n=d6 v=92
304320 On ch=1 n=c4 v=75
304560 On ch=1 n=d6 v=0
304560 On ch=1 n=a5 v=92
304560 On ch=1 n=f#5 v=75
304560 On ch=1 n=d5 v=75
304800 On ch=1 n=a5 v=0
304800 On ch=1 n=a#5 v=92
305040 On ch=1 n=a#5 v=0
305040 On ch=1 n=d5 v=0
305040 On ch=1 n=c6 v=92
305040 On ch=1 n=c5 v=75
305160 On ch=1 n=c4 v=0
305200 On ch=1 n=f#5 v=0
305275 On ch=1 n=c5 v=0
305280 On ch=1 n=c6 v=0
305280 On ch=1 n=e6 v=75
305280 On ch=1 n=c4 v=75
305520 On ch=1 n=e5 v=75
305520 On ch=1 n=b4 v=75
305520 On ch=1 n=d5 v=75
305760 On ch=1 n=f#5 v=92
305920 On ch=1 n=d5 v=0
305920 On ch=1 n=b4 v=0
305920 On ch=1 n=e5 v=0
305920 On ch=1 n=e6 v=0
306000 On ch=1 n=f#5 v=0
306000 On ch=1 n=g#5 v=92
306000 On ch=1 n=d5 v=75
306000 On ch=1 n=b4 v=75
306120 On ch=1 n=c4 v=0
306235 On ch=1 n=b4 v=0
306235 On ch=1 n=d5 v=0
306240 On ch=1 n=g#5 v=0
306240 On ch=1 n=a5 v=92
306240 On ch=1 n=c5 v=75
306240 On ch=1 n=c4 v=75
306475 On ch=1 n=c5 v=0
306480 On ch=1 n=a5 v=0
306480 On ch=1 n=c6 v=92
306480 On ch=1 n=a4 v=75
306480 On ch=1 n=e5 v=75
306640 On ch=1 n=c4 v=0
306720 On ch=1 n=c6 v=0
306720 On ch=1 n=e6 v=92
306720 On ch=1 n=c4 v=75
306880 On ch=1 n=a4 v=0
306960 On ch=1 n=e6 v=0
306960 On ch=1 n=e5 v=92
306960 On ch=1 n=d5 v=75
306960 On ch=1 n=g#4 v=75
307120 On ch=1 n=c4 v=0
307200 Tempo 461538
307200 On ch=1 n=c4 v=75
307262 Tempo 468750
307327 Tempo 476190
307390 Tempo 483870
307435 On ch=1 n=g#4 v=0
307435 On ch=1 n=d5 v=0
307435 On ch=1 n=e5 v=0
307440 On ch=1 n=e5 v=0
307440 On ch=1 n=c5 v=92
307440 On ch=1 n=a5 v=92
307440 On ch=1 n=a4 v=75
307440 On ch=1 n=e5 v=75
307455 Tempo 491803
307520 Tempo 500000
307582 Tempo 508474
307600 On ch=1 n=c4 v=0
307647 Tempo 517241
307680 On ch=1 n=c4 v=75
307710 Tempo 526315
307775 Tempo 535714
307840 On ch=1 n=e5 v=0
307840 On ch=1 n=a4 v=0
307840 Tempo 545454
307902 Tempo 555555
307920 On ch=1 n=a5 v=0
307920 On ch=1 n=c5 v=0
307920 On ch=1 n=a#4 v=92
307920 On ch=1 n=g5 v=92
307920 On ch=1 n=e4 v=75
307920 On ch=1 n=c5 v=75
307967 Tempo 566037
308030 Tempo 576923
308080 On ch=1 n=c4 v=0
308095 Tempo 588235
308155 On ch=1 n=c5 v=0
308155 On ch=1 n=e4 v=0
308155 On ch=1 n=g5 v=0
308155 On ch=1 n=a#4 v=0
308160 Tempo 600000
308160 Tempo 461538
308160 On ch=1 n=f5 v=92
308160 On ch=1 n=f3 v=75
308400 On ch=1 n=f4 v=75
308400 On ch=1 n=c5 v=75
308400 On ch=1 n=c4 v=75
308400 On ch=1 n=a4 v=75
308640 On ch=1 n=f5 v=0
308640 On ch=1 n=e5 v=92
308800 On ch=1 n=a4 v=0
308800 On ch=1 n=c4 v=0
308800 On ch=1 n=c5 v=0
308800 On ch=1 n=f4 v=0
308880 On ch=1 n=e5 v=0
308880 On ch=1 n=d#5 v=92
308880 On ch=1 n=f4 v=75
308880 On ch=1 n=c4 v=75
308880 On ch=1 n=a4 v=75
309000 On ch=1 n=f3 v=0
309115 On ch=1 n=a4 v=0
309115 On ch=1 n=c4 v=0
309115 On ch=1 n=f4 v=0
309120 On ch=1 n=d#5 v=0
309120 On ch=1 n=d6 v=60
309120 On ch=1 n=a#3 v=45
309360 On ch=1 n=d6 v=0
309360 On ch=1 n=e6 v=60
309360 On ch=1 n=f5 v=45
309360 On ch=1 n=d4 v=45
309360 On ch=1 n=a#4 v=45
309520 On ch=1 n=a#3 v=0
309600 On ch=1 n=e6 v=0
309600 On ch=1 n=f6 v=60
309600 On ch=1 n=g3 v=45
309760 On ch=1 n=a#4 v=0
309760 On ch=1 n=d4 v=0
309760 On ch=1 n=f5 v=0
309840 On ch=1 n=f6 v=0
309840 On ch=1 n=g6 v=60
309840 On ch=1 n=f5 v=45
309840 On ch=1 n=a#4 v=45
309840 On ch=1 n=d5 v=45
310000 On ch=1 n=g3 v=0
310075 On ch=1 n=d5 v=0
310075 On ch=1 n=a#4 v=0
310075 On ch=1 n=f5 v=0
310075 On ch=1 n=g6 v=0
310080 On ch=1 n=c6 v=60
310080 On ch=1 n=c4 v=45
310315 On ch=1 n=c4 v=0
310320 On ch=1 n=g5 v=45
310320 On ch=1 n=c5 v=45
310320 On ch=1 n=e5 v=45
310320 On ch=1 n=a#4 v=45
310555 On ch=1 n=a#4 v=0
310555 On ch=1 n=g5 v=0
310560 On ch=1 n=a5 v=45
310560 On ch=1 n=a4 v=45
310720 On ch=1 n=e5 v=0
310720 On ch=1 n=c5 v=0
310795 On ch=1 n=a4 v=0
310795 On ch=1 n=a5 v=0
310800 On ch=1 n=c6 v=0
310800 On ch=1 n=a#5 v=60
310800 On ch=1 n=c5 v=45
310800 On ch=1 n=e5 v=45
310800 On ch=1 n=g4 v=45
311035 On ch=1 n=g4 v=0
311035 On ch=1 n=e5 v=0
311035 On ch=1 n=c5 v=0
311040 On ch=1 n=a#5 v=0
311040 On ch=1 n=a5 v=60
311040 On ch=1 n=f4 v=45
311280 On ch=1 n=c5 v=45
311280 On ch=1 n=f5 v=45
311280 On ch=1 n=a4 v=45
311280 On ch=1 n=c5 v=45
311440 On ch=1 n=f4 v=0
311440 On ch=1 n=a5 v=0
311680 On ch=1 n=c5 v=0
311680 On ch=1 n=a4 v=0
311680 On ch=1 n=f5 v=0
311680 On ch=1 n=c5 v=0
311760 On ch=1 n=c6 v=60
311760 On ch=1 n=a4 v=45
311760 On ch=1 n=f5 v=45
311995 On ch=1 n=f5 v=0
311995 On ch=1 n=a4 v=0
311995 On ch=1 n=c6 v=0
312000 On ch=1 n=c6 v=60
312000 On ch=1 n=f4 v=45
312240 On ch=1 n=c6 v=0
312240 On ch=1 n=f6 v=60
312240 On ch=1 n=f5 v=45
312240 On ch=1 n=c5 v=45
312240 On ch=1 n=a5 v=45
312400 On ch=1 n=f4 v=0
312480 On ch=1 n=f6 v=0
312480 On ch=1 n=e6 v=60
312480 On ch=1 n=a4 v=45
312640 On ch=1 n=a5 v=0
312640 On ch=1 n=c5 v=0
312640 On ch=1 n=f5 v=0
312720 On ch=1 n=e6 v=0
312720 On ch=1 n=d#6 v=60
312720 On ch=1 n=d#5 v=45
312720 On ch=1 n=c5 v=45
312720 On ch=1 n=f5 v=45
312880 On ch=1 n=a4 v=0
312955 On ch=1 n=f5 v=0
312955 On ch=1 n=c5 v=0
312955 On ch=1 n=d#5 v=0
312960 On ch=1 n=d#6 v=0
312960 Tempo 461538
312960 On ch=1 n=d6 v=60
312960 On ch=1 n=a#4 v=45
313022 Tempo 468750
313087 Tempo 476190
313150 Tempo 483870
313200 On ch=1 n=d6 v=0
313200 On ch=1 n=e6 v=60
313200 On ch=1 n=f5 v=45
313200 On ch=1 n=d5 v=45
313200 On ch=1 n=a#5 v=45
313215 Tempo 491803
313280 Tempo 500000
313342 Tempo 508474
313360 On ch=1 n=a#4 v=0
313407 Tempo 517241
313440 On ch=1 n=e6 v=0
313440 On ch=1 n=f6 v=60
313440 On ch=1 n=g4 v=45
313470 Tempo 526315
313535 Tempo 535714
313555 On ch=1 n=a#5 v=0
313555 On ch=1 n=d5 v=0
313555 On ch=1 n=f5 v=0
313560 On ch=1 n=f5 v=45
313560 On ch=1 n=b4 v=45
313600 Tempo 545454
313600 On ch=1 n=g5 v=45
313600 On ch=1 n=d5 v=45
313640 On ch=1 n=d6 v=45
313640 On ch=1 n=b5 v=45
313662 Tempo 555555
313680 On ch=1 n=f6 v=0
313680 On ch=1 n=g6 v=60
313727 Tempo 566037
313790 Tempo 576923
313840 On ch=1 n=g4 v=0
313855 Tempo 588235
313915 On ch=1 n=b5 v=0
313915 On ch=1 n=d6 v=0
313915 On ch=1 n=d5 v=0
313915 On ch=1 n=g5 v=0
313915 On ch=1 n=b4 v=0
313915 On ch=1 n=f5 v=0
313920 On ch=1 n=g6 v=0
313920 Tempo 600000
313920 Tempo 461538
313920 On ch=1 n=a6 v=60
313920 On ch=1 n=c5 v=45
314160 On ch=1 n=a5 v=45
314160 On ch=1 n=c6 v=45
314160 On ch=1 n=d5 v=45
314160 On ch=1 n=f5 v=45
314320 On ch=1 n=c5 v=0
314400 On ch=1 n=a6 v=0
314400 On ch=1 n=g6 v=60
314400 On ch=1 n=c5 v=45
314560 On ch=1 n=f5 v=0
314560 On ch=1 n=d5 v=0
314560 On ch=1 n=c6 v=0
314560 On ch=1 n=a5 v=0
314640 On ch=1 n=g5 v=45
314640 On ch=1 n=c6 v=45
314640 On ch=1 n=e5 v=45
314640 On ch=1 n=a#5 v=45
314800 On ch=1 n=c5 v=0
314875 On ch=1 n=a#5 v=0
314875 On ch=1 n=e5 v=0
314875 On ch=1 n=c6 v=0
314875 On ch=1 n=g5 v=0
314880 On ch=1 n=g6 v=0
314880 On ch=1 n=f6 v=60
314880 On ch=1 n=f4 v=45
315120 On ch=1 n=f5 v=45
315120 On ch=1 n=c6 v=45
315120 On ch=1 n=c5 v=45
315120 On ch=1 n=a5 v=45
315280 On ch=1 n=f4 v=0
315280 On ch=1 n=f6 v=0
315520 On ch=1 n=a5 v=0
315520 On ch=1 n=c5 v=0
315520 On ch=1 n=c6 v=0
315520 On ch=1 n=f5 v=0
315600 On ch=1 n=c5 v=45
315600 On ch=1 n=a5 v=45
315835 On ch=1 n=a5 v=0
315835 On ch=1 n=c5 v=0
315840 On ch=1 n=c6 v=92
315840 On ch=1 n=c4 v=75
316080 On ch=1 n=c6 v=0
316080 On ch=1 n=g5 v=92
316080 On ch=1 n=c5 v=75
316080 On ch=1 n=a#4 v=75
316080 On ch=1 n=e5 v=75
316320 On ch=1 n=g5 v=0
316320 On ch=1 n=a5 v=92
316480 On ch=1 n=e5 v=0
316480 On ch=1 n=a#4 v=0
316480 On ch=1 n=c5 v=0
316560 On ch=1 n=a5 v=0
316560 On ch=1 n=a#5 v=92
316560 On ch=1 n=c5 v=75
316560 On ch=1 n=a#4 v=75
316560 On ch=1 n=e5 v=75
316680 On ch=1 n=c4 v=0
316795 On ch=1 n=e5 v=0
316795 On ch=1 n=a#4 v=0
316795 On ch=1 n=c5 v=0
316800 On ch=1 n=a#5 v=0
316800 On ch=1 n=d6 v=75
316800 On ch=1 n=c4 v=75
317040 On ch=1 n=d5 v=75
317040 On ch=1 n=d5 v=75
317280 On ch=1 n=e5 v=92
317440 On ch=1 n=d5 v=0
317440 On ch=1 n=d5 v=0
317440 On ch=1 n=d6 v=0
317520 On ch=1 n=e5 v=0
317520 On ch=1 n=f#5 v=92
317520 On ch=1 n=c5 v=75
317520 On ch=1 n=d5 v=75
317640 On ch=1 n=c4 v=0
317755 On ch=1 n=d5 v=0
317755 On ch=1 n=c5 v=0
317760 On ch=1 n=f#5 v=0
317760 On ch=1 n=g5 v=92
317760 On ch=1 n=a#4 v=75
317760 On ch=1 n=c4 v=75
317995 On ch=1 n=a#4 v=0
318000 On ch=1 n=g5 v=0
318000 On ch=1 n=a#5 v=92
318000 On ch=1 n=g4 v=75
318000 On ch=1 n=d5 v=75
318160 On ch=1 n=c4 v=0
318240 On ch=1 n=a#5 v=0
318240 On ch=1 n=d6 v=92
318240 On ch=1 n=c4 v=75
318400 On ch=1 n=g4 v=0
318480 On ch=1 n=d6 v=0
318480 On ch=1 n=d5 v=92
318480 On ch=1 n=c5 v=75
318480 On ch=1 n=f#4 v=75
318640 On ch=1 n=c4 v=0
318715 On ch=1 n=f#4 v=0
318715 On ch=1 n=c5 v=0
318715 On ch=1 n=d5 v=0
318720 On ch=1 n=d5 v=0
318720 On ch=1 n=g5 v=92
318720 On ch=1 n=c4 v=75
318960 On ch=1 n=a#4 v=75
318960 On ch=1 n=d5 v=75
318960 On ch=1 n=g4 v=75
318960 On ch=1 n=d5 v=75
319120 On ch=1 n=g5 v=0
319360 On ch=1 n=d5 v=0
319360 On ch=1 n=g4 v=0
319360 On ch=1 n=d5 v=0
319360 On ch=1 n=a#4 v=0
319440 On ch=1 n=a#5 v=92
319440 On ch=1 n=g4 v=75
319440 On ch=1 n=d5 v=75
319560 On ch=1 n=c4 v=0
319675 On ch=1 n=d5 v=0
319675 On ch=1 n=g4 v=0
319680 On ch=1 n=a#5 v=0
319680 On ch=1 n=d6 v=92
319680 On ch=1 n=c4 v=75
319920 On ch=1 n=d6 v=0
319920 On ch=1 n=a5 v=92
319920 On ch=1 n=f#5 v=75
319920 On ch=1 n=d5 v=75
320160 On ch=1 n=a5 v=0
320160 On ch=1 n=a#5 v=92
320400 On ch=1 n=a#5 v=0
320400 On ch=1 n=d5 v=0
320400 On ch=1 n=c6 v=92
320400 On ch=1 n=c5 v=75
320520 On ch=1 n=c4 v=0
320560 On ch=1 n=f#5 v=0
320635 On ch=1 n=c5 v=0
320640 On ch=1 n=c6 v=0
320640 On ch=1 n=e6 v=75
320640 On ch=1 n=c4 v=75
320880 On ch=1 n=e5 v=75
320880 On ch=1 n=b4 v=75
320880 On ch=1 n=d5 v=75
321120 On ch=1 n=f#5 v=92
321280 On ch=1 n=d5 v=0
321280 On ch=1 n=b4 v=0
321280 On ch=1 n=e5 v=0
321280 On ch=1 n=e6 v=0
321360 On ch=1 n=f#5 v=0
321360 On ch=1 n=g#5 v=92
321360 On ch=1 n=d5 v=75
321360 On ch=1 n=b4 v=75
321480 On ch=1 n=c4 v=0
321595 On ch=1 n=b4 v=0
321595 On ch=1 n=d5 v=0
321600 On ch=1 n=g#5 v=0
321600 On ch=1 n=a5 v=92
321600 On ch=1 n=c5 v=75
321600 On ch=1 n=c4 v=75
321835 On ch=1 n=c5 v=0
321840 On ch=1 n=a5 v=0
321840 On ch=1 n=c6 v=92
321840 On ch=1 n=a4 v=75
321840 On ch=1 n=e5 v=75
322000 On ch=1 n=c4 v=0
322080 On ch=1 n=c6 v=0
322080 On ch=1 n=e6 v=92
322080 On ch=1 n=c4 v=75
322240 On ch=1 n=a4 v=0
322320 On ch=1 n=e6 v=0
322320 On ch=1 n=e5 v=92
322320 On ch=1 n=d5 v=75
322320 On ch=1 n=g#4 v=75
322480 On ch=1 n=c4 v=0
322560 Tempo 461538
322560 On ch=1 n=c4 v=75
322622 Tempo 468750
322687 Tempo 476190
322750 Tempo 483870
322795 On ch=1 n=g#4 v=0
322795 On ch=1 n=d5 v=0
322795 On ch=1 n=e5 v=0
322800 On ch=1 n=e5 v=0
322800 On ch=1 n=c5 v=92
322800 On ch=1 n=a5 v=92
322800 On ch=1 n=a4 v=75
322800 On ch=1 n=e5 v=75
322815 Tempo 491803
322880 Tempo 500000
322942 Tempo 508474
322960 On ch=1 n=c4 v=0
323007 Tempo 517241
323040 On ch=1 n=c4 v=75
323070 Tempo 526315
323135 Tempo 535714
323200 On ch=1 n=e5 v=0
323200 On ch=1 n=a4 v=0
323200 Tempo 545454
323262 Tempo 555555
323280 On ch=1 n=a5 v=0
323280 On ch=1 n=c5 v=0
323280 On ch=1 n=a#4 v=92
323280 On ch=1 n=g5 v=92
323280 On ch=1 n=e4 v=75
323280 On ch=1 n=c5 v=75
323327 Tempo 566037
323390 Tempo 576923
323440 On ch=1 n=c4 v=0
323455 Tempo 588235
323515 On ch=1 n=c5 v=0
323515 On ch=1 n=e4 v=0
323515 On ch=1 n=g5 v=0
323515 On ch=1 n=a#4 v=0
323520 Tempo 600000
323520 Tempo 461538
323520 On ch=1 n=f5 v=92
323520 On ch=1 n=f3 v=75
323760 On ch=1 n=f4 v=75
323760 On ch=1 n=c5 v=75
323760 On ch=1 n=c4 v=75
323760 On ch=1 n=a4 v=75
324000 On ch=1 n=f5 v=0
324000 On ch=1 n=e5 v=92
324160 On ch=1 n=a4 v=0
324160 On ch=1 n=c4 v=0
324160 On ch=1 n=c5 v=0
324160 On ch=1 n=f4 v=0
324240 On ch=1 n=e5 v=0
324240 On ch=1 n=d#5 v=92
324240 On ch=1 n=f4 v=75
324240 On ch=1 n=c4 v=75
324240 On ch=1 n=a4 v=75
324360 On ch=1 n=f3 v=0
324475 On ch=1 n=a4 v=0
324475 On ch=1 n=c4 v=0
324475 On ch=1 n=f4 v=0
324480 On ch=1 n=d#5 v=0
324480 On ch=1 n=d6 v=60
324480 On ch=1 n=a#3 v=45
324720 On ch=1 n=d6 v=0
324720 On ch=1 n=e6 v=60
324720 On ch=1 n=f5 v=45
324720 On ch=1 n=d4 v=45
324720 On ch=1 n=a#4 v=45
324880 On ch=1 n=a#3 v=0
324960 On ch=1 n=e6 v=0
324960 On ch=1 n=f6 v=60
324960 On ch=1 n=g3 v=45
325120 On ch=1 n=a#4 v=0
325120 On ch=1 n=d4 v=0
325120 On ch=1 n=f5 v=0
325200 On ch=1 n=f6 v=0
325200 On ch=1 n=g6 v=60
325200 On ch=1 n=f5 v=45
325200 On ch=1 n=a#4 v=45
325200 On ch=1 n=d5 v=45
325360 On ch=1 n=g3 v=0
325435 On ch=1 n=d5 v=0
325435 On ch=1 n=a#4 v=0
325435 On ch=1 n=f5 v=0
325435 On ch=1 n=g6 v=0
325440 On ch=1 n=c6 v=60
325440 On ch=1 n=c4 v=45
325675 On ch=1 n=c4 v=0
325680 On ch=1 n=g5 v=45
325680 On ch=1 n=c5 v=45
325680 On ch=1 n=e5 v=45
325680 On ch=1 n=a#4 v=45
325915 On ch=1 n=a#4 v=0
325915 On ch=1 n=g5 v=0
325920 On ch=1 n=a5 v=45
325920 On ch=1 n=a4 v=45
326080 On ch=1 n=e5 v=0
326080 On ch=1 n=c5 v=0
326155 On ch=1 n=a4 v=0
326155 On ch=1 n=a5 v=0
326160 On ch=1 n=c6 v=0
326160 On ch=1 n=a#5 v=60
326160 On ch=1 n=c5 v=45
326160 On ch=1 n=e5 v=45
326160 On ch=1 n=g4 v=45
326395 On ch=1 n=g4 v=0
326395 On ch=1 n=e5 v=0
326395 On ch=1 n=c5 v=0
326400 On ch=1 n=a#5 v=0
326400 On ch=1 n=a5 v=60
326400 On ch=1 n=f4 v=45
326640 On ch=1 n=c5 v=45
326640 On ch=1 n=f5 v=45
326640 On ch=1 n=a4 v=45
326640 On ch=1 n=c5 v=45
326800 On ch=1 n=f4 v=0
326800 On ch=1 n=a5 v=0
327040 On ch=1 n=c5 v=0
327040 On ch=1 n=a4 v=0
327040 On ch=1 n=f5 v=0
327040 On ch=1 n=c5 v=0
327120 On ch=1 n=c6 v=60
327120 On ch=1 n=a4 v=45
327120 On ch=1 n=f5 v=45
327355 On ch=1 n=f5 v=0
327355 On ch=1 n=a4 v=0
327355 On ch=1 n=c6 v=0
327360 On ch=1 n=c6 v=60
327360 On ch=1 n=f4 v=45
327600 On ch=1 n=c6 v=0
327600 On ch=1 n=f6 v=60
327600 On ch=1 n=f5 v=45
327600 On ch=1 n=c5 v=45
327600 On ch=1 n=a5 v=45
327760 On ch=1 n=f4 v=0
327840 On ch=1 n=f6 v=0
327840 On ch=1 n=e6 v=60
327840 On ch=1 n=a4 v=45
328000 On ch=1 n=a5 v=0
328000 On ch=1 n=c5 v=0
328000 On ch=1 n=f5 v=0
328080 On ch=1 n=e6 v=0
328080 On ch=1 n=d#6 v=60
328080 On ch=1 n=d#5 v=45
328080 On ch=1 n=c5 v=45
328080 On ch=1 n=f5 v=45
328240 On ch=1 n=a4 v=0
328315 On ch=1 n=f5 v=0
328315 On ch=1 n=c5 v=0
328315 On ch=1 n=d#5 v=0
328320 On ch=1 n=d#6 v=0
328320 Tempo 461538
328320 On ch=1 n=d6 v=60
328320 On ch=1 n=a#4 v=45
328382 Tempo 468750
328447 Tempo 476190
328510 Tempo 483870
328560 On ch=1 n=d6 v=0
328560 On ch=1 n=e6 v=60
328560 On ch=1 n=f5 v=45
328560 On ch=1 n=d5 v=45
328560 On ch=1 n=a#5 v=45
328575 Tempo 491803
328640 Tempo 500000
328702 Tempo 508474
328720 On ch=1 n=a#4 v=0
328767 Tempo 517241
328800 On ch=1 n=e6 v=0
328800 On ch=1 n=f6 v=60
328800 On ch=1 n=g4 v=45
328830 Tempo 526315
328895 Tempo 535714
328915 On ch=1 n=a#5 v=0
328915 On ch=1 n=d5 v=0
328915 On ch=1 n=f5 v=0
328920 On ch=1 n=f5 v=45
328920 On ch=1 n=b4 v=45
328960 Tempo 545454
328960 On ch=1 n=g5 v=45
328960 On ch=1 n=d5 v=45
329000 On ch=1 n=d6 v=45
329000 On ch=1 n=b5 v=45
329022 Tempo 555555
329040 On ch=1 n=f6 v=0
329040 On ch=1 n=g6 v=60
329087 Tempo 566037
329150 Tempo 576923
329200 On ch=1 n=g4 v=0
329215 Tempo 588235
329275 On ch=1 n=b5 v=0
329275 On ch=1 n=d6 v=0
329275 On ch=1 n=d5 v=0
329275 On ch=1 n=g5 v=0
329275 On ch=1 n=b4 v=0
329275 On ch=1 n=f5 v=0
329280 On ch=1 n=g6 v=0
329280 Tempo 600000
329280 Tempo 461538
329280 On ch=1 n=a6 v=60
329280 On ch=1 n=c5 v=45
329520 On ch=1 n=a5 v=45
329520 On ch=1 n=c6 v=45
329520 On ch=1 n=d5 v=45
329520 On ch=1 n=f5 v=45
329680 On ch=1 n=c5 v=0
329760 On ch=1 n=a6 v=0
329760 On ch=1 n=g6 v=60
329760 On ch=1 n=c5 v=45
329920 On ch=1 n=f5 v=0
329920 On ch=1 n=d5 v=0
329920 On ch=1 n=c6 v=0
329920 On ch=1 n=a5 v=0
330000 On ch=1 n=g5 v=45
330000 On ch=1 n=c6 v=45
330000 On ch=1 n=e5 v=45
330000 On ch=1 n=a#5 v=45
330160 On ch=1 n=c5 v=0
330235 On ch=1 n=a#5 v=0
330235 On ch=1 n=e5 v=0
330235 On ch=1 n=c6 v=0
330235 On ch=1 n=g5 v=0
330240 On ch=1 n=g6 v=0
330240 On ch=1 n=f6 v=60
330240 On ch=1 n=f4 v=45
330480 On ch=1 n=f5 v=45
330480 On ch=1 n=c6 v=45
330480 On ch=1 n=c5 v=45
330480 On ch=1 n=a5 v=45
330640 On ch=1 n=f4 v=0
330640 On ch=1 n=f6 v=0
330880 On ch=1 n=a5 v=0
330880 On ch=1 n=c5 v=0
330880 On ch=1 n=c6 v=0
330880 On ch=1 n=f5 v=0
330960 On ch=1 n=f5 v=60
330960 On ch=1 n=c6 v=60
330960 On ch=1 n=c5 v=45
330960 On ch=1 n=a5 v=45
331040 On ch=1 n=c6 v=0
331040 On ch=1 n=f5 v=0
331195 On ch=1 n=a5 v=0
331195 On ch=1 n=c5 v=0
331200 On ch=1 n=f5 v=60
331200 On ch=1 n=d6 v=60
331200 On ch=1 n=b4 v=45
331200 On ch=1 n=g#5 v=45
331440 On ch=1 n=g#5 v=0
331440 On ch=1 n=b4 v=0
331440 On ch=1 n=d6 v=0
331440 On ch=1 n=f5 v=0
331440 On ch=1 n=e5 v=60
331440 On ch=1 n=c6 v=60
331440 On ch=1 n=c5 v=45
331440 On ch=1 n=g5 v=45
331520 On ch=1 n=g5 v=0
331520 On ch=1 n=c5 v=0
331520 On ch=1 n=c6 v=0
331520 On ch=1 n=e5 v=0
331680 On ch=1 n=f5 v=60
331680 On ch=1 n=d6 v=60
331680 On ch=1 n=b4 v=45
331680 On ch=1 n=g#5 v=45
331920 On ch=1 n=g#5 v=0
331920 On ch=1 n=b4 v=0
331920 On ch=1 n=d6 v=0
331920 On ch=1 n=f5 v=0
331920 On ch=1 n=e5 v=60
331920 On ch=1 n=c6 v=60
331920 On ch=1 n=c5 v=45
331920 On ch=1 n=g5 v=45
332000 On ch=1 n=g5 v=0
332000 On ch=1 n=c5 v=0
332000 On ch=1 n=c6 v=0
332000 On ch=1 n=e5 v=0
332160 On ch=1 n=c6 v=60
332160 On ch=1 n=d#5 v=45
332160 On ch=1 n=a4 v=45
332395 On ch=1 n=d#5 v=0
332395 On ch=1 n=c6 v=0
332400 On ch=1 n=a4 v=0
332400 On ch=1 n=a#5 v=60
332400 On ch=1 n=d5 v=45
332400 On ch=1 n=f5 v=45
332400 On ch=1 n=a#4 v=45
332635 On ch=1 n=d5 v=0
332640 On ch=1 n=a#4 v=0
332640 On ch=1 n=c#5 v=45
332640 On ch=1 n=g4 v=45
332800 On ch=1 n=a#5 v=0
332875 On ch=1 n=c#5 v=0
332880 On ch=1 n=g4 v=0
332880 On ch=1 n=a5 v=60
332880 On ch=1 n=c5 v=45
332880 On ch=1 n=a4 v=45
333115 On ch=1 n=c5 v=0
333115 On ch=1 n=a5 v=0
333120 On ch=1 n=a4 v=0
333120 On ch=1 n=g5 v=60
333120 On ch=1 n=d5 v=45
333120 On ch=1 n=a#4 v=45
333360 On ch=1 n=a#4 v=0
333360 On ch=1 n=g4 v=45
333520 On ch=1 n=d5 v=0
333520 On ch=1 n=g5 v=0
333520 On ch=1 n=f5 v=0
333600 On ch=1 n=g4 v=0
333600 On ch=1 n=a5 v=60
333600 On ch=1 n=e5 v=45
333600 On ch=1 n=c5 v=45
333840 On ch=1 n=a#4 v=45
334000 On ch=1 n=c5 v=0
334000 On ch=1 n=e5 v=0
334000 On ch=1 n=a5 v=0
334080 On ch=1 n=a#4 v=0
334080 On ch=1 n=f5 v=60
334080 On ch=1 n=c5 v=45
334080 On ch=1 n=a4 v=45
334320 On ch=1 n=f4 v=45
334560 On ch=1 n=f4 v=0
334560 On ch=1 n=c4 v=45
334720 On ch=1 n=a4 v=0
334720 On ch=1 n=c5 v=0
334720 On ch=1 n=f5 v=0
334800 On ch=1 n=f4 v=60
334800 On ch=1 n=c5 v=60
334800 On ch=1 n=a4 v=45
334880 On ch=1 n=c5 v=0
334880 On ch=1 n=f4 v=0
334960 On ch=1 n=c4 v=0
335035 On ch=1 n=a4 v=0
335040 On ch=1 n=f4 v=60
335040 On ch=1 n=d5 v=60
335040 On ch=1 n=b3 v=45
335040 On ch=1 n=g#4 v=45
335280 On ch=1 n=g#4 v=0
335280 On ch=1 n=b3 v=0
335280 On ch=1 n=d5 v=0
335280 On ch=1 n=f4 v=0
335280 On ch=1 n=e4 v=60
335280 On ch=1 n=c5 v=60
335280 On ch=1 n=c4 v=45
335280 On ch=1 n=g4 v=45
335360 On ch=1 n=g4 v=0
335360 On ch=1 n=c4 v=0
335360 On ch=1 n=c5 v=0
335360 On ch=1 n=e4 v=0
335520 On ch=1 n=f4 v=60
335520 On ch=1 n=d5 v=60
335520 On ch=1 n=b3 v=45
335520 On ch=1 n=g#4 v=45
335760 On ch=1 n=g#4 v=0
335760 On ch=1 n=b3 v=0
335760 On ch=1 n=d5 v=0
335760 On ch=1 n=f4 v=0
335760 On ch=1 n=g4 v=45
335760 On ch=1 n=c4 v=45
335760 On ch=1 n=c5 v=60
335760 On ch=1 n=e4 v=60
335840 On ch=1 n=e4 v=0
335840 On ch=1 n=c5 v=0
335840 On ch=1 n=c4 v=0
335840 On ch=1 n=g4 v=0
336000 On ch=1 n=c5 v=60
336000 On ch=1 n=d#4 v=45
336000 On ch=1 n=a3 v=45
336235 On ch=1 n=d#4 v=0
336235 On ch=1 n=c5 v=0
336240 On ch=1 n=a3 v=0
336240 On ch=1 n=a#4 v=60
336240 On ch=1 n=d4 v=45
336240 On ch=1 n=f4 v=45
336240 On ch=1 n=a#3 v=45
336475 On ch=1 n=d4 v=0
336480 On ch=1 n=a#3 v=0
336480 On ch=1 n=c#4 v=45
336480 On ch=1 n=g3 v=45
336640 On ch=1 n=a#4 v=0
336715 On ch=1 n=c#4 v=0
336720 On ch=1 n=g3 v=0
336720 On ch=1 n=a4 v=60
336720 On ch=1 n=c4 v=45
336720 On ch=1 n=a3 v=45
336955 On ch=1 n=c4 v=0
336955 On ch=1 n=a4 v=0
336960 On ch=1 n=a3 v=0
336960 Tempo 461538
336960 On ch=1 n=g4 v=60
336960 On ch=1 n=d4 v=45
336960 On ch=1 n=a#3 v=45
337022 Tempo 468750
337087 Tempo 476190
337150 Tempo 483870
337200 On ch=1 n=a#3 v=0
337200 On ch=1 n=g3 v=45
337215 Tempo 491803
337280 Tempo 500000
337342 Tempo 508474
337360 On ch=1 n=d4 v=0
337360 On ch=1 n=g4 v=0
337360 On ch=1 n=f4 v=0
337407 Tempo 517241
337440 On ch=1 n=g3 v=0
337440 On ch=1 n=a4 v=60
337440 On ch=1 n=e4 v=45
337440 On ch=1 n=c4 v=45
337470 Tempo 526315
337535 Tempo 535714
337600 Tempo 545454
337662 Tempo 555555
337680 On ch=1 n=c3 v=45
337727 Tempo 566037
337790 Tempo 576923
337840 On ch=1 n=c4 v=0
337840 On ch=1 n=e4 v=0
337840 On ch=1 n=a4 v=0
337855 Tempo 588235
337920 On ch=1 n=c3 v=0
337920 Tempo 600000
337920 On ch=1 n=f4 v=60
337920 On ch=1 n=c4 v=45
337920 On ch=1 n=a3 v=45
337920 On ch=1 n=f3 v=45
337982 Tempo 612244
338047 Tempo 625000
338110 Tempo 638297
338160 On ch=1 n=f3 v=0
338160 On ch=1 n=c3 v=45
338175 Tempo 652173
338240 Tempo 666666
338302 Tempo 681818
338367 Tempo 697674
338400 On ch=1 n=c3 v=0
338400 On ch=1 n=f2 v=45
338430 Tempo 714285
338495 Tempo 731707
338560 Tempo 750000
338622 Tempo 769230
338687 Tempo 789473
338750 Tempo 810810
338760 On ch=1 n=a3 v=0
338760 On ch=1 n=c4 v=0
338760 On ch=1 n=f4 v=0
338800 On ch=1 n=f2 v=0
338815 Tempo 833333
338880 Tempo 857142
339840 Meta Text "Ritter vom Steckenpferd"
339840 Tempo 222222
339840 KeySig 0 major
339840 TimeSig 3/4 24 8
339840 On ch=1 n=e5 v=75
339840 On ch=1 n=g5 v=75
340080 On ch=1 n=c6 v=75
340080 On ch=1 n=g6 v=75
340320 On ch=1 n=g4 v=75
340480 On ch=1 n=g6 v=0
340480 On ch=1 n=c6 v=0
340560 On ch=1 n=c6 v=75
340560 On ch=1 n=g6 v=75
340680 On ch=1 n=g5 v=0
340680 On ch=1 n=e5 v=0
340795 On ch=1 n=g6 v=0
340795 On ch=1 n=c6 v=0
340800 On ch=1 n=c6 v=75
340800 On ch=1 n=a6 v=75
340800 On ch=1 n=d#5 v=75
340800 On ch=1 n=f#5 v=75
341200 On ch=1 n=f#5 v=0
341200 On ch=1 n=d#5 v=0
341200 On ch=1 n=a6 v=0
341200 On ch=1 n=c6 v=0
341280 On ch=1 n=e5 v=75
341280 On ch=1 n=g5 v=75
341520 On ch=1 n=c6 v=75
341520 On ch=1 n=g6 v=75
341680 On ch=1 n=g4 v=0
341760 On ch=1 n=g4 v=75
341920 On ch=1 n=g6 v=0
341920 On ch=1 n=c6 v=0
342000 On ch=1 n=c6 v=75
342000 On ch=1 n=g6 v=75
342120 On ch=1 n=g5 v=0
342120 On ch=1 n=e5 v=0
342235 On ch=1 n=g6 v=0
342235 On ch=1 n=c6 v=0
342240 On ch=1 n=c6 v=75
342240 On ch=1 n=e6 v=75
342240 On ch=1 n=c5 v=75
342240 On ch=1 n=g5 v=75
342640 On ch=1 n=g5 v=0
342640 On ch=1 n=c5 v=0
342640 On ch=1 n=e6 v=0
342640 On ch=1 n=c6 v=0
342720 On ch=1 n=d5 v=75
342720 On ch=1 n=g5 v=75
342960 On ch=1 n=c6 v=75
342960 On ch=1 n=f6 v=75
343120 On ch=1 n=g4 v=0
343200 On ch=1 n=g4 v=75
343360 On ch=1 n=f6 v=0
343360 On ch=1 n=c6 v=0
343440 On ch=1 n=c6 v=75
343440 On ch=1 n=f6 v=75
343560 On ch=1 n=g5 v=0
343560 On ch=1 n=d5 v=0
343675 On ch=1 n=f6 v=0
343675 On ch=1 n=c6 v=0
343680 On ch=1 n=d6 v=75
343680 On ch=1 n=g6 v=75
343680 On ch=1 n=b4 v=75
343680 On ch=1 n=g5 v=75
344080 On ch=1 n=g5 v=0
344080 On ch=1 n=b4 v=0
344080 On ch=1 n=g6 v=0
344080 On ch=1 n=d6 v=0
344160 On ch=1 n=c5 v=75
344160 On ch=1 n=g5 v=75
344400 On ch=1 n=c6 v=75
344400 On ch=1 n=e6 v=75
344560 On ch=1 n=g4 v=0
344640 On ch=1 n=g4 v=75
344800 On ch=1 n=e6 v=0
344800 On ch=1 n=c6 v=0
344880 On ch=1 n=c6 v=75
344880 On ch=1 n=e6 v=75
345000 On ch=1 n=g5 v=0
345000 On ch=1 n=c5 v=0
345115 On ch=1 n=e6 v=0
345115 On ch=1 n=c6 v=0
345120 On ch=1 n=g5 v=75
345120 On ch=1 n=c6 v=75
345120 On ch=1 n=c5 v=75
345120 On ch=1 n=e5 v=75
345520 On ch=1 n=e5 v=0
345520 On ch=1 n=c5 v=0
345520 On ch=1 n=c6 v=0
345520 On ch=1 n=g5 v=0
345600 On ch=1 n=e5 v=75
345840 On ch=1 n=g5 v=75
345840 On ch=1 n=c6 v=75
346000 On ch=1 n=g4 v=0
346080 On ch=1 n=g4 v=75
346240 On ch=1 n=c6 v=0
346240 On ch=1 n=g5 v=0
346320 On ch=1 n=g5 v=75
346320 On ch=1 n=c6 v=75
346555 On ch=1 n=c6 v=0
346555 On ch=1 n=g5 v=0
346560 On ch=1 n=e5 v=0
346560 On ch=1 n=a5 v=75
346560 On ch=1 n=c6 v=75
346560 On ch=1 n=f5 v=75
346960 On ch=1 n=c6 v=0
346960 On ch=1 n=a5 v=0
347040 On ch=1 n=f5 v=0
347040 On ch=1 n=e5 v=75
347280 On ch=1 n=g5 v=75
347280 On ch=1 n=c6 v=75
347440 On ch=1 n=g4 v=0
347520 On ch=1 n=g4 v=75
347680 On ch=1 n=c6 v=0
347680 On ch=1 n=g5 v=0
347760 On ch=1 n=g5 v=75
347760 On ch=1 n=c6 v=75
347995 On ch=1 n=c6 v=0
347995 On ch=1 n=g5 v=0
348000 On ch=1 n=e5 v=0
348000 On ch=1 n=e5 v=75
348000 On ch=1 n=c6 v=75
348000 On ch=1 n=c5 v=75
348400 On ch=1 n=c6 v=0
348400 On ch=1 n=e5 v=0
348480 On ch=1 n=c5 v=0
348480 On ch=1 n=d5 v=75
348720 On ch=1 n=f5 v=75
348720 On ch=1 n=g5 v=75
348880 On ch=1 n=g4 v=0
348960 On ch=1 n=g4 v=75
349120 On ch=1 n=g5 v=0
349120 On ch=1 n=f5 v=0
349200 On ch=1 n=f5 v=75
349200 On ch=1 n=g5 v=75
349435 On ch=1 n=g5 v=0
349435 On ch=1 n=f5 v=0
349440 On ch=1 n=d5 v=0
349440 On ch=1 n=g5 v=75
349440 On ch=1 n=e5 v=75
349840 On ch=1 n=g5 v=0
349920 On ch=1 n=e5 v=0
349920 On ch=1 n=c5 v=75
350160 On ch=1 n=e5 v=75
350160 On ch=1 n=g5 v=75
350320 On ch=1 n=g4 v=0
350400 On ch=1 n=g4 v=75
350560 On ch=1 n=g5 v=0
350560 On ch=1 n=e5 v=0
350640 On ch=1 n=e5 v=75
350640 On ch=1 n=g5 v=75
350875 On ch=1 n=g5 v=0
350875 On ch=1 n=e5 v=0
350880 On ch=1 n=c5 v=0
350880 On ch=1 n=e5 v=75
350880 On ch=1 n=g5 v=75
350880 On ch=1 n=c5 v=75
351240 On ch=1 n=g4 v=0
351280 On ch=1 n=c5 v=0
351280 On ch=1 n=g5 v=0
351280 On ch=1 n=e5 v=0
351360 Tempo 222222
351360 On ch=1 n=e5 v=75
351360 On ch=1 n=g5 v=75
351600 On ch=1 n=c6 v=75
351600 On ch=1 n=g6 v=75
351840 On ch=1 n=g4 v=75
352000 On ch=1 n=g6 v=0
352000 On ch=1 n=c6 v=0
352080 On ch=1 n=c6 v=75
352080 On ch=1 n=g6 v=75
352200 On ch=1 n=g5 v=0
352200 On ch=1 n=e5 v=0
352315 On ch=1 n=g6 v=0
352315 On ch=1 n=c6 v=0
352320 On ch=1 n=c6 v=75
352320 On ch=1 n=a6 v=75
352320 On ch=1 n=d#5 v=75
352320 On ch=1 n=f#5 v=75
352720 On ch=1 n=f#5 v=0
352720 On ch=1 n=d#5 v=0
352720 On ch=1 n=a6 v=0
352720 On ch=1 n=c6 v=0
352800 On ch=1 n=e5 v=75
352800 On ch=1 n=g5 v=75
353040 On ch=1 n=c6 v=75
353040 On ch=1 n=g6 v=75
353200 On ch=1 n=g4 v=0
353280 On ch=1 n=g4 v=75
353440 On ch=1 n=g6 v=0
353440 On ch=1 n=c6 v=0
353520 On ch=1 n=c6 v=75
353520 On ch=1 n=g6 v=75
353640 On ch=1 n=g5 v=0
353640 On ch=1 n=e5 v=0
353755 On ch=1 n=g6 v=0
353755 On ch=1 n=c6 v=0
353760 On ch=1 n=c6 v=75
353760 On ch=1 n=e6 v=75
353760 On ch=1 n=c5 v=75
353760 On ch=1 n=g5 v=75
354160 On ch=1 n=g5 v=0
354160 On ch=1 n=c5 v=0
354160 On ch=1 n=e6 v=0
354160 On ch=1 n=c6 v=0
354240 On ch=1 n=d5 v=75
354240 On ch=1 n=g5 v=75
354480 On ch=1 n=c6 v=75
354480 On ch=1 n=f6 v=75
354640 On ch=1 n=g4 v=0
354720 On ch=1 n=g4 v=75
354880 On ch=1 n=f6 v=0
354880 On ch=1 n=c6 v=0
354960 On ch=1 n=c6 v=75
354960 On ch=1 n=f6 v=75
355080 On ch=1 n=g5 v=0
355080 On ch=1 n=d5 v=0
355195 On ch=1 n=f6 v=0
355195 On ch=1 n=c6 v=0
355200 On ch=1 n=d6 v=75
355200 On ch=1 n=g6 v=75
355200 On ch=1 n=b4 v=75
355200 On ch=1 n=g5 v=75
355600 On ch=1 n=g5 v=0
355600 On ch=1 n=b4 v=0
355600 On ch=1 n=g6 v=0
355600 On ch=1 n=d6 v=0
355680 On ch=1 n=c5 v=75
355680 On ch=1 n=g5 v=75
355920 On ch=1 n=c6 v=75
355920 On ch=1 n=e6 v=75
356080 On ch=1 n=g4 v=0
356160 On ch=1 n=g4 v=75
356320 On ch=1 n=e6 v=0
356320 On ch=1 n=c6 v=0
356400 On ch=1 n=c6 v=75
356400 On ch=1 n=e6 v=75
356520 On ch=1 n=g5 v=0
356520 On ch=1 n=c5 v=0
356635 On ch=1 n=e6 v=0
356635 On ch=1 n=c6 v=0
356640 On ch=1 n=g5 v=75
356640 On ch=1 n=c6 v=75
356640 On ch=1 n=c5 v=75
356640 On ch=1 n=e5 v=75
357040 On ch=1 n=e5 v=0
357040 On ch=1 n=c5 v=0
357040 On ch=1 n=c6 v=0
357040 On ch=1 n=g5 v=0
357120 On ch=1 n=e5 v=75
357360 On ch=1 n=g5 v=75
357360 On ch=1 n=c6 v=75
357520 On ch=1 n=g4 v=0
357600 On ch=1 n=g4 v=75
357760 On ch=1 n=c6 v=0
357760 On ch=1 n=g5 v=0
357840 On ch=1 n=g5 v=75
357840 On ch=1 n=c6 v=75
358075 On ch=1 n=c6 v=0
358075 On ch=1 n=g5 v=0
358080 On ch=1 n=e5 v=0
358080 On ch=1 n=a5 v=75
358080 On ch=1 n=c6 v=75
358080 On ch=1 n=f5 v=75
358480 On ch=1 n=c6 v=0
358480 On ch=1 n=a5 v=0
358560 On ch=1 n=f5 v=0
358560 On ch=1 n=e5 v=75
358800 On ch=1 n=g5 v=75
358800 On ch=1 n=c6 v=75
358960 On ch=1 n=g4 v=0
359040 On ch=1 n=g4 v=75
359200 On ch=1 n=c6 v=0
359200 On ch=1 n=g5 v=0
359280 On ch=1 n=g5 v=75
359280 On ch=1 n=c6 v=75
359515 On ch=1 n=c6 v=0
359515 On ch=1 n=g5 v=0
359520 On ch=1 n=e5 v=0
359520 On ch=1 n=e5 v=75
359520 On ch=1 n=c6 v=75
359520 On ch=1 n=c5 v=75
359920 On ch=1 n=c6 v=0
359920 On ch=1 n=e5 v=0
360000 On ch=1 n=c5 v=0
360000 On ch=1 n=d5 v=75
360240 On ch=1 n=f5 v=75
360240 On ch=1 n=g5 v=75
360400 On ch=1 n=g4 v=0
360480 On ch=1 n=g4 v=75
360640 On ch=1 n=g5 v=0
360640 On ch=1 n=f5 v=0
360720 On ch=1 n=f5 v=75
360720 On ch=1 n=g5 v=75
360955 On ch=1 n=g5 v=0
360955 On ch=1 n=f5 v=0
360960 On ch=1 n=d5 v=0
360960 On ch=1 n=g5 v=75
360960 On ch=1 n=e5 v=75
361360 On ch=1 n=g5 v=0
361440 On ch=1 n=e5 v=0
361440 On ch=1 n=c5 v=75
361680 On ch=1 n=e5 v=75
361680 On ch=1 n=g5 v=75
361840 On ch=1 n=g4 v=0
361920 On ch=1 n=g4 v=75
362080 On ch=1 n=g5 v=0
362080 On ch=1 n=e5 v=0
362160 On ch=1 n=e5 v=75
362160 On ch=1 n=g5 v=75
362395 On ch=1 n=g5 v=0
362395 On ch=1 n=e5 v=0
362400 On ch=1 n=c5 v=0
362400 On ch=1 n=e5 v=75
362400 On ch=1 n=g5 v=75
362400 On ch=1 n=c5 v=75
362760 On ch=1 n=g4 v=0
362800 On ch=1 n=c5 v=0
362800 On ch=1 n=g5 v=0
362800 On ch=1 n=e5 v=0
362880 On ch=1 n=a#4 v=92
363120 On ch=1 n=e5 v=75
363120 On ch=1 n=g5 v=75
363120 On ch=1 n=c6 v=75
363360 On ch=1 n=c5 v=92
363520 On ch=1 n=c6 v=0
363520 On ch=1 n=g5 v=0
363520 On ch=1 n=e5 v=0
363600 On ch=1 n=e5 v=75
363600 On ch=1 n=g5 v=75
363600 On ch=1 n=c6 v=75
363720 On ch=1 n=a#4 v=0
363835 On ch=1 n=c6 v=0
363835 On ch=1 n=g5 v=0
363835 On ch=1 n=e5 v=0
363840 On ch=1 n=e5 v=75
363840 On ch=1 n=g5 v=75
363840 On ch=1 n=c6 v=75
363840 On ch=1 n=a4 v=92
364240 On ch=1 n=a4 v=0
364240 On ch=1 n=c6 v=0
364240 On ch=1 n=g5 v=0
364240 On ch=1 n=e5 v=0
364320 On ch=1 n=g4 v=92
364560 On ch=1 n=e5 v=75
364560 On ch=1 n=a#5 v=75
364560 On ch=1 n=c6 v=75
364720 On ch=1 n=c5 v=0
364800 On ch=1 n=c5 v=92
364960 On ch=1 n=c6 v=0
364960 On ch=1 n=a#5 v=0
364960 On ch=1 n=e5 v=0
365040 On ch=1 n=e5 v=75
365040 On ch=1 n=a#5 v=75
365040 On ch=1 n=c6 v=75
365160 On ch=1 n=g4 v=0
365275 On ch=1 n=c6 v=0
365275 On ch=1 n=a#5 v=0
365275 On ch=1 n=e5 v=0
365280 On ch=1 n=e5 v=75
365280 On ch=1 n=a#5 v=75
365280 On ch=1 n=c6 v=75
365280 On ch=1 n=f4 v=92
365680 On ch=1 n=f4 v=0
365680 On ch=1 n=c6 v=0
365680 On ch=1 n=a#5 v=0
365680 On ch=1 n=e5 v=0
365760 On ch=1 n=e4 v=92
366000 On ch=1 n=g5 v=75
366000 On ch=1 n=a#5 v=75
366000 On ch=1 n=c6 v=75
366160 On ch=1 n=c5 v=0
366240 On ch=1 n=c5 v=92
366400 On ch=1 n=c6 v=0
366400 On ch=1 n=a#5 v=0
366400 On ch=1 n=g5 v=0
366480 On ch=1 n=g5 v=75
366480 On ch=1 n=a#5 v=75
366480 On ch=1 n=c6 v=75
366600 On ch=1 n=e4 v=0
366640 On ch=1 n=c5 v=0
366715 On ch=1 n=c6 v=0
366715 On ch=1 n=a#5 v=0
366715 On ch=1 n=g5 v=0
366720 On ch=1 n=g5 v=75
366720 On ch=1 n=a#5 v=75
366720 On ch=1 n=c#6 v=75
366720 On ch=1 n=c#5 v=92
366720 On ch=1 n=d#4 v=92
367120 On ch=1 n=d#4 v=0
367120 On ch=1 n=c#6 v=0
367120 On ch=1 n=a#5 v=0
367120 On ch=1 n=g5 v=0
367200 On ch=1 n=d4 v=92
367440 On ch=1 n=g5 v=75
367440 On ch=1 n=a#5 v=75
367440 On ch=1 n=d6 v=75
367600 On ch=1 n=c#5 v=0
367680 On ch=1 n=d5 v=92
367840 On ch=1 n=d6 v=0
367840 On ch=1 n=a#5 v=0
367840 On ch=1 n=g5 v=0
367920 On ch=1 n=g5 v=75
367920 On ch=1 n=a#5 v=75
367920 On ch=1 n=d6 v=75
368040 On ch=1 n=d4 v=0
368080 On ch=1 n=d5 v=0
368155 On ch=1 n=d6 v=0
368155 On ch=1 n=a#5 v=0
368155 On ch=1 n=g5 v=0
368160 On ch=1 n=g5 v=75
368160 On ch=1 n=a#5 v=75
368160 On ch=1 n=e6 v=75
368160 On ch=1 n=e5 v=92
368160 On ch=1 n=c#4 v=92
368560 On ch=1 n=c#4 v=0
368560 On ch=1 n=e5 v=0
368560 On ch=1 n=e6 v=0
368560 On ch=1 n=a#5 v=0
368560 On ch=1 n=g5 v=0
368640 On ch=1 n=d4 v=92
368880 On ch=1 n=a5 v=75
368880 On ch=1 n=d6 v=75
368880 On ch=1 n=f6 v=75
369120 On ch=1 n=d5 v=92
369280 On ch=1 n=f6 v=0
369280 On ch=1 n=d6 v=0
369280 On ch=1 n=a5 v=0
369360 On ch=1 n=a5 v=75
369360 On ch=1 n=d6 v=75
369360 On ch=1 n=f6 v=75
369480 On ch=1 n=d4 v=0
369520 On ch=1 n=d5 v=0
369595 On ch=1 n=f6 v=0
369595 On ch=1 n=d6 v=0
369595 On ch=1 n=a5 v=0
369600 On ch=1 n=g5 v=75
369600 On ch=1 n=a#5 v=75
369600 On ch=1 n=e6 v=75
369600 On ch=1 n=g3 v=92
369600 On ch=1 n=g4 v=92
370000 On ch=1 n=g4 v=0
370000 On ch=1 n=g3 v=0
370000 On ch=1 n=e6 v=0
370000 On ch=1 n=a#5 v=0
370000 On ch=1 n=g5 v=0
370080 On ch=1 n=a3 v=92
370320 On ch=1 n=f5 v=75
370320 On ch=1 n=a5 v=75
370320 On ch=1 n=d6 v=75
370560 On ch=1 n=a4 v=92
370720 On ch=1 n=d6 v=0
370720 On ch=1 n=a5 v=0
370720 On ch=1 n=f5 v=0
370800 On ch=1 n=f5 v=75
370800 On ch=1 n=a5 v=75
370800 On ch=1 n=d6 v=75
370920 On ch=1 n=a3 v=0
370960 On ch=1 n=a4 v=0
371035 On ch=1 n=d6 v=0
371035 On ch=1 n=a5 v=0
371035 On ch=1 n=f5 v=0
371040 On ch=1 n=e5 v=75
371040 On ch=1 n=a5 v=75
371040 On ch=1 n=c#6 v=75
371040 On ch=1 n=a2 v=92
371040 On ch=1 n=a3 v=92
371440 On ch=1 n=a3 v=0
371440 On ch=1 n=a2 v=0
371440 On ch=1 n=c#6 v=0
371440 On ch=1 n=a5 v=0
371440 On ch=1 n=e5 v=0
371520 On ch=1 n=d3 v=92
371760 On ch=1 n=f5 v=75
371760 On ch=1 n=a5 v=75
371760 On ch=1 n=d6 v=75
372000 On ch=1 n=d4 v=92
372160 On ch=1 n=d6 v=0
372160 On ch=1 n=a5 v=0
372160 On ch=1 n=f5 v=0
372240 On ch=1 n=f5 v=75
372240 On ch=1 n=a5 v=75
372240 On ch=1 n=d6 v=75
372360 On ch=1 n=d3 v=0
372400 On ch=1 n=d4 v=0
372475 On ch=1 n=d6 v=0
372475 On ch=1 n=a5 v=0
372475 On ch=1 n=f5 v=0
372480 On ch=1 n=d#5 v=75
372480 On ch=1 n=f#5 v=75
372480 On ch=1 n=c6 v=75
372480 On ch=1 n=g#2 v=92
372480 On ch=1 n=g#3 v=92
372880 On ch=1 n=g#3 v=0
372880 On ch=1 n=g#2 v=0
372880 On ch=1 n=c6 v=0
372880 On ch=1 n=f#5 v=0
372880 On ch=1 n=d#5 v=0
372960 On ch=1 n=g2 v=92
372960 On ch=1 n=g3 v=92
373200 On ch=1 n=d5 v=75
373200 On ch=1 n=f5 v=75
373200 On ch=1 n=c6 v=75
373360 On ch=1 n=g3 v=0
373360 On ch=1 n=g2 v=0
373440 On ch=1 n=g4 v=92
373600 On ch=1 n=c6 v=0
373600 On ch=1 n=f5 v=0
373600 On ch=1 n=d5 v=0
373680 On ch=1 n=d5 v=75
373680 On ch=1 n=f5 v=75
373680 On ch=1 n=c6 v=75
373840 On ch=1 n=g4 v=0
373915 On ch=1 n=c6 v=0
373915 On ch=1 n=f5 v=0
373915 On ch=1 n=d5 v=0
373920 On ch=1 n=d5 v=75
373920 On ch=1 n=f5 v=75
373920 On ch=1 n=b5 v=75
373920 On ch=1 n=g2 v=92
373920 On ch=1 n=g3 v=92
374320 On ch=1 n=g3 v=0
374320 On ch=1 n=g2 v=0
374320 On ch=1 n=b5 v=0
374320 On ch=1 n=f5 v=0
374320 On ch=1 n=d5 v=0
374400 On ch=1 n=c3 v=108
374640 On ch=1 n=g5 v=92
374640 On ch=1 n=c6 v=92
374800 On ch=1 n=c3 v=0
374880 On ch=1 n=e4 v=108
375040 On ch=1 n=c6 v=0
375040 On ch=1 n=g5 v=0
375120 On ch=1 n=g5 v=92
375120 On ch=1 n=c6 v=92
375280 On ch=1 n=e4 v=0
375355 On ch=1 n=c6 v=0
375355 On ch=1 n=g5 v=0
375360 On ch=1 n=a5 v=92
375360 On ch=1 n=c6 v=92
375360 On ch=1 n=f4 v=108
375760 On ch=1 n=f4 v=0
375760 On ch=1 n=c6 v=0
375760 On ch=1 n=a5 v=0
375840 On ch=1 n=e4 v=108
376080 On ch=1 n=g5 v=92
376080 On ch=1 n=c6 v=92
376320 On ch=1 n=c3 v=108
376480 On ch=1 n=c6 v=0
376480 On ch=1 n=g5 v=0
376560 On ch=1 n=g5 v=92
376560 On ch=1 n=c6 v=92
376795 On ch=1 n=c6 v=0
376795 On ch=1 n=g5 v=0
376800 On ch=1 n=e4 v=0
376800 On ch=1 n=e5 v=92
376800 On ch=1 n=g5 v=92
376800 On ch=1 n=c6 v=92
376800 On ch=1 n=c4 v=108
377160 On ch=1 n=c3 v=0
377200 On ch=1 n=c4 v=0
377200 On ch=1 n=c6 v=0
377200 On ch=1 n=g5 v=0
377200 On ch=1 n=e5 v=0
377280 On ch=1 n=d4 v=108
377520 On ch=1 n=f5 v=92
377520 On ch=1 n=g5 v=92
377520 On ch=1 n=c6 v=92
377760 On ch=1 n=c3 v=108
377920 On ch=1 n=c6 v=0
377920 On ch=1 n=g5 v=0
377920 On ch=1 n=f5 v=0
378000 On ch=1 n=f5 v=92
378000 On ch=1 n=g5 v=92
378000 On ch=1 n=c6 v=92
378235 On ch=1 n=c6 v=0
378235 On ch=1 n=g5 v=0
378235 On ch=1 n=f5 v=0
378240 On ch=1 n=d4 v=0
378240 On ch=1 n=g5 v=92
378240 On ch=1 n=c6 v=92
378240 On ch=1 n=e4 v=108
378600 On ch=1 n=c3 v=0
378640 On ch=1 n=e4 v=0
378640 On ch=1 n=c6 v=0
378640 On ch=1 n=g5 v=0
378720 On ch=1 n=c4 v=108
378960 On ch=1 n=e5 v=92
378960 On ch=1 n=g5 v=92
378960 On ch=1 n=c6 v=92
379200 On ch=1 n=c3 v=108
379360 On ch=1 n=c6 v=0
379360 On ch=1 n=g5 v=0
379360 On ch=1 n=e5 v=0
379440 On ch=1 n=e5 v=92
379440 On ch=1 n=g5 v=92
379440 On ch=1 n=c6 v=92
379675 On ch=1 n=c6 v=0
379675 On ch=1 n=g5 v=0
379675 On ch=1 n=e5 v=0
379680 On ch=1 n=c4 v=0
379680 On ch=1 n=c5 v=92
379680 On ch=1 n=g5 v=92
379680 On ch=1 n=c6 v=92
379680 On ch=1 n=g3 v=108
380040 On ch=1 n=c3 v=0
380080 On ch=1 n=g3 v=0
380080 On ch=1 n=c6 v=0
380080 On ch=1 n=g5 v=0
380080 On ch=1 n=c5 v=0
380160 On ch=1 n=g3 v=108
380160 On ch=1 n=e4 v=108
380400 On ch=1 n=e5 v=92
380400 On ch=1 n=g5 v=92
380400 On ch=1 n=c6 v=92
380640 On ch=1 n=c3 v=108
380800 On ch=1 n=c6 v=0
380800 On ch=1 n=g5 v=0
380800 On ch=1 n=e5 v=0
380880 On ch=1 n=e5 v=92
380880 On ch=1 n=g5 v=92
380880 On ch=1 n=c6 v=92
381115 On ch=1 n=c6 v=0
381115 On ch=1 n=g5 v=0
381115 On ch=1 n=e5 v=0
381120 On ch=1 n=e4 v=0
381120 On ch=1 n=g3 v=0
381120 On ch=1 n=f5 v=92
381120 On ch=1 n=g5 v=92
381120 On ch=1 n=c6 v=92
381120 On ch=1 n=a3 v=108
381120 On ch=1 n=f4 v=108
381480 On ch=1 n=c3 v=0
381520 On ch=1 n=c6 v=0
381520 On ch=1 n=g5 v=0
381520 On ch=1 n=f5 v=0
381600 On ch=1 n=f4 v=0
381600 On ch=1 n=a3 v=0
381600 On ch=1 n=g3 v=108
381600 On ch=1 n=e4 v=108
381840 On ch=1 n=e5 v=92
381840 On ch=1 n=g5 v=92
381840 On ch=1 n=c6 v=92
382080 On ch=1 n=c3 v=108
382240 On ch=1 n=c6 v=0
382240 On ch=1 n=g5 v=0
382240 On ch=1 n=e5 v=0
382320 On ch=1 n=e5 v=92
382320 On ch=1 n=g5 v=92
382320 On ch=1 n=c6 v=92
382555 On ch=1 n=c6 v=0
382555 On ch=1 n=g5 v=0
382555 On ch=1 n=e5 v=0
382560 On ch=1 n=e4 v=0
382560 On ch=1 n=g3 v=0
382560 On ch=1 n=c5 v=92
382560 On ch=1 n=g5 v=92
382560 On ch=1 n=c6 v=92
382560 On ch=1 n=e3 v=108
382560 On ch=1 n=c4 v=108
382920 On ch=1 n=c3 v=0
382960 On ch=1 n=c6 v=0
382960 On ch=1 n=g5 v=0
382960 On ch=1 n=c5 v=0
383040 On ch=1 n=c4 v=0
383040 On ch=1 n=e3 v=0
383040 On ch=1 n=f3 v=108
383040 On ch=1 n=d4 v=108
383280 On ch=1 n=d5 v=92
383280 On ch=1 n=g5 v=92
383280 On ch=1 n=c6 v=92
383520 On ch=1 n=c3 v=108
383680 On ch=1 n=c6 v=0
383680 On ch=1 n=g5 v=0
383680 On ch=1 n=d5 v=0
383760 On ch=1 n=d5 v=92
383760 On ch=1 n=g5 v=92
383760 On ch=1 n=c6 v=92
383995 On ch=1 n=c6 v=0
383995 On ch=1 n=g5 v=0
383995 On ch=1 n=d5 v=0
384000 On ch=1 n=d4 v=0
384000 On ch=1 n=f3 v=0
384000 On ch=1 n=e5 v=92
384000 On ch=1 n=g5 v=92
384000 On ch=1 n=c6 v=92
384000 On ch=1 n=g3 v=108
384000 On ch=1 n=e4 v=108
384360 On ch=1 n=c3 v=0
384400 On ch=1 n=c6 v=0
384400 On ch=1 n=g5 v=0
384400 On ch=1 n=e5 v=0
384480 On ch=1 n=e4 v=0
384480 On ch=1 n=g3 v=0
384480 On ch=1 n=e3 v=108
384480 On ch=1 n=c4 v=108
384720 On ch=1 n=c5 v=92
384720 On ch=1 n=g5 v=92
384720 On ch=1 n=c6 v=92
384960 On ch=1 n=c3 v=108
385120 On ch=1 n=c6 v=0
385120 On ch=1 n=g5 v=0
385120 On ch=1 n=c5 v=0
385200 On ch=1 n=c5 v=92
385200 On ch=1 n=c6 v=92
385435 On ch=1 n=c6 v=0
385435 On ch=1 n=c5 v=0
385440 On ch=1 n=c4 v=0
385440 On ch=1 n=e3 v=0
385440 On ch=1 n=c5 v=92
385440 On ch=1 n=c6 v=92
385440 On ch=1 n=c4 v=108
385800 On ch=1 n=c3 v=0
385840 On ch=1 n=c4 v=0
385840 On ch=1 n=c6 v=0
385840 On ch=1 n=c5 v=0
385920 On ch=1 n=a#4 v=92
386160 On ch=1 n=e5 v=75
386160 On ch=1 n=g5 v=75
386160 On ch=1 n=c6 v=75
386400 On ch=1 n=c5 v=92
386560 On ch=1 n=c6 v=0
386560 On ch=1 n=g5 v=0
386560 On ch=1 n=e5 v=0
386640 On ch=1 n=e5 v=75
386640 On ch=1 n=g5 v=75
386640 On ch=1 n=c6 v=75
386760 On ch=1 n=a#4 v=0
386875 On ch=1 n=c6 v=0
386875 On ch=1 n=g5 v=0
386875 On ch=1 n=e5 v=0
386880 On ch=1 n=e5 v=75
386880 On ch=1 n=g5 v=75
386880 On ch=1 n=c6 v=75
386880 On ch=1 n=a4 v=92
387280 On ch=1 n=a4 v=0
387280 On ch=1 n=c6 v=0
387280 On ch=1 n=g5 v=0
387280 On ch=1 n=e5 v=0
387360 On ch=1 n=g4 v=92
387600 On ch=1 n=e5 v=75
387600 On ch=1 n=a#5 v=75
387600 On ch=1 n=c6 v=75
387760 On ch=1 n=c5 v=0
387840 On ch=1 n=c5 v=92
388000 On ch=1 n=c6 v=0
388000 On ch=1 n=a#5 v=0
388000 On ch=1 n=e5 v=0
388080 On ch=1 n=e5 v=75
388080 On ch=1 n=a#5 v=75
388080 On ch=1 n=c6 v=75
388200 On ch=1 n=g4 v=0
388315 On ch=1 n=c6 v=0
388315 On ch=1 n=a#5 v=0
388315 On ch=1 n=e5 v=0
388320 On ch=1 n=e5 v=75
388320 On ch=1 n=a#5 v=75
388320 On ch=1 n=c6 v=75
388320 On ch=1 n=f4 v=92
388720 On ch=1 n=f4 v=0
388720 On ch=1 n=c6 v=0
388720 On ch=1 n=a#5 v=0
388720 On ch=1 n=e5 v=0
388800 On ch=1 n=e4 v=92
389040 On ch=1 n=g5 v=75
389040 On ch=1 n=a#5 v=75
389040 On ch=1 n=c6 v=75
389200 On ch=1 n=c5 v=0
389280 On ch=1 n=c5 v=92
389440 On ch=1 n=c6 v=0
389440 On ch=1 n=a#5 v=0
389440 On ch=1 n=g5 v=0
389520 On ch=1 n=g5 v=75
389520 On ch=1 n=a#5 v=75
389520 On ch=1 n=c6 v=75
389640 On ch=1 n=e4 v=0
389680 On ch=1 n=c5 v=0
389755 On ch=1 n=c6 v=0
389755 On ch=1 n=a#5 v=0
389755 On ch=1 n=g5 v=0
389760 On ch=1 n=g5 v=75
389760 On ch=1 n=a#5 v=75
389760 On ch=1 n=c#6 v=75
389760 On ch=1 n=c#5 v=92
389760 On ch=1 n=d#4 v=92
390160 On ch=1 n=d#4 v=0
390160 On ch=1 n=c#6 v=0
390160 On ch=1 n=a#5 v=0
390160 On ch=1 n=g5 v=0
390240 On ch=1 n=d4 v=92
390480 On ch=1 n=g5 v=75
390480 On ch=1 n=a#5 v=75
390480 On ch=1 n=d6 v=75
390640 On ch=1 n=c#5 v=0
390720 On ch=1 n=d5 v=92
390880 On ch=1 n=d6 v=0
390880 On ch=1 n=a#5 v=0
390880 On ch=1 n=g5 v=0
390960 On ch=1 n=g5 v=75
390960 On ch=1 n=a#5 v=75
390960 On ch=1 n=d6 v=75
391080 On ch=1 n=d4 v=0
391120 On ch=1 n=d5 v=0
391195 On ch=1 n=d6 v=0
391195 On ch=1 n=a#5 v=0
391195 On ch=1 n=g5 v=0
391200 On ch=1 n=g5 v=75
391200 On ch=1 n=a#5 v=75
391200 On ch=1 n=e6 v=75
391200 On ch=1 n=e5 v=92
391200 On ch=1 n=c#4 v=92
391600 On ch=1 n=c#4 v=0
391600 On ch=1 n=e5 v=0
391600 On ch=1 n=e6 v=0
391600 On ch=1 n=a#5 v=0
391600 On ch=1 n=g5 v=0
391680 On ch=1 n=d4 v=92
391920 On ch=1 n=a5 v=75
391920 On ch=1 n=d6 v=75
391920 On ch=1 n=f6 v=75
392160 On ch=1 n=d5 v=92
392320 On ch=1 n=f6 v=0
392320 On ch=1 n=d6 v=0
392320 On ch=1 n=a5 v=0
392400 On ch=1 n=a5 v=75
392400 On ch=1 n=d6 v=75
392400 On ch=1 n=f6 v=75
392520 On ch=1 n=d4 v=0
392560 On ch=1 n=d5 v=0
392635 On ch=1 n=f6 v=0
392635 On ch=1 n=d6 v=0
392635 On ch=1 n=a5 v=0
392640 On ch=1 n=g5 v=75
392640 On ch=1 n=a#5 v=75
392640 On ch=1 n=e6 v=75
392640 On ch=1 n=g3 v=92
392640 On ch=1 n=g4 v=92
393040 On ch=1 n=g4 v=0
393040 On ch=1 n=g3 v=0
393040 On ch=1 n=e6 v=0
393040 On ch=1 n=a#5 v=0
393040 On ch=1 n=g5 v=0
393120 On ch=1 n=a3 v=92
393360 On ch=1 n=f5 v=75
393360 On ch=1 n=a5 v=75
393360 On ch=1 n=d6 v=75
393600 On ch=1 n=a4 v=92
393760 On ch=1 n=d6 v=0
393760 On ch=1 n=a5 v=0
393760 On ch=1 n=f5 v=0
393840 On ch=1 n=f5 v=75
393840 On ch=1 n=a5 v=75
393840 On ch=1 n=d6 v=75
393960 On ch=1 n=a3 v=0
394000 On ch=1 n=a4 v=0
394075 On ch=1 n=d6 v=0
394075 On ch=1 n=a5 v=0
394075 On ch=1 n=f5 v=0
394080 On ch=1 n=e5 v=75
394080 On ch=1 n=a5 v=75
394080 On ch=1 n=c#6 v=75
394080 On ch=1 n=a2 v=92
394080 On ch=1 n=a3 v=92
394480 On ch=1 n=a3 v=0
394480 On ch=1 n=a2 v=0
394480 On ch=1 n=c#6 v=0
394480 On ch=1 n=a5 v=0
394480 On ch=1 n=e5 v=0
394560 On ch=1 n=d3 v=92
394800 On ch=1 n=f5 v=75
394800 On ch=1 n=a5 v=75
394800 On ch=1 n=d6 v=75
395040 On ch=1 n=d4 v=92
395200 On ch=1 n=d6 v=0
395200 On ch=1 n=a5 v=0
395200 On ch=1 n=f5 v=0
395280 On ch=1 n=f5 v=75
395280 On ch=1 n=a5 v=75
395280 On ch=1 n=d6 v=75
395400 On ch=1 n=d3 v=0
395440 On ch=1 n=d4 v=0
395515 On ch=1 n=d6 v=0
395515 On ch=1 n=a5 v=0
395515 On ch=1 n=f5 v=0
395520 On ch=1 n=d#5 v=75
395520 On ch=1 n=f#5 v=75
395520 On ch=1 n=c6 v=75
395520 On ch=1 n=g#2 v=92
395520 On ch=1 n=g#3 v=92
395920 On ch=1 n=g#3 v=0
395920 On ch=1 n=g#2 v=0
395920 On ch=1 n=c6 v=0
395920 On ch=1 n=f#5 v=0
395920 On ch=1 n=d#5 v=0
396000 On ch=1 n=g2 v=92
396000 On ch=1 n=g3 v=92
396240 On ch=1 n=d5 v=75
396240 On ch=1 n=f5 v=75
396240 On ch=1 n=c6 v=75
396400 On ch=1 n=g3 v=0
396400 On ch=1 n=g2 v=0
396480 On ch=1 n=g4 v=92
396640 On ch=1 n=c6 v=0
396640 On ch=1 n=f5 v=0
396640 On ch=1 n=d5 v=0
396720 On ch=1 n=d5 v=75
396720 On ch=1 n=f5 v=75
396720 On ch=1 n=c6 v=75
396880 On ch=1 n=g4 v=0
396955 On ch=1 n=c6 v=0
396955 On ch=1 n=f5 v=0
396955 On ch=1 n=d5 v=0
396960 On ch=1 n=d5 v=75
396960 On ch=1 n=f5 v=75
396960 On ch=1 n=b5 v=75
396960 On ch=1 n=g2 v=92
396960 On ch=1 n=g3 v=92
397360 On ch=1 n=g3 v=0
397360 On ch=1 n=g2 v=0
397360 On ch=1 n=b5 v=0
397360 On ch=1 n=f5 v=0
397360 On ch=1 n=d5 v=0
397440 On ch=1 n=c3 v=108
397680 On ch=1 n=g5 v=92
397680 On ch=1 n=c6 v=92
397840 On ch=1 n=c3 v=0
397920 On ch=1 n=e4 v=108
398080 On ch=1 n=c6 v=0
398080 On ch=1 n=g5 v=0
398160 On ch=1 n=c6 v=92
398160 On ch=1 n=g5 v=92
398320 On ch=1 n=e4 v=0
398395 On ch=1 n=g5 v=0
398395 On ch=1 n=c6 v=0
398400 On ch=1 n=f4 v=108
398400 On ch=1 n=c6 v=92
398400 On ch=1 n=a5 v=92
398800 On ch=1 n=a5 v=0
398800 On ch=1 n=c6 v=0
398800 On ch=1 n=f4 v=0
398880 On ch=1 n=e4 v=108
399120 On ch=1 n=c6 v=92
399120 On ch=1 n=g5 v=92
399360 On ch=1 n=c3 v=108
399520 On ch=1 n=g5 v=0
399520 On ch=1 n=c6 v=0
399600 On ch=1 n=g5 v=92
399600 On ch=1 n=c6 v=92
399835 On ch=1 n=c6 v=0
399835 On ch=1 n=g5 v=0
399840 On ch=1 n=e4 v=0
399840 On ch=1 n=e5 v=92
399840 On ch=1 n=g5 v=92
399840 On ch=1 n=c6 v=92
399840 On ch=1 n=c4 v=108
400200 On ch=1 n=c3 v=0
400240 On ch=1 n=c4 v=0
400240 On ch=1 n=c6 v=0
400240 On ch=1 n=g5 v=0
400240 On ch=1 n=e5 v=0
400320 On ch=1 n=d4 v=108
400560 On ch=1 n=f5 v=92
400560 On ch=1 n=g5 v=92
400560 On ch=1 n=c6 v=92
400800 On ch=1 n=c3 v=108
400960 On ch=1 n=c6 v=0
400960 On ch=1 n=g5 v=0
400960 On ch=1 n=f5 v=0
401040 On ch=1 n=f5 v=92
401040 On ch=1 n=g5 v=92
401040 On ch=1 n=c6 v=92
401275 On ch=1 n=c6 v=0
401275 On ch=1 n=g5 v=0
401275 On ch=1 n=f5 v=0
401280 On ch=1 n=d4 v=0
401280 On ch=1 n=g5 v=92
401280 On ch=1 n=c6 v=92
401280 On ch=1 n=e4 v=108
401640 On ch=1 n=c3 v=0
401680 On ch=1 n=e4 v=0
401680 On ch=1 n=c6 v=0
401680 On ch=1 n=g5 v=0
401760 On ch=1 n=c4 v=108
402000 On ch=1 n=e5 v=92
402000 On ch=1 n=g5 v=92
402000 On ch=1 n=c6 v=92
402240 On ch=1 n=c3 v=108
402400 On ch=1 n=c6 v=0
402400 On ch=1 n=g5 v=0
402400 On ch=1 n=e5 v=0
402480 On ch=1 n=e5 v=92
402480 On ch=1 n=g5 v=92
402480 On ch=1 n=c6 v=92
402715 On ch=1 n=c6 v=0
402715 On ch=1 n=g5 v=0
402715 On ch=1 n=e5 v=0
402720 On ch=1 n=c4 v=0
402720 On ch=1 n=c5 v=92
402720 On ch=1 n=g5 v=92
402720 On ch=1 n=c6 v=92
402720 On ch=1 n=g3 v=108
403080 On ch=1 n=c3 v=0
403120 On ch=1 n=g3 v=0
403120 On ch=1 n=c6 v=0
403120 On ch=1 n=g5 v=0
403120 On ch=1 n=c5 v=0
403200 On ch=1 n=g3 v=108
403200 On ch=1 n=e4 v=108
403440 On ch=1 n=e5 v=92
403440 On ch=1 n=g5 v=92
403440 On ch=1 n=c6 v=92
403680 On ch=1 n=c3 v=108
403840 On ch=1 n=c6 v=0
403840 On ch=1 n=g5 v=0
403840 On ch=1 n=e5 v=0
403920 On ch=1 n=e5 v=92
403920 On ch=1 n=g5 v=92
403920 On ch=1 n=c6 v=92
404155 On ch=1 n=c6 v=0
404155 On ch=1 n=g5 v=0
404155 On ch=1 n=e5 v=0
404160 On ch=1 n=e4 v=0
404160 On ch=1 n=g3 v=0
404160 On ch=1 n=f5 v=92
404160 On ch=1 n=g5 v=92
404160 On ch=1 n=c6 v=92
404160 On ch=1 n=a3 v=108
404160 On ch=1 n=f4 v=108
404520 On ch=1 n=c3 v=0
404560 On ch=1 n=c6 v=0
404560 On ch=1 n=g5 v=0
404560 On ch=1 n=f5 v=0
404640 On ch=1 n=f4 v=0
404640 On ch=1 n=a3 v=0
404640 On ch=1 n=g3 v=108
404640 On ch=1 n=e4 v=108
404880 On ch=1 n=e5 v=92
404880 On ch=1 n=g5 v=92
404880 On ch=1 n=c6 v=92
405120 On ch=1 n=c3 v=108
405280 On ch=1 n=c6 v=0
405280 On ch=1 n=g5 v=0
405280 On ch=1 n=e5 v=0
405360 On ch=1 n=e5 v=92
405360 On ch=1 n=g5 v=92
405360 On ch=1 n=c6 v=92
405595 On ch=1 n=c6 v=0
405595 On ch=1 n=g5 v=0
405595 On ch=1 n=e5 v=0
405600 On ch=1 n=e4 v=0
405600 On ch=1 n=g3 v=0
405600 On ch=1 n=c5 v=92
405600 On ch=1 n=g5 v=92
405600 On ch=1 n=c6 v=92
405600 On ch=1 n=e3 v=108
405600 On ch=1 n=c4 v=108
405960 On ch=1 n=c3 v=0
406000 On ch=1 n=c6 v=0
406000 On ch=1 n=g5 v=0
406000 On ch=1 n=c5 v=0
406080 On ch=1 n=c4 v=0
406080 On ch=1 n=e3 v=0
406080 On ch=1 n=f3 v=108
406080 On ch=1 n=d4 v=108
406320 On ch=1 n=d5 v=92
406320 On ch=1 n=g5 v=92
406320 On ch=1 n=c6 v=92
406560 On ch=1 n=c3 v=108
406720 On ch=1 n=c6 v=0
406720 On ch=1 n=g5 v=0
406720 On ch=1 n=d5 v=0
406800 On ch=1 n=d5 v=92
406800 On ch=1 n=g5 v=92
406800 On ch=1 n=c6 v=92
407035 On ch=1 n=c6 v=0
407035 On ch=1 n=g5 v=0
407035 On ch=1 n=d5 v=0
407040 On ch=1 n=d4 v=0
407040 On ch=1 n=f3 v=0
407040 On ch=1 n=e5 v=92
407040 On ch=1 n=g5 v=92
407040 On ch=1 n=c6 v=92
407040 On ch=1 n=g3 v=108
407040 On ch=1 n=e4 v=108
407400 On ch=1 n=c3 v=0
407440 On ch=1 n=c6 v=0
407440 On ch=1 n=g5 v=0
407440 On ch=1 n=e5 v=0
407520 On ch=1 n=e4 v=0
407520 On ch=1 n=g3 v=0
407520 On ch=1 n=e3 v=108
407520 On ch=1 n=c4 v=108
407760 On ch=1 n=c5 v=92
407760 On ch=1 n=g5 v=92
407760 On ch=1 n=c6 v=92
408000 On ch=1 n=c3 v=108
408160 On ch=1 n=c6 v=0
408160 On ch=1 n=g5 v=0
408160 On ch=1 n=c5 v=0
408240 On ch=1 n=c5 v=92
408240 On ch=1 n=c6 v=92
408475 On ch=1 n=c6 v=0
408475 On ch=1 n=c5 v=0
408480 On ch=1 n=c4 v=0
408480 On ch=1 n=e3 v=0
408480 On ch=1 n=c5 v=92
408480 On ch=1 n=c6 v=92
408480 On ch=1 n=c4 v=108
408840 On ch=1 n=c3 v=0
408880 On ch=1 n=c4 v=0
408880 On ch=1 n=c6 v=0
408880 On ch=1 n=c5 v=0
410400 Meta Text "Fast zu ernst"
410400 Tempo 1200000
410400 KeySig 5 major
410400 TimeSig 2/8 24 8
410760 On ch=1 n=d#5 v=60
410880 Par ch=1 c=64 v=127
410880 On ch=1 n=g#3 v=45
410995 On ch=1 n=g#3 v=0
410995 On ch=1 n=d#5 v=0
411000 On ch=1 n=g#5 v=60
411000 On ch=1 n=d#5 v=45
411115 On ch=1 n=d#5 v=0
411120 On ch=1 n=b4 v=45
411120 On ch=1 n=g#4 v=45
411235 On ch=1 n=g#4 v=0
411235 On ch=1 n=g#5 v=0
411240 On ch=1 n=b5 v=60
411240 On ch=1 n=d#4 v=45
411300 Par ch=1 c=64 v=0
411355 On ch=1 n=d#4 v=0
411355 On ch=1 n=b4 v=0
411360 Par ch=1 c=64 v=127
411360 On ch=1 n=g#3 v=45
411475 On ch=1 n=g#3 v=0
411475 On ch=1 n=b5 v=0
411480 On ch=1 n=a#5 v=60
411480 On ch=1 n=d#5 v=45
411595 On ch=1 n=d#5 v=0
411600 On ch=1 n=c#5 v=45
411600 On ch=1 n=g4 v=45
411715 On ch=1 n=g4 v=0
411715 On ch=1 n=a#5 v=0
411720 On ch=1 n=g5 v=60
411720 On ch=1 n=d#4 v=45
411780 Par ch=1 c=64 v=0
411835 On ch=1 n=d#4 v=0
411835 On ch=1 n=c#5 v=0
411840 Par ch=1 c=64 v=127
411840 On ch=1 n=g#3 v=45
411955 On ch=1 n=g#3 v=0
411955 On ch=1 n=g5 v=0
411960 On ch=1 n=g#5 v=60
411960 On ch=1 n=d#5 v=45
412075 On ch=1 n=d#5 v=0
412080 On ch=1 n=b4 v=45
412080 On ch=1 n=g#4 v=45
412195 On ch=1 n=g#4 v=0
412195 On ch=1 n=g#5 v=0
412200 On ch=1 n=a#5 v=60
412200 On ch=1 n=d#4 v=45
412260 Par ch=1 c=64 v=0
412315 On ch=1 n=d#4 v=0
412315 On ch=1 n=b4 v=0
412320 Par ch=1 c=64 v=127
412320 On ch=1 n=g3 v=48
412435 On ch=1 n=g3 v=0
412435 On ch=1 n=a#5 v=0
412440 On ch=1 n=b5 v=66
412440 On ch=1 n=e5 v=51
412555 On ch=1 n=e5 v=0
412560 On ch=1 n=b4 v=52
412560 On ch=1 n=c#5 v=54
412675 On ch=1 n=c#5 v=0
412675 On ch=1 n=b5 v=0
412680 On ch=1 n=c#6 v=72
412680 On ch=1 n=e4 v=57
412740 Par ch=1 c=64 v=0
412795 On ch=1 n=e4 v=0
412795 On ch=1 n=b4 v=0
412800 Par ch=1 c=64 v=127
412800 On ch=1 n=f#3 v=60
412915 On ch=1 n=f#3 v=0
412915 On ch=1 n=c#6 v=0
412920 On ch=1 n=d#6 v=75
412920 On ch=1 n=f#5 v=60
413035 On ch=1 n=f#5 v=0
413040 On ch=1 n=d#5 v=60
413040 On ch=1 n=b4 v=60
413155 On ch=1 n=b4 v=0
413155 On ch=1 n=d#6 v=0
413160 On ch=1 n=e6 v=75
413160 On ch=1 n=f#4 v=60
413220 Par ch=1 c=64 v=0
413275 On ch=1 n=f#4 v=0
413275 On ch=1 n=d#5 v=0
413280 Par ch=1 c=64 v=127
413280 On ch=1 n=f#3 v=60
413395 On ch=1 n=f#3 v=0
413395 On ch=1 n=e6 v=0
413400 On ch=1 n=c#6 v=75
413400 On ch=1 n=f#5 v=60
413515 On ch=1 n=f#5 v=0
413520 On ch=1 n=e5 v=60
413520 On ch=1 n=a#4 v=60
413635 On ch=1 n=a#4 v=0
413635 On ch=1 n=c#6 v=0
413640 On ch=1 n=d#6 v=75
413640 On ch=1 n=f#4 v=60
413700 Par ch=1 c=64 v=0
413755 On ch=1 n=f#4 v=0
413755 On ch=1 n=e5 v=0
413760 Tempo 1200000
413760 Par ch=1 c=64 v=127
413760 On ch=1 n=b3 v=60
413807 Tempo 1250000
413855 Tempo 1304347
413875 On ch=1 n=b3 v=0
413875 On ch=1 n=d#6 v=0
413880 On ch=1 n=b5 v=75
413880 On ch=1 n=f#5 v=60
413902 Tempo 1363636
413950 Tempo 1428571
414000 Tempo 1500000
414000 On ch=1 n=d#5 v=60
414000 On ch=1 n=b4 v=45
414047 Tempo 1578947
414095 Tempo 1666666
414120 On ch=1 n=f#4 v=45
414142 Tempo 1764705
414180 Par ch=1 c=64 v=0
414190 Tempo 1875000
414240 Tempo 2000000
414240 Par ch=1 c=64 v=127
414287 Tempo 2142857
414335 Tempo 2307692
414382 Tempo 2500000
414430 Tempo 2727272
414475 On ch=1 n=f#4 v=0
414475 On ch=1 n=b4 v=0
414475 On ch=1 n=d#5 v=0
414475 On ch=1 n=f#5 v=0
414475 On ch=1 n=b5 v=0
414480 Tempo 3000000
414600 Tempo 1200000
414600 On ch=1 n=f#5 v=60
414660 Par ch=1 c=64 v=0
414720 Par ch=1 c=64 v=127
414720 On ch=1 n=b3 v=45
414835 On ch=1 n=b3 v=0
414835 On ch=1 n=f#5 v=0
414840 On ch=1 n=b5 v=60
414840 On ch=1 n=f#5 v=45
414955 On ch=1 n=f#5 v=0
414960 On ch=1 n=d#5 v=45
414960 On ch=1 n=b4 v=45
415075 On ch=1 n=b4 v=0
415075 On ch=1 n=b5 v=0
415080 On ch=1 n=d#6 v=60
415080 On ch=1 n=f#4 v=45
415140 Par ch=1 c=64 v=0
415195 On ch=1 n=f#4 v=0
415195 On ch=1 n=d#5 v=0
415200 Par ch=1 c=64 v=127
415200 On ch=1 n=b3 v=45
415315 On ch=1 n=b3 v=0
415315 On ch=1 n=d#6 v=0
415320 On ch=1 n=c#6 v=60
415320 On ch=1 n=g5 v=45
415440 On ch=1 n=e5 v=45
415440 On ch=1 n=c#5 v=45
415555 On ch=1 n=c#5 v=0
415555 On ch=1 n=c#6 v=0
415560 On ch=1 n=a#5 v=60
415560 On ch=1 n=f#4 v=45
415620 Par ch=1 c=64 v=0
415675 On ch=1 n=f#4 v=0
415675 On ch=1 n=e5 v=0
415675 On ch=1 n=g5 v=0
415680 Par ch=1 c=64 v=127
415680 On ch=1 n=b3 v=45
415795 On ch=1 n=b3 v=0
415795 On ch=1 n=a#5 v=0
415800 On ch=1 n=b5 v=60
415800 On ch=1 n=f#5 v=45
415915 On ch=1 n=f#5 v=0
415920 On ch=1 n=d#5 v=45
415920 On ch=1 n=b4 v=45
416035 On ch=1 n=b4 v=0
416035 On ch=1 n=b5 v=0
416040 On ch=1 n=c#6 v=60
416040 On ch=1 n=f#4 v=45
416100 Par ch=1 c=64 v=0
416155 On ch=1 n=f#4 v=0
416155 On ch=1 n=d#5 v=0
416160 Par ch=1 c=64 v=127
416160 On ch=1 n=b3 v=45
416275 On ch=1 n=b3 v=0
416275 On ch=1 n=c#6 v=0
416280 On ch=1 n=d#6 v=60
416280 On ch=1 n=f5 v=45
416395 On ch=1 n=f5 v=0
416400 On ch=1 n=d#5 v=45
416400 On ch=1 n=b4 v=45
416515 On ch=1 n=b4 v=0
416515 On ch=1 n=d#6 v=0
416520 On ch=1 n=f6 v=60
416520 On ch=1 n=f4 v=45
416580 Par ch=1 c=64 v=0
416635 On ch=1 n=f4 v=0
416635 On ch=1 n=d#5 v=0
416640 Par ch=1 c=64 v=127
416640 On ch=1 n=a#3 v=47
416755 On ch=1 n=a#3 v=0
416755 On ch=1 n=f6 v=0
416760 On ch=1 n=f#6 v=64
416760 On ch=1 n=a#5 v=49
416875 On ch=1 n=a#5 v=0
416880 On ch=1 n=f#5 v=50
416880 On ch=1 n=d#5 v=51
416995 On ch=1 n=d#5 v=0
416995 On ch=1 n=f#6 v=0
417000 On ch=1 n=g#6 v=69
417000 On ch=1 n=a#4 v=54
417060 Par ch=1 c=64 v=0
417115 On ch=1 n=a#4 v=0
417115 On ch=1 n=f#5 v=0
417120 Par ch=1 c=64 v=127
417120 On ch=1 n=a#3 v=57
417235 On ch=1 n=a#3 v=0
417235 On ch=1 n=g#6 v=0
417240 On ch=1 n=f6 v=75
417240 On ch=1 n=b5 v=60
417360 On ch=1 n=g#5 v=60
417360 On ch=1 n=d5 v=45
417475 On ch=1 n=d5 v=0
417475 On ch=1 n=f6 v=0
417480 On ch=1 n=f#6 v=75
417480 On ch=1 n=a#4 v=45
417540 Par ch=1 c=64 v=0
417595 On ch=1 n=a#4 v=0
417595 On ch=1 n=g#5 v=0
417595 On ch=1 n=b5 v=0
417600 Tempo 1200000
417600 Par ch=1 c=64 v=127
417600 On ch=1 n=d#4 v=60
417647 Tempo 1250000
417695 Tempo 1304347
417715 On ch=1 n=d#4 v=0
417715 On ch=1 n=f#6 v=0
417720 On ch=1 n=d#6 v=75
417720 On ch=1 n=a#5 v=60
417742 Tempo 1363636
417790 Tempo 1428571
417840 Tempo 1500000
417840 On ch=1 n=f#5 v=60
417840 On ch=1 n=d#5 v=45
417887 Tempo 1578947
417935 Tempo 1666666
417960 On ch=1 n=a#4 v=45
417982 Tempo 1764705
418020 Par ch=1 c=64 v=0
418030 Tempo 1875000
418080 Tempo 2000000
418080 Par ch=1 c=64 v=127
418127 Tempo 2142857
418175 Tempo 2307692
418222 Tempo 2500000
418270 Tempo 2727272
418315 On ch=1 n=a#4 v=0
418315 On ch=1 n=d#5 v=0
418315 On ch=1 n=f#5 v=0
418315 On ch=1 n=a#5 v=0
418315 On ch=1 n=d#6 v=0
418320 Tempo 3000000
418440 Tempo 1200000
418440 On ch=1 n=d#6 v=60
418500 Par ch=1 c=64 v=0
418560 Par ch=1 c=64 v=127
418560 On ch=1 n=d#4 v=45
418675 On ch=1 n=d#4 v=0
418675 On ch=1 n=d#6 v=0
418680 On ch=1 n=e6 v=60
418680 On ch=1 n=a#5 v=45
418795 On ch=1 n=a#5 v=0
418800 On ch=1 n=g5 v=45
418800 On ch=1 n=e5 v=45
418915 On ch=1 n=e5 v=0
418915 On ch=1 n=e6 v=0
418920 On ch=1 n=c#6 v=60
418920 On ch=1 n=c#5 v=45
418980 Par ch=1 c=64 v=0
419035 On ch=1 n=c#5 v=0
419035 On ch=1 n=g5 v=0
419040 Tempo 1200000
419040 Par ch=1 c=64 v=127
419040 On ch=1 n=d#4 v=45
419150 Tempo 1250000
419155 On ch=1 n=d#4 v=0
419155 On ch=1 n=c#6 v=0
419160 On ch=1 n=d#6 v=60
419160 On ch=1 n=b5 v=45
419262 Tempo 1304347
419275 On ch=1 n=b5 v=0
419280 On ch=1 n=g#5 v=45
419280 On ch=1 n=d#5 v=45
419375 Tempo 1363636
419395 On ch=1 n=d#5 v=0
419395 On ch=1 n=d#6 v=0
419400 On ch=1 n=b5 v=60
419400 On ch=1 n=b4 v=45
419460 Par ch=1 c=64 v=0
419487 Tempo 1428571
419515 On ch=1 n=b4 v=0
419515 On ch=1 n=g#5 v=0
419520 Par ch=1 c=64 v=127
419520 On ch=1 n=d#4 v=45
419597 Tempo 1500000
419635 On ch=1 n=d#4 v=0
419635 On ch=1 n=b5 v=0
419640 On ch=1 n=b5 v=60
419640 On ch=1 n=f5 v=45
419710 Tempo 1578947
419755 On ch=1 n=f5 v=0
419760 On ch=1 n=d5 v=45
419760 On ch=1 n=b4 v=45
419822 Tempo 1666666
419875 On ch=1 n=b4 v=0
419875 On ch=1 n=b5 v=0
419880 On ch=1 n=g#5 v=60
419880 On ch=1 n=g#4 v=45
419935 Tempo 1764705
419940 Par ch=1 c=64 v=0
419995 On ch=1 n=g#4 v=0
419995 On ch=1 n=d5 v=0
420000 Par ch=1 c=64 v=127
420000 On ch=1 n=d#3 v=45
420047 Tempo 1875000
420115 On ch=1 n=d#3 v=0
420115 On ch=1 n=g#5 v=0
420120 On ch=1 n=g5 v=60
420120 On ch=1 n=g5 v=45
420157 Tempo 2000000
420240 On ch=1 n=d#5 v=45
420240 On ch=1 n=a#4 v=45
420270 Tempo 2142857
420355 On ch=1 n=g5 v=0
420360 On ch=1 n=a#5 v=60
420382 Tempo 2307692
420420 Par ch=1 c=64 v=0
420480 Par ch=1 c=64 v=127
420495 Tempo 2500000
420607 Tempo 2727272
420715 On ch=1 n=a#5 v=0
420715 On ch=1 n=a#4 v=0
420715 On ch=1 n=d#5 v=0
420715 On ch=1 n=g5 v=0
420720 Tempo 3000000
420840 Tempo 1200000
420840 On ch=1 n=d#5 v=60
420900 Par ch=1 c=64 v=0
420960 Par ch=1 c=64 v=127
420960 On ch=1 n=g#3 v=45
421075 On ch=1 n=g#3 v=0
421075 On ch=1 n=d#5 v=0
421080 On ch=1 n=g#5 v=60
421080 On ch=1 n=d#5 v=45
421195 On ch=1 n=d#5 v=0
421200 On ch=1 n=b4 v=45
421200 On ch=1 n=g#4 v=45
421315 On ch=1 n=g#4 v=0
421315 On ch=1 n=g#5 v=0
421320 On ch=1 n=a#5 v=60
421320 On ch=1 n=d#4 v=45
421380 Par ch=1 c=64 v=0
421435 On ch=1 n=d#4 v=0
421435 On ch=1 n=b4 v=0
421440 Par ch=1 c=64 v=127
421440 On ch=1 n=e3 v=45
421555 On ch=1 n=e3 v=0
421555 On ch=1 n=a#5 v=0
421560 On ch=1 n=b5 v=60
421560 On ch=1 n=e5 v=45
421680 On ch=1 n=c#5 v=45
421680 On ch=1 n=g#4 v=45
421680 On ch=1 n=b4 v=45
421795 On ch=1 n=g#4 v=0
421795 On ch=1 n=b5 v=0
421800 On ch=1 n=c#6 v=60
421800 On ch=1 n=g4 v=45
421860 Par ch=1 c=64 v=0
421915 On ch=1 n=g4 v=0
421915 On ch=1 n=b4 v=0
421915 On ch=1 n=c#5 v=0
421915 On ch=1 n=e5 v=0
421920 Par ch=1 c=64 v=127
421920 On ch=1 n=f#3 v=45
422035 On ch=1 n=f#3 v=0
422035 On ch=1 n=c#6 v=0
422040 On ch=1 n=d#6 v=64
422040 On ch=1 n=e5 v=48
422160 On ch=1 n=c#5 v=50
422160 On ch=1 n=f#4 v=45
422160 On ch=1 n=a#4 v=45
422275 On ch=1 n=f#4 v=0
422275 On ch=1 n=d#6 v=0
422280 On ch=1 n=c#6 v=69
422280 On ch=1 n=e4 v=45
422340 Par ch=1 c=64 v=0
422395 On ch=1 n=e4 v=0
422395 On ch=1 n=a#4 v=0
422395 On ch=1 n=c#5 v=0
422395 On ch=1 n=e5 v=0
422400 Par ch=1 c=64 v=127
422400 On ch=1 n=b2 v=57
422515 On ch=1 n=b2 v=0
422515 On ch=1 n=c#6 v=0
422520 On ch=1 n=b5 v=75
422520 On ch=1 n=d#5 v=60
422635 On ch=1 n=d#5 v=0
422640 On ch=1 n=b4 v=60
422640 On ch=1 n=f#4 v=60
422755 On ch=1 n=f#4 v=0
422755 On ch=1 n=b5 v=0
422760 On ch=1 n=b5 v=75
422760 On ch=1 n=d#4 v=60
422820 Par ch=1 c=64 v=0
422875 On ch=1 n=d#4 v=0
422875 On ch=1 n=b4 v=0
422880 Par ch=1 c=64 v=127
422880 On ch=1 n=d#3 v=60
422995 On ch=1 n=d#3 v=0
422995 On ch=1 n=b5 v=0
423000 On ch=1 n=b5 v=75
423000 On ch=1 n=d#5 v=60
423115 On ch=1 n=d#5 v=0
423120 On ch=1 n=c#5 v=60
423120 On ch=1 n=g4 v=60
423235 On ch=1 n=g4 v=0
423235 On ch=1 n=b5 v=0
423240 On ch=1 n=a#5 v=75
423240 On ch=1 n=d#4 v=60
423295 On ch=1 n=c#5 v=0
423300 Par ch=1 c=64 v=0
423300 On ch=1 n=d#5 v=60
423355 On ch=1 n=d#4 v=0
423360 Par ch=1 c=64 v=127
423360 On ch=1 n=g#3 v=60
423475 On ch=1 n=g#3 v=0
423475 On ch=1 n=d#5 v=0
423475 On ch=1 n=a#5 v=0
423480 On ch=1 n=g#5 v=75
423480 On ch=1 n=d#5 v=60
423595 On ch=1 n=d#5 v=0
423600 On ch=1 n=b4 v=60
423600 On ch=1 n=g#4 v=60
423715 On ch=1 n=g#4 v=0
423715 On ch=1 n=g#5 v=0
423720 On ch=1 n=b5 v=60
423720 On ch=1 n=d#4 v=60
423780 Par ch=1 c=64 v=0
423835 On ch=1 n=d#4 v=0
423835 On ch=1 n=b4 v=0
423840 Par ch=1 c=64 v=127
423840 On ch=1 n=g#3 v=45
423955 On ch=1 n=g#3 v=0
423955 On ch=1 n=b5 v=0
423960 On ch=1 n=a#5 v=60
423960 On ch=1 n=d#5 v=45
424075 On ch=1 n=d#5 v=0
424080 On ch=1 n=c#5 v=45
424080 On ch=1 n=g4 v=45
424195 On ch=1 n=g4 v=0
424195 On ch=1 n=a#5 v=0
424200 On ch=1 n=g5 v=60
424200 On ch=1 n=d#4 v=45
424260 Par ch=1 c=64 v=0
424315 On ch=1 n=d#4 v=0
424315 On ch=1 n=c#5 v=0
424320 Par ch=1 c=64 v=127
424320 On ch=1 n=g#3 v=45
424435 On ch=1 n=g#3 v=0
424435 On ch=1 n=g5 v=0
424440 On ch=1 n=g#5 v=60
424440 On ch=1 n=d#5 v=45
424555 On ch=1 n=d#5 v=0
424560 On ch=1 n=b4 v=45
424560 On ch=1 n=g#4 v=45
424675 On ch=1 n=g#4 v=0
424675 On ch=1 n=g#5 v=0
424680 On ch=1 n=a#5 v=60
424680 On ch=1 n=d#4 v=45
424740 Par ch=1 c=64 v=0
424795 On ch=1 n=d#4 v=0
424795 On ch=1 n=b4 v=0
424800 Par ch=1 c=64 v=127
424800 On ch=1 n=g3 v=46
424915 On ch=1 n=g3 v=0
424915 On ch=1 n=a#5 v=0
424920 On ch=1 n=b5 v=63
424920 On ch=1 n=e5 v=48
425035 On ch=1 n=e5 v=0
425040 On ch=1 n=b4 v=50
425040 On ch=1 n=c#5 v=50
425155 On ch=1 n=c#5 v=0
425155 On ch=1 n=b5 v=0
425160 On ch=1 n=c#6 v=67
425160 On ch=1 n=e4 v=52
425220 Par ch=1 c=64 v=0
425275 On ch=1 n=e4 v=0
425275 On ch=1 n=b4 v=0
425280 Par ch=1 c=64 v=127
425280 On ch=1 n=f#3 v=54
425395 On ch=1 n=f#3 v=0
425395 On ch=1 n=c#6 v=0
425400 On ch=1 n=d#6 v=71
425400 On ch=1 n=f#5 v=56
425515 On ch=1 n=f#5 v=0
425520 On ch=1 n=d#5 v=60
425520 On ch=1 n=b4 v=58
425635 On ch=1 n=b4 v=0
425635 On ch=1 n=d#6 v=0
425640 On ch=1 n=e6 v=75
425640 On ch=1 n=f#4 v=60
425700 Par ch=1 c=64 v=0
425755 On ch=1 n=f#4 v=0
425755 On ch=1 n=d#5 v=0
425760 Par ch=1 c=64 v=127
425760 On ch=1 n=f#3 v=60
425875 On ch=1 n=f#3 v=0
425875 On ch=1 n=e6 v=0
425880 On ch=1 n=c#6 v=75
425880 On ch=1 n=f#5 v=60
425995 On ch=1 n=f#5 v=0
426000 On ch=1 n=e5 v=60
426000 On ch=1 n=a#4 v=60
426115 On ch=1 n=a#4 v=0
426115 On ch=1 n=c#6 v=0
426120 On ch=1 n=d#6 v=75
426120 On ch=1 n=f#4 v=60
426180 Par ch=1 c=64 v=0
426235 On ch=1 n=f#4 v=0
426235 On ch=1 n=e5 v=0
426240 Tempo 1200000
426240 Par ch=1 c=64 v=127
426240 On ch=1 n=b3 v=60
426287 Tempo 1250000
426335 Tempo 1304347
426355 On ch=1 n=b3 v=0
426355 On ch=1 n=d#6 v=0
426360 On ch=1 n=b5 v=75
426360 On ch=1 n=f#5 v=60
426382 Tempo 1363636
426430 Tempo 1428571
426480 Tempo 1500000
426480 On ch=1 n=d#5 v=60
426480 On ch=1 n=b4 v=45
426527 Tempo 1578947
426575 Tempo 1666666
426600 On ch=1 n=f#4 v=45
426622 Tempo 1764705
426660 Par ch=1 c=64 v=0
426670 Tempo 1875000
426720 Tempo 2000000
426720 Par ch=1 c=64 v=127
426767 Tempo 2142857
426815 Tempo 2307692
426862 Tempo 2500000
426910 Tempo 2727272
426955 On ch=1 n=f#4 v=0
426955 On ch=1 n=b4 v=0
426955 On ch=1 n=d#5 v=0
426955 On ch=1 n=f#5 v=0
426955 On ch=1 n=b5 v=0
426960 Tempo 3000000
427080 Tempo 1200000
427080 On ch=1 n=f#5 v=60
427140 Par ch=1 c=64 v=0
427200 Par ch=1 c=64 v=127
427200 On ch=1 n=b3 v=45
427315 On ch=1 n=b3 v=0
427315 On ch=1 n=f#5 v=0
427320 On ch=1 n=b5 v=60
427320 On ch=1 n=f#5 v=45
427435 On ch=1 n=f#5 v=0
427440 On ch=1 n=d#5 v=45
427440 On ch=1 n=b4 v=45
427555 On ch=1 n=b4 v=0
427555 On ch=1 n=b5 v=0
427560 On ch=1 n=d#6 v=60
427560 On ch=1 n=f#4 v=45
427620 Par ch=1 c=64 v=0
427675 On ch=1 n=f#4 v=0
427675 On ch=1 n=d#5 v=0
427680 Par ch=1 c=64 v=127
427680 On ch=1 n=b3 v=45
427795 On ch=1 n=b3 v=0
427795 On ch=1 n=d#6 v=0
427800 On ch=1 n=c#6 v=60
427800 On ch=1 n=g5 v=45
427920 On ch=1 n=e5 v=45
427920 On ch=1 n=c#5 v=45
428035 On ch=1 n=c#5 v=0
428035 On ch=1 n=c#6 v=0
428040 On ch=1 n=a#5 v=60
428040 On ch=1 n=f#4 v=45
428100 Par ch=1 c=64 v=0
428155 On ch=1 n=f#4 v=0
428155 On ch=1 n=e5 v=0
428155 On ch=1 n=g5 v=0
428160 Par ch=1 c=64 v=127
428160 On ch=1 n=b3 v=45
428275 On ch=1 n=b3 v=0
428275 On ch=1 n=a#5 v=0
428280 On ch=1 n=b5 v=60
428280 On ch=1 n=f#5 v=45
428395 On ch=1 n=f#5 v=0
428400 On ch=1 n=d#5 v=45
428400 On ch=1 n=b4 v=45
428515 On ch=1 n=b4 v=0
428515 On ch=1 n=b5 v=0
428520 On ch=1 n=c#6 v=60
428520 On ch=1 n=f#4 v=45
428580 Par ch=1 c=64 v=0
428635 On ch=1 n=f#4 v=0
428635 On ch=1 n=d#5 v=0
428640 Par ch=1 c=64 v=127
428640 On ch=1 n=b3 v=45
428755 On ch=1 n=b3 v=0
428755 On ch=1 n=c#6 v=0
428760 On ch=1 n=d#6 v=60
428760 On ch=1 n=f5 v=45
428875 On ch=1 n=f5 v=0
428880 On ch=1 n=d#5 v=45
428880 On ch=1 n=b4 v=45
428995 On ch=1 n=b4 v=0
428995 On ch=1 n=d#6 v=0
429000 On ch=1 n=f6 v=60
429000 On ch=1 n=f4 v=45
429060 Par ch=1 c=64 v=0
429115 On ch=1 n=f4 v=0
429115 On ch=1 n=d#5 v=0
429120 Par ch=1 c=64 v=127
429120 On ch=1 n=a#3 v=47
429235 On ch=1 n=a#3 v=0
429235 On ch=1 n=f6 v=0
429240 On ch=1 n=f#6 v=64
429240 On ch=1 n=a#5 v=49
429355 On ch=1 n=a#5 v=0
429360 On ch=1 n=f#5 v=50
429360 On ch=1 n=d#5 v=51
429475 On ch=1 n=d#5 v=0
429475 On ch=1 n=f#6 v=0
429480 On ch=1 n=g#6 v=69
429480 On ch=1 n=a#4 v=54
429540 Par ch=1 c=64 v=0
429595 On ch=1 n=a#4 v=0
429595 On ch=1 n=f#5 v=0
429600 Par ch=1 c=64 v=127
429600 On ch=1 n=a#3 v=57
429715 On ch=1 n=a#3 v=0
429715 On ch=1 n=g#6 v=0
429720 On ch=1 n=f6 v=75
429720 On ch=1 n=b5 v=60
429840 On ch=1 n=g#5 v=60
429840 On ch=1 n=d5 v=45
429955 On ch=1 n=d5 v=0
429955 On ch=1 n=f6 v=0
429960 On ch=1 n=f#6 v=75
429960 On ch=1 n=a#4 v=45
430020 Par ch=1 c=64 v=0
430075 On ch=1 n=a#4 v=0
430075 On ch=1 n=g#5 v=0
430075 On ch=1 n=b5 v=0
430080 Tempo 1200000
430080 Par ch=1 c=64 v=127
430080 On ch=1 n=d#4 v=60
430127 Tempo 1250000
430175 Tempo 1304347
430195 On ch=1 n=d#4 v=0
430195 On ch=1 n=f#6 v=0
430200 On ch=1 n=d#6 v=75
430200 On ch=1 n=a#5 v=60
430222 Tempo 1363636
430270 Tempo 1428571
430320 Tempo 1500000
430320 On ch=1 n=f#5 v=60
430320 On ch=1 n=d#5 v=45
430367 Tempo 1578947
430415 Tempo 1666666
430440 On ch=1 n=a#4 v=45
430462 Tempo 1764705
430500 Par ch=1 c=64 v=0
430510 Tempo 1875000
430560 Tempo 2000000
430560 Par ch=1 c=64 v=127
430607 Tempo 2142857
430655 Tempo 2307692
430702 Tempo 2500000
430750 Tempo 2727272
430795 On ch=1 n=a#4 v=0
430795 On ch=1 n=d#5 v=0
430795 On ch=1 n=f#5 v=0
430795 On ch=1 n=a#5 v=0
430795 On ch=1 n=d#6 v=0
430800 Tempo 3000000
430920 Tempo 1200000
430920 On ch=1 n=d#6 v=60
430980 Par ch=1 c=64 v=0
431040 Par ch=1 c=64 v=127
431040 On ch=1 n=d#4 v=45
431155 On ch=1 n=d#4 v=0
431155 On ch=1 n=d#6 v=0
431160 On ch=1 n=e6 v=60
431160 On ch=1 n=a#5 v=45
431275 On ch=1 n=a#5 v=0
431280 On ch=1 n=g5 v=45
431280 On ch=1 n=e5 v=45
431395 On ch=1 n=e5 v=0
431395 On ch=1 n=e6 v=0
431400 On ch=1 n=c#6 v=60
431400 On ch=1 n=c#5 v=45
431460 Par ch=1 c=64 v=0
431515 On ch=1 n=c#5 v=0
431515 On ch=1 n=g5 v=0
431520 Tempo 1200000
431520 Par ch=1 c=64 v=127
431520 On ch=1 n=d#4 v=45
431630 Tempo 1250000
431635 On ch=1 n=d#4 v=0
431635 On ch=1 n=c#6 v=0
431640 On ch=1 n=d#6 v=60
431640 On ch=1 n=b5 v=45
431742 Tempo 1304347
431755 On ch=1 n=b5 v=0
431760 On ch=1 n=g#5 v=45
431760 On ch=1 n=d#5 v=45
431855 Tempo 1363636
431875 On ch=1 n=d#5 v=0
431875 On ch=1 n=d#6 v=0
431880 On ch=1 n=b5 v=60
431880 On ch=1 n=b4 v=45
431940 Par ch=1 c=64 v=0
431967 Tempo 1428571
431995 On ch=1 n=b4 v=0
431995 On ch=1 n=g#5 v=0
432000 Par ch=1 c=64 v=127
432000 On ch=1 n=d#4 v=45
432077 Tempo 1500000
432115 On ch=1 n=d#4 v=0
432115 On ch=1 n=b5 v=0
432120 On ch=1 n=b5 v=60
432120 On ch=1 n=f5 v=45
432190 Tempo 1578947
432235 On ch=1 n=f5 v=0
432240 On ch=1 n=d5 v=45
432240 On ch=1 n=b4 v=45
432302 Tempo 1666666
432355 On ch=1 n=b4 v=0
432355 On ch=1 n=b5 v=0
432360 On ch=1 n=g#5 v=60
432360 On ch=1 n=g#4 v=45
432415 Tempo 1764705
432420 Par ch=1 c=64 v=0
432475 On ch=1 n=g#4 v=0
432475 On ch=1 n=d5 v=0
432480 Par ch=1 c=64 v=127
432480 On ch=1 n=d#3 v=45
432527 Tempo 1875000
432595 On ch=1 n=d#3 v=0
432595 On ch=1 n=g#5 v=0
432600 On ch=1 n=g5 v=60
432600 On ch=1 n=g5 v=45
432637 Tempo 2000000
432720 On ch=1 n=d#5 v=45
432720 On ch=1 n=a#4 v=45
432750 Tempo 2142857
432835 On ch=1 n=g5 v=0
432840 On ch=1 n=a#5 v=60
432862 Tempo 2307692
432900 Par ch=1 c=64 v=0
432960 Par ch=1 c=64 v=127
432975 Tempo 2500000
433087 Tempo 2727272
433195 On ch=1 n=a#5 v=0
433195 On ch=1 n=a#4 v=0
433195 On ch=1 n=d#5 v=0
433195 On ch=1 n=g5 v=0
433200 Tempo 3000000
433320 Tempo 1200000
433320 On ch=1 n=d#5 v=60
433380 Par ch=1 c=64 v=0
433440 Par ch=1 c=64 v=127
433440 On ch=1 n=g#3 v=45
433555 On ch=1 n=g#3 v=0
433555 On ch=1 n=d#5 v=0
433560 On ch=1 n=g#5 v=60
433560 On ch=1 n=d#5 v=45
433675 On ch=1 n=d#5 v=0
433680 On ch=1 n=b4 v=45
433680 On ch=1 n=g#4 v=45
433795 On ch=1 n=g#4 v=0
433795 On ch=1 n=g#5 v=0
433800 On ch=1 n=a#5 v=60
433800 On ch=1 n=d#4 v=45
433860 Par ch=1 c=64 v=0
433915 On ch=1 n=d#4 v=0
433915 On ch=1 n=b4 v=0
433920 Par ch=1 c=64 v=127
433920 On ch=1 n=e3 v=46
434035 On ch=1 n=e3 v=0
434035 On ch=1 n=a#5 v=0
434040 On ch=1 n=b5 v=62
434040 On ch=1 n=e5 v=47
434160 On ch=1 n=c#5 v=49
434160 On ch=1 n=g#4 v=45
434160 On ch=1 n=b4 v=45
434275 On ch=1 n=g#4 v=0
434275 On ch=1 n=b5 v=0
434280 On ch=1 n=c#6 v=64
434280 On ch=1 n=g4 v=45
434340 Par ch=1 c=64 v=0
434395 On ch=1 n=g4 v=0
434395 On ch=1 n=b4 v=0
434395 On ch=1 n=c#5 v=0
434395 On ch=1 n=e5 v=0
434400 Par ch=1 c=64 v=127
434400 On ch=1 n=f#3 v=50
434515 On ch=1 n=f#3 v=0
434515 On ch=1 n=c#6 v=0
434520 On ch=1 n=d#6 v=66
434520 On ch=1 n=e5 v=51
434640 On ch=1 n=c#5 v=54
434640 On ch=1 n=f#4 v=45
434640 On ch=1 n=a#4 v=45
434755 On ch=1 n=f#4 v=0
434755 On ch=1 n=d#6 v=0
434760 On ch=1 n=c#6 v=69
434760 On ch=1 n=e4 v=45
434820 Par ch=1 c=64 v=0
434875 On ch=1 n=e4 v=0
434875 On ch=1 n=a#4 v=0
434875 On ch=1 n=c#5 v=0
434875 On ch=1 n=e5 v=0
434880 Par ch=1 c=64 v=127
434880 On ch=1 n=b2 v=54
434995 On ch=1 n=b2 v=0
434995 On ch=1 n=c#6 v=0
435000 On ch=1 n=b5 v=73
435000 On ch=1 n=d#5 v=55
435115 On ch=1 n=d#5 v=0
435115 On ch=1 n=b5 v=0
435120 On ch=1 n=f#4 v=56
435120 On ch=1 n=b4 v=60
435235 On ch=1 n=f#4 v=0
435240 On ch=1 n=d#4 v=58
435240 On ch=1 n=b5 v=75
435300 Par ch=1 c=64 v=0
435355 On ch=1 n=d#4 v=0
435355 On ch=1 n=b4 v=0
435360 Par ch=1 c=64 v=127
435360 On ch=1 n=d#3 v=60
435475 On ch=1 n=d#3 v=0
435475 On ch=1 n=b5 v=0
435480 On ch=1 n=d#5 v=60
435480 On ch=1 n=b5 v=75
435595 On ch=1 n=d#5 v=0
435600 On ch=1 n=g4 v=60
435600 On ch=1 n=c#5 v=60
435715 On ch=1 n=g4 v=0
435715 On ch=1 n=b5 v=0
435720 On ch=1 n=a#5 v=75
435720 On ch=1 n=d#4 v=60
435775 On ch=1 n=c#5 v=0
435780 Par ch=1 c=64 v=0
435780 On ch=1 n=d#5 v=60
435835 On ch=1 n=d#4 v=0
435840 Par ch=1 c=64 v=127
435840 On ch=1 n=g#3 v=60
435955 On ch=1 n=g#3 v=0
435955 On ch=1 n=d#5 v=0
435955 On ch=1 n=a#5 v=0
435960 On ch=1 n=g#5 v=75
435960 On ch=1 n=d#5 v=60
436075 On ch=1 n=d#5 v=0
436080 On ch=1 n=b4 v=60
436080 On ch=1 n=g#4 v=60
436195 On ch=1 n=g#4 v=0
436195 On ch=1 n=g#5 v=0
436200 On ch=1 n=a#5 v=75
436200 On ch=1 n=d#4 v=60
436260 Par ch=1 c=64 v=0
436315 On ch=1 n=d#4 v=0
436315 On ch=1 n=b4 v=0
436320 Par ch=1 c=64 v=127
436320 On ch=1 n=g#3 v=60
436435 On ch=1 n=g#3 v=0
436435 On ch=1 n=a#5 v=0
436440 On ch=1 n=b5 v=75
436440 On ch=1 n=d#5 v=60
436555 On ch=1 n=d#5 v=0
436560 On ch=1 n=b4 v=60
436560 On ch=1 n=g#4 v=60
436675 On ch=1 n=g#4 v=0
436675 On ch=1 n=b5 v=0
436680 On ch=1 n=d#6 v=75
436680 On ch=1 n=d#4 v=60
436740 Par ch=1 c=64 v=0
436795 On ch=1 n=d#4 v=0
436795 On ch=1 n=b4 v=0
436800 Tempo 1200000
436800 Par ch=1 c=64 v=127
436800 On ch=1 n=g#3 v=60
436870 Tempo 1250000
436915 On ch=1 n=g#3 v=0
436915 On ch=1 n=d#6 v=0
436920 On ch=1 n=g#6 v=75
436920 On ch=1 n=d#5 v=60
436942 Tempo 1304347
437015 Tempo 1363636
437035 On ch=1 n=d#5 v=0
437040 On ch=1 n=g#4 v=56
437087 Tempo 1428571
437155 On ch=1 n=g#4 v=0
437155 On ch=1 n=g#6 v=0
437157 Tempo 1500000
437160 On ch=1 n=a#4 v=75
437160 On ch=1 n=d#4 v=52
437220 Par ch=1 c=64 v=0
437230 Tempo 1578947
437275 On ch=1 n=d#4 v=0
437280 Par ch=1 c=64 v=127
437280 On ch=1 n=g#3 v=48
437302 Tempo 1666666
437375 Tempo 1764705
437395 On ch=1 n=g#3 v=0
437395 On ch=1 n=a#4 v=0
437400 On ch=1 n=b4 v=63
437400 On ch=1 n=d#5 v=44
437447 Tempo 1875000
437515 On ch=1 n=d#5 v=0
437520 Tempo 2000000
437520 On ch=1 n=g#4 v=40
437635 On ch=1 n=g#4 v=0
437635 On ch=1 n=b4 v=0
437640 On ch=1 n=d#5 v=51
437640 On ch=1 n=d#4 v=35
437700 Par ch=1 c=64 v=0
437755 On ch=1 n=d#4 v=0
437760 Par ch=1 c=64 v=127
437760 On ch=1 n=g#5 v=45
437760 On ch=1 n=g#2 v=30
438640 On ch=1 n=g#2 v=0
438640 On ch=1 n=g#5 v=0
438640 On ch=1 n=d#5 v=0
438720 Par ch=1 c=64 v=0
439200 Meta Text "F\xfffffffcrchtenmachen"
439200 Tempo 750000
439200 KeySig 1 major
439200 TimeSig 2/4 24 8
439200 On ch=1 n=b5 v=45
439440 On ch=1 n=e5 v=30
439440 On ch=1 n=g5 v=30
439680 On ch=1 n=g5 v=0
439680 On ch=1 n=e5 v=0
439680 On ch=1 n=b5 v=0
439680 On ch=1 n=b5 v=45
439680 On ch=1 n=d#5 v=30
439680 On ch=1 n=f#5 v=30
439920 On ch=1 n=f#5 v=0
439920 On ch=1 n=d#5 v=0
439920 On ch=1 n=d5 v=30
439920 On ch=1 n=f5 v=30
440040 On ch=1 n=b5 v=0
440040 On ch=1 n=b5 v=45
440155 On ch=1 n=b5 v=0
440160 On ch=1 n=f5 v=0
440160 On ch=1 n=d5 v=0
440160 On ch=1 n=b5 v=45
440160 On ch=1 n=c#5 v=30
440160 On ch=1 n=e5 v=30
440400 On ch=1 n=b5 v=0
440400 On ch=1 n=a#5 v=45
440640 On ch=1 n=e6 v=45
440880 On ch=1 n=e6 v=0
440880 On ch=1 n=a#5 v=0
440880 On ch=1 n=e5 v=0
440880 On ch=1 n=c#5 v=0
440880 On ch=1 n=d#6 v=45
440880 On ch=1 n=a5 v=30
440880 On ch=1 n=c5 v=30
440880 On ch=1 n=d#5 v=30
441120 On ch=1 n=d#5 v=0
441120 On ch=1 n=c5 v=0
441120 On ch=1 n=d#6 v=0
441120 On ch=1 n=d6 v=45
441120 On ch=1 n=b4 v=30
441120 On ch=1 n=d5 v=30
441360 On ch=1 n=d6 v=0
441360 On ch=1 n=a5 v=0
441360 On ch=1 n=g5 v=45
441600 On ch=1 n=g5 v=0
441600 On ch=1 n=d5 v=0
441600 On ch=1 n=b4 v=0
441600 On ch=1 n=c6 v=45
441600 On ch=1 n=f#5 v=30
441600 On ch=1 n=a4 v=30
441600 On ch=1 n=d5 v=30
441840 On ch=1 n=f#5 v=0
441840 On ch=1 n=g5 v=30
441960 On ch=1 n=d5 v=0
441960 On ch=1 n=a4 v=0
441960 On ch=1 n=c6 v=0
441960 On ch=1 n=b5 v=45
441960 On ch=1 n=g4 v=30
441960 On ch=1 n=d5 v=30
442075 On ch=1 n=g5 v=0
442080 On ch=1 n=d5 v=0
442080 On ch=1 n=g4 v=0
442080 On ch=1 n=b5 v=0
442080 On ch=1 n=g5 v=45
442080 On ch=1 n=b5 v=45
442080 On ch=1 n=d5 v=30
442080 On ch=1 n=g4 v=30
442315 On ch=1 n=g4 v=0
442320 On ch=1 n=b4 v=30
442555 On ch=1 n=b4 v=0
442560 On ch=1 n=d5 v=0
442560 On ch=1 n=b5 v=0
442560 On ch=1 n=g5 v=0
442560 On ch=1 n=f#5 v=45
442560 On ch=1 n=a5 v=45
442560 On ch=1 n=d5 v=30
442800 On ch=1 n=d4 v=30
442960 On ch=1 n=d5 v=0
442960 On ch=1 n=a5 v=0
442960 On ch=1 n=f#5 v=0
443040 On ch=1 n=d5 v=45
443280 On ch=1 n=b5 v=45
443280 On ch=1 n=d6 v=45
443280 On ch=1 n=g6 v=45
443440 On ch=1 n=d5 v=0
443520 On ch=1 n=g6 v=0
443520 On ch=1 n=d6 v=0
443520 On ch=1 n=b5 v=0
443520 On ch=1 n=a5 v=45
443520 On ch=1 n=d6 v=45
443520 On ch=1 n=f#6 v=45
443520 On ch=1 n=d5 v=45
443760 On ch=1 n=f#6 v=0
443760 On ch=1 n=d6 v=0
443760 On ch=1 n=a5 v=0
443760 On ch=1 n=g5 v=45
443760 On ch=1 n=c#6 v=45
443760 On ch=1 n=e6 v=45
443875 On ch=1 n=d5 v=0
443880 On ch=1 n=d4 v=0
443880 On ch=1 n=d5 v=45
443995 On ch=1 n=d5 v=0
444000 On ch=1 n=e6 v=0
444000 On ch=1 n=c#6 v=0
444000 On ch=1 n=g5 v=0
444000 On ch=1 n=f#5 v=45
444000 On ch=1 n=a5 v=45
444000 On ch=1 n=d6 v=45
444000 On ch=1 n=d5 v=45
444240 On ch=1 n=d5 v=0
444240 On ch=1 n=c5 v=45
444480 On ch=1 n=c5 v=0
444480 On ch=1 n=e5 v=45
444720 On ch=1 n=e5 v=0
444720 On ch=1 n=d5 v=45
444960 On ch=1 n=d5 v=0
444960 On ch=1 n=c5 v=45
445200 On ch=1 n=c5 v=0
445200 On ch=1 n=d6 v=0
445200 On ch=1 n=a5 v=0
445200 On ch=1 n=f#5 v=0
445200 On ch=1 n=d6 v=45
445200 On ch=1 n=g5 v=30
445200 On ch=1 n=b4 v=45
445200 On ch=1 n=d5 v=45
445440 On ch=1 n=d5 v=0
445440 On ch=1 n=b4 v=0
445440 On ch=1 n=g5 v=0
445440 On ch=1 n=d6 v=0
445440 On ch=1 n=c6 v=45
445440 On ch=1 n=f#5 v=30
445440 On ch=1 n=a4 v=45
445440 On ch=1 n=d5 v=45
445680 On ch=1 n=f#5 v=0
445680 On ch=1 n=g5 v=30
445800 On ch=1 n=d5 v=0
445800 On ch=1 n=a4 v=0
445800 On ch=1 n=c6 v=0
445800 On ch=1 n=b5 v=45
445800 On ch=1 n=g4 v=45
445800 On ch=1 n=d5 v=45
445915 On ch=1 n=g5 v=0
445920 On ch=1 n=d5 v=0
445920 On ch=1 n=g4 v=0
445920 On ch=1 n=b5 v=0
445920 On ch=1 n=g5 v=45
445920 On ch=1 n=b5 v=45
445920 On ch=1 n=d5 v=45
445920 On ch=1 n=g4 v=30
446160 On ch=1 n=g4 v=0
446160 On ch=1 n=b4 v=30
446400 On ch=1 n=b4 v=0
446400 On ch=1 n=d5 v=0
446400 On ch=1 n=b5 v=0
446400 On ch=1 n=g5 v=0
446400 On ch=1 n=f#5 v=45
446400 On ch=1 n=a5 v=45
446400 On ch=1 n=d5 v=45
446640 On ch=1 n=d4 v=30
446800 On ch=1 n=d5 v=0
446800 On ch=1 n=a5 v=0
446800 On ch=1 n=f#5 v=0
446875 On ch=1 n=d4 v=0
446880 Tempo 750000
446880 On ch=1 n=b5 v=45
447120 On ch=1 n=e5 v=30
447120 On ch=1 n=g5 v=30
447360 On ch=1 n=g5 v=0
447360 On ch=1 n=e5 v=0
447360 On ch=1 n=b5 v=0
447360 On ch=1 n=b5 v=45
447360 On ch=1 n=d#5 v=30
447360 On ch=1 n=f#5 v=30
447600 On ch=1 n=f#5 v=0
447600 On ch=1 n=d#5 v=0
447600 On ch=1 n=d5 v=30
447600 On ch=1 n=f5 v=30
447720 On ch=1 n=b5 v=0
447720 On ch=1 n=b5 v=45
447835 On ch=1 n=b5 v=0
447840 On ch=1 n=f5 v=0
447840 On ch=1 n=d5 v=0
447840 On ch=1 n=b5 v=45
447840 On ch=1 n=c#5 v=30
447840 On ch=1 n=e5 v=30
448080 On ch=1 n=b5 v=0
448080 On ch=1 n=a#5 v=45
448320 On ch=1 n=e6 v=45
448560 On ch=1 n=e6 v=0
448560 On ch=1 n=a#5 v=0
448560 On ch=1 n=e5 v=0
448560 On ch=1 n=c#5 v=0
448560 On ch=1 n=d#6 v=45
448560 On ch=1 n=a5 v=30
448560 On ch=1 n=c5 v=30
448560 On ch=1 n=d#5 v=30
448800 On ch=1 n=d#5 v=0
448800 On ch=1 n=c5 v=0
448800 On ch=1 n=d#6 v=0
448800 On ch=1 n=d6 v=45
448800 On ch=1 n=b4 v=30
448800 On ch=1 n=d5 v=30
449040 On ch=1 n=d6 v=0
449040 On ch=1 n=a5 v=0
449040 On ch=1 n=g5 v=45
449280 On ch=1 n=g5 v=0
449280 On ch=1 n=d5 v=0
449280 On ch=1 n=b4 v=0
449280 On ch=1 n=c6 v=45
449280 On ch=1 n=f#5 v=30
449280 On ch=1 n=a4 v=30
449280 On ch=1 n=d5 v=30
449520 On ch=1 n=f#5 v=0
449520 On ch=1 n=g5 v=30
449640 On ch=1 n=d5 v=0
449640 On ch=1 n=a4 v=0
449640 On ch=1 n=c6 v=0
449640 On ch=1 n=b5 v=45
449640 On ch=1 n=g4 v=30
449640 On ch=1 n=d5 v=30
449755 On ch=1 n=g5 v=0
449760 On ch=1 n=d5 v=0
449760 On ch=1 n=g4 v=0
449760 On ch=1 n=b5 v=0
449760 On ch=1 n=g5 v=45
449760 On ch=1 n=b5 v=45
449760 On ch=1 n=d5 v=30
449760 On ch=1 n=g4 v=30
449995 On ch=1 n=g4 v=0
450000 On ch=1 n=b4 v=30
450235 On ch=1 n=b4 v=0
450240 On ch=1 n=d5 v=0
450240 On ch=1 n=b5 v=0
450240 On ch=1 n=g5 v=0
450240 On ch=1 n=f#5 v=45
450240 On ch=1 n=a5 v=45
450240 On ch=1 n=d5 v=30
450480 On ch=1 n=d4 v=30
450640 On ch=1 n=d5 v=0
450640 On ch=1 n=a5 v=0
450640 On ch=1 n=f#5 v=0
450720 On ch=1 n=d5 v=45
450960 On ch=1 n=b5 v=45
450960 On ch=1 n=d6 v=45
450960 On ch=1 n=g6 v=45
451120 On ch=1 n=d5 v=0
451200 On ch=1 n=g6 v=0
451200 On ch=1 n=d6 v=0
451200 On ch=1 n=b5 v=0
451200 On ch=1 n=a5 v=45
451200 On ch=1 n=d6 v=45
451200 On ch=1 n=f#6 v=45
451200 On ch=1 n=d5 v=45
451440 On ch=1 n=f#6 v=0
451440 On ch=1 n=d6 v=0
451440 On ch=1 n=a5 v=0
451440 On ch=1 n=g5 v=45
451440 On ch=1 n=c#6 v=45
451440 On ch=1 n=e6 v=45
451555 On ch=1 n=d5 v=0
451560 On ch=1 n=d4 v=0
451560 On ch=1 n=d5 v=45
451675 On ch=1 n=d5 v=0
451680 On ch=1 n=e6 v=0
451680 On ch=1 n=c#6 v=0
451680 On ch=1 n=g5 v=0
451680 On ch=1 n=f#5 v=45
451680 On ch=1 n=a5 v=45
451680 On ch=1 n=d6 v=45
451680 On ch=1 n=d5 v=45
451920 On ch=1 n=d5 v=0
451920 On ch=1 n=c5 v=45
452160 On ch=1 n=c5 v=0
452160 On ch=1 n=e5 v=45
452400 On ch=1 n=e5 v=0
452400 On ch=1 n=d5 v=45
452640 On ch=1 n=d5 v=0
452640 On ch=1 n=c5 v=45
452880 On ch=1 n=c5 v=0
452880 On ch=1 n=d6 v=0
452880 On ch=1 n=a5 v=0
452880 On ch=1 n=f#5 v=0
452880 On ch=1 n=d6 v=45
452880 On ch=1 n=g5 v=30
452880 On ch=1 n=b4 v=45
452880 On ch=1 n=d5 v=45
453120 On ch=1 n=d5 v=0
453120 On ch=1 n=b4 v=0
453120 On ch=1 n=g5 v=0
453120 On ch=1 n=d6 v=0
453120 On ch=1 n=c6 v=45
453120 On ch=1 n=f#5 v=30
453120 On ch=1 n=a4 v=45
453120 On ch=1 n=d5 v=45
453360 On ch=1 n=f#5 v=0
453360 On ch=1 n=g5 v=30
453480 On ch=1 n=d5 v=0
453480 On ch=1 n=a4 v=0
453480 On ch=1 n=c6 v=0
453480 On ch=1 n=b5 v=45
453480 On ch=1 n=g4 v=45
453480 On ch=1 n=d5 v=45
453595 On ch=1 n=g5 v=0
453600 On ch=1 n=d5 v=0
453600 On ch=1 n=g4 v=0
453600 On ch=1 n=b5 v=0
453600 On ch=1 n=g5 v=45
453600 On ch=1 n=b5 v=45
453600 On ch=1 n=d5 v=45
453600 On ch=1 n=g4 v=30
453840 On ch=1 n=g4 v=0
453840 On ch=1 n=b4 v=30
454080 On ch=1 n=b4 v=0
454080 On ch=1 n=d5 v=0
454080 On ch=1 n=b5 v=0
454080 On ch=1 n=g5 v=0
454080 On ch=1 n=f#5 v=45
454080 On ch=1 n=a5 v=45
454080 On ch=1 n=d5 v=45
454320 On ch=1 n=d4 v=30
454480 On ch=1 n=d5 v=0
454480 On ch=1 n=a5 v=0
454480 On ch=1 n=f#5 v=0
454555 On ch=1 n=d4 v=0
454560 Tempo 400000
454560 On ch=1 n=e4 v=45
454680 On ch=1 n=b4 v=30
454680 On ch=1 n=e5 v=30
454680 On ch=1 n=g5 v=30
454760 On ch=1 n=g5 v=0
454760 On ch=1 n=e5 v=0
454760 On ch=1 n=b4 v=0
454800 On ch=1 n=e4 v=0
454800 On ch=1 n=f#4 v=45
454920 On ch=1 n=f#4 v=0
454920 On ch=1 n=b4 v=30
454920 On ch=1 n=e5 v=30
454920 On ch=1 n=g5 v=30
454920 On ch=1 n=g4 v=45
455000 On ch=1 n=g5 v=0
455000 On ch=1 n=e5 v=0
455000 On ch=1 n=b4 v=0
455040 On ch=1 n=g4 v=0
455040 On ch=1 n=a4 v=45
455160 On ch=1 n=c5 v=30
455160 On ch=1 n=e5 v=30
455160 On ch=1 n=f#5 v=30
455240 On ch=1 n=f#5 v=0
455240 On ch=1 n=e5 v=0
455240 On ch=1 n=c5 v=0
455280 On ch=1 n=a4 v=0
455280 On ch=1 n=a3 v=45
455400 On ch=1 n=c5 v=30
455400 On ch=1 n=e5 v=30
455400 On ch=1 n=f#5 v=30
455480 On ch=1 n=f#5 v=0
455480 On ch=1 n=e5 v=0
455480 On ch=1 n=c5 v=0
455520 On ch=1 n=a3 v=0
455520 On ch=1 n=b3 v=45
455640 On ch=1 n=b4 v=30
455640 On ch=1 n=d#5 v=30
455640 On ch=1 n=f#5 v=30
455720 On ch=1 n=f#5 v=0
455720 On ch=1 n=d#5 v=0
455720 On ch=1 n=b4 v=0
455760 On ch=1 n=b3 v=0
455760 On ch=1 n=b2 v=45
455880 On ch=1 n=b4 v=30
455880 On ch=1 n=d#5 v=30
455880 On ch=1 n=f#5 v=30
455960 On ch=1 n=f#5 v=0
455960 On ch=1 n=d#5 v=0
455960 On ch=1 n=b4 v=0
456000 On ch=1 n=b2 v=0
456000 On ch=1 n=e3 v=45
456120 On ch=1 n=b4 v=30
456120 On ch=1 n=e5 v=30
456120 On ch=1 n=g5 v=30
456200 On ch=1 n=g5 v=0
456200 On ch=1 n=e5 v=0
456200 On ch=1 n=b4 v=0
456235 On ch=1 n=e3 v=0
456240 On ch=1 n=g3 v=45
456360 On ch=1 n=g4 v=30
456360 On ch=1 n=b4 v=30
456360 On ch=1 n=d5 v=30
456440 On ch=1 n=d5 v=0
456440 On ch=1 n=b4 v=0
456440 On ch=1 n=g4 v=0
456480 On ch=1 n=g3 v=0
456480 On ch=1 n=c4 v=45
456600 On ch=1 n=g4 v=30
456600 On ch=1 n=c5 v=30
456600 On ch=1 n=e5 v=30
456680 On ch=1 n=e5 v=0
456680 On ch=1 n=c5 v=0
456680 On ch=1 n=g4 v=0
456720 On ch=1 n=c4 v=0
456720 On ch=1 n=d4 v=45
456840 On ch=1 n=d4 v=0
456840 On ch=1 n=g4 v=30
456840 On ch=1 n=c5 v=30
456840 On ch=1 n=e5 v=30
456840 On ch=1 n=e4 v=45
456920 On ch=1 n=e5 v=0
456920 On ch=1 n=c5 v=0
456920 On ch=1 n=g4 v=0
456960 On ch=1 n=e4 v=0
456960 On ch=1 n=f4 v=45
457080 On ch=1 n=a4 v=30
457080 On ch=1 n=c5 v=30
457080 On ch=1 n=d5 v=30
457160 On ch=1 n=d5 v=0
457160 On ch=1 n=c5 v=0
457160 On ch=1 n=a4 v=0
457200 On ch=1 n=f4 v=0
457200 On ch=1 n=f3 v=45
457320 On ch=1 n=a4 v=30
457320 On ch=1 n=c5 v=30
457320 On ch=1 n=d5 v=30
457400 On ch=1 n=d5 v=0
457400 On ch=1 n=c5 v=0
457400 On ch=1 n=a4 v=0
457440 On ch=1 n=f3 v=0
457440 On ch=1 n=g3 v=45
457560 On ch=1 n=g4 v=30
457560 On ch=1 n=b4 v=30
457560 On ch=1 n=d5 v=30
457640 On ch=1 n=d5 v=0
457640 On ch=1 n=b4 v=0
457640 On ch=1 n=g4 v=0
457680 On ch=1 n=g3 v=0
457680 On ch=1 n=g2 v=45
457800 On ch=1 n=g4 v=30
457800 On ch=1 n=b4 v=30
457800 On ch=1 n=d5 v=30
457880 On ch=1 n=d5 v=0
457880 On ch=1 n=b4 v=0
457880 On ch=1 n=g4 v=0
457920 On ch=1 n=g2 v=0
457920 On ch=1 n=c3 v=45
458040 On ch=1 n=g4 v=30
458040 On ch=1 n=c5 v=30
458040 On ch=1 n=e5 v=30
458155 On ch=1 n=e5 v=0
458155 On ch=1 n=c5 v=0
458155 On ch=1 n=g4 v=0
458155 On ch=1 n=c3 v=0
458160 Tempo 857142
458160 On ch=1 n=g4 v=30
458160 On ch=1 n=b4 v=30
458160 On ch=1 n=e5 v=30
458160 On ch=1 n=b2 v=63
458395 On ch=1 n=b2 v=0
458395 On ch=1 n=e5 v=0
458395 On ch=1 n=b4 v=0
458395 On ch=1 n=g4 v=0
458400 Tempo 400000
458400 On ch=1 n=e4 v=45
458520 On ch=1 n=b4 v=30
458520 On ch=1 n=e5 v=30
458520 On ch=1 n=g5 v=30
458600 On ch=1 n=g5 v=0
458600 On ch=1 n=e5 v=0
458600 On ch=1 n=b4 v=0
458640 On ch=1 n=e4 v=0
458640 On ch=1 n=f#4 v=45
458760 On ch=1 n=f#4 v=0
458760 On ch=1 n=b4 v=30
458760 On ch=1 n=e5 v=30
458760 On ch=1 n=g5 v=30
458760 On ch=1 n=g4 v=45
458840 On ch=1 n=g5 v=0
458840 On ch=1 n=e5 v=0
458840 On ch=1 n=b4 v=0
458880 On ch=1 n=g4 v=0
458880 On ch=1 n=a4 v=45
459000 On ch=1 n=c5 v=30
459000 On ch=1 n=e5 v=30
459000 On ch=1 n=f#5 v=30
459080 On ch=1 n=f#5 v=0
459080 On ch=1 n=e5 v=0
459080 On ch=1 n=c5 v=0
459120 On ch=1 n=a4 v=0
459120 On ch=1 n=a3 v=45
459240 On ch=1 n=c5 v=30
459240 On ch=1 n=e5 v=30
459240 On ch=1 n=f#5 v=30
459320 On ch=1 n=f#5 v=0
459320 On ch=1 n=e5 v=0
459320 On ch=1 n=c5 v=0
459360 On ch=1 n=a3 v=0
459360 On ch=1 n=b3 v=45
459480 On ch=1 n=b4 v=30
459480 On ch=1 n=d#5 v=30
459480 On ch=1 n=f#5 v=30
459560 On ch=1 n=f#5 v=0
459560 On ch=1 n=d#5 v=0
459560 On ch=1 n=b4 v=0
459600 On ch=1 n=b3 v=0
459600 On ch=1 n=b2 v=45
459720 On ch=1 n=b4 v=30
459720 On ch=1 n=d#5 v=30
459720 On ch=1 n=f#5 v=30
459800 On ch=1 n=f#5 v=0
459800 On ch=1 n=d#5 v=0
459800 On ch=1 n=b4 v=0
459840 On ch=1 n=b2 v=0
459840 On ch=1 n=e3 v=45
459960 On ch=1 n=b4 v=30
459960 On ch=1 n=e5 v=30
459960 On ch=1 n=g5 v=30
460040 On ch=1 n=g5 v=0
460040 On ch=1 n=e5 v=0
460040 On ch=1 n=b4 v=0
460075 On ch=1 n=e3 v=0
460080 On ch=1 n=g3 v=45
460200 On ch=1 n=g4 v=30
460200 On ch=1 n=b4 v=30
460200 On ch=1 n=d5 v=30
460280 On ch=1 n=d5 v=0
460280 On ch=1 n=b4 v=0
460280 On ch=1 n=g4 v=0
460320 On ch=1 n=g3 v=0
460320 On ch=1 n=c4 v=45
460440 On ch=1 n=g4 v=30
460440 On ch=1 n=c5 v=30
460440 On ch=1 n=e5 v=30
460520 On ch=1 n=e5 v=0
460520 On ch=1 n=c5 v=0
460520 On ch=1 n=g4 v=0
460560 On ch=1 n=c4 v=0
460560 On ch=1 n=d4 v=45
460680 On ch=1 n=d4 v=0
460680 On ch=1 n=g4 v=30
460680 On ch=1 n=c5 v=30
460680 On ch=1 n=e5 v=30
460680 On ch=1 n=e4 v=45
460760 On ch=1 n=e5 v=0
460760 On ch=1 n=c5 v=0
460760 On ch=1 n=g4 v=0
460800 On ch=1 n=e4 v=0
460800 On ch=1 n=f4 v=45
460920 On ch=1 n=a4 v=30
460920 On ch=1 n=c5 v=30
460920 On ch=1 n=d5 v=30
461000 On ch=1 n=d5 v=0
461000 On ch=1 n=c5 v=0
461000 On ch=1 n=a4 v=0
461040 On ch=1 n=f4 v=0
461040 On ch=1 n=f3 v=45
461160 On ch=1 n=a4 v=30
461160 On ch=1 n=c5 v=30
461160 On ch=1 n=d5 v=30
461240 On ch=1 n=d5 v=0
461240 On ch=1 n=c5 v=0
461240 On ch=1 n=a4 v=0
461280 On ch=1 n=f3 v=0
461280 On ch=1 n=g3 v=45
461400 On ch=1 n=g4 v=30
461400 On ch=1 n=b4 v=30
461400 On ch=1 n=d5 v=30
461480 On ch=1 n=d5 v=0
461480 On ch=1 n=b4 v=0
461480 On ch=1 n=g4 v=0
461520 On ch=1 n=g3 v=0
461520 On ch=1 n=g2 v=45
461640 On ch=1 n=g4 v=30
461640 On ch=1 n=b4 v=30
461640 On ch=1 n=d5 v=30
461720 On ch=1 n=d5 v=0
461720 On ch=1 n=b4 v=0
461720 On ch=1 n=g4 v=0
461760 On ch=1 n=g2 v=0
461760 On ch=1 n=c3 v=45
461880 On ch=1 n=g4 v=30
461880 On ch=1 n=c5 v=30
461880 On ch=1 n=e5 v=30
461995 On ch=1 n=e5 v=0
461995 On ch=1 n=c5 v=0
461995 On ch=1 n=g4 v=0
461995 On ch=1 n=c3 v=0
462000 Tempo 857142
462000 On ch=1 n=g4 v=30
462000 On ch=1 n=b4 v=30
462000 On ch=1 n=e5 v=30
462000 On ch=1 n=b2 v=63
462235 On ch=1 n=b2 v=0
462235 On ch=1 n=e5 v=0
462235 On ch=1 n=b4 v=0
462235 On ch=1 n=g4 v=0
462240 Tempo 750000
462240 On ch=1 n=b5 v=45
462480 On ch=1 n=e5 v=30
462480 On ch=1 n=g5 v=30
462720 On ch=1 n=g5 v=0
462720 On ch=1 n=e5 v=0
462720 On ch=1 n=b5 v=0
462720 On ch=1 n=b5 v=45
462720 On ch=1 n=d#5 v=30
462720 On ch=1 n=f#5 v=30
462960 On ch=1 n=f#5 v=0
462960 On ch=1 n=d#5 v=0
462960 On ch=1 n=d5 v=30
462960 On ch=1 n=f5 v=30
463080 On ch=1 n=b5 v=0
463080 On ch=1 n=b5 v=45
463195 On ch=1 n=b5 v=0
463200 On ch=1 n=f5 v=0
463200 On ch=1 n=d5 v=0
463200 On ch=1 n=b5 v=45
463200 On ch=1 n=c#5 v=30
463200 On ch=1 n=e5 v=30
463440 On ch=1 n=b5 v=0
463440 On ch=1 n=a#5 v=45
463680 On ch=1 n=e6 v=45
463920 On ch=1 n=e6 v=0
463920 On ch=1 n=a#5 v=0
463920 On ch=1 n=e5 v=0
463920 On ch=1 n=c#5 v=0
463920 On ch=1 n=d#6 v=45
463920 On ch=1 n=a5 v=30
463920 On ch=1 n=c5 v=30
463920 On ch=1 n=d#5 v=30
464160 On ch=1 n=d#5 v=0
464160 On ch=1 n=c5 v=0
464160 On ch=1 n=d#6 v=0
464160 On ch=1 n=d6 v=45
464160 On ch=1 n=b4 v=30
464160 On ch=1 n=d5 v=30
464400 On ch=1 n=d6 v=0
464400 On ch=1 n=a5 v=0
464400 On ch=1 n=g5 v=45
464640 On ch=1 n=g5 v=0
464640 On ch=1 n=d5 v=0
464640 On ch=1 n=b4 v=0
464640 On ch=1 n=c6 v=45
464640 On ch=1 n=f#5 v=30
464640 On ch=1 n=a4 v=30
464640 On ch=1 n=d5 v=30
464880 On ch=1 n=f#5 v=0
464880 On ch=1 n=g5 v=30
465000 On ch=1 n=d5 v=0
465000 On ch=1 n=a4 v=0
465000 On ch=1 n=c6 v=0
465000 On ch=1 n=b5 v=45
465000 On ch=1 n=g4 v=30
465000 On ch=1 n=d5 v=30
465115 On ch=1 n=g5 v=0
465120 On ch=1 n=d5 v=0
465120 On ch=1 n=g4 v=0
465120 On ch=1 n=b5 v=0
465120 On ch=1 n=g5 v=45
465120 On ch=1 n=b5 v=45
465120 On ch=1 n=d5 v=30
465120 On ch=1 n=g4 v=30
465355 On ch=1 n=g4 v=0
465360 On ch=1 n=b4 v=30
465595 On ch=1 n=b4 v=0
465600 On ch=1 n=d5 v=0
465600 On ch=1 n=b5 v=0
465600 On ch=1 n=g5 v=0
465600 On ch=1 n=f#5 v=45
465600 On ch=1 n=a5 v=45
465600 On ch=1 n=d5 v=30
465840 On ch=1 n=d4 v=30
466000 On ch=1 n=d5 v=0
466000 On ch=1 n=a5 v=0
466000 On ch=1 n=f#5 v=0
466080 On ch=1 n=d5 v=45
466320 On ch=1 n=b5 v=45
466320 On ch=1 n=d6 v=45
466320 On ch=1 n=g6 v=45
466480 On ch=1 n=d5 v=0
466560 On ch=1 n=g6 v=0
466560 On ch=1 n=d6 v=0
466560 On ch=1 n=b5 v=0
466560 On ch=1 n=a5 v=45
466560 On ch=1 n=d6 v=45
466560 On ch=1 n=f#6 v=45
466560 On ch=1 n=d5 v=45
466800 On ch=1 n=f#6 v=0
466800 On ch=1 n=d6 v=0
466800 On ch=1 n=a5 v=0
466800 On ch=1 n=g5 v=45
466800 On ch=1 n=c#6 v=45
466800 On ch=1 n=e6 v=45
466915 On ch=1 n=d5 v=0
466920 On ch=1 n=d4 v=0
466920 On ch=1 n=d5 v=45
467035 On ch=1 n=d5 v=0
467040 On ch=1 n=e6 v=0
467040 On ch=1 n=c#6 v=0
467040 On ch=1 n=g5 v=0
467040 On ch=1 n=f#5 v=45
467040 On ch=1 n=a5 v=45
467040 On ch=1 n=d6 v=45
467040 On ch=1 n=d5 v=45
467280 On ch=1 n=d5 v=0
467280 On ch=1 n=c5 v=45
467520 On ch=1 n=c5 v=0
467520 On ch=1 n=e5 v=45
467760 On ch=1 n=e5 v=0
467760 On ch=1 n=d5 v=45
468000 On ch=1 n=d5 v=0
468000 On ch=1 n=c5 v=45
468240 On ch=1 n=c5 v=0
468240 On ch=1 n=d6 v=0
468240 On ch=1 n=a5 v=0
468240 On ch=1 n=f#5 v=0
468240 On ch=1 n=d6 v=45
468240 On ch=1 n=g5 v=30
468240 On ch=1 n=b4 v=45
468240 On ch=1 n=d5 v=45
468480 On ch=1 n=d5 v=0
468480 On ch=1 n=b4 v=0
468480 On ch=1 n=g5 v=0
468480 On ch=1 n=d6 v=0
468480 On ch=1 n=c6 v=45
468480 On ch=1 n=f#5 v=30
468480 On ch=1 n=a4 v=45
468480 On ch=1 n=d5 v=45
468720 On ch=1 n=f#5 v=0
468720 On ch=1 n=g5 v=30
468840 On ch=1 n=d5 v=0
468840 On ch=1 n=a4 v=0
468840 On ch=1 n=c6 v=0
468840 On ch=1 n=b5 v=45
468840 On ch=1 n=g4 v=45
468840 On ch=1 n=d5 v=45
468955 On ch=1 n=g5 v=0
468960 On ch=1 n=d5 v=0
468960 On ch=1 n=g4 v=0
468960 On ch=1 n=b5 v=0
468960 On ch=1 n=g5 v=45
468960 On ch=1 n=b5 v=45
468960 On ch=1 n=d5 v=45
468960 On ch=1 n=g4 v=30
469200 On ch=1 n=g4 v=0
469200 On ch=1 n=b4 v=30
469440 On ch=1 n=b4 v=0
469440 On ch=1 n=d5 v=0
469440 On ch=1 n=b5 v=0
469440 On ch=1 n=g5 v=0
469440 On ch=1 n=f#5 v=45
469440 On ch=1 n=a5 v=45
469440 On ch=1 n=d5 v=45
469680 On ch=1 n=d4 v=30
469840 On ch=1 n=d5 v=0
469840 On ch=1 n=a5 v=0
469840 On ch=1 n=f#5 v=0
469915 On ch=1 n=d4 v=0
469920 Tempo 400000
469920 On ch=1 n=b5 v=108
469920 On ch=1 n=g5 v=92
469920 On ch=1 n=d5 v=92
469920 On ch=1 n=g4 v=92
470035 On ch=1 n=d5 v=0
470040 On ch=1 n=b5 v=0
470040 On ch=1 n=c6 v=108
470040 On ch=1 n=e5 v=92
470155 On ch=1 n=e5 v=0
470160 On ch=1 n=c6 v=0
470160 On ch=1 n=a5 v=108
470160 On ch=1 n=c5 v=92
470275 On ch=1 n=c5 v=0
470280 On ch=1 n=a5 v=0
470280 On ch=1 n=b5 v=108
470280 On ch=1 n=d5 v=92
470320 On ch=1 n=g5 v=0
470395 On ch=1 n=d5 v=0
470400 On ch=1 n=b5 v=0
470400 On ch=1 n=g5 v=108
470400 On ch=1 n=b4 v=92
470480 On ch=1 n=g5 v=0
470635 On ch=1 n=b4 v=0
470635 On ch=1 n=g4 v=0
470640 On ch=1 n=g#5 v=108
470640 On ch=1 n=b5 v=108
470640 On ch=1 n=e6 v=108
470640 On ch=1 n=e4 v=92
470640 On ch=1 n=e5 v=92
470720 On ch=1 n=e6 v=0
470720 On ch=1 n=b5 v=0
470720 On ch=1 n=g#5 v=0
470875 On ch=1 n=e5 v=0
470875 On ch=1 n=e4 v=0
470880 On ch=1 n=a3 v=92
471115 On ch=1 n=a3 v=0
471120 On ch=1 n=a5 v=108
471120 On ch=1 n=c6 v=108
471120 On ch=1 n=e6 v=108
471120 On ch=1 n=e4 v=92
471120 On ch=1 n=e5 v=92
471200 On ch=1 n=e6 v=0
471200 On ch=1 n=c6 v=0
471200 On ch=1 n=a5 v=0
471355 On ch=1 n=e5 v=0
471355 On ch=1 n=e4 v=0
471360 On ch=1 n=d4 v=92
471595 On ch=1 n=d4 v=0
471600 On ch=1 n=a5 v=108
471600 On ch=1 n=c6 v=108
471600 On ch=1 n=d6 v=108
471600 On ch=1 n=d4 v=92
471600 On ch=1 n=f#4 v=92
471600 On ch=1 n=d5 v=92
471680 On ch=1 n=d6 v=0
471680 On ch=1 n=c6 v=0
471680 On ch=1 n=a5 v=0
471835 On ch=1 n=d5 v=0
471835 On ch=1 n=f#4 v=0
471835 On ch=1 n=d4 v=0
471840 On ch=1 n=b5 v=108
471840 On ch=1 n=g5 v=92
471840 On ch=1 n=d5 v=92
471840 On ch=1 n=g4 v=92
471955 On ch=1 n=d5 v=0
471960 On ch=1 n=b5 v=0
471960 On ch=1 n=c6 v=108
471960 On ch=1 n=e5 v=92
472075 On ch=1 n=e5 v=0
472080 On ch=1 n=c6 v=0
472080 On ch=1 n=a5 v=108
472080 On ch=1 n=c5 v=92
472195 On ch=1 n=c5 v=0
472200 On ch=1 n=a5 v=0
472200 On ch=1 n=b5 v=108
472200 On ch=1 n=d5 v=92
472240 On ch=1 n=g5 v=0
472315 On ch=1 n=d5 v=0
472320 On ch=1 n=b5 v=0
472320 On ch=1 n=g5 v=108
472320 On ch=1 n=b4 v=92
472400 On ch=1 n=g5 v=0
472555 On ch=1 n=b4 v=0
472555 On ch=1 n=g4 v=0
472560 On ch=1 n=a#5 v=108
472560 On ch=1 n=c#6 v=108
472560 On ch=1 n=f#6 v=108
472560 On ch=1 n=f#4 v=92
472560 On ch=1 n=f#5 v=92
472640 On ch=1 n=f#6 v=0
472640 On ch=1 n=c#6 v=0
472640 On ch=1 n=a#5 v=0
472795 On ch=1 n=f#5 v=0
472795 On ch=1 n=f#4 v=0
472800 On ch=1 n=b3 v=92
473035 On ch=1 n=b3 v=0
473040 On ch=1 n=b5 v=108
473040 On ch=1 n=d6 v=108
473040 On ch=1 n=f#6 v=108
473040 On ch=1 n=f#4 v=92
473040 On ch=1 n=f#5 v=92
473275 On ch=1 n=f#5 v=0
473275 On ch=1 n=f#4 v=0
473275 On ch=1 n=f#6 v=0
473275 On ch=1 n=d6 v=0
473275 On ch=1 n=b5 v=0
473280 Tempo 500000
473280 On ch=1 n=a5 v=108
473280 On ch=1 n=d6 v=108
473280 On ch=1 n=f#6 v=108
473280 On ch=1 n=d4 v=92
473280 On ch=1 n=d5 v=92
473515 On ch=1 n=d5 v=0
473515 On ch=1 n=d4 v=0
473515 On ch=1 n=f#6 v=0
473515 On ch=1 n=d6 v=0
473515 On ch=1 n=a5 v=0
473520 On ch=1 n=b5 v=108
473520 On ch=1 n=d6 v=108
473520 On ch=1 n=g6 v=108
473520 On ch=1 n=g4 v=92
473520 On ch=1 n=d5 v=92
473755 On ch=1 n=d5 v=0
473755 On ch=1 n=g4 v=0
473755 On ch=1 n=g6 v=0
473755 On ch=1 n=d6 v=0
473755 On ch=1 n=b5 v=0
473760 Tempo 428571
473760 Par ch=1 c=64 v=127
473760 On ch=1 n=g6 v=60
473760 On ch=1 n=e4 v=45
473995 On ch=1 n=e4 v=0
474000 On ch=1 n=b4 v=45
474000 On ch=1 n=e5 v=45
474000 On ch=1 n=g5 v=45
474180 Par ch=1 c=64 v=0
474235 On ch=1 n=g5 v=0
474235 On ch=1 n=e5 v=0
474235 On ch=1 n=b4 v=0
474240 On ch=1 n=g6 v=0
474240 Par ch=1 c=64 v=127
474240 On ch=1 n=f#6 v=60
474240 On ch=1 n=a3 v=45
474475 On ch=1 n=a3 v=0
474480 On ch=1 n=a4 v=45
474480 On ch=1 n=c5 v=45
474480 On ch=1 n=f#5 v=45
474660 Par ch=1 c=64 v=0
474715 On ch=1 n=f#5 v=0
474715 On ch=1 n=c5 v=0
474715 On ch=1 n=a4 v=0
474720 On ch=1 n=f#6 v=0
474720 Par ch=1 c=64 v=127
474720 On ch=1 n=d#6 v=60
474720 On ch=1 n=b3 v=45
474955 On ch=1 n=b3 v=0
474960 On ch=1 n=f#4 v=45
474960 On ch=1 n=a4 v=45
474960 On ch=1 n=d#5 v=45
475140 Par ch=1 c=64 v=0
475195 On ch=1 n=d#5 v=0
475195 On ch=1 n=a4 v=0
475195 On ch=1 n=f#4 v=0
475200 On ch=1 n=d#6 v=0
475200 Par ch=1 c=64 v=127
475200 On ch=1 n=e6 v=60
475200 On ch=1 n=c4 v=45
475435 On ch=1 n=c4 v=0
475440 On ch=1 n=e5 v=45
475440 On ch=1 n=g4 v=45
475440 On ch=1 n=e4 v=45
475600 On ch=1 n=e6 v=0
475620 Par ch=1 c=64 v=0
475675 On ch=1 n=e4 v=0
475675 On ch=1 n=g4 v=0
475675 On ch=1 n=e5 v=0
475680 Tempo 428571
475680 Par ch=1 c=64 v=127
475680 On ch=1 n=d4 v=45
475680 On ch=1 n=d6 v=60
475722 Tempo 434782
475765 Tempo 441176
475807 Tempo 447761
475850 Tempo 454545
475892 Tempo 461538
475915 On ch=1 n=d4 v=0
475920 On ch=1 n=d5 v=45
475920 On ch=1 n=f#4 v=45
475935 Tempo 468750
475977 Tempo 476190
476020 Tempo 483870
476062 Tempo 491803
476100 Par ch=1 c=64 v=0
476105 Tempo 500000
476147 Tempo 508474
476155 On ch=1 n=f#4 v=0
476155 On ch=1 n=d5 v=0
476160 On ch=1 n=d6 v=0
476160 Par ch=1 c=64 v=127
476160 On ch=1 n=c6 v=60
476160 On ch=1 n=e4 v=45
476190 Tempo 517241
476232 Tempo 526315
476275 Tempo 535714
476320 Tempo 545454
476362 Tempo 555555
476395 On ch=1 n=e4 v=0
476400 On ch=1 n=g4 v=45
476400 On ch=1 n=c5 v=45
476405 Tempo 566037
476447 Tempo 576923
476490 Tempo 588235
476532 Tempo 600000
476575 Tempo 612244
476580 Par ch=1 c=64 v=0
476617 Tempo 625000
476635 On ch=1 n=c5 v=0
476635 On ch=1 n=g4 v=0
476640 On ch=1 n=c6 v=0
476640 Par ch=1 c=64 v=127
476640 On ch=1 n=a#5 v=60
476640 On ch=1 n=f#4 v=45
476660 Tempo 638297
476702 Tempo 652173
476745 Tempo 666666
476787 Tempo 681818
476830 Tempo 697674
476872 Tempo 714285
476875 On ch=1 n=f#4 v=0
476880 On ch=1 n=c#5 v=45
476880 On ch=1 n=e5 v=45
476915 Tempo 731707
476960 Tempo 750000
477002 Tempo 769230
477045 Tempo 789473
477060 Par ch=1 c=64 v=0
477087 Tempo 810810
477115 On ch=1 n=e5 v=0
477115 On ch=1 n=c#5 v=0
477120 On ch=1 n=a#5 v=0
477120 Par ch=1 c=64 v=127
477120 On ch=1 n=b5 v=60
477120 On ch=1 n=b4 v=45
477130 Tempo 833333
477172 Tempo 857142
477215 Tempo 882352
477257 Tempo 909090
477300 Tempo 937500
477342 Tempo 967741
477360 On ch=1 n=d#5 v=45
477360 On ch=1 n=f#5 v=45
477385 Tempo 1000000
477427 Tempo 1034482
477470 Tempo 1071428
477512 Tempo 1111111
477520 On ch=1 n=b5 v=0
477540 Par ch=1 c=64 v=0
477555 Tempo 1153846
477595 On ch=1 n=f#5 v=0
477595 On ch=1 n=d#5 v=0
477600 Tempo 1200000
477600 Tempo 750000
477600 On ch=1 n=b5 v=45
477840 On ch=1 n=e5 v=30
477840 On ch=1 n=g5 v=30
478080 On ch=1 n=g5 v=0
478080 On ch=1 n=e5 v=0
478080 On ch=1 n=b5 v=0
478080 On ch=1 n=b5 v=45
478080 On ch=1 n=d#5 v=30
478080 On ch=1 n=f#5 v=30
478320 On ch=1 n=f#5 v=0
478320 On ch=1 n=d#5 v=0
478320 On ch=1 n=d5 v=30
478320 On ch=1 n=f5 v=30
478440 On ch=1 n=b5 v=0
478440 On ch=1 n=b4 v=0
478440 On ch=1 n=b5 v=45
478555 On ch=1 n=b5 v=0
478560 On ch=1 n=f5 v=0
478560 On ch=1 n=d5 v=0
478560 On ch=1 n=b5 v=45
478560 On ch=1 n=c#5 v=30
478560 On ch=1 n=e5 v=30
478800 On ch=1 n=b5 v=0
478800 On ch=1 n=a#5 v=45
479040 On ch=1 n=e6 v=45
479280 On ch=1 n=e6 v=0
479280 On ch=1 n=a#5 v=0
479280 On ch=1 n=e5 v=0
479280 On ch=1 n=c#5 v=0
479280 On ch=1 n=d#6 v=45
479280 On ch=1 n=a5 v=30
479280 On ch=1 n=c5 v=30
479280 On ch=1 n=d#5 v=30
479520 On ch=1 n=d#5 v=0
479520 On ch=1 n=c5 v=0
479520 On ch=1 n=d#6 v=0
479520 On ch=1 n=d6 v=45
479520 On ch=1 n=b4 v=30
479520 On ch=1 n=d5 v=30
479760 On ch=1 n=d6 v=0
479760 On ch=1 n=a5 v=0
479760 On ch=1 n=g5 v=45
480000 On ch=1 n=g5 v=0
480000 On ch=1 n=d5 v=0
480000 On ch=1 n=b4 v=0
480000 On ch=1 n=c6 v=45
480000 On ch=1 n=f#5 v=30
480000 On ch=1 n=a4 v=30
480000 On ch=1 n=d5 v=30
480240 On ch=1 n=f#5 v=0
480240 On ch=1 n=g5 v=30
480360 On ch=1 n=d5 v=0
480360 On ch=1 n=a4 v=0
480360 On ch=1 n=c6 v=0
480360 On ch=1 n=b5 v=45
480360 On ch=1 n=g4 v=30
480360 On ch=1 n=d5 v=30
480475 On ch=1 n=g5 v=0
480480 On ch=1 n=d5 v=0
480480 On ch=1 n=g4 v=0
480480 On ch=1 n=b5 v=0
480480 On ch=1 n=g5 v=45
480480 On ch=1 n=b5 v=45
480480 On ch=1 n=d5 v=30
480480 On ch=1 n=g4 v=30
480715 On ch=1 n=g4 v=0
480720 On ch=1 n=b4 v=30
480955 On ch=1 n=b4 v=0
480960 On ch=1 n=d5 v=0
480960 On ch=1 n=b5 v=0
480960 On ch=1 n=g5 v=0
480960 On ch=1 n=f#5 v=45
480960 On ch=1 n=a5 v=45
480960 On ch=1 n=d5 v=30
481200 On ch=1 n=d4 v=30
481360 On ch=1 n=d5 v=0
481360 On ch=1 n=a5 v=0
481360 On ch=1 n=f#5 v=0
481440 On ch=1 n=d5 v=45
481680 On ch=1 n=b5 v=45
481680 On ch=1 n=d6 v=45
481680 On ch=1 n=g6 v=45
481840 On ch=1 n=d5 v=0
481920 On ch=1 n=g6 v=0
481920 On ch=1 n=d6 v=0
481920 On ch=1 n=b5 v=0
481920 On ch=1 n=a5 v=45
481920 On ch=1 n=d6 v=45
481920 On ch=1 n=f#6 v=45
481920 On ch=1 n=d5 v=45
482160 On ch=1 n=f#6 v=0
482160 On ch=1 n=d6 v=0
482160 On ch=1 n=a5 v=0
482160 On ch=1 n=g5 v=45
482160 On ch=1 n=c#6 v=45
482160 On ch=1 n=e6 v=45
482275 On ch=1 n=d5 v=0
482280 On ch=1 n=d4 v=0
482280 On ch=1 n=d5 v=45
482395 On ch=1 n=d5 v=0
482400 On ch=1 n=e6 v=0
482400 On ch=1 n=c#6 v=0
482400 On ch=1 n=g5 v=0
482400 On ch=1 n=f#5 v=45
482400 On ch=1 n=a5 v=45
482400 On ch=1 n=d6 v=45
482400 On ch=1 n=d5 v=45
482640 On ch=1 n=d5 v=0
482640 On ch=1 n=c5 v=45
482880 On ch=1 n=c5 v=0
482880 On ch=1 n=e5 v=45
483120 On ch=1 n=e5 v=0
483120 On ch=1 n=d5 v=45
483360 On ch=1 n=d5 v=0
483360 On ch=1 n=c5 v=45
483600 On ch=1 n=c5 v=0
483600 On ch=1 n=d6 v=0
483600 On ch=1 n=a5 v=0
483600 On ch=1 n=f#5 v=0
483600 On ch=1 n=d6 v=45
483600 On ch=1 n=g5 v=30
483600 On ch=1 n=b4 v=45
483600 On ch=1 n=d5 v=45
483840 On ch=1 n=d5 v=0
483840 On ch=1 n=b4 v=0
483840 On ch=1 n=g5 v=0
483840 On ch=1 n=d6 v=0
483840 On ch=1 n=c6 v=45
483840 On ch=1 n=f#5 v=30
483840 On ch=1 n=a4 v=45
483840 On ch=1 n=d5 v=45
484080 On ch=1 n=f#5 v=0
484080 On ch=1 n=g5 v=30
484200 On ch=1 n=d5 v=0
484200 On ch=1 n=a4 v=0
484200 On ch=1 n=c6 v=0
484200 On ch=1 n=b5 v=45
484200 On ch=1 n=g4 v=45
484200 On ch=1 n=d5 v=45
484315 On ch=1 n=g5 v=0
484320 On ch=1 n=d5 v=0
484320 On ch=1 n=g4 v=0
484320 On ch=1 n=b5 v=0
484320 On ch=1 n=g5 v=45
484320 On ch=1 n=b5 v=45
484320 On ch=1 n=d5 v=45
484320 On ch=1 n=g4 v=30
484560 On ch=1 n=g4 v=0
484560 On ch=1 n=b4 v=30
484800 On ch=1 n=b4 v=0
484800 On ch=1 n=d5 v=0
484800 On ch=1 n=b5 v=0
484800 On ch=1 n=g5 v=0
484800 On ch=1 n=f#5 v=45
484800 On ch=1 n=a5 v=45
484800 On ch=1 n=d5 v=45
485040 On ch=1 n=d4 v=30
485200 On ch=1 n=d5 v=0
485200 On ch=1 n=a5 v=0
485200 On ch=1 n=f#5 v=0
485275 On ch=1 n=d4 v=0
485280 Tempo 400000
485280 On ch=1 n=e4 v=45
485400 On ch=1 n=b4 v=30
485400 On ch=1 n=e5 v=30
485400 On ch=1 n=g5 v=30
485480 On ch=1 n=g5 v=0
485480 On ch=1 n=e5 v=0
485480 On ch=1 n=b4 v=0
485520 On ch=1 n=e4 v=0
485520 On ch=1 n=f#4 v=45
485640 On ch=1 n=f#4 v=0
485640 On ch=1 n=b4 v=30
485640 On ch=1 n=e5 v=30
485640 On ch=1 n=g5 v=30
485640 On ch=1 n=g4 v=45
485720 On ch=1 n=g5 v=0
485720 On ch=1 n=e5 v=0
485720 On ch=1 n=b4 v=0
485760 On ch=1 n=g4 v=0
485760 On ch=1 n=a4 v=45
485880 On ch=1 n=c5 v=30
485880 On ch=1 n=e5 v=30
485880 On ch=1 n=f#5 v=30
485960 On ch=1 n=f#5 v=0
485960 On ch=1 n=e5 v=0
485960 On ch=1 n=c5 v=0
486000 On ch=1 n=a4 v=0
486000 On ch=1 n=a3 v=45
486120 On ch=1 n=c5 v=30
486120 On ch=1 n=e5 v=30
486120 On ch=1 n=f#5 v=30
486200 On ch=1 n=f#5 v=0
486200 On ch=1 n=e5 v=0
486200 On ch=1 n=c5 v=0
486240 On ch=1 n=a3 v=0
486240 On ch=1 n=b3 v=45
486360 On ch=1 n=b4 v=30
486360 On ch=1 n=d#5 v=30
486360 On ch=1 n=f#5 v=30
486440 On ch=1 n=f#5 v=0
486440 On ch=1 n=d#5 v=0
486440 On ch=1 n=b4 v=0
486480 On ch=1 n=b3 v=0
486480 On ch=1 n=b2 v=45
486600 On ch=1 n=b4 v=30
486600 On ch=1 n=d#5 v=30
486600 On ch=1 n=f#5 v=30
486680 On ch=1 n=f#5 v=0
486680 On ch=1 n=d#5 v=0
486680 On ch=1 n=b4 v=0
486720 On ch=1 n=b2 v=0
486720 On ch=1 n=e3 v=45
486840 On ch=1 n=b4 v=30
486840 On ch=1 n=e5 v=30
486840 On ch=1 n=g5 v=30
486920 On ch=1 n=g5 v=0
486920 On ch=1 n=e5 v=0
486920 On ch=1 n=b4 v=0
486955 On ch=1 n=e3 v=0
486960 On ch=1 n=g3 v=45
487080 On ch=1 n=g4 v=30
487080 On ch=1 n=b4 v=30
487080 On ch=1 n=d5 v=30
487160 On ch=1 n=d5 v=0
487160 On ch=1 n=b4 v=0
487160 On ch=1 n=g4 v=0
487200 On ch=1 n=g3 v=0
487200 On ch=1 n=c4 v=45
487320 On ch=1 n=g4 v=30
487320 On ch=1 n=c5 v=30
487320 On ch=1 n=e5 v=30
487400 On ch=1 n=e5 v=0
487400 On ch=1 n=c5 v=0
487400 On ch=1 n=g4 v=0
487440 On ch=1 n=c4 v=0
487440 On ch=1 n=d4 v=45
487560 On ch=1 n=d4 v=0
487560 On ch=1 n=g4 v=30
487560 On ch=1 n=c5 v=30
487560 On ch=1 n=e5 v=30
487560 On ch=1 n=e4 v=45
487640 On ch=1 n=e5 v=0
487640 On ch=1 n=c5 v=0
487640 On ch=1 n=g4 v=0
487680 On ch=1 n=e4 v=0
487680 On ch=1 n=f4 v=45
487800 On ch=1 n=a4 v=30
487800 On ch=1 n=c5 v=30
487800 On ch=1 n=d5 v=30
487880 On ch=1 n=d5 v=0
487880 On ch=1 n=c5 v=0
487880 On ch=1 n=a4 v=0
487920 On ch=1 n=f4 v=0
487920 On ch=1 n=f3 v=45
488040 On ch=1 n=a4 v=30
488040 On ch=1 n=c5 v=30
488040 On ch=1 n=d5 v=30
488120 On ch=1 n=d5 v=0
488120 On ch=1 n=c5 v=0
488120 On ch=1 n=a4 v=0
488160 On ch=1 n=f3 v=0
488160 On ch=1 n=g3 v=45
488280 On ch=1 n=g4 v=30
488280 On ch=1 n=b4 v=30
488280 On ch=1 n=d5 v=30
488360 On ch=1 n=d5 v=0
488360 On ch=1 n=b4 v=0
488360 On ch=1 n=g4 v=0
488400 On ch=1 n=g3 v=0
488400 On ch=1 n=g2 v=45
488520 On ch=1 n=g4 v=30
488520 On ch=1 n=b4 v=30
488520 On ch=1 n=d5 v=30
488600 On ch=1 n=d5 v=0
488600 On ch=1 n=b4 v=0
488600 On ch=1 n=g4 v=0
488640 On ch=1 n=g2 v=0
488640 On ch=1 n=c3 v=45
488760 On ch=1 n=g4 v=30
488760 On ch=1 n=c5 v=30
488760 On ch=1 n=e5 v=30
488875 On ch=1 n=e5 v=0
488875 On ch=1 n=c5 v=0
488875 On ch=1 n=g4 v=0
488875 On ch=1 n=c3 v=0
488880 Tempo 857142
488880 On ch=1 n=g4 v=30
488880 On ch=1 n=b4 v=30
488880 On ch=1 n=e5 v=30
488880 On ch=1 n=b2 v=63
489115 On ch=1 n=b2 v=0
489115 On ch=1 n=e5 v=0
489115 On ch=1 n=b4 v=0
489115 On ch=1 n=g4 v=0
489120 Tempo 400000
489120 On ch=1 n=e4 v=45
489240 On ch=1 n=b4 v=30
489240 On ch=1 n=e5 v=30
489240 On ch=1 n=g5 v=30
489320 On ch=1 n=g5 v=0
489320 On ch=1 n=e5 v=0
489320 On ch=1 n=b4 v=0
489360 On ch=1 n=e4 v=0
489360 On ch=1 n=f#4 v=45
489480 On ch=1 n=f#4 v=0
489480 On ch=1 n=b4 v=30
489480 On ch=1 n=e5 v=30
489480 On ch=1 n=g5 v=30
489480 On ch=1 n=g4 v=45
489560 On ch=1 n=g5 v=0
489560 On ch=1 n=e5 v=0
489560 On ch=1 n=b4 v=0
489600 On ch=1 n=g4 v=0
489600 On ch=1 n=a4 v=45
489720 On ch=1 n=c5 v=30
489720 On ch=1 n=e5 v=30
489720 On ch=1 n=f#5 v=30
489800 On ch=1 n=f#5 v=0
489800 On ch=1 n=e5 v=0
489800 On ch=1 n=c5 v=0
489840 On ch=1 n=a4 v=0
489840 On ch=1 n=a3 v=45
489960 On ch=1 n=c5 v=30
489960 On ch=1 n=e5 v=30
489960 On ch=1 n=f#5 v=30
490040 On ch=1 n=f#5 v=0
490040 On ch=1 n=e5 v=0
490040 On ch=1 n=c5 v=0
490080 On ch=1 n=a3 v=0
490080 On ch=1 n=b3 v=45
490200 On ch=1 n=b4 v=30
490200 On ch=1 n=d#5 v=30
490200 On ch=1 n=f#5 v=30
490280 On ch=1 n=f#5 v=0
490280 On ch=1 n=d#5 v=0
490280 On ch=1 n=b4 v=0
490320 On ch=1 n=b3 v=0
490320 On ch=1 n=b2 v=45
490440 On ch=1 n=b4 v=30
490440 On ch=1 n=d#5 v=30
490440 On ch=1 n=f#5 v=30
490520 On ch=1 n=f#5 v=0
490520 On ch=1 n=d#5 v=0
490520 On ch=1 n=b4 v=0
490560 On ch=1 n=b2 v=0
490560 On ch=1 n=e3 v=45
490680 On ch=1 n=b4 v=30
490680 On ch=1 n=e5 v=30
490680 On ch=1 n=g5 v=30
490760 On ch=1 n=g5 v=0
490760 On ch=1 n=e5 v=0
490760 On ch=1 n=b4 v=0
490795 On ch=1 n=e3 v=0
490800 On ch=1 n=g3 v=45
490920 On ch=1 n=g4 v=30
490920 On ch=1 n=b4 v=30
490920 On ch=1 n=d5 v=30
491000 On ch=1 n=d5 v=0
491000 On ch=1 n=b4 v=0
491000 On ch=1 n=g4 v=0
491040 On ch=1 n=g3 v=0
491040 On ch=1 n=c4 v=45
491160 On ch=1 n=g4 v=30
491160 On ch=1 n=c5 v=30
491160 On ch=1 n=e5 v=30
491240 On ch=1 n=e5 v=0
491240 On ch=1 n=c5 v=0
491240 On ch=1 n=g4 v=0
491280 On ch=1 n=c4 v=0
491280 On ch=1 n=d4 v=45
491400 On ch=1 n=d4 v=0
491400 On ch=1 n=g4 v=30
491400 On ch=1 n=c5 v=30
491400 On ch=1 n=e5 v=30
491400 On ch=1 n=e4 v=45
491480 On ch=1 n=e5 v=0
491480 On ch=1 n=c5 v=0
491480 On ch=1 n=g4 v=0
491520 On ch=1 n=e4 v=0
491520 On ch=1 n=f4 v=45
491640 On ch=1 n=a4 v=30
491640 On ch=1 n=c5 v=30
491640 On ch=1 n=d5 v=30
491720 On ch=1 n=d5 v=0
491720 On ch=1 n=c5 v=0
491720 On ch=1 n=a4 v=0
491760 On ch=1 n=f4 v=0
491760 On ch=1 n=f3 v=45
491880 On ch=1 n=a4 v=30
491880 On ch=1 n=c5 v=30
491880 On ch=1 n=d5 v=30
491960 On ch=1 n=d5 v=0
491960 On ch=1 n=c5 v=0
491960 On ch=1 n=a4 v=0
492000 On ch=1 n=f3 v=0
492000 On ch=1 n=g3 v=45
492120 On ch=1 n=g4 v=30
492120 On ch=1 n=b4 v=30
492120 On ch=1 n=d5 v=30
492200 On ch=1 n=d5 v=0
492200 On ch=1 n=b4 v=0
492200 On ch=1 n=g4 v=0
492240 On ch=1 n=g3 v=0
492240 On ch=1 n=g2 v=45
492360 On ch=1 n=g4 v=30
492360 On ch=1 n=b4 v=30
492360 On ch=1 n=d5 v=30
492440 On ch=1 n=d5 v=0
492440 On ch=1 n=b4 v=0
492440 On ch=1 n=g4 v=0
492480 On ch=1 n=g2 v=0
492480 On ch=1 n=c3 v=45
492600 On ch=1 n=g4 v=30
492600 On ch=1 n=c5 v=30
492600 On ch=1 n=e5 v=30
492715 On ch=1 n=e5 v=0
492715 On ch=1 n=c5 v=0
492715 On ch=1 n=g4 v=0
492715 On ch=1 n=c3 v=0
492720 Tempo 857142
492720 On ch=1 n=g4 v=30
492720 On ch=1 n=b4 v=30
492720 On ch=1 n=e5 v=30
492720 On ch=1 n=b2 v=63
492955 On ch=1 n=b2 v=0
492955 On ch=1 n=e5 v=0
492955 On ch=1 n=b4 v=0
492955 On ch=1 n=g4 v=0
492960 Tempo 750000
492960 On ch=1 n=b5 v=45
493200 On ch=1 n=e5 v=30
493200 On ch=1 n=g5 v=30
493440 On ch=1 n=g5 v=0
493440 On ch=1 n=e5 v=0
493440 On ch=1 n=b5 v=0
493440 On ch=1 n=b5 v=45
493440 On ch=1 n=d#5 v=30
493440 On ch=1 n=f#5 v=30
493680 On ch=1 n=f#5 v=0
493680 On ch=1 n=d#5 v=0
493680 On ch=1 n=d5 v=30
493680 On ch=1 n=f5 v=30
493800 On ch=1 n=b5 v=0
493800 On ch=1 n=b5 v=45
493915 On ch=1 n=b5 v=0
493920 On ch=1 n=f5 v=0
493920 On ch=1 n=d5 v=0
493920 On ch=1 n=b5 v=45
493920 On ch=1 n=c#5 v=30
493920 On ch=1 n=e5 v=30
494160 On ch=1 n=b5 v=0
494160 On ch=1 n=a#5 v=45
494400 On ch=1 n=e6 v=45
494640 On ch=1 n=e6 v=0
494640 On ch=1 n=a#5 v=0
494640 On ch=1 n=e5 v=0
494640 On ch=1 n=c#5 v=0
494640 On ch=1 n=d#6 v=45
494640 On ch=1 n=a5 v=30
494640 On ch=1 n=c5 v=30
494640 On ch=1 n=d#5 v=30
494880 On ch=1 n=d#5 v=0
494880 On ch=1 n=c5 v=0
494880 On ch=1 n=d#6 v=0
494880 On ch=1 n=d6 v=45
494880 On ch=1 n=b4 v=30
494880 On ch=1 n=d5 v=30
495120 On ch=1 n=d6 v=0
495120 On ch=1 n=a5 v=0
495120 On ch=1 n=g5 v=45
495360 On ch=1 n=g5 v=0
495360 On ch=1 n=d5 v=0
495360 On ch=1 n=b4 v=0
495360 On ch=1 n=c6 v=45
495360 On ch=1 n=f#5 v=30
495360 On ch=1 n=a4 v=30
495360 On ch=1 n=d5 v=30
495600 On ch=1 n=f#5 v=0
495600 On ch=1 n=g5 v=30
495720 On ch=1 n=d5 v=0
495720 On ch=1 n=a4 v=0
495720 On ch=1 n=c6 v=0
495720 On ch=1 n=b5 v=45
495720 On ch=1 n=g4 v=30
495720 On ch=1 n=d5 v=30
495835 On ch=1 n=g5 v=0
495840 On ch=1 n=d5 v=0
495840 On ch=1 n=g4 v=0
495840 On ch=1 n=b5 v=0
495840 On ch=1 n=g5 v=45
495840 On ch=1 n=b5 v=45
495840 On ch=1 n=d5 v=30
495840 On ch=1 n=g4 v=30
496075 On ch=1 n=g4 v=0
496080 On ch=1 n=b4 v=30
496315 On ch=1 n=b4 v=0
496320 On ch=1 n=d5 v=0
496320 On ch=1 n=b5 v=0
496320 On ch=1 n=g5 v=0
496320 On ch=1 n=f#5 v=45
496320 On ch=1 n=a5 v=45
496320 On ch=1 n=d5 v=30
496560 On ch=1 n=d4 v=30
496720 On ch=1 n=d5 v=0
496720 On ch=1 n=a5 v=0
496720 On ch=1 n=f#5 v=0
496800 On ch=1 n=d5 v=45
497040 On ch=1 n=b5 v=45
497040 On ch=1 n=d6 v=45
497040 On ch=1 n=g6 v=45
497200 On ch=1 n=d5 v=0
497280 On ch=1 n=g6 v=0
497280 On ch=1 n=d6 v=0
497280 On ch=1 n=b5 v=0
497280 On ch=1 n=a5 v=45
497280 On ch=1 n=d6 v=45
497280 On ch=1 n=f#6 v=45
497280 On ch=1 n=d5 v=45
497520 On ch=1 n=f#6 v=0
497520 On ch=1 n=d6 v=0
497520 On ch=1 n=a5 v=0
497520 On ch=1 n=g5 v=45
497520 On ch=1 n=c#6 v=45
497520 On ch=1 n=e6 v=45
497635 On ch=1 n=d5 v=0
497640 On ch=1 n=d4 v=0
497640 On ch=1 n=d5 v=45
497755 On ch=1 n=d5 v=0
497760 On ch=1 n=e6 v=0
497760 On ch=1 n=c#6 v=0
497760 On ch=1 n=g5 v=0
497760 Tempo 750000
497760 On ch=1 n=f#5 v=45
497760 On ch=1 n=a5 v=45
497760 On ch=1 n=d6 v=45
497760 On ch=1 n=d5 v=45
497855 Tempo 769230
497950 Tempo 789473
498000 On ch=1 n=d5 v=0
498000 On ch=1 n=c5 v=45
498047 Tempo 810810
498142 Tempo 833333
498240 On ch=1 n=c5 v=0
498240 Tempo 857142
498240 On ch=1 n=e5 v=45
498335 Tempo 882352
498430 Tempo 909090
498480 On ch=1 n=e5 v=0
498480 On ch=1 n=d5 v=45
498527 Tempo 937500
498622 Tempo 967741
498720 On ch=1 n=d5 v=0
498720 Tempo 1000000
498720 On ch=1 n=c5 v=45
498815 Tempo 1034482
498910 Tempo 1071428
498960 On ch=1 n=c5 v=0
498960 On ch=1 n=d6 v=0
498960 On ch=1 n=a5 v=0
498960 On ch=1 n=f#5 v=0
498960 On ch=1 n=d6 v=45
498960 On ch=1 n=g5 v=30
498960 On ch=1 n=b4 v=45
498960 On ch=1 n=d5 v=45
499007 Tempo 1111111
499102 Tempo 1153846
499200 On ch=1 n=d5 v=0
499200 On ch=1 n=b4 v=0
499200 On ch=1 n=d6 v=0
499200 Tempo 1200000
499200 On ch=1 n=c6 v=45
499200 On ch=1 n=a4 v=45
499200 On ch=1 n=e5 v=45
499295 Tempo 1250000
499360 On ch=1 n=g5 v=0
499390 Tempo 1304347
499440 On ch=1 n=e5 v=0
499440 On ch=1 n=a4 v=0
499440 On ch=1 n=c6 v=0
499487 Tempo 1363636
499560 On ch=1 n=f#5 v=45
499560 On ch=1 n=c5 v=30
499560 On ch=1 n=d4 v=45
499560 On ch=1 n=a4 v=45
499582 Tempo 1428571
499675 On ch=1 n=c5 v=0
499675 On ch=1 n=f#5 v=0
499680 On ch=1 n=a4 v=0
499680 On ch=1 n=d4 v=0
499680 Tempo 1500000
499680 On ch=1 n=c5 v=45
499680 On ch=1 n=f#5 v=45
499680 On ch=1 n=a4 v=45
499680 On ch=1 n=d4 v=30
499775 Tempo 1578947
499870 Tempo 1666666
499967 Tempo 1764705
500062 Tempo 1875000
500160 On ch=1 n=a4 v=0
500160 On ch=1 n=f#5 v=0
500160 On ch=1 n=c5 v=0
500160 Tempo 2000000
500160 On ch=1 n=b4 v=45
500160 On ch=1 n=g5 v=45
500160 On ch=1 n=g3 v=45
500520 On ch=1 n=d4 v=0
500560 On ch=1 n=g3 v=0
500560 On ch=1 n=g5 v=0
500560 On ch=1 n=b4 v=0
501600 Meta Text "Kind im Einschlummern"
501600 Tempo 1304347
501600 Par ch=1 c=64 v=127
501600 On ch=1 n=b4 v=45
501600 On ch=1 n=e4 v=45
501600 On ch=1 n=g4 v=45
501840 On ch=1 n=b4 v=0
501840 On ch=1 n=c5 v=45
501960 On ch=1 n=c5 v=0
501960 On ch=1 n=b4 v=45
502000 On ch=1 n=g4 v=0
502000 On ch=1 n=e4 v=0
502020 Par ch=1 c=64 v=0
502080 On ch=1 n=b4 v=0
502080 Par ch=1 c=64 v=127
502080 On ch=1 n=b5 v=60
502080 On ch=1 n=b4 v=45
502080 On ch=1 n=d#4 v=45
502080 On ch=1 n=f#4 v=45
502200 On ch=1 n=b4 v=0
502200 On ch=1 n=f#5 v=45
502320 On ch=1 n=f#6 v=60
502435 On ch=1 n=f#6 v=0
502440 On ch=1 n=b5 v=60
502480 On ch=1 n=f#4 v=0
502480 On ch=1 n=d#4 v=0
502480 On ch=1 n=b5 v=0
502500 Par ch=1 c=64 v=0
502555 On ch=1 n=b5 v=0
502555 On ch=1 n=f#5 v=0
502560 Par ch=1 c=64 v=127
502560 On ch=1 n=b5 v=60
502560 On ch=1 n=b4 v=45
502560 On ch=1 n=e4 v=45
502560 On ch=1 n=g4 v=45
502680 On ch=1 n=g6 v=60
502800 On ch=1 n=b4 v=0
502800 On ch=1 n=c5 v=45
502920 On ch=1 n=c5 v=0
502920 On ch=1 n=b4 v=45
502960 On ch=1 n=g4 v=0
502960 On ch=1 n=e4 v=0
502960 On ch=1 n=b5 v=0
502980 Par ch=1 c=64 v=0
503035 On ch=1 n=g6 v=0
503040 On ch=1 n=b4 v=0
503040 Par ch=1 c=64 v=127
503040 On ch=1 n=b5 v=60
503040 On ch=1 n=b4 v=45
503040 On ch=1 n=d#4 v=45
503040 On ch=1 n=f#4 v=45
503160 On ch=1 n=b4 v=0
503160 On ch=1 n=f#5 v=45
503280 On ch=1 n=f#6 v=60
503395 On ch=1 n=f#6 v=0
503400 On ch=1 n=b5 v=60
503440 On ch=1 n=f#4 v=0
503440 On ch=1 n=d#4 v=0
503440 On ch=1 n=b5 v=0
503460 Par ch=1 c=64 v=0
503515 On ch=1 n=b5 v=0
503515 On ch=1 n=f#5 v=0
503520 Par ch=1 c=64 v=127
503520 On ch=1 n=b5 v=60
503520 On ch=1 n=b4 v=45
503520 On ch=1 n=e4 v=45
503520 On ch=1 n=g4 v=45
503640 On ch=1 n=g6 v=60
503760 On ch=1 n=b4 v=0
503760 On ch=1 n=c5 v=45
503880 On ch=1 n=c5 v=0
503880 On ch=1 n=b4 v=44
503920 On ch=1 n=g4 v=0
503920 On ch=1 n=e4 v=0
503920 On ch=1 n=b5 v=0
503940 Par ch=1 c=64 v=0
503995 On ch=1 n=g6 v=0
504000 On ch=1 n=b4 v=0
504000 Par ch=1 c=64 v=127
504000 On ch=1 n=b5 v=60
504000 On ch=1 n=b4 v=43
504000 On ch=1 n=d4 v=45
504000 On ch=1 n=f#4 v=45
504120 On ch=1 n=b4 v=0
504120 On ch=1 n=f#5 v=42
504240 On ch=1 n=f#6 v=58
504355 On ch=1 n=f#6 v=0
504360 On ch=1 n=b5 v=57
504400 On ch=1 n=f#4 v=0
504400 On ch=1 n=d4 v=0
504400 On ch=1 n=b5 v=0
504420 Par ch=1 c=64 v=0
504475 On ch=1 n=b5 v=0
504475 On ch=1 n=f#5 v=0
504480 Par ch=1 c=64 v=127
504480 On ch=1 n=b5 v=53
504480 On ch=1 n=b4 v=39
504480 On ch=1 n=c4 v=40
504480 On ch=1 n=e4 v=40
504600 On ch=1 n=e6 v=55
504720 On ch=1 n=b4 v=0
504720 On ch=1 n=c5 v=37
504840 On ch=1 n=c5 v=0
504840 On ch=1 n=b4 v=36
504880 On ch=1 n=e4 v=0
504880 On ch=1 n=c4 v=0
504880 On ch=1 n=b5 v=0
504900 Par ch=1 c=64 v=0
504955 On ch=1 n=e6 v=0
504960 On ch=1 n=b4 v=0
504960 Par ch=1 c=64 v=127
504960 On ch=1 n=b5 v=45
504960 On ch=1 n=b4 v=35
504960 On ch=1 n=b3 v=35
504960 On ch=1 n=d#4 v=35
505080 On ch=1 n=b4 v=0
505080 On ch=1 n=f#5 v=34
505200 On ch=1 n=f#6 v=48
505315 On ch=1 n=f#6 v=0
505320 On ch=1 n=b5 v=47
505360 On ch=1 n=d#4 v=0
505360 On ch=1 n=b3 v=0
505360 On ch=1 n=b5 v=0
505380 Par ch=1 c=64 v=0
505435 On ch=1 n=b5 v=0
505435 On ch=1 n=f#5 v=0
505440 Par ch=1 c=64 v=127
505440 On ch=1 n=b5 v=60
505440 On ch=1 n=b4 v=45
505440 On ch=1 n=e4 v=45
505440 On ch=1 n=g4 v=45
505560 On ch=1 n=b6 v=60
505680 On ch=1 n=b4 v=0
505680 On ch=1 n=c5 v=45
505800 On ch=1 n=c5 v=0
505800 On ch=1 n=b4 v=45
505840 On ch=1 n=g4 v=0
505840 On ch=1 n=e4 v=0
505840 On ch=1 n=b5 v=0
505860 Par ch=1 c=64 v=0
505915 On ch=1 n=b6 v=0
505920 On ch=1 n=b4 v=0
505920 Par ch=1 c=64 v=127
505920 On ch=1 n=b5 v=60
505920 On ch=1 n=b4 v=45
505920 On ch=1 n=d#4 v=45
505920 On ch=1 n=f#4 v=45
506040 On ch=1 n=b4 v=0
506040 On ch=1 n=f#5 v=45
506160 On ch=1 n=f#6 v=60
506275 On ch=1 n=f#6 v=0
506280 On ch=1 n=b5 v=60
506320 On ch=1 n=f#4 v=0
506320 On ch=1 n=d#4 v=0
506320 On ch=1 n=b5 v=0
506340 Par ch=1 c=64 v=0
506395 On ch=1 n=b5 v=0
506395 On ch=1 n=f#5 v=0
506400 Par ch=1 c=64 v=127
506400 On ch=1 n=b5 v=60
506400 On ch=1 n=b4 v=45
506400 On ch=1 n=e4 v=45
506400 On ch=1 n=g4 v=45
506520 On ch=1 n=g6 v=60
506640 On ch=1 n=b4 v=0
506640 On ch=1 n=c5 v=45
506760 On ch=1 n=c5 v=0
506760 On ch=1 n=b4 v=45
506800 On ch=1 n=g4 v=0
506800 On ch=1 n=e4 v=0
506800 On ch=1 n=b5 v=0
506820 Par ch=1 c=64 v=0
506875 On ch=1 n=g6 v=0
506880 On ch=1 n=b4 v=0
506880 Par ch=1 c=64 v=127
506880 On ch=1 n=b5 v=60
506880 On ch=1 n=b4 v=45
506880 On ch=1 n=d#4 v=45
506880 On ch=1 n=f#4 v=45
507000 On ch=1 n=b4 v=0
507000 On ch=1 n=f#5 v=45
507120 On ch=1 n=f#6 v=60
507235 On ch=1 n=f#6 v=0
507240 On ch=1 n=b5 v=60
507280 On ch=1 n=f#4 v=0
507280 On ch=1 n=d#4 v=0
507280 On ch=1 n=b5 v=0
507300 Par ch=1 c=64 v=0
507355 On ch=1 n=b5 v=0
507355 On ch=1 n=f#5 v=0
507360 Par ch=1 c=64 v=127
507360 On ch=1 n=b5 v=60
507360 On ch=1 n=b4 v=45
507360 On ch=1 n=e4 v=45
507360 On ch=1 n=g4 v=45
507480 On ch=1 n=g6 v=60
507600 On ch=1 n=b4 v=0
507600 On ch=1 n=c5 v=45
507720 On ch=1 n=c5 v=0
507720 On ch=1 n=b4 v=44
507760 On ch=1 n=g4 v=0
507760 On ch=1 n=e4 v=0
507760 On ch=1 n=b5 v=0
507780 Par ch=1 c=64 v=0
507835 On ch=1 n=g6 v=0
507840 On ch=1 n=b4 v=0
507840 Par ch=1 c=64 v=127
507840 On ch=1 n=b5 v=60
507840 On ch=1 n=b4 v=43
507840 On ch=1 n=d4 v=45
507840 On ch=1 n=f#4 v=45
507960 On ch=1 n=b4 v=0
507960 On ch=1 n=f#5 v=42
508080 On ch=1 n=f#6 v=58
508195 On ch=1 n=f#6 v=0
508200 On ch=1 n=b5 v=57
508240 On ch=1 n=f#4 v=0
508240 On ch=1 n=d4 v=0
508240 On ch=1 n=b5 v=0
508260 Par ch=1 c=64 v=0
508315 On ch=1 n=b5 v=0
508315 On ch=1 n=f#5 v=0
508320 Tempo 1304347
508320 Par ch=1 c=64 v=127
508320 On ch=1 n=b5 v=53
508320 On ch=1 n=b4 v=39
508320 On ch=1 n=c4 v=38
508320 On ch=1 n=e4 v=38
508440 Tempo 1363636
508440 On ch=1 n=e6 v=55
508560 On ch=1 n=b4 v=0
508560 Tempo 1428571
508560 On ch=1 n=c5 v=37
508680 On ch=1 n=c5 v=0
508680 Tempo 1500000
508680 On ch=1 n=b4 v=36
508720 On ch=1 n=e4 v=0
508720 On ch=1 n=c4 v=0
508720 On ch=1 n=b5 v=0
508740 Par ch=1 c=64 v=0
508795 On ch=1 n=e6 v=0
508800 On ch=1 n=b4 v=0
508800 Tempo 1578947
508800 Par ch=1 c=64 v=127
508800 On ch=1 n=b5 v=45
508800 On ch=1 n=b4 v=35
508800 On ch=1 n=b3 v=30
508800 On ch=1 n=d#4 v=30
508920 On ch=1 n=b4 v=0
508920 Tempo 1666666
508920 On ch=1 n=f#5 v=34
509040 Tempo 1764705
509040 On ch=1 n=f#6 v=48
509155 On ch=1 n=f#6 v=0
509160 Tempo 1875000
509160 On ch=1 n=b5 v=47
509200 On ch=1 n=d#4 v=0
509200 On ch=1 n=b3 v=0
509200 On ch=1 n=b5 v=0
509220 Par ch=1 c=64 v=0
509275 On ch=1 n=b5 v=0
509275 On ch=1 n=f#5 v=0
509280 Tempo 2000000
509280 Tempo 1304347
509280 KeySig 4 major
509280 Par ch=1 c=64 v=127
509280 On ch=1 n=b5 v=45
509280 On ch=1 n=e6 v=45
509280 On ch=1 n=g#6 v=45
509280 On ch=1 n=b6 v=45
509280 On ch=1 n=b3 v=30
509280 On ch=1 n=e3 v=30
509520 On ch=1 n=b3 v=0
509520 On ch=1 n=c#4 v=30
509640 On ch=1 n=c#4 v=0
509640 On ch=1 n=b3 v=30
509680 On ch=1 n=e3 v=0
509700 Par ch=1 c=64 v=0
509760 On ch=1 n=b3 v=0
509760 On ch=1 n=b6 v=0
509760 On ch=1 n=g#6 v=0
509760 On ch=1 n=e6 v=0
509760 On ch=1 n=b5 v=0
509760 Par ch=1 c=64 v=127
509760 On ch=1 n=b5 v=45
509760 On ch=1 n=a5 v=30
509760 On ch=1 n=d#6 v=30
509760 On ch=1 n=f#6 v=30
509760 On ch=1 n=b6 v=30
509760 On ch=1 n=b3 v=30
509760 On ch=1 n=e3 v=30
509880 On ch=1 n=b3 v=0
509880 On ch=1 n=b5 v=0
509880 On ch=1 n=g#6 v=45
509880 On ch=1 n=g#4 v=30
510120 On ch=1 n=g#4 v=0
510120 On ch=1 n=g#6 v=0
510120 On ch=1 n=f#6 v=45
510120 On ch=1 n=f#4 v=30
510160 On ch=1 n=e3 v=0
510180 Par ch=1 c=64 v=0
510240 On ch=1 n=f#4 v=0
510240 On ch=1 n=f#6 v=0
510240 On ch=1 n=b6 v=0
510240 On ch=1 n=f#6 v=0
510240 On ch=1 n=d#6 v=0
510240 On ch=1 n=a5 v=0
510240 Par ch=1 c=64 v=127
510240 On ch=1 n=e6 v=45
510240 On ch=1 n=g#5 v=30
510240 On ch=1 n=b5 v=30
510240 On ch=1 n=b3 v=30
510240 On ch=1 n=e3 v=30
510480 On ch=1 n=b3 v=0
510480 On ch=1 n=c#4 v=30
510600 On ch=1 n=c#4 v=0
510600 On ch=1 n=b3 v=30
510640 On ch=1 n=e3 v=0
510640 On ch=1 n=b5 v=0
510640 On ch=1 n=g#5 v=0
510640 On ch=1 n=e6 v=0
510660 Par ch=1 c=64 v=0
510720 On ch=1 n=b3 v=0
510720 Par ch=1 c=64 v=127
510720 On ch=1 n=e3 v=30
510720 On ch=1 n=b3 v=30
510720 On ch=1 n=b5 v=30
510720 On ch=1 n=f#5 v=30
510720 On ch=1 n=d#5 v=30
510720 On ch=1 n=a4 v=30
510720 On ch=1 n=b4 v=45
510840 On ch=1 n=b4 v=0
510840 On ch=1 n=b3 v=0
510840 On ch=1 n=g#4 v=30
510840 On ch=1 n=g#5 v=45
511080 On ch=1 n=g#5 v=0
511080 On ch=1 n=g#4 v=0
511080 On ch=1 n=f#4 v=30
511080 On ch=1 n=f#5 v=45
511120 On ch=1 n=a4 v=0
511120 On ch=1 n=d#5 v=0
511120 On ch=1 n=f#5 v=0
511120 On ch=1 n=b5 v=0
511120 On ch=1 n=e3 v=0
511140 Par ch=1 c=64 v=0
511195 On ch=1 n=f#4 v=0
511200 On ch=1 n=f#5 v=0
511200 Par ch=1 c=64 v=127
511200 On ch=1 n=e5 v=45
511200 On ch=1 n=b4 v=45
511200 On ch=1 n=g#4 v=45
511200 On ch=1 n=b3 v=30
511200 On ch=1 n=e3 v=30
511440 On ch=1 n=b3 v=0
511440 On ch=1 n=c#4 v=30
511560 On ch=1 n=c#4 v=0
511560 On ch=1 n=b3 v=30
511600 On ch=1 n=g#4 v=0
511600 On ch=1 n=b4 v=0
511600 On ch=1 n=e5 v=0
511620 Par ch=1 c=64 v=0
511680 On ch=1 n=b3 v=0
511680 On ch=1 n=e3 v=0
511680 Par ch=1 c=64 v=127
511680 On ch=1 n=b4 v=45
511680 On ch=1 n=d#5 v=45
511680 On ch=1 n=f#4 v=30
511680 On ch=1 n=b3 v=30
511680 On ch=1 n=f#3 v=30
511800 On ch=1 n=f#3 v=0
511800 On ch=1 n=f#4 v=0
511800 On ch=1 n=g#4 v=30
511800 On ch=1 n=g#3 v=30
512040 On ch=1 n=g#3 v=0
512040 On ch=1 n=g#4 v=0
512040 On ch=1 n=f#4 v=30
512040 On ch=1 n=f#3 v=30
512080 On ch=1 n=b3 v=0
512100 Par ch=1 c=64 v=0
512160 On ch=1 n=f#3 v=0
512160 On ch=1 n=f#4 v=0
512160 On ch=1 n=d#5 v=0
512160 On ch=1 n=b4 v=0
512160 Par ch=1 c=64 v=127
512160 On ch=1 n=c#5 v=45
512160 On ch=1 n=e4 v=30
512160 On ch=1 n=a#4 v=30
512160 On ch=1 n=f#3 v=30
512400 On ch=1 n=c#5 v=0
512400 On ch=1 n=d#5 v=45
512520 On ch=1 n=d#5 v=0
512520 On ch=1 n=c#5 v=45
512580 Par ch=1 c=64 v=0
512640 On ch=1 n=c#5 v=0
512640 On ch=1 n=f#3 v=0
512640 On ch=1 n=a#4 v=0
512640 On ch=1 n=e4 v=0
512640 Par ch=1 c=64 v=127
512640 On ch=1 n=b4 v=45
512640 On ch=1 n=d#4 v=30
512640 On ch=1 n=f#2 v=30
512640 On ch=1 n=f#3 v=30
512760 On ch=1 n=f#3 v=0
512760 On ch=1 n=f#2 v=0
512760 On ch=1 n=g#2 v=30
512760 On ch=1 n=g#3 v=30
513000 On ch=1 n=g#3 v=0
513000 On ch=1 n=g#2 v=0
513000 On ch=1 n=f#2 v=30
513000 On ch=1 n=f#3 v=30
513040 On ch=1 n=d#4 v=0
513040 On ch=1 n=b4 v=0
513060 Par ch=1 c=64 v=0
513115 On ch=1 n=f#3 v=0
513115 On ch=1 n=f#2 v=0
513120 Par ch=1 c=64 v=127
513120 On ch=1 n=b5 v=45
513120 On ch=1 n=e6 v=45
513120 On ch=1 n=g#6 v=45
513120 On ch=1 n=b6 v=45
513120 On ch=1 n=e2 v=30
513120 On ch=1 n=e3 v=30
513360 On ch=1 n=e3 v=0
513360 On ch=1 n=e2 v=0
513360 On ch=1 n=c#4 v=30
513480 On ch=1 n=c#4 v=0
513480 On ch=1 n=b3 v=30
513540 Par ch=1 c=64 v=0
513600 On ch=1 n=b3 v=0
513600 On ch=1 n=b6 v=0
513600 On ch=1 n=g#6 v=0
513600 On ch=1 n=e6 v=0
513600 On ch=1 n=b5 v=0
513600 Par ch=1 c=64 v=127
513600 On ch=1 n=b5 v=45
513600 On ch=1 n=a5 v=30
513600 On ch=1 n=d#6 v=30
513600 On ch=1 n=f#6 v=30
513600 On ch=1 n=b6 v=30
513600 On ch=1 n=b3 v=30
513600 On ch=1 n=e3 v=30
513720 On ch=1 n=b3 v=0
513720 On ch=1 n=b5 v=0
513720 On ch=1 n=g#6 v=45
513720 On ch=1 n=g#4 v=30
513960 On ch=1 n=g#4 v=0
513960 On ch=1 n=g#6 v=0
513960 On ch=1 n=f#6 v=45
513960 On ch=1 n=f#4 v=30
514020 Par ch=1 c=64 v=0
514080 On ch=1 n=f#4 v=0
514080 On ch=1 n=f#6 v=0
514080 On ch=1 n=e3 v=0
514080 On ch=1 n=b6 v=0
514080 On ch=1 n=f#6 v=0
514080 On ch=1 n=d#6 v=0
514080 On ch=1 n=a5 v=0
514080 Par ch=1 c=64 v=127
514080 On ch=1 n=e6 v=45
514080 On ch=1 n=g#5 v=30
514080 On ch=1 n=b5 v=30
514080 On ch=1 n=b3 v=30
514080 On ch=1 n=e3 v=30
514320 On ch=1 n=b3 v=0
514320 On ch=1 n=c#4 v=30
514440 On ch=1 n=c#4 v=0
514440 On ch=1 n=b3 v=30
514480 On ch=1 n=b5 v=0
514480 On ch=1 n=g#5 v=0
514480 On ch=1 n=e6 v=0
514500 Par ch=1 c=64 v=0
514560 On ch=1 n=b3 v=0
514560 On ch=1 n=e3 v=0
514560 Par ch=1 c=64 v=127
514560 On ch=1 n=b4 v=45
514560 On ch=1 n=a4 v=30
514560 On ch=1 n=d#5 v=30
514560 On ch=1 n=f#5 v=30
514560 On ch=1 n=b5 v=30
514560 On ch=1 n=b3 v=30
514560 On ch=1 n=e3 v=30
514680 On ch=1 n=b3 v=0
514680 On ch=1 n=b4 v=0
514680 On ch=1 n=g#5 v=45
514680 On ch=1 n=g#4 v=30
514920 On ch=1 n=g#4 v=0
514920 On ch=1 n=g#5 v=0
514920 On ch=1 n=f#5 v=45
514920 On ch=1 n=f#4 v=30
514960 On ch=1 n=e3 v=0
514960 On ch=1 n=b5 v=0
514960 On ch=1 n=f#5 v=0
514960 On ch=1 n=d#5 v=0
514960 On ch=1 n=a4 v=0
514980 Par ch=1 c=64 v=0
515035 On ch=1 n=f#4 v=0
515040 On ch=1 n=f#5 v=0
515040 Par ch=1 c=64 v=127
515040 On ch=1 n=g#4 v=45
515040 On ch=1 n=b4 v=45
515040 On ch=1 n=e5 v=45
515040 On ch=1 n=b3 v=30
515040 On ch=1 n=e3 v=30
515280 On ch=1 n=b3 v=0
515280 On ch=1 n=c#4 v=30
515400 On ch=1 n=c#4 v=0
515400 On ch=1 n=b3 v=30
515440 On ch=1 n=e5 v=0
515440 On ch=1 n=b4 v=0
515440 On ch=1 n=g#4 v=0
515460 Par ch=1 c=64 v=0
515520 On ch=1 n=b3 v=0
515520 On ch=1 n=e3 v=0
515520 Par ch=1 c=64 v=127
515520 On ch=1 n=b4 v=45
515520 On ch=1 n=d#5 v=45
515520 On ch=1 n=f#4 v=30
515520 On ch=1 n=b3 v=30
515520 On ch=1 n=f#3 v=30
515640 On ch=1 n=f#3 v=0
515640 On ch=1 n=f#4 v=0
515640 On ch=1 n=g#4 v=30
515640 On ch=1 n=g#3 v=30
515880 On ch=1 n=g#3 v=0
515880 On ch=1 n=g#4 v=0
515880 On ch=1 n=f#4 v=30
515880 On ch=1 n=f#3 v=30
515920 On ch=1 n=b3 v=0
515940 Par ch=1 c=64 v=0
516000 On ch=1 n=f#3 v=0
516000 On ch=1 n=f#4 v=0
516000 On ch=1 n=d#5 v=0
516000 On ch=1 n=b4 v=0
516000 Par ch=1 c=64 v=127
516000 On ch=1 n=c#5 v=45
516000 On ch=1 n=e4 v=30
516000 On ch=1 n=a#4 v=30
516000 On ch=1 n=f#3 v=30
516240 On ch=1 n=c#5 v=0
516240 On ch=1 n=d#5 v=45
516360 On ch=1 n=d#5 v=0
516360 On ch=1 n=c#5 v=45
516420 Par ch=1 c=64 v=0
516480 On ch=1 n=c#5 v=0
516480 On ch=1 n=f#3 v=0
516480 On ch=1 n=a#4 v=0
516480 On ch=1 n=e4 v=0
516480 Par ch=1 c=64 v=127
516480 On ch=1 n=b4 v=45
516480 On ch=1 n=d#4 v=30
516480 On ch=1 n=f#2 v=30
516480 On ch=1 n=f#3 v=30
516600 On ch=1 n=f#3 v=0
516600 On ch=1 n=f#2 v=0
516600 On ch=1 n=g#2 v=30
516600 On ch=1 n=g#3 v=30
516840 On ch=1 n=g#3 v=0
516840 On ch=1 n=g#2 v=0
516840 On ch=1 n=f#2 v=30
516840 On ch=1 n=f#3 v=30
516880 On ch=1 n=d#4 v=0
516880 On ch=1 n=b4 v=0
516900 Par ch=1 c=64 v=0
516955 On ch=1 n=f#3 v=0
516955 On ch=1 n=f#2 v=0
516960 Par ch=1 c=64 v=127
516960 On ch=1 n=f#4 v=45
516960 On ch=1 n=d5 v=45
516960 On ch=1 n=b2 v=45
517200 On ch=1 n=b2 v=0
517200 On ch=1 n=c#3 v=45
517320 On ch=1 n=c#3 v=0
517320 On ch=1 n=b2 v=45
517380 Par ch=1 c=64 v=0
517440 On ch=1 n=b2 v=0
517440 On ch=1 n=d5 v=0
517440 Par ch=1 c=64 v=127
517440 On ch=1 n=c#5 v=45
517440 On ch=1 n=b4 v=45
517440 On ch=1 n=f#2 v=45
517560 On ch=1 n=f#2 v=0
517560 On ch=1 n=f#3 v=45
517680 On ch=1 n=b4 v=0
517680 On ch=1 n=a4 v=45
517800 On ch=1 n=f#3 v=0
517800 On ch=1 n=f#2 v=45
517860 Par ch=1 c=64 v=0
517920 On ch=1 n=f#2 v=0
517920 On ch=1 n=c#5 v=0
517920 On ch=1 n=f#4 v=0
517920 Par ch=1 c=64 v=127
517920 On ch=1 n=b4 v=45
517920 On ch=1 n=e5 v=45
517920 On ch=1 n=e2 v=45
518160 On ch=1 n=e2 v=0
518160 On ch=1 n=a4 v=0
518160 On ch=1 n=g#4 v=45
518160 On ch=1 n=f#2 v=45
518280 On ch=1 n=f#2 v=0
518280 On ch=1 n=e2 v=45
518340 Par ch=1 c=64 v=0
518400 On ch=1 n=e2 v=0
518400 On ch=1 n=g#4 v=0
518400 On ch=1 n=b4 v=0
518400 Par ch=1 c=64 v=127
518400 On ch=1 n=c#5 v=45
518400 On ch=1 n=a4 v=45
518400 On ch=1 n=a2 v=45
518520 On ch=1 n=a2 v=0
518520 On ch=1 n=a3 v=45
518760 On ch=1 n=a3 v=0
518760 On ch=1 n=e5 v=0
518760 On ch=1 n=g#3 v=45
518800 On ch=1 n=a4 v=0
518800 On ch=1 n=c#5 v=0
518820 Par ch=1 c=64 v=0
518880 On ch=1 n=g#3 v=0
518880 Par ch=1 c=64 v=127
518880 On ch=1 n=a5 v=45
518880 On ch=1 n=c#5 v=45
518880 On ch=1 n=f#5 v=45
518880 On ch=1 n=f#3 v=45
519120 On ch=1 n=f#3 v=0
519120 On ch=1 n=g#3 v=45
519240 On ch=1 n=g#3 v=0
519240 On ch=1 n=f#3 v=45
519300 Par ch=1 c=64 v=0
519360 On ch=1 n=f#3 v=0
519360 On ch=1 n=a5 v=0
519360 Par ch=1 c=64 v=127
519360 On ch=1 n=g#5 v=45
519360 On ch=1 n=c#3 v=45
519480 On ch=1 n=c#3 v=0
519480 On ch=1 n=c#4 v=45
519600 On ch=1 n=f#5 v=0
519600 On ch=1 n=e5 v=45
519720 On ch=1 n=c#4 v=0
519720 On ch=1 n=c#3 v=45
519780 Par ch=1 c=64 v=0
519840 On ch=1 n=c#3 v=0
519840 Par ch=1 c=64 v=127
519840 On ch=1 n=a#5 v=45
519840 On ch=1 n=f#3 v=45
519960 On ch=1 n=f#3 v=0
519960 On ch=1 n=f#4 v=45
520080 On ch=1 n=g#5 v=0
520080 On ch=1 n=f#5 v=45
520200 On ch=1 n=f#4 v=0
520200 On ch=1 n=f#3 v=45
520260 Par ch=1 c=64 v=0
520320 On ch=1 n=f#3 v=0
520320 On ch=1 n=a#5 v=0
520320 On ch=1 n=e5 v=0
520320 On ch=1 n=c#5 v=0
520320 Par ch=1 c=64 v=127
520320 On ch=1 n=d#5 v=45
520320 On ch=1 n=b5 v=45
520320 On ch=1 n=b2 v=45
520440 On ch=1 n=b2 v=0
520440 On ch=1 n=b3 v=45
520680 On ch=1 n=b3 v=0
520680 On ch=1 n=b3 v=45
520720 On ch=1 n=b5 v=0
520720 On ch=1 n=d#5 v=0
520720 On ch=1 n=f#5 v=0
520740 Par ch=1 c=64 v=0
520795 On ch=1 n=b3 v=0
520800 Par ch=1 c=64 v=127
520800 On ch=1 n=b5 v=60
520800 On ch=1 n=e5 v=45
520800 On ch=1 n=b4 v=45
520800 On ch=1 n=c4 v=30
521040 On ch=1 n=b4 v=0
521040 On ch=1 n=c5 v=45
521160 On ch=1 n=c5 v=0
521160 On ch=1 n=b4 v=45
521220 Par ch=1 c=64 v=0
521280 On ch=1 n=b4 v=0
521280 On ch=1 n=e5 v=0
521280 On ch=1 n=b5 v=0
521280 Par ch=1 c=64 v=127
521280 On ch=1 n=a5 v=60
521280 On ch=1 n=e5 v=45
521280 On ch=1 n=b4 v=45
521400 On ch=1 n=b4 v=0
521400 On ch=1 n=d5 v=45
521640 On ch=1 n=d5 v=0
521640 On ch=1 n=c4 v=0
521640 On ch=1 n=c5 v=45
521700 Par ch=1 c=64 v=0
521760 On ch=1 n=c5 v=0
521760 On ch=1 n=e5 v=0
521760 On ch=1 n=a5 v=0
521760 Par ch=1 c=64 v=127
521760 On ch=1 n=f#5 v=60
521760 On ch=1 n=c5 v=45
521760 On ch=1 n=b4 v=45
521760 On ch=1 n=d4 v=30
522000 On ch=1 n=b4 v=0
522000 On ch=1 n=c5 v=0
522000 On ch=1 n=d5 v=45
522000 On ch=1 n=a4 v=45
522120 On ch=1 n=d5 v=0
522120 On ch=1 n=c5 v=45
522160 On ch=1 n=d4 v=0
522180 Par ch=1 c=64 v=0
522235 On ch=1 n=a4 v=0
522240 On ch=1 n=c5 v=0
522240 On ch=1 n=f#5 v=0
522240 Par ch=1 c=64 v=127
522240 On ch=1 n=g5 v=60
522240 On ch=1 n=b4 v=45
522240 On ch=1 n=g4 v=30
522360 On ch=1 n=b4 v=0
522360 On ch=1 n=e5 v=45
522360 On ch=1 n=c5 v=45
522600 On ch=1 n=c5 v=0
522600 On ch=1 n=e5 v=0
522600 On ch=1 n=d5 v=45
522600 On ch=1 n=b4 v=45
522640 On ch=1 n=g4 v=0
522640 On ch=1 n=g5 v=0
522660 Par ch=1 c=64 v=0
522715 On ch=1 n=d5 v=0
522720 On ch=1 n=b4 v=0
522720 Par ch=1 c=64 v=127
522720 On ch=1 n=b5 v=60
522720 On ch=1 n=e5 v=45
522720 On ch=1 n=b4 v=45
522720 On ch=1 n=c4 v=30
522960 On ch=1 n=b4 v=0
522960 On ch=1 n=c5 v=45
523080 On ch=1 n=c5 v=0
523080 On ch=1 n=b4 v=45
523140 Par ch=1 c=64 v=0
523200 On ch=1 n=b4 v=0
523200 On ch=1 n=e5 v=0
523200 On ch=1 n=b5 v=0
523200 Tempo 1304347
523200 Par ch=1 c=64 v=127
523200 On ch=1 n=a5 v=60
523200 On ch=1 n=e5 v=45
523200 On ch=1 n=b4 v=45
523320 On ch=1 n=b4 v=0
523320 On ch=1 n=d5 v=45
523380 Tempo 1363636
523560 On ch=1 n=d5 v=0
523560 On ch=1 n=c4 v=0
523560 Tempo 1428571
523560 On ch=1 n=c5 v=45
523620 Par ch=1 c=64 v=0
523680 On ch=1 n=c5 v=0
523680 On ch=1 n=e5 v=0
523680 On ch=1 n=a5 v=0
523680 Par ch=1 c=64 v=127
523680 On ch=1 n=f#5 v=60
523680 On ch=1 n=c5 v=45
523680 On ch=1 n=b4 v=45
523680 On ch=1 n=d4 v=30
523740 Tempo 1500000
523920 On ch=1 n=b4 v=0
523920 On ch=1 n=c5 v=0
523920 Tempo 1578947
523920 On ch=1 n=d5 v=45
523920 On ch=1 n=a4 v=45
524040 On ch=1 n=d5 v=0
524040 On ch=1 n=c5 v=45
524080 On ch=1 n=d4 v=0
524100 Tempo 1666666
524100 Par ch=1 c=64 v=0
524160 On ch=1 n=c5 v=0
524160 On ch=1 n=a4 v=0
524160 On ch=1 n=f#5 v=0
524160 Par ch=1 c=64 v=127
524160 On ch=1 n=b5 v=60
524160 On ch=1 n=b4 v=45
524160 On ch=1 n=g4 v=45
524160 On ch=1 n=d#4 v=30
524280 On ch=1 n=g4 v=0
524280 On ch=1 n=b4 v=0
524280 Tempo 1764705
524280 On ch=1 n=g5 v=45
524280 On ch=1 n=b4 v=45
524460 Tempo 1875000
524520 On ch=1 n=b4 v=0
524520 On ch=1 n=g5 v=0
524520 On ch=1 n=f#5 v=45
524520 On ch=1 n=a4 v=45
524560 On ch=1 n=d#4 v=0
524560 On ch=1 n=b5 v=0
524580 Par ch=1 c=64 v=0
524635 On ch=1 n=a4 v=0
524635 On ch=1 n=f#5 v=0
524640 Tempo 2000000
524640 Tempo 1304347
524640 KeySig 1 major
524640 Par ch=1 c=64 v=127
524640 On ch=1 n=e4 v=45
524640 On ch=1 n=g4 v=45
524880 On ch=1 n=c5 v=45
525000 On ch=1 n=c5 v=0
525000 On ch=1 n=b4 v=45
525040 On ch=1 n=g4 v=0
525040 On ch=1 n=e4 v=0
525060 Par ch=1 c=64 v=0
525120 On ch=1 n=b4 v=0
525120 Par ch=1 c=64 v=127
525120 On ch=1 n=b5 v=60
525120 On ch=1 n=b4 v=45
525120 On ch=1 n=d#4 v=45
525120 On ch=1 n=f#4 v=45
525240 On ch=1 n=b4 v=0
525240 On ch=1 n=f#5 v=45
525360 On ch=1 n=f#6 v=60
525475 On ch=1 n=f#6 v=0
525480 On ch=1 n=b5 v=60
525520 On ch=1 n=f#4 v=0
525520 On ch=1 n=d#4 v=0
525520 On ch=1 n=b5 v=0
525540 Par ch=1 c=64 v=0
525595 On ch=1 n=b5 v=0
525595 On ch=1 n=f#5 v=0
525600 Par ch=1 c=64 v=127
525600 On ch=1 n=b5 v=60
525600 On ch=1 n=b4 v=45
525600 On ch=1 n=e4 v=45
525600 On ch=1 n=g4 v=45
525720 On ch=1 n=g6 v=60
525840 On ch=1 n=b4 v=0
525840 On ch=1 n=c5 v=45
525960 On ch=1 n=c5 v=0
525960 On ch=1 n=b4 v=45
526000 On ch=1 n=g4 v=0
526000 On ch=1 n=e4 v=0
526000 On ch=1 n=b5 v=0
526020 Par ch=1 c=64 v=0
526075 On ch=1 n=g6 v=0
526080 On ch=1 n=b4 v=0
526080 Par ch=1 c=64 v=127
526080 On ch=1 n=b5 v=60
526080 On ch=1 n=b4 v=45
526080 On ch=1 n=d#4 v=45
526080 On ch=1 n=f#4 v=45
526200 On ch=1 n=b4 v=0
526200 On ch=1 n=f#5 v=45
526320 On ch=1 n=f#6 v=60
526435 On ch=1 n=f#6 v=0
526440 On ch=1 n=b5 v=60
526480 On ch=1 n=f#4 v=0
526480 On ch=1 n=d#4 v=0
526480 On ch=1 n=b5 v=0
526500 Par ch=1 c=64 v=0
526555 On ch=1 n=b5 v=0
526555 On ch=1 n=f#5 v=0
526560 Par ch=1 c=64 v=127
526560 On ch=1 n=b5 v=60
526560 On ch=1 n=b4 v=45
526560 On ch=1 n=e4 v=45
526560 On ch=1 n=g4 v=45
526680 On ch=1 n=b6 v=60
526800 On ch=1 n=b4 v=0
526800 On ch=1 n=c5 v=45
526920 On ch=1 n=c5 v=0
526920 On ch=1 n=b4 v=45
526960 On ch=1 n=g4 v=0
526960 On ch=1 n=e4 v=0
526960 On ch=1 n=b5 v=0
526980 Par ch=1 c=64 v=0
527035 On ch=1 n=b6 v=0
527040 On ch=1 n=b4 v=0
527040 Par ch=1 c=64 v=127
527040 On ch=1 n=c6 v=60
527040 On ch=1 n=c5 v=45
527040 On ch=1 n=a4 v=45
527160 On ch=1 n=c5 v=0
527160 On ch=1 n=b5 v=45
527280 On ch=1 n=b6 v=60
527395 On ch=1 n=b6 v=0
527400 On ch=1 n=c6 v=60
527440 On ch=1 n=a4 v=0
527440 On ch=1 n=c6 v=0
527460 Par ch=1 c=64 v=0
527515 On ch=1 n=c6 v=0
527515 On ch=1 n=b5 v=0
527520 Tempo 1304347
527520 Par ch=1 c=64 v=127
527520 On ch=1 n=c6 v=60
527520 On ch=1 n=c5 v=45
527520 On ch=1 n=d4 v=45
527520 On ch=1 n=f#4 v=45
527640 On ch=1 n=a6 v=60
527760 On ch=1 n=c5 v=0
527760 On ch=1 n=d5 v=45
527880 On ch=1 n=d5 v=0
527880 Tempo 1363636
527880 On ch=1 n=c5 v=45
527920 On ch=1 n=f#4 v=0
527920 On ch=1 n=d4 v=0
527920 On ch=1 n=c6 v=0
527940 Par ch=1 c=64 v=0
527995 On ch=1 n=a6 v=0
528000 On ch=1 n=c5 v=0
528000 Par ch=1 c=64 v=127
528000 On ch=1 n=b5 v=60
528000 On ch=1 n=b4 v=45
528000 On ch=1 n=g4 v=45
528120 On ch=1 n=b4 v=0
528120 On ch=1 n=a5 v=45
528240 Tempo 1428571
528240 On ch=1 n=a6 v=60
528355 On ch=1 n=a6 v=0
528360 On ch=1 n=b5 v=60
528400 On ch=1 n=g4 v=0
528400 On ch=1 n=b5 v=0
528420 Par ch=1 c=64 v=0
528475 On ch=1 n=b5 v=0
528475 On ch=1 n=a5 v=0
528480 Par ch=1 c=64 v=127
528480 On ch=1 n=b5 v=60
528480 On ch=1 n=b4 v=45
528480 On ch=1 n=c4 v=45
528480 On ch=1 n=e4 v=45
528600 Tempo 1500000
528600 On ch=1 n=g6 v=60
528720 On ch=1 n=b4 v=0
528720 On ch=1 n=c5 v=45
528840 On ch=1 n=c5 v=0
528840 On ch=1 n=b4 v=45
528880 On ch=1 n=e4 v=0
528880 On ch=1 n=c4 v=0
528880 On ch=1 n=b5 v=0
528900 Par ch=1 c=64 v=0
528955 On ch=1 n=g6 v=0
528960 On ch=1 n=b4 v=0
528960 Tempo 1578947
528960 Par ch=1 c=64 v=127
528960 On ch=1 n=a5 v=60
528960 On ch=1 n=a4 v=45
528960 On ch=1 n=f#4 v=45
529080 On ch=1 n=a4 v=0
529080 On ch=1 n=g5 v=45
529200 On ch=1 n=g6 v=60
529315 On ch=1 n=g6 v=0
529320 Tempo 1666666
529320 On ch=1 n=a5 v=60
529360 On ch=1 n=f#4 v=0
529360 On ch=1 n=a5 v=0
529380 Par ch=1 c=64 v=0
529435 On ch=1 n=a5 v=0
529435 On ch=1 n=g5 v=0
529440 Par ch=1 c=64 v=127
529440 On ch=1 n=a5 v=60
529440 On ch=1 n=a4 v=45
529440 On ch=1 n=b3 v=45
529440 On ch=1 n=d#4 v=45
529560 On ch=1 n=f#6 v=60
529680 On ch=1 n=a4 v=0
529680 Tempo 1764705
529680 On ch=1 n=b4 v=45
529800 On ch=1 n=b4 v=0
529800 On ch=1 n=a4 v=45
529840 On ch=1 n=d#4 v=0
529840 On ch=1 n=b3 v=0
529840 On ch=1 n=a5 v=0
529860 Par ch=1 c=64 v=0
529915 On ch=1 n=f#6 v=0
529920 Par ch=1 c=64 v=127
529920 On ch=1 n=e6 v=60
529920 On ch=1 n=a5 v=60
529920 On ch=1 n=c5 v=45
529920 On ch=1 n=e5 v=45
529920 On ch=1 n=e4 v=45
530040 Tempo 1875000
530340 Par ch=1 c=64 v=0
530400 Tempo 2000000
530400 Par ch=1 c=64 v=127
530820 Par ch=1 c=64 v=0
530880 Par ch=1 c=64 v=127
531300 Par ch=1 c=64 v=0
531360 Par ch=1 c=64 v=127
531360 On ch=1 n=a3 v=45
531760 On ch=1 n=a3 v=0
531760 On ch=1 n=e4 v=0
531760 On ch=1 n=e5 v=0
531760 On ch=1 n=c5 v=0
531760 On ch=1 n=a5 v=0
531760 On ch=1 n=e6 v=0
531760 On ch=1 n=a4 v=0
531780 Par ch=1 c=64 v=0
533280 Meta Text "Der Dichter spricht"
533280 Tempo 750000
533280 TimeSig 4/4 24 8
533280 On ch=1 n=d5 v=60
533280 On ch=1 n=f#5 v=60
533280 On ch=1 n=c4 v=45
533280 On ch=1 n=a4 v=45
534240 On ch=1 n=a4 v=0
534240 On ch=1 n=c4 v=0
534240 On ch=1 n=f#5 v=0
534240 On ch=1 n=d5 v=0
534240 On ch=1 n=d5 v=60
534240 On ch=1 n=g5 v=60
534240 On ch=1 n=b3 v=45
534240 On ch=1 n=g4 v=45
535200 On ch=1 n=g4 v=0
535200 On ch=1 n=b3 v=0
535200 On ch=1 n=g5 v=0
535200 On ch=1 n=d5 v=0
535200 On ch=1 n=d5 v=75
535200 On ch=1 n=c6 v=75
535200 On ch=1 n=a3 v=60
535200 On ch=1 n=f#4 v=60
536640 On ch=1 n=f#4 v=0
536640 On ch=1 n=a3 v=0
536640 On ch=1 n=c6 v=0
536640 On ch=1 n=d5 v=0
536640 On ch=1 n=d5 v=75
536640 On ch=1 n=b5 v=75
536640 On ch=1 n=b3 v=60
536640 On ch=1 n=g4 v=60
537120 On ch=1 n=g4 v=0
537120 On ch=1 n=b3 v=0
537120 On ch=1 n=b5 v=0
537120 On ch=1 n=d5 v=0
537120 On ch=1 n=a5 v=75
537120 On ch=1 n=e5 v=60
537120 On ch=1 n=c4 v=60
537120 On ch=1 n=g4 v=60
537840 On ch=1 n=a5 v=0
537840 Tempo 1200000
537840 On ch=1 n=b5 v=75
537900 On ch=1 n=b5 v=0
537900 On ch=1 n=a5 v=75
537960 On ch=1 n=a5 v=0
537960 On ch=1 n=e5 v=0
537960 On ch=1 n=g5 v=75
538020 On ch=1 n=g5 v=0
538020 On ch=1 n=a5 v=75
538080 On ch=1 n=a5 v=0
538080 On ch=1 n=g4 v=0
538080 On ch=1 n=c4 v=0
538080 Tempo 750000
538080 On ch=1 n=b5 v=75
538080 On ch=1 n=e5 v=60
538080 On ch=1 n=c#4 v=60
538080 On ch=1 n=g4 v=60
538800 On ch=1 n=b5 v=0
538800 On ch=1 n=g5 v=75
538920 On ch=1 n=e5 v=0
539040 On ch=1 n=g5 v=0
539040 On ch=1 n=g4 v=0
539040 On ch=1 n=c#4 v=0
539040 On ch=1 n=b5 v=75
539040 On ch=1 n=d5 v=60
539040 On ch=1 n=g4 v=60
539040 On ch=1 n=d4 v=60
540000 On ch=1 n=g4 v=0
540000 On ch=1 n=b5 v=0
540000 On ch=1 n=a5 v=75
540000 On ch=1 n=f#4 v=60
540840 On ch=1 n=f#4 v=0
540840 On ch=1 n=a5 v=0
540840 On ch=1 n=d4 v=0
540840 On ch=1 n=d5 v=0
540960 On ch=1 n=f5 v=60
540960 On ch=1 n=g#5 v=60
540960 On ch=1 n=b4 v=45
540960 On ch=1 n=d4 v=45
541800 On ch=1 n=d4 v=0
541920 On ch=1 n=b4 v=0
541920 On ch=1 n=g#5 v=0
541920 On ch=1 n=f5 v=0
541920 On ch=1 n=e5 v=60
541920 On ch=1 n=a5 v=60
541920 On ch=1 n=a4 v=45
541920 On ch=1 n=c4 v=45
542760 On ch=1 n=c4 v=0
542880 On ch=1 n=a4 v=0
542880 On ch=1 n=a5 v=0
542880 On ch=1 n=e5 v=0
542880 On ch=1 n=f5 v=75
542880 On ch=1 n=d6 v=75
542880 On ch=1 n=g#4 v=60
542880 On ch=1 n=b3 v=60
543600 On ch=1 n=g#4 v=0
543600 Tempo 1200000
543600 On ch=1 n=a4 v=60
543660 On ch=1 n=a4 v=0
543660 On ch=1 n=g#4 v=60
543720 On ch=1 n=g#4 v=0
543720 On ch=1 n=b3 v=0
543720 On ch=1 n=g4 v=60
543780 On ch=1 n=g4 v=0
543780 On ch=1 n=g#4 v=60
543840 On ch=1 n=g#4 v=0
543840 On ch=1 n=d6 v=0
543840 On ch=1 n=f5 v=0
543840 Tempo 750000
543840 On ch=1 n=e5 v=75
543840 On ch=1 n=c4 v=60
543900 On ch=1 n=c6 v=75
544680 On ch=1 n=c4 v=0
544720 On ch=1 n=c6 v=0
544720 On ch=1 n=e5 v=0
545280 On ch=1 n=d5 v=45
545280 On ch=1 n=f5 v=45
545280 On ch=1 n=b5 v=45
545280 On ch=1 n=d4 v=30
546480 On ch=1 n=d4 v=0
546480 On ch=1 n=b5 v=0
546480 On ch=1 n=f5 v=0
546480 On ch=1 n=d5 v=0
546600 On ch=1 n=b4 v=45
546600 On ch=1 n=e5 v=45
546600 On ch=1 n=g#5 v=45
546600 On ch=1 n=e4 v=30
546715 On ch=1 n=e4 v=0
546715 On ch=1 n=g#5 v=0
546715 On ch=1 n=e5 v=0
546715 On ch=1 n=b4 v=0
546720 Tempo 1000000
546720 On ch=1 n=b4 v=45
546720 On ch=1 n=e5 v=45
546720 On ch=1 n=g#5 v=45
546720 On ch=1 n=e4 v=30
547680 On ch=1 n=e4 v=0
547680 On ch=1 n=g#5 v=0
547680 On ch=1 n=e5 v=0
547680 On ch=1 n=b4 v=0
547680 On ch=1 n=c5 v=45
547680 On ch=1 n=e5 v=45
547680 On ch=1 n=a5 v=45
547680 On ch=1 n=a3 v=30
548080 On ch=1 n=a3 v=0
548080 On ch=1 n=a5 v=0
548080 On ch=1 n=e5 v=0
548080 On ch=1 n=c5 v=0
548640 Tempo 857142
548640 Par ch=1 c=64 v=127
548640 On ch=1 n=f#5 v=60
548640 On ch=1 n=c4 v=45
548880 On ch=1 n=d5 v=45
549115 On ch=1 n=d5 v=0
549120 On ch=1 n=a4 v=45
549355 On ch=1 n=a4 v=0
549360 On ch=1 n=d4 v=45
549480 On ch=1 n=c4 v=0
549480 On ch=1 n=f#5 v=0
549540 Par ch=1 c=64 v=0
549595 On ch=1 n=d4 v=0
549600 Par ch=1 c=64 v=127
549600 On ch=1 n=g5 v=60
549600 On ch=1 n=b3 v=45
549840 On ch=1 n=d5 v=45
550075 On ch=1 n=d5 v=0
550080 On ch=1 n=g4 v=45
550315 On ch=1 n=g4 v=0
550320 On ch=1 n=d4 v=45
550440 On ch=1 n=b3 v=0
550440 On ch=1 n=g5 v=0
550500 Par ch=1 c=64 v=0
550555 On ch=1 n=d4 v=0
550560 Tempo 857142
550560 Par ch=1 c=64 v=127
550560 On ch=1 n=c6 v=60
550560 On ch=1 n=a3 v=45
550750 Tempo 882352
550800 On ch=1 n=d#5 v=45
550942 Tempo 909090
551040 On ch=1 n=f#4 v=45
551135 Tempo 937500
551280 On ch=1 n=c4 v=45
551327 Tempo 967741
551520 Tempo 1000000
551710 Tempo 1034482
551902 Tempo 1071428
552095 Tempo 1111111
552287 Tempo 1153846
552360 On ch=1 n=c4 v=0
552360 On ch=1 n=f#4 v=0
552360 On ch=1 n=d#5 v=0
552360 On ch=1 n=a3 v=0
552360 On ch=1 n=c6 v=0
552420 Par ch=1 c=64 v=0
552480 Tempo 1200000
552480 Tempo 857142
552480 Par ch=1 c=64 v=127
552480 On ch=1 n=d#5 v=60
552480 On ch=1 n=a3 v=45
552720 On ch=1 n=c5 v=45
552955 On ch=1 n=c5 v=0
552960 On ch=1 n=f#4 v=45
553195 On ch=1 n=f#4 v=0
553200 On ch=1 n=c4 v=45
553320 On ch=1 n=a3 v=0
553320 On ch=1 n=d#5 v=0
553380 Par ch=1 c=64 v=0
553435 On ch=1 n=c4 v=0
553440 Par ch=1 c=64 v=127
553440 On ch=1 n=e5 v=60
553440 On ch=1 n=g3 v=45
553680 On ch=1 n=b4 v=45
553915 On ch=1 n=b4 v=0
553920 On ch=1 n=e4 v=45
554155 On ch=1 n=e4 v=0
554160 On ch=1 n=b3 v=45
554280 On ch=1 n=g3 v=0
554280 On ch=1 n=e5 v=0
554340 Par ch=1 c=64 v=0
554395 On ch=1 n=b3 v=0
554400 Tempo 857142
554400 Par ch=1 c=64 v=127
554400 On ch=1 n=a5 v=60
554400 On ch=1 n=f#3 v=45
554590 Tempo 882352
554640 On ch=1 n=c5 v=45
554782 Tempo 909090
554880 On ch=1 n=d#4 v=45
554975 Tempo 937500
555120 On ch=1 n=a3 v=45
555167 Tempo 967741
555360 Tempo 1000000
555550 Tempo 1034482
555742 Tempo 1071428
555760 On ch=1 n=a3 v=0
555760 On ch=1 n=d#4 v=0
555760 On ch=1 n=c5 v=0
555760 On ch=1 n=f#3 v=0
555760 On ch=1 n=a5 v=0
555935 Tempo 1111111
556127 Tempo 1153846
556260 Par ch=1 c=64 v=0
556320 Tempo 1200000
556320 Tempo 600000
556480 On ch=1 n=a5 v=45
556640 On ch=1 n=a5 v=0
556640 On ch=1 n=b5 v=45
556800 On ch=1 n=b5 v=0
556800 On ch=1 n=c6 v=48
556960 On ch=1 n=c6 v=0
556960 On ch=1 n=b5 v=52
557120 On ch=1 n=b5 v=0
557120 On ch=1 n=a5 v=56
557280 On ch=1 n=a5 v=0
557280 On ch=1 n=f#6 v=60
558000 On ch=1 n=f#6 v=0
558000 On ch=1 n=e6 v=60
558240 On ch=1 n=e6 v=0
558240 Tempo 857142
558240 On ch=1 n=e6 v=60
558720 On ch=1 n=e6 v=0
558720 Tempo 1500000
558720 On ch=1 n=d#6 v=60
559480 On ch=1 n=d#6 v=0
559560 Tempo 750000
559560 On ch=1 n=d#6 v=60
559675 On ch=1 n=d#6 v=0
559680 On ch=1 n=d#6 v=60
559755 On ch=1 n=d#6 v=0
559760 On ch=1 n=e6 v=60
559835 On ch=1 n=e6 v=0
559840 On ch=1 n=d#6 v=60
559915 On ch=1 n=d#6 v=0
559920 On ch=1 n=d6 v=60
560035 On ch=1 n=d6 v=0
560040 On ch=1 n=d#6 v=60
560155 On ch=1 n=d#6 v=0
560160 On ch=1 n=e6 v=60
560160 On ch=1 n=a#4 v=45
560320 Tempo 500000
560320 On ch=1 n=e5 v=45
560475 On ch=1 n=e5 v=0
560480 On ch=1 n=f#5 v=48
560635 On ch=1 n=f#5 v=0
560640 On ch=1 n=g5 v=51
560795 On ch=1 n=g5 v=0
560800 On ch=1 n=f#5 v=54
560955 On ch=1 n=f#5 v=0
560960 On ch=1 n=e5 v=57
561115 On ch=1 n=e5 v=0
561120 Tempo 750000
561120 On ch=1 n=c#6 v=60
561480 On ch=1 n=a#4 v=0
561600 On ch=1 n=b4 v=45
561760 On ch=1 n=c#6 v=0
561840 On ch=1 n=b5 v=60
562000 On ch=1 n=b4 v=0
562075 On ch=1 n=b5 v=0
562080 Tempo 600000
562080 On ch=1 n=c#5 v=45
562140 On ch=1 n=e5 v=45
562200 On ch=1 n=b5 v=60
562235 On ch=1 n=e6 v=0
562240 On ch=1 n=e6 v=60
562395 On ch=1 n=e6 v=0
562400 On ch=1 n=f#6 v=60
562555 On ch=1 n=f#6 v=0
562555 On ch=1 n=b5 v=0
562560 Par ch=1 c=64 v=127
562560 On ch=1 n=g6 v=60
562560 On ch=1 n=a#5 v=60
562715 On ch=1 n=g6 v=0
562720 On ch=1 n=f#6 v=60
562875 On ch=1 n=f#6 v=0
562880 On ch=1 n=e6 v=60
562960 On ch=1 n=e5 v=0
562960 On ch=1 n=c#5 v=0
563035 On ch=1 n=e6 v=0
563040 Tempo 857142
563040 On ch=1 n=g7 v=60
563077 Tempo 882352
563115 Tempo 909090
563155 Tempo 937500
563192 Tempo 967741
563195 On ch=1 n=g7 v=0
563200 On ch=1 n=e7 v=58
563230 Tempo 1000000
563270 Tempo 1034482
563307 Tempo 1071428
563345 Tempo 1111111
563355 On ch=1 n=e7 v=0
563360 On ch=1 n=c#7 v=56
563385 Tempo 1153846
563422 Tempo 1200000
563460 Tempo 1250000
563500 Tempo 1304347
563515 On ch=1 n=c#7 v=0
563520 On ch=1 n=a#6 v=54
563537 Tempo 1363636
563577 Tempo 1428571
563615 Tempo 1500000
563652 Tempo 1578947
563675 On ch=1 n=a#6 v=0
563680 On ch=1 n=g6 v=51
563692 Tempo 1666666
563730 Tempo 1764705
563767 Tempo 1875000
563807 Tempo 2000000
563835 On ch=1 n=g6 v=0
563840 On ch=1 n=e6 v=48
563845 Tempo 2142857
563880 On ch=1 n=a#5 v=0
563882 Tempo 2307692
563922 Tempo 2500000
563960 Tempo 2727272
563995 On ch=1 n=e6 v=0
564000 Tempo 750000
564000 Par ch=1 c=64 v=0
564000 On ch=1 n=a4 v=45
564000 On ch=1 n=c4 v=45
564000 On ch=1 n=f#5 v=60
564000 On ch=1 n=d5 v=60
564960 On ch=1 n=d5 v=0
564960 On ch=1 n=f#5 v=0
564960 On ch=1 n=c4 v=0
564960 On ch=1 n=a4 v=0
564960 On ch=1 n=g4 v=45
564960 On ch=1 n=b3 v=45
564960 On ch=1 n=g5 v=60
564960 On ch=1 n=d5 v=60
565920 On ch=1 n=d5 v=0
565920 On ch=1 n=g5 v=0
565920 On ch=1 n=b3 v=0
565920 On ch=1 n=g4 v=0
565920 On ch=1 n=d5 v=75
565920 On ch=1 n=c6 v=75
565920 On ch=1 n=a3 v=60
565920 On ch=1 n=f#4 v=60
567360 On ch=1 n=f#4 v=0
567360 On ch=1 n=a3 v=0
567360 On ch=1 n=c6 v=0
567360 On ch=1 n=d5 v=0
567360 On ch=1 n=d5 v=75
567360 On ch=1 n=b5 v=75
567360 On ch=1 n=b3 v=60
567360 On ch=1 n=g4 v=60
567840 On ch=1 n=g4 v=0
567840 On ch=1 n=b3 v=0
567840 On ch=1 n=b5 v=0
567840 On ch=1 n=d5 v=0
567840 On ch=1 n=a5 v=75
567840 On ch=1 n=e5 v=60
567840 On ch=1 n=c4 v=60
567840 On ch=1 n=g4 v=60
568560 On ch=1 n=a5 v=0
568560 Tempo 1200000
568560 On ch=1 n=b5 v=60
568620 On ch=1 n=b5 v=0
568620 On ch=1 n=a5 v=60
568680 On ch=1 n=a5 v=0
568680 On ch=1 n=e5 v=0
568680 On ch=1 n=g5 v=60
568740 On ch=1 n=g5 v=0
568740 On ch=1 n=a5 v=60
568800 On ch=1 n=a5 v=0
568800 On ch=1 n=g4 v=0
568800 On ch=1 n=c4 v=0
568800 Tempo 750000
568800 On ch=1 n=b5 v=75
568800 On ch=1 n=e5 v=60
568800 On ch=1 n=c#4 v=60
568800 On ch=1 n=g4 v=60
569520 On ch=1 n=b5 v=0
569520 On ch=1 n=g5 v=75
569640 On ch=1 n=e5 v=0
569760 On ch=1 n=g5 v=0
569760 On ch=1 n=g4 v=0
569760 On ch=1 n=c#4 v=0
569760 On ch=1 n=b5 v=75
569760 On ch=1 n=d5 v=60
569760 On ch=1 n=g4 v=60
569760 On ch=1 n=d4 v=60
570720 On ch=1 n=g4 v=0
570720 On ch=1 n=b5 v=0
570720 On ch=1 n=a5 v=60
570720 On ch=1 n=f#4 v=45
571560 On ch=1 n=f#4 v=0
571560 On ch=1 n=a5 v=0
571560 On ch=1 n=d4 v=0
571560 On ch=1 n=d5 v=0
571680 On ch=1 n=f5 v=60
571680 On ch=1 n=g#5 v=60
571680 On ch=1 n=b4 v=45
571680 On ch=1 n=d4 v=45
572520 On ch=1 n=d4 v=0
572640 On ch=1 n=b4 v=0
572640 On ch=1 n=g#5 v=0
572640 On ch=1 n=f5 v=0
572640 On ch=1 n=e5 v=60
572640 On ch=1 n=a5 v=60
572640 On ch=1 n=a4 v=45
572640 On ch=1 n=c4 v=45
573480 On ch=1 n=c4 v=0
573600 On ch=1 n=a4 v=0
573600 On ch=1 n=a5 v=0
573600 On ch=1 n=e5 v=0
573600 On ch=1 n=f5 v=55
573600 On ch=1 n=d6 v=55
573600 On ch=1 n=g#4 v=60
573600 On ch=1 n=b3 v=60
574320 On ch=1 n=g#4 v=0
574320 Tempo 1200000
574320 On ch=1 n=a4 v=45
574380 On ch=1 n=a4 v=0
574380 On ch=1 n=g#4 v=45
574440 On ch=1 n=g#4 v=0
574440 On ch=1 n=b3 v=0
574440 On ch=1 n=g4 v=45
574500 On ch=1 n=g4 v=0
574500 On ch=1 n=g#4 v=45
574560 On ch=1 n=g#4 v=0
574560 On ch=1 n=d6 v=0
574560 On ch=1 n=f5 v=0
574560 Tempo 750000
574560 On ch=1 n=e5 v=50
574560 On ch=1 n=c4 v=60
574620 On ch=1 n=c6 v=50
575400 On ch=1 n=c4 v=0
575440 On ch=1 n=c6 v=0
575440 On ch=1 n=e5 v=0
576000 On ch=1 n=d5 v=45
576000 On ch=1 n=f5 v=45
576000 On ch=1 n=b5 v=45
576000 On ch=1 n=d4 v=30
577200 On ch=1 n=d4 v=0
577200 On ch=1 n=b5 v=0
577200 On ch=1 n=f5 v=0
577200 On ch=1 n=d5 v=0
577320 On ch=1 n=b4 v=45
577320 On ch=1 n=e5 v=45
577320 On ch=1 n=g#5 v=45
577320 On ch=1 n=e4 v=30
577435 On ch=1 n=e4 v=0
577435 On ch=1 n=g#5 v=0
577435 On ch=1 n=e5 v=0
577435 On ch=1 n=b4 v=0
577440 Tempo 1000000
577440 On ch=1 n=b4 v=45
577440 On ch=1 n=e5 v=45
577440 On ch=1 n=g#5 v=45
577440 On ch=1 n=e4 v=30
578400 On ch=1 n=e4 v=0
578400 On ch=1 n=g#5 v=0
578400 On ch=1 n=e5 v=0
578400 On ch=1 n=b4 v=0
578400 On ch=1 n=c5 v=45
578400 On ch=1 n=e5 v=45
578400 On ch=1 n=a5 v=45
578400 On ch=1 n=a3 v=30
578800 On ch=1 n=a3 v=0
578800 On ch=1 n=a5 v=0
578800 On ch=1 n=e5 v=0
578800 On ch=1 n=c5 v=0
579360 Tempo 1000000
579840 On ch=1 n=c5 v=45
579840 On ch=1 n=d#5 v=45
579840 On ch=1 n=a5 v=45
579840 On ch=1 n=c4 v=30
580127 Tempo 1034482
580895 Tempo 1071428
581040 On ch=1 n=c4 v=0
581040 On ch=1 n=a5 v=0
581040 On ch=1 n=d#5 v=0
581040 On ch=1 n=c5 v=0
581160 On ch=1 n=a4 v=45
581160 On ch=1 n=d5 v=45
581160 On ch=1 n=f#5 v=45
581160 On ch=1 n=d4 v=30
581275 On ch=1 n=d4 v=0
581275 On ch=1 n=f#5 v=0
581275 On ch=1 n=d5 v=0
581275 On ch=1 n=a4 v=0
581280 On ch=1 n=a4 v=45
581280 On ch=1 n=d5 v=45
581280 On ch=1 n=f#5 v=45
581280 On ch=1 n=d4 v=30
581662 Tempo 1111111
582240 On ch=1 n=d4 v=0
582240 On ch=1 n=f#5 v=0
582240 On ch=1 n=d5 v=0
582240 On ch=1 n=a4 v=0
582240 On ch=1 n=g4 v=45
582240 On ch=1 n=d5 v=45
582240 On ch=1 n=g5 v=45
582240 On ch=1 n=b3 v=30
582430 Tempo 1153846
582640 On ch=1 n=b3 v=0
582640 On ch=1 n=g5 v=0
582640 On ch=1 n=d5 v=0
582640 On ch=1 n=g4 v=0
583200 Tempo 1200000
583680 On ch=1 n=g4 v=45
583680 On ch=1 n=c5 v=45
583680 On ch=1 n=e5 v=45
583680 On ch=1 n=c4 v=30
583967 Tempo 1250000
584735 Tempo 1304347
585040 On ch=1 n=c4 v=0
585040 On ch=1 n=e5 v=0
585040 On ch=1 n=c5 v=0
585040 On ch=1 n=g4 v=0
585502 Tempo 1363636
585600 On ch=1 n=f#4 v=30
585600 On ch=1 n=a4 v=30
585600 On ch=1 n=d5 v=30
585600 On ch=1 n=d3 v=30
585600 On ch=1 n=c4 v=30
586270 Tempo 1428571
586960 On ch=1 n=c4 v=0
586960 On ch=1 n=d3 v=0
586960 On ch=1 n=d5 v=0
586960 On ch=1 n=a4 v=0
586960 On ch=1 n=f#4 v=0
587040 Tempo 1500000
587040 On ch=1 n=g4 v=30
587040 On ch=1 n=d5 v=30
587040 On ch=1 n=g2 v=30
587040 On ch=1 n=b3 v=30
588840 On ch=1 n=b3 v=0
588840 On ch=1 n=g2 v=0
588840 On ch=1 n=d5 v=0
588840 On ch=1 n=g4 v=0
588840 Meta TrkEnd
TrkEnd
