MFile 1 2 120
MTrk
0 TimeSig 4/4 24 8
0 Tempo 600000
0 Meta TrkEnd
TrkEnd
MTrk
0 Meta Text "piano     "
192 On ch=1 n=b5 v=29
262 Par ch=1 c=64 v=127
317 On ch=1 n=e5 v=28
319 On ch=1 n=g5 v=20
347 Off ch=1 n=b5 v=64
378 Off ch=1 n=e5 v=64
389 Off ch=1 n=g5 v=64
400 On ch=1 n=b5 v=36
403 On ch=1 n=d#5 v=26
404 On ch=1 n=f#5 v=27
411 Par ch=1 c=64 v=0
428 Par ch=1 c=64 v=127
452 Off ch=1 n=f#5 v=64
455 Off ch=1 n=d#5 v=64
474 On ch=1 n=d5 v=29
477 On ch=1 n=f5 v=26
490 Off ch=1 n=b5 v=64
502 Off ch=1 n=d5 v=64
506 On ch=1 n=b5 v=39
512 Off ch=1 n=f5 v=64
527 Off ch=1 n=b5 v=64
546 On ch=1 n=b5 v=43
549 On ch=1 n=c#5 v=26
554 Par ch=1 c=64 v=0
555 On ch=1 n=e5 v=28
584 Par ch=1 c=64 v=127
611 On ch=1 n=a#5 v=48
613 Off ch=1 n=b5 v=64
677 On ch=1 n=e6 v=64
683 Off ch=1 n=a#5 v=64
697 Off ch=1 n=c#5 v=64
703 Off ch=1 n=e5 v=64
744 Par ch=1 c=64 v=0
746 On ch=1 n=d#6 v=57
749 On ch=1 n=a5 v=43
749 On ch=1 n=d#5 v=31
752 On ch=1 n=c5 v=31
755 Off ch=1 n=e6 v=64
764 Par ch=1 c=64 v=127
817 Off ch=1 n=d#6 v=64
822 Off ch=1 n=d#5 v=64
822 Off ch=1 n=c5 v=64
824 On ch=1 n=d6 v=57
826 Par ch=1 c=64 v=0
827 On ch=1 n=d5 v=31
828 On ch=1 n=b4 v=27
863 Par ch=1 c=64 v=127
876 Off ch=1 n=a5 v=64
905 On ch=1 n=g5 v=43
923 Off ch=1 n=b4 v=64
939 Off ch=1 n=d6 v=64
979 On ch=1 n=f#5 v=36
979 On ch=1 n=c6 v=45
980 Par ch=1 c=64 v=0
984 Off ch=1 n=g5 v=64
990 On ch=1 n=a4 v=13
1034 Par ch=1 c=64 v=127
1055 On ch=1 n=g5 v=26
1067 Off ch=1 n=f#5 v=64
1087 Off ch=1 n=a4 v=64
1089 Off ch=1 n=c6 v=64
1092 On ch=1 n=b5 v=48
1096 Off ch=1 n=d5 v=64
1099 Off ch=1 n=g5 v=64
1107 Off ch=1 n=b5 v=64
1137 On ch=1 n=b5 v=41
1141 Par ch=1 c=64 v=0
1144 On ch=1 n=g5 v=26
1146 On ch=1 n=d5 v=23
1147 On ch=1 n=g4 v=26
1178 Par ch=1 c=64 v=127
1201 On ch=1 n=b4 v=43
1206 Off ch=1 n=d5 v=64
1213 Off ch=1 n=g4 v=64
1264 Par ch=1 c=64 v=0
1267 Off ch=1 n=b4 v=64
1270 On ch=1 n=a5 v=31
1270 On ch=1 n=f#5 v=26
1274 On ch=1 n=d5 v=26
1274 Off ch=1 n=g5 v=64
1276 Off ch=1 n=b5 v=64
1345 Par ch=1 c=64 v=127
1353 Off ch=1 n=d5 v=64
1353 On ch=1 n=d4 v=26
1374 Off ch=1 n=f#5 v=64
1376 Off ch=1 n=a5 v=64
1433 Off ch=1 n=d4 v=64
1438 Par ch=1 c=64 v=0
1447 On ch=1 n=d5 v=33
1468 Par ch=1 c=64 v=127
1525 On ch=1 n=g6 v=43
1529 On ch=1 n=b5 v=27
1530 On ch=1 n=d6 v=31
1542 Off ch=1 n=d5 v=64
1549 Off ch=1 n=b5 v=64
1562 Off ch=1 n=d6 v=64
1592 Off ch=1 n=g6 v=64
1594 On ch=1 n=f#6 v=41
1598 On ch=1 n=d5 v=51
1598 Par ch=1 c=64 v=0
1600 On ch=1 n=d6 v=43
1603 On ch=1 n=a5 v=29
1617 Par ch=1 c=64 v=127
1627 Off ch=1 n=d6 v=64
1629 Off ch=1 n=f#6 v=64
1640 Off ch=1 n=a5 v=64
1665 Off ch=1 n=d5 v=64
1667 On ch=1 n=e6 v=45
1671 On ch=1 n=c#6 v=31
1675 On ch=1 n=g5 v=23
1686 Off ch=1 n=c#6 v=64
1690 Off ch=1 n=e6 v=64
1693 Off ch=1 n=g5 v=64
1701 On ch=1 n=d5 v=48
1712 Off ch=1 n=d5 v=64
1748 On ch=1 n=d5 v=41
1751 On ch=1 n=d6 v=29
1751 Par ch=1 c=64 v=0
1752 On ch=1 n=f#5 v=24
1753 On ch=1 n=a5 v=27
1794 Par ch=1 c=64 v=127
1830 On ch=1 n=c5 v=51
1831 Par ch=1 c=64 v=0
1831 Off ch=1 n=d5 v=64
1901 Off ch=1 n=c5 v=64
1902 On ch=1 n=e5 v=54
1967 On ch=1 n=d5 v=48
1977 Off ch=1 n=e5 v=64
2032 Par ch=1 c=64 v=127
2040 Off ch=1 n=d6 v=64
2042 On ch=1 n=c5 v=51
2048 Off ch=1 n=d5 v=64
2051 Off ch=1 n=f#5 v=64
2058 Off ch=1 n=a5 v=64
2065 Par ch=1 c=64 v=0
2119 On ch=1 n=d6 v=36
2119 On ch=1 n=d5 v=34
2121 Off ch=1 n=c5 v=64
2122 On ch=1 n=b4 v=39
2123 On ch=1 n=g5 v=29
2128 Par ch=1 c=64 v=127
2164 Off ch=1 n=d5 v=64
2173 Off ch=1 n=d6 v=64
2178 Off ch=1 n=g5 v=64
2208 On ch=1 n=c6 v=41
2208 Par ch=1 c=64 v=0
2211 On ch=1 n=g5 v=25
2213 On ch=1 n=d5 v=27
2214 On ch=1 n=a4 v=41
2223 Off ch=1 n=b4 v=64
2252 Par ch=1 c=64 v=127
2265 Off ch=1 n=g5 v=64
2290 On ch=1 n=g5 v=31
2316 Off ch=1 n=c6 v=64
2317 Off ch=1 n=d5 v=64
2328 On ch=1 n=b5 v=48
2334 Off ch=1 n=g5 v=64
2336 Off ch=1 n=a4 v=64
2350 Off ch=1 n=b5 v=64
2378 On ch=1 n=b5 v=34
2381 On ch=1 n=g4 v=29
2382 On ch=1 n=d5 v=25
2384 Par ch=1 c=64 v=0
2385 On ch=1 n=g5 v=25
2420 Par ch=1 c=64 v=127
2450 On ch=1 n=b4 v=28
2455 Off ch=1 n=d5 v=64
2460 Off ch=1 n=g4 v=64
2531 Off ch=1 n=b5 v=64
2531 Par ch=1 c=64 v=0
2532 On ch=1 n=a5 v=26
2532 Off ch=1 n=b4 v=64
2535 Off ch=1 n=g5 v=64
2537 On ch=1 n=d5 v=25
2537 On ch=1 n=f#5 v=24
2641 On ch=1 n=d4 v=21
2660 Par ch=1 c=64 v=127
2661 Off ch=1 n=d5 v=64
2670 Off ch=1 n=a5 v=64
2674 Off ch=1 n=f#5 v=64
2712 Off ch=1 n=d4 v=64
2799 On ch=1 n=b5 v=23
2813 Par ch=1 c=64 v=0
2880 Par ch=1 c=64 v=127
2897 On ch=1 n=g5 v=25
2899 On ch=1 n=e5 v=27
2911 Off ch=1 n=b5 v=64
2971 On ch=1 n=b5 v=39
2976 On ch=1 n=d#5 v=28
2977 On ch=1 n=f#5 v=33
2981 Off ch=1 n=g5 v=64
2985 Par ch=1 c=64 v=0
2991 Off ch=1 n=e5 v=64
3016 Par ch=1 c=64 v=127
3032 Off ch=1 n=f#5 v=64
3034 Off ch=1 n=d#5 v=64
3040 On ch=1 n=d5 v=39
3043 On ch=1 n=f5 v=34
3056 Off ch=1 n=b5 v=64
3068 On ch=1 n=b5 v=57
3076 Off ch=1 n=d5 v=64
3092 Off ch=1 n=b5 v=64
3095 Off ch=1 n=f5 v=64
3104 On ch=1 n=b5 v=51
3106 On ch=1 n=c#5 v=37
3106 On ch=1 n=e5 v=33
3118 Par ch=1 c=64 v=0
3148 Par ch=1 c=64 v=127
3171 On ch=1 n=a#5 v=61
3173 Par ch=1 c=64 v=0
3178 Off ch=1 n=b5 v=64
3204 Par ch=1 c=64 v=127
3234 On ch=1 n=e6 v=64
3244 Off ch=1 n=e5 v=64
3246 Off ch=1 n=a#5 v=64
3251 Off ch=1 n=c#5 v=64
3289 Par ch=1 c=64 v=0
3303 On ch=1 n=d#6 v=48
3306 On ch=1 n=d#5 v=31
3306 On ch=1 n=a5 v=45
3308 On ch=1 n=c5 v=29
3309 Off ch=1 n=e6 v=64
3310 Par ch=1 c=64 v=127
3351 Off ch=1 n=c5 v=64
3353 Off ch=1 n=d#5 v=64
3355 Off ch=1 n=d#6 v=64
3370 Off ch=1 n=a5 v=64
3378 On ch=1 n=d6 v=45
3383 On ch=1 n=d5 v=29
3385 Par ch=1 c=64 v=0
3385 On ch=1 n=b4 v=25
3433 Par ch=1 c=64 v=127
3454 On ch=1 n=g5 v=31
3480 Off ch=1 n=b4 v=64
3483 Off ch=1 n=d6 v=64
3524 On ch=1 n=f#5 v=29
3527 Off ch=1 n=g5 v=64
3528 On ch=1 n=c6 v=33
3528 On ch=1 n=a4 v=33
3533 Par ch=1 c=64 v=0
3576 Par ch=1 c=64 v=127
3600 On ch=1 n=g5 v=27
3606 Off ch=1 n=f#5 v=64
3620 Off ch=1 n=c6 v=64
3637 Off ch=1 n=a4 v=64
3638 On ch=1 n=b5 v=44
3643 Off ch=1 n=d5 v=64
3645 Off ch=1 n=g5 v=64
3652 Off ch=1 n=b5 v=64
3679 On ch=1 n=b5 v=36
3682 Par ch=1 c=64 v=0
3686 On ch=1 n=g4 v=28
3687 On ch=1 n=g5 v=26
3691 On ch=1 n=d5 v=21
3743 Par ch=1 c=64 v=127
3752 On ch=1 n=b4 v=27
3756 Off ch=1 n=d5 v=64
3764 Off ch=1 n=g4 v=64
3823 Par ch=1 c=64 v=0
3826 Off ch=1 n=b5 v=64
3831 Off ch=1 n=b4 v=64
3836 On ch=1 n=f#5 v=25
3839 On ch=1 n=d5 v=22
3840 On ch=1 n=a5 v=19
3841 Off ch=1 n=g5 v=64
3916 Par ch=1 c=64 v=127
3929 On ch=1 n=d4 v=24
3936 Off ch=1 n=d5 v=64
3949 Off ch=1 n=f#5 v=64
3950 Off ch=1 n=a5 v=64
4026 Off ch=1 n=d4 v=64
4028 On ch=1 n=d5 v=34
4034 Par ch=1 c=64 v=0
4058 Par ch=1 c=64 v=127
4116 On ch=1 n=g6 v=48
4117 On ch=1 n=b5 v=36
4120 On ch=1 n=d6 v=43
4160 Off ch=1 n=d5 v=64
4162 Off ch=1 n=b5 v=64
4171 Off ch=1 n=d6 v=64
4201 Off ch=1 n=g6 v=64
4203 On ch=1 n=f#6 v=48
4206 On ch=1 n=d6 v=41
4206 On ch=1 n=a5 v=45
4206 On ch=1 n=d5 v=43
4207 Par ch=1 c=64 v=0
4226 Par ch=1 c=64 v=127
4236 Off ch=1 n=d6 v=64
4238 Off ch=1 n=f#6 v=64
4241 Off ch=1 n=a5 v=64
4274 On ch=1 n=e6 v=51
4275 On ch=1 n=c#6 v=43
4277 On ch=1 n=g5 v=36
4287 Off ch=1 n=d5 v=64
4298 Off ch=1 n=g5 v=64
4300 Off ch=1 n=c#6 v=64
4308 Off ch=1 n=e6 v=64
4311 On ch=1 n=d5 v=48
4327 Off ch=1 n=d5 v=64
4353 Par ch=1 c=64 v=0
4354 On ch=1 n=d6 v=41
4359 On ch=1 n=d5 v=28
4360 On ch=1 n=a5 v=21
4368 On ch=1 n=f#5 v=26
4391 Par ch=1 c=64 v=127
4439 On ch=1 n=c5 v=45
4439 Par ch=1 c=64 v=0
4445 Off ch=1 n=d5 v=64
4509 On ch=1 n=e5 v=51
4513 Off ch=1 n=c5 v=64
4577 On ch=1 n=d5 v=51
4588 Off ch=1 n=e5 v=64
4656 On ch=1 n=c5 v=43
4666 Off ch=1 n=f#5 v=64
4667 Off ch=1 n=d5 v=64
4671 Off ch=1 n=d6 v=64
4681 Off ch=1 n=a5 v=64
4738 On ch=1 n=d6 v=34
4740 On ch=1 n=g5 v=29
4741 On ch=1 n=d5 v=31
4742 Off ch=1 n=c5 v=64
4743 On ch=1 n=b4 v=36
4746 Par ch=1 c=64 v=127
4789 Off ch=1 n=d6 v=64
4795 Off ch=1 n=d5 v=64
4817 Off ch=1 n=g5 v=64
4830 On ch=1 n=f#5 v=27
4832 On ch=1 n=c6 v=31
4835 Off ch=1 n=b4 v=64
4837 On ch=1 n=a4 v=28
4839 On ch=1 n=d5 v=26
4841 Par ch=1 c=64 v=0
4895 Par ch=1 c=64 v=127
4913 On ch=1 n=g5 v=28
4922 Off ch=1 n=f#5 v=64
4929 Off ch=1 n=a4 v=64
4933 Off ch=1 n=d5 v=64
4933 Off ch=1 n=c6 v=64
4956 Off ch=1 n=g5 v=64
4960 On ch=1 n=b5 v=36
4963 On ch=1 n=d5 v=27
4965 On ch=1 n=g4 v=29
4981 Off ch=1 n=g4 v=64
4983 Off ch=1 n=d5 v=64
4985 Off ch=1 n=b5 v=64
5038 On ch=1 n=b5 v=27
5044 On ch=1 n=d5 v=26
5045 On ch=1 n=g4 v=25
5047 Par ch=1 c=64 v=0
5048 On ch=1 n=g5 v=22
5096 Par ch=1 c=64 v=127
5124 On ch=1 n=b4 v=28
5130 Off ch=1 n=d5 v=64
5132 Off ch=1 n=g4 v=64
5152 Par ch=1 c=64 v=0
5217 Off ch=1 n=b4 v=64
5221 Off ch=1 n=b5 v=64
5224 On ch=1 n=d5 v=24
5226 On ch=1 n=a5 v=22
5227 Off ch=1 n=g5 v=64
5228 On ch=1 n=f#5 v=24
5350 On ch=1 n=d4 v=22
5363 Off ch=1 n=d5 v=64
5385 Par ch=1 c=64 v=127
5413 Off ch=1 n=a5 v=64
5421 Off ch=1 n=d4 v=64
5424 Off ch=1 n=f#5 v=64
5535 On ch=1 n=e4 v=25
5536 Par ch=1 c=64 v=0
5571 On ch=1 n=b4 v=25
5576 On ch=1 n=g5 v=20
5589 Off ch=1 n=b4 v=64
5590 Off ch=1 n=g5 v=64
5606 Off ch=1 n=e4 v=64
5610 On ch=1 n=f#4 v=45
5640 On ch=1 n=b4 v=31
5641 On ch=1 n=g4 v=53
5642 On ch=1 n=g5 v=26
5642 On ch=1 n=e5 v=24
5642 Off ch=1 n=f#4 v=64
5653 Off ch=1 n=e5 v=64
5654 Off ch=1 n=b4 v=64
5655 Off ch=1 n=g5 v=64
5672 Off ch=1 n=g4 v=64
5672 On ch=1 n=a4 v=61
5698 On ch=1 n=g5 v=31
5699 On ch=1 n=b4 v=34
5702 On ch=1 n=e5 v=27
5713 Off ch=1 n=b4 v=64
5713 Off ch=1 n=g5 v=64
5714 Off ch=1 n=e5 v=64
5725 Off ch=1 n=a4 v=64
5733 On ch=1 n=a3 v=45
5765 On ch=1 n=f#5 v=41
5767 On ch=1 n=e5 v=41
5767 On ch=1 n=c5 v=45
5778 Off ch=1 n=e5 v=64
5780 Off ch=1 n=c5 v=64
5783 Off ch=1 n=f#5 v=64
5788 Off ch=1 n=a3 v=64
5795 On ch=1 n=b3 v=51
5823 On ch=1 n=b4 v=41
5827 On ch=1 n=f#5 v=25
5828 On ch=1 n=d#5 v=28
5837 Off ch=1 n=b4 v=64
5839 Off ch=1 n=f#5 v=64
5842 Off ch=1 n=d#5 v=64
5858 Off ch=1 n=b3 v=64
5859 On ch=1 n=b2 v=61
5889 On ch=1 n=f#5 v=33
5892 On ch=1 n=b4 v=26
5904 Off ch=1 n=b4 v=64
5906 Off ch=1 n=f#5 v=64
5908 Off ch=1 n=b2 v=64
5920 On ch=1 n=e3 v=53
5953 On ch=1 n=b4 v=31
5954 On ch=1 n=g5 v=26
5964 Off ch=1 n=g5 v=64
5967 Off ch=1 n=b4 v=64
5984 Off ch=1 n=e3 v=64
5984 On ch=1 n=g3 v=48
5985 Par ch=1 c=64 v=127
6003 Off ch=1 n=g3 v=64
6020 On ch=1 n=g4 v=29
6021 On ch=1 n=d5 v=39
6022 On ch=1 n=b4 v=26
6036 Par ch=1 c=64 v=0
6040 Off ch=1 n=b4 v=64
6040 Off ch=1 n=g4 v=64
6042 Off ch=1 n=d5 v=64
6056 On ch=1 n=c4 v=57
6062 Par ch=1 c=64 v=127
6086 On ch=1 n=g4 v=27
6092 Off ch=1 n=c4 v=64
6093 On ch=1 n=c5 v=25
6094 On ch=1 n=e5 v=25
6106 Off ch=1 n=g4 v=64
6107 Off ch=1 n=c5 v=64
6108 Off ch=1 n=e5 v=64
6121 On ch=1 n=d4 v=57
6142 Off ch=1 n=d4 v=64
6147 On ch=1 n=e4 v=57
6150 On ch=1 n=g4 v=39
6151 On ch=1 n=e5 v=41
6151 On ch=1 n=c5 v=36
6163 Off ch=1 n=e4 v=64
6165 Off ch=1 n=c5 v=64
6166 Off ch=1 n=g4 v=64
6166 Off ch=1 n=e5 v=64
6178 On ch=1 n=f4 v=64
6185 Par ch=1 c=64 v=0
6209 On ch=1 n=g4 v=39
6211 On ch=1 n=e5 v=39
6212 On ch=1 n=c5 v=31
6227 Off ch=1 n=c5 v=64
6227 Off ch=1 n=e5 v=64
6228 Off ch=1 n=f4 v=64
6229 Off ch=1 n=g4 v=64
6241 On ch=1 n=f3 v=57
6269 On ch=1 n=c5 v=34
6271 On ch=1 n=g4 v=33
6286 Off ch=1 n=c5 v=64
6293 Off ch=1 n=g4 v=64
6303 Off ch=1 n=f3 v=64
6303 On ch=1 n=g3 v=53
6340 On ch=1 n=a4 v=23
6343 On ch=1 n=d5 v=15
6352 Off ch=1 n=a4 v=64
6354 Off ch=1 n=d5 v=64
6371 On ch=1 n=g2 v=51
6375 Off ch=1 n=g3 v=64
6404 On ch=1 n=a4 v=31
6421 Off ch=1 n=a4 v=64
6437 Off ch=1 n=g2 v=64
6438 On ch=1 n=c3 v=43
6481 On ch=1 n=e5 v=31
6481 On ch=1 n=g4 v=28
6483 On ch=1 n=c5 v=28
6523 Off ch=1 n=c3 v=64
6531 On ch=1 n=b4 v=34
6531 Off ch=1 n=c5 v=64
6540 On ch=1 n=b2 v=28
6558 Off ch=1 n=g4 v=64
6580 Par ch=1 c=64 v=127
6593 Off ch=1 n=b2 v=64
6605 Off ch=1 n=b4 v=64
6612 Off ch=1 n=e5 v=64
6697 On ch=1 n=e4 v=41
6715 Par ch=1 c=64 v=0
6753 On ch=1 n=g5 v=29
6753 On ch=1 n=e5 v=33
6753 On ch=1 n=b4 v=33
6767 Off ch=1 n=e5 v=64
6768 Off ch=1 n=g5 v=64
6769 Off ch=1 n=b4 v=64
6783 On ch=1 n=f#4 v=41
6792 Off ch=1 n=e4 v=64
6817 On ch=1 n=b4 v=33
6817 On ch=1 n=e5 v=33
6818 On ch=1 n=g5 v=29
6825 On ch=1 n=g4 v=41
6827 Off ch=1 n=f#4 v=64
6831 Off ch=1 n=e5 v=64
6833 Off ch=1 n=g5 v=64
6833 Off ch=1 n=b4 v=64
6855 On ch=1 n=a4 v=57
6856 Off ch=1 n=g4 v=64
6885 On ch=1 n=g5 v=43
6885 On ch=1 n=b4 v=43
6886 On ch=1 n=e5 v=45
6897 Off ch=1 n=b4 v=64
6897 Off ch=1 n=e5 v=64
6898 Off ch=1 n=g5 v=64
6914 Off ch=1 n=a4 v=64
6916 On ch=1 n=a3 v=53
6946 On ch=1 n=f#5 v=43
6947 On ch=1 n=e5 v=33
6948 On ch=1 n=c5 v=33
6958 Off ch=1 n=f#5 v=64
6960 Off ch=1 n=e5 v=64
6961 Off ch=1 n=c5 v=64
6974 On ch=1 n=b3 v=57
6975 Off ch=1 n=a3 v=64
7008 On ch=1 n=f#5 v=36
7008 On ch=1 n=b4 v=36
7012 On ch=1 n=d#5 v=31
7022 Off ch=1 n=f#5 v=64
7023 Off ch=1 n=b4 v=64
7024 Off ch=1 n=d#5 v=64
7040 Off ch=1 n=b3 v=64
7041 On ch=1 n=b2 v=57
7076 On ch=1 n=d#5 v=41
7076 On ch=1 n=b4 v=36
7078 On ch=1 n=f#5 v=28
7091 Off ch=1 n=b4 v=64
7091 Off ch=1 n=d#5 v=64
7091 Off ch=1 n=f#5 v=64
7097 Off ch=1 n=b2 v=64
7102 On ch=1 n=e3 v=57
7134 On ch=1 n=b4 v=33
7137 On ch=1 n=e5 v=26
7151 Off ch=1 n=e5 v=64
7151 Off ch=1 n=b4 v=64
7165 Off ch=1 n=e3 v=64
7168 On ch=1 n=g3 v=61
7182 Par ch=1 c=64 v=127
7195 Off ch=1 n=g3 v=64
7203 On ch=1 n=b4 v=41
7204 On ch=1 n=g4 v=41
7218 Off ch=1 n=g4 v=64
7219 Off ch=1 n=b4 v=64
7232 Par ch=1 c=64 v=0
7242 On ch=1 n=c4 v=61
7274 On ch=1 n=g4 v=27
7276 Par ch=1 c=64 v=127
7277 On ch=1 n=e5 v=33
7277 On ch=1 n=c5 v=28
7291 Off ch=1 n=g4 v=64
7291 Off ch=1 n=c5 v=64
7291 Off ch=1 n=e5 v=64
7295 Off ch=1 n=c4 v=64
7305 On ch=1 n=d4 v=61
7332 On ch=1 n=e4 v=66
7333 On ch=1 n=g4 v=45
7335 On ch=1 n=c5 v=43
7335 On ch=1 n=e5 v=45
7337 Off ch=1 n=d4 v=64
7347 Off ch=1 n=c5 v=64
7348 Par ch=1 c=64 v=0
7348 Off ch=1 n=e5 v=64
7349 Off ch=1 n=g4 v=64
7349 Off ch=1 n=e4 v=64
7363 On ch=1 n=f4 v=64
7392 On ch=1 n=g4 v=39
7394 On ch=1 n=c5 v=34
7395 On ch=1 n=e5 v=31
7409 Off ch=1 n=c5 v=64
7409 Off ch=1 n=e5 v=64
7414 Off ch=1 n=g4 v=64
7419 Off ch=1 n=f4 v=64
7421 On ch=1 n=f3 v=57
7450 On ch=1 n=c5 v=43
7451 On ch=1 n=g4 v=43
7463 Off ch=1 n=c5 v=64
7469 Off ch=1 n=g4 v=64
7485 Off ch=1 n=f3 v=64
7485 On ch=1 n=g3 v=61
7518 On ch=1 n=g4 v=31
7519 On ch=1 n=b4 v=31
7520 On ch=1 n=d5 v=28
7533 Off ch=1 n=b4 v=64
7536 Off ch=1 n=g4 v=64
7538 Off ch=1 n=d5 v=64
7561 Off ch=1 n=g3 v=64
7561 On ch=1 n=g2 v=36
7596 On ch=1 n=b4 v=25
7596 On ch=1 n=g4 v=27
7597 On ch=1 n=d5 v=27
7615 Off ch=1 n=b4 v=64
7616 Off ch=1 n=g4 v=64
7618 Off ch=1 n=d5 v=64
7630 Off ch=1 n=g2 v=64
7633 On ch=1 n=c3 v=31
7684 On ch=1 n=c5 v=24
7686 On ch=1 n=e5 v=24
7688 On ch=1 n=g4 v=22
7753 Off ch=1 n=g4 v=64
7754 On ch=1 n=b4 v=22
7756 Off ch=1 n=c3 v=64
7763 On ch=1 n=b2 v=19
7764 Off ch=1 n=c5 v=64
7849 Par ch=1 c=64 v=127
7860 Off ch=1 n=b4 v=64
7864 Off ch=1 n=e5 v=64
7871 Off ch=1 n=b2 v=64
7958 Par ch=1 c=64 v=0
7975 On ch=1 n=b5 v=24
8110 Par ch=1 c=64 v=127
8112 On ch=1 n=g5 v=23
8112 On ch=1 n=e5 v=23
8139 Off ch=1 n=b5 v=64
8202 On ch=1 n=b5 v=31
8205 On ch=1 n=f#5 v=27
8206 Off ch=1 n=g5 v=64
8206 On ch=1 n=d#5 v=27
8210 Par ch=1 c=64 v=0
8215 Off ch=1 n=e5 v=64
8240 Par ch=1 c=64 v=127
8261 Off ch=1 n=d#5 v=64
8274 Off ch=1 n=f#5 v=64
8278 On ch=1 n=d5 v=28
8282 Off ch=1 n=b5 v=64
8283 On ch=1 n=f5 v=20
8303 On ch=1 n=b5 v=53
8307 Off ch=1 n=d5 v=64
8320 Off ch=1 n=f5 v=64
8326 Off ch=1 n=b5 v=64
8339 On ch=1 n=b5 v=51
8339 On ch=1 n=e5 v=39
8340 On ch=1 n=c#5 v=33
8348 Par ch=1 c=64 v=0
8378 Par ch=1 c=64 v=127
8409 On ch=1 n=a#5 v=61
8417 Off ch=1 n=b5 v=64
8472 On ch=1 n=e6 v=64
8482 Off ch=1 n=e5 v=64
8483 Off ch=1 n=a#5 v=64
8487 Off ch=1 n=c#5 v=64
8531 Par ch=1 c=64 v=0
8540 On ch=1 n=d#5 v=41
8541 On ch=1 n=d#6 v=53
8542 On ch=1 n=c5 v=36
8543 On ch=1 n=a5 v=48
8550 Off ch=1 n=e6 v=64
8557 Par ch=1 c=64 v=127
8609 Off ch=1 n=d#5 v=64
8613 Par ch=1 c=64 v=0
8615 Off ch=1 n=d#6 v=64
8618 Off ch=1 n=c5 v=64
8619 On ch=1 n=d6 v=53
8625 On ch=1 n=d5 v=33
8627 On ch=1 n=b4 v=27
8640 Off ch=1 n=a5 v=64
8663 Par ch=1 c=64 v=127
8697 On ch=1 n=g5 v=43
8704 Off ch=1 n=b4 v=64
8712 Off ch=1 n=d6 v=64
8768 On ch=1 n=f#5 v=43
8770 On ch=1 n=c6 v=48
8772 Off ch=1 n=g5 v=64
8775 Par ch=1 c=64 v=0
8785 On ch=1 n=a4 v=17
8805 Par ch=1 c=64 v=127
8841 On ch=1 n=g5 v=39
8853 Off ch=1 n=f#5 v=64
8870 Off ch=1 n=c6 v=64
8878 On ch=1 n=b5 v=48
8882 Off ch=1 n=g5 v=64
8885 Off ch=1 n=a4 v=64
8888 Off ch=1 n=d5 v=64
8897 Off ch=1 n=b5 v=64
8917 Par ch=1 c=64 v=0
8921 On ch=1 n=b5 v=34
8923 On ch=1 n=g5 v=28
8926 On ch=1 n=d5 v=25
8927 On ch=1 n=g4 v=25
8949 Par ch=1 c=64 v=127
8992 Off ch=1 n=d5 v=64
8993 On ch=1 n=b4 v=31
8998 Par ch=1 c=64 v=0
9005 Off ch=1 n=g4 v=64
9011 Par ch=1 c=64 v=127
9036 Off ch=1 n=g5 v=64
9061 Off ch=1 n=b4 v=64
9071 On ch=1 n=a5 v=28
9072 Off ch=1 n=b5 v=64
9076 On ch=1 n=f#5 v=24
9078 On ch=1 n=d5 v=22
9085 Par ch=1 c=64 v=0
9128 Par ch=1 c=64 v=127
9157 Off ch=1 n=d5 v=64
9158 On ch=1 n=d4 v=23
9169 Off ch=1 n=f#5 v=64
9171 Off ch=1 n=a5 v=64
9244 Par ch=1 c=64 v=0
9255 On ch=1 n=d5 v=45
9274 Par ch=1 c=64 v=127
9316 Off ch=1 n=d4 v=64
9337 On ch=1 n=g6 v=43
9339 On ch=1 n=b5 v=33
9339 On ch=1 n=d6 v=34
9350 Off ch=1 n=d5 v=64
9357 Off ch=1 n=b5 v=64
9366 Off ch=1 n=d6 v=64
9398 Par ch=1 c=64 v=0
9401 On ch=1 n=f#6 v=43
9402 Off ch=1 n=g6 v=64
9404 On ch=1 n=d5 v=43
9407 On ch=1 n=a5 v=36
9408 On ch=1 n=d6 v=31
9412 Par ch=1 c=64 v=127
9421 Off ch=1 n=d6 v=64
9425 Off ch=1 n=f#6 v=64
9435 Off ch=1 n=a5 v=64
9471 On ch=1 n=e6 v=48
9475 On ch=1 n=c#6 v=33
9476 On ch=1 n=g5 v=34
9484 Off ch=1 n=d5 v=64
9488 Off ch=1 n=c#6 v=64
9492 Off ch=1 n=g5 v=64
9494 Off ch=1 n=e6 v=64
9507 On ch=1 n=d5 v=41
9520 Off ch=1 n=d5 v=64
9547 On ch=1 n=d5 v=43
9548 On ch=1 n=f#5 v=27
9549 On ch=1 n=d6 v=27
9551 On ch=1 n=a5 v=25
9551 Par ch=1 c=64 v=0
9612 Par ch=1 c=64 v=127
9636 On ch=1 n=c5 v=51
9639 Off ch=1 n=d5 v=64
9661 Par ch=1 c=64 v=0
9706 On ch=1 n=e5 v=57
9709 Off ch=1 n=c5 v=64
9772 On ch=1 n=d5 v=57
9778 Off ch=1 n=e5 v=64
9838 Par ch=1 c=64 v=127
9849 On ch=1 n=c5 v=57
9856 Off ch=1 n=d5 v=64
9863 Off ch=1 n=f#5 v=64
9867 Off ch=1 n=d6 v=64
9870 Off ch=1 n=a5 v=64
9912 Par ch=1 c=64 v=0
9925 On ch=1 n=d6 v=48
9927 On ch=1 n=d5 v=43
9928 On ch=1 n=g5 v=45
9928 Off ch=1 n=c5 v=64
9929 On ch=1 n=b4 v=61
9938 Par ch=1 c=64 v=127
9968 Off ch=1 n=d6 v=64
9969 Off ch=1 n=d5 v=64
9986 Off ch=1 n=g5 v=64
10000 Par ch=1 c=64 v=0
10006 On ch=1 n=c6 v=51
10007 On ch=1 n=f#5 v=53
10008 On ch=1 n=a4 v=45
10009 Off ch=1 n=b4 v=64
10010 On ch=1 n=d5 v=34
10044 Par ch=1 c=64 v=127
10078 On ch=1 n=g5 v=48
10094 Off ch=1 n=f#5 v=64
10098 Off ch=1 n=c6 v=64
10116 Off ch=1 n=d5 v=64
10116 Off ch=1 n=a4 v=64
10121 On ch=1 n=b5 v=57
10127 Off ch=1 n=g5 v=64
10139 Off ch=1 n=b5 v=64
10168 Par ch=1 c=64 v=0
10172 On ch=1 n=b5 v=41
10173 On ch=1 n=g5 v=41
10174 On ch=1 n=d5 v=25
10175 On ch=1 n=g4 v=28
10241 Par ch=1 c=64 v=127
10257 On ch=1 n=b4 v=27
10262 Off ch=1 n=d5 v=64
10262 Off ch=1 n=g4 v=64
10343 On ch=1 n=a5 v=28
10344 Off ch=1 n=g5 v=64
10344 Off ch=1 n=b4 v=64
10346 Par ch=1 c=64 v=0
10347 On ch=1 n=f#5 v=23
10350 Off ch=1 n=b5 v=64
10353 On ch=1 n=d5 v=28
10437 Par ch=1 c=64 v=127
10455 Off ch=1 n=f#5 v=64
10456 Off ch=1 n=a5 v=64
10457 On ch=1 n=d4 v=26
10472 Off ch=1 n=d5 v=64
10487 Off ch=1 n=d4 v=64
10590 Par ch=1 c=64 v=0
10605 On ch=1 n=b5 v=82
10606 On ch=1 n=g5 v=64
10606 On ch=1 n=d5 v=61
10607 On ch=1 n=g4 v=64
10609 Par ch=1 c=64 v=127
10624 Off ch=1 n=g5 v=64
10628 Off ch=1 n=g4 v=64
10630 Off ch=1 n=d5 v=64
10631 On ch=1 n=c6 v=62
10631 On ch=1 n=e5 v=62
10641 Par ch=1 c=64 v=0
10645 Off ch=1 n=b5 v=64
10646 On ch=1 n=a5 v=69
10646 On ch=1 n=c5 v=69
10659 Off ch=1 n=e5 v=64
10659 Off ch=1 n=c6 v=64
10670 On ch=1 n=b5 v=74
10670 On ch=1 n=d5 v=74
10680 Off ch=1 n=c5 v=64
10680 Off ch=1 n=a5 v=64
10696 Off ch=1 n=d5 v=64
10696 Off ch=1 n=b5 v=64
10697 On ch=1 n=g5 v=65
10697 On ch=1 n=b4 v=65
10711 Off ch=1 n=b4 v=64
10711 Off ch=1 n=g5 v=64
10742 On ch=1 n=e6 v=64
10742 On ch=1 n=b5 v=64
10743 On ch=1 n=g#5 v=69
10745 On ch=1 n=e5 v=69
10746 On ch=1 n=e4 v=69
10753 Off ch=1 n=b5 v=64
10755 Off ch=1 n=e5 v=64
10756 Off ch=1 n=g#5 v=64
10758 Off ch=1 n=e6 v=64
10762 Off ch=1 n=e4 v=64
10792 On ch=1 n=a3 v=69
10804 Off ch=1 n=a3 v=64
10836 On ch=1 n=c6 v=74
10836 On ch=1 n=a5 v=82
10836 On ch=1 n=e6 v=69
10836 On ch=1 n=e5 v=74
10836 On ch=1 n=e4 v=74
10849 Off ch=1 n=a5 v=64
10850 Off ch=1 n=e4 v=64
10850 Off ch=1 n=e5 v=64
10850 Off ch=1 n=c6 v=64
10850 Off ch=1 n=e6 v=64
10882 On ch=1 n=d4 v=68
10898 Off ch=1 n=d4 v=64
10926 On ch=1 n=d6 v=74
10927 On ch=1 n=c6 v=64
10927 On ch=1 n=a5 v=74
10927 On ch=1 n=d5 v=74
10927 On ch=1 n=f#4 v=74
10927 On ch=1 n=d4 v=74
10942 Off ch=1 n=d4 v=64
10942 Off ch=1 n=f#4 v=64
10942 Off ch=1 n=d5 v=64
10942 Off ch=1 n=a5 v=64
10943 Off ch=1 n=c6 v=64
10944 Off ch=1 n=d6 v=64
10974 On ch=1 n=g4 v=74
10975 On ch=1 n=g5 v=69
10975 On ch=1 n=b5 v=82
10980 Par ch=1 c=64 v=127
10992 Off ch=1 n=g5 v=64
10993 Off ch=1 n=g4 v=64
10998 On ch=1 n=c6 v=74
10998 On ch=1 n=e5 v=74
11005 Off ch=1 n=b5 v=64
11018 On ch=1 n=a5 v=69
11018 On ch=1 n=c5 v=69
11028 Off ch=1 n=e5 v=64
11028 Off ch=1 n=c6 v=64
11031 Par ch=1 c=64 v=0
11039 On ch=1 n=b5 v=69
11039 On ch=1 n=d5 v=69
11050 Off ch=1 n=c5 v=64
11050 Off ch=1 n=a5 v=64
11062 Off ch=1 n=d5 v=64
11062 Off ch=1 n=b5 v=64
11063 On ch=1 n=g5 v=82
11063 On ch=1 n=b4 v=82
11081 Off ch=1 n=b4 v=64
11081 Off ch=1 n=g5 v=64
11110 On ch=1 n=c#6 v=74
11110 On ch=1 n=f#5 v=64
11110 On ch=1 n=a#5 v=92
11111 On ch=1 n=f#6 v=69
11112 On ch=1 n=f#4 v=53
11123 Off ch=1 n=c#6 v=64
11124 Off ch=1 n=a#5 v=64
11126 Off ch=1 n=f#4 v=64
11126 Off ch=1 n=f#5 v=64
11128 Off ch=1 n=f#6 v=64
11155 On ch=1 n=b3 v=61
11164 Off ch=1 n=b3 v=64
11201 On ch=1 n=f#6 v=74
11201 On ch=1 n=d#6 v=82
11202 On ch=1 n=b5 v=64
11202 On ch=1 n=f#5 v=64
11202 On ch=1 n=f#4 v=64
11213 Off ch=1 n=f#4 v=64
11213 Off ch=1 n=f#5 v=64
11213 Off ch=1 n=b5 v=64
11217 Off ch=1 n=d#6 v=64
11221 Off ch=1 n=f#6 v=64
11261 On ch=1 n=a5 v=69
11261 On ch=1 n=d#5 v=69
11261 On ch=1 n=d#4 v=69
11262 On ch=1 n=d#6 v=61
11262 On ch=1 n=f#6 v=61
11302 Off ch=1 n=d#4 v=64
11302 Off ch=1 n=d#5 v=64
11302 Off ch=1 n=a5 v=64
11324 Off ch=1 n=d#6 v=64
11327 Off ch=1 n=f#6 v=64
11331 On ch=1 n=d6 v=43
11332 On ch=1 n=g6 v=45
11340 On ch=1 n=b5 v=28
11340 On ch=1 n=d5 v=28
11340 On ch=1 n=g4 v=28
11352 Par ch=1 c=64 v=127
11364 Par ch=1 c=64 v=0
11392 Off ch=1 n=g4 v=64
11392 Off ch=1 n=d5 v=64
11392 Off ch=1 n=b5 v=64
11401 Off ch=1 n=d6 v=64
11401 Off ch=1 n=g6 v=64
11423 On ch=1 n=e4 v=34
11424 On ch=1 n=g6 v=57
11439 Par ch=1 c=64 v=127
11471 On ch=1 n=e5 v=61
11471 On ch=1 n=g5 v=61
11471 On ch=1 n=b4 v=61
11479 Off ch=1 n=e4 v=64
11483 Off ch=1 n=b4 v=64
11483 Off ch=1 n=g5 v=64
11483 Off ch=1 n=e5 v=64
11500 Par ch=1 c=64 v=0
11523 On ch=1 n=a3 v=51
11525 On ch=1 n=f#6 v=57
11541 Off ch=1 n=g6 v=64
11568 Off ch=1 n=a3 v=64
11571 On ch=1 n=a4 v=53
11571 On ch=1 n=c5 v=53
11571 On ch=1 n=f#5 v=53
11579 Off ch=1 n=f#5 v=64
11579 Off ch=1 n=c5 v=64
11579 Off ch=1 n=a4 v=64
11608 Off ch=1 n=f#6 v=64
11619 On ch=1 n=d#6 v=57
11621 On ch=1 n=b3 v=43
11666 On ch=1 n=a4 v=41
11666 On ch=1 n=f#4 v=41
11666 On ch=1 n=d#5 v=41
11668 Off ch=1 n=b3 v=64
11680 Off ch=1 n=d#5 v=64
11680 Off ch=1 n=f#4 v=64
11680 Off ch=1 n=a4 v=64
11710 On ch=1 n=c4 v=39
11714 On ch=1 n=e6 v=53
11724 Off ch=1 n=d#6 v=64
11758 On ch=1 n=e5 v=36
11758 On ch=1 n=g4 v=36
11758 On ch=1 n=e4 v=36
11763 Off ch=1 n=c4 v=64
11770 Off ch=1 n=e4 v=64
11770 Off ch=1 n=g4 v=64
11770 Off ch=1 n=e5 v=64
11805 On ch=1 n=d6 v=43
11807 On ch=1 n=d4 v=31
11807 Off ch=1 n=e6 v=64
11857 On ch=1 n=d5 v=34
11857 On ch=1 n=f#4 v=34
11867 Off ch=1 n=d4 v=64
11870 Off ch=1 n=f#4 v=64
11870 Off ch=1 n=d5 v=64
11912 On ch=1 n=c6 v=34
11913 On ch=1 n=e4 v=29
11924 Off ch=1 n=d6 v=64
11967 On ch=1 n=c5 v=34
11967 On ch=1 n=g4 v=34
11973 Off ch=1 n=e4 v=64
11980 Off ch=1 n=g4 v=64
11980 Off ch=1 n=c5 v=64
12023 On ch=1 n=a#5 v=34
12026 On ch=1 n=f#4 v=26
12036 Off ch=1 n=c6 v=64
12093 Par ch=1 c=64 v=127
12096 On ch=1 n=e5 v=20
12097 On ch=1 n=c#5 v=26
12107 Off ch=1 n=f#4 v=64
12114 Off ch=1 n=c#5 v=64
12116 Off ch=1 n=e5 v=64
12184 On ch=1 n=b4 v=23
12186 On ch=1 n=b5 v=25
12187 Off ch=1 n=a#5 v=64
12187 Par ch=1 c=64 v=0
12333 On ch=1 n=f#5 v=15
12333 On ch=1 n=d#5 v=25
12370 Par ch=1 c=64 v=127
12407 Off ch=1 n=b5 v=64
12471 Off ch=1 n=b4 v=64
12485 Off ch=1 n=d#5 v=64
12502 Off ch=1 n=f#5 v=64
12594 On ch=1 n=b5 v=21
12700 On ch=1 n=e5 v=27
12702 On ch=1 n=g5 v=24
12703 Par ch=1 c=64 v=0
12740 Par ch=1 c=64 v=127
12759 Off ch=1 n=b5 v=64
12784 On ch=1 n=b5 v=43
12787 On ch=1 n=d#5 v=31
12788 On ch=1 n=f#5 v=29
12792 Off ch=1 n=g5 v=64
12795 Off ch=1 n=e5 v=64
12796 Par ch=1 c=64 v=0
12814 Par ch=1 c=64 v=127
12846 Off ch=1 n=f#5 v=64
12856 Off ch=1 n=d#5 v=64
12858 On ch=1 n=f5 v=36
12859 On ch=1 n=d5 v=34
12865 Off ch=1 n=b5 v=64
12888 On ch=1 n=b5 v=51
12893 Off ch=1 n=d5 v=64
12908 Off ch=1 n=b5 v=64
12923 On ch=1 n=e5 v=45
12925 On ch=1 n=b5 v=51
12926 Off ch=1 n=f5 v=64
12927 On ch=1 n=c#5 v=43
12934 Par ch=1 c=64 v=0
12958 Par ch=1 c=64 v=127
12990 On ch=1 n=a#5 v=61
12997 Off ch=1 n=b5 v=64
13047 On ch=1 n=e6 v=64
13059 Off ch=1 n=a#5 v=64
13065 Off ch=1 n=e5 v=64
13076 Off ch=1 n=c#5 v=64
13106 Par ch=1 c=64 v=0
13112 On ch=1 n=d#6 v=53
13116 On ch=1 n=a5 v=41
13117 On ch=1 n=d#5 v=28
13118 On ch=1 n=c5 v=28
13125 Off ch=1 n=e6 v=64
13127 Par ch=1 c=64 v=127
13179 Off ch=1 n=d#6 v=64
13185 Off ch=1 n=d#5 v=64
13187 Off ch=1 n=c5 v=64
13187 On ch=1 n=d6 v=39
13188 On ch=1 n=d5 v=28
13190 On ch=1 n=b4 v=23
13190 Par ch=1 c=64 v=0
13200 Off ch=1 n=a5 v=64
13232 Par ch=1 c=64 v=127
13258 On ch=1 n=g5 v=31
13267 Off ch=1 n=d6 v=64
13271 Off ch=1 n=b4 v=64
13324 Off ch=1 n=g5 v=64
13326 On ch=1 n=f#5 v=27
13327 On ch=1 n=c6 v=36
13328 On ch=1 n=a4 v=29
13332 Par ch=1 c=64 v=0
13363 Par ch=1 c=64 v=127
13393 On ch=1 n=g5 v=31
13396 Off ch=1 n=f#5 v=64
13403 Off ch=1 n=c6 v=64
13417 Off ch=1 n=a4 v=64
13420 Off ch=1 n=d5 v=64
13431 On ch=1 n=b5 v=48
13438 Off ch=1 n=g5 v=64
13444 Off ch=1 n=b5 v=64
13479 On ch=1 n=b5 v=45
13481 On ch=1 n=g5 v=33
13481 Par ch=1 c=64 v=0
13483 On ch=1 n=d5 v=26
13485 On ch=1 n=g4 v=24
13518 Par ch=1 c=64 v=127
13548 On ch=1 n=b4 v=41
13553 Off ch=1 n=d5 v=64
13559 Off ch=1 n=g4 v=64
13603 Par ch=1 c=64 v=0
13608 Off ch=1 n=b4 v=64
13610 On ch=1 n=a5 v=28
13612 On ch=1 n=f#5 v=27
13616 On ch=1 n=d5 v=27
13617 Off ch=1 n=g5 v=64
13618 Off ch=1 n=b5 v=64
13685 Par ch=1 c=64 v=127
13692 On ch=1 n=d4 v=26
13695 Off ch=1 n=d5 v=64
13710 Off ch=1 n=f#5 v=64
13714 Off ch=1 n=a5 v=64
13789 Par ch=1 c=64 v=0
13792 Off ch=1 n=d4 v=64
13793 On ch=1 n=d5 v=51
13808 Par ch=1 c=64 v=127
13890 On ch=1 n=g6 v=41
13891 On ch=1 n=b5 v=33
13892 On ch=1 n=d6 v=31
13896 Off ch=1 n=d5 v=64
13913 Off ch=1 n=b5 v=64
13921 Off ch=1 n=d6 v=64
13957 Off ch=1 n=g6 v=64
13958 On ch=1 n=f#6 v=33
13962 Par ch=1 c=64 v=0
13962 On ch=1 n=d5 v=48
13969 On ch=1 n=a5 v=27
13971 On ch=1 n=d6 v=23
13976 Par ch=1 c=64 v=127
13980 Off ch=1 n=d6 v=64
13986 Off ch=1 n=f#6 v=64
13994 Off ch=1 n=a5 v=64
14032 On ch=1 n=e6 v=33
14034 Off ch=1 n=d5 v=64
14035 On ch=1 n=g5 v=29
14036 On ch=1 n=c#6 v=28
14051 Off ch=1 n=c#6 v=64
14052 Off ch=1 n=e6 v=64
14056 Off ch=1 n=g5 v=64
14066 On ch=1 n=d5 v=51
14078 Off ch=1 n=d5 v=64
14110 On ch=1 n=d5 v=39
14113 On ch=1 n=d6 v=28
14115 On ch=1 n=a5 v=28
14116 On ch=1 n=f#5 v=26
14121 Par ch=1 c=64 v=0
14163 Par ch=1 c=64 v=127
14187 On ch=1 n=c5 v=43
14193 Off ch=1 n=d5 v=64
14201 Par ch=1 c=64 v=0
14258 On ch=1 n=e5 v=57
14259 Off ch=1 n=c5 v=64
14328 On ch=1 n=d5 v=53
14331 Off ch=1 n=e5 v=64
14396 Par ch=1 c=64 v=127
14402 On ch=1 n=c5 v=48
14403 Off ch=1 n=d5 v=64
14411 Off ch=1 n=a5 v=64
14412 Off ch=1 n=f#5 v=64
14414 Off ch=1 n=d6 v=64
14452 Par ch=1 c=64 v=0
14480 On ch=1 n=d6 v=36
14481 Off ch=1 n=c5 v=64
14482 On ch=1 n=d5 v=39
14483 On ch=1 n=g5 v=29
14484 On ch=1 n=b4 v=41
14491 Par ch=1 c=64 v=127
14512 Off ch=1 n=d5 v=64
14523 Off ch=1 n=d6 v=64
14544 Off ch=1 n=g5 v=64
14568 On ch=1 n=c6 v=36
14569 On ch=1 n=f#5 v=28
14572 On ch=1 n=a4 v=33
14572 Off ch=1 n=b4 v=64
14573 Par ch=1 c=64 v=0
14573 On ch=1 n=d5 v=25
14621 Par ch=1 c=64 v=127
14651 On ch=1 n=g5 v=24
14664 Off ch=1 n=f#5 v=64
14677 Off ch=1 n=d5 v=64
14677 Off ch=1 n=a4 v=64
14685 Off ch=1 n=c6 v=64
14699 Off ch=1 n=g5 v=64
14700 On ch=1 n=b5 v=39
14722 Off ch=1 n=b5 v=64
14744 Par ch=1 c=64 v=0
14756 On ch=1 n=d5 v=27
14756 On ch=1 n=b5 v=33
14758 On ch=1 n=g4 v=25
14760 On ch=1 n=g5 v=26
14801 Par ch=1 c=64 v=127
14837 On ch=1 n=b4 v=25
14843 Par ch=1 c=64 v=0
14844 Off ch=1 n=d5 v=64
14850 Par ch=1 c=64 v=127
14854 Off ch=1 n=g4 v=64
14924 Par ch=1 c=64 v=0
14925 Off ch=1 n=b4 v=64
14926 On ch=1 n=a5 v=26
14927 Off ch=1 n=b5 v=64
14929 On ch=1 n=f#5 v=26
14933 On ch=1 n=d5 v=21
14940 Off ch=1 n=g5 v=64
15053 On ch=1 n=d4 v=17
15074 Off ch=1 n=d5 v=64
15083 Par ch=1 c=64 v=127
15114 Off ch=1 n=a5 v=64
15120 Off ch=1 n=d4 v=64
15125 Off ch=1 n=f#5 v=64
15188 On ch=1 n=e4 v=50
15193 Par ch=1 c=64 v=0
15224 On ch=1 n=b4 v=28
15226 On ch=1 n=e5 v=28
15226 On ch=1 n=g5 v=25
15240 Off ch=1 n=b4 v=64
15240 Off ch=1 n=e5 v=64
15243 Off ch=1 n=g5 v=64
15254 On ch=1 n=f#4 v=57
15257 Off ch=1 n=e4 v=64
15284 On ch=1 n=g4 v=69
15284 Off ch=1 n=f#4 v=64
15286 On ch=1 n=b4 v=41
15287 On ch=1 n=g5 v=41
15287 On ch=1 n=e5 v=46
15299 Off ch=1 n=e5 v=64
15303 Off ch=1 n=b4 v=64
15303 Off ch=1 n=g5 v=64
15308 Off ch=1 n=g4 v=64
15309 On ch=1 n=a4 v=64
15338 On ch=1 n=b4 v=51
15339 On ch=1 n=g5 v=45
15340 On ch=1 n=e5 v=45
15351 Off ch=1 n=e5 v=64
15353 Off ch=1 n=b4 v=64
15356 Off ch=1 n=g5 v=64
15362 Off ch=1 n=a4 v=64
15369 On ch=1 n=a3 v=61
15396 On ch=1 n=f#5 v=41
15398 On ch=1 n=e5 v=36
15400 On ch=1 n=c5 v=36
15412 Off ch=1 n=e5 v=64
15412 Off ch=1 n=c5 v=64
15414 Off ch=1 n=f#5 v=64
15424 Off ch=1 n=a3 v=64
15425 On ch=1 n=b3 v=57
15453 On ch=1 n=f#5 v=44
15453 On ch=1 n=b4 v=48
15455 On ch=1 n=d#5 v=33
15469 Off ch=1 n=d#5 v=64
15469 Off ch=1 n=b4 v=64
15470 Off ch=1 n=f#5 v=64
15488 On ch=1 n=b2 v=61
15490 Off ch=1 n=b3 v=64
15519 On ch=1 n=b4 v=34
15520 On ch=1 n=d#5 v=36
15520 On ch=1 n=f#5 v=36
15533 Off ch=1 n=d#5 v=64
15533 Off ch=1 n=b2 v=64
15534 Off ch=1 n=b4 v=64
15534 Off ch=1 n=f#5 v=64
15545 On ch=1 n=e3 v=61
15575 On ch=1 n=b4 v=34
15576 On ch=1 n=e5 v=36
15576 On ch=1 n=g5 v=41
15589 Off ch=1 n=e5 v=64
15590 Off ch=1 n=g5 v=64
15592 Off ch=1 n=b4 v=64
15603 Off ch=1 n=e3 v=64
15607 On ch=1 n=g3 v=61
15630 Off ch=1 n=g3 v=64
15633 Par ch=1 c=64 v=127
15639 On ch=1 n=b4 v=28
15640 On ch=1 n=d5 v=26
15642 On ch=1 n=g4 v=26
15655 Off ch=1 n=g4 v=64
15655 Off ch=1 n=b4 v=64
15657 Off ch=1 n=d5 v=64
15666 Par ch=1 c=64 v=0
15678 On ch=1 n=c4 v=51
15691 Par ch=1 c=64 v=127
15710 On ch=1 n=g4 v=34
15711 On ch=1 n=c5 v=34
15712 On ch=1 n=e5 v=41
15724 Off ch=1 n=c4 v=64
15725 Off ch=1 n=c5 v=64
15726 Off ch=1 n=g4 v=64
15727 Off ch=1 n=e5 v=64
15735 On ch=1 n=d4 v=61
15763 On ch=1 n=e4 v=61
15765 On ch=1 n=g4 v=51
15766 On ch=1 n=c5 v=41
15767 On ch=1 n=e5 v=51
15772 Off ch=1 n=d4 v=64
15779 Off ch=1 n=c5 v=64
15780 Off ch=1 n=e4 v=64
15780 Off ch=1 n=e5 v=64
15781 Off ch=1 n=g4 v=64
15791 On ch=1 n=f4 v=92
15812 Par ch=1 c=64 v=0
15822 On ch=1 n=g4 v=48
15824 On ch=1 n=c5 v=43
15824 On ch=1 n=e5 v=43
15836 Off ch=1 n=c5 v=64
15836 Off ch=1 n=e5 v=64
15841 Off ch=1 n=g4 v=64
15843 Off ch=1 n=f4 v=64
15852 On ch=1 n=f3 v=74
15884 On ch=1 n=c5 v=51
15885 On ch=1 n=g4 v=51
15898 Off ch=1 n=c5 v=64
15903 Off ch=1 n=g4 v=64
15909 Off ch=1 n=f3 v=64
15911 On ch=1 n=g3 v=69
15944 On ch=1 n=g4 v=43
15945 On ch=1 n=b4 v=41
15945 On ch=1 n=d5 v=43
15957 Off ch=1 n=b4 v=64
15960 Off ch=1 n=d5 v=64
15961 Off ch=1 n=g4 v=64
15977 On ch=1 n=g2 v=53
15983 Off ch=1 n=g3 v=64
16009 On ch=1 n=g4 v=36
16010 On ch=1 n=b4 v=31
16011 On ch=1 n=d5 v=33
16023 Off ch=1 n=b4 v=64
16026 Off ch=1 n=g4 v=64
16027 Off ch=1 n=d5 v=64
16035 Off ch=1 n=g2 v=64
16041 On ch=1 n=c3 v=43
16075 On ch=1 n=g4 v=25
16076 On ch=1 n=c5 v=33
16077 On ch=1 n=e5 v=34
16098 Off ch=1 n=c3 v=64
16109 Off ch=1 n=g4 v=64
16113 Off ch=1 n=c5 v=64
16114 On ch=1 n=b4 v=27
16114 On ch=1 n=b2 v=34
16118 Par ch=1 c=64 v=127
16128 Off ch=1 n=b2 v=64
16190 Off ch=1 n=b4 v=64
16194 Off ch=1 n=e5 v=64
16209 Par ch=1 c=64 v=0
16214 On ch=1 n=e4 v=36
16257 On ch=1 n=e5 v=28
16258 On ch=1 n=b4 v=26
16262 On ch=1 n=g5 v=25
16272 Off ch=1 n=e5 v=64
16273 Off ch=1 n=b4 v=64
16275 Off ch=1 n=g5 v=64
16284 Off ch=1 n=e4 v=64
16292 On ch=1 n=f#4 v=43
16323 On ch=1 n=e5 v=39
16324 On ch=1 n=g5 v=36
16325 On ch=1 n=b4 v=39
16326 On ch=1 n=g4 v=45
16331 Off ch=1 n=f#4 v=64
16334 Off ch=1 n=e5 v=64
16338 Off ch=1 n=b4 v=64
16339 Off ch=1 n=g5 v=64
16353 Off ch=1 n=g4 v=64
16353 On ch=1 n=a4 v=61
16381 On ch=1 n=c5 v=43
16382 On ch=1 n=f#5 v=39
16383 On ch=1 n=e5 v=29
16395 Off ch=1 n=c5 v=64
16396 Off ch=1 n=e5 v=64
16398 Off ch=1 n=f#5 v=64
16408 Off ch=1 n=a4 v=64
16410 On ch=1 n=a3 v=53
16439 On ch=1 n=c5 v=48
16440 On ch=1 n=e5 v=48
16440 On ch=1 n=f#5 v=48
16451 Off ch=1 n=f#5 v=64
16451 Off ch=1 n=c5 v=64
16451 Off ch=1 n=e5 v=64
16467 Off ch=1 n=a3 v=64
16472 On ch=1 n=b3 v=57
16501 On ch=1 n=f#5 v=27
16502 On ch=1 n=b4 v=31
16502 On ch=1 n=d#5 v=31
16514 Off ch=1 n=f#5 v=64
16515 Off ch=1 n=d#5 v=64
16515 Off ch=1 n=b4 v=64
16538 On ch=1 n=b2 v=57
16543 Off ch=1 n=b3 v=64
16569 On ch=1 n=b4 v=45
16570 On ch=1 n=f#5 v=36
16572 On ch=1 n=d#5 v=28
16579 Off ch=1 n=b4 v=64
16584 Off ch=1 n=f#5 v=64
16585 Off ch=1 n=d#5 v=64
16600 On ch=1 n=e3 v=69
16601 Off ch=1 n=b2 v=64
16627 On ch=1 n=b4 v=48
16628 On ch=1 n=g5 v=43
16630 On ch=1 n=e5 v=41
16642 Off ch=1 n=b4 v=64
16643 Off ch=1 n=g5 v=64
16644 Off ch=1 n=e5 v=64
16660 On ch=1 n=g3 v=64
16673 Off ch=1 n=e3 v=64
16679 Par ch=1 c=64 v=127
16689 Off ch=1 n=g3 v=64
16695 On ch=1 n=g4 v=45
16696 On ch=1 n=d5 v=45
16698 On ch=1 n=b4 v=28
16708 Off ch=1 n=d5 v=64
16709 Off ch=1 n=b4 v=64
16710 Off ch=1 n=g4 v=64
16724 Par ch=1 c=64 v=0
16727 On ch=1 n=c4 v=64
16759 On ch=1 n=g4 v=43
16759 On ch=1 n=e5 v=48
16759 On ch=1 n=c5 v=45
16762 Par ch=1 c=64 v=127
16773 Off ch=1 n=g4 v=64
16774 Off ch=1 n=c5 v=64
16775 Off ch=1 n=e5 v=64
16775 Off ch=1 n=c4 v=64
16785 On ch=1 n=d4 v=69
16806 Off ch=1 n=d4 v=64
16814 On ch=1 n=e4 v=69
16814 On ch=1 n=g4 v=48
16815 On ch=1 n=c5 v=43
16815 On ch=1 n=e5 v=43
16817 On ch=1 n=d4 v=43
16827 Off ch=1 n=c5 v=64
16827 Off ch=1 n=g4 v=64
16828 Off ch=1 n=e5 v=64
16830 Off ch=1 n=d4 v=64
16830 Off ch=1 n=e4 v=64
16834 Par ch=1 c=64 v=0
16842 On ch=1 n=f4 v=108
16875 On ch=1 n=a4 v=57
16875 On ch=1 n=c5 v=57
16875 On ch=1 n=d5 v=57
16889 Off ch=1 n=d5 v=64
16889 Off ch=1 n=c5 v=64
16889 Off ch=1 n=a4 v=64
16899 Off ch=1 n=f4 v=64
16905 On ch=1 n=f3 v=61
16936 On ch=1 n=c5 v=46
16938 On ch=1 n=a4 v=34
16940 On ch=1 n=d5 v=28
16947 Off ch=1 n=c5 v=64
16951 Off ch=1 n=a4 v=64
16953 Off ch=1 n=d5 v=64
16966 Off ch=1 n=f3 v=64
16967 On ch=1 n=g3 v=57
16999 On ch=1 n=b4 v=39
17000 On ch=1 n=d5 v=33
17001 On ch=1 n=g4 v=28
17011 Off ch=1 n=b4 v=64
17014 Off ch=1 n=d5 v=64
17016 Off ch=1 n=g4 v=64
17034 Off ch=1 n=g3 v=64
17038 On ch=1 n=g2 v=43
17076 On ch=1 n=b4 v=28
17076 On ch=1 n=g4 v=28
17079 On ch=1 n=d5 v=25
17090 Off ch=1 n=b4 v=64
17091 Off ch=1 n=g4 v=64
17094 Off ch=1 n=d5 v=64
17100 Off ch=1 n=g2 v=64
17114 On ch=1 n=c3 v=39
17158 On ch=1 n=g4 v=22
17159 On ch=1 n=c5 v=25
17161 On ch=1 n=e5 v=27
17219 Off ch=1 n=g4 v=64
17227 On ch=1 n=b4 v=25
17229 Off ch=1 n=c3 v=64
17233 On ch=1 n=b2 v=15
17236 Off ch=1 n=c5 v=64
17331 Par ch=1 c=64 v=127
17345 Off ch=1 n=b4 v=64
17349 Off ch=1 n=e5 v=64
17356 Off ch=1 n=b2 v=64
17502 Par ch=1 c=64 v=0
17503 On ch=1 n=b5 v=21
17599 Par ch=1 c=64 v=127
17624 Off ch=1 n=b5 v=64
17627 On ch=1 n=e5 v=23
17629 On ch=1 n=g5 v=21
17703 On ch=1 n=b5 v=34
17708 Off ch=1 n=e5 v=64
17710 On ch=1 n=d#5 v=31
17712 Off ch=1 n=g5 v=64
17714 On ch=1 n=f#5 v=24
17717 Par ch=1 c=64 v=0
17740 Par ch=1 c=64 v=127
17766 Off ch=1 n=f#5 v=64
17776 On ch=1 n=f5 v=34
17780 On ch=1 n=d5 v=28
17784 Off ch=1 n=b5 v=64
17784 Off ch=1 n=d#5 v=64
17806 On ch=1 n=b5 v=51
17807 Off ch=1 n=d5 v=64
17827 Off ch=1 n=b5 v=64
17833 Off ch=1 n=f5 v=64
17845 On ch=1 n=b5 v=51
17846 On ch=1 n=c#5 v=33
17847 On ch=1 n=e5 v=31
17854 Par ch=1 c=64 v=0
17891 Par ch=1 c=64 v=127
17915 On ch=1 n=a#5 v=61
17920 Off ch=1 n=b5 v=64
17979 On ch=1 n=e6 v=64
17988 Off ch=1 n=a#5 v=64
17988 Off ch=1 n=e5 v=64
17996 Off ch=1 n=c#5 v=64
18038 Par ch=1 c=64 v=0
18048 On ch=1 n=d#6 v=53
18051 On ch=1 n=a5 v=43
18053 On ch=1 n=d#5 v=29
18053 On ch=1 n=c5 v=28
18057 Off ch=1 n=e6 v=64
18058 Par ch=1 c=64 v=127
18098 Off ch=1 n=d#6 v=64
18110 Off ch=1 n=c5 v=64
18111 Off ch=1 n=d#5 v=64
18127 Off ch=1 n=a5 v=64
18129 On ch=1 n=d6 v=51
18133 On ch=1 n=d5 v=27
18135 On ch=1 n=b4 v=23
18140 Par ch=1 c=64 v=0
18182 Par ch=1 c=64 v=127
18208 On ch=1 n=g5 v=28
18226 Off ch=1 n=b4 v=64
18227 Off ch=1 n=d6 v=64
18277 Off ch=1 n=g5 v=64
18283 On ch=1 n=f#5 v=29
18285 On ch=1 n=a4 v=34
18288 On ch=1 n=c6 v=29
18294 Par ch=1 c=64 v=0
18318 Par ch=1 c=64 v=127
18364 On ch=1 n=g5 v=33
18367 Off ch=1 n=f#5 v=64
18371 Off ch=1 n=c6 v=64
18378 Off ch=1 n=d5 v=64
18379 Off ch=1 n=a4 v=64
18389 Off ch=1 n=g5 v=64
18405 On ch=1 n=b5 v=41
18405 On ch=1 n=d5 v=36
18419 Off ch=1 n=d5 v=64
18420 Off ch=1 n=b5 v=64
18459 On ch=1 n=b5 v=31
18460 On ch=1 n=g4 v=24
18465 On ch=1 n=g5 v=25
18466 On ch=1 n=d5 v=23
18479 Par ch=1 c=64 v=0
18509 Par ch=1 c=64 v=127
18531 On ch=1 n=b4 v=26
18539 Off ch=1 n=d5 v=64
18539 Off ch=1 n=g4 v=64
18597 Off ch=1 n=b4 v=64
18611 On ch=1 n=f#5 v=25
18611 Off ch=1 n=g5 v=64
18611 On ch=1 n=d5 v=25
18613 Off ch=1 n=b5 v=64
18615 On ch=1 n=a5 v=25
18621 Par ch=1 c=64 v=0
18700 Par ch=1 c=64 v=127
18701 On ch=1 n=d4 v=25
18705 Off ch=1 n=d5 v=64
18737 Off ch=1 n=a5 v=64
18740 Off ch=1 n=f#5 v=64
18797 Par ch=1 c=64 v=0
18808 On ch=1 n=d5 v=36
18808 Off ch=1 n=d4 v=64
18829 Par ch=1 c=64 v=127
18925 On ch=1 n=g6 v=51
18927 On ch=1 n=d6 v=43
18929 On ch=1 n=b5 v=34
18970 Off ch=1 n=b5 v=64
18974 Off ch=1 n=d6 v=64
18981 Off ch=1 n=d5 v=64
19012 Par ch=1 c=64 v=0
19016 On ch=1 n=f#6 v=45
19017 On ch=1 n=d5 v=53
19020 Off ch=1 n=g6 v=64
19022 On ch=1 n=d6 v=36
19023 On ch=1 n=a5 v=41
19032 Par ch=1 c=64 v=127
19043 Off ch=1 n=d6 v=64
19047 Off ch=1 n=f#6 v=64
19057 Off ch=1 n=a5 v=64
19093 On ch=1 n=e6 v=39
19096 On ch=1 n=c#6 v=33
19098 On ch=1 n=g5 v=29
19105 Off ch=1 n=d5 v=64
19110 Off ch=1 n=c#6 v=64
19114 Off ch=1 n=g5 v=64
19115 Off ch=1 n=e6 v=64
19135 On ch=1 n=d5 v=43
19149 Off ch=1 n=d5 v=64
19192 On ch=1 n=f#5 v=25
19194 On ch=1 n=d6 v=27
19197 On ch=1 n=d5 v=34
19200 On ch=1 n=a5 v=26
19208 Par ch=1 c=64 v=0
19256 Par ch=1 c=64 v=127
19286 On ch=1 n=c5 v=45
19289 Off ch=1 n=d5 v=64
19365 Par ch=1 c=64 v=0
19367 Off ch=1 n=c5 v=64
19368 On ch=1 n=e5 v=43
19460 On ch=1 n=d5 v=29
19466 Off ch=1 n=e5 v=64
19547 On ch=1 n=c5 v=33
19550 Off ch=1 n=d5 v=64
19561 Par ch=1 c=64 v=127
19571 Off ch=1 n=a5 v=64
19572 Off ch=1 n=f#5 v=64
19575 Off ch=1 n=d6 v=64
19672 On ch=1 n=d6 v=51
19672 On ch=1 n=b4 v=31
19672 On ch=1 n=g5 v=50
19673 Par ch=1 c=64 v=0
19674 Off ch=1 n=c5 v=64
19675 On ch=1 n=d5 v=33
19698 Par ch=1 c=64 v=127
19745 Off ch=1 n=d5 v=64
19835 On ch=1 n=e5 v=23
19835 Off ch=1 n=b4 v=64
19836 On ch=1 n=a4 v=24
19838 On ch=1 n=c6 v=34
19838 Par ch=1 c=64 v=0
19843 Off ch=1 n=d6 v=64
20148 Off ch=1 n=g5 v=64
20148 Off ch=1 n=e5 v=64
20152 Off ch=1 n=c6 v=64
20153 Off ch=1 n=a4 v=64
20316 Par ch=1 c=64 v=127
20337 On ch=1 n=f#5 v=31
20341 On ch=1 n=a4 v=26
20342 On ch=1 n=c5 v=27
20347 On ch=1 n=d4 v=18
20361 Off ch=1 n=a4 v=64
20362 Off ch=1 n=c5 v=64
20362 Off ch=1 n=d4 v=64
20363 Off ch=1 n=f#5 v=64
20413 On ch=1 n=f#5 v=24
20416 On ch=1 n=c5 v=25
20420 On ch=1 n=d4 v=18
20420 On ch=1 n=a4 v=20
20424 Par ch=1 c=64 v=0
20490 Par ch=1 c=64 v=127
20739 Off ch=1 n=a4 v=64
20926 Off ch=1 n=f#5 v=64
21180 On ch=1 n=b4 v=24
21182 Off ch=1 n=c5 v=64
21184 On ch=1 n=g3 v=23
21186 Par ch=1 c=64 v=0
21188 On ch=1 n=g5 v=19
22097 Off ch=1 n=g3 v=64
22100 Off ch=1 n=b4 v=64
22100 Off ch=1 n=d4 v=64
22102 Off ch=1 n=g5 v=64
23040 Meta TrkEnd
TrkEnd
