MFile 1 2 120
MTrk
0 TimeSig 4/4 24 8
0 Tempo 600000
0 Meta TrkEnd
TrkEnd
MTrk
0 Meta Text "Piano     "
230 Par ch=1 c=64 v=127
233 On ch=1 n=f#5 v=36
238 On ch=1 n=d5 v=34
239 On ch=1 n=d4 v=28
239 On ch=1 n=a4 v=27
289 Off ch=1 n=d5 v=64
295 Off ch=1 n=a4 v=64
300 Off ch=1 n=d4 v=64
305 On ch=1 n=b5 v=39
306 Off ch=1 n=f#5 v=64
319 Par ch=1 c=64 v=0
320 On ch=1 n=a5 v=45
325 Off ch=1 n=b5 v=64
334 On ch=1 n=g5 v=61
335 On ch=1 n=c#5 v=43
335 On ch=1 n=e4 v=39
340 On ch=1 n=a4 v=33
342 Off ch=1 n=a5 v=64
348 Off ch=1 n=c#5 v=64
348 Off ch=1 n=e4 v=64
351 Off ch=1 n=g5 v=64
352 Off ch=1 n=a4 v=64
404 On ch=1 n=f#5 v=57
405 On ch=1 n=c#5 v=45
407 On ch=1 n=d#4 v=51
418 Off ch=1 n=c#5 v=64
428 On ch=1 n=g5 v=61
433 Off ch=1 n=d#4 v=64
433 On ch=1 n=a4 v=2
434 On ch=1 n=e4 v=39
441 Off ch=1 n=f#5 v=64
444 Off ch=1 n=a4 v=64
444 Off ch=1 n=g5 v=64
447 Off ch=1 n=e4 v=64
521 On ch=1 n=b5 v=48
522 On ch=1 n=c#5 v=48
527 On ch=1 n=g4 v=45
527 On ch=1 n=a4 v=34
534 Par ch=1 c=64 v=127
546 Off ch=1 n=a4 v=64
546 Off ch=1 n=g4 v=64
560 Off ch=1 n=c#5 v=64
608 Off ch=1 n=b5 v=64
610 On ch=1 n=a5 v=48
612 On ch=1 n=d5 v=48
615 Par ch=1 c=64 v=0
616 On ch=1 n=f#4 v=45
616 On ch=1 n=a4 v=41
633 Off ch=1 n=a4 v=64
635 Off ch=1 n=f#4 v=64
681 On ch=1 n=f4 v=64
685 On ch=1 n=a4 v=36
697 Off ch=1 n=f4 v=64
697 Off ch=1 n=a4 v=64
708 On ch=1 n=a4 v=53
711 On ch=1 n=f#4 v=61
718 Off ch=1 n=f#4 v=64
722 Off ch=1 n=a4 v=64
728 Off ch=1 n=d5 v=64
731 Off ch=1 n=a5 v=64
802 On ch=1 n=d6 v=61
803 On ch=1 n=a5 v=64
805 On ch=1 n=f#4 v=41
806 On ch=1 n=a4 v=41
814 Par ch=1 c=64 v=127
864 Off ch=1 n=a4 v=64
890 On ch=1 n=c#6 v=61
893 On ch=1 n=g5 v=61
896 On ch=1 n=a4 v=48
897 On ch=1 n=e4 v=53
898 Off ch=1 n=d6 v=64
898 Off ch=1 n=a5 v=64
900 Par ch=1 c=64 v=0
906 Off ch=1 n=f#4 v=64
907 Off ch=1 n=e4 v=64
907 Off ch=1 n=a4 v=64
909 Off ch=1 n=c#6 v=64
910 Off ch=1 n=g5 v=64
962 On ch=1 n=b5 v=53
964 On ch=1 n=f#5 v=48
964 On ch=1 n=d4 v=29
977 Off ch=1 n=d4 v=64
981 Off ch=1 n=b5 v=64
983 Off ch=1 n=f#5 v=64
986 On ch=1 n=a5 v=74
987 On ch=1 n=d5 v=53
988 On ch=1 n=a4 v=51
989 On ch=1 n=c#4 v=61
998 Off ch=1 n=c#4 v=64
999 Off ch=1 n=a4 v=64
1000 Off ch=1 n=d5 v=64
1001 Off ch=1 n=a5 v=64
1084 On ch=1 n=g6 v=69
1086 On ch=1 n=a4 v=57
1087 On ch=1 n=a3 v=53
1088 On ch=1 n=g5 v=61
1089 On ch=1 n=a5 v=53
1098 Off ch=1 n=a3 v=64
1098 Off ch=1 n=a4 v=64
1098 Par ch=1 c=64 v=127
1099 Off ch=1 n=a5 v=64
1101 Off ch=1 n=g5 v=64
1104 Off ch=1 n=g6 v=64
1181 On ch=1 n=f#6 v=61
1182 On ch=1 n=d4 v=53
1183 On ch=1 n=f#5 v=61
1183 On ch=1 n=a4 v=61
1185 Par ch=1 c=64 v=0
1186 On ch=1 n=d6 v=53
1191 Off ch=1 n=a4 v=64
1194 Off ch=1 n=d6 v=64
1197 Off ch=1 n=d4 v=64
1198 Off ch=1 n=f#5 v=64
1202 Off ch=1 n=f#6 v=64
1256 On ch=1 n=e6 v=64
1257 On ch=1 n=e4 v=48
1258 On ch=1 n=c#6 v=48
1259 On ch=1 n=a4 v=43
1259 On ch=1 n=g5 v=39
1268 Off ch=1 n=e4 v=64
1270 Off ch=1 n=a4 v=64
1270 Off ch=1 n=c#6 v=64
1272 Off ch=1 n=g5 v=64
1275 Off ch=1 n=e6 v=64
1280 On ch=1 n=d6 v=57
1282 On ch=1 n=a4 v=53
1283 On ch=1 n=a5 v=61
1284 On ch=1 n=f#4 v=57
1291 Off ch=1 n=f#4 v=64
1291 Off ch=1 n=a4 v=64
1292 Off ch=1 n=a5 v=64
1295 Off ch=1 n=d6 v=64
1376 On ch=1 n=f#5 v=39
1379 On ch=1 n=a4 v=27
1379 On ch=1 n=d4 v=26
1380 On ch=1 n=d5 v=29
1389 Par ch=1 c=64 v=127
1410 Off ch=1 n=a4 v=64
1414 Off ch=1 n=d5 v=64
1428 Off ch=1 n=f#5 v=64
1445 Par ch=1 c=64 v=0
1450 On ch=1 n=b5 v=43
1457 Off ch=1 n=d4 v=64
1458 On ch=1 n=a5 v=51
1469 On ch=1 n=c#5 v=34
1473 On ch=1 n=e4 v=37
1474 Off ch=1 n=b5 v=64
1475 On ch=1 n=g5 v=51
1476 On ch=1 n=a4 v=43
1485 Off ch=1 n=a5 v=64
1490 Off ch=1 n=a4 v=64
1491 Off ch=1 n=c#5 v=64
1492 Off ch=1 n=e4 v=64
1493 Off ch=1 n=g5 v=64
1544 On ch=1 n=f#5 v=53
1545 On ch=1 n=c#5 v=48
1545 On ch=1 n=d#4 v=43
1556 Off ch=1 n=d#4 v=64
1557 Off ch=1 n=c#5 v=64
1566 On ch=1 n=g5 v=57
1570 Off ch=1 n=f#5 v=64
1574 On ch=1 n=e4 v=51
1583 Off ch=1 n=g5 v=64
1584 Off ch=1 n=e4 v=64
1656 On ch=1 n=b5 v=48
1657 On ch=1 n=c#5 v=51
1662 On ch=1 n=a4 v=36
1662 On ch=1 n=g4 v=41
1674 Par ch=1 c=64 v=127
1710 Off ch=1 n=c#5 v=64
1719 Off ch=1 n=a4 v=64
1735 Off ch=1 n=g4 v=64
1743 Off ch=1 n=b5 v=64
1748 Par ch=1 c=64 v=0
1749 On ch=1 n=a5 v=36
1752 On ch=1 n=d5 v=43
1757 On ch=1 n=f#4 v=34
1758 On ch=1 n=a4 v=31
1774 Par ch=1 c=64 v=127
1794 Off ch=1 n=a4 v=64
1795 Off ch=1 n=f#4 v=64
1811 Par ch=1 c=64 v=0
1820 On ch=1 n=f4 v=53
1826 On ch=1 n=a4 v=26
1837 Off ch=1 n=a4 v=64
1838 Off ch=1 n=f4 v=64
1848 On ch=1 n=a4 v=45
1852 On ch=1 n=f#4 v=31
1862 Par ch=1 c=64 v=127
1865 Off ch=1 n=a4 v=64
1865 Off ch=1 n=f#4 v=64
1875 Off ch=1 n=d5 v=64
1878 Off ch=1 n=a5 v=64
1918 Par ch=1 c=64 v=0
1943 On ch=1 n=a4 v=29
1946 On ch=1 n=a5 v=45
1948 On ch=1 n=d6 v=43
1949 On ch=1 n=f#4 v=25
1974 Par ch=1 c=64 v=127
1996 On ch=1 n=b4 v=41
2001 Off ch=1 n=a4 v=64
2011 Off ch=1 n=f#4 v=64
2018 Off ch=1 n=b4 v=64
2022 On ch=1 n=c#6 v=48
2026 Off ch=1 n=d6 v=64
2026 Off ch=1 n=a5 v=64
2032 Off ch=1 n=c#6 v=64
2048 On ch=1 n=c#6 v=51
2048 On ch=1 n=c#5 v=34
2049 On ch=1 n=e4 v=33
2050 Par ch=1 c=64 v=0
2051 On ch=1 n=a5 v=39
2080 Par ch=1 c=64 v=127
2096 Off ch=1 n=c#5 v=64
2100 Off ch=1 n=e4 v=64
2101 On ch=1 n=d5 v=53
2102 On ch=1 n=d6 v=61
2143 Off ch=1 n=c#6 v=64
2149 On ch=1 n=e6 v=64
2150 On ch=1 n=e5 v=61
2155 Off ch=1 n=d5 v=64
2162 Off ch=1 n=d6 v=64
2194 Off ch=1 n=e5 v=64
2196 Off ch=1 n=a5 v=64
2197 On ch=1 n=f#5 v=53
2198 On ch=1 n=f#6 v=61
2206 Off ch=1 n=e6 v=64
2216 Off ch=1 n=f#5 v=64
2220 Off ch=1 n=f#6 v=64
2253 On ch=1 n=f#6 v=45
2255 On ch=1 n=d6 v=39
2256 On ch=1 n=e5 v=36
2256 Par ch=1 c=64 v=0
2257 On ch=1 n=f#5 v=36
2287 Par ch=1 c=64 v=127
2335 On ch=1 n=g#6 v=43
2339 On ch=1 n=g#5 v=39
2346 Off ch=1 n=g#6 v=64
2354 Off ch=1 n=g#5 v=64
2355 Par ch=1 c=64 v=0
2358 On ch=1 n=g#6 v=36
2364 On ch=1 n=g#5 v=26
2374 Par ch=1 c=64 v=127
2402 Off ch=1 n=f#5 v=64
2404 Off ch=1 n=e5 v=64
2408 Off ch=1 n=g#5 v=64
2421 Off ch=1 n=d6 v=64
2465 Off ch=1 n=f#6 v=64
2467 Par ch=1 c=64 v=0
2470 Off ch=1 n=g#6 v=64
2474 On ch=1 n=a6 v=39
2476 On ch=1 n=c#6 v=31
2480 On ch=1 n=a4 v=26
2493 Off ch=1 n=c#6 v=64
2493 Par ch=1 c=64 v=127
2494 Off ch=1 n=a6 v=64
2500 Off ch=1 n=a4 v=64
2591 Par ch=1 c=64 v=0
2600 On ch=1 n=f#5 v=31
2605 On ch=1 n=d5 v=28
2607 On ch=1 n=a4 v=25
2609 On ch=1 n=d4 v=27
2623 Par ch=1 c=64 v=127
2631 Off ch=1 n=a4 v=64
2636 Off ch=1 n=d4 v=64
2637 Off ch=1 n=d5 v=64
2649 Off ch=1 n=f#5 v=64
2669 On ch=1 n=b5 v=27
2680 On ch=1 n=c#5 v=27
2684 On ch=1 n=a5 v=31
2688 Off ch=1 n=b5 v=64
2693 Par ch=1 c=64 v=0
2696 On ch=1 n=g5 v=45
2698 On ch=1 n=e4 v=34
2702 On ch=1 n=a4 v=22
2705 Off ch=1 n=a5 v=64
2709 Off ch=1 n=c#5 v=64
2710 Off ch=1 n=a4 v=64
2711 Off ch=1 n=e4 v=64
2715 Off ch=1 n=g5 v=64
2766 On ch=1 n=d#4 v=39
2767 On ch=1 n=f#5 v=57
2768 On ch=1 n=c#5 v=45
2781 Off ch=1 n=d#4 v=64
2788 Off ch=1 n=c#5 v=64
2789 On ch=1 n=g5 v=57
2791 On ch=1 n=e4 v=57
2792 On ch=1 n=a4 v=41
2799 Off ch=1 n=f#5 v=64
2803 Off ch=1 n=e4 v=64
2803 Off ch=1 n=a4 v=64
2807 Off ch=1 n=g5 v=64
2878 On ch=1 n=b5 v=57
2878 On ch=1 n=c#5 v=57
2885 On ch=1 n=a4 v=39
2888 On ch=1 n=g4 v=39
2890 Par ch=1 c=64 v=127
2917 Off ch=1 n=c#5 v=64
2921 Off ch=1 n=a4 v=64
2963 Off ch=1 n=b5 v=64
2966 Off ch=1 n=g4 v=64
2966 On ch=1 n=a5 v=51
2969 On ch=1 n=d5 v=61
2972 On ch=1 n=f#4 v=48
2975 On ch=1 n=a4 v=34
2977 Par ch=1 c=64 v=0
2991 Off ch=1 n=a4 v=64
2994 Off ch=1 n=f#4 v=64
3034 On ch=1 n=f4 v=61
3039 On ch=1 n=a4 v=29
3052 Off ch=1 n=a4 v=64
3053 Off ch=1 n=f4 v=64
3059 On ch=1 n=a4 v=36
3061 On ch=1 n=f#4 v=57
3075 Off ch=1 n=f#4 v=64
3076 Off ch=1 n=a4 v=64
3092 Off ch=1 n=a5 v=64
3106 Off ch=1 n=d5 v=64
3154 On ch=1 n=d6 v=64
3155 On ch=1 n=f#4 v=43
3155 On ch=1 n=a5 v=61
3156 On ch=1 n=a4 v=36
3176 Par ch=1 c=64 v=127
3215 Off ch=1 n=a4 v=64
3246 On ch=1 n=c#6 v=57
3248 On ch=1 n=g5 v=53
3252 On ch=1 n=e4 v=51
3252 On ch=1 n=a4 v=36
3254 Off ch=1 n=a5 v=64
3257 Par ch=1 c=64 v=0
3257 Off ch=1 n=d6 v=64
3257 Off ch=1 n=f#4 v=64
3265 Off ch=1 n=e4 v=64
3267 Off ch=1 n=a4 v=64
3267 Off ch=1 n=c#6 v=64
3278 Off ch=1 n=g5 v=64
3321 On ch=1 n=b5 v=51
3323 On ch=1 n=c#4 v=48
3323 On ch=1 n=f#5 v=51
3326 On ch=1 n=a4 v=28
3343 Off ch=1 n=b5 v=64
3344 Off ch=1 n=c#4 v=64
3344 Off ch=1 n=a4 v=64
3346 Off ch=1 n=f#5 v=64
3346 On ch=1 n=a5 v=57
3349 On ch=1 n=d4 v=48
3350 On ch=1 n=d5 v=36
3351 On ch=1 n=a4 v=26
3354 On ch=1 n=e5 v=43
3366 Off ch=1 n=e5 v=64
3366 Off ch=1 n=a5 v=64
3367 Off ch=1 n=a4 v=64
3367 Off ch=1 n=d5 v=64
3368 Off ch=1 n=d4 v=64
3440 On ch=1 n=g6 v=69
3443 On ch=1 n=a4 v=51
3444 On ch=1 n=g5 v=51
3444 On ch=1 n=a5 v=61
3444 On ch=1 n=a3 v=43
3449 Par ch=1 c=64 v=127
3484 Off ch=1 n=g6 v=64
3487 Off ch=1 n=a5 v=64
3488 Off ch=1 n=g5 v=64
3491 Off ch=1 n=a3 v=64
3495 Off ch=1 n=a4 v=64
3523 Par ch=1 c=64 v=0
3532 On ch=1 n=f#6 v=57
3533 On ch=1 n=f#5 v=61
3533 On ch=1 n=a4 v=53
3536 On ch=1 n=d4 v=45
3536 On ch=1 n=d6 v=51
3548 Off ch=1 n=d4 v=64
3549 Off ch=1 n=d6 v=64
3551 Off ch=1 n=a4 v=64
3554 Off ch=1 n=f#5 v=64
3556 Off ch=1 n=f#6 v=64
3606 On ch=1 n=e4 v=48
3608 On ch=1 n=a4 v=36
3610 On ch=1 n=e6 v=45
3610 On ch=1 n=c#6 v=39
3612 On ch=1 n=g5 v=29
3618 Off ch=1 n=e4 v=64
3620 Off ch=1 n=a4 v=64
3624 Off ch=1 n=g5 v=64
3628 On ch=1 n=d6 v=48
3628 Off ch=1 n=e6 v=64
3628 Off ch=1 n=c#6 v=64
3633 On ch=1 n=a5 v=53
3633 On ch=1 n=f#4 v=53
3636 On ch=1 n=a4 v=41
3646 Off ch=1 n=a4 v=64
3647 Off ch=1 n=a5 v=64
3648 Off ch=1 n=d6 v=64
3648 Off ch=1 n=f#4 v=64
3727 On ch=1 n=f#5 v=34
3732 On ch=1 n=d5 v=33
3733 On ch=1 n=a4 v=28
3734 On ch=1 n=d4 v=27
3740 Par ch=1 c=64 v=127
3759 Off ch=1 n=d5 v=64
3760 Off ch=1 n=a4 v=64
3777 Off ch=1 n=f#5 v=64
3795 On ch=1 n=b5 v=34
3802 Off ch=1 n=d4 v=64
3803 On ch=1 n=a5 v=45
3807 On ch=1 n=c#5 v=31
3816 Off ch=1 n=b5 v=64
3821 Par ch=1 c=64 v=0
3823 On ch=1 n=g5 v=43
3826 On ch=1 n=a4 v=28
3827 On ch=1 n=e4 v=29
3832 Off ch=1 n=a5 v=64
3837 Off ch=1 n=c#5 v=64
3841 Off ch=1 n=a4 v=64
3841 Off ch=1 n=e4 v=64
3843 Off ch=1 n=g5 v=64
3889 On ch=1 n=d#4 v=36
3889 On ch=1 n=f#5 v=53
3890 On ch=1 n=c#5 v=48
3901 Off ch=1 n=d#4 v=64
3904 Off ch=1 n=c#5 v=64
3911 On ch=1 n=g5 v=57
3916 On ch=1 n=e4 v=51
3916 On ch=1 n=a4 v=39
3920 Off ch=1 n=f#5 v=64
3927 Off ch=1 n=g5 v=64
3927 Off ch=1 n=e4 v=64
3928 Off ch=1 n=a4 v=64
4000 On ch=1 n=b5 v=51
4001 On ch=1 n=c#5 v=53
4006 On ch=1 n=a4 v=29
4008 On ch=1 n=g4 v=34
4012 Par ch=1 c=64 v=127
4042 Off ch=1 n=a4 v=64
4044 Off ch=1 n=c#5 v=64
4055 Off ch=1 n=g4 v=64
4084 Off ch=1 n=b5 v=64
4091 On ch=1 n=a5 v=53
4092 On ch=1 n=d5 v=61
4093 Par ch=1 c=64 v=0
4097 On ch=1 n=f#4 v=45
4101 On ch=1 n=a4 v=27
4131 Par ch=1 c=64 v=127
4159 Off ch=1 n=f#4 v=64
4167 On ch=1 n=f4 v=53
4180 Par ch=1 c=64 v=0
4194 On ch=1 n=f#4 v=61
4205 Off ch=1 n=f4 v=64
4212 Off ch=1 n=d5 v=64
4218 Off ch=1 n=a5 v=64
4219 Off ch=1 n=f#4 v=64
4219 Off ch=1 n=a4 v=64
4294 On ch=1 n=a4 v=36
4296 On ch=1 n=d6 v=39
4298 On ch=1 n=a5 v=34
4299 On ch=1 n=f#4 v=33
4305 Par ch=1 c=64 v=127
4349 Off ch=1 n=a4 v=64
4351 On ch=1 n=b4 v=41
4360 Off ch=1 n=f#4 v=64
4369 On ch=1 n=c#6 v=53
4370 Off ch=1 n=b4 v=64
4373 Off ch=1 n=d6 v=64
4379 Off ch=1 n=a5 v=64
4386 Off ch=1 n=c#6 v=64
4397 On ch=1 n=c#6 v=48
4398 On ch=1 n=a5 v=41
4400 Par ch=1 c=64 v=0
4402 On ch=1 n=c#5 v=31
4402 On ch=1 n=e4 v=41
4431 Par ch=1 c=64 v=127
4441 Off ch=1 n=c#5 v=64
4448 Off ch=1 n=e4 v=64
4453 On ch=1 n=d5 v=57
4453 On ch=1 n=d6 v=64
4499 On ch=1 n=e5 v=69
4500 Off ch=1 n=c#6 v=64
4500 On ch=1 n=e6 v=69
4510 Off ch=1 n=d5 v=64
4512 Off ch=1 n=d6 v=64
4542 On ch=1 n=f#5 v=51
4546 On ch=1 n=f#6 v=64
4550 Off ch=1 n=e5 v=64
4551 Off ch=1 n=a5 v=64
4556 Off ch=1 n=e6 v=64
4558 Off ch=1 n=f#5 v=64
4570 Off ch=1 n=f#6 v=64
4602 On ch=1 n=f#6 v=41
4604 On ch=1 n=f#5 v=39
4604 On ch=1 n=e5 v=41
4608 On ch=1 n=d6 v=39
4609 Par ch=1 c=64 v=0
4633 Par ch=1 c=64 v=127
4689 On ch=1 n=g#6 v=43
4691 On ch=1 n=g#5 v=28
4699 Off ch=1 n=g#6 v=64
4703 Off ch=1 n=g#5 v=64
4709 Par ch=1 c=64 v=0
4710 On ch=1 n=g#6 v=43
4715 Par ch=1 c=64 v=127
4716 On ch=1 n=g#5 v=41
4746 Off ch=1 n=e5 v=64
4753 Off ch=1 n=f#5 v=64
4753 Off ch=1 n=g#5 v=64
4776 Off ch=1 n=d6 v=64
4820 Par ch=1 c=64 v=0
4823 On ch=1 n=a6 v=39
4826 On ch=1 n=c#6 v=25
4829 Off ch=1 n=f#6 v=64
4831 Off ch=1 n=g#6 v=64
4831 On ch=1 n=a4 v=26
4831 On ch=1 n=a5 v=17
4846 Par ch=1 c=64 v=127
4866 Off ch=1 n=a4 v=64
4866 Off ch=1 n=a5 v=64
4867 Off ch=1 n=c#6 v=64
4870 Off ch=1 n=a6 v=64
4921 Par ch=1 c=64 v=0
4941 On ch=1 n=e6 v=33
4942 On ch=1 n=e5 v=27
4943 On ch=1 n=c6 v=27
4943 On ch=1 n=a4 v=27
4959 Par ch=1 c=64 v=127
4997 On ch=1 n=f#5 v=26
4999 On ch=1 n=f#6 v=57
5001 Off ch=1 n=c6 v=64
5008 Off ch=1 n=e5 v=64
5015 Off ch=1 n=a4 v=64
5019 Off ch=1 n=f#5 v=64
5047 On ch=1 n=g6 v=57
5050 On ch=1 n=g5 v=33
5050 On ch=1 n=b4 v=36
5051 On ch=1 n=b5 v=57
5056 Off ch=1 n=e6 v=64
5061 Par ch=1 c=64 v=0
5068 Off ch=1 n=f#6 v=64
5085 Par ch=1 c=64 v=127
5102 On ch=1 n=a6 v=74
5103 On ch=1 n=a5 v=53
5113 Off ch=1 n=g5 v=64
5115 Off ch=1 n=g6 v=64
5138 Off ch=1 n=a5 v=64
5148 On ch=1 n=g6 v=57
5151 On ch=1 n=g5 v=45
5159 Off ch=1 n=a6 v=64
5193 On ch=1 n=f#5 v=45
5194 On ch=1 n=f#6 v=61
5198 Off ch=1 n=g5 v=64
5205 Off ch=1 n=b4 v=64
5206 Off ch=1 n=b5 v=64
5208 Off ch=1 n=g6 v=64
5213 Off ch=1 n=f#5 v=64
5223 Off ch=1 n=f#6 v=64
5243 Par ch=1 c=64 v=0
5243 On ch=1 n=g6 v=48
5245 On ch=1 n=g5 v=34
5247 On ch=1 n=d#6 v=45
5248 On ch=1 n=b4 v=25
5268 Par ch=1 c=64 v=127
5293 On ch=1 n=f#5 v=39
5294 On ch=1 n=f#6 v=51
5296 Off ch=1 n=g5 v=64
5298 Off ch=1 n=g6 v=64
5306 Off ch=1 n=f#5 v=64
5311 Off ch=1 n=b4 v=64
5312 Off ch=1 n=d#6 v=64
5329 Off ch=1 n=f#6 v=64
5343 On ch=1 n=e6 v=43
5347 On ch=1 n=c6 v=36
5348 On ch=1 n=e5 v=27
5351 On ch=1 n=c5 v=29
5352 Par ch=1 c=64 v=0
5382 Par ch=1 c=64 v=127
5392 On ch=1 n=b4 v=45
5394 Off ch=1 n=c5 v=64
5441 On ch=1 n=a4 v=61
5457 Off ch=1 n=b4 v=64
5461 Off ch=1 n=e5 v=64
5464 Off ch=1 n=a4 v=64
5467 Off ch=1 n=e6 v=64
5474 Off ch=1 n=c6 v=64
5486 On ch=1 n=g4 v=57
5505 Off ch=1 n=g4 v=64
5540 On ch=1 n=d6 v=53
5542 On ch=1 n=a5 v=48
5544 On ch=1 n=d5 v=27
5544 On ch=1 n=g4 v=26
5550 Par ch=1 c=64 v=0
5574 Par ch=1 c=64 v=127
5590 On ch=1 n=f#4 v=51
5592 On ch=1 n=c6 v=57
5599 Off ch=1 n=g4 v=64
5603 Off ch=1 n=d6 v=64
5615 Off ch=1 n=d5 v=64
5626 Off ch=1 n=f#4 v=64
5638 Par ch=1 c=64 v=0
5643 On ch=1 n=b5 v=69
5645 On ch=1 n=g5 v=53
5647 On ch=1 n=g4 v=41
5647 On ch=1 n=d5 v=41
5649 Off ch=1 n=c6 v=64
5653 Off ch=1 n=a5 v=64
5664 Par ch=1 c=64 v=127
5691 Off ch=1 n=g4 v=64
5696 On ch=1 n=f#4 v=61
5703 Off ch=1 n=d5 v=64
5713 Off ch=1 n=g5 v=64
5752 Par ch=1 c=64 v=0
5752 Off ch=1 n=f#4 v=64
5752 On ch=1 n=c6 v=64
5752 On ch=1 n=e4 v=43
5753 On ch=1 n=c5 v=36
5754 On ch=1 n=g5 v=51
5763 Off ch=1 n=b5 v=64
5771 Par ch=1 c=64 v=127
5809 On ch=1 n=a5 v=45
5810 On ch=1 n=f#4 v=39
5814 Off ch=1 n=c5 v=64
5819 Off ch=1 n=g5 v=64
5820 Off ch=1 n=e4 v=64
5823 Off ch=1 n=a5 v=64
5823 Off ch=1 n=c6 v=64
5852 Off ch=1 n=f#4 v=64
5862 On ch=1 n=b4 v=28
5863 On ch=1 n=b5 v=48
5863 On ch=1 n=a5 v=29
5866 Par ch=1 c=64 v=0
5866 On ch=1 n=g4 v=28
5867 On ch=1 n=d5 v=32
5879 Par ch=1 c=64 v=127
5915 On ch=1 n=g5 v=41
5917 Off ch=1 n=b4 v=64
5921 Off ch=1 n=g4 v=64
5922 Off ch=1 n=b5 v=64
5926 Off ch=1 n=a5 v=64
5929 Off ch=1 n=d5 v=64
5933 Off ch=1 n=g5 v=64
5978 On ch=1 n=g5 v=31
5980 On ch=1 n=a5 v=33
5981 On ch=1 n=a4 v=22
5983 On ch=1 n=d4 v=24
5984 On ch=1 n=d5 v=28
5986 Par ch=1 c=64 v=0
5996 On ch=1 n=g4 v=17
6011 Par ch=1 c=64 v=127
6043 On ch=1 n=f#5 v=41
6048 Off ch=1 n=a4 v=64
6051 On ch=1 n=f#4 v=25
6057 Off ch=1 n=g5 v=64
6065 Off ch=1 n=g4 v=64
6070 Off ch=1 n=d5 v=64
6080 Par ch=1 c=64 v=0
6105 On ch=1 n=e5 v=33
6111 Par ch=1 c=64 v=127
6111 On ch=1 n=e4 v=23
6112 Off ch=1 n=f#4 v=64
6124 Par ch=1 c=64 v=0
6136 Off ch=1 n=d4 v=64
6165 Off ch=1 n=e4 v=64
6179 Par ch=1 c=64 v=127
6190 On ch=1 n=d5 v=28
6195 Off ch=1 n=e5 v=64
6196 Off ch=1 n=f#5 v=64
6199 On ch=1 n=d4 v=22
6217 Off ch=1 n=d4 v=64
6223 Off ch=1 n=a5 v=64
6229 Off ch=1 n=d5 v=64
6278 Par ch=1 c=64 v=0
6289 On ch=1 n=f#5 v=27
6291 On ch=1 n=d4 v=25
6292 On ch=1 n=a4 v=25
6293 On ch=1 n=d5 v=27
6310 Par ch=1 c=64 v=127
6347 Off ch=1 n=f#5 v=64
6348 Off ch=1 n=d5 v=64
6351 On ch=1 n=d#4 v=23
6352 On ch=1 n=c5 v=26
6359 Off ch=1 n=a4 v=64
6361 Off ch=1 n=c5 v=64
6367 Off ch=1 n=d4 v=64
6373 Off ch=1 n=d#4 v=64
6398 On ch=1 n=b5 v=36
6408 On ch=1 n=c#5 v=28
6411 On ch=1 n=a5 v=36
6423 Par ch=1 c=64 v=0
6424 On ch=1 n=e4 v=25
6425 Off ch=1 n=b5 v=64
6428 On ch=1 n=a4 v=26
6430 On ch=1 n=g5 v=45
6439 Off ch=1 n=c#5 v=64
6439 Off ch=1 n=a5 v=64
6442 Off ch=1 n=a4 v=64
6444 Off ch=1 n=e4 v=64
6448 Off ch=1 n=g5 v=64
6497 On ch=1 n=d#4 v=43
6500 On ch=1 n=f#5 v=51
6501 On ch=1 n=c#5 v=45
6514 Off ch=1 n=c#5 v=64
6514 Off ch=1 n=d#4 v=64
6521 On ch=1 n=g5 v=57
6523 On ch=1 n=e4 v=51
6524 On ch=1 n=a4 v=51
6532 Off ch=1 n=f#5 v=64
6534 Off ch=1 n=a4 v=64
6535 Off ch=1 n=e4 v=64
6537 Off ch=1 n=g5 v=64
6609 On ch=1 n=b5 v=61
6610 On ch=1 n=c#5 v=51
6613 On ch=1 n=a4 v=34
6614 On ch=1 n=g4 v=39
6626 Par ch=1 c=64 v=127
6658 Off ch=1 n=a4 v=64
6662 Off ch=1 n=c#5 v=64
6687 Off ch=1 n=b5 v=64
6692 On ch=1 n=a5 v=51
6695 On ch=1 n=d5 v=48
6699 Off ch=1 n=g4 v=64
6699 On ch=1 n=f#4 v=43
6701 Par ch=1 c=64 v=0
6703 On ch=1 n=a4 v=41
6714 Off ch=1 n=a4 v=64
6718 Off ch=1 n=f#4 v=64
6758 On ch=1 n=f4 v=61
6760 On ch=1 n=a4 v=36
6772 Off ch=1 n=a4 v=64
6773 Off ch=1 n=f4 v=64
6785 On ch=1 n=f#4 v=53
6785 On ch=1 n=a4 v=57
6796 Off ch=1 n=a4 v=64
6797 Off ch=1 n=f#4 v=64
6808 Off ch=1 n=a5 v=64
6844 Off ch=1 n=d5 v=64
6879 On ch=1 n=a4 v=51
6879 On ch=1 n=a5 v=74
6879 On ch=1 n=d6 v=69
6879 On ch=1 n=f#4 v=51
6912 Par ch=1 c=64 v=127
6938 Off ch=1 n=a4 v=64
6969 Off ch=1 n=f#4 v=64
6970 On ch=1 n=c#6 v=53
6972 On ch=1 n=g5 v=53
6973 On ch=1 n=e4 v=61
6975 On ch=1 n=a4 v=51
6978 Off ch=1 n=a5 v=64
6980 Off ch=1 n=d6 v=64
6982 Par ch=1 c=64 v=0
6985 Off ch=1 n=a4 v=64
6989 Off ch=1 n=c#6 v=64
6989 Off ch=1 n=e4 v=64
6991 Off ch=1 n=g5 v=64
7042 On ch=1 n=b5 v=61
7043 On ch=1 n=d4 v=57
7044 On ch=1 n=f#5 v=61
7044 On ch=1 n=a4 v=51
7054 Off ch=1 n=d4 v=64
7055 Off ch=1 n=a4 v=64
7059 Off ch=1 n=f#5 v=64
7059 Off ch=1 n=b5 v=64
7067 On ch=1 n=d5 v=61
7067 On ch=1 n=a5 v=74
7068 On ch=1 n=a4 v=51
7069 On ch=1 n=c#4 v=64
7077 Off ch=1 n=a4 v=64
7082 Off ch=1 n=d5 v=64
7082 Off ch=1 n=c#4 v=64
7082 Off ch=1 n=a5 v=64
7159 On ch=1 n=g6 v=69
7161 On ch=1 n=g5 v=64
7161 On ch=1 n=a5 v=64
7162 On ch=1 n=a3 v=53
7162 On ch=1 n=a4 v=51
7172 Par ch=1 c=64 v=127
7203 Off ch=1 n=g6 v=64
7205 On ch=1 n=c#4 v=61
7206 Off ch=1 n=a5 v=64
7207 Off ch=1 n=g5 v=64
7211 Off ch=1 n=a3 v=64
7215 Off ch=1 n=a4 v=64
7222 Off ch=1 n=c#4 v=64
7242 Par ch=1 c=64 v=0
7252 On ch=1 n=f#6 v=69
7252 On ch=1 n=f#5 v=69
7252 On ch=1 n=a4 v=61
7253 On ch=1 n=d4 v=57
7254 On ch=1 n=d6 v=69
7268 Off ch=1 n=a4 v=64
7270 Off ch=1 n=d4 v=64
7270 Off ch=1 n=f#5 v=64
7270 Off ch=1 n=f#6 v=64
7271 Off ch=1 n=d6 v=64
7325 On ch=1 n=e4 v=51
7325 On ch=1 n=e6 v=74
7326 On ch=1 n=c#6 v=48
7327 On ch=1 n=g5 v=51
7328 On ch=1 n=a4 v=43
7338 Off ch=1 n=g5 v=64
7340 Off ch=1 n=a4 v=64
7341 Off ch=1 n=e4 v=64
7343 Off ch=1 n=c#6 v=64
7348 On ch=1 n=d6 v=61
7351 On ch=1 n=a4 v=53
7351 On ch=1 n=a5 v=69
7352 Off ch=1 n=e6 v=64
7353 On ch=1 n=f#4 v=69
7362 Off ch=1 n=a5 v=64
7364 Off ch=1 n=f#4 v=64
7365 Off ch=1 n=a4 v=64
7365 Off ch=1 n=d6 v=64
7438 On ch=1 n=f#5 v=45
7441 On ch=1 n=d5 v=43
7444 On ch=1 n=a4 v=28
7445 On ch=1 n=d4 v=27
7454 Par ch=1 c=64 v=127
7470 Off ch=1 n=d5 v=64
7473 Off ch=1 n=a4 v=64
7489 Off ch=1 n=f#5 v=64
7501 On ch=1 n=b5 v=27
7502 Off ch=1 n=d4 v=64
7505 Par ch=1 c=64 v=0
7511 On ch=1 n=a5 v=45
7513 On ch=1 n=c#5 v=34
7516 Off ch=1 n=b5 v=64
7524 On ch=1 n=e4 v=41
7525 On ch=1 n=a4 v=36
7526 On ch=1 n=g5 v=43
7534 Off ch=1 n=a5 v=64
7536 Off ch=1 n=e4 v=64
7539 Off ch=1 n=a4 v=64
7539 Off ch=1 n=c#5 v=64
7543 Off ch=1 n=g5 v=64
7587 On ch=1 n=d#4 v=39
7591 On ch=1 n=f#5 v=53
7592 On ch=1 n=c#5 v=45
7599 Off ch=1 n=d#4 v=64
7604 Off ch=1 n=c#5 v=64
7612 On ch=1 n=g5 v=57
7616 On ch=1 n=a4 v=45
7616 On ch=1 n=e4 v=48
7627 Off ch=1 n=f#5 v=64
7628 Off ch=1 n=e4 v=64
7629 Off ch=1 n=a4 v=64
7630 Off ch=1 n=g5 v=64
7702 On ch=1 n=c#5 v=48
7703 On ch=1 n=b5 v=48
7709 On ch=1 n=g4 v=28
7711 On ch=1 n=a4 v=26
7715 Par ch=1 c=64 v=127
7737 Off ch=1 n=c#5 v=64
7747 Off ch=1 n=g4 v=64
7757 Off ch=1 n=a4 v=64
7766 Off ch=1 n=b5 v=64
7787 On ch=1 n=a5 v=51
7798 Off ch=1 n=a5 v=64
7821 On ch=1 n=d5 v=39
7822 On ch=1 n=a5 v=53
7825 On ch=1 n=a4 v=36
7828 Par ch=1 c=64 v=0
7829 On ch=1 n=f#4 v=27
7864 Par ch=1 c=64 v=127
7880 On ch=1 n=b5 v=51
7881 On ch=1 n=b4 v=45
7892 Off ch=1 n=a4 v=64
7922 On ch=1 n=c#5 v=45
7925 Off ch=1 n=d5 v=64
7926 Off ch=1 n=b4 v=64
7927 On ch=1 n=c#6 v=57
7933 Off ch=1 n=a5 v=64
7940 Off ch=1 n=b5 v=64
7956 Off ch=1 n=c#5 v=64
7961 Off ch=1 n=f#4 v=64
7968 On ch=1 n=d6 v=61
7970 On ch=1 n=d5 v=48
7978 Off ch=1 n=c#6 v=64
7986 Off ch=1 n=d6 v=64
7987 Off ch=1 n=d5 v=64
8020 On ch=1 n=d6 v=53
8022 Par ch=1 c=64 v=0
8022 On ch=1 n=d5 v=39
8022 On ch=1 n=b5 v=39
8026 On ch=1 n=g4 v=28
8047 Par ch=1 c=64 v=127
8069 On ch=1 n=e5 v=51
8069 Off ch=1 n=d5 v=64
8073 On ch=1 n=e6 v=61
8075 Off ch=1 n=g4 v=64
8078 Off ch=1 n=b5 v=64
8081 Off ch=1 n=e5 v=64
8084 Off ch=1 n=d6 v=64
8088 Off ch=1 n=e6 v=64
8121 On ch=1 n=a4 v=43
8123 On ch=1 n=f#5 v=41
8123 On ch=1 n=f#6 v=53
8124 On ch=1 n=a5 v=45
8124 Par ch=1 c=64 v=0
8154 Par ch=1 c=64 v=127
8158 Off ch=1 n=f#5 v=64
8163 Off ch=1 n=a5 v=64
8171 On ch=1 n=g5 v=45
8221 On ch=1 n=a5 v=36
8249 Off ch=1 n=f#6 v=64
8267 On ch=1 n=b5 v=48
8269 Off ch=1 n=a5 v=64
8279 Off ch=1 n=g5 v=64
8280 Off ch=1 n=b5 v=64
8325 On ch=1 n=b5 v=27
8327 On ch=1 n=e6 v=25
8327 On ch=1 n=g5 v=22
8328 Par ch=1 c=64 v=0
8352 Par ch=1 c=64 v=127
8374 On ch=1 n=c#6 v=43
8381 Off ch=1 n=b5 v=64
8385 Off ch=1 n=g5 v=64
8391 Off ch=1 n=c#6 v=64
8427 Off ch=1 n=a4 v=64
8429 On ch=1 n=c#6 v=31
8433 Par ch=1 c=64 v=0
8433 On ch=1 n=g5 v=26
8441 On ch=1 n=d5 v=27
8476 Par ch=1 c=64 v=127
8524 Par ch=1 c=64 v=0
8537 On ch=1 n=d6 v=28
8539 Off ch=1 n=g5 v=64
8541 On ch=1 n=f#5 v=25
8548 Off ch=1 n=c#6 v=64
8558 Off ch=1 n=e6 v=64
8562 Off ch=1 n=d5 v=64
8570 Par ch=1 c=64 v=127
8599 Off ch=1 n=f#5 v=64
8605 Off ch=1 n=d6 v=64
8624 Par ch=1 c=64 v=0
8663 On ch=1 n=c6 v=27
8665 On ch=1 n=a4 v=26
8666 On ch=1 n=e5 v=31
8666 On ch=1 n=e6 v=26
8686 Par ch=1 c=64 v=127
8710 Off ch=1 n=e5 v=64
8721 On ch=1 n=f#6 v=53
8723 On ch=1 n=f#5 v=39
8724 Off ch=1 n=c6 v=64
8735 Off ch=1 n=a4 v=64
8744 Off ch=1 n=f#5 v=64
8749 Off ch=1 n=e6 v=64
8772 On ch=1 n=g6 v=53
8773 On ch=1 n=g5 v=41
8773 On ch=1 n=b5 v=51
8774 On ch=1 n=b4 v=43
8775 Par ch=1 c=64 v=0
8800 Par ch=1 c=64 v=127
8800 Off ch=1 n=f#6 v=64
8826 On ch=1 n=a6 v=53
8830 On ch=1 n=a5 v=34
8837 Off ch=1 n=g5 v=64
8843 Off ch=1 n=g6 v=64
8870 Off ch=1 n=a5 v=64
8871 On ch=1 n=g6 v=45
8880 On ch=1 n=g5 v=27
8883 Off ch=1 n=a6 v=64
8916 Off ch=1 n=g5 v=64
8917 On ch=1 n=f#6 v=45
8917 On ch=1 n=f#5 v=33
8931 Off ch=1 n=g6 v=64
8940 Off ch=1 n=b4 v=64
8946 Off ch=1 n=f#5 v=64
8960 Off ch=1 n=f#6 v=64
8970 On ch=1 n=g6 v=39
8970 Par ch=1 c=64 v=0
8972 On ch=1 n=g5 v=34
8975 On ch=1 n=d#6 v=29
8979 On ch=1 n=b4 v=23
8991 Off ch=1 n=b5 v=64
9020 Par ch=1 c=64 v=127
9022 On ch=1 n=f#6 v=36
9025 Off ch=1 n=g6 v=64
9028 On ch=1 n=f#5 v=33
9035 Off ch=1 n=g5 v=64
9041 Off ch=1 n=f#5 v=64
9044 Off ch=1 n=b4 v=64
9062 Off ch=1 n=d#6 v=64
9072 Off ch=1 n=f#6 v=64
9080 On ch=1 n=e6 v=28
9082 On ch=1 n=e5 v=26
9086 On ch=1 n=c6 v=27
9091 On ch=1 n=c5 v=26
9097 Par ch=1 c=64 v=0
9121 Par ch=1 c=64 v=127
9136 On ch=1 n=b4 v=48
9145 Off ch=1 n=c5 v=64
9183 On ch=1 n=a4 v=61
9184 Off ch=1 n=e6 v=64
9193 Off ch=1 n=c6 v=64
9198 Off ch=1 n=b4 v=64
9200 Off ch=1 n=e5 v=64
9206 Off ch=1 n=a4 v=64
9228 On ch=1 n=g4 v=61
9247 Off ch=1 n=g4 v=64
9280 On ch=1 n=d6 v=51
9281 On ch=1 n=d5 v=48
9281 On ch=1 n=g4 v=48
9282 On ch=1 n=a5 v=57
9291 Par ch=1 c=64 v=0
9315 Par ch=1 c=64 v=127
9327 On ch=1 n=f#4 v=51
9328 Off ch=1 n=g4 v=64
9328 On ch=1 n=c6 v=57
9340 Off ch=1 n=d6 v=64
9373 Off ch=1 n=f#4 v=64
9378 Par ch=1 c=64 v=0
9380 On ch=1 n=b5 v=61
9381 On ch=1 n=g5 v=61
9385 On ch=1 n=g4 v=51
9391 Off ch=1 n=a5 v=64
9393 Off ch=1 n=c6 v=64
9416 Par ch=1 c=64 v=127
9429 Off ch=1 n=g4 v=64
9434 On ch=1 n=f#4 v=57
9445 Off ch=1 n=d5 v=64
9451 Off ch=1 n=g5 v=64
9491 On ch=1 n=e4 v=41
9491 On ch=1 n=c6 v=57
9493 On ch=1 n=c5 v=41
9493 On ch=1 n=g5 v=45
9495 Off ch=1 n=f#4 v=64
9498 Par ch=1 c=64 v=0
9503 Off ch=1 n=b5 v=64
9535 Par ch=1 c=64 v=127
9552 On ch=1 n=f#4 v=39
9553 On ch=1 n=a5 v=26
9566 Off ch=1 n=c5 v=64
9566 Off ch=1 n=e4 v=64
9573 Off ch=1 n=g5 v=64
9573 Off ch=1 n=c6 v=64
9574 Off ch=1 n=a5 v=64
9614 Off ch=1 n=f#4 v=64
9618 On ch=1 n=a5 v=37
9618 On ch=1 n=b5 v=41
9622 On ch=1 n=d5 v=31
9622 On ch=1 n=a4 v=28
9625 Par ch=1 c=64 v=0
9625 On ch=1 n=g4 v=20
9649 Par ch=1 c=64 v=127
9674 On ch=1 n=d4 v=39
9679 On ch=1 n=g5 v=39
9679 Off ch=1 n=g4 v=64
9682 Off ch=1 n=a4 v=64
9690 Off ch=1 n=b5 v=64
9691 Off ch=1 n=d4 v=64
9693 Off ch=1 n=a5 v=64
9697 Off ch=1 n=d5 v=64
9699 Off ch=1 n=g5 v=64
9749 On ch=1 n=a5 v=31
9751 On ch=1 n=d5 v=27
9751 On ch=1 n=g5 v=23
9752 On ch=1 n=d4 v=26
9753 On ch=1 n=a4 v=27
9754 On ch=1 n=g4 v=27
9764 Par ch=1 c=64 v=0
9788 Par ch=1 c=64 v=127
9818 On ch=1 n=f#5 v=29
9823 On ch=1 n=f#4 v=31
9826 Off ch=1 n=g5 v=64
9831 Par ch=1 c=64 v=0
9837 Off ch=1 n=g4 v=64
9856 Par ch=1 c=64 v=127
9884 Off ch=1 n=d5 v=64
9894 On ch=1 n=e5 v=25
9899 On ch=1 n=e4 v=22
9901 Off ch=1 n=f#4 v=64
9908 Off ch=1 n=d4 v=64
9943 Par ch=1 c=64 v=0
9967 Par ch=1 c=64 v=127
9981 On ch=1 n=d4 v=26
9982 On ch=1 n=d5 v=25
9990 Off ch=1 n=e4 v=64
9993 Off ch=1 n=e5 v=64
9997 Off ch=1 n=f#5 v=64
9998 Off ch=1 n=a4 v=64
10008 Off ch=1 n=a5 v=64
10011 Off ch=1 n=d4 v=64
10013 Off ch=1 n=d5 v=64
10103 On ch=1 n=f#5 v=26
10104 Par ch=1 c=64 v=0
10109 On ch=1 n=d5 v=26
10109 On ch=1 n=d4 v=20
10115 On ch=1 n=g4 v=21
10135 Par ch=1 c=64 v=127
10163 On ch=1 n=d#4 v=36
10165 Off ch=1 n=d5 v=64
10166 Off ch=1 n=f#5 v=64
10167 On ch=1 n=c5 v=36
10178 Off ch=1 n=c5 v=64
10179 Off ch=1 n=g4 v=64
10180 Off ch=1 n=d#4 v=64
10181 Off ch=1 n=d4 v=64
10215 On ch=1 n=b5 v=34
10217 On ch=1 n=c#5 v=31
10222 On ch=1 n=a5 v=51
10235 On ch=1 n=e4 v=36
10236 Off ch=1 n=b5 v=64
10238 On ch=1 n=g5 v=45
10244 Par ch=1 c=64 v=0
10248 Off ch=1 n=a5 v=64
10248 Off ch=1 n=c#5 v=64
10255 Off ch=1 n=e4 v=64
10257 Off ch=1 n=g5 v=64
10306 On ch=1 n=d#4 v=39
10308 On ch=1 n=f#5 v=48
10308 On ch=1 n=c#5 v=43
10321 Off ch=1 n=c#5 v=64
10322 Off ch=1 n=d#4 v=64
10328 On ch=1 n=g5 v=51
10333 On ch=1 n=e4 v=44
10339 Off ch=1 n=f#5 v=64
10346 Off ch=1 n=e4 v=64
10346 Off ch=1 n=g5 v=64
10420 On ch=1 n=b5 v=51
10420 On ch=1 n=c#5 v=48
10426 Par ch=1 c=64 v=127
10426 On ch=1 n=g4 v=27
10427 On ch=1 n=a4 v=26
10452 Off ch=1 n=a4 v=64
10456 Off ch=1 n=g4 v=64
10458 Off ch=1 n=c#5 v=64
10499 Off ch=1 n=b5 v=64
10503 On ch=1 n=a5 v=39
10508 On ch=1 n=d5 v=41
10510 On ch=1 n=f#4 v=28
10513 On ch=1 n=a4 v=36
10514 Par ch=1 c=64 v=0
10533 Off ch=1 n=a4 v=64
10533 Off ch=1 n=f#4 v=64
10574 On ch=1 n=f4 v=57
10587 Off ch=1 n=f4 v=64
10600 On ch=1 n=f#4 v=51
10601 On ch=1 n=a4 v=51
10609 Off ch=1 n=f#4 v=64
10611 Off ch=1 n=a4 v=64
10629 Off ch=1 n=a5 v=64
10647 Off ch=1 n=d5 v=64
10691 On ch=1 n=d6 v=61
10692 On ch=1 n=a5 v=64
10692 On ch=1 n=a4 v=41
10693 On ch=1 n=f#4 v=33
10713 Par ch=1 c=64 v=127
10748 Off ch=1 n=a4 v=64
10774 On ch=1 n=c#6 v=57
10778 On ch=1 n=g5 v=53
10781 On ch=1 n=e4 v=48
10782 On ch=1 n=a4 v=28
10783 Off ch=1 n=d6 v=64
10784 Off ch=1 n=a5 v=64
10789 Off ch=1 n=f#4 v=64
10792 Off ch=1 n=e4 v=64
10794 Off ch=1 n=c#6 v=64
10794 Off ch=1 n=a4 v=64
10796 Par ch=1 c=64 v=0
10797 Off ch=1 n=g5 v=64
10845 On ch=1 n=d4 v=61
10845 On ch=1 n=b5 v=53
10848 On ch=1 n=f#5 v=53
10853 On ch=1 n=a4 v=27
10857 Off ch=1 n=d4 v=64
10862 Off ch=1 n=a4 v=64
10864 Off ch=1 n=b5 v=64
10866 Off ch=1 n=f#5 v=64
10868 On ch=1 n=a5 v=64
10870 On ch=1 n=d5 v=48
10871 On ch=1 n=c#4 v=57
10871 On ch=1 n=a4 v=43
10873 On ch=1 n=e5 v=43
10878 Off ch=1 n=c#4 v=64
10882 Off ch=1 n=d5 v=64
10882 Off ch=1 n=a4 v=64
10883 Off ch=1 n=a5 v=64
10885 Off ch=1 n=e5 v=64
10953 On ch=1 n=g6 v=69
10956 On ch=1 n=g5 v=69
10956 On ch=1 n=a4 v=69
10956 On ch=1 n=a5 v=82
10956 On ch=1 n=a3 v=57
10961 Par ch=1 c=64 v=127
11001 On ch=1 n=c#4 v=69
11006 Off ch=1 n=a3 v=64
11011 Off ch=1 n=a4 v=64
11021 Off ch=1 n=c#4 v=64
11041 Par ch=1 c=64 v=0
11044 Off ch=1 n=g6 v=64
11050 On ch=1 n=f#6 v=64
11051 On ch=1 n=d4 v=64
11051 On ch=1 n=d6 v=57
11054 Off ch=1 n=g5 v=64
11054 On ch=1 n=b4 v=41
11055 Off ch=1 n=a5 v=64
11056 On ch=1 n=a4 v=45
11065 Off ch=1 n=a4 v=64
11066 Off ch=1 n=b4 v=64
11068 Off ch=1 n=d6 v=64
11069 Off ch=1 n=d4 v=64
11071 Off ch=1 n=f#6 v=64
11125 On ch=1 n=e4 v=57
11125 On ch=1 n=e6 v=57
11125 On ch=1 n=a4 v=53
11126 On ch=1 n=c#6 v=51
11126 On ch=1 n=g5 v=51
11137 Off ch=1 n=a4 v=64
11137 Off ch=1 n=g5 v=64
11137 Off ch=1 n=e4 v=64
11142 Off ch=1 n=c#6 v=64
11142 Off ch=1 n=e6 v=64
11145 On ch=1 n=d6 v=61
11149 On ch=1 n=a5 v=69
11152 On ch=1 n=f#4 v=61
11159 Off ch=1 n=f#4 v=64
11161 Off ch=1 n=d6 v=64
11162 Off ch=1 n=a5 v=64
11236 On ch=1 n=f#5 v=48
11237 On ch=1 n=d5 v=43
11239 Par ch=1 c=64 v=127
11240 On ch=1 n=d4 v=36
11241 On ch=1 n=a4 v=34
11252 Off ch=1 n=d4 v=64
11253 Off ch=1 n=a4 v=64
11254 Off ch=1 n=d5 v=64
11260 Off ch=1 n=f#5 v=64
11296 Par ch=1 c=64 v=0
11303 On ch=1 n=b5 v=36
11307 On ch=1 n=c#5 v=45
11309 On ch=1 n=a5 v=53
11319 Off ch=1 n=b5 v=64
11319 On ch=1 n=a4 v=39
11319 On ch=1 n=e4 v=43
11326 On ch=1 n=g5 v=51
11335 Off ch=1 n=a5 v=64
11338 Off ch=1 n=c#5 v=64
11340 Off ch=1 n=a4 v=64
11341 Off ch=1 n=e4 v=64
11345 Off ch=1 n=g5 v=64
11390 On ch=1 n=d#4 v=48
11396 On ch=1 n=f#5 v=57
11397 On ch=1 n=c#5 v=43
11404 Off ch=1 n=d#4 v=64
11408 Off ch=1 n=c#5 v=64
11417 On ch=1 n=g5 v=64
11417 On ch=1 n=e4 v=64
11418 On ch=1 n=a4 v=57
11429 Off ch=1 n=a4 v=64
11431 Off ch=1 n=e4 v=64
11432 Off ch=1 n=f#5 v=64
11433 Off ch=1 n=g5 v=64
11510 On ch=1 n=b5 v=48
11511 On ch=1 n=c#5 v=45
11514 On ch=1 n=a4 v=41
11519 Par ch=1 c=64 v=127
11520 On ch=1 n=g4 v=26
11525 Off ch=1 n=a4 v=64
11528 Off ch=1 n=g4 v=64
11530 Off ch=1 n=c#5 v=64
11537 Off ch=1 n=b5 v=64
11622 On ch=1 n=a5 v=41
11632 Off ch=1 n=a5 v=64
11659 On ch=1 n=a5 v=43
11663 On ch=1 n=a4 v=26
11665 On ch=1 n=f#4 v=25
11668 On ch=1 n=d5 v=26
11669 Par ch=1 c=64 v=0
11705 Par ch=1 c=64 v=127
11722 On ch=1 n=b4 v=36
11723 On ch=1 n=b5 v=50
11731 Off ch=1 n=a4 v=64
11767 On ch=1 n=c#6 v=57
11769 Off ch=1 n=a5 v=64
11770 On ch=1 n=c#5 v=41
11776 Off ch=1 n=b4 v=64
11783 Off ch=1 n=d5 v=64
11791 Off ch=1 n=b5 v=64
11802 Off ch=1 n=c#5 v=64
11807 Off ch=1 n=f#4 v=64
11815 On ch=1 n=d6 v=61
11821 On ch=1 n=d5 v=45
11824 Off ch=1 n=c#6 v=64
11833 Off ch=1 n=d6 v=64
11839 Off ch=1 n=d5 v=64
11874 On ch=1 n=d6 v=51
11875 On ch=1 n=b5 v=48
11879 On ch=1 n=d5 v=43
11883 Par ch=1 c=64 v=0
11883 On ch=1 n=g4 v=33
11907 Par ch=1 c=64 v=127
11936 On ch=1 n=e6 v=51
11940 Off ch=1 n=g4 v=64
11941 Off ch=1 n=d5 v=64
11947 Off ch=1 n=b5 v=64
11956 Off ch=1 n=e6 v=64
11957 Off ch=1 n=d6 v=64
12019 On ch=1 n=a4 v=27
12021 On ch=1 n=f#6 v=34
12024 On ch=1 n=f#5 v=27
12025 On ch=1 n=a5 v=25
12032 Par ch=1 c=64 v=0
12056 Par ch=1 c=64 v=127
12070 Off ch=1 n=a5 v=64
12074 Off ch=1 n=f#5 v=64
12089 On ch=1 n=g5 v=33
12149 On ch=1 n=a5 v=28
12183 Off ch=1 n=f#6 v=64
12209 On ch=1 n=b5 v=33
12212 Off ch=1 n=a5 v=64
12230 Off ch=1 n=g5 v=64
12232 Off ch=1 n=b5 v=64
12282 On ch=1 n=b5 v=28
12284 On ch=1 n=e6 v=31
12288 On ch=1 n=g5 v=22
12296 Par ch=1 c=64 v=0
12315 Par ch=1 c=64 v=127
12355 On ch=1 n=c#6 v=36
12365 Off ch=1 n=b5 v=64
12376 Off ch=1 n=c#6 v=64
12385 Off ch=1 n=g5 v=64
12443 On ch=1 n=c#6 v=28
12454 On ch=1 n=g5 v=21
12457 Off ch=1 n=a4 v=64
12457 Par ch=1 c=64 v=0
12468 On ch=1 n=d5 v=17
12488 Par ch=1 c=64 v=127
12718 Off ch=1 n=g5 v=64
12718 On ch=1 n=d6 v=28
12726 On ch=1 n=f#5 v=16
12735 Off ch=1 n=c#6 v=64
12742 Par ch=1 c=64 v=0
12853 Off ch=1 n=e6 v=64
12890 Off ch=1 n=d5 v=64
12959 Off ch=1 n=f#5 v=64
12960 Off ch=1 n=d6 v=64
13495 Meta TrkEnd
TrkEnd
