MFile 1 2 120
MTrk
0 TimeSig 4/4 24 8
0 Tempo 600000
0 Meta TrkEnd
TrkEnd
MTrk
0 Meta Text "Piano     "
298 On ch=1 n=g#5 v=39
342 Par ch=1 c=64 v=127
350 On ch=1 n=g5 v=31
352 On ch=1 n=e5 v=28
376 Off ch=1 n=e5 v=64
378 Off ch=1 n=g5 v=64
384 Off ch=1 n=g#5 v=64
406 On ch=1 n=a5 v=51
408 Par ch=1 c=64 v=0
411 On ch=1 n=a2 v=33
412 On ch=1 n=a3 v=28
425 Par ch=1 c=64 v=127
444 Off ch=1 n=a5 v=64
444 On ch=1 n=g5 v=51
449 On ch=1 n=e5 v=36
454 Off ch=1 n=g5 v=64
461 Off ch=1 n=e5 v=64
481 On ch=1 n=c#6 v=69
514 Off ch=1 n=c#6 v=64
520 On ch=1 n=a5 v=43
525 On ch=1 n=g5 v=22
534 Off ch=1 n=a2 v=64
535 Off ch=1 n=g5 v=64
536 Off ch=1 n=a5 v=64
542 Off ch=1 n=a3 v=64
543 Par ch=1 c=64 v=0
549 Par ch=1 c=64 v=127
554 On ch=1 n=f#6 v=69
586 Off ch=1 n=f#6 v=64
591 On ch=1 n=a5 v=29
597 On ch=1 n=g5 v=27
621 Off ch=1 n=g5 v=64
626 Off ch=1 n=a5 v=64
631 On ch=1 n=e6 v=64
632 On ch=1 n=c#4 v=53
644 Par ch=1 c=64 v=0
655 Par ch=1 c=64 v=127
664 Off ch=1 n=e6 v=64
673 On ch=1 n=f#5 v=31
674 On ch=1 n=a5 v=27
685 Off ch=1 n=f#5 v=64
689 Off ch=1 n=a5 v=64
703 Off ch=1 n=c#4 v=64
706 On ch=1 n=d4 v=39
706 On ch=1 n=a3 v=36
707 On ch=1 n=d6 v=61
709 Par ch=1 c=64 v=0
732 Par ch=1 c=64 v=127
746 On ch=1 n=f#5 v=41
749 Off ch=1 n=d6 v=64
753 On ch=1 n=d5 v=27
768 Off ch=1 n=d5 v=64
770 Off ch=1 n=f#5 v=64
780 On ch=1 n=f#4 v=51
786 On ch=1 n=a5 v=57
795 Off ch=1 n=a3 v=64
795 Off ch=1 n=d4 v=64
798 Par ch=1 c=64 v=0
826 On ch=1 n=f#5 v=41
827 On ch=1 n=d5 v=39
827 Par ch=1 c=64 v=127
833 Off ch=1 n=a5 v=64
841 Off ch=1 n=d5 v=64
844 Off ch=1 n=f#5 v=64
858 Off ch=1 n=f#4 v=64
860 On ch=1 n=b4 v=51
908 Par ch=1 c=64 v=0
916 On ch=1 n=f#5 v=57
919 On ch=1 n=d5 v=34
944 Par ch=1 c=64 v=127
944 On ch=1 n=a4 v=61
944 Off ch=1 n=b4 v=64
955 Off ch=1 n=d5 v=64
958 Off ch=1 n=f#5 v=64
958 On ch=1 n=a5 v=74
992 On ch=1 n=f#5 v=64
996 On ch=1 n=d5 v=45
1001 Off ch=1 n=a5 v=64
1017 Off ch=1 n=d5 v=64
1022 Off ch=1 n=f#5 v=64
1029 On ch=1 n=a5 v=74
1033 On ch=1 n=a3 v=43
1033 Off ch=1 n=a4 v=64
1040 Par ch=1 c=64 v=0
1046 Par ch=1 c=64 v=127
1056 Off ch=1 n=a5 v=64
1062 On ch=1 n=c#5 v=57
1062 On ch=1 n=e5 v=60
1062 On ch=1 n=a4 v=57
1062 On ch=1 n=g4 v=61
1074 Off ch=1 n=g4 v=64
1078 Off ch=1 n=a4 v=64
1078 Off ch=1 n=c#5 v=64
1080 Off ch=1 n=e5 v=64
1081 Off ch=1 n=a3 v=64
1087 Par ch=1 c=64 v=0
1100 On ch=1 n=e5 v=69
1100 On ch=1 n=c#5 v=53
1100 On ch=1 n=g4 v=64
1100 On ch=1 n=a4 v=57
1106 Par ch=1 c=64 v=127
1134 Off ch=1 n=g4 v=64
1136 On ch=1 n=f#4 v=57
1137 On ch=1 n=f#5 v=64
1147 Off ch=1 n=c#5 v=64
1153 Off ch=1 n=e5 v=64
1169 Off ch=1 n=f#4 v=64
1172 Off ch=1 n=f#5 v=64
1173 On ch=1 n=g5 v=64
1176 On ch=1 n=e4 v=61
1208 On ch=1 n=c#5 v=48
1210 Off ch=1 n=g5 v=64
1210 On ch=1 n=e5 v=51
1220 Off ch=1 n=c#5 v=64
1230 Off ch=1 n=e5 v=64
1241 Par ch=1 c=64 v=0
1243 On ch=1 n=b5 v=69
1245 Off ch=1 n=a4 v=64
1251 On ch=1 n=a2 v=48
1251 On ch=1 n=a3 v=53
1252 Off ch=1 n=e4 v=64
1259 Par ch=1 c=64 v=127
1277 Off ch=1 n=b5 v=64
1286 On ch=1 n=d5 v=28
1297 Off ch=1 n=a3 v=64
1300 Off ch=1 n=d5 v=64
1302 Off ch=1 n=a2 v=64
1318 Par ch=1 c=64 v=0
1318 On ch=1 n=a5 v=74
1324 On ch=1 n=a3 v=43
1325 On ch=1 n=d3 v=48
1335 Par ch=1 c=64 v=127
1354 On ch=1 n=d5 v=48
1354 On ch=1 n=a4 v=45
1359 Off ch=1 n=a5 v=64
1372 Off ch=1 n=a4 v=64
1384 Off ch=1 n=d5 v=64
1389 Par ch=1 c=64 v=0
1395 On ch=1 n=f#5 v=57
1397 On ch=1 n=f#3 v=51
1400 Off ch=1 n=a3 v=64
1401 Par ch=1 c=64 v=127
1430 Off ch=1 n=d3 v=64
1433 Off ch=1 n=f#5 v=64
1435 On ch=1 n=d5 v=43
1441 On ch=1 n=a4 v=26
1451 Off ch=1 n=d5 v=64
1452 Off ch=1 n=a4 v=64
1472 Off ch=1 n=f#3 v=64
1474 On ch=1 n=a3 v=39
1477 On ch=1 n=e5 v=57
1484 Par ch=1 c=64 v=0
1513 Par ch=1 c=64 v=127
1516 Off ch=1 n=e5 v=64
1518 On ch=1 n=c#5 v=48
1528 Off ch=1 n=c#5 v=64
1544 Off ch=1 n=a3 v=64
1566 On ch=1 n=g#5 v=53
1610 On ch=1 n=e5 v=28
1617 On ch=1 n=g5 v=23
1626 On ch=1 n=a2 v=51
1630 Off ch=1 n=e5 v=64
1634 Off ch=1 n=g5 v=64
1635 Par ch=1 c=64 v=0
1640 Off ch=1 n=g#5 v=64
1643 Off ch=1 n=a2 v=64
1644 On ch=1 n=a3 v=61
1648 On ch=1 n=a5 v=69
1659 Par ch=1 c=64 v=127
1684 On ch=1 n=g5 v=51
1687 On ch=1 n=e5 v=34
1690 Off ch=1 n=a5 v=64
1693 Off ch=1 n=g5 v=64
1698 Off ch=1 n=e5 v=64
1718 On ch=1 n=c#4 v=41
1758 On ch=1 n=a4 v=51
1760 On ch=1 n=g4 v=41
1774 Off ch=1 n=g4 v=64
1776 Off ch=1 n=a4 v=64
1800 On ch=1 n=f#4 v=64
1806 Off ch=1 n=c#4 v=64
1832 On ch=1 n=a4 v=61
1834 On ch=1 n=g4 v=53
1865 Off ch=1 n=g4 v=64
1871 On ch=1 n=c#5 v=69
1872 Off ch=1 n=a4 v=64
1872 Off ch=1 n=a3 v=64
1878 On ch=1 n=e4 v=69
1880 Off ch=1 n=f#4 v=64
1908 On ch=1 n=a4 v=57
1910 Off ch=1 n=c#5 v=64
1911 On ch=1 n=g4 v=51
1933 Off ch=1 n=g4 v=64
1936 Par ch=1 c=64 v=0
1944 On ch=1 n=d5 v=69
1945 Off ch=1 n=a4 v=64
1948 Par ch=1 c=64 v=127
1948 On ch=1 n=d4 v=69
1951 On ch=1 n=d3 v=54
1952 Off ch=1 n=e4 v=64
1975 Off ch=1 n=d5 v=64
1982 On ch=1 n=f#4 v=51
1982 On ch=1 n=a4 v=57
1993 Off ch=1 n=f#4 v=64
1994 Off ch=1 n=a4 v=64
2017 On ch=1 n=f#5 v=64
2055 On ch=1 n=a4 v=53
2056 Off ch=1 n=f#5 v=64
2056 On ch=1 n=d5 v=51
2068 Off ch=1 n=a4 v=64
2070 Off ch=1 n=d5 v=64
2090 On ch=1 n=b5 v=74
2095 Par ch=1 c=64 v=0
2107 Par ch=1 c=64 v=127
2129 On ch=1 n=d5 v=39
2129 On ch=1 n=f#5 v=39
2132 Off ch=1 n=b5 v=64
2142 Off ch=1 n=d5 v=64
2145 Off ch=1 n=f#5 v=64
2164 On ch=1 n=a5 v=74
2164 Off ch=1 n=d3 v=64
2166 Par ch=1 c=64 v=0
2167 On ch=1 n=c4 v=69
2168 On ch=1 n=c3 v=64
2175 Off ch=1 n=d4 v=64
2178 Par ch=1 c=64 v=127
2202 On ch=1 n=f#5 v=57
2205 Off ch=1 n=a5 v=64
2207 On ch=1 n=d5 v=27
2217 Off ch=1 n=d5 v=64
2222 Off ch=1 n=f#5 v=64
2235 On ch=1 n=g5 v=69
2238 Par ch=1 c=64 v=0
2240 Off ch=1 n=c3 v=64
2246 On ch=1 n=b3 v=69
2247 On ch=1 n=b2 v=48
2248 Off ch=1 n=c4 v=64
2250 Par ch=1 c=64 v=127
2272 On ch=1 n=d5 v=51
2275 On ch=1 n=a4 v=29
2283 Off ch=1 n=d5 v=64
2283 Off ch=1 n=g5 v=64
2286 Off ch=1 n=a4 v=64
2308 On ch=1 n=b5 v=82
2338 Off ch=1 n=b5 v=64
2345 On ch=1 n=d5 v=45
2346 On ch=1 n=g5 v=41
2357 Off ch=1 n=d5 v=64
2360 Off ch=1 n=g5 v=64
2378 On ch=1 n=e6 v=69
2387 Par ch=1 c=64 v=0
2392 Par ch=1 c=64 v=127
2414 Off ch=1 n=e6 v=64
2415 On ch=1 n=g5 v=43
2424 On ch=1 n=e5 v=24
2433 Off ch=1 n=e5 v=64
2435 Off ch=1 n=g5 v=64
2448 On ch=1 n=a#2 v=51
2448 Off ch=1 n=b2 v=64
2450 On ch=1 n=a#3 v=61
2453 On ch=1 n=d6 v=57
2458 Par ch=1 c=64 v=0
2460 Off ch=1 n=b3 v=64
2469 Par ch=1 c=64 v=127
2490 Off ch=1 n=d6 v=64
2492 On ch=1 n=g5 v=33
2493 On ch=1 n=d5 v=33
2506 Off ch=1 n=d5 v=64
2516 Off ch=1 n=g5 v=64
2520 Off ch=1 n=a#2 v=64
2528 On ch=1 n=a3 v=57
2528 Off ch=1 n=a#3 v=64
2529 Par ch=1 c=64 v=0
2530 On ch=1 n=c#6 v=57
2530 On ch=1 n=a2 v=43
2547 Par ch=1 c=64 v=127
2573 On ch=1 n=c#5 v=45
2575 Off ch=1 n=c#6 v=64
2587 Off ch=1 n=c#5 v=64
2603 On ch=1 n=b3 v=51
2606 Off ch=1 n=a2 v=64
2609 Off ch=1 n=a3 v=64
2609 On ch=1 n=b2 v=36
2611 Par ch=1 c=64 v=0
2613 On ch=1 n=b5 v=53
2623 Par ch=1 c=64 v=127
2652 On ch=1 n=g5 v=41
2653 On ch=1 n=d5 v=39
2656 Off ch=1 n=b5 v=64
2668 Off ch=1 n=d5 v=64
2670 Off ch=1 n=g5 v=64
2691 Off ch=1 n=b2 v=64
2694 On ch=1 n=c4 v=45
2695 On ch=1 n=c3 v=34
2696 On ch=1 n=a5 v=53
2700 Par ch=1 c=64 v=0
2702 Off ch=1 n=b3 v=64
2717 Par ch=1 c=64 v=127
2744 On ch=1 n=d#5 v=36
2745 On ch=1 n=g5 v=28
2751 Off ch=1 n=a5 v=64
2757 Off ch=1 n=d#5 v=64
2759 Off ch=1 n=g5 v=64
2779 Off ch=1 n=c3 v=64
2784 On ch=1 n=c#4 v=36
2786 On ch=1 n=c#3 v=28
2791 Off ch=1 n=c4 v=64
2795 On ch=1 n=g#5 v=48
2799 Par ch=1 c=64 v=0
2816 Par ch=1 c=64 v=127
2838 On ch=1 n=g5 v=39
2840 On ch=1 n=e5 v=28
2859 Off ch=1 n=e5 v=64
2865 Off ch=1 n=g5 v=64
2873 Off ch=1 n=g#5 v=64
2885 On ch=1 n=a5 v=53
2918 Off ch=1 n=a5 v=64
2924 On ch=1 n=g5 v=27
2925 On ch=1 n=e5 v=34
2933 Off ch=1 n=g5 v=64
2937 Off ch=1 n=e5 v=64
2952 Off ch=1 n=c#4 v=64
2953 On ch=1 n=c#6 v=64
2960 On ch=1 n=a2 v=45
2962 Off ch=1 n=c#3 v=64
2984 Off ch=1 n=c#6 v=64
2992 On ch=1 n=a5 v=41
2998 On ch=1 n=g5 v=23
3008 Off ch=1 n=g5 v=64
3009 Off ch=1 n=a5 v=64
3027 On ch=1 n=f#6 v=64
3029 Par ch=1 c=64 v=0
3040 Par ch=1 c=64 v=127
3067 On ch=1 n=a5 v=43
3069 Off ch=1 n=f#6 v=64
3075 On ch=1 n=g5 v=24
3076 Off ch=1 n=a2 v=64
3092 Off ch=1 n=g5 v=64
3093 Off ch=1 n=a5 v=64
3097 On ch=1 n=c#4 v=67
3103 On ch=1 n=e6 v=61
3106 Par ch=1 c=64 v=0
3118 Par ch=1 c=64 v=127
3141 On ch=1 n=a5 v=43
3141 On ch=1 n=g5 v=34
3142 Off ch=1 n=e6 v=64
3157 Off ch=1 n=g5 v=64
3166 Off ch=1 n=a5 v=64
3175 Off ch=1 n=c#4 v=64
3176 On ch=1 n=d4 v=57
3177 On ch=1 n=d6 v=57
3182 On ch=1 n=a3 v=45
3183 Par ch=1 c=64 v=0
3200 Par ch=1 c=64 v=127
3215 On ch=1 n=f#5 v=31
3219 Off ch=1 n=d6 v=64
3220 On ch=1 n=a5 v=23
3227 Off ch=1 n=f#5 v=64
3227 Off ch=1 n=a5 v=64
3253 On ch=1 n=a5 v=48
3253 On ch=1 n=f#4 v=64
3259 Off ch=1 n=d4 v=64
3272 Par ch=1 c=64 v=0
3292 On ch=1 n=f#5 v=34
3293 On ch=1 n=d5 v=36
3307 Par ch=1 c=64 v=127
3332 Off ch=1 n=d5 v=64
3333 On ch=1 n=b4 v=64
3333 Off ch=1 n=a3 v=64
3334 Off ch=1 n=a5 v=64
3336 Off ch=1 n=f#5 v=64
3341 Off ch=1 n=f#4 v=64
3371 On ch=1 n=f#5 v=53
3372 On ch=1 n=d5 v=43
3398 Off ch=1 n=d5 v=64
3403 Off ch=1 n=f#5 v=64
3408 On ch=1 n=a5 v=74
3414 On ch=1 n=a4 v=61
3418 Off ch=1 n=b4 v=64
3442 On ch=1 n=f#5 v=57
3443 Off ch=1 n=a5 v=64
3446 On ch=1 n=d5 v=39
3460 Off ch=1 n=d5 v=64
3471 Off ch=1 n=f#5 v=64
3473 Par ch=1 c=64 v=0
3478 On ch=1 n=a5 v=74
3484 On ch=1 n=a3 v=51
3491 Par ch=1 c=64 v=127
3500 Off ch=1 n=a4 v=64
3505 Off ch=1 n=a5 v=64
3512 On ch=1 n=c#5 v=48
3513 On ch=1 n=e5 v=53
3513 On ch=1 n=a4 v=69
3513 On ch=1 n=g4 v=69
3520 Off ch=1 n=a3 v=64
3526 Off ch=1 n=g4 v=64
3526 Off ch=1 n=a4 v=64
3527 Off ch=1 n=c#5 v=64
3531 Off ch=1 n=e5 v=64
3550 On ch=1 n=e5 v=61
3550 On ch=1 n=c#5 v=53
3550 On ch=1 n=g4 v=69
3550 On ch=1 n=a4 v=69
3585 Off ch=1 n=c#5 v=64
3586 On ch=1 n=f#5 v=61
3586 On ch=1 n=f#4 v=69
3598 Off ch=1 n=g4 v=64
3599 Off ch=1 n=e5 v=64
3614 Par ch=1 c=64 v=0
3620 On ch=1 n=g5 v=64
3620 On ch=1 n=e4 v=64
3624 Off ch=1 n=f#4 v=64
3631 Off ch=1 n=f#5 v=64
3632 Par ch=1 c=64 v=127
3655 On ch=1 n=e5 v=61
3656 On ch=1 n=c#5 v=48
3656 Off ch=1 n=g5 v=64
3668 Off ch=1 n=c#5 v=64
3676 Off ch=1 n=e5 v=64
3688 On ch=1 n=b5 v=69
3689 Off ch=1 n=e4 v=64
3692 Par ch=1 c=64 v=0
3698 Par ch=1 c=64 v=127
3700 Off ch=1 n=a4 v=64
3700 On ch=1 n=a3 v=51
3701 On ch=1 n=a2 v=53
3712 Off ch=1 n=b5 v=64
3723 On ch=1 n=b4 v=45
3724 On ch=1 n=g5 v=48
3738 Off ch=1 n=b4 v=64
3745 Off ch=1 n=g5 v=64
3763 Par ch=1 c=64 v=0
3764 On ch=1 n=a5 v=61
3764 Off ch=1 n=a2 v=64
3764 On ch=1 n=d3 v=51
3781 Par ch=1 c=64 v=127
3799 On ch=1 n=f#5 v=45
3800 On ch=1 n=a4 v=45
3802 Off ch=1 n=a5 v=64
3818 Off ch=1 n=a4 v=64
3820 Off ch=1 n=f#5 v=64
3838 On ch=1 n=f#3 v=43
3839 On ch=1 n=f#5 v=64
3840 Off ch=1 n=a3 v=64
3847 Par ch=1 c=64 v=0
3858 Par ch=1 c=64 v=127
3881 On ch=1 n=d5 v=41
3882 On ch=1 n=a4 v=31
3883 Off ch=1 n=f#5 v=64
3894 Off ch=1 n=d5 v=64
3896 Off ch=1 n=a4 v=64
3912 Off ch=1 n=f#3 v=64
3912 On ch=1 n=a3 v=51
3915 Off ch=1 n=d3 v=64
3918 Par ch=1 c=64 v=0
3919 On ch=1 n=e5 v=57
3935 Par ch=1 c=64 v=127
3959 Off ch=1 n=e5 v=64
3961 On ch=1 n=c#5 v=39
3965 On ch=1 n=a4 v=26
3971 Off ch=1 n=c#5 v=64
3974 Off ch=1 n=a4 v=64
4000 Off ch=1 n=a3 v=64
4002 On ch=1 n=g#5 v=48
4043 On ch=1 n=e5 v=34
4046 On ch=1 n=g5 v=33
4050 On ch=1 n=a2 v=53
4064 Par ch=1 c=64 v=0
4071 Off ch=1 n=a2 v=64
4072 On ch=1 n=a3 v=61
4073 Off ch=1 n=g#5 v=64
4074 Off ch=1 n=g5 v=64
4075 Off ch=1 n=e5 v=64
4083 On ch=1 n=a5 v=64
4083 Par ch=1 c=64 v=127
4104 Off ch=1 n=a5 v=64
4131 On ch=1 n=a4 v=48
4141 Off ch=1 n=a4 v=64
4156 On ch=1 n=c#4 v=69
4200 Off ch=1 n=a3 v=64
4217 On ch=1 n=a4 v=41
4219 On ch=1 n=g4 v=31
4228 Off ch=1 n=a4 v=64
4232 Off ch=1 n=g4 v=64
4242 On ch=1 n=f#4 v=64
4257 Off ch=1 n=c#4 v=64
4283 On ch=1 n=a4 v=53
4285 On ch=1 n=g4 v=48
4294 Par ch=1 c=64 v=0
4300 Par ch=1 c=64 v=127
4316 Off ch=1 n=g4 v=64
4321 Off ch=1 n=a4 v=64
4321 On ch=1 n=c#5 v=64
4323 On ch=1 n=e4 v=51
4326 Off ch=1 n=f#4 v=64
4357 On ch=1 n=a4 v=61
4359 On ch=1 n=g4 v=41
4359 Off ch=1 n=c#5 v=64
4376 Par ch=1 c=64 v=0
4377 Off ch=1 n=g4 v=64
4388 Off ch=1 n=a4 v=64
4390 On ch=1 n=d5 v=64
4394 Par ch=1 c=64 v=127
4398 On ch=1 n=d4 v=57
4400 On ch=1 n=d3 v=36
4408 Off ch=1 n=e4 v=64
4415 Off ch=1 n=d5 v=64
4426 On ch=1 n=f#4 v=53
4427 On ch=1 n=a4 v=61
4440 Off ch=1 n=f#4 v=64
4441 Off ch=1 n=a4 v=64
4463 On ch=1 n=f#5 v=61
4491 Off ch=1 n=f#5 v=64
4498 On ch=1 n=a4 v=59
4498 On ch=1 n=d5 v=53
4507 Off ch=1 n=a4 v=64
4515 Off ch=1 n=d5 v=64
4532 On ch=1 n=b5 v=64
4569 On ch=1 n=f#5 v=45
4570 On ch=1 n=d5 v=41
4573 Off ch=1 n=b5 v=64
4584 Off ch=1 n=d5 v=64
4588 Off ch=1 n=f#5 v=64
4602 On ch=1 n=c4 v=64
4602 Off ch=1 n=d3 v=64
4603 On ch=1 n=a5 v=74
4604 On ch=1 n=c3 v=53
4612 Off ch=1 n=d4 v=64
4637 Off ch=1 n=a5 v=64
4638 On ch=1 n=f#5 v=53
4640 On ch=1 n=d5 v=39
4651 Off ch=1 n=f#5 v=64
4653 Off ch=1 n=d5 v=64
4671 On ch=1 n=g5 v=64
4675 Off ch=1 n=c3 v=64
4679 Par ch=1 c=64 v=0
4679 On ch=1 n=b3 v=61
4683 On ch=1 n=b2 v=48
4685 Par ch=1 c=64 v=127
4687 Off ch=1 n=c4 v=64
4707 On ch=1 n=d5 v=53
4718 Off ch=1 n=g5 v=64
4723 Off ch=1 n=d5 v=64
4743 On ch=1 n=b5 v=69
4780 On ch=1 n=d5 v=28
4782 Off ch=1 n=b5 v=64
4783 On ch=1 n=g5 v=24
4793 Off ch=1 n=d5 v=64
4793 Off ch=1 n=g5 v=64
4813 On ch=1 n=e6 v=61
4815 Par ch=1 c=64 v=0
4821 Par ch=1 c=64 v=127
4842 Off ch=1 n=e6 v=64
4849 On ch=1 n=g5 v=51
4863 Off ch=1 n=g5 v=64
4878 On ch=1 n=a#2 v=51
4878 On ch=1 n=a#3 v=64
4882 Off ch=1 n=b2 v=64
4885 Off ch=1 n=b3 v=64
4889 On ch=1 n=d6 v=61
4892 Par ch=1 c=64 v=0
4904 Par ch=1 c=64 v=127
4926 On ch=1 n=g5 v=53
4928 Off ch=1 n=d6 v=64
4929 On ch=1 n=d5 v=28
4943 Off ch=1 n=d5 v=64
4950 Off ch=1 n=g5 v=64
4956 Off ch=1 n=a#2 v=64
4958 Off ch=1 n=a#3 v=64
4959 On ch=1 n=a3 v=51
4962 On ch=1 n=a2 v=41
4963 On ch=1 n=c#6 v=57
4969 Par ch=1 c=64 v=0
4975 Par ch=1 c=64 v=127
5002 On ch=1 n=c#5 v=41
5003 Off ch=1 n=c#6 v=64
5009 On ch=1 n=g5 v=23
5019 Off ch=1 n=c#5 v=64
5022 Off ch=1 n=g5 v=64
5033 Off ch=1 n=a2 v=64
5038 On ch=1 n=b3 v=53
5039 On ch=1 n=b2 v=31
5040 Off ch=1 n=a3 v=64
5042 On ch=1 n=b5 v=61
5052 Par ch=1 c=64 v=0
5058 Par ch=1 c=64 v=127
5080 On ch=1 n=g5 v=41
5080 On ch=1 n=d5 v=41
5088 Off ch=1 n=b5 v=64
5097 Off ch=1 n=d5 v=64
5100 Off ch=1 n=g5 v=64
5115 On ch=1 n=c#4 v=48
5116 Off ch=1 n=b2 v=64
5120 Off ch=1 n=b3 v=64
5123 Par ch=1 c=64 v=0
5124 On ch=1 n=a5 v=64
5125 On ch=1 n=c#3 v=20
5135 Par ch=1 c=64 v=127
5170 On ch=1 n=g5 v=41
5172 On ch=1 n=d#5 v=36
5175 Off ch=1 n=a5 v=64
5189 Off ch=1 n=d#5 v=64
5192 Off ch=1 n=g5 v=64
5194 Off ch=1 n=c#3 v=64
5202 On ch=1 n=c4 v=43
5202 Off ch=1 n=c#4 v=64
5207 On ch=1 n=c3 v=33
5216 On ch=1 n=a5 v=74
5223 Par ch=1 c=64 v=0
5235 Par ch=1 c=64 v=127
5260 On ch=1 n=g5 v=43
5263 On ch=1 n=e5 v=36
5269 Off ch=1 n=a5 v=64
5274 Off ch=1 n=e5 v=64
5278 Off ch=1 n=g5 v=64
5298 On ch=1 n=a#5 v=69
5300 Par ch=1 c=64 v=0
5318 Par ch=1 c=64 v=127
5335 On ch=1 n=e5 v=57
5335 On ch=1 n=g5 v=51
5340 Off ch=1 n=a#5 v=64
5344 Off ch=1 n=e5 v=64
5345 Off ch=1 n=g5 v=64
5368 On ch=1 n=e6 v=69
5372 Par ch=1 c=64 v=0
5378 Par ch=1 c=64 v=127
5402 Off ch=1 n=e6 v=64
5403 On ch=1 n=a#5 v=57
5404 On ch=1 n=g5 v=53
5415 Off ch=1 n=g5 v=64
5421 Off ch=1 n=a#5 v=64
5433 Off ch=1 n=c4 v=64
5437 On ch=1 n=a6 v=74
5443 Par ch=1 c=64 v=0
5451 Off ch=1 n=c3 v=64
5455 Par ch=1 c=64 v=127
5464 Off ch=1 n=a6 v=64
5474 On ch=1 n=a#5 v=48
5481 On ch=1 n=g5 v=22
5493 Off ch=1 n=g5 v=64
5494 Off ch=1 n=a#5 v=64
5506 On ch=1 n=e4 v=69
5507 On ch=1 n=g6 v=74
5515 Par ch=1 c=64 v=0
5521 Par ch=1 c=64 v=127
5537 Off ch=1 n=g6 v=64
5542 On ch=1 n=a#5 v=51
5544 On ch=1 n=g5 v=39
5558 Off ch=1 n=g5 v=64
5569 Off ch=1 n=a#5 v=64
5580 On ch=1 n=f6 v=74
5581 Par ch=1 c=64 v=0
5583 On ch=1 n=f4 v=69
5586 On ch=1 n=c4 v=44
5591 Off ch=1 n=e4 v=64
5603 Par ch=1 c=64 v=127
5615 Off ch=1 n=f6 v=64
5618 On ch=1 n=a5 v=51
5620 On ch=1 n=f5 v=33
5634 Off ch=1 n=f5 v=64
5636 Off ch=1 n=a5 v=64
5654 On ch=1 n=a4 v=69
5659 On ch=1 n=c6 v=57
5661 Off ch=1 n=f4 v=64
5674 Par ch=1 c=64 v=0
5693 On ch=1 n=a5 v=48
5694 Off ch=1 n=c6 v=64
5695 On ch=1 n=f5 v=41
5710 Par ch=1 c=64 v=127
5731 On ch=1 n=d5 v=74
5734 Off ch=1 n=f5 v=64
5735 Off ch=1 n=a5 v=64
5736 Off ch=1 n=a4 v=64
5763 On ch=1 n=a5 v=41
5769 On ch=1 n=f5 v=24
5788 Off ch=1 n=f5 v=64
5791 Off ch=1 n=a5 v=64
5797 On ch=1 n=c6 v=69
5800 Off ch=1 n=c4 v=64
5812 On ch=1 n=c5 v=74
5813 Off ch=1 n=d5 v=64
5833 On ch=1 n=a5 v=45
5836 On ch=1 n=f5 v=34
5844 Off ch=1 n=c6 v=64
5852 Off ch=1 n=f5 v=64
5856 Off ch=1 n=a5 v=64
5858 Par ch=1 c=64 v=0
5868 On ch=1 n=c6 v=61
5874 On ch=1 n=c4 v=51
5875 Par ch=1 c=64 v=127
5891 Off ch=1 n=c5 v=64
5895 Off ch=1 n=c6 v=64
5902 On ch=1 n=g5 v=61
5904 On ch=1 n=e5 v=51
5908 On ch=1 n=d5 v=64
5909 On ch=1 n=a#4 v=64
5914 Off ch=1 n=e5 v=64
5919 Off ch=1 n=d5 v=64
5920 Off ch=1 n=g5 v=64
5925 Off ch=1 n=a#4 v=64
5940 On ch=1 n=g5 v=69
5941 On ch=1 n=d5 v=74
5941 On ch=1 n=a#4 v=74
5943 On ch=1 n=e5 v=51
5962 Off ch=1 n=c4 v=64
5975 On ch=1 n=a4 v=69
5976 On ch=1 n=a5 v=69
5979 Off ch=1 n=e5 v=64
5981 Off ch=1 n=a#4 v=64
5988 Off ch=1 n=g5 v=64
6005 Par ch=1 c=64 v=0
6009 On ch=1 n=a#5 v=74
6013 On ch=1 n=g4 v=69
6016 Off ch=1 n=a4 v=64
6017 Par ch=1 c=64 v=127
6020 Off ch=1 n=a5 v=64
6027 Off ch=1 n=d5 v=64
6044 On ch=1 n=g5 v=61
6045 On ch=1 n=e5 v=56
6046 Off ch=1 n=a#5 v=64
6057 Off ch=1 n=e5 v=64
6064 Off ch=1 n=g5 v=64
6075 Off ch=1 n=g4 v=64
6080 On ch=1 n=e4 v=69
6082 On ch=1 n=d6 v=69
6083 Par ch=1 c=64 v=0
6083 On ch=1 n=c3 v=57
6094 Par ch=1 c=64 v=127
6112 Off ch=1 n=d6 v=64
6119 On ch=1 n=a#5 v=57
6121 On ch=1 n=c5 v=51
6135 Off ch=1 n=c5 v=64
6146 Off ch=1 n=a#5 v=64
6153 Off ch=1 n=c3 v=64
6153 On ch=1 n=f3 v=51
6157 On ch=1 n=f4 v=69
6158 On ch=1 n=c6 v=74
6161 Par ch=1 c=64 v=0
6165 Off ch=1 n=e4 v=64
6172 Par ch=1 c=64 v=127
6195 On ch=1 n=a5 v=48
6196 On ch=1 n=c5 v=48
6196 Off ch=1 n=c6 v=64
6212 Off ch=1 n=c5 v=64
6214 Off ch=1 n=a5 v=64
6235 On ch=1 n=a3 v=61
6238 On ch=1 n=a5 v=64
6245 Off ch=1 n=f3 v=64
6279 On ch=1 n=f5 v=39
6279 Off ch=1 n=a5 v=64
6291 Off ch=1 n=f5 v=64
6306 Off ch=1 n=f4 v=64
6319 Par ch=1 c=64 v=0
6321 On ch=1 n=g5 v=53
6326 On ch=1 n=e4 v=57
6326 On ch=1 n=c4 v=57
6331 Par ch=1 c=64 v=127
6366 Off ch=1 n=g5 v=64
6368 On ch=1 n=c5 v=28
6380 Off ch=1 n=c5 v=64
6380 Off ch=1 n=a3 v=64
6434 On ch=1 n=a5 v=61
6473 On ch=1 n=e5 v=51
6478 Off ch=1 n=a5 v=64
6479 Off ch=1 n=c4 v=64
6479 Off ch=1 n=e4 v=64
6498 Off ch=1 n=e5 v=64
6514 On ch=1 n=a#5 v=61
6524 On ch=1 n=c4 v=51
6526 On ch=1 n=c3 v=45
6551 Off ch=1 n=a#5 v=64
6552 On ch=1 n=g5 v=51
6562 Off ch=1 n=g5 v=64
6590 On ch=1 n=e6 v=69
6620 Off ch=1 n=e6 v=64
6626 On ch=1 n=a#5 v=51
6629 On ch=1 n=g5 v=26
6637 Off ch=1 n=a#5 v=64
6639 Off ch=1 n=g5 v=64
6659 On ch=1 n=a6 v=64
6677 Off ch=1 n=a6 v=64
6693 On ch=1 n=a#5 v=61
6697 On ch=1 n=g5 v=34
6709 Off ch=1 n=g5 v=64
6713 Off ch=1 n=a#5 v=64
6716 Off ch=1 n=c4 v=64
6729 On ch=1 n=c#4 v=57
6733 On ch=1 n=c#3 v=48
6736 On ch=1 n=g6 v=43
6738 Off ch=1 n=c3 v=64
6741 Par ch=1 c=64 v=0
6747 Par ch=1 c=64 v=127
6767 Off ch=1 n=g6 v=64
6800 Off ch=1 n=c#3 v=64
6805 On ch=1 n=d4 v=64
6807 Off ch=1 n=c#4 v=64
6808 On ch=1 n=f#6 v=57
6809 On ch=1 n=d3 v=43
6840 Off ch=1 n=f#6 v=64
6847 On ch=1 n=a5 v=36
6847 On ch=1 n=f#5 v=36
6861 Off ch=1 n=f#5 v=64
6866 Off ch=1 n=a5 v=64
6877 Par ch=1 c=64 v=0
6880 On ch=1 n=c#6 v=57
6880 On ch=1 n=e4 v=69
6883 On ch=1 n=e3 v=45
6886 Off ch=1 n=d4 v=64
6889 Off ch=1 n=d3 v=64
6895 Par ch=1 c=64 v=127
6911 Off ch=1 n=c#6 v=64
6918 On ch=1 n=g5 v=41
6918 On ch=1 n=a5 v=41
6930 Off ch=1 n=g5 v=64
6934 Off ch=1 n=a5 v=64
6942 Par ch=1 c=64 v=0
6953 On ch=1 n=e6 v=61
6958 Off ch=1 n=e3 v=64
6961 On ch=1 n=f4 v=57
6964 On ch=1 n=f3 v=33
6965 Par ch=1 c=64 v=127
6974 Off ch=1 n=e4 v=64
6983 Off ch=1 n=e6 v=64
6990 On ch=1 n=a5 v=45
6993 On ch=1 n=e5 v=39
7005 Off ch=1 n=e5 v=64
7010 Off ch=1 n=a5 v=64
7025 Par ch=1 c=64 v=0
7026 On ch=1 n=f#4 v=53
7027 On ch=1 n=d6 v=61
7030 On ch=1 n=f#3 v=43
7034 Off ch=1 n=f4 v=64
7036 Off ch=1 n=f3 v=64
7042 Par ch=1 c=64 v=127
7060 Off ch=1 n=d6 v=64
7063 On ch=1 n=a5 v=43
7065 On ch=1 n=d5 v=43
7076 Off ch=1 n=a5 v=64
7078 Off ch=1 n=d5 v=64
7096 Par ch=1 c=64 v=0
7100 Off ch=1 n=f#4 v=64
7100 Off ch=1 n=f#3 v=64
7101 On ch=1 n=b5 v=61
7103 On ch=1 n=g4 v=51
7104 On ch=1 n=g3 v=57
7114 Par ch=1 c=64 v=127
7138 On ch=1 n=g5 v=43
7141 Off ch=1 n=b5 v=64
7148 Off ch=1 n=g5 v=64
7168 Off ch=1 n=g3 v=64
7173 Par ch=1 c=64 v=0
7174 On ch=1 n=f#5 v=57
7176 On ch=1 n=a4 v=46
7177 On ch=1 n=a3 v=36
7179 Off ch=1 n=g4 v=64
7185 Par ch=1 c=64 v=127
7214 On ch=1 n=d5 v=45
7216 On ch=1 n=c5 v=43
7222 Off ch=1 n=f#5 v=64
7226 Off ch=1 n=c5 v=64
7227 Off ch=1 n=d5 v=64
7247 Off ch=1 n=a3 v=64
7249 On ch=1 n=a#4 v=69
7250 On ch=1 n=a5 v=61
7250 Par ch=1 c=64 v=0
7252 On ch=1 n=a#3 v=34
7261 Off ch=1 n=a4 v=64
7268 Par ch=1 c=64 v=127
7290 On ch=1 n=d5 v=45
7290 Off ch=1 n=a5 v=64
7294 On ch=1 n=b4 v=28
7304 Off ch=1 n=d5 v=64
7307 Off ch=1 n=b4 v=64
7327 Par ch=1 c=64 v=0
7329 On ch=1 n=g5 v=57
7333 Off ch=1 n=a#3 v=64
7336 On ch=1 n=b3 v=33
7339 On ch=1 n=b4 v=51
7344 Off ch=1 n=a#4 v=64
7345 Par ch=1 c=64 v=127
7368 On ch=1 n=d5 v=43
7371 Off ch=1 n=b3 v=64
7381 Off ch=1 n=g5 v=64
7387 Off ch=1 n=d5 v=64
7409 Par ch=1 c=64 v=0
7413 On ch=1 n=f#5 v=48
7416 On ch=1 n=a3 v=33
7425 Off ch=1 n=b4 v=64
7427 Par ch=1 c=64 v=127
7453 On ch=1 n=d5 v=36
7454 On ch=1 n=a4 v=41
7458 Off ch=1 n=f#5 v=64
7465 Off ch=1 n=a4 v=64
7466 Off ch=1 n=d5 v=64
7492 Par ch=1 c=64 v=0
7496 On ch=1 n=a2 v=34
7497 On ch=1 n=e5 v=51
7510 Par ch=1 c=64 v=127
7541 Off ch=1 n=e5 v=64
7545 On ch=1 n=c#5 v=27
7559 Off ch=1 n=c#5 v=64
7578 Off ch=1 n=a2 v=64
7587 On ch=1 n=d3 v=24
7597 On ch=1 n=d5 v=41
7620 Par ch=1 c=64 v=0
7655 Par ch=1 c=64 v=127
7663 On ch=1 n=f#4 v=28
7665 On ch=1 n=a4 v=27
7680 Off ch=1 n=f#4 v=64
7683 Off ch=1 n=d5 v=64
7684 Off ch=1 n=a4 v=64
7736 On ch=1 n=g#5 v=28
7751 Off ch=1 n=a3 v=64
7755 Par ch=1 c=64 v=0
7784 Par ch=1 c=64 v=127
7801 On ch=1 n=g5 v=28
7802 On ch=1 n=e5 v=29
7817 Off ch=1 n=g#5 v=64
7820 Off ch=1 n=e5 v=64
7822 Off ch=1 n=g5 v=64
7851 Off ch=1 n=d3 v=64
7856 On ch=1 n=a2 v=24
7858 On ch=1 n=a5 v=51
7860 On ch=1 n=a3 v=23
7866 Par ch=1 c=64 v=0
7878 Par ch=1 c=64 v=127
7898 Off ch=1 n=a5 v=64
7900 On ch=1 n=g5 v=39
7903 On ch=1 n=e5 v=39
7912 Off ch=1 n=g5 v=64
7914 Off ch=1 n=e5 v=64
7937 On ch=1 n=c#6 v=57
7949 Par ch=1 c=64 v=0
7954 Par ch=1 c=64 v=127
7959 Off ch=1 n=a2 v=64
7976 Off ch=1 n=c#6 v=64
7977 On ch=1 n=a5 v=36
7978 On ch=1 n=g5 v=28
7983 Off ch=1 n=a3 v=64
7993 Off ch=1 n=g5 v=64
7994 Off ch=1 n=a5 v=64
8012 On ch=1 n=f#6 v=61
8049 Off ch=1 n=f#6 v=64
8051 On ch=1 n=a5 v=39
8053 On ch=1 n=g5 v=33
8073 Off ch=1 n=g5 v=64
8076 Off ch=1 n=a5 v=64
8083 On ch=1 n=c#4 v=51
8085 Par ch=1 c=64 v=0
8088 On ch=1 n=e6 v=61
8097 Par ch=1 c=64 v=127
8129 Off ch=1 n=e6 v=64
8129 On ch=1 n=a5 v=45
8131 On ch=1 n=g5 v=34
8145 Off ch=1 n=g5 v=64
8148 Off ch=1 n=a5 v=64
8163 Par ch=1 c=64 v=0
8163 Off ch=1 n=c#4 v=64
8164 On ch=1 n=d6 v=57
8164 On ch=1 n=d4 v=53
8170 On ch=1 n=a3 v=28
8180 Par ch=1 c=64 v=127
8196 Off ch=1 n=d6 v=64
8200 On ch=1 n=f#5 v=39
8207 On ch=1 n=d5 v=26
8225 Off ch=1 n=d5 v=64
8227 Off ch=1 n=f#5 v=64
8240 On ch=1 n=a5 v=43
8240 On ch=1 n=f#4 v=57
8245 Par ch=1 c=64 v=0
8248 Off ch=1 n=d4 v=64
8280 On ch=1 n=f#5 v=26
8283 On ch=1 n=d5 v=25
8285 Off ch=1 n=a5 v=64
8292 Par ch=1 c=64 v=127
8308 Off ch=1 n=d5 v=64
8311 Off ch=1 n=f#5 v=64
8318 On ch=1 n=b4 v=61
8332 Off ch=1 n=f#4 v=64
8350 Off ch=1 n=a3 v=64
8361 On ch=1 n=f#5 v=39
8363 On ch=1 n=d5 v=29
8391 Off ch=1 n=f#5 v=64
8392 Off ch=1 n=d5 v=64
8398 Par ch=1 c=64 v=0
8399 On ch=1 n=a5 v=57
8400 On ch=1 n=a4 v=53
8404 Par ch=1 c=64 v=127
8411 Off ch=1 n=b4 v=64
8432 On ch=1 n=f#5 v=53
8433 Off ch=1 n=a5 v=64
8438 On ch=1 n=d5 v=29
8457 Par ch=1 c=64 v=0
8460 Off ch=1 n=d5 v=64
8463 Par ch=1 c=64 v=127
8468 Off ch=1 n=f#5 v=64
8470 On ch=1 n=a5 v=61
8473 On ch=1 n=a3 v=51
8483 Off ch=1 n=a4 v=64
8489 Off ch=1 n=a5 v=64
8506 On ch=1 n=e5 v=53
8507 On ch=1 n=g4 v=57
8508 On ch=1 n=c#5 v=33
8508 On ch=1 n=a4 v=57
8511 Par ch=1 c=64 v=0
8516 Par ch=1 c=64 v=127
8517 Off ch=1 n=a4 v=64
8520 Off ch=1 n=c#5 v=64
8523 Off ch=1 n=e5 v=64
8524 Off ch=1 n=g4 v=64
8535 Off ch=1 n=a3 v=64
8537 On ch=1 n=g4 v=61
8537 On ch=1 n=a4 v=69
8543 On ch=1 n=c#5 v=43
8544 On ch=1 n=e5 v=57
8574 On ch=1 n=f#4 v=69
8577 Off ch=1 n=c#5 v=64
8578 On ch=1 n=f#5 v=57
8587 Off ch=1 n=g4 v=64
8592 Off ch=1 n=e5 v=64
8613 On ch=1 n=g5 v=69
8616 Par ch=1 c=64 v=0
8616 On ch=1 n=e4 v=74
8622 Off ch=1 n=f#4 v=64
8624 Off ch=1 n=f#5 v=64
8628 Par ch=1 c=64 v=127
8646 Off ch=1 n=g5 v=64
8648 On ch=1 n=c#5 v=48
8648 On ch=1 n=e5 v=61
8667 Off ch=1 n=c#5 v=64
8675 Off ch=1 n=e5 v=64
8682 Par ch=1 c=64 v=0
8684 On ch=1 n=b5 v=69
8689 On ch=1 n=a3 v=57
8691 On ch=1 n=a2 v=51
8694 Par ch=1 c=64 v=127
8696 Off ch=1 n=e4 v=64
8702 Off ch=1 n=a4 v=64
8711 Off ch=1 n=b5 v=64
8721 On ch=1 n=g5 v=48
8721 On ch=1 n=b4 v=48
8741 Off ch=1 n=b4 v=64
8743 Off ch=1 n=g5 v=64
8747 Par ch=1 c=64 v=0
8747 Off ch=1 n=a2 v=64
8758 On ch=1 n=a5 v=64
8759 On ch=1 n=d3 v=48
8765 Par ch=1 c=64 v=127
8795 Off ch=1 n=a5 v=64
8796 On ch=1 n=f#5 v=41
8796 On ch=1 n=a4 v=41
8810 Off ch=1 n=a4 v=64
8815 Off ch=1 n=f#5 v=64
8834 On ch=1 n=f#5 v=57
8840 On ch=1 n=f#3 v=43
8846 Off ch=1 n=a3 v=64
8873 On ch=1 n=d5 v=39
8873 On ch=1 n=a4 v=39
8876 Off ch=1 n=f#5 v=64
8884 Off ch=1 n=d5 v=64
8885 Off ch=1 n=a4 v=64
8906 Par ch=1 c=64 v=0
8910 On ch=1 n=a3 v=48
8911 Off ch=1 n=d3 v=64
8911 Off ch=1 n=f#3 v=64
8913 On ch=1 n=e5 v=57
8930 Par ch=1 c=64 v=127
8953 On ch=1 n=c#5 v=34
8955 Off ch=1 n=e5 v=64
8958 On ch=1 n=a4 v=24
8965 Off ch=1 n=c#5 v=64
8965 Off ch=1 n=a4 v=64
8990 Off ch=1 n=a3 v=64
8994 On ch=1 n=g#5 v=48
8995 Par ch=1 c=64 v=0
9001 Par ch=1 c=64 v=127
9039 On ch=1 n=g5 v=36
9041 On ch=1 n=e5 v=30
9047 Off ch=1 n=g#5 v=64
9047 On ch=1 n=a2 v=64
9055 Off ch=1 n=e5 v=64
9057 Off ch=1 n=g5 v=64
9060 Par ch=1 c=64 v=0
9067 Off ch=1 n=a2 v=64
9069 On ch=1 n=a3 v=61
9078 On ch=1 n=a5 v=45
9084 Par ch=1 c=64 v=127
9114 On ch=1 n=e5 v=28
9114 Off ch=1 n=a5 v=64
9124 Off ch=1 n=e5 v=64
9148 On ch=1 n=c#4 v=74
9156 On ch=1 n=a4 v=28
9158 On ch=1 n=g4 v=25
9177 Off ch=1 n=g4 v=64
9178 Off ch=1 n=a4 v=64
9224 Off ch=1 n=a3 v=64
9230 On ch=1 n=f#4 v=64
9243 Off ch=1 n=c#4 v=64
9272 On ch=1 n=a4 v=48
9274 On ch=1 n=g4 v=39
9294 Off ch=1 n=g4 v=64
9297 Off ch=1 n=a4 v=64
9308 On ch=1 n=e4 v=53
9311 On ch=1 n=c#5 v=61
9311 Off ch=1 n=f#4 v=64
9342 Off ch=1 n=c#5 v=64
9345 On ch=1 n=a4 v=57
9349 On ch=1 n=g4 v=36
9366 Off ch=1 n=g4 v=64
9371 Par ch=1 c=64 v=0
9376 Off ch=1 n=a4 v=64
9379 On ch=1 n=d5 v=69
9383 Par ch=1 c=64 v=127
9386 On ch=1 n=d3 v=43
9387 On ch=1 n=d4 v=69
9396 Off ch=1 n=e4 v=64
9407 Off ch=1 n=d5 v=64
9415 On ch=1 n=a4 v=53
9415 On ch=1 n=f#4 v=43
9426 Off ch=1 n=f#4 v=64
9430 Off ch=1 n=a4 v=64
9451 On ch=1 n=f#5 v=61
9477 Off ch=1 n=f#5 v=64
9486 On ch=1 n=a4 v=48
9487 On ch=1 n=d5 v=61
9495 Off ch=1 n=a4 v=64
9501 Off ch=1 n=d5 v=64
9524 On ch=1 n=b5 v=53
9556 Off ch=1 n=b5 v=64
9558 On ch=1 n=d5 v=51
9558 On ch=1 n=f#5 v=51
9574 Off ch=1 n=d5 v=64
9578 Off ch=1 n=f#5 v=64
9590 On ch=1 n=c4 v=64
9592 On ch=1 n=c3 v=43
9593 Off ch=1 n=d3 v=64
9595 On ch=1 n=a5 v=74
9596 Par ch=1 c=64 v=0
9598 Off ch=1 n=d4 v=64
9607 Par ch=1 c=64 v=127
9628 On ch=1 n=f#5 v=57
9629 On ch=1 n=d5 v=45
9630 Off ch=1 n=a5 v=64
9640 Off ch=1 n=d5 v=64
9644 Off ch=1 n=f#5 v=64
9655 Par ch=1 c=64 v=0
9661 On ch=1 n=g5 v=64
9663 Off ch=1 n=c3 v=64
9668 On ch=1 n=b3 v=69
9670 On ch=1 n=b2 v=57
9679 Par ch=1 c=64 v=127
9680 Off ch=1 n=c4 v=64
9697 On ch=1 n=a4 v=51
9698 On ch=1 n=d5 v=53
9707 Off ch=1 n=a4 v=64
9708 Off ch=1 n=g5 v=64
9711 Off ch=1 n=d5 v=64
9731 On ch=1 n=b5 v=64
9767 On ch=1 n=d5 v=53
9768 On ch=1 n=g5 v=48
9770 Off ch=1 n=b5 v=64
9780 Off ch=1 n=d5 v=64
9785 Off ch=1 n=g5 v=64
9800 On ch=1 n=e6 v=69
9803 Par ch=1 c=64 v=0
9814 Par ch=1 c=64 v=127
9829 Off ch=1 n=e6 v=64
9836 On ch=1 n=g5 v=53
9838 On ch=1 n=e5 v=51
9855 Off ch=1 n=e5 v=64
9857 Off ch=1 n=g5 v=64
9864 On ch=1 n=a#3 v=64
9867 On ch=1 n=a#2 v=51
9867 Off ch=1 n=b2 v=64
9871 On ch=1 n=d6 v=69
9872 Off ch=1 n=b3 v=64
9874 Par ch=1 c=64 v=0
9886 Par ch=1 c=64 v=127
9908 On ch=1 n=g5 v=53
9908 Off ch=1 n=d6 v=64
9910 On ch=1 n=d5 v=43
9923 Off ch=1 n=d5 v=64
9933 Off ch=1 n=g5 v=64
9939 Par ch=1 c=64 v=0
9940 Off ch=1 n=a#2 v=64
9941 Off ch=1 n=a#3 v=64
9942 On ch=1 n=a3 v=53
9945 On ch=1 n=c#6 v=57
9946 On ch=1 n=a2 v=45
9962 Par ch=1 c=64 v=127
9982 On ch=1 n=c#5 v=41
9985 Off ch=1 n=c#6 v=64
9986 On ch=1 n=g5 v=28
9996 Off ch=1 n=c#5 v=64
10001 Off ch=1 n=g5 v=64
10019 On ch=1 n=b3 v=51
10020 On ch=1 n=b5 v=45
10021 Off ch=1 n=a3 v=64
10022 Par ch=1 c=64 v=0
10022 Off ch=1 n=a2 v=64
10024 On ch=1 n=b2 v=41
10033 Par ch=1 c=64 v=127
10056 On ch=1 n=d5 v=34
10057 On ch=1 n=g5 v=28
10060 Off ch=1 n=b5 v=64
10072 Off ch=1 n=d5 v=64
10076 Off ch=1 n=g5 v=64
10097 Off ch=1 n=b2 v=64
10097 On ch=1 n=c4 v=45
10098 On ch=1 n=a5 v=57
10099 Par ch=1 c=64 v=0
10100 On ch=1 n=c3 v=31
10106 Off ch=1 n=b3 v=64
10116 Par ch=1 c=64 v=127
10139 On ch=1 n=g5 v=41
10141 Off ch=1 n=a5 v=64
10141 On ch=1 n=d#5 v=34
10153 Off ch=1 n=d#5 v=64
10155 Off ch=1 n=g5 v=64
10175 Off ch=1 n=c3 v=64
10179 On ch=1 n=c#4 v=34
10180 On ch=1 n=c#3 v=33
10181 Par ch=1 c=64 v=0
10185 Off ch=1 n=c4 v=64
10189 On ch=1 n=g#5 v=48
10199 Par ch=1 c=64 v=127
10233 On ch=1 n=g5 v=29
10245 Off ch=1 n=g#5 v=64
10247 Off ch=1 n=g5 v=64
10263 Par ch=1 c=64 v=0
10275 Par ch=1 c=64 v=127
10277 On ch=1 n=a5 v=43
10317 Off ch=1 n=a5 v=64
10318 On ch=1 n=g5 v=31
10321 On ch=1 n=e5 v=28
10331 Off ch=1 n=g5 v=64
10333 Off ch=1 n=e5 v=64
10347 Off ch=1 n=c#4 v=64
10350 On ch=1 n=c#6 v=53
10350 Off ch=1 n=c#3 v=64
10352 On ch=1 n=a2 v=28
10379 Off ch=1 n=c#6 v=64
10387 On ch=1 n=a5 v=39
10389 On ch=1 n=g5 v=29
10406 Off ch=1 n=g5 v=64
10407 Off ch=1 n=a5 v=64
10422 On ch=1 n=f#6 v=57
10452 Off ch=1 n=f#6 v=64
10457 On ch=1 n=a5 v=48
10463 On ch=1 n=g5 v=28
10485 Off ch=1 n=a2 v=64
10486 Off ch=1 n=g5 v=64
10491 Off ch=1 n=a5 v=64
10491 On ch=1 n=c#4 v=61
10496 On ch=1 n=e6 v=74
10530 Off ch=1 n=e6 v=64
10533 On ch=1 n=a5 v=41
10553 Off ch=1 n=a5 v=64
10570 On ch=1 n=d4 v=60
10572 Off ch=1 n=c#4 v=64
10573 On ch=1 n=d6 v=61
10573 On ch=1 n=a3 v=48
10606 Off ch=1 n=d6 v=64
10611 On ch=1 n=f#5 v=34
10612 On ch=1 n=d5 v=33
10625 Off ch=1 n=f#5 v=64
10625 Off ch=1 n=d5 v=64
10648 On ch=1 n=a5 v=61
10650 On ch=1 n=f#4 v=64
10653 Par ch=1 c=64 v=0
10659 Off ch=1 n=d4 v=64
10681 Par ch=1 c=64 v=127
10689 On ch=1 n=d5 v=33
10691 On ch=1 n=f#5 v=29
10706 Off ch=1 n=a5 v=64
10710 Off ch=1 n=d5 v=64
10712 Off ch=1 n=f#5 v=64
10729 On ch=1 n=b4 v=69
10739 Off ch=1 n=f#4 v=64
10768 On ch=1 n=f#5 v=43
10771 On ch=1 n=d5 v=33
10774 Off ch=1 n=a3 v=64
10804 Off ch=1 n=d5 v=64
10806 On ch=1 n=a4 v=61
10809 Off ch=1 n=f#5 v=64
10809 On ch=1 n=a5 v=64
10816 Off ch=1 n=b4 v=64
10843 On ch=1 n=f#5 v=45
10846 On ch=1 n=d5 v=43
10847 Off ch=1 n=a5 v=64
10860 Off ch=1 n=d5 v=64
10868 Off ch=1 n=f#5 v=64
10870 Par ch=1 c=64 v=0
10879 On ch=1 n=a5 v=69
10883 On ch=1 n=a3 v=51
10888 Par ch=1 c=64 v=127
10895 Off ch=1 n=a4 v=64
10903 Off ch=1 n=a5 v=64
10914 On ch=1 n=e5 v=53
10915 On ch=1 n=a4 v=74
10916 On ch=1 n=c#5 v=39
10916 On ch=1 n=g4 v=69
10926 Off ch=1 n=c#5 v=64
10930 Off ch=1 n=a3 v=64
10931 Off ch=1 n=e5 v=64
10932 Off ch=1 n=a4 v=64
10936 Off ch=1 n=g4 v=64
10949 On ch=1 n=e5 v=61
10949 On ch=1 n=g4 v=61
10950 On ch=1 n=a4 v=61
10952 On ch=1 n=c#5 v=48
10979 Off ch=1 n=c#5 v=64
10983 On ch=1 n=f#5 v=57
10987 On ch=1 n=f#4 v=74
10992 Off ch=1 n=g4 v=64
10998 Off ch=1 n=e5 v=64
11007 Par ch=1 c=64 v=0
11017 On ch=1 n=g5 v=57
11022 Off ch=1 n=f#5 v=64
11024 Par ch=1 c=64 v=127
11024 Off ch=1 n=f#4 v=64
11028 On ch=1 n=e4 v=64
11051 On ch=1 n=c#5 v=51
11052 On ch=1 n=e5 v=53
11052 Off ch=1 n=g5 v=64
11069 Off ch=1 n=c#5 v=64
11079 Off ch=1 n=e5 v=64
11084 Par ch=1 c=64 v=0
11086 On ch=1 n=b5 v=74
11088 On ch=1 n=a2 v=51
11088 On ch=1 n=a3 v=51
11096 Par ch=1 c=64 v=127
11097 Off ch=1 n=a4 v=64
11100 Off ch=1 n=e4 v=64
11111 Off ch=1 n=b5 v=64
11120 On ch=1 n=b4 v=51
11121 On ch=1 n=g5 v=51
11135 Off ch=1 n=b4 v=64
11141 Off ch=1 n=g5 v=64
11155 On ch=1 n=d3 v=48
11156 Par ch=1 c=64 v=0
11158 On ch=1 n=a5 v=82
11159 Off ch=1 n=a2 v=64
11173 Par ch=1 c=64 v=127
11196 On ch=1 n=a4 v=39
11198 On ch=1 n=d5 v=43
11199 Off ch=1 n=a5 v=64
11208 Off ch=1 n=a4 v=64
11210 Off ch=1 n=d5 v=64
11227 Par ch=1 c=64 v=0
11233 On ch=1 n=f#5 v=57
11234 On ch=1 n=f#3 v=51
11238 Par ch=1 c=64 v=127
11244 Off ch=1 n=a3 v=64
11272 On ch=1 n=d5 v=41
11273 On ch=1 n=a4 v=36
11278 Off ch=1 n=f#5 v=64
11285 Off ch=1 n=a4 v=64
11285 Off ch=1 n=d5 v=64
11303 Par ch=1 c=64 v=0
11308 Off ch=1 n=d3 v=64
11310 On ch=1 n=a3 v=45
11311 On ch=1 n=e5 v=61
11312 Off ch=1 n=f#3 v=64
11320 Par ch=1 c=64 v=127
11348 Off ch=1 n=e5 v=64
11349 On ch=1 n=c#5 v=39
11353 On ch=1 n=a4 v=27
11360 Off ch=1 n=c#5 v=64
11362 Off ch=1 n=a4 v=64
11389 On ch=1 n=g#5 v=48
11397 Off ch=1 n=a3 v=64
11403 Par ch=1 c=64 v=0
11409 Par ch=1 c=64 v=127
11430 On ch=1 n=e5 v=39
11431 On ch=1 n=g5 v=34
11447 Off ch=1 n=g#5 v=64
11448 Off ch=1 n=e5 v=64
11448 On ch=1 n=a2 v=51
11452 Off ch=1 n=g5 v=64
11463 Par ch=1 c=64 v=0
11465 Off ch=1 n=a2 v=64
11466 On ch=1 n=a3 v=48
11472 On ch=1 n=a5 v=61
11475 Par ch=1 c=64 v=127
11493 Off ch=1 n=a5 v=64
11522 On ch=1 n=a4 v=39
11535 Off ch=1 n=a4 v=64
11545 On ch=1 n=c#4 v=53
11609 On ch=1 n=a4 v=31
11610 On ch=1 n=g4 v=29
11636 On ch=1 n=f#4 v=57
11641 Off ch=1 n=g4 v=64
11641 Off ch=1 n=a4 v=64
11681 On ch=1 n=a4 v=57
11684 On ch=1 n=g4 v=41
11708 Off ch=1 n=g4 v=64
11713 Off ch=1 n=a4 v=64
11716 On ch=1 n=c#5 v=57
11716 On ch=1 n=e4 v=61
11721 Off ch=1 n=c#4 v=64
11726 Off ch=1 n=f#4 v=64
11732 Off ch=1 n=a3 v=64
11752 On ch=1 n=a4 v=61
11755 On ch=1 n=g4 v=43
11756 Off ch=1 n=c#5 v=64
11775 Off ch=1 n=g4 v=64
11778 Par ch=1 c=64 v=0
11784 Off ch=1 n=a4 v=64
11785 On ch=1 n=d5 v=61
11791 Par ch=1 c=64 v=127
11791 On ch=1 n=d4 v=57
11792 On ch=1 n=d3 v=45
11802 Off ch=1 n=e4 v=64
11814 Off ch=1 n=d5 v=64
11820 On ch=1 n=f#4 v=51
11822 On ch=1 n=a4 v=51
11831 Off ch=1 n=f#4 v=64
11832 Off ch=1 n=a4 v=64
11856 On ch=1 n=f#5 v=64
11885 Off ch=1 n=f#5 v=64
11891 On ch=1 n=a4 v=51
11893 On ch=1 n=d5 v=43
11901 Off ch=1 n=a4 v=64
11904 Off ch=1 n=d5 v=64
11925 On ch=1 n=b5 v=61
11960 On ch=1 n=d5 v=45
11960 On ch=1 n=f#5 v=43
11965 Off ch=1 n=b5 v=64
11976 Off ch=1 n=d5 v=64
11979 Off ch=1 n=f#5 v=64
11991 On ch=1 n=a5 v=74
11993 On ch=1 n=c4 v=61
11996 On ch=1 n=c3 v=53
11998 Off ch=1 n=d4 v=64
11999 Off ch=1 n=d3 v=64
12026 On ch=1 n=f#5 v=57
12029 Off ch=1 n=a5 v=64
12029 On ch=1 n=d5 v=34
12042 Off ch=1 n=d5 v=64
12043 Off ch=1 n=f#5 v=64
12059 On ch=1 n=g5 v=69
12061 On ch=1 n=b3 v=69
12063 Par ch=1 c=64 v=0
12063 Off ch=1 n=c3 v=64
12067 On ch=1 n=b2 v=51
12069 Off ch=1 n=c4 v=64
12074 Par ch=1 c=64 v=127
12095 On ch=1 n=d5 v=53
12095 On ch=1 n=a4 v=43
12101 Off ch=1 n=g5 v=64
12105 Off ch=1 n=a4 v=64
12106 Off ch=1 n=d5 v=64
12129 On ch=1 n=b5 v=69
12161 Off ch=1 n=b5 v=64
12164 On ch=1 n=d5 v=41
12164 On ch=1 n=g5 v=53
12176 Off ch=1 n=d5 v=64
12178 Off ch=1 n=g5 v=64
12197 On ch=1 n=e6 v=69
12200 Par ch=1 c=64 v=0
12206 Par ch=1 c=64 v=127
12227 Off ch=1 n=e6 v=64
12233 On ch=1 n=g5 v=51
12251 Off ch=1 n=g5 v=64
12264 On ch=1 n=a#3 v=69
12267 On ch=1 n=a#2 v=53
12269 On ch=1 n=d6 v=61
12271 Par ch=1 c=64 v=0
12276 Off ch=1 n=b3 v=64
12278 Off ch=1 n=b2 v=64
12288 Par ch=1 c=64 v=127
12305 On ch=1 n=g5 v=45
12309 Off ch=1 n=d6 v=64
12310 On ch=1 n=d5 v=27
12322 Off ch=1 n=d5 v=64
12329 Off ch=1 n=g5 v=64
12339 Off ch=1 n=a#2 v=64
12341 On ch=1 n=a3 v=57
12343 On ch=1 n=a2 v=41
12344 On ch=1 n=c#6 v=53
12344 Off ch=1 n=a#3 v=64
12347 Par ch=1 c=64 v=0
12353 Par ch=1 c=64 v=127
12383 On ch=1 n=c#5 v=41
12386 Off ch=1 n=c#6 v=64
12389 On ch=1 n=g5 v=23
12399 Off ch=1 n=c#5 v=64
12401 Off ch=1 n=g5 v=64
12416 Off ch=1 n=a2 v=64
12418 On ch=1 n=b3 v=48
12423 Off ch=1 n=a3 v=64
12424 Par ch=1 c=64 v=0
12424 On ch=1 n=b2 v=43
12425 On ch=1 n=b5 v=51
12436 Par ch=1 c=64 v=127
12466 On ch=1 n=g5 v=36
12466 Off ch=1 n=b5 v=64
12467 On ch=1 n=d5 v=33
12479 Off ch=1 n=g5 v=64
12482 Off ch=1 n=d5 v=64
12502 On ch=1 n=c#4 v=34
12504 On ch=1 n=a5 v=57
12505 Off ch=1 n=b2 v=64
12506 On ch=1 n=c#3 v=33
12507 Par ch=1 c=64 v=0
12509 Off ch=1 n=b3 v=64
12518 Par ch=1 c=64 v=127
12548 Off ch=1 n=a5 v=64
12552 On ch=1 n=d#5 v=29
12554 On ch=1 n=g5 v=21
12565 Off ch=1 n=d#5 v=64
12567 Off ch=1 n=g5 v=64
12586 Off ch=1 n=c#3 v=64
12590 On ch=1 n=c4 v=53
12591 On ch=1 n=c3 v=29
12595 Off ch=1 n=c#4 v=64
12598 On ch=1 n=a5 v=48
12602 Par ch=1 c=64 v=0
12613 Par ch=1 c=64 v=127
12637 On ch=1 n=g5 v=36
12640 On ch=1 n=e5 v=29
12646 Off ch=1 n=a5 v=64
12652 Off ch=1 n=e5 v=64
12655 Off ch=1 n=g5 v=64
12675 On ch=1 n=a#5 v=64
12712 On ch=1 n=g5 v=53
12715 On ch=1 n=e5 v=43
12722 Off ch=1 n=a#5 v=64
12723 Off ch=1 n=g5 v=64
12725 Off ch=1 n=e5 v=64
12748 On ch=1 n=e6 v=74
12782 Off ch=1 n=e6 v=64
12783 On ch=1 n=a#5 v=64
12783 On ch=1 n=g5 v=53
12798 Off ch=1 n=g5 v=64
12801 Off ch=1 n=a#5 v=64
12818 On ch=1 n=a6 v=82
12838 Off ch=1 n=a6 v=64
12851 On ch=1 n=a#5 v=69
12855 On ch=1 n=g5 v=45
12863 Off ch=1 n=c3 v=64
12874 Off ch=1 n=g5 v=64
12878 Off ch=1 n=a#5 v=64
12892 On ch=1 n=g6 v=64
12893 On ch=1 n=e4 v=69
12903 Off ch=1 n=c4 v=64
12919 Off ch=1 n=g6 v=64
12926 On ch=1 n=a#5 v=57
12929 On ch=1 n=g5 v=43
12950 Off ch=1 n=g5 v=64
12955 Off ch=1 n=a#5 v=64
12961 On ch=1 n=f6 v=69
12964 Par ch=1 c=64 v=0
12966 On ch=1 n=f4 v=74
12966 On ch=1 n=c4 v=57
12974 Off ch=1 n=e4 v=64
12976 Par ch=1 c=64 v=127
12988 Off ch=1 n=f6 v=64
12996 On ch=1 n=a5 v=43
13001 On ch=1 n=f5 v=25
13017 Off ch=1 n=f5 v=64
13017 Off ch=1 n=a5 v=64
13035 On ch=1 n=c6 v=69
13036 Par ch=1 c=64 v=0
13038 On ch=1 n=a4 v=69
13045 Off ch=1 n=f4 v=64
13071 Par ch=1 c=64 v=127
13075 On ch=1 n=a5 v=39
13076 Off ch=1 n=c6 v=64
13078 On ch=1 n=f5 v=29
13103 Off ch=1 n=f5 v=64
13103 Off ch=1 n=a5 v=64
13112 On ch=1 n=d5 v=74
13122 Off ch=1 n=a4 v=64
13151 On ch=1 n=a5 v=61
13154 On ch=1 n=f5 v=41
13185 Off ch=1 n=f5 v=64
13187 On ch=1 n=c6 v=69
13189 Off ch=1 n=a5 v=64
13190 On ch=1 n=c5 v=69
13194 Off ch=1 n=c4 v=64
13201 Off ch=1 n=d5 v=64
13221 On ch=1 n=a5 v=57
13223 On ch=1 n=f5 v=51
13228 Off ch=1 n=c6 v=64
13246 Off ch=1 n=f5 v=64
13251 Off ch=1 n=a5 v=64
13254 Par ch=1 c=64 v=0
13258 On ch=1 n=c6 v=74
13259 On ch=1 n=c4 v=64
13272 Par ch=1 c=64 v=127
13272 Off ch=1 n=c5 v=64
13283 Off ch=1 n=c6 v=64
13292 On ch=1 n=g5 v=74
13295 On ch=1 n=e5 v=61
13295 On ch=1 n=d5 v=64
13296 On ch=1 n=a#4 v=57
13306 Off ch=1 n=e5 v=64
13309 Off ch=1 n=g5 v=64
13310 Off ch=1 n=d5 v=64
13313 Off ch=1 n=a#4 v=64
13324 Off ch=1 n=c4 v=64
13330 On ch=1 n=g5 v=74
13330 On ch=1 n=a#4 v=74
13330 On ch=1 n=d5 v=74
13331 On ch=1 n=e5 v=74
13365 On ch=1 n=a5 v=82
13366 On ch=1 n=a4 v=69
13370 Off ch=1 n=e5 v=64
13372 Off ch=1 n=a#4 v=64
13379 Off ch=1 n=g5 v=64
13396 Par ch=1 c=64 v=0
13397 On ch=1 n=a#5 v=74
13401 Par ch=1 c=64 v=127
13404 On ch=1 n=g4 v=74
13406 Off ch=1 n=a4 v=64
13408 Off ch=1 n=a5 v=64
13431 On ch=1 n=e5 v=57
13432 On ch=1 n=g5 v=69
13437 Off ch=1 n=a#5 v=64
13448 Off ch=1 n=e5 v=64
13452 Off ch=1 n=d5 v=64
13465 Off ch=1 n=g5 v=64
13466 On ch=1 n=d6 v=82
13466 On ch=1 n=e4 v=64
13468 Par ch=1 c=64 v=0
13468 On ch=1 n=c3 v=61
13473 Off ch=1 n=g4 v=64
13485 Par ch=1 c=64 v=127
13500 On ch=1 n=a#5 v=61
13502 On ch=1 n=c5 v=43
13504 Off ch=1 n=d6 v=64
13514 Off ch=1 n=c5 v=64
13530 Off ch=1 n=a#5 v=64
13538 On ch=1 n=c6 v=82
13538 Par ch=1 c=64 v=0
13540 On ch=1 n=f4 v=69
13540 On ch=1 n=f3 v=53
13544 Off ch=1 n=c3 v=64
13546 Off ch=1 n=e4 v=64
13556 Par ch=1 c=64 v=127
13578 Off ch=1 n=c6 v=64
13580 On ch=1 n=c5 v=34
13580 On ch=1 n=f5 v=34
13592 Off ch=1 n=f5 v=64
13592 Off ch=1 n=c5 v=64
13612 On ch=1 n=a3 v=53
13614 On ch=1 n=a5 v=74
13616 Par ch=1 c=64 v=0
13616 Off ch=1 n=f3 v=64
13623 Off ch=1 n=f4 v=64
13628 Par ch=1 c=64 v=127
13654 On ch=1 n=f5 v=43
13655 On ch=1 n=c5 v=43
13659 Off ch=1 n=a5 v=64
13666 Off ch=1 n=c5 v=64
13666 Off ch=1 n=f5 v=64
13686 Par ch=1 c=64 v=0
13692 Off ch=1 n=a3 v=64
13692 On ch=1 n=e4 v=51
13692 On ch=1 n=c4 v=53
13694 On ch=1 n=g5 v=57
13710 Par ch=1 c=64 v=127
13728 Off ch=1 n=g5 v=64
13731 On ch=1 n=c5 v=64
13746 Off ch=1 n=c5 v=64
13780 On ch=1 n=a5 v=61
13816 Off ch=1 n=c4 v=64
13821 Off ch=1 n=a5 v=64
13821 On ch=1 n=e5 v=51
13845 Off ch=1 n=e4 v=64
13853 Off ch=1 n=e5 v=64
13861 On ch=1 n=a#5 v=57
13864 On ch=1 n=c3 v=43
13865 On ch=1 n=c4 v=43
13894 On ch=1 n=g5 v=51
13897 On ch=1 n=e5 v=43
13899 Off ch=1 n=a#5 v=64
13904 Off ch=1 n=g5 v=64
13907 Off ch=1 n=e5 v=64
13927 On ch=1 n=e6 v=69
13957 Off ch=1 n=e6 v=64
13963 On ch=1 n=g5 v=51
13963 On ch=1 n=a#5 v=45
13983 Off ch=1 n=a#5 v=64
13984 Off ch=1 n=g5 v=64
13996 On ch=1 n=a6 v=69
14021 Off ch=1 n=a6 v=64
14029 On ch=1 n=a#5 v=61
14037 On ch=1 n=g5 v=29
14053 Off ch=1 n=g5 v=64
14060 Off ch=1 n=a#5 v=64
14062 On ch=1 n=c#4 v=61
14064 On ch=1 n=g6 v=69
14066 On ch=1 n=c#3 v=48
14070 Off ch=1 n=c4 v=64
14073 Off ch=1 n=c3 v=64
14097 Off ch=1 n=g6 v=64
14102 On ch=1 n=a#5 v=51
14102 On ch=1 n=g5 v=34
14126 Off ch=1 n=g5 v=64
14128 Off ch=1 n=a#5 v=64
14130 Off ch=1 n=c#3 v=64
14136 On ch=1 n=d4 v=61
14137 On ch=1 n=f#6 v=57
14139 Off ch=1 n=c#4 v=64
14139 On ch=1 n=d3 v=41
14140 Par ch=1 c=64 v=0
14151 Par ch=1 c=64 v=127
14171 Off ch=1 n=f#6 v=64
14174 On ch=1 n=a5 v=45
14177 On ch=1 n=f#5 v=29
14191 Off ch=1 n=f#5 v=64
14197 Off ch=1 n=a5 v=64
14209 On ch=1 n=c#6 v=51
14211 On ch=1 n=e4 v=57
14212 On ch=1 n=e3 v=43
14215 Off ch=1 n=d3 v=64
14217 Par ch=1 c=64 v=0
14219 Off ch=1 n=d4 v=64
14223 Par ch=1 c=64 v=127
14242 Off ch=1 n=c#6 v=64
14245 On ch=1 n=a5 v=41
14246 On ch=1 n=g5 v=36
14262 Off ch=1 n=g5 v=64
14267 Off ch=1 n=a5 v=64
14279 On ch=1 n=e6 v=53
14280 Off ch=1 n=e3 v=64
14281 On ch=1 n=f4 v=48
14282 Par ch=1 c=64 v=0
14282 On ch=1 n=f3 v=36
14288 Par ch=1 c=64 v=127
14288 Off ch=1 n=e4 v=64
14306 Off ch=1 n=e6 v=64
14315 On ch=1 n=a5 v=31
14317 On ch=1 n=e5 v=28
14335 Off ch=1 n=e5 v=64
14343 Off ch=1 n=a5 v=64
14349 On ch=1 n=f#4 v=43
14353 On ch=1 n=d6 v=48
14353 Off ch=1 n=f3 v=64
14356 On ch=1 n=f#3 v=28
14357 Off ch=1 n=f4 v=64
14359 Par ch=1 c=64 v=0
14365 Par ch=1 c=64 v=127
14389 Off ch=1 n=d6 v=64
14393 On ch=1 n=a5 v=29
14401 On ch=1 n=d5 v=25
14407 Off ch=1 n=a5 v=64
14415 Off ch=1 n=d5 v=64
14422 Off ch=1 n=f#3 v=64
14423 On ch=1 n=g3 v=31
14427 Off ch=1 n=f#4 v=64
14427 On ch=1 n=g4 v=41
14434 On ch=1 n=b5 v=48
14443 Par ch=1 c=64 v=0
14449 Par ch=1 c=64 v=127
14474 Off ch=1 n=b5 v=64
14477 On ch=1 n=g5 v=23
14485 Off ch=1 n=g5 v=64
14501 Off ch=1 n=g3 v=64
14508 On ch=1 n=a3 v=28
14510 On ch=1 n=a4 v=39
14511 Off ch=1 n=g4 v=64
14525 Par ch=1 c=64 v=0
14530 Par ch=1 c=64 v=127
14556 On ch=1 n=d5 v=29
14587 Off ch=1 n=d5 v=64
14593 On ch=1 n=a5 v=51
14611 Off ch=1 n=a3 v=64
14611 On ch=1 n=a#3 v=31
14612 On ch=1 n=a#4 v=36
14621 Off ch=1 n=a4 v=64
14633 On ch=1 n=d5 v=36
14634 Off ch=1 n=a5 v=64
14640 On ch=1 n=b4 v=27
14655 Off ch=1 n=b4 v=64
14660 Off ch=1 n=d5 v=64
14677 On ch=1 n=g5 v=48
14683 Par ch=1 c=64 v=0
14684 Off ch=1 n=a#3 v=64
14685 On ch=1 n=b3 v=29
14687 On ch=1 n=b4 v=36
14692 Off ch=1 n=a#4 v=64
14694 Par ch=1 c=64 v=127
14725 Off ch=1 n=g5 v=64
14730 On ch=1 n=d5 v=29
14760 Off ch=1 n=d5 v=64
14781 Off ch=1 n=b3 v=64
14781 On ch=1 n=a3 v=34
14786 On ch=1 n=f#5 v=34
14792 Off ch=1 n=b4 v=64
14798 Par ch=1 c=64 v=0
14839 Par ch=1 c=64 v=127
14854 On ch=1 n=d5 v=28
14857 On ch=1 n=a4 v=28
14867 Off ch=1 n=f#5 v=64
14877 Off ch=1 n=d5 v=64
14881 Off ch=1 n=a4 v=64
14920 On ch=1 n=e5 v=48
14932 Par ch=1 c=64 v=0
14933 On ch=1 n=a2 v=28
14956 Par ch=1 c=64 v=127
14995 On ch=1 n=c#5 v=28
15004 On ch=1 n=g4 v=27
15013 Off ch=1 n=e5 v=64
15019 Off ch=1 n=g4 v=64
15020 Off ch=1 n=c#5 v=64
15091 On ch=1 n=d3 v=27
15093 Off ch=1 n=a2 v=64
15098 On ch=1 n=d5 v=36
15107 Par ch=1 c=64 v=0
15221 On ch=1 n=f#4 v=28
15224 On ch=1 n=a4 v=29
15676 Off ch=1 n=f#4 v=64
15679 Off ch=1 n=a4 v=64
15682 Off ch=1 n=d5 v=64
15728 Off ch=1 n=a3 v=64
15728 Off ch=1 n=d3 v=64
16800 Meta TrkEnd
TrkEnd
