MFile 1 2 120
MTrk
0 TimeSig 4/4 24 8
0 Tempo 600000
0 Meta TrkEnd
TrkEnd
MTrk
0 Meta Text "Piano     "
334 On ch=1 n=g5 v=64
334 On ch=1 n=e5 v=61
372 On ch=1 n=g6 v=62
372 On ch=1 n=c6 v=66
395 On ch=1 n=g4 v=69
399 Off ch=1 n=c6 v=64
401 Off ch=1 n=g6 v=64
419 Off ch=1 n=e5 v=64
424 Off ch=1 n=g5 v=64
425 On ch=1 n=g6 v=57
426 On ch=1 n=c6 v=57
439 Off ch=1 n=c6 v=64
444 Off ch=1 n=g6 v=64
449 On ch=1 n=a6 v=82
450 On ch=1 n=c6 v=62
455 On ch=1 n=d#5 v=64
455 On ch=1 n=f#5 v=64
504 Off ch=1 n=d#5 v=64
504 Off ch=1 n=c6 v=64
508 Off ch=1 n=a6 v=64
511 Off ch=1 n=f#5 v=64
512 On ch=1 n=e5 v=64
513 On ch=1 n=g5 v=61
532 Off ch=1 n=g4 v=64
542 On ch=1 n=g6 v=57
543 On ch=1 n=c6 v=51
569 On ch=1 n=g4 v=64
578 Off ch=1 n=c6 v=64
579 Off ch=1 n=g6 v=64
590 Off ch=1 n=e5 v=64
592 Off ch=1 n=g5 v=64
598 On ch=1 n=g6 v=57
599 On ch=1 n=c6 v=51
615 Off ch=1 n=c6 v=64
617 Off ch=1 n=g6 v=64
622 On ch=1 n=g5 v=69
623 On ch=1 n=c5 v=64
624 On ch=1 n=c6 v=54
625 On ch=1 n=e6 v=57
671 Off ch=1 n=g5 v=64
674 Off ch=1 n=c5 v=64
674 Off ch=1 n=c6 v=64
675 Off ch=1 n=e6 v=64
681 On ch=1 n=d5 v=61
682 On ch=1 n=g5 v=61
710 On ch=1 n=f6 v=57
710 On ch=1 n=c6 v=54
719 Off ch=1 n=g4 v=64
739 On ch=1 n=g4 v=69
742 Off ch=1 n=c6 v=64
742 Off ch=1 n=f6 v=64
763 On ch=1 n=f6 v=54
763 On ch=1 n=c6 v=54
767 Off ch=1 n=d5 v=64
767 Off ch=1 n=g5 v=64
782 Off ch=1 n=c6 v=64
786 Off ch=1 n=f6 v=64
788 On ch=1 n=g5 v=59
789 On ch=1 n=b4 v=69
790 On ch=1 n=g6 v=62
790 On ch=1 n=d6 v=62
833 Off ch=1 n=g6 v=64
835 Off ch=1 n=g5 v=64
835 Off ch=1 n=d6 v=64
836 Off ch=1 n=b4 v=64
846 On ch=1 n=g5 v=57
847 On ch=1 n=c5 v=69
872 On ch=1 n=e6 v=57
872 On ch=1 n=c6 v=51
878 Off ch=1 n=g4 v=64
904 On ch=1 n=g4 v=69
907 Off ch=1 n=e6 v=64
908 Off ch=1 n=c6 v=64
922 Off ch=1 n=g5 v=64
928 On ch=1 n=e6 v=57
929 Off ch=1 n=c5 v=64
930 On ch=1 n=c6 v=45
944 Off ch=1 n=c6 v=64
946 Off ch=1 n=e6 v=64
955 On ch=1 n=e5 v=64
956 On ch=1 n=c6 v=57
957 On ch=1 n=c5 v=53
958 On ch=1 n=g5 v=54
1001 Off ch=1 n=e5 v=64
1002 Off ch=1 n=c6 v=64
1004 Off ch=1 n=c5 v=64
1009 Off ch=1 n=g5 v=64
1015 On ch=1 n=e5 v=64
1032 Off ch=1 n=g4 v=64
1042 On ch=1 n=c6 v=62
1043 On ch=1 n=g5 v=51
1066 On ch=1 n=g4 v=69
1086 Off ch=1 n=c6 v=64
1086 Off ch=1 n=g5 v=64
1095 On ch=1 n=g5 v=47
1097 On ch=1 n=c6 v=54
1108 Off ch=1 n=e5 v=64
1110 Off ch=1 n=c6 v=64
1111 Off ch=1 n=g5 v=64
1118 On ch=1 n=f5 v=74
1119 On ch=1 n=c6 v=57
1120 On ch=1 n=a5 v=54
1167 Off ch=1 n=f5 v=64
1178 On ch=1 n=e5 v=82
1178 Off ch=1 n=a5 v=64
1181 Off ch=1 n=c6 v=64
1197 Off ch=1 n=g4 v=64
1210 On ch=1 n=c6 v=62
1210 On ch=1 n=g5 v=54
1232 On ch=1 n=g4 v=64
1248 Off ch=1 n=g5 v=64
1249 Off ch=1 n=c6 v=64
1263 On ch=1 n=c6 v=51
1264 On ch=1 n=g5 v=62
1265 Off ch=1 n=e5 v=64
1278 Off ch=1 n=c6 v=64
1280 Off ch=1 n=g5 v=64
1284 On ch=1 n=c5 v=69
1288 On ch=1 n=c6 v=54
1291 On ch=1 n=e5 v=66
1331 Off ch=1 n=c5 v=64
1340 Off ch=1 n=c6 v=64
1342 On ch=1 n=d5 v=74
1343 Off ch=1 n=e5 v=64
1364 Off ch=1 n=g4 v=64
1371 On ch=1 n=g5 v=51
1372 On ch=1 n=f5 v=51
1397 On ch=1 n=g4 v=74
1405 Off ch=1 n=f5 v=64
1407 Off ch=1 n=g5 v=64
1421 On ch=1 n=g5 v=45
1422 On ch=1 n=f5 v=54
1437 Off ch=1 n=g5 v=64
1439 Off ch=1 n=f5 v=64
1443 Off ch=1 n=d5 v=64
1448 On ch=1 n=g5 v=51
1456 On ch=1 n=e5 v=74
1487 Off ch=1 n=e5 v=64
1506 Off ch=1 n=g5 v=64
1514 On ch=1 n=c5 v=69
1539 Off ch=1 n=g4 v=64
1544 On ch=1 n=g5 v=43
1545 On ch=1 n=e5 v=51
1573 On ch=1 n=g4 v=51
1577 Off ch=1 n=e5 v=64
1577 Off ch=1 n=g5 v=64
1591 Off ch=1 n=c5 v=64
1595 On ch=1 n=e5 v=51
1595 On ch=1 n=g5 v=45
1611 Off ch=1 n=g5 v=64
1612 Off ch=1 n=e5 v=64
1622 On ch=1 n=e5 v=43
1623 On ch=1 n=g5 v=38
1632 On ch=1 n=c5 v=41
1668 Off ch=1 n=e5 v=64
1672 Off ch=1 n=g5 v=64
1685 Off ch=1 n=g4 v=64
1687 Off ch=1 n=c5 v=64
1697 On ch=1 n=g5 v=61
1698 On ch=1 n=e5 v=74
1734 On ch=1 n=g6 v=57
1735 On ch=1 n=c6 v=50
1753 On ch=1 n=g4 v=69
1765 Off ch=1 n=c6 v=64
1767 Off ch=1 n=g6 v=64
1772 Off ch=1 n=e5 v=64
1779 Off ch=1 n=g5 v=64
1781 On ch=1 n=g6 v=62
1781 On ch=1 n=c6 v=54
1795 Off ch=1 n=c6 v=64
1800 Off ch=1 n=g6 v=64
1803 On ch=1 n=d#5 v=69
1803 On ch=1 n=f#5 v=69
1807 On ch=1 n=a6 v=82
1808 On ch=1 n=c6 v=54
1850 Off ch=1 n=d#5 v=64
1852 Off ch=1 n=f#5 v=64
1855 Off ch=1 n=g4 v=64
1861 On ch=1 n=g5 v=74
1861 On ch=1 n=e5 v=69
1867 Off ch=1 n=c6 v=64
1867 Off ch=1 n=a6 v=64
1891 On ch=1 n=g6 v=66
1892 On ch=1 n=c6 v=51
1918 On ch=1 n=g4 v=64
1928 Off ch=1 n=c6 v=64
1929 Off ch=1 n=g6 v=64
1939 Off ch=1 n=g5 v=64
1942 Off ch=1 n=e5 v=64
1942 On ch=1 n=g6 v=51
1946 On ch=1 n=c6 v=43
1955 Off ch=1 n=c6 v=64
1962 Off ch=1 n=g6 v=64
1966 On ch=1 n=g5 v=88
1968 On ch=1 n=c5 v=64
1968 On ch=1 n=e6 v=57
1969 On ch=1 n=c6 v=54
2013 Off ch=1 n=g5 v=64
2016 Off ch=1 n=c5 v=64
2023 Off ch=1 n=e6 v=64
2024 On ch=1 n=g5 v=64
2025 On ch=1 n=d5 v=64
2025 Off ch=1 n=c6 v=64
2044 Off ch=1 n=g4 v=64
2053 On ch=1 n=f6 v=54
2054 On ch=1 n=c6 v=54
2078 On ch=1 n=g4 v=69
2084 Off ch=1 n=c6 v=64
2084 Off ch=1 n=f6 v=64
2102 On ch=1 n=c6 v=51
2103 On ch=1 n=f6 v=57
2106 Off ch=1 n=g5 v=64
2111 Off ch=1 n=d5 v=64
2116 Off ch=1 n=c6 v=64
2120 Off ch=1 n=f6 v=64
2127 On ch=1 n=g6 v=57
2128 On ch=1 n=g5 v=61
2128 On ch=1 n=d6 v=57
2130 On ch=1 n=b4 v=57
2174 Off ch=1 n=g5 v=64
2178 Off ch=1 n=b4 v=64
2178 Off ch=1 n=g6 v=64
2178 Off ch=1 n=d6 v=64
2186 On ch=1 n=g5 v=57
2188 On ch=1 n=c5 v=64
2191 Off ch=1 n=g4 v=64
2216 On ch=1 n=c6 v=51
2216 On ch=1 n=e6 v=57
2245 On ch=1 n=g4 v=61
2249 Off ch=1 n=e6 v=64
2250 Off ch=1 n=c6 v=64
2267 Off ch=1 n=g5 v=64
2268 On ch=1 n=e6 v=54
2269 Off ch=1 n=c5 v=64
2270 On ch=1 n=c6 v=51
2284 Off ch=1 n=c6 v=64
2289 Off ch=1 n=e6 v=64
2294 On ch=1 n=e5 v=53
2296 On ch=1 n=c5 v=45
2297 On ch=1 n=c6 v=54
2301 On ch=1 n=g5 v=43
2343 Off ch=1 n=c6 v=64
2344 Off ch=1 n=e5 v=64
2345 Off ch=1 n=c5 v=64
2359 On ch=1 n=e5 v=69
2359 Off ch=1 n=g5 v=64
2363 Off ch=1 n=g4 v=64
2384 On ch=1 n=c6 v=45
2390 On ch=1 n=g5 v=23
2413 On ch=1 n=g4 v=64
2425 Off ch=1 n=c6 v=64
2426 Off ch=1 n=g5 v=64
2439 On ch=1 n=g5 v=43
2439 On ch=1 n=c6 v=51
2454 Off ch=1 n=e5 v=64
2454 Off ch=1 n=c6 v=64
2458 Off ch=1 n=g5 v=64
2462 On ch=1 n=f5 v=74
2464 On ch=1 n=c6 v=51
2465 On ch=1 n=a5 v=62
2508 Off ch=1 n=f5 v=64
2516 Off ch=1 n=a5 v=64
2519 On ch=1 n=e5 v=64
2520 Off ch=1 n=c6 v=64
2530 Off ch=1 n=g4 v=64
2549 On ch=1 n=c6 v=54
2549 On ch=1 n=g5 v=47
2569 On ch=1 n=g4 v=69
2586 Off ch=1 n=c6 v=64
2588 Off ch=1 n=g5 v=64
2596 Off ch=1 n=e5 v=64
2602 On ch=1 n=g5 v=54
2603 On ch=1 n=c6 v=57
2611 Off ch=1 n=c6 v=64
2617 Off ch=1 n=g5 v=64
2619 On ch=1 n=c5 v=64
2627 On ch=1 n=g5 v=51
2627 On ch=1 n=e5 v=54
2629 On ch=1 n=c6 v=51
2667 Off ch=1 n=c5 v=64
2671 Off ch=1 n=c6 v=64
2673 Off ch=1 n=g5 v=64
2679 On ch=1 n=d5 v=64
2684 Off ch=1 n=e5 v=64
2697 Off ch=1 n=g4 v=64
2709 On ch=1 n=f5 v=66
2709 On ch=1 n=g5 v=57
2731 On ch=1 n=g4 v=61
2745 Off ch=1 n=f5 v=64
2746 Off ch=1 n=g5 v=64
2757 On ch=1 n=g5 v=45
2758 On ch=1 n=f5 v=54
2768 Off ch=1 n=d5 v=64
2771 Off ch=1 n=g5 v=64
2773 Off ch=1 n=f5 v=64
2783 On ch=1 n=e5 v=69
2784 On ch=1 n=g5 v=57
2820 Off ch=1 n=e5 v=64
2834 Off ch=1 n=g5 v=64
2841 On ch=1 n=c5 v=58
2854 Off ch=1 n=g4 v=64
2870 On ch=1 n=g5 v=38
2873 On ch=1 n=e5 v=38
2894 Off ch=1 n=e5 v=64
2896 Off ch=1 n=g5 v=64
2905 On ch=1 n=g4 v=34
2919 On ch=1 n=g5 v=43
2920 On ch=1 n=e5 v=45
2923 Off ch=1 n=c5 v=64
2932 Off ch=1 n=e5 v=64
2932 Off ch=1 n=g5 v=64
2948 On ch=1 n=e5 v=27
2948 On ch=1 n=g5 v=26
2960 On ch=1 n=c5 v=48
2969 Off ch=1 n=g4 v=64
3012 Off ch=1 n=e5 v=64
3015 Off ch=1 n=g5 v=64
3029 On ch=1 n=a#4 v=61
3033 Off ch=1 n=c5 v=64
3066 On ch=1 n=e5 v=43
3066 On ch=1 n=g5 v=47
3067 On ch=1 n=c6 v=38
3084 Off ch=1 n=a#4 v=64
3086 On ch=1 n=c5 v=74
3090 Off ch=1 n=e5 v=64
3091 Off ch=1 n=g5 v=64
3094 Off ch=1 n=c6 v=64
3115 On ch=1 n=g5 v=51
3116 On ch=1 n=c6 v=51
3116 On ch=1 n=e5 v=47
3125 Off ch=1 n=e5 v=64
3126 Off ch=1 n=c6 v=64
3132 Off ch=1 n=g5 v=64
3138 On ch=1 n=c6 v=62
3139 On ch=1 n=a5 v=62
3140 On ch=1 n=a4 v=61
3140 On ch=1 n=e5 v=54
3180 Off ch=1 n=a4 v=64
3189 On ch=1 n=g4 v=57
3195 Off ch=1 n=a5 v=64
3198 Off ch=1 n=e5 v=64
3204 Off ch=1 n=c6 v=64
3215 Off ch=1 n=c5 v=64
3221 On ch=1 n=a#5 v=54
3222 On ch=1 n=c6 v=51
3223 On ch=1 n=e5 v=54
3241 On ch=1 n=c5 v=74
3242 Off ch=1 n=e5 v=64
3245 Off ch=1 n=c6 v=64
3246 Off ch=1 n=a#5 v=64
3259 Off ch=1 n=g4 v=64
3272 On ch=1 n=e5 v=54
3272 On ch=1 n=a#5 v=54
3272 On ch=1 n=c6 v=54
3282 Off ch=1 n=e5 v=64
3285 Off ch=1 n=c6 v=64
3286 Off ch=1 n=a#5 v=64
3296 On ch=1 n=a#5 v=54
3296 On ch=1 n=c6 v=62
3298 On ch=1 n=f4 v=45
3298 On ch=1 n=f5 v=67
3350 Off ch=1 n=f4 v=64
3352 On ch=1 n=e4 v=64
3353 Off ch=1 n=a#5 v=64
3354 Off ch=1 n=f5 v=64
3357 Off ch=1 n=c5 v=64
3360 Off ch=1 n=c6 v=64
3384 On ch=1 n=g5 v=57
3384 On ch=1 n=c6 v=57
3385 On ch=1 n=a#5 v=62
3407 On ch=1 n=c5 v=74
3419 Off ch=1 n=a#5 v=64
3420 Off ch=1 n=g5 v=64
3420 Off ch=1 n=c6 v=64
3434 On ch=1 n=c6 v=66
3435 On ch=1 n=a#5 v=57
3437 On ch=1 n=g5 v=45
3438 Off ch=1 n=e4 v=64
3447 Off ch=1 n=g5 v=64
3449 Off ch=1 n=a#5 v=64
3451 Off ch=1 n=c6 v=64
3461 On ch=1 n=a#5 v=62
3461 On ch=1 n=c#6 v=66
3461 On ch=1 n=g5 v=57
3464 On ch=1 n=c#5 v=82
3465 On ch=1 n=d#4 v=57
3478 Off ch=1 n=c5 v=64
3513 Off ch=1 n=a#5 v=64
3514 Off ch=1 n=c#6 v=64
3514 Off ch=1 n=g5 v=64
3520 Off ch=1 n=d#4 v=64
3521 On ch=1 n=d4 v=64
3528 Off ch=1 n=c#5 v=64
3552 On ch=1 n=g5 v=51
3552 On ch=1 n=d6 v=54
3553 On ch=1 n=a#5 v=51
3580 On ch=1 n=d5 v=82
3584 Off ch=1 n=g5 v=64
3587 Off ch=1 n=d6 v=64
3587 Off ch=1 n=a#5 v=64
3605 On ch=1 n=d6 v=54
3605 On ch=1 n=g5 v=54
3605 On ch=1 n=a#5 v=47
3611 Off ch=1 n=d4 v=64
3622 Off ch=1 n=g5 v=64
3623 Off ch=1 n=a#5 v=64
3629 Off ch=1 n=d6 v=64
3635 On ch=1 n=e6 v=73
3635 On ch=1 n=a#5 v=62
3636 On ch=1 n=g5 v=66
3641 On ch=1 n=c#4 v=74
3642 On ch=1 n=e5 v=69
3657 Off ch=1 n=d5 v=64
3686 Off ch=1 n=g5 v=64
3688 Off ch=1 n=a#5 v=64
3690 Off ch=1 n=e6 v=64
3704 Off ch=1 n=e5 v=64
3704 Off ch=1 n=c#4 v=64
3708 On ch=1 n=d4 v=69
3747 On ch=1 n=d6 v=57
3747 On ch=1 n=f6 v=57
3747 On ch=1 n=a5 v=62
3764 On ch=1 n=d5 v=69
3769 Off ch=1 n=d4 v=64
3780 Off ch=1 n=d6 v=64
3780 Off ch=1 n=a5 v=64
3786 Off ch=1 n=f6 v=64
3799 On ch=1 n=f6 v=62
3800 On ch=1 n=a5 v=62
3801 On ch=1 n=d6 v=52
3812 Off ch=1 n=a5 v=64
3816 Off ch=1 n=d6 v=64
3817 Off ch=1 n=f6 v=64
3818 On ch=1 n=g3 v=74
3818 On ch=1 n=g4 v=74
3823 On ch=1 n=e6 v=62
3825 On ch=1 n=g5 v=66
3826 On ch=1 n=a#5 v=62
3827 Off ch=1 n=d5 v=64
3867 Off ch=1 n=a#5 v=64
3867 Off ch=1 n=e6 v=64
3868 Off ch=1 n=g5 v=64
3878 On ch=1 n=a3 v=74
3891 Off ch=1 n=g4 v=64
3891 Off ch=1 n=g3 v=64
3909 On ch=1 n=d6 v=62
3910 On ch=1 n=a5 v=66
3910 On ch=1 n=f5 v=54
3936 On ch=1 n=a4 v=74
3936 Off ch=1 n=f5 v=64
3937 Off ch=1 n=a5 v=64
3940 Off ch=1 n=d6 v=64
3962 On ch=1 n=d6 v=62
3962 On ch=1 n=f5 v=54
3964 On ch=1 n=a5 v=51
3975 Off ch=1 n=f5 v=64
3976 Off ch=1 n=d6 v=64
3976 Off ch=1 n=a5 v=64
3985 On ch=1 n=c#6 v=62
3987 On ch=1 n=a2 v=82
3987 On ch=1 n=e5 v=67
3987 On ch=1 n=a5 v=57
3996 Off ch=1 n=a4 v=64
4000 Off ch=1 n=a3 v=64
4030 Off ch=1 n=e5 v=64
4033 Off ch=1 n=a5 v=64
4035 Off ch=1 n=c#6 v=64
4049 On ch=1 n=d3 v=69
4054 Off ch=1 n=a2 v=64
4081 On ch=1 n=d6 v=62
4082 On ch=1 n=f5 v=62
4082 On ch=1 n=a5 v=73
4105 On ch=1 n=d4 v=74
4108 Off ch=1 n=a5 v=64
4109 Off ch=1 n=d6 v=64
4111 Off ch=1 n=f5 v=64
4124 Off ch=1 n=d3 v=64
4141 On ch=1 n=d6 v=66
4142 On ch=1 n=f5 v=62
4142 On ch=1 n=a5 v=51
4157 Off ch=1 n=a5 v=64
4159 Off ch=1 n=d6 v=64
4159 Off ch=1 n=f5 v=64
4168 On ch=1 n=g#3 v=74
4169 On ch=1 n=g#2 v=82
4170 On ch=1 n=c6 v=66
4171 On ch=1 n=d#5 v=62
4172 On ch=1 n=f#5 v=52
4178 Off ch=1 n=d4 v=64
4218 Off ch=1 n=d#5 v=64
4219 Off ch=1 n=f#5 v=64
4222 Off ch=1 n=c6 v=64
4224 Off ch=1 n=g#2 v=64
4224 Off ch=1 n=g#3 v=64
4234 On ch=1 n=g2 v=64
4234 On ch=1 n=g3 v=74
4267 On ch=1 n=c6 v=57
4268 On ch=1 n=d5 v=51
4268 On ch=1 n=f5 v=73
4297 On ch=1 n=g4 v=74
4306 Off ch=1 n=g2 v=64
4311 Off ch=1 n=d5 v=64
4313 Off ch=1 n=g3 v=64
4313 Off ch=1 n=f5 v=64
4314 Off ch=1 n=c6 v=64
4331 On ch=1 n=c6 v=60
4331 On ch=1 n=f5 v=54
4332 On ch=1 n=d5 v=55
4349 Off ch=1 n=d5 v=64
4351 Off ch=1 n=f5 v=64
4355 Off ch=1 n=c6 v=64
4364 On ch=1 n=b5 v=66
4365 On ch=1 n=g2 v=69
4365 On ch=1 n=g3 v=69
4365 On ch=1 n=d5 v=62
4365 On ch=1 n=f5 v=66
4387 Off ch=1 n=g4 v=64
4418 Off ch=1 n=d5 v=64
4419 Off ch=1 n=f5 v=64
4425 Off ch=1 n=b5 v=64
4426 Off ch=1 n=g3 v=64
4431 On ch=1 n=c3 v=69
4434 Off ch=1 n=g2 v=64
4472 On ch=1 n=g5 v=47
4473 On ch=1 n=c6 v=47
4487 On ch=1 n=e4 v=74
4489 Off ch=1 n=g5 v=64
4493 Off ch=1 n=c6 v=64
4515 Off ch=1 n=c3 v=64
4523 On ch=1 n=c6 v=57
4524 On ch=1 n=g5 v=54
4534 Off ch=1 n=c6 v=64
4535 Off ch=1 n=g5 v=64
4543 On ch=1 n=c6 v=54
4544 On ch=1 n=a5 v=66
4546 On ch=1 n=f4 v=69
4558 Off ch=1 n=e4 v=64
4601 On ch=1 n=e4 v=64
4607 Off ch=1 n=c6 v=64
4607 Off ch=1 n=a5 v=64
4612 Off ch=1 n=f4 v=64
4631 On ch=1 n=g5 v=51
4631 On ch=1 n=c6 v=47
4654 On ch=1 n=c3 v=56
4657 Off ch=1 n=g5 v=64
4658 Off ch=1 n=c6 v=64
4681 On ch=1 n=c6 v=51
4681 On ch=1 n=g5 v=57
4692 Off ch=1 n=e4 v=64
4692 Off ch=1 n=c6 v=64
4698 Off ch=1 n=g5 v=64
4705 On ch=1 n=c6 v=57
4706 On ch=1 n=g5 v=54
4706 On ch=1 n=e5 v=62
4709 On ch=1 n=c4 v=69
4753 Off ch=1 n=c3 v=64
4767 Off ch=1 n=e5 v=64
4768 On ch=1 n=d4 v=69
4771 Off ch=1 n=c6 v=64
4771 Off ch=1 n=g5 v=64
4773 Off ch=1 n=c4 v=64
4796 On ch=1 n=c6 v=57
4797 On ch=1 n=f5 v=51
4802 On ch=1 n=g5 v=51
4821 On ch=1 n=c3 v=69
4825 Off ch=1 n=f5 v=64
4825 Off ch=1 n=g5 v=64
4826 Off ch=1 n=c6 v=64
4852 On ch=1 n=f5 v=66
4852 On ch=1 n=c6 v=57
4853 On ch=1 n=g5 v=62
4865 Off ch=1 n=g5 v=64
4866 Off ch=1 n=f5 v=64
4866 Off ch=1 n=c6 v=64
4867 Off ch=1 n=d4 v=64
4875 On ch=1 n=e4 v=69
4877 On ch=1 n=c6 v=62
4877 On ch=1 n=g5 v=66
4919 Off ch=1 n=c3 v=64
4929 On ch=1 n=c4 v=74
4936 Off ch=1 n=g5 v=64
4940 Off ch=1 n=c6 v=64
4941 Off ch=1 n=e4 v=64
4963 On ch=1 n=g5 v=47
4963 On ch=1 n=c6 v=54
4963 On ch=1 n=e5 v=54
4983 On ch=1 n=c3 v=64
4988 Off ch=1 n=g5 v=64
4989 Off ch=1 n=c4 v=64
4989 Off ch=1 n=e5 v=64
4989 Off ch=1 n=c6 v=64
5013 On ch=1 n=e5 v=47
5013 On ch=1 n=c6 v=57
5013 On ch=1 n=g5 v=54
5020 Off ch=1 n=e5 v=64
5023 Off ch=1 n=c6 v=64
5028 Off ch=1 n=g5 v=64
5035 On ch=1 n=c6 v=62
5035 On ch=1 n=g5 v=62
5039 On ch=1 n=c5 v=54
5040 On ch=1 n=g3 v=69
5040 On ch=1 n=d5 v=57
5075 Off ch=1 n=d5 v=64
5082 Off ch=1 n=c5 v=64
5090 Off ch=1 n=g5 v=64
5092 Off ch=1 n=c6 v=64
5094 Off ch=1 n=c3 v=64
5098 On ch=1 n=e4 v=69
5101 Off ch=1 n=g3 v=64
5103 On ch=1 n=g3 v=64
5130 On ch=1 n=c6 v=45
5130 On ch=1 n=g5 v=43
5132 On ch=1 n=e5 v=40
5157 On ch=1 n=c3 v=64
5161 Off ch=1 n=e5 v=64
5162 Off ch=1 n=g3 v=64
5162 Off ch=1 n=g5 v=64
5162 Off ch=1 n=c6 v=64
5164 Off ch=1 n=e4 v=64
5185 On ch=1 n=e5 v=47
5186 On ch=1 n=g5 v=45
5186 On ch=1 n=c6 v=51
5194 Off ch=1 n=e5 v=64
5196 Off ch=1 n=c6 v=64
5197 Off ch=1 n=g5 v=64
5209 On ch=1 n=c6 v=57
5210 On ch=1 n=g5 v=43
5211 On ch=1 n=f5 v=57
5212 On ch=1 n=f4 v=74
5215 On ch=1 n=a3 v=61
5263 Off ch=1 n=a3 v=64
5265 Off ch=1 n=f4 v=64
5275 On ch=1 n=e4 v=74
5275 Off ch=1 n=f5 v=64
5276 On ch=1 n=g3 v=74
5277 Off ch=1 n=c6 v=64
5278 Off ch=1 n=g5 v=64
5290 Off ch=1 n=c3 v=64
5302 On ch=1 n=c6 v=38
5303 On ch=1 n=e5 v=36
5303 On ch=1 n=g5 v=36
5332 On ch=1 n=c3 v=69
5340 Off ch=1 n=e5 v=64
5342 Off ch=1 n=c6 v=64
5342 Off ch=1 n=g5 v=64
5351 Off ch=1 n=g3 v=64
5356 Off ch=1 n=e4 v=64
5362 On ch=1 n=e5 v=45
5362 On ch=1 n=g5 v=51
5363 On ch=1 n=c6 v=45
5372 Off ch=1 n=e5 v=64
5373 Off ch=1 n=c6 v=64
5378 Off ch=1 n=g5 v=64
5383 On ch=1 n=c4 v=61
5384 On ch=1 n=e3 v=61
5386 On ch=1 n=c6 v=57
5387 On ch=1 n=g5 v=54
5389 On ch=1 n=c5 v=57
5427 Off ch=1 n=e3 v=64
5429 Off ch=1 n=c5 v=64
5435 Off ch=1 n=g5 v=64
5437 Off ch=1 n=c3 v=64
5438 Off ch=1 n=c6 v=64
5440 On ch=1 n=d4 v=64
5444 On ch=1 n=f3 v=48
5451 Off ch=1 n=c4 v=64
5472 On ch=1 n=c6 v=54
5472 On ch=1 n=g5 v=43
5472 On ch=1 n=d5 v=47
5494 Off ch=1 n=d5 v=64
5495 On ch=1 n=c3 v=48
5498 Off ch=1 n=g5 v=64
5498 Off ch=1 n=c6 v=64
5510 Off ch=1 n=d4 v=64
5523 Off ch=1 n=f3 v=64
5523 On ch=1 n=d5 v=51
5524 On ch=1 n=c6 v=47
5524 On ch=1 n=g5 v=47
5537 Off ch=1 n=d5 v=64
5539 Off ch=1 n=c6 v=64
5541 Off ch=1 n=g5 v=64
5550 On ch=1 n=c6 v=57
5550 On ch=1 n=g5 v=62
5551 On ch=1 n=e5 v=62
5552 On ch=1 n=e4 v=57
5555 On ch=1 n=g3 v=45
5564 Off ch=1 n=c3 v=64
5591 Off ch=1 n=e5 v=64
5598 Off ch=1 n=g5 v=64
5600 Off ch=1 n=c6 v=64
5608 Off ch=1 n=e4 v=64
5612 On ch=1 n=c4 v=51
5616 On ch=1 n=e3 v=43
5618 Off ch=1 n=g3 v=64
5643 On ch=1 n=c6 v=54
5643 On ch=1 n=g5 v=51
5644 On ch=1 n=c5 v=54
5666 Off ch=1 n=e3 v=64
5673 On ch=1 n=c3 v=51
5676 Off ch=1 n=c4 v=64
5676 Off ch=1 n=c5 v=64
5678 Off ch=1 n=c6 v=64
5681 Off ch=1 n=g5 v=64
5697 On ch=1 n=c6 v=40
5699 On ch=1 n=c5 v=35
5710 Off ch=1 n=c6 v=64
5711 Off ch=1 n=c5 v=64
5728 On ch=1 n=c6 v=38
5729 On ch=1 n=c5 v=32
5734 On ch=1 n=c4 v=31
5752 Off ch=1 n=c3 v=64
5780 Off ch=1 n=c5 v=64
5787 Off ch=1 n=c6 v=64
5796 Off ch=1 n=c4 v=64
5806 On ch=1 n=a#4 v=51
5840 On ch=1 n=c6 v=30
5841 On ch=1 n=g5 v=29
5841 On ch=1 n=e5 v=26
5864 Off ch=1 n=e5 v=64
5865 Off ch=1 n=g5 v=64
5867 Off ch=1 n=c6 v=64
5870 On ch=1 n=c5 v=57
5890 On ch=1 n=c6 v=35
5890 On ch=1 n=g5 v=36
5891 On ch=1 n=e5 v=35
5904 Off ch=1 n=e5 v=64
5904 Off ch=1 n=c6 v=64
5908 Off ch=1 n=g5 v=64
5922 On ch=1 n=a5 v=54
5922 On ch=1 n=c6 v=54
5923 Off ch=1 n=a#4 v=64
5923 On ch=1 n=e5 v=51
5926 On ch=1 n=a4 v=57
5947 Off ch=1 n=c5 v=64
5981 On ch=1 n=g4 v=57
5984 Off ch=1 n=a5 v=64
5986 Off ch=1 n=a4 v=64
5987 Off ch=1 n=e5 v=64
5994 Off ch=1 n=c6 v=64
6015 On ch=1 n=a#5 v=47
6015 On ch=1 n=c6 v=54
6015 On ch=1 n=e5 v=51
6033 On ch=1 n=c5 v=82
6035 Off ch=1 n=e5 v=64
6038 Off ch=1 n=a#5 v=64
6039 Off ch=1 n=c6 v=64
6065 On ch=1 n=e5 v=54
6065 On ch=1 n=a#5 v=51
6065 On ch=1 n=c6 v=57
6073 Off ch=1 n=e5 v=64
6075 Off ch=1 n=c6 v=64
6078 Off ch=1 n=a#5 v=64
6087 On ch=1 n=f4 v=69
6088 Off ch=1 n=g4 v=64
6089 On ch=1 n=c6 v=54
6089 On ch=1 n=a#5 v=54
6091 On ch=1 n=f5 v=51
6136 Off ch=1 n=c5 v=64
6142 On ch=1 n=e4 v=61
6142 Off ch=1 n=a#5 v=64
6143 Off ch=1 n=f5 v=64
6146 Off ch=1 n=f4 v=64
6150 Off ch=1 n=c6 v=64
6175 On ch=1 n=c6 v=66
6176 On ch=1 n=a#5 v=62
6176 On ch=1 n=g5 v=54
6196 On ch=1 n=c5 v=82
6196 Off ch=1 n=a#5 v=64
6197 Off ch=1 n=g5 v=64
6199 Off ch=1 n=c6 v=64
6225 On ch=1 n=c6 v=66
6226 On ch=1 n=g5 v=57
6227 On ch=1 n=a#5 v=51
6235 Off ch=1 n=a#5 v=64
6237 Off ch=1 n=g5 v=64
6240 Off ch=1 n=c6 v=64
6250 On ch=1 n=a#5 v=73
6250 On ch=1 n=c#6 v=66
6250 On ch=1 n=g5 v=57
6253 On ch=1 n=c#5 v=82
6254 On ch=1 n=d#4 v=69
6259 Off ch=1 n=e4 v=64
6265 Off ch=1 n=c5 v=64
6312 Off ch=1 n=c#6 v=64
6312 Off ch=1 n=a#5 v=64
6313 Off ch=1 n=d#4 v=64
6313 On ch=1 n=d4 v=61
6313 Off ch=1 n=g5 v=64
6316 Off ch=1 n=c#5 v=64
6345 On ch=1 n=a#5 v=54
6345 On ch=1 n=d6 v=47
6345 On ch=1 n=g5 v=47
6372 On ch=1 n=d5 v=82
6374 Off ch=1 n=g5 v=64
6376 Off ch=1 n=a#5 v=64
6377 Off ch=1 n=d6 v=64
6404 On ch=1 n=d6 v=66
6405 On ch=1 n=a#5 v=62
6405 On ch=1 n=g5 v=54
6420 Off ch=1 n=g5 v=64
6423 Off ch=1 n=a#5 v=64
6427 Off ch=1 n=d6 v=64
6431 Off ch=1 n=d4 v=64
6434 On ch=1 n=c#4 v=69
6436 On ch=1 n=e5 v=92
6438 On ch=1 n=e6 v=73
6438 On ch=1 n=a#5 v=73
6439 On ch=1 n=g5 v=54
6450 Off ch=1 n=d5 v=64
6492 Off ch=1 n=g5 v=64
6494 Off ch=1 n=e5 v=64
6495 Off ch=1 n=a#5 v=64
6497 On ch=1 n=d4 v=69
6497 Off ch=1 n=e6 v=64
6499 Off ch=1 n=c#4 v=64
6538 On ch=1 n=d6 v=57
6538 On ch=1 n=f6 v=57
6539 On ch=1 n=a5 v=62
6553 On ch=1 n=d5 v=74
6568 Off ch=1 n=d6 v=64
6571 Off ch=1 n=a5 v=64
6574 Off ch=1 n=f6 v=64
6591 On ch=1 n=f6 v=66
6591 On ch=1 n=a5 v=57
6592 On ch=1 n=d6 v=57
6603 Off ch=1 n=a5 v=64
6604 Off ch=1 n=f6 v=64
6606 Off ch=1 n=d6 v=64
6610 On ch=1 n=g3 v=74
6612 On ch=1 n=e6 v=62
6614 Off ch=1 n=d4 v=64
6614 On ch=1 n=g5 v=62
6614 On ch=1 n=a#5 v=66
6619 Off ch=1 n=d5 v=64
6650 Off ch=1 n=e6 v=64
6652 Off ch=1 n=g5 v=64
6652 Off ch=1 n=a#5 v=64
6668 On ch=1 n=a3 v=69
6670 Off ch=1 n=g3 v=64
6698 On ch=1 n=d6 v=54
6699 On ch=1 n=a5 v=62
6700 On ch=1 n=f5 v=54
6719 On ch=1 n=a4 v=82
6729 Off ch=1 n=f5 v=64
6729 Off ch=1 n=d6 v=64
6730 Off ch=1 n=a5 v=64
6752 On ch=1 n=d6 v=57
6753 On ch=1 n=f5 v=57
6753 On ch=1 n=a5 v=62
6765 Off ch=1 n=f5 v=64
6766 Off ch=1 n=d6 v=64
6767 Off ch=1 n=a3 v=64
6767 Off ch=1 n=a5 v=64
6774 On ch=1 n=c#6 v=62
6776 On ch=1 n=a5 v=62
6777 On ch=1 n=e5 v=62
6779 On ch=1 n=a2 v=69
6779 On ch=1 n=a3 v=82
6788 Off ch=1 n=a4 v=64
6815 Off ch=1 n=e5 v=64
6816 Off ch=1 n=a5 v=64
6818 Off ch=1 n=c#6 v=64
6833 Off ch=1 n=a3 v=64
6837 On ch=1 n=d3 v=108
6846 Off ch=1 n=a2 v=64
6870 On ch=1 n=d6 v=54
6871 On ch=1 n=f5 v=57
6871 On ch=1 n=a5 v=66
6894 Off ch=1 n=a5 v=64
6896 On ch=1 n=d4 v=74
6898 Off ch=1 n=d6 v=64
6905 Off ch=1 n=f5 v=64
6914 Off ch=1 n=d3 v=64
6932 On ch=1 n=d6 v=66
6933 On ch=1 n=f5 v=66
6937 On ch=1 n=a5 v=27
6946 Off ch=1 n=a5 v=64
6948 Off ch=1 n=d6 v=64
6949 Off ch=1 n=f5 v=64
6963 On ch=1 n=g#3 v=61
6963 On ch=1 n=g#2 v=82
6963 On ch=1 n=c6 v=73
6964 On ch=1 n=d#5 v=66
6964 On ch=1 n=f#5 v=66
6970 On ch=1 n=d5 v=29
6970 On ch=1 n=e5 v=26
6977 Off ch=1 n=d5 v=64
6977 Off ch=1 n=e5 v=64
6987 Off ch=1 n=d4 v=64
7020 Off ch=1 n=g#3 v=64
7020 Off ch=1 n=g#2 v=64
7020 Off ch=1 n=d#5 v=64
7023 Off ch=1 n=f#5 v=64
7027 Off ch=1 n=c6 v=64
7029 On ch=1 n=g3 v=69
7030 On ch=1 n=g2 v=69
7066 On ch=1 n=c6 v=66
7067 On ch=1 n=f5 v=73
7067 On ch=1 n=d5 v=54
7099 Off ch=1 n=d5 v=64
7102 Off ch=1 n=f5 v=64
7103 On ch=1 n=g4 v=74
7103 Off ch=1 n=c6 v=64
7118 Off ch=1 n=g2 v=64
7118 Off ch=1 n=g3 v=64
7128 On ch=1 n=c6 v=57
7129 On ch=1 n=f5 v=54
7129 On ch=1 n=d5 v=57
7153 Off ch=1 n=d5 v=64
7153 Off ch=1 n=f5 v=64
7154 Off ch=1 n=c6 v=64
7170 On ch=1 n=f5 v=73
7170 On ch=1 n=b5 v=57
7171 On ch=1 n=d5 v=66
7176 On ch=1 n=g2 v=69
7176 On ch=1 n=g3 v=69
7191 Off ch=1 n=g4 v=64
7241 Off ch=1 n=g3 v=64
7245 Off ch=1 n=d5 v=64
7247 On ch=1 n=c3 v=82
7248 Off ch=1 n=g2 v=64
7248 Off ch=1 n=f5 v=64
7251 Off ch=1 n=b5 v=64
7286 On ch=1 n=g5 v=57
7286 On ch=1 n=c6 v=66
7309 Off ch=1 n=g5 v=64
7311 On ch=1 n=e4 v=74
7311 Off ch=1 n=c6 v=64
7341 On ch=1 n=c6 v=62
7341 On ch=1 n=g5 v=57
7355 Off ch=1 n=c6 v=64
7356 Off ch=1 n=g5 v=64
7363 Off ch=1 n=c3 v=64
7367 On ch=1 n=c6 v=62
7367 On ch=1 n=a5 v=82
7372 On ch=1 n=f4 v=82
7383 Off ch=1 n=e4 v=64
7429 On ch=1 n=e4 v=82
7433 Off ch=1 n=a5 v=64
7435 Off ch=1 n=c6 v=64
7442 Off ch=1 n=f4 v=64
7462 On ch=1 n=g5 v=66
7462 On ch=1 n=c6 v=66
7486 On ch=1 n=c3 v=92
7492 Off ch=1 n=c6 v=64
7493 Off ch=1 n=g5 v=64
7511 Off ch=1 n=e4 v=64
7515 On ch=1 n=c6 v=62
7516 On ch=1 n=g5 v=62
7526 Off ch=1 n=c6 v=64
7528 Off ch=1 n=g5 v=64
7538 On ch=1 n=c4 v=69
7541 On ch=1 n=c6 v=66
7542 On ch=1 n=g5 v=66
7542 On ch=1 n=e5 v=66
7572 Off ch=1 n=c3 v=64
7598 Off ch=1 n=e5 v=64
7600 On ch=1 n=d4 v=82
7603 Off ch=1 n=g5 v=64
7604 Off ch=1 n=c6 v=64
7608 Off ch=1 n=c4 v=64
7630 On ch=1 n=c6 v=62
7630 On ch=1 n=g5 v=62
7631 On ch=1 n=f5 v=54
7659 Off ch=1 n=f5 v=64
7661 On ch=1 n=c3 v=74
7661 Off ch=1 n=g5 v=64
7661 Off ch=1 n=c6 v=64
7687 On ch=1 n=f5 v=54
7688 On ch=1 n=c6 v=54
7688 On ch=1 n=g5 v=51
7698 Off ch=1 n=g5 v=64
7698 Off ch=1 n=c6 v=64
7700 Off ch=1 n=f5 v=64
7705 Off ch=1 n=d4 v=64
7713 On ch=1 n=e4 v=92
7714 On ch=1 n=g5 v=66
7714 On ch=1 n=c6 v=57
7748 Off ch=1 n=c3 v=64
7772 On ch=1 n=c4 v=74
7781 Off ch=1 n=g5 v=64
7782 Off ch=1 n=c6 v=64
7787 Off ch=1 n=e4 v=64
7803 On ch=1 n=c6 v=54
7803 On ch=1 n=g5 v=54
7804 On ch=1 n=e5 v=51
7826 Off ch=1 n=g5 v=64
7827 Off ch=1 n=e5 v=64
7829 Off ch=1 n=c6 v=64
7832 On ch=1 n=c3 v=69
7834 Off ch=1 n=c4 v=64
7860 On ch=1 n=g5 v=54
7861 On ch=1 n=c6 v=51
7861 On ch=1 n=e5 v=40
7869 Off ch=1 n=e5 v=64
7871 Off ch=1 n=c6 v=64
7878 Off ch=1 n=g5 v=64
7884 On ch=1 n=c6 v=62
7885 On ch=1 n=g5 v=62
7887 On ch=1 n=c5 v=57
7889 On ch=1 n=g3 v=69
7942 Off ch=1 n=c5 v=64
7946 Off ch=1 n=g5 v=64
7949 Off ch=1 n=c3 v=64
7950 Off ch=1 n=c6 v=64
7954 Off ch=1 n=g3 v=64
7954 On ch=1 n=e4 v=92
7955 On ch=1 n=g3 v=69
7985 On ch=1 n=g5 v=51
7986 On ch=1 n=c6 v=40
7987 On ch=1 n=e5 v=43
8012 On ch=1 n=c3 v=64
8017 Off ch=1 n=g3 v=64
8020 Off ch=1 n=e5 v=64
8022 Off ch=1 n=e4 v=64
8023 Off ch=1 n=c6 v=64
8024 Off ch=1 n=g5 v=64
8046 On ch=1 n=e5 v=54
8046 On ch=1 n=c6 v=54
8046 On ch=1 n=g5 v=54
8059 Off ch=1 n=e5 v=64
8060 Off ch=1 n=c6 v=64
8061 Off ch=1 n=g5 v=64
8070 On ch=1 n=f4 v=82
8071 On ch=1 n=a3 v=69
8071 On ch=1 n=g5 v=66
8071 On ch=1 n=c6 v=57
8072 On ch=1 n=f5 v=62
8123 Off ch=1 n=f4 v=64
8125 Off ch=1 n=f5 v=64
8126 Off ch=1 n=a3 v=64
8128 Off ch=1 n=g5 v=64
8129 Off ch=1 n=c6 v=64
8135 On ch=1 n=e4 v=74
8136 On ch=1 n=g3 v=69
8137 Off ch=1 n=c3 v=64
8166 On ch=1 n=e5 v=54
8166 On ch=1 n=g5 v=47
8166 On ch=1 n=c6 v=54
8188 Off ch=1 n=g5 v=64
8188 Off ch=1 n=e5 v=64
8193 Off ch=1 n=c6 v=64
8198 On ch=1 n=c3 v=74
8213 Off ch=1 n=e4 v=64
8216 Off ch=1 n=g3 v=64
8226 On ch=1 n=e5 v=51
8227 On ch=1 n=g5 v=54
8228 On ch=1 n=c6 v=43
8238 Off ch=1 n=e5 v=64
8238 Off ch=1 n=c6 v=64
8246 Off ch=1 n=g5 v=64
8250 On ch=1 n=c4 v=61
8252 On ch=1 n=e3 v=64
8255 On ch=1 n=g5 v=51
8255 On ch=1 n=c6 v=57
8258 On ch=1 n=c5 v=62
8299 Off ch=1 n=e3 v=64
8301 Off ch=1 n=c5 v=64
8306 Off ch=1 n=c3 v=64
8307 Off ch=1 n=g5 v=64
8311 Off ch=1 n=c6 v=64
8314 Off ch=1 n=c4 v=64
8315 On ch=1 n=d4 v=82
8318 On ch=1 n=f3 v=64
8345 On ch=1 n=c6 v=51
8346 On ch=1 n=d5 v=51
8346 On ch=1 n=g5 v=46
8365 Off ch=1 n=d5 v=64
8366 Off ch=1 n=c6 v=64
8366 Off ch=1 n=g5 v=64
8379 On ch=1 n=c3 v=82
8396 Off ch=1 n=d4 v=64
8402 On ch=1 n=g5 v=51
8402 On ch=1 n=d5 v=47
8402 On ch=1 n=c6 v=54
8405 Off ch=1 n=f3 v=64
8415 Off ch=1 n=d5 v=64
8416 Off ch=1 n=c6 v=64
8418 Off ch=1 n=g5 v=64
8435 On ch=1 n=g5 v=62
8435 On ch=1 n=c6 v=62
8435 On ch=1 n=e5 v=62
8442 On ch=1 n=e4 v=74
8444 On ch=1 n=g3 v=74
8448 Off ch=1 n=c3 v=64
8497 Off ch=1 n=e5 v=64
8501 Off ch=1 n=g5 v=64
8503 Off ch=1 n=e4 v=64
8504 Off ch=1 n=c6 v=64
8510 On ch=1 n=c4 v=64
8513 On ch=1 n=e3 v=57
8513 Off ch=1 n=g3 v=64
8550 On ch=1 n=c6 v=51
8550 On ch=1 n=g5 v=51
8551 On ch=1 n=c5 v=54
8570 Off ch=1 n=c5 v=64
8573 Off ch=1 n=g5 v=64
8574 Off ch=1 n=c6 v=64
8585 On ch=1 n=c3 v=57
8593 Off ch=1 n=e3 v=64
8600 Off ch=1 n=c4 v=64
8623 On ch=1 n=c6 v=51
8624 On ch=1 n=c5 v=54
8638 Off ch=1 n=c5 v=64
8638 Off ch=1 n=c6 v=64
8669 On ch=1 n=c6 v=66
8670 On ch=1 n=c5 v=62
8677 On ch=1 n=c4 v=57
8914 Off ch=1 n=c3 v=64
8917 Off ch=1 n=c4 v=64
8955 Off ch=1 n=c6 v=64
8956 Off ch=1 n=c5 v=64
9600 Meta TrkEnd
TrkEnd
