MFile 1 4 480
MTrk
0 Tempo 540540
0 TimeSig 2/4 24 8
38400 Tempo 566037
38880 Tempo 600000
39120 Tempo 625000
39240 Tempo 540540
47040 Tempo 566037
69120 Tempo 666666
69600 Tempo 714285
70080 Tempo 566037
84480 Tempo 666666
84960 Tempo 714285
85440 Tempo 625000
86400 Tempo 594059
87360 Tempo 566037
93120 Tempo 540540
107520 Tempo 566037
108000 Tempo 612244
108240 Tempo 659340
108360 Tempo 612244
108960 Tempo 571428
109440 Tempo 540540
116160 TimeSig 3/4 24 8
117120 Tempo 909090
125520 Tempo 869565
126000 Tempo 821917
126240 Tempo 909090
127680 Tempo 1071428
128160 Tempo 1395348
128640 Tempo 909090
137040 Tempo 869565
137520 Tempo 821917
137760 Tempo 909090
139200 Tempo 1071428
139680 Tempo 1621621
140160 Tempo 909090
156480 Tempo 1071428
156960 Tempo 1395348
157200 Tempo 1714285
157320 Tempo 3750000
157440 Tempo 909090
157920 TimeSig 1/4 24 8
158400 TimeSig 3/4 24 8
168480 Tempo 1090909
169440 Tempo 909090
169920 Tempo 869565
175680 Tempo 909090
177840 Tempo 1000000
178560 Tempo 1090909
180000 Tempo 909090
184320 Tempo 555555
184320 TimeSig 2/4 24 8
193680 Tempo 545454
194640 Tempo 535714
197520 Tempo 555555
202320 Tempo 545454
203280 Tempo 535714
206160 Tempo 555555
209280 TimeSig 3/4 24 8
210240 Tempo 909090
220800 Tempo 1090909
221760 Tempo 909090
222240 Tempo 869565
228000 Tempo 909090
229920 Tempo 1000000
230880 Tempo 1090909
232320 Tempo 909090
233760 Tempo 1153846
236160 Tempo 441176
269760 TimeSig 2/4 24 8
271680 TimeSig 3/4 24 8
283680 Tempo 535714
284160 Tempo 566037
285600 Tempo 441176
296160 TimeSig 2/4 24 8
298080 TimeSig 3/4 24 8
310080 Tempo 535714
310560 Tempo 566037
311040 Tempo 659340
312000 Tempo 909090
315840 Tempo 1000000
316320 Tempo 1071428
316800 Tempo 1200000
317760 Tempo 909090
321600 Tempo 1000000
322080 Tempo 1071428
322560 Tempo 1200000
323520 Tempo 909090
333600 Tempo 983606
334080 Tempo 1071428
335040 Tempo 882352
335520 Tempo 845070
336480 Tempo 909090
336960 Tempo 1000000
337920 Tempo 909090
338400 Tempo 845070
339360 Tempo 909090
339840 Tempo 1000000
340800 Tempo 909090
341280 Tempo 845070
342480 Tempo 1071428
343200 Tempo 909090
343680 Tempo 1621621
344160 Tempo 1333333
345120 Tempo 1428571
346080 Tempo 1538461
346560 Tempo 1000000
347040 Tempo 909090
348000 Tempo 882352
349440 Tempo 909090
350400 Tempo 952380
351360 Tempo 1090909
352320 Tempo 909090
352800 Tempo 869565
358080 Tempo 909090
358560 Tempo 869565
366480 Tempo 1000000
367200 Tempo 1090909
368640 Tempo 909090
370080 Tempo 1090909
371520 Tempo 789473
372960 Tempo 909090
374400 Tempo 1276595
375360 Tempo 1714285
375840 Tempo 1578947
378720 Tempo 444444
378720 TimeSig 2/4 24 8
411360 Tempo 483870
411360 TimeSig 4/4 24 8
455520 TimeSig 2/4 24 8
456480 Tempo 576923
456960 Tempo 638297
457200 Tempo 714285
457440 Tempo 483870
457440 TimeSig 4/4 24 8
459360 TimeSig 2/4 24 8
460320 Tempo 576923
460800 Tempo 638297
461280 Tempo 483870
461280 TimeSig 4/4 24 8
491040 Tempo 576923
491520 Tempo 638297
491760 Tempo 714285
492000 Tempo 483870
494880 Tempo 526315
495360 Tempo 576923
495840 Tempo 483870
509280 Tempo 526315
509760 Tempo 576923
511200 TimeSig 2/4 24 8
511920 Tempo 444444
569040 Tempo 480000
569280 Tempo 500000
569760 Tempo 521739
570240 Tempo 545454
570720 Tempo 631578
572640 Tempo 1818181
572640 TimeSig 4/8 12 8
573600 Tempo 4000000
573780 Tempo 1818181
575040 Tempo 3000000
575160 Tempo 1935483
575280 Tempo 1818181
576508 Tempo 5000000
576660 Tempo 1818181
577920 Tempo 2727272
578040 Tempo 2400000
578160 Tempo 2142857
578400 Tempo 2608695
578640 Tempo 1818181
579388 Tempo 5000000
579540 Tempo 2400000
579600 Tempo 1818181
580800 Tempo 3529411
580920 Tempo 2307692
581040 Tempo 1818181
581760 Tempo 1276595
582480 Tempo 1818181
583440 Tempo 2142857
583680 Tempo 1276595
584400 Tempo 1818181
587068 Tempo 4615384
587220 Tempo 1818181
588480 Tempo 2500000
588600 Tempo 2068965
588720 Tempo 1818181
589920 Tempo 4000000
590100 Tempo 1818181
591360 Tempo 2000000
591480 Tempo 2222222
591600 Tempo 2400000
592560 Tempo 1224489
592800 Tempo 612244
592800 TimeSig 4/4 24 8
602640 Tempo 705882
602880 Tempo 857142
603360 Tempo 1153846
603600 Tempo 1463414
603720 Tempo 2068965
603840 Tempo 612244
610800 Tempo 769230
611040 Tempo 1034482
611280 Tempo 1764705
611520 Tempo 612244
613920 Tempo 681818
614640 Tempo 769230
614880 Tempo 882352
615000 Tempo 1132075
615120 Tempo 1333333
615840 TimeSig 4/8 24 8
616560 Tempo 1818181
616800 Tempo 4000000
616980 Tempo 1818181
618240 Tempo 3000000
618360 Tempo 1935483
618480 Tempo 1818181
619708 Tempo 5000000
619860 Tempo 1818181
621120 Tempo 4000000
621240 Tempo 2400000
621360 Tempo 2608695
621840 Tempo 3157894
623520 Tempo 357142
623520 TimeSig 3/4 24 8
712800 Tempo 405405
713280 Tempo 468750
713760 Tempo 681818
714240 Tempo 731707
714720 Tempo 357142
737760 Tempo 428571
738720 Tempo 375000
740400 Tempo 413793
740880 Tempo 454545
741360 Tempo 606060
741960 Tempo 857142
742080 Tempo 357142
757920 Tempo 320855
758880 Tempo 312500
760800 Tempo 306122
761760 Tempo 295566
763680 Tempo 287081
764640 Tempo 266666
778560 Tempo 307692
778800 Tempo 260869
783360 Tempo 255319
789600 Tempo 272727
790560 Tempo 266666
791520 Tempo 272727
792960 Tempo 344827
794400 Tempo 350877
795840 Tempo 377358
797280 Tempo 431654
798720 Tempo 600000
799200 Tempo 461538
802560 Tempo 357142
869760 Tempo 405405
870240 Tempo 468750
870720 Tempo 652173
874080 Tempo 363636
874080 TimeSig 12/8 12 8
876480 Tempo 1090909
877440 Tempo 1333333
877600 Tempo 1090909
891360 TimeSig 6/8 12 8
898080 Tempo 1224489
900000 Tempo 1090909
903840 Tempo 1224489
905760 Tempo 1090909
905760 TimeSig 12/8 12 8
922320 Tempo 1363636
923040 Tempo 1090909
925920 TimeSig 6/8 12 8
926640 Tempo 1224489
927360 Tempo 681818
927720 Tempo 612244
928080 Tempo 645161
928440 Tempo 612244
929520 Tempo 895522
929880 Tempo 1034482
930240 Tempo 681818
930600 Tempo 612244
930960 Tempo 645161
931320 Tempo 612244
932400 Tempo 895522
932760 Tempo 1034482
933120 Tempo 681818
933480 Tempo 612244
933840 Tempo 645161
934200 Tempo 612244
936720 Tempo 681818
937440 Tempo 869565
937800 Tempo 1111111
938160 Tempo 1224489
939240 Tempo 612244
941760 Tempo 582524
947520 Tempo 612244
948240 Tempo 681818
948960 Tempo 937500
949320 Tempo 1111111
949680 Tempo 1363636
950040 Tempo 1538461
950400 Tempo 1714285
950400 TimeSig 12/8 12 8
950640 Tempo 2000000
951080 Tempo 1200000
957600 Tempo 1333333
960480 Tempo 1500000
961920 Tempo 666666
964680 Tempo 416666
964800 TimeSig 2/4 24 8
1049040 Tempo 375000
1068240 Tempo 625000
1087680 Tempo 666666
1088400 Tempo 705882
1092960 Tempo 800000
1093920 Tempo 952380
1095360 Tempo 1132075
1095360 TimeSig 6/8 12 8
1096320 Tempo 322580
1117680 Tempo 355029
1118040 Tempo 389610
1118400 Tempo 428571
1119120 Tempo 517241
1119480 Tempo 322580
1140720 Tempo 355029
1141080 Tempo 389610
1141440 Tempo 428571
1142160 Tempo 517241
1142520 Tempo 322580
1208400 Tempo 346820
1209120 Tempo 382165
1209840 Tempo 425531
1210560 Tempo 500000
1211280 Tempo 571428
1211640 Tempo 322580
1223160 Tempo 340909
1292280 Tempo 322580
1317840 Tempo 352941
1318560 Tempo 387096
1319280 Tempo 434782
1320000 Tempo 512820
1320720 Tempo 681818
1321080 Tempo 322580
1321080 Meta TrkEnd
TrkEnd
MTrk
0 SeqSpec 43 00 01 00
0 Meta TrkName "Melody"
0 Meta 0x21 00
0 Meta 0x20 00
0 Par ch=1 c=10 v=64
0 PrCh ch=1 p=0
880 On ch=1 n=a4 v=102
960 On ch=1 n=a4 v=0
960 On ch=1 n=a#4 v=108
1040 On ch=1 n=a#4 v=0
1040 On ch=1 n=e4 v=102
1120 On ch=1 n=e4 v=0
1120 On ch=1 n=c#5 v=102
1200 On ch=1 n=c#5 v=0
1200 On ch=1 n=e5 v=108
1280 On ch=1 n=e5 v=0
1280 On ch=1 n=g4 v=102
1360 On ch=1 n=g4 v=0
1360 On ch=1 n=a4 v=102
1440 On ch=1 n=a4 v=0
1440 On ch=1 n=a#4 v=108
1520 On ch=1 n=a#4 v=0
1520 On ch=1 n=f4 v=102
1600 On ch=1 n=f4 v=0
1600 On ch=1 n=d5 v=102
1680 On ch=1 n=d5 v=0
1680 On ch=1 n=f5 v=108
1760 On ch=1 n=f5 v=0
1760 On ch=1 n=a4 v=102
1840 On ch=1 n=a4 v=0
1840 On ch=1 n=c5 v=102
1920 On ch=1 n=c5 v=0
1920 On ch=1 n=c#5 v=108
2000 On ch=1 n=c#5 v=0
2000 On ch=1 n=g4 v=102
2080 On ch=1 n=g4 v=0
2080 On ch=1 n=e5 v=102
2160 On ch=1 n=e5 v=0
2160 On ch=1 n=g5 v=110
2240 On ch=1 n=g5 v=0
2240 On ch=1 n=a#4 v=104
2320 On ch=1 n=a#4 v=0
2320 On ch=1 n=d5 v=104
2400 On ch=1 n=d5 v=0
2400 On ch=1 n=d#5 v=112
2480 On ch=1 n=d#5 v=0
2480 On ch=1 n=a4 v=106
2560 On ch=1 n=a4 v=0
2560 On ch=1 n=a5 v=106
2640 On ch=1 n=a5 v=0
2640 On ch=1 n=c6 v=114
2720 On ch=1 n=c6 v=0
2720 On ch=1 n=c5 v=108
2800 On ch=1 n=c5 v=0
2800 On ch=1 n=d5 v=108
2880 On ch=1 n=d5 v=0
2880 On ch=1 n=d#5 v=116
2960 On ch=1 n=d#5 v=0
2960 On ch=1 n=a#4 v=110
3040 On ch=1 n=a#4 v=0
3040 On ch=1 n=g5 v=110
3120 On ch=1 n=g5 v=0
3120 On ch=1 n=a#5 v=118
3200 On ch=1 n=a#5 v=0
3200 On ch=1 n=d5 v=112
3280 On ch=1 n=d5 v=0
3280 On ch=1 n=e5 v=112
3360 On ch=1 n=e5 v=0
3360 On ch=1 n=f5 v=120
3440 On ch=1 n=f5 v=0
3440 On ch=1 n=b4 v=114
3520 On ch=1 n=b4 v=0
3520 On ch=1 n=b5 v=114
3600 On ch=1 n=b5 v=0
3600 On ch=1 n=d6 v=122
3680 On ch=1 n=d6 v=0
3680 On ch=1 n=f5 v=116
3760 On ch=1 n=f5 v=0
3760 On ch=1 n=g5 v=116
3840 On ch=1 n=g5 v=0
3840 On ch=1 n=g#5 v=123
3920 On ch=1 n=g#5 v=0
3920 On ch=1 n=d5 v=116
4000 On ch=1 n=d5 v=0
4000 On ch=1 n=d6 v=116
4080 On ch=1 n=d6 v=0
4080 On ch=1 n=f6 v=123
4160 On ch=1 n=f6 v=0
4160 On ch=1 n=f5 v=116
4240 On ch=1 n=f5 v=0
4240 On ch=1 n=g5 v=116
4320 On ch=1 n=g5 v=0
4320 On ch=1 n=a5 v=123
4400 On ch=1 n=a5 v=0
4400 On ch=1 n=e5 v=116
4480 On ch=1 n=e5 v=0
4480 On ch=1 n=c#6 v=116
4560 On ch=1 n=c#6 v=0
4560 On ch=1 n=e6 v=123
4640 On ch=1 n=e6 v=0
4640 On ch=1 n=g5 v=116
4720 On ch=1 n=g5 v=0
4720 On ch=1 n=a5 v=102
4800 On ch=1 n=a5 v=0
4800 On ch=1 n=a#5 v=108
4880 On ch=1 n=a#5 v=0
4880 On ch=1 n=e5 v=102
4960 On ch=1 n=e5 v=0
4960 On ch=1 n=c#6 v=102
5040 On ch=1 n=c#6 v=0
5040 On ch=1 n=e6 v=108
5120 On ch=1 n=e6 v=0
5120 On ch=1 n=g5 v=102
5200 On ch=1 n=g5 v=0
5200 On ch=1 n=a5 v=102
5280 On ch=1 n=a5 v=0
5280 On ch=1 n=a#5 v=108
5360 On ch=1 n=a#5 v=0
5360 On ch=1 n=f5 v=102
5440 On ch=1 n=f5 v=0
5440 On ch=1 n=d6 v=102
5520 On ch=1 n=d6 v=0
5520 On ch=1 n=f6 v=108
5600 On ch=1 n=f6 v=0
5600 On ch=1 n=a5 v=102
5680 On ch=1 n=a5 v=0
5680 On ch=1 n=c6 v=102
5760 On ch=1 n=c6 v=0
5760 On ch=1 n=c#6 v=108
5840 On ch=1 n=c#6 v=0
5840 On ch=1 n=g5 v=102
5920 On ch=1 n=g5 v=0
5920 On ch=1 n=e6 v=102
6000 On ch=1 n=e6 v=0
6000 On ch=1 n=g6 v=110
6080 On ch=1 n=g6 v=0
6080 On ch=1 n=a#5 v=104
6160 On ch=1 n=a#5 v=0
6160 On ch=1 n=d6 v=104
6240 On ch=1 n=d6 v=0
6240 On ch=1 n=d#6 v=112
6320 On ch=1 n=d#6 v=0
6320 On ch=1 n=a5 v=106
6400 On ch=1 n=a5 v=0
6400 On ch=1 n=a6 v=106
6480 On ch=1 n=a6 v=0
6480 On ch=1 n=c7 v=114
6560 On ch=1 n=c7 v=0
6560 On ch=1 n=c6 v=108
6640 On ch=1 n=c6 v=0
6640 On ch=1 n=d6 v=108
6720 On ch=1 n=d6 v=0
6720 On ch=1 n=d#6 v=116
6800 On ch=1 n=d#6 v=0
6800 On ch=1 n=a#5 v=110
6880 On ch=1 n=a#5 v=0
6880 On ch=1 n=g6 v=110
6960 On ch=1 n=g6 v=0
6960 On ch=1 n=a#6 v=118
7040 On ch=1 n=a#6 v=0
7040 On ch=1 n=d6 v=112
7120 On ch=1 n=d6 v=0
7120 On ch=1 n=e6 v=112
7200 On ch=1 n=e6 v=0
7200 On ch=1 n=f6 v=120
7280 On ch=1 n=f6 v=0
7280 On ch=1 n=b5 v=114
7360 On ch=1 n=b5 v=0
7360 On ch=1 n=d7 v=114
7440 On ch=1 n=d7 v=0
7440 On ch=1 n=f7 v=122
7520 On ch=1 n=f7 v=0
7520 On ch=1 n=f6 v=116
7600 On ch=1 n=f6 v=0
7600 On ch=1 n=b6 v=116
7680 On ch=1 n=b6 v=0
7680 On ch=1 n=c#7 v=124
7760 On ch=1 n=c#7 v=0
7760 On ch=1 n=e6 v=118
7840 On ch=1 n=e6 v=0
7840 On ch=1 n=e7 v=118
7920 On ch=1 n=e7 v=0
7920 On ch=1 n=a7 v=126
8000 On ch=1 n=a7 v=0
8000 On ch=1 n=a6 v=120
8080 On ch=1 n=a6 v=0
8080 On ch=1 n=d7 v=120
8160 On ch=1 n=d7 v=0
8160 On ch=1 n=d8 v=127
8240 On ch=1 n=d8 v=0
8560 On ch=1 n=a4 v=102
8640 On ch=1 n=a4 v=0
8640 On ch=1 n=a#4 v=108
8720 On ch=1 n=a#4 v=0
8720 On ch=1 n=e4 v=102
8800 On ch=1 n=e4 v=0
8800 On ch=1 n=c#5 v=102
8880 On ch=1 n=c#5 v=0
8880 On ch=1 n=e5 v=108
8960 On ch=1 n=e5 v=0
8960 On ch=1 n=g4 v=102
9040 On ch=1 n=g4 v=0
9040 On ch=1 n=a4 v=102
9120 On ch=1 n=a4 v=0
9120 On ch=1 n=a#4 v=108
9200 On ch=1 n=a#4 v=0
9200 On ch=1 n=f4 v=102
9280 On ch=1 n=f4 v=0
9280 On ch=1 n=d5 v=102
9360 On ch=1 n=d5 v=0
9360 On ch=1 n=f5 v=108
9440 On ch=1 n=f5 v=0
9440 On ch=1 n=a4 v=102
9520 On ch=1 n=a4 v=0
9520 On ch=1 n=c5 v=102
9600 On ch=1 n=c5 v=0
9600 On ch=1 n=c#5 v=108
9680 On ch=1 n=c#5 v=0
9680 On ch=1 n=g4 v=102
9760 On ch=1 n=g4 v=0
9760 On ch=1 n=e5 v=102
9840 On ch=1 n=e5 v=0
9840 On ch=1 n=g5 v=110
9920 On ch=1 n=g5 v=0
9920 On ch=1 n=a#4 v=104
10000 On ch=1 n=a#4 v=0
10000 On ch=1 n=d5 v=104
10080 On ch=1 n=d5 v=0
10080 On ch=1 n=d#5 v=112
10160 On ch=1 n=d#5 v=0
10160 On ch=1 n=a4 v=106
10240 On ch=1 n=a4 v=0
10240 On ch=1 n=a5 v=106
10320 On ch=1 n=a5 v=0
10320 On ch=1 n=c6 v=114
10400 On ch=1 n=c6 v=0
10400 On ch=1 n=c5 v=108
10480 On ch=1 n=c5 v=0
10480 On ch=1 n=d5 v=108
10560 On ch=1 n=d5 v=0
10560 On ch=1 n=d#5 v=116
10640 On ch=1 n=d#5 v=0
10640 On ch=1 n=a#4 v=110
10720 On ch=1 n=a#4 v=0
10720 On ch=1 n=g5 v=110
10800 On ch=1 n=g5 v=0
10800 On ch=1 n=a#5 v=118
10880 On ch=1 n=a#5 v=0
10880 On ch=1 n=d5 v=112
10960 On ch=1 n=d5 v=0
10960 On ch=1 n=e5 v=112
11040 On ch=1 n=e5 v=0
11040 On ch=1 n=f5 v=120
11120 On ch=1 n=f5 v=0
11120 On ch=1 n=b4 v=114
11200 On ch=1 n=b4 v=0
11200 On ch=1 n=b5 v=114
11280 On ch=1 n=b5 v=0
11280 On ch=1 n=d6 v=122
11360 On ch=1 n=d6 v=0
11360 On ch=1 n=f5 v=116
11440 On ch=1 n=f5 v=0
11440 On ch=1 n=g5 v=116
11520 On ch=1 n=g5 v=0
11520 On ch=1 n=g#5 v=123
11600 On ch=1 n=g#5 v=0
11600 On ch=1 n=d5 v=116
11680 On ch=1 n=d5 v=0
11680 On ch=1 n=d6 v=116
11760 On ch=1 n=d6 v=0
11760 On ch=1 n=f6 v=123
11840 On ch=1 n=f6 v=0
11840 On ch=1 n=f5 v=116
11920 On ch=1 n=f5 v=0
11920 On ch=1 n=g5 v=116
12000 On ch=1 n=g5 v=0
12000 On ch=1 n=a5 v=123
12080 On ch=1 n=a5 v=0
12080 On ch=1 n=e5 v=116
12160 On ch=1 n=e5 v=0
12160 On ch=1 n=c#6 v=116
12240 On ch=1 n=c#6 v=0
12240 On ch=1 n=e6 v=123
12320 On ch=1 n=e6 v=0
12320 On ch=1 n=g5 v=116
12400 On ch=1 n=g5 v=0
12400 On ch=1 n=a5 v=102
12480 On ch=1 n=a5 v=0
12480 On ch=1 n=a#5 v=108
12560 On ch=1 n=a#5 v=0
12560 On ch=1 n=e5 v=102
12640 On ch=1 n=e5 v=0
12640 On ch=1 n=c#6 v=102
12720 On ch=1 n=c#6 v=0
12720 On ch=1 n=e6 v=108
12800 On ch=1 n=e6 v=0
12800 On ch=1 n=g5 v=102
12880 On ch=1 n=g5 v=0
12880 On ch=1 n=a5 v=102
12960 On ch=1 n=a5 v=0
12960 On ch=1 n=a#5 v=108
13040 On ch=1 n=a#5 v=0
13040 On ch=1 n=f5 v=102
13120 On ch=1 n=f5 v=0
13120 On ch=1 n=d6 v=102
13200 On ch=1 n=d6 v=0
13200 On ch=1 n=f6 v=108
13280 On ch=1 n=f6 v=0
13280 On ch=1 n=a5 v=102
13360 On ch=1 n=a5 v=0
13360 On ch=1 n=c6 v=102
13440 On ch=1 n=c6 v=0
13440 On ch=1 n=c#6 v=108
13520 On ch=1 n=c#6 v=0
13520 On ch=1 n=g5 v=102
13600 On ch=1 n=g5 v=0
13600 On ch=1 n=e6 v=102
13680 On ch=1 n=e6 v=0
13680 On ch=1 n=g6 v=110
13760 On ch=1 n=g6 v=0
13760 On ch=1 n=a#5 v=104
13840 On ch=1 n=a#5 v=0
13840 On ch=1 n=d6 v=104
13920 On ch=1 n=d6 v=0
13920 On ch=1 n=d#6 v=112
14000 On ch=1 n=d#6 v=0
14000 On ch=1 n=a5 v=106
14080 On ch=1 n=a5 v=0
14080 On ch=1 n=a6 v=106
14160 On ch=1 n=a6 v=0
14160 On ch=1 n=c7 v=114
14240 On ch=1 n=c7 v=0
14240 On ch=1 n=c6 v=108
14320 On ch=1 n=c6 v=0
14320 On ch=1 n=d6 v=108
14400 On ch=1 n=d6 v=0
14400 On ch=1 n=d#6 v=116
14480 On ch=1 n=d#6 v=0
14480 On ch=1 n=a#5 v=110
14560 On ch=1 n=a#5 v=0
14560 On ch=1 n=g6 v=110
14640 On ch=1 n=g6 v=0
14640 On ch=1 n=a#6 v=118
14720 On ch=1 n=a#6 v=0
14720 On ch=1 n=d6 v=112
14800 On ch=1 n=d6 v=0
14800 On ch=1 n=e6 v=112
14880 On ch=1 n=e6 v=0
14880 On ch=1 n=f6 v=120
14960 On ch=1 n=f6 v=0
14960 On ch=1 n=b5 v=114
15040 On ch=1 n=b5 v=0
15040 On ch=1 n=d7 v=114
15120 On ch=1 n=d7 v=0
15120 On ch=1 n=f7 v=122
15200 On ch=1 n=f7 v=0
15200 On ch=1 n=f6 v=116
15280 On ch=1 n=f6 v=0
15280 On ch=1 n=b6 v=116
15360 On ch=1 n=b6 v=0
15360 On ch=1 n=c#7 v=124
15440 On ch=1 n=c#7 v=0
15440 On ch=1 n=e6 v=118
15520 On ch=1 n=e6 v=0
15520 On ch=1 n=e7 v=118
15600 On ch=1 n=e7 v=0
15600 On ch=1 n=a7 v=126
15680 On ch=1 n=a7 v=0
15680 On ch=1 n=a6 v=120
15760 On ch=1 n=a6 v=0
15760 On ch=1 n=d7 v=120
15840 On ch=1 n=d7 v=0
15840 On ch=1 n=d8 v=127
15920 On ch=1 n=d8 v=0
16160 On ch=1 n=f6 v=114
16240 On ch=1 n=f6 v=0
16240 On ch=1 n=a6 v=114
16320 On ch=1 n=a6 v=0
16320 On ch=1 n=a#6 v=114
16400 On ch=1 n=a#6 v=0
16400 On ch=1 n=f6 v=114
16480 On ch=1 n=f6 v=0
16480 On ch=1 n=d7 v=114
16560 On ch=1 n=d7 v=0
16560 On ch=1 n=f7 v=114
16640 On ch=1 n=f7 v=0
16640 On ch=1 n=f6 v=120
16720 On ch=1 n=f6 v=0
16720 On ch=1 n=a6 v=126
16800 On ch=1 n=a6 v=0
16800 On ch=1 n=a#6 v=126
16880 On ch=1 n=a#6 v=0
16880 On ch=1 n=e6 v=120
16960 On ch=1 n=e6 v=0
16960 On ch=1 n=g#6 v=114
17040 On ch=1 n=g#6 v=0
17040 On ch=1 n=a6 v=114
17120 On ch=1 n=a6 v=0
17120 On ch=1 n=f6 v=114
17200 On ch=1 n=f6 v=0
17200 On ch=1 n=a6 v=114
17280 On ch=1 n=a6 v=0
17280 On ch=1 n=a#6 v=114
17360 On ch=1 n=a#6 v=0
17360 On ch=1 n=f6 v=114
17440 On ch=1 n=f6 v=0
17440 On ch=1 n=d7 v=114
17520 On ch=1 n=d7 v=0
17520 On ch=1 n=f7 v=114
17600 On ch=1 n=f7 v=0
17600 On ch=1 n=f6 v=120
17680 On ch=1 n=f6 v=0
17680 On ch=1 n=a6 v=126
17760 On ch=1 n=a6 v=0
17760 On ch=1 n=a#6 v=126
17840 On ch=1 n=a#6 v=0
17840 On ch=1 n=e6 v=120
17920 On ch=1 n=e6 v=0
17920 On ch=1 n=g#6 v=114
18000 On ch=1 n=g#6 v=0
18000 On ch=1 n=a6 v=114
18080 On ch=1 n=a6 v=0
18080 On ch=1 n=f6 v=114
18160 On ch=1 n=f6 v=0
18160 On ch=1 n=a6 v=114
18240 On ch=1 n=a6 v=0
18240 On ch=1 n=d7 v=114
18320 On ch=1 n=d7 v=0
18320 On ch=1 n=d6 v=114
18400 On ch=1 n=d6 v=0
18400 On ch=1 n=g6 v=114
18480 On ch=1 n=g6 v=0
18480 On ch=1 n=a6 v=114
18560 On ch=1 n=a6 v=0
18560 On ch=1 n=d6 v=114
18640 On ch=1 n=d6 v=0
18640 On ch=1 n=g6 v=114
18720 On ch=1 n=g6 v=0
18720 On ch=1 n=c7 v=114
18800 On ch=1 n=c7 v=0
18800 On ch=1 n=c6 v=114
18880 On ch=1 n=c6 v=0
18880 On ch=1 n=f6 v=114
18960 On ch=1 n=f6 v=0
18960 On ch=1 n=g6 v=114
19040 On ch=1 n=g6 v=0
19040 On ch=1 n=c6 v=114
19120 On ch=1 n=c6 v=0
19120 On ch=1 n=f6 v=114
19200 On ch=1 n=f6 v=0
19200 On ch=1 n=a#6 v=114
19280 On ch=1 n=a#6 v=0
19280 On ch=1 n=a#5 v=114
19360 On ch=1 n=a#5 v=0
19360 On ch=1 n=e6 v=114
19440 On ch=1 n=e6 v=0
19440 On ch=1 n=f6 v=114
19520 On ch=1 n=f6 v=0
19520 On ch=1 n=a#5 v=114
19600 On ch=1 n=a#5 v=0
19600 On ch=1 n=e6 v=114
19680 On ch=1 n=e6 v=0
19680 On ch=1 n=a6 v=114
19760 On ch=1 n=a6 v=0
19760 On ch=1 n=a5 v=114
19840 On ch=1 n=a5 v=0
19840 On ch=1 n=d6 v=114
19920 On ch=1 n=d6 v=0
19920 On ch=1 n=e6 v=114
20000 On ch=1 n=e6 v=0
20000 On ch=1 n=a5 v=114
20080 On ch=1 n=a5 v=0
20080 On ch=1 n=d6 v=114
20160 On ch=1 n=d6 v=0
20160 On ch=1 n=d#6 v=114
20240 On ch=1 n=d#6 v=0
20240 On ch=1 n=a#5 v=114
20320 On ch=1 n=a#5 v=0
20320 On ch=1 n=g6 v=114
20400 On ch=1 n=g6 v=0
20400 On ch=1 n=a#6 v=114
20480 On ch=1 n=a#6 v=0
20480 On ch=1 n=a#5 v=120
20560 On ch=1 n=a#5 v=0
20560 On ch=1 n=d6 v=126
20640 On ch=1 n=d6 v=0
20640 On ch=1 n=g6 v=126
20720 On ch=1 n=g6 v=0
20720 On ch=1 n=a#5 v=120
20800 On ch=1 n=a#5 v=0
20800 On ch=1 n=d6 v=114
20880 On ch=1 n=d6 v=0
20880 On ch=1 n=d#6 v=114
20960 On ch=1 n=d#6 v=0
20960 On ch=1 n=a#5 v=114
21040 On ch=1 n=a#5 v=0
21040 On ch=1 n=d6 v=114
21120 On ch=1 n=d6 v=0
21120 On ch=1 n=d#6 v=114
21200 On ch=1 n=d#6 v=0
21200 On ch=1 n=a#5 v=114
21280 On ch=1 n=a#5 v=0
21280 On ch=1 n=g6 v=114
21360 On ch=1 n=g6 v=0
21360 On ch=1 n=a#6 v=114
21440 On ch=1 n=a#6 v=0
21440 On ch=1 n=a#5 v=120
21520 On ch=1 n=a#5 v=0
21520 On ch=1 n=d6 v=126
21600 On ch=1 n=d6 v=0
21600 On ch=1 n=g6 v=126
21680 On ch=1 n=g6 v=0
21680 On ch=1 n=a#5 v=120
21760 On ch=1 n=a#5 v=0
21760 On ch=1 n=d6 v=114
21840 On ch=1 n=d6 v=0
21840 On ch=1 n=d#6 v=114
21920 On ch=1 n=d#6 v=0
21920 On ch=1 n=a#5 v=114
22000 On ch=1 n=a#5 v=0
22000 On ch=1 n=d#6 v=114
22080 On ch=1 n=d#6 v=0
22080 On ch=1 n=f#6 v=126
22160 On ch=1 n=f#6 v=0
22160 On ch=1 n=f#5 v=114
22240 On ch=1 n=f#5 v=0
22240 On ch=1 n=b5 v=114
22320 On ch=1 n=b5 v=0
22320 On ch=1 n=d#6 v=114
22400 On ch=1 n=d#6 v=0
22400 On ch=1 n=d#5 v=114
22480 On ch=1 n=d#5 v=0
22480 On ch=1 n=f#5 v=114
22560 On ch=1 n=f#5 v=0
22560 On ch=1 n=b5 v=110
22640 On ch=1 n=b5 v=0
22640 On ch=1 n=c#5 v=106
22720 On ch=1 n=c#5 v=0
22720 On ch=1 n=g5 v=102
22800 On ch=1 n=g5 v=0
22800 On ch=1 n=a#5 v=98
22880 On ch=1 n=a#5 v=0
22880 On ch=1 n=c5 v=94
22960 On ch=1 n=c5 v=0
22960 On ch=1 n=d#5 v=90
23040 On ch=1 n=d#5 v=0
23040 On ch=1 n=a5 v=90
23120 On ch=1 n=a5 v=0
23120 On ch=1 n=a#4 v=90
23200 On ch=1 n=a#4 v=0
23200 On ch=1 n=d5 v=90
23280 On ch=1 n=d5 v=0
23280 On ch=1 n=g5 v=94
23360 On ch=1 n=g5 v=0
23360 On ch=1 n=b4 v=94
23440 On ch=1 n=b4 v=0
23440 On ch=1 n=d5 v=94
23520 On ch=1 n=d5 v=0
23520 On ch=1 n=f5 v=98
23600 On ch=1 n=f5 v=0
23600 On ch=1 n=a4 v=98
23680 On ch=1 n=a4 v=0
23680 On ch=1 n=c#5 v=98
23760 On ch=1 n=c#5 v=0
23760 On ch=1 n=e5 v=102
23840 On ch=1 n=e5 v=0
23840 On ch=1 n=g4 v=102
23920 On ch=1 n=g4 v=0
23920 On ch=1 n=a4 v=102
24000 On ch=1 n=a4 v=0
24000 On ch=1 n=a#4 v=108
24080 On ch=1 n=a#4 v=0
24080 On ch=1 n=e4 v=102
24160 On ch=1 n=e4 v=0
24160 On ch=1 n=c#5 v=102
24240 On ch=1 n=c#5 v=0
24240 On ch=1 n=e5 v=108
24320 On ch=1 n=e5 v=0
24320 On ch=1 n=g4 v=102
24400 On ch=1 n=g4 v=0
24400 On ch=1 n=a4 v=102
24480 On ch=1 n=a4 v=0
24480 On ch=1 n=a#4 v=108
24560 On ch=1 n=a#4 v=0
24560 On ch=1 n=f4 v=102
24640 On ch=1 n=f4 v=0
24640 On ch=1 n=d5 v=102
24720 On ch=1 n=d5 v=0
24720 On ch=1 n=f5 v=108
24800 On ch=1 n=f5 v=0
24800 On ch=1 n=a4 v=102
24880 On ch=1 n=a4 v=0
24880 On ch=1 n=c5 v=102
24960 On ch=1 n=c5 v=0
24960 On ch=1 n=c#5 v=111
25040 On ch=1 n=c#5 v=0
25040 On ch=1 n=g4 v=105
25120 On ch=1 n=g4 v=0
25120 On ch=1 n=e5 v=105
25200 On ch=1 n=e5 v=0
25200 On ch=1 n=g5 v=111
25280 On ch=1 n=g5 v=0
25280 On ch=1 n=a#4 v=105
25360 On ch=1 n=a#4 v=0
25360 On ch=1 n=d5 v=105
25440 On ch=1 n=d5 v=0
25440 On ch=1 n=d#5 v=111
25520 On ch=1 n=d#5 v=0
25520 On ch=1 n=a4 v=105
25600 On ch=1 n=a4 v=0
25600 On ch=1 n=a5 v=105
25680 On ch=1 n=a5 v=0
25680 On ch=1 n=c6 v=111
25760 On ch=1 n=c6 v=0
25760 On ch=1 n=c5 v=105
25840 On ch=1 n=c5 v=0
25840 On ch=1 n=d5 v=105
25920 On ch=1 n=d5 v=0
25920 On ch=1 n=d#5 v=114
26000 On ch=1 n=d#5 v=0
26000 On ch=1 n=a#4 v=108
26080 On ch=1 n=a#4 v=0
26080 On ch=1 n=g5 v=108
26160 On ch=1 n=g5 v=0
26160 On ch=1 n=a#5 v=114
26240 On ch=1 n=a#5 v=0
26240 On ch=1 n=d5 v=108
26320 On ch=1 n=d5 v=0
26320 On ch=1 n=e5 v=108
26400 On ch=1 n=e5 v=0
26400 On ch=1 n=f5 v=114
26480 On ch=1 n=f5 v=0
26480 On ch=1 n=b4 v=108
26560 On ch=1 n=b4 v=0
26560 On ch=1 n=b5 v=108
26640 On ch=1 n=b5 v=0
26640 On ch=1 n=d6 v=114
26720 On ch=1 n=d6 v=0
26720 On ch=1 n=f5 v=108
26800 On ch=1 n=f5 v=0
26800 On ch=1 n=g5 v=108
26880 On ch=1 n=g5 v=0
26880 On ch=1 n=g#5 v=117
26960 On ch=1 n=g#5 v=0
26960 On ch=1 n=d5 v=111
27040 On ch=1 n=d5 v=0
27040 On ch=1 n=d6 v=111
27120 On ch=1 n=d6 v=0
27120 On ch=1 n=f6 v=117
27200 On ch=1 n=f6 v=0
27200 On ch=1 n=f5 v=111
27280 On ch=1 n=f5 v=0
27280 On ch=1 n=g5 v=111
27360 On ch=1 n=g5 v=0
27360 On ch=1 n=a5 v=117
27440 On ch=1 n=a5 v=0
27440 On ch=1 n=e5 v=111
27520 On ch=1 n=e5 v=0
27520 On ch=1 n=c#6 v=111
27600 On ch=1 n=c#6 v=0
27600 On ch=1 n=e6 v=117
27680 On ch=1 n=e6 v=0
27680 On ch=1 n=g5 v=111
27760 On ch=1 n=g5 v=0
27760 On ch=1 n=a5 v=111
27840 On ch=1 n=a5 v=0
27840 On ch=1 n=a#5 v=121
27920 On ch=1 n=a#5 v=0
27920 On ch=1 n=e5 v=114
28000 On ch=1 n=e5 v=0
28000 On ch=1 n=c#6 v=114
28080 On ch=1 n=c#6 v=0
28080 On ch=1 n=e6 v=121
28160 On ch=1 n=e6 v=0
28160 On ch=1 n=g5 v=114
28240 On ch=1 n=g5 v=0
28240 On ch=1 n=a5 v=114
28320 On ch=1 n=a5 v=0
28320 On ch=1 n=a#5 v=121
28400 On ch=1 n=a#5 v=0
28400 On ch=1 n=f5 v=114
28480 On ch=1 n=f5 v=0
28480 On ch=1 n=d6 v=114
28560 On ch=1 n=d6 v=0
28560 On ch=1 n=f6 v=121
28640 On ch=1 n=f6 v=0
28640 On ch=1 n=a5 v=114
28720 On ch=1 n=a5 v=0
28720 On ch=1 n=c6 v=114
28800 On ch=1 n=c6 v=0
28800 On ch=1 n=c#6 v=121
28880 On ch=1 n=c#6 v=0
28880 On ch=1 n=g5 v=114
28960 On ch=1 n=g5 v=0
28960 On ch=1 n=e6 v=114
29040 On ch=1 n=e6 v=0
29040 On ch=1 n=g6 v=120
29120 On ch=1 n=g6 v=0
29120 On ch=1 n=a#5 v=114
29200 On ch=1 n=a#5 v=0
29200 On ch=1 n=d6 v=114
29280 On ch=1 n=d6 v=0
29280 On ch=1 n=d#6 v=120
29360 On ch=1 n=d#6 v=0
29360 On ch=1 n=a5 v=114
29440 On ch=1 n=a5 v=0
29440 On ch=1 n=a6 v=114
29520 On ch=1 n=a6 v=0
29520 On ch=1 n=c7 v=120
29600 On ch=1 n=c7 v=0
29600 On ch=1 n=c6 v=114
29680 On ch=1 n=c6 v=0
29680 On ch=1 n=d6 v=114
29760 On ch=1 n=d6 v=0
29760 On ch=1 n=d#6 v=120
29840 On ch=1 n=d#6 v=0
29840 On ch=1 n=a#5 v=114
29920 On ch=1 n=a#5 v=0
29920 On ch=1 n=g6 v=114
30000 On ch=1 n=g6 v=0
30000 On ch=1 n=a#6 v=120
30080 On ch=1 n=a#6 v=0
30080 On ch=1 n=d6 v=114
30160 On ch=1 n=d6 v=0
30160 On ch=1 n=e6 v=114
30240 On ch=1 n=e6 v=0
30240 On ch=1 n=f6 v=120
30320 On ch=1 n=f6 v=0
30320 On ch=1 n=b5 v=114
30400 On ch=1 n=b5 v=0
30400 On ch=1 n=d7 v=114
30480 On ch=1 n=d7 v=0
30480 On ch=1 n=f7 v=120
30560 On ch=1 n=f7 v=0
30560 On ch=1 n=f6 v=114
30640 On ch=1 n=f6 v=0
30640 On ch=1 n=b6 v=114
30720 On ch=1 n=b6 v=0
30720 On ch=1 n=c#7 v=120
30800 On ch=1 n=c#7 v=0
30800 On ch=1 n=e6 v=114
30880 On ch=1 n=e6 v=0
30880 On ch=1 n=e7 v=114
30960 On ch=1 n=e7 v=0
30960 On ch=1 n=a7 v=120
31040 On ch=1 n=a7 v=0
31040 On ch=1 n=a6 v=114
31120 On ch=1 n=a6 v=0
31120 On ch=1 n=d7 v=114
31200 On ch=1 n=d7 v=0
31200 On ch=1 n=d8 v=127
31280 On ch=1 n=d8 v=0
31520 On ch=1 n=f6 v=114
31600 On ch=1 n=f6 v=0
31600 On ch=1 n=a6 v=114
31680 On ch=1 n=a6 v=0
31680 On ch=1 n=a#6 v=114
31760 On ch=1 n=a#6 v=0
31760 On ch=1 n=f6 v=114
31840 On ch=1 n=f6 v=0
31840 On ch=1 n=d7 v=114
31920 On ch=1 n=d7 v=0
31920 On ch=1 n=f7 v=114
32000 On ch=1 n=f7 v=0
32000 On ch=1 n=f6 v=120
32080 On ch=1 n=f6 v=0
32080 On ch=1 n=a6 v=126
32160 On ch=1 n=a6 v=0
32160 On ch=1 n=a#6 v=126
32240 On ch=1 n=a#6 v=0
32240 On ch=1 n=e6 v=120
32320 On ch=1 n=e6 v=0
32320 On ch=1 n=g#6 v=114
32400 On ch=1 n=g#6 v=0
32400 On ch=1 n=a6 v=114
32480 On ch=1 n=a6 v=0
32480 On ch=1 n=f6 v=114
32560 On ch=1 n=f6 v=0
32560 On ch=1 n=a6 v=114
32640 On ch=1 n=a6 v=0
32640 On ch=1 n=a#6 v=114
32720 On ch=1 n=a#6 v=0
32720 On ch=1 n=f6 v=114
32800 On ch=1 n=f6 v=0
32800 On ch=1 n=d7 v=114
32880 On ch=1 n=d7 v=0
32880 On ch=1 n=f7 v=114
32960 On ch=1 n=f7 v=0
32960 On ch=1 n=f6 v=120
33040 On ch=1 n=f6 v=0
33040 On ch=1 n=a6 v=126
33120 On ch=1 n=a6 v=0
33120 On ch=1 n=a#6 v=126
33200 On ch=1 n=a#6 v=0
33200 On ch=1 n=e6 v=120
33280 On ch=1 n=e6 v=0
33280 On ch=1 n=g#6 v=114
33360 On ch=1 n=g#6 v=0
33360 On ch=1 n=a6 v=114
33440 On ch=1 n=a6 v=0
33440 On ch=1 n=f6 v=114
33520 On ch=1 n=f6 v=0
33520 On ch=1 n=a6 v=114
33600 On ch=1 n=a6 v=0
33600 On ch=1 n=d7 v=114
33680 On ch=1 n=d7 v=0
33680 On ch=1 n=d6 v=114
33760 On ch=1 n=d6 v=0
33760 On ch=1 n=g6 v=114
33840 On ch=1 n=g6 v=0
33840 On ch=1 n=a6 v=114
33920 On ch=1 n=a6 v=0
33920 On ch=1 n=d6 v=114
34000 On ch=1 n=d6 v=0
34000 On ch=1 n=g6 v=114
34080 On ch=1 n=g6 v=0
34080 On ch=1 n=c7 v=114
34160 On ch=1 n=c7 v=0
34160 On ch=1 n=c6 v=114
34240 On ch=1 n=c6 v=0
34240 On ch=1 n=f6 v=114
34320 On ch=1 n=f6 v=0
34320 On ch=1 n=g6 v=114
34400 On ch=1 n=g6 v=0
34400 On ch=1 n=c6 v=114
34480 On ch=1 n=c6 v=0
34480 On ch=1 n=f6 v=114
34560 On ch=1 n=f6 v=0
34560 On ch=1 n=a#6 v=114
34640 On ch=1 n=a#6 v=0
34640 On ch=1 n=a#5 v=114
34720 On ch=1 n=a#5 v=0
34720 On ch=1 n=e6 v=114
34800 On ch=1 n=e6 v=0
34800 On ch=1 n=f6 v=114
34880 On ch=1 n=f6 v=0
34880 On ch=1 n=a#5 v=114
34960 On ch=1 n=a#5 v=0
34960 On ch=1 n=e6 v=114
35040 On ch=1 n=e6 v=0
35040 On ch=1 n=a6 v=114
35120 On ch=1 n=a6 v=0
35120 On ch=1 n=a5 v=114
35200 On ch=1 n=a5 v=0
35200 On ch=1 n=d6 v=114
35280 On ch=1 n=d6 v=0
35280 On ch=1 n=e6 v=114
35360 On ch=1 n=e6 v=0
35360 On ch=1 n=a5 v=114
35440 On ch=1 n=a5 v=0
35440 On ch=1 n=d6 v=114
35520 On ch=1 n=d6 v=0
35520 On ch=1 n=d#6 v=114
35600 On ch=1 n=d#6 v=0
35600 On ch=1 n=a#5 v=114
35680 On ch=1 n=a#5 v=0
35680 On ch=1 n=g6 v=114
35760 On ch=1 n=g6 v=0
35760 On ch=1 n=a#6 v=114
35840 On ch=1 n=a#6 v=0
35840 On ch=1 n=a#5 v=120
35920 On ch=1 n=a#5 v=0
35920 On ch=1 n=d6 v=126
36000 On ch=1 n=d6 v=0
36000 On ch=1 n=g6 v=126
36080 On ch=1 n=g6 v=0
36080 On ch=1 n=a#5 v=120
36160 On ch=1 n=a#5 v=0
36160 On ch=1 n=d6 v=114
36240 On ch=1 n=d6 v=0
36240 On ch=1 n=d#6 v=114
36320 On ch=1 n=d#6 v=0
36320 On ch=1 n=a#5 v=114
36400 On ch=1 n=a#5 v=0
36400 On ch=1 n=d6 v=114
36480 On ch=1 n=d6 v=0
36480 On ch=1 n=d#6 v=114
36560 On ch=1 n=d#6 v=0
36560 On ch=1 n=a#5 v=114
36640 On ch=1 n=a#5 v=0
36640 On ch=1 n=g6 v=114
36720 On ch=1 n=g6 v=0
36720 On ch=1 n=a#6 v=114
36800 On ch=1 n=a#6 v=0
36800 On ch=1 n=a#5 v=120
36880 On ch=1 n=a#5 v=0
36880 On ch=1 n=d6 v=126
36960 On ch=1 n=d6 v=0
36960 On ch=1 n=g6 v=126
37040 On ch=1 n=g6 v=0
37040 On ch=1 n=a#5 v=120
37120 On ch=1 n=a#5 v=0
37120 On ch=1 n=d6 v=114
37200 On ch=1 n=d6 v=0
37200 On ch=1 n=d#6 v=114
37280 On ch=1 n=d#6 v=0
37280 On ch=1 n=a#5 v=114
37360 On ch=1 n=a#5 v=0
37360 On ch=1 n=d#6 v=114
37440 On ch=1 n=d#6 v=0
37440 On ch=1 n=f#6 v=126
37520 On ch=1 n=f#6 v=0
37520 On ch=1 n=f#5 v=114
37600 On ch=1 n=f#5 v=0
37600 On ch=1 n=b5 v=114
37680 On ch=1 n=b5 v=0
37680 On ch=1 n=d#6 v=114
37760 On ch=1 n=d#6 v=0
37760 On ch=1 n=d#5 v=114
37840 On ch=1 n=d#5 v=0
37840 On ch=1 n=f#5 v=114
37920 On ch=1 n=f#5 v=0
37920 On ch=1 n=b5 v=110
38000 On ch=1 n=b5 v=0
38000 On ch=1 n=c#5 v=106
38080 On ch=1 n=c#5 v=0
38080 On ch=1 n=g5 v=102
38160 On ch=1 n=g5 v=0
38160 On ch=1 n=a#5 v=98
38240 On ch=1 n=a#5 v=0
38240 On ch=1 n=c5 v=94
38320 On ch=1 n=c5 v=0
38320 On ch=1 n=d#5 v=90
38400 On ch=1 n=d#5 v=0
38400 On ch=1 n=a5 v=90
38480 On ch=1 n=a5 v=0
38480 On ch=1 n=a#4 v=90
38560 On ch=1 n=a#4 v=0
38560 On ch=1 n=d5 v=90
38640 On ch=1 n=d5 v=0
38640 On ch=1 n=g5 v=94
38720 On ch=1 n=g5 v=0
38720 On ch=1 n=b4 v=94
38800 On ch=1 n=b4 v=0
38800 On ch=1 n=d5 v=94
38880 On ch=1 n=d5 v=0
38880 On ch=1 n=f5 v=98
38960 On ch=1 n=f5 v=0
38960 On ch=1 n=a4 v=98
39040 On ch=1 n=a4 v=0
39040 On ch=1 n=c#5 v=98
39120 On ch=1 n=c#5 v=0
39120 On ch=1 n=e5 v=102
39200 On ch=1 n=e5 v=0
39200 On ch=1 n=g4 v=102
39280 On ch=1 n=g4 v=0
39280 On ch=1 n=a4 v=102
39360 On ch=1 n=a4 v=0
39360 On ch=1 n=a#4 v=108
39440 On ch=1 n=a#4 v=0
39440 On ch=1 n=e4 v=102
39520 On ch=1 n=e4 v=0
39520 On ch=1 n=c#5 v=102
39600 On ch=1 n=c#5 v=0
39600 On ch=1 n=e5 v=108
39680 On ch=1 n=e5 v=0
39680 On ch=1 n=g4 v=102
39760 On ch=1 n=g4 v=0
39760 On ch=1 n=a4 v=102
39840 On ch=1 n=a4 v=0
39840 On ch=1 n=a#4 v=108
39920 On ch=1 n=a#4 v=0
39920 On ch=1 n=f4 v=102
40000 On ch=1 n=f4 v=0
40000 On ch=1 n=d5 v=102
40080 On ch=1 n=d5 v=0
40080 On ch=1 n=f5 v=108
40160 On ch=1 n=f5 v=0
40160 On ch=1 n=a4 v=102
40240 On ch=1 n=a4 v=0
40240 On ch=1 n=c5 v=102
40320 On ch=1 n=c5 v=0
40320 On ch=1 n=c#5 v=111
40400 On ch=1 n=c#5 v=0
40400 On ch=1 n=g4 v=105
40480 On ch=1 n=g4 v=0
40480 On ch=1 n=e5 v=105
40560 On ch=1 n=e5 v=0
40560 On ch=1 n=g5 v=111
40640 On ch=1 n=g5 v=0
40640 On ch=1 n=a#4 v=105
40720 On ch=1 n=a#4 v=0
40720 On ch=1 n=d5 v=105
40800 On ch=1 n=d5 v=0
40800 On ch=1 n=d#5 v=111
40880 On ch=1 n=d#5 v=0
40880 On ch=1 n=a4 v=105
40960 On ch=1 n=a4 v=0
40960 On ch=1 n=a5 v=105
41040 On ch=1 n=a5 v=0
41040 On ch=1 n=c6 v=111
41120 On ch=1 n=c6 v=0
41120 On ch=1 n=c5 v=105
41200 On ch=1 n=c5 v=0
41200 On ch=1 n=d5 v=105
41280 On ch=1 n=d5 v=0
41280 On ch=1 n=d#5 v=114
41360 On ch=1 n=d#5 v=0
41360 On ch=1 n=a#4 v=108
41440 On ch=1 n=a#4 v=0
41440 On ch=1 n=g5 v=108
41520 On ch=1 n=g5 v=0
41520 On ch=1 n=a#5 v=114
41600 On ch=1 n=a#5 v=0
41600 On ch=1 n=d5 v=108
41680 On ch=1 n=d5 v=0
41680 On ch=1 n=e5 v=108
41760 On ch=1 n=e5 v=0
41760 On ch=1 n=f5 v=114
41840 On ch=1 n=f5 v=0
41840 On ch=1 n=b4 v=108
41920 On ch=1 n=b4 v=0
41920 On ch=1 n=b5 v=108
42000 On ch=1 n=b5 v=0
42000 On ch=1 n=d6 v=114
42080 On ch=1 n=d6 v=0
42080 On ch=1 n=f5 v=108
42160 On ch=1 n=f5 v=0
42160 On ch=1 n=g5 v=108
42240 On ch=1 n=g5 v=0
42240 On ch=1 n=g#5 v=117
42320 On ch=1 n=g#5 v=0
42320 On ch=1 n=d5 v=111
42400 On ch=1 n=d5 v=0
42400 On ch=1 n=d6 v=111
42480 On ch=1 n=d6 v=0
42480 On ch=1 n=f6 v=117
42560 On ch=1 n=f6 v=0
42560 On ch=1 n=f5 v=111
42640 On ch=1 n=f5 v=0
42640 On ch=1 n=g5 v=111
42720 On ch=1 n=g5 v=0
42720 On ch=1 n=a5 v=117
42800 On ch=1 n=a5 v=0
42800 On ch=1 n=e5 v=111
42880 On ch=1 n=e5 v=0
42880 On ch=1 n=c#6 v=111
42960 On ch=1 n=c#6 v=0
42960 On ch=1 n=e6 v=117
43040 On ch=1 n=e6 v=0
43040 On ch=1 n=g5 v=111
43120 On ch=1 n=g5 v=0
43120 On ch=1 n=a5 v=111
43200 On ch=1 n=a5 v=0
43200 On ch=1 n=a#5 v=121
43280 On ch=1 n=a#5 v=0
43280 On ch=1 n=e5 v=114
43360 On ch=1 n=e5 v=0
43360 On ch=1 n=c#6 v=114
43440 On ch=1 n=c#6 v=0
43440 On ch=1 n=e6 v=121
43520 On ch=1 n=e6 v=0
43520 On ch=1 n=g5 v=114
43600 On ch=1 n=g5 v=0
43600 On ch=1 n=a5 v=114
43680 On ch=1 n=a5 v=0
43680 On ch=1 n=a#5 v=121
43760 On ch=1 n=a#5 v=0
43760 On ch=1 n=f5 v=114
43840 On ch=1 n=f5 v=0
43840 On ch=1 n=d6 v=114
43920 On ch=1 n=d6 v=0
43920 On ch=1 n=f6 v=121
44000 On ch=1 n=f6 v=0
44000 On ch=1 n=a5 v=114
44080 On ch=1 n=a5 v=0
44080 On ch=1 n=c6 v=114
44160 On ch=1 n=c6 v=0
44160 On ch=1 n=c#6 v=121
44240 On ch=1 n=c#6 v=0
44240 On ch=1 n=g5 v=114
44320 On ch=1 n=g5 v=0
44320 On ch=1 n=e6 v=114
44400 On ch=1 n=e6 v=0
44400 On ch=1 n=g6 v=120
44480 On ch=1 n=g6 v=0
44480 On ch=1 n=a#5 v=114
44560 On ch=1 n=a#5 v=0
44560 On ch=1 n=d6 v=114
44640 On ch=1 n=d6 v=0
44640 On ch=1 n=d#6 v=120
44720 On ch=1 n=d#6 v=0
44720 On ch=1 n=a5 v=114
44800 On ch=1 n=a5 v=0
44800 On ch=1 n=a6 v=114
44880 On ch=1 n=a6 v=0
44880 On ch=1 n=c7 v=120
44960 On ch=1 n=c7 v=0
44960 On ch=1 n=c6 v=114
45040 On ch=1 n=c6 v=0
45040 On ch=1 n=d6 v=114
45120 On ch=1 n=d6 v=0
45120 On ch=1 n=d#6 v=120
45200 On ch=1 n=d#6 v=0
45200 On ch=1 n=a#5 v=114
45280 On ch=1 n=a#5 v=0
45280 On ch=1 n=g6 v=114
45360 On ch=1 n=g6 v=0
45360 On ch=1 n=a#6 v=120
45440 On ch=1 n=a#6 v=0
45440 On ch=1 n=d6 v=114
45520 On ch=1 n=d6 v=0
45520 On ch=1 n=e6 v=114
45600 On ch=1 n=e6 v=0
45600 On ch=1 n=f6 v=120
45680 On ch=1 n=f6 v=0
45680 On ch=1 n=b5 v=114
45760 On ch=1 n=b5 v=0
45760 On ch=1 n=d7 v=114
45840 On ch=1 n=d7 v=0
45840 On ch=1 n=f7 v=120
45920 On ch=1 n=f7 v=0
45920 On ch=1 n=f6 v=114
46000 On ch=1 n=f6 v=0
46000 On ch=1 n=b6 v=114
46080 On ch=1 n=b6 v=0
46080 On ch=1 n=c#7 v=120
46160 On ch=1 n=c#7 v=0
46160 On ch=1 n=e6 v=114
46240 On ch=1 n=e6 v=0
46240 On ch=1 n=e7 v=114
46320 On ch=1 n=e7 v=0
46320 On ch=1 n=a7 v=120
46400 On ch=1 n=a7 v=0
46400 On ch=1 n=a6 v=114
46480 On ch=1 n=a6 v=0
46480 On ch=1 n=d7 v=114
46560 On ch=1 n=d7 v=0
46560 On ch=1 n=d8 v=127
46640 On ch=1 n=d8 v=0
46960 On ch=1 n=g6 v=65
47040 On ch=1 n=g6 v=0
47040 On ch=1 n=f6 v=65
47120 On ch=1 n=f6 v=0
47120 On ch=1 n=a#5 v=65
47200 On ch=1 n=a#5 v=0
47200 On ch=1 n=d6 v=65
47280 On ch=1 n=d6 v=0
47280 On ch=1 n=f5 v=65
47360 On ch=1 n=f5 v=0
47360 On ch=1 n=a#4 v=65
47440 On ch=1 n=a#4 v=0
47440 On ch=1 n=d#6 v=65
47520 On ch=1 n=d#6 v=0
47520 On ch=1 n=d6 v=65
47600 On ch=1 n=d6 v=0
47600 On ch=1 n=f5 v=65
47680 On ch=1 n=f5 v=0
47680 On ch=1 n=a#5 v=65
47760 On ch=1 n=a#5 v=0
47760 On ch=1 n=d5 v=65
47840 On ch=1 n=d5 v=0
47840 On ch=1 n=a#4 v=65
47920 On ch=1 n=a#4 v=0
47920 On ch=1 n=d6 v=65
48000 On ch=1 n=d6 v=0
48000 On ch=1 n=c6 v=65
48080 On ch=1 n=c6 v=0
48080 On ch=1 n=f5 v=65
48160 On ch=1 n=f5 v=0
48160 On ch=1 n=f#5 v=65
48240 On ch=1 n=f#5 v=0
48240 On ch=1 n=d#5 v=65
48320 On ch=1 n=d#5 v=0
48320 On ch=1 n=a#4 v=65
48400 On ch=1 n=a#4 v=0
48400 On ch=1 n=d6 v=65
48480 On ch=1 n=d6 v=0
48480 On ch=1 n=d#6 v=65
48560 On ch=1 n=d#6 v=0
48560 On ch=1 n=f5 v=65
48640 On ch=1 n=f5 v=0
48640 On ch=1 n=g5 v=65
48720 On ch=1 n=g5 v=0
48720 On ch=1 n=d#5 v=65
48800 On ch=1 n=d#5 v=0
48800 On ch=1 n=a#4 v=65
48880 On ch=1 n=a#4 v=0
48880 On ch=1 n=d6 v=65
48960 On ch=1 n=d6 v=0
48960 On ch=1 n=c6 v=65
49040 On ch=1 n=c6 v=0
49040 On ch=1 n=f5 v=65
49120 On ch=1 n=f5 v=0
49120 On ch=1 n=f#5 v=65
49200 On ch=1 n=f#5 v=0
49200 On ch=1 n=d#5 v=65
49280 On ch=1 n=d#5 v=0
49280 On ch=1 n=a#4 v=65
49360 On ch=1 n=a#4 v=0
49360 On ch=1 n=d6 v=65
49440 On ch=1 n=d6 v=0
49440 On ch=1 n=d#6 v=65
49520 On ch=1 n=d#6 v=0
49520 On ch=1 n=f5 v=65
49600 On ch=1 n=f5 v=0
49600 On ch=1 n=d#5 v=65
49680 On ch=1 n=d#5 v=0
49680 On ch=1 n=c5 v=65
49760 On ch=1 n=c5 v=0
49760 On ch=1 n=a#4 v=65
49840 On ch=1 n=a#4 v=0
49840 On ch=1 n=a5 v=65
49920 On ch=1 n=a5 v=0
49920 On ch=1 n=a#5 v=65
50000 On ch=1 n=a#5 v=0
50000 On ch=1 n=f5 v=65
50080 On ch=1 n=f5 v=0
50080 On ch=1 n=d5 v=65
50160 On ch=1 n=d5 v=0
50160 On ch=1 n=a#4 v=68
50240 On ch=1 n=a#4 v=0
50240 On ch=1 n=a4 v=68
50320 On ch=1 n=a4 v=0
50320 On ch=1 n=c6 v=68
50400 On ch=1 n=c6 v=0
50400 On ch=1 n=d6 v=71
50480 On ch=1 n=d6 v=0
50480 On ch=1 n=f5 v=71
50560 On ch=1 n=f5 v=0
50560 On ch=1 n=d5 v=71
50640 On ch=1 n=d5 v=0
50640 On ch=1 n=a#4 v=74
50720 On ch=1 n=a#4 v=0
50720 On ch=1 n=g4 v=74
50800 On ch=1 n=g4 v=0
50800 On ch=1 n=c6 v=74
50880 On ch=1 n=c6 v=0
50880 On ch=1 n=a#5 v=78
50960 On ch=1 n=a#5 v=0
50960 On ch=1 n=f5 v=78
51040 On ch=1 n=f5 v=0
51040 On ch=1 n=d5 v=78
51120 On ch=1 n=d5 v=0
51120 On ch=1 n=a#4 v=78
51200 On ch=1 n=a#4 v=0
51200 On ch=1 n=f4 v=78
51280 On ch=1 n=f4 v=0
51280 On ch=1 n=c6 v=78
51360 On ch=1 n=c6 v=0
51360 On ch=1 n=d6 v=74
51440 On ch=1 n=d6 v=0
51440 On ch=1 n=g5 v=74
51520 On ch=1 n=g5 v=0
51520 On ch=1 n=c5 v=74
51600 On ch=1 n=c5 v=0
51600 On ch=1 n=a#4 v=70
51680 On ch=1 n=a#4 v=0
51680 On ch=1 n=e4 v=70
51760 On ch=1 n=e4 v=0
51760 On ch=1 n=a#5 v=70
51840 On ch=1 n=a#5 v=0
51840 On ch=1 n=a5 v=65
51920 On ch=1 n=a5 v=0
51920 On ch=1 n=f5 v=65
52000 On ch=1 n=f5 v=0
52000 On ch=1 n=c5 v=65
52080 On ch=1 n=c5 v=0
52080 On ch=1 n=a4 v=65
52160 On ch=1 n=a4 v=0
52160 On ch=1 n=f4 v=65
52240 On ch=1 n=f4 v=0
52240 On ch=1 n=a#5 v=65
52320 On ch=1 n=a#5 v=0
52320 On ch=1 n=c6 v=68
52400 On ch=1 n=c6 v=0
52400 On ch=1 n=f5 v=68
52480 On ch=1 n=f5 v=0
52480 On ch=1 n=c5 v=68
52560 On ch=1 n=c5 v=0
52560 On ch=1 n=g#4 v=71
52640 On ch=1 n=g#4 v=0
52640 On ch=1 n=d4 v=71
52720 On ch=1 n=d4 v=0
52720 On ch=1 n=b5 v=71
52800 On ch=1 n=b5 v=0
52800 On ch=1 n=c6 v=74
52880 On ch=1 n=c6 v=0
52880 On ch=1 n=f5 v=74
52960 On ch=1 n=f5 v=0
52960 On ch=1 n=c5 v=74
53040 On ch=1 n=c5 v=0
53040 On ch=1 n=a4 v=78
53120 On ch=1 n=a4 v=0
53120 On ch=1 n=c4 v=78
53200 On ch=1 n=c4 v=0
53200 On ch=1 n=c#6 v=78
53280 On ch=1 n=c#6 v=0
53280 On ch=1 n=d6 v=75
53360 On ch=1 n=d6 v=0
53360 On ch=1 n=e5 v=75
53440 On ch=1 n=e5 v=0
53440 On ch=1 n=a#4 v=75
53520 On ch=1 n=a#4 v=0
53520 On ch=1 n=g4 v=72
53600 On ch=1 n=g4 v=0
53600 On ch=1 n=c4 v=72
53680 On ch=1 n=c4 v=0
53680 On ch=1 n=a5 v=72
53760 On ch=1 n=a5 v=0
53760 On ch=1 n=a#5 v=69
53840 On ch=1 n=a#5 v=0
53840 On ch=1 n=c5 v=69
53920 On ch=1 n=c5 v=0
53920 On ch=1 n=a#4 v=69
54000 On ch=1 n=a#4 v=0
54000 On ch=1 n=e4 v=66
54080 On ch=1 n=e4 v=0
54080 On ch=1 n=c4 v=66
54160 On ch=1 n=c4 v=0
54160 On ch=1 n=e5 v=66
54240 On ch=1 n=e5 v=0
54240 On ch=1 n=f5 v=65
54320 On ch=1 n=f5 v=0
54320 On ch=1 n=c5 v=65
54400 On ch=1 n=c5 v=0
54400 On ch=1 n=a4 v=65
54480 On ch=1 n=a4 v=0
54480 On ch=1 n=c4 v=65
54560 On ch=1 n=c4 v=0
54560 On ch=1 n=f3 v=65
54640 On ch=1 n=f3 v=0
54640 On ch=1 n=g6 v=65
54720 On ch=1 n=g6 v=0
54720 On ch=1 n=f6 v=65
54800 On ch=1 n=f6 v=0
54800 On ch=1 n=a#5 v=65
54880 On ch=1 n=a#5 v=0
54880 On ch=1 n=d6 v=65
54960 On ch=1 n=d6 v=0
54960 On ch=1 n=f5 v=65
55040 On ch=1 n=f5 v=0
55040 On ch=1 n=a#4 v=65
55120 On ch=1 n=a#4 v=0
55120 On ch=1 n=d#6 v=65
55200 On ch=1 n=d#6 v=0
55200 On ch=1 n=d6 v=65
55280 On ch=1 n=d6 v=0
55280 On ch=1 n=f5 v=65
55360 On ch=1 n=f5 v=0
55360 On ch=1 n=a#5 v=65
55440 On ch=1 n=a#5 v=0
55440 On ch=1 n=d5 v=65
55520 On ch=1 n=d5 v=0
55520 On ch=1 n=a#4 v=65
55600 On ch=1 n=a#4 v=0
55600 On ch=1 n=d6 v=65
55680 On ch=1 n=d6 v=0
55680 On ch=1 n=c6 v=65
55760 On ch=1 n=c6 v=0
55760 On ch=1 n=f5 v=65
55840 On ch=1 n=f5 v=0
55840 On ch=1 n=f#5 v=65
55920 On ch=1 n=f#5 v=0
55920 On ch=1 n=d#5 v=65
56000 On ch=1 n=d#5 v=0
56000 On ch=1 n=a#4 v=65
56080 On ch=1 n=a#4 v=0
56080 On ch=1 n=d6 v=65
56160 On ch=1 n=d6 v=0
56160 On ch=1 n=d#6 v=65
56240 On ch=1 n=d#6 v=0
56240 On ch=1 n=f5 v=65
56320 On ch=1 n=f5 v=0
56320 On ch=1 n=g5 v=65
56400 On ch=1 n=g5 v=0
56400 On ch=1 n=d#5 v=65
56480 On ch=1 n=d#5 v=0
56480 On ch=1 n=a#4 v=65
56560 On ch=1 n=a#4 v=0
56560 On ch=1 n=d6 v=65
56640 On ch=1 n=d6 v=0
56640 On ch=1 n=c6 v=65
56720 On ch=1 n=c6 v=0
56720 On ch=1 n=f5 v=65
56800 On ch=1 n=f5 v=0
56800 On ch=1 n=f#5 v=65
56880 On ch=1 n=f#5 v=0
56880 On ch=1 n=d#5 v=65
56960 On ch=1 n=d#5 v=0
56960 On ch=1 n=a#4 v=65
57040 On ch=1 n=a#4 v=0
57040 On ch=1 n=d6 v=65
57120 On ch=1 n=d6 v=0
57120 On ch=1 n=d#6 v=65
57200 On ch=1 n=d#6 v=0
57200 On ch=1 n=f5 v=65
57280 On ch=1 n=f5 v=0
57280 On ch=1 n=d#5 v=65
57360 On ch=1 n=d#5 v=0
57360 On ch=1 n=c5 v=65
57440 On ch=1 n=c5 v=0
57440 On ch=1 n=a#4 v=65
57520 On ch=1 n=a#4 v=0
57520 On ch=1 n=a5 v=65
57600 On ch=1 n=a5 v=0
57600 On ch=1 n=a#5 v=65
57680 On ch=1 n=a#5 v=0
57680 On ch=1 n=f5 v=65
57760 On ch=1 n=f5 v=0
57760 On ch=1 n=d5 v=65
57840 On ch=1 n=d5 v=0
57840 On ch=1 n=a#4 v=68
57920 On ch=1 n=a#4 v=0
57920 On ch=1 n=a4 v=68
58000 On ch=1 n=a4 v=0
58000 On ch=1 n=c6 v=68
58080 On ch=1 n=c6 v=0
58080 On ch=1 n=d6 v=71
58160 On ch=1 n=d6 v=0
58160 On ch=1 n=f5 v=71
58240 On ch=1 n=f5 v=0
58240 On ch=1 n=d5 v=71
58320 On ch=1 n=d5 v=0
58320 On ch=1 n=a#4 v=74
58400 On ch=1 n=a#4 v=0
58400 On ch=1 n=g4 v=74
58480 On ch=1 n=g4 v=0
58480 On ch=1 n=c6 v=74
58560 On ch=1 n=c6 v=0
58560 On ch=1 n=a#5 v=78
58640 On ch=1 n=a#5 v=0
58640 On ch=1 n=f5 v=78
58720 On ch=1 n=f5 v=0
58720 On ch=1 n=d5 v=78
58800 On ch=1 n=d5 v=0
58800 On ch=1 n=a#4 v=78
58880 On ch=1 n=a#4 v=0
58880 On ch=1 n=f4 v=78
58960 On ch=1 n=f4 v=0
58960 On ch=1 n=c6 v=78
59040 On ch=1 n=c6 v=0
59040 On ch=1 n=d6 v=74
59120 On ch=1 n=d6 v=0
59120 On ch=1 n=g5 v=74
59200 On ch=1 n=g5 v=0
59200 On ch=1 n=c5 v=74
59280 On ch=1 n=c5 v=0
59280 On ch=1 n=a#4 v=70
59360 On ch=1 n=a#4 v=0
59360 On ch=1 n=e4 v=70
59440 On ch=1 n=e4 v=0
59440 On ch=1 n=a#5 v=70
59520 On ch=1 n=a#5 v=0
59520 On ch=1 n=a5 v=65
59600 On ch=1 n=a5 v=0
59600 On ch=1 n=f5 v=65
59680 On ch=1 n=f5 v=0
59680 On ch=1 n=c5 v=65
59760 On ch=1 n=c5 v=0
59760 On ch=1 n=a4 v=65
59840 On ch=1 n=a4 v=0
59840 On ch=1 n=f4 v=65
59920 On ch=1 n=f4 v=0
59920 On ch=1 n=a#5 v=65
60000 On ch=1 n=a#5 v=0
60000 On ch=1 n=c6 v=68
60080 On ch=1 n=c6 v=0
60080 On ch=1 n=f5 v=68
60160 On ch=1 n=f5 v=0
60160 On ch=1 n=c5 v=68
60240 On ch=1 n=c5 v=0
60240 On ch=1 n=g#4 v=71
60320 On ch=1 n=g#4 v=0
60320 On ch=1 n=d4 v=71
60400 On ch=1 n=d4 v=0
60400 On ch=1 n=b5 v=71
60480 On ch=1 n=b5 v=0
60480 On ch=1 n=c6 v=74
60560 On ch=1 n=c6 v=0
60560 On ch=1 n=f5 v=74
60640 On ch=1 n=f5 v=0
60640 On ch=1 n=c5 v=74
60720 On ch=1 n=c5 v=0
60720 On ch=1 n=a4 v=78
60800 On ch=1 n=a4 v=0
60800 On ch=1 n=c4 v=78
60880 On ch=1 n=c4 v=0
60880 On ch=1 n=c#6 v=78
60960 On ch=1 n=c#6 v=0
60960 On ch=1 n=d6 v=75
61040 On ch=1 n=d6 v=0
61040 On ch=1 n=e5 v=75
61120 On ch=1 n=e5 v=0
61120 On ch=1 n=a#4 v=75
61200 On ch=1 n=a#4 v=0
61200 On ch=1 n=g4 v=72
61280 On ch=1 n=g4 v=0
61280 On ch=1 n=c4 v=72
61360 On ch=1 n=c4 v=0
61360 On ch=1 n=a5 v=72
61440 On ch=1 n=a5 v=0
61440 On ch=1 n=a#5 v=69
61520 On ch=1 n=a#5 v=0
61520 On ch=1 n=c5 v=69
61600 On ch=1 n=c5 v=0
61600 On ch=1 n=a#4 v=69
61680 On ch=1 n=a#4 v=0
61680 On ch=1 n=e4 v=66
61760 On ch=1 n=e4 v=0
61760 On ch=1 n=c4 v=66
61840 On ch=1 n=c4 v=0
61840 On ch=1 n=e5 v=66
61920 On ch=1 n=e5 v=0
61920 On ch=1 n=f5 v=65
62000 On ch=1 n=f5 v=0
62000 On ch=1 n=c5 v=65
62080 On ch=1 n=c5 v=0
62080 On ch=1 n=a4 v=65
62160 On ch=1 n=a4 v=0
62160 On ch=1 n=c4 v=65
62240 On ch=1 n=c4 v=0
62240 On ch=1 n=f3 v=65
62320 On ch=1 n=f3 v=0
62320 On ch=1 n=g6 v=65
62400 On ch=1 n=g6 v=0
62400 On ch=1 n=f6 v=90
62480 On ch=1 n=f6 v=0
62480 On ch=1 n=g#5 v=90
62560 On ch=1 n=g#5 v=0
62560 On ch=1 n=c6 v=90
62640 On ch=1 n=c6 v=0
62640 On ch=1 n=f5 v=90
62720 On ch=1 n=f5 v=0
62720 On ch=1 n=d5 v=90
62800 On ch=1 n=d5 v=0
62800 On ch=1 n=d#6 v=90
62880 On ch=1 n=d#6 v=0
62880 On ch=1 n=d6 v=90
62960 On ch=1 n=d6 v=0
62960 On ch=1 n=g5 v=90
63040 On ch=1 n=g5 v=0
63040 On ch=1 n=d5 v=90
63120 On ch=1 n=d5 v=0
63120 On ch=1 n=b4 v=90
63200 On ch=1 n=b4 v=0
63200 On ch=1 n=f4 v=90
63280 On ch=1 n=f4 v=0
63280 On ch=1 n=b5 v=90
63360 On ch=1 n=b5 v=0
63360 On ch=1 n=c6 v=90
63440 On ch=1 n=c6 v=0
63440 On ch=1 n=g5 v=90
63520 On ch=1 n=g5 v=0
63520 On ch=1 n=g#5 v=90
63600 On ch=1 n=g#5 v=0
63600 On ch=1 n=d#5 v=90
63680 On ch=1 n=d#5 v=0
63680 On ch=1 n=c5 v=90
63760 On ch=1 n=c5 v=0
63760 On ch=1 n=d6 v=90
63840 On ch=1 n=d6 v=0
63840 On ch=1 n=d#6 v=90
63920 On ch=1 n=d#6 v=0
63920 On ch=1 n=g5 v=90
64000 On ch=1 n=g5 v=0
64000 On ch=1 n=c5 v=90
64080 On ch=1 n=c5 v=0
64080 On ch=1 n=g4 v=93
64160 On ch=1 n=g4 v=0
64160 On ch=1 n=d#4 v=96
64240 On ch=1 n=d#4 v=0
64240 On ch=1 n=c6 v=99
64320 On ch=1 n=c6 v=0
64320 On ch=1 n=g#6 v=102
64400 On ch=1 n=g#6 v=0
64400 On ch=1 n=g#5 v=102
64480 On ch=1 n=g#5 v=0
64480 On ch=1 n=c5 v=102
64560 On ch=1 n=c5 v=0
64560 On ch=1 n=f4 v=102
64640 On ch=1 n=f4 v=0
64640 On ch=1 n=d4 v=102
64720 On ch=1 n=d4 v=0
64720 On ch=1 n=g#6 v=102
64800 On ch=1 n=g#6 v=0
64800 On ch=1 n=g6 v=102
64880 On ch=1 n=g6 v=0
64880 On ch=1 n=g5 v=102
64960 On ch=1 n=g5 v=0
64960 On ch=1 n=b4 v=102
65040 On ch=1 n=b4 v=0
65040 On ch=1 n=d4 v=102
65120 On ch=1 n=d4 v=0
65120 On ch=1 n=g3 v=102
65200 On ch=1 n=g3 v=0
65200 On ch=1 n=g6 v=102
65280 On ch=1 n=g6 v=0
65280 On ch=1 n=d#6 v=99
65360 On ch=1 n=d#6 v=0
65360 On ch=1 n=g5 v=96
65440 On ch=1 n=g5 v=0
65440 On ch=1 n=c5 v=93
65520 On ch=1 n=c5 v=0
65520 On ch=1 n=d#4 v=90
65600 On ch=1 n=d#4 v=0
65600 On ch=1 n=c4 v=90
65680 On ch=1 n=c4 v=0
65680 On ch=1 n=d#6 v=90
65760 On ch=1 n=d#6 v=0
65760 On ch=1 n=c6 v=90
65840 On ch=1 n=c6 v=0
65840 On ch=1 n=g5 v=90
65920 On ch=1 n=g5 v=0
65920 On ch=1 n=c5 v=90
66000 On ch=1 n=c5 v=0
66000 On ch=1 n=g4 v=90
66080 On ch=1 n=g4 v=0
66080 On ch=1 n=d#4 v=90
66160 On ch=1 n=d#4 v=0
66160 On ch=1 n=f6 v=90
66240 On ch=1 n=f6 v=0
66240 On ch=1 n=d#6 v=65
66320 On ch=1 n=d#6 v=0
66320 On ch=1 n=f#5 v=65
66400 On ch=1 n=f#5 v=0
66400 On ch=1 n=a#5 v=65
66480 On ch=1 n=a#5 v=0
66480 On ch=1 n=d#5 v=65
66560 On ch=1 n=d#5 v=0
66560 On ch=1 n=c5 v=65
66640 On ch=1 n=c5 v=0
66640 On ch=1 n=c#6 v=65
66720 On ch=1 n=c#6 v=0
66720 On ch=1 n=c6 v=65
66800 On ch=1 n=c6 v=0
66800 On ch=1 n=f5 v=65
66880 On ch=1 n=f5 v=0
66880 On ch=1 n=c5 v=65
66960 On ch=1 n=c5 v=0
66960 On ch=1 n=a4 v=65
67040 On ch=1 n=a4 v=0
67040 On ch=1 n=d#4 v=65
67120 On ch=1 n=d#4 v=0
67120 On ch=1 n=a5 v=65
67200 On ch=1 n=a5 v=0
67200 On ch=1 n=a#5 v=65
67280 On ch=1 n=a#5 v=0
67280 On ch=1 n=f5 v=65
67360 On ch=1 n=f5 v=0
67360 On ch=1 n=f#5 v=65
67440 On ch=1 n=f#5 v=0
67440 On ch=1 n=c#5 v=65
67520 On ch=1 n=c#5 v=0
67520 On ch=1 n=a#4 v=65
67600 On ch=1 n=a#4 v=0
67600 On ch=1 n=c6 v=65
67680 On ch=1 n=c6 v=0
67680 On ch=1 n=c#6 v=65
67760 On ch=1 n=c#6 v=0
67760 On ch=1 n=f5 v=65
67840 On ch=1 n=f5 v=0
67840 On ch=1 n=a#4 v=65
67920 On ch=1 n=a#4 v=0
67920 On ch=1 n=f4 v=68
68000 On ch=1 n=f4 v=0
68000 On ch=1 n=c#4 v=71
68080 On ch=1 n=c#4 v=0
68080 On ch=1 n=a#5 v=74
68160 On ch=1 n=a#5 v=0
68160 On ch=1 n=f#6 v=78
68240 On ch=1 n=f#6 v=0
68240 On ch=1 n=f#5 v=78
68320 On ch=1 n=f#5 v=0
68320 On ch=1 n=d#5 v=78
68400 On ch=1 n=d#5 v=0
68400 On ch=1 n=a#4 v=78
68480 On ch=1 n=a#4 v=0
68480 On ch=1 n=d#4 v=78
68560 On ch=1 n=d#4 v=0
68560 On ch=1 n=f#6 v=78
68640 On ch=1 n=f#6 v=0
68640 On ch=1 n=a6 v=78
68720 On ch=1 n=a6 v=0
68720 On ch=1 n=a5 v=78
68800 On ch=1 n=a5 v=0
68800 On ch=1 n=f#5 v=78
68880 On ch=1 n=f#5 v=0
68880 On ch=1 n=d#5 v=78
68960 On ch=1 n=d#5 v=0
68960 On ch=1 n=f#4 v=78
69040 On ch=1 n=f#4 v=0
69040 On ch=1 n=a6 v=78
69120 On ch=1 n=a6 v=0
69120 On ch=1 n=a#6 v=73
69200 On ch=1 n=a#6 v=0
69200 On ch=1 n=a#5 v=73
69280 On ch=1 n=a#5 v=0
69280 On ch=1 n=g5 v=73
69360 On ch=1 n=g5 v=0
69360 On ch=1 n=d#5 v=68
69440 On ch=1 n=d#5 v=0
69440 On ch=1 n=g4 v=68
69520 On ch=1 n=g4 v=0
69520 On ch=1 n=g6 v=68
69600 On ch=1 n=g6 v=0
69600 On ch=1 n=f6 v=63
69680 On ch=1 n=f6 v=0
69680 On ch=1 n=c6 v=63
69760 On ch=1 n=c6 v=0
69760 On ch=1 n=f5 v=63
69840 On ch=1 n=f5 v=0
69840 On ch=1 n=d#5 v=58
69920 On ch=1 n=d#5 v=0
69920 On ch=1 n=a4 v=58
70000 On ch=1 n=a4 v=0
70000 On ch=1 n=g6 v=58
70080 On ch=1 n=g6 v=0
70080 On ch=1 n=f6 v=53
70160 On ch=1 n=f6 v=0
70160 On ch=1 n=a#5 v=53
70240 On ch=1 n=a#5 v=0
70240 On ch=1 n=d6 v=53
70320 On ch=1 n=d6 v=0
70320 On ch=1 n=f5 v=53
70400 On ch=1 n=f5 v=0
70400 On ch=1 n=a#4 v=53
70480 On ch=1 n=a#4 v=0
70480 On ch=1 n=d#6 v=53
70560 On ch=1 n=d#6 v=0
70560 On ch=1 n=d6 v=53
70640 On ch=1 n=d6 v=0
70640 On ch=1 n=f5 v=53
70720 On ch=1 n=f5 v=0
70720 On ch=1 n=a#5 v=53
70800 On ch=1 n=a#5 v=0
70800 On ch=1 n=d5 v=53
70880 On ch=1 n=d5 v=0
70880 On ch=1 n=a#4 v=53
70960 On ch=1 n=a#4 v=0
70960 On ch=1 n=d6 v=53
71040 On ch=1 n=d6 v=0
71040 On ch=1 n=c6 v=53
71120 On ch=1 n=c6 v=0
71120 On ch=1 n=f5 v=53
71200 On ch=1 n=f5 v=0
71200 On ch=1 n=f#5 v=53
71280 On ch=1 n=f#5 v=0
71280 On ch=1 n=d#5 v=53
71360 On ch=1 n=d#5 v=0
71360 On ch=1 n=a#4 v=53
71440 On ch=1 n=a#4 v=0
71440 On ch=1 n=d6 v=53
71520 On ch=1 n=d6 v=0
71520 On ch=1 n=d#6 v=53
71600 On ch=1 n=d#6 v=0
71600 On ch=1 n=f5 v=53
71680 On ch=1 n=f5 v=0
71680 On ch=1 n=g5 v=53
71760 On ch=1 n=g5 v=0
71760 On ch=1 n=d#5 v=53
71840 On ch=1 n=d#5 v=0
71840 On ch=1 n=a#4 v=53
71920 On ch=1 n=a#4 v=0
71920 On ch=1 n=d6 v=53
72000 On ch=1 n=d6 v=0
72000 On ch=1 n=c6 v=53
72080 On ch=1 n=c6 v=0
72080 On ch=1 n=f5 v=53
72160 On ch=1 n=f5 v=0
72160 On ch=1 n=f#5 v=53
72240 On ch=1 n=f#5 v=0
72240 On ch=1 n=d#5 v=53
72320 On ch=1 n=d#5 v=0
72320 On ch=1 n=a#4 v=53
72400 On ch=1 n=a#4 v=0
72400 On ch=1 n=d6 v=53
72480 On ch=1 n=d6 v=0
72480 On ch=1 n=d#6 v=53
72560 On ch=1 n=d#6 v=0
72560 On ch=1 n=f5 v=53
72640 On ch=1 n=f5 v=0
72640 On ch=1 n=d#5 v=53
72720 On ch=1 n=d#5 v=0
72720 On ch=1 n=c5 v=53
72800 On ch=1 n=c5 v=0
72800 On ch=1 n=a#4 v=53
72880 On ch=1 n=a#4 v=0
72880 On ch=1 n=a5 v=53
72960 On ch=1 n=a5 v=0
72960 On ch=1 n=a#5 v=53
73040 On ch=1 n=a#5 v=0
73040 On ch=1 n=f5 v=53
73120 On ch=1 n=f5 v=0
73120 On ch=1 n=d5 v=53
73200 On ch=1 n=d5 v=0
73200 On ch=1 n=a#4 v=53
73280 On ch=1 n=a#4 v=0
73280 On ch=1 n=a4 v=53
73360 On ch=1 n=a4 v=0
73360 On ch=1 n=c6 v=53
73440 On ch=1 n=c6 v=0
73440 On ch=1 n=d6 v=53
73520 On ch=1 n=d6 v=0
73520 On ch=1 n=f5 v=53
73600 On ch=1 n=f5 v=0
73600 On ch=1 n=d5 v=53
73680 On ch=1 n=d5 v=0
73680 On ch=1 n=a#4 v=59
73760 On ch=1 n=a#4 v=0
73760 On ch=1 n=g#4 v=65
73840 On ch=1 n=g#4 v=0
73840 On ch=1 n=a#5 v=71
73920 On ch=1 n=a#5 v=0
73920 On ch=1 n=d#6 v=78
74000 On ch=1 n=d#6 v=0
74000 On ch=1 n=d#5 v=78
74080 On ch=1 n=d#5 v=0
74080 On ch=1 n=g5 v=78
74160 On ch=1 n=g5 v=0
74160 On ch=1 n=a#4 v=74
74240 On ch=1 n=a#4 v=0
74240 On ch=1 n=g4 v=70
74320 On ch=1 n=g4 v=0
74320 On ch=1 n=d#6 v=66
74400 On ch=1 n=d#6 v=0
74400 On ch=1 n=b5 v=62
74480 On ch=1 n=b5 v=0
74480 On ch=1 n=g#5 v=58
74560 On ch=1 n=g#5 v=0
74560 On ch=1 n=d5 v=55
74640 On ch=1 n=d5 v=0
74640 On ch=1 n=g#4 v=53
74720 On ch=1 n=g#4 v=0
74720 On ch=1 n=f4 v=59
74800 On ch=1 n=f4 v=0
74800 On ch=1 n=b5 v=65
74880 On ch=1 n=b5 v=0
74880 On ch=1 n=c6 v=71
74960 On ch=1 n=c6 v=0
74960 On ch=1 n=c5 v=74
75040 On ch=1 n=c5 v=0
75040 On ch=1 n=d#5 v=78
75120 On ch=1 n=d#5 v=0
75120 On ch=1 n=g4 v=72
75200 On ch=1 n=g4 v=0
75200 On ch=1 n=d#4 v=72
75280 On ch=1 n=d#4 v=0
75280 On ch=1 n=c6 v=72
75360 On ch=1 n=c6 v=0
75360 On ch=1 n=f#5 v=66
75440 On ch=1 n=f#5 v=0
75440 On ch=1 n=d5 v=66
75520 On ch=1 n=d5 v=0
75520 On ch=1 n=a4 v=66
75600 On ch=1 n=a4 v=0
75600 On ch=1 n=d4 v=60
75680 On ch=1 n=d4 v=0
75680 On ch=1 n=c4 v=60
75760 On ch=1 n=c4 v=0
75760 On ch=1 n=f#5 v=60
75840 On ch=1 n=f#5 v=0
75840 On ch=1 n=g5 v=53
75920 On ch=1 n=g5 v=0
75920 On ch=1 n=g4 v=53
76000 On ch=1 n=g4 v=0
76000 On ch=1 n=a#4 v=53
76080 On ch=1 n=a#4 v=0
76080 On ch=1 n=d4 v=53
76160 On ch=1 n=d4 v=0
76160 On ch=1 n=a#3 v=53
76240 On ch=1 n=a#3 v=0
76240 On ch=1 n=g5 v=53
76320 On ch=1 n=g5 v=0
76320 On ch=1 n=f#5 v=53
76400 On ch=1 n=f#5 v=0
76400 On ch=1 n=a#4 v=53
76480 On ch=1 n=a#4 v=0
76480 On ch=1 n=f#4 v=53
76560 On ch=1 n=f#4 v=0
76560 On ch=1 n=a#3 v=53
76640 On ch=1 n=a#3 v=0
76640 On ch=1 n=d#3 v=53
76720 On ch=1 n=d#3 v=0
76720 On ch=1 n=f#5 v=53
76800 On ch=1 n=f#5 v=0
76800 On ch=1 n=f5 v=53
76880 On ch=1 n=f5 v=0
76880 On ch=1 n=a4 v=53
76960 On ch=1 n=a4 v=0
76960 On ch=1 n=f4 v=53
77040 On ch=1 n=f4 v=0
77040 On ch=1 n=a3 v=53
77120 On ch=1 n=a3 v=0
77120 On ch=1 n=f3 v=53
77200 On ch=1 n=f3 v=0
77200 On ch=1 n=f5 v=53
77280 On ch=1 n=f5 v=0
77280 On ch=1 n=d5 v=53
77360 On ch=1 n=d5 v=0
77360 On ch=1 n=a#4 v=53
77440 On ch=1 n=a#4 v=0
77440 On ch=1 n=d4 v=53
77520 On ch=1 n=d4 v=0
77520 On ch=1 n=f3 v=53
77600 On ch=1 n=f3 v=0
77600 On ch=1 n=a#2 v=53
77680 On ch=1 n=a#2 v=0
77680 On ch=1 n=g6 v=53
77760 On ch=1 n=g6 v=0
77760 On ch=1 n=f6 v=90
77840 On ch=1 n=f6 v=0
77840 On ch=1 n=g#5 v=90
77920 On ch=1 n=g#5 v=0
77920 On ch=1 n=c6 v=90
78000 On ch=1 n=c6 v=0
78000 On ch=1 n=f5 v=90
78080 On ch=1 n=f5 v=0
78080 On ch=1 n=d5 v=90
78160 On ch=1 n=d5 v=0
78160 On ch=1 n=d#6 v=90
78240 On ch=1 n=d#6 v=0
78240 On ch=1 n=d6 v=90
78320 On ch=1 n=d6 v=0
78320 On ch=1 n=g5 v=90
78400 On ch=1 n=g5 v=0
78400 On ch=1 n=d5 v=90
78480 On ch=1 n=d5 v=0
78480 On ch=1 n=b4 v=90
78560 On ch=1 n=b4 v=0
78560 On ch=1 n=f4 v=90
78640 On ch=1 n=f4 v=0
78640 On ch=1 n=b5 v=90
78720 On ch=1 n=b5 v=0
78720 On ch=1 n=c6 v=90
78800 On ch=1 n=c6 v=0
78800 On ch=1 n=g5 v=90
78880 On ch=1 n=g5 v=0
78880 On ch=1 n=g#5 v=90
78960 On ch=1 n=g#5 v=0
78960 On ch=1 n=d#5 v=90
79040 On ch=1 n=d#5 v=0
79040 On ch=1 n=c5 v=90
79120 On ch=1 n=c5 v=0
79120 On ch=1 n=d6 v=90
79200 On ch=1 n=d6 v=0
79200 On ch=1 n=d#6 v=90
79280 On ch=1 n=d#6 v=0
79280 On ch=1 n=g5 v=90
79360 On ch=1 n=g5 v=0
79360 On ch=1 n=c5 v=90
79440 On ch=1 n=c5 v=0
79440 On ch=1 n=g4 v=93
79520 On ch=1 n=g4 v=0
79520 On ch=1 n=d#4 v=96
79600 On ch=1 n=d#4 v=0
79600 On ch=1 n=c6 v=99
79680 On ch=1 n=c6 v=0
79680 On ch=1 n=g#6 v=102
79760 On ch=1 n=g#6 v=0
79760 On ch=1 n=g#5 v=102
79840 On ch=1 n=g#5 v=0
79840 On ch=1 n=c5 v=102
79920 On ch=1 n=c5 v=0
79920 On ch=1 n=f4 v=102
80000 On ch=1 n=f4 v=0
80000 On ch=1 n=d4 v=102
80080 On ch=1 n=d4 v=0
80080 On ch=1 n=g#6 v=102
80160 On ch=1 n=g#6 v=0
80160 On ch=1 n=g6 v=102
80240 On ch=1 n=g6 v=0
80240 On ch=1 n=g5 v=102
80320 On ch=1 n=g5 v=0
80320 On ch=1 n=b4 v=102
80400 On ch=1 n=b4 v=0
80400 On ch=1 n=d4 v=102
80480 On ch=1 n=d4 v=0
80480 On ch=1 n=g3 v=102
80560 On ch=1 n=g3 v=0
80560 On ch=1 n=g6 v=102
80640 On ch=1 n=g6 v=0
80640 On ch=1 n=d#6 v=99
80720 On ch=1 n=d#6 v=0
80720 On ch=1 n=g5 v=96
80800 On ch=1 n=g5 v=0
80800 On ch=1 n=c5 v=93
80880 On ch=1 n=c5 v=0
80880 On ch=1 n=d#4 v=90
80960 On ch=1 n=d#4 v=0
80960 On ch=1 n=c4 v=90
81040 On ch=1 n=c4 v=0
81040 On ch=1 n=d#6 v=90
81120 On ch=1 n=d#6 v=0
81120 On ch=1 n=c6 v=90
81200 On ch=1 n=c6 v=0
81200 On ch=1 n=g5 v=90
81280 On ch=1 n=g5 v=0
81280 On ch=1 n=c5 v=90
81360 On ch=1 n=c5 v=0
81360 On ch=1 n=g4 v=90
81440 On ch=1 n=g4 v=0
81440 On ch=1 n=d#4 v=90
81520 On ch=1 n=d#4 v=0
81520 On ch=1 n=f6 v=90
81600 On ch=1 n=f6 v=0
81600 On ch=1 n=d#6 v=65
81680 On ch=1 n=d#6 v=0
81680 On ch=1 n=f#5 v=65
81760 On ch=1 n=f#5 v=0
81760 On ch=1 n=a#5 v=65
81840 On ch=1 n=a#5 v=0
81840 On ch=1 n=d#5 v=65
81920 On ch=1 n=d#5 v=0
81920 On ch=1 n=c5 v=65
82000 On ch=1 n=c5 v=0
82000 On ch=1 n=c#6 v=65
82080 On ch=1 n=c#6 v=0
82080 On ch=1 n=c6 v=65
82160 On ch=1 n=c6 v=0
82160 On ch=1 n=f5 v=65
82240 On ch=1 n=f5 v=0
82240 On ch=1 n=c5 v=65
82320 On ch=1 n=c5 v=0
82320 On ch=1 n=a4 v=65
82400 On ch=1 n=a4 v=0
82400 On ch=1 n=d#4 v=65
82480 On ch=1 n=d#4 v=0
82480 On ch=1 n=a5 v=65
82560 On ch=1 n=a5 v=0
82560 On ch=1 n=a#5 v=65
82640 On ch=1 n=a#5 v=0
82640 On ch=1 n=f5 v=65
82720 On ch=1 n=f5 v=0
82720 On ch=1 n=f#5 v=65
82800 On ch=1 n=f#5 v=0
82800 On ch=1 n=c#5 v=65
82880 On ch=1 n=c#5 v=0
82880 On ch=1 n=a#4 v=65
82960 On ch=1 n=a#4 v=0
82960 On ch=1 n=c6 v=65
83040 On ch=1 n=c6 v=0
83040 On ch=1 n=c#6 v=65
83120 On ch=1 n=c#6 v=0
83120 On ch=1 n=f5 v=65
83200 On ch=1 n=f5 v=0
83200 On ch=1 n=a#4 v=65
83280 On ch=1 n=a#4 v=0
83280 On ch=1 n=f4 v=68
83360 On ch=1 n=f4 v=0
83360 On ch=1 n=c#4 v=71
83440 On ch=1 n=c#4 v=0
83440 On ch=1 n=a#5 v=74
83520 On ch=1 n=a#5 v=0
83520 On ch=1 n=f#6 v=78
83600 On ch=1 n=f#6 v=0
83600 On ch=1 n=f#5 v=78
83680 On ch=1 n=f#5 v=0
83680 On ch=1 n=d#5 v=78
83760 On ch=1 n=d#5 v=0
83760 On ch=1 n=a#4 v=78
83840 On ch=1 n=a#4 v=0
83840 On ch=1 n=d#4 v=78
83920 On ch=1 n=d#4 v=0
83920 On ch=1 n=f#6 v=78
84000 On ch=1 n=f#6 v=0
84000 On ch=1 n=a6 v=78
84080 On ch=1 n=a6 v=0
84080 On ch=1 n=a5 v=78
84160 On ch=1 n=a5 v=0
84160 On ch=1 n=f#5 v=78
84240 On ch=1 n=f#5 v=0
84240 On ch=1 n=d#5 v=78
84320 On ch=1 n=d#5 v=0
84320 On ch=1 n=f#4 v=78
84400 On ch=1 n=f#4 v=0
84400 On ch=1 n=a6 v=78
84480 On ch=1 n=a6 v=0
84480 On ch=1 n=a#6 v=73
84560 On ch=1 n=a#6 v=0
84560 On ch=1 n=a#5 v=73
84640 On ch=1 n=a#5 v=0
84640 On ch=1 n=g5 v=73
84720 On ch=1 n=g5 v=0
84720 On ch=1 n=d#5 v=68
84800 On ch=1 n=d#5 v=0
84800 On ch=1 n=g4 v=68
84880 On ch=1 n=g4 v=0
84880 On ch=1 n=g6 v=68
84960 On ch=1 n=g6 v=0
84960 On ch=1 n=f6 v=63
85040 On ch=1 n=f6 v=0
85040 On ch=1 n=c6 v=63
85120 On ch=1 n=c6 v=0
85120 On ch=1 n=f5 v=63
85200 On ch=1 n=f5 v=0
85200 On ch=1 n=d#5 v=58
85280 On ch=1 n=d#5 v=0
85280 On ch=1 n=a4 v=58
85360 On ch=1 n=a4 v=0
85360 On ch=1 n=g6 v=58
85440 On ch=1 n=g6 v=0
85440 On ch=1 n=f6 v=53
85520 On ch=1 n=f6 v=0
85520 On ch=1 n=a#5 v=53
85600 On ch=1 n=a#5 v=0
85600 On ch=1 n=d6 v=53
85680 On ch=1 n=d6 v=0
85680 On ch=1 n=f5 v=53
85760 On ch=1 n=f5 v=0
85760 On ch=1 n=a#4 v=53
85840 On ch=1 n=a#4 v=0
85840 On ch=1 n=d#6 v=53
85920 On ch=1 n=d#6 v=0
85920 On ch=1 n=d6 v=53
86000 On ch=1 n=d6 v=0
86000 On ch=1 n=f5 v=53
86080 On ch=1 n=f5 v=0
86080 On ch=1 n=a#5 v=53
86160 On ch=1 n=a#5 v=0
86160 On ch=1 n=d5 v=53
86240 On ch=1 n=d5 v=0
86240 On ch=1 n=a#4 v=53
86320 On ch=1 n=a#4 v=0
86320 On ch=1 n=d6 v=53
86400 On ch=1 n=d6 v=0
86400 On ch=1 n=c6 v=53
86480 On ch=1 n=c6 v=0
86480 On ch=1 n=f5 v=53
86560 On ch=1 n=f5 v=0
86560 On ch=1 n=f#5 v=53
86640 On ch=1 n=f#5 v=0
86640 On ch=1 n=d#5 v=53
86720 On ch=1 n=d#5 v=0
86720 On ch=1 n=a#4 v=53
86800 On ch=1 n=a#4 v=0
86800 On ch=1 n=d6 v=53
86880 On ch=1 n=d6 v=0
86880 On ch=1 n=d#6 v=53
86960 On ch=1 n=d#6 v=0
86960 On ch=1 n=f5 v=53
87040 On ch=1 n=f5 v=0
87040 On ch=1 n=g5 v=53
87120 On ch=1 n=g5 v=0
87120 On ch=1 n=d#5 v=53
87200 On ch=1 n=d#5 v=0
87200 On ch=1 n=a#4 v=53
87280 On ch=1 n=a#4 v=0
87280 On ch=1 n=d6 v=53
87360 On ch=1 n=d6 v=0
87360 On ch=1 n=c6 v=53
87440 On ch=1 n=c6 v=0
87440 On ch=1 n=f5 v=53
87520 On ch=1 n=f5 v=0
87520 On ch=1 n=f#5 v=53
87600 On ch=1 n=f#5 v=0
87600 On ch=1 n=d#5 v=53
87680 On ch=1 n=d#5 v=0
87680 On ch=1 n=a#4 v=53
87760 On ch=1 n=a#4 v=0
87760 On ch=1 n=d6 v=53
87840 On ch=1 n=d6 v=0
87840 On ch=1 n=d#6 v=53
87920 On ch=1 n=d#6 v=0
87920 On ch=1 n=f5 v=53
88000 On ch=1 n=f5 v=0
88000 On ch=1 n=d#5 v=53
88080 On ch=1 n=d#5 v=0
88080 On ch=1 n=c5 v=53
88160 On ch=1 n=c5 v=0
88160 On ch=1 n=a#4 v=53
88240 On ch=1 n=a#4 v=0
88240 On ch=1 n=a5 v=53
88320 On ch=1 n=a5 v=0
88320 On ch=1 n=a#5 v=53
88400 On ch=1 n=a#5 v=0
88400 On ch=1 n=f5 v=53
88480 On ch=1 n=f5 v=0
88480 On ch=1 n=d5 v=53
88560 On ch=1 n=d5 v=0
88560 On ch=1 n=a#4 v=53
88640 On ch=1 n=a#4 v=0
88640 On ch=1 n=a4 v=53
88720 On ch=1 n=a4 v=0
88720 On ch=1 n=c6 v=53
88800 On ch=1 n=c6 v=0
88800 On ch=1 n=d6 v=53
88880 On ch=1 n=d6 v=0
88880 On ch=1 n=f5 v=53
88960 On ch=1 n=f5 v=0
88960 On ch=1 n=d5 v=53
89040 On ch=1 n=d5 v=0
89040 On ch=1 n=a#4 v=59
89120 On ch=1 n=a#4 v=0
89120 On ch=1 n=g#4 v=65
89200 On ch=1 n=g#4 v=0
89200 On ch=1 n=a#5 v=71
89280 On ch=1 n=a#5 v=0
89280 On ch=1 n=d#6 v=78
89360 On ch=1 n=d#6 v=0
89360 On ch=1 n=d#5 v=78
89440 On ch=1 n=d#5 v=0
89440 On ch=1 n=g5 v=78
89520 On ch=1 n=g5 v=0
89520 On ch=1 n=a#4 v=74
89600 On ch=1 n=a#4 v=0
89600 On ch=1 n=g4 v=70
89680 On ch=1 n=g4 v=0
89680 On ch=1 n=d#6 v=66
89760 On ch=1 n=d#6 v=0
89760 On ch=1 n=b5 v=62
89840 On ch=1 n=b5 v=0
89840 On ch=1 n=g#5 v=58
89920 On ch=1 n=g#5 v=0
89920 On ch=1 n=d5 v=55
90000 On ch=1 n=d5 v=0
90000 On ch=1 n=g#4 v=53
90080 On ch=1 n=g#4 v=0
90080 On ch=1 n=f4 v=59
90160 On ch=1 n=f4 v=0
90160 On ch=1 n=b5 v=65
90240 On ch=1 n=b5 v=0
90240 On ch=1 n=c6 v=71
90320 On ch=1 n=c6 v=0
90320 On ch=1 n=c5 v=74
90400 On ch=1 n=c5 v=0
90400 On ch=1 n=d#5 v=78
90480 On ch=1 n=d#5 v=0
90480 On ch=1 n=g4 v=72
90560 On ch=1 n=g4 v=0
90560 On ch=1 n=d#4 v=72
90640 On ch=1 n=d#4 v=0
90640 On ch=1 n=c6 v=72
90720 On ch=1 n=c6 v=0
90720 On ch=1 n=f#5 v=66
90800 On ch=1 n=f#5 v=0
90800 On ch=1 n=d5 v=66
90880 On ch=1 n=d5 v=0
90880 On ch=1 n=a4 v=66
90960 On ch=1 n=a4 v=0
90960 On ch=1 n=d4 v=60
91040 On ch=1 n=d4 v=0
91040 On ch=1 n=c4 v=60
91120 On ch=1 n=c4 v=0
91120 On ch=1 n=f#5 v=60
91200 On ch=1 n=f#5 v=0
91200 On ch=1 n=g5 v=53
91280 On ch=1 n=g5 v=0
91280 On ch=1 n=g4 v=53
91360 On ch=1 n=g4 v=0
91360 On ch=1 n=a#4 v=53
91440 On ch=1 n=a#4 v=0
91440 On ch=1 n=d4 v=53
91520 On ch=1 n=d4 v=0
91520 On ch=1 n=a#3 v=53
91600 On ch=1 n=a#3 v=0
91600 On ch=1 n=g5 v=53
91680 On ch=1 n=g5 v=0
91680 On ch=1 n=f#5 v=53
91760 On ch=1 n=f#5 v=0
91760 On ch=1 n=a#4 v=53
91840 On ch=1 n=a#4 v=0
91840 On ch=1 n=f#4 v=53
91920 On ch=1 n=f#4 v=0
91920 On ch=1 n=a#3 v=53
92000 On ch=1 n=a#3 v=0
92000 On ch=1 n=d#3 v=53
92080 On ch=1 n=d#3 v=0
92080 On ch=1 n=f#5 v=53
92160 On ch=1 n=f#5 v=0
92160 On ch=1 n=f5 v=53
92240 On ch=1 n=f5 v=0
92240 On ch=1 n=a4 v=53
92320 On ch=1 n=a4 v=0
92320 On ch=1 n=f4 v=53
92400 On ch=1 n=f4 v=0
92400 On ch=1 n=a3 v=53
92480 On ch=1 n=a3 v=0
92480 On ch=1 n=f3 v=53
92560 On ch=1 n=f3 v=0
92560 On ch=1 n=f5 v=53
92640 On ch=1 n=f5 v=0
92640 On ch=1 n=d5 v=53
92720 On ch=1 n=d5 v=0
92720 On ch=1 n=a#4 v=53
92800 On ch=1 n=a#4 v=0
92800 On ch=1 n=d4 v=53
92880 On ch=1 n=d4 v=0
92880 On ch=1 n=f3 v=53
92960 On ch=1 n=f3 v=0
92960 On ch=1 n=a#2 v=53
93040 On ch=1 n=a#2 v=0
93040 On ch=1 n=a4 v=102
93120 On ch=1 n=a4 v=0
93120 On ch=1 n=a#4 v=95
93200 On ch=1 n=a#4 v=0
93200 On ch=1 n=e4 v=90
93280 On ch=1 n=e4 v=0
93280 On ch=1 n=c#5 v=90
93360 On ch=1 n=c#5 v=0
93360 On ch=1 n=e5 v=95
93440 On ch=1 n=e5 v=0
93440 On ch=1 n=g4 v=90
93520 On ch=1 n=g4 v=0
93520 On ch=1 n=a4 v=90
93600 On ch=1 n=a4 v=0
93600 On ch=1 n=a#4 v=95
93680 On ch=1 n=a#4 v=0
93680 On ch=1 n=f4 v=90
93760 On ch=1 n=f4 v=0
93760 On ch=1 n=d5 v=90
93840 On ch=1 n=d5 v=0
93840 On ch=1 n=f5 v=95
93920 On ch=1 n=f5 v=0
93920 On ch=1 n=a4 v=90
94000 On ch=1 n=a4 v=0
94000 On ch=1 n=c5 v=90
94080 On ch=1 n=c5 v=0
94080 On ch=1 n=c#5 v=95
94160 On ch=1 n=c#5 v=0
94160 On ch=1 n=g4 v=90
94240 On ch=1 n=g4 v=0
94240 On ch=1 n=e5 v=90
94320 On ch=1 n=e5 v=0
94320 On ch=1 n=g5 v=97
94400 On ch=1 n=g5 v=0
94400 On ch=1 n=a#4 v=92
94480 On ch=1 n=a#4 v=0
94480 On ch=1 n=d5 v=92
94560 On ch=1 n=d5 v=0
94560 On ch=1 n=d#5 v=99
94640 On ch=1 n=d#5 v=0
94640 On ch=1 n=a4 v=93
94720 On ch=1 n=a4 v=0
94720 On ch=1 n=a5 v=93
94800 On ch=1 n=a5 v=0
94800 On ch=1 n=c6 v=100
94880 On ch=1 n=c6 v=0
94880 On ch=1 n=c5 v=95
94960 On ch=1 n=c5 v=0
94960 On ch=1 n=d5 v=95
95040 On ch=1 n=d5 v=0
95040 On ch=1 n=d#5 v=102
95120 On ch=1 n=d#5 v=0
95120 On ch=1 n=a#4 v=97
95200 On ch=1 n=a#4 v=0
95200 On ch=1 n=g5 v=97
95280 On ch=1 n=g5 v=0
95280 On ch=1 n=a#5 v=104
95360 On ch=1 n=a#5 v=0
95360 On ch=1 n=d5 v=99
95440 On ch=1 n=d5 v=0
95440 On ch=1 n=e5 v=99
95520 On ch=1 n=e5 v=0
95520 On ch=1 n=f5 v=106
95600 On ch=1 n=f5 v=0
95600 On ch=1 n=b4 v=100
95680 On ch=1 n=b4 v=0
95680 On ch=1 n=b5 v=100
95760 On ch=1 n=b5 v=0
95760 On ch=1 n=d6 v=107
95840 On ch=1 n=d6 v=0
95840 On ch=1 n=f5 v=102
95920 On ch=1 n=f5 v=0
95920 On ch=1 n=g5 v=102
96000 On ch=1 n=g5 v=0
96000 On ch=1 n=g#5 v=108
96080 On ch=1 n=g#5 v=0
96080 On ch=1 n=d5 v=102
96160 On ch=1 n=d5 v=0
96160 On ch=1 n=d6 v=102
96240 On ch=1 n=d6 v=0
96240 On ch=1 n=f6 v=108
96320 On ch=1 n=f6 v=0
96320 On ch=1 n=f5 v=102
96400 On ch=1 n=f5 v=0
96400 On ch=1 n=g5 v=102
96480 On ch=1 n=g5 v=0
96480 On ch=1 n=a5 v=108
96560 On ch=1 n=a5 v=0
96560 On ch=1 n=e5 v=102
96640 On ch=1 n=e5 v=0
96640 On ch=1 n=c#6 v=102
96720 On ch=1 n=c#6 v=0
96720 On ch=1 n=e6 v=108
96800 On ch=1 n=e6 v=0
96800 On ch=1 n=g5 v=102
96880 On ch=1 n=g5 v=0
96880 On ch=1 n=a5 v=102
96960 On ch=1 n=a5 v=0
96960 On ch=1 n=a#5 v=108
97040 On ch=1 n=a#5 v=0
97040 On ch=1 n=e5 v=102
97120 On ch=1 n=e5 v=0
97120 On ch=1 n=c#6 v=102
97200 On ch=1 n=c#6 v=0
97200 On ch=1 n=e6 v=108
97280 On ch=1 n=e6 v=0
97280 On ch=1 n=g5 v=102
97360 On ch=1 n=g5 v=0
97360 On ch=1 n=a5 v=102
97440 On ch=1 n=a5 v=0
97440 On ch=1 n=a#5 v=108
97520 On ch=1 n=a#5 v=0
97520 On ch=1 n=f5 v=102
97600 On ch=1 n=f5 v=0
97600 On ch=1 n=d6 v=102
97680 On ch=1 n=d6 v=0
97680 On ch=1 n=f6 v=108
97760 On ch=1 n=f6 v=0
97760 On ch=1 n=a5 v=102
97840 On ch=1 n=a5 v=0
97840 On ch=1 n=c6 v=102
97920 On ch=1 n=c6 v=0
97920 On ch=1 n=c#6 v=108
98000 On ch=1 n=c#6 v=0
98000 On ch=1 n=g5 v=102
98080 On ch=1 n=g5 v=0
98080 On ch=1 n=e6 v=102
98160 On ch=1 n=e6 v=0
98160 On ch=1 n=g6 v=110
98240 On ch=1 n=g6 v=0
98240 On ch=1 n=a#5 v=104
98320 On ch=1 n=a#5 v=0
98320 On ch=1 n=d6 v=104
98400 On ch=1 n=d6 v=0
98400 On ch=1 n=d#6 v=112
98480 On ch=1 n=d#6 v=0
98480 On ch=1 n=a5 v=106
98560 On ch=1 n=a5 v=0
98560 On ch=1 n=a6 v=106
98640 On ch=1 n=a6 v=0
98640 On ch=1 n=c7 v=114
98720 On ch=1 n=c7 v=0
98720 On ch=1 n=c6 v=108
98800 On ch=1 n=c6 v=0
98800 On ch=1 n=d6 v=108
98880 On ch=1 n=d6 v=0
98880 On ch=1 n=d#6 v=116
98960 On ch=1 n=d#6 v=0
98960 On ch=1 n=a#5 v=110
99040 On ch=1 n=a#5 v=0
99040 On ch=1 n=g6 v=110
99120 On ch=1 n=g6 v=0
99120 On ch=1 n=a#6 v=118
99200 On ch=1 n=a#6 v=0
99200 On ch=1 n=d6 v=112
99280 On ch=1 n=d6 v=0
99280 On ch=1 n=e6 v=112
99360 On ch=1 n=e6 v=0
99360 On ch=1 n=f6 v=120
99440 On ch=1 n=f6 v=0
99440 On ch=1 n=b5 v=114
99520 On ch=1 n=b5 v=0
99520 On ch=1 n=d7 v=114
99600 On ch=1 n=d7 v=0
99600 On ch=1 n=f7 v=122
99680 On ch=1 n=f7 v=0
99680 On ch=1 n=f6 v=116
99760 On ch=1 n=f6 v=0
99760 On ch=1 n=b6 v=116
99840 On ch=1 n=b6 v=0
99840 On ch=1 n=c#7 v=124
99920 On ch=1 n=c#7 v=0
99920 On ch=1 n=e6 v=118
100000 On ch=1 n=e6 v=0
100000 On ch=1 n=e7 v=118
100080 On ch=1 n=e7 v=0
100080 On ch=1 n=a7 v=126
100160 On ch=1 n=a7 v=0
100160 On ch=1 n=a6 v=120
100240 On ch=1 n=a6 v=0
100240 On ch=1 n=d7 v=120
100320 On ch=1 n=d7 v=0
100320 On ch=1 n=d8 v=127
100400 On ch=1 n=d8 v=0
100640 On ch=1 n=f6 v=114
100720 On ch=1 n=f6 v=0
100720 On ch=1 n=a6 v=114
100800 On ch=1 n=a6 v=0
100800 On ch=1 n=a#6 v=114
100880 On ch=1 n=a#6 v=0
100880 On ch=1 n=f6 v=114
100960 On ch=1 n=f6 v=0
100960 On ch=1 n=d7 v=114
101040 On ch=1 n=d7 v=0
101040 On ch=1 n=f7 v=114
101120 On ch=1 n=f7 v=0
101120 On ch=1 n=f6 v=120
101200 On ch=1 n=f6 v=0
101200 On ch=1 n=a6 v=126
101280 On ch=1 n=a6 v=0
101280 On ch=1 n=a#6 v=126
101360 On ch=1 n=a#6 v=0
101360 On ch=1 n=e6 v=120
101440 On ch=1 n=e6 v=0
101440 On ch=1 n=g#6 v=114
101520 On ch=1 n=g#6 v=0
101520 On ch=1 n=a6 v=114
101600 On ch=1 n=a6 v=0
101600 On ch=1 n=f6 v=114
101680 On ch=1 n=f6 v=0
101680 On ch=1 n=a6 v=114
101760 On ch=1 n=a6 v=0
101760 On ch=1 n=a#6 v=114
101840 On ch=1 n=a#6 v=0
101840 On ch=1 n=f6 v=114
101920 On ch=1 n=f6 v=0
101920 On ch=1 n=d7 v=114
102000 On ch=1 n=d7 v=0
102000 On ch=1 n=f7 v=114
102080 On ch=1 n=f7 v=0
102080 On ch=1 n=f6 v=120
102160 On ch=1 n=f6 v=0
102160 On ch=1 n=a6 v=126
102240 On ch=1 n=a6 v=0
102240 On ch=1 n=a#6 v=126
102320 On ch=1 n=a#6 v=0
102320 On ch=1 n=e6 v=120
102400 On ch=1 n=e6 v=0
102400 On ch=1 n=g#6 v=114
102480 On ch=1 n=g#6 v=0
102480 On ch=1 n=a6 v=114
102560 On ch=1 n=a6 v=0
102560 On ch=1 n=f6 v=114
102640 On ch=1 n=f6 v=0
102640 On ch=1 n=a6 v=114
102720 On ch=1 n=a6 v=0
102720 On ch=1 n=d7 v=114
102800 On ch=1 n=d7 v=0
102800 On ch=1 n=d6 v=114
102880 On ch=1 n=d6 v=0
102880 On ch=1 n=g6 v=114
102960 On ch=1 n=g6 v=0
102960 On ch=1 n=a6 v=114
103040 On ch=1 n=a6 v=0
103040 On ch=1 n=d6 v=114
103120 On ch=1 n=d6 v=0
103120 On ch=1 n=g6 v=114
103200 On ch=1 n=g6 v=0
103200 On ch=1 n=c7 v=114
103280 On ch=1 n=c7 v=0
103280 On ch=1 n=c6 v=114
103360 On ch=1 n=c6 v=0
103360 On ch=1 n=f6 v=114
103440 On ch=1 n=f6 v=0
103440 On ch=1 n=g6 v=114
103520 On ch=1 n=g6 v=0
103520 On ch=1 n=c6 v=114
103600 On ch=1 n=c6 v=0
103600 On ch=1 n=f6 v=114
103680 On ch=1 n=f6 v=0
103680 On ch=1 n=a#6 v=114
103760 On ch=1 n=a#6 v=0
103760 On ch=1 n=a#5 v=114
103840 On ch=1 n=a#5 v=0
103840 On ch=1 n=e6 v=114
103920 On ch=1 n=e6 v=0
103920 On ch=1 n=f6 v=114
104000 On ch=1 n=f6 v=0
104000 On ch=1 n=a#5 v=114
104080 On ch=1 n=a#5 v=0
104080 On ch=1 n=e6 v=114
104160 On ch=1 n=e6 v=0
104160 On ch=1 n=a6 v=114
104240 On ch=1 n=a6 v=0
104240 On ch=1 n=a5 v=114
104320 On ch=1 n=a5 v=0
104320 On ch=1 n=d6 v=114
104400 On ch=1 n=d6 v=0
104400 On ch=1 n=e6 v=114
104480 On ch=1 n=e6 v=0
104480 On ch=1 n=a5 v=114
104560 On ch=1 n=a5 v=0
104560 On ch=1 n=d6 v=114
104640 On ch=1 n=d6 v=0
104640 On ch=1 n=d#6 v=114
104720 On ch=1 n=d#6 v=0
104720 On ch=1 n=a#5 v=114
104800 On ch=1 n=a#5 v=0
104800 On ch=1 n=g6 v=114
104880 On ch=1 n=g6 v=0
104880 On ch=1 n=a#6 v=114
104960 On ch=1 n=a#6 v=0
104960 On ch=1 n=a#5 v=120
105040 On ch=1 n=a#5 v=0
105040 On ch=1 n=d6 v=126
105120 On ch=1 n=d6 v=0
105120 On ch=1 n=g6 v=126
105200 On ch=1 n=g6 v=0
105200 On ch=1 n=a#5 v=120
105280 On ch=1 n=a#5 v=0
105280 On ch=1 n=d6 v=114
105360 On ch=1 n=d6 v=0
105360 On ch=1 n=d#6 v=114
105440 On ch=1 n=d#6 v=0
105440 On ch=1 n=a#5 v=114
105520 On ch=1 n=a#5 v=0
105520 On ch=1 n=d6 v=114
105600 On ch=1 n=d6 v=0
105600 On ch=1 n=d#6 v=114
105680 On ch=1 n=d#6 v=0
105680 On ch=1 n=a#5 v=114
105760 On ch=1 n=a#5 v=0
105760 On ch=1 n=g6 v=114
105840 On ch=1 n=g6 v=0
105840 On ch=1 n=a#6 v=114
105920 On ch=1 n=a#6 v=0
105920 On ch=1 n=a#5 v=120
106000 On ch=1 n=a#5 v=0
106000 On ch=1 n=d6 v=126
106080 On ch=1 n=d6 v=0
106080 On ch=1 n=g6 v=126
106160 On ch=1 n=g6 v=0
106160 On ch=1 n=a#5 v=120
106240 On ch=1 n=a#5 v=0
106240 On ch=1 n=d6 v=114
106320 On ch=1 n=d6 v=0
106320 On ch=1 n=d#6 v=114
106400 On ch=1 n=d#6 v=0
106400 On ch=1 n=a#5 v=114
106480 On ch=1 n=a#5 v=0
106480 On ch=1 n=d#6 v=114
106560 On ch=1 n=d#6 v=0
106560 On ch=1 n=f#6 v=126
106640 On ch=1 n=f#6 v=0
106640 On ch=1 n=f#5 v=114
106720 On ch=1 n=f#5 v=0
106720 On ch=1 n=b5 v=114
106800 On ch=1 n=b5 v=0
106800 On ch=1 n=d#6 v=114
106880 On ch=1 n=d#6 v=0
106880 On ch=1 n=d#5 v=114
106960 On ch=1 n=d#5 v=0
106960 On ch=1 n=f#5 v=114
107040 On ch=1 n=f#5 v=0
107040 On ch=1 n=b5 v=110
107120 On ch=1 n=b5 v=0
107120 On ch=1 n=c#5 v=106
107200 On ch=1 n=c#5 v=0
107200 On ch=1 n=g5 v=102
107280 On ch=1 n=g5 v=0
107280 On ch=1 n=a#5 v=98
107360 On ch=1 n=a#5 v=0
107360 On ch=1 n=c5 v=94
107440 On ch=1 n=c5 v=0
107440 On ch=1 n=d#5 v=90
107520 On ch=1 n=d#5 v=0
107520 On ch=1 n=a5 v=90
107600 On ch=1 n=a5 v=0
107600 On ch=1 n=a#4 v=90
107680 On ch=1 n=a#4 v=0
107680 On ch=1 n=d5 v=90
107760 On ch=1 n=d5 v=0
107760 On ch=1 n=g5 v=94
107840 On ch=1 n=g5 v=0
107840 On ch=1 n=b4 v=94
107920 On ch=1 n=b4 v=0
107920 On ch=1 n=d5 v=94
108000 On ch=1 n=d5 v=0
108000 On ch=1 n=f5 v=98
108080 On ch=1 n=f5 v=0
108080 On ch=1 n=a4 v=98
108160 On ch=1 n=a4 v=0
108160 On ch=1 n=c#5 v=98
108240 On ch=1 n=c#5 v=0
108240 On ch=1 n=e5 v=102
108320 On ch=1 n=e5 v=0
108320 On ch=1 n=g4 v=102
108400 On ch=1 n=g4 v=0
108400 On ch=1 n=a4 v=65
108480 On ch=1 n=a4 v=0
108480 On ch=1 n=a#4 v=73
108560 On ch=1 n=a#4 v=0
108560 On ch=1 n=e4 v=67
108640 On ch=1 n=e4 v=0
108640 On ch=1 n=c#5 v=67
108720 On ch=1 n=c#5 v=0
108720 On ch=1 n=e5 v=75
108800 On ch=1 n=e5 v=0
108800 On ch=1 n=g4 v=69
108880 On ch=1 n=g4 v=0
108880 On ch=1 n=a4 v=69
108960 On ch=1 n=a4 v=0
108960 On ch=1 n=a#4 v=78
109040 On ch=1 n=a#4 v=0
109040 On ch=1 n=f4 v=72
109120 On ch=1 n=f4 v=0
109120 On ch=1 n=d5 v=72
109200 On ch=1 n=d5 v=0
109200 On ch=1 n=f5 v=81
109280 On ch=1 n=f5 v=0
109280 On ch=1 n=a4 v=75
109360 On ch=1 n=a4 v=0
109360 On ch=1 n=c5 v=75
109440 On ch=1 n=c5 v=0
109440 On ch=1 n=c#5 v=86
109520 On ch=1 n=c#5 v=0
109520 On ch=1 n=g4 v=80
109600 On ch=1 n=g4 v=0
109600 On ch=1 n=e5 v=80
109680 On ch=1 n=e5 v=0
109680 On ch=1 n=g5 v=90
109760 On ch=1 n=g5 v=0
109760 On ch=1 n=a#4 v=85
109840 On ch=1 n=a#4 v=0
109840 On ch=1 n=d5 v=85
109920 On ch=1 n=d5 v=0
109920 On ch=1 n=d#5 v=90
110000 On ch=1 n=d#5 v=0
110000 On ch=1 n=a4 v=85
110080 On ch=1 n=a4 v=0
110080 On ch=1 n=a5 v=85
110160 On ch=1 n=a5 v=0
110160 On ch=1 n=c6 v=90
110240 On ch=1 n=c6 v=0
110240 On ch=1 n=c5 v=85
110320 On ch=1 n=c5 v=0
110320 On ch=1 n=d5 v=85
110400 On ch=1 n=d5 v=0
110400 On ch=1 n=d#5 v=100
110480 On ch=1 n=d#5 v=0
110480 On ch=1 n=a#4 v=95
110560 On ch=1 n=a#4 v=0
110560 On ch=1 n=g5 v=95
110640 On ch=1 n=g5 v=0
110640 On ch=1 n=a#5 v=100
110720 On ch=1 n=a#5 v=0
110720 On ch=1 n=d5 v=95
110800 On ch=1 n=d5 v=0
110800 On ch=1 n=e5 v=95
110880 On ch=1 n=e5 v=0
110880 On ch=1 n=f5 v=100
110960 On ch=1 n=f5 v=0
110960 On ch=1 n=b4 v=95
111040 On ch=1 n=b4 v=0
111040 On ch=1 n=b5 v=95
111120 On ch=1 n=b5 v=0
111120 On ch=1 n=d6 v=100
111200 On ch=1 n=d6 v=0
111200 On ch=1 n=f5 v=95
111280 On ch=1 n=f5 v=0
111280 On ch=1 n=g5 v=95
111360 On ch=1 n=g5 v=0
111360 On ch=1 n=g#5 v=111
111440 On ch=1 n=g#5 v=0
111440 On ch=1 n=d5 v=105
111520 On ch=1 n=d5 v=0
111520 On ch=1 n=d6 v=105
111600 On ch=1 n=d6 v=0
111600 On ch=1 n=f6 v=111
111680 On ch=1 n=f6 v=0
111680 On ch=1 n=f5 v=105
111760 On ch=1 n=f5 v=0
111760 On ch=1 n=g5 v=105
111840 On ch=1 n=g5 v=0
111840 On ch=1 n=a5 v=111
111920 On ch=1 n=a5 v=0
111920 On ch=1 n=e5 v=105
112000 On ch=1 n=e5 v=0
112000 On ch=1 n=c#6 v=105
112080 On ch=1 n=c#6 v=0
112080 On ch=1 n=e6 v=111
112160 On ch=1 n=e6 v=0
112160 On ch=1 n=g5 v=105
112240 On ch=1 n=g5 v=0
112240 On ch=1 n=a5 v=105
112320 On ch=1 n=a5 v=0
112320 On ch=1 n=a#5 v=121
112400 On ch=1 n=a#5 v=0
112400 On ch=1 n=e5 v=114
112480 On ch=1 n=e5 v=0
112480 On ch=1 n=c#6 v=114
112560 On ch=1 n=c#6 v=0
112560 On ch=1 n=e6 v=121
112640 On ch=1 n=e6 v=0
112640 On ch=1 n=g5 v=114
112720 On ch=1 n=g5 v=0
112720 On ch=1 n=a5 v=114
112800 On ch=1 n=a5 v=0
112800 On ch=1 n=a#5 v=121
112880 On ch=1 n=a#5 v=0
112880 On ch=1 n=f5 v=114
112960 On ch=1 n=f5 v=0
112960 On ch=1 n=d6 v=114
113040 On ch=1 n=d6 v=0
113040 On ch=1 n=f6 v=121
113120 On ch=1 n=f6 v=0
113120 On ch=1 n=a5 v=114
113200 On ch=1 n=a5 v=0
113200 On ch=1 n=c6 v=114
113280 On ch=1 n=c6 v=0
113280 On ch=1 n=c#6 v=121
113360 On ch=1 n=c#6 v=0
113360 On ch=1 n=g5 v=114
113440 On ch=1 n=g5 v=0
113440 On ch=1 n=e6 v=114
113520 On ch=1 n=e6 v=0
113520 On ch=1 n=g6 v=120
113600 On ch=1 n=g6 v=0
113600 On ch=1 n=a#5 v=114
113680 On ch=1 n=a#5 v=0
113680 On ch=1 n=d6 v=114
113760 On ch=1 n=d6 v=0
113760 On ch=1 n=d#6 v=120
113840 On ch=1 n=d#6 v=0
113840 On ch=1 n=a5 v=114
113920 On ch=1 n=a5 v=0
113920 On ch=1 n=a6 v=114
114000 On ch=1 n=a6 v=0
114000 On ch=1 n=c7 v=120
114080 On ch=1 n=c7 v=0
114080 On ch=1 n=c6 v=114
114160 On ch=1 n=c6 v=0
114160 On ch=1 n=d6 v=114
114240 On ch=1 n=d6 v=0
114240 On ch=1 n=d#6 v=120
114320 On ch=1 n=d#6 v=0
114320 On ch=1 n=a#5 v=114
114400 On ch=1 n=a#5 v=0
114400 On ch=1 n=g6 v=114
114480 On ch=1 n=g6 v=0
114480 On ch=1 n=a#6 v=120
114560 On ch=1 n=a#6 v=0
114560 On ch=1 n=d6 v=114
114640 On ch=1 n=d6 v=0
114640 On ch=1 n=e6 v=114
114720 On ch=1 n=e6 v=0
114720 On ch=1 n=f6 v=120
114800 On ch=1 n=f6 v=0
114800 On ch=1 n=b5 v=114
114880 On ch=1 n=b5 v=0
114880 On ch=1 n=d7 v=114
114960 On ch=1 n=d7 v=0
114960 On ch=1 n=f7 v=120
115040 On ch=1 n=f7 v=0
115040 On ch=1 n=f6 v=114
115120 On ch=1 n=f6 v=0
115120 On ch=1 n=b6 v=114
115200 On ch=1 n=b6 v=0
115200 On ch=1 n=c#7 v=120
115280 On ch=1 n=c#7 v=0
115280 On ch=1 n=e6 v=114
115360 On ch=1 n=e6 v=0
115360 On ch=1 n=e7 v=114
115440 On ch=1 n=e7 v=0
115440 On ch=1 n=a7 v=120
115520 On ch=1 n=a7 v=0
115520 On ch=1 n=a6 v=114
115600 On ch=1 n=a6 v=0
115600 On ch=1 n=d7 v=114
115680 On ch=1 n=d7 v=0
115680 On ch=1 n=d8 v=127
115760 On ch=1 n=d8 v=0
117120 On ch=1 n=a#4 v=65
117120 On ch=1 n=a#5 v=65
117360 On ch=1 n=a#5 v=0
117360 On ch=1 n=a#4 v=0
117360 On ch=1 n=c5 v=65
117360 On ch=1 n=c6 v=65
117600 On ch=1 n=c6 v=0
117600 On ch=1 n=c5 v=0
117600 On ch=1 n=d5 v=73
117600 On ch=1 n=d6 v=73
117840 On ch=1 n=d6 v=0
117840 On ch=1 n=d5 v=0
117840 On ch=1 n=f5 v=81
117840 On ch=1 n=f6 v=81
118080 On ch=1 n=f6 v=0
118080 On ch=1 n=f5 v=0
118080 On ch=1 n=g5 v=89
118080 On ch=1 n=g6 v=89
118320 On ch=1 n=g6 v=0
118320 On ch=1 n=g5 v=0
118320 On ch=1 n=f5 v=81
118320 On ch=1 n=f6 v=81
118560 On ch=1 n=f6 v=0
118560 On ch=1 n=f5 v=0
118560 On ch=1 n=d5 v=73
118560 On ch=1 n=d6 v=73
118800 On ch=1 n=d6 v=0
118800 On ch=1 n=d5 v=0
118800 On ch=1 n=a#4 v=65
118800 On ch=1 n=a#5 v=65
119040 On ch=1 n=a#5 v=0
119040 On ch=1 n=a#4 v=0
119040 On ch=1 n=a4 v=71
119040 On ch=1 n=c5 v=71
119040 On ch=1 n=f5 v=71
120000 On ch=1 n=f5 v=0
120000 On ch=1 n=c5 v=0
120000 On ch=1 n=a4 v=0
120000 On ch=1 n=a#4 v=65
120000 On ch=1 n=a#5 v=65
120240 On ch=1 n=a#5 v=0
120240 On ch=1 n=a#4 v=0
120240 On ch=1 n=c5 v=65
120240 On ch=1 n=c6 v=65
120480 On ch=1 n=c6 v=0
120480 On ch=1 n=c5 v=0
120480 On ch=1 n=d5 v=73
120480 On ch=1 n=d6 v=73
120720 On ch=1 n=d6 v=0
120720 On ch=1 n=d5 v=0
120720 On ch=1 n=f5 v=81
120720 On ch=1 n=f6 v=81
120960 On ch=1 n=f6 v=0
120960 On ch=1 n=f5 v=0
120960 On ch=1 n=g5 v=89
120960 On ch=1 n=g6 v=89
121200 On ch=1 n=g6 v=0
121200 On ch=1 n=g5 v=0
121200 On ch=1 n=f5 v=81
121200 On ch=1 n=f6 v=81
121440 On ch=1 n=f6 v=0
121440 On ch=1 n=f5 v=0
121440 On ch=1 n=d5 v=73
121440 On ch=1 n=d6 v=73
121680 On ch=1 n=d6 v=0
121680 On ch=1 n=d5 v=0
121680 On ch=1 n=a#4 v=65
121680 On ch=1 n=a#5 v=65
121920 On ch=1 n=a#5 v=0
121920 On ch=1 n=a#4 v=0
121920 On ch=1 n=a4 v=71
121920 On ch=1 n=c5 v=71
121920 On ch=1 n=f5 v=71
122880 On ch=1 n=f5 v=0
122880 On ch=1 n=c5 v=0
122880 On ch=1 n=a4 v=0
122880 On ch=1 n=a#4 v=65
122880 On ch=1 n=a#5 v=65
123120 On ch=1 n=a#5 v=0
123120 On ch=1 n=a#4 v=0
123120 On ch=1 n=c5 v=65
123120 On ch=1 n=c6 v=65
123360 On ch=1 n=c6 v=0
123360 On ch=1 n=c5 v=0
123360 On ch=1 n=d5 v=70
123360 On ch=1 n=d6 v=70
123600 On ch=1 n=d5 v=0
123600 On ch=1 n=f5 v=70
123840 On ch=1 n=f5 v=0
123840 On ch=1 n=g5 v=75
124080 On ch=1 n=g5 v=0
124080 On ch=1 n=f5 v=75
124320 On ch=1 n=f5 v=0
124320 On ch=1 n=d5 v=80
124560 On ch=1 n=d5 v=0
124560 On ch=1 n=a#4 v=80
124680 On ch=1 n=d6 v=0
124680 On ch=1 n=a#5 v=80
124800 On ch=1 n=a#5 v=0
124800 On ch=1 n=a#4 v=0
124800 On ch=1 n=f6 v=84
124800 On ch=1 n=f5 v=84
125040 On ch=1 n=f5 v=0
125040 On ch=1 n=a5 v=84
125280 On ch=1 n=a5 v=0
125280 On ch=1 n=a#5 v=84
125520 On ch=1 n=a#5 v=0
125520 On ch=1 n=a5 v=84
125640 On ch=1 n=f6 v=0
125640 On ch=1 n=e6 v=84
125760 On ch=1 n=e6 v=0
125760 On ch=1 n=a5 v=0
125760 On ch=1 n=d6 v=84
125760 On ch=1 n=f5 v=84
126000 On ch=1 n=f5 v=0
126000 On ch=1 n=c5 v=84
126120 On ch=1 n=d6 v=0
126120 On ch=1 n=c6 v=84
126240 On ch=1 n=c6 v=0
126240 On ch=1 n=c5 v=0
126240 On ch=1 n=c6 v=84
126240 On ch=1 n=a#4 v=84
126480 On ch=1 n=a#4 v=0
126480 On ch=1 n=c5 v=84
126720 On ch=1 n=c5 v=0
126720 On ch=1 n=a5 v=84
126960 On ch=1 n=a5 v=0
126960 On ch=1 n=c6 v=0
126960 On ch=1 n=g5 v=84
126960 On ch=1 n=a#5 v=84
127200 On ch=1 n=a#5 v=0
127200 On ch=1 n=g5 v=0
127200 On ch=1 n=e5 v=80
127200 On ch=1 n=a5 v=80
127360 On ch=1 n=e5 v=0
127360 On ch=1 n=c5 v=75
127440 On ch=1 n=a5 v=0
127440 On ch=1 n=g5 v=72
127520 On ch=1 n=c5 v=0
127520 On ch=1 n=a#4 v=70
127680 On ch=1 n=a#4 v=0
127680 On ch=1 n=g5 v=0
127680 On ch=1 n=f5 v=65
127680 On ch=1 n=g#4 v=65
127840 On ch=1 n=g#4 v=0
127840 On ch=1 n=a4 v=65
128000 On ch=1 n=a4 v=0
128000 On ch=1 n=a#4 v=65
128160 On ch=1 n=a#4 v=0
128160 On ch=1 n=a4 v=65
128640 On ch=1 n=a4 v=0
128640 On ch=1 n=f5 v=0
128640 On ch=1 n=a#4 v=65
128640 On ch=1 n=a#5 v=65
128880 On ch=1 n=a#5 v=0
128880 On ch=1 n=a#4 v=0
128880 On ch=1 n=c5 v=65
128880 On ch=1 n=c6 v=65
129120 On ch=1 n=c6 v=0
129120 On ch=1 n=c5 v=0
129120 On ch=1 n=d5 v=73
129120 On ch=1 n=d6 v=73
129360 On ch=1 n=d6 v=0
129360 On ch=1 n=d5 v=0
129360 On ch=1 n=f5 v=81
129360 On ch=1 n=f6 v=81
129600 On ch=1 n=f6 v=0
129600 On ch=1 n=f5 v=0
129600 On ch=1 n=g5 v=89
129600 On ch=1 n=g6 v=89
129840 On ch=1 n=g6 v=0
129840 On ch=1 n=g5 v=0
129840 On ch=1 n=f5 v=81
129840 On ch=1 n=f6 v=81
130080 On ch=1 n=f6 v=0
130080 On ch=1 n=f5 v=0
130080 On ch=1 n=d5 v=73
130080 On ch=1 n=d6 v=73
130320 On ch=1 n=d6 v=0
130320 On ch=1 n=d5 v=0
130320 On ch=1 n=a#4 v=65
130320 On ch=1 n=a#5 v=65
130560 On ch=1 n=a#5 v=0
130560 On ch=1 n=a#4 v=0
130560 On ch=1 n=a4 v=71
130560 On ch=1 n=c5 v=71
130560 On ch=1 n=f5 v=71
131520 On ch=1 n=f5 v=0
131520 On ch=1 n=c5 v=0
131520 On ch=1 n=a4 v=0
131520 On ch=1 n=a#4 v=65
131520 On ch=1 n=a#5 v=65
131760 On ch=1 n=a#5 v=0
131760 On ch=1 n=a#4 v=0
131760 On ch=1 n=c5 v=65
131760 On ch=1 n=c6 v=65
132000 On ch=1 n=c6 v=0
132000 On ch=1 n=c5 v=0
132000 On ch=1 n=d5 v=73
132000 On ch=1 n=d6 v=73
132240 On ch=1 n=d6 v=0
132240 On ch=1 n=d5 v=0
132240 On ch=1 n=f5 v=81
132240 On ch=1 n=f6 v=81
132480 On ch=1 n=f6 v=0
132480 On ch=1 n=f5 v=0
132480 On ch=1 n=g5 v=89
132480 On ch=1 n=g6 v=89
132720 On ch=1 n=g6 v=0
132720 On ch=1 n=g5 v=0
132720 On ch=1 n=f5 v=81
132720 On ch=1 n=f6 v=81
132960 On ch=1 n=f6 v=0
132960 On ch=1 n=f5 v=0
132960 On ch=1 n=d5 v=73
132960 On ch=1 n=d6 v=73
133200 On ch=1 n=d6 v=0
133200 On ch=1 n=d5 v=0
133200 On ch=1 n=a#4 v=65
133200 On ch=1 n=a#5 v=65
133440 On ch=1 n=a#5 v=0
133440 On ch=1 n=a#4 v=0
133440 On ch=1 n=a4 v=71
133440 On ch=1 n=c5 v=71
133440 On ch=1 n=f5 v=71
134400 On ch=1 n=f5 v=0
134400 On ch=1 n=c5 v=0
134400 On ch=1 n=a4 v=0
134400 On ch=1 n=a#4 v=65
134400 On ch=1 n=a#5 v=65
134640 On ch=1 n=a#5 v=0
134640 On ch=1 n=a#4 v=0
134640 On ch=1 n=c5 v=65
134640 On ch=1 n=c6 v=65
134880 On ch=1 n=c6 v=0
134880 On ch=1 n=c5 v=0
134880 On ch=1 n=d5 v=70
134880 On ch=1 n=d6 v=70
135120 On ch=1 n=d5 v=0
135120 On ch=1 n=f5 v=70
135360 On ch=1 n=f5 v=0
135360 On ch=1 n=g5 v=75
135600 On ch=1 n=g5 v=0
135600 On ch=1 n=f5 v=75
135840 On ch=1 n=f5 v=0
135840 On ch=1 n=d5 v=80
136080 On ch=1 n=d5 v=0
136080 On ch=1 n=a#4 v=80
136200 On ch=1 n=d6 v=0
136200 On ch=1 n=a#5 v=80
136320 On ch=1 n=a#5 v=0
136320 On ch=1 n=a#4 v=0
136320 On ch=1 n=f6 v=84
136320 On ch=1 n=f5 v=84
136560 On ch=1 n=f5 v=0
136560 On ch=1 n=a5 v=84
136800 On ch=1 n=a5 v=0
136800 On ch=1 n=a#5 v=84
137040 On ch=1 n=a#5 v=0
137040 On ch=1 n=a5 v=84
137160 On ch=1 n=f6 v=0
137160 On ch=1 n=e6 v=84
137280 On ch=1 n=e6 v=0
137280 On ch=1 n=a5 v=0
137280 On ch=1 n=d6 v=84
137280 On ch=1 n=f5 v=84
137520 On ch=1 n=f5 v=0
137520 On ch=1 n=c5 v=84
137640 On ch=1 n=d6 v=0
137640 On ch=1 n=c6 v=84
137760 On ch=1 n=c6 v=0
137760 On ch=1 n=c5 v=0
137760 On ch=1 n=c6 v=84
137760 On ch=1 n=a#4 v=84
138000 On ch=1 n=a#4 v=0
138000 On ch=1 n=c5 v=84
138240 On ch=1 n=c5 v=0
138240 On ch=1 n=a5 v=84
138480 On ch=1 n=a5 v=0
138480 On ch=1 n=c6 v=0
138480 On ch=1 n=g5 v=84
138480 On ch=1 n=a#5 v=84
138720 On ch=1 n=a#5 v=0
138720 On ch=1 n=g5 v=0
138720 On ch=1 n=e5 v=80
138720 On ch=1 n=a5 v=80
138880 On ch=1 n=e5 v=0
138880 On ch=1 n=c5 v=75
138960 On ch=1 n=a5 v=0
138960 On ch=1 n=g5 v=72
139040 On ch=1 n=c5 v=0
139040 On ch=1 n=a#4 v=70
139200 On ch=1 n=a#4 v=0
139200 On ch=1 n=g5 v=0
139200 On ch=1 n=f5 v=65
139200 On ch=1 n=g#4 v=65
139360 On ch=1 n=g#4 v=0
139360 On ch=1 n=a4 v=65
139520 On ch=1 n=a4 v=0
139520 On ch=1 n=a#4 v=65
139680 On ch=1 n=a#4 v=0
139680 On ch=1 n=a4 v=65
140160 On ch=1 n=a4 v=0
140160 On ch=1 n=f5 v=0
140640 On ch=1 n=a#5 v=65
140640 On ch=1 n=g#4 v=65
140880 On ch=1 n=g#4 v=0
140880 On ch=1 n=a#4 v=65
141120 On ch=1 n=a#4 v=0
141120 On ch=1 n=g5 v=65
141360 On ch=1 n=g5 v=0
141360 On ch=1 n=f5 v=65
141600 On ch=1 n=f5 v=0
141600 On ch=1 n=c5 v=65
141840 On ch=1 n=c5 v=0
141840 On ch=1 n=a#4 v=65
142080 On ch=1 n=a#4 v=0
142080 On ch=1 n=a#5 v=0
142080 On ch=1 n=a#5 v=65
142080 On ch=1 n=g#4 v=65
142320 On ch=1 n=g#4 v=0
142320 On ch=1 n=a#4 v=65
142560 On ch=1 n=a#4 v=0
142560 On ch=1 n=f5 v=65
142800 On ch=1 n=f5 v=0
142800 On ch=1 n=d#5 v=65
143040 On ch=1 n=d#5 v=0
143040 On ch=1 n=c5 v=65
143280 On ch=1 n=c5 v=0
143280 On ch=1 n=a#4 v=65
143520 On ch=1 n=a#4 v=0
143520 On ch=1 n=a#5 v=0
143520 On ch=1 n=g#4 v=65
143520 On ch=1 n=a#5 v=65
143760 On ch=1 n=g#4 v=0
143760 On ch=1 n=e5 v=65
144000 On ch=1 n=e5 v=0
144000 On ch=1 n=a#5 v=0
144000 On ch=1 n=g#4 v=71
144000 On ch=1 n=a#5 v=71
144240 On ch=1 n=g#4 v=0
144240 On ch=1 n=f5 v=71
144480 On ch=1 n=f5 v=0
144480 On ch=1 n=a#5 v=0
144480 On ch=1 n=g#4 v=78
144480 On ch=1 n=a#5 v=78
144720 On ch=1 n=g#4 v=0
144720 On ch=1 n=f#5 v=78
144960 On ch=1 n=f#5 v=0
144960 On ch=1 n=g#4 v=78
145200 On ch=1 n=g#4 v=0
145200 On ch=1 n=g#5 v=78
145440 On ch=1 n=g#5 v=0
145440 On ch=1 n=g4 v=78
145680 On ch=1 n=g4 v=0
145680 On ch=1 n=g5 v=78
145920 On ch=1 n=g5 v=0
145920 On ch=1 n=a#5 v=0
145920 On ch=1 n=d#6 v=102
145920 On ch=1 n=d#5 v=102
146160 On ch=1 n=d#5 v=0
146160 On ch=1 n=d#6 v=0
146160 On ch=1 n=f5 v=102
146160 On ch=1 n=f6 v=102
146400 On ch=1 n=f6 v=0
146400 On ch=1 n=f5 v=0
146400 On ch=1 n=g6 v=102
146400 On ch=1 n=g5 v=102
146640 On ch=1 n=g5 v=0
146640 On ch=1 n=d#6 v=102
146880 On ch=1 n=d#6 v=0
146880 On ch=1 n=f6 v=102
147120 On ch=1 n=f6 v=0
147120 On ch=1 n=d#6 v=102
147360 On ch=1 n=d#6 v=0
147360 On ch=1 n=g6 v=0
147360 On ch=1 n=c6 v=102
147388 On ch=1 n=f6 v=102
147600 On ch=1 n=f6 v=0
147600 On ch=1 n=c6 v=0
147600 On ch=1 n=d#6 v=102
147600 On ch=1 n=g5 v=102
147840 On ch=1 n=g5 v=0
147840 On ch=1 n=d#6 v=0
147840 On ch=1 n=d5 v=102
147840 On ch=1 n=d6 v=102
148080 On ch=1 n=d5 v=0
148080 On ch=1 n=a#5 v=93
148320 On ch=1 n=a#5 v=0
148320 On ch=1 n=c6 v=84
148560 On ch=1 n=c6 v=0
148560 On ch=1 n=a#5 v=75
148800 On ch=1 n=a#5 v=0
148800 On ch=1 n=d6 v=0
148800 On ch=1 n=g5 v=65
148828 On ch=1 n=a#5 v=102
149040 On ch=1 n=g5 v=0
149040 On ch=1 n=d5 v=65
149280 On ch=1 n=d5 v=0
149280 On ch=1 n=a#5 v=0
149280 On ch=1 n=g6 v=65
149280 On ch=1 n=g5 v=65
149520 On ch=1 n=g5 v=0
149520 On ch=1 n=d#6 v=65
149760 On ch=1 n=d#6 v=0
149760 On ch=1 n=f6 v=65
150000 On ch=1 n=f6 v=0
150000 On ch=1 n=g6 v=0
150000 On ch=1 n=g6 v=65
150000 On ch=1 n=d#6 v=65
150240 On ch=1 n=d#6 v=0
150240 On ch=1 n=g6 v=0
150240 On ch=1 n=c6 v=65
150268 On ch=1 n=f6 v=65
150480 On ch=1 n=c6 v=0
150480 On ch=1 n=g5 v=65
150600 On ch=1 n=f6 v=0
150600 On ch=1 n=d#6 v=65
150720 On ch=1 n=d#6 v=0
150720 On ch=1 n=g5 v=0
150720 On ch=1 n=d5 v=65
150720 On ch=1 n=d6 v=65
150960 On ch=1 n=d5 v=0
150960 On ch=1 n=a#5 v=65
151200 On ch=1 n=a#5 v=0
151200 On ch=1 n=c6 v=65
151440 On ch=1 n=c6 v=0
151440 On ch=1 n=a#5 v=65
151680 On ch=1 n=a#5 v=0
151680 On ch=1 n=d6 v=0
151680 On ch=1 n=g5 v=65
151680 On ch=1 n=d5 v=65
151920 On ch=1 n=d5 v=0
151920 On ch=1 n=g5 v=0
151920 On ch=1 n=a5 v=70
151920 On ch=1 n=c5 v=70
152160 On ch=1 n=c5 v=0
152160 On ch=1 n=a5 v=0
152160 On ch=1 n=a#4 v=75
152160 On ch=1 n=a#5 v=75
152400 On ch=1 n=a#5 v=0
152400 On ch=1 n=a#4 v=0
152400 On ch=1 n=a5 v=75
152400 On ch=1 n=c6 v=75
152640 On ch=1 n=c6 v=0
152640 On ch=1 n=a5 v=0
152640 On ch=1 n=g5 v=80
152640 On ch=1 n=d6 v=80
152880 On ch=1 n=d6 v=0
152880 On ch=1 n=g5 v=0
152880 On ch=1 n=f5 v=80
152880 On ch=1 n=e6 v=80
153120 On ch=1 n=e6 v=0
153120 On ch=1 n=f5 v=0
153120 On ch=1 n=e5 v=85
153120 On ch=1 n=f6 v=85
153360 On ch=1 n=f6 v=0
153360 On ch=1 n=e5 v=0
153360 On ch=1 n=d6 v=85
153360 On ch=1 n=g6 v=85
153600 On ch=1 n=g6 v=0
153600 On ch=1 n=d6 v=0
153600 On ch=1 n=c6 v=90
153600 On ch=1 n=a6 v=90
153840 On ch=1 n=a6 v=0
153840 On ch=1 n=c6 v=0
153840 On ch=1 n=e6 v=90
153840 On ch=1 n=g6 v=90
154080 On ch=1 n=g6 v=0
154080 On ch=1 n=e6 v=0
154080 On ch=1 n=a5 v=90
154080 On ch=1 n=f6 v=90
154320 On ch=1 n=f6 v=0
154320 On ch=1 n=a5 v=0
154320 On ch=1 n=c6 v=90
154320 On ch=1 n=e6 v=90
154560 On ch=1 n=e6 v=0
154560 On ch=1 n=c6 v=0
154560 On ch=1 n=g5 v=90
154560 On ch=1 n=d6 v=90
154800 On ch=1 n=d6 v=0
154800 On ch=1 n=g5 v=0
154800 On ch=1 n=a5 v=90
154800 On ch=1 n=c6 v=90
155040 On ch=1 n=c6 v=0
155040 On ch=1 n=a5 v=0
155040 On ch=1 n=e5 v=90
155040 On ch=1 n=a#5 v=90
155280 On ch=1 n=a#5 v=0
155280 On ch=1 n=e5 v=0
155280 On ch=1 n=f5 v=90
155280 On ch=1 n=a5 v=90
155520 On ch=1 n=a5 v=0
155520 On ch=1 n=f5 v=0
155520 On ch=1 n=c#5 v=85
155520 On ch=1 n=g5 v=85
155760 On ch=1 n=g5 v=0
155760 On ch=1 n=c#5 v=0
155760 On ch=1 n=d5 v=85
155760 On ch=1 n=f5 v=85
156000 On ch=1 n=f5 v=0
156000 On ch=1 n=d5 v=0
156000 On ch=1 n=d#5 v=80
156000 On ch=1 n=a5 v=80
156240 On ch=1 n=a5 v=0
156240 On ch=1 n=d#5 v=0
156240 On ch=1 n=e5 v=80
156240 On ch=1 n=g5 v=80
156480 On ch=1 n=g5 v=0
156480 On ch=1 n=e5 v=0
156480 On ch=1 n=c5 v=75
156480 On ch=1 n=f5 v=75
156720 On ch=1 n=f5 v=0
156720 On ch=1 n=c5 v=0
156720 On ch=1 n=d#5 v=75
156720 On ch=1 n=f#5 v=75
156960 On ch=1 n=f#5 v=0
156960 On ch=1 n=d#5 v=0
156960 On ch=1 n=c5 v=70
156960 On ch=1 n=g5 v=70
157080 On ch=1 n=g5 v=0
157080 On ch=1 n=c5 v=0
157080 On ch=1 n=d#5 v=70
157080 On ch=1 n=g#5 v=70
157200 On ch=1 n=g#5 v=0
157200 On ch=1 n=d#5 v=0
157200 On ch=1 n=d5 v=70
157200 On ch=1 n=a5 v=70
157320 On ch=1 n=a5 v=0
157320 On ch=1 n=d5 v=0
157320 On ch=1 n=f5 v=70
157320 On ch=1 n=c5 v=70
157920 On ch=1 n=c5 v=0
157920 On ch=1 n=f5 v=0
157920 On ch=1 n=a#5 v=65
157920 On ch=1 n=a#4 v=65
158160 On ch=1 n=a#4 v=0
158160 On ch=1 n=a#5 v=0
158160 On ch=1 n=c5 v=65
158160 On ch=1 n=c6 v=65
158400 On ch=1 n=c6 v=0
158400 On ch=1 n=c5 v=0
158400 On ch=1 n=d5 v=73
158400 On ch=1 n=d6 v=73
158640 On ch=1 n=d6 v=0
158640 On ch=1 n=d5 v=0
158640 On ch=1 n=f5 v=81
158640 On ch=1 n=f6 v=81
158880 On ch=1 n=f6 v=0
158880 On ch=1 n=f5 v=0
158880 On ch=1 n=g5 v=89
158880 On ch=1 n=g6 v=89
159120 On ch=1 n=g6 v=0
159120 On ch=1 n=g5 v=0
159120 On ch=1 n=f5 v=81
159120 On ch=1 n=f6 v=81
159360 On ch=1 n=f6 v=0
159360 On ch=1 n=f5 v=0
159360 On ch=1 n=d5 v=73
159360 On ch=1 n=d6 v=73
159600 On ch=1 n=d6 v=0
159600 On ch=1 n=d5 v=0
159600 On ch=1 n=a#4 v=65
159600 On ch=1 n=a#5 v=65
159840 On ch=1 n=a#5 v=0
159840 On ch=1 n=a#4 v=0
159840 On ch=1 n=a4 v=71
159840 On ch=1 n=c5 v=71
159840 On ch=1 n=f5 v=71
160800 On ch=1 n=f5 v=0
160800 On ch=1 n=c5 v=0
160800 On ch=1 n=a4 v=0
160800 On ch=1 n=a#4 v=65
160800 On ch=1 n=a#5 v=65
161040 On ch=1 n=a#5 v=0
161040 On ch=1 n=a#4 v=0
161040 On ch=1 n=c5 v=65
161040 On ch=1 n=c6 v=65
161280 On ch=1 n=c6 v=0
161280 On ch=1 n=c5 v=0
161280 On ch=1 n=d5 v=73
161280 On ch=1 n=d6 v=73
161520 On ch=1 n=d6 v=0
161520 On ch=1 n=d5 v=0
161520 On ch=1 n=f5 v=81
161520 On ch=1 n=f6 v=81
161760 On ch=1 n=f6 v=0
161760 On ch=1 n=f5 v=0
161760 On ch=1 n=g5 v=89
161760 On ch=1 n=g6 v=89
162000 On ch=1 n=g6 v=0
162000 On ch=1 n=g5 v=0
162000 On ch=1 n=f5 v=81
162000 On ch=1 n=f6 v=81
162240 On ch=1 n=f6 v=0
162240 On ch=1 n=f5 v=0
162240 On ch=1 n=d5 v=73
162240 On ch=1 n=d6 v=73
162480 On ch=1 n=d6 v=0
162480 On ch=1 n=d5 v=0
162480 On ch=1 n=a#4 v=65
162480 On ch=1 n=a#5 v=65
162720 On ch=1 n=a#5 v=0
162720 On ch=1 n=a#4 v=0
162720 On ch=1 n=a4 v=71
162720 On ch=1 n=c5 v=71
162720 On ch=1 n=f5 v=71
163680 On ch=1 n=f5 v=0
163680 On ch=1 n=c5 v=0
163680 On ch=1 n=a4 v=0
163680 On ch=1 n=a#4 v=65
163680 On ch=1 n=a#5 v=65
163920 On ch=1 n=a#5 v=0
163920 On ch=1 n=a#4 v=0
163920 On ch=1 n=c5 v=68
163920 On ch=1 n=c6 v=68
164160 On ch=1 n=c6 v=0
164160 On ch=1 n=c5 v=0
164160 On ch=1 n=d6 v=71
164160 On ch=1 n=d5 v=71
164400 On ch=1 n=d5 v=0
164400 On ch=1 n=d6 v=0
164400 On ch=1 n=d#5 v=74
164400 On ch=1 n=d#6 v=74
164640 On ch=1 n=d#6 v=0
164640 On ch=1 n=d#5 v=0
164640 On ch=1 n=f5 v=77
164640 On ch=1 n=f6 v=77
164880 On ch=1 n=f6 v=0
164880 On ch=1 n=f5 v=0
164880 On ch=1 n=f#6 v=80
164880 On ch=1 n=f#5 v=80
165120 On ch=1 n=f#5 v=0
165120 On ch=1 n=f#6 v=0
165120 On ch=1 n=g5 v=83
165120 On ch=1 n=g6 v=83
165360 On ch=1 n=g6 v=0
165360 On ch=1 n=g5 v=0
165360 On ch=1 n=f5 v=86
165360 On ch=1 n=f6 v=86
165600 On ch=1 n=f6 v=0
165600 On ch=1 n=f5 v=0
165600 On ch=1 n=e5 v=79
165600 On ch=1 n=e6 v=79
165840 On ch=1 n=e6 v=0
165840 On ch=1 n=e5 v=0
165840 On ch=1 n=d5 v=72
165840 On ch=1 n=d6 v=72
166080 On ch=1 n=d6 v=0
166080 On ch=1 n=d5 v=0
166080 On ch=1 n=c5 v=65
166080 On ch=1 n=c6 v=65
166320 On ch=1 n=c6 v=0
166320 On ch=1 n=c5 v=0
166320 On ch=1 n=d6 v=67
166320 On ch=1 n=d5 v=67
166560 On ch=1 n=d5 v=0
166560 On ch=1 n=d6 v=0
166560 On ch=1 n=c5 v=69
166560 On ch=1 n=c6 v=69
166800 On ch=1 n=c6 v=0
166800 On ch=1 n=c5 v=0
166800 On ch=1 n=d6 v=71
166800 On ch=1 n=d5 v=71
167040 On ch=1 n=d5 v=0
167040 On ch=1 n=d6 v=0
167040 On ch=1 n=e5 v=73
167040 On ch=1 n=e6 v=73
167280 On ch=1 n=e6 v=0
167280 On ch=1 n=e5 v=0
167280 On ch=1 n=f6 v=75
167280 On ch=1 n=f5 v=75
167520 On ch=1 n=f5 v=0
167520 On ch=1 n=f6 v=0
167520 On ch=1 n=f#5 v=77
167520 On ch=1 n=f#6 v=77
167760 On ch=1 n=f#6 v=0
167760 On ch=1 n=f#5 v=0
167760 On ch=1 n=g6 v=79
167760 On ch=1 n=g5 v=79
168000 On ch=1 n=g5 v=0
168000 On ch=1 n=g6 v=0
168000 On ch=1 n=a5 v=81
168000 On ch=1 n=a6 v=81
168240 On ch=1 n=a6 v=0
168240 On ch=1 n=a5 v=0
168240 On ch=1 n=g6 v=83
168240 On ch=1 n=g5 v=83
168480 On ch=1 n=g5 v=0
168480 On ch=1 n=g6 v=0
168480 On ch=1 n=f6 v=81
168480 On ch=1 n=f5 v=81
168720 On ch=1 n=f5 v=0
168720 On ch=1 n=f6 v=0
168720 On ch=1 n=d#5 v=77
168720 On ch=1 n=d#6 v=77
168960 On ch=1 n=d#6 v=0
168960 On ch=1 n=d#5 v=0
168960 On ch=1 n=d5 v=73
168960 On ch=1 n=d6 v=73
169200 On ch=1 n=d6 v=0
169200 On ch=1 n=d5 v=0
169200 On ch=1 n=c5 v=69
169200 On ch=1 n=c6 v=69
169440 On ch=1 n=c6 v=0
169440 On ch=1 n=c5 v=0
169440 On ch=1 n=a#4 v=65
169440 On ch=1 n=a#5 v=65
169680 On ch=1 n=a#5 v=0
169680 On ch=1 n=a#4 v=0
169680 On ch=1 n=c6 v=65
169680 On ch=1 n=c5 v=65
169920 On ch=1 n=c5 v=0
169920 On ch=1 n=c6 v=0
169920 On ch=1 n=d6 v=65
169920 On ch=1 n=d5 v=65
170160 On ch=1 n=d5 v=0
170160 On ch=1 n=c6 v=65
170400 On ch=1 n=c6 v=0
170400 On ch=1 n=a#5 v=65
170640 On ch=1 n=a#5 v=0
170640 On ch=1 n=a5 v=65
170880 On ch=1 n=a5 v=0
170880 On ch=1 n=d6 v=0
170880 On ch=1 n=d#6 v=65
170880 On ch=1 n=g5 v=65
171120 On ch=1 n=g5 v=0
171120 On ch=1 n=d#6 v=0
171120 On ch=1 n=f6 v=65
171120 On ch=1 n=f5 v=65
171360 On ch=1 n=f5 v=0
171360 On ch=1 n=f6 v=0
171360 On ch=1 n=d#5 v=65
171388 On ch=1 n=g6 v=65
171600 On ch=1 n=d#5 v=0
171600 On ch=1 n=f5 v=65
171840 On ch=1 n=f5 v=0
171840 On ch=1 n=g5 v=65
172080 On ch=1 n=g5 v=0
172080 On ch=1 n=g6 v=0
172080 On ch=1 n=f6 v=65
172080 On ch=1 n=a5 v=65
172320 On ch=1 n=a5 v=0
172320 On ch=1 n=f6 v=0
172320 On ch=1 n=d#6 v=65
172320 On ch=1 n=a#5 v=65
172560 On ch=1 n=a#5 v=0
172560 On ch=1 n=d#6 v=0
172560 On ch=1 n=b5 v=65
172560 On ch=1 n=d6 v=65
172800 On ch=1 n=d6 v=0
172800 On ch=1 n=b5 v=0
172800 On ch=1 n=c6 v=65
173040 On ch=1 n=a#5 v=65
173160 On ch=1 n=c6 v=0
173200 On ch=1 n=c6 v=65
173240 On ch=1 n=c6 v=0
173240 On ch=1 n=d6 v=65
173280 On ch=1 n=d6 v=0
173280 On ch=1 n=a#5 v=0
173280 On ch=1 n=a5 v=65
173280 On ch=1 n=c6 v=65
173520 On ch=1 n=c6 v=0
173520 On ch=1 n=a5 v=0
173520 On ch=1 n=g5 v=65
173520 On ch=1 n=d6 v=65
173760 On ch=1 n=d6 v=0
173760 On ch=1 n=g5 v=0
173760 On ch=1 n=d#6 v=65
173760 On ch=1 n=f5 v=65
174000 On ch=1 n=f5 v=0
174000 On ch=1 n=d#5 v=65
174240 On ch=1 n=d#5 v=0
174240 On ch=1 n=d#6 v=0
174240 On ch=1 n=d5 v=65
174268 On ch=1 n=f6 v=65
174480 On ch=1 n=d5 v=0
174480 On ch=1 n=d#5 v=65
174720 On ch=1 n=d#5 v=0
174720 On ch=1 n=f5 v=65
174960 On ch=1 n=f5 v=0
174960 On ch=1 n=f6 v=0
174960 On ch=1 n=d#6 v=65
174960 On ch=1 n=g5 v=65
175200 On ch=1 n=g5 v=0
175200 On ch=1 n=d#6 v=0
175200 On ch=1 n=d6 v=65
175200 On ch=1 n=g#5 v=65
175440 On ch=1 n=g#5 v=0
175440 On ch=1 n=d6 v=0
175440 On ch=1 n=c6 v=65
175440 On ch=1 n=a5 v=65
175680 On ch=1 n=a5 v=0
175680 On ch=1 n=c6 v=0
175680 On ch=1 n=a#5 v=65
175920 On ch=1 n=a5 v=65
176080 On ch=1 n=a#5 v=0
176080 On ch=1 n=a#5 v=65
176120 On ch=1 n=a#5 v=0
176120 On ch=1 n=c6 v=65
176160 On ch=1 n=c6 v=0
176160 On ch=1 n=a5 v=0
176160 On ch=1 n=a#5 v=65
176160 On ch=1 n=g5 v=65
176400 On ch=1 n=g5 v=0
176400 On ch=1 n=a#5 v=0
176400 On ch=1 n=c6 v=65
176400 On ch=1 n=f5 v=65
176640 On ch=1 n=f5 v=0
176640 On ch=1 n=c6 v=0
176640 On ch=1 n=d6 v=65
176640 On ch=1 n=d#5 v=65
176880 On ch=1 n=d#5 v=0
176880 On ch=1 n=d5 v=65
177120 On ch=1 n=d5 v=0
177120 On ch=1 n=d6 v=0
177120 On ch=1 n=c5 v=65
177148 On ch=1 n=d#6 v=65
177360 On ch=1 n=d#6 v=0
177360 On ch=1 n=c5 v=0
177360 On ch=1 n=d5 v=65
177360 On ch=1 n=d6 v=65
177600 On ch=1 n=d6 v=0
177600 On ch=1 n=d5 v=0
177600 On ch=1 n=d#5 v=65
177600 On ch=1 n=c6 v=65
177840 On ch=1 n=c6 v=0
177840 On ch=1 n=d#5 v=0
177840 On ch=1 n=e5 v=65
177840 On ch=1 n=a#5 v=65
178080 On ch=1 n=a#5 v=0
178080 On ch=1 n=e5 v=0
178080 On ch=1 n=f5 v=65
178080 On ch=1 n=a5 v=65
178320 On ch=1 n=a5 v=0
178320 On ch=1 n=f5 v=0
178320 On ch=1 n=d#5 v=65
178320 On ch=1 n=g5 v=65
178560 On ch=1 n=g5 v=0
178560 On ch=1 n=d#5 v=0
178560 On ch=1 n=d5 v=65
178560 On ch=1 n=f5 v=65
178800 On ch=1 n=f5 v=0
178800 On ch=1 n=d5 v=0
178800 On ch=1 n=c5 v=65
178800 On ch=1 n=d#5 v=65
179040 On ch=1 n=d#5 v=0
179040 On ch=1 n=c5 v=0
179040 On ch=1 n=d5 v=65
179520 On ch=1 n=d5 v=0
179640 On ch=1 n=d5 v=68
179700 On ch=1 n=d5 v=0
179760 On ch=1 n=d#5 v=72
179820 On ch=1 n=d#5 v=0
179880 On ch=1 n=f5 v=75
179940 On ch=1 n=f5 v=0
180000 On ch=1 n=a#4 v=78
180000 On ch=1 n=f#5 v=78
180960 On ch=1 n=f#5 v=0
180960 On ch=1 n=a#4 v=0
180960 On ch=1 n=a4 v=65
180960 On ch=1 n=f5 v=65
181440 On ch=1 n=f5 v=0
181440 On ch=1 n=a4 v=0
181680 On ch=1 n=f4 v=53
181680 On ch=1 n=a#4 v=53
181680 On ch=1 n=f5 v=53
184320 On ch=1 n=f5 v=0
184320 On ch=1 n=a#4 v=0
184320 On ch=1 n=f4 v=0
185040 On ch=1 n=a5 v=102
185040 On ch=1 n=c6 v=102
185040 On ch=1 n=f6 v=102
185280 On ch=1 n=f6 v=0
185280 On ch=1 n=c6 v=0
185280 On ch=1 n=a5 v=0
185280 On ch=1 n=d6 v=102
185400 On ch=1 n=d6 v=0
185520 On ch=1 n=a#5 v=102
185520 On ch=1 n=d6 v=102
185760 On ch=1 n=d6 v=0
185760 On ch=1 n=c6 v=102
185880 On ch=1 n=c6 v=0
185880 On ch=1 n=a#5 v=0
186000 On ch=1 n=a5 v=102
186000 On ch=1 n=c6 v=102
186240 On ch=1 n=c6 v=0
186240 On ch=1 n=a#5 v=102
186480 On ch=1 n=a#5 v=0
186480 On ch=1 n=a5 v=0
186480 On ch=1 n=e5 v=102
186480 On ch=1 n=g5 v=102
186720 On ch=1 n=g5 v=0
186720 On ch=1 n=e5 v=0
186720 On ch=1 n=c6 v=102
186720 On ch=1 n=d#5 v=102
186840 On ch=1 n=d#5 v=0
186840 On ch=1 n=c6 v=0
186840 On ch=1 n=d#5 v=102
186960 On ch=1 n=d#5 v=0
186960 On ch=1 n=d#6 v=102
186960 On ch=1 n=a#5 v=102
187080 On ch=1 n=a#5 v=0
187080 On ch=1 n=d5 v=102
187200 On ch=1 n=d5 v=0
187200 On ch=1 n=d#6 v=0
187200 On ch=1 n=a#5 v=102
187200 On ch=1 n=d6 v=102
187320 On ch=1 n=d6 v=0
187320 On ch=1 n=a#5 v=0
187320 On ch=1 n=a4 v=102
187440 On ch=1 n=a4 v=0
187440 On ch=1 n=d5 v=102
187440 On ch=1 n=a5 v=102
187560 On ch=1 n=d5 v=0
187560 On ch=1 n=c5 v=102
187680 On ch=1 n=c5 v=0
187680 On ch=1 n=a5 v=0
187680 On ch=1 n=a#4 v=102
187680 On ch=1 n=a#5 v=102
187800 On ch=1 n=a#5 v=0
187800 On ch=1 n=a#4 v=0
187920 On ch=1 n=c5 v=102
187920 On ch=1 n=f5 v=102
187920 On ch=1 n=a5 v=102
188160 On ch=1 n=a5 v=0
188160 On ch=1 n=c5 v=0
188160 On ch=1 n=d5 v=102
188160 On ch=1 n=g5 v=102
188400 On ch=1 n=g5 v=0
188400 On ch=1 n=d5 v=0
188400 On ch=1 n=f5 v=0
188400 On ch=1 n=c5 v=102
188400 On ch=1 n=e5 v=102
188640 On ch=1 n=e5 v=0
188640 On ch=1 n=c5 v=0
188640 On ch=1 n=f5 v=102
188760 On ch=1 n=f5 v=0
188760 On ch=1 n=a5 v=102
188880 On ch=1 n=a5 v=0
188880 On ch=1 n=c6 v=108
188880 On ch=1 n=f6 v=108
189000 On ch=1 n=c6 v=0
189000 On ch=1 n=f5 v=102
189120 On ch=1 n=f5 v=0
189120 On ch=1 n=f6 v=0
189120 On ch=1 n=a#5 v=102
189120 On ch=1 n=d6 v=102
189240 On ch=1 n=d6 v=0
189240 On ch=1 n=a#5 v=0
189360 On ch=1 n=a#5 v=102
189360 On ch=1 n=d6 v=102
189600 On ch=1 n=d6 v=0
189600 On ch=1 n=c6 v=102
189720 On ch=1 n=c6 v=0
189720 On ch=1 n=a#5 v=0
189840 On ch=1 n=a5 v=102
189840 On ch=1 n=c6 v=102
190080 On ch=1 n=c6 v=0
190080 On ch=1 n=a#5 v=102
190320 On ch=1 n=a#5 v=0
190320 On ch=1 n=a5 v=0
190320 On ch=1 n=e5 v=102
190320 On ch=1 n=g5 v=102
190560 On ch=1 n=g5 v=0
190560 On ch=1 n=e5 v=0
190560 On ch=1 n=c6 v=102
190560 On ch=1 n=d#5 v=102
190680 On ch=1 n=d#5 v=0
190680 On ch=1 n=c6 v=0
190680 On ch=1 n=d#5 v=102
190800 On ch=1 n=d#5 v=0
190800 On ch=1 n=d#6 v=102
190800 On ch=1 n=a#5 v=102
190920 On ch=1 n=a#5 v=0
190920 On ch=1 n=d5 v=102
191040 On ch=1 n=d5 v=0
191040 On ch=1 n=d#6 v=0
191040 On ch=1 n=a#5 v=102
191040 On ch=1 n=d6 v=102
191160 On ch=1 n=d6 v=0
191160 On ch=1 n=a#5 v=0
191160 On ch=1 n=a4 v=102
191280 On ch=1 n=a4 v=0
191280 On ch=1 n=d5 v=102
191280 On ch=1 n=a5 v=102
191400 On ch=1 n=d5 v=0
191400 On ch=1 n=c5 v=102
191520 On ch=1 n=c5 v=0
191520 On ch=1 n=a5 v=0
191520 On ch=1 n=a#4 v=102
191520 On ch=1 n=a#5 v=102
191640 On ch=1 n=a#5 v=0
191640 On ch=1 n=a#4 v=0
191760 On ch=1 n=c5 v=102
191760 On ch=1 n=f5 v=102
191760 On ch=1 n=a5 v=102
192000 On ch=1 n=a5 v=0
192000 On ch=1 n=c5 v=0
192000 On ch=1 n=d5 v=102
192000 On ch=1 n=g5 v=102
192240 On ch=1 n=g5 v=0
192240 On ch=1 n=d5 v=0
192240 On ch=1 n=f5 v=0
192240 On ch=1 n=c5 v=102
192240 On ch=1 n=e5 v=102
192480 On ch=1 n=e5 v=0
192480 On ch=1 n=f5 v=102
192600 On ch=1 n=f5 v=0
192600 On ch=1 n=a4 v=65
192720 On ch=1 n=a4 v=0
192720 On ch=1 n=c5 v=0
192720 On ch=1 n=f5 v=65
192720 On ch=1 n=c5 v=65
192840 On ch=1 n=c5 v=0
192840 On ch=1 n=f5 v=0
192840 On ch=1 n=f4 v=65
192960 On ch=1 n=f4 v=0
192960 On ch=1 n=a4 v=65
192960 On ch=1 n=c5 v=65
193080 On ch=1 n=a4 v=0
193080 On ch=1 n=c4 v=65
193200 On ch=1 n=c4 v=0
193200 On ch=1 n=c5 v=0
193200 On ch=1 n=a#4 v=65
193200 On ch=1 n=d5 v=65
193320 On ch=1 n=a#4 v=0
193320 On ch=1 n=g#4 v=65
193440 On ch=1 n=g#4 v=0
193440 On ch=1 n=d5 v=0
193440 On ch=1 n=a#4 v=65
193440 On ch=1 n=d#5 v=65
193560 On ch=1 n=a#4 v=0
193560 On ch=1 n=f#4 v=65
193680 On ch=1 n=f#4 v=0
193680 On ch=1 n=d#5 v=0
193680 On ch=1 n=a#4 v=65
193680 On ch=1 n=d#5 v=71
193800 On ch=1 n=a#4 v=0
193800 On ch=1 n=d#4 v=65
193920 On ch=1 n=d#4 v=0
193920 On ch=1 n=d#5 v=0
193920 On ch=1 n=a#4 v=65
193920 On ch=1 n=f#4 v=65
194040 On ch=1 n=f#4 v=0
194040 On ch=1 n=a#3 v=65
194160 On ch=1 n=a#3 v=0
194160 On ch=1 n=a#4 v=0
194160 On ch=1 n=c5 v=65
194160 On ch=1 n=f4 v=65
194280 On ch=1 n=f4 v=0
194280 On ch=1 n=d#4 v=65
194400 On ch=1 n=d#4 v=0
194400 On ch=1 n=c5 v=0
194400 On ch=1 n=c#5 v=65
194400 On ch=1 n=c#4 v=65
194520 On ch=1 n=c#4 v=0
194520 On ch=1 n=g#4 v=65
194640 On ch=1 n=g#4 v=0
194640 On ch=1 n=c#5 v=0
194640 On ch=1 n=d#5 v=71
194640 On ch=1 n=a#4 v=65
194760 On ch=1 n=a#4 v=0
194760 On ch=1 n=d#4 v=65
194880 On ch=1 n=d#4 v=0
194880 On ch=1 n=d#5 v=0
194880 On ch=1 n=f#4 v=65
194880 On ch=1 n=a#4 v=65
195000 On ch=1 n=f#4 v=0
195000 On ch=1 n=a#3 v=65
195120 On ch=1 n=a#3 v=0
195120 On ch=1 n=a#4 v=0
195120 On ch=1 n=f4 v=65
195120 On ch=1 n=c5 v=65
195240 On ch=1 n=f4 v=0
195240 On ch=1 n=d#4 v=65
195360 On ch=1 n=d#4 v=0
195360 On ch=1 n=c5 v=0
195360 On ch=1 n=c#4 v=65
195360 On ch=1 n=c#5 v=65
195480 On ch=1 n=c#5 v=0
195480 On ch=1 n=c#4 v=0
195480 On ch=1 n=a#3 v=65
195600 On ch=1 n=a#3 v=0
195600 On ch=1 n=a#4 v=65
195720 On ch=1 n=a#4 v=0
195720 On ch=1 n=d#4 v=65
195840 On ch=1 n=d#4 v=0
195840 On ch=1 n=d#5 v=65
195960 On ch=1 n=d#5 v=0
195960 On ch=1 n=c4 v=65
196080 On ch=1 n=c4 v=0
196080 On ch=1 n=c5 v=65
196200 On ch=1 n=c5 v=0
196200 On ch=1 n=f4 v=65
196320 On ch=1 n=f4 v=0
196320 On ch=1 n=f5 v=68
196440 On ch=1 n=f5 v=0
196440 On ch=1 n=d4 v=72
196560 On ch=1 n=d4 v=0
196560 On ch=1 n=d5 v=75
196680 On ch=1 n=d5 v=0
196680 On ch=1 n=g4 v=79
196800 On ch=1 n=g4 v=0
196800 On ch=1 n=g5 v=82
196920 On ch=1 n=g5 v=0
196920 On ch=1 n=c5 v=86
197040 On ch=1 n=c5 v=0
197040 On ch=1 n=c6 v=89
197160 On ch=1 n=c6 v=0
197160 On ch=1 n=f5 v=93
197280 On ch=1 n=f5 v=0
197280 On ch=1 n=f6 v=96
197400 On ch=1 n=f6 v=0
197400 On ch=1 n=a5 v=102
197460 On ch=1 n=a5 v=0
197520 On ch=1 n=f6 v=102
197520 On ch=1 n=c6 v=102
197580 On ch=1 n=c6 v=0
197640 On ch=1 n=f5 v=102
197700 On ch=1 n=f5 v=0
197760 On ch=1 n=a#5 v=102
197760 On ch=1 n=d6 v=102
197880 On ch=1 n=d6 v=0
197880 On ch=1 n=a#5 v=0
197880 On ch=1 n=f6 v=0
198000 On ch=1 n=a#5 v=102
198000 On ch=1 n=d6 v=102
198240 On ch=1 n=d6 v=0
198240 On ch=1 n=c6 v=102
198360 On ch=1 n=c6 v=0
198360 On ch=1 n=a#5 v=0
198480 On ch=1 n=a5 v=102
198480 On ch=1 n=c6 v=102
198720 On ch=1 n=c6 v=0
198720 On ch=1 n=a#5 v=102
198960 On ch=1 n=a#5 v=0
198960 On ch=1 n=a5 v=0
198960 On ch=1 n=e5 v=102
198960 On ch=1 n=g5 v=102
199200 On ch=1 n=g5 v=0
199200 On ch=1 n=e5 v=0
199200 On ch=1 n=c6 v=102
199200 On ch=1 n=d#5 v=102
199320 On ch=1 n=d#5 v=0
199320 On ch=1 n=c6 v=0
199320 On ch=1 n=d#5 v=102
199440 On ch=1 n=d#5 v=0
199440 On ch=1 n=d#6 v=102
199440 On ch=1 n=a#5 v=102
199560 On ch=1 n=a#5 v=0
199560 On ch=1 n=d5 v=102
199680 On ch=1 n=d5 v=0
199680 On ch=1 n=d#6 v=0
199680 On ch=1 n=a#5 v=102
199680 On ch=1 n=d6 v=102
199800 On ch=1 n=d6 v=0
199800 On ch=1 n=a#5 v=0
199800 On ch=1 n=a4 v=102
199920 On ch=1 n=a4 v=0
199920 On ch=1 n=d5 v=102
199920 On ch=1 n=a5 v=102
200040 On ch=1 n=d5 v=0
200040 On ch=1 n=c5 v=102
200160 On ch=1 n=c5 v=0
200160 On ch=1 n=a5 v=0
200160 On ch=1 n=a#4 v=102
200160 On ch=1 n=a#5 v=102
200280 On ch=1 n=a#5 v=0
200280 On ch=1 n=a#4 v=0
200400 On ch=1 n=c5 v=102
200400 On ch=1 n=f5 v=102
200400 On ch=1 n=a5 v=102
200640 On ch=1 n=a5 v=0
200640 On ch=1 n=c5 v=0
200640 On ch=1 n=d5 v=102
200640 On ch=1 n=g5 v=102
200880 On ch=1 n=g5 v=0
200880 On ch=1 n=d5 v=0
200880 On ch=1 n=f5 v=0
200880 On ch=1 n=c5 v=102
200880 On ch=1 n=e5 v=102
201120 On ch=1 n=e5 v=0
201120 On ch=1 n=f5 v=102
201180 On ch=1 n=f5 v=0
201180 On ch=1 n=c5 v=0
201240 On ch=1 n=a4 v=65
201360 On ch=1 n=a4 v=0
201360 On ch=1 n=f5 v=65
201360 On ch=1 n=c5 v=65
201480 On ch=1 n=c5 v=0
201480 On ch=1 n=f5 v=0
201480 On ch=1 n=f4 v=65
201600 On ch=1 n=f4 v=0
201600 On ch=1 n=a4 v=65
201600 On ch=1 n=c5 v=65
201720 On ch=1 n=a4 v=0
201720 On ch=1 n=c4 v=65
201840 On ch=1 n=c4 v=0
201840 On ch=1 n=c5 v=0
201840 On ch=1 n=a#4 v=65
201840 On ch=1 n=d5 v=65
201960 On ch=1 n=a#4 v=0
201960 On ch=1 n=g#4 v=65
202080 On ch=1 n=g#4 v=0
202080 On ch=1 n=d5 v=0
202080 On ch=1 n=a#4 v=65
202080 On ch=1 n=d#5 v=65
202200 On ch=1 n=a#4 v=0
202200 On ch=1 n=f#4 v=65
202320 On ch=1 n=f#4 v=0
202320 On ch=1 n=d#5 v=0
202320 On ch=1 n=a#4 v=65
202320 On ch=1 n=d#5 v=71
202440 On ch=1 n=a#4 v=0
202440 On ch=1 n=d#4 v=65
202560 On ch=1 n=d#4 v=0
202560 On ch=1 n=d#5 v=0
202560 On ch=1 n=a#4 v=65
202560 On ch=1 n=f#4 v=65
202680 On ch=1 n=f#4 v=0
202680 On ch=1 n=a#3 v=65
202800 On ch=1 n=a#3 v=0
202800 On ch=1 n=a#4 v=0
202800 On ch=1 n=c5 v=65
202800 On ch=1 n=f4 v=65
202920 On ch=1 n=f4 v=0
202920 On ch=1 n=d#4 v=65
203040 On ch=1 n=d#4 v=0
203040 On ch=1 n=c5 v=0
203040 On ch=1 n=c#5 v=65
203040 On ch=1 n=c#4 v=65
203160 On ch=1 n=c#4 v=0
203160 On ch=1 n=g#4 v=65
203280 On ch=1 n=g#4 v=0
203280 On ch=1 n=c#5 v=0
203280 On ch=1 n=d#5 v=71
203280 On ch=1 n=a#4 v=65
203400 On ch=1 n=a#4 v=0
203400 On ch=1 n=d#4 v=65
203520 On ch=1 n=d#4 v=0
203520 On ch=1 n=d#5 v=0
203520 On ch=1 n=f#4 v=65
203520 On ch=1 n=a#4 v=65
203640 On ch=1 n=f#4 v=0
203640 On ch=1 n=a#3 v=65
203760 On ch=1 n=a#3 v=0
203760 On ch=1 n=a#4 v=0
203760 On ch=1 n=f4 v=65
203760 On ch=1 n=c5 v=65
203880 On ch=1 n=f4 v=0
203880 On ch=1 n=d#4 v=65
204000 On ch=1 n=d#4 v=0
204000 On ch=1 n=c5 v=0
204000 On ch=1 n=c#4 v=65
204000 On ch=1 n=c#5 v=65
204120 On ch=1 n=c#5 v=0
204120 On ch=1 n=c#4 v=0
204120 On ch=1 n=a#3 v=65
204240 On ch=1 n=a#3 v=0
204240 On ch=1 n=a#4 v=65
204360 On ch=1 n=a#4 v=0
204360 On ch=1 n=d#4 v=65
204480 On ch=1 n=d#4 v=0
204480 On ch=1 n=d#5 v=65
204600 On ch=1 n=d#5 v=0
204600 On ch=1 n=c4 v=65
204720 On ch=1 n=c4 v=0
204720 On ch=1 n=c5 v=65
204840 On ch=1 n=c5 v=0
204840 On ch=1 n=f4 v=65
204960 On ch=1 n=f4 v=0
204960 On ch=1 n=f5 v=68
205080 On ch=1 n=f5 v=0
205080 On ch=1 n=d4 v=72
205200 On ch=1 n=d4 v=0
205200 On ch=1 n=d5 v=75
205320 On ch=1 n=d5 v=0
205320 On ch=1 n=g4 v=79
205440 On ch=1 n=g4 v=0
205440 On ch=1 n=g5 v=82
205560 On ch=1 n=g5 v=0
205560 On ch=1 n=c5 v=86
205680 On ch=1 n=c5 v=0
205680 On ch=1 n=c6 v=89
205800 On ch=1 n=c6 v=0
205800 On ch=1 n=f5 v=93
205920 On ch=1 n=f5 v=0
205920 On ch=1 n=f6 v=96
206040 On ch=1 n=f6 v=0
206040 On ch=1 n=a5 v=102
206100 On ch=1 n=a5 v=0
206160 On ch=1 n=f6 v=102
206160 On ch=1 n=c6 v=102
206220 On ch=1 n=c6 v=0
206280 On ch=1 n=f5 v=102
206340 On ch=1 n=f5 v=0
206400 On ch=1 n=a#5 v=102
206400 On ch=1 n=d6 v=102
206520 On ch=1 n=d6 v=0
206520 On ch=1 n=a#5 v=0
206520 On ch=1 n=f6 v=0
206640 On ch=1 n=a#5 v=102
206640 On ch=1 n=d6 v=102
206880 On ch=1 n=d6 v=0
206880 On ch=1 n=c6 v=102
207000 On ch=1 n=c6 v=0
207000 On ch=1 n=a#5 v=0
207120 On ch=1 n=a5 v=102
207120 On ch=1 n=c6 v=102
207360 On ch=1 n=c6 v=0
207360 On ch=1 n=a#5 v=102
207600 On ch=1 n=a#5 v=0
207600 On ch=1 n=a5 v=0
207600 On ch=1 n=e5 v=102
207600 On ch=1 n=g5 v=102
207840 On ch=1 n=g5 v=0
207840 On ch=1 n=e5 v=0
207840 On ch=1 n=c6 v=102
207840 On ch=1 n=d#5 v=102
207960 On ch=1 n=d#5 v=0
207960 On ch=1 n=c6 v=0
207960 On ch=1 n=d#5 v=102
208080 On ch=1 n=d#5 v=0
208080 On ch=1 n=d#6 v=102
208080 On ch=1 n=a#5 v=102
208200 On ch=1 n=a#5 v=0
208200 On ch=1 n=d5 v=102
208320 On ch=1 n=d5 v=0
208320 On ch=1 n=d#6 v=0
208320 On ch=1 n=a#5 v=102
208320 On ch=1 n=d6 v=102
208440 On ch=1 n=d6 v=0
208440 On ch=1 n=a#5 v=0
208440 On ch=1 n=a4 v=102
208560 On ch=1 n=a4 v=0
208560 On ch=1 n=d5 v=102
208560 On ch=1 n=a5 v=102
208680 On ch=1 n=d5 v=0
208680 On ch=1 n=c5 v=102
208800 On ch=1 n=c5 v=0
208800 On ch=1 n=a5 v=0
208800 On ch=1 n=a#4 v=102
208800 On ch=1 n=a#5 v=102
208920 On ch=1 n=a#5 v=0
208920 On ch=1 n=a#4 v=0
209040 On ch=1 n=c5 v=102
209040 On ch=1 n=f5 v=102
209040 On ch=1 n=a5 v=102
209280 On ch=1 n=a5 v=0
209280 On ch=1 n=c5 v=0
209280 On ch=1 n=d5 v=83
209280 On ch=1 n=g5 v=83
209520 On ch=1 n=g5 v=0
209520 On ch=1 n=d5 v=0
209520 On ch=1 n=f5 v=0
209520 On ch=1 n=e5 v=65
209520 On ch=1 n=c5 v=65
209760 On ch=1 n=e5 v=0
209760 On ch=1 n=f5 v=65
210240 On ch=1 n=f5 v=0
210240 On ch=1 n=c5 v=0
210246 On ch=1 n=a#5 v=65
210246 On ch=1 n=a#4 v=65
210486 On ch=1 n=a#4 v=0
210486 On ch=1 n=a#5 v=0
210486 On ch=1 n=c5 v=65
210486 On ch=1 n=c6 v=65
210726 On ch=1 n=c6 v=0
210726 On ch=1 n=c5 v=0
210726 On ch=1 n=d5 v=73
210726 On ch=1 n=d6 v=73
210966 On ch=1 n=d6 v=0
210966 On ch=1 n=d5 v=0
210966 On ch=1 n=f5 v=81
210966 On ch=1 n=f6 v=81
211206 On ch=1 n=f6 v=0
211206 On ch=1 n=f5 v=0
211206 On ch=1 n=g5 v=89
211206 On ch=1 n=g6 v=89
211446 On ch=1 n=g6 v=0
211446 On ch=1 n=g5 v=0
211446 On ch=1 n=f5 v=81
211446 On ch=1 n=f6 v=81
211686 On ch=1 n=f6 v=0
211686 On ch=1 n=f5 v=0
211686 On ch=1 n=d5 v=73
211686 On ch=1 n=d6 v=73
211926 On ch=1 n=d6 v=0
211926 On ch=1 n=d5 v=0
211926 On ch=1 n=a#4 v=65
211926 On ch=1 n=a#5 v=65
212166 On ch=1 n=a#5 v=0
212166 On ch=1 n=a#4 v=0
212166 On ch=1 n=a4 v=71
212166 On ch=1 n=c5 v=71
212166 On ch=1 n=f5 v=71
213126 On ch=1 n=f5 v=0
213126 On ch=1 n=c5 v=0
213126 On ch=1 n=a4 v=0
213126 On ch=1 n=a#4 v=65
213126 On ch=1 n=a#5 v=65
213366 On ch=1 n=a#5 v=0
213366 On ch=1 n=a#4 v=0
213366 On ch=1 n=c5 v=65
213366 On ch=1 n=c6 v=65
213606 On ch=1 n=c6 v=0
213606 On ch=1 n=c5 v=0
213606 On ch=1 n=d5 v=73
213606 On ch=1 n=d6 v=73
213846 On ch=1 n=d6 v=0
213846 On ch=1 n=d5 v=0
213846 On ch=1 n=f5 v=81
213846 On ch=1 n=f6 v=81
214086 On ch=1 n=f6 v=0
214086 On ch=1 n=f5 v=0
214086 On ch=1 n=g5 v=89
214086 On ch=1 n=g6 v=89
214326 On ch=1 n=g6 v=0
214326 On ch=1 n=g5 v=0
214326 On ch=1 n=f5 v=81
214326 On ch=1 n=f6 v=81
214566 On ch=1 n=f6 v=0
214566 On ch=1 n=f5 v=0
214566 On ch=1 n=d5 v=73
214566 On ch=1 n=d6 v=73
214806 On ch=1 n=d6 v=0
214806 On ch=1 n=d5 v=0
214806 On ch=1 n=a#4 v=65
214806 On ch=1 n=a#5 v=65
215046 On ch=1 n=a#5 v=0
215046 On ch=1 n=a#4 v=0
215046 On ch=1 n=a4 v=71
215046 On ch=1 n=c5 v=71
215046 On ch=1 n=f5 v=71
216006 On ch=1 n=f5 v=0
216006 On ch=1 n=c5 v=0
216006 On ch=1 n=a4 v=0
216006 On ch=1 n=a#4 v=65
216006 On ch=1 n=a#5 v=65
216246 On ch=1 n=a#5 v=0
216246 On ch=1 n=a#4 v=0
216246 On ch=1 n=c5 v=68
216246 On ch=1 n=c6 v=68
216486 On ch=1 n=c6 v=0
216486 On ch=1 n=c5 v=0
216486 On ch=1 n=d6 v=71
216486 On ch=1 n=d5 v=71
216726 On ch=1 n=d5 v=0
216726 On ch=1 n=d6 v=0
216726 On ch=1 n=d#5 v=74
216726 On ch=1 n=d#6 v=74
216966 On ch=1 n=d#6 v=0
216966 On ch=1 n=d#5 v=0
216966 On ch=1 n=f5 v=77
216966 On ch=1 n=f6 v=77
217206 On ch=1 n=f6 v=0
217206 On ch=1 n=f5 v=0
217206 On ch=1 n=f#6 v=80
217206 On ch=1 n=f#5 v=80
217446 On ch=1 n=f#5 v=0
217446 On ch=1 n=f#6 v=0
217446 On ch=1 n=g5 v=83
217446 On ch=1 n=g6 v=83
217686 On ch=1 n=g6 v=0
217686 On ch=1 n=g5 v=0
217686 On ch=1 n=f5 v=86
217686 On ch=1 n=f6 v=86
217926 On ch=1 n=f6 v=0
217926 On ch=1 n=f5 v=0
217926 On ch=1 n=e5 v=79
217926 On ch=1 n=e6 v=79
218166 On ch=1 n=e6 v=0
218166 On ch=1 n=e5 v=0
218166 On ch=1 n=d5 v=72
218166 On ch=1 n=d6 v=72
218406 On ch=1 n=d6 v=0
218406 On ch=1 n=d5 v=0
218406 On ch=1 n=c5 v=65
218406 On ch=1 n=c6 v=65
218646 On ch=1 n=c6 v=0
218646 On ch=1 n=c5 v=0
218646 On ch=1 n=d6 v=67
218646 On ch=1 n=d5 v=67
218886 On ch=1 n=d5 v=0
218886 On ch=1 n=d6 v=0
218886 On ch=1 n=c5 v=69
218886 On ch=1 n=c6 v=69
219126 On ch=1 n=c6 v=0
219126 On ch=1 n=c5 v=0
219126 On ch=1 n=d6 v=71
219126 On ch=1 n=d5 v=71
219366 On ch=1 n=d5 v=0
219366 On ch=1 n=d6 v=0
219366 On ch=1 n=e5 v=73
219366 On ch=1 n=e6 v=73
219606 On ch=1 n=e6 v=0
219606 On ch=1 n=e5 v=0
219606 On ch=1 n=f6 v=75
219606 On ch=1 n=f5 v=75
219846 On ch=1 n=f5 v=0
219846 On ch=1 n=f6 v=0
219846 On ch=1 n=f#5 v=77
219846 On ch=1 n=f#6 v=77
220086 On ch=1 n=f#6 v=0
220086 On ch=1 n=f#5 v=0
220086 On ch=1 n=g6 v=79
220086 On ch=1 n=g5 v=79
220326 On ch=1 n=g5 v=0
220326 On ch=1 n=g6 v=0
220326 On ch=1 n=a5 v=81
220326 On ch=1 n=a6 v=81
220566 On ch=1 n=a6 v=0
220566 On ch=1 n=a5 v=0
220566 On ch=1 n=g6 v=83
220566 On ch=1 n=g5 v=83
220806 On ch=1 n=g5 v=0
220806 On ch=1 n=g6 v=0
220806 On ch=1 n=f6 v=81
220806 On ch=1 n=f5 v=81
221046 On ch=1 n=f5 v=0
221046 On ch=1 n=f6 v=0
221046 On ch=1 n=d#5 v=77
221046 On ch=1 n=d#6 v=77
221286 On ch=1 n=d#6 v=0
221286 On ch=1 n=d#5 v=0
221286 On ch=1 n=d5 v=73
221286 On ch=1 n=d6 v=73
221526 On ch=1 n=d6 v=0
221526 On ch=1 n=d5 v=0
221526 On ch=1 n=c5 v=69
221526 On ch=1 n=c6 v=69
221766 On ch=1 n=c6 v=0
221766 On ch=1 n=c5 v=0
221766 On ch=1 n=a#4 v=65
221766 On ch=1 n=a#5 v=65
222006 On ch=1 n=a#5 v=0
222006 On ch=1 n=a#4 v=0
222006 On ch=1 n=c6 v=65
222006 On ch=1 n=c5 v=65
222246 On ch=1 n=c5 v=0
222246 On ch=1 n=c6 v=0
222246 On ch=1 n=d6 v=65
222246 On ch=1 n=d5 v=65
222486 On ch=1 n=d5 v=0
222486 On ch=1 n=c6 v=65
222726 On ch=1 n=c6 v=0
222726 On ch=1 n=a#5 v=65
222966 On ch=1 n=a#5 v=0
222966 On ch=1 n=a5 v=65
223206 On ch=1 n=a5 v=0
223206 On ch=1 n=d6 v=0
223206 On ch=1 n=d#6 v=65
223206 On ch=1 n=g5 v=65
223446 On ch=1 n=g5 v=0
223446 On ch=1 n=d#6 v=0
223446 On ch=1 n=f6 v=65
223446 On ch=1 n=f5 v=65
223686 On ch=1 n=f5 v=0
223686 On ch=1 n=f6 v=0
223686 On ch=1 n=d#5 v=65
223714 On ch=1 n=g6 v=65
223926 On ch=1 n=d#5 v=0
223926 On ch=1 n=f5 v=65
224166 On ch=1 n=f5 v=0
224166 On ch=1 n=g5 v=65
224406 On ch=1 n=g5 v=0
224406 On ch=1 n=g6 v=0
224406 On ch=1 n=f6 v=65
224406 On ch=1 n=a5 v=65
224646 On ch=1 n=a5 v=0
224646 On ch=1 n=f6 v=0
224646 On ch=1 n=d#6 v=65
224646 On ch=1 n=a#5 v=65
224886 On ch=1 n=a#5 v=0
224886 On ch=1 n=d#6 v=0
224886 On ch=1 n=b5 v=65
224886 On ch=1 n=d6 v=65
225126 On ch=1 n=d6 v=0
225126 On ch=1 n=b5 v=0
225126 On ch=1 n=c6 v=65
225366 On ch=1 n=a#5 v=65
225486 On ch=1 n=c6 v=0
225526 On ch=1 n=c6 v=65
225566 On ch=1 n=c6 v=0
225566 On ch=1 n=d6 v=65
225606 On ch=1 n=d6 v=0
225606 On ch=1 n=a#5 v=0
225606 On ch=1 n=a5 v=65
225606 On ch=1 n=c6 v=65
225846 On ch=1 n=c6 v=0
225846 On ch=1 n=a5 v=0
225846 On ch=1 n=g5 v=65
225846 On ch=1 n=d6 v=65
226086 On ch=1 n=d6 v=0
226086 On ch=1 n=g5 v=0
226086 On ch=1 n=d#6 v=65
226086 On ch=1 n=f5 v=65
226326 On ch=1 n=f5 v=0
226326 On ch=1 n=d#5 v=65
226566 On ch=1 n=d#5 v=0
226566 On ch=1 n=d#6 v=0
226566 On ch=1 n=d5 v=65
226594 On ch=1 n=f6 v=65
226806 On ch=1 n=d5 v=0
226806 On ch=1 n=d#5 v=65
227046 On ch=1 n=d#5 v=0
227046 On ch=1 n=f5 v=65
227286 On ch=1 n=f5 v=0
227286 On ch=1 n=f6 v=0
227286 On ch=1 n=d#6 v=65
227286 On ch=1 n=g5 v=65
227526 On ch=1 n=g5 v=0
227526 On ch=1 n=d#6 v=0
227526 On ch=1 n=d6 v=65
227526 On ch=1 n=g#5 v=65
227766 On ch=1 n=g#5 v=0
227766 On ch=1 n=d6 v=0
227766 On ch=1 n=c6 v=65
227766 On ch=1 n=a5 v=65
228006 On ch=1 n=a5 v=0
228006 On ch=1 n=c6 v=0
228006 On ch=1 n=a#5 v=65
228246 On ch=1 n=a5 v=65
228406 On ch=1 n=a#5 v=0
228406 On ch=1 n=a#5 v=65
228446 On ch=1 n=a#5 v=0
228446 On ch=1 n=c6 v=65
228486 On ch=1 n=c6 v=0
228486 On ch=1 n=a5 v=0
228486 On ch=1 n=a#5 v=65
228486 On ch=1 n=g5 v=65
228726 On ch=1 n=g5 v=0
228726 On ch=1 n=a#5 v=0
228726 On ch=1 n=c6 v=65
228726 On ch=1 n=f5 v=65
228966 On ch=1 n=f5 v=0
228966 On ch=1 n=c6 v=0
228966 On ch=1 n=d6 v=65
228966 On ch=1 n=d#5 v=65
229206 On ch=1 n=d#5 v=0
229206 On ch=1 n=d5 v=65
229446 On ch=1 n=d5 v=0
229446 On ch=1 n=d6 v=0
229446 On ch=1 n=c5 v=65
229474 On ch=1 n=d#6 v=65
229686 On ch=1 n=d#6 v=0
229686 On ch=1 n=c5 v=0
229686 On ch=1 n=d5 v=65
229686 On ch=1 n=d6 v=65
229926 On ch=1 n=d6 v=0
229926 On ch=1 n=d5 v=0
229926 On ch=1 n=d#5 v=65
229926 On ch=1 n=c6 v=65
230166 On ch=1 n=c6 v=0
230166 On ch=1 n=d#5 v=0
230166 On ch=1 n=e5 v=65
230166 On ch=1 n=a#5 v=65
230406 On ch=1 n=a#5 v=0
230406 On ch=1 n=e5 v=0
230406 On ch=1 n=f5 v=65
230406 On ch=1 n=a5 v=65
230646 On ch=1 n=a5 v=0
230646 On ch=1 n=f5 v=0
230646 On ch=1 n=d#5 v=65
230646 On ch=1 n=g5 v=65
230886 On ch=1 n=g5 v=0
230886 On ch=1 n=d#5 v=0
230886 On ch=1 n=d5 v=65
230886 On ch=1 n=f5 v=65
231126 On ch=1 n=f5 v=0
231126 On ch=1 n=d5 v=0
231126 On ch=1 n=c5 v=65
231126 On ch=1 n=d#5 v=65
231366 On ch=1 n=d#5 v=0
231366 On ch=1 n=c5 v=0
231366 On ch=1 n=d5 v=65
231846 On ch=1 n=d5 v=0
231966 On ch=1 n=d5 v=68
232026 On ch=1 n=d5 v=0
232086 On ch=1 n=d#5 v=72
232146 On ch=1 n=d#5 v=0
232206 On ch=1 n=f5 v=75
232266 On ch=1 n=f5 v=0
232326 On ch=1 n=a#4 v=78
232326 On ch=1 n=f#5 v=78
233286 On ch=1 n=f#5 v=0
233286 On ch=1 n=a#4 v=0
233286 On ch=1 n=a4 v=65
233286 On ch=1 n=f5 v=65
233766 On ch=1 n=f5 v=0
233766 On ch=1 n=a4 v=0
234006 On ch=1 n=f5 v=53
234006 On ch=1 n=a#4 v=53
234006 On ch=1 n=f4 v=53
236160 On ch=1 n=d#5 v=90
236166 On ch=1 n=f4 v=0
236166 On ch=1 n=a#4 v=0
236166 On ch=1 n=f5 v=0
236280 On ch=1 n=d#4 v=90
236400 On ch=1 n=d#4 v=0
236400 On ch=1 n=a#4 v=90
236520 On ch=1 n=a#4 v=0
236520 On ch=1 n=d#5 v=0
236520 On ch=1 n=d5 v=90
236640 On ch=1 n=d5 v=0
236640 On ch=1 n=c5 v=90
236760 On ch=1 n=d#4 v=90
236880 On ch=1 n=d#4 v=0
236880 On ch=1 n=a4 v=90
237000 On ch=1 n=a4 v=0
237000 On ch=1 n=c5 v=0
237000 On ch=1 n=c5 v=90
237120 On ch=1 n=c5 v=0
237120 On ch=1 n=d#5 v=90
237240 On ch=1 n=a5 v=90
237360 On ch=1 n=a5 v=0
237360 On ch=1 n=c6 v=90
237480 On ch=1 n=c6 v=0
237480 On ch=1 n=d#6 v=90
237600 On ch=1 n=d#6 v=0
237600 On ch=1 n=d#5 v=0
237600 On ch=1 n=d6 v=90
237720 On ch=1 n=d5 v=90
237840 On ch=1 n=d5 v=0
237840 On ch=1 n=a5 v=90
237960 On ch=1 n=a5 v=0
237960 On ch=1 n=d6 v=0
237960 On ch=1 n=c6 v=90
238080 On ch=1 n=c6 v=0
238080 On ch=1 n=a#5 v=90
238200 On ch=1 n=d5 v=90
238320 On ch=1 n=d5 v=0
238320 On ch=1 n=g5 v=90
238440 On ch=1 n=g5 v=0
238440 On ch=1 n=a#5 v=0
238440 On ch=1 n=a#5 v=90
238560 On ch=1 n=a#5 v=0
238560 On ch=1 n=d6 v=90
238680 On ch=1 n=g6 v=90
238800 On ch=1 n=g6 v=0
238800 On ch=1 n=a#6 v=90
238920 On ch=1 n=a#6 v=0
238920 On ch=1 n=d7 v=90
239040 On ch=1 n=d7 v=0
239040 On ch=1 n=d6 v=0
239040 On ch=1 n=c5 v=90
239160 On ch=1 n=c4 v=90
239280 On ch=1 n=c4 v=0
239280 On ch=1 n=g4 v=90
239400 On ch=1 n=g4 v=0
239400 On ch=1 n=c5 v=0
239400 On ch=1 n=a#4 v=90
239520 On ch=1 n=a#4 v=0
239520 On ch=1 n=a4 v=90
239640 On ch=1 n=c4 v=90
239760 On ch=1 n=c4 v=0
239760 On ch=1 n=f4 v=90
239880 On ch=1 n=f4 v=0
239880 On ch=1 n=a4 v=0
239880 On ch=1 n=a4 v=90
240000 On ch=1 n=a4 v=0
240000 On ch=1 n=c5 v=90
240120 On ch=1 n=f5 v=90
240240 On ch=1 n=f5 v=0
240240 On ch=1 n=a5 v=90
240360 On ch=1 n=a5 v=0
240360 On ch=1 n=c6 v=90
240480 On ch=1 n=c6 v=0
240480 On ch=1 n=c5 v=0
240480 On ch=1 n=a#5 v=90
240600 On ch=1 n=a#4 v=90
240720 On ch=1 n=a#4 v=0
240720 On ch=1 n=f5 v=90
240840 On ch=1 n=f5 v=0
240840 On ch=1 n=a#5 v=0
240840 On ch=1 n=a5 v=90
240960 On ch=1 n=a5 v=0
240960 On ch=1 n=g5 v=90
241080 On ch=1 n=a#4 v=90
241200 On ch=1 n=a#4 v=0
241200 On ch=1 n=d#5 v=90
241320 On ch=1 n=d#5 v=0
241320 On ch=1 n=g5 v=0
241320 On ch=1 n=g5 v=90
241440 On ch=1 n=g5 v=0
241440 On ch=1 n=a#5 v=90
241560 On ch=1 n=d#6 v=90
241680 On ch=1 n=d#6 v=0
241680 On ch=1 n=g6 v=90
241800 On ch=1 n=g6 v=0
241800 On ch=1 n=a#6 v=90
241920 On ch=1 n=a#6 v=0
241920 On ch=1 n=a#5 v=0
241920 On ch=1 n=a4 v=65
242040 On ch=1 n=a3 v=65
242160 On ch=1 n=a3 v=0
242160 On ch=1 n=d#4 v=65
242280 On ch=1 n=d#4 v=0
242280 On ch=1 n=a4 v=0
242280 On ch=1 n=g4 v=65
242400 On ch=1 n=g4 v=0
242400 On ch=1 n=f#4 v=70
242520 On ch=1 n=a3 v=70
242640 On ch=1 n=a3 v=0
242640 On ch=1 n=d4 v=75
242760 On ch=1 n=d4 v=0
242760 On ch=1 n=f#4 v=0
242760 On ch=1 n=f#4 v=75
242880 On ch=1 n=f#4 v=0
242880 On ch=1 n=a4 v=80
243000 On ch=1 n=d5 v=80
243120 On ch=1 n=d5 v=0
243120 On ch=1 n=f#5 v=85
243240 On ch=1 n=f#5 v=0
243240 On ch=1 n=a4 v=0
243240 On ch=1 n=a4 v=85
243360 On ch=1 n=a4 v=0
243360 On ch=1 n=a5 v=90
243480 On ch=1 n=a4 v=90
243600 On ch=1 n=a4 v=0
243600 On ch=1 n=e5 v=90
243720 On ch=1 n=e5 v=0
243720 On ch=1 n=a5 v=0
243720 On ch=1 n=g5 v=90
243840 On ch=1 n=g5 v=0
243840 On ch=1 n=f#5 v=90
243960 On ch=1 n=a4 v=90
244080 On ch=1 n=a4 v=0
244080 On ch=1 n=d5 v=90
244200 On ch=1 n=d5 v=0
244200 On ch=1 n=f#5 v=0
244200 On ch=1 n=f#5 v=90
244320 On ch=1 n=f#5 v=0
244320 On ch=1 n=a5 v=90
244440 On ch=1 n=d6 v=90
244560 On ch=1 n=d6 v=0
244560 On ch=1 n=f#6 v=92
244680 On ch=1 n=f#6 v=0
244680 On ch=1 n=a5 v=0
244680 On ch=1 n=a5 v=92
244800 On ch=1 n=a5 v=0
244800 On ch=1 n=a6 v=94
244920 On ch=1 n=a5 v=94
245040 On ch=1 n=a5 v=0
245040 On ch=1 n=d#6 v=94
245160 On ch=1 n=d#6 v=0
245160 On ch=1 n=a6 v=0
245160 On ch=1 n=g6 v=94
245280 On ch=1 n=g6 v=0
245280 On ch=1 n=f#6 v=97
245400 On ch=1 n=a5 v=97
245520 On ch=1 n=a5 v=0
245520 On ch=1 n=d6 v=97
245640 On ch=1 n=d6 v=0
245640 On ch=1 n=f#6 v=0
245640 On ch=1 n=f#6 v=97
245760 On ch=1 n=f#6 v=0
245760 On ch=1 n=a6 v=99
245880 On ch=1 n=d7 v=99
246000 On ch=1 n=d7 v=0
246000 On ch=1 n=f#7 v=99
246120 On ch=1 n=f#7 v=0
246120 On ch=1 n=a6 v=0
246120 On ch=1 n=a6 v=99
246240 On ch=1 n=a6 v=0
246240 On ch=1 n=a7 v=102
246360 On ch=1 n=a6 v=102
246480 On ch=1 n=a6 v=0
246480 On ch=1 n=e7 v=102
246600 On ch=1 n=e7 v=0
246600 On ch=1 n=a7 v=0
246600 On ch=1 n=g7 v=102
246720 On ch=1 n=g7 v=0
246720 On ch=1 n=f#7 v=102
246840 On ch=1 n=f#7 v=0
247200 On ch=1 n=f#6 v=120
247200 On ch=1 n=a6 v=120
247200 On ch=1 n=d7 v=120
247680 On ch=1 n=d7 v=0
247680 On ch=1 n=a6 v=0
247680 On ch=1 n=f#6 v=0
247680 On ch=1 n=d#5 v=90
247800 On ch=1 n=d#4 v=90
247920 On ch=1 n=d#4 v=0
247920 On ch=1 n=a#4 v=90
248040 On ch=1 n=a#4 v=0
248040 On ch=1 n=d#5 v=0
248040 On ch=1 n=d5 v=90
248160 On ch=1 n=d5 v=0
248160 On ch=1 n=c5 v=90
248280 On ch=1 n=d#4 v=90
248400 On ch=1 n=d#4 v=0
248400 On ch=1 n=a4 v=90
248520 On ch=1 n=a4 v=0
248520 On ch=1 n=c5 v=0
248520 On ch=1 n=c5 v=90
248640 On ch=1 n=c5 v=0
248640 On ch=1 n=d#5 v=90
248760 On ch=1 n=a5 v=90
248880 On ch=1 n=a5 v=0
248880 On ch=1 n=c6 v=90
249000 On ch=1 n=c6 v=0
249000 On ch=1 n=d#6 v=90
249120 On ch=1 n=d#6 v=0
249120 On ch=1 n=d#5 v=0
249120 On ch=1 n=d6 v=90
249240 On ch=1 n=d5 v=90
249360 On ch=1 n=d5 v=0
249360 On ch=1 n=a5 v=90
249480 On ch=1 n=a5 v=0
249480 On ch=1 n=d6 v=0
249480 On ch=1 n=c6 v=90
249600 On ch=1 n=c6 v=0
249600 On ch=1 n=a#5 v=90
249720 On ch=1 n=d5 v=90
249840 On ch=1 n=d5 v=0
249840 On ch=1 n=g5 v=90
249960 On ch=1 n=g5 v=0
249960 On ch=1 n=a#5 v=0
249960 On ch=1 n=a#5 v=90
250080 On ch=1 n=a#5 v=0
250080 On ch=1 n=d6 v=90
250200 On ch=1 n=g6 v=90
250320 On ch=1 n=g6 v=0
250320 On ch=1 n=a#6 v=90
250440 On ch=1 n=a#6 v=0
250440 On ch=1 n=d7 v=90
250560 On ch=1 n=d7 v=0
250560 On ch=1 n=d6 v=0
250560 On ch=1 n=c5 v=90
250680 On ch=1 n=c4 v=90
250800 On ch=1 n=c4 v=0
250800 On ch=1 n=g4 v=90
250920 On ch=1 n=g4 v=0
250920 On ch=1 n=c5 v=0
250920 On ch=1 n=a#4 v=90
251040 On ch=1 n=a#4 v=0
251040 On ch=1 n=a4 v=90
251160 On ch=1 n=c4 v=90
251280 On ch=1 n=c4 v=0
251280 On ch=1 n=f4 v=90
251400 On ch=1 n=f4 v=0
251400 On ch=1 n=a4 v=0
251400 On ch=1 n=a4 v=90
251520 On ch=1 n=a4 v=0
251520 On ch=1 n=c5 v=90
251640 On ch=1 n=f5 v=90
251760 On ch=1 n=f5 v=0
251760 On ch=1 n=a5 v=90
251880 On ch=1 n=a5 v=0
251880 On ch=1 n=c6 v=90
252000 On ch=1 n=c6 v=0
252000 On ch=1 n=c5 v=0
252000 On ch=1 n=a#5 v=90
252120 On ch=1 n=a#4 v=90
252240 On ch=1 n=a#4 v=0
252240 On ch=1 n=f5 v=90
252360 On ch=1 n=f5 v=0
252360 On ch=1 n=a#5 v=0
252360 On ch=1 n=a5 v=90
252480 On ch=1 n=a5 v=0
252480 On ch=1 n=g5 v=90
252600 On ch=1 n=a#4 v=90
252720 On ch=1 n=a#4 v=0
252720 On ch=1 n=d#5 v=90
252840 On ch=1 n=d#5 v=0
252840 On ch=1 n=g5 v=0
252840 On ch=1 n=g5 v=90
252960 On ch=1 n=g5 v=0
252960 On ch=1 n=a#5 v=90
253080 On ch=1 n=d#6 v=90
253200 On ch=1 n=d#6 v=0
253200 On ch=1 n=g6 v=90
253320 On ch=1 n=g6 v=0
253320 On ch=1 n=a#6 v=90
253440 On ch=1 n=a#6 v=0
253440 On ch=1 n=a#5 v=0
253440 On ch=1 n=a4 v=65
253560 On ch=1 n=a3 v=65
253680 On ch=1 n=a3 v=0
253680 On ch=1 n=d#4 v=65
253800 On ch=1 n=d#4 v=0
253800 On ch=1 n=a4 v=0
253800 On ch=1 n=g4 v=65
253920 On ch=1 n=g4 v=0
253920 On ch=1 n=f#4 v=70
254040 On ch=1 n=a3 v=70
254160 On ch=1 n=a3 v=0
254160 On ch=1 n=d4 v=75
254280 On ch=1 n=d4 v=0
254280 On ch=1 n=f#4 v=0
254280 On ch=1 n=f#4 v=75
254400 On ch=1 n=f#4 v=0
254400 On ch=1 n=a4 v=80
254520 On ch=1 n=d5 v=80
254640 On ch=1 n=d5 v=0
254640 On ch=1 n=f#5 v=85
254760 On ch=1 n=f#5 v=0
254760 On ch=1 n=a4 v=0
254760 On ch=1 n=a4 v=85
254880 On ch=1 n=a4 v=0
254880 On ch=1 n=a5 v=90
255000 On ch=1 n=a4 v=90
255120 On ch=1 n=a4 v=0
255120 On ch=1 n=e5 v=90
255240 On ch=1 n=e5 v=0
255240 On ch=1 n=a5 v=0
255240 On ch=1 n=g5 v=90
255360 On ch=1 n=g5 v=0
255360 On ch=1 n=f#5 v=90
255480 On ch=1 n=a4 v=90
255600 On ch=1 n=a4 v=0
255600 On ch=1 n=d5 v=90
255720 On ch=1 n=d5 v=0
255720 On ch=1 n=f#5 v=0
255720 On ch=1 n=f#5 v=90
255840 On ch=1 n=f#5 v=0
255840 On ch=1 n=a5 v=90
255960 On ch=1 n=d6 v=90
256080 On ch=1 n=d6 v=0
256080 On ch=1 n=f#6 v=92
256200 On ch=1 n=f#6 v=0
256200 On ch=1 n=a5 v=0
256200 On ch=1 n=a5 v=92
256320 On ch=1 n=a5 v=0
256320 On ch=1 n=a6 v=94
256440 On ch=1 n=a5 v=94
256560 On ch=1 n=a5 v=0
256560 On ch=1 n=d#6 v=94
256680 On ch=1 n=d#6 v=0
256680 On ch=1 n=a6 v=0
256680 On ch=1 n=g6 v=94
256800 On ch=1 n=g6 v=0
256800 On ch=1 n=f#6 v=97
256920 On ch=1 n=a5 v=97
257040 On ch=1 n=a5 v=0
257040 On ch=1 n=d6 v=97
257160 On ch=1 n=d6 v=0
257160 On ch=1 n=f#6 v=0
257160 On ch=1 n=f#6 v=97
257280 On ch=1 n=f#6 v=0
257280 On ch=1 n=a6 v=99
257400 On ch=1 n=d7 v=99
257520 On ch=1 n=d7 v=0
257520 On ch=1 n=f#7 v=99
257640 On ch=1 n=f#7 v=0
257640 On ch=1 n=a6 v=0
257640 On ch=1 n=a6 v=99
257760 On ch=1 n=a6 v=0
257760 On ch=1 n=a7 v=102
257880 On ch=1 n=a6 v=102
258000 On ch=1 n=a6 v=0
258000 On ch=1 n=e7 v=102
258120 On ch=1 n=e7 v=0
258120 On ch=1 n=a7 v=0
258120 On ch=1 n=g7 v=102
258240 On ch=1 n=g7 v=0
258240 On ch=1 n=f#7 v=102
258360 On ch=1 n=f#7 v=0
258720 On ch=1 n=f#6 v=120
258720 On ch=1 n=a6 v=120
258720 On ch=1 n=d7 v=120
259200 On ch=1 n=d7 v=0
259200 On ch=1 n=a6 v=0
259200 On ch=1 n=f#6 v=0
259200 On ch=1 n=d5 v=65
259320 On ch=1 n=d4 v=65
259440 On ch=1 n=d4 v=0
259440 On ch=1 n=g#4 v=65
259560 On ch=1 n=g#4 v=0
259560 On ch=1 n=d5 v=0
259560 On ch=1 n=c5 v=65
259680 On ch=1 n=c5 v=0
259680 On ch=1 n=a#4 v=70
259800 On ch=1 n=d#4 v=70
259920 On ch=1 n=d#4 v=0
259920 On ch=1 n=g#4 v=70
260040 On ch=1 n=g#4 v=0
260040 On ch=1 n=a#4 v=0
260040 On ch=1 n=a#4 v=70
260160 On ch=1 n=a#4 v=0
260160 On ch=1 n=g5 v=70
260280 On ch=1 n=e4 v=70
260400 On ch=1 n=e4 v=0
260400 On ch=1 n=a#4 v=70
260520 On ch=1 n=a#4 v=0
260520 On ch=1 n=g5 v=0
260520 On ch=1 n=g5 v=70
260640 On ch=1 n=g5 v=0
260640 On ch=1 n=f5 v=70
260760 On ch=1 n=f4 v=70
260880 On ch=1 n=f4 v=0
260880 On ch=1 n=a#4 v=70
261000 On ch=1 n=a#4 v=0
261000 On ch=1 n=f5 v=0
261000 On ch=1 n=d#5 v=70
261120 On ch=1 n=d#5 v=0
261120 On ch=1 n=d5 v=75
261240 On ch=1 n=g4 v=75
261360 On ch=1 n=g4 v=0
261360 On ch=1 n=a#4 v=75
261480 On ch=1 n=a#4 v=0
261480 On ch=1 n=d5 v=0
261480 On ch=1 n=d5 v=75
261600 On ch=1 n=d5 v=0
261600 On ch=1 n=g#5 v=75
261720 On ch=1 n=g#4 v=75
261840 On ch=1 n=g#4 v=0
261840 On ch=1 n=d5 v=75
261960 On ch=1 n=d5 v=0
261960 On ch=1 n=g#5 v=0
261960 On ch=1 n=g#5 v=75
262080 On ch=1 n=g#5 v=0
262080 On ch=1 n=g5 v=75
262200 On ch=1 n=g#4 v=75
262320 On ch=1 n=g#4 v=0
262320 On ch=1 n=d5 v=75
262440 On ch=1 n=d5 v=0
262440 On ch=1 n=g5 v=0
262440 On ch=1 n=f5 v=75
262560 On ch=1 n=f5 v=0
262560 On ch=1 n=e5 v=80
262680 On ch=1 n=a#4 v=80
262800 On ch=1 n=a#4 v=0
262800 On ch=1 n=c#5 v=80
262920 On ch=1 n=c#5 v=0
262920 On ch=1 n=e5 v=0
262920 On ch=1 n=e5 v=80
263040 On ch=1 n=e5 v=0
263040 On ch=1 n=a#5 v=80
263160 On ch=1 n=c#5 v=80
263280 On ch=1 n=c#5 v=0
263280 On ch=1 n=e5 v=80
263400 On ch=1 n=e5 v=0
263400 On ch=1 n=a#5 v=0
263400 On ch=1 n=a#5 v=80
263520 On ch=1 n=a#5 v=0
263520 On ch=1 n=g#5 v=80
263640 On ch=1 n=c#5 v=80
263760 On ch=1 n=c#5 v=0
263760 On ch=1 n=e5 v=80
263880 On ch=1 n=e5 v=0
263880 On ch=1 n=g#5 v=0
263880 On ch=1 n=g5 v=80
264000 On ch=1 n=g5 v=0
264000 On ch=1 n=f#5 v=85
264120 On ch=1 n=c5 v=85
264240 On ch=1 n=c5 v=0
264240 On ch=1 n=d#5 v=85
264360 On ch=1 n=d#5 v=0
264360 On ch=1 n=f#5 v=0
264360 On ch=1 n=f#5 v=85
264480 On ch=1 n=f#5 v=0
264480 On ch=1 n=c6 v=85
264600 On ch=1 n=d#5 v=85
264720 On ch=1 n=d#5 v=0
264720 On ch=1 n=f#5 v=85
264840 On ch=1 n=f#5 v=0
264840 On ch=1 n=c6 v=0
264840 On ch=1 n=c6 v=85
264960 On ch=1 n=c6 v=0
264960 On ch=1 n=a#5 v=85
265080 On ch=1 n=d5 v=85
265200 On ch=1 n=d5 v=0
265200 On ch=1 n=f#5 v=85
265320 On ch=1 n=f#5 v=0
265320 On ch=1 n=a#5 v=0
265320 On ch=1 n=a5 v=85
265440 On ch=1 n=a5 v=0
265440 On ch=1 n=g#5 v=90
265560 On ch=1 n=d5 v=90
265680 On ch=1 n=d5 v=0
265680 On ch=1 n=f5 v=90
265800 On ch=1 n=f5 v=0
265800 On ch=1 n=g#5 v=0
265800 On ch=1 n=g#5 v=90
265920 On ch=1 n=g#5 v=0
265920 On ch=1 n=d6 v=90
266040 On ch=1 n=f5 v=90
266160 On ch=1 n=f5 v=0
266160 On ch=1 n=a5 v=90
266280 On ch=1 n=a5 v=0
266280 On ch=1 n=d6 v=0
266280 On ch=1 n=d6 v=90
266400 On ch=1 n=d6 v=0
266400 On ch=1 n=c6 v=90
266520 On ch=1 n=f5 v=90
266640 On ch=1 n=f5 v=0
266640 On ch=1 n=a5 v=90
266760 On ch=1 n=a5 v=0
266760 On ch=1 n=c6 v=0
266760 On ch=1 n=b5 v=90
266880 On ch=1 n=b5 v=0
266880 On ch=1 n=a#5 v=96
267000 On ch=1 n=e5 v=96
267120 On ch=1 n=e5 v=0
267120 On ch=1 n=g5 v=96
267240 On ch=1 n=g5 v=0
267240 On ch=1 n=a#5 v=0
267240 On ch=1 n=a#5 v=96
267360 On ch=1 n=a#5 v=0
267360 On ch=1 n=e6 v=96
267480 On ch=1 n=g5 v=96
267600 On ch=1 n=g5 v=0
267600 On ch=1 n=a#5 v=96
267720 On ch=1 n=a#5 v=0
267720 On ch=1 n=e6 v=0
267720 On ch=1 n=e6 v=96
267840 On ch=1 n=e6 v=0
267840 On ch=1 n=d6 v=96
267960 On ch=1 n=g5 v=96
268080 On ch=1 n=g5 v=0
268080 On ch=1 n=a#5 v=96
268200 On ch=1 n=a#5 v=0
268200 On ch=1 n=d6 v=0
268200 On ch=1 n=c#6 v=96
268320 On ch=1 n=c#6 v=0
268320 On ch=1 n=d6 v=102
268440 On ch=1 n=f5 v=102
268560 On ch=1 n=f5 v=0
268560 On ch=1 n=a5 v=102
268680 On ch=1 n=a5 v=0
268680 On ch=1 n=d6 v=0
268680 On ch=1 n=d6 v=102
268800 On ch=1 n=d6 v=0
268800 On ch=1 n=a#5 v=102
268920 On ch=1 n=d5 v=102
269040 On ch=1 n=d5 v=0
269040 On ch=1 n=g5 v=102
269160 On ch=1 n=g5 v=0
269160 On ch=1 n=a#5 v=0
269160 On ch=1 n=a#5 v=102
269280 On ch=1 n=a#5 v=0
269280 On ch=1 n=a5 v=102
269400 On ch=1 n=c#5 v=102
269520 On ch=1 n=c#5 v=0
269520 On ch=1 n=e5 v=102
269640 On ch=1 n=e5 v=0
269640 On ch=1 n=a5 v=0
269640 On ch=1 n=a5 v=102
269760 On ch=1 n=a5 v=0
269760 On ch=1 n=d6 v=102
269880 On ch=1 n=d5 v=102
270000 On ch=1 n=d5 v=0
270000 On ch=1 n=a5 v=102
270120 On ch=1 n=a5 v=0
270120 On ch=1 n=d6 v=0
270120 On ch=1 n=c6 v=102
270240 On ch=1 n=c6 v=0
270240 On ch=1 n=a#5 v=102
270360 On ch=1 n=c#5 v=102
270480 On ch=1 n=c#5 v=0
270480 On ch=1 n=e5 v=102
270600 On ch=1 n=e5 v=0
270600 On ch=1 n=a#5 v=0
270600 On ch=1 n=a5 v=102
270720 On ch=1 n=a5 v=0
270720 On ch=1 n=d6 v=102
270840 On ch=1 n=d5 v=102
270960 On ch=1 n=d5 v=0
270960 On ch=1 n=a5 v=102
271080 On ch=1 n=a5 v=0
271080 On ch=1 n=d6 v=0
271080 On ch=1 n=c6 v=102
271200 On ch=1 n=c6 v=0
271200 On ch=1 n=a#5 v=102
271320 On ch=1 n=c#5 v=102
271440 On ch=1 n=c#5 v=0
271440 On ch=1 n=e5 v=102
271560 On ch=1 n=e5 v=0
271560 On ch=1 n=a#5 v=0
271560 On ch=1 n=a5 v=102
271680 On ch=1 n=a5 v=0
271680 On ch=1 n=d6 v=102
271800 On ch=1 n=d5 v=102
271920 On ch=1 n=d5 v=0
271920 On ch=1 n=a5 v=102
272040 On ch=1 n=a5 v=0
272040 On ch=1 n=d6 v=0
272040 On ch=1 n=c6 v=102
272160 On ch=1 n=c6 v=0
272160 On ch=1 n=a#5 v=102
272280 On ch=1 n=d5 v=102
272400 On ch=1 n=d5 v=0
272400 On ch=1 n=e5 v=102
272520 On ch=1 n=e5 v=0
272520 On ch=1 n=a#5 v=0
272520 On ch=1 n=g5 v=102
272640 On ch=1 n=g5 v=0
272640 On ch=1 n=a5 v=102
272760 On ch=1 n=c#5 v=102
272880 On ch=1 n=c#5 v=0
272880 On ch=1 n=e5 v=102
273000 On ch=1 n=e5 v=0
273000 On ch=1 n=a5 v=0
273000 On ch=1 n=a5 v=102
273120 On ch=1 n=a5 v=0
273120 On ch=1 n=d5 v=95
273240 On ch=1 n=f#4 v=95
273360 On ch=1 n=f#4 v=0
273360 On ch=1 n=a4 v=87
273480 On ch=1 n=a4 v=0
273480 On ch=1 n=d5 v=0
273480 On ch=1 n=c5 v=87
273600 On ch=1 n=c5 v=0
273600 On ch=1 n=a#4 v=80
273720 On ch=1 n=d4 v=80
273840 On ch=1 n=d4 v=0
273840 On ch=1 n=f4 v=72
273960 On ch=1 n=f4 v=0
273960 On ch=1 n=a#4 v=0
273960 On ch=1 n=a4 v=72
274080 On ch=1 n=a4 v=0
274080 On ch=1 n=d#5 v=65
274200 On ch=1 n=d#4 v=65
274320 On ch=1 n=d#4 v=0
274320 On ch=1 n=a#4 v=65
274440 On ch=1 n=a#4 v=0
274440 On ch=1 n=d#5 v=0
274440 On ch=1 n=d5 v=65
274560 On ch=1 n=d5 v=0
274560 On ch=1 n=c5 v=90
274680 On ch=1 n=d#4 v=65
274800 On ch=1 n=d#4 v=0
274800 On ch=1 n=a4 v=65
274920 On ch=1 n=a4 v=0
274920 On ch=1 n=c5 v=0
274920 On ch=1 n=c5 v=65
275040 On ch=1 n=c5 v=0
275040 On ch=1 n=d#5 v=65
275160 On ch=1 n=a5 v=65
275280 On ch=1 n=a5 v=0
275280 On ch=1 n=c6 v=65
275400 On ch=1 n=c6 v=0
275400 On ch=1 n=d#5 v=0
275400 On ch=1 n=d#6 v=65
275520 On ch=1 n=d#6 v=0
275520 On ch=1 n=d6 v=65
275640 On ch=1 n=d5 v=65
275760 On ch=1 n=d5 v=0
275760 On ch=1 n=a5 v=65
275880 On ch=1 n=a5 v=0
275880 On ch=1 n=d6 v=0
275880 On ch=1 n=c6 v=65
276000 On ch=1 n=c6 v=0
276000 On ch=1 n=a#5 v=65
276120 On ch=1 n=d5 v=65
276240 On ch=1 n=d5 v=0
276240 On ch=1 n=g5 v=65
276360 On ch=1 n=g5 v=0
276360 On ch=1 n=a#5 v=0
276360 On ch=1 n=a#5 v=65
276480 On ch=1 n=a#5 v=0
276480 On ch=1 n=d6 v=65
276600 On ch=1 n=g6 v=65
276720 On ch=1 n=g6 v=0
276720 On ch=1 n=a#6 v=65
276840 On ch=1 n=a#6 v=0
276840 On ch=1 n=d7 v=65
276960 On ch=1 n=d7 v=0
276960 On ch=1 n=d6 v=0
276960 On ch=1 n=c5 v=65
277080 On ch=1 n=d#4 v=65
277200 On ch=1 n=d#4 v=0
277200 On ch=1 n=g4 v=65
277320 On ch=1 n=g4 v=0
277320 On ch=1 n=c5 v=0
277320 On ch=1 n=a#4 v=65
277440 On ch=1 n=a#4 v=0
277440 On ch=1 n=a4 v=65
277560 On ch=1 n=c4 v=65
277680 On ch=1 n=c4 v=0
277680 On ch=1 n=f4 v=65
277800 On ch=1 n=f4 v=0
277800 On ch=1 n=a4 v=0
277800 On ch=1 n=a4 v=65
277920 On ch=1 n=a4 v=0
277920 On ch=1 n=c5 v=65
278040 On ch=1 n=f5 v=65
278160 On ch=1 n=f5 v=0
278160 On ch=1 n=a5 v=65
278280 On ch=1 n=a5 v=0
278280 On ch=1 n=c6 v=65
278400 On ch=1 n=c6 v=0
278400 On ch=1 n=c5 v=0
278400 On ch=1 n=a#5 v=65
278520 On ch=1 n=a#4 v=65
278640 On ch=1 n=a#4 v=0
278640 On ch=1 n=f5 v=65
278760 On ch=1 n=f5 v=0
278760 On ch=1 n=a#5 v=0
278760 On ch=1 n=a5 v=65
278880 On ch=1 n=a5 v=0
278880 On ch=1 n=g5 v=65
279000 On ch=1 n=a#4 v=65
279120 On ch=1 n=a#4 v=0
279120 On ch=1 n=d#5 v=65
279240 On ch=1 n=d#5 v=0
279240 On ch=1 n=g5 v=0
279240 On ch=1 n=g5 v=65
279360 On ch=1 n=g5 v=0
279360 On ch=1 n=a#5 v=65
279480 On ch=1 n=d#6 v=65
279600 On ch=1 n=d#6 v=0
279600 On ch=1 n=g6 v=65
279720 On ch=1 n=g6 v=0
279720 On ch=1 n=a#6 v=65
279840 On ch=1 n=a#6 v=0
279840 On ch=1 n=a#5 v=0
279840 On ch=1 n=a4 v=65
279960 On ch=1 n=a3 v=65
280080 On ch=1 n=a3 v=0
280080 On ch=1 n=d#4 v=65
280200 On ch=1 n=d#4 v=0
280200 On ch=1 n=a4 v=0
280200 On ch=1 n=g4 v=65
280320 On ch=1 n=g4 v=0
280320 On ch=1 n=f#4 v=70
280440 On ch=1 n=a3 v=70
280560 On ch=1 n=a3 v=0
280560 On ch=1 n=d4 v=75
280680 On ch=1 n=d4 v=0
280680 On ch=1 n=f#4 v=0
280680 On ch=1 n=f#4 v=75
280800 On ch=1 n=f#4 v=0
280800 On ch=1 n=a4 v=80
280920 On ch=1 n=d5 v=80
281040 On ch=1 n=d5 v=0
281040 On ch=1 n=f#5 v=85
281160 On ch=1 n=f#5 v=0
281160 On ch=1 n=a5 v=85
281280 On ch=1 n=a5 v=0
281280 On ch=1 n=a4 v=0
281280 On ch=1 n=d6 v=90
281400 On ch=1 n=d5 v=90
281520 On ch=1 n=d5 v=0
281520 On ch=1 n=a5 v=90
281640 On ch=1 n=a5 v=0
281640 On ch=1 n=d6 v=0
281640 On ch=1 n=c6 v=90
281760 On ch=1 n=c6 v=0
281760 On ch=1 n=a#5 v=92
281880 On ch=1 n=d5 v=92
282000 On ch=1 n=d5 v=0
282000 On ch=1 n=g5 v=95
282120 On ch=1 n=g5 v=0
282120 On ch=1 n=a#5 v=0
282120 On ch=1 n=a#5 v=95
282240 On ch=1 n=a#5 v=0
282240 On ch=1 n=d6 v=97
282360 On ch=1 n=g6 v=97
282480 On ch=1 n=g6 v=0
282480 On ch=1 n=a#6 v=99
282600 On ch=1 n=a#6 v=0
282600 On ch=1 n=d7 v=99
282720 On ch=1 n=d7 v=0
282720 On ch=1 n=d6 v=0
282720 On ch=1 n=g5 v=102
282840 On ch=1 n=g4 v=102
282960 On ch=1 n=g4 v=0
282960 On ch=1 n=d5 v=102
283080 On ch=1 n=d5 v=0
283080 On ch=1 n=g5 v=0
283080 On ch=1 n=f5 v=102
283200 On ch=1 n=f5 v=0
283200 On ch=1 n=d#5 v=105
283320 On ch=1 n=g4 v=105
283440 On ch=1 n=g4 v=0
283440 On ch=1 n=c5 v=109
283560 On ch=1 n=c5 v=0
283560 On ch=1 n=d#5 v=0
283560 On ch=1 n=d#5 v=109
283680 On ch=1 n=d#5 v=0
283680 On ch=1 n=g5 v=112
283800 On ch=1 n=c6 v=112
283920 On ch=1 n=c6 v=0
283920 On ch=1 n=d#6 v=116
284040 On ch=1 n=d#6 v=0
284040 On ch=1 n=g6 v=116
284160 On ch=1 n=g6 v=0
284160 On ch=1 n=g5 v=0
284160 On ch=1 n=a5 v=120
284160 On ch=1 n=d6 v=120
284160 On ch=1 n=f#6 v=120
284640 On ch=1 n=f#6 v=0
284640 On ch=1 n=d6 v=0
284640 On ch=1 n=a5 v=0
284640 On ch=1 n=a#5 v=120
284640 On ch=1 n=d6 v=120
284640 On ch=1 n=g6 v=120
285600 On ch=1 n=g6 v=0
285600 On ch=1 n=d6 v=0
285600 On ch=1 n=a#5 v=0
285600 On ch=1 n=d5 v=65
285720 On ch=1 n=d4 v=65
285840 On ch=1 n=d4 v=0
285840 On ch=1 n=g#4 v=65
285960 On ch=1 n=g#4 v=0
285960 On ch=1 n=d5 v=0
285960 On ch=1 n=c5 v=65
286080 On ch=1 n=c5 v=0
286080 On ch=1 n=a#4 v=70
286200 On ch=1 n=d#4 v=70
286320 On ch=1 n=d#4 v=0
286320 On ch=1 n=g#4 v=70
286440 On ch=1 n=g#4 v=0
286440 On ch=1 n=a#4 v=0
286440 On ch=1 n=a#4 v=70
286560 On ch=1 n=a#4 v=0
286560 On ch=1 n=g5 v=70
286680 On ch=1 n=e4 v=70
286800 On ch=1 n=e4 v=0
286800 On ch=1 n=a#4 v=70
286920 On ch=1 n=a#4 v=0
286920 On ch=1 n=g5 v=0
286920 On ch=1 n=g5 v=70
287040 On ch=1 n=g5 v=0
287040 On ch=1 n=f5 v=70
287160 On ch=1 n=f4 v=70
287280 On ch=1 n=f4 v=0
287280 On ch=1 n=a#4 v=70
287400 On ch=1 n=a#4 v=0
287400 On ch=1 n=f5 v=0
287400 On ch=1 n=d#5 v=70
287520 On ch=1 n=d#5 v=0
287520 On ch=1 n=d5 v=75
287640 On ch=1 n=g4 v=75
287760 On ch=1 n=g4 v=0
287760 On ch=1 n=a#4 v=75
287880 On ch=1 n=a#4 v=0
287880 On ch=1 n=d5 v=0
287880 On ch=1 n=d5 v=75
288000 On ch=1 n=d5 v=0
288000 On ch=1 n=g#5 v=75
288120 On ch=1 n=g#4 v=75
288240 On ch=1 n=g#4 v=0
288240 On ch=1 n=d5 v=75
288360 On ch=1 n=d5 v=0
288360 On ch=1 n=g#5 v=0
288360 On ch=1 n=g#5 v=75
288480 On ch=1 n=g#5 v=0
288480 On ch=1 n=g5 v=75
288600 On ch=1 n=g#4 v=75
288720 On ch=1 n=g#4 v=0
288720 On ch=1 n=d5 v=75
288840 On ch=1 n=d5 v=0
288840 On ch=1 n=g5 v=0
288840 On ch=1 n=f5 v=75
288960 On ch=1 n=f5 v=0
288960 On ch=1 n=e5 v=80
289080 On ch=1 n=a#4 v=80
289200 On ch=1 n=a#4 v=0
289200 On ch=1 n=c#5 v=80
289320 On ch=1 n=c#5 v=0
289320 On ch=1 n=e5 v=0
289320 On ch=1 n=e5 v=80
289440 On ch=1 n=e5 v=0
289440 On ch=1 n=a#5 v=80
289560 On ch=1 n=c#5 v=80
289680 On ch=1 n=c#5 v=0
289680 On ch=1 n=e5 v=80
289800 On ch=1 n=e5 v=0
289800 On ch=1 n=a#5 v=0
289800 On ch=1 n=a#5 v=80
289920 On ch=1 n=a#5 v=0
289920 On ch=1 n=g#5 v=80
290040 On ch=1 n=c#5 v=80
290160 On ch=1 n=c#5 v=0
290160 On ch=1 n=e5 v=80
290280 On ch=1 n=e5 v=0
290280 On ch=1 n=g#5 v=0
290280 On ch=1 n=g5 v=80
290400 On ch=1 n=g5 v=0
290400 On ch=1 n=f#5 v=85
290520 On ch=1 n=c5 v=85
290640 On ch=1 n=c5 v=0
290640 On ch=1 n=d#5 v=85
290760 On ch=1 n=d#5 v=0
290760 On ch=1 n=f#5 v=0
290760 On ch=1 n=f#5 v=85
290880 On ch=1 n=f#5 v=0
290880 On ch=1 n=c6 v=85
291000 On ch=1 n=d#5 v=85
291120 On ch=1 n=d#5 v=0
291120 On ch=1 n=f#5 v=85
291240 On ch=1 n=f#5 v=0
291240 On ch=1 n=c6 v=0
291240 On ch=1 n=c6 v=85
291360 On ch=1 n=c6 v=0
291360 On ch=1 n=a#5 v=85
291480 On ch=1 n=d5 v=85
291600 On ch=1 n=d5 v=0
291600 On ch=1 n=f#5 v=85
291720 On ch=1 n=f#5 v=0
291720 On ch=1 n=a#5 v=0
291720 On ch=1 n=a5 v=85
291840 On ch=1 n=a5 v=0
291840 On ch=1 n=g#5 v=90
291960 On ch=1 n=d5 v=90
292080 On ch=1 n=d5 v=0
292080 On ch=1 n=f5 v=90
292200 On ch=1 n=f5 v=0
292200 On ch=1 n=g#5 v=0
292200 On ch=1 n=g#5 v=90
292320 On ch=1 n=g#5 v=0
292320 On ch=1 n=d6 v=90
292440 On ch=1 n=f5 v=90
292560 On ch=1 n=f5 v=0
292560 On ch=1 n=a5 v=90
292680 On ch=1 n=a5 v=0
292680 On ch=1 n=d6 v=0
292680 On ch=1 n=d6 v=90
292800 On ch=1 n=d6 v=0
292800 On ch=1 n=c6 v=90
292920 On ch=1 n=f5 v=90
293040 On ch=1 n=f5 v=0
293040 On ch=1 n=a5 v=90
293160 On ch=1 n=a5 v=0
293160 On ch=1 n=c6 v=0
293160 On ch=1 n=b5 v=90
293280 On ch=1 n=b5 v=0
293280 On ch=1 n=a#5 v=96
293400 On ch=1 n=e5 v=96
293520 On ch=1 n=e5 v=0
293520 On ch=1 n=g5 v=96
293640 On ch=1 n=g5 v=0
293640 On ch=1 n=a#5 v=0
293640 On ch=1 n=a#5 v=96
293760 On ch=1 n=a#5 v=0
293760 On ch=1 n=e6 v=96
293880 On ch=1 n=g5 v=96
294000 On ch=1 n=g5 v=0
294000 On ch=1 n=a#5 v=96
294120 On ch=1 n=a#5 v=0
294120 On ch=1 n=e6 v=0
294120 On ch=1 n=e6 v=96
294240 On ch=1 n=e6 v=0
294240 On ch=1 n=d6 v=96
294360 On ch=1 n=g5 v=96
294480 On ch=1 n=g5 v=0
294480 On ch=1 n=a#5 v=96
294600 On ch=1 n=a#5 v=0
294600 On ch=1 n=d6 v=0
294600 On ch=1 n=c#6 v=96
294720 On ch=1 n=c#6 v=0
294720 On ch=1 n=d6 v=102
294840 On ch=1 n=f5 v=102
294960 On ch=1 n=f5 v=0
294960 On ch=1 n=a5 v=102
295080 On ch=1 n=a5 v=0
295080 On ch=1 n=d6 v=0
295080 On ch=1 n=d6 v=102
295200 On ch=1 n=d6 v=0
295200 On ch=1 n=a#5 v=102
295320 On ch=1 n=d5 v=102
295440 On ch=1 n=d5 v=0
295440 On ch=1 n=g5 v=102
295560 On ch=1 n=g5 v=0
295560 On ch=1 n=a#5 v=0
295560 On ch=1 n=a#5 v=102
295680 On ch=1 n=a#5 v=0
295680 On ch=1 n=a5 v=102
295800 On ch=1 n=c#5 v=102
295920 On ch=1 n=c#5 v=0
295920 On ch=1 n=e5 v=102
296040 On ch=1 n=e5 v=0
296040 On ch=1 n=a5 v=0
296040 On ch=1 n=a5 v=102
296160 On ch=1 n=a5 v=0
296160 On ch=1 n=d6 v=102
296280 On ch=1 n=d5 v=102
296400 On ch=1 n=d5 v=0
296400 On ch=1 n=a5 v=102
296520 On ch=1 n=a5 v=0
296520 On ch=1 n=d6 v=0
296520 On ch=1 n=c6 v=102
296640 On ch=1 n=c6 v=0
296640 On ch=1 n=a#5 v=102
296760 On ch=1 n=c#5 v=102
296880 On ch=1 n=c#5 v=0
296880 On ch=1 n=e5 v=102
297000 On ch=1 n=e5 v=0
297000 On ch=1 n=a#5 v=0
297000 On ch=1 n=a5 v=102
297120 On ch=1 n=a5 v=0
297120 On ch=1 n=d6 v=102
297240 On ch=1 n=d5 v=102
297360 On ch=1 n=d5 v=0
297360 On ch=1 n=a5 v=102
297480 On ch=1 n=a5 v=0
297480 On ch=1 n=d6 v=0
297480 On ch=1 n=c6 v=102
297600 On ch=1 n=c6 v=0
297600 On ch=1 n=a#5 v=102
297720 On ch=1 n=c#5 v=102
297840 On ch=1 n=c#5 v=0
297840 On ch=1 n=e5 v=102
297960 On ch=1 n=e5 v=0
297960 On ch=1 n=a#5 v=0
297960 On ch=1 n=a5 v=102
298080 On ch=1 n=a5 v=0
298080 On ch=1 n=d6 v=102
298200 On ch=1 n=d5 v=102
298320 On ch=1 n=d5 v=0
298320 On ch=1 n=a5 v=102
298440 On ch=1 n=a5 v=0
298440 On ch=1 n=d6 v=0
298440 On ch=1 n=c6 v=102
298560 On ch=1 n=c6 v=0
298560 On ch=1 n=a#5 v=102
298680 On ch=1 n=d5 v=102
298800 On ch=1 n=d5 v=0
298800 On ch=1 n=e5 v=102
298920 On ch=1 n=e5 v=0
298920 On ch=1 n=a#5 v=0
298920 On ch=1 n=g5 v=102
299040 On ch=1 n=g5 v=0
299040 On ch=1 n=a5 v=102
299160 On ch=1 n=c#5 v=102
299280 On ch=1 n=c#5 v=0
299280 On ch=1 n=e5 v=102
299400 On ch=1 n=e5 v=0
299400 On ch=1 n=a5 v=0
299400 On ch=1 n=a5 v=102
299520 On ch=1 n=a5 v=0
299520 On ch=1 n=d5 v=95
299640 On ch=1 n=f#4 v=95
299760 On ch=1 n=f#4 v=0
299760 On ch=1 n=a4 v=87
299880 On ch=1 n=a4 v=0
299880 On ch=1 n=d5 v=0
299880 On ch=1 n=c5 v=87
300000 On ch=1 n=c5 v=0
300000 On ch=1 n=a#4 v=80
300120 On ch=1 n=d4 v=80
300240 On ch=1 n=d4 v=0
300240 On ch=1 n=f4 v=72
300360 On ch=1 n=f4 v=0
300360 On ch=1 n=a#4 v=0
300360 On ch=1 n=a4 v=72
300480 On ch=1 n=a4 v=0
300480 On ch=1 n=d#5 v=65
300600 On ch=1 n=d#4 v=65
300720 On ch=1 n=d#4 v=0
300720 On ch=1 n=a#4 v=65
300840 On ch=1 n=a#4 v=0
300840 On ch=1 n=d#5 v=0
300840 On ch=1 n=d5 v=65
300960 On ch=1 n=d5 v=0
300960 On ch=1 n=c5 v=90
301080 On ch=1 n=d#4 v=65
301200 On ch=1 n=d#4 v=0
301200 On ch=1 n=a4 v=65
301320 On ch=1 n=a4 v=0
301320 On ch=1 n=c5 v=0
301320 On ch=1 n=c5 v=65
301440 On ch=1 n=c5 v=0
301440 On ch=1 n=d#5 v=65
301560 On ch=1 n=a5 v=65
301680 On ch=1 n=a5 v=0
301680 On ch=1 n=c6 v=65
301800 On ch=1 n=c6 v=0
301800 On ch=1 n=d#5 v=0
301800 On ch=1 n=d#6 v=65
301920 On ch=1 n=d#6 v=0
301920 On ch=1 n=d6 v=65
302040 On ch=1 n=d5 v=65
302160 On ch=1 n=d5 v=0
302160 On ch=1 n=a5 v=65
302280 On ch=1 n=a5 v=0
302280 On ch=1 n=d6 v=0
302280 On ch=1 n=c6 v=65
302400 On ch=1 n=c6 v=0
302400 On ch=1 n=a#5 v=65
302520 On ch=1 n=d5 v=65
302640 On ch=1 n=d5 v=0
302640 On ch=1 n=g5 v=65
302760 On ch=1 n=g5 v=0
302760 On ch=1 n=a#5 v=0
302760 On ch=1 n=a#5 v=65
302880 On ch=1 n=a#5 v=0
302880 On ch=1 n=d6 v=65
303000 On ch=1 n=g6 v=65
303120 On ch=1 n=g6 v=0
303120 On ch=1 n=a#6 v=65
303240 On ch=1 n=a#6 v=0
303240 On ch=1 n=d7 v=65
303360 On ch=1 n=d7 v=0
303360 On ch=1 n=d6 v=0
303360 On ch=1 n=c5 v=65
303480 On ch=1 n=d#4 v=65
303600 On ch=1 n=d#4 v=0
303600 On ch=1 n=g4 v=65
303720 On ch=1 n=g4 v=0
303720 On ch=1 n=c5 v=0
303720 On ch=1 n=a#4 v=65
303840 On ch=1 n=a#4 v=0
303840 On ch=1 n=a4 v=65
303960 On ch=1 n=c4 v=65
304080 On ch=1 n=c4 v=0
304080 On ch=1 n=f4 v=65
304200 On ch=1 n=f4 v=0
304200 On ch=1 n=a4 v=0
304200 On ch=1 n=a4 v=65
304320 On ch=1 n=a4 v=0
304320 On ch=1 n=c5 v=65
304440 On ch=1 n=f5 v=65
304560 On ch=1 n=f5 v=0
304560 On ch=1 n=a5 v=65
304680 On ch=1 n=a5 v=0
304680 On ch=1 n=c6 v=65
304800 On ch=1 n=c6 v=0
304800 On ch=1 n=c5 v=0
304800 On ch=1 n=a#5 v=65
304920 On ch=1 n=a#4 v=65
305040 On ch=1 n=a#4 v=0
305040 On ch=1 n=f5 v=65
305160 On ch=1 n=f5 v=0
305160 On ch=1 n=a#5 v=0
305160 On ch=1 n=a5 v=65
305280 On ch=1 n=a5 v=0
305280 On ch=1 n=g5 v=65
305400 On ch=1 n=a#4 v=65
305520 On ch=1 n=a#4 v=0
305520 On ch=1 n=d#5 v=65
305640 On ch=1 n=d#5 v=0
305640 On ch=1 n=g5 v=0
305640 On ch=1 n=g5 v=65
305760 On ch=1 n=g5 v=0
305760 On ch=1 n=a#5 v=65
305880 On ch=1 n=d#6 v=65
306000 On ch=1 n=d#6 v=0
306000 On ch=1 n=g6 v=65
306120 On ch=1 n=g6 v=0
306120 On ch=1 n=a#6 v=65
306240 On ch=1 n=a#6 v=0
306240 On ch=1 n=a#5 v=0
306240 On ch=1 n=a4 v=65
306360 On ch=1 n=a3 v=65
306480 On ch=1 n=a3 v=0
306480 On ch=1 n=d#4 v=65
306600 On ch=1 n=d#4 v=0
306600 On ch=1 n=a4 v=0
306600 On ch=1 n=g4 v=65
306720 On ch=1 n=g4 v=0
306720 On ch=1 n=f#4 v=70
306840 On ch=1 n=a3 v=70
306960 On ch=1 n=a3 v=0
306960 On ch=1 n=d4 v=75
307080 On ch=1 n=d4 v=0
307080 On ch=1 n=f#4 v=0
307080 On ch=1 n=f#4 v=75
307200 On ch=1 n=f#4 v=0
307200 On ch=1 n=a4 v=80
307320 On ch=1 n=d5 v=80
307440 On ch=1 n=d5 v=0
307440 On ch=1 n=f#5 v=85
307560 On ch=1 n=f#5 v=0
307560 On ch=1 n=a5 v=85
307680 On ch=1 n=a5 v=0
307680 On ch=1 n=a4 v=0
307680 On ch=1 n=d6 v=90
307800 On ch=1 n=d5 v=90
307920 On ch=1 n=d5 v=0
307920 On ch=1 n=a5 v=90
308040 On ch=1 n=a5 v=0
308040 On ch=1 n=d6 v=0
308040 On ch=1 n=c6 v=90
308160 On ch=1 n=c6 v=0
308160 On ch=1 n=a#5 v=92
308280 On ch=1 n=d5 v=92
308400 On ch=1 n=d5 v=0
308400 On ch=1 n=g5 v=95
308520 On ch=1 n=g5 v=0
308520 On ch=1 n=a#5 v=0
308520 On ch=1 n=a#5 v=95
308640 On ch=1 n=a#5 v=0
308640 On ch=1 n=d6 v=97
308760 On ch=1 n=g6 v=97
308880 On ch=1 n=g6 v=0
308880 On ch=1 n=a#6 v=99
309000 On ch=1 n=a#6 v=0
309000 On ch=1 n=d7 v=99
309120 On ch=1 n=d7 v=0
309120 On ch=1 n=d6 v=0
309120 On ch=1 n=g5 v=102
309240 On ch=1 n=g4 v=102
309360 On ch=1 n=g4 v=0
309360 On ch=1 n=d5 v=102
309480 On ch=1 n=d5 v=0
309480 On ch=1 n=g5 v=0
309480 On ch=1 n=f5 v=102
309600 On ch=1 n=f5 v=0
309600 On ch=1 n=d#5 v=105
309720 On ch=1 n=g4 v=105
309840 On ch=1 n=g4 v=0
309840 On ch=1 n=c5 v=109
309960 On ch=1 n=c5 v=0
309960 On ch=1 n=d#5 v=0
309960 On ch=1 n=d#5 v=109
310080 On ch=1 n=d#5 v=0
310080 On ch=1 n=g5 v=112
310200 On ch=1 n=c6 v=112
310320 On ch=1 n=c6 v=0
310320 On ch=1 n=d#6 v=116
310440 On ch=1 n=d#6 v=0
310440 On ch=1 n=g6 v=116
310560 On ch=1 n=g6 v=0
310560 On ch=1 n=g5 v=0
310560 On ch=1 n=a5 v=120
310560 On ch=1 n=d6 v=120
310560 On ch=1 n=f#6 v=120
311040 On ch=1 n=f#6 v=0
311040 On ch=1 n=d6 v=0
311040 On ch=1 n=a5 v=0
311040 On ch=1 n=a#5 v=120
311040 On ch=1 n=d6 v=120
311040 On ch=1 n=g6 v=120
312000 On ch=1 n=g6 v=0
312000 On ch=1 n=d6 v=0
312000 On ch=1 n=a#5 v=0
312000 On ch=1 n=c#5 v=90
312000 On ch=1 n=g5 v=90
312000 On ch=1 n=a#4 v=90
312240 On ch=1 n=c#5 v=0
312240 On ch=1 n=d5 v=90
312480 On ch=1 n=d5 v=0
312480 On ch=1 n=d#5 v=94
312720 On ch=1 n=d#5 v=0
312720 On ch=1 n=e5 v=98
312960 On ch=1 n=e5 v=0
312960 On ch=1 n=a#4 v=0
312960 On ch=1 n=g5 v=0
312960 On ch=1 n=f5 v=102
312960 On ch=1 n=c#5 v=102
312960 On ch=1 n=a4 v=102
313200 On ch=1 n=a4 v=0
313200 On ch=1 n=f5 v=0
313200 On ch=1 n=e5 v=102
313200 On ch=1 n=g4 v=102
313440 On ch=1 n=g4 v=0
313440 On ch=1 n=e5 v=0
313440 On ch=1 n=c#5 v=0
313440 On ch=1 n=d5 v=102
313440 On ch=1 n=f4 v=102
313680 On ch=1 n=f4 v=0
313680 On ch=1 n=d5 v=0
313680 On ch=1 n=e5 v=99
313680 On ch=1 n=e4 v=99
313920 On ch=1 n=e5 v=0
313920 On ch=1 n=c#5 v=96
314160 On ch=1 n=c#5 v=0
314160 On ch=1 n=e4 v=0
314160 On ch=1 n=d4 v=93
314160 On ch=1 n=d5 v=93
314400 On ch=1 n=d5 v=0
314400 On ch=1 n=a#4 v=90
314880 On ch=1 n=d4 v=0
314880 On ch=1 n=c#4 v=92
315120 On ch=1 n=c#4 v=0
315120 On ch=1 n=d4 v=95
315360 On ch=1 n=d4 v=0
315360 On ch=1 n=d#4 v=97
315600 On ch=1 n=d#4 v=0
315600 On ch=1 n=e4 v=99
315840 On ch=1 n=a#4 v=0
315840 On ch=1 n=a4 v=102
316080 On ch=1 n=a4 v=0
316080 On ch=1 n=g4 v=102
316320 On ch=1 n=g4 v=0
316320 On ch=1 n=e4 v=0
316320 On ch=1 n=d4 v=96
316320 On ch=1 n=f4 v=96
316560 On ch=1 n=f4 v=0
316560 On ch=1 n=g4 v=90
316800 On ch=1 n=g4 v=0
316800 On ch=1 n=e4 v=90
317040 On ch=1 n=e4 v=0
317040 On ch=1 n=d4 v=0
317040 On ch=1 n=c#4 v=84
317040 On ch=1 n=f4 v=84
317280 On ch=1 n=f4 v=0
317280 On ch=1 n=c#4 v=0
317280 On ch=1 n=d4 v=78
317760 On ch=1 n=d4 v=0
317760 On ch=1 n=c#5 v=72
317760 On ch=1 n=g5 v=65
317760 On ch=1 n=a#4 v=65
318000 On ch=1 n=c#5 v=0
318000 On ch=1 n=d5 v=65
318240 On ch=1 n=d5 v=0
318240 On ch=1 n=d#5 v=65
318480 On ch=1 n=d#5 v=0
318480 On ch=1 n=e5 v=65
318720 On ch=1 n=e5 v=0
318720 On ch=1 n=a#4 v=0
318720 On ch=1 n=g5 v=0
318720 On ch=1 n=f5 v=65
318720 On ch=1 n=a4 v=65
318720 On ch=1 n=c#5 v=65
318960 On ch=1 n=c#5 v=0
318960 On ch=1 n=a4 v=0
318960 On ch=1 n=f5 v=0
318960 On ch=1 n=g4 v=65
318960 On ch=1 n=e5 v=65
319200 On ch=1 n=e5 v=0
319200 On ch=1 n=g4 v=0
319200 On ch=1 n=d5 v=65
319200 On ch=1 n=f4 v=65
319440 On ch=1 n=f4 v=0
319440 On ch=1 n=d5 v=0
319440 On ch=1 n=g4 v=65
319440 On ch=1 n=e5 v=65
319680 On ch=1 n=e5 v=0
319680 On ch=1 n=g4 v=0
319680 On ch=1 n=e4 v=65
319680 On ch=1 n=c#5 v=65
319920 On ch=1 n=c#5 v=0
319920 On ch=1 n=e4 v=0
319920 On ch=1 n=d5 v=65
319920 On ch=1 n=f4 v=65
320160 On ch=1 n=f4 v=0
320160 On ch=1 n=d5 v=0
320160 On ch=1 n=d4 v=65
320160 On ch=1 n=a#4 v=65
320640 On ch=1 n=d4 v=0
320640 On ch=1 n=c#4 v=65
320880 On ch=1 n=c#4 v=0
320880 On ch=1 n=d4 v=65
321120 On ch=1 n=d4 v=0
321120 On ch=1 n=d#4 v=65
321360 On ch=1 n=d#4 v=0
321360 On ch=1 n=e4 v=65
321600 On ch=1 n=e4 v=0
321600 On ch=1 n=a#4 v=0
321600 On ch=1 n=a4 v=65
321840 On ch=1 n=g4 v=65
322080 On ch=1 n=g4 v=0
322080 On ch=1 n=a4 v=0
322080 On ch=1 n=d4 v=65
322080 On ch=1 n=f4 v=65
322320 On ch=1 n=f4 v=0
322320 On ch=1 n=g4 v=65
322560 On ch=1 n=g4 v=0
322560 On ch=1 n=e4 v=65
322800 On ch=1 n=e4 v=0
322800 On ch=1 n=d4 v=0
322800 On ch=1 n=c#4 v=65
322800 On ch=1 n=f4 v=65
323040 On ch=1 n=f4 v=0
323040 On ch=1 n=c#4 v=0
323040 On ch=1 n=d4 v=65
323520 On ch=1 n=d4 v=0
323520 On ch=1 n=d5 v=65
323520 On ch=1 n=f4 v=65
324480 On ch=1 n=f4 v=0
324480 On ch=1 n=a4 v=70
324720 On ch=1 n=a4 v=0
324720 On ch=1 n=g4 v=70
324960 On ch=1 n=g4 v=0
324960 On ch=1 n=d5 v=0
324960 On ch=1 n=e5 v=70
324960 On ch=1 n=g4 v=70
325920 On ch=1 n=g4 v=0
325920 On ch=1 n=a#4 v=75
326160 On ch=1 n=a#4 v=0
326160 On ch=1 n=a4 v=75
326400 On ch=1 n=a4 v=0
326400 On ch=1 n=e5 v=0
326400 On ch=1 n=a4 v=75
326400 On ch=1 n=f#5 v=75
327360 On ch=1 n=f#5 v=0
327360 On ch=1 n=a4 v=0
327360 On ch=1 n=c5 v=80
327360 On ch=1 n=c6 v=80
327600 On ch=1 n=c6 v=0
327600 On ch=1 n=c5 v=0
327600 On ch=1 n=b4 v=80
327600 On ch=1 n=b5 v=80
327840 On ch=1 n=b5 v=0
327840 On ch=1 n=b4 v=0
327840 On ch=1 n=b4 v=80
327840 On ch=1 n=g#5 v=80
328800 On ch=1 n=g#5 v=0
328800 On ch=1 n=b4 v=0
328800 On ch=1 n=d5 v=85
328800 On ch=1 n=d6 v=85
329040 On ch=1 n=d6 v=0
329040 On ch=1 n=d5 v=0
329040 On ch=1 n=c#5 v=85
329040 On ch=1 n=c#6 v=85
329280 On ch=1 n=c#6 v=0
329280 On ch=1 n=c#5 v=0
329280 On ch=1 n=c#6 v=90
329280 On ch=1 n=f#5 v=90
329520 On ch=1 n=f#5 v=0
329520 On ch=1 n=g#5 v=90
329760 On ch=1 n=g#5 v=0
329760 On ch=1 n=a#5 v=94
330000 On ch=1 n=a#5 v=0
330000 On ch=1 n=c#6 v=0
330000 On ch=1 n=c#6 v=98
330240 On ch=1 n=c#6 v=0
330240 On ch=1 n=f#6 v=102
330240 On ch=1 n=d#6 v=102
330480 On ch=1 n=d#6 v=0
330480 On ch=1 n=c#6 v=99
330720 On ch=1 n=c#6 v=0
330720 On ch=1 n=a#5 v=96
330960 On ch=1 n=a#5 v=0
330960 On ch=1 n=f#6 v=0
330960 On ch=1 n=c#6 v=93
330960 On ch=1 n=f#5 v=93
331200 On ch=1 n=f#5 v=0
331200 On ch=1 n=c#6 v=0
331200 On ch=1 n=f5 v=90
331200 On ch=1 n=c#6 v=90
331680 On ch=1 n=f5 v=0
332160 On ch=1 n=c#6 v=0
332160 On ch=1 n=f#5 v=53
332160 On ch=1 n=c#6 v=53
332400 On ch=1 n=f#5 v=0
332400 On ch=1 n=g#5 v=53
332640 On ch=1 n=g#5 v=0
332640 On ch=1 n=a#5 v=58
332880 On ch=1 n=a#5 v=0
332880 On ch=1 n=c#6 v=0
332880 On ch=1 n=c#6 v=63
333120 On ch=1 n=c#6 v=0
333120 On ch=1 n=f#6 v=68
333120 On ch=1 n=d#6 v=68
333360 On ch=1 n=d#6 v=0
333360 On ch=1 n=c#6 v=73
333600 On ch=1 n=c#6 v=0
333600 On ch=1 n=a#5 v=78
333840 On ch=1 n=a#5 v=0
333840 On ch=1 n=f#5 v=78
333960 On ch=1 n=f#6 v=0
333960 On ch=1 n=c#6 v=78
334080 On ch=1 n=c#6 v=0
334080 On ch=1 n=f#5 v=0
334080 On ch=1 n=e5 v=78
334080 On ch=1 n=c#6 v=78
335040 On ch=1 n=c#6 v=0
335040 On ch=1 n=e5 v=0
335040 On ch=1 n=a#4 v=65
335040 On ch=1 n=a#5 v=65
335280 On ch=1 n=a#5 v=0
335280 On ch=1 n=a#4 v=0
335280 On ch=1 n=c5 v=65
335280 On ch=1 n=c6 v=65
335520 On ch=1 n=c6 v=0
335520 On ch=1 n=c5 v=0
335520 On ch=1 n=d5 v=73
335520 On ch=1 n=d6 v=73
335760 On ch=1 n=d6 v=0
335760 On ch=1 n=d5 v=0
335760 On ch=1 n=f5 v=81
335760 On ch=1 n=f6 v=81
336000 On ch=1 n=f6 v=0
336000 On ch=1 n=f5 v=0
336000 On ch=1 n=g5 v=89
336000 On ch=1 n=g6 v=89
336240 On ch=1 n=g6 v=0
336240 On ch=1 n=g5 v=0
336240 On ch=1 n=f5 v=81
336240 On ch=1 n=f6 v=81
336480 On ch=1 n=f6 v=0
336480 On ch=1 n=f5 v=0
336480 On ch=1 n=d5 v=73
336480 On ch=1 n=d6 v=73
336840 On ch=1 n=d6 v=0
336840 On ch=1 n=d5 v=0
336840 On ch=1 n=a#4 v=65
336840 On ch=1 n=a#5 v=65
336960 On ch=1 n=a#5 v=0
336960 On ch=1 n=a#4 v=0
336960 On ch=1 n=a#4 v=65
336960 On ch=1 n=a#5 v=65
337920 On ch=1 n=a#5 v=0
337920 On ch=1 n=a#4 v=0
337920 On ch=1 n=a#4 v=65
337920 On ch=1 n=a#5 v=65
338160 On ch=1 n=a#5 v=0
338160 On ch=1 n=a#4 v=0
338160 On ch=1 n=c5 v=65
338160 On ch=1 n=c6 v=65
338400 On ch=1 n=c6 v=0
338400 On ch=1 n=c5 v=0
338400 On ch=1 n=d5 v=73
338400 On ch=1 n=d6 v=73
338640 On ch=1 n=d6 v=0
338640 On ch=1 n=d5 v=0
338640 On ch=1 n=f5 v=81
338640 On ch=1 n=f6 v=81
338880 On ch=1 n=f6 v=0
338880 On ch=1 n=f5 v=0
338880 On ch=1 n=g5 v=89
338880 On ch=1 n=g6 v=89
339120 On ch=1 n=g6 v=0
339120 On ch=1 n=g5 v=0
339120 On ch=1 n=f5 v=81
339120 On ch=1 n=f6 v=81
339360 On ch=1 n=f6 v=0
339360 On ch=1 n=f5 v=0
339360 On ch=1 n=d5 v=73
339360 On ch=1 n=d6 v=73
339720 On ch=1 n=d6 v=0
339720 On ch=1 n=d5 v=0
339720 On ch=1 n=a#4 v=65
339720 On ch=1 n=a#5 v=65
339840 On ch=1 n=a#5 v=0
339840 On ch=1 n=a#4 v=0
339840 On ch=1 n=a#4 v=65
339840 On ch=1 n=a#5 v=65
340800 On ch=1 n=a#5 v=0
340800 On ch=1 n=a#4 v=0
340800 On ch=1 n=a#4 v=65
340800 On ch=1 n=a#5 v=65
341040 On ch=1 n=a#5 v=0
341040 On ch=1 n=a#4 v=0
341040 On ch=1 n=c5 v=65
341040 On ch=1 n=c6 v=65
341280 On ch=1 n=c6 v=0
341280 On ch=1 n=c5 v=0
341280 On ch=1 n=a#4 v=73
341280 On ch=1 n=a#5 v=73
341520 On ch=1 n=a#5 v=0
341520 On ch=1 n=a#4 v=0
341520 On ch=1 n=d5 v=81
341520 On ch=1 n=d6 v=81
341760 On ch=1 n=d6 v=0
341760 On ch=1 n=d5 v=0
341760 On ch=1 n=d#5 v=89
341760 On ch=1 n=d#6 v=89
342000 On ch=1 n=d#6 v=0
342000 On ch=1 n=d#5 v=0
342000 On ch=1 n=d5 v=81
342000 On ch=1 n=d6 v=81
342240 On ch=1 n=d6 v=0
342240 On ch=1 n=d5 v=0
342240 On ch=1 n=a#4 v=73
342240 On ch=1 n=a#5 v=73
342600 On ch=1 n=a#5 v=0
342600 On ch=1 n=a#4 v=0
342600 On ch=1 n=g4 v=65
342600 On ch=1 n=g5 v=65
342720 On ch=1 n=g5 v=0
342720 On ch=1 n=g4 v=0
342720 On ch=1 n=f4 v=65
342720 On ch=1 n=f5 v=65
343200 On ch=1 n=f5 v=0
343200 On ch=1 n=f4 v=0
343680 On ch=1 n=g6 v=90
343680 On ch=1 n=g5 v=90
343920 On ch=1 n=g5 v=0
343920 On ch=1 n=g6 v=0
343920 On ch=1 n=f5 v=84
343920 On ch=1 n=f6 v=84
344160 On ch=1 n=f6 v=0
344160 On ch=1 n=f5 v=0
344160 On ch=1 n=d#5 v=78
344160 On ch=1 n=d#6 v=78
344320 On ch=1 n=d#6 v=0
344320 On ch=1 n=f6 v=78
344360 On ch=1 n=f6 v=0
344360 On ch=1 n=d#6 v=78
344400 On ch=1 n=d#6 v=0
344400 On ch=1 n=d#5 v=0
344400 On ch=1 n=f#5 v=78
344400 On ch=1 n=d6 v=78
344520 On ch=1 n=d6 v=0
344520 On ch=1 n=c6 v=84
344640 On ch=1 n=c6 v=0
344640 On ch=1 n=f#5 v=0
344640 On ch=1 n=f5 v=90
344640 On ch=1 n=a#5 v=90
344640 On ch=1 n=f6 v=90
345120 On ch=1 n=a#5 v=0
345120 On ch=1 n=f5 v=0
345120 On ch=1 n=d#5 v=102
345120 On ch=1 n=a5 v=102
345480 On ch=1 n=f6 v=0
345480 On ch=1 n=a#5 v=102
345600 On ch=1 n=a#5 v=0
345600 On ch=1 n=a5 v=0
345600 On ch=1 n=d#5 v=0
345600 On ch=1 n=d5 v=97
345600 On ch=1 n=a#5 v=97
346080 On ch=1 n=a#5 v=0
346080 On ch=1 n=d5 v=0
346560 On ch=1 n=g5 v=90
346560 On ch=1 n=d5 v=90
346800 On ch=1 n=d5 v=0
346800 On ch=1 n=g5 v=0
346800 On ch=1 n=a5 v=90
346800 On ch=1 n=c5 v=90
347040 On ch=1 n=c5 v=0
347040 On ch=1 n=a5 v=0
347040 On ch=1 n=a#4 v=90
347040 On ch=1 n=a#5 v=90
347280 On ch=1 n=a#5 v=0
347280 On ch=1 n=a#4 v=0
347280 On ch=1 n=a5 v=92
347280 On ch=1 n=c6 v=92
347520 On ch=1 n=c6 v=0
347520 On ch=1 n=a5 v=0
347520 On ch=1 n=g5 v=94
347520 On ch=1 n=d6 v=94
347760 On ch=1 n=d6 v=0
347760 On ch=1 n=g5 v=0
347760 On ch=1 n=f5 v=96
347760 On ch=1 n=e6 v=96
348000 On ch=1 n=e6 v=0
348000 On ch=1 n=f5 v=0
348000 On ch=1 n=e5 v=98
348000 On ch=1 n=f6 v=98
348240 On ch=1 n=f6 v=0
348240 On ch=1 n=e5 v=0
348240 On ch=1 n=d6 v=100
348240 On ch=1 n=g6 v=100
348480 On ch=1 n=g6 v=0
348480 On ch=1 n=d6 v=0
348480 On ch=1 n=c6 v=102
348480 On ch=1 n=a6 v=102
348720 On ch=1 n=a6 v=0
348720 On ch=1 n=c6 v=0
348720 On ch=1 n=e6 v=100
348720 On ch=1 n=g6 v=100
348960 On ch=1 n=g6 v=0
348960 On ch=1 n=e6 v=0
348960 On ch=1 n=a5 v=98
348960 On ch=1 n=f6 v=98
349200 On ch=1 n=f6 v=0
349200 On ch=1 n=a5 v=0
349200 On ch=1 n=c6 v=96
349200 On ch=1 n=e6 v=96
349440 On ch=1 n=e6 v=0
349440 On ch=1 n=c6 v=0
349440 On ch=1 n=g5 v=94
349440 On ch=1 n=d6 v=94
349680 On ch=1 n=d6 v=0
349680 On ch=1 n=g5 v=0
349680 On ch=1 n=a5 v=92
349680 On ch=1 n=c6 v=92
349920 On ch=1 n=c6 v=0
349920 On ch=1 n=a5 v=0
349920 On ch=1 n=e5 v=90
349920 On ch=1 n=a#5 v=90
350160 On ch=1 n=a#5 v=0
350160 On ch=1 n=e5 v=0
350160 On ch=1 n=f5 v=92
350160 On ch=1 n=a5 v=92
350400 On ch=1 n=a5 v=0
350400 On ch=1 n=f5 v=0
350400 On ch=1 n=c#5 v=94
350400 On ch=1 n=g5 v=94
350640 On ch=1 n=g5 v=0
350640 On ch=1 n=c#5 v=0
350640 On ch=1 n=d5 v=96
350640 On ch=1 n=f5 v=96
350880 On ch=1 n=f5 v=0
350880 On ch=1 n=d5 v=0
350880 On ch=1 n=d#5 v=98
350880 On ch=1 n=a5 v=98
351120 On ch=1 n=a5 v=0
351120 On ch=1 n=d#5 v=0
351120 On ch=1 n=e5 v=100
351120 On ch=1 n=g5 v=100
351360 On ch=1 n=g5 v=0
351360 On ch=1 n=e5 v=0
351360 On ch=1 n=f6 v=102
351360 On ch=1 n=f5 v=102
351600 On ch=1 n=f5 v=0
351600 On ch=1 n=f6 v=0
351600 On ch=1 n=d#5 v=93
351600 On ch=1 n=d#6 v=93
351840 On ch=1 n=d#6 v=0
351840 On ch=1 n=d#5 v=0
351840 On ch=1 n=d5 v=84
351840 On ch=1 n=d6 v=84
352080 On ch=1 n=d6 v=0
352080 On ch=1 n=d5 v=0
352080 On ch=1 n=c5 v=75
352080 On ch=1 n=c6 v=75
352320 On ch=1 n=c6 v=0
352320 On ch=1 n=c5 v=0
352320 On ch=1 n=a#4 v=65
352320 On ch=1 n=a#5 v=65
352560 On ch=1 n=a#5 v=0
352560 On ch=1 n=a#4 v=0
352560 On ch=1 n=c6 v=65
352560 On ch=1 n=c5 v=65
352800 On ch=1 n=c5 v=0
352800 On ch=1 n=c6 v=0
352800 On ch=1 n=d6 v=65
352800 On ch=1 n=d5 v=65
353040 On ch=1 n=d5 v=0
353040 On ch=1 n=c6 v=65
353280 On ch=1 n=c6 v=0
353280 On ch=1 n=a#5 v=65
353520 On ch=1 n=a#5 v=0
353520 On ch=1 n=a5 v=65
353760 On ch=1 n=a5 v=0
353760 On ch=1 n=d6 v=0
353760 On ch=1 n=d#6 v=65
353760 On ch=1 n=g5 v=65
354000 On ch=1 n=g5 v=0
354000 On ch=1 n=d#6 v=0
354000 On ch=1 n=f6 v=65
354000 On ch=1 n=f5 v=65
354240 On ch=1 n=f5 v=0
354240 On ch=1 n=f6 v=0
354240 On ch=1 n=d#5 v=65
354268 On ch=1 n=g6 v=65
354480 On ch=1 n=d#5 v=0
354480 On ch=1 n=f5 v=65
354720 On ch=1 n=f5 v=0
354720 On ch=1 n=g5 v=65
354960 On ch=1 n=g5 v=0
354960 On ch=1 n=g6 v=0
354960 On ch=1 n=f6 v=65
354960 On ch=1 n=a5 v=65
355200 On ch=1 n=a5 v=0
355200 On ch=1 n=f6 v=0
355200 On ch=1 n=d#6 v=65
355200 On ch=1 n=a#5 v=65
355440 On ch=1 n=a#5 v=0
355440 On ch=1 n=d#6 v=0
355440 On ch=1 n=b5 v=65
355440 On ch=1 n=d6 v=65
355680 On ch=1 n=d6 v=0
355680 On ch=1 n=b5 v=0
355680 On ch=1 n=c6 v=65
355920 On ch=1 n=a#5 v=65
356040 On ch=1 n=c6 v=0
356080 On ch=1 n=c6 v=65
356120 On ch=1 n=c6 v=0
356120 On ch=1 n=d6 v=65
356160 On ch=1 n=d6 v=0
356160 On ch=1 n=a#5 v=0
356160 On ch=1 n=a5 v=65
356160 On ch=1 n=c6 v=65
356400 On ch=1 n=c6 v=0
356400 On ch=1 n=a5 v=0
356400 On ch=1 n=g5 v=65
356400 On ch=1 n=d6 v=65
356640 On ch=1 n=d6 v=0
356640 On ch=1 n=g5 v=0
356640 On ch=1 n=d#6 v=65
356640 On ch=1 n=f5 v=65
356880 On ch=1 n=f5 v=0
356880 On ch=1 n=d#5 v=65
357120 On ch=1 n=d#5 v=0
357120 On ch=1 n=d#6 v=0
357120 On ch=1 n=d5 v=65
357148 On ch=1 n=f6 v=65
357360 On ch=1 n=d5 v=0
357360 On ch=1 n=f5 v=65
357600 On ch=1 n=f5 v=0
357600 On ch=1 n=a#5 v=65
357840 On ch=1 n=a#5 v=0
357840 On ch=1 n=f6 v=0
357840 On ch=1 n=d6 v=65
358080 On ch=1 n=d6 v=0
358080 On ch=1 n=a#5 v=53
358080 On ch=1 n=a#6 v=53
358320 On ch=1 n=a#6 v=0
358320 On ch=1 n=a#5 v=0
358320 On ch=1 n=c7 v=53
358320 On ch=1 n=c6 v=53
358560 On ch=1 n=c6 v=0
358560 On ch=1 n=c7 v=0
358560 On ch=1 n=d7 v=53
358560 On ch=1 n=d6 v=53
358800 On ch=1 n=d6 v=0
358800 On ch=1 n=c7 v=53
359040 On ch=1 n=c7 v=0
359040 On ch=1 n=a#6 v=53
359280 On ch=1 n=a#6 v=0
359280 On ch=1 n=a6 v=53
359520 On ch=1 n=a6 v=0
359520 On ch=1 n=d7 v=0
359520 On ch=1 n=d#7 v=53
359520 On ch=1 n=g6 v=53
359760 On ch=1 n=g6 v=0
359760 On ch=1 n=d#7 v=0
359760 On ch=1 n=f7 v=53
359760 On ch=1 n=f6 v=53
360000 On ch=1 n=f6 v=0
360000 On ch=1 n=f7 v=0
360000 On ch=1 n=d#6 v=53
360028 On ch=1 n=g7 v=53
360240 On ch=1 n=d#6 v=0
360240 On ch=1 n=f6 v=53
360480 On ch=1 n=f6 v=0
360480 On ch=1 n=g6 v=53
360720 On ch=1 n=g6 v=0
360720 On ch=1 n=g7 v=0
360720 On ch=1 n=f7 v=53
360720 On ch=1 n=a6 v=53
360960 On ch=1 n=a6 v=0
360960 On ch=1 n=f7 v=0
360960 On ch=1 n=d#7 v=53
360960 On ch=1 n=a#6 v=53
361200 On ch=1 n=a#6 v=0
361200 On ch=1 n=d#7 v=0
361200 On ch=1 n=b6 v=53
361200 On ch=1 n=d7 v=53
361440 On ch=1 n=d7 v=0
361440 On ch=1 n=b6 v=0
361440 On ch=1 n=c7 v=53
361680 On ch=1 n=a#6 v=53
361800 On ch=1 n=c7 v=0
361840 On ch=1 n=c7 v=53
361880 On ch=1 n=c7 v=0
361880 On ch=1 n=d7 v=53
361920 On ch=1 n=d7 v=0
361920 On ch=1 n=a#6 v=0
361920 On ch=1 n=a6 v=53
361920 On ch=1 n=c7 v=53
362160 On ch=1 n=c7 v=0
362160 On ch=1 n=a6 v=0
362160 On ch=1 n=g6 v=53
362160 On ch=1 n=d7 v=53
362400 On ch=1 n=d7 v=0
362400 On ch=1 n=g6 v=0
362400 On ch=1 n=d#7 v=53
362400 On ch=1 n=f6 v=53
362640 On ch=1 n=f6 v=0
362640 On ch=1 n=d#6 v=53
362880 On ch=1 n=d#6 v=0
362880 On ch=1 n=d#7 v=0
362880 On ch=1 n=d6 v=53
362908 On ch=1 n=f7 v=53
363120 On ch=1 n=d6 v=0
363120 On ch=1 n=d#6 v=53
363360 On ch=1 n=d#6 v=0
363360 On ch=1 n=f6 v=53
363600 On ch=1 n=f6 v=0
363600 On ch=1 n=f7 v=0
363600 On ch=1 n=d#7 v=53
363600 On ch=1 n=g6 v=53
363840 On ch=1 n=g6 v=0
363840 On ch=1 n=d#7 v=0
363840 On ch=1 n=d7 v=53
363840 On ch=1 n=g#6 v=53
364080 On ch=1 n=g#6 v=0
364080 On ch=1 n=d7 v=0
364080 On ch=1 n=c7 v=53
364080 On ch=1 n=a6 v=53
364320 On ch=1 n=a6 v=0
364320 On ch=1 n=c7 v=0
364320 On ch=1 n=a#6 v=53
364560 On ch=1 n=a6 v=53
364720 On ch=1 n=a#6 v=0
364720 On ch=1 n=a#6 v=53
364760 On ch=1 n=a#6 v=0
364760 On ch=1 n=c7 v=53
364800 On ch=1 n=c7 v=0
364800 On ch=1 n=a6 v=0
364800 On ch=1 n=a#6 v=53
364800 On ch=1 n=g6 v=53
365040 On ch=1 n=g6 v=0
365040 On ch=1 n=a#6 v=0
365040 On ch=1 n=c7 v=53
365040 On ch=1 n=f6 v=53
365280 On ch=1 n=f6 v=0
365280 On ch=1 n=c7 v=0
365280 On ch=1 n=d7 v=53
365280 On ch=1 n=d#6 v=53
365520 On ch=1 n=d#6 v=0
365520 On ch=1 n=d6 v=53
365760 On ch=1 n=d6 v=0
365760 On ch=1 n=d7 v=0
365760 On ch=1 n=c6 v=53
365788 On ch=1 n=d#7 v=53
366000 On ch=1 n=d#7 v=0
366000 On ch=1 n=c6 v=0
366000 On ch=1 n=d6 v=53
366000 On ch=1 n=d7 v=53
366240 On ch=1 n=d7 v=0
366240 On ch=1 n=d6 v=0
366240 On ch=1 n=d#6 v=53
366240 On ch=1 n=c7 v=53
366480 On ch=1 n=c7 v=0
366480 On ch=1 n=d#6 v=0
366480 On ch=1 n=e6 v=53
366480 On ch=1 n=a#6 v=53
366720 On ch=1 n=a#6 v=0
366720 On ch=1 n=e6 v=0
366720 On ch=1 n=f6 v=53
366720 On ch=1 n=a6 v=53
366960 On ch=1 n=a6 v=0
366960 On ch=1 n=f6 v=0
366960 On ch=1 n=d#6 v=53
366960 On ch=1 n=g6 v=53
367200 On ch=1 n=g6 v=0
367200 On ch=1 n=d#6 v=0
367200 On ch=1 n=d6 v=53
367200 On ch=1 n=f6 v=53
367440 On ch=1 n=f6 v=0
367440 On ch=1 n=d6 v=0
367440 On ch=1 n=c6 v=53
367440 On ch=1 n=d#6 v=53
367680 On ch=1 n=d#6 v=0
367680 On ch=1 n=c6 v=0
367680 On ch=1 n=d6 v=53
368160 On ch=1 n=d6 v=0
368280 On ch=1 n=d6 v=59
368340 On ch=1 n=d6 v=0
368400 On ch=1 n=d#6 v=65
368460 On ch=1 n=d#6 v=0
368520 On ch=1 n=f6 v=72
368580 On ch=1 n=f6 v=0
368640 On ch=1 n=a#5 v=78
368640 On ch=1 n=f#6 v=78
369600 On ch=1 n=f#6 v=0
369600 On ch=1 n=a#5 v=0
369600 On ch=1 n=a5 v=72
369600 On ch=1 n=f6 v=72
370080 On ch=1 n=f6 v=0
370080 On ch=1 n=a5 v=0
370320 On ch=1 n=f5 v=65
370320 On ch=1 n=a#5 v=65
370320 On ch=1 n=f6 v=65
371520 On ch=1 n=f6 v=0
371520 On ch=1 n=a#5 v=0
371520 On ch=1 n=f5 v=0
371520 On ch=1 n=f#5 v=65
371520 On ch=1 n=a#4 v=65
374400 On ch=1 n=a#4 v=0
374400 On ch=1 n=f#5 v=0
374400 On ch=1 n=g5 v=53
374400 On ch=1 n=a#4 v=53
374880 On ch=1 n=g5 v=0
374880 On ch=1 n=a5 v=63
375360 On ch=1 n=a5 v=0
375360 On ch=1 n=a#5 v=71
375840 On ch=1 n=a#5 v=0
375840 On ch=1 n=a#4 v=0
375840 On ch=1 n=f5 v=78
375840 On ch=1 n=d6 v=78
376320 On ch=1 n=d6 v=0
376320 On ch=1 n=c6 v=65
377040 On ch=1 n=c6 v=0
377040 On ch=1 n=a#5 v=59
377280 On ch=1 n=a#5 v=0
377520 On ch=1 n=a#4 v=53
377520 On ch=1 n=a#5 v=53
378720 On ch=1 n=a#5 v=0
378720 On ch=1 n=a#4 v=0
378720 On ch=1 n=f5 v=0
379440 On ch=1 n=d4 v=65
379620 On ch=1 n=d4 v=0
379680 On ch=1 n=g4 v=65
379760 On ch=1 n=g4 v=0
379760 On ch=1 n=d4 v=65
379840 On ch=1 n=d4 v=0
379840 On ch=1 n=a4 v=65
379920 On ch=1 n=a4 v=0
379920 On ch=1 n=a#4 v=65
380100 On ch=1 n=a#4 v=0
380160 On ch=1 n=a4 v=65
380240 On ch=1 n=a4 v=0
380240 On ch=1 n=d4 v=65
380320 On ch=1 n=d4 v=0
380320 On ch=1 n=a#4 v=65
380400 On ch=1 n=a#4 v=0
380400 On ch=1 n=c5 v=65
380580 On ch=1 n=c5 v=0
380640 On ch=1 n=a#4 v=65
380720 On ch=1 n=a#4 v=0
380720 On ch=1 n=d4 v=65
380800 On ch=1 n=d4 v=0
380800 On ch=1 n=c5 v=65
380880 On ch=1 n=c5 v=0
380880 On ch=1 n=d5 v=65
381060 On ch=1 n=d5 v=0
381120 On ch=1 n=g4 v=65
381200 On ch=1 n=g4 v=0
381200 On ch=1 n=d4 v=65
381280 On ch=1 n=d4 v=0
381280 On ch=1 n=a4 v=65
381360 On ch=1 n=a4 v=0
381360 On ch=1 n=a#4 v=65
381540 On ch=1 n=a#4 v=0
381600 On ch=1 n=a4 v=65
381680 On ch=1 n=a4 v=0
381680 On ch=1 n=d#4 v=65
381760 On ch=1 n=d#4 v=0
381760 On ch=1 n=a#4 v=65
381840 On ch=1 n=a#4 v=0
381840 On ch=1 n=c5 v=65
382020 On ch=1 n=c5 v=0
382080 On ch=1 n=f#4 v=65
382160 On ch=1 n=f#4 v=0
382160 On ch=1 n=c4 v=65
382240 On ch=1 n=c4 v=0
382240 On ch=1 n=g4 v=65
382320 On ch=1 n=g4 v=0
382320 On ch=1 n=a4 v=65
382500 On ch=1 n=a4 v=0
382560 On ch=1 n=g4 v=65
382640 On ch=1 n=g4 v=0
382640 On ch=1 n=d4 v=65
382720 On ch=1 n=d4 v=0
382720 On ch=1 n=a4 v=65
382800 On ch=1 n=a4 v=0
382800 On ch=1 n=a#4 v=65
382980 On ch=1 n=a#4 v=0
383040 On ch=1 n=a4 v=65
383120 On ch=1 n=a4 v=0
383220 On ch=1 n=f#4 v=65
383280 On ch=1 n=f#4 v=0
383280 On ch=1 n=d4 v=65
383460 On ch=1 n=d4 v=0
383520 On ch=1 n=g4 v=65
383600 On ch=1 n=g4 v=0
383600 On ch=1 n=d4 v=65
383680 On ch=1 n=d4 v=0
383680 On ch=1 n=a4 v=65
383760 On ch=1 n=a4 v=0
383760 On ch=1 n=a#4 v=65
383940 On ch=1 n=a#4 v=0
384000 On ch=1 n=a4 v=65
384080 On ch=1 n=a4 v=0
384080 On ch=1 n=d4 v=65
384160 On ch=1 n=d4 v=0
384160 On ch=1 n=a#4 v=65
384240 On ch=1 n=a#4 v=0
384240 On ch=1 n=c5 v=65
384420 On ch=1 n=c5 v=0
384480 On ch=1 n=a#4 v=65
384560 On ch=1 n=a#4 v=0
384560 On ch=1 n=d4 v=65
384640 On ch=1 n=d4 v=0
384640 On ch=1 n=c5 v=65
384720 On ch=1 n=c5 v=0
384720 On ch=1 n=d5 v=65
384900 On ch=1 n=d5 v=0
384960 On ch=1 n=g4 v=65
385040 On ch=1 n=g4 v=0
385040 On ch=1 n=d4 v=65
385120 On ch=1 n=d4 v=0
385120 On ch=1 n=a4 v=65
385200 On ch=1 n=a4 v=0
385200 On ch=1 n=a#4 v=65
385380 On ch=1 n=a#4 v=0
385440 On ch=1 n=a4 v=67
385520 On ch=1 n=a4 v=0
385520 On ch=1 n=d#4 v=69
385600 On ch=1 n=d#4 v=0
385600 On ch=1 n=a#4 v=71
385680 On ch=1 n=a#4 v=0
385680 On ch=1 n=c5 v=73
385860 On ch=1 n=c5 v=0
385920 On ch=1 n=b4 v=75
386000 On ch=1 n=b4 v=0
386000 On ch=1 n=f4 v=77
386080 On ch=1 n=f4 v=0
386080 On ch=1 n=c5 v=79
386160 On ch=1 n=c5 v=0
386160 On ch=1 n=d5 v=82
386340 On ch=1 n=d5 v=0
386400 On ch=1 n=c5 v=85
386480 On ch=1 n=c5 v=0
386480 On ch=1 n=g4 v=85
386560 On ch=1 n=g4 v=0
386560 On ch=1 n=d5 v=85
386640 On ch=1 n=d5 v=0
386640 On ch=1 n=d#5 v=85
386820 On ch=1 n=d#5 v=0
386880 On ch=1 n=b4 v=85
386960 On ch=1 n=b4 v=0
386960 On ch=1 n=f4 v=85
387040 On ch=1 n=f4 v=0
387040 On ch=1 n=c5 v=85
387120 On ch=1 n=c5 v=0
387120 On ch=1 n=d5 v=85
387300 On ch=1 n=d5 v=0
387360 On ch=1 n=c5 v=85
387440 On ch=1 n=c5 v=0
387440 On ch=1 n=g4 v=85
387520 On ch=1 n=g4 v=0
387520 On ch=1 n=d5 v=85
387600 On ch=1 n=d5 v=0
387600 On ch=1 n=d#5 v=85
387780 On ch=1 n=d#5 v=0
387840 On ch=1 n=d#5 v=86
387920 On ch=1 n=d#5 v=0
387920 On ch=1 n=g4 v=88
388000 On ch=1 n=g4 v=0
388000 On ch=1 n=f5 v=89
388080 On ch=1 n=f5 v=0
388080 On ch=1 n=g5 v=91
388260 On ch=1 n=g5 v=0
388320 On ch=1 n=f#5 v=92
388400 On ch=1 n=f#5 v=0
388400 On ch=1 n=f#4 v=94
388480 On ch=1 n=f#4 v=0
388480 On ch=1 n=g5 v=95
388560 On ch=1 n=g5 v=0
388560 On ch=1 n=a5 v=97
388740 On ch=1 n=a5 v=0
388800 On ch=1 n=d5 v=100
388980 On ch=1 n=d5 v=0
389040 On ch=1 n=d5 v=102
389220 On ch=1 n=d5 v=0
389280 On ch=1 n=g5 v=102
389360 On ch=1 n=g5 v=0
389360 On ch=1 n=d5 v=102
389440 On ch=1 n=d5 v=0
389440 On ch=1 n=a5 v=102
389520 On ch=1 n=a5 v=0
389520 On ch=1 n=a#5 v=102
389700 On ch=1 n=a#5 v=0
389760 On ch=1 n=a5 v=102
389840 On ch=1 n=a5 v=0
389840 On ch=1 n=d5 v=102
389920 On ch=1 n=d5 v=0
389920 On ch=1 n=a#5 v=102
390000 On ch=1 n=a#5 v=0
390000 On ch=1 n=c6 v=102
390180 On ch=1 n=c6 v=0
390240 On ch=1 n=a#5 v=102
390320 On ch=1 n=a#5 v=0
390320 On ch=1 n=d5 v=102
390400 On ch=1 n=d5 v=0
390400 On ch=1 n=c6 v=102
390480 On ch=1 n=c6 v=0
390480 On ch=1 n=d6 v=102
390660 On ch=1 n=d6 v=0
390720 On ch=1 n=g5 v=102
390800 On ch=1 n=g5 v=0
390800 On ch=1 n=d5 v=102
390880 On ch=1 n=d5 v=0
390880 On ch=1 n=a5 v=102
390960 On ch=1 n=a5 v=0
390960 On ch=1 n=a#5 v=102
391140 On ch=1 n=a#5 v=0
391200 On ch=1 n=a5 v=102
391280 On ch=1 n=a5 v=0
391280 On ch=1 n=d#5 v=102
391360 On ch=1 n=d#5 v=0
391360 On ch=1 n=a#5 v=102
391440 On ch=1 n=a#5 v=0
391440 On ch=1 n=c6 v=102
391620 On ch=1 n=c6 v=0
391680 On ch=1 n=f#5 v=102
391760 On ch=1 n=f#5 v=0
391760 On ch=1 n=c5 v=102
391840 On ch=1 n=c5 v=0
391840 On ch=1 n=g5 v=102
391920 On ch=1 n=g5 v=0
391920 On ch=1 n=a5 v=102
392100 On ch=1 n=a5 v=0
392160 On ch=1 n=g5 v=102
392240 On ch=1 n=g5 v=0
392240 On ch=1 n=d5 v=102
392320 On ch=1 n=d5 v=0
392320 On ch=1 n=a5 v=102
392400 On ch=1 n=a5 v=0
392400 On ch=1 n=a#5 v=102
392580 On ch=1 n=a#5 v=0
392640 On ch=1 n=a5 v=102
392720 On ch=1 n=a5 v=0
392820 On ch=1 n=f#5 v=102
392880 On ch=1 n=f#5 v=0
392880 On ch=1 n=d5 v=102
393060 On ch=1 n=d5 v=0
393120 On ch=1 n=g5 v=102
393200 On ch=1 n=g5 v=0
393200 On ch=1 n=d5 v=102
393280 On ch=1 n=d5 v=0
393280 On ch=1 n=a5 v=102
393360 On ch=1 n=a5 v=0
393360 On ch=1 n=a#5 v=102
393540 On ch=1 n=a#5 v=0
393600 On ch=1 n=a5 v=102
393680 On ch=1 n=a5 v=0
393680 On ch=1 n=d5 v=102
393760 On ch=1 n=d5 v=0
393760 On ch=1 n=a#5 v=102
393840 On ch=1 n=a#5 v=0
393840 On ch=1 n=c6 v=102
394020 On ch=1 n=c6 v=0
394080 On ch=1 n=a#5 v=102
394160 On ch=1 n=a#5 v=0
394160 On ch=1 n=d5 v=102
394240 On ch=1 n=d5 v=0
394240 On ch=1 n=c6 v=102
394320 On ch=1 n=c6 v=0
394320 On ch=1 n=d6 v=102
394500 On ch=1 n=d6 v=0
394560 On ch=1 n=d#6 v=102
394640 On ch=1 n=d#6 v=0
394640 On ch=1 n=g5 v=102
394720 On ch=1 n=g5 v=0
394720 On ch=1 n=f6 v=102
394800 On ch=1 n=f6 v=0
394800 On ch=1 n=g6 v=102
394980 On ch=1 n=g6 v=0
395040 On ch=1 n=a5 v=102
395120 On ch=1 n=a5 v=0
395120 On ch=1 n=c5 v=102
395200 On ch=1 n=c5 v=0
395200 On ch=1 n=a#5 v=102
395280 On ch=1 n=a#5 v=0
395280 On ch=1 n=c6 v=102
395460 On ch=1 n=c6 v=0
395520 On ch=1 n=d6 v=102
395600 On ch=1 n=d6 v=0
395600 On ch=1 n=f5 v=102
395680 On ch=1 n=f5 v=0
395680 On ch=1 n=d#6 v=102
395760 On ch=1 n=d#6 v=0
395760 On ch=1 n=f6 v=102
395940 On ch=1 n=f6 v=0
396000 On ch=1 n=g5 v=102
396080 On ch=1 n=g5 v=0
396080 On ch=1 n=a#4 v=102
396160 On ch=1 n=a#4 v=0
396160 On ch=1 n=a5 v=102
396240 On ch=1 n=a5 v=0
396240 On ch=1 n=a#5 v=102
396420 On ch=1 n=a#5 v=0
396480 On ch=1 n=c6 v=102
396560 On ch=1 n=c6 v=0
396560 On ch=1 n=d#5 v=102
396640 On ch=1 n=d#5 v=0
396640 On ch=1 n=d6 v=102
396720 On ch=1 n=d6 v=0
396720 On ch=1 n=d#6 v=102
396900 On ch=1 n=d#6 v=0
396960 On ch=1 n=f#5 v=102
397040 On ch=1 n=f#5 v=0
397040 On ch=1 n=a4 v=102
397120 On ch=1 n=a4 v=0
397120 On ch=1 n=g5 v=102
397200 On ch=1 n=g5 v=0
397200 On ch=1 n=a5 v=102
397380 On ch=1 n=a5 v=0
397440 On ch=1 n=c6 v=102
397520 On ch=1 n=c6 v=0
397520 On ch=1 n=d#5 v=102
397600 On ch=1 n=d#5 v=0
397600 On ch=1 n=d6 v=102
397680 On ch=1 n=d6 v=0
397680 On ch=1 n=d#6 v=102
397860 On ch=1 n=d#6 v=0
397920 On ch=1 n=f#5 v=102
398000 On ch=1 n=f#5 v=0
398000 On ch=1 n=a4 v=102
398080 On ch=1 n=a4 v=0
398080 On ch=1 n=g5 v=102
398160 On ch=1 n=g5 v=0
398160 On ch=1 n=a5 v=102
398340 On ch=1 n=a5 v=0
398400 On ch=1 n=c6 v=102
398480 On ch=1 n=c6 v=0
398480 On ch=1 n=d#5 v=102
398560 On ch=1 n=d#5 v=0
398560 On ch=1 n=d6 v=102
398640 On ch=1 n=d6 v=0
398640 On ch=1 n=d#6 v=102
398820 On ch=1 n=d#6 v=0
398880 On ch=1 n=f#5 v=102
398960 On ch=1 n=f#5 v=0
398960 On ch=1 n=a4 v=102
399040 On ch=1 n=a4 v=0
399040 On ch=1 n=g5 v=102
399120 On ch=1 n=g5 v=0
399120 On ch=1 n=a5 v=102
399300 On ch=1 n=a5 v=0
399360 On ch=1 n=c5 v=94
399440 On ch=1 n=c5 v=0
399440 On ch=1 n=a4 v=94
399520 On ch=1 n=a4 v=0
399520 On ch=1 n=d5 v=94
399600 On ch=1 n=d5 v=0
399600 On ch=1 n=d#5 v=94
399780 On ch=1 n=d#5 v=0
399840 On ch=1 n=f#4 v=86
399920 On ch=1 n=f#4 v=0
399920 On ch=1 n=d4 v=86
400000 On ch=1 n=d4 v=0
400000 On ch=1 n=g4 v=86
400080 On ch=1 n=g4 v=0
400080 On ch=1 n=a4 v=86
400260 On ch=1 n=a4 v=0
400320 On ch=1 n=d4 v=78
400500 On ch=1 n=d4 v=0
400560 On ch=1 n=d4 v=102
400740 On ch=1 n=d4 v=0
400800 On ch=1 n=g4 v=102
400880 On ch=1 n=g4 v=0
400880 On ch=1 n=d4 v=102
400960 On ch=1 n=d4 v=0
400960 On ch=1 n=a4 v=102
401040 On ch=1 n=a4 v=0
401040 On ch=1 n=a#4 v=102
401220 On ch=1 n=a#4 v=0
401280 On ch=1 n=a4 v=102
401360 On ch=1 n=a4 v=0
401360 On ch=1 n=d4 v=102
401440 On ch=1 n=d4 v=0
401440 On ch=1 n=a#4 v=102
401520 On ch=1 n=a#4 v=0
401520 On ch=1 n=c5 v=102
401700 On ch=1 n=c5 v=0
401760 On ch=1 n=a#4 v=102
401840 On ch=1 n=a#4 v=0
401840 On ch=1 n=d4 v=102
401920 On ch=1 n=d4 v=0
401920 On ch=1 n=c5 v=102
402000 On ch=1 n=c5 v=0
402000 On ch=1 n=d5 v=102
402180 On ch=1 n=d5 v=0
402240 On ch=1 n=g4 v=102
402320 On ch=1 n=g4 v=0
402320 On ch=1 n=d4 v=102
402400 On ch=1 n=d4 v=0
402400 On ch=1 n=a4 v=102
402480 On ch=1 n=a4 v=0
402480 On ch=1 n=a#4 v=102
402660 On ch=1 n=a#4 v=0
402720 On ch=1 n=a4 v=106
402800 On ch=1 n=a4 v=0
402800 On ch=1 n=d#4 v=106
402880 On ch=1 n=d#4 v=0
402880 On ch=1 n=a#4 v=106
402960 On ch=1 n=a#4 v=0
402960 On ch=1 n=c5 v=106
403140 On ch=1 n=c5 v=0
403200 On ch=1 n=b4 v=110
403280 On ch=1 n=b4 v=0
403280 On ch=1 n=f4 v=110
403360 On ch=1 n=f4 v=0
403360 On ch=1 n=c5 v=110
403440 On ch=1 n=c5 v=0
403440 On ch=1 n=d5 v=110
403620 On ch=1 n=d5 v=0
403680 On ch=1 n=c5 v=114
403760 On ch=1 n=c5 v=0
403760 On ch=1 n=g4 v=114
403840 On ch=1 n=g4 v=0
403840 On ch=1 n=d5 v=114
403920 On ch=1 n=d5 v=0
403920 On ch=1 n=d#5 v=114
404100 On ch=1 n=d#5 v=0
404160 On ch=1 n=b4 v=114
404240 On ch=1 n=b4 v=0
404240 On ch=1 n=f4 v=114
404320 On ch=1 n=f4 v=0
404320 On ch=1 n=c5 v=114
404400 On ch=1 n=c5 v=0
404400 On ch=1 n=d5 v=114
404580 On ch=1 n=d5 v=0
404640 On ch=1 n=c5 v=114
404720 On ch=1 n=c5 v=0
404720 On ch=1 n=g4 v=114
404800 On ch=1 n=g4 v=0
404800 On ch=1 n=d5 v=114
404880 On ch=1 n=d5 v=0
404880 On ch=1 n=d#5 v=114
405060 On ch=1 n=d#5 v=0
405120 On ch=1 n=d5 v=114
405200 On ch=1 n=d5 v=0
405200 On ch=1 n=g4 v=114
405280 On ch=1 n=g4 v=0
405280 On ch=1 n=d#5 v=114
405360 On ch=1 n=d#5 v=0
405360 On ch=1 n=f5 v=114
405540 On ch=1 n=f5 v=0
405600 On ch=1 n=e5 v=120
405680 On ch=1 n=e5 v=0
405680 On ch=1 n=g4 v=114
405760 On ch=1 n=g4 v=0
405760 On ch=1 n=f#5 v=114
405840 On ch=1 n=f#5 v=0
405840 On ch=1 n=g5 v=114
406020 On ch=1 n=g5 v=0
406080 On ch=1 n=g5 v=120
406160 On ch=1 n=g5 v=0
406160 On ch=1 n=a#4 v=114
406240 On ch=1 n=a#4 v=0
406240 On ch=1 n=a5 v=114
406320 On ch=1 n=a5 v=0
406320 On ch=1 n=a#5 v=114
406500 On ch=1 n=a#5 v=0
406560 On ch=1 n=d5 v=120
406560 On ch=1 n=d6 v=120
407040 On ch=1 n=d6 v=0
407040 On ch=1 n=d5 v=0
407040 On ch=1 n=a4 v=120
407040 On ch=1 n=d5 v=120
407040 On ch=1 n=f#5 v=120
407520 On ch=1 n=f#5 v=0
407520 On ch=1 n=d5 v=0
407520 On ch=1 n=a4 v=0
407520 On ch=1 n=e5 v=124
407600 On ch=1 n=e5 v=0
407600 On ch=1 n=g4 v=118
407680 On ch=1 n=g4 v=0
407680 On ch=1 n=f#5 v=118
407760 On ch=1 n=f#5 v=0
407760 On ch=1 n=g5 v=118
407940 On ch=1 n=g5 v=0
408000 On ch=1 n=g5 v=126
408080 On ch=1 n=g5 v=0
408080 On ch=1 n=a#4 v=122
408160 On ch=1 n=a#4 v=0
408160 On ch=1 n=a5 v=122
408240 On ch=1 n=a5 v=0
408240 On ch=1 n=a#5 v=122
408420 On ch=1 n=a#5 v=0
408480 On ch=1 n=a#5 v=127
408480 On ch=1 n=d6 v=127
408480 On ch=1 n=g6 v=127
408960 On ch=1 n=g6 v=0
408960 On ch=1 n=d6 v=0
408960 On ch=1 n=a#5 v=0
408960 On ch=1 n=f#5 v=127
408960 On ch=1 n=a5 v=127
408960 On ch=1 n=d6 v=127
409440 On ch=1 n=d6 v=0
409440 On ch=1 n=a5 v=0
409440 On ch=1 n=f#5 v=0
409440 On ch=1 n=a#4 v=127
409440 On ch=1 n=d5 v=127
409440 On ch=1 n=g5 v=127
410880 On ch=1 n=g5 v=0
410880 On ch=1 n=d5 v=0
410880 On ch=1 n=a#4 v=0
411360 On ch=1 n=f4 v=65
411480 On ch=1 n=d4 v=65
411600 On ch=1 n=d4 v=0
411600 On ch=1 n=f4 v=0
411600 On ch=1 n=g4 v=65
411840 On ch=1 n=g4 v=0
411840 On ch=1 n=a4 v=65
411960 On ch=1 n=d4 v=65
412080 On ch=1 n=d4 v=0
412080 On ch=1 n=a4 v=0
412080 On ch=1 n=a#4 v=65
412320 On ch=1 n=a#4 v=0
412320 On ch=1 n=c5 v=65
412440 On ch=1 n=d4 v=65
412560 On ch=1 n=d4 v=0
412560 On ch=1 n=c5 v=0
412560 On ch=1 n=d5 v=68
412800 On ch=1 n=d5 v=0
412800 On ch=1 n=d#5 v=71
412920 On ch=1 n=d4 v=71
413040 On ch=1 n=d4 v=0
413040 On ch=1 n=d#5 v=0
413040 On ch=1 n=f5 v=74
413280 On ch=1 n=f5 v=0
413280 On ch=1 n=g5 v=84
413400 On ch=1 n=d4 v=78
413520 On ch=1 n=d4 v=0
413520 On ch=1 n=f5 v=75
413760 On ch=1 n=f5 v=0
413760 On ch=1 n=d#5 v=72
413880 On ch=1 n=d4 v=72
414000 On ch=1 n=d4 v=0
414000 On ch=1 n=d#5 v=0
414000 On ch=1 n=d5 v=69
414240 On ch=1 n=d5 v=0
414240 On ch=1 n=g5 v=0
414240 On ch=1 n=c5 v=65
414360 On ch=1 n=d4 v=65
414480 On ch=1 n=d4 v=0
414480 On ch=1 n=c5 v=0
414480 On ch=1 n=b4 v=65
414720 On ch=1 n=b4 v=0
414720 On ch=1 n=a5 v=65
414720 On ch=1 n=a4 v=65
414840 On ch=1 n=d4 v=65
414960 On ch=1 n=d4 v=0
414960 On ch=1 n=a4 v=0
414960 On ch=1 n=a5 v=0
414960 On ch=1 n=b5 v=71
414960 On ch=1 n=g4 v=65
415200 On ch=1 n=g4 v=0
415200 On ch=1 n=b5 v=0
415200 On ch=1 n=d#5 v=78
415240 On ch=1 n=d#6 v=78
416400 On ch=1 n=d#6 v=0
416400 On ch=1 n=d#5 v=0
416400 On ch=1 n=d6 v=65
416736 On ch=1 n=d6 v=0
416736 On ch=1 n=c6 v=70
416832 On ch=1 n=c6 v=0
416832 On ch=1 n=a#5 v=75
416928 On ch=1 n=a#5 v=0
416928 On ch=1 n=a5 v=80
417024 On ch=1 n=a5 v=0
417024 On ch=1 n=g5 v=85
417120 On ch=1 n=g5 v=0
417120 On ch=1 n=d#5 v=90
417120 On ch=1 n=f5 v=90
417240 On ch=1 n=f4 v=90
417360 On ch=1 n=f4 v=0
417360 On ch=1 n=d#5 v=0
417360 On ch=1 n=d5 v=90
417600 On ch=1 n=d5 v=0
417600 On ch=1 n=c5 v=90
417720 On ch=1 n=f4 v=90
417840 On ch=1 n=f4 v=0
417840 On ch=1 n=c5 v=0
417840 On ch=1 n=a#4 v=90
418080 On ch=1 n=a#4 v=0
418080 On ch=1 n=a4 v=90
418200 On ch=1 n=f4 v=90
418320 On ch=1 n=f4 v=0
418320 On ch=1 n=a4 v=0
418320 On ch=1 n=g4 v=88
418560 On ch=1 n=g4 v=0
418656 On ch=1 n=f5 v=0
418656 On ch=1 n=g5 v=92
418752 On ch=1 n=g5 v=0
418752 On ch=1 n=a5 v=94
418848 On ch=1 n=a5 v=0
418848 On ch=1 n=a#5 v=97
418944 On ch=1 n=a#5 v=0
418944 On ch=1 n=c6 v=100
419040 On ch=1 n=c6 v=0
419040 On ch=1 n=d6 v=102
419280 On ch=1 n=d6 v=0
419280 On ch=1 n=c6 v=102
419520 On ch=1 n=c6 v=0
419520 On ch=1 n=g6 v=108
420240 On ch=1 n=g6 v=0
420240 On ch=1 n=f6 v=102
420480 On ch=1 n=f6 v=0
420480 On ch=1 n=e6 v=102
420600 On ch=1 n=e6 v=0
420600 On ch=1 n=f6 v=102
420660 On ch=1 n=f6 v=0
420660 On ch=1 n=e6 v=102
420720 On ch=1 n=e6 v=0
420720 On ch=1 n=d6 v=102
420840 On ch=1 n=d6 v=0
420840 On ch=1 n=c6 v=102
420960 On ch=1 n=c6 v=0
420960 On ch=1 n=c6 v=102
421200 On ch=1 n=c6 v=0
421200 On ch=1 n=a#5 v=102
421440 On ch=1 n=a#5 v=0
421440 On ch=1 n=f6 v=108
422160 On ch=1 n=f6 v=0
422160 On ch=1 n=e6 v=102
422400 On ch=1 n=e6 v=0
422400 On ch=1 n=d6 v=102
422520 On ch=1 n=d6 v=0
422520 On ch=1 n=e6 v=102
422548 On ch=1 n=d6 v=102
422552 On ch=1 n=e6 v=0
422580 On ch=1 n=d6 v=0
422580 On ch=1 n=c#6 v=102
422608 On ch=1 n=d6 v=102
422612 On ch=1 n=c#6 v=0
422640 On ch=1 n=d6 v=0
422640 On ch=1 n=e6 v=102
422760 On ch=1 n=e6 v=0
422760 On ch=1 n=f6 v=102
422880 On ch=1 n=f6 v=0
422880 On ch=1 n=f6 v=90
423000 On ch=1 n=f5 v=90
423120 On ch=1 n=f5 v=0
423120 On ch=1 n=f6 v=0
423120 On ch=1 n=e6 v=90
423360 On ch=1 n=e6 v=0
423360 On ch=1 n=d6 v=90
423480 On ch=1 n=f5 v=90
423600 On ch=1 n=f5 v=0
423720 On ch=1 n=d6 v=0
423720 On ch=1 n=c6 v=90
423840 On ch=1 n=c6 v=0
423840 On ch=1 n=c6 v=90
423960 On ch=1 n=c5 v=90
424080 On ch=1 n=c5 v=0
424080 On ch=1 n=c6 v=0
424080 On ch=1 n=a#5 v=90
424320 On ch=1 n=a#5 v=0
424320 On ch=1 n=a5 v=87
424440 On ch=1 n=c5 v=84
424560 On ch=1 n=c5 v=0
424680 On ch=1 n=a5 v=0
424680 On ch=1 n=g5 v=81
424800 On ch=1 n=g5 v=0
424800 On ch=1 n=g5 v=78
424920 On ch=1 n=a#4 v=78
425400 On ch=1 n=a#4 v=0
425400 On ch=1 n=a#4 v=78
425760 On ch=1 n=a#4 v=0
425760 On ch=1 n=g5 v=0
425760 On ch=1 n=f5 v=78
425880 On ch=1 n=a4 v=78
426000 On ch=1 n=f5 v=0
426000 On ch=1 n=d#5 v=75
426240 On ch=1 n=d#5 v=0
426240 On ch=1 n=a4 v=0
426240 On ch=1 n=d5 v=72
426360 On ch=1 n=d#4 v=71
426480 On ch=1 n=d5 v=0
426480 On ch=1 n=c#5 v=69
426720 On ch=1 n=d#4 v=0
426720 On ch=1 n=f4 v=65
426960 On ch=1 n=f4 v=0
426960 On ch=1 n=c#5 v=0
426960 On ch=1 n=d5 v=65
426960 On ch=1 n=g4 v=65
427200 On ch=1 n=g4 v=0
427200 On ch=1 n=d5 v=0
427200 On ch=1 n=a4 v=65
427440 On ch=1 n=a4 v=0
427440 On ch=1 n=a#4 v=65
427680 On ch=1 n=a#4 v=0
427680 On ch=1 n=c5 v=67
427920 On ch=1 n=c5 v=0
427920 On ch=1 n=d5 v=70
428160 On ch=1 n=d5 v=0
428160 On ch=1 n=d#5 v=72
428400 On ch=1 n=d#5 v=0
428400 On ch=1 n=f5 v=75
428640 On ch=1 n=f5 v=0
428640 On ch=1 n=g5 v=84
428760 On ch=1 n=d4 v=78
428880 On ch=1 n=d4 v=0
428880 On ch=1 n=f5 v=75
429120 On ch=1 n=f5 v=0
429120 On ch=1 n=d#5 v=72
429240 On ch=1 n=d4 v=72
429360 On ch=1 n=d4 v=0
429360 On ch=1 n=d#5 v=0
429360 On ch=1 n=d5 v=69
429600 On ch=1 n=d5 v=0
429600 On ch=1 n=g5 v=0
429600 On ch=1 n=c5 v=65
429720 On ch=1 n=d4 v=65
429840 On ch=1 n=d4 v=0
429840 On ch=1 n=c5 v=0
429840 On ch=1 n=b4 v=65
430080 On ch=1 n=b4 v=0
430080 On ch=1 n=a5 v=65
430080 On ch=1 n=a4 v=65
430200 On ch=1 n=d4 v=65
430320 On ch=1 n=d4 v=0
430320 On ch=1 n=a4 v=0
430320 On ch=1 n=a5 v=0
430320 On ch=1 n=b5 v=71
430320 On ch=1 n=g4 v=65
430560 On ch=1 n=g4 v=0
430560 On ch=1 n=b5 v=0
430560 On ch=1 n=d#5 v=78
430600 On ch=1 n=d#6 v=78
431760 On ch=1 n=d#6 v=0
431760 On ch=1 n=d#5 v=0
431760 On ch=1 n=d6 v=65
432096 On ch=1 n=d6 v=0
432096 On ch=1 n=c6 v=70
432192 On ch=1 n=c6 v=0
432192 On ch=1 n=a#5 v=75
432288 On ch=1 n=a#5 v=0
432288 On ch=1 n=a5 v=80
432384 On ch=1 n=a5 v=0
432384 On ch=1 n=g5 v=85
432480 On ch=1 n=g5 v=0
432480 On ch=1 n=d#5 v=90
432480 On ch=1 n=f5 v=90
432600 On ch=1 n=f4 v=90
432720 On ch=1 n=f4 v=0
432720 On ch=1 n=d#5 v=0
432720 On ch=1 n=d5 v=90
432960 On ch=1 n=d5 v=0
432960 On ch=1 n=c5 v=90
433080 On ch=1 n=f4 v=90
433200 On ch=1 n=f4 v=0
433200 On ch=1 n=c5 v=0
433200 On ch=1 n=a#4 v=90
433440 On ch=1 n=a#4 v=0
433440 On ch=1 n=a4 v=90
433560 On ch=1 n=f4 v=90
433680 On ch=1 n=f4 v=0
433680 On ch=1 n=a4 v=0
433680 On ch=1 n=g4 v=88
433920 On ch=1 n=g4 v=0
434016 On ch=1 n=f5 v=0
434016 On ch=1 n=g5 v=92
434112 On ch=1 n=g5 v=0
434112 On ch=1 n=a5 v=94
434208 On ch=1 n=a5 v=0
434208 On ch=1 n=a#5 v=97
434304 On ch=1 n=a#5 v=0
434304 On ch=1 n=c6 v=100
434400 On ch=1 n=c6 v=0
434400 On ch=1 n=d6 v=102
434640 On ch=1 n=d6 v=0
434640 On ch=1 n=c6 v=102
434880 On ch=1 n=c6 v=0
434880 On ch=1 n=g6 v=108
435600 On ch=1 n=g6 v=0
435600 On ch=1 n=f6 v=102
435840 On ch=1 n=f6 v=0
435840 On ch=1 n=e6 v=102
435960 On ch=1 n=e6 v=0
435960 On ch=1 n=f6 v=102
436020 On ch=1 n=f6 v=0
436020 On ch=1 n=e6 v=102
436080 On ch=1 n=e6 v=0
436080 On ch=1 n=d6 v=102
436200 On ch=1 n=d6 v=0
436200 On ch=1 n=c6 v=102
436320 On ch=1 n=c6 v=0
436320 On ch=1 n=c6 v=102
436560 On ch=1 n=c6 v=0
436560 On ch=1 n=a#5 v=102
436800 On ch=1 n=a#5 v=0
436800 On ch=1 n=f6 v=108
437520 On ch=1 n=f6 v=0
437520 On ch=1 n=e6 v=102
437760 On ch=1 n=e6 v=0
437760 On ch=1 n=d6 v=102
437880 On ch=1 n=d6 v=0
437880 On ch=1 n=e6 v=102
437908 On ch=1 n=d6 v=102
437912 On ch=1 n=e6 v=0
437940 On ch=1 n=d6 v=0
437940 On ch=1 n=c#6 v=102
437968 On ch=1 n=d6 v=102
437972 On ch=1 n=c#6 v=0
438000 On ch=1 n=d6 v=0
438000 On ch=1 n=e6 v=102
438120 On ch=1 n=e6 v=0
438120 On ch=1 n=f6 v=102
438240 On ch=1 n=f6 v=0
438240 On ch=1 n=f6 v=90
438360 On ch=1 n=f5 v=90
438480 On ch=1 n=f5 v=0
438480 On ch=1 n=f6 v=0
438480 On ch=1 n=e6 v=90
438720 On ch=1 n=e6 v=0
438720 On ch=1 n=d6 v=90
438840 On ch=1 n=f5 v=90
438960 On ch=1 n=f5 v=0
439080 On ch=1 n=d6 v=0
439080 On ch=1 n=c6 v=90
439200 On ch=1 n=c6 v=0
439200 On ch=1 n=c6 v=90
439320 On ch=1 n=c5 v=90
439440 On ch=1 n=c5 v=0
439440 On ch=1 n=c6 v=0
439440 On ch=1 n=a#5 v=90
439680 On ch=1 n=a#5 v=0
439680 On ch=1 n=a5 v=87
439800 On ch=1 n=c5 v=84
439920 On ch=1 n=c5 v=0
440040 On ch=1 n=a5 v=0
440040 On ch=1 n=g5 v=81
440160 On ch=1 n=g5 v=0
440160 On ch=1 n=g5 v=78
440280 On ch=1 n=a#4 v=78
440760 On ch=1 n=a#4 v=0
440760 On ch=1 n=a#4 v=78
441120 On ch=1 n=g5 v=0
441120 On ch=1 n=f5 v=78
441240 On ch=1 n=a#4 v=0
441240 On ch=1 n=a4 v=78
441600 On ch=1 n=a4 v=0
441600 On ch=1 n=f5 v=0
442120 On ch=1 n=f5 v=65
442200 On ch=1 n=d#5 v=65
442320 On ch=1 n=d#5 v=0
442320 On ch=1 n=f5 v=0
442320 On ch=1 n=g5 v=68
442560 On ch=1 n=g5 v=0
442560 On ch=1 n=a5 v=71
442680 On ch=1 n=d#5 v=71
442800 On ch=1 n=d#5 v=0
442800 On ch=1 n=a5 v=0
442800 On ch=1 n=a#5 v=74
443040 On ch=1 n=a#5 v=0
443040 On ch=1 n=c6 v=77
443160 On ch=1 n=d#5 v=77
443280 On ch=1 n=d#5 v=0
443280 On ch=1 n=c6 v=0
443280 On ch=1 n=d6 v=80
443520 On ch=1 n=d6 v=0
443520 On ch=1 n=d#6 v=83
443640 On ch=1 n=d#5 v=83
443760 On ch=1 n=d#5 v=0
443760 On ch=1 n=d#6 v=0
443760 On ch=1 n=f6 v=87
444000 On ch=1 n=f6 v=0
444040 On ch=1 n=f#6 v=90
444120 On ch=1 n=d#5 v=90
444240 On ch=1 n=d#5 v=0
444240 On ch=1 n=f#6 v=0
444240 On ch=1 n=f6 v=86
444480 On ch=1 n=f6 v=0
444480 On ch=1 n=d#6 v=81
444600 On ch=1 n=d#5 v=81
444720 On ch=1 n=d#5 v=0
444720 On ch=1 n=d#6 v=0
444720 On ch=1 n=c#6 v=77
444960 On ch=1 n=c#6 v=0
444960 On ch=1 n=c6 v=72
445080 On ch=1 n=d#5 v=72
445200 On ch=1 n=d#5 v=0
445200 On ch=1 n=c6 v=0
445200 On ch=1 n=a#5 v=68
445440 On ch=1 n=a#5 v=0
445440 On ch=1 n=a5 v=63
445560 On ch=1 n=d#5 v=63
445680 On ch=1 n=d#5 v=0
445680 On ch=1 n=a5 v=0
445680 On ch=1 n=a#5 v=58
445920 On ch=1 n=a#5 v=0
445920 On ch=1 n=f5 v=53
445920 On ch=1 n=a5 v=53
446040 On ch=1 n=f5 v=0
446040 On ch=1 n=d#5 v=53
446160 On ch=1 n=d#5 v=0
446160 On ch=1 n=a5 v=0
446160 On ch=1 n=g5 v=53
446400 On ch=1 n=g5 v=0
446400 On ch=1 n=a5 v=53
446520 On ch=1 n=d#5 v=53
446640 On ch=1 n=d#5 v=0
446640 On ch=1 n=a5 v=0
446640 On ch=1 n=a#5 v=53
446880 On ch=1 n=a#5 v=0
446880 On ch=1 n=c6 v=53
447000 On ch=1 n=d#5 v=53
447120 On ch=1 n=d#5 v=0
447120 On ch=1 n=c6 v=0
447120 On ch=1 n=c#6 v=53
447360 On ch=1 n=c#6 v=0
447360 On ch=1 n=d#6 v=53
447480 On ch=1 n=d#5 v=53
447600 On ch=1 n=d#5 v=0
447600 On ch=1 n=d#6 v=0
447600 On ch=1 n=f6 v=53
447840 On ch=1 n=f6 v=0
447880 On ch=1 n=f#6 v=53
447960 On ch=1 n=d#5 v=53
448080 On ch=1 n=d#5 v=0
448080 On ch=1 n=f#6 v=0
448080 On ch=1 n=f6 v=53
448320 On ch=1 n=f6 v=0
448320 On ch=1 n=d#6 v=53
448440 On ch=1 n=d#5 v=53
448560 On ch=1 n=d#5 v=0
448680 On ch=1 n=d#6 v=0
448680 On ch=1 n=c#6 v=53
448800 On ch=1 n=c#6 v=0
448800 On ch=1 n=c#6 v=53
448920 On ch=1 n=d#5 v=53
449040 On ch=1 n=d#5 v=0
449040 On ch=1 n=c#6 v=0
449040 On ch=1 n=c6 v=53
449200 On ch=1 n=a#5 v=53
449240 On ch=1 n=a#5 v=0
449240 On ch=1 n=c6 v=53
449280 On ch=1 n=c6 v=0
449280 On ch=1 n=c6 v=0
449280 On ch=1 n=a#5 v=53
449400 On ch=1 n=c5 v=53
449520 On ch=1 n=c5 v=0
449640 On ch=1 n=a#5 v=0
449640 On ch=1 n=g#5 v=53
449760 On ch=1 n=g#5 v=0
449760 On ch=1 n=c#6 v=53
449880 On ch=1 n=c#5 v=53
450360 On ch=1 n=c#5 v=0
450360 On ch=1 n=c#5 v=53
450840 On ch=1 n=c#5 v=0
450840 On ch=1 n=c#5 v=53
451320 On ch=1 n=c#5 v=0
451320 On ch=1 n=c#5 v=53
451680 On ch=1 n=c#6 v=0
451800 On ch=1 n=c#5 v=0
451800 On ch=1 n=c#5 v=53
452280 On ch=1 n=c#5 v=0
452280 On ch=1 n=c#5 v=53
452760 On ch=1 n=c#5 v=0
452760 On ch=1 n=c#5 v=53
453240 On ch=1 n=c#5 v=0
453240 On ch=1 n=c#5 v=53
453360 On ch=1 n=c#5 v=0
453480 On ch=1 n=c#5 v=53
453720 On ch=1 n=a#4 v=53
453840 On ch=1 n=a#4 v=0
453840 On ch=1 n=c#5 v=0
453840 On ch=1 n=d#5 v=56
454080 On ch=1 n=d#5 v=0
454080 On ch=1 n=f5 v=59
454200 On ch=1 n=a#4 v=59
454320 On ch=1 n=a#4 v=0
454320 On ch=1 n=f5 v=0
454320 On ch=1 n=f#5 v=62
454560 On ch=1 n=f#5 v=0
454560 On ch=1 n=g#5 v=65
454680 On ch=1 n=a#4 v=65
454800 On ch=1 n=a#4 v=0
454800 On ch=1 n=g#5 v=0
454800 On ch=1 n=a#5 v=68
455040 On ch=1 n=a#5 v=0
455040 On ch=1 n=b5 v=71
455160 On ch=1 n=a#4 v=71
455280 On ch=1 n=a#4 v=0
455280 On ch=1 n=b5 v=0
455280 On ch=1 n=c#6 v=74
455520 On ch=1 n=c#6 v=0
455520 On ch=1 n=d6 v=78
455640 On ch=1 n=b4 v=78
455760 On ch=1 n=b4 v=0
455760 On ch=1 n=d6 v=0
455760 On ch=1 n=b5 v=75
456000 On ch=1 n=b5 v=0
456000 On ch=1 n=g#5 v=72
456120 On ch=1 n=b4 v=72
456240 On ch=1 n=b4 v=0
456240 On ch=1 n=g#5 v=0
456240 On ch=1 n=f5 v=69
456480 On ch=1 n=f5 v=0
456480 On ch=1 n=d5 v=66
456600 On ch=1 n=g#4 v=66
456720 On ch=1 n=g#4 v=0
456720 On ch=1 n=d5 v=0
456720 On ch=1 n=b4 v=63
456960 On ch=1 n=b4 v=0
456960 On ch=1 n=g#4 v=60
457080 On ch=1 n=g#4 v=0
457080 On ch=1 n=f4 v=59
457200 On ch=1 n=f4 v=0
457200 On ch=1 n=d4 v=57
457320 On ch=1 n=d4 v=0
457320 On ch=1 n=b3 v=55
457440 On ch=1 n=b3 v=0
457560 On ch=1 n=a#4 v=53
457680 On ch=1 n=a#4 v=0
457680 On ch=1 n=d#5 v=53
457920 On ch=1 n=d#5 v=0
457920 On ch=1 n=f5 v=53
458040 On ch=1 n=a#4 v=53
458160 On ch=1 n=a#4 v=0
458160 On ch=1 n=f5 v=0
458160 On ch=1 n=f#5 v=53
458400 On ch=1 n=f#5 v=0
458400 On ch=1 n=g#5 v=53
458520 On ch=1 n=a#4 v=53
458640 On ch=1 n=a#4 v=0
458640 On ch=1 n=g#5 v=0
458640 On ch=1 n=a#5 v=53
458880 On ch=1 n=a#5 v=0
458880 On ch=1 n=b5 v=53
459000 On ch=1 n=a#4 v=53
459120 On ch=1 n=a#4 v=0
459120 On ch=1 n=b5 v=0
459120 On ch=1 n=c6 v=53
459360 On ch=1 n=c6 v=0
459360 On ch=1 n=c#6 v=53
459480 On ch=1 n=a#4 v=53
459600 On ch=1 n=a#4 v=0
459600 On ch=1 n=c#6 v=0
459600 On ch=1 n=a#5 v=53
459840 On ch=1 n=a#5 v=0
459840 On ch=1 n=g5 v=53
459960 On ch=1 n=a#4 v=53
460080 On ch=1 n=a#4 v=0
460080 On ch=1 n=g5 v=0
460080 On ch=1 n=e5 v=53
460320 On ch=1 n=e5 v=0
460320 On ch=1 n=c#5 v=53
460440 On ch=1 n=g4 v=53
460560 On ch=1 n=g4 v=0
460560 On ch=1 n=c#5 v=0
460560 On ch=1 n=a#4 v=53
460800 On ch=1 n=a#4 v=0
460800 On ch=1 n=a4 v=53
460960 On ch=1 n=f4 v=59
461160 On ch=1 n=a4 v=0
461160 On ch=1 n=a#4 v=53
461280 On ch=1 n=a#4 v=0
461280 On ch=1 n=f4 v=0
461280 On ch=1 n=a#4 v=65
461280 On ch=1 n=f4 v=65
461400 On ch=1 n=d4 v=65
461520 On ch=1 n=d4 v=0
461520 On ch=1 n=f4 v=0
461520 On ch=1 n=g4 v=65
461760 On ch=1 n=g4 v=0
461760 On ch=1 n=a#4 v=0
461760 On ch=1 n=a4 v=65
461880 On ch=1 n=d4 v=65
462000 On ch=1 n=d4 v=0
462000 On ch=1 n=a4 v=0
462000 On ch=1 n=a#4 v=65
462240 On ch=1 n=a#4 v=0
462240 On ch=1 n=c5 v=65
462360 On ch=1 n=d4 v=65
462480 On ch=1 n=d4 v=0
462480 On ch=1 n=c5 v=0
462480 On ch=1 n=d5 v=68
462720 On ch=1 n=d5 v=0
462720 On ch=1 n=d#5 v=71
462840 On ch=1 n=d4 v=71
462960 On ch=1 n=d4 v=0
462960 On ch=1 n=d#5 v=0
462960 On ch=1 n=f5 v=74
463200 On ch=1 n=f5 v=0
463200 On ch=1 n=g5 v=84
463320 On ch=1 n=d4 v=78
463440 On ch=1 n=d4 v=0
463440 On ch=1 n=f5 v=75
463680 On ch=1 n=f5 v=0
463680 On ch=1 n=d#5 v=72
463800 On ch=1 n=d4 v=72
463920 On ch=1 n=d4 v=0
463920 On ch=1 n=d#5 v=0
463920 On ch=1 n=d5 v=69
464160 On ch=1 n=d5 v=0
464160 On ch=1 n=g5 v=0
464160 On ch=1 n=c5 v=65
464280 On ch=1 n=d4 v=65
464400 On ch=1 n=d4 v=0
464400 On ch=1 n=c5 v=0
464400 On ch=1 n=b4 v=65
464640 On ch=1 n=b4 v=0
464640 On ch=1 n=a5 v=65
464640 On ch=1 n=a4 v=65
464760 On ch=1 n=d4 v=65
464880 On ch=1 n=d4 v=0
464880 On ch=1 n=a4 v=0
464880 On ch=1 n=a5 v=0
464880 On ch=1 n=b5 v=71
464880 On ch=1 n=g4 v=65
465120 On ch=1 n=g4 v=0
465120 On ch=1 n=b5 v=0
465120 On ch=1 n=d#5 v=78
465160 On ch=1 n=d#6 v=78
466320 On ch=1 n=d#6 v=0
466320 On ch=1 n=d#5 v=0
466320 On ch=1 n=d6 v=65
466656 On ch=1 n=d6 v=0
466656 On ch=1 n=c6 v=70
466752 On ch=1 n=c6 v=0
466752 On ch=1 n=a#5 v=75
466848 On ch=1 n=a#5 v=0
466848 On ch=1 n=a5 v=80
466944 On ch=1 n=a5 v=0
466944 On ch=1 n=g5 v=85
467040 On ch=1 n=g5 v=0
467040 On ch=1 n=d#5 v=90
467040 On ch=1 n=f5 v=90
467160 On ch=1 n=f4 v=90
467280 On ch=1 n=f4 v=0
467280 On ch=1 n=d#5 v=0
467280 On ch=1 n=d5 v=90
467520 On ch=1 n=d5 v=0
467520 On ch=1 n=c5 v=90
467640 On ch=1 n=f4 v=90
467760 On ch=1 n=f4 v=0
467760 On ch=1 n=c5 v=0
467760 On ch=1 n=a#4 v=90
468000 On ch=1 n=a#4 v=0
468000 On ch=1 n=a4 v=90
468120 On ch=1 n=f4 v=90
468240 On ch=1 n=f4 v=0
468240 On ch=1 n=a4 v=0
468240 On ch=1 n=g4 v=88
468480 On ch=1 n=g4 v=0
468576 On ch=1 n=f5 v=0
468576 On ch=1 n=g5 v=92
468672 On ch=1 n=g5 v=0
468672 On ch=1 n=a5 v=94
468768 On ch=1 n=a5 v=0
468768 On ch=1 n=a#5 v=97
468864 On ch=1 n=a#5 v=0
468864 On ch=1 n=c6 v=100
468960 On ch=1 n=c6 v=0
468960 On ch=1 n=d6 v=102
469200 On ch=1 n=d6 v=0
469200 On ch=1 n=c6 v=102
469440 On ch=1 n=c6 v=0
469440 On ch=1 n=g6 v=108
470160 On ch=1 n=g6 v=0
470160 On ch=1 n=f6 v=102
470400 On ch=1 n=f6 v=0
470400 On ch=1 n=e6 v=102
470520 On ch=1 n=e6 v=0
470520 On ch=1 n=f6 v=102
470580 On ch=1 n=f6 v=0
470580 On ch=1 n=e6 v=102
470640 On ch=1 n=e6 v=0
470640 On ch=1 n=d6 v=102
470760 On ch=1 n=d6 v=0
470760 On ch=1 n=c6 v=102
470880 On ch=1 n=c6 v=0
470880 On ch=1 n=c6 v=102
471120 On ch=1 n=c6 v=0
471120 On ch=1 n=a#5 v=102
471360 On ch=1 n=a#5 v=0
471360 On ch=1 n=f6 v=108
472080 On ch=1 n=f6 v=0
472080 On ch=1 n=e6 v=102
472320 On ch=1 n=e6 v=0
472320 On ch=1 n=d6 v=102
472440 On ch=1 n=d6 v=0
472440 On ch=1 n=e6 v=102
472468 On ch=1 n=d6 v=102
472472 On ch=1 n=e6 v=0
472500 On ch=1 n=d6 v=0
472500 On ch=1 n=c#6 v=102
472528 On ch=1 n=d6 v=102
472532 On ch=1 n=c#6 v=0
472560 On ch=1 n=d6 v=0
472560 On ch=1 n=e6 v=102
472680 On ch=1 n=e6 v=0
472680 On ch=1 n=f6 v=102
472800 On ch=1 n=f6 v=0
472800 On ch=1 n=f6 v=90
472920 On ch=1 n=f5 v=90
473040 On ch=1 n=f5 v=0
473040 On ch=1 n=f6 v=0
473040 On ch=1 n=e6 v=90
473280 On ch=1 n=e6 v=0
473280 On ch=1 n=d6 v=90
473400 On ch=1 n=f5 v=90
473520 On ch=1 n=f5 v=0
473640 On ch=1 n=d6 v=0
473640 On ch=1 n=c6 v=90
473760 On ch=1 n=c6 v=0
473760 On ch=1 n=c6 v=90
473880 On ch=1 n=c5 v=90
474000 On ch=1 n=c5 v=0
474000 On ch=1 n=c6 v=0
474000 On ch=1 n=a#5 v=90
474240 On ch=1 n=a#5 v=0
474240 On ch=1 n=a5 v=87
474360 On ch=1 n=c5 v=84
474480 On ch=1 n=c5 v=0
474600 On ch=1 n=a5 v=0
474600 On ch=1 n=g5 v=81
474720 On ch=1 n=g5 v=0
474720 On ch=1 n=g5 v=78
474840 On ch=1 n=a#4 v=78
475320 On ch=1 n=a#4 v=0
475320 On ch=1 n=a#4 v=78
475680 On ch=1 n=g5 v=0
475680 On ch=1 n=f5 v=78
475800 On ch=1 n=a#4 v=0
475800 On ch=1 n=a4 v=78
476160 On ch=1 n=a4 v=0
476160 On ch=1 n=f5 v=0
476680 On ch=1 n=f5 v=65
476760 On ch=1 n=d#5 v=65
476880 On ch=1 n=d#5 v=0
476880 On ch=1 n=f5 v=0
476880 On ch=1 n=g5 v=68
477120 On ch=1 n=g5 v=0
477120 On ch=1 n=a5 v=71
477240 On ch=1 n=d#5 v=71
477360 On ch=1 n=d#5 v=0
477360 On ch=1 n=a5 v=0
477360 On ch=1 n=a#5 v=74
477600 On ch=1 n=a#5 v=0
477600 On ch=1 n=c6 v=77
477720 On ch=1 n=d#5 v=77
477840 On ch=1 n=d#5 v=0
477840 On ch=1 n=c6 v=0
477840 On ch=1 n=d6 v=80
478080 On ch=1 n=d6 v=0
478080 On ch=1 n=d#6 v=83
478200 On ch=1 n=d#5 v=83
478320 On ch=1 n=d#5 v=0
478320 On ch=1 n=d#6 v=0
478320 On ch=1 n=f6 v=87
478560 On ch=1 n=f6 v=0
478600 On ch=1 n=f#6 v=90
478680 On ch=1 n=d#5 v=90
478800 On ch=1 n=d#5 v=0
478800 On ch=1 n=f#6 v=0
478800 On ch=1 n=f6 v=86
479040 On ch=1 n=f6 v=0
479040 On ch=1 n=d#6 v=81
479160 On ch=1 n=d#5 v=81
479280 On ch=1 n=d#5 v=0
479280 On ch=1 n=d#6 v=0
479280 On ch=1 n=c#6 v=77
479520 On ch=1 n=c#6 v=0
479520 On ch=1 n=c6 v=72
479640 On ch=1 n=d#5 v=72
479760 On ch=1 n=d#5 v=0
479760 On ch=1 n=c6 v=0
479760 On ch=1 n=a#5 v=68
480000 On ch=1 n=a#5 v=0
480000 On ch=1 n=a5 v=63
480120 On ch=1 n=d#5 v=63
480240 On ch=1 n=d#5 v=0
480240 On ch=1 n=a5 v=0
480240 On ch=1 n=a#5 v=58
480480 On ch=1 n=a#5 v=0
480480 On ch=1 n=f5 v=53
480480 On ch=1 n=a5 v=53
480600 On ch=1 n=f5 v=0
480600 On ch=1 n=d#5 v=53
480720 On ch=1 n=d#5 v=0
480720 On ch=1 n=a5 v=0
480720 On ch=1 n=g5 v=53
480960 On ch=1 n=g5 v=0
480960 On ch=1 n=a5 v=53
481080 On ch=1 n=d#5 v=53
481200 On ch=1 n=d#5 v=0
481200 On ch=1 n=a5 v=0
481200 On ch=1 n=a#5 v=53
481440 On ch=1 n=a#5 v=0
481440 On ch=1 n=c6 v=53
481560 On ch=1 n=d#5 v=53
481680 On ch=1 n=d#5 v=0
481680 On ch=1 n=c6 v=0
481680 On ch=1 n=c#6 v=53
481920 On ch=1 n=c#6 v=0
481920 On ch=1 n=d#6 v=53
482040 On ch=1 n=d#5 v=53
482160 On ch=1 n=d#5 v=0
482160 On ch=1 n=d#6 v=0
482160 On ch=1 n=f6 v=53
482400 On ch=1 n=f6 v=0
482440 On ch=1 n=f#6 v=53
482520 On ch=1 n=d#5 v=53
482640 On ch=1 n=d#5 v=0
482640 On ch=1 n=f#6 v=0
482640 On ch=1 n=f6 v=53
482880 On ch=1 n=f6 v=0
482880 On ch=1 n=d#6 v=53
483000 On ch=1 n=d#5 v=53
483120 On ch=1 n=d#5 v=0
483240 On ch=1 n=d#6 v=0
483240 On ch=1 n=c#6 v=53
483360 On ch=1 n=c#6 v=0
483360 On ch=1 n=c#6 v=53
483480 On ch=1 n=d#5 v=53
483600 On ch=1 n=d#5 v=0
483600 On ch=1 n=c#6 v=0
483600 On ch=1 n=c6 v=53
483760 On ch=1 n=a#5 v=53
483800 On ch=1 n=a#5 v=0
483800 On ch=1 n=c6 v=53
483840 On ch=1 n=c6 v=0
483840 On ch=1 n=c6 v=0
483840 On ch=1 n=a#5 v=53
483960 On ch=1 n=c5 v=53
484080 On ch=1 n=c5 v=0
484200 On ch=1 n=a#5 v=0
484200 On ch=1 n=g#5 v=53
484320 On ch=1 n=g#5 v=0
484320 On ch=1 n=c#6 v=53
484440 On ch=1 n=c#5 v=53
484920 On ch=1 n=c#5 v=0
484920 On ch=1 n=c#5 v=53
485400 On ch=1 n=c#5 v=0
485400 On ch=1 n=c#5 v=53
485880 On ch=1 n=c#5 v=0
485880 On ch=1 n=c#5 v=53
486240 On ch=1 n=c#6 v=0
486360 On ch=1 n=c#5 v=0
486360 On ch=1 n=c#5 v=53
486840 On ch=1 n=c#5 v=0
486840 On ch=1 n=c#5 v=53
487320 On ch=1 n=c#5 v=0
487320 On ch=1 n=c#5 v=53
487800 On ch=1 n=c#5 v=0
487800 On ch=1 n=c#5 v=53
487920 On ch=1 n=c#5 v=0
488040 On ch=1 n=c#5 v=53
488280 On ch=1 n=a#4 v=53
488400 On ch=1 n=a#4 v=0
488400 On ch=1 n=c#5 v=0
488400 On ch=1 n=d#5 v=56
488640 On ch=1 n=d#5 v=0
488640 On ch=1 n=f5 v=59
488760 On ch=1 n=a#4 v=59
488880 On ch=1 n=a#4 v=0
488880 On ch=1 n=f5 v=0
488880 On ch=1 n=f#5 v=62
489120 On ch=1 n=f#5 v=0
489120 On ch=1 n=g#5 v=65
489240 On ch=1 n=a#4 v=65
489360 On ch=1 n=a#4 v=0
489360 On ch=1 n=g#5 v=0
489360 On ch=1 n=a#5 v=68
489600 On ch=1 n=a#5 v=0
489600 On ch=1 n=b5 v=71
489720 On ch=1 n=a#4 v=71
489840 On ch=1 n=a#4 v=0
489840 On ch=1 n=b5 v=0
489840 On ch=1 n=c#6 v=74
490080 On ch=1 n=c#6 v=0
490080 On ch=1 n=d6 v=78
490200 On ch=1 n=b4 v=78
490320 On ch=1 n=b4 v=0
490320 On ch=1 n=d6 v=0
490320 On ch=1 n=b5 v=75
490560 On ch=1 n=b5 v=0
490560 On ch=1 n=g#5 v=72
490680 On ch=1 n=b4 v=72
490800 On ch=1 n=b4 v=0
490800 On ch=1 n=g#5 v=0
490800 On ch=1 n=f5 v=69
491040 On ch=1 n=f5 v=0
491040 On ch=1 n=d5 v=66
491160 On ch=1 n=g#4 v=66
491280 On ch=1 n=g#4 v=0
491280 On ch=1 n=d5 v=0
491280 On ch=1 n=b4 v=63
491520 On ch=1 n=b4 v=0
491520 On ch=1 n=g#4 v=60
491640 On ch=1 n=g#4 v=0
491640 On ch=1 n=f4 v=59
491760 On ch=1 n=f4 v=0
491760 On ch=1 n=d4 v=57
491880 On ch=1 n=d4 v=0
491880 On ch=1 n=b3 v=55
492000 On ch=1 n=b3 v=0
492120 On ch=1 n=a#4 v=53
492240 On ch=1 n=a#4 v=0
492240 On ch=1 n=d#5 v=53
492480 On ch=1 n=d#5 v=0
492480 On ch=1 n=f5 v=53
492600 On ch=1 n=a#4 v=53
492720 On ch=1 n=a#4 v=0
492720 On ch=1 n=f5 v=0
492720 On ch=1 n=f#5 v=53
492960 On ch=1 n=f#5 v=0
492960 On ch=1 n=g#5 v=53
493080 On ch=1 n=a#4 v=53
493200 On ch=1 n=a#4 v=0
493200 On ch=1 n=g#5 v=0
493200 On ch=1 n=a#5 v=53
493440 On ch=1 n=a#5 v=0
493440 On ch=1 n=b5 v=53
493560 On ch=1 n=a#4 v=53
493680 On ch=1 n=a#4 v=0
493680 On ch=1 n=b5 v=0
493680 On ch=1 n=c6 v=53
493920 On ch=1 n=c6 v=0
493920 On ch=1 n=c#6 v=53
494040 On ch=1 n=a#4 v=53
494160 On ch=1 n=a#4 v=0
494160 On ch=1 n=c#6 v=0
494160 On ch=1 n=a#5 v=53
494400 On ch=1 n=a#5 v=0
494400 On ch=1 n=g5 v=53
494520 On ch=1 n=a#4 v=53
494640 On ch=1 n=a#4 v=0
494640 On ch=1 n=g5 v=0
494640 On ch=1 n=e5 v=53
494880 On ch=1 n=e5 v=0
494880 On ch=1 n=c#5 v=53
495000 On ch=1 n=g4 v=53
495120 On ch=1 n=g4 v=0
495120 On ch=1 n=c#5 v=0
495120 On ch=1 n=a#4 v=53
495360 On ch=1 n=a#4 v=0
495360 On ch=1 n=a4 v=53
495520 On ch=1 n=f4 v=59
495720 On ch=1 n=a4 v=0
495720 On ch=1 n=a#4 v=53
495840 On ch=1 n=a#4 v=0
495840 On ch=1 n=f4 v=0
495840 On ch=1 n=a#4 v=65
495840 On ch=1 n=f4 v=65
495960 On ch=1 n=d4 v=65
496080 On ch=1 n=d4 v=0
496080 On ch=1 n=f4 v=0
496080 On ch=1 n=g4 v=65
496320 On ch=1 n=g4 v=0
496320 On ch=1 n=a#4 v=0
496320 On ch=1 n=a4 v=65
496440 On ch=1 n=d4 v=65
496560 On ch=1 n=d4 v=0
496560 On ch=1 n=a4 v=0
496560 On ch=1 n=a#4 v=65
496800 On ch=1 n=a#4 v=0
496800 On ch=1 n=c5 v=65
496920 On ch=1 n=d4 v=65
497040 On ch=1 n=d4 v=0
497040 On ch=1 n=c5 v=0
497040 On ch=1 n=d5 v=68
497280 On ch=1 n=d5 v=0
497280 On ch=1 n=d#5 v=71
497400 On ch=1 n=d4 v=71
497520 On ch=1 n=d4 v=0
497520 On ch=1 n=d#5 v=0
497520 On ch=1 n=f5 v=74
497760 On ch=1 n=f5 v=0
497760 On ch=1 n=g5 v=84
497880 On ch=1 n=d4 v=78
498000 On ch=1 n=d4 v=0
498000 On ch=1 n=f5 v=75
498240 On ch=1 n=f5 v=0
498240 On ch=1 n=d#5 v=72
498360 On ch=1 n=d4 v=72
498480 On ch=1 n=d4 v=0
498480 On ch=1 n=d#5 v=0
498480 On ch=1 n=d5 v=69
498720 On ch=1 n=d5 v=0
498720 On ch=1 n=g5 v=0
498720 On ch=1 n=c5 v=65
498840 On ch=1 n=d4 v=65
498960 On ch=1 n=d4 v=0
498960 On ch=1 n=c5 v=0
498960 On ch=1 n=b4 v=65
499200 On ch=1 n=b4 v=0
499200 On ch=1 n=a5 v=65
499200 On ch=1 n=a4 v=65
499320 On ch=1 n=d4 v=65
499440 On ch=1 n=d4 v=0
499440 On ch=1 n=a4 v=0
499440 On ch=1 n=a5 v=0
499440 On ch=1 n=b5 v=71
499440 On ch=1 n=g4 v=65
499680 On ch=1 n=g4 v=0
499680 On ch=1 n=b5 v=0
499680 On ch=1 n=d#5 v=78
499720 On ch=1 n=d#6 v=78
500880 On ch=1 n=d#6 v=0
500880 On ch=1 n=d#5 v=0
500880 On ch=1 n=d6 v=65
501216 On ch=1 n=d6 v=0
501216 On ch=1 n=c6 v=70
501312 On ch=1 n=c6 v=0
501312 On ch=1 n=a#5 v=75
501408 On ch=1 n=a#5 v=0
501408 On ch=1 n=a5 v=80
501504 On ch=1 n=a5 v=0
501504 On ch=1 n=g5 v=85
501600 On ch=1 n=g5 v=0
501600 On ch=1 n=d#5 v=90
501600 On ch=1 n=f5 v=90
501720 On ch=1 n=f4 v=90
501840 On ch=1 n=f4 v=0
501840 On ch=1 n=d#5 v=0
501840 On ch=1 n=d5 v=90
502080 On ch=1 n=d5 v=0
502080 On ch=1 n=c5 v=90
502200 On ch=1 n=f4 v=90
502320 On ch=1 n=f4 v=0
502320 On ch=1 n=c5 v=0
502320 On ch=1 n=a#4 v=90
502560 On ch=1 n=a#4 v=0
502560 On ch=1 n=a4 v=90
502680 On ch=1 n=f4 v=90
502800 On ch=1 n=f4 v=0
502800 On ch=1 n=a4 v=0
502800 On ch=1 n=g4 v=88
503040 On ch=1 n=g4 v=0
503136 On ch=1 n=f5 v=0
503136 On ch=1 n=g5 v=92
503232 On ch=1 n=g5 v=0
503232 On ch=1 n=a5 v=94
503328 On ch=1 n=a5 v=0
503328 On ch=1 n=a#5 v=97
503424 On ch=1 n=a#5 v=0
503424 On ch=1 n=c6 v=100
503520 On ch=1 n=c6 v=0
503520 On ch=1 n=d6 v=102
503640 On ch=1 n=d5 v=102
503760 On ch=1 n=d5 v=0
503760 On ch=1 n=d6 v=0
503760 On ch=1 n=c6 v=102
504000 On ch=1 n=c6 v=0
504000 On ch=1 n=a#5 v=102
504120 On ch=1 n=d5 v=102
504240 On ch=1 n=d5 v=0
504240 On ch=1 n=a#5 v=0
504240 On ch=1 n=a5 v=102
504480 On ch=1 n=a5 v=0
504480 On ch=1 n=g6 v=102
504600 On ch=1 n=g5 v=102
504720 On ch=1 n=g5 v=0
504720 On ch=1 n=g6 v=0
504720 On ch=1 n=f6 v=102
504960 On ch=1 n=f6 v=0
504960 On ch=1 n=d#6 v=102
505080 On ch=1 n=f5 v=102
505200 On ch=1 n=f5 v=0
505200 On ch=1 n=d#6 v=0
505200 On ch=1 n=d6 v=102
505440 On ch=1 n=d6 v=0
505440 On ch=1 n=c6 v=102
505560 On ch=1 n=c5 v=102
505680 On ch=1 n=c5 v=0
505680 On ch=1 n=c6 v=0
505680 On ch=1 n=a#5 v=102
505920 On ch=1 n=a#5 v=0
505920 On ch=1 n=g#5 v=102
506040 On ch=1 n=c5 v=102
506160 On ch=1 n=c5 v=0
506160 On ch=1 n=g#5 v=0
506160 On ch=1 n=g5 v=102
506400 On ch=1 n=g5 v=0
506400 On ch=1 n=f6 v=102
506520 On ch=1 n=f5 v=102
506640 On ch=1 n=f5 v=0
506640 On ch=1 n=f6 v=0
506640 On ch=1 n=d#6 v=102
506880 On ch=1 n=d#6 v=0
506880 On ch=1 n=d6 v=102
507000 On ch=1 n=d#5 v=102
507120 On ch=1 n=d#5 v=0
507120 On ch=1 n=d6 v=0
507120 On ch=1 n=c6 v=102
507360 On ch=1 n=c6 v=0
507360 On ch=1 n=a#5 v=102
507480 On ch=1 n=d5 v=102
507600 On ch=1 n=d5 v=0
507600 On ch=1 n=a#5 v=0
507600 On ch=1 n=g#5 v=98
507840 On ch=1 n=g#5 v=0
507840 On ch=1 n=g5 v=93
507960 On ch=1 n=g#4 v=93
508080 On ch=1 n=g#4 v=0
508080 On ch=1 n=g5 v=0
508080 On ch=1 n=f#5 v=89
508320 On ch=1 n=f#5 v=0
508320 On ch=1 n=g5 v=84
508440 On ch=1 n=g4 v=84
508560 On ch=1 n=g4 v=0
508560 On ch=1 n=g5 v=0
508560 On ch=1 n=d#5 v=80
508800 On ch=1 n=d#5 v=0
508800 On ch=1 n=d5 v=75
508920 On ch=1 n=g4 v=75
509040 On ch=1 n=g4 v=0
509040 On ch=1 n=d5 v=0
509040 On ch=1 n=c#5 v=70
509280 On ch=1 n=c#5 v=0
509280 On ch=1 n=d5 v=65
509440 On ch=1 n=a4 v=65
509600 On ch=1 n=a4 v=0
509600 On ch=1 n=g4 v=65
509760 On ch=1 n=g4 v=0
509760 On ch=1 n=f#4 v=65
510000 On ch=1 n=f#4 v=0
510000 On ch=1 n=e4 v=65
510000 On ch=1 n=g4 v=65
510240 On ch=1 n=g4 v=0
510240 On ch=1 n=e4 v=0
510300 On ch=1 n=f#4 v=65
510300 On ch=1 n=a4 v=65
511680 On ch=1 n=a4 v=0
511680 On ch=1 n=f#4 v=0
511680 On ch=1 n=d5 v=0
511920 On ch=1 n=d4 v=65
512100 On ch=1 n=d4 v=0
512160 On ch=1 n=g4 v=65
512240 On ch=1 n=g4 v=0
512240 On ch=1 n=d4 v=65
512320 On ch=1 n=d4 v=0
512320 On ch=1 n=a4 v=65
512400 On ch=1 n=a4 v=0
512400 On ch=1 n=a#4 v=65
512580 On ch=1 n=a#4 v=0
512640 On ch=1 n=a4 v=65
512720 On ch=1 n=a4 v=0
512720 On ch=1 n=d4 v=65
512800 On ch=1 n=d4 v=0
512800 On ch=1 n=a#4 v=65
512880 On ch=1 n=a#4 v=0
512880 On ch=1 n=c5 v=65
513060 On ch=1 n=c5 v=0
513120 On ch=1 n=a#4 v=65
513200 On ch=1 n=a#4 v=0
513200 On ch=1 n=d4 v=65
513280 On ch=1 n=d4 v=0
513280 On ch=1 n=c5 v=65
513360 On ch=1 n=c5 v=0
513360 On ch=1 n=d5 v=65
513540 On ch=1 n=d5 v=0
513600 On ch=1 n=g4 v=65
513680 On ch=1 n=g4 v=0
513680 On ch=1 n=d4 v=65
513760 On ch=1 n=d4 v=0
513760 On ch=1 n=a4 v=65
513840 On ch=1 n=a4 v=0
513840 On ch=1 n=a#4 v=65
514020 On ch=1 n=a#4 v=0
514080 On ch=1 n=a4 v=65
514160 On ch=1 n=a4 v=0
514160 On ch=1 n=d#4 v=65
514240 On ch=1 n=d#4 v=0
514240 On ch=1 n=a#4 v=65
514320 On ch=1 n=a#4 v=0
514320 On ch=1 n=c5 v=65
514500 On ch=1 n=c5 v=0
514560 On ch=1 n=f#4 v=65
514640 On ch=1 n=f#4 v=0
514640 On ch=1 n=c4 v=65
514720 On ch=1 n=c4 v=0
514720 On ch=1 n=g4 v=65
514800 On ch=1 n=g4 v=0
514800 On ch=1 n=a4 v=65
514980 On ch=1 n=a4 v=0
515040 On ch=1 n=g4 v=65
515120 On ch=1 n=g4 v=0
515120 On ch=1 n=d4 v=65
515200 On ch=1 n=d4 v=0
515200 On ch=1 n=a4 v=65
515280 On ch=1 n=a4 v=0
515280 On ch=1 n=a#4 v=65
515460 On ch=1 n=a#4 v=0
515520 On ch=1 n=a4 v=65
515600 On ch=1 n=a4 v=0
515700 On ch=1 n=f#4 v=65
515760 On ch=1 n=f#4 v=0
515760 On ch=1 n=d4 v=65
515940 On ch=1 n=d4 v=0
516000 On ch=1 n=g4 v=65
516080 On ch=1 n=g4 v=0
516080 On ch=1 n=d4 v=65
516160 On ch=1 n=d4 v=0
516160 On ch=1 n=a4 v=65
516240 On ch=1 n=a4 v=0
516240 On ch=1 n=a#4 v=65
516420 On ch=1 n=a#4 v=0
516480 On ch=1 n=a4 v=65
516560 On ch=1 n=a4 v=0
516560 On ch=1 n=d4 v=65
516640 On ch=1 n=d4 v=0
516640 On ch=1 n=a#4 v=65
516720 On ch=1 n=a#4 v=0
516720 On ch=1 n=c5 v=65
516900 On ch=1 n=c5 v=0
516960 On ch=1 n=a#4 v=65
517040 On ch=1 n=a#4 v=0
517040 On ch=1 n=d4 v=65
517120 On ch=1 n=d4 v=0
517120 On ch=1 n=c5 v=65
517200 On ch=1 n=c5 v=0
517200 On ch=1 n=d5 v=65
517380 On ch=1 n=d5 v=0
517440 On ch=1 n=g4 v=65
517520 On ch=1 n=g4 v=0
517520 On ch=1 n=d4 v=65
517600 On ch=1 n=d4 v=0
517600 On ch=1 n=a4 v=65
517680 On ch=1 n=a4 v=0
517680 On ch=1 n=a#4 v=65
517860 On ch=1 n=a#4 v=0
517920 On ch=1 n=a4 v=67
518000 On ch=1 n=a4 v=0
518000 On ch=1 n=d#4 v=69
518080 On ch=1 n=d#4 v=0
518080 On ch=1 n=a#4 v=71
518160 On ch=1 n=a#4 v=0
518160 On ch=1 n=c5 v=73
518340 On ch=1 n=c5 v=0
518400 On ch=1 n=b4 v=75
518480 On ch=1 n=b4 v=0
518480 On ch=1 n=f4 v=77
518560 On ch=1 n=f4 v=0
518560 On ch=1 n=c5 v=79
518640 On ch=1 n=c5 v=0
518640 On ch=1 n=d5 v=82
518820 On ch=1 n=d5 v=0
518880 On ch=1 n=c5 v=85
518960 On ch=1 n=c5 v=0
518960 On ch=1 n=g4 v=85
519040 On ch=1 n=g4 v=0
519040 On ch=1 n=d5 v=85
519120 On ch=1 n=d5 v=0
519120 On ch=1 n=d#5 v=85
519300 On ch=1 n=d#5 v=0
519360 On ch=1 n=b4 v=85
519440 On ch=1 n=b4 v=0
519440 On ch=1 n=f4 v=85
519520 On ch=1 n=f4 v=0
519520 On ch=1 n=c5 v=85
519600 On ch=1 n=c5 v=0
519600 On ch=1 n=d5 v=85
519780 On ch=1 n=d5 v=0
519840 On ch=1 n=c5 v=85
519920 On ch=1 n=c5 v=0
519920 On ch=1 n=g4 v=85
520000 On ch=1 n=g4 v=0
520000 On ch=1 n=d5 v=85
520080 On ch=1 n=d5 v=0
520080 On ch=1 n=d#5 v=85
520260 On ch=1 n=d#5 v=0
520320 On ch=1 n=d#5 v=86
520400 On ch=1 n=d#5 v=0
520400 On ch=1 n=g4 v=88
520480 On ch=1 n=g4 v=0
520480 On ch=1 n=f5 v=89
520560 On ch=1 n=f5 v=0
520560 On ch=1 n=g5 v=91
520740 On ch=1 n=g5 v=0
520800 On ch=1 n=f#5 v=92
520880 On ch=1 n=f#5 v=0
520880 On ch=1 n=f#4 v=94
520960 On ch=1 n=f#4 v=0
520960 On ch=1 n=g5 v=95
521040 On ch=1 n=g5 v=0
521040 On ch=1 n=a5 v=97
521220 On ch=1 n=a5 v=0
521280 On ch=1 n=d5 v=100
521460 On ch=1 n=d5 v=0
521520 On ch=1 n=d5 v=102
521700 On ch=1 n=d5 v=0
521760 On ch=1 n=g5 v=102
521840 On ch=1 n=g5 v=0
521840 On ch=1 n=d5 v=102
521920 On ch=1 n=d5 v=0
521920 On ch=1 n=a5 v=102
522000 On ch=1 n=a5 v=0
522000 On ch=1 n=a#5 v=102
522180 On ch=1 n=a#5 v=0
522240 On ch=1 n=a5 v=102
522320 On ch=1 n=a5 v=0
522320 On ch=1 n=d5 v=102
522400 On ch=1 n=d5 v=0
522400 On ch=1 n=a#5 v=102
522480 On ch=1 n=a#5 v=0
522480 On ch=1 n=c6 v=102
522660 On ch=1 n=c6 v=0
522720 On ch=1 n=a#5 v=102
522800 On ch=1 n=a#5 v=0
522800 On ch=1 n=d5 v=102
522880 On ch=1 n=d5 v=0
522880 On ch=1 n=c6 v=102
522960 On ch=1 n=c6 v=0
522960 On ch=1 n=d6 v=102
523140 On ch=1 n=d6 v=0
523200 On ch=1 n=g5 v=102
523280 On ch=1 n=g5 v=0
523280 On ch=1 n=d5 v=102
523360 On ch=1 n=d5 v=0
523360 On ch=1 n=a5 v=102
523440 On ch=1 n=a5 v=0
523440 On ch=1 n=a#5 v=102
523620 On ch=1 n=a#5 v=0
523680 On ch=1 n=a5 v=102
523760 On ch=1 n=a5 v=0
523760 On ch=1 n=d#5 v=102
523840 On ch=1 n=d#5 v=0
523840 On ch=1 n=a#5 v=102
523920 On ch=1 n=a#5 v=0
523920 On ch=1 n=c6 v=102
524100 On ch=1 n=c6 v=0
524160 On ch=1 n=f#5 v=102
524240 On ch=1 n=f#5 v=0
524240 On ch=1 n=c5 v=102
524320 On ch=1 n=c5 v=0
524320 On ch=1 n=g5 v=102
524400 On ch=1 n=g5 v=0
524400 On ch=1 n=a5 v=102
524580 On ch=1 n=a5 v=0
524640 On ch=1 n=g5 v=102
524720 On ch=1 n=g5 v=0
524720 On ch=1 n=d5 v=102
524800 On ch=1 n=d5 v=0
524800 On ch=1 n=a5 v=102
524880 On ch=1 n=a5 v=0
524880 On ch=1 n=a#5 v=102
525060 On ch=1 n=a#5 v=0
525120 On ch=1 n=a5 v=102
525200 On ch=1 n=a5 v=0
525300 On ch=1 n=f#5 v=102
525360 On ch=1 n=f#5 v=0
525360 On ch=1 n=d5 v=102
525540 On ch=1 n=d5 v=0
525600 On ch=1 n=g5 v=102
525680 On ch=1 n=g5 v=0
525680 On ch=1 n=d5 v=102
525760 On ch=1 n=d5 v=0
525760 On ch=1 n=a5 v=102
525840 On ch=1 n=a5 v=0
525840 On ch=1 n=a#5 v=102
526020 On ch=1 n=a#5 v=0
526080 On ch=1 n=a5 v=102
526160 On ch=1 n=a5 v=0
526160 On ch=1 n=d5 v=102
526240 On ch=1 n=d5 v=0
526240 On ch=1 n=a#5 v=102
526320 On ch=1 n=a#5 v=0
526320 On ch=1 n=c6 v=102
526500 On ch=1 n=c6 v=0
526560 On ch=1 n=a#5 v=102
526640 On ch=1 n=a#5 v=0
526640 On ch=1 n=d5 v=102
526720 On ch=1 n=d5 v=0
526720 On ch=1 n=c6 v=102
526800 On ch=1 n=c6 v=0
526800 On ch=1 n=d6 v=102
526980 On ch=1 n=d6 v=0
527040 On ch=1 n=d#6 v=102
527120 On ch=1 n=d#6 v=0
527120 On ch=1 n=g5 v=102
527200 On ch=1 n=g5 v=0
527200 On ch=1 n=f6 v=102
527280 On ch=1 n=f6 v=0
527280 On ch=1 n=g6 v=102
527460 On ch=1 n=g6 v=0
527520 On ch=1 n=a5 v=102
527600 On ch=1 n=a5 v=0
527600 On ch=1 n=c5 v=102
527680 On ch=1 n=c5 v=0
527680 On ch=1 n=a#5 v=102
527760 On ch=1 n=a#5 v=0
527760 On ch=1 n=c6 v=102
527940 On ch=1 n=c6 v=0
528000 On ch=1 n=d6 v=102
528080 On ch=1 n=d6 v=0
528080 On ch=1 n=f5 v=102
528160 On ch=1 n=f5 v=0
528160 On ch=1 n=d#6 v=102
528240 On ch=1 n=d#6 v=0
528240 On ch=1 n=f6 v=102
528420 On ch=1 n=f6 v=0
528480 On ch=1 n=g5 v=102
528560 On ch=1 n=g5 v=0
528560 On ch=1 n=a#4 v=102
528640 On ch=1 n=a#4 v=0
528640 On ch=1 n=a5 v=102
528720 On ch=1 n=a5 v=0
528720 On ch=1 n=a#5 v=102
528900 On ch=1 n=a#5 v=0
528960 On ch=1 n=c6 v=102
529040 On ch=1 n=c6 v=0
529040 On ch=1 n=d#5 v=102
529120 On ch=1 n=d#5 v=0
529120 On ch=1 n=d6 v=102
529200 On ch=1 n=d6 v=0
529200 On ch=1 n=d#6 v=102
529380 On ch=1 n=d#6 v=0
529440 On ch=1 n=f#5 v=102
529520 On ch=1 n=f#5 v=0
529520 On ch=1 n=a4 v=102
529600 On ch=1 n=a4 v=0
529600 On ch=1 n=g5 v=102
529680 On ch=1 n=g5 v=0
529680 On ch=1 n=a5 v=102
529860 On ch=1 n=a5 v=0
529920 On ch=1 n=c6 v=102
530000 On ch=1 n=c6 v=0
530000 On ch=1 n=d#5 v=102
530080 On ch=1 n=d#5 v=0
530080 On ch=1 n=d6 v=102
530160 On ch=1 n=d6 v=0
530160 On ch=1 n=d#6 v=102
530340 On ch=1 n=d#6 v=0
530400 On ch=1 n=f#5 v=102
530480 On ch=1 n=f#5 v=0
530480 On ch=1 n=a4 v=102
530560 On ch=1 n=a4 v=0
530560 On ch=1 n=g5 v=102
530640 On ch=1 n=g5 v=0
530640 On ch=1 n=a5 v=102
530820 On ch=1 n=a5 v=0
530880 On ch=1 n=c6 v=102
530960 On ch=1 n=c6 v=0
530960 On ch=1 n=d#5 v=102
531040 On ch=1 n=d#5 v=0
531040 On ch=1 n=d6 v=102
531120 On ch=1 n=d6 v=0
531120 On ch=1 n=d#6 v=102
531300 On ch=1 n=d#6 v=0
531360 On ch=1 n=f#5 v=102
531440 On ch=1 n=f#5 v=0
531440 On ch=1 n=a4 v=102
531520 On ch=1 n=a4 v=0
531520 On ch=1 n=g5 v=102
531600 On ch=1 n=g5 v=0
531600 On ch=1 n=a5 v=102
531780 On ch=1 n=a5 v=0
531840 On ch=1 n=c5 v=94
531920 On ch=1 n=c5 v=0
531920 On ch=1 n=a4 v=94
532000 On ch=1 n=a4 v=0
532000 On ch=1 n=d5 v=94
532080 On ch=1 n=d5 v=0
532080 On ch=1 n=d#5 v=94
532260 On ch=1 n=d#5 v=0
532320 On ch=1 n=f#4 v=86
532400 On ch=1 n=f#4 v=0
532400 On ch=1 n=d4 v=86
532480 On ch=1 n=d4 v=0
532480 On ch=1 n=g4 v=86
532560 On ch=1 n=g4 v=0
532560 On ch=1 n=a4 v=86
532740 On ch=1 n=a4 v=0
532800 On ch=1 n=d4 v=78
532980 On ch=1 n=d4 v=0
533040 On ch=1 n=d4 v=102
533220 On ch=1 n=d4 v=0
533280 On ch=1 n=g4 v=102
533360 On ch=1 n=g4 v=0
533360 On ch=1 n=d4 v=102
533440 On ch=1 n=d4 v=0
533440 On ch=1 n=a4 v=102
533520 On ch=1 n=a4 v=0
533520 On ch=1 n=a#4 v=102
533700 On ch=1 n=a#4 v=0
533760 On ch=1 n=a4 v=102
533840 On ch=1 n=a4 v=0
533840 On ch=1 n=d4 v=102
533920 On ch=1 n=d4 v=0
533920 On ch=1 n=a#4 v=102
534000 On ch=1 n=a#4 v=0
534000 On ch=1 n=c5 v=102
534180 On ch=1 n=c5 v=0
534240 On ch=1 n=a#4 v=102
534320 On ch=1 n=a#4 v=0
534320 On ch=1 n=d4 v=102
534400 On ch=1 n=d4 v=0
534400 On ch=1 n=c5 v=102
534480 On ch=1 n=c5 v=0
534480 On ch=1 n=d5 v=102
534660 On ch=1 n=d5 v=0
534720 On ch=1 n=g4 v=102
534800 On ch=1 n=g4 v=0
534800 On ch=1 n=d4 v=102
534880 On ch=1 n=d4 v=0
534880 On ch=1 n=a4 v=102
534960 On ch=1 n=a4 v=0
534960 On ch=1 n=a#4 v=102
535140 On ch=1 n=a#4 v=0
535200 On ch=1 n=a4 v=106
535280 On ch=1 n=a4 v=0
535280 On ch=1 n=d#4 v=106
535360 On ch=1 n=d#4 v=0
535360 On ch=1 n=a#4 v=106
535440 On ch=1 n=a#4 v=0
535440 On ch=1 n=c5 v=106
535620 On ch=1 n=c5 v=0
535680 On ch=1 n=b4 v=110
535760 On ch=1 n=b4 v=0
535760 On ch=1 n=f4 v=110
535840 On ch=1 n=f4 v=0
535840 On ch=1 n=c5 v=110
535920 On ch=1 n=c5 v=0
535920 On ch=1 n=d5 v=110
536100 On ch=1 n=d5 v=0
536160 On ch=1 n=c5 v=114
536240 On ch=1 n=c5 v=0
536240 On ch=1 n=g4 v=114
536320 On ch=1 n=g4 v=0
536320 On ch=1 n=d5 v=114
536400 On ch=1 n=d5 v=0
536400 On ch=1 n=d#5 v=114
536580 On ch=1 n=d#5 v=0
536640 On ch=1 n=b4 v=114
536720 On ch=1 n=b4 v=0
536720 On ch=1 n=f4 v=114
536800 On ch=1 n=f4 v=0
536800 On ch=1 n=c5 v=114
536880 On ch=1 n=c5 v=0
536880 On ch=1 n=d5 v=114
537060 On ch=1 n=d5 v=0
537120 On ch=1 n=c5 v=114
537200 On ch=1 n=c5 v=0
537200 On ch=1 n=g4 v=114
537280 On ch=1 n=g4 v=0
537280 On ch=1 n=d5 v=114
537360 On ch=1 n=d5 v=0
537360 On ch=1 n=d#5 v=114
537540 On ch=1 n=d#5 v=0
537600 On ch=1 n=d5 v=114
537680 On ch=1 n=d5 v=0
537680 On ch=1 n=g4 v=114
537760 On ch=1 n=g4 v=0
537760 On ch=1 n=d#5 v=114
537840 On ch=1 n=d#5 v=0
537840 On ch=1 n=f5 v=114
538020 On ch=1 n=f5 v=0
538080 On ch=1 n=e5 v=120
538160 On ch=1 n=e5 v=0
538160 On ch=1 n=g4 v=114
538240 On ch=1 n=g4 v=0
538240 On ch=1 n=f#5 v=114
538320 On ch=1 n=f#5 v=0
538320 On ch=1 n=g5 v=114
538500 On ch=1 n=g5 v=0
538560 On ch=1 n=g5 v=120
538640 On ch=1 n=g5 v=0
538640 On ch=1 n=a#4 v=114
538720 On ch=1 n=a#4 v=0
538720 On ch=1 n=a5 v=114
538800 On ch=1 n=a5 v=0
538800 On ch=1 n=a#5 v=114
538980 On ch=1 n=a#5 v=0
539040 On ch=1 n=d5 v=120
539040 On ch=1 n=d6 v=120
539520 On ch=1 n=d6 v=0
539520 On ch=1 n=d5 v=0
539520 On ch=1 n=a4 v=120
539520 On ch=1 n=d5 v=120
539520 On ch=1 n=f#5 v=120
540000 On ch=1 n=f#5 v=0
540000 On ch=1 n=d5 v=0
540000 On ch=1 n=a4 v=0
540000 On ch=1 n=e5 v=124
540080 On ch=1 n=e5 v=0
540080 On ch=1 n=g4 v=118
540160 On ch=1 n=g4 v=0
540160 On ch=1 n=f#5 v=118
540240 On ch=1 n=f#5 v=0
540240 On ch=1 n=g5 v=118
540420 On ch=1 n=g5 v=0
540480 On ch=1 n=g5 v=126
540560 On ch=1 n=g5 v=0
540560 On ch=1 n=a#4 v=122
540640 On ch=1 n=a#4 v=0
540640 On ch=1 n=a5 v=122
540720 On ch=1 n=a5 v=0
540720 On ch=1 n=a#5 v=122
540900 On ch=1 n=a#5 v=0
540960 On ch=1 n=a#5 v=127
540960 On ch=1 n=d6 v=127
540960 On ch=1 n=g6 v=127
541440 On ch=1 n=g6 v=0
541440 On ch=1 n=d6 v=0
541440 On ch=1 n=a#5 v=0
541440 On ch=1 n=f#5 v=127
541440 On ch=1 n=a5 v=127
541440 On ch=1 n=d6 v=127
541620 On ch=1 n=d6 v=0
541620 On ch=1 n=a5 v=0
541620 On ch=1 n=f#5 v=0
541680 On ch=1 n=f5 v=114
541860 On ch=1 n=f5 v=0
541920 On ch=1 n=g#6 v=120
542000 On ch=1 n=g#6 v=0
542000 On ch=1 n=g#5 v=114
542080 On ch=1 n=g#5 v=0
542080 On ch=1 n=g6 v=114
542160 On ch=1 n=g6 v=0
542160 On ch=1 n=f6 v=114
542340 On ch=1 n=f6 v=0
542400 On ch=1 n=f6 v=114
542480 On ch=1 n=f6 v=0
542480 On ch=1 n=f5 v=114
542560 On ch=1 n=f5 v=0
542560 On ch=1 n=d#6 v=114
542640 On ch=1 n=d#6 v=0
542640 On ch=1 n=d6 v=114
542820 On ch=1 n=d6 v=0
542880 On ch=1 n=d6 v=114
542960 On ch=1 n=d6 v=0
542960 On ch=1 n=d5 v=114
543040 On ch=1 n=d5 v=0
543040 On ch=1 n=c6 v=114
543120 On ch=1 n=c6 v=0
543120 On ch=1 n=b5 v=114
543300 On ch=1 n=b5 v=0
543360 On ch=1 n=b5 v=114
543440 On ch=1 n=b5 v=0
543440 On ch=1 n=b4 v=114
543520 On ch=1 n=b4 v=0
543520 On ch=1 n=g#5 v=114
543600 On ch=1 n=g#5 v=0
543600 On ch=1 n=g5 v=114
543780 On ch=1 n=g5 v=0
543840 On ch=1 n=g5 v=114
543920 On ch=1 n=g5 v=0
543920 On ch=1 n=c5 v=114
544000 On ch=1 n=c5 v=0
544000 On ch=1 n=b5 v=114
544080 On ch=1 n=b5 v=0
544080 On ch=1 n=c6 v=114
544260 On ch=1 n=c6 v=0
544320 On ch=1 n=c6 v=114
544400 On ch=1 n=c6 v=0
544400 On ch=1 n=d#5 v=114
544480 On ch=1 n=d#5 v=0
544480 On ch=1 n=d6 v=114
544560 On ch=1 n=d6 v=0
544560 On ch=1 n=d#6 v=114
544740 On ch=1 n=d#6 v=0
544800 On ch=1 n=d#6 v=114
544880 On ch=1 n=d#6 v=0
544880 On ch=1 n=g5 v=114
544960 On ch=1 n=g5 v=0
544960 On ch=1 n=f6 v=114
545040 On ch=1 n=f6 v=0
545040 On ch=1 n=g6 v=114
545220 On ch=1 n=g6 v=0
545280 On ch=1 n=g6 v=114
545360 On ch=1 n=g6 v=0
545360 On ch=1 n=c6 v=114
545440 On ch=1 n=c6 v=0
545440 On ch=1 n=b6 v=114
545520 On ch=1 n=b6 v=0
545520 On ch=1 n=c7 v=114
545700 On ch=1 n=c7 v=0
545760 On ch=1 n=d#7 v=127
545840 On ch=1 n=d#7 v=0
545840 On ch=1 n=d#6 v=114
545920 On ch=1 n=d#6 v=0
545920 On ch=1 n=d7 v=114
546000 On ch=1 n=d7 v=0
546000 On ch=1 n=c7 v=114
546180 On ch=1 n=c7 v=0
546240 On ch=1 n=c7 v=114
546320 On ch=1 n=c7 v=0
546320 On ch=1 n=c6 v=114
546400 On ch=1 n=c6 v=0
546400 On ch=1 n=a#6 v=114
546480 On ch=1 n=a#6 v=0
546480 On ch=1 n=a6 v=114
546660 On ch=1 n=a6 v=0
546720 On ch=1 n=a6 v=114
546800 On ch=1 n=a6 v=0
546800 On ch=1 n=a5 v=114
546880 On ch=1 n=a5 v=0
546880 On ch=1 n=g6 v=114
546960 On ch=1 n=g6 v=0
546960 On ch=1 n=f#6 v=114
547140 On ch=1 n=f#6 v=0
547200 On ch=1 n=f#6 v=114
547280 On ch=1 n=f#6 v=0
547280 On ch=1 n=f#5 v=114
547360 On ch=1 n=f#5 v=0
547360 On ch=1 n=d#6 v=114
547440 On ch=1 n=d#6 v=0
547440 On ch=1 n=d6 v=114
547620 On ch=1 n=d6 v=0
547680 On ch=1 n=a#6 v=114
547760 On ch=1 n=a#6 v=0
547760 On ch=1 n=a#5 v=114
547840 On ch=1 n=a#5 v=0
547840 On ch=1 n=a6 v=114
547920 On ch=1 n=a6 v=0
547920 On ch=1 n=g6 v=114
548100 On ch=1 n=g6 v=0
548160 On ch=1 n=g6 v=127
548240 On ch=1 n=g6 v=0
548240 On ch=1 n=g5 v=114
548320 On ch=1 n=g5 v=0
548320 On ch=1 n=f6 v=114
548400 On ch=1 n=f6 v=0
548400 On ch=1 n=d#6 v=114
548580 On ch=1 n=d#6 v=0
548640 On ch=1 n=a#6 v=114
548720 On ch=1 n=a#6 v=0
548720 On ch=1 n=a#5 v=114
548800 On ch=1 n=a#5 v=0
548800 On ch=1 n=a6 v=114
548880 On ch=1 n=a6 v=0
548880 On ch=1 n=g6 v=114
549060 On ch=1 n=g6 v=0
549120 On ch=1 n=g6 v=127
549200 On ch=1 n=g6 v=0
549200 On ch=1 n=g5 v=114
549280 On ch=1 n=g5 v=0
549280 On ch=1 n=f6 v=114
549360 On ch=1 n=f6 v=0
549360 On ch=1 n=d#6 v=114
549540 On ch=1 n=d#6 v=0
549600 On ch=1 n=a#6 v=114
549680 On ch=1 n=a#6 v=0
549680 On ch=1 n=a#5 v=114
549760 On ch=1 n=a#5 v=0
549760 On ch=1 n=a6 v=114
549840 On ch=1 n=a6 v=0
549840 On ch=1 n=g6 v=114
550020 On ch=1 n=g6 v=0
550080 On ch=1 n=g6 v=120
550160 On ch=1 n=g6 v=0
550160 On ch=1 n=g5 v=114
550240 On ch=1 n=g5 v=0
550240 On ch=1 n=f6 v=114
550320 On ch=1 n=f6 v=0
550320 On ch=1 n=d#6 v=114
550500 On ch=1 n=d#6 v=0
550560 On ch=1 n=d#6 v=120
550640 On ch=1 n=d#6 v=0
550640 On ch=1 n=d#5 v=114
550720 On ch=1 n=d#5 v=0
550720 On ch=1 n=d6 v=114
550800 On ch=1 n=d6 v=0
550800 On ch=1 n=c6 v=114
550980 On ch=1 n=c6 v=0
551040 On ch=1 n=c6 v=120
551120 On ch=1 n=c6 v=0
551120 On ch=1 n=c5 v=114
551200 On ch=1 n=c5 v=0
551200 On ch=1 n=a#5 v=114
551280 On ch=1 n=a#5 v=0
551280 On ch=1 n=a5 v=114
551460 On ch=1 n=a5 v=0
551520 On ch=1 n=a#5 v=120
551600 On ch=1 n=a#5 v=0
551600 On ch=1 n=a#4 v=114
551680 On ch=1 n=a#4 v=0
551680 On ch=1 n=g#5 v=114
551760 On ch=1 n=g#5 v=0
551760 On ch=1 n=g5 v=114
551940 On ch=1 n=g5 v=0
552000 On ch=1 n=g5 v=127
552080 On ch=1 n=g5 v=0
552080 On ch=1 n=g4 v=114
552160 On ch=1 n=g4 v=0
552160 On ch=1 n=f5 v=114
552240 On ch=1 n=f5 v=0
552240 On ch=1 n=d#5 v=114
552420 On ch=1 n=d#5 v=0
552480 On ch=1 n=a#5 v=120
552560 On ch=1 n=a#5 v=0
552560 On ch=1 n=a#4 v=114
552640 On ch=1 n=a#4 v=0
552640 On ch=1 n=g#5 v=114
552720 On ch=1 n=g#5 v=0
552720 On ch=1 n=g5 v=114
552900 On ch=1 n=g5 v=0
552960 On ch=1 n=g5 v=127
553040 On ch=1 n=g5 v=0
553040 On ch=1 n=g4 v=114
553120 On ch=1 n=g4 v=0
553120 On ch=1 n=f5 v=114
553200 On ch=1 n=f5 v=0
553200 On ch=1 n=d#5 v=114
553380 On ch=1 n=d#5 v=0
553440 On ch=1 n=a#5 v=120
553520 On ch=1 n=a#5 v=0
553520 On ch=1 n=a#4 v=114
553600 On ch=1 n=a#4 v=0
553600 On ch=1 n=g#5 v=114
553680 On ch=1 n=g#5 v=0
553680 On ch=1 n=g5 v=114
553860 On ch=1 n=g5 v=0
553920 On ch=1 n=g5 v=120
554000 On ch=1 n=g5 v=0
554000 On ch=1 n=g4 v=114
554080 On ch=1 n=g4 v=0
554080 On ch=1 n=f5 v=114
554160 On ch=1 n=f5 v=0
554160 On ch=1 n=d#5 v=114
554340 On ch=1 n=d#5 v=0
554400 On ch=1 n=d#5 v=120
554480 On ch=1 n=d#5 v=0
554480 On ch=1 n=d#4 v=114
554560 On ch=1 n=d#4 v=0
554560 On ch=1 n=d5 v=114
554640 On ch=1 n=d5 v=0
554640 On ch=1 n=c5 v=114
554820 On ch=1 n=c5 v=0
554880 On ch=1 n=c5 v=120
554960 On ch=1 n=c5 v=0
554960 On ch=1 n=c4 v=114
555040 On ch=1 n=c4 v=0
555040 On ch=1 n=a#4 v=114
555120 On ch=1 n=a#4 v=0
555120 On ch=1 n=a4 v=114
555300 On ch=1 n=a4 v=0
555360 On ch=1 n=a#4 v=120
555440 On ch=1 n=a#4 v=0
555440 On ch=1 n=a#3 v=114
555520 On ch=1 n=a#3 v=0
555520 On ch=1 n=a4 v=114
555600 On ch=1 n=a4 v=0
555600 On ch=1 n=g4 v=114
555780 On ch=1 n=g4 v=0
555840 On ch=1 n=c5 v=127
555920 On ch=1 n=c5 v=0
555920 On ch=1 n=c4 v=114
556000 On ch=1 n=c4 v=0
556000 On ch=1 n=a#4 v=114
556080 On ch=1 n=a#4 v=0
556080 On ch=1 n=a4 v=114
556260 On ch=1 n=a4 v=0
556320 On ch=1 n=a#4 v=120
556400 On ch=1 n=a#4 v=0
556400 On ch=1 n=a#3 v=114
556480 On ch=1 n=a#3 v=0
556480 On ch=1 n=a4 v=114
556560 On ch=1 n=a4 v=0
556560 On ch=1 n=g4 v=114
556740 On ch=1 n=g4 v=0
556800 On ch=1 n=c5 v=127
556880 On ch=1 n=c5 v=0
556880 On ch=1 n=c4 v=114
556960 On ch=1 n=c4 v=0
556960 On ch=1 n=a#4 v=114
557040 On ch=1 n=a#4 v=0
557040 On ch=1 n=a4 v=114
557220 On ch=1 n=a4 v=0
557280 On ch=1 n=d5 v=120
557360 On ch=1 n=d5 v=0
557360 On ch=1 n=d4 v=114
557440 On ch=1 n=d4 v=0
557440 On ch=1 n=c5 v=114
557520 On ch=1 n=c5 v=0
557520 On ch=1 n=a#4 v=114
557700 On ch=1 n=a#4 v=0
557760 On ch=1 n=g5 v=127
557840 On ch=1 n=g5 v=0
557840 On ch=1 n=g4 v=114
557920 On ch=1 n=g4 v=0
557920 On ch=1 n=d#5 v=114
558000 On ch=1 n=d#5 v=0
558000 On ch=1 n=d5 v=114
558180 On ch=1 n=d5 v=0
558240 On ch=1 n=a#5 v=120
558320 On ch=1 n=a#5 v=0
558320 On ch=1 n=a#4 v=114
558400 On ch=1 n=a#4 v=0
558400 On ch=1 n=a5 v=114
558480 On ch=1 n=a5 v=0
558480 On ch=1 n=g5 v=114
558660 On ch=1 n=g5 v=0
558720 On ch=1 n=d6 v=127
558800 On ch=1 n=d6 v=0
558800 On ch=1 n=d5 v=114
558880 On ch=1 n=d5 v=0
558880 On ch=1 n=a#5 v=114
558960 On ch=1 n=a#5 v=0
558960 On ch=1 n=a5 v=114
559140 On ch=1 n=a5 v=0
559200 On ch=1 n=g6 v=120
559280 On ch=1 n=g6 v=0
559280 On ch=1 n=g5 v=114
559360 On ch=1 n=g5 v=0
559360 On ch=1 n=d#6 v=114
559440 On ch=1 n=d#6 v=0
559440 On ch=1 n=d6 v=114
559620 On ch=1 n=d6 v=0
559680 On ch=1 n=a#6 v=127
559760 On ch=1 n=a#6 v=0
559760 On ch=1 n=a#5 v=114
559840 On ch=1 n=a#5 v=0
559840 On ch=1 n=a6 v=114
559920 On ch=1 n=a6 v=0
559920 On ch=1 n=g6 v=114
560100 On ch=1 n=g6 v=0
560160 On ch=1 n=d7 v=120
560240 On ch=1 n=d7 v=0
560240 On ch=1 n=d6 v=114
560320 On ch=1 n=d6 v=0
560320 On ch=1 n=c7 v=114
560400 On ch=1 n=c7 v=0
560400 On ch=1 n=a#6 v=114
560580 On ch=1 n=a#6 v=0
560640 On ch=1 n=g7 v=127
560720 On ch=1 n=g7 v=0
560720 On ch=1 n=g6 v=114
560800 On ch=1 n=g6 v=0
560800 On ch=1 n=d#7 v=114
560880 On ch=1 n=d#7 v=0
560880 On ch=1 n=d7 v=114
561060 On ch=1 n=d7 v=0
561120 On ch=1 n=a#7 v=127
561120 On ch=1 n=a#6 v=127
561240 On ch=1 n=a#6 v=0
561240 On ch=1 n=a#7 v=0
561360 On ch=1 n=g7 v=120
561480 On ch=1 n=a#6 v=120
561600 On ch=1 n=g7 v=0
561600 On ch=1 n=d7 v=120
561720 On ch=1 n=a#6 v=0
561720 On ch=1 n=g6 v=120
561840 On ch=1 n=d7 v=0
561840 On ch=1 n=a#6 v=120
561960 On ch=1 n=g6 v=0
561960 On ch=1 n=d6 v=120
562080 On ch=1 n=a#6 v=0
562080 On ch=1 n=g6 v=120
562200 On ch=1 n=d6 v=0
562200 On ch=1 n=a#5 v=120
562320 On ch=1 n=g6 v=0
562320 On ch=1 n=d6 v=120
562440 On ch=1 n=a#5 v=0
562440 On ch=1 n=g5 v=120
562560 On ch=1 n=d6 v=0
562560 On ch=1 n=a#5 v=120
562680 On ch=1 n=g5 v=0
562680 On ch=1 n=d5 v=120
562800 On ch=1 n=a#5 v=0
562800 On ch=1 n=g5 v=120
562920 On ch=1 n=d5 v=0
562920 On ch=1 n=a#4 v=120
563040 On ch=1 n=a#4 v=0
563040 On ch=1 n=g5 v=0
563040 On ch=1 n=c5 v=120
563040 On ch=1 n=d#5 v=120
563040 On ch=1 n=g#5 v=120
563280 On ch=1 n=g#5 v=0
563280 On ch=1 n=d#5 v=0
563280 On ch=1 n=c5 v=0
563280 On ch=1 n=g#4 v=120
563520 On ch=1 n=g#4 v=0
563520 On ch=1 n=a5 v=127
563520 On ch=1 n=a4 v=127
563760 On ch=1 n=a4 v=0
563760 On ch=1 n=c5 v=120
564000 On ch=1 n=d#5 v=120
564240 On ch=1 n=f#5 v=120
564480 On ch=1 n=f#5 v=0
564480 On ch=1 n=a5 v=120
564720 On ch=1 n=a5 v=0
564720 On ch=1 n=c6 v=120
564960 On ch=1 n=c6 v=0
564960 On ch=1 n=a5 v=0
564960 On ch=1 n=d#5 v=0
564960 On ch=1 n=c5 v=0
564960 On ch=1 n=d5 v=120
564960 On ch=1 n=g5 v=120
564960 On ch=1 n=a#5 v=120
565080 On ch=1 n=a#5 v=0
565080 On ch=1 n=g5 v=0
565080 On ch=1 n=d5 v=0
565200 On ch=1 n=g6 v=120
565320 On ch=1 n=a#5 v=120
565440 On ch=1 n=g6 v=0
565440 On ch=1 n=d6 v=120
565560 On ch=1 n=a#5 v=0
565560 On ch=1 n=g5 v=120
565680 On ch=1 n=d6 v=0
565680 On ch=1 n=a#5 v=120
565800 On ch=1 n=g5 v=0
565800 On ch=1 n=d5 v=120
565920 On ch=1 n=a#5 v=0
565920 On ch=1 n=g5 v=120
566040 On ch=1 n=d5 v=0
566040 On ch=1 n=a#4 v=120
566160 On ch=1 n=g5 v=0
566160 On ch=1 n=d5 v=120
566280 On ch=1 n=a#4 v=0
566280 On ch=1 n=g4 v=120
566400 On ch=1 n=d5 v=0
566400 On ch=1 n=a#4 v=120
566520 On ch=1 n=g4 v=0
566520 On ch=1 n=d4 v=120
566640 On ch=1 n=a#4 v=0
566640 On ch=1 n=g4 v=120
566760 On ch=1 n=d4 v=0
566760 On ch=1 n=a#3 v=120
566880 On ch=1 n=a#3 v=0
566880 On ch=1 n=g4 v=0
566880 On ch=1 n=c4 v=120
566880 On ch=1 n=d#4 v=120
566880 On ch=1 n=g#4 v=120
567120 On ch=1 n=c4 v=0
567120 On ch=1 n=g#3 v=120
567360 On ch=1 n=g#3 v=0
567360 On ch=1 n=g#4 v=0
567360 On ch=1 n=d#4 v=0
567360 On ch=1 n=a4 v=127
567360 On ch=1 n=a3 v=127
567600 On ch=1 n=a3 v=0
567600 On ch=1 n=c4 v=120
567840 On ch=1 n=c4 v=0
567840 On ch=1 n=c4 v=120
567840 On ch=1 n=d#4 v=120
568080 On ch=1 n=f#4 v=120
568320 On ch=1 n=f#4 v=0
568320 On ch=1 n=a4 v=120
568560 On ch=1 n=a4 v=0
568560 On ch=1 n=c5 v=120
568800 On ch=1 n=c5 v=0
568800 On ch=1 n=a4 v=0
568800 On ch=1 n=d#4 v=0
568800 On ch=1 n=c4 v=0
568800 On ch=1 n=d4 v=120
568800 On ch=1 n=g4 v=120
568800 On ch=1 n=a#4 v=120
568920 On ch=1 n=a#4 v=0
568920 On ch=1 n=g4 v=0
568920 On ch=1 n=d4 v=0
569040 On ch=1 n=a#3 v=120
569280 On ch=1 n=a#3 v=0
569280 On ch=1 n=d4 v=120
569520 On ch=1 n=d4 v=0
569520 On ch=1 n=g4 v=120
569760 On ch=1 n=g4 v=0
569760 On ch=1 n=a#4 v=120
570000 On ch=1 n=a#4 v=0
570000 On ch=1 n=d5 v=120
570240 On ch=1 n=d5 v=0
570240 On ch=1 n=g5 v=120
570480 On ch=1 n=g5 v=0
570480 On ch=1 n=a#5 v=120
570720 On ch=1 n=g6 v=127
571680 On ch=1 n=g6 v=0
571680 On ch=1 n=a#5 v=0
572880 On ch=1 n=a4 v=65
572880 On ch=1 n=d#5 v=65
572880 On ch=1 n=a5 v=65
573360 On ch=1 n=a5 v=0
573360 On ch=1 n=d#5 v=0
573360 On ch=1 n=a4 v=0
573360 On ch=1 n=a#5 v=78
573360 On ch=1 n=a#4 v=78
573360 On ch=1 n=d#5 v=78
573600 On ch=1 n=a#5 v=0
573600 On ch=1 n=d6 v=90
573780 On ch=1 n=d6 v=0
573780 On ch=1 n=c6 v=90
573840 On ch=1 n=c6 v=0
573840 On ch=1 n=d#5 v=0
573840 On ch=1 n=a#4 v=0
573840 On ch=1 n=c5 v=90
573840 On ch=1 n=d#5 v=90
573840 On ch=1 n=c6 v=90
574320 On ch=1 n=c6 v=0
574320 On ch=1 n=d#5 v=0
574320 On ch=1 n=c5 v=0
574320 On ch=1 n=a#4 v=90
574320 On ch=1 n=d#5 v=90
574320 On ch=1 n=a#5 v=90
574560 On ch=1 n=a#5 v=0
574560 On ch=1 n=a#4 v=0
574560 On ch=1 n=a5 v=82
574560 On ch=1 n=a4 v=82
574800 On ch=1 n=a4 v=0
574800 On ch=1 n=a5 v=0
574800 On ch=1 n=d#5 v=0
574800 On ch=1 n=a#4 v=74
574800 On ch=1 n=d#5 v=74
574800 On ch=1 n=g5 v=74
575040 On ch=1 n=g5 v=0
575040 On ch=1 n=a#4 v=0
575040 On ch=1 n=f5 v=65
575040 On ch=1 n=c5 v=65
575160 On ch=1 n=f5 v=0
575160 On ch=1 n=g5 v=67
575192 On ch=1 n=g5 v=0
575192 On ch=1 n=f5 v=69
575220 On ch=1 n=f5 v=0
575220 On ch=1 n=e5 v=71
575252 On ch=1 n=e5 v=0
575252 On ch=1 n=f5 v=74
575280 On ch=1 n=f5 v=0
575280 On ch=1 n=c5 v=0
575280 On ch=1 n=d#5 v=0
575280 On ch=1 n=a4 v=78
575280 On ch=1 n=g5 v=78
575460 On ch=1 n=g5 v=0
575460 On ch=1 n=d#5 v=72
575520 On ch=1 n=d#5 v=0
575520 On ch=1 n=d#5 v=65
575760 On ch=1 n=d#5 v=0
575760 On ch=1 n=a4 v=0
575760 On ch=1 n=d4 v=65
575760 On ch=1 n=g#4 v=65
575760 On ch=1 n=d5 v=65
576240 On ch=1 n=d5 v=0
576240 On ch=1 n=g#4 v=0
576240 On ch=1 n=d4 v=0
576240 On ch=1 n=d#4 v=65
576240 On ch=1 n=g#4 v=65
576240 On ch=1 n=c5 v=65
576480 On ch=1 n=d#4 v=0
576508 On ch=1 n=g4 v=90
576660 On ch=1 n=g4 v=0
576660 On ch=1 n=f4 v=78
576720 On ch=1 n=f4 v=0
576720 On ch=1 n=c5 v=0
576720 On ch=1 n=g#4 v=0
576720 On ch=1 n=f4 v=65
576720 On ch=1 n=g#4 v=65
576720 On ch=1 n=a#4 v=65
577200 On ch=1 n=a#4 v=0
577200 On ch=1 n=g#4 v=0
577200 On ch=1 n=f4 v=0
577200 On ch=1 n=d#4 v=65
577200 On ch=1 n=g#4 v=65
577200 On ch=1 n=a#4 v=65
577440 On ch=1 n=d#4 v=0
577440 On ch=1 n=d4 v=65
577680 On ch=1 n=d4 v=0
577680 On ch=1 n=a#4 v=0
577680 On ch=1 n=g#4 v=0
577680 On ch=1 n=c4 v=65
577920 On ch=1 n=c4 v=0
577920 On ch=1 n=a#3 v=65
578040 On ch=1 n=a#3 v=0
578040 On ch=1 n=c4 v=65
578068 On ch=1 n=c4 v=0
578068 On ch=1 n=a#3 v=65
578100 On ch=1 n=a#3 v=0
578100 On ch=1 n=a3 v=65
578128 On ch=1 n=a3 v=0
578128 On ch=1 n=a#3 v=65
578160 On ch=1 n=a#3 v=0
578160 On ch=1 n=c4 v=65
578340 On ch=1 n=c4 v=0
578340 On ch=1 n=g#3 v=65
578400 On ch=1 n=g#3 v=0
578400 On ch=1 n=g#3 v=65
578640 On ch=1 n=g#3 v=0
578668 On ch=1 n=d5 v=90
578668 On ch=1 n=g5 v=90
578668 On ch=1 n=b5 v=90
579120 On ch=1 n=b5 v=0
579120 On ch=1 n=g5 v=0
579120 On ch=1 n=d5 v=0
579120 On ch=1 n=c5 v=90
579120 On ch=1 n=f#5 v=90
579120 On ch=1 n=c6 v=90
579360 On ch=1 n=c6 v=0
579360 On ch=1 n=f#5 v=0
579360 On ch=1 n=c5 v=0
579360 On ch=1 n=d#5 v=96
579360 On ch=1 n=f#5 v=96
579388 On ch=1 n=d#6 v=96
579540 On ch=1 n=d#6 v=0
579540 On ch=1 n=d6 v=96
579600 On ch=1 n=d6 v=0
579600 On ch=1 n=f#5 v=0
579600 On ch=1 n=d#5 v=0
579600 On ch=1 n=d5 v=102
579600 On ch=1 n=f5 v=102
579600 On ch=1 n=d6 v=102
580080 On ch=1 n=d6 v=0
580080 On ch=1 n=f5 v=0
580080 On ch=1 n=d5 v=0
580080 On ch=1 n=d#5 v=98
580080 On ch=1 n=c6 v=98
580320 On ch=1 n=c6 v=0
580320 On ch=1 n=d#5 v=0
580320 On ch=1 n=d5 v=94
580320 On ch=1 n=b5 v=94
580560 On ch=1 n=b5 v=0
580560 On ch=1 n=d5 v=0
580560 On ch=1 n=c5 v=90
580560 On ch=1 n=g#5 v=90
580800 On ch=1 n=g#5 v=0
580800 On ch=1 n=c5 v=0
580800 On ch=1 n=g5 v=90
580800 On ch=1 n=b4 v=90
580920 On ch=1 n=g5 v=0
580920 On ch=1 n=g#5 v=92
580948 On ch=1 n=g#5 v=0
580948 On ch=1 n=g5 v=94
580980 On ch=1 n=g5 v=0
580980 On ch=1 n=f5 v=96
581008 On ch=1 n=f5 v=0
581008 On ch=1 n=g5 v=99
581040 On ch=1 n=g5 v=0
581040 On ch=1 n=b4 v=0
581040 On ch=1 n=d5 v=102
581040 On ch=1 n=g#5 v=102
581216 On ch=1 n=f5 v=96
581220 On ch=1 n=g#5 v=0
581276 On ch=1 n=f5 v=0
581280 On ch=1 n=d5 v=0
581280 On ch=1 n=f5 v=90
581520 On ch=1 n=f5 v=0
581520 On ch=1 n=g4 v=90
581520 On ch=1 n=a#4 v=90
581520 On ch=1 n=e5 v=90
582240 On ch=1 n=e5 v=0
582240 On ch=1 n=a#4 v=0
582240 On ch=1 n=g4 v=0
582480 On ch=1 n=a#4 v=65
582480 On ch=1 n=g5 v=65
582840 On ch=1 n=g5 v=0
582840 On ch=1 n=a#4 v=0
582840 On ch=1 n=c#5 v=68
582840 On ch=1 n=a#5 v=68
582960 On ch=1 n=a#5 v=0
582960 On ch=1 n=c#5 v=0
582960 On ch=1 n=c5 v=71
582960 On ch=1 n=g#5 v=71
583080 On ch=1 n=g#5 v=0
583080 On ch=1 n=c5 v=0
583140 On ch=1 n=a#4 v=74
583140 On ch=1 n=g5 v=74
583200 On ch=1 n=g5 v=0
583200 On ch=1 n=a#4 v=0
583200 On ch=1 n=c#5 v=78
583200 On ch=1 n=a#5 v=78
583440 On ch=1 n=a#5 v=0
583440 On ch=1 n=c#5 v=0
583440 On ch=1 n=c5 v=78
583440 On ch=1 n=d#5 v=78
583440 On ch=1 n=a5 v=78
584160 On ch=1 n=a5 v=0
584160 On ch=1 n=d#5 v=0
584160 On ch=1 n=c5 v=0
584400 On ch=1 n=d#5 v=78
584400 On ch=1 n=c6 v=78
584760 On ch=1 n=c6 v=0
584760 On ch=1 n=d#5 v=0
584760 On ch=1 n=f#5 v=81
584760 On ch=1 n=d#6 v=81
584880 On ch=1 n=d#6 v=0
584880 On ch=1 n=f#5 v=0
584880 On ch=1 n=f5 v=84
584880 On ch=1 n=c#6 v=84
585000 On ch=1 n=c#6 v=0
585000 On ch=1 n=f5 v=0
585000 On ch=1 n=d#5 v=84
585000 On ch=1 n=c6 v=87
585120 On ch=1 n=c6 v=0
585120 On ch=1 n=d#5 v=0
585120 On ch=1 n=f#5 v=90
585120 On ch=1 n=d#6 v=90
585240 On ch=1 n=d#6 v=0
585240 On ch=1 n=f#5 v=0
585240 On ch=1 n=f5 v=90
585240 On ch=1 n=c#6 v=90
585360 On ch=1 n=c#6 v=0
585360 On ch=1 n=f5 v=0
585360 On ch=1 n=c#5 v=83
585360 On ch=1 n=a#5 v=83
585480 On ch=1 n=a#5 v=0
585480 On ch=1 n=c#5 v=0
585480 On ch=1 n=a#4 v=83
585480 On ch=1 n=f#5 v=83
585600 On ch=1 n=f#5 v=0
585600 On ch=1 n=a#4 v=0
585600 On ch=1 n=f5 v=76
585600 On ch=1 n=c#6 v=76
585720 On ch=1 n=c#6 v=0
585720 On ch=1 n=f5 v=0
585720 On ch=1 n=e5 v=76
585720 On ch=1 n=c6 v=76
585840 On ch=1 n=c6 v=0
585840 On ch=1 n=e5 v=0
585840 On ch=1 n=c5 v=69
585840 On ch=1 n=g#5 v=69
585960 On ch=1 n=g#5 v=0
585960 On ch=1 n=c5 v=0
585960 On ch=1 n=g4 v=69
585960 On ch=1 n=e5 v=69
586080 On ch=1 n=e5 v=0
586080 On ch=1 n=g4 v=0
586080 On ch=1 n=a4 v=62
586080 On ch=1 n=f5 v=62
586320 On ch=1 n=f5 v=0
586320 On ch=1 n=a4 v=0
586320 On ch=1 n=d#5 v=53
586320 On ch=1 n=a4 v=53
586348 On ch=1 n=a5 v=53
586376 On ch=1 n=f6 v=53
586800 On ch=1 n=a5 v=0
586800 On ch=1 n=a4 v=0
586800 On ch=1 n=d#5 v=0
586800 On ch=1 n=a#4 v=53
586800 On ch=1 n=d#5 v=53
586800 On ch=1 n=c6 v=53
587040 On ch=1 n=c6 v=0
587040 On ch=1 n=d#5 v=0
587040 On ch=1 n=a#4 v=0
587040 On ch=1 n=f6 v=0
587040 On ch=1 n=d#5 v=53
587040 On ch=1 n=d5 v=53
587068 On ch=1 n=d6 v=53
587220 On ch=1 n=d6 v=0
587220 On ch=1 n=d5 v=0
587220 On ch=1 n=d#5 v=0
587220 On ch=1 n=c6 v=53
587280 On ch=1 n=c6 v=0
587280 On ch=1 n=c5 v=53
587280 On ch=1 n=d#5 v=53
587280 On ch=1 n=c6 v=53
587760 On ch=1 n=c6 v=0
587760 On ch=1 n=d#5 v=0
587760 On ch=1 n=c5 v=0
587760 On ch=1 n=a#4 v=53
587760 On ch=1 n=d#5 v=53
587760 On ch=1 n=a#5 v=53
588000 On ch=1 n=a#5 v=0
588000 On ch=1 n=d#5 v=0
588000 On ch=1 n=a#4 v=0
588000 On ch=1 n=a4 v=53
588000 On ch=1 n=d#5 v=53
588000 On ch=1 n=a5 v=53
588240 On ch=1 n=a5 v=0
588240 On ch=1 n=d#5 v=0
588240 On ch=1 n=a4 v=0
588240 On ch=1 n=a#4 v=53
588240 On ch=1 n=d#5 v=53
588240 On ch=1 n=g5 v=53
588480 On ch=1 n=g5 v=0
588480 On ch=1 n=a#4 v=0
588480 On ch=1 n=c5 v=53
588480 On ch=1 n=f5 v=53
588600 On ch=1 n=f5 v=0
588600 On ch=1 n=g5 v=53
588628 On ch=1 n=g5 v=0
588628 On ch=1 n=f5 v=53
588660 On ch=1 n=f5 v=0
588660 On ch=1 n=e5 v=53
588688 On ch=1 n=e5 v=0
588688 On ch=1 n=f5 v=53
588720 On ch=1 n=f5 v=0
588720 On ch=1 n=c5 v=0
588720 On ch=1 n=d#5 v=0
588720 On ch=1 n=a4 v=53
588720 On ch=1 n=c5 v=53
588720 On ch=1 n=g5 v=53
588900 On ch=1 n=g5 v=0
588900 On ch=1 n=d#5 v=53
588960 On ch=1 n=d#5 v=0
588960 On ch=1 n=d#5 v=53
589200 On ch=1 n=d#5 v=0
589200 On ch=1 n=c5 v=0
589200 On ch=1 n=a4 v=0
589200 On ch=1 n=a4 v=53
589200 On ch=1 n=c5 v=53
589200 On ch=1 n=d5 v=53
589680 On ch=1 n=a4 v=0
589680 On ch=1 n=g4 v=65
589920 On ch=1 n=g4 v=0
589920 On ch=1 n=f#4 v=78
590160 On ch=1 n=f#4 v=0
590160 On ch=1 n=d5 v=0
590160 On ch=1 n=c5 v=0
592560 On ch=1 n=d6 v=90
592620 On ch=1 n=d5 v=90
592680 On ch=1 n=d5 v=0
592680 On ch=1 n=c5 v=90
592740 On ch=1 n=c5 v=0
592740 On ch=1 n=a#4 v=90
592800 On ch=1 n=a#4 v=0
592800 On ch=1 n=d6 v=0
592800 On ch=1 n=a4 v=90
592800 On ch=1 n=d#6 v=90
592920 On ch=1 n=a4 v=0
592920 On ch=1 n=d#5 v=90
593040 On ch=1 n=d#5 v=0
593040 On ch=1 n=c5 v=90
593160 On ch=1 n=c5 v=0
593160 On ch=1 n=a4 v=90
593280 On ch=1 n=a4 v=0
593280 On ch=1 n=d#6 v=0
593280 On ch=1 n=f#5 v=90
593400 On ch=1 n=c5 v=90
593520 On ch=1 n=c5 v=0
593520 On ch=1 n=a#4 v=90
593640 On ch=1 n=a#4 v=0
593640 On ch=1 n=a4 v=90
593760 On ch=1 n=a4 v=0
593760 On ch=1 n=f#5 v=0
593760 On ch=1 n=g5 v=90
593760 On ch=1 n=g4 v=90
593880 On ch=1 n=g4 v=0
593880 On ch=1 n=a#4 v=90
594000 On ch=1 n=a#4 v=0
594000 On ch=1 n=g4 v=90
594120 On ch=1 n=g4 v=0
594120 On ch=1 n=d#4 v=90
594240 On ch=1 n=d#4 v=0
594240 On ch=1 n=g5 v=0
594240 On ch=1 n=a5 v=90
594360 On ch=1 n=d#5 v=90
594480 On ch=1 n=d#5 v=0
594480 On ch=1 n=d5 v=90
594600 On ch=1 n=d5 v=0
594600 On ch=1 n=c5 v=90
594720 On ch=1 n=c5 v=0
594720 On ch=1 n=a5 v=0
594720 On ch=1 n=a#4 v=90
594720 On ch=1 n=a#5 v=90
594840 On ch=1 n=a#4 v=0
594840 On ch=1 n=d5 v=90
594960 On ch=1 n=d5 v=0
594960 On ch=1 n=a#4 v=90
595080 On ch=1 n=a#4 v=0
595080 On ch=1 n=g4 v=90
595200 On ch=1 n=g4 v=0
595200 On ch=1 n=a#5 v=0
595200 On ch=1 n=c#5 v=90
595320 On ch=1 n=a#4 v=90
595440 On ch=1 n=a#4 v=0
595440 On ch=1 n=a4 v=90
595560 On ch=1 n=a4 v=0
595560 On ch=1 n=g4 v=90
595680 On ch=1 n=g4 v=0
595680 On ch=1 n=c#5 v=0
595680 On ch=1 n=d5 v=90
595800 On ch=1 n=a4 v=90
595920 On ch=1 n=a4 v=0
595920 On ch=1 n=f#4 v=90
596040 On ch=1 n=f#4 v=0
596040 On ch=1 n=d4 v=90
596160 On ch=1 n=d4 v=0
596160 On ch=1 n=d5 v=0
596160 On ch=1 n=d5 v=65
596280 On ch=1 n=d4 v=65
596400 On ch=1 n=d4 v=0
596400 On ch=1 n=c4 v=65
596520 On ch=1 n=c4 v=0
596520 On ch=1 n=a#3 v=65
596640 On ch=1 n=a#3 v=0
596640 On ch=1 n=d5 v=0
596640 On ch=1 n=d#5 v=65
596760 On ch=1 n=d#4 v=65
596880 On ch=1 n=d#4 v=0
596880 On ch=1 n=a4 v=65
597000 On ch=1 n=a4 v=0
597000 On ch=1 n=c5 v=65
597120 On ch=1 n=c5 v=0
597120 On ch=1 n=d#5 v=0
597120 On ch=1 n=f5 v=65
597240 On ch=1 n=f4 v=65
597360 On ch=1 n=f4 v=0
597360 On ch=1 n=d#4 v=69
597480 On ch=1 n=d#4 v=0
597480 On ch=1 n=d4 v=69
597600 On ch=1 n=d4 v=0
597600 On ch=1 n=f5 v=0
597600 On ch=1 n=g5 v=73
597720 On ch=1 n=g4 v=73
597840 On ch=1 n=g4 v=0
597840 On ch=1 n=c5 v=77
597960 On ch=1 n=c5 v=0
597960 On ch=1 n=d#5 v=77
598080 On ch=1 n=d#5 v=0
598080 On ch=1 n=g5 v=0
598080 On ch=1 n=a5 v=81
598200 On ch=1 n=c5 v=81
598320 On ch=1 n=c5 v=0
598320 On ch=1 n=a#4 v=85
598440 On ch=1 n=a#4 v=0
598440 On ch=1 n=a4 v=85
598560 On ch=1 n=a5 v=0
598560 On ch=1 n=a#5 v=90
598680 On ch=1 n=a#4 v=90
598800 On ch=1 n=a#4 v=0
598800 On ch=1 n=a4 v=0
598800 On ch=1 n=d#5 v=84
598920 On ch=1 n=d#5 v=0
598920 On ch=1 n=a#5 v=0
598920 On ch=1 n=g5 v=84
599040 On ch=1 n=g5 v=0
599040 On ch=1 n=f5 v=78
599160 On ch=1 n=f4 v=78
599280 On ch=1 n=f4 v=0
599280 On ch=1 n=c5 v=72
599400 On ch=1 n=c5 v=0
599400 On ch=1 n=f5 v=0
599400 On ch=1 n=d#5 v=72
599520 On ch=1 n=d#5 v=0
599520 On ch=1 n=d5 v=65
600000 On ch=1 n=d5 v=0
600000 On ch=1 n=d6 v=90
600120 On ch=1 n=d5 v=90
600240 On ch=1 n=d5 v=0
600240 On ch=1 n=c5 v=90
600360 On ch=1 n=c5 v=0
600360 On ch=1 n=a#4 v=90
600480 On ch=1 n=a#4 v=0
600480 On ch=1 n=d6 v=0
600480 On ch=1 n=d#6 v=90
600600 On ch=1 n=d#5 v=90
600720 On ch=1 n=d#5 v=0
600720 On ch=1 n=a5 v=90
600840 On ch=1 n=a5 v=0
600840 On ch=1 n=c6 v=90
600960 On ch=1 n=c6 v=0
600960 On ch=1 n=d#6 v=0
600960 On ch=1 n=f6 v=96
601080 On ch=1 n=f5 v=96
601200 On ch=1 n=f5 v=0
601200 On ch=1 n=d#5 v=96
601320 On ch=1 n=d#5 v=0
601320 On ch=1 n=d5 v=96
601440 On ch=1 n=d5 v=0
601440 On ch=1 n=f6 v=0
601440 On ch=1 n=g6 v=102
601560 On ch=1 n=g5 v=102
601680 On ch=1 n=g5 v=0
601680 On ch=1 n=c6 v=102
601800 On ch=1 n=c6 v=0
601800 On ch=1 n=d#6 v=102
601920 On ch=1 n=d#6 v=0
601920 On ch=1 n=g6 v=0
601920 On ch=1 n=a6 v=108
602040 On ch=1 n=c6 v=108
602160 On ch=1 n=c6 v=0
602160 On ch=1 n=a#5 v=108
602280 On ch=1 n=a#5 v=0
602280 On ch=1 n=a5 v=108
602400 On ch=1 n=a6 v=0
602400 On ch=1 n=a#6 v=114
602520 On ch=1 n=a#5 v=114
602640 On ch=1 n=a#5 v=0
602640 On ch=1 n=a5 v=0
602640 On ch=1 n=d#6 v=104
602760 On ch=1 n=d#6 v=0
602760 On ch=1 n=a#6 v=0
602760 On ch=1 n=g6 v=104
602880 On ch=1 n=g6 v=0
602880 On ch=1 n=f6 v=94
603120 On ch=1 n=c6 v=84
603240 On ch=1 n=c6 v=0
603240 On ch=1 n=f6 v=0
603240 On ch=1 n=d#6 v=84
603360 On ch=1 n=d#6 v=0
603360 On ch=1 n=d6 v=74
603480 On ch=1 n=f#5 v=74
603600 On ch=1 n=f#5 v=0
603600 On ch=1 n=c6 v=64
603720 On ch=1 n=c6 v=0
603720 On ch=1 n=d6 v=0
603720 On ch=1 n=d6 v=64
603960 On ch=1 n=d5 v=53
604080 On ch=1 n=d5 v=0
604080 On ch=1 n=c5 v=53
604200 On ch=1 n=c5 v=0
604200 On ch=1 n=a#4 v=53
604320 On ch=1 n=a#4 v=0
604320 On ch=1 n=d6 v=0
604320 On ch=1 n=d#6 v=53
604440 On ch=1 n=d#5 v=53
604560 On ch=1 n=d#5 v=0
604560 On ch=1 n=c5 v=53
604680 On ch=1 n=c5 v=0
604680 On ch=1 n=a4 v=53
604800 On ch=1 n=a4 v=0
604800 On ch=1 n=d#6 v=0
604800 On ch=1 n=f#5 v=53
604920 On ch=1 n=c5 v=53
605040 On ch=1 n=c5 v=0
605040 On ch=1 n=a#4 v=53
605160 On ch=1 n=a#4 v=0
605160 On ch=1 n=a4 v=53
605280 On ch=1 n=a4 v=0
605280 On ch=1 n=f#5 v=0
605280 On ch=1 n=g4 v=53
605280 On ch=1 n=g5 v=53
605400 On ch=1 n=g4 v=0
605400 On ch=1 n=a#4 v=53
605520 On ch=1 n=a#4 v=0
605520 On ch=1 n=g4 v=53
605640 On ch=1 n=g4 v=0
605640 On ch=1 n=d#4 v=53
605760 On ch=1 n=d#4 v=0
605760 On ch=1 n=g5 v=0
605760 On ch=1 n=a5 v=53
605880 On ch=1 n=d#5 v=53
606000 On ch=1 n=d#5 v=0
606000 On ch=1 n=d5 v=53
606120 On ch=1 n=d5 v=0
606120 On ch=1 n=c5 v=53
606240 On ch=1 n=c5 v=0
606240 On ch=1 n=a5 v=0
606240 On ch=1 n=a#4 v=53
606240 On ch=1 n=a#5 v=53
606360 On ch=1 n=a#4 v=0
606360 On ch=1 n=d5 v=53
606480 On ch=1 n=d5 v=0
606480 On ch=1 n=a#4 v=53
606600 On ch=1 n=a#4 v=0
606600 On ch=1 n=g4 v=53
606720 On ch=1 n=g4 v=0
606720 On ch=1 n=a#5 v=0
606720 On ch=1 n=c#5 v=53
606840 On ch=1 n=a#4 v=53
606960 On ch=1 n=a#4 v=0
606960 On ch=1 n=a4 v=53
607080 On ch=1 n=a4 v=0
607080 On ch=1 n=g4 v=53
607200 On ch=1 n=g4 v=0
607200 On ch=1 n=c#5 v=0
607200 On ch=1 n=d5 v=53
607200 On ch=1 n=f#4 v=53
607320 On ch=1 n=f#4 v=0
607320 On ch=1 n=a4 v=53
607440 On ch=1 n=a4 v=0
607440 On ch=1 n=f#4 v=53
607560 On ch=1 n=f#4 v=0
607560 On ch=1 n=d4 v=53
607680 On ch=1 n=d4 v=0
607680 On ch=1 n=d5 v=0
607680 On ch=1 n=f5 v=90
607920 On ch=1 n=f5 v=0
607920 On ch=1 n=d#5 v=90
608040 On ch=1 n=d#5 v=0
608040 On ch=1 n=d5 v=90
608160 On ch=1 n=d5 v=0
608160 On ch=1 n=c5 v=94
608400 On ch=1 n=c5 v=0
608400 On ch=1 n=d5 v=94
608520 On ch=1 n=d5 v=0
608520 On ch=1 n=d#5 v=94
608640 On ch=1 n=d#5 v=0
608640 On ch=1 n=f5 v=98
608880 On ch=1 n=f5 v=0
608880 On ch=1 n=f#5 v=98
609360 On ch=1 n=f#5 v=0
609360 On ch=1 n=g5 v=102
609600 On ch=1 n=g5 v=0
609600 On ch=1 n=g#5 v=65
609720 On ch=1 n=b4 v=65
609840 On ch=1 n=b4 v=0
609840 On ch=1 n=g#5 v=0
609840 On ch=1 n=g5 v=65
609960 On ch=1 n=g5 v=0
609960 On ch=1 n=f5 v=65
610080 On ch=1 n=f5 v=0
610080 On ch=1 n=d#5 v=65
610320 On ch=1 n=d#5 v=0
610320 On ch=1 n=f5 v=67
610440 On ch=1 n=f5 v=0
610440 On ch=1 n=g5 v=67
610560 On ch=1 n=g5 v=0
610560 On ch=1 n=a5 v=69
610800 On ch=1 n=a5 v=0
610800 On ch=1 n=a#5 v=71
611280 On ch=1 n=a#5 v=0
611280 On ch=1 n=b5 v=75
611520 On ch=1 n=b5 v=0
611520 On ch=1 n=d6 v=53
611640 On ch=1 n=f5 v=53
611760 On ch=1 n=f5 v=0
612000 On ch=1 n=d6 v=0
612000 On ch=1 n=d#6 v=53
612120 On ch=1 n=d#5 v=53
612240 On ch=1 n=d#5 v=0
612240 On ch=1 n=c5 v=53
612360 On ch=1 n=c5 v=0
612360 On ch=1 n=g4 v=53
612480 On ch=1 n=g4 v=0
612480 On ch=1 n=d#6 v=0
612480 On ch=1 n=f#5 v=59
612600 On ch=1 n=c5 v=59
612720 On ch=1 n=c5 v=0
612720 On ch=1 n=a#4 v=59
612840 On ch=1 n=a#4 v=0
612840 On ch=1 n=a4 v=59
612960 On ch=1 n=a4 v=0
612960 On ch=1 n=f#5 v=0
612960 On ch=1 n=g5 v=65
613080 On ch=1 n=a#4 v=65
613200 On ch=1 n=a#4 v=0
613200 On ch=1 n=g4 v=65
613320 On ch=1 n=g4 v=0
613320 On ch=1 n=d#4 v=65
613440 On ch=1 n=d#4 v=0
613440 On ch=1 n=g5 v=0
613440 On ch=1 n=d4 v=71
613440 On ch=1 n=a5 v=71
613560 On ch=1 n=d4 v=0
613560 On ch=1 n=c5 v=71
613680 On ch=1 n=c5 v=0
613680 On ch=1 n=a4 v=71
613800 On ch=1 n=a4 v=0
613800 On ch=1 n=d4 v=71
613920 On ch=1 n=d4 v=0
613920 On ch=1 n=a5 v=0
613920 On ch=1 n=a#5 v=78
614040 On ch=1 n=a#4 v=76
614160 On ch=1 n=a#4 v=0
614160 On ch=1 n=a4 v=74
614280 On ch=1 n=a4 v=0
614280 On ch=1 n=g4 v=72
614400 On ch=1 n=g4 v=0
614400 On ch=1 n=a#5 v=0
614400 On ch=1 n=c#5 v=70
614880 On ch=1 n=c#5 v=0
614880 On ch=1 n=d5 v=62
615000 On ch=1 n=a4 v=57
615360 On ch=1 n=a4 v=0
615360 On ch=1 n=d5 v=0
615360 On ch=1 n=d#5 v=53
615420 On ch=1 n=a4 v=53
615420 On ch=1 n=a5 v=53
616560 On ch=1 n=a5 v=0
616560 On ch=1 n=a4 v=0
616560 On ch=1 n=d#5 v=0
616560 On ch=1 n=a#5 v=64
616560 On ch=1 n=a#4 v=64
616560 On ch=1 n=d#5 v=64
616800 On ch=1 n=a#5 v=0
616800 On ch=1 n=d6 v=74
616980 On ch=1 n=d6 v=0
616980 On ch=1 n=c6 v=74
617040 On ch=1 n=c6 v=0
617040 On ch=1 n=d#5 v=0
617040 On ch=1 n=a#4 v=0
617040 On ch=1 n=c5 v=74
617040 On ch=1 n=d#5 v=74
617040 On ch=1 n=c6 v=74
617520 On ch=1 n=c6 v=0
617520 On ch=1 n=d#5 v=0
617520 On ch=1 n=c5 v=0
617520 On ch=1 n=a#4 v=74
617520 On ch=1 n=d#5 v=74
617520 On ch=1 n=a#5 v=74
617760 On ch=1 n=a#5 v=0
617760 On ch=1 n=a#4 v=0
617760 On ch=1 n=a5 v=67
617760 On ch=1 n=a4 v=67
618000 On ch=1 n=a4 v=0
618000 On ch=1 n=a5 v=0
618000 On ch=1 n=d#5 v=0
618000 On ch=1 n=a#4 v=65
618000 On ch=1 n=d#5 v=65
618000 On ch=1 n=g5 v=65
618240 On ch=1 n=g5 v=0
618240 On ch=1 n=a#4 v=0
618240 On ch=1 n=f5 v=65
618240 On ch=1 n=c5 v=65
618360 On ch=1 n=f5 v=0
618360 On ch=1 n=g5 v=67
618392 On ch=1 n=g5 v=0
618392 On ch=1 n=f5 v=69
618420 On ch=1 n=f5 v=0
618420 On ch=1 n=e5 v=71
618452 On ch=1 n=e5 v=0
618452 On ch=1 n=f5 v=74
618480 On ch=1 n=f5 v=0
618480 On ch=1 n=c5 v=0
618480 On ch=1 n=d#5 v=0
618480 On ch=1 n=a4 v=78
618480 On ch=1 n=g5 v=78
618660 On ch=1 n=g5 v=0
618660 On ch=1 n=d#5 v=72
618720 On ch=1 n=d#5 v=0
618720 On ch=1 n=d#5 v=65
618960 On ch=1 n=d#5 v=0
618960 On ch=1 n=a4 v=0
618960 On ch=1 n=d4 v=65
618960 On ch=1 n=g#4 v=65
618960 On ch=1 n=d5 v=65
619440 On ch=1 n=d5 v=0
619440 On ch=1 n=g#4 v=0
619440 On ch=1 n=d4 v=0
619440 On ch=1 n=d#4 v=65
619440 On ch=1 n=g#4 v=65
619440 On ch=1 n=c5 v=65
619680 On ch=1 n=d#4 v=0
619680 On ch=1 n=g4 v=90
619860 On ch=1 n=g4 v=0
619860 On ch=1 n=f4 v=78
619920 On ch=1 n=f4 v=0
619920 On ch=1 n=c5 v=0
619920 On ch=1 n=g#4 v=0
619920 On ch=1 n=f4 v=65
619920 On ch=1 n=g#4 v=65
619920 On ch=1 n=a#4 v=65
620400 On ch=1 n=a#4 v=0
620400 On ch=1 n=g#4 v=0
620400 On ch=1 n=f4 v=0
620400 On ch=1 n=d#4 v=65
620400 On ch=1 n=g#4 v=65
620400 On ch=1 n=a#4 v=65
620640 On ch=1 n=g#4 v=0
620640 On ch=1 n=d#4 v=0
620640 On ch=1 n=g4 v=65
620640 On ch=1 n=d4 v=65
620880 On ch=1 n=d4 v=0
620880 On ch=1 n=g4 v=0
620880 On ch=1 n=a#4 v=0
620880 On ch=1 n=f4 v=65
620880 On ch=1 n=a#4 v=65
620880 On ch=1 n=c4 v=65
621120 On ch=1 n=c4 v=0
621120 On ch=1 n=f4 v=0
621120 On ch=1 n=d#4 v=65
621120 On ch=1 n=a#3 v=65
621240 On ch=1 n=a#3 v=0
621240 On ch=1 n=d#4 v=0
621240 On ch=1 n=f4 v=78
621240 On ch=1 n=c4 v=78
621268 On ch=1 n=c4 v=0
621268 On ch=1 n=f4 v=0
621268 On ch=1 n=d#4 v=90
621268 On ch=1 n=a#3 v=90
621300 On ch=1 n=a#3 v=0
621300 On ch=1 n=d#4 v=0
621300 On ch=1 n=d4 v=78
621300 On ch=1 n=g#3 v=78
621328 On ch=1 n=g#3 v=0
621328 On ch=1 n=d4 v=0
621328 On ch=1 n=d#4 v=65
621328 On ch=1 n=a#3 v=65
621360 On ch=1 n=a#3 v=0
621360 On ch=1 n=d#4 v=0
621360 On ch=1 n=a#4 v=0
621360 On ch=1 n=d4 v=65
621360 On ch=1 n=a#4 v=65
621360 On ch=1 n=g4 v=65
621540 On ch=1 n=g4 v=0
621540 On ch=1 n=d4 v=0
621540 On ch=1 n=d4 v=65
621540 On ch=1 n=g#3 v=65
621600 On ch=1 n=g#3 v=0
621600 On ch=1 n=d4 v=0
621600 On ch=1 n=a#4 v=0
621600 On ch=1 n=a#3 v=65
621600 On ch=1 n=d#4 v=65
621600 On ch=1 n=a#4 v=65
622080 On ch=1 n=a#4 v=0
622080 On ch=1 n=d#4 v=0
622080 On ch=1 n=a#3 v=0
622080 On ch=1 n=c#4 v=59
622080 On ch=1 n=e4 v=59
622080 On ch=1 n=a4 v=59
622560 On ch=1 n=a4 v=0
622560 On ch=1 n=e4 v=0
622560 On ch=1 n=c#4 v=0
622560 On ch=1 n=d4 v=53
622560 On ch=1 n=f#4 v=53
622560 On ch=1 n=a4 v=53
623520 On ch=1 n=a4 v=0
623520 On ch=1 n=f#4 v=0
623520 On ch=1 n=d4 v=0
624000 On ch=1 n=g4 v=53
624120 On ch=1 n=g4 v=0
624120 On ch=1 n=a4 v=53
624240 On ch=1 n=a4 v=0
624240 On ch=1 n=g4 v=53
624360 On ch=1 n=g4 v=0
624360 On ch=1 n=d4 v=53
624480 On ch=1 n=d4 v=0
624480 On ch=1 n=d5 v=53
624600 On ch=1 n=d5 v=0
624840 On ch=1 n=d4 v=53
624840 On ch=1 n=g4 v=53
624900 On ch=1 n=g4 v=0
624900 On ch=1 n=d4 v=0
624960 On ch=1 n=c4 v=53
624960 On ch=1 n=f#4 v=53
625080 On ch=1 n=f#4 v=0
625080 On ch=1 n=c4 v=0
625440 On ch=1 n=c5 v=53
625560 On ch=1 n=c5 v=0
625560 On ch=1 n=d5 v=53
625680 On ch=1 n=d5 v=0
625680 On ch=1 n=c5 v=53
625800 On ch=1 n=c5 v=0
625800 On ch=1 n=a4 v=53
625920 On ch=1 n=a4 v=0
625920 On ch=1 n=a5 v=53
626040 On ch=1 n=a5 v=0
626280 On ch=1 n=d4 v=53
626280 On ch=1 n=c5 v=53
626340 On ch=1 n=c5 v=0
626340 On ch=1 n=d4 v=0
626400 On ch=1 n=d4 v=53
626400 On ch=1 n=a#4 v=53
626520 On ch=1 n=a#4 v=0
626520 On ch=1 n=d4 v=0
626880 On ch=1 n=g4 v=53
627000 On ch=1 n=g4 v=0
627000 On ch=1 n=a4 v=53
627120 On ch=1 n=a4 v=0
627120 On ch=1 n=g4 v=53
627240 On ch=1 n=g4 v=0
627240 On ch=1 n=d4 v=53
627360 On ch=1 n=d4 v=0
627360 On ch=1 n=g5 v=53
627480 On ch=1 n=g5 v=0
627720 On ch=1 n=f5 v=53
627720 On ch=1 n=g4 v=53
627780 On ch=1 n=g4 v=0
627780 On ch=1 n=f5 v=0
627840 On ch=1 n=d#5 v=53
627840 On ch=1 n=g4 v=53
627960 On ch=1 n=g4 v=0
627960 On ch=1 n=d#5 v=0
628200 On ch=1 n=g4 v=53
628200 On ch=1 n=d5 v=53
628320 On ch=1 n=d5 v=0
628320 On ch=1 n=g4 v=0
628320 On ch=1 n=c5 v=53
628320 On ch=1 n=g4 v=53
628440 On ch=1 n=g4 v=0
628440 On ch=1 n=c5 v=0
628680 On ch=1 n=a#4 v=53
628800 On ch=1 n=a#4 v=0
628800 On ch=1 n=a4 v=53
628800 On ch=1 n=c#5 v=53
628920 On ch=1 n=c#5 v=0
628920 On ch=1 n=a4 v=0
629160 On ch=1 n=g4 v=53
629280 On ch=1 n=g4 v=0
629280 On ch=1 n=d5 v=53
629280 On ch=1 n=f#4 v=53
629400 On ch=1 n=f#4 v=0
629400 On ch=1 n=d5 v=0
629760 On ch=1 n=d6 v=61
630240 On ch=1 n=d5 v=61
630600 On ch=1 n=d6 v=0
630600 On ch=1 n=c6 v=53
630720 On ch=1 n=c6 v=0
630720 On ch=1 n=a#5 v=53
630840 On ch=1 n=a#5 v=0
631080 On ch=1 n=a5 v=53
631200 On ch=1 n=a5 v=0
631200 On ch=1 n=d5 v=0
631200 On ch=1 n=a#5 v=53
631200 On ch=1 n=g5 v=53
631440 On ch=1 n=g5 v=0
631560 On ch=1 n=f5 v=53
631680 On ch=1 n=f5 v=0
631680 On ch=1 n=a#5 v=0
631680 On ch=1 n=d#5 v=53
631800 On ch=1 n=d#5 v=0
632040 On ch=1 n=d5 v=53
632160 On ch=1 n=d5 v=0
632160 On ch=1 n=c5 v=53
632280 On ch=1 n=c5 v=0
632640 On ch=1 n=f6 v=61
633120 On ch=1 n=f5 v=61
633480 On ch=1 n=f6 v=0
633480 On ch=1 n=d#6 v=58
633600 On ch=1 n=d#6 v=0
633600 On ch=1 n=d6 v=63
633720 On ch=1 n=d6 v=0
633960 On ch=1 n=c6 v=68
634080 On ch=1 n=c6 v=0
634080 On ch=1 n=f5 v=0
634080 On ch=1 n=d6 v=73
634080 On ch=1 n=a#5 v=73
634320 On ch=1 n=a#5 v=0
634440 On ch=1 n=a5 v=78
634560 On ch=1 n=a5 v=0
634560 On ch=1 n=d6 v=0
634560 On ch=1 n=g5 v=83
634680 On ch=1 n=g5 v=0
634920 On ch=1 n=f5 v=88
635040 On ch=1 n=f5 v=0
635040 On ch=1 n=e5 v=93
635160 On ch=1 n=e5 v=0
635520 On ch=1 n=a6 v=117
636000 On ch=1 n=a5 v=117
636360 On ch=1 n=a6 v=0
636360 On ch=1 n=g6 v=102
636480 On ch=1 n=g6 v=0
636480 On ch=1 n=f#6 v=102
636600 On ch=1 n=f#6 v=0
636840 On ch=1 n=d#6 v=102
636960 On ch=1 n=d#6 v=0
636960 On ch=1 n=a5 v=0
636960 On ch=1 n=f6 v=102
636960 On ch=1 n=d6 v=102
637200 On ch=1 n=d6 v=0
637320 On ch=1 n=c6 v=102
637440 On ch=1 n=c6 v=0
637440 On ch=1 n=f6 v=0
637440 On ch=1 n=g6 v=102
637440 On ch=1 n=a#5 v=102
637560 On ch=1 n=a#5 v=0
637680 On ch=1 n=g6 v=0
637800 On ch=1 n=a5 v=102
637920 On ch=1 n=a5 v=0
637920 On ch=1 n=g5 v=99
638160 On ch=1 n=g5 v=0
638400 On ch=1 n=a#5 v=104
638880 On ch=1 n=a#5 v=0
638880 On ch=1 n=a5 v=93
638880 On ch=1 n=c#6 v=93
639240 On ch=1 n=a5 v=0
639240 On ch=1 n=g5 v=90
639360 On ch=1 n=g5 v=0
639360 On ch=1 n=c#6 v=0
639360 On ch=1 n=d6 v=87
639360 On ch=1 n=f#5 v=87
639600 On ch=1 n=f#5 v=0
639600 On ch=1 n=d6 v=0
639720 On ch=1 n=d#5 v=84
639840 On ch=1 n=d#5 v=0
639840 On ch=1 n=f#5 v=81
639840 On ch=1 n=d5 v=81
639960 On ch=1 n=d5 v=0
640200 On ch=1 n=c5 v=78
640320 On ch=1 n=c5 v=0
640320 On ch=1 n=f#5 v=0
640320 On ch=1 n=g5 v=75
640320 On ch=1 n=a#4 v=75
640440 On ch=1 n=a#4 v=0
640560 On ch=1 n=g5 v=0
640680 On ch=1 n=a4 v=72
640800 On ch=1 n=a4 v=0
640800 On ch=1 n=g4 v=69
641040 On ch=1 n=g4 v=0
641280 On ch=1 n=a#4 v=66
641760 On ch=1 n=a#4 v=0
641760 On ch=1 n=a4 v=63
641760 On ch=1 n=c#5 v=63
642120 On ch=1 n=a4 v=0
642120 On ch=1 n=g4 v=60
642240 On ch=1 n=g4 v=0
642240 On ch=1 n=c#5 v=0
642240 On ch=1 n=f#4 v=57
642240 On ch=1 n=d5 v=57
642480 On ch=1 n=d5 v=0
642480 On ch=1 n=f#4 v=0
642720 On ch=1 n=g4 v=53
642840 On ch=1 n=g4 v=0
642840 On ch=1 n=a4 v=53
642960 On ch=1 n=a4 v=0
642960 On ch=1 n=g4 v=53
643080 On ch=1 n=g4 v=0
643080 On ch=1 n=d4 v=53
643200 On ch=1 n=d4 v=0
643200 On ch=1 n=d5 v=53
643320 On ch=1 n=d5 v=0
643560 On ch=1 n=d4 v=53
643560 On ch=1 n=g4 v=53
643620 On ch=1 n=g4 v=0
643620 On ch=1 n=d4 v=0
643680 On ch=1 n=c4 v=53
643680 On ch=1 n=f#4 v=53
643800 On ch=1 n=f#4 v=0
643800 On ch=1 n=c4 v=0
644160 On ch=1 n=c5 v=53
644280 On ch=1 n=c5 v=0
644280 On ch=1 n=d5 v=53
644400 On ch=1 n=d5 v=0
644400 On ch=1 n=c5 v=53
644520 On ch=1 n=c5 v=0
644520 On ch=1 n=a4 v=53
644640 On ch=1 n=a4 v=0
644640 On ch=1 n=a5 v=53
644760 On ch=1 n=a5 v=0
645000 On ch=1 n=d4 v=53
645000 On ch=1 n=c5 v=53
645060 On ch=1 n=c5 v=0
645060 On ch=1 n=d4 v=0
645120 On ch=1 n=d4 v=53
645120 On ch=1 n=a#4 v=53
645240 On ch=1 n=a#4 v=0
645240 On ch=1 n=d4 v=0
645600 On ch=1 n=g4 v=53
645720 On ch=1 n=g4 v=0
645720 On ch=1 n=a4 v=53
645840 On ch=1 n=a4 v=0
645840 On ch=1 n=g4 v=53
645960 On ch=1 n=g4 v=0
645960 On ch=1 n=d4 v=53
646080 On ch=1 n=d4 v=0
646080 On ch=1 n=g5 v=53
646200 On ch=1 n=g5 v=0
646440 On ch=1 n=f5 v=53
646440 On ch=1 n=g4 v=53
646500 On ch=1 n=g4 v=0
646500 On ch=1 n=f5 v=0
646560 On ch=1 n=d#5 v=53
646560 On ch=1 n=g4 v=53
646680 On ch=1 n=g4 v=0
646680 On ch=1 n=d#5 v=0
646920 On ch=1 n=g4 v=53
646920 On ch=1 n=d5 v=53
647040 On ch=1 n=d5 v=0
647040 On ch=1 n=g4 v=0
647040 On ch=1 n=c5 v=53
647040 On ch=1 n=g4 v=53
647160 On ch=1 n=g4 v=0
647160 On ch=1 n=c5 v=0
647400 On ch=1 n=a#4 v=53
647520 On ch=1 n=a#4 v=0
647520 On ch=1 n=a4 v=53
647520 On ch=1 n=c#5 v=53
647640 On ch=1 n=c#5 v=0
647640 On ch=1 n=a4 v=0
647880 On ch=1 n=g4 v=53
648000 On ch=1 n=g4 v=0
648000 On ch=1 n=d5 v=53
648000 On ch=1 n=f#4 v=53
648120 On ch=1 n=f#4 v=0
648120 On ch=1 n=d5 v=0
648480 On ch=1 n=d6 v=61
648960 On ch=1 n=d5 v=61
649320 On ch=1 n=d6 v=0
649320 On ch=1 n=c6 v=53
649440 On ch=1 n=c6 v=0
649440 On ch=1 n=a#5 v=53
649560 On ch=1 n=a#5 v=0
649800 On ch=1 n=a5 v=53
649920 On ch=1 n=a5 v=0
649920 On ch=1 n=d5 v=0
649920 On ch=1 n=a#5 v=53
649920 On ch=1 n=g5 v=53
650160 On ch=1 n=g5 v=0
650280 On ch=1 n=f5 v=53
650400 On ch=1 n=f5 v=0
650400 On ch=1 n=a#5 v=0
650400 On ch=1 n=d#5 v=53
650520 On ch=1 n=d#5 v=0
650760 On ch=1 n=d5 v=53
650880 On ch=1 n=d5 v=0
650880 On ch=1 n=c5 v=53
651000 On ch=1 n=c5 v=0
651360 On ch=1 n=f6 v=61
651840 On ch=1 n=f5 v=61
652200 On ch=1 n=f6 v=0
652200 On ch=1 n=d#6 v=58
652320 On ch=1 n=d#6 v=0
652320 On ch=1 n=d6 v=63
652440 On ch=1 n=d6 v=0
652680 On ch=1 n=c6 v=68
652800 On ch=1 n=c6 v=0
652800 On ch=1 n=f5 v=0
652800 On ch=1 n=d6 v=73
652800 On ch=1 n=a#5 v=73
653040 On ch=1 n=a#5 v=0
653160 On ch=1 n=a5 v=78
653280 On ch=1 n=a5 v=0
653280 On ch=1 n=d6 v=0
653280 On ch=1 n=g5 v=83
653400 On ch=1 n=g5 v=0
653640 On ch=1 n=f5 v=88
653760 On ch=1 n=f5 v=0
653760 On ch=1 n=e5 v=93
653880 On ch=1 n=e5 v=0
654240 On ch=1 n=a6 v=117
654720 On ch=1 n=a5 v=117
655080 On ch=1 n=a6 v=0
655080 On ch=1 n=g6 v=102
655200 On ch=1 n=g6 v=0
655200 On ch=1 n=f#6 v=102
655320 On ch=1 n=f#6 v=0
655560 On ch=1 n=d#6 v=102
655680 On ch=1 n=d#6 v=0
655680 On ch=1 n=a5 v=0
655680 On ch=1 n=f6 v=102
655680 On ch=1 n=d6 v=102
655920 On ch=1 n=d6 v=0
656040 On ch=1 n=c6 v=102
656160 On ch=1 n=c6 v=0
656160 On ch=1 n=f6 v=0
656160 On ch=1 n=g6 v=102
656160 On ch=1 n=a#5 v=102
656280 On ch=1 n=a#5 v=0
656400 On ch=1 n=g6 v=0
656520 On ch=1 n=a5 v=102
656640 On ch=1 n=a5 v=0
656640 On ch=1 n=g5 v=99
656880 On ch=1 n=g5 v=0
657120 On ch=1 n=a#5 v=104
657600 On ch=1 n=a#5 v=0
657600 On ch=1 n=a5 v=93
657600 On ch=1 n=c#6 v=93
657960 On ch=1 n=a5 v=0
657960 On ch=1 n=g5 v=90
658080 On ch=1 n=g5 v=0
658080 On ch=1 n=c#6 v=0
658080 On ch=1 n=d6 v=87
658080 On ch=1 n=f#5 v=87
658320 On ch=1 n=f#5 v=0
658320 On ch=1 n=d6 v=0
658440 On ch=1 n=d#5 v=84
658560 On ch=1 n=d#5 v=0
658560 On ch=1 n=f#5 v=81
658560 On ch=1 n=d5 v=81
658680 On ch=1 n=d5 v=0
658920 On ch=1 n=c5 v=78
659040 On ch=1 n=c5 v=0
659040 On ch=1 n=f#5 v=0
659040 On ch=1 n=g5 v=75
659040 On ch=1 n=a#4 v=75
659160 On ch=1 n=a#4 v=0
659280 On ch=1 n=g5 v=0
659400 On ch=1 n=a4 v=72
659520 On ch=1 n=a4 v=0
659520 On ch=1 n=g4 v=69
659760 On ch=1 n=g4 v=0
660000 On ch=1 n=a#4 v=66
660480 On ch=1 n=a#4 v=0
660480 On ch=1 n=a4 v=63
660480 On ch=1 n=c#5 v=63
660840 On ch=1 n=a4 v=0
660840 On ch=1 n=g4 v=60
660960 On ch=1 n=g4 v=0
660960 On ch=1 n=c#5 v=0
660960 On ch=1 n=f#4 v=57
660960 On ch=1 n=d5 v=57
661200 On ch=1 n=d5 v=0
661200 On ch=1 n=f#4 v=0
661440 On ch=1 n=a#5 v=90
661920 On ch=1 n=a#4 v=90
662280 On ch=1 n=a#5 v=0
662280 On ch=1 n=f#5 v=90
662400 On ch=1 n=f#5 v=0
662400 On ch=1 n=g5 v=90
662760 On ch=1 n=g5 v=0
662760 On ch=1 n=a5 v=90
662880 On ch=1 n=a5 v=0
662880 On ch=1 n=a#4 v=0
662880 On ch=1 n=a#5 v=90
663360 On ch=1 n=a#4 v=90
663720 On ch=1 n=a#5 v=0
663720 On ch=1 n=f#5 v=90
663840 On ch=1 n=f#5 v=0
663840 On ch=1 n=g5 v=90
664200 On ch=1 n=g5 v=0
664200 On ch=1 n=a5 v=92
664320 On ch=1 n=a5 v=0
664320 On ch=1 n=a#4 v=0
664320 On ch=1 n=a#5 v=94
664560 On ch=1 n=a#5 v=0
664560 On ch=1 n=a#4 v=96
664800 On ch=1 n=a#4 v=0
664800 On ch=1 n=d6 v=98
665040 On ch=1 n=d6 v=0
665040 On ch=1 n=c6 v=100
665280 On ch=1 n=c6 v=0
665280 On ch=1 n=d6 v=108
665520 On ch=1 n=d6 v=0
665520 On ch=1 n=c6 v=100
665760 On ch=1 n=c6 v=0
665760 On ch=1 n=a#5 v=98
665920 On ch=1 n=a#5 v=0
665920 On ch=1 n=g5 v=96
666080 On ch=1 n=g5 v=0
666080 On ch=1 n=d#5 v=94
666240 On ch=1 n=d#5 v=0
666240 On ch=1 n=a4 v=92
666240 On ch=1 n=d5 v=92
666600 On ch=1 n=d5 v=0
666600 On ch=1 n=a4 v=0
666600 On ch=1 n=c5 v=90
666720 On ch=1 n=c5 v=0
666720 On ch=1 n=a#4 v=90
666900 On ch=1 n=a#4 v=0
667200 On ch=1 n=f6 v=90
667680 On ch=1 n=f5 v=90
668040 On ch=1 n=f6 v=0
668040 On ch=1 n=c#6 v=90
668160 On ch=1 n=c#6 v=0
668160 On ch=1 n=d6 v=90
668520 On ch=1 n=d6 v=0
668520 On ch=1 n=d#6 v=90
668640 On ch=1 n=d#6 v=0
668640 On ch=1 n=f5 v=0
668640 On ch=1 n=f6 v=90
669120 On ch=1 n=f5 v=90
669480 On ch=1 n=f6 v=0
669480 On ch=1 n=c#6 v=90
669600 On ch=1 n=c#6 v=0
669600 On ch=1 n=d6 v=90
669960 On ch=1 n=d6 v=0
669960 On ch=1 n=d#6 v=92
670080 On ch=1 n=d#6 v=0
670080 On ch=1 n=f5 v=0
670080 On ch=1 n=f6 v=94
670320 On ch=1 n=f6 v=0
670320 On ch=1 n=f5 v=96
670560 On ch=1 n=f5 v=0
670560 On ch=1 n=a6 v=98
670800 On ch=1 n=a6 v=0
670800 On ch=1 n=g6 v=100
671040 On ch=1 n=g6 v=0
671040 On ch=1 n=a6 v=108
671280 On ch=1 n=a6 v=0
671280 On ch=1 n=g6 v=100
671520 On ch=1 n=g6 v=0
671520 On ch=1 n=f6 v=98
671680 On ch=1 n=f6 v=0
671680 On ch=1 n=d6 v=96
671840 On ch=1 n=d6 v=0
671840 On ch=1 n=a#5 v=94
672000 On ch=1 n=a#5 v=0
672000 On ch=1 n=e5 v=92
672000 On ch=1 n=a5 v=92
672360 On ch=1 n=a5 v=0
672360 On ch=1 n=e5 v=0
672360 On ch=1 n=g5 v=90
672480 On ch=1 n=g5 v=0
672480 On ch=1 n=f5 v=90
672660 On ch=1 n=f5 v=0
672960 On ch=1 n=a#6 v=69
673440 On ch=1 n=a#5 v=69
673800 On ch=1 n=a#6 v=0
673800 On ch=1 n=f6 v=65
673920 On ch=1 n=f6 v=0
673920 On ch=1 n=f#6 v=65
674280 On ch=1 n=f#6 v=0
674280 On ch=1 n=g#6 v=65
674400 On ch=1 n=g#6 v=0
674400 On ch=1 n=a#5 v=0
674400 On ch=1 n=a#6 v=69
674880 On ch=1 n=a#5 v=69
675240 On ch=1 n=a#6 v=0
675240 On ch=1 n=f6 v=65
675360 On ch=1 n=f6 v=0
675360 On ch=1 n=f#6 v=65
675720 On ch=1 n=f#6 v=0
675720 On ch=1 n=g#6 v=66
675840 On ch=1 n=g#6 v=0
675840 On ch=1 n=a#5 v=0
675840 On ch=1 n=a#6 v=68
676080 On ch=1 n=a#6 v=0
676080 On ch=1 n=c#6 v=69
676320 On ch=1 n=c#6 v=0
676320 On ch=1 n=f7 v=71
676560 On ch=1 n=f7 v=0
676560 On ch=1 n=d#7 v=72
676800 On ch=1 n=d#7 v=0
676800 On ch=1 n=f7 v=78
677040 On ch=1 n=f7 v=0
677040 On ch=1 n=d#7 v=72
677280 On ch=1 n=d#7 v=0
677280 On ch=1 n=c#7 v=71
677440 On ch=1 n=c#7 v=0
677440 On ch=1 n=a#6 v=69
677600 On ch=1 n=a#6 v=0
677600 On ch=1 n=f#6 v=68
677760 On ch=1 n=f#6 v=0
677760 On ch=1 n=c6 v=66
677760 On ch=1 n=f6 v=66
678120 On ch=1 n=f6 v=0
678120 On ch=1 n=c6 v=0
678120 On ch=1 n=d#6 v=65
678240 On ch=1 n=d#6 v=0
678240 On ch=1 n=c#6 v=65
678420 On ch=1 n=c#6 v=0
678720 On ch=1 n=g#6 v=69
679200 On ch=1 n=g#5 v=69
679560 On ch=1 n=g#6 v=0
679560 On ch=1 n=d#6 v=65
679680 On ch=1 n=d#6 v=0
679680 On ch=1 n=f6 v=65
680040 On ch=1 n=f6 v=0
680040 On ch=1 n=f#6 v=65
680160 On ch=1 n=f#6 v=0
680160 On ch=1 n=g#5 v=0
680160 On ch=1 n=g#6 v=69
680640 On ch=1 n=g#5 v=69
681000 On ch=1 n=g#6 v=0
681000 On ch=1 n=d#6 v=65
681120 On ch=1 n=d#6 v=0
681120 On ch=1 n=f6 v=65
681480 On ch=1 n=f6 v=0
681480 On ch=1 n=f#6 v=66
681600 On ch=1 n=f#6 v=0
681600 On ch=1 n=g#5 v=0
681600 On ch=1 n=g#6 v=68
681840 On ch=1 n=g#6 v=0
681840 On ch=1 n=a#5 v=69
682080 On ch=1 n=a#5 v=0
682080 On ch=1 n=c7 v=71
682320 On ch=1 n=c7 v=0
682320 On ch=1 n=a#6 v=72
682560 On ch=1 n=a#6 v=0
682560 On ch=1 n=c7 v=78
682800 On ch=1 n=c7 v=0
682800 On ch=1 n=a#6 v=72
683040 On ch=1 n=a#6 v=0
683040 On ch=1 n=g#6 v=71
683200 On ch=1 n=g#6 v=0
683200 On ch=1 n=f6 v=69
683360 On ch=1 n=f6 v=0
683360 On ch=1 n=c#6 v=68
683520 On ch=1 n=c#6 v=0
683520 On ch=1 n=c6 v=66
683520 On ch=1 n=g5 v=66
683880 On ch=1 n=g5 v=0
683880 On ch=1 n=c6 v=0
683880 On ch=1 n=a#5 v=65
684000 On ch=1 n=a#5 v=0
684000 On ch=1 n=g#5 v=65
684180 On ch=1 n=g#5 v=0
684960 On ch=1 n=c5 v=65
684960 On ch=1 n=d#5 v=65
684960 On ch=1 n=a5 v=65
685920 On ch=1 n=a5 v=0
685920 On ch=1 n=d#5 v=0
685920 On ch=1 n=c5 v=0
685920 On ch=1 n=a5 v=73
686760 On ch=1 n=a5 v=0
686760 On ch=1 n=d5 v=65
686880 On ch=1 n=d5 v=0
686880 On ch=1 n=d#5 v=65
687240 On ch=1 n=d#5 v=0
687240 On ch=1 n=f5 v=65
687360 On ch=1 n=f5 v=0
687360 On ch=1 n=c5 v=65
687360 On ch=1 n=f#5 v=65
688800 On ch=1 n=f#5 v=0
688800 On ch=1 n=c5 v=0
688800 On ch=1 n=f#5 v=73
689640 On ch=1 n=f#5 v=0
689640 On ch=1 n=b4 v=65
689760 On ch=1 n=b4 v=0
689760 On ch=1 n=c5 v=65
690120 On ch=1 n=c5 v=0
690120 On ch=1 n=c#5 v=65
690240 On ch=1 n=c#5 v=0
690240 On ch=1 n=d#5 v=65
691080 On ch=1 n=f4 v=65
691200 On ch=1 n=f4 v=0
691200 On ch=1 n=f#4 v=65
691560 On ch=1 n=f#4 v=0
691560 On ch=1 n=g#4 v=65
691680 On ch=1 n=g#4 v=0
691680 On ch=1 n=d#5 v=0
691680 On ch=1 n=a4 v=65
692520 On ch=1 n=d4 v=65
692640 On ch=1 n=d4 v=0
692640 On ch=1 n=d#4 v=66
693000 On ch=1 n=d#4 v=0
693000 On ch=1 n=e4 v=68
693120 On ch=1 n=e4 v=0
693120 On ch=1 n=a4 v=0
693120 On ch=1 n=f#4 v=69
693960 On ch=1 n=c#4 v=71
694080 On ch=1 n=c#4 v=0
694080 On ch=1 n=d4 v=73
694440 On ch=1 n=d4 v=0
694440 On ch=1 n=e4 v=75
694560 On ch=1 n=e4 v=0
694560 On ch=1 n=f#4 v=0
694560 On ch=1 n=f#4 v=78
695040 On ch=1 n=f#4 v=0
696000 On ch=1 n=g4 v=53
696120 On ch=1 n=g4 v=0
696120 On ch=1 n=a4 v=53
696240 On ch=1 n=a4 v=0
696240 On ch=1 n=g4 v=53
696360 On ch=1 n=g4 v=0
696360 On ch=1 n=d4 v=53
696480 On ch=1 n=d4 v=0
696480 On ch=1 n=d5 v=53
696600 On ch=1 n=d5 v=0
696840 On ch=1 n=d4 v=53
696840 On ch=1 n=g4 v=53
696900 On ch=1 n=g4 v=0
696900 On ch=1 n=d4 v=0
696960 On ch=1 n=c4 v=53
696960 On ch=1 n=f#4 v=53
697080 On ch=1 n=f#4 v=0
697080 On ch=1 n=c4 v=0
697440 On ch=1 n=c5 v=53
697560 On ch=1 n=c5 v=0
697560 On ch=1 n=d5 v=53
697680 On ch=1 n=d5 v=0
697680 On ch=1 n=c5 v=53
697800 On ch=1 n=c5 v=0
697800 On ch=1 n=a4 v=53
697920 On ch=1 n=a4 v=0
697920 On ch=1 n=a5 v=53
698040 On ch=1 n=a5 v=0
698280 On ch=1 n=d4 v=53
698280 On ch=1 n=c5 v=53
698340 On ch=1 n=c5 v=0
698340 On ch=1 n=d4 v=0
698400 On ch=1 n=d4 v=53
698400 On ch=1 n=a#4 v=53
698520 On ch=1 n=a#4 v=0
698520 On ch=1 n=d4 v=0
698880 On ch=1 n=g4 v=53
699000 On ch=1 n=g4 v=0
699000 On ch=1 n=a4 v=53
699120 On ch=1 n=a4 v=0
699120 On ch=1 n=g4 v=53
699240 On ch=1 n=g4 v=0
699240 On ch=1 n=d4 v=53
699360 On ch=1 n=d4 v=0
699360 On ch=1 n=g5 v=53
699480 On ch=1 n=g5 v=0
699720 On ch=1 n=f5 v=53
699720 On ch=1 n=g4 v=53
699780 On ch=1 n=g4 v=0
699780 On ch=1 n=f5 v=0
699840 On ch=1 n=d#5 v=53
699840 On ch=1 n=g4 v=53
699960 On ch=1 n=g4 v=0
699960 On ch=1 n=d#5 v=0
700200 On ch=1 n=g4 v=53
700200 On ch=1 n=d5 v=53
700320 On ch=1 n=d5 v=0
700320 On ch=1 n=g4 v=0
700320 On ch=1 n=c5 v=53
700320 On ch=1 n=g4 v=53
700440 On ch=1 n=g4 v=0
700440 On ch=1 n=c5 v=0
700680 On ch=1 n=a#4 v=53
700800 On ch=1 n=a#4 v=0
700800 On ch=1 n=a4 v=53
700800 On ch=1 n=c#5 v=53
700920 On ch=1 n=c#5 v=0
700920 On ch=1 n=a4 v=0
701160 On ch=1 n=g4 v=53
701280 On ch=1 n=g4 v=0
701280 On ch=1 n=d5 v=53
701280 On ch=1 n=f#4 v=53
701400 On ch=1 n=f#4 v=0
701400 On ch=1 n=d5 v=0
701760 On ch=1 n=d6 v=61
702240 On ch=1 n=d5 v=61
702600 On ch=1 n=d6 v=0
702600 On ch=1 n=c6 v=53
702720 On ch=1 n=c6 v=0
702720 On ch=1 n=a#5 v=53
702840 On ch=1 n=a#5 v=0
703080 On ch=1 n=a5 v=53
703200 On ch=1 n=a5 v=0
703200 On ch=1 n=d5 v=0
703200 On ch=1 n=a#5 v=53
703200 On ch=1 n=g5 v=53
703440 On ch=1 n=g5 v=0
703560 On ch=1 n=f5 v=53
703680 On ch=1 n=f5 v=0
703680 On ch=1 n=a#5 v=0
703680 On ch=1 n=d#5 v=53
703800 On ch=1 n=d#5 v=0
704040 On ch=1 n=d5 v=53
704160 On ch=1 n=d5 v=0
704160 On ch=1 n=c5 v=53
704280 On ch=1 n=c5 v=0
704640 On ch=1 n=f6 v=61
705120 On ch=1 n=f5 v=61
705480 On ch=1 n=f6 v=0
705480 On ch=1 n=d#6 v=58
705600 On ch=1 n=d#6 v=0
705600 On ch=1 n=d6 v=63
705720 On ch=1 n=d6 v=0
705960 On ch=1 n=c6 v=68
706080 On ch=1 n=c6 v=0
706080 On ch=1 n=f5 v=0
706080 On ch=1 n=d6 v=73
706080 On ch=1 n=a#5 v=73
706320 On ch=1 n=a#5 v=0
706440 On ch=1 n=a5 v=78
706560 On ch=1 n=a5 v=0
706560 On ch=1 n=d6 v=0
706560 On ch=1 n=g5 v=83
706680 On ch=1 n=g5 v=0
706920 On ch=1 n=f5 v=88
707040 On ch=1 n=f5 v=0
707040 On ch=1 n=e5 v=93
707160 On ch=1 n=e5 v=0
707520 On ch=1 n=a6 v=117
708000 On ch=1 n=a5 v=117
708360 On ch=1 n=a6 v=0
708360 On ch=1 n=g6 v=102
708480 On ch=1 n=g6 v=0
708480 On ch=1 n=f#6 v=102
708600 On ch=1 n=f#6 v=0
708840 On ch=1 n=d#6 v=102
708960 On ch=1 n=d#6 v=0
708960 On ch=1 n=a5 v=0
708960 On ch=1 n=f6 v=102
708960 On ch=1 n=d6 v=102
709200 On ch=1 n=d6 v=0
709320 On ch=1 n=c6 v=102
709440 On ch=1 n=c6 v=0
709440 On ch=1 n=f6 v=0
709440 On ch=1 n=g6 v=102
709440 On ch=1 n=a#5 v=102
709560 On ch=1 n=a#5 v=0
709680 On ch=1 n=g6 v=0
709800 On ch=1 n=a5 v=102
709920 On ch=1 n=a5 v=0
709920 On ch=1 n=g5 v=99
710160 On ch=1 n=g5 v=0
710400 On ch=1 n=a#5 v=104
710880 On ch=1 n=a#5 v=0
710880 On ch=1 n=a5 v=93
710880 On ch=1 n=c#6 v=93
711240 On ch=1 n=a5 v=0
711240 On ch=1 n=g5 v=90
711360 On ch=1 n=g5 v=0
711360 On ch=1 n=c#6 v=0
711360 On ch=1 n=d6 v=87
711360 On ch=1 n=f#5 v=87
711480 On ch=1 n=d6 v=0
711600 On ch=1 n=f#5 v=0
711720 On ch=1 n=g#5 v=84
711840 On ch=1 n=g#5 v=0
711840 On ch=1 n=b5 v=81
711840 On ch=1 n=g5 v=81
711960 On ch=1 n=g5 v=0
712200 On ch=1 n=f5 v=78
712320 On ch=1 n=f5 v=0
712320 On ch=1 n=b5 v=0
712320 On ch=1 n=c6 v=75
712320 On ch=1 n=d#5 v=75
712440 On ch=1 n=d#5 v=0
712440 On ch=1 n=c6 v=0
712680 On ch=1 n=d5 v=72
712800 On ch=1 n=d5 v=0
712800 On ch=1 n=c5 v=69
713280 On ch=1 n=c5 v=0
713280 On ch=1 n=d#5 v=66
713760 On ch=1 n=d#5 v=0
713760 On ch=1 n=d5 v=63
713760 On ch=1 n=f#5 v=63
714120 On ch=1 n=d5 v=0
714120 On ch=1 n=c5 v=60
714240 On ch=1 n=c5 v=0
714240 On ch=1 n=f#5 v=0
714240 On ch=1 n=a#4 v=57
714240 On ch=1 n=g5 v=57
714720 On ch=1 n=g5 v=0
714720 On ch=1 n=a#4 v=0
714720 On ch=1 n=c5 v=65
714720 On ch=1 n=d#5 v=65
714720 On ch=1 n=g5 v=65
715200 On ch=1 n=g5 v=0
715200 On ch=1 n=d#5 v=0
715200 On ch=1 n=c5 v=0
715200 On ch=1 n=c5 v=71
715200 On ch=1 n=d#5 v=71
715200 On ch=1 n=f#5 v=71
715200 On ch=1 n=a5 v=71
715560 On ch=1 n=a5 v=0
715560 On ch=1 n=f#5 v=0
715560 On ch=1 n=d#5 v=0
715560 On ch=1 n=c5 v=0
715680 On ch=1 n=d5 v=78
715680 On ch=1 n=a#5 v=78
715860 On ch=1 n=a#5 v=0
715860 On ch=1 n=d5 v=0
715920 On ch=1 n=c6 v=78
716160 On ch=1 n=c6 v=0
716160 On ch=1 n=a5 v=78
716400 On ch=1 n=a5 v=0
716400 On ch=1 n=a#5 v=78
716640 On ch=1 n=a#5 v=0
716640 On ch=1 n=g5 v=78
716880 On ch=1 n=g5 v=0
716880 On ch=1 n=d6 v=78
717120 On ch=1 n=d6 v=0
717120 On ch=1 n=d6 v=78
717600 On ch=1 n=d6 v=0
717600 On ch=1 n=c5 v=65
717600 On ch=1 n=d#5 v=65
717600 On ch=1 n=g5 v=65
718080 On ch=1 n=g5 v=0
718080 On ch=1 n=d#5 v=0
718080 On ch=1 n=c5 v=0
718080 On ch=1 n=c5 v=71
718080 On ch=1 n=d#5 v=71
718080 On ch=1 n=f#5 v=71
718080 On ch=1 n=a5 v=71
718440 On ch=1 n=a5 v=0
718440 On ch=1 n=f#5 v=0
718440 On ch=1 n=d#5 v=0
718440 On ch=1 n=c5 v=0
718560 On ch=1 n=d5 v=78
718560 On ch=1 n=a#5 v=78
718740 On ch=1 n=a#5 v=0
718740 On ch=1 n=d5 v=0
718800 On ch=1 n=c6 v=78
719040 On ch=1 n=c6 v=0
719040 On ch=1 n=a5 v=78
719280 On ch=1 n=a5 v=0
719280 On ch=1 n=a#5 v=78
719520 On ch=1 n=a#5 v=0
719520 On ch=1 n=g5 v=78
719760 On ch=1 n=g5 v=0
719760 On ch=1 n=d#6 v=78
720000 On ch=1 n=d#6 v=0
720000 On ch=1 n=d#6 v=78
720480 On ch=1 n=d#6 v=0
720480 On ch=1 n=c5 v=65
720480 On ch=1 n=d#5 v=65
720480 On ch=1 n=g5 v=65
720840 On ch=1 n=g5 v=0
720840 On ch=1 n=d#5 v=0
720840 On ch=1 n=c5 v=0
720960 On ch=1 n=c5 v=73
720960 On ch=1 n=d#5 v=73
720960 On ch=1 n=a5 v=73
721440 On ch=1 n=d#5 v=0
721440 On ch=1 n=c5 v=0
721440 On ch=1 n=d5 v=65
721620 On ch=1 n=d5 v=0
721680 On ch=1 n=a5 v=0
721680 On ch=1 n=a#5 v=65
721920 On ch=1 n=a#5 v=0
721920 On ch=1 n=g5 v=65
722160 On ch=1 n=g5 v=0
722160 On ch=1 n=a5 v=65
722400 On ch=1 n=a5 v=0
722400 On ch=1 n=f5 v=65
722640 On ch=1 n=f5 v=0
722640 On ch=1 n=d6 v=65
722880 On ch=1 n=d6 v=0
722880 On ch=1 n=d6 v=65
723360 On ch=1 n=d6 v=0
723360 On ch=1 n=a#4 v=65
723360 On ch=1 n=d5 v=65
723360 On ch=1 n=f5 v=65
723720 On ch=1 n=f5 v=0
723720 On ch=1 n=d5 v=0
723720 On ch=1 n=a#4 v=0
723840 On ch=1 n=a#4 v=73
723840 On ch=1 n=d5 v=73
723840 On ch=1 n=g5 v=73
724320 On ch=1 n=d5 v=0
724320 On ch=1 n=a#4 v=0
724320 On ch=1 n=c5 v=65
724500 On ch=1 n=c5 v=0
724560 On ch=1 n=g5 v=0
724560 On ch=1 n=a5 v=65
724800 On ch=1 n=a5 v=0
724800 On ch=1 n=f5 v=65
725040 On ch=1 n=f5 v=0
725040 On ch=1 n=g5 v=62
725280 On ch=1 n=g5 v=0
725280 On ch=1 n=d#5 v=62
725520 On ch=1 n=d#5 v=0
725520 On ch=1 n=c6 v=62
725760 On ch=1 n=c6 v=0
725760 On ch=1 n=c6 v=59
726240 On ch=1 n=c6 v=0
726240 On ch=1 n=d#5 v=59
726240 On ch=1 n=c5 v=59
726240 On ch=1 n=g4 v=59
726600 On ch=1 n=g4 v=0
726600 On ch=1 n=c5 v=0
726600 On ch=1 n=d#5 v=0
726720 On ch=1 n=d5 v=59
726720 On ch=1 n=a4 v=59
726720 On ch=1 n=f#4 v=59
727200 On ch=1 n=f#4 v=0
727200 On ch=1 n=a4 v=0
727200 On ch=1 n=g4 v=56
727380 On ch=1 n=g4 v=0
727440 On ch=1 n=d5 v=0
727440 On ch=1 n=d#5 v=56
727680 On ch=1 n=d#5 v=0
727680 On ch=1 n=c5 v=56
727920 On ch=1 n=c5 v=0
727920 On ch=1 n=d5 v=56
728160 On ch=1 n=d5 v=0
728160 On ch=1 n=a#4 v=56
728400 On ch=1 n=a#4 v=0
728400 On ch=1 n=g5 v=56
728640 On ch=1 n=g5 v=0
728640 On ch=1 n=g5 v=53
729120 On ch=1 n=g5 v=0
729120 On ch=1 n=d#5 v=53
729120 On ch=1 n=c5 v=53
729120 On ch=1 n=g4 v=53
729480 On ch=1 n=g4 v=0
729480 On ch=1 n=c5 v=0
729480 On ch=1 n=d#5 v=0
729600 On ch=1 n=d5 v=53
729600 On ch=1 n=a4 v=53
729600 On ch=1 n=f#4 v=53
730080 On ch=1 n=f#4 v=0
730080 On ch=1 n=a4 v=0
730080 On ch=1 n=g4 v=53
730260 On ch=1 n=g4 v=0
730320 On ch=1 n=d5 v=0
730320 On ch=1 n=d5 v=60
730560 On ch=1 n=d5 v=0
730560 On ch=1 n=e5 v=67
730800 On ch=1 n=e5 v=0
730800 On ch=1 n=f#5 v=74
731040 On ch=1 n=f#5 v=0
731040 On ch=1 n=g5 v=81
731280 On ch=1 n=g5 v=0
731280 On ch=1 n=a5 v=88
731520 On ch=1 n=a5 v=0
731520 On ch=1 n=a#5 v=95
732000 On ch=1 n=a#5 v=0
732000 On ch=1 n=g5 v=102
732000 On ch=1 n=a#5 v=102
732000 On ch=1 n=d6 v=102
732480 On ch=1 n=d6 v=0
732480 On ch=1 n=a#5 v=0
732480 On ch=1 n=g5 v=0
732480 On ch=1 n=g5 v=102
732480 On ch=1 n=a#5 v=102
732480 On ch=1 n=c#6 v=102
732480 On ch=1 n=e6 v=102
732960 On ch=1 n=e6 v=0
732960 On ch=1 n=c#6 v=0
732960 On ch=1 n=a#5 v=0
732960 On ch=1 n=g5 v=0
733020 On ch=1 n=a5 v=102
733020 On ch=1 n=d6 v=102
733020 On ch=1 n=f6 v=102
733140 On ch=1 n=f6 v=0
733140 On ch=1 n=d6 v=0
733140 On ch=1 n=a5 v=0
733200 On ch=1 n=g6 v=102
733200 On ch=1 n=g5 v=102
733440 On ch=1 n=g5 v=0
733440 On ch=1 n=g6 v=0
733440 On ch=1 n=e5 v=102
733440 On ch=1 n=e6 v=102
733680 On ch=1 n=e6 v=0
733680 On ch=1 n=e5 v=0
733680 On ch=1 n=f5 v=102
733680 On ch=1 n=f6 v=102
733920 On ch=1 n=f6 v=0
733920 On ch=1 n=f5 v=0
733920 On ch=1 n=d6 v=102
733920 On ch=1 n=d5 v=102
734160 On ch=1 n=d5 v=0
734160 On ch=1 n=d6 v=0
734160 On ch=1 n=a#6 v=102
734160 On ch=1 n=a#5 v=102
734400 On ch=1 n=a#5 v=0
734400 On ch=1 n=a#6 v=0
734400 On ch=1 n=a#5 v=102
734400 On ch=1 n=a#6 v=102
734880 On ch=1 n=a#6 v=0
734880 On ch=1 n=a#5 v=0
734880 On ch=1 n=g5 v=102
734880 On ch=1 n=a#5 v=102
734880 On ch=1 n=d6 v=102
735360 On ch=1 n=d6 v=0
735360 On ch=1 n=a#5 v=0
735360 On ch=1 n=g5 v=0
735360 On ch=1 n=g5 v=102
735360 On ch=1 n=a#5 v=102
735360 On ch=1 n=c#6 v=102
735360 On ch=1 n=e6 v=102
735840 On ch=1 n=e6 v=0
735840 On ch=1 n=c#6 v=0
735840 On ch=1 n=a#5 v=0
735840 On ch=1 n=g5 v=0
735900 On ch=1 n=a5 v=102
735900 On ch=1 n=d6 v=102
735900 On ch=1 n=f6 v=102
736020 On ch=1 n=f6 v=0
736020 On ch=1 n=d6 v=0
736020 On ch=1 n=a5 v=0
736080 On ch=1 n=g6 v=102
736080 On ch=1 n=g5 v=102
736320 On ch=1 n=g5 v=0
736320 On ch=1 n=g6 v=0
736320 On ch=1 n=e5 v=102
736320 On ch=1 n=e6 v=102
736560 On ch=1 n=e6 v=0
736560 On ch=1 n=e5 v=0
736560 On ch=1 n=f5 v=102
736560 On ch=1 n=f6 v=102
736800 On ch=1 n=f6 v=0
736800 On ch=1 n=f5 v=0
736800 On ch=1 n=d6 v=102
736800 On ch=1 n=d5 v=102
737040 On ch=1 n=d5 v=0
737040 On ch=1 n=d6 v=0
737040 On ch=1 n=a#6 v=102
737040 On ch=1 n=a#5 v=102
737280 On ch=1 n=a#5 v=0
737280 On ch=1 n=a#6 v=0
737280 On ch=1 n=a#5 v=102
737280 On ch=1 n=a#6 v=102
737760 On ch=1 n=a#6 v=0
737760 On ch=1 n=a#5 v=0
737760 On ch=1 n=f5 v=98
737760 On ch=1 n=a#5 v=98
737760 On ch=1 n=d6 v=98
738240 On ch=1 n=d6 v=0
738240 On ch=1 n=a#5 v=0
738240 On ch=1 n=f5 v=0
738240 On ch=1 n=d6 v=94
738240 On ch=1 n=a#5 v=94
738240 On ch=1 n=f#5 v=94
738720 On ch=1 n=f#5 v=0
738720 On ch=1 n=a#5 v=0
738720 On ch=1 n=d6 v=0
738720 On ch=1 n=c6 v=90
738720 On ch=1 n=a#5 v=90
738720 On ch=1 n=g5 v=90
738900 On ch=1 n=g5 v=0
738900 On ch=1 n=a#5 v=0
738900 On ch=1 n=c6 v=0
738960 On ch=1 n=g6 v=102
739440 On ch=1 n=g6 v=0
739440 On ch=1 n=d#6 v=99
739680 On ch=1 n=d#6 v=0
739680 On ch=1 n=c6 v=96
739920 On ch=1 n=c6 v=0
739920 On ch=1 n=a#5 v=93
740160 On ch=1 n=a#5 v=0
740160 On ch=1 n=a5 v=90
740340 On ch=1 n=a5 v=0
740400 On ch=1 n=d#6 v=102
740880 On ch=1 n=d#6 v=0
740880 On ch=1 n=c6 v=99
741120 On ch=1 n=c6 v=0
741120 On ch=1 n=a5 v=96
741360 On ch=1 n=a5 v=0
741360 On ch=1 n=g5 v=93
741600 On ch=1 n=g5 v=0
741600 On ch=1 n=a5 v=90
741720 On ch=1 n=a5 v=0
741720 On ch=1 n=d6 v=90
741900 On ch=1 n=d6 v=0
742080 On ch=1 n=c5 v=65
742080 On ch=1 n=d#5 v=65
742080 On ch=1 n=g5 v=65
742560 On ch=1 n=g5 v=0
742560 On ch=1 n=d#5 v=0
742560 On ch=1 n=c5 v=0
742560 On ch=1 n=c5 v=71
742560 On ch=1 n=d#5 v=71
742560 On ch=1 n=f#5 v=71
742560 On ch=1 n=a5 v=71
743040 On ch=1 n=a5 v=0
743040 On ch=1 n=f#5 v=0
743040 On ch=1 n=d#5 v=0
743040 On ch=1 n=c5 v=0
743040 On ch=1 n=d5 v=78
743040 On ch=1 n=a#5 v=78
743220 On ch=1 n=a#5 v=0
743220 On ch=1 n=d5 v=0
743280 On ch=1 n=c6 v=78
743520 On ch=1 n=c6 v=0
743520 On ch=1 n=a5 v=78
743760 On ch=1 n=a5 v=0
743760 On ch=1 n=a#5 v=78
744000 On ch=1 n=a#5 v=0
744000 On ch=1 n=g5 v=78
744240 On ch=1 n=g5 v=0
744240 On ch=1 n=d6 v=78
744480 On ch=1 n=d6 v=0
744480 On ch=1 n=d6 v=78
744960 On ch=1 n=d6 v=0
744960 On ch=1 n=c5 v=65
744960 On ch=1 n=d#5 v=65
744960 On ch=1 n=g5 v=65
745440 On ch=1 n=g5 v=0
745440 On ch=1 n=d#5 v=0
745440 On ch=1 n=c5 v=0
745440 On ch=1 n=c5 v=71
745440 On ch=1 n=d#5 v=71
745440 On ch=1 n=f#5 v=71
745440 On ch=1 n=a5 v=71
745920 On ch=1 n=a5 v=0
745920 On ch=1 n=f#5 v=0
745920 On ch=1 n=d#5 v=0
745920 On ch=1 n=c5 v=0
745920 On ch=1 n=d5 v=78
745920 On ch=1 n=a#5 v=78
746100 On ch=1 n=a#5 v=0
746100 On ch=1 n=d5 v=0
746160 On ch=1 n=c6 v=78
746400 On ch=1 n=c6 v=0
746400 On ch=1 n=a5 v=78
746640 On ch=1 n=a5 v=0
746640 On ch=1 n=a#5 v=78
746880 On ch=1 n=a#5 v=0
746880 On ch=1 n=g5 v=78
747120 On ch=1 n=g5 v=0
747120 On ch=1 n=d#6 v=78
747360 On ch=1 n=d#6 v=0
747360 On ch=1 n=d#6 v=78
747840 On ch=1 n=d#6 v=0
747840 On ch=1 n=c5 v=65
747840 On ch=1 n=d#5 v=65
747840 On ch=1 n=g5 v=65
748200 On ch=1 n=g5 v=0
748200 On ch=1 n=d#5 v=0
748200 On ch=1 n=c5 v=0
748320 On ch=1 n=c5 v=73
748320 On ch=1 n=d#5 v=73
748320 On ch=1 n=a5 v=73
748800 On ch=1 n=d#5 v=0
748800 On ch=1 n=c5 v=0
748800 On ch=1 n=d5 v=65
748980 On ch=1 n=d5 v=0
749040 On ch=1 n=a5 v=0
749040 On ch=1 n=a#5 v=65
749280 On ch=1 n=a#5 v=0
749280 On ch=1 n=g5 v=65
749520 On ch=1 n=g5 v=0
749520 On ch=1 n=a5 v=65
749760 On ch=1 n=a5 v=0
749760 On ch=1 n=f5 v=65
750000 On ch=1 n=f5 v=0
750000 On ch=1 n=d6 v=65
750240 On ch=1 n=d6 v=0
750240 On ch=1 n=d6 v=65
750720 On ch=1 n=d6 v=0
750720 On ch=1 n=a#4 v=65
750720 On ch=1 n=d5 v=65
750720 On ch=1 n=f5 v=65
751080 On ch=1 n=f5 v=0
751080 On ch=1 n=d5 v=0
751080 On ch=1 n=a#4 v=0
751200 On ch=1 n=a#4 v=73
751200 On ch=1 n=d5 v=73
751200 On ch=1 n=g5 v=73
751680 On ch=1 n=d5 v=0
751680 On ch=1 n=a#4 v=0
751680 On ch=1 n=c5 v=65
751860 On ch=1 n=c5 v=0
751920 On ch=1 n=g5 v=0
751920 On ch=1 n=a5 v=65
752160 On ch=1 n=a5 v=0
752160 On ch=1 n=f5 v=65
752400 On ch=1 n=f5 v=0
752400 On ch=1 n=g5 v=62
752640 On ch=1 n=g5 v=0
752640 On ch=1 n=d#5 v=62
752880 On ch=1 n=d#5 v=0
752880 On ch=1 n=c6 v=62
753120 On ch=1 n=c6 v=0
753120 On ch=1 n=c6 v=59
753600 On ch=1 n=c6 v=0
753600 On ch=1 n=d#5 v=59
753600 On ch=1 n=c5 v=59
753600 On ch=1 n=g4 v=59
753960 On ch=1 n=g4 v=0
753960 On ch=1 n=c5 v=0
753960 On ch=1 n=d#5 v=0
754080 On ch=1 n=d5 v=59
754080 On ch=1 n=a4 v=59
754080 On ch=1 n=f#4 v=59
754560 On ch=1 n=f#4 v=0
754560 On ch=1 n=a4 v=0
754560 On ch=1 n=g4 v=56
754740 On ch=1 n=g4 v=0
754800 On ch=1 n=d5 v=0
754800 On ch=1 n=d#5 v=56
755040 On ch=1 n=d#5 v=0
755040 On ch=1 n=c5 v=56
755280 On ch=1 n=c5 v=0
755280 On ch=1 n=d5 v=56
755520 On ch=1 n=d5 v=0
755520 On ch=1 n=a#4 v=56
755760 On ch=1 n=a#4 v=0
755760 On ch=1 n=g5 v=56
756000 On ch=1 n=g5 v=0
756000 On ch=1 n=g5 v=53
756480 On ch=1 n=g5 v=0
756480 On ch=1 n=d#5 v=53
756480 On ch=1 n=c5 v=53
756480 On ch=1 n=g4 v=53
756840 On ch=1 n=g4 v=0
756840 On ch=1 n=c5 v=0
756840 On ch=1 n=d#5 v=0
756960 On ch=1 n=d5 v=53
756960 On ch=1 n=a4 v=53
756960 On ch=1 n=f#4 v=53
757440 On ch=1 n=f#4 v=0
757440 On ch=1 n=a4 v=0
757440 On ch=1 n=g4 v=53
757920 On ch=1 n=g4 v=0
757920 On ch=1 n=d5 v=0
757920 On ch=1 n=f4 v=102
757920 On ch=1 n=a#4 v=102
757920 On ch=1 n=d5 v=102
758280 On ch=1 n=d5 v=0
758280 On ch=1 n=a#4 v=0
758280 On ch=1 n=f4 v=0
758400 On ch=1 n=f4 v=102
758400 On ch=1 n=c5 v=102
758400 On ch=1 n=f5 v=102
758760 On ch=1 n=f5 v=0
758760 On ch=1 n=c5 v=0
758760 On ch=1 n=f4 v=0
758880 On ch=1 n=d5 v=102
758880 On ch=1 n=f5 v=102
758880 On ch=1 n=a#5 v=102
759060 On ch=1 n=a#5 v=0
759060 On ch=1 n=f5 v=0
759060 On ch=1 n=d5 v=0
759120 On ch=1 n=a#5 v=102
759360 On ch=1 n=a#5 v=0
759360 On ch=1 n=f5 v=102
759600 On ch=1 n=f5 v=0
759600 On ch=1 n=g5 v=102
759840 On ch=1 n=g5 v=0
759840 On ch=1 n=a#4 v=102
760200 On ch=1 n=a#4 v=0
760200 On ch=1 n=a#5 v=102
760320 On ch=1 n=a#5 v=0
760320 On ch=1 n=a#5 v=102
760680 On ch=1 n=a#5 v=0
760800 On ch=1 n=d5 v=104
760800 On ch=1 n=f5 v=104
760800 On ch=1 n=a#5 v=104
761160 On ch=1 n=a#5 v=0
761160 On ch=1 n=f5 v=0
761160 On ch=1 n=d5 v=0
761280 On ch=1 n=f5 v=106
761280 On ch=1 n=a#5 v=106
761280 On ch=1 n=d6 v=106
761640 On ch=1 n=d6 v=0
761640 On ch=1 n=a#5 v=0
761640 On ch=1 n=f5 v=0
761760 On ch=1 n=f6 v=108
761760 On ch=1 n=d6 v=108
761760 On ch=1 n=g#5 v=108
761940 On ch=1 n=g#5 v=0
761940 On ch=1 n=d6 v=0
761940 On ch=1 n=f6 v=0
762000 On ch=1 n=f6 v=108
762240 On ch=1 n=f6 v=0
762240 On ch=1 n=c6 v=108
762480 On ch=1 n=c6 v=0
762480 On ch=1 n=d6 v=108
762720 On ch=1 n=d6 v=0
762720 On ch=1 n=g#5 v=108
763080 On ch=1 n=g#5 v=0
763080 On ch=1 n=g#6 v=108
763200 On ch=1 n=g#6 v=0
763200 On ch=1 n=g#6 v=108
763680 On ch=1 n=g#6 v=0
763680 On ch=1 n=g#5 v=110
763680 On ch=1 n=c6 v=110
763680 On ch=1 n=g#6 v=110
764040 On ch=1 n=g#6 v=0
764040 On ch=1 n=c6 v=0
764040 On ch=1 n=g#5 v=0
764160 On ch=1 n=c7 v=112
764160 On ch=1 n=f6 v=112
764160 On ch=1 n=c6 v=112
764520 On ch=1 n=c6 v=0
764520 On ch=1 n=f6 v=0
764520 On ch=1 n=c7 v=0
764640 On ch=1 n=f7 v=114
764640 On ch=1 n=a#6 v=114
764640 On ch=1 n=f6 v=114
764880 On ch=1 n=f6 v=0
764880 On ch=1 n=a#6 v=0
764880 On ch=1 n=f7 v=0
764880 On ch=1 n=f7 v=114
765120 On ch=1 n=f7 v=0
765120 On ch=1 n=a#6 v=114
765360 On ch=1 n=a#6 v=0
765360 On ch=1 n=c7 v=114
765600 On ch=1 n=c7 v=0
765600 On ch=1 n=f6 v=114
765840 On ch=1 n=f6 v=0
765840 On ch=1 n=f6 v=114
766080 On ch=1 n=f6 v=0
766080 On ch=1 n=a#5 v=114
766320 On ch=1 n=a#5 v=0
766320 On ch=1 n=c6 v=114
766560 On ch=1 n=c6 v=0
766560 On ch=1 n=f5 v=114
766800 On ch=1 n=f5 v=0
766800 On ch=1 n=f5 v=108
767040 On ch=1 n=f5 v=0
767040 On ch=1 n=a#4 v=102
767280 On ch=1 n=a#4 v=0
767280 On ch=1 n=c5 v=96
767520 On ch=1 n=c5 v=0
767520 On ch=1 n=f4 v=98
767760 On ch=1 n=f5 v=90
768000 On ch=1 n=f5 v=0
768000 On ch=1 n=a#4 v=90
768240 On ch=1 n=a#4 v=0
768240 On ch=1 n=c5 v=90
768480 On ch=1 n=c5 v=0
768480 On ch=1 n=f4 v=0
768480 On ch=1 n=f#4 v=98
768720 On ch=1 n=f#5 v=90
768960 On ch=1 n=f#5 v=0
768960 On ch=1 n=a#4 v=90
769200 On ch=1 n=a#4 v=0
769200 On ch=1 n=c5 v=90
769440 On ch=1 n=c5 v=0
769440 On ch=1 n=f#4 v=0
769440 On ch=1 n=g4 v=99
769680 On ch=1 n=g5 v=91
769920 On ch=1 n=g5 v=0
769920 On ch=1 n=c5 v=91
770160 On ch=1 n=c5 v=0
770160 On ch=1 n=c#5 v=91
770400 On ch=1 n=c#5 v=0
770400 On ch=1 n=g4 v=0
770400 On ch=1 n=g#4 v=99
770640 On ch=1 n=g#5 v=91
770880 On ch=1 n=g#5 v=0
770880 On ch=1 n=d5 v=91
771120 On ch=1 n=d5 v=0
771120 On ch=1 n=d#5 v=91
771360 On ch=1 n=d#5 v=0
771360 On ch=1 n=g#4 v=0
771360 On ch=1 n=a4 v=99
771600 On ch=1 n=a5 v=91
771840 On ch=1 n=a5 v=0
771840 On ch=1 n=d5 v=91
772080 On ch=1 n=d5 v=0
772080 On ch=1 n=d#5 v=91
772320 On ch=1 n=d#5 v=0
772320 On ch=1 n=a4 v=0
772320 On ch=1 n=a#4 v=100
772560 On ch=1 n=a#5 v=92
772800 On ch=1 n=a#5 v=0
772800 On ch=1 n=a#4 v=0
772800 On ch=1 n=b4 v=100
773040 On ch=1 n=b5 v=92
773280 On ch=1 n=b5 v=0
773280 On ch=1 n=b4 v=0
773280 On ch=1 n=c5 v=101
773520 On ch=1 n=c6 v=93
773760 On ch=1 n=c6 v=0
773760 On ch=1 n=f5 v=93
774000 On ch=1 n=f5 v=0
774000 On ch=1 n=f#5 v=93
774240 On ch=1 n=f#5 v=0
774240 On ch=1 n=c5 v=0
774240 On ch=1 n=d5 v=101
774480 On ch=1 n=d6 v=93
774720 On ch=1 n=d6 v=0
774720 On ch=1 n=f5 v=93
774960 On ch=1 n=f5 v=0
774960 On ch=1 n=f#5 v=93
775200 On ch=1 n=f#5 v=0
775200 On ch=1 n=d5 v=0
775200 On ch=1 n=d#5 v=102
775440 On ch=1 n=d#6 v=94
775680 On ch=1 n=d#6 v=0
775680 On ch=1 n=b5 v=94
775920 On ch=1 n=b5 v=0
775920 On ch=1 n=c6 v=94
776160 On ch=1 n=c6 v=0
776160 On ch=1 n=d#5 v=0
776160 On ch=1 n=g5 v=103
776400 On ch=1 n=g6 v=95
776640 On ch=1 n=g6 v=0
776640 On ch=1 n=d6 v=95
776880 On ch=1 n=d6 v=0
776880 On ch=1 n=d#6 v=95
777120 On ch=1 n=d#6 v=0
777120 On ch=1 n=g5 v=0
777120 On ch=1 n=f5 v=103
777360 On ch=1 n=f6 v=95
777600 On ch=1 n=f6 v=0
777600 On ch=1 n=c#6 v=95
777840 On ch=1 n=c#6 v=0
777840 On ch=1 n=d6 v=95
778080 On ch=1 n=d6 v=0
778080 On ch=1 n=f5 v=0
778080 On ch=1 n=d#5 v=103
778320 On ch=1 n=d#6 v=95
778560 On ch=1 n=d#6 v=0
778560 On ch=1 n=d6 v=95
778640 On ch=1 n=d6 v=0
778640 On ch=1 n=d#6 v=95
778720 On ch=1 n=d#6 v=0
778720 On ch=1 n=d6 v=95
778800 On ch=1 n=d6 v=0
778800 On ch=1 n=c6 v=95
779040 On ch=1 n=c6 v=0
779040 On ch=1 n=d#5 v=0
779040 On ch=1 n=f5 v=104
779280 On ch=1 n=f6 v=96
779520 On ch=1 n=f6 v=0
779520 On ch=1 n=a#5 v=96
779760 On ch=1 n=a#5 v=0
779760 On ch=1 n=c6 v=96
780000 On ch=1 n=c6 v=0
780000 On ch=1 n=f5 v=0
780000 On ch=1 n=f#5 v=104
780240 On ch=1 n=f#6 v=96
780480 On ch=1 n=f#6 v=0
780480 On ch=1 n=a#5 v=96
780720 On ch=1 n=a#5 v=0
780720 On ch=1 n=c6 v=96
780960 On ch=1 n=c6 v=0
780960 On ch=1 n=f#5 v=0
780960 On ch=1 n=g5 v=105
781200 On ch=1 n=g6 v=97
781440 On ch=1 n=g6 v=0
781440 On ch=1 n=c6 v=97
781680 On ch=1 n=c6 v=0
781680 On ch=1 n=c#6 v=97
781920 On ch=1 n=c#6 v=0
781920 On ch=1 n=g5 v=0
781920 On ch=1 n=g#5 v=105
782160 On ch=1 n=g#6 v=97
782400 On ch=1 n=g#6 v=0
782400 On ch=1 n=d6 v=97
782640 On ch=1 n=d6 v=0
782640 On ch=1 n=d#6 v=97
782880 On ch=1 n=d#6 v=0
782880 On ch=1 n=g#5 v=0
782880 On ch=1 n=a5 v=106
783120 On ch=1 n=a6 v=98
783360 On ch=1 n=a6 v=0
783360 On ch=1 n=d6 v=98
783600 On ch=1 n=d6 v=0
783600 On ch=1 n=d#6 v=98
783840 On ch=1 n=d#6 v=0
783840 On ch=1 n=a5 v=0
783840 On ch=1 n=a#5 v=106
784080 On ch=1 n=a#6 v=98
784320 On ch=1 n=a#6 v=0
784320 On ch=1 n=a#5 v=0
784320 On ch=1 n=b5 v=106
784560 On ch=1 n=b6 v=98
784800 On ch=1 n=b6 v=0
784800 On ch=1 n=b5 v=0
784800 On ch=1 n=c6 v=107
785040 On ch=1 n=c7 v=99
785280 On ch=1 n=c7 v=0
785280 On ch=1 n=f6 v=99
785520 On ch=1 n=f6 v=0
785520 On ch=1 n=f#6 v=99
785760 On ch=1 n=f#6 v=0
785760 On ch=1 n=c6 v=0
785760 On ch=1 n=d6 v=107
786000 On ch=1 n=d7 v=99
786240 On ch=1 n=d7 v=0
786240 On ch=1 n=f6 v=99
786480 On ch=1 n=f6 v=0
786480 On ch=1 n=f#6 v=99
786720 On ch=1 n=f#6 v=0
786720 On ch=1 n=d6 v=0
786720 On ch=1 n=d#6 v=108
786960 On ch=1 n=d#7 v=100
787200 On ch=1 n=d#7 v=0
787200 On ch=1 n=b6 v=100
787440 On ch=1 n=b6 v=0
787440 On ch=1 n=c7 v=100
787680 On ch=1 n=c7 v=0
787680 On ch=1 n=d#6 v=0
787680 On ch=1 n=g6 v=111
787920 On ch=1 n=g7 v=102
788160 On ch=1 n=g7 v=0
788160 On ch=1 n=d7 v=102
788400 On ch=1 n=d7 v=0
788400 On ch=1 n=d#7 v=102
788640 On ch=1 n=d#7 v=0
788640 On ch=1 n=g6 v=0
788640 On ch=1 n=f6 v=105
788880 On ch=1 n=f7 v=96
789120 On ch=1 n=f7 v=0
789120 On ch=1 n=c#7 v=96
789360 On ch=1 n=c#7 v=0
789360 On ch=1 n=d7 v=96
789600 On ch=1 n=d7 v=0
789600 On ch=1 n=f6 v=0
789600 On ch=1 n=d#6 v=99
789840 On ch=1 n=d#7 v=90
790080 On ch=1 n=d#7 v=0
790080 On ch=1 n=b6 v=90
790320 On ch=1 n=b6 v=0
790320 On ch=1 n=c7 v=90
790560 On ch=1 n=c7 v=0
790560 On ch=1 n=d#6 v=0
790560 On ch=1 n=d6 v=84
790800 On ch=1 n=d7 v=84
791040 On ch=1 n=d7 v=0
791040 On ch=1 n=a#6 v=84
791280 On ch=1 n=a#6 v=0
791280 On ch=1 n=c7 v=84
791520 On ch=1 n=c7 v=0
791520 On ch=1 n=d6 v=0
791520 On ch=1 n=c6 v=78
791760 On ch=1 n=c7 v=78
792000 On ch=1 n=c7 v=0
792000 On ch=1 n=g#6 v=78
792240 On ch=1 n=g#6 v=0
792240 On ch=1 n=a#6 v=78
792480 On ch=1 n=a#6 v=0
792480 On ch=1 n=c6 v=0
792480 On ch=1 n=a#5 v=72
792720 On ch=1 n=a#6 v=72
792960 On ch=1 n=a#6 v=0
792960 On ch=1 n=g6 v=72
793200 On ch=1 n=g6 v=0
793200 On ch=1 n=g#6 v=72
793440 On ch=1 n=g#6 v=0
793440 On ch=1 n=a#5 v=0
793440 On ch=1 n=a#5 v=65
793680 On ch=1 n=a#6 v=65
793920 On ch=1 n=a#6 v=0
793920 On ch=1 n=g6 v=65
794160 On ch=1 n=g6 v=0
794160 On ch=1 n=g#6 v=65
794400 On ch=1 n=g#6 v=0
794400 On ch=1 n=a#5 v=0
794400 On ch=1 n=b5 v=73
794640 On ch=1 n=a#6 v=65
794880 On ch=1 n=a#6 v=0
794880 On ch=1 n=g6 v=65
795120 On ch=1 n=g6 v=0
795120 On ch=1 n=g#6 v=65
795360 On ch=1 n=g#6 v=0
795360 On ch=1 n=b5 v=0
795360 On ch=1 n=a#5 v=65
795600 On ch=1 n=a#6 v=65
795840 On ch=1 n=a#6 v=0
795840 On ch=1 n=a#5 v=0
795840 On ch=1 n=g6 v=65
795840 On ch=1 n=b5 v=65
796080 On ch=1 n=g6 v=0
796080 On ch=1 n=g#6 v=65
796320 On ch=1 n=g#6 v=0
796320 On ch=1 n=b5 v=0
796320 On ch=1 n=c6 v=65
796560 On ch=1 n=a#6 v=65
796800 On ch=1 n=a#6 v=0
796800 On ch=1 n=g6 v=65
797040 On ch=1 n=g6 v=0
797040 On ch=1 n=g#6 v=65
797280 On ch=1 n=g#6 v=0
797280 On ch=1 n=c6 v=0
797280 On ch=1 n=c#6 v=73
797520 On ch=1 n=a#6 v=65
797760 On ch=1 n=a#6 v=0
797760 On ch=1 n=g6 v=65
798000 On ch=1 n=g6 v=0
798000 On ch=1 n=g#6 v=65
798240 On ch=1 n=g#6 v=0
798240 On ch=1 n=c#6 v=0
798240 On ch=1 n=c6 v=65
798480 On ch=1 n=a#6 v=65
798720 On ch=1 n=a#6 v=0
798720 On ch=1 n=c6 v=0
798720 On ch=1 n=g6 v=65
798720 On ch=1 n=c#6 v=65
798960 On ch=1 n=g6 v=0
798960 On ch=1 n=g#6 v=65
799200 On ch=1 n=g#6 v=0
799200 On ch=1 n=c#6 v=0
799200 On ch=1 n=d6 v=65
799440 On ch=1 n=d6 v=0
799440 On ch=1 n=a#6 v=64
799920 On ch=1 n=a#6 v=0
799920 On ch=1 n=g#6 v=62
800160 On ch=1 n=g#6 v=0
800160 On ch=1 n=f6 v=61
800400 On ch=1 n=f6 v=0
800400 On ch=1 n=d6 v=60
800640 On ch=1 n=d6 v=0
800640 On ch=1 n=b5 v=59
800880 On ch=1 n=b5 v=0
800880 On ch=1 n=g6 v=65
801360 On ch=1 n=g6 v=0
801360 On ch=1 n=f6 v=56
801600 On ch=1 n=f6 v=0
801600 On ch=1 n=d6 v=55
801840 On ch=1 n=d6 v=0
801840 On ch=1 n=a#5 v=54
802080 On ch=1 n=a#5 v=0
802080 On ch=1 n=g#5 v=53
802560 On ch=1 n=g#5 v=0
802560 On ch=1 n=c5 v=53
802560 On ch=1 n=d#5 v=53
802560 On ch=1 n=g5 v=53
803040 On ch=1 n=g5 v=0
803040 On ch=1 n=d#5 v=0
803040 On ch=1 n=c5 v=0
803040 On ch=1 n=c5 v=58
803040 On ch=1 n=d#5 v=58
803040 On ch=1 n=f#5 v=58
803040 On ch=1 n=a5 v=58
803520 On ch=1 n=a5 v=0
803520 On ch=1 n=f#5 v=0
803520 On ch=1 n=d#5 v=0
803520 On ch=1 n=c5 v=0
803520 On ch=1 n=d5 v=64
803520 On ch=1 n=a#5 v=64
803700 On ch=1 n=a#5 v=0
803700 On ch=1 n=d5 v=0
803760 On ch=1 n=c6 v=64
804000 On ch=1 n=c6 v=0
804000 On ch=1 n=a5 v=64
804240 On ch=1 n=a5 v=0
804240 On ch=1 n=a#5 v=64
804480 On ch=1 n=a#5 v=0
804480 On ch=1 n=g5 v=64
804720 On ch=1 n=g5 v=0
804720 On ch=1 n=d6 v=64
804960 On ch=1 n=d6 v=0
804960 On ch=1 n=d6 v=64
805440 On ch=1 n=d6 v=0
805440 On ch=1 n=c5 v=53
805440 On ch=1 n=d#5 v=53
805440 On ch=1 n=g5 v=53
805920 On ch=1 n=g5 v=0
805920 On ch=1 n=d#5 v=0
805920 On ch=1 n=c5 v=0
805920 On ch=1 n=c5 v=58
805920 On ch=1 n=d#5 v=58
805920 On ch=1 n=f#5 v=58
805920 On ch=1 n=a5 v=58
806400 On ch=1 n=a5 v=0
806400 On ch=1 n=f#5 v=0
806400 On ch=1 n=d#5 v=0
806400 On ch=1 n=c5 v=0
806400 On ch=1 n=d5 v=64
806400 On ch=1 n=a#5 v=64
806580 On ch=1 n=a#5 v=0
806580 On ch=1 n=d5 v=0
806640 On ch=1 n=c6 v=64
806880 On ch=1 n=c6 v=0
806880 On ch=1 n=a5 v=64
807120 On ch=1 n=a5 v=0
807120 On ch=1 n=a#5 v=64
807360 On ch=1 n=a#5 v=0
807360 On ch=1 n=g5 v=64
807600 On ch=1 n=g5 v=0
807600 On ch=1 n=d#6 v=64
807840 On ch=1 n=d#6 v=0
807840 On ch=1 n=d#6 v=64
808320 On ch=1 n=d#6 v=0
808320 On ch=1 n=c5 v=53
808320 On ch=1 n=d#5 v=53
808320 On ch=1 n=g5 v=53
808680 On ch=1 n=g5 v=0
808680 On ch=1 n=d#5 v=0
808680 On ch=1 n=c5 v=0
808800 On ch=1 n=c5 v=60
808800 On ch=1 n=d#5 v=60
808800 On ch=1 n=a5 v=60
809280 On ch=1 n=d#5 v=0
809280 On ch=1 n=c5 v=0
809280 On ch=1 n=d5 v=53
809460 On ch=1 n=d5 v=0
809520 On ch=1 n=a5 v=0
809520 On ch=1 n=a#5 v=53
809760 On ch=1 n=a#5 v=0
809760 On ch=1 n=g5 v=53
810000 On ch=1 n=g5 v=0
810000 On ch=1 n=a5 v=53
810240 On ch=1 n=a5 v=0
810240 On ch=1 n=f5 v=53
810480 On ch=1 n=f5 v=0
810480 On ch=1 n=d6 v=53
810720 On ch=1 n=d6 v=0
810720 On ch=1 n=d6 v=53
811200 On ch=1 n=d6 v=0
811200 On ch=1 n=a#4 v=53
811200 On ch=1 n=d5 v=53
811200 On ch=1 n=f5 v=53
811560 On ch=1 n=f5 v=0
811560 On ch=1 n=d5 v=0
811560 On ch=1 n=a#4 v=0
811680 On ch=1 n=a#4 v=60
811680 On ch=1 n=d5 v=60
811680 On ch=1 n=g5 v=60
812160 On ch=1 n=d5 v=0
812160 On ch=1 n=a#4 v=0
812160 On ch=1 n=c5 v=53
812340 On ch=1 n=c5 v=0
812400 On ch=1 n=g5 v=0
812400 On ch=1 n=a5 v=53
812640 On ch=1 n=a5 v=0
812640 On ch=1 n=f5 v=53
812880 On ch=1 n=f5 v=0
812880 On ch=1 n=g5 v=51
813120 On ch=1 n=g5 v=0
813120 On ch=1 n=d#5 v=51
813360 On ch=1 n=d#5 v=0
813360 On ch=1 n=c6 v=51
813600 On ch=1 n=c6 v=0
813600 On ch=1 n=c6 v=48
814080 On ch=1 n=c6 v=0
814080 On ch=1 n=d#5 v=48
814080 On ch=1 n=c5 v=48
814080 On ch=1 n=g4 v=48
814440 On ch=1 n=g4 v=0
814440 On ch=1 n=c5 v=0
814440 On ch=1 n=d#5 v=0
814560 On ch=1 n=d5 v=48
814560 On ch=1 n=a4 v=48
814560 On ch=1 n=f#4 v=48
815040 On ch=1 n=f#4 v=0
815040 On ch=1 n=a4 v=0
815040 On ch=1 n=g4 v=46
815220 On ch=1 n=g4 v=0
815280 On ch=1 n=d5 v=0
815280 On ch=1 n=d#5 v=46
815520 On ch=1 n=d#5 v=0
815520 On ch=1 n=c5 v=46
815760 On ch=1 n=c5 v=0
815760 On ch=1 n=d5 v=46
816000 On ch=1 n=d5 v=0
816000 On ch=1 n=a#4 v=46
816240 On ch=1 n=a#4 v=0
816240 On ch=1 n=g5 v=46
816480 On ch=1 n=g5 v=0
816480 On ch=1 n=g5 v=43
816960 On ch=1 n=g5 v=0
816960 On ch=1 n=d#5 v=43
816960 On ch=1 n=c5 v=43
816960 On ch=1 n=g4 v=43
817320 On ch=1 n=g4 v=0
817320 On ch=1 n=c5 v=0
817320 On ch=1 n=d#5 v=0
817440 On ch=1 n=d5 v=43
817440 On ch=1 n=a4 v=43
817440 On ch=1 n=f#4 v=43
817920 On ch=1 n=f#4 v=0
817920 On ch=1 n=a4 v=0
817920 On ch=1 n=g4 v=43
818400 On ch=1 n=g4 v=0
818400 On ch=1 n=d5 v=0
818400 On ch=1 n=a#5 v=90
818880 On ch=1 n=a#4 v=90
819240 On ch=1 n=a#5 v=0
819240 On ch=1 n=f#5 v=90
819360 On ch=1 n=f#5 v=0
819360 On ch=1 n=g5 v=90
819720 On ch=1 n=g5 v=0
819720 On ch=1 n=a5 v=90
819840 On ch=1 n=a5 v=0
819840 On ch=1 n=a#4 v=0
819840 On ch=1 n=a#5 v=90
820320 On ch=1 n=a#4 v=90
820680 On ch=1 n=a#5 v=0
820680 On ch=1 n=f#5 v=90
820800 On ch=1 n=f#5 v=0
820800 On ch=1 n=g5 v=90
821160 On ch=1 n=g5 v=0
821160 On ch=1 n=a5 v=92
821280 On ch=1 n=a5 v=0
821280 On ch=1 n=a#4 v=0
821280 On ch=1 n=a#5 v=94
821520 On ch=1 n=a#5 v=0
821520 On ch=1 n=a#4 v=96
821760 On ch=1 n=a#4 v=0
821760 On ch=1 n=d6 v=98
822000 On ch=1 n=d6 v=0
822000 On ch=1 n=c6 v=100
822240 On ch=1 n=c6 v=0
822240 On ch=1 n=d6 v=108
822480 On ch=1 n=d6 v=0
822480 On ch=1 n=c6 v=100
822720 On ch=1 n=c6 v=0
822720 On ch=1 n=a#5 v=98
822880 On ch=1 n=a#5 v=0
822880 On ch=1 n=g5 v=96
823040 On ch=1 n=g5 v=0
823040 On ch=1 n=d#5 v=94
823200 On ch=1 n=d#5 v=0
823200 On ch=1 n=a4 v=92
823200 On ch=1 n=d5 v=92
823560 On ch=1 n=d5 v=0
823560 On ch=1 n=a4 v=0
823560 On ch=1 n=c5 v=90
823680 On ch=1 n=c5 v=0
823680 On ch=1 n=a#4 v=90
823860 On ch=1 n=a#4 v=0
824160 On ch=1 n=f6 v=90
824640 On ch=1 n=f5 v=90
825000 On ch=1 n=f6 v=0
825000 On ch=1 n=c#6 v=90
825120 On ch=1 n=c#6 v=0
825120 On ch=1 n=d6 v=90
825480 On ch=1 n=d6 v=0
825480 On ch=1 n=d#6 v=90
825600 On ch=1 n=d#6 v=0
825600 On ch=1 n=f5 v=0
825600 On ch=1 n=f6 v=90
826080 On ch=1 n=f5 v=90
826440 On ch=1 n=f6 v=0
826440 On ch=1 n=c#6 v=90
826560 On ch=1 n=c#6 v=0
826560 On ch=1 n=d6 v=90
826920 On ch=1 n=d6 v=0
826920 On ch=1 n=d#6 v=92
827040 On ch=1 n=d#6 v=0
827040 On ch=1 n=f5 v=0
827040 On ch=1 n=f6 v=94
827280 On ch=1 n=f6 v=0
827280 On ch=1 n=f5 v=96
827520 On ch=1 n=f5 v=0
827520 On ch=1 n=a6 v=98
827760 On ch=1 n=a6 v=0
827760 On ch=1 n=g6 v=100
828000 On ch=1 n=g6 v=0
828000 On ch=1 n=a6 v=108
828240 On ch=1 n=a6 v=0
828240 On ch=1 n=g6 v=100
828480 On ch=1 n=g6 v=0
828480 On ch=1 n=f6 v=98
828640 On ch=1 n=f6 v=0
828640 On ch=1 n=d6 v=96
828800 On ch=1 n=d6 v=0
828800 On ch=1 n=a#5 v=94
828960 On ch=1 n=a#5 v=0
828960 On ch=1 n=e5 v=92
828960 On ch=1 n=a5 v=92
829320 On ch=1 n=a5 v=0
829320 On ch=1 n=e5 v=0
829320 On ch=1 n=g5 v=90
829440 On ch=1 n=g5 v=0
829440 On ch=1 n=f5 v=90
829620 On ch=1 n=f5 v=0
829920 On ch=1 n=a#6 v=69
830400 On ch=1 n=a#5 v=69
830760 On ch=1 n=a#6 v=0
830760 On ch=1 n=f6 v=65
830880 On ch=1 n=f6 v=0
830880 On ch=1 n=f#6 v=65
831240 On ch=1 n=f#6 v=0
831240 On ch=1 n=g#6 v=65
831360 On ch=1 n=g#6 v=0
831360 On ch=1 n=a#5 v=0
831360 On ch=1 n=a#6 v=69
831840 On ch=1 n=a#5 v=69
832200 On ch=1 n=a#6 v=0
832200 On ch=1 n=f6 v=65
832320 On ch=1 n=f6 v=0
832320 On ch=1 n=f#6 v=65
832680 On ch=1 n=f#6 v=0
832680 On ch=1 n=g#6 v=66
832800 On ch=1 n=g#6 v=0
832800 On ch=1 n=a#5 v=0
832800 On ch=1 n=a#6 v=68
833040 On ch=1 n=a#6 v=0
833040 On ch=1 n=c#6 v=69
833280 On ch=1 n=c#6 v=0
833280 On ch=1 n=f7 v=71
833520 On ch=1 n=f7 v=0
833520 On ch=1 n=d#7 v=72
833760 On ch=1 n=d#7 v=0
833760 On ch=1 n=f7 v=78
834000 On ch=1 n=f7 v=0
834000 On ch=1 n=d#7 v=72
834240 On ch=1 n=d#7 v=0
834240 On ch=1 n=c#7 v=71
834400 On ch=1 n=c#7 v=0
834400 On ch=1 n=a#6 v=69
834560 On ch=1 n=a#6 v=0
834560 On ch=1 n=f#6 v=68
834720 On ch=1 n=f#6 v=0
834720 On ch=1 n=c6 v=66
834720 On ch=1 n=f6 v=66
835080 On ch=1 n=f6 v=0
835080 On ch=1 n=c6 v=0
835080 On ch=1 n=d#6 v=65
835200 On ch=1 n=d#6 v=0
835200 On ch=1 n=c#6 v=65
835380 On ch=1 n=c#6 v=0
835680 On ch=1 n=g#6 v=95
836160 On ch=1 n=g#5 v=95
836520 On ch=1 n=g#6 v=0
836520 On ch=1 n=d#6 v=90
836640 On ch=1 n=d#6 v=0
836640 On ch=1 n=f6 v=90
837000 On ch=1 n=f6 v=0
837000 On ch=1 n=f#6 v=90
837120 On ch=1 n=f#6 v=0
837120 On ch=1 n=g#5 v=0
837120 On ch=1 n=g#6 v=95
837600 On ch=1 n=g#5 v=95
837960 On ch=1 n=g#6 v=0
837960 On ch=1 n=d#6 v=90
838080 On ch=1 n=d#6 v=0
838080 On ch=1 n=f6 v=90
838440 On ch=1 n=f6 v=0
838440 On ch=1 n=f#6 v=91
838560 On ch=1 n=f#6 v=0
838560 On ch=1 n=g#5 v=0
838560 On ch=1 n=g#6 v=94
838800 On ch=1 n=g#6 v=0
838800 On ch=1 n=a#5 v=95
839040 On ch=1 n=a#5 v=0
839040 On ch=1 n=c7 v=98
839280 On ch=1 n=c7 v=0
839280 On ch=1 n=a#6 v=99
839520 On ch=1 n=a#6 v=0
839520 On ch=1 n=c7 v=108
839760 On ch=1 n=c7 v=0
839760 On ch=1 n=a#6 v=99
840000 On ch=1 n=a#6 v=0
840000 On ch=1 n=g#6 v=98
840160 On ch=1 n=g#6 v=0
840160 On ch=1 n=f6 v=95
840320 On ch=1 n=f6 v=0
840320 On ch=1 n=c#6 v=94
840480 On ch=1 n=c#6 v=0
840480 On ch=1 n=c6 v=91
840480 On ch=1 n=g5 v=91
840840 On ch=1 n=g5 v=0
840840 On ch=1 n=c6 v=0
840840 On ch=1 n=a#5 v=90
840960 On ch=1 n=a#5 v=0
840960 On ch=1 n=g#5 v=90
841140 On ch=1 n=g#5 v=0
841920 On ch=1 n=c5 v=65
841920 On ch=1 n=d#5 v=65
841920 On ch=1 n=a5 v=65
842880 On ch=1 n=a5 v=0
842880 On ch=1 n=d#5 v=0
842880 On ch=1 n=c5 v=0
842880 On ch=1 n=a5 v=73
843720 On ch=1 n=a5 v=0
843720 On ch=1 n=d5 v=65
843840 On ch=1 n=d5 v=0
843840 On ch=1 n=d#5 v=65
844200 On ch=1 n=d#5 v=0
844200 On ch=1 n=f5 v=65
844320 On ch=1 n=f5 v=0
844320 On ch=1 n=c5 v=65
844320 On ch=1 n=f#5 v=65
845760 On ch=1 n=f#5 v=0
845760 On ch=1 n=c5 v=0
845760 On ch=1 n=f#5 v=73
846600 On ch=1 n=f#5 v=0
846600 On ch=1 n=b4 v=65
846720 On ch=1 n=b4 v=0
846720 On ch=1 n=c5 v=65
847080 On ch=1 n=c5 v=0
847080 On ch=1 n=c#5 v=65
847200 On ch=1 n=c#5 v=0
847200 On ch=1 n=d#5 v=65
848040 On ch=1 n=f4 v=65
848160 On ch=1 n=f4 v=0
848160 On ch=1 n=f#4 v=65
848520 On ch=1 n=f#4 v=0
848520 On ch=1 n=g#4 v=65
848640 On ch=1 n=g#4 v=0
848640 On ch=1 n=d#5 v=0
848640 On ch=1 n=a4 v=65
849480 On ch=1 n=d4 v=65
849600 On ch=1 n=d4 v=0
849600 On ch=1 n=d#4 v=66
849960 On ch=1 n=d#4 v=0
849960 On ch=1 n=e4 v=68
850080 On ch=1 n=e4 v=0
850080 On ch=1 n=a4 v=0
850080 On ch=1 n=f#4 v=69
850920 On ch=1 n=c#4 v=71
851040 On ch=1 n=c#4 v=0
851040 On ch=1 n=d4 v=73
851400 On ch=1 n=d4 v=0
851400 On ch=1 n=e4 v=75
851520 On ch=1 n=e4 v=0
851520 On ch=1 n=f#4 v=0
851520 On ch=1 n=f#4 v=78
852000 On ch=1 n=f#4 v=0
852960 On ch=1 n=g4 v=53
853080 On ch=1 n=g4 v=0
853080 On ch=1 n=a4 v=53
853200 On ch=1 n=a4 v=0
853200 On ch=1 n=g4 v=53
853320 On ch=1 n=g4 v=0
853320 On ch=1 n=d4 v=53
853440 On ch=1 n=d4 v=0
853440 On ch=1 n=d5 v=53
853560 On ch=1 n=d5 v=0
853800 On ch=1 n=d4 v=53
853800 On ch=1 n=g4 v=53
853860 On ch=1 n=g4 v=0
853860 On ch=1 n=d4 v=0
853920 On ch=1 n=c4 v=53
853920 On ch=1 n=f#4 v=53
854040 On ch=1 n=f#4 v=0
854040 On ch=1 n=c4 v=0
854400 On ch=1 n=c5 v=53
854520 On ch=1 n=c5 v=0
854520 On ch=1 n=d5 v=53
854640 On ch=1 n=d5 v=0
854640 On ch=1 n=c5 v=53
854760 On ch=1 n=c5 v=0
854760 On ch=1 n=a4 v=53
854880 On ch=1 n=a4 v=0
854880 On ch=1 n=a5 v=53
855000 On ch=1 n=a5 v=0
855240 On ch=1 n=d4 v=53
855240 On ch=1 n=c5 v=53
855300 On ch=1 n=c5 v=0
855300 On ch=1 n=d4 v=0
855360 On ch=1 n=d4 v=53
855360 On ch=1 n=a#4 v=53
855480 On ch=1 n=a#4 v=0
855480 On ch=1 n=d4 v=0
855840 On ch=1 n=g4 v=53
855960 On ch=1 n=g4 v=0
855960 On ch=1 n=a4 v=53
856080 On ch=1 n=a4 v=0
856080 On ch=1 n=g4 v=53
856200 On ch=1 n=g4 v=0
856200 On ch=1 n=d4 v=53
856320 On ch=1 n=d4 v=0
856320 On ch=1 n=g5 v=53
856440 On ch=1 n=g5 v=0
856680 On ch=1 n=f5 v=53
856680 On ch=1 n=g4 v=53
856740 On ch=1 n=g4 v=0
856740 On ch=1 n=f5 v=0
856800 On ch=1 n=d#5 v=53
856800 On ch=1 n=g4 v=53
856920 On ch=1 n=g4 v=0
856920 On ch=1 n=d#5 v=0
857160 On ch=1 n=g4 v=53
857160 On ch=1 n=d5 v=53
857280 On ch=1 n=d5 v=0
857280 On ch=1 n=g4 v=0
857280 On ch=1 n=c5 v=53
857280 On ch=1 n=g4 v=53
857400 On ch=1 n=g4 v=0
857400 On ch=1 n=c5 v=0
857640 On ch=1 n=a#4 v=53
857760 On ch=1 n=a#4 v=0
857760 On ch=1 n=a4 v=53
857760 On ch=1 n=c#5 v=53
857880 On ch=1 n=c#5 v=0
857880 On ch=1 n=a4 v=0
858120 On ch=1 n=g4 v=53
858240 On ch=1 n=g4 v=0
858240 On ch=1 n=d5 v=53
858240 On ch=1 n=f#4 v=53
858360 On ch=1 n=f#4 v=0
858360 On ch=1 n=d5 v=0
858720 On ch=1 n=d6 v=73
859200 On ch=1 n=d5 v=73
859560 On ch=1 n=d6 v=0
859560 On ch=1 n=c6 v=65
859680 On ch=1 n=c6 v=0
859680 On ch=1 n=a#5 v=65
859800 On ch=1 n=a#5 v=0
860040 On ch=1 n=a5 v=65
860160 On ch=1 n=a5 v=0
860160 On ch=1 n=d5 v=0
860160 On ch=1 n=a#5 v=65
860160 On ch=1 n=g5 v=65
860400 On ch=1 n=g5 v=0
860520 On ch=1 n=f5 v=65
860640 On ch=1 n=f5 v=0
860640 On ch=1 n=a#5 v=0
860640 On ch=1 n=d#5 v=65
860760 On ch=1 n=d#5 v=0
861000 On ch=1 n=d5 v=65
861120 On ch=1 n=d5 v=0
861120 On ch=1 n=c5 v=65
861240 On ch=1 n=c5 v=0
861600 On ch=1 n=f6 v=73
862080 On ch=1 n=f5 v=73
862440 On ch=1 n=f6 v=0
862440 On ch=1 n=d#6 v=65
862560 On ch=1 n=d#6 v=0
862560 On ch=1 n=d6 v=65
862680 On ch=1 n=d6 v=0
862920 On ch=1 n=c6 v=65
863040 On ch=1 n=c6 v=0
863040 On ch=1 n=f5 v=0
863040 On ch=1 n=d6 v=65
863040 On ch=1 n=a#5 v=65
863280 On ch=1 n=a#5 v=0
863400 On ch=1 n=a5 v=65
863520 On ch=1 n=a5 v=0
863520 On ch=1 n=d6 v=0
863520 On ch=1 n=g5 v=65
863640 On ch=1 n=g5 v=0
863880 On ch=1 n=f5 v=65
864000 On ch=1 n=f5 v=0
864000 On ch=1 n=e5 v=65
864120 On ch=1 n=e5 v=0
864480 On ch=1 n=a6 v=73
864960 On ch=1 n=a5 v=73
865320 On ch=1 n=a6 v=0
865320 On ch=1 n=g6 v=65
865440 On ch=1 n=g6 v=0
865440 On ch=1 n=f#6 v=65
865560 On ch=1 n=f#6 v=0
865800 On ch=1 n=d#6 v=65
865920 On ch=1 n=d#6 v=0
865920 On ch=1 n=a5 v=0
865920 On ch=1 n=f6 v=65
865920 On ch=1 n=d6 v=65
866160 On ch=1 n=d6 v=0
866280 On ch=1 n=c6 v=65
866400 On ch=1 n=c6 v=0
866400 On ch=1 n=f6 v=0
866400 On ch=1 n=g6 v=65
866400 On ch=1 n=a#5 v=65
866520 On ch=1 n=a#5 v=0
866640 On ch=1 n=g6 v=0
866760 On ch=1 n=a5 v=65
866880 On ch=1 n=a5 v=0
866880 On ch=1 n=g5 v=65
867120 On ch=1 n=g5 v=0
867360 On ch=1 n=a#5 v=65
867840 On ch=1 n=a#5 v=0
867840 On ch=1 n=a5 v=65
867840 On ch=1 n=c#6 v=65
868200 On ch=1 n=a5 v=0
868200 On ch=1 n=g5 v=65
868320 On ch=1 n=g5 v=0
868320 On ch=1 n=c#6 v=0
868320 On ch=1 n=d6 v=65
868320 On ch=1 n=f#5 v=65
868440 On ch=1 n=d6 v=0
868560 On ch=1 n=f#5 v=0
868680 On ch=1 n=d#5 v=65
868800 On ch=1 n=d#5 v=0
868800 On ch=1 n=f#5 v=65
868800 On ch=1 n=d5 v=65
868920 On ch=1 n=d5 v=0
869160 On ch=1 n=c5 v=65
869280 On ch=1 n=c5 v=0
869280 On ch=1 n=f#5 v=0
869280 On ch=1 n=g5 v=65
869280 On ch=1 n=a#4 v=65
869400 On ch=1 n=a#4 v=0
869400 On ch=1 n=g5 v=0
869640 On ch=1 n=a4 v=65
869760 On ch=1 n=a4 v=0
869760 On ch=1 n=g4 v=65
870120 On ch=1 n=g4 v=0
870240 On ch=1 n=a#4 v=62
870720 On ch=1 n=a#4 v=0
870720 On ch=1 n=a4 v=59
870720 On ch=1 n=c#5 v=59
871080 On ch=1 n=a4 v=0
871080 On ch=1 n=g4 v=56
871200 On ch=1 n=g4 v=0
871200 On ch=1 n=c#5 v=0
871440 On ch=1 n=f#4 v=53
871440 On ch=1 n=d5 v=53
874320 On ch=1 n=d5 v=0
874320 On ch=1 n=f#4 v=0
876720 On ch=1 n=d5 v=65
876960 On ch=1 n=d5 v=0
877000 On ch=1 n=c5 v=65
877000 On ch=1 n=f5 v=65
877440 On ch=1 n=c5 v=0
877440 On ch=1 n=d5 v=65
877600 On ch=1 n=d5 v=0
877600 On ch=1 n=c5 v=65
877640 On ch=1 n=c5 v=0
877640 On ch=1 n=d5 v=65
877680 On ch=1 n=d5 v=0
877680 On ch=1 n=d#5 v=65
878040 On ch=1 n=d#5 v=0
878040 On ch=1 n=d5 v=65
878160 On ch=1 n=d5 v=0
878160 On ch=1 n=c5 v=65
878400 On ch=1 n=c5 v=0
878400 On ch=1 n=a#4 v=65
879120 On ch=1 n=a#4 v=0
879120 On ch=1 n=f4 v=65
879600 On ch=1 n=f4 v=0
879600 On ch=1 n=d5 v=65
879840 On ch=1 n=d5 v=0
879840 On ch=1 n=f5 v=0
879880 On ch=1 n=c5 v=65
879880 On ch=1 n=f5 v=65
880200 On ch=1 n=c5 v=0
880200 On ch=1 n=d5 v=65
880320 On ch=1 n=d5 v=0
880320 On ch=1 n=c5 v=65
880520 On ch=1 n=d5 v=65
880560 On ch=1 n=d5 v=0
880560 On ch=1 n=c5 v=0
880560 On ch=1 n=d#5 v=65
880920 On ch=1 n=d#5 v=0
880920 On ch=1 n=d5 v=65
881040 On ch=1 n=d5 v=0
881040 On ch=1 n=c5 v=65
881280 On ch=1 n=c5 v=0
881280 On ch=1 n=a#4 v=65
882720 On ch=1 n=f5 v=0
882720 On ch=1 n=a#5 v=65
883440 On ch=1 n=a#4 v=0
883920 On ch=1 n=a#5 v=0
883920 On ch=1 n=a#4 v=74
884160 On ch=1 n=a#5 v=65
885120 On ch=1 n=a#5 v=0
885120 On ch=1 n=a#4 v=0
885360 On ch=1 n=a#4 v=65
885600 On ch=1 n=a#4 v=0
885640 On ch=1 n=d#5 v=71
885960 On ch=1 n=d#5 v=0
885960 On ch=1 n=d#5 v=77
886080 On ch=1 n=d#5 v=0
886080 On ch=1 n=d#5 v=83
886240 On ch=1 n=d#5 v=86
886280 On ch=1 n=d#5 v=0
886280 On ch=1 n=f5 v=88
886320 On ch=1 n=f5 v=0
886320 On ch=1 n=d#5 v=0
886320 On ch=1 n=g5 v=90
886680 On ch=1 n=g5 v=0
886680 On ch=1 n=f5 v=84
886800 On ch=1 n=f5 v=0
886800 On ch=1 n=d#5 v=77
887040 On ch=1 n=d#5 v=0
887040 On ch=1 n=d5 v=65
888240 On ch=1 n=d5 v=0
888480 On ch=1 n=e4 v=53
888480 On ch=1 n=a4 v=53
888480 On ch=1 n=d5 v=53
889200 On ch=1 n=d5 v=0
889200 On ch=1 n=c#5 v=53
889920 On ch=1 n=c#5 v=0
889920 On ch=1 n=e4 v=0
889920 On ch=1 n=f#4 v=53
889920 On ch=1 n=d5 v=53
890400 On ch=1 n=d5 v=0
890400 On ch=1 n=f#4 v=0
890400 On ch=1 n=a4 v=0
890640 On ch=1 n=f4 v=108
890640 On ch=1 n=g4 v=108
890640 On ch=1 n=b4 v=108
890640 On ch=1 n=d5 v=108
891360 On ch=1 n=d5 v=0
891360 On ch=1 n=b4 v=0
891360 On ch=1 n=g4 v=0
891360 On ch=1 n=f4 v=0
891360 On ch=1 n=d#4 v=108
891360 On ch=1 n=g4 v=108
891360 On ch=1 n=c5 v=108
891840 On ch=1 n=c5 v=0
891840 On ch=1 n=g4 v=0
891840 On ch=1 n=d#4 v=0
892080 On ch=1 n=f4 v=108
892080 On ch=1 n=b4 v=108
892560 On ch=1 n=b4 v=0
892560 On ch=1 n=f4 v=0
892740 On ch=1 n=g4 v=102
892800 On ch=1 n=g4 v=0
892800 On ch=1 n=d#4 v=102
892800 On ch=1 n=c5 v=102
893280 On ch=1 n=d#4 v=0
893328 On ch=1 n=c5 v=0
893328 On ch=1 n=d5 v=102
893376 On ch=1 n=d5 v=0
893376 On ch=1 n=d#5 v=102
893424 On ch=1 n=d#5 v=0
893424 On ch=1 n=f5 v=102
893472 On ch=1 n=f5 v=0
893472 On ch=1 n=g5 v=102
893520 On ch=1 n=g5 v=0
893520 On ch=1 n=d5 v=108
893520 On ch=1 n=g#5 v=108
894000 On ch=1 n=d5 v=0
894048 On ch=1 n=g#5 v=0
894048 On ch=1 n=g5 v=102
894096 On ch=1 n=g5 v=0
894096 On ch=1 n=f5 v=102
894144 On ch=1 n=f5 v=0
894144 On ch=1 n=d#5 v=102
894192 On ch=1 n=d#5 v=0
894192 On ch=1 n=d5 v=102
894240 On ch=1 n=d5 v=0
894240 On ch=1 n=a#4 v=102
894240 On ch=1 n=g5 v=102
894720 On ch=1 n=g5 v=0
894720 On ch=1 n=a#4 v=0
894960 On ch=1 n=d5 v=108
894960 On ch=1 n=f#5 v=108
895440 On ch=1 n=f#5 v=0
895440 On ch=1 n=d5 v=0
895620 On ch=1 n=d5 v=102
895680 On ch=1 n=d5 v=0
895680 On ch=1 n=a#4 v=102
895680 On ch=1 n=g5 v=102
896160 On ch=1 n=a#4 v=0
896208 On ch=1 n=g5 v=0
896208 On ch=1 n=a5 v=102
896256 On ch=1 n=a5 v=0
896256 On ch=1 n=a#5 v=102
896304 On ch=1 n=a#5 v=0
896304 On ch=1 n=c6 v=102
896352 On ch=1 n=c6 v=0
896352 On ch=1 n=d6 v=102
896400 On ch=1 n=d6 v=0
896400 On ch=1 n=a#5 v=114
896400 On ch=1 n=d#6 v=114
896928 On ch=1 n=d#6 v=0
896928 On ch=1 n=d6 v=102
896976 On ch=1 n=d6 v=0
896976 On ch=1 n=d#6 v=99
897024 On ch=1 n=d#6 v=0
897024 On ch=1 n=f6 v=96
897072 On ch=1 n=f6 v=0
897072 On ch=1 n=f#6 v=93
897120 On ch=1 n=f#6 v=0
897120 On ch=1 n=a#5 v=0
897120 On ch=1 n=a5 v=90
897120 On ch=1 n=f#6 v=90
897600 On ch=1 n=a5 v=0
897648 On ch=1 n=f#6 v=0
897648 On ch=1 n=a5 v=92
897696 On ch=1 n=a5 v=0
897696 On ch=1 n=a#5 v=94
897744 On ch=1 n=a#5 v=0
897744 On ch=1 n=c6 v=97
897792 On ch=1 n=c6 v=0
897792 On ch=1 n=d6 v=99
897840 On ch=1 n=d6 v=0
897840 On ch=1 n=b5 v=114
897840 On ch=1 n=d#6 v=114
898320 On ch=1 n=d#6 v=0
898320 On ch=1 n=b5 v=0
898320 On ch=1 n=d6 v=102
898320 On ch=1 n=a#5 v=102
898380 On ch=1 n=d6 v=0
898380 On ch=1 n=d#6 v=93
898440 On ch=1 n=d#6 v=0
898440 On ch=1 n=f6 v=84
898500 On ch=1 n=f6 v=0
898500 On ch=1 n=f#6 v=75
898560 On ch=1 n=f#6 v=0
898560 On ch=1 n=a#5 v=0
898600 On ch=1 n=f#6 v=65
898600 On ch=1 n=b5 v=65
899040 On ch=1 n=f#6 v=0
899040 On ch=1 n=d#6 v=61
899280 On ch=1 n=d#6 v=0
899280 On ch=1 n=a#5 v=57
899760 On ch=1 n=a#5 v=0
899760 On ch=1 n=f#5 v=53
900000 On ch=1 n=f#5 v=0
900000 On ch=1 n=b5 v=0
900000 On ch=1 n=g#4 v=53
900000 On ch=1 n=e5 v=53
900528 On ch=1 n=g#4 v=0
900528 On ch=1 n=g4 v=55
900576 On ch=1 n=g4 v=0
900576 On ch=1 n=g#4 v=58
900624 On ch=1 n=g#4 v=0
900624 On ch=1 n=a#4 v=60
900672 On ch=1 n=a#4 v=0
900672 On ch=1 n=b4 v=62
900720 On ch=1 n=b4 v=0
900720 On ch=1 n=e5 v=0
900720 On ch=1 n=a#4 v=65
900720 On ch=1 n=e5 v=65
901200 On ch=1 n=a#4 v=0
901248 On ch=1 n=e5 v=0
901248 On ch=1 n=d#5 v=63
901296 On ch=1 n=d#5 v=0
901296 On ch=1 n=e5 v=60
901344 On ch=1 n=e5 v=0
901344 On ch=1 n=f#5 v=58
901392 On ch=1 n=f#5 v=0
901392 On ch=1 n=g#5 v=56
901440 On ch=1 n=g#5 v=0
901440 On ch=1 n=a#5 v=53
901440 On ch=1 n=f#5 v=53
901920 On ch=1 n=f#5 v=0
901920 On ch=1 n=d#5 v=53
902160 On ch=1 n=d#5 v=0
902160 On ch=1 n=a#4 v=53
902640 On ch=1 n=a#4 v=0
902640 On ch=1 n=f#4 v=53
902880 On ch=1 n=f#4 v=0
902880 On ch=1 n=a#5 v=0
902880 On ch=1 n=g#4 v=53
902880 On ch=1 n=d#5 v=53
903408 On ch=1 n=g#4 v=0
903408 On ch=1 n=g4 v=53
903456 On ch=1 n=g4 v=0
903456 On ch=1 n=g#4 v=53
903504 On ch=1 n=g#4 v=0
903504 On ch=1 n=a#4 v=53
903552 On ch=1 n=a#4 v=0
903552 On ch=1 n=b4 v=53
903600 On ch=1 n=b4 v=0
903600 On ch=1 n=d#5 v=0
903600 On ch=1 n=a#4 v=53
903600 On ch=1 n=d5 v=53
904080 On ch=1 n=a#4 v=0
904128 On ch=1 n=d5 v=0
904128 On ch=1 n=c#5 v=53
904176 On ch=1 n=c#5 v=0
904176 On ch=1 n=d5 v=53
904224 On ch=1 n=d5 v=0
904224 On ch=1 n=d#5 v=53
904272 On ch=1 n=d#5 v=0
904272 On ch=1 n=f5 v=53
904320 On ch=1 n=f5 v=0
904320 On ch=1 n=d#5 v=53
904320 On ch=1 n=f#5 v=53
905520 On ch=1 n=a#4 v=53
905760 On ch=1 n=a#4 v=0
905760 On ch=1 n=f#5 v=0
905760 On ch=1 n=d#5 v=0
905760 On ch=1 n=f5 v=53
905760 On ch=1 n=d#5 v=53
905760 On ch=1 n=a4 v=53
907200 On ch=1 n=a4 v=0
907200 On ch=1 n=d#5 v=0
907200 On ch=1 n=f5 v=0
907240 On ch=1 n=f4 v=53
907240 On ch=1 n=a#4 v=53
907240 On ch=1 n=f5 v=53
908640 On ch=1 n=f5 v=0
908640 On ch=1 n=a#4 v=0
908640 On ch=1 n=f4 v=0
908640 On ch=1 n=a4 v=53
908640 On ch=1 n=d#5 v=53
908640 On ch=1 n=f5 v=53
910080 On ch=1 n=f5 v=0
910080 On ch=1 n=d#5 v=0
910080 On ch=1 n=a4 v=0
910120 On ch=1 n=f4 v=53
910120 On ch=1 n=a#4 v=53
910120 On ch=1 n=f5 v=53
911520 On ch=1 n=f5 v=0
911520 On ch=1 n=f4 v=0
911560 On ch=1 n=a#5 v=90
912240 On ch=1 n=a#4 v=0
912720 On ch=1 n=a#5 v=0
912720 On ch=1 n=a#4 v=90
913000 On ch=1 n=a#5 v=90
913320 On ch=1 n=a#5 v=0
913320 On ch=1 n=a#5 v=90
913440 On ch=1 n=a#5 v=0
913440 On ch=1 n=a#5 v=90
913600 On ch=1 n=a#5 v=0
913600 On ch=1 n=a#5 v=90
913640 On ch=1 n=a#5 v=0
913640 On ch=1 n=c6 v=90
913680 On ch=1 n=c6 v=0
913680 On ch=1 n=a#4 v=0
913680 On ch=1 n=d6 v=90
913680 On ch=1 n=d5 v=90
914040 On ch=1 n=d5 v=0
914040 On ch=1 n=d6 v=0
914040 On ch=1 n=c6 v=90
914040 On ch=1 n=c5 v=90
914160 On ch=1 n=c5 v=0
914160 On ch=1 n=c6 v=0
914188 On ch=1 n=a#4 v=90
914188 On ch=1 n=a#5 v=90
914400 On ch=1 n=a#5 v=0
914400 On ch=1 n=a#4 v=0
914428 On ch=1 n=a#5 v=90
914428 On ch=1 n=a#4 v=90
915120 On ch=1 n=a#4 v=0
915600 On ch=1 n=a#5 v=0
915600 On ch=1 n=a#4 v=90
915840 On ch=1 n=a#5 v=91
916200 On ch=1 n=a#5 v=0
916200 On ch=1 n=a#5 v=92
916320 On ch=1 n=a#5 v=0
916320 On ch=1 n=a#5 v=93
916480 On ch=1 n=a#5 v=0
916480 On ch=1 n=a#5 v=93
916520 On ch=1 n=a#5 v=0
916520 On ch=1 n=c6 v=94
916560 On ch=1 n=c6 v=0
916560 On ch=1 n=a#4 v=0
916560 On ch=1 n=d6 v=96
916560 On ch=1 n=d5 v=96
916920 On ch=1 n=d5 v=0
916920 On ch=1 n=d6 v=0
916920 On ch=1 n=c6 v=96
916920 On ch=1 n=c5 v=96
917040 On ch=1 n=c5 v=0
917040 On ch=1 n=c6 v=0
917040 On ch=1 n=a#5 v=96
917040 On ch=1 n=a#4 v=96
917280 On ch=1 n=a#4 v=0
917280 On ch=1 n=a#5 v=0
917280 On ch=1 n=d#5 v=99
917280 On ch=1 n=d#6 v=99
917640 On ch=1 n=d#6 v=0
917640 On ch=1 n=d#5 v=0
917640 On ch=1 n=f5 v=99
917640 On ch=1 n=f6 v=99
917760 On ch=1 n=f6 v=0
917760 On ch=1 n=f5 v=0
917760 On ch=1 n=d#5 v=99
917760 On ch=1 n=d#6 v=99
917880 On ch=1 n=d#6 v=0
917880 On ch=1 n=d#5 v=0
917880 On ch=1 n=f5 v=102
917880 On ch=1 n=f6 v=102
917920 On ch=1 n=f6 v=0
917920 On ch=1 n=f5 v=0
917920 On ch=1 n=d#5 v=102
917920 On ch=1 n=d#6 v=102
917960 On ch=1 n=d#6 v=0
917960 On ch=1 n=d#5 v=0
917960 On ch=1 n=f6 v=102
917960 On ch=1 n=f5 v=102
918000 On ch=1 n=f5 v=0
918000 On ch=1 n=f6 v=0
918000 On ch=1 n=g5 v=102
918000 On ch=1 n=g6 v=102
918360 On ch=1 n=g6 v=0
918360 On ch=1 n=g5 v=0
918360 On ch=1 n=f5 v=102
918360 On ch=1 n=f6 v=102
918480 On ch=1 n=f6 v=0
918480 On ch=1 n=f5 v=0
918480 On ch=1 n=d#5 v=102
918480 On ch=1 n=d#6 v=102
918720 On ch=1 n=d#6 v=0
918720 On ch=1 n=d#5 v=0
918720 On ch=1 n=c5 v=90
918720 On ch=1 n=d5 v=90
918720 On ch=1 n=d6 v=90
919440 On ch=1 n=d6 v=0
919440 On ch=1 n=d5 v=0
919440 On ch=1 n=c5 v=0
919440 On ch=1 n=f5 v=78
919440 On ch=1 n=g5 v=78
919440 On ch=1 n=d6 v=78
919920 On ch=1 n=d6 v=0
919920 On ch=1 n=g5 v=0
919920 On ch=1 n=f5 v=0
919920 On ch=1 n=g5 v=65
920160 On ch=1 n=g5 v=0
920160 On ch=1 n=g#5 v=65
920160 On ch=1 n=d#5 v=65
920160 On ch=1 n=c6 v=65
920520 On ch=1 n=g#5 v=0
920520 On ch=1 n=g#5 v=65
920640 On ch=1 n=g#5 v=0
920640 On ch=1 n=g#5 v=65
920800 On ch=1 n=g#5 v=0
920800 On ch=1 n=g#5 v=65
920840 On ch=1 n=g#5 v=0
920840 On ch=1 n=a#5 v=65
920880 On ch=1 n=a#5 v=0
920880 On ch=1 n=c6 v=0
920880 On ch=1 n=d#5 v=0
920880 On ch=1 n=c6 v=65
921240 On ch=1 n=c6 v=0
921240 On ch=1 n=a#5 v=65
921360 On ch=1 n=a#5 v=0
921360 On ch=1 n=g#5 v=65
921600 On ch=1 n=g#5 v=0
921600 On ch=1 n=f5 v=65
921600 On ch=1 n=g5 v=65
922320 On ch=1 n=g5 v=0
922320 On ch=1 n=f5 v=0
922320 On ch=1 n=a#4 v=59
922320 On ch=1 n=c5 v=59
922320 On ch=1 n=g5 v=59
922800 On ch=1 n=g5 v=0
922800 On ch=1 n=c5 v=0
922800 On ch=1 n=a#4 v=0
922800 On ch=1 n=d5 v=53
923040 On ch=1 n=d5 v=0
923040 On ch=1 n=c5 v=53
923040 On ch=1 n=a4 v=53
923040 On ch=1 n=f5 v=53
923520 On ch=1 n=c5 v=0
923520 On ch=1 n=d5 v=58
923680 On ch=1 n=d5 v=0
923680 On ch=1 n=c5 v=60
923720 On ch=1 n=c5 v=0
923720 On ch=1 n=d5 v=62
923760 On ch=1 n=d5 v=0
923760 On ch=1 n=a4 v=0
923760 On ch=1 n=d#5 v=63
924120 On ch=1 n=d#5 v=0
924120 On ch=1 n=d5 v=68
924240 On ch=1 n=d5 v=0
924240 On ch=1 n=f5 v=0
924240 On ch=1 n=c5 v=73
924240 On ch=1 n=f5 v=73
924480 On ch=1 n=f5 v=0
924480 On ch=1 n=c5 v=0
924480 On ch=1 n=a#4 v=78
924480 On ch=1 n=f5 v=78
925200 On ch=1 n=a#4 v=0
925200 On ch=1 n=f4 v=70
925680 On ch=1 n=f4 v=0
925680 On ch=1 n=d5 v=62
925920 On ch=1 n=d5 v=0
925920 On ch=1 n=f5 v=0
925920 On ch=1 n=c5 v=53
925920 On ch=1 n=a4 v=53
925920 On ch=1 n=f5 v=53
926280 On ch=1 n=c5 v=0
926280 On ch=1 n=d5 v=53
926400 On ch=1 n=d5 v=0
926400 On ch=1 n=c5 v=53
926600 On ch=1 n=d5 v=53
926640 On ch=1 n=d5 v=0
926640 On ch=1 n=c5 v=0
926640 On ch=1 n=a4 v=0
926640 On ch=1 n=d#5 v=53
927000 On ch=1 n=d#5 v=0
927000 On ch=1 n=d5 v=53
927120 On ch=1 n=d5 v=0
927120 On ch=1 n=f5 v=0
927120 On ch=1 n=f5 v=60
927120 On ch=1 n=c5 v=60
927720 On ch=1 n=c5 v=0
927720 On ch=1 n=a#4 v=65
927840 On ch=1 n=a#4 v=0
927840 On ch=1 n=f5 v=0
927840 On ch=1 n=d5 v=65
927840 On ch=1 n=f5 v=65
928080 On ch=1 n=f5 v=0
928080 On ch=1 n=d5 v=0
928080 On ch=1 n=f5 v=65
928440 On ch=1 n=f5 v=0
928440 On ch=1 n=c5 v=65
928440 On ch=1 n=g5 v=65
928560 On ch=1 n=g5 v=0
928560 On ch=1 n=c5 v=0
928560 On ch=1 n=d5 v=65
928560 On ch=1 n=a5 v=65
928800 On ch=1 n=a5 v=0
928800 On ch=1 n=d5 v=0
928800 On ch=1 n=a#5 v=65
929160 On ch=1 n=a#4 v=65
929280 On ch=1 n=a#4 v=0
929280 On ch=1 n=a#5 v=0
929280 On ch=1 n=d5 v=65
929280 On ch=1 n=f5 v=65
929520 On ch=1 n=f5 v=0
929520 On ch=1 n=d5 v=0
929520 On ch=1 n=g#4 v=65
929880 On ch=1 n=g#4 v=0
929880 On ch=1 n=g4 v=65
930000 On ch=1 n=g4 v=0
930000 On ch=1 n=d5 v=73
930000 On ch=1 n=g5 v=73
930600 On ch=1 n=d5 v=0
930600 On ch=1 n=c5 v=70
930720 On ch=1 n=c5 v=0
930720 On ch=1 n=g5 v=0
930720 On ch=1 n=d#5 v=70
930720 On ch=1 n=g5 v=70
930960 On ch=1 n=g5 v=0
930960 On ch=1 n=d#5 v=0
930960 On ch=1 n=g5 v=75
931320 On ch=1 n=g5 v=0
931320 On ch=1 n=d5 v=75
931320 On ch=1 n=a5 v=75
931440 On ch=1 n=a5 v=0
931440 On ch=1 n=d5 v=0
931440 On ch=1 n=f5 v=75
931440 On ch=1 n=b5 v=75
931680 On ch=1 n=b5 v=0
931680 On ch=1 n=f5 v=0
931680 On ch=1 n=c6 v=80
932040 On ch=1 n=c5 v=80
932160 On ch=1 n=c5 v=0
932160 On ch=1 n=c6 v=0
932160 On ch=1 n=d#5 v=80
932160 On ch=1 n=g5 v=80
932400 On ch=1 n=g5 v=0
932400 On ch=1 n=d#5 v=0
932400 On ch=1 n=a#4 v=85
932760 On ch=1 n=a#4 v=0
932760 On ch=1 n=a4 v=85
932880 On ch=1 n=a4 v=0
932880 On ch=1 n=e5 v=96
932880 On ch=1 n=a5 v=96
933480 On ch=1 n=e5 v=0
933480 On ch=1 n=d5 v=90
933600 On ch=1 n=d5 v=0
933600 On ch=1 n=a5 v=0
933600 On ch=1 n=a5 v=90
933600 On ch=1 n=f5 v=90
933840 On ch=1 n=f5 v=0
933840 On ch=1 n=a5 v=0
933840 On ch=1 n=a5 v=90
934200 On ch=1 n=a5 v=0
934200 On ch=1 n=c#5 v=90
934200 On ch=1 n=b5 v=90
934320 On ch=1 n=b5 v=0
934320 On ch=1 n=c#5 v=0
934320 On ch=1 n=e5 v=90
934320 On ch=1 n=c#6 v=90
934560 On ch=1 n=c#6 v=0
934560 On ch=1 n=e5 v=0
934560 On ch=1 n=d6 v=90
934920 On ch=1 n=d5 v=90
935040 On ch=1 n=d5 v=0
935040 On ch=1 n=f5 v=90
935280 On ch=1 n=f5 v=0
935280 On ch=1 n=d#5 v=96
935640 On ch=1 n=d6 v=0
935640 On ch=1 n=c6 v=84
936000 On ch=1 n=d#5 v=0
936000 On ch=1 n=d5 v=87
936360 On ch=1 n=c6 v=0
936360 On ch=1 n=a#5 v=78
936720 On ch=1 n=d5 v=0
936720 On ch=1 n=c5 v=81
937080 On ch=1 n=a#5 v=0
937080 On ch=1 n=a5 v=72
937440 On ch=1 n=a5 v=0
937440 On ch=1 n=c5 v=0
937440 On ch=1 n=a#4 v=65
937440 On ch=1 n=g5 v=65
937800 On ch=1 n=g5 v=0
937800 On ch=1 n=a#4 v=0
937800 On ch=1 n=a5 v=73
937920 On ch=1 n=a5 v=0
937920 On ch=1 n=a#5 v=81
938120 On ch=1 n=a#5 v=0
938120 On ch=1 n=a#5 v=90
938160 On ch=1 n=a#5 v=0
938160 On ch=1 n=d6 v=90
938520 On ch=1 n=d6 v=0
938520 On ch=1 n=c6 v=78
938640 On ch=1 n=c6 v=0
938640 On ch=1 n=f5 v=65
939120 On ch=1 n=f5 v=0
939240 On ch=1 n=c5 v=65
939240 On ch=1 n=d#5 v=65
939360 On ch=1 n=d#5 v=0
939360 On ch=1 n=f5 v=65
939600 On ch=1 n=f5 v=0
939600 On ch=1 n=c5 v=0
939600 On ch=1 n=f5 v=65
939960 On ch=1 n=f5 v=0
939960 On ch=1 n=d#5 v=68
939960 On ch=1 n=g5 v=68
940080 On ch=1 n=g5 v=0
940080 On ch=1 n=a5 v=71
940320 On ch=1 n=a5 v=0
940320 On ch=1 n=d#5 v=0
940320 On ch=1 n=a5 v=73
940680 On ch=1 n=a5 v=0
940680 On ch=1 n=f5 v=76
940680 On ch=1 n=d5 v=76
940800 On ch=1 n=f5 v=0
940800 On ch=1 n=a#5 v=78
941040 On ch=1 n=d5 v=0
941400 On ch=1 n=a#5 v=0
941400 On ch=1 n=c5 v=71
941400 On ch=1 n=f5 v=71
941520 On ch=1 n=f5 v=0
941520 On ch=1 n=g#5 v=65
941760 On ch=1 n=c5 v=0
942120 On ch=1 n=g#5 v=0
942120 On ch=1 n=b4 v=65
942120 On ch=1 n=f5 v=65
942240 On ch=1 n=f5 v=0
942240 On ch=1 n=g5 v=65
942480 On ch=1 n=g5 v=0
942480 On ch=1 n=b4 v=0
942480 On ch=1 n=g5 v=69
942840 On ch=1 n=g5 v=0
942840 On ch=1 n=d5 v=69
942840 On ch=1 n=a5 v=69
942960 On ch=1 n=a5 v=0
942960 On ch=1 n=b5 v=69
943200 On ch=1 n=b5 v=0
943200 On ch=1 n=d5 v=0
943200 On ch=1 n=b5 v=73
943560 On ch=1 n=b5 v=0
943560 On ch=1 n=d#5 v=73
943560 On ch=1 n=g5 v=73
943680 On ch=1 n=g5 v=0
943680 On ch=1 n=c6 v=73
943920 On ch=1 n=d#5 v=0
944280 On ch=1 n=c6 v=0
944280 On ch=1 n=d5 v=77
944280 On ch=1 n=g5 v=77
944400 On ch=1 n=g5 v=0
944400 On ch=1 n=a#5 v=77
944640 On ch=1 n=d5 v=0
945000 On ch=1 n=a#5 v=0
945000 On ch=1 n=c#5 v=81
945000 On ch=1 n=g5 v=81
945120 On ch=1 n=g5 v=0
945120 On ch=1 n=a5 v=81
945360 On ch=1 n=a5 v=0
945360 On ch=1 n=c#5 v=0
945360 On ch=1 n=a5 v=85
945720 On ch=1 n=a5 v=0
945720 On ch=1 n=e5 v=85
945720 On ch=1 n=b5 v=85
945840 On ch=1 n=b5 v=0
945840 On ch=1 n=c#6 v=85
946080 On ch=1 n=c#6 v=0
946080 On ch=1 n=e5 v=0
946080 On ch=1 n=d6 v=90
946440 On ch=1 n=d5 v=90
946440 On ch=1 n=f5 v=90
946560 On ch=1 n=f5 v=0
946560 On ch=1 n=a5 v=90
946800 On ch=1 n=a5 v=0
946800 On ch=1 n=d5 v=0
946800 On ch=1 n=d#5 v=90
947160 On ch=1 n=d6 v=0
947160 On ch=1 n=c6 v=90
947520 On ch=1 n=d#5 v=0
947520 On ch=1 n=d5 v=90
947880 On ch=1 n=c6 v=0
947880 On ch=1 n=a#5 v=90
948240 On ch=1 n=d5 v=0
948240 On ch=1 n=c5 v=90
948600 On ch=1 n=a#5 v=0
948600 On ch=1 n=a5 v=90
948960 On ch=1 n=a5 v=0
948960 On ch=1 n=c5 v=0
948960 On ch=1 n=a#4 v=93
948960 On ch=1 n=g5 v=93
949320 On ch=1 n=g5 v=0
949320 On ch=1 n=a#4 v=0
949320 On ch=1 n=a5 v=96
949440 On ch=1 n=a5 v=0
949440 On ch=1 n=a#5 v=99
949680 On ch=1 n=a#5 v=0
949680 On ch=1 n=f5 v=102
949680 On ch=1 n=d6 v=102
950040 On ch=1 n=d6 v=0
950040 On ch=1 n=f5 v=0
950040 On ch=1 n=c6 v=102
950160 On ch=1 n=c6 v=0
950160 On ch=1 n=f5 v=108
950400 On ch=1 n=f5 v=0
950400 On ch=1 n=c5 v=96
950440 On ch=1 n=f3 v=90
950480 On ch=1 n=d#4 v=90
950520 On ch=1 n=a4 v=90
950560 On ch=1 n=d#5 v=90
950600 On ch=1 n=d#5 v=0
950600 On ch=1 n=f5 v=90
950880 On ch=1 n=c5 v=0
950880 On ch=1 n=d5 v=90
951080 On ch=1 n=d5 v=0
951090 On ch=1 n=c5 v=90
951120 On ch=1 n=c5 v=0
951120 On ch=1 n=d#5 v=90
951480 On ch=1 n=d#5 v=0
951480 On ch=1 n=d5 v=90
951600 On ch=1 n=d5 v=0
951600 On ch=1 n=c5 v=90
951840 On ch=1 n=c5 v=0
951840 On ch=1 n=a4 v=0
951840 On ch=1 n=d#4 v=0
951840 On ch=1 n=a#4 v=82
952560 On ch=1 n=a#4 v=0
952560 On ch=1 n=f4 v=74
953040 On ch=1 n=f4 v=0
953040 On ch=1 n=d5 v=65
953280 On ch=1 n=d5 v=0
953280 On ch=1 n=f5 v=0
953280 On ch=1 n=f3 v=0
953320 On ch=1 n=c5 v=65
953320 On ch=1 n=f5 v=65
953640 On ch=1 n=c5 v=0
953640 On ch=1 n=d5 v=69
953760 On ch=1 n=d5 v=0
953760 On ch=1 n=c5 v=73
953960 On ch=1 n=c5 v=0
953960 On ch=1 n=d5 v=78
954000 On ch=1 n=d5 v=0
954000 On ch=1 n=d#5 v=78
954360 On ch=1 n=d#5 v=0
954360 On ch=1 n=d5 v=74
954480 On ch=1 n=d5 v=0
954480 On ch=1 n=c5 v=69
954720 On ch=1 n=c5 v=0
954720 On ch=1 n=a#4 v=65
956160 On ch=1 n=f5 v=0
956200 On ch=1 n=a#5 v=65
956880 On ch=1 n=a#4 v=0
956880 On ch=1 n=a#4 v=65
957240 On ch=1 n=a#4 v=0
957240 On ch=1 n=a4 v=65
957360 On ch=1 n=a4 v=0
957360 On ch=1 n=a#5 v=0
957360 On ch=1 n=a#4 v=65
957600 On ch=1 n=a#4 v=0
957640 On ch=1 n=a#4 v=65
957640 On ch=1 n=a#5 v=65
958800 On ch=1 n=a#4 v=0
958800 On ch=1 n=a#4 v=53
958840 On ch=1 n=a#5 v=0
959040 On ch=1 n=d#5 v=53
959400 On ch=1 n=d#5 v=0
959400 On ch=1 n=d#5 v=57
959520 On ch=1 n=d#5 v=0
959520 On ch=1 n=d#5 v=61
959680 On ch=1 n=d#5 v=0
959680 On ch=1 n=d#5 v=62
959720 On ch=1 n=d#5 v=0
959720 On ch=1 n=f5 v=63
959760 On ch=1 n=f5 v=0
959760 On ch=1 n=a#4 v=0
959760 On ch=1 n=a4 v=78
959760 On ch=1 n=f#5 v=65
960120 On ch=1 n=f#5 v=0
960120 On ch=1 n=f5 v=61
960240 On ch=1 n=f5 v=0
960240 On ch=1 n=d#5 v=57
960480 On ch=1 n=d#5 v=0
960480 On ch=1 n=a4 v=0
960480 On ch=1 n=a#4 v=53
960480 On ch=1 n=d5 v=53
960600 On ch=1 n=f5 v=53
961920 On ch=1 n=f5 v=0
961920 On ch=1 n=d5 v=0
961920 On ch=1 n=a#4 v=0
961920 On ch=1 n=a#4 v=53
964680 On ch=1 n=g5 v=102
964800 On ch=1 n=g5 v=0
964800 On ch=1 n=a#4 v=0
964800 On ch=1 n=c6 v=102
964820 On ch=1 n=c6 v=0
964820 On ch=1 n=d6 v=102
964840 On ch=1 n=d6 v=0
964840 On ch=1 n=d#6 v=108
964920 On ch=1 n=d#6 v=0
964920 On ch=1 n=f#5 v=102
965040 On ch=1 n=f#5 v=0
965040 On ch=1 n=c6 v=102
965160 On ch=1 n=c6 v=0
965160 On ch=1 n=d#6 v=102
965280 On ch=1 n=d#6 v=0
965308 On ch=1 n=d6 v=108
965400 On ch=1 n=d6 v=0
965400 On ch=1 n=f5 v=102
965520 On ch=1 n=f5 v=0
965520 On ch=1 n=b5 v=102
965640 On ch=1 n=b5 v=0
965640 On ch=1 n=d6 v=102
965760 On ch=1 n=d6 v=0
965788 On ch=1 n=c6 v=108
965880 On ch=1 n=c6 v=0
965880 On ch=1 n=a5 v=102
966000 On ch=1 n=a5 v=0
966000 On ch=1 n=f#5 v=102
966120 On ch=1 n=f#5 v=0
966120 On ch=1 n=d#5 v=102
966240 On ch=1 n=d#5 v=0
966600 On ch=1 n=g5 v=102
966720 On ch=1 n=g5 v=0
966720 On ch=1 n=c6 v=102
966740 On ch=1 n=c6 v=0
966740 On ch=1 n=d6 v=102
966760 On ch=1 n=d6 v=0
966760 On ch=1 n=d#6 v=108
966840 On ch=1 n=d#6 v=0
966840 On ch=1 n=f#5 v=102
966960 On ch=1 n=f#5 v=0
966960 On ch=1 n=c6 v=102
967080 On ch=1 n=c6 v=0
967080 On ch=1 n=d#6 v=102
967200 On ch=1 n=d#6 v=0
967228 On ch=1 n=d6 v=108
967320 On ch=1 n=d6 v=0
967320 On ch=1 n=f5 v=102
967440 On ch=1 n=f5 v=0
967440 On ch=1 n=b5 v=102
967560 On ch=1 n=b5 v=0
967560 On ch=1 n=d6 v=102
967680 On ch=1 n=d6 v=0
967708 On ch=1 n=c6 v=108
967800 On ch=1 n=c6 v=0
967800 On ch=1 n=a5 v=102
967920 On ch=1 n=a5 v=0
967920 On ch=1 n=f#5 v=102
968040 On ch=1 n=f#5 v=0
968040 On ch=1 n=d#5 v=102
968160 On ch=1 n=d#5 v=0
968520 On ch=1 n=d#5 v=102
968640 On ch=1 n=d#5 v=0
968640 On ch=1 n=g5 v=102
968660 On ch=1 n=g5 v=0
968660 On ch=1 n=g#5 v=102
968680 On ch=1 n=g#5 v=0
968680 On ch=1 n=a#5 v=108
968760 On ch=1 n=a#5 v=0
968760 On ch=1 n=c#5 v=102
968880 On ch=1 n=c#5 v=0
968880 On ch=1 n=g5 v=102
969000 On ch=1 n=g5 v=0
969000 On ch=1 n=a#5 v=102
969120 On ch=1 n=a#5 v=0
969120 On ch=1 n=g#5 v=108
969240 On ch=1 n=g#5 v=0
969240 On ch=1 n=c5 v=102
969360 On ch=1 n=c5 v=0
969360 On ch=1 n=f5 v=102
969480 On ch=1 n=f5 v=0
969480 On ch=1 n=g#5 v=102
969600 On ch=1 n=g#5 v=0
969600 On ch=1 n=g5 v=108
969720 On ch=1 n=g5 v=0
969720 On ch=1 n=e5 v=102
969840 On ch=1 n=e5 v=0
969840 On ch=1 n=c#5 v=102
969960 On ch=1 n=c#5 v=0
969960 On ch=1 n=a#4 v=102
970080 On ch=1 n=a#4 v=0
970440 On ch=1 n=a#4 v=102
970560 On ch=1 n=a#4 v=0
970560 On ch=1 n=c#5 v=102
970580 On ch=1 n=c#5 v=0
970580 On ch=1 n=e5 v=102
970600 On ch=1 n=e5 v=0
970600 On ch=1 n=f5 v=108
970680 On ch=1 n=f5 v=0
970680 On ch=1 n=g#4 v=102
970800 On ch=1 n=g#4 v=0
970800 On ch=1 n=c5 v=102
970920 On ch=1 n=c5 v=0
970920 On ch=1 n=f5 v=102
971040 On ch=1 n=f5 v=0
971040 On ch=1 n=d5 v=108
971160 On ch=1 n=d5 v=0
971160 On ch=1 n=f4 v=102
971280 On ch=1 n=f4 v=0
971280 On ch=1 n=b4 v=102
971400 On ch=1 n=b4 v=0
971400 On ch=1 n=d5 v=102
971520 On ch=1 n=d5 v=0
971520 On ch=1 n=c5 v=108
971616 On ch=1 n=c5 v=0
971616 On ch=1 n=g4 v=102
971704 On ch=1 n=d#4 v=102
971712 On ch=1 n=g4 v=0
971800 On ch=1 n=d#4 v=0
971808 On ch=1 n=c4 v=102
971904 On ch=1 n=c4 v=0
971904 On ch=1 n=g3 v=102
972000 On ch=1 n=g3 v=0
972360 On ch=1 n=g5 v=102
972480 On ch=1 n=g5 v=0
972480 On ch=1 n=c6 v=102
972500 On ch=1 n=c6 v=0
972500 On ch=1 n=d6 v=102
972520 On ch=1 n=d6 v=0
972520 On ch=1 n=d#6 v=108
972600 On ch=1 n=d#6 v=0
972600 On ch=1 n=f#5 v=102
972720 On ch=1 n=f#5 v=0
972720 On ch=1 n=c6 v=102
972840 On ch=1 n=c6 v=0
972840 On ch=1 n=d#6 v=102
972960 On ch=1 n=d#6 v=0
972988 On ch=1 n=d6 v=108
973080 On ch=1 n=d6 v=0
973080 On ch=1 n=f5 v=102
973200 On ch=1 n=f5 v=0
973200 On ch=1 n=b5 v=102
973320 On ch=1 n=b5 v=0
973320 On ch=1 n=d6 v=102
973440 On ch=1 n=d6 v=0
973468 On ch=1 n=c6 v=108
973560 On ch=1 n=c6 v=0
973560 On ch=1 n=a5 v=102
973680 On ch=1 n=a5 v=0
973680 On ch=1 n=f#5 v=102
973800 On ch=1 n=f#5 v=0
973800 On ch=1 n=d#5 v=102
973920 On ch=1 n=d#5 v=0
974280 On ch=1 n=g5 v=102
974400 On ch=1 n=g5 v=0
974400 On ch=1 n=c6 v=102
974420 On ch=1 n=c6 v=0
974420 On ch=1 n=d6 v=102
974440 On ch=1 n=d6 v=0
974440 On ch=1 n=d#6 v=108
974520 On ch=1 n=d#6 v=0
974520 On ch=1 n=f#5 v=102
974640 On ch=1 n=f#5 v=0
974640 On ch=1 n=c6 v=102
974760 On ch=1 n=c6 v=0
974760 On ch=1 n=d#6 v=102
974880 On ch=1 n=d#6 v=0
974908 On ch=1 n=d6 v=108
975000 On ch=1 n=d6 v=0
975000 On ch=1 n=f5 v=102
975120 On ch=1 n=f5 v=0
975120 On ch=1 n=b5 v=102
975240 On ch=1 n=b5 v=0
975240 On ch=1 n=d6 v=102
975360 On ch=1 n=d6 v=0
975388 On ch=1 n=c6 v=108
975480 On ch=1 n=c6 v=0
975480 On ch=1 n=a5 v=102
975600 On ch=1 n=a5 v=0
975600 On ch=1 n=f#5 v=102
975720 On ch=1 n=f#5 v=0
975720 On ch=1 n=d#5 v=102
975840 On ch=1 n=d#5 v=0
976200 On ch=1 n=d#5 v=102
976320 On ch=1 n=d#5 v=0
976320 On ch=1 n=g5 v=102
976340 On ch=1 n=g5 v=0
976340 On ch=1 n=g#5 v=102
976360 On ch=1 n=g#5 v=0
976360 On ch=1 n=a#5 v=108
976440 On ch=1 n=a#5 v=0
976440 On ch=1 n=c#5 v=102
976560 On ch=1 n=c#5 v=0
976560 On ch=1 n=g5 v=102
976680 On ch=1 n=g5 v=0
976680 On ch=1 n=a#5 v=102
976800 On ch=1 n=a#5 v=0
976800 On ch=1 n=g#5 v=108
976920 On ch=1 n=g#5 v=0
976920 On ch=1 n=c5 v=102
977040 On ch=1 n=c5 v=0
977040 On ch=1 n=f5 v=102
977160 On ch=1 n=f5 v=0
977160 On ch=1 n=g#5 v=102
977280 On ch=1 n=g#5 v=0
977280 On ch=1 n=g5 v=108
977400 On ch=1 n=g5 v=0
977400 On ch=1 n=e5 v=102
977520 On ch=1 n=e5 v=0
977520 On ch=1 n=c#5 v=102
977640 On ch=1 n=c#5 v=0
977640 On ch=1 n=a#4 v=102
977760 On ch=1 n=a#4 v=0
978120 On ch=1 n=a#4 v=102
978240 On ch=1 n=a#4 v=0
978240 On ch=1 n=c#5 v=102
978260 On ch=1 n=c#5 v=0
978260 On ch=1 n=e5 v=102
978280 On ch=1 n=e5 v=0
978280 On ch=1 n=f5 v=108
978360 On ch=1 n=f5 v=0
978360 On ch=1 n=g#4 v=102
978480 On ch=1 n=g#4 v=0
978480 On ch=1 n=c5 v=102
978600 On ch=1 n=c5 v=0
978600 On ch=1 n=f5 v=102
978720 On ch=1 n=f5 v=0
978720 On ch=1 n=d5 v=108
978840 On ch=1 n=d5 v=0
978840 On ch=1 n=f4 v=102
978960 On ch=1 n=f4 v=0
978960 On ch=1 n=b4 v=102
979080 On ch=1 n=b4 v=0
979080 On ch=1 n=d5 v=102
979200 On ch=1 n=d5 v=0
979200 On ch=1 n=c5 v=108
979296 On ch=1 n=c5 v=0
979296 On ch=1 n=g4 v=102
979384 On ch=1 n=d#4 v=102
979392 On ch=1 n=g4 v=0
979480 On ch=1 n=d#4 v=0
979488 On ch=1 n=c4 v=102
979584 On ch=1 n=c4 v=0
979584 On ch=1 n=g3 v=102
979680 On ch=1 n=g3 v=0
979920 On ch=1 n=d5 v=102
980040 On ch=1 n=d#5 v=102
980160 On ch=1 n=d#5 v=0
980160 On ch=1 n=d5 v=0
980160 On ch=1 n=d5 v=108
980280 On ch=1 n=a#4 v=102
980400 On ch=1 n=a#4 v=0
980400 On ch=1 n=a4 v=102
980520 On ch=1 n=a4 v=0
980520 On ch=1 n=g4 v=102
980640 On ch=1 n=g4 v=0
980880 On ch=1 n=d5 v=0
980880 On ch=1 n=g5 v=120
980880 On ch=1 n=d5 v=120
981000 On ch=1 n=d5 v=0
981000 On ch=1 n=d#5 v=102
981120 On ch=1 n=d#5 v=0
981120 On ch=1 n=g5 v=0
981120 On ch=1 n=d5 v=120
981120 On ch=1 n=f#5 v=120
981240 On ch=1 n=d5 v=0
981240 On ch=1 n=c5 v=102
981360 On ch=1 n=c5 v=0
981360 On ch=1 n=a#4 v=102
981480 On ch=1 n=a#4 v=0
981480 On ch=1 n=a4 v=102
981600 On ch=1 n=a4 v=0
981840 On ch=1 n=f#5 v=0
981840 On ch=1 n=d5 v=102
981960 On ch=1 n=d#5 v=102
982080 On ch=1 n=d#5 v=0
982080 On ch=1 n=d5 v=0
982080 On ch=1 n=d5 v=108
982200 On ch=1 n=a#4 v=102
982320 On ch=1 n=a#4 v=0
982320 On ch=1 n=a4 v=102
982440 On ch=1 n=a4 v=0
982440 On ch=1 n=g4 v=102
982560 On ch=1 n=g4 v=0
982800 On ch=1 n=d5 v=0
982800 On ch=1 n=g5 v=120
982800 On ch=1 n=d5 v=120
982920 On ch=1 n=d5 v=0
982920 On ch=1 n=d#5 v=102
983040 On ch=1 n=d#5 v=0
983040 On ch=1 n=g5 v=0
983040 On ch=1 n=d5 v=120
983040 On ch=1 n=f#5 v=120
983160 On ch=1 n=d5 v=0
983160 On ch=1 n=c5 v=102
983280 On ch=1 n=c5 v=0
983280 On ch=1 n=a#4 v=102
983400 On ch=1 n=a#4 v=0
983400 On ch=1 n=a4 v=102
983520 On ch=1 n=a4 v=0
983760 On ch=1 n=f#5 v=0
983760 On ch=1 n=d5 v=102
983880 On ch=1 n=d#5 v=102
984000 On ch=1 n=d#5 v=0
984000 On ch=1 n=d5 v=0
984000 On ch=1 n=d5 v=108
984120 On ch=1 n=a#4 v=102
984240 On ch=1 n=a#4 v=0
984240 On ch=1 n=a4 v=102
984360 On ch=1 n=a4 v=0
984360 On ch=1 n=g4 v=102
984480 On ch=1 n=g4 v=0
984480 On ch=1 n=d5 v=0
984480 On ch=1 n=a#5 v=102
984660 On ch=1 n=a#5 v=0
984720 On ch=1 n=d#5 v=102
984840 On ch=1 n=f5 v=102
984960 On ch=1 n=f5 v=0
984960 On ch=1 n=d#5 v=0
984960 On ch=1 n=d#5 v=108
985080 On ch=1 n=a#4 v=102
985200 On ch=1 n=a#4 v=0
985200 On ch=1 n=a4 v=102
985320 On ch=1 n=a4 v=0
985320 On ch=1 n=g4 v=102
985440 On ch=1 n=g4 v=0
985440 On ch=1 n=d#5 v=0
985440 On ch=1 n=d#6 v=102
985620 On ch=1 n=d#6 v=0
985680 On ch=1 n=d#5 v=102
985800 On ch=1 n=f5 v=102
985920 On ch=1 n=f5 v=0
985920 On ch=1 n=d#5 v=0
985920 On ch=1 n=d#5 v=108
986040 On ch=1 n=a4 v=102
986160 On ch=1 n=a4 v=0
986160 On ch=1 n=g4 v=102
986280 On ch=1 n=g4 v=0
986280 On ch=1 n=f4 v=102
986400 On ch=1 n=f4 v=0
986400 On ch=1 n=d#5 v=0
986400 On ch=1 n=a5 v=102
986580 On ch=1 n=a5 v=0
986640 On ch=1 n=d5 v=102
986760 On ch=1 n=d#5 v=102
986880 On ch=1 n=d#5 v=0
986880 On ch=1 n=d5 v=0
986880 On ch=1 n=d5 v=108
987000 On ch=1 n=a4 v=102
987120 On ch=1 n=a4 v=0
987120 On ch=1 n=g4 v=102
987240 On ch=1 n=g4 v=0
987240 On ch=1 n=f4 v=102
987360 On ch=1 n=f4 v=0
987360 On ch=1 n=d5 v=0
987360 On ch=1 n=d6 v=102
987540 On ch=1 n=d6 v=0
987600 On ch=1 n=d5 v=102
987720 On ch=1 n=d#5 v=102
987840 On ch=1 n=d#5 v=0
987840 On ch=1 n=d5 v=0
987840 On ch=1 n=d5 v=108
987960 On ch=1 n=g4 v=102
988080 On ch=1 n=g4 v=0
988080 On ch=1 n=f4 v=102
988200 On ch=1 n=f4 v=0
988200 On ch=1 n=d#4 v=102
988320 On ch=1 n=d#4 v=0
988320 On ch=1 n=d5 v=0
988320 On ch=1 n=g5 v=102
988500 On ch=1 n=g5 v=0
988560 On ch=1 n=c5 v=102
988680 On ch=1 n=d5 v=102
988800 On ch=1 n=d5 v=0
988800 On ch=1 n=c5 v=0
988800 On ch=1 n=c5 v=108
988920 On ch=1 n=g4 v=102
989040 On ch=1 n=g4 v=0
989040 On ch=1 n=f4 v=102
989160 On ch=1 n=f4 v=0
989160 On ch=1 n=d#4 v=102
989280 On ch=1 n=d#4 v=0
989280 On ch=1 n=c5 v=0
989280 On ch=1 n=c6 v=102
989460 On ch=1 n=c6 v=0
989520 On ch=1 n=c5 v=102
989640 On ch=1 n=d5 v=102
989760 On ch=1 n=d5 v=0
989760 On ch=1 n=c5 v=0
989760 On ch=1 n=c5 v=108
989880 On ch=1 n=f#4 v=102
990000 On ch=1 n=f#4 v=0
990000 On ch=1 n=e4 v=102
990120 On ch=1 n=e4 v=0
990120 On ch=1 n=d4 v=102
990240 On ch=1 n=d4 v=0
990240 On ch=1 n=c5 v=0
990240 On ch=1 n=f#5 v=102
990420 On ch=1 n=f#5 v=0
990480 On ch=1 n=c6 v=102
990600 On ch=1 n=d6 v=102
990720 On ch=1 n=d6 v=0
990720 On ch=1 n=c6 v=0
990720 On ch=1 n=c6 v=108
990840 On ch=1 n=f#5 v=102
990960 On ch=1 n=f#5 v=0
990960 On ch=1 n=e5 v=102
991080 On ch=1 n=e5 v=0
991080 On ch=1 n=d5 v=102
991200 On ch=1 n=d5 v=0
991200 On ch=1 n=c6 v=0
991200 On ch=1 n=f#6 v=102
991380 On ch=1 n=f#6 v=0
991440 On ch=1 n=d6 v=102
991560 On ch=1 n=d#6 v=102
991680 On ch=1 n=d#6 v=0
991680 On ch=1 n=d6 v=0
991680 On ch=1 n=d6 v=108
991800 On ch=1 n=a#5 v=102
991920 On ch=1 n=a#5 v=0
991920 On ch=1 n=a5 v=102
992040 On ch=1 n=a5 v=0
992040 On ch=1 n=g5 v=102
992160 On ch=1 n=g5 v=0
992400 On ch=1 n=d6 v=0
992400 On ch=1 n=g6 v=120
992400 On ch=1 n=d6 v=120
992520 On ch=1 n=d6 v=0
992520 On ch=1 n=d#6 v=102
992640 On ch=1 n=d#6 v=0
992640 On ch=1 n=g6 v=0
992640 On ch=1 n=d6 v=120
992640 On ch=1 n=f#6 v=120
992760 On ch=1 n=d6 v=0
992760 On ch=1 n=c6 v=102
992880 On ch=1 n=c6 v=0
992880 On ch=1 n=a#5 v=102
993000 On ch=1 n=a#5 v=0
993000 On ch=1 n=a5 v=102
993120 On ch=1 n=a5 v=0
993360 On ch=1 n=f#6 v=0
993360 On ch=1 n=d6 v=102
993480 On ch=1 n=d#6 v=102
993600 On ch=1 n=d#6 v=0
993600 On ch=1 n=d6 v=0
993600 On ch=1 n=d6 v=108
993720 On ch=1 n=a#5 v=102
993840 On ch=1 n=a#5 v=0
993840 On ch=1 n=a5 v=102
993960 On ch=1 n=a5 v=0
993960 On ch=1 n=g5 v=102
994080 On ch=1 n=g5 v=0
994320 On ch=1 n=d6 v=0
994320 On ch=1 n=g6 v=120
994320 On ch=1 n=d6 v=120
994440 On ch=1 n=d6 v=0
994440 On ch=1 n=d#6 v=102
994560 On ch=1 n=d#6 v=0
994560 On ch=1 n=g6 v=0
994560 On ch=1 n=d6 v=120
994560 On ch=1 n=f#6 v=120
994680 On ch=1 n=d6 v=0
994680 On ch=1 n=c6 v=102
994800 On ch=1 n=c6 v=0
994800 On ch=1 n=a#5 v=102
994920 On ch=1 n=a#5 v=0
994920 On ch=1 n=a5 v=102
995040 On ch=1 n=a5 v=0
995280 On ch=1 n=f#6 v=0
995280 On ch=1 n=d6 v=102
995400 On ch=1 n=d#6 v=102
995520 On ch=1 n=d#6 v=0
995520 On ch=1 n=d6 v=0
995520 On ch=1 n=d6 v=108
995640 On ch=1 n=a#5 v=102
995760 On ch=1 n=a#5 v=0
995760 On ch=1 n=a5 v=102
995880 On ch=1 n=a5 v=0
995880 On ch=1 n=g5 v=102
996000 On ch=1 n=g5 v=0
996000 On ch=1 n=d6 v=0
996000 On ch=1 n=a#6 v=102
996180 On ch=1 n=a#6 v=0
996240 On ch=1 n=d#6 v=102
996360 On ch=1 n=f6 v=102
996480 On ch=1 n=f6 v=0
996480 On ch=1 n=d#6 v=0
996480 On ch=1 n=d#6 v=108
996600 On ch=1 n=a#5 v=102
996720 On ch=1 n=a#5 v=0
996720 On ch=1 n=a5 v=102
996840 On ch=1 n=a5 v=0
996840 On ch=1 n=g5 v=102
996960 On ch=1 n=g5 v=0
996960 On ch=1 n=d#6 v=0
996960 On ch=1 n=d#7 v=102
997140 On ch=1 n=d#7 v=0
997200 On ch=1 n=d#6 v=102
997320 On ch=1 n=f6 v=102
997440 On ch=1 n=f6 v=0
997440 On ch=1 n=d#6 v=0
997440 On ch=1 n=d#6 v=108
997560 On ch=1 n=a5 v=102
997680 On ch=1 n=a5 v=0
997680 On ch=1 n=g5 v=102
997800 On ch=1 n=g5 v=0
997800 On ch=1 n=f5 v=102
997920 On ch=1 n=f5 v=0
997920 On ch=1 n=d#6 v=0
997920 On ch=1 n=a6 v=102
998100 On ch=1 n=a6 v=0
998160 On ch=1 n=d6 v=102
998280 On ch=1 n=d#6 v=102
998400 On ch=1 n=d#6 v=0
998400 On ch=1 n=d6 v=0
998400 On ch=1 n=d6 v=108
998520 On ch=1 n=a5 v=102
998640 On ch=1 n=a5 v=0
998640 On ch=1 n=g5 v=102
998760 On ch=1 n=g5 v=0
998760 On ch=1 n=f5 v=102
998880 On ch=1 n=f5 v=0
998880 On ch=1 n=d6 v=0
998880 On ch=1 n=d7 v=102
999060 On ch=1 n=d7 v=0
999120 On ch=1 n=d6 v=102
999240 On ch=1 n=d#6 v=102
999360 On ch=1 n=d#6 v=0
999360 On ch=1 n=d6 v=0
999360 On ch=1 n=d6 v=108
999480 On ch=1 n=g5 v=102
999600 On ch=1 n=g5 v=0
999600 On ch=1 n=f5 v=102
999720 On ch=1 n=f5 v=0
999720 On ch=1 n=d#5 v=102
999840 On ch=1 n=d#5 v=0
999840 On ch=1 n=d6 v=0
999840 On ch=1 n=g6 v=102
1000020 On ch=1 n=g6 v=0
1000080 On ch=1 n=c6 v=102
1000200 On ch=1 n=d6 v=102
1000320 On ch=1 n=d6 v=0
1000320 On ch=1 n=c6 v=0
1000320 On ch=1 n=c6 v=108
1000440 On ch=1 n=g5 v=102
1000560 On ch=1 n=g5 v=0
1000560 On ch=1 n=f5 v=102
1000680 On ch=1 n=f5 v=0
1000680 On ch=1 n=d#5 v=102
1000800 On ch=1 n=d#5 v=0
1000800 On ch=1 n=c6 v=0
1000800 On ch=1 n=c7 v=102
1000980 On ch=1 n=c7 v=0
1001040 On ch=1 n=c6 v=102
1001160 On ch=1 n=d6 v=102
1001280 On ch=1 n=d6 v=0
1001280 On ch=1 n=c6 v=0
1001280 On ch=1 n=c6 v=108
1001400 On ch=1 n=f#5 v=102
1001520 On ch=1 n=f#5 v=0
1001520 On ch=1 n=e5 v=102
1001640 On ch=1 n=e5 v=0
1001640 On ch=1 n=d5 v=102
1001760 On ch=1 n=d5 v=0
1001760 On ch=1 n=c6 v=0
1001760 On ch=1 n=f#6 v=102
1001940 On ch=1 n=f#6 v=0
1002000 On ch=1 n=c6 v=102
1002120 On ch=1 n=d6 v=102
1002240 On ch=1 n=d6 v=0
1002240 On ch=1 n=c6 v=0
1002240 On ch=1 n=c6 v=108
1002360 On ch=1 n=f#5 v=102
1002480 On ch=1 n=f#5 v=0
1002480 On ch=1 n=e5 v=102
1002600 On ch=1 n=e5 v=0
1002600 On ch=1 n=d5 v=102
1002720 On ch=1 n=d5 v=0
1002720 On ch=1 n=c6 v=0
1002720 On ch=1 n=c7 v=102
1002900 On ch=1 n=c7 v=0
1003080 On ch=1 n=d6 v=114
1003200 On ch=1 n=d6 v=0
1003200 On ch=1 n=g6 v=114
1003220 On ch=1 n=g6 v=0
1003220 On ch=1 n=a6 v=114
1003240 On ch=1 n=a6 v=0
1003240 On ch=1 n=a#6 v=121
1003320 On ch=1 n=a#6 v=0
1003320 On ch=1 n=c#6 v=114
1003440 On ch=1 n=c#6 v=0
1003440 On ch=1 n=g6 v=114
1003560 On ch=1 n=g6 v=0
1003560 On ch=1 n=a#6 v=114
1003680 On ch=1 n=a#6 v=0
1003708 On ch=1 n=a6 v=121
1003800 On ch=1 n=a6 v=0
1003800 On ch=1 n=c6 v=114
1003920 On ch=1 n=c6 v=0
1003920 On ch=1 n=f#6 v=114
1004040 On ch=1 n=f#6 v=0
1004040 On ch=1 n=a6 v=114
1004160 On ch=1 n=a6 v=0
1004188 On ch=1 n=g6 v=121
1004280 On ch=1 n=g6 v=0
1004280 On ch=1 n=e6 v=114
1004400 On ch=1 n=e6 v=0
1004400 On ch=1 n=c#6 v=114
1004520 On ch=1 n=c#6 v=0
1004520 On ch=1 n=a#5 v=114
1004640 On ch=1 n=a#5 v=0
1005000 On ch=1 n=d6 v=114
1005120 On ch=1 n=d6 v=0
1005120 On ch=1 n=g6 v=114
1005140 On ch=1 n=g6 v=0
1005140 On ch=1 n=a6 v=114
1005160 On ch=1 n=a6 v=0
1005160 On ch=1 n=a#6 v=121
1005240 On ch=1 n=a#6 v=0
1005240 On ch=1 n=c#6 v=114
1005360 On ch=1 n=c#6 v=0
1005360 On ch=1 n=g6 v=114
1005480 On ch=1 n=g6 v=0
1005480 On ch=1 n=a#6 v=114
1005600 On ch=1 n=a#6 v=0
1005628 On ch=1 n=a6 v=121
1005720 On ch=1 n=a6 v=0
1005720 On ch=1 n=c6 v=114
1005840 On ch=1 n=c6 v=0
1005840 On ch=1 n=f#6 v=114
1005960 On ch=1 n=f#6 v=0
1005960 On ch=1 n=a6 v=114
1006080 On ch=1 n=a6 v=0
1006108 On ch=1 n=g6 v=121
1006200 On ch=1 n=g6 v=0
1006200 On ch=1 n=e6 v=114
1006320 On ch=1 n=e6 v=0
1006320 On ch=1 n=c#6 v=114
1006440 On ch=1 n=c#6 v=0
1006440 On ch=1 n=a#5 v=114
1006560 On ch=1 n=a#5 v=0
1006920 On ch=1 n=a#5 v=114
1007040 On ch=1 n=a#5 v=0
1007040 On ch=1 n=d6 v=114
1007060 On ch=1 n=d6 v=0
1007060 On ch=1 n=d#6 v=114
1007080 On ch=1 n=d#6 v=0
1007080 On ch=1 n=f6 v=121
1007160 On ch=1 n=f6 v=0
1007160 On ch=1 n=g#5 v=114
1007280 On ch=1 n=g#5 v=0
1007280 On ch=1 n=d6 v=114
1007400 On ch=1 n=d6 v=0
1007400 On ch=1 n=f6 v=114
1007520 On ch=1 n=f6 v=0
1007520 On ch=1 n=d#6 v=121
1007640 On ch=1 n=d#6 v=0
1007640 On ch=1 n=g5 v=114
1007760 On ch=1 n=g5 v=0
1007760 On ch=1 n=c6 v=114
1007880 On ch=1 n=c6 v=0
1007880 On ch=1 n=d#6 v=114
1008000 On ch=1 n=d#6 v=0
1008000 On ch=1 n=d6 v=121
1008120 On ch=1 n=d6 v=0
1008120 On ch=1 n=b5 v=114
1008240 On ch=1 n=b5 v=0
1008240 On ch=1 n=g#5 v=114
1008360 On ch=1 n=g#5 v=0
1008360 On ch=1 n=f5 v=114
1008480 On ch=1 n=f5 v=0
1008840 On ch=1 n=f5 v=114
1008960 On ch=1 n=f5 v=0
1008960 On ch=1 n=g#5 v=114
1008980 On ch=1 n=g#5 v=0
1008980 On ch=1 n=b5 v=114
1009000 On ch=1 n=b5 v=0
1009000 On ch=1 n=c6 v=121
1009080 On ch=1 n=c6 v=0
1009080 On ch=1 n=d#5 v=114
1009200 On ch=1 n=d#5 v=0
1009200 On ch=1 n=g5 v=114
1009320 On ch=1 n=g5 v=0
1009320 On ch=1 n=c6 v=114
1009440 On ch=1 n=c6 v=0
1009440 On ch=1 n=a5 v=121
1009560 On ch=1 n=a5 v=0
1009560 On ch=1 n=c5 v=114
1009680 On ch=1 n=c5 v=0
1009680 On ch=1 n=f#5 v=114
1009800 On ch=1 n=f#5 v=0
1009800 On ch=1 n=a5 v=114
1009920 On ch=1 n=a5 v=0
1009920 On ch=1 n=g5 v=121
1010016 On ch=1 n=g5 v=0
1010016 On ch=1 n=d5 v=114
1010104 On ch=1 n=a#4 v=114
1010112 On ch=1 n=d5 v=0
1010200 On ch=1 n=a#4 v=0
1010208 On ch=1 n=g4 v=114
1010304 On ch=1 n=g4 v=0
1010304 On ch=1 n=d4 v=114
1010400 On ch=1 n=d4 v=0
1010400 On ch=1 n=g3 v=114
1010520 On ch=1 n=g3 v=0
1010640 On ch=1 n=g4 v=102
1010760 On ch=1 n=g4 v=0
1010760 On ch=1 n=f#4 v=102
1010880 On ch=1 n=f#4 v=0
1010880 On ch=1 n=g4 v=102
1011000 On ch=1 n=g4 v=0
1011000 On ch=1 n=g#4 v=102
1011120 On ch=1 n=g#4 v=0
1011120 On ch=1 n=f4 v=102
1011240 On ch=1 n=f4 v=0
1011240 On ch=1 n=g4 v=102
1011360 On ch=1 n=g4 v=0
1011360 On ch=1 n=d#4 v=102
1011480 On ch=1 n=d#4 v=0
1011480 On ch=1 n=f4 v=102
1011600 On ch=1 n=f4 v=0
1011600 On ch=1 n=d4 v=102
1011720 On ch=1 n=d4 v=0
1011720 On ch=1 n=d#4 v=102
1011840 On ch=1 n=d#4 v=0
1012200 On ch=1 n=g4 v=102
1012320 On ch=1 n=g4 v=0
1012320 On ch=1 n=c5 v=102
1012440 On ch=1 n=c5 v=0
1012440 On ch=1 n=d5 v=102
1012560 On ch=1 n=d5 v=0
1012560 On ch=1 n=d#5 v=102
1012680 On ch=1 n=d#5 v=0
1012680 On ch=1 n=b4 v=102
1012800 On ch=1 n=b4 v=0
1013280 On ch=1 n=g#4 v=108
1013400 On ch=1 n=g#4 v=0
1013400 On ch=1 n=g4 v=102
1013520 On ch=1 n=g4 v=0
1013520 On ch=1 n=g#4 v=102
1013640 On ch=1 n=g#4 v=0
1013640 On ch=1 n=e4 v=102
1013760 On ch=1 n=e4 v=0
1014480 On ch=1 n=c5 v=102
1014600 On ch=1 n=c5 v=0
1014600 On ch=1 n=b4 v=102
1014720 On ch=1 n=b4 v=0
1014720 On ch=1 n=c5 v=102
1014840 On ch=1 n=c5 v=0
1014840 On ch=1 n=d5 v=102
1014960 On ch=1 n=d5 v=0
1014960 On ch=1 n=c5 v=102
1015080 On ch=1 n=c5 v=0
1015080 On ch=1 n=d5 v=102
1015200 On ch=1 n=d5 v=0
1015200 On ch=1 n=a#4 v=102
1015320 On ch=1 n=a#4 v=0
1015320 On ch=1 n=c5 v=102
1015440 On ch=1 n=c5 v=0
1015440 On ch=1 n=a4 v=102
1015560 On ch=1 n=a4 v=0
1015560 On ch=1 n=a#4 v=102
1015680 On ch=1 n=a#4 v=0
1015680 On ch=1 n=g4 v=102
1015800 On ch=1 n=g4 v=0
1015800 On ch=1 n=a4 v=102
1015920 On ch=1 n=a4 v=0
1015920 On ch=1 n=a#4 v=102
1016040 On ch=1 n=a#4 v=0
1016040 On ch=1 n=d5 v=102
1016160 On ch=1 n=d5 v=0
1016160 On ch=1 n=g5 v=102
1016280 On ch=1 n=g5 v=0
1016280 On ch=1 n=a5 v=102
1016400 On ch=1 n=a5 v=0
1016400 On ch=1 n=a#5 v=102
1016520 On ch=1 n=a#5 v=0
1016520 On ch=1 n=f#5 v=102
1016640 On ch=1 n=f#5 v=0
1016640 On ch=1 n=g5 v=111
1016760 On ch=1 n=g5 v=0
1016760 On ch=1 n=f#5 v=105
1016880 On ch=1 n=f#5 v=0
1016880 On ch=1 n=g5 v=105
1017000 On ch=1 n=g5 v=0
1017000 On ch=1 n=d5 v=105
1017120 On ch=1 n=d5 v=0
1017120 On ch=1 n=d#5 v=114
1017240 On ch=1 n=d#5 v=0
1017240 On ch=1 n=d5 v=108
1017360 On ch=1 n=d5 v=0
1017360 On ch=1 n=d#5 v=108
1017480 On ch=1 n=d#5 v=0
1017480 On ch=1 n=b4 v=108
1017600 On ch=1 n=b4 v=0
1017600 On ch=1 n=c5 v=118
1017720 On ch=1 n=c5 v=0
1017720 On ch=1 n=b4 v=111
1017840 On ch=1 n=b4 v=0
1017840 On ch=1 n=c5 v=111
1017960 On ch=1 n=c5 v=0
1017960 On ch=1 n=g4 v=111
1018080 On ch=1 n=g4 v=0
1018080 On ch=1 n=b4 v=112
1018200 On ch=1 n=b4 v=0
1018200 On ch=1 n=g4 v=113
1018320 On ch=1 n=g4 v=0
1018320 On ch=1 n=g5 v=114
1018440 On ch=1 n=g5 v=0
1018440 On ch=1 n=f#5 v=114
1018560 On ch=1 n=f#5 v=0
1018560 On ch=1 n=g5 v=114
1018680 On ch=1 n=g5 v=0
1018680 On ch=1 n=g#5 v=114
1018800 On ch=1 n=g#5 v=0
1018800 On ch=1 n=f5 v=114
1018920 On ch=1 n=f5 v=0
1018920 On ch=1 n=g5 v=114
1019040 On ch=1 n=g5 v=0
1019040 On ch=1 n=d#5 v=114
1019160 On ch=1 n=d#5 v=0
1019160 On ch=1 n=f5 v=114
1019280 On ch=1 n=f5 v=0
1019280 On ch=1 n=d5 v=114
1019400 On ch=1 n=d5 v=0
1019400 On ch=1 n=d#5 v=114
1019520 On ch=1 n=d#5 v=0
1019520 On ch=1 n=c5 v=127
1019640 On ch=1 n=c5 v=0
1019640 On ch=1 n=d5 v=119
1019760 On ch=1 n=d5 v=0
1019760 On ch=1 n=d#5 v=119
1019880 On ch=1 n=d#5 v=0
1019880 On ch=1 n=g5 v=119
1020000 On ch=1 n=g5 v=0
1020000 On ch=1 n=c6 v=122
1020120 On ch=1 n=c6 v=0
1020120 On ch=1 n=d6 v=122
1020240 On ch=1 n=d6 v=0
1020240 On ch=1 n=d#6 v=127
1020360 On ch=1 n=d#6 v=0
1020360 On ch=1 n=f#5 v=122
1020480 On ch=1 n=f#5 v=0
1020480 On ch=1 n=d6 v=127
1020600 On ch=1 n=d6 v=0
1020600 On ch=1 n=g5 v=127
1020720 On ch=1 n=g5 v=0
1020720 On ch=1 n=a#5 v=127
1020840 On ch=1 n=a#5 v=0
1020840 On ch=1 n=d6 v=127
1020960 On ch=1 n=d6 v=0
1020960 On ch=1 n=c6 v=127
1021080 On ch=1 n=c6 v=0
1021080 On ch=1 n=d#5 v=127
1021200 On ch=1 n=d#5 v=0
1021200 On ch=1 n=a5 v=127
1021320 On ch=1 n=a5 v=0
1021320 On ch=1 n=c6 v=127
1021440 On ch=1 n=c6 v=0
1021440 On ch=1 n=f#5 v=127
1021560 On ch=1 n=f#5 v=0
1021560 On ch=1 n=c5 v=127
1021680 On ch=1 n=c5 v=0
1021680 On ch=1 n=d5 v=127
1021800 On ch=1 n=d5 v=0
1021800 On ch=1 n=f5 v=127
1021920 On ch=1 n=f5 v=0
1021920 On ch=1 n=b4 v=127
1021920 On ch=1 n=g5 v=127
1022160 On ch=1 n=g5 v=0
1022160 On ch=1 n=b4 v=0
1022160 On ch=1 n=g4 v=102
1022280 On ch=1 n=g4 v=0
1022280 On ch=1 n=f#4 v=102
1022400 On ch=1 n=f#4 v=0
1022400 On ch=1 n=g4 v=102
1022520 On ch=1 n=g4 v=0
1022520 On ch=1 n=g#4 v=102
1022640 On ch=1 n=g#4 v=0
1022640 On ch=1 n=f4 v=102
1022760 On ch=1 n=f4 v=0
1022760 On ch=1 n=g4 v=102
1022880 On ch=1 n=g4 v=0
1022880 On ch=1 n=d#4 v=102
1023000 On ch=1 n=d#4 v=0
1023000 On ch=1 n=f4 v=102
1023120 On ch=1 n=f4 v=0
1023120 On ch=1 n=d4 v=102
1023240 On ch=1 n=d4 v=0
1023240 On ch=1 n=d#4 v=102
1023360 On ch=1 n=d#4 v=0
1023720 On ch=1 n=g4 v=102
1023840 On ch=1 n=g4 v=0
1023840 On ch=1 n=c5 v=102
1023960 On ch=1 n=c5 v=0
1023960 On ch=1 n=d5 v=102
1024080 On ch=1 n=d5 v=0
1024080 On ch=1 n=d#5 v=102
1024200 On ch=1 n=d#5 v=0
1024200 On ch=1 n=b4 v=102
1024320 On ch=1 n=b4 v=0
1024800 On ch=1 n=g#4 v=108
1024920 On ch=1 n=g#4 v=0
1024920 On ch=1 n=g4 v=102
1025040 On ch=1 n=g4 v=0
1025040 On ch=1 n=g#4 v=102
1025160 On ch=1 n=g#4 v=0
1025160 On ch=1 n=e4 v=102
1025280 On ch=1 n=e4 v=0
1026000 On ch=1 n=c5 v=102
1026120 On ch=1 n=c5 v=0
1026120 On ch=1 n=b4 v=102
1026240 On ch=1 n=b4 v=0
1026240 On ch=1 n=c5 v=102
1026360 On ch=1 n=c5 v=0
1026360 On ch=1 n=d5 v=102
1026480 On ch=1 n=d5 v=0
1026480 On ch=1 n=c5 v=102
1026600 On ch=1 n=c5 v=0
1026600 On ch=1 n=d5 v=102
1026720 On ch=1 n=d5 v=0
1026720 On ch=1 n=a#4 v=102
1026840 On ch=1 n=a#4 v=0
1026840 On ch=1 n=c5 v=102
1026960 On ch=1 n=c5 v=0
1026960 On ch=1 n=a4 v=102
1027080 On ch=1 n=a4 v=0
1027080 On ch=1 n=a#4 v=102
1027200 On ch=1 n=a#4 v=0
1027200 On ch=1 n=g4 v=102
1027320 On ch=1 n=g4 v=0
1027320 On ch=1 n=a4 v=102
1027440 On ch=1 n=a4 v=0
1027440 On ch=1 n=a#4 v=102
1027560 On ch=1 n=a#4 v=0
1027560 On ch=1 n=d5 v=102
1027680 On ch=1 n=d5 v=0
1027680 On ch=1 n=g5 v=102
1027800 On ch=1 n=g5 v=0
1027800 On ch=1 n=a5 v=102
1027920 On ch=1 n=a5 v=0
1027920 On ch=1 n=a#5 v=102
1028040 On ch=1 n=a#5 v=0
1028040 On ch=1 n=f#5 v=102
1028160 On ch=1 n=f#5 v=0
1028160 On ch=1 n=g5 v=111
1028280 On ch=1 n=g5 v=0
1028280 On ch=1 n=f#5 v=105
1028400 On ch=1 n=f#5 v=0
1028400 On ch=1 n=g5 v=105
1028520 On ch=1 n=g5 v=0
1028520 On ch=1 n=d5 v=105
1028640 On ch=1 n=d5 v=0
1028640 On ch=1 n=d#5 v=114
1028760 On ch=1 n=d#5 v=0
1028760 On ch=1 n=d5 v=108
1028880 On ch=1 n=d5 v=0
1028880 On ch=1 n=d#5 v=108
1029000 On ch=1 n=d#5 v=0
1029000 On ch=1 n=b4 v=108
1029120 On ch=1 n=b4 v=0
1029120 On ch=1 n=c5 v=118
1029240 On ch=1 n=c5 v=0
1029240 On ch=1 n=b4 v=111
1029360 On ch=1 n=b4 v=0
1029360 On ch=1 n=c5 v=111
1029480 On ch=1 n=c5 v=0
1029480 On ch=1 n=g4 v=111
1029600 On ch=1 n=g4 v=0
1029600 On ch=1 n=b4 v=112
1029720 On ch=1 n=b4 v=0
1029720 On ch=1 n=g4 v=113
1029840 On ch=1 n=g4 v=0
1029840 On ch=1 n=g5 v=114
1029960 On ch=1 n=g5 v=0
1029960 On ch=1 n=f#5 v=114
1030080 On ch=1 n=f#5 v=0
1030080 On ch=1 n=g5 v=114
1030200 On ch=1 n=g5 v=0
1030200 On ch=1 n=g#5 v=114
1030320 On ch=1 n=g#5 v=0
1030320 On ch=1 n=f5 v=114
1030440 On ch=1 n=f5 v=0
1030440 On ch=1 n=g5 v=114
1030560 On ch=1 n=g5 v=0
1030560 On ch=1 n=d#5 v=114
1030680 On ch=1 n=d#5 v=0
1030680 On ch=1 n=f5 v=114
1030800 On ch=1 n=f5 v=0
1030800 On ch=1 n=d5 v=114
1030920 On ch=1 n=d5 v=0
1030920 On ch=1 n=d#5 v=114
1031040 On ch=1 n=d#5 v=0
1031040 On ch=1 n=c5 v=127
1031160 On ch=1 n=c5 v=0
1031160 On ch=1 n=d5 v=119
1031280 On ch=1 n=d5 v=0
1031280 On ch=1 n=d#5 v=119
1031400 On ch=1 n=d#5 v=0
1031400 On ch=1 n=g5 v=119
1031520 On ch=1 n=g5 v=0
1031520 On ch=1 n=c6 v=122
1031640 On ch=1 n=c6 v=0
1031640 On ch=1 n=d6 v=122
1031760 On ch=1 n=d6 v=0
1031760 On ch=1 n=d#6 v=127
1031880 On ch=1 n=d#6 v=0
1031880 On ch=1 n=f#5 v=122
1032000 On ch=1 n=f#5 v=0
1032000 On ch=1 n=d6 v=127
1032120 On ch=1 n=d6 v=0
1032120 On ch=1 n=g5 v=127
1032240 On ch=1 n=g5 v=0
1032240 On ch=1 n=a#5 v=127
1032360 On ch=1 n=a#5 v=0
1032360 On ch=1 n=d6 v=127
1032480 On ch=1 n=d6 v=0
1032480 On ch=1 n=c6 v=127
1032600 On ch=1 n=c6 v=0
1032600 On ch=1 n=d#5 v=127
1032720 On ch=1 n=d#5 v=0
1032720 On ch=1 n=a5 v=127
1032840 On ch=1 n=a5 v=0
1032840 On ch=1 n=c6 v=127
1032960 On ch=1 n=c6 v=0
1032960 On ch=1 n=f#5 v=127
1033080 On ch=1 n=f#5 v=0
1033080 On ch=1 n=c5 v=127
1033200 On ch=1 n=c5 v=0
1033200 On ch=1 n=d5 v=127
1033320 On ch=1 n=d5 v=0
1033320 On ch=1 n=f5 v=127
1033440 On ch=1 n=f5 v=0
1033440 On ch=1 n=b4 v=127
1033440 On ch=1 n=g5 v=127
1033680 On ch=1 n=g5 v=0
1033680 On ch=1 n=b4 v=0
1033680 On ch=1 n=c6 v=102
1033800 On ch=1 n=c6 v=0
1033800 On ch=1 n=b5 v=102
1033920 On ch=1 n=b5 v=0
1033920 On ch=1 n=c6 v=102
1034040 On ch=1 n=c6 v=0
1034040 On ch=1 n=c#6 v=102
1034160 On ch=1 n=c#6 v=0
1034160 On ch=1 n=a#5 v=102
1034280 On ch=1 n=a#5 v=0
1034280 On ch=1 n=c6 v=102
1034400 On ch=1 n=c6 v=0
1034400 On ch=1 n=g#5 v=102
1034520 On ch=1 n=g#5 v=0
1034520 On ch=1 n=a#5 v=102
1034640 On ch=1 n=a#5 v=0
1034640 On ch=1 n=g5 v=102
1034760 On ch=1 n=g5 v=0
1034760 On ch=1 n=g#5 v=102
1034880 On ch=1 n=g#5 v=0
1034880 On ch=1 n=f5 v=106
1035000 On ch=1 n=f5 v=0
1035000 On ch=1 n=g5 v=106
1035120 On ch=1 n=g5 v=0
1035120 On ch=1 n=g#5 v=110
1035240 On ch=1 n=g#5 v=0
1035240 On ch=1 n=c6 v=110
1035360 On ch=1 n=c6 v=0
1035360 On ch=1 n=f6 v=115
1035480 On ch=1 n=f6 v=0
1035480 On ch=1 n=g6 v=115
1035600 On ch=1 n=g6 v=0
1035600 On ch=1 n=g#6 v=120
1035720 On ch=1 n=g#6 v=0
1035720 On ch=1 n=d#6 v=120
1035840 On ch=1 n=d#6 v=0
1035840 On ch=1 n=d6 v=102
1035960 On ch=1 n=d6 v=0
1035960 On ch=1 n=d#6 v=102
1036080 On ch=1 n=d#6 v=0
1036080 On ch=1 n=c6 v=102
1036200 On ch=1 n=c6 v=0
1036200 On ch=1 n=d6 v=102
1036320 On ch=1 n=d6 v=0
1036320 On ch=1 n=a#5 v=102
1036440 On ch=1 n=a#5 v=0
1036440 On ch=1 n=c6 v=102
1036560 On ch=1 n=c6 v=0
1036560 On ch=1 n=a5 v=102
1036680 On ch=1 n=a5 v=0
1036680 On ch=1 n=a#5 v=102
1036800 On ch=1 n=a#5 v=0
1036800 On ch=1 n=g5 v=106
1036920 On ch=1 n=g5 v=0
1036920 On ch=1 n=a5 v=106
1037040 On ch=1 n=a5 v=0
1037040 On ch=1 n=a#5 v=110
1037160 On ch=1 n=a#5 v=0
1037160 On ch=1 n=d6 v=110
1037280 On ch=1 n=d6 v=0
1037280 On ch=1 n=g6 v=115
1037400 On ch=1 n=g6 v=0
1037400 On ch=1 n=a6 v=115
1037520 On ch=1 n=a6 v=0
1037520 On ch=1 n=a#6 v=120
1037640 On ch=1 n=a#6 v=0
1037640 On ch=1 n=f#6 v=120
1037760 On ch=1 n=f#6 v=0
1037760 On ch=1 n=g6 v=102
1037880 On ch=1 n=g6 v=0
1037880 On ch=1 n=g#6 v=102
1038000 On ch=1 n=g#6 v=0
1038000 On ch=1 n=f6 v=102
1038120 On ch=1 n=f6 v=0
1038120 On ch=1 n=g6 v=102
1038240 On ch=1 n=g6 v=0
1038240 On ch=1 n=d#6 v=102
1038360 On ch=1 n=d#6 v=0
1038360 On ch=1 n=f6 v=102
1038480 On ch=1 n=f6 v=0
1038480 On ch=1 n=d6 v=102
1038600 On ch=1 n=d6 v=0
1038600 On ch=1 n=d#6 v=102
1038720 On ch=1 n=d#6 v=0
1038720 On ch=1 n=c6 v=106
1038840 On ch=1 n=c6 v=0
1038840 On ch=1 n=d6 v=106
1038960 On ch=1 n=d6 v=0
1038960 On ch=1 n=d#6 v=110
1039080 On ch=1 n=d#6 v=0
1039080 On ch=1 n=g6 v=110
1039200 On ch=1 n=g6 v=0
1039200 On ch=1 n=c7 v=115
1039320 On ch=1 n=c7 v=0
1039320 On ch=1 n=d7 v=115
1039440 On ch=1 n=d7 v=0
1039440 On ch=1 n=d#7 v=120
1039560 On ch=1 n=d#7 v=0
1039560 On ch=1 n=b6 v=120
1039680 On ch=1 n=b6 v=0
1039680 On ch=1 n=c7 v=108
1039800 On ch=1 n=c7 v=0
1039800 On ch=1 n=d7 v=102
1039920 On ch=1 n=d7 v=0
1039920 On ch=1 n=d#7 v=102
1040040 On ch=1 n=d#7 v=0
1040040 On ch=1 n=b6 v=102
1040160 On ch=1 n=b6 v=0
1040160 On ch=1 n=c7 v=111
1040280 On ch=1 n=c7 v=0
1040280 On ch=1 n=d7 v=105
1040400 On ch=1 n=d7 v=0
1040400 On ch=1 n=d#7 v=105
1040520 On ch=1 n=d#7 v=0
1040520 On ch=1 n=f#6 v=105
1040640 On ch=1 n=f#6 v=0
1040640 On ch=1 n=g6 v=108
1040760 On ch=1 n=g6 v=0
1040760 On ch=1 n=g#6 v=108
1040880 On ch=1 n=g#6 v=0
1040880 On ch=1 n=g6 v=108
1041000 On ch=1 n=g6 v=0
1041000 On ch=1 n=g#6 v=108
1041120 On ch=1 n=g#6 v=0
1041120 On ch=1 n=g6 v=111
1041240 On ch=1 n=g6 v=0
1041240 On ch=1 n=g#6 v=111
1041360 On ch=1 n=g#6 v=0
1041360 On ch=1 n=g6 v=111
1041480 On ch=1 n=g6 v=0
1041480 On ch=1 n=g#6 v=111
1041600 On ch=1 n=g#6 v=0
1041600 On ch=1 n=g6 v=114
1041720 On ch=1 n=g6 v=0
1041720 On ch=1 n=g#6 v=114
1041840 On ch=1 n=g#6 v=0
1041840 On ch=1 n=f6 v=114
1041960 On ch=1 n=f6 v=0
1041960 On ch=1 n=g6 v=114
1042080 On ch=1 n=g6 v=0
1042080 On ch=1 n=d#6 v=114
1042200 On ch=1 n=d#6 v=0
1042200 On ch=1 n=f6 v=114
1042320 On ch=1 n=f6 v=0
1042320 On ch=1 n=d6 v=114
1042440 On ch=1 n=d6 v=0
1042440 On ch=1 n=d#6 v=114
1042560 On ch=1 n=d#6 v=0
1042560 On ch=1 n=c6 v=118
1042680 On ch=1 n=c6 v=0
1042680 On ch=1 n=d6 v=118
1042800 On ch=1 n=d6 v=0
1042800 On ch=1 n=d#6 v=122
1042920 On ch=1 n=d#6 v=0
1042920 On ch=1 n=g6 v=122
1043040 On ch=1 n=g6 v=0
1043040 On ch=1 n=c7 v=125
1043160 On ch=1 n=c7 v=0
1043160 On ch=1 n=d7 v=125
1043280 On ch=1 n=d7 v=0
1043280 On ch=1 n=d#7 v=127
1043280 On ch=1 n=g6 v=127
1043400 On ch=1 n=g6 v=0
1043400 On ch=1 n=d#7 v=0
1043400 On ch=1 n=f#6 v=127
1043520 On ch=1 n=f#6 v=0
1043520 On ch=1 n=g6 v=114
1043640 On ch=1 n=g6 v=0
1043640 On ch=1 n=g#6 v=114
1043760 On ch=1 n=g#6 v=0
1043760 On ch=1 n=f6 v=114
1043880 On ch=1 n=f6 v=0
1043880 On ch=1 n=g6 v=114
1044000 On ch=1 n=g6 v=0
1044000 On ch=1 n=d#6 v=114
1044120 On ch=1 n=d#6 v=0
1044120 On ch=1 n=f6 v=114
1044240 On ch=1 n=f6 v=0
1044240 On ch=1 n=d6 v=114
1044360 On ch=1 n=d6 v=0
1044360 On ch=1 n=d#6 v=114
1044480 On ch=1 n=d#6 v=0
1044480 On ch=1 n=c6 v=118
1044600 On ch=1 n=c6 v=0
1044600 On ch=1 n=d6 v=118
1044720 On ch=1 n=d6 v=0
1044720 On ch=1 n=d#6 v=122
1044840 On ch=1 n=d#6 v=0
1044840 On ch=1 n=g6 v=122
1044960 On ch=1 n=g6 v=0
1044960 On ch=1 n=c7 v=125
1045080 On ch=1 n=c7 v=0
1045080 On ch=1 n=d7 v=125
1045200 On ch=1 n=d7 v=0
1045200 On ch=1 n=d#7 v=127
1045200 On ch=1 n=g6 v=127
1045320 On ch=1 n=g6 v=0
1045320 On ch=1 n=d#7 v=0
1045320 On ch=1 n=f#6 v=127
1045440 On ch=1 n=f#6 v=0
1045440 On ch=1 n=g6 v=120
1045560 On ch=1 n=g6 v=0
1045560 On ch=1 n=g#6 v=114
1045680 On ch=1 n=g#6 v=0
1045680 On ch=1 n=f6 v=114
1045800 On ch=1 n=f6 v=0
1045800 On ch=1 n=f7 v=114
1045920 On ch=1 n=f7 v=0
1045920 On ch=1 n=f6 v=120
1046040 On ch=1 n=f6 v=0
1046040 On ch=1 n=g6 v=114
1046160 On ch=1 n=g6 v=0
1046160 On ch=1 n=d#6 v=114
1046280 On ch=1 n=d#6 v=0
1046280 On ch=1 n=d#7 v=114
1046400 On ch=1 n=d#7 v=0
1046400 On ch=1 n=d#6 v=120
1046520 On ch=1 n=d#6 v=0
1046520 On ch=1 n=f6 v=114
1046640 On ch=1 n=f6 v=0
1046640 On ch=1 n=d6 v=114
1046760 On ch=1 n=d6 v=0
1046760 On ch=1 n=d7 v=114
1046880 On ch=1 n=d7 v=0
1046880 On ch=1 n=d6 v=120
1047000 On ch=1 n=d6 v=0
1047000 On ch=1 n=d#6 v=114
1047120 On ch=1 n=d#6 v=0
1047120 On ch=1 n=c6 v=114
1047240 On ch=1 n=c6 v=0
1047240 On ch=1 n=c7 v=114
1047360 On ch=1 n=c7 v=0
1047360 On ch=1 n=c6 v=120
1047480 On ch=1 n=c6 v=0
1047480 On ch=1 n=d6 v=114
1047600 On ch=1 n=d6 v=0
1047600 On ch=1 n=a#5 v=114
1047720 On ch=1 n=a#5 v=0
1047720 On ch=1 n=a#6 v=114
1047840 On ch=1 n=a#6 v=0
1047840 On ch=1 n=a#5 v=120
1047960 On ch=1 n=a#5 v=0
1047960 On ch=1 n=c6 v=114
1048080 On ch=1 n=c6 v=0
1048080 On ch=1 n=g#5 v=114
1048200 On ch=1 n=g#5 v=0
1048200 On ch=1 n=g#6 v=114
1048320 On ch=1 n=g#6 v=0
1048320 On ch=1 n=g#5 v=126
1048440 On ch=1 n=g#5 v=0
1048440 On ch=1 n=a#5 v=120
1048560 On ch=1 n=a#5 v=0
1048560 On ch=1 n=g5 v=120
1048680 On ch=1 n=g5 v=0
1048680 On ch=1 n=g6 v=120
1048800 On ch=1 n=g6 v=0
1048800 On ch=1 n=g5 v=127
1048920 On ch=1 n=g5 v=0
1048920 On ch=1 n=g6 v=127
1049040 On ch=1 n=g6 v=0
1049040 On ch=1 n=g5 v=114
1049160 On ch=1 n=g#5 v=114
1049280 On ch=1 n=g#5 v=0
1049280 On ch=1 n=g5 v=0
1049280 On ch=1 n=g5 v=121
1049400 On ch=1 n=d#5 v=114
1049520 On ch=1 n=d#5 v=0
1049520 On ch=1 n=d5 v=114
1049640 On ch=1 n=d5 v=0
1049640 On ch=1 n=c5 v=114
1049760 On ch=1 n=c5 v=0
1050000 On ch=1 n=g5 v=0
1050000 On ch=1 n=c6 v=127
1050000 On ch=1 n=g5 v=127
1050120 On ch=1 n=g5 v=0
1050120 On ch=1 n=g#5 v=114
1050240 On ch=1 n=g#5 v=0
1050240 On ch=1 n=c6 v=0
1050240 On ch=1 n=g5 v=127
1050240 On ch=1 n=b5 v=127
1050360 On ch=1 n=g5 v=0
1050360 On ch=1 n=f5 v=114
1050480 On ch=1 n=f5 v=0
1050480 On ch=1 n=d#5 v=114
1050600 On ch=1 n=d#5 v=0
1050600 On ch=1 n=d5 v=114
1050720 On ch=1 n=d5 v=0
1050960 On ch=1 n=b5 v=0
1050960 On ch=1 n=g5 v=114
1051080 On ch=1 n=g#5 v=114
1051200 On ch=1 n=g#5 v=0
1051200 On ch=1 n=g5 v=0
1051200 On ch=1 n=g5 v=121
1051320 On ch=1 n=d#5 v=114
1051440 On ch=1 n=d#5 v=0
1051440 On ch=1 n=d5 v=114
1051560 On ch=1 n=d5 v=0
1051560 On ch=1 n=c5 v=114
1051680 On ch=1 n=c5 v=0
1051920 On ch=1 n=g5 v=0
1051920 On ch=1 n=c6 v=127
1051920 On ch=1 n=g5 v=127
1052040 On ch=1 n=g5 v=0
1052040 On ch=1 n=g#5 v=114
1052160 On ch=1 n=g#5 v=0
1052160 On ch=1 n=c6 v=0
1052160 On ch=1 n=g5 v=127
1052160 On ch=1 n=b5 v=127
1052280 On ch=1 n=g5 v=0
1052280 On ch=1 n=f5 v=114
1052400 On ch=1 n=f5 v=0
1052400 On ch=1 n=d#5 v=114
1052520 On ch=1 n=d#5 v=0
1052520 On ch=1 n=d5 v=114
1052640 On ch=1 n=d5 v=0
1052880 On ch=1 n=b5 v=0
1052880 On ch=1 n=g5 v=114
1053000 On ch=1 n=g#5 v=114
1053120 On ch=1 n=g#5 v=0
1053120 On ch=1 n=g5 v=0
1053120 On ch=1 n=g5 v=121
1053240 On ch=1 n=d#5 v=114
1053360 On ch=1 n=d#5 v=0
1053360 On ch=1 n=d5 v=114
1053480 On ch=1 n=d5 v=0
1053480 On ch=1 n=c5 v=114
1053600 On ch=1 n=c5 v=0
1053600 On ch=1 n=g5 v=0
1053600 On ch=1 n=d#6 v=114
1053780 On ch=1 n=d#6 v=0
1053840 On ch=1 n=g#5 v=114
1053960 On ch=1 n=a#5 v=114
1054080 On ch=1 n=a#5 v=0
1054080 On ch=1 n=g#5 v=0
1054080 On ch=1 n=g#5 v=121
1054200 On ch=1 n=d#5 v=114
1054320 On ch=1 n=d#5 v=0
1054320 On ch=1 n=d5 v=114
1054440 On ch=1 n=d5 v=0
1054440 On ch=1 n=c5 v=114
1054560 On ch=1 n=c5 v=0
1054560 On ch=1 n=g#5 v=0
1054560 On ch=1 n=g#6 v=114
1054740 On ch=1 n=g#6 v=0
1054800 On ch=1 n=g#5 v=114
1054920 On ch=1 n=a#5 v=114
1055040 On ch=1 n=a#5 v=0
1055040 On ch=1 n=g#5 v=0
1055040 On ch=1 n=g#5 v=121
1055160 On ch=1 n=d5 v=114
1055280 On ch=1 n=d5 v=0
1055280 On ch=1 n=c5 v=114
1055400 On ch=1 n=c5 v=0
1055400 On ch=1 n=a#4 v=114
1055520 On ch=1 n=a#4 v=0
1055520 On ch=1 n=g#5 v=0
1055520 On ch=1 n=d6 v=114
1055700 On ch=1 n=d6 v=0
1055760 On ch=1 n=g5 v=114
1055880 On ch=1 n=g#5 v=114
1056000 On ch=1 n=g#5 v=0
1056000 On ch=1 n=g5 v=0
1056000 On ch=1 n=g5 v=121
1056120 On ch=1 n=d5 v=114
1056240 On ch=1 n=d5 v=0
1056240 On ch=1 n=c5 v=114
1056360 On ch=1 n=c5 v=0
1056360 On ch=1 n=a#4 v=114
1056480 On ch=1 n=a#4 v=0
1056480 On ch=1 n=g5 v=0
1056480 On ch=1 n=g6 v=114
1056660 On ch=1 n=g6 v=0
1056720 On ch=1 n=g5 v=114
1056840 On ch=1 n=g#5 v=114
1056960 On ch=1 n=g#5 v=0
1056960 On ch=1 n=g5 v=0
1056960 On ch=1 n=g5 v=121
1057080 On ch=1 n=c5 v=114
1057200 On ch=1 n=c5 v=0
1057200 On ch=1 n=a#4 v=114
1057320 On ch=1 n=a#4 v=0
1057320 On ch=1 n=g#4 v=114
1057440 On ch=1 n=g#4 v=0
1057440 On ch=1 n=g5 v=0
1057440 On ch=1 n=c6 v=114
1057620 On ch=1 n=c6 v=0
1057680 On ch=1 n=f5 v=114
1057800 On ch=1 n=g5 v=114
1057920 On ch=1 n=g5 v=0
1057920 On ch=1 n=f5 v=0
1057920 On ch=1 n=f5 v=121
1058040 On ch=1 n=c5 v=114
1058160 On ch=1 n=c5 v=0
1058160 On ch=1 n=d5 v=114
1058280 On ch=1 n=d5 v=0
1058280 On ch=1 n=g#4 v=114
1058400 On ch=1 n=g#4 v=0
1058400 On ch=1 n=f5 v=0
1058400 On ch=1 n=f6 v=114
1058580 On ch=1 n=f6 v=0
1058640 On ch=1 n=f5 v=114
1058760 On ch=1 n=g5 v=114
1058880 On ch=1 n=g5 v=0
1058880 On ch=1 n=f5 v=0
1058880 On ch=1 n=f5 v=121
1059000 On ch=1 n=b4 v=114
1059120 On ch=1 n=b4 v=0
1059120 On ch=1 n=a4 v=114
1059240 On ch=1 n=a4 v=0
1059240 On ch=1 n=g4 v=114
1059360 On ch=1 n=g4 v=0
1059360 On ch=1 n=f5 v=0
1059360 On ch=1 n=b5 v=114
1059540 On ch=1 n=b5 v=0
1059600 On ch=1 n=f5 v=114
1059720 On ch=1 n=g5 v=114
1059840 On ch=1 n=g5 v=0
1059840 On ch=1 n=f5 v=0
1059840 On ch=1 n=f5 v=121
1059960 On ch=1 n=b4 v=114
1060080 On ch=1 n=b4 v=0
1060080 On ch=1 n=d5 v=114
1060200 On ch=1 n=d5 v=0
1060200 On ch=1 n=g4 v=114
1060320 On ch=1 n=g4 v=0
1060320 On ch=1 n=f5 v=0
1060320 On ch=1 n=f6 v=114
1060500 On ch=1 n=f6 v=0
1060680 On ch=1 n=g5 v=102
1060800 On ch=1 n=g5 v=0
1060800 On ch=1 n=c6 v=102
1060820 On ch=1 n=c6 v=0
1060820 On ch=1 n=d6 v=102
1060840 On ch=1 n=d6 v=0
1060840 On ch=1 n=d#6 v=108
1060920 On ch=1 n=d#6 v=0
1060920 On ch=1 n=f#5 v=102
1061040 On ch=1 n=f#5 v=0
1061040 On ch=1 n=c6 v=102
1061160 On ch=1 n=c6 v=0
1061160 On ch=1 n=d#6 v=102
1061280 On ch=1 n=d#6 v=0
1061308 On ch=1 n=d6 v=108
1061400 On ch=1 n=d6 v=0
1061400 On ch=1 n=f5 v=102
1061520 On ch=1 n=f5 v=0
1061520 On ch=1 n=b5 v=102
1061640 On ch=1 n=b5 v=0
1061640 On ch=1 n=d6 v=102
1061760 On ch=1 n=d6 v=0
1061788 On ch=1 n=c6 v=108
1061880 On ch=1 n=c6 v=0
1061880 On ch=1 n=a5 v=102
1062000 On ch=1 n=a5 v=0
1062000 On ch=1 n=f#5 v=102
1062120 On ch=1 n=f#5 v=0
1062120 On ch=1 n=d#5 v=102
1062240 On ch=1 n=d#5 v=0
1062600 On ch=1 n=g5 v=102
1062720 On ch=1 n=g5 v=0
1062720 On ch=1 n=c6 v=102
1062740 On ch=1 n=c6 v=0
1062740 On ch=1 n=d6 v=102
1062760 On ch=1 n=d6 v=0
1062760 On ch=1 n=d#6 v=108
1062840 On ch=1 n=d#6 v=0
1062840 On ch=1 n=f#5 v=102
1062960 On ch=1 n=f#5 v=0
1062960 On ch=1 n=c6 v=102
1063080 On ch=1 n=c6 v=0
1063080 On ch=1 n=d#6 v=102
1063200 On ch=1 n=d#6 v=0
1063228 On ch=1 n=d6 v=108
1063320 On ch=1 n=d6 v=0
1063320 On ch=1 n=f5 v=102
1063440 On ch=1 n=f5 v=0
1063440 On ch=1 n=b5 v=102
1063560 On ch=1 n=b5 v=0
1063560 On ch=1 n=d6 v=102
1063680 On ch=1 n=d6 v=0
1063708 On ch=1 n=c6 v=108
1063800 On ch=1 n=c6 v=0
1063800 On ch=1 n=a5 v=102
1063920 On ch=1 n=a5 v=0
1063920 On ch=1 n=f#5 v=102
1064040 On ch=1 n=f#5 v=0
1064040 On ch=1 n=d#5 v=102
1064160 On ch=1 n=d#5 v=0
1064520 On ch=1 n=d#5 v=102
1064640 On ch=1 n=d#5 v=0
1064640 On ch=1 n=g5 v=102
1064660 On ch=1 n=g5 v=0
1064660 On ch=1 n=g#5 v=102
1064680 On ch=1 n=g#5 v=0
1064680 On ch=1 n=a#5 v=108
1064760 On ch=1 n=a#5 v=0
1064760 On ch=1 n=c#5 v=102
1064880 On ch=1 n=c#5 v=0
1064880 On ch=1 n=g5 v=102
1065000 On ch=1 n=g5 v=0
1065000 On ch=1 n=a#5 v=102
1065120 On ch=1 n=a#5 v=0
1065120 On ch=1 n=g#5 v=108
1065240 On ch=1 n=g#5 v=0
1065240 On ch=1 n=c5 v=102
1065360 On ch=1 n=c5 v=0
1065360 On ch=1 n=f5 v=102
1065480 On ch=1 n=f5 v=0
1065480 On ch=1 n=g#5 v=102
1065600 On ch=1 n=g#5 v=0
1065600 On ch=1 n=g5 v=108
1065720 On ch=1 n=g5 v=0
1065720 On ch=1 n=e5 v=102
1065840 On ch=1 n=e5 v=0
1065840 On ch=1 n=c#5 v=102
1065960 On ch=1 n=c#5 v=0
1065960 On ch=1 n=a#4 v=102
1066080 On ch=1 n=a#4 v=0
1066440 On ch=1 n=a#4 v=102
1066560 On ch=1 n=a#4 v=0
1066560 On ch=1 n=c#5 v=102
1066580 On ch=1 n=c#5 v=0
1066580 On ch=1 n=e5 v=102
1066600 On ch=1 n=e5 v=0
1066600 On ch=1 n=f5 v=108
1066680 On ch=1 n=f5 v=0
1066680 On ch=1 n=g#4 v=102
1066800 On ch=1 n=g#4 v=0
1066800 On ch=1 n=c5 v=102
1066920 On ch=1 n=c5 v=0
1066920 On ch=1 n=f5 v=102
1067040 On ch=1 n=f5 v=0
1067040 On ch=1 n=d5 v=108
1067160 On ch=1 n=d5 v=0
1067160 On ch=1 n=f4 v=102
1067280 On ch=1 n=f4 v=0
1067280 On ch=1 n=b4 v=102
1067400 On ch=1 n=b4 v=0
1067400 On ch=1 n=d5 v=102
1067520 On ch=1 n=d5 v=0
1067520 On ch=1 n=c5 v=108
1067616 On ch=1 n=c5 v=0
1067616 On ch=1 n=g4 v=102
1067704 On ch=1 n=d#4 v=102
1067712 On ch=1 n=g4 v=0
1067800 On ch=1 n=d#4 v=0
1067808 On ch=1 n=c4 v=102
1067904 On ch=1 n=c4 v=0
1067904 On ch=1 n=g3 v=102
1068000 On ch=1 n=g3 v=0
1068240 On ch=1 n=a#4 v=65
1068240 On ch=1 n=d#5 v=65
1068240 On ch=1 n=g5 v=65
1068480 On ch=1 n=g5 v=0
1068480 On ch=1 n=d#5 v=0
1068480 On ch=1 n=a#4 v=0
1068480 On ch=1 n=a#4 v=65
1068480 On ch=1 n=f5 v=65
1068840 On ch=1 n=f5 v=0
1068840 On ch=1 n=a#4 v=0
1068960 On ch=1 n=a4 v=65
1068960 On ch=1 n=d#5 v=65
1068960 On ch=1 n=a5 v=65
1069320 On ch=1 n=a5 v=0
1069320 On ch=1 n=d#5 v=0
1069320 On ch=1 n=a4 v=0
1069440 On ch=1 n=a#4 v=65
1069440 On ch=1 n=d5 v=65
1069440 On ch=1 n=a#5 v=65
1069800 On ch=1 n=a#5 v=0
1069800 On ch=1 n=d5 v=0
1069800 On ch=1 n=a#4 v=0
1070160 On ch=1 n=a#4 v=65
1070160 On ch=1 n=d#5 v=65
1070160 On ch=1 n=g5 v=65
1070400 On ch=1 n=g5 v=0
1070400 On ch=1 n=d#5 v=0
1070400 On ch=1 n=a#4 v=0
1070400 On ch=1 n=a#4 v=65
1070400 On ch=1 n=f5 v=65
1070760 On ch=1 n=f5 v=0
1070760 On ch=1 n=a#4 v=0
1070880 On ch=1 n=a4 v=65
1070880 On ch=1 n=d#5 v=65
1070880 On ch=1 n=a5 v=65
1071240 On ch=1 n=a5 v=0
1071240 On ch=1 n=d#5 v=0
1071240 On ch=1 n=a4 v=0
1071360 On ch=1 n=a#4 v=65
1071360 On ch=1 n=d5 v=65
1071360 On ch=1 n=a#5 v=65
1071720 On ch=1 n=a#5 v=0
1071720 On ch=1 n=d5 v=0
1071720 On ch=1 n=a#4 v=0
1072080 On ch=1 n=f5 v=65
1072080 On ch=1 n=d5 v=65
1072080 On ch=1 n=a#4 v=65
1072320 On ch=1 n=a#4 v=0
1072320 On ch=1 n=d5 v=0
1072320 On ch=1 n=f5 v=0
1072320 On ch=1 n=g5 v=65
1072320 On ch=1 n=d#5 v=65
1072320 On ch=1 n=a#4 v=65
1072680 On ch=1 n=a#4 v=0
1072680 On ch=1 n=d#5 v=0
1072680 On ch=1 n=g5 v=0
1072800 On ch=1 n=g4 v=65
1072800 On ch=1 n=a#4 v=65
1072800 On ch=1 n=d#5 v=65
1073160 On ch=1 n=d#5 v=0
1073160 On ch=1 n=a#4 v=0
1073160 On ch=1 n=g4 v=0
1073280 On ch=1 n=f4 v=65
1073280 On ch=1 n=a#4 v=65
1073280 On ch=1 n=f5 v=65
1073760 On ch=1 n=f5 v=0
1073760 On ch=1 n=a#4 v=0
1073760 On ch=1 n=f4 v=0
1074000 On ch=1 n=f4 v=65
1074000 On ch=1 n=a#4 v=65
1074000 On ch=1 n=f5 v=65
1074240 On ch=1 n=f5 v=0
1074240 On ch=1 n=a#4 v=0
1074240 On ch=1 n=f4 v=0
1074240 On ch=1 n=g5 v=65
1074240 On ch=1 n=d#5 v=65
1074240 On ch=1 n=a#4 v=65
1074240 On ch=1 n=g4 v=65
1074600 On ch=1 n=g4 v=0
1074600 On ch=1 n=a#4 v=0
1074600 On ch=1 n=d#5 v=0
1074600 On ch=1 n=g5 v=0
1074720 On ch=1 n=g4 v=65
1074720 On ch=1 n=a#4 v=65
1074720 On ch=1 n=d#5 v=65
1075080 On ch=1 n=d#5 v=0
1075080 On ch=1 n=a#4 v=0
1075080 On ch=1 n=g4 v=0
1075200 On ch=1 n=f4 v=65
1075200 On ch=1 n=a#4 v=65
1075200 On ch=1 n=f5 v=65
1075680 On ch=1 n=f5 v=0
1075680 On ch=1 n=a#4 v=0
1075680 On ch=1 n=f4 v=0
1075920 On ch=1 n=f4 v=65
1075920 On ch=1 n=a#4 v=65
1075920 On ch=1 n=d5 v=65
1076160 On ch=1 n=d5 v=0
1076160 On ch=1 n=a#4 v=0
1076160 On ch=1 n=f4 v=0
1076160 On ch=1 n=g4 v=65
1076160 On ch=1 n=a#4 v=65
1076160 On ch=1 n=d#5 v=65
1076520 On ch=1 n=d#5 v=0
1076520 On ch=1 n=a#4 v=0
1076520 On ch=1 n=g4 v=0
1076640 On ch=1 n=d#5 v=65
1076640 On ch=1 n=c5 v=65
1076640 On ch=1 n=f4 v=65
1077000 On ch=1 n=f4 v=0
1077000 On ch=1 n=c5 v=0
1077000 On ch=1 n=d#5 v=0
1077120 On ch=1 n=d5 v=65
1077120 On ch=1 n=c5 v=65
1077120 On ch=1 n=f4 v=65
1077600 On ch=1 n=f4 v=0
1077600 On ch=1 n=c5 v=0
1077600 On ch=1 n=d5 v=0
1077840 On ch=1 n=d5 v=65
1077840 On ch=1 n=a#4 v=65
1077840 On ch=1 n=f4 v=65
1078080 On ch=1 n=f4 v=0
1078080 On ch=1 n=a#4 v=0
1078080 On ch=1 n=d5 v=0
1078080 On ch=1 n=g4 v=62
1078080 On ch=1 n=a#4 v=62
1078080 On ch=1 n=c5 v=62
1078440 On ch=1 n=c5 v=0
1078440 On ch=1 n=a#4 v=0
1078440 On ch=1 n=g4 v=0
1078560 On ch=1 n=c5 v=59
1078560 On ch=1 n=f4 v=59
1078920 On ch=1 n=f4 v=0
1078920 On ch=1 n=c5 v=0
1079040 On ch=1 n=a#4 v=56
1079520 On ch=1 n=a#4 v=0
1079760 On ch=1 n=d#5 v=53
1079760 On ch=1 n=g#5 v=53
1079760 On ch=1 n=c6 v=53
1080000 On ch=1 n=c6 v=0
1080000 On ch=1 n=g#5 v=0
1080000 On ch=1 n=d#5 v=0
1080000 On ch=1 n=a#5 v=53
1080000 On ch=1 n=d#5 v=53
1080360 On ch=1 n=d#5 v=0
1080360 On ch=1 n=a#5 v=0
1080480 On ch=1 n=d6 v=53
1080480 On ch=1 n=g#5 v=53
1080480 On ch=1 n=d5 v=53
1080840 On ch=1 n=d5 v=0
1080840 On ch=1 n=g#5 v=0
1080840 On ch=1 n=d6 v=0
1080960 On ch=1 n=d#5 v=53
1080960 On ch=1 n=g5 v=53
1080960 On ch=1 n=d#6 v=53
1081320 On ch=1 n=d#6 v=0
1081320 On ch=1 n=g5 v=0
1081320 On ch=1 n=d#5 v=0
1081680 On ch=1 n=d#5 v=53
1081680 On ch=1 n=c6 v=53
1081920 On ch=1 n=c6 v=0
1081920 On ch=1 n=d#5 v=0
1081920 On ch=1 n=a#5 v=53
1081920 On ch=1 n=d#5 v=53
1082280 On ch=1 n=d#5 v=0
1082280 On ch=1 n=a#5 v=0
1082400 On ch=1 n=d5 v=53
1082400 On ch=1 n=g#5 v=53
1082400 On ch=1 n=d6 v=53
1082760 On ch=1 n=d6 v=0
1082760 On ch=1 n=g#5 v=0
1082760 On ch=1 n=d5 v=0
1082880 On ch=1 n=d#5 v=53
1082880 On ch=1 n=g5 v=53
1082880 On ch=1 n=d#6 v=53
1083360 On ch=1 n=d#6 v=0
1083360 On ch=1 n=g5 v=0
1083360 On ch=1 n=d#5 v=0
1083600 On ch=1 n=d#5 v=53
1083600 On ch=1 n=g5 v=53
1083600 On ch=1 n=a#5 v=53
1083840 On ch=1 n=a#5 v=0
1083840 On ch=1 n=g5 v=0
1083840 On ch=1 n=d#5 v=0
1083840 On ch=1 n=d#5 v=56
1083840 On ch=1 n=g5 v=56
1083840 On ch=1 n=d#6 v=56
1084320 On ch=1 n=d#6 v=0
1084320 On ch=1 n=g5 v=0
1084320 On ch=1 n=d#5 v=0
1084320 On ch=1 n=d5 v=59
1084320 On ch=1 n=f#5 v=59
1084320 On ch=1 n=d6 v=59
1084800 On ch=1 n=d6 v=0
1084800 On ch=1 n=f#5 v=0
1084800 On ch=1 n=d5 v=0
1084800 On ch=1 n=d5 v=62
1084800 On ch=1 n=g5 v=62
1084800 On ch=1 n=a#5 v=62
1085280 On ch=1 n=a#5 v=0
1085280 On ch=1 n=g5 v=0
1085280 On ch=1 n=d5 v=0
1085520 On ch=1 n=c#5 v=65
1085520 On ch=1 n=a#5 v=65
1085760 On ch=1 n=a#5 v=0
1085760 On ch=1 n=c#5 v=0
1085760 On ch=1 n=c5 v=65
1085760 On ch=1 n=c6 v=65
1086240 On ch=1 n=c6 v=0
1086240 On ch=1 n=c5 v=0
1086240 On ch=1 n=f5 v=65
1086240 On ch=1 n=a#5 v=65
1086720 On ch=1 n=a#5 v=0
1086720 On ch=1 n=f5 v=0
1086720 On ch=1 n=a#4 v=65
1086720 On ch=1 n=e5 v=65
1086720 On ch=1 n=g5 v=65
1087200 On ch=1 n=g5 v=0
1087200 On ch=1 n=e5 v=0
1087200 On ch=1 n=a#4 v=0
1087440 On ch=1 n=a#4 v=65
1087440 On ch=1 n=e5 v=65
1087440 On ch=1 n=g5 v=65
1087680 On ch=1 n=g5 v=0
1087680 On ch=1 n=e5 v=0
1087680 On ch=1 n=a#4 v=0
1087680 On ch=1 n=c5 v=65
1087680 On ch=1 n=f5 v=65
1087680 On ch=1 n=g#5 v=65
1088160 On ch=1 n=g#5 v=0
1088160 On ch=1 n=f5 v=0
1088160 On ch=1 n=c5 v=0
1088160 On ch=1 n=g#4 v=65
1088160 On ch=1 n=d5 v=65
1088160 On ch=1 n=f5 v=65
1088400 On ch=1 n=g#4 v=0
1088400 On ch=1 n=a4 v=65
1088640 On ch=1 n=a4 v=0
1088640 On ch=1 n=f5 v=0
1088640 On ch=1 n=g5 v=65
1088640 On ch=1 n=a#4 v=65
1089120 On ch=1 n=a#4 v=0
1089120 On ch=1 n=g5 v=0
1089120 On ch=1 n=d5 v=0
1089360 On ch=1 n=a#4 v=63
1089360 On ch=1 n=e5 v=63
1089360 On ch=1 n=g5 v=63
1089600 On ch=1 n=g5 v=0
1089600 On ch=1 n=e5 v=0
1089600 On ch=1 n=a#4 v=0
1089600 On ch=1 n=c5 v=61
1089600 On ch=1 n=f5 v=61
1089600 On ch=1 n=g#5 v=61
1090080 On ch=1 n=g#5 v=0
1090080 On ch=1 n=f5 v=0
1090080 On ch=1 n=c5 v=0
1090080 On ch=1 n=g#4 v=59
1090080 On ch=1 n=d5 v=59
1090080 On ch=1 n=f5 v=59
1090560 On ch=1 n=f5 v=0
1090560 On ch=1 n=d5 v=0
1090560 On ch=1 n=g#4 v=0
1090560 On ch=1 n=g4 v=57
1090560 On ch=1 n=d#5 v=57
1091040 On ch=1 n=d#5 v=0
1091040 On ch=1 n=g4 v=0
1091280 On ch=1 n=g4 v=55
1091280 On ch=1 n=d#5 v=55
1091520 On ch=1 n=g4 v=0
1091520 On ch=1 n=c5 v=53
1092000 On ch=1 n=c5 v=0
1092000 On ch=1 n=b4 v=51
1092480 On ch=1 n=b4 v=0
1092480 On ch=1 n=a#4 v=49
1092960 On ch=1 n=a#4 v=0
1092960 On ch=1 n=d#5 v=0
1093200 On ch=1 n=d#5 v=47
1093200 On ch=1 n=d#4 v=47
1093440 On ch=1 n=g#4 v=45
1094400 On ch=1 n=g#4 v=0
1094400 On ch=1 n=g4 v=45
1095360 On ch=1 n=g4 v=0
1095360 On ch=1 n=d#4 v=0
1095360 On ch=1 n=d#5 v=0
1096440 On ch=1 n=d5 v=53
1096560 On ch=1 n=d5 v=0
1096560 On ch=1 n=c5 v=53
1096560 On ch=1 n=f#5 v=53
1096740 On ch=1 n=f#5 v=0
1096740 On ch=1 n=c5 v=0
1096800 On ch=1 n=a#4 v=53
1096800 On ch=1 n=g5 v=53
1096980 On ch=1 n=g5 v=0
1096980 On ch=1 n=a#4 v=0
1097160 On ch=1 n=f#5 v=53
1097280 On ch=1 n=f#5 v=0
1097280 On ch=1 n=d5 v=53
1097280 On ch=1 n=a5 v=53
1097460 On ch=1 n=a5 v=0
1097460 On ch=1 n=d5 v=0
1097520 On ch=1 n=g5 v=53
1097520 On ch=1 n=a#5 v=53
1097700 On ch=1 n=a#5 v=0
1097700 On ch=1 n=g5 v=0
1097880 On ch=1 n=a5 v=53
1098000 On ch=1 n=a5 v=0
1098000 On ch=1 n=g5 v=60
1098000 On ch=1 n=c6 v=60
1098180 On ch=1 n=c6 v=0
1098180 On ch=1 n=g5 v=0
1098240 On ch=1 n=a#5 v=66
1098240 On ch=1 n=d6 v=66
1098420 On ch=1 n=d6 v=0
1098420 On ch=1 n=a#5 v=0
1098600 On ch=1 n=d#6 v=72
1098720 On ch=1 n=d#6 v=0
1098720 On ch=1 n=c6 v=78
1098720 On ch=1 n=g6 v=78
1098900 On ch=1 n=g6 v=0
1098900 On ch=1 n=c6 v=0
1098960 On ch=1 n=a#5 v=65
1098960 On ch=1 n=d6 v=65
1099140 On ch=1 n=d6 v=0
1099140 On ch=1 n=a#5 v=0
1099320 On ch=1 n=g5 v=53
1099440 On ch=1 n=g5 v=0
1099440 On ch=1 n=d5 v=53
1099440 On ch=1 n=a#5 v=53
1099620 On ch=1 n=a#5 v=0
1099620 On ch=1 n=d5 v=0
1099680 On ch=1 n=a5 v=53
1099860 On ch=1 n=a5 v=0
1100040 On ch=1 n=a5 v=53
1100160 On ch=1 n=a5 v=0
1100160 On ch=1 n=d#5 v=53
1100160 On ch=1 n=c6 v=53
1100340 On ch=1 n=c6 v=0
1100340 On ch=1 n=d#5 v=0
1100400 On ch=1 n=d5 v=53
1100400 On ch=1 n=a#5 v=53
1100580 On ch=1 n=a#5 v=0
1100580 On ch=1 n=d5 v=0
1100760 On ch=1 n=f#5 v=53
1100880 On ch=1 n=f#5 v=0
1100880 On ch=1 n=a5 v=53
1100880 On ch=1 n=c5 v=53
1101060 On ch=1 n=c5 v=0
1101060 On ch=1 n=a5 v=0
1101120 On ch=1 n=a#4 v=53
1101120 On ch=1 n=g5 v=53
1101300 On ch=1 n=g5 v=0
1101300 On ch=1 n=a#4 v=0
1101480 On ch=1 n=c5 v=53
1101600 On ch=1 n=c5 v=0
1101600 On ch=1 n=d#5 v=53
1101600 On ch=1 n=a4 v=53
1101780 On ch=1 n=a4 v=0
1101780 On ch=1 n=d#5 v=0
1101840 On ch=1 n=d5 v=53
1101840 On ch=1 n=a#4 v=53
1102020 On ch=1 n=a#4 v=0
1102020 On ch=1 n=d5 v=0
1102200 On ch=1 n=d5 v=53
1102320 On ch=1 n=d5 v=0
1102320 On ch=1 n=f#5 v=53
1102320 On ch=1 n=c5 v=53
1102500 On ch=1 n=c5 v=0
1102500 On ch=1 n=f#5 v=0
1102560 On ch=1 n=a#4 v=53
1102560 On ch=1 n=g5 v=53
1102740 On ch=1 n=g5 v=0
1102740 On ch=1 n=a#4 v=0
1102920 On ch=1 n=f#5 v=53
1103040 On ch=1 n=f#5 v=0
1103040 On ch=1 n=d5 v=53
1103040 On ch=1 n=a5 v=53
1103220 On ch=1 n=a5 v=0
1103220 On ch=1 n=d5 v=0
1103280 On ch=1 n=g5 v=53
1103280 On ch=1 n=a#5 v=53
1103460 On ch=1 n=a#5 v=0
1103460 On ch=1 n=g5 v=0
1103640 On ch=1 n=a5 v=53
1103760 On ch=1 n=a5 v=0
1103760 On ch=1 n=g5 v=60
1103760 On ch=1 n=c6 v=60
1103940 On ch=1 n=c6 v=0
1103940 On ch=1 n=g5 v=0
1104000 On ch=1 n=a#5 v=66
1104000 On ch=1 n=d6 v=66
1104180 On ch=1 n=d6 v=0
1104180 On ch=1 n=a#5 v=0
1104360 On ch=1 n=d#6 v=72
1104480 On ch=1 n=d#6 v=0
1104480 On ch=1 n=c6 v=78
1104480 On ch=1 n=g6 v=78
1104660 On ch=1 n=g6 v=0
1104660 On ch=1 n=c6 v=0
1104720 On ch=1 n=a#5 v=65
1104720 On ch=1 n=d6 v=65
1104900 On ch=1 n=d6 v=0
1104900 On ch=1 n=a#5 v=0
1105080 On ch=1 n=g5 v=53
1105200 On ch=1 n=g5 v=0
1105200 On ch=1 n=d5 v=53
1105200 On ch=1 n=a#5 v=53
1105380 On ch=1 n=a#5 v=0
1105380 On ch=1 n=d5 v=0
1105440 On ch=1 n=a5 v=53
1105620 On ch=1 n=a5 v=0
1105800 On ch=1 n=a5 v=53
1105920 On ch=1 n=a5 v=0
1105920 On ch=1 n=d#5 v=53
1105920 On ch=1 n=c6 v=53
1106100 On ch=1 n=c6 v=0
1106100 On ch=1 n=d#5 v=0
1106160 On ch=1 n=d5 v=53
1106160 On ch=1 n=a#5 v=53
1106340 On ch=1 n=a#5 v=0
1106340 On ch=1 n=d5 v=0
1106520 On ch=1 n=f#5 v=53
1106640 On ch=1 n=f#5 v=0
1106640 On ch=1 n=a5 v=53
1106640 On ch=1 n=c5 v=53
1106820 On ch=1 n=c5 v=0
1106820 On ch=1 n=a5 v=0
1106880 On ch=1 n=a#4 v=53
1106880 On ch=1 n=g5 v=53
1107060 On ch=1 n=g5 v=0
1107060 On ch=1 n=a#4 v=0
1107240 On ch=1 n=a#4 v=53
1107360 On ch=1 n=a#4 v=0
1107360 On ch=1 n=d5 v=53
1107540 On ch=1 n=d5 v=0
1107600 On ch=1 n=g4 v=53
1107780 On ch=1 n=g4 v=0
1107960 On ch=1 n=a#4 v=65
1108080 On ch=1 n=a#4 v=0
1108080 On ch=1 n=d5 v=65
1108080 On ch=1 n=g4 v=65
1108260 On ch=1 n=g4 v=0
1108260 On ch=1 n=d5 v=0
1108320 On ch=1 n=f#4 v=69
1108320 On ch=1 n=d5 v=69
1108500 On ch=1 n=d5 v=0
1108500 On ch=1 n=f#4 v=0
1108680 On ch=1 n=a#4 v=69
1108800 On ch=1 n=a#4 v=0
1108800 On ch=1 n=g4 v=69
1108800 On ch=1 n=e5 v=69
1108980 On ch=1 n=e5 v=0
1108980 On ch=1 n=g4 v=0
1109040 On ch=1 n=a4 v=73
1109040 On ch=1 n=f#5 v=73
1109220 On ch=1 n=a4 v=0
1109280 On ch=1 n=f#5 v=0
1109400 On ch=1 n=d5 v=73
1109520 On ch=1 n=d5 v=0
1109520 On ch=1 n=a#4 v=73
1109520 On ch=1 n=g5 v=73
1109700 On ch=1 n=g5 v=0
1109700 On ch=1 n=a#4 v=0
1109760 On ch=1 n=c5 v=77
1109760 On ch=1 n=a5 v=77
1109940 On ch=1 n=a5 v=0
1109940 On ch=1 n=c5 v=0
1110120 On ch=1 n=f5 v=77
1110240 On ch=1 n=f5 v=0
1110240 On ch=1 n=d5 v=77
1110240 On ch=1 n=b5 v=77
1110420 On ch=1 n=b5 v=0
1110420 On ch=1 n=d5 v=0
1110480 On ch=1 n=d#5 v=81
1110480 On ch=1 n=c6 v=81
1110660 On ch=1 n=d#5 v=0
1110720 On ch=1 n=c6 v=0
1110840 On ch=1 n=g#5 v=81
1110960 On ch=1 n=g#5 v=0
1110960 On ch=1 n=f5 v=81
1110960 On ch=1 n=d6 v=81
1111140 On ch=1 n=d6 v=0
1111140 On ch=1 n=f5 v=0
1111200 On ch=1 n=d#5 v=85
1111200 On ch=1 n=c6 v=85
1111380 On ch=1 n=c6 v=0
1111380 On ch=1 n=d#5 v=0
1111560 On ch=1 n=g5 v=93
1111680 On ch=1 n=g5 v=0
1111680 On ch=1 n=d5 v=85
1111680 On ch=1 n=b5 v=85
1111860 On ch=1 n=b5 v=0
1111860 On ch=1 n=d5 v=0
1111920 On ch=1 n=d#5 v=85
1111920 On ch=1 n=c6 v=85
1112100 On ch=1 n=d#5 v=0
1112160 On ch=1 n=c6 v=0
1112280 On ch=1 n=g#5 v=93
1112400 On ch=1 n=g#5 v=0
1112400 On ch=1 n=f5 v=81
1112400 On ch=1 n=d6 v=81
1112580 On ch=1 n=d6 v=0
1112580 On ch=1 n=f5 v=0
1112640 On ch=1 n=d#5 v=77
1112640 On ch=1 n=c6 v=77
1112820 On ch=1 n=c6 v=0
1112820 On ch=1 n=d#5 v=0
1113000 On ch=1 n=g5 v=73
1113120 On ch=1 n=g5 v=0
1113120 On ch=1 n=d5 v=69
1113120 On ch=1 n=b5 v=69
1113300 On ch=1 n=b5 v=0
1113300 On ch=1 n=d5 v=0
1113360 On ch=1 n=d#5 v=65
1113360 On ch=1 n=c6 v=65
1113540 On ch=1 n=d#5 v=0
1113600 On ch=1 n=c6 v=0
1113720 On ch=1 n=d5 v=90
1113840 On ch=1 n=d5 v=0
1113840 On ch=1 n=f5 v=90
1113840 On ch=1 n=a#4 v=90
1114020 On ch=1 n=a#4 v=0
1114020 On ch=1 n=f5 v=0
1114080 On ch=1 n=f5 v=90
1114080 On ch=1 n=a4 v=90
1114260 On ch=1 n=a4 v=0
1114260 On ch=1 n=f5 v=0
1114440 On ch=1 n=d#5 v=90
1114560 On ch=1 n=d#5 v=0
1114560 On ch=1 n=g5 v=90
1114560 On ch=1 n=a#4 v=90
1114740 On ch=1 n=a#4 v=0
1114740 On ch=1 n=g5 v=0
1114800 On ch=1 n=a5 v=90
1114800 On ch=1 n=c5 v=90
1114980 On ch=1 n=c5 v=0
1115040 On ch=1 n=a5 v=0
1115160 On ch=1 n=f5 v=90
1115280 On ch=1 n=f5 v=0
1115280 On ch=1 n=a#5 v=92
1115280 On ch=1 n=d5 v=92
1115460 On ch=1 n=d5 v=0
1115460 On ch=1 n=a#5 v=0
1115520 On ch=1 n=d#5 v=94
1115520 On ch=1 n=c6 v=94
1115700 On ch=1 n=c6 v=0
1115700 On ch=1 n=d#5 v=0
1115880 On ch=1 n=g#5 v=96
1116000 On ch=1 n=g#5 v=0
1116000 On ch=1 n=f5 v=98
1116000 On ch=1 n=d6 v=98
1116180 On ch=1 n=d6 v=0
1116180 On ch=1 n=f5 v=0
1116240 On ch=1 n=g5 v=100
1116240 On ch=1 n=d#6 v=100
1116420 On ch=1 n=d#6 v=0
1116420 On ch=1 n=g5 v=0
1116600 On ch=1 n=b5 v=102
1116720 On ch=1 n=b5 v=0
1116720 On ch=1 n=g#5 v=102
1116720 On ch=1 n=f6 v=102
1116900 On ch=1 n=f6 v=0
1116900 On ch=1 n=g#5 v=0
1116960 On ch=1 n=g5 v=102
1116960 On ch=1 n=d#6 v=102
1116960 On ch=1 n=c6 v=102
1117140 On ch=1 n=c6 v=0
1117140 On ch=1 n=d#6 v=0
1117140 On ch=1 n=g5 v=0
1117320 On ch=1 n=g#5 v=102
1117440 On ch=1 n=g#5 v=0
1117440 On ch=1 n=f5 v=102
1117440 On ch=1 n=d6 v=102
1117620 On ch=1 n=d6 v=0
1117620 On ch=1 n=f5 v=0
1117680 On ch=1 n=c6 v=96
1117680 On ch=1 n=a5 v=96
1117680 On ch=1 n=d#5 v=96
1117860 On ch=1 n=d#5 v=0
1117860 On ch=1 n=a5 v=0
1117860 On ch=1 n=c6 v=0
1118040 On ch=1 n=g5 v=90
1118160 On ch=1 n=g5 v=0
1118160 On ch=1 n=a#5 v=84
1118160 On ch=1 n=e5 v=84
1118340 On ch=1 n=e5 v=0
1118340 On ch=1 n=a#5 v=0
1118400 On ch=1 n=a5 v=78
1118400 On ch=1 n=f#5 v=78
1118580 On ch=1 n=f#5 v=0
1118580 On ch=1 n=a5 v=0
1118760 On ch=1 n=e5 v=72
1118880 On ch=1 n=e5 v=0
1118880 On ch=1 n=g5 v=66
1118880 On ch=1 n=c#5 v=66
1119060 On ch=1 n=c#5 v=0
1119060 On ch=1 n=g5 v=0
1119120 On ch=1 n=f#5 v=60
1119120 On ch=1 n=d5 v=60
1119300 On ch=1 n=d5 v=0
1119300 On ch=1 n=f#5 v=0
1119480 On ch=1 n=d5 v=53
1119600 On ch=1 n=d5 v=0
1119600 On ch=1 n=c5 v=53
1119600 On ch=1 n=f#5 v=53
1119780 On ch=1 n=f#5 v=0
1119780 On ch=1 n=c5 v=0
1119840 On ch=1 n=a#4 v=53
1119840 On ch=1 n=g5 v=53
1120020 On ch=1 n=g5 v=0
1120020 On ch=1 n=a#4 v=0
1120200 On ch=1 n=f#5 v=53
1120320 On ch=1 n=f#5 v=0
1120320 On ch=1 n=d5 v=53
1120320 On ch=1 n=a5 v=53
1120500 On ch=1 n=a5 v=0
1120500 On ch=1 n=d5 v=0
1120560 On ch=1 n=g5 v=53
1120560 On ch=1 n=a#5 v=53
1120740 On ch=1 n=a#5 v=0
1120740 On ch=1 n=g5 v=0
1120920 On ch=1 n=a5 v=53
1121040 On ch=1 n=a5 v=0
1121040 On ch=1 n=g5 v=60
1121040 On ch=1 n=c6 v=60
1121220 On ch=1 n=c6 v=0
1121220 On ch=1 n=g5 v=0
1121280 On ch=1 n=a#5 v=66
1121280 On ch=1 n=d6 v=66
1121460 On ch=1 n=d6 v=0
1121460 On ch=1 n=a#5 v=0
1121640 On ch=1 n=d#6 v=72
1121760 On ch=1 n=d#6 v=0
1121760 On ch=1 n=c6 v=78
1121760 On ch=1 n=g6 v=78
1121940 On ch=1 n=g6 v=0
1121940 On ch=1 n=c6 v=0
1122000 On ch=1 n=a#5 v=65
1122000 On ch=1 n=d6 v=65
1122180 On ch=1 n=d6 v=0
1122180 On ch=1 n=a#5 v=0
1122360 On ch=1 n=g5 v=53
1122480 On ch=1 n=g5 v=0
1122480 On ch=1 n=d5 v=53
1122480 On ch=1 n=a#5 v=53
1122660 On ch=1 n=a#5 v=0
1122660 On ch=1 n=d5 v=0
1122720 On ch=1 n=a5 v=53
1122900 On ch=1 n=a5 v=0
1123080 On ch=1 n=a5 v=53
1123200 On ch=1 n=a5 v=0
1123200 On ch=1 n=d#5 v=53
1123200 On ch=1 n=c6 v=53
1123380 On ch=1 n=c6 v=0
1123380 On ch=1 n=d#5 v=0
1123440 On ch=1 n=d5 v=53
1123440 On ch=1 n=a#5 v=53
1123620 On ch=1 n=a#5 v=0
1123620 On ch=1 n=d5 v=0
1123800 On ch=1 n=f#5 v=53
1123920 On ch=1 n=f#5 v=0
1123920 On ch=1 n=a5 v=53
1123920 On ch=1 n=c5 v=53
1124100 On ch=1 n=c5 v=0
1124100 On ch=1 n=a5 v=0
1124160 On ch=1 n=a#4 v=53
1124160 On ch=1 n=g5 v=53
1124340 On ch=1 n=g5 v=0
1124340 On ch=1 n=a#4 v=0
1124520 On ch=1 n=c5 v=53
1124640 On ch=1 n=c5 v=0
1124640 On ch=1 n=d#5 v=53
1124640 On ch=1 n=a4 v=53
1124820 On ch=1 n=a4 v=0
1124820 On ch=1 n=d#5 v=0
1124880 On ch=1 n=d5 v=53
1124880 On ch=1 n=a#4 v=53
1125060 On ch=1 n=a#4 v=0
1125060 On ch=1 n=d5 v=0
1125240 On ch=1 n=d5 v=53
1125360 On ch=1 n=d5 v=0
1125360 On ch=1 n=f#5 v=53
1125360 On ch=1 n=c5 v=53
1125540 On ch=1 n=c5 v=0
1125540 On ch=1 n=f#5 v=0
1125600 On ch=1 n=a#4 v=57
1125600 On ch=1 n=g5 v=57
1125780 On ch=1 n=g5 v=0
1125780 On ch=1 n=a#4 v=0
1125960 On ch=1 n=f#5 v=61
1126080 On ch=1 n=f#5 v=0
1126080 On ch=1 n=d5 v=61
1126080 On ch=1 n=a5 v=61
1126260 On ch=1 n=a5 v=0
1126260 On ch=1 n=d5 v=0
1126320 On ch=1 n=g5 v=65
1126320 On ch=1 n=a#5 v=65
1126500 On ch=1 n=a#5 v=0
1126500 On ch=1 n=g5 v=0
1126680 On ch=1 n=a5 v=69
1126800 On ch=1 n=a5 v=0
1126800 On ch=1 n=g5 v=69
1126800 On ch=1 n=c6 v=69
1126980 On ch=1 n=c6 v=0
1126980 On ch=1 n=g5 v=0
1127040 On ch=1 n=a#5 v=73
1127040 On ch=1 n=d6 v=73
1127220 On ch=1 n=d6 v=0
1127220 On ch=1 n=a#5 v=0
1127400 On ch=1 n=d#6 v=78
1127520 On ch=1 n=d#6 v=0
1127520 On ch=1 n=c6 v=78
1127520 On ch=1 n=g6 v=78
1127700 On ch=1 n=g6 v=0
1127700 On ch=1 n=c6 v=0
1127760 On ch=1 n=a#5 v=78
1127760 On ch=1 n=d6 v=78
1127940 On ch=1 n=d6 v=0
1127940 On ch=1 n=a#5 v=0
1128120 On ch=1 n=g5 v=65
1128240 On ch=1 n=g5 v=0
1128240 On ch=1 n=d5 v=65
1128240 On ch=1 n=a#5 v=65
1128420 On ch=1 n=a#5 v=0
1128420 On ch=1 n=d5 v=0
1128480 On ch=1 n=a5 v=65
1128660 On ch=1 n=a5 v=0
1128840 On ch=1 n=a5 v=65
1128960 On ch=1 n=a5 v=0
1128960 On ch=1 n=d#5 v=65
1128960 On ch=1 n=c6 v=65
1129140 On ch=1 n=c6 v=0
1129140 On ch=1 n=d#5 v=0
1129200 On ch=1 n=d5 v=65
1129200 On ch=1 n=a#5 v=65
1129380 On ch=1 n=a#5 v=0
1129380 On ch=1 n=d5 v=0
1129560 On ch=1 n=f#5 v=65
1129680 On ch=1 n=f#5 v=0
1129680 On ch=1 n=a5 v=65
1129680 On ch=1 n=c5 v=65
1129860 On ch=1 n=c5 v=0
1129860 On ch=1 n=a5 v=0
1129920 On ch=1 n=a#4 v=65
1129920 On ch=1 n=g5 v=65
1130100 On ch=1 n=g5 v=0
1130100 On ch=1 n=a#4 v=0
1130280 On ch=1 n=a#4 v=65
1130400 On ch=1 n=a#4 v=0
1130400 On ch=1 n=d5 v=65
1130580 On ch=1 n=d5 v=0
1130640 On ch=1 n=g4 v=65
1130820 On ch=1 n=g4 v=0
1131000 On ch=1 n=a#4 v=65
1131120 On ch=1 n=a#4 v=0
1131120 On ch=1 n=d5 v=65
1131120 On ch=1 n=g4 v=65
1131300 On ch=1 n=g4 v=0
1131300 On ch=1 n=d5 v=0
1131360 On ch=1 n=f#4 v=69
1131360 On ch=1 n=d5 v=69
1131540 On ch=1 n=d5 v=0
1131540 On ch=1 n=f#4 v=0
1131720 On ch=1 n=a#4 v=69
1131840 On ch=1 n=a#4 v=0
1131840 On ch=1 n=g4 v=69
1131840 On ch=1 n=e5 v=69
1132020 On ch=1 n=e5 v=0
1132020 On ch=1 n=g4 v=0
1132080 On ch=1 n=a4 v=73
1132080 On ch=1 n=f#5 v=73
1132260 On ch=1 n=a4 v=0
1132320 On ch=1 n=f#5 v=0
1132440 On ch=1 n=d5 v=73
1132560 On ch=1 n=d5 v=0
1132560 On ch=1 n=a#4 v=73
1132560 On ch=1 n=g5 v=73
1132740 On ch=1 n=g5 v=0
1132740 On ch=1 n=a#4 v=0
1132800 On ch=1 n=c5 v=77
1132800 On ch=1 n=a5 v=77
1132980 On ch=1 n=a5 v=0
1132980 On ch=1 n=c5 v=0
1133160 On ch=1 n=f5 v=77
1133280 On ch=1 n=f5 v=0
1133280 On ch=1 n=d5 v=77
1133280 On ch=1 n=b5 v=77
1133460 On ch=1 n=b5 v=0
1133460 On ch=1 n=d5 v=0
1133520 On ch=1 n=d#5 v=81
1133520 On ch=1 n=c6 v=81
1133700 On ch=1 n=d#5 v=0
1133760 On ch=1 n=c6 v=0
1133880 On ch=1 n=g#5 v=81
1134000 On ch=1 n=g#5 v=0
1134000 On ch=1 n=f5 v=81
1134000 On ch=1 n=d6 v=81
1134180 On ch=1 n=d6 v=0
1134180 On ch=1 n=f5 v=0
1134240 On ch=1 n=d#5 v=85
1134240 On ch=1 n=c6 v=85
1134420 On ch=1 n=c6 v=0
1134420 On ch=1 n=d#5 v=0
1134600 On ch=1 n=g5 v=93
1134720 On ch=1 n=g5 v=0
1134720 On ch=1 n=d5 v=85
1134720 On ch=1 n=b5 v=85
1134900 On ch=1 n=b5 v=0
1134900 On ch=1 n=d5 v=0
1134960 On ch=1 n=d#5 v=85
1134960 On ch=1 n=c6 v=85
1135140 On ch=1 n=d#5 v=0
1135200 On ch=1 n=c6 v=0
1135320 On ch=1 n=g#5 v=93
1135440 On ch=1 n=g#5 v=0
1135440 On ch=1 n=f5 v=81
1135440 On ch=1 n=d6 v=81
1135620 On ch=1 n=d6 v=0
1135620 On ch=1 n=f5 v=0
1135680 On ch=1 n=d#5 v=77
1135680 On ch=1 n=c6 v=77
1135860 On ch=1 n=c6 v=0
1135860 On ch=1 n=d#5 v=0
1136040 On ch=1 n=g5 v=73
1136160 On ch=1 n=g5 v=0
1136160 On ch=1 n=d5 v=69
1136160 On ch=1 n=b5 v=69
1136340 On ch=1 n=b5 v=0
1136340 On ch=1 n=d5 v=0
1136400 On ch=1 n=d#5 v=65
1136400 On ch=1 n=c6 v=65
1136580 On ch=1 n=d#5 v=0
1136640 On ch=1 n=c6 v=0
1136760 On ch=1 n=d5 v=90
1136880 On ch=1 n=d5 v=0
1136880 On ch=1 n=f5 v=90
1136880 On ch=1 n=a#4 v=90
1137060 On ch=1 n=a#4 v=0
1137060 On ch=1 n=f5 v=0
1137120 On ch=1 n=f5 v=90
1137120 On ch=1 n=a4 v=90
1137300 On ch=1 n=a4 v=0
1137300 On ch=1 n=f5 v=0
1137480 On ch=1 n=d#5 v=90
1137600 On ch=1 n=d#5 v=0
1137600 On ch=1 n=g5 v=90
1137600 On ch=1 n=a#4 v=90
1137780 On ch=1 n=a#4 v=0
1137780 On ch=1 n=g5 v=0
1137840 On ch=1 n=a5 v=90
1137840 On ch=1 n=c5 v=90
1138020 On ch=1 n=c5 v=0
1138080 On ch=1 n=a5 v=0
1138200 On ch=1 n=f5 v=90
1138320 On ch=1 n=f5 v=0
1138320 On ch=1 n=a#5 v=92
1138320 On ch=1 n=d5 v=92
1138500 On ch=1 n=d5 v=0
1138500 On ch=1 n=a#5 v=0
1138560 On ch=1 n=d#5 v=94
1138560 On ch=1 n=c6 v=94
1138740 On ch=1 n=c6 v=0
1138740 On ch=1 n=d#5 v=0
1138920 On ch=1 n=g#5 v=96
1139040 On ch=1 n=g#5 v=0
1139040 On ch=1 n=f5 v=98
1139040 On ch=1 n=d6 v=98
1139220 On ch=1 n=d6 v=0
1139220 On ch=1 n=f5 v=0
1139280 On ch=1 n=g5 v=100
1139280 On ch=1 n=d#6 v=100
1139460 On ch=1 n=d#6 v=0
1139460 On ch=1 n=g5 v=0
1139640 On ch=1 n=b5 v=102
1139760 On ch=1 n=b5 v=0
1139760 On ch=1 n=g#5 v=102
1139760 On ch=1 n=f6 v=102
1139940 On ch=1 n=f6 v=0
1139940 On ch=1 n=g#5 v=0
1140000 On ch=1 n=g5 v=102
1140000 On ch=1 n=d#6 v=102
1140000 On ch=1 n=c6 v=102
1140180 On ch=1 n=c6 v=0
1140180 On ch=1 n=d#6 v=0
1140180 On ch=1 n=g5 v=0
1140360 On ch=1 n=g#5 v=102
1140480 On ch=1 n=g#5 v=0
1140480 On ch=1 n=f5 v=102
1140480 On ch=1 n=d6 v=102
1140660 On ch=1 n=d6 v=0
1140660 On ch=1 n=f5 v=0
1140720 On ch=1 n=c6 v=96
1140720 On ch=1 n=a5 v=96
1140720 On ch=1 n=d#5 v=96
1140900 On ch=1 n=d#5 v=0
1140900 On ch=1 n=a5 v=0
1140900 On ch=1 n=c6 v=0
1141080 On ch=1 n=g5 v=90
1141200 On ch=1 n=g5 v=0
1141200 On ch=1 n=a#5 v=84
1141200 On ch=1 n=e5 v=84
1141380 On ch=1 n=e5 v=0
1141380 On ch=1 n=a#5 v=0
1141440 On ch=1 n=a5 v=78
1141440 On ch=1 n=f#5 v=78
1141620 On ch=1 n=f#5 v=0
1141620 On ch=1 n=a5 v=0
1141800 On ch=1 n=e5 v=72
1141920 On ch=1 n=e5 v=0
1141920 On ch=1 n=g5 v=66
1141920 On ch=1 n=c#5 v=66
1142100 On ch=1 n=c#5 v=0
1142100 On ch=1 n=g5 v=0
1142160 On ch=1 n=f#5 v=60
1142160 On ch=1 n=d5 v=60
1142340 On ch=1 n=d5 v=0
1142340 On ch=1 n=f#5 v=0
1142520 On ch=1 n=d5 v=53
1142640 On ch=1 n=d5 v=0
1142640 On ch=1 n=c5 v=53
1142640 On ch=1 n=f#5 v=53
1142820 On ch=1 n=f#5 v=0
1142820 On ch=1 n=c5 v=0
1142880 On ch=1 n=a#4 v=53
1142880 On ch=1 n=g5 v=53
1143060 On ch=1 n=g5 v=0
1143060 On ch=1 n=a#4 v=0
1143240 On ch=1 n=f#5 v=53
1143360 On ch=1 n=f#5 v=0
1143360 On ch=1 n=d5 v=53
1143360 On ch=1 n=a5 v=53
1143540 On ch=1 n=a5 v=0
1143540 On ch=1 n=d5 v=0
1143600 On ch=1 n=g5 v=53
1143600 On ch=1 n=a#5 v=53
1143780 On ch=1 n=a#5 v=0
1143780 On ch=1 n=g5 v=0
1143960 On ch=1 n=a5 v=53
1144080 On ch=1 n=a5 v=0
1144080 On ch=1 n=g5 v=60
1144080 On ch=1 n=c6 v=60
1144260 On ch=1 n=c6 v=0
1144260 On ch=1 n=g5 v=0
1144320 On ch=1 n=a#5 v=66
1144320 On ch=1 n=d6 v=66
1144500 On ch=1 n=d6 v=0
1144500 On ch=1 n=a#5 v=0
1144680 On ch=1 n=d#6 v=72
1144800 On ch=1 n=d#6 v=0
1144800 On ch=1 n=c6 v=78
1144800 On ch=1 n=g6 v=78
1144980 On ch=1 n=g6 v=0
1144980 On ch=1 n=c6 v=0
1145040 On ch=1 n=a#5 v=65
1145040 On ch=1 n=d6 v=65
1145220 On ch=1 n=d6 v=0
1145220 On ch=1 n=a#5 v=0
1145400 On ch=1 n=g5 v=53
1145520 On ch=1 n=g5 v=0
1145520 On ch=1 n=d5 v=53
1145520 On ch=1 n=a#5 v=53
1145700 On ch=1 n=a#5 v=0
1145700 On ch=1 n=d5 v=0
1145760 On ch=1 n=a5 v=53
1145940 On ch=1 n=a5 v=0
1146120 On ch=1 n=a5 v=53
1146240 On ch=1 n=a5 v=0
1146240 On ch=1 n=d#5 v=53
1146240 On ch=1 n=c6 v=53
1146420 On ch=1 n=c6 v=0
1146420 On ch=1 n=d#5 v=0
1146480 On ch=1 n=d5 v=53
1146480 On ch=1 n=a#5 v=53
1146660 On ch=1 n=a#5 v=0
1146660 On ch=1 n=d5 v=0
1146840 On ch=1 n=f#5 v=53
1146960 On ch=1 n=f#5 v=0
1146960 On ch=1 n=a5 v=53
1146960 On ch=1 n=c5 v=53
1147140 On ch=1 n=c5 v=0
1147140 On ch=1 n=a5 v=0
1147200 On ch=1 n=a#4 v=53
1147200 On ch=1 n=g5 v=53
1147380 On ch=1 n=g5 v=0
1147380 On ch=1 n=a#4 v=0
1147560 On ch=1 n=c5 v=53
1147680 On ch=1 n=c5 v=0
1147680 On ch=1 n=d#5 v=53
1147680 On ch=1 n=a4 v=53
1147860 On ch=1 n=a4 v=0
1147860 On ch=1 n=d#5 v=0
1147920 On ch=1 n=d5 v=53
1147920 On ch=1 n=a#4 v=53
1148100 On ch=1 n=a#4 v=0
1148100 On ch=1 n=d5 v=0
1148280 On ch=1 n=d5 v=53
1148400 On ch=1 n=d5 v=0
1148400 On ch=1 n=f#5 v=53
1148400 On ch=1 n=c5 v=53
1148580 On ch=1 n=c5 v=0
1148580 On ch=1 n=f#5 v=0
1148640 On ch=1 n=a#4 v=57
1148640 On ch=1 n=g5 v=57
1148820 On ch=1 n=g5 v=0
1148820 On ch=1 n=a#4 v=0
1149000 On ch=1 n=f#5 v=61
1149120 On ch=1 n=f#5 v=0
1149120 On ch=1 n=d5 v=61
1149120 On ch=1 n=a5 v=61
1149300 On ch=1 n=a5 v=0
1149300 On ch=1 n=d5 v=0
1149360 On ch=1 n=g5 v=65
1149360 On ch=1 n=a#5 v=65
1149540 On ch=1 n=a#5 v=0
1149540 On ch=1 n=g5 v=0
1149720 On ch=1 n=a5 v=69
1149840 On ch=1 n=a5 v=0
1149840 On ch=1 n=g5 v=69
1149840 On ch=1 n=c6 v=69
1150020 On ch=1 n=c6 v=0
1150020 On ch=1 n=g5 v=0
1150080 On ch=1 n=a#5 v=73
1150080 On ch=1 n=d6 v=73
1150260 On ch=1 n=d6 v=0
1150260 On ch=1 n=a#5 v=0
1150440 On ch=1 n=d#6 v=78
1150560 On ch=1 n=d#6 v=0
1150560 On ch=1 n=c6 v=78
1150560 On ch=1 n=g6 v=78
1150740 On ch=1 n=g6 v=0
1150740 On ch=1 n=c6 v=0
1150800 On ch=1 n=a#5 v=78
1150800 On ch=1 n=d6 v=78
1150980 On ch=1 n=d6 v=0
1150980 On ch=1 n=a#5 v=0
1151160 On ch=1 n=g5 v=65
1151280 On ch=1 n=g5 v=0
1151280 On ch=1 n=d5 v=65
1151280 On ch=1 n=a#5 v=65
1151460 On ch=1 n=a#5 v=0
1151460 On ch=1 n=d5 v=0
1151520 On ch=1 n=a5 v=65
1151700 On ch=1 n=a5 v=0
1151880 On ch=1 n=a5 v=65
1152000 On ch=1 n=a5 v=0
1152000 On ch=1 n=d#5 v=65
1152000 On ch=1 n=c6 v=65
1152180 On ch=1 n=c6 v=0
1152180 On ch=1 n=d#5 v=0
1152240 On ch=1 n=d5 v=65
1152240 On ch=1 n=a#5 v=65
1152420 On ch=1 n=a#5 v=0
1152420 On ch=1 n=d5 v=0
1152600 On ch=1 n=f#5 v=65
1152720 On ch=1 n=f#5 v=0
1152720 On ch=1 n=a5 v=65
1152720 On ch=1 n=c5 v=65
1152900 On ch=1 n=c5 v=0
1152900 On ch=1 n=a5 v=0
1152960 On ch=1 n=a#4 v=65
1152960 On ch=1 n=g5 v=65
1153140 On ch=1 n=g5 v=0
1153140 On ch=1 n=a#4 v=0
1153320 On ch=1 n=a#4 v=65
1153440 On ch=1 n=a#4 v=0
1153440 On ch=1 n=d5 v=65
1153620 On ch=1 n=d5 v=0
1153680 On ch=1 n=g4 v=65
1153860 On ch=1 n=g4 v=0
1154040 On ch=1 n=f4 v=65
1154160 On ch=1 n=f4 v=0
1154160 On ch=1 n=a#4 v=65
1154340 On ch=1 n=a#4 v=0
1154400 On ch=1 n=d4 v=65
1154580 On ch=1 n=d4 v=0
1154760 On ch=1 n=f5 v=65
1154880 On ch=1 n=f5 v=0
1154880 On ch=1 n=a#5 v=65
1155060 On ch=1 n=a#5 v=0
1155120 On ch=1 n=d5 v=67
1155300 On ch=1 n=d5 v=0
1155480 On ch=1 n=g4 v=69
1155600 On ch=1 n=g4 v=0
1155600 On ch=1 n=a#4 v=71
1155780 On ch=1 n=a#4 v=0
1155840 On ch=1 n=c4 v=74
1156020 On ch=1 n=c4 v=0
1156200 On ch=1 n=g5 v=78
1156320 On ch=1 n=g5 v=0
1156320 On ch=1 n=a#5 v=78
1156500 On ch=1 n=a#5 v=0
1156560 On ch=1 n=c5 v=78
1156740 On ch=1 n=c5 v=0
1156920 On ch=1 n=g4 v=78
1157040 On ch=1 n=g4 v=0
1157040 On ch=1 n=a#4 v=78
1157220 On ch=1 n=a#4 v=0
1157280 On ch=1 n=c4 v=78
1157460 On ch=1 n=c4 v=0
1157640 On ch=1 n=g5 v=78
1157760 On ch=1 n=g5 v=0
1157760 On ch=1 n=a#5 v=78
1157940 On ch=1 n=a#5 v=0
1158000 On ch=1 n=c5 v=78
1158180 On ch=1 n=c5 v=0
1158360 On ch=1 n=f4 v=78
1158480 On ch=1 n=f4 v=0
1158480 On ch=1 n=a4 v=78
1158660 On ch=1 n=a4 v=0
1158720 On ch=1 n=c4 v=78
1158900 On ch=1 n=c4 v=0
1159080 On ch=1 n=f5 v=78
1159200 On ch=1 n=f5 v=0
1159200 On ch=1 n=a5 v=78
1159380 On ch=1 n=a5 v=0
1159440 On ch=1 n=c5 v=78
1159620 On ch=1 n=c5 v=0
1159800 On ch=1 n=f4 v=78
1159920 On ch=1 n=f4 v=0
1159920 On ch=1 n=a#4 v=78
1160100 On ch=1 n=a#4 v=0
1160160 On ch=1 n=d4 v=65
1160340 On ch=1 n=d4 v=0
1160520 On ch=1 n=f5 v=65
1160640 On ch=1 n=f5 v=0
1160640 On ch=1 n=a#5 v=65
1160820 On ch=1 n=a#5 v=0
1160880 On ch=1 n=d5 v=67
1161060 On ch=1 n=d5 v=0
1161240 On ch=1 n=g4 v=69
1161360 On ch=1 n=g4 v=0
1161360 On ch=1 n=a#4 v=71
1161540 On ch=1 n=a#4 v=0
1161600 On ch=1 n=c4 v=74
1161780 On ch=1 n=c4 v=0
1161960 On ch=1 n=g5 v=78
1162080 On ch=1 n=g5 v=0
1162080 On ch=1 n=a#5 v=78
1162260 On ch=1 n=a#5 v=0
1162320 On ch=1 n=c5 v=78
1162500 On ch=1 n=c5 v=0
1162680 On ch=1 n=g4 v=78
1162800 On ch=1 n=g4 v=0
1162800 On ch=1 n=a#4 v=78
1162980 On ch=1 n=a#4 v=0
1163040 On ch=1 n=c4 v=78
1163220 On ch=1 n=c4 v=0
1163400 On ch=1 n=g5 v=78
1163520 On ch=1 n=g5 v=0
1163520 On ch=1 n=a#5 v=78
1163700 On ch=1 n=a#5 v=0
1163760 On ch=1 n=c5 v=78
1163940 On ch=1 n=c5 v=0
1164120 On ch=1 n=f4 v=78
1164240 On ch=1 n=f4 v=0
1164240 On ch=1 n=a4 v=78
1164420 On ch=1 n=a4 v=0
1164480 On ch=1 n=c4 v=78
1164660 On ch=1 n=c4 v=0
1164840 On ch=1 n=f5 v=78
1164960 On ch=1 n=f5 v=0
1164960 On ch=1 n=a5 v=78
1165140 On ch=1 n=a5 v=0
1165200 On ch=1 n=c5 v=78
1165380 On ch=1 n=c5 v=0
1165560 On ch=1 n=a#4 v=78
1165680 On ch=1 n=a#4 v=0
1165680 On ch=1 n=d5 v=78
1165860 On ch=1 n=d5 v=0
1165920 On ch=1 n=f4 v=84
1166100 On ch=1 n=f4 v=0
1166280 On ch=1 n=a#5 v=84
1166400 On ch=1 n=a#5 v=0
1166400 On ch=1 n=d6 v=84
1166580 On ch=1 n=d6 v=0
1166640 On ch=1 n=f5 v=84
1166820 On ch=1 n=f5 v=0
1167000 On ch=1 n=b4 v=84
1167120 On ch=1 n=b4 v=0
1167120 On ch=1 n=d5 v=84
1167300 On ch=1 n=d5 v=0
1167360 On ch=1 n=f4 v=90
1167540 On ch=1 n=f4 v=0
1167720 On ch=1 n=b5 v=90
1167840 On ch=1 n=b5 v=0
1167840 On ch=1 n=d6 v=90
1168020 On ch=1 n=d6 v=0
1168080 On ch=1 n=f5 v=90
1168260 On ch=1 n=f5 v=0
1168440 On ch=1 n=b4 v=90
1168560 On ch=1 n=b4 v=0
1168560 On ch=1 n=d5 v=90
1168740 On ch=1 n=d5 v=0
1168800 On ch=1 n=g4 v=96
1168980 On ch=1 n=g4 v=0
1169160 On ch=1 n=b5 v=96
1169280 On ch=1 n=b5 v=0
1169280 On ch=1 n=d6 v=96
1169460 On ch=1 n=d6 v=0
1169520 On ch=1 n=g5 v=96
1169700 On ch=1 n=g5 v=0
1169880 On ch=1 n=c5 v=96
1170000 On ch=1 n=c5 v=0
1170000 On ch=1 n=d#5 v=96
1170180 On ch=1 n=d#5 v=0
1170240 On ch=1 n=g4 v=102
1170420 On ch=1 n=g4 v=0
1170600 On ch=1 n=c6 v=102
1170720 On ch=1 n=c6 v=0
1170720 On ch=1 n=d#6 v=102
1170900 On ch=1 n=d#6 v=0
1170960 On ch=1 n=g5 v=102
1171140 On ch=1 n=g5 v=0
1171320 On ch=1 n=c5 v=78
1171440 On ch=1 n=c5 v=0
1171440 On ch=1 n=d#5 v=78
1171620 On ch=1 n=d#5 v=0
1171680 On ch=1 n=g4 v=84
1171860 On ch=1 n=g4 v=0
1172040 On ch=1 n=c6 v=84
1172160 On ch=1 n=c6 v=0
1172160 On ch=1 n=d#6 v=84
1172340 On ch=1 n=d#6 v=0
1172400 On ch=1 n=g5 v=84
1172580 On ch=1 n=g5 v=0
1172760 On ch=1 n=c#5 v=84
1172880 On ch=1 n=c#5 v=0
1172880 On ch=1 n=e5 v=84
1173060 On ch=1 n=e5 v=0
1173120 On ch=1 n=g4 v=90
1173300 On ch=1 n=g4 v=0
1173480 On ch=1 n=c#6 v=90
1173600 On ch=1 n=c#6 v=0
1173600 On ch=1 n=e6 v=90
1173780 On ch=1 n=e6 v=0
1173840 On ch=1 n=g5 v=90
1174020 On ch=1 n=g5 v=0
1174200 On ch=1 n=c#5 v=90
1174320 On ch=1 n=c#5 v=0
1174320 On ch=1 n=e5 v=90
1174500 On ch=1 n=e5 v=0
1174560 On ch=1 n=a4 v=96
1174740 On ch=1 n=a4 v=0
1174920 On ch=1 n=c#6 v=90
1175040 On ch=1 n=c#6 v=0
1175040 On ch=1 n=e6 v=90
1175220 On ch=1 n=e6 v=0
1175280 On ch=1 n=a5 v=84
1175460 On ch=1 n=a5 v=0
1175640 On ch=1 n=a4 v=84
1175760 On ch=1 n=a4 v=0
1175760 On ch=1 n=d5 v=84
1175940 On ch=1 n=d5 v=0
1176000 On ch=1 n=d4 v=78
1176180 On ch=1 n=d4 v=0
1176360 On ch=1 n=a5 v=78
1176480 On ch=1 n=a5 v=0
1176480 On ch=1 n=d6 v=75
1176660 On ch=1 n=d6 v=0
1176720 On ch=1 n=d5 v=72
1176900 On ch=1 n=d5 v=0
1177080 On ch=1 n=f4 v=65
1177200 On ch=1 n=f4 v=0
1177200 On ch=1 n=a#4 v=65
1177380 On ch=1 n=a#4 v=0
1177440 On ch=1 n=d4 v=65
1177620 On ch=1 n=d4 v=0
1177800 On ch=1 n=f5 v=65
1177920 On ch=1 n=f5 v=0
1177920 On ch=1 n=a#5 v=65
1178100 On ch=1 n=a#5 v=0
1178160 On ch=1 n=d5 v=67
1178340 On ch=1 n=d5 v=0
1178520 On ch=1 n=g4 v=69
1178640 On ch=1 n=g4 v=0
1178640 On ch=1 n=a#4 v=71
1178820 On ch=1 n=a#4 v=0
1178880 On ch=1 n=c4 v=74
1179060 On ch=1 n=c4 v=0
1179240 On ch=1 n=g5 v=78
1179360 On ch=1 n=g5 v=0
1179360 On ch=1 n=a#5 v=78
1179540 On ch=1 n=a#5 v=0
1179600 On ch=1 n=c5 v=78
1179780 On ch=1 n=c5 v=0
1179960 On ch=1 n=g4 v=82
1180080 On ch=1 n=g4 v=0
1180080 On ch=1 n=a#4 v=82
1180260 On ch=1 n=a#4 v=0
1180320 On ch=1 n=c4 v=86
1180500 On ch=1 n=c4 v=0
1180680 On ch=1 n=g5 v=90
1180800 On ch=1 n=g5 v=0
1180800 On ch=1 n=a#5 v=90
1180980 On ch=1 n=a#5 v=0
1181040 On ch=1 n=c5 v=94
1181400 On ch=1 n=f4 v=98
1181520 On ch=1 n=f4 v=0
1181520 On ch=1 n=c5 v=0
1181520 On ch=1 n=a#4 v=98
1181700 On ch=1 n=a#4 v=0
1181760 On ch=1 n=d5 v=108
1182480 On ch=1 n=d5 v=0
1182480 On ch=1 n=a#4 v=102
1182660 On ch=1 n=a#4 v=0
1182840 On ch=1 n=a#4 v=102
1182960 On ch=1 n=a#4 v=0
1182960 On ch=1 n=d5 v=102
1183140 On ch=1 n=d5 v=0
1183200 On ch=1 n=f4 v=65
1183380 On ch=1 n=f4 v=0
1183560 On ch=1 n=a#5 v=65
1183680 On ch=1 n=a#5 v=0
1183680 On ch=1 n=d6 v=65
1183860 On ch=1 n=d6 v=0
1183920 On ch=1 n=f5 v=71
1184100 On ch=1 n=f5 v=0
1184280 On ch=1 n=b4 v=71
1184400 On ch=1 n=b4 v=0
1184400 On ch=1 n=d5 v=71
1184580 On ch=1 n=d5 v=0
1184640 On ch=1 n=e4 v=77
1184820 On ch=1 n=e4 v=0
1185000 On ch=1 n=a#5 v=77
1185120 On ch=1 n=a#5 v=0
1185120 On ch=1 n=d6 v=77
1185300 On ch=1 n=d6 v=0
1185360 On ch=1 n=e5 v=83
1185540 On ch=1 n=e5 v=0
1185720 On ch=1 n=a#4 v=83
1185840 On ch=1 n=a#4 v=0
1185840 On ch=1 n=d5 v=83
1186020 On ch=1 n=d5 v=0
1186080 On ch=1 n=e4 v=89
1186260 On ch=1 n=e4 v=0
1186440 On ch=1 n=a#5 v=89
1186560 On ch=1 n=a#5 v=0
1186560 On ch=1 n=d6 v=89
1186740 On ch=1 n=d6 v=0
1186800 On ch=1 n=e5 v=101
1187160 On ch=1 n=a4 v=95
1187280 On ch=1 n=a4 v=0
1187280 On ch=1 n=e5 v=0
1187280 On ch=1 n=d5 v=95
1187460 On ch=1 n=d5 v=0
1187520 On ch=1 n=f#5 v=108
1188240 On ch=1 n=f#5 v=0
1188240 On ch=1 n=d5 v=102
1188420 On ch=1 n=d5 v=0
1188600 On ch=1 n=g5 v=90
1188720 On ch=1 n=g5 v=0
1188720 On ch=1 n=f5 v=90
1188720 On ch=1 n=b5 v=90
1188900 On ch=1 n=b5 v=0
1188900 On ch=1 n=f5 v=0
1188960 On ch=1 n=d#5 v=90
1188960 On ch=1 n=c6 v=90
1189140 On ch=1 n=c6 v=0
1189140 On ch=1 n=d#5 v=0
1189320 On ch=1 n=b5 v=90
1189440 On ch=1 n=b5 v=0
1189440 On ch=1 n=g5 v=90
1189440 On ch=1 n=d6 v=90
1189620 On ch=1 n=d6 v=0
1189620 On ch=1 n=g5 v=0
1189680 On ch=1 n=c6 v=90
1189680 On ch=1 n=d#6 v=90
1189860 On ch=1 n=d#6 v=0
1189860 On ch=1 n=c6 v=0
1190040 On ch=1 n=d6 v=90
1190160 On ch=1 n=d6 v=0
1190160 On ch=1 n=c6 v=102
1190160 On ch=1 n=f6 v=102
1190340 On ch=1 n=f6 v=0
1190340 On ch=1 n=c6 v=0
1190400 On ch=1 n=d#6 v=112
1190400 On ch=1 n=g6 v=112
1190580 On ch=1 n=g6 v=0
1190580 On ch=1 n=d#6 v=0
1190760 On ch=1 n=g#6 v=122
1190880 On ch=1 n=g#6 v=0
1190880 On ch=1 n=f6 v=127
1190880 On ch=1 n=c7 v=127
1191060 On ch=1 n=c7 v=0
1191060 On ch=1 n=f6 v=0
1191120 On ch=1 n=d#6 v=111
1191120 On ch=1 n=g6 v=111
1191300 On ch=1 n=g6 v=0
1191300 On ch=1 n=d#6 v=0
1191480 On ch=1 n=c6 v=90
1191600 On ch=1 n=c6 v=0
1191600 On ch=1 n=g5 v=90
1191600 On ch=1 n=d#6 v=90
1191780 On ch=1 n=d#6 v=0
1191780 On ch=1 n=g5 v=0
1191840 On ch=1 n=d6 v=90
1192020 On ch=1 n=d6 v=0
1192200 On ch=1 n=d6 v=90
1192320 On ch=1 n=d6 v=0
1192320 On ch=1 n=g#5 v=90
1192320 On ch=1 n=f6 v=90
1192500 On ch=1 n=f6 v=0
1192500 On ch=1 n=g#5 v=0
1192560 On ch=1 n=g5 v=90
1192560 On ch=1 n=d#6 v=90
1192740 On ch=1 n=d#6 v=0
1192740 On ch=1 n=g5 v=0
1192920 On ch=1 n=b5 v=90
1193040 On ch=1 n=b5 v=0
1193040 On ch=1 n=d6 v=90
1193040 On ch=1 n=f5 v=90
1193220 On ch=1 n=f5 v=0
1193220 On ch=1 n=d6 v=0
1193280 On ch=1 n=d#5 v=90
1193280 On ch=1 n=c6 v=90
1193460 On ch=1 n=c6 v=0
1193460 On ch=1 n=d#5 v=0
1193640 On ch=1 n=f5 v=90
1193760 On ch=1 n=f5 v=0
1193760 On ch=1 n=g#5 v=90
1193760 On ch=1 n=d5 v=90
1193940 On ch=1 n=d5 v=0
1193940 On ch=1 n=g#5 v=0
1194000 On ch=1 n=g5 v=90
1194000 On ch=1 n=d#5 v=90
1194180 On ch=1 n=d#5 v=0
1194180 On ch=1 n=g5 v=0
1194360 On ch=1 n=d5 v=65
1194480 On ch=1 n=d5 v=0
1194480 On ch=1 n=f#5 v=65
1194480 On ch=1 n=c5 v=65
1194660 On ch=1 n=c5 v=0
1194660 On ch=1 n=f#5 v=0
1194720 On ch=1 n=a#4 v=65
1194720 On ch=1 n=g5 v=65
1194900 On ch=1 n=g5 v=0
1194900 On ch=1 n=a#4 v=0
1195080 On ch=1 n=f#5 v=65
1195200 On ch=1 n=f#5 v=0
1195200 On ch=1 n=d5 v=65
1195200 On ch=1 n=a5 v=65
1195380 On ch=1 n=a5 v=0
1195380 On ch=1 n=d5 v=0
1195440 On ch=1 n=g5 v=65
1195440 On ch=1 n=a#5 v=65
1195620 On ch=1 n=a#5 v=0
1195620 On ch=1 n=g5 v=0
1195800 On ch=1 n=a5 v=65
1195920 On ch=1 n=a5 v=0
1195920 On ch=1 n=g5 v=74
1195920 On ch=1 n=c6 v=74
1196100 On ch=1 n=c6 v=0
1196100 On ch=1 n=g5 v=0
1196160 On ch=1 n=a#5 v=81
1196160 On ch=1 n=d6 v=81
1196340 On ch=1 n=d6 v=0
1196340 On ch=1 n=a#5 v=0
1196520 On ch=1 n=d#6 v=89
1196640 On ch=1 n=d#6 v=0
1196640 On ch=1 n=c6 v=96
1196640 On ch=1 n=g6 v=96
1196820 On ch=1 n=g6 v=0
1196820 On ch=1 n=c6 v=0
1196880 On ch=1 n=a#5 v=80
1196880 On ch=1 n=d6 v=80
1197060 On ch=1 n=d6 v=0
1197060 On ch=1 n=a#5 v=0
1197240 On ch=1 n=g5 v=65
1197360 On ch=1 n=g5 v=0
1197360 On ch=1 n=d5 v=65
1197360 On ch=1 n=a#5 v=65
1197540 On ch=1 n=a#5 v=0
1197540 On ch=1 n=d5 v=0
1197600 On ch=1 n=a5 v=65
1197780 On ch=1 n=a5 v=0
1197960 On ch=1 n=a5 v=65
1198080 On ch=1 n=a5 v=0
1198080 On ch=1 n=d#5 v=65
1198080 On ch=1 n=c6 v=65
1198260 On ch=1 n=c6 v=0
1198260 On ch=1 n=d#5 v=0
1198320 On ch=1 n=d5 v=65
1198320 On ch=1 n=a#5 v=65
1198500 On ch=1 n=a#5 v=0
1198500 On ch=1 n=d5 v=0
1198680 On ch=1 n=f#5 v=65
1198800 On ch=1 n=f#5 v=0
1198800 On ch=1 n=a5 v=65
1198800 On ch=1 n=c5 v=65
1198980 On ch=1 n=c5 v=0
1198980 On ch=1 n=a5 v=0
1199040 On ch=1 n=a#4 v=65
1199040 On ch=1 n=g5 v=65
1199220 On ch=1 n=g5 v=0
1199220 On ch=1 n=a#4 v=0
1199400 On ch=1 n=a#4 v=65
1199520 On ch=1 n=a#4 v=0
1199520 On ch=1 n=d5 v=65
1199700 On ch=1 n=d5 v=0
1199760 On ch=1 n=g4 v=65
1199940 On ch=1 n=g4 v=0
1200120 On ch=1 n=a#4 v=65
1200240 On ch=1 n=a#4 v=0
1200240 On ch=1 n=d5 v=65
1200240 On ch=1 n=g4 v=65
1200420 On ch=1 n=g4 v=0
1200420 On ch=1 n=d5 v=0
1200480 On ch=1 n=f#4 v=69
1200480 On ch=1 n=d5 v=69
1200660 On ch=1 n=d5 v=0
1200660 On ch=1 n=f#4 v=0
1200840 On ch=1 n=a#4 v=69
1200960 On ch=1 n=a#4 v=0
1200960 On ch=1 n=g4 v=69
1200960 On ch=1 n=e5 v=69
1201140 On ch=1 n=e5 v=0
1201140 On ch=1 n=g4 v=0
1201200 On ch=1 n=a4 v=73
1201200 On ch=1 n=f#5 v=73
1201380 On ch=1 n=a4 v=0
1201440 On ch=1 n=f#5 v=0
1201560 On ch=1 n=d5 v=73
1201680 On ch=1 n=d5 v=0
1201680 On ch=1 n=a#4 v=73
1201680 On ch=1 n=g5 v=73
1201860 On ch=1 n=g5 v=0
1201860 On ch=1 n=a#4 v=0
1201920 On ch=1 n=c5 v=77
1201920 On ch=1 n=a5 v=77
1202100 On ch=1 n=a5 v=0
1202100 On ch=1 n=c5 v=0
1202280 On ch=1 n=f5 v=77
1202400 On ch=1 n=f5 v=0
1202400 On ch=1 n=d5 v=77
1202400 On ch=1 n=b5 v=77
1202580 On ch=1 n=b5 v=0
1202580 On ch=1 n=d5 v=0
1202640 On ch=1 n=d#5 v=81
1202640 On ch=1 n=c6 v=81
1202820 On ch=1 n=d#5 v=0
1202880 On ch=1 n=c6 v=0
1203000 On ch=1 n=g#5 v=81
1203120 On ch=1 n=g#5 v=0
1203120 On ch=1 n=f5 v=81
1203120 On ch=1 n=d6 v=81
1203300 On ch=1 n=d6 v=0
1203300 On ch=1 n=f5 v=0
1203360 On ch=1 n=d#5 v=85
1203360 On ch=1 n=c6 v=85
1203540 On ch=1 n=c6 v=0
1203540 On ch=1 n=d#5 v=0
1203720 On ch=1 n=g5 v=93
1203840 On ch=1 n=g5 v=0
1203840 On ch=1 n=d5 v=85
1203840 On ch=1 n=b5 v=85
1204020 On ch=1 n=b5 v=0
1204020 On ch=1 n=d5 v=0
1204080 On ch=1 n=d#5 v=85
1204080 On ch=1 n=c6 v=85
1204260 On ch=1 n=d#5 v=0
1204320 On ch=1 n=c6 v=0
1204440 On ch=1 n=g#5 v=93
1204560 On ch=1 n=g#5 v=0
1204560 On ch=1 n=f5 v=81
1204560 On ch=1 n=d6 v=81
1204740 On ch=1 n=d6 v=0
1204740 On ch=1 n=f5 v=0
1204800 On ch=1 n=d#5 v=77
1204800 On ch=1 n=c6 v=77
1204980 On ch=1 n=c6 v=0
1204980 On ch=1 n=d#5 v=0
1205160 On ch=1 n=g5 v=73
1205280 On ch=1 n=g5 v=0
1205280 On ch=1 n=d5 v=69
1205280 On ch=1 n=b5 v=69
1205460 On ch=1 n=b5 v=0
1205460 On ch=1 n=d5 v=0
1205520 On ch=1 n=d#5 v=65
1205520 On ch=1 n=c6 v=65
1205700 On ch=1 n=d#5 v=0
1205760 On ch=1 n=c6 v=0
1205880 On ch=1 n=d5 v=65
1206000 On ch=1 n=d5 v=0
1206000 On ch=1 n=f5 v=65
1206000 On ch=1 n=a#4 v=65
1206180 On ch=1 n=a#4 v=0
1206180 On ch=1 n=f5 v=0
1206240 On ch=1 n=f5 v=65
1206240 On ch=1 n=a4 v=65
1206420 On ch=1 n=a4 v=0
1206420 On ch=1 n=f5 v=0
1206600 On ch=1 n=d#5 v=65
1206720 On ch=1 n=d#5 v=0
1206720 On ch=1 n=g5 v=65
1206720 On ch=1 n=a#4 v=65
1206900 On ch=1 n=a#4 v=0
1206900 On ch=1 n=g5 v=0
1206960 On ch=1 n=a5 v=69
1206960 On ch=1 n=c5 v=69
1207140 On ch=1 n=c5 v=0
1207200 On ch=1 n=a5 v=0
1207320 On ch=1 n=f5 v=73
1207440 On ch=1 n=f5 v=0
1207440 On ch=1 n=a#5 v=73
1207440 On ch=1 n=d5 v=73
1207620 On ch=1 n=d5 v=0
1207620 On ch=1 n=a#5 v=0
1207680 On ch=1 n=d#5 v=77
1207680 On ch=1 n=c6 v=77
1207860 On ch=1 n=c6 v=0
1207860 On ch=1 n=d#5 v=0
1208040 On ch=1 n=g#5 v=81
1208160 On ch=1 n=g#5 v=0
1208160 On ch=1 n=f5 v=81
1208160 On ch=1 n=d6 v=81
1208340 On ch=1 n=d6 v=0
1208340 On ch=1 n=f5 v=0
1208400 On ch=1 n=g5 v=85
1208400 On ch=1 n=d#6 v=85
1208580 On ch=1 n=d#6 v=0
1208580 On ch=1 n=g5 v=0
1208760 On ch=1 n=b5 v=90
1208880 On ch=1 n=b5 v=0
1208880 On ch=1 n=g#5 v=90
1208880 On ch=1 n=f6 v=90
1209060 On ch=1 n=f6 v=0
1209060 On ch=1 n=g#5 v=0
1209120 On ch=1 n=g5 v=90
1209120 On ch=1 n=d#6 v=90
1209120 On ch=1 n=c6 v=90
1209300 On ch=1 n=c6 v=0
1209300 On ch=1 n=d#6 v=0
1209300 On ch=1 n=g5 v=0
1209480 On ch=1 n=g#5 v=90
1209600 On ch=1 n=g#5 v=0
1209600 On ch=1 n=f5 v=90
1209600 On ch=1 n=d6 v=90
1209780 On ch=1 n=d6 v=0
1209780 On ch=1 n=f5 v=0
1209840 On ch=1 n=c6 v=84
1209840 On ch=1 n=a5 v=84
1209840 On ch=1 n=d#5 v=84
1210020 On ch=1 n=d#5 v=0
1210020 On ch=1 n=a5 v=0
1210020 On ch=1 n=c6 v=0
1210200 On ch=1 n=g5 v=78
1210320 On ch=1 n=g5 v=0
1210320 On ch=1 n=a#5 v=78
1210320 On ch=1 n=e5 v=78
1210500 On ch=1 n=e5 v=0
1210500 On ch=1 n=a#5 v=0
1210560 On ch=1 n=a5 v=72
1210560 On ch=1 n=f#5 v=72
1210740 On ch=1 n=f#5 v=0
1210740 On ch=1 n=a5 v=0
1210920 On ch=1 n=e5 v=66
1211040 On ch=1 n=e5 v=0
1211040 On ch=1 n=g5 v=66
1211040 On ch=1 n=c#5 v=66
1211220 On ch=1 n=c#5 v=0
1211220 On ch=1 n=g5 v=0
1211280 On ch=1 n=f#5 v=60
1211280 On ch=1 n=d5 v=60
1211460 On ch=1 n=d5 v=0
1211460 On ch=1 n=f#5 v=0
1211640 On ch=1 n=d5 v=53
1211760 On ch=1 n=d5 v=0
1211760 On ch=1 n=c5 v=53
1211760 On ch=1 n=f#5 v=53
1211940 On ch=1 n=f#5 v=0
1211940 On ch=1 n=c5 v=0
1212000 On ch=1 n=a#4 v=53
1212000 On ch=1 n=g5 v=53
1212180 On ch=1 n=g5 v=0
1212180 On ch=1 n=a#4 v=0
1212360 On ch=1 n=f#5 v=53
1212480 On ch=1 n=f#5 v=0
1212480 On ch=1 n=d5 v=53
1212480 On ch=1 n=a5 v=53
1212660 On ch=1 n=a5 v=0
1212660 On ch=1 n=d5 v=0
1212720 On ch=1 n=g5 v=53
1212720 On ch=1 n=a#5 v=53
1212900 On ch=1 n=a#5 v=0
1212900 On ch=1 n=g5 v=0
1213080 On ch=1 n=a5 v=53
1213200 On ch=1 n=a5 v=0
1213200 On ch=1 n=g5 v=60
1213200 On ch=1 n=c6 v=60
1213380 On ch=1 n=c6 v=0
1213380 On ch=1 n=g5 v=0
1213440 On ch=1 n=a#5 v=66
1213440 On ch=1 n=d6 v=66
1213620 On ch=1 n=d6 v=0
1213620 On ch=1 n=a#5 v=0
1213800 On ch=1 n=d#6 v=72
1213920 On ch=1 n=d#6 v=0
1213920 On ch=1 n=c6 v=78
1213920 On ch=1 n=g6 v=78
1214100 On ch=1 n=g6 v=0
1214100 On ch=1 n=c6 v=0
1214160 On ch=1 n=a#5 v=65
1214160 On ch=1 n=d6 v=65
1214340 On ch=1 n=d6 v=0
1214340 On ch=1 n=a#5 v=0
1214520 On ch=1 n=g5 v=53
1214640 On ch=1 n=g5 v=0
1214640 On ch=1 n=d5 v=53
1214640 On ch=1 n=a#5 v=53
1214820 On ch=1 n=a#5 v=0
1214820 On ch=1 n=d5 v=0
1214880 On ch=1 n=a5 v=53
1215060 On ch=1 n=a5 v=0
1215240 On ch=1 n=a5 v=53
1215360 On ch=1 n=a5 v=0
1215360 On ch=1 n=d#5 v=53
1215360 On ch=1 n=c6 v=53
1215540 On ch=1 n=c6 v=0
1215540 On ch=1 n=d#5 v=0
1215600 On ch=1 n=d5 v=53
1215600 On ch=1 n=a#5 v=53
1215780 On ch=1 n=a#5 v=0
1215780 On ch=1 n=d5 v=0
1215960 On ch=1 n=f#5 v=53
1216080 On ch=1 n=f#5 v=0
1216080 On ch=1 n=a5 v=53
1216080 On ch=1 n=c5 v=53
1216260 On ch=1 n=c5 v=0
1216260 On ch=1 n=a5 v=0
1216320 On ch=1 n=a#4 v=53
1216320 On ch=1 n=g5 v=53
1216500 On ch=1 n=g5 v=0
1216500 On ch=1 n=a#4 v=0
1216680 On ch=1 n=c5 v=53
1216800 On ch=1 n=c5 v=0
1216800 On ch=1 n=d#5 v=53
1216800 On ch=1 n=a4 v=53
1216980 On ch=1 n=a4 v=0
1216980 On ch=1 n=d#5 v=0
1217040 On ch=1 n=d5 v=53
1217040 On ch=1 n=a#4 v=53
1217220 On ch=1 n=a#4 v=0
1217220 On ch=1 n=d5 v=0
1217400 On ch=1 n=d5 v=53
1217520 On ch=1 n=d5 v=0
1217520 On ch=1 n=f#5 v=53
1217520 On ch=1 n=c5 v=53
1217700 On ch=1 n=c5 v=0
1217700 On ch=1 n=f#5 v=0
1217760 On ch=1 n=a#4 v=57
1217760 On ch=1 n=g5 v=57
1217940 On ch=1 n=g5 v=0
1217940 On ch=1 n=a#4 v=0
1218120 On ch=1 n=f#5 v=61
1218240 On ch=1 n=f#5 v=0
1218240 On ch=1 n=d5 v=61
1218240 On ch=1 n=a5 v=61
1218420 On ch=1 n=a5 v=0
1218420 On ch=1 n=d5 v=0
1218480 On ch=1 n=g5 v=65
1218480 On ch=1 n=a#5 v=65
1218660 On ch=1 n=a#5 v=0
1218660 On ch=1 n=g5 v=0
1218840 On ch=1 n=a5 v=69
1218960 On ch=1 n=a5 v=0
1218960 On ch=1 n=g5 v=69
1218960 On ch=1 n=c6 v=69
1219140 On ch=1 n=c6 v=0
1219140 On ch=1 n=g5 v=0
1219200 On ch=1 n=a#5 v=73
1219200 On ch=1 n=d6 v=73
1219380 On ch=1 n=d6 v=0
1219380 On ch=1 n=a#5 v=0
1219560 On ch=1 n=d#6 v=78
1219680 On ch=1 n=d#6 v=0
1219680 On ch=1 n=c6 v=78
1219680 On ch=1 n=g6 v=78
1219860 On ch=1 n=g6 v=0
1219860 On ch=1 n=c6 v=0
1219920 On ch=1 n=a#5 v=78
1219920 On ch=1 n=d6 v=78
1220100 On ch=1 n=d6 v=0
1220100 On ch=1 n=a#5 v=0
1220280 On ch=1 n=g5 v=65
1220400 On ch=1 n=g5 v=0
1220400 On ch=1 n=d5 v=65
1220400 On ch=1 n=a#5 v=65
1220580 On ch=1 n=a#5 v=0
1220580 On ch=1 n=d5 v=0
1220640 On ch=1 n=a5 v=65
1220820 On ch=1 n=a5 v=0
1221000 On ch=1 n=a5 v=65
1221120 On ch=1 n=a5 v=0
1221120 On ch=1 n=d#5 v=65
1221120 On ch=1 n=c6 v=65
1221300 On ch=1 n=c6 v=0
1221300 On ch=1 n=d#5 v=0
1221360 On ch=1 n=d5 v=65
1221360 On ch=1 n=a#5 v=65
1221540 On ch=1 n=a#5 v=0
1221540 On ch=1 n=d5 v=0
1221720 On ch=1 n=f#5 v=65
1221840 On ch=1 n=f#5 v=0
1221840 On ch=1 n=a5 v=65
1221840 On ch=1 n=c5 v=65
1222020 On ch=1 n=c5 v=0
1222020 On ch=1 n=a5 v=0
1222080 On ch=1 n=a#4 v=65
1222080 On ch=1 n=g5 v=65
1222260 On ch=1 n=g5 v=0
1222260 On ch=1 n=a#4 v=0
1222440 On ch=1 n=a#4 v=65
1222560 On ch=1 n=a#4 v=0
1222560 On ch=1 n=d5 v=65
1222740 On ch=1 n=d5 v=0
1222800 On ch=1 n=g4 v=65
1222980 On ch=1 n=g4 v=0
1223160 On ch=1 n=a3 v=102
1223280 On ch=1 n=a3 v=0
1223280 On ch=1 n=a3 v=102
1223460 On ch=1 n=a3 v=0
1223520 On ch=1 n=a3 v=102
1223880 On ch=1 n=a3 v=0
1223880 On ch=1 n=a#4 v=102
1223880 On ch=1 n=f4 v=102
1224000 On ch=1 n=f4 v=0
1224000 On ch=1 n=a#4 v=0
1224000 On ch=1 n=f4 v=102
1224000 On ch=1 n=a#4 v=102
1224240 On ch=1 n=a#4 v=0
1224240 On ch=1 n=f4 v=0
1224240 On ch=1 n=a#4 v=102
1224240 On ch=1 n=f4 v=102
1224600 On ch=1 n=f4 v=0
1224600 On ch=1 n=a#4 v=0
1224600 On ch=1 n=a4 v=102
1224720 On ch=1 n=a4 v=0
1224720 On ch=1 n=a4 v=102
1224960 On ch=1 n=a4 v=0
1224960 On ch=1 n=a4 v=102
1225320 On ch=1 n=a5 v=114
1225320 On ch=1 n=f5 v=114
1225440 On ch=1 n=f5 v=0
1225440 On ch=1 n=a5 v=0
1225440 On ch=1 n=a4 v=0
1225440 On ch=1 n=f5 v=114
1225440 On ch=1 n=a5 v=114
1225680 On ch=1 n=a5 v=0
1225680 On ch=1 n=f5 v=0
1225680 On ch=1 n=a5 v=114
1225680 On ch=1 n=f5 v=114
1225860 On ch=1 n=f5 v=0
1225860 On ch=1 n=a5 v=0
1226040 On ch=1 n=a3 v=102
1226160 On ch=1 n=a3 v=0
1226160 On ch=1 n=a3 v=102
1226340 On ch=1 n=a3 v=0
1226400 On ch=1 n=a3 v=102
1226760 On ch=1 n=a3 v=0
1226760 On ch=1 n=g4 v=102
1226760 On ch=1 n=a#4 v=102
1226880 On ch=1 n=a#4 v=0
1226880 On ch=1 n=g4 v=0
1226880 On ch=1 n=g4 v=102
1226880 On ch=1 n=a#4 v=102
1227120 On ch=1 n=a#4 v=0
1227120 On ch=1 n=g4 v=0
1227120 On ch=1 n=g4 v=102
1227120 On ch=1 n=a#4 v=102
1227480 On ch=1 n=a#4 v=0
1227480 On ch=1 n=g4 v=0
1227480 On ch=1 n=a4 v=102
1227600 On ch=1 n=a4 v=0
1227600 On ch=1 n=a4 v=102
1227840 On ch=1 n=a4 v=0
1227840 On ch=1 n=a4 v=102
1228200 On ch=1 n=g5 v=114
1228200 On ch=1 n=a5 v=114
1228320 On ch=1 n=a5 v=0
1228320 On ch=1 n=g5 v=0
1228320 On ch=1 n=a4 v=0
1228320 On ch=1 n=g5 v=114
1228320 On ch=1 n=a5 v=114
1228560 On ch=1 n=a5 v=0
1228560 On ch=1 n=g5 v=0
1228560 On ch=1 n=g5 v=114
1228560 On ch=1 n=a5 v=114
1228800 On ch=1 n=a5 v=0
1228800 On ch=1 n=g5 v=0
1228920 On ch=1 n=a3 v=102
1229040 On ch=1 n=a3 v=0
1229040 On ch=1 n=a3 v=102
1229220 On ch=1 n=a3 v=0
1229280 On ch=1 n=a3 v=102
1229640 On ch=1 n=a3 v=0
1229640 On ch=1 n=e5 v=102
1229760 On ch=1 n=e5 v=0
1229760 On ch=1 n=e5 v=102
1230000 On ch=1 n=e5 v=0
1230000 On ch=1 n=e5 v=102
1230360 On ch=1 n=e5 v=0
1230360 On ch=1 n=d5 v=102
1230480 On ch=1 n=d5 v=0
1230480 On ch=1 n=d5 v=102
1230720 On ch=1 n=d5 v=0
1230720 On ch=1 n=d5 v=102
1231080 On ch=1 n=a5 v=114
1231080 On ch=1 n=f5 v=114
1231200 On ch=1 n=f5 v=0
1231200 On ch=1 n=a5 v=0
1231200 On ch=1 n=d5 v=0
1231200 On ch=1 n=f5 v=114
1231200 On ch=1 n=a5 v=114
1231440 On ch=1 n=a5 v=0
1231440 On ch=1 n=f5 v=0
1231440 On ch=1 n=a5 v=114
1231440 On ch=1 n=f5 v=114
1231620 On ch=1 n=f5 v=0
1231620 On ch=1 n=a5 v=0
1231800 On ch=1 n=f4 v=102
1231920 On ch=1 n=f4 v=0
1231920 On ch=1 n=f4 v=102
1232100 On ch=1 n=f4 v=0
1232160 On ch=1 n=f4 v=102
1232520 On ch=1 n=f4 v=0
1232520 On ch=1 n=d5 v=102
1232520 On ch=1 n=g5 v=102
1232640 On ch=1 n=g5 v=0
1232640 On ch=1 n=d5 v=0
1232640 On ch=1 n=d5 v=102
1232640 On ch=1 n=g5 v=102
1232880 On ch=1 n=g5 v=0
1232880 On ch=1 n=d5 v=0
1232880 On ch=1 n=d5 v=102
1232880 On ch=1 n=g5 v=102
1233060 On ch=1 n=g5 v=0
1233060 On ch=1 n=d5 v=0
1233240 On ch=1 n=c5 v=114
1233240 On ch=1 n=g5 v=114
1233360 On ch=1 n=g5 v=0
1233360 On ch=1 n=c5 v=0
1233360 On ch=1 n=c5 v=114
1233360 On ch=1 n=g5 v=114
1233600 On ch=1 n=g5 v=0
1233600 On ch=1 n=c5 v=0
1233600 On ch=1 n=c5 v=114
1233600 On ch=1 n=g5 v=114
1233960 On ch=1 n=g5 v=0
1233960 On ch=1 n=c5 v=0
1233960 On ch=1 n=c6 v=114
1233960 On ch=1 n=c5 v=114
1234080 On ch=1 n=c5 v=0
1234080 On ch=1 n=c6 v=0
1234080 On ch=1 n=c5 v=114
1234080 On ch=1 n=c6 v=114
1234320 On ch=1 n=c6 v=0
1234320 On ch=1 n=c5 v=0
1234320 On ch=1 n=c5 v=114
1234320 On ch=1 n=c6 v=114
1234500 On ch=1 n=c6 v=0
1234500 On ch=1 n=c5 v=0
1234680 On ch=1 n=c4 v=90
1234800 On ch=1 n=c4 v=0
1234800 On ch=1 n=c4 v=90
1234980 On ch=1 n=c4 v=0
1235040 On ch=1 n=c4 v=96
1235400 On ch=1 n=a4 v=90
1235400 On ch=1 n=f4 v=90
1235520 On ch=1 n=c4 v=0
1235760 On ch=1 n=f4 v=0
1235760 On ch=1 n=a4 v=0
1235760 On ch=1 n=d4 v=96
1236120 On ch=1 n=a4 v=90
1236120 On ch=1 n=f4 v=90
1236240 On ch=1 n=d4 v=0
1236480 On ch=1 n=f4 v=0
1236480 On ch=1 n=a4 v=0
1236480 On ch=1 n=c4 v=96
1236840 On ch=1 n=c5 v=90
1236840 On ch=1 n=a4 v=90
1236960 On ch=1 n=c4 v=0
1237200 On ch=1 n=a4 v=0
1237200 On ch=1 n=c5 v=0
1237560 On ch=1 n=c5 v=92
1237680 On ch=1 n=c5 v=0
1237680 On ch=1 n=c6 v=92
1237920 On ch=1 n=c6 v=0
1237920 On ch=1 n=c4 v=100
1238280 On ch=1 n=g4 v=94
1238280 On ch=1 n=e4 v=94
1238400 On ch=1 n=c4 v=0
1238640 On ch=1 n=e4 v=0
1238640 On ch=1 n=g4 v=0
1238640 On ch=1 n=d4 v=103
1239000 On ch=1 n=g4 v=96
1239000 On ch=1 n=e4 v=96
1239120 On ch=1 n=d4 v=0
1239360 On ch=1 n=e4 v=0
1239360 On ch=1 n=g4 v=0
1239360 On ch=1 n=c4 v=105
1239720 On ch=1 n=c5 v=98
1239720 On ch=1 n=g4 v=98
1239840 On ch=1 n=c4 v=0
1240080 On ch=1 n=g4 v=0
1240080 On ch=1 n=c5 v=0
1240440 On ch=1 n=c5 v=100
1240560 On ch=1 n=c5 v=0
1240560 On ch=1 n=c6 v=100
1240800 On ch=1 n=c6 v=0
1240800 On ch=1 n=c4 v=108
1241160 On ch=1 n=a4 v=102
1241160 On ch=1 n=f4 v=102
1241280 On ch=1 n=c4 v=0
1241520 On ch=1 n=f4 v=0
1241520 On ch=1 n=a4 v=0
1241520 On ch=1 n=d4 v=108
1241880 On ch=1 n=a4 v=102
1241880 On ch=1 n=f4 v=102
1242000 On ch=1 n=d4 v=0
1242240 On ch=1 n=f4 v=0
1242240 On ch=1 n=a4 v=0
1242240 On ch=1 n=d#4 v=108
1242600 On ch=1 n=f#4 v=102
1242600 On ch=1 n=c5 v=102
1242720 On ch=1 n=d#4 v=0
1242960 On ch=1 n=c5 v=0
1242960 On ch=1 n=f#4 v=0
1243320 On ch=1 n=c5 v=102
1243440 On ch=1 n=c5 v=0
1243440 On ch=1 n=c6 v=102
1243680 On ch=1 n=c6 v=0
1243680 On ch=1 n=f4 v=108
1244040 On ch=1 n=b4 v=102
1244040 On ch=1 n=d5 v=102
1244160 On ch=1 n=d5 v=0
1244160 On ch=1 n=b4 v=0
1244160 On ch=1 n=f4 v=0
1244760 On ch=1 n=f5 v=108
1244880 On ch=1 n=f5 v=0
1244880 On ch=1 n=d6 v=102
1244880 On ch=1 n=g6 v=102
1245120 On ch=1 n=g6 v=0
1245120 On ch=1 n=d6 v=0
1245120 On ch=1 n=e4 v=108
1245480 On ch=1 n=c5 v=102
1245480 On ch=1 n=g4 v=102
1245600 On ch=1 n=g4 v=0
1245600 On ch=1 n=c5 v=0
1245600 On ch=1 n=e4 v=0
1245840 On ch=1 n=c6 v=127
1246020 On ch=1 n=c6 v=0
1246200 On ch=1 n=c4 v=102
1246320 On ch=1 n=c4 v=0
1246320 On ch=1 n=c4 v=102
1246560 On ch=1 n=c4 v=0
1246560 On ch=1 n=c4 v=96
1246920 On ch=1 n=a4 v=90
1246920 On ch=1 n=f4 v=90
1247040 On ch=1 n=c4 v=0
1247280 On ch=1 n=f4 v=0
1247280 On ch=1 n=a4 v=0
1247280 On ch=1 n=d4 v=96
1247640 On ch=1 n=a4 v=90
1247640 On ch=1 n=f4 v=90
1247760 On ch=1 n=d4 v=0
1248000 On ch=1 n=f4 v=0
1248000 On ch=1 n=a4 v=0
1248000 On ch=1 n=c4 v=96
1248360 On ch=1 n=c5 v=90
1248360 On ch=1 n=a4 v=90
1248480 On ch=1 n=c4 v=0
1248720 On ch=1 n=a4 v=0
1248720 On ch=1 n=c5 v=0
1249080 On ch=1 n=c5 v=92
1249200 On ch=1 n=c5 v=0
1249200 On ch=1 n=c6 v=92
1249440 On ch=1 n=c6 v=0
1249440 On ch=1 n=c4 v=100
1249800 On ch=1 n=g4 v=94
1249800 On ch=1 n=e4 v=94
1249920 On ch=1 n=c4 v=0
1250160 On ch=1 n=e4 v=0
1250160 On ch=1 n=g4 v=0
1250160 On ch=1 n=d4 v=103
1250520 On ch=1 n=g4 v=96
1250520 On ch=1 n=e4 v=96
1250640 On ch=1 n=d4 v=0
1250880 On ch=1 n=e4 v=0
1250880 On ch=1 n=g4 v=0
1250880 On ch=1 n=c4 v=105
1251240 On ch=1 n=c5 v=98
1251240 On ch=1 n=g4 v=98
1251360 On ch=1 n=c4 v=0
1251600 On ch=1 n=g4 v=0
1251600 On ch=1 n=c5 v=0
1251960 On ch=1 n=c5 v=100
1252080 On ch=1 n=c5 v=0
1252080 On ch=1 n=c6 v=100
1252320 On ch=1 n=c6 v=0
1252320 On ch=1 n=c4 v=108
1252680 On ch=1 n=a4 v=102
1252680 On ch=1 n=f4 v=102
1252800 On ch=1 n=c4 v=0
1253040 On ch=1 n=f4 v=0
1253040 On ch=1 n=a4 v=0
1253040 On ch=1 n=d4 v=108
1253400 On ch=1 n=a4 v=102
1253400 On ch=1 n=f4 v=102
1253520 On ch=1 n=d4 v=0
1253760 On ch=1 n=f4 v=0
1253760 On ch=1 n=a4 v=0
1253760 On ch=1 n=d#4 v=108
1254120 On ch=1 n=f#4 v=102
1254120 On ch=1 n=c5 v=102
1254240 On ch=1 n=d#4 v=0
1254480 On ch=1 n=c5 v=0
1254480 On ch=1 n=f#4 v=0
1254840 On ch=1 n=c5 v=102
1254960 On ch=1 n=c5 v=0
1254960 On ch=1 n=c6 v=102
1255200 On ch=1 n=c6 v=0
1255200 On ch=1 n=f4 v=108
1255560 On ch=1 n=b4 v=102
1255560 On ch=1 n=d5 v=102
1255680 On ch=1 n=d5 v=0
1255680 On ch=1 n=b4 v=0
1255680 On ch=1 n=f4 v=0
1256280 On ch=1 n=f5 v=108
1256400 On ch=1 n=f5 v=0
1256400 On ch=1 n=d6 v=102
1256400 On ch=1 n=g6 v=102
1256640 On ch=1 n=g6 v=0
1256640 On ch=1 n=d6 v=0
1256640 On ch=1 n=e4 v=108
1257000 On ch=1 n=c5 v=102
1257000 On ch=1 n=g4 v=102
1257120 On ch=1 n=g4 v=0
1257120 On ch=1 n=c5 v=0
1257120 On ch=1 n=e4 v=0
1257360 On ch=1 n=c6 v=127
1257540 On ch=1 n=c6 v=0
1257720 On ch=1 n=c4 v=102
1257840 On ch=1 n=c4 v=0
1257840 On ch=1 n=c4 v=102
1258080 On ch=1 n=c4 v=0
1258080 On ch=1 n=c4 v=108
1258440 On ch=1 n=d#5 v=102
1258440 On ch=1 n=a4 v=102
1258560 On ch=1 n=a4 v=0
1258560 On ch=1 n=d#5 v=0
1258560 On ch=1 n=c4 v=0
1258560 On ch=1 n=a4 v=102
1258560 On ch=1 n=d#5 v=102
1258800 On ch=1 n=d#5 v=0
1258800 On ch=1 n=a4 v=0
1258800 On ch=1 n=a4 v=102
1258800 On ch=1 n=d#5 v=102
1259160 On ch=1 n=d#5 v=0
1259160 On ch=1 n=a4 v=0
1259160 On ch=1 n=d5 v=102
1259280 On ch=1 n=d5 v=0
1259280 On ch=1 n=d5 v=102
1259520 On ch=1 n=d5 v=0
1259520 On ch=1 n=d5 v=108
1259880 On ch=1 n=a5 v=102
1259880 On ch=1 n=f#5 v=102
1260000 On ch=1 n=f#5 v=0
1260000 On ch=1 n=a5 v=0
1260000 On ch=1 n=d5 v=0
1260000 On ch=1 n=f#5 v=102
1260000 On ch=1 n=a5 v=102
1260240 On ch=1 n=a5 v=0
1260240 On ch=1 n=f#5 v=0
1260240 On ch=1 n=f#5 v=102
1260240 On ch=1 n=a5 v=102
1260420 On ch=1 n=a5 v=0
1260420 On ch=1 n=f#5 v=0
1260600 On ch=1 n=d4 v=102
1260720 On ch=1 n=d4 v=0
1260720 On ch=1 n=d4 v=102
1260960 On ch=1 n=d4 v=0
1260960 On ch=1 n=d4 v=108
1261320 On ch=1 n=a#4 v=102
1261320 On ch=1 n=d#5 v=102
1261440 On ch=1 n=d#5 v=0
1261440 On ch=1 n=a#4 v=0
1261440 On ch=1 n=d4 v=0
1261440 On ch=1 n=a#4 v=102
1261440 On ch=1 n=d#5 v=102
1261680 On ch=1 n=d#5 v=0
1261680 On ch=1 n=a#4 v=0
1261680 On ch=1 n=a#4 v=102
1261680 On ch=1 n=d#5 v=102
1262040 On ch=1 n=d#5 v=0
1262040 On ch=1 n=a#4 v=0
1262040 On ch=1 n=d5 v=102
1262160 On ch=1 n=d5 v=0
1262160 On ch=1 n=d5 v=102
1262400 On ch=1 n=d5 v=0
1262400 On ch=1 n=d5 v=108
1262760 On ch=1 n=a#5 v=102
1262760 On ch=1 n=g5 v=102
1262880 On ch=1 n=g5 v=0
1262880 On ch=1 n=a#5 v=0
1262880 On ch=1 n=d5 v=0
1262880 On ch=1 n=a#5 v=102
1262880 On ch=1 n=g5 v=102
1263120 On ch=1 n=g5 v=0
1263120 On ch=1 n=a#5 v=0
1263120 On ch=1 n=a#5 v=102
1263120 On ch=1 n=g5 v=102
1263300 On ch=1 n=g5 v=0
1263300 On ch=1 n=a#5 v=0
1263480 On ch=1 n=e4 v=102
1263600 On ch=1 n=e4 v=0
1263600 On ch=1 n=e4 v=102
1263840 On ch=1 n=e4 v=0
1263840 On ch=1 n=e4 v=110
1264200 On ch=1 n=f5 v=104
1264200 On ch=1 n=b4 v=104
1264320 On ch=1 n=b4 v=0
1264320 On ch=1 n=f5 v=0
1264320 On ch=1 n=e4 v=0
1264320 On ch=1 n=f5 v=104
1264320 On ch=1 n=b4 v=104
1264560 On ch=1 n=b4 v=0
1264560 On ch=1 n=f5 v=0
1264560 On ch=1 n=f5 v=104
1264560 On ch=1 n=b4 v=104
1264920 On ch=1 n=b4 v=0
1264920 On ch=1 n=f5 v=0
1264920 On ch=1 n=e5 v=104
1265040 On ch=1 n=e5 v=0
1265040 On ch=1 n=e5 v=104
1265280 On ch=1 n=e5 v=0
1265280 On ch=1 n=e5 v=113
1265640 On ch=1 n=a#5 v=107
1265640 On ch=1 n=g#5 v=107
1265760 On ch=1 n=g#5 v=0
1265760 On ch=1 n=a#5 v=0
1265760 On ch=1 n=e5 v=0
1265760 On ch=1 n=a#5 v=107
1265760 On ch=1 n=g#5 v=107
1266000 On ch=1 n=g#5 v=0
1266000 On ch=1 n=a#5 v=0
1266000 On ch=1 n=a#5 v=107
1266000 On ch=1 n=g#5 v=107
1266180 On ch=1 n=g#5 v=0
1266180 On ch=1 n=a#5 v=0
1266360 On ch=1 n=e4 v=107
1266480 On ch=1 n=e4 v=0
1266480 On ch=1 n=e4 v=107
1266720 On ch=1 n=e4 v=0
1266720 On ch=1 n=e4 v=116
1267080 On ch=1 n=c5 v=109
1267080 On ch=1 n=f5 v=109
1267200 On ch=1 n=f5 v=0
1267200 On ch=1 n=c5 v=0
1267200 On ch=1 n=e4 v=0
1267200 On ch=1 n=c5 v=109
1267200 On ch=1 n=f5 v=109
1267440 On ch=1 n=f5 v=0
1267440 On ch=1 n=c5 v=0
1267440 On ch=1 n=c5 v=109
1267440 On ch=1 n=f5 v=109
1267800 On ch=1 n=f5 v=0
1267800 On ch=1 n=c5 v=0
1267800 On ch=1 n=e5 v=109
1267920 On ch=1 n=e5 v=0
1267920 On ch=1 n=e5 v=109
1268160 On ch=1 n=e5 v=0
1268160 On ch=1 n=e5 v=118
1268520 On ch=1 n=a5 v=111
1268520 On ch=1 n=c6 v=111
1268640 On ch=1 n=c6 v=0
1268640 On ch=1 n=a5 v=0
1268640 On ch=1 n=e5 v=0
1268640 On ch=1 n=a5 v=111
1268640 On ch=1 n=c6 v=111
1268880 On ch=1 n=c6 v=0
1268880 On ch=1 n=a5 v=0
1268880 On ch=1 n=a5 v=111
1268880 On ch=1 n=c6 v=111
1269060 On ch=1 n=c6 v=0
1269060 On ch=1 n=a5 v=0
1269240 On ch=1 n=a4 v=114
1269360 On ch=1 n=a4 v=0
1269360 On ch=1 n=a4 v=114
1269600 On ch=1 n=a4 v=0
1269600 On ch=1 n=a4 v=114
1269960 On ch=1 n=f5 v=114
1269960 On ch=1 n=b5 v=114
1270080 On ch=1 n=b5 v=0
1270080 On ch=1 n=f5 v=0
1270080 On ch=1 n=a4 v=0
1270080 On ch=1 n=f5 v=114
1270080 On ch=1 n=b5 v=114
1270320 On ch=1 n=b5 v=0
1270320 On ch=1 n=f5 v=0
1270320 On ch=1 n=f5 v=114
1270320 On ch=1 n=b5 v=114
1270680 On ch=1 n=b5 v=0
1270680 On ch=1 n=f5 v=0
1270680 On ch=1 n=f6 v=114
1270800 On ch=1 n=f6 v=0
1270800 On ch=1 n=f6 v=114
1271040 On ch=1 n=f6 v=0
1271040 On ch=1 n=f6 v=121
1271400 On ch=1 n=b5 v=114
1271400 On ch=1 n=f5 v=114
1271520 On ch=1 n=f5 v=0
1271520 On ch=1 n=b5 v=0
1271520 On ch=1 n=f6 v=0
1271520 On ch=1 n=b5 v=114
1271520 On ch=1 n=f5 v=114
1271760 On ch=1 n=f5 v=0
1271760 On ch=1 n=b5 v=0
1271760 On ch=1 n=b5 v=114
1271760 On ch=1 n=f5 v=114
1271940 On ch=1 n=f5 v=0
1271940 On ch=1 n=b5 v=0
1272120 On ch=1 n=f5 v=114
1272240 On ch=1 n=f5 v=0
1272240 On ch=1 n=f5 v=114
1272480 On ch=1 n=f5 v=0
1272480 On ch=1 n=f5 v=114
1272840 On ch=1 n=b5 v=114
1272840 On ch=1 n=d6 v=114
1272960 On ch=1 n=d6 v=0
1272960 On ch=1 n=b5 v=0
1272960 On ch=1 n=f5 v=0
1272960 On ch=1 n=b5 v=114
1272960 On ch=1 n=d6 v=114
1273200 On ch=1 n=d6 v=0
1273200 On ch=1 n=b5 v=0
1273200 On ch=1 n=b5 v=114
1273200 On ch=1 n=d6 v=114
1273560 On ch=1 n=d6 v=0
1273560 On ch=1 n=b5 v=0
1273560 On ch=1 n=a5 v=114
1273680 On ch=1 n=a5 v=0
1273680 On ch=1 n=a5 v=114
1273920 On ch=1 n=a5 v=0
1273920 On ch=1 n=a5 v=121
1274280 On ch=1 n=b5 v=114
1274280 On ch=1 n=d6 v=114
1274400 On ch=1 n=d6 v=0
1274400 On ch=1 n=b5 v=0
1274400 On ch=1 n=a5 v=0
1274400 On ch=1 n=b5 v=114
1274400 On ch=1 n=d6 v=114
1274640 On ch=1 n=d6 v=0
1274640 On ch=1 n=b5 v=0
1274640 On ch=1 n=b5 v=114
1274640 On ch=1 n=d6 v=114
1274820 On ch=1 n=d6 v=0
1274820 On ch=1 n=b5 v=0
1275000 On ch=1 n=g#4 v=114
1275120 On ch=1 n=g#4 v=0
1275120 On ch=1 n=g#4 v=114
1275360 On ch=1 n=g#4 v=0
1275360 On ch=1 n=g#4 v=114
1275720 On ch=1 n=b5 v=114
1275720 On ch=1 n=e5 v=114
1275840 On ch=1 n=e5 v=0
1275840 On ch=1 n=b5 v=0
1275840 On ch=1 n=g#4 v=0
1275840 On ch=1 n=b5 v=114
1275840 On ch=1 n=e5 v=114
1276080 On ch=1 n=e5 v=0
1276080 On ch=1 n=b5 v=0
1276080 On ch=1 n=b5 v=114
1276080 On ch=1 n=e5 v=114
1276440 On ch=1 n=e5 v=0
1276440 On ch=1 n=b5 v=0
1276440 On ch=1 n=e6 v=114
1276560 On ch=1 n=e6 v=0
1276560 On ch=1 n=e6 v=114
1276800 On ch=1 n=e6 v=0
1276800 On ch=1 n=e6 v=121
1277160 On ch=1 n=b5 v=114
1277160 On ch=1 n=e5 v=114
1277280 On ch=1 n=e5 v=0
1277280 On ch=1 n=b5 v=0
1277280 On ch=1 n=e6 v=0
1277280 On ch=1 n=b5 v=114
1277280 On ch=1 n=e5 v=114
1277520 On ch=1 n=e5 v=0
1277520 On ch=1 n=b5 v=0
1277520 On ch=1 n=b5 v=114
1277520 On ch=1 n=e5 v=114
1277700 On ch=1 n=e5 v=0
1277700 On ch=1 n=b5 v=0
1277880 On ch=1 n=d5 v=114
1278000 On ch=1 n=d5 v=0
1278000 On ch=1 n=d5 v=114
1278240 On ch=1 n=d5 v=0
1278240 On ch=1 n=d5 v=114
1278600 On ch=1 n=g#5 v=114
1278600 On ch=1 n=b5 v=114
1278720 On ch=1 n=b5 v=0
1278720 On ch=1 n=g#5 v=0
1278720 On ch=1 n=d5 v=0
1278720 On ch=1 n=g#5 v=114
1278720 On ch=1 n=b5 v=114
1278960 On ch=1 n=b5 v=0
1278960 On ch=1 n=g#5 v=0
1278960 On ch=1 n=g#5 v=114
1278960 On ch=1 n=b5 v=114
1279320 On ch=1 n=b5 v=0
1279320 On ch=1 n=g#5 v=0
1279320 On ch=1 n=e5 v=114
1279440 On ch=1 n=e5 v=0
1279440 On ch=1 n=e5 v=114
1279680 On ch=1 n=e5 v=0
1279680 On ch=1 n=e5 v=121
1280040 On ch=1 n=g#5 v=114
1280040 On ch=1 n=b5 v=114
1280160 On ch=1 n=b5 v=0
1280160 On ch=1 n=g#5 v=0
1280160 On ch=1 n=e5 v=0
1280160 On ch=1 n=g#5 v=114
1280160 On ch=1 n=b5 v=114
1280400 On ch=1 n=b5 v=0
1280400 On ch=1 n=g#5 v=0
1280400 On ch=1 n=g#5 v=114
1280400 On ch=1 n=b5 v=114
1280580 On ch=1 n=b5 v=0
1280580 On ch=1 n=g#5 v=0
1280760 On ch=1 n=e4 v=90
1280880 On ch=1 n=e4 v=0
1280880 On ch=1 n=e4 v=90
1281120 On ch=1 n=e4 v=0
1281120 On ch=1 n=e4 v=96
1281480 On ch=1 n=c5 v=90
1281480 On ch=1 n=f5 v=90
1281600 On ch=1 n=f5 v=0
1281600 On ch=1 n=c5 v=0
1281600 On ch=1 n=e4 v=0
1281600 On ch=1 n=f5 v=90
1281600 On ch=1 n=c5 v=90
1281840 On ch=1 n=c5 v=0
1281840 On ch=1 n=f5 v=0
1281840 On ch=1 n=f5 v=90
1281840 On ch=1 n=c5 v=90
1282200 On ch=1 n=c5 v=0
1282200 On ch=1 n=f5 v=0
1282200 On ch=1 n=e5 v=90
1282320 On ch=1 n=e5 v=0
1282320 On ch=1 n=e5 v=90
1282560 On ch=1 n=e5 v=0
1282560 On ch=1 n=e5 v=96
1282920 On ch=1 n=c6 v=90
1282920 On ch=1 n=a5 v=90
1283040 On ch=1 n=a5 v=0
1283040 On ch=1 n=c6 v=0
1283040 On ch=1 n=e5 v=0
1283040 On ch=1 n=c6 v=90
1283040 On ch=1 n=a5 v=90
1283280 On ch=1 n=a5 v=0
1283280 On ch=1 n=c6 v=0
1283280 On ch=1 n=c6 v=90
1283280 On ch=1 n=a5 v=90
1283460 On ch=1 n=a5 v=0
1283460 On ch=1 n=c6 v=0
1283640 On ch=1 n=e4 v=90
1283760 On ch=1 n=e4 v=0
1283760 On ch=1 n=e4 v=90
1284000 On ch=1 n=e4 v=0
1284000 On ch=1 n=e4 v=96
1284360 On ch=1 n=d5 v=90
1284360 On ch=1 n=f5 v=90
1284480 On ch=1 n=f5 v=0
1284480 On ch=1 n=d5 v=0
1284480 On ch=1 n=e4 v=0
1284480 On ch=1 n=d5 v=90
1284480 On ch=1 n=f5 v=90
1284720 On ch=1 n=f5 v=0
1284720 On ch=1 n=d5 v=0
1284720 On ch=1 n=d5 v=92
1284720 On ch=1 n=f5 v=92
1285080 On ch=1 n=f5 v=0
1285080 On ch=1 n=d5 v=0
1285080 On ch=1 n=e5 v=92
1285200 On ch=1 n=e5 v=0
1285200 On ch=1 n=e5 v=92
1285440 On ch=1 n=e5 v=0
1285440 On ch=1 n=e5 v=100
1285800 On ch=1 n=b5 v=94
1285800 On ch=1 n=d6 v=94
1285920 On ch=1 n=d6 v=0
1285920 On ch=1 n=b5 v=0
1285920 On ch=1 n=e5 v=0
1285920 On ch=1 n=b5 v=94
1285920 On ch=1 n=d6 v=94
1286160 On ch=1 n=d6 v=0
1286160 On ch=1 n=b5 v=0
1286160 On ch=1 n=b5 v=94
1286160 On ch=1 n=d6 v=94
1286340 On ch=1 n=d6 v=0
1286340 On ch=1 n=b5 v=0
1286520 On ch=1 n=e4 v=94
1286640 On ch=1 n=e4 v=0
1286640 On ch=1 n=e4 v=94
1286880 On ch=1 n=e4 v=0
1286880 On ch=1 n=e4 v=97
1287240 On ch=1 n=b5 v=97
1287360 On ch=1 n=b5 v=0
1287360 On ch=1 n=e4 v=0
1287360 On ch=1 n=b5 v=97
1287600 On ch=1 n=b5 v=0
1287600 On ch=1 n=b5 v=97
1287960 On ch=1 n=b5 v=0
1287960 On ch=1 n=a5 v=97
1288080 On ch=1 n=a5 v=0
1288080 On ch=1 n=a5 v=97
1288320 On ch=1 n=a5 v=0
1288320 On ch=1 n=a5 v=99
1288680 On ch=1 n=c6 v=99
1288680 On ch=1 n=e6 v=99
1288800 On ch=1 n=e6 v=0
1288800 On ch=1 n=c6 v=0
1288800 On ch=1 n=a5 v=0
1288800 On ch=1 n=c6 v=99
1288800 On ch=1 n=e6 v=99
1289040 On ch=1 n=e6 v=0
1289040 On ch=1 n=c6 v=0
1289040 On ch=1 n=c6 v=99
1289040 On ch=1 n=e6 v=99
1289220 On ch=1 n=e6 v=0
1289220 On ch=1 n=c6 v=0
1289400 On ch=1 n=c5 v=102
1289520 On ch=1 n=c5 v=0
1289520 On ch=1 n=c5 v=102
1289760 On ch=1 n=c5 v=0
1289760 On ch=1 n=c5 v=102
1290120 On ch=1 n=a5 v=105
1290120 On ch=1 n=d6 v=105
1290240 On ch=1 n=d6 v=0
1290240 On ch=1 n=a5 v=0
1290240 On ch=1 n=c5 v=0
1290240 On ch=1 n=a5 v=108
1290240 On ch=1 n=d6 v=108
1290480 On ch=1 n=d6 v=0
1290480 On ch=1 n=a5 v=0
1290480 On ch=1 n=a5 v=111
1290480 On ch=1 n=d6 v=111
1290660 On ch=1 n=d6 v=0
1290660 On ch=1 n=a5 v=0
1290840 On ch=1 n=d6 v=114
1290840 On ch=1 n=a5 v=114
1290960 On ch=1 n=a5 v=0
1290960 On ch=1 n=d6 v=0
1290960 On ch=1 n=d6 v=114
1290960 On ch=1 n=a5 v=114
1291140 On ch=1 n=a5 v=0
1291140 On ch=1 n=d6 v=0
1291200 On ch=1 n=g5 v=114
1291200 On ch=1 n=d6 v=114
1291380 On ch=1 n=d6 v=0
1291380 On ch=1 n=g5 v=0
1291560 On ch=1 n=g6 v=114
1291560 On ch=1 n=g5 v=114
1291680 On ch=1 n=g5 v=0
1291680 On ch=1 n=g6 v=0
1291680 On ch=1 n=g6 v=114
1291680 On ch=1 n=g5 v=114
1291920 On ch=1 n=g5 v=0
1291920 On ch=1 n=g6 v=0
1291920 On ch=1 n=g6 v=84
1291920 On ch=1 n=g5 v=84
1292100 On ch=1 n=g5 v=0
1292100 On ch=1 n=g6 v=0
1292280 On ch=1 n=g5 v=65
1292400 On ch=1 n=g5 v=0
1292400 On ch=1 n=f5 v=65
1292400 On ch=1 n=b5 v=65
1292580 On ch=1 n=b5 v=0
1292580 On ch=1 n=f5 v=0
1292640 On ch=1 n=d#5 v=65
1292640 On ch=1 n=c6 v=65
1292820 On ch=1 n=c6 v=0
1292820 On ch=1 n=d#5 v=0
1293000 On ch=1 n=b5 v=65
1293120 On ch=1 n=b5 v=0
1293120 On ch=1 n=g5 v=65
1293120 On ch=1 n=d6 v=65
1293300 On ch=1 n=d6 v=0
1293300 On ch=1 n=g5 v=0
1293360 On ch=1 n=c6 v=65
1293360 On ch=1 n=d#6 v=65
1293540 On ch=1 n=d#6 v=0
1293540 On ch=1 n=c6 v=0
1293720 On ch=1 n=d6 v=65
1293840 On ch=1 n=d6 v=0
1293840 On ch=1 n=c6 v=73
1293840 On ch=1 n=f6 v=73
1294020 On ch=1 n=f6 v=0
1294020 On ch=1 n=c6 v=0
1294080 On ch=1 n=d#6 v=81
1294080 On ch=1 n=g6 v=81
1294260 On ch=1 n=g6 v=0
1294260 On ch=1 n=d#6 v=0
1294440 On ch=1 n=g#6 v=88
1294560 On ch=1 n=g#6 v=0
1294560 On ch=1 n=f6 v=91
1294560 On ch=1 n=c7 v=91
1294740 On ch=1 n=c7 v=0
1294740 On ch=1 n=f6 v=0
1294800 On ch=1 n=d#6 v=80
1294800 On ch=1 n=g6 v=80
1294980 On ch=1 n=g6 v=0
1294980 On ch=1 n=d#6 v=0
1295160 On ch=1 n=c6 v=65
1295280 On ch=1 n=c6 v=0
1295280 On ch=1 n=g5 v=65
1295280 On ch=1 n=d#6 v=65
1295460 On ch=1 n=d#6 v=0
1295460 On ch=1 n=g5 v=0
1295520 On ch=1 n=d6 v=65
1295700 On ch=1 n=d6 v=0
1295880 On ch=1 n=d6 v=65
1296000 On ch=1 n=d6 v=0
1296000 On ch=1 n=g#5 v=65
1296000 On ch=1 n=f6 v=65
1296180 On ch=1 n=f6 v=0
1296180 On ch=1 n=g#5 v=0
1296240 On ch=1 n=g5 v=65
1296240 On ch=1 n=d#6 v=65
1296420 On ch=1 n=d#6 v=0
1296420 On ch=1 n=g5 v=0
1296600 On ch=1 n=b5 v=65
1296720 On ch=1 n=b5 v=0
1296720 On ch=1 n=d6 v=65
1296720 On ch=1 n=f5 v=65
1296900 On ch=1 n=f5 v=0
1296900 On ch=1 n=d6 v=0
1296960 On ch=1 n=d#5 v=65
1296960 On ch=1 n=c6 v=65
1297140 On ch=1 n=c6 v=0
1297140 On ch=1 n=d#5 v=0
1297320 On ch=1 n=f5 v=65
1297440 On ch=1 n=f5 v=0
1297440 On ch=1 n=g#5 v=65
1297440 On ch=1 n=d5 v=65
1297620 On ch=1 n=d5 v=0
1297620 On ch=1 n=g#5 v=0
1297680 On ch=1 n=g5 v=65
1297680 On ch=1 n=d#5 v=65
1297860 On ch=1 n=d#5 v=0
1297860 On ch=1 n=g5 v=0
1298040 On ch=1 n=d5 v=65
1298160 On ch=1 n=d5 v=0
1298160 On ch=1 n=f#5 v=65
1298160 On ch=1 n=c5 v=65
1298340 On ch=1 n=c5 v=0
1298340 On ch=1 n=f#5 v=0
1298400 On ch=1 n=a#4 v=65
1298400 On ch=1 n=g5 v=65
1298580 On ch=1 n=g5 v=0
1298580 On ch=1 n=a#4 v=0
1298760 On ch=1 n=f#5 v=65
1298880 On ch=1 n=f#5 v=0
1298880 On ch=1 n=d5 v=65
1298880 On ch=1 n=a5 v=65
1299060 On ch=1 n=a5 v=0
1299060 On ch=1 n=d5 v=0
1299120 On ch=1 n=g5 v=65
1299120 On ch=1 n=a#5 v=65
1299300 On ch=1 n=a#5 v=0
1299300 On ch=1 n=g5 v=0
1299480 On ch=1 n=a5 v=65
1299600 On ch=1 n=a5 v=0
1299600 On ch=1 n=g5 v=74
1299600 On ch=1 n=c6 v=74
1299780 On ch=1 n=c6 v=0
1299780 On ch=1 n=g5 v=0
1299840 On ch=1 n=a#5 v=81
1299840 On ch=1 n=d6 v=81
1300020 On ch=1 n=d6 v=0
1300020 On ch=1 n=a#5 v=0
1300200 On ch=1 n=d#6 v=89
1300320 On ch=1 n=d#6 v=0
1300320 On ch=1 n=c6 v=96
1300320 On ch=1 n=g6 v=96
1300500 On ch=1 n=g6 v=0
1300500 On ch=1 n=c6 v=0
1300560 On ch=1 n=a#5 v=80
1300560 On ch=1 n=d6 v=80
1300740 On ch=1 n=d6 v=0
1300740 On ch=1 n=a#5 v=0
1300920 On ch=1 n=g5 v=65
1301040 On ch=1 n=g5 v=0
1301040 On ch=1 n=d5 v=65
1301040 On ch=1 n=a#5 v=65
1301220 On ch=1 n=a#5 v=0
1301220 On ch=1 n=d5 v=0
1301280 On ch=1 n=a5 v=65
1301460 On ch=1 n=a5 v=0
1301640 On ch=1 n=a5 v=65
1301760 On ch=1 n=a5 v=0
1301760 On ch=1 n=d#5 v=65
1301760 On ch=1 n=c6 v=65
1301940 On ch=1 n=c6 v=0
1301940 On ch=1 n=d#5 v=0
1302000 On ch=1 n=d5 v=65
1302000 On ch=1 n=a#5 v=65
1302180 On ch=1 n=a#5 v=0
1302180 On ch=1 n=d5 v=0
1302360 On ch=1 n=f#5 v=65
1302480 On ch=1 n=f#5 v=0
1302480 On ch=1 n=a5 v=65
1302480 On ch=1 n=c5 v=65
1302660 On ch=1 n=c5 v=0
1302660 On ch=1 n=a5 v=0
1302720 On ch=1 n=a#4 v=65
1302720 On ch=1 n=g5 v=65
1302900 On ch=1 n=g5 v=0
1302900 On ch=1 n=a#4 v=0
1303080 On ch=1 n=c5 v=65
1303200 On ch=1 n=c5 v=0
1303200 On ch=1 n=a4 v=65
1303200 On ch=1 n=d#5 v=65
1303380 On ch=1 n=d#5 v=0
1303380 On ch=1 n=a4 v=0
1303440 On ch=1 n=d5 v=65
1303440 On ch=1 n=a#4 v=65
1303620 On ch=1 n=a#4 v=0
1303620 On ch=1 n=d5 v=0
1303800 On ch=1 n=d5 v=53
1303920 On ch=1 n=d5 v=0
1303920 On ch=1 n=f#5 v=53
1303920 On ch=1 n=c5 v=53
1304100 On ch=1 n=c5 v=0
1304100 On ch=1 n=f#5 v=0
1304160 On ch=1 n=a#4 v=53
1304160 On ch=1 n=g5 v=53
1304340 On ch=1 n=g5 v=0
1304340 On ch=1 n=a#4 v=0
1304520 On ch=1 n=f#5 v=53
1304640 On ch=1 n=f#5 v=0
1304640 On ch=1 n=d5 v=53
1304640 On ch=1 n=a5 v=53
1304820 On ch=1 n=a5 v=0
1304820 On ch=1 n=d5 v=0
1304880 On ch=1 n=g5 v=53
1304880 On ch=1 n=a#5 v=53
1305060 On ch=1 n=a#5 v=0
1305060 On ch=1 n=g5 v=0
1305240 On ch=1 n=a5 v=53
1305360 On ch=1 n=a5 v=0
1305360 On ch=1 n=g5 v=61
1305360 On ch=1 n=c6 v=61
1305540 On ch=1 n=c6 v=0
1305540 On ch=1 n=g5 v=0
1305600 On ch=1 n=a#5 v=66
1305600 On ch=1 n=d6 v=66
1305780 On ch=1 n=d6 v=0
1305780 On ch=1 n=a#5 v=0
1305960 On ch=1 n=d#6 v=73
1306080 On ch=1 n=d#6 v=0
1306080 On ch=1 n=c6 v=79
1306080 On ch=1 n=g6 v=79
1306260 On ch=1 n=g6 v=0
1306260 On ch=1 n=c6 v=0
1306320 On ch=1 n=a#5 v=66
1306320 On ch=1 n=d6 v=66
1306500 On ch=1 n=d6 v=0
1306500 On ch=1 n=a#5 v=0
1306680 On ch=1 n=g5 v=53
1306800 On ch=1 n=g5 v=0
1306800 On ch=1 n=d5 v=53
1306800 On ch=1 n=a#5 v=53
1306980 On ch=1 n=a#5 v=0
1306980 On ch=1 n=d5 v=0
1307040 On ch=1 n=a5 v=53
1307220 On ch=1 n=a5 v=0
1307400 On ch=1 n=a5 v=53
1307520 On ch=1 n=a5 v=0
1307520 On ch=1 n=d#5 v=53
1307520 On ch=1 n=c6 v=53
1307700 On ch=1 n=c6 v=0
1307700 On ch=1 n=d#5 v=0
1307760 On ch=1 n=d5 v=53
1307760 On ch=1 n=a#5 v=53
1307940 On ch=1 n=a#5 v=0
1307940 On ch=1 n=d5 v=0
1308120 On ch=1 n=f#5 v=53
1308240 On ch=1 n=f#5 v=0
1308240 On ch=1 n=a5 v=53
1308240 On ch=1 n=c5 v=53
1308420 On ch=1 n=c5 v=0
1308420 On ch=1 n=a5 v=0
1308480 On ch=1 n=a#4 v=53
1308480 On ch=1 n=g5 v=53
1308660 On ch=1 n=g5 v=0
1308660 On ch=1 n=a#4 v=0
1308840 On ch=1 n=a#4 v=53
1308960 On ch=1 n=a#4 v=0
1308960 On ch=1 n=d5 v=53
1309140 On ch=1 n=d5 v=0
1309200 On ch=1 n=g4 v=53
1309380 On ch=1 n=g4 v=0
1309560 On ch=1 n=a#4 v=65
1309680 On ch=1 n=a#4 v=0
1309680 On ch=1 n=d5 v=65
1309680 On ch=1 n=g4 v=65
1309860 On ch=1 n=g4 v=0
1309860 On ch=1 n=d5 v=0
1309920 On ch=1 n=f#4 v=69
1309920 On ch=1 n=d5 v=69
1310100 On ch=1 n=d5 v=0
1310100 On ch=1 n=f#4 v=0
1310280 On ch=1 n=a#4 v=69
1310400 On ch=1 n=a#4 v=0
1310400 On ch=1 n=g4 v=69
1310400 On ch=1 n=e5 v=69
1310580 On ch=1 n=e5 v=0
1310580 On ch=1 n=g4 v=0
1310640 On ch=1 n=a4 v=73
1310640 On ch=1 n=f#5 v=73
1310820 On ch=1 n=a4 v=0
1310880 On ch=1 n=f#5 v=0
1311000 On ch=1 n=d5 v=73
1311120 On ch=1 n=d5 v=0
1311120 On ch=1 n=a#4 v=73
1311120 On ch=1 n=g5 v=73
1311300 On ch=1 n=g5 v=0
1311300 On ch=1 n=a#4 v=0
1311360 On ch=1 n=c5 v=77
1311360 On ch=1 n=a5 v=77
1311540 On ch=1 n=a5 v=0
1311540 On ch=1 n=c5 v=0
1311720 On ch=1 n=f5 v=77
1311840 On ch=1 n=f5 v=0
1311840 On ch=1 n=d5 v=77
1311840 On ch=1 n=b5 v=77
1312020 On ch=1 n=b5 v=0
1312020 On ch=1 n=d5 v=0
1312080 On ch=1 n=d#5 v=81
1312080 On ch=1 n=c6 v=81
1312260 On ch=1 n=d#5 v=0
1312320 On ch=1 n=c6 v=0
1312440 On ch=1 n=g#5 v=81
1312560 On ch=1 n=g#5 v=0
1312560 On ch=1 n=f5 v=81
1312560 On ch=1 n=d6 v=81
1312740 On ch=1 n=d6 v=0
1312740 On ch=1 n=f5 v=0
1312800 On ch=1 n=d#5 v=85
1312800 On ch=1 n=c6 v=85
1312980 On ch=1 n=c6 v=0
1312980 On ch=1 n=d#5 v=0
1313160 On ch=1 n=g5 v=93
1313280 On ch=1 n=g5 v=0
1313280 On ch=1 n=d5 v=85
1313280 On ch=1 n=b5 v=85
1313460 On ch=1 n=b5 v=0
1313460 On ch=1 n=d5 v=0
1313520 On ch=1 n=d#5 v=85
1313520 On ch=1 n=c6 v=85
1313700 On ch=1 n=d#5 v=0
1313760 On ch=1 n=c6 v=0
1313880 On ch=1 n=g#5 v=93
1314000 On ch=1 n=g#5 v=0
1314000 On ch=1 n=f5 v=81
1314000 On ch=1 n=d6 v=81
1314180 On ch=1 n=d6 v=0
1314180 On ch=1 n=f5 v=0
1314240 On ch=1 n=d#5 v=77
1314240 On ch=1 n=c6 v=77
1314420 On ch=1 n=c6 v=0
1314420 On ch=1 n=d#5 v=0
1314600 On ch=1 n=g5 v=73
1314720 On ch=1 n=g5 v=0
1314720 On ch=1 n=d5 v=69
1314720 On ch=1 n=b5 v=69
1314900 On ch=1 n=b5 v=0
1314900 On ch=1 n=d5 v=0
1314960 On ch=1 n=d#5 v=65
1314960 On ch=1 n=c6 v=65
1315140 On ch=1 n=d#5 v=0
1315200 On ch=1 n=c6 v=0
1315320 On ch=1 n=d5 v=65
1315440 On ch=1 n=d5 v=0
1315440 On ch=1 n=f5 v=65
1315440 On ch=1 n=a#4 v=65
1315620 On ch=1 n=a#4 v=0
1315620 On ch=1 n=f5 v=0
1315680 On ch=1 n=f5 v=65
1315680 On ch=1 n=a4 v=65
1315860 On ch=1 n=a4 v=0
1315860 On ch=1 n=f5 v=0
1316040 On ch=1 n=d#5 v=65
1316160 On ch=1 n=d#5 v=0
1316160 On ch=1 n=g5 v=65
1316160 On ch=1 n=a#4 v=65
1316340 On ch=1 n=a#4 v=0
1316340 On ch=1 n=g5 v=0
1316400 On ch=1 n=a5 v=69
1316400 On ch=1 n=c5 v=69
1316580 On ch=1 n=c5 v=0
1316640 On ch=1 n=a5 v=0
1316760 On ch=1 n=f5 v=73
1316880 On ch=1 n=f5 v=0
1316880 On ch=1 n=a#5 v=73
1316880 On ch=1 n=d5 v=73
1317060 On ch=1 n=d5 v=0
1317060 On ch=1 n=a#5 v=0
1317120 On ch=1 n=d#5 v=77
1317120 On ch=1 n=c6 v=77
1317300 On ch=1 n=c6 v=0
1317300 On ch=1 n=d#5 v=0
1317480 On ch=1 n=g#5 v=81
1317600 On ch=1 n=g#5 v=0
1317600 On ch=1 n=f5 v=81
1317600 On ch=1 n=d6 v=81
1317780 On ch=1 n=d6 v=0
1317780 On ch=1 n=f5 v=0
1317840 On ch=1 n=g5 v=85
1317840 On ch=1 n=d#6 v=85
1318020 On ch=1 n=d#6 v=0
1318020 On ch=1 n=g5 v=0
1318200 On ch=1 n=b5 v=90
1318320 On ch=1 n=b5 v=0
1318320 On ch=1 n=g#5 v=90
1318320 On ch=1 n=f6 v=90
1318500 On ch=1 n=f6 v=0
1318500 On ch=1 n=g#5 v=0
1318560 On ch=1 n=g5 v=90
1318560 On ch=1 n=d#6 v=90
1318560 On ch=1 n=c6 v=90
1318740 On ch=1 n=c6 v=0
1318740 On ch=1 n=d#6 v=0
1318740 On ch=1 n=g5 v=0
1318920 On ch=1 n=g#5 v=90
1319040 On ch=1 n=g#5 v=0
1319040 On ch=1 n=f5 v=90
1319040 On ch=1 n=d6 v=90
1319220 On ch=1 n=d6 v=0
1319220 On ch=1 n=f5 v=0
1319280 On ch=1 n=c6 v=84
1319280 On ch=1 n=a5 v=84
1319280 On ch=1 n=d#5 v=84
1319460 On ch=1 n=d#5 v=0
1319460 On ch=1 n=a5 v=0
1319460 On ch=1 n=c6 v=0
1319640 On ch=1 n=g5 v=78
1319760 On ch=1 n=g5 v=0
1319760 On ch=1 n=a#5 v=78
1319760 On ch=1 n=e5 v=78
1319940 On ch=1 n=e5 v=0
1319940 On ch=1 n=a#5 v=0
1320000 On ch=1 n=a5 v=72
1320000 On ch=1 n=f#5 v=72
1320180 On ch=1 n=f#5 v=0
1320180 On ch=1 n=a5 v=0
1320360 On ch=1 n=e5 v=66
1320480 On ch=1 n=e5 v=0
1320480 On ch=1 n=g5 v=66
1320480 On ch=1 n=c#5 v=66
1320660 On ch=1 n=c#5 v=0
1320660 On ch=1 n=g5 v=0
1320720 On ch=1 n=f#5 v=60
1320720 On ch=1 n=d5 v=60
1320900 On ch=1 n=d5 v=0
1320900 On ch=1 n=f#5 v=0
1321080 On ch=1 n=d5 v=53
1321200 On ch=1 n=d5 v=0
1321200 On ch=1 n=c5 v=53
1321200 On ch=1 n=f#5 v=53
1321380 On ch=1 n=f#5 v=0
1321380 On ch=1 n=c5 v=0
1321440 On ch=1 n=a#4 v=53
1321440 On ch=1 n=g5 v=53
1321620 On ch=1 n=g5 v=0
1321620 On ch=1 n=a#4 v=0
1321800 On ch=1 n=f#5 v=53
1321920 On ch=1 n=f#5 v=0
1321920 On ch=1 n=d5 v=53
1321920 On ch=1 n=a5 v=53
1322100 On ch=1 n=a5 v=0
1322100 On ch=1 n=d5 v=0
1322160 On ch=1 n=g5 v=53
1322160 On ch=1 n=a#5 v=53
1322340 On ch=1 n=a#5 v=0
1322340 On ch=1 n=g5 v=0
1322520 On ch=1 n=a5 v=53
1322640 On ch=1 n=a5 v=0
1322640 On ch=1 n=g5 v=60
1322640 On ch=1 n=c6 v=60
1322820 On ch=1 n=c6 v=0
1322820 On ch=1 n=g5 v=0
1322880 On ch=1 n=a#5 v=66
1322880 On ch=1 n=d6 v=66
1323060 On ch=1 n=d6 v=0
1323060 On ch=1 n=a#5 v=0
1323240 On ch=1 n=d#6 v=72
1323360 On ch=1 n=d#6 v=0
1323360 On ch=1 n=c6 v=78
1323360 On ch=1 n=g6 v=78
1323540 On ch=1 n=g6 v=0
1323540 On ch=1 n=c6 v=0
1323600 On ch=1 n=a#5 v=65
1323600 On ch=1 n=d6 v=65
1323780 On ch=1 n=d6 v=0
1323780 On ch=1 n=a#5 v=0
1323960 On ch=1 n=g5 v=53
1324080 On ch=1 n=g5 v=0
1324080 On ch=1 n=d5 v=53
1324080 On ch=1 n=a#5 v=53
1324260 On ch=1 n=a#5 v=0
1324260 On ch=1 n=d5 v=0
1324320 On ch=1 n=a5 v=53
1324500 On ch=1 n=a5 v=0
1324680 On ch=1 n=a5 v=53
1324800 On ch=1 n=a5 v=0
1324800 On ch=1 n=d#5 v=53
1324800 On ch=1 n=c6 v=53
1324980 On ch=1 n=c6 v=0
1324980 On ch=1 n=d#5 v=0
1325040 On ch=1 n=d5 v=53
1325040 On ch=1 n=a#5 v=53
1325220 On ch=1 n=a#5 v=0
1325220 On ch=1 n=d5 v=0
1325400 On ch=1 n=f#5 v=53
1325520 On ch=1 n=f#5 v=0
1325520 On ch=1 n=a5 v=53
1325520 On ch=1 n=c5 v=53
1325700 On ch=1 n=c5 v=0
1325700 On ch=1 n=a5 v=0
1325760 On ch=1 n=a#4 v=53
1325760 On ch=1 n=g5 v=53
1325940 On ch=1 n=g5 v=0
1325940 On ch=1 n=a#4 v=0
1326120 On ch=1 n=c5 v=53
1326240 On ch=1 n=c5 v=0
1326240 On ch=1 n=d#5 v=53
1326240 On ch=1 n=a4 v=53
1326420 On ch=1 n=a4 v=0
1326420 On ch=1 n=d#5 v=0
1326480 On ch=1 n=d5 v=53
1326480 On ch=1 n=a#4 v=53
1326660 On ch=1 n=a#4 v=0
1326660 On ch=1 n=d5 v=0
1326840 On ch=1 n=d5 v=53
1326960 On ch=1 n=d5 v=0
1326960 On ch=1 n=f#5 v=53
1326960 On ch=1 n=c5 v=53
1327140 On ch=1 n=c5 v=0
1327140 On ch=1 n=f#5 v=0
1327200 On ch=1 n=a#4 v=57
1327200 On ch=1 n=g5 v=57
1327380 On ch=1 n=g5 v=0
1327380 On ch=1 n=a#4 v=0
1327560 On ch=1 n=f#5 v=61
1327680 On ch=1 n=f#5 v=0
1327680 On ch=1 n=d5 v=61
1327680 On ch=1 n=a5 v=61
1327860 On ch=1 n=a5 v=0
1327860 On ch=1 n=d5 v=0
1327920 On ch=1 n=g5 v=65
1327920 On ch=1 n=a#5 v=65
1328100 On ch=1 n=a#5 v=0
1328100 On ch=1 n=g5 v=0
1328280 On ch=1 n=a5 v=69
1328400 On ch=1 n=a5 v=0
1328400 On ch=1 n=g5 v=69
1328400 On ch=1 n=c6 v=69
1328580 On ch=1 n=c6 v=0
1328580 On ch=1 n=g5 v=0
1328640 On ch=1 n=a#5 v=73
1328640 On ch=1 n=d6 v=73
1328820 On ch=1 n=d6 v=0
1328820 On ch=1 n=a#5 v=0
1329000 On ch=1 n=d#6 v=78
1329120 On ch=1 n=d#6 v=0
1329120 On ch=1 n=c6 v=78
1329120 On ch=1 n=g6 v=78
1329300 On ch=1 n=g6 v=0
1329300 On ch=1 n=c6 v=0
1329360 On ch=1 n=a#5 v=78
1329360 On ch=1 n=d6 v=78
1329540 On ch=1 n=d6 v=0
1329540 On ch=1 n=a#5 v=0
1329720 On ch=1 n=g5 v=65
1329840 On ch=1 n=g5 v=0
1329840 On ch=1 n=d5 v=65
1329840 On ch=1 n=a#5 v=65
1330020 On ch=1 n=a#5 v=0
1330020 On ch=1 n=d5 v=0
1330080 On ch=1 n=a5 v=65
1330260 On ch=1 n=a5 v=0
1330440 On ch=1 n=a5 v=65
1330560 On ch=1 n=a5 v=0
1330560 On ch=1 n=d#5 v=65
1330560 On ch=1 n=c6 v=65
1330740 On ch=1 n=c6 v=0
1330740 On ch=1 n=d#5 v=0
1330800 On ch=1 n=d5 v=65
1330800 On ch=1 n=a#5 v=65
1330980 On ch=1 n=a#5 v=0
1330980 On ch=1 n=d5 v=0
1331160 On ch=1 n=f#5 v=65
1331280 On ch=1 n=f#5 v=0
1331280 On ch=1 n=a5 v=65
1331280 On ch=1 n=c5 v=65
1331460 On ch=1 n=c5 v=0
1331460 On ch=1 n=a5 v=0
1331520 On ch=1 n=a#4 v=53
1331520 On ch=1 n=g5 v=53
1331700 On ch=1 n=g5 v=0
1331700 On ch=1 n=a#4 v=0
1331880 On ch=1 n=c5 v=53
1332000 On ch=1 n=c5 v=0
1332000 On ch=1 n=d#5 v=53
1332000 On ch=1 n=a4 v=53
1332180 On ch=1 n=a4 v=0
1332180 On ch=1 n=d#5 v=0
1332240 On ch=1 n=d5 v=53
1332240 On ch=1 n=a#4 v=53
1332420 On ch=1 n=a#4 v=0
1332420 On ch=1 n=d5 v=0
1332720 On ch=1 n=c5 v=53
1332900 On ch=1 n=c5 v=0
1332960 On ch=1 n=a#4 v=53
1333140 On ch=1 n=a#4 v=0
1333440 On ch=1 n=a4 v=53
1333620 On ch=1 n=a4 v=0
1333680 On ch=1 n=g4 v=53
1333860 On ch=1 n=g4 v=0
1334160 On ch=1 n=d#4 v=53
1334340 On ch=1 n=d#4 v=0
1334400 On ch=1 n=d4 v=53
1334580 On ch=1 n=d4 v=0
1334880 On ch=1 n=c4 v=53
1335060 On ch=1 n=c4 v=0
1335120 On ch=1 n=a#3 v=53
1335300 On ch=1 n=a#3 v=0
1335600 On ch=1 n=a3 v=53
1335780 On ch=1 n=a3 v=0
1335840 On ch=1 n=g3 v=53
1336020 On ch=1 n=g3 v=0
1336320 On ch=1 n=d#3 v=49
1336500 On ch=1 n=d#3 v=0
1336560 On ch=1 n=d3 v=46
1336740 On ch=1 n=d3 v=0
1337040 On ch=1 n=c3 v=43
1337220 On ch=1 n=c3 v=0
1337280 On ch=1 n=a#2 v=40
1337460 On ch=1 n=a#2 v=0
1337460 Meta TrkEnd
TrkEnd
MTrk
0 SeqSpec 43 00 01 00
0 Meta TrkName "Harmony/Bass"
0 Meta 0x21 00
0 Meta 0x20 00
0 Par ch=1 c=10 v=64
0 PrCh ch=1 p=0
1200 On ch=1 n=a2 v=102
1200 On ch=1 n=a3 v=102
1680 On ch=1 n=a3 v=0
1680 On ch=1 n=a2 v=0
1680 On ch=1 n=d3 v=102
1680 On ch=1 n=d4 v=102
2160 On ch=1 n=d4 v=0
2160 On ch=1 n=d3 v=0
2160 On ch=1 n=e3 v=104
2160 On ch=1 n=e4 v=104
2640 On ch=1 n=e4 v=0
2640 On ch=1 n=e3 v=0
2640 On ch=1 n=f#3 v=108
2640 On ch=1 n=f#4 v=108
3120 On ch=1 n=f#4 v=0
3120 On ch=1 n=f#3 v=0
3120 On ch=1 n=g3 v=112
3120 On ch=1 n=g4 v=112
3600 On ch=1 n=g4 v=0
3600 On ch=1 n=g3 v=0
3600 On ch=1 n=g#3 v=116
3600 On ch=1 n=g#4 v=116
4080 On ch=1 n=g#4 v=0
4080 On ch=1 n=g#3 v=0
4080 On ch=1 n=a3 v=118
4080 On ch=1 n=a4 v=118
4800 On ch=1 n=a4 v=0
4800 On ch=1 n=a3 v=0
5040 On ch=1 n=a3 v=104
5040 On ch=1 n=c#4 v=104
5040 On ch=1 n=a4 v=104
5520 On ch=1 n=a4 v=0
5520 On ch=1 n=c#4 v=0
5520 On ch=1 n=a3 v=0
5520 On ch=1 n=d5 v=108
5520 On ch=1 n=f4 v=108
5520 On ch=1 n=d4 v=108
6000 On ch=1 n=d4 v=0
6000 On ch=1 n=f4 v=0
6000 On ch=1 n=d5 v=0
6000 On ch=1 n=e4 v=112
6000 On ch=1 n=g4 v=112
6000 On ch=1 n=c#5 v=112
6480 On ch=1 n=c#5 v=0
6480 On ch=1 n=g4 v=0
6480 On ch=1 n=e4 v=0
6480 On ch=1 n=f#4 v=116
6480 On ch=1 n=a4 v=116
6480 On ch=1 n=c5 v=116
6480 On ch=1 n=d5 v=116
6960 On ch=1 n=d5 v=0
6960 On ch=1 n=c5 v=0
6960 On ch=1 n=a4 v=0
6960 On ch=1 n=f#4 v=0
6960 On ch=1 n=g4 v=120
6960 On ch=1 n=a#4 v=120
6960 On ch=1 n=d#5 v=120
6960 On ch=1 n=g5 v=120
7440 On ch=1 n=g5 v=0
7440 On ch=1 n=d#5 v=0
7440 On ch=1 n=a#4 v=0
7440 On ch=1 n=g4 v=0
7440 On ch=1 n=g#4 v=124
7440 On ch=1 n=b4 v=124
7440 On ch=1 n=d5 v=124
7440 On ch=1 n=f5 v=124
7680 On ch=1 n=f5 v=0
7680 On ch=1 n=d5 v=0
7680 On ch=1 n=b4 v=0
7680 On ch=1 n=g#4 v=0
7920 On ch=1 n=a4 v=127
7920 On ch=1 n=c#5 v=127
7920 On ch=1 n=a5 v=127
8040 On ch=1 n=a5 v=0
8040 On ch=1 n=c#5 v=0
8040 On ch=1 n=a4 v=0
8160 On ch=1 n=d6 v=127
8160 On ch=1 n=a5 v=127
8160 On ch=1 n=f5 v=127
8160 On ch=1 n=d5 v=127
8280 On ch=1 n=d5 v=0
8280 On ch=1 n=f5 v=0
8280 On ch=1 n=a5 v=0
8280 On ch=1 n=d6 v=0
8880 On ch=1 n=a2 v=102
8880 On ch=1 n=a3 v=102
9360 On ch=1 n=a3 v=0
9360 On ch=1 n=a2 v=0
9360 On ch=1 n=d3 v=102
9360 On ch=1 n=d4 v=102
9840 On ch=1 n=d4 v=0
9840 On ch=1 n=d3 v=0
9840 On ch=1 n=e3 v=104
9840 On ch=1 n=e4 v=104
10320 On ch=1 n=e4 v=0
10320 On ch=1 n=e3 v=0
10320 On ch=1 n=f#3 v=108
10320 On ch=1 n=f#4 v=108
10800 On ch=1 n=f#4 v=0
10800 On ch=1 n=f#3 v=0
10800 On ch=1 n=g3 v=112
10800 On ch=1 n=g4 v=112
11280 On ch=1 n=g4 v=0
11280 On ch=1 n=g3 v=0
11280 On ch=1 n=g#3 v=116
11280 On ch=1 n=g#4 v=116
11760 On ch=1 n=g#4 v=0
11760 On ch=1 n=g#3 v=0
11760 On ch=1 n=a3 v=118
11760 On ch=1 n=a4 v=118
12480 On ch=1 n=a4 v=0
12480 On ch=1 n=a3 v=0
12720 On ch=1 n=a3 v=104
12720 On ch=1 n=c#4 v=104
12720 On ch=1 n=a4 v=104
13200 On ch=1 n=a4 v=0
13200 On ch=1 n=c#4 v=0
13200 On ch=1 n=a3 v=0
13200 On ch=1 n=d5 v=108
13200 On ch=1 n=f4 v=108
13200 On ch=1 n=d4 v=108
13680 On ch=1 n=d4 v=0
13680 On ch=1 n=f4 v=0
13680 On ch=1 n=d5 v=0
13680 On ch=1 n=e4 v=112
13680 On ch=1 n=g4 v=112
13680 On ch=1 n=c#5 v=112
14160 On ch=1 n=c#5 v=0
14160 On ch=1 n=g4 v=0
14160 On ch=1 n=e4 v=0
14160 On ch=1 n=f#4 v=116
14160 On ch=1 n=a4 v=116
14160 On ch=1 n=c5 v=116
14160 On ch=1 n=d5 v=116
14640 On ch=1 n=d5 v=0
14640 On ch=1 n=c5 v=0
14640 On ch=1 n=a4 v=0
14640 On ch=1 n=f#4 v=0
14640 On ch=1 n=g4 v=120
14640 On ch=1 n=a#4 v=120
14640 On ch=1 n=d#5 v=120
14640 On ch=1 n=g5 v=120
15120 On ch=1 n=g5 v=0
15120 On ch=1 n=d#5 v=0
15120 On ch=1 n=a#4 v=0
15120 On ch=1 n=g4 v=0
15120 On ch=1 n=g#4 v=124
15120 On ch=1 n=b4 v=124
15120 On ch=1 n=d5 v=124
15120 On ch=1 n=f5 v=124
15360 On ch=1 n=f5 v=0
15360 On ch=1 n=d5 v=0
15360 On ch=1 n=b4 v=0
15360 On ch=1 n=g#4 v=0
15600 On ch=1 n=a4 v=127
15600 On ch=1 n=c#5 v=127
15600 On ch=1 n=a5 v=127
15720 On ch=1 n=a5 v=0
15720 On ch=1 n=c#5 v=0
15720 On ch=1 n=a4 v=0
15840 On ch=1 n=d6 v=127
15840 On ch=1 n=a5 v=127
15840 On ch=1 n=f5 v=127
15840 On ch=1 n=d5 v=127
15960 On ch=1 n=d5 v=0
15960 On ch=1 n=f5 v=0
15960 On ch=1 n=a5 v=0
15960 On ch=1 n=d6 v=0
16560 On ch=1 n=d5 v=114
16560 On ch=1 n=a5 v=114
16800 On ch=1 n=a5 v=0
16800 On ch=1 n=a#5 v=126
17040 On ch=1 n=a#5 v=0
17040 On ch=1 n=d5 v=0
17040 On ch=1 n=c5 v=114
17040 On ch=1 n=a5 v=114
17280 On ch=1 n=a5 v=0
17280 On ch=1 n=c5 v=0
17520 On ch=1 n=a5 v=114
17520 On ch=1 n=d5 v=114
17760 On ch=1 n=a5 v=0
17760 On ch=1 n=a#5 v=126
18000 On ch=1 n=a#5 v=0
18000 On ch=1 n=d5 v=0
18000 On ch=1 n=c5 v=114
18000 On ch=1 n=a5 v=114
18240 On ch=1 n=c5 v=0
18240 On ch=1 n=a#4 v=114
18480 On ch=1 n=a#4 v=0
18480 On ch=1 n=a5 v=0
18480 On ch=1 n=g5 v=120
18720 On ch=1 n=a4 v=114
18960 On ch=1 n=g5 v=0
18960 On ch=1 n=f5 v=120
19200 On ch=1 n=a4 v=0
19200 On ch=1 n=g4 v=114
19440 On ch=1 n=f5 v=0
19440 On ch=1 n=e5 v=120
19680 On ch=1 n=g4 v=0
19680 On ch=1 n=f4 v=114
19920 On ch=1 n=e5 v=0
19920 On ch=1 n=d5 v=120
20160 On ch=1 n=d5 v=0
20160 On ch=1 n=f4 v=0
20400 On ch=1 n=g4 v=114
20400 On ch=1 n=a#4 v=114
20400 On ch=1 n=d#5 v=114
20640 On ch=1 n=d#5 v=0
20640 On ch=1 n=a#4 v=0
20640 On ch=1 n=g4 v=0
20640 On ch=1 n=g#4 v=126
20640 On ch=1 n=a#4 v=126
20640 On ch=1 n=d5 v=126
20640 On ch=1 n=g5 v=126
20880 On ch=1 n=g5 v=0
20880 On ch=1 n=d5 v=0
20880 On ch=1 n=a#4 v=0
20880 On ch=1 n=g#4 v=0
20880 On ch=1 n=g4 v=114
20880 On ch=1 n=a#4 v=114
20880 On ch=1 n=d#5 v=114
21120 On ch=1 n=d#5 v=0
21120 On ch=1 n=a#4 v=0
21120 On ch=1 n=g4 v=0
21360 On ch=1 n=g4 v=114
21360 On ch=1 n=a#4 v=114
21360 On ch=1 n=d#5 v=114
21600 On ch=1 n=d#5 v=0
21600 On ch=1 n=a#4 v=0
21600 On ch=1 n=g4 v=0
21600 On ch=1 n=g#4 v=126
21600 On ch=1 n=a#4 v=126
21600 On ch=1 n=d5 v=126
21600 On ch=1 n=g5 v=126
21840 On ch=1 n=g5 v=0
21840 On ch=1 n=d5 v=0
21840 On ch=1 n=a#4 v=0
21840 On ch=1 n=g#4 v=0
21840 On ch=1 n=g4 v=114
21840 On ch=1 n=a#4 v=114
21840 On ch=1 n=d#5 v=114
22080 On ch=1 n=d#5 v=0
22080 On ch=1 n=a#4 v=0
22080 On ch=1 n=g4 v=0
22080 On ch=1 n=f#4 v=114
22080 On ch=1 n=f#5 v=114
22140 On ch=1 n=f#5 v=0
22140 On ch=1 n=f#4 v=0
22320 On ch=1 n=d#4 v=126
22800 On ch=1 n=d#4 v=0
22800 On ch=1 n=e4 v=102
23040 On ch=1 n=e4 v=0
23040 On ch=1 n=f#4 v=90
23280 On ch=1 n=f#4 v=0
23280 On ch=1 n=g4 v=94
23520 On ch=1 n=g4 v=0
23520 On ch=1 n=g#4 v=98
23760 On ch=1 n=g#4 v=0
23760 On ch=1 n=a4 v=102
24000 On ch=1 n=a4 v=0
24240 On ch=1 n=a2 v=102
24240 On ch=1 n=a3 v=102
24720 On ch=1 n=a3 v=0
24720 On ch=1 n=a2 v=0
24720 On ch=1 n=d3 v=102
24720 On ch=1 n=d4 v=102
25200 On ch=1 n=d4 v=0
25200 On ch=1 n=d3 v=0
25200 On ch=1 n=e3 v=105
25200 On ch=1 n=e4 v=105
25680 On ch=1 n=e4 v=0
25680 On ch=1 n=e3 v=0
25680 On ch=1 n=f#3 v=105
25680 On ch=1 n=f#4 v=105
26160 On ch=1 n=f#4 v=0
26160 On ch=1 n=f#3 v=0
26160 On ch=1 n=g3 v=108
26160 On ch=1 n=g4 v=108
26640 On ch=1 n=g4 v=0
26640 On ch=1 n=g3 v=0
26640 On ch=1 n=g#3 v=108
26640 On ch=1 n=g#4 v=108
27120 On ch=1 n=g#4 v=0
27120 On ch=1 n=g#3 v=0
27120 On ch=1 n=a3 v=111
27120 On ch=1 n=a4 v=111
27600 On ch=1 n=a4 v=0
27600 On ch=1 n=a3 v=0
27600 On ch=1 n=c#5 v=111
27840 On ch=1 n=c#5 v=0
27840 On ch=1 n=a3 v=114
27860 On ch=1 n=a3 v=0
27860 On ch=1 n=a4 v=120
28080 On ch=1 n=c#5 v=114
28320 On ch=1 n=c#5 v=0
28320 On ch=1 n=a4 v=0
28320 On ch=1 n=d4 v=114
28340 On ch=1 n=d4 v=0
28340 On ch=1 n=d5 v=120
28560 On ch=1 n=f5 v=114
28800 On ch=1 n=f5 v=0
28800 On ch=1 n=d5 v=0
28800 On ch=1 n=e4 v=114
28820 On ch=1 n=e4 v=0
28820 On ch=1 n=e5 v=120
29040 On ch=1 n=g5 v=114
29280 On ch=1 n=g5 v=0
29280 On ch=1 n=e5 v=0
29280 On ch=1 n=f#4 v=114
29300 On ch=1 n=f#4 v=0
29300 On ch=1 n=f#5 v=120
29520 On ch=1 n=a5 v=114
29760 On ch=1 n=a5 v=0
29760 On ch=1 n=f#5 v=0
29760 On ch=1 n=g4 v=114
29780 On ch=1 n=g4 v=0
29780 On ch=1 n=g5 v=120
30000 On ch=1 n=a#5 v=114
30240 On ch=1 n=a#5 v=0
30240 On ch=1 n=g5 v=0
30240 On ch=1 n=g#4 v=114
30260 On ch=1 n=g#4 v=0
30260 On ch=1 n=g#5 v=120
30480 On ch=1 n=b5 v=114
30720 On ch=1 n=b5 v=0
30720 On ch=1 n=g#5 v=0
30720 On ch=1 n=a4 v=114
30720 On ch=1 n=a5 v=114
30960 On ch=1 n=a5 v=0
30960 On ch=1 n=a4 v=0
30960 On ch=1 n=e5 v=127
30960 On ch=1 n=g5 v=127
30960 On ch=1 n=a5 v=127
30960 On ch=1 n=c#6 v=127
31080 On ch=1 n=c#6 v=0
31080 On ch=1 n=a5 v=0
31080 On ch=1 n=g5 v=0
31080 On ch=1 n=e5 v=0
31200 On ch=1 n=d6 v=127
31200 On ch=1 n=a5 v=127
31200 On ch=1 n=f5 v=127
31200 On ch=1 n=d5 v=127
31320 On ch=1 n=d5 v=0
31320 On ch=1 n=f5 v=0
31320 On ch=1 n=a5 v=0
31320 On ch=1 n=d6 v=0
31920 On ch=1 n=d5 v=114
31920 On ch=1 n=a5 v=114
32160 On ch=1 n=a5 v=0
32160 On ch=1 n=a#5 v=126
32400 On ch=1 n=a#5 v=0
32400 On ch=1 n=d5 v=0
32400 On ch=1 n=c5 v=114
32400 On ch=1 n=a5 v=114
32640 On ch=1 n=a5 v=0
32640 On ch=1 n=c5 v=0
32880 On ch=1 n=a5 v=114
32880 On ch=1 n=d5 v=114
33120 On ch=1 n=a5 v=0
33120 On ch=1 n=a#5 v=126
33360 On ch=1 n=a#5 v=0
33360 On ch=1 n=d5 v=0
33360 On ch=1 n=c5 v=114
33360 On ch=1 n=a5 v=114
33600 On ch=1 n=c5 v=0
33600 On ch=1 n=a#4 v=114
33840 On ch=1 n=a#4 v=0
33840 On ch=1 n=a5 v=0
33840 On ch=1 n=g5 v=120
34080 On ch=1 n=a4 v=114
34320 On ch=1 n=g5 v=0
34320 On ch=1 n=f5 v=120
34560 On ch=1 n=a4 v=0
34560 On ch=1 n=g4 v=114
34800 On ch=1 n=f5 v=0
34800 On ch=1 n=e5 v=120
35040 On ch=1 n=g4 v=0
35040 On ch=1 n=f4 v=114
35280 On ch=1 n=e5 v=0
35280 On ch=1 n=d5 v=120
35520 On ch=1 n=d5 v=0
35520 On ch=1 n=f4 v=0
35760 On ch=1 n=g4 v=114
35760 On ch=1 n=a#4 v=114
35760 On ch=1 n=d#5 v=114
36000 On ch=1 n=d#5 v=0
36000 On ch=1 n=a#4 v=0
36000 On ch=1 n=g4 v=0
36000 On ch=1 n=g#4 v=126
36000 On ch=1 n=a#4 v=126
36000 On ch=1 n=d5 v=126
36000 On ch=1 n=g5 v=126
36240 On ch=1 n=g5 v=0
36240 On ch=1 n=d5 v=0
36240 On ch=1 n=a#4 v=0
36240 On ch=1 n=g#4 v=0
36240 On ch=1 n=g4 v=114
36240 On ch=1 n=a#4 v=114
36240 On ch=1 n=d#5 v=114
36480 On ch=1 n=d#5 v=0
36480 On ch=1 n=a#4 v=0
36480 On ch=1 n=g4 v=0
36720 On ch=1 n=g4 v=114
36720 On ch=1 n=a#4 v=114
36720 On ch=1 n=d#5 v=114
36960 On ch=1 n=d#5 v=0
36960 On ch=1 n=a#4 v=0
36960 On ch=1 n=g4 v=0
36960 On ch=1 n=g#4 v=126
36960 On ch=1 n=a#4 v=126
36960 On ch=1 n=d5 v=126
36960 On ch=1 n=g5 v=126
37200 On ch=1 n=g5 v=0
37200 On ch=1 n=d5 v=0
37200 On ch=1 n=a#4 v=0
37200 On ch=1 n=g#4 v=0
37200 On ch=1 n=g4 v=114
37200 On ch=1 n=a#4 v=114
37200 On ch=1 n=d#5 v=114
37440 On ch=1 n=d#5 v=0
37440 On ch=1 n=a#4 v=0
37440 On ch=1 n=g4 v=0
37440 On ch=1 n=f#4 v=114
37440 On ch=1 n=f#5 v=114
37500 On ch=1 n=f#5 v=0
37500 On ch=1 n=f#4 v=0
37680 On ch=1 n=d#4 v=126
38160 On ch=1 n=d#4 v=0
38160 On ch=1 n=e4 v=102
38400 On ch=1 n=e4 v=0
38400 On ch=1 n=f#4 v=90
38640 On ch=1 n=f#4 v=0
38640 On ch=1 n=g4 v=94
38880 On ch=1 n=g4 v=0
38880 On ch=1 n=g#4 v=98
39120 On ch=1 n=g#4 v=0
39120 On ch=1 n=a4 v=102
39360 On ch=1 n=a4 v=0
39600 On ch=1 n=a2 v=102
39600 On ch=1 n=a3 v=102
40080 On ch=1 n=a3 v=0
40080 On ch=1 n=a2 v=0
40080 On ch=1 n=d3 v=102
40080 On ch=1 n=d4 v=102
40560 On ch=1 n=d4 v=0
40560 On ch=1 n=d3 v=0
40560 On ch=1 n=e3 v=105
40560 On ch=1 n=e4 v=105
41040 On ch=1 n=e4 v=0
41040 On ch=1 n=e3 v=0
41040 On ch=1 n=f#3 v=105
41040 On ch=1 n=f#4 v=105
41520 On ch=1 n=f#4 v=0
41520 On ch=1 n=f#3 v=0
41520 On ch=1 n=g3 v=108
41520 On ch=1 n=g4 v=108
42000 On ch=1 n=g4 v=0
42000 On ch=1 n=g3 v=0
42000 On ch=1 n=g#3 v=108
42000 On ch=1 n=g#4 v=108
42480 On ch=1 n=g#4 v=0
42480 On ch=1 n=g#3 v=0
42480 On ch=1 n=a3 v=111
42480 On ch=1 n=a4 v=111
42960 On ch=1 n=a4 v=0
42960 On ch=1 n=a3 v=0
42960 On ch=1 n=c#5 v=111
43200 On ch=1 n=c#5 v=0
43200 On ch=1 n=a3 v=114
43220 On ch=1 n=a3 v=0
43220 On ch=1 n=a4 v=120
43440 On ch=1 n=c#5 v=114
43680 On ch=1 n=c#5 v=0
43680 On ch=1 n=a4 v=0
43680 On ch=1 n=d4 v=114
43700 On ch=1 n=d4 v=0
43700 On ch=1 n=d5 v=120
43920 On ch=1 n=f5 v=114
44160 On ch=1 n=f5 v=0
44160 On ch=1 n=d5 v=0
44160 On ch=1 n=e4 v=114
44180 On ch=1 n=e4 v=0
44180 On ch=1 n=e5 v=120
44400 On ch=1 n=g5 v=114
44640 On ch=1 n=g5 v=0
44640 On ch=1 n=e5 v=0
44640 On ch=1 n=f#4 v=114
44660 On ch=1 n=f#4 v=0
44660 On ch=1 n=f#5 v=120
44880 On ch=1 n=a5 v=114
45120 On ch=1 n=a5 v=0
45120 On ch=1 n=f#5 v=0
45120 On ch=1 n=g4 v=114
45140 On ch=1 n=g4 v=0
45140 On ch=1 n=g5 v=120
45360 On ch=1 n=a#5 v=114
45600 On ch=1 n=a#5 v=0
45600 On ch=1 n=g5 v=0
45600 On ch=1 n=g#4 v=114
45620 On ch=1 n=g#4 v=0
45620 On ch=1 n=g#5 v=120
45840 On ch=1 n=b5 v=114
46080 On ch=1 n=b5 v=0
46080 On ch=1 n=g#5 v=0
46080 On ch=1 n=a4 v=114
46080 On ch=1 n=a5 v=114
46320 On ch=1 n=a5 v=0
46320 On ch=1 n=a4 v=0
46320 On ch=1 n=e5 v=127
46320 On ch=1 n=g5 v=127
46320 On ch=1 n=a5 v=127
46320 On ch=1 n=c#6 v=127
46440 On ch=1 n=c#6 v=0
46440 On ch=1 n=a5 v=0
46440 On ch=1 n=g5 v=0
46440 On ch=1 n=e5 v=0
46560 On ch=1 n=d6 v=127
46560 On ch=1 n=a5 v=127
46560 On ch=1 n=f5 v=127
46560 On ch=1 n=d5 v=127
46680 On ch=1 n=d5 v=0
46680 On ch=1 n=f5 v=0
46680 On ch=1 n=a5 v=0
46680 On ch=1 n=d6 v=0
93360 On ch=1 n=a2 v=90
93360 On ch=1 n=a3 v=90
93840 On ch=1 n=a3 v=0
93840 On ch=1 n=a2 v=0
93840 On ch=1 n=d3 v=90
93840 On ch=1 n=d4 v=90
94320 On ch=1 n=d4 v=0
94320 On ch=1 n=d3 v=0
94320 On ch=1 n=e3 v=92
94320 On ch=1 n=e4 v=92
94800 On ch=1 n=e4 v=0
94800 On ch=1 n=e3 v=0
94800 On ch=1 n=f#3 v=95
94800 On ch=1 n=f#4 v=95
95280 On ch=1 n=f#4 v=0
95280 On ch=1 n=f#3 v=0
95280 On ch=1 n=g3 v=99
95280 On ch=1 n=g4 v=99
95760 On ch=1 n=g4 v=0
95760 On ch=1 n=g3 v=0
95760 On ch=1 n=g#3 v=102
95760 On ch=1 n=g#4 v=102
96240 On ch=1 n=g#4 v=0
96240 On ch=1 n=g#3 v=0
96240 On ch=1 n=a3 v=104
96240 On ch=1 n=a4 v=104
96960 On ch=1 n=a4 v=0
96960 On ch=1 n=a3 v=0
97200 On ch=1 n=a3 v=104
97200 On ch=1 n=c#4 v=104
97200 On ch=1 n=a4 v=104
97680 On ch=1 n=a4 v=0
97680 On ch=1 n=c#4 v=0
97680 On ch=1 n=a3 v=0
97680 On ch=1 n=d5 v=108
97680 On ch=1 n=f4 v=108
97680 On ch=1 n=d4 v=108
98160 On ch=1 n=d4 v=0
98160 On ch=1 n=f4 v=0
98160 On ch=1 n=d5 v=0
98160 On ch=1 n=e4 v=112
98160 On ch=1 n=g4 v=112
98160 On ch=1 n=c#5 v=112
98640 On ch=1 n=c#5 v=0
98640 On ch=1 n=g4 v=0
98640 On ch=1 n=e4 v=0
98640 On ch=1 n=f#4 v=116
98640 On ch=1 n=a4 v=116
98640 On ch=1 n=c5 v=116
98640 On ch=1 n=d5 v=116
99120 On ch=1 n=d5 v=0
99120 On ch=1 n=c5 v=0
99120 On ch=1 n=a4 v=0
99120 On ch=1 n=f#4 v=0
99120 On ch=1 n=g4 v=120
99120 On ch=1 n=a#4 v=120
99120 On ch=1 n=d#5 v=120
99120 On ch=1 n=g5 v=120
99600 On ch=1 n=g5 v=0
99600 On ch=1 n=d#5 v=0
99600 On ch=1 n=a#4 v=0
99600 On ch=1 n=g4 v=0
99600 On ch=1 n=g#4 v=124
99600 On ch=1 n=b4 v=124
99600 On ch=1 n=d5 v=124
99600 On ch=1 n=f5 v=124
99840 On ch=1 n=f5 v=0
99840 On ch=1 n=d5 v=0
99840 On ch=1 n=b4 v=0
99840 On ch=1 n=g#4 v=0
100080 On ch=1 n=a4 v=127
100080 On ch=1 n=c#5 v=127
100080 On ch=1 n=a5 v=127
100200 On ch=1 n=a5 v=0
100200 On ch=1 n=c#5 v=0
100200 On ch=1 n=a4 v=0
100320 On ch=1 n=d6 v=127
100320 On ch=1 n=a5 v=127
100320 On ch=1 n=f5 v=127
100320 On ch=1 n=d5 v=127
100440 On ch=1 n=d5 v=0
100440 On ch=1 n=f5 v=0
100440 On ch=1 n=a5 v=0
100440 On ch=1 n=d6 v=0
101040 On ch=1 n=d5 v=114
101040 On ch=1 n=a5 v=114
101280 On ch=1 n=a5 v=0
101280 On ch=1 n=a#5 v=126
101520 On ch=1 n=a#5 v=0
101520 On ch=1 n=d5 v=0
101520 On ch=1 n=c5 v=114
101520 On ch=1 n=a5 v=114
101760 On ch=1 n=a5 v=0
101760 On ch=1 n=c5 v=0
102000 On ch=1 n=a5 v=114
102000 On ch=1 n=d5 v=114
102240 On ch=1 n=a5 v=0
102240 On ch=1 n=a#5 v=126
102480 On ch=1 n=a#5 v=0
102480 On ch=1 n=d5 v=0
102480 On ch=1 n=c5 v=114
102480 On ch=1 n=a5 v=114
102720 On ch=1 n=c5 v=0
102720 On ch=1 n=a#4 v=114
102960 On ch=1 n=a#4 v=0
102960 On ch=1 n=a5 v=0
102960 On ch=1 n=g5 v=120
103200 On ch=1 n=a4 v=114
103440 On ch=1 n=g5 v=0
103440 On ch=1 n=f5 v=120
103680 On ch=1 n=a4 v=0
103680 On ch=1 n=g4 v=114
103920 On ch=1 n=f5 v=0
103920 On ch=1 n=e5 v=120
104160 On ch=1 n=g4 v=0
104160 On ch=1 n=f4 v=114
104400 On ch=1 n=e5 v=0
104400 On ch=1 n=d5 v=120
104640 On ch=1 n=d5 v=0
104640 On ch=1 n=f4 v=0
104880 On ch=1 n=g4 v=114
104880 On ch=1 n=a#4 v=114
104880 On ch=1 n=d#5 v=114
105120 On ch=1 n=d#5 v=0
105120 On ch=1 n=a#4 v=0
105120 On ch=1 n=g4 v=0
105120 On ch=1 n=g#4 v=126
105120 On ch=1 n=a#4 v=126
105120 On ch=1 n=d5 v=126
105120 On ch=1 n=g5 v=126
105360 On ch=1 n=g5 v=0
105360 On ch=1 n=d5 v=0
105360 On ch=1 n=a#4 v=0
105360 On ch=1 n=g#4 v=0
105360 On ch=1 n=g4 v=114
105360 On ch=1 n=a#4 v=114
105360 On ch=1 n=d#5 v=114
105600 On ch=1 n=d#5 v=0
105600 On ch=1 n=a#4 v=0
105600 On ch=1 n=g4 v=0
105840 On ch=1 n=g4 v=114
105840 On ch=1 n=a#4 v=114
105840 On ch=1 n=d#5 v=114
106080 On ch=1 n=d#5 v=0
106080 On ch=1 n=a#4 v=0
106080 On ch=1 n=g4 v=0
106080 On ch=1 n=g#4 v=126
106080 On ch=1 n=a#4 v=126
106080 On ch=1 n=d5 v=126
106080 On ch=1 n=g5 v=126
106320 On ch=1 n=g5 v=0
106320 On ch=1 n=d5 v=0
106320 On ch=1 n=a#4 v=0
106320 On ch=1 n=g#4 v=0
106320 On ch=1 n=g4 v=114
106320 On ch=1 n=a#4 v=114
106320 On ch=1 n=d#5 v=114
106560 On ch=1 n=d#5 v=0
106560 On ch=1 n=a#4 v=0
106560 On ch=1 n=g4 v=0
106560 On ch=1 n=f#4 v=114
106560 On ch=1 n=f#5 v=114
106620 On ch=1 n=f#5 v=0
106620 On ch=1 n=f#4 v=0
106800 On ch=1 n=d#4 v=126
107280 On ch=1 n=d#4 v=0
107280 On ch=1 n=e4 v=102
107520 On ch=1 n=e4 v=0
107520 On ch=1 n=f#4 v=90
107760 On ch=1 n=f#4 v=0
107760 On ch=1 n=g4 v=94
108000 On ch=1 n=g4 v=0
108000 On ch=1 n=g#4 v=98
108240 On ch=1 n=g#4 v=0
108240 On ch=1 n=a4 v=102
108480 On ch=1 n=a4 v=0
108720 On ch=1 n=a2 v=69
108720 On ch=1 n=a3 v=69
109200 On ch=1 n=a3 v=0
109200 On ch=1 n=a2 v=0
109200 On ch=1 n=d3 v=75
109200 On ch=1 n=d4 v=75
109680 On ch=1 n=d4 v=0
109680 On ch=1 n=d3 v=0
109680 On ch=1 n=e3 v=85
109680 On ch=1 n=e4 v=85
110160 On ch=1 n=e4 v=0
110160 On ch=1 n=e3 v=0
110160 On ch=1 n=f#3 v=92
110160 On ch=1 n=f#4 v=92
110640 On ch=1 n=f#4 v=0
110640 On ch=1 n=f#3 v=0
110640 On ch=1 n=g3 v=97
110640 On ch=1 n=g4 v=97
111120 On ch=1 n=g4 v=0
111120 On ch=1 n=g3 v=0
111120 On ch=1 n=g#3 v=102
111120 On ch=1 n=g#4 v=102
111600 On ch=1 n=g#4 v=0
111600 On ch=1 n=g#3 v=0
111600 On ch=1 n=a3 v=107
111600 On ch=1 n=a4 v=107
112080 On ch=1 n=a4 v=0
112080 On ch=1 n=a3 v=0
112080 On ch=1 n=c#5 v=111
112320 On ch=1 n=c#5 v=0
112320 On ch=1 n=a3 v=114
112340 On ch=1 n=a3 v=0
112340 On ch=1 n=a4 v=120
112560 On ch=1 n=c#5 v=114
112800 On ch=1 n=c#5 v=0
112800 On ch=1 n=a4 v=0
112800 On ch=1 n=d4 v=114
112820 On ch=1 n=d4 v=0
112820 On ch=1 n=d5 v=120
113040 On ch=1 n=f5 v=114
113280 On ch=1 n=f5 v=0
113280 On ch=1 n=d5 v=0
113280 On ch=1 n=e4 v=114
113300 On ch=1 n=e4 v=0
113300 On ch=1 n=e5 v=120
113520 On ch=1 n=g5 v=114
113760 On ch=1 n=g5 v=0
113760 On ch=1 n=e5 v=0
113760 On ch=1 n=f#4 v=114
113780 On ch=1 n=f#4 v=0
113780 On ch=1 n=f#5 v=120
114000 On ch=1 n=a5 v=114
114240 On ch=1 n=a5 v=0
114240 On ch=1 n=f#5 v=0
114240 On ch=1 n=g4 v=114
114260 On ch=1 n=g4 v=0
114260 On ch=1 n=g5 v=120
114480 On ch=1 n=a#5 v=114
114720 On ch=1 n=a#5 v=0
114720 On ch=1 n=g5 v=0
114720 On ch=1 n=g#4 v=114
114740 On ch=1 n=g#4 v=0
114740 On ch=1 n=g#5 v=120
114960 On ch=1 n=b5 v=114
115200 On ch=1 n=b5 v=0
115200 On ch=1 n=g#5 v=0
115200 On ch=1 n=a4 v=114
115200 On ch=1 n=a5 v=114
115440 On ch=1 n=a5 v=0
115440 On ch=1 n=a4 v=0
115440 On ch=1 n=e5 v=127
115440 On ch=1 n=g5 v=127
115440 On ch=1 n=a5 v=127
115440 On ch=1 n=c#6 v=127
115560 On ch=1 n=c#6 v=0
115560 On ch=1 n=a5 v=0
115560 On ch=1 n=g5 v=0
115560 On ch=1 n=e5 v=0
115680 On ch=1 n=d6 v=127
115680 On ch=1 n=a5 v=127
115680 On ch=1 n=f5 v=127
115680 On ch=1 n=d5 v=127
115800 On ch=1 n=d5 v=0
115800 On ch=1 n=f5 v=0
115800 On ch=1 n=a5 v=0
115800 On ch=1 n=d6 v=0
117120 On ch=1 n=d4 v=65
117360 On ch=1 n=d4 v=0
117360 On ch=1 n=f4 v=65
117600 On ch=1 n=f4 v=0
117600 On ch=1 n=a#3 v=73
117600 On ch=1 n=a#4 v=73
117840 On ch=1 n=a#4 v=0
117840 On ch=1 n=d5 v=81
118080 On ch=1 n=d5 v=0
118080 On ch=1 n=d#5 v=89
118320 On ch=1 n=d#5 v=0
118320 On ch=1 n=d5 v=81
118560 On ch=1 n=d5 v=0
118560 On ch=1 n=a#3 v=0
118560 On ch=1 n=a#4 v=73
118800 On ch=1 n=a#4 v=0
118800 On ch=1 n=f4 v=65
119040 On ch=1 n=f4 v=0
119040 On ch=1 n=f3 v=65
119080 On ch=1 n=d#4 v=65
119080 On ch=1 n=f4 v=65
120000 On ch=1 n=f4 v=0
120000 On ch=1 n=d#4 v=0
120000 On ch=1 n=f3 v=0
120000 On ch=1 n=d4 v=65
120240 On ch=1 n=d4 v=0
120240 On ch=1 n=f4 v=65
120480 On ch=1 n=f4 v=0
120480 On ch=1 n=a#3 v=73
120480 On ch=1 n=a#4 v=73
120720 On ch=1 n=a#4 v=0
120720 On ch=1 n=d5 v=81
120960 On ch=1 n=d5 v=0
120960 On ch=1 n=d#5 v=89
121200 On ch=1 n=d#5 v=0
121200 On ch=1 n=d5 v=81
121440 On ch=1 n=d5 v=0
121440 On ch=1 n=a#3 v=0
121440 On ch=1 n=a#4 v=73
121680 On ch=1 n=a#4 v=0
121680 On ch=1 n=f4 v=65
121920 On ch=1 n=f4 v=0
121920 On ch=1 n=f3 v=65
121960 On ch=1 n=d#4 v=65
121960 On ch=1 n=f4 v=65
122880 On ch=1 n=f4 v=0
122880 On ch=1 n=d#4 v=0
122880 On ch=1 n=f3 v=0
122880 On ch=1 n=d4 v=65
123120 On ch=1 n=d4 v=0
123120 On ch=1 n=f4 v=65
123360 On ch=1 n=f4 v=0
123360 On ch=1 n=a#3 v=70
123360 On ch=1 n=a#4 v=70
123600 On ch=1 n=a#4 v=0
123600 On ch=1 n=d5 v=70
123840 On ch=1 n=d5 v=0
123840 On ch=1 n=d#5 v=75
124080 On ch=1 n=d#5 v=0
124080 On ch=1 n=d5 v=75
124320 On ch=1 n=d5 v=0
124320 On ch=1 n=a#3 v=0
124320 On ch=1 n=a#4 v=80
124560 On ch=1 n=a#4 v=0
124560 On ch=1 n=f4 v=80
124800 On ch=1 n=f4 v=0
124800 On ch=1 n=a4 v=84
124800 On ch=1 n=c4 v=84
125040 On ch=1 n=a4 v=0
125040 On ch=1 n=c5 v=84
125280 On ch=1 n=c5 v=0
125280 On ch=1 n=d5 v=84
125520 On ch=1 n=d5 v=0
125520 On ch=1 n=c5 v=84
125760 On ch=1 n=c5 v=0
125760 On ch=1 n=c4 v=0
125760 On ch=1 n=a4 v=84
126000 On ch=1 n=a4 v=0
126000 On ch=1 n=f4 v=84
126240 On ch=1 n=f4 v=0
126240 On ch=1 n=c3 v=84
126268 On ch=1 n=d#4 v=84
126480 On ch=1 n=d#4 v=0
126480 On ch=1 n=e4 v=84
126720 On ch=1 n=e4 v=0
126720 On ch=1 n=c5 v=84
126960 On ch=1 n=c5 v=0
126960 On ch=1 n=a#4 v=84
127200 On ch=1 n=a#4 v=0
127200 On ch=1 n=c3 v=0
127200 On ch=1 n=g4 v=80
127360 On ch=1 n=g4 v=0
127360 On ch=1 n=e4 v=75
127520 On ch=1 n=e4 v=0
127520 On ch=1 n=c#4 v=70
127680 On ch=1 n=c#4 v=0
127680 On ch=1 n=f3 v=65
127680 On ch=1 n=b3 v=65
127840 On ch=1 n=b3 v=0
127840 On ch=1 n=c4 v=65
128000 On ch=1 n=c4 v=0
128000 On ch=1 n=d4 v=65
128160 On ch=1 n=d4 v=0
128160 On ch=1 n=c4 v=65
128640 On ch=1 n=c4 v=0
128640 On ch=1 n=f3 v=0
128640 On ch=1 n=d4 v=65
128880 On ch=1 n=d4 v=0
128880 On ch=1 n=f4 v=65
129120 On ch=1 n=f4 v=0
129120 On ch=1 n=a#3 v=73
129120 On ch=1 n=a#4 v=73
129360 On ch=1 n=a#4 v=0
129360 On ch=1 n=d5 v=81
129600 On ch=1 n=d5 v=0
129600 On ch=1 n=d#5 v=89
129840 On ch=1 n=d#5 v=0
129840 On ch=1 n=d5 v=81
130080 On ch=1 n=d5 v=0
130080 On ch=1 n=a#3 v=0
130080 On ch=1 n=a#4 v=73
130320 On ch=1 n=a#4 v=0
130320 On ch=1 n=f4 v=65
130560 On ch=1 n=f4 v=0
130560 On ch=1 n=f3 v=65
130600 On ch=1 n=d#4 v=65
130600 On ch=1 n=f4 v=65
131520 On ch=1 n=f4 v=0
131520 On ch=1 n=d#4 v=0
131520 On ch=1 n=f3 v=0
131520 On ch=1 n=d4 v=65
131760 On ch=1 n=d4 v=0
131760 On ch=1 n=f4 v=65
132000 On ch=1 n=f4 v=0
132000 On ch=1 n=a#3 v=73
132000 On ch=1 n=a#4 v=73
132240 On ch=1 n=a#4 v=0
132240 On ch=1 n=d5 v=81
132480 On ch=1 n=d5 v=0
132480 On ch=1 n=d#5 v=89
132720 On ch=1 n=d#5 v=0
132720 On ch=1 n=d5 v=81
132960 On ch=1 n=d5 v=0
132960 On ch=1 n=a#3 v=0
132960 On ch=1 n=a#4 v=73
133200 On ch=1 n=a#4 v=0
133200 On ch=1 n=f4 v=65
133440 On ch=1 n=f4 v=0
133440 On ch=1 n=f3 v=65
133480 On ch=1 n=d#4 v=65
133480 On ch=1 n=f4 v=65
134400 On ch=1 n=f4 v=0
134400 On ch=1 n=d#4 v=0
134400 On ch=1 n=f3 v=0
134400 On ch=1 n=d4 v=65
134640 On ch=1 n=d4 v=0
134640 On ch=1 n=f4 v=65
134880 On ch=1 n=f4 v=0
134880 On ch=1 n=a#3 v=70
134880 On ch=1 n=a#4 v=70
135120 On ch=1 n=a#4 v=0
135120 On ch=1 n=d5 v=70
135360 On ch=1 n=d5 v=0
135360 On ch=1 n=d#5 v=75
135600 On ch=1 n=d#5 v=0
135600 On ch=1 n=d5 v=75
135840 On ch=1 n=d5 v=0
135840 On ch=1 n=a#3 v=0
135840 On ch=1 n=a#4 v=80
136080 On ch=1 n=a#4 v=0
136080 On ch=1 n=f4 v=80
136320 On ch=1 n=f4 v=0
136320 On ch=1 n=a4 v=84
136320 On ch=1 n=c4 v=84
136560 On ch=1 n=a4 v=0
136560 On ch=1 n=c5 v=84
136800 On ch=1 n=c5 v=0
136800 On ch=1 n=d5 v=84
137040 On ch=1 n=d5 v=0
137040 On ch=1 n=c5 v=84
137280 On ch=1 n=c5 v=0
137280 On ch=1 n=c4 v=0
137280 On ch=1 n=a4 v=84
137520 On ch=1 n=a4 v=0
137520 On ch=1 n=f4 v=84
137760 On ch=1 n=f4 v=0
137760 On ch=1 n=c3 v=84
137788 On ch=1 n=d#4 v=84
138000 On ch=1 n=d#4 v=0
138000 On ch=1 n=e4 v=84
138240 On ch=1 n=e4 v=0
138240 On ch=1 n=c5 v=84
138480 On ch=1 n=c5 v=0
138480 On ch=1 n=a#4 v=84
138720 On ch=1 n=a#4 v=0
138720 On ch=1 n=c3 v=0
138720 On ch=1 n=g4 v=80
138880 On ch=1 n=g4 v=0
138880 On ch=1 n=e4 v=75
139040 On ch=1 n=e4 v=0
139040 On ch=1 n=c#4 v=70
139200 On ch=1 n=c#4 v=0
139200 On ch=1 n=f3 v=65
139200 On ch=1 n=b3 v=65
139360 On ch=1 n=b3 v=0
139360 On ch=1 n=c4 v=65
139520 On ch=1 n=c4 v=0
139520 On ch=1 n=d4 v=65
139680 On ch=1 n=d4 v=0
139680 On ch=1 n=c4 v=65
140160 On ch=1 n=c4 v=0
140160 On ch=1 n=f3 v=0
140160 On ch=1 n=a#3 v=65
140400 On ch=1 n=a#3 v=0
140400 On ch=1 n=c4 v=71
140640 On ch=1 n=c4 v=0
140640 On ch=1 n=a#2 v=65
140680 On ch=1 n=a#2 v=0
140680 On ch=1 n=d4 v=78
141600 On ch=1 n=d4 v=0
141600 On ch=1 n=a#3 v=65
141760 On ch=1 n=a#3 v=0
141760 On ch=1 n=c4 v=69
141920 On ch=1 n=c4 v=0
141920 On ch=1 n=d4 v=73
142080 On ch=1 n=d4 v=0
142080 On ch=1 n=c3 v=65
142120 On ch=1 n=c3 v=0
142120 On ch=1 n=d#4 v=78
143040 On ch=1 n=d#4 v=0
143040 On ch=1 n=a#3 v=65
143160 On ch=1 n=a#3 v=0
143160 On ch=1 n=c4 v=68
143280 On ch=1 n=c4 v=0
143280 On ch=1 n=d4 v=70
143400 On ch=1 n=d4 v=0
143400 On ch=1 n=d#4 v=73
143520 On ch=1 n=d#4 v=0
143520 On ch=1 n=c#3 v=65
143560 On ch=1 n=c#3 v=0
143560 On ch=1 n=e4 v=78
144000 On ch=1 n=e4 v=0
144000 On ch=1 n=d3 v=65
144040 On ch=1 n=d3 v=0
144040 On ch=1 n=f4 v=78
144480 On ch=1 n=f4 v=0
144480 On ch=1 n=d3 v=78
144520 On ch=1 n=d3 v=0
144520 On ch=1 n=a#3 v=78
144564 On ch=1 n=a#3 v=0
144564 On ch=1 n=c4 v=78
144608 On ch=1 n=c4 v=0
144608 On ch=1 n=a#3 v=78
144652 On ch=1 n=a#3 v=0
144652 On ch=1 n=c4 v=78
144696 On ch=1 n=c4 v=0
144696 On ch=1 n=a#3 v=78
144740 On ch=1 n=a#3 v=0
144740 On ch=1 n=c4 v=78
144784 On ch=1 n=c4 v=0
144784 On ch=1 n=a#3 v=78
144828 On ch=1 n=a#3 v=0
144828 On ch=1 n=c4 v=78
144880 On ch=1 n=c4 v=0
144880 On ch=1 n=a3 v=78
144920 On ch=1 n=a3 v=0
144920 On ch=1 n=a#3 v=78
144960 On ch=1 n=d#3 v=78
145920 On ch=1 n=d#3 v=0
145920 On ch=1 n=a#3 v=0
145920 On ch=1 n=g4 v=102
146160 On ch=1 n=a#4 v=102
146400 On ch=1 n=a#4 v=0
146400 On ch=1 n=g4 v=0
146400 On ch=1 n=d#4 v=102
146400 On ch=1 n=d#5 v=102
146640 On ch=1 n=d#5 v=0
146640 On ch=1 n=g5 v=102
146880 On ch=1 n=g5 v=0
146880 On ch=1 n=g#5 v=102
147120 On ch=1 n=g#5 v=0
147120 On ch=1 n=g5 v=102
147360 On ch=1 n=g5 v=0
147360 On ch=1 n=d#4 v=0
147360 On ch=1 n=g4 v=102
147360 On ch=1 n=d#5 v=102
147600 On ch=1 n=d#5 v=0
147600 On ch=1 n=c5 v=102
147840 On ch=1 n=c5 v=0
147840 On ch=1 n=g4 v=0
147840 On ch=1 n=a#4 v=102
147840 On ch=1 n=g3 v=102
148080 On ch=1 n=a#4 v=0
148080 On ch=1 n=d5 v=93
148320 On ch=1 n=d5 v=0
148320 On ch=1 n=d#5 v=84
148560 On ch=1 n=d#5 v=0
148560 On ch=1 n=d5 v=75
148800 On ch=1 n=d5 v=0
148800 On ch=1 n=g3 v=0
148800 On ch=1 n=g4 v=65
148800 On ch=1 n=a#4 v=65
149040 On ch=1 n=a#4 v=0
149040 On ch=1 n=g4 v=65
149280 On ch=1 n=g4 v=0
149280 On ch=1 n=g4 v=0
149280 On ch=1 n=c4 v=65
149308 On ch=1 n=d#5 v=65
149520 On ch=1 n=d#5 v=0
149520 On ch=1 n=g5 v=65
149760 On ch=1 n=g5 v=0
149760 On ch=1 n=g#5 v=65
150000 On ch=1 n=g#5 v=0
150000 On ch=1 n=g5 v=65
150240 On ch=1 n=g5 v=0
150240 On ch=1 n=c4 v=0
150240 On ch=1 n=g4 v=65
150240 On ch=1 n=d#5 v=65
150480 On ch=1 n=d#5 v=0
150480 On ch=1 n=c5 v=65
150720 On ch=1 n=c5 v=0
150720 On ch=1 n=g4 v=0
150720 On ch=1 n=g3 v=65
150748 On ch=1 n=a#4 v=65
150960 On ch=1 n=a#4 v=0
150960 On ch=1 n=d5 v=65
151200 On ch=1 n=d5 v=0
151200 On ch=1 n=d#5 v=65
151440 On ch=1 n=d#5 v=0
151440 On ch=1 n=d5 v=65
151680 On ch=1 n=d5 v=0
151680 On ch=1 n=g3 v=0
151680 On ch=1 n=g4 v=65
151680 On ch=1 n=a#4 v=65
151920 On ch=1 n=a#4 v=0
151920 On ch=1 n=a4 v=70
152160 On ch=1 n=a4 v=0
152160 On ch=1 n=g4 v=0
152160 On ch=1 n=c4 v=75
152160 On ch=1 n=g4 v=75
152400 On ch=1 n=g4 v=0
152400 On ch=1 n=f4 v=75
152640 On ch=1 n=f4 v=0
152640 On ch=1 n=e4 v=80
152880 On ch=1 n=e4 v=0
152880 On ch=1 n=d4 v=80
153120 On ch=1 n=d4 v=0
153120 On ch=1 n=c4 v=0
153120 On ch=1 n=c3 v=85
153120 On ch=1 n=c4 v=85
153360 On ch=1 n=c4 v=0
153360 On ch=1 n=a#3 v=85
153600 On ch=1 n=a#3 v=0
153600 On ch=1 n=a3 v=90
153840 On ch=1 n=a3 v=0
153840 On ch=1 n=a#3 v=90
154080 On ch=1 n=a#3 v=0
154080 On ch=1 n=c3 v=0
154080 On ch=1 n=c4 v=90
154320 On ch=1 n=c4 v=0
154320 On ch=1 n=d4 v=90
154560 On ch=1 n=d4 v=0
154560 On ch=1 n=c3 v=90
154560 On ch=1 n=e4 v=90
154800 On ch=1 n=e4 v=0
154800 On ch=1 n=f4 v=90
155040 On ch=1 n=f4 v=0
155040 On ch=1 n=c3 v=0
155040 On ch=1 n=c4 v=90
155040 On ch=1 n=g4 v=90
155280 On ch=1 n=g4 v=0
155280 On ch=1 n=a4 v=90
155520 On ch=1 n=a4 v=0
155520 On ch=1 n=a#4 v=85
155760 On ch=1 n=a#4 v=0
155760 On ch=1 n=b4 v=85
156000 On ch=1 n=b4 v=0
156000 On ch=1 n=c4 v=0
156000 On ch=1 n=c4 v=80
156000 On ch=1 n=c5 v=80
156240 On ch=1 n=c5 v=0
156240 On ch=1 n=a#4 v=80
156480 On ch=1 n=a#4 v=0
156480 On ch=1 n=a4 v=75
156720 On ch=1 n=a4 v=0
156720 On ch=1 n=g#4 v=75
156960 On ch=1 n=g#4 v=0
156960 On ch=1 n=c4 v=0
156960 On ch=1 n=g4 v=70
157080 On ch=1 n=g4 v=0
157080 On ch=1 n=f#4 v=70
157200 On ch=1 n=f#4 v=0
157200 On ch=1 n=f4 v=70
157320 On ch=1 n=f4 v=0
157320 On ch=1 n=d#4 v=70
157920 On ch=1 n=d#4 v=0
157920 On ch=1 n=d4 v=65
158160 On ch=1 n=f4 v=65
158400 On ch=1 n=f4 v=0
158400 On ch=1 n=d4 v=0
158400 On ch=1 n=a#3 v=73
158400 On ch=1 n=a#4 v=73
158640 On ch=1 n=a#4 v=0
158640 On ch=1 n=d5 v=81
158880 On ch=1 n=d5 v=0
158880 On ch=1 n=d#5 v=89
159120 On ch=1 n=d#5 v=0
159120 On ch=1 n=d5 v=81
159360 On ch=1 n=d5 v=0
159360 On ch=1 n=a#3 v=0
159360 On ch=1 n=a#4 v=73
159600 On ch=1 n=a#4 v=0
159600 On ch=1 n=f4 v=65
159840 On ch=1 n=f4 v=0
159840 On ch=1 n=f3 v=65
159880 On ch=1 n=d#4 v=65
159880 On ch=1 n=f4 v=65
160800 On ch=1 n=f4 v=0
160800 On ch=1 n=d#4 v=0
160800 On ch=1 n=f3 v=0
160800 On ch=1 n=d4 v=65
161040 On ch=1 n=d4 v=0
161040 On ch=1 n=f4 v=65
161280 On ch=1 n=f4 v=0
161280 On ch=1 n=a#3 v=73
161280 On ch=1 n=a#4 v=73
161520 On ch=1 n=a#4 v=0
161520 On ch=1 n=d5 v=81
161760 On ch=1 n=d5 v=0
161760 On ch=1 n=d#5 v=89
162000 On ch=1 n=d#5 v=0
162000 On ch=1 n=d5 v=81
162240 On ch=1 n=d5 v=0
162240 On ch=1 n=a#3 v=0
162240 On ch=1 n=a#3 v=73
162240 On ch=1 n=a#4 v=73
162480 On ch=1 n=a#4 v=0
162480 On ch=1 n=a#3 v=0
162480 On ch=1 n=d4 v=65
162480 On ch=1 n=f4 v=65
162720 On ch=1 n=f4 v=0
162720 On ch=1 n=d4 v=0
162720 On ch=1 n=f3 v=65
162760 On ch=1 n=d#4 v=65
162760 On ch=1 n=f4 v=65
162960 On ch=1 n=f3 v=0
162960 On ch=1 n=g3 v=69
163200 On ch=1 n=g3 v=0
163200 On ch=1 n=a#3 v=74
163440 On ch=1 n=a#3 v=0
163440 On ch=1 n=a3 v=78
163680 On ch=1 n=a3 v=0
163680 On ch=1 n=f4 v=0
163680 On ch=1 n=d#4 v=0
163680 On ch=1 n=g#3 v=65
163680 On ch=1 n=d4 v=65
163920 On ch=1 n=d4 v=0
163920 On ch=1 n=g#3 v=0
163920 On ch=1 n=g3 v=68
163920 On ch=1 n=d#4 v=68
164160 On ch=1 n=d#4 v=0
164160 On ch=1 n=g3 v=0
164160 On ch=1 n=f3 v=71
164160 On ch=1 n=f4 v=71
164400 On ch=1 n=f4 v=0
164400 On ch=1 n=g4 v=74
164640 On ch=1 n=g4 v=0
164640 On ch=1 n=f3 v=0
164640 On ch=1 n=d#3 v=77
164660 On ch=1 n=g#4 v=77
164880 On ch=1 n=g#4 v=0
164880 On ch=1 n=a#4 v=80
165120 On ch=1 n=a#4 v=0
165120 On ch=1 n=d#3 v=0
165120 On ch=1 n=d3 v=83
165148 On ch=1 n=b4 v=83
165360 On ch=1 n=b4 v=0
165360 On ch=1 n=g4 v=86
165600 On ch=1 n=g4 v=0
165600 On ch=1 n=d3 v=0
165600 On ch=1 n=c3 v=79
165628 On ch=1 n=c5 v=79
165840 On ch=1 n=c5 v=0
165840 On ch=1 n=c3 v=0
165840 On ch=1 n=g3 v=72
165840 On ch=1 n=g4 v=72
166080 On ch=1 n=g4 v=0
166080 On ch=1 n=g3 v=0
166080 On ch=1 n=c4 v=65
166080 On ch=1 n=e4 v=65
166320 On ch=1 n=e4 v=0
166320 On ch=1 n=c4 v=0
166320 On ch=1 n=b3 v=67
166320 On ch=1 n=f4 v=67
166560 On ch=1 n=f4 v=0
166560 On ch=1 n=b3 v=0
166560 On ch=1 n=a#3 v=69
166560 On ch=1 n=e4 v=69
166800 On ch=1 n=e4 v=0
166800 On ch=1 n=a#3 v=0
166800 On ch=1 n=a3 v=71
166800 On ch=1 n=f4 v=71
167040 On ch=1 n=f4 v=0
167040 On ch=1 n=a3 v=0
167040 On ch=1 n=g3 v=73
167040 On ch=1 n=g4 v=73
167280 On ch=1 n=g4 v=0
167280 On ch=1 n=a4 v=75
167520 On ch=1 n=a4 v=0
167520 On ch=1 n=g3 v=0
167520 On ch=1 n=f3 v=77
167540 On ch=1 n=a#4 v=77
167760 On ch=1 n=a#4 v=0
167760 On ch=1 n=b4 v=79
168000 On ch=1 n=b4 v=0
168000 On ch=1 n=f3 v=0
168000 On ch=1 n=e3 v=81
168028 On ch=1 n=c5 v=81
168240 On ch=1 n=c5 v=0
168240 On ch=1 n=a#4 v=83
168480 On ch=1 n=a#4 v=0
168480 On ch=1 n=e3 v=0
168480 On ch=1 n=f3 v=81
168480 On ch=1 n=a4 v=81
168720 On ch=1 n=a4 v=0
168720 On ch=1 n=f3 v=0
168720 On ch=1 n=g3 v=77
168720 On ch=1 n=g4 v=77
168960 On ch=1 n=g4 v=0
168960 On ch=1 n=g3 v=0
168960 On ch=1 n=g#3 v=73
168960 On ch=1 n=f4 v=73
169200 On ch=1 n=f4 v=0
169200 On ch=1 n=g#3 v=0
169200 On ch=1 n=a3 v=69
169200 On ch=1 n=d#4 v=69
169440 On ch=1 n=d#4 v=0
169440 On ch=1 n=a3 v=0
169440 On ch=1 n=a#3 v=65
169440 On ch=1 n=d4 v=65
169680 On ch=1 n=d4 v=0
169680 On ch=1 n=f4 v=65
169920 On ch=1 n=f4 v=0
169920 On ch=1 n=a#3 v=0
169920 On ch=1 n=a#2 v=65
169948 On ch=1 n=a#4 v=65
170160 On ch=1 n=a#4 v=0
170160 On ch=1 n=a4 v=65
170400 On ch=1 n=a4 v=0
170400 On ch=1 n=a#2 v=0
170400 On ch=1 n=g4 v=65
170640 On ch=1 n=g4 v=0
170640 On ch=1 n=f4 v=65
170880 On ch=1 n=f4 v=0
170880 On ch=1 n=d#4 v=65
170880 On ch=1 n=a#3 v=65
171120 On ch=1 n=d#4 v=0
171120 On ch=1 n=d4 v=65
171360 On ch=1 n=d4 v=0
171360 On ch=1 n=a#3 v=0
171360 On ch=1 n=a#2 v=65
171360 On ch=1 n=c4 v=65
171600 On ch=1 n=c4 v=0
171600 On ch=1 n=d4 v=65
171840 On ch=1 n=d4 v=0
171840 On ch=1 n=a#2 v=0
171840 On ch=1 n=d#4 v=65
172080 On ch=1 n=d#4 v=0
172080 On ch=1 n=f4 v=65
172320 On ch=1 n=f4 v=0
172320 On ch=1 n=a#3 v=65
172320 On ch=1 n=g4 v=65
172560 On ch=1 n=g4 v=0
172560 On ch=1 n=g#4 v=65
172800 On ch=1 n=g#4 v=0
172800 On ch=1 n=a#3 v=0
172800 On ch=1 n=a4 v=65
172800 On ch=1 n=a#2 v=65
173040 On ch=1 n=a4 v=0
173040 On ch=1 n=g4 v=65
173280 On ch=1 n=g4 v=0
173280 On ch=1 n=a#2 v=0
173280 On ch=1 n=f4 v=65
173520 On ch=1 n=f4 v=0
173520 On ch=1 n=d#4 v=65
173760 On ch=1 n=d#4 v=0
173760 On ch=1 n=d4 v=65
173760 On ch=1 n=a#3 v=65
174000 On ch=1 n=d4 v=0
174000 On ch=1 n=c4 v=65
174240 On ch=1 n=c4 v=0
174240 On ch=1 n=a#3 v=0
174240 On ch=1 n=a#2 v=65
174240 On ch=1 n=a#3 v=65
174480 On ch=1 n=a#3 v=0
174480 On ch=1 n=c4 v=65
174720 On ch=1 n=c4 v=0
174720 On ch=1 n=a#2 v=0
174720 On ch=1 n=d4 v=65
174960 On ch=1 n=d4 v=0
174960 On ch=1 n=d#4 v=65
175200 On ch=1 n=d#4 v=0
175200 On ch=1 n=a#3 v=65
175200 On ch=1 n=e4 v=65
175440 On ch=1 n=e4 v=0
175440 On ch=1 n=f4 v=65
175680 On ch=1 n=f4 v=0
175680 On ch=1 n=a#3 v=0
175680 On ch=1 n=a#2 v=65
175708 On ch=1 n=g4 v=65
175920 On ch=1 n=g4 v=0
175920 On ch=1 n=f4 v=65
176160 On ch=1 n=f4 v=0
176160 On ch=1 n=a#2 v=0
176160 On ch=1 n=d#4 v=65
176400 On ch=1 n=d#4 v=0
176400 On ch=1 n=d4 v=65
176640 On ch=1 n=d4 v=0
176640 On ch=1 n=a#3 v=65
176660 On ch=1 n=c4 v=65
176872 On ch=1 n=a#3 v=0
176880 On ch=1 n=c4 v=0
176880 On ch=1 n=a#3 v=65
177120 On ch=1 n=a#3 v=0
177120 On ch=1 n=a#2 v=65
177120 On ch=1 n=a3 v=65
177360 On ch=1 n=a3 v=0
177360 On ch=1 n=a#2 v=0
177360 On ch=1 n=a#3 v=65
177600 On ch=1 n=c4 v=65
177840 On ch=1 n=c4 v=0
177840 On ch=1 n=c#4 v=65
178080 On ch=1 n=c#4 v=0
178080 On ch=1 n=d4 v=65
178320 On ch=1 n=d4 v=0
178320 On ch=1 n=d#4 v=65
178560 On ch=1 n=d#4 v=0
178560 On ch=1 n=f4 v=65
178800 On ch=1 n=f4 v=0
178800 On ch=1 n=g4 v=65
178980 On ch=1 n=g4 v=0
178980 On ch=1 n=a4 v=65
179040 On ch=1 n=a4 v=0
179040 On ch=1 n=a#3 v=0
179040 On ch=1 n=a#4 v=65
179280 On ch=1 n=a#4 v=0
179280 On ch=1 n=c5 v=65
179280 On ch=1 n=a4 v=65
179520 On ch=1 n=a4 v=0
179520 On ch=1 n=c5 v=0
179520 On ch=1 n=g4 v=65
179520 On ch=1 n=a#4 v=65
179640 On ch=1 n=a#4 v=0
179640 On ch=1 n=g4 v=0
179640 On ch=1 n=f4 v=68
179640 On ch=1 n=a4 v=68
179700 On ch=1 n=a4 v=0
179700 On ch=1 n=f4 v=0
179760 On ch=1 n=d#4 v=72
179760 On ch=1 n=g4 v=72
179820 On ch=1 n=g4 v=0
179820 On ch=1 n=d#4 v=0
179880 On ch=1 n=d4 v=75
179880 On ch=1 n=f4 v=75
179940 On ch=1 n=f4 v=0
179940 On ch=1 n=d4 v=0
180000 On ch=1 n=c4 v=78
180000 On ch=1 n=d#4 v=78
181440 On ch=1 n=d#4 v=0
181440 On ch=1 n=c4 v=0
181440 On ch=1 n=a#2 v=53
181680 On ch=1 n=d4 v=53
184320 On ch=1 n=d4 v=0
184320 On ch=1 n=a#2 v=0
185160 On ch=1 n=f5 v=102
185280 On ch=1 n=f5 v=0
185280 On ch=1 n=a#5 v=102
185340 On ch=1 n=a#5 v=0
185400 On ch=1 n=d5 v=102
185460 On ch=1 n=d5 v=0
185520 On ch=1 n=g5 v=102
185580 On ch=1 n=g5 v=0
185640 On ch=1 n=f5 v=102
185700 On ch=1 n=f5 v=0
185760 On ch=1 n=e5 v=102
185820 On ch=1 n=e5 v=0
185880 On ch=1 n=c5 v=102
185940 On ch=1 n=c5 v=0
186000 On ch=1 n=f5 v=102
186060 On ch=1 n=f5 v=0
186120 On ch=1 n=a4 v=102
186180 On ch=1 n=a4 v=0
186240 On ch=1 n=a#4 v=102
186300 On ch=1 n=a#4 v=0
186360 On ch=1 n=g4 v=102
186420 On ch=1 n=g4 v=0
186480 On ch=1 n=c5 v=102
186540 On ch=1 n=c5 v=0
186600 On ch=1 n=a#4 v=102
186660 On ch=1 n=a#4 v=0
186720 On ch=1 n=a4 v=102
186840 On ch=1 n=a4 v=0
186960 On ch=1 n=g4 v=108
187440 On ch=1 n=g4 v=0
187440 On ch=1 n=f#4 v=102
187680 On ch=1 n=f#4 v=0
187680 On ch=1 n=g4 v=102
187740 On ch=1 n=g4 v=0
187800 On ch=1 n=c4 v=102
187860 On ch=1 n=c4 v=0
187920 On ch=1 n=f4 v=102
187980 On ch=1 n=f4 v=0
188040 On ch=1 n=a3 v=102
188100 On ch=1 n=a3 v=0
188160 On ch=1 n=a#3 v=102
188220 On ch=1 n=a#3 v=0
188280 On ch=1 n=g3 v=102
188340 On ch=1 n=g3 v=0
188400 On ch=1 n=c4 v=102
188460 On ch=1 n=c4 v=0
188520 On ch=1 n=a#3 v=102
188580 On ch=1 n=a#3 v=0
188640 On ch=1 n=a3 v=102
188760 On ch=1 n=a3 v=0
188880 On ch=1 n=f2 v=102
188880 On ch=1 n=f3 v=102
189120 On ch=1 n=f3 v=0
189120 On ch=1 n=f2 v=0
189240 On ch=1 n=d5 v=102
189300 On ch=1 n=d5 v=0
189360 On ch=1 n=g5 v=102
189420 On ch=1 n=g5 v=0
189480 On ch=1 n=f5 v=102
189540 On ch=1 n=f5 v=0
189600 On ch=1 n=e5 v=102
189660 On ch=1 n=e5 v=0
189720 On ch=1 n=c5 v=102
189780 On ch=1 n=c5 v=0
189840 On ch=1 n=f5 v=102
189900 On ch=1 n=f5 v=0
189960 On ch=1 n=a4 v=102
190020 On ch=1 n=a4 v=0
190080 On ch=1 n=a#4 v=102
190140 On ch=1 n=a#4 v=0
190200 On ch=1 n=g4 v=102
190260 On ch=1 n=g4 v=0
190320 On ch=1 n=c5 v=102
190380 On ch=1 n=c5 v=0
190440 On ch=1 n=a#4 v=102
190500 On ch=1 n=a#4 v=0
190560 On ch=1 n=a4 v=102
190680 On ch=1 n=a4 v=0
190800 On ch=1 n=g4 v=108
191280 On ch=1 n=g4 v=0
191280 On ch=1 n=f#4 v=102
191520 On ch=1 n=f#4 v=0
191520 On ch=1 n=g4 v=102
191580 On ch=1 n=g4 v=0
191640 On ch=1 n=c4 v=102
191700 On ch=1 n=c4 v=0
191760 On ch=1 n=f4 v=102
191820 On ch=1 n=f4 v=0
191880 On ch=1 n=a3 v=102
191940 On ch=1 n=a3 v=0
192000 On ch=1 n=a#3 v=102
192060 On ch=1 n=a#3 v=0
192120 On ch=1 n=g3 v=102
192180 On ch=1 n=g3 v=0
192240 On ch=1 n=c4 v=102
192300 On ch=1 n=c4 v=0
192360 On ch=1 n=a#3 v=102
192420 On ch=1 n=a#3 v=0
192480 On ch=1 n=a3 v=102
192540 On ch=1 n=a3 v=0
192720 On ch=1 n=f2 v=102
192720 On ch=1 n=f3 v=102
193440 On ch=1 n=f3 v=0
193440 On ch=1 n=f2 v=0
193680 On ch=1 n=f#2 v=65
193680 On ch=1 n=f#3 v=65
194160 On ch=1 n=f#3 v=0
194160 On ch=1 n=f#2 v=0
194160 On ch=1 n=g#3 v=65
194400 On ch=1 n=g#3 v=0
194400 On ch=1 n=f2 v=65
194400 On ch=1 n=f3 v=65
194640 On ch=1 n=f3 v=0
194640 On ch=1 n=f2 v=0
194640 On ch=1 n=f#2 v=65
194640 On ch=1 n=f#3 v=65
195120 On ch=1 n=f#3 v=0
195120 On ch=1 n=f#2 v=0
195120 On ch=1 n=g#3 v=65
195360 On ch=1 n=g#3 v=0
195360 On ch=1 n=f2 v=65
195360 On ch=1 n=f3 v=65
195600 On ch=1 n=f3 v=0
195600 On ch=1 n=f2 v=0
195600 On ch=1 n=f#2 v=65
195600 On ch=1 n=f#3 v=65
195840 On ch=1 n=f#3 v=0
195840 On ch=1 n=f#2 v=0
195840 On ch=1 n=g2 v=65
195840 On ch=1 n=g3 v=65
196080 On ch=1 n=g3 v=0
196080 On ch=1 n=g2 v=0
196080 On ch=1 n=g#2 v=65
196080 On ch=1 n=g#3 v=65
196320 On ch=1 n=g#3 v=0
196320 On ch=1 n=g#2 v=0
196320 On ch=1 n=a2 v=68
196320 On ch=1 n=a3 v=68
196560 On ch=1 n=a3 v=0
196560 On ch=1 n=a2 v=0
196560 On ch=1 n=a#2 v=75
196560 On ch=1 n=a#3 v=75
196800 On ch=1 n=a#3 v=0
196800 On ch=1 n=a#2 v=0
196800 On ch=1 n=b2 v=82
196800 On ch=1 n=b3 v=82
197040 On ch=1 n=b3 v=0
197040 On ch=1 n=b2 v=0
197040 On ch=1 n=c3 v=89
197040 On ch=1 n=c4 v=89
197280 On ch=1 n=c4 v=0
197280 On ch=1 n=c3 v=0
197280 On ch=1 n=f2 v=96
197280 On ch=1 n=f3 v=96
197760 On ch=1 n=f3 v=0
197760 On ch=1 n=f2 v=0
197880 On ch=1 n=d5 v=102
197940 On ch=1 n=d5 v=0
198000 On ch=1 n=g5 v=102
198060 On ch=1 n=g5 v=0
198120 On ch=1 n=f5 v=102
198180 On ch=1 n=f5 v=0
198240 On ch=1 n=e5 v=102
198300 On ch=1 n=e5 v=0
198360 On ch=1 n=c5 v=102
198420 On ch=1 n=c5 v=0
198480 On ch=1 n=f5 v=102
198540 On ch=1 n=f5 v=0
198600 On ch=1 n=a4 v=102
198660 On ch=1 n=a4 v=0
198720 On ch=1 n=a#4 v=102
198780 On ch=1 n=a#4 v=0
198840 On ch=1 n=g4 v=102
198900 On ch=1 n=g4 v=0
198960 On ch=1 n=c5 v=102
199020 On ch=1 n=c5 v=0
199080 On ch=1 n=a#4 v=102
199140 On ch=1 n=a#4 v=0
199200 On ch=1 n=a4 v=102
199320 On ch=1 n=a4 v=0
199440 On ch=1 n=g4 v=108
199920 On ch=1 n=g4 v=0
199920 On ch=1 n=f#4 v=102
200160 On ch=1 n=f#4 v=0
200160 On ch=1 n=g4 v=102
200220 On ch=1 n=g4 v=0
200280 On ch=1 n=c4 v=102
200340 On ch=1 n=c4 v=0
200400 On ch=1 n=f4 v=102
200460 On ch=1 n=f4 v=0
200520 On ch=1 n=a3 v=102
200580 On ch=1 n=a3 v=0
200640 On ch=1 n=a#3 v=102
200700 On ch=1 n=a#3 v=0
200760 On ch=1 n=g3 v=102
200820 On ch=1 n=g3 v=0
200880 On ch=1 n=c4 v=102
200940 On ch=1 n=c4 v=0
201000 On ch=1 n=a#3 v=102
201060 On ch=1 n=a#3 v=0
201120 On ch=1 n=a3 v=102
201180 On ch=1 n=a3 v=0
201360 On ch=1 n=f2 v=102
201360 On ch=1 n=f3 v=102
202080 On ch=1 n=f3 v=0
202080 On ch=1 n=f2 v=0
202320 On ch=1 n=f#2 v=65
202320 On ch=1 n=f#3 v=65
202800 On ch=1 n=f#3 v=0
202800 On ch=1 n=f#2 v=0
202800 On ch=1 n=g#3 v=65
203040 On ch=1 n=g#3 v=0
203040 On ch=1 n=f2 v=65
203040 On ch=1 n=f3 v=65
203280 On ch=1 n=f3 v=0
203280 On ch=1 n=f2 v=0
203280 On ch=1 n=f#2 v=65
203280 On ch=1 n=f#3 v=65
203760 On ch=1 n=f#3 v=0
203760 On ch=1 n=f#2 v=0
203760 On ch=1 n=g#3 v=65
204000 On ch=1 n=g#3 v=0
204000 On ch=1 n=f2 v=65
204000 On ch=1 n=f3 v=65
204240 On ch=1 n=f3 v=0
204240 On ch=1 n=f2 v=0
204240 On ch=1 n=f#2 v=65
204240 On ch=1 n=f#3 v=65
204480 On ch=1 n=f#3 v=0
204480 On ch=1 n=f#2 v=0
204480 On ch=1 n=g2 v=65
204480 On ch=1 n=g3 v=65
204720 On ch=1 n=g3 v=0
204720 On ch=1 n=g2 v=0
204720 On ch=1 n=g#2 v=65
204720 On ch=1 n=g#3 v=65
204960 On ch=1 n=g#3 v=0
204960 On ch=1 n=g#2 v=0
204960 On ch=1 n=a2 v=68
204960 On ch=1 n=a3 v=68
205200 On ch=1 n=a3 v=0
205200 On ch=1 n=a2 v=0
205200 On ch=1 n=a#2 v=75
205200 On ch=1 n=a#3 v=75
205440 On ch=1 n=a#3 v=0
205440 On ch=1 n=a#2 v=0
205440 On ch=1 n=b2 v=82
205440 On ch=1 n=b3 v=82
205680 On ch=1 n=b3 v=0
205680 On ch=1 n=b2 v=0
205680 On ch=1 n=c3 v=89
205680 On ch=1 n=c4 v=89
205920 On ch=1 n=c4 v=0
205920 On ch=1 n=c3 v=0
205920 On ch=1 n=f2 v=96
205920 On ch=1 n=f3 v=96
206400 On ch=1 n=f3 v=0
206400 On ch=1 n=f2 v=0
206520 On ch=1 n=d5 v=102
206580 On ch=1 n=d5 v=0
206640 On ch=1 n=g5 v=102
206700 On ch=1 n=g5 v=0
206760 On ch=1 n=f5 v=102
206820 On ch=1 n=f5 v=0
206880 On ch=1 n=e5 v=102
206940 On ch=1 n=e5 v=0
207000 On ch=1 n=c5 v=102
207060 On ch=1 n=c5 v=0
207120 On ch=1 n=f5 v=102
207180 On ch=1 n=f5 v=0
207240 On ch=1 n=a4 v=102
207300 On ch=1 n=a4 v=0
207360 On ch=1 n=a#4 v=102
207420 On ch=1 n=a#4 v=0
207480 On ch=1 n=g4 v=102
207540 On ch=1 n=g4 v=0
207600 On ch=1 n=c5 v=102
207660 On ch=1 n=c5 v=0
207720 On ch=1 n=a#4 v=102
207780 On ch=1 n=a#4 v=0
207840 On ch=1 n=a4 v=102
207960 On ch=1 n=a4 v=0
208080 On ch=1 n=g4 v=108
208560 On ch=1 n=g4 v=0
208560 On ch=1 n=f#4 v=102
208800 On ch=1 n=f#4 v=0
208800 On ch=1 n=g4 v=102
208860 On ch=1 n=g4 v=0
208920 On ch=1 n=c4 v=102
208980 On ch=1 n=c4 v=0
209040 On ch=1 n=f4 v=102
209100 On ch=1 n=f4 v=0
209160 On ch=1 n=a3 v=102
209220 On ch=1 n=a3 v=0
209280 On ch=1 n=a#3 v=90
209340 On ch=1 n=a#3 v=0
209400 On ch=1 n=g3 v=78
209460 On ch=1 n=g3 v=0
209520 On ch=1 n=c4 v=65
209580 On ch=1 n=c4 v=0
209640 On ch=1 n=a#3 v=65
209700 On ch=1 n=a#3 v=0
209760 On ch=1 n=f4 v=65
209760 On ch=1 n=a3 v=65
209880 On ch=1 n=f4 v=0
209880 On ch=1 n=d#4 v=65
210240 On ch=1 n=d#4 v=0
210240 On ch=1 n=a3 v=0
210246 On ch=1 n=d4 v=65
210246 On ch=1 n=a#3 v=65
210486 On ch=1 n=f4 v=65
210726 On ch=1 n=f4 v=0
210726 On ch=1 n=d4 v=0
210726 On ch=1 n=a#4 v=73
210966 On ch=1 n=a#4 v=0
210966 On ch=1 n=d5 v=81
211206 On ch=1 n=d5 v=0
211206 On ch=1 n=d#5 v=89
211446 On ch=1 n=d#5 v=0
211446 On ch=1 n=d5 v=81
211686 On ch=1 n=d5 v=0
211686 On ch=1 n=a#3 v=0
211686 On ch=1 n=a#4 v=73
211926 On ch=1 n=a#4 v=0
211926 On ch=1 n=f4 v=65
212166 On ch=1 n=f4 v=0
212166 On ch=1 n=f3 v=65
212206 On ch=1 n=d#4 v=65
212206 On ch=1 n=f4 v=65
213126 On ch=1 n=f4 v=0
213126 On ch=1 n=d#4 v=0
213126 On ch=1 n=f3 v=0
213126 On ch=1 n=d4 v=65
213366 On ch=1 n=d4 v=0
213366 On ch=1 n=f4 v=65
213606 On ch=1 n=f4 v=0
213606 On ch=1 n=a#3 v=73
213606 On ch=1 n=a#4 v=73
213846 On ch=1 n=a#4 v=0
213846 On ch=1 n=d5 v=81
214086 On ch=1 n=d5 v=0
214086 On ch=1 n=d#5 v=89
214326 On ch=1 n=d#5 v=0
214326 On ch=1 n=d5 v=81
214566 On ch=1 n=d5 v=0
214566 On ch=1 n=a#3 v=0
214566 On ch=1 n=a#4 v=73
214806 On ch=1 n=a#4 v=0
214806 On ch=1 n=f4 v=65
215046 On ch=1 n=f4 v=0
215046 On ch=1 n=f3 v=65
215086 On ch=1 n=d#4 v=65
215086 On ch=1 n=f4 v=65
215286 On ch=1 n=f3 v=0
215286 On ch=1 n=g3 v=69
215526 On ch=1 n=g3 v=0
215526 On ch=1 n=a#3 v=74
215766 On ch=1 n=a#3 v=0
215766 On ch=1 n=a3 v=78
216006 On ch=1 n=a3 v=0
216006 On ch=1 n=f4 v=0
216006 On ch=1 n=d#4 v=0
216006 On ch=1 n=g#3 v=65
216006 On ch=1 n=d4 v=65
216246 On ch=1 n=d4 v=0
216246 On ch=1 n=g#3 v=0
216246 On ch=1 n=g3 v=68
216246 On ch=1 n=d#4 v=68
216486 On ch=1 n=d#4 v=0
216486 On ch=1 n=g3 v=0
216486 On ch=1 n=f3 v=71
216486 On ch=1 n=f4 v=71
216726 On ch=1 n=f4 v=0
216726 On ch=1 n=g4 v=74
216966 On ch=1 n=g4 v=0
216966 On ch=1 n=f3 v=0
216966 On ch=1 n=d#3 v=77
216986 On ch=1 n=g#4 v=77
217206 On ch=1 n=g#4 v=0
217206 On ch=1 n=a#4 v=80
217446 On ch=1 n=a#4 v=0
217446 On ch=1 n=d#3 v=0
217446 On ch=1 n=d3 v=83
217474 On ch=1 n=b4 v=83
217686 On ch=1 n=b4 v=0
217686 On ch=1 n=g4 v=86
217926 On ch=1 n=g4 v=0
217926 On ch=1 n=d3 v=0
217926 On ch=1 n=c3 v=79
217954 On ch=1 n=c5 v=79
218166 On ch=1 n=c5 v=0
218166 On ch=1 n=c3 v=0
218166 On ch=1 n=g3 v=72
218166 On ch=1 n=g4 v=72
218406 On ch=1 n=g4 v=0
218406 On ch=1 n=g3 v=0
218406 On ch=1 n=c4 v=65
218406 On ch=1 n=e4 v=65
218646 On ch=1 n=e4 v=0
218646 On ch=1 n=c4 v=0
218646 On ch=1 n=b3 v=67
218646 On ch=1 n=f4 v=67
218886 On ch=1 n=f4 v=0
218886 On ch=1 n=b3 v=0
218886 On ch=1 n=a#3 v=69
218886 On ch=1 n=e4 v=69
219126 On ch=1 n=e4 v=0
219126 On ch=1 n=a#3 v=0
219126 On ch=1 n=a3 v=71
219126 On ch=1 n=f4 v=71
219366 On ch=1 n=f4 v=0
219366 On ch=1 n=a3 v=0
219366 On ch=1 n=g3 v=73
219366 On ch=1 n=g4 v=73
219606 On ch=1 n=g4 v=0
219606 On ch=1 n=a4 v=75
219846 On ch=1 n=a4 v=0
219846 On ch=1 n=g3 v=0
219846 On ch=1 n=f3 v=77
219866 On ch=1 n=a#4 v=77
220086 On ch=1 n=a#4 v=0
220086 On ch=1 n=b4 v=79
220326 On ch=1 n=b4 v=0
220326 On ch=1 n=f3 v=0
220326 On ch=1 n=e3 v=81
220354 On ch=1 n=c5 v=81
220566 On ch=1 n=c5 v=0
220566 On ch=1 n=a#4 v=83
220806 On ch=1 n=a#4 v=0
220806 On ch=1 n=e3 v=0
220806 On ch=1 n=f3 v=81
220806 On ch=1 n=a4 v=81
221046 On ch=1 n=a4 v=0
221046 On ch=1 n=f3 v=0
221046 On ch=1 n=g3 v=77
221046 On ch=1 n=g4 v=77
221286 On ch=1 n=g4 v=0
221286 On ch=1 n=g3 v=0
221286 On ch=1 n=g#3 v=73
221286 On ch=1 n=f4 v=73
221526 On ch=1 n=f4 v=0
221526 On ch=1 n=g#3 v=0
221526 On ch=1 n=a3 v=69
221526 On ch=1 n=d#4 v=69
221766 On ch=1 n=d#4 v=0
221766 On ch=1 n=a3 v=0
221766 On ch=1 n=a#3 v=65
221766 On ch=1 n=d4 v=65
222006 On ch=1 n=d4 v=0
222006 On ch=1 n=f4 v=65
222246 On ch=1 n=f4 v=0
222246 On ch=1 n=a#3 v=0
222246 On ch=1 n=a#2 v=65
222274 On ch=1 n=a#4 v=65
222486 On ch=1 n=a#4 v=0
222486 On ch=1 n=a4 v=65
222726 On ch=1 n=a4 v=0
222726 On ch=1 n=a#2 v=0
222726 On ch=1 n=g4 v=65
222966 On ch=1 n=g4 v=0
222966 On ch=1 n=f4 v=65
223206 On ch=1 n=f4 v=0
223206 On ch=1 n=d#4 v=65
223206 On ch=1 n=a#3 v=65
223446 On ch=1 n=d#4 v=0
223446 On ch=1 n=d4 v=65
223686 On ch=1 n=d4 v=0
223686 On ch=1 n=a#3 v=0
223686 On ch=1 n=a#2 v=65
223686 On ch=1 n=c4 v=65
223926 On ch=1 n=c4 v=0
223926 On ch=1 n=d4 v=65
224166 On ch=1 n=d4 v=0
224166 On ch=1 n=a#2 v=0
224166 On ch=1 n=d#4 v=65
224406 On ch=1 n=d#4 v=0
224406 On ch=1 n=f4 v=65
224646 On ch=1 n=f4 v=0
224646 On ch=1 n=a#3 v=65
224646 On ch=1 n=g4 v=65
224886 On ch=1 n=g4 v=0
224886 On ch=1 n=g#4 v=65
225126 On ch=1 n=g#4 v=0
225126 On ch=1 n=a#3 v=0
225126 On ch=1 n=a4 v=65
225126 On ch=1 n=a#2 v=65
225366 On ch=1 n=a4 v=0
225366 On ch=1 n=g4 v=65
225606 On ch=1 n=g4 v=0
225606 On ch=1 n=a#2 v=0
225606 On ch=1 n=f4 v=65
225846 On ch=1 n=f4 v=0
225846 On ch=1 n=d#4 v=65
226086 On ch=1 n=d#4 v=0
226086 On ch=1 n=d4 v=65
226086 On ch=1 n=a#3 v=65
226326 On ch=1 n=d4 v=0
226326 On ch=1 n=c4 v=65
226566 On ch=1 n=c4 v=0
226566 On ch=1 n=a#3 v=0
226566 On ch=1 n=a#2 v=65
226566 On ch=1 n=a#3 v=65
226806 On ch=1 n=a#3 v=0
226806 On ch=1 n=c4 v=65
227046 On ch=1 n=c4 v=0
227046 On ch=1 n=a#2 v=0
227046 On ch=1 n=d4 v=65
227286 On ch=1 n=d4 v=0
227286 On ch=1 n=d#4 v=65
227526 On ch=1 n=d#4 v=0
227526 On ch=1 n=a#3 v=65
227526 On ch=1 n=e4 v=65
227766 On ch=1 n=e4 v=0
227766 On ch=1 n=f4 v=65
228006 On ch=1 n=f4 v=0
228006 On ch=1 n=a#3 v=0
228006 On ch=1 n=a#2 v=65
228034 On ch=1 n=g4 v=65
228246 On ch=1 n=g4 v=0
228246 On ch=1 n=f4 v=65
228486 On ch=1 n=f4 v=0
228486 On ch=1 n=a#2 v=0
228486 On ch=1 n=d#4 v=65
228726 On ch=1 n=d#4 v=0
228726 On ch=1 n=d4 v=65
228966 On ch=1 n=d4 v=0
228966 On ch=1 n=a#3 v=65
228986 On ch=1 n=c4 v=65
229198 On ch=1 n=a#3 v=0
229206 On ch=1 n=c4 v=0
229206 On ch=1 n=a#3 v=65
229446 On ch=1 n=a#3 v=0
229446 On ch=1 n=a#2 v=65
229446 On ch=1 n=a3 v=65
229686 On ch=1 n=a3 v=0
229686 On ch=1 n=a#2 v=0
229686 On ch=1 n=a#3 v=65
229926 On ch=1 n=c4 v=65
230166 On ch=1 n=c4 v=0
230166 On ch=1 n=c#4 v=65
230406 On ch=1 n=c#4 v=0
230406 On ch=1 n=d4 v=65
230646 On ch=1 n=d4 v=0
230646 On ch=1 n=d#4 v=65
230886 On ch=1 n=d#4 v=0
230886 On ch=1 n=f4 v=65
231126 On ch=1 n=f4 v=0
231126 On ch=1 n=g4 v=65
231306 On ch=1 n=g4 v=0
231306 On ch=1 n=a4 v=65
231366 On ch=1 n=a4 v=0
231366 On ch=1 n=a#3 v=0
231366 On ch=1 n=a#4 v=65
231606 On ch=1 n=a#4 v=0
231606 On ch=1 n=c5 v=65
231606 On ch=1 n=a4 v=65
231846 On ch=1 n=a4 v=0
231846 On ch=1 n=c5 v=0
231846 On ch=1 n=g4 v=65
231846 On ch=1 n=a#4 v=65
231966 On ch=1 n=a#4 v=0
231966 On ch=1 n=g4 v=0
231966 On ch=1 n=f4 v=68
231966 On ch=1 n=a4 v=68
232026 On ch=1 n=a4 v=0
232026 On ch=1 n=f4 v=0
232086 On ch=1 n=d#4 v=72
232086 On ch=1 n=g4 v=72
232146 On ch=1 n=g4 v=0
232146 On ch=1 n=d#4 v=0
232206 On ch=1 n=d4 v=75
232206 On ch=1 n=f4 v=75
232266 On ch=1 n=f4 v=0
232266 On ch=1 n=d4 v=0
232326 On ch=1 n=c4 v=78
232326 On ch=1 n=d#4 v=78
233766 On ch=1 n=d#4 v=0
233766 On ch=1 n=c4 v=0
233766 On ch=1 n=a#2 v=53
234006 On ch=1 n=d4 v=53
236160 On ch=1 n=g2 v=90
236160 On ch=1 n=g3 v=90
236166 On ch=1 n=d4 v=0
236166 On ch=1 n=a#2 v=0
237120 On ch=1 n=g3 v=0
237120 On ch=1 n=g2 v=0
237120 On ch=1 n=a2 v=90
237120 On ch=1 n=a3 v=90
237480 On ch=1 n=a3 v=0
237480 On ch=1 n=a2 v=0
237480 On ch=1 n=g2 v=90
237480 On ch=1 n=g3 v=90
237600 On ch=1 n=g3 v=0
237600 On ch=1 n=g2 v=0
237600 On ch=1 n=f#2 v=90
237600 On ch=1 n=f#3 v=90
238080 On ch=1 n=f#3 v=0
238080 On ch=1 n=f#2 v=0
238080 On ch=1 n=a2 v=90
238080 On ch=1 n=a3 v=90
238560 On ch=1 n=a3 v=0
238560 On ch=1 n=a2 v=0
238560 On ch=1 n=g2 v=90
238560 On ch=1 n=g3 v=90
239040 On ch=1 n=g3 v=0
239040 On ch=1 n=g2 v=0
239040 On ch=1 n=d#2 v=90
239040 On ch=1 n=d#3 v=90
240000 On ch=1 n=d#3 v=0
240000 On ch=1 n=d#2 v=0
240000 On ch=1 n=f2 v=90
240000 On ch=1 n=f3 v=90
240360 On ch=1 n=f3 v=0
240360 On ch=1 n=f2 v=0
240360 On ch=1 n=d#2 v=90
240360 On ch=1 n=d#3 v=90
240480 On ch=1 n=d#3 v=0
240480 On ch=1 n=d#2 v=0
240480 On ch=1 n=d2 v=90
240480 On ch=1 n=d3 v=90
240960 On ch=1 n=d3 v=0
240960 On ch=1 n=d2 v=0
240960 On ch=1 n=f2 v=90
240960 On ch=1 n=f3 v=90
241440 On ch=1 n=f3 v=0
241440 On ch=1 n=f2 v=0
241440 On ch=1 n=d#2 v=90
241440 On ch=1 n=d#3 v=90
241920 On ch=1 n=d#3 v=0
241920 On ch=1 n=d#2 v=0
241920 On ch=1 n=c2 v=73
241920 On ch=1 n=c3 v=73
242880 On ch=1 n=c3 v=0
242880 On ch=1 n=c2 v=0
242880 On ch=1 n=d2 v=80
242880 On ch=1 n=d3 v=80
243240 On ch=1 n=d3 v=0
243240 On ch=1 n=d2 v=0
243240 On ch=1 n=g#2 v=85
243240 On ch=1 n=f#3 v=85
243360 On ch=1 n=f#3 v=0
243360 On ch=1 n=g#2 v=0
243360 On ch=1 n=a2 v=96
243360 On ch=1 n=a3 v=96
244320 On ch=1 n=a3 v=0
244320 On ch=1 n=a2 v=0
244320 On ch=1 n=d3 v=90
244320 On ch=1 n=d4 v=90
244680 On ch=1 n=d4 v=0
244680 On ch=1 n=d3 v=0
244680 On ch=1 n=f#3 v=92
244680 On ch=1 n=f#4 v=92
244800 On ch=1 n=f#4 v=0
244800 On ch=1 n=f#3 v=0
244800 On ch=1 n=a4 v=94
244800 On ch=1 n=a3 v=94
245160 On ch=1 n=a3 v=0
245160 On ch=1 n=a4 v=0
245160 On ch=1 n=c#4 v=94
245160 On ch=1 n=c#5 v=94
245280 On ch=1 n=c#5 v=0
245280 On ch=1 n=c#4 v=0
245280 On ch=1 n=d4 v=97
245280 On ch=1 n=d5 v=97
245520 On ch=1 n=d5 v=0
245520 On ch=1 n=d4 v=0
245760 On ch=1 n=d4 v=99
245760 On ch=1 n=d5 v=99
246120 On ch=1 n=d5 v=0
246120 On ch=1 n=d4 v=0
246120 On ch=1 n=f#4 v=99
246120 On ch=1 n=f#5 v=99
246240 On ch=1 n=f#5 v=0
246240 On ch=1 n=f#4 v=0
246240 On ch=1 n=a4 v=102
246240 On ch=1 n=a5 v=102
246600 On ch=1 n=a5 v=0
246600 On ch=1 n=a4 v=0
246600 On ch=1 n=c#5 v=102
246600 On ch=1 n=c#6 v=102
246720 On ch=1 n=c#6 v=0
246720 On ch=1 n=c#5 v=0
246720 On ch=1 n=d5 v=102
246720 On ch=1 n=d6 v=102
246840 On ch=1 n=d6 v=0
246840 On ch=1 n=d5 v=0
247200 On ch=1 n=d5 v=120
247200 On ch=1 n=a5 v=120
247200 On ch=1 n=d6 v=120
247680 On ch=1 n=d6 v=0
247680 On ch=1 n=a5 v=0
247680 On ch=1 n=d5 v=0
247680 On ch=1 n=g2 v=90
247680 On ch=1 n=g3 v=90
248640 On ch=1 n=g3 v=0
248640 On ch=1 n=g2 v=0
248640 On ch=1 n=a2 v=90
248640 On ch=1 n=a3 v=90
249000 On ch=1 n=a3 v=0
249000 On ch=1 n=a2 v=0
249000 On ch=1 n=g2 v=90
249000 On ch=1 n=g3 v=90
249120 On ch=1 n=g3 v=0
249120 On ch=1 n=g2 v=0
249120 On ch=1 n=f#2 v=90
249120 On ch=1 n=f#3 v=90
249600 On ch=1 n=f#3 v=0
249600 On ch=1 n=f#2 v=0
249600 On ch=1 n=a2 v=90
249600 On ch=1 n=a3 v=90
250080 On ch=1 n=a3 v=0
250080 On ch=1 n=a2 v=0
250080 On ch=1 n=g2 v=90
250080 On ch=1 n=g3 v=90
250560 On ch=1 n=g3 v=0
250560 On ch=1 n=g2 v=0
250560 On ch=1 n=d#2 v=90
250560 On ch=1 n=d#3 v=90
251520 On ch=1 n=d#3 v=0
251520 On ch=1 n=d#2 v=0
251520 On ch=1 n=f2 v=90
251520 On ch=1 n=f3 v=90
251880 On ch=1 n=f3 v=0
251880 On ch=1 n=f2 v=0
251880 On ch=1 n=d#2 v=90
251880 On ch=1 n=d#3 v=90
252000 On ch=1 n=d#3 v=0
252000 On ch=1 n=d#2 v=0
252000 On ch=1 n=d2 v=90
252000 On ch=1 n=d3 v=90
252480 On ch=1 n=d3 v=0
252480 On ch=1 n=d2 v=0
252480 On ch=1 n=f2 v=90
252480 On ch=1 n=f3 v=90
252960 On ch=1 n=f3 v=0
252960 On ch=1 n=f2 v=0
252960 On ch=1 n=d#2 v=90
252960 On ch=1 n=d#3 v=90
253440 On ch=1 n=d#3 v=0
253440 On ch=1 n=d#2 v=0
253440 On ch=1 n=c2 v=73
253440 On ch=1 n=c3 v=73
254400 On ch=1 n=c3 v=0
254400 On ch=1 n=c2 v=0
254400 On ch=1 n=d2 v=80
254400 On ch=1 n=d3 v=80
254760 On ch=1 n=d3 v=0
254760 On ch=1 n=d2 v=0
254760 On ch=1 n=g#2 v=85
254760 On ch=1 n=f#3 v=85
254880 On ch=1 n=f#3 v=0
254880 On ch=1 n=g#2 v=0
254880 On ch=1 n=a2 v=96
254880 On ch=1 n=a3 v=96
255840 On ch=1 n=a3 v=0
255840 On ch=1 n=a2 v=0
255840 On ch=1 n=d3 v=90
255840 On ch=1 n=d4 v=90
256200 On ch=1 n=d4 v=0
256200 On ch=1 n=d3 v=0
256200 On ch=1 n=f#3 v=92
256200 On ch=1 n=f#4 v=92
256320 On ch=1 n=f#4 v=0
256320 On ch=1 n=f#3 v=0
256320 On ch=1 n=a4 v=94
256320 On ch=1 n=a3 v=94
256680 On ch=1 n=a3 v=0
256680 On ch=1 n=a4 v=0
256680 On ch=1 n=c#4 v=94
256680 On ch=1 n=c#5 v=94
256800 On ch=1 n=c#5 v=0
256800 On ch=1 n=c#4 v=0
256800 On ch=1 n=d4 v=97
256800 On ch=1 n=d5 v=97
257040 On ch=1 n=d5 v=0
257040 On ch=1 n=d4 v=0
257280 On ch=1 n=d4 v=99
257280 On ch=1 n=d5 v=99
257640 On ch=1 n=d5 v=0
257640 On ch=1 n=d4 v=0
257640 On ch=1 n=f#4 v=99
257640 On ch=1 n=f#5 v=99
257760 On ch=1 n=f#5 v=0
257760 On ch=1 n=f#4 v=0
257760 On ch=1 n=a4 v=102
257760 On ch=1 n=a5 v=102
258120 On ch=1 n=a5 v=0
258120 On ch=1 n=a4 v=0
258120 On ch=1 n=c#5 v=102
258120 On ch=1 n=c#6 v=102
258240 On ch=1 n=c#6 v=0
258240 On ch=1 n=c#5 v=0
258240 On ch=1 n=d5 v=102
258240 On ch=1 n=d6 v=102
258360 On ch=1 n=d6 v=0
258360 On ch=1 n=d5 v=0
258720 On ch=1 n=d5 v=120
258720 On ch=1 n=a5 v=120
258720 On ch=1 n=d6 v=120
259200 On ch=1 n=d6 v=0
259200 On ch=1 n=a5 v=0
259200 On ch=1 n=d5 v=0
259200 On ch=1 n=a#2 v=65
259200 On ch=1 n=a#3 v=65
260040 On ch=1 n=a#3 v=0
260040 On ch=1 n=a#2 v=0
260040 On ch=1 n=c3 v=70
260040 On ch=1 n=c4 v=70
260160 On ch=1 n=c4 v=0
260160 On ch=1 n=c3 v=0
260160 On ch=1 n=c#3 v=70
260160 On ch=1 n=c#4 v=70
260640 On ch=1 n=c#4 v=0
260640 On ch=1 n=c#3 v=0
260640 On ch=1 n=d3 v=70
260640 On ch=1 n=d4 v=70
261480 On ch=1 n=d4 v=0
261480 On ch=1 n=d3 v=0
261480 On ch=1 n=d#3 v=75
261480 On ch=1 n=d#4 v=75
261600 On ch=1 n=d#4 v=0
261600 On ch=1 n=d#3 v=0
261600 On ch=1 n=e3 v=75
261600 On ch=1 n=e4 v=75
262080 On ch=1 n=e4 v=0
262080 On ch=1 n=e3 v=0
262080 On ch=1 n=f3 v=75
262080 On ch=1 n=f4 v=75
262920 On ch=1 n=f4 v=0
262920 On ch=1 n=f3 v=0
262920 On ch=1 n=f#3 v=80
262920 On ch=1 n=f#4 v=80
263040 On ch=1 n=f#4 v=0
263040 On ch=1 n=f#3 v=0
263040 On ch=1 n=g3 v=80
263040 On ch=1 n=g4 v=80
263520 On ch=1 n=g4 v=0
263520 On ch=1 n=g3 v=0
263520 On ch=1 n=g#3 v=80
263520 On ch=1 n=g#4 v=80
264360 On ch=1 n=g#4 v=0
264360 On ch=1 n=g#3 v=0
264360 On ch=1 n=a3 v=85
264360 On ch=1 n=a4 v=85
264480 On ch=1 n=a4 v=0
264480 On ch=1 n=a3 v=0
264480 On ch=1 n=a#3 v=85
264480 On ch=1 n=a#4 v=85
264960 On ch=1 n=a#4 v=0
264960 On ch=1 n=a#3 v=0
264960 On ch=1 n=c4 v=85
264960 On ch=1 n=c5 v=85
265800 On ch=1 n=c5 v=0
265800 On ch=1 n=c4 v=0
265800 On ch=1 n=b3 v=90
265800 On ch=1 n=b4 v=90
265920 On ch=1 n=b4 v=0
265920 On ch=1 n=b3 v=0
265920 On ch=1 n=c4 v=90
265920 On ch=1 n=c5 v=90
266400 On ch=1 n=c5 v=0
266400 On ch=1 n=c4 v=0
266400 On ch=1 n=d4 v=90
266400 On ch=1 n=d5 v=90
267240 On ch=1 n=d5 v=0
267240 On ch=1 n=d4 v=0
267240 On ch=1 n=c#4 v=96
267240 On ch=1 n=c#5 v=96
267360 On ch=1 n=c#5 v=0
267360 On ch=1 n=c#4 v=0
267360 On ch=1 n=d4 v=96
267360 On ch=1 n=d5 v=96
267840 On ch=1 n=d5 v=0
267840 On ch=1 n=d4 v=0
267840 On ch=1 n=e4 v=96
267840 On ch=1 n=e5 v=96
268680 On ch=1 n=e5 v=0
268680 On ch=1 n=e4 v=0
268680 On ch=1 n=f4 v=102
268800 On ch=1 n=f4 v=0
268800 On ch=1 n=g4 v=102
269280 On ch=1 n=g4 v=0
269280 On ch=1 n=a4 v=102
269640 On ch=1 n=a4 v=0
269640 On ch=1 n=g4 v=102
269760 On ch=1 n=g4 v=0
269760 On ch=1 n=f4 v=102
270120 On ch=1 n=f4 v=0
270120 On ch=1 n=f#4 v=102
270240 On ch=1 n=f#4 v=0
270240 On ch=1 n=a4 v=102
270600 On ch=1 n=a4 v=0
270600 On ch=1 n=g4 v=102
270720 On ch=1 n=g4 v=0
270720 On ch=1 n=f4 v=102
271080 On ch=1 n=f4 v=0
271080 On ch=1 n=f#4 v=102
271200 On ch=1 n=f#4 v=0
271200 On ch=1 n=a4 v=102
271560 On ch=1 n=a4 v=0
271560 On ch=1 n=g4 v=102
271680 On ch=1 n=g4 v=0
271680 On ch=1 n=f4 v=102
272040 On ch=1 n=f4 v=0
272040 On ch=1 n=f#4 v=102
272160 On ch=1 n=f#4 v=0
272160 On ch=1 n=g4 v=102
272520 On ch=1 n=g4 v=0
272520 On ch=1 n=a#4 v=102
272640 On ch=1 n=a#4 v=0
272640 On ch=1 n=a4 v=102
273000 On ch=1 n=a4 v=0
273000 On ch=1 n=a3 v=102
273120 On ch=1 n=a3 v=0
273120 On ch=1 n=d4 v=95
273480 On ch=1 n=d4 v=0
273480 On ch=1 n=c4 v=87
273600 On ch=1 n=c4 v=0
273600 On ch=1 n=a#3 v=80
273960 On ch=1 n=a#3 v=0
273960 On ch=1 n=a3 v=72
274080 On ch=1 n=a3 v=0
274080 On ch=1 n=g2 v=65
274080 On ch=1 n=g3 v=65
275040 On ch=1 n=g3 v=0
275040 On ch=1 n=g2 v=0
275040 On ch=1 n=a2 v=65
275040 On ch=1 n=a3 v=65
275400 On ch=1 n=a3 v=0
275400 On ch=1 n=a2 v=0
275400 On ch=1 n=g2 v=65
275400 On ch=1 n=g3 v=65
275520 On ch=1 n=g3 v=0
275520 On ch=1 n=g2 v=0
275520 On ch=1 n=f#2 v=65
275520 On ch=1 n=f#3 v=65
276000 On ch=1 n=f#3 v=0
276000 On ch=1 n=f#2 v=0
276000 On ch=1 n=a2 v=65
276000 On ch=1 n=a3 v=65
276480 On ch=1 n=a3 v=0
276480 On ch=1 n=a2 v=0
276480 On ch=1 n=g2 v=65
276480 On ch=1 n=g3 v=65
276960 On ch=1 n=g3 v=0
276960 On ch=1 n=g2 v=0
276960 On ch=1 n=d#2 v=65
276960 On ch=1 n=d#3 v=65
277920 On ch=1 n=d#3 v=0
277920 On ch=1 n=d#2 v=0
277920 On ch=1 n=f2 v=65
277920 On ch=1 n=f3 v=65
278280 On ch=1 n=f3 v=0
278280 On ch=1 n=f2 v=0
278280 On ch=1 n=d#2 v=65
278280 On ch=1 n=d#3 v=65
278400 On ch=1 n=d#3 v=0
278400 On ch=1 n=d#2 v=0
278400 On ch=1 n=d2 v=65
278400 On ch=1 n=d3 v=65
278880 On ch=1 n=d3 v=0
278880 On ch=1 n=d2 v=0
278880 On ch=1 n=f2 v=65
278880 On ch=1 n=f3 v=65
279360 On ch=1 n=f3 v=0
279360 On ch=1 n=f2 v=0
279360 On ch=1 n=d#2 v=65
279360 On ch=1 n=d#3 v=65
279840 On ch=1 n=d#3 v=0
279840 On ch=1 n=d#2 v=0
279840 On ch=1 n=c2 v=65
279840 On ch=1 n=c3 v=65
280800 On ch=1 n=c3 v=0
280800 On ch=1 n=c2 v=0
280800 On ch=1 n=d2 v=80
280800 On ch=1 n=d3 v=80
281160 On ch=1 n=d3 v=0
281160 On ch=1 n=d2 v=0
281160 On ch=1 n=e2 v=85
281160 On ch=1 n=e3 v=85
281280 On ch=1 n=e3 v=0
281280 On ch=1 n=e2 v=0
281280 On ch=1 n=f#2 v=90
281280 On ch=1 n=f#3 v=90
281760 On ch=1 n=f#3 v=0
281760 On ch=1 n=f#2 v=0
281760 On ch=1 n=a2 v=92
281760 On ch=1 n=a3 v=92
282240 On ch=1 n=a3 v=0
282240 On ch=1 n=a2 v=0
282240 On ch=1 n=g2 v=97
282240 On ch=1 n=g3 v=97
282600 On ch=1 n=g3 v=0
282600 On ch=1 n=g2 v=0
282600 On ch=1 n=a2 v=99
282600 On ch=1 n=a3 v=99
282720 On ch=1 n=a3 v=0
282720 On ch=1 n=a2 v=0
282720 On ch=1 n=a#2 v=102
282720 On ch=1 n=a#3 v=102
283200 On ch=1 n=a#3 v=0
283200 On ch=1 n=a#2 v=0
283200 On ch=1 n=d3 v=105
283200 On ch=1 n=d4 v=105
283680 On ch=1 n=d4 v=0
283680 On ch=1 n=d3 v=0
283680 On ch=1 n=c3 v=112
283680 On ch=1 n=c4 v=112
284040 On ch=1 n=c4 v=0
284040 On ch=1 n=c3 v=0
284040 On ch=1 n=a2 v=116
284040 On ch=1 n=a3 v=116
284160 On ch=1 n=a3 v=0
284160 On ch=1 n=a2 v=0
284160 On ch=1 n=d3 v=120
284160 On ch=1 n=d4 v=120
284640 On ch=1 n=d4 v=0
284640 On ch=1 n=d3 v=0
284640 On ch=1 n=g2 v=120
284640 On ch=1 n=g3 v=120
285600 On ch=1 n=g3 v=0
285600 On ch=1 n=g2 v=0
285600 On ch=1 n=a#2 v=65
285600 On ch=1 n=a#3 v=65
286440 On ch=1 n=a#3 v=0
286440 On ch=1 n=a#2 v=0
286440 On ch=1 n=c3 v=70
286440 On ch=1 n=c4 v=70
286560 On ch=1 n=c4 v=0
286560 On ch=1 n=c3 v=0
286560 On ch=1 n=c#3 v=70
286560 On ch=1 n=c#4 v=70
287040 On ch=1 n=c#4 v=0
287040 On ch=1 n=c#3 v=0
287040 On ch=1 n=d3 v=70
287040 On ch=1 n=d4 v=70
287880 On ch=1 n=d4 v=0
287880 On ch=1 n=d3 v=0
287880 On ch=1 n=d#3 v=75
287880 On ch=1 n=d#4 v=75
288000 On ch=1 n=d#4 v=0
288000 On ch=1 n=d#3 v=0
288000 On ch=1 n=e3 v=75
288000 On ch=1 n=e4 v=75
288480 On ch=1 n=e4 v=0
288480 On ch=1 n=e3 v=0
288480 On ch=1 n=f3 v=75
288480 On ch=1 n=f4 v=75
289320 On ch=1 n=f4 v=0
289320 On ch=1 n=f3 v=0
289320 On ch=1 n=f#3 v=80
289320 On ch=1 n=f#4 v=80
289440 On ch=1 n=f#4 v=0
289440 On ch=1 n=f#3 v=0
289440 On ch=1 n=g3 v=80
289440 On ch=1 n=g4 v=80
289920 On ch=1 n=g4 v=0
289920 On ch=1 n=g3 v=0
289920 On ch=1 n=g#3 v=80
289920 On ch=1 n=g#4 v=80
290760 On ch=1 n=g#4 v=0
290760 On ch=1 n=g#3 v=0
290760 On ch=1 n=a3 v=85
290760 On ch=1 n=a4 v=85
290880 On ch=1 n=a4 v=0
290880 On ch=1 n=a3 v=0
290880 On ch=1 n=a#3 v=85
290880 On ch=1 n=a#4 v=85
291360 On ch=1 n=a#4 v=0
291360 On ch=1 n=a#3 v=0
291360 On ch=1 n=c4 v=85
291360 On ch=1 n=c5 v=85
292200 On ch=1 n=c5 v=0
292200 On ch=1 n=c4 v=0
292200 On ch=1 n=b3 v=90
292200 On ch=1 n=b4 v=90
292320 On ch=1 n=b4 v=0
292320 On ch=1 n=b3 v=0
292320 On ch=1 n=c4 v=90
292320 On ch=1 n=c5 v=90
292800 On ch=1 n=c5 v=0
292800 On ch=1 n=c4 v=0
292800 On ch=1 n=d4 v=90
292800 On ch=1 n=d5 v=90
293640 On ch=1 n=d5 v=0
293640 On ch=1 n=d4 v=0
293640 On ch=1 n=c#4 v=96
293640 On ch=1 n=c#5 v=96
293760 On ch=1 n=c#5 v=0
293760 On ch=1 n=c#4 v=0
293760 On ch=1 n=d4 v=96
293760 On ch=1 n=d5 v=96
294240 On ch=1 n=d5 v=0
294240 On ch=1 n=d4 v=0
294240 On ch=1 n=e4 v=96
294240 On ch=1 n=e5 v=96
295080 On ch=1 n=e5 v=0
295080 On ch=1 n=e4 v=0
295080 On ch=1 n=f4 v=102
295200 On ch=1 n=f4 v=0
295200 On ch=1 n=g4 v=102
295680 On ch=1 n=g4 v=0
295680 On ch=1 n=a4 v=102
296040 On ch=1 n=a4 v=0
296040 On ch=1 n=g4 v=102
296160 On ch=1 n=g4 v=0
296160 On ch=1 n=f4 v=102
296520 On ch=1 n=f4 v=0
296520 On ch=1 n=f#4 v=102
296640 On ch=1 n=f#4 v=0
296640 On ch=1 n=a4 v=102
297000 On ch=1 n=a4 v=0
297000 On ch=1 n=g4 v=102
297120 On ch=1 n=g4 v=0
297120 On ch=1 n=f4 v=102
297480 On ch=1 n=f4 v=0
297480 On ch=1 n=f#4 v=102
297600 On ch=1 n=f#4 v=0
297600 On ch=1 n=a4 v=102
297960 On ch=1 n=a4 v=0
297960 On ch=1 n=g4 v=102
298080 On ch=1 n=g4 v=0
298080 On ch=1 n=f4 v=102
298440 On ch=1 n=f4 v=0
298440 On ch=1 n=f#4 v=102
298560 On ch=1 n=f#4 v=0
298560 On ch=1 n=g4 v=102
298920 On ch=1 n=g4 v=0
298920 On ch=1 n=a#4 v=102
299040 On ch=1 n=a#4 v=0
299040 On ch=1 n=a4 v=102
299400 On ch=1 n=a4 v=0
299400 On ch=1 n=a3 v=102
299520 On ch=1 n=a3 v=0
299520 On ch=1 n=d4 v=95
299880 On ch=1 n=d4 v=0
299880 On ch=1 n=c4 v=87
300000 On ch=1 n=c4 v=0
300000 On ch=1 n=a#3 v=80
300360 On ch=1 n=a#3 v=0
300360 On ch=1 n=a3 v=72
300480 On ch=1 n=a3 v=0
300480 On ch=1 n=g2 v=65
300480 On ch=1 n=g3 v=65
301440 On ch=1 n=g3 v=0
301440 On ch=1 n=g2 v=0
301440 On ch=1 n=a2 v=65
301440 On ch=1 n=a3 v=65
301800 On ch=1 n=a3 v=0
301800 On ch=1 n=a2 v=0
301800 On ch=1 n=g2 v=65
301800 On ch=1 n=g3 v=65
301920 On ch=1 n=g3 v=0
301920 On ch=1 n=g2 v=0
301920 On ch=1 n=f#2 v=65
301920 On ch=1 n=f#3 v=65
302400 On ch=1 n=f#3 v=0
302400 On ch=1 n=f#2 v=0
302400 On ch=1 n=a2 v=65
302400 On ch=1 n=a3 v=65
302880 On ch=1 n=a3 v=0
302880 On ch=1 n=a2 v=0
302880 On ch=1 n=g2 v=65
302880 On ch=1 n=g3 v=65
303360 On ch=1 n=g3 v=0
303360 On ch=1 n=g2 v=0
303360 On ch=1 n=d#2 v=65
303360 On ch=1 n=d#3 v=65
304320 On ch=1 n=d#3 v=0
304320 On ch=1 n=d#2 v=0
304320 On ch=1 n=f2 v=65
304320 On ch=1 n=f3 v=65
304680 On ch=1 n=f3 v=0
304680 On ch=1 n=f2 v=0
304680 On ch=1 n=d#2 v=65
304680 On ch=1 n=d#3 v=65
304800 On ch=1 n=d#3 v=0
304800 On ch=1 n=d#2 v=0
304800 On ch=1 n=d2 v=65
304800 On ch=1 n=d3 v=65
305280 On ch=1 n=d3 v=0
305280 On ch=1 n=d2 v=0
305280 On ch=1 n=f2 v=65
305280 On ch=1 n=f3 v=65
305760 On ch=1 n=f3 v=0
305760 On ch=1 n=f2 v=0
305760 On ch=1 n=d#2 v=65
305760 On ch=1 n=d#3 v=65
306240 On ch=1 n=d#3 v=0
306240 On ch=1 n=d#2 v=0
306240 On ch=1 n=c2 v=65
306240 On ch=1 n=c3 v=65
307200 On ch=1 n=c3 v=0
307200 On ch=1 n=c2 v=0
307200 On ch=1 n=d2 v=80
307200 On ch=1 n=d3 v=80
307560 On ch=1 n=d3 v=0
307560 On ch=1 n=d2 v=0
307560 On ch=1 n=e2 v=85
307560 On ch=1 n=e3 v=85
307680 On ch=1 n=e3 v=0
307680 On ch=1 n=e2 v=0
307680 On ch=1 n=f#2 v=90
307680 On ch=1 n=f#3 v=90
308160 On ch=1 n=f#3 v=0
308160 On ch=1 n=f#2 v=0
308160 On ch=1 n=a2 v=92
308160 On ch=1 n=a3 v=92
308640 On ch=1 n=a3 v=0
308640 On ch=1 n=a2 v=0
308640 On ch=1 n=g2 v=97
308640 On ch=1 n=g3 v=97
309000 On ch=1 n=g3 v=0
309000 On ch=1 n=g2 v=0
309000 On ch=1 n=a2 v=99
309000 On ch=1 n=a3 v=99
309120 On ch=1 n=a3 v=0
309120 On ch=1 n=a2 v=0
309120 On ch=1 n=a#2 v=102
309120 On ch=1 n=a#3 v=102
309600 On ch=1 n=a#3 v=0
309600 On ch=1 n=a#2 v=0
309600 On ch=1 n=d3 v=105
309600 On ch=1 n=d4 v=105
310080 On ch=1 n=d4 v=0
310080 On ch=1 n=d3 v=0
310080 On ch=1 n=c3 v=112
310080 On ch=1 n=c4 v=112
310440 On ch=1 n=c4 v=0
310440 On ch=1 n=c3 v=0
310440 On ch=1 n=a2 v=116
310440 On ch=1 n=a3 v=116
310560 On ch=1 n=a3 v=0
310560 On ch=1 n=a2 v=0
310560 On ch=1 n=d3 v=120
310560 On ch=1 n=d4 v=120
311040 On ch=1 n=d4 v=0
311040 On ch=1 n=d3 v=0
311040 On ch=1 n=g2 v=120
311040 On ch=1 n=g3 v=120
312000 On ch=1 n=g3 v=0
312000 On ch=1 n=g2 v=0
312000 On ch=1 n=d#4 v=90
312000 On ch=1 n=g4 v=90
312240 On ch=1 n=d#4 v=0
312240 On ch=1 n=d4 v=94
312480 On ch=1 n=d4 v=0
312480 On ch=1 n=c#4 v=98
312960 On ch=1 n=c#4 v=0
312960 On ch=1 n=g4 v=0
312960 On ch=1 n=a3 v=102
313440 On ch=1 n=a3 v=0
313440 On ch=1 n=a#3 v=99
313680 On ch=1 n=a#3 v=0
313680 On ch=1 n=g3 v=97
313920 On ch=1 n=g3 v=0
313920 On ch=1 n=a3 v=94
314160 On ch=1 n=a3 v=0
314160 On ch=1 n=f3 v=92
314400 On ch=1 n=f3 v=0
314400 On ch=1 n=g3 v=90
314640 On ch=1 n=g3 v=0
314640 On ch=1 n=f3 v=90
314880 On ch=1 n=f3 v=0
314880 On ch=1 n=d#3 v=92
315120 On ch=1 n=d#3 v=0
315120 On ch=1 n=d3 v=95
315360 On ch=1 n=d3 v=0
315360 On ch=1 n=c3 v=99
315840 On ch=1 n=c3 v=0
315840 On ch=1 n=c#3 v=102
316320 On ch=1 n=c#3 v=0
316320 On ch=1 n=d3 v=96
316560 On ch=1 n=d3 v=0
316560 On ch=1 n=g2 v=90
316800 On ch=1 n=g2 v=0
316800 On ch=1 n=a2 v=84
317280 On ch=1 n=a2 v=0
317280 On ch=1 n=d2 v=78
317280 On ch=1 n=d3 v=72
317760 On ch=1 n=d3 v=0
317760 On ch=1 n=d2 v=0
317760 On ch=1 n=d#6 v=65
318000 On ch=1 n=d#6 v=0
318000 On ch=1 n=d6 v=65
318240 On ch=1 n=d6 v=0
318240 On ch=1 n=c#6 v=65
318720 On ch=1 n=c#6 v=0
318720 On ch=1 n=a5 v=65
319200 On ch=1 n=a5 v=0
319200 On ch=1 n=a#5 v=65
319440 On ch=1 n=a#5 v=0
319440 On ch=1 n=g5 v=65
319680 On ch=1 n=g5 v=0
319680 On ch=1 n=a5 v=65
319920 On ch=1 n=a5 v=0
319920 On ch=1 n=f5 v=65
320160 On ch=1 n=f5 v=0
320160 On ch=1 n=g5 v=65
320400 On ch=1 n=g5 v=0
320400 On ch=1 n=f5 v=65
320640 On ch=1 n=f5 v=0
320640 On ch=1 n=e5 v=65
320880 On ch=1 n=e5 v=0
320880 On ch=1 n=d5 v=65
321120 On ch=1 n=d5 v=0
321120 On ch=1 n=c5 v=65
321600 On ch=1 n=c5 v=0
321600 On ch=1 n=c#5 v=65
322080 On ch=1 n=c#5 v=0
322080 On ch=1 n=d5 v=65
322320 On ch=1 n=d5 v=0
322320 On ch=1 n=a#4 v=65
322560 On ch=1 n=a#4 v=0
322560 On ch=1 n=g4 v=65
322800 On ch=1 n=g4 v=0
322800 On ch=1 n=a4 v=65
323040 On ch=1 n=a4 v=0
323040 On ch=1 n=d4 v=65
323280 On ch=1 n=d4 v=0
323280 On ch=1 n=c4 v=65
323520 On ch=1 n=c4 v=0
323520 On ch=1 n=g#3 v=65
323520 On ch=1 n=a#3 v=65
323760 On ch=1 n=a#3 v=0
323760 On ch=1 n=g#3 v=0
323760 On ch=1 n=g3 v=65
323760 On ch=1 n=b3 v=65
324000 On ch=1 n=b3 v=0
324000 On ch=1 n=g3 v=0
324000 On ch=1 n=g#3 v=70
324000 On ch=1 n=a#3 v=70
324240 On ch=1 n=a#3 v=0
324240 On ch=1 n=g#3 v=0
324240 On ch=1 n=g3 v=70
324240 On ch=1 n=b3 v=70
324480 On ch=1 n=b3 v=0
324480 On ch=1 n=c4 v=70
324720 On ch=1 n=c4 v=0
324720 On ch=1 n=b3 v=70
324960 On ch=1 n=b3 v=0
324960 On ch=1 n=g3 v=0
324960 On ch=1 n=a#3 v=70
324960 On ch=1 n=c4 v=70
325200 On ch=1 n=c4 v=0
325200 On ch=1 n=a#3 v=0
325200 On ch=1 n=a3 v=70
325200 On ch=1 n=c#4 v=70
325440 On ch=1 n=c#4 v=0
325440 On ch=1 n=a3 v=0
325440 On ch=1 n=a#3 v=75
325440 On ch=1 n=c4 v=75
325680 On ch=1 n=c4 v=0
325680 On ch=1 n=a#3 v=0
325680 On ch=1 n=a3 v=75
325680 On ch=1 n=c#4 v=75
325920 On ch=1 n=c#4 v=0
325920 On ch=1 n=d4 v=75
326160 On ch=1 n=d4 v=0
326160 On ch=1 n=c#4 v=75
326400 On ch=1 n=c#4 v=0
326400 On ch=1 n=a3 v=0
326400 On ch=1 n=c5 v=75
326400 On ch=1 n=d4 v=75
326640 On ch=1 n=d4 v=0
326640 On ch=1 n=c5 v=0
326640 On ch=1 n=b4 v=75
326640 On ch=1 n=d#4 v=75
326880 On ch=1 n=d#4 v=0
326880 On ch=1 n=b4 v=0
326880 On ch=1 n=d4 v=80
326880 On ch=1 n=c5 v=80
327120 On ch=1 n=c5 v=0
327120 On ch=1 n=d4 v=0
327120 On ch=1 n=b4 v=80
327120 On ch=1 n=d#4 v=80
327360 On ch=1 n=b4 v=0
327360 On ch=1 n=a4 v=80
327600 On ch=1 n=a4 v=0
327600 On ch=1 n=g#4 v=80
327840 On ch=1 n=g#4 v=0
327840 On ch=1 n=d#4 v=0
327840 On ch=1 n=d5 v=80
327840 On ch=1 n=e4 v=80
328080 On ch=1 n=e4 v=0
328080 On ch=1 n=d5 v=0
328080 On ch=1 n=f4 v=80
328080 On ch=1 n=c#5 v=80
328320 On ch=1 n=c#5 v=0
328320 On ch=1 n=f4 v=0
328320 On ch=1 n=d5 v=85
328320 On ch=1 n=e4 v=85
328560 On ch=1 n=e4 v=0
328560 On ch=1 n=d5 v=0
328560 On ch=1 n=f4 v=85
328560 On ch=1 n=c#5 v=85
328800 On ch=1 n=c#5 v=0
328800 On ch=1 n=b4 v=85
329040 On ch=1 n=b4 v=0
329040 On ch=1 n=a#4 v=85
329280 On ch=1 n=a#4 v=0
329280 On ch=1 n=f4 v=0
329280 On ch=1 n=a#4 v=90
329280 On ch=1 n=f#4 v=90
329520 On ch=1 n=a#4 v=0
329520 On ch=1 n=c#5 v=90
329760 On ch=1 n=c#5 v=0
329760 On ch=1 n=f#5 v=94
330000 On ch=1 n=f#5 v=0
330000 On ch=1 n=a#5 v=98
330240 On ch=1 n=a#5 v=0
330240 On ch=1 n=f#4 v=0
330240 On ch=1 n=b5 v=102
330480 On ch=1 n=b5 v=0
330480 On ch=1 n=a#5 v=99
330720 On ch=1 n=a#5 v=0
330720 On ch=1 n=f#5 v=96
330960 On ch=1 n=f#5 v=0
330960 On ch=1 n=c#5 v=93
331200 On ch=1 n=c#5 v=0
331200 On ch=1 n=c#4 v=90
331200 On ch=1 n=b4 v=90
331440 On ch=1 n=b4 v=0
331440 On ch=1 n=c#5 v=96
331680 On ch=1 n=c#5 v=0
331680 On ch=1 n=f#5 v=102
331920 On ch=1 n=f#5 v=0
331920 On ch=1 n=f5 v=96
332160 On ch=1 n=f5 v=0
332160 On ch=1 n=c#4 v=0
332160 On ch=1 n=f#4 v=53
332160 On ch=1 n=a#4 v=53
332400 On ch=1 n=a#4 v=0
332400 On ch=1 n=c#5 v=53
332640 On ch=1 n=c#5 v=0
332640 On ch=1 n=f#5 v=58
332880 On ch=1 n=f#5 v=0
332880 On ch=1 n=a#5 v=63
333120 On ch=1 n=a#5 v=0
333120 On ch=1 n=f#4 v=0
333120 On ch=1 n=b5 v=68
333360 On ch=1 n=b5 v=0
333360 On ch=1 n=a#5 v=73
333600 On ch=1 n=a#5 v=0
333600 On ch=1 n=f#5 v=78
333840 On ch=1 n=f#5 v=0
333840 On ch=1 n=c#5 v=78
334080 On ch=1 n=c#5 v=0
334080 On ch=1 n=a#4 v=76
334320 On ch=1 n=a#4 v=0
334320 On ch=1 n=f#4 v=73
334560 On ch=1 n=f#4 v=0
334560 On ch=1 n=c#4 v=71
334800 On ch=1 n=c#4 v=0
334800 On ch=1 n=a#3 v=68
335040 On ch=1 n=a#3 v=0
335040 On ch=1 n=f3 v=65
335040 On ch=1 n=d4 v=65
335280 On ch=1 n=f4 v=65
335520 On ch=1 n=f4 v=0
335520 On ch=1 n=d4 v=0
335520 On ch=1 n=a#4 v=73
335760 On ch=1 n=a#4 v=0
335760 On ch=1 n=d5 v=81
336000 On ch=1 n=d5 v=0
336000 On ch=1 n=d#5 v=89
336240 On ch=1 n=d#5 v=0
336240 On ch=1 n=d5 v=81
336480 On ch=1 n=d5 v=0
336480 On ch=1 n=f3 v=0
336480 On ch=1 n=a#4 v=73
336720 On ch=1 n=a#4 v=0
336720 On ch=1 n=f4 v=65
336960 On ch=1 n=f4 v=0
336960 On ch=1 n=d4 v=65
336960 On ch=1 n=f#3 v=65
337200 On ch=1 n=d4 v=0
337200 On ch=1 n=d#4 v=65
337440 On ch=1 n=d#4 v=0
337440 On ch=1 n=d4 v=65
337680 On ch=1 n=d4 v=0
337680 On ch=1 n=c#4 v=65
337920 On ch=1 n=c#4 v=0
337920 On ch=1 n=d4 v=65
338160 On ch=1 n=d4 v=0
338160 On ch=1 n=f4 v=65
338340 On ch=1 n=f#3 v=0
338380 On ch=1 n=f3 v=65
338400 On ch=1 n=f4 v=0
338400 On ch=1 n=a#4 v=73
338640 On ch=1 n=a#4 v=0
338640 On ch=1 n=d5 v=81
338880 On ch=1 n=d5 v=0
338880 On ch=1 n=d#5 v=89
338920 On ch=1 n=f3 v=0
339120 On ch=1 n=d#5 v=0
339120 On ch=1 n=d5 v=81
339360 On ch=1 n=d5 v=0
339360 On ch=1 n=a#4 v=73
339600 On ch=1 n=a#4 v=0
339600 On ch=1 n=f4 v=65
339840 On ch=1 n=f4 v=0
339840 On ch=1 n=d4 v=65
339840 On ch=1 n=f#3 v=65
340080 On ch=1 n=d4 v=0
340080 On ch=1 n=d#4 v=65
340320 On ch=1 n=d#4 v=0
340320 On ch=1 n=d4 v=65
340560 On ch=1 n=d4 v=0
340560 On ch=1 n=c#4 v=65
340800 On ch=1 n=c#4 v=0
340800 On ch=1 n=d4 v=65
341040 On ch=1 n=d4 v=0
341040 On ch=1 n=d#4 v=65
341220 On ch=1 n=f#3 v=0
341280 On ch=1 n=d#4 v=0
341280 On ch=1 n=d4 v=73
341280 On ch=1 n=g3 v=65
341520 On ch=1 n=d4 v=0
341520 On ch=1 n=a#4 v=81
341760 On ch=1 n=a#4 v=0
341760 On ch=1 n=g3 v=0
341760 On ch=1 n=c5 v=89
342000 On ch=1 n=c5 v=0
342000 On ch=1 n=a#4 v=81
342240 On ch=1 n=a#4 v=0
342240 On ch=1 n=g4 v=73
342480 On ch=1 n=g4 v=0
342480 On ch=1 n=d4 v=65
342720 On ch=1 n=d4 v=0
342720 On ch=1 n=a#3 v=65
342720 On ch=1 n=g#3 v=65
342840 On ch=1 n=g#3 v=0
342840 On ch=1 n=a#3 v=0
342840 On ch=1 n=c4 v=65
342960 On ch=1 n=c4 v=0
342960 On ch=1 n=a#3 v=65
343080 On ch=1 n=a#3 v=0
343080 On ch=1 n=a3 v=65
343200 On ch=1 n=a3 v=0
343200 On ch=1 n=a#3 v=68
343360 On ch=1 n=a#3 v=0
343360 On ch=1 n=d4 v=72
343520 On ch=1 n=d4 v=0
343520 On ch=1 n=g4 v=75
343680 On ch=1 n=g4 v=0
343680 On ch=1 n=b3 v=79
343700 On ch=1 n=d4 v=82
343720 On ch=1 n=g4 v=86
343740 On ch=1 n=d5 v=90
343920 On ch=1 n=g4 v=0
343920 On ch=1 n=f4 v=84
344160 On ch=1 n=f4 v=0
344160 On ch=1 n=d5 v=0
344160 On ch=1 n=d4 v=0
344160 On ch=1 n=b3 v=0
344160 On ch=1 n=c4 v=78
344160 On ch=1 n=d#4 v=78
344160 On ch=1 n=c5 v=78
344400 On ch=1 n=c5 v=0
344400 On ch=1 n=d#4 v=0
344400 On ch=1 n=c4 v=0
344400 On ch=1 n=a#4 v=78
344400 On ch=1 n=d#4 v=78
344640 On ch=1 n=d#4 v=0
344640 On ch=1 n=a#4 v=0
344640 On ch=1 n=d5 v=90
344640 On ch=1 n=f4 v=90
345120 On ch=1 n=f4 v=0
345120 On ch=1 n=d5 v=0
345120 On ch=1 n=f3 v=102
345148 On ch=1 n=c5 v=102
345600 On ch=1 n=f3 v=0
345600 On ch=1 n=a#3 v=100
345840 On ch=1 n=c5 v=0
345840 On ch=1 n=a#4 v=97
345960 On ch=1 n=a#4 v=0
346080 On ch=1 n=a#3 v=0
346080 On ch=1 n=f4 v=95
346200 On ch=1 n=f4 v=0
346320 On ch=1 n=d4 v=93
346410 On ch=1 n=d4 v=0
346560 On ch=1 n=a#3 v=91
346560 On ch=1 n=a#4 v=90
346800 On ch=1 n=a#4 v=0
346800 On ch=1 n=a4 v=90
347040 On ch=1 n=a4 v=0
347040 On ch=1 n=a#3 v=0
347040 On ch=1 n=c4 v=90
347040 On ch=1 n=g4 v=90
347280 On ch=1 n=g4 v=0
347280 On ch=1 n=f4 v=92
347520 On ch=1 n=f4 v=0
347520 On ch=1 n=e4 v=94
347760 On ch=1 n=e4 v=0
347760 On ch=1 n=d4 v=96
348000 On ch=1 n=d4 v=0
348000 On ch=1 n=c4 v=0
348000 On ch=1 n=c3 v=98
348000 On ch=1 n=c4 v=98
348240 On ch=1 n=c4 v=0
348240 On ch=1 n=a#3 v=100
348480 On ch=1 n=a#3 v=0
348480 On ch=1 n=a3 v=102
348720 On ch=1 n=a3 v=0
348720 On ch=1 n=a#3 v=100
348960 On ch=1 n=a#3 v=0
348960 On ch=1 n=c3 v=0
348960 On ch=1 n=c4 v=98
349200 On ch=1 n=c4 v=0
349200 On ch=1 n=d4 v=96
349440 On ch=1 n=d4 v=0
349440 On ch=1 n=c3 v=94
349440 On ch=1 n=e4 v=94
349680 On ch=1 n=e4 v=0
349680 On ch=1 n=f4 v=92
349920 On ch=1 n=f4 v=0
349920 On ch=1 n=c3 v=0
349920 On ch=1 n=c4 v=90
349920 On ch=1 n=g4 v=90
350160 On ch=1 n=g4 v=0
350160 On ch=1 n=a4 v=92
350400 On ch=1 n=a4 v=0
350400 On ch=1 n=a#4 v=94
350640 On ch=1 n=a#4 v=0
350640 On ch=1 n=b4 v=96
350880 On ch=1 n=b4 v=0
350880 On ch=1 n=c4 v=0
350880 On ch=1 n=c4 v=98
350880 On ch=1 n=c5 v=98
351120 On ch=1 n=c5 v=0
351120 On ch=1 n=a#4 v=100
351360 On ch=1 n=a#4 v=0
351360 On ch=1 n=c4 v=0
351360 On ch=1 n=f3 v=102
351388 On ch=1 n=a4 v=102
351600 On ch=1 n=a4 v=0
351600 On ch=1 n=f3 v=0
351600 On ch=1 n=g3 v=93
351600 On ch=1 n=g4 v=93
351840 On ch=1 n=g4 v=0
351840 On ch=1 n=g3 v=0
351840 On ch=1 n=g#3 v=84
351840 On ch=1 n=f4 v=84
352080 On ch=1 n=f4 v=0
352080 On ch=1 n=g#3 v=0
352080 On ch=1 n=a3 v=75
352080 On ch=1 n=d#4 v=75
352320 On ch=1 n=d#4 v=0
352320 On ch=1 n=a3 v=0
352320 On ch=1 n=a#3 v=65
352320 On ch=1 n=d4 v=65
352560 On ch=1 n=d4 v=0
352560 On ch=1 n=f4 v=65
352800 On ch=1 n=f4 v=0
352800 On ch=1 n=a#3 v=0
352800 On ch=1 n=a#2 v=65
352828 On ch=1 n=a#4 v=65
353040 On ch=1 n=a#4 v=0
353040 On ch=1 n=a4 v=65
353280 On ch=1 n=a4 v=0
353280 On ch=1 n=a#2 v=0
353280 On ch=1 n=g4 v=65
353520 On ch=1 n=g4 v=0
353520 On ch=1 n=f4 v=65
353760 On ch=1 n=f4 v=0
353760 On ch=1 n=d#4 v=65
353760 On ch=1 n=a#3 v=65
354000 On ch=1 n=d#4 v=0
354000 On ch=1 n=d4 v=65
354240 On ch=1 n=d4 v=0
354240 On ch=1 n=a#3 v=0
354240 On ch=1 n=a#2 v=65
354240 On ch=1 n=c4 v=65
354480 On ch=1 n=c4 v=0
354480 On ch=1 n=d4 v=65
354720 On ch=1 n=d4 v=0
354720 On ch=1 n=a#2 v=0
354720 On ch=1 n=d#4 v=65
354960 On ch=1 n=d#4 v=0
354960 On ch=1 n=f4 v=65
355200 On ch=1 n=f4 v=0
355200 On ch=1 n=a#3 v=65
355200 On ch=1 n=g4 v=65
355440 On ch=1 n=g4 v=0
355440 On ch=1 n=g#4 v=65
355680 On ch=1 n=g#4 v=0
355680 On ch=1 n=a#3 v=0
355680 On ch=1 n=a4 v=65
355680 On ch=1 n=a#2 v=65
355920 On ch=1 n=a4 v=0
355920 On ch=1 n=g4 v=65
356160 On ch=1 n=g4 v=0
356160 On ch=1 n=a#2 v=0
356160 On ch=1 n=f4 v=65
356400 On ch=1 n=f4 v=0
356400 On ch=1 n=d#4 v=65
356640 On ch=1 n=d#4 v=0
356640 On ch=1 n=d4 v=65
356640 On ch=1 n=a#3 v=65
356880 On ch=1 n=d4 v=0
356880 On ch=1 n=c4 v=65
357120 On ch=1 n=c4 v=0
357120 On ch=1 n=a#3 v=0
357120 On ch=1 n=a#2 v=65
357120 On ch=1 n=a#3 v=65
357360 On ch=1 n=a#3 v=0
357360 On ch=1 n=d4 v=65
357600 On ch=1 n=d4 v=0
357600 On ch=1 n=a#2 v=0
357600 On ch=1 n=f4 v=65
357840 On ch=1 n=f4 v=0
357840 On ch=1 n=a#4 v=65
358080 On ch=1 n=a#4 v=0
358080 On ch=1 n=a#4 v=53
358080 On ch=1 n=d5 v=53
358320 On ch=1 n=d5 v=0
358320 On ch=1 n=f5 v=53
358560 On ch=1 n=f5 v=0
358560 On ch=1 n=a#4 v=0
358560 On ch=1 n=a#4 v=53
358560 On ch=1 n=a#5 v=53
358800 On ch=1 n=a#5 v=0
358800 On ch=1 n=a5 v=53
359040 On ch=1 n=a5 v=0
359040 On ch=1 n=g5 v=53
359280 On ch=1 n=g5 v=0
359280 On ch=1 n=f5 v=53
359520 On ch=1 n=f5 v=0
359520 On ch=1 n=a#4 v=0
359520 On ch=1 n=d#5 v=53
359520 On ch=1 n=a#4 v=53
359760 On ch=1 n=d#5 v=0
359760 On ch=1 n=d5 v=53
360000 On ch=1 n=d5 v=0
360000 On ch=1 n=a#4 v=0
360000 On ch=1 n=a#3 v=53
360000 On ch=1 n=c5 v=53
360240 On ch=1 n=c5 v=0
360240 On ch=1 n=d5 v=53
360480 On ch=1 n=d5 v=0
360480 On ch=1 n=a#3 v=0
360480 On ch=1 n=d#5 v=53
360720 On ch=1 n=d#5 v=0
360720 On ch=1 n=f5 v=53
360960 On ch=1 n=f5 v=0
360960 On ch=1 n=a#4 v=53
360960 On ch=1 n=g5 v=53
361200 On ch=1 n=g5 v=0
361200 On ch=1 n=g#5 v=53
361440 On ch=1 n=g#5 v=0
361440 On ch=1 n=a#4 v=0
361440 On ch=1 n=a#3 v=53
361468 On ch=1 n=a5 v=53
361680 On ch=1 n=a5 v=0
361680 On ch=1 n=g5 v=53
361920 On ch=1 n=g5 v=0
361920 On ch=1 n=a#3 v=0
361920 On ch=1 n=f5 v=53
362160 On ch=1 n=f5 v=0
362160 On ch=1 n=d#5 v=53
362400 On ch=1 n=d#5 v=0
362400 On ch=1 n=d5 v=53
362400 On ch=1 n=a#4 v=53
362640 On ch=1 n=d5 v=0
362640 On ch=1 n=c5 v=53
362880 On ch=1 n=c5 v=0
362880 On ch=1 n=a#4 v=0
362880 On ch=1 n=a#3 v=53
362880 On ch=1 n=a#4 v=53
363120 On ch=1 n=a#4 v=0
363120 On ch=1 n=c5 v=53
363360 On ch=1 n=c5 v=0
363360 On ch=1 n=a#3 v=0
363360 On ch=1 n=d5 v=53
363600 On ch=1 n=d5 v=0
363600 On ch=1 n=d#5 v=53
363840 On ch=1 n=d#5 v=0
363840 On ch=1 n=a#4 v=53
363840 On ch=1 n=e5 v=53
364080 On ch=1 n=e5 v=0
364080 On ch=1 n=f5 v=53
364320 On ch=1 n=f5 v=0
364320 On ch=1 n=a#4 v=0
364320 On ch=1 n=a#3 v=53
364348 On ch=1 n=g5 v=53
364560 On ch=1 n=g5 v=0
364560 On ch=1 n=f5 v=53
364800 On ch=1 n=f5 v=0
364800 On ch=1 n=a#3 v=0
364800 On ch=1 n=d#5 v=53
365040 On ch=1 n=d#5 v=0
365040 On ch=1 n=d5 v=53
365280 On ch=1 n=d5 v=0
365280 On ch=1 n=a#4 v=53
365300 On ch=1 n=c5 v=53
365512 On ch=1 n=a#4 v=0
365520 On ch=1 n=c5 v=0
365520 On ch=1 n=a#4 v=53
365760 On ch=1 n=a#4 v=0
365760 On ch=1 n=a#3 v=53
365760 On ch=1 n=a4 v=53
366000 On ch=1 n=a4 v=0
366000 On ch=1 n=a#3 v=0
366000 On ch=1 n=a#4 v=53
366240 On ch=1 n=a#4 v=0
366240 On ch=1 n=c5 v=53
366480 On ch=1 n=c5 v=0
366480 On ch=1 n=c#5 v=53
366720 On ch=1 n=c#5 v=0
366720 On ch=1 n=a#4 v=53
366720 On ch=1 n=d5 v=53
366960 On ch=1 n=d5 v=0
366960 On ch=1 n=d#5 v=53
367200 On ch=1 n=d#5 v=0
367200 On ch=1 n=f5 v=53
367440 On ch=1 n=f5 v=0
367440 On ch=1 n=g5 v=53
367620 On ch=1 n=g5 v=0
367620 On ch=1 n=a5 v=53
367680 On ch=1 n=a5 v=0
367680 On ch=1 n=a#4 v=0
367680 On ch=1 n=a#5 v=53
367920 On ch=1 n=a#5 v=0
367920 On ch=1 n=c6 v=53
367920 On ch=1 n=a5 v=53
368160 On ch=1 n=a5 v=0
368160 On ch=1 n=c6 v=0
368160 On ch=1 n=g5 v=53
368160 On ch=1 n=a#5 v=53
368280 On ch=1 n=a#5 v=0
368280 On ch=1 n=g5 v=0
368280 On ch=1 n=f5 v=59
368280 On ch=1 n=a5 v=59
368340 On ch=1 n=a5 v=0
368340 On ch=1 n=f5 v=0
368400 On ch=1 n=d#5 v=65
368400 On ch=1 n=g5 v=65
368460 On ch=1 n=g5 v=0
368460 On ch=1 n=d#5 v=0
368520 On ch=1 n=d5 v=72
368520 On ch=1 n=f5 v=72
368580 On ch=1 n=f5 v=0
368580 On ch=1 n=d5 v=0
368640 On ch=1 n=c5 v=78
368640 On ch=1 n=d#5 v=78
370080 On ch=1 n=d#5 v=0
370080 On ch=1 n=c5 v=0
370080 On ch=1 n=a#3 v=65
370320 On ch=1 n=d5 v=65
371520 On ch=1 n=d5 v=0
371520 On ch=1 n=a#3 v=0
371520 On ch=1 n=c4 v=65
371520 On ch=1 n=d#4 v=65
372960 On ch=1 n=d#4 v=0
372960 On ch=1 n=c4 v=0
372960 On ch=1 n=c#4 v=53
372960 On ch=1 n=e4 v=53
374160 On ch=1 n=c3 v=65
374400 On ch=1 n=e4 v=0
374400 On ch=1 n=c#4 v=0
374400 On ch=1 n=e4 v=65
375660 On ch=1 n=f3 v=65
375780 On ch=1 n=c3 v=0
375840 On ch=1 n=e4 v=0
375840 On ch=1 n=a4 v=78
375840 On ch=1 n=d#4 v=78
377280 On ch=1 n=d#4 v=0
377280 On ch=1 n=a4 v=0
377280 On ch=1 n=a#2 v=53
377520 On ch=1 n=d4 v=53
378720 On ch=1 n=d4 v=0
378720 On ch=1 n=a#2 v=0
378720 On ch=1 n=f3 v=0
379680 On ch=1 n=g3 v=65
379680 On ch=1 n=g2 v=65
381120 On ch=1 n=g2 v=0
381120 On ch=1 n=g3 v=0
381360 On ch=1 n=a#2 v=65
381360 On ch=1 n=a#3 v=65
381540 On ch=1 n=a#3 v=0
381540 On ch=1 n=a#2 v=0
381600 On ch=1 n=c3 v=65
381600 On ch=1 n=c4 v=65
381780 On ch=1 n=c4 v=0
381780 On ch=1 n=c3 v=0
382080 On ch=1 n=d3 v=65
382080 On ch=1 n=d4 v=65
382260 On ch=1 n=d4 v=0
382260 On ch=1 n=d3 v=0
382560 On ch=1 n=g2 v=65
382560 On ch=1 n=g3 v=65
383040 On ch=1 n=g3 v=0
383040 On ch=1 n=g2 v=0
383280 On ch=1 n=d3 v=65
383460 On ch=1 n=d3 v=0
383520 On ch=1 n=g2 v=65
383520 On ch=1 n=g3 v=65
384960 On ch=1 n=g3 v=0
384960 On ch=1 n=g2 v=0
385200 On ch=1 n=a#2 v=65
385200 On ch=1 n=a#3 v=65
385380 On ch=1 n=a#3 v=0
385380 On ch=1 n=a#2 v=0
385440 On ch=1 n=c3 v=67
385440 On ch=1 n=c4 v=67
385620 On ch=1 n=c4 v=0
385620 On ch=1 n=c3 v=0
385920 On ch=1 n=d3 v=75
385920 On ch=1 n=d4 v=75
386100 On ch=1 n=d4 v=0
386100 On ch=1 n=d3 v=0
386400 On ch=1 n=d#3 v=85
386400 On ch=1 n=d#4 v=85
386880 On ch=1 n=d#4 v=0
386880 On ch=1 n=d#3 v=0
387120 On ch=1 n=d4 v=85
387120 On ch=1 n=d3 v=85
387300 On ch=1 n=d3 v=0
387300 On ch=1 n=d4 v=0
387360 On ch=1 n=d#3 v=85
387360 On ch=1 n=d#4 v=85
387840 On ch=1 n=d#4 v=0
387840 On ch=1 n=d#3 v=0
387840 On ch=1 n=c3 v=102
387840 On ch=1 n=c4 v=102
388320 On ch=1 n=c4 v=0
388320 On ch=1 n=c3 v=0
388320 On ch=1 n=d3 v=93
388320 On ch=1 n=d4 v=93
388800 On ch=1 n=d4 v=0
388800 On ch=1 n=d3 v=0
389040 On ch=1 n=d4 v=102
389220 On ch=1 n=d4 v=0
389280 On ch=1 n=g3 v=108
389280 On ch=1 n=a#3 v=108
389280 On ch=1 n=g4 v=108
389760 On ch=1 n=g4 v=0
389760 On ch=1 n=a#3 v=0
389760 On ch=1 n=d4 v=114
389760 On ch=1 n=a4 v=114
390240 On ch=1 n=a4 v=0
390240 On ch=1 n=d4 v=0
390240 On ch=1 n=g3 v=0
390240 On ch=1 n=g4 v=120
390240 On ch=1 n=a#4 v=120
390720 On ch=1 n=a#4 v=0
390720 On ch=1 n=g4 v=0
390960 On ch=1 n=a#3 v=108
390960 On ch=1 n=g4 v=108
391140 On ch=1 n=g4 v=0
391140 On ch=1 n=a#3 v=0
391200 On ch=1 n=c4 v=114
391200 On ch=1 n=g4 v=114
391200 On ch=1 n=a4 v=114
391680 On ch=1 n=a4 v=0
391680 On ch=1 n=g4 v=0
391680 On ch=1 n=c4 v=0
391680 On ch=1 n=d4 v=114
391680 On ch=1 n=f#4 v=114
391680 On ch=1 n=d5 v=120
392160 On ch=1 n=d5 v=0
392160 On ch=1 n=f#4 v=0
392160 On ch=1 n=d4 v=0
392160 On ch=1 n=g3 v=108
392160 On ch=1 n=a#3 v=108
392160 On ch=1 n=g4 v=108
392640 On ch=1 n=g4 v=0
392640 On ch=1 n=a#3 v=0
392640 On ch=1 n=g3 v=0
392880 On ch=1 n=d4 v=108
393060 On ch=1 n=d4 v=0
393120 On ch=1 n=g3 v=108
393120 On ch=1 n=a#3 v=108
393120 On ch=1 n=g4 v=108
393600 On ch=1 n=g4 v=0
393600 On ch=1 n=a#3 v=0
393600 On ch=1 n=d4 v=114
393600 On ch=1 n=a4 v=114
394080 On ch=1 n=a4 v=0
394080 On ch=1 n=d4 v=0
394080 On ch=1 n=g3 v=0
394080 On ch=1 n=g4 v=120
394080 On ch=1 n=a#4 v=120
394560 On ch=1 n=a#4 v=0
394560 On ch=1 n=g4 v=0
394800 On ch=1 n=d#3 v=102
394800 On ch=1 n=d#4 v=102
394980 On ch=1 n=d#4 v=0
394980 On ch=1 n=d#3 v=0
395040 On ch=1 n=f3 v=102
395040 On ch=1 n=f4 v=102
395520 On ch=1 n=f4 v=0
395520 On ch=1 n=f3 v=0
395520 On ch=1 n=a#2 v=102
395520 On ch=1 n=a#3 v=102
396000 On ch=1 n=a#3 v=0
396000 On ch=1 n=a#2 v=0
396000 On ch=1 n=d#3 v=102
396000 On ch=1 n=d#4 v=102
396480 On ch=1 n=d#4 v=0
396480 On ch=1 n=d#3 v=0
396720 On ch=1 n=a2 v=108
396720 On ch=1 n=a3 v=108
396900 On ch=1 n=a3 v=0
396900 On ch=1 n=a2 v=0
396960 On ch=1 n=d3 v=102
396960 On ch=1 n=d4 v=102
397440 On ch=1 n=d4 v=0
397440 On ch=1 n=d3 v=0
397680 On ch=1 n=g#2 v=108
397680 On ch=1 n=g#3 v=108
397860 On ch=1 n=g#3 v=0
397860 On ch=1 n=g#2 v=0
397920 On ch=1 n=d3 v=102
397920 On ch=1 n=d4 v=102
398400 On ch=1 n=d4 v=0
398400 On ch=1 n=d3 v=0
398640 On ch=1 n=g2 v=108
398640 On ch=1 n=a3 v=108
398820 On ch=1 n=a3 v=0
398820 On ch=1 n=g2 v=0
398880 On ch=1 n=d3 v=102
398880 On ch=1 n=d4 v=102
399840 On ch=1 n=d4 v=0
400320 On ch=1 n=d3 v=0
400560 On ch=1 n=d3 v=102
400740 On ch=1 n=d3 v=0
400800 On ch=1 n=g2 v=102
400800 On ch=1 n=g3 v=102
402240 On ch=1 n=g3 v=0
402240 On ch=1 n=g2 v=0
402480 On ch=1 n=a#2 v=102
402480 On ch=1 n=a#3 v=102
402660 On ch=1 n=a#3 v=0
402660 On ch=1 n=a#2 v=0
402720 On ch=1 n=c3 v=106
402720 On ch=1 n=c4 v=106
402900 On ch=1 n=c4 v=0
402900 On ch=1 n=c3 v=0
403200 On ch=1 n=d3 v=110
403200 On ch=1 n=d4 v=110
403380 On ch=1 n=d4 v=0
403380 On ch=1 n=d3 v=0
403680 On ch=1 n=d#3 v=114
403680 On ch=1 n=d#4 v=114
404160 On ch=1 n=d#4 v=0
404160 On ch=1 n=d#3 v=0
404400 On ch=1 n=d4 v=114
404400 On ch=1 n=d3 v=114
404580 On ch=1 n=d3 v=0
404580 On ch=1 n=d4 v=0
404640 On ch=1 n=d#3 v=120
404640 On ch=1 n=d#4 v=120
405120 On ch=1 n=d#4 v=0
405120 On ch=1 n=d#3 v=0
405120 On ch=1 n=d3 v=120
405120 On ch=1 n=d4 v=120
405600 On ch=1 n=d4 v=0
405600 On ch=1 n=d3 v=0
405600 On ch=1 n=c#3 v=127
405600 On ch=1 n=c#4 v=127
406320 On ch=1 n=c#4 v=0
406320 On ch=1 n=c#3 v=0
406320 On ch=1 n=c3 v=114
406320 On ch=1 n=c4 v=114
406500 On ch=1 n=c4 v=0
406500 On ch=1 n=c3 v=0
406560 On ch=1 n=d3 v=114
406560 On ch=1 n=d4 v=114
407040 On ch=1 n=d4 v=0
407040 On ch=1 n=d3 v=0
407040 On ch=1 n=d3 v=114
407040 On ch=1 n=d4 v=114
407520 On ch=1 n=d4 v=0
407520 On ch=1 n=d3 v=0
407520 On ch=1 n=c#3 v=127
407520 On ch=1 n=c#4 v=127
408240 On ch=1 n=c#4 v=0
408240 On ch=1 n=c#3 v=0
408240 On ch=1 n=c3 v=122
408240 On ch=1 n=c4 v=122
408420 On ch=1 n=c4 v=0
408420 On ch=1 n=c3 v=0
408480 On ch=1 n=d3 v=127
408480 On ch=1 n=d4 v=127
408960 On ch=1 n=d4 v=0
408960 On ch=1 n=d3 v=0
408960 On ch=1 n=d3 v=127
408960 On ch=1 n=d4 v=127
409440 On ch=1 n=d4 v=0
409440 On ch=1 n=d3 v=0
409440 On ch=1 n=g2 v=127
409440 On ch=1 n=g3 v=127
410880 On ch=1 n=g3 v=0
410880 On ch=1 n=g2 v=0
411360 On ch=1 n=a#2 v=65
411360 On ch=1 n=a#3 v=65
412800 On ch=1 n=a#3 v=0
412800 On ch=1 n=a#2 v=0
412800 On ch=1 n=g#2 v=71
412840 On ch=1 n=c4 v=71
413280 On ch=1 n=c4 v=0
413280 On ch=1 n=g#2 v=0
413280 On ch=1 n=g2 v=78
413280 On ch=1 n=b3 v=78
414720 On ch=1 n=b3 v=0
414720 On ch=1 n=g2 v=0
415200 On ch=1 n=c4 v=65
415320 On ch=1 n=c3 v=65
415440 On ch=1 n=c3 v=0
415440 On ch=1 n=c4 v=0
415440 On ch=1 n=d4 v=65
415680 On ch=1 n=d4 v=0
415680 On ch=1 n=d#4 v=70
415800 On ch=1 n=c4 v=70
415920 On ch=1 n=c4 v=0
415920 On ch=1 n=d#4 v=0
415920 On ch=1 n=f4 v=70
416160 On ch=1 n=f4 v=0
416160 On ch=1 n=g4 v=75
416280 On ch=1 n=d#4 v=75
416400 On ch=1 n=d#4 v=0
416400 On ch=1 n=g4 v=0
416400 On ch=1 n=a4 v=75
416640 On ch=1 n=a4 v=0
416640 On ch=1 n=b4 v=80
416800 On ch=1 n=b4 v=0
416800 On ch=1 n=c5 v=83
416960 On ch=1 n=c5 v=0
416960 On ch=1 n=d5 v=86
417120 On ch=1 n=d5 v=0
417120 On ch=1 n=f3 v=90
417120 On ch=1 n=a4 v=90
418560 On ch=1 n=a4 v=0
418560 On ch=1 n=f3 v=0
418560 On ch=1 n=f4 v=86
418680 On ch=1 n=f4 v=0
418680 On ch=1 n=d#4 v=84
418800 On ch=1 n=d#4 v=0
418800 On ch=1 n=d4 v=82
418920 On ch=1 n=d4 v=0
418920 On ch=1 n=c4 v=80
419040 On ch=1 n=c4 v=0
419040 On ch=1 n=a#3 v=78
419040 On ch=1 n=a#2 v=78
419160 On ch=1 n=d5 v=78
419280 On ch=1 n=d5 v=0
419520 On ch=1 n=a#2 v=0
419520 On ch=1 n=a#3 v=0
419520 On ch=1 n=a#5 v=78
419640 On ch=1 n=a#4 v=78
419760 On ch=1 n=a#4 v=0
419760 On ch=1 n=a#5 v=0
419760 On ch=1 n=a5 v=78
420000 On ch=1 n=a5 v=0
420000 On ch=1 n=g5 v=78
420120 On ch=1 n=a#4 v=78
420240 On ch=1 n=g5 v=0
420240 On ch=1 n=f5 v=78
420480 On ch=1 n=f5 v=0
420480 On ch=1 n=e5 v=78
420720 On ch=1 n=e5 v=0
420720 On ch=1 n=d5 v=78
420840 On ch=1 n=d5 v=0
420840 On ch=1 n=c5 v=78
420960 On ch=1 n=c5 v=0
420960 On ch=1 n=a#4 v=0
420960 On ch=1 n=a3 v=78
421080 On ch=1 n=c5 v=78
421200 On ch=1 n=c5 v=0
421440 On ch=1 n=a3 v=0
421440 On ch=1 n=a5 v=78
421560 On ch=1 n=a4 v=78
421680 On ch=1 n=a4 v=0
421680 On ch=1 n=a5 v=0
421680 On ch=1 n=g5 v=78
421920 On ch=1 n=g5 v=0
421920 On ch=1 n=f5 v=78
422040 On ch=1 n=a4 v=78
422160 On ch=1 n=a4 v=0
422160 On ch=1 n=f5 v=0
422160 On ch=1 n=e5 v=78
422400 On ch=1 n=e5 v=0
422400 On ch=1 n=b3 v=78
422428 On ch=1 n=g#4 v=78
422460 On ch=1 n=d5 v=78
422640 On ch=1 n=d5 v=0
422640 On ch=1 n=e5 v=82
422760 On ch=1 n=e5 v=0
422760 On ch=1 n=f5 v=86
422880 On ch=1 n=f5 v=0
422880 On ch=1 n=g#4 v=0
422880 On ch=1 n=b3 v=0
422880 On ch=1 n=c4 v=90
422880 On ch=1 n=a4 v=90
422880 On ch=1 n=c5 v=90
423840 On ch=1 n=c5 v=0
423840 On ch=1 n=a4 v=0
423840 On ch=1 n=c4 v=0
423840 On ch=1 n=e5 v=90
423840 On ch=1 n=a#4 v=90
423840 On ch=1 n=c4 v=90
424800 On ch=1 n=c4 v=0
424800 On ch=1 n=a#4 v=0
424800 On ch=1 n=e5 v=0
424800 On ch=1 n=f4 v=78
424800 On ch=1 n=c5 v=78
425040 On ch=1 n=f4 v=0
425040 On ch=1 n=e4 v=78
425280 On ch=1 n=e4 v=0
425280 On ch=1 n=d4 v=78
425520 On ch=1 n=d4 v=0
425520 On ch=1 n=c4 v=78
425760 On ch=1 n=c4 v=0
425760 On ch=1 n=f4 v=78
426240 On ch=1 n=c5 v=0
426240 On ch=1 n=f3 v=72
426720 On ch=1 n=f3 v=0
426720 On ch=1 n=f4 v=0
426720 On ch=1 n=a#3 v=65
426720 On ch=1 n=a#2 v=65
426840 On ch=1 n=a#3 v=0
426840 On ch=1 n=d4 v=65
427320 On ch=1 n=d4 v=0
427320 On ch=1 n=d4 v=65
427800 On ch=1 n=d4 v=0
427800 On ch=1 n=d4 v=69
428160 On ch=1 n=a#2 v=0
428160 On ch=1 n=g#2 v=73
428188 On ch=1 n=c4 v=73
428280 On ch=1 n=d4 v=0
428280 On ch=1 n=d4 v=73
428640 On ch=1 n=d4 v=0
428640 On ch=1 n=c4 v=0
428640 On ch=1 n=g#2 v=0
428640 On ch=1 n=g2 v=78
428640 On ch=1 n=b3 v=78
430080 On ch=1 n=b3 v=0
430080 On ch=1 n=g2 v=0
430560 On ch=1 n=c4 v=65
430680 On ch=1 n=c3 v=65
430800 On ch=1 n=c3 v=0
430800 On ch=1 n=c4 v=0
430800 On ch=1 n=d4 v=65
431040 On ch=1 n=d4 v=0
431040 On ch=1 n=d#4 v=70
431160 On ch=1 n=c4 v=70
431280 On ch=1 n=c4 v=0
431280 On ch=1 n=d#4 v=0
431280 On ch=1 n=f4 v=70
431520 On ch=1 n=f4 v=0
431520 On ch=1 n=g4 v=75
431640 On ch=1 n=d#4 v=75
431760 On ch=1 n=d#4 v=0
431760 On ch=1 n=g4 v=0
431760 On ch=1 n=a4 v=75
432000 On ch=1 n=a4 v=0
432000 On ch=1 n=b4 v=80
432160 On ch=1 n=b4 v=0
432160 On ch=1 n=c5 v=83
432320 On ch=1 n=c5 v=0
432320 On ch=1 n=d5 v=86
432480 On ch=1 n=d5 v=0
432480 On ch=1 n=f3 v=90
432480 On ch=1 n=a4 v=90
433920 On ch=1 n=a4 v=0
433920 On ch=1 n=f3 v=0
433920 On ch=1 n=f4 v=86
434040 On ch=1 n=f4 v=0
434040 On ch=1 n=d#4 v=84
434160 On ch=1 n=d#4 v=0
434160 On ch=1 n=d4 v=82
434280 On ch=1 n=d4 v=0
434280 On ch=1 n=c4 v=80
434400 On ch=1 n=c4 v=0
434400 On ch=1 n=a#3 v=78
434400 On ch=1 n=a#2 v=78
434520 On ch=1 n=d5 v=78
434640 On ch=1 n=d5 v=0
434880 On ch=1 n=a#2 v=0
434880 On ch=1 n=a#3 v=0
434880 On ch=1 n=a#5 v=78
435000 On ch=1 n=a#4 v=78
435120 On ch=1 n=a#4 v=0
435120 On ch=1 n=a#5 v=0
435120 On ch=1 n=a5 v=78
435360 On ch=1 n=a5 v=0
435360 On ch=1 n=g5 v=78
435480 On ch=1 n=a#4 v=78
435600 On ch=1 n=g5 v=0
435600 On ch=1 n=f5 v=78
435840 On ch=1 n=f5 v=0
435840 On ch=1 n=e5 v=78
436080 On ch=1 n=e5 v=0
436080 On ch=1 n=d5 v=78
436200 On ch=1 n=d5 v=0
436200 On ch=1 n=c5 v=78
436320 On ch=1 n=c5 v=0
436320 On ch=1 n=a#4 v=0
436320 On ch=1 n=a3 v=78
436440 On ch=1 n=c5 v=78
436560 On ch=1 n=c5 v=0
436800 On ch=1 n=a3 v=0
436800 On ch=1 n=a5 v=78
436920 On ch=1 n=a4 v=78
437040 On ch=1 n=a4 v=0
437040 On ch=1 n=a5 v=0
437040 On ch=1 n=g5 v=78
437280 On ch=1 n=g5 v=0
437280 On ch=1 n=f5 v=78
437400 On ch=1 n=a4 v=78
437520 On ch=1 n=a4 v=0
437520 On ch=1 n=f5 v=0
437520 On ch=1 n=e5 v=78
437760 On ch=1 n=e5 v=0
437760 On ch=1 n=b3 v=78
437788 On ch=1 n=g#4 v=78
437820 On ch=1 n=d5 v=78
438000 On ch=1 n=d5 v=0
438000 On ch=1 n=e5 v=82
438120 On ch=1 n=e5 v=0
438120 On ch=1 n=f5 v=86
438240 On ch=1 n=f5 v=0
438240 On ch=1 n=g#4 v=0
438240 On ch=1 n=b3 v=0
438240 On ch=1 n=c4 v=90
438240 On ch=1 n=a4 v=90
438240 On ch=1 n=c5 v=90
439200 On ch=1 n=c5 v=0
439200 On ch=1 n=a4 v=0
439200 On ch=1 n=c4 v=0
439200 On ch=1 n=e5 v=90
439200 On ch=1 n=a#4 v=90
439200 On ch=1 n=c4 v=90
440160 On ch=1 n=c4 v=0
440160 On ch=1 n=a#4 v=0
440160 On ch=1 n=e5 v=0
440160 On ch=1 n=f4 v=78
440160 On ch=1 n=c5 v=78
440400 On ch=1 n=f4 v=0
440400 On ch=1 n=e4 v=78
440640 On ch=1 n=e4 v=0
440640 On ch=1 n=d4 v=78
440880 On ch=1 n=d4 v=0
440880 On ch=1 n=c4 v=78
441120 On ch=1 n=c4 v=0
441120 On ch=1 n=f4 v=78
441600 On ch=1 n=f4 v=0
441600 On ch=1 n=c5 v=0
442080 On ch=1 n=f3 v=65
442120 On ch=1 n=a4 v=65
444000 On ch=1 n=a4 v=0
444000 On ch=1 n=f3 v=0
444000 On ch=1 n=d#3 v=90
444040 On ch=1 n=a#4 v=90
444960 On ch=1 n=a#4 v=0
444960 On ch=1 n=c4 v=77
445920 On ch=1 n=d#3 v=0
445920 On ch=1 n=f3 v=53
447120 On ch=1 n=f3 v=0
447120 On ch=1 n=c4 v=0
447840 On ch=1 n=d#3 v=53
447880 On ch=1 n=a#4 v=53
448800 On ch=1 n=a#4 v=0
448800 On ch=1 n=d#3 v=0
448800 On ch=1 n=f#3 v=53
449520 On ch=1 n=g#3 v=53
449760 On ch=1 n=g#3 v=0
449760 On ch=1 n=f#3 v=0
449760 On ch=1 n=c#4 v=53
449760 On ch=1 n=f3 v=53
450000 On ch=1 n=c#4 v=0
450000 On ch=1 n=d#4 v=53
450240 On ch=1 n=d#4 v=0
450240 On ch=1 n=f3 v=0
450240 On ch=1 n=f4 v=53
450480 On ch=1 n=f#4 v=53
450720 On ch=1 n=f#4 v=0
450720 On ch=1 n=g#4 v=53
450960 On ch=1 n=g#4 v=0
450960 On ch=1 n=a#4 v=53
451200 On ch=1 n=a#4 v=0
451200 On ch=1 n=c5 v=53
451440 On ch=1 n=c5 v=0
451440 On ch=1 n=c#5 v=53
451680 On ch=1 n=c#5 v=0
451680 On ch=1 n=d5 v=53
451920 On ch=1 n=d5 v=0
451920 On ch=1 n=b4 v=53
452160 On ch=1 n=b4 v=0
452160 On ch=1 n=f4 v=0
452160 On ch=1 n=g#4 v=53
452400 On ch=1 n=g#4 v=0
452400 On ch=1 n=f4 v=53
452640 On ch=1 n=f4 v=0
452640 On ch=1 n=c#4 v=53
452880 On ch=1 n=b3 v=53
453120 On ch=1 n=b3 v=0
453120 On ch=1 n=g#3 v=53
453360 On ch=1 n=g#3 v=0
453360 On ch=1 n=f3 v=53
453600 On ch=1 n=f3 v=0
453600 On ch=1 n=f#3 v=53
455400 On ch=1 n=f#3 v=0
455400 On ch=1 n=c#4 v=0
455400 On ch=1 n=f#3 v=75
455400 On ch=1 n=c#4 v=75
455520 On ch=1 n=c#4 v=0
455520 On ch=1 n=d4 v=78
456000 On ch=1 n=d5 v=72
456480 On ch=1 n=d5 v=0
456480 On ch=1 n=d4 v=0
457440 On ch=1 n=f#3 v=0
457440 On ch=1 n=c#4 v=53
457440 On ch=1 n=f#3 v=53
459240 On ch=1 n=f#3 v=0
459240 On ch=1 n=c#4 v=0
459240 On ch=1 n=c#4 v=75
459360 On ch=1 n=c#4 v=0
459360 On ch=1 n=e4 v=78
459360 On ch=1 n=c3 v=53
459840 On ch=1 n=c#5 v=72
460320 On ch=1 n=c#5 v=0
460320 On ch=1 n=e4 v=0
460800 On ch=1 n=c3 v=0
460800 On ch=1 n=f3 v=53
461120 On ch=1 n=d#4 v=53
461280 On ch=1 n=d#4 v=0
461280 On ch=1 n=f3 v=0
461280 On ch=1 n=a#2 v=65
461280 On ch=1 n=a#3 v=65
462720 On ch=1 n=a#3 v=0
462720 On ch=1 n=a#2 v=0
462720 On ch=1 n=g#2 v=71
462760 On ch=1 n=c4 v=71
463200 On ch=1 n=c4 v=0
463200 On ch=1 n=g#2 v=0
463200 On ch=1 n=g2 v=78
463200 On ch=1 n=b3 v=78
464640 On ch=1 n=b3 v=0
464640 On ch=1 n=g2 v=0
465120 On ch=1 n=c4 v=65
465240 On ch=1 n=c3 v=65
465360 On ch=1 n=c3 v=0
465360 On ch=1 n=c4 v=0
465360 On ch=1 n=d4 v=65
465600 On ch=1 n=d4 v=0
465600 On ch=1 n=d#4 v=70
465720 On ch=1 n=c4 v=70
465840 On ch=1 n=c4 v=0
465840 On ch=1 n=d#4 v=0
465840 On ch=1 n=f4 v=70
466080 On ch=1 n=f4 v=0
466080 On ch=1 n=g4 v=75
466200 On ch=1 n=d#4 v=75
466320 On ch=1 n=d#4 v=0
466320 On ch=1 n=g4 v=0
466320 On ch=1 n=a4 v=75
466560 On ch=1 n=a4 v=0
466560 On ch=1 n=b4 v=80
466720 On ch=1 n=b4 v=0
466720 On ch=1 n=c5 v=83
466880 On ch=1 n=c5 v=0
466880 On ch=1 n=d5 v=86
467040 On ch=1 n=d5 v=0
467040 On ch=1 n=f3 v=90
467040 On ch=1 n=a4 v=90
468480 On ch=1 n=a4 v=0
468480 On ch=1 n=f3 v=0
468480 On ch=1 n=f4 v=86
468600 On ch=1 n=f4 v=0
468600 On ch=1 n=d#4 v=84
468720 On ch=1 n=d#4 v=0
468720 On ch=1 n=d4 v=82
468840 On ch=1 n=d4 v=0
468840 On ch=1 n=c4 v=80
468960 On ch=1 n=c4 v=0
468960 On ch=1 n=a#3 v=78
468960 On ch=1 n=a#2 v=78
469080 On ch=1 n=d5 v=78
469200 On ch=1 n=d5 v=0
469440 On ch=1 n=a#2 v=0
469440 On ch=1 n=a#3 v=0
469440 On ch=1 n=a#5 v=78
469560 On ch=1 n=a#4 v=78
469680 On ch=1 n=a#4 v=0
469680 On ch=1 n=a#5 v=0
469680 On ch=1 n=a5 v=78
469920 On ch=1 n=a5 v=0
469920 On ch=1 n=g5 v=78
470040 On ch=1 n=a#4 v=78
470160 On ch=1 n=g5 v=0
470160 On ch=1 n=f5 v=78
470400 On ch=1 n=f5 v=0
470400 On ch=1 n=e5 v=78
470640 On ch=1 n=e5 v=0
470640 On ch=1 n=d5 v=78
470760 On ch=1 n=d5 v=0
470760 On ch=1 n=c5 v=78
470880 On ch=1 n=c5 v=0
470880 On ch=1 n=a#4 v=0
470880 On ch=1 n=a3 v=78
471000 On ch=1 n=c5 v=78
471120 On ch=1 n=c5 v=0
471360 On ch=1 n=a3 v=0
471360 On ch=1 n=a5 v=78
471480 On ch=1 n=a4 v=78
471600 On ch=1 n=a4 v=0
471600 On ch=1 n=a5 v=0
471600 On ch=1 n=g5 v=78
471840 On ch=1 n=g5 v=0
471840 On ch=1 n=f5 v=78
471960 On ch=1 n=a4 v=78
472080 On ch=1 n=a4 v=0
472080 On ch=1 n=f5 v=0
472080 On ch=1 n=e5 v=78
472320 On ch=1 n=e5 v=0
472320 On ch=1 n=b3 v=78
472348 On ch=1 n=g#4 v=78
472380 On ch=1 n=d5 v=78
472560 On ch=1 n=d5 v=0
472560 On ch=1 n=e5 v=82
472680 On ch=1 n=e5 v=0
472680 On ch=1 n=f5 v=86
472800 On ch=1 n=f5 v=0
472800 On ch=1 n=g#4 v=0
472800 On ch=1 n=b3 v=0
472800 On ch=1 n=c4 v=90
472800 On ch=1 n=a4 v=90
472800 On ch=1 n=c5 v=90
473760 On ch=1 n=c5 v=0
473760 On ch=1 n=a4 v=0
473760 On ch=1 n=c4 v=0
473760 On ch=1 n=e5 v=90
473760 On ch=1 n=a#4 v=90
473760 On ch=1 n=c4 v=90
474720 On ch=1 n=c4 v=0
474720 On ch=1 n=a#4 v=0
474720 On ch=1 n=e5 v=0
474720 On ch=1 n=f4 v=78
474720 On ch=1 n=c5 v=78
474960 On ch=1 n=f4 v=0
474960 On ch=1 n=e4 v=78
475200 On ch=1 n=e4 v=0
475200 On ch=1 n=d4 v=78
475440 On ch=1 n=d4 v=0
475440 On ch=1 n=c4 v=78
475680 On ch=1 n=c4 v=0
475680 On ch=1 n=f4 v=78
476160 On ch=1 n=f4 v=0
476160 On ch=1 n=c5 v=0
476640 On ch=1 n=f3 v=65
476680 On ch=1 n=a4 v=65
478560 On ch=1 n=a4 v=0
478560 On ch=1 n=f3 v=0
478560 On ch=1 n=d#3 v=90
478600 On ch=1 n=a#4 v=90
479520 On ch=1 n=a#4 v=0
479520 On ch=1 n=c4 v=77
480480 On ch=1 n=d#3 v=0
480480 On ch=1 n=f3 v=53
481680 On ch=1 n=f3 v=0
481680 On ch=1 n=c4 v=0
482400 On ch=1 n=d#3 v=53
482440 On ch=1 n=a#4 v=53
483360 On ch=1 n=a#4 v=0
483360 On ch=1 n=d#3 v=0
483360 On ch=1 n=f#3 v=53
484080 On ch=1 n=g#3 v=53
484320 On ch=1 n=g#3 v=0
484320 On ch=1 n=f#3 v=0
484320 On ch=1 n=c#4 v=53
484320 On ch=1 n=f3 v=53
484560 On ch=1 n=c#4 v=0
484560 On ch=1 n=d#4 v=53
484800 On ch=1 n=d#4 v=0
484800 On ch=1 n=f3 v=0
484800 On ch=1 n=f4 v=53
485040 On ch=1 n=f#4 v=53
485280 On ch=1 n=f#4 v=0
485280 On ch=1 n=g#4 v=53
485520 On ch=1 n=g#4 v=0
485520 On ch=1 n=a#4 v=53
485760 On ch=1 n=a#4 v=0
485760 On ch=1 n=c5 v=53
486000 On ch=1 n=c5 v=0
486000 On ch=1 n=c#5 v=53
486240 On ch=1 n=c#5 v=0
486240 On ch=1 n=d5 v=53
486480 On ch=1 n=d5 v=0
486480 On ch=1 n=b4 v=53
486720 On ch=1 n=b4 v=0
486720 On ch=1 n=f4 v=0
486720 On ch=1 n=g#4 v=53
486960 On ch=1 n=g#4 v=0
486960 On ch=1 n=f4 v=53
487200 On ch=1 n=f4 v=0
487200 On ch=1 n=c#4 v=53
487440 On ch=1 n=b3 v=53
487680 On ch=1 n=b3 v=0
487680 On ch=1 n=g#3 v=53
487920 On ch=1 n=g#3 v=0
487920 On ch=1 n=f3 v=53
488160 On ch=1 n=f3 v=0
488160 On ch=1 n=f#3 v=53
489960 On ch=1 n=f#3 v=0
489960 On ch=1 n=c#4 v=0
489960 On ch=1 n=f#3 v=75
489960 On ch=1 n=c#4 v=75
490080 On ch=1 n=c#4 v=0
490080 On ch=1 n=d4 v=78
490560 On ch=1 n=d5 v=72
491040 On ch=1 n=d5 v=0
491040 On ch=1 n=d4 v=0
492000 On ch=1 n=f#3 v=0
492000 On ch=1 n=c#4 v=53
492000 On ch=1 n=f#3 v=53
493800 On ch=1 n=f#3 v=0
493800 On ch=1 n=c#4 v=0
493800 On ch=1 n=c#4 v=75
493920 On ch=1 n=c#4 v=0
493920 On ch=1 n=e4 v=78
493920 On ch=1 n=c3 v=53
494400 On ch=1 n=c#5 v=72
494880 On ch=1 n=c#5 v=0
494880 On ch=1 n=e4 v=0
495360 On ch=1 n=c3 v=0
495360 On ch=1 n=f3 v=53
495680 On ch=1 n=d#4 v=53
495840 On ch=1 n=d#4 v=0
495840 On ch=1 n=f3 v=0
495840 On ch=1 n=a#2 v=65
495840 On ch=1 n=a#3 v=65
497280 On ch=1 n=a#3 v=0
497280 On ch=1 n=a#2 v=0
497280 On ch=1 n=g#2 v=71
497320 On ch=1 n=c4 v=71
497760 On ch=1 n=c4 v=0
497760 On ch=1 n=g#2 v=0
497760 On ch=1 n=g2 v=78
497760 On ch=1 n=b3 v=78
499200 On ch=1 n=b3 v=0
499200 On ch=1 n=g2 v=0
499680 On ch=1 n=c4 v=65
499800 On ch=1 n=c3 v=65
499920 On ch=1 n=c3 v=0
499920 On ch=1 n=c4 v=0
499920 On ch=1 n=d4 v=65
500160 On ch=1 n=d4 v=0
500160 On ch=1 n=d#4 v=70
500280 On ch=1 n=c4 v=70
500400 On ch=1 n=c4 v=0
500400 On ch=1 n=d#4 v=0
500400 On ch=1 n=f4 v=70
500640 On ch=1 n=f4 v=0
500640 On ch=1 n=g4 v=75
500760 On ch=1 n=d#4 v=75
500880 On ch=1 n=d#4 v=0
500880 On ch=1 n=g4 v=0
500880 On ch=1 n=a4 v=75
501120 On ch=1 n=a4 v=0
501120 On ch=1 n=b4 v=80
501280 On ch=1 n=b4 v=0
501280 On ch=1 n=c5 v=83
501440 On ch=1 n=c5 v=0
501440 On ch=1 n=d5 v=86
501600 On ch=1 n=d5 v=0
501600 On ch=1 n=f3 v=90
501600 On ch=1 n=a4 v=90
503040 On ch=1 n=a4 v=0
503040 On ch=1 n=f3 v=0
503040 On ch=1 n=f4 v=86
503160 On ch=1 n=f4 v=0
503160 On ch=1 n=d#4 v=84
503280 On ch=1 n=d#4 v=0
503280 On ch=1 n=d4 v=82
503400 On ch=1 n=d4 v=0
503400 On ch=1 n=c4 v=80
503520 On ch=1 n=c4 v=0
503520 On ch=1 n=a#2 v=102
503520 On ch=1 n=a#3 v=102
504000 On ch=1 n=f#5 v=108
504600 On ch=1 n=f#5 v=0
504600 On ch=1 n=g5 v=102
504960 On ch=1 n=g5 v=0
504960 On ch=1 n=a5 v=102
505200 On ch=1 n=a5 v=0
505200 On ch=1 n=a#5 v=102
505440 On ch=1 n=a#5 v=0
505440 On ch=1 n=a#3 v=0
505440 On ch=1 n=a#2 v=0
505440 On ch=1 n=a#3 v=102
505920 On ch=1 n=d#5 v=108
506520 On ch=1 n=d#5 v=0
506520 On ch=1 n=f5 v=102
506880 On ch=1 n=f5 v=0
506880 On ch=1 n=g5 v=102
507120 On ch=1 n=g5 v=0
507120 On ch=1 n=g#5 v=102
507360 On ch=1 n=g#5 v=0
507360 On ch=1 n=a#3 v=0
507360 On ch=1 n=a#3 v=102
508080 On ch=1 n=a#2 v=89
508320 On ch=1 n=a#2 v=0
508320 On ch=1 n=d#3 v=84
508800 On ch=1 n=d#3 v=0
508800 On ch=1 n=a#3 v=0
508800 On ch=1 n=a2 v=75
508800 On ch=1 n=a3 v=75
509280 On ch=1 n=a2 v=0
509280 On ch=1 n=d3 v=65
510000 On ch=1 n=a3 v=0
510000 On ch=1 n=a#3 v=65
510240 On ch=1 n=a#3 v=0
510240 On ch=1 n=d3 v=0
510240 On ch=1 n=d3 v=65
510300 On ch=1 n=a3 v=65
511680 On ch=1 n=a3 v=0
511680 On ch=1 n=d3 v=0
512160 On ch=1 n=g2 v=65
512160 On ch=1 n=g3 v=65
513600 On ch=1 n=g3 v=0
513600 On ch=1 n=g2 v=0
513840 On ch=1 n=a#2 v=65
513840 On ch=1 n=a#3 v=65
514020 On ch=1 n=a#3 v=0
514020 On ch=1 n=a#2 v=0
514080 On ch=1 n=c3 v=65
514080 On ch=1 n=c4 v=65
514260 On ch=1 n=c4 v=0
514260 On ch=1 n=c3 v=0
514560 On ch=1 n=d3 v=65
514560 On ch=1 n=d4 v=65
514740 On ch=1 n=d4 v=0
514740 On ch=1 n=d3 v=0
515040 On ch=1 n=g2 v=65
515040 On ch=1 n=g3 v=65
515520 On ch=1 n=g3 v=0
515520 On ch=1 n=g2 v=0
515760 On ch=1 n=d3 v=65
515940 On ch=1 n=d3 v=0
516000 On ch=1 n=g2 v=65
516000 On ch=1 n=g3 v=65
517440 On ch=1 n=g3 v=0
517440 On ch=1 n=g2 v=0
517680 On ch=1 n=a#2 v=65
517680 On ch=1 n=a#3 v=65
517860 On ch=1 n=a#3 v=0
517860 On ch=1 n=a#2 v=0
517920 On ch=1 n=c3 v=67
517920 On ch=1 n=c4 v=67
518100 On ch=1 n=c4 v=0
518100 On ch=1 n=c3 v=0
518400 On ch=1 n=d3 v=75
518400 On ch=1 n=d4 v=75
518580 On ch=1 n=d4 v=0
518580 On ch=1 n=d3 v=0
518880 On ch=1 n=d#3 v=85
518880 On ch=1 n=d#4 v=85
519360 On ch=1 n=d#4 v=0
519360 On ch=1 n=d#3 v=0
519600 On ch=1 n=d4 v=85
519600 On ch=1 n=d3 v=85
519780 On ch=1 n=d3 v=0
519780 On ch=1 n=d4 v=0
519840 On ch=1 n=d#3 v=85
519840 On ch=1 n=d#4 v=85
520320 On ch=1 n=d#4 v=0
520320 On ch=1 n=d#3 v=0
520320 On ch=1 n=c3 v=102
520320 On ch=1 n=c4 v=102
520800 On ch=1 n=c4 v=0
520800 On ch=1 n=c3 v=0
520800 On ch=1 n=d3 v=93
520800 On ch=1 n=d4 v=93
521280 On ch=1 n=d4 v=0
521280 On ch=1 n=d3 v=0
521520 On ch=1 n=d4 v=102
521700 On ch=1 n=d4 v=0
521760 On ch=1 n=g3 v=108
521760 On ch=1 n=a#3 v=108
521760 On ch=1 n=g4 v=108
522240 On ch=1 n=g4 v=0
522240 On ch=1 n=a#3 v=0
522240 On ch=1 n=d4 v=114
522240 On ch=1 n=a4 v=114
522720 On ch=1 n=a4 v=0
522720 On ch=1 n=d4 v=0
522720 On ch=1 n=g3 v=0
522720 On ch=1 n=g4 v=120
522720 On ch=1 n=a#4 v=120
523200 On ch=1 n=a#4 v=0
523200 On ch=1 n=g4 v=0
523440 On ch=1 n=a#3 v=108
523440 On ch=1 n=g4 v=108
523620 On ch=1 n=g4 v=0
523620 On ch=1 n=a#3 v=0
523680 On ch=1 n=c4 v=114
523680 On ch=1 n=g4 v=114
523680 On ch=1 n=a4 v=114
524160 On ch=1 n=a4 v=0
524160 On ch=1 n=g4 v=0
524160 On ch=1 n=c4 v=0
524160 On ch=1 n=d4 v=114
524160 On ch=1 n=f#4 v=114
524160 On ch=1 n=d5 v=120
524640 On ch=1 n=d5 v=0
524640 On ch=1 n=f#4 v=0
524640 On ch=1 n=d4 v=0
524640 On ch=1 n=g3 v=108
524640 On ch=1 n=a#3 v=108
524640 On ch=1 n=g4 v=108
525120 On ch=1 n=g4 v=0
525120 On ch=1 n=a#3 v=0
525120 On ch=1 n=g3 v=0
525360 On ch=1 n=d4 v=108
525540 On ch=1 n=d4 v=0
525600 On ch=1 n=g3 v=108
525600 On ch=1 n=a#3 v=108
525600 On ch=1 n=g4 v=108
526080 On ch=1 n=g4 v=0
526080 On ch=1 n=a#3 v=0
526080 On ch=1 n=d4 v=114
526080 On ch=1 n=a4 v=114
526560 On ch=1 n=a4 v=0
526560 On ch=1 n=d4 v=0
526560 On ch=1 n=g3 v=0
526560 On ch=1 n=g4 v=120
526560 On ch=1 n=a#4 v=120
527040 On ch=1 n=a#4 v=0
527040 On ch=1 n=g4 v=0
527280 On ch=1 n=d#3 v=102
527280 On ch=1 n=d#4 v=102
527460 On ch=1 n=d#4 v=0
527460 On ch=1 n=d#3 v=0
527520 On ch=1 n=f3 v=102
527520 On ch=1 n=f4 v=102
528000 On ch=1 n=f4 v=0
528000 On ch=1 n=f3 v=0
528000 On ch=1 n=a#2 v=102
528000 On ch=1 n=a#3 v=102
528480 On ch=1 n=a#3 v=0
528480 On ch=1 n=a#2 v=0
528480 On ch=1 n=d#3 v=102
528480 On ch=1 n=d#4 v=102
528960 On ch=1 n=d#4 v=0
528960 On ch=1 n=d#3 v=0
529200 On ch=1 n=a2 v=108
529200 On ch=1 n=a3 v=108
529380 On ch=1 n=a3 v=0
529380 On ch=1 n=a2 v=0
529440 On ch=1 n=d3 v=102
529440 On ch=1 n=d4 v=102
529920 On ch=1 n=d4 v=0
529920 On ch=1 n=d3 v=0
530160 On ch=1 n=g#2 v=108
530160 On ch=1 n=g#3 v=108
530340 On ch=1 n=g#3 v=0
530340 On ch=1 n=g#2 v=0
530400 On ch=1 n=d3 v=102
530400 On ch=1 n=d4 v=102
530880 On ch=1 n=d4 v=0
530880 On ch=1 n=d3 v=0
531120 On ch=1 n=g2 v=108
531120 On ch=1 n=a3 v=108
531300 On ch=1 n=a3 v=0
531300 On ch=1 n=g2 v=0
531360 On ch=1 n=d3 v=102
531360 On ch=1 n=d4 v=102
532320 On ch=1 n=d4 v=0
532800 On ch=1 n=d3 v=0
533040 On ch=1 n=d3 v=102
533220 On ch=1 n=d3 v=0
533280 On ch=1 n=g2 v=102
533280 On ch=1 n=g3 v=102
534720 On ch=1 n=g3 v=0
534720 On ch=1 n=g2 v=0
534960 On ch=1 n=a#2 v=102
534960 On ch=1 n=a#3 v=102
535140 On ch=1 n=a#3 v=0
535140 On ch=1 n=a#2 v=0
535200 On ch=1 n=c3 v=106
535200 On ch=1 n=c4 v=106
535380 On ch=1 n=c4 v=0
535380 On ch=1 n=c3 v=0
535680 On ch=1 n=d3 v=110
535680 On ch=1 n=d4 v=110
535860 On ch=1 n=d4 v=0
535860 On ch=1 n=d3 v=0
536160 On ch=1 n=d#3 v=114
536160 On ch=1 n=d#4 v=114
536640 On ch=1 n=d#4 v=0
536640 On ch=1 n=d#3 v=0
536880 On ch=1 n=d4 v=114
536880 On ch=1 n=d3 v=114
537060 On ch=1 n=d3 v=0
537060 On ch=1 n=d4 v=0
537120 On ch=1 n=d#3 v=120
537120 On ch=1 n=d#4 v=120
537600 On ch=1 n=d#4 v=0
537600 On ch=1 n=d#3 v=0
537600 On ch=1 n=d3 v=120
537600 On ch=1 n=d4 v=120
538080 On ch=1 n=d4 v=0
538080 On ch=1 n=d3 v=0
538080 On ch=1 n=c#3 v=127
538080 On ch=1 n=c#4 v=127
538800 On ch=1 n=c#4 v=0
538800 On ch=1 n=c#3 v=0
538800 On ch=1 n=c3 v=114
538800 On ch=1 n=c4 v=114
538980 On ch=1 n=c4 v=0
538980 On ch=1 n=c3 v=0
539040 On ch=1 n=d3 v=114
539040 On ch=1 n=d4 v=114
539520 On ch=1 n=d4 v=0
539520 On ch=1 n=d3 v=0
539520 On ch=1 n=d3 v=114
539520 On ch=1 n=d4 v=114
540000 On ch=1 n=d4 v=0
540000 On ch=1 n=d3 v=0
540000 On ch=1 n=c#3 v=127
540000 On ch=1 n=c#4 v=127
540720 On ch=1 n=c#4 v=0
540720 On ch=1 n=c#3 v=0
540720 On ch=1 n=c3 v=122
540720 On ch=1 n=c4 v=122
540900 On ch=1 n=c4 v=0
540900 On ch=1 n=c3 v=0
540960 On ch=1 n=d3 v=127
540960 On ch=1 n=d4 v=127
541440 On ch=1 n=d4 v=0
541440 On ch=1 n=d3 v=0
541440 On ch=1 n=d3 v=127
541440 On ch=1 n=d4 v=127
541620 On ch=1 n=d4 v=0
541620 On ch=1 n=d3 v=0
541920 On ch=1 n=g2 v=114
541920 On ch=1 n=g3 v=114
542100 On ch=1 n=g3 v=0
542100 On ch=1 n=g2 v=0
542160 On ch=1 n=g#4 v=114
542340 On ch=1 n=g#4 v=0
542400 On ch=1 n=g#5 v=120
542480 On ch=1 n=g#5 v=0
542480 On ch=1 n=g#4 v=114
542560 On ch=1 n=g#4 v=0
542560 On ch=1 n=a#4 v=114
542640 On ch=1 n=a#4 v=0
542640 On ch=1 n=b4 v=114
542820 On ch=1 n=b4 v=0
542880 On ch=1 n=f5 v=120
542960 On ch=1 n=f5 v=0
542960 On ch=1 n=f4 v=114
543040 On ch=1 n=f4 v=0
543040 On ch=1 n=g4 v=114
543120 On ch=1 n=g4 v=0
543120 On ch=1 n=g#4 v=114
543300 On ch=1 n=g#4 v=0
543360 On ch=1 n=d5 v=120
543440 On ch=1 n=d5 v=0
543440 On ch=1 n=d4 v=114
543520 On ch=1 n=d4 v=0
543520 On ch=1 n=d#4 v=114
543600 On ch=1 n=d#4 v=0
543600 On ch=1 n=f4 v=114
543780 On ch=1 n=f4 v=0
543840 On ch=1 n=d#4 v=114
543840 On ch=1 n=d#5 v=114
544020 On ch=1 n=d#5 v=0
544020 On ch=1 n=d#4 v=0
544320 On ch=1 n=g2 v=120
544320 On ch=1 n=g3 v=120
545040 On ch=1 n=g3 v=0
545040 On ch=1 n=g2 v=0
545040 On ch=1 n=c3 v=114
545040 On ch=1 n=c4 v=114
545220 On ch=1 n=c4 v=0
545220 On ch=1 n=c3 v=0
545280 On ch=1 n=d#3 v=114
545280 On ch=1 n=d#4 v=114
545460 On ch=1 n=d#4 v=0
545460 On ch=1 n=d#3 v=0
545520 On ch=1 n=g3 v=114
545520 On ch=1 n=g4 v=114
545700 On ch=1 n=g4 v=0
545700 On ch=1 n=g3 v=0
545760 On ch=1 n=g3 v=127
545760 On ch=1 n=a3 v=127
545760 On ch=1 n=a4 v=127
545940 On ch=1 n=a4 v=0
545940 On ch=1 n=a3 v=0
545940 On ch=1 n=g3 v=0
546000 On ch=1 n=f#5 v=114
546180 On ch=1 n=f#5 v=0
546240 On ch=1 n=f#6 v=120
546320 On ch=1 n=f#6 v=0
546320 On ch=1 n=f#5 v=114
546400 On ch=1 n=f#5 v=0
546400 On ch=1 n=g5 v=114
546480 On ch=1 n=g5 v=0
546480 On ch=1 n=a5 v=114
546660 On ch=1 n=a5 v=0
546720 On ch=1 n=d#6 v=120
546800 On ch=1 n=d#6 v=0
546800 On ch=1 n=d#5 v=114
546880 On ch=1 n=d#5 v=0
546880 On ch=1 n=f5 v=114
546960 On ch=1 n=f5 v=0
546960 On ch=1 n=f#5 v=114
547140 On ch=1 n=f#5 v=0
547200 On ch=1 n=c6 v=120
547280 On ch=1 n=c6 v=0
547280 On ch=1 n=c5 v=114
547360 On ch=1 n=c5 v=0
547360 On ch=1 n=c#5 v=114
547440 On ch=1 n=c#5 v=0
547440 On ch=1 n=d5 v=114
547620 On ch=1 n=d5 v=0
547680 On ch=1 n=g3 v=114
547680 On ch=1 n=g4 v=114
547860 On ch=1 n=g4 v=0
547860 On ch=1 n=g3 v=0
547920 On ch=1 n=d#5 v=114
548100 On ch=1 n=d#5 v=0
548160 On ch=1 n=d#6 v=127
548240 On ch=1 n=d#6 v=0
548240 On ch=1 n=d#5 v=114
548320 On ch=1 n=d#5 v=0
548320 On ch=1 n=f5 v=114
548400 On ch=1 n=f5 v=0
548400 On ch=1 n=g5 v=114
548580 On ch=1 n=g5 v=0
548640 On ch=1 n=g4 v=114
548820 On ch=1 n=g4 v=0
548880 On ch=1 n=d#5 v=114
549060 On ch=1 n=d#5 v=0
549120 On ch=1 n=d#6 v=127
549200 On ch=1 n=d#6 v=0
549200 On ch=1 n=d#5 v=114
549280 On ch=1 n=d#5 v=0
549280 On ch=1 n=f5 v=114
549360 On ch=1 n=f5 v=0
549360 On ch=1 n=g5 v=114
549540 On ch=1 n=g5 v=0
549600 On ch=1 n=g4 v=114
549780 On ch=1 n=g4 v=0
549840 On ch=1 n=d#5 v=114
550020 On ch=1 n=d#5 v=0
550080 On ch=1 n=d#6 v=114
550160 On ch=1 n=d#6 v=0
550160 On ch=1 n=d#5 v=114
550240 On ch=1 n=d#5 v=0
550240 On ch=1 n=f5 v=114
550320 On ch=1 n=f5 v=0
550320 On ch=1 n=g5 v=114
550500 On ch=1 n=g5 v=0
550560 On ch=1 n=c6 v=120
550640 On ch=1 n=c6 v=0
550640 On ch=1 n=c5 v=114
550720 On ch=1 n=c5 v=0
550720 On ch=1 n=d5 v=114
550800 On ch=1 n=d5 v=0
550800 On ch=1 n=d#5 v=114
550980 On ch=1 n=d#5 v=0
551040 On ch=1 n=f#5 v=114
551220 On ch=1 n=f#5 v=0
551280 On ch=1 n=d4 v=114
551520 On ch=1 n=d4 v=0
551520 On ch=1 n=g3 v=114
551700 On ch=1 n=g3 v=0
551760 On ch=1 n=d#4 v=114
551940 On ch=1 n=d#4 v=0
552000 On ch=1 n=d#5 v=127
552080 On ch=1 n=d#5 v=0
552080 On ch=1 n=d#4 v=114
552160 On ch=1 n=d#4 v=0
552160 On ch=1 n=f4 v=114
552240 On ch=1 n=f4 v=0
552240 On ch=1 n=g4 v=114
552420 On ch=1 n=g4 v=0
552480 On ch=1 n=g3 v=114
552660 On ch=1 n=g3 v=0
552720 On ch=1 n=d#4 v=114
552900 On ch=1 n=d#4 v=0
552960 On ch=1 n=d#5 v=127
553040 On ch=1 n=d#5 v=0
553040 On ch=1 n=d#4 v=114
553120 On ch=1 n=d#4 v=0
553120 On ch=1 n=f4 v=114
553200 On ch=1 n=f4 v=0
553200 On ch=1 n=g4 v=114
553380 On ch=1 n=g4 v=0
553440 On ch=1 n=g3 v=114
553620 On ch=1 n=g3 v=0
553680 On ch=1 n=d#4 v=114
553860 On ch=1 n=d#4 v=0
553920 On ch=1 n=d#5 v=120
554000 On ch=1 n=d#5 v=0
554000 On ch=1 n=d#4 v=114
554080 On ch=1 n=d#4 v=0
554080 On ch=1 n=f4 v=114
554160 On ch=1 n=f4 v=0
554160 On ch=1 n=g4 v=114
554340 On ch=1 n=g4 v=0
554400 On ch=1 n=c5 v=120
554480 On ch=1 n=c5 v=0
554480 On ch=1 n=c4 v=114
554560 On ch=1 n=c4 v=0
554560 On ch=1 n=d4 v=114
554640 On ch=1 n=d4 v=0
554640 On ch=1 n=d#4 v=114
554820 On ch=1 n=d#4 v=0
554880 On ch=1 n=f#4 v=120
555060 On ch=1 n=f#4 v=0
555120 On ch=1 n=d3 v=114
555300 On ch=1 n=d3 v=0
555360 On ch=1 n=g2 v=114
555540 On ch=1 n=g2 v=0
555600 On ch=1 n=d3 v=114
555780 On ch=1 n=d3 v=0
555840 On ch=1 n=f#4 v=127
556020 On ch=1 n=f#4 v=0
556080 On ch=1 n=d3 v=45
556320 On ch=1 n=d3 v=0
556320 On ch=1 n=g2 v=114
556500 On ch=1 n=g2 v=0
556560 On ch=1 n=d3 v=114
556740 On ch=1 n=d3 v=0
556800 On ch=1 n=f#4 v=127
556980 On ch=1 n=f#4 v=0
557040 On ch=1 n=d3 v=45
557280 On ch=1 n=d3 v=0
557280 On ch=1 n=g2 v=114
557280 On ch=1 n=g3 v=114
558720 On ch=1 n=g3 v=0
558720 On ch=1 n=g2 v=0
558960 On ch=1 n=d3 v=120
558960 On ch=1 n=d4 v=120
559140 On ch=1 n=d4 v=0
559140 On ch=1 n=d3 v=0
559200 On ch=1 n=g2 v=114
559200 On ch=1 n=g3 v=114
560640 On ch=1 n=g3 v=0
560640 On ch=1 n=g2 v=0
560880 On ch=1 n=d3 v=120
560880 On ch=1 n=d4 v=120
561060 On ch=1 n=d4 v=0
561060 On ch=1 n=d3 v=0
561120 On ch=1 n=g2 v=127
561120 On ch=1 n=g3 v=127
561240 On ch=1 n=g3 v=0
561240 On ch=1 n=g2 v=0
561360 On ch=1 n=g6 v=120
561600 On ch=1 n=g6 v=0
561600 On ch=1 n=d6 v=120
561840 On ch=1 n=d6 v=0
561840 On ch=1 n=a#5 v=120
562080 On ch=1 n=a#5 v=0
562080 On ch=1 n=g5 v=120
562320 On ch=1 n=g5 v=0
562320 On ch=1 n=d5 v=120
562560 On ch=1 n=d5 v=0
562560 On ch=1 n=a#4 v=120
562800 On ch=1 n=a#4 v=0
562800 On ch=1 n=g4 v=120
563040 On ch=1 n=c4 v=120
563400 On ch=1 n=g4 v=0
563400 On ch=1 n=f#4 v=120
563640 On ch=1 n=f#4 v=0
563640 On ch=1 n=d#4 v=120
563880 On ch=1 n=d#4 v=0
563880 On ch=1 n=c4 v=120
564120 On ch=1 n=c4 v=0
564120 On ch=1 n=a3 v=120
564360 On ch=1 n=a3 v=0
564360 On ch=1 n=f#3 v=120
564600 On ch=1 n=f#3 v=0
564600 On ch=1 n=d#3 v=120
564840 On ch=1 n=d#3 v=0
564840 On ch=1 n=c3 v=120
564960 On ch=1 n=c3 v=0
564960 On ch=1 n=c4 v=0
564960 On ch=1 n=g2 v=120
564960 On ch=1 n=g3 v=120
565080 On ch=1 n=g3 v=0
565080 On ch=1 n=g2 v=0
565200 On ch=1 n=g5 v=120
565440 On ch=1 n=g5 v=0
565440 On ch=1 n=d5 v=120
565680 On ch=1 n=d5 v=0
565680 On ch=1 n=a#4 v=120
565920 On ch=1 n=a#4 v=0
565920 On ch=1 n=g4 v=120
566160 On ch=1 n=g4 v=0
566160 On ch=1 n=d4 v=120
566400 On ch=1 n=d4 v=0
566400 On ch=1 n=a#3 v=120
566640 On ch=1 n=a#3 v=0
566640 On ch=1 n=g3 v=120
566880 On ch=1 n=c3 v=120
567240 On ch=1 n=g3 v=0
567240 On ch=1 n=f#3 v=120
567480 On ch=1 n=f#3 v=0
567480 On ch=1 n=d#3 v=120
567720 On ch=1 n=d#3 v=0
567720 On ch=1 n=c3 v=120
567960 On ch=1 n=c3 v=0
567960 On ch=1 n=a2 v=120
568200 On ch=1 n=a2 v=0
568200 On ch=1 n=f#2 v=120
568440 On ch=1 n=f#2 v=0
568440 On ch=1 n=d#2 v=120
568680 On ch=1 n=d#2 v=0
568680 On ch=1 n=c2 v=120
568800 On ch=1 n=c2 v=0
568800 On ch=1 n=c3 v=0
568800 On ch=1 n=g2 v=120
568920 On ch=1 n=g2 v=0
569160 On ch=1 n=d5 v=120
569400 On ch=1 n=d5 v=0
569400 On ch=1 n=a#4 v=120
569640 On ch=1 n=a#4 v=0
569640 On ch=1 n=g4 v=120
569880 On ch=1 n=g4 v=0
569880 On ch=1 n=d4 v=120
570120 On ch=1 n=d4 v=0
570120 On ch=1 n=a#3 v=120
570360 On ch=1 n=a#3 v=0
570360 On ch=1 n=g3 v=120
570600 On ch=1 n=g3 v=0
570600 On ch=1 n=g2 v=120
571680 On ch=1 n=g2 v=0
572880 On ch=1 n=c4 v=65
572880 On ch=1 n=f4 v=65
573360 On ch=1 n=f4 v=0
573360 On ch=1 n=c4 v=0
573360 On ch=1 n=a#3 v=78
573360 On ch=1 n=f4 v=78
573840 On ch=1 n=f4 v=0
573840 On ch=1 n=a#3 v=0
573840 On ch=1 n=a3 v=90
573840 On ch=1 n=f4 v=90
574320 On ch=1 n=f4 v=0
574320 On ch=1 n=a3 v=0
574320 On ch=1 n=a#3 v=65
574320 On ch=1 n=f4 v=65
574560 On ch=1 n=a#3 v=0
574560 On ch=1 n=c4 v=82
574800 On ch=1 n=c4 v=0
574800 On ch=1 n=f4 v=0
574800 On ch=1 n=f4 v=74
574800 On ch=1 n=a#3 v=74
575040 On ch=1 n=a#3 v=0
575040 On ch=1 n=a3 v=65
575280 On ch=1 n=a3 v=0
575280 On ch=1 n=f4 v=0
575280 On ch=1 n=f3 v=78
575760 On ch=1 n=f3 v=0
575760 On ch=1 n=a#2 v=65
575760 On ch=1 n=a#3 v=65
576240 On ch=1 n=a#3 v=0
576240 On ch=1 n=a#2 v=0
576240 On ch=1 n=c3 v=78
576240 On ch=1 n=c4 v=78
576480 On ch=1 n=c4 v=0
576480 On ch=1 n=c3 v=0
576480 On ch=1 n=d#3 v=90
576508 On ch=1 n=d#4 v=90
576660 On ch=1 n=d#4 v=0
576660 On ch=1 n=d#3 v=0
576660 On ch=1 n=d3 v=78
576660 On ch=1 n=d4 v=78
576720 On ch=1 n=d4 v=0
576720 On ch=1 n=d3 v=0
576720 On ch=1 n=d3 v=65
576720 On ch=1 n=d4 v=65
577200 On ch=1 n=d4 v=0
577200 On ch=1 n=d3 v=0
577200 On ch=1 n=c3 v=65
577200 On ch=1 n=c4 v=65
577440 On ch=1 n=c4 v=0
577440 On ch=1 n=c3 v=0
577440 On ch=1 n=a#2 v=65
577440 On ch=1 n=a#3 v=65
577680 On ch=1 n=a#3 v=0
577680 On ch=1 n=a#2 v=0
577680 On ch=1 n=g#2 v=65
577680 On ch=1 n=g#3 v=65
577920 On ch=1 n=g#3 v=0
577920 On ch=1 n=g#2 v=0
577920 On ch=1 n=g2 v=65
577920 On ch=1 n=g3 v=65
578040 On ch=1 n=g3 v=0
578040 On ch=1 n=g2 v=0
578040 On ch=1 n=g#2 v=65
578040 On ch=1 n=g#3 v=65
578068 On ch=1 n=g#3 v=0
578068 On ch=1 n=g#2 v=0
578068 On ch=1 n=g2 v=65
578068 On ch=1 n=g3 v=65
578100 On ch=1 n=g3 v=0
578100 On ch=1 n=g2 v=0
578100 On ch=1 n=f#2 v=65
578100 On ch=1 n=f#3 v=65
578128 On ch=1 n=f#3 v=0
578128 On ch=1 n=f#2 v=0
578128 On ch=1 n=g2 v=65
578128 On ch=1 n=g3 v=65
578160 On ch=1 n=g3 v=0
578160 On ch=1 n=g2 v=0
578160 On ch=1 n=g#2 v=65
578160 On ch=1 n=g#3 v=65
578340 On ch=1 n=g#3 v=0
578340 On ch=1 n=g#2 v=0
578340 On ch=1 n=f2 v=65
578340 On ch=1 n=f3 v=65
578400 On ch=1 n=f3 v=0
578400 On ch=1 n=f2 v=0
578400 On ch=1 n=f2 v=65
578400 On ch=1 n=f3 v=65
578640 On ch=1 n=f3 v=0
578640 On ch=1 n=f2 v=0
578640 On ch=1 n=g2 v=90
578640 On ch=1 n=g3 v=90
578668 On ch=1 n=g3 v=0
578668 On ch=1 n=g2 v=0
578668 On ch=1 n=g4 v=90
578668 On ch=1 n=f4 v=90
579120 On ch=1 n=f4 v=0
579120 On ch=1 n=g4 v=0
579120 On ch=1 n=d#4 v=90
579120 On ch=1 n=g4 v=90
579360 On ch=1 n=g4 v=0
579360 On ch=1 n=d#4 v=0
579388 On ch=1 n=c4 v=96
579388 On ch=1 n=a4 v=96
579600 On ch=1 n=a4 v=0
579600 On ch=1 n=c4 v=0
579600 On ch=1 n=b3 v=102
579600 On ch=1 n=g4 v=102
580080 On ch=1 n=g4 v=0
580080 On ch=1 n=b3 v=0
580080 On ch=1 n=c4 v=98
580080 On ch=1 n=g4 v=98
580320 On ch=1 n=g4 v=0
580320 On ch=1 n=c4 v=0
580320 On ch=1 n=f4 v=94
580320 On ch=1 n=g4 v=94
580560 On ch=1 n=g4 v=0
580560 On ch=1 n=f4 v=0
580560 On ch=1 n=d#4 v=90
580560 On ch=1 n=g4 v=90
580800 On ch=1 n=d#4 v=0
580800 On ch=1 n=d4 v=90
581040 On ch=1 n=d4 v=0
581040 On ch=1 n=g4 v=0
581040 On ch=1 n=b3 v=102
581040 On ch=1 n=f4 v=102
581280 On ch=1 n=f4 v=0
581280 On ch=1 n=b3 v=0
581520 On ch=1 n=c#4 v=90
581880 On ch=1 n=c#4 v=0
581880 On ch=1 n=c#4 v=65
581940 On ch=1 n=c#4 v=0
581940 On ch=1 n=c4 v=65
582000 On ch=1 n=c4 v=0
582000 On ch=1 n=a#3 v=65
582060 On ch=1 n=a#3 v=0
582060 On ch=1 n=c4 v=65
582120 On ch=1 n=c4 v=0
582120 On ch=1 n=a#3 v=65
582180 On ch=1 n=a#3 v=0
582180 On ch=1 n=g#3 v=65
582240 On ch=1 n=g#3 v=0
582240 On ch=1 n=g3 v=65
582300 On ch=1 n=g3 v=0
582300 On ch=1 n=g#3 v=65
582360 On ch=1 n=g#3 v=0
582360 On ch=1 n=g3 v=65
582420 On ch=1 n=g3 v=0
582420 On ch=1 n=f3 v=65
582480 On ch=1 n=f3 v=0
582480 On ch=1 n=e3 v=65
582960 On ch=1 n=e3 v=0
583440 On ch=1 n=f#3 v=78
583800 On ch=1 n=f#3 v=0
583800 On ch=1 n=f#3 v=65
583860 On ch=1 n=f#3 v=0
583860 On ch=1 n=f3 v=65
583920 On ch=1 n=f3 v=0
583920 On ch=1 n=d#3 v=66
583980 On ch=1 n=d#3 v=0
583980 On ch=1 n=f3 v=67
584040 On ch=1 n=f3 v=0
584040 On ch=1 n=d#3 v=69
584100 On ch=1 n=d#3 v=0
584100 On ch=1 n=c#3 v=70
584160 On ch=1 n=c#3 v=0
584160 On ch=1 n=c3 v=71
584220 On ch=1 n=c3 v=0
584220 On ch=1 n=c#3 v=72
584280 On ch=1 n=c#3 v=0
584280 On ch=1 n=c3 v=74
584340 On ch=1 n=c3 v=0
584340 On ch=1 n=a#2 v=75
584400 On ch=1 n=a#2 v=0
584400 On ch=1 n=a2 v=78
585360 On ch=1 n=a2 v=0
585360 On ch=1 n=a#2 v=83
585840 On ch=1 n=a#2 v=0
585840 On ch=1 n=c3 v=68
586080 On ch=1 n=c3 v=0
586080 On ch=1 n=f3 v=60
586320 On ch=1 n=f3 v=0
586320 On ch=1 n=c4 v=53
586320 On ch=1 n=f4 v=53
586800 On ch=1 n=f4 v=0
586800 On ch=1 n=c4 v=0
586800 On ch=1 n=a#3 v=53
586800 On ch=1 n=f4 v=53
587280 On ch=1 n=f4 v=0
587280 On ch=1 n=a#3 v=0
587280 On ch=1 n=a3 v=53
587280 On ch=1 n=f4 v=53
587760 On ch=1 n=f4 v=0
587760 On ch=1 n=a3 v=0
587760 On ch=1 n=a#3 v=53
587760 On ch=1 n=f4 v=53
588000 On ch=1 n=a#3 v=0
588000 On ch=1 n=c4 v=53
588240 On ch=1 n=c4 v=0
588240 On ch=1 n=f4 v=0
588240 On ch=1 n=f4 v=53
588240 On ch=1 n=a#3 v=53
588480 On ch=1 n=a#3 v=0
588480 On ch=1 n=a3 v=53
588720 On ch=1 n=a3 v=0
588720 On ch=1 n=f4 v=0
588720 On ch=1 n=f3 v=53
589200 On ch=1 n=f3 v=0
589200 On ch=1 n=d4 v=53
589200 On ch=1 n=f#3 v=53
589680 On ch=1 n=f#3 v=0
589680 On ch=1 n=g3 v=65
589920 On ch=1 n=g3 v=0
589920 On ch=1 n=d4 v=0
589920 On ch=1 n=a#3 v=78
590100 On ch=1 n=a#3 v=0
590100 On ch=1 n=a3 v=78
590160 On ch=1 n=a3 v=0
590160 On ch=1 n=a3 v=78
590640 On ch=1 n=a3 v=0
590640 On ch=1 n=g3 v=53
590880 On ch=1 n=g3 v=0
590880 On ch=1 n=f#3 v=65
591120 On ch=1 n=f#3 v=0
591120 On ch=1 n=d#3 v=53
591360 On ch=1 n=d#3 v=0
591360 On ch=1 n=d3 v=59
591408 On ch=1 n=d3 v=0
591408 On ch=1 n=d#3 v=65
591456 On ch=1 n=d#3 v=0
591456 On ch=1 n=d3 v=71
591504 On ch=1 n=d3 v=0
591504 On ch=1 n=c3 v=78
591552 On ch=1 n=c3 v=0
591552 On ch=1 n=d3 v=72
591600 On ch=1 n=d3 v=0
591600 On ch=1 n=d#3 v=66
591780 On ch=1 n=d#3 v=0
591780 On ch=1 n=c3 v=60
591840 On ch=1 n=c3 v=0
591840 On ch=1 n=a#2 v=53
592320 On ch=1 n=a#2 v=0
592560 On ch=1 n=a#3 v=90
592800 On ch=1 n=a#3 v=0
592800 On ch=1 n=c4 v=90
593280 On ch=1 n=c4 v=0
593280 On ch=1 n=d4 v=90
593760 On ch=1 n=d4 v=0
593760 On ch=1 n=d#4 v=90
594240 On ch=1 n=d#4 v=0
594240 On ch=1 n=f#4 v=90
594720 On ch=1 n=f#4 v=0
594720 On ch=1 n=g4 v=90
595200 On ch=1 n=g4 v=0
595200 On ch=1 n=e4 v=90
595680 On ch=1 n=e4 v=0
595680 On ch=1 n=f#4 v=90
595680 On ch=1 n=d4 v=90
595920 On ch=1 n=d4 v=0
595920 On ch=1 n=f#4 v=0
596160 On ch=1 n=a#2 v=65
596640 On ch=1 n=a#2 v=0
596640 On ch=1 n=c3 v=65
596640 On ch=1 n=a3 v=65
597120 On ch=1 n=a3 v=0
597120 On ch=1 n=c3 v=0
597120 On ch=1 n=d3 v=65
597600 On ch=1 n=d3 v=0
597600 On ch=1 n=d#3 v=73
597600 On ch=1 n=c4 v=73
598080 On ch=1 n=c4 v=0
598080 On ch=1 n=d#3 v=0
598080 On ch=1 n=f#3 v=81
598560 On ch=1 n=f#3 v=0
598560 On ch=1 n=g3 v=90
599040 On ch=1 n=g3 v=0
599040 On ch=1 n=a3 v=78
599520 On ch=1 n=a3 v=0
599520 On ch=1 n=a#3 v=65
599640 On ch=1 n=f4 v=65
599760 On ch=1 n=f4 v=0
599760 On ch=1 n=a#4 v=65
599880 On ch=1 n=a#4 v=0
599880 On ch=1 n=d5 v=65
600000 On ch=1 n=d5 v=0
600000 On ch=1 n=a#3 v=0
600000 On ch=1 n=a#2 v=90
600480 On ch=1 n=a#2 v=0
600480 On ch=1 n=a4 v=90
600480 On ch=1 n=c4 v=90
600960 On ch=1 n=c4 v=0
600960 On ch=1 n=a4 v=0
600960 On ch=1 n=d3 v=96
601440 On ch=1 n=d3 v=0
601440 On ch=1 n=c5 v=102
601440 On ch=1 n=d#4 v=102
601920 On ch=1 n=d#4 v=0
601920 On ch=1 n=c5 v=0
601920 On ch=1 n=f#4 v=108
602400 On ch=1 n=f#4 v=0
602400 On ch=1 n=g4 v=114
602640 On ch=1 n=g5 v=104
602880 On ch=1 n=g5 v=0
602880 On ch=1 n=g4 v=0
602880 On ch=1 n=a4 v=94
603000 On ch=1 n=f5 v=114
603240 On ch=1 n=f5 v=0
603240 On ch=1 n=d#5 v=84
603360 On ch=1 n=d#5 v=0
603360 On ch=1 n=d5 v=74
603840 On ch=1 n=d5 v=0
603840 On ch=1 n=a4 v=0
603840 On ch=1 n=a#3 v=53
604320 On ch=1 n=a#3 v=0
604320 On ch=1 n=c4 v=53
604320 On ch=1 n=a4 v=53
604800 On ch=1 n=a4 v=0
604800 On ch=1 n=c4 v=0
604800 On ch=1 n=d4 v=53
605280 On ch=1 n=d4 v=0
605280 On ch=1 n=d#4 v=53
605760 On ch=1 n=d#4 v=0
605760 On ch=1 n=f#4 v=53
606240 On ch=1 n=f#4 v=0
606240 On ch=1 n=g4 v=53
606720 On ch=1 n=g4 v=0
606720 On ch=1 n=e4 v=53
607200 On ch=1 n=e4 v=0
607200 On ch=1 n=d4 v=53
607680 On ch=1 n=d4 v=0
607680 On ch=1 n=b3 v=90
607800 On ch=1 n=g#4 v=90
607920 On ch=1 n=g#4 v=0
607920 On ch=1 n=g4 v=90
608040 On ch=1 n=g4 v=0
608040 On ch=1 n=f4 v=90
608160 On ch=1 n=b3 v=0
608160 On ch=1 n=c4 v=94
608280 On ch=1 n=f4 v=0
608280 On ch=1 n=g4 v=94
608400 On ch=1 n=g4 v=0
608400 On ch=1 n=d#4 v=94
608520 On ch=1 n=d#4 v=0
608520 On ch=1 n=c4 v=94
608640 On ch=1 n=c4 v=0
608640 On ch=1 n=c4 v=0
608640 On ch=1 n=a#3 v=98
608760 On ch=1 n=g#4 v=98
608880 On ch=1 n=g#4 v=0
608880 On ch=1 n=d4 v=98
609000 On ch=1 n=d4 v=0
609000 On ch=1 n=a#3 v=0
609000 On ch=1 n=a#3 v=98
609120 On ch=1 n=d#3 v=102
609240 On ch=1 n=a#3 v=0
609240 On ch=1 n=g4 v=102
609360 On ch=1 n=g4 v=0
609360 On ch=1 n=d#4 v=102
609480 On ch=1 n=d#4 v=0
609480 On ch=1 n=a#3 v=102
609600 On ch=1 n=a#3 v=0
609600 On ch=1 n=d#3 v=0
609600 On ch=1 n=d#3 v=65
609840 On ch=1 n=a#4 v=65
609960 On ch=1 n=a#4 v=0
609960 On ch=1 n=g#4 v=65
610080 On ch=1 n=d#3 v=0
610080 On ch=1 n=d#4 v=65
610200 On ch=1 n=g#4 v=0
610200 On ch=1 n=a#4 v=65
610320 On ch=1 n=a#4 v=0
610320 On ch=1 n=g4 v=67
610440 On ch=1 n=g4 v=0
610440 On ch=1 n=d#4 v=67
610560 On ch=1 n=d#4 v=0
610560 On ch=1 n=d#4 v=0
610560 On ch=1 n=d4 v=69
610680 On ch=1 n=c5 v=69
610800 On ch=1 n=c5 v=0
610800 On ch=1 n=f#4 v=71
610920 On ch=1 n=f#4 v=0
610920 On ch=1 n=d4 v=0
610920 On ch=1 n=d4 v=71
611040 On ch=1 n=g3 v=73
611160 On ch=1 n=d4 v=0
611160 On ch=1 n=b4 v=73
611280 On ch=1 n=b4 v=0
611280 On ch=1 n=d#4 v=75
611400 On ch=1 n=d#4 v=0
611400 On ch=1 n=d4 v=75
611520 On ch=1 n=g3 v=0
611520 On ch=1 n=c3 v=53
611760 On ch=1 n=d4 v=0
611760 On ch=1 n=b4 v=53
611880 On ch=1 n=b4 v=0
611880 On ch=1 n=g4 v=53
612000 On ch=1 n=g4 v=0
612480 On ch=1 n=c3 v=0
612480 On ch=1 n=d4 v=59
612960 On ch=1 n=d4 v=0
612960 On ch=1 n=d#4 v=65
613440 On ch=1 n=d#4 v=0
613440 On ch=1 n=f#3 v=71
613920 On ch=1 n=f#3 v=0
613920 On ch=1 n=g3 v=78
614400 On ch=1 n=g3 v=0
614400 On ch=1 n=f4 v=70
614400 On ch=1 n=a3 v=70
614520 On ch=1 n=f4 v=0
614520 On ch=1 n=e4 v=76
614640 On ch=1 n=e4 v=0
614640 On ch=1 n=a4 v=82
614760 On ch=1 n=a4 v=0
614760 On ch=1 n=g4 v=73
614880 On ch=1 n=a3 v=0
614880 On ch=1 n=d4 v=62
615120 On ch=1 n=d4 v=0
615120 On ch=1 n=g4 v=0
615120 On ch=1 n=f#4 v=59
615240 On ch=1 n=d4 v=56
615360 On ch=1 n=d4 v=0
615420 On ch=1 n=c4 v=53
615720 On ch=1 n=f#4 v=0
615720 On ch=1 n=f4 v=53
616560 On ch=1 n=f4 v=0
616560 On ch=1 n=c4 v=0
616560 On ch=1 n=a#3 v=64
616560 On ch=1 n=f4 v=64
617040 On ch=1 n=f4 v=0
617040 On ch=1 n=a#3 v=0
617040 On ch=1 n=a3 v=74
617040 On ch=1 n=f4 v=74
617520 On ch=1 n=f4 v=0
617520 On ch=1 n=a3 v=0
617520 On ch=1 n=a#3 v=53
617520 On ch=1 n=f4 v=53
617760 On ch=1 n=a#3 v=0
617760 On ch=1 n=c4 v=67
618000 On ch=1 n=c4 v=0
618000 On ch=1 n=f4 v=0
618000 On ch=1 n=f4 v=61
618000 On ch=1 n=a#3 v=61
618240 On ch=1 n=a#3 v=0
618240 On ch=1 n=a3 v=53
618480 On ch=1 n=a3 v=0
618480 On ch=1 n=f4 v=0
618480 On ch=1 n=f3 v=64
618960 On ch=1 n=f3 v=0
618960 On ch=1 n=a#2 v=65
618960 On ch=1 n=a#3 v=65
619440 On ch=1 n=a#3 v=0
619440 On ch=1 n=a#2 v=0
619440 On ch=1 n=c3 v=78
619440 On ch=1 n=c4 v=78
619680 On ch=1 n=c4 v=0
619680 On ch=1 n=c3 v=0
619680 On ch=1 n=d#4 v=90
619680 On ch=1 n=d#3 v=90
619860 On ch=1 n=d#3 v=0
619860 On ch=1 n=d#4 v=0
619860 On ch=1 n=d3 v=78
619860 On ch=1 n=d4 v=78
619920 On ch=1 n=d4 v=0
619920 On ch=1 n=d3 v=0
619920 On ch=1 n=d3 v=65
619920 On ch=1 n=d4 v=65
620400 On ch=1 n=d4 v=0
620400 On ch=1 n=d3 v=0
620400 On ch=1 n=c3 v=65
620400 On ch=1 n=c4 v=65
620640 On ch=1 n=c4 v=0
620640 On ch=1 n=c3 v=0
620640 On ch=1 n=a#2 v=65
620640 On ch=1 n=a#3 v=65
620880 On ch=1 n=a#3 v=0
620880 On ch=1 n=a#2 v=0
620880 On ch=1 n=g#2 v=65
620880 On ch=1 n=g#3 v=65
621120 On ch=1 n=g#3 v=0
621120 On ch=1 n=g#2 v=0
621120 On ch=1 n=g2 v=65
621120 On ch=1 n=g3 v=65
621240 On ch=1 n=g3 v=0
621240 On ch=1 n=g2 v=0
621240 On ch=1 n=g#2 v=78
621240 On ch=1 n=g#3 v=78
621268 On ch=1 n=g#3 v=0
621268 On ch=1 n=g#2 v=0
621268 On ch=1 n=g2 v=90
621268 On ch=1 n=g3 v=90
621300 On ch=1 n=g3 v=0
621300 On ch=1 n=g2 v=0
621300 On ch=1 n=f#2 v=78
621300 On ch=1 n=f#3 v=78
621328 On ch=1 n=f#3 v=0
621328 On ch=1 n=f#2 v=0
621328 On ch=1 n=g2 v=65
621328 On ch=1 n=g3 v=65
621360 On ch=1 n=g3 v=0
621360 On ch=1 n=g2 v=0
621360 On ch=1 n=a#2 v=65
621360 On ch=1 n=a#3 v=65
621540 On ch=1 n=a#3 v=0
621540 On ch=1 n=a#2 v=0
621540 On ch=1 n=f2 v=65
621540 On ch=1 n=f3 v=65
621600 On ch=1 n=f3 v=0
621600 On ch=1 n=f2 v=0
621600 On ch=1 n=g2 v=65
621600 On ch=1 n=g3 v=65
622080 On ch=1 n=g3 v=0
622080 On ch=1 n=g2 v=0
622080 On ch=1 n=a2 v=59
622080 On ch=1 n=a3 v=59
622560 On ch=1 n=a3 v=0
622560 On ch=1 n=d2 v=53
622560 On ch=1 n=d3 v=53
623520 On ch=1 n=d3 v=0
623520 On ch=1 n=d2 v=0
623520 On ch=1 n=a2 v=0
623520 On ch=1 n=g2 v=53
623640 On ch=1 n=g2 v=0
624840 On ch=1 n=a#2 v=53
624900 On ch=1 n=a#2 v=0
624960 On ch=1 n=a2 v=53
625080 On ch=1 n=a2 v=0
626280 On ch=1 n=f#2 v=53
626340 On ch=1 n=f#2 v=0
626400 On ch=1 n=g2 v=53
626520 On ch=1 n=g2 v=0
627720 On ch=1 n=a#2 v=53
627780 On ch=1 n=a#2 v=0
627840 On ch=1 n=c3 v=53
627960 On ch=1 n=c3 v=0
628200 On ch=1 n=d3 v=53
628320 On ch=1 n=d3 v=0
628320 On ch=1 n=d#3 v=53
628440 On ch=1 n=d#3 v=0
628800 On ch=1 n=d#4 v=53
628920 On ch=1 n=d#4 v=0
629280 On ch=1 n=d3 v=53
629280 On ch=1 n=d4 v=53
629400 On ch=1 n=d4 v=0
629400 On ch=1 n=d3 v=0
630240 On ch=1 n=f#2 v=53
630720 On ch=1 n=f#2 v=0
630720 On ch=1 n=g2 v=53
630960 On ch=1 n=g2 v=0
631200 On ch=1 n=g4 v=61
632040 On ch=1 n=g4 v=0
632040 On ch=1 n=f4 v=53
632160 On ch=1 n=f4 v=0
632160 On ch=1 n=d#4 v=53
632280 On ch=1 n=d#4 v=0
632520 On ch=1 n=d4 v=53
632640 On ch=1 n=d4 v=0
632640 On ch=1 n=c4 v=53
632760 On ch=1 n=c4 v=0
633000 On ch=1 n=a#3 v=53
633120 On ch=1 n=a#3 v=0
633120 On ch=1 n=a2 v=53
633600 On ch=1 n=a2 v=0
633600 On ch=1 n=a#2 v=61
633840 On ch=1 n=a#2 v=0
634080 On ch=1 n=a#4 v=69
634920 On ch=1 n=a#4 v=0
634920 On ch=1 n=a4 v=77
635040 On ch=1 n=a4 v=0
635040 On ch=1 n=g4 v=85
635160 On ch=1 n=g4 v=0
635400 On ch=1 n=f4 v=93
635520 On ch=1 n=f4 v=0
635520 On ch=1 n=e4 v=102
635640 On ch=1 n=e4 v=0
635880 On ch=1 n=d4 v=102
636000 On ch=1 n=d4 v=0
636000 On ch=1 n=c#3 v=102
636480 On ch=1 n=c#3 v=0
636480 On ch=1 n=d3 v=102
636720 On ch=1 n=d3 v=0
636960 On ch=1 n=d5 v=117
637800 On ch=1 n=d5 v=0
637800 On ch=1 n=c5 v=102
637920 On ch=1 n=c5 v=0
637920 On ch=1 n=a#4 v=99
638040 On ch=1 n=a#4 v=0
638280 On ch=1 n=a4 v=96
638400 On ch=1 n=a4 v=0
638400 On ch=1 n=g4 v=94
638520 On ch=1 n=g4 v=0
638760 On ch=1 n=f4 v=91
638880 On ch=1 n=f4 v=0
638880 On ch=1 n=e4 v=88
639000 On ch=1 n=e4 v=0
639240 On ch=1 n=d#4 v=86
639360 On ch=1 n=d#4 v=0
639360 On ch=1 n=d4 v=83
639480 On ch=1 n=d4 v=0
639840 On ch=1 n=d4 v=80
640680 On ch=1 n=d4 v=0
640680 On ch=1 n=c4 v=78
640800 On ch=1 n=c4 v=0
640800 On ch=1 n=a#3 v=75
640920 On ch=1 n=a#3 v=0
641160 On ch=1 n=a3 v=72
641280 On ch=1 n=a3 v=0
641280 On ch=1 n=g3 v=70
641400 On ch=1 n=g3 v=0
641640 On ch=1 n=f3 v=67
641760 On ch=1 n=f3 v=0
641760 On ch=1 n=e3 v=64
641880 On ch=1 n=e3 v=0
642120 On ch=1 n=d#3 v=62
642240 On ch=1 n=d#3 v=0
642240 On ch=1 n=d3 v=59
642360 On ch=1 n=d3 v=0
642600 On ch=1 n=c3 v=56
642720 On ch=1 n=c3 v=0
642720 On ch=1 n=a#2 v=53
642840 On ch=1 n=a#2 v=0
643080 On ch=1 n=a2 v=53
643200 On ch=1 n=a2 v=0
643200 On ch=1 n=g2 v=53
643320 On ch=1 n=g2 v=0
643560 On ch=1 n=a#2 v=53
643620 On ch=1 n=a#2 v=0
643680 On ch=1 n=a2 v=53
643800 On ch=1 n=a2 v=0
645000 On ch=1 n=f#2 v=53
645060 On ch=1 n=f#2 v=0
645120 On ch=1 n=g2 v=53
645240 On ch=1 n=g2 v=0
646440 On ch=1 n=a#2 v=53
646500 On ch=1 n=a#2 v=0
646560 On ch=1 n=c3 v=53
646680 On ch=1 n=c3 v=0
646920 On ch=1 n=d3 v=53
647040 On ch=1 n=d3 v=0
647040 On ch=1 n=d#3 v=53
647160 On ch=1 n=d#3 v=0
647520 On ch=1 n=d#4 v=53
647640 On ch=1 n=d#4 v=0
648000 On ch=1 n=d3 v=53
648000 On ch=1 n=d4 v=53
648120 On ch=1 n=d4 v=0
648120 On ch=1 n=d3 v=0
648960 On ch=1 n=f#2 v=53
649440 On ch=1 n=f#2 v=0
649440 On ch=1 n=g2 v=53
649680 On ch=1 n=g2 v=0
649920 On ch=1 n=g4 v=61
650760 On ch=1 n=g4 v=0
650760 On ch=1 n=f4 v=53
650880 On ch=1 n=f4 v=0
650880 On ch=1 n=d#4 v=53
651000 On ch=1 n=d#4 v=0
651240 On ch=1 n=d4 v=53
651360 On ch=1 n=d4 v=0
651360 On ch=1 n=c4 v=53
651480 On ch=1 n=c4 v=0
651720 On ch=1 n=a#3 v=53
651840 On ch=1 n=a#3 v=0
651840 On ch=1 n=a2 v=53
652320 On ch=1 n=a2 v=0
652320 On ch=1 n=a#2 v=61
652560 On ch=1 n=a#2 v=0
652800 On ch=1 n=a#4 v=69
653640 On ch=1 n=a#4 v=0
653640 On ch=1 n=a4 v=77
653760 On ch=1 n=a4 v=0
653760 On ch=1 n=g4 v=85
653880 On ch=1 n=g4 v=0
654120 On ch=1 n=f4 v=93
654240 On ch=1 n=f4 v=0
654240 On ch=1 n=e4 v=102
654360 On ch=1 n=e4 v=0
654600 On ch=1 n=d4 v=102
654720 On ch=1 n=d4 v=0
654720 On ch=1 n=c#3 v=102
655200 On ch=1 n=c#3 v=0
655200 On ch=1 n=d3 v=102
655440 On ch=1 n=d3 v=0
655680 On ch=1 n=d5 v=117
656520 On ch=1 n=d5 v=0
656520 On ch=1 n=c5 v=102
656640 On ch=1 n=c5 v=0
656640 On ch=1 n=a#4 v=99
656760 On ch=1 n=a#4 v=0
657000 On ch=1 n=a4 v=96
657120 On ch=1 n=a4 v=0
657120 On ch=1 n=g4 v=94
657240 On ch=1 n=g4 v=0
657480 On ch=1 n=f4 v=91
657600 On ch=1 n=f4 v=0
657600 On ch=1 n=e4 v=88
657720 On ch=1 n=e4 v=0
657960 On ch=1 n=d#4 v=86
658080 On ch=1 n=d#4 v=0
658080 On ch=1 n=d4 v=83
658200 On ch=1 n=d4 v=0
658560 On ch=1 n=d4 v=80
659400 On ch=1 n=d4 v=0
659400 On ch=1 n=c4 v=78
659520 On ch=1 n=c4 v=0
659520 On ch=1 n=a#3 v=75
659640 On ch=1 n=a#3 v=0
659880 On ch=1 n=a3 v=72
660000 On ch=1 n=a3 v=0
660000 On ch=1 n=g3 v=70
660120 On ch=1 n=g3 v=0
660360 On ch=1 n=f3 v=67
660480 On ch=1 n=f3 v=0
660480 On ch=1 n=e3 v=64
660600 On ch=1 n=e3 v=0
660840 On ch=1 n=d#3 v=62
660960 On ch=1 n=d#3 v=0
660960 On ch=1 n=d3 v=59
661200 On ch=1 n=d3 v=0
661920 On ch=1 n=d3 v=90
661920 On ch=1 n=a#3 v=90
662400 On ch=1 n=d3 v=0
662400 On ch=1 n=d#3 v=90
662880 On ch=1 n=d#3 v=0
662880 On ch=1 n=a#3 v=0
663360 On ch=1 n=d3 v=90
663360 On ch=1 n=a#3 v=90
663840 On ch=1 n=d3 v=0
663840 On ch=1 n=d#3 v=90
664320 On ch=1 n=d#3 v=0
664320 On ch=1 n=a#3 v=0
664740 On ch=1 n=c3 v=98
664800 On ch=1 n=d#4 v=98
665760 On ch=1 n=c3 v=0
665760 On ch=1 n=c4 v=98
666240 On ch=1 n=c4 v=0
666240 On ch=1 n=d#4 v=0
666240 On ch=1 n=f4 v=92
666240 On ch=1 n=f3 v=92
666600 On ch=1 n=f4 v=0
666600 On ch=1 n=d#4 v=90
666720 On ch=1 n=d#4 v=0
666720 On ch=1 n=f3 v=0
666720 On ch=1 n=a#3 v=90
666720 On ch=1 n=d4 v=90
666900 On ch=1 n=d4 v=0
666900 On ch=1 n=a#3 v=0
667600 On ch=1 n=f3 v=90
667640 On ch=1 n=c#4 v=90
667680 On ch=1 n=a4 v=90
668160 On ch=1 n=a4 v=0
668160 On ch=1 n=c#4 v=0
668160 On ch=1 n=f3 v=0
668160 On ch=1 n=a#4 v=90
668160 On ch=1 n=d4 v=90
668640 On ch=1 n=d4 v=0
668640 On ch=1 n=a#4 v=0
669040 On ch=1 n=f3 v=90
669080 On ch=1 n=c#4 v=90
669120 On ch=1 n=a4 v=90
669600 On ch=1 n=a4 v=0
669600 On ch=1 n=c#4 v=0
669600 On ch=1 n=f3 v=0
669600 On ch=1 n=d4 v=90
669600 On ch=1 n=a#4 v=90
670080 On ch=1 n=a#4 v=0
670080 On ch=1 n=d4 v=0
670440 On ch=1 n=a#3 v=98
670500 On ch=1 n=f4 v=98
670560 On ch=1 n=d5 v=98
671040 On ch=1 n=a#3 v=0
671520 On ch=1 n=f4 v=0
671520 On ch=1 n=g4 v=98
672000 On ch=1 n=g4 v=0
672000 On ch=1 n=d5 v=0
672000 On ch=1 n=c4 v=92
672000 On ch=1 n=c5 v=92
672360 On ch=1 n=c5 v=0
672360 On ch=1 n=a#4 v=90
672480 On ch=1 n=a#4 v=0
672480 On ch=1 n=c4 v=0
672480 On ch=1 n=f4 v=90
672480 On ch=1 n=a4 v=90
672660 On ch=1 n=a4 v=0
672660 On ch=1 n=f4 v=0
673360 On ch=1 n=d4 v=65
673400 On ch=1 n=a#4 v=65
673440 On ch=1 n=f5 v=65
673840 On ch=1 n=d#4 v=69
673864 On ch=1 n=f#4 v=69
673892 On ch=1 n=a#4 v=69
673920 On ch=1 n=f5 v=0
673920 On ch=1 n=a#4 v=0
673920 On ch=1 n=d4 v=0
673920 On ch=1 n=f#5 v=69
674400 On ch=1 n=f#5 v=0
674400 On ch=1 n=a#4 v=0
674400 On ch=1 n=f#4 v=0
674400 On ch=1 n=d#4 v=0
674800 On ch=1 n=d4 v=65
674840 On ch=1 n=a#4 v=65
674880 On ch=1 n=f5 v=65
675280 On ch=1 n=d#4 v=69
675304 On ch=1 n=f#4 v=69
675332 On ch=1 n=a#4 v=69
675360 On ch=1 n=f5 v=0
675360 On ch=1 n=a#4 v=0
675360 On ch=1 n=d4 v=0
675360 On ch=1 n=f#5 v=69
675840 On ch=1 n=f#5 v=0
675840 On ch=1 n=a#4 v=0
675840 On ch=1 n=f#4 v=0
675840 On ch=1 n=d#4 v=0
676200 On ch=1 n=f#4 v=71
676260 On ch=1 n=c#5 v=71
676320 On ch=1 n=a#5 v=71
676800 On ch=1 n=f#4 v=0
677280 On ch=1 n=c#5 v=0
677280 On ch=1 n=d#5 v=71
677760 On ch=1 n=d#5 v=0
677760 On ch=1 n=a#5 v=0
677760 On ch=1 n=f#5 v=66
677760 On ch=1 n=g#4 v=66
678240 On ch=1 n=g#4 v=0
678240 On ch=1 n=f#5 v=0
678240 On ch=1 n=f5 v=65
678240 On ch=1 n=c#5 v=65
678420 On ch=1 n=c#5 v=0
678420 On ch=1 n=f5 v=0
679120 On ch=1 n=g#3 v=65
679160 On ch=1 n=d#4 v=65
679200 On ch=1 n=c5 v=65
679680 On ch=1 n=c5 v=0
679680 On ch=1 n=d#4 v=0
679680 On ch=1 n=g#3 v=0
679680 On ch=1 n=c#5 v=65
679680 On ch=1 n=f4 v=65
680160 On ch=1 n=f4 v=0
680160 On ch=1 n=c#5 v=0
680560 On ch=1 n=g#3 v=65
680600 On ch=1 n=d#4 v=65
680640 On ch=1 n=c5 v=65
681120 On ch=1 n=c5 v=0
681120 On ch=1 n=d#4 v=0
681120 On ch=1 n=g#3 v=0
681120 On ch=1 n=f4 v=65
681120 On ch=1 n=c#5 v=65
681600 On ch=1 n=c#5 v=0
681600 On ch=1 n=f4 v=0
681960 On ch=1 n=c#4 v=71
682020 On ch=1 n=g#4 v=71
682080 On ch=1 n=f5 v=71
682560 On ch=1 n=c#4 v=0
683040 On ch=1 n=g#4 v=0
683040 On ch=1 n=a#4 v=71
683520 On ch=1 n=a#4 v=0
683520 On ch=1 n=f5 v=0
683520 On ch=1 n=c#5 v=66
683520 On ch=1 n=d#4 v=66
684000 On ch=1 n=d#4 v=0
684000 On ch=1 n=c#5 v=0
684000 On ch=1 n=g#4 v=65
684000 On ch=1 n=c5 v=65
684180 On ch=1 n=c5 v=0
684180 On ch=1 n=g#4 v=0
684480 On ch=1 n=f#4 v=73
684960 On ch=1 n=g#3 v=73
685320 On ch=1 n=f#4 v=0
685320 On ch=1 n=d4 v=65
685440 On ch=1 n=d4 v=0
685440 On ch=1 n=d#4 v=65
685800 On ch=1 n=d#4 v=0
685800 On ch=1 n=f4 v=65
685920 On ch=1 n=f4 v=0
685920 On ch=1 n=g#3 v=0
685920 On ch=1 n=f#4 v=65
686400 On ch=1 n=g#3 v=65
686880 On ch=1 n=f#4 v=0
687360 On ch=1 n=g#3 v=0
687360 On ch=1 n=d#4 v=73
687840 On ch=1 n=g#3 v=65
688200 On ch=1 n=d#4 v=0
688200 On ch=1 n=b3 v=65
688320 On ch=1 n=b3 v=0
688320 On ch=1 n=c4 v=65
688680 On ch=1 n=c4 v=0
688680 On ch=1 n=c#4 v=65
688800 On ch=1 n=c#4 v=0
688800 On ch=1 n=g#3 v=0
688800 On ch=1 n=d#4 v=65
689280 On ch=1 n=g#3 v=65
690720 On ch=1 n=g#3 v=0
690720 On ch=1 n=d#4 v=0
690720 On ch=1 n=a3 v=65
692160 On ch=1 n=a3 v=0
692160 On ch=1 n=b3 v=65
693600 On ch=1 n=b3 v=0
693600 On ch=1 n=c4 v=73
694800 On ch=1 n=c4 v=0
694800 On ch=1 n=d4 v=81
695040 On ch=1 n=d4 v=0
695040 On ch=1 n=e4 v=84
695280 On ch=1 n=e4 v=0
695280 On ch=1 n=f#4 v=87
695760 On ch=1 n=f#4 v=0
696000 On ch=1 n=g2 v=61
696840 On ch=1 n=g2 v=0
696840 On ch=1 n=a#2 v=53
696900 On ch=1 n=a#2 v=0
696960 On ch=1 n=a2 v=53
697080 On ch=1 n=a2 v=0
698280 On ch=1 n=f#2 v=53
698340 On ch=1 n=f#2 v=0
698400 On ch=1 n=g2 v=53
698520 On ch=1 n=g2 v=0
699720 On ch=1 n=a#2 v=53
699780 On ch=1 n=a#2 v=0
699840 On ch=1 n=c3 v=53
699960 On ch=1 n=c3 v=0
700200 On ch=1 n=d3 v=53
700320 On ch=1 n=d3 v=0
700320 On ch=1 n=d#3 v=53
700440 On ch=1 n=d#3 v=0
700800 On ch=1 n=d#4 v=53
700920 On ch=1 n=d#4 v=0
701280 On ch=1 n=d3 v=53
701280 On ch=1 n=d4 v=53
701400 On ch=1 n=d4 v=0
701400 On ch=1 n=d3 v=0
702240 On ch=1 n=f#2 v=53
702720 On ch=1 n=f#2 v=0
702720 On ch=1 n=g2 v=53
702960 On ch=1 n=g2 v=0
703200 On ch=1 n=g4 v=61
704040 On ch=1 n=g4 v=0
704040 On ch=1 n=f4 v=53
704160 On ch=1 n=f4 v=0
704160 On ch=1 n=d#4 v=53
704280 On ch=1 n=d#4 v=0
704520 On ch=1 n=d4 v=53
704640 On ch=1 n=d4 v=0
704640 On ch=1 n=c4 v=53
704760 On ch=1 n=c4 v=0
705000 On ch=1 n=a#3 v=53
705120 On ch=1 n=a#3 v=0
705120 On ch=1 n=a2 v=53
705600 On ch=1 n=a2 v=0
705600 On ch=1 n=a#2 v=61
705840 On ch=1 n=a#2 v=0
706080 On ch=1 n=a#4 v=69
706920 On ch=1 n=a#4 v=0
706920 On ch=1 n=a4 v=77
707040 On ch=1 n=a4 v=0
707040 On ch=1 n=g4 v=85
707160 On ch=1 n=g4 v=0
707400 On ch=1 n=f4 v=93
707520 On ch=1 n=f4 v=0
707520 On ch=1 n=e4 v=102
707640 On ch=1 n=e4 v=0
707880 On ch=1 n=d4 v=102
708000 On ch=1 n=d4 v=0
708000 On ch=1 n=c#3 v=102
708480 On ch=1 n=c#3 v=0
708480 On ch=1 n=d3 v=102
708720 On ch=1 n=d3 v=0
708960 On ch=1 n=d5 v=117
709800 On ch=1 n=d5 v=0
709800 On ch=1 n=c5 v=102
709920 On ch=1 n=c5 v=0
709920 On ch=1 n=a#4 v=99
710040 On ch=1 n=a#4 v=0
710280 On ch=1 n=a4 v=96
710400 On ch=1 n=a4 v=0
710400 On ch=1 n=g4 v=94
710520 On ch=1 n=g4 v=0
710760 On ch=1 n=f4 v=91
710880 On ch=1 n=f4 v=0
710880 On ch=1 n=e4 v=88
711000 On ch=1 n=e4 v=0
711240 On ch=1 n=d#4 v=86
711360 On ch=1 n=d#4 v=0
711360 On ch=1 n=d4 v=83
711480 On ch=1 n=d4 v=0
711840 On ch=1 n=g4 v=80
712680 On ch=1 n=g4 v=0
712680 On ch=1 n=f4 v=78
712800 On ch=1 n=f4 v=0
712800 On ch=1 n=d#4 v=75
713040 On ch=1 n=d#4 v=0
713160 On ch=1 n=d4 v=72
713280 On ch=1 n=c4 v=70
713520 On ch=1 n=c4 v=0
713640 On ch=1 n=a#3 v=67
713760 On ch=1 n=a#3 v=0
713760 On ch=1 n=a3 v=64
714120 On ch=1 n=a3 v=0
714120 On ch=1 n=g#3 v=62
714240 On ch=1 n=g#3 v=0
714240 On ch=1 n=g3 v=59
714720 On ch=1 n=g3 v=0
714720 On ch=1 n=d4 v=0
714720 On ch=1 n=c4 v=65
714720 On ch=1 n=g4 v=65
715200 On ch=1 n=g4 v=0
715200 On ch=1 n=c4 v=0
715200 On ch=1 n=c4 v=71
715200 On ch=1 n=a4 v=71
715560 On ch=1 n=a4 v=0
715560 On ch=1 n=c4 v=0
715560 On ch=1 n=g3 v=90
715680 On ch=1 n=g3 v=0
715680 On ch=1 n=a#4 v=78
715860 On ch=1 n=a#4 v=0
715920 On ch=1 n=c5 v=78
716160 On ch=1 n=c5 v=0
716160 On ch=1 n=a4 v=78
716400 On ch=1 n=a4 v=0
716400 On ch=1 n=a#4 v=78
716640 On ch=1 n=a#4 v=0
716640 On ch=1 n=g4 v=78
716880 On ch=1 n=g4 v=0
716880 On ch=1 n=d5 v=78
717120 On ch=1 n=d5 v=0
717120 On ch=1 n=d5 v=78
717600 On ch=1 n=d5 v=0
717600 On ch=1 n=c4 v=65
717600 On ch=1 n=g4 v=65
718080 On ch=1 n=g4 v=0
718080 On ch=1 n=c4 v=0
718080 On ch=1 n=c4 v=71
718080 On ch=1 n=a4 v=71
718440 On ch=1 n=a4 v=0
718440 On ch=1 n=c4 v=0
718440 On ch=1 n=g3 v=90
718560 On ch=1 n=g3 v=0
718560 On ch=1 n=a#4 v=78
718740 On ch=1 n=a#4 v=0
718800 On ch=1 n=c5 v=78
719040 On ch=1 n=c5 v=0
719040 On ch=1 n=a4 v=78
719280 On ch=1 n=a4 v=0
719280 On ch=1 n=a#4 v=78
719520 On ch=1 n=a#4 v=0
719520 On ch=1 n=g4 v=78
719760 On ch=1 n=g4 v=0
719760 On ch=1 n=d#5 v=78
720000 On ch=1 n=d#5 v=0
720000 On ch=1 n=d#5 v=78
720480 On ch=1 n=d#5 v=0
720480 On ch=1 n=c4 v=65
720480 On ch=1 n=g4 v=65
720840 On ch=1 n=g4 v=0
720840 On ch=1 n=c4 v=0
720960 On ch=1 n=f4 v=73
720960 On ch=1 n=f3 v=73
721440 On ch=1 n=f3 v=0
721440 On ch=1 n=a#3 v=65
721560 On ch=1 n=f4 v=0
721620 On ch=1 n=a#3 v=0
721680 On ch=1 n=a#4 v=65
721920 On ch=1 n=a#4 v=0
721920 On ch=1 n=g4 v=65
722160 On ch=1 n=g4 v=0
722160 On ch=1 n=a4 v=65
722400 On ch=1 n=a4 v=0
722400 On ch=1 n=f4 v=65
722640 On ch=1 n=f4 v=0
722640 On ch=1 n=d5 v=65
722880 On ch=1 n=d5 v=0
722880 On ch=1 n=d5 v=65
723360 On ch=1 n=d5 v=0
723360 On ch=1 n=a#3 v=65
723360 On ch=1 n=f4 v=65
723720 On ch=1 n=f4 v=0
723720 On ch=1 n=a#3 v=0
723840 On ch=1 n=d#4 v=73
723840 On ch=1 n=d#3 v=73
724320 On ch=1 n=d#3 v=0
724320 On ch=1 n=a3 v=65
724440 On ch=1 n=d#4 v=0
724500 On ch=1 n=a3 v=0
724560 On ch=1 n=a4 v=65
724800 On ch=1 n=a4 v=0
724800 On ch=1 n=f4 v=65
725040 On ch=1 n=f4 v=0
725040 On ch=1 n=g4 v=62
725280 On ch=1 n=g4 v=0
725280 On ch=1 n=d#4 v=62
725520 On ch=1 n=d#4 v=0
725520 On ch=1 n=c5 v=62
725760 On ch=1 n=c5 v=0
725760 On ch=1 n=c5 v=59
726240 On ch=1 n=c5 v=0
726240 On ch=1 n=c4 v=59
726240 On ch=1 n=c3 v=59
726600 On ch=1 n=c3 v=0
726600 On ch=1 n=c4 v=0
726720 On ch=1 n=d4 v=59
726720 On ch=1 n=d3 v=59
727200 On ch=1 n=d3 v=0
727200 On ch=1 n=g3 v=56
727320 On ch=1 n=d4 v=0
727380 On ch=1 n=g3 v=0
727440 On ch=1 n=d#4 v=56
727680 On ch=1 n=d#4 v=0
727680 On ch=1 n=c4 v=56
727920 On ch=1 n=c4 v=0
727920 On ch=1 n=d4 v=56
728160 On ch=1 n=d4 v=0
728160 On ch=1 n=a#3 v=56
728400 On ch=1 n=a#3 v=0
728400 On ch=1 n=g4 v=56
728640 On ch=1 n=g4 v=0
728640 On ch=1 n=g4 v=53
729120 On ch=1 n=g4 v=0
729120 On ch=1 n=c4 v=53
729120 On ch=1 n=c3 v=53
729480 On ch=1 n=c3 v=0
729480 On ch=1 n=c4 v=0
729600 On ch=1 n=d4 v=53
729600 On ch=1 n=d3 v=53
730080 On ch=1 n=d3 v=0
730080 On ch=1 n=g3 v=53
730200 On ch=1 n=d4 v=0
730260 On ch=1 n=g3 v=0
730320 On ch=1 n=d4 v=60
730560 On ch=1 n=d4 v=0
730560 On ch=1 n=e4 v=67
730800 On ch=1 n=e4 v=0
730800 On ch=1 n=f#4 v=74
731040 On ch=1 n=f#4 v=0
731040 On ch=1 n=g4 v=81
731280 On ch=1 n=g4 v=0
731280 On ch=1 n=a4 v=88
731520 On ch=1 n=a4 v=0
731520 On ch=1 n=a#4 v=95
732000 On ch=1 n=a#4 v=0
732000 On ch=1 n=d5 v=102
732000 On ch=1 n=a#4 v=102
732000 On ch=1 n=g4 v=102
732480 On ch=1 n=g4 v=0
732480 On ch=1 n=a#4 v=0
732480 On ch=1 n=d5 v=0
732480 On ch=1 n=e5 v=102
732480 On ch=1 n=c#5 v=102
732480 On ch=1 n=a#4 v=102
732480 On ch=1 n=g4 v=102
732880 On ch=1 n=d4 v=102
732920 On ch=1 n=a4 v=102
732960 On ch=1 n=g4 v=0
732960 On ch=1 n=a#4 v=0
732960 On ch=1 n=c#5 v=0
732960 On ch=1 n=e5 v=0
732960 On ch=1 n=f5 v=102
733140 On ch=1 n=f5 v=0
733140 On ch=1 n=a4 v=0
733140 On ch=1 n=d4 v=0
734880 On ch=1 n=d5 v=102
734880 On ch=1 n=a#4 v=102
734880 On ch=1 n=g4 v=102
735360 On ch=1 n=g4 v=0
735360 On ch=1 n=a#4 v=0
735360 On ch=1 n=d5 v=0
735360 On ch=1 n=e5 v=102
735360 On ch=1 n=c#5 v=102
735360 On ch=1 n=a#4 v=102
735360 On ch=1 n=g4 v=102
735760 On ch=1 n=d4 v=102
735800 On ch=1 n=a4 v=102
735840 On ch=1 n=g4 v=0
735840 On ch=1 n=a#4 v=0
735840 On ch=1 n=c#5 v=0
735840 On ch=1 n=e5 v=0
735840 On ch=1 n=f5 v=102
736020 On ch=1 n=f5 v=0
736020 On ch=1 n=a4 v=0
736020 On ch=1 n=d4 v=0
737760 On ch=1 n=d5 v=98
737760 On ch=1 n=d4 v=98
737760 On ch=1 n=a#4 v=98
738240 On ch=1 n=a#4 v=0
738240 On ch=1 n=d4 v=0
738240 On ch=1 n=d5 v=0
738240 On ch=1 n=d4 v=94
738240 On ch=1 n=a#4 v=94
738240 On ch=1 n=d5 v=94
738720 On ch=1 n=d5 v=0
738720 On ch=1 n=a#4 v=0
738720 On ch=1 n=d4 v=0
738720 On ch=1 n=d#4 v=90
738720 On ch=1 n=a#4 v=90
738720 On ch=1 n=c5 v=90
738900 On ch=1 n=c5 v=0
738900 On ch=1 n=a#4 v=0
738900 On ch=1 n=d#4 v=0
738960 On ch=1 n=g5 v=102
739440 On ch=1 n=g5 v=0
739440 On ch=1 n=d#5 v=99
739680 On ch=1 n=d#5 v=0
739680 On ch=1 n=c5 v=96
739920 On ch=1 n=c5 v=0
739920 On ch=1 n=a#4 v=93
740160 On ch=1 n=a#4 v=0
740160 On ch=1 n=f4 v=90
740160 On ch=1 n=a4 v=90
740340 On ch=1 n=a4 v=0
740340 On ch=1 n=f4 v=0
740400 On ch=1 n=d#5 v=102
740880 On ch=1 n=d#5 v=0
740880 On ch=1 n=c5 v=99
741120 On ch=1 n=c5 v=0
741120 On ch=1 n=a4 v=96
741360 On ch=1 n=a4 v=0
741360 On ch=1 n=g4 v=93
741600 On ch=1 n=g4 v=0
741600 On ch=1 n=f#4 v=90
741600 On ch=1 n=a4 v=90
741720 On ch=1 n=a4 v=0
741720 On ch=1 n=f#4 v=0
741720 On ch=1 n=d5 v=90
741900 On ch=1 n=d5 v=0
742080 On ch=1 n=c4 v=65
742080 On ch=1 n=g4 v=65
742560 On ch=1 n=g4 v=0
742560 On ch=1 n=c4 v=0
742560 On ch=1 n=c4 v=71
742560 On ch=1 n=a4 v=71
742920 On ch=1 n=a4 v=0
742920 On ch=1 n=c4 v=0
742920 On ch=1 n=g3 v=90
743040 On ch=1 n=g3 v=0
743040 On ch=1 n=a#4 v=78
743220 On ch=1 n=a#4 v=0
743280 On ch=1 n=c5 v=78
743520 On ch=1 n=c5 v=0
743520 On ch=1 n=a4 v=78
743760 On ch=1 n=a4 v=0
743760 On ch=1 n=a#4 v=78
744000 On ch=1 n=a#4 v=0
744000 On ch=1 n=g4 v=78
744240 On ch=1 n=g4 v=0
744240 On ch=1 n=d5 v=78
744480 On ch=1 n=d5 v=0
744480 On ch=1 n=d5 v=78
744960 On ch=1 n=d5 v=0
744960 On ch=1 n=c4 v=65
744960 On ch=1 n=g4 v=65
745440 On ch=1 n=g4 v=0
745440 On ch=1 n=c4 v=0
745440 On ch=1 n=c4 v=71
745440 On ch=1 n=a4 v=71
745800 On ch=1 n=a4 v=0
745800 On ch=1 n=c4 v=0
745800 On ch=1 n=g3 v=90
745920 On ch=1 n=g3 v=0
745920 On ch=1 n=a#4 v=78
746100 On ch=1 n=a#4 v=0
746160 On ch=1 n=c5 v=78
746400 On ch=1 n=c5 v=0
746400 On ch=1 n=a4 v=78
746640 On ch=1 n=a4 v=0
746640 On ch=1 n=a#4 v=78
746880 On ch=1 n=a#4 v=0
746880 On ch=1 n=g4 v=78
747120 On ch=1 n=g4 v=0
747120 On ch=1 n=d#5 v=78
747360 On ch=1 n=d#5 v=0
747360 On ch=1 n=d#5 v=78
747840 On ch=1 n=d#5 v=0
747840 On ch=1 n=c4 v=65
747840 On ch=1 n=g4 v=65
748200 On ch=1 n=g4 v=0
748200 On ch=1 n=c4 v=0
748320 On ch=1 n=f4 v=73
748320 On ch=1 n=f3 v=73
748800 On ch=1 n=f3 v=0
748800 On ch=1 n=a#3 v=65
748920 On ch=1 n=f4 v=0
748980 On ch=1 n=a#3 v=0
749040 On ch=1 n=a#4 v=65
749280 On ch=1 n=a#4 v=0
749280 On ch=1 n=g4 v=65
749520 On ch=1 n=g4 v=0
749520 On ch=1 n=a4 v=65
749760 On ch=1 n=a4 v=0
749760 On ch=1 n=f4 v=65
750000 On ch=1 n=f4 v=0
750000 On ch=1 n=d5 v=65
750240 On ch=1 n=d5 v=0
750240 On ch=1 n=d5 v=65
750720 On ch=1 n=d5 v=0
750720 On ch=1 n=a#3 v=65
750720 On ch=1 n=f4 v=65
751080 On ch=1 n=f4 v=0
751080 On ch=1 n=a#3 v=0
751200 On ch=1 n=d#4 v=73
751200 On ch=1 n=d#3 v=73
751680 On ch=1 n=d#3 v=0
751680 On ch=1 n=a3 v=65
751800 On ch=1 n=d#4 v=0
751860 On ch=1 n=a3 v=0
751920 On ch=1 n=a4 v=65
752160 On ch=1 n=a4 v=0
752160 On ch=1 n=f4 v=65
752400 On ch=1 n=f4 v=0
752400 On ch=1 n=g4 v=62
752640 On ch=1 n=g4 v=0
752640 On ch=1 n=d#4 v=62
752880 On ch=1 n=d#4 v=0
752880 On ch=1 n=c5 v=62
753120 On ch=1 n=c5 v=0
753120 On ch=1 n=c5 v=59
753600 On ch=1 n=c5 v=0
753600 On ch=1 n=c4 v=59
753600 On ch=1 n=c3 v=59
753960 On ch=1 n=c3 v=0
753960 On ch=1 n=c4 v=0
754080 On ch=1 n=d4 v=59
754080 On ch=1 n=d3 v=59
754560 On ch=1 n=d3 v=0
754560 On ch=1 n=g3 v=56
754680 On ch=1 n=d4 v=0
754740 On ch=1 n=g3 v=0
754800 On ch=1 n=d#4 v=56
755040 On ch=1 n=d#4 v=0
755040 On ch=1 n=c4 v=56
755280 On ch=1 n=c4 v=0
755280 On ch=1 n=d4 v=56
755520 On ch=1 n=d4 v=0
755520 On ch=1 n=a#3 v=56
755760 On ch=1 n=a#3 v=0
755760 On ch=1 n=g4 v=56
756000 On ch=1 n=g4 v=0
756000 On ch=1 n=g4 v=53
756480 On ch=1 n=g4 v=0
756480 On ch=1 n=c4 v=53
756480 On ch=1 n=c3 v=53
756840 On ch=1 n=c3 v=0
756840 On ch=1 n=c4 v=0
756960 On ch=1 n=d4 v=53
756960 On ch=1 n=d3 v=53
757440 On ch=1 n=d3 v=0
757440 On ch=1 n=g3 v=53
757920 On ch=1 n=g3 v=0
757920 On ch=1 n=d4 v=0
757920 On ch=1 n=a#2 v=101
757920 On ch=1 n=a#3 v=101
758280 On ch=1 n=a#3 v=0
758280 On ch=1 n=a#2 v=0
758400 On ch=1 n=a2 v=101
758400 On ch=1 n=a3 v=101
758760 On ch=1 n=a3 v=0
758760 On ch=1 n=a2 v=0
758880 On ch=1 n=g#2 v=101
758880 On ch=1 n=g#3 v=101
759060 On ch=1 n=g#3 v=0
759060 On ch=1 n=g#2 v=0
759120 On ch=1 n=a#4 v=101
759360 On ch=1 n=a#4 v=0
759360 On ch=1 n=f4 v=101
759600 On ch=1 n=f4 v=0
759600 On ch=1 n=g4 v=101
759840 On ch=1 n=g4 v=0
759840 On ch=1 n=a#3 v=101
760200 On ch=1 n=a#3 v=0
760200 On ch=1 n=a#4 v=101
760320 On ch=1 n=a#4 v=0
760320 On ch=1 n=a#4 v=101
760680 On ch=1 n=a#4 v=0
760800 On ch=1 n=g#2 v=103
760800 On ch=1 n=g#3 v=103
761160 On ch=1 n=g#3 v=0
761160 On ch=1 n=g#2 v=0
761280 On ch=1 n=g2 v=105
761280 On ch=1 n=g3 v=105
761640 On ch=1 n=g3 v=0
761640 On ch=1 n=g2 v=0
761760 On ch=1 n=f2 v=108
761760 On ch=1 n=f3 v=108
761940 On ch=1 n=f3 v=0
761940 On ch=1 n=f2 v=0
762000 On ch=1 n=f5 v=108
762240 On ch=1 n=f5 v=0
762240 On ch=1 n=c5 v=108
762480 On ch=1 n=c5 v=0
762480 On ch=1 n=d5 v=108
762720 On ch=1 n=d5 v=0
762720 On ch=1 n=g#4 v=108
763080 On ch=1 n=g#4 v=0
763080 On ch=1 n=g#5 v=108
763200 On ch=1 n=g#5 v=0
763200 On ch=1 n=g#5 v=108
763680 On ch=1 n=g#5 v=0
763680 On ch=1 n=f2 v=110
763680 On ch=1 n=f3 v=110
764040 On ch=1 n=f3 v=0
764040 On ch=1 n=f2 v=0
764160 On ch=1 n=d#2 v=112
764160 On ch=1 n=d#3 v=112
764520 On ch=1 n=d#3 v=0
764520 On ch=1 n=d#2 v=0
764640 On ch=1 n=d2 v=114
764640 On ch=1 n=d3 v=114
765000 On ch=1 n=d3 v=0
765000 On ch=1 n=d2 v=0
767520 On ch=1 n=d3 v=90
768480 On ch=1 n=a#3 v=98
769440 On ch=1 n=d3 v=0
769440 On ch=1 n=d#3 v=91
769920 On ch=1 n=d#3 v=0
769920 On ch=1 n=e3 v=91
770400 On ch=1 n=e3 v=0
770400 On ch=1 n=f3 v=91
771360 On ch=1 n=f3 v=0
771360 On ch=1 n=a#3 v=0
771360 On ch=1 n=a#3 v=99
771360 On ch=1 n=f#3 v=99
772320 On ch=1 n=f#3 v=0
772320 On ch=1 n=g3 v=92
772800 On ch=1 n=a#3 v=0
772800 On ch=1 n=d#4 v=100
773280 On ch=1 n=g3 v=0
773280 On ch=1 n=g#3 v=93
774240 On ch=1 n=d#4 v=0
774240 On ch=1 n=f4 v=101
775200 On ch=1 n=f4 v=0
775200 On ch=1 n=g#3 v=0
775200 On ch=1 n=a3 v=102
775200 On ch=1 n=f#4 v=102
776160 On ch=1 n=f#4 v=0
776160 On ch=1 n=a3 v=0
776160 On ch=1 n=a#3 v=95
776160 On ch=1 n=g4 v=95
777120 On ch=1 n=g4 v=0
777120 On ch=1 n=a#3 v=0
777120 On ch=1 n=g#4 v=95
777120 On ch=1 n=b3 v=95
778080 On ch=1 n=b3 v=0
778080 On ch=1 n=g#4 v=0
778080 On ch=1 n=g4 v=105
778080 On ch=1 n=c4 v=96
778560 On ch=1 n=g4 v=0
778560 On ch=1 n=a4 v=105
779040 On ch=1 n=c4 v=0
779040 On ch=1 n=d4 v=97
780000 On ch=1 n=a4 v=0
780000 On ch=1 n=a#4 v=106
780960 On ch=1 n=d4 v=0
780960 On ch=1 n=d#4 v=97
781440 On ch=1 n=d#4 v=0
781440 On ch=1 n=e4 v=97
781920 On ch=1 n=e4 v=0
781920 On ch=1 n=f4 v=98
782880 On ch=1 n=f4 v=0
782880 On ch=1 n=a#4 v=0
782880 On ch=1 n=a#4 v=107
782880 On ch=1 n=f#4 v=107
783840 On ch=1 n=f#4 v=0
783840 On ch=1 n=g4 v=99
784320 On ch=1 n=a#4 v=0
784320 On ch=1 n=d#5 v=108
784800 On ch=1 n=g4 v=0
784800 On ch=1 n=g#4 v=100
785760 On ch=1 n=d#5 v=0
785760 On ch=1 n=f5 v=109
786720 On ch=1 n=f5 v=0
786720 On ch=1 n=g#4 v=0
786720 On ch=1 n=a4 v=110
786720 On ch=1 n=f#5 v=110
787680 On ch=1 n=f#5 v=0
787680 On ch=1 n=a4 v=0
787680 On ch=1 n=a#4 v=108
787680 On ch=1 n=g5 v=108
788640 On ch=1 n=g5 v=0
788640 On ch=1 n=a#4 v=0
788640 On ch=1 n=b4 v=102
788640 On ch=1 n=d5 v=102
788640 On ch=1 n=f5 v=102
788640 On ch=1 n=g#5 v=102
789600 On ch=1 n=g#5 v=0
789600 On ch=1 n=f5 v=0
789600 On ch=1 n=d5 v=0
789600 On ch=1 n=b4 v=0
789600 On ch=1 n=c5 v=96
789600 On ch=1 n=d#5 v=96
789600 On ch=1 n=f#5 v=96
789600 On ch=1 n=a5 v=96
790560 On ch=1 n=a5 v=0
790560 On ch=1 n=f#5 v=0
790560 On ch=1 n=d#5 v=0
790560 On ch=1 n=c5 v=0
790560 On ch=1 n=d5 v=90
790560 On ch=1 n=f5 v=90
790560 On ch=1 n=a#5 v=90
791520 On ch=1 n=a#5 v=0
791520 On ch=1 n=f5 v=0
791520 On ch=1 n=d5 v=0
791520 On ch=1 n=e5 v=84
791520 On ch=1 n=g5 v=84
791520 On ch=1 n=a#5 v=84
792480 On ch=1 n=a#5 v=0
792480 On ch=1 n=g5 v=0
792480 On ch=1 n=e5 v=0
792480 On ch=1 n=f5 v=78
792480 On ch=1 n=g#5 v=78
793440 On ch=1 n=g#5 v=0
793440 On ch=1 n=f5 v=0
793440 On ch=1 n=d5 v=65
793440 On ch=1 n=f5 v=65
793440 On ch=1 n=g#5 v=65
794400 On ch=1 n=g#5 v=0
794400 On ch=1 n=f5 v=0
794400 On ch=1 n=d5 v=0
794400 On ch=1 n=d#5 v=65
794400 On ch=1 n=f5 v=65
794400 On ch=1 n=g#5 v=65
795360 On ch=1 n=g#5 v=0
795360 On ch=1 n=f5 v=0
795360 On ch=1 n=d#5 v=0
795360 On ch=1 n=d5 v=65
795360 On ch=1 n=f5 v=65
795360 On ch=1 n=g#5 v=65
796320 On ch=1 n=g#5 v=0
796320 On ch=1 n=f5 v=0
796320 On ch=1 n=d5 v=0
796320 On ch=1 n=c5 v=65
796320 On ch=1 n=f5 v=65
796320 On ch=1 n=g#5 v=65
797280 On ch=1 n=g#5 v=0
797280 On ch=1 n=f5 v=0
797280 On ch=1 n=c5 v=0
797280 On ch=1 n=b4 v=65
797280 On ch=1 n=f5 v=65
797280 On ch=1 n=g#5 v=65
798240 On ch=1 n=g#5 v=0
798240 On ch=1 n=f5 v=0
798240 On ch=1 n=b4 v=0
798240 On ch=1 n=c5 v=65
798240 On ch=1 n=f5 v=65
798240 On ch=1 n=g#5 v=65
799200 On ch=1 n=g#5 v=0
799200 On ch=1 n=f5 v=0
799200 On ch=1 n=c5 v=0
799200 On ch=1 n=b4 v=65
799200 On ch=1 n=f5 v=65
799200 On ch=1 n=g#5 v=65
800880 On ch=1 n=g#5 v=0
800880 On ch=1 n=f5 v=0
800880 On ch=1 n=b4 v=0
800880 On ch=1 n=a#5 v=58
801360 On ch=1 n=a#5 v=0
801360 On ch=1 n=g#5 v=56
801600 On ch=1 n=g#5 v=0
801600 On ch=1 n=f5 v=55
801840 On ch=1 n=f5 v=0
801840 On ch=1 n=d5 v=54
802080 On ch=1 n=d5 v=0
802080 On ch=1 n=b4 v=53
802560 On ch=1 n=b4 v=0
802560 On ch=1 n=c4 v=53
802560 On ch=1 n=g4 v=53
803040 On ch=1 n=g4 v=0
803040 On ch=1 n=c4 v=0
803040 On ch=1 n=c4 v=58
803040 On ch=1 n=a4 v=58
803400 On ch=1 n=a4 v=0
803400 On ch=1 n=c4 v=0
803400 On ch=1 n=g3 v=74
803520 On ch=1 n=g3 v=0
803520 On ch=1 n=a#4 v=64
803700 On ch=1 n=a#4 v=0
803760 On ch=1 n=c5 v=64
804000 On ch=1 n=c5 v=0
804000 On ch=1 n=a4 v=64
804240 On ch=1 n=a4 v=0
804240 On ch=1 n=a#4 v=64
804480 On ch=1 n=a#4 v=0
804480 On ch=1 n=g4 v=64
804720 On ch=1 n=g4 v=0
804720 On ch=1 n=d5 v=64
804960 On ch=1 n=d5 v=0
804960 On ch=1 n=d5 v=64
805440 On ch=1 n=d5 v=0
805440 On ch=1 n=c4 v=53
805440 On ch=1 n=g4 v=53
805920 On ch=1 n=g4 v=0
805920 On ch=1 n=c4 v=0
805920 On ch=1 n=c4 v=58
805920 On ch=1 n=a4 v=58
806280 On ch=1 n=a4 v=0
806280 On ch=1 n=c4 v=0
806280 On ch=1 n=g3 v=74
806400 On ch=1 n=g3 v=0
806400 On ch=1 n=a#4 v=64
806580 On ch=1 n=a#4 v=0
806640 On ch=1 n=c5 v=64
806880 On ch=1 n=c5 v=0
806880 On ch=1 n=a4 v=64
807120 On ch=1 n=a4 v=0
807120 On ch=1 n=a#4 v=64
807360 On ch=1 n=a#4 v=0
807360 On ch=1 n=g4 v=64
807600 On ch=1 n=g4 v=0
807600 On ch=1 n=d#5 v=64
807840 On ch=1 n=d#5 v=0
807840 On ch=1 n=d#5 v=64
808320 On ch=1 n=d#5 v=0
808320 On ch=1 n=c4 v=53
808320 On ch=1 n=g4 v=53
808680 On ch=1 n=g4 v=0
808680 On ch=1 n=c4 v=0
808800 On ch=1 n=f4 v=60
808800 On ch=1 n=f3 v=60
809280 On ch=1 n=f3 v=0
809280 On ch=1 n=a#3 v=53
809400 On ch=1 n=f4 v=0
809460 On ch=1 n=a#3 v=0
809520 On ch=1 n=a#4 v=53
809760 On ch=1 n=a#4 v=0
809760 On ch=1 n=g4 v=53
810000 On ch=1 n=g4 v=0
810000 On ch=1 n=a4 v=53
810240 On ch=1 n=a4 v=0
810240 On ch=1 n=f4 v=53
810480 On ch=1 n=f4 v=0
810480 On ch=1 n=d5 v=53
810720 On ch=1 n=d5 v=0
810720 On ch=1 n=d5 v=53
811200 On ch=1 n=d5 v=0
811200 On ch=1 n=a#3 v=53
811200 On ch=1 n=f4 v=53
811560 On ch=1 n=f4 v=0
811560 On ch=1 n=a#3 v=0
811680 On ch=1 n=d#4 v=60
811680 On ch=1 n=d#3 v=60
812160 On ch=1 n=d#3 v=0
812160 On ch=1 n=a3 v=53
812280 On ch=1 n=d#4 v=0
812340 On ch=1 n=a3 v=0
812400 On ch=1 n=a4 v=53
812640 On ch=1 n=a4 v=0
812640 On ch=1 n=f4 v=53
812880 On ch=1 n=f4 v=0
812880 On ch=1 n=g4 v=51
813120 On ch=1 n=g4 v=0
813120 On ch=1 n=d#4 v=51
813360 On ch=1 n=d#4 v=0
813360 On ch=1 n=c5 v=51
813600 On ch=1 n=c5 v=0
813600 On ch=1 n=c5 v=48
814080 On ch=1 n=c5 v=0
814080 On ch=1 n=c4 v=48
814080 On ch=1 n=c3 v=48
814440 On ch=1 n=c3 v=0
814440 On ch=1 n=c4 v=0
814560 On ch=1 n=d4 v=48
814560 On ch=1 n=d3 v=48
815040 On ch=1 n=d3 v=0
815040 On ch=1 n=g3 v=46
815160 On ch=1 n=d4 v=0
815220 On ch=1 n=g3 v=0
815280 On ch=1 n=d#4 v=46
815520 On ch=1 n=d#4 v=0
815520 On ch=1 n=c4 v=46
815760 On ch=1 n=c4 v=0
815760 On ch=1 n=d4 v=46
816000 On ch=1 n=d4 v=0
816000 On ch=1 n=a#3 v=46
816240 On ch=1 n=a#3 v=0
816240 On ch=1 n=g4 v=46
816480 On ch=1 n=g4 v=0
816480 On ch=1 n=g4 v=43
816960 On ch=1 n=g4 v=0
816960 On ch=1 n=c4 v=43
816960 On ch=1 n=c3 v=43
817320 On ch=1 n=c3 v=0
817320 On ch=1 n=c4 v=0
817440 On ch=1 n=d4 v=43
817440 On ch=1 n=d3 v=43
817920 On ch=1 n=d3 v=0
817920 On ch=1 n=g3 v=43
818400 On ch=1 n=g3 v=0
818400 On ch=1 n=d4 v=0
818880 On ch=1 n=d3 v=90
818880 On ch=1 n=a#3 v=90
819360 On ch=1 n=d3 v=0
819360 On ch=1 n=d#3 v=90
819840 On ch=1 n=d#3 v=0
819840 On ch=1 n=a#3 v=0
820320 On ch=1 n=d3 v=90
820320 On ch=1 n=a#3 v=90
820800 On ch=1 n=d3 v=0
820800 On ch=1 n=d#3 v=90
821280 On ch=1 n=d#3 v=0
821280 On ch=1 n=a#3 v=0
821700 On ch=1 n=c3 v=98
821760 On ch=1 n=d#4 v=98
822720 On ch=1 n=c3 v=0
822720 On ch=1 n=c4 v=98
823200 On ch=1 n=c4 v=0
823200 On ch=1 n=d#4 v=0
823200 On ch=1 n=f4 v=92
823200 On ch=1 n=f3 v=92
823560 On ch=1 n=f4 v=0
823560 On ch=1 n=d#4 v=90
823680 On ch=1 n=d#4 v=0
823680 On ch=1 n=f3 v=0
823680 On ch=1 n=a#3 v=90
823680 On ch=1 n=d4 v=90
823860 On ch=1 n=d4 v=0
823860 On ch=1 n=a#3 v=0
824560 On ch=1 n=f3 v=90
824600 On ch=1 n=c#4 v=90
824640 On ch=1 n=a4 v=90
825120 On ch=1 n=a4 v=0
825120 On ch=1 n=c#4 v=0
825120 On ch=1 n=f3 v=0
825120 On ch=1 n=a#4 v=90
825120 On ch=1 n=d4 v=90
825600 On ch=1 n=d4 v=0
825600 On ch=1 n=a#4 v=0
826000 On ch=1 n=f3 v=90
826040 On ch=1 n=c#4 v=90
826080 On ch=1 n=a4 v=90
826560 On ch=1 n=a4 v=0
826560 On ch=1 n=c#4 v=0
826560 On ch=1 n=f3 v=0
826560 On ch=1 n=d4 v=90
826560 On ch=1 n=a#4 v=90
827040 On ch=1 n=a#4 v=0
827040 On ch=1 n=d4 v=0
827400 On ch=1 n=a#3 v=98
827460 On ch=1 n=f4 v=98
827520 On ch=1 n=d5 v=98
828000 On ch=1 n=a#3 v=0
828480 On ch=1 n=f4 v=0
828480 On ch=1 n=g4 v=98
828960 On ch=1 n=g4 v=0
828960 On ch=1 n=d5 v=0
828960 On ch=1 n=c4 v=92
828960 On ch=1 n=c5 v=92
829320 On ch=1 n=c5 v=0
829320 On ch=1 n=a#4 v=90
829440 On ch=1 n=a#4 v=0
829440 On ch=1 n=c4 v=0
829440 On ch=1 n=f4 v=90
829440 On ch=1 n=a4 v=90
829620 On ch=1 n=a4 v=0
829620 On ch=1 n=f4 v=0
830320 On ch=1 n=d4 v=65
830360 On ch=1 n=a#4 v=65
830400 On ch=1 n=f5 v=65
830800 On ch=1 n=f5 v=0
830800 On ch=1 n=a#4 v=0
830800 On ch=1 n=d4 v=0
830800 On ch=1 n=d#4 v=69
830824 On ch=1 n=f#4 v=69
830852 On ch=1 n=a#4 v=69
830880 On ch=1 n=f#5 v=69
831360 On ch=1 n=f#5 v=0
831360 On ch=1 n=a#4 v=0
831360 On ch=1 n=f#4 v=0
831360 On ch=1 n=d#4 v=0
831760 On ch=1 n=d4 v=65
831800 On ch=1 n=a#4 v=65
831840 On ch=1 n=f5 v=65
832240 On ch=1 n=f5 v=0
832240 On ch=1 n=a#4 v=0
832240 On ch=1 n=d4 v=0
832240 On ch=1 n=d#4 v=69
832264 On ch=1 n=f#4 v=69
832292 On ch=1 n=a#4 v=69
832320 On ch=1 n=f#5 v=69
832800 On ch=1 n=f#5 v=0
832800 On ch=1 n=a#4 v=0
832800 On ch=1 n=f#4 v=0
832800 On ch=1 n=d#4 v=0
833160 On ch=1 n=f#4 v=71
833220 On ch=1 n=c#5 v=71
833280 On ch=1 n=a#5 v=71
833760 On ch=1 n=f#4 v=0
834240 On ch=1 n=c#5 v=0
834240 On ch=1 n=d#5 v=71
834720 On ch=1 n=d#5 v=0
834720 On ch=1 n=a#5 v=0
834720 On ch=1 n=f#5 v=66
834720 On ch=1 n=g#4 v=66
835200 On ch=1 n=g#4 v=0
835200 On ch=1 n=f#5 v=0
835200 On ch=1 n=f5 v=65
835200 On ch=1 n=c#5 v=65
835380 On ch=1 n=c#5 v=0
835380 On ch=1 n=f5 v=0
836080 On ch=1 n=g#3 v=90
836120 On ch=1 n=d#4 v=90
836160 On ch=1 n=c5 v=90
836640 On ch=1 n=c5 v=0
836640 On ch=1 n=d#4 v=0
836640 On ch=1 n=g#3 v=0
836640 On ch=1 n=c#5 v=90
836640 On ch=1 n=f4 v=90
837120 On ch=1 n=f4 v=0
837120 On ch=1 n=c#5 v=0
837520 On ch=1 n=g#3 v=90
837560 On ch=1 n=d#4 v=90
837600 On ch=1 n=c5 v=90
838080 On ch=1 n=c5 v=0
838080 On ch=1 n=d#4 v=0
838080 On ch=1 n=g#3 v=0
838080 On ch=1 n=f4 v=90
838080 On ch=1 n=c#5 v=90
838560 On ch=1 n=c#5 v=0
838560 On ch=1 n=f4 v=0
838920 On ch=1 n=c#4 v=98
838980 On ch=1 n=g#4 v=98
839040 On ch=1 n=f5 v=98
839520 On ch=1 n=c#4 v=0
840000 On ch=1 n=g#4 v=0
840000 On ch=1 n=a#4 v=98
840480 On ch=1 n=a#4 v=0
840480 On ch=1 n=f5 v=0
840480 On ch=1 n=c#5 v=91
840480 On ch=1 n=d#4 v=91
840960 On ch=1 n=d#4 v=0
840960 On ch=1 n=c#5 v=0
840960 On ch=1 n=g#4 v=90
840960 On ch=1 n=c5 v=90
841140 On ch=1 n=c5 v=0
841140 On ch=1 n=g#4 v=0
841440 On ch=1 n=f#4 v=73
841920 On ch=1 n=g#3 v=73
842280 On ch=1 n=f#4 v=0
842280 On ch=1 n=d4 v=65
842400 On ch=1 n=d4 v=0
842400 On ch=1 n=d#4 v=65
842760 On ch=1 n=d#4 v=0
842760 On ch=1 n=f4 v=65
842880 On ch=1 n=f4 v=0
842880 On ch=1 n=g#3 v=0
842880 On ch=1 n=f#4 v=65
843360 On ch=1 n=g#3 v=65
843840 On ch=1 n=f#4 v=0
844320 On ch=1 n=g#3 v=0
844320 On ch=1 n=d#4 v=73
844800 On ch=1 n=g#3 v=65
845160 On ch=1 n=d#4 v=0
845160 On ch=1 n=b3 v=65
845280 On ch=1 n=b3 v=0
845280 On ch=1 n=c4 v=65
845640 On ch=1 n=c4 v=0
845640 On ch=1 n=c#4 v=65
845760 On ch=1 n=c#4 v=0
845760 On ch=1 n=g#3 v=0
845760 On ch=1 n=d#4 v=65
846240 On ch=1 n=g#3 v=65
847680 On ch=1 n=g#3 v=0
847680 On ch=1 n=d#4 v=0
847680 On ch=1 n=a3 v=65
849120 On ch=1 n=a3 v=0
849120 On ch=1 n=b3 v=65
850560 On ch=1 n=b3 v=0
850560 On ch=1 n=c4 v=73
851760 On ch=1 n=c4 v=0
851760 On ch=1 n=d4 v=81
852000 On ch=1 n=d4 v=0
852000 On ch=1 n=e4 v=84
852240 On ch=1 n=e4 v=0
852240 On ch=1 n=f#4 v=87
852720 On ch=1 n=f#4 v=0
852960 On ch=1 n=g2 v=61
853800 On ch=1 n=g2 v=0
853800 On ch=1 n=a#2 v=53
853860 On ch=1 n=a#2 v=0
853920 On ch=1 n=a2 v=53
854040 On ch=1 n=a2 v=0
855240 On ch=1 n=f#2 v=53
855300 On ch=1 n=f#2 v=0
855360 On ch=1 n=g2 v=53
855480 On ch=1 n=g2 v=0
856680 On ch=1 n=a#2 v=53
856740 On ch=1 n=a#2 v=0
856800 On ch=1 n=c3 v=53
856920 On ch=1 n=c3 v=0
857160 On ch=1 n=d3 v=53
857280 On ch=1 n=d3 v=0
857280 On ch=1 n=d#3 v=53
857400 On ch=1 n=d#3 v=0
857760 On ch=1 n=d#4 v=53
857880 On ch=1 n=d#4 v=0
858240 On ch=1 n=d3 v=53
858240 On ch=1 n=d4 v=53
858360 On ch=1 n=d4 v=0
858360 On ch=1 n=d3 v=0
859200 On ch=1 n=f#2 v=65
859680 On ch=1 n=f#2 v=0
859680 On ch=1 n=g2 v=65
859920 On ch=1 n=g2 v=0
860160 On ch=1 n=g4 v=73
861000 On ch=1 n=g4 v=0
861000 On ch=1 n=f4 v=65
861120 On ch=1 n=f4 v=0
861120 On ch=1 n=d#4 v=65
861240 On ch=1 n=d#4 v=0
861480 On ch=1 n=d4 v=65
861600 On ch=1 n=d4 v=0
861600 On ch=1 n=c4 v=65
861720 On ch=1 n=c4 v=0
861960 On ch=1 n=a#3 v=65
862080 On ch=1 n=a#3 v=0
862080 On ch=1 n=a2 v=65
862560 On ch=1 n=a2 v=0
862560 On ch=1 n=a#2 v=65
862800 On ch=1 n=a#2 v=0
863040 On ch=1 n=a#4 v=73
863880 On ch=1 n=a#4 v=0
863880 On ch=1 n=a4 v=65
864000 On ch=1 n=a4 v=0
864000 On ch=1 n=g4 v=65
864120 On ch=1 n=g4 v=0
864360 On ch=1 n=f4 v=65
864480 On ch=1 n=f4 v=0
864480 On ch=1 n=e4 v=65
864600 On ch=1 n=e4 v=0
864840 On ch=1 n=d4 v=65
864960 On ch=1 n=d4 v=0
864960 On ch=1 n=c#3 v=65
865440 On ch=1 n=c#3 v=0
865440 On ch=1 n=d3 v=65
865680 On ch=1 n=d3 v=0
865920 On ch=1 n=d5 v=73
866760 On ch=1 n=d5 v=0
866760 On ch=1 n=c5 v=65
866880 On ch=1 n=c5 v=0
866880 On ch=1 n=a#4 v=65
867000 On ch=1 n=a#4 v=0
867240 On ch=1 n=a4 v=65
867360 On ch=1 n=a4 v=0
867360 On ch=1 n=g4 v=65
867480 On ch=1 n=g4 v=0
867720 On ch=1 n=f4 v=65
867840 On ch=1 n=f4 v=0
867840 On ch=1 n=e4 v=65
867960 On ch=1 n=e4 v=0
868200 On ch=1 n=d#4 v=65
868320 On ch=1 n=d#4 v=0
868320 On ch=1 n=d4 v=65
868440 On ch=1 n=d4 v=0
868800 On ch=1 n=d4 v=73
869640 On ch=1 n=d4 v=0
869640 On ch=1 n=c4 v=65
869760 On ch=1 n=c4 v=0
869760 On ch=1 n=a#3 v=65
870000 On ch=1 n=a#3 v=0
870120 On ch=1 n=a3 v=65
870240 On ch=1 n=a3 v=0
870240 On ch=1 n=g3 v=65
870420 On ch=1 n=g3 v=0
870480 On ch=1 n=f3 v=62
870660 On ch=1 n=f3 v=0
870720 On ch=1 n=e3 v=59
870900 On ch=1 n=e3 v=0
870960 On ch=1 n=d#3 v=56
871140 On ch=1 n=d#3 v=0
871200 On ch=1 n=d3 v=53
871440 On ch=1 n=a3 v=53
874080 On ch=1 n=d3 v=0
874320 On ch=1 n=a3 v=0
876960 On ch=1 n=f3 v=65
877000 On ch=1 n=a4 v=65
877000 On ch=1 n=d#4 v=65
878400 On ch=1 n=d#4 v=0
878400 On ch=1 n=a4 v=0
878400 On ch=1 n=d4 v=65
879840 On ch=1 n=d4 v=0
879840 On ch=1 n=f3 v=0
879840 On ch=1 n=f3 v=65
879880 On ch=1 n=a4 v=65
879880 On ch=1 n=d#4 v=65
881280 On ch=1 n=d#4 v=0
881280 On ch=1 n=a4 v=0
881280 On ch=1 n=d4 v=65
882240 On ch=1 n=d4 v=0
882240 On ch=1 n=f3 v=0
882480 On ch=1 n=a#3 v=90
882720 On ch=1 n=d#3 v=65
882720 On ch=1 n=g4 v=65
883200 On ch=1 n=g4 v=0
883200 On ch=1 n=g4 v=78
883440 On ch=1 n=g4 v=0
883440 On ch=1 n=a#4 v=90
883800 On ch=1 n=a#4 v=0
883800 On ch=1 n=a4 v=82
883920 On ch=1 n=a4 v=0
883920 On ch=1 n=g4 v=74
884160 On ch=1 n=g4 v=0
884160 On ch=1 n=d#3 v=0
884160 On ch=1 n=d3 v=65
884160 On ch=1 n=f4 v=65
884640 On ch=1 n=d3 v=0
884640 On ch=1 n=a#3 v=0
884880 On ch=1 n=f4 v=0
884880 On ch=1 n=a#3 v=65
885120 On ch=1 n=a#3 v=0
885360 On ch=1 n=a#3 v=65
885600 On ch=1 n=a#3 v=0
885600 On ch=1 n=c3 v=71
885640 On ch=1 n=d#4 v=71
885960 On ch=1 n=d#4 v=0
885960 On ch=1 n=d#4 v=77
886080 On ch=1 n=d#4 v=0
886080 On ch=1 n=d#4 v=83
886240 On ch=1 n=d#4 v=85
886280 On ch=1 n=d#4 v=0
886280 On ch=1 n=f4 v=87
886320 On ch=1 n=f4 v=0
886320 On ch=1 n=d#4 v=0
886320 On ch=1 n=c3 v=0
886320 On ch=1 n=g4 v=90
886680 On ch=1 n=g4 v=0
886680 On ch=1 n=f4 v=82
886800 On ch=1 n=f4 v=0
886800 On ch=1 n=d#4 v=74
887040 On ch=1 n=d#4 v=0
887040 On ch=1 n=d3 v=65
887040 On ch=1 n=d4 v=65
888240 On ch=1 n=d4 v=0
888240 On ch=1 n=d3 v=0
888240 On ch=1 n=a2 v=53
888480 On ch=1 n=a2 v=0
888480 On ch=1 n=a2 v=53
888960 On ch=1 n=a2 v=0
888960 On ch=1 n=a2 v=53
889200 On ch=1 n=a2 v=0
889200 On ch=1 n=a2 v=53
889560 On ch=1 n=a2 v=0
889560 On ch=1 n=a2 v=53
889680 On ch=1 n=a2 v=0
889680 On ch=1 n=a2 v=53
889920 On ch=1 n=a2 v=0
889920 On ch=1 n=d2 v=53
890640 On ch=1 n=d2 v=0
890640 On ch=1 n=g2 v=108
890640 On ch=1 n=g3 v=108
891120 On ch=1 n=g3 v=0
891120 On ch=1 n=g2 v=0
891120 On ch=1 n=g3 v=102
891360 On ch=1 n=g3 v=0
891360 On ch=1 n=c3 v=102
891360 On ch=1 n=c4 v=102
891840 On ch=1 n=c3 v=0
891888 On ch=1 n=c4 v=0
891888 On ch=1 n=d4 v=102
891936 On ch=1 n=d4 v=0
891936 On ch=1 n=d#4 v=102
891984 On ch=1 n=d#4 v=0
891984 On ch=1 n=f4 v=102
892032 On ch=1 n=f4 v=0
892032 On ch=1 n=g4 v=102
892080 On ch=1 n=g4 v=0
892080 On ch=1 n=g#4 v=108
892608 On ch=1 n=g#4 v=0
892608 On ch=1 n=g4 v=102
892656 On ch=1 n=g4 v=0
892656 On ch=1 n=f4 v=102
892704 On ch=1 n=f4 v=0
892704 On ch=1 n=d#4 v=102
892752 On ch=1 n=d#4 v=0
892752 On ch=1 n=d4 v=102
892800 On ch=1 n=d4 v=0
892800 On ch=1 n=c3 v=102
892800 On ch=1 n=c4 v=102
893280 On ch=1 n=c4 v=0
893280 On ch=1 n=c3 v=0
893520 On ch=1 n=a#2 v=102
893520 On ch=1 n=a#3 v=102
894000 On ch=1 n=a#3 v=0
894000 On ch=1 n=a#2 v=0
894180 On ch=1 n=a#3 v=102
894240 On ch=1 n=a#3 v=0
894240 On ch=1 n=d#3 v=108
894240 On ch=1 n=d#4 v=108
894720 On ch=1 n=d#3 v=0
894768 On ch=1 n=d#4 v=0
894768 On ch=1 n=f#4 v=102
894816 On ch=1 n=f#4 v=0
894816 On ch=1 n=g4 v=102
894864 On ch=1 n=g4 v=0
894864 On ch=1 n=a4 v=102
894912 On ch=1 n=a4 v=0
894912 On ch=1 n=a#4 v=102
894960 On ch=1 n=a#4 v=0
894960 On ch=1 n=d4 v=108
894960 On ch=1 n=c5 v=108
895440 On ch=1 n=d4 v=0
895488 On ch=1 n=c5 v=0
895488 On ch=1 n=a#4 v=102
895536 On ch=1 n=a#4 v=0
895536 On ch=1 n=a4 v=102
895584 On ch=1 n=a4 v=0
895584 On ch=1 n=g4 v=102
895632 On ch=1 n=g4 v=0
895632 On ch=1 n=f4 v=102
895680 On ch=1 n=f4 v=0
895680 On ch=1 n=g3 v=102
895680 On ch=1 n=g4 v=102
896160 On ch=1 n=g4 v=0
896160 On ch=1 n=g3 v=0
896400 On ch=1 n=f#3 v=114
896400 On ch=1 n=f#4 v=114
897120 On ch=1 n=f#4 v=0
897120 On ch=1 n=f#3 v=0
897120 On ch=1 n=f3 v=90
897120 On ch=1 n=f4 v=90
897600 On ch=1 n=f4 v=0
897600 On ch=1 n=f3 v=0
897840 On ch=1 n=f#3 v=114
897840 On ch=1 n=f#4 v=114
898560 On ch=1 n=f#4 v=0
898560 On ch=1 n=f#3 v=0
898560 On ch=1 n=d#3 v=65
898600 On ch=1 n=f#4 v=65
899760 On ch=1 n=f#4 v=0
899760 On ch=1 n=d#3 v=0
899760 On ch=1 n=f#4 v=53
900000 On ch=1 n=f#4 v=0
900000 On ch=1 n=c#3 v=53
900720 On ch=1 n=c#3 v=0
900720 On ch=1 n=f#3 v=65
901440 On ch=1 n=f#3 v=0
901440 On ch=1 n=f#2 v=53
901440 On ch=1 n=f#3 v=53
902880 On ch=1 n=f#3 v=0
902880 On ch=1 n=f#2 v=0
902880 On ch=1 n=f2 v=53
902880 On ch=1 n=f3 v=53
903600 On ch=1 n=f3 v=0
903600 On ch=1 n=f2 v=0
903600 On ch=1 n=a#2 v=53
903600 On ch=1 n=a#3 v=53
905040 On ch=1 n=a#3 v=0
905040 On ch=1 n=a#2 v=0
905040 On ch=1 n=b2 v=53
905040 On ch=1 n=b3 v=53
905760 On ch=1 n=b3 v=0
905760 On ch=1 n=b2 v=0
905760 On ch=1 n=c3 v=53
905760 On ch=1 n=f3 v=53
905760 On ch=1 n=c4 v=53
906240 On ch=1 n=c3 v=0
906240 On ch=1 n=d3 v=53
906400 On ch=1 n=d3 v=0
906400 On ch=1 n=c3 v=53
906440 On ch=1 n=c3 v=0
906440 On ch=1 n=d3 v=53
906480 On ch=1 n=d3 v=0
906480 On ch=1 n=d#3 v=53
906840 On ch=1 n=d#3 v=0
906840 On ch=1 n=d3 v=53
906960 On ch=1 n=d3 v=0
906960 On ch=1 n=c3 v=53
907200 On ch=1 n=c3 v=0
907200 On ch=1 n=c4 v=0
907200 On ch=1 n=a#2 v=53
907240 On ch=1 n=d4 v=53
907920 On ch=1 n=d4 v=0
907920 On ch=1 n=a#2 v=0
907920 On ch=1 n=f3 v=0
907920 On ch=1 n=f2 v=53
908160 On ch=1 n=f2 v=0
908400 On ch=1 n=d3 v=53
908640 On ch=1 n=d3 v=0
908640 On ch=1 n=f3 v=53
908640 On ch=1 n=c4 v=53
908640 On ch=1 n=c3 v=53
909000 On ch=1 n=c3 v=0
909000 On ch=1 n=d3 v=53
909120 On ch=1 n=d3 v=0
909120 On ch=1 n=c3 v=53
909320 On ch=1 n=c3 v=0
909320 On ch=1 n=d3 v=53
909360 On ch=1 n=d3 v=0
909360 On ch=1 n=d#3 v=53
909720 On ch=1 n=d#3 v=0
909720 On ch=1 n=d3 v=53
909840 On ch=1 n=d3 v=0
909840 On ch=1 n=c3 v=53
910080 On ch=1 n=c3 v=0
910080 On ch=1 n=c4 v=0
910080 On ch=1 n=a#2 v=53
910120 On ch=1 n=d4 v=53
911280 On ch=1 n=d4 v=0
911280 On ch=1 n=a#2 v=0
911280 On ch=1 n=f3 v=0
911280 On ch=1 n=a#3 v=90
911520 On ch=1 n=d#3 v=90
911560 On ch=1 n=d#3 v=0
911560 On ch=1 n=g4 v=90
912000 On ch=1 n=g4 v=0
912000 On ch=1 n=g4 v=90
912240 On ch=1 n=g4 v=0
912240 On ch=1 n=a#4 v=90
912600 On ch=1 n=a#4 v=0
912600 On ch=1 n=a4 v=90
912720 On ch=1 n=a4 v=0
912720 On ch=1 n=g4 v=90
912960 On ch=1 n=g4 v=0
912960 On ch=1 n=a#3 v=0
912960 On ch=1 n=d3 v=90
913000 On ch=1 n=d3 v=0
913000 On ch=1 n=a#3 v=90
913000 On ch=1 n=f4 v=90
913680 On ch=1 n=f4 v=0
913680 On ch=1 n=a#3 v=0
913680 On ch=1 n=a#3 v=90
913920 On ch=1 n=a#3 v=0
914160 On ch=1 n=d3 v=90
914188 On ch=1 n=a#3 v=90
914220 On ch=1 n=f#4 v=90
914400 On ch=1 n=f#4 v=0
914400 On ch=1 n=a#3 v=0
914400 On ch=1 n=d3 v=0
914400 On ch=1 n=d#3 v=90
914428 On ch=1 n=a#3 v=90
914460 On ch=1 n=g4 v=90
914880 On ch=1 n=g4 v=0
914880 On ch=1 n=a#3 v=0
914880 On ch=1 n=d#3 v=0
914880 On ch=1 n=g4 v=90
915120 On ch=1 n=g4 v=0
915120 On ch=1 n=e3 v=90
915120 On ch=1 n=c#4 v=90
915120 On ch=1 n=a#4 v=90
915480 On ch=1 n=a#4 v=0
915480 On ch=1 n=a4 v=90
915600 On ch=1 n=a4 v=0
915600 On ch=1 n=g4 v=90
915840 On ch=1 n=g4 v=0
915840 On ch=1 n=c#4 v=0
915840 On ch=1 n=e3 v=0
915840 On ch=1 n=f3 v=91
915840 On ch=1 n=d4 v=91
915840 On ch=1 n=f4 v=91
916560 On ch=1 n=f3 v=0
916560 On ch=1 n=g#3 v=96
917040 On ch=1 n=g#3 v=0
917040 On ch=1 n=f4 v=0
917040 On ch=1 n=d4 v=0
917040 On ch=1 n=a#3 v=96
917280 On ch=1 n=a#3 v=0
917280 On ch=1 n=g3 v=99
917280 On ch=1 n=a#3 v=99
917280 On ch=1 n=d#4 v=99
917640 On ch=1 n=d#4 v=0
917640 On ch=1 n=a#3 v=0
917640 On ch=1 n=g3 v=0
917640 On ch=1 n=f4 v=99
917760 On ch=1 n=f4 v=0
917760 On ch=1 n=d#4 v=99
917880 On ch=1 n=d#4 v=0
917880 On ch=1 n=f4 v=90
917920 On ch=1 n=f4 v=0
917920 On ch=1 n=d#4 v=90
917960 On ch=1 n=d#4 v=0
917960 On ch=1 n=f4 v=90
918000 On ch=1 n=f4 v=0
918000 On ch=1 n=g4 v=102
918360 On ch=1 n=g4 v=0
918360 On ch=1 n=f4 v=102
918480 On ch=1 n=f4 v=0
918480 On ch=1 n=d#4 v=102
918720 On ch=1 n=d#4 v=0
918720 On ch=1 n=a3 v=90
918720 On ch=1 n=d4 v=90
918720 On ch=1 n=f#4 v=90
919440 On ch=1 n=f#4 v=0
919440 On ch=1 n=d4 v=0
919440 On ch=1 n=a3 v=0
919440 On ch=1 n=b3 v=78
919440 On ch=1 n=g4 v=78
919920 On ch=1 n=g4 v=0
919920 On ch=1 n=b3 v=0
919920 On ch=1 n=g4 v=65
920160 On ch=1 n=g4 v=0
920160 On ch=1 n=g#4 v=65
920160 On ch=1 n=c4 v=65
920160 On ch=1 n=c5 v=65
920520 On ch=1 n=g#4 v=0
920520 On ch=1 n=g#4 v=65
920640 On ch=1 n=g#4 v=0
920640 On ch=1 n=g#4 v=65
920800 On ch=1 n=g#4 v=0
920800 On ch=1 n=g#4 v=65
920840 On ch=1 n=g#4 v=0
920840 On ch=1 n=a#4 v=65
920880 On ch=1 n=a#4 v=0
920880 On ch=1 n=c5 v=0
920880 On ch=1 n=c4 v=0
920880 On ch=1 n=c5 v=65
921240 On ch=1 n=c5 v=0
921240 On ch=1 n=a#4 v=65
921360 On ch=1 n=a#4 v=0
921360 On ch=1 n=g#4 v=65
921600 On ch=1 n=g#4 v=0
921600 On ch=1 n=d4 v=65
921600 On ch=1 n=g4 v=65
921600 On ch=1 n=b4 v=65
921960 On ch=1 n=d4 v=0
921960 On ch=1 n=d4 v=63
922080 On ch=1 n=d4 v=0
922080 On ch=1 n=d#4 v=61
922320 On ch=1 n=d#4 v=0
922320 On ch=1 n=b4 v=0
922320 On ch=1 n=g4 v=0
922320 On ch=1 n=c4 v=59
922320 On ch=1 n=f4 v=59
922680 On ch=1 n=f4 v=0
922680 On ch=1 n=e4 v=56
922800 On ch=1 n=e4 v=0
922800 On ch=1 n=c4 v=0
923040 On ch=1 n=d#4 v=53
923040 On ch=1 n=f3 v=53
924480 On ch=1 n=d#4 v=0
924480 On ch=1 n=d4 v=78
925920 On ch=1 n=d4 v=0
925920 On ch=1 n=f3 v=0
925920 On ch=1 n=f3 v=53
925920 On ch=1 n=d#4 v=53
927120 On ch=1 n=d#4 v=0
927120 On ch=1 n=f3 v=0
927120 On ch=1 n=d#4 v=53
927360 On ch=1 n=f3 v=65
927720 On ch=1 n=d#4 v=0
927720 On ch=1 n=d4 v=65
927840 On ch=1 n=d4 v=0
927840 On ch=1 n=f4 v=65
928080 On ch=1 n=f4 v=0
928080 On ch=1 n=f3 v=0
928080 On ch=1 n=f3 v=65
928440 On ch=1 n=d#4 v=65
928560 On ch=1 n=d#4 v=0
928560 On ch=1 n=f4 v=65
928800 On ch=1 n=f4 v=0
928800 On ch=1 n=f3 v=0
928800 On ch=1 n=f3 v=65
929160 On ch=1 n=d4 v=65
929280 On ch=1 n=d4 v=0
929280 On ch=1 n=f4 v=65
929520 On ch=1 n=f4 v=0
929520 On ch=1 n=f3 v=0
929520 On ch=1 n=f3 v=65
929880 On ch=1 n=f4 v=65
930000 On ch=1 n=f4 v=0
930000 On ch=1 n=b4 v=65
930240 On ch=1 n=b4 v=0
930240 On ch=1 n=f3 v=0
930240 On ch=1 n=f3 v=70
930600 On ch=1 n=d#4 v=70
930720 On ch=1 n=d#4 v=0
930720 On ch=1 n=g4 v=70
930960 On ch=1 n=g4 v=0
930960 On ch=1 n=f3 v=0
930960 On ch=1 n=f3 v=75
931320 On ch=1 n=f4 v=75
931440 On ch=1 n=f4 v=0
931440 On ch=1 n=g4 v=75
931680 On ch=1 n=g4 v=0
931680 On ch=1 n=f3 v=0
931680 On ch=1 n=f3 v=80
932040 On ch=1 n=d#4 v=80
932160 On ch=1 n=d#4 v=0
932160 On ch=1 n=g4 v=85
932400 On ch=1 n=g4 v=0
932400 On ch=1 n=f3 v=0
932400 On ch=1 n=f3 v=85
932760 On ch=1 n=e4 v=85
932880 On ch=1 n=e4 v=0
932880 On ch=1 n=c#5 v=90
933120 On ch=1 n=c#5 v=0
933120 On ch=1 n=f3 v=0
933120 On ch=1 n=f3 v=90
933480 On ch=1 n=f4 v=90
933600 On ch=1 n=f4 v=0
933600 On ch=1 n=f3 v=0
933600 On ch=1 n=a4 v=90
933840 On ch=1 n=a4 v=0
933840 On ch=1 n=f3 v=90
934200 On ch=1 n=g4 v=90
934320 On ch=1 n=g4 v=0
934320 On ch=1 n=f3 v=0
934320 On ch=1 n=a4 v=90
934560 On ch=1 n=a4 v=0
934560 On ch=1 n=f3 v=90
934920 On ch=1 n=f4 v=90
935040 On ch=1 n=f4 v=0
935040 On ch=1 n=f3 v=0
935040 On ch=1 n=a4 v=90
935280 On ch=1 n=a4 v=0
935280 On ch=1 n=f3 v=90
935640 On ch=1 n=a4 v=84
935760 On ch=1 n=a4 v=0
935760 On ch=1 n=f4 v=84
936000 On ch=1 n=f4 v=0
936000 On ch=1 n=f3 v=0
936000 On ch=1 n=a#3 v=81
936360 On ch=1 n=a#4 v=78
936480 On ch=1 n=a#4 v=0
936480 On ch=1 n=f4 v=78
936720 On ch=1 n=f4 v=0
936720 On ch=1 n=a#3 v=0
936720 On ch=1 n=d3 v=75
937080 On ch=1 n=f#4 v=72
937200 On ch=1 n=f#4 v=0
937200 On ch=1 n=d4 v=72
937440 On ch=1 n=d4 v=0
937440 On ch=1 n=d3 v=0
937440 On ch=1 n=d#3 v=65
937800 On ch=1 n=g4 v=73
937920 On ch=1 n=g4 v=0
938160 On ch=1 n=d#3 v=0
938160 On ch=1 n=f3 v=90
938520 On ch=1 n=a4 v=78
938640 On ch=1 n=a4 v=0
938640 On ch=1 n=f4 v=65
938880 On ch=1 n=f3 v=0
938880 On ch=1 n=f3 v=65
939060 On ch=1 n=f3 v=0
939060 On ch=1 n=f4 v=0
939240 On ch=1 n=a4 v=65
939240 On ch=1 n=f4 v=65
939360 On ch=1 n=f4 v=0
939360 On ch=1 n=a4 v=0
939360 On ch=1 n=c4 v=65
939540 On ch=1 n=c4 v=0
939600 On ch=1 n=f3 v=65
939780 On ch=1 n=f3 v=0
939960 On ch=1 n=c5 v=68
939960 On ch=1 n=a4 v=68
940080 On ch=1 n=a4 v=0
940080 On ch=1 n=c5 v=0
940080 On ch=1 n=d#4 v=71
940260 On ch=1 n=d#4 v=0
940320 On ch=1 n=f3 v=73
940500 On ch=1 n=f3 v=0
940680 On ch=1 n=a#4 v=76
940680 On ch=1 n=f4 v=76
940800 On ch=1 n=f4 v=0
940800 On ch=1 n=a#4 v=0
940800 On ch=1 n=d4 v=78
940980 On ch=1 n=d4 v=0
941040 On ch=1 n=f3 v=74
941220 On ch=1 n=f3 v=0
941400 On ch=1 n=g#4 v=69
941400 On ch=1 n=f4 v=69
941520 On ch=1 n=f4 v=0
941520 On ch=1 n=g#4 v=0
941520 On ch=1 n=c4 v=65
941700 On ch=1 n=c4 v=0
941760 On ch=1 n=f3 v=65
941940 On ch=1 n=f3 v=0
942120 On ch=1 n=g4 v=65
942120 On ch=1 n=d4 v=65
942240 On ch=1 n=d4 v=0
942240 On ch=1 n=g4 v=0
942240 On ch=1 n=b3 v=65
942420 On ch=1 n=b3 v=0
942480 On ch=1 n=f3 v=69
942660 On ch=1 n=f3 v=0
942840 On ch=1 n=b4 v=69
942840 On ch=1 n=g4 v=69
942960 On ch=1 n=g4 v=0
942960 On ch=1 n=b4 v=0
942960 On ch=1 n=d4 v=69
943140 On ch=1 n=d4 v=0
943200 On ch=1 n=f3 v=73
943380 On ch=1 n=f3 v=0
943560 On ch=1 n=c5 v=73
943560 On ch=1 n=g4 v=73
943680 On ch=1 n=g4 v=0
943680 On ch=1 n=c5 v=0
943680 On ch=1 n=d#4 v=73
943860 On ch=1 n=d#4 v=0
943920 On ch=1 n=f3 v=77
944100 On ch=1 n=f3 v=0
944280 On ch=1 n=a#4 v=77
944280 On ch=1 n=g4 v=77
944400 On ch=1 n=g4 v=0
944400 On ch=1 n=a#4 v=0
944400 On ch=1 n=d4 v=77
944580 On ch=1 n=d4 v=0
944640 On ch=1 n=f3 v=90
944820 On ch=1 n=f3 v=0
945000 On ch=1 n=a4 v=90
945000 On ch=1 n=e4 v=90
945120 On ch=1 n=e4 v=0
945120 On ch=1 n=a4 v=0
945120 On ch=1 n=c#4 v=90
945300 On ch=1 n=c#4 v=0
945360 On ch=1 n=f3 v=90
945540 On ch=1 n=f3 v=0
945720 On ch=1 n=c#5 v=90
945720 On ch=1 n=g4 v=90
945840 On ch=1 n=g4 v=0
945840 On ch=1 n=c#5 v=0
945840 On ch=1 n=e4 v=90
946020 On ch=1 n=e4 v=0
946080 On ch=1 n=f3 v=90
946260 On ch=1 n=f3 v=0
946440 On ch=1 n=a4 v=90
946560 On ch=1 n=a4 v=0
946560 On ch=1 n=f4 v=90
946740 On ch=1 n=f4 v=0
946760 On ch=1 n=f3 v=90
946800 On ch=1 n=f3 v=0
946800 On ch=1 n=d#4 v=90
947160 On ch=1 n=c5 v=90
947280 On ch=1 n=c5 v=0
947280 On ch=1 n=a4 v=90
947480 On ch=1 n=a4 v=0
947480 On ch=1 n=a#3 v=90
947520 On ch=1 n=a#3 v=0
947520 On ch=1 n=d#4 v=0
947520 On ch=1 n=d4 v=90
947880 On ch=1 n=a#4 v=90
948000 On ch=1 n=a#4 v=0
948000 On ch=1 n=f4 v=90
948120 On ch=1 n=f4 v=0
948200 On ch=1 n=d3 v=90
948240 On ch=1 n=d3 v=0
948240 On ch=1 n=d4 v=0
948240 On ch=1 n=c4 v=90
948600 On ch=1 n=a4 v=90
948720 On ch=1 n=a4 v=0
948720 On ch=1 n=f#4 v=90
948960 On ch=1 n=f#4 v=0
948960 On ch=1 n=c4 v=0
948960 On ch=1 n=d#3 v=93
948988 On ch=1 n=a#3 v=93
949020 On ch=1 n=g4 v=93
949320 On ch=1 n=g4 v=0
949320 On ch=1 n=a#3 v=0
949320 On ch=1 n=d#3 v=0
949320 On ch=1 n=a4 v=96
949440 On ch=1 n=a4 v=0
949440 On ch=1 n=a#4 v=99
949680 On ch=1 n=a#4 v=0
949680 On ch=1 n=f3 v=102
949700 On ch=1 n=d#4 v=102
949720 On ch=1 n=a4 v=102
949740 On ch=1 n=d5 v=102
950040 On ch=1 n=d5 v=0
950040 On ch=1 n=a4 v=0
950040 On ch=1 n=d#4 v=0
950040 On ch=1 n=f3 v=0
950040 On ch=1 n=c5 v=102
950160 On ch=1 n=c5 v=0
950160 On ch=1 n=d5 v=108
950400 On ch=1 n=d5 v=0
950640 On ch=1 n=f6 v=90
951120 On ch=1 n=f6 v=0
951840 On ch=1 n=d4 v=82
953280 On ch=1 n=d4 v=0
953280 On ch=1 n=f3 v=65
953320 On ch=1 n=a4 v=65
953320 On ch=1 n=d#4 v=65
954720 On ch=1 n=d#4 v=0
954720 On ch=1 n=a4 v=0
954720 On ch=1 n=d4 v=65
955920 On ch=1 n=d4 v=0
955920 On ch=1 n=f3 v=0
955920 On ch=1 n=a#3 v=65
956160 On ch=1 n=d#3 v=65
956200 On ch=1 n=g4 v=65
956640 On ch=1 n=g4 v=0
956640 On ch=1 n=g4 v=65
956880 On ch=1 n=g4 v=0
957360 On ch=1 n=g4 v=65
957600 On ch=1 n=g4 v=0
957600 On ch=1 n=d#3 v=0
957600 On ch=1 n=a#3 v=0
957600 On ch=1 n=d3 v=65
957640 On ch=1 n=f4 v=65
957640 On ch=1 n=a#3 v=65
958320 On ch=1 n=a#3 v=0
958320 On ch=1 n=f4 v=0
958320 On ch=1 n=d3 v=0
958320 On ch=1 n=a#3 v=65
958800 On ch=1 n=a#3 v=0
958800 On ch=1 n=a#3 v=53
959040 On ch=1 n=a#3 v=0
959040 On ch=1 n=d#4 v=53
959040 On ch=1 n=b2 v=53
959400 On ch=1 n=d#4 v=0
959400 On ch=1 n=d#4 v=57
959520 On ch=1 n=d#4 v=0
959520 On ch=1 n=d#4 v=61
959680 On ch=1 n=d#4 v=0
959680 On ch=1 n=d#4 v=62
959720 On ch=1 n=d#4 v=0
959720 On ch=1 n=f4 v=63
959760 On ch=1 n=f4 v=0
959760 On ch=1 n=b2 v=0
959760 On ch=1 n=f#4 v=65
960120 On ch=1 n=f#4 v=0
960120 On ch=1 n=f4 v=61
960240 On ch=1 n=f4 v=0
960240 On ch=1 n=d#4 v=57
960480 On ch=1 n=d#4 v=0
960480 On ch=1 n=a#2 v=53
960600 On ch=1 n=a#2 v=0
960600 On ch=1 n=f4 v=53
961920 On ch=1 n=d5 v=53
964772 On ch=1 n=g3 v=108
964800 On ch=1 n=d5 v=0
964800 On ch=1 n=f4 v=0
964800 On ch=1 n=c4 v=108
964828 On ch=1 n=a4 v=108
965040 On ch=1 n=a4 v=0
965040 On ch=1 n=c4 v=0
965040 On ch=1 n=g3 v=0
965252 On ch=1 n=g3 v=108
965280 On ch=1 n=d4 v=108
965308 On ch=1 n=b4 v=108
965520 On ch=1 n=b4 v=0
965520 On ch=1 n=d4 v=0
965520 On ch=1 n=g3 v=0
965732 On ch=1 n=g3 v=108
965760 On ch=1 n=d#4 v=108
965788 On ch=1 n=c5 v=108
966000 On ch=1 n=c5 v=0
966000 On ch=1 n=d#4 v=0
966000 On ch=1 n=g3 v=0
966240 On ch=1 n=c5 v=102
966360 On ch=1 n=c5 v=0
966360 On ch=1 n=a4 v=102
966480 On ch=1 n=a4 v=0
966480 On ch=1 n=f#4 v=102
966600 On ch=1 n=f#4 v=0
966600 On ch=1 n=d#4 v=102
966692 On ch=1 n=g3 v=108
966720 On ch=1 n=d#4 v=0
966720 On ch=1 n=c4 v=108
966748 On ch=1 n=a4 v=108
966960 On ch=1 n=a4 v=0
966960 On ch=1 n=c4 v=0
966960 On ch=1 n=g3 v=0
967172 On ch=1 n=g3 v=108
967200 On ch=1 n=d4 v=108
967228 On ch=1 n=b4 v=108
967440 On ch=1 n=b4 v=0
967440 On ch=1 n=d4 v=0
967440 On ch=1 n=g3 v=0
967652 On ch=1 n=g3 v=108
967680 On ch=1 n=d#4 v=108
967708 On ch=1 n=c5 v=108
967920 On ch=1 n=c5 v=0
967920 On ch=1 n=d#4 v=0
967920 On ch=1 n=g3 v=0
968160 On ch=1 n=c5 v=102
968280 On ch=1 n=c5 v=0
968280 On ch=1 n=a4 v=102
968400 On ch=1 n=a4 v=0
968400 On ch=1 n=f#4 v=102
968520 On ch=1 n=f#4 v=0
968520 On ch=1 n=d#4 v=102
968640 On ch=1 n=d#4 v=0
968640 On ch=1 n=g3 v=108
968696 On ch=1 n=e4 v=108
969060 On ch=1 n=e4 v=0
969060 On ch=1 n=g3 v=0
969060 On ch=1 n=g3 v=108
969120 On ch=1 n=f4 v=108
969540 On ch=1 n=f4 v=0
969540 On ch=1 n=g3 v=0
969540 On ch=1 n=g3 v=108
969600 On ch=1 n=g4 v=108
970080 On ch=1 n=g4 v=0
970080 On ch=1 n=g3 v=0
970080 On ch=1 n=g4 v=102
970176 On ch=1 n=g4 v=0
970176 On ch=1 n=e4 v=102
970272 On ch=1 n=e4 v=0
970272 On ch=1 n=c#4 v=102
970368 On ch=1 n=c#4 v=0
970368 On ch=1 n=a#3 v=102
970464 On ch=1 n=a#3 v=0
970464 On ch=1 n=g3 v=102
970560 On ch=1 n=g3 v=0
970560 On ch=1 n=g2 v=108
970560 On ch=1 n=g3 v=108
971040 On ch=1 n=g3 v=0
971040 On ch=1 n=g2 v=0
971040 On ch=1 n=g2 v=108
971040 On ch=1 n=g3 v=108
971520 On ch=1 n=g3 v=0
971520 On ch=1 n=g2 v=0
971520 On ch=1 n=c3 v=102
971520 On ch=1 n=g3 v=102
972000 On ch=1 n=g3 v=0
972000 On ch=1 n=c3 v=0
972000 On ch=1 n=c3 v=102
972240 On ch=1 n=c3 v=0
972452 On ch=1 n=g3 v=108
972480 On ch=1 n=c4 v=108
972508 On ch=1 n=a4 v=108
972720 On ch=1 n=a4 v=0
972720 On ch=1 n=c4 v=0
972720 On ch=1 n=g3 v=0
972932 On ch=1 n=g3 v=108
972960 On ch=1 n=d4 v=108
972988 On ch=1 n=b4 v=108
973200 On ch=1 n=b4 v=0
973200 On ch=1 n=d4 v=0
973200 On ch=1 n=g3 v=0
973412 On ch=1 n=g3 v=108
973440 On ch=1 n=d#4 v=108
973468 On ch=1 n=c5 v=108
973680 On ch=1 n=c5 v=0
973680 On ch=1 n=d#4 v=0
973680 On ch=1 n=g3 v=0
973920 On ch=1 n=c5 v=102
974040 On ch=1 n=c5 v=0
974040 On ch=1 n=a4 v=102
974160 On ch=1 n=a4 v=0
974160 On ch=1 n=f#4 v=102
974280 On ch=1 n=f#4 v=0
974280 On ch=1 n=d#4 v=102
974372 On ch=1 n=g3 v=108
974400 On ch=1 n=d#4 v=0
974400 On ch=1 n=c4 v=108
974428 On ch=1 n=a4 v=108
974640 On ch=1 n=a4 v=0
974640 On ch=1 n=c4 v=0
974640 On ch=1 n=g3 v=0
974852 On ch=1 n=g3 v=108
974880 On ch=1 n=d4 v=108
974908 On ch=1 n=b4 v=108
975120 On ch=1 n=b4 v=0
975120 On ch=1 n=d4 v=0
975120 On ch=1 n=g3 v=0
975332 On ch=1 n=g3 v=108
975360 On ch=1 n=d#4 v=108
975388 On ch=1 n=c5 v=108
975600 On ch=1 n=c5 v=0
975600 On ch=1 n=d#4 v=0
975600 On ch=1 n=g3 v=0
975840 On ch=1 n=c5 v=102
975960 On ch=1 n=c5 v=0
975960 On ch=1 n=a4 v=102
976080 On ch=1 n=a4 v=0
976080 On ch=1 n=f#4 v=102
976200 On ch=1 n=f#4 v=0
976200 On ch=1 n=d#4 v=102
976320 On ch=1 n=d#4 v=0
976320 On ch=1 n=g3 v=108
976376 On ch=1 n=e4 v=108
976740 On ch=1 n=e4 v=0
976740 On ch=1 n=g3 v=0
976740 On ch=1 n=g3 v=108
976800 On ch=1 n=f4 v=108
977220 On ch=1 n=f4 v=0
977220 On ch=1 n=g3 v=0
977220 On ch=1 n=g3 v=108
977280 On ch=1 n=g4 v=108
977760 On ch=1 n=g4 v=0
977760 On ch=1 n=g3 v=0
977760 On ch=1 n=g4 v=102
977856 On ch=1 n=g4 v=0
977856 On ch=1 n=e4 v=102
977952 On ch=1 n=e4 v=0
977952 On ch=1 n=c#4 v=102
978048 On ch=1 n=c#4 v=0
978048 On ch=1 n=a#3 v=102
978144 On ch=1 n=a#3 v=0
978144 On ch=1 n=g3 v=102
978240 On ch=1 n=g3 v=0
978240 On ch=1 n=g2 v=108
978240 On ch=1 n=g3 v=108
978720 On ch=1 n=g3 v=0
978720 On ch=1 n=g2 v=0
978720 On ch=1 n=g2 v=108
978720 On ch=1 n=g3 v=108
979200 On ch=1 n=g3 v=0
979200 On ch=1 n=g2 v=0
979200 On ch=1 n=c3 v=102
979200 On ch=1 n=g3 v=102
979680 On ch=1 n=g3 v=0
979680 On ch=1 n=c3 v=0
979680 On ch=1 n=c3 v=102
979920 On ch=1 n=c3 v=0
980160 On ch=1 n=g3 v=102
980640 On ch=1 n=g3 v=0
980640 On ch=1 n=d4 v=102
981120 On ch=1 n=d4 v=0
981120 On ch=1 n=d3 v=102
981600 On ch=1 n=d3 v=0
981600 On ch=1 n=d4 v=102
982080 On ch=1 n=d4 v=0
982080 On ch=1 n=g3 v=102
982560 On ch=1 n=g3 v=0
982560 On ch=1 n=d4 v=102
983040 On ch=1 n=d4 v=0
983040 On ch=1 n=d3 v=102
983520 On ch=1 n=d3 v=0
983520 On ch=1 n=d4 v=102
984000 On ch=1 n=d4 v=0
984000 On ch=1 n=g3 v=102
984480 On ch=1 n=g3 v=0
984480 On ch=1 n=d4 v=102
984960 On ch=1 n=d4 v=0
984960 On ch=1 n=c3 v=102
985440 On ch=1 n=c3 v=0
985440 On ch=1 n=c4 v=102
985920 On ch=1 n=c4 v=0
985920 On ch=1 n=f3 v=102
986400 On ch=1 n=f3 v=0
986400 On ch=1 n=c4 v=102
986880 On ch=1 n=c4 v=0
986880 On ch=1 n=a#2 v=102
987360 On ch=1 n=a#2 v=0
987360 On ch=1 n=a#3 v=102
987840 On ch=1 n=a#3 v=0
987840 On ch=1 n=d#3 v=102
988320 On ch=1 n=d#3 v=0
988320 On ch=1 n=a#3 v=102
988800 On ch=1 n=a#3 v=0
988800 On ch=1 n=a2 v=102
989280 On ch=1 n=a2 v=0
989280 On ch=1 n=a3 v=102
989760 On ch=1 n=a3 v=0
989760 On ch=1 n=d3 v=102
990240 On ch=1 n=d3 v=0
990240 On ch=1 n=a3 v=102
990720 On ch=1 n=a3 v=0
990720 On ch=1 n=d3 v=102
991200 On ch=1 n=d3 v=0
991200 On ch=1 n=a4 v=102
991680 On ch=1 n=a4 v=0
991680 On ch=1 n=g3 v=108
991680 On ch=1 n=g4 v=102
992160 On ch=1 n=g4 v=0
992160 On ch=1 n=g3 v=0
992160 On ch=1 n=d5 v=102
992640 On ch=1 n=d5 v=0
992640 On ch=1 n=d5 v=108
992640 On ch=1 n=d4 v=102
993120 On ch=1 n=d4 v=0
993120 On ch=1 n=d5 v=0
993120 On ch=1 n=d5 v=102
993600 On ch=1 n=d5 v=0
993600 On ch=1 n=g5 v=108
993600 On ch=1 n=g4 v=102
994080 On ch=1 n=g4 v=0
994080 On ch=1 n=g5 v=0
994080 On ch=1 n=d5 v=102
994560 On ch=1 n=d5 v=0
994560 On ch=1 n=d5 v=108
994560 On ch=1 n=d4 v=102
995040 On ch=1 n=d4 v=0
995040 On ch=1 n=d5 v=0
995040 On ch=1 n=d5 v=102
995520 On ch=1 n=d5 v=0
995520 On ch=1 n=g3 v=102
995520 On ch=1 n=g4 v=102
996000 On ch=1 n=g4 v=0
996000 On ch=1 n=g3 v=0
996000 On ch=1 n=d5 v=102
996480 On ch=1 n=d5 v=0
996480 On ch=1 n=c4 v=102
996960 On ch=1 n=c4 v=0
996960 On ch=1 n=c5 v=102
997440 On ch=1 n=c5 v=0
997440 On ch=1 n=f3 v=102
997920 On ch=1 n=f3 v=0
997920 On ch=1 n=c5 v=102
998400 On ch=1 n=c5 v=0
998400 On ch=1 n=a#3 v=102
998880 On ch=1 n=a#3 v=0
998880 On ch=1 n=a#4 v=102
999360 On ch=1 n=a#4 v=0
999360 On ch=1 n=d#3 v=102
999840 On ch=1 n=d#3 v=0
999840 On ch=1 n=a#4 v=102
1000320 On ch=1 n=a#4 v=0
1000320 On ch=1 n=a3 v=102
1000800 On ch=1 n=a3 v=0
1000800 On ch=1 n=a4 v=102
1001280 On ch=1 n=a4 v=0
1001280 On ch=1 n=d4 v=102
1001760 On ch=1 n=d4 v=0
1001760 On ch=1 n=a4 v=102
1002240 On ch=1 n=a4 v=0
1002240 On ch=1 n=d3 v=102
1002240 On ch=1 n=d4 v=102
1002720 On ch=1 n=d4 v=0
1002720 On ch=1 n=d3 v=0
1002720 On ch=1 n=a4 v=102
1003200 On ch=1 n=a4 v=0
1003200 On ch=1 n=e5 v=121
1003200 On ch=1 n=d4 v=121
1003200 On ch=1 n=g4 v=121
1003440 On ch=1 n=g4 v=0
1003440 On ch=1 n=d4 v=0
1003440 On ch=1 n=e5 v=0
1003652 On ch=1 n=d4 v=121
1003680 On ch=1 n=a4 v=121
1003708 On ch=1 n=f#5 v=121
1003920 On ch=1 n=f#5 v=0
1003920 On ch=1 n=a4 v=0
1003920 On ch=1 n=d4 v=0
1004132 On ch=1 n=d4 v=121
1004160 On ch=1 n=a#4 v=121
1004188 On ch=1 n=g5 v=121
1004400 On ch=1 n=g5 v=0
1004400 On ch=1 n=a#4 v=0
1004400 On ch=1 n=d4 v=0
1004640 On ch=1 n=g5 v=114
1004760 On ch=1 n=g5 v=0
1004760 On ch=1 n=e5 v=114
1004880 On ch=1 n=e5 v=0
1004880 On ch=1 n=c#5 v=114
1005000 On ch=1 n=c#5 v=0
1005000 On ch=1 n=a#4 v=114
1005092 On ch=1 n=d4 v=121
1005120 On ch=1 n=a#4 v=0
1005120 On ch=1 n=g4 v=121
1005148 On ch=1 n=e5 v=121
1005360 On ch=1 n=e5 v=0
1005360 On ch=1 n=g4 v=0
1005360 On ch=1 n=d4 v=0
1005572 On ch=1 n=d4 v=121
1005600 On ch=1 n=a4 v=121
1005628 On ch=1 n=f#5 v=121
1005840 On ch=1 n=f#5 v=0
1005840 On ch=1 n=a4 v=0
1005840 On ch=1 n=d4 v=0
1006052 On ch=1 n=d4 v=121
1006080 On ch=1 n=a#4 v=121
1006108 On ch=1 n=g5 v=121
1006320 On ch=1 n=g5 v=0
1006320 On ch=1 n=a#4 v=0
1006320 On ch=1 n=d4 v=0
1006560 On ch=1 n=g5 v=114
1006680 On ch=1 n=g5 v=0
1006680 On ch=1 n=e5 v=114
1006800 On ch=1 n=e5 v=0
1006800 On ch=1 n=c#5 v=114
1006920 On ch=1 n=c#5 v=0
1006920 On ch=1 n=a#4 v=114
1007040 On ch=1 n=a#4 v=0
1007040 On ch=1 n=d4 v=121
1007096 On ch=1 n=b4 v=121
1007460 On ch=1 n=b4 v=0
1007460 On ch=1 n=d4 v=0
1007460 On ch=1 n=d4 v=121
1007520 On ch=1 n=c5 v=121
1007940 On ch=1 n=c5 v=0
1007940 On ch=1 n=d4 v=0
1007940 On ch=1 n=d4 v=121
1008000 On ch=1 n=d5 v=121
1008480 On ch=1 n=d5 v=0
1008480 On ch=1 n=d4 v=0
1008480 On ch=1 n=d5 v=114
1008576 On ch=1 n=d5 v=0
1008576 On ch=1 n=b4 v=114
1008672 On ch=1 n=b4 v=0
1008672 On ch=1 n=g#4 v=114
1008768 On ch=1 n=g#4 v=0
1008768 On ch=1 n=f4 v=114
1008864 On ch=1 n=f4 v=0
1008864 On ch=1 n=d4 v=114
1008960 On ch=1 n=d4 v=0
1008960 On ch=1 n=d3 v=121
1008960 On ch=1 n=d4 v=121
1009440 On ch=1 n=d4 v=0
1009440 On ch=1 n=d3 v=0
1009440 On ch=1 n=d3 v=121
1009440 On ch=1 n=d4 v=121
1009920 On ch=1 n=d4 v=0
1009920 On ch=1 n=d3 v=0
1009920 On ch=1 n=g3 v=114
1009920 On ch=1 n=d4 v=114
1010400 On ch=1 n=d4 v=0
1010400 On ch=1 n=g3 v=0
1011840 On ch=1 n=c4 v=102
1011960 On ch=1 n=c4 v=0
1011960 On ch=1 n=d4 v=102
1012080 On ch=1 n=d4 v=0
1012080 On ch=1 n=d#4 v=102
1012200 On ch=1 n=d#4 v=0
1012800 On ch=1 n=c5 v=108
1012920 On ch=1 n=c5 v=0
1012920 On ch=1 n=b4 v=102
1013040 On ch=1 n=b4 v=0
1013040 On ch=1 n=c5 v=102
1013160 On ch=1 n=c5 v=0
1013160 On ch=1 n=g4 v=102
1013280 On ch=1 n=g4 v=0
1013760 On ch=1 n=f4 v=108
1013880 On ch=1 n=f4 v=0
1013880 On ch=1 n=e4 v=102
1014000 On ch=1 n=e4 v=0
1014000 On ch=1 n=f4 v=102
1014120 On ch=1 n=f4 v=0
1014120 On ch=1 n=d4 v=102
1014240 On ch=1 n=d4 v=0
1014240 On ch=1 n=g4 v=102
1014360 On ch=1 n=g4 v=0
1014360 On ch=1 n=f4 v=102
1014480 On ch=1 n=f4 v=0
1014480 On ch=1 n=d#4 v=102
1014600 On ch=1 n=d#4 v=0
1014600 On ch=1 n=d4 v=102
1014720 On ch=1 n=d4 v=0
1014720 On ch=1 n=d#4 v=102
1014840 On ch=1 n=d#4 v=0
1014960 On ch=1 n=d#4 v=102
1015080 On ch=1 n=d#4 v=0
1015200 On ch=1 n=d4 v=102
1015320 On ch=1 n=d4 v=0
1015440 On ch=1 n=c4 v=102
1015560 On ch=1 n=c4 v=0
1015680 On ch=1 n=a#3 v=102
1016400 On ch=1 n=a#3 v=0
1016400 On ch=1 n=a3 v=102
1016640 On ch=1 n=a3 v=0
1016640 On ch=1 n=a#3 v=105
1016880 On ch=1 n=a#3 v=0
1016880 On ch=1 n=b3 v=105
1017000 On ch=1 n=b3 v=0
1017120 On ch=1 n=c4 v=108
1017240 On ch=1 n=c4 v=0
1017360 On ch=1 n=d4 v=108
1017480 On ch=1 n=d4 v=0
1017600 On ch=1 n=d#4 v=111
1017720 On ch=1 n=d#4 v=0
1017840 On ch=1 n=c4 v=111
1017960 On ch=1 n=c4 v=0
1018080 On ch=1 n=d4 v=112
1018200 On ch=1 n=d4 v=0
1018320 On ch=1 n=f4 v=113
1018440 On ch=1 n=f4 v=0
1018440 On ch=1 n=d4 v=114
1018560 On ch=1 n=d4 v=0
1018560 On ch=1 n=d#4 v=114
1018800 On ch=1 n=d#4 v=0
1018800 On ch=1 n=d3 v=114
1018800 On ch=1 n=d4 v=114
1018920 On ch=1 n=d4 v=0
1018920 On ch=1 n=d3 v=0
1019040 On ch=1 n=c3 v=114
1019040 On ch=1 n=c4 v=114
1019160 On ch=1 n=c4 v=0
1019160 On ch=1 n=c3 v=0
1019280 On ch=1 n=a#2 v=114
1019280 On ch=1 n=a#3 v=114
1019400 On ch=1 n=a#3 v=0
1019400 On ch=1 n=a#2 v=0
1019520 On ch=1 n=a2 v=127
1019520 On ch=1 n=a3 v=127
1020240 On ch=1 n=a3 v=0
1020240 On ch=1 n=a2 v=0
1020240 On ch=1 n=a2 v=122
1020240 On ch=1 n=a3 v=122
1020480 On ch=1 n=a3 v=0
1020480 On ch=1 n=a2 v=0
1020480 On ch=1 n=a#2 v=127
1020480 On ch=1 n=a#3 v=127
1020960 On ch=1 n=a#3 v=0
1020960 On ch=1 n=a#2 v=0
1020960 On ch=1 n=c3 v=127
1020960 On ch=1 n=c4 v=127
1021440 On ch=1 n=c4 v=0
1021440 On ch=1 n=c3 v=0
1021440 On ch=1 n=d3 v=127
1021440 On ch=1 n=d4 v=127
1021920 On ch=1 n=d4 v=0
1021920 On ch=1 n=d3 v=0
1021920 On ch=1 n=g3 v=127
1021920 On ch=1 n=d4 v=127
1022160 On ch=1 n=d4 v=0
1022160 On ch=1 n=g3 v=0
1023360 On ch=1 n=c4 v=102
1023480 On ch=1 n=c4 v=0
1023480 On ch=1 n=d4 v=102
1023600 On ch=1 n=d4 v=0
1023600 On ch=1 n=d#4 v=102
1023720 On ch=1 n=d#4 v=0
1024320 On ch=1 n=c5 v=108
1024440 On ch=1 n=c5 v=0
1024440 On ch=1 n=b4 v=102
1024560 On ch=1 n=b4 v=0
1024560 On ch=1 n=c5 v=102
1024680 On ch=1 n=c5 v=0
1024680 On ch=1 n=g4 v=102
1024800 On ch=1 n=g4 v=0
1025280 On ch=1 n=f4 v=108
1025400 On ch=1 n=f4 v=0
1025400 On ch=1 n=e4 v=102
1025520 On ch=1 n=e4 v=0
1025520 On ch=1 n=f4 v=102
1025640 On ch=1 n=f4 v=0
1025640 On ch=1 n=d4 v=102
1025760 On ch=1 n=d4 v=0
1025760 On ch=1 n=g4 v=102
1025880 On ch=1 n=g4 v=0
1025880 On ch=1 n=f4 v=102
1026000 On ch=1 n=f4 v=0
1026000 On ch=1 n=d#4 v=102
1026120 On ch=1 n=d#4 v=0
1026120 On ch=1 n=d4 v=102
1026240 On ch=1 n=d4 v=0
1026240 On ch=1 n=d#4 v=102
1026360 On ch=1 n=d#4 v=0
1026480 On ch=1 n=d#4 v=102
1026600 On ch=1 n=d#4 v=0
1026720 On ch=1 n=d4 v=102
1026840 On ch=1 n=d4 v=0
1026960 On ch=1 n=c4 v=102
1027080 On ch=1 n=c4 v=0
1027200 On ch=1 n=a#3 v=102
1027920 On ch=1 n=a#3 v=0
1027920 On ch=1 n=a3 v=102
1028160 On ch=1 n=a3 v=0
1028160 On ch=1 n=a#3 v=105
1028400 On ch=1 n=a#3 v=0
1028400 On ch=1 n=b3 v=105
1028520 On ch=1 n=b3 v=0
1028640 On ch=1 n=c4 v=108
1028760 On ch=1 n=c4 v=0
1028880 On ch=1 n=d4 v=108
1029000 On ch=1 n=d4 v=0
1029120 On ch=1 n=d#4 v=111
1029240 On ch=1 n=d#4 v=0
1029360 On ch=1 n=c4 v=111
1029480 On ch=1 n=c4 v=0
1029600 On ch=1 n=d4 v=112
1029720 On ch=1 n=d4 v=0
1029840 On ch=1 n=f4 v=113
1029960 On ch=1 n=f4 v=0
1029960 On ch=1 n=d4 v=114
1030080 On ch=1 n=d4 v=0
1030080 On ch=1 n=d#4 v=114
1030320 On ch=1 n=d#4 v=0
1030320 On ch=1 n=d3 v=114
1030320 On ch=1 n=d4 v=114
1030440 On ch=1 n=d4 v=0
1030440 On ch=1 n=d3 v=0
1030560 On ch=1 n=c3 v=114
1030560 On ch=1 n=c4 v=114
1030680 On ch=1 n=c4 v=0
1030680 On ch=1 n=c3 v=0
1030800 On ch=1 n=a#2 v=114
1030800 On ch=1 n=a#3 v=114
1030920 On ch=1 n=a#3 v=0
1030920 On ch=1 n=a#2 v=0
1031040 On ch=1 n=a2 v=127
1031040 On ch=1 n=a3 v=127
1031760 On ch=1 n=a3 v=0
1031760 On ch=1 n=a2 v=0
1031760 On ch=1 n=a2 v=122
1031760 On ch=1 n=a3 v=122
1032000 On ch=1 n=a3 v=0
1032000 On ch=1 n=a2 v=0
1032000 On ch=1 n=a#2 v=127
1032000 On ch=1 n=a#3 v=127
1032480 On ch=1 n=a#3 v=0
1032480 On ch=1 n=a#2 v=0
1032480 On ch=1 n=c3 v=127
1032480 On ch=1 n=c4 v=127
1032960 On ch=1 n=c4 v=0
1032960 On ch=1 n=c3 v=0
1032960 On ch=1 n=d3 v=127
1032960 On ch=1 n=d4 v=127
1033440 On ch=1 n=d4 v=0
1033440 On ch=1 n=d3 v=0
1033440 On ch=1 n=g3 v=127
1033440 On ch=1 n=d4 v=127
1033680 On ch=1 n=d4 v=0
1033680 On ch=1 n=g3 v=0
1033920 On ch=1 n=c3 v=102
1034100 On ch=1 n=c3 v=0
1034160 On ch=1 n=c4 v=102
1034640 On ch=1 n=c4 v=0
1034640 On ch=1 n=e4 v=102
1034880 On ch=1 n=e4 v=0
1034880 On ch=1 n=f4 v=106
1035120 On ch=1 n=f3 v=110
1035600 On ch=1 n=f3 v=0
1035600 On ch=1 n=g#3 v=120
1035840 On ch=1 n=g#3 v=0
1035840 On ch=1 n=a#3 v=102
1036080 On ch=1 n=f4 v=0
1036080 On ch=1 n=f4 v=102
1036320 On ch=1 n=f4 v=0
1036320 On ch=1 n=g4 v=102
1036560 On ch=1 n=g4 v=0
1036560 On ch=1 n=a4 v=102
1036800 On ch=1 n=a4 v=0
1036800 On ch=1 n=a#4 v=106
1037040 On ch=1 n=a#3 v=0
1037040 On ch=1 n=a#3 v=110
1037520 On ch=1 n=a#3 v=0
1037520 On ch=1 n=d4 v=120
1037760 On ch=1 n=d4 v=0
1037760 On ch=1 n=d#4 v=102
1038000 On ch=1 n=a#4 v=0
1038000 On ch=1 n=b4 v=102
1038240 On ch=1 n=b4 v=0
1038240 On ch=1 n=c5 v=102
1038480 On ch=1 n=c5 v=0
1038480 On ch=1 n=d5 v=102
1038720 On ch=1 n=d5 v=0
1038720 On ch=1 n=d#5 v=106
1038960 On ch=1 n=d#4 v=0
1038960 On ch=1 n=d#4 v=110
1039440 On ch=1 n=d#4 v=0
1039440 On ch=1 n=g4 v=120
1039680 On ch=1 n=g4 v=0
1039680 On ch=1 n=g#4 v=108
1039920 On ch=1 n=d#5 v=0
1039920 On ch=1 n=d#5 v=102
1039920 On ch=1 n=c5 v=102
1040160 On ch=1 n=g#4 v=0
1040160 On ch=1 n=a4 v=111
1040400 On ch=1 n=c5 v=0
1040400 On ch=1 n=d#5 v=0
1040400 On ch=1 n=f#5 v=105
1040400 On ch=1 n=d#5 v=105
1040400 On ch=1 n=c5 v=105
1040640 On ch=1 n=c5 v=0
1040640 On ch=1 n=d#5 v=0
1040640 On ch=1 n=f#5 v=0
1040640 On ch=1 n=a4 v=0
1040640 On ch=1 n=b4 v=108
1040640 On ch=1 n=d5 v=108
1040640 On ch=1 n=f5 v=108
1040640 On ch=1 n=g5 v=108
1040880 On ch=1 n=g5 v=0
1040880 On ch=1 n=f5 v=0
1040880 On ch=1 n=d5 v=0
1040880 On ch=1 n=b4 v=0
1040880 On ch=1 n=c5 v=108
1040880 On ch=1 n=d#5 v=108
1040880 On ch=1 n=g#5 v=108
1041120 On ch=1 n=g#5 v=0
1041120 On ch=1 n=d#5 v=0
1041120 On ch=1 n=c5 v=0
1041120 On ch=1 n=d5 v=111
1041120 On ch=1 n=f5 v=111
1041120 On ch=1 n=g5 v=111
1041120 On ch=1 n=b5 v=111
1041360 On ch=1 n=b5 v=0
1041360 On ch=1 n=g5 v=0
1041360 On ch=1 n=f5 v=0
1041360 On ch=1 n=d5 v=0
1041360 On ch=1 n=d#5 v=111
1041360 On ch=1 n=g5 v=111
1041360 On ch=1 n=c6 v=111
1041600 On ch=1 n=c6 v=0
1041600 On ch=1 n=g5 v=0
1041600 On ch=1 n=d#5 v=0
1041600 On ch=1 n=f5 v=114
1041600 On ch=1 n=g5 v=114
1041600 On ch=1 n=d6 v=114
1041840 On ch=1 n=d6 v=0
1041840 On ch=1 n=g5 v=0
1041840 On ch=1 n=f5 v=0
1041840 On ch=1 n=g4 v=120
1041840 On ch=1 n=g5 v=120
1042320 On ch=1 n=g5 v=0
1042320 On ch=1 n=g4 v=0
1042320 On ch=1 n=g4 v=114
1042320 On ch=1 n=g5 v=114
1042560 On ch=1 n=g4 v=0
1042560 On ch=1 n=c5 v=118
1042800 On ch=1 n=c5 v=0
1042800 On ch=1 n=g5 v=0
1042800 On ch=1 n=d#5 v=122
1043040 On ch=1 n=d#5 v=0
1043040 On ch=1 n=a5 v=125
1043280 On ch=1 n=a5 v=0
1043280 On ch=1 n=c6 v=127
1043520 On ch=1 n=c6 v=0
1043520 On ch=1 n=d5 v=114
1043520 On ch=1 n=f5 v=114
1043520 On ch=1 n=b5 v=114
1043760 On ch=1 n=b5 v=0
1043760 On ch=1 n=f5 v=0
1043760 On ch=1 n=d5 v=0
1043760 On ch=1 n=g4 v=120
1043760 On ch=1 n=g5 v=120
1044240 On ch=1 n=g5 v=0
1044240 On ch=1 n=g4 v=0
1044240 On ch=1 n=g4 v=114
1044240 On ch=1 n=g5 v=114
1044480 On ch=1 n=g4 v=0
1044480 On ch=1 n=c5 v=118
1044720 On ch=1 n=c5 v=0
1044720 On ch=1 n=g5 v=0
1044720 On ch=1 n=d#5 v=122
1044960 On ch=1 n=d#5 v=0
1044960 On ch=1 n=a5 v=125
1045200 On ch=1 n=a5 v=0
1045200 On ch=1 n=c6 v=127
1045440 On ch=1 n=c6 v=0
1045440 On ch=1 n=d5 v=120
1045440 On ch=1 n=f5 v=120
1045440 On ch=1 n=a#5 v=120
1045620 On ch=1 n=a#5 v=0
1045620 On ch=1 n=f5 v=0
1045620 On ch=1 n=d5 v=0
1045680 On ch=1 n=g4 v=114
1045860 On ch=1 n=g4 v=0
1045920 On ch=1 n=d#5 v=120
1045920 On ch=1 n=g5 v=120
1045920 On ch=1 n=c6 v=120
1046100 On ch=1 n=c6 v=0
1046100 On ch=1 n=g5 v=0
1046100 On ch=1 n=d#5 v=0
1046160 On ch=1 n=g4 v=114
1046340 On ch=1 n=g4 v=0
1046400 On ch=1 n=f5 v=120
1046400 On ch=1 n=g#5 v=120
1046580 On ch=1 n=g#5 v=0
1046580 On ch=1 n=f5 v=0
1046640 On ch=1 n=g4 v=114
1046820 On ch=1 n=g4 v=0
1046880 On ch=1 n=d#5 v=120
1046880 On ch=1 n=g5 v=120
1047120 On ch=1 n=g4 v=114
1047360 On ch=1 n=g5 v=0
1047360 On ch=1 n=d#5 v=0
1047360 On ch=1 n=d5 v=120
1047360 On ch=1 n=f5 v=120
1047600 On ch=1 n=g4 v=0
1047600 On ch=1 n=g4 v=114
1047840 On ch=1 n=f5 v=0
1047840 On ch=1 n=d5 v=0
1047840 On ch=1 n=c5 v=120
1047840 On ch=1 n=d#5 v=120
1048080 On ch=1 n=g4 v=0
1048080 On ch=1 n=g4 v=114
1048320 On ch=1 n=d#5 v=0
1048320 On ch=1 n=c5 v=0
1048320 On ch=1 n=b4 v=120
1048320 On ch=1 n=d5 v=120
1048560 On ch=1 n=d5 v=0
1048560 On ch=1 n=b4 v=0
1048560 On ch=1 n=g4 v=0
1048560 On ch=1 n=g4 v=127
1049040 On ch=1 n=g4 v=0
1049040 On ch=1 n=g3 v=114
1049040 On ch=1 n=g4 v=114
1049280 On ch=1 n=g4 v=0
1049280 On ch=1 n=g3 v=0
1049280 On ch=1 n=c3 v=120
1049280 On ch=1 n=c4 v=120
1049760 On ch=1 n=c4 v=0
1049760 On ch=1 n=c3 v=0
1049760 On ch=1 n=c4 v=114
1050240 On ch=1 n=c4 v=0
1050240 On ch=1 n=g4 v=120
1050240 On ch=1 n=g3 v=120
1050720 On ch=1 n=g3 v=0
1050720 On ch=1 n=g4 v=0
1050720 On ch=1 n=g4 v=114
1051200 On ch=1 n=g4 v=0
1051200 On ch=1 n=c5 v=120
1051200 On ch=1 n=c4 v=120
1051680 On ch=1 n=c4 v=0
1051680 On ch=1 n=c5 v=0
1051680 On ch=1 n=g4 v=114
1052160 On ch=1 n=g4 v=0
1052160 On ch=1 n=g4 v=120
1052160 On ch=1 n=g3 v=120
1052640 On ch=1 n=g3 v=0
1052640 On ch=1 n=g4 v=0
1052640 On ch=1 n=g4 v=114
1053120 On ch=1 n=g4 v=0
1053120 On ch=1 n=c3 v=120
1053120 On ch=1 n=c4 v=120
1053600 On ch=1 n=c4 v=0
1053600 On ch=1 n=c3 v=0
1053600 On ch=1 n=g4 v=114
1054080 On ch=1 n=g4 v=0
1054080 On ch=1 n=f4 v=120
1054080 On ch=1 n=f3 v=120
1054560 On ch=1 n=f3 v=0
1054560 On ch=1 n=f4 v=0
1054560 On ch=1 n=f4 v=114
1055040 On ch=1 n=f4 v=0
1055040 On ch=1 n=a#2 v=120
1055040 On ch=1 n=a#3 v=120
1055520 On ch=1 n=a#3 v=0
1055520 On ch=1 n=a#2 v=0
1055520 On ch=1 n=f4 v=114
1056000 On ch=1 n=f4 v=0
1056000 On ch=1 n=d#4 v=120
1056000 On ch=1 n=d#3 v=120
1056480 On ch=1 n=d#3 v=0
1056480 On ch=1 n=d#4 v=0
1056480 On ch=1 n=d#4 v=114
1056960 On ch=1 n=d#4 v=0
1056960 On ch=1 n=g#2 v=120
1056960 On ch=1 n=g#3 v=120
1057440 On ch=1 n=g#3 v=0
1057440 On ch=1 n=g#2 v=0
1057440 On ch=1 n=d#4 v=114
1057920 On ch=1 n=d#4 v=0
1057920 On ch=1 n=d4 v=120
1057920 On ch=1 n=d3 v=120
1058400 On ch=1 n=d3 v=0
1058400 On ch=1 n=d4 v=0
1058400 On ch=1 n=d4 v=114
1058880 On ch=1 n=d4 v=0
1058880 On ch=1 n=g2 v=120
1058880 On ch=1 n=g3 v=120
1059360 On ch=1 n=g3 v=0
1059360 On ch=1 n=g2 v=0
1059360 On ch=1 n=d4 v=114
1059840 On ch=1 n=d4 v=0
1059840 On ch=1 n=g2 v=120
1059840 On ch=1 n=g3 v=114
1060320 On ch=1 n=g3 v=0
1060320 On ch=1 n=g2 v=0
1060320 On ch=1 n=d4 v=114
1060560 On ch=1 n=d4 v=0
1060772 On ch=1 n=g3 v=108
1060800 On ch=1 n=c4 v=108
1060828 On ch=1 n=a4 v=108
1061040 On ch=1 n=a4 v=0
1061040 On ch=1 n=c4 v=0
1061040 On ch=1 n=g3 v=0
1061252 On ch=1 n=g3 v=108
1061280 On ch=1 n=d4 v=108
1061308 On ch=1 n=b4 v=108
1061520 On ch=1 n=b4 v=0
1061520 On ch=1 n=d4 v=0
1061520 On ch=1 n=g3 v=0
1061732 On ch=1 n=g3 v=108
1061760 On ch=1 n=d#4 v=108
1061788 On ch=1 n=c5 v=108
1062000 On ch=1 n=c5 v=0
1062000 On ch=1 n=d#4 v=0
1062000 On ch=1 n=g3 v=0
1062240 On ch=1 n=c5 v=102
1062360 On ch=1 n=c5 v=0
1062360 On ch=1 n=a4 v=102
1062480 On ch=1 n=a4 v=0
1062480 On ch=1 n=f#4 v=102
1062600 On ch=1 n=f#4 v=0
1062600 On ch=1 n=d#4 v=102
1062692 On ch=1 n=g3 v=108
1062720 On ch=1 n=d#4 v=0
1062720 On ch=1 n=c4 v=108
1062748 On ch=1 n=a4 v=108
1062960 On ch=1 n=a4 v=0
1062960 On ch=1 n=c4 v=0
1062960 On ch=1 n=g3 v=0
1063172 On ch=1 n=g3 v=108
1063200 On ch=1 n=d4 v=108
1063228 On ch=1 n=b4 v=108
1063440 On ch=1 n=b4 v=0
1063440 On ch=1 n=d4 v=0
1063440 On ch=1 n=g3 v=0
1063652 On ch=1 n=g3 v=108
1063680 On ch=1 n=d#4 v=108
1063708 On ch=1 n=c5 v=108
1063920 On ch=1 n=c5 v=0
1063920 On ch=1 n=d#4 v=0
1063920 On ch=1 n=g3 v=0
1064160 On ch=1 n=c5 v=102
1064280 On ch=1 n=c5 v=0
1064280 On ch=1 n=a4 v=102
1064400 On ch=1 n=a4 v=0
1064400 On ch=1 n=f#4 v=102
1064520 On ch=1 n=f#4 v=0
1064520 On ch=1 n=d#4 v=102
1064640 On ch=1 n=d#4 v=0
1064640 On ch=1 n=g3 v=108
1064696 On ch=1 n=e4 v=108
1065060 On ch=1 n=e4 v=0
1065060 On ch=1 n=g3 v=0
1065060 On ch=1 n=g3 v=108
1065120 On ch=1 n=f4 v=108
1065540 On ch=1 n=f4 v=0
1065540 On ch=1 n=g3 v=0
1065540 On ch=1 n=g3 v=108
1065600 On ch=1 n=g4 v=108
1066080 On ch=1 n=g4 v=0
1066080 On ch=1 n=g3 v=0
1066080 On ch=1 n=g4 v=102
1066176 On ch=1 n=g4 v=0
1066176 On ch=1 n=e4 v=102
1066272 On ch=1 n=e4 v=0
1066272 On ch=1 n=c#4 v=102
1066368 On ch=1 n=c#4 v=0
1066368 On ch=1 n=a#3 v=102
1066464 On ch=1 n=a#3 v=0
1066464 On ch=1 n=g3 v=102
1066560 On ch=1 n=g3 v=0
1066560 On ch=1 n=g2 v=108
1066560 On ch=1 n=g3 v=108
1067040 On ch=1 n=g3 v=0
1067040 On ch=1 n=g2 v=0
1067040 On ch=1 n=g2 v=108
1067040 On ch=1 n=g3 v=108
1067520 On ch=1 n=g3 v=0
1067520 On ch=1 n=g2 v=0
1067520 On ch=1 n=c3 v=102
1067520 On ch=1 n=g3 v=102
1068000 On ch=1 n=g3 v=0
1068000 On ch=1 n=c3 v=0
1068000 On ch=1 n=c3 v=102
1068240 On ch=1 n=c3 v=0
1068240 On ch=1 n=d#4 v=65
1068240 On ch=1 n=g4 v=65
1068480 On ch=1 n=g4 v=0
1068480 On ch=1 n=d#4 v=0
1068480 On ch=1 n=d4 v=65
1068480 On ch=1 n=f4 v=65
1068840 On ch=1 n=f4 v=0
1068840 On ch=1 n=d4 v=0
1068960 On ch=1 n=c4 v=65
1068960 On ch=1 n=f4 v=65
1069320 On ch=1 n=f4 v=0
1069320 On ch=1 n=c4 v=0
1069440 On ch=1 n=a#3 v=65
1069440 On ch=1 n=f4 v=65
1069800 On ch=1 n=f4 v=0
1069800 On ch=1 n=a#3 v=0
1070160 On ch=1 n=d#4 v=65
1070160 On ch=1 n=g4 v=65
1070400 On ch=1 n=g4 v=0
1070400 On ch=1 n=d#4 v=0
1070400 On ch=1 n=d4 v=65
1070400 On ch=1 n=f4 v=65
1070760 On ch=1 n=f4 v=0
1070760 On ch=1 n=d4 v=0
1070880 On ch=1 n=c4 v=65
1070880 On ch=1 n=f4 v=65
1071240 On ch=1 n=f4 v=0
1071240 On ch=1 n=c4 v=0
1071360 On ch=1 n=a#3 v=65
1071360 On ch=1 n=f4 v=65
1071720 On ch=1 n=f4 v=0
1071720 On ch=1 n=a#3 v=0
1072080 On ch=1 n=a#3 v=65
1072080 On ch=1 n=f4 v=65
1072320 On ch=1 n=f4 v=0
1072320 On ch=1 n=a#3 v=0
1072320 On ch=1 n=d#3 v=65
1072320 On ch=1 n=d#4 v=65
1072680 On ch=1 n=d#4 v=0
1072680 On ch=1 n=d#3 v=0
1072800 On ch=1 n=g3 v=65
1072800 On ch=1 n=d#4 v=65
1073160 On ch=1 n=d#4 v=0
1073160 On ch=1 n=g3 v=0
1073280 On ch=1 n=a#3 v=65
1073280 On ch=1 n=d4 v=65
1073760 On ch=1 n=d4 v=0
1073760 On ch=1 n=a#3 v=0
1074000 On ch=1 n=a#3 v=65
1074000 On ch=1 n=d4 v=65
1074240 On ch=1 n=d4 v=0
1074240 On ch=1 n=a#3 v=0
1074240 On ch=1 n=d#3 v=65
1074240 On ch=1 n=d#4 v=65
1074600 On ch=1 n=d#4 v=0
1074600 On ch=1 n=d#3 v=0
1074720 On ch=1 n=g3 v=65
1074720 On ch=1 n=d#4 v=65
1075080 On ch=1 n=d#4 v=0
1075080 On ch=1 n=g3 v=0
1075200 On ch=1 n=a#3 v=65
1075200 On ch=1 n=d4 v=65
1075680 On ch=1 n=d4 v=0
1075680 On ch=1 n=a#3 v=0
1075920 On ch=1 n=a#3 v=65
1075920 On ch=1 n=d4 v=65
1076160 On ch=1 n=d4 v=0
1076160 On ch=1 n=a#3 v=0
1076160 On ch=1 n=c4 v=65
1076160 On ch=1 n=a#3 v=65
1076520 On ch=1 n=a#3 v=0
1076520 On ch=1 n=c4 v=0
1076640 On ch=1 n=a3 v=65
1076640 On ch=1 n=c4 v=65
1077000 On ch=1 n=c4 v=0
1077000 On ch=1 n=a3 v=0
1077120 On ch=1 n=a#3 v=65
1077120 On ch=1 n=a3 v=65
1077600 On ch=1 n=a3 v=0
1077600 On ch=1 n=a#3 v=0
1077840 On ch=1 n=a#3 v=65
1078080 On ch=1 n=a#3 v=0
1078080 On ch=1 n=d#3 v=65
1078080 On ch=1 n=a#3 v=65
1078440 On ch=1 n=a#3 v=0
1078440 On ch=1 n=d#3 v=0
1078560 On ch=1 n=f3 v=65
1078560 On ch=1 n=a3 v=65
1078920 On ch=1 n=a3 v=0
1078920 On ch=1 n=f3 v=0
1079040 On ch=1 n=a#2 v=65
1079040 On ch=1 n=a#3 v=65
1079760 On ch=1 n=c5 v=53
1079760 On ch=1 n=g#4 v=53
1080000 On ch=1 n=g#4 v=0
1080000 On ch=1 n=c5 v=0
1080000 On ch=1 n=g4 v=53
1080000 On ch=1 n=a#4 v=53
1080360 On ch=1 n=a#4 v=0
1080360 On ch=1 n=g4 v=0
1080480 On ch=1 n=a#3 v=0
1080480 On ch=1 n=a#2 v=0
1080480 On ch=1 n=f4 v=53
1080480 On ch=1 n=a#4 v=53
1080840 On ch=1 n=a#4 v=0
1080840 On ch=1 n=f4 v=0
1080960 On ch=1 n=d#4 v=53
1080960 On ch=1 n=a#4 v=53
1081320 On ch=1 n=a#4 v=0
1081320 On ch=1 n=d#4 v=0
1081680 On ch=1 n=g#4 v=53
1081680 On ch=1 n=c5 v=53
1081920 On ch=1 n=c5 v=0
1081920 On ch=1 n=g#4 v=0
1081920 On ch=1 n=g4 v=53
1081920 On ch=1 n=a#4 v=53
1082280 On ch=1 n=a#4 v=0
1082280 On ch=1 n=g4 v=0
1082400 On ch=1 n=f4 v=53
1082400 On ch=1 n=a#4 v=53
1082760 On ch=1 n=a#4 v=0
1082760 On ch=1 n=f4 v=0
1082880 On ch=1 n=d#4 v=53
1082880 On ch=1 n=a#4 v=53
1083360 On ch=1 n=a#4 v=0
1083360 On ch=1 n=d#4 v=0
1083600 On ch=1 n=d#4 v=53
1083600 On ch=1 n=a#4 v=53
1083840 On ch=1 n=a#4 v=0
1083840 On ch=1 n=d#4 v=0
1083840 On ch=1 n=c4 v=56
1083840 On ch=1 n=a#4 v=56
1084320 On ch=1 n=a#4 v=0
1084320 On ch=1 n=c4 v=0
1084320 On ch=1 n=d4 v=59
1084320 On ch=1 n=a4 v=59
1084800 On ch=1 n=a4 v=0
1084800 On ch=1 n=d4 v=0
1084800 On ch=1 n=g3 v=62
1084800 On ch=1 n=g4 v=62
1085280 On ch=1 n=g4 v=0
1085280 On ch=1 n=g3 v=0
1085520 On ch=1 n=g3 v=65
1085520 On ch=1 n=d#4 v=65
1085760 On ch=1 n=d#4 v=0
1085760 On ch=1 n=g3 v=0
1085760 On ch=1 n=g#3 v=65
1085760 On ch=1 n=d#4 v=65
1086240 On ch=1 n=d#4 v=0
1086240 On ch=1 n=g#3 v=0
1086240 On ch=1 n=a#3 v=65
1086240 On ch=1 n=d4 v=65
1086720 On ch=1 n=d4 v=0
1086720 On ch=1 n=a#3 v=0
1086720 On ch=1 n=c4 v=65
1087200 On ch=1 n=c4 v=0
1087440 On ch=1 n=c4 v=65
1087680 On ch=1 n=c4 v=0
1087680 On ch=1 n=f3 v=65
1088160 On ch=1 n=f3 v=0
1088160 On ch=1 n=a#3 v=65
1088640 On ch=1 n=a#3 v=0
1088640 On ch=1 n=g3 v=65
1089120 On ch=1 n=g3 v=0
1089360 On ch=1 n=c4 v=63
1089600 On ch=1 n=c4 v=0
1089600 On ch=1 n=f3 v=61
1090080 On ch=1 n=f3 v=0
1090080 On ch=1 n=a#3 v=59
1090560 On ch=1 n=a#3 v=0
1090560 On ch=1 n=d#3 v=57
1091040 On ch=1 n=d#3 v=0
1091280 On ch=1 n=d#3 v=55
1091520 On ch=1 n=d#3 v=0
1091520 On ch=1 n=g#3 v=53
1092480 On ch=1 n=g#3 v=0
1092480 On ch=1 n=g3 v=49
1092960 On ch=1 n=g3 v=0
1093200 On ch=1 n=d#3 v=47
1093440 On ch=1 n=d#3 v=0
1093440 On ch=1 n=c4 v=45
1093920 On ch=1 n=c4 v=0
1093920 On ch=1 n=b3 v=45
1094400 On ch=1 n=b3 v=0
1094400 On ch=1 n=a#3 v=45
1095360 On ch=1 n=a#3 v=0
1096800 On ch=1 n=g2 v=53
1096800 On ch=1 n=g3 v=53
1099440 On ch=1 n=g2 v=0
1099440 On ch=1 n=g2 v=53
1099680 On ch=1 n=g2 v=0
1099680 On ch=1 n=c3 v=53
1100160 On ch=1 n=c3 v=0
1100160 On ch=1 n=c3 v=53
1100400 On ch=1 n=c3 v=0
1100400 On ch=1 n=g3 v=0
1100400 On ch=1 n=d3 v=65
1100880 On ch=1 n=d2 v=53
1101120 On ch=1 n=d2 v=0
1101120 On ch=1 n=g2 v=53
1103760 On ch=1 n=g2 v=0
1103760 On ch=1 n=g2 v=70
1105200 On ch=1 n=g2 v=0
1105200 On ch=1 n=g2 v=53
1105440 On ch=1 n=g2 v=0
1105440 On ch=1 n=d3 v=0
1105440 On ch=1 n=c3 v=53
1105920 On ch=1 n=c3 v=0
1105920 On ch=1 n=a2 v=53
1106160 On ch=1 n=a2 v=0
1106160 On ch=1 n=d3 v=65
1106640 On ch=1 n=d2 v=53
1106880 On ch=1 n=d2 v=0
1106880 On ch=1 n=g2 v=53
1107600 On ch=1 n=g2 v=0
1107600 On ch=1 n=d3 v=0
1108320 On ch=1 n=d3 v=69
1108320 On ch=1 n=d4 v=69
1110960 On ch=1 n=d4 v=0
1110960 On ch=1 n=d3 v=0
1110960 On ch=1 n=g2 v=81
1110960 On ch=1 n=g3 v=81
1114560 On ch=1 n=g3 v=0
1114560 On ch=1 n=g2 v=0
1114560 On ch=1 n=f3 v=96
1114560 On ch=1 n=f4 v=96
1116000 On ch=1 n=f4 v=0
1116000 On ch=1 n=f3 v=0
1116000 On ch=1 n=a#2 v=102
1116000 On ch=1 n=a#3 v=102
1117680 On ch=1 n=a#3 v=0
1117680 On ch=1 n=a#2 v=0
1117680 On ch=1 n=c3 v=102
1117680 On ch=1 n=c4 v=102
1118160 On ch=1 n=c4 v=0
1118160 On ch=1 n=c3 v=0
1118160 On ch=1 n=c#3 v=84
1118160 On ch=1 n=c#4 v=84
1118400 On ch=1 n=c#4 v=0
1118400 On ch=1 n=c#3 v=0
1118400 On ch=1 n=d3 v=78
1118400 On ch=1 n=d4 v=78
1119600 On ch=1 n=d4 v=0
1119600 On ch=1 n=d3 v=0
1119600 On ch=1 n=d3 v=53
1119600 On ch=1 n=d4 v=53
1119840 On ch=1 n=d4 v=0
1119840 On ch=1 n=d3 v=0
1119840 On ch=1 n=g2 v=53
1119840 On ch=1 n=g3 v=53
1120020 On ch=1 n=g3 v=0
1120020 On ch=1 n=g2 v=0
1120320 On ch=1 n=g2 v=53
1120320 On ch=1 n=g3 v=53
1120500 On ch=1 n=g3 v=0
1120500 On ch=1 n=g2 v=0
1120560 On ch=1 n=g2 v=53
1120560 On ch=1 n=g3 v=53
1120740 On ch=1 n=g3 v=0
1120740 On ch=1 n=g2 v=0
1121040 On ch=1 n=g2 v=53
1121040 On ch=1 n=g3 v=53
1122480 On ch=1 n=g2 v=0
1122480 On ch=1 n=g2 v=53
1122720 On ch=1 n=g2 v=0
1122720 On ch=1 n=c3 v=53
1123200 On ch=1 n=c3 v=0
1123200 On ch=1 n=a2 v=53
1123440 On ch=1 n=a2 v=0
1123440 On ch=1 n=g3 v=0
1123440 On ch=1 n=d3 v=65
1123920 On ch=1 n=d2 v=53
1124160 On ch=1 n=d2 v=0
1124160 On ch=1 n=g2 v=53
1126080 On ch=1 n=g2 v=0
1126080 On ch=1 n=g2 v=61
1126800 On ch=1 n=g2 v=0
1126800 On ch=1 n=g2 v=70
1128240 On ch=1 n=g2 v=0
1128240 On ch=1 n=g2 v=65
1128480 On ch=1 n=g2 v=0
1128480 On ch=1 n=d3 v=0
1128480 On ch=1 n=c3 v=65
1128960 On ch=1 n=c3 v=0
1128960 On ch=1 n=a2 v=65
1129200 On ch=1 n=a2 v=0
1129200 On ch=1 n=d3 v=65
1129680 On ch=1 n=d2 v=65
1129920 On ch=1 n=d2 v=0
1129920 On ch=1 n=g2 v=65
1130400 On ch=1 n=g2 v=0
1130400 On ch=1 n=d3 v=0
1131360 On ch=1 n=d3 v=69
1131360 On ch=1 n=d4 v=69
1134000 On ch=1 n=d4 v=0
1134000 On ch=1 n=d3 v=0
1134000 On ch=1 n=g2 v=81
1134000 On ch=1 n=g3 v=81
1137600 On ch=1 n=g3 v=0
1137600 On ch=1 n=g2 v=0
1137600 On ch=1 n=f3 v=96
1137600 On ch=1 n=f4 v=96
1139040 On ch=1 n=f4 v=0
1139040 On ch=1 n=f3 v=0
1139040 On ch=1 n=a#2 v=102
1139040 On ch=1 n=a#3 v=102
1140720 On ch=1 n=a#3 v=0
1140720 On ch=1 n=a#2 v=0
1140720 On ch=1 n=c3 v=102
1140720 On ch=1 n=c4 v=102
1141200 On ch=1 n=c4 v=0
1141200 On ch=1 n=c3 v=0
1141200 On ch=1 n=c#3 v=84
1141200 On ch=1 n=c#4 v=84
1141440 On ch=1 n=c#4 v=0
1141440 On ch=1 n=c#3 v=0
1141440 On ch=1 n=d3 v=78
1141440 On ch=1 n=d4 v=78
1142640 On ch=1 n=d4 v=0
1142640 On ch=1 n=d3 v=0
1142640 On ch=1 n=d3 v=53
1142640 On ch=1 n=d4 v=53
1142880 On ch=1 n=d4 v=0
1142880 On ch=1 n=d3 v=0
1142880 On ch=1 n=g2 v=53
1142880 On ch=1 n=g3 v=53
1143060 On ch=1 n=g3 v=0
1143060 On ch=1 n=g2 v=0
1143360 On ch=1 n=g2 v=53
1143360 On ch=1 n=g3 v=53
1143540 On ch=1 n=g3 v=0
1143540 On ch=1 n=g2 v=0
1143600 On ch=1 n=g2 v=53
1143600 On ch=1 n=g3 v=53
1143780 On ch=1 n=g3 v=0
1143780 On ch=1 n=g2 v=0
1144080 On ch=1 n=g2 v=53
1144080 On ch=1 n=g3 v=53
1145520 On ch=1 n=g2 v=0
1145520 On ch=1 n=g2 v=53
1145760 On ch=1 n=g2 v=0
1145760 On ch=1 n=c3 v=53
1146240 On ch=1 n=c3 v=0
1146240 On ch=1 n=a2 v=53
1146480 On ch=1 n=a2 v=0
1146480 On ch=1 n=g3 v=0
1146480 On ch=1 n=d3 v=65
1146960 On ch=1 n=d2 v=53
1147200 On ch=1 n=d2 v=0
1147200 On ch=1 n=g2 v=53
1149120 On ch=1 n=g2 v=0
1149120 On ch=1 n=g2 v=61
1149840 On ch=1 n=g2 v=0
1149840 On ch=1 n=g2 v=70
1151280 On ch=1 n=g2 v=0
1151280 On ch=1 n=g2 v=65
1151520 On ch=1 n=g2 v=0
1151520 On ch=1 n=d3 v=0
1151520 On ch=1 n=c3 v=65
1152000 On ch=1 n=c3 v=0
1152000 On ch=1 n=a2 v=65
1152240 On ch=1 n=a2 v=0
1152240 On ch=1 n=d3 v=65
1152720 On ch=1 n=d2 v=65
1152960 On ch=1 n=d2 v=0
1152960 On ch=1 n=g2 v=65
1153440 On ch=1 n=g2 v=0
1153440 On ch=1 n=d3 v=0
1154340 On ch=1 n=a#2 v=78
1154400 On ch=1 n=a#3 v=78
1155060 On ch=1 n=c3 v=82
1155120 On ch=1 n=a#3 v=0
1155120 On ch=1 n=a#2 v=0
1155120 On ch=1 n=c4 v=82
1155420 On ch=1 n=d3 v=86
1155480 On ch=1 n=c4 v=0
1155480 On ch=1 n=c3 v=0
1155480 On ch=1 n=d4 v=86
1155780 On ch=1 n=d#3 v=90
1155840 On ch=1 n=d4 v=0
1155840 On ch=1 n=d3 v=0
1155840 On ch=1 n=d#4 v=90
1156560 On ch=1 n=d#4 v=0
1156560 On ch=1 n=d#3 v=0
1156560 On ch=1 n=a#4 v=98
1156560 On ch=1 n=a#3 v=98
1157280 On ch=1 n=a#4 v=0
1157640 On ch=1 n=a#3 v=0
1157640 On ch=1 n=g3 v=90
1157640 On ch=1 n=g4 v=90
1158000 On ch=1 n=g4 v=0
1158000 On ch=1 n=g3 v=0
1158000 On ch=1 n=d#3 v=90
1158000 On ch=1 n=d#4 v=90
1158360 On ch=1 n=d#4 v=0
1158360 On ch=1 n=d#3 v=0
1158360 On ch=1 n=c3 v=90
1158360 On ch=1 n=c4 v=90
1158660 On ch=1 n=c4 v=0
1158660 On ch=1 n=c3 v=0
1158660 On ch=1 n=f3 v=90
1158720 On ch=1 n=f4 v=90
1159440 On ch=1 n=f4 v=0
1159440 On ch=1 n=f3 v=0
1159440 On ch=1 n=f2 v=90
1159440 On ch=1 n=f3 v=90
1159920 On ch=1 n=f3 v=0
1159920 On ch=1 n=f2 v=0
1160100 On ch=1 n=a#2 v=78
1160160 On ch=1 n=a#3 v=78
1160820 On ch=1 n=c3 v=82
1160880 On ch=1 n=a#3 v=0
1160880 On ch=1 n=a#2 v=0
1160880 On ch=1 n=c4 v=82
1161180 On ch=1 n=d3 v=86
1161240 On ch=1 n=c4 v=0
1161240 On ch=1 n=c3 v=0
1161240 On ch=1 n=d4 v=86
1161540 On ch=1 n=d#3 v=90
1161600 On ch=1 n=d4 v=0
1161600 On ch=1 n=d3 v=0
1161600 On ch=1 n=d#4 v=90
1162320 On ch=1 n=d#4 v=0
1162320 On ch=1 n=d#3 v=0
1162320 On ch=1 n=a#4 v=98
1162320 On ch=1 n=a#3 v=98
1163040 On ch=1 n=a#4 v=0
1163400 On ch=1 n=a#3 v=0
1163400 On ch=1 n=g3 v=90
1163400 On ch=1 n=g4 v=90
1163760 On ch=1 n=g4 v=0
1163760 On ch=1 n=g3 v=0
1163760 On ch=1 n=d#3 v=90
1163760 On ch=1 n=d#4 v=90
1164120 On ch=1 n=d#4 v=0
1164120 On ch=1 n=d#3 v=0
1164120 On ch=1 n=c3 v=90
1164120 On ch=1 n=c4 v=90
1164420 On ch=1 n=c4 v=0
1164420 On ch=1 n=c3 v=0
1164420 On ch=1 n=f3 v=90
1164480 On ch=1 n=f4 v=90
1165200 On ch=1 n=f4 v=0
1165200 On ch=1 n=f3 v=0
1165200 On ch=1 n=f2 v=90
1165200 On ch=1 n=f3 v=90
1165680 On ch=1 n=f3 v=0
1165680 On ch=1 n=f2 v=0
1165860 On ch=1 n=d3 v=96
1165920 On ch=1 n=d4 v=96
1166580 On ch=1 n=d#3 v=96
1166640 On ch=1 n=d4 v=0
1166640 On ch=1 n=d3 v=0
1166640 On ch=1 n=d#4 v=96
1166940 On ch=1 n=d#3 v=96
1167000 On ch=1 n=d#4 v=0
1167000 On ch=1 n=d#3 v=0
1167000 On ch=1 n=f4 v=96
1167300 On ch=1 n=g3 v=102
1167360 On ch=1 n=f4 v=0
1167360 On ch=1 n=d#3 v=0
1167360 On ch=1 n=g4 v=102
1168080 On ch=1 n=g4 v=0
1168080 On ch=1 n=g3 v=0
1168080 On ch=1 n=d4 v=108
1168080 On ch=1 n=d5 v=108
1168800 On ch=1 n=d5 v=0
1169160 On ch=1 n=d4 v=0
1169160 On ch=1 n=b3 v=108
1169160 On ch=1 n=b4 v=108
1169520 On ch=1 n=b4 v=0
1169520 On ch=1 n=b3 v=0
1169520 On ch=1 n=g3 v=108
1169520 On ch=1 n=g4 v=108
1169880 On ch=1 n=g4 v=0
1169880 On ch=1 n=g3 v=0
1169880 On ch=1 n=f3 v=108
1169880 On ch=1 n=f4 v=108
1170180 On ch=1 n=f4 v=0
1170180 On ch=1 n=f3 v=0
1170180 On ch=1 n=d#3 v=114
1170240 On ch=1 n=d#4 v=114
1170960 On ch=1 n=d#4 v=0
1170960 On ch=1 n=d#3 v=0
1170960 On ch=1 n=c3 v=114
1170960 On ch=1 n=c4 v=114
1171440 On ch=1 n=c4 v=0
1171440 On ch=1 n=c3 v=0
1171620 On ch=1 n=d#3 v=96
1171680 On ch=1 n=d#4 v=96
1172340 On ch=1 n=f3 v=96
1172400 On ch=1 n=d#4 v=0
1172400 On ch=1 n=d#3 v=0
1172400 On ch=1 n=f4 v=96
1172700 On ch=1 n=g3 v=96
1172760 On ch=1 n=f4 v=0
1172760 On ch=1 n=f3 v=0
1172760 On ch=1 n=g4 v=96
1173060 On ch=1 n=a3 v=102
1173120 On ch=1 n=g4 v=0
1173120 On ch=1 n=g3 v=0
1173120 On ch=1 n=a4 v=102
1173840 On ch=1 n=a4 v=0
1173840 On ch=1 n=a3 v=0
1173840 On ch=1 n=e4 v=108
1173840 On ch=1 n=e5 v=108
1174560 On ch=1 n=e5 v=0
1174920 On ch=1 n=e4 v=0
1174920 On ch=1 n=c#4 v=103
1174920 On ch=1 n=c#5 v=103
1175280 On ch=1 n=c#5 v=0
1175280 On ch=1 n=c#4 v=0
1175280 On ch=1 n=a3 v=98
1175280 On ch=1 n=a4 v=98
1175640 On ch=1 n=a4 v=0
1175640 On ch=1 n=a3 v=0
1175640 On ch=1 n=g3 v=93
1175640 On ch=1 n=g4 v=93
1175940 On ch=1 n=g4 v=0
1175940 On ch=1 n=g3 v=0
1175940 On ch=1 n=f#3 v=88
1176000 On ch=1 n=f#4 v=88
1176720 On ch=1 n=f#4 v=0
1176720 On ch=1 n=f#3 v=0
1176720 On ch=1 n=d3 v=83
1176720 On ch=1 n=d4 v=83
1177200 On ch=1 n=d4 v=0
1177200 On ch=1 n=d3 v=0
1177380 On ch=1 n=a#2 v=78
1177440 On ch=1 n=a#3 v=78
1178100 On ch=1 n=c3 v=82
1178160 On ch=1 n=a#3 v=0
1178160 On ch=1 n=a#2 v=0
1178160 On ch=1 n=c4 v=82
1178460 On ch=1 n=d3 v=86
1178520 On ch=1 n=c4 v=0
1178520 On ch=1 n=c3 v=0
1178520 On ch=1 n=d4 v=86
1178820 On ch=1 n=d#3 v=90
1178880 On ch=1 n=d4 v=0
1178880 On ch=1 n=d3 v=0
1178880 On ch=1 n=d#4 v=90
1179600 On ch=1 n=d#4 v=0
1179600 On ch=1 n=d#3 v=0
1179600 On ch=1 n=a#4 v=98
1179600 On ch=1 n=a#3 v=98
1181040 On ch=1 n=a#3 v=0
1181040 On ch=1 n=a#4 v=0
1181040 On ch=1 n=c4 v=106
1181760 On ch=1 n=c4 v=0
1181760 On ch=1 n=a#3 v=114
1181760 On ch=1 n=d4 v=114
1182000 On ch=1 n=a#3 v=0
1182120 On ch=1 n=f5 v=114
1182240 On ch=1 n=f5 v=0
1182240 On ch=1 n=a#5 v=114
1182480 On ch=1 n=a#5 v=0
1182480 On ch=1 n=d4 v=0
1183140 On ch=1 n=d3 v=78
1183200 On ch=1 n=d4 v=78
1183860 On ch=1 n=d#3 v=84
1183920 On ch=1 n=d4 v=0
1183920 On ch=1 n=d3 v=0
1183920 On ch=1 n=d#4 v=84
1184220 On ch=1 n=d#3 v=84
1184280 On ch=1 n=d#4 v=0
1184280 On ch=1 n=d#3 v=0
1184280 On ch=1 n=f4 v=84
1184580 On ch=1 n=g3 v=90
1184640 On ch=1 n=f4 v=0
1184640 On ch=1 n=d#3 v=0
1184640 On ch=1 n=g4 v=90
1185360 On ch=1 n=g4 v=0
1185360 On ch=1 n=g3 v=0
1185360 On ch=1 n=d4 v=96
1185360 On ch=1 n=d5 v=96
1186800 On ch=1 n=d5 v=0
1186800 On ch=1 n=d4 v=0
1186800 On ch=1 n=e4 v=108
1187520 On ch=1 n=e4 v=0
1187520 On ch=1 n=d4 v=120
1187520 On ch=1 n=f#4 v=114
1187760 On ch=1 n=d4 v=0
1187880 On ch=1 n=a5 v=102
1188000 On ch=1 n=a5 v=0
1188000 On ch=1 n=d6 v=102
1188180 On ch=1 n=d6 v=0
1188240 On ch=1 n=f#4 v=0
1188720 On ch=1 n=g4 v=96
1188960 On ch=1 n=c4 v=90
1188960 On ch=1 n=c5 v=90
1190400 On ch=1 n=g4 v=0
1191600 On ch=1 n=c4 v=0
1191600 On ch=1 n=c4 v=90
1191840 On ch=1 n=c4 v=0
1191840 On ch=1 n=f4 v=90
1192320 On ch=1 n=f4 v=0
1192320 On ch=1 n=d4 v=90
1192560 On ch=1 n=d4 v=0
1192560 On ch=1 n=c5 v=0
1192560 On ch=1 n=g4 v=90
1193040 On ch=1 n=g3 v=90
1193280 On ch=1 n=c4 v=90
1194480 On ch=1 n=c4 v=0
1194480 On ch=1 n=d4 v=71
1194720 On ch=1 n=g4 v=0
1197360 On ch=1 n=d4 v=0
1197360 On ch=1 n=g3 v=0
1197360 On ch=1 n=g3 v=65
1197600 On ch=1 n=g3 v=0
1197600 On ch=1 n=c4 v=65
1198080 On ch=1 n=c4 v=0
1198080 On ch=1 n=a3 v=65
1198320 On ch=1 n=a3 v=0
1198320 On ch=1 n=d4 v=65
1198800 On ch=1 n=d3 v=71
1201680 On ch=1 n=d3 v=0
1201680 On ch=1 n=d4 v=0
1201680 On ch=1 n=g2 v=65
1201680 On ch=1 n=g3 v=65
1206000 On ch=1 n=g3 v=0
1206000 On ch=1 n=g2 v=0
1206000 On ch=1 n=f3 v=65
1206000 On ch=1 n=f4 v=65
1207440 On ch=1 n=f4 v=0
1207440 On ch=1 n=f3 v=0
1207440 On ch=1 n=a#2 v=73
1207440 On ch=1 n=a#3 v=73
1209840 On ch=1 n=a#3 v=0
1209840 On ch=1 n=a#2 v=0
1209840 On ch=1 n=c3 v=84
1209840 On ch=1 n=c4 v=84
1210320 On ch=1 n=c4 v=0
1210320 On ch=1 n=c3 v=0
1210320 On ch=1 n=c#3 v=78
1210320 On ch=1 n=c#4 v=78
1210560 On ch=1 n=c#4 v=0
1210560 On ch=1 n=c#3 v=0
1210560 On ch=1 n=d3 v=72
1210560 On ch=1 n=d4 v=72
1213200 On ch=1 n=d4 v=0
1213200 On ch=1 n=d3 v=0
1213200 On ch=1 n=g2 v=53
1213200 On ch=1 n=g3 v=53
1214640 On ch=1 n=g2 v=0
1214640 On ch=1 n=g2 v=53
1214880 On ch=1 n=g2 v=0
1214880 On ch=1 n=c3 v=53
1215360 On ch=1 n=c3 v=0
1215360 On ch=1 n=a2 v=53
1215600 On ch=1 n=a2 v=0
1215600 On ch=1 n=g3 v=0
1215600 On ch=1 n=d3 v=65
1216080 On ch=1 n=d2 v=53
1218480 On ch=1 n=d2 v=0
1218480 On ch=1 n=g2 v=61
1220400 On ch=1 n=g2 v=0
1220400 On ch=1 n=g2 v=65
1220640 On ch=1 n=g2 v=0
1220640 On ch=1 n=d3 v=0
1220640 On ch=1 n=c3 v=65
1221120 On ch=1 n=c3 v=0
1221120 On ch=1 n=a2 v=65
1221360 On ch=1 n=a2 v=0
1221360 On ch=1 n=d3 v=65
1221840 On ch=1 n=d2 v=65
1222080 On ch=1 n=d2 v=0
1222080 On ch=1 n=g2 v=65
1222560 On ch=1 n=g2 v=0
1222560 On ch=1 n=d3 v=0
1223520 On ch=1 n=d2 v=102
1223520 On ch=1 n=d3 v=102
1223880 On ch=1 n=d3 v=0
1223880 On ch=1 n=d2 v=0
1223880 On ch=1 n=d4 v=102
1224000 On ch=1 n=d4 v=0
1224000 On ch=1 n=d4 v=102
1224240 On ch=1 n=d4 v=0
1224240 On ch=1 n=d4 v=102
1224480 On ch=1 n=d4 v=0
1225320 On ch=1 n=d4 v=114
1225320 On ch=1 n=a3 v=114
1225440 On ch=1 n=a3 v=0
1225440 On ch=1 n=d4 v=0
1225440 On ch=1 n=a3 v=114
1225440 On ch=1 n=d4 v=114
1225680 On ch=1 n=d4 v=0
1225680 On ch=1 n=a3 v=0
1225680 On ch=1 n=d4 v=114
1225680 On ch=1 n=a3 v=114
1225860 On ch=1 n=a3 v=0
1225860 On ch=1 n=d4 v=0
1226400 On ch=1 n=c#2 v=102
1226400 On ch=1 n=c#3 v=102
1226760 On ch=1 n=c#3 v=0
1226760 On ch=1 n=c#2 v=0
1226760 On ch=1 n=e4 v=102
1226880 On ch=1 n=e4 v=0
1226880 On ch=1 n=e4 v=102
1227120 On ch=1 n=e4 v=0
1227120 On ch=1 n=e4 v=102
1227360 On ch=1 n=e4 v=0
1228200 On ch=1 n=e4 v=114
1228200 On ch=1 n=a3 v=114
1228320 On ch=1 n=a3 v=0
1228320 On ch=1 n=e4 v=0
1228320 On ch=1 n=e4 v=114
1228320 On ch=1 n=a3 v=114
1228560 On ch=1 n=a3 v=0
1228560 On ch=1 n=e4 v=0
1228560 On ch=1 n=e4 v=114
1228560 On ch=1 n=a3 v=114
1228800 On ch=1 n=a3 v=0
1228800 On ch=1 n=e4 v=0
1229280 On ch=1 n=d2 v=102
1229280 On ch=1 n=d3 v=102
1229640 On ch=1 n=d3 v=0
1229640 On ch=1 n=d2 v=0
1229640 On ch=1 n=f4 v=102
1229640 On ch=1 n=d4 v=102
1229760 On ch=1 n=d4 v=0
1229760 On ch=1 n=f4 v=0
1229760 On ch=1 n=f4 v=102
1229760 On ch=1 n=d4 v=102
1230000 On ch=1 n=d4 v=0
1230000 On ch=1 n=f4 v=0
1230000 On ch=1 n=f4 v=102
1230000 On ch=1 n=d4 v=102
1230360 On ch=1 n=d4 v=0
1230360 On ch=1 n=f4 v=0
1230360 On ch=1 n=a4 v=102
1230480 On ch=1 n=a4 v=0
1230480 On ch=1 n=a4 v=102
1230720 On ch=1 n=a4 v=0
1230720 On ch=1 n=a4 v=102
1231080 On ch=1 n=d4 v=114
1231080 On ch=1 n=f4 v=114
1231200 On ch=1 n=f4 v=0
1231200 On ch=1 n=d4 v=0
1231200 On ch=1 n=a4 v=0
1231200 On ch=1 n=d4 v=114
1231200 On ch=1 n=f4 v=114
1231440 On ch=1 n=f4 v=0
1231440 On ch=1 n=d4 v=0
1231440 On ch=1 n=d4 v=114
1231440 On ch=1 n=f4 v=114
1231620 On ch=1 n=f4 v=0
1231620 On ch=1 n=d4 v=0
1232160 On ch=1 n=g2 v=102
1232160 On ch=1 n=g3 v=102
1232520 On ch=1 n=g3 v=0
1232520 On ch=1 n=g2 v=0
1232520 On ch=1 n=b4 v=102
1232640 On ch=1 n=b4 v=0
1232640 On ch=1 n=b4 v=102
1232880 On ch=1 n=b4 v=0
1232880 On ch=1 n=b4 v=102
1233120 On ch=1 n=b4 v=0
1233240 On ch=1 n=c4 v=114
1233240 On ch=1 n=e4 v=114
1233360 On ch=1 n=e4 v=0
1233360 On ch=1 n=c4 v=0
1233360 On ch=1 n=e4 v=114
1233360 On ch=1 n=c4 v=114
1233600 On ch=1 n=c4 v=0
1233600 On ch=1 n=e4 v=0
1233600 On ch=1 n=c4 v=114
1233600 On ch=1 n=e4 v=114
1233960 On ch=1 n=e4 v=0
1233960 On ch=1 n=c4 v=0
1233960 On ch=1 n=c4 v=114
1233960 On ch=1 n=c3 v=114
1234080 On ch=1 n=c3 v=0
1234080 On ch=1 n=c4 v=0
1234080 On ch=1 n=c4 v=114
1234080 On ch=1 n=c3 v=114
1234320 On ch=1 n=c3 v=0
1234320 On ch=1 n=c4 v=0
1234320 On ch=1 n=c4 v=114
1234320 On ch=1 n=c3 v=114
1234560 On ch=1 n=c3 v=0
1234560 On ch=1 n=c4 v=0
1235040 On ch=1 n=f2 v=90
1235040 On ch=1 n=f3 v=90
1235520 On ch=1 n=f3 v=0
1235520 On ch=1 n=f2 v=0
1235520 On ch=1 n=c5 v=96
1236240 On ch=1 n=c5 v=0
1236240 On ch=1 n=d5 v=96
1236480 On ch=1 n=d5 v=0
1236480 On ch=1 n=f#2 v=114
1236480 On ch=1 n=f#3 v=114
1236960 On ch=1 n=d#4 v=90
1237200 On ch=1 n=d#4 v=0
1237200 On ch=1 n=d#5 v=98
1237920 On ch=1 n=d#5 v=0
1237920 On ch=1 n=f#3 v=0
1237920 On ch=1 n=f#2 v=0
1237920 On ch=1 n=g2 v=94
1237920 On ch=1 n=g3 v=94
1238400 On ch=1 n=g3 v=0
1238400 On ch=1 n=g2 v=0
1238400 On ch=1 n=c5 v=100
1239120 On ch=1 n=c5 v=0
1239120 On ch=1 n=d5 v=103
1239360 On ch=1 n=d5 v=0
1239360 On ch=1 n=a#2 v=124
1239360 On ch=1 n=a#3 v=124
1239840 On ch=1 n=e4 v=98
1240080 On ch=1 n=e4 v=0
1240080 On ch=1 n=e5 v=107
1240800 On ch=1 n=e5 v=0
1240800 On ch=1 n=a#3 v=0
1240800 On ch=1 n=a#2 v=0
1240800 On ch=1 n=a2 v=102
1240800 On ch=1 n=a3 v=102
1241280 On ch=1 n=a3 v=0
1241280 On ch=1 n=a2 v=0
1241280 On ch=1 n=c5 v=108
1242000 On ch=1 n=c5 v=0
1242000 On ch=1 n=d5 v=108
1242240 On ch=1 n=d5 v=0
1242240 On ch=1 n=g#2 v=127
1242240 On ch=1 n=g#3 v=127
1242720 On ch=1 n=d#4 v=102
1242960 On ch=1 n=d#4 v=0
1242960 On ch=1 n=d#5 v=108
1243680 On ch=1 n=d#5 v=0
1243680 On ch=1 n=g#3 v=0
1243680 On ch=1 n=g#2 v=0
1243680 On ch=1 n=g2 v=127
1243680 On ch=1 n=g3 v=127
1244160 On ch=1 n=g4 v=102
1244400 On ch=1 n=g4 v=0
1244400 On ch=1 n=g5 v=108
1245120 On ch=1 n=g5 v=0
1245120 On ch=1 n=g3 v=0
1245120 On ch=1 n=g2 v=0
1245120 On ch=1 n=c4 v=127
1245120 On ch=1 n=c3 v=127
1245600 On ch=1 n=c3 v=0
1245600 On ch=1 n=c4 v=0
1245600 On ch=1 n=c5 v=102
1245840 On ch=1 n=c5 v=0
1246560 On ch=1 n=f2 v=90
1246560 On ch=1 n=f3 v=90
1247040 On ch=1 n=f3 v=0
1247040 On ch=1 n=f2 v=0
1247040 On ch=1 n=c5 v=96
1247760 On ch=1 n=c5 v=0
1247760 On ch=1 n=d5 v=96
1248000 On ch=1 n=d5 v=0
1248000 On ch=1 n=f#2 v=114
1248000 On ch=1 n=f#3 v=114
1248480 On ch=1 n=d#4 v=90
1248720 On ch=1 n=d#4 v=0
1248720 On ch=1 n=d#5 v=98
1249440 On ch=1 n=d#5 v=0
1249440 On ch=1 n=f#3 v=0
1249440 On ch=1 n=f#2 v=0
1249440 On ch=1 n=g2 v=94
1249440 On ch=1 n=g3 v=94
1249920 On ch=1 n=g3 v=0
1249920 On ch=1 n=g2 v=0
1249920 On ch=1 n=c5 v=100
1250640 On ch=1 n=c5 v=0
1250640 On ch=1 n=d5 v=103
1250880 On ch=1 n=d5 v=0
1250880 On ch=1 n=a#2 v=124
1250880 On ch=1 n=a#3 v=124
1251360 On ch=1 n=e4 v=98
1251600 On ch=1 n=e4 v=0
1251600 On ch=1 n=e5 v=107
1252320 On ch=1 n=e5 v=0
1252320 On ch=1 n=a#3 v=0
1252320 On ch=1 n=a#2 v=0
1252320 On ch=1 n=a2 v=102
1252320 On ch=1 n=a3 v=102
1252800 On ch=1 n=a3 v=0
1252800 On ch=1 n=a2 v=0
1252800 On ch=1 n=c5 v=108
1253520 On ch=1 n=c5 v=0
1253520 On ch=1 n=d5 v=108
1253760 On ch=1 n=d5 v=0
1253760 On ch=1 n=g#2 v=127
1253760 On ch=1 n=g#3 v=127
1254240 On ch=1 n=d#4 v=102
1254480 On ch=1 n=d#4 v=0
1254480 On ch=1 n=d#5 v=108
1255200 On ch=1 n=d#5 v=0
1255200 On ch=1 n=g#3 v=0
1255200 On ch=1 n=g#2 v=0
1255200 On ch=1 n=g2 v=127
1255200 On ch=1 n=g3 v=127
1255680 On ch=1 n=g4 v=102
1255920 On ch=1 n=g4 v=0
1255920 On ch=1 n=g5 v=108
1256640 On ch=1 n=g5 v=0
1256640 On ch=1 n=g3 v=0
1256640 On ch=1 n=g2 v=0
1256640 On ch=1 n=c4 v=127
1256640 On ch=1 n=c3 v=127
1257120 On ch=1 n=c3 v=0
1257120 On ch=1 n=c4 v=0
1257120 On ch=1 n=c5 v=102
1257360 On ch=1 n=c5 v=0
1258080 On ch=1 n=c2 v=108
1258080 On ch=1 n=c3 v=108
1258440 On ch=1 n=f#4 v=102
1258560 On ch=1 n=f#4 v=0
1258560 On ch=1 n=c3 v=0
1258560 On ch=1 n=c2 v=0
1258560 On ch=1 n=f#4 v=102
1258800 On ch=1 n=f#4 v=0
1258800 On ch=1 n=f#4 v=102
1259160 On ch=1 n=f#4 v=0
1259160 On ch=1 n=c5 v=102
1259280 On ch=1 n=c5 v=0
1259280 On ch=1 n=c5 v=102
1259520 On ch=1 n=c5 v=0
1259520 On ch=1 n=c5 v=102
1259880 On ch=1 n=f#4 v=102
1259880 On ch=1 n=d4 v=102
1260000 On ch=1 n=d4 v=0
1260000 On ch=1 n=f#4 v=0
1260000 On ch=1 n=c5 v=0
1260000 On ch=1 n=f#4 v=102
1260000 On ch=1 n=d4 v=102
1260240 On ch=1 n=d4 v=0
1260240 On ch=1 n=f#4 v=0
1260240 On ch=1 n=f#4 v=102
1260240 On ch=1 n=d4 v=102
1260420 On ch=1 n=d4 v=0
1260420 On ch=1 n=f#4 v=0
1260960 On ch=1 n=a#1 v=108
1260960 On ch=1 n=a#2 v=108
1261320 On ch=1 n=g4 v=102
1261440 On ch=1 n=g4 v=0
1261440 On ch=1 n=a#2 v=0
1261440 On ch=1 n=a#1 v=0
1261440 On ch=1 n=g4 v=102
1261680 On ch=1 n=g4 v=0
1261680 On ch=1 n=g4 v=102
1262040 On ch=1 n=g4 v=0
1262040 On ch=1 n=a#4 v=102
1262160 On ch=1 n=a#4 v=0
1262160 On ch=1 n=a#4 v=102
1262400 On ch=1 n=a#4 v=0
1262400 On ch=1 n=a#4 v=102
1262760 On ch=1 n=g4 v=102
1262760 On ch=1 n=d4 v=102
1262880 On ch=1 n=d4 v=0
1262880 On ch=1 n=g4 v=0
1262880 On ch=1 n=a#4 v=0
1262880 On ch=1 n=g4 v=102
1262880 On ch=1 n=d4 v=102
1263120 On ch=1 n=d4 v=0
1263120 On ch=1 n=g4 v=0
1263120 On ch=1 n=g4 v=102
1263120 On ch=1 n=d4 v=102
1263300 On ch=1 n=d4 v=0
1263300 On ch=1 n=g4 v=0
1263840 On ch=1 n=d2 v=110
1263840 On ch=1 n=d3 v=110
1264200 On ch=1 n=g#4 v=104
1264320 On ch=1 n=g#4 v=0
1264320 On ch=1 n=d3 v=0
1264320 On ch=1 n=d2 v=0
1264320 On ch=1 n=g#4 v=104
1264560 On ch=1 n=g#4 v=0
1264560 On ch=1 n=g#4 v=104
1264920 On ch=1 n=g#4 v=0
1264920 On ch=1 n=d5 v=104
1265040 On ch=1 n=d5 v=0
1265040 On ch=1 n=d5 v=104
1265280 On ch=1 n=d5 v=0
1265280 On ch=1 n=d5 v=107
1265640 On ch=1 n=e4 v=107
1265640 On ch=1 n=g#4 v=107
1265760 On ch=1 n=g#4 v=0
1265760 On ch=1 n=e4 v=0
1265760 On ch=1 n=d5 v=0
1265760 On ch=1 n=e4 v=107
1265760 On ch=1 n=g#4 v=107
1266000 On ch=1 n=g#4 v=0
1266000 On ch=1 n=e4 v=0
1266000 On ch=1 n=e4 v=107
1266000 On ch=1 n=g#4 v=107
1266180 On ch=1 n=g#4 v=0
1266180 On ch=1 n=e4 v=0
1266720 On ch=1 n=c2 v=116
1266720 On ch=1 n=c3 v=116
1267080 On ch=1 n=a4 v=109
1267200 On ch=1 n=a4 v=0
1267200 On ch=1 n=c3 v=0
1267200 On ch=1 n=c2 v=0
1267200 On ch=1 n=a4 v=109
1267440 On ch=1 n=a4 v=0
1267440 On ch=1 n=a4 v=109
1267800 On ch=1 n=a4 v=0
1267800 On ch=1 n=c5 v=109
1267920 On ch=1 n=c5 v=0
1267920 On ch=1 n=c5 v=109
1268160 On ch=1 n=c5 v=0
1268160 On ch=1 n=c5 v=111
1268520 On ch=1 n=e4 v=111
1268520 On ch=1 n=a4 v=111
1268640 On ch=1 n=a4 v=0
1268640 On ch=1 n=e4 v=0
1268640 On ch=1 n=c5 v=0
1268640 On ch=1 n=e4 v=111
1268640 On ch=1 n=a4 v=111
1268880 On ch=1 n=a4 v=0
1268880 On ch=1 n=e4 v=0
1268880 On ch=1 n=e4 v=111
1268880 On ch=1 n=a4 v=111
1269060 On ch=1 n=a4 v=0
1269060 On ch=1 n=e4 v=0
1269600 On ch=1 n=d3 v=116
1269600 On ch=1 n=d4 v=116
1269960 On ch=1 n=d5 v=109
1270080 On ch=1 n=d5 v=0
1270080 On ch=1 n=d4 v=0
1270080 On ch=1 n=d3 v=0
1270080 On ch=1 n=d5 v=109
1270320 On ch=1 n=d5 v=0
1270320 On ch=1 n=d5 v=109
1270680 On ch=1 n=d5 v=0
1270680 On ch=1 n=a4 v=109
1270800 On ch=1 n=a4 v=0
1270800 On ch=1 n=a4 v=109
1271040 On ch=1 n=a4 v=0
1271040 On ch=1 n=a4 v=111
1271400 On ch=1 n=d5 v=111
1271520 On ch=1 n=d5 v=0
1271520 On ch=1 n=a4 v=0
1271520 On ch=1 n=d5 v=111
1271760 On ch=1 n=d5 v=0
1271760 On ch=1 n=d5 v=111
1271940 On ch=1 n=d5 v=0
1272480 On ch=1 n=b2 v=116
1272480 On ch=1 n=b3 v=116
1272840 On ch=1 n=b4 v=109
1272960 On ch=1 n=b4 v=0
1272960 On ch=1 n=b3 v=0
1272960 On ch=1 n=b2 v=0
1272960 On ch=1 n=b4 v=109
1273200 On ch=1 n=b4 v=0
1273200 On ch=1 n=b4 v=109
1273560 On ch=1 n=b4 v=0
1273560 On ch=1 n=f5 v=109
1273680 On ch=1 n=f5 v=0
1273680 On ch=1 n=f5 v=109
1273920 On ch=1 n=f5 v=0
1273920 On ch=1 n=f5 v=111
1274280 On ch=1 n=b4 v=111
1274400 On ch=1 n=b4 v=0
1274400 On ch=1 n=f5 v=0
1274400 On ch=1 n=b4 v=111
1274640 On ch=1 n=b4 v=0
1274640 On ch=1 n=b4 v=111
1274820 On ch=1 n=b4 v=0
1275360 On ch=1 n=e3 v=116
1275360 On ch=1 n=e4 v=116
1275720 On ch=1 n=d5 v=109
1275840 On ch=1 n=d5 v=0
1275840 On ch=1 n=e4 v=0
1275840 On ch=1 n=e3 v=0
1275840 On ch=1 n=d5 v=109
1276080 On ch=1 n=d5 v=0
1276080 On ch=1 n=d5 v=109
1276440 On ch=1 n=d5 v=0
1276440 On ch=1 n=g#4 v=109
1276560 On ch=1 n=g#4 v=0
1276560 On ch=1 n=g#4 v=109
1276800 On ch=1 n=g#4 v=0
1276800 On ch=1 n=g#4 v=111
1277160 On ch=1 n=d5 v=111
1277280 On ch=1 n=d5 v=0
1277280 On ch=1 n=g#4 v=0
1277280 On ch=1 n=d5 v=111
1277520 On ch=1 n=d5 v=0
1277520 On ch=1 n=d5 v=111
1277700 On ch=1 n=d5 v=0
1278240 On ch=1 n=e2 v=116
1278240 On ch=1 n=e3 v=116
1278600 On ch=1 n=e4 v=109
1278720 On ch=1 n=e4 v=0
1278720 On ch=1 n=e3 v=0
1278720 On ch=1 n=e2 v=0
1278720 On ch=1 n=e4 v=109
1278960 On ch=1 n=e4 v=0
1278960 On ch=1 n=e4 v=109
1279320 On ch=1 n=e4 v=0
1279320 On ch=1 n=d5 v=109
1279440 On ch=1 n=d5 v=0
1279440 On ch=1 n=d5 v=109
1279680 On ch=1 n=d5 v=0
1279680 On ch=1 n=d5 v=111
1280040 On ch=1 n=e4 v=111
1280160 On ch=1 n=e4 v=0
1280160 On ch=1 n=d5 v=0
1280160 On ch=1 n=e4 v=111
1280400 On ch=1 n=e4 v=0
1280400 On ch=1 n=e4 v=111
1280580 On ch=1 n=e4 v=0
1281120 On ch=1 n=a2 v=90
1281120 On ch=1 n=a3 v=90
1281480 On ch=1 n=a4 v=90
1281600 On ch=1 n=a4 v=0
1281600 On ch=1 n=a3 v=0
1281600 On ch=1 n=a2 v=0
1281600 On ch=1 n=a4 v=90
1281840 On ch=1 n=a4 v=0
1281840 On ch=1 n=a4 v=90
1282200 On ch=1 n=a4 v=0
1282200 On ch=1 n=c5 v=90
1282320 On ch=1 n=c5 v=0
1282320 On ch=1 n=c5 v=90
1282560 On ch=1 n=c5 v=0
1282560 On ch=1 n=c5 v=90
1282920 On ch=1 n=e4 v=90
1282920 On ch=1 n=a4 v=90
1283040 On ch=1 n=a4 v=0
1283040 On ch=1 n=e4 v=0
1283040 On ch=1 n=c5 v=0
1283040 On ch=1 n=e4 v=90
1283040 On ch=1 n=a4 v=90
1283280 On ch=1 n=a4 v=0
1283280 On ch=1 n=e4 v=0
1283280 On ch=1 n=e4 v=90
1283280 On ch=1 n=a4 v=90
1283460 On ch=1 n=a4 v=0
1283460 On ch=1 n=e4 v=0
1284000 On ch=1 n=g#2 v=90
1284000 On ch=1 n=g#3 v=90
1284360 On ch=1 n=b4 v=90
1284480 On ch=1 n=b4 v=0
1284480 On ch=1 n=g#3 v=0
1284480 On ch=1 n=g#2 v=0
1284480 On ch=1 n=b4 v=90
1284720 On ch=1 n=b4 v=0
1284720 On ch=1 n=b4 v=92
1285080 On ch=1 n=b4 v=0
1285080 On ch=1 n=d5 v=92
1285200 On ch=1 n=d5 v=0
1285200 On ch=1 n=d5 v=92
1285440 On ch=1 n=d5 v=0
1285440 On ch=1 n=d5 v=94
1285800 On ch=1 n=g#4 v=94
1285800 On ch=1 n=e4 v=94
1285920 On ch=1 n=e4 v=0
1285920 On ch=1 n=g#4 v=0
1285920 On ch=1 n=d5 v=0
1285920 On ch=1 n=g#4 v=94
1285920 On ch=1 n=e4 v=94
1286160 On ch=1 n=e4 v=0
1286160 On ch=1 n=g#4 v=0
1286160 On ch=1 n=g#4 v=94
1286160 On ch=1 n=e4 v=94
1286340 On ch=1 n=e4 v=0
1286340 On ch=1 n=g#4 v=0
1286880 On ch=1 n=a2 v=97
1286880 On ch=1 n=a3 v=97
1287240 On ch=1 n=c5 v=97
1287240 On ch=1 n=b4 v=97
1287360 On ch=1 n=b4 v=0
1287360 On ch=1 n=c5 v=0
1287360 On ch=1 n=a3 v=0
1287360 On ch=1 n=a2 v=0
1287360 On ch=1 n=c5 v=97
1287360 On ch=1 n=b4 v=97
1287600 On ch=1 n=b4 v=0
1287600 On ch=1 n=c5 v=0
1287600 On ch=1 n=c5 v=97
1287600 On ch=1 n=b4 v=97
1287960 On ch=1 n=b4 v=0
1287960 On ch=1 n=c5 v=0
1287960 On ch=1 n=e5 v=97
1288080 On ch=1 n=e5 v=0
1288080 On ch=1 n=e5 v=97
1288320 On ch=1 n=e5 v=0
1288320 On ch=1 n=e5 v=99
1288680 On ch=1 n=a4 v=99
1288680 On ch=1 n=c5 v=99
1288800 On ch=1 n=c5 v=0
1288800 On ch=1 n=a4 v=0
1288800 On ch=1 n=e5 v=0
1288800 On ch=1 n=a4 v=99
1288800 On ch=1 n=c5 v=99
1289040 On ch=1 n=c5 v=0
1289040 On ch=1 n=a4 v=0
1289040 On ch=1 n=a4 v=99
1289040 On ch=1 n=c5 v=99
1289220 On ch=1 n=c5 v=0
1289220 On ch=1 n=a4 v=0
1289760 On ch=1 n=d3 v=102
1289760 On ch=1 n=d4 v=102
1290120 On ch=1 n=f#5 v=105
1290240 On ch=1 n=f#5 v=0
1290240 On ch=1 n=d4 v=0
1290240 On ch=1 n=d3 v=0
1290240 On ch=1 n=f#5 v=108
1290480 On ch=1 n=f#5 v=0
1290480 On ch=1 n=f#5 v=111
1290660 On ch=1 n=f#5 v=0
1290840 On ch=1 n=g4 v=114
1290840 On ch=1 n=b4 v=114
1290960 On ch=1 n=b4 v=0
1290960 On ch=1 n=g4 v=0
1290960 On ch=1 n=g4 v=114
1290960 On ch=1 n=b4 v=114
1291200 On ch=1 n=b4 v=0
1291200 On ch=1 n=g4 v=0
1291200 On ch=1 n=g4 v=114
1291200 On ch=1 n=b4 v=114
1291380 On ch=1 n=b4 v=0
1291380 On ch=1 n=g4 v=0
1291560 On ch=1 n=g4 v=114
1291560 On ch=1 n=g3 v=114
1291680 On ch=1 n=g3 v=0
1291680 On ch=1 n=g4 v=0
1291680 On ch=1 n=g4 v=114
1291680 On ch=1 n=g3 v=114
1291920 On ch=1 n=g3 v=0
1291920 On ch=1 n=g4 v=0
1291920 On ch=1 n=g4 v=84
1291920 On ch=1 n=g3 v=84
1296000 On ch=1 n=g3 v=0
1296000 On ch=1 n=g4 v=0
1296000 On ch=1 n=f3 v=71
1296000 On ch=1 n=f4 v=71
1296720 On ch=1 n=f4 v=0
1296720 On ch=1 n=f3 v=0
1296720 On ch=1 n=g3 v=71
1296720 On ch=1 n=g4 v=71
1298160 On ch=1 n=d4 v=71
1301040 On ch=1 n=g3 v=0
1301040 On ch=1 n=g3 v=65
1301280 On ch=1 n=g3 v=0
1301280 On ch=1 n=d4 v=0
1301280 On ch=1 n=c4 v=65
1301760 On ch=1 n=c4 v=0
1301760 On ch=1 n=a3 v=65
1302000 On ch=1 n=a3 v=0
1302000 On ch=1 n=g4 v=0
1302000 On ch=1 n=d4 v=65
1302480 On ch=1 n=d3 v=73
1304640 On ch=1 n=d3 v=0
1304640 On ch=1 n=d4 v=0
1304640 On ch=1 n=g2 v=60
1304640 On ch=1 n=g3 v=60
1306800 On ch=1 n=g2 v=0
1306800 On ch=1 n=g2 v=53
1307040 On ch=1 n=g2 v=0
1307040 On ch=1 n=c3 v=53
1307520 On ch=1 n=c3 v=0
1307520 On ch=1 n=a2 v=53
1307760 On ch=1 n=a2 v=0
1307760 On ch=1 n=g3 v=0
1307760 On ch=1 n=d3 v=53
1308240 On ch=1 n=d2 v=53
1308720 On ch=1 n=d2 v=0
1308720 On ch=1 n=d3 v=0
1309920 On ch=1 n=d3 v=65
1309920 On ch=1 n=d4 v=65
1311840 On ch=1 n=d4 v=0
1311840 On ch=1 n=d3 v=0
1311840 On ch=1 n=g2 v=73
1311840 On ch=1 n=g3 v=73
1315440 On ch=1 n=g3 v=0
1315440 On ch=1 n=g2 v=0
1315440 On ch=1 n=f3 v=65
1315440 On ch=1 n=f4 v=65
1316880 On ch=1 n=f4 v=0
1316880 On ch=1 n=f3 v=0
1316880 On ch=1 n=a#2 v=65
1316880 On ch=1 n=a#3 v=65
1319280 On ch=1 n=a#3 v=0
1319280 On ch=1 n=a#2 v=0
1319280 On ch=1 n=c3 v=65
1319280 On ch=1 n=c4 v=65
1319760 On ch=1 n=c4 v=0
1319760 On ch=1 n=c3 v=0
1319760 On ch=1 n=c#3 v=65
1319760 On ch=1 n=c#4 v=65
1320000 On ch=1 n=c#4 v=0
1320000 On ch=1 n=c#3 v=0
1320000 On ch=1 n=d3 v=65
1320000 On ch=1 n=d4 v=65
1321920 On ch=1 n=d4 v=0
1321920 On ch=1 n=d3 v=0
1321920 On ch=1 n=g2 v=60
1321920 On ch=1 n=g3 v=60
1324080 On ch=1 n=g2 v=0
1324080 On ch=1 n=g2 v=53
1324320 On ch=1 n=g2 v=0
1324320 On ch=1 n=c3 v=53
1324800 On ch=1 n=c3 v=0
1324800 On ch=1 n=a2 v=53
1325040 On ch=1 n=a2 v=0
1325040 On ch=1 n=g3 v=0
1325040 On ch=1 n=d3 v=53
1325520 On ch=1 n=d2 v=53
1327920 On ch=1 n=d2 v=0
1327920 On ch=1 n=g2 v=60
1329840 On ch=1 n=g2 v=0
1329840 On ch=1 n=g2 v=53
1330080 On ch=1 n=g2 v=0
1330080 On ch=1 n=d3 v=0
1330080 On ch=1 n=c3 v=60
1330560 On ch=1 n=a2 v=53
1330800 On ch=1 n=a2 v=0
1330800 On ch=1 n=c3 v=0
1330800 On ch=1 n=d3 v=60
1331280 On ch=1 n=d2 v=53
1331520 On ch=1 n=d2 v=0
1331520 On ch=1 n=d3 v=0
1331520 On ch=1 n=g2 v=60
1331760 On ch=1 n=g2 v=0
1332600 On ch=1 n=a4 v=53
1332720 On ch=1 n=a4 v=0
1332720 On ch=1 n=f#4 v=53
1332900 On ch=1 n=f#4 v=0
1332960 On ch=1 n=g4 v=53
1333140 On ch=1 n=g4 v=0
1333320 On ch=1 n=f#4 v=53
1333440 On ch=1 n=f#4 v=0
1333440 On ch=1 n=d4 v=53
1333620 On ch=1 n=d4 v=0
1333680 On ch=1 n=d#4 v=53
1333860 On ch=1 n=d#4 v=0
1334040 On ch=1 n=c4 v=53
1334160 On ch=1 n=c4 v=0
1334160 On ch=1 n=a3 v=53
1334340 On ch=1 n=a3 v=0
1334400 On ch=1 n=a#3 v=53
1334580 On ch=1 n=a#3 v=0
1334760 On ch=1 n=a3 v=53
1334880 On ch=1 n=a3 v=0
1334880 On ch=1 n=f#3 v=53
1335060 On ch=1 n=f#3 v=0
1335120 On ch=1 n=g3 v=53
1335300 On ch=1 n=g3 v=0
1335480 On ch=1 n=f3 v=53
1335600 On ch=1 n=f3 v=0
1335600 On ch=1 n=d3 v=53
1335780 On ch=1 n=d3 v=0
1335840 On ch=1 n=d#3 v=53
1336020 On ch=1 n=d#3 v=0
1336200 On ch=1 n=c3 v=53
1336320 On ch=1 n=c3 v=0
1336320 On ch=1 n=a2 v=53
1336500 On ch=1 n=a2 v=0
1336560 On ch=1 n=a#2 v=49
1336740 On ch=1 n=a#2 v=0
1336920 On ch=1 n=a2 v=46
1337040 On ch=1 n=a2 v=0
1337040 On ch=1 n=f#2 v=43
1337220 On ch=1 n=f#2 v=0
1337280 On ch=1 n=g2 v=40
1337460 On ch=1 n=g2 v=0
1338000 On ch=1 n=d2 v=40
1338180 On ch=1 n=d2 v=0
1338720 On ch=1 n=g2 v=40
1338900 On ch=1 n=g2 v=0
1338900 Meta TrkEnd
TrkEnd
MTrk
0 SeqSpec 43 00 01 00
0 Meta TrkName "Pedal"
0 Meta 0x21 00
0 Meta 0x20 00
0 Par ch=1 c=10 v=64
0 PrCh ch=1 p=0
9600 Par ch=1 c=64 v=127
11280 Par ch=1 c=64 v=0
11760 Par ch=1 c=64 v=127
12960 Par ch=1 c=64 v=0
16080 Par ch=1 c=64 v=127
17040 Par ch=1 c=64 v=0
33840 Par ch=1 c=64 v=127
35760 Par ch=1 c=64 v=0
47040 Par ch=1 c=64 v=127
69960 Par ch=1 c=64 v=0
70080 Par ch=1 c=64 v=127
73800 Par ch=1 c=64 v=0
73920 Par ch=1 c=64 v=127
74400 Par ch=1 c=64 v=0
74880 Par ch=1 c=64 v=127
75480 Par ch=1 c=64 v=0
77760 Par ch=1 c=64 v=127
85320 Par ch=1 c=64 v=0
85440 Par ch=1 c=64 v=127
89160 Par ch=1 c=64 v=0
89280 Par ch=1 c=64 v=127
89760 Par ch=1 c=64 v=0
90240 Par ch=1 c=64 v=127
90840 Par ch=1 c=64 v=0
94080 Par ch=1 c=64 v=127
95520 Par ch=1 c=64 v=0
96240 Par ch=1 c=64 v=127
97440 Par ch=1 c=64 v=0
100560 Par ch=1 c=64 v=127
101520 Par ch=1 c=64 v=0
102960 Par ch=1 c=64 v=127
104880 Par ch=1 c=64 v=0
117600 Par ch=1 c=64 v=127
117960 Par ch=1 c=64 v=0
118320 Par ch=1 c=64 v=127
118920 Par ch=1 c=64 v=0
119040 Par ch=1 c=64 v=127
119880 Par ch=1 c=64 v=0
120480 Par ch=1 c=64 v=127
120840 Par ch=1 c=64 v=0
121200 Par ch=1 c=64 v=127
121800 Par ch=1 c=64 v=0
121920 Par ch=1 c=64 v=127
122760 Par ch=1 c=64 v=0
123360 Par ch=1 c=64 v=127
123720 Par ch=1 c=64 v=0
124080 Par ch=1 c=64 v=127
124680 Par ch=1 c=64 v=0
124800 Par ch=1 c=64 v=127
125160 Par ch=1 c=64 v=0
125520 Par ch=1 c=64 v=127
126120 Par ch=1 c=64 v=0
126240 Par ch=1 c=64 v=127
126600 Par ch=1 c=64 v=0
126960 Par ch=1 c=64 v=127
127560 Par ch=1 c=64 v=0
129120 Par ch=1 c=64 v=127
129480 Par ch=1 c=64 v=0
129840 Par ch=1 c=64 v=127
130440 Par ch=1 c=64 v=0
130560 Par ch=1 c=64 v=127
131400 Par ch=1 c=64 v=0
132000 Par ch=1 c=64 v=127
132360 Par ch=1 c=64 v=0
132720 Par ch=1 c=64 v=127
133320 Par ch=1 c=64 v=0
133440 Par ch=1 c=64 v=127
134280 Par ch=1 c=64 v=0
134880 Par ch=1 c=64 v=127
135240 Par ch=1 c=64 v=0
135600 Par ch=1 c=64 v=127
136200 Par ch=1 c=64 v=0
136320 Par ch=1 c=64 v=127
136680 Par ch=1 c=64 v=0
137040 Par ch=1 c=64 v=127
137640 Par ch=1 c=64 v=0
137760 Par ch=1 c=64 v=127
138120 Par ch=1 c=64 v=0
138480 Par ch=1 c=64 v=127
139080 Par ch=1 c=64 v=0
140640 Par ch=1 c=64 v=127
142000 Par ch=1 c=64 v=0
142080 Par ch=1 c=64 v=127
143400 Par ch=1 c=64 v=0
143520 Par ch=1 c=64 v=127
143520 Par ch=1 c=64 v=127
143880 Par ch=1 c=64 v=0
144000 Par ch=1 c=64 v=127
144360 Par ch=1 c=64 v=0
144480 Par ch=1 c=64 v=127
144880 Par ch=1 c=64 v=0
144960 Par ch=1 c=64 v=127
145320 Par ch=1 c=64 v=0
145440 Par ch=1 c=64 v=127
145800 Par ch=1 c=64 v=0
164640 Par ch=1 c=64 v=127
165000 Par ch=1 c=64 v=0
165120 Par ch=1 c=64 v=127
165480 Par ch=1 c=64 v=0
165600 Par ch=1 c=64 v=127
165720 Par ch=1 c=64 v=0
167520 Par ch=1 c=64 v=127
167880 Par ch=1 c=64 v=0
168000 Par ch=1 c=64 v=127
169400 Par ch=1 c=64 v=0
169920 Par ch=1 c=64 v=127
170760 Par ch=1 c=64 v=0
170880 Par ch=1 c=64 v=127
171240 Par ch=1 c=64 v=0
171360 Par ch=1 c=64 v=127
172200 Par ch=1 c=64 v=0
172320 Par ch=1 c=64 v=127
172680 Par ch=1 c=64 v=0
172800 Par ch=1 c=64 v=127
173640 Par ch=1 c=64 v=0
173760 Par ch=1 c=64 v=127
174120 Par ch=1 c=64 v=0
174240 Par ch=1 c=64 v=127
175080 Par ch=1 c=64 v=0
175200 Par ch=1 c=64 v=127
175560 Par ch=1 c=64 v=0
175680 Par ch=1 c=64 v=127
176640 Par ch=1 c=64 v=0
216960 Par ch=1 c=64 v=127
217320 Par ch=1 c=64 v=0
217440 Par ch=1 c=64 v=127
217800 Par ch=1 c=64 v=0
217920 Par ch=1 c=64 v=127
218040 Par ch=1 c=64 v=0
219840 Par ch=1 c=64 v=127
220200 Par ch=1 c=64 v=0
220320 Par ch=1 c=64 v=127
221720 Par ch=1 c=64 v=0
222240 Par ch=1 c=64 v=127
223080 Par ch=1 c=64 v=0
223200 Par ch=1 c=64 v=127
223560 Par ch=1 c=64 v=0
223680 Par ch=1 c=64 v=127
224520 Par ch=1 c=64 v=0
224640 Par ch=1 c=64 v=127
225000 Par ch=1 c=64 v=0
225120 Par ch=1 c=64 v=127
225960 Par ch=1 c=64 v=0
226080 Par ch=1 c=64 v=127
226440 Par ch=1 c=64 v=0
226560 Par ch=1 c=64 v=127
227400 Par ch=1 c=64 v=0
227520 Par ch=1 c=64 v=127
227880 Par ch=1 c=64 v=0
228000 Par ch=1 c=64 v=127
228960 Par ch=1 c=64 v=0
233040 Par ch=1 c=64 v=127
234240 Par ch=1 c=64 v=0
238080 Par ch=1 c=64 v=127
239000 Par ch=1 c=64 v=0
240960 Par ch=1 c=64 v=127
241880 Par ch=1 c=64 v=0
249600 Par ch=1 c=64 v=127
250040 Par ch=1 c=64 v=0
252480 Par ch=1 c=64 v=127
253400 Par ch=1 c=64 v=0
276000 Par ch=1 c=64 v=127
276920 Par ch=1 c=64 v=0
278880 Par ch=1 c=64 v=127
279800 Par ch=1 c=64 v=0
302400 Par ch=1 c=64 v=127
303320 Par ch=1 c=64 v=0
305280 Par ch=1 c=64 v=127
306200 Par ch=1 c=64 v=0
308160 Par ch=1 c=64 v=127
308880 Par ch=1 c=64 v=0
335040 Par ch=1 c=64 v=127
336600 Par ch=1 c=64 v=0
338400 Par ch=1 c=64 v=127
339720 Par ch=1 c=64 v=0
352800 Par ch=1 c=64 v=127
353640 Par ch=1 c=64 v=0
353760 Par ch=1 c=64 v=127
354120 Par ch=1 c=64 v=0
354240 Par ch=1 c=64 v=127
355080 Par ch=1 c=64 v=0
355200 Par ch=1 c=64 v=127
355560 Par ch=1 c=64 v=0
355680 Par ch=1 c=86 v=8
355680 Par ch=1 c=64 v=127
356520 Par ch=1 c=64 v=0
356640 Par ch=1 c=64 v=127
357000 Par ch=1 c=64 v=0
357120 Par ch=1 c=64 v=127
358080 Par ch=1 c=64 v=127
361320 Par ch=1 c=64 v=0
361440 Par ch=1 c=64 v=127
364200 Par ch=1 c=64 v=0
364320 Par ch=1 c=64 v=127
365640 Par ch=1 c=64 v=0
365760 Par ch=1 c=64 v=127
366240 Par ch=1 c=64 v=0
366720 Par ch=1 c=64 v=127
367920 Par ch=1 c=64 v=0
374400 Par ch=1 c=64 v=127
375720 Par ch=1 c=64 v=0
375840 Par ch=1 c=64 v=127
377760 Par ch=1 c=64 v=0
411360 Par ch=1 c=64 v=127
412680 Par ch=1 c=64 v=0
412800 Par ch=1 c=64 v=127
413160 Par ch=1 c=64 v=0
413280 Par ch=1 c=64 v=127
414720 Par ch=1 c=64 v=0
419040 Par ch=1 c=64 v=127
420000 Par ch=1 c=64 v=0
420960 Par ch=1 c=64 v=127
421860 Par ch=1 c=64 v=0
421920 Par ch=1 c=64 v=127
422340 Par ch=1 c=64 v=0
422400 Par ch=1 c=64 v=127
424740 Par ch=1 c=64 v=0
424800 Par ch=1 c=64 v=127
425700 Par ch=1 c=64 v=0
425760 Par ch=1 c=64 v=127
426180 Par ch=1 c=64 v=0
426240 Par ch=1 c=64 v=127
426660 Par ch=1 c=64 v=0
428640 Par ch=1 c=64 v=127
430080 Par ch=1 c=64 v=0
434400 Par ch=1 c=64 v=127
435360 Par ch=1 c=64 v=0
436320 Par ch=1 c=64 v=127
437220 Par ch=1 c=64 v=0
437280 Par ch=1 c=64 v=127
437700 Par ch=1 c=64 v=0
437760 Par ch=1 c=64 v=127
440100 Par ch=1 c=64 v=0
440160 Par ch=1 c=64 v=127
441060 Par ch=1 c=64 v=0
441120 Par ch=1 c=64 v=127
441540 Par ch=1 c=64 v=0
441600 Par ch=1 c=64 v=127
442020 Par ch=1 c=64 v=0
442020 Par ch=1 c=64 v=0
444000 Par ch=1 c=64 v=127
445860 Par ch=1 c=64 v=0
447840 Par ch=1 c=64 v=127
448740 Par ch=1 c=64 v=0
448800 Par ch=1 c=64 v=127
449520 Par ch=1 c=64 v=0
455520 Par ch=1 c=64 v=127
456960 Par ch=1 c=64 v=0
459360 Par ch=1 c=64 v=127
463200 Par ch=1 c=64 v=127
464640 Par ch=1 c=64 v=0
468960 Par ch=1 c=64 v=127
469920 Par ch=1 c=64 v=0
470880 Par ch=1 c=64 v=127
471780 Par ch=1 c=64 v=0
471840 Par ch=1 c=64 v=127
472260 Par ch=1 c=64 v=0
472320 Par ch=1 c=64 v=127
474660 Par ch=1 c=64 v=0
474720 Par ch=1 c=64 v=127
475620 Par ch=1 c=64 v=0
475680 Par ch=1 c=64 v=127
476100 Par ch=1 c=64 v=0
476160 Par ch=1 c=64 v=127
476580 Par ch=1 c=64 v=0
476580 Par ch=1 c=64 v=0
478560 Par ch=1 c=64 v=127
480420 Par ch=1 c=64 v=0
482400 Par ch=1 c=64 v=127
483300 Par ch=1 c=64 v=0
483360 Par ch=1 c=64 v=127
484080 Par ch=1 c=64 v=0
490080 Par ch=1 c=64 v=127
491520 Par ch=1 c=64 v=0
493920 Par ch=1 c=64 v=127
497760 Par ch=1 c=64 v=127
499200 Par ch=1 c=64 v=0
503520 Par ch=1 c=64 v=127
503520 Par ch=1 c=64 v=127
505380 Par ch=1 c=64 v=0
505380 Par ch=1 c=64 v=0
505440 Par ch=1 c=64 v=127
505440 Par ch=1 c=64 v=127
507300 Par ch=1 c=64 v=0
507300 Par ch=1 c=64 v=0
507360 Par ch=1 c=64 v=127
507360 Par ch=1 c=64 v=127
508260 Par ch=1 c=64 v=0
508260 Par ch=1 c=64 v=0
508320 Par ch=1 c=64 v=127
508320 Par ch=1 c=64 v=127
508740 Par ch=1 c=64 v=0
508740 Par ch=1 c=64 v=0
508800 Par ch=1 c=64 v=127
508800 Par ch=1 c=64 v=127
509220 Par ch=1 c=64 v=0
509220 Par ch=1 c=64 v=0
509280 Par ch=1 c=64 v=127
509280 Par ch=1 c=64 v=127
510180 Par ch=1 c=64 v=0
510180 Par ch=1 c=64 v=0
510240 Par ch=1 c=64 v=127
510240 Par ch=1 c=64 v=127
510480 Par ch=1 c=64 v=0
510480 Par ch=1 c=64 v=0
541680 Par ch=1 c=64 v=127
542340 Par ch=1 c=64 v=0
542400 Par ch=1 c=64 v=127
542820 Par ch=1 c=64 v=0
542880 Par ch=1 c=64 v=127
543300 Par ch=1 c=64 v=0
543360 Par ch=1 c=64 v=127
543780 Par ch=1 c=64 v=0
543840 Par ch=1 c=64 v=127
544316 Par ch=1 c=64 v=0
557280 Par ch=1 c=64 v=127
559140 Par ch=1 c=64 v=0
559200 Par ch=1 c=64 v=127
561060 Par ch=1 c=64 v=105
561120 Par ch=1 c=64 v=127
562500 Par ch=1 c=64 v=0
563040 Par ch=1 c=64 v=127
564420 Par ch=1 c=64 v=0
564960 Par ch=1 c=64 v=127
566340 Par ch=1 c=64 v=0
568800 Par ch=1 c=64 v=127
571676 Par ch=1 c=64 v=0
578640 Par ch=1 c=64 v=127
579120 Par ch=1 c=64 v=0
586320 Par ch=1 c=64 v=127
586800 Par ch=1 c=64 v=0
594720 Par ch=1 c=64 v=127
595640 Par ch=1 c=64 v=0
595680 Par ch=1 c=64 v=127
596120 Par ch=1 c=64 v=0
596640 Par ch=1 c=64 v=127
597560 Par ch=1 c=64 v=0
597600 Par ch=1 c=64 v=127
598520 Par ch=1 c=64 v=0
598560 Par ch=1 c=64 v=127
599000 Par ch=1 c=64 v=0
600000 Par ch=1 c=64 v=127
600920 Par ch=1 c=64 v=0
601440 Par ch=1 c=64 v=127
601880 Par ch=1 c=64 v=0
602880 Par ch=1 c=64 v=127
603840 Par ch=1 c=64 v=0
604320 Par ch=1 c=64 v=127
606200 Par ch=1 c=64 v=0
606240 Par ch=1 c=64 v=127
607640 Par ch=1 c=64 v=0
607680 Par ch=1 c=64 v=127
608600 Par ch=1 c=64 v=0
609120 Par ch=1 c=64 v=127
609560 Par ch=1 c=64 v=0
609600 Par ch=1 c=64 v=127
610520 Par ch=1 c=64 v=0
611040 Par ch=1 c=64 v=127
611960 Par ch=1 c=64 v=0
612000 Par ch=1 c=64 v=127
612920 Par ch=1 c=64 v=0
630240 Par ch=1 c=64 v=127
630720 Par ch=1 c=64 v=0
633120 Par ch=1 c=64 v=127
633600 Par ch=1 c=64 v=0
636000 Par ch=1 c=64 v=127
636480 Par ch=1 c=64 v=0
648960 Par ch=1 c=64 v=127
649440 Par ch=1 c=64 v=0
651840 Par ch=1 c=64 v=127
652320 Par ch=1 c=64 v=0
654720 Par ch=1 c=64 v=127
655200 Par ch=1 c=64 v=0
664560 Par ch=1 c=64 v=127
666240 Par ch=1 c=64 v=0
670320 Par ch=1 c=64 v=127
672000 Par ch=1 c=64 v=0
676080 Par ch=1 c=64 v=127
677760 Par ch=1 c=64 v=0
681840 Par ch=1 c=64 v=127
683520 Par ch=1 c=64 v=0
702240 Par ch=1 c=64 v=127
702720 Par ch=1 c=64 v=0
705120 Par ch=1 c=64 v=127
705600 Par ch=1 c=64 v=0
708000 Par ch=1 c=64 v=127
708480 Par ch=1 c=64 v=0
764640 Par ch=1 c=64 v=127
767400 Par ch=1 c=64 v=0
771360 Par ch=1 c=64 v=127
773240 Par ch=1 c=64 v=0
773280 Par ch=1 c=64 v=127
774680 Par ch=1 c=64 v=0
774720 Par ch=1 c=64 v=127
776120 Par ch=1 c=64 v=0
776160 Par ch=1 c=64 v=127
777560 Par ch=1 c=64 v=0
777600 Par ch=1 c=64 v=127
779000 Par ch=1 c=64 v=0
779040 Par ch=1 c=64 v=127
780440 Par ch=1 c=64 v=0
780480 Par ch=1 c=64 v=127
781880 Par ch=1 c=64 v=0
781920 Par ch=1 c=64 v=127
783320 Par ch=1 c=64 v=0
783360 Par ch=1 c=64 v=127
784760 Par ch=1 c=64 v=0
788640 Par ch=1 c=64 v=127
789560 Par ch=1 c=64 v=0
789600 Par ch=1 c=64 v=127
790520 Par ch=1 c=64 v=0
790560 Par ch=1 c=64 v=127
791480 Par ch=1 c=64 v=0
791520 Par ch=1 c=64 v=127
792440 Par ch=1 c=64 v=0
792480 Par ch=1 c=64 v=127
793400 Par ch=1 c=64 v=0
793440 Par ch=1 c=64 v=127
794360 Par ch=1 c=64 v=0
794400 Par ch=1 c=64 v=127
796280 Par ch=1 c=64 v=0
796320 Par ch=1 c=64 v=127
799160 Par ch=1 c=64 v=0
821520 Par ch=1 c=64 v=127
823200 Par ch=1 c=64 v=0
827280 Par ch=1 c=64 v=127
828960 Par ch=1 c=64 v=0
833040 Par ch=1 c=64 v=127
834720 Par ch=1 c=64 v=0
838800 Par ch=1 c=64 v=127
840480 Par ch=1 c=64 v=0
859200 Par ch=1 c=64 v=127
859680 Par ch=1 c=64 v=0
862080 Par ch=1 c=64 v=127
862560 Par ch=1 c=64 v=0
864960 Par ch=1 c=64 v=127
865440 Par ch=1 c=64 v=0
876960 Par ch=1 c=64 v=127
877580 Par ch=1 c=64 v=0
877680 Par ch=1 c=64 v=127
878340 Par ch=1 c=64 v=0
878400 Par ch=1 c=64 v=127
879780 Par ch=1 c=64 v=0
879840 Par ch=1 c=64 v=127
881220 Par ch=1 c=64 v=0
881280 Par ch=1 c=64 v=127
882240 Par ch=1 c=64 v=0
882720 Par ch=1 c=64 v=127
884100 Par ch=1 c=64 v=0
884160 Par ch=1 c=64 v=127
885120 Par ch=1 c=64 v=0
898560 Par ch=1 c=64 v=127
899520 Par ch=1 c=64 v=0
907200 Par ch=1 c=64 v=127
908040 Par ch=1 c=64 v=0
910080 Par ch=1 c=64 v=127
911280 Par ch=1 c=64 v=0
911520 Par ch=1 c=64 v=127
912600 Par ch=1 c=64 v=0
913000 Par ch=1 c=64 v=127
913920 Par ch=1 c=64 v=0
914400 Par ch=1 c=64 v=127
915060 Par ch=1 c=64 v=0
915120 Par ch=1 c=64 v=127
915780 Par ch=1 c=64 v=0
915840 Par ch=1 c=64 v=127
916500 Par ch=1 c=64 v=0
916560 Par ch=1 c=64 v=127
917040 Par ch=1 c=64 v=0
927720 Par ch=1 c=64 v=127
928440 Par ch=1 c=64 v=0
928800 Par ch=1 c=64 v=127
929880 Par ch=1 c=64 v=0
930240 Par ch=1 c=64 v=127
931320 Par ch=1 c=64 v=0
931680 Par ch=1 c=64 v=127
932760 Par ch=1 c=64 v=0
933120 Par ch=1 c=64 v=127
934200 Par ch=1 c=64 v=0
934560 Par ch=1 c=64 v=127
935640 Par ch=1 c=64 v=0
937440 Par ch=1 c=64 v=127
938160 Par ch=1 c=64 v=0
948960 Par ch=1 c=64 v=127
950160 Par ch=1 c=64 v=0
950400 Par ch=1 c=64 v=127
950400 Par ch=1 c=64 v=127
951060 Par ch=1 c=64 v=0
951120 Par ch=1 c=64 v=127
951120 Par ch=1 c=64 v=127
951780 Par ch=1 c=64 v=0
951780 Par ch=1 c=64 v=0
951840 Par ch=1 c=64 v=127
951840 Par ch=1 c=64 v=127
953220 Par ch=1 c=64 v=0
953220 Par ch=1 c=64 v=0
953280 Par ch=1 c=64 v=127
953980 Par ch=1 c=64 v=0
954000 Par ch=1 c=64 v=127
954660 Par ch=1 c=64 v=0
954720 Par ch=1 c=64 v=127
955920 Par ch=1 c=64 v=0
956160 Par ch=1 c=64 v=127
957540 Par ch=1 c=64 v=0
957600 Par ch=1 c=64 v=127
958740 Par ch=1 c=64 v=0
959040 Par ch=1 c=64 v=127
959760 Par ch=1 c=64 v=0
960480 Par ch=1 c=64 v=127
961140 Par ch=1 c=64 v=0
961200 Par ch=1 c=64 v=127
961860 Par ch=1 c=64 v=0
961920 Par ch=1 c=64 v=127
963300 Par ch=1 c=64 v=0
965760 Par ch=1 c=64 v=127
966480 Par ch=1 c=64 v=0
967680 Par ch=1 c=64 v=127
968400 Par ch=1 c=64 v=0
969600 Par ch=1 c=64 v=127
970320 Par ch=1 c=64 v=0
971520 Par ch=1 c=64 v=127
972000 Par ch=1 c=64 v=0
973440 Par ch=1 c=64 v=127
974160 Par ch=1 c=64 v=0
975360 Par ch=1 c=64 v=127
976080 Par ch=1 c=64 v=0
977280 Par ch=1 c=64 v=127
978000 Par ch=1 c=64 v=0
995520 Par ch=1 c=64 v=127
996440 Par ch=1 c=64 v=0
996480 Par ch=1 c=64 v=127
997400 Par ch=1 c=64 v=0
997440 Par ch=1 c=64 v=127
998360 Par ch=1 c=64 v=0
998400 Par ch=1 c=64 v=127
999320 Par ch=1 c=64 v=0
1066560 Par ch=1 c=64 v=127
1066920 Par ch=1 c=64 v=0
1067040 Par ch=1 c=64 v=127
1067400 Par ch=1 c=64 v=0
1067520 Par ch=1 c=64 v=127
1068000 Par ch=1 c=64 v=0
1223520 Par ch=1 c=64 v=127
1224360 Par ch=1 c=64 v=0
1224480 Par ch=1 c=64 v=127
1225800 Par ch=1 c=64 v=0
1226400 Par ch=1 c=64 v=127
1227240 Par ch=1 c=64 v=0
1227360 Par ch=1 c=64 v=127
1228680 Par ch=1 c=64 v=0
1229280 Par ch=1 c=64 v=127
1230120 Par ch=1 c=64 v=0
1230240 Par ch=1 c=64 v=127
1231560 Par ch=1 c=64 v=0
1231680 Par ch=1 c=64 v=127
1233120 Par ch=1 c=64 v=0
1233240 Par ch=1 c=64 v=127
1234920 Par ch=1 c=64 v=0
1236480 Par ch=1 c=64 v=127
1237800 Par ch=1 c=64 v=0
1239360 Par ch=1 c=64 v=127
1240680 Par ch=1 c=64 v=0
1242240 Par ch=1 c=64 v=127
1243560 Par ch=1 c=64 v=0
1243680 Par ch=1 c=64 v=127
1245000 Par ch=1 c=64 v=0
1245120 Par ch=1 c=64 v=127
1245840 Par ch=1 c=64 v=0
1248000 Par ch=1 c=64 v=127
1249320 Par ch=1 c=64 v=0
1250880 Par ch=1 c=64 v=127
1252200 Par ch=1 c=64 v=0
1253760 Par ch=1 c=64 v=127
1255080 Par ch=1 c=64 v=0
1255200 Par ch=1 c=64 v=127
1256520 Par ch=1 c=64 v=0
1256640 Par ch=1 c=64 v=127
1257360 Par ch=1 c=64 v=0
1258080 Par ch=1 c=64 v=127
1259040 Par ch=1 c=64 v=0
1259160 Par ch=1 c=64 v=127
1260240 Par ch=1 c=64 v=0
1260600 Par ch=1 c=64 v=127
1261920 Par ch=1 c=64 v=0
1262040 Par ch=1 c=64 v=127
1263120 Par ch=1 c=64 v=0
1263480 Par ch=1 c=64 v=127
1264800 Par ch=1 c=64 v=0
1264920 Par ch=1 c=64 v=127
1266000 Par ch=1 c=64 v=0
1266360 Par ch=1 c=64 v=127
1267680 Par ch=1 c=64 v=0
1267800 Par ch=1 c=64 v=127
1268880 Par ch=1 c=64 v=0
1269240 Par ch=1 c=64 v=127
1271760 Par ch=1 c=64 v=0
1272120 Par ch=1 c=64 v=127
1274640 Par ch=1 c=64 v=0
1275000 Par ch=1 c=64 v=127
1277760 Par ch=1 c=64 v=0
1277880 Par ch=1 c=64 v=127
1280400 Par ch=1 c=64 v=0
1280760 Par ch=1 c=64 v=127
1282080 Par ch=1 c=64 v=0
1282200 Par ch=1 c=64 v=127
1283280 Par ch=1 c=64 v=0
1283640 Par ch=1 c=64 v=127
1284960 Par ch=1 c=64 v=0
1285080 Par ch=1 c=64 v=127
1286160 Par ch=1 c=64 v=0
1286520 Par ch=1 c=64 v=127
1287840 Par ch=1 c=64 v=0
1287960 Par ch=1 c=64 v=127
1289280 Par ch=1 c=64 v=0
1289400 Par ch=1 c=64 v=127
1290480 Par ch=1 c=64 v=0
1290840 Par ch=1 c=64 v=127
1291920 Par ch=1 c=64 v=0
1291920 Meta TrkEnd
TrkEnd
