MFile 0 1 480
MTrk
0 SMPTE 96 0 0 0 0
0 TimeSig 4/4 24 8
0 KeySig 0 major
0 Tempo 500000
0 On ch=1 n=g5 v=32
78 On ch=1 n=b5 v=44
92 On ch=1 n=g4 v=29
128 On ch=1 n=d4 v=29
131 On ch=1 n=a5 v=46
216 Off ch=1 n=b5 v=64
246 Off ch=1 n=g5 v=64
328 On ch=1 n=b4 v=30
396 Par ch=1 c=64 v=127
436 On ch=1 n=f5 v=38
438 Off ch=1 n=g4 v=64
472 Off ch=1 n=d4 v=64
546 Off ch=1 n=f5 v=64
562 On ch=1 n=g5 v=46
580 Off ch=1 n=b4 v=64
676 On ch=1 n=g4 v=35
704 On ch=1 n=c4 v=16
704 On ch=1 n=c6 v=42
736 Off ch=1 n=g5 v=64
760 Off ch=1 n=a5 v=64
766 Par ch=1 c=64 v=0
906 On ch=1 n=c5 v=31
996 Par ch=1 c=64 v=127
1026 On ch=1 n=e5 v=40
1036 Off ch=1 n=g4 v=64
1074 Off ch=1 n=c5 v=64
1112 On ch=1 n=g5 v=42
1116 Off ch=1 n=c6 v=64
1140 Off ch=1 n=e5 v=64
1192 Off ch=1 n=c4 v=64
1195 On ch=1 n=b5 v=38
1226 On ch=1 n=d4 v=37
1230 On ch=1 n=a5 v=48
1242 On ch=1 n=g4 v=21
1272 Par ch=1 c=64 v=0
1296 Off ch=1 n=b5 v=64
1306 Off ch=1 n=g5 v=64
1438 On ch=1 n=b4 v=42
1516 On ch=1 n=f5 v=39
1518 Off ch=1 n=g4 v=64
1564 Par ch=1 c=64 v=127
1596 Off ch=1 n=f5 v=64
1599 Off ch=1 n=b4 v=64
1622 On ch=1 n=g5 v=60
1670 Off ch=1 n=d4 v=64
1720 On ch=1 n=c4 v=29
1723 Off ch=1 n=a5 v=64
1736 On ch=1 n=g4 v=28
1740 On ch=1 n=c6 v=60
1744 Off ch=1 n=g5 v=64
1764 Par ch=1 c=64 v=0
1910 On ch=1 n=c5 v=49
1913 Off ch=1 n=g4 v=64
1950 Off ch=1 n=c4 v=64
1950 Par ch=1 c=64 v=127
2006 Off ch=1 n=c6 v=64
2016 Off ch=1 n=c5 v=64
2034 On ch=1 n=e5 v=52
2096 Off ch=1 n=e5 v=64
2130 On ch=1 n=c6 v=54
2248 On ch=1 n=g4 v=44
2248 On ch=1 n=c#6 v=69
2254 On ch=1 n=a4 v=34
2256 Off ch=1 n=c6 v=64
2318 Par ch=1 c=64 v=0
2386 On ch=1 n=c#5 v=52
2480 Off ch=1 n=a4 v=64
2518 Par ch=1 c=64 v=127
2530 On ch=1 n=e5 v=63
2534 Off ch=1 n=c#6 v=64
2600 Off ch=1 n=e5 v=64
2646 On ch=1 n=c#6 v=44
2654 Off ch=1 n=c#5 v=64
2732 Off ch=1 n=g4 v=64
2752 On ch=1 n=a4 v=32
2770 On ch=1 n=f4 v=57
2778 On ch=1 n=d6 v=78
2806 Off ch=1 n=c#6 v=64
2824 Par ch=1 c=64 v=0
2930 On ch=1 n=d5 v=51
2968 Off ch=1 n=a4 v=64
3024 Par ch=1 c=64 v=127
3046 Off ch=1 n=d6 v=64
3066 On ch=1 n=f5 v=55
3146 Off ch=1 n=f5 v=64
3168 Off ch=1 n=d5 v=64
3192 On ch=1 n=d6 v=67
3276 Off ch=1 n=f4 v=64
3316 On ch=1 n=e4 v=50
3328 On ch=1 n=a4 v=23
3331 On ch=1 n=e6 v=62
3346 Par ch=1 c=64 v=0
3370 Off ch=1 n=d6 v=64
3468 On ch=1 n=c#5 v=44
3548 Off ch=1 n=a4 v=64
3548 Par ch=1 c=64 v=127
3604 Off ch=1 n=e6 v=64
3607 On ch=1 n=g5 v=38
3644 Off ch=1 n=c#5 v=64
3694 Off ch=1 n=g5 v=64
3708 On ch=1 n=e6 v=24
3744 Off ch=1 n=e4 v=64
3878 On ch=1 n=f6 v=62
3882 On ch=1 n=a4 v=22
3886 On ch=1 n=d4 v=33
3888 Off ch=1 n=e6 v=64
3900 Par ch=1 c=64 v=0
4100 On ch=1 n=d5 v=28
4162 Par ch=1 c=64 v=127
4182 Off ch=1 n=f6 v=64
4208 Off ch=1 n=d4 v=64
4218 Off ch=1 n=a4 v=64
4242 On ch=1 n=f5 v=35
4262 Off ch=1 n=d5 v=64
4336 Off ch=1 n=f5 v=64
4432 On ch=1 n=a5 v=34
4522 Off ch=1 n=a5 v=64
4566 On ch=1 n=c6 v=40
4616 On ch=1 n=a#5 v=43
4636 On ch=1 n=g4 v=14
4638 Par ch=1 c=64 v=0
4646 On ch=1 n=a4 v=12
4726 Off ch=1 n=c6 v=64
4790 On ch=1 n=c#5 v=29
4912 Off ch=1 n=a4 v=64
4916 On ch=1 n=e5 v=32
4930 Par ch=1 c=64 v=127
4998 Off ch=1 n=e5 v=64
5014 Off ch=1 n=c#5 v=64
5024 On ch=1 n=a5 v=35
5076 Off ch=1 n=g4 v=64
5106 Off ch=1 n=a5 v=64
5176 On ch=1 n=d6 v=44
5186 On ch=1 n=a4 v=12
5206 On ch=1 n=f4 v=43
5216 Off ch=1 n=a#5 v=64
5268 Par ch=1 c=64 v=0
5352 On ch=1 n=d5 v=36
5398 Off ch=1 n=f4 v=64
5448 Off ch=1 n=d5 v=64
5452 Par ch=1 c=64 v=127
5456 On ch=1 n=f5 v=36
5464 Off ch=1 n=a4 v=64
5498 Off ch=1 n=d6 v=64
5530 Off ch=1 n=f5 v=64
5558 On ch=1 n=a5 v=41
5644 Off ch=1 n=a5 v=64
5660 On ch=1 n=c6 v=54
5688 On ch=1 n=g4 v=40
5700 On ch=1 n=a#5 v=60
5728 Par ch=1 c=64 v=0
5730 On ch=1 n=a4 v=21
5744 Off ch=1 n=c6 v=64
5842 On ch=1 n=c#5 v=55
5926 Off ch=1 n=a4 v=64
5972 On ch=1 n=e5 v=55
5974 Par ch=1 c=64 v=127
5992 Off ch=1 n=c#5 v=64
6030 Off ch=1 n=e5 v=64
6076 On ch=1 n=a5 v=65
6112 Off ch=1 n=g4 v=64
6184 On ch=1 n=f4 v=54
6210 On ch=1 n=a4 v=34
6213 On ch=1 n=d6 v=70
6218 Off ch=1 n=a5 v=64
6236 Par ch=1 c=64 v=0
6262 Off ch=1 n=a#5 v=64
6384 On ch=1 n=d5 v=53
6418 Off ch=1 n=a4 v=64
6436 Par ch=1 c=64 v=127
6440 Off ch=1 n=f4 v=64
6470 Off ch=1 n=d6 v=64
6510 On ch=1 n=f5 v=54
6562 Off ch=1 n=d5 v=64
6574 Off ch=1 n=f5 v=64
6640 On ch=1 n=d6 v=72
6764 On ch=1 n=a4 v=31
6769 On ch=1 n=e4 v=46
6782 On ch=1 n=e6 v=67
6808 Off ch=1 n=d6 v=64
6866 Par ch=1 c=64 v=0
6940 On ch=1 n=c#5 v=46
6986 Off ch=1 n=a4 v=64
7034 Par ch=1 c=64 v=127
7050 On ch=1 n=g5 v=60
7068 Off ch=1 n=e6 v=64
7100 Off ch=1 n=e4 v=64
7144 Off ch=1 n=c#5 v=64
7156 On ch=1 n=e6 v=49
7174 Off ch=1 n=g5 v=64
7292 On ch=1 n=d4 v=32
7298 On ch=1 n=f6 v=84
7304 On ch=1 n=a4 v=26
7322 Off ch=1 n=e6 v=64
7325 Par ch=1 c=64 v=0
7456 On ch=1 n=d5 v=52
7496 Par ch=1 c=64 v=127
7542 Off ch=1 n=a4 v=64
7578 On ch=1 n=f5 v=64
7588 Off ch=1 n=d4 v=64
7602 Off ch=1 n=d5 v=64
7624 Off ch=1 n=f6 v=64
7624 Off ch=1 n=f5 v=64
7712 On ch=1 n=f6 v=65
7854 On ch=1 n=c4 v=33
7864 On ch=1 n=a4 v=36
7870 On ch=1 n=f#6 v=79
7894 Off ch=1 n=f6 v=64
7894 Par ch=1 c=64 v=0
8030 Off ch=1 n=c4 v=64
8050 Par ch=1 c=64 v=127
8053 On ch=1 n=d5 v=25
8094 Off ch=1 n=a4 v=64
8126 Off ch=1 n=d5 v=64
8144 Off ch=1 n=f#6 v=64
8160 On ch=1 n=f#5 v=49
8228 Off ch=1 n=f#5 v=64
8296 On ch=1 n=f#6 v=63
8438 On ch=1 n=g4 v=29
8464 On ch=1 n=b3 v=12
8526 Par ch=1 c=64 v=0
8546 Off ch=1 n=f#6 v=64
8546 On ch=1 n=g6 v=72
8756 Par ch=1 c=64 v=127
8790 On ch=1 n=d5 v=31
8826 Off ch=1 n=g6 v=64
8992 On ch=1 n=f5 v=41
9018 Off ch=1 n=g4 v=64
9056 Off ch=1 n=d5 v=64
9066 Off ch=1 n=f5 v=64
9170 On ch=1 n=g5 v=60
9274 On ch=1 n=b5 v=68
9284 On ch=1 n=d4 v=46
9296 On ch=1 n=a5 v=61
9316 On ch=1 n=g4 v=34
9342 Off ch=1 n=g5 v=64
9408 Off ch=1 n=b5 v=64
9462 Par ch=1 c=64 v=0
9488 Off ch=1 n=b3 v=64
9512 On ch=1 n=b4 v=37
9584 On ch=1 n=f5 v=48
9596 Off ch=1 n=g4 v=64
9616 Par ch=1 c=64 v=127
9684 Off ch=1 n=f5 v=64
9698 On ch=1 n=g5 v=62
9716 Off ch=1 n=b4 v=64
9764 Off ch=1 n=d4 v=64
9824 Off ch=1 n=g5 v=64
9826 On ch=1 n=c6 v=61
9848 On ch=1 n=g4 v=31
9850 Off ch=1 n=a5 v=64
9850 On ch=1 n=c4 v=24
9862 Par ch=1 c=64 v=0
9992 On ch=1 n=c5 v=42
10016 Par ch=1 c=64 v=127
10020 Off ch=1 n=g4 v=64
10050 Off ch=1 n=c5 v=64
10086 On ch=1 n=e5 v=40
10088 Off ch=1 n=c6 v=64
10104 Off ch=1 n=c4 v=64
10158 Off ch=1 n=e5 v=64
10176 On ch=1 n=c6 v=44
10294 On ch=1 n=e3 v=71
10308 Par ch=1 c=64 v=0
10324 On ch=1 n=c4 v=36
10327 On ch=1 n=g5 v=65
10342 Off ch=1 n=c6 v=64
10412 Off ch=1 n=e3 v=64
10446 Par ch=1 c=64 v=127
10504 On ch=1 n=g4 v=35
10570 Off ch=1 n=g4 v=64
10596 Off ch=1 n=g5 v=64
10602 On ch=1 n=c5 v=50
10700 On ch=1 n=g5 v=49
10712 Off ch=1 n=c5 v=64
10768 Par ch=1 c=64 v=0
10826 On ch=1 n=f3 v=57
10828 On ch=1 n=a5 v=58
10838 Off ch=1 n=g5 v=64
10952 Off ch=1 n=f3 v=64
10984 On ch=1 n=a4 v=53
11014 Par ch=1 c=64 v=127
11076 Off ch=1 n=a4 v=64
11102 Off ch=1 n=a5 v=64
11106 On ch=1 n=c5 v=43
11182 Off ch=1 n=c5 v=64
11194 On ch=1 n=a5 v=32
11276 Par ch=1 c=64 v=0
11294 On ch=1 n=d3 v=60
11336 On ch=1 n=f5 v=66
11348 Off ch=1 n=d3 v=64
11358 Off ch=1 n=a5 v=64
11444 Par ch=1 c=64 v=127
11486 On ch=1 n=f4 v=76
11544 Off ch=1 n=f4 v=64
11570 Off ch=1 n=c4 v=64
11588 Off ch=1 n=f5 v=64
11588 On ch=1 n=c5 v=55
11668 Off ch=1 n=c5 v=64
11674 On ch=1 n=f5 v=65
11824 On ch=1 n=d5 v=78
11828 Par ch=1 c=64 v=0
11833 On ch=1 n=g3 v=37
11838 On ch=1 n=c4 v=38
11846 Off ch=1 n=f5 v=64
11900 Off ch=1 n=g3 v=64
12008 On ch=1 n=f4 v=66
12036 Off ch=1 n=c4 v=64
12044 Par ch=1 c=64 v=127
12080 Off ch=1 n=f4 v=64
12100 Off ch=1 n=d5 v=64
12110 On ch=1 n=c5 v=55
12180 Off ch=1 n=c5 v=64
12200 On ch=1 n=d5 v=60
12320 Par ch=1 c=64 v=0
12324 On ch=1 n=b3 v=44
12336 Off ch=1 n=d5 v=64
12348 On ch=1 n=g3 v=27
12362 On ch=1 n=g5 v=61
12492 Off ch=1 n=b3 v=64
12518 On ch=1 n=f4 v=64
12520 Par ch=1 c=64 v=127
12570 Off ch=1 n=f4 v=64
12588 Off ch=1 n=g3 v=64
12634 Off ch=1 n=g5 v=64
12648 On ch=1 n=b4 v=37
12716 Off ch=1 n=b4 v=64
12746 On ch=1 n=g5 v=39
12842 Par ch=1 c=64 v=0
12858 On ch=1 n=g3 v=35
12862 On ch=1 n=c3 v=36
12896 Off ch=1 n=g5 v=64
12914 On ch=1 n=e5 v=57
12982 Off ch=1 n=c3 v=64
13028 Par ch=1 c=64 v=127
13048 Off ch=1 n=g3 v=64
13110 On ch=1 n=e4 v=22
13178 Off ch=1 n=e4 v=64
13204 On ch=1 n=c5 v=57
13214 Off ch=1 n=e5 v=64
13262 Off ch=1 n=c5 v=64
13362 On ch=1 n=g5 v=78
13458 On ch=1 n=b5 v=79
13484 On ch=1 n=d4 v=30
13486 On ch=1 n=g4 v=43
13494 On ch=1 n=a5 v=76
13518 Off ch=1 n=g5 v=64
13550 Par ch=1 c=64 v=0
13553 Off ch=1 n=b5 v=64
13668 On ch=1 n=b4 v=50
13734 Par ch=1 c=64 v=127
13748 Off ch=1 n=g4 v=64
13762 On ch=1 n=f5 v=57
13780 Off ch=1 n=b4 v=64
13824 Off ch=1 n=d4 v=64
13846 Off ch=1 n=f5 v=64
13866 On ch=1 n=g5 v=76
13976 On ch=1 n=c6 v=65
13981 On ch=1 n=c4 v=39
13984 Off ch=1 n=a5 v=64
13986 Off ch=1 n=g5 v=64
13988 On ch=1 n=g4 v=50
13994 Par ch=1 c=64 v=0
14128 Off ch=1 n=g4 v=64
14130 On ch=1 n=c5 v=47
14146 Off ch=1 n=c4 v=64
14149 Par ch=1 c=64 v=127
14184 Off ch=1 n=c5 v=64
14252 Off ch=1 n=c6 v=64
14268 On ch=1 n=e5 v=18
14330 On ch=1 n=c6 v=47
14350 Off ch=1 n=e5 v=64
14444 On ch=1 n=e3 v=64
14446 Par ch=1 c=64 v=0
14468 Off ch=1 n=c6 v=64
14474 On ch=1 n=c4 v=31
14492 On ch=1 n=g5 v=48
14540 Off ch=1 n=e3 v=64
14564 Par ch=1 c=64 v=127
14616 On ch=1 n=g4 v=51
14680 Off ch=1 n=g4 v=64
14732 Off ch=1 n=g5 v=64
14738 On ch=1 n=c5 v=40
14826 On ch=1 n=g5 v=48
14834 Off ch=1 n=c5 v=64
14932 Par ch=1 c=64 v=0
14952 On ch=1 n=f3 v=59
14982 On ch=1 n=a5 v=57
15002 Off ch=1 n=g5 v=64
15040 Off ch=1 n=f3 v=64
15116 Par ch=1 c=64 v=127
15138 On ch=1 n=a4 v=30
15212 Off ch=1 n=a4 v=64
15226 Off ch=1 n=a5 v=64
15238 On ch=1 n=c5 v=43
15300 Off ch=1 n=c4 v=64
15310 Off ch=1 n=c5 v=64
15332 On ch=1 n=a5 v=28
15424 Par ch=1 c=64 v=0
15438 On ch=1 n=d3 v=45
15441 Off ch=1 n=a5 v=64
15476 On ch=1 n=f5 v=47
15530 Off ch=1 n=d3 v=64
15562 Par ch=1 c=64 v=127
15610 On ch=1 n=f4 v=58
15674 Off ch=1 n=f4 v=64
15702 Off ch=1 n=f5 v=64
15738 On ch=1 n=c5 v=35
15814 Off ch=1 n=c5 v=64
15826 On ch=1 n=f5 v=44
15946 Off ch=1 n=f5 v=64
15946 Par ch=1 c=64 v=0
15954 On ch=1 n=g3 v=48
15970 On ch=1 n=c4 v=31
15996 On ch=1 n=d5 v=47
16146 Par ch=1 c=64 v=127
16156 Off ch=1 n=g3 v=64
16168 On ch=1 n=f4 v=49
16204 Off ch=1 n=c4 v=64
16226 Off ch=1 n=f4 v=64
16256 Off ch=1 n=d5 v=64
16284 On ch=1 n=c5 v=26
16388 Off ch=1 n=c5 v=64
16392 On ch=1 n=d5 v=38
16470 Off ch=1 n=d5 v=64
16500 Par ch=1 c=64 v=0
16528 On ch=1 n=b3 v=25
16540 On ch=1 n=g3 v=38
16572 On ch=1 n=g5 v=38
16736 Off ch=1 n=b3 v=64
16746 Par ch=1 c=64 v=127
16746 On ch=1 n=f4 v=57
16758 Off ch=1 n=g3 v=64
16796 Off ch=1 n=g5 v=64
16799 Off ch=1 n=f4 v=64
16876 On ch=1 n=b4 v=17
16954 Off ch=1 n=b4 v=64
17018 On ch=1 n=g5 v=46
17344 Par ch=1 c=64 v=0
17410 On ch=1 n=g3 v=25
17413 On ch=1 n=c3 v=2
17482 On ch=1 n=e4 v=48
17500 On ch=1 n=c5 v=44
17836 Par ch=1 c=64 v=127
17898 Off ch=1 n=c5 v=64
17926 Off ch=1 n=c3 v=64
17964 Off ch=1 n=g3 v=64
17990 Off ch=1 n=g5 v=64
18002 Off ch=1 n=e4 v=64
18254 On ch=1 n=b5 v=71
18426 On ch=1 n=d6 v=71
18460 On ch=1 n=c6 v=73
18470 On ch=1 n=b4 v=25
18480 On ch=1 n=e4 v=44
18496 Par ch=1 c=64 v=0
18520 Off ch=1 n=b5 v=64
18554 Off ch=1 n=d6 v=64
18652 On ch=1 n=e5 v=46
18696 Par ch=1 c=64 v=127
18752 On ch=1 n=g5 v=57
18802 Off ch=1 n=e4 v=64
18862 On ch=1 n=b5 v=84
18892 Off ch=1 n=e5 v=64
18916 Off ch=1 n=g5 v=64
18926 Off ch=1 n=c6 v=64
18988 On ch=1 n=d#4 v=34
19030 On ch=1 n=f#6 v=75
19066 Par ch=1 c=64 v=0
19106 Off ch=1 n=b5 v=64
19206 On ch=1 n=f#5 v=36
19296 Par ch=1 c=64 v=127
19338 Off ch=1 n=f#5 v=64
19342 On ch=1 n=a5 v=45
19348 Off ch=1 n=b4 v=64
19358 Off ch=1 n=f#6 v=64
19428 Off ch=1 n=a5 v=64
19446 Off ch=1 n=d#4 v=64
19446 On ch=1 n=b5 v=68
19520 On ch=1 n=d6 v=59
19542 On ch=1 n=e4 v=37
19576 On ch=1 n=c6 v=69
19588 Off ch=1 n=b5 v=64
19590 On ch=1 n=b4 v=7
19604 Par ch=1 c=64 v=0
19642 Off ch=1 n=d6 v=64
19766 On ch=1 n=e5 v=41
19802 Par ch=1 c=64 v=127
19874 Off ch=1 n=b4 v=64
19874 Off ch=1 n=e5 v=64
19900 On ch=1 n=g5 v=39
19930 Off ch=1 n=e4 v=64
19986 Off ch=1 n=g5 v=64
19986 On ch=1 n=b5 v=63
20054 Off ch=1 n=b5 v=64
20080 On ch=1 n=d4 v=37
20094 Par ch=1 c=64 v=0
20114 Off ch=1 n=c6 v=64
20116 On ch=1 n=e6 v=51
20124 On ch=1 n=g4 v=13
20356 On ch=1 n=b4 v=33
20372 Par ch=1 c=64 v=127
20410 Off ch=1 n=g4 v=64
20432 Off ch=1 n=e6 v=64
20462 On ch=1 n=e5 v=37
20514 Off ch=1 n=d4 v=64
20530 Off ch=1 n=b4 v=64
20550 Off ch=1 n=e5 v=64
20576 On ch=1 n=g5 v=38
20656 On ch=1 n=b5 v=45
20670 Off ch=1 n=g5 v=64
20690 On ch=1 n=a5 v=49
20694 On ch=1 n=c#4 v=30
20698 On ch=1 n=g4 v=22
20756 Par ch=1 c=64 v=0
20762 Off ch=1 n=b5 v=64
20868 On ch=1 n=a4 v=39
20916 Off ch=1 n=g4 v=64
20924 Par ch=1 c=64 v=127
20958 On ch=1 n=e5 v=42
21010 Off ch=1 n=c#4 v=64
21050 Off ch=1 n=a4 v=64
21080 On ch=1 n=g5 v=65
21100 Off ch=1 n=e5 v=64
21108 Off ch=1 n=a5 v=64
21180 On ch=1 n=g4 v=34
21190 On ch=1 n=d4 v=26
21206 On ch=1 n=b5 v=58
21230 Off ch=1 n=g5 v=64
21233 Par ch=1 c=64 v=0
21388 On ch=1 n=c5 v=36
21416 Par ch=1 c=64 v=127
21426 Off ch=1 n=d4 v=64
21470 Off ch=1 n=g4 v=64
21484 Off ch=1 n=b5 v=64
21486 On ch=1 n=d5 v=46
21556 Off ch=1 n=d5 v=64
21590 Off ch=1 n=c5 v=64
21654 On ch=1 n=b5 v=60
21778 On ch=1 n=f#4 v=32
21808 On ch=1 n=d4 v=25
21816 Par ch=1 c=64 v=0
21842 Off ch=1 n=b5 v=64
21844 On ch=1 n=a5 v=41
22028 On ch=1 n=c5 v=30
22046 Par ch=1 c=64 v=127
22118 Off ch=1 n=c5 v=64
22126 Off ch=1 n=f#4 v=64
22132 Off ch=1 n=d4 v=64
22146 Off ch=1 n=a5 v=64
22156 On ch=1 n=d5 v=32
22242 Off ch=1 n=d5 v=64
22314 On ch=1 n=a5 v=28
22438 On ch=1 n=g3 v=28
22446 Par ch=1 c=64 v=0
22468 On ch=1 n=d4 v=24
22532 Off ch=1 n=a5 v=64
22538 On ch=1 n=g5 v=40
22706 Off ch=1 n=g3 v=64
22708 Par ch=1 c=64 v=127
22752 Off ch=1 n=d4 v=64
22826 On ch=1 n=b4 v=21
22970 Off ch=1 n=g5 v=64
23004 Off ch=1 n=b4 v=64
23036 On ch=1 n=d5 v=10
23092 Off ch=1 n=d5 v=64
23182 On ch=1 n=b5 v=54
23292 Off ch=1 n=b5 v=64
23292 On ch=1 n=d6 v=54
23320 On ch=1 n=b4 v=21
23322 On ch=1 n=e4 v=27
23356 Off ch=1 n=d6 v=64
23360 On ch=1 n=c6 v=47
23414 Par ch=1 c=64 v=0
23552 On ch=1 n=e5 v=42
23614 Par ch=1 c=64 v=127
23674 Off ch=1 n=e5 v=64
23682 Off ch=1 n=e4 v=64
23684 On ch=1 n=g5 v=48
23702 Off ch=1 n=b4 v=64
23786 Off ch=1 n=g5 v=64
23804 On ch=1 n=b5 v=66
23816 Off ch=1 n=c6 v=64
23930 On ch=1 n=d#4 v=30
23964 On ch=1 n=b4 v=23
23984 On ch=1 n=f#6 v=57
24010 Off ch=1 n=b5 v=64
24014 Par ch=1 c=64 v=0
24176 On ch=1 n=f#5 v=29
24244 Par ch=1 c=64 v=127
24300 Off ch=1 n=f#5 v=64
24302 On ch=1 n=a5 v=34
24310 Off ch=1 n=b4 v=64
24320 Off ch=1 n=f#6 v=64
24412 On ch=1 n=b5 v=51
24424 Off ch=1 n=d#4 v=64
24424 Off ch=1 n=a5 v=64
24480 On ch=1 n=d6 v=59
24482 Off ch=1 n=b5 v=64
24512 On ch=1 n=e4 v=43
24530 On ch=1 n=c6 v=58
24532 On ch=1 n=b4 v=15
24546 Off ch=1 n=d6 v=64
24550 Par ch=1 c=64 v=0
24704 On ch=1 n=e5 v=42
24796 Par ch=1 c=64 v=127
24844 Off ch=1 n=e5 v=64
24848 On ch=1 n=g5 v=49
24862 Off ch=1 n=b4 v=64
24922 Off ch=1 n=e4 v=64
24922 Off ch=1 n=g5 v=64
24974 On ch=1 n=b5 v=50
25032 Off ch=1 n=c6 v=64
25054 Off ch=1 n=b5 v=64
25084 On ch=1 n=g4 v=30
25096 On ch=1 n=d4 v=13
25162 On ch=1 n=e6 v=34
25165 Par ch=1 c=64 v=0
25364 On ch=1 n=b4 v=37
25412 Par ch=1 c=64 v=127
25444 Off ch=1 n=g4 v=64
25474 Off ch=1 n=e6 v=64
25498 On ch=1 n=e5 v=42
25562 Off ch=1 n=d4 v=64
25586 Off ch=1 n=b4 v=64
25630 On ch=1 n=g5 v=38
25650 Off ch=1 n=e5 v=64
25704 On ch=1 n=b5 v=45
25724 Off ch=1 n=g5 v=64
25744 On ch=1 n=g4 v=37
25744 On ch=1 n=c#4 v=32
25744 On ch=1 n=a5 v=51
25796 Par ch=1 c=64 v=0
25808 Off ch=1 n=b5 v=64
25930 On ch=1 n=a4 v=42
25962 Off ch=1 n=g4 v=64
26010 Par ch=1 c=64 v=127
26024 On ch=1 n=e5 v=42
26102 Off ch=1 n=c#4 v=64
26110 Off ch=1 n=a4 v=64
26154 On ch=1 n=g5 v=46
26180 Off ch=1 n=e5 v=64
26230 Off ch=1 n=a5 v=64
26250 Off ch=1 n=g5 v=64
26276 On ch=1 n=d4 v=34
26286 Par ch=1 c=64 v=0
26306 On ch=1 n=g4 v=30
26320 On ch=1 n=b5 v=52
26514 On ch=1 n=c5 v=27
26548 Off ch=1 n=d4 v=64
26548 Par ch=1 c=64 v=127
26586 Off ch=1 n=b5 v=64
26636 On ch=1 n=d5 v=41
26654 Off ch=1 n=g4 v=64
26676 Off ch=1 n=c5 v=64
26702 Off ch=1 n=d5 v=64
26816 On ch=1 n=b5 v=42
26990 On ch=1 n=f#4 v=31
26992 On ch=1 n=d4 v=25
26994 Par ch=1 c=64 v=0
27030 Off ch=1 n=b5 v=64
27050 On ch=1 n=a5 v=31
27240 Par ch=1 c=64 v=127
27258 On ch=1 n=c5 v=32
27280 Off ch=1 n=d4 v=64
27340 Off ch=1 n=a5 v=64
27342 Off ch=1 n=c5 v=64
27344 Off ch=1 n=f#4 v=64
27384 On ch=1 n=d5 v=22
27492 Off ch=1 n=d5 v=64
27590 On ch=1 n=a5 v=19
27808 On ch=1 n=g3 v=16
27810 Par ch=1 c=64 v=0
27834 On ch=1 n=d4 v=28
27870 On ch=1 n=g5 v=26
27880 Off ch=1 n=a5 v=64
28038 Off ch=1 n=g3 v=64
28086 Par ch=1 c=64 v=127
28162 Off ch=1 n=d4 v=64
28252 On ch=1 n=b4 v=9
28448 Off ch=1 n=b4 v=64
28580 Off ch=1 n=g5 v=64
28646 On ch=1 n=d5 v=4
28862 Off ch=1 n=d5 v=64
28982 On ch=1 n=g5 v=17
29140 On ch=1 n=b5 v=34
29184 On ch=1 n=d4 v=17
29190 On ch=1 n=g4 v=16
29200 On ch=1 n=a5 v=26
29266 Off ch=1 n=g5 v=64
29284 Par ch=1 c=64 v=0
29354 Off ch=1 n=b5 v=64
29450 On ch=1 n=b4 v=25
29498 Par ch=1 c=64 v=127
29572 On ch=1 n=f5 v=24
29593 Off ch=1 n=d4 v=64
29598 Off ch=1 n=g4 v=64
29678 Off ch=1 n=b4 v=64
29722 On ch=1 n=g5 v=31
29738 Off ch=1 n=f5 v=64
29834 On ch=1 n=c4 v=22
29840 On ch=1 n=c6 v=39
29848 On ch=1 n=g4 v=17
29894 Off ch=1 n=g5 v=64
29894 Par ch=1 c=64 v=0
29916 Off ch=1 n=a5 v=64
30030 On ch=1 n=c5 v=26
30114 Par ch=1 c=64 v=127
30122 Off ch=1 n=c5 v=64
30128 Off ch=1 n=g4 v=64
30134 On ch=1 n=e5 v=36
30210 Off ch=1 n=e5 v=64
30232 Off ch=1 n=c4 v=64
30238 Off ch=1 n=c6 v=64
30240 On ch=1 n=g5 v=37
30300 On ch=1 n=b5 v=61
30336 On ch=1 n=d4 v=40
30342 On ch=1 n=a5 v=48
30350 Off ch=1 n=g5 v=64
30358 Par ch=1 c=64 v=0
30368 Off ch=1 n=b5 v=64
30384 On ch=1 n=g4 v=26
30554 On ch=1 n=b4 v=36
30566 Off ch=1 n=g4 v=64
30604 Par ch=1 c=64 v=127
30620 On ch=1 n=f5 v=34
30630 Off ch=1 n=b4 v=64
30668 Off ch=1 n=d4 v=64
30732 Off ch=1 n=f5 v=64
30732 On ch=1 n=g5 v=64
30834 On ch=1 n=c4 v=28
30846 On ch=1 n=c6 v=50
30850 Off ch=1 n=g5 v=64
30854 Off ch=1 n=a5 v=64
30866 Par ch=1 c=64 v=0
30874 On ch=1 n=g4 v=26
31006 On ch=1 n=c5 v=39
31014 Off ch=1 n=g4 v=64
31028 Off ch=1 n=c4 v=64
31066 Par ch=1 c=64 v=127
31094 Off ch=1 n=c6 v=64
31102 Off ch=1 n=c5 v=64
31130 On ch=1 n=e5 v=51
31194 Off ch=1 n=e5 v=64
31232 On ch=1 n=c6 v=58
31348 On ch=1 n=a4 v=34
31348 On ch=1 n=c#6 v=65
31351 On ch=1 n=g4 v=40
31358 Off ch=1 n=c6 v=64
31358 Par ch=1 c=64 v=0
31482 On ch=1 n=c#5 v=44
31552 Off ch=1 n=a4 v=64
31588 Par ch=1 c=64 v=127
31616 On ch=1 n=e5 v=59
31622 Off ch=1 n=c#6 v=64
31688 Off ch=1 n=e5 v=64
31702 Off ch=1 n=c#5 v=64
31712 On ch=1 n=c#6 v=46
31790 Off ch=1 n=g4 v=64
31802 On ch=1 n=f4 v=63
31812 On ch=1 n=a4 v=40
31840 On ch=1 n=d6 v=80
31850 Par ch=1 c=64 v=0
31864 Off ch=1 n=c#6 v=64
31972 On ch=1 n=d5 v=43
31992 Off ch=1 n=a4 v=64
32064 Par ch=1 c=64 v=127
32088 Off ch=1 n=d6 v=64
32100 On ch=1 n=f5 v=62
32130 Off ch=1 n=d5 v=64
32186 Off ch=1 n=f5 v=64
32200 On ch=1 n=d6 v=53
32282 Off ch=1 n=f4 v=64
32306 On ch=1 n=e4 v=52
32324 On ch=1 n=a4 v=28
32324 On ch=1 n=e6 v=70
32326 Par ch=1 c=64 v=0
32390 Off ch=1 n=d6 v=64
32454 On ch=1 n=c#5 v=47
32508 Off ch=1 n=a4 v=64
32540 Par ch=1 c=64 v=127
32592 Off ch=1 n=c#5 v=64
32595 On ch=1 n=g5 v=39
32612 Off ch=1 n=e6 v=64
32670 Off ch=1 n=g5 v=64
32694 On ch=1 n=e6 v=50
32726 Off ch=1 n=e4 v=64
32786 Par ch=1 c=64 v=0
32826 On ch=1 n=d4 v=24
32830 Off ch=1 n=e6 v=64
32832 On ch=1 n=f6 v=50
32850 On ch=1 n=a4 v=16
33024 Off ch=1 n=d4 v=64
33058 On ch=1 n=d5 v=31
33064 Par ch=1 c=64 v=127
33082 Off ch=1 n=f6 v=64
33098 Off ch=1 n=a4 v=64
33148 Off ch=1 n=d5 v=64
33206 On ch=1 n=f5 v=27
33326 Off ch=1 n=f5 v=64
33338 On ch=1 n=a5 v=36
33416 On ch=1 n=c6 v=49
33420 Off ch=1 n=a5 v=64
33480 On ch=1 n=g4 v=27
33480 On ch=1 n=a4 v=16
33482 On ch=1 n=a#5 v=52
33488 Off ch=1 n=c6 v=64
33508 Par ch=1 c=64 v=0
33632 On ch=1 n=c#5 v=37
33700 Off ch=1 n=a4 v=64
33708 Par ch=1 c=64 v=127
33728 On ch=1 n=e5 v=49
33772 Off ch=1 n=c#5 v=64
33798 Off ch=1 n=e5 v=64
33826 On ch=1 n=a5 v=52
33892 Off ch=1 n=g4 v=64
33942 On ch=1 n=d6 v=72
33966 On ch=1 n=a4 v=24
33966 On ch=1 n=f4 v=50
33969 Off ch=1 n=a5 v=64
33969 Par ch=1 c=64 v=0
33998 Off ch=1 n=a#5 v=64
34112 On ch=1 n=d5 v=48
34132 Off ch=1 n=f4 v=64
34146 Off ch=1 n=a4 v=64
34170 Par ch=1 c=64 v=127
34194 Off ch=1 n=d6 v=64
34214 Off ch=1 n=d5 v=64
34222 On ch=1 n=f5 v=43
34292 On ch=1 n=a5 v=58
34306 Off ch=1 n=f5 v=64
34368 On ch=1 n=c6 v=62
34384 Par ch=1 c=64 v=0
34394 On ch=1 n=g4 v=44
34400 On ch=1 n=a#5 v=72
34402 Off ch=1 n=a5 v=64
34420 On ch=1 n=a4 v=36
34486 Off ch=1 n=c6 v=64
34558 On ch=1 n=c#5 v=43
34630 Par ch=1 c=64 v=127
34642 Off ch=1 n=a4 v=64
34666 On ch=1 n=e5 v=61
34738 Off ch=1 n=c#5 v=64
34766 On ch=1 n=a5 v=69
34770 Off ch=1 n=e5 v=64
34818 Off ch=1 n=g4 v=64
34888 On ch=1 n=f4 v=61
34892 On ch=1 n=d6 v=79
34894 On ch=1 n=a4 v=26
34938 Off ch=1 n=a#5 v=64
34938 Off ch=1 n=a5 v=64
34938 Par ch=1 c=64 v=0
35062 On ch=1 n=d5 v=48
35094 Off ch=1 n=f4 v=64
35099 Off ch=1 n=a4 v=64
35152 Par ch=1 c=64 v=127
35186 Off ch=1 n=d6 v=64
35210 On ch=1 n=f5 v=59
35218 Off ch=1 n=d5 v=64
35316 On ch=1 n=d6 v=61
35326 Off ch=1 n=f5 v=64
35448 On ch=1 n=e4 v=53
35456 On ch=1 n=e6 v=73
35459 On ch=1 n=a4 v=29
35488 Off ch=1 n=d6 v=64
35522 Par ch=1 c=64 v=0
35588 On ch=1 n=c#5 v=51
35684 Off ch=1 n=a4 v=64
35690 Par ch=1 c=64 v=127
35702 On ch=1 n=g5 v=66
35722 Off ch=1 n=e6 v=64
35794 On ch=1 n=e6 v=68
35799 Off ch=1 n=c#5 v=64
35860 Off ch=1 n=g5 v=64
35900 Off ch=1 n=e4 v=64
35922 On ch=1 n=d4 v=61
35928 On ch=1 n=f6 v=87
35930 On ch=1 n=a4 v=45
35946 Off ch=1 n=e6 v=64
35952 Par ch=1 c=64 v=0
36066 On ch=1 n=d5 v=63
36136 Par ch=1 c=64 v=127
36156 Off ch=1 n=a4 v=64
36180 Off ch=1 n=d4 v=64
36188 On ch=1 n=f5 v=64
36198 Off ch=1 n=f6 v=64
36212 Off ch=1 n=d5 v=64
36238 Off ch=1 n=f5 v=64
36288 On ch=1 n=f6 v=74
36400 On ch=1 n=a4 v=45
36410 On ch=1 n=c4 v=41
36428 Par ch=1 c=64 v=0
36434 On ch=1 n=f#6 v=88
36466 Off ch=1 n=f6 v=64
36562 Off ch=1 n=c4 v=64
36576 On ch=1 n=d5 v=55
36598 Par ch=1 c=64 v=127
36654 Off ch=1 n=a4 v=64
36674 Off ch=1 n=f#6 v=64
36688 On ch=1 n=f#5 v=67
36724 Off ch=1 n=d5 v=64
36786 Off ch=1 n=f#5 v=64
36812 On ch=1 n=f#6 v=86
36942 On ch=1 n=b3 v=46
36950 Par ch=1 c=64 v=0
36962 On ch=1 n=g4 v=52
36988 Off ch=1 n=f#6 v=64
36990 On ch=1 n=g6 v=92
37122 Off ch=1 n=b3 v=64
37166 Par ch=1 c=64 v=127
37182 Off ch=1 n=g4 v=64
37190 Off ch=1 n=g6 v=64
37222 On ch=1 n=d5 v=56
37308 Off ch=1 n=d5 v=64
37388 On ch=1 n=f5 v=62
37528 Off ch=1 n=f5 v=64
37542 On ch=1 n=g5 v=71
37688 On ch=1 n=b5 v=75
37698 On ch=1 n=g4 v=54
37704 On ch=1 n=d4 v=53
37707 On ch=1 n=a5 v=73
37752 Off ch=1 n=g5 v=64
37822 Off ch=1 n=b5 v=64
37898 On ch=1 n=b4 v=54
37952 Off ch=1 n=g4 v=64
37966 On ch=1 n=f5 v=67
38064 Off ch=1 n=b4 v=64
38076 On ch=1 n=g5 v=83
38100 Off ch=1 n=f5 v=64
38128 Off ch=1 n=d4 v=64
38162 Off ch=1 n=a5 v=64
38196 Par ch=1 c=64 v=0
38196 On ch=1 n=c4 v=46
38199 On ch=1 n=g4 v=55
38204 On ch=1 n=c6 v=70
38232 Off ch=1 n=g5 v=64
38346 On ch=1 n=c5 v=58
38394 Par ch=1 c=64 v=127
38406 Off ch=1 n=g4 v=64
38424 Off ch=1 n=c5 v=64
38446 Off ch=1 n=c6 v=64
38458 On ch=1 n=e5 v=67
38460 Off ch=1 n=c4 v=64
38584 On ch=1 n=c6 v=61
38592 Off ch=1 n=e5 v=64
38674 On ch=1 n=c4 v=48
38674 On ch=1 n=e3 v=84
38686 Par ch=1 c=64 v=0
38712 On ch=1 n=g5 v=67
38722 Off ch=1 n=c6 v=64
38790 Off ch=1 n=e3 v=64
38848 On ch=1 n=g4 v=61
38856 Par ch=1 c=64 v=127
38912 Off ch=1 n=g4 v=64
38958 On ch=1 n=c5 v=50
38976 Off ch=1 n=g5 v=64
39060 On ch=1 n=g5 v=55
39086 Off ch=1 n=c5 v=64
39118 Par ch=1 c=64 v=0
39174 On ch=1 n=f3 v=80
39194 On ch=1 n=a5 v=65
39220 Off ch=1 n=g5 v=64
39276 Off ch=1 n=f3 v=64
39348 Par ch=1 c=64 v=127
39351 On ch=1 n=a4 v=66
39404 Off ch=1 n=a4 v=64
39452 Off ch=1 n=a5 v=64
39466 On ch=1 n=c5 v=41
39538 Off ch=1 n=c5 v=64
39552 On ch=1 n=a5 v=31
39594 Par ch=1 c=64 v=0
39602 Off ch=1 n=c4 v=64
39656 On ch=1 n=d3 v=68
39690 On ch=1 n=f5 v=66
39726 Off ch=1 n=a5 v=64
39732 Par ch=1 c=64 v=127
39744 Off ch=1 n=d3 v=64
39806 On ch=1 n=f4 v=83
39860 Off ch=1 n=f4 v=64
39944 Off ch=1 n=f5 v=64
39954 On ch=1 n=c5 v=52
40032 Off ch=1 n=c5 v=64
40052 On ch=1 n=f5 v=60
40130 Par ch=1 c=64 v=0
40154 On ch=1 n=g3 v=51
40164 On ch=1 n=c4 v=46
40182 On ch=1 n=d5 v=80
40216 Off ch=1 n=f5 v=64
40324 On ch=1 n=f4 v=68
40362 Par ch=1 c=64 v=127
40394 Off ch=1 n=f4 v=64
40418 Off ch=1 n=g3 v=64
40432 Off ch=1 n=c4 v=64
40454 On ch=1 n=c5 v=63
40457 Off ch=1 n=d5 v=64
40534 Off ch=1 n=c5 v=64
40560 On ch=1 n=d5 v=58
40670 Par ch=1 c=64 v=0
40698 On ch=1 n=b3 v=35
40700 Off ch=1 n=d5 v=64
40702 On ch=1 n=g5 v=63
40704 On ch=1 n=g3 v=41
40778 Off ch=1 n=g3 v=64
40810 Off ch=1 n=b3 v=64
40838 Par ch=1 c=64 v=127
40854 On ch=1 n=f4 v=55
40906 Off ch=1 n=f4 v=64
40934 Off ch=1 n=g5 v=64
40960 On ch=1 n=b4 v=40
41028 Off ch=1 n=b4 v=64
41078 On ch=1 n=g5 v=50
41192 Par ch=1 c=64 v=0
41200 On ch=1 n=g3 v=31
41200 On ch=1 n=c3 v=38
41256 On ch=1 n=e5 v=64
41259 Off ch=1 n=g5 v=64
41356 Off ch=1 n=c3 v=64
41376 Par ch=1 c=64 v=127
41404 Off ch=1 n=g3 v=64
41442 On ch=1 n=e4 v=45
41566 Off ch=1 n=e4 v=64
41644 Off ch=1 n=e5 v=64
41644 On ch=1 n=c5 v=46
41712 Off ch=1 n=c5 v=64
41806 On ch=1 n=g5 v=66
41876 On ch=1 n=b5 v=72
41888 Off ch=1 n=g5 v=64
41904 On ch=1 n=d4 v=38
41918 On ch=1 n=a5 v=64
41928 On ch=1 n=g4 v=27
41944 Par ch=1 c=64 v=0
41996 Off ch=1 n=b5 v=64
42086 On ch=1 n=b4 v=44
42112 Par ch=1 c=64 v=127
42120 Off ch=1 n=g4 v=64
42154 Off ch=1 n=b4 v=64
42172 On ch=1 n=f5 v=44
42174 Off ch=1 n=d4 v=64
42280 Off ch=1 n=f5 v=64
42286 On ch=1 n=g5 v=71
42318 Off ch=1 n=a5 v=64
42374 Par ch=1 c=64 v=0
42384 On ch=1 n=c4 v=46
42400 On ch=1 n=g4 v=50
42404 On ch=1 n=c6 v=67
42422 Off ch=1 n=g5 v=64
42478 Off ch=1 n=g4 v=64
42544 Par ch=1 c=64 v=127
42562 On ch=1 n=c5 v=37
42606 Off ch=1 n=c4 v=64
42628 Off ch=1 n=c5 v=64
42642 Off ch=1 n=c6 v=64
42660 On ch=1 n=e5 v=41
42720 Off ch=1 n=e5 v=64
42750 On ch=1 n=c6 v=29
42820 Par ch=1 c=64 v=0
42852 On ch=1 n=e3 v=64
42882 On ch=1 n=c4 v=37
42898 Off ch=1 n=c6 v=64
42898 On ch=1 n=g5 v=51
42974 Off ch=1 n=e3 v=64
42974 Par ch=1 c=64 v=127
43140 On ch=1 n=c5 v=30
43144 Off ch=1 n=g5 v=64
43214 Off ch=1 n=c5 v=64
43238 On ch=1 n=g5 v=40
43326 Par ch=1 c=64 v=0
43340 On ch=1 n=f3 v=54
43380 On ch=1 n=a5 v=46
43404 Off ch=1 n=g5 v=64
43456 Off ch=1 n=f3 v=64
43512 Par ch=1 c=64 v=127
43534 On ch=1 n=a4 v=47
43592 Off ch=1 n=a5 v=64
43592 Off ch=1 n=a4 v=64
43652 On ch=1 n=c5 v=29
43690 Off ch=1 n=c4 v=64
43732 On ch=1 n=a5 v=48
43736 Off ch=1 n=c5 v=64
43814 Off ch=1 n=a5 v=64
43834 Par ch=1 c=64 v=0
43844 On ch=1 n=d3 v=31
43888 On ch=1 n=f5 v=48
43948 Off ch=1 n=d3 v=64
43956 Par ch=1 c=64 v=127
44050 On ch=1 n=f4 v=44
44096 Off ch=1 n=f5 v=64
44106 Off ch=1 n=f4 v=64
44148 On ch=1 n=c5 v=17
44246 Off ch=1 n=c5 v=64
44258 On ch=1 n=f5 v=52
44362 Off ch=1 n=f5 v=64
44372 Par ch=1 c=64 v=0
44378 On ch=1 n=g3 v=34
44404 On ch=1 n=c4 v=22
44418 On ch=1 n=d5 v=50
44530 Off ch=1 n=c4 v=64
44566 On ch=1 n=f4 v=45
44586 Off ch=1 n=g3 v=64
44586 Par ch=1 c=64 v=127
44650 Off ch=1 n=f4 v=64
44678 Off ch=1 n=d5 v=64
44696 On ch=1 n=c5 v=38
44792 Off ch=1 n=c5 v=64
44852 On ch=1 n=d5 v=47
44986 Par ch=1 c=64 v=0
44992 Off ch=1 n=d5 v=64
45004 On ch=1 n=g3 v=24
45024 On ch=1 n=b3 v=15
45040 On ch=1 n=g5 v=28
45218 Par ch=1 c=64 v=127
45240 Off ch=1 n=b3 v=64
45264 Off ch=1 n=g3 v=64
45264 On ch=1 n=f4 v=31
45316 Off ch=1 n=g5 v=64
45338 Off ch=1 n=f4 v=64
45432 On ch=1 n=b4 v=16
45520 Off ch=1 n=b4 v=64
45676 On ch=1 n=g5 v=32
46086 On ch=1 n=c3 v=27
46176 On ch=1 n=g3 v=16
46246 On ch=1 n=e4 v=39
46310 On ch=1 n=c5 v=27
46338 Par ch=1 c=64 v=0
47106 Par ch=1 c=64 v=127
47126 Off ch=1 n=c3 v=64
47176 Off ch=1 n=g3 v=64
47179 Off ch=1 n=e4 v=64
47208 Off ch=1 n=c5 v=64
47224 Off ch=1 n=g5 v=64
48336 Par ch=1 c=64 v=0
48850 On ch=1 n=b5 v=52
48872 On ch=1 n=g5 v=20
48890 On ch=1 n=b4 v=19
48892 On ch=1 n=e4 v=32
49226 Par ch=1 c=64 v=127
49288 Off ch=1 n=b4 v=64
49290 On ch=1 n=c6 v=65
49320 On ch=1 n=c5 v=38
49344 Off ch=1 n=e4 v=64
49352 Off ch=1 n=b5 v=64
49374 Off ch=1 n=g5 v=64
49498 Off ch=1 n=c5 v=64
49612 On ch=1 n=b5 v=87
49628 On ch=1 n=a5 v=40
49646 Off ch=1 n=c6 v=64
49646 On ch=1 n=b4 v=34
49652 On ch=1 n=d#4 v=36
49672 Par ch=1 c=64 v=0
49858 Par ch=1 c=64 v=127
49861 Off ch=1 n=d#4 v=64
49890 On ch=1 n=f#6 v=81
49904 On ch=1 n=f#5 v=49
49954 Off ch=1 n=b5 v=64
49954 Off ch=1 n=b4 v=64
49960 Off ch=1 n=a5 v=64
49986 Off ch=1 n=f#5 v=64
50070 Off ch=1 n=f#6 v=64
50168 On ch=1 n=e4 v=17
50178 Par ch=1 c=64 v=0
50194 On ch=1 n=g6 v=79
50204 On ch=1 n=g5 v=49
50214 On ch=1 n=b5 v=45
50236 On ch=1 n=b4 v=34
50392 Off ch=1 n=e4 v=64
50400 Par ch=1 c=64 v=127
50450 Off ch=1 n=b4 v=64
50504 On ch=1 n=e6 v=62
50510 On ch=1 n=e5 v=30
50522 Off ch=1 n=b5 v=64
50640 Off ch=1 n=g5 v=64
50668 Off ch=1 n=e5 v=64
50694 Off ch=1 n=g6 v=64
50820 On ch=1 n=d6 v=54
50830 On ch=1 n=d5 v=30
50874 Off ch=1 n=e6 v=64
50960 Off ch=1 n=d5 v=64
51088 Off ch=1 n=d6 v=64
51178 On ch=1 n=c6 v=46
51196 On ch=1 n=c5 v=26
51264 Off ch=1 n=c5 v=64
51280 Off ch=1 n=c6 v=64
51532 On ch=1 n=b5 v=68
51544 On ch=1 n=g5 v=39
51572 On ch=1 n=e4 v=37
51596 On ch=1 n=b4 v=20
51640 Par ch=1 c=64 v=0
51808 Par ch=1 c=64 v=127
51846 On ch=1 n=c6 v=81
51872 Off ch=1 n=b4 v=64
51882 On ch=1 n=c5 v=41
51904 Off ch=1 n=b5 v=64
51940 Off ch=1 n=e4 v=64
51956 Off ch=1 n=g5 v=64
52014 Off ch=1 n=c5 v=64
52128 On ch=1 n=b5 v=92
52134 On ch=1 n=a5 v=52
52152 On ch=1 n=b4 v=50
52152 On ch=1 n=d#4 v=44
52162 Par ch=1 c=64 v=0
52168 Off ch=1 n=c6 v=64
52346 Par ch=1 c=64 v=127
52376 Off ch=1 n=d#4 v=64
52406 On ch=1 n=f#6 v=83
52440 On ch=1 n=f#5 v=47
52458 Off ch=1 n=b4 v=64
52461 Off ch=1 n=b5 v=64
52486 Off ch=1 n=a5 v=64
52508 Off ch=1 n=f#5 v=64
52612 Off ch=1 n=f#6 v=64
52624 On ch=1 n=e4 v=50
52728 On ch=1 n=g6 v=78
52742 On ch=1 n=g5 v=44
52746 On ch=1 n=b5 v=41
52752 On ch=1 n=b4 v=17
52760 Par ch=1 c=64 v=0
52950 Off ch=1 n=e4 v=64
52960 Par ch=1 c=64 v=127
53018 Off ch=1 n=b4 v=64
53080 On ch=1 n=e5 v=32
53080 On ch=1 n=e6 v=56
53102 Off ch=1 n=b5 v=64
53258 Off ch=1 n=e5 v=64
53270 Off ch=1 n=g6 v=64
53394 On ch=1 n=d6 v=62
53396 Off ch=1 n=e6 v=64
53408 Off ch=1 n=g5 v=64
53414 On ch=1 n=d5 v=32
53504 Off ch=1 n=d5 v=64
53648 Off ch=1 n=d6 v=64
53686 On ch=1 n=c6 v=69
53706 On ch=1 n=c5 v=50
53748 Off ch=1 n=c6 v=64
53762 Off ch=1 n=c5 v=64
53972 On ch=1 n=b5 v=80
53974 On ch=1 n=g5 v=62
53994 On ch=1 n=b4 v=52
54002 On ch=1 n=e4 v=55
54020 Par ch=1 c=64 v=0
54220 Par ch=1 c=64 v=127
54260 On ch=1 n=c6 v=83
54264 Off ch=1 n=b4 v=64
54284 Off ch=1 n=b5 v=64
54296 On ch=1 n=c5 v=59
54306 Off ch=1 n=e4 v=64
54322 Off ch=1 n=g5 v=64
54396 Off ch=1 n=c5 v=64
54528 Off ch=1 n=c6 v=64
54532 On ch=1 n=g#5 v=62
54534 On ch=1 n=b5 v=92
54546 On ch=1 n=b4 v=59
54548 On ch=1 n=d4 v=73
54558 Par ch=1 c=64 v=0
54676 Off ch=1 n=d4 v=64
54698 Par ch=1 c=64 v=127
54766 Off ch=1 n=g#5 v=64
54774 Off ch=1 n=b4 v=64
54834 Off ch=1 n=b5 v=64
54850 On ch=1 n=f6 v=85
54860 On ch=1 n=f5 v=44
54910 Off ch=1 n=f5 v=64
54978 Off ch=1 n=f6 v=64
55082 On ch=1 n=c4 v=48
55198 On ch=1 n=e6 v=66
55208 On ch=1 n=e5 v=50
55208 On ch=1 n=a5 v=21
55234 Par ch=1 c=64 v=0
55434 Par ch=1 c=64 v=127
55492 Off ch=1 n=c4 v=64
55538 On ch=1 n=c5 v=38
55540 On ch=1 n=c6 v=62
55596 Off ch=1 n=a5 v=64
55622 Off ch=1 n=e6 v=64
55758 Off ch=1 n=c5 v=64
55814 Off ch=1 n=e5 v=64
55826 On ch=1 n=b5 v=67
55862 On ch=1 n=b4 v=32
55894 Off ch=1 n=c6 v=64
56078 Off ch=1 n=b4 v=64
56114 On ch=1 n=a5 v=56
56117 Off ch=1 n=b5 v=64
56130 On ch=1 n=a4 v=34
56196 Off ch=1 n=a4 v=64
56254 Off ch=1 n=a5 v=64
56402 On ch=1 n=a5 v=55
56412 On ch=1 n=c4 v=40
56428 On ch=1 n=e5 v=50
56436 On ch=1 n=a4 v=29
56480 Par ch=1 c=64 v=0
56692 Off ch=1 n=a4 v=64
56694 Par ch=1 c=64 v=127
56722 On ch=1 n=b5 v=63
56736 On ch=1 n=b4 v=39
56742 Off ch=1 n=c4 v=64
56770 Off ch=1 n=a5 v=64
56784 Off ch=1 n=e5 v=64
56924 Off ch=1 n=b4 v=64
57012 On ch=1 n=g5 v=66
57022 Off ch=1 n=b5 v=64
57034 On ch=1 n=g4 v=32
57038 On ch=1 n=e5 v=36
57044 On ch=1 n=c4 v=18
57078 Par ch=1 c=64 v=0
57294 Par ch=1 c=64 v=127
57302 Off ch=1 n=g4 v=64
57312 On ch=1 n=a5 v=48
57326 On ch=1 n=a4 v=40
57356 Off ch=1 n=g5 v=64
57380 Off ch=1 n=c4 v=64
57386 Off ch=1 n=a4 v=64
57566 Off ch=1 n=e5 v=64
57620 On ch=1 n=d#5 v=33
57634 Off ch=1 n=a5 v=64
57634 On ch=1 n=b5 v=41
57646 On ch=1 n=b3 v=20
57652 On ch=1 n=b4 v=15
57662 Par ch=1 c=64 v=0
57936 On ch=1 n=f#5 v=31
57946 Off ch=1 n=b4 v=64
57952 On ch=1 n=f#4 v=34
57955 Par ch=1 c=64 v=127
58022 Off ch=1 n=d#5 v=64
58278 Off ch=1 n=f#4 v=64
58306 Off ch=1 n=b3 v=64
58308 On ch=1 n=e5 v=30
58316 On ch=1 n=e4 v=19
58358 Off ch=1 n=b5 v=64
58366 Off ch=1 n=f#5 v=64
58492 Par ch=1 c=64 v=0
58646 Par ch=1 c=64 v=127
58654 Off ch=1 n=e4 v=64
58682 Off ch=1 n=e5 v=64
58686 On ch=1 n=d#5 v=35
58708 On ch=1 n=d#4 v=34
58782 Off ch=1 n=d#4 v=64
58822 Off ch=1 n=d#5 v=64
59122 On ch=1 n=b5 v=57
59130 On ch=1 n=g5 v=28
59152 On ch=1 n=e4 v=48
59176 On ch=1 n=b4 v=22
59306 Par ch=1 c=64 v=0
59460 Par ch=1 c=64 v=127
59486 On ch=1 n=c6 v=74
59516 Off ch=1 n=b4 v=64
59526 On ch=1 n=c5 v=39
59544 Off ch=1 n=b5 v=64
59554 Off ch=1 n=g5 v=64
59562 Off ch=1 n=e4 v=64
59670 Off ch=1 n=c5 v=64
59812 On ch=1 n=b5 v=85
59826 On ch=1 n=a5 v=41
59829 On ch=1 n=d#4 v=37
59840 On ch=1 n=b4 v=40
59850 Off ch=1 n=c6 v=64
59860 Par ch=1 c=64 v=0
60014 Par ch=1 c=64 v=127
60036 Off ch=1 n=d#4 v=64
60112 On ch=1 n=f#6 v=82
60150 On ch=1 n=f#5 v=46
60160 Off ch=1 n=b4 v=64
60186 Off ch=1 n=b5 v=64
60218 Off ch=1 n=f#5 v=64
60234 Off ch=1 n=a5 v=64
60320 On ch=1 n=e4 v=57
60336 Off ch=1 n=f#6 v=64
60450 On ch=1 n=g6 v=70
60450 On ch=1 n=b4 v=27
60456 On ch=1 n=g5 v=47
60458 Par ch=1 c=64 v=0
60472 On ch=1 n=b5 v=37
60674 Par ch=1 c=64 v=127
60694 Off ch=1 n=e4 v=64
60778 Off ch=1 n=b4 v=64
60824 On ch=1 n=e6 v=55
60832 On ch=1 n=e5 v=44
60846 Off ch=1 n=b5 v=64
61028 Off ch=1 n=e5 v=64
61040 Off ch=1 n=g6 v=64
61128 On ch=1 n=d6 v=60
61150 On ch=1 n=d5 v=34
61180 Off ch=1 n=e6 v=64
61240 Off ch=1 n=g5 v=64
61422 Off ch=1 n=d5 v=64
61444 On ch=1 n=c6 v=54
61468 Off ch=1 n=d6 v=64
61476 On ch=1 n=c5 v=38
61540 Off ch=1 n=c5 v=64
61586 Off ch=1 n=c6 v=64
61730 On ch=1 n=b5 v=82
61738 On ch=1 n=g5 v=56
61750 On ch=1 n=e4 v=60
61756 On ch=1 n=b4 v=37
61796 Par ch=1 c=64 v=0
61980 Par ch=1 c=64 v=127
62030 On ch=1 n=c6 v=85
62038 Off ch=1 n=b4 v=64
62057 Off ch=1 n=e4 v=64
62057 On ch=1 n=c5 v=57
62088 Off ch=1 n=g5 v=64
62090 Off ch=1 n=b5 v=64
62244 Off ch=1 n=c5 v=64
62322 On ch=1 n=b5 v=92
62334 On ch=1 n=a5 v=50
62340 On ch=1 n=b4 v=56
62346 On ch=1 n=d#4 v=40
62364 Par ch=1 c=64 v=0
62370 Off ch=1 n=c6 v=64
62548 Par ch=1 c=64 v=127
62588 Off ch=1 n=d#4 v=64
62628 On ch=1 n=f#6 v=81
62670 On ch=1 n=f#5 v=52
62690 Off ch=1 n=b4 v=64
62694 Off ch=1 n=b5 v=64
62744 Off ch=1 n=f#5 v=64
62746 Off ch=1 n=a5 v=64
62828 On ch=1 n=e4 v=64
62848 Off ch=1 n=f#6 v=64
62944 On ch=1 n=b4 v=33
63002 On ch=1 n=g6 v=88
63024 On ch=1 n=g5 v=44
63024 Par ch=1 c=64 v=0
63030 On ch=1 n=b5 v=36
63236 Off ch=1 n=e4 v=64
63240 Par ch=1 c=64 v=127
63310 Off ch=1 n=b4 v=64
63336 On ch=1 n=e6 v=74
63360 On ch=1 n=e5 v=47
63388 Off ch=1 n=b5 v=64
63564 Off ch=1 n=e5 v=64
63656 Off ch=1 n=g6 v=64
63656 On ch=1 n=d6 v=72
63662 On ch=1 n=d5 v=39
63718 Off ch=1 n=e6 v=64
63721 Off ch=1 n=g5 v=64
63872 Off ch=1 n=d5 v=64
63964 On ch=1 n=c6 v=73
63967 Off ch=1 n=d6 v=64
63974 On ch=1 n=c5 v=43
64034 Off ch=1 n=c5 v=64
64074 Off ch=1 n=c6 v=64
64238 On ch=1 n=b5 v=86
64254 On ch=1 n=g5 v=60
64258 On ch=1 n=e4 v=55
64262 On ch=1 n=b4 v=39
64316 Par ch=1 c=64 v=0
64468 Par ch=1 c=64 v=127
64508 Off ch=1 n=b5 v=64
64514 Off ch=1 n=b4 v=64
64544 On ch=1 n=c6 v=60
64547 Off ch=1 n=e4 v=64
64560 On ch=1 n=c5 v=64
64580 Off ch=1 n=g5 v=64
64620 Off ch=1 n=c5 v=64
64734 Off ch=1 n=c6 v=64
64822 On ch=1 n=d4 v=68
64822 On ch=1 n=g#5 v=64
64825 Par ch=1 c=64 v=0
64825 On ch=1 n=b5 v=94
64832 On ch=1 n=b4 v=68
64948 Off ch=1 n=d4 v=64
64992 Par ch=1 c=64 v=127
65024 Off ch=1 n=g#5 v=64
65052 Off ch=1 n=b4 v=64
65102 On ch=1 n=f6 v=90
65105 Off ch=1 n=b5 v=64
65130 On ch=1 n=f5 v=49
65178 Off ch=1 n=f5 v=64
65202 Off ch=1 n=f6 v=64
65400 On ch=1 n=e6 v=72
65408 On ch=1 n=c4 v=28
65412 On ch=1 n=a5 v=35
65422 On ch=1 n=e5 v=38
65438 Par ch=1 c=64 v=0
65636 Par ch=1 c=64 v=127
65650 Off ch=1 n=c4 v=64
65712 On ch=1 n=c6 v=57
65744 Off ch=1 n=a5 v=64
65744 On ch=1 n=c5 v=33
65764 Off ch=1 n=e5 v=64
65790 Off ch=1 n=e6 v=64
65888 Off ch=1 n=c5 v=64
65998 On ch=1 n=b5 v=68
66004 On ch=1 n=b4 v=45
66032 Off ch=1 n=c6 v=64
66064 Off ch=1 n=b4 v=64
66258 Off ch=1 n=b5 v=64
66260 On ch=1 n=a4 v=41
66278 On ch=1 n=a5 v=54
66320 Off ch=1 n=a4 v=64
66374 Off ch=1 n=a5 v=64
66556 On ch=1 n=a5 v=56
66568 On ch=1 n=c4 v=22
66571 On ch=1 n=e5 v=42
66596 On ch=1 n=a4 v=22
66620 Par ch=1 c=64 v=0
66834 Par ch=1 c=64 v=127
66856 Off ch=1 n=a4 v=64
66870 On ch=1 n=b5 v=62
66874 Off ch=1 n=c4 v=64
66894 Off ch=1 n=a5 v=64
66902 On ch=1 n=b4 v=36
66905 Off ch=1 n=e5 v=64
66982 Off ch=1 n=b4 v=64
67134 Off ch=1 n=b5 v=64
67162 On ch=1 n=g5 v=55
67168 On ch=1 n=e5 v=41
67170 On ch=1 n=c4 v=29
67176 On ch=1 n=g4 v=34
67220 Par ch=1 c=64 v=0
67450 Par ch=1 c=64 v=127
67462 On ch=1 n=a5 v=41
67476 Off ch=1 n=g4 v=64
67506 On ch=1 n=a4 v=29
67522 Off ch=1 n=g5 v=64
67536 Off ch=1 n=c4 v=64
67580 Off ch=1 n=a4 v=64
67768 Off ch=1 n=e5 v=64
67771 Par ch=1 c=64 v=0
67790 Off ch=1 n=a5 v=64
67806 On ch=1 n=d#5 v=35
67814 On ch=1 n=b5 v=37
67818 On ch=1 n=b3 v=29
67820 On ch=1 n=b4 v=20
67904 Off ch=1 n=b3 v=64
67932 Off ch=1 n=b4 v=64
67935 Off ch=1 n=d#5 v=64
67942 Par ch=1 c=64 v=127
67954 Off ch=1 n=b5 v=64
68240 On ch=1 n=f#5 v=23
68264 On ch=1 n=f#4 v=19
68368 Off ch=1 n=f#4 v=64
68374 Off ch=1 n=f#5 v=64
68542 On ch=1 n=e5 v=33
68566 On ch=1 n=e4 v=22
68632 Off ch=1 n=e5 v=64
68652 Off ch=1 n=e4 v=64
68878 On ch=1 n=d#5 v=32
68906 On ch=1 n=d#4 v=23
68952 Off ch=1 n=d#5 v=64
68996 Off ch=1 n=d#4 v=64
69326 On ch=1 n=d#5 v=43
69332 On ch=1 n=f#5 v=32
69334 On ch=1 n=f#4 v=26
69367 On ch=1 n=b3 v=23
69616 Par ch=1 c=64 v=0
69678 On ch=1 n=g#5 v=54
69712 On ch=1 n=g#4 v=33
69718 Off ch=1 n=f#4 v=64
69754 Off ch=1 n=f#5 v=64
69754 Par ch=1 c=64 v=127
69790 Off ch=1 n=b3 v=64
69816 Off ch=1 n=g#4 v=64
69864 Off ch=1 n=d#5 v=64
69948 On ch=1 n=f#5 v=62
69964 Off ch=1 n=g#5 v=64
69967 On ch=1 n=a#3 v=34
69982 On ch=1 n=e5 v=49
69985 Par ch=1 c=64 v=0
69985 On ch=1 n=f#4 v=40
70154 Par ch=1 c=64 v=127
70208 Off ch=1 n=a#3 v=64
70230 On ch=1 n=c#6 v=64
70262 Off ch=1 n=e5 v=64
70266 On ch=1 n=c#5 v=36
70332 Off ch=1 n=c#5 v=64
70388 Off ch=1 n=c#6 v=64
70516 On ch=1 n=b3 v=39
70520 On ch=1 n=d#6 v=58
70522 Par ch=1 c=64 v=0
70530 On ch=1 n=d#5 v=31
70706 Off ch=1 n=b3 v=64
70722 Par ch=1 c=64 v=127
70786 Off ch=1 n=f#4 v=64
70794 On ch=1 n=b4 v=36
70794 On ch=1 n=b5 v=70
70860 Off ch=1 n=f#5 v=64
70874 Off ch=1 n=d#6 v=64
70916 Off ch=1 n=d#5 v=64
70992 Off ch=1 n=b4 v=64
71052 On ch=1 n=a#4 v=41
71054 On ch=1 n=a#5 v=50
71080 Off ch=1 n=b5 v=64
71172 Off ch=1 n=a#4 v=64
71216 Off ch=1 n=a#5 v=64
71296 On ch=1 n=g#5 v=58
71310 On ch=1 n=g#4 v=45
71342 Off ch=1 n=g#5 v=64
71366 Off ch=1 n=g#4 v=64
71572 On ch=1 n=f#3 v=72
71576 On ch=1 n=f#4 v=58
71584 On ch=1 n=f#5 v=55
71596 On ch=1 n=b4 v=34
71600 On ch=1 n=d#5 v=42
71720 Par ch=1 c=64 v=0
71804 Off ch=1 n=f#4 v=64
71846 On ch=1 n=g#3 v=73
71894 Off ch=1 n=f#3 v=64
71902 Off ch=1 n=b4 v=64
71918 Par ch=1 c=64 v=127
71930 Off ch=1 n=f#5 v=64
72056 Off ch=1 n=d#5 v=64
72112 On ch=1 n=f#3 v=69
72128 On ch=1 n=a#4 v=36
72142 On ch=1 n=f#5 v=39
72152 On ch=1 n=e5 v=46
72182 Off ch=1 n=g#3 v=64
72190 On ch=1 n=f#4 v=33
72198 Par ch=1 c=64 v=0
72434 On ch=1 n=c#4 v=69
72486 Off ch=1 n=f#5 v=64
72528 Off ch=1 n=f#3 v=64
72536 Par ch=1 c=64 v=127
72596 Off ch=1 n=a#4 v=64
72766 On ch=1 n=f#5 v=44
72772 Off ch=1 n=e5 v=64
72776 On ch=1 n=d#4 v=55
72778 Off ch=1 n=c#4 v=64
72780 On ch=1 n=d#5 v=33
72800 On ch=1 n=b4 v=23
72828 Par ch=1 c=64 v=0
72886 On ch=1 n=f#3 v=14
72932 Off ch=1 n=f#4 v=64
73090 Par ch=1 c=64 v=127
73096 On ch=1 n=b3 v=53
73116 Off ch=1 n=f#3 v=64
73180 Off ch=1 n=d#4 v=64
73358 On ch=1 n=a#3 v=54
73366 Off ch=1 n=b3 v=64
73426 Off ch=1 n=f#5 v=64
73442 Off ch=1 n=b4 v=64
73508 Off ch=1 n=d#5 v=64
73618 On ch=1 n=g#3 v=60
73621 Off ch=1 n=a#3 v=64
73754 Off ch=1 n=g#3 v=64
73872 Par ch=1 c=64 v=0
73880 On ch=1 n=f#5 v=49
73890 On ch=1 n=b4 v=51
73894 On ch=1 n=f#3 v=48
73900 On ch=1 n=d#4 v=42
74156 On ch=1 n=c#5 v=64
74188 Off ch=1 n=f#3 v=64
74194 On ch=1 n=e4 v=50
74196 Off ch=1 n=d#4 v=64
74210 Par ch=1 c=64 v=127
74248 Off ch=1 n=f#5 v=64
74360 Off ch=1 n=e4 v=64
74420 Off ch=1 n=b4 v=64
74438 On ch=1 n=a#4 v=40
74438 On ch=1 n=f#5 v=50
74441 Par ch=1 c=64 v=0
74444 On ch=1 n=c#4 v=31
74450 On ch=1 n=f#3 v=42
74480 Off ch=1 n=c#5 v=64
74698 Off ch=1 n=f#3 v=64
74716 Off ch=1 n=c#4 v=64
74716 Par ch=1 c=64 v=127
74732 On ch=1 n=c#5 v=52
74760 Off ch=1 n=a#4 v=64
74772 On ch=1 n=e4 v=39
74794 Off ch=1 n=f#5 v=64
74950 Off ch=1 n=e4 v=64
75048 On ch=1 n=f#5 v=45
75054 On ch=1 n=b3 v=45
75054 On ch=1 n=b4 v=44
75057 Par ch=1 c=64 v=0
75066 Off ch=1 n=c#5 v=64
75071 On ch=1 n=d#4 v=26
75372 On ch=1 n=c#5 v=59
75406 On ch=1 n=e4 v=57
75444 Off ch=1 n=d#4 v=64
75652 Off ch=1 n=e4 v=64
75658 On ch=1 n=d5 v=67
75674 On ch=1 n=f4 v=78
75734 Off ch=1 n=c#5 v=64
75774 Off ch=1 n=f#5 v=64
75808 Par ch=1 c=64 v=127
75892 Off ch=1 n=f4 v=64
75911 On ch=1 n=f#4 v=62
75922 On ch=1 n=d#5 v=75
75978 Off ch=1 n=d5 v=64
76078 Off ch=1 n=d#5 v=64
76152 Off ch=1 n=f#4 v=64
76194 On ch=1 n=e5 v=72
76206 On ch=1 n=g4 v=49
76238 Par ch=1 c=64 v=0
76438 Off ch=1 n=b3 v=64
76454 Par ch=1 c=64 v=127
76466 On ch=1 n=f#5 v=62
76486 Off ch=1 n=g4 v=64
76492 On ch=1 n=a4 v=41
76534 Off ch=1 n=e5 v=64
76630 Off ch=1 n=b4 v=64
76774 Off ch=1 n=a4 v=64
76777 Par ch=1 c=64 v=0
76781 On ch=1 n=a#4 v=31
76802 On ch=1 n=g5 v=48
76914 Off ch=1 n=f#5 v=64
77052 Par ch=1 c=64 v=127
77156 On ch=1 n=e5 v=35
77186 Off ch=1 n=g5 v=64
77186 On ch=1 n=g4 v=25
77218 Off ch=1 n=a#4 v=64
77222 Par ch=1 c=64 v=0
77406 Par ch=1 c=64 v=127
77504 Off ch=1 n=g4 v=64
77536 Off ch=1 n=e5 v=64
77546 On ch=1 n=d#5 v=35
77590 On ch=1 n=b4 v=17
77592 Par ch=1 c=64 v=0
77744 Off ch=1 n=b4 v=64
77774 Par ch=1 c=64 v=127
77786 Off ch=1 n=d#5 v=64
77972 On ch=1 n=b5 v=50
77980 On ch=1 n=d#5 v=27
77982 On ch=1 n=f#5 v=19
77988 On ch=1 n=a4 v=20
77992 On ch=1 n=b4 v=17
78078 Off ch=1 n=b4 v=64
78090 Off ch=1 n=a4 v=64
78164 Off ch=1 n=b5 v=64
78202 Off ch=1 n=d#5 v=64
78242 Off ch=1 n=f#5 v=64
78362 On ch=1 n=g5 v=42
78362 On ch=1 n=b5 v=47
78369 On ch=1 n=e5 v=44
78376 On ch=1 n=b4 v=31
78376 On ch=1 n=g4 v=22
78390 Par ch=1 c=64 v=0
78500 Off ch=1 n=b4 v=64
78528 Par ch=1 c=64 v=127
78574 Off ch=1 n=b5 v=64
78624 Off ch=1 n=e5 v=64
78644 Off ch=1 n=g5 v=64
78648 Off ch=1 n=g4 v=64
78696 On ch=1 n=b5 v=51
78720 On ch=1 n=f#5 v=33
78723 On ch=1 n=a5 v=39
78726 On ch=1 n=b4 v=29
78728 On ch=1 n=f#4 v=44
78774 Par ch=1 c=64 v=0
78908 Off ch=1 n=b4 v=64
78970 Off ch=1 n=f#4 v=64
78976 Off ch=1 n=f#5 v=64
78988 Par ch=1 c=64 v=127
78998 Off ch=1 n=a5 v=64
79022 Off ch=1 n=b5 v=64
79218 On ch=1 n=b5 v=60
79234 On ch=1 n=g5 v=30
79244 On ch=1 n=b4 v=22
79244 On ch=1 n=e4 v=30
79420 Par ch=1 c=64 v=0
79588 Par ch=1 c=64 v=127
79638 Off ch=1 n=b4 v=64
79638 On ch=1 n=c6 v=81
79676 Off ch=1 n=b5 v=64
79696 On ch=1 n=c5 v=33
79720 Off ch=1 n=e4 v=64
79864 Off ch=1 n=g5 v=64
79890 Off ch=1 n=c5 v=64
80016 On ch=1 n=b5 v=89
80030 On ch=1 n=a5 v=41
80060 On ch=1 n=b4 v=30
80076 On ch=1 n=d#4 v=24
80080 Off ch=1 n=c6 v=64
80126 Par ch=1 c=64 v=0
80248 Par ch=1 c=64 v=127
80314 Off ch=1 n=d#4 v=64
80370 On ch=1 n=f#6 v=87
80398 On ch=1 n=f#5 v=34
80426 Off ch=1 n=b5 v=64
80442 Off ch=1 n=b4 v=64
80516 Off ch=1 n=f#5 v=64
80552 Off ch=1 n=a5 v=64
80600 Off ch=1 n=f#6 v=64
80712 On ch=1 n=g6 v=80
80716 On ch=1 n=e4 v=51
80718 On ch=1 n=b5 v=55
80736 On ch=1 n=g5 v=37
80746 On ch=1 n=b4 v=30
80786 Par ch=1 c=64 v=0
80986 Par ch=1 c=64 v=127
80996 Off ch=1 n=e4 v=64
81034 On ch=1 n=e6 v=74
81050 Off ch=1 n=b4 v=64
81050 On ch=1 n=e5 v=42
81094 Off ch=1 n=b5 v=64
81306 Off ch=1 n=e5 v=64
81350 On ch=1 n=d6 v=71
81368 On ch=1 n=d5 v=44
81374 Off ch=1 n=g6 v=64
81434 Off ch=1 n=e6 v=64
81442 Off ch=1 n=g5 v=64
81580 Off ch=1 n=d5 v=64
81648 On ch=1 n=c6 v=66
81666 On ch=1 n=c5 v=51
81694 Off ch=1 n=d6 v=64
81754 Off ch=1 n=c5 v=64
81774 Off ch=1 n=c6 v=64
81918 On ch=1 n=b5 v=85
81930 On ch=1 n=g5 v=59
81940 On ch=1 n=b4 v=52
81946 On ch=1 n=e4 v=66
81970 Par ch=1 c=64 v=0
82154 Par ch=1 c=64 v=127
82220 Off ch=1 n=e4 v=64
82222 On ch=1 n=c6 v=88
82230 Off ch=1 n=b4 v=64
82242 Off ch=1 n=b5 v=64
82242 On ch=1 n=c5 v=59
82260 Off ch=1 n=g5 v=64
82430 Off ch=1 n=c5 v=64
82508 Par ch=1 c=64 v=0
82508 On ch=1 n=b5 v=88
82510 On ch=1 n=b4 v=57
82518 On ch=1 n=d#4 v=43
82520 On ch=1 n=a5 v=45
82548 Off ch=1 n=c6 v=64
82692 Par ch=1 c=64 v=127
82698 Off ch=1 n=d#4 v=64
82802 On ch=1 n=f#6 v=76
82804 On ch=1 n=f#5 v=62
82828 Off ch=1 n=b5 v=64
82833 Off ch=1 n=b4 v=64
82888 Off ch=1 n=f#5 v=64
82964 On ch=1 n=e4 v=61
82968 Off ch=1 n=a5 v=64
83072 On ch=1 n=b4 v=60
83080 Off ch=1 n=f#6 v=64
83220 On ch=1 n=g6 v=79
83224 On ch=1 n=g5 v=56
83228 On ch=1 n=b5 v=52
83260 Par ch=1 c=64 v=0
83346 Off ch=1 n=e4 v=64
83476 Par ch=1 c=64 v=127
83566 Off ch=1 n=b4 v=64
83596 On ch=1 n=e6 v=65
83598 On ch=1 n=e5 v=48
83656 Off ch=1 n=b5 v=64
83816 Off ch=1 n=e5 v=64
83934 Off ch=1 n=g6 v=64
83946 On ch=1 n=d6 v=55
83949 On ch=1 n=d5 v=35
84010 Off ch=1 n=e6 v=64
84208 Off ch=1 n=d5 v=64
84226 Off ch=1 n=g5 v=64
84262 On ch=1 n=c6 v=53
84278 Off ch=1 n=d6 v=64
84290 On ch=1 n=c5 v=27
84360 Off ch=1 n=c5 v=64
84406 Off ch=1 n=c6 v=64
84546 On ch=1 n=b5 v=76
84552 On ch=1 n=b4 v=47
84558 On ch=1 n=g5 v=53
84568 On ch=1 n=e4 v=41
84598 Par ch=1 c=64 v=0
84750 Par ch=1 c=64 v=127
84812 Off ch=1 n=b5 v=64
84830 Off ch=1 n=b4 v=64
84844 On ch=1 n=c6 v=84
84868 Off ch=1 n=e4 v=64
84871 Off ch=1 n=g5 v=64
84871 On ch=1 n=c5 v=51
84968 Off ch=1 n=c5 v=64
85096 Off ch=1 n=c6 v=64
85130 On ch=1 n=b5 v=89
85130 On ch=1 n=g#5 v=59
85133 Par ch=1 c=64 v=0
85136 On ch=1 n=b4 v=54
85144 On ch=1 n=d4 v=60
85236 Off ch=1 n=d4 v=64
85272 Par ch=1 c=64 v=127
85316 Off ch=1 n=g#5 v=64
85332 Off ch=1 n=b4 v=64
85406 Off ch=1 n=b5 v=64
85426 On ch=1 n=f6 v=84
85446 On ch=1 n=f5 v=52
85492 Off ch=1 n=f5 v=64
85542 Off ch=1 n=f6 v=64
85742 On ch=1 n=e6 v=71
85744 On ch=1 n=a5 v=36
85750 Par ch=1 c=64 v=0
85760 On ch=1 n=c4 v=32
85770 On ch=1 n=e5 v=39
85950 Par ch=1 c=64 v=127
85986 Off ch=1 n=c4 v=64
86044 On ch=1 n=c6 v=61
86054 Off ch=1 n=e5 v=64
86066 On ch=1 n=c5 v=36
86114 Off ch=1 n=a5 v=64
86268 Off ch=1 n=c5 v=64
86316 On ch=1 n=b5 v=74
86326 Off ch=1 n=e6 v=64
86336 On ch=1 n=b4 v=37
86382 Off ch=1 n=c6 v=64
86420 Off ch=1 n=b4 v=64
86584 Off ch=1 n=b5 v=64
86587 On ch=1 n=a5 v=61
86594 On ch=1 n=a4 v=31
86634 Off ch=1 n=a5 v=64
86666 Off ch=1 n=a4 v=64
86884 On ch=1 n=a5 v=55
86888 On ch=1 n=e5 v=46
86890 On ch=1 n=c4 v=20
86902 Par ch=1 c=64 v=0
86902 On ch=1 n=a4 v=40
87132 Par ch=1 c=64 v=127
87134 Off ch=1 n=a4 v=64
87166 On ch=1 n=b5 v=69
87170 Off ch=1 n=c4 v=64
87186 Off ch=1 n=e5 v=64
87194 On ch=1 n=b4 v=36
87212 Off ch=1 n=a5 v=64
87390 Off ch=1 n=b4 v=64
87446 On ch=1 n=g5 v=67
87460 On ch=1 n=e5 v=38
87474 On ch=1 n=c4 v=16
87480 Off ch=1 n=b5 v=64
87482 On ch=1 n=g4 v=42
87502 Par ch=1 c=64 v=0
87716 Off ch=1 n=g4 v=64
87732 Par ch=1 c=64 v=127
87750 On ch=1 n=a5 v=45
87752 On ch=1 n=a4 v=44
87788 Off ch=1 n=c4 v=64
87794 Off ch=1 n=g5 v=64
87842 Off ch=1 n=a4 v=64
87990 Off ch=1 n=e5 v=64
88064 On ch=1 n=b5 v=46
88068 On ch=1 n=d#5 v=29
88076 On ch=1 n=b3 v=19
88080 On ch=1 n=b4 v=28
88100 Par ch=1 c=64 v=0
88174 Off ch=1 n=a5 v=64
88360 On ch=1 n=f#4 v=35
88368 Off ch=1 n=b4 v=64
88368 On ch=1 n=f#5 v=29
88438 Par ch=1 c=64 v=127
88446 Off ch=1 n=d#5 v=64
88666 Off ch=1 n=f#4 v=64
88671 Off ch=1 n=b5 v=64
88688 On ch=1 n=e5 v=40
88690 On ch=1 n=e4 v=18
88746 Off ch=1 n=f#5 v=64
88942 Off ch=1 n=e4 v=64
88994 Off ch=1 n=e5 v=64
89048 On ch=1 n=d#5 v=45
89080 On ch=1 n=d#4 v=31
89110 Off ch=1 n=b3 v=64
89326 Off ch=1 n=d#4 v=64
89366 Off ch=1 n=d#5 v=64
89452 On ch=1 n=a5 v=39
89464 On ch=1 n=e5 v=39
89464 On ch=1 n=a4 v=20
89476 On ch=1 n=c4 v=31
89560 Par ch=1 c=64 v=0
89781 On ch=1 n=b5 v=63
89790 Par ch=1 c=64 v=127
89804 Off ch=1 n=a4 v=64
89806 On ch=1 n=b4 v=25
90024 Off ch=1 n=a5 v=64
90066 Off ch=1 n=b4 v=64
90076 On ch=1 n=g5 v=60
90082 On ch=1 n=d#5 v=49
90102 Off ch=1 n=b5 v=64
90104 On ch=1 n=g4 v=40
90174 Par ch=1 c=64 v=0
90314 Par ch=1 c=64 v=127
90350 Off ch=1 n=e5 v=64
90362 On ch=1 n=a5 v=68
90388 Off ch=1 n=d#5 v=64
90396 On ch=1 n=a4 v=35
90408 Off ch=1 n=g4 v=64
90430 Off ch=1 n=g5 v=64
90552 Off ch=1 n=a4 v=64
90622 On ch=1 n=f#5 v=66
90636 Off ch=1 n=a5 v=64
90642 On ch=1 n=d5 v=50
90652 On ch=1 n=f#4 v=40
90728 Par ch=1 c=64 v=0
90852 Off ch=1 n=d5 v=64
90884 Par ch=1 c=64 v=127
90910 Off ch=1 n=c4 v=64
90914 On ch=1 n=a5 v=69
90924 On ch=1 n=a4 v=51
90990 Off ch=1 n=f#5 v=64
90990 Off ch=1 n=f#4 v=64
91050 Off ch=1 n=a5 v=64
91066 Off ch=1 n=a4 v=64
91174 On ch=1 n=e6 v=73
91208 On ch=1 n=e5 v=52
91338 Off ch=1 n=e5 v=64
91450 On ch=1 n=d5 v=58
91456 On ch=1 n=d6 v=68
91470 Off ch=1 n=e6 v=64
91498 Off ch=1 n=d5 v=64
91666 Off ch=1 n=d6 v=64
91724 On ch=1 n=d4 v=57
91724 On ch=1 n=b3 v=57
91727 Par ch=1 c=64 v=0
91838 Off ch=1 n=b3 v=64
91844 Off ch=1 n=d4 v=64
91850 Par ch=1 c=64 v=127
91872 On ch=1 n=d6 v=84
91875 On ch=1 n=g5 v=65
91902 On ch=1 n=d5 v=73
91998 Off ch=1 n=d5 v=64
92178 Off ch=1 n=g5 v=64
92186 Off ch=1 n=d6 v=64
92189 On ch=1 n=e6 v=80
92312 On ch=1 n=a3 v=55
92330 On ch=1 n=c4 v=55
92342 Par ch=1 c=64 v=0
92402 Off ch=1 n=a3 v=64
92420 Off ch=1 n=c4 v=64
92448 Par ch=1 c=64 v=127
92450 On ch=1 n=f#5 v=47
92456 On ch=1 n=d6 v=78
92468 Off ch=1 n=e6 v=64
92471 On ch=1 n=c5 v=67
92578 Off ch=1 n=c5 v=64
92650 Off ch=1 n=f#5 v=64
92762 On ch=1 n=e6 v=69
92784 Off ch=1 n=d6 v=64
92832 On ch=1 n=g3 v=53
92894 Par ch=1 c=64 v=0
92942 On ch=1 n=b3 v=51
93037 Off ch=1 n=g3 v=64
93064 Par ch=1 c=64 v=127
93098 Off ch=1 n=b3 v=64
93130 On ch=1 n=b4 v=56
93130 On ch=1 n=d6 v=67
93148 On ch=1 n=g5 v=24
93194 Off ch=1 n=e6 v=64
93462 Off ch=1 n=g5 v=64
93488 Off ch=1 n=b4 v=64
93530 On ch=1 n=d5 v=59
93858 On ch=1 n=b5 v=65
93928 Off ch=1 n=d5 v=64
94006 Off ch=1 n=d6 v=64
94214 On ch=1 n=g5 v=50
94242 Off ch=1 n=b5 v=64
94406 Off ch=1 n=g5 v=64
94514 On ch=1 n=a5 v=61
94522 On ch=1 n=c4 v=56
94528 On ch=1 n=e5 v=63
94540 On ch=1 n=a4 v=44
94862 Par ch=1 c=64 v=0
94862 On ch=1 n=b5 v=76
94872 On ch=1 n=b4 v=51
94910 Off ch=1 n=a4 v=64
94972 Off ch=1 n=a5 v=64
95014 Par ch=1 c=64 v=127
95158 On ch=1 n=g5 v=74
95158 On ch=1 n=d#5 v=64
95172 On ch=1 n=g4 v=65
95186 Off ch=1 n=b5 v=64
95224 Off ch=1 n=b4 v=64
95246 Par ch=1 c=64 v=0
95384 Par ch=1 c=64 v=127
95430 Off ch=1 n=e5 v=64
95448 On ch=1 n=a5 v=63
95472 On ch=1 n=a4 v=54
95506 Off ch=1 n=d#5 v=64
95508 Off ch=1 n=g4 v=64
95538 Off ch=1 n=g5 v=64
95716 Off ch=1 n=a4 v=64
95726 On ch=1 n=f#5 v=62
95734 On ch=1 n=d5 v=55
95744 On ch=1 n=f#4 v=58
95758 Off ch=1 n=a5 v=64
95874 Par ch=1 c=64 v=0
95980 Off ch=1 n=d5 v=64
96010 On ch=1 n=a5 v=65
96014 Par ch=1 c=64 v=127
96016 On ch=1 n=a4 v=57
96036 Off ch=1 n=c4 v=64
96110 Off ch=1 n=f#5 v=64
96116 Off ch=1 n=f#4 v=64
96158 Off ch=1 n=a5 v=64
96200 Off ch=1 n=a4 v=64
96280 On ch=1 n=e6 v=78
96296 On ch=1 n=e5 v=63
96446 Off ch=1 n=e5 v=64
96550 On ch=1 n=d5 v=45
96598 On ch=1 n=d6 v=80
96606 Off ch=1 n=d5 v=64
96638 Off ch=1 n=e6 v=64
96758 On ch=1 n=b3 v=66
96782 Par ch=1 c=64 v=0
96808 On ch=1 n=d4 v=62
96858 Off ch=1 n=d6 v=64
96892 Off ch=1 n=b3 v=64
96904 Par ch=1 c=64 v=127
96936 Off ch=1 n=d4 v=64
96956 On ch=1 n=d6 v=73
96960 On ch=1 n=g5 v=76
96982 On ch=1 n=d5 v=82
97130 Off ch=1 n=d5 v=64
97280 On ch=1 n=e6 v=87
97306 Off ch=1 n=d6 v=64
97376 On ch=1 n=a3 v=63
97442 Par ch=1 c=64 v=0
97454 Off ch=1 n=g5 v=64
97456 On ch=1 n=c4 v=50
97564 On ch=1 n=d6 v=93
97566 Off ch=1 n=a3 v=64
97566 On ch=1 n=f5 v=80
97568 Par ch=1 c=64 v=127
97590 Off ch=1 n=c4 v=64
97604 On ch=1 n=c5 v=90
97620 Off ch=1 n=e6 v=64
97786 Off ch=1 n=c5 v=64
97898 On ch=1 n=e6 v=88
97937 Off ch=1 n=d6 v=64
98016 On ch=1 n=g#3 v=72
98072 Par ch=1 c=64 v=0
98088 On ch=1 n=b3 v=71
98162 Off ch=1 n=f5 v=64
98210 Off ch=1 n=g#3 v=64
98210 Par ch=1 c=64 v=127
98226 Off ch=1 n=e6 v=64
98254 Off ch=1 n=b3 v=64
98282 On ch=1 n=b4 v=79
98358 On ch=1 n=d6 v=83
98361 On ch=1 n=e5 v=65
98696 Off ch=1 n=e5 v=64
98701 Off ch=1 n=b4 v=64
98712 On ch=1 n=d5 v=80
99020 Off ch=1 n=d5 v=64
99052 On ch=1 n=b5 v=89
99404 Off ch=1 n=d6 v=64
99430 Off ch=1 n=b5 v=64
99436 On ch=1 n=e5 v=87
99554 Off ch=1 n=e5 v=64
99756 On ch=1 n=c5 v=72
99758 On ch=1 n=a3 v=83
99758 On ch=1 n=e5 v=83
99782 On ch=1 n=e4 v=75
99958 Off ch=1 n=e4 v=64
100066 On ch=1 n=f5 v=86
100074 On ch=1 n=f4 v=100
100112 Off ch=1 n=e5 v=64
100210 Off ch=1 n=c5 v=64
100216 Off ch=1 n=a3 v=64
100288 Off ch=1 n=f4 v=64
100356 On ch=1 n=g#3 v=70
100356 On ch=1 n=d5 v=77
100359 On ch=1 n=e4 v=81
100359 On ch=1 n=e5 v=91
100420 Off ch=1 n=f5 v=64
100470 Par ch=1 c=64 v=0
100622 Par ch=1 c=64 v=127
100660 On ch=1 n=b5 v=94
100665 Off ch=1 n=g#3 v=64
100690 Off ch=1 n=e5 v=64
100698 On ch=1 n=b4 v=74
100730 Off ch=1 n=e4 v=64
100820 Off ch=1 n=d5 v=64
100856 Off ch=1 n=b5 v=64
100858 Off ch=1 n=b4 v=64
100974 On ch=1 n=a3 v=76
101048 On ch=1 n=c5 v=55
101072 On ch=1 n=c6 v=82
101238 Par ch=1 c=64 v=0
101376 On ch=1 n=a5 v=68
101392 On ch=1 n=a4 v=62
101422 Off ch=1 n=a3 v=64
101438 Par ch=1 c=64 v=127
101654 Off ch=1 n=a4 v=64
101674 On ch=1 n=g5 v=73
101692 On ch=1 n=g4 v=66
101758 Off ch=1 n=c6 v=64
101780 Off ch=1 n=a5 v=64
101864 Off ch=1 n=c5 v=64
101952 On ch=1 n=f5 v=78
101952 On ch=1 n=f4 v=100
101998 Off ch=1 n=g5 v=64
102014 Off ch=1 n=g4 v=64
102048 Off ch=1 n=f4 v=64
102090 Off ch=1 n=f5 v=64
102226 On ch=1 n=a3 v=69
102229 On ch=1 n=c5 v=72
102229 On ch=1 n=e5 v=81
102234 On ch=1 n=e4 v=76
102328 Par ch=1 c=64 v=0
102498 Off ch=1 n=e4 v=64
102498 Par ch=1 c=64 v=127
102520 Off ch=1 n=e5 v=64
102520 On ch=1 n=f5 v=84
102528 On ch=1 n=f4 v=91
102556 Off ch=1 n=a3 v=64
102602 Off ch=1 n=c5 v=64
102680 Off ch=1 n=f4 v=64
102800 On ch=1 n=g#3 v=64
102800 On ch=1 n=e5 v=88
102802 On ch=1 n=e4 v=81
102804 On ch=1 n=d5 v=72
102837 Par ch=1 c=64 v=0
102842 Off ch=1 n=f5 v=64
103020 Par ch=1 c=64 v=127
103024 Off ch=1 n=g#3 v=64
103080 Off ch=1 n=e5 v=64
103080 On ch=1 n=b5 v=92
103104 On ch=1 n=b4 v=71
103192 Off ch=1 n=d5 v=64
103222 Off ch=1 n=b4 v=64
103250 Off ch=1 n=b5 v=64
103260 Off ch=1 n=e4 v=64
103364 On ch=1 n=c6 v=81
103372 On ch=1 n=c5 v=72
103376 On ch=1 n=a3 v=58
103466 Par ch=1 c=64 v=0
103636 On ch=1 n=a5 v=71
103664 Off ch=1 n=a3 v=64
103672 On ch=1 n=a4 v=54
103696 Par ch=1 c=64 v=127
103882 Off ch=1 n=a4 v=64
103916 On ch=1 n=g5 v=67
103954 Off ch=1 n=c6 v=64
103954 On ch=1 n=g4 v=50
103986 Off ch=1 n=a5 v=64
104034 Off ch=1 n=c5 v=64
104152 Off ch=1 n=g4 v=64
104192 On ch=1 n=f5 v=59
104198 Off ch=1 n=g5 v=64
104208 On ch=1 n=f4 v=64
104256 Off ch=1 n=f4 v=64
104274 Off ch=1 n=f5 v=64
104522 On ch=1 n=a3 v=53
104530 On ch=1 n=e5 v=62
104540 On ch=1 n=c5 v=46
104540 On ch=1 n=e4 v=33
104556 Par ch=1 c=64 v=0
104740 Par ch=1 c=64 v=127
104762 Off ch=1 n=e4 v=64
104792 Off ch=1 n=e5 v=64
104804 On ch=1 n=f5 v=55
104828 On ch=1 n=f4 v=66
104838 Off ch=1 n=a3 v=64
104850 Off ch=1 n=c5 v=64
104888 Off ch=1 n=f4 v=64
104986 Off ch=1 n=f5 v=64
105050 On ch=1 n=a#3 v=57
105053 On ch=1 n=e5 v=73
105053 On ch=1 n=c#5 v=54
105072 On ch=1 n=e4 v=64
105110 Par ch=1 c=64 v=0
105294 Par ch=1 c=64 v=127
105298 Off ch=1 n=e4 v=64
105316 On ch=1 n=f#4 v=77
105316 On ch=1 n=f#5 v=62
105332 Off ch=1 n=c#5 v=64
105362 Off ch=1 n=e5 v=64
105392 Off ch=1 n=a#3 v=64
105426 Off ch=1 n=f#4 v=64
105544 Off ch=1 n=f#5 v=64
105580 On ch=1 n=b3 v=67
105583 On ch=1 n=g5 v=69
105583 On ch=1 n=e5 v=58
105590 On ch=1 n=g4 v=64
105678 Par ch=1 c=64 v=0
105842 Off ch=1 n=g4 v=64
105848 Par ch=1 c=64 v=127
105862 On ch=1 n=a5 v=68
105884 On ch=1 n=a4 v=66
105898 Off ch=1 n=b3 v=64
105898 Off ch=1 n=g5 v=64
105906 Off ch=1 n=e5 v=64
105998 Off ch=1 n=a4 v=64
106110 On ch=1 n=c4 v=75
106110 On ch=1 n=g4 v=79
106113 On ch=1 n=g5 v=82
106120 On ch=1 n=e5 v=71
106146 Off ch=1 n=a5 v=64
106216 Par ch=1 c=64 v=0
106348 On ch=1 n=a5 v=78
106352 Off ch=1 n=g4 v=64
106360 On ch=1 n=a4 v=76
106400 Par ch=1 c=64 v=127
106404 Off ch=1 n=g5 v=64
106590 On ch=1 n=a#5 v=78
106602 On ch=1 n=a#4 v=71
106612 Off ch=1 n=a4 v=64
106646 Par ch=1 c=64 v=0
106674 Off ch=1 n=a5 v=64
106800 Par ch=1 c=64 v=127
106844 Off ch=1 n=a#4 v=64
106849 On ch=1 n=c6 v=89
106849 On ch=1 n=c5 v=81
106866 Off ch=1 n=c4 v=64
106910 Off ch=1 n=e5 v=64
106920 Off ch=1 n=a#5 v=64
107100 On ch=1 n=a#5 v=81
107108 On ch=1 n=a#4 v=67
107116 On ch=1 n=d4 v=71
107116 On ch=1 n=f5 v=62
107142 Off ch=1 n=c5 v=64
107158 Off ch=1 n=c6 v=64
107366 On ch=1 n=d6 v=90
107384 On ch=1 n=d5 v=81
107414 Par ch=1 c=64 v=0
107438 Off ch=1 n=a#5 v=64
107478 Off ch=1 n=a#4 v=64
107520 Off ch=1 n=d4 v=64
107552 Par ch=1 c=64 v=127
107646 On ch=1 n=c6 v=91
107668 On ch=1 n=c5 v=84
107718 Off ch=1 n=d5 v=64
107782 Off ch=1 n=d6 v=64
107824 Off ch=1 n=f5 v=64
107894 Off ch=1 n=c5 v=64
107936 Off ch=1 n=c6 v=64
107966 On ch=1 n=a#4 v=71
107970 On ch=1 n=a#5 v=81
108042 Off ch=1 n=a#4 v=64
108052 Off ch=1 n=a#5 v=64
108150 On ch=1 n=a#5 v=65
108164 On ch=1 n=a#4 v=78
108242 On ch=1 n=f#5 v=51
108254 On ch=1 n=b5 v=97
108256 Off ch=1 n=a#4 v=64
108286 On ch=1 n=b4 v=91
108294 Off ch=1 n=a#5 v=64
108300 On ch=1 n=d#4 v=73
108582 Par ch=1 c=64 v=0
108590 On ch=1 n=a5 v=89
108596 On ch=1 n=a4 v=83
108720 Par ch=1 c=64 v=127
108800 Off ch=1 n=b5 v=64
108816 Off ch=1 n=f#5 v=64
108826 Off ch=1 n=d#4 v=64
108838 Off ch=1 n=b4 v=64
108838 Off ch=1 n=a5 v=64
108838 Off ch=1 n=a4 v=64
108936 On ch=1 n=b5 v=103
108938 On ch=1 n=g5 v=88
108946 On ch=1 n=e4 v=102
108952 On ch=1 n=b4 v=87
108956 On ch=1 n=g4 v=85
109182 Par ch=1 c=64 v=0
109278 On ch=1 n=c6 v=96
109302 On ch=1 n=c5 v=92
109320 Par ch=1 c=64 v=127
109324 Off ch=1 n=b4 v=64
109342 Off ch=1 n=b5 v=64
109368 Off ch=1 n=g4 v=64
109402 Off ch=1 n=e4 v=64
109424 Off ch=1 n=g5 v=64
109494 Off ch=1 n=c5 v=64
109558 On ch=1 n=d#4 v=84
109558 On ch=1 n=b4 v=88
109561 On ch=1 n=b5 v=102
109564 On ch=1 n=a5 v=84
109572 On ch=1 n=f#4 v=86
109578 Off ch=1 n=c6 v=64
109596 Par ch=1 c=64 v=0
109750 Par ch=1 c=64 v=127
109804 Off ch=1 n=d#4 v=64
109846 Off ch=1 n=b5 v=64
109866 On ch=1 n=f#6 v=99
109882 On ch=1 n=f#5 v=89
109928 Off ch=1 n=b4 v=64
109931 Off ch=1 n=a5 v=64
109946 Off ch=1 n=f#4 v=64
110020 Off ch=1 n=f#5 v=64
110052 Off ch=1 n=f#6 v=64
110210 On ch=1 n=g6 v=101
110214 On ch=1 n=b5 v=82
110216 On ch=1 n=g5 v=84
110220 On ch=1 n=b4 v=76
110224 On ch=1 n=e4 v=76
110228 On ch=1 n=g4 v=72
110304 Par ch=1 c=64 v=0
110472 Par ch=1 c=64 v=127
110562 On ch=1 n=e6 v=87
110564 Off ch=1 n=g4 v=64
110574 Off ch=1 n=e4 v=64
110586 On ch=1 n=e5 v=88
110602 Off ch=1 n=b4 v=64
110620 Off ch=1 n=b5 v=64
110838 Off ch=1 n=e5 v=64
110850 On ch=1 n=d6 v=87
110864 On ch=1 n=d5 v=81
110866 Off ch=1 n=g6 v=64
110888 Off ch=1 n=g5 v=64
110930 Off ch=1 n=e6 v=64
111112 Off ch=1 n=d5 v=64
111120 On ch=1 n=c5 v=87
111120 On ch=1 n=c6 v=89
111130 Off ch=1 n=d6 v=64
111234 Off ch=1 n=c5 v=64
111268 Off ch=1 n=c6 v=64
111376 On ch=1 n=b5 v=96
111378 On ch=1 n=g5 v=83
111384 On ch=1 n=b4 v=84
111388 On ch=1 n=e4 v=87
111392 On ch=1 n=g4 v=77
111502 Par ch=1 c=64 v=0
111654 Par ch=1 c=64 v=127
111656 On ch=1 n=c6 v=95
111666 Off ch=1 n=b4 v=64
111676 On ch=1 n=c5 v=89
111692 Off ch=1 n=g4 v=64
111706 Off ch=1 n=e4 v=64
111726 Off ch=1 n=b5 v=64
111782 Off ch=1 n=g5 v=64
111860 Off ch=1 n=c5 v=64
111926 On ch=1 n=b4 v=81
111928 On ch=1 n=f#4 v=82
111936 On ch=1 n=d#4 v=72
111936 On ch=1 n=b5 v=103
111939 On ch=1 n=a5 v=76
111962 Par ch=1 c=64 v=0
111992 Off ch=1 n=c6 v=64
112132 Par ch=1 c=64 v=127
112160 Off ch=1 n=d#4 v=64
112218 Off ch=1 n=f#4 v=64
112228 Off ch=1 n=b5 v=64
112240 On ch=1 n=f#6 v=90
112250 On ch=1 n=f#5 v=81
112290 Off ch=1 n=b4 v=64
112338 Off ch=1 n=a5 v=64
112368 Off ch=1 n=f#5 v=64
112404 On ch=1 n=e4 v=85
112436 Off ch=1 n=f#6 v=64
112480 On ch=1 n=g4 v=84
112564 On ch=1 n=b4 v=79
112630 On ch=1 n=g5 v=91
112630 On ch=1 n=g6 v=98
112640 On ch=1 n=b5 v=78
112670 Par ch=1 c=64 v=0
112866 Off ch=1 n=e4 v=64
112884 Par ch=1 c=64 v=127
112894 Off ch=1 n=g4 v=64
112924 Off ch=1 n=b4 v=64
112958 On ch=1 n=e6 v=85
112966 On ch=1 n=e5 v=78
113026 Off ch=1 n=b5 v=64
113190 Off ch=1 n=e5 v=64
113246 On ch=1 n=d6 v=94
113246 On ch=1 n=d5 v=83
113292 Off ch=1 n=g6 v=64
113376 Off ch=1 n=e6 v=64
113408 Off ch=1 n=g5 v=64
113494 Off ch=1 n=d5 v=64
113502 On ch=1 n=c6 v=89
113516 On ch=1 n=c5 v=87
113538 Off ch=1 n=d6 v=64
113598 Off ch=1 n=c6 v=64
113610 Off ch=1 n=c5 v=64
113766 On ch=1 n=b4 v=86
113766 On ch=1 n=b5 v=91
113769 On ch=1 n=g5 v=83
113776 On ch=1 n=e4 v=85
113806 Par ch=1 c=64 v=0
113990 Par ch=1 c=64 v=127
114034 Off ch=1 n=b4 v=64
114048 On ch=1 n=c6 v=89
114076 Off ch=1 n=b5 v=64
114079 On ch=1 n=c5 v=85
114108 Off ch=1 n=g5 v=64
114206 Off ch=1 n=e4 v=64
114280 Off ch=1 n=c5 v=64
114324 On ch=1 n=g#5 v=69
114326 On ch=1 n=b4 v=75
114332 On ch=1 n=b5 v=98
114332 On ch=1 n=d4 v=79
114360 Par ch=1 c=64 v=0
114408 Off ch=1 n=c6 v=64
114452 Off ch=1 n=d4 v=64
114498 Par ch=1 c=64 v=127
114570 Off ch=1 n=b4 v=64
114594 Off ch=1 n=g#5 v=64
114606 Off ch=1 n=b5 v=64
114662 On ch=1 n=f5 v=71
114664 On ch=1 n=f6 v=91
114730 Off ch=1 n=f5 v=64
114796 Off ch=1 n=f6 v=64
114994 On ch=1 n=e6 v=75
115000 On ch=1 n=e5 v=65
115002 On ch=1 n=a4 v=49
115006 On ch=1 n=a5 v=37
115022 On ch=1 n=c4 v=50
115036 Par ch=1 c=64 v=0
115266 Par ch=1 c=64 v=127
115342 On ch=1 n=c6 v=68
115348 Off ch=1 n=c4 v=64
115356 On ch=1 n=c5 v=51
115362 Off ch=1 n=a4 v=64
115396 Off ch=1 n=a5 v=64
115606 Off ch=1 n=c5 v=64
115622 On ch=1 n=b5 v=75
115625 Off ch=1 n=e5 v=64
115644 Off ch=1 n=e6 v=64
115647 On ch=1 n=b4 v=54
115712 Off ch=1 n=c6 v=64
115756 Off ch=1 n=b4 v=64
115886 On ch=1 n=a5 v=67
115889 On ch=1 n=a4 v=50
115896 Off ch=1 n=b5 v=64
115944 Off ch=1 n=a4 v=64
116000 Off ch=1 n=a5 v=64
116152 On ch=1 n=a5 v=63
116164 On ch=1 n=c4 v=50
116174 On ch=1 n=e5 v=63
116184 On ch=1 n=a4 v=48
116234 Par ch=1 c=64 v=0
116418 Par ch=1 c=64 v=127
116438 Off ch=1 n=a4 v=64
116438 On ch=1 n=b5 v=79
116464 Off ch=1 n=c4 v=64
116470 On ch=1 n=b4 v=49
116522 Off ch=1 n=e5 v=64
116528 Off ch=1 n=a5 v=64
116642 Off ch=1 n=b4 v=64
116716 On ch=1 n=g5 v=79
116724 On ch=1 n=c4 v=47
116742 On ch=1 n=g4 v=48
116744 On ch=1 n=e5 v=51
116772 Par ch=1 c=64 v=0
116776 Off ch=1 n=b5 v=64
116972 Par ch=1 c=64 v=127
117008 On ch=1 n=a5 v=65
117020 Off ch=1 n=g4 v=64
117028 On ch=1 n=a4 v=43
117094 Off ch=1 n=g5 v=64
117112 Off ch=1 n=c4 v=64
117132 Off ch=1 n=a4 v=64
117328 Off ch=1 n=e5 v=64
117332 On ch=1 n=b4 v=34
117352 On ch=1 n=b3 v=25
117370 Par ch=1 c=64 v=0
117372 On ch=1 n=b5 v=55
117402 On ch=1 n=d#5 v=23
117414 Off ch=1 n=a5 v=64
117718 On ch=1 n=f#5 v=42
117730 On ch=1 n=f#4 v=35
117740 Par ch=1 c=64 v=127
117870 Off ch=1 n=d#5 v=64
118020 Off ch=1 n=b4 v=64
118038 Off ch=1 n=f#4 v=64
118044 Off ch=1 n=b3 v=64
118047 On ch=1 n=e5 v=44
118062 On ch=1 n=e4 v=2
118162 Off ch=1 n=f#5 v=64
118410 Off ch=1 n=e5 v=64
118416 Off ch=1 n=e4 v=64
118440 On ch=1 n=d#4 v=2
118450 On ch=1 n=d#5 v=40
118536 Off ch=1 n=b5 v=64
118564 Off ch=1 n=d#4 v=64
118612 Off ch=1 n=d#5 v=64
118752 On ch=1 n=e3 v=59
119212 On ch=1 n=c6 v=73
119246 On ch=1 n=f3 v=42
119248 Off ch=1 n=e3 v=64
119258 On ch=1 n=d#4 v=26
119292 Par ch=1 c=64 v=0
119548 Off ch=1 n=f3 v=64
119568 Par ch=1 c=64 v=127
119592 Off ch=1 n=d#4 v=64
119760 On ch=1 n=a4 v=34
120214 Off ch=1 n=a4 v=64
120286 On ch=1 n=c5 v=36
120650 Off ch=1 n=c5 v=64
120698 On ch=1 n=d#5 v=29
120932 Off ch=1 n=d#5 v=64
121056 On ch=1 n=a#5 v=51
121166 Off ch=1 n=c6 v=64
121412 On ch=1 n=a4 v=12
121892 On ch=1 n=c5 v=20
121964 On ch=1 n=d#4 v=2
121970 On ch=1 n=f3 v=14
122610 On ch=1 n=d#5 v=22
123388 Off ch=1 n=a#5 v=64
123404 On ch=1 n=a5 v=37
123628 Off ch=1 n=a5 v=64
123940 On ch=1 n=a5 v=27
124166 On ch=1 n=g5 v=55
124186 Off ch=1 n=a5 v=64
124644 Off ch=1 n=a4 v=64
124698 Off ch=1 n=f3 v=64
124856 Off ch=1 n=d#4 v=64
124934 On ch=1 n=f5 v=37
124976 Off ch=1 n=g5 v=64
124988 Off ch=1 n=d#5 v=64
125000 On ch=1 n=f3 v=30
125120 Off ch=1 n=f5 v=64
125254 On ch=1 n=f5 v=42
125282 On ch=1 n=d4 v=30
125410 Off ch=1 n=c5 v=64
125714 On ch=1 n=f4 v=38
125716 Par ch=1 c=64 v=0
125960 Par ch=1 c=64 v=127
126094 On ch=1 n=a#5 v=38
126104 Off ch=1 n=f4 v=64
126398 Off ch=1 n=d4 v=64
126574 Off ch=1 n=f5 v=64
126642 Off ch=1 n=f3 v=64
126684 On ch=1 n=d5 v=21
127214 On ch=1 n=e3 v=47
127218 Off ch=1 n=d5 v=64
127234 Off ch=1 n=a#5 v=64
127568 On ch=1 n=b5 v=92
127628 On ch=1 n=d4 v=44
127666 Par ch=1 c=64 v=0
127844 Off ch=1 n=e3 v=64
127880 Par ch=1 c=64 v=127
127996 Off ch=1 n=d4 v=64
128234 On ch=1 n=g#4 v=50
128636 On ch=1 n=b4 v=55
128964 On ch=1 n=d5 v=56
129046 Off ch=1 n=b5 v=64
129284 Off ch=1 n=b4 v=64
129300 Off ch=1 n=g#4 v=64
129322 On ch=1 n=a5 v=65
129398 Off ch=1 n=d5 v=64
129634 On ch=1 n=g#4 v=31
130064 On ch=1 n=b4 v=22
130610 On ch=1 n=d5 v=30
131658 On ch=1 n=g#5 v=41
131672 Off ch=1 n=a5 v=64
132036 Off ch=1 n=g#5 v=64
132254 On ch=1 n=g5 v=20
132348 Off ch=1 n=g5 v=64
132386 On ch=1 n=f5 v=37
132712 On ch=1 n=d4 v=3
132808 Off ch=1 n=g#4 v=64
132818 Off ch=1 n=d4 v=64
133324 On ch=1 n=e5 v=47
133352 Off ch=1 n=f5 v=64
133428 On ch=1 n=e3 v=31
133478 Off ch=1 n=e5 v=64
133606 On ch=1 n=e5 v=42
133656 On ch=1 n=c4 v=19
133838 Off ch=1 n=d5 v=64
134076 On ch=1 n=e4 v=31
134134 Par ch=1 c=64 v=0
134288 Par ch=1 c=64 v=127
134614 Off ch=1 n=b4 v=64
134650 On ch=1 n=a5 v=32
135040 Off ch=1 n=e3 v=64
135070 Off ch=1 n=e4 v=64
135106 Off ch=1 n=c4 v=64
135130 On ch=1 n=c5 v=31
135244 Off ch=1 n=a5 v=64
135282 Off ch=1 n=e5 v=64
135354 On ch=1 n=d#3 v=29
135498 On ch=1 n=a5 v=66
135562 Par ch=1 c=64 v=0
135566 On ch=1 n=d#4 v=36
135602 Off ch=1 n=c5 v=64
135714 Off ch=1 n=d#3 v=64
135716 Par ch=1 c=64 v=127
135920 On ch=1 n=g4 v=51
136250 On ch=1 n=c5 v=55
136264 Off ch=1 n=g4 v=64
136466 Off ch=1 n=d#4 v=64
136584 On ch=1 n=g5 v=69
136756 On ch=1 n=c3 v=50
136822 Off ch=1 n=c5 v=64
136836 Off ch=1 n=a5 v=64
136944 On ch=1 n=c4 v=46
136996 On ch=1 n=c6 v=87
137128 Off ch=1 n=c3 v=64
137266 Off ch=1 n=g5 v=64
137332 On ch=1 n=d#4 v=54
137650 On ch=1 n=c5 v=39
138194 On ch=1 n=g5 v=39
138306 Off ch=1 n=c4 v=64
138364 Off ch=1 n=d#4 v=64
138750 On ch=1 n=c3 v=53
138782 On ch=1 n=c4 v=27
138840 On ch=1 n=a5 v=49
138954 Off ch=1 n=g5 v=64
138994 Off ch=1 n=c3 v=64
139118 On ch=1 n=c3 v=58
139168 Off ch=1 n=c6 v=64
139324 Off ch=1 n=c3 v=64
139324 On ch=1 n=d3 v=64
139680 Par ch=1 c=64 v=0
139866 Par ch=1 c=64 v=127
140290 Off ch=1 n=d3 v=64
140342 On ch=1 n=d#3 v=39
140372 On ch=1 n=g5 v=53
140472 Off ch=1 n=a5 v=64
140524 Off ch=1 n=c4 v=64
140650 On ch=1 n=d3 v=44
140696 Off ch=1 n=d#3 v=64
140770 Off ch=1 n=g5 v=64
140968 On ch=1 n=g5 v=49
141026 On ch=1 n=c4 v=28
141034 Par ch=1 c=64 v=0
141220 Off ch=1 n=d3 v=64
141278 Par ch=1 c=64 v=127
141318 Off ch=1 n=c4 v=64
141484 On ch=1 n=f#4 v=33
141518 Off ch=1 n=c5 v=64
142010 On ch=1 n=c5 v=32
142452 Off ch=1 n=c5 v=64
142452 On ch=1 n=f#5 v=38
142492 Off ch=1 n=g5 v=64
142586 Off ch=1 n=f#4 v=64
142692 Off ch=1 n=f#5 v=64
142830 On ch=1 n=g#3 v=24
143336 On ch=1 n=g#4 v=36
143452 On ch=1 n=f6 v=87
143552 Par ch=1 c=64 v=0
143752 Par ch=1 c=64 v=127
143754 Off ch=1 n=g#3 v=64
143842 Off ch=1 n=g#4 v=64
143960 On ch=1 n=c#5 v=46
144218 Off ch=1 n=c#5 v=64
144332 On ch=1 n=f5 v=46
144590 Off ch=1 n=f5 v=64
144698 On ch=1 n=g#5 v=56
144828 Off ch=1 n=f6 v=64
144828 Off ch=1 n=g#5 v=64
144922 On ch=1 n=f3 v=33
145190 Off ch=1 n=f3 v=64
145314 On ch=1 n=f4 v=43
145404 On ch=1 n=g#6 v=81
145508 Off ch=1 n=f4 v=64
145934 Off ch=1 n=g#6 v=64
145944 On ch=1 n=c#5 v=27
146358 On ch=1 n=f5 v=25
146966 Off ch=1 n=c#5 v=64
146966 On ch=1 n=g#5 v=21
147492 Off ch=1 n=g#5 v=64
147616 On ch=1 n=f3 v=32
147640 On ch=1 n=f4 v=28
147860 On ch=1 n=f6 v=47
147876 Off ch=1 n=f3 v=64
148278 On ch=1 n=f3 v=38
148508 Off ch=1 n=f3 v=64
148514 On ch=1 n=g3 v=30
148714 Par ch=1 c=64 v=0
148930 Par ch=1 c=64 v=127
149484 Par ch=1 c=64 v=0
149606 Par ch=1 c=64 v=127
149798 Off ch=1 n=g3 v=64
149810 On ch=1 n=c#6 v=32
149826 On ch=1 n=g#3 v=20
149898 Par ch=1 c=64 v=0
149938 Off ch=1 n=f6 v=64
150128 Par ch=1 c=64 v=127
150726 On ch=1 n=b5 v=41
150744 On ch=1 n=g3 v=18
150792 Off ch=1 n=g#3 v=64
150806 Par ch=1 c=64 v=0
150902 Off ch=1 n=c#6 v=64
151174 Par ch=1 c=64 v=127
151368 Off ch=1 n=f5 v=64
151398 Off ch=1 n=g3 v=64
151462 Off ch=1 n=f4 v=64
152006 On ch=1 n=f5 v=12
153548 Off ch=1 n=b5 v=64
154288 On ch=1 n=g5 v=28
154412 On ch=1 n=d4 v=23
154474 On ch=1 n=g4 v=16
154490 On ch=1 n=b5 v=37
154604 On ch=1 n=a5 v=36
154607 Off ch=1 n=g5 v=64
154632 Off ch=1 n=b5 v=64
154646 Off ch=1 n=f5 v=64
154646 Par ch=1 c=64 v=0
154766 On ch=1 n=b4 v=23
154862 Par ch=1 c=64 v=127
154900 Off ch=1 n=g4 v=64
154934 On ch=1 n=f5 v=30
154982 Off ch=1 n=b4 v=64
154988 Off ch=1 n=d4 v=64
155058 Off ch=1 n=f5 v=64
155064 On ch=1 n=g5 v=45
155164 Off ch=1 n=g5 v=64
155188 On ch=1 n=c4 v=22
155190 On ch=1 n=g4 v=34
155194 On ch=1 n=c6 v=38
155230 Par ch=1 c=64 v=0
155248 Off ch=1 n=a5 v=64
155378 On ch=1 n=c5 v=34
155472 Off ch=1 n=g4 v=64
155484 Off ch=1 n=c5 v=64
155496 On ch=1 n=e5 v=41
155506 Par ch=1 c=64 v=127
155592 Off ch=1 n=c6 v=64
155596 On ch=1 n=g5 v=42
155600 Off ch=1 n=c4 v=64
155608 Off ch=1 n=e5 v=64
155652 On ch=1 n=b5 v=61
155704 On ch=1 n=d4 v=43
155707 Par ch=1 c=64 v=0
155724 On ch=1 n=g4 v=35
155726 On ch=1 n=a5 v=53
155760 Off ch=1 n=b5 v=64
155802 Off ch=1 n=g5 v=64
155890 On ch=1 n=b4 v=47
155922 Off ch=1 n=g4 v=64
155988 Off ch=1 n=d4 v=64
155992 On ch=1 n=f5 v=49
155998 Par ch=1 c=64 v=127
156042 Off ch=1 n=b4 v=64
156068 Off ch=1 n=f5 v=64
156106 On ch=1 n=g5 v=67
156176 On ch=1 n=c4 v=30
156200 Off ch=1 n=a5 v=64
156214 Par ch=1 c=64 v=0
156217 On ch=1 n=g4 v=28
156228 On ch=1 n=c6 v=53
156231 Off ch=1 n=g5 v=64
156374 On ch=1 n=c5 v=38
156380 Off ch=1 n=g4 v=64
156398 Off ch=1 n=c4 v=64
156398 Par ch=1 c=64 v=127
156470 Off ch=1 n=c6 v=64
156512 On ch=1 n=e5 v=50
156532 Off ch=1 n=c5 v=64
156572 Off ch=1 n=e5 v=64
156622 On ch=1 n=c6 v=67
156696 On ch=1 n=a4 v=37
156714 On ch=1 n=g4 v=33
156720 Par ch=1 c=64 v=0
156736 On ch=1 n=c#6 v=59
156742 Off ch=1 n=c6 v=64
156842 On ch=1 n=c#5 v=45
156904 Off ch=1 n=a4 v=64
156920 Par ch=1 c=64 v=127
156954 Off ch=1 n=c#6 v=64
156978 On ch=1 n=e5 v=58
157002 Off ch=1 n=c#5 v=64
157040 Off ch=1 n=e5 v=64
157074 On ch=1 n=c#6 v=66
157102 Off ch=1 n=g4 v=64
157166 On ch=1 n=a4 v=30
157196 On ch=1 n=f4 v=54
157222 On ch=1 n=d6 v=84
157228 Off ch=1 n=c#6 v=64
157228 Par ch=1 c=64 v=0
157362 On ch=1 n=d5 v=47
157402 Off ch=1 n=a4 v=64
157412 Par ch=1 c=64 v=127
157428 Off ch=1 n=f4 v=64
157438 Off ch=1 n=d6 v=64
157468 On ch=1 n=f5 v=56
157524 Off ch=1 n=d5 v=64
157572 On ch=1 n=d6 v=71
157590 Off ch=1 n=f5 v=64
157642 On ch=1 n=e4 v=49
157648 On ch=1 n=a4 v=37
157714 On ch=1 n=e6 v=66
157720 Par ch=1 c=64 v=0
157724 Off ch=1 n=d6 v=64
157842 On ch=1 n=c#5 v=58
157904 Par ch=1 c=64 v=127
157912 Off ch=1 n=a4 v=64
157958 On ch=1 n=g5 v=39
157962 Off ch=1 n=e6 v=64
157982 Off ch=1 n=c#5 v=64
158006 Off ch=1 n=e4 v=64
158028 Off ch=1 n=g5 v=64
158050 On ch=1 n=e6 v=50
158156 On ch=1 n=a4 v=35
158166 On ch=1 n=d4 v=35
158196 Off ch=1 n=e6 v=64
158212 Par ch=1 c=64 v=0
158212 On ch=1 n=f6 v=44
158406 On ch=1 n=d5 v=32
158440 Par ch=1 c=64 v=127
158445 Off ch=1 n=d4 v=64
158456 Off ch=1 n=a4 v=64
158472 Off ch=1 n=f6 v=64
158522 On ch=1 n=f5 v=20
158564 Off ch=1 n=d5 v=64
158652 On ch=1 n=a5 v=34
158696 Off ch=1 n=f5 v=64
158716 On ch=1 n=c6 v=56
158746 Off ch=1 n=a5 v=64
158770 On ch=1 n=a4 v=29
158776 Off ch=1 n=c6 v=64
158784 On ch=1 n=g4 v=22
158788 On ch=1 n=a#5 v=50
158810 Par ch=1 c=64 v=0
158948 On ch=1 n=c#5 v=33
159024 Off ch=1 n=a4 v=64
159040 Par ch=1 c=64 v=127
159042 On ch=1 n=e5 v=41
159146 On ch=1 n=a5 v=48
159149 Off ch=1 n=c#5 v=64
159158 Off ch=1 n=e5 v=64
159162 Off ch=1 n=g4 v=64
159232 On ch=1 n=a4 v=23
159248 On ch=1 n=d6 v=61
159250 On ch=1 n=f4 v=49
159252 Off ch=1 n=a5 v=64
159256 Par ch=1 c=64 v=0
159310 Off ch=1 n=a#5 v=64
159410 On ch=1 n=d5 v=43
159452 Off ch=1 n=a4 v=64
159486 Par ch=1 c=64 v=127
159502 On ch=1 n=f5 v=49
159538 Off ch=1 n=d5 v=64
159576 Off ch=1 n=f4 v=64
159590 Off ch=1 n=f5 v=64
159590 On ch=1 n=a5 v=48
159598 Off ch=1 n=d6 v=64
159670 On ch=1 n=c6 v=49
159682 Off ch=1 n=a5 v=64
159692 On ch=1 n=a#5 v=66
159710 On ch=1 n=a4 v=37
159716 On ch=1 n=g4 v=38
159716 Par ch=1 c=64 v=0
159734 Off ch=1 n=c6 v=64
159836 On ch=1 n=c#5 v=41
159912 Off ch=1 n=a4 v=64
159932 Par ch=1 c=64 v=127
159974 On ch=1 n=e5 v=44
160038 Off ch=1 n=c#5 v=64
160046 Off ch=1 n=g4 v=64
160054 On ch=1 n=a5 v=49
160057 Off ch=1 n=e5 v=64
160122 Off ch=1 n=a#5 v=64
160158 Off ch=1 n=a5 v=64
160184 On ch=1 n=f4 v=42
160186 On ch=1 n=a4 v=28
160194 Par ch=1 c=64 v=0
160194 On ch=1 n=d6 v=54
160342 On ch=1 n=d5 v=39
160380 Off ch=1 n=a4 v=64
160408 Par ch=1 c=64 v=127
160426 Off ch=1 n=f4 v=64
160458 Off ch=1 n=d6 v=64
160482 On ch=1 n=f5 v=45
160558 Off ch=1 n=d5 v=64
160570 Off ch=1 n=f5 v=64
160590 On ch=1 n=d6 v=45
160698 On ch=1 n=e4 v=42
160704 On ch=1 n=a4 v=29
160716 Par ch=1 c=64 v=0
160730 On ch=1 n=e6 v=63
160760 Off ch=1 n=d6 v=64
160862 On ch=1 n=c#5 v=48
160900 Par ch=1 c=64 v=127
160926 Off ch=1 n=a4 v=64
160972 Off ch=1 n=e6 v=64
160982 On ch=1 n=g5 v=43
161012 Off ch=1 n=e4 v=64
161020 Off ch=1 n=c#5 v=64
161054 Off ch=1 n=g5 v=64
161066 On ch=1 n=e6 v=54
161176 Par ch=1 c=64 v=0
161188 On ch=1 n=f6 v=79
161193 On ch=1 n=d4 v=36
161196 On ch=1 n=a4 v=31
161200 Off ch=1 n=e6 v=64
161346 On ch=1 n=d5 v=38
161348 Off ch=1 n=d4 v=64
161360 Par ch=1 c=64 v=127
161390 Off ch=1 n=a4 v=64
161428 Off ch=1 n=d5 v=64
161466 On ch=1 n=f5 v=50
161480 Off ch=1 n=f6 v=64
161522 Off ch=1 n=f5 v=64
161578 On ch=1 n=f6 v=55
161684 Par ch=1 c=64 v=0
161694 On ch=1 n=a4 v=31
161694 On ch=1 n=c4 v=21
161742 On ch=1 n=f#6 v=72
161756 Off ch=1 n=f6 v=64
161884 Par ch=1 c=64 v=127
161900 Off ch=1 n=c4 v=64
161914 On ch=1 n=d5 v=10
161938 Off ch=1 n=a4 v=64
162004 Off ch=1 n=d5 v=64
162016 On ch=1 n=f#5 v=28
162034 Off ch=1 n=f#6 v=64
162114 On ch=1 n=f#6 v=45
162116 Off ch=1 n=f#5 v=64
162308 On ch=1 n=b3 v=25
162314 Par ch=1 c=64 v=0
162324 On ch=1 n=g4 v=23
162334 Off ch=1 n=f#6 v=64
162336 On ch=1 n=g6 v=59
162466 Off ch=1 n=b3 v=64
162482 Par ch=1 c=64 v=127
162524 Off ch=1 n=g4 v=64
162526 Off ch=1 n=g6 v=64
162564 On ch=1 n=d5 v=43
162648 Off ch=1 n=d5 v=64
162766 On ch=1 n=f5 v=32
162846 Off ch=1 n=f5 v=64
162908 On ch=1 n=g5 v=34
162974 On ch=1 n=b5 v=37
163028 On ch=1 n=a5 v=48
163031 On ch=1 n=d4 v=31
163040 Off ch=1 n=g5 v=64
163050 Off ch=1 n=b5 v=64
163054 On ch=1 n=g4 v=16
163098 Par ch=1 c=64 v=0
163216 On ch=1 n=b4 v=42
163260 Off ch=1 n=g4 v=64
163266 Par ch=1 c=64 v=127
163280 On ch=1 n=f5 v=34
163310 Off ch=1 n=d4 v=64
163358 Off ch=1 n=f5 v=64
163361 Off ch=1 n=b4 v=64
163398 On ch=1 n=g5 v=63
163492 Off ch=1 n=a5 v=64
163504 Off ch=1 n=g5 v=64
163518 On ch=1 n=c4 v=31
163518 On ch=1 n=c6 v=65
163528 Par ch=1 c=64 v=0
163540 On ch=1 n=g4 v=38
163660 On ch=1 n=c5 v=36
163662 Off ch=1 n=g4 v=64
163666 Par ch=1 c=64 v=127
163678 Off ch=1 n=c4 v=64
163718 Off ch=1 n=c5 v=64
163762 On ch=1 n=e5 v=55
163786 Off ch=1 n=c6 v=64
163868 Off ch=1 n=e5 v=64
163868 On ch=1 n=c6 v=46
163988 Par ch=1 c=64 v=0
164000 On ch=1 n=e3 v=52
164020 On ch=1 n=c4 v=34
164024 On ch=1 n=g5 v=60
164040 Off ch=1 n=c6 v=64
164086 Off ch=1 n=e3 v=64
164142 Par ch=1 c=64 v=127
164182 On ch=1 n=g4 v=45
164242 Off ch=1 n=g4 v=64
164276 Off ch=1 n=g5 v=64
164304 On ch=1 n=c5 v=46
164392 On ch=1 n=g5 v=55
164416 Off ch=1 n=c5 v=64
164496 Par ch=1 c=64 v=0
164522 On ch=1 n=f3 v=58
164536 On ch=1 n=a5 v=55
164558 Off ch=1 n=g5 v=64
164668 Off ch=1 n=f3 v=64
164680 On ch=1 n=a4 v=48
164696 Par ch=1 c=64 v=127
164734 Off ch=1 n=a4 v=64
164760 Off ch=1 n=a5 v=64
164770 Off ch=1 n=c4 v=64
164802 On ch=1 n=c5 v=42
164890 Off ch=1 n=c5 v=64
164898 On ch=1 n=a5 v=36
164998 On ch=1 n=d3 v=52
165000 Par ch=1 c=64 v=0
165012 On ch=1 n=f5 v=63
165048 Off ch=1 n=a5 v=64
165074 Off ch=1 n=d3 v=64
165140 Par ch=1 c=64 v=127
165154 On ch=1 n=f4 v=69
165252 On ch=1 n=c5 v=47
165260 Off ch=1 n=f5 v=64
165280 Off ch=1 n=f4 v=64
165336 On ch=1 n=f5 v=58
165360 Off ch=1 n=c5 v=64
165484 On ch=1 n=d5 v=73
165494 Par ch=1 c=64 v=0
165496 On ch=1 n=g3 v=41
165500 On ch=1 n=c4 v=36
165512 Off ch=1 n=f5 v=64
165656 Off ch=1 n=g3 v=64
165662 Par ch=1 c=64 v=127
165676 On ch=1 n=f4 v=59
165694 Off ch=1 n=c4 v=64
165730 Off ch=1 n=d5 v=64
165730 Off ch=1 n=f4 v=64
165748 On ch=1 n=c5 v=53
165854 Off ch=1 n=c5 v=64
165858 On ch=1 n=d5 v=57
165966 On ch=1 n=b3 v=45
165970 Par ch=1 c=64 v=0
165986 On ch=1 n=g5 v=59
165988 On ch=1 n=g3 v=32
166014 Off ch=1 n=d5 v=64
166048 Off ch=1 n=b3 v=64
166120 On ch=1 n=f4 v=57
166124 Par ch=1 c=64 v=127
166154 Off ch=1 n=g3 v=64
166172 Off ch=1 n=f4 v=64
166202 On ch=1 n=b4 v=44
166222 Off ch=1 n=g5 v=64
166284 Off ch=1 n=b4 v=64
166300 On ch=1 n=g5 v=55
166430 On ch=1 n=c3 v=35
166433 On ch=1 n=g3 v=29
166446 Par ch=1 c=64 v=0
166478 Off ch=1 n=g5 v=64
166484 On ch=1 n=e5 v=63
166552 Off ch=1 n=c3 v=64
166600 Par ch=1 c=64 v=127
166608 Off ch=1 n=g3 v=64
166672 On ch=1 n=e4 v=30
166730 Off ch=1 n=e4 v=64
166790 On ch=1 n=c5 v=42
166804 Off ch=1 n=e5 v=64
166864 Off ch=1 n=c5 v=64
166946 On ch=1 n=g5 v=73
167002 On ch=1 n=b5 v=68
167010 Off ch=1 n=g5 v=64
167058 On ch=1 n=a5 v=65
167064 On ch=1 n=d4 v=35
167086 On ch=1 n=g4 v=37
167124 Par ch=1 c=64 v=0
167146 Off ch=1 n=b5 v=64
167236 On ch=1 n=b4 v=51
167246 Off ch=1 n=g4 v=64
167276 Par ch=1 c=64 v=127
167298 Off ch=1 n=b4 v=64
167306 On ch=1 n=f5 v=42
167320 Off ch=1 n=d4 v=64
167400 Off ch=1 n=f5 v=64
167403 On ch=1 n=g5 v=74
167468 Off ch=1 n=a5 v=64
167500 On ch=1 n=c6 v=76
167502 On ch=1 n=c4 v=41
167508 On ch=1 n=g4 v=38
167508 Par ch=1 c=64 v=0
167524 Off ch=1 n=g5 v=64
167638 Off ch=1 n=g4 v=64
167642 Off ch=1 n=c4 v=64
167646 Par ch=1 c=64 v=127
167648 On ch=1 n=c5 v=41
167702 Off ch=1 n=c5 v=64
167724 On ch=1 n=e5 v=48
167734 Off ch=1 n=c6 v=64
167830 On ch=1 n=c6 v=30
167842 Off ch=1 n=e5 v=64
167938 Par ch=1 c=64 v=0
167946 On ch=1 n=e3 v=63
167954 On ch=1 n=c4 v=41
167970 On ch=1 n=g5 v=69
167996 Off ch=1 n=c6 v=64
168024 Off ch=1 n=e3 v=64
168090 Par ch=1 c=64 v=127
168136 On ch=1 n=g4 v=43
168208 Off ch=1 n=g4 v=64
168222 Off ch=1 n=g5 v=64
168222 On ch=1 n=c5 v=55
168324 On ch=1 n=g5 v=57
168356 Off ch=1 n=c5 v=64
168414 Par ch=1 c=64 v=0
168450 On ch=1 n=a5 v=55
168450 On ch=1 n=f3 v=53
168488 Off ch=1 n=g5 v=64
168524 Off ch=1 n=f3 v=64
168578 Off ch=1 n=c4 v=64
168582 Par ch=1 c=64 v=127
168600 On ch=1 n=a4 v=51
168640 Off ch=1 n=a5 v=64
168654 Off ch=1 n=a4 v=64
168712 On ch=1 n=c5 v=41
168794 Off ch=1 n=c5 v=64
168796 On ch=1 n=a5 v=54
168874 Par ch=1 c=64 v=0
168896 On ch=1 n=d3 v=49
168918 On ch=1 n=f5 v=66
168920 Off ch=1 n=a5 v=64
168960 Off ch=1 n=d3 v=64
169028 Par ch=1 c=64 v=127
169048 On ch=1 n=f4 v=65
169130 Off ch=1 n=f4 v=64
169152 Off ch=1 n=f5 v=64
169162 On ch=1 n=c5 v=54
169252 On ch=1 n=f5 v=44
169264 Off ch=1 n=c5 v=64
169366 Par ch=1 c=64 v=0
169390 On ch=1 n=c4 v=27
169402 On ch=1 n=d5 v=59
169406 On ch=1 n=g3 v=33
169416 Off ch=1 n=f5 v=64
169520 Off ch=1 n=g3 v=64
169570 On ch=1 n=f4 v=48
169582 Par ch=1 c=64 v=127
169588 Off ch=1 n=c4 v=64
169630 Off ch=1 n=f4 v=64
169632 Off ch=1 n=d5 v=64
169656 On ch=1 n=c5 v=42
169744 Off ch=1 n=c5 v=64
169778 On ch=1 n=d5 v=38
169870 Off ch=1 n=d5 v=64
169888 Par ch=1 c=64 v=0
169922 On ch=1 n=b3 v=20
169932 On ch=1 n=g3 v=11
169935 On ch=1 n=g5 v=37
170100 Off ch=1 n=b3 v=64
170102 On ch=1 n=f4 v=59
170104 Par ch=1 c=64 v=127
170156 Off ch=1 n=g3 v=64
170156 Off ch=1 n=f4 v=64
170168 Off ch=1 n=g5 v=64
170234 On ch=1 n=b4 v=29
170322 Off ch=1 n=b4 v=64
170410 On ch=1 n=g5 v=38
170452 On ch=1 n=c3 v=24
170534 On ch=1 n=g3 v=25
170596 Par ch=1 c=64 v=0
170800 On ch=1 n=c5 v=39
170812 On ch=1 n=e4 v=27
171072 Off ch=1 n=c3 v=64
171072 Par ch=1 c=64 v=127
171136 Off ch=1 n=g3 v=64
171178 Off ch=1 n=e4 v=64
171190 Off ch=1 n=c5 v=64
171258 Off ch=1 n=g5 v=64
171594 Par ch=1 c=64 v=0
171680 On ch=1 n=b5 v=62
171822 On ch=1 n=d6 v=57
171870 Par ch=1 c=64 v=127
171894 On ch=1 n=c6 v=67
171912 On ch=1 n=b4 v=23
171915 Off ch=1 n=b5 v=64
171934 On ch=1 n=e4 v=32
171960 Off ch=1 n=d6 v=64
172040 Par ch=1 c=64 v=0
172130 On ch=1 n=e5 v=40
172178 Par ch=1 c=64 v=127
172200 Off ch=1 n=e4 v=64
172204 On ch=1 n=g5 v=48
172216 Off ch=1 n=e5 v=64
172234 Off ch=1 n=b4 v=64
172304 On ch=1 n=b5 v=87
172360 Off ch=1 n=g5 v=64
172428 On ch=1 n=d#4 v=34
172438 On ch=1 n=f#6 v=78
172452 On ch=1 n=b4 v=26
172486 Par ch=1 c=64 v=0
172494 Off ch=1 n=b5 v=64
172580 Off ch=1 n=c6 v=64
172604 On ch=1 n=f#5 v=40
172684 Par ch=1 c=64 v=127
172722 Off ch=1 n=b4 v=64
172752 Off ch=1 n=f#5 v=64
172754 On ch=1 n=a5 v=50
172826 Off ch=1 n=f#6 v=64
172858 Off ch=1 n=d#4 v=64
172932 On ch=1 n=b5 v=76
172970 Off ch=1 n=a5 v=64
173044 On ch=1 n=d6 v=68
173058 On ch=1 n=e4 v=35
173076 On ch=1 n=b4 v=21
173079 On ch=1 n=c6 v=75
173094 Off ch=1 n=b5 v=64
173102 Off ch=1 n=d6 v=64
173114 Par ch=1 c=64 v=0
173296 Off ch=1 n=e4 v=64
173296 On ch=1 n=e5 v=46
173314 Par ch=1 c=64 v=127
173360 On ch=1 n=g5 v=55
173380 Off ch=1 n=e5 v=64
173384 Off ch=1 n=b4 v=64
173480 On ch=1 n=b5 v=76
173514 Off ch=1 n=g5 v=64
173604 On ch=1 n=e6 v=62
173610 On ch=1 n=d4 v=48
173612 Off ch=1 n=b5 v=64
173618 Off ch=1 n=c6 v=64
173648 On ch=1 n=g4 v=52
173654 Par ch=1 c=64 v=0
173804 On ch=1 n=b4 v=40
173822 Par ch=1 c=64 v=127
173846 Off ch=1 n=g4 v=64
173870 Off ch=1 n=e6 v=64
173886 On ch=1 n=e5 v=60
173910 Off ch=1 n=d4 v=64
173960 Off ch=1 n=b4 v=64
173980 On ch=1 n=g5 v=63
174006 Off ch=1 n=e5 v=64
174048 On ch=1 n=b5 v=83
174090 On ch=1 n=a5 v=73
174098 On ch=1 n=g4 v=44
174106 Off ch=1 n=g5 v=64
174116 On ch=1 n=c#4 v=41
174144 Par ch=1 c=64 v=0
174156 Off ch=1 n=b5 v=64
174218 Off ch=1 n=g4 v=64
174258 On ch=1 n=a4 v=54
174344 Par ch=1 c=64 v=127
174366 On ch=1 n=e5 v=53
174446 Off ch=1 n=a4 v=64
174456 Off ch=1 n=c#4 v=64
174478 On ch=1 n=g5 v=78
174510 Off ch=1 n=e5 v=64
174526 Off ch=1 n=a5 v=64
174586 On ch=1 n=d4 v=41
174604 On ch=1 n=g4 v=41
174654 On ch=1 n=b5 v=84
174666 Par ch=1 c=64 v=0
174678 Off ch=1 n=g5 v=64
174836 On ch=1 n=c5 v=36
174906 Off ch=1 n=d4 v=64
174912 Par ch=1 c=64 v=127
174962 Off ch=1 n=b5 v=64
174966 Off ch=1 n=g4 v=64
174978 On ch=1 n=d5 v=56
175024 Off ch=1 n=c5 v=64
175048 Off ch=1 n=d5 v=64
175128 On ch=1 n=b5 v=76
175228 On ch=1 n=f#4 v=46
175248 On ch=1 n=d4 v=36
175266 Par ch=1 c=64 v=0
175292 On ch=1 n=a5 v=72
175330 Off ch=1 n=b5 v=64
175434 On ch=1 n=c5 v=43
175482 Par ch=1 c=64 v=127
175514 Off ch=1 n=f#4 v=64
175514 Off ch=1 n=d4 v=64
175526 Off ch=1 n=c5 v=64
175560 On ch=1 n=d5 v=45
175572 Off ch=1 n=a5 v=64
175630 Off ch=1 n=d5 v=64
175662 On ch=1 n=a5 v=34
175778 On ch=1 n=g3 v=34
175788 Par ch=1 c=64 v=0
175806 On ch=1 n=d4 v=39
175900 On ch=1 n=g5 v=58
175968 Off ch=1 n=a5 v=64
176046 Off ch=1 n=g3 v=64
176080 Par ch=1 c=64 v=127
176104 Off ch=1 n=d4 v=64
176160 On ch=1 n=b4 v=34
176294 Off ch=1 n=b4 v=64
176318 On ch=1 n=d5 v=44
176366 Off ch=1 n=g5 v=64
176374 Off ch=1 n=d5 v=64
176528 On ch=1 n=b5 v=74
176678 On ch=1 n=d6 v=75
176688 On ch=1 n=b4 v=25
176702 On ch=1 n=e4 v=31
176710 On ch=1 n=c6 v=79
176712 Par ch=1 c=64 v=0
176726 Off ch=1 n=b5 v=64
176782 Off ch=1 n=d6 v=64
176888 Off ch=1 n=e4 v=64
176888 On ch=1 n=e5 v=43
176926 Par ch=1 c=64 v=127
176962 Off ch=1 n=b4 v=64
176978 On ch=1 n=g5 v=58
177030 Off ch=1 n=e5 v=64
177084 On ch=1 n=b5 v=86
177104 Off ch=1 n=c6 v=64
177118 Off ch=1 n=g5 v=64
177186 On ch=1 n=d#4 v=36
177218 Par ch=1 c=64 v=0
177218 On ch=1 n=f#6 v=64
177228 On ch=1 n=b4 v=31
177254 Off ch=1 n=b5 v=64
177386 On ch=1 n=f#5 v=30
177464 Par ch=1 c=64 v=127
177494 Off ch=1 n=f#5 v=64
177500 Off ch=1 n=b4 v=64
177514 On ch=1 n=a5 v=37
177572 Off ch=1 n=f#6 v=64
177600 Off ch=1 n=d#4 v=64
177608 Off ch=1 n=a5 v=64
177612 On ch=1 n=b5 v=54
177680 Off ch=1 n=b5 v=64
177694 On ch=1 n=d6 v=57
177740 Par ch=1 c=64 v=0
177742 On ch=1 n=c6 v=52
177762 On ch=1 n=e4 v=29
177768 Off ch=1 n=d6 v=64
177784 On ch=1 n=b4 v=24
177962 On ch=1 n=e5 v=36
177986 Par ch=1 c=64 v=127
178000 Off ch=1 n=e4 v=64
178022 Off ch=1 n=b4 v=64
178050 On ch=1 n=g5 v=37
178054 Off ch=1 n=e5 v=64
178134 Off ch=1 n=g5 v=64
178196 On ch=1 n=b5 v=41
178214 Off ch=1 n=c6 v=64
178292 Off ch=1 n=b5 v=64
178340 Par ch=1 c=64 v=0
178350 On ch=1 n=e6 v=35
178354 On ch=1 n=d4 v=29
178358 On ch=1 n=g4 v=14
178576 Off ch=1 n=g4 v=64
178614 On ch=1 n=b4 v=15
178614 Par ch=1 c=64 v=127
178654 Off ch=1 n=e6 v=64
178702 Off ch=1 n=d4 v=64
178708 Off ch=1 n=b4 v=64
178718 On ch=1 n=e5 v=30
178808 Off ch=1 n=e5 v=64
178834 On ch=1 n=g5 v=28
178924 On ch=1 n=b5 v=30
178954 On ch=1 n=g4 v=26
178958 Off ch=1 n=g5 v=64
178958 On ch=1 n=c#4 v=20
178978 On ch=1 n=a5 v=33
178984 Par ch=1 c=64 v=0
179058 Off ch=1 n=b5 v=64
179144 On ch=1 n=a4 v=31
179158 Off ch=1 n=g4 v=64
179214 Par ch=1 c=64 v=127
179230 Off ch=1 n=a4 v=64
179236 On ch=1 n=e5 v=36
179284 Off ch=1 n=c#4 v=64
179356 Off ch=1 n=a5 v=64
179366 On ch=1 n=g5 v=44
179392 Off ch=1 n=e5 v=64
179456 Off ch=1 n=g5 v=64
179476 Par ch=1 c=64 v=0
179490 On ch=1 n=g4 v=27
179498 On ch=1 n=d4 v=27
179528 On ch=1 n=b5 v=41
179690 Par ch=1 c=64 v=127
179710 On ch=1 n=c5 v=28
179718 Off ch=1 n=d4 v=64
179762 Off ch=1 n=g4 v=64
179762 Off ch=1 n=b5 v=64
179836 Off ch=1 n=c5 v=64
179862 On ch=1 n=d5 v=27
179952 Off ch=1 n=d5 v=64
179998 On ch=1 n=b5 v=42
180122 Par ch=1 c=64 v=0
180122 On ch=1 n=f#4 v=31
180134 On ch=1 n=d4 v=19
180176 On ch=1 n=a5 v=31
180198 Off ch=1 n=b5 v=64
180356 Off ch=1 n=f#4 v=64
180364 Off ch=1 n=d4 v=64
180368 Par ch=1 c=64 v=127
180370 On ch=1 n=c5 v=21
180442 Off ch=1 n=c5 v=64
180448 Off ch=1 n=a5 v=64
180484 On ch=1 n=d5 v=28
180578 Off ch=1 n=d5 v=64
180664 On ch=1 n=a5 v=25
180828 Par ch=1 c=64 v=0
180860 On ch=1 n=g3 v=19
180878 On ch=1 n=d4 v=25
180890 Off ch=1 n=a5 v=64
180908 On ch=1 n=g5 v=26
181070 Off ch=1 n=g3 v=64
181090 Par ch=1 c=64 v=127
181286 On ch=1 n=b4 v=18
181320 Off ch=1 n=d4 v=64
181464 Off ch=1 n=b4 v=64
181592 Off ch=1 n=g5 v=64
181620 On ch=1 n=d5 v=15
181904 Off ch=1 n=d5 v=64
181914 On ch=1 n=g5 v=32
182090 On ch=1 n=b5 v=35
182142 On ch=1 n=d4 v=22
182150 On ch=1 n=a5 v=43
182150 On ch=1 n=g4 v=17
182196 Par ch=1 c=64 v=0
182210 Off ch=1 n=g5 v=64
182260 Off ch=1 n=b5 v=64
182350 On ch=1 n=b4 v=30
182426 Par ch=1 c=64 v=127
182442 On ch=1 n=f5 v=38
182450 Off ch=1 n=g4 v=64
182474 Off ch=1 n=d4 v=64
182582 On ch=1 n=g5 v=44
182593 Off ch=1 n=f5 v=64
182630 Off ch=1 n=b4 v=64
182708 Off ch=1 n=g5 v=64
182718 On ch=1 n=c6 v=45
182732 On ch=1 n=c4 v=27
182742 Off ch=1 n=a5 v=64
182745 On ch=1 n=g4 v=15
182764 Par ch=1 c=64 v=0
182908 On ch=1 n=c5 v=38
182964 Par ch=1 c=64 v=127
182976 Off ch=1 n=c4 v=64
182979 Off ch=1 n=g4 v=64
183004 Off ch=1 n=c5 v=64
183024 On ch=1 n=e5 v=32
183030 Off ch=1 n=c6 v=64
183110 Off ch=1 n=e5 v=64
183132 On ch=1 n=g5 v=42
183202 On ch=1 n=b5 v=56
183230 Off ch=1 n=g5 v=64
183238 On ch=1 n=a5 v=52
183240 Par ch=1 c=64 v=0
183248 On ch=1 n=d4 v=31
183260 Off ch=1 n=b5 v=64
183272 On ch=1 n=g4 v=18
183430 On ch=1 n=b4 v=40
183474 Off ch=1 n=g4 v=64
183486 Par ch=1 c=64 v=127
183518 On ch=1 n=f5 v=40
183532 Off ch=1 n=b4 v=64
183556 Off ch=1 n=d4 v=64
183606 Off ch=1 n=f5 v=64
183636 On ch=1 n=g5 v=55
183690 Off ch=1 n=a5 v=64
183732 Off ch=1 n=g5 v=64
183744 On ch=1 n=c6 v=51
183762 Par ch=1 c=64 v=0
183766 On ch=1 n=c4 v=31
183770 On ch=1 n=g4 v=33
183916 Off ch=1 n=g4 v=64
183919 On ch=1 n=c5 v=44
183924 Off ch=1 n=c4 v=64
183932 Par ch=1 c=64 v=127
183984 Off ch=1 n=c6 v=64
184000 Off ch=1 n=c5 v=64
184022 On ch=1 n=e5 v=48
184072 Off ch=1 n=e5 v=64
184116 On ch=1 n=c6 v=50
184221 On ch=1 n=g4 v=42
184225 Par ch=1 c=64 v=0
184225 On ch=1 n=a4 v=39
184234 On ch=1 n=c#6 v=62
184236 Off ch=1 n=c6 v=64
184348 On ch=1 n=c#5 v=52
184400 Off ch=1 n=a4 v=64
184438 Par ch=1 c=64 v=127
184472 Off ch=1 n=c#6 v=64
184488 On ch=1 n=e5 v=59
184514 Off ch=1 n=c#5 v=64
184558 Off ch=1 n=e5 v=64
184586 On ch=1 n=c#6 v=61
184626 Off ch=1 n=g4 v=64
184708 On ch=1 n=f4 v=81
184714 On ch=1 n=a4 v=32
184732 On ch=1 n=d6 v=84
184746 Par ch=1 c=64 v=0
184768 Off ch=1 n=c#6 v=64
184788 Off ch=1 n=a4 v=64
184854 On ch=1 n=d5 v=48
184962 Par ch=1 c=64 v=127
184988 Off ch=1 n=d6 v=64
184994 On ch=1 n=f5 v=62
185006 Off ch=1 n=d5 v=64
185082 On ch=1 n=d6 v=59
185100 Off ch=1 n=f5 v=64
185214 On ch=1 n=e4 v=66
185232 On ch=1 n=e6 v=70
185235 Off ch=1 n=f4 v=64
185238 On ch=1 n=a4 v=31
185268 Par ch=1 c=64 v=0
185273 Off ch=1 n=d6 v=64
185382 On ch=1 n=c#5 v=43
185400 Off ch=1 n=a4 v=64
185484 Par ch=1 c=64 v=127
185518 Off ch=1 n=e6 v=64
185520 On ch=1 n=g5 v=42
185544 Off ch=1 n=c#5 v=64
185592 Off ch=1 n=g5 v=64
185632 On ch=1 n=e6 v=47
185734 On ch=1 n=d4 v=49
185756 Off ch=1 n=e4 v=64
185761 Off ch=1 n=e6 v=64
185776 Par ch=1 c=64 v=0
185776 On ch=1 n=f6 v=54
185828 On ch=1 n=a4 v=2
185978 On ch=1 n=d5 v=33
186034 Off ch=1 n=f6 v=64
186034 Off ch=1 n=a4 v=64
186068 Par ch=1 c=64 v=127
186130 On ch=1 n=f5 v=30
186133 Off ch=1 n=d4 v=64
186138 Off ch=1 n=d5 v=64
186254 On ch=1 n=a5 v=33
186280 Off ch=1 n=f5 v=64
186314 On ch=1 n=c6 v=50
186338 Off ch=1 n=a5 v=64
186384 Off ch=1 n=c6 v=64
186390 On ch=1 n=a#5 v=59
186394 On ch=1 n=g4 v=25
186406 Par ch=1 c=64 v=0
186414 On ch=1 n=a4 v=11
186548 On ch=1 n=c#5 v=28
186584 Off ch=1 n=a4 v=64
186646 On ch=1 n=e5 v=47
186666 Par ch=1 c=64 v=127
186726 Off ch=1 n=e5 v=64
186748 On ch=1 n=a5 v=56
186758 Off ch=1 n=c#5 v=64
186826 Off ch=1 n=g4 v=64
186862 Off ch=1 n=a#5 v=64
186865 On ch=1 n=d6 v=79
186900 Off ch=1 n=a5 v=64
186912 On ch=1 n=f4 v=44
186912 On ch=1 n=a4 v=8
186912 Par ch=1 c=64 v=0
187024 On ch=1 n=d5 v=47
187058 Off ch=1 n=f4 v=64
187102 Off ch=1 n=a4 v=64
187112 Par ch=1 c=64 v=127
187142 Off ch=1 n=d5 v=64
187166 On ch=1 n=f5 v=47
187176 Off ch=1 n=d6 v=64
187238 On ch=1 n=a5 v=56
187240 Off ch=1 n=f5 v=64
187302 On ch=1 n=c6 v=61
187308 Off ch=1 n=a5 v=64
187328 Par ch=1 c=64 v=0
187331 On ch=1 n=a#5 v=77
187331 On ch=1 n=g4 v=42
187344 On ch=1 n=a4 v=30
187382 Off ch=1 n=c6 v=64
187462 On ch=1 n=c#5 v=47
187542 Off ch=1 n=a4 v=64
187558 Par ch=1 c=64 v=127
187596 On ch=1 n=e5 v=53
187664 Off ch=1 n=e5 v=64
187680 Off ch=1 n=c#5 v=64
187702 On ch=1 n=a5 v=56
187722 Off ch=1 n=g4 v=64
187738 Off ch=1 n=a#5 v=64
187820 On ch=1 n=a4 v=23
187820 Par ch=1 c=64 v=0
187820 On ch=1 n=f4 v=37
187823 Off ch=1 n=a5 v=64
187844 On ch=1 n=d6 v=45
188004 On ch=1 n=d5 v=36
188046 Off ch=1 n=a4 v=64
188066 Par ch=1 c=64 v=127
188069 Off ch=1 n=f4 v=64
188108 Off ch=1 n=d6 v=64
188140 On ch=1 n=f5 v=41
188152 Off ch=1 n=d5 v=64
188196 Off ch=1 n=f5 v=64
188224 On ch=1 n=d6 v=42
188310 On ch=1 n=e4 v=38
188322 On ch=1 n=a4 v=29
188346 On ch=1 n=e6 v=71
188372 Par ch=1 c=64 v=0
188380 Off ch=1 n=d6 v=64
188466 On ch=1 n=c#5 v=44
188526 Off ch=1 n=a4 v=64
188556 Par ch=1 c=64 v=127
188604 On ch=1 n=g5 v=66
188606 Off ch=1 n=e6 v=64
188644 Off ch=1 n=c#5 v=64
188668 Off ch=1 n=g5 v=64
188696 On ch=1 n=e6 v=65
188736 Off ch=1 n=e4 v=64
188814 On ch=1 n=d4 v=47
188816 On ch=1 n=a4 v=44
188818 On ch=1 n=f6 v=88
188834 Par ch=1 c=64 v=0
188850 Off ch=1 n=e6 v=64
188960 On ch=1 n=d5 v=58
189000 Off ch=1 n=d4 v=64
189018 Par ch=1 c=64 v=127
189021 Off ch=1 n=a4 v=64
189068 On ch=1 n=f5 v=68
189086 Off ch=1 n=f6 v=64
189098 Off ch=1 n=d5 v=64
189121 Off ch=1 n=f5 v=64
189192 On ch=1 n=f6 v=71
189302 On ch=1 n=a4 v=40
189310 Par ch=1 c=64 v=0
189316 On ch=1 n=c4 v=37
189336 On ch=1 n=f#6 v=83
189360 Off ch=1 n=f6 v=64
189458 Off ch=1 n=c4 v=64
189494 Par ch=1 c=64 v=127
189494 On ch=1 n=d5 v=44
189544 Off ch=1 n=a4 v=64
189604 Off ch=1 n=f#6 v=64
189630 Off ch=1 n=d5 v=64
189648 On ch=1 n=f#5 v=45
189710 Off ch=1 n=f#5 v=64
189756 On ch=1 n=f#6 v=71
189888 On ch=1 n=g4 v=31
189908 On ch=1 n=b3 v=18
189908 Par ch=1 c=64 v=0
189938 Off ch=1 n=f#6 v=64
189984 On ch=1 n=g6 v=79
190110 Off ch=1 n=b3 v=64
190140 Par ch=1 c=64 v=127
190172 Off ch=1 n=g4 v=64
190190 Off ch=1 n=g6 v=64
190212 On ch=1 n=d5 v=39
190394 Off ch=1 n=d5 v=64
190397 On ch=1 n=f5 v=37
190466 Off ch=1 n=f5 v=64
190568 On ch=1 n=g5 v=58
190674 Off ch=1 n=g5 v=64
190764 On ch=1 n=d4 v=28
190768 On ch=1 n=b5 v=57
190782 On ch=1 n=g4 v=11
190790 On ch=1 n=a5 v=49
190840 Par ch=1 c=64 v=0
190886 Off ch=1 n=b5 v=64
190954 On ch=1 n=b4 v=31
191016 Par ch=1 c=64 v=127
191024 Off ch=1 n=g4 v=64
191030 Off ch=1 n=d4 v=64
191040 On ch=1 n=f5 v=54
191100 Off ch=1 n=f5 v=64
191114 Off ch=1 n=b4 v=64
191158 On ch=1 n=g5 v=60
191262 Par ch=1 c=64 v=0
191276 Off ch=1 n=a5 v=64
191276 On ch=1 n=g4 v=32
191279 On ch=1 n=c4 v=26
191279 On ch=1 n=c6 v=69
191312 Off ch=1 n=g5 v=64
191436 On ch=1 n=c5 v=44
191446 Par ch=1 c=64 v=127
191466 Off ch=1 n=c4 v=64
191486 Off ch=1 n=g4 v=64
191494 Off ch=1 n=c5 v=64
191540 Off ch=1 n=c6 v=64
191548 On ch=1 n=e5 v=59
191606 Off ch=1 n=e5 v=64
191650 On ch=1 n=c6 v=43
191738 Par ch=1 c=64 v=0
191748 On ch=1 n=e3 v=80
191768 On ch=1 n=c4 v=39
191786 Off ch=1 n=c6 v=64
191788 On ch=1 n=g5 v=64
191870 Off ch=1 n=e3 v=64
191906 Par ch=1 c=64 v=127
191942 On ch=1 n=g4 v=50
192002 Off ch=1 n=g4 v=64
192034 Off ch=1 n=g5 v=64
192046 On ch=1 n=c5 v=51
192134 On ch=1 n=g5 v=68
192144 Off ch=1 n=c5 v=64
192184 Par ch=1 c=64 v=0
192262 On ch=1 n=f3 v=56
192276 On ch=1 n=a5 v=71
192306 Off ch=1 n=g5 v=64
192360 Off ch=1 n=f3 v=64
192414 Par ch=1 c=64 v=127
192422 On ch=1 n=a4 v=50
192478 Off ch=1 n=a4 v=64
192516 Off ch=1 n=a5 v=64
192532 On ch=1 n=c5 v=52
192542 Off ch=1 n=c4 v=64
192608 Off ch=1 n=c5 v=64
192616 On ch=1 n=a5 v=38
192720 Par ch=1 c=64 v=0
192722 On ch=1 n=d3 v=47
192748 On ch=1 n=f5 v=70
192774 Off ch=1 n=a5 v=64
192782 Off ch=1 n=d3 v=64
192874 Par ch=1 c=64 v=127
192886 On ch=1 n=f4 v=66
192942 Off ch=1 n=f4 v=64
192976 Off ch=1 n=f5 v=64
193008 On ch=1 n=c5 v=52
193078 Off ch=1 n=c5 v=64
193094 On ch=1 n=f5 v=51
193196 Par ch=1 c=64 v=0
193200 On ch=1 n=g3 v=38
193228 On ch=1 n=c4 v=32
193234 On ch=1 n=d5 v=63
193248 Off ch=1 n=f5 v=64
193370 Off ch=1 n=g3 v=64
193382 Par ch=1 c=64 v=127
193392 On ch=1 n=f4 v=54
193454 Off ch=1 n=f4 v=64
193472 Off ch=1 n=d5 v=64
193488 On ch=1 n=c5 v=48
193568 Off ch=1 n=c5 v=64
193570 On ch=1 n=d5 v=51
193614 Off ch=1 n=c4 v=64
193690 Par ch=1 c=64 v=0
193702 On ch=1 n=g3 v=45
193705 Off ch=1 n=d5 v=64
193710 On ch=1 n=b3 v=45
193720 On ch=1 n=g5 v=63
193768 Off ch=1 n=b3 v=64
193888 Par ch=1 c=64 v=127
193900 On ch=1 n=f4 v=41
193956 Off ch=1 n=g3 v=64
193964 Off ch=1 n=f4 v=64
193992 Off ch=1 n=g5 v=64
194012 On ch=1 n=b4 v=44
194074 Off ch=1 n=b4 v=64
194142 On ch=1 n=g5 v=51
194212 Par ch=1 c=64 v=0
194230 On ch=1 n=c3 v=47
194250 On ch=1 n=g3 v=30
194282 Off ch=1 n=g5 v=64
194310 On ch=1 n=e5 v=52
194392 Off ch=1 n=c3 v=64
194414 Off ch=1 n=g3 v=64
194426 Par ch=1 c=64 v=127
194496 On ch=1 n=e4 v=38
194590 Off ch=1 n=e4 v=64
194644 Off ch=1 n=e5 v=64
194664 On ch=1 n=c5 v=39
194726 Off ch=1 n=c5 v=64
194800 On ch=1 n=g5 v=55
194850 On ch=1 n=b5 v=61
194860 Off ch=1 n=g5 v=64
194890 On ch=1 n=d4 v=48
194904 Par ch=1 c=64 v=0
194904 On ch=1 n=a5 v=51
194924 On ch=1 n=g4 v=36
194944 Off ch=1 n=b5 v=64
195064 On ch=1 n=b4 v=29
195102 Par ch=1 c=64 v=127
195114 Off ch=1 n=d4 v=64
195134 Off ch=1 n=b4 v=64
195140 On ch=1 n=f5 v=40
195216 Off ch=1 n=f5 v=64
195242 On ch=1 n=g5 v=55
195274 Off ch=1 n=a5 v=64
195330 On ch=1 n=c4 v=55
195334 Par ch=1 c=64 v=0
195356 On ch=1 n=c6 v=61
195454 Off ch=1 n=c4 v=64
195486 On ch=1 n=c5 v=37
195518 Par ch=1 c=64 v=127
195546 Off ch=1 n=c5 v=64
195566 Off ch=1 n=c6 v=64
195568 Off ch=1 n=g4 v=64
195592 Off ch=1 n=g5 v=64
195598 On ch=1 n=e5 v=42
195664 Off ch=1 n=e5 v=64
195714 On ch=1 n=c6 v=50
195778 Par ch=1 c=64 v=0
195820 Off ch=1 n=c6 v=64
195822 On ch=1 n=e3 v=77
195838 On ch=1 n=c4 v=38
195844 On ch=1 n=g5 v=53
195918 Off ch=1 n=e3 v=64
195962 Par ch=1 c=64 v=127
196018 On ch=1 n=g4 v=41
196078 Off ch=1 n=g4 v=64
196110 Off ch=1 n=g5 v=64
196112 On ch=1 n=c5 v=45
196196 Off ch=1 n=c5 v=64
196210 On ch=1 n=g5 v=48
196240 Par ch=1 c=64 v=0
196288 On ch=1 n=f3 v=66
196342 On ch=1 n=a5 v=50
196348 Off ch=1 n=g5 v=64
196408 Off ch=1 n=f3 v=64
196454 Par ch=1 c=64 v=127
196492 On ch=1 n=a4 v=22
196532 Off ch=1 n=a5 v=64
196558 Off ch=1 n=a4 v=64
196588 On ch=1 n=c5 v=39
196660 Off ch=1 n=c4 v=64
196670 Off ch=1 n=c5 v=64
196686 On ch=1 n=a5 v=32
196730 Par ch=1 c=64 v=0
196770 On ch=1 n=d3 v=56
196784 Off ch=1 n=a5 v=64
196810 On ch=1 n=f5 v=36
196878 Off ch=1 n=d3 v=64
196916 Par ch=1 c=64 v=127
196934 On ch=1 n=f4 v=74
196984 Off ch=1 n=f4 v=64
197042 Off ch=1 n=f5 v=64
197058 On ch=1 n=c5 v=39
197144 Off ch=1 n=c5 v=64
197162 On ch=1 n=f5 v=38
197244 On ch=1 n=g3 v=61
197254 Par ch=1 c=64 v=0
197314 On ch=1 n=c4 v=44
197316 On ch=1 n=d5 v=53
197330 Off ch=1 n=f5 v=64
197378 Off ch=1 n=c4 v=64
197500 Par ch=1 c=64 v=127
197522 Off ch=1 n=g3 v=64
197530 On ch=1 n=f4 v=32
197558 Off ch=1 n=d5 v=64
197576 On ch=1 n=c5 v=36
197588 Off ch=1 n=f4 v=64
197656 Off ch=1 n=c5 v=64
197734 On ch=1 n=d5 v=42
197810 Off ch=1 n=d5 v=64
197838 Par ch=1 c=64 v=0
197882 On ch=1 n=b3 v=14
197887 On ch=1 n=g3 v=32
197887 On ch=1 n=g5 v=33
197990 Off ch=1 n=b3 v=64
198060 On ch=1 n=f4 v=50
198082 Par ch=1 c=64 v=127
198092 Off ch=1 n=g3 v=64
198128 Off ch=1 n=f4 v=64
198160 Off ch=1 n=g5 v=64
198220 On ch=1 n=b4 v=20
198332 Off ch=1 n=b4 v=64
198456 On ch=1 n=g5 v=41
198586 On ch=1 n=c3 v=27
198652 Par ch=1 c=64 v=0
198698 On ch=1 n=g3 v=23
198888 On ch=1 n=c5 v=35
198905 On ch=1 n=e4 v=42
199296 Par ch=1 c=64 v=127
199336 Off ch=1 n=c3 v=64
199360 Off ch=1 n=e4 v=64
199396 Off ch=1 n=g5 v=64
199398 Off ch=1 n=g3 v=64
199440 Off ch=1 n=c5 v=64
200004 Par ch=1 c=64 v=0
200160 On ch=1 n=e4 v=94
200164 On ch=1 n=e5 v=98
200262 On ch=1 n=g5 v=98
200266 On ch=1 n=g4 v=95
200294 Off ch=1 n=e5 v=64
200300 Off ch=1 n=e4 v=64
200306 On ch=1 n=f5 v=96
200322 On ch=1 n=f4 v=101
200376 Off ch=1 n=g4 v=64
200414 Off ch=1 n=g5 v=64
200532 Off ch=1 n=f4 v=64
200542 Off ch=1 n=f5 v=64
200818 On ch=1 n=e5 v=101
200824 On ch=1 n=e4 v=97
200880 Off ch=1 n=e4 v=64
200936 On ch=1 n=g#5 v=96
200960 On ch=1 n=e4 v=92
200964 On ch=1 n=a3 v=71
200972 Par ch=1 c=64 v=127
201004 Off ch=1 n=e5 v=64
201356 Par ch=1 c=64 v=0
201426 On ch=1 n=a4 v=66
201502 On ch=1 n=a5 v=93
201518 On ch=1 n=c5 v=81
201550 Off ch=1 n=a3 v=64
201556 Par ch=1 c=64 v=127
201562 Off ch=1 n=a4 v=64
201594 Off ch=1 n=g#5 v=64
201596 Off ch=1 n=e4 v=64
201822 Off ch=1 n=c5 v=64
201910 On ch=1 n=e5 v=73
201972 Off ch=1 n=e5 v=64
202002 On ch=1 n=a#5 v=91
202028 On ch=1 n=g#3 v=61
202046 On ch=1 n=e4 v=69
202094 Off ch=1 n=a5 v=64
202216 Par ch=1 c=64 v=0
202432 Par ch=1 c=64 v=127
202444 On ch=1 n=b4 v=78
202496 On ch=1 n=b5 v=102
202524 On ch=1 n=d5 v=71
202570 Off ch=1 n=a#5 v=64
202580 Off ch=1 n=d5 v=64
202602 Par ch=1 c=64 v=0
202712 Off ch=1 n=b4 v=64
202730 Off ch=1 n=e4 v=64
202738 Par ch=1 c=64 v=127
202784 Off ch=1 n=g#3 v=64
202826 On ch=1 n=e5 v=64
202864 Off ch=1 n=b5 v=64
202868 Off ch=1 n=e5 v=64
202954 On ch=1 n=a3 v=43
202968 On ch=1 n=d6 v=81
202974 On ch=1 n=e4 v=63
203016 Par ch=1 c=64 v=0
203368 Par ch=1 c=64 v=127
203378 Off ch=1 n=a3 v=64
203440 Off ch=1 n=e4 v=64
203512 On ch=1 n=c5 v=34
203600 Off ch=1 n=c5 v=64
203634 On ch=1 n=c6 v=85
203644 On ch=1 n=e5 v=59
203856 Off ch=1 n=d6 v=64
204062 On ch=1 n=a5 v=52
204150 On ch=1 n=d4 v=66
204152 Par ch=1 c=64 v=0
204156 On ch=1 n=f4 v=83
204184 Off ch=1 n=a5 v=64
204276 Off ch=1 n=e5 v=64
204398 Par ch=1 c=64 v=127
204504 Off ch=1 n=d4 v=64
204510 On ch=1 n=b4 v=62
204540 Off ch=1 n=f4 v=64
204598 Off ch=1 n=b4 v=64
204606 On ch=1 n=b5 v=101
204628 On ch=1 n=d5 v=67
204690 Off ch=1 n=c6 v=64
204746 Off ch=1 n=d5 v=64
204970 On ch=1 n=f5 v=54
205074 Par ch=1 c=64 v=0
205090 On ch=1 n=e4 v=79
205092 Off ch=1 n=f5 v=64
205304 Par ch=1 c=64 v=127
205458 Off ch=1 n=e4 v=64
205480 On ch=1 n=a4 v=52
205546 Off ch=1 n=a4 v=64
205600 On ch=1 n=a5 v=71
205616 On ch=1 n=c5 v=50
205668 Off ch=1 n=b5 v=64
205996 Off ch=1 n=c5 v=64
206050 On ch=1 n=e5 v=34
206058 On ch=1 n=e3 v=66
206104 Par ch=1 c=64 v=0
206220 On ch=1 n=d4 v=30
206322 Off ch=1 n=e3 v=64
206366 Par ch=1 c=64 v=127
206432 Off ch=1 n=d4 v=64
206486 Off ch=1 n=e5 v=64
206598 On ch=1 n=g#4 v=13
206762 On ch=1 n=g#5 v=49
206766 Off ch=1 n=g#4 v=64
206774 On ch=1 n=b4 v=32
206894 Off ch=1 n=a5 v=64
207146 On ch=1 n=e5 v=24
207190 On ch=1 n=a3 v=29
207262 On ch=1 n=c4 v=36
207268 Off ch=1 n=b4 v=64
207286 Par ch=1 c=64 v=0
207702 Par ch=1 c=64 v=127
207742 On ch=1 n=a4 v=22
207816 Off ch=1 n=e5 v=64
207948 On ch=1 n=a5 v=23
207994 Par ch=1 c=64 v=0
208010 On ch=1 n=c5 v=19
208020 Off ch=1 n=g#5 v=64
208362 Par ch=1 c=64 v=127
208506 On ch=1 n=e5 v=13
208830 Off ch=1 n=a4 v=64
208882 Off ch=1 n=a3 v=64
208882 Off ch=1 n=e5 v=64
208908 Off ch=1 n=c5 v=64
208970 Off ch=1 n=c4 v=64
208998 Off ch=1 n=a5 v=64
209130 Par ch=1 c=64 v=0
209168 On ch=1 n=e4 v=89
209174 On ch=1 n=e5 v=71
209222 On ch=1 n=g5 v=82
209230 On ch=1 n=g4 v=75
209244 Off ch=1 n=e5 v=64
209256 On ch=1 n=f5 v=93
209268 Off ch=1 n=e4 v=64
209282 On ch=1 n=f4 v=106
209324 Off ch=1 n=g5 v=64
209334 Off ch=1 n=g4 v=64
209410 Off ch=1 n=f4 v=64
209422 Par ch=1 c=64 v=127
209506 Off ch=1 n=f5 v=64
209562 Par ch=1 c=64 v=0
209728 On ch=1 n=e5 v=89
209744 On ch=1 n=e4 v=84
209782 Off ch=1 n=e4 v=64
209792 Par ch=1 c=64 v=127
209824 On ch=1 n=g#5 v=90
209848 On ch=1 n=e4 v=85
209864 On ch=1 n=a3 v=53
209882 Off ch=1 n=e5 v=64
210022 Par ch=1 c=64 v=0
210252 Par ch=1 c=64 v=127
210290 Off ch=1 n=a3 v=64
210298 On ch=1 n=a4 v=70
210328 Off ch=1 n=e4 v=64
210368 Off ch=1 n=a4 v=64
210390 On ch=1 n=a5 v=92
210404 On ch=1 n=c5 v=69
210468 Off ch=1 n=g#5 v=64
210698 Par ch=1 c=64 v=0
210774 Par ch=1 c=64 v=127
210802 On ch=1 n=e5 v=78
210840 Off ch=1 n=c5 v=64
210866 On ch=1 n=g#3 v=62
210896 On ch=1 n=e4 v=73
210899 On ch=1 n=a#5 v=86
210920 Off ch=1 n=e5 v=64
210942 Par ch=1 c=64 v=0
210970 Off ch=1 n=a5 v=64
211174 Par ch=1 c=64 v=127
211192 Off ch=1 n=g#3 v=64
211274 On ch=1 n=b4 v=50
211306 Off ch=1 n=e4 v=64
211376 Off ch=1 n=b4 v=64
211384 On ch=1 n=b5 v=105
211396 On ch=1 n=d5 v=79
211458 Off ch=1 n=a#5 v=64
211540 Off ch=1 n=d5 v=64
211752 On ch=1 n=e5 v=66
211848 On ch=1 n=d6 v=101
211850 Par ch=1 c=64 v=0
211854 On ch=1 n=a3 v=41
211872 Off ch=1 n=e5 v=64
211872 On ch=1 n=e4 v=34
211912 Off ch=1 n=b5 v=64
212112 Off ch=1 n=a3 v=64
212126 Par ch=1 c=64 v=127
212150 Off ch=1 n=d6 v=64
212252 On ch=1 n=c5 v=33
212472 On ch=1 n=c6 v=90
212476 Off ch=1 n=e4 v=64
212490 On ch=1 n=e5 v=67
212504 Off ch=1 n=c5 v=64
212542 Off ch=1 n=e5 v=64
212874 On ch=1 n=a5 v=49
212986 Par ch=1 c=64 v=0
213006 On ch=1 n=d4 v=56
213010 On ch=1 n=f4 v=83
213076 Off ch=1 n=a5 v=64
213232 Par ch=1 c=64 v=127
213372 Off ch=1 n=d4 v=64
213378 Off ch=1 n=f4 v=64
213378 On ch=1 n=b4 v=61
213486 Off ch=1 n=b4 v=64
213494 On ch=1 n=b5 v=98
213512 On ch=1 n=d5 v=62
213568 Off ch=1 n=c6 v=64
213670 Off ch=1 n=d5 v=64
213852 On ch=1 n=f5 v=52
213984 Off ch=1 n=f5 v=64
213984 On ch=1 n=e4 v=65
213984 Par ch=1 c=64 v=0
214278 Par ch=1 c=64 v=127
214398 On ch=1 n=a4 v=45
214462 Off ch=1 n=e4 v=64
214518 Off ch=1 n=a4 v=64
214542 On ch=1 n=a5 v=61
214548 On ch=1 n=c5 v=48
214584 Off ch=1 n=b5 v=64
214854 Off ch=1 n=c5 v=64
214976 On ch=1 n=e5 v=43
214986 On ch=1 n=e3 v=75
215030 Par ch=1 c=64 v=0
215098 Off ch=1 n=e5 v=64
215116 On ch=1 n=d4 v=65
215278 Off ch=1 n=e3 v=64
215352 Par ch=1 c=64 v=127
215420 Off ch=1 n=d4 v=64
215532 On ch=1 n=g#4 v=43
215680 On ch=1 n=g#5 v=57
215692 On ch=1 n=b4 v=43
215802 Off ch=1 n=a5 v=64
215810 Off ch=1 n=g#4 v=64
216200 On ch=1 n=e5 v=33
216284 On ch=1 n=a3 v=16
216346 On ch=1 n=c4 v=34
216398 Off ch=1 n=b4 v=64
216490 Par ch=1 c=64 v=0
216736 Par ch=1 c=64 v=127
216786 On ch=1 n=a4 v=23
216850 Off ch=1 n=e5 v=64
216976 On ch=1 n=a5 v=30
217002 On ch=1 n=c5 v=32
217022 Off ch=1 n=g#5 v=64
217042 Par ch=1 c=64 v=0
217396 Par ch=1 c=64 v=127
217540 On ch=1 n=e5 v=24
217766 Par ch=1 c=64 v=0
217830 Off ch=1 n=e5 v=64
217934 Par ch=1 c=64 v=127
218292 Off ch=1 n=a4 v=64
218326 Off ch=1 n=c4 v=64
218332 Off ch=1 n=a5 v=64
218338 Off ch=1 n=a3 v=64
218372 Off ch=1 n=c5 v=64
218396 Par ch=1 c=64 v=0
218716 On ch=1 n=c4 v=67
218724 On ch=1 n=c5 v=82
218782 Off ch=1 n=c4 v=64
218782 On ch=1 n=e4 v=95
218785 On ch=1 n=e5 v=93
218806 On ch=1 n=d5 v=100
218824 On ch=1 n=d4 v=84
218840 Off ch=1 n=c5 v=64
218874 Off ch=1 n=e5 v=64
218896 Off ch=1 n=e4 v=64
218970 Off ch=1 n=d4 v=64
218996 Off ch=1 n=d5 v=64
219188 On ch=1 n=c5 v=84
219191 On ch=1 n=c4 v=80
219298 On ch=1 n=a4 v=80
219302 On ch=1 n=f5 v=89
219306 Off ch=1 n=c4 v=64
219310 On ch=1 n=f3 v=91
219356 Off ch=1 n=c5 v=64
219734 On ch=1 n=g3 v=78
219752 Off ch=1 n=f3 v=64
219842 On ch=1 n=a3 v=80
219886 Off ch=1 n=g3 v=64
220268 On ch=1 n=a#3 v=68
220271 Off ch=1 n=a4 v=64
220292 Off ch=1 n=a3 v=64
220388 On ch=1 n=c4 v=68
220394 On ch=1 n=e5 v=83
220398 Off ch=1 n=a#3 v=64
220401 On ch=1 n=g4 v=66
220401 On ch=1 n=d5 v=75
220454 Off ch=1 n=f5 v=64
220796 On ch=1 n=d4 v=83
220814 Off ch=1 n=c4 v=64
220900 Off ch=1 n=g4 v=64
220900 On ch=1 n=c5 v=75
220940 On ch=1 n=e4 v=87
220960 Off ch=1 n=d4 v=64
220968 Off ch=1 n=d5 v=64
221254 Par ch=1 c=64 v=127
221264 Off ch=1 n=c5 v=64
221272 Off ch=1 n=e4 v=64
221304 On ch=1 n=f4 v=97
221338 Off ch=1 n=f4 v=64
221436 On ch=1 n=d5 v=89
221439 On ch=1 n=c5 v=78
221464 On ch=1 n=g4 v=83
221464 On ch=1 n=g3 v=74
221510 Off ch=1 n=e5 v=64
221592 Par ch=1 c=64 v=0
221780 Off ch=1 n=g3 v=64
221800 On ch=1 n=a3 v=69
221908 On ch=1 n=a#4 v=72
221914 Off ch=1 n=g4 v=64
221916 On ch=1 n=g5 v=86
221918 On ch=1 n=a#3 v=70
221952 Off ch=1 n=a3 v=64
221992 Off ch=1 n=c5 v=64
222288 Off ch=1 n=a#3 v=64
222293 On ch=1 n=c4 v=61
222314 Par ch=1 c=64 v=127
222380 Off ch=1 n=a#4 v=64
222404 On ch=1 n=a4 v=75
222410 Off ch=1 n=c4 v=64
222424 On ch=1 n=d4 v=65
222482 Par ch=1 c=64 v=0
222772 On ch=1 n=e4 v=89
222774 Par ch=1 c=64 v=127
222776 Off ch=1 n=d4 v=64
222892 On ch=1 n=f5 v=82
222898 On ch=1 n=f4 v=101
222928 Off ch=1 n=e4 v=64
222928 Par ch=1 c=64 v=0
222964 Off ch=1 n=g5 v=64
223142 Off ch=1 n=d5 v=64
223152 Off ch=1 n=a4 v=64
223164 Off ch=1 n=f4 v=64
223190 Par ch=1 c=64 v=127
223250 On ch=1 n=g4 v=73
223292 Off ch=1 n=g4 v=64
223378 On ch=1 n=e5 v=97
223378 On ch=1 n=d5 v=88
223381 On ch=1 n=a4 v=83
223390 On ch=1 n=a3 v=81
223432 Off ch=1 n=f5 v=64
223435 Par ch=1 c=64 v=0
223742 Par ch=1 c=64 v=127
223754 On ch=1 n=b3 v=86
223798 Off ch=1 n=a4 v=64
223800 Off ch=1 n=a3 v=64
223858 On ch=1 n=a5 v=79
223858 On ch=1 n=c5 v=78
223866 On ch=1 n=c4 v=85
223916 Off ch=1 n=d5 v=64
223916 Off ch=1 n=b3 v=64
223972 Par ch=1 c=64 v=0
224204 Par ch=1 c=64 v=127
224230 On ch=1 n=d4 v=78
224242 Off ch=1 n=c5 v=64
224246 Off ch=1 n=c4 v=64
224338 On ch=1 n=b4 v=84
224346 Off ch=1 n=d4 v=64
224346 On ch=1 n=e4 v=87
224418 Par ch=1 c=64 v=0
224664 Par ch=1 c=64 v=127
224666 Off ch=1 n=e5 v=64
224712 Off ch=1 n=e4 v=64
224718 On ch=1 n=f#4 v=81
224825 On ch=1 n=e5 v=83
224825 On ch=1 n=g5 v=85
224828 On ch=1 n=g4 v=90
224870 Off ch=1 n=f#4 v=64
224904 Off ch=1 n=a5 v=64
224926 Par ch=1 c=64 v=0
225100 Off ch=1 n=e5 v=64
225140 Par ch=1 c=64 v=127
225146 Off ch=1 n=b4 v=64
225164 Off ch=1 n=g4 v=64
225192 On ch=1 n=e4 v=85
225264 Par ch=1 c=64 v=0
225266 Off ch=1 n=e4 v=64
225292 On ch=1 n=f#5 v=83
225298 On ch=1 n=c5 v=86
225302 On ch=1 n=a4 v=91
225308 On ch=1 n=e5 v=81
225346 Off ch=1 n=g5 v=64
225506 Off ch=1 n=a4 v=64
225510 Par ch=1 c=64 v=127
225536 Off ch=1 n=e5 v=64
225562 Off ch=1 n=c5 v=64
225658 On ch=1 n=a3 v=65
225702 Off ch=1 n=a3 v=64
225710 Par ch=1 c=64 v=0
225758 On ch=1 n=b3 v=90
225762 On ch=1 n=d#5 v=95
225764 On ch=1 n=a4 v=81
225804 Off ch=1 n=f#5 v=64
225986 Par ch=1 c=64 v=127
225996 Off ch=1 n=b3 v=64
226038 Off ch=1 n=d#5 v=64
226054 Off ch=1 n=a4 v=64
226094 On ch=1 n=b2 v=92
226198 Off ch=1 n=b2 v=64
226202 Par ch=1 c=64 v=0
226220 On ch=1 n=g4 v=90
226222 On ch=1 n=e5 v=99
226230 On ch=1 n=e3 v=105
226334 Off ch=1 n=e3 v=64
226354 Par ch=1 c=64 v=127
226362 Off ch=1 n=g4 v=64
226430 Par ch=1 c=64 v=0
226434 Off ch=1 n=e5 v=64
226608 On ch=1 n=c4 v=92
226616 On ch=1 n=c5 v=87
226660 Off ch=1 n=c4 v=64
226674 Off ch=1 n=c5 v=64
226674 On ch=1 n=e5 v=80
226684 On ch=1 n=e4 v=84
226708 On ch=1 n=d5 v=102
226736 On ch=1 n=d4 v=105
226776 Off ch=1 n=e5 v=64
226792 Off ch=1 n=e4 v=64
226846 Off ch=1 n=d4 v=64
226880 Off ch=1 n=d5 v=64
227056 On ch=1 n=c5 v=84
227072 On ch=1 n=c4 v=56
227122 Off ch=1 n=c4 v=64
227142 On ch=1 n=f5 v=96
227144 On ch=1 n=f3 v=100
227147 On ch=1 n=a4 v=85
227196 Off ch=1 n=c5 v=64
227540 On ch=1 n=g3 v=84
227543 Off ch=1 n=f3 v=64
227652 On ch=1 n=a3 v=84
227684 Off ch=1 n=g3 v=64
228020 Off ch=1 n=a4 v=64
228020 Off ch=1 n=a3 v=64
228020 On ch=1 n=a#3 v=68
228132 Off ch=1 n=a#3 v=64
228134 On ch=1 n=g4 v=84
228144 On ch=1 n=c4 v=77
228154 On ch=1 n=d5 v=84
228160 On ch=1 n=e5 v=90
228220 Off ch=1 n=f5 v=64
228510 On ch=1 n=d4 v=89
228538 Off ch=1 n=c4 v=64
228612 On ch=1 n=c5 v=85
228618 Off ch=1 n=g4 v=64
228628 On ch=1 n=e4 v=97
228662 Off ch=1 n=d4 v=64
228686 Off ch=1 n=d5 v=64
228922 Off ch=1 n=e4 v=64
228940 Off ch=1 n=c5 v=64
228952 Par ch=1 c=64 v=127
228972 On ch=1 n=f4 v=97
229008 Off ch=1 n=f4 v=64
229100 On ch=1 n=d5 v=95
229100 On ch=1 n=c5 v=95
229103 On ch=1 n=g4 v=87
229108 On ch=1 n=g3 v=89
229166 Off ch=1 n=e5 v=64
229212 Par ch=1 c=64 v=0
229448 Off ch=1 n=g3 v=64
229454 On ch=1 n=a3 v=74
229554 On ch=1 n=a#3 v=85
229562 On ch=1 n=a#4 v=60
229566 On ch=1 n=g5 v=89
229578 Off ch=1 n=g4 v=64
229608 Off ch=1 n=a3 v=64
229634 Off ch=1 n=c5 v=64
229940 On ch=1 n=c4 v=76
229962 Off ch=1 n=a#3 v=64
229996 Par ch=1 c=64 v=127
230038 On ch=1 n=a4 v=75
230040 Off ch=1 n=a#4 v=64
230050 Off ch=1 n=c4 v=64
230050 On ch=1 n=d4 v=87
230150 Par ch=1 c=64 v=0
230374 Off ch=1 n=d5 v=64
230396 Off ch=1 n=d4 v=64
230396 Par ch=1 c=64 v=127
230402 On ch=1 n=e4 v=92
230446 Off ch=1 n=a4 v=64
230508 On ch=1 n=f4 v=103
230514 On ch=1 n=f5 v=74
230526 On ch=1 n=d5 v=81
230546 Off ch=1 n=e4 v=64
230608 Off ch=1 n=g5 v=64
230626 Par ch=1 c=64 v=0
230796 Off ch=1 n=d5 v=64
230808 Off ch=1 n=f4 v=64
230826 Par ch=1 c=64 v=127
230854 On ch=1 n=g4 v=78
230896 Off ch=1 n=g4 v=64
230972 On ch=1 n=e5 v=95
230978 On ch=1 n=d5 v=83
230988 On ch=1 n=a4 v=89
230988 On ch=1 n=a3 v=87
231046 Off ch=1 n=f5 v=64
231072 Par ch=1 c=64 v=0
231334 On ch=1 n=b3 v=76
231338 Off ch=1 n=a3 v=64
231364 Par ch=1 c=64 v=127
231390 Off ch=1 n=a4 v=64
231448 On ch=1 n=c5 v=83
231448 On ch=1 n=a5 v=81
231456 On ch=1 n=c4 v=86
231498 Off ch=1 n=d5 v=64
231516 Off ch=1 n=b3 v=64
231578 Par ch=1 c=64 v=0
231810 Par ch=1 c=64 v=127
231816 On ch=1 n=d4 v=93
231826 Off ch=1 n=c5 v=64
231846 Off ch=1 n=c4 v=64
231914 Off ch=1 n=d4 v=64
231922 On ch=1 n=b4 v=87
231934 On ch=1 n=e4 v=98
232040 Par ch=1 c=64 v=0
232200 Off ch=1 n=e5 v=64
232254 Par ch=1 c=64 v=127
232286 On ch=1 n=f#4 v=88
232306 Off ch=1 n=e4 v=64
232384 On ch=1 n=g5 v=91
232392 On ch=1 n=e5 v=84
232402 On ch=1 n=g4 v=93
232436 Off ch=1 n=f#4 v=64
232476 Off ch=1 n=a5 v=64
232530 Par ch=1 c=64 v=0
232728 Off ch=1 n=b4 v=64
232736 Off ch=1 n=e5 v=64
232752 On ch=1 n=e4 v=91
232762 Par ch=1 c=64 v=127
232770 Off ch=1 n=g4 v=64
232844 On ch=1 n=f#5 v=85
232854 Off ch=1 n=e4 v=64
232854 On ch=1 n=a4 v=91
232857 On ch=1 n=c5 v=80
232857 On ch=1 n=e5 v=68
232916 Off ch=1 n=g5 v=64
232930 Par ch=1 c=64 v=0
233130 Par ch=1 c=64 v=127
233146 Off ch=1 n=e5 v=64
233170 Off ch=1 n=a4 v=64
233188 Off ch=1 n=c5 v=64
233232 On ch=1 n=a3 v=74
233284 Off ch=1 n=a3 v=64
233336 On ch=1 n=a4 v=74
233336 On ch=1 n=d#5 v=91
233342 On ch=1 n=b3 v=79
233400 Off ch=1 n=f#5 v=64
233530 Par ch=1 c=64 v=0
233700 On ch=1 n=b2 v=94
233718 Off ch=1 n=a4 v=64
233726 Off ch=1 n=b3 v=64
233760 Par ch=1 c=64 v=127
233808 Off ch=1 n=b2 v=64
233808 Par ch=1 c=64 v=0
233836 On ch=1 n=g4 v=92
233840 On ch=1 n=e5 v=93
233840 On ch=1 n=e3 v=108
233898 Off ch=1 n=d#5 v=64
233908 Off ch=1 n=e3 v=64
233970 Off ch=1 n=g4 v=64
233976 Par ch=1 c=64 v=127
234060 Off ch=1 n=e5 v=64
234160 Par ch=1 c=64 v=0
234490 On ch=1 n=b4 v=59
234492 On ch=1 n=b5 v=69
234554 Off ch=1 n=b5 v=64
234560 Off ch=1 n=b4 v=64
234562 On ch=1 n=d6 v=76
234572 On ch=1 n=d5 v=77
234598 On ch=1 n=c6 v=85
234644 On ch=1 n=c5 v=59
234658 Off ch=1 n=d6 v=64
234688 Off ch=1 n=d5 v=64
234830 Off ch=1 n=c5 v=64
234856 Off ch=1 n=c6 v=64
234866 Par ch=1 c=64 v=127
234928 Par ch=1 c=64 v=0
235040 On ch=1 n=b5 v=96
235043 On ch=1 n=b4 v=73
235100 Off ch=1 n=b4 v=64
235174 Par ch=1 c=64 v=127
235206 On ch=1 n=d#6 v=81
235238 Off ch=1 n=b5 v=64
235258 On ch=1 n=e4 v=46
235288 On ch=1 n=b4 v=12
235342 Par ch=1 c=64 v=0
235688 Off ch=1 n=e4 v=64
235696 Par ch=1 c=64 v=127
235706 On ch=1 n=e5 v=47
235796 Off ch=1 n=b4 v=64
235832 On ch=1 n=e6 v=84
235844 On ch=1 n=g5 v=51
235902 Off ch=1 n=d#6 v=64
236034 Par ch=1 c=64 v=0
236158 Par ch=1 c=64 v=127
236168 Off ch=1 n=e5 v=64
236190 Off ch=1 n=g5 v=64
236206 On ch=1 n=b5 v=57
236328 Off ch=1 n=b5 v=64
236328 On ch=1 n=f6 v=92
236332 On ch=1 n=d#4 v=41
236374 On ch=1 n=b4 v=33
236408 Off ch=1 n=e6 v=64
236496 Par ch=1 c=64 v=0
236696 Par ch=1 c=64 v=127
236706 On ch=1 n=f#5 v=40
236814 On ch=1 n=f#6 v=93
236850 On ch=1 n=a5 v=23
236876 Off ch=1 n=f6 v=64
236926 Par ch=1 c=64 v=0
237004 Off ch=1 n=b4 v=64
237050 Off ch=1 n=f#5 v=64
237064 Par ch=1 c=64 v=127
237106 Off ch=1 n=a5 v=64
237118 Off ch=1 n=d#4 v=64
237146 On ch=1 n=b5 v=48
237240 Off ch=1 n=b5 v=64
237330 On ch=1 n=b4 v=24
237334 On ch=1 n=e4 v=35
237362 On ch=1 n=a6 v=74
237416 Par ch=1 c=64 v=0
237424 Off ch=1 n=f#6 v=64
237678 Par ch=1 c=64 v=127
237750 Off ch=1 n=e4 v=64
237834 Off ch=1 n=b4 v=64
237914 Off ch=1 n=a6 v=64
237938 On ch=1 n=g5 v=29
238090 On ch=1 n=g6 v=75
238110 On ch=1 n=b5 v=52
238176 Off ch=1 n=b5 v=64
238418 Off ch=1 n=g5 v=64
238524 On ch=1 n=e6 v=37
238580 On ch=1 n=b5 v=2
238650 On ch=1 n=a4 v=39
238662 On ch=1 n=c5 v=38
238676 Off ch=1 n=e6 v=64
238676 Par ch=1 c=64 v=0
238818 Off ch=1 n=b5 v=64
238938 Par ch=1 c=64 v=127
238996 On ch=1 n=f#5 v=26
239120 On ch=1 n=f#6 v=84
239152 On ch=1 n=a5 v=37
239186 Off ch=1 n=g6 v=64
239246 Par ch=1 c=64 v=0
239406 Off ch=1 n=c5 v=64
239414 Par ch=1 c=64 v=127
239438 Off ch=1 n=a4 v=64
239458 Off ch=1 n=f#5 v=64
239498 On ch=1 n=c6 v=44
239550 Off ch=1 n=a5 v=64
239580 Off ch=1 n=c6 v=64
239642 On ch=1 n=b4 v=47
239706 Par ch=1 c=64 v=0
239954 Par ch=1 c=64 v=127
240028 On ch=1 n=e5 v=36
240108 Off ch=1 n=b4 v=64
240134 Off ch=1 n=e5 v=64
240212 On ch=1 n=e6 v=68
240228 On ch=1 n=g5 v=35
240323 Off ch=1 n=f#6 v=64
240478 Off ch=1 n=g5 v=64
240624 On ch=1 n=b5 v=32
240632 On ch=1 n=b3 v=41
240706 Par ch=1 c=64 v=0
240709 Off ch=1 n=b5 v=64
240788 On ch=1 n=a4 v=37
240814 Off ch=1 n=b3 v=64
240874 Par ch=1 c=64 v=127
241090 Off ch=1 n=a4 v=64
241134 On ch=1 n=d#5 v=32
241292 On ch=1 n=d#6 v=48
241316 On ch=1 n=f#5 v=19
241376 Off ch=1 n=d#5 v=64
241472 Off ch=1 n=e6 v=64
241756 On ch=1 n=b5 v=24
241890 On ch=1 n=e4 v=31
241990 On ch=1 n=g4 v=35
242012 Off ch=1 n=f#5 v=64
242042 Par ch=1 c=64 v=0
242318 Par ch=1 c=64 v=127
242354 Off ch=1 n=b5 v=64
242498 On ch=1 n=e5 v=23
242794 On ch=1 n=e6 v=40
242810 Par ch=1 c=64 v=0
242822 On ch=1 n=g5 v=19
242832 Off ch=1 n=d#6 v=64
242984 Off ch=1 n=e5 v=64
242998 Off ch=1 n=e4 v=64
243040 Par ch=1 c=64 v=127
243064 Off ch=1 n=g4 v=64
243892 On ch=1 n=b5 v=22
244074 Off ch=1 n=b5 v=64
245300 Par ch=1 c=64 v=0
245484 Par ch=1 c=64 v=127
245646 Off ch=1 n=e6 v=64
245776 Off ch=1 n=g5 v=64
246060 On ch=1 n=g5 v=35
246180 On ch=1 n=b5 v=45
246250 On ch=1 n=a5 v=39
246272 Off ch=1 n=b5 v=64
246274 On ch=1 n=g4 v=21
246276 On ch=1 n=d4 v=13
246304 Off ch=1 n=g5 v=64
246328 Par ch=1 c=64 v=0
246508 On ch=1 n=b4 v=26
246576 Par ch=1 c=64 v=127
246604 Off ch=1 n=g4 v=64
246656 Off ch=1 n=d4 v=64
246656 On ch=1 n=f5 v=26
246676 Off ch=1 n=b4 v=64
246810 Off ch=1 n=f5 v=64
246822 On ch=1 n=g5 v=32
246876 Off ch=1 n=a5 v=64
246964 On ch=1 n=c4 v=17
246968 On ch=1 n=g4 v=21
246974 Par ch=1 c=64 v=0
246986 On ch=1 n=c6 v=33
247010 Off ch=1 n=g5 v=64
247230 On ch=1 n=c5 v=19
247328 Par ch=1 c=64 v=127
247330 Off ch=1 n=g4 v=64
247382 Off ch=1 n=c4 v=64
247420 Off ch=1 n=c5 v=64
247432 On ch=1 n=e5 v=21
247590 On ch=1 n=g5 v=18
247596 Off ch=1 n=c6 v=64
247616 Off ch=1 n=e5 v=64
247658 On ch=1 n=b5 v=30
247660 On ch=1 n=g4 v=29
247690 On ch=1 n=d4 v=26
247744 Par ch=1 c=64 v=0
247744 On ch=1 n=a5 v=8
247760 Off ch=1 n=g5 v=64
247840 Off ch=1 n=b5 v=64
247914 On ch=1 n=b4 v=31
247940 Off ch=1 n=g4 v=64
248026 On ch=1 n=f5 v=21
248034 Par ch=1 c=64 v=127
248046 Off ch=1 n=b4 v=64
248058 Off ch=1 n=d4 v=64
248116 Off ch=1 n=f5 v=64
248128 On ch=1 n=g5 v=37
248168 Off ch=1 n=a5 v=64
248214 Off ch=1 n=g5 v=64
248242 On ch=1 n=c4 v=15
248250 Par ch=1 c=64 v=0
248254 On ch=1 n=g4 v=24
248256 On ch=1 n=c6 v=37
248436 Off ch=1 n=g4 v=64
248442 On ch=1 n=c5 v=35
248454 Off ch=1 n=c4 v=64
248495 Par ch=1 c=64 v=127
248530 Off ch=1 n=c6 v=64
248546 Off ch=1 n=c5 v=64
248572 On ch=1 n=e5 v=28
248650 Off ch=1 n=e5 v=64
248654 On ch=1 n=c6 v=42
248768 On ch=1 n=g4 v=30
248778 On ch=1 n=a4 v=14
248788 Off ch=1 n=c6 v=64
248788 Par ch=1 c=64 v=0
248791 On ch=1 n=c#6 v=43
248902 On ch=1 n=c#5 v=35
248974 Off ch=1 n=a4 v=64
249018 Par ch=1 c=64 v=127
249022 Off ch=1 n=c#6 v=64
249042 On ch=1 n=e5 v=47
249076 Off ch=1 n=c#5 v=64
249112 Off ch=1 n=e5 v=64
249116 Off ch=1 n=g4 v=64
249130 On ch=1 n=c#6 v=43
249232 Par ch=1 c=64 v=0
249237 On ch=1 n=a4 v=30
249256 On ch=1 n=f4 v=46
249268 On ch=1 n=d6 v=61
249280 Off ch=1 n=c#6 v=64
249404 On ch=1 n=d5 v=45
249426 Off ch=1 n=a4 v=64
249464 Par ch=1 c=64 v=127
249482 Off ch=1 n=f4 v=64
249490 Off ch=1 n=d6 v=64
249528 On ch=1 n=f5 v=44
249562 Off ch=1 n=d5 v=64
249608 Off ch=1 n=f5 v=64
249630 On ch=1 n=d6 v=40
249722 On ch=1 n=e4 v=41
249740 Par ch=1 c=64 v=0
249754 On ch=1 n=a4 v=22
249776 Off ch=1 n=d6 v=64
249784 On ch=1 n=e6 v=49
249898 On ch=1 n=c#5 v=38
249964 Off ch=1 n=a4 v=64
249970 Par ch=1 c=64 v=127
250020 Off ch=1 n=e4 v=64
250030 Off ch=1 n=c#5 v=64
250038 Off ch=1 n=e6 v=64
250058 On ch=1 n=g5 v=26
250128 On ch=1 n=e6 v=36
250158 Off ch=1 n=g5 v=64
250280 On ch=1 n=a4 v=16
250292 On ch=1 n=d4 v=18
250294 Par ch=1 c=64 v=0
250300 Off ch=1 n=e6 v=64
250334 On ch=1 n=f6 v=42
250530 On ch=1 n=d5 v=29
250566 Off ch=1 n=d4 v=64
250586 Par ch=1 c=64 v=127
250594 Off ch=1 n=a4 v=64
250614 Off ch=1 n=f6 v=64
250684 Off ch=1 n=d5 v=64
250726 On ch=1 n=f5 v=32
250832 Off ch=1 n=f5 v=64
250886 On ch=1 n=a5 v=29
250994 On ch=1 n=c6 v=48
251020 On ch=1 n=a4 v=20
251032 Par ch=1 c=64 v=0
251036 On ch=1 n=g4 v=29
251044 Off ch=1 n=a5 v=64
251044 On ch=1 n=a#5 v=54
251060 Off ch=1 n=c6 v=64
251184 On ch=1 n=c#5 v=32
251230 Off ch=1 n=a4 v=64
251292 Par ch=1 c=64 v=127
251318 On ch=1 n=e5 v=48
251374 Off ch=1 n=c#5 v=64
251380 Off ch=1 n=g4 v=64
251418 On ch=1 n=a5 v=57
251450 Off ch=1 n=e5 v=64
251530 Off ch=1 n=a#5 v=64
251536 On ch=1 n=d6 v=70
251538 Par ch=1 c=64 v=0
251542 On ch=1 n=a4 v=27
251580 Off ch=1 n=a5 v=64
251582 On ch=1 n=f4 v=49
251704 On ch=1 n=d5 v=34
251738 Off ch=1 n=f4 v=64
251768 Par ch=1 c=64 v=127
251786 Off ch=1 n=a4 v=64
251802 Off ch=1 n=d6 v=64
251830 On ch=1 n=f5 v=49
251836 Off ch=1 n=d5 v=64
251908 On ch=1 n=a5 v=55
251922 Off ch=1 n=f5 v=64
251974 On ch=1 n=c6 v=51
252004 On ch=1 n=a4 v=25
252007 On ch=1 n=a#5 v=72
252014 Par ch=1 c=64 v=0
252016 On ch=1 n=g4 v=36
252040 Off ch=1 n=a5 v=64
252098 Off ch=1 n=c6 v=64
252154 On ch=1 n=c#5 v=38
252214 Off ch=1 n=a4 v=64
252260 Par ch=1 c=64 v=127
252270 On ch=1 n=e5 v=62
252338 Off ch=1 n=c#5 v=64
252346 Off ch=1 n=g4 v=64
252360 On ch=1 n=a5 v=66
252378 Off ch=1 n=e5 v=64
252442 Off ch=1 n=a#5 v=64
252472 On ch=1 n=a4 v=32
252488 On ch=1 n=f4 v=43
252498 On ch=1 n=d6 v=71
252506 Par ch=1 c=64 v=0
252512 Off ch=1 n=a5 v=64
252668 On ch=1 n=d5 v=49
252714 Off ch=1 n=f4 v=64
252722 Off ch=1 n=a4 v=64
252752 Par ch=1 c=64 v=127
252774 Off ch=1 n=d6 v=64
252798 On ch=1 n=f5 v=59
252850 Off ch=1 n=d5 v=64
252906 On ch=1 n=d6 v=62
252932 Off ch=1 n=f5 v=64
253022 On ch=1 n=e4 v=45
253030 On ch=1 n=a4 v=34
253044 Par ch=1 c=64 v=0
253050 On ch=1 n=e6 v=74
253114 Off ch=1 n=d6 v=64
253178 On ch=1 n=c#5 v=52
253258 Par ch=1 c=64 v=127
253262 Off ch=1 n=a4 v=64
253282 Off ch=1 n=e4 v=64
253312 On ch=1 n=g5 v=56
253315 Off ch=1 n=e6 v=64
253360 Off ch=1 n=c#5 v=64
253394 On ch=1 n=e6 v=70
253436 Off ch=1 n=g5 v=64
253504 Par ch=1 c=64 v=0
253512 On ch=1 n=d4 v=54
253512 On ch=1 n=a4 v=47
253546 On ch=1 n=f6 v=85
253560 Off ch=1 n=e6 v=64
253654 On ch=1 n=d5 v=58
253706 Off ch=1 n=d4 v=64
253714 Off ch=1 n=a4 v=64
253720 Par ch=1 c=64 v=127
253794 Off ch=1 n=d5 v=64
253798 On ch=1 n=f5 v=59
253826 Off ch=1 n=f6 v=64
253856 Off ch=1 n=f5 v=64
253906 On ch=1 n=f6 v=62
254026 Par ch=1 c=64 v=0
254044 On ch=1 n=c4 v=37
254058 On ch=1 n=a4 v=43
254068 On ch=1 n=f#6 v=77
254088 Off ch=1 n=f6 v=64
254160 Off ch=1 n=c4 v=64
254198 On ch=1 n=d5 v=54
254212 Par ch=1 c=64 v=127
254248 Off ch=1 n=a4 v=64
254316 Off ch=1 n=d5 v=64
254336 On ch=1 n=f#5 v=50
254339 Off ch=1 n=f#6 v=64
254412 Off ch=1 n=f#5 v=64
254450 On ch=1 n=f#6 v=57
254594 On ch=1 n=g4 v=37
254596 Par ch=1 c=64 v=0
254614 On ch=1 n=b3 v=33
254650 Off ch=1 n=f#6 v=64
254654 On ch=1 n=g6 v=74
254770 Off ch=1 n=b3 v=64
254810 Par ch=1 c=64 v=127
254828 Off ch=1 n=g4 v=64
254876 Off ch=1 n=g6 v=64
254879 On ch=1 n=d5 v=46
255060 Off ch=1 n=d5 v=64
255082 On ch=1 n=f5 v=41
255174 Off ch=1 n=f5 v=64
255262 On ch=1 n=g5 v=52
255360 Off ch=1 n=g5 v=64
255366 On ch=1 n=b5 v=61
255402 On ch=1 n=a5 v=68
255416 On ch=1 n=d4 v=20
255422 On ch=1 n=g4 v=25
255426 Par ch=1 c=64 v=0
255498 Off ch=1 n=b5 v=64
255574 On ch=1 n=b4 v=42
255580 Par ch=1 c=64 v=127
255618 Off ch=1 n=g4 v=64
255638 On ch=1 n=f5 v=59
255662 Off ch=1 n=d4 v=64
255720 Off ch=1 n=b4 v=64
255754 On ch=1 n=g5 v=75
255776 Off ch=1 n=f5 v=64
255840 Par ch=1 c=64 v=0
255882 On ch=1 n=c4 v=38
255886 Off ch=1 n=a5 v=64
255886 On ch=1 n=c6 v=75
255892 On ch=1 n=g4 v=51
255920 Off ch=1 n=g5 v=64
256024 Par ch=1 c=64 v=127
256028 On ch=1 n=c5 v=40
256036 Off ch=1 n=c4 v=64
256040 Off ch=1 n=g4 v=64
256084 Off ch=1 n=c5 v=64
256118 Off ch=1 n=c6 v=64
256152 On ch=1 n=e5 v=65
256232 Off ch=1 n=e5 v=64
256272 On ch=1 n=c6 v=67
256378 Par ch=1 c=64 v=0
256382 On ch=1 n=g5 v=68
256384 On ch=1 n=c4 v=35
256388 On ch=1 n=e3 v=65
256416 Off ch=1 n=c6 v=64
256478 Off ch=1 n=e3 v=64
256546 Par ch=1 c=64 v=127
256560 On ch=1 n=g4 v=50
256628 Off ch=1 n=g4 v=64
256656 Off ch=1 n=g5 v=64
256662 On ch=1 n=c5 v=49
256742 On ch=1 n=g5 v=55
256792 Off ch=1 n=c5 v=64
256792 Par ch=1 c=64 v=0
256866 On ch=1 n=f3 v=68
256884 On ch=1 n=a5 v=56
256912 Off ch=1 n=g5 v=64
256976 Off ch=1 n=f3 v=64
257034 On ch=1 n=a4 v=61
257054 Par ch=1 c=64 v=127
257090 Off ch=1 n=a4 v=64
257118 Off ch=1 n=a5 v=64
257146 Off ch=1 n=c4 v=64
257148 On ch=1 n=c5 v=51
257232 On ch=1 n=a5 v=39
257240 Off ch=1 n=c5 v=64
257330 Par ch=1 c=64 v=0
257362 On ch=1 n=d3 v=55
257368 On ch=1 n=f5 v=66
257394 Off ch=1 n=a5 v=64
257410 Off ch=1 n=d3 v=64
257494 On ch=1 n=f4 v=64
257530 Par ch=1 c=64 v=127
257580 Off ch=1 n=f4 v=64
257626 Off ch=1 n=f5 v=64
257632 On ch=1 n=c5 v=59
257722 On ch=1 n=f5 v=50
257740 Off ch=1 n=c5 v=64
257838 Par ch=1 c=64 v=0
257860 On ch=1 n=d5 v=71
257868 On ch=1 n=c4 v=37
257876 On ch=1 n=g3 v=40
257890 Off ch=1 n=f5 v=64
257988 Off ch=1 n=g3 v=64
258006 On ch=1 n=f4 v=63
258068 Off ch=1 n=c4 v=64
258078 Off ch=1 n=f4 v=64
258084 Par ch=1 c=64 v=127
258116 Off ch=1 n=d5 v=64
258126 On ch=1 n=c5 v=59
258200 Off ch=1 n=c5 v=64
258216 On ch=1 n=d5 v=53
258314 Par ch=1 c=64 v=0
258350 Off ch=1 n=d5 v=64
258354 On ch=1 n=b3 v=23
258368 On ch=1 n=g3 v=23
258368 On ch=1 n=g5 v=52
258476 Off ch=1 n=b3 v=64
258532 On ch=1 n=f4 v=47
258560 Par ch=1 c=64 v=127
258596 Off ch=1 n=g3 v=64
258600 Off ch=1 n=g5 v=64
258610 Off ch=1 n=f4 v=64
258648 On ch=1 n=b4 v=41
258720 Off ch=1 n=b4 v=64
258784 On ch=1 n=g5 v=37
258898 Par ch=1 c=64 v=0
258934 On ch=1 n=c3 v=34
258948 On ch=1 n=g3 v=20
258964 On ch=1 n=e5 v=52
258970 Off ch=1 n=g5 v=64
259100 Off ch=1 n=c3 v=64
259144 Par ch=1 c=64 v=127
259160 Off ch=1 n=g3 v=64
259198 On ch=1 n=e4 v=43
259278 Off ch=1 n=e4 v=64
259350 Off ch=1 n=e5 v=64
259360 On ch=1 n=c5 v=51
259418 Off ch=1 n=c5 v=64
259500 On ch=1 n=g5 v=63
259548 On ch=1 n=b5 v=64
259560 Off ch=1 n=g5 v=64
259600 On ch=1 n=d4 v=35
259603 Par ch=1 c=64 v=0
259606 On ch=1 n=a5 v=59
259609 On ch=1 n=g4 v=34
259674 Off ch=1 n=b5 v=64
259788 On ch=1 n=b4 v=42
259798 Off ch=1 n=g4 v=64
259834 Par ch=1 c=64 v=127
259858 Off ch=1 n=d4 v=64
259876 Off ch=1 n=b4 v=64
259880 On ch=1 n=f5 v=41
259970 On ch=1 n=g5 v=64
259996 Off ch=1 n=f5 v=64
260008 Off ch=1 n=a5 v=64
260066 Par ch=1 c=64 v=0
260066 On ch=1 n=c4 v=36
260084 On ch=1 n=g4 v=39
260092 On ch=1 n=c6 v=59
260108 Off ch=1 n=g5 v=64
260208 Off ch=1 n=g4 v=64
260210 On ch=1 n=c5 v=44
260220 Off ch=1 n=c4 v=64
260250 Par ch=1 c=64 v=127
260266 Off ch=1 n=c5 v=64
260314 On ch=1 n=e5 v=42
260324 Off ch=1 n=c6 v=64
260394 Off ch=1 n=e5 v=64
260418 On ch=1 n=c6 v=34
260496 Par ch=1 c=64 v=0
260562 On ch=1 n=e3 v=47
260564 On ch=1 n=c4 v=34
260564 On ch=1 n=g5 v=56
260574 Off ch=1 n=c6 v=64
260614 Off ch=1 n=e3 v=64
260680 Par ch=1 c=64 v=127
260726 On ch=1 n=g4 v=37
260790 Off ch=1 n=g4 v=64
260812 Off ch=1 n=g5 v=64
260840 On ch=1 n=c5 v=44
260934 Off ch=1 n=c5 v=64
260938 On ch=1 n=g5 v=60
261002 Par ch=1 c=64 v=0
261046 On ch=1 n=f3 v=48
261078 Off ch=1 n=g5 v=64
261078 On ch=1 n=a5 v=50
261130 Off ch=1 n=f3 v=64
261196 Off ch=1 n=c4 v=64
261202 Par ch=1 c=64 v=127
261210 On ch=1 n=a4 v=51
261268 Off ch=1 n=a4 v=64
261282 Off ch=1 n=a5 v=64
261330 On ch=1 n=c5 v=41
261408 Off ch=1 n=c5 v=64
261414 On ch=1 n=a5 v=25
261494 Par ch=1 c=64 v=0
261512 On ch=1 n=d3 v=49
261550 On ch=1 n=f5 v=51
261558 Off ch=1 n=a5 v=64
261574 Off ch=1 n=d3 v=64
261664 Par ch=1 c=64 v=127
261672 On ch=1 n=f4 v=51
261752 Off ch=1 n=f4 v=64
261788 Off ch=1 n=f5 v=64
261800 On ch=1 n=c5 v=47
261882 Off ch=1 n=c5 v=64
261896 On ch=1 n=f5 v=31
262018 Par ch=1 c=64 v=0
262030 On ch=1 n=g3 v=34
262050 On ch=1 n=c4 v=23
262062 Off ch=1 n=f5 v=64
262070 On ch=1 n=d5 v=47
262202 Off ch=1 n=g3 v=64
262208 On ch=1 n=f4 v=62
262218 Off ch=1 n=c4 v=64
262248 Par ch=1 c=64 v=127
262266 Off ch=1 n=f4 v=64
262288 Off ch=1 n=d5 v=64
262324 On ch=1 n=c5 v=38
262408 Off ch=1 n=c5 v=64
262462 On ch=1 n=d5 v=50
262536 Off ch=1 n=d5 v=64
262540 Par ch=1 c=64 v=0
262574 On ch=1 n=g3 v=31
262576 On ch=1 n=b3 v=16
262626 On ch=1 n=g5 v=36
262718 Off ch=1 n=b3 v=64
262782 Off ch=1 n=g3 v=64
262785 Par ch=1 c=64 v=127
262788 On ch=1 n=f4 v=51
262842 Off ch=1 n=f4 v=64
262872 Off ch=1 n=g5 v=64
262946 On ch=1 n=b4 v=26
263028 Off ch=1 n=b4 v=64
263098 On ch=1 n=g5 v=43
263108 Par ch=1 c=64 v=0
263144 On ch=1 n=c3 v=27
263180 On ch=1 n=g3 v=26
263308 Par ch=1 c=64 v=127
263311 Off ch=1 n=c3 v=64
263340 Off ch=1 n=g3 v=64
263486 On ch=1 n=c5 v=38
263528 On ch=1 n=e4 v=45
263662 Off ch=1 n=e4 v=64
263798 Off ch=1 n=c5 v=64
263914 Off ch=1 n=g5 v=64
264232 On ch=1 n=b5 v=57
264358 On ch=1 n=d6 v=59
264398 On ch=1 n=c6 v=73
264398 Par ch=1 c=64 v=0
264408 Off ch=1 n=b5 v=64
264413 On ch=1 n=b4 v=23
264424 On ch=1 n=e4 v=33
264436 Off ch=1 n=d6 v=64
264594 On ch=1 n=e5 v=38
264628 Par ch=1 c=64 v=127
264672 On ch=1 n=g5 v=56
264678 Off ch=1 n=b4 v=64
264678 Off ch=1 n=e5 v=64
264681 Off ch=1 n=e4 v=64
264807 On ch=1 n=b5 v=81
264838 Off ch=1 n=c6 v=64
264840 Off ch=1 n=g5 v=64
264902 On ch=1 n=d#4 v=41
264934 On ch=1 n=b4 v=32
264936 Par ch=1 c=64 v=0
264948 On ch=1 n=f#6 v=81
264982 Off ch=1 n=b5 v=64
265106 On ch=1 n=f#5 v=32
265166 Par ch=1 c=64 v=127
265188 Off ch=1 n=b4 v=64
265210 On ch=1 n=a5 v=54
265222 Off ch=1 n=f#5 v=64
265236 Off ch=1 n=f#6 v=64
265270 Off ch=1 n=d#4 v=64
265296 Off ch=1 n=a5 v=64
265308 On ch=1 n=b5 v=80
265370 On ch=1 n=d6 v=75
265416 On ch=1 n=c6 v=81
265416 On ch=1 n=e4 v=42
265419 On ch=1 n=b4 v=19
265426 Off ch=1 n=b5 v=64
265426 Par ch=1 c=64 v=0
265472 Off ch=1 n=d6 v=64
265596 On ch=1 n=e5 v=54
265618 Off ch=1 n=e4 v=64
265644 Par ch=1 c=64 v=127
265658 Off ch=1 n=e5 v=64
265674 On ch=1 n=g5 v=63
265677 Off ch=1 n=b4 v=64
265746 Off ch=1 n=g5 v=64
265772 On ch=1 n=b5 v=91
265882 On ch=1 n=g4 v=34
265882 On ch=1 n=d4 v=39
265894 Off ch=1 n=b5 v=64
265914 On ch=1 n=e6 v=72
265920 Par ch=1 c=64 v=0
265928 Off ch=1 n=c6 v=64
266102 On ch=1 n=b4 v=35
266162 Off ch=1 n=g4 v=64
266166 Par ch=1 c=64 v=127
266248 Off ch=1 n=e6 v=64
266260 Off ch=1 n=d4 v=64
266264 On ch=1 n=e5 v=47
266306 Off ch=1 n=b4 v=64
266408 On ch=1 n=g5 v=42
266446 Off ch=1 n=e5 v=64
266538 On ch=1 n=b5 v=47
266554 On ch=1 n=g4 v=25
266560 On ch=1 n=a5 v=51
266576 Off ch=1 n=g5 v=64
266590 On ch=1 n=c#4 v=17
266612 Off ch=1 n=b5 v=64
266612 Par ch=1 c=64 v=0
266750 On ch=1 n=a4 v=33
266758 Off ch=1 n=g4 v=64
266842 Par ch=1 c=64 v=127
266858 On ch=1 n=e5 v=34
266906 Off ch=1 n=c#4 v=64
266909 Off ch=1 n=a4 v=64
266972 Off ch=1 n=e5 v=64
266976 On ch=1 n=g5 v=47
267056 Off ch=1 n=a5 v=64
267072 Off ch=1 n=g5 v=64
267100 On ch=1 n=b5 v=42
267102 Par ch=1 c=64 v=0
267112 On ch=1 n=g4 v=18
267118 On ch=1 n=d4 v=24
267306 On ch=1 n=c5 v=31
267318 Par ch=1 c=64 v=127
267370 Off ch=1 n=b5 v=64
267370 Off ch=1 n=d4 v=64
267376 Off ch=1 n=g4 v=64
267408 Off ch=1 n=c5 v=64
267424 On ch=1 n=d5 v=33
267500 Off ch=1 n=d5 v=64
267564 On ch=1 n=b5 v=42
267678 Off ch=1 n=b5 v=64
267688 On ch=1 n=f#4 v=24
267702 Par ch=1 c=64 v=0
267704 On ch=1 n=a5 v=39
267720 On ch=1 n=d4 v=15
267878 On ch=1 n=c5 v=29
267886 Par ch=1 c=64 v=127
267914 Off ch=1 n=d4 v=64
267942 Off ch=1 n=f#4 v=64
267942 Off ch=1 n=c5 v=64
267978 On ch=1 n=d5 v=30
268008 Off ch=1 n=a5 v=64
268066 Off ch=1 n=d5 v=64
268124 On ch=1 n=a5 v=30
268286 Par ch=1 c=64 v=0
268328 On ch=1 n=g3 v=22
268336 On ch=1 n=d4 v=19
268350 Off ch=1 n=a5 v=64
268374 On ch=1 n=g5 v=36
268516 Par ch=1 c=64 v=127
268530 Off ch=1 n=g3 v=64
268562 Off ch=1 n=d4 v=64
268690 On ch=1 n=b4 v=8
268848 Off ch=1 n=b4 v=64
268868 Off ch=1 n=g5 v=64
268942 On ch=1 n=d5 v=18
269016 Off ch=1 n=d5 v=64
269214 On ch=1 n=b5 v=42
269372 On ch=1 n=d6 v=48
269390 Off ch=1 n=b5 v=64
269408 Par ch=1 c=64 v=0
269412 On ch=1 n=e4 v=29
269417 On ch=1 n=b4 v=18
269438 On ch=1 n=c6 v=45
269456 Off ch=1 n=d6 v=64
269634 Off ch=1 n=e4 v=64
269662 On ch=1 n=e5 v=30
269698 Par ch=1 c=64 v=127
269742 Off ch=1 n=b4 v=64
269742 Off ch=1 n=e5 v=64
269758 On ch=1 n=g5 v=38
269860 Off ch=1 n=c6 v=64
269896 On ch=1 n=b5 v=41
269948 Off ch=1 n=g5 v=64
270084 On ch=1 n=d#4 v=31
270104 On ch=1 n=f#6 v=41
270116 Off ch=1 n=b5 v=64
270116 On ch=1 n=b4 v=19
270160 Par ch=1 c=64 v=0
270394 On ch=1 n=f#5 v=20
270406 Par ch=1 c=64 v=127
270548 Off ch=1 n=f#5 v=64
270550 Off ch=1 n=b4 v=64
270558 On ch=1 n=a5 v=32
270614 Off ch=1 n=d#4 v=64
270692 Off ch=1 n=a5 v=64
270700 On ch=1 n=b5 v=46
270760 Off ch=1 n=f#6 v=64
270808 On ch=1 n=d6 v=46
270818 Off ch=1 n=b5 v=64
270824 On ch=1 n=b4 v=13
270840 On ch=1 n=e4 v=24
270866 Par ch=1 c=64 v=0
270874 On ch=1 n=c6 v=25
270948 Off ch=1 n=d6 v=64
271058 On ch=1 n=e5 v=36
271128 Par ch=1 c=64 v=127
271152 Off ch=1 n=e5 v=64
271168 Off ch=1 n=b4 v=64
271176 On ch=1 n=g5 v=33
271218 Off ch=1 n=e4 v=64
271310 Off ch=1 n=g5 v=64
271314 On ch=1 n=b5 v=44
271374 Off ch=1 n=c6 v=64
271460 Off ch=1 n=b5 v=64
271478 On ch=1 n=d4 v=25
271492 On ch=1 n=e6 v=35
271502 On ch=1 n=g4 v=17
271512 Par ch=1 c=64 v=0
271732 Off ch=1 n=g4 v=64
271734 On ch=1 n=b4 v=15
271758 Par ch=1 c=64 v=127
271820 Off ch=1 n=e6 v=64
271842 On ch=1 n=e5 v=35
271852 Off ch=1 n=d4 v=64
271944 Off ch=1 n=b4 v=64
271956 On ch=1 n=g5 v=49
271968 Off ch=1 n=e5 v=64
272028 On ch=1 n=b5 v=58
272078 On ch=1 n=a5 v=51
272078 On ch=1 n=g4 v=11
272078 On ch=1 n=c#4 v=15
272081 Off ch=1 n=g5 v=64
272094 Off ch=1 n=b5 v=64
272096 Par ch=1 c=64 v=0
272252 On ch=1 n=a4 v=35
272278 Off ch=1 n=g4 v=64
272342 Par ch=1 c=64 v=127
272356 On ch=1 n=e5 v=41
272404 Off ch=1 n=c#4 v=64
272404 Off ch=1 n=a4 v=64
272514 Off ch=1 n=e5 v=64
272516 On ch=1 n=g5 v=51
272526 Off ch=1 n=a5 v=64
272618 Off ch=1 n=g5 v=64
272638 On ch=1 n=g4 v=14
272641 On ch=1 n=d4 v=20
272666 Par ch=1 c=64 v=0
272690 On ch=1 n=b5 v=58
272876 On ch=1 n=c5 v=29
272890 Off ch=1 n=d4 v=64
272926 Par ch=1 c=64 v=127
272974 Off ch=1 n=b5 v=64
272976 Off ch=1 n=g4 v=64
272984 Off ch=1 n=c5 v=64
273016 On ch=1 n=d5 v=38
273082 Off ch=1 n=d5 v=64
273146 On ch=1 n=b5 v=44
273254 On ch=1 n=d4 v=28
273254 On ch=1 n=f#4 v=27
273264 Par ch=1 c=64 v=0
273332 On ch=1 n=a5 v=45
273356 Off ch=1 n=b5 v=64
273528 On ch=1 n=c5 v=26
273544 Off ch=1 n=d4 v=64
273556 Par ch=1 c=64 v=127
273620 Off ch=1 n=f#4 v=64
273620 Off ch=1 n=c5 v=64
273734 Off ch=1 n=a5 v=64
273742 On ch=1 n=d5 v=19
273852 Off ch=1 n=d5 v=64
273926 On ch=1 n=a5 v=26
274110 On ch=1 n=g3 v=16
274124 Par ch=1 c=64 v=0
274130 On ch=1 n=d4 v=23
274186 Off ch=1 n=a5 v=64
274186 On ch=1 n=g5 v=29
274362 Off ch=1 n=g3 v=64
274402 Par ch=1 c=64 v=127
274560 On ch=1 n=b4 v=8
274660 Off ch=1 n=d4 v=64
274858 Off ch=1 n=g5 v=64
274890 On ch=1 n=d5 v=18
275032 Off ch=1 n=b4 v=64
275212 Off ch=1 n=d5 v=64
275224 On ch=1 n=g5 v=27
275421 On ch=1 n=d4 v=14
275430 Off ch=1 n=g5 v=64
275442 On ch=1 n=a5 v=25
275448 On ch=1 n=b5 v=2
275452 On ch=1 n=g4 v=7
275586 Off ch=1 n=b5 v=64
275600 Par ch=1 c=64 v=0
275712 On ch=1 n=b4 v=20
275758 Off ch=1 n=g4 v=64
275768 Par ch=1 c=64 v=127
275770 Off ch=1 n=d4 v=64
275810 Off ch=1 n=b4 v=64
275836 On ch=1 n=f5 v=26
275938 Off ch=1 n=f5 v=64
275974 On ch=1 n=g5 v=34
276070 Off ch=1 n=g5 v=64
276092 Off ch=1 n=a5 v=64
276100 On ch=1 n=c6 v=34
276118 On ch=1 n=c4 v=14
276138 Par ch=1 c=64 v=0
276138 On ch=1 n=g4 v=16
276350 On ch=1 n=c5 v=20
276382 Off ch=1 n=g4 v=64
276398 Par ch=1 c=64 v=127
276422 On ch=1 n=e5 v=37
276452 Off ch=1 n=c4 v=64
276455 Off ch=1 n=c5 v=64
276560 Off ch=1 n=e5 v=64
276630 On ch=1 n=g5 v=40
276736 Off ch=1 n=c6 v=64
276788 On ch=1 n=b5 v=51
276802 On ch=1 n=g4 v=22
276814 On ch=1 n=d4 v=26
276834 Off ch=1 n=g5 v=64
276858 On ch=1 n=a5 v=39
276874 Par ch=1 c=64 v=0
276958 Off ch=1 n=b5 v=64
277106 On ch=1 n=b4 v=32
277164 Off ch=1 n=g4 v=64
277214 Par ch=1 c=64 v=127
277214 On ch=1 n=f5 v=28
277230 Off ch=1 n=d4 v=64
277270 Off ch=1 n=b4 v=64
277294 Off ch=1 n=f5 v=64
277320 On ch=1 n=g5 v=44
277456 On ch=1 n=c4 v=18
277456 On ch=1 n=c6 v=31
277472 Off ch=1 n=g5 v=64
277475 On ch=1 n=g4 v=13
277475 Par ch=1 c=64 v=0
277508 Off ch=1 n=a5 v=64
277656 On ch=1 n=c5 v=18
277678 Off ch=1 n=g4 v=64
277688 Off ch=1 n=c4 v=64
277704 Par ch=1 c=64 v=127
277748 Off ch=1 n=c6 v=64
277786 Off ch=1 n=c5 v=64
277790 On ch=1 n=e5 v=37
277870 Off ch=1 n=e5 v=64
277888 On ch=1 n=c6 v=38
277994 On ch=1 n=a4 v=23
278018 Off ch=1 n=c6 v=64
278022 On ch=1 n=c#6 v=43
278024 On ch=1 n=g4 v=34
278088 Par ch=1 c=64 v=0
278160 On ch=1 n=c#5 v=36
278232 Off ch=1 n=a4 v=64
278288 Par ch=1 c=64 v=127
278290 Off ch=1 n=c#6 v=64
278296 On ch=1 n=e5 v=46
278368 Off ch=1 n=c#5 v=64
278384 Off ch=1 n=e5 v=64
278406 On ch=1 n=c#6 v=49
278446 Off ch=1 n=g4 v=64
278532 On ch=1 n=a4 v=24
278544 On ch=1 n=f4 v=43
278556 On ch=1 n=d6 v=68
278564 Off ch=1 n=c#6 v=64
278580 Par ch=1 c=64 v=0
278712 On ch=1 n=d5 v=39
278750 Off ch=1 n=f4 v=64
278760 Off ch=1 n=a4 v=64
278780 Par ch=1 c=64 v=127
278826 Off ch=1 n=d6 v=64
278830 On ch=1 n=f5 v=53
278890 Off ch=1 n=d5 v=64
278928 On ch=1 n=d6 v=36
278940 Off ch=1 n=f5 v=64
279046 On ch=1 n=a4 v=33
279064 On ch=1 n=e4 v=24
279072 On ch=1 n=e6 v=63
279088 Par ch=1 c=64 v=0
279100 Off ch=1 n=d6 v=64
279198 On ch=1 n=c#5 v=39
279284 Off ch=1 n=a4 v=64
279302 Par ch=1 c=64 v=127
279348 On ch=1 n=g5 v=44
279350 Off ch=1 n=e6 v=64
279376 Off ch=1 n=e4 v=64
279388 Off ch=1 n=c#5 v=64
279416 Off ch=1 n=g5 v=64
279450 On ch=1 n=e6 v=36
279592 On ch=1 n=d4 v=30
279600 Off ch=1 n=e6 v=64
279610 Par ch=1 c=64 v=0
279612 On ch=1 n=a4 v=13
279624 On ch=1 n=f6 v=34
279838 On ch=1 n=d5 v=29
279866 Off ch=1 n=d4 v=64
279869 Par ch=1 c=64 v=127
279902 Off ch=1 n=a4 v=64
279908 Off ch=1 n=f6 v=64
279970 Off ch=1 n=d5 v=64
280006 On ch=1 n=f5 v=24
280178 On ch=1 n=a5 v=34
280200 Off ch=1 n=f5 v=64
280284 Off ch=1 n=a5 v=64
280305 On ch=1 n=c6 v=38
280364 On ch=1 n=a4 v=9
280372 On ch=1 n=g4 v=25
280374 Off ch=1 n=c6 v=64
280374 On ch=1 n=a#5 v=45
280424 Par ch=1 c=64 v=0
280542 On ch=1 n=c#5 v=28
280596 Off ch=1 n=a4 v=64
280624 Par ch=1 c=64 v=127
280650 On ch=1 n=e5 v=39
280730 Off ch=1 n=c#5 v=64
280732 Off ch=1 n=g4 v=64
280760 On ch=1 n=a5 v=42
280784 Off ch=1 n=e5 v=64
280852 Off ch=1 n=a#5 v=64
280876 On ch=1 n=d6 v=70
280884 Off ch=1 n=a5 v=64
280916 Par ch=1 c=64 v=0
280916 On ch=1 n=f4 v=41
280918 On ch=1 n=a4 v=16
281038 On ch=1 n=d5 v=48
281080 Off ch=1 n=f4 v=64
281098 Off ch=1 n=a4 v=64
281100 Par ch=1 c=64 v=127
281150 Off ch=1 n=d5 v=64
281155 On ch=1 n=f5 v=52
281214 Off ch=1 n=d6 v=64
281236 Off ch=1 n=f5 v=64
281254 On ch=1 n=a5 v=55
281322 On ch=1 n=c6 v=68
281332 Off ch=1 n=a5 v=64
281362 On ch=1 n=g4 v=39
281374 On ch=1 n=a#5 v=64
281392 Par ch=1 c=64 v=0
281394 On ch=1 n=a4 v=23
281422 Off ch=1 n=c6 v=64
281544 On ch=1 n=c#5 v=42
281604 Off ch=1 n=a4 v=64
281654 Par ch=1 c=64 v=127
281674 On ch=1 n=e5 v=53
281754 Off ch=1 n=c#5 v=64
281760 Off ch=1 n=e5 v=64
281772 On ch=1 n=a5 v=55
281796 Off ch=1 n=g4 v=64
281844 Off ch=1 n=a#5 v=64
281858 On ch=1 n=a4 v=27
281876 On ch=1 n=f4 v=50
281914 Par ch=1 c=64 v=0
281916 On ch=1 n=d6 v=45
281918 Off ch=1 n=a5 v=64
282070 On ch=1 n=d5 v=29
282114 Off ch=1 n=a4 v=64
282192 Par ch=1 c=64 v=127
282195 Off ch=1 n=f4 v=64
282224 Off ch=1 n=d6 v=64
282224 On ch=1 n=f5 v=47
282292 Off ch=1 n=d5 v=64
282316 Off ch=1 n=f5 v=64
282324 On ch=1 n=d6 v=57
282416 On ch=1 n=e4 v=53
282424 On ch=1 n=a4 v=32
282442 On ch=1 n=e6 v=71
282486 Off ch=1 n=d6 v=64
282486 Par ch=1 c=64 v=0
282594 On ch=1 n=c#5 v=42
282644 Off ch=1 n=a4 v=64
282682 Par ch=1 c=64 v=127
282716 On ch=1 n=g5 v=61
282718 Off ch=1 n=e6 v=64
282758 Off ch=1 n=c#5 v=64
282804 On ch=1 n=e6 v=55
282830 Off ch=1 n=g5 v=64
282912 On ch=1 n=d4 v=69
282916 Off ch=1 n=e4 v=64
282928 Par ch=1 c=64 v=0
282930 On ch=1 n=f6 v=87
282938 On ch=1 n=a4 v=26
282960 Off ch=1 n=e6 v=64
283108 On ch=1 n=d5 v=53
283144 Par ch=1 c=64 v=127
283190 Off ch=1 n=a4 v=64
283214 Off ch=1 n=d4 v=64
283234 On ch=1 n=f5 v=44
283256 Off ch=1 n=f6 v=64
283256 Off ch=1 n=d5 v=64
283284 Off ch=1 n=f5 v=64
283326 On ch=1 n=f6 v=75
283428 On ch=1 n=a4 v=24
283458 On ch=1 n=c4 v=20
283466 Par ch=1 c=64 v=0
283486 On ch=1 n=f#6 v=75
283508 Off ch=1 n=f6 v=64
283654 Off ch=1 n=c4 v=64
283666 Par ch=1 c=64 v=127
283671 On ch=1 n=d5 v=42
283724 Off ch=1 n=a4 v=64
283760 Off ch=1 n=d5 v=64
283780 On ch=1 n=f#5 v=45
283798 Off ch=1 n=f#6 v=64
283858 Off ch=1 n=f#5 v=64
283898 On ch=1 n=f#6 v=59
284046 On ch=1 n=b3 v=31
284050 On ch=1 n=g4 v=33
284096 Par ch=1 c=64 v=0
284122 Off ch=1 n=f#6 v=64
284134 On ch=1 n=g6 v=59
284298 Off ch=1 n=b3 v=64
284312 Par ch=1 c=64 v=127
284370 Off ch=1 n=g4 v=64
284388 Off ch=1 n=g6 v=64
284408 On ch=1 n=d5 v=38
284574 Off ch=1 n=d5 v=64
284594 On ch=1 n=f5 v=44
284662 Off ch=1 n=f5 v=64
284794 On ch=1 n=g5 v=51
284912 Off ch=1 n=g5 v=64
284924 On ch=1 n=b5 v=51
284970 On ch=1 n=a5 v=61
284994 Off ch=1 n=b5 v=64
284996 On ch=1 n=g4 v=16
285012 On ch=1 n=d4 v=31
285176 On ch=1 n=b4 v=31
285234 Off ch=1 n=g4 v=64
285258 On ch=1 n=f5 v=34
285268 Off ch=1 n=d4 v=64
285306 Off ch=1 n=b4 v=64
285354 Off ch=1 n=f5 v=64
285372 On ch=1 n=g5 v=53
285482 Off ch=1 n=a5 v=64
285492 On ch=1 n=c4 v=35
285502 On ch=1 n=g4 v=21
285510 Par ch=1 c=64 v=0
285512 Off ch=1 n=g5 v=64
285518 On ch=1 n=c6 v=48
285658 Off ch=1 n=g4 v=64
285674 Off ch=1 n=c4 v=64
285680 Par ch=1 c=64 v=127
285680 On ch=1 n=c5 v=39
285748 Off ch=1 n=c5 v=64
285768 Off ch=1 n=c6 v=64
285776 On ch=1 n=e5 v=53
285846 Off ch=1 n=e5 v=64
285860 On ch=1 n=c6 v=42
285992 On ch=1 n=e3 v=55
286006 On ch=1 n=c4 v=26
286006 On ch=1 n=g5 v=65
286028 Off ch=1 n=c6 v=64
286094 Off ch=1 n=e3 v=64
286192 On ch=1 n=g4 v=41
286254 Off ch=1 n=g4 v=64
286276 On ch=1 n=c5 v=45
286294 Off ch=1 n=g5 v=64
286374 On ch=1 n=g5 v=61
286400 Off ch=1 n=c5 v=64
286464 Par ch=1 c=64 v=0
286467 On ch=1 n=f3 v=70
286516 On ch=1 n=a5 v=68
286538 Off ch=1 n=g5 v=64
286628 Off ch=1 n=f3 v=64
286640 Par ch=1 c=64 v=127
286690 On ch=1 n=a4 v=55
286742 Off ch=1 n=a4 v=64
286754 Off ch=1 n=a5 v=64
286798 On ch=1 n=c5 v=43
286804 Off ch=1 n=c4 v=64
286870 Off ch=1 n=c5 v=64
286878 On ch=1 n=a5 v=47
287000 Par ch=1 c=64 v=0
287002 On ch=1 n=d3 v=63
287022 On ch=1 n=f5 v=66
287042 Off ch=1 n=a5 v=64
287104 Off ch=1 n=d3 v=64
287124 Par ch=1 c=64 v=127
287218 On ch=1 n=f4 v=32
287278 Off ch=1 n=f5 v=64
287281 On ch=1 n=c5 v=50
287284 Off ch=1 n=f4 v=64
287356 Off ch=1 n=c5 v=64
287386 On ch=1 n=f5 v=54
287494 On ch=1 n=g3 v=44
287508 Par ch=1 c=64 v=0
287534 On ch=1 n=c4 v=19
287540 On ch=1 n=d5 v=65
287548 Off ch=1 n=f5 v=64
287618 Off ch=1 n=c4 v=64
287688 On ch=1 n=f4 v=56
287708 Off ch=1 n=g3 v=64
287708 Par ch=1 c=64 v=127
287746 Off ch=1 n=f4 v=64
287798 Off ch=1 n=d5 v=64
287808 On ch=1 n=c5 v=48
287886 Off ch=1 n=c5 v=64
287902 On ch=1 n=d5 v=44
288014 Par ch=1 c=64 v=0
288026 On ch=1 n=b3 v=30
288032 On ch=1 n=g3 v=45
288038 Off ch=1 n=d5 v=64
288054 On ch=1 n=g5 v=59
288160 Off ch=1 n=b3 v=64
288230 Par ch=1 c=64 v=127
288250 On ch=1 n=f4 v=41
288314 Off ch=1 n=f4 v=64
288328 Off ch=1 n=g5 v=64
288358 On ch=1 n=b4 v=42
288364 Off ch=1 n=g3 v=64
288428 Off ch=1 n=b4 v=64
288500 On ch=1 n=g5 v=43
288598 Par ch=1 c=64 v=0
288606 On ch=1 n=c3 v=41
288674 On ch=1 n=g3 v=34
288680 Off ch=1 n=g5 v=64
288704 On ch=1 n=e5 v=45
288838 Off ch=1 n=c3 v=64
288844 Par ch=1 c=64 v=127
288896 Off ch=1 n=g3 v=64
288950 On ch=1 n=e4 v=41
289044 Off ch=1 n=e4 v=64
289090 Off ch=1 n=e5 v=64
289116 On ch=1 n=c5 v=41
289212 Off ch=1 n=c5 v=64
289266 On ch=1 n=g5 v=58
289334 Off ch=1 n=g5 v=64
289334 On ch=1 n=b5 v=57
289388 On ch=1 n=a5 v=51
289398 Par ch=1 c=64 v=0
289398 On ch=1 n=d4 v=46
289436 On ch=1 n=g4 v=30
289452 Off ch=1 n=b5 v=64
289586 Off ch=1 n=g4 v=64
289590 On ch=1 n=b4 v=34
289612 Par ch=1 c=64 v=127
289654 Off ch=1 n=b4 v=64
289668 On ch=1 n=f5 v=36
289674 Off ch=1 n=d4 v=64
289736 Off ch=1 n=f5 v=64
289760 On ch=1 n=g5 v=59
289826 Off ch=1 n=a5 v=64
289844 Par ch=1 c=64 v=0
289870 On ch=1 n=c6 v=63
289872 Off ch=1 n=g5 v=64
289876 On ch=1 n=c4 v=36
289892 On ch=1 n=g4 v=36
290032 Off ch=1 n=c4 v=64
290042 Par ch=1 c=64 v=127
290044 On ch=1 n=c5 v=29
290082 Off ch=1 n=g4 v=64
290118 Off ch=1 n=c6 v=64
290118 Off ch=1 n=c5 v=64
290128 On ch=1 n=e5 v=43
290192 Off ch=1 n=e5 v=64
290220 On ch=1 n=c6 v=31
290304 Par ch=1 c=64 v=0
290344 On ch=1 n=e3 v=70
290344 On ch=1 n=c4 v=39
290370 Off ch=1 n=c6 v=64
290376 On ch=1 n=g5 v=48
290438 Off ch=1 n=e3 v=64
290472 Par ch=1 c=64 v=127
290586 Off ch=1 n=g5 v=64
290652 On ch=1 n=c5 v=23
290736 On ch=1 n=g5 v=57
290744 Off ch=1 n=c5 v=64
290810 Par ch=1 c=64 v=0
290838 On ch=1 n=f3 v=55
290884 On ch=1 n=a5 v=45
290888 Off ch=1 n=g5 v=64
290982 Off ch=1 n=f3 v=64
291010 Off ch=1 n=c4 v=64
291012 Par ch=1 c=64 v=127
291076 On ch=1 n=a4 v=18
291112 Off ch=1 n=a5 v=64
291140 Off ch=1 n=a4 v=64
291170 On ch=1 n=c5 v=27
291254 Off ch=1 n=c5 v=64
291272 On ch=1 n=a5 v=33
291364 Par ch=1 c=64 v=0
291370 On ch=1 n=d3 v=37
291378 Off ch=1 n=a5 v=64
291434 On ch=1 n=f5 v=42
291488 Off ch=1 n=d3 v=64
291502 Par ch=1 c=64 v=127
291570 On ch=1 n=f4 v=51
291638 Off ch=1 n=f4 v=64
291686 Off ch=1 n=f5 v=64
291714 On ch=1 n=c5 v=32
291796 Off ch=1 n=c5 v=64
291796 On ch=1 n=f5 v=39
291948 On ch=1 n=g3 v=39
291948 Par ch=1 c=64 v=0
291988 On ch=1 n=c4 v=19
292016 Off ch=1 n=f5 v=64
292019 On ch=1 n=d5 v=34
292136 Off ch=1 n=c4 v=64
292162 Par ch=1 c=64 v=127
292168 Off ch=1 n=g3 v=64
292192 On ch=1 n=f4 v=39
292260 Off ch=1 n=f4 v=64
292314 Off ch=1 n=d5 v=64
292339 On ch=1 n=c5 v=32
292506 Off ch=1 n=c5 v=64
292522 On ch=1 n=d5 v=42
292670 On ch=1 n=g3 v=17
292686 Par ch=1 c=64 v=0
292692 On ch=1 n=b3 v=8
292780 On ch=1 n=g5 v=28
292782 Off ch=1 n=d5 v=64
292984 Off ch=1 n=g3 v=64
292992 Par ch=1 c=64 v=127
293014 On ch=1 n=f4 v=46
293078 Off ch=1 n=b3 v=64
293100 Off ch=1 n=f4 v=64
293190 Off ch=1 n=g5 v=64
293314 On ch=1 n=b4 v=32
293706 On ch=1 n=g5 v=30
293942 Off ch=1 n=b4 v=64
294250 On ch=1 n=c3 v=4
294436 Off ch=1 n=c3 v=64
294640 On ch=1 n=c3 v=31
294778 On ch=1 n=g3 v=22
295070 On ch=1 n=c5 v=30
295104 On ch=1 n=e4 v=28
295112 Par ch=1 c=64 v=0
295866 Par ch=1 c=64 v=127
295964 Off ch=1 n=g3 v=64
296182 Off ch=1 n=e4 v=64
296418 Off ch=1 n=c3 v=64
296780 Off ch=1 n=c5 v=64
297006 Off ch=1 n=g5 v=64
297432 Par ch=1 c=64 v=0
297832 Par ch=1 c=64 v=127
297910 On ch=1 n=e6 v=65
297928 On ch=1 n=c5 v=26
297950 On ch=1 n=f4 v=37
298702 On ch=1 n=e5 v=21
299200 On ch=1 n=a5 v=20
299624 On ch=1 n=c6 v=22
299710 Off ch=1 n=e5 v=64
299976 On ch=1 n=d6 v=51
300162 Off ch=1 n=e6 v=64
300258 Off ch=1 n=a5 v=64
300330 Off ch=1 n=c6 v=64
300334 On ch=1 n=d5 v=25
300676 Par ch=1 c=64 v=0
300702 On ch=1 n=a5 v=16
300922 Par ch=1 c=64 v=127
301108 Off ch=1 n=d5 v=64
301214 On ch=1 n=c6 v=17
301296 Off ch=1 n=a5 v=64
301850 Off ch=1 n=c6 v=64
301978 On ch=1 n=d5 v=18
302224 Off ch=1 n=d5 v=64
302306 On ch=1 n=a5 v=19
302540 Off ch=1 n=a5 v=64
302652 On ch=1 n=c6 v=16
302752 Off ch=1 n=d6 v=64
302754 Off ch=1 n=c6 v=64
303226 On ch=1 n=f6 v=88
303654 On ch=1 n=f5 v=23
304036 On ch=1 n=a5 v=29
304350 Off ch=1 n=a5 v=64
304390 On ch=1 n=c6 v=34
304514 Off ch=1 n=f5 v=64
304550 Off ch=1 n=c6 v=64
304722 On ch=1 n=e6 v=78
305020 Off ch=1 n=f6 v=64
305102 On ch=1 n=e5 v=27
305146 Par ch=1 c=64 v=0
305284 Par ch=1 c=64 v=127
305438 On ch=1 n=a5 v=20
305526 Off ch=1 n=e5 v=64
305854 On ch=1 n=c6 v=24
306346 On ch=1 n=d6 v=48
306578 Off ch=1 n=e6 v=64
306606 Off ch=1 n=a5 v=64
306692 Off ch=1 n=c6 v=64
306730 On ch=1 n=d5 v=20
307106 On ch=1 n=a5 v=12
307114 Par ch=1 c=64 v=0
307312 Par ch=1 c=64 v=127
307524 Off ch=1 n=d5 v=64
307554 On ch=1 n=c6 v=19
307876 Off ch=1 n=a5 v=64
308236 On ch=1 n=d5 v=18
308484 Off ch=1 n=c6 v=64
308620 On ch=1 n=a5 v=19
308720 Off ch=1 n=c5 v=64
308870 Off ch=1 n=a5 v=64
309002 On ch=1 n=c6 v=23
309034 Off ch=1 n=d5 v=64
309084 Off ch=1 n=d6 v=64
309166 Off ch=1 n=c6 v=64
309556 Off ch=1 n=f4 v=64
309608 On ch=1 n=c5 v=14
309636 On ch=1 n=f4 v=31
309768 On ch=1 n=a6 v=40
309848 Par ch=1 c=64 v=0
310032 Par ch=1 c=64 v=127
310132 Off ch=1 n=c5 v=64
310370 On ch=1 n=a5 v=12
310466 Off ch=1 n=a5 v=64
310820 On ch=1 n=a5 v=15
311352 On ch=1 n=f5 v=4
311386 Off ch=1 n=a5 v=64
311456 On ch=1 n=f6 v=42
311538 Off ch=1 n=f5 v=64
311592 Off ch=1 n=a6 v=64
312044 On ch=1 n=e6 v=42
312080 On ch=1 n=c5 v=24
312118 Off ch=1 n=f6 v=64
312470 On ch=1 n=e5 v=16
312878 On ch=1 n=a5 v=19
313228 On ch=1 n=c6 v=25
313412 Off ch=1 n=e5 v=64
313432 Off ch=1 n=c6 v=64
313580 On ch=1 n=d6 v=51
313748 Off ch=1 n=a5 v=64
313840 Off ch=1 n=e6 v=64
313912 Off ch=1 n=c5 v=64
313922 On ch=1 n=d5 v=24
314242 On ch=1 n=a5 v=27
314364 Par ch=1 c=64 v=0
314474 Par ch=1 c=64 v=127
314570 On ch=1 n=c6 v=46
314580 Off ch=1 n=d5 v=64
314642 Off ch=1 n=d6 v=64
314904 On ch=1 n=d6 v=68
315034 Off ch=1 n=a5 v=64
315110 Off ch=1 n=c6 v=64
315402 On ch=1 n=d5 v=26
315436 Off ch=1 n=f4 v=64
315672 On ch=1 n=e6 v=49
315710 Off ch=1 n=d6 v=64
315926 On ch=1 n=d6 v=69
315986 Off ch=1 n=e6 v=64
316072 Off ch=1 n=d5 v=64
316140 On ch=1 n=c6 v=71
316160 On ch=1 n=a5 v=28
316186 Off ch=1 n=d6 v=64
316338 On ch=1 n=d6 v=78
316394 Off ch=1 n=c6 v=64
316448 On ch=1 n=f#4 v=34
316556 On ch=1 n=c5 v=24
316688 On ch=1 n=e6 v=72
316758 Off ch=1 n=d6 v=64
316854 Par ch=1 c=64 v=0
316894 Off ch=1 n=a5 v=64
317064 On ch=1 n=e5 v=35
317376 Par ch=1 c=64 v=127
317594 Off ch=1 n=e5 v=64
317604 On ch=1 n=a5 v=29
317698 Off ch=1 n=c5 v=64
318114 On ch=1 n=c6 v=62
318212 Off ch=1 n=f#4 v=64
318220 Off ch=1 n=e6 v=64
318598 On ch=1 n=g4 v=39
318598 On ch=1 n=c5 v=21
318778 On ch=1 n=e6 v=69
318874 Off ch=1 n=a5 v=64
319088 Off ch=1 n=c6 v=64
319220 Par ch=1 c=64 v=0
319226 On ch=1 n=e5 v=33
319574 Par ch=1 c=64 v=127
319658 On ch=1 n=g5 v=29
319768 Off ch=1 n=e5 v=64
319986 Off ch=1 n=c5 v=64
320092 On ch=1 n=c6 v=24
320156 Off ch=1 n=g5 v=64
320268 On ch=1 n=c5 v=2
320814 On ch=1 n=e5 v=23
320822 Off ch=1 n=c6 v=64
321234 On ch=1 n=g5 v=19
321682 On ch=1 n=c6 v=19
321956 Off ch=1 n=e5 v=64
322250 On ch=1 n=d6 v=26
322364 Off ch=1 n=e6 v=64
322466 Off ch=1 n=g5 v=64
322646 On ch=1 n=d5 v=11
322770 Par ch=1 c=64 v=0
322924 Off ch=1 n=c6 v=64
322986 Par ch=1 c=64 v=127
323142 On ch=1 n=g5 v=13
323658 On ch=1 n=c6 v=22
323740 Off ch=1 n=g5 v=64
323762 Off ch=1 n=d5 v=64
324466 On ch=1 n=d5 v=14
324486 Off ch=1 n=c6 v=64
324894 On ch=1 n=g5 v=12
324966 Par ch=1 c=64 v=0
325058 Off ch=1 n=c5 v=64
325136 Par ch=1 c=64 v=127
325402 On ch=1 n=b5 v=24
325440 Off ch=1 n=g4 v=64
325450 Off ch=1 n=g5 v=64
325586 Off ch=1 n=d5 v=64
325648 Off ch=1 n=b5 v=64
325728 Off ch=1 n=d6 v=64
326228 On ch=1 n=f6 v=70
326230 On ch=1 n=d4 v=20
326238 On ch=1 n=a4 v=16
326426 Par ch=1 c=64 v=0
326708 On ch=1 n=d5 v=25
326980 Par ch=1 c=64 v=127
327092 On ch=1 n=f5 v=23
327164 Off ch=1 n=a4 v=64
327346 Off ch=1 n=f5 v=64
327568 On ch=1 n=a5 v=17
327612 Off ch=1 n=d5 v=64
327848 Off ch=1 n=a5 v=64
328200 On ch=1 n=d6 v=54
328203 On ch=1 n=f4 v=45
328232 On ch=1 n=a4 v=5
328400 Off ch=1 n=d4 v=64
328440 Off ch=1 n=f6 v=64
328696 On ch=1 n=d5 v=24
329080 On ch=1 n=f5 v=22
329180 Off ch=1 n=a4 v=64
329380 Off ch=1 n=f5 v=64
329400 Off ch=1 n=d5 v=64
329508 On ch=1 n=a5 v=16
329832 Off ch=1 n=a5 v=64
330224 On ch=1 n=d5 v=16
330620 On ch=1 n=f5 v=19
330686 Off ch=1 n=d5 v=64
330938 Off ch=1 n=f5 v=64
330982 Off ch=1 n=f4 v=64
331036 On ch=1 n=a5 v=10
331234 Off ch=1 n=a5 v=64
331456 On ch=1 n=g#3 v=43
331586 On ch=1 n=b5 v=74
331692 Off ch=1 n=d6 v=64
331750 On ch=1 n=f4 v=14
331774 Par ch=1 c=64 v=0
331928 Par ch=1 c=64 v=127
331980 On ch=1 n=b4 v=31
332316 Off ch=1 n=b4 v=64
332338 On ch=1 n=d5 v=33
332470 Off ch=1 n=f4 v=64
332552 Off ch=1 n=d5 v=64
332682 On ch=1 n=f5 v=18
332744 Off ch=1 n=g#3 v=64
332980 Off ch=1 n=f5 v=64
333004 On ch=1 n=a3 v=34
333018 On ch=1 n=c6 v=52
333028 On ch=1 n=e4 v=30
333136 Off ch=1 n=b5 v=64
333356 Par ch=1 c=64 v=0
333418 On ch=1 n=a4 v=21
333740 Par ch=1 c=64 v=127
333832 On ch=1 n=c5 v=22
333984 Off ch=1 n=e4 v=64
334152 Off ch=1 n=a4 v=64
334218 Off ch=1 n=c5 v=64
334242 On ch=1 n=e5 v=28
334686 On ch=1 n=g5 v=31
334708 On ch=1 n=b3 v=26
334720 On ch=1 n=d4 v=28
334738 Off ch=1 n=e5 v=64
334748 Off ch=1 n=a3 v=64
334832 Par ch=1 c=64 v=0
334976 Off ch=1 n=c6 v=64
335170 On ch=1 n=g4 v=29
335278 Par ch=1 c=64 v=127
335544 Off ch=1 n=g4 v=64
335604 On ch=1 n=d5 v=25
336068 Off ch=1 n=d5 v=64
336240 On ch=1 n=f5 v=24
337188 Off ch=1 n=f5 v=64
337340 On ch=1 n=g4 v=15
337796 On ch=1 n=d5 v=11
338104 Off ch=1 n=d4 v=64
338346 On ch=1 n=f5 v=16
338442 Off ch=1 n=g4 v=64
338656 Off ch=1 n=g5 v=64
338810 Off ch=1 n=b3 v=64
338926 On ch=1 n=g5 v=48
338936 On ch=1 n=c4 v=27
338958 On ch=1 n=e4 v=15
338976 Off ch=1 n=d5 v=64
339126 Off ch=1 n=f5 v=64
339364 Par ch=1 c=64 v=0
339369 On ch=1 n=g4 v=34
339580 Par ch=1 c=64 v=127
339796 On ch=1 n=c5 v=29
339842 Off ch=1 n=e4 v=64
339878 Off ch=1 n=g4 v=64
340242 On ch=1 n=e5 v=32
340258 Off ch=1 n=c5 v=64
340282 Off ch=1 n=c4 v=64
340822 Off ch=1 n=e5 v=64
340872 On ch=1 n=f3 v=46
340888 On ch=1 n=c#4 v=27
340898 On ch=1 n=a5 v=44
341040 Par ch=1 c=64 v=0
341098 Off ch=1 n=g5 v=64
341284 Par ch=1 c=64 v=127
341378 Off ch=1 n=f3 v=64
341552 On ch=1 n=a4 v=20
342084 On ch=1 n=c#5 v=33
342676 On ch=1 n=e5 v=27
342756 Off ch=1 n=c#5 v=64
343058 Off ch=1 n=e5 v=64
343086 Off ch=1 n=c#4 v=64
343562 On ch=1 n=d4 v=28
344050 On ch=1 n=d5 v=27
344266 Par ch=1 c=64 v=0
344404 Par ch=1 c=64 v=127
344610 On ch=1 n=f5 v=21
344984 Off ch=1 n=a5 v=64
345460 Off ch=1 n=d4 v=64
345476 On ch=1 n=g5 v=34
345530 On ch=1 n=d4 v=28
345540 On ch=1 n=g3 v=43
345622 Off ch=1 n=a4 v=64
345634 Par ch=1 c=64 v=0
345940 Par ch=1 c=64 v=127
346134 On ch=1 n=f4 v=63
346148 Off ch=1 n=d4 v=64
346810 On ch=1 n=b4 v=53
346912 Off ch=1 n=d5 v=64
347536 On ch=1 n=d5 v=59
347692 Off ch=1 n=f5 v=64
348162 Off ch=1 n=b4 v=64
348476 On ch=1 n=f5 v=50
349150 Off ch=1 n=g5 v=64
349206 Off ch=1 n=d5 v=64
349870 Off ch=1 n=f5 v=64
350290 On ch=1 n=g5 v=82
350698 On ch=1 n=b5 v=83
350792 On ch=1 n=a5 v=76
350890 Off ch=1 n=b5 v=64
350964 Off ch=1 n=g5 v=64
351180 Par ch=1 c=64 v=0
351394 Par ch=1 c=64 v=127
351868 Off ch=1 n=f4 v=64
352380 On ch=1 n=g5 v=78
352542 Off ch=1 n=a5 v=64
352582 On ch=1 n=c3 v=70
353134 On ch=1 n=e6 v=71
353134 On ch=1 n=e4 v=63
353316 Par ch=1 c=64 v=0
353854 Par ch=1 c=64 v=127
354014 Off ch=1 n=g5 v=64
354854 On ch=1 n=g5 v=29
355484 Off ch=1 n=e6 v=64
355602 On ch=1 n=e5 v=20
355766 Off ch=1 n=g5 v=64
356180 Off ch=1 n=e5 v=64
356200 On ch=1 n=c5 v=37
356578 Off ch=1 n=e4 v=64
356664 Off ch=1 n=c5 v=64
356738 On ch=1 n=g4 v=26
357178 Off ch=1 n=g4 v=64
357332 On ch=1 n=e4 v=28
357378 Off ch=1 n=g3 v=64
357946 Off ch=1 n=e4 v=64
357964 On ch=1 n=c4 v=20
358660 Off ch=1 n=c3 v=64
358734 On ch=1 n=g3 v=25
358988 Off ch=1 n=c4 v=64
360340 On ch=1 n=c3 v=25
360366 Off ch=1 n=g3 v=64
364264 Off ch=1 n=c3 v=64
365070 Par ch=1 c=64 v=0
366720 Par ch=1 c=64 v=0
366720 Meta TrkEnd
TrkEnd
