MFile 1 5 120
MTrk
0 TimeSig 4/4 24 8
0 KeySig 0 major
0 Tempo 555556
4326 Tempo 566038
7878 Tempo 555556
15148 Tempo 571429
15455 Tempo 555556
17331 Tempo 631579
17564 Tempo 555556
31530 Tempo 521739
39129 Tempo 555556
55440 Tempo 545455
59210 Tempo 550459
64750 Tempo 560748
65766 Tempo 545455
75020 Tempo 521739
75480 Tempo 545455
75480 Meta TrkEnd
TrkEnd
MTrk
0 Meta 0x21 00
0 Meta TrkName "Blumenstuck Op 19"
0 PrCh ch=1 p=0
0 Par ch=1 c=7 v=127
0 Par ch=1 c=10 v=64
372 Par ch=1 c=91 v=115
376 Par ch=1 c=64 v=40
380 Par ch=1 c=64 v=72
384 Par ch=1 c=64 v=104
389 Par ch=1 c=64 v=127
393 On ch=1 n=g#5 v=69
400 On ch=1 n=g#3 v=42
460 On ch=1 n=f#5 v=44
460 On ch=1 n=c5 v=38
461 On ch=1 n=g#5 v=0
494 On ch=1 n=c5 v=0
506 On ch=1 n=g#3 v=0
510 On ch=1 n=f#5 v=0
516 On ch=1 n=g#5 v=78
524 On ch=1 n=c#4 v=42
529 Par ch=1 c=64 v=24
533 Par ch=1 c=64 v=0
562 Par ch=1 c=64 v=72
566 Par ch=1 c=64 v=127
572 On ch=1 n=c#5 v=42
573 On ch=1 n=g#5 v=0
578 On ch=1 n=f5 v=48
609 On ch=1 n=c#5 v=0
618 On ch=1 n=f5 v=0
620 On ch=1 n=c#4 v=0
621 On ch=1 n=c#6 v=85
632 On ch=1 n=f4 v=44
675 On ch=1 n=g#5 v=49
675 On ch=1 n=c#5 v=36
691 On ch=1 n=c#6 v=0
717 On ch=1 n=c#5 v=0
725 On ch=1 n=c6 v=88
726 On ch=1 n=f4 v=0
733 On ch=1 n=f#4 v=42
735 On ch=1 n=g#5 v=0
740 Par ch=1 c=64 v=104
744 Par ch=1 c=64 v=24
748 Par ch=1 c=64 v=0
764 Par ch=1 c=64 v=56
768 Par ch=1 c=64 v=127
777 On ch=1 n=c#5 v=32
781 On ch=1 n=f#5 v=37
806 On ch=1 n=c6 v=0
824 On ch=1 n=c#5 v=0
824 On ch=1 n=a#5 v=82
825 On ch=1 n=f#4 v=0
827 On ch=1 n=f#5 v=0
827 On ch=1 n=a#4 v=46
836 Par ch=1 c=64 v=104
840 Par ch=1 c=64 v=40
844 Par ch=1 c=64 v=0
856 Par ch=1 c=64 v=56
860 Par ch=1 c=64 v=127
873 On ch=1 n=c#5 v=27
874 On ch=1 n=f#5 v=42
903 On ch=1 n=c#5 v=0
907 On ch=1 n=a#5 v=0
924 On ch=1 n=f#5 v=0
928 On ch=1 n=g#5 v=72
932 On ch=1 n=a#4 v=0
934 On ch=1 n=c5 v=51
941 Par ch=1 c=64 v=88
945 Par ch=1 c=64 v=0
978 Par ch=1 c=64 v=88
982 Par ch=1 c=64 v=127
986 On ch=1 n=d#5 v=34
988 On ch=1 n=f#5 v=30
1023 On ch=1 n=d#5 v=0
1029 On ch=1 n=f#5 v=0
1030 On ch=1 n=c4 v=60
1085 On ch=1 n=d#5 v=39
1085 On ch=1 n=f#5 v=37
1122 On ch=1 n=f#5 v=0
1135 On ch=1 n=c4 v=0
1139 On ch=1 n=c#4 v=53
1146 On ch=1 n=d#5 v=0
1151 Par ch=1 c=64 v=88
1155 Par ch=1 c=64 v=0
1180 On ch=1 n=c5 v=0
1183 Par ch=1 c=64 v=88
1187 Par ch=1 c=64 v=127
1209 On ch=1 n=c#5 v=32
1211 On ch=1 n=f5 v=37
1219 On ch=1 n=g#5 v=0
1222 On ch=1 n=c#4 v=0
1230 On ch=1 n=f5 v=0
1254 On ch=1 n=c#5 v=0
1268 On ch=1 n=g#5 v=77
1280 On ch=1 n=d4 v=41
1284 Par ch=1 c=64 v=104
1288 Par ch=1 c=64 v=0
1324 Par ch=1 c=64 v=88
1326 On ch=1 n=b4 v=48
1328 Par ch=1 c=64 v=127
1334 On ch=1 n=f5 v=33
1368 On ch=1 n=f5 v=0
1368 On ch=1 n=g#5 v=0
1375 On ch=1 n=b4 v=0
1375 On ch=1 n=f#5 v=73
1379 On ch=1 n=d4 v=0
1385 On ch=1 n=d#4 v=51
1389 Par ch=1 c=64 v=40
1393 Par ch=1 c=64 v=0
1408 Par ch=1 c=64 v=24
1413 Par ch=1 c=64 v=88
1417 Par ch=1 c=64 v=127
1425 On ch=1 n=a#4 v=32
1428 On ch=1 n=d#5 v=44
1439 On ch=1 n=f#5 v=0
1465 On ch=1 n=d#5 v=0
1472 On ch=1 n=a#4 v=0
1474 On ch=1 n=f5 v=74
1482 On ch=1 n=d#4 v=0
1485 On ch=1 n=f4 v=42
1494 Par ch=1 c=64 v=72
1498 Par ch=1 c=64 v=24
1502 Par ch=1 c=64 v=0
1514 Par ch=1 c=64 v=56
1518 Par ch=1 c=64 v=127
1527 On ch=1 n=a#4 v=33
1528 On ch=1 n=d5 v=49
1563 On ch=1 n=d5 v=0
1565 On ch=1 n=f5 v=0
1569 On ch=1 n=a#4 v=0
1571 On ch=1 n=f4 v=0
1573 On ch=1 n=d#5 v=75
1577 On ch=1 n=f#4 v=40
1582 Par ch=1 c=64 v=72
1586 Par ch=1 c=64 v=0
1602 Par ch=1 c=64 v=72
1607 Par ch=1 c=64 v=127
1621 On ch=1 n=a#4 v=45
1664 On ch=1 n=a#4 v=0
1668 On ch=1 n=d#5 v=0
1668 On ch=1 n=c#5 v=75
1679 On ch=1 n=g3 v=39
1679 Par ch=1 c=64 v=40
1683 Par ch=1 c=64 v=0
1689 On ch=1 n=f#4 v=0
1699 Par ch=1 c=64 v=24
1703 Par ch=1 c=64 v=104
1708 Par ch=1 c=64 v=127
1722 On ch=1 n=a#4 v=45
1723 On ch=1 n=d#5 v=56
1730 On ch=1 n=c#5 v=0
1758 On ch=1 n=a#4 v=0
1760 On ch=1 n=g3 v=0
1767 On ch=1 n=d#5 v=0
1768 On ch=1 n=c5 v=77
1778 On ch=1 n=g#3 v=29
1788 Par ch=1 c=64 v=72
1792 Par ch=1 c=64 v=0
1824 Par ch=1 c=64 v=72
1826 On ch=1 n=g#4 v=29
1828 Par ch=1 c=64 v=127
1831 On ch=1 n=d#5 v=45
1838 On ch=1 n=c5 v=0
1875 On ch=1 n=g#4 v=0
1877 On ch=1 n=g#3 v=0
1877 On ch=1 n=a#4 v=65
1881 On ch=1 n=a#3 v=43
1882 On ch=1 n=d#5 v=0
1896 Par ch=1 c=64 v=24
1901 Par ch=1 c=64 v=0
1921 Par ch=1 c=64 v=72
1925 Par ch=1 c=64 v=127
1943 On ch=1 n=d#5 v=44
1949 On ch=1 n=a#4 v=0
1950 On ch=1 n=g4 v=35
1976 On ch=1 n=d#5 v=0
1977 On ch=1 n=g4 v=0
1999 On ch=1 n=g#4 v=62
2011 On ch=1 n=a#3 v=0
2012 On ch=1 n=c4 v=38
2018 Par ch=1 c=64 v=24
2022 Par ch=1 c=64 v=0
2045 Par ch=1 c=64 v=56
2050 Par ch=1 c=64 v=127
2066 On ch=1 n=f#4 v=44
2067 On ch=1 n=d#5 v=52
2068 On ch=1 n=g#4 v=0
2080 On ch=1 n=f#4 v=0
2082 On ch=1 n=d#5 v=0
2083 On ch=1 n=c4 v=0
2140 On ch=1 n=g#5 v=80
2144 On ch=1 n=g#3 v=42
2149 On ch=1 n=f4 v=45
2167 Par ch=1 c=64 v=40
2171 Par ch=1 c=64 v=0
2191 Par ch=1 c=64 v=88
2196 Par ch=1 c=64 v=127
2214 On ch=1 n=d#4 v=50
2215 On ch=1 n=f#5 v=55
2217 On ch=1 n=f4 v=0
2217 On ch=1 n=c5 v=47
2220 On ch=1 n=g#5 v=0
2224 On ch=1 n=g#3 v=0
2227 On ch=1 n=d#4 v=0
2241 On ch=1 n=c5 v=0
2270 On ch=1 n=f#5 v=0
2270 On ch=1 n=c#3 v=52
2287 On ch=1 n=g#5 v=75
2296 Par ch=1 c=64 v=72
2297 On ch=1 n=c#4 v=46
2300 Par ch=1 c=64 v=0
2320 Par ch=1 c=64 v=56
2324 Par ch=1 c=64 v=127
2333 On ch=1 n=c#3 v=0
2350 On ch=1 n=c#5 v=42
2353 On ch=1 n=g#5 v=0
2353 On ch=1 n=f5 v=53
2357 On ch=1 n=c#4 v=0
2382 On ch=1 n=c#5 v=0
2383 On ch=1 n=f5 v=0
2396 On ch=1 n=c#6 v=87
2402 On ch=1 n=f4 v=54
2416 On ch=1 n=f4 v=0
2444 On ch=1 n=c#5 v=38
2449 On ch=1 n=g#5 v=52
2461 On ch=1 n=c#6 v=0
2481 On ch=1 n=c#5 v=0
2486 On ch=1 n=f#3 v=49
2498 Par ch=1 c=64 v=56
2502 On ch=1 n=c6 v=83
2502 Par ch=1 c=64 v=0
2514 On ch=1 n=g#5 v=0
2517 On ch=1 n=f#4 v=47
2531 On ch=1 n=f#3 v=0
2534 Par ch=1 c=64 v=127
2556 On ch=1 n=c#5 v=36
2560 On ch=1 n=f#5 v=46
2582 On ch=1 n=c6 v=0
2583 On ch=1 n=f#4 v=0
2597 On ch=1 n=c#5 v=0
2601 On ch=1 n=a#5 v=82
2606 On ch=1 n=f#5 v=0
2606 On ch=1 n=a#4 v=39
2642 On ch=1 n=a#4 v=0
2645 On ch=1 n=c#5 v=40
2647 On ch=1 n=f#5 v=44
2688 On ch=1 n=c#5 v=0
2696 On ch=1 n=a#5 v=0
2704 On ch=1 n=g#5 v=76
2710 On ch=1 n=f#5 v=0
2715 On ch=1 n=c4 v=48
2724 Par ch=1 c=64 v=40
2728 Par ch=1 c=64 v=0
2761 On ch=1 n=f#5 v=46
2762 On ch=1 n=d#5 v=39
2763 Par ch=1 c=64 v=88
2767 Par ch=1 c=64 v=127
2799 On ch=1 n=d#5 v=0
2802 On ch=1 n=f#5 v=0
2808 On ch=1 n=g#4 v=56
2866 On ch=1 n=f#5 v=43
2868 On ch=1 n=d#5 v=38
2902 On ch=1 n=c4 v=0
2909 On ch=1 n=f#5 v=0
2922 On ch=1 n=d#5 v=0
2925 On ch=1 n=c#4 v=36
2938 Par ch=1 c=64 v=56
2942 Par ch=1 c=64 v=0
2961 Par ch=1 c=64 v=72
2966 Par ch=1 c=64 v=127
2978 On ch=1 n=c#5 v=27
2982 On ch=1 n=f5 v=49
2983 On ch=1 n=g#5 v=0
2988 On ch=1 n=c#4 v=0
3000 On ch=1 n=f5 v=0
3029 On ch=1 n=c#5 v=0
3041 On ch=1 n=g#4 v=0
3058 On ch=1 n=g#5 v=78
3063 On ch=1 n=d4 v=39
3079 Par ch=1 c=64 v=40
3083 Par ch=1 c=64 v=0
3110 Par ch=1 c=64 v=24
3114 On ch=1 n=b4 v=47
3115 Par ch=1 c=64 v=104
3117 On ch=1 n=f5 v=44
3119 Par ch=1 c=64 v=127
3152 On ch=1 n=f5 v=0
3160 On ch=1 n=b4 v=0
3160 On ch=1 n=g#5 v=0
3165 On ch=1 n=f#5 v=76
3171 On ch=1 n=d4 v=0
3172 On ch=1 n=d#4 v=58
3180 Par ch=1 c=64 v=40
3184 Par ch=1 c=64 v=0
3207 Par ch=1 c=64 v=72
3212 Par ch=1 c=64 v=127
3218 On ch=1 n=d#5 v=56
3218 On ch=1 n=a#4 v=36
3228 On ch=1 n=f#5 v=0
3255 On ch=1 n=d#5 v=0
3261 On ch=1 n=a#4 v=0
3267 On ch=1 n=f5 v=72
3272 On ch=1 n=d#4 v=0
3279 On ch=1 n=f4 v=40
3288 Par ch=1 c=64 v=72
3292 Par ch=1 c=64 v=24
3296 Par ch=1 c=64 v=0
3313 Par ch=1 c=64 v=72
3317 Par ch=1 c=64 v=127
3318 On ch=1 n=d5 v=53
3318 On ch=1 n=a#4 v=37
3350 On ch=1 n=f5 v=0
3354 On ch=1 n=d5 v=0
3361 On ch=1 n=a#4 v=0
3368 On ch=1 n=f4 v=0
3368 On ch=1 n=d#5 v=69
3375 On ch=1 n=f#4 v=48
3381 Par ch=1 c=64 v=56
3385 Par ch=1 c=64 v=0
3418 Par ch=1 c=64 v=127
3420 On ch=1 n=a#4 v=40
3466 On ch=1 n=a#4 v=0
3476 On ch=1 n=f5 v=69
3480 On ch=1 n=d#5 v=0
3485 On ch=1 n=g#3 v=47
3486 On ch=1 n=f#4 v=0
3486 Par ch=1 c=64 v=88
3490 Par ch=1 c=64 v=0
3514 Par ch=1 c=64 v=88
3518 Par ch=1 c=64 v=127
3530 On ch=1 n=f5 v=0
3536 On ch=1 n=g#4 v=33
3537 On ch=1 n=c5 v=54
3567 On ch=1 n=c5 v=0
3589 On ch=1 n=g#4 v=0
3596 On ch=1 n=g#3 v=0
3596 On ch=1 n=c#5 v=68
3600 On ch=1 n=c#4 v=42
3611 Par ch=1 c=64 v=88
3615 Par ch=1 c=64 v=0
3643 Par ch=1 c=64 v=72
3648 Par ch=1 c=64 v=127
3655 On ch=1 n=g#4 v=36
3656 On ch=1 n=f4 v=48
3689 On ch=1 n=c#5 v=0
3702 On ch=1 n=f4 v=0
3720 On ch=1 n=a#4 v=58
3721 On ch=1 n=c#4 v=0
3724 On ch=1 n=g#3 v=39
3735 Par ch=1 c=64 v=24
3739 Par ch=1 c=64 v=0
3763 On ch=1 n=g#4 v=0
3764 Par ch=1 c=64 v=88
3768 Par ch=1 c=64 v=127
3790 On ch=1 n=f#4 v=40
3794 On ch=1 n=c#5 v=35
3823 On ch=1 n=a#4 v=0
3824 On ch=1 n=c#5 v=0
3827 On ch=1 n=f#4 v=0
3855 On ch=1 n=g#3 v=0
3882 On ch=1 n=c#5 v=51
3887 On ch=1 n=c#4 v=35
3888 On ch=1 n=f4 v=38
3888 On ch=1 n=g#4 v=32
3888 On ch=1 n=c#3 v=39
3902 Par ch=1 c=64 v=104
3906 Par ch=1 c=64 v=40
3910 Par ch=1 c=64 v=0
3946 Par ch=1 c=64 v=127
3964 On ch=1 n=c#3 v=0
3968 On ch=1 n=f4 v=0
3974 On ch=1 n=c#4 v=0
3978 On ch=1 n=g#4 v=0
3991 On ch=1 n=c#5 v=0
4095 On ch=1 n=g#5 v=72
4098 On ch=1 n=g#3 v=40
4115 Par ch=1 c=64 v=88
4119 Par ch=1 c=64 v=0
4148 Par ch=1 c=64 v=104
4152 Par ch=1 c=64 v=127
4166 On ch=1 n=c5 v=43
4167 On ch=1 n=f#5 v=48
4175 On ch=1 n=g#5 v=0
4192 On ch=1 n=c5 v=0
4196 On ch=1 n=g#3 v=0
4214 On ch=1 n=f#5 v=0
4222 On ch=1 n=g#5 v=77
4229 On ch=1 n=c#4 v=46
4240 Par ch=1 c=64 v=56
4244 Par ch=1 c=64 v=0
4272 Par ch=1 c=64 v=88
4276 Par ch=1 c=64 v=127
4277 On ch=1 n=c#5 v=37
4280 On ch=1 n=f5 v=49
4298 On ch=1 n=g#5 v=0
4313 On ch=1 n=c#5 v=0
4318 On ch=1 n=f5 v=0
4326 On ch=1 n=c#6 v=86
4328 On ch=1 n=c#4 v=0
4334 On ch=1 n=f4 v=50
4341 Par ch=1 c=64 v=72
4345 Par ch=1 c=64 v=0
4357 Par ch=1 c=64 v=24
4361 Par ch=1 c=64 v=88
4365 Par ch=1 c=64 v=127
4373 On ch=1 n=c#5 v=39
4376 On ch=1 n=g#5 v=51
4388 On ch=1 n=c#6 v=0
4415 On ch=1 n=c#5 v=0
4422 On ch=1 n=f4 v=0
4423 On ch=1 n=c6 v=88
4425 On ch=1 n=f#4 v=62
4431 On ch=1 n=g#5 v=0
4442 Par ch=1 c=64 v=56
4446 Par ch=1 c=64 v=0
4470 Par ch=1 c=64 v=127
4476 On ch=1 n=c#5 v=37
4477 On ch=1 n=f#5 v=48
4497 On ch=1 n=c6 v=0
4520 On ch=1 n=c#5 v=0
4522 On ch=1 n=f#4 v=0
4524 On ch=1 n=a#5 v=77
4525 On ch=1 n=f#5 v=0
4527 On ch=1 n=a#4 v=57
4543 Par ch=1 c=64 v=40
4547 Par ch=1 c=64 v=0
4562 Par ch=1 c=64 v=40
4566 Par ch=1 c=64 v=104
4571 Par ch=1 c=64 v=127
4572 On ch=1 n=c#5 v=35
4574 On ch=1 n=f#5 v=48
4588 On ch=1 n=a#5 v=0
4593 On ch=1 n=c#5 v=0
4619 On ch=1 n=f#5 v=0
4622 On ch=1 n=a#4 v=0
4624 On ch=1 n=g#5 v=71
4627 On ch=1 n=c5 v=65
4636 Par ch=1 c=64 v=72
4640 Par ch=1 c=64 v=0
4672 Par ch=1 c=64 v=88
4676 Par ch=1 c=64 v=127
4678 On ch=1 n=d#5 v=40
4679 On ch=1 n=f#5 v=46
4724 Par ch=1 c=64 v=40
4728 Par ch=1 c=64 v=0
4730 On ch=1 n=c4 v=70
4737 On ch=1 n=d#5 v=0
4742 On ch=1 n=f#5 v=0
4744 Par ch=1 c=64 v=56
4748 Par ch=1 c=64 v=127
4787 On ch=1 n=f#5 v=40
4788 On ch=1 n=d#5 v=34
4824 On ch=1 n=f#5 v=0
4838 On ch=1 n=c4 v=0
4839 On ch=1 n=c5 v=0
4841 On ch=1 n=c#4 v=65
4850 On ch=1 n=d#5 v=0
4857 Par ch=1 c=64 v=104
4861 Par ch=1 c=64 v=40
4865 Par ch=1 c=64 v=0
4898 Par ch=1 c=64 v=72
4902 Par ch=1 c=64 v=127
4910 On ch=1 n=c#5 v=40
4915 On ch=1 n=f5 v=47
4920 On ch=1 n=g#5 v=0
4932 On ch=1 n=f5 v=0
4942 On ch=1 n=c#5 v=0
4954 On ch=1 n=c#4 v=0
4977 On ch=1 n=g#5 v=81
4982 On ch=1 n=d4 v=52
4994 Par ch=1 c=64 v=104
4998 Par ch=1 c=64 v=24
5002 Par ch=1 c=64 v=0
5023 Par ch=1 c=64 v=24
5027 Par ch=1 c=64 v=88
5031 Par ch=1 c=64 v=127
5032 On ch=1 n=b4 v=44
5035 On ch=1 n=f5 v=43
5071 On ch=1 n=f5 v=0
5074 On ch=1 n=d4 v=0
5075 On ch=1 n=g#5 v=0
5076 On ch=1 n=b4 v=0
5081 On ch=1 n=f#5 v=78
5083 On ch=1 n=d#4 v=48
5095 Par ch=1 c=64 v=72
5099 Par ch=1 c=64 v=0
5124 Par ch=1 c=64 v=56
5128 Par ch=1 c=64 v=127
5132 On ch=1 n=a#4 v=33
5133 On ch=1 n=d#5 v=44
5147 On ch=1 n=f#5 v=0
5164 On ch=1 n=d#5 v=0
5171 On ch=1 n=a#4 v=0
5178 On ch=1 n=f5 v=70
5179 On ch=1 n=d#4 v=0
5187 On ch=1 n=f4 v=41
5199 Par ch=1 c=64 v=88
5204 Par ch=1 c=64 v=0
5228 On ch=1 n=a#4 v=27
5228 Par ch=1 c=64 v=72
5229 On ch=1 n=d5 v=50
5232 Par ch=1 c=64 v=127
5266 On ch=1 n=f5 v=0
5269 On ch=1 n=d5 v=0
5270 On ch=1 n=f4 v=0
5276 On ch=1 n=a#4 v=0
5278 On ch=1 n=d#5 v=70
5281 On ch=1 n=f#4 v=37
5289 Par ch=1 c=64 v=56
5293 Par ch=1 c=64 v=0
5305 Par ch=1 c=64 v=56
5309 Par ch=1 c=64 v=127
5327 On ch=1 n=a#4 v=40
5362 On ch=1 n=d#5 v=0
5374 On ch=1 n=a#4 v=0
5375 On ch=1 n=c#5 v=76
5379 On ch=1 n=f#4 v=0
5382 On ch=1 n=g3 v=52
5386 Par ch=1 c=64 v=72
5390 Par ch=1 c=64 v=0
5410 Par ch=1 c=64 v=56
5414 Par ch=1 c=64 v=104
5418 Par ch=1 c=64 v=127
5424 On ch=1 n=d#5 v=72
5429 On ch=1 n=a#4 v=49
5434 On ch=1 n=c#5 v=0
5468 On ch=1 n=g3 v=0
5468 On ch=1 n=a#4 v=0
5474 On ch=1 n=c5 v=79
5480 On ch=1 n=d#5 v=0
5480 On ch=1 n=g#3 v=37
5486 Par ch=1 c=64 v=88
5490 Par ch=1 c=64 v=0
5515 Par ch=1 c=64 v=56
5519 Par ch=1 c=64 v=127
5529 On ch=1 n=g#4 v=44
5530 On ch=1 n=d#5 v=54
5532 On ch=1 n=c5 v=0
5568 On ch=1 n=g#4 v=0
5581 On ch=1 n=g#3 v=0
5581 On ch=1 n=a#4 v=64
5583 On ch=1 n=d#5 v=0
5586 On ch=1 n=a#3 v=39
5600 Par ch=1 c=64 v=40
5604 Par ch=1 c=64 v=0
5628 Par ch=1 c=64 v=104
5632 Par ch=1 c=64 v=127
5646 On ch=1 n=a#4 v=0
5646 On ch=1 n=g4 v=47
5647 On ch=1 n=d#5 v=42
5680 On ch=1 n=g4 v=0
5681 On ch=1 n=d#5 v=0
5701 On ch=1 n=g#4 v=60
5709 On ch=1 n=a#3 v=0
5710 On ch=1 n=c4 v=41
5728 Par ch=1 c=64 v=56
5732 Par ch=1 c=64 v=0
5757 Par ch=1 c=64 v=72
5761 Par ch=1 c=64 v=127
5773 On ch=1 n=f#4 v=45
5776 On ch=1 n=d#5 v=42
5782 On ch=1 n=g#4 v=0
5790 On ch=1 n=f#4 v=0
5794 On ch=1 n=d#5 v=0
5812 On ch=1 n=c4 v=0
5852 On ch=1 n=g#5 v=75
5862 On ch=1 n=f4 v=39
5862 On ch=1 n=g#3 v=28
5874 Par ch=1 c=64 v=104
5878 Par ch=1 c=64 v=24
5881 Par ch=1 c=64 v=0
5894 Par ch=1 c=64 v=24
5898 Par ch=1 c=64 v=88
5902 Par ch=1 c=64 v=127
5921 On ch=1 n=d#4 v=58
5923 On ch=1 n=f4 v=0
5923 On ch=1 n=c5 v=47
5926 On ch=1 n=f#5 v=48
5927 On ch=1 n=g#5 v=0
5929 On ch=1 n=g#3 v=0
5931 On ch=1 n=d#4 v=0
5943 On ch=1 n=c5 v=0
5974 On ch=1 n=f#5 v=0
5980 On ch=1 n=c#3 v=46
5989 On ch=1 n=g#5 v=76
5999 Par ch=1 c=64 v=24
6003 Par ch=1 c=64 v=0
6008 On ch=1 n=c#4 v=51
6018 Par ch=1 c=64 v=56
6022 Par ch=1 c=64 v=127
6034 On ch=1 n=c#3 v=0
6046 On ch=1 n=c#5 v=45
6047 On ch=1 n=f5 v=56
6049 On ch=1 n=g#5 v=0
6064 On ch=1 n=c#4 v=0
6084 On ch=1 n=c#5 v=0
6088 On ch=1 n=f5 v=0
6099 On ch=1 n=c#6 v=91
6103 On ch=1 n=f4 v=62
6114 On ch=1 n=f4 v=0
6148 On ch=1 n=c#5 v=37
6150 On ch=1 n=g#5 v=44
6162 On ch=1 n=c#6 v=0
6181 On ch=1 n=c#5 v=0
6183 On ch=1 n=f#3 v=50
6192 Par ch=1 c=64 v=88
6196 Par ch=1 c=64 v=0
6199 On ch=1 n=c6 v=88
6208 On ch=1 n=g#5 v=0
6214 On ch=1 n=f#4 v=38
6223 On ch=1 n=f#3 v=0
6225 Par ch=1 c=64 v=104
6229 Par ch=1 c=64 v=127
6243 On ch=1 n=c#5 v=39
6248 On ch=1 n=f#5 v=47
6270 On ch=1 n=f#4 v=0
6272 On ch=1 n=c6 v=0
6287 On ch=1 n=c#5 v=0
6294 On ch=1 n=a#5 v=82
6295 On ch=1 n=f#5 v=0
6300 On ch=1 n=a#4 v=39
6320 On ch=1 n=a#4 v=0
6338 On ch=1 n=c#5 v=36
6341 On ch=1 n=f#5 v=51
6367 On ch=1 n=c#5 v=0
6381 On ch=1 n=a#5 v=0
6396 On ch=1 n=f#5 v=0
6399 On ch=1 n=g#5 v=73
6408 On ch=1 n=c4 v=45
6430 Par ch=1 c=64 v=88
6434 Par ch=1 c=64 v=0
6458 On ch=1 n=d#5 v=37
6458 On ch=1 n=f#5 v=42
6471 Par ch=1 c=64 v=88
6475 Par ch=1 c=64 v=127
6505 On ch=1 n=g#4 v=52
6507 On ch=1 n=f#5 v=0
6507 On ch=1 n=d#5 v=0
6512 On ch=1 n=c4 v=0
6558 On ch=1 n=d#5 v=39
6560 On ch=1 n=f#5 v=37
6609 On ch=1 n=f#5 v=0
6619 On ch=1 n=c#4 v=33
6623 On ch=1 n=d#5 v=0
6632 Par ch=1 c=64 v=72
6636 Par ch=1 c=64 v=0
6659 Par ch=1 c=64 v=56
6664 Par ch=1 c=64 v=127
6683 On ch=1 n=c#5 v=30
6687 On ch=1 n=c#4 v=0
6689 On ch=1 n=f5 v=37
6690 On ch=1 n=g#5 v=0
6700 On ch=1 n=f5 v=0
6737 On ch=1 n=c#5 v=0
6749 On ch=1 n=g#4 v=0
6756 On ch=1 n=g#5 v=73
6766 On ch=1 n=d4 v=53
6773 Par ch=1 c=64 v=88
6777 Par ch=1 c=64 v=0
6805 Par ch=1 c=64 v=56
6809 Par ch=1 c=64 v=127
6812 On ch=1 n=b4 v=52
6816 On ch=1 n=f5 v=58
6849 On ch=1 n=f5 v=0
6851 On ch=1 n=g#5 v=0
6856 On ch=1 n=b4 v=0
6863 On ch=1 n=f#5 v=77
6868 On ch=1 n=d4 v=0
6869 On ch=1 n=d#4 v=62
6878 Par ch=1 c=64 v=88
6882 Par ch=1 c=64 v=40
6886 Par ch=1 c=64 v=24
6897 Par ch=1 c=64 v=104
6901 Par ch=1 c=64 v=127
6911 On ch=1 n=a#4 v=33
6915 On ch=1 n=d#5 v=45
6922 On ch=1 n=f#5 v=0
6942 On ch=1 n=d#5 v=0
6950 On ch=1 n=a#4 v=0
6958 On ch=1 n=f5 v=78
6959 On ch=1 n=d#4 v=0
6969 On ch=1 n=f4 v=44
6975 Par ch=1 c=64 v=104
6979 Par ch=1 c=64 v=24
6983 Par ch=1 c=64 v=0
7014 On ch=1 n=d5 v=58
7015 On ch=1 n=a#4 v=30
7015 Par ch=1 c=64 v=88
7019 Par ch=1 c=64 v=127
7020 On ch=1 n=f5 v=0
7054 On ch=1 n=d5 v=0
7060 On ch=1 n=a#4 v=0
7068 On ch=1 n=d#5 v=70
7070 On ch=1 n=f4 v=0
7072 Par ch=1 c=64 v=104
7074 On ch=1 n=f#4 v=46
7076 Par ch=1 c=64 v=0
7099 Par ch=1 c=64 v=88
7104 Par ch=1 c=64 v=127
7120 On ch=1 n=a#4 v=34
7172 On ch=1 n=d#5 v=0
7173 On ch=1 n=a#4 v=0
7179 On ch=1 n=f5 v=68
7186 On ch=1 n=g#3 v=42
7188 On ch=1 n=f#4 v=0
7205 Par ch=1 c=64 v=72
7209 Par ch=1 c=64 v=0
7237 Par ch=1 c=64 v=127
7241 On ch=1 n=f5 v=0
7242 On ch=1 n=g#4 v=35
7250 On ch=1 n=c5 v=52
7271 On ch=1 n=c5 v=0
7298 On ch=1 n=g#4 v=0
7308 On ch=1 n=c#5 v=69
7310 On ch=1 n=g#3 v=0
7318 On ch=1 n=c#4 v=40
7334 Par ch=1 c=64 v=56
7338 Par ch=1 c=64 v=0
7362 Par ch=1 c=64 v=72
7366 Par ch=1 c=64 v=127
7368 On ch=1 n=f4 v=45
7370 On ch=1 n=g#4 v=48
7413 On ch=1 n=f4 v=0
7416 On ch=1 n=c#5 v=0
7440 On ch=1 n=a#4 v=59
7449 On ch=1 n=g#3 v=30
7453 On ch=1 n=c#4 v=0
7462 On ch=1 n=g#4 v=0
7471 Par ch=1 c=64 v=40
7475 Par ch=1 c=64 v=0
7503 Par ch=1 c=64 v=127
7529 On ch=1 n=f#4 v=39
7533 On ch=1 n=c#5 v=42
7591 On ch=1 n=c#5 v=0
7593 On ch=1 n=a#4 v=0
7604 On ch=1 n=f#4 v=0
7657 On ch=1 n=g#4 v=22
7657 On ch=1 n=c#5 v=55
7663 On ch=1 n=f4 v=33
7664 On ch=1 n=c#4 v=22
7667 On ch=1 n=g#3 v=0
7670 On ch=1 n=c#3 v=18
7693 Par ch=1 c=64 v=56
7697 Par ch=1 c=64 v=0
7732 Par ch=1 c=64 v=88
7736 On ch=1 n=g#4 v=0
7736 Par ch=1 c=64 v=127
7752 On ch=1 n=c#3 v=0
7759 On ch=1 n=f4 v=0
7764 On ch=1 n=c#4 v=0
7779 On ch=1 n=c#5 v=0
7854 Par ch=1 c=64 v=56
7858 Par ch=1 c=64 v=0
7874 Par ch=1 c=64 v=88
7878 On ch=1 n=c4 v=44
7878 Par ch=1 c=64 v=127
7889 On ch=1 n=c4 v=0
7901 On ch=1 n=c5 v=55
7905 On ch=1 n=a#4 v=38
7930 On ch=1 n=a#4 v=0
7932 On ch=1 n=c5 v=0
7935 On ch=1 n=e5 v=44
7945 On ch=1 n=c6 v=89
7953 On ch=1 n=e5 v=0
8015 On ch=1 n=c6 v=0
8019 On ch=1 n=g5 v=62
8038 On ch=1 n=g5 v=0
8085 On ch=1 n=c6 v=92
8092 On ch=1 n=g#4 v=36
8099 On ch=1 n=f4 v=40
8104 Par ch=1 c=64 v=56
8108 Par ch=1 c=64 v=0
8132 Par ch=1 c=64 v=127
8143 On ch=1 n=f5 v=48
8146 On ch=1 n=c6 v=0
8149 On ch=1 n=f4 v=0
8175 On ch=1 n=f5 v=0
8195 On ch=1 n=f6 v=93
8201 On ch=1 n=g#5 v=50
8221 On ch=1 n=g#5 v=0
8229 On ch=1 n=g#4 v=0
8247 On ch=1 n=f5 v=51
8279 On ch=1 n=f6 v=0
8281 On ch=1 n=a#3 v=55
8290 Par ch=1 c=64 v=56
8294 Par ch=1 c=64 v=0
8300 On ch=1 n=f5 v=0
8303 On ch=1 n=d#6 v=89
8310 Par ch=1 c=64 v=88
8314 Par ch=1 c=64 v=127
8317 On ch=1 n=a#3 v=0
8318 On ch=1 n=c5 v=36
8352 On ch=1 n=f5 v=53
8354 On ch=1 n=d#6 v=0
8394 On ch=1 n=f5 v=0
8404 On ch=1 n=c#6 v=84
8406 On ch=1 n=c5 v=0
8408 On ch=1 n=c#5 v=56
8446 On ch=1 n=c#5 v=0
8450 On ch=1 n=f5 v=58
8458 On ch=1 n=c#6 v=0
8484 On ch=1 n=f5 v=0
8505 On ch=1 n=c6 v=84
8515 Par ch=1 c=64 v=56
8518 On ch=1 n=c4 v=54
8518 On ch=1 n=g4 v=30
8519 Par ch=1 c=64 v=0
8544 On ch=1 n=c6 v=0
8544 Par ch=1 c=64 v=56
8548 Par ch=1 c=64 v=127
8556 On ch=1 n=a#5 v=79
8561 On ch=1 n=e5 v=63
8569 On ch=1 n=e5 v=0
8596 On ch=1 n=a#5 v=0
8606 On ch=1 n=g#5 v=80
8617 On ch=1 n=a#4 v=29
8625 On ch=1 n=g4 v=0
8634 On ch=1 n=c4 v=0
8640 On ch=1 n=g#5 v=0
8656 On ch=1 n=g5 v=85
8660 On ch=1 n=e5 v=55
8670 On ch=1 n=e5 v=0
8679 On ch=1 n=g5 v=0
8707 On ch=1 n=a#4 v=0
8710 On ch=1 n=f5 v=77
8714 On ch=1 n=g#4 v=45
8726 On ch=1 n=f4 v=37
8737 Par ch=1 c=64 v=104
8741 Par ch=1 c=64 v=0
8768 On ch=1 n=c5 v=55
8770 Par ch=1 c=64 v=56
8774 Par ch=1 c=64 v=127
8789 On ch=1 n=f5 v=0
8805 On ch=1 n=c5 v=0
8827 On ch=1 n=f5 v=76
8836 On ch=1 n=a4 v=45
8840 On ch=1 n=g#4 v=0
8846 Par ch=1 c=64 v=56
8850 Par ch=1 c=64 v=0
8862 Par ch=1 c=64 v=56
8866 Par ch=1 c=64 v=127
8880 On ch=1 n=f5 v=0
8882 On ch=1 n=d#5 v=40
8884 On ch=1 n=c5 v=39
8905 On ch=1 n=c5 v=0
8912 On ch=1 n=f4 v=0
8921 On ch=1 n=d#5 v=0
8931 On ch=1 n=f5 v=75
8939 Par ch=1 c=64 v=104
8939 On ch=1 n=a#3 v=37
8943 Par ch=1 c=64 v=0
8975 Par ch=1 c=64 v=127
8985 On ch=1 n=c#5 v=52
8993 On ch=1 n=a4 v=0
9027 On ch=1 n=c#5 v=0
9036 On ch=1 n=a#5 v=71
9037 On ch=1 n=a#4 v=73
9055 On ch=1 n=a#3 v=0
9082 On ch=1 n=a#5 v=0
9086 On ch=1 n=c#5 v=47
9123 On ch=1 n=c#5 v=0
9127 On ch=1 n=f5 v=0
9136 On ch=1 n=g#5 v=73
9139 On ch=1 n=a#4 v=0
9142 On ch=1 n=g#4 v=53
9144 On ch=1 n=d#4 v=44
9157 Par ch=1 c=64 v=88
9161 Par ch=1 c=64 v=0
9190 On ch=1 n=a#4 v=29
9193 Par ch=1 c=64 v=104
9194 On ch=1 n=d#5 v=43
9196 Par ch=1 c=64 v=127
9216 On ch=1 n=g#5 v=0
9231 On ch=1 n=g#4 v=0
9239 On ch=1 n=a#4 v=0
9244 On ch=1 n=f#5 v=68
9246 On ch=1 n=f#4 v=53
9251 On ch=1 n=d#5 v=0
9258 Par ch=1 c=64 v=40
9262 Par ch=1 c=64 v=0
9274 Par ch=1 c=64 v=56
9278 Par ch=1 c=64 v=127
9289 On ch=1 n=a#4 v=36
9290 On ch=1 n=f#5 v=0
9318 On ch=1 n=f#4 v=0
9318 On ch=1 n=a#4 v=0
9347 On ch=1 n=f5 v=64
9355 On ch=1 n=f4 v=40
9358 Par ch=1 c=64 v=56
9362 Par ch=1 c=64 v=0
9370 Par ch=1 c=64 v=24
9374 Par ch=1 c=64 v=88
9378 Par ch=1 c=64 v=127
9388 On ch=1 n=f5 v=0
9396 On ch=1 n=d#4 v=0
9398 On ch=1 n=d#5 v=69
9401 On ch=1 n=f4 v=0
9410 On ch=1 n=a4 v=35
9440 On ch=1 n=a4 v=0
9448 On ch=1 n=d#5 v=0
9454 On ch=1 n=c#5 v=64
9461 On ch=1 n=d#4 v=34
9463 Par ch=1 c=64 v=104
9467 Par ch=1 c=64 v=40
9469 On ch=1 n=f3 v=40
9471 Par ch=1 c=64 v=0
9475 Par ch=1 c=64 v=24
9479 Par ch=1 c=64 v=72
9483 Par ch=1 c=64 v=127
9489 On ch=1 n=c#5 v=0
9502 On ch=1 n=c5 v=74
9508 On ch=1 n=a4 v=38
9537 On ch=1 n=a4 v=0
9553 On ch=1 n=c5 v=0
9564 On ch=1 n=f3 v=0
9566 On ch=1 n=d#4 v=0
9572 On ch=1 n=a#4 v=59
9576 On ch=1 n=a#3 v=40
9576 On ch=1 n=c#4 v=35
9583 Par ch=1 c=64 v=104
9588 Par ch=1 c=64 v=0
9620 Par ch=1 c=64 v=104
9624 Par ch=1 c=64 v=127
9634 On ch=1 n=c#4 v=0
9640 On ch=1 n=a#4 v=0
9641 On ch=1 n=f4 v=49
9643 On ch=1 n=a#3 v=0
9675 On ch=1 n=f4 v=0
9704 On ch=1 n=c5 v=77
9710 On ch=1 n=a4 v=53
9710 On ch=1 n=f3 v=40
9721 Par ch=1 c=64 v=72
9725 Par ch=1 c=64 v=0
9741 On ch=1 n=a4 v=0
9742 Par ch=1 c=64 v=72
9746 Par ch=1 c=64 v=127
9757 On ch=1 n=d#4 v=40
9760 On ch=1 n=f3 v=0
9761 On ch=1 n=c5 v=0
9761 On ch=1 n=f4 v=56
9793 On ch=1 n=f4 v=0
9796 On ch=1 n=d#4 v=0
9808 On ch=1 n=c#5 v=79
9810 On ch=1 n=c#4 v=48
9812 On ch=1 n=a#4 v=56
9812 On ch=1 n=a#3 v=44
9814 Par ch=1 c=64 v=72
9818 Par ch=1 c=64 v=0
9826 Par ch=1 c=64 v=24
9830 Par ch=1 c=64 v=72
9831 On ch=1 n=c#4 v=0
9834 Par ch=1 c=64 v=127
9835 On ch=1 n=a#3 v=0
9857 On ch=1 n=a#4 v=0
9859 On ch=1 n=c#5 v=0
9862 On ch=1 n=f4 v=63
9877 On ch=1 n=f4 v=0
9912 On ch=1 n=d#5 v=83
9918 On ch=1 n=g#3 v=53
9919 On ch=1 n=c5 v=60
9919 Par ch=1 c=64 v=88
9923 Par ch=1 c=64 v=0
9945 On ch=1 n=c5 v=0
9947 Par ch=1 c=64 v=72
9951 Par ch=1 c=64 v=127
9955 On ch=1 n=g#3 v=0
9960 On ch=1 n=f#4 v=63
9963 On ch=1 n=d#5 v=0
9963 On ch=1 n=g#4 v=65
9992 On ch=1 n=g#4 v=0
9994 On ch=1 n=f#4 v=0
10012 On ch=1 n=f5 v=87
10015 On ch=1 n=c#5 v=69
10015 Par ch=1 c=64 v=104
10018 On ch=1 n=f4 v=62
10020 Par ch=1 c=64 v=0
10021 On ch=1 n=c#4 v=48
10036 On ch=1 n=f4 v=0
10040 Par ch=1 c=64 v=56
10042 On ch=1 n=c#4 v=0
10044 Par ch=1 c=64 v=127
10052 On ch=1 n=c#5 v=0
10061 On ch=1 n=f5 v=0
10061 On ch=1 n=g#4 v=69
10077 On ch=1 n=g#4 v=0
10114 On ch=1 n=g5 v=86
10120 On ch=1 n=c4 v=66
10123 On ch=1 n=e5 v=49
10125 Par ch=1 c=64 v=56
10129 Par ch=1 c=64 v=0
10153 Par ch=1 c=64 v=104
10156 Par ch=1 c=64 v=127
10172 On ch=1 n=e5 v=0
10172 On ch=1 n=c4 v=0
10174 On ch=1 n=c5 v=68
10175 On ch=1 n=a#4 v=47
10177 On ch=1 n=g5 v=0
10215 On ch=1 n=c5 v=0
10234 On ch=1 n=a#4 v=0
10238 On ch=1 n=a5 v=78
10240 On ch=1 n=f5 v=48
10241 On ch=1 n=a4 v=49
10251 On ch=1 n=f4 v=32
10261 Par ch=1 c=64 v=72
10266 Par ch=1 c=64 v=0
10286 Par ch=1 c=64 v=56
10290 Par ch=1 c=64 v=127
10295 On ch=1 n=f5 v=0
10300 On ch=1 n=c5 v=55
10309 On ch=1 n=a5 v=0
10324 On ch=1 n=a4 v=0
10332 On ch=1 n=c5 v=0
10371 On ch=1 n=a#5 v=72
10379 On ch=1 n=e5 v=53
10380 On ch=1 n=g4 v=44
10411 Par ch=1 c=64 v=24
10415 Par ch=1 c=64 v=0
10431 Par ch=1 c=64 v=127
10449 On ch=1 n=f4 v=0
10455 On ch=1 n=e5 v=0
10467 On ch=1 n=a#4 v=52
10497 On ch=1 n=g4 v=0
10525 On ch=1 n=a#4 v=0
10528 On ch=1 n=a#5 v=0
10577 On ch=1 n=d#5 v=35
10578 On ch=1 n=c6 v=69
10585 On ch=1 n=f3 v=30
10585 On ch=1 n=f4 v=25
10604 Par ch=1 c=64 v=24
10609 Par ch=1 c=64 v=0
10625 Par ch=1 c=64 v=72
10629 Par ch=1 c=64 v=127
10664 On ch=1 n=c6 v=0
10730 On ch=1 n=a4 v=37
10811 On ch=1 n=f4 v=0
10816 On ch=1 n=f3 v=0
10822 On ch=1 n=a4 v=0
10871 On ch=1 n=d#5 v=0
10980 On ch=1 n=g#2 v=37
10997 Par ch=1 c=64 v=88
10998 On ch=1 n=g#5 v=72
11001 Par ch=1 c=64 v=0
11005 On ch=1 n=g#3 v=37
11029 Par ch=1 c=64 v=56
11032 On ch=1 n=g#2 v=0
11034 Par ch=1 c=64 v=127
11038 On ch=1 n=g#3 v=0
11058 On ch=1 n=g#5 v=0
11066 On ch=1 n=f#5 v=45
11068 On ch=1 n=g#4 v=44
11068 On ch=1 n=d#5 v=34
11100 On ch=1 n=d#5 v=0
11102 On ch=1 n=f#5 v=0
11112 On ch=1 n=g#4 v=0
11124 On ch=1 n=c#3 v=45
11131 On ch=1 n=g#5 v=73
11142 Par ch=1 c=64 v=104
11146 Par ch=1 c=64 v=24
11149 On ch=1 n=c#4 v=48
11150 Par ch=1 c=64 v=0
11162 Par ch=1 c=64 v=104
11166 Par ch=1 c=64 v=127
11168 On ch=1 n=c#3 v=0
11189 On ch=1 n=c#5 v=51
11192 On ch=1 n=g#5 v=0
11193 On ch=1 n=f5 v=67
11200 On ch=1 n=c#4 v=0
11208 On ch=1 n=c#5 v=0
11215 On ch=1 n=f5 v=0
11241 On ch=1 n=c#6 v=91
11244 On ch=1 n=f4 v=64
11255 On ch=1 n=f4 v=0
11288 On ch=1 n=c#5 v=54
11292 On ch=1 n=g#5 v=63
11299 On ch=1 n=c#6 v=0
11323 On ch=1 n=c#5 v=0
11323 On ch=1 n=f#3 v=53
11340 Par ch=1 c=64 v=24
11344 Par ch=1 c=64 v=0
11346 On ch=1 n=c6 v=89
11352 On ch=1 n=f#4 v=40
11358 On ch=1 n=g#5 v=0
11360 On ch=1 n=f#3 v=0
11363 Par ch=1 c=64 v=72
11368 Par ch=1 c=64 v=127
11393 On ch=1 n=c#5 v=45
11394 On ch=1 n=f#5 v=54
11412 On ch=1 n=f#4 v=0
11413 On ch=1 n=c6 v=0
11427 On ch=1 n=c#5 v=0
11437 On ch=1 n=f#5 v=0
11439 On ch=1 n=a#5 v=80
11443 On ch=1 n=a#4 v=49
11464 On ch=1 n=a#4 v=0
11485 On ch=1 n=c#5 v=43
11487 On ch=1 n=f#5 v=60
11504 On ch=1 n=a#5 v=0
11515 On ch=1 n=c#5 v=0
11532 On ch=1 n=f#5 v=0
11540 On ch=1 n=g#5 v=77
11550 On ch=1 n=c4 v=51
11557 Par ch=1 c=64 v=24
11562 Par ch=1 c=64 v=0
11592 On ch=1 n=d#5 v=49
11594 On ch=1 n=f#5 v=49
11594 Par ch=1 c=64 v=104
11598 Par ch=1 c=64 v=127
11639 On ch=1 n=g#4 v=61
11641 On ch=1 n=d#5 v=0
11652 On ch=1 n=f#5 v=0
11690 On ch=1 n=c4 v=0
11696 On ch=1 n=d#5 v=39
11698 On ch=1 n=f#5 v=38
11734 On ch=1 n=f#5 v=0
11743 On ch=1 n=c#4 v=48
11751 On ch=1 n=d#5 v=0
11760 Par ch=1 c=64 v=56
11764 Par ch=1 c=64 v=0
11788 Par ch=1 c=64 v=56
11792 Par ch=1 c=64 v=127
11800 On ch=1 n=c#5 v=36
11802 On ch=1 n=f5 v=42
11811 On ch=1 n=g#5 v=0
11817 On ch=1 n=c#4 v=0
11817 On ch=1 n=f5 v=0
11846 On ch=1 n=g#4 v=0
11850 On ch=1 n=c#5 v=0
11867 On ch=1 n=g#5 v=73
11876 On ch=1 n=d4 v=49
11892 Par ch=1 c=64 v=88
11896 Par ch=1 c=64 v=0
11921 Par ch=1 c=64 v=104
11925 On ch=1 n=f5 v=47
11925 Par ch=1 c=64 v=127
11926 On ch=1 n=b4 v=46
11954 On ch=1 n=g#5 v=0
11963 On ch=1 n=f5 v=0
11964 On ch=1 n=b4 v=0
11971 On ch=1 n=f#5 v=76
11974 On ch=1 n=d4 v=0
11977 On ch=1 n=d#4 v=64
11985 Par ch=1 c=64 v=40
11989 Par ch=1 c=64 v=0
12006 Par ch=1 c=64 v=24
12010 Par ch=1 c=64 v=88
12014 Par ch=1 c=64 v=127
12018 On ch=1 n=d#5 v=50
12018 On ch=1 n=a#4 v=37
12026 On ch=1 n=f#5 v=0
12058 On ch=1 n=a#4 v=0
12059 On ch=1 n=d#5 v=0
12066 On ch=1 n=f5 v=82
12069 On ch=1 n=d#4 v=0
12074 On ch=1 n=f4 v=54
12078 Par ch=1 c=64 v=72
12082 Par ch=1 c=64 v=0
12097 Par ch=1 c=64 v=24
12102 Par ch=1 c=64 v=88
12106 Par ch=1 c=64 v=127
12113 On ch=1 n=d5 v=59
12115 On ch=1 n=a#4 v=34
12150 On ch=1 n=d5 v=0
12150 On ch=1 n=f5 v=0
12155 On ch=1 n=a#4 v=0
12158 On ch=1 n=d#5 v=77
12163 On ch=1 n=f4 v=0
12167 On ch=1 n=f#4 v=56
12175 Par ch=1 c=64 v=72
12179 Par ch=1 c=64 v=24
12183 Par ch=1 c=64 v=0
12194 Par ch=1 c=64 v=72
12199 Par ch=1 c=64 v=127
12208 On ch=1 n=a#4 v=55
12250 On ch=1 n=a#4 v=0
12254 On ch=1 n=d#5 v=0
12254 On ch=1 n=c#5 v=76
12262 On ch=1 n=g3 v=44
12268 Par ch=1 c=64 v=72
12272 Par ch=1 c=64 v=0
12275 On ch=1 n=f#4 v=0
12291 Par ch=1 c=64 v=56
12296 Par ch=1 c=64 v=127
12303 On ch=1 n=d#5 v=68
12304 On ch=1 n=a#4 v=51
12307 On ch=1 n=c#5 v=0
12340 On ch=1 n=a#4 v=0
12346 On ch=1 n=g3 v=0
12350 On ch=1 n=c5 v=80
12351 On ch=1 n=d#5 v=0
12351 On ch=1 n=g#3 v=49
12360 Par ch=1 c=64 v=72
12364 Par ch=1 c=64 v=0
12384 Par ch=1 c=64 v=72
12388 Par ch=1 c=64 v=127
12396 On ch=1 n=g#4 v=56
12398 On ch=1 n=d#5 v=69
12404 On ch=1 n=c5 v=0
12440 On ch=1 n=g#4 v=0
12448 On ch=1 n=a#4 v=69
12451 On ch=1 n=d#5 v=0
12454 On ch=1 n=g#3 v=0
12454 On ch=1 n=a#3 v=55
12465 Par ch=1 c=64 v=72
12469 Par ch=1 c=64 v=0
12506 Par ch=1 c=64 v=104
12509 On ch=1 n=g4 v=55
12510 On ch=1 n=d#5 v=54
12510 Par ch=1 c=64 v=127
12519 On ch=1 n=a#4 v=0
12546 On ch=1 n=g4 v=0
12553 On ch=1 n=d#5 v=0
12566 On ch=1 n=g#4 v=62
12576 On ch=1 n=a#3 v=0
12580 On ch=1 n=c4 v=43
12594 Par ch=1 c=64 v=40
12598 Par ch=1 c=64 v=0
12618 Par ch=1 c=64 v=56
12622 Par ch=1 c=64 v=127
12630 On ch=1 n=d#5 v=47
12634 On ch=1 n=f#4 v=47
12639 On ch=1 n=g#4 v=0
12651 On ch=1 n=f#4 v=0
12658 On ch=1 n=d#5 v=0
12671 On ch=1 n=c4 v=0
12697 On ch=1 n=g#5 v=78
12708 On ch=1 n=f4 v=42
12712 On ch=1 n=g#3 v=34
12719 Par ch=1 c=64 v=88
12723 Par ch=1 c=64 v=24
12727 Par ch=1 c=64 v=0
12744 Par ch=1 c=64 v=88
12748 Par ch=1 c=64 v=127
12768 On ch=1 n=d#4 v=55
12769 On ch=1 n=f4 v=0
12774 On ch=1 n=f#5 v=58
12776 On ch=1 n=c5 v=52
12777 On ch=1 n=g#5 v=0
12778 On ch=1 n=g#3 v=0
12779 On ch=1 n=d#4 v=0
12804 On ch=1 n=c5 v=0
12817 On ch=1 n=f#5 v=0
12820 On ch=1 n=c#3 v=56
12844 On ch=1 n=g#5 v=80
12844 Par ch=1 c=64 v=104
12848 Par ch=1 c=64 v=40
12850 On ch=1 n=c#4 v=62
12852 Par ch=1 c=64 v=0
12864 Par ch=1 c=64 v=56
12868 Par ch=1 c=64 v=127
12872 On ch=1 n=c#3 v=0
12897 On ch=1 n=c#4 v=0
12898 On ch=1 n=c#5 v=46
12901 On ch=1 n=f5 v=56
12902 On ch=1 n=g#5 v=0
12932 On ch=1 n=f5 v=0
12932 On ch=1 n=c#5 v=0
12942 On ch=1 n=f4 v=58
12945 On ch=1 n=c#6 v=84
12951 On ch=1 n=f4 v=0
12986 On ch=1 n=c#5 v=47
12990 On ch=1 n=g#5 v=62
13006 Par ch=1 c=64 v=72
13010 Par ch=1 c=64 v=0
13013 On ch=1 n=c#6 v=0
13015 On ch=1 n=f#3 v=55
13033 On ch=1 n=c#5 v=0
13034 Par ch=1 c=64 v=127
13040 On ch=1 n=f#3 v=0
13043 On ch=1 n=f#4 v=45
13048 On ch=1 n=c6 v=92
13050 On ch=1 n=g#5 v=0
13077 On ch=1 n=f#4 v=0
13095 On ch=1 n=c#5 v=56
13097 On ch=1 n=f#5 v=56
13117 On ch=1 n=c6 v=0
13129 On ch=1 n=c#5 v=0
13133 On ch=1 n=a#4 v=46
13138 On ch=1 n=f#5 v=0
13147 On ch=1 n=a#5 v=82
13149 On ch=1 n=a#4 v=0
13184 On ch=1 n=c#5 v=38
13193 On ch=1 n=f#5 v=57
13212 On ch=1 n=c#5 v=0
13215 Par ch=1 c=64 v=40
13220 On ch=1 n=a#5 v=0
13220 Par ch=1 c=64 v=0
13220 On ch=1 n=c4 v=65
13236 On ch=1 n=f#5 v=0
13242 On ch=1 n=g#4 v=61
13244 Par ch=1 c=64 v=127
13244 On ch=1 n=g#5 v=83
13292 On ch=1 n=d#5 v=60
13293 On ch=1 n=f#5 v=69
13294 On ch=1 n=g#5 v=0
13306 On ch=1 n=d#5 v=0
13310 On ch=1 n=f#5 v=0
13356 On ch=1 n=f#6 v=90
13364 On ch=1 n=g#5 v=62
13364 On ch=1 n=d#5 v=57
13368 On ch=1 n=c4 v=0
13371 On ch=1 n=g#5 v=0
13408 On ch=1 n=g#5 v=58
13410 On ch=1 n=f#5 v=54
13418 On ch=1 n=d#5 v=0
13457 Par ch=1 c=64 v=24
13462 Par ch=1 c=64 v=0
13466 On ch=1 n=c#4 v=46
13478 On ch=1 n=g#5 v=0
13482 On ch=1 n=f#5 v=0
13486 Par ch=1 c=64 v=127
13510 On ch=1 n=f#6 v=0
13514 On ch=1 n=g#5 v=53
13516 On ch=1 n=f5 v=34
13540 On ch=1 n=f5 v=0
13551 On ch=1 n=g#5 v=0
13562 On ch=1 n=f6 v=86
13571 On ch=1 n=c#5 v=47
13574 On ch=1 n=c#4 v=0
13602 On ch=1 n=g#4 v=0
13606 On ch=1 n=f6 v=0
13615 On ch=1 n=f5 v=55
13618 On ch=1 n=g#5 v=62
13641 On ch=1 n=f5 v=0
13641 On ch=1 n=c#5 v=0
13650 On ch=1 n=g#5 v=0
13672 On ch=1 n=a#5 v=89
13675 Par ch=1 c=64 v=24
13676 On ch=1 n=a#4 v=45
13679 Par ch=1 c=64 v=0
13682 On ch=1 n=d4 v=50
13682 On ch=1 n=f4 v=44
13699 Par ch=1 c=64 v=72
13704 Par ch=1 c=64 v=127
13709 On ch=1 n=d4 v=0
13722 On ch=1 n=g#5 v=64
13724 On ch=1 n=f5 v=56
13734 On ch=1 n=a#5 v=0
13741 On ch=1 n=f5 v=0
13743 On ch=1 n=f4 v=0
13743 On ch=1 n=g#5 v=0
13780 On ch=1 n=g#6 v=97
13783 On ch=1 n=f5 v=54
13821 On ch=1 n=f5 v=0
13832 On ch=1 n=a#5 v=59
13833 On ch=1 n=g#5 v=40
13839 On ch=1 n=g#6 v=0
13868 On ch=1 n=a#4 v=0
13870 On ch=1 n=g#5 v=0
13873 On ch=1 n=a#5 v=0
13887 On ch=1 n=f#6 v=83
13890 On ch=1 n=d#5 v=46
13892 On ch=1 n=d#4 v=51
13901 Par ch=1 c=64 v=24
13905 Par ch=1 c=64 v=0
13929 Par ch=1 c=64 v=127
13933 On ch=1 n=f#5 v=34
13936 On ch=1 n=a#5 v=48
13974 On ch=1 n=f#6 v=0
13977 On ch=1 n=d#4 v=0
13983 On ch=1 n=d#5 v=0
13987 On ch=1 n=a#5 v=0
13987 On ch=1 n=f#5 v=0
13991 On ch=1 n=d#6 v=85
14001 On ch=1 n=g#4 v=34
14002 On ch=1 n=c5 v=49
14010 Par ch=1 c=64 v=104
14014 Par ch=1 c=64 v=0
14033 Par ch=1 c=64 v=40
14037 Par ch=1 c=64 v=127
14048 On ch=1 n=g#5 v=49
14050 On ch=1 n=f#5 v=30
14056 On ch=1 n=c5 v=0
14066 On ch=1 n=g#4 v=0
14092 On ch=1 n=d#6 v=0
14101 On ch=1 n=f#5 v=0
14105 On ch=1 n=c#6 v=79
14118 On ch=1 n=g#5 v=0
14124 On ch=1 n=c#4 v=38
14125 On ch=1 n=c#5 v=28
14127 Par ch=1 c=64 v=104
14130 Par ch=1 c=64 v=0
14159 Par ch=1 c=64 v=56
14163 On ch=1 n=f5 v=48
14163 Par ch=1 c=64 v=127
14165 On ch=1 n=g#5 v=44
14208 On ch=1 n=f5 v=0
14215 On ch=1 n=c#6 v=0
14220 On ch=1 n=g#5 v=0
14222 On ch=1 n=a#5 v=77
14226 On ch=1 n=c#5 v=0
14228 On ch=1 n=g#4 v=40
14240 Par ch=1 c=64 v=104
14244 Par ch=1 c=64 v=0
14256 On ch=1 n=c#4 v=0
14264 Par ch=1 c=64 v=40
14268 Par ch=1 c=64 v=127
14290 On ch=1 n=f#5 v=48
14298 On ch=1 n=c#6 v=55
14324 On ch=1 n=c#6 v=0
14325 On ch=1 n=f#5 v=0
14330 On ch=1 n=a#5 v=0
14365 On ch=1 n=g#4 v=0
14371 On ch=1 n=c#6 v=67
14376 On ch=1 n=c#5 v=28
14376 On ch=1 n=g#5 v=40
14376 On ch=1 n=f5 v=42
14380 On ch=1 n=c#4 v=34
14401 Par ch=1 c=64 v=104
14405 Par ch=1 c=64 v=24
14409 Par ch=1 c=64 v=0
14438 Par ch=1 c=64 v=127
14454 On ch=1 n=c#4 v=0
14455 On ch=1 n=c#5 v=0
14457 On ch=1 n=f5 v=0
14461 On ch=1 n=g#5 v=0
14461 On ch=1 n=c#6 v=0
14514 Par ch=1 c=64 v=88
14518 Par ch=1 c=64 v=0
14522 On ch=1 n=c4 v=47
14531 On ch=1 n=c4 v=0
14534 Par ch=1 c=64 v=88
14538 Par ch=1 c=64 v=127
14546 On ch=1 n=a#4 v=38
14555 On ch=1 n=c5 v=41
14568 On ch=1 n=e5 v=39
14576 On ch=1 n=a#4 v=0
14579 On ch=1 n=c5 v=0
14582 On ch=1 n=e5 v=0
14589 On ch=1 n=c6 v=86
14649 On ch=1 n=c6 v=0
14665 On ch=1 n=g5 v=61
14686 On ch=1 n=g5 v=0
14728 On ch=1 n=c6 v=89
14738 On ch=1 n=g#4 v=33
14738 On ch=1 n=f4 v=45
14744 Par ch=1 c=64 v=88
14748 Par ch=1 c=64 v=0
14767 Par ch=1 c=64 v=40
14772 Par ch=1 c=64 v=127
14777 On ch=1 n=f4 v=0
14783 On ch=1 n=f5 v=61
14787 On ch=1 n=c6 v=0
14819 On ch=1 n=f5 v=0
14837 On ch=1 n=f6 v=92
14837 On ch=1 n=g#5 v=52
14853 On ch=1 n=g#5 v=0
14854 On ch=1 n=g#4 v=0
14889 On ch=1 n=f5 v=62
14913 Par ch=1 c=64 v=88
14918 Par ch=1 c=64 v=0
14918 On ch=1 n=a#3 v=53
14934 Par ch=1 c=64 v=72
14936 On ch=1 n=f6 v=0
14938 Par ch=1 c=64 v=127
14943 On ch=1 n=a#3 v=0
14950 On ch=1 n=d#6 v=87
14951 On ch=1 n=f5 v=0
14954 On ch=1 n=c5 v=51
14996 On ch=1 n=d#6 v=0
14998 On ch=1 n=f5 v=56
15030 On ch=1 n=f5 v=0
15032 On ch=1 n=c5 v=0
15046 On ch=1 n=c#5 v=58
15049 On ch=1 n=c#6 v=84
15068 On ch=1 n=c#5 v=0
15091 On ch=1 n=f5 v=57
15095 On ch=1 n=c#6 v=0
15118 On ch=1 n=f5 v=0
15148 On ch=1 n=c6 v=86
15150 On ch=1 n=c4 v=55
15151 On ch=1 n=g4 v=42
15151 Par ch=1 c=64 v=72
15155 Par ch=1 c=64 v=0
15176 Par ch=1 c=64 v=40
15180 Par ch=1 c=64 v=127
15185 On ch=1 n=c6 v=0
15194 On ch=1 n=a#5 v=78
15199 On ch=1 n=e5 v=60
15214 On ch=1 n=e5 v=0
15228 On ch=1 n=a#5 v=0
15240 On ch=1 n=g#5 v=85
15255 On ch=1 n=a#4 v=26
15265 On ch=1 n=g4 v=0
15272 On ch=1 n=g#5 v=0
15287 On ch=1 n=g5 v=87
15291 On ch=1 n=e5 v=55
15292 On ch=1 n=c4 v=0
15300 On ch=1 n=e5 v=0
15308 On ch=1 n=g5 v=0
15329 On ch=1 n=a#4 v=0
15344 On ch=1 n=g#4 v=28
15345 On ch=1 n=f5 v=77
15354 On ch=1 n=f4 v=35
15369 Par ch=1 c=64 v=24
15373 Par ch=1 c=64 v=0
15393 On ch=1 n=c5 v=56
15401 Par ch=1 c=64 v=127
15424 On ch=1 n=f5 v=0
15436 On ch=1 n=c5 v=0
15450 On ch=1 n=g#4 v=0
15455 On ch=1 n=f5 v=74
15459 On ch=1 n=a4 v=43
15466 Par ch=1 c=64 v=104
15470 Par ch=1 c=64 v=24
15474 Par ch=1 c=64 v=0
15486 Par ch=1 c=64 v=88
15487 On ch=1 n=f4 v=0
15490 Par ch=1 c=64 v=127
15503 On ch=1 n=f5 v=0
15508 On ch=1 n=c5 v=46
15509 On ch=1 n=d#5 v=44
15540 On ch=1 n=c5 v=0
15550 On ch=1 n=d#5 v=0
15554 On ch=1 n=a#3 v=43
15557 On ch=1 n=f5 v=75
15571 Par ch=1 c=64 v=0
15598 Par ch=1 c=64 v=127
15606 On ch=1 n=c#5 v=50
15612 On ch=1 n=a4 v=0
15644 On ch=1 n=c#5 v=0
15657 On ch=1 n=a#5 v=70
15658 On ch=1 n=a#4 v=67
15674 On ch=1 n=a#3 v=0
15697 On ch=1 n=f5 v=0
15703 On ch=1 n=c#5 v=44
15705 On ch=1 n=a#5 v=0
15741 On ch=1 n=c#5 v=0
15747 On ch=1 n=a#4 v=0
15752 On ch=1 n=g#5 v=67
15759 On ch=1 n=g#4 v=50
15760 On ch=1 n=d#4 v=44
15776 Par ch=1 c=64 v=40
15780 Par ch=1 c=64 v=0
15803 On ch=1 n=a#4 v=35
15805 Par ch=1 c=64 v=56
15809 Par ch=1 c=64 v=127
15809 On ch=1 n=d#5 v=47
15833 On ch=1 n=g#5 v=0
15850 On ch=1 n=g#4 v=0
15853 On ch=1 n=a#4 v=0
15856 On ch=1 n=d#5 v=0
15858 On ch=1 n=f#5 v=67
15866 On ch=1 n=f#4 v=56
15869 Par ch=1 c=64 v=72
15873 Par ch=1 c=64 v=0
15881 Par ch=1 c=64 v=40
15885 Par ch=1 c=64 v=88
15890 Par ch=1 c=64 v=127
15906 On ch=1 n=f#5 v=0
15908 On ch=1 n=a#4 v=35
15927 On ch=1 n=a#4 v=0
15928 On ch=1 n=f#4 v=0
15961 On ch=1 n=f5 v=68
15966 On ch=1 n=f4 v=60
15970 Par ch=1 c=64 v=72
15974 Par ch=1 c=64 v=0
15986 Par ch=1 c=64 v=24
15990 Par ch=1 c=64 v=88
15992 On ch=1 n=d#4 v=0
15994 Par ch=1 c=64 v=127
15995 On ch=1 n=f5 v=0
15999 On ch=1 n=f4 v=0
16011 On ch=1 n=d#5 v=67
16019 On ch=1 n=a4 v=44
16034 On ch=1 n=a4 v=0
16044 On ch=1 n=d#5 v=0
16067 On ch=1 n=c#5 v=64
16073 On ch=1 n=f3 v=43
16073 On ch=1 n=d#4 v=36
16075 Par ch=1 c=64 v=56
16079 Par ch=1 c=64 v=0
16082 Par ch=1 c=64 v=24
16087 Par ch=1 c=64 v=72
16091 Par ch=1 c=64 v=127
16100 On ch=1 n=c#5 v=0
16119 On ch=1 n=c5 v=68
16126 On ch=1 n=a4 v=31
16154 On ch=1 n=c5 v=0
16158 On ch=1 n=a4 v=0
16173 On ch=1 n=f3 v=0
16179 On ch=1 n=d#4 v=0
16188 On ch=1 n=a#4 v=55
16192 On ch=1 n=c#4 v=34
16192 On ch=1 n=a#3 v=42
16204 Par ch=1 c=64 v=56
16208 Par ch=1 c=64 v=0
16236 Par ch=1 c=64 v=56
16240 Par ch=1 c=64 v=127
16247 On ch=1 n=c#4 v=0
16253 On ch=1 n=a#4 v=0
16255 On ch=1 n=a#3 v=0
16256 On ch=1 n=f4 v=49
16291 On ch=1 n=f4 v=0
16322 On ch=1 n=f3 v=53
16324 On ch=1 n=c5 v=68
16326 On ch=1 n=a4 v=49
16341 Par ch=1 c=64 v=40
16345 Par ch=1 c=64 v=0
16349 On ch=1 n=a4 v=0
16357 Par ch=1 c=64 v=40
16361 Par ch=1 c=64 v=127
16372 On ch=1 n=d#4 v=51
16374 On ch=1 n=f3 v=0
16377 On ch=1 n=f4 v=55
16378 On ch=1 n=c5 v=0
16408 On ch=1 n=d#4 v=0
16413 On ch=1 n=f4 v=0
16425 On ch=1 n=c#5 v=73
16427 On ch=1 n=c#4 v=47
16430 On ch=1 n=a#4 v=48
16430 Par ch=1 c=64 v=56
16430 On ch=1 n=a#3 v=43
16434 Par ch=1 c=64 v=0
16446 On ch=1 n=c#4 v=0
16446 Par ch=1 c=64 v=72
16450 On ch=1 n=a#3 v=0
16450 Par ch=1 c=64 v=127
16468 On ch=1 n=a#4 v=0
16472 On ch=1 n=c#5 v=0
16473 On ch=1 n=f4 v=66
16491 On ch=1 n=f4 v=0
16528 On ch=1 n=d#5 v=85
16533 On ch=1 n=g#3 v=55
16534 On ch=1 n=c5 v=59
16535 Par ch=1 c=64 v=104
16539 Par ch=1 c=64 v=0
16546 On ch=1 n=c5 v=0
16562 On ch=1 n=g#3 v=0
16563 Par ch=1 c=64 v=127
16574 On ch=1 n=d#5 v=0
16574 On ch=1 n=f#4 v=60
16576 On ch=1 n=g#4 v=67
16603 On ch=1 n=f#4 v=0
16608 On ch=1 n=g#4 v=0
16623 On ch=1 n=f5 v=85
16626 On ch=1 n=c#5 v=63
16628 Par ch=1 c=64 v=72
16630 On ch=1 n=f4 v=64
16630 On ch=1 n=c#4 v=57
16632 Par ch=1 c=64 v=0
16644 Par ch=1 c=64 v=56
16647 On ch=1 n=f4 v=0
16647 Par ch=1 c=64 v=127
16649 On ch=1 n=c#4 v=0
16659 On ch=1 n=c#5 v=0
16668 On ch=1 n=g#4 v=61
16669 On ch=1 n=f5 v=0
16685 On ch=1 n=g#4 v=0
16725 On ch=1 n=g5 v=85
16729 On ch=1 n=e5 v=70
16731 On ch=1 n=c4 v=62
16740 Par ch=1 c=64 v=0
16760 Par ch=1 c=64 v=56
16764 Par ch=1 c=64 v=127
16774 On ch=1 n=c4 v=0
16781 On ch=1 n=e5 v=0
16783 On ch=1 n=g5 v=0
16783 On ch=1 n=c5 v=71
16783 On ch=1 n=a#4 v=59
16823 On ch=1 n=c5 v=0
16830 On ch=1 n=a#4 v=0
16845 On ch=1 n=a5 v=82
16845 On ch=1 n=f5 v=64
16849 On ch=1 n=a4 v=56
16853 On ch=1 n=f4 v=48
16861 Par ch=1 c=64 v=72
16866 Par ch=1 c=64 v=0
16886 Par ch=1 c=64 v=56
16890 Par ch=1 c=64 v=127
16901 On ch=1 n=f5 v=0
16906 On ch=1 n=c5 v=52
16911 On ch=1 n=a4 v=0
16923 On ch=1 n=a5 v=0
16944 On ch=1 n=c5 v=0
16977 On ch=1 n=a#5 v=71
16983 On ch=1 n=e5 v=58
16985 On ch=1 n=g4 v=47
17006 Par ch=1 c=64 v=104
17011 Par ch=1 c=64 v=0
17020 On ch=1 n=f4 v=0
17035 Par ch=1 c=64 v=72
17039 Par ch=1 c=64 v=127
17072 On ch=1 n=a#4 v=56
17081 On ch=1 n=e5 v=0
17096 On ch=1 n=g4 v=0
17111 On ch=1 n=a#4 v=0
17127 On ch=1 n=a#5 v=0
17175 On ch=1 n=c6 v=71
17178 On ch=1 n=d#5 v=34
17184 On ch=1 n=f4 v=37
17186 On ch=1 n=f3 v=35
17203 Par ch=1 c=64 v=24
17208 Par ch=1 c=64 v=0
17228 Par ch=1 c=64 v=127
17267 On ch=1 n=c6 v=0
17331 On ch=1 n=a4 v=36
17378 Par ch=1 c=64 v=56
17382 Par ch=1 c=64 v=0
17394 Par ch=1 c=64 v=72
17398 Par ch=1 c=64 v=127
17442 On ch=1 n=f3 v=0
17444 On ch=1 n=a4 v=0
17444 On ch=1 n=f4 v=0
17463 On ch=1 n=d#5 v=0
17564 On ch=1 n=g#2 v=36
17595 Par ch=1 c=64 v=72
17597 On ch=1 n=g#5 v=74
17599 Par ch=1 c=64 v=0
17604 On ch=1 n=g#3 v=33
17616 Par ch=1 c=64 v=40
17620 Par ch=1 c=64 v=127
17629 On ch=1 n=g#2 v=0
17640 On ch=1 n=g#3 v=0
17651 On ch=1 n=g#5 v=0
17667 On ch=1 n=f#5 v=46
17669 On ch=1 n=d#5 v=49
17670 On ch=1 n=g#4 v=43
17696 On ch=1 n=d#5 v=0
17698 On ch=1 n=g#4 v=0
17712 On ch=1 n=f#5 v=0
17731 On ch=1 n=g#5 v=78
17731 On ch=1 n=c#3 v=44
17740 Par ch=1 c=64 v=104
17744 Par ch=1 c=64 v=0
17750 On ch=1 n=c#4 v=44
17761 Par ch=1 c=64 v=56
17765 On ch=1 n=c#3 v=0
17765 Par ch=1 c=64 v=127
17785 On ch=1 n=g#5 v=0
17789 On ch=1 n=c#5 v=56
17790 On ch=1 n=c#4 v=0
17790 On ch=1 n=f5 v=66
17806 On ch=1 n=c#5 v=0
17812 On ch=1 n=f5 v=0
17839 On ch=1 n=c#6 v=89
17843 On ch=1 n=f4 v=63
17854 On ch=1 n=f4 v=0
17887 On ch=1 n=c#5 v=51
17889 On ch=1 n=g#5 v=61
17897 On ch=1 n=c#6 v=0
17920 On ch=1 n=c#5 v=0
17922 On ch=1 n=f#3 v=53
17938 Par ch=1 c=64 v=88
17941 On ch=1 n=c6 v=88
17941 Par ch=1 c=64 v=0
17949 On ch=1 n=f#4 v=54
17952 On ch=1 n=g#5 v=0
17953 On ch=1 n=f#3 v=0
17962 Par ch=1 c=64 v=127
17991 On ch=1 n=c#5 v=38
17994 On ch=1 n=f#5 v=50
18007 On ch=1 n=f#4 v=0
18014 On ch=1 n=c6 v=0
18026 On ch=1 n=c#5 v=0
18033 On ch=1 n=f#5 v=0
18038 On ch=1 n=a#5 v=77
18042 On ch=1 n=a#4 v=54
18059 On ch=1 n=a#4 v=0
18087 On ch=1 n=c#5 v=42
18089 On ch=1 n=f#5 v=53
18107 On ch=1 n=a#5 v=0
18120 On ch=1 n=c#5 v=0
18140 On ch=1 n=g#5 v=73
18141 On ch=1 n=f#5 v=0
18147 On ch=1 n=c4 v=51
18164 Par ch=1 c=64 v=104
18168 Par ch=1 c=64 v=0
18193 On ch=1 n=d#5 v=51
18195 On ch=1 n=f#5 v=45
18196 Par ch=1 c=64 v=40
18200 Par ch=1 c=64 v=127
18242 On ch=1 n=g#4 v=62
18243 On ch=1 n=d#5 v=0
18249 On ch=1 n=f#5 v=0
18296 On ch=1 n=f#5 v=44
18298 On ch=1 n=d#5 v=43
18317 On ch=1 n=c4 v=0
18327 On ch=1 n=f#5 v=0
18350 On ch=1 n=d#5 v=0
18352 On ch=1 n=c#4 v=43
18366 Par ch=1 c=64 v=56
18370 Par ch=1 c=64 v=0
18394 Par ch=1 c=64 v=72
18398 Par ch=1 c=64 v=127
18410 On ch=1 n=c#5 v=40
18412 On ch=1 n=f5 v=41
18414 On ch=1 n=c#4 v=0
18420 On ch=1 n=g#5 v=0
18428 On ch=1 n=f5 v=0
18444 On ch=1 n=c#5 v=0
18474 On ch=1 n=g#4 v=0
18480 On ch=1 n=g#5 v=75
18491 On ch=1 n=d4 v=48
18495 Par ch=1 c=64 v=56
18499 Par ch=1 c=64 v=0
18523 Par ch=1 c=64 v=88
18527 Par ch=1 c=64 v=127
18536 On ch=1 n=b4 v=52
18536 On ch=1 n=f5 v=55
18562 On ch=1 n=g#5 v=0
18565 On ch=1 n=b4 v=0
18571 On ch=1 n=f5 v=0
18581 On ch=1 n=f#5 v=74
18582 On ch=1 n=d4 v=0
18586 On ch=1 n=d#4 v=62
18592 Par ch=1 c=64 v=72
18596 Par ch=1 c=64 v=0
18608 Par ch=1 c=64 v=24
18612 Par ch=1 c=64 v=72
18616 Par ch=1 c=64 v=127
18631 On ch=1 n=d#5 v=58
18632 On ch=1 n=f#5 v=0
18635 On ch=1 n=a#4 v=33
18668 On ch=1 n=a#4 v=0
18668 On ch=1 n=d#5 v=0
18677 On ch=1 n=f5 v=77
18686 On ch=1 n=f4 v=52
18688 On ch=1 n=d#4 v=0
18688 Par ch=1 c=64 v=104
18692 Par ch=1 c=64 v=24
18696 Par ch=1 c=64 v=0
18708 Par ch=1 c=64 v=40
18712 Par ch=1 c=64 v=127
18722 On ch=1 n=f5 v=0
18722 On ch=1 n=d5 v=61
18725 On ch=1 n=a#4 v=33
18766 On ch=1 n=d5 v=0
18774 On ch=1 n=f4 v=0
18774 On ch=1 n=d#5 v=71
18778 On ch=1 n=f#4 v=47
18782 On ch=1 n=a#4 v=0
18785 Par ch=1 c=64 v=104
18789 Par ch=1 c=64 v=24
18793 Par ch=1 c=64 v=0
18805 Par ch=1 c=64 v=40
18809 Par ch=1 c=64 v=127
18823 On ch=1 n=a#4 v=47
18853 On ch=1 n=a#4 v=0
18859 On ch=1 n=d#5 v=0
18870 On ch=1 n=c#5 v=76
18873 On ch=1 n=g3 v=50
18882 Par ch=1 c=64 v=56
18886 On ch=1 n=f#4 v=0
18886 Par ch=1 c=64 v=0
18902 Par ch=1 c=64 v=72
18906 Par ch=1 c=64 v=127
18916 On ch=1 n=d#5 v=75
18917 On ch=1 n=a#4 v=57
18929 On ch=1 n=c#5 v=0
18950 On ch=1 n=g3 v=0
18956 On ch=1 n=a#4 v=0
18966 On ch=1 n=c5 v=82
18970 On ch=1 n=g#3 v=38
18971 On ch=1 n=d#5 v=0
18983 Par ch=1 c=64 v=88
18987 Par ch=1 c=64 v=0
19007 Par ch=1 c=64 v=56
19011 Par ch=1 c=64 v=127
19013 On ch=1 n=g#4 v=53
19016 On ch=1 n=d#5 v=67
19022 On ch=1 n=c5 v=0
19056 On ch=1 n=g#4 v=0
19066 On ch=1 n=a#4 v=65
19069 On ch=1 n=d#5 v=0
19072 On ch=1 n=g#3 v=0
19076 On ch=1 n=a#3 v=40
19088 Par ch=1 c=64 v=104
19092 Par ch=1 c=64 v=0
19124 Par ch=1 c=64 v=88
19128 Par ch=1 c=64 v=127
19130 On ch=1 n=d#5 v=54
19132 On ch=1 n=g4 v=44
19138 On ch=1 n=a#4 v=0
19164 On ch=1 n=d#5 v=0
19165 On ch=1 n=g4 v=0
19188 On ch=1 n=g#4 v=62
19191 On ch=1 n=a#3 v=0
19195 On ch=1 n=c4 v=50
19212 Par ch=1 c=64 v=24
19217 Par ch=1 c=64 v=0
19237 Par ch=1 c=64 v=56
19241 Par ch=1 c=64 v=127
19254 On ch=1 n=d#5 v=52
19254 On ch=1 n=f#4 v=39
19256 On ch=1 n=g#4 v=0
19266 On ch=1 n=f#4 v=0
19272 On ch=1 n=d#5 v=0
19279 On ch=1 n=c4 v=0
19328 On ch=1 n=g#5 v=77
19338 On ch=1 n=f4 v=38
19339 On ch=1 n=g#3 v=35
19353 Par ch=1 c=64 v=0
19382 Par ch=1 c=64 v=127
19400 On ch=1 n=c5 v=52
19402 On ch=1 n=f4 v=0
19402 On ch=1 n=f#5 v=60
19403 On ch=1 n=d#4 v=55
19410 On ch=1 n=g#5 v=0
19415 On ch=1 n=g#3 v=0
19417 On ch=1 n=d#4 v=0
19423 On ch=1 n=c5 v=0
19452 On ch=1 n=f#5 v=0
19460 On ch=1 n=c#3 v=45
19478 On ch=1 n=g#5 v=82
19483 Par ch=1 c=64 v=0
19486 On ch=1 n=c#4 v=58
19502 Par ch=1 c=64 v=88
19504 On ch=1 n=c#3 v=0
19507 Par ch=1 c=64 v=127
19527 On ch=1 n=c#4 v=0
19533 On ch=1 n=f5 v=62
19533 On ch=1 n=c#5 v=45
19539 On ch=1 n=g#5 v=0
19562 On ch=1 n=f5 v=0
19565 On ch=1 n=c#5 v=0
19580 On ch=1 n=f4 v=54
19580 On ch=1 n=c#6 v=86
19590 On ch=1 n=f4 v=0
19622 On ch=1 n=c#5 v=44
19630 On ch=1 n=g#5 v=53
19657 On ch=1 n=f#3 v=52
19660 Par ch=1 c=64 v=0
19665 On ch=1 n=c#6 v=0
19674 On ch=1 n=c#5 v=0
19680 Par ch=1 c=64 v=88
19682 On ch=1 n=c6 v=86
19684 On ch=1 n=f#3 v=0
19684 On ch=1 n=f#4 v=45
19684 Par ch=1 c=64 v=127
19694 On ch=1 n=g#5 v=0
19729 On ch=1 n=c#5 v=44
19730 On ch=1 n=f#4 v=0
19733 On ch=1 n=f#5 v=51
19748 On ch=1 n=c6 v=0
19766 On ch=1 n=c#5 v=0
19771 On ch=1 n=f#5 v=0
19773 On ch=1 n=a#4 v=58
19775 On ch=1 n=a#5 v=82
19789 On ch=1 n=a#4 v=0
19822 On ch=1 n=c#5 v=38
19827 On ch=1 n=f#5 v=52
19837 On ch=1 n=a#5 v=0
19841 On ch=1 n=c#5 v=0
19851 On ch=1 n=c4 v=61
19854 Par ch=1 c=64 v=104
19858 Par ch=1 c=64 v=0
19863 On ch=1 n=f#5 v=0
19872 On ch=1 n=g#4 v=52
19874 On ch=1 n=g#5 v=80
19882 Par ch=1 c=64 v=104
19886 Par ch=1 c=64 v=127
19922 On ch=1 n=d#5 v=61
19924 On ch=1 n=f#5 v=69
19928 On ch=1 n=g#5 v=0
19938 On ch=1 n=d#5 v=0
19943 On ch=1 n=f#5 v=0
19991 On ch=1 n=f#6 v=97
19992 On ch=1 n=c4 v=0
19996 On ch=1 n=d#5 v=60
20044 On ch=1 n=g#5 v=57
20046 On ch=1 n=f#5 v=51
20056 On ch=1 n=d#5 v=0
20084 Par ch=1 c=64 v=40
20087 Par ch=1 c=64 v=0
20095 On ch=1 n=c#4 v=54
20108 Par ch=1 c=64 v=40
20111 On ch=1 n=g#5 v=0
20112 Par ch=1 c=64 v=127
20113 On ch=1 n=f#5 v=0
20130 On ch=1 n=f#6 v=0
20139 On ch=1 n=g#5 v=49
20140 On ch=1 n=f5 v=58
20165 On ch=1 n=f5 v=0
20178 On ch=1 n=g#5 v=0
20184 On ch=1 n=f6 v=94
20194 On ch=1 n=c#5 v=50
20208 On ch=1 n=c#4 v=0
20215 On ch=1 n=g#4 v=0
20222 On ch=1 n=f6 v=0
20232 On ch=1 n=f5 v=50
20236 On ch=1 n=c#5 v=0
20238 On ch=1 n=g#5 v=58
20262 On ch=1 n=f5 v=0
20271 On ch=1 n=g#5 v=0
20285 On ch=1 n=a#5 v=88
20294 Par ch=1 c=64 v=56
20296 On ch=1 n=a#4 v=37
20296 On ch=1 n=d4 v=59
20298 Par ch=1 c=64 v=0
20302 On ch=1 n=f4 v=34
20318 Par ch=1 c=64 v=127
20321 On ch=1 n=d4 v=0
20335 On ch=1 n=g#5 v=67
20337 On ch=1 n=f5 v=59
20344 On ch=1 n=a#5 v=0
20346 On ch=1 n=f5 v=0
20354 On ch=1 n=f4 v=0
20354 On ch=1 n=g#5 v=0
20390 On ch=1 n=g#6 v=99
20402 On ch=1 n=f5 v=46
20429 On ch=1 n=f5 v=0
20438 On ch=1 n=g#5 v=36
20439 On ch=1 n=a#5 v=56
20446 On ch=1 n=g#6 v=0
20474 On ch=1 n=g#5 v=0
20480 On ch=1 n=a#4 v=0
20482 On ch=1 n=a#5 v=0
20495 On ch=1 n=f#6 v=88
20498 On ch=1 n=d#5 v=40
20503 On ch=1 n=d#4 v=42
20503 Par ch=1 c=64 v=40
20507 Par ch=1 c=64 v=0
20524 Par ch=1 c=64 v=88
20528 Par ch=1 c=64 v=127
20538 On ch=1 n=f#5 v=35
20542 On ch=1 n=a#5 v=60
20578 On ch=1 n=f#6 v=0
20590 On ch=1 n=f#5 v=0
20590 On ch=1 n=a#5 v=0
20594 On ch=1 n=d#5 v=0
20596 On ch=1 n=d#4 v=0
20596 On ch=1 n=d#6 v=87
20606 On ch=1 n=c5 v=52
20612 On ch=1 n=g#4 v=34
20615 Par ch=1 c=64 v=88
20620 Par ch=1 c=64 v=0
20640 Par ch=1 c=64 v=72
20644 Par ch=1 c=64 v=127
20654 On ch=1 n=g#5 v=53
20655 On ch=1 n=f#5 v=34
20660 On ch=1 n=c5 v=0
20671 On ch=1 n=g#4 v=0
20689 On ch=1 n=d#6 v=0
20697 On ch=1 n=f#5 v=0
20707 On ch=1 n=c#6 v=79
20725 On ch=1 n=c#4 v=33
20726 On ch=1 n=g#5 v=0
20726 On ch=1 n=c#5 v=25
20733 Par ch=1 c=64 v=104
20737 Par ch=1 c=64 v=0
20761 Par ch=1 c=64 v=72
20766 On ch=1 n=f5 v=43
20766 Par ch=1 c=64 v=127
20772 On ch=1 n=g#5 v=45
20809 On ch=1 n=f5 v=0
20829 On ch=1 n=c#6 v=0
20829 On ch=1 n=a#5 v=77
20840 On ch=1 n=g#4 v=37
20844 On ch=1 n=g#5 v=0
20853 Par ch=1 c=64 v=40
20857 Par ch=1 c=64 v=0
20862 On ch=1 n=c#4 v=0
20864 On ch=1 n=c#5 v=0
20874 Par ch=1 c=64 v=56
20878 Par ch=1 c=64 v=127
20902 On ch=1 n=f#5 v=47
20908 On ch=1 n=c#6 v=45
20933 On ch=1 n=f#5 v=0
20935 On ch=1 n=c#6 v=0
20940 On ch=1 n=a#5 v=0
20972 On ch=1 n=g#4 v=0
21001 On ch=1 n=c#6 v=67
21005 On ch=1 n=g#5 v=46
21006 On ch=1 n=f5 v=52
21008 On ch=1 n=c#4 v=31
21009 On ch=1 n=c#5 v=23
21016 Par ch=1 c=64 v=24
21020 Par ch=1 c=64 v=0
21038 On ch=1 n=c#4 v=0
21040 Par ch=1 c=64 v=88
21044 On ch=1 n=c#5 v=0
21044 Par ch=1 c=64 v=127
21082 On ch=1 n=f5 v=0
21090 On ch=1 n=g#5 v=0
21095 On ch=1 n=c#6 v=0
21320 On ch=1 n=c6 v=78
21327 Par ch=1 c=64 v=88
21328 On ch=1 n=g#3 v=43
21331 Par ch=1 c=64 v=0
21355 Par ch=1 c=64 v=56
21359 On ch=1 n=g#3 v=0
21360 Par ch=1 c=64 v=127
21395 On ch=1 n=d#5 v=34
21397 On ch=1 n=g#5 v=42
21407 On ch=1 n=c6 v=0
21414 On ch=1 n=g#4 v=32
21433 On ch=1 n=g#5 v=0
21453 On ch=1 n=d#5 v=0
21461 On ch=1 n=g#4 v=0
21461 On ch=1 n=a#5 v=77
21471 On ch=1 n=c#4 v=52
21481 Par ch=1 c=64 v=72
21485 Par ch=1 c=64 v=0
21505 Par ch=1 c=64 v=88
21509 Par ch=1 c=64 v=127
21517 On ch=1 n=c#4 v=0
21517 On ch=1 n=c#5 v=49
21523 On ch=1 n=f5 v=45
21527 On ch=1 n=a#5 v=0
21527 On ch=1 n=a#4 v=25
21529 On ch=1 n=f4 v=42
21539 On ch=1 n=f4 v=0
21551 On ch=1 n=c#5 v=0
21554 On ch=1 n=f5 v=0
21563 On ch=1 n=a#4 v=0
21566 On ch=1 n=c6 v=92
21576 On ch=1 n=c4 v=59
21585 Par ch=1 c=64 v=56
21589 Par ch=1 c=64 v=0
21606 Par ch=1 c=64 v=72
21610 Par ch=1 c=64 v=127
21614 On ch=1 n=c4 v=0
21616 On ch=1 n=f5 v=58
21620 On ch=1 n=d#5 v=36
21624 On ch=1 n=c6 v=0
21628 On ch=1 n=a4 v=34
21635 On ch=1 n=f5 v=0
21642 On ch=1 n=a4 v=0
21655 On ch=1 n=d#5 v=0
21671 On ch=1 n=d#6 v=91
21678 On ch=1 n=a#3 v=54
21682 Par ch=1 c=64 v=88
21686 Par ch=1 c=64 v=0
21695 Par ch=1 c=64 v=24
21699 Par ch=1 c=64 v=88
21703 Par ch=1 c=64 v=127
21709 On ch=1 n=d#6 v=0
21726 On ch=1 n=c#6 v=91
21731 On ch=1 n=a#3 v=0
21732 On ch=1 n=c#5 v=64
21733 On ch=1 n=a#4 v=27
21736 On ch=1 n=f4 v=41
21763 On ch=1 n=c#5 v=0
21765 On ch=1 n=c#6 v=0
21767 On ch=1 n=a#4 v=0
21769 On ch=1 n=f4 v=0
21776 On ch=1 n=c6 v=94
21786 On ch=1 n=c#4 v=47
21791 Par ch=1 c=64 v=24
21795 Par ch=1 c=64 v=0
21807 Par ch=1 c=64 v=24
21811 Par ch=1 c=64 v=104
21813 On ch=1 n=c6 v=0
21815 Par ch=1 c=64 v=127
21817 On ch=1 n=c#4 v=0
21822 On ch=1 n=a#5 v=84
21825 On ch=1 n=c#5 v=65
21829 On ch=1 n=a#4 v=35
21830 On ch=1 n=f4 v=53
21844 On ch=1 n=c#5 v=0
21855 On ch=1 n=a#4 v=0
21861 On ch=1 n=f4 v=0
21863 On ch=1 n=a#5 v=0
21879 On ch=1 n=g#5 v=74
21888 On ch=1 n=d#4 v=51
21892 Par ch=1 c=64 v=56
21896 Par ch=1 c=64 v=0
21929 Par ch=1 c=64 v=127
21933 On ch=1 n=d#5 v=46
21933 On ch=1 n=c5 v=50
21935 On ch=1 n=g#4 v=48
21945 On ch=1 n=d#4 v=0
21947 On ch=1 n=g#5 v=0
21954 On ch=1 n=g#4 v=0
21960 On ch=1 n=c5 v=0
21970 On ch=1 n=d#5 v=0
21995 On ch=1 n=a#5 v=77
22002 On ch=1 n=d#3 v=58
22021 Par ch=1 c=64 v=24
22025 Par ch=1 c=64 v=0
22043 On ch=1 n=d#3 v=0
22045 Par ch=1 c=64 v=104
22049 Par ch=1 c=64 v=127
22066 On ch=1 n=d#5 v=44
22066 On ch=1 n=c#5 v=38
22071 On ch=1 n=g4 v=49
22073 On ch=1 n=d#4 v=46
22100 On ch=1 n=g4 v=0
22105 On ch=1 n=d#4 v=0
22117 On ch=1 n=c#5 v=0
22119 On ch=1 n=d#5 v=0
22185 On ch=1 n=c#5 v=32
22187 On ch=1 n=a#5 v=0
22187 On ch=1 n=d#5 v=32
22188 On ch=1 n=d#4 v=36
22189 On ch=1 n=g4 v=44
22196 On ch=1 n=d#5 v=0
22206 On ch=1 n=d#4 v=0
22210 On ch=1 n=c#5 v=0
22213 On ch=1 n=g4 v=0
22263 On ch=1 n=c6 v=78
22270 On ch=1 n=g#3 v=44
22271 Par ch=1 c=64 v=40
22275 Par ch=1 c=64 v=0
22299 Par ch=1 c=64 v=127
22301 On ch=1 n=g#3 v=0
22327 On ch=1 n=d#5 v=33
22327 On ch=1 n=g#5 v=52
22335 On ch=1 n=c5 v=41
22336 On ch=1 n=g#4 v=33
22341 On ch=1 n=c6 v=0
22353 On ch=1 n=g#4 v=0
22355 On ch=1 n=c5 v=0
22367 On ch=1 n=d#5 v=0
22370 On ch=1 n=g#5 v=0
22385 On ch=1 n=a#5 v=77
22394 On ch=1 n=c#4 v=53
22405 Par ch=1 c=64 v=56
22409 Par ch=1 c=64 v=0
22425 Par ch=1 c=64 v=40
22429 Par ch=1 c=64 v=127
22433 On ch=1 n=c#4 v=0
22437 On ch=1 n=c#5 v=42
22440 On ch=1 n=f5 v=46
22441 On ch=1 n=a#4 v=46
22444 On ch=1 n=a#5 v=0
22444 On ch=1 n=f4 v=48
22454 On ch=1 n=f4 v=0
22468 On ch=1 n=c#5 v=0
22477 On ch=1 n=f5 v=0
22478 On ch=1 n=a#4 v=0
22485 On ch=1 n=c6 v=93
22493 On ch=1 n=c4 v=66
22497 Par ch=1 c=64 v=56
22501 Par ch=1 c=64 v=0
22517 Par ch=1 c=64 v=56
22521 Par ch=1 c=64 v=127
22531 On ch=1 n=c4 v=0
22535 On ch=1 n=f5 v=66
22537 On ch=1 n=d#5 v=50
22542 On ch=1 n=f4 v=53
22543 On ch=1 n=a4 v=42
22545 On ch=1 n=c6 v=0
22552 On ch=1 n=f4 v=0
22554 On ch=1 n=a4 v=0
22557 On ch=1 n=d#5 v=0
22558 On ch=1 n=f5 v=0
22587 On ch=1 n=d#6 v=93
22593 On ch=1 n=a#3 v=56
22594 Par ch=1 c=64 v=0
22610 Par ch=1 c=64 v=40
22614 Par ch=1 c=64 v=127
22618 On ch=1 n=d#6 v=0
22635 On ch=1 n=a#3 v=0
22638 On ch=1 n=c#6 v=91
22641 On ch=1 n=c#5 v=67
22641 On ch=1 n=a#4 v=37
22646 On ch=1 n=f4 v=45
22659 On ch=1 n=f4 v=0
22659 On ch=1 n=c#5 v=0
22669 On ch=1 n=a#4 v=0
22672 On ch=1 n=c#6 v=0
22684 On ch=1 n=c6 v=94
22692 On ch=1 n=c#4 v=49
22695 Par ch=1 c=64 v=72
22699 Par ch=1 c=64 v=24
22703 Par ch=1 c=64 v=40
22707 Par ch=1 c=64 v=88
22711 Par ch=1 c=64 v=127
22715 On ch=1 n=c6 v=0
22723 On ch=1 n=c#4 v=0
22732 On ch=1 n=a#5 v=85
22736 On ch=1 n=c#5 v=61
22739 On ch=1 n=a#4 v=33
22741 On ch=1 n=f4 v=40
22752 On ch=1 n=f4 v=0
22755 On ch=1 n=c#5 v=0
22758 On ch=1 n=a#4 v=0
22769 On ch=1 n=a#5 v=0
22790 On ch=1 n=g#5 v=75
22800 On ch=1 n=d#4 v=52
22808 Par ch=1 c=64 v=88
22812 Par ch=1 c=64 v=0
22844 Par ch=1 c=64 v=88
22848 Par ch=1 c=64 v=127
22851 On ch=1 n=g#4 v=45
22852 On ch=1 n=d#5 v=39
22852 On ch=1 n=c5 v=49
22863 On ch=1 n=d#4 v=0
22868 On ch=1 n=g#4 v=0
22882 On ch=1 n=g#5 v=0
22886 On ch=1 n=c5 v=0
22901 On ch=1 n=d#5 v=0
22907 On ch=1 n=a#5 v=70
22918 On ch=1 n=d#3 v=55
22924 Par ch=1 c=64 v=88
22929 Par ch=1 c=64 v=0
22943 On ch=1 n=d#3 v=0
22953 Par ch=1 c=64 v=127
22972 On ch=1 n=c#5 v=30
22974 On ch=1 n=d#5 v=32
22979 On ch=1 n=d#4 v=38
22982 On ch=1 n=g4 v=40
23005 On ch=1 n=a#5 v=0
23011 On ch=1 n=d#4 v=0
23011 On ch=1 n=g4 v=0
23021 On ch=1 n=c#5 v=0
23028 On ch=1 n=d#5 v=0
23038 On ch=1 n=g#5 v=60
23048 On ch=1 n=g#3 v=37
23065 Par ch=1 c=64 v=72
23070 Par ch=1 c=64 v=0
23098 Par ch=1 c=64 v=56
23101 On ch=1 n=d#5 v=23
23102 Par ch=1 c=64 v=127
23104 On ch=1 n=c5 v=47
23115 On ch=1 n=d#4 v=46
23120 On ch=1 n=g#4 v=32
23122 On ch=1 n=g#3 v=0
23127 On ch=1 n=c5 v=0
23135 On ch=1 n=d#4 v=0
23137 On ch=1 n=d#5 v=0
23141 On ch=1 n=g#4 v=0
23151 On ch=1 n=g#5 v=0
23201 On ch=1 n=a#5 v=78
23206 On ch=1 n=g#4 v=36
23239 Par ch=1 c=64 v=72
23243 Par ch=1 c=64 v=0
23257 On ch=1 n=g#4 v=0
23264 On ch=1 n=a#4 v=37
23267 On ch=1 n=f5 v=42
23268 Par ch=1 c=64 v=104
23271 On ch=1 n=d5 v=41
23272 Par ch=1 c=64 v=127
23285 On ch=1 n=d5 v=0
23289 On ch=1 n=a#4 v=0
23295 On ch=1 n=f5 v=0
23311 Par ch=1 c=64 v=24
23313 On ch=1 n=g4 v=57
23316 Par ch=1 c=64 v=0
23328 Par ch=1 c=64 v=40
23332 Par ch=1 c=64 v=127
23343 On ch=1 n=g4 v=0
23358 On ch=1 n=d#5 v=54
23360 On ch=1 n=g5 v=56
23360 On ch=1 n=a#4 v=38
23381 On ch=1 n=d#5 v=0
23391 On ch=1 n=g5 v=0
23392 On ch=1 n=a#4 v=0
23394 On ch=1 n=a#5 v=0
23407 On ch=1 n=c6 v=87
23414 On ch=1 n=f4 v=64
23417 Par ch=1 c=64 v=40
23421 Par ch=1 c=64 v=0
23431 On ch=1 n=f4 v=0
23433 Par ch=1 c=64 v=88
23437 Par ch=1 c=64 v=127
23450 On ch=1 n=c6 v=0
23456 On ch=1 n=d6 v=93
23459 On ch=1 n=g#5 v=60
23462 On ch=1 n=a#4 v=34
23466 On ch=1 n=d5 v=27
23474 On ch=1 n=d5 v=0
23475 On ch=1 n=g#5 v=0
23482 On ch=1 n=a#4 v=0
23514 Par ch=1 c=64 v=24
23515 On ch=1 n=d#4 v=63
23515 On ch=1 n=d#6 v=88
23518 Par ch=1 c=64 v=0
23524 On ch=1 n=d6 v=0
23533 On ch=1 n=d#4 v=0
23534 Par ch=1 c=64 v=104
23538 Par ch=1 c=64 v=127
23553 On ch=1 n=d#6 v=0
23568 On ch=1 n=g5 v=56
23571 On ch=1 n=d#5 v=46
23574 On ch=1 n=a#4 v=33
23578 On ch=1 n=d#5 v=0
23581 On ch=1 n=g5 v=0
23584 On ch=1 n=a#4 v=0
23635 On ch=1 n=g#5 v=86
23638 On ch=1 n=f#4 v=45
23651 Par ch=1 c=64 v=40
23655 Par ch=1 c=64 v=0
23683 Par ch=1 c=64 v=104
23687 Par ch=1 c=64 v=127
23694 On ch=1 n=f#4 v=0
23695 On ch=1 n=d#5 v=42
23698 On ch=1 n=g#4 v=39
23700 On ch=1 n=c5 v=38
23711 On ch=1 n=c5 v=0
23721 On ch=1 n=g#4 v=0
23729 On ch=1 n=d#5 v=0
23743 On ch=1 n=f4 v=60
23748 Par ch=1 c=64 v=40
23752 Par ch=1 c=64 v=0
23764 Par ch=1 c=64 v=56
23768 Par ch=1 c=64 v=127
23780 On ch=1 n=f4 v=0
23791 On ch=1 n=c#5 v=37
23793 On ch=1 n=f5 v=55
23798 On ch=1 n=g#4 v=44
23809 On ch=1 n=g#5 v=0
23810 On ch=1 n=c#5 v=0
23810 On ch=1 n=f5 v=0
23840 On ch=1 n=g#4 v=0
23847 On ch=1 n=a#5 v=82
23849 On ch=1 n=d#4 v=61
23857 Par ch=1 c=64 v=56
23861 Par ch=1 c=64 v=0
23873 Par ch=1 c=64 v=56
23876 On ch=1 n=d#4 v=0
23876 Par ch=1 c=64 v=127
23890 On ch=1 n=a#5 v=0
23894 On ch=1 n=c6 v=94
23900 On ch=1 n=c5 v=58
23900 On ch=1 n=f#5 v=46
23900 On ch=1 n=g#4 v=37
23907 On ch=1 n=c5 v=0
23911 On ch=1 n=f#5 v=0
23915 On ch=1 n=g#4 v=0
23942 On ch=1 n=c6 v=0
23950 On ch=1 n=c#6 v=86
23957 Par ch=1 c=64 v=88
23958 On ch=1 n=c#4 v=62
23961 Par ch=1 c=64 v=0
23973 On ch=1 n=c#4 v=0
23974 Par ch=1 c=64 v=24
23977 Par ch=1 c=64 v=88
23982 Par ch=1 c=64 v=127
24006 On ch=1 n=f5 v=63
24006 On ch=1 n=c#5 v=50
24008 On ch=1 n=g#4 v=43
24017 On ch=1 n=c#5 v=0
24017 On ch=1 n=f5 v=0
24023 On ch=1 n=g#4 v=0
24051 On ch=1 n=c#6 v=0
24054 On ch=1 n=f6 v=88
24060 On ch=1 n=c6 v=81
24064 On ch=1 n=f4 v=63
24066 Par ch=1 c=64 v=24
24070 Par ch=1 c=64 v=0
24089 On ch=1 n=f4 v=0
24091 Par ch=1 c=64 v=88
24095 On ch=1 n=c6 v=0
24095 Par ch=1 c=64 v=127
24109 On ch=1 n=c#6 v=86
24110 On ch=1 n=d#5 v=43
24110 On ch=1 n=f5 v=52
24117 On ch=1 n=a4 v=45
24118 On ch=1 n=d#5 v=0
24119 On ch=1 n=f5 v=0
24124 On ch=1 n=a4 v=0
24162 Par ch=1 c=64 v=56
24164 On ch=1 n=a#5 v=79
24165 On ch=1 n=a#3 v=63
24167 Par ch=1 c=64 v=0
24168 On ch=1 n=c#6 v=0
24174 On ch=1 n=a#3 v=0
24183 Par ch=1 c=64 v=72
24187 Par ch=1 c=64 v=127
24213 On ch=1 n=f5 v=50
24214 On ch=1 n=c#5 v=50
24215 On ch=1 n=a#4 v=49
24224 On ch=1 n=c#5 v=0
24233 On ch=1 n=f5 v=0
24233 On ch=1 n=a#4 v=0
24233 On ch=1 n=a#5 v=0
24263 On ch=1 n=f6 v=80
24263 On ch=1 n=c6 v=90
24270 On ch=1 n=f4 v=60
24272 Par ch=1 c=64 v=88
24276 Par ch=1 c=64 v=0
24295 On ch=1 n=f4 v=0
24300 Par ch=1 c=64 v=127
24314 On ch=1 n=f5 v=62
24320 On ch=1 n=d#5 v=57
24321 On ch=1 n=d#5 v=0
24321 On ch=1 n=f5 v=0
24349 On ch=1 n=c6 v=0
24349 On ch=1 n=f6 v=0
24365 On ch=1 n=d#6 v=84
24373 On ch=1 n=a#3 v=58
24377 Par ch=1 c=64 v=56
24381 Par ch=1 c=64 v=0
24397 Par ch=1 c=64 v=72
24401 Par ch=1 c=64 v=127
24413 On ch=1 n=a#3 v=0
24416 On ch=1 n=c#6 v=84
24422 On ch=1 n=c#5 v=56
24424 On ch=1 n=f4 v=56
24443 On ch=1 n=c#5 v=0
24445 On ch=1 n=f4 v=0
24456 On ch=1 n=d#6 v=0
24459 On ch=1 n=c#6 v=0
24465 On ch=1 n=c6 v=92
24472 On ch=1 n=c#4 v=58
24474 Par ch=1 c=64 v=72
24478 Par ch=1 c=64 v=0
24490 Par ch=1 c=64 v=56
24494 Par ch=1 c=64 v=127
24507 On ch=1 n=c#4 v=0
24517 On ch=1 n=c6 v=0
24517 On ch=1 n=a#5 v=83
24518 On ch=1 n=f6 v=0
24523 On ch=1 n=f4 v=48
24524 On ch=1 n=a#4 v=43
24530 On ch=1 n=f4 v=0
24540 On ch=1 n=a#5 v=0
24562 On ch=1 n=a#4 v=0
24575 On ch=1 n=g#5 v=81
24586 On ch=1 n=f4 v=50
24598 Par ch=1 c=64 v=72
24603 Par ch=1 c=64 v=0
24627 Par ch=1 c=64 v=88
24631 Par ch=1 c=64 v=127
24631 On ch=1 n=c5 v=51
24635 On ch=1 n=g#4 v=37
24643 On ch=1 n=f4 v=0
24661 On ch=1 n=g#5 v=0
24671 On ch=1 n=c5 v=0
24683 On ch=1 n=g#4 v=0
24693 On ch=1 n=a#5 v=71
24697 On ch=1 n=g5 v=58
24705 On ch=1 n=c#4 v=49
24724 Par ch=1 c=64 v=0
24749 On ch=1 n=g5 v=0
24752 On ch=1 n=c#4 v=0
24752 Par ch=1 c=64 v=88
24755 On ch=1 n=f5 v=60
24756 Par ch=1 c=64 v=127
24759 On ch=1 n=g4 v=44
24763 On ch=1 n=a#4 v=44
24801 On ch=1 n=a#5 v=0
24819 On ch=1 n=c4 v=53
24837 On ch=1 n=c6 v=74
24845 Par ch=1 c=64 v=56
24849 Par ch=1 c=64 v=0
24880 On ch=1 n=a#4 v=0
24881 On ch=1 n=g4 v=0
24884 Par ch=1 c=64 v=127
24904 On ch=1 n=f5 v=0
24913 On ch=1 n=e5 v=51
24913 Par ch=1 c=64 v=104
24917 Par ch=1 c=64 v=0
24923 On ch=1 n=a#4 v=30
24938 On ch=1 n=g4 v=26
24941 Par ch=1 c=64 v=127
24952 On ch=1 n=g4 v=0
24959 On ch=1 n=c4 v=0
24959 On ch=1 n=a#4 v=0
24966 On ch=1 n=c6 v=0
24972 On ch=1 n=e5 v=0
25016 On ch=1 n=c6 v=87
25022 Par ch=1 c=64 v=104
25025 On ch=1 n=f3 v=47
25026 Par ch=1 c=64 v=0
25047 On ch=1 n=f3 v=0
25047 Par ch=1 c=64 v=127
25078 On ch=1 n=d#5 v=49
25080 On ch=1 n=f5 v=56
25083 On ch=1 n=f4 v=43
25083 On ch=1 n=a4 v=46
25103 On ch=1 n=f4 v=0
25106 On ch=1 n=c6 v=0
25109 On ch=1 n=a4 v=0
25115 On ch=1 n=f5 v=0
25117 On ch=1 n=d#5 v=0
25129 On ch=1 n=a#5 v=81
25138 On ch=1 n=a#3 v=52
25143 Par ch=1 c=64 v=24
25147 Par ch=1 c=64 v=0
25167 Par ch=1 c=64 v=56
25171 Par ch=1 c=64 v=127
25179 On ch=1 n=a#3 v=0
25183 On ch=1 n=c#5 v=48
25187 On ch=1 n=a#4 v=45
25188 On ch=1 n=f5 v=55
25190 On ch=1 n=f4 v=45
25198 On ch=1 n=f4 v=0
25204 On ch=1 n=a#4 v=0
25204 On ch=1 n=a#5 v=0
25215 On ch=1 n=c#5 v=0
25222 On ch=1 n=f5 v=0
25237 On ch=1 n=c6 v=85
25248 On ch=1 n=f3 v=60
25256 Par ch=1 c=64 v=24
25260 Par ch=1 c=64 v=0
25266 On ch=1 n=f3 v=0
25276 Par ch=1 c=64 v=72
25280 Par ch=1 c=64 v=127
25293 On ch=1 n=f5 v=47
25295 On ch=1 n=d#5 v=38
25305 On ch=1 n=a4 v=38
25306 On ch=1 n=f4 v=51
25317 On ch=1 n=f4 v=0
25318 On ch=1 n=d#5 v=0
25319 On ch=1 n=f5 v=0
25320 On ch=1 n=c6 v=0
25327 On ch=1 n=a4 v=0
25347 On ch=1 n=d#6 v=90
25357 Par ch=1 c=64 v=88
25357 On ch=1 n=a#3 v=56
25361 Par ch=1 c=64 v=0
25377 Par ch=1 c=64 v=40
25381 On ch=1 n=d#6 v=0
25381 Par ch=1 c=64 v=127
25402 On ch=1 n=c#6 v=88
25405 On ch=1 n=c#5 v=61
25406 On ch=1 n=a#3 v=0
25407 On ch=1 n=a#4 v=31
25412 On ch=1 n=f4 v=35
25423 On ch=1 n=c#5 v=0
25426 On ch=1 n=f4 v=0
25436 On ch=1 n=c#6 v=0
25437 On ch=1 n=a#4 v=0
25450 On ch=1 n=c6 v=87
25458 Par ch=1 c=64 v=104
25460 On ch=1 n=c#4 v=44
25462 Par ch=1 c=64 v=24
25466 Par ch=1 c=64 v=0
25478 Par ch=1 c=64 v=24
25482 Par ch=1 c=64 v=104
25485 On ch=1 n=c6 v=0
25486 Par ch=1 c=64 v=127
25494 On ch=1 n=c#4 v=0
25500 On ch=1 n=a#5 v=78
25507 On ch=1 n=c#5 v=50
25510 On ch=1 n=a#4 v=26
25514 On ch=1 n=f4 v=39
25523 On ch=1 n=c#5 v=0
25533 On ch=1 n=a#4 v=0
25541 On ch=1 n=a#5 v=0
25549 On ch=1 n=f4 v=0
25560 On ch=1 n=g#5 v=71
25569 On ch=1 n=d#4 v=48
25579 Par ch=1 c=64 v=72
25583 Par ch=1 c=64 v=0
25610 Par ch=1 c=64 v=40
25614 Par ch=1 c=64 v=127
25620 On ch=1 n=g#4 v=36
25621 On ch=1 n=d#5 v=39
25622 On ch=1 n=c5 v=49
25631 On ch=1 n=d#4 v=0
25634 On ch=1 n=g#5 v=0
25640 On ch=1 n=g#4 v=0
25653 On ch=1 n=c5 v=0
25678 On ch=1 n=d#5 v=0
25684 On ch=1 n=a#5 v=68
25690 On ch=1 n=d#3 v=40
25700 Par ch=1 c=64 v=24
25704 Par ch=1 c=64 v=0
25716 On ch=1 n=d#3 v=0
25724 Par ch=1 c=64 v=104
25728 Par ch=1 c=64 v=127
25752 On ch=1 n=d#5 v=37
25752 On ch=1 n=c#5 v=30
25754 On ch=1 n=g4 v=40
25758 On ch=1 n=d#4 v=30
25787 On ch=1 n=a#5 v=0
25791 On ch=1 n=g4 v=0
25798 On ch=1 n=c#5 v=0
25817 On ch=1 n=d#5 v=0
25822 On ch=1 n=g#5 v=64
25827 On ch=1 n=g#3 v=34
25845 Par ch=1 c=64 v=88
25849 Par ch=1 c=64 v=0
25881 Par ch=1 c=64 v=56
25885 Par ch=1 c=64 v=127
25897 On ch=1 n=d#5 v=32
25902 On ch=1 n=g#4 v=27
25903 On ch=1 n=c5 v=38
25926 On ch=1 n=c5 v=0
25933 On ch=1 n=g#4 v=0
25937 On ch=1 n=g#5 v=0
25943 On ch=1 n=d#4 v=0
25945 On ch=1 n=d#5 v=0
25951 On ch=1 n=g#3 v=0
26019 On ch=1 n=g#4 v=70
26027 On ch=1 n=e4 v=36
26050 Par ch=1 c=64 v=104
26055 Par ch=1 c=64 v=0
26087 Par ch=1 c=64 v=104
26091 Par ch=1 c=64 v=127
26106 On ch=1 n=g#5 v=53
26110 On ch=1 n=e5 v=45
26128 On ch=1 n=g#4 v=0
26135 On ch=1 n=e5 v=0
26135 On ch=1 n=g#5 v=0
26172 On ch=1 n=f#4 v=74
26177 On ch=1 n=e4 v=0
26184 On ch=1 n=a3 v=53
26203 Par ch=1 c=64 v=72
26208 Par ch=1 c=64 v=0
26232 Par ch=1 c=64 v=88
26236 Par ch=1 c=64 v=127
26237 On ch=1 n=f#4 v=0
26242 On ch=1 n=f#5 v=50
26242 On ch=1 n=c#5 v=38
26250 On ch=1 n=e5 v=37
26282 On ch=1 n=e5 v=0
26282 On ch=1 n=f#5 v=0
26284 On ch=1 n=c#5 v=0
26290 On ch=1 n=g#4 v=77
26296 On ch=1 n=a3 v=0
26296 On ch=1 n=g#3 v=52
26305 Par ch=1 c=64 v=72
26309 Par ch=1 c=64 v=0
26325 Par ch=1 c=64 v=72
26329 Par ch=1 c=64 v=127
26348 On ch=1 n=f#5 v=71
26352 On ch=1 n=g#4 v=0
26357 On ch=1 n=e5 v=34
26369 On ch=1 n=e5 v=0
26387 On ch=1 n=f#5 v=0
26397 On ch=1 n=b4 v=80
26403 On ch=1 n=g#3 v=0
26406 Par ch=1 c=64 v=88
26407 On ch=1 n=f#3 v=49
26410 Par ch=1 c=64 v=0
26430 Par ch=1 c=64 v=56
26433 On ch=1 n=b4 v=0
26434 Par ch=1 c=64 v=127
26447 On ch=1 n=f#5 v=63
26451 On ch=1 n=a4 v=79
26451 On ch=1 n=c#5 v=60
26455 On ch=1 n=e5 v=59
26472 On ch=1 n=a4 v=0
26480 On ch=1 n=c#5 v=0
26482 On ch=1 n=f#5 v=0
26486 On ch=1 n=e5 v=0
26498 On ch=1 n=g#4 v=78
26511 On ch=1 n=g#3 v=45
26527 On ch=1 n=g#4 v=0
26527 On ch=1 n=f#3 v=0
26549 On ch=1 n=f#4 v=77
26552 On ch=1 n=g#3 v=0
26552 On ch=1 n=c#5 v=59
26553 On ch=1 n=f#5 v=64
26555 On ch=1 n=e5 v=66
26558 On ch=1 n=a3 v=58
26578 On ch=1 n=f#4 v=0
26584 On ch=1 n=c#5 v=0
26585 On ch=1 n=e5 v=0
26588 On ch=1 n=f#5 v=0
26599 On ch=1 n=a3 v=0
26605 On ch=1 n=b3 v=77
26619 Par ch=1 c=64 v=72
26623 Par ch=1 c=64 v=0
26648 Par ch=1 c=64 v=40
26652 Par ch=1 c=64 v=127
26652 On ch=1 n=g#4 v=71
26660 On ch=1 n=e5 v=61
26664 On ch=1 n=b4 v=42
26679 Par ch=1 c=64 v=56
26684 Par ch=1 c=64 v=0
26700 Par ch=1 c=64 v=40
26704 Par ch=1 c=64 v=104
26708 Par ch=1 c=64 v=127
26719 On ch=1 n=b2 v=45
26730 On ch=1 n=b4 v=0
26731 On ch=1 n=g#4 v=0
26733 On ch=1 n=e5 v=0
26771 On ch=1 n=f#4 v=61
26775 On ch=1 n=d#5 v=54
26783 On ch=1 n=b4 v=37
26793 Par ch=1 c=64 v=56
26797 Par ch=1 c=64 v=0
26824 Par ch=1 c=64 v=127
26832 On ch=1 n=f#4 v=0
26838 On ch=1 n=d#5 v=0
26841 On ch=1 n=b4 v=0
26848 On ch=1 n=b2 v=0
26867 On ch=1 n=b3 v=0
26894 On ch=1 n=f#4 v=50
26896 On ch=1 n=d#5 v=43
26904 On ch=1 n=b4 v=34
26913 On ch=1 n=f#4 v=0
26923 On ch=1 n=b4 v=0
26929 On ch=1 n=d#5 v=0
26968 On ch=1 n=g#4 v=77
26978 On ch=1 n=e3 v=44
26991 Par ch=1 c=64 v=40
26995 Par ch=1 c=64 v=0
27015 Par ch=1 c=64 v=40
27018 Par ch=1 c=64 v=127
27035 On ch=1 n=g#5 v=69
27039 On ch=1 n=b4 v=47
27042 On ch=1 n=e5 v=44
27049 On ch=1 n=g#4 v=0
27063 On ch=1 n=g#5 v=0
27066 On ch=1 n=b4 v=0
27080 On ch=1 n=e5 v=0
27082 On ch=1 n=e3 v=0
27088 On ch=1 n=f#4 v=78
27093 On ch=1 n=a3 v=56
27103 Par ch=1 c=64 v=104
27107 Par ch=1 c=64 v=24
27111 Par ch=1 c=64 v=0
27128 Par ch=1 c=64 v=56
27132 Par ch=1 c=64 v=127
27136 On ch=1 n=f#4 v=0
27139 On ch=1 n=f#5 v=65
27141 On ch=1 n=c#5 v=60
27144 On ch=1 n=e5 v=57
27181 On ch=1 n=f#5 v=0
27183 On ch=1 n=e5 v=0
27184 On ch=1 n=c#5 v=0
27188 On ch=1 n=g#4 v=80
27192 Par ch=1 c=64 v=104
27196 Par ch=1 c=64 v=24
27199 On ch=1 n=g#3 v=48
27200 Par ch=1 c=64 v=0
27201 On ch=1 n=a3 v=0
27217 Par ch=1 c=64 v=40
27221 Par ch=1 c=64 v=127
27243 On ch=1 n=f#5 v=69
27244 On ch=1 n=c#5 v=61
27246 On ch=1 n=e5 v=65
27248 On ch=1 n=g#4 v=0
27275 On ch=1 n=f#5 v=0
27276 On ch=1 n=c#5 v=0
27277 On ch=1 n=e5 v=0
27291 On ch=1 n=g#3 v=0
27291 On ch=1 n=b4 v=83
27293 Par ch=1 c=64 v=56
27296 On ch=1 n=f#3 v=45
27297 Par ch=1 c=64 v=0
27308 Par ch=1 c=64 v=24
27313 Par ch=1 c=64 v=88
27316 On ch=1 n=b4 v=0
27317 Par ch=1 c=64 v=127
27340 On ch=1 n=f#5 v=72
27340 On ch=1 n=a4 v=78
27342 On ch=1 n=c#5 v=62
27343 On ch=1 n=e5 v=73
27359 On ch=1 n=a4 v=0
27375 On ch=1 n=c#5 v=0
27380 On ch=1 n=f#5 v=0
27382 On ch=1 n=e5 v=0
27391 On ch=1 n=g#4 v=77
27393 On ch=1 n=f#3 v=0
27393 On ch=1 n=g#3 v=51
27419 On ch=1 n=g#4 v=0
27444 On ch=1 n=g#3 v=0
27444 On ch=1 n=f#4 v=76
27445 On ch=1 n=f#5 v=71
27447 On ch=1 n=c#5 v=58
27447 On ch=1 n=e5 v=70
27451 On ch=1 n=a3 v=57
27475 On ch=1 n=c#5 v=0
27475 On ch=1 n=f#4 v=0
27477 On ch=1 n=f#5 v=0
27478 On ch=1 n=e5 v=0
27496 On ch=1 n=a3 v=0
27502 On ch=1 n=b3 v=65
27553 On ch=1 n=e5 v=74
27554 On ch=1 n=g#4 v=56
27556 On ch=1 n=b4 v=60
27559 Par ch=1 c=64 v=56
27563 Par ch=1 c=64 v=0
27592 Par ch=1 c=64 v=40
27596 Par ch=1 c=64 v=104
27600 Par ch=1 c=64 v=127
27614 On ch=1 n=b4 v=0
27616 On ch=1 n=b2 v=43
27617 On ch=1 n=g#4 v=0
27625 On ch=1 n=e5 v=0
27672 On ch=1 n=d#5 v=57
27674 On ch=1 n=f#4 v=45
27680 On ch=1 n=b4 v=43
27701 Par ch=1 c=64 v=56
27705 Par ch=1 c=64 v=0
27725 Par ch=1 c=64 v=72
27729 On ch=1 n=b4 v=0
27729 On ch=1 n=f#4 v=0
27729 Par ch=1 c=64 v=127
27743 On ch=1 n=d#5 v=0
27803 On ch=1 n=d#5 v=46
27806 On ch=1 n=f#4 v=40
27809 On ch=1 n=b4 v=42
27820 On ch=1 n=b4 v=0
27833 On ch=1 n=d#5 v=0
27834 On ch=1 n=f#4 v=0
27835 On ch=1 n=b3 v=0
27901 On ch=1 n=d5 v=71
27909 On ch=1 n=b3 v=58
27930 Par ch=1 c=64 v=72
27935 Par ch=1 c=64 v=0
27951 Par ch=1 c=64 v=24
27955 Par ch=1 c=64 v=88
27959 Par ch=1 c=64 v=127
27996 On ch=1 n=g#4 v=40
28000 On ch=1 n=f4 v=37
28001 On ch=1 n=b2 v=0
28007 On ch=1 n=b3 v=0
28046 On ch=1 n=f4 v=0
28049 On ch=1 n=g#4 v=0
28063 On ch=1 n=a#3 v=68
28069 On ch=1 n=a#2 v=43
28084 Par ch=1 c=64 v=104
28088 Par ch=1 c=64 v=72
28100 Par ch=1 c=64 v=127
28123 On ch=1 n=g#4 v=52
28127 On ch=1 n=f4 v=52
28133 On ch=1 n=d5 v=0
28138 On ch=1 n=a#3 v=0
28139 On ch=1 n=a#2 v=0
28156 On ch=1 n=f4 v=0
28176 On ch=1 n=g#4 v=0
28178 On ch=1 n=d5 v=82
28185 On ch=1 n=g#3 v=55
28189 On ch=1 n=g#2 v=44
28193 Par ch=1 c=64 v=104
28197 Par ch=1 c=64 v=56
28201 Par ch=1 c=64 v=0
28209 Par ch=1 c=64 v=24
28213 Par ch=1 c=64 v=88
28216 Par ch=1 c=64 v=127
28235 On ch=1 n=f4 v=52
28242 On ch=1 n=a#4 v=46
28251 On ch=1 n=g#3 v=0
28253 On ch=1 n=g#2 v=0
28257 On ch=1 n=d5 v=0
28263 On ch=1 n=f4 v=0
28293 On ch=1 n=a#4 v=0
28295 On ch=1 n=d#5 v=74
28306 On ch=1 n=g3 v=46
28309 On ch=1 n=g2 v=37
28317 Par ch=1 c=64 v=24
28321 Par ch=1 c=64 v=0
28342 Par ch=1 c=64 v=72
28346 Par ch=1 c=64 v=127
28356 On ch=1 n=d#4 v=39
28359 On ch=1 n=a#4 v=36
28362 On ch=1 n=g2 v=0
28369 On ch=1 n=g3 v=0
28396 On ch=1 n=d#5 v=0
28398 On ch=1 n=d#4 v=0
28408 On ch=1 n=a#4 v=0
28421 On ch=1 n=c5 v=70
28429 On ch=1 n=a3 v=66
28432 On ch=1 n=a2 v=46
28447 Par ch=1 c=64 v=72
28451 Par ch=1 c=64 v=0
28471 Par ch=1 c=64 v=40
28475 Par ch=1 c=64 v=127
28484 On ch=1 n=d#4 v=45
28487 On ch=1 n=f#4 v=45
28499 On ch=1 n=a3 v=0
28507 On ch=1 n=a2 v=0
28544 On ch=1 n=f#4 v=0
28553 On ch=1 n=g#3 v=55
28554 On ch=1 n=g#2 v=47
28555 On ch=1 n=d#4 v=0
28576 Par ch=1 c=64 v=88
28580 Par ch=1 c=64 v=24
28584 Par ch=1 c=64 v=0
28600 Par ch=1 c=64 v=56
28604 Par ch=1 c=64 v=127
28621 On ch=1 n=f#4 v=44
28623 On ch=1 n=c5 v=0
28624 On ch=1 n=d#4 v=32
28635 On ch=1 n=g#3 v=0
28647 On ch=1 n=g#2 v=0
28666 On ch=1 n=d#4 v=0
28673 On ch=1 n=f#4 v=0
28690 On ch=1 n=c5 v=66
28695 On ch=1 n=f#3 v=35
28697 On ch=1 n=f#2 v=31
28713 Par ch=1 c=64 v=72
28717 Par ch=1 c=64 v=0
28741 Par ch=1 c=64 v=88
28745 Par ch=1 c=64 v=127
28772 On ch=1 n=d#4 v=44
28774 On ch=1 n=g#4 v=43
28796 On ch=1 n=f#2 v=0
28809 On ch=1 n=f#3 v=0
28811 On ch=1 n=d#4 v=0
28824 On ch=1 n=g#4 v=0
28842 On ch=1 n=c5 v=0
28871 On ch=1 n=c#5 v=58
28875 On ch=1 n=c#4 v=31
28877 On ch=1 n=g#4 v=32
28878 On ch=1 n=f3 v=31
28884 On ch=1 n=f2 v=26
28894 Par ch=1 c=64 v=104
28898 Par ch=1 c=64 v=0
28927 Par ch=1 c=64 v=56
28931 Par ch=1 c=64 v=127
28952 On ch=1 n=g#4 v=0
29014 On ch=1 n=a4 v=37
29035 Par ch=1 c=64 v=104
29039 Par ch=1 c=64 v=24
29043 Par ch=1 c=64 v=0
29059 Par ch=1 c=64 v=56
29060 On ch=1 n=f2 v=0
29064 Par ch=1 c=64 v=127
29066 On ch=1 n=c#4 v=0
29070 On ch=1 n=f3 v=0
29084 On ch=1 n=a4 v=0
29096 On ch=1 n=c#5 v=0
29207 On ch=1 n=c6 v=73
29212 On ch=1 n=f3 v=36
29217 Par ch=1 c=64 v=88
29221 Par ch=1 c=64 v=0
29245 On ch=1 n=f3 v=0
29245 Par ch=1 c=64 v=127
29290 On ch=1 n=a4 v=38
29292 On ch=1 n=f5 v=50
29292 On ch=1 n=f4 v=30
29295 On ch=1 n=d#5 v=36
29301 On ch=1 n=a4 v=0
29305 On ch=1 n=f4 v=0
29320 On ch=1 n=c6 v=0
29328 On ch=1 n=f5 v=0
29332 On ch=1 n=d#5 v=0
29343 On ch=1 n=a#5 v=82
29348 On ch=1 n=a#3 v=48
29354 Par ch=1 c=64 v=40
29358 Par ch=1 c=64 v=0
29378 Par ch=1 c=64 v=104
29382 Par ch=1 c=64 v=127
29390 On ch=1 n=a#3 v=0
29399 On ch=1 n=a#4 v=37
29401 On ch=1 n=f5 v=58
29401 On ch=1 n=c#5 v=48
29402 On ch=1 n=a#5 v=0
29403 On ch=1 n=f4 v=54
29411 On ch=1 n=f4 v=0
29411 On ch=1 n=a#4 v=0
29435 On ch=1 n=c#5 v=0
29446 On ch=1 n=f5 v=0
29456 On ch=1 n=c6 v=89
29463 On ch=1 n=f3 v=45
29467 Par ch=1 c=64 v=56
29471 Par ch=1 c=64 v=0
29475 On ch=1 n=f3 v=0
29483 Par ch=1 c=64 v=56
29487 Par ch=1 c=64 v=127
29509 On ch=1 n=f5 v=64
29510 On ch=1 n=d#5 v=48
29513 On ch=1 n=c6 v=0
29514 On ch=1 n=a4 v=47
29516 On ch=1 n=f4 v=41
29526 On ch=1 n=f4 v=0
29529 On ch=1 n=a4 v=0
29530 On ch=1 n=f5 v=0
29533 On ch=1 n=d#5 v=0
29558 On ch=1 n=d#6 v=92
29568 Par ch=1 c=64 v=88
29568 On ch=1 n=a#3 v=52
29572 Par ch=1 c=64 v=24
29576 Par ch=1 c=64 v=0
29580 Par ch=1 c=64 v=24
29584 Par ch=1 c=64 v=88
29588 On ch=1 n=d#6 v=0
29588 Par ch=1 c=64 v=127
29605 On ch=1 n=a#3 v=0
29610 On ch=1 n=c#6 v=91
29613 On ch=1 n=c#5 v=63
29617 On ch=1 n=a#4 v=32
29620 On ch=1 n=f4 v=37
29631 On ch=1 n=c#5 v=0
29632 On ch=1 n=f4 v=0
29643 On ch=1 n=a#4 v=0
29645 On ch=1 n=c#6 v=0
29659 On ch=1 n=c6 v=94
29669 On ch=1 n=c#4 v=40
29673 Par ch=1 c=64 v=88
29677 Par ch=1 c=64 v=40
29681 Par ch=1 c=64 v=24
29684 Par ch=1 c=64 v=40
29688 Par ch=1 c=64 v=72
29692 On ch=1 n=c6 v=0
29693 Par ch=1 c=64 v=127
29698 On ch=1 n=c#4 v=0
29706 On ch=1 n=a#5 v=85
29709 On ch=1 n=c#5 v=54
29710 On ch=1 n=a#4 v=32
29715 On ch=1 n=f4 v=40
29725 On ch=1 n=f4 v=0
29727 On ch=1 n=c#5 v=0
29729 On ch=1 n=a#4 v=0
29742 On ch=1 n=a#5 v=0
29765 On ch=1 n=g#5 v=77
29773 On ch=1 n=d#4 v=55
29777 Par ch=1 c=64 v=104
29781 Par ch=1 c=64 v=0
29810 Par ch=1 c=64 v=88
29814 Par ch=1 c=64 v=127
29818 On ch=1 n=g#4 v=46
29819 On ch=1 n=d#5 v=47
29824 On ch=1 n=c5 v=50
29829 On ch=1 n=d#4 v=0
29837 On ch=1 n=g#5 v=0
29842 On ch=1 n=g#4 v=0
29847 On ch=1 n=c5 v=0
29855 On ch=1 n=d#5 v=0
29880 On ch=1 n=a#5 v=67
29887 On ch=1 n=d#3 v=49
29895 Par ch=1 c=64 v=104
29899 Par ch=1 c=64 v=0
29917 On ch=1 n=d#3 v=0
29919 Par ch=1 c=64 v=56
29923 Par ch=1 c=64 v=127
29945 On ch=1 n=c#5 v=35
29947 On ch=1 n=d#5 v=43
29949 On ch=1 n=g4 v=53
29952 On ch=1 n=d#4 v=33
29973 On ch=1 n=d#4 v=0
29975 On ch=1 n=g4 v=0
29982 On ch=1 n=a#5 v=0
29992 On ch=1 n=c#5 v=0
29996 On ch=1 n=d#5 v=0
30011 On ch=1 n=g#5 v=59
30019 On ch=1 n=g#3 v=30
30040 Par ch=1 c=64 v=88
30044 Par ch=1 c=64 v=0
30071 Par ch=1 c=64 v=88
30075 Par ch=1 c=64 v=127
30079 On ch=1 n=d#5 v=31
30083 On ch=1 n=c5 v=35
30088 On ch=1 n=g#3 v=0
30089 On ch=1 n=g#4 v=34
30089 On ch=1 n=d#4 v=32
30105 On ch=1 n=c5 v=0
30106 On ch=1 n=d#4 v=0
30110 On ch=1 n=g#4 v=0
30110 On ch=1 n=d#5 v=0
30116 On ch=1 n=g#5 v=0
30185 On ch=1 n=c6 v=80
30192 On ch=1 n=g#4 v=39
30213 Par ch=1 c=64 v=24
30217 Par ch=1 c=64 v=0
30237 Par ch=1 c=64 v=40
30241 Par ch=1 c=64 v=127
30251 On ch=1 n=d#5 v=51
30252 On ch=1 n=g#5 v=58
30255 On ch=1 n=c5 v=52
30269 On ch=1 n=c5 v=0
30269 On ch=1 n=d#5 v=0
30271 On ch=1 n=c6 v=0
30275 On ch=1 n=g#4 v=0
30279 On ch=1 n=g#5 v=0
30327 On ch=1 n=f6 v=88
30334 On ch=1 n=d4 v=45
30350 Par ch=1 c=64 v=56
30354 Par ch=1 c=64 v=0
30375 Par ch=1 c=64 v=56
30379 Par ch=1 c=64 v=127
30395 On ch=1 n=f5 v=46
30400 On ch=1 n=g#5 v=39
30402 On ch=1 n=a#4 v=30
30409 On ch=1 n=d4 v=0
30410 On ch=1 n=f6 v=0
30434 On ch=1 n=a#4 v=0
30441 On ch=1 n=f5 v=0
30445 On ch=1 n=g#5 v=0
30449 On ch=1 n=a#5 v=85
30459 On ch=1 n=d#4 v=44
30466 Par ch=1 c=64 v=104
30471 Par ch=1 c=64 v=24
30475 Par ch=1 c=64 v=0
30499 Par ch=1 c=64 v=104
30503 Par ch=1 c=64 v=127
30505 On ch=1 n=d#5 v=34
30507 On ch=1 n=g5 v=43
30511 On ch=1 n=a#4 v=33
30512 On ch=1 n=d#4 v=0
30553 On ch=1 n=g5 v=0
30553 On ch=1 n=a#4 v=0
30560 On ch=1 n=d#5 v=0
30567 On ch=1 n=d#6 v=84
30578 On ch=1 n=a#5 v=0
30578 On ch=1 n=c4 v=52
30588 Par ch=1 c=64 v=56
30592 Par ch=1 c=64 v=0
30623 On ch=1 n=d#5 v=31
30625 Par ch=1 c=64 v=127
30629 On ch=1 n=f#5 v=45
30633 On ch=1 n=g#4 v=36
30634 On ch=1 n=c4 v=0
30643 On ch=1 n=d#6 v=0
30675 On ch=1 n=f#5 v=0
30681 On ch=1 n=d#5 v=0
30685 On ch=1 n=g#5 v=70
30697 On ch=1 n=c#4 v=44
30706 On ch=1 n=g#4 v=0
30713 Par ch=1 c=64 v=24
30717 Par ch=1 c=64 v=0
30745 Par ch=1 c=64 v=104
30747 On ch=1 n=c#5 v=38
30749 On ch=1 n=c#4 v=0
30750 Par ch=1 c=64 v=127
30752 On ch=1 n=g#4 v=35
30753 On ch=1 n=f5 v=41
30788 On ch=1 n=f5 v=0
30789 On ch=1 n=c#5 v=0
30807 On ch=1 n=g#4 v=0
30815 On ch=1 n=c6 v=74
30817 On ch=1 n=g#5 v=0
30818 On ch=1 n=d#4 v=56
30834 Par ch=1 c=64 v=40
30838 Par ch=1 c=64 v=0
30863 Par ch=1 c=64 v=88
30867 Par ch=1 c=64 v=127
30883 On ch=1 n=c5 v=41
30886 On ch=1 n=d#5 v=49
30891 On ch=1 n=c6 v=0
30923 On ch=1 n=c5 v=0
30952 On ch=1 n=d#5 v=0
30959 On ch=1 n=a#5 v=68
30959 On ch=1 n=d#3 v=36
30979 Par ch=1 c=64 v=88
30983 Par ch=1 c=64 v=0
31016 Par ch=1 c=64 v=88
31020 Par ch=1 c=64 v=127
31043 On ch=1 n=c#5 v=50
31043 On ch=1 n=d#5 v=36
31069 On ch=1 n=c#5 v=0
31088 On ch=1 n=d#3 v=0
31092 On ch=1 n=d#5 v=0
31095 On ch=1 n=a#5 v=0
31158 On ch=1 n=g#5 v=52
31164 On ch=1 n=g#3 v=30
31166 On ch=1 n=c5 v=41
31167 On ch=1 n=d#5 v=29
31201 Par ch=1 c=64 v=72
31205 Par ch=1 c=64 v=0
31250 Par ch=1 c=64 v=72
31254 Par ch=1 c=64 v=127
31299 On ch=1 n=c5 v=0
31303 On ch=1 n=d#5 v=0
31307 On ch=1 n=d#4 v=0
31309 On ch=1 n=g#3 v=0
31311 On ch=1 n=g#5 v=0
31499 Par ch=1 c=64 v=72
31504 Par ch=1 c=64 v=24
31508 Par ch=1 c=64 v=0
31530 On ch=1 n=g#5 v=73
31533 On ch=1 n=a#4 v=55
31539 On ch=1 n=d5 v=46
31557 On ch=1 n=a#4 v=0
31564 Par ch=1 c=64 v=24
31568 Par ch=1 c=64 v=72
31572 Par ch=1 c=64 v=127
31581 On ch=1 n=a#3 v=48
31588 On ch=1 n=a#3 v=0
31609 On ch=1 n=g#5 v=0
31617 Par ch=1 c=64 v=72
31621 On ch=1 n=d5 v=0
31621 Par ch=1 c=64 v=24
31625 Par ch=1 c=64 v=0
31626 On ch=1 n=g5 v=73
31626 On ch=1 n=a#4 v=46
31630 On ch=1 n=d#5 v=53
31644 On ch=1 n=a#4 v=0
31669 On ch=1 n=d#4 v=51
31679 On ch=1 n=d#4 v=0
31702 On ch=1 n=g5 v=0
31716 On ch=1 n=g#4 v=56
31717 On ch=1 n=f#5 v=63
31719 On ch=1 n=d#5 v=0
31725 On ch=1 n=c5 v=52
31733 On ch=1 n=g#4 v=0
31764 On ch=1 n=g#3 v=39
31772 On ch=1 n=g#3 v=0
31803 On ch=1 n=f#5 v=0
31805 On ch=1 n=c5 v=0
31810 On ch=1 n=f5 v=74
31810 On ch=1 n=g#4 v=49
31812 On ch=1 n=c#5 v=49
31826 On ch=1 n=g#4 v=0
31851 On ch=1 n=c#4 v=60
31857 On ch=1 n=c#5 v=0
31860 On ch=1 n=c#4 v=0
31889 On ch=1 n=f5 v=0
31897 On ch=1 n=g#5 v=82
31901 On ch=1 n=a#4 v=77
31903 On ch=1 n=d5 v=64
31907 Par ch=1 c=64 v=40
31911 On ch=1 n=d5 v=0
31911 Par ch=1 c=64 v=127
31919 On ch=1 n=a#4 v=0
31924 On ch=1 n=d5 v=18
31944 On ch=1 n=a#3 v=53
31952 On ch=1 n=a#3 v=0
31983 On ch=1 n=g#5 v=0
31984 Par ch=1 c=64 v=72
31987 On ch=1 n=d5 v=0
31988 Par ch=1 c=64 v=0
31988 On ch=1 n=a#4 v=49
31990 On ch=1 n=g5 v=78
31992 On ch=1 n=d#5 v=55
32005 On ch=1 n=a#4 v=0
32031 On ch=1 n=d#4 v=63
32047 On ch=1 n=d#4 v=0
32078 On ch=1 n=f#5 v=71
32079 On ch=1 n=g#4 v=64
32081 On ch=1 n=g5 v=0
32087 On ch=1 n=d#5 v=0
32087 On ch=1 n=c5 v=54
32097 On ch=1 n=g#4 v=0
32124 On ch=1 n=g#3 v=53
32133 On ch=1 n=f#5 v=0
32147 On ch=1 n=g#3 v=0
32167 On ch=1 n=g#4 v=60
32168 On ch=1 n=c5 v=0
32173 On ch=1 n=f5 v=70
32173 On ch=1 n=c#5 v=53
32195 On ch=1 n=g#4 v=0
32197 Par ch=1 c=64 v=40
32201 Par ch=1 c=64 v=72
32205 Par ch=1 c=64 v=104
32209 On ch=1 n=f5 v=0
32210 Par ch=1 c=64 v=127
32213 On ch=1 n=c#4 v=67
32224 On ch=1 n=c#5 v=0
32232 On ch=1 n=c#4 v=0
32257 On ch=1 n=c#5 v=80
32259 On ch=1 n=c#4 v=65
32261 On ch=1 n=g#4 v=60
32261 Par ch=1 c=64 v=24
32265 Par ch=1 c=64 v=0
32302 Par ch=1 c=64 v=40
32306 On ch=1 n=f3 v=51
32306 Par ch=1 c=64 v=88
32310 Par ch=1 c=64 v=127
32335 Par ch=1 c=64 v=88
32339 Par ch=1 c=64 v=0
32347 On ch=1 n=c#5 v=0
32350 On ch=1 n=g#4 v=0
32352 On ch=1 n=d#5 v=81
32354 On ch=1 n=a#4 v=61
32367 Par ch=1 c=64 v=40
32368 On ch=1 n=f3 v=0
32371 Par ch=1 c=64 v=104
32375 Par ch=1 c=64 v=127
32397 On ch=1 n=f#3 v=70
32423 On ch=1 n=c#4 v=0
32433 On ch=1 n=a#4 v=0
32438 On ch=1 n=d#5 v=0
32439 On ch=1 n=f#3 v=0
32439 Par ch=1 c=64 v=72
32441 On ch=1 n=c#5 v=79
32443 Par ch=1 c=64 v=0
32446 On ch=1 n=c#4 v=65
32447 On ch=1 n=g#4 v=60
32472 Par ch=1 c=64 v=88
32476 Par ch=1 c=64 v=127
32478 On ch=1 n=c#4 v=0
32488 On ch=1 n=f3 v=62
32505 On ch=1 n=f3 v=0
32521 On ch=1 n=g#4 v=0
32524 Par ch=1 c=64 v=72
32528 Par ch=1 c=64 v=0
32530 On ch=1 n=c#5 v=0
32530 On ch=1 n=d#5 v=81
32534 On ch=1 n=c#4 v=57
32534 On ch=1 n=a#4 v=60
32552 Par ch=1 c=64 v=24
32557 Par ch=1 c=64 v=88
32561 Par ch=1 c=64 v=127
32566 On ch=1 n=c#4 v=0
32577 On ch=1 n=f#3 v=53
32586 On ch=1 n=a#4 v=0
32613 On ch=1 n=f#3 v=0
32615 On ch=1 n=d#5 v=0
32620 On ch=1 n=f5 v=82
32625 On ch=1 n=b4 v=65
32625 Par ch=1 c=64 v=40
32626 On ch=1 n=c#4 v=51
32629 Par ch=1 c=64 v=0
32653 Par ch=1 c=64 v=56
32657 Par ch=1 c=64 v=127
32662 On ch=1 n=b4 v=0
32667 On ch=1 n=g#3 v=48
32669 On ch=1 n=f5 v=0
32700 On ch=1 n=c#4 v=0
32713 On ch=1 n=f#5 v=88
32714 On ch=1 n=c#5 v=67
32718 Par ch=1 c=64 v=0
32743 On ch=1 n=g#3 v=0
32745 Par ch=1 c=64 v=104
32750 Par ch=1 c=64 v=127
32756 On ch=1 n=c#5 v=0
32757 On ch=1 n=c#4 v=36
32767 On ch=1 n=c#4 v=0
32774 On ch=1 n=f#5 v=0
32802 On ch=1 n=g#5 v=85
32805 On ch=1 n=d#5 v=63
32807 Par ch=1 c=64 v=104
32809 On ch=1 n=g#4 v=38
32811 Par ch=1 c=64 v=0
32835 Par ch=1 c=64 v=40
32838 Par ch=1 c=64 v=127
32850 On ch=1 n=c4 v=66
32851 On ch=1 n=g#4 v=0
32858 On ch=1 n=c4 v=0
32877 On ch=1 n=d#5 v=0
32878 On ch=1 n=g#5 v=0
32892 On ch=1 n=f5 v=75
32899 On ch=1 n=c#5 v=47
32899 Par ch=1 c=64 v=72
32900 On ch=1 n=g#4 v=48
32903 Par ch=1 c=64 v=0
32926 On ch=1 n=c#5 v=0
32927 Par ch=1 c=64 v=56
32931 Par ch=1 c=64 v=127
32933 On ch=1 n=f5 v=0
32940 On ch=1 n=c#4 v=58
32943 On ch=1 n=g#4 v=0
32947 On ch=1 n=c#4 v=0
32980 Par ch=1 c=64 v=88
32983 Par ch=1 c=64 v=0
32994 On ch=1 n=d6 v=97
32997 On ch=1 n=g#5 v=65
32998 On ch=1 n=d5 v=66
33000 On ch=1 n=a#4 v=62
33016 Par ch=1 c=64 v=72
33020 On ch=1 n=a#4 v=0
33020 Par ch=1 c=64 v=127
33039 On ch=1 n=d5 v=0
33039 On ch=1 n=a#3 v=48
33047 On ch=1 n=a#3 v=0
33051 On ch=1 n=d6 v=0
33055 On ch=1 n=g#5 v=0
33080 Par ch=1 c=64 v=104
33082 On ch=1 n=d#6 v=93
33084 On ch=1 n=a#4 v=50
33085 Par ch=1 c=64 v=0
33086 On ch=1 n=d#5 v=64
33086 On ch=1 n=g5 v=71
33109 Par ch=1 c=64 v=56
33113 On ch=1 n=a#4 v=0
33113 Par ch=1 c=64 v=127
33124 On ch=1 n=d#4 v=64
33127 On ch=1 n=g5 v=0
33129 On ch=1 n=d#6 v=0
33137 On ch=1 n=d#5 v=0
33139 On ch=1 n=d#4 v=0
33173 On ch=1 n=c6 v=92
33177 On ch=1 n=c5 v=69
33178 On ch=1 n=f#5 v=64
33178 Par ch=1 c=64 v=24
33179 On ch=1 n=g#4 v=57
33181 Par ch=1 c=64 v=0
33206 On ch=1 n=g#4 v=0
33206 Par ch=1 c=64 v=56
33210 Par ch=1 c=64 v=127
33217 On ch=1 n=c5 v=0
33217 On ch=1 n=g#3 v=58
33221 On ch=1 n=c6 v=0
33225 On ch=1 n=f#5 v=0
33241 On ch=1 n=g#3 v=0
33258 On ch=1 n=c#6 v=80
33262 On ch=1 n=g#4 v=42
33262 Par ch=1 c=64 v=40
33265 On ch=1 n=f5 v=71
33266 On ch=1 n=c#5 v=60
33266 Par ch=1 c=64 v=0
33291 Par ch=1 c=64 v=40
33295 On ch=1 n=f5 v=0
33295 Par ch=1 c=64 v=127
33299 On ch=1 n=c#4 v=64
33303 On ch=1 n=c#5 v=0
33303 On ch=1 n=g#4 v=0
33312 On ch=1 n=c#6 v=0
33314 On ch=1 n=c#4 v=0
33343 Par ch=1 c=64 v=88
33347 Par ch=1 c=64 v=0
33349 On ch=1 n=d6 v=103
33351 On ch=1 n=g#5 v=73
33353 On ch=1 n=d5 v=78
33355 On ch=1 n=a#4 v=71
33375 Par ch=1 c=64 v=56
33376 On ch=1 n=a#4 v=0
33379 Par ch=1 c=64 v=127
33394 On ch=1 n=d5 v=0
33395 On ch=1 n=a#3 v=55
33406 On ch=1 n=g#5 v=0
33409 On ch=1 n=d6 v=0
33420 On ch=1 n=a#3 v=0
33439 On ch=1 n=d#6 v=92
33440 On ch=1 n=a#4 v=53
33444 Par ch=1 c=64 v=104
33444 On ch=1 n=g5 v=71
33445 On ch=1 n=d#5 v=59
33448 Par ch=1 c=64 v=0
33469 On ch=1 n=a#4 v=0
33472 Par ch=1 c=64 v=72
33476 Par ch=1 c=64 v=127
33481 On ch=1 n=g5 v=0
33481 On ch=1 n=d#4 v=63
33486 On ch=1 n=d#6 v=0
33489 On ch=1 n=d#5 v=0
33494 On ch=1 n=d#4 v=0
33529 On ch=1 n=c6 v=93
33531 On ch=1 n=f#5 v=65
33533 Par ch=1 c=64 v=72
33534 On ch=1 n=c5 v=69
33535 On ch=1 n=g#4 v=64
33537 Par ch=1 c=64 v=0
33560 Par ch=1 c=64 v=88
33565 On ch=1 n=g#4 v=0
33565 Par ch=1 c=64 v=127
33567 On ch=1 n=c5 v=0
33572 On ch=1 n=c6 v=0
33574 On ch=1 n=g#3 v=57
33576 On ch=1 n=f#5 v=0
33599 On ch=1 n=g#3 v=0
33620 On ch=1 n=c#6 v=86
33621 Par ch=1 c=64 v=40
33622 On ch=1 n=g#4 v=60
33625 On ch=1 n=f5 v=74
33625 On ch=1 n=c#5 v=64
33625 Par ch=1 c=64 v=0
33645 Par ch=1 c=64 v=56
33649 Par ch=1 c=64 v=127
33657 On ch=1 n=f5 v=0
33662 On ch=1 n=c#6 v=0
33664 On ch=1 n=g#4 v=0
33670 On ch=1 n=c#5 v=0
33671 On ch=1 n=c#4 v=69
33677 On ch=1 n=c#4 v=0
33729 On ch=1 n=g#5 v=89
33732 On ch=1 n=c#5 v=64
33733 On ch=1 n=c#4 v=61
33736 On ch=1 n=b4 v=59
33746 Par ch=1 c=64 v=88
33750 Par ch=1 c=64 v=0
33779 Par ch=1 c=64 v=72
33783 Par ch=1 c=64 v=127
33786 On ch=1 n=f3 v=51
33795 Par ch=1 c=64 v=88
33798 Par ch=1 c=64 v=0
33831 Par ch=1 c=64 v=127
33835 On ch=1 n=c#4 v=0
33849 On ch=1 n=f3 v=0
33884 On ch=1 n=b4 v=0
33899 On ch=1 n=f3 v=18
33905 On ch=1 n=c#5 v=0
33930 On ch=1 n=f3 v=0
33932 On ch=1 n=f#5 v=77
33936 On ch=1 n=c#5 v=51
33936 On ch=1 n=a#4 v=44
33937 On ch=1 n=c#4 v=35
33940 Par ch=1 c=64 v=88
33943 On ch=1 n=g#5 v=0
33943 Par ch=1 c=64 v=0
33968 Par ch=1 c=64 v=88
33972 Par ch=1 c=64 v=127
33979 On ch=1 n=c#4 v=0
33981 On ch=1 n=f#3 v=39
33987 On ch=1 n=f#5 v=0
33988 On ch=1 n=a#4 v=0
33998 On ch=1 n=f#3 v=0
34001 On ch=1 n=c#5 v=0
34023 On ch=1 n=f5 v=80
34024 On ch=1 n=c#5 v=47
34025 On ch=1 n=g#4 v=49
34027 On ch=1 n=c#4 v=51
34029 Par ch=1 c=64 v=72
34033 Par ch=1 c=64 v=0
34057 Par ch=1 c=64 v=72
34058 On ch=1 n=c#4 v=0
34061 Par ch=1 c=64 v=127
34071 On ch=1 n=g#3 v=40
34073 On ch=1 n=f5 v=0
34073 On ch=1 n=c#5 v=0
34084 On ch=1 n=g#4 v=0
34090 On ch=1 n=g#3 v=0
34121 On ch=1 n=d#5 v=69
34123 On ch=1 n=g#4 v=51
34124 On ch=1 n=c4 v=48
34125 On ch=1 n=f#4 v=40
34126 Par ch=1 c=64 v=88
34129 Par ch=1 c=64 v=0
34145 On ch=1 n=c4 v=0
34158 On ch=1 n=g#3 v=40
34162 Par ch=1 c=64 v=88
34166 Par ch=1 c=64 v=127
34178 On ch=1 n=g#3 v=0
34183 On ch=1 n=f#4 v=0
34183 On ch=1 n=g#4 v=0
34197 On ch=1 n=d#5 v=0
34212 On ch=1 n=c#5 v=69
34216 On ch=1 n=g#4 v=46
34218 On ch=1 n=f4 v=52
34218 On ch=1 n=c#4 v=45
34222 Par ch=1 c=64 v=72
34226 Par ch=1 c=64 v=0
34243 On ch=1 n=c#4 v=0
34251 Par ch=1 c=64 v=56
34255 Par ch=1 c=64 v=127
34259 On ch=1 n=f4 v=0
34259 On ch=1 n=c#3 v=43
34265 On ch=1 n=c#3 v=0
34275 On ch=1 n=c#5 v=0
34276 On ch=1 n=g#4 v=0
34307 On ch=1 n=a#4 v=63
34309 On ch=1 n=f#4 v=56
34311 On ch=1 n=c#5 v=60
34315 On ch=1 n=c#4 v=44
34315 Par ch=1 c=64 v=56
34319 Par ch=1 c=64 v=0
34339 Par ch=1 c=64 v=40
34341 On ch=1 n=c#4 v=0
34343 Par ch=1 c=64 v=127
34360 On ch=1 n=c#3 v=39
34363 On ch=1 n=c#5 v=0
34367 On ch=1 n=f#4 v=0
34369 On ch=1 n=c#3 v=0
34375 On ch=1 n=a#4 v=0
34411 On ch=1 n=c#5 v=59
34415 On ch=1 n=g#4 v=46
34418 On ch=1 n=c#4 v=36
34419 On ch=1 n=f4 v=40
34420 Par ch=1 c=64 v=56
34424 Par ch=1 c=64 v=0
34441 On ch=1 n=f4 v=0
34448 Par ch=1 c=64 v=72
34452 Par ch=1 c=64 v=127
34455 On ch=1 n=g#4 v=0
34466 On ch=1 n=c#5 v=0
34469 On ch=1 n=c#3 v=30
34472 On ch=1 n=c#4 v=0
34479 On ch=1 n=c#3 v=0
34563 On ch=1 n=c6 v=82
34567 On ch=1 n=d#5 v=46
34568 On ch=1 n=a4 v=37
34569 On ch=1 n=f5 v=53
34576 Par ch=1 c=64 v=72
34580 Par ch=1 c=64 v=0
34611 On ch=1 n=a4 v=0
34613 Par ch=1 c=64 v=88
34617 Par ch=1 c=64 v=127
34619 On ch=1 n=f4 v=49
34630 On ch=1 n=d#5 v=0
34634 On ch=1 n=f4 v=0
34636 On ch=1 n=f5 v=0
34637 On ch=1 n=c6 v=0
34664 On ch=1 n=a#5 v=81
34665 On ch=1 n=a#4 v=43
34667 On ch=1 n=c#5 v=57
34671 On ch=1 n=f5 v=44
34674 Par ch=1 c=64 v=56
34678 Par ch=1 c=64 v=0
34694 Par ch=1 c=64 v=40
34698 Par ch=1 c=64 v=104
34700 On ch=1 n=a#4 v=0
34701 On ch=1 n=c#5 v=0
34702 Par ch=1 c=64 v=127
34710 On ch=1 n=f5 v=0
34712 On ch=1 n=f4 v=56
34723 On ch=1 n=f4 v=0
34733 On ch=1 n=a#5 v=0
34756 On ch=1 n=c6 v=93
34761 On ch=1 n=f5 v=66
34761 On ch=1 n=d#5 v=55
34761 On ch=1 n=a4 v=51
34763 Par ch=1 c=64 v=72
34766 Par ch=1 c=64 v=0
34787 On ch=1 n=a4 v=0
34791 Par ch=1 c=64 v=40
34795 Par ch=1 c=64 v=104
34799 Par ch=1 c=64 v=127
34807 On ch=1 n=f4 v=53
34835 On ch=1 n=f4 v=0
34839 Par ch=1 c=64 v=72
34843 Par ch=1 c=64 v=0
34849 On ch=1 n=f#4 v=64
34863 Par ch=1 c=64 v=72
34868 Par ch=1 c=64 v=127
34871 On ch=1 n=f#4 v=0
34900 On ch=1 n=f4 v=52
34913 On ch=1 n=f4 v=0
34919 On ch=1 n=c6 v=0
34920 On ch=1 n=f5 v=0
34921 On ch=1 n=d#5 v=0
34949 On ch=1 n=c6 v=84
34954 On ch=1 n=f5 v=54
34955 On ch=1 n=d#5 v=35
34957 On ch=1 n=a4 v=36
34960 Par ch=1 c=64 v=104
34965 Par ch=1 c=64 v=24
34969 Par ch=1 c=64 v=0
34985 Par ch=1 c=64 v=24
34987 On ch=1 n=a4 v=0
34989 Par ch=1 c=64 v=88
34993 Par ch=1 c=64 v=127
35000 On ch=1 n=f4 v=52
35006 On ch=1 n=d#5 v=0
35008 On ch=1 n=c6 v=0
35015 On ch=1 n=f5 v=0
35016 On ch=1 n=f4 v=0
35038 On ch=1 n=a#5 v=85
35041 On ch=1 n=a#4 v=37
35041 Par ch=1 c=64 v=104
35041 On ch=1 n=c#5 v=55
35045 On ch=1 n=f5 v=62
35045 Par ch=1 c=64 v=24
35048 Par ch=1 c=64 v=0
35052 On ch=1 n=f5 v=0
35061 Par ch=1 c=64 v=56
35065 Par ch=1 c=64 v=104
35069 Par ch=1 c=64 v=127
35072 On ch=1 n=a#4 v=0
35078 On ch=1 n=c#5 v=0
35087 On ch=1 n=f4 v=46
35097 On ch=1 n=f4 v=0
35099 On ch=1 n=a#5 v=0
35135 On ch=1 n=c6 v=100
35138 On ch=1 n=d#5 v=67
35139 On ch=1 n=f5 v=79
35141 On ch=1 n=a4 v=48
35150 Par ch=1 c=64 v=24
35154 Par ch=1 c=64 v=0
35166 On ch=1 n=a4 v=0
35174 Par ch=1 c=64 v=72
35178 Par ch=1 c=64 v=127
35186 On ch=1 n=f4 v=54
35206 On ch=1 n=f4 v=0
35228 On ch=1 n=f#4 v=64
35250 On ch=1 n=f#4 v=0
35276 On ch=1 n=f4 v=53
35279 On ch=1 n=f5 v=0
35288 On ch=1 n=d#5 v=0
35297 On ch=1 n=c6 v=0
35300 On ch=1 n=f4 v=0
35323 On ch=1 n=c6 v=85
35326 On ch=1 n=a4 v=41
35327 On ch=1 n=d#5 v=45
35327 Par ch=1 c=64 v=88
35328 On ch=1 n=f5 v=62
35331 Par ch=1 c=64 v=24
35335 Par ch=1 c=64 v=0
35348 Par ch=1 c=64 v=56
35352 Par ch=1 c=64 v=127
35353 On ch=1 n=a4 v=0
35358 On ch=1 n=f5 v=0
35364 On ch=1 n=d#5 v=0
35370 On ch=1 n=f4 v=54
35395 On ch=1 n=f4 v=0
35399 On ch=1 n=c6 v=0
35412 Par ch=1 c=64 v=104
35413 On ch=1 n=a#4 v=34
35415 On ch=1 n=a#5 v=82
35416 Par ch=1 c=64 v=56
35416 On ch=1 n=c#5 v=61
35420 Par ch=1 c=64 v=24
35424 Par ch=1 c=64 v=40
35428 Par ch=1 c=64 v=72
35432 Par ch=1 c=64 v=104
35436 On ch=1 n=c#5 v=0
35436 Par ch=1 c=64 v=127
35446 On ch=1 n=a#4 v=0
35451 On ch=1 n=f4 v=44
35457 On ch=1 n=a#5 v=0
35460 On ch=1 n=f4 v=0
35505 Par ch=1 c=64 v=72
35506 On ch=1 n=c6 v=93
35508 On ch=1 n=d#5 v=64
35509 Par ch=1 c=64 v=0
35513 On ch=1 n=a4 v=65
35513 On ch=1 n=f5 v=57
35525 On ch=1 n=d#5 v=0
35529 Par ch=1 c=64 v=24
35532 Par ch=1 c=64 v=88
35536 On ch=1 n=f5 v=0
35537 Par ch=1 c=64 v=127
35545 On ch=1 n=a4 v=0
35546 On ch=1 n=c6 v=0
35579 On ch=1 n=d#5 v=37
35580 On ch=1 n=c6 v=75
35586 Par ch=1 c=64 v=104
35590 Par ch=1 c=64 v=24
35594 Par ch=1 c=64 v=0
35596 On ch=1 n=d#6 v=89
35605 On ch=1 n=c6 v=0
35606 Par ch=1 c=64 v=40
35610 Par ch=1 c=64 v=104
35614 Par ch=1 c=64 v=127
35633 On ch=1 n=d#6 v=0
35641 On ch=1 n=d#5 v=0
35641 On ch=1 n=c#6 v=87
35649 On ch=1 n=f4 v=57
35658 On ch=1 n=f4 v=0
35675 On ch=1 n=c#6 v=0
35687 On ch=1 n=c6 v=87
35687 Par ch=1 c=64 v=88
35691 On ch=1 n=c#5 v=63
35691 Par ch=1 c=64 v=0
35695 On ch=1 n=f5 v=60
35695 On ch=1 n=a#4 v=43
35711 Par ch=1 c=64 v=72
35715 Par ch=1 c=64 v=127
35717 On ch=1 n=c#5 v=0
35717 On ch=1 n=c6 v=0
35721 On ch=1 n=f5 v=0
35722 On ch=1 n=a#4 v=0
35732 On ch=1 n=a#5 v=87
35742 On ch=1 n=f4 v=39
35751 On ch=1 n=f4 v=0
35763 On ch=1 n=a#5 v=0
35774 Par ch=1 c=64 v=72
35778 On ch=1 n=g#5 v=83
35779 Par ch=1 c=64 v=0
35782 On ch=1 n=c5 v=64
35782 On ch=1 n=f5 v=52
35798 On ch=1 n=f5 v=0
35799 Par ch=1 c=64 v=72
35803 Par ch=1 c=64 v=127
35818 On ch=1 n=g#5 v=0
35819 On ch=1 n=c5 v=0
35827 On ch=1 n=c4 v=66
35857 On ch=1 n=c4 v=0
35873 On ch=1 n=g5 v=79
35876 Par ch=1 c=64 v=88
35877 On ch=1 n=c5 v=64
35879 On ch=1 n=a#4 v=33
35880 Par ch=1 c=64 v=0
35881 On ch=1 n=e4 v=60
35904 Par ch=1 c=64 v=72
35908 Par ch=1 c=64 v=127
35912 On ch=1 n=e4 v=0
35919 On ch=1 n=a#4 v=0
35925 On ch=1 n=c4 v=60
35927 On ch=1 n=c5 v=0
35933 On ch=1 n=c4 v=0
35940 On ch=1 n=g5 v=0
35975 On ch=1 n=f5 v=71
35979 On ch=1 n=c5 v=42
35981 Par ch=1 c=64 v=40
35985 Par ch=1 c=64 v=0
35986 On ch=1 n=f4 v=53
36005 Par ch=1 c=64 v=40
36009 Par ch=1 c=64 v=104
36011 On ch=1 n=f4 v=0
36013 On ch=1 n=c5 v=0
36013 Par ch=1 c=64 v=127
36025 On ch=1 n=f5 v=0
36094 On ch=1 n=g#5 v=73
36098 On ch=1 n=d5 v=54
36098 Par ch=1 c=64 v=0
36099 On ch=1 n=a#4 v=53
36113 On ch=1 n=d5 v=0
36115 On ch=1 n=a#4 v=0
36126 Par ch=1 c=64 v=72
36130 Par ch=1 c=64 v=127
36142 On ch=1 n=a#3 v=65
36149 On ch=1 n=a#3 v=0
36179 Par ch=1 c=64 v=56
36183 Par ch=1 c=64 v=0
36188 On ch=1 n=g#5 v=0
36189 On ch=1 n=g5 v=74
36189 On ch=1 n=d#5 v=61
36204 On ch=1 n=d#5 v=0
36219 Par ch=1 c=64 v=24
36223 Par ch=1 c=64 v=72
36227 Par ch=1 c=64 v=104
36231 Par ch=1 c=64 v=127
36234 On ch=1 n=d#4 v=69
36248 On ch=1 n=g5 v=0
36255 On ch=1 n=d#4 v=0
36258 Par ch=1 c=64 v=88
36262 Par ch=1 c=64 v=24
36267 Par ch=1 c=64 v=0
36280 On ch=1 n=f#5 v=73
36284 On ch=1 n=c5 v=61
36285 On ch=1 n=g#4 v=60
36287 Par ch=1 c=64 v=40
36295 On ch=1 n=c5 v=0
36299 On ch=1 n=g#4 v=0
36303 Par ch=1 c=64 v=24
36312 Par ch=1 c=64 v=56
36316 Par ch=1 c=64 v=88
36320 Par ch=1 c=64 v=127
36329 On ch=1 n=g#3 v=61
36336 On ch=1 n=g#3 v=0
36364 Par ch=1 c=64 v=72
36368 Par ch=1 c=64 v=0
36377 On ch=1 n=f5 v=80
36380 On ch=1 n=f#5 v=0
36382 On ch=1 n=g#4 v=43
36384 Par ch=1 c=64 v=40
36388 Par ch=1 c=64 v=104
36390 On ch=1 n=g#4 v=0
36392 Par ch=1 c=64 v=127
36423 On ch=1 n=c#4 v=65
36430 On ch=1 n=c#4 v=0
36450 On ch=1 n=f5 v=0
36461 Par ch=1 c=64 v=40
36465 Par ch=1 c=64 v=0
36468 On ch=1 n=d6 v=90
36471 On ch=1 n=g#5 v=69
36472 On ch=1 n=d5 v=72
36477 On ch=1 n=a#4 v=37
36483 On ch=1 n=d5 v=0
36485 On ch=1 n=a#4 v=0
36485 Par ch=1 c=64 v=40
36489 Par ch=1 c=64 v=88
36493 Par ch=1 c=64 v=127
36514 On ch=1 n=a#3 v=69
36517 On ch=1 n=d6 v=0
36522 On ch=1 n=a#3 v=0
36547 On ch=1 n=g#5 v=0
36554 Par ch=1 c=64 v=56
36558 Par ch=1 c=64 v=0
36560 On ch=1 n=d#6 v=92
36562 On ch=1 n=d#5 v=69
36565 On ch=1 n=g5 v=70
36566 On ch=1 n=a#4 v=47
36573 On ch=1 n=a#4 v=0
36578 On ch=1 n=d#5 v=0
36581 Par ch=1 c=64 v=88
36586 Par ch=1 c=64 v=127
36607 On ch=1 n=d#4 v=69
36620 On ch=1 n=d#6 v=0
36626 On ch=1 n=d#4 v=0
36628 On ch=1 n=g5 v=0
36642 Par ch=1 c=64 v=40
36647 Par ch=1 c=64 v=0
36649 On ch=1 n=c6 v=92
36651 On ch=1 n=f#5 v=65
36655 On ch=1 n=g#4 v=67
36656 On ch=1 n=c5 v=57
36665 On ch=1 n=c5 v=0
36667 Par ch=1 c=64 v=56
36669 On ch=1 n=g#4 v=0
36671 Par ch=1 c=64 v=127
36697 On ch=1 n=g#3 v=61
36706 On ch=1 n=g#3 v=0
36723 On ch=1 n=f#5 v=0
36724 On ch=1 n=c6 v=0
36747 Par ch=1 c=64 v=72
36748 On ch=1 n=c#6 v=76
36748 On ch=1 n=f5 v=49
36748 On ch=1 n=c#5 v=47
36750 On ch=1 n=g#5 v=60
36750 On ch=1 n=g#4 v=47
36751 Par ch=1 c=64 v=0
36767 Par ch=1 c=64 v=24
36771 Par ch=1 c=64 v=88
36775 On ch=1 n=c#5 v=0
36775 On ch=1 n=f5 v=0
36775 Par ch=1 c=64 v=127
36780 On ch=1 n=c#6 v=0
36781 On ch=1 n=g#5 v=0
36787 On ch=1 n=g#4 v=0
36792 On ch=1 n=c#4 v=55
36799 On ch=1 n=c#4 v=0
36862 On ch=1 n=c#5 v=64
36866 On ch=1 n=c#4 v=45
36866 On ch=1 n=g#4 v=37
36880 Par ch=1 c=64 v=88
36884 Par ch=1 c=64 v=0
36907 On ch=1 n=f3 v=48
36911 On ch=1 n=c#4 v=0
36913 Par ch=1 c=64 v=72
36917 Par ch=1 c=64 v=127
36943 On ch=1 n=f3 v=0
36952 On ch=1 n=c#5 v=0
36959 On ch=1 n=g#4 v=0
36959 On ch=1 n=d#5 v=73
36961 On ch=1 n=c#4 v=35
36965 On ch=1 n=a#4 v=48
36969 Par ch=1 c=64 v=104
36973 Par ch=1 c=64 v=24
36977 Par ch=1 c=64 v=0
36989 Par ch=1 c=64 v=24
36993 Par ch=1 c=64 v=88
36997 Par ch=1 c=64 v=127
37002 On ch=1 n=c#4 v=0
37003 On ch=1 n=f#3 v=43
37027 On ch=1 n=f#3 v=0
37042 On ch=1 n=a#4 v=0
37044 On ch=1 n=d#5 v=0
37048 On ch=1 n=c#5 v=76
37050 On ch=1 n=c#4 v=46
37054 Par ch=1 c=64 v=56
37056 On ch=1 n=g#4 v=40
37058 Par ch=1 c=64 v=0
37073 Par ch=1 c=64 v=40
37077 Par ch=1 c=64 v=104
37082 Par ch=1 c=64 v=127
37083 On ch=1 n=c#4 v=0
37088 On ch=1 n=f3 v=52
37120 On ch=1 n=f3 v=0
37126 On ch=1 n=c#5 v=0
37128 On ch=1 n=g#4 v=0
37137 On ch=1 n=d#5 v=80
37139 On ch=1 n=a#4 v=67
37143 On ch=1 n=c#4 v=54
37143 Par ch=1 c=64 v=56
37147 Par ch=1 c=64 v=0
37163 Par ch=1 c=64 v=56
37167 Par ch=1 c=64 v=127
37176 On ch=1 n=c#4 v=0
37176 On ch=1 n=a#4 v=0
37185 On ch=1 n=f#3 v=47
37195 On ch=1 n=f#3 v=0
37215 On ch=1 n=d#5 v=0
37228 On ch=1 n=f5 v=88
37233 On ch=1 n=b4 v=74
37235 Par ch=1 c=64 v=56
37236 On ch=1 n=c#4 v=57
37239 Par ch=1 c=64 v=0
37259 On ch=1 n=c#4 v=0
37259 Par ch=1 c=64 v=72
37263 Par ch=1 c=64 v=127
37272 On ch=1 n=g#3 v=53
37282 On ch=1 n=f5 v=0
37285 On ch=1 n=g#3 v=0
37301 On ch=1 n=b4 v=0
37319 On ch=1 n=f#5 v=90
37321 On ch=1 n=c#5 v=72
37323 On ch=1 n=f#4 v=71
37324 Par ch=1 c=64 v=72
37328 Par ch=1 c=64 v=0
37329 On ch=1 n=c#4 v=63
37352 Par ch=1 c=64 v=127
37357 On ch=1 n=c#4 v=0
37363 On ch=1 n=a#3 v=67
37365 On ch=1 n=f#4 v=0
37369 On ch=1 n=c#5 v=0
37371 On ch=1 n=a#3 v=0
37381 On ch=1 n=f#5 v=0
37414 On ch=1 n=g#5 v=84
37415 On ch=1 n=d#5 v=69
37418 On ch=1 n=g#4 v=60
37422 On ch=1 n=d#4 v=50
37425 Par ch=1 c=64 v=0
37452 Par ch=1 c=64 v=104
37456 On ch=1 n=d#4 v=0
37457 Par ch=1 c=64 v=127
37462 On ch=1 n=c4 v=59
37471 On ch=1 n=c4 v=0
37480 On ch=1 n=g#4 v=0
37494 On ch=1 n=d#5 v=0
37499 On ch=1 n=g#5 v=0
37517 On ch=1 n=f5 v=77
37520 On ch=1 n=c#5 v=58
37522 On ch=1 n=f4 v=48
37526 Par ch=1 c=64 v=104
37530 Par ch=1 c=64 v=0
37553 On ch=1 n=c#5 v=0
37554 Par ch=1 c=64 v=104
37558 Par ch=1 c=64 v=127
37561 On ch=1 n=f5 v=0
37562 On ch=1 n=c#4 v=60
37564 On ch=1 n=f4 v=0
37573 On ch=1 n=c#4 v=0
37615 Par ch=1 c=64 v=24
37619 Par ch=1 c=64 v=0
37624 On ch=1 n=g#6 v=99
37627 On ch=1 n=d6 v=82
37627 On ch=1 n=g#5 v=64
37633 On ch=1 n=f5 v=62
37642 Par ch=1 c=64 v=56
37646 Par ch=1 c=64 v=127
37656 On ch=1 n=f5 v=0
37666 On ch=1 n=a#4 v=57
37679 On ch=1 n=d6 v=0
37683 On ch=1 n=a#4 v=0
37685 On ch=1 n=g#5 v=0
37691 On ch=1 n=g#6 v=0
37707 Par ch=1 c=64 v=104
37711 Par ch=1 c=64 v=0
37712 On ch=1 n=g6 v=100
37714 On ch=1 n=d#6 v=77
37715 On ch=1 n=g5 v=72
37718 On ch=1 n=d#5 v=65
37735 Par ch=1 c=64 v=104
37739 On ch=1 n=d#5 v=0
37739 Par ch=1 c=64 v=127
37752 On ch=1 n=g5 v=0
37752 On ch=1 n=g6 v=0
37758 On ch=1 n=d#4 v=64
37768 On ch=1 n=d#4 v=0
37780 On ch=1 n=d#6 v=0
37791 Par ch=1 c=64 v=104
37796 Par ch=1 c=64 v=0
37799 On ch=1 n=f#6 v=95
37802 On ch=1 n=d#5 v=64
37803 On ch=1 n=f#5 v=71
37803 On ch=1 n=c6 v=84
37816 Par ch=1 c=64 v=56
37820 Par ch=1 c=64 v=127
37823 On ch=1 n=d#5 v=0
37838 On ch=1 n=f#5 v=0
37839 On ch=1 n=c6 v=0
37841 On ch=1 n=g#4 v=70
37847 On ch=1 n=f#6 v=0
37861 On ch=1 n=g#4 v=0
37889 On ch=1 n=c#5 v=54
37890 On ch=1 n=f6 v=97
37892 On ch=1 n=c#6 v=71
37892 On ch=1 n=f5 v=80
37893 Par ch=1 c=64 v=40
37897 Par ch=1 c=64 v=0
37909 On ch=1 n=f5 v=0
37913 On ch=1 n=c#5 v=0
37913 Par ch=1 c=64 v=40
37917 Par ch=1 c=64 v=104
37921 Par ch=1 c=64 v=127
37923 On ch=1 n=f6 v=0
37926 On ch=1 n=c#6 v=0
37928 On ch=1 n=c#4 v=69
37943 On ch=1 n=c#4 v=0
37969 Par ch=1 c=64 v=0
37977 On ch=1 n=g#6 v=99
37979 On ch=1 n=g#5 v=79
37981 On ch=1 n=d6 v=83
37981 On ch=1 n=f5 v=71
37998 On ch=1 n=f5 v=0
37998 Par ch=1 c=64 v=104
38002 Par ch=1 c=64 v=127
38020 On ch=1 n=a#4 v=60
38027 On ch=1 n=d6 v=0
38035 On ch=1 n=a#4 v=0
38035 On ch=1 n=g#5 v=0
38039 On ch=1 n=g#6 v=0
38065 On ch=1 n=g6 v=96
38066 Par ch=1 c=64 v=40
38067 On ch=1 n=d#6 v=76
38068 On ch=1 n=g5 v=80
38069 On ch=1 n=d#5 v=70
38071 Par ch=1 c=64 v=0
38083 Par ch=1 c=64 v=40
38087 Par ch=1 c=64 v=104
38091 On ch=1 n=g5 v=0
38091 Par ch=1 c=64 v=127
38095 On ch=1 n=d#5 v=0
38099 On ch=1 n=g6 v=0
38114 On ch=1 n=d#6 v=0
38114 On ch=1 n=d#4 v=64
38134 On ch=1 n=d#4 v=0
38143 Par ch=1 c=64 v=104
38147 Par ch=1 c=64 v=0
38151 On ch=1 n=f#6 v=92
38153 On ch=1 n=d#5 v=67
38155 On ch=1 n=f#5 v=76
38157 On ch=1 n=c6 v=84
38167 Par ch=1 c=64 v=40
38170 Par ch=1 c=64 v=104
38174 Par ch=1 c=64 v=127
38178 On ch=1 n=d#5 v=0
38187 On ch=1 n=c6 v=0
38188 On ch=1 n=f#5 v=0
38194 On ch=1 n=g#4 v=71
38198 On ch=1 n=f#6 v=0
38218 On ch=1 n=g#4 v=0
38240 On ch=1 n=c#5 v=70
38240 Par ch=1 c=64 v=104
38241 On ch=1 n=f6 v=99
38242 On ch=1 n=c#6 v=75
38243 On ch=1 n=f5 v=85
38244 Par ch=1 c=64 v=0
38261 On ch=1 n=f5 v=0
38264 Par ch=1 c=64 v=56
38267 Par ch=1 c=64 v=127
38271 On ch=1 n=c#5 v=0
38275 On ch=1 n=f6 v=0
38278 On ch=1 n=c#4 v=69
38279 On ch=1 n=c#6 v=0
38291 On ch=1 n=c#4 v=0
38359 On ch=1 n=g#6 v=103
38359 On ch=1 n=g#5 v=92
38360 On ch=1 n=c#6 v=80
38363 On ch=1 n=c#5 v=71
38364 On ch=1 n=b5 v=63
38373 Par ch=1 c=64 v=104
38377 Par ch=1 c=64 v=0
38389 On ch=1 n=b5 v=0
38395 On ch=1 n=c#5 v=0
38397 Par ch=1 c=64 v=56
38401 Par ch=1 c=64 v=127
38423 On ch=1 n=f4 v=59
38441 On ch=1 n=f4 v=0
38510 On ch=1 n=f4 v=60
38515 On ch=1 n=g#5 v=0
38516 On ch=1 n=g#6 v=0
38516 On ch=1 n=c#6 v=0
38517 On ch=1 n=f4 v=0
38554 Par ch=1 c=64 v=40
38558 On ch=1 n=f#6 v=93
38559 Par ch=1 c=64 v=0
38560 On ch=1 n=f#5 v=82
38561 On ch=1 n=c#6 v=80
38562 On ch=1 n=c#5 v=57
38564 On ch=1 n=a#5 v=62
38571 Par ch=1 c=64 v=104
38575 On ch=1 n=a#5 v=0
38575 Par ch=1 c=64 v=127
38581 On ch=1 n=c#5 v=0
38584 On ch=1 n=f#5 v=0
38589 On ch=1 n=c#6 v=0
38597 On ch=1 n=f#6 v=0
38604 On ch=1 n=f#4 v=74
38622 On ch=1 n=f#4 v=0
38654 On ch=1 n=f6 v=97
38655 Par ch=1 c=64 v=56
38656 On ch=1 n=g#5 v=50
38656 On ch=1 n=f5 v=72
38657 On ch=1 n=c#6 v=65
38657 On ch=1 n=c#5 v=55
38658 Par ch=1 c=64 v=0
38678 On ch=1 n=g#5 v=0
38679 On ch=1 n=c#5 v=0
38679 Par ch=1 c=64 v=88
38683 Par ch=1 c=64 v=127
38690 On ch=1 n=f5 v=0
38697 On ch=1 n=f6 v=0
38699 On ch=1 n=g#4 v=58
38708 On ch=1 n=c#6 v=0
38723 On ch=1 n=g#4 v=0
38750 On ch=1 n=d#6 v=85
38750 On ch=1 n=g#5 v=64
38751 Par ch=1 c=64 v=104
38755 On ch=1 n=f#5 v=58
38756 Par ch=1 c=64 v=0
38757 On ch=1 n=c5 v=59
38780 Par ch=1 c=64 v=88
38784 Par ch=1 c=64 v=127
38787 On ch=1 n=c5 v=0
38795 On ch=1 n=g#5 v=0
38795 On ch=1 n=g#4 v=64
38796 On ch=1 n=f#5 v=0
38813 On ch=1 n=g#4 v=0
38825 On ch=1 n=d#6 v=0
38848 On ch=1 n=c#6 v=84
38853 On ch=1 n=g#5 v=61
38855 On ch=1 n=f5 v=61
38857 On ch=1 n=c#5 v=50
38857 Par ch=1 c=64 v=40
38861 Par ch=1 c=64 v=0
38881 Par ch=1 c=64 v=56
38885 On ch=1 n=c#5 v=0
38895 On ch=1 n=f5 v=0
38895 Par ch=1 c=64 v=127
38901 On ch=1 n=c#4 v=57
38912 On ch=1 n=g#5 v=0
38918 On ch=1 n=c#4 v=0
38920 On ch=1 n=c#6 v=0
38951 On ch=1 n=a#5 v=73
38953 On ch=1 n=c#6 v=77
38956 On ch=1 n=f#5 v=65
38958 Par ch=1 c=64 v=72
38959 On ch=1 n=c#5 v=51
38962 Par ch=1 c=64 v=0
38982 Par ch=1 c=64 v=40
38986 Par ch=1 c=64 v=127
38990 On ch=1 n=c#5 v=0
39007 On ch=1 n=c#4 v=48
39016 On ch=1 n=c#4 v=0
39018 On ch=1 n=f#5 v=0
39020 On ch=1 n=c#6 v=0
39031 On ch=1 n=a#5 v=0
39065 On ch=1 n=c#6 v=76
39069 On ch=1 n=g#5 v=52
39072 On ch=1 n=f5 v=54
39074 On ch=1 n=c#5 v=44
39083 Par ch=1 c=64 v=0
39111 Par ch=1 c=64 v=40
39112 On ch=1 n=f5 v=0
39115 Par ch=1 c=64 v=127
39116 On ch=1 n=g#5 v=0
39121 On ch=1 n=c#6 v=0
39129 On ch=1 n=c#4 v=45
39137 On ch=1 n=c#4 v=0
39137 On ch=1 n=c#5 v=0
39360 On ch=1 n=c6 v=83
39362 On ch=1 n=g#3 v=50
39376 Par ch=1 c=64 v=24
39380 On ch=1 n=g#3 v=0
39380 Par ch=1 c=64 v=88
39384 Par ch=1 c=64 v=127
39405 Par ch=1 c=64 v=88
39409 Par ch=1 c=64 v=56
39413 Par ch=1 c=64 v=24
39416 On ch=1 n=c6 v=0
39417 Par ch=1 c=64 v=0
39424 On ch=1 n=g#4 v=39
39426 On ch=1 n=g#5 v=60
39429 On ch=1 n=d#5 v=43
39429 On ch=1 n=c5 v=33
39443 On ch=1 n=c5 v=0
39459 On ch=1 n=g#4 v=0
39469 On ch=1 n=g#5 v=0
39477 On ch=1 n=d#5 v=0
39484 On ch=1 n=c#4 v=43
39484 On ch=1 n=a#5 v=80
39497 Par ch=1 c=64 v=88
39501 Par ch=1 c=64 v=0
39521 Par ch=1 c=64 v=56
39524 On ch=1 n=c#4 v=0
39525 Par ch=1 c=64 v=127
39538 On ch=1 n=a#4 v=33
39542 On ch=1 n=f5 v=42
39542 On ch=1 n=c#5 v=33
39544 On ch=1 n=f4 v=41
39548 On ch=1 n=a#5 v=0
39556 On ch=1 n=f4 v=0
39568 On ch=1 n=a#4 v=0
39569 On ch=1 n=c#5 v=0
39579 On ch=1 n=f5 v=0
39587 On ch=1 n=c6 v=90
39593 On ch=1 n=c4 v=53
39602 Par ch=1 c=64 v=24
39606 Par ch=1 c=64 v=0
39622 Par ch=1 c=64 v=72
39626 Par ch=1 c=64 v=127
39627 Par ch=1 c=64 v=24
39629 On ch=1 n=c4 v=0
39631 Par ch=1 c=64 v=40
39635 Par ch=1 c=64 v=56
39639 On ch=1 n=f5 v=49
39643 Par ch=1 c=64 v=72
39643 On ch=1 n=d#5 v=43
39644 On ch=1 n=f4 v=38
39647 Par ch=1 c=64 v=88
39650 Par ch=1 c=64 v=104
39652 On ch=1 n=c6 v=0
39654 Par ch=1 c=64 v=127
39657 On ch=1 n=f4 v=0
39661 On ch=1 n=f5 v=0
39666 On ch=1 n=d#5 v=0
39687 On ch=1 n=d#6 v=93
39693 On ch=1 n=a#3 v=48
39694 Par ch=1 c=64 v=24
39698 Par ch=1 c=64 v=0
39710 Par ch=1 c=64 v=56
39714 Par ch=1 c=64 v=127
39718 On ch=1 n=d#6 v=0
39734 On ch=1 n=a#3 v=0
39741 On ch=1 n=c#6 v=90
39744 On ch=1 n=a#4 v=35
39747 On ch=1 n=c#5 v=60
39747 On ch=1 n=f4 v=43
39759 On ch=1 n=c#5 v=0
39760 On ch=1 n=f4 v=0
39769 On ch=1 n=a#4 v=0
39775 On ch=1 n=c#6 v=0
39788 On ch=1 n=c6 v=90
39795 On ch=1 n=c#4 v=46
39795 Par ch=1 c=64 v=56
39799 Par ch=1 c=64 v=0
39808 Par ch=1 c=64 v=88
39811 Par ch=1 c=64 v=88
39813 Par ch=1 c=64 v=0
39815 Par ch=1 c=64 v=127
39818 On ch=1 n=c6 v=0
39827 On ch=1 n=c#4 v=0
39834 On ch=1 n=a#5 v=85
39840 On ch=1 n=c#5 v=55
39840 On ch=1 n=a#4 v=35
39841 On ch=1 n=f4 v=47
39852 On ch=1 n=c#5 v=0
39854 On ch=1 n=f4 v=0
39860 On ch=1 n=a#4 v=0
39875 On ch=1 n=a#5 v=0
39894 On ch=1 n=g#5 v=80
39906 On ch=1 n=d#4 v=49
39908 Par ch=1 c=64 v=72
39912 Par ch=1 c=64 v=0
39940 Par ch=1 c=64 v=88
39944 Par ch=1 c=64 v=127
39952 On ch=1 n=d#5 v=45
39952 On ch=1 n=g#4 v=38
39953 On ch=1 n=c5 v=47
39954 On ch=1 n=d#4 v=0
39957 On ch=1 n=g#5 v=0
39967 On ch=1 n=g#4 v=0
39978 On ch=1 n=c5 v=0
39993 On ch=1 n=d#5 v=0
40014 On ch=1 n=a#5 v=77
40020 On ch=1 n=d#3 v=58
40037 Par ch=1 c=64 v=40
40041 Par ch=1 c=64 v=0
40054 On ch=1 n=d#3 v=0
40065 Par ch=1 c=64 v=127
40086 On ch=1 n=d#5 v=40
40086 On ch=1 n=d#4 v=48
40087 On ch=1 n=g4 v=43
40087 On ch=1 n=c#5 v=38
40115 On ch=1 n=d#4 v=0
40117 On ch=1 n=g4 v=0
40136 On ch=1 n=c#5 v=0
40137 On ch=1 n=d#5 v=0
40202 On ch=1 n=d#4 v=37
40203 On ch=1 n=c#5 v=38
40206 On ch=1 n=d#5 v=46
40206 On ch=1 n=g4 v=37
40223 On ch=1 n=c#5 v=0
40226 On ch=1 n=a#5 v=0
40226 On ch=1 n=d#4 v=0
40227 On ch=1 n=d#5 v=0
40233 On ch=1 n=g4 v=0
40282 On ch=1 n=c6 v=81
40294 On ch=1 n=g#3 v=46
40295 Par ch=1 c=64 v=24
40299 Par ch=1 c=64 v=0
40322 On ch=1 n=g#3 v=0
40324 Par ch=1 c=64 v=72
40328 Par ch=1 c=64 v=127
40355 On ch=1 n=c6 v=0
40355 On ch=1 n=g#5 v=57
40357 On ch=1 n=d#5 v=37
40357 On ch=1 n=c5 v=44
40361 On ch=1 n=g#4 v=30
40376 On ch=1 n=g#4 v=0
40382 On ch=1 n=c5 v=0
40394 On ch=1 n=g#5 v=0
40407 On ch=1 n=d#5 v=0
40412 On ch=1 n=a#5 v=83
40415 On ch=1 n=c#4 v=55
40420 Par ch=1 c=64 v=40
40424 Par ch=1 c=64 v=0
40444 Par ch=1 c=64 v=56
40448 Par ch=1 c=64 v=127
40450 On ch=1 n=c#4 v=0
40459 On ch=1 n=a#4 v=42
40462 On ch=1 n=c#5 v=38
40465 On ch=1 n=f5 v=59
40469 On ch=1 n=a#5 v=0
40469 On ch=1 n=f4 v=28
40480 On ch=1 n=f4 v=0
40485 On ch=1 n=a#4 v=0
40488 On ch=1 n=c#5 v=0
40497 On ch=1 n=f5 v=0
40506 On ch=1 n=c6 v=94
40510 On ch=1 n=c4 v=64
40513 Par ch=1 c=64 v=104
40517 Par ch=1 c=64 v=0
40541 Par ch=1 c=64 v=88
40545 On ch=1 n=c4 v=0
40545 Par ch=1 c=64 v=127
40557 On ch=1 n=f5 v=68
40560 On ch=1 n=d#5 v=35
40560 On ch=1 n=a4 v=42
40561 On ch=1 n=f4 v=44
40564 On ch=1 n=c6 v=0
40572 On ch=1 n=f4 v=0
40574 On ch=1 n=f5 v=0
40584 On ch=1 n=d#5 v=0
40584 On ch=1 n=a4 v=0
40611 On ch=1 n=a#3 v=51
40614 On ch=1 n=d#6 v=91
40626 Par ch=1 c=64 v=40
40630 Par ch=1 c=64 v=0
40645 Par ch=1 c=64 v=56
40649 Par ch=1 c=64 v=127
40651 On ch=1 n=d#6 v=0
40671 On ch=1 n=c#6 v=87
40674 On ch=1 n=a#3 v=0
40676 On ch=1 n=c#5 v=62
40682 On ch=1 n=a#4 v=33
40684 On ch=1 n=f4 v=44
40694 On ch=1 n=f4 v=0
40697 On ch=1 n=c#5 v=0
40706 On ch=1 n=c#6 v=0
40709 On ch=1 n=a#4 v=0
40719 On ch=1 n=c6 v=97
40726 On ch=1 n=c#4 v=53
40746 On ch=1 n=c6 v=0
40754 On ch=1 n=c#4 v=0
40762 On ch=1 n=a#5 v=90
40768 On ch=1 n=c#5 v=69
40768 On ch=1 n=a#4 v=37
40771 On ch=1 n=f4 v=44
40771 Par ch=1 c=64 v=24
40775 Par ch=1 c=64 v=0
40787 Par ch=1 c=64 v=56
40790 On ch=1 n=a#4 v=0
40791 Par ch=1 c=64 v=127
40795 On ch=1 n=c#5 v=0
40797 On ch=1 n=f4 v=0
40800 On ch=1 n=a#5 v=0
40812 On ch=1 n=g#5 v=84
40819 On ch=1 n=d#4 v=48
40828 Par ch=1 c=64 v=0
40860 Par ch=1 c=64 v=72
40864 Par ch=1 c=64 v=127
40866 On ch=1 n=g#4 v=43
40868 On ch=1 n=d#4 v=0
40868 On ch=1 n=d#5 v=45
40869 On ch=1 n=c5 v=59
40872 On ch=1 n=g#5 v=0
40884 On ch=1 n=g#4 v=0
40896 On ch=1 n=c5 v=0
40905 On ch=1 n=d#5 v=0
40919 On ch=1 n=a#5 v=69
40932 Par ch=1 c=64 v=72
40934 On ch=1 n=d#3 v=56
40936 Par ch=1 c=64 v=0
40953 On ch=1 n=d#3 v=0
40961 Par ch=1 c=64 v=88
40965 Par ch=1 c=64 v=127
40979 On ch=1 n=d#5 v=48
40981 On ch=1 n=c#5 v=35
40984 On ch=1 n=g4 v=48
40989 On ch=1 n=d#4 v=39
40994 On ch=1 n=a#5 v=0
40998 On ch=1 n=d#4 v=0
41010 On ch=1 n=g4 v=0
41016 On ch=1 n=c#5 v=0
41025 On ch=1 n=d#5 v=0
41037 On ch=1 n=g#5 v=61
41044 On ch=1 n=g#3 v=40
41062 Par ch=1 c=64 v=88
41066 Par ch=1 c=64 v=0
41094 Par ch=1 c=64 v=40
41098 Par ch=1 c=64 v=127
41098 On ch=1 n=d#5 v=34
41101 On ch=1 n=c5 v=30
41106 On ch=1 n=g#3 v=0
41108 On ch=1 n=d#4 v=43
41108 On ch=1 n=g#4 v=37
41120 On ch=1 n=d#4 v=0
41122 On ch=1 n=c5 v=0
41130 On ch=1 n=g#4 v=0
41130 On ch=1 n=d#5 v=0
41141 On ch=1 n=g#5 v=0
41195 On ch=1 n=a#5 v=84
41202 On ch=1 n=g#4 v=45
41222 Par ch=1 c=64 v=88
41226 Par ch=1 c=64 v=0
41248 On ch=1 n=g#4 v=0
41251 Par ch=1 c=64 v=56
41255 On ch=1 n=a#4 v=40
41255 Par ch=1 c=64 v=127
41257 On ch=1 n=f5 v=50
41265 On ch=1 n=d5 v=30
41276 On ch=1 n=d5 v=0
41278 On ch=1 n=f5 v=0
41282 On ch=1 n=a#4 v=0
41302 On ch=1 n=g4 v=65
41304 Par ch=1 c=64 v=24
41308 Par ch=1 c=64 v=0
41328 Par ch=1 c=64 v=88
41332 Par ch=1 c=64 v=127
41333 On ch=1 n=g4 v=0
41352 On ch=1 n=d#5 v=51
41352 On ch=1 n=g5 v=50
41356 On ch=1 n=a#4 v=57
41376 On ch=1 n=g5 v=0
41383 On ch=1 n=a#4 v=0
41385 On ch=1 n=d#5 v=0
41390 On ch=1 n=a#5 v=0
41397 On ch=1 n=c6 v=94
41400 On ch=1 n=f4 v=74
41404 Par ch=1 c=64 v=40
41408 Par ch=1 c=64 v=0
41418 On ch=1 n=f4 v=0
41421 Par ch=1 c=64 v=40
41425 Par ch=1 c=64 v=104
41429 Par ch=1 c=64 v=127
41438 On ch=1 n=c6 v=0
41445 On ch=1 n=d6 v=96
41449 On ch=1 n=a#4 v=48
41451 On ch=1 n=d5 v=44
41459 On ch=1 n=d5 v=0
41472 On ch=1 n=a#4 v=0
41489 On ch=1 n=d6 v=0
41501 Par ch=1 c=64 v=56
41503 On ch=1 n=d#4 v=62
41503 On ch=1 n=d#6 v=86
41505 Par ch=1 c=64 v=0
41523 On ch=1 n=d#4 v=0
41530 Par ch=1 c=64 v=88
41534 Par ch=1 c=64 v=127
41547 On ch=1 n=d#6 v=0
41554 On ch=1 n=g5 v=64
41555 On ch=1 n=d#5 v=53
41559 On ch=1 n=a#4 v=35
41563 On ch=1 n=d#5 v=0
41569 On ch=1 n=a#4 v=0
41570 On ch=1 n=g5 v=0
41619 On ch=1 n=g#5 v=89
41624 On ch=1 n=f#4 v=42
41626 Par ch=1 c=64 v=88
41630 Par ch=1 c=64 v=0
41662 Par ch=1 c=64 v=127
41664 On ch=1 n=f#4 v=0
41673 On ch=1 n=d#5 v=53
41677 On ch=1 n=c5 v=47
41687 On ch=1 n=c5 v=0
41689 On ch=1 n=g#4 v=23
41699 On ch=1 n=g#4 v=0
41700 On ch=1 n=d#5 v=0
41720 On ch=1 n=f4 v=59
41723 Par ch=1 c=64 v=72
41727 Par ch=1 c=64 v=0
41743 Par ch=1 c=64 v=72
41745 On ch=1 n=f4 v=0
41747 Par ch=1 c=64 v=127
41762 On ch=1 n=c#5 v=45
41766 On ch=1 n=f5 v=46
41768 On ch=1 n=g#4 v=25
41780 On ch=1 n=f5 v=0
41785 On ch=1 n=c#5 v=0
41788 On ch=1 n=g#4 v=0
41812 Par ch=1 c=64 v=104
41813 On ch=1 n=a#5 v=85
41816 Par ch=1 c=64 v=24
41817 On ch=1 n=d#4 v=65
41820 On ch=1 n=g#5 v=0
41820 Par ch=1 c=64 v=0
41828 Par ch=1 c=64 v=56
41832 Par ch=1 c=64 v=127
41840 On ch=1 n=d#4 v=0
41855 On ch=1 n=a#5 v=0
41859 On ch=1 n=c6 v=89
41862 On ch=1 n=f#5 v=48
41867 On ch=1 n=c5 v=49
41868 On ch=1 n=g#4 v=36
41875 On ch=1 n=c5 v=0
41877 On ch=1 n=f#5 v=0
41884 On ch=1 n=g#4 v=0
41913 Par ch=1 c=64 v=56
41914 On ch=1 n=c#4 v=67
41914 On ch=1 n=c#6 v=85
41915 On ch=1 n=c6 v=0
41917 Par ch=1 c=64 v=0
41929 Par ch=1 c=64 v=56
41930 On ch=1 n=c#4 v=0
41933 Par ch=1 c=64 v=127
41965 On ch=1 n=f5 v=57
41966 On ch=1 n=g#4 v=52
41978 On ch=1 n=f5 v=0
41987 On ch=1 n=g#4 v=0
42004 On ch=1 n=c#6 v=0
42012 On ch=1 n=f6 v=86
42014 Par ch=1 c=64 v=104
42015 On ch=1 n=c6 v=80
42018 Par ch=1 c=64 v=0
42021 On ch=1 n=f4 v=63
42038 Par ch=1 c=64 v=88
42042 On ch=1 n=f4 v=0
42042 Par ch=1 c=64 v=127
42052 On ch=1 n=c6 v=0
42064 On ch=1 n=c#6 v=85
42066 On ch=1 n=d#5 v=50
42067 On ch=1 n=f5 v=49
42072 On ch=1 n=a4 v=41
42075 On ch=1 n=f5 v=0
42077 On ch=1 n=d#5 v=0
42081 On ch=1 n=a4 v=0
42110 Par ch=1 c=64 v=72
42114 Par ch=1 c=64 v=0
42116 On ch=1 n=a#5 v=77
42116 On ch=1 n=a#3 v=61
42120 On ch=1 n=c#6 v=0
42123 On ch=1 n=a#3 v=0
42126 Par ch=1 c=64 v=56
42130 Par ch=1 c=64 v=127
42160 On ch=1 n=f5 v=55
42161 On ch=1 n=c#5 v=52
42166 On ch=1 n=a#4 v=38
42169 On ch=1 n=c#5 v=0
42173 On ch=1 n=f5 v=0
42176 On ch=1 n=a#4 v=0
42200 On ch=1 n=a#5 v=0
42213 On ch=1 n=f6 v=80
42213 On ch=1 n=c6 v=92
42215 On ch=1 n=f4 v=62
42219 Par ch=1 c=64 v=88
42223 Par ch=1 c=64 v=0
42244 On ch=1 n=f4 v=0
42248 Par ch=1 c=64 v=127
42261 On ch=1 n=f5 v=66
42262 On ch=1 n=d#5 v=49
42263 On ch=1 n=a4 v=55
42268 On ch=1 n=f5 v=0
42269 On ch=1 n=d#5 v=0
42272 On ch=1 n=a4 v=0
42307 On ch=1 n=f6 v=0
42307 On ch=1 n=c6 v=0
42312 On ch=1 n=d#6 v=85
42315 Par ch=1 c=64 v=24
42317 On ch=1 n=a#3 v=62
42320 Par ch=1 c=64 v=0
42332 On ch=1 n=a#3 v=0
42332 Par ch=1 c=64 v=40
42335 On ch=1 n=f6 v=0
42336 Par ch=1 c=64 v=127
42360 On ch=1 n=d#6 v=0
42365 On ch=1 n=c#6 v=84
42368 On ch=1 n=c#5 v=58
42370 On ch=1 n=a#4 v=60
42373 On ch=1 n=f4 v=44
42386 On ch=1 n=c#5 v=0
42388 On ch=1 n=f4 v=0
42389 On ch=1 n=c#6 v=0
42391 On ch=1 n=a#4 v=0
42412 On ch=1 n=c6 v=88
42424 On ch=1 n=c#4 v=64
42429 Par ch=1 c=64 v=56
42433 Par ch=1 c=64 v=0
42453 Par ch=1 c=64 v=56
42455 On ch=1 n=c#4 v=0
42457 Par ch=1 c=64 v=127
42459 On ch=1 n=c6 v=0
42462 On ch=1 n=a#5 v=83
42468 On ch=1 n=a#4 v=57
42468 On ch=1 n=f4 v=62
42486 On ch=1 n=f4 v=0
42488 On ch=1 n=a#5 v=0
42497 On ch=1 n=a#4 v=0
42518 On ch=1 n=g#5 v=85
42527 On ch=1 n=f4 v=50
42530 Par ch=1 c=64 v=24
42534 Par ch=1 c=64 v=0
42558 Par ch=1 c=64 v=56
42562 Par ch=1 c=64 v=127
42571 On ch=1 n=c5 v=59
42576 On ch=1 n=g#4 v=42
42585 On ch=1 n=f4 v=0
42603 On ch=1 n=c5 v=0
42613 On ch=1 n=g#5 v=0
42618 On ch=1 n=g#4 v=0
42632 On ch=1 n=a#5 v=80
42635 On ch=1 n=c#4 v=52
42638 On ch=1 n=g5 v=58
42643 Par ch=1 c=64 v=88
42647 Par ch=1 c=64 v=0
42671 Par ch=1 c=64 v=88
42675 Par ch=1 c=64 v=127
42680 On ch=1 n=g5 v=0
42680 On ch=1 n=c#4 v=0
42691 On ch=1 n=f5 v=59
42695 On ch=1 n=g4 v=44
42695 On ch=1 n=a#4 v=22
42714 On ch=1 n=a#5 v=0
42732 On ch=1 n=g4 v=0
42737 On ch=1 n=c4 v=52
42765 On ch=1 n=c6 v=76
42768 Par ch=1 c=64 v=104
42772 Par ch=1 c=64 v=0
42780 On ch=1 n=a#4 v=0
42816 Par ch=1 c=64 v=56
42820 Par ch=1 c=64 v=127
42825 On ch=1 n=f5 v=0
42829 On ch=1 n=e5 v=52
42834 On ch=1 n=a#4 v=33
42840 On ch=1 n=g4 v=39
42852 On ch=1 n=g4 v=0
42862 On ch=1 n=c4 v=0
42862 On ch=1 n=a#4 v=0
42865 On ch=1 n=c6 v=0
42877 On ch=1 n=e5 v=0
42924 On ch=1 n=c6 v=83
42925 Par ch=1 c=64 v=56
42929 Par ch=1 c=64 v=0
42930 On ch=1 n=f3 v=52
42944 On ch=1 n=f3 v=0
42954 Par ch=1 c=64 v=127
42983 On ch=1 n=f4 v=54
42987 On ch=1 n=d#5 v=43
42988 On ch=1 n=a4 v=44
42989 On ch=1 n=f5 v=56
43000 On ch=1 n=a4 v=0
43007 On ch=1 n=f4 v=0
43010 On ch=1 n=c6 v=0
43015 On ch=1 n=f5 v=0
43024 On ch=1 n=d#5 v=0
43034 On ch=1 n=a#5 v=80
43037 Par ch=1 c=64 v=40
43039 On ch=1 n=a#3 v=51
43041 Par ch=1 c=64 v=0
43060 On ch=1 n=a#3 v=0
43062 Par ch=1 c=64 v=72
43066 Par ch=1 c=64 v=127
43082 On ch=1 n=a#5 v=0
43086 On ch=1 n=a#4 v=42
43088 On ch=1 n=f4 v=51
43088 On ch=1 n=c#5 v=51
43089 On ch=1 n=f5 v=58
43095 On ch=1 n=f4 v=0
43095 On ch=1 n=a#4 v=0
43118 On ch=1 n=c#5 v=0
43128 On ch=1 n=f5 v=0
43138 On ch=1 n=c6 v=86
43142 On ch=1 n=f3 v=46
43147 Par ch=1 c=64 v=40
43151 Par ch=1 c=64 v=0
43161 On ch=1 n=f3 v=0
43167 Par ch=1 c=64 v=40
43171 Par ch=1 c=64 v=104
43175 Par ch=1 c=64 v=127
43187 On ch=1 n=f5 v=60
43190 On ch=1 n=c6 v=0
43190 On ch=1 n=d#5 v=42
43194 On ch=1 n=a4 v=34
43195 On ch=1 n=f4 v=59
43204 On ch=1 n=f4 v=0
43207 On ch=1 n=a4 v=0
43210 On ch=1 n=f5 v=0
43213 On ch=1 n=d#5 v=0
43235 On ch=1 n=d#6 v=89
43236 Par ch=1 c=64 v=72
43240 Par ch=1 c=64 v=0
43241 On ch=1 n=a#3 v=58
43252 Par ch=1 c=64 v=56
43256 Par ch=1 c=64 v=127
43262 On ch=1 n=d#6 v=0
43273 On ch=1 n=a#3 v=0
43286 On ch=1 n=c#6 v=86
43290 On ch=1 n=c#5 v=60
43291 On ch=1 n=a#4 v=35
43295 On ch=1 n=f4 v=39
43307 On ch=1 n=f4 v=0
43307 On ch=1 n=c#5 v=0
43310 On ch=1 n=c#6 v=0
43312 On ch=1 n=a#4 v=0
43335 On ch=1 n=c6 v=89
43337 Par ch=1 c=64 v=72
43341 Par ch=1 c=64 v=0
43343 On ch=1 n=c#4 v=39
43361 Par ch=1 c=64 v=72
43364 On ch=1 n=c6 v=0
43365 Par ch=1 c=64 v=127
43369 On ch=1 n=c#4 v=0
43384 On ch=1 n=a#5 v=76
43388 On ch=1 n=a#4 v=31
43388 On ch=1 n=c#5 v=59
43392 On ch=1 n=f4 v=44
43403 On ch=1 n=f4 v=0
43405 On ch=1 n=a#4 v=0
43407 On ch=1 n=c#5 v=0
43419 On ch=1 n=a#5 v=0
43442 On ch=1 n=g#5 v=76
43446 Par ch=1 c=64 v=104
43446 On ch=1 n=d#4 v=48
43450 Par ch=1 c=64 v=24
43454 Par ch=1 c=64 v=0
43482 Par ch=1 c=64 v=72
43486 Par ch=1 c=64 v=127
43493 On ch=1 n=g#5 v=0
43500 On ch=1 n=g#4 v=38
43502 On ch=1 n=d#4 v=0
43504 On ch=1 n=c5 v=55
43504 On ch=1 n=d#5 v=44
43517 On ch=1 n=g#4 v=0
43528 On ch=1 n=c5 v=0
43533 On ch=1 n=d#5 v=0
43562 On ch=1 n=a#5 v=75
43566 On ch=1 n=d#3 v=57
43575 Par ch=1 c=64 v=40
43579 Par ch=1 c=64 v=0
43593 On ch=1 n=d#3 v=0
43599 Par ch=1 c=64 v=56
43603 Par ch=1 c=64 v=127
43630 On ch=1 n=d#4 v=48
43630 On ch=1 n=d#5 v=38
43631 On ch=1 n=c#5 v=34
43632 On ch=1 n=g4 v=44
43657 On ch=1 n=a#5 v=0
43667 On ch=1 n=g4 v=0
43674 On ch=1 n=c#5 v=0
43690 On ch=1 n=d#5 v=0
43696 On ch=1 n=d#4 v=0
43708 On ch=1 n=g#5 v=59
43708 On ch=1 n=g#3 v=31
43732 Par ch=1 c=64 v=56
43736 Par ch=1 c=64 v=0
43763 Par ch=1 c=64 v=127
43802 On ch=1 n=d#5 v=25
43803 On ch=1 n=g#4 v=25
43806 On ch=1 n=c5 v=37
43825 On ch=1 n=g#3 v=0
43834 On ch=1 n=c5 v=0
43836 On ch=1 n=d#5 v=0
43842 On ch=1 n=g#5 v=0
43860 On ch=1 n=g#4 v=0
43888 On ch=1 n=g#3 v=37
43935 On ch=1 n=a#5 v=77
43948 On ch=1 n=g#4 v=31
43970 Par ch=1 c=64 v=88
43974 Par ch=1 c=64 v=24
43978 Par ch=1 c=64 v=0
43998 Par ch=1 c=64 v=40
44002 Par ch=1 c=64 v=127
44014 On ch=1 n=d5 v=52
44018 On ch=1 n=f5 v=43
44028 On ch=1 n=f5 v=0
44030 On ch=1 n=d5 v=0
44044 On ch=1 n=a#5 v=0
44098 On ch=1 n=g#3 v=0
44118 On ch=1 n=d#6 v=79
44151 Par ch=1 c=64 v=72
44155 Par ch=1 c=64 v=0
44176 Par ch=1 c=64 v=56
44180 Par ch=1 c=64 v=127
44195 On ch=1 n=f#5 v=40
44196 On ch=1 n=a#5 v=46
44236 On ch=1 n=a#5 v=0
44248 On ch=1 n=c#5 v=60
44256 On ch=1 n=f#5 v=0
44308 On ch=1 n=f#5 v=42
44309 On ch=1 n=a#5 v=46
44352 On ch=1 n=a#5 v=0
44354 On ch=1 n=c#5 v=0
44356 On ch=1 n=f#5 v=0
44360 On ch=1 n=c5 v=66
44377 Par ch=1 c=64 v=56
44381 Par ch=1 c=64 v=24
44393 Par ch=1 c=64 v=127
44420 On ch=1 n=a#5 v=56
44422 On ch=1 n=f#5 v=42
44428 On ch=1 n=d#6 v=0
44458 On ch=1 n=f#5 v=0
44484 On ch=1 n=c#6 v=77
44492 On ch=1 n=a#4 v=53
44494 On ch=1 n=g#4 v=0
44494 On ch=1 n=c5 v=0
44500 On ch=1 n=a#5 v=0
44544 On ch=1 n=c#5 v=43
44578 On ch=1 n=c#6 v=0
44586 On ch=1 n=c#5 v=0
44592 On ch=1 n=a#4 v=0
44592 On ch=1 n=c6 v=86
44593 On ch=1 n=g#4 v=52
44602 Par ch=1 c=64 v=104
44607 Par ch=1 c=64 v=24
44611 Par ch=1 c=64 v=0
44631 Par ch=1 c=64 v=72
44635 Par ch=1 c=64 v=127
44641 On ch=1 n=c#5 v=61
44674 On ch=1 n=c6 v=0
44691 On ch=1 n=c#5 v=0
44693 On ch=1 n=a#5 v=79
44702 On ch=1 n=f#4 v=54
44706 On ch=1 n=g#4 v=0
44742 On ch=1 n=c#5 v=60
44784 On ch=1 n=c#5 v=0
44786 On ch=1 n=a#5 v=0
44790 On ch=1 n=g#5 v=80
44792 On ch=1 n=f#4 v=0
44799 On ch=1 n=f4 v=54
44837 On ch=1 n=c#5 v=50
44875 On ch=1 n=g#5 v=0
44878 On ch=1 n=c#5 v=0
44880 On ch=1 n=f4 v=0
44890 On ch=1 n=g5 v=83
44898 On ch=1 n=e4 v=47
44900 On ch=1 n=g#3 v=46
44910 Par ch=1 c=64 v=72
44914 Par ch=1 c=64 v=0
44938 Par ch=1 c=64 v=56
44941 Par ch=1 c=64 v=127
44949 On ch=1 n=c#5 v=58
44985 On ch=1 n=g5 v=0
44988 On ch=1 n=e4 v=0
44993 On ch=1 n=g#5 v=84
44996 On ch=1 n=f4 v=48
44999 On ch=1 n=c#5 v=0
45002 Par ch=1 c=64 v=72
45006 Par ch=1 c=64 v=0
45026 Par ch=1 c=64 v=56
45030 Par ch=1 c=64 v=127
45042 On ch=1 n=c#5 v=50
45090 On ch=1 n=c#5 v=0
45090 On ch=1 n=a#5 v=81
45094 On ch=1 n=f4 v=0
45097 On ch=1 n=c#4 v=35
45102 On ch=1 n=g#5 v=0
45137 On ch=1 n=c#5 v=69
45169 On ch=1 n=a#5 v=0
45189 On ch=1 n=c#4 v=0
45190 On ch=1 n=f#5 v=76
45191 On ch=1 n=c#5 v=0
45199 On ch=1 n=a#3 v=40
45208 Par ch=1 c=64 v=88
45212 Par ch=1 c=64 v=0
45235 Par ch=1 c=64 v=40
45240 Par ch=1 c=64 v=127
45241 On ch=1 n=c#5 v=63
45288 On ch=1 n=f#5 v=0
45292 On ch=1 n=c#5 v=0
45292 On ch=1 n=a#3 v=0
45292 On ch=1 n=g#5 v=67
45301 On ch=1 n=c4 v=47
45309 Par ch=1 c=64 v=56
45313 Par ch=1 c=64 v=0
45336 Par ch=1 c=64 v=56
45341 Par ch=1 c=64 v=127
45346 On ch=1 n=d#5 v=54
45383 On ch=1 n=g#5 v=0
45388 On ch=1 n=c4 v=0
45398 On ch=1 n=d#5 v=0
45401 On ch=1 n=f5 v=74
45406 On ch=1 n=c#4 v=39
45410 Par ch=1 c=64 v=56
45414 Par ch=1 c=64 v=0
45438 Par ch=1 c=64 v=56
45442 Par ch=1 c=64 v=127
45454 On ch=1 n=f5 v=0
45458 On ch=1 n=g#4 v=54
45492 On ch=1 n=g#4 v=0
45517 On ch=1 n=c#5 v=64
45522 On ch=1 n=f4 v=49
45524 On ch=1 n=c#4 v=0
45530 Par ch=1 c=64 v=72
45535 Par ch=1 c=64 v=0
45559 Par ch=1 c=64 v=40
45563 Par ch=1 c=64 v=127
45574 On ch=1 n=g#4 v=54
45590 On ch=1 n=f4 v=0
45595 On ch=1 n=g#4 v=0
45621 On ch=1 n=c#5 v=0
45650 On ch=1 n=d#5 v=59
45655 On ch=1 n=g#4 v=46
45664 Par ch=1 c=64 v=88
45668 Par ch=1 c=64 v=0
45692 Par ch=1 c=64 v=104
45696 Par ch=1 c=64 v=127
45699 On ch=1 n=g#4 v=0
45718 On ch=1 n=g#3 v=0
45737 On ch=1 n=g#4 v=37
45743 On ch=1 n=c5 v=34
45754 On ch=1 n=c5 v=0
45758 On ch=1 n=g#4 v=0
45766 On ch=1 n=d#5 v=0
45816 On ch=1 n=g#3 v=37
45848 On ch=1 n=a#5 v=75
45855 On ch=1 n=g#4 v=39
45857 Par ch=1 c=64 v=88
45861 Par ch=1 c=64 v=24
45865 Par ch=1 c=64 v=0
45890 Par ch=1 c=64 v=88
45894 Par ch=1 c=64 v=127
45917 On ch=1 n=d5 v=48
45924 On ch=1 n=f5 v=35
45931 On ch=1 n=d5 v=0
45934 On ch=1 n=f5 v=0
45952 On ch=1 n=a#5 v=0
46010 On ch=1 n=d#6 v=84
46035 Par ch=1 c=64 v=56
46039 Par ch=1 c=64 v=0
46051 Par ch=1 c=64 v=24
46055 Par ch=1 c=64 v=104
46059 Par ch=1 c=64 v=127
46062 On ch=1 n=g#3 v=0
46086 On ch=1 n=f#5 v=40
46087 On ch=1 n=a#5 v=52
46128 On ch=1 n=a#5 v=0
46136 On ch=1 n=f#5 v=0
46156 On ch=1 n=c#5 v=73
46229 On ch=1 n=a#5 v=49
46233 On ch=1 n=f#5 v=32
46257 On ch=1 n=a#5 v=0
46266 On ch=1 n=c#5 v=0
46280 On ch=1 n=f#5 v=0
46289 On ch=1 n=c5 v=66
46317 Par ch=1 c=64 v=40
46320 Par ch=1 c=64 v=0
46337 Par ch=1 c=64 v=40
46341 Par ch=1 c=64 v=127
46357 On ch=1 n=f#5 v=37
46359 On ch=1 n=a#5 v=56
46362 On ch=1 n=d#6 v=0
46397 On ch=1 n=f#5 v=0
46411 On ch=1 n=g#4 v=0
46419 On ch=1 n=c#6 v=83
46425 On ch=1 n=c5 v=0
46425 On ch=1 n=a#4 v=47
46435 On ch=1 n=a#5 v=0
46438 Par ch=1 c=64 v=72
46442 Par ch=1 c=64 v=0
46454 Par ch=1 c=64 v=56
46458 Par ch=1 c=64 v=127
46475 On ch=1 n=c#5 v=40
46502 On ch=1 n=c#6 v=0
46522 On ch=1 n=c#5 v=0
46524 On ch=1 n=c6 v=90
46525 On ch=1 n=g#4 v=58
46527 On ch=1 n=a#4 v=0
46539 Par ch=1 c=64 v=104
46543 Par ch=1 c=64 v=0
46566 Par ch=1 c=64 v=72
46570 Par ch=1 c=64 v=127
46582 On ch=1 n=c#5 v=43
46615 On ch=1 n=c6 v=0
46632 On ch=1 n=a#5 v=76
46640 On ch=1 n=c#5 v=0
46640 On ch=1 n=f#4 v=56
46644 Par ch=1 c=64 v=88
46648 On ch=1 n=g#4 v=0
46648 Par ch=1 c=64 v=0
46664 Par ch=1 c=64 v=56
46667 Par ch=1 c=64 v=127
46681 On ch=1 n=c#5 v=50
46727 On ch=1 n=f#4 v=0
46729 On ch=1 n=g#5 v=85
46735 On ch=1 n=f4 v=55
46737 On ch=1 n=c#5 v=0
46738 On ch=1 n=a#5 v=0
46773 On ch=1 n=c#5 v=45
46826 On ch=1 n=g#5 v=0
46827 On ch=1 n=c#5 v=0
46829 On ch=1 n=g5 v=84
46835 On ch=1 n=f4 v=0
46839 On ch=1 n=e4 v=52
46841 On ch=1 n=g#3 v=38
46849 Par ch=1 c=64 v=72
46853 Par ch=1 c=64 v=0
46878 Par ch=1 c=64 v=72
46882 Par ch=1 c=64 v=127
46884 On ch=1 n=c#5 v=61
46919 On ch=1 n=g5 v=0
46927 On ch=1 n=c#5 v=0
46929 On ch=1 n=e4 v=0
46930 On ch=1 n=g#5 v=73
46936 On ch=1 n=f4 v=52
46946 Par ch=1 c=64 v=72
46950 Par ch=1 c=64 v=0
46966 Par ch=1 c=64 v=40
46970 Par ch=1 c=64 v=127
46979 On ch=1 n=c#5 v=51
47028 On ch=1 n=a#5 v=75
47032 On ch=1 n=c#5 v=0
47035 On ch=1 n=f4 v=0
47035 Par ch=1 c=64 v=56
47036 On ch=1 n=c#4 v=45
47039 Par ch=1 c=64 v=0
47051 On ch=1 n=g#5 v=0
47058 Par ch=1 c=64 v=56
47063 Par ch=1 c=64 v=127
47079 On ch=1 n=c#5 v=62
47112 On ch=1 n=a#5 v=0
47124 On ch=1 n=c#5 v=0
47130 On ch=1 n=f#5 v=77
47136 Par ch=1 c=64 v=104
47139 On ch=1 n=c#4 v=0
47139 Par ch=1 c=64 v=24
47141 On ch=1 n=a#3 v=47
47144 Par ch=1 c=64 v=0
47168 Par ch=1 c=64 v=88
47172 Par ch=1 c=64 v=127
47182 On ch=1 n=c#5 v=62
47217 On ch=1 n=f#5 v=0
47223 On ch=1 n=c#5 v=0
47230 On ch=1 n=g#5 v=67
47232 On ch=1 n=a#3 v=0
47240 Par ch=1 c=64 v=40
47242 On ch=1 n=c4 v=49
47244 Par ch=1 c=64 v=0
47269 Par ch=1 c=64 v=72
47273 Par ch=1 c=64 v=127
47284 On ch=1 n=d#5 v=56
47300 On ch=1 n=g#5 v=0
47334 On ch=1 n=d#5 v=0
47339 On ch=1 n=f5 v=70
47343 On ch=1 n=c4 v=0
47344 On ch=1 n=c#4 v=52
47347 On ch=1 n=g#3 v=0
47349 Par ch=1 c=64 v=56
47354 Par ch=1 c=64 v=0
47374 Par ch=1 c=64 v=56
47378 Par ch=1 c=64 v=127
47394 On ch=1 n=f5 v=0
47399 On ch=1 n=g#4 v=53
47454 On ch=1 n=g#4 v=0
47461 On ch=1 n=a#4 v=65
47465 On ch=1 n=g#3 v=39
47470 On ch=1 n=c#4 v=0
47486 Par ch=1 c=64 v=88
47490 Par ch=1 c=64 v=0
47515 Par ch=1 c=64 v=88
47519 Par ch=1 c=64 v=127
47534 On ch=1 n=f#4 v=40
47538 On ch=1 n=c#5 v=40
47561 On ch=1 n=a#4 v=0
47569 On ch=1 n=c#5 v=0
47581 On ch=1 n=f#4 v=0
47628 On ch=1 n=g#3 v=0
47631 On ch=1 n=c#5 v=58
47640 On ch=1 n=g#4 v=30
47641 On ch=1 n=f4 v=27
47642 On ch=1 n=c#4 v=25
47653 On ch=1 n=c#3 v=30
47664 Par ch=1 c=64 v=104
47668 Par ch=1 c=64 v=40
47672 Par ch=1 c=64 v=0
47700 Par ch=1 c=64 v=72
47704 Par ch=1 c=64 v=127
47716 On ch=1 n=c#3 v=0
47719 On ch=1 n=f4 v=0
47723 On ch=1 n=c#4 v=0
47724 On ch=1 n=g#4 v=0
47736 On ch=1 n=c#5 v=0
47841 On ch=1 n=g#3 v=39
47854 On ch=1 n=b5 v=77
47874 Par ch=1 c=64 v=56
47875 On ch=1 n=g#4 v=34
47878 Par ch=1 c=64 v=0
47902 Par ch=1 c=64 v=56
47906 Par ch=1 c=64 v=127
47934 On ch=1 n=d5 v=48
47936 On ch=1 n=f5 v=45
47954 On ch=1 n=d5 v=0
47955 On ch=1 n=f5 v=0
47967 On ch=1 n=b5 v=0
47980 On ch=1 n=g#3 v=0
48030 On ch=1 n=f6 v=94
48097 On ch=1 n=b5 v=49
48098 On ch=1 n=g#5 v=35
48138 On ch=1 n=b5 v=0
48148 On ch=1 n=g#5 v=0
48158 On ch=1 n=b4 v=66
48211 On ch=1 n=b5 v=65
48214 On ch=1 n=g#5 v=43
48232 On ch=1 n=b4 v=0
48242 On ch=1 n=f6 v=0
48246 On ch=1 n=b5 v=0
48269 On ch=1 n=g#5 v=0
48274 On ch=1 n=d#6 v=85
48292 On ch=1 n=a#4 v=45
48297 Par ch=1 c=64 v=104
48301 Par ch=1 c=64 v=0
48306 On ch=1 n=g#4 v=0
48325 Par ch=1 c=64 v=127
48335 On ch=1 n=f5 v=62
48338 On ch=1 n=a#5 v=56
48363 On ch=1 n=f5 v=0
48363 On ch=1 n=d#6 v=0
48372 On ch=1 n=a#5 v=0
48386 On ch=1 n=d6 v=92
48387 On ch=1 n=a#4 v=0
48389 On ch=1 n=g#4 v=55
48433 On ch=1 n=d6 v=0
48436 On ch=1 n=a#5 v=62
48437 On ch=1 n=f5 v=55
48465 On ch=1 n=f5 v=0
48490 On ch=1 n=d#6 v=89
48491 On ch=1 n=a#5 v=0
48494 On ch=1 n=f#4 v=52
48495 Par ch=1 c=64 v=56
48499 Par ch=1 c=64 v=0
48501 On ch=1 n=g#4 v=0
48519 Par ch=1 c=64 v=56
48523 Par ch=1 c=64 v=127
48537 On ch=1 n=d#5 v=53
48542 On ch=1 n=f#5 v=58
48581 On ch=1 n=f#5 v=0
48588 On ch=1 n=f#4 v=0
48588 On ch=1 n=a#5 v=82
48594 On ch=1 n=d#5 v=0
48596 On ch=1 n=f4 v=47
48635 On ch=1 n=a#5 v=0
48636 On ch=1 n=d#5 v=42
48642 On ch=1 n=f#5 v=57
48680 On ch=1 n=f#5 v=0
48681 On ch=1 n=d#5 v=0
48688 On ch=1 n=d#4 v=61
48695 On ch=1 n=f4 v=0
48741 On ch=1 n=f#5 v=58
48743 On ch=1 n=d#5 v=42
48764 On ch=1 n=d#6 v=0
48784 On ch=1 n=d#5 v=0
48791 On ch=1 n=f#5 v=0
48803 On ch=1 n=d#4 v=0
48804 On ch=1 n=a5 v=88
48809 On ch=1 n=c#4 v=56
48865 On ch=1 n=c#4 v=0
48871 On ch=1 n=f#5 v=60
48875 On ch=1 n=d#5 v=43
48885 On ch=1 n=d#5 v=0
48891 On ch=1 n=f#5 v=0
48892 On ch=1 n=a5 v=0
48937 On ch=1 n=d#6 v=85
48941 On ch=1 n=c4 v=50
48945 On ch=1 n=g#3 v=34
48966 Par ch=1 c=64 v=88
48970 Par ch=1 c=64 v=0
48999 Par ch=1 c=64 v=104
49003 Par ch=1 c=64 v=127
49004 On ch=1 n=a5 v=57
49004 On ch=1 n=f#5 v=38
49047 On ch=1 n=a5 v=0
49047 On ch=1 n=a4 v=68
49050 On ch=1 n=f#5 v=0
49097 On ch=1 n=a5 v=68
49100 On ch=1 n=f#5 v=47
49128 On ch=1 n=a4 v=0
49135 On ch=1 n=d#6 v=0
49145 On ch=1 n=a5 v=0
49145 On ch=1 n=f#5 v=0
49152 On ch=1 n=c#6 v=81
49160 On ch=1 n=g#4 v=71
49180 Par ch=1 c=64 v=104
49184 Par ch=1 c=64 v=24
49188 Par ch=1 c=64 v=0
49202 On ch=1 n=g#5 v=55
49204 Par ch=1 c=64 v=72
49206 On ch=1 n=d#5 v=34
49208 Par ch=1 c=64 v=127
49212 On ch=1 n=c#6 v=0
49229 On ch=1 n=g#4 v=0
49241 On ch=1 n=d#5 v=0
49248 On ch=1 n=g#5 v=0
49257 On ch=1 n=c6 v=88
49263 On ch=1 n=f#4 v=50
49303 On ch=1 n=g#5 v=63
49307 On ch=1 n=d#5 v=47
49309 On ch=1 n=c6 v=0
49318 On ch=1 n=g#3 v=0
49332 On ch=1 n=d#5 v=0
49336 On ch=1 n=c4 v=0
49336 On ch=1 n=f#4 v=0
49336 On ch=1 n=g#5 v=0
49361 On ch=1 n=c#6 v=79
49370 On ch=1 n=g#3 v=37
49371 On ch=1 n=f4 v=47
49382 Par ch=1 c=64 v=104
49386 Par ch=1 c=64 v=24
49390 Par ch=1 c=64 v=0
49409 Par ch=1 c=64 v=40
49414 Par ch=1 c=64 v=104
49415 On ch=1 n=c#5 v=46
49418 Par ch=1 c=64 v=127
49420 On ch=1 n=g#5 v=57
49431 On ch=1 n=c#6 v=0
49446 On ch=1 n=g#5 v=0
49452 On ch=1 n=c#5 v=0
49468 On ch=1 n=g#5 v=80
49473 On ch=1 n=d#4 v=51
49475 On ch=1 n=f4 v=0
49518 On ch=1 n=c#5 v=38
49520 On ch=1 n=f5 v=59
49574 On ch=1 n=c#4 v=53
49576 Par ch=1 c=64 v=88
49580 Par ch=1 c=64 v=0
49583 On ch=1 n=f5 v=0
49583 On ch=1 n=d#4 v=0
49593 On ch=1 n=c#5 v=0
49599 Par ch=1 c=64 v=40
49603 Par ch=1 c=64 v=127
49627 On ch=1 n=g#5 v=0
49628 On ch=1 n=f5 v=61
49628 On ch=1 n=c#5 v=43
49650 On ch=1 n=c#4 v=0
49658 On ch=1 n=f5 v=0
49663 On ch=1 n=c#5 v=0
49689 On ch=1 n=g#5 v=78
49698 On ch=1 n=c4 v=57
49713 Par ch=1 c=64 v=40
49717 Par ch=1 c=64 v=0
49737 Par ch=1 c=64 v=72
49741 Par ch=1 c=64 v=127
49746 On ch=1 n=f5 v=58
49746 On ch=1 n=c#5 v=40
49763 On ch=1 n=c4 v=0
49764 On ch=1 n=g#3 v=0
49779 On ch=1 n=f5 v=0
49782 On ch=1 n=g#5 v=0
49787 On ch=1 n=c#5 v=0
49797 On ch=1 n=g5 v=76
49801 On ch=1 n=a#3 v=49
49806 On ch=1 n=g#3 v=40
49810 Par ch=1 c=64 v=88
49814 Par ch=1 c=64 v=24
49818 Par ch=1 c=64 v=0
49838 Par ch=1 c=64 v=40
49842 Par ch=1 c=64 v=127
49849 On ch=1 n=d#5 v=50
49851 On ch=1 n=c#5 v=48
49878 On ch=1 n=g5 v=0
49890 On ch=1 n=c#5 v=0
49894 On ch=1 n=d#5 v=0
49894 On ch=1 n=g#5 v=77
49898 On ch=1 n=a#3 v=0
49899 On ch=1 n=c4 v=66
49906 Par ch=1 c=64 v=104
49910 Par ch=1 c=64 v=40
49914 Par ch=1 c=64 v=0
49930 Par ch=1 c=64 v=72
49934 Par ch=1 c=64 v=127
49942 On ch=1 n=d#5 v=59
49942 On ch=1 n=c#5 v=43
49971 On ch=1 n=g#5 v=0
49983 On ch=1 n=c#5 v=0
49986 On ch=1 n=d#5 v=0
49989 On ch=1 n=a#5 v=85
49998 On ch=1 n=c4 v=0
49998 On ch=1 n=c#4 v=71
50011 Par ch=1 c=64 v=56
50015 Par ch=1 c=64 v=0
50035 Par ch=1 c=64 v=104
50039 Par ch=1 c=64 v=127
50041 On ch=1 n=d#5 v=53
50044 On ch=1 n=c#5 v=46
50054 On ch=1 n=a#5 v=0
50073 On ch=1 n=c#5 v=0
50088 On ch=1 n=c6 v=92
50096 Par ch=1 c=64 v=88
50097 On ch=1 n=d#4 v=60
50100 Par ch=1 c=64 v=24
50104 Par ch=1 c=64 v=0
50106 On ch=1 n=c#4 v=0
50120 Par ch=1 c=64 v=72
50124 Par ch=1 c=64 v=127
50136 On ch=1 n=c#5 v=58
50143 On ch=1 n=c6 v=0
50161 On ch=1 n=g#3 v=0
50175 On ch=1 n=d#4 v=0
50178 On ch=1 n=c#5 v=0
50191 On ch=1 n=g#5 v=77
50194 On ch=1 n=e4 v=55
50197 On ch=1 n=g#3 v=44
50213 Par ch=1 c=64 v=72
50217 Par ch=1 c=64 v=0
50241 Par ch=1 c=64 v=56
50245 On ch=1 n=c5 v=68
50245 Par ch=1 c=64 v=127
50276 On ch=1 n=c5 v=0
50290 On ch=1 n=e4 v=0
50298 On ch=1 n=f4 v=70
50334 On ch=1 n=d#5 v=0
50352 On ch=1 n=c5 v=64
50356 On ch=1 n=f4 v=0
50397 On ch=1 n=c5 v=0
50402 Par ch=1 c=64 v=104
50406 On ch=1 n=g4 v=77
50406 Par ch=1 c=64 v=24
50410 Par ch=1 c=64 v=0
50426 Par ch=1 c=64 v=72
50430 Par ch=1 c=64 v=127
50445 On ch=1 n=g#3 v=0
50454 On ch=1 n=g4 v=0
50461 On ch=1 n=g#5 v=0
50463 On ch=1 n=c5 v=60
50502 On ch=1 n=c5 v=0
50527 On ch=1 n=d#5 v=74
50535 On ch=1 n=g#4 v=61
50538 On ch=1 n=f3 v=43
50556 Par ch=1 c=64 v=88
50560 Par ch=1 c=64 v=24
50564 Par ch=1 c=64 v=0
50584 Par ch=1 c=64 v=88
50588 Par ch=1 c=64 v=127
50593 On ch=1 n=g#4 v=0
50593 On ch=1 n=b4 v=52
50633 On ch=1 n=b4 v=0
50643 On ch=1 n=d#5 v=0
50645 On ch=1 n=f3 v=0
50659 On ch=1 n=d5 v=72
50666 On ch=1 n=a#3 v=44
50668 On ch=1 n=f4 v=43
50693 Par ch=1 c=64 v=40
50697 Par ch=1 c=64 v=0
50717 Par ch=1 c=64 v=72
50717 On ch=1 n=a#4 v=39
50720 On ch=1 n=g#4 v=35
50721 Par ch=1 c=64 v=127
50761 On ch=1 n=d5 v=0
50763 On ch=1 n=g#4 v=0
50764 On ch=1 n=f4 v=0
50766 On ch=1 n=a#4 v=0
50769 On ch=1 n=d#5 v=73
50777 On ch=1 n=c4 v=46
50815 On ch=1 n=g#4 v=50
50862 On ch=1 n=d#5 v=0
50864 On ch=1 n=g#4 v=0
50864 On ch=1 n=c4 v=0
50873 On ch=1 n=f5 v=70
50878 Par ch=1 c=64 v=104
50882 Par ch=1 c=64 v=0
50885 On ch=1 n=d4 v=47
50910 On ch=1 n=a#3 v=0
50910 Par ch=1 c=64 v=88
50914 Par ch=1 c=64 v=127
50926 On ch=1 n=d4 v=0
50930 On ch=1 n=g#4 v=37
50933 On ch=1 n=f5 v=0
50951 On ch=1 n=a#2 v=61
50965 On ch=1 n=g#4 v=0
50970 On ch=1 n=a#2 v=0
50986 On ch=1 n=g5 v=67
50993 On ch=1 n=d4 v=62
51051 On ch=1 n=g#4 v=38
51052 On ch=1 n=g5 v=0
51061 On ch=1 n=d4 v=0
51085 On ch=1 n=g#4 v=0
51106 On ch=1 n=d#5 v=67
51114 On ch=1 n=d#4 v=39
51114 On ch=1 n=d#3 v=40
51136 Par ch=1 c=64 v=56
51140 Par ch=1 c=64 v=0
51160 Par ch=1 c=64 v=40
51164 Par ch=1 c=64 v=127
51171 On ch=1 n=g4 v=60
51209 On ch=1 n=d#3 v=0
51234 On ch=1 n=f3 v=45
51236 On ch=1 n=g4 v=0
51241 Par ch=1 c=64 v=104
51245 Par ch=1 c=64 v=40
51249 Par ch=1 c=64 v=0
51261 Par ch=1 c=64 v=40
51265 Par ch=1 c=64 v=88
51269 Par ch=1 c=64 v=127
51290 On ch=1 n=g#4 v=51
51302 On ch=1 n=c#5 v=37
51313 Par ch=1 c=64 v=88
51317 Par ch=1 c=64 v=0
51343 On ch=1 n=f3 v=0
51346 Par ch=1 c=64 v=88
51350 Par ch=1 c=64 v=127
51366 On ch=1 n=g3 v=42
51367 On ch=1 n=c#5 v=0
51369 On ch=1 n=g#4 v=0
51375 On ch=1 n=d#5 v=0
51448 On ch=1 n=c#5 v=38
51450 On ch=1 n=a#4 v=31
51466 Par ch=1 c=64 v=72
51471 Par ch=1 c=64 v=0
51486 On ch=1 n=g3 v=0
51487 Par ch=1 c=64 v=72
51491 On ch=1 n=a#4 v=0
51491 Par ch=1 c=64 v=127
51500 On ch=1 n=c#5 v=0
51511 On ch=1 n=d#4 v=0
51577 On ch=1 n=g#3 v=40
51596 On ch=1 n=a#5 v=77
51610 On ch=1 n=g#4 v=34
51611 Par ch=1 c=64 v=56
51615 Par ch=1 c=64 v=0
51644 Par ch=1 c=64 v=127
51673 On ch=1 n=d5 v=24
51682 On ch=1 n=f5 v=24
51693 On ch=1 n=f5 v=0
51694 On ch=1 n=d5 v=0
51712 On ch=1 n=a#5 v=0
51719 On ch=1 n=g#3 v=0
51768 On ch=1 n=d#6 v=83
51809 Par ch=1 c=64 v=72
51814 Par ch=1 c=64 v=0
51834 On ch=1 n=f#5 v=40
51834 Par ch=1 c=64 v=56
51838 On ch=1 n=a#5 v=37
51838 Par ch=1 c=64 v=127
51896 On ch=1 n=c#5 v=65
51900 On ch=1 n=f#5 v=0
51913 On ch=1 n=a#5 v=0
51962 On ch=1 n=f#5 v=37
51964 On ch=1 n=a#5 v=47
52013 On ch=1 n=c#5 v=0
52016 On ch=1 n=a#5 v=0
52024 On ch=1 n=f#5 v=0
52028 On ch=1 n=c5 v=58
52052 Par ch=1 c=64 v=72
52055 Par ch=1 c=64 v=0
52072 Par ch=1 c=64 v=24
52076 Par ch=1 c=64 v=104
52080 Par ch=1 c=64 v=127
52092 On ch=1 n=f#5 v=40
52096 On ch=1 n=a#5 v=51
52111 On ch=1 n=d#6 v=0
52120 On ch=1 n=f#5 v=0
52126 On ch=1 n=a#5 v=0
52154 On ch=1 n=g#4 v=0
52165 On ch=1 n=c#6 v=84
52176 On ch=1 n=a#4 v=38
52185 On ch=1 n=c5 v=0
52220 On ch=1 n=c#5 v=53
52276 On ch=1 n=c6 v=87
52278 On ch=1 n=c#5 v=0
52282 On ch=1 n=g#4 v=52
52284 On ch=1 n=a#4 v=0
52294 Par ch=1 c=64 v=72
52298 Par ch=1 c=64 v=0
52314 Par ch=1 c=64 v=56
52318 Par ch=1 c=64 v=127
52325 On ch=1 n=c#5 v=62
52373 On ch=1 n=c6 v=0
52380 On ch=1 n=a#5 v=75
52381 On ch=1 n=c#5 v=0
52391 On ch=1 n=f#4 v=54
52396 On ch=1 n=g#4 v=0
52398 Par ch=1 c=64 v=88
52402 Par ch=1 c=64 v=24
52407 Par ch=1 c=64 v=0
52419 Par ch=1 c=64 v=56
52423 Par ch=1 c=64 v=127
52432 On ch=1 n=c#5 v=56
52475 On ch=1 n=a#5 v=0
52478 On ch=1 n=f#4 v=0
52482 On ch=1 n=g#5 v=79
52483 Par ch=1 c=64 v=40
52487 On ch=1 n=f4 v=56
52488 On ch=1 n=c#5 v=0
52488 Par ch=1 c=64 v=0
52489 On ch=1 n=c#6 v=0
52504 Par ch=1 c=64 v=40
52508 Par ch=1 c=64 v=104
52512 Par ch=1 c=64 v=127
52530 On ch=1 n=c#5 v=56
52553 On ch=1 n=g#5 v=0
52574 On ch=1 n=c#5 v=0
52578 On ch=1 n=g5 v=79
52582 On ch=1 n=f4 v=0
52588 On ch=1 n=e4 v=47
52590 On ch=1 n=g#3 v=49
52599 Par ch=1 c=64 v=104
52604 Par ch=1 c=64 v=0
52624 On ch=1 n=c#5 v=56
52628 Par ch=1 c=64 v=104
52632 Par ch=1 c=64 v=127
52660 On ch=1 n=g5 v=0
52672 On ch=1 n=e4 v=0
52673 On ch=1 n=g#5 v=73
52675 On ch=1 n=c#5 v=0
52679 On ch=1 n=f4 v=56
52701 Par ch=1 c=64 v=56
52705 Par ch=1 c=64 v=24
52709 Par ch=1 c=64 v=40
52713 Par ch=1 c=64 v=72
52717 Par ch=1 c=64 v=127
52719 On ch=1 n=c#5 v=51
52770 On ch=1 n=a#5 v=73
52776 On ch=1 n=f4 v=0
52780 On ch=1 n=c#5 v=0
52780 On ch=1 n=c#4 v=46
52781 Par ch=1 c=64 v=40
52786 Par ch=1 c=64 v=0
52810 Par ch=1 c=64 v=56
52814 Par ch=1 c=64 v=127
52816 On ch=1 n=g#5 v=0
52826 On ch=1 n=c#5 v=63
52871 On ch=1 n=a#5 v=0
52877 On ch=1 n=f#5 v=77
52882 On ch=1 n=c#4 v=0
52882 On ch=1 n=a#3 v=49
52883 On ch=1 n=c#5 v=0
52890 Par ch=1 c=64 v=40
52894 Par ch=1 c=64 v=0
52919 Par ch=1 c=64 v=56
52923 Par ch=1 c=64 v=127
52928 On ch=1 n=c#5 v=60
52978 On ch=1 n=c#5 v=0
52980 On ch=1 n=g#5 v=70
52989 On ch=1 n=f#5 v=0
52990 On ch=1 n=a#3 v=0
52991 Par ch=1 c=64 v=56
52993 On ch=1 n=c4 v=43
52996 Par ch=1 c=64 v=0
53024 Par ch=1 c=64 v=72
53028 Par ch=1 c=64 v=127
53034 On ch=1 n=d#5 v=55
53068 On ch=1 n=g#5 v=0
53083 On ch=1 n=d#5 v=0
53083 On ch=1 n=c4 v=0
53087 On ch=1 n=f5 v=70
53089 On ch=1 n=c#4 v=58
53096 Par ch=1 c=64 v=40
53100 Par ch=1 c=64 v=0
53124 Par ch=1 c=64 v=72
53128 Par ch=1 c=64 v=127
53137 On ch=1 n=f5 v=0
53140 On ch=1 n=g#4 v=54
53180 On ch=1 n=g#4 v=0
53198 On ch=1 n=c#5 v=63
53204 On ch=1 n=f4 v=53
53213 Par ch=1 c=64 v=104
53217 Par ch=1 c=64 v=0
53242 Par ch=1 c=64 v=56
53246 On ch=1 n=f4 v=0
53246 Par ch=1 c=64 v=127
53254 On ch=1 n=g#4 v=48
53275 On ch=1 n=g#4 v=0
53285 On ch=1 n=c#5 v=0
53327 On ch=1 n=d#5 v=60
53329 On ch=1 n=g#4 v=39
53338 Par ch=1 c=64 v=72
53342 Par ch=1 c=64 v=0
53366 Par ch=1 c=64 v=104
53370 Par ch=1 c=64 v=127
53381 On ch=1 n=g#4 v=0
53397 On ch=1 n=c#4 v=0
53401 On ch=1 n=d#5 v=0
53402 On ch=1 n=g#3 v=0
53404 On ch=1 n=g#4 v=35
53409 On ch=1 n=c5 v=51
53438 On ch=1 n=c5 v=0
53438 On ch=1 n=g#4 v=0
53484 On ch=1 n=c#5 v=70
53492 On ch=1 n=f4 v=42
53494 On ch=1 n=c#4 v=34
53504 Par ch=1 c=64 v=40
53508 Par ch=1 c=64 v=0
53532 Par ch=1 c=64 v=104
53536 Par ch=1 c=64 v=127
53540 On ch=1 n=g#4 v=40
53545 On ch=1 n=b4 v=53
53556 On ch=1 n=b4 v=0
53556 On ch=1 n=c#5 v=0
53565 On ch=1 n=g#4 v=0
53627 On ch=1 n=b5 v=88
53641 Par ch=1 c=64 v=24
53645 Par ch=1 c=64 v=0
53661 Par ch=1 c=64 v=56
53665 Par ch=1 c=64 v=127
53682 On ch=1 n=c#4 v=0
53682 On ch=1 n=f4 v=0
53694 On ch=1 n=b4 v=53
53696 On ch=1 n=c#5 v=57
53748 On ch=1 n=c#5 v=0
53748 On ch=1 n=c#3 v=72
53759 On ch=1 n=b4 v=0
53795 On ch=1 n=b5 v=0
53796 On ch=1 n=c#5 v=53
53798 On ch=1 n=b4 v=43
53829 On ch=1 n=b4 v=0
53844 On ch=1 n=c#5 v=0
53848 On ch=1 n=c#3 v=0
53849 On ch=1 n=a#5 v=87
53854 On ch=1 n=d#3 v=51
53866 Par ch=1 c=64 v=72
53870 Par ch=1 c=64 v=0
53887 Par ch=1 c=64 v=88
53891 Par ch=1 c=64 v=127
53899 On ch=1 n=c#5 v=56
53900 On ch=1 n=b4 v=53
53923 On ch=1 n=a#5 v=0
53926 On ch=1 n=b4 v=0
53940 On ch=1 n=d#3 v=0
53941 On ch=1 n=c#5 v=0
53942 On ch=1 n=a5 v=94
53949 On ch=1 n=f3 v=54
53988 On ch=1 n=c#5 v=46
53988 On ch=1 n=b4 v=32
54007 On ch=1 n=a5 v=0
54021 On ch=1 n=b4 v=0
54050 On ch=1 n=a#5 v=87
54053 On ch=1 n=c#5 v=0
54058 On ch=1 n=f#3 v=46
54062 On ch=1 n=f3 v=0
54072 Par ch=1 c=64 v=88
54076 Par ch=1 c=64 v=0
54100 Par ch=1 c=64 v=127
54104 On ch=1 n=a#4 v=44
54108 On ch=1 n=c#5 v=56
54139 On ch=1 n=c#5 v=0
54150 On ch=1 n=a#4 v=0
54160 On ch=1 n=d5 v=74
54172 On ch=1 n=d4 v=58
54185 On ch=1 n=a#4 v=22
54189 On ch=1 n=d5 v=0
54221 On ch=1 n=d4 v=0
54240 On ch=1 n=a#4 v=0
54262 On ch=1 n=d#5 v=77
54264 On ch=1 n=d#4 v=64
54274 Par ch=1 c=64 v=88
54278 Par ch=1 c=64 v=24
54282 Par ch=1 c=64 v=0
54290 Par ch=1 c=64 v=72
54294 Par ch=1 c=64 v=127
54303 On ch=1 n=a#4 v=37
54306 On ch=1 n=d#5 v=0
54306 On ch=1 n=f#3 v=0
54307 On ch=1 n=c#5 v=60
54342 On ch=1 n=a#5 v=0
54352 On ch=1 n=a#4 v=0
54357 On ch=1 n=c#5 v=0
54364 On ch=1 n=d#5 v=86
54375 Par ch=1 c=64 v=56
54376 On ch=1 n=f#3 v=50
54379 Par ch=1 c=64 v=0
54398 Par ch=1 c=64 v=127
54414 On ch=1 n=a#4 v=57
54417 On ch=1 n=c#5 v=71
54432 On ch=1 n=f#3 v=0
54434 On ch=1 n=a#4 v=0
54439 On ch=1 n=c#5 v=0
54443 On ch=1 n=d#5 v=0
54487 On ch=1 n=g3 v=56
54503 On ch=1 n=c#6 v=96
54520 Par ch=1 c=64 v=104
54524 Par ch=1 c=64 v=0
54547 Par ch=1 c=64 v=56
54552 Par ch=1 c=64 v=127
54555 On ch=1 n=g3 v=0
54559 On ch=1 n=d#5 v=48
54560 On ch=1 n=c#5 v=42
54602 On ch=1 n=d#3 v=65
54608 On ch=1 n=d#5 v=0
54612 On ch=1 n=c#5 v=0
54650 On ch=1 n=d#5 v=72
54654 On ch=1 n=c#5 v=55
54671 On ch=1 n=c#6 v=0
54677 On ch=1 n=d#3 v=0
54681 On ch=1 n=c#5 v=0
54697 On ch=1 n=d#5 v=0
54698 On ch=1 n=c6 v=93
54706 On ch=1 n=f3 v=56
54706 Par ch=1 c=64 v=104
54710 Par ch=1 c=64 v=0
54734 Par ch=1 c=64 v=40
54738 Par ch=1 c=64 v=127
54748 On ch=1 n=d#5 v=65
54750 On ch=1 n=c#5 v=53
54766 On ch=1 n=c6 v=0
54789 On ch=1 n=c#5 v=0
54795 On ch=1 n=d#5 v=0
54798 Par ch=1 c=64 v=72
54799 On ch=1 n=a#5 v=84
54800 On ch=1 n=f3 v=0
54802 Par ch=1 c=64 v=0
54804 On ch=1 n=g3 v=59
54818 Par ch=1 c=64 v=56
54822 Par ch=1 c=64 v=127
54844 On ch=1 n=a#5 v=0
54851 On ch=1 n=c#5 v=55
54851 On ch=1 n=d#5 v=65
54876 On ch=1 n=c#5 v=0
54881 On ch=1 n=d#5 v=0
54906 On ch=1 n=g#5 v=80
54911 On ch=1 n=c5 v=71
54915 Par ch=1 c=64 v=24
54917 On ch=1 n=g#3 v=57
54919 Par ch=1 c=64 v=0
54923 On ch=1 n=g3 v=0
54925 On ch=1 n=d#4 v=0
54929 On ch=1 n=c5 v=0
54939 On ch=1 n=g#3 v=0
54940 Par ch=1 c=64 v=127
54952 On ch=1 n=g#5 v=0
54964 On ch=1 n=f5 v=79
54965 On ch=1 n=c6 v=88
54979 On ch=1 n=f5 v=0
54985 On ch=1 n=c6 v=0
55020 On ch=1 n=f6 v=88
55021 On ch=1 n=g#5 v=77
55022 On ch=1 n=g#4 v=53
55037 On ch=1 n=g#5 v=0
55043 On ch=1 n=f6 v=0
55076 On ch=1 n=d#6 v=84
55076 Par ch=1 c=64 v=104
55077 On ch=1 n=f#5 v=64
55080 Par ch=1 c=64 v=24
55084 On ch=1 n=c5 v=46
55084 Par ch=1 c=64 v=0
55097 Par ch=1 c=64 v=40
55098 On ch=1 n=g#4 v=0
55101 On ch=1 n=f#5 v=0
55101 Par ch=1 c=64 v=104
55105 Par ch=1 c=64 v=127
55123 On ch=1 n=d#6 v=0
55140 On ch=1 n=c#6 v=78
55141 Par ch=1 c=64 v=104
55144 On ch=1 n=f5 v=62
55145 Par ch=1 c=64 v=40
55149 Par ch=1 c=64 v=0
55161 Par ch=1 c=64 v=24
55165 Par ch=1 c=64 v=88
55166 On ch=1 n=f5 v=0
55167 On ch=1 n=c#6 v=0
55169 Par ch=1 c=64 v=127
55173 On ch=1 n=c5 v=0
55216 On ch=1 n=c6 v=72
55218 On ch=1 n=d#5 v=34
55230 Par ch=1 c=64 v=56
55234 Par ch=1 c=64 v=0
55262 Par ch=1 c=64 v=72
55266 Par ch=1 c=64 v=127
55275 On ch=1 n=d#5 v=0
55286 On ch=1 n=c6 v=0
55440 On ch=1 n=a#5 v=72
55445 On ch=1 n=d5 v=53
55446 On ch=1 n=g#4 v=38
55450 Par ch=1 c=64 v=40
55455 Par ch=1 c=64 v=56
55459 Par ch=1 c=64 v=88
55463 Par ch=1 c=64 v=104
55465 On ch=1 n=d5 v=0
55465 On ch=1 n=a#5 v=0
55466 On ch=1 n=g#4 v=0
55466 Par ch=1 c=64 v=127
55473 On ch=1 n=b5 v=82
55474 On ch=1 n=f5 v=60
55486 Par ch=1 c=64 v=88
55489 Par ch=1 c=64 v=40
55493 Par ch=1 c=64 v=0
55496 On ch=1 n=f5 v=0
55497 On ch=1 n=b5 v=0
55505 On ch=1 n=a#5 v=89
55505 On ch=1 n=d#5 v=60
55511 On ch=1 n=f#4 v=43
55511 On ch=1 n=a#4 v=38
55513 Par ch=1 c=64 v=40
55516 Par ch=1 c=64 v=72
55520 Par ch=1 c=64 v=127
55526 On ch=1 n=f#4 v=0
55527 On ch=1 n=d#5 v=0
55529 On ch=1 n=a#5 v=0
55535 On ch=1 n=a#4 v=0
55535 On ch=1 n=d#6 v=86
55537 On ch=1 n=f#5 v=58
55555 Par ch=1 c=64 v=88
55557 On ch=1 n=f#5 v=0
55559 Par ch=1 c=64 v=40
55562 On ch=1 n=d#6 v=0
55562 Par ch=1 c=64 v=0
55567 On ch=1 n=a#5 v=81
55570 On ch=1 n=d5 v=68
55574 Par ch=1 c=64 v=24
55575 On ch=1 n=f4 v=62
55578 Par ch=1 c=64 v=56
55581 On ch=1 n=f4 v=0
55582 Par ch=1 c=64 v=104
55585 Par ch=1 c=64 v=127
55595 On ch=1 n=d5 v=0
55595 On ch=1 n=a#5 v=0
55599 On ch=1 n=g#6 v=89
55601 On ch=1 n=d6 v=85
55605 On ch=1 n=g#5 v=62
55617 On ch=1 n=g#5 v=0
55624 On ch=1 n=d6 v=0
55627 Par ch=1 c=64 v=88
55630 On ch=1 n=g#6 v=0
55632 Par ch=1 c=64 v=40
55635 On ch=1 n=a#5 v=85
55635 Par ch=1 c=64 v=24
55636 On ch=1 n=a#4 v=55
55639 Par ch=1 c=64 v=40
55639 On ch=1 n=f#4 v=61
55643 Par ch=1 c=64 v=72
55647 Par ch=1 c=64 v=104
55651 Par ch=1 c=64 v=127
55654 On ch=1 n=f#4 v=0
55659 On ch=1 n=a#5 v=0
55660 On ch=1 n=a#4 v=0
55666 On ch=1 n=f#6 v=86
55666 On ch=1 n=f#5 v=57
55667 On ch=1 n=d#6 v=79
55686 On ch=1 n=f#5 v=0
55689 Par ch=1 c=64 v=88
55691 On ch=1 n=f#6 v=0
55693 Par ch=1 c=64 v=24
55694 On ch=1 n=d#6 v=0
55696 Par ch=1 c=64 v=0
55699 On ch=1 n=g#5 v=81
55700 On ch=1 n=b4 v=63
55702 On ch=1 n=g#4 v=58
55708 Par ch=1 c=64 v=24
55711 Par ch=1 c=64 v=56
55715 Par ch=1 c=64 v=88
55719 On ch=1 n=b4 v=0
55720 Par ch=1 c=64 v=104
55722 On ch=1 n=g#4 v=0
55726 On ch=1 n=g#5 v=0
55730 On ch=1 n=f6 v=92
55733 On ch=1 n=f5 v=58
55733 On ch=1 n=b5 v=74
55735 Par ch=1 c=64 v=127
55750 On ch=1 n=f5 v=0
55752 On ch=1 n=b5 v=0
55753 Par ch=1 c=64 v=72
55757 On ch=1 n=f6 v=0
55757 Par ch=1 c=64 v=0
55763 On ch=1 n=f#5 v=85
55765 On ch=1 n=a#4 v=57
55789 On ch=1 n=a#4 v=0
55790 On ch=1 n=f#5 v=0
55794 On ch=1 n=d#6 v=80
55796 On ch=1 n=d#5 v=54
55797 On ch=1 n=a#5 v=64
55799 Par ch=1 c=64 v=40
55803 Par ch=1 c=64 v=127
55809 On ch=1 n=d#5 v=0
55821 On ch=1 n=d#6 v=0
55823 On ch=1 n=a#5 v=0
55827 Par ch=1 c=64 v=104
55829 On ch=1 n=f5 v=76
55830 On ch=1 n=a#3 v=58
55831 Par ch=1 c=64 v=24
55834 Par ch=1 c=64 v=0
55836 On ch=1 n=a#3 v=0
55845 Par ch=1 c=64 v=56
55849 Par ch=1 c=64 v=104
55851 On ch=1 n=f5 v=0
55854 Par ch=1 c=64 v=127
55861 On ch=1 n=d6 v=74
55864 On ch=1 n=a#5 v=55
55864 On ch=1 n=d5 v=54
55876 On ch=1 n=d5 v=0
55878 On ch=1 n=d6 v=0
55885 On ch=1 n=a#5 v=0
55887 Par ch=1 c=64 v=72
55891 Par ch=1 c=64 v=0
55893 On ch=1 n=f#5 v=74
55900 On ch=1 n=a#4 v=51
55904 On ch=1 n=d#4 v=49
55907 Par ch=1 c=64 v=40
55911 Par ch=1 c=64 v=88
55915 On ch=1 n=d#4 v=0
55915 Par ch=1 c=64 v=127
55917 On ch=1 n=f#5 v=0
55919 On ch=1 n=a#4 v=0
55928 On ch=1 n=d#6 v=73
55930 On ch=1 n=d#5 v=53
55930 On ch=1 n=a#5 v=57
55946 On ch=1 n=a#5 v=0
55946 On ch=1 n=d#6 v=0
55947 On ch=1 n=d#5 v=0
55950 Par ch=1 c=64 v=88
55953 Par ch=1 c=64 v=24
55957 Par ch=1 c=64 v=0
55961 On ch=1 n=a#5 v=77
55965 On ch=1 n=d5 v=64
55967 On ch=1 n=g#4 v=45
55969 Par ch=1 c=64 v=40
55970 On ch=1 n=a#4 v=31
55972 Par ch=1 c=64 v=88
55976 Par ch=1 c=64 v=127
55979 On ch=1 n=a#4 v=0
55981 On ch=1 n=a#5 v=0
55985 On ch=1 n=g#4 v=0
55985 On ch=1 n=d5 v=0
55995 On ch=1 n=b5 v=89
55995 On ch=1 n=f5 v=55
56007 Par ch=1 c=64 v=104
56009 On ch=1 n=f5 v=0
56011 Par ch=1 c=64 v=24
56015 Par ch=1 c=64 v=0
56018 On ch=1 n=b5 v=0
56023 On ch=1 n=d#5 v=59
56025 On ch=1 n=a#5 v=86
56026 Par ch=1 c=64 v=24
56027 On ch=1 n=f#4 v=46
56030 Par ch=1 c=64 v=72
56031 On ch=1 n=a#4 v=38
56034 Par ch=1 c=64 v=127
56042 On ch=1 n=f#4 v=0
56042 On ch=1 n=d#5 v=0
56047 On ch=1 n=a#4 v=0
56051 On ch=1 n=a#5 v=0
56053 On ch=1 n=f#5 v=64
56055 On ch=1 n=d#6 v=91
56072 On ch=1 n=f#5 v=0
56080 Par ch=1 c=64 v=88
56083 On ch=1 n=d#6 v=0
56084 Par ch=1 c=64 v=0
56084 On ch=1 n=a#5 v=85
56087 On ch=1 n=d5 v=62
56091 On ch=1 n=f4 v=52
56095 On ch=1 n=a#4 v=35
56099 On ch=1 n=f4 v=0
56099 Par ch=1 c=64 v=40
56103 Par ch=1 c=64 v=88
56106 On ch=1 n=a#4 v=0
56107 Par ch=1 c=64 v=104
56110 On ch=1 n=d5 v=0
56112 On ch=1 n=a#5 v=0
56117 On ch=1 n=f6 v=89
56117 On ch=1 n=g#6 v=91
56118 On ch=1 n=g#5 v=71
56122 Par ch=1 c=64 v=127
56135 On ch=1 n=g#5 v=0
56141 On ch=1 n=f6 v=0
56148 On ch=1 n=g#6 v=0
56148 Par ch=1 c=64 v=88
56150 On ch=1 n=a#5 v=85
56152 On ch=1 n=f#4 v=62
56153 Par ch=1 c=64 v=0
56154 On ch=1 n=a#4 v=45
56164 Par ch=1 c=64 v=24
56168 On ch=1 n=f#4 v=0
56168 Par ch=1 c=64 v=56
56172 Par ch=1 c=64 v=104
56174 On ch=1 n=a#4 v=0
56174 On ch=1 n=a#5 v=0
56176 Par ch=1 c=64 v=127
56182 On ch=1 n=f#6 v=90
56183 On ch=1 n=d#6 v=85
56184 On ch=1 n=f#5 v=59
56203 On ch=1 n=f#5 v=0
56209 On ch=1 n=f#6 v=0
56210 Par ch=1 c=64 v=24
56211 On ch=1 n=d#6 v=0
56214 Par ch=1 c=64 v=0
56215 On ch=1 n=g#5 v=85
56218 On ch=1 n=b4 v=63
56218 On ch=1 n=g#4 v=59
56225 Par ch=1 c=64 v=40
56229 Par ch=1 c=64 v=88
56233 Par ch=1 c=64 v=127
56237 On ch=1 n=b4 v=0
56240 On ch=1 n=g#4 v=0
56244 On ch=1 n=g#5 v=0
56244 Par ch=1 c=64 v=24
56249 Par ch=1 c=64 v=0
56249 On ch=1 n=f6 v=94
56251 On ch=1 n=f5 v=58
56254 On ch=1 n=b5 v=75
56260 Par ch=1 c=64 v=56
56264 Par ch=1 c=64 v=127
56270 On ch=1 n=b5 v=0
56270 On ch=1 n=f5 v=0
56279 On ch=1 n=f6 v=0
56279 Par ch=1 c=64 v=40
56283 On ch=1 n=f#5 v=82
56283 Par ch=1 c=64 v=0
56284 On ch=1 n=a#4 v=55
56298 Par ch=1 c=64 v=40
56302 Par ch=1 c=64 v=104
56306 Par ch=1 c=64 v=127
56308 On ch=1 n=a#4 v=0
56309 On ch=1 n=f#5 v=0
56314 On ch=1 n=d#6 v=88
56317 On ch=1 n=d#5 v=57
56317 Par ch=1 c=64 v=56
56317 On ch=1 n=a#5 v=69
56321 Par ch=1 c=64 v=0
56324 On ch=1 n=d#5 v=0
56332 Par ch=1 c=64 v=40
56337 Par ch=1 c=64 v=88
56341 Par ch=1 c=64 v=127
56343 On ch=1 n=a#5 v=0
56344 On ch=1 n=d#6 v=0
56349 On ch=1 n=f5 v=83
56349 On ch=1 n=a#3 v=65
56355 On ch=1 n=a#3 v=0
56372 On ch=1 n=f5 v=0
56380 On ch=1 n=d6 v=82
56382 On ch=1 n=d5 v=64
56382 On ch=1 n=a#5 v=60
56402 On ch=1 n=d5 v=0
56402 On ch=1 n=d6 v=0
56407 On ch=1 n=a#5 v=0
56409 Par ch=1 c=64 v=88
56413 On ch=1 n=f#5 v=72
56414 Par ch=1 c=64 v=24
56417 Par ch=1 c=64 v=0
56422 On ch=1 n=a#4 v=49
56422 On ch=1 n=d#4 v=60
56441 On ch=1 n=f#5 v=0
56448 Par ch=1 c=64 v=72
56452 On ch=1 n=d#6 v=79
56452 Par ch=1 c=64 v=127
56453 On ch=1 n=a#5 v=60
56459 On ch=1 n=d#4 v=0
56459 On ch=1 n=d#5 v=44
56468 On ch=1 n=a#4 v=0
56470 On ch=1 n=a#5 v=0
56470 On ch=1 n=d#5 v=0
56471 On ch=1 n=d#6 v=0
56476 Par ch=1 c=64 v=0
56496 Par ch=1 c=64 v=127
56496 On ch=1 n=c#6 v=83
56501 On ch=1 n=f5 v=41
56502 On ch=1 n=b4 v=44
56504 Par ch=1 c=64 v=56
56506 On ch=1 n=c#5 v=26
56508 Par ch=1 c=64 v=104
56512 Par ch=1 c=64 v=127
56513 On ch=1 n=f5 v=0
56518 On ch=1 n=b4 v=0
56519 On ch=1 n=c#5 v=0
56523 On ch=1 n=c#6 v=0
56525 On ch=1 n=g#5 v=46
56532 On ch=1 n=d#6 v=67
56540 On ch=1 n=g#5 v=0
56552 On ch=1 n=d#6 v=0
56554 Par ch=1 c=64 v=104
56558 Par ch=1 c=64 v=56
56561 On ch=1 n=a#4 v=46
56562 On ch=1 n=c#5 v=46
56562 On ch=1 n=c#6 v=73
56562 Par ch=1 c=64 v=24
56574 Par ch=1 c=64 v=56
56577 Par ch=1 c=64 v=88
56581 Par ch=1 c=64 v=127
56582 On ch=1 n=a#4 v=0
56583 On ch=1 n=c#5 v=0
56588 On ch=1 n=c#6 v=0
56591 On ch=1 n=f#5 v=70
56613 On ch=1 n=f#5 v=0
56620 Par ch=1 c=64 v=88
56623 Par ch=1 c=64 v=40
56625 On ch=1 n=a#5 v=79
56627 Par ch=1 c=64 v=0
56629 On ch=1 n=d5 v=51
56631 On ch=1 n=a#4 v=36
56633 On ch=1 n=g#4 v=39
56639 Par ch=1 c=64 v=72
56640 On ch=1 n=d5 v=0
56642 Par ch=1 c=64 v=104
56644 On ch=1 n=g#4 v=0
56645 On ch=1 n=a#4 v=0
56645 Par ch=1 c=64 v=127
56648 On ch=1 n=a#5 v=0
56656 On ch=1 n=f5 v=58
56659 On ch=1 n=b5 v=80
56670 On ch=1 n=f5 v=0
56680 On ch=1 n=b5 v=0
56684 Par ch=1 c=64 v=104
56688 Par ch=1 c=64 v=56
56690 On ch=1 n=a#5 v=74
56691 Par ch=1 c=64 v=24
56699 On ch=1 n=f#4 v=37
56699 On ch=1 n=a#4 v=34
56704 Par ch=1 c=64 v=88
56708 On ch=1 n=a#5 v=0
56708 Par ch=1 c=64 v=127
56712 On ch=1 n=a#4 v=0
56719 On ch=1 n=f#4 v=0
56721 On ch=1 n=d#5 v=73
56741 On ch=1 n=d#5 v=0
56754 Par ch=1 c=64 v=88
56756 On ch=1 n=f#5 v=87
56757 On ch=1 n=a#4 v=54
56757 Par ch=1 c=64 v=40
56761 Par ch=1 c=64 v=24
56765 Par ch=1 c=64 v=40
56769 Par ch=1 c=64 v=72
56773 Par ch=1 c=64 v=127
56778 On ch=1 n=f#5 v=0
56785 On ch=1 n=a#4 v=0
56787 On ch=1 n=g#5 v=81
56789 On ch=1 n=c#5 v=58
56802 On ch=1 n=c#5 v=0
56811 On ch=1 n=g#5 v=0
56819 Par ch=1 c=64 v=104
56821 On ch=1 n=f#5 v=81
56822 Par ch=1 c=64 v=72
56822 On ch=1 n=d#4 v=67
56824 On ch=1 n=f#4 v=50
56827 Par ch=1 c=64 v=56
56829 Par ch=1 c=64 v=72
56834 Par ch=1 c=64 v=104
56838 Par ch=1 c=64 v=127
56844 On ch=1 n=f#4 v=0
56844 On ch=1 n=d#4 v=0
56844 On ch=1 n=f#5 v=0
56851 On ch=1 n=b4 v=77
56875 On ch=1 n=b4 v=0
56880 Par ch=1 c=64 v=104
56884 Par ch=1 c=64 v=56
56886 On ch=1 n=d#5 v=89
56888 Par ch=1 c=64 v=24
56888 On ch=1 n=g4 v=48
56890 On ch=1 n=c#4 v=54
56899 Par ch=1 c=64 v=88
56901 On ch=1 n=g4 v=0
56903 Par ch=1 c=64 v=127
56909 On ch=1 n=d#5 v=0
56910 On ch=1 n=c#4 v=0
56918 On ch=1 n=e5 v=82
56919 On ch=1 n=a#4 v=47
56930 On ch=1 n=a#4 v=0
56942 On ch=1 n=e5 v=0
56945 Par ch=1 c=64 v=72
56949 Par ch=1 c=64 v=24
56952 On ch=1 n=d#5 v=76
56953 Par ch=1 c=64 v=0
56956 On ch=1 n=b3 v=52
56956 On ch=1 n=d#4 v=51
56964 Par ch=1 c=64 v=72
56966 On ch=1 n=b3 v=0
56968 Par ch=1 c=64 v=104
56972 Par ch=1 c=64 v=127
56973 On ch=1 n=d#4 v=0
56975 On ch=1 n=d#5 v=0
56980 On ch=1 n=g#4 v=80
57000 On ch=1 n=g#4 v=0
57010 Par ch=1 c=64 v=88
57014 Par ch=1 c=64 v=24
57017 On ch=1 n=d#5 v=85
57017 On ch=1 n=d#4 v=56
57018 Par ch=1 c=64 v=0
57019 On ch=1 n=c#4 v=50
57030 Par ch=1 c=64 v=72
57033 Par ch=1 c=64 v=127
57035 On ch=1 n=d#5 v=0
57037 On ch=1 n=c#4 v=0
57037 On ch=1 n=d#4 v=0
57048 On ch=1 n=e5 v=92
57049 On ch=1 n=a#4 v=55
57061 On ch=1 n=a#4 v=0
57072 On ch=1 n=e5 v=0
57072 Par ch=1 c=64 v=72
57076 Par ch=1 c=64 v=24
57079 On ch=1 n=d#5 v=87
57082 On ch=1 n=d#4 v=58
57085 On ch=1 n=b3 v=60
57087 Par ch=1 c=64 v=88
57091 Par ch=1 c=64 v=127
57101 On ch=1 n=b3 v=0
57101 On ch=1 n=d#4 v=0
57105 On ch=1 n=d#5 v=0
57110 On ch=1 n=g#4 v=65
57112 On ch=1 n=g#5 v=85
57135 On ch=1 n=g#4 v=0
57136 On ch=1 n=g#5 v=0
57136 Par ch=1 c=64 v=104
57140 Par ch=1 c=64 v=56
57142 On ch=1 n=d#5 v=83
57142 On ch=1 n=d#4 v=64
57145 Par ch=1 c=64 v=24
57146 On ch=1 n=a#3 v=64
57148 Par ch=1 c=64 v=40
57152 Par ch=1 c=64 v=72
57156 Par ch=1 c=64 v=127
57163 On ch=1 n=a#3 v=0
57166 On ch=1 n=d#4 v=0
57166 On ch=1 n=d#5 v=0
57174 On ch=1 n=c#6 v=85
57175 On ch=1 n=g4 v=68
57175 On ch=1 n=e5 v=82
57192 On ch=1 n=g4 v=0
57193 On ch=1 n=e5 v=0
57199 On ch=1 n=c#6 v=0
57202 Par ch=1 c=64 v=104
57204 On ch=1 n=d#4 v=40
57205 On ch=1 n=d#5 v=81
57206 Par ch=1 c=64 v=56
57208 On ch=1 n=b3 v=60
57210 Par ch=1 c=64 v=0
57220 Par ch=1 c=64 v=72
57224 Par ch=1 c=64 v=104
57228 On ch=1 n=b3 v=0
57228 Par ch=1 c=64 v=127
57230 On ch=1 n=d#4 v=0
57232 On ch=1 n=d#5 v=0
57237 On ch=1 n=g#4 v=69
57239 On ch=1 n=b5 v=87
57241 On ch=1 n=g#5 v=64
57258 On ch=1 n=g#4 v=0
57260 On ch=1 n=b5 v=0
57262 On ch=1 n=g#5 v=0
57263 Par ch=1 c=64 v=88
57266 Par ch=1 c=64 v=24
57270 On ch=1 n=c#5 v=83
57270 Par ch=1 c=64 v=0
57275 On ch=1 n=e4 v=66
57277 On ch=1 n=c#4 v=51
57283 Par ch=1 c=64 v=24
57286 Par ch=1 c=64 v=72
57290 Par ch=1 c=64 v=127
57296 On ch=1 n=e4 v=0
57302 On ch=1 n=c#4 v=0
57304 On ch=1 n=a#5 v=84
57305 On ch=1 n=a#4 v=56
57305 On ch=1 n=e5 v=74
57307 On ch=1 n=c#5 v=0
57323 On ch=1 n=e5 v=0
57323 On ch=1 n=a#4 v=0
57327 On ch=1 n=a#5 v=0
57332 Par ch=1 c=64 v=88
57336 On ch=1 n=b4 v=88
57336 Par ch=1 c=64 v=0
57338 On ch=1 n=d#4 v=65
57358 Par ch=1 c=64 v=40
57363 Par ch=1 c=64 v=127
57365 On ch=1 n=b4 v=0
57367 On ch=1 n=d#4 v=0
57367 On ch=1 n=g#5 v=78
57369 On ch=1 n=g#4 v=57
57371 On ch=1 n=d#5 v=69
57382 On ch=1 n=g#4 v=0
57394 On ch=1 n=g#5 v=0
57394 Par ch=1 c=64 v=104
57395 On ch=1 n=d#5 v=0
57397 Par ch=1 c=64 v=40
57401 On ch=1 n=d#3 v=60
57402 Par ch=1 c=64 v=0
57402 On ch=1 n=a#4 v=79
57413 Par ch=1 c=64 v=40
57417 Par ch=1 c=64 v=88
57419 On ch=1 n=d#3 v=0
57421 Par ch=1 c=64 v=127
57428 On ch=1 n=a#4 v=0
57436 On ch=1 n=g5 v=72
57437 On ch=1 n=d#5 v=61
57440 On ch=1 n=g4 v=64
57455 On ch=1 n=g4 v=0
57456 On ch=1 n=g5 v=0
57458 On ch=1 n=d#5 v=0
57468 On ch=1 n=b4 v=77
57470 Par ch=1 c=64 v=88
57474 Par ch=1 c=64 v=0
57476 On ch=1 n=d#4 v=57
57477 On ch=1 n=g#3 v=50
57497 On ch=1 n=b4 v=0
57497 Par ch=1 c=64 v=56
57501 Par ch=1 c=64 v=127
57505 On ch=1 n=g#5 v=76
57506 On ch=1 n=g#3 v=0
57506 On ch=1 n=d#5 v=63
57509 On ch=1 n=g#4 v=61
57516 On ch=1 n=d#4 v=0
57517 On ch=1 n=d#5 v=0
57520 On ch=1 n=g#5 v=0
57520 On ch=1 n=g#4 v=0
57546 On ch=1 n=b4 v=40
57548 On ch=1 n=c#4 v=77
57549 Par ch=1 c=64 v=104
57550 On ch=1 n=f5 v=40
57553 Par ch=1 c=64 v=127
57561 On ch=1 n=f5 v=0
57564 On ch=1 n=b4 v=0
57568 On ch=1 n=c#4 v=0
57576 On ch=1 n=g#5 v=46
57583 On ch=1 n=d#4 v=80
57596 On ch=1 n=g#5 v=0
57606 On ch=1 n=d#4 v=0
57610 Par ch=1 c=64 v=72
57612 On ch=1 n=a#4 v=53
57613 On ch=1 n=c#4 v=69
57615 Par ch=1 c=64 v=24
57617 On ch=1 n=c#5 v=44
57617 Par ch=1 c=64 v=0
57630 Par ch=1 c=64 v=40
57632 On ch=1 n=a#4 v=0
57634 On ch=1 n=c#4 v=0
57634 Par ch=1 c=64 v=72
57636 On ch=1 n=c#5 v=0
57637 Par ch=1 c=64 v=127
57647 On ch=1 n=f#3 v=68
57647 On ch=1 n=f#5 v=38
57664 On ch=1 n=f#5 v=0
57666 On ch=1 n=f#3 v=0
57672 Par ch=1 c=64 v=104
57676 Par ch=1 c=64 v=56
57680 Par ch=1 c=64 v=0
57681 On ch=1 n=a#3 v=85
57681 On ch=1 n=g#4 v=48
57689 On ch=1 n=d5 v=62
57689 On ch=1 n=a#4 v=32
57695 Par ch=1 c=64 v=40
57699 Par ch=1 c=64 v=72
57702 On ch=1 n=a#4 v=0
57702 On ch=1 n=d5 v=0
57702 On ch=1 n=g#4 v=0
57703 Par ch=1 c=64 v=104
57704 On ch=1 n=a#3 v=0
57706 Par ch=1 c=64 v=127
57711 On ch=1 n=f5 v=55
57715 On ch=1 n=b3 v=83
57726 On ch=1 n=f5 v=0
57737 Par ch=1 c=64 v=104
57738 On ch=1 n=b3 v=0
57741 Par ch=1 c=64 v=56
57744 Par ch=1 c=64 v=0
57745 On ch=1 n=f#4 v=61
57747 On ch=1 n=a#3 v=81
57750 On ch=1 n=a#4 v=37
57760 Par ch=1 c=64 v=40
57764 Par ch=1 c=64 v=88
57766 On ch=1 n=a#4 v=0
57767 On ch=1 n=a#3 v=0
57768 Par ch=1 c=64 v=127
57769 On ch=1 n=f#4 v=0
57778 On ch=1 n=d#5 v=52
57779 On ch=1 n=d#3 v=71
57792 On ch=1 n=d#5 v=0
57799 On ch=1 n=d#3 v=0
57802 Par ch=1 c=64 v=56
57806 Par ch=1 c=64 v=0
57812 On ch=1 n=f#3 v=85
57813 On ch=1 n=e4 v=62
57813 On ch=1 n=a#4 v=56
57818 On ch=1 n=f#4 v=49
57825 Par ch=1 c=64 v=40
57829 Par ch=1 c=64 v=88
57831 On ch=1 n=e4 v=0
57832 Par ch=1 c=64 v=127
57834 On ch=1 n=f#3 v=0
57836 On ch=1 n=a#4 v=0
57836 On ch=1 n=f#4 v=0
57842 On ch=1 n=c#5 v=57
57844 On ch=1 n=g#3 v=85
57859 On ch=1 n=c#5 v=0
57867 Par ch=1 c=64 v=56
57868 On ch=1 n=g#3 v=0
57871 Par ch=1 c=64 v=0
57875 On ch=1 n=f#3 v=83
57879 On ch=1 n=d#4 v=50
57883 Par ch=1 c=64 v=40
57887 Par ch=1 c=64 v=72
57889 On ch=1 n=d#4 v=0
57890 Par ch=1 c=64 v=104
57894 Par ch=1 c=64 v=127
57897 On ch=1 n=f#3 v=0
57904 On ch=1 n=b4 v=66
57906 On ch=1 n=b2 v=77
57924 On ch=1 n=b4 v=0
57928 On ch=1 n=b2 v=0
57929 Par ch=1 c=64 v=72
57933 Par ch=1 c=64 v=0
57939 On ch=1 n=d#3 v=86
57940 On ch=1 n=c#4 v=59
57943 On ch=1 n=d#4 v=55
57943 On ch=1 n=g4 v=54
57952 Par ch=1 c=64 v=40
57955 Par ch=1 c=64 v=88
57959 On ch=1 n=g4 v=0
57959 Par ch=1 c=64 v=127
57962 On ch=1 n=d#3 v=0
57962 On ch=1 n=c#4 v=0
57962 On ch=1 n=d#4 v=0
57970 On ch=1 n=a#4 v=61
57971 On ch=1 n=e3 v=85
57987 On ch=1 n=a#4 v=0
57994 Par ch=1 c=64 v=56
57997 On ch=1 n=e3 v=0
57998 Par ch=1 c=64 v=0
58003 On ch=1 n=d#3 v=77
58007 On ch=1 n=b3 v=62
58007 On ch=1 n=d#4 v=69
58017 Par ch=1 c=64 v=40
58021 Par ch=1 c=64 v=127
58027 On ch=1 n=b3 v=0
58029 On ch=1 n=d#4 v=0
58029 On ch=1 n=d#3 v=0
58036 On ch=1 n=g#4 v=65
58045 On ch=1 n=g#4 v=0
58082 Par ch=1 c=64 v=56
58086 Par ch=1 c=64 v=0
58091 On ch=1 n=a#5 v=91
58093 On ch=1 n=g#3 v=67
58093 On ch=1 n=d4 v=75
58098 On ch=1 n=b5 v=40
58100 Par ch=1 c=64 v=24
58104 Par ch=1 c=64 v=88
58106 On ch=1 n=b5 v=0
58108 On ch=1 n=a#5 v=0
58109 Par ch=1 c=64 v=127
58115 On ch=1 n=g#3 v=0
58119 On ch=1 n=d4 v=0
58125 On ch=1 n=b5 v=92
58126 On ch=1 n=d5 v=82
58128 On ch=1 n=a#4 v=57
58134 On ch=1 n=d5 v=0
58144 On ch=1 n=a#4 v=0
58144 On ch=1 n=b5 v=0
58159 Par ch=1 c=64 v=56
58161 On ch=1 n=a#5 v=96
58163 Par ch=1 c=64 v=0
58163 On ch=1 n=d#4 v=73
58167 On ch=1 n=f#3 v=65
58174 Par ch=1 c=64 v=72
58178 Par ch=1 c=64 v=127
58182 On ch=1 n=f#3 v=0
58182 On ch=1 n=a#5 v=0
58192 On ch=1 n=d#4 v=0
58196 On ch=1 n=d#5 v=92
58196 On ch=1 n=d#6 v=88
58198 On ch=1 n=a#4 v=67
58211 On ch=1 n=a#4 v=0
58211 On ch=1 n=d#5 v=0
58222 On ch=1 n=d#6 v=0
58227 Par ch=1 c=64 v=88
58231 On ch=1 n=c#4 v=57
58231 On ch=1 n=f3 v=74
58231 Par ch=1 c=64 v=0
58232 On ch=1 n=a#5 v=96
58235 On ch=1 n=d4 v=72
58238 On ch=1 n=f3 v=0
58239 Par ch=1 c=64 v=24
58242 On ch=1 n=c#4 v=0
58243 Par ch=1 c=64 v=72
58247 On ch=1 n=d4 v=0
58247 Par ch=1 c=64 v=127
58255 On ch=1 n=a#5 v=0
58266 On ch=1 n=g#6 v=99
58267 On ch=1 n=g#5 v=93
58267 On ch=1 n=a#4 v=67
58279 On ch=1 n=a#4 v=0
58282 On ch=1 n=g#5 v=0
58293 On ch=1 n=g#6 v=0
58301 Par ch=1 c=64 v=88
58303 On ch=1 n=f#3 v=67
58304 On ch=1 n=a#5 v=95
58304 Par ch=1 c=64 v=0
58304 On ch=1 n=a#3 v=62
58312 Par ch=1 c=64 v=24
58316 Par ch=1 c=64 v=72
58318 On ch=1 n=f#3 v=0
58319 Par ch=1 c=64 v=127
58328 On ch=1 n=a#3 v=0
58330 On ch=1 n=a#5 v=0
58338 On ch=1 n=f#6 v=92
58338 On ch=1 n=a#4 v=70
58340 On ch=1 n=f#5 v=86
58358 On ch=1 n=f#5 v=0
58361 On ch=1 n=a#4 v=0
58365 On ch=1 n=f#6 v=0
58373 Par ch=1 c=64 v=104
58377 On ch=1 n=b5 v=99
58377 On ch=1 n=d#4 v=71
58377 On ch=1 n=g#3 v=69
58377 Par ch=1 c=64 v=24
58381 Par ch=1 c=64 v=0
58389 Par ch=1 c=64 v=24
58392 Par ch=1 c=64 v=72
58396 Par ch=1 c=64 v=127
58398 On ch=1 n=g#3 v=0
58404 On ch=1 n=d#4 v=0
58411 On ch=1 n=b5 v=0
58413 On ch=1 n=b4 v=66
58413 On ch=1 n=f6 v=94
58416 On ch=1 n=g#5 v=79
58433 On ch=1 n=g#5 v=0
58436 On ch=1 n=b4 v=0
58438 On ch=1 n=f6 v=0
58449 Par ch=1 c=64 v=88
58453 Par ch=1 c=64 v=0
58455 On ch=1 n=a#5 v=91
58456 On ch=1 n=d#4 v=67
58458 On ch=1 n=a#3 v=69
58473 Par ch=1 c=64 v=40
58477 Par ch=1 c=64 v=127
58482 On ch=1 n=a#5 v=0
58494 On ch=1 n=d#6 v=90
58495 On ch=1 n=f#5 v=83
58497 On ch=1 n=a#4 v=69
58511 On ch=1 n=a#4 v=0
58514 On ch=1 n=d#4 v=0
58516 On ch=1 n=a#3 v=0
58521 On ch=1 n=f#5 v=0
58528 On ch=1 n=d#6 v=0
58541 On ch=1 n=a#5 v=97
58546 Par ch=1 c=64 v=24
58549 On ch=1 n=a#2 v=70
58550 Par ch=1 c=64 v=0
58565 Par ch=1 c=64 v=56
58569 Par ch=1 c=64 v=127
58583 On ch=1 n=a#5 v=0
58587 On ch=1 n=d6 v=92
58590 On ch=1 n=f5 v=84
58593 On ch=1 n=a#3 v=76
58611 On ch=1 n=f5 v=0
58620 On ch=1 n=a#2 v=0
58622 On ch=1 n=d6 v=0
58663 On ch=1 n=d#6 v=96
58664 On ch=1 n=f#5 v=84
58666 On ch=1 n=a#5 v=76
58670 On ch=1 n=d#3 v=72
58684 Par ch=1 c=64 v=24
58688 Par ch=1 c=64 v=0
58711 Par ch=1 c=64 v=127
58742 On ch=1 n=f#5 v=0
58742 On ch=1 n=d#6 v=0
58744 On ch=1 n=a#5 v=0
58747 On ch=1 n=d#3 v=0
58747 On ch=1 n=a#3 v=0
58875 Par ch=1 c=64 v=88
58879 Par ch=1 c=64 v=56
58883 Par ch=1 c=64 v=24
58887 Par ch=1 c=64 v=0
59210 On ch=1 n=c#6 v=85
59210 Par ch=1 c=64 v=127
59212 On ch=1 n=a#3 v=51
59245 On ch=1 n=a#3 v=0
59266 On ch=1 n=f4 v=60
59267 On ch=1 n=c#5 v=40
59285 On ch=1 n=f4 v=0
59286 On ch=1 n=c#5 v=0
59326 On ch=1 n=c#6 v=0
59326 On ch=1 n=c6 v=96
59330 On ch=1 n=d#4 v=45
59339 Par ch=1 c=64 v=40
59343 Par ch=1 c=64 v=0
59367 Par ch=1 c=64 v=72
59370 On ch=1 n=d#4 v=0
59372 Par ch=1 c=64 v=127
59375 On ch=1 n=f#4 v=48
59376 On ch=1 n=c5 v=51
59388 On ch=1 n=c5 v=0
59415 On ch=1 n=f#4 v=0
59425 On ch=1 n=c#6 v=95
59426 On ch=1 n=c#4 v=53
59428 Par ch=1 c=64 v=104
59432 Par ch=1 c=64 v=40
59435 On ch=1 n=c6 v=0
59436 Par ch=1 c=64 v=0
59448 Par ch=1 c=64 v=40
59452 Par ch=1 c=64 v=104
59456 Par ch=1 c=64 v=127
59464 On ch=1 n=c#4 v=0
59474 On ch=1 n=a#4 v=34
59475 On ch=1 n=f4 v=41
59502 On ch=1 n=a#4 v=0
59507 On ch=1 n=f4 v=0
59532 On ch=1 n=f6 v=89
59537 Par ch=1 c=64 v=56
59539 On ch=1 n=c#6 v=0
59539 On ch=1 n=c4 v=59
59541 Par ch=1 c=64 v=0
59561 Par ch=1 c=64 v=40
59564 On ch=1 n=c4 v=0
59565 Par ch=1 c=64 v=127
59586 On ch=1 n=d#6 v=84
59593 On ch=1 n=d#5 v=58
59596 On ch=1 n=f#4 v=50
59602 On ch=1 n=f6 v=0
59619 On ch=1 n=d#5 v=0
59624 On ch=1 n=f#4 v=0
59634 On ch=1 n=c#6 v=84
59638 Par ch=1 c=64 v=104
59642 Par ch=1 c=64 v=56
59643 On ch=1 n=d#4 v=53
59644 On ch=1 n=d#6 v=0
59649 Par ch=1 c=64 v=104
59654 Par ch=1 c=64 v=127
59666 On ch=1 n=c#6 v=0
59673 On ch=1 n=d#4 v=0
59680 On ch=1 n=c6 v=92
59684 On ch=1 n=f#4 v=51
59684 On ch=1 n=c5 v=54
59705 On ch=1 n=f#4 v=0
59707 On ch=1 n=c6 v=0
59715 On ch=1 n=c5 v=0
59732 On ch=1 n=a#5 v=85
59738 Par ch=1 c=64 v=24
59742 Par ch=1 c=64 v=0
59742 On ch=1 n=f4 v=49
59767 Par ch=1 c=64 v=56
59771 Par ch=1 c=64 v=127
59780 On ch=1 n=f4 v=0
59780 On ch=1 n=a#4 v=53
59781 On ch=1 n=c#5 v=44
59789 On ch=1 n=a#4 v=0
59794 On ch=1 n=c#5 v=0
59835 On ch=1 n=a#5 v=0
59839 On ch=1 n=a5 v=79
59843 On ch=1 n=f3 v=63
59844 Par ch=1 c=64 v=0
59852 On ch=1 n=f3 v=0
59864 Par ch=1 c=64 v=24
59868 Par ch=1 c=64 v=88
59872 Par ch=1 c=64 v=127
59895 On ch=1 n=a4 v=32
59896 On ch=1 n=c5 v=37
59949 On ch=1 n=a4 v=0
59955 On ch=1 n=c5 v=0
60013 On ch=1 n=c5 v=51
60015 On ch=1 n=f4 v=39
60027 On ch=1 n=c5 v=0
60032 On ch=1 n=f4 v=0
60077 On ch=1 n=a5 v=0
60096 On ch=1 n=c#6 v=84
60096 On ch=1 n=a#3 v=46
60102 Par ch=1 c=64 v=56
60106 Par ch=1 c=64 v=0
60134 Par ch=1 c=64 v=56
60138 On ch=1 n=a#3 v=0
60138 Par ch=1 c=64 v=127
60153 On ch=1 n=c#5 v=56
60154 On ch=1 n=f4 v=59
60172 On ch=1 n=f4 v=0
60184 On ch=1 n=c#5 v=0
60202 On ch=1 n=c#6 v=0
60202 On ch=1 n=c6 v=96
60209 On ch=1 n=d#4 v=57
60210 Par ch=1 c=64 v=56
60214 Par ch=1 c=64 v=0
60238 Par ch=1 c=64 v=72
60242 On ch=1 n=d#4 v=0
60243 Par ch=1 c=64 v=127
60250 On ch=1 n=c5 v=56
60254 On ch=1 n=f#4 v=38
60273 On ch=1 n=c5 v=0
60278 On ch=1 n=f#4 v=0
60300 On ch=1 n=c6 v=0
60300 On ch=1 n=c#4 v=47
60302 On ch=1 n=c#6 v=91
60315 Par ch=1 c=64 v=104
60319 Par ch=1 c=64 v=24
60323 Par ch=1 c=64 v=0
60338 On ch=1 n=c#4 v=0
60339 Par ch=1 c=64 v=56
60344 Par ch=1 c=64 v=127
60345 On ch=1 n=a#4 v=50
60346 On ch=1 n=f4 v=54
60371 On ch=1 n=f4 v=0
60377 On ch=1 n=a#4 v=0
60405 On ch=1 n=f6 v=93
60411 On ch=1 n=c4 v=58
60412 On ch=1 n=c#6 v=0
60412 Par ch=1 c=64 v=72
60416 Par ch=1 c=64 v=0
60437 On ch=1 n=c4 v=0
60440 Par ch=1 c=64 v=72
60444 Par ch=1 c=64 v=127
60460 On ch=1 n=d#6 v=80
60466 On ch=1 n=d#5 v=57
60468 On ch=1 n=f6 v=0
60470 On ch=1 n=f#4 v=48
60488 On ch=1 n=d#5 v=0
60492 On ch=1 n=f#4 v=0
60502 On ch=1 n=d#6 v=0
60507 On ch=1 n=c#6 v=87
60513 On ch=1 n=d#4 v=55
60534 On ch=1 n=c#6 v=0
60548 On ch=1 n=d#4 v=0
60552 On ch=1 n=c6 v=90
60559 On ch=1 n=f#4 v=35
60564 On ch=1 n=c5 v=24
60575 On ch=1 n=c5 v=0
60588 On ch=1 n=f#4 v=0
60603 On ch=1 n=c6 v=0
60605 On ch=1 n=a#5 v=83
60610 Par ch=1 c=64 v=24
60612 On ch=1 n=f4 v=44
60614 Par ch=1 c=64 v=0
60642 Par ch=1 c=64 v=88
60646 Par ch=1 c=64 v=127
60654 On ch=1 n=a#5 v=0
60675 On ch=1 n=f4 v=0
60707 On ch=1 n=a5 v=83
60709 On ch=1 n=f3 v=59
60718 Par ch=1 c=64 v=88
60722 Par ch=1 c=64 v=0
60724 On ch=1 n=f3 v=0
60743 Par ch=1 c=64 v=40
60747 Par ch=1 c=64 v=127
60763 On ch=1 n=a4 v=55
60764 On ch=1 n=c5 v=47
60764 On ch=1 n=d#5 v=45
60766 On ch=1 n=f5 v=31
60773 On ch=1 n=a4 v=0
60775 On ch=1 n=c5 v=0
60794 On ch=1 n=f5 v=0
60809 On ch=1 n=d#5 v=0
60812 On ch=1 n=a5 v=0
60822 On ch=1 n=a#5 v=70
60826 On ch=1 n=a#3 v=42
60844 Par ch=1 c=64 v=56
60848 Par ch=1 c=64 v=0
60884 On ch=1 n=a#3 v=0
60884 Par ch=1 c=64 v=104
60885 On ch=1 n=c#5 v=45
60888 Par ch=1 c=64 v=127
60890 On ch=1 n=f4 v=54
60892 On ch=1 n=f5 v=43
60895 On ch=1 n=a#4 v=23
60900 On ch=1 n=f4 v=0
60904 On ch=1 n=f5 v=0
60904 On ch=1 n=c#5 v=0
60910 On ch=1 n=a#4 v=0
60921 On ch=1 n=a#5 v=0
60978 On ch=1 n=c6 v=92
60988 On ch=1 n=a#4 v=43
61001 Par ch=1 c=64 v=56
61005 Par ch=1 c=64 v=0
61024 On ch=1 n=a#4 v=0
61025 Par ch=1 c=64 v=24
61029 Par ch=1 c=64 v=88
61033 Par ch=1 c=64 v=127
61036 On ch=1 n=g5 v=52
61040 On ch=1 n=c5 v=45
61040 On ch=1 n=e5 v=44
61057 On ch=1 n=g5 v=0
61060 On ch=1 n=e5 v=0
61065 On ch=1 n=c5 v=0
61080 On ch=1 n=g#4 v=60
61082 Par ch=1 c=64 v=40
61086 Par ch=1 c=64 v=0
61098 Par ch=1 c=64 v=24
61102 Par ch=1 c=64 v=72
61106 Par ch=1 c=64 v=127
61121 On ch=1 n=g#4 v=0
61131 On ch=1 n=f5 v=60
61131 On ch=1 n=c5 v=60
61152 On ch=1 n=f5 v=0
61160 On ch=1 n=c5 v=0
61177 On ch=1 n=d6 v=90
61181 On ch=1 n=g4 v=60
61186 On ch=1 n=c6 v=0
61186 Par ch=1 c=64 v=72
61190 Par ch=1 c=64 v=0
61198 On ch=1 n=g4 v=0
61206 Par ch=1 c=64 v=56
61210 Par ch=1 c=64 v=104
61215 Par ch=1 c=64 v=127
61222 On ch=1 n=a#5 v=58
61225 On ch=1 n=e6 v=93
61226 On ch=1 n=e5 v=44
61234 On ch=1 n=d6 v=0
61234 On ch=1 n=c5 v=18
61235 On ch=1 n=e5 v=0
61237 On ch=1 n=a#5 v=0
61245 On ch=1 n=c5 v=0
61283 Par ch=1 c=64 v=88
61287 On ch=1 n=f6 v=80
61287 Par ch=1 c=64 v=0
61289 On ch=1 n=f4 v=38
61299 On ch=1 n=e6 v=0
61311 Par ch=1 c=64 v=88
61316 Par ch=1 c=64 v=127
61321 On ch=1 n=f4 v=0
61328 On ch=1 n=f6 v=0
61344 On ch=1 n=c5 v=49
61345 On ch=1 n=f5 v=41
61347 On ch=1 n=g#4 v=27
61353 On ch=1 n=c5 v=0
61355 On ch=1 n=f5 v=0
61357 On ch=1 n=g#4 v=0
61400 On ch=1 n=g#5 v=82
61404 On ch=1 n=f#4 v=56
61412 Par ch=1 c=64 v=40
61416 Par ch=1 c=64 v=0
61440 Par ch=1 c=64 v=40
61444 On ch=1 n=f#4 v=0
61444 Par ch=1 c=64 v=127
61452 On ch=1 n=g#4 v=46
61456 On ch=1 n=d#5 v=34
61457 On ch=1 n=c5 v=51
61469 On ch=1 n=c5 v=0
61476 On ch=1 n=d#5 v=0
61482 On ch=1 n=g#4 v=0
61500 Par ch=1 c=64 v=40
61504 On ch=1 n=f4 v=58
61505 Par ch=1 c=64 v=0
61517 Par ch=1 c=64 v=40
61521 Par ch=1 c=64 v=104
61525 Par ch=1 c=64 v=127
61529 On ch=1 n=f4 v=0
61549 On ch=1 n=f5 v=48
61552 On ch=1 n=g#4 v=38
61554 On ch=1 n=c#5 v=25
61563 On ch=1 n=c#5 v=0
61566 On ch=1 n=f5 v=0
61578 On ch=1 n=g#4 v=0
61599 On ch=1 n=a#5 v=82
61603 On ch=1 n=d#4 v=55
61606 Par ch=1 c=64 v=40
61610 On ch=1 n=g#5 v=0
61610 Par ch=1 c=64 v=0
61622 On ch=1 n=d#4 v=0
61626 Par ch=1 c=64 v=40
61630 Par ch=1 c=64 v=127
61645 On ch=1 n=f#5 v=38
61647 On ch=1 n=c6 v=90
61647 On ch=1 n=c5 v=50
61651 On ch=1 n=a#5 v=0
61653 On ch=1 n=g#4 v=29
61656 On ch=1 n=c5 v=0
61659 On ch=1 n=f#5 v=0
61663 On ch=1 n=g#4 v=0
61699 Par ch=1 c=64 v=104
61700 On ch=1 n=c#6 v=86
61703 Par ch=1 c=64 v=0
61703 On ch=1 n=c#4 v=64
61711 On ch=1 n=c6 v=0
61721 On ch=1 n=c#4 v=0
61723 Par ch=1 c=64 v=40
61727 Par ch=1 c=64 v=127
61744 On ch=1 n=c#6 v=0
61756 On ch=1 n=f5 v=62
61758 On ch=1 n=g#4 v=47
61776 On ch=1 n=f5 v=0
61779 On ch=1 n=g#4 v=0
61810 On ch=1 n=f6 v=93
61815 On ch=1 n=c6 v=74
61816 Par ch=1 c=64 v=24
61818 On ch=1 n=f4 v=59
61820 Par ch=1 c=64 v=0
61839 Par ch=1 c=64 v=24
61844 Par ch=1 c=64 v=104
61847 On ch=1 n=f4 v=0
61848 Par ch=1 c=64 v=127
61853 On ch=1 n=c6 v=0
61864 On ch=1 n=c#6 v=83
61864 On ch=1 n=f5 v=59
61864 On ch=1 n=d#5 v=46
61868 On ch=1 n=a4 v=41
61872 On ch=1 n=d#5 v=0
61872 On ch=1 n=f5 v=0
61878 On ch=1 n=a4 v=0
61913 On ch=1 n=a#5 v=71
61918 On ch=1 n=a#3 v=68
61920 On ch=1 n=c#6 v=0
61920 Par ch=1 c=64 v=104
61924 Par ch=1 c=64 v=0
61932 On ch=1 n=a#3 v=0
61941 Par ch=1 c=64 v=56
61945 Par ch=1 c=64 v=127
61965 On ch=1 n=f5 v=56
61966 On ch=1 n=c#5 v=42
61966 On ch=1 n=a#4 v=46
61984 On ch=1 n=a#5 v=0
61986 On ch=1 n=c#5 v=0
61988 On ch=1 n=f5 v=0
61992 On ch=1 n=a#4 v=0
62016 On ch=1 n=c6 v=84
62022 On ch=1 n=f4 v=63
62034 Par ch=1 c=64 v=56
62038 Par ch=1 c=64 v=0
62056 On ch=1 n=f4 v=0
62058 Par ch=1 c=64 v=56
62062 Par ch=1 c=64 v=127
62065 On ch=1 n=f5 v=63
62067 On ch=1 n=a4 v=55
62069 On ch=1 n=d#5 v=34
62075 On ch=1 n=f5 v=0
62077 On ch=1 n=d#5 v=0
62082 On ch=1 n=a4 v=0
62108 On ch=1 n=c6 v=0
62116 On ch=1 n=d#6 v=84
62124 On ch=1 n=a#3 v=63
62126 Par ch=1 c=64 v=24
62130 Par ch=1 c=64 v=0
62146 Par ch=1 c=64 v=40
62150 Par ch=1 c=64 v=127
62157 On ch=1 n=a#3 v=0
62164 On ch=1 n=f6 v=0
62170 On ch=1 n=c#6 v=86
62174 On ch=1 n=f4 v=56
62174 On ch=1 n=c#5 v=45
62181 On ch=1 n=d#6 v=0
62189 On ch=1 n=c#5 v=0
62194 On ch=1 n=f4 v=0
62201 On ch=1 n=c#6 v=0
62216 On ch=1 n=c6 v=92
62223 Par ch=1 c=64 v=88
62226 On ch=1 n=c#4 v=44
62227 Par ch=1 c=64 v=0
62243 Par ch=1 c=64 v=56
62247 Par ch=1 c=64 v=127
62261 On ch=1 n=c#4 v=0
62265 On ch=1 n=c6 v=0
62267 On ch=1 n=a#5 v=86
62271 On ch=1 n=f4 v=54
62272 On ch=1 n=a#4 v=26
62286 On ch=1 n=f4 v=0
62296 On ch=1 n=a#5 v=0
62307 On ch=1 n=a#4 v=0
62328 On ch=1 n=g#5 v=83
62336 On ch=1 n=f4 v=49
62352 Par ch=1 c=64 v=72
62356 Par ch=1 c=64 v=0
62384 Par ch=1 c=64 v=127
62385 On ch=1 n=f4 v=0
62387 On ch=1 n=c5 v=39
62390 On ch=1 n=g#4 v=34
62414 On ch=1 n=c5 v=0
62431 On ch=1 n=g#4 v=0
62431 On ch=1 n=g#5 v=0
62443 On ch=1 n=a#5 v=78
62447 On ch=1 n=g5 v=71
62451 On ch=1 n=c#4 v=53
62469 Par ch=1 c=64 v=24
62473 Par ch=1 c=64 v=0
62497 Par ch=1 c=64 v=88
62501 Par ch=1 c=64 v=127
62505 On ch=1 n=g5 v=0
62508 On ch=1 n=f5 v=71
62510 On ch=1 n=c#4 v=0
62520 On ch=1 n=g4 v=40
62520 On ch=1 n=a#4 v=27
62540 On ch=1 n=a#5 v=0
62576 On ch=1 n=c4 v=39
62593 On ch=1 n=c6 v=79
62602 Par ch=1 c=64 v=104
62606 Par ch=1 c=64 v=0
62638 On ch=1 n=g4 v=0
62638 Par ch=1 c=64 v=104
62642 On ch=1 n=a#4 v=0
62642 Par ch=1 c=64 v=127
62672 On ch=1 n=f5 v=0
62679 Par ch=1 c=64 v=88
62680 On ch=1 n=e5 v=55
62683 Par ch=1 c=64 v=0
62683 On ch=1 n=a#4 v=35
62689 On ch=1 n=g4 v=40
62707 Par ch=1 c=64 v=56
62710 On ch=1 n=g4 v=0
62711 Par ch=1 c=64 v=127
62714 On ch=1 n=a#4 v=0
62717 On ch=1 n=c4 v=0
62727 On ch=1 n=c6 v=0
62731 On ch=1 n=e5 v=0
62774 On ch=1 n=c6 v=82
62784 On ch=1 n=f3 v=60
62784 On ch=1 n=e3 v=49
62788 Par ch=1 c=64 v=24
62791 On ch=1 n=e3 v=0
62792 Par ch=1 c=64 v=0
62797 On ch=1 n=f3 v=0
62812 Par ch=1 c=64 v=72
62816 Par ch=1 c=64 v=127
62842 On ch=1 n=d#5 v=50
62844 On ch=1 n=a4 v=43
62846 On ch=1 n=f5 v=59
62847 On ch=1 n=f4 v=39
62865 On ch=1 n=a4 v=0
62872 On ch=1 n=f4 v=0
62881 On ch=1 n=c6 v=0
62890 On ch=1 n=f5 v=0
62894 On ch=1 n=d#5 v=0
62900 On ch=1 n=a#5 v=80
62901 On ch=1 n=a#3 v=56
62913 Par ch=1 c=64 v=56
62917 Par ch=1 c=64 v=0
62933 Par ch=1 c=64 v=40
62937 Par ch=1 c=64 v=127
62949 On ch=1 n=a#3 v=0
62951 On ch=1 n=a#4 v=37
62955 On ch=1 n=f4 v=54
62956 On ch=1 n=c#5 v=49
62956 On ch=1 n=f5 v=56
62962 On ch=1 n=a#5 v=0
62963 On ch=1 n=f4 v=0
62971 On ch=1 n=a#4 v=0
62986 On ch=1 n=c#5 v=0
63002 On ch=1 n=f5 v=0
63006 On ch=1 n=c6 v=88
63011 On ch=1 n=f3 v=39
63018 Par ch=1 c=64 v=72
63022 Par ch=1 c=64 v=0
63033 On ch=1 n=f3 v=0
63038 Par ch=1 c=64 v=24
63042 Par ch=1 c=64 v=88
63046 Par ch=1 c=64 v=127
63059 On ch=1 n=d#5 v=49
63060 On ch=1 n=f5 v=69
63064 On ch=1 n=a4 v=42
63064 On ch=1 n=f4 v=45
63068 On ch=1 n=c6 v=0
63076 On ch=1 n=a4 v=0
63077 On ch=1 n=f4 v=0
63081 On ch=1 n=d#5 v=0
63083 On ch=1 n=f5 v=0
63111 On ch=1 n=d#6 v=89
63118 On ch=1 n=a#3 v=52
63118 Par ch=1 c=64 v=88
63122 Par ch=1 c=64 v=0
63139 On ch=1 n=d#6 v=0
63139 Par ch=1 c=64 v=56
63143 Par ch=1 c=64 v=127
63155 On ch=1 n=a#3 v=0
63163 On ch=1 n=c#6 v=84
63167 On ch=1 n=c#5 v=56
63168 On ch=1 n=a#4 v=31
63171 On ch=1 n=f4 v=36
63186 On ch=1 n=c#5 v=0
63192 On ch=1 n=c#6 v=0
63192 On ch=1 n=f4 v=0
63195 On ch=1 n=a#4 v=0
63215 On ch=1 n=c6 v=87
63222 On ch=1 n=c#4 v=44
63232 Par ch=1 c=64 v=40
63236 Par ch=1 c=64 v=0
63246 On ch=1 n=c6 v=0
63248 Par ch=1 c=64 v=40
63252 Par ch=1 c=64 v=88
63256 Par ch=1 c=64 v=127
63260 On ch=1 n=c#4 v=0
63264 On ch=1 n=a#5 v=76
63269 On ch=1 n=c#5 v=56
63271 On ch=1 n=a#4 v=25
63273 On ch=1 n=f4 v=46
63290 On ch=1 n=c#5 v=0
63296 On ch=1 n=a#4 v=0
63300 On ch=1 n=a#5 v=0
63308 On ch=1 n=f4 v=0
63323 On ch=1 n=g#5 v=70
63325 On ch=1 n=c4 v=60
63343 On ch=1 n=c4 v=0
63353 Par ch=1 c=64 v=40
63356 Par ch=1 c=64 v=0
63382 On ch=1 n=f5 v=64
63385 Par ch=1 c=64 v=72
63389 Par ch=1 c=64 v=127
63389 On ch=1 n=c5 v=43
63399 On ch=1 n=g#5 v=0
63411 On ch=1 n=f5 v=0
63449 On ch=1 n=c5 v=0
63453 On ch=1 n=g5 v=72
63458 On ch=1 n=c3 v=44
63465 Par ch=1 c=64 v=40
63469 Par ch=1 c=64 v=0
63480 On ch=1 n=c3 v=0
63486 Par ch=1 c=64 v=72
63490 Par ch=1 c=64 v=127
63521 On ch=1 n=a#4 v=37
63523 On ch=1 n=c5 v=47
63525 On ch=1 n=e4 v=35
63548 On ch=1 n=e4 v=0
63567 On ch=1 n=g5 v=0
63586 On ch=1 n=a#4 v=0
63592 On ch=1 n=c5 v=0
63598 On ch=1 n=f5 v=62
63614 On ch=1 n=f3 v=24
63627 Par ch=1 c=64 v=72
63631 Par ch=1 c=64 v=0
63666 Par ch=1 c=64 v=127
63679 On ch=1 n=g#4 v=33
63684 On ch=1 n=c5 v=37
63687 On ch=1 n=f4 v=24
63687 On ch=1 n=c4 v=34
63697 On ch=1 n=f3 v=0
63709 On ch=1 n=g#4 v=0
63711 On ch=1 n=c5 v=0
63714 On ch=1 n=c4 v=0
63716 On ch=1 n=f4 v=0
63722 On ch=1 n=f5 v=0
63834 On ch=1 n=a#5 v=62
63848 On ch=1 n=g#3 v=32
63848 On ch=1 n=g#4 v=26
63860 Par ch=1 c=64 v=56
63864 Par ch=1 c=64 v=0
63897 Par ch=1 c=64 v=56
63901 Par ch=1 c=64 v=127
63914 On ch=1 n=d5 v=37
63918 On ch=1 n=f5 v=27
63934 On ch=1 n=d5 v=0
63935 On ch=1 n=f5 v=0
63953 On ch=1 n=a#5 v=0
63970 On ch=1 n=g#3 v=0
64023 On ch=1 n=d#6 v=78
64066 Par ch=1 c=64 v=40
64070 Par ch=1 c=64 v=0
64082 Par ch=1 c=64 v=24
64086 Par ch=1 c=64 v=88
64090 Par ch=1 c=64 v=127
64095 On ch=1 n=f#5 v=40
64096 On ch=1 n=a#5 v=45
64137 On ch=1 n=a#5 v=0
64155 On ch=1 n=f#5 v=0
64158 On ch=1 n=c#5 v=56
64220 On ch=1 n=f#5 v=39
64222 On ch=1 n=a#5 v=43
64261 On ch=1 n=c#5 v=0
64269 On ch=1 n=a#5 v=0
64271 On ch=1 n=c5 v=59
64276 On ch=1 n=f#5 v=0
64284 Par ch=1 c=64 v=56
64288 Par ch=1 c=64 v=0
64296 Par ch=1 c=64 v=40
64300 Par ch=1 c=64 v=88
64303 Par ch=1 c=64 v=127
64313 On ch=1 n=c5 v=0
64320 On ch=1 n=c5 v=19
64329 On ch=1 n=a#5 v=51
64330 On ch=1 n=f#5 v=37
64337 On ch=1 n=d#6 v=0
64364 On ch=1 n=g#4 v=0
64365 On ch=1 n=f#5 v=0
64398 On ch=1 n=c#6 v=76
64404 On ch=1 n=a#4 v=44
64405 On ch=1 n=c5 v=0
64425 Par ch=1 c=64 v=40
64429 Par ch=1 c=64 v=0
64441 Par ch=1 c=64 v=56
64445 Par ch=1 c=64 v=127
64456 On ch=1 n=c#5 v=50
64476 On ch=1 n=c#6 v=0
64504 On ch=1 n=c6 v=84
64505 On ch=1 n=c#5 v=0
64507 On ch=1 n=a#4 v=0
64509 On ch=1 n=g#4 v=49
64518 Par ch=1 c=64 v=88
64522 Par ch=1 c=64 v=0
64546 Par ch=1 c=64 v=56
64549 Par ch=1 c=64 v=127
64555 On ch=1 n=c#5 v=53
64560 On ch=1 n=a#5 v=0
64585 On ch=1 n=c6 v=0
64607 On ch=1 n=a#5 v=80
64609 On ch=1 n=c#5 v=0
64615 On ch=1 n=f#4 v=47
64627 On ch=1 n=g#4 v=0
64655 On ch=1 n=c#5 v=55
64708 On ch=1 n=g#5 v=77
64710 On ch=1 n=f#4 v=0
64714 On ch=1 n=c#5 v=0
64716 On ch=1 n=a#5 v=0
64718 On ch=1 n=f4 v=38
64750 On ch=1 n=c#5 v=53
64798 On ch=1 n=g#5 v=0
64799 On ch=1 n=c#5 v=0
64801 On ch=1 n=f4 v=0
64805 On ch=1 n=g5 v=77
64818 On ch=1 n=e4 v=47
64819 On ch=1 n=g#3 v=49
64840 Par ch=1 c=64 v=40
64845 Par ch=1 c=64 v=0
64854 On ch=1 n=c#5 v=46
64869 Par ch=1 c=64 v=56
64873 Par ch=1 c=64 v=127
64901 On ch=1 n=g5 v=0
64905 On ch=1 n=e4 v=0
64905 On ch=1 n=g#5 v=82
64913 On ch=1 n=c#5 v=0
64913 On ch=1 n=f4 v=53
64913 Par ch=1 c=64 v=88
64917 Par ch=1 c=64 v=0
64946 Par ch=1 c=64 v=88
64950 Par ch=1 c=64 v=127
64956 On ch=1 n=c#5 v=57
65008 On ch=1 n=a#5 v=79
65009 On ch=1 n=f4 v=0
65012 On ch=1 n=c#4 v=47
65014 Par ch=1 c=64 v=40
65016 On ch=1 n=c#5 v=0
65018 Par ch=1 c=64 v=0
65024 On ch=1 n=g#5 v=0
65033 Par ch=1 c=64 v=56
65037 Par ch=1 c=64 v=127
65060 On ch=1 n=c#5 v=59
65101 On ch=1 n=a#5 v=0
65105 On ch=1 n=c#5 v=0
65112 On ch=1 n=f#5 v=77
65113 On ch=1 n=c#4 v=0
65116 On ch=1 n=a#3 v=55
65123 Par ch=1 c=64 v=104
65127 Par ch=1 c=64 v=24
65131 Par ch=1 c=64 v=0
65155 Par ch=1 c=64 v=127
65163 On ch=1 n=c#5 v=46
65200 On ch=1 n=a#3 v=0
65200 On ch=1 n=f#5 v=0
65210 On ch=1 n=c#5 v=0
65213 On ch=1 n=g#5 v=70
65222 On ch=1 n=c4 v=43
65231 Par ch=1 c=64 v=24
65235 Par ch=1 c=64 v=0
65260 Par ch=1 c=64 v=56
65264 Par ch=1 c=64 v=127
65268 On ch=1 n=d#5 v=44
65295 On ch=1 n=g#5 v=0
65298 On ch=1 n=c4 v=0
65318 On ch=1 n=d#5 v=0
65324 On ch=1 n=f5 v=68
65325 On ch=1 n=c#4 v=37
65336 Par ch=1 c=64 v=104
65341 Par ch=1 c=64 v=24
65345 Par ch=1 c=64 v=0
65361 Par ch=1 c=64 v=40
65365 Par ch=1 c=64 v=104
65369 Par ch=1 c=64 v=127
65377 On ch=1 n=f5 v=0
65380 On ch=1 n=g#4 v=47
65426 On ch=1 n=g#4 v=0
65442 On ch=1 n=c#5 v=65
65446 On ch=1 n=f4 v=41
65458 Par ch=1 c=64 v=40
65462 Par ch=1 c=64 v=0
65478 Par ch=1 c=64 v=24
65481 Par ch=1 c=64 v=104
65485 Par ch=1 c=64 v=127
65498 On ch=1 n=g#4 v=39
65506 On ch=1 n=f4 v=0
65528 On ch=1 n=g#4 v=0
65565 On ch=1 n=c#5 v=0
65578 On ch=1 n=d#5 v=60
65580 On ch=1 n=g#4 v=36
65591 Par ch=1 c=64 v=72
65595 Par ch=1 c=64 v=0
65623 Par ch=1 c=64 v=104
65625 On ch=1 n=g#3 v=0
65627 On ch=1 n=g#4 v=0
65627 Par ch=1 c=64 v=127
65634 On ch=1 n=c#4 v=0
65665 On ch=1 n=g#4 v=34
65675 On ch=1 n=c5 v=38
65689 On ch=1 n=c5 v=0
65696 On ch=1 n=g#4 v=0
65703 On ch=1 n=d#5 v=0
65766 On ch=1 n=g#3 v=35
65792 On ch=1 n=a#5 v=79
65807 On ch=1 n=g#4 v=36
65808 Par ch=1 c=64 v=40
65812 Par ch=1 c=64 v=0
65841 Par ch=1 c=64 v=88
65845 Par ch=1 c=64 v=127
65866 On ch=1 n=d5 v=52
65870 On ch=1 n=f5 v=38
65880 On ch=1 n=f5 v=0
65882 On ch=1 n=d5 v=0
65896 On ch=1 n=a#5 v=0
65956 On ch=1 n=d#6 v=87
65966 Par ch=1 c=64 v=72
65970 Par ch=1 c=64 v=0
65986 Par ch=1 c=64 v=40
65990 Par ch=1 c=64 v=127
66012 On ch=1 n=g#3 v=0
66022 On ch=1 n=a#5 v=51
66024 On ch=1 n=f#5 v=40
66093 On ch=1 n=f#5 v=0
66098 On ch=1 n=c#5 v=68
66102 On ch=1 n=a#5 v=0
66161 On ch=1 n=a#5 v=44
66162 On ch=1 n=f#5 v=34
66198 On ch=1 n=a#5 v=0
66206 On ch=1 n=c#5 v=0
66211 On ch=1 n=f#5 v=0
66218 On ch=1 n=c5 v=66
66252 Par ch=1 c=64 v=24
66256 Par ch=1 c=64 v=0
66264 Par ch=1 c=64 v=40
66268 On ch=1 n=a#5 v=46
66268 Par ch=1 c=64 v=127
66270 On ch=1 n=f#5 v=36
66293 On ch=1 n=d#6 v=0
66322 On ch=1 n=f#5 v=0
66326 On ch=1 n=c5 v=0
66331 On ch=1 n=c#6 v=77
66336 On ch=1 n=a#4 v=42
66337 On ch=1 n=g#4 v=0
66345 Par ch=1 c=64 v=56
66349 Par ch=1 c=64 v=0
66357 Par ch=1 c=64 v=56
66361 Par ch=1 c=64 v=127
66386 On ch=1 n=c#5 v=49
66413 On ch=1 n=c#6 v=0
66434 On ch=1 n=c#5 v=0
66438 On ch=1 n=c6 v=82
66440 On ch=1 n=a#4 v=0
66440 On ch=1 n=g#4 v=47
66450 Par ch=1 c=64 v=88
66454 Par ch=1 c=64 v=0
66474 Par ch=1 c=64 v=56
66478 Par ch=1 c=64 v=127
66487 On ch=1 n=c#5 v=51
66488 On ch=1 n=a#5 v=0
66512 On ch=1 n=c6 v=0
66537 On ch=1 n=a#5 v=78
66544 On ch=1 n=c#5 v=0
66544 On ch=1 n=f#4 v=53
66553 On ch=1 n=g#4 v=0
66585 On ch=1 n=c#5 v=58
66634 On ch=1 n=a#5 v=0
66636 On ch=1 n=c#5 v=0
66639 On ch=1 n=g#5 v=73
66640 On ch=1 n=f#4 v=0
66648 On ch=1 n=f4 v=54
66659 Par ch=1 c=64 v=88
66663 Par ch=1 c=64 v=40
66667 Par ch=1 c=64 v=24
66680 Par ch=1 c=64 v=127
66686 On ch=1 n=c#5 v=56
66731 On ch=1 n=g#5 v=0
66734 On ch=1 n=c#5 v=0
66737 On ch=1 n=f4 v=0
66740 On ch=1 n=g5 v=77
66748 On ch=1 n=e4 v=42
66750 On ch=1 n=g#3 v=33
66759 Par ch=1 c=64 v=40
66764 Par ch=1 c=64 v=0
66790 On ch=1 n=c#5 v=59
66792 Par ch=1 c=64 v=56
66796 Par ch=1 c=64 v=127
66837 On ch=1 n=g5 v=0
66839 On ch=1 n=e4 v=0
66839 On ch=1 n=g#5 v=80
66844 On ch=1 n=f4 v=53
66847 On ch=1 n=c#5 v=0
66849 Par ch=1 c=64 v=104
66853 Par ch=1 c=64 v=24
66856 Par ch=1 c=64 v=0
66873 Par ch=1 c=64 v=72
66877 Par ch=1 c=64 v=127
66887 On ch=1 n=c#5 v=54
66944 On ch=1 n=a#5 v=77
66945 On ch=1 n=f4 v=0
66946 Par ch=1 c=64 v=56
66947 On ch=1 n=c#5 v=0
66947 On ch=1 n=c#4 v=50
66950 Par ch=1 c=64 v=0
66956 On ch=1 n=g#5 v=0
66966 Par ch=1 c=64 v=24
66970 Par ch=1 c=64 v=88
66974 Par ch=1 c=64 v=127
66994 On ch=1 n=c#5 v=35
67016 On ch=1 n=a#5 v=0
67042 On ch=1 n=c#5 v=0
67044 On ch=1 n=f#5 v=69
67050 On ch=1 n=c#4 v=0
67054 On ch=1 n=a#3 v=47
67059 Par ch=1 c=64 v=104
67063 Par ch=1 c=64 v=24
67067 Par ch=1 c=64 v=0
67097 On ch=1 n=c#5 v=50
67098 Par ch=1 c=64 v=127
67138 On ch=1 n=a#3 v=0
67145 On ch=1 n=f#5 v=0
67149 On ch=1 n=c#5 v=0
67151 On ch=1 n=g#5 v=64
67161 On ch=1 n=c4 v=37
67172 Par ch=1 c=64 v=40
67176 Par ch=1 c=64 v=0
67188 Par ch=1 c=64 v=24
67192 Par ch=1 c=64 v=88
67195 Par ch=1 c=64 v=127
67209 On ch=1 n=d#5 v=51
67229 On ch=1 n=g#5 v=0
67263 On ch=1 n=d#5 v=0
67266 On ch=1 n=c4 v=0
67268 On ch=1 n=f5 v=70
67272 Par ch=1 c=64 v=104
67273 On ch=1 n=c#4 v=49
67276 Par ch=1 c=64 v=40
67280 On ch=1 n=g#3 v=0
67280 Par ch=1 c=64 v=0
67292 Par ch=1 c=64 v=56
67296 Par ch=1 c=64 v=127
67327 On ch=1 n=f5 v=0
67335 On ch=1 n=g#4 v=45
67398 On ch=1 n=g#4 v=0
67402 On ch=1 n=a#4 v=61
67410 On ch=1 n=g#3 v=31
67418 On ch=1 n=c#4 v=0
67426 Par ch=1 c=64 v=88
67430 Par ch=1 c=64 v=0
67454 Par ch=1 c=64 v=56
67458 Par ch=1 c=64 v=127
67479 On ch=1 n=f#4 v=35
67480 On ch=1 n=c#5 v=44
67499 On ch=1 n=a#4 v=0
67515 On ch=1 n=c#5 v=0
67526 On ch=1 n=f#4 v=0
67576 On ch=1 n=c#5 v=59
67579 On ch=1 n=g#3 v=0
67585 On ch=1 n=f4 v=38
67586 On ch=1 n=g#4 v=25
67586 On ch=1 n=c#4 v=31
67596 On ch=1 n=c#3 v=25
67615 Par ch=1 c=64 v=56
67619 Par ch=1 c=64 v=0
67652 Par ch=1 c=64 v=88
67656 Par ch=1 c=64 v=127
67662 On ch=1 n=c#3 v=0
67668 On ch=1 n=f4 v=0
67670 On ch=1 n=c#4 v=0
67676 On ch=1 n=g#4 v=0
67686 On ch=1 n=c#5 v=0
67780 On ch=1 n=b5 v=82
67792 On ch=1 n=g#4 v=26
67793 On ch=1 n=g#3 v=30
67809 Par ch=1 c=64 v=88
67813 Par ch=1 c=64 v=0
67841 Par ch=1 c=64 v=127
67852 On ch=1 n=d5 v=47
67852 On ch=1 n=f5 v=45
67863 On ch=1 n=d5 v=0
67865 On ch=1 n=f5 v=0
67877 On ch=1 n=b5 v=0
67937 On ch=1 n=f6 v=93
67962 On ch=1 n=g#3 v=0
68000 On ch=1 n=g#5 v=43
68002 On ch=1 n=b5 v=58
68046 On ch=1 n=b5 v=0
68054 On ch=1 n=b4 v=69
68065 On ch=1 n=g#5 v=0
68106 On ch=1 n=b5 v=54
68109 On ch=1 n=g#5 v=37
68121 On ch=1 n=f6 v=0
68155 On ch=1 n=b5 v=0
68162 On ch=1 n=g#5 v=0
68164 On ch=1 n=d#6 v=83
68166 On ch=1 n=a#4 v=56
68170 On ch=1 n=b4 v=0
68175 Par ch=1 c=64 v=56
68179 Par ch=1 c=64 v=0
68196 Par ch=1 c=64 v=40
68200 Par ch=1 c=64 v=88
68204 On ch=1 n=g#4 v=0
68204 Par ch=1 c=64 v=127
68220 On ch=1 n=a#5 v=57
68222 On ch=1 n=f5 v=58
68246 On ch=1 n=f5 v=0
68250 On ch=1 n=d#6 v=0
68257 On ch=1 n=a#5 v=0
68270 On ch=1 n=d6 v=86
68274 On ch=1 n=g#4 v=53
68276 On ch=1 n=a#4 v=0
68314 On ch=1 n=d6 v=0
68321 On ch=1 n=a#5 v=69
68324 On ch=1 n=f5 v=60
68350 On ch=1 n=f5 v=0
68379 On ch=1 n=a#5 v=0
68382 On ch=1 n=d#6 v=84
68390 Par ch=1 c=64 v=72
68392 On ch=1 n=f#4 v=49
68394 Par ch=1 c=64 v=0
68400 On ch=1 n=g#4 v=0
68418 Par ch=1 c=64 v=72
68421 Par ch=1 c=64 v=127
68438 On ch=1 n=d#5 v=52
68438 On ch=1 n=f#5 v=60
68464 On ch=1 n=d#6 v=0
68473 On ch=1 n=d#5 v=0
68475 On ch=1 n=f#5 v=0
68485 On ch=1 n=f#4 v=0
68485 On ch=1 n=a#5 v=81
68491 On ch=1 n=f4 v=60
68537 On ch=1 n=d#5 v=50
68537 On ch=1 n=f#5 v=58
68576 On ch=1 n=f4 v=0
68580 On ch=1 n=d#5 v=0
68585 On ch=1 n=d#4 v=65
68592 On ch=1 n=f#5 v=0
68630 On ch=1 n=a#5 v=0
68636 On ch=1 n=f#5 v=60
68638 On ch=1 n=d#5 v=51
68675 On ch=1 n=d#5 v=0
68682 On ch=1 n=f#5 v=0
68696 On ch=1 n=a5 v=88
68712 Par ch=1 c=64 v=104
68714 On ch=1 n=c#4 v=49
68715 Par ch=1 c=64 v=0
68724 On ch=1 n=d#4 v=0
68744 Par ch=1 c=64 v=104
68748 Par ch=1 c=64 v=127
68756 On ch=1 n=f#5 v=73
68776 On ch=1 n=c#4 v=0
68779 On ch=1 n=a5 v=0
68781 On ch=1 n=f#5 v=0
68824 On ch=1 n=c4 v=48
68829 On ch=1 n=g#3 v=31
68845 On ch=1 n=d#6 v=89
68857 Par ch=1 c=64 v=88
68861 Par ch=1 c=64 v=0
68890 Par ch=1 c=64 v=127
68905 On ch=1 n=a5 v=68
68911 On ch=1 n=f#5 v=40
68946 On ch=1 n=a5 v=0
68952 On ch=1 n=a4 v=70
68954 On ch=1 n=f#5 v=0
69004 On ch=1 n=a5 v=74
69004 On ch=1 n=f#5 v=60
69027 On ch=1 n=a4 v=0
69039 On ch=1 n=d#6 v=0
69053 On ch=1 n=a5 v=0
69053 On ch=1 n=f#5 v=0
69058 On ch=1 n=c#6 v=85
69068 On ch=1 n=g#4 v=50
69087 Par ch=1 c=64 v=40
69091 Par ch=1 c=64 v=0
69112 On ch=1 n=g#5 v=69
69114 On ch=1 n=d#5 v=56
69116 Par ch=1 c=64 v=104
69120 Par ch=1 c=64 v=127
69130 On ch=1 n=g#4 v=0
69154 On ch=1 n=c#6 v=0
69155 On ch=1 n=d#5 v=0
69164 On ch=1 n=g#5 v=0
69166 On ch=1 n=c6 v=90
69172 On ch=1 n=f#4 v=42
69212 On ch=1 n=g#5 v=65
69214 On ch=1 n=d#5 v=51
69238 On ch=1 n=c6 v=0
69240 On ch=1 n=g#3 v=0
69250 On ch=1 n=f#4 v=0
69258 On ch=1 n=d#5 v=0
69286 On ch=1 n=c#6 v=80
69291 On ch=1 n=f4 v=49
69302 On ch=1 n=g#3 v=44
69305 Par ch=1 c=64 v=104
69308 On ch=1 n=g#5 v=0
69309 Par ch=1 c=64 v=24
69310 On ch=1 n=c4 v=0
69313 Par ch=1 c=64 v=0
69333 Par ch=1 c=64 v=40
69337 Par ch=1 c=64 v=104
69341 Par ch=1 c=64 v=127
69350 On ch=1 n=c#5 v=31
69352 On ch=1 n=g#5 v=47
69366 On ch=1 n=c#6 v=0
69378 On ch=1 n=g#5 v=0
69400 On ch=1 n=g#5 v=83
69408 On ch=1 n=c#5 v=0
69411 On ch=1 n=f4 v=0
69417 On ch=1 n=d#4 v=34
69449 On ch=1 n=c#5 v=40
69450 On ch=1 n=f5 v=59
69489 On ch=1 n=d#4 v=0
69498 On ch=1 n=c#4 v=63
69503 On ch=1 n=f5 v=0
69507 Par ch=1 c=64 v=72
69511 Par ch=1 c=64 v=0
69514 On ch=1 n=c#5 v=0
69519 Par ch=1 c=64 v=24
69523 Par ch=1 c=64 v=72
69527 Par ch=1 c=64 v=127
69550 On ch=1 n=f5 v=63
69554 On ch=1 n=c#5 v=39
69560 On ch=1 n=g#5 v=0
69573 On ch=1 n=c#4 v=0
69599 On ch=1 n=f5 v=0
69606 On ch=1 n=g#5 v=77
69615 On ch=1 n=c#5 v=0
69615 On ch=1 n=c4 v=62
69615 Par ch=1 c=64 v=104
69620 Par ch=1 c=64 v=24
69624 Par ch=1 c=64 v=0
69632 Par ch=1 c=64 v=40
69636 Par ch=1 c=64 v=104
69639 Par ch=1 c=64 v=127
69662 On ch=1 n=f5 v=64
69662 On ch=1 n=c#5 v=44
69664 On ch=1 n=c4 v=0
69665 On ch=1 n=g#3 v=0
69689 On ch=1 n=g#5 v=0
69698 On ch=1 n=f5 v=0
69703 On ch=1 n=c#5 v=0
69713 On ch=1 n=g5 v=83
69717 On ch=1 n=a#3 v=52
69728 Par ch=1 c=64 v=88
69730 On ch=1 n=g#3 v=23
69732 Par ch=1 c=64 v=0
69761 Par ch=1 c=64 v=56
69763 On ch=1 n=d#5 v=60
69765 Par ch=1 c=64 v=127
69765 On ch=1 n=c#5 v=46
69798 On ch=1 n=g5 v=0
69812 On ch=1 n=d#5 v=0
69814 On ch=1 n=g#5 v=80
69817 On ch=1 n=a#3 v=0
69821 On ch=1 n=c#5 v=0
69821 Par ch=1 c=64 v=104
69824 On ch=1 n=c4 v=56
69825 Par ch=1 c=64 v=40
69829 Par ch=1 c=64 v=0
69842 Par ch=1 c=64 v=104
69846 Par ch=1 c=64 v=127
69860 On ch=1 n=d#5 v=60
69862 On ch=1 n=c#5 v=48
69879 On ch=1 n=g#5 v=0
69906 On ch=1 n=c#5 v=0
69912 On ch=1 n=a#5 v=85
69920 On ch=1 n=d#5 v=0
69920 On ch=1 n=c#4 v=65
69921 On ch=1 n=c4 v=0
69926 Par ch=1 c=64 v=72
69929 Par ch=1 c=64 v=0
69942 Par ch=1 c=64 v=56
69946 Par ch=1 c=64 v=127
69962 On ch=1 n=c#5 v=37
69963 On ch=1 n=d#5 v=48
69972 On ch=1 n=a#5 v=0
69996 On ch=1 n=c#5 v=0
70008 On ch=1 n=c6 v=88
70015 On ch=1 n=d#4 v=68
70019 Par ch=1 c=64 v=56
70022 Par ch=1 c=64 v=0
70031 Par ch=1 c=64 v=56
70035 Par ch=1 c=64 v=127
70052 On ch=1 n=c6 v=0
70054 On ch=1 n=c#5 v=59
70079 On ch=1 n=d#4 v=0
70085 On ch=1 n=c#4 v=0
70090 On ch=1 n=g#3 v=0
70092 On ch=1 n=c#5 v=0
70108 On ch=1 n=g#5 v=77
70110 On ch=1 n=e4 v=56
70112 On ch=1 n=g#3 v=34
70123 Par ch=1 c=64 v=104
70128 Par ch=1 c=64 v=0
70156 Par ch=1 c=64 v=127
70161 On ch=1 n=c5 v=66
70172 On ch=1 n=e4 v=0
70208 On ch=1 n=c5 v=0
70210 On ch=1 n=f4 v=75
70261 On ch=1 n=c5 v=61
70262 On ch=1 n=f4 v=0
70309 On ch=1 n=c5 v=0
70318 On ch=1 n=g4 v=68
70321 Par ch=1 c=64 v=56
70326 Par ch=1 c=64 v=0
70346 Par ch=1 c=64 v=104
70350 Par ch=1 c=64 v=127
70370 On ch=1 n=g#3 v=0
70384 On ch=1 n=g4 v=0
70385 On ch=1 n=d#5 v=0
70386 On ch=1 n=g#5 v=0
70390 On ch=1 n=c5 v=55
70426 On ch=1 n=f3 v=48
70445 On ch=1 n=c5 v=0
70464 On ch=1 n=d#5 v=73
70468 On ch=1 n=g#4 v=49
70487 Par ch=1 c=64 v=24
70491 Par ch=1 c=64 v=0
70511 Par ch=1 c=64 v=56
70514 Par ch=1 c=64 v=127
70530 On ch=1 n=g#4 v=0
70532 On ch=1 n=b4 v=47
70561 On ch=1 n=b4 v=0
70571 On ch=1 n=f3 v=0
70584 On ch=1 n=d#5 v=0
70590 On ch=1 n=d5 v=78
70600 On ch=1 n=f4 v=38
70601 On ch=1 n=a#3 v=45
70620 Par ch=1 c=64 v=0
70644 On ch=1 n=g#4 v=35
70648 Par ch=1 c=64 v=104
70649 On ch=1 n=a#4 v=43
70652 Par ch=1 c=64 v=127
70670 On ch=1 n=f4 v=0
70688 On ch=1 n=d5 v=0
70693 On ch=1 n=g#4 v=0
70695 On ch=1 n=a#4 v=0
70700 On ch=1 n=d#5 v=67
70709 On ch=1 n=c4 v=48
70721 Par ch=1 c=64 v=88
70725 Par ch=1 c=64 v=0
70741 Par ch=1 c=64 v=40
70745 Par ch=1 c=64 v=127
70750 On ch=1 n=g#4 v=44
70787 On ch=1 n=d#5 v=0
70799 On ch=1 n=c4 v=0
70801 On ch=1 n=g#4 v=0
70807 On ch=1 n=f5 v=70
70809 Par ch=1 c=64 v=72
70814 Par ch=1 c=64 v=0
70815 On ch=1 n=d4 v=51
70834 Par ch=1 c=64 v=88
70838 Par ch=1 c=64 v=127
70840 On ch=1 n=a#3 v=0
70843 On ch=1 n=d4 v=0
70860 On ch=1 n=f5 v=0
70863 On ch=1 n=g#4 v=43
70892 On ch=1 n=a#2 v=64
70900 On ch=1 n=g#4 v=0
70909 On ch=1 n=a#2 v=0
70935 On ch=1 n=g5 v=73
70944 On ch=1 n=d4 v=43
70985 On ch=1 n=g5 v=0
70993 On ch=1 n=g#4 v=53
71011 On ch=1 n=d4 v=0
71040 On ch=1 n=g#4 v=0
71053 On ch=1 n=d#5 v=65
71062 On ch=1 n=d#4 v=39
71064 On ch=1 n=d#3 v=40
71076 Par ch=1 c=64 v=104
71080 Par ch=1 c=64 v=0
71108 Par ch=1 c=64 v=88
71112 Par ch=1 c=64 v=127
71121 On ch=1 n=g4 v=62
71168 On ch=1 n=d#3 v=0
71184 On ch=1 n=f3 v=43
71184 Par ch=1 c=64 v=56
71188 Par ch=1 c=64 v=0
71192 On ch=1 n=g4 v=0
71200 Par ch=1 c=64 v=72
71205 Par ch=1 c=64 v=127
71246 On ch=1 n=d#5 v=0
71254 On ch=1 n=g#4 v=58
71262 On ch=1 n=c#5 v=47
71281 Par ch=1 c=64 v=72
71285 Par ch=1 c=64 v=0
71314 Par ch=1 c=64 v=127
71322 On ch=1 n=f3 v=0
71333 On ch=1 n=g3 v=41
71345 On ch=1 n=c#5 v=0
71349 On ch=1 n=g#4 v=0
71420 On ch=1 n=a#4 v=54
71430 On ch=1 n=c#5 v=28
71446 Par ch=1 c=64 v=72
71451 Par ch=1 c=64 v=0
71471 Par ch=1 c=64 v=56
71475 Par ch=1 c=64 v=127
71483 On ch=1 n=a#4 v=0
71487 On ch=1 n=c#5 v=0
71488 On ch=1 n=g3 v=0
71498 On ch=1 n=d#4 v=0
71599 On ch=1 n=g#3 v=38
71624 On ch=1 n=a#5 v=70
71636 On ch=1 n=g#4 v=35
71644 Par ch=1 c=64 v=56
71647 Par ch=1 c=64 v=0
71672 Par ch=1 c=64 v=40
71676 Par ch=1 c=64 v=127
71698 On ch=1 n=d5 v=44
71704 On ch=1 n=f5 v=33
71717 On ch=1 n=f5 v=0
71717 On ch=1 n=d5 v=0
71731 On ch=1 n=g#3 v=0
71734 On ch=1 n=a#5 v=0
71802 On ch=1 n=d#6 v=78
71845 Par ch=1 c=64 v=104
71849 Par ch=1 c=64 v=0
71867 On ch=1 n=f#5 v=42
71870 Par ch=1 c=64 v=88
71874 Par ch=1 c=64 v=127
71876 On ch=1 n=a#5 v=38
71934 On ch=1 n=c#5 v=65
71938 On ch=1 n=a#5 v=0
71957 On ch=1 n=f#5 v=0
72012 On ch=1 n=f#5 v=44
72018 On ch=1 n=a#5 v=36
72057 On ch=1 n=c#5 v=0
72068 On ch=1 n=a#5 v=0
72079 On ch=1 n=c5 v=64
72095 On ch=1 n=f#5 v=0
72112 Par ch=1 c=64 v=88
72116 Par ch=1 c=64 v=0
72132 Par ch=1 c=64 v=40
72136 Par ch=1 c=64 v=127
72158 On ch=1 n=a#5 v=53
72159 On ch=1 n=f#5 v=43
72171 On ch=1 n=d#6 v=0
72174 On ch=1 n=g#4 v=0
72192 On ch=1 n=f#5 v=0
72225 On ch=1 n=c#6 v=80
72230 On ch=1 n=c5 v=0
72230 On ch=1 n=a#4 v=47
72245 Par ch=1 c=64 v=72
72249 Par ch=1 c=64 v=0
72261 Par ch=1 c=64 v=72
72265 Par ch=1 c=64 v=127
72283 On ch=1 n=c#5 v=55
72291 On ch=1 n=c#6 v=0
72338 On ch=1 n=c6 v=82
72340 On ch=1 n=c#5 v=0
72343 On ch=1 n=g#4 v=57
72348 On ch=1 n=a#4 v=0
72358 Par ch=1 c=64 v=72
72362 Par ch=1 c=64 v=0
72374 Par ch=1 c=64 v=24
72378 Par ch=1 c=64 v=72
72382 Par ch=1 c=64 v=127
72393 On ch=1 n=a#5 v=0
72397 On ch=1 n=c#5 v=51
72424 On ch=1 n=c6 v=0
72447 On ch=1 n=a#5 v=76
72452 On ch=1 n=g#4 v=0
72453 On ch=1 n=f#4 v=46
72455 On ch=1 n=c#5 v=0
72459 Par ch=1 c=64 v=104
72463 Par ch=1 c=64 v=40
72467 Par ch=1 c=64 v=0
72475 Par ch=1 c=64 v=56
72479 Par ch=1 c=64 v=127
72496 On ch=1 n=c#5 v=55
72541 On ch=1 n=a#5 v=0
72548 On ch=1 n=f#4 v=0
72549 On ch=1 n=c#5 v=0
72549 On ch=1 n=g#5 v=71
72554 On ch=1 n=f4 v=61
72560 Par ch=1 c=64 v=72
72564 Par ch=1 c=64 v=0
72576 Par ch=1 c=64 v=104
72580 Par ch=1 c=64 v=127
72598 On ch=1 n=c#5 v=49
72634 On ch=1 n=g#5 v=0
72641 On ch=1 n=c#5 v=0
72642 On ch=1 n=f4 v=0
72651 On ch=1 n=g5 v=82
72659 On ch=1 n=e4 v=36
72660 On ch=1 n=g#3 v=35
72664 Par ch=1 c=64 v=72
72668 Par ch=1 c=64 v=0
72697 Par ch=1 c=64 v=88
72701 Par ch=1 c=64 v=127
72703 On ch=1 n=c#5 v=59
72721 On ch=1 n=g5 v=0
72746 On ch=1 n=e4 v=0
72750 On ch=1 n=g#5 v=75
72752 On ch=1 n=f4 v=58
72755 On ch=1 n=c#5 v=0
72757 Par ch=1 c=64 v=72
72761 Par ch=1 c=64 v=0
72781 Par ch=1 c=64 v=40
72786 Par ch=1 c=64 v=127
72798 On ch=1 n=c#5 v=56
72849 On ch=1 n=f4 v=0
72849 On ch=1 n=a#5 v=73
72850 Par ch=1 c=64 v=56
72852 On ch=1 n=c#4 v=50
72854 On ch=1 n=c#5 v=0
72854 Par ch=1 c=64 v=0
72860 On ch=1 n=g#5 v=0
72870 Par ch=1 c=64 v=56
72873 Par ch=1 c=64 v=127
72899 On ch=1 n=c#5 v=55
72920 On ch=1 n=a#5 v=0
72951 On ch=1 n=c#5 v=0
72951 On ch=1 n=f#5 v=76
72959 On ch=1 n=a#3 v=46
72961 On ch=1 n=c#4 v=0
72967 Par ch=1 c=64 v=40
72970 Par ch=1 c=64 v=0
72991 Par ch=1 c=64 v=72
72995 Par ch=1 c=64 v=127
73001 On ch=1 n=c#5 v=55
73046 On ch=1 n=f#5 v=0
73051 On ch=1 n=c#5 v=0
73051 On ch=1 n=g#5 v=67
73054 On ch=1 n=a#3 v=0
73059 On ch=1 n=c4 v=43
73064 Par ch=1 c=64 v=104
73067 Par ch=1 c=64 v=24
73072 Par ch=1 c=64 v=0
73084 Par ch=1 c=64 v=40
73088 Par ch=1 c=64 v=104
73092 Par ch=1 c=64 v=127
73104 On ch=1 n=d#5 v=51
73125 On ch=1 n=g#5 v=0
73151 On ch=1 n=d#5 v=0
73151 On ch=1 n=c4 v=0
73160 On ch=1 n=f5 v=66
73160 Par ch=1 c=64 v=72
73164 On ch=1 n=c#4 v=44
73164 Par ch=1 c=64 v=0
73177 Par ch=1 c=64 v=40
73181 Par ch=1 c=64 v=104
73185 Par ch=1 c=64 v=127
73202 On ch=1 n=f5 v=0
73216 On ch=1 n=g#4 v=57
73255 On ch=1 n=g#4 v=0
73270 Par ch=1 c=64 v=88
73274 Par ch=1 c=64 v=0
73274 On ch=1 n=c#5 v=64
73278 On ch=1 n=f4 v=42
73294 Par ch=1 c=64 v=24
73298 Par ch=1 c=64 v=104
73302 Par ch=1 c=64 v=127
73313 On ch=1 n=f4 v=0
73332 On ch=1 n=c#5 v=0
73333 On ch=1 n=g#4 v=49
73368 On ch=1 n=c#4 v=0
73378 On ch=1 n=g#3 v=0
73386 On ch=1 n=g#4 v=0
73404 On ch=1 n=d#5 v=61
73407 Par ch=1 c=64 v=88
73410 Par ch=1 c=64 v=0
73431 Par ch=1 c=64 v=40
73435 Par ch=1 c=64 v=127
73483 On ch=1 n=g#4 v=29
73486 On ch=1 n=c5 v=49
73512 On ch=1 n=d#5 v=0
73532 On ch=1 n=c5 v=0
73568 On ch=1 n=g#4 v=0
73572 Par ch=1 c=64 v=104
73575 On ch=1 n=c#5 v=69
73576 Par ch=1 c=64 v=40
73580 Par ch=1 c=64 v=0
73584 Par ch=1 c=64 v=24
73588 Par ch=1 c=64 v=72
73592 Par ch=1 c=64 v=127
73599 On ch=1 n=c#4 v=34
73605 On ch=1 n=f4 v=17
73637 On ch=1 n=c#5 v=0
73642 On ch=1 n=g#4 v=46
73642 On ch=1 n=b4 v=60
73654 On ch=1 n=f4 v=0
73660 On ch=1 n=b4 v=0
73664 On ch=1 n=g#4 v=0
73701 On ch=1 n=f4 v=32
73737 Par ch=1 c=64 v=40
73739 On ch=1 n=b5 v=79
73741 Par ch=1 c=64 v=0
73758 Par ch=1 c=64 v=127
73782 On ch=1 n=f4 v=0
73795 On ch=1 n=c#4 v=0
73805 On ch=1 n=b4 v=59
73807 On ch=1 n=c#5 v=50
73855 On ch=1 n=c#5 v=0
73859 On ch=1 n=b4 v=0
73859 On ch=1 n=c#3 v=48
73898 On ch=1 n=b5 v=0
73904 On ch=1 n=b4 v=54
73904 On ch=1 n=c#5 v=56
73931 On ch=1 n=b4 v=0
73948 On ch=1 n=c#5 v=0
73950 On ch=1 n=a#5 v=87
73960 On ch=1 n=d#3 v=39
73965 On ch=1 n=c#3 v=0
73967 Par ch=1 c=64 v=40
73971 Par ch=1 c=64 v=0
73983 Par ch=1 c=64 v=72
73987 Par ch=1 c=64 v=127
74003 On ch=1 n=b4 v=53
74003 On ch=1 n=c#5 v=53
74012 On ch=1 n=a#5 v=0
74030 On ch=1 n=b4 v=0
74041 On ch=1 n=c#5 v=0
74047 On ch=1 n=a5 v=90
74048 On ch=1 n=d#3 v=0
74055 On ch=1 n=f3 v=49
74093 On ch=1 n=b4 v=45
74094 On ch=1 n=c#5 v=57
74109 On ch=1 n=a5 v=0
74130 On ch=1 n=b4 v=0
74155 On ch=1 n=f3 v=0
74161 On ch=1 n=c#5 v=0
74164 On ch=1 n=f#3 v=37
74167 On ch=1 n=a#5 v=85
74175 On ch=1 n=c#4 v=25
74188 Par ch=1 c=64 v=104
74192 Par ch=1 c=64 v=0
74217 Par ch=1 c=64 v=88
74221 Par ch=1 c=64 v=127
74224 On ch=1 n=a#4 v=52
74229 On ch=1 n=c#5 v=60
74230 On ch=1 n=a#5 v=0
74266 On ch=1 n=c#5 v=0
74266 On ch=1 n=c#4 v=0
74272 On ch=1 n=a#4 v=0
74281 On ch=1 n=d5 v=75
74296 On ch=1 n=d4 v=52
74318 On ch=1 n=a#4 v=33
74323 On ch=1 n=d5 v=0
74326 On ch=1 n=c#5 v=58
74337 On ch=1 n=d4 v=0
74370 On ch=1 n=a#4 v=0
74374 On ch=1 n=c#5 v=0
74376 On ch=1 n=d#5 v=76
74388 On ch=1 n=d#4 v=57
74391 Par ch=1 c=64 v=56
74395 Par ch=1 c=64 v=0
74411 Par ch=1 c=64 v=40
74415 Par ch=1 c=64 v=104
74419 Par ch=1 c=64 v=127
74426 On ch=1 n=a#4 v=42
74427 On ch=1 n=f#3 v=0
74430 On ch=1 n=c#5 v=54
74438 On ch=1 n=d#5 v=0
74466 On ch=1 n=a#4 v=0
74479 On ch=1 n=c#5 v=0
74494 On ch=1 n=d#5 v=95
74496 On ch=1 n=f#3 v=57
74496 Par ch=1 c=64 v=88
74500 Par ch=1 c=64 v=0
74512 Par ch=1 c=64 v=24
74516 Par ch=1 c=64 v=127
74538 On ch=1 n=a#4 v=48
74540 On ch=1 n=c#5 v=64
74551 On ch=1 n=d#5 v=0
74560 On ch=1 n=a#4 v=0
74562 On ch=1 n=c#5 v=0
74601 On ch=1 n=f#3 v=0
74620 On ch=1 n=c#6 v=99
74626 On ch=1 n=g3 v=60
74645 Par ch=1 c=64 v=0
74669 Par ch=1 c=64 v=127
74678 On ch=1 n=c#5 v=59
74680 On ch=1 n=d#5 v=65
74728 On ch=1 n=d#3 v=62
74731 On ch=1 n=d#5 v=0
74736 On ch=1 n=c#5 v=0
74736 On ch=1 n=g3 v=0
74773 On ch=1 n=d#5 v=70
74773 On ch=1 n=c#5 v=56
74777 On ch=1 n=c#6 v=0
74798 On ch=1 n=c#5 v=0
74804 On ch=1 n=d#3 v=0
74816 On ch=1 n=d#5 v=0
74818 On ch=1 n=c6 v=93
74821 Par ch=1 c=64 v=56
74824 On ch=1 n=f3 v=56
74826 Par ch=1 c=64 v=0
74846 Par ch=1 c=64 v=127
74868 On ch=1 n=d#5 v=63
74868 On ch=1 n=c#5 v=53
74874 On ch=1 n=c6 v=0
74905 On ch=1 n=c#5 v=0
74911 On ch=1 n=d#5 v=0
74916 On ch=1 n=a#5 v=87
74920 On ch=1 n=f3 v=0
74922 On ch=1 n=g3 v=61
74923 Par ch=1 c=64 v=40
74927 Par ch=1 c=64 v=0
74935 Par ch=1 c=64 v=40
74939 Par ch=1 c=64 v=127
74950 On ch=1 n=g3 v=0
74957 On ch=1 n=a#5 v=0
74964 On ch=1 n=d#4 v=0
74964 On ch=1 n=c#5 v=65
74966 On ch=1 n=d#5 v=61
74990 On ch=1 n=c#5 v=0
75000 On ch=1 n=d#5 v=0
75020 On ch=1 n=g#5 v=88
75024 On ch=1 n=c5 v=72
75028 On ch=1 n=g#4 v=46
75028 Par ch=1 c=64 v=0
75040 Par ch=1 c=64 v=72
75042 On ch=1 n=c5 v=0
75044 Par ch=1 c=64 v=127
75061 On ch=1 n=g#5 v=0
75080 On ch=1 n=f5 v=79
75080 On ch=1 n=c6 v=94
75088 On ch=1 n=f5 v=0
75100 On ch=1 n=c6 v=0
75143 On ch=1 n=f6 v=88
75144 On ch=1 n=g#5 v=77
75144 Par ch=1 c=64 v=104
75146 On ch=1 n=c5 v=51
75149 Par ch=1 c=64 v=0
75165 Par ch=1 c=64 v=104
75169 Par ch=1 c=64 v=127
75180 On ch=1 n=f6 v=0
75181 On ch=1 n=g#5 v=0
75208 On ch=1 n=d#6 v=92
75209 On ch=1 n=f#5 v=75
75218 Par ch=1 c=64 v=88
75222 Par ch=1 c=64 v=0
75234 Par ch=1 c=64 v=56
75236 On ch=1 n=f#5 v=0
75238 On ch=1 n=c5 v=0
75238 On ch=1 n=g#4 v=0
75238 Par ch=1 c=64 v=127
75251 On ch=1 n=d#6 v=0
75278 On ch=1 n=c#6 v=85
75280 On ch=1 n=f5 v=66
75286 Par ch=1 c=64 v=88
75290 Par ch=1 c=64 v=0
75309 On ch=1 n=f5 v=0
75310 Par ch=1 c=64 v=127
75316 On ch=1 n=c#6 v=0
75362 On ch=1 n=c6 v=87
75367 On ch=1 n=d#5 v=68
75375 Par ch=1 c=64 v=40
75379 Par ch=1 c=64 v=24
75380 On ch=1 n=d#5 v=0
75383 Par ch=1 c=64 v=72
75387 Par ch=1 c=64 v=127
75394 On ch=1 n=c6 v=0
75476 Par ch=1 c=64 v=40
75480 Par ch=1 c=64 v=0
75480 On ch=1 n=f6 v=103
75488 On ch=1 n=c#4 v=67
75503 Par ch=1 c=64 v=127
75509 On ch=1 n=c#4 v=0
75545 On ch=1 n=f6 v=0
75558 On ch=1 n=c#6 v=76
75558 On ch=1 n=g#5 v=60
75559 On ch=1 n=f5 v=63
75560 On ch=1 n=c#5 v=51
75562 On ch=1 n=g#4 v=32
75573 On ch=1 n=g#4 v=0
75576 On ch=1 n=f5 v=0
75578 On ch=1 n=c#5 v=0
75581 On ch=1 n=g#5 v=0
75588 On ch=1 n=c#6 v=0
75618 On ch=1 n=d#6 v=95
75621 On ch=1 n=f#4 v=65
75633 Par ch=1 c=64 v=24
75637 Par ch=1 c=64 v=0
75653 Par ch=1 c=64 v=104
75654 On ch=1 n=f#4 v=0
75657 Par ch=1 c=64 v=127
75673 On ch=1 n=d#6 v=0
75673 On ch=1 n=a#5 v=61
75674 On ch=1 n=f#5 v=54
75674 On ch=1 n=a#4 v=47
75675 On ch=1 n=d#5 v=48
75699 On ch=1 n=f#5 v=0
75702 On ch=1 n=d#5 v=0
75708 On ch=1 n=a#4 v=0
75712 On ch=1 n=a#5 v=0
75722 On ch=1 n=f6 v=96
75727 On ch=1 n=f4 v=62
75734 Par ch=1 c=64 v=24
75738 Par ch=1 c=64 v=0
75745 Par ch=1 c=64 v=24
75750 Par ch=1 c=64 v=88
75754 Par ch=1 c=64 v=127
75759 On ch=1 n=f4 v=0
75772 On ch=1 n=a#5 v=67
75774 On ch=1 n=g#5 v=50
75776 On ch=1 n=a#4 v=50
75776 On ch=1 n=d5 v=53
75781 On ch=1 n=f6 v=0
75788 On ch=1 n=d5 v=0
75795 On ch=1 n=g#5 v=0
75797 On ch=1 n=a#5 v=0
75798 On ch=1 n=a#4 v=0
75822 On ch=1 n=g#6 v=96
75826 Par ch=1 c=64 v=72
75827 On ch=1 n=d#4 v=65
75830 Par ch=1 c=64 v=0
75838 Par ch=1 c=64 v=56
75842 Par ch=1 c=64 v=127
75852 On ch=1 n=g#6 v=0
75872 On ch=1 n=f#6 v=93
75872 On ch=1 n=a#4 v=49
75874 On ch=1 n=d#5 v=45
75878 On ch=1 n=f#5 v=69
75881 On ch=1 n=d#4 v=0
75890 On ch=1 n=f#5 v=0
75905 On ch=1 n=f#6 v=0
75908 On ch=1 n=d#5 v=0
75911 On ch=1 n=a#4 v=0
75920 On ch=1 n=f6 v=99
75922 On ch=1 n=f#4 v=55
75927 Par ch=1 c=64 v=24
75931 Par ch=1 c=64 v=0
75940 Par ch=1 c=64 v=72
75944 Par ch=1 c=64 v=127
75948 On ch=1 n=f6 v=0
75956 On ch=1 n=f#4 v=0
75970 On ch=1 n=d#6 v=90
75973 On ch=1 n=a#4 v=46
75974 On ch=1 n=d#5 v=43
75974 On ch=1 n=f#5 v=67
75986 On ch=1 n=f#5 v=0
75989 On ch=1 n=d#5 v=0
75992 On ch=1 n=a#4 v=0
76001 On ch=1 n=d#6 v=0
76027 On ch=1 n=c#6 v=90
76031 On ch=1 n=g#4 v=53
76036 Par ch=1 c=64 v=72
76040 Par ch=1 c=64 v=0
76064 Par ch=1 c=64 v=72
76068 Par ch=1 c=64 v=127
76072 On ch=1 n=g#4 v=0
76075 On ch=1 n=c#6 v=0
76076 On ch=1 n=c#5 v=52
76080 On ch=1 n=g#5 v=57
76084 On ch=1 n=f5 v=49
76090 On ch=1 n=c#5 v=0
76098 On ch=1 n=f5 v=0
76111 On ch=1 n=g#4 v=26
76116 On ch=1 n=g#5 v=0
76120 On ch=1 n=g#4 v=0
76141 On ch=1 n=d#6 v=90
76142 On ch=1 n=g#3 v=70
76145 Par ch=1 c=64 v=104
76149 Par ch=1 c=64 v=0
76163 On ch=1 n=g#3 v=0
76165 Par ch=1 c=64 v=40
76169 Par ch=1 c=64 v=127
76207 On ch=1 n=g#5 v=60
76210 On ch=1 n=f#5 v=48
76214 On ch=1 n=c5 v=60
76214 On ch=1 n=g#4 v=48
76240 On ch=1 n=c5 v=0
76242 On ch=1 n=g#4 v=0
76267 On ch=1 n=f#5 v=0
76271 On ch=1 n=g#5 v=0
76323 On ch=1 n=g#5 v=55
76325 On ch=1 n=f#5 v=43
76329 On ch=1 n=c5 v=48
76331 On ch=1 n=d#6 v=0
76331 On ch=1 n=g#4 v=44
76343 On ch=1 n=g#5 v=0
76346 On ch=1 n=f#5 v=0
76349 On ch=1 n=c5 v=0
76358 On ch=1 n=g#4 v=0
76407 On ch=1 n=f6 v=89
76414 On ch=1 n=c#4 v=55
76416 Par ch=1 c=64 v=72
76420 Par ch=1 c=64 v=0
76440 On ch=1 n=c#4 v=0
76440 Par ch=1 c=64 v=56
76444 Par ch=1 c=64 v=127
76474 On ch=1 n=f6 v=0
76474 On ch=1 n=c#6 v=64
76477 On ch=1 n=g#5 v=38
76480 On ch=1 n=g#4 v=52
76482 On ch=1 n=f5 v=40
76485 On ch=1 n=c#5 v=25
76496 On ch=1 n=c#5 v=0
76498 On ch=1 n=f5 v=0
76500 On ch=1 n=g#5 v=0
76501 On ch=1 n=g#4 v=0
76507 On ch=1 n=c#6 v=0
76527 On ch=1 n=d#6 v=90
76534 On ch=1 n=f#4 v=64
76540 Par ch=1 c=64 v=72
76544 Par ch=1 c=64 v=0
76561 Par ch=1 c=64 v=56
76564 On ch=1 n=f#4 v=0
76565 Par ch=1 c=64 v=127
76578 On ch=1 n=f#5 v=52
76579 On ch=1 n=a#5 v=58
76581 On ch=1 n=d#5 v=50
76583 On ch=1 n=a#4 v=49
76595 On ch=1 n=d#6 v=0
76605 On ch=1 n=f#5 v=0
76608 On ch=1 n=d#5 v=0
76610 On ch=1 n=a#5 v=0
76610 On ch=1 n=a#4 v=0
76625 On ch=1 n=f6 v=94
76629 Par ch=1 c=64 v=104
76630 On ch=1 n=f4 v=64
76633 Par ch=1 c=64 v=24
76637 Par ch=1 c=64 v=0
76645 Par ch=1 c=64 v=40
76649 Par ch=1 c=64 v=104
76654 Par ch=1 c=64 v=127
76662 On ch=1 n=f4 v=0
76674 On ch=1 n=f6 v=0
76676 On ch=1 n=a#5 v=71
76678 On ch=1 n=g#5 v=54
76679 On ch=1 n=a#4 v=50
76679 On ch=1 n=d5 v=47
76689 On ch=1 n=d5 v=0
76696 On ch=1 n=a#4 v=0
76697 On ch=1 n=a#5 v=0
76698 On ch=1 n=g#5 v=0
76728 On ch=1 n=g#6 v=100
76730 On ch=1 n=d#4 v=67
76737 Par ch=1 c=64 v=56
76741 Par ch=1 c=64 v=0
76746 Par ch=1 c=64 v=40
76750 Par ch=1 c=64 v=104
76754 Par ch=1 c=64 v=127
76759 On ch=1 n=g#6 v=0
76776 On ch=1 n=d#4 v=0
76780 On ch=1 n=f#6 v=97
76780 On ch=1 n=d#5 v=50
76780 On ch=1 n=a#4 v=49
76782 On ch=1 n=f#5 v=76
76801 On ch=1 n=d#5 v=0
76802 On ch=1 n=f#5 v=0
76805 On ch=1 n=a#4 v=0
76811 On ch=1 n=f#6 v=0
76825 On ch=1 n=f6 v=99
76828 On ch=1 n=f#4 v=51
76831 Par ch=1 c=64 v=56
76834 Par ch=1 c=64 v=40
76838 Par ch=1 c=64 v=88
76843 Par ch=1 c=64 v=127
76852 On ch=1 n=f6 v=0
76856 On ch=1 n=f#4 v=0
76872 On ch=1 n=d#6 v=93
76873 On ch=1 n=f#5 v=76
76875 On ch=1 n=d#5 v=47
76877 On ch=1 n=a#4 v=44
76894 On ch=1 n=f#5 v=0
76896 On ch=1 n=d#5 v=0
76904 On ch=1 n=a#4 v=0
76906 On ch=1 n=d#6 v=0
76931 On ch=1 n=c#6 v=88
76932 On ch=1 n=g#4 v=54
76944 Par ch=1 c=64 v=24
76948 Par ch=1 c=64 v=0
76972 Par ch=1 c=64 v=104
76975 Par ch=1 c=64 v=127
76977 On ch=1 n=g#4 v=0
76978 On ch=1 n=c#5 v=51
76981 On ch=1 n=c#6 v=0
76983 On ch=1 n=g#5 v=57
76985 On ch=1 n=f5 v=61
76993 On ch=1 n=c#5 v=0
77004 On ch=1 n=f5 v=0
77014 On ch=1 n=g#5 v=0
77038 On ch=1 n=d#6 v=88
77043 On ch=1 n=g#3 v=72
77049 Par ch=1 c=64 v=72
77053 Par ch=1 c=64 v=0
77063 On ch=1 n=g#3 v=0
77072 Par ch=1 c=64 v=88
77077 Par ch=1 c=64 v=127
77094 On ch=1 n=g#5 v=56
77095 On ch=1 n=g#4 v=60
77096 On ch=1 n=c5 v=56
77098 On ch=1 n=f#5 v=37
77107 On ch=1 n=c5 v=0
77114 On ch=1 n=g#4 v=0
77118 On ch=1 n=d#6 v=0
77127 On ch=1 n=f#5 v=0
77142 On ch=1 n=g#5 v=0
77151 On ch=1 n=c#6 v=72
77159 On ch=1 n=c#4 v=47
77174 Par ch=1 c=64 v=88
77178 Par ch=1 c=64 v=0
77206 Par ch=1 c=64 v=127
77208 On ch=1 n=g#5 v=36
77209 On ch=1 n=c#4 v=0
77212 On ch=1 n=g#4 v=45
77212 On ch=1 n=c#5 v=37
77216 On ch=1 n=f5 v=38
77227 On ch=1 n=c#6 v=0
77229 On ch=1 n=f5 v=0
77230 On ch=1 n=g#4 v=0
77232 On ch=1 n=c#5 v=0
77238 On ch=1 n=g#5 v=0
77269 On ch=1 n=d#6 v=95
77279 On ch=1 n=c#4 v=65
77283 Par ch=1 c=64 v=104
77287 Par ch=1 c=64 v=0
77303 Par ch=1 c=64 v=72
77306 Par ch=1 c=64 v=127
77310 On ch=1 n=c#4 v=0
77329 On ch=1 n=a#5 v=62
77330 On ch=1 n=d#5 v=57
77332 On ch=1 n=c#5 v=35
77342 On ch=1 n=g4 v=31
77349 On ch=1 n=d#4 v=39
77355 On ch=1 n=g4 v=0
77355 On ch=1 n=c#5 v=0
77357 On ch=1 n=d#4 v=0
77368 Par ch=1 c=64 v=88
77372 Par ch=1 c=64 v=0
77380 On ch=1 n=c4 v=80
77388 Par ch=1 c=64 v=40
77392 Par ch=1 c=64 v=127
77393 On ch=1 n=d#5 v=0
77408 On ch=1 n=c4 v=0
77412 On ch=1 n=a#5 v=0
77421 On ch=1 n=d#6 v=0
77424 On ch=1 n=d#5 v=64
77424 On ch=1 n=g#5 v=65
77427 On ch=1 n=d#4 v=54
77428 On ch=1 n=g#4 v=45
77428 On ch=1 n=c5 v=49
77438 On ch=1 n=c5 v=0
77440 On ch=1 n=d#5 v=0
77444 On ch=1 n=g#5 v=0
77446 On ch=1 n=g#4 v=0
77453 On ch=1 n=d#4 v=0
77472 Par ch=1 c=64 v=56
77473 On ch=1 n=f6 v=92
77474 On ch=1 n=a#3 v=63
77474 On ch=1 n=f5 v=79
77476 Par ch=1 c=64 v=0
77480 Par ch=1 c=64 v=24
77484 Par ch=1 c=64 v=88
77488 Par ch=1 c=64 v=127
77490 On ch=1 n=f5 v=0
77496 On ch=1 n=a#3 v=0
77498 On ch=1 n=f6 v=0
77519 On ch=1 n=g4 v=51
77521 On ch=1 n=c#5 v=35
77522 On ch=1 n=g6 v=99
77523 On ch=1 n=d#4 v=51
77523 On ch=1 n=g5 v=84
77528 On ch=1 n=g4 v=0
77529 On ch=1 n=c#5 v=0
77537 On ch=1 n=d#4 v=0
77537 On ch=1 n=g5 v=0
77543 On ch=1 n=g6 v=0
77574 On ch=1 n=g#6 v=96
77577 On ch=1 n=g#5 v=82
77577 Par ch=1 c=64 v=24
77581 Par ch=1 c=64 v=0
77582 On ch=1 n=g#3 v=59
77592 On ch=1 n=g#5 v=0
77593 Par ch=1 c=64 v=40
77598 Par ch=1 c=64 v=104
77599 On ch=1 n=g#3 v=0
77602 Par ch=1 c=64 v=127
77628 On ch=1 n=d#6 v=69
77629 On ch=1 n=g#6 v=0
77631 On ch=1 n=c5 v=60
77631 On ch=1 n=g#4 v=54
77633 On ch=1 n=g#5 v=55
77639 On ch=1 n=g#4 v=0
77639 On ch=1 n=c5 v=0
77646 On ch=1 n=d#6 v=0
77648 On ch=1 n=g#5 v=0
77695 On ch=1 n=c#6 v=88
77702 On ch=1 n=b3 v=56
77706 Par ch=1 c=64 v=88
77710 Par ch=1 c=64 v=0
77730 On ch=1 n=b3 v=0
77734 Par ch=1 c=64 v=56
77738 Par ch=1 c=64 v=127
77750 On ch=1 n=c#4 v=38
77750 On ch=1 n=g#5 v=58
77751 On ch=1 n=c#5 v=50
77755 On ch=1 n=b4 v=44
77759 On ch=1 n=f4 v=40
77766 On ch=1 n=b4 v=0
77772 On ch=1 n=f4 v=0
77776 On ch=1 n=c#4 v=0
77786 Par ch=1 c=64 v=40
77791 Par ch=1 c=64 v=0
77800 On ch=1 n=g#5 v=0
77800 On ch=1 n=a#3 v=65
77803 Par ch=1 c=64 v=72
77807 Par ch=1 c=64 v=127
77811 On ch=1 n=c#5 v=0
77827 On ch=1 n=a#3 v=0
77839 On ch=1 n=c#6 v=0
77843 On ch=1 n=c#5 v=60
77844 On ch=1 n=f#5 v=62
77850 On ch=1 n=c#4 v=44
77850 On ch=1 n=a#4 v=30
77852 On ch=1 n=f#4 v=25
77856 On ch=1 n=c#5 v=0
77860 On ch=1 n=f#4 v=0
77861 On ch=1 n=f#5 v=0
77862 On ch=1 n=a#4 v=0
77875 On ch=1 n=c#4 v=0
77888 Par ch=1 c=64 v=72
77888 On ch=1 n=g#3 v=58
77892 On ch=1 n=d#6 v=95
77892 Par ch=1 c=64 v=24
77893 On ch=1 n=d#5 v=78
77896 Par ch=1 c=64 v=40
77900 Par ch=1 c=64 v=104
77904 Par ch=1 c=64 v=127
77906 On ch=1 n=d#5 v=0
77912 On ch=1 n=g#3 v=0
77916 On ch=1 n=d#6 v=0
77940 On ch=1 n=f6 v=97
77940 On ch=1 n=c#4 v=49
77944 On ch=1 n=f5 v=65
77951 On ch=1 n=f5 v=0
77958 On ch=1 n=c#4 v=0
77962 On ch=1 n=f6 v=0
77991 On ch=1 n=f#6 v=95
77992 On ch=1 n=f#3 v=67
77997 Par ch=1 c=64 v=72
78001 Par ch=1 c=64 v=0
78009 Par ch=1 c=64 v=24
78012 On ch=1 n=f#3 v=0
78013 Par ch=1 c=64 v=88
78017 Par ch=1 c=64 v=127
78042 On ch=1 n=a#4 v=64
78043 On ch=1 n=c#4 v=59
78044 On ch=1 n=f#4 v=55
78054 On ch=1 n=f#4 v=0
78062 On ch=1 n=a#4 v=0
78068 On ch=1 n=c#4 v=0
78069 On ch=1 n=f#6 v=0
78094 On ch=1 n=f6 v=97
78094 Par ch=1 c=64 v=88
78096 On ch=1 n=a#3 v=69
78098 Par ch=1 c=64 v=0
78113 On ch=1 n=a#3 v=0
78114 Par ch=1 c=64 v=72
78117 Par ch=1 c=64 v=127
78131 On ch=1 n=f6 v=0
78146 On ch=1 n=f#6 v=87
78149 On ch=1 n=a#5 v=71
78149 On ch=1 n=d5 v=56
78149 On ch=1 n=g#5 v=58
78150 On ch=1 n=a#4 v=33
78152 On ch=1 n=g#4 v=39
78162 On ch=1 n=g#4 v=0
78162 On ch=1 n=a#4 v=0
78167 On ch=1 n=d5 v=0
78167 On ch=1 n=a#5 v=0
78170 On ch=1 n=g#5 v=0
78180 On ch=1 n=f#6 v=0
78203 On ch=1 n=d#6 v=92
78208 On ch=1 n=d#4 v=58
78214 Par ch=1 c=64 v=56
78218 Par ch=1 c=64 v=0
78239 Par ch=1 c=64 v=127
78245 On ch=1 n=d#4 v=0
78253 On ch=1 n=d#5 v=50
78254 On ch=1 n=a#4 v=49
78257 On ch=1 n=f#5 v=49
78257 On ch=1 n=a#5 v=61
78264 On ch=1 n=a#4 v=0
78264 On ch=1 n=d#5 v=0
78269 On ch=1 n=d#6 v=0
78280 On ch=1 n=f#5 v=0
78297 On ch=1 n=a#5 v=0
78303 On ch=1 n=f6 v=102
78308 On ch=1 n=a#3 v=69
78311 Par ch=1 c=64 v=24
78314 On ch=1 n=a#5 v=26
78316 Par ch=1 c=64 v=0
78322 On ch=1 n=a#5 v=0
78324 Par ch=1 c=64 v=56
78326 On ch=1 n=a#3 v=0
78328 Par ch=1 c=64 v=127
78349 On ch=1 n=f6 v=0
78352 On ch=1 n=a#5 v=69
78354 On ch=1 n=g#5 v=51
78356 On ch=1 n=d5 v=59
78358 On ch=1 n=a#4 v=44
78358 On ch=1 n=g#4 v=50
78369 On ch=1 n=a#4 v=0
78372 On ch=1 n=a#5 v=0
78373 On ch=1 n=d5 v=0
78374 On ch=1 n=g#5 v=0
78374 On ch=1 n=g#4 v=0
78402 On ch=1 n=g#6 v=95
78411 On ch=1 n=d#4 v=59
78412 Par ch=1 c=64 v=56
78416 Par ch=1 c=64 v=0
78420 Par ch=1 c=64 v=24
78424 Par ch=1 c=64 v=88
78428 Par ch=1 c=64 v=127
78432 On ch=1 n=g#6 v=0
78454 On ch=1 n=d#4 v=0
78454 On ch=1 n=f#6 v=96
78456 On ch=1 n=d#5 v=47
78458 On ch=1 n=f#5 v=71
78458 On ch=1 n=a#4 v=48
78472 On ch=1 n=f#5 v=0
78485 On ch=1 n=f#6 v=0
78485 On ch=1 n=d#5 v=0
78489 On ch=1 n=a#4 v=0
78498 On ch=1 n=f6 v=100
78504 On ch=1 n=f#4 v=54
78505 Par ch=1 c=64 v=88
78509 Par ch=1 c=64 v=0
78521 Par ch=1 c=64 v=40
78525 Par ch=1 c=64 v=104
78527 On ch=1 n=f6 v=0
78529 Par ch=1 c=64 v=127
78540 On ch=1 n=f#4 v=0
78548 On ch=1 n=d#6 v=92
78552 On ch=1 n=a#4 v=51
78552 On ch=1 n=d#5 v=47
78554 On ch=1 n=f#5 v=57
78562 On ch=1 n=f#5 v=0
78570 On ch=1 n=d#5 v=0
78570 On ch=1 n=a#4 v=0
78581 On ch=1 n=d#6 v=0
78604 On ch=1 n=c#6 v=90
78611 On ch=1 n=a#4 v=58
78622 Par ch=1 c=64 v=40
78626 Par ch=1 c=64 v=0
78646 Par ch=1 c=64 v=56
78650 Par ch=1 c=64 v=127
78657 On ch=1 n=a#5 v=64
78658 On ch=1 n=c#6 v=0
78661 On ch=1 n=f5 v=62
78662 On ch=1 n=c#5 v=44
78678 On ch=1 n=f5 v=0
78691 On ch=1 n=a#5 v=0
78695 On ch=1 n=c#5 v=0
78703 On ch=1 n=a#4 v=0
78715 On ch=1 n=d#6 v=89
78717 On ch=1 n=c6 v=83
78723 On ch=1 n=f#4 v=48
78734 Par ch=1 c=64 v=56
78738 Par ch=1 c=64 v=0
78763 Par ch=1 c=64 v=88
78767 Par ch=1 c=64 v=127
78777 On ch=1 n=d#5 v=58
78777 On ch=1 n=a#5 v=62
78781 On ch=1 n=a#4 v=44
78784 On ch=1 n=c5 v=44
78794 On ch=1 n=f#4 v=0
78798 On ch=1 n=d#5 v=0
78804 On ch=1 n=d#6 v=0
78841 On ch=1 n=c5 v=0
78844 On ch=1 n=a#4 v=0
78844 On ch=1 n=f4 v=46
78847 On ch=1 n=f6 v=89
78858 On ch=1 n=a#5 v=0
78865 On ch=1 n=c6 v=0
78871 Par ch=1 c=64 v=0
78900 Par ch=1 c=64 v=104
78904 Par ch=1 c=64 v=127
78913 On ch=1 n=d#5 v=39
78914 On ch=1 n=f5 v=45
78914 On ch=1 n=a5 v=51
78916 On ch=1 n=c5 v=54
78926 On ch=1 n=c5 v=0
78931 On ch=1 n=f4 v=0
78931 On ch=1 n=d#5 v=0
78939 On ch=1 n=a5 v=0
78940 On ch=1 n=f5 v=0
78947 On ch=1 n=f6 v=0
78985 On ch=1 n=f6 v=94
78990 On ch=1 n=a#3 v=65
78993 Par ch=1 c=64 v=24
78997 Par ch=1 c=64 v=0
79006 On ch=1 n=a#3 v=0
79009 Par ch=1 c=64 v=40
79013 Par ch=1 c=64 v=127
79046 On ch=1 n=g#5 v=43
79047 On ch=1 n=a#4 v=48
79048 On ch=1 n=a#5 v=50
79049 On ch=1 n=d5 v=41
79064 On ch=1 n=d5 v=0
79069 On ch=1 n=a#4 v=0
79072 On ch=1 n=f6 v=0
79080 On ch=1 n=g#5 v=0
79081 On ch=1 n=a#5 v=0
79096 On ch=1 n=d#6 v=93
79102 Par ch=1 c=64 v=24
79102 On ch=1 n=d#4 v=65
79106 Par ch=1 c=64 v=0
79117 Par ch=1 c=64 v=56
79122 Par ch=1 c=64 v=127
79132 On ch=1 n=d#4 v=0
79148 On ch=1 n=f#5 v=57
79148 On ch=1 n=d#5 v=53
79150 On ch=1 n=a#5 v=61
79151 On ch=1 n=a#4 v=48
79156 On ch=1 n=d#6 v=0
79158 On ch=1 n=d#5 v=0
79162 On ch=1 n=a#4 v=0
79172 On ch=1 n=f#5 v=0
79189 On ch=1 n=a#5 v=0
79197 On ch=1 n=f6 v=97
79201 On ch=1 n=a#3 v=71
79203 Par ch=1 c=64 v=40
79207 Par ch=1 c=64 v=0
79218 On ch=1 n=a#3 v=0
79219 Par ch=1 c=64 v=72
79223 Par ch=1 c=64 v=127
79253 On ch=1 n=a#5 v=67
79254 On ch=1 n=g#5 v=53
79257 On ch=1 n=d5 v=52
79258 On ch=1 n=f6 v=0
79259 On ch=1 n=a#4 v=47
79270 On ch=1 n=d5 v=0
79272 On ch=1 n=a#4 v=0
79275 On ch=1 n=g#5 v=0
79278 On ch=1 n=a#5 v=0
79301 On ch=1 n=g#6 v=95
79309 On ch=1 n=d#4 v=62
79311 Par ch=1 c=64 v=40
79316 Par ch=1 c=64 v=0
79324 Par ch=1 c=64 v=72
79328 Par ch=1 c=64 v=127
79333 On ch=1 n=g#6 v=0
79340 On ch=1 n=d#4 v=0
79355 On ch=1 n=f#6 v=90
79357 On ch=1 n=f#5 v=70
79358 On ch=1 n=d#5 v=46
79362 On ch=1 n=a#4 v=42
79377 On ch=1 n=f#5 v=0
79382 On ch=1 n=d#5 v=0
79384 On ch=1 n=a#4 v=0
79390 On ch=1 n=f#6 v=0
79408 On ch=1 n=f6 v=97
79414 On ch=1 n=f#4 v=51
79421 Par ch=1 c=64 v=56
79425 Par ch=1 c=64 v=0
79437 Par ch=1 c=64 v=40
79441 On ch=1 n=f6 v=0
79441 Par ch=1 c=64 v=104
79444 Par ch=1 c=64 v=127
79452 On ch=1 n=f#4 v=0
79460 On ch=1 n=d#6 v=85
79464 On ch=1 n=f#5 v=58
79468 On ch=1 n=d#5 v=42
79469 On ch=1 n=a#4 v=42
79484 On ch=1 n=f#5 v=0
79497 On ch=1 n=d#5 v=0
79498 On ch=1 n=d#6 v=0
79507 On ch=1 n=a#4 v=0
79526 On ch=1 n=c#6 v=82
79530 On ch=1 n=g#4 v=47
79542 Par ch=1 c=64 v=88
79545 Par ch=1 c=64 v=0
79574 Par ch=1 c=64 v=127
79588 On ch=1 n=g#5 v=50
79588 On ch=1 n=c#5 v=56
79593 On ch=1 n=f5 v=47
79601 On ch=1 n=g#4 v=0
79604 On ch=1 n=c#5 v=0
79607 On ch=1 n=c#6 v=0
79616 On ch=1 n=f5 v=0
79626 On ch=1 n=g#5 v=0
79653 On ch=1 n=d#6 v=83
79657 On ch=1 n=g#3 v=67
79671 Par ch=1 c=64 v=56
79675 Par ch=1 c=64 v=0
79680 On ch=1 n=g#3 v=0
79690 Par ch=1 c=64 v=40
79694 Par ch=1 c=64 v=127
79720 On ch=1 n=g#5 v=47
79723 On ch=1 n=c5 v=49
79723 On ch=1 n=g#4 v=48
79724 On ch=1 n=f#5 v=39
79763 On ch=1 n=c5 v=0
79775 On ch=1 n=d#6 v=0
79776 On ch=1 n=f#5 v=0
79788 On ch=1 n=g#5 v=0
79793 On ch=1 n=c#6 v=75
79797 On ch=1 n=c#4 v=46
79802 On ch=1 n=g#4 v=0
79812 Par ch=1 c=64 v=40
79816 Par ch=1 c=64 v=0
79835 Par ch=1 c=64 v=72
79839 Par ch=1 c=64 v=127
79882 On ch=1 n=g#5 v=38
79888 Par ch=1 c=64 v=88
79892 On ch=1 n=c#5 v=32
79892 On ch=1 n=f5 v=40
79893 Par ch=1 c=64 v=24
79894 On ch=1 n=g#4 v=32
79897 Par ch=1 c=64 v=0
79901 Par ch=1 c=64 v=24
79905 Par ch=1 c=64 v=72
79909 Par ch=1 c=64 v=127
79916 On ch=1 n=f5 v=0
79916 On ch=1 n=c#6 v=0
79920 On ch=1 n=g#5 v=0
79921 On ch=1 n=c#4 v=0
79923 On ch=1 n=c#5 v=0
79924 On ch=1 n=g#4 v=0
80041 On ch=1 n=c#4 v=36
80043 On ch=1 n=f5 v=75
80070 Par ch=1 c=64 v=72
80074 Par ch=1 c=64 v=0
80098 Par ch=1 c=64 v=104
80102 Par ch=1 c=64 v=127
80126 On ch=1 n=f4 v=36
80130 On ch=1 n=c#5 v=32
80131 On ch=1 n=g#4 v=26
80151 On ch=1 n=g#4 v=0
80157 On ch=1 n=c#4 v=0
80161 On ch=1 n=f5 v=0
80163 On ch=1 n=c#5 v=0
80188 On ch=1 n=f4 v=0
80224 On ch=1 n=a#5 v=77
80231 On ch=1 n=g3 v=41
80256 Par ch=1 c=64 v=40
80260 Par ch=1 c=64 v=0
80283 Par ch=1 c=64 v=56
80288 Par ch=1 c=64 v=127
80305 On ch=1 n=d#4 v=46
80308 On ch=1 n=c#5 v=40
80310 On ch=1 n=a#4 v=26
80319 On ch=1 n=a#5 v=0
80333 On ch=1 n=g3 v=0
80354 On ch=1 n=c#5 v=0
80358 On ch=1 n=a#4 v=0
80364 On ch=1 n=d#5 v=71
80372 On ch=1 n=g#3 v=36
80374 On ch=1 n=d#4 v=0
80389 Par ch=1 c=64 v=72
80393 Par ch=1 c=64 v=0
80417 Par ch=1 c=64 v=88
80421 Par ch=1 c=64 v=127
80426 On ch=1 n=g#4 v=36
80428 On ch=1 n=g#3 v=0
80430 On ch=1 n=c5 v=52
80430 On ch=1 n=d#4 v=42
80496 On ch=1 n=c5 v=0
80499 On ch=1 n=g#5 v=76
80500 On ch=1 n=d#4 v=0
80507 On ch=1 n=f3 v=37
80509 On ch=1 n=g#4 v=0
80512 On ch=1 n=d#5 v=0
80530 Par ch=1 c=64 v=56
80534 Par ch=1 c=64 v=0
80558 Par ch=1 c=64 v=56
80562 Par ch=1 c=64 v=127
80570 On ch=1 n=c#4 v=32
80570 On ch=1 n=g#4 v=28
80575 On ch=1 n=b4 v=46
80593 On ch=1 n=g#5 v=0
80599 On ch=1 n=f3 v=0
80616 On ch=1 n=b4 v=0
80624 On ch=1 n=g#4 v=0
80628 On ch=1 n=c#5 v=74
80637 On ch=1 n=f#3 v=40
80641 On ch=1 n=c#4 v=0
80647 Par ch=1 c=64 v=24
80651 Par ch=1 c=64 v=0
80674 Par ch=1 c=64 v=72
80679 Par ch=1 c=64 v=127
80690 On ch=1 n=a#4 v=36
80691 On ch=1 n=f#4 v=36
80693 On ch=1 n=f#3 v=0
80694 On ch=1 n=c#4 v=34
80728 On ch=1 n=f#4 v=0
80749 On ch=1 n=a#4 v=0
80754 On ch=1 n=f5 v=71
80759 On ch=1 n=c#4 v=0
80759 On ch=1 n=g#3 v=52
80763 On ch=1 n=c#5 v=0
80767 Par ch=1 c=64 v=40
80771 Par ch=1 c=64 v=0
80796 Par ch=1 c=64 v=88
80800 Par ch=1 c=64 v=127
80819 On ch=1 n=g#4 v=42
80821 On ch=1 n=f4 v=38
80844 On ch=1 n=f5 v=0
80854 On ch=1 n=f4 v=0
80887 On ch=1 n=d#5 v=72
80895 On ch=1 n=g#2 v=45
80898 On ch=1 n=g#4 v=0
80905 Par ch=1 c=64 v=72
80909 Par ch=1 c=64 v=0
80933 Par ch=1 c=64 v=56
80937 Par ch=1 c=64 v=127
80951 On ch=1 n=g#2 v=0
80959 On ch=1 n=g#4 v=44
80960 On ch=1 n=f#4 v=37
80986 On ch=1 n=d#5 v=0
81017 On ch=1 n=f#4 v=0
81032 On ch=1 n=c#5 v=69
81038 On ch=1 n=g#4 v=0
81040 On ch=1 n=c#3 v=37
81046 Par ch=1 c=64 v=88
81050 On ch=1 n=g#3 v=0
81050 Par ch=1 c=64 v=0
81074 Par ch=1 c=64 v=72
81078 Par ch=1 c=64 v=127
81112 On ch=1 n=g#4 v=49
81118 On ch=1 n=f4 v=38
81139 On ch=1 n=f4 v=0
81154 On ch=1 n=c#5 v=0
81181 On ch=1 n=g#4 v=0
81183 On ch=1 n=c#3 v=0
81198 On ch=1 n=c#5 v=56
81202 On ch=1 n=c#4 v=44
81218 On ch=1 n=f2 v=39
81222 On ch=1 n=f3 v=28
81228 Par ch=1 c=64 v=88
81232 Par ch=1 c=64 v=0
81243 On ch=1 n=c#4 v=0
81252 Par ch=1 c=64 v=40
81255 Par ch=1 c=64 v=127
81286 On ch=1 n=b4 v=51
81290 On ch=1 n=c#4 v=40
81298 On ch=1 n=f2 v=0
81299 On ch=1 n=f3 v=0
81356 On ch=1 n=f#3 v=59
81358 On ch=1 n=f#2 v=51
81369 Par ch=1 c=64 v=40
81373 Par ch=1 c=64 v=0
81379 On ch=1 n=c#4 v=0
81391 On ch=1 n=b4 v=0
81393 Par ch=1 c=64 v=56
81397 Par ch=1 c=64 v=127
81434 On ch=1 n=a#4 v=44
81436 On ch=1 n=c#4 v=31
81450 On ch=1 n=f#3 v=0
81450 On ch=1 n=f#2 v=0
81495 On ch=1 n=g#3 v=61
81497 On ch=1 n=g#2 v=53
81501 Par ch=1 c=64 v=104
81505 Par ch=1 c=64 v=24
81506 On ch=1 n=a#4 v=0
81510 Par ch=1 c=64 v=0
81520 On ch=1 n=c#4 v=0
81526 Par ch=1 c=64 v=40
81530 Par ch=1 c=64 v=127
81575 On ch=1 n=g#2 v=0
81579 On ch=1 n=g#4 v=50
81580 On ch=1 n=c#4 v=46
81588 On ch=1 n=g#3 v=0
81643 Par ch=1 c=64 v=88
81647 Par ch=1 c=64 v=24
81648 On ch=1 n=b3 v=69
81651 Par ch=1 c=64 v=0
81652 On ch=1 n=b2 v=55
81667 Par ch=1 c=64 v=72
81671 Par ch=1 c=64 v=127
81674 On ch=1 n=g#4 v=0
81675 On ch=1 n=b2 v=0
81679 On ch=1 n=b3 v=0
81685 On ch=1 n=c#4 v=0
81736 Par ch=1 c=64 v=88
81736 On ch=1 n=c#4 v=40
81736 On ch=1 n=f#4 v=52
81740 On ch=1 n=a#3 v=62
81740 Par ch=1 c=64 v=40
81743 On ch=1 n=a#2 v=57
81743 Par ch=1 c=64 v=0
81756 Par ch=1 c=64 v=56
81760 Par ch=1 c=64 v=104
81764 Par ch=1 c=64 v=127
81766 On ch=1 n=a#2 v=0
81768 On ch=1 n=a#3 v=0
81820 Par ch=1 c=64 v=72
81824 Par ch=1 c=64 v=0
81828 On ch=1 n=g#3 v=52
81832 On ch=1 n=g#2 v=53
81840 Par ch=1 c=64 v=56
81844 Par ch=1 c=64 v=127
81856 On ch=1 n=g#2 v=0
81856 On ch=1 n=g#3 v=0
81869 On ch=1 n=f#4 v=0
81874 On ch=1 n=c#4 v=0
81932 On ch=1 n=f#4 v=58
81934 On ch=1 n=c#4 v=49
81935 On ch=1 n=f#2 v=50
81936 On ch=1 n=f#3 v=48
81937 Par ch=1 c=64 v=56
81941 Par ch=1 c=64 v=0
81963 On ch=1 n=f#2 v=0
81966 Par ch=1 c=64 v=56
81970 Par ch=1 c=64 v=127
81972 On ch=1 n=f#3 v=0
81983 On ch=1 n=c#4 v=0
82000 On ch=1 n=c#5 v=0
82034 On ch=1 n=f#4 v=0
82084 On ch=1 n=c#5 v=71
82089 On ch=1 n=f4 v=59
82091 On ch=1 n=c#3 v=45
82119 Par ch=1 c=64 v=88
82123 Par ch=1 c=64 v=0
82151 Par ch=1 c=64 v=40
82155 Par ch=1 c=64 v=127
82208 On ch=1 n=c#3 v=0
82217 On ch=1 n=f4 v=0
82232 On ch=1 n=c#5 v=0
82346 On ch=1 n=c#5 v=69
82350 On ch=1 n=g#4 v=26
82351 On ch=1 n=c#4 v=38
82353 On ch=1 n=f4 v=55
82386 On ch=1 n=c#4 v=0
82390 On ch=1 n=g#4 v=0
82400 On ch=1 n=f4 v=0
82411 On ch=1 n=c#5 v=0
82510 On ch=1 n=c#5 v=69
82516 On ch=1 n=g#4 v=35
82516 On ch=1 n=f4 v=50
82520 On ch=1 n=c#4 v=34
82557 On ch=1 n=g#4 v=0
82561 On ch=1 n=f4 v=0
82740 On ch=1 n=c#6 v=73
82741 On ch=1 n=c#3 v=36
82946 On ch=1 n=c#3 v=0
82962 On ch=1 n=c#6 v=0
83059 On ch=1 n=c#4 v=0
83065 On ch=1 n=c#5 v=0
83437 Par ch=1 c=64 v=104
83449 Par ch=1 c=64 v=72
83458 Par ch=1 c=64 v=56
83462 Par ch=1 c=64 v=24
83466 Par ch=1 c=64 v=0
83466 Meta TrkEnd
TrkEnd
MTrk
0 Meta 0x21 00
0 Meta TrkName "Robert Schumann"
0 Meta TrkEnd
TrkEnd
MTrk
0 Meta 0x21 00
0 Meta TrkName "Copyright 1998"
0 Meta TrkEnd
TrkEnd
MTrk
0 Meta 0x21 00
0 Meta TrkName "Robert Finley"
0 Meta TrkEnd
TrkEnd
