MFile 1 3 120
MTrk
0 KeySig 2 major
0 SMPTE 96 0 0 0 0
0 Tempo 600000
0 TimeSig 3/4 24 8
180 Tempo 500000
480 Tempo 480000
1440 Tempo 545454
1620 Tempo 500000
1920 Tempo 800000
2160 Tempo 400000
4800 Tempo 461538
5040 Tempo 400000
8640 Tempo 413793
9360 Tempo 400000
11520 Tempo 428571
11640 Tempo 451127
11880 Tempo 480000
12120 Tempo 857142
12240 Tempo 400000
13680 Tempo 444444
13680 TimeSig 2/4 24 8
18960 Tempo 566037
19080 Tempo 697674
19380 Tempo 909090
19680 Tempo 363636
19680 TimeSig 3/4 24 8
34080 Tempo 419580
34440 Tempo 454545
35160 Tempo 521739
35160 TimeSig 3/8 24 8
35340 Tempo 444444
41040 Tempo 394736
41280 Tempo 370370
41460 Tempo 350877
41820 Tempo 331491
42900 Tempo 389610
43560 Tempo 476190
44160 Tempo 444444
47220 Tempo 857142
47220 TimeSig 3/4 24 8
49380 Tempo 1000000
49500 Tempo 1071428
49620 Tempo 1153846
49740 Tempo 1071428
49860 Tempo 1000000
50100 Tempo 895522
55380 Tempo 952380
55500 Tempo 1000000
55620 Tempo 1090909
55860 Tempo 1000000
56220 Tempo 1034482
56340 Tempo 1250000
56460 Tempo 1578947
56580 Tempo 279069
56940 Tempo 279069
61500 Tempo 375000
67020 Tempo 600000
67260 Tempo 279069
69900 Tempo 352941
70260 Tempo 375000
70620 Tempo 400000
70980 Tempo 300000
76620 Tempo 279069
78900 Tempo 750000
78900 TimeSig 3/8 24 8
83760 Tempo 789473
83940 Tempo 923076
84060 Tempo 1000000
84120 Tempo 1090909
84240 Tempo 1333333
84300 Tempo 1333333
84420 Tempo 1500000
84540 Tempo 1714285
84600 Tempo 2000000
84840 Tempo 285714
84840 TimeSig 3/4 24 8
91319 Tempo 413793
91560 Tempo 461538
91800 Tempo 444444
91920 Tempo 413793
92280 Tempo 400000
97320 Tempo 600000
97380 Tempo 400000
97680 Tempo 600000
97740 Tempo 400000
103080 Tempo 600000
103140 Tempo 400000
103440 Tempo 600000
103500 Tempo 400000
105840 Tempo 821917
105960 Tempo 400000
107760 Tempo 461538
108000 Tempo 800000
108120 Tempo 600000
108480 Tempo 800000
108960 Tempo 357142
108960 TimeSig 3/8 24 8
123720 Tempo 370370
126240 Tempo 480000
126600 Tempo 434782
126600 TimeSig 3/4 24 8
152460 Tempo 705882
152520 Tempo 255319
152640 Tempo 324324
152880 Tempo 394736
153000 Tempo 307692
153180 Tempo 461538
153240 Tempo 266666
153360 Tempo 324324
153600 Tempo 461538
153720 Tempo 307692
153960 Tempo 571428
154320 Tempo 454545
156480 Tempo 487804
156660 Tempo 555555
156840 Tempo 645161
157020 Tempo 769230
157920 Tempo 535714
158760 Tempo 512820
158880 Tempo 526315
159000 Tempo 535714
171390 Tempo 789473
171420 Tempo 535714
171540 Tempo 491803
171660 Tempo 491803
171840 Tempo 535714
172140 Tempo 1250000
172200 Tempo 535714
178500 Tempo 1071428
178560 Tempo 789473
178620 Tempo 535714
178740 Tempo 491803
179040 Tempo 535714
179340 Tempo 2000000
179400 Tempo 1016949
179520 Tempo 937500
179640 Tempo 869565
179760 Tempo 869565
180000 Tempo 909090
180120 Tempo 869565
180360 Tempo 909090
180480 Tempo 952380
180600 Tempo 1000000
180720 Tempo 1052631
180810 Tempo 1764705
180840 Tempo 952380
180960 Tempo 869565
181080 Tempo 937500
181200 Tempo 869565
181560 Tempo 1016949
181800 Tempo 1176470
181860 Tempo 1500000
181920 Tempo 1250000
182040 Tempo 1333333
182130 Tempo 2400000
182160 Tempo 1333333
182280 Tempo 491803
182700 Tempo 588235
182820 Tempo 652173
182880 Tempo 705882
183060 Tempo 769230
183180 Tempo 1000000
183300 Tempo 689655
183660 Tempo 1714285
183720 Tempo 923076
183840 Tempo 857142
184080 Tempo 882352
184320 Tempo 909090
184440 Tempo 967741
184560 Tempo 1052631
184680 Tempo 1153846
184800 Tempo 1276595
184920 Tempo 1333333
185040 Tempo 1500000
185070 Tempo 5000000
185100 Tempo 1333333
185160 Tempo 512820
191460 Tempo 1071428
191520 Tempo 789473
191580 Tempo 535714
191700 Tempo 512820
191880 Tempo 535714
192300 Tempo 2000000
192480 Tempo 387096
198840 Tempo 461538
200400 Tempo 521739
200640 Tempo 566037
200880 Tempo 375000
203400 Tempo 428571
203760 Tempo 413793
221400 Tempo 324324
226080 Tempo 342857
226440 Tempo 363636
226800 Tempo 428571
227160 Tempo 705882
227400 Tempo 923076
227760 Tempo 461538
228360 Tempo 285714
228360 Meta TrkEnd
TrkEnd
MTrk
0 Meta 0x21 00
0 SeqSpec 00 00 00 6a 00 04 01
0 Meta TrkName "Melody & Harmony"
0 PrCh ch=1 p=0
0 On ch=1 n=d4 v=90
180 On ch=1 n=d4 v=0
180 On ch=1 n=f#4 v=90
240 On ch=1 n=f#4 v=0
240 On ch=1 n=b4 v=90
300 On ch=1 n=b4 v=0
300 On ch=1 n=a4 v=90
360 On ch=1 n=a4 v=0
360 On ch=1 n=g#4 v=90
420 On ch=1 n=g#4 v=0
420 On ch=1 n=a4 v=90
480 On ch=1 n=a4 v=0
480 On ch=1 n=d5 v=90
540 On ch=1 n=d5 v=0
540 On ch=1 n=f#5 v=90
600 On ch=1 n=f#5 v=0
600 On ch=1 n=b5 v=90
660 On ch=1 n=b5 v=0
660 On ch=1 n=a5 v=90
720 On ch=1 n=a5 v=0
720 On ch=1 n=g#5 v=102
900 On ch=1 n=g#5 v=0
900 On ch=1 n=a5 v=90
960 On ch=1 n=a5 v=0
960 On ch=1 n=d6 v=90
1020 On ch=1 n=d6 v=0
1020 On ch=1 n=f#6 v=90
1080 On ch=1 n=f#6 v=0
1080 On ch=1 n=a6 v=90
1200 On ch=1 n=a6 v=0
1440 On ch=1 n=g#4 v=65
1620 On ch=1 n=g#4 v=0
1620 On ch=1 n=a4 v=65
1680 On ch=1 n=a4 v=0
1680 On ch=1 n=d5 v=65
1740 On ch=1 n=d5 v=0
1740 On ch=1 n=f#5 v=65
1800 On ch=1 n=f#5 v=0
1800 On ch=1 n=a5 v=65
1920 On ch=1 n=a5 v=0
2160 On ch=1 n=a5 v=65
2160 On ch=1 n=a6 v=65
2220 On ch=1 n=a5 v=0
2220 On ch=1 n=a6 v=0
2220 On ch=1 n=b5 v=65
2220 On ch=1 n=b6 v=65
2280 On ch=1 n=b5 v=0
2280 On ch=1 n=b6 v=0
2280 On ch=1 n=c#6 v=71
2280 On ch=1 n=c#7 v=71
2340 On ch=1 n=c#6 v=0
2340 On ch=1 n=c#7 v=0
2340 On ch=1 n=d6 v=71
2340 On ch=1 n=d7 v=71
2400 On ch=1 n=d6 v=0
2400 On ch=1 n=d7 v=0
2400 On ch=1 n=e6 v=77
2400 On ch=1 n=e7 v=77
2460 On ch=1 n=e6 v=0
2460 On ch=1 n=e7 v=0
2460 On ch=1 n=f#6 v=78
2460 On ch=1 n=f#7 v=78
2520 On ch=1 n=f#6 v=0
2520 On ch=1 n=f#7 v=0
2520 On ch=1 n=g6 v=84
2520 On ch=1 n=g7 v=84
2640 On ch=1 n=g6 v=0
2640 On ch=1 n=g7 v=0
2640 On ch=1 n=f#6 v=84
2640 On ch=1 n=f#7 v=84
2760 On ch=1 n=f#6 v=0
2760 On ch=1 n=f#7 v=0
2760 On ch=1 n=e6 v=84
2760 On ch=1 n=e7 v=84
2880 On ch=1 n=e6 v=0
2880 On ch=1 n=e7 v=0
2880 On ch=1 n=d6 v=84
2880 On ch=1 n=d7 v=84
3060 On ch=1 n=d6 v=0
3060 On ch=1 n=d7 v=0
3060 On ch=1 n=c#6 v=84
3060 On ch=1 n=c#7 v=84
3120 On ch=1 n=c#6 v=0
3120 On ch=1 n=c#7 v=0
3120 On ch=1 n=b5 v=84
3120 On ch=1 n=b6 v=84
3240 On ch=1 n=b5 v=0
3240 On ch=1 n=b6 v=0
3240 On ch=1 n=a5 v=84
3240 On ch=1 n=a6 v=84
3600 On ch=1 n=a5 v=0
3600 On ch=1 n=a6 v=0
3600 On ch=1 n=b5 v=84
3600 On ch=1 n=b6 v=84
3660 On ch=1 n=b5 v=0
3660 On ch=1 n=b6 v=0
3660 On ch=1 n=c#6 v=84
3660 On ch=1 n=c#7 v=84
3720 On ch=1 n=c#6 v=0
3720 On ch=1 n=c#7 v=0
3720 On ch=1 n=d6 v=84
3720 On ch=1 n=d7 v=84
3780 On ch=1 n=d6 v=0
3780 On ch=1 n=d7 v=0
3780 On ch=1 n=e6 v=84
3780 On ch=1 n=e7 v=84
3840 On ch=1 n=e6 v=0
3840 On ch=1 n=e7 v=0
3840 On ch=1 n=f#6 v=84
3840 On ch=1 n=f#7 v=84
3900 On ch=1 n=f#6 v=0
3900 On ch=1 n=f#7 v=0
3900 On ch=1 n=g6 v=84
3900 On ch=1 n=g7 v=84
3960 On ch=1 n=g6 v=0
3960 On ch=1 n=g7 v=0
3960 On ch=1 n=a6 v=84
3960 On ch=1 n=a7 v=84
4080 On ch=1 n=a6 v=0
4080 On ch=1 n=a7 v=0
4080 On ch=1 n=g6 v=84
4080 On ch=1 n=g7 v=84
4200 On ch=1 n=g6 v=0
4200 On ch=1 n=g7 v=0
4200 On ch=1 n=e6 v=84
4200 On ch=1 n=e7 v=84
4320 On ch=1 n=e6 v=0
4320 On ch=1 n=e7 v=0
4320 On ch=1 n=d6 v=84
4320 On ch=1 n=d7 v=84
4380 On ch=1 n=d6 v=0
4380 On ch=1 n=d7 v=0
4380 On ch=1 n=e6 v=84
4380 On ch=1 n=e7 v=84
4440 On ch=1 n=e6 v=0
4440 On ch=1 n=e7 v=0
4440 On ch=1 n=f#6 v=90
4440 On ch=1 n=f#7 v=90
4500 On ch=1 n=f#6 v=0
4500 On ch=1 n=f#7 v=0
4500 On ch=1 n=g6 v=90
4500 On ch=1 n=g7 v=90
4560 On ch=1 n=g6 v=0
4560 On ch=1 n=g7 v=0
4560 On ch=1 n=a6 v=96
4560 On ch=1 n=a7 v=96
4620 On ch=1 n=a6 v=0
4620 On ch=1 n=a7 v=0
4620 On ch=1 n=b6 v=96
4620 On ch=1 n=b7 v=96
4680 On ch=1 n=b6 v=0
4680 On ch=1 n=b7 v=0
4680 On ch=1 n=c#7 v=102
4680 On ch=1 n=c#8 v=102
4740 On ch=1 n=c#7 v=0
4740 On ch=1 n=c#8 v=0
4800 On ch=1 n=d7 v=115
4800 On ch=1 n=d8 v=115
5040 On ch=1 n=d7 v=0
5040 On ch=1 n=d8 v=0
5040 On ch=1 n=a5 v=65
5040 On ch=1 n=a6 v=65
5100 On ch=1 n=a5 v=0
5100 On ch=1 n=a6 v=0
5100 On ch=1 n=b5 v=65
5100 On ch=1 n=b6 v=65
5160 On ch=1 n=b5 v=0
5160 On ch=1 n=b6 v=0
5160 On ch=1 n=c#6 v=71
5160 On ch=1 n=c#7 v=71
5220 On ch=1 n=c#6 v=0
5220 On ch=1 n=c#7 v=0
5220 On ch=1 n=d6 v=71
5220 On ch=1 n=d7 v=71
5280 On ch=1 n=d6 v=0
5280 On ch=1 n=d7 v=0
5280 On ch=1 n=e6 v=77
5280 On ch=1 n=e7 v=77
5340 On ch=1 n=e6 v=0
5340 On ch=1 n=e7 v=0
5340 On ch=1 n=f#6 v=78
5340 On ch=1 n=f#7 v=78
5400 On ch=1 n=f#6 v=0
5400 On ch=1 n=f#7 v=0
5400 On ch=1 n=g6 v=84
5400 On ch=1 n=g7 v=84
5520 On ch=1 n=g6 v=0
5520 On ch=1 n=g7 v=0
5520 On ch=1 n=f#6 v=84
5520 On ch=1 n=f#7 v=84
5640 On ch=1 n=f#6 v=0
5640 On ch=1 n=f#7 v=0
5640 On ch=1 n=e6 v=84
5640 On ch=1 n=e7 v=84
5760 On ch=1 n=e6 v=0
5760 On ch=1 n=e7 v=0
5760 On ch=1 n=d6 v=84
5760 On ch=1 n=d7 v=84
5940 On ch=1 n=d6 v=0
5940 On ch=1 n=d7 v=0
5940 On ch=1 n=c#6 v=84
5940 On ch=1 n=c#7 v=84
6000 On ch=1 n=c#6 v=0
6000 On ch=1 n=c#7 v=0
6000 On ch=1 n=b5 v=84
6000 On ch=1 n=b6 v=84
6120 On ch=1 n=b5 v=0
6120 On ch=1 n=b6 v=0
6120 On ch=1 n=a5 v=84
6120 On ch=1 n=a6 v=84
6480 On ch=1 n=a5 v=0
6480 On ch=1 n=a6 v=0
6480 On ch=1 n=b5 v=84
6480 On ch=1 n=b6 v=84
6540 On ch=1 n=b5 v=0
6540 On ch=1 n=b6 v=0
6540 On ch=1 n=c#6 v=84
6540 On ch=1 n=c#7 v=84
6600 On ch=1 n=c#6 v=0
6600 On ch=1 n=c#7 v=0
6600 On ch=1 n=d6 v=84
6600 On ch=1 n=d7 v=84
6660 On ch=1 n=d6 v=0
6660 On ch=1 n=d7 v=0
6660 On ch=1 n=e6 v=84
6660 On ch=1 n=e7 v=84
6720 On ch=1 n=e6 v=0
6720 On ch=1 n=e7 v=0
6720 On ch=1 n=f#6 v=84
6720 On ch=1 n=f#7 v=84
6780 On ch=1 n=f#6 v=0
6780 On ch=1 n=f#7 v=0
6780 On ch=1 n=g6 v=84
6780 On ch=1 n=g7 v=84
6840 On ch=1 n=g6 v=0
6840 On ch=1 n=g7 v=0
6840 On ch=1 n=a6 v=84
6840 On ch=1 n=a7 v=84
6960 On ch=1 n=a6 v=0
6960 On ch=1 n=a7 v=0
6960 On ch=1 n=g6 v=84
6960 On ch=1 n=g7 v=84
7080 On ch=1 n=g6 v=0
7080 On ch=1 n=g7 v=0
7080 On ch=1 n=e6 v=84
7080 On ch=1 n=e7 v=84
7200 On ch=1 n=e6 v=0
7200 On ch=1 n=e7 v=0
7200 On ch=1 n=d6 v=84
7200 On ch=1 n=d7 v=84
7260 On ch=1 n=d6 v=0
7260 On ch=1 n=d7 v=0
7260 On ch=1 n=e6 v=84
7260 On ch=1 n=e7 v=84
7320 On ch=1 n=e6 v=0
7320 On ch=1 n=e7 v=0
7320 On ch=1 n=f#6 v=90
7320 On ch=1 n=f#7 v=90
7380 On ch=1 n=f#6 v=0
7380 On ch=1 n=f#7 v=0
7380 On ch=1 n=g6 v=90
7380 On ch=1 n=g7 v=90
7440 On ch=1 n=g6 v=0
7440 On ch=1 n=g7 v=0
7440 On ch=1 n=a6 v=96
7440 On ch=1 n=a7 v=96
7500 On ch=1 n=a6 v=0
7500 On ch=1 n=a7 v=0
7500 On ch=1 n=b6 v=96
7500 On ch=1 n=b7 v=96
7560 On ch=1 n=b6 v=0
7560 On ch=1 n=b7 v=0
7560 On ch=1 n=c#7 v=102
7560 On ch=1 n=c#8 v=102
7620 On ch=1 n=c#7 v=0
7620 On ch=1 n=c#8 v=0
7680 On ch=1 n=d7 v=115
7680 On ch=1 n=d8 v=115
7920 On ch=1 n=d7 v=0
7920 On ch=1 n=d8 v=0
7920 On ch=1 n=c8 v=65
7920 On ch=1 n=c7 v=65
7980 On ch=1 n=c8 v=0
7980 On ch=1 n=c7 v=0
8040 On ch=1 n=c#8 v=73
8040 On ch=1 n=c#7 v=73
8280 On ch=1 n=c#8 v=0
8280 On ch=1 n=c#7 v=0
8280 On ch=1 n=b7 v=65
8280 On ch=1 n=b6 v=65
8340 On ch=1 n=b7 v=0
8340 On ch=1 n=b6 v=0
8400 On ch=1 n=c8 v=73
8400 On ch=1 n=c7 v=73
8640 On ch=1 n=c8 v=0
8640 On ch=1 n=c7 v=0
8640 On ch=1 n=a#7 v=65
8640 On ch=1 n=a#6 v=65
8760 On ch=1 n=a#7 v=0
8760 On ch=1 n=a#6 v=0
8760 On ch=1 n=b6 v=65
8760 On ch=1 n=b7 v=65
8820 On ch=1 n=b6 v=0
8820 On ch=1 n=b7 v=0
9000 Par ch=1 c=64 v=76
9000 On ch=1 n=g#7 v=65
9000 On ch=1 n=g#6 v=65
9120 On ch=1 n=g#7 v=0
9120 On ch=1 n=g#6 v=0
9120 On ch=1 n=a7 v=65
9120 On ch=1 n=a6 v=65
9180 On ch=1 n=a7 v=0
9180 On ch=1 n=a6 v=0
9360 On ch=1 n=a5 v=65
9360 On ch=1 n=a6 v=65
9420 On ch=1 n=a5 v=0
9420 On ch=1 n=a6 v=0
9420 On ch=1 n=b5 v=65
9420 On ch=1 n=b6 v=65
9480 On ch=1 n=b5 v=0
9480 On ch=1 n=b6 v=0
9480 On ch=1 n=c#6 v=77
9480 On ch=1 n=c#7 v=77
9540 On ch=1 n=c#6 v=0
9540 On ch=1 n=c#7 v=0
9540 On ch=1 n=d6 v=77
9540 On ch=1 n=d7 v=77
9600 On ch=1 n=d6 v=0
9600 On ch=1 n=d7 v=0
9600 On ch=1 n=e6 v=89
9600 On ch=1 n=e7 v=89
9660 On ch=1 n=e6 v=0
9660 On ch=1 n=e7 v=0
9660 On ch=1 n=f#6 v=89
9660 On ch=1 n=f#7 v=89
9720 On ch=1 n=f#6 v=0
9720 On ch=1 n=f#7 v=0
9720 On ch=1 n=g6 v=102
9720 On ch=1 n=g7 v=102
9780 Par ch=1 c=64 v=0
9840 On ch=1 n=g6 v=0
9840 On ch=1 n=g7 v=0
9840 On ch=1 n=f#6 v=102
9840 On ch=1 n=f#7 v=102
9960 On ch=1 n=f#6 v=0
9960 On ch=1 n=f#7 v=0
9960 On ch=1 n=e6 v=102
9960 On ch=1 n=e7 v=102
10080 On ch=1 n=e6 v=0
10080 On ch=1 n=e7 v=0
10080 On ch=1 n=d6 v=102
10080 On ch=1 n=d7 v=102
10140 On ch=1 n=d6 v=0
10140 On ch=1 n=d7 v=0
10140 On ch=1 n=e6 v=102
10140 On ch=1 n=e7 v=102
10200 On ch=1 n=e6 v=0
10200 On ch=1 n=e7 v=0
10200 On ch=1 n=f#6 v=102
10200 On ch=1 n=f#7 v=102
10260 On ch=1 n=f#6 v=0
10260 On ch=1 n=f#7 v=0
10260 On ch=1 n=g6 v=102
10260 On ch=1 n=g7 v=102
10320 On ch=1 n=g6 v=0
10320 On ch=1 n=g7 v=0
10320 On ch=1 n=a6 v=102
10320 On ch=1 n=a7 v=102
10380 On ch=1 n=a6 v=0
10380 On ch=1 n=a7 v=0
10380 On ch=1 n=b6 v=102
10380 On ch=1 n=b7 v=102
10440 On ch=1 n=b6 v=0
10440 On ch=1 n=b7 v=0
10440 On ch=1 n=c#7 v=102
10440 On ch=1 n=c#8 v=102
10500 On ch=1 n=c#7 v=0
10500 On ch=1 n=c#8 v=0
10560 On ch=1 n=d7 v=115
10560 On ch=1 n=d8 v=115
10800 On ch=1 n=d7 v=0
10800 On ch=1 n=d8 v=0
10800 On ch=1 n=c8 v=65
10800 On ch=1 n=c7 v=65
10860 On ch=1 n=c8 v=0
10860 On ch=1 n=c7 v=0
10920 On ch=1 n=c#8 v=73
10920 On ch=1 n=c#7 v=73
11160 On ch=1 n=c#8 v=0
11160 On ch=1 n=c#7 v=0
11160 On ch=1 n=b7 v=65
11160 On ch=1 n=b6 v=65
11220 On ch=1 n=b7 v=0
11220 On ch=1 n=b6 v=0
11280 On ch=1 n=c8 v=73
11280 On ch=1 n=c7 v=73
11520 On ch=1 n=c8 v=0
11520 On ch=1 n=c7 v=0
11520 On ch=1 n=a#7 v=65
11520 On ch=1 n=a#6 v=65
11640 On ch=1 n=a#7 v=0
11640 On ch=1 n=a#6 v=0
11640 On ch=1 n=b6 v=65
11640 On ch=1 n=b7 v=65
11700 On ch=1 n=b6 v=0
11700 On ch=1 n=b7 v=0
11880 Par ch=1 c=64 v=76
11880 On ch=1 n=g#7 v=65
11880 On ch=1 n=g#6 v=65
12000 On ch=1 n=g#7 v=0
12000 On ch=1 n=g#6 v=0
12000 On ch=1 n=a7 v=65
12000 On ch=1 n=a6 v=65
12060 On ch=1 n=a7 v=0
12060 On ch=1 n=a6 v=0
12240 On ch=1 n=a5 v=65
12240 On ch=1 n=a6 v=65
12300 On ch=1 n=a5 v=0
12300 On ch=1 n=a6 v=0
12300 On ch=1 n=b5 v=65
12300 On ch=1 n=b6 v=65
12360 On ch=1 n=b5 v=0
12360 On ch=1 n=b6 v=0
12360 On ch=1 n=c#6 v=77
12360 On ch=1 n=c#7 v=77
12420 On ch=1 n=c#6 v=0
12420 On ch=1 n=c#7 v=0
12420 On ch=1 n=d6 v=77
12420 On ch=1 n=d7 v=77
12480 On ch=1 n=d6 v=0
12480 On ch=1 n=d7 v=0
12480 On ch=1 n=e6 v=89
12480 On ch=1 n=e7 v=89
12540 On ch=1 n=e6 v=0
12540 On ch=1 n=e7 v=0
12540 On ch=1 n=f#6 v=89
12540 On ch=1 n=f#7 v=89
12600 On ch=1 n=f#6 v=0
12600 On ch=1 n=f#7 v=0
12600 On ch=1 n=g6 v=102
12600 On ch=1 n=g7 v=102
12660 Par ch=1 c=64 v=0
12720 On ch=1 n=g6 v=0
12720 On ch=1 n=g7 v=0
12720 On ch=1 n=f#6 v=102
12720 On ch=1 n=f#7 v=102
12840 On ch=1 n=f#6 v=0
12840 On ch=1 n=f#7 v=0
12840 On ch=1 n=e6 v=102
12840 On ch=1 n=e7 v=102
12960 On ch=1 n=e6 v=0
12960 On ch=1 n=e7 v=0
12960 On ch=1 n=d6 v=102
12960 On ch=1 n=d7 v=102
13020 On ch=1 n=d6 v=0
13020 On ch=1 n=d7 v=0
13020 On ch=1 n=e6 v=102
13020 On ch=1 n=e7 v=102
13080 On ch=1 n=e6 v=0
13080 On ch=1 n=e7 v=0
13080 On ch=1 n=f#6 v=102
13080 On ch=1 n=f#7 v=102
13140 On ch=1 n=f#6 v=0
13140 On ch=1 n=f#7 v=0
13140 On ch=1 n=g6 v=102
13140 On ch=1 n=g7 v=102
13200 On ch=1 n=g6 v=0
13200 On ch=1 n=g7 v=0
13200 On ch=1 n=a6 v=102
13200 On ch=1 n=a7 v=102
13260 On ch=1 n=a6 v=0
13260 On ch=1 n=a7 v=0
13260 On ch=1 n=b6 v=102
13260 On ch=1 n=b7 v=102
13320 On ch=1 n=b6 v=0
13320 On ch=1 n=b7 v=0
13320 On ch=1 n=c#7 v=102
13320 On ch=1 n=c#8 v=102
13380 On ch=1 n=c#7 v=0
13380 On ch=1 n=c#8 v=0
13440 On ch=1 n=d7 v=115
13440 On ch=1 n=d8 v=115
13680 On ch=1 n=d7 v=0
13680 On ch=1 n=d8 v=0
13890 On ch=1 n=a#3 v=127
13890 On ch=1 n=a#2 v=127
13920 On ch=1 n=a#3 v=0
13920 On ch=1 n=a#2 v=0
13920 Par ch=1 c=64 v=127
13920 On ch=1 n=d#4 v=127
13920 On ch=1 n=d#3 v=127
13950 On ch=1 n=d#4 v=0
13950 On ch=1 n=d#3 v=0
13950 On ch=1 n=g4 v=127
13950 On ch=1 n=g3 v=127
13980 On ch=1 n=g4 v=0
13980 On ch=1 n=g3 v=0
13980 On ch=1 n=a#4 v=127
13980 On ch=1 n=a#3 v=127
14010 On ch=1 n=a#4 v=0
14010 On ch=1 n=a#3 v=0
14010 On ch=1 n=d#5 v=127
14010 On ch=1 n=d#4 v=127
14040 On ch=1 n=d#5 v=0
14040 On ch=1 n=d#4 v=0
14040 On ch=1 n=g5 v=127
14040 On ch=1 n=g4 v=127
14070 On ch=1 n=g5 v=0
14070 On ch=1 n=g4 v=0
14070 On ch=1 n=a#5 v=127
14070 On ch=1 n=a#4 v=127
14100 On ch=1 n=a#5 v=0
14100 On ch=1 n=a#4 v=0
14100 On ch=1 n=d#6 v=127
14100 On ch=1 n=d#5 v=127
14130 On ch=1 n=d#6 v=0
14130 On ch=1 n=d#5 v=0
14130 On ch=1 n=g6 v=127
14130 On ch=1 n=g5 v=127
14160 On ch=1 n=g6 v=0
14160 On ch=1 n=g5 v=0
14160 On ch=1 n=a#6 v=127
14160 On ch=1 n=a#5 v=127
14190 On ch=1 n=a#6 v=0
14190 On ch=1 n=a#5 v=0
14190 On ch=1 n=d#7 v=127
14190 On ch=1 n=d#6 v=127
14220 On ch=1 n=d#7 v=0
14220 On ch=1 n=d#6 v=0
14220 On ch=1 n=g7 v=127
14220 On ch=1 n=g6 v=127
14250 On ch=1 n=g7 v=0
14250 On ch=1 n=g6 v=0
14250 On ch=1 n=a#7 v=127
14250 On ch=1 n=a#6 v=127
14265 Par ch=1 c=64 v=0
14280 On ch=1 n=a#7 v=0
14280 On ch=1 n=a#6 v=0
14280 On ch=1 n=c7 v=127
14280 On ch=1 n=c8 v=127
14310 On ch=1 n=c7 v=0
14310 On ch=1 n=c8 v=0
14310 On ch=1 n=a#5 v=127
14310 On ch=1 n=a#6 v=127
14340 On ch=1 n=a#5 v=0
14340 On ch=1 n=a#6 v=0
14340 On ch=1 n=g7 v=127
14340 On ch=1 n=g6 v=127
14370 On ch=1 n=g7 v=0
14370 On ch=1 n=g6 v=0
14370 On ch=1 n=d#5 v=127
14370 On ch=1 n=d#6 v=127
14400 On ch=1 n=d#5 v=0
14400 On ch=1 n=d#6 v=0
14400 On ch=1 n=c7 v=127
14400 On ch=1 n=c6 v=127
14430 On ch=1 n=c7 v=0
14430 On ch=1 n=c6 v=0
14430 On ch=1 n=a#4 v=127
14430 On ch=1 n=a#5 v=127
14460 On ch=1 n=a#4 v=0
14460 On ch=1 n=a#5 v=0
14460 On ch=1 n=g6 v=127
14460 On ch=1 n=g5 v=127
14490 On ch=1 n=g6 v=0
14490 On ch=1 n=g5 v=0
14490 On ch=1 n=d#4 v=127
14490 On ch=1 n=d#5 v=127
14520 On ch=1 n=d#4 v=0
14520 On ch=1 n=d#5 v=0
14520 On ch=1 n=c6 v=127
14520 On ch=1 n=c5 v=127
14550 On ch=1 n=c6 v=0
14550 On ch=1 n=c5 v=0
14550 On ch=1 n=a#3 v=127
14550 On ch=1 n=a#4 v=127
14580 On ch=1 n=a#3 v=0
14580 On ch=1 n=a#4 v=0
14580 On ch=1 n=g4 v=127
14580 On ch=1 n=g5 v=127
14610 On ch=1 n=g4 v=0
14610 On ch=1 n=g5 v=0
14610 On ch=1 n=d#3 v=127
14610 On ch=1 n=d#4 v=127
14640 On ch=1 n=d#3 v=0
14640 On ch=1 n=d#4 v=0
14640 Par ch=1 c=64 v=127
14640 On ch=1 n=d4 v=127
14670 On ch=1 n=d4 v=0
14670 On ch=1 n=a#4 v=127
14700 On ch=1 n=a#4 v=0
14700 On ch=1 n=a#2 v=127
14700 On ch=1 n=a#3 v=127
14700 On ch=1 n=d5 v=127
14730 On ch=1 n=d5 v=0
14730 On ch=1 n=a#5 v=127
14760 On ch=1 n=a#5 v=0
14760 On ch=1 n=d6 v=127
14790 On ch=1 n=d6 v=0
14790 On ch=1 n=a#6 v=127
14820 On ch=1 n=a#2 v=0
14820 On ch=1 n=a#3 v=0
14820 On ch=1 n=a#6 v=0
14820 Par ch=1 c=64 v=0
14850 On ch=1 n=d#6 v=90
14880 On ch=1 n=d#6 v=0
14880 On ch=1 n=g#6 v=90
14910 On ch=1 n=f4 v=90
14940 On ch=1 n=g#6 v=0
14940 On ch=1 n=f4 v=0
14940 On ch=1 n=g#5 v=90
14970 On ch=1 n=g#5 v=0
14970 On ch=1 n=c#6 v=90
15000 On ch=1 n=c#6 v=0
15000 On ch=1 n=c6 v=90
15030 On ch=1 n=d#4 v=90
15060 On ch=1 n=c6 v=0
15060 On ch=1 n=d#4 v=0
15060 On ch=1 n=g5 v=90
15090 On ch=1 n=g5 v=0
15090 On ch=1 n=c6 v=90
15120 On ch=1 n=c6 v=0
15120 On ch=1 n=f6 v=90
15150 On ch=1 n=c#4 v=90
15180 On ch=1 n=f6 v=0
15180 On ch=1 n=c#4 v=0
15180 On ch=1 n=f5 v=90
15210 On ch=1 n=f5 v=0
15210 On ch=1 n=a#5 v=90
15240 On ch=1 n=a#5 v=0
15240 On ch=1 n=f6 v=90
15270 On ch=1 n=b3 v=90
15300 On ch=1 n=b3 v=0
15300 On ch=1 n=d5 v=90
15330 On ch=1 n=f6 v=0
15330 On ch=1 n=d5 v=0
15330 On ch=1 n=g#5 v=90
15360 On ch=1 n=g#5 v=0
15360 On ch=1 n=g5 v=90
15390 On ch=1 n=a#3 v=90
15420 On ch=1 n=a#3 v=0
15420 On ch=1 n=c#5 v=90
15450 On ch=1 n=g5 v=0
15450 On ch=1 n=c#5 v=0
15450 On ch=1 n=a#5 v=90
15480 On ch=1 n=a#5 v=0
15480 On ch=1 n=d#6 v=90
15510 On ch=1 n=g3 v=90
15540 On ch=1 n=g3 v=0
15540 On ch=1 n=a#4 v=90
15570 On ch=1 n=d#6 v=0
15570 On ch=1 n=a#4 v=0
15570 On ch=1 n=c#6 v=90
15600 On ch=1 n=c#6 v=0
15600 On ch=1 n=b5 v=90
15630 On ch=1 n=g#3 v=90
15660 On ch=1 n=g#3 v=0
15660 On ch=1 n=c5 v=90
15690 On ch=1 n=b5 v=0
15690 On ch=1 n=c5 v=0
15690 On ch=1 n=c6 v=90
15720 On ch=1 n=c6 v=0
15720 On ch=1 n=g#5 v=90
15750 On ch=1 n=c4 v=90
15780 On ch=1 n=c4 v=0
15780 On ch=1 n=d#5 v=90
15810 On ch=1 n=g#5 v=0
15810 On ch=1 n=d#5 v=0
15810 On ch=1 n=d#6 v=90
15840 On ch=1 n=d#6 v=0
15840 On ch=1 n=g#6 v=53
15870 On ch=1 n=f4 v=53
15900 On ch=1 n=g#6 v=0
15900 On ch=1 n=f4 v=0
15900 On ch=1 n=g#5 v=53
15930 On ch=1 n=g#5 v=0
15930 On ch=1 n=c#6 v=53
15960 On ch=1 n=c#6 v=0
15960 On ch=1 n=c6 v=53
15990 On ch=1 n=d#4 v=53
16020 On ch=1 n=c6 v=0
16020 On ch=1 n=d#4 v=0
16020 On ch=1 n=g5 v=53
16050 On ch=1 n=g5 v=0
16050 On ch=1 n=c6 v=53
16080 On ch=1 n=c6 v=0
16080 On ch=1 n=f6 v=53
16110 On ch=1 n=c#4 v=53
16140 On ch=1 n=f6 v=0
16140 On ch=1 n=c#4 v=0
16140 On ch=1 n=f5 v=53
16170 On ch=1 n=f5 v=0
16170 On ch=1 n=a#5 v=53
16200 On ch=1 n=a#5 v=0
16200 On ch=1 n=f6 v=53
16230 On ch=1 n=b3 v=53
16260 On ch=1 n=b3 v=0
16260 On ch=1 n=d5 v=53
16290 On ch=1 n=f6 v=0
16290 On ch=1 n=d5 v=0
16290 On ch=1 n=g#5 v=53
16320 On ch=1 n=g#5 v=0
16320 On ch=1 n=g5 v=53
16350 On ch=1 n=a#3 v=53
16380 On ch=1 n=a#3 v=0
16380 On ch=1 n=c#5 v=53
16410 On ch=1 n=g5 v=0
16410 On ch=1 n=c#5 v=0
16410 On ch=1 n=a#5 v=53
16440 On ch=1 n=a#5 v=0
16440 On ch=1 n=d#6 v=53
16470 On ch=1 n=g3 v=53
16500 On ch=1 n=g3 v=0
16500 On ch=1 n=a#4 v=53
16530 On ch=1 n=d#6 v=0
16530 On ch=1 n=a#4 v=0
16530 On ch=1 n=c#6 v=53
16560 On ch=1 n=c#6 v=0
16560 On ch=1 n=b5 v=53
16590 On ch=1 n=g#3 v=53
16620 On ch=1 n=g#3 v=0
16620 On ch=1 n=c5 v=53
16650 On ch=1 n=b5 v=0
16650 On ch=1 n=c5 v=0
16650 On ch=1 n=c6 v=53
16680 On ch=1 n=c6 v=0
16680 On ch=1 n=g#5 v=53
16740 On ch=1 n=g#5 v=0
16770 On ch=1 n=a#3 v=127
16770 On ch=1 n=a#2 v=127
16800 On ch=1 n=a#3 v=0
16800 On ch=1 n=a#2 v=0
16800 Par ch=1 c=64 v=127
16800 On ch=1 n=d#4 v=127
16800 On ch=1 n=d#3 v=127
16830 On ch=1 n=d#4 v=0
16830 On ch=1 n=d#3 v=0
16830 On ch=1 n=g4 v=127
16830 On ch=1 n=g3 v=127
16860 On ch=1 n=g4 v=0
16860 On ch=1 n=g3 v=0
16860 On ch=1 n=a#4 v=127
16860 On ch=1 n=a#3 v=127
16890 On ch=1 n=a#4 v=0
16890 On ch=1 n=a#3 v=0
16890 On ch=1 n=d#5 v=127
16890 On ch=1 n=d#4 v=127
16920 On ch=1 n=d#5 v=0
16920 On ch=1 n=d#4 v=0
16920 On ch=1 n=g5 v=127
16920 On ch=1 n=g4 v=127
16950 On ch=1 n=g5 v=0
16950 On ch=1 n=g4 v=0
16950 On ch=1 n=a#5 v=127
16950 On ch=1 n=a#4 v=127
16980 On ch=1 n=a#5 v=0
16980 On ch=1 n=a#4 v=0
16980 On ch=1 n=d#6 v=127
16980 On ch=1 n=d#5 v=127
17010 On ch=1 n=d#6 v=0
17010 On ch=1 n=d#5 v=0
17010 On ch=1 n=g6 v=127
17010 On ch=1 n=g5 v=127
17040 On ch=1 n=g6 v=0
17040 On ch=1 n=g5 v=0
17040 On ch=1 n=a#6 v=127
17040 On ch=1 n=a#5 v=127
17070 On ch=1 n=a#6 v=0
17070 On ch=1 n=a#5 v=0
17070 On ch=1 n=d#7 v=127
17070 On ch=1 n=d#6 v=127
17100 On ch=1 n=d#7 v=0
17100 On ch=1 n=d#6 v=0
17100 On ch=1 n=g7 v=127
17100 On ch=1 n=g6 v=127
17130 On ch=1 n=g7 v=0
17130 On ch=1 n=g6 v=0
17130 On ch=1 n=a#7 v=127
17130 On ch=1 n=a#6 v=127
17145 Par ch=1 c=64 v=0
17160 On ch=1 n=a#7 v=0
17160 On ch=1 n=a#6 v=0
17160 On ch=1 n=c7 v=127
17160 On ch=1 n=c8 v=127
17190 On ch=1 n=c7 v=0
17190 On ch=1 n=c8 v=0
17190 On ch=1 n=a#5 v=127
17190 On ch=1 n=a#6 v=127
17220 On ch=1 n=a#5 v=0
17220 On ch=1 n=a#6 v=0
17220 On ch=1 n=g7 v=127
17220 On ch=1 n=g6 v=127
17250 On ch=1 n=g7 v=0
17250 On ch=1 n=g6 v=0
17250 On ch=1 n=d#5 v=127
17250 On ch=1 n=d#6 v=127
17280 On ch=1 n=d#5 v=0
17280 On ch=1 n=d#6 v=0
17280 On ch=1 n=c7 v=127
17280 On ch=1 n=c6 v=127
17310 On ch=1 n=c7 v=0
17310 On ch=1 n=c6 v=0
17310 On ch=1 n=a#4 v=127
17310 On ch=1 n=a#5 v=127
17340 On ch=1 n=a#4 v=0
17340 On ch=1 n=a#5 v=0
17340 On ch=1 n=g6 v=127
17340 On ch=1 n=g5 v=127
17370 On ch=1 n=g6 v=0
17370 On ch=1 n=g5 v=0
17370 On ch=1 n=d#4 v=127
17370 On ch=1 n=d#5 v=127
17400 On ch=1 n=d#4 v=0
17400 On ch=1 n=d#5 v=0
17400 On ch=1 n=c6 v=127
17400 On ch=1 n=c5 v=127
17430 On ch=1 n=c6 v=0
17430 On ch=1 n=c5 v=0
17430 On ch=1 n=a#3 v=127
17430 On ch=1 n=a#4 v=127
17460 On ch=1 n=a#3 v=0
17460 On ch=1 n=a#4 v=0
17460 On ch=1 n=g4 v=127
17460 On ch=1 n=g5 v=127
17490 On ch=1 n=g4 v=0
17490 On ch=1 n=g5 v=0
17490 On ch=1 n=d#3 v=127
17490 On ch=1 n=d#4 v=127
17520 On ch=1 n=d#3 v=0
17520 On ch=1 n=d#4 v=0
17520 Par ch=1 c=64 v=127
17520 On ch=1 n=d4 v=127
17550 On ch=1 n=d4 v=0
17550 On ch=1 n=a#4 v=127
17580 On ch=1 n=a#4 v=0
17580 On ch=1 n=a#2 v=127
17580 On ch=1 n=a#3 v=127
17580 On ch=1 n=d5 v=127
17610 On ch=1 n=d5 v=0
17610 On ch=1 n=a#5 v=127
17640 On ch=1 n=a#5 v=0
17640 On ch=1 n=d6 v=127
17670 On ch=1 n=d6 v=0
17670 On ch=1 n=a#6 v=127
17700 On ch=1 n=a#2 v=0
17700 On ch=1 n=a#3 v=0
17700 On ch=1 n=a#6 v=0
17700 Par ch=1 c=64 v=0
17730 On ch=1 n=d#6 v=90
17760 On ch=1 n=d#6 v=0
17760 On ch=1 n=g#6 v=90
17790 On ch=1 n=f4 v=90
17820 On ch=1 n=g#6 v=0
17820 On ch=1 n=f4 v=0
17820 On ch=1 n=g#5 v=90
17850 On ch=1 n=g#5 v=0
17850 On ch=1 n=c#6 v=90
17880 On ch=1 n=c#6 v=0
17880 On ch=1 n=c6 v=90
17910 On ch=1 n=d#4 v=90
17940 On ch=1 n=c6 v=0
17940 On ch=1 n=d#4 v=0
17940 On ch=1 n=g5 v=90
17970 On ch=1 n=g5 v=0
17970 On ch=1 n=c6 v=90
18000 On ch=1 n=c6 v=0
18000 On ch=1 n=f6 v=90
18030 On ch=1 n=c#4 v=90
18060 On ch=1 n=f6 v=0
18060 On ch=1 n=c#4 v=0
18060 On ch=1 n=f5 v=90
18090 On ch=1 n=f5 v=0
18090 On ch=1 n=a#5 v=90
18120 On ch=1 n=a#5 v=0
18120 On ch=1 n=f6 v=90
18150 On ch=1 n=b3 v=90
18180 On ch=1 n=b3 v=0
18180 On ch=1 n=d5 v=90
18210 On ch=1 n=f6 v=0
18210 On ch=1 n=d5 v=0
18210 On ch=1 n=g#5 v=90
18240 On ch=1 n=g#5 v=0
18240 On ch=1 n=g5 v=90
18270 On ch=1 n=a#3 v=90
18300 On ch=1 n=a#3 v=0
18300 On ch=1 n=c#5 v=90
18330 On ch=1 n=g5 v=0
18330 On ch=1 n=c#5 v=0
18330 On ch=1 n=a#5 v=90
18360 On ch=1 n=a#5 v=0
18360 On ch=1 n=d#6 v=90
18390 On ch=1 n=g3 v=90
18420 On ch=1 n=g3 v=0
18420 On ch=1 n=a#4 v=90
18450 On ch=1 n=d#6 v=0
18450 On ch=1 n=a#4 v=0
18450 On ch=1 n=c#6 v=90
18480 On ch=1 n=c#6 v=0
18480 On ch=1 n=b5 v=90
18510 On ch=1 n=g#3 v=90
18540 On ch=1 n=g#3 v=0
18540 On ch=1 n=c5 v=90
18570 On ch=1 n=b5 v=0
18570 On ch=1 n=c5 v=0
18570 On ch=1 n=c6 v=90
18600 On ch=1 n=c6 v=0
18600 On ch=1 n=g#5 v=90
18630 On ch=1 n=c4 v=90
18660 On ch=1 n=c4 v=0
18660 On ch=1 n=d#5 v=90
18690 On ch=1 n=g#5 v=0
18690 On ch=1 n=d#5 v=0
18690 On ch=1 n=d#6 v=90
18720 On ch=1 n=d#6 v=0
18720 On ch=1 n=g#6 v=53
18750 On ch=1 n=f4 v=53
18780 On ch=1 n=g#6 v=0
18780 On ch=1 n=f4 v=0
18780 On ch=1 n=g#5 v=53
18810 On ch=1 n=g#5 v=0
18810 On ch=1 n=c#6 v=53
18840 On ch=1 n=c#6 v=0
18840 On ch=1 n=c6 v=53
18870 On ch=1 n=d#4 v=53
18900 On ch=1 n=c6 v=0
18900 On ch=1 n=d#4 v=0
18900 On ch=1 n=g5 v=53
18930 On ch=1 n=g5 v=0
18930 On ch=1 n=c6 v=53
18960 On ch=1 n=c6 v=0
18960 On ch=1 n=f6 v=53
18990 On ch=1 n=c#4 v=53
19020 On ch=1 n=f6 v=0
19020 On ch=1 n=c#4 v=0
19020 On ch=1 n=f5 v=53
19050 On ch=1 n=f5 v=0
19050 On ch=1 n=a#5 v=53
19080 On ch=1 n=a#5 v=0
19080 On ch=1 n=f6 v=53
19110 On ch=1 n=b3 v=53
19140 On ch=1 n=b3 v=0
19140 On ch=1 n=d5 v=53
19170 On ch=1 n=f6 v=0
19170 On ch=1 n=d5 v=0
19170 On ch=1 n=g#5 v=53
19200 On ch=1 n=g#5 v=0
19200 On ch=1 n=g5 v=53
19230 On ch=1 n=a#3 v=53
19260 On ch=1 n=a#3 v=0
19260 On ch=1 n=c#5 v=53
19290 On ch=1 n=g5 v=0
19290 On ch=1 n=c#5 v=0
19290 On ch=1 n=a#5 v=53
19320 On ch=1 n=a#5 v=0
19320 On ch=1 n=d#6 v=53
19350 On ch=1 n=g3 v=53
19380 On ch=1 n=g3 v=0
19380 On ch=1 n=a#4 v=53
19410 On ch=1 n=d#6 v=0
19410 On ch=1 n=a#4 v=0
19410 On ch=1 n=c#6 v=53
19440 On ch=1 n=c#6 v=0
19440 On ch=1 n=b5 v=53
19470 On ch=1 n=g#3 v=53
19500 On ch=1 n=g#3 v=0
19500 On ch=1 n=c5 v=53
19530 On ch=1 n=b5 v=0
19530 On ch=1 n=c5 v=0
19530 On ch=1 n=c6 v=53
19560 On ch=1 n=c6 v=0
19560 On ch=1 n=g#5 v=53
19620 On ch=1 n=g#5 v=0
19920 On ch=1 n=c#3 v=127
19920 On ch=1 n=c#4 v=127
19920 On ch=1 n=c#3 v=127
20040 On ch=1 n=c#3 v=0
20040 On ch=1 n=c#4 v=0
20040 On ch=1 n=c#3 v=0
20040 On ch=1 n=f#4 v=127
20040 On ch=1 n=f#3 v=127
20160 On ch=1 n=f#4 v=0
20160 On ch=1 n=f#3 v=0
20160 On ch=1 n=g#4 v=127
20160 On ch=1 n=g#3 v=127
20280 On ch=1 n=g#4 v=0
20280 On ch=1 n=g#3 v=0
20280 On ch=1 n=a4 v=127
20280 On ch=1 n=a3 v=127
20400 On ch=1 n=a4 v=0
20400 On ch=1 n=a3 v=0
20400 On ch=1 n=g#4 v=102
20400 On ch=1 n=g#3 v=102
20520 On ch=1 n=g#4 v=0
20520 On ch=1 n=g#3 v=0
20520 On ch=1 n=c#5 v=102
20520 On ch=1 n=c#4 v=102
20640 On ch=1 n=c#5 v=0
20640 On ch=1 n=c#4 v=0
20640 On ch=1 n=b4 v=102
20640 On ch=1 n=b3 v=102
20760 On ch=1 n=b4 v=0
20760 On ch=1 n=b3 v=0
20760 On ch=1 n=a4 v=102
20760 On ch=1 n=a3 v=102
20880 On ch=1 n=a4 v=0
20880 On ch=1 n=a3 v=0
20880 On ch=1 n=a4 v=102
20880 On ch=1 n=a3 v=102
20940 On ch=1 n=a4 v=0
20940 On ch=1 n=a3 v=0
20940 On ch=1 n=g#4 v=102
20940 On ch=1 n=g#3 v=102
21000 On ch=1 n=g#4 v=0
21000 On ch=1 n=g#3 v=0
21000 On ch=1 n=f#4 v=102
21000 On ch=1 n=f#3 v=102
21120 On ch=1 n=f#4 v=0
21120 On ch=1 n=f#3 v=0
21120 On ch=1 n=e4 v=127
21120 On ch=1 n=e3 v=127
21360 On ch=1 n=e4 v=0
21360 On ch=1 n=e3 v=0
21360 On ch=1 n=d4 v=102
21360 On ch=1 n=d3 v=102
21480 On ch=1 n=d4 v=0
21480 On ch=1 n=d3 v=0
21480 On ch=1 n=c#4 v=102
21480 On ch=1 n=c#3 v=102
21600 On ch=1 n=c#4 v=0
21600 On ch=1 n=c#3 v=0
21600 On ch=1 n=b3 v=102
21600 On ch=1 n=b2 v=102
21720 On ch=1 n=b3 v=0
21720 On ch=1 n=b2 v=0
21720 On ch=1 n=a3 v=102
21720 On ch=1 n=a2 v=102
21840 On ch=1 n=a3 v=0
21840 On ch=1 n=a2 v=0
21840 On ch=1 n=g#3 v=102
21840 On ch=1 n=g#2 v=102
21960 On ch=1 n=g#3 v=0
21960 On ch=1 n=g#2 v=0
21960 On ch=1 n=c#4 v=102
21960 On ch=1 n=c#3 v=102
22080 On ch=1 n=c#4 v=0
22080 On ch=1 n=c#3 v=0
22080 On ch=1 n=b3 v=102
22080 On ch=1 n=b2 v=102
22200 On ch=1 n=b3 v=0
22200 On ch=1 n=b2 v=0
22200 On ch=1 n=a3 v=102
22200 On ch=1 n=a2 v=102
22320 On ch=1 n=a3 v=0
22320 On ch=1 n=a2 v=0
22320 On ch=1 n=a3 v=102
22320 On ch=1 n=a2 v=102
22380 On ch=1 n=a3 v=0
22380 On ch=1 n=a2 v=0
22380 On ch=1 n=g#3 v=102
22380 On ch=1 n=g#2 v=102
22440 On ch=1 n=g#3 v=0
22440 On ch=1 n=g#2 v=0
22440 On ch=1 n=f#3 v=102
22440 On ch=1 n=f#2 v=102
22560 On ch=1 n=f#3 v=0
22560 On ch=1 n=f#2 v=0
22560 On ch=1 n=f#3 v=102
22560 On ch=1 n=f#2 v=102
22800 On ch=1 n=f#3 v=0
22800 On ch=1 n=f#2 v=0
22800 On ch=1 n=c#3 v=127
22800 On ch=1 n=c#4 v=127
22800 On ch=1 n=c#3 v=127
22920 On ch=1 n=c#3 v=0
22920 On ch=1 n=c#4 v=0
22920 On ch=1 n=c#3 v=0
22920 On ch=1 n=f#4 v=127
22920 On ch=1 n=f#3 v=127
23040 On ch=1 n=f#4 v=0
23040 On ch=1 n=f#3 v=0
23040 On ch=1 n=g#4 v=127
23040 On ch=1 n=g#3 v=127
23160 On ch=1 n=g#4 v=0
23160 On ch=1 n=g#3 v=0
23160 On ch=1 n=a4 v=127
23160 On ch=1 n=a3 v=127
23280 On ch=1 n=a4 v=0
23280 On ch=1 n=a3 v=0
23280 On ch=1 n=g#4 v=102
23280 On ch=1 n=g#3 v=102
23400 On ch=1 n=g#4 v=0
23400 On ch=1 n=g#3 v=0
23400 On ch=1 n=c#5 v=102
23400 On ch=1 n=c#4 v=102
23520 On ch=1 n=c#5 v=0
23520 On ch=1 n=c#4 v=0
23520 On ch=1 n=b4 v=102
23520 On ch=1 n=b3 v=102
23640 On ch=1 n=b4 v=0
23640 On ch=1 n=b3 v=0
23640 On ch=1 n=a4 v=102
23640 On ch=1 n=a3 v=102
23760 On ch=1 n=a4 v=0
23760 On ch=1 n=a3 v=0
23760 On ch=1 n=a4 v=102
23760 On ch=1 n=a3 v=102
23820 On ch=1 n=a4 v=0
23820 On ch=1 n=a3 v=0
23820 On ch=1 n=g#4 v=102
23820 On ch=1 n=g#3 v=102
23880 On ch=1 n=g#4 v=0
23880 On ch=1 n=g#3 v=0
23880 On ch=1 n=f#4 v=102
23880 On ch=1 n=f#3 v=102
24000 On ch=1 n=f#4 v=0
24000 On ch=1 n=f#3 v=0
24000 On ch=1 n=e4 v=127
24000 On ch=1 n=e3 v=127
24240 On ch=1 n=e4 v=0
24240 On ch=1 n=e3 v=0
24240 On ch=1 n=d4 v=102
24240 On ch=1 n=d3 v=102
24360 On ch=1 n=d4 v=0
24360 On ch=1 n=d3 v=0
24360 On ch=1 n=c#4 v=102
24360 On ch=1 n=c#3 v=102
24480 On ch=1 n=c#4 v=0
24480 On ch=1 n=c#3 v=0
24480 On ch=1 n=b3 v=102
24480 On ch=1 n=b2 v=102
24600 On ch=1 n=b3 v=0
24600 On ch=1 n=b2 v=0
24600 On ch=1 n=a3 v=102
24600 On ch=1 n=a2 v=102
24720 On ch=1 n=a3 v=0
24720 On ch=1 n=a2 v=0
24720 On ch=1 n=g#3 v=102
24720 On ch=1 n=g#2 v=102
24840 On ch=1 n=g#3 v=0
24840 On ch=1 n=g#2 v=0
24840 On ch=1 n=c#4 v=102
24840 On ch=1 n=c#3 v=102
24960 On ch=1 n=c#4 v=0
24960 On ch=1 n=c#3 v=0
24960 On ch=1 n=b3 v=102
24960 On ch=1 n=b2 v=102
25080 On ch=1 n=b3 v=0
25080 On ch=1 n=b2 v=0
25080 On ch=1 n=a3 v=102
25080 On ch=1 n=a2 v=102
25200 On ch=1 n=a3 v=0
25200 On ch=1 n=a2 v=0
25200 On ch=1 n=a3 v=102
25200 On ch=1 n=a2 v=102
25260 On ch=1 n=a3 v=0
25260 On ch=1 n=a2 v=0
25260 On ch=1 n=g#3 v=102
25260 On ch=1 n=g#2 v=102
25320 On ch=1 n=g#3 v=0
25320 On ch=1 n=g#2 v=0
25320 On ch=1 n=f#3 v=102
25320 On ch=1 n=f#2 v=102
25440 On ch=1 n=f#3 v=0
25440 On ch=1 n=f#2 v=0
25440 On ch=1 n=f#3 v=102
25440 On ch=1 n=f#2 v=102
25680 On ch=1 n=f#3 v=0
25680 On ch=1 n=f#2 v=0
25680 On ch=1 n=e5 v=127
25680 On ch=1 n=e6 v=127
25800 On ch=1 n=e5 v=0
25800 On ch=1 n=e6 v=0
25800 On ch=1 n=a5 v=127
25800 On ch=1 n=a6 v=127
25920 On ch=1 n=a5 v=0
25920 On ch=1 n=a6 v=0
25920 On ch=1 n=b5 v=127
25920 On ch=1 n=b6 v=127
26040 On ch=1 n=b5 v=0
26040 On ch=1 n=b6 v=0
26040 On ch=1 n=c#6 v=127
26040 On ch=1 n=c#7 v=127
26160 On ch=1 n=c#6 v=0
26160 On ch=1 n=c#7 v=0
26160 On ch=1 n=b5 v=102
26160 On ch=1 n=b6 v=102
26280 On ch=1 n=b5 v=0
26280 On ch=1 n=b6 v=0
26280 On ch=1 n=e6 v=102
26280 On ch=1 n=e7 v=102
26400 On ch=1 n=e6 v=0
26400 On ch=1 n=e7 v=0
26400 On ch=1 n=d6 v=102
26400 On ch=1 n=d7 v=102
26520 On ch=1 n=d6 v=0
26520 On ch=1 n=d7 v=0
26520 On ch=1 n=c#6 v=102
26520 On ch=1 n=c#7 v=102
26640 On ch=1 n=c#6 v=0
26640 On ch=1 n=c#7 v=0
26640 On ch=1 n=c#6 v=102
26640 On ch=1 n=c#7 v=102
26700 On ch=1 n=c#6 v=0
26700 On ch=1 n=c#7 v=0
26700 On ch=1 n=b5 v=102
26700 On ch=1 n=b6 v=102
26760 On ch=1 n=b5 v=0
26760 On ch=1 n=b6 v=0
26760 On ch=1 n=a5 v=102
26760 On ch=1 n=a6 v=102
26880 On ch=1 n=a5 v=0
26880 On ch=1 n=a6 v=0
26880 On ch=1 n=g#5 v=102
26880 On ch=1 n=g#6 v=102
27000 On ch=1 n=g#5 v=0
27000 On ch=1 n=g#6 v=0
27000 On ch=1 n=c#6 v=102
27000 On ch=1 n=c#7 v=102
27120 On ch=1 n=c#6 v=0
27120 On ch=1 n=c#7 v=0
27120 On ch=1 n=b5 v=102
27120 On ch=1 n=b6 v=102
27240 On ch=1 n=b5 v=0
27240 On ch=1 n=b6 v=0
27240 On ch=1 n=a5 v=102
27240 On ch=1 n=a6 v=102
27360 On ch=1 n=a5 v=0
27360 On ch=1 n=a6 v=0
27360 On ch=1 n=a5 v=102
27360 On ch=1 n=a6 v=102
27420 On ch=1 n=a5 v=0
27420 On ch=1 n=a6 v=0
27420 On ch=1 n=g#5 v=102
27420 On ch=1 n=g#6 v=102
27480 On ch=1 n=g#5 v=0
27480 On ch=1 n=g#6 v=0
27480 On ch=1 n=f#5 v=102
27480 On ch=1 n=f#6 v=102
27600 On ch=1 n=f#5 v=0
27600 On ch=1 n=f#6 v=0
27600 On ch=1 n=f5 v=115
27600 On ch=1 n=f6 v=115
27840 On ch=1 n=f5 v=0
27840 On ch=1 n=f6 v=0
27840 On ch=1 n=e5 v=102
27840 On ch=1 n=e6 v=102
28080 On ch=1 n=e5 v=0
28080 On ch=1 n=e6 v=0
28080 On ch=1 n=f#5 v=102
28080 On ch=1 n=f#6 v=102
28200 On ch=1 n=f#5 v=0
28200 On ch=1 n=f#6 v=0
28200 On ch=1 n=g#5 v=102
28200 On ch=1 n=g#6 v=102
28320 On ch=1 n=g#5 v=0
28320 On ch=1 n=g#6 v=0
28320 On ch=1 n=a5 v=102
28320 On ch=1 n=a6 v=102
28560 On ch=1 n=a5 v=0
28560 On ch=1 n=a6 v=0
28560 On ch=1 n=e5 v=127
28560 On ch=1 n=e6 v=127
28680 On ch=1 n=e5 v=0
28680 On ch=1 n=e6 v=0
28680 On ch=1 n=a5 v=127
28680 On ch=1 n=a6 v=127
28800 On ch=1 n=a5 v=0
28800 On ch=1 n=a6 v=0
28800 On ch=1 n=b5 v=127
28800 On ch=1 n=b6 v=127
28920 On ch=1 n=b5 v=0
28920 On ch=1 n=b6 v=0
28920 On ch=1 n=c#6 v=127
28920 On ch=1 n=c#7 v=127
29040 On ch=1 n=c#6 v=0
29040 On ch=1 n=c#7 v=0
29040 On ch=1 n=b5 v=102
29040 On ch=1 n=b6 v=102
29160 On ch=1 n=b5 v=0
29160 On ch=1 n=b6 v=0
29160 On ch=1 n=e6 v=102
29160 On ch=1 n=e7 v=102
29280 On ch=1 n=e6 v=0
29280 On ch=1 n=e7 v=0
29280 On ch=1 n=d6 v=102
29280 On ch=1 n=d7 v=102
29400 On ch=1 n=d6 v=0
29400 On ch=1 n=d7 v=0
29400 On ch=1 n=c#6 v=102
29400 On ch=1 n=c#7 v=102
29520 On ch=1 n=c#6 v=0
29520 On ch=1 n=c#7 v=0
29520 On ch=1 n=c#6 v=102
29520 On ch=1 n=c#7 v=102
29580 On ch=1 n=c#6 v=0
29580 On ch=1 n=c#7 v=0
29580 On ch=1 n=b5 v=102
29580 On ch=1 n=b6 v=102
29640 On ch=1 n=b5 v=0
29640 On ch=1 n=b6 v=0
29640 On ch=1 n=a5 v=102
29640 On ch=1 n=a6 v=102
29760 On ch=1 n=a5 v=0
29760 On ch=1 n=a6 v=0
29760 On ch=1 n=g#5 v=102
29760 On ch=1 n=g#6 v=102
29880 On ch=1 n=g#5 v=0
29880 On ch=1 n=g#6 v=0
29880 On ch=1 n=c#6 v=102
29880 On ch=1 n=c#7 v=102
30000 On ch=1 n=c#6 v=0
30000 On ch=1 n=c#7 v=0
30000 On ch=1 n=b5 v=102
30000 On ch=1 n=b6 v=102
30120 On ch=1 n=b5 v=0
30120 On ch=1 n=b6 v=0
30120 On ch=1 n=a5 v=102
30120 On ch=1 n=a6 v=102
30240 On ch=1 n=a5 v=0
30240 On ch=1 n=a6 v=0
30240 On ch=1 n=a5 v=102
30240 On ch=1 n=a6 v=102
30300 On ch=1 n=a5 v=0
30300 On ch=1 n=a6 v=0
30300 On ch=1 n=g#5 v=102
30300 On ch=1 n=g#6 v=102
30360 On ch=1 n=g#5 v=0
30360 On ch=1 n=g#6 v=0
30360 On ch=1 n=f#5 v=102
30360 On ch=1 n=f#6 v=102
30480 On ch=1 n=f#5 v=0
30480 On ch=1 n=f#6 v=0
30480 On ch=1 n=f5 v=115
30480 On ch=1 n=f6 v=115
30720 On ch=1 n=f5 v=0
30720 On ch=1 n=f6 v=0
30720 On ch=1 n=e5 v=102
30720 On ch=1 n=e6 v=102
30960 On ch=1 n=e5 v=0
30960 On ch=1 n=e6 v=0
30960 On ch=1 n=f#5 v=102
30960 On ch=1 n=f#6 v=102
31080 On ch=1 n=f#5 v=0
31080 On ch=1 n=f#6 v=0
31080 On ch=1 n=g#5 v=102
31080 On ch=1 n=g#6 v=102
31200 On ch=1 n=g#5 v=0
31200 On ch=1 n=g#6 v=0
31200 On ch=1 n=a5 v=102
31200 On ch=1 n=a6 v=102
31440 On ch=1 n=a5 v=0
31440 On ch=1 n=a6 v=0
31440 On ch=1 n=c#5 v=127
31440 On ch=1 n=c#6 v=127
31560 On ch=1 n=c#5 v=0
31560 On ch=1 n=c#6 v=0
31560 On ch=1 n=f#5 v=127
31560 On ch=1 n=f#6 v=127
31680 On ch=1 n=f#5 v=0
31680 On ch=1 n=f#6 v=0
31680 On ch=1 n=g#5 v=127
31680 On ch=1 n=g#6 v=127
31800 On ch=1 n=g#5 v=0
31800 On ch=1 n=g#6 v=0
31800 On ch=1 n=a5 v=127
31800 On ch=1 n=a6 v=127
31920 On ch=1 n=a5 v=0
31920 On ch=1 n=a6 v=0
31920 On ch=1 n=g#5 v=127
31920 On ch=1 n=g#6 v=127
32040 On ch=1 n=g#5 v=0
32040 On ch=1 n=g#6 v=0
32040 On ch=1 n=c#6 v=127
32040 On ch=1 n=c#7 v=127
32160 On ch=1 n=c#6 v=0
32160 On ch=1 n=c#7 v=0
32160 On ch=1 n=b5 v=127
32160 On ch=1 n=b6 v=127
32280 On ch=1 n=b5 v=0
32280 On ch=1 n=b6 v=0
32280 On ch=1 n=a5 v=127
32280 On ch=1 n=a6 v=127
32400 On ch=1 n=a5 v=0
32400 On ch=1 n=a6 v=0
32400 On ch=1 n=a5 v=127
32400 On ch=1 n=a6 v=127
32460 On ch=1 n=a5 v=0
32460 On ch=1 n=a6 v=0
32460 On ch=1 n=g#5 v=127
32460 On ch=1 n=g#6 v=127
32520 On ch=1 n=g#5 v=0
32520 On ch=1 n=g#6 v=0
32520 On ch=1 n=f#5 v=127
32520 On ch=1 n=f#6 v=127
32640 On ch=1 n=f#5 v=0
32640 On ch=1 n=f#6 v=0
32640 On ch=1 n=e5 v=127
32640 On ch=1 n=e6 v=127
32880 On ch=1 n=e5 v=0
32880 On ch=1 n=e6 v=0
32880 On ch=1 n=d5 v=127
32880 On ch=1 n=d6 v=127
33000 On ch=1 n=d5 v=0
33000 On ch=1 n=d6 v=0
33000 On ch=1 n=c#5 v=127
33000 On ch=1 n=c#6 v=127
33120 On ch=1 n=c#5 v=0
33120 On ch=1 n=c#6 v=0
33120 On ch=1 n=b4 v=127
33120 On ch=1 n=b5 v=127
33240 On ch=1 n=b4 v=0
33240 On ch=1 n=b5 v=0
33240 On ch=1 n=a4 v=127
33240 On ch=1 n=a5 v=127
33360 On ch=1 n=a4 v=0
33360 On ch=1 n=a5 v=0
33360 On ch=1 n=g#4 v=127
33360 On ch=1 n=g#5 v=127
33480 On ch=1 n=g#4 v=0
33480 On ch=1 n=g#5 v=0
33480 On ch=1 n=c#5 v=127
33480 On ch=1 n=c#6 v=127
33600 On ch=1 n=c#5 v=0
33600 On ch=1 n=c#6 v=0
33600 On ch=1 n=b4 v=127
33600 On ch=1 n=b5 v=127
33720 On ch=1 n=b4 v=0
33720 On ch=1 n=b5 v=0
33720 On ch=1 n=a4 v=127
33720 On ch=1 n=a5 v=127
33840 On ch=1 n=a4 v=0
33840 On ch=1 n=a5 v=0
33840 On ch=1 n=a4 v=127
33840 On ch=1 n=a5 v=127
33900 On ch=1 n=a4 v=0
33900 On ch=1 n=a5 v=0
33900 On ch=1 n=g#4 v=127
33900 On ch=1 n=g#5 v=127
33960 On ch=1 n=g#4 v=0
33960 On ch=1 n=g#5 v=0
33960 On ch=1 n=f#4 v=127
33960 On ch=1 n=f#5 v=127
34080 On ch=1 n=f#4 v=0
34080 On ch=1 n=f#5 v=0
34080 On ch=1 n=f#4 v=127
34080 On ch=1 n=f#5 v=127
34200 On ch=1 n=e5 v=117
34320 On ch=1 n=e5 v=0
34320 On ch=1 n=d5 v=107
34440 On ch=1 n=d5 v=0
34440 On ch=1 n=c#5 v=96
34560 On ch=1 n=c#5 v=0
34560 On ch=1 n=c#5 v=86
34620 On ch=1 n=b4 v=86
34680 On ch=1 n=b4 v=0
34680 On ch=1 n=a4 v=76
34800 On ch=1 n=a4 v=0
34800 On ch=1 n=a4 v=65
35160 On ch=1 n=f#4 v=0
35160 On ch=1 n=f#5 v=0
35160 On ch=1 n=c#5 v=0
35160 On ch=1 n=a4 v=0
35340 Par ch=1 c=64 v=127
35340 On ch=1 n=c#7 v=65
35340 On ch=1 n=c#6 v=65
35460 On ch=1 n=c#7 v=0
35460 On ch=1 n=c#6 v=0
35460 On ch=1 n=c#7 v=65
35460 On ch=1 n=c#6 v=65
35520 On ch=1 n=c#7 v=0
35520 On ch=1 n=c#6 v=0
35520 On ch=1 n=c#7 v=74
35520 On ch=1 n=c#6 v=74
35610 On ch=1 n=c#7 v=0
35610 On ch=1 n=c#6 v=0
35610 On ch=1 n=c#7 v=83
35610 On ch=1 n=c#6 v=83
35640 On ch=1 n=c#7 v=0
35640 On ch=1 n=c#6 v=0
35640 On ch=1 n=c#6 v=93
35640 On ch=1 n=c#7 v=93
35700 On ch=1 n=c#6 v=0
35700 On ch=1 n=c#7 v=0
35700 On ch=1 n=f#7 v=102
35700 On ch=1 n=f#6 v=102
35820 On ch=1 n=f#6 v=0
35820 On ch=1 n=f#6 v=102
35880 On ch=1 n=f#6 v=0
35880 On ch=1 n=f#6 v=102
36000 On ch=1 n=f#6 v=0
36000 On ch=1 n=f#6 v=96
36030 Par ch=1 c=64 v=0
36057 On ch=1 n=e6 v=90
36060 On ch=1 n=f#7 v=0
36060 On ch=1 n=f#6 v=0
36063 On ch=1 n=e7 v=90
36120 On ch=1 n=e6 v=0
36120 On ch=1 n=e7 v=0
36120 On ch=1 n=c#7 v=90
36120 On ch=1 n=c#6 v=90
36180 On ch=1 n=c#7 v=0
36180 On ch=1 n=c#6 v=0
36180 On ch=1 n=a#6 v=90
36180 On ch=1 n=a#5 v=90
36240 On ch=1 n=a#6 v=0
36240 On ch=1 n=a#5 v=0
36240 On ch=1 n=b6 v=90
36240 On ch=1 n=b5 v=90
36420 On ch=1 n=b6 v=0
36420 On ch=1 n=b5 v=0
36420 On ch=1 n=b6 v=90
36420 On ch=1 n=b5 v=90
36510 On ch=1 n=b6 v=0
36510 On ch=1 n=b5 v=0
36510 On ch=1 n=c#7 v=82
36510 On ch=1 n=c#6 v=82
36540 On ch=1 n=c#7 v=0
36540 On ch=1 n=c#6 v=0
36540 On ch=1 n=b6 v=73
36540 On ch=1 n=b5 v=73
36600 On ch=1 n=b6 v=0
36600 On ch=1 n=b5 v=0
36600 On ch=1 n=e6 v=65
36600 On ch=1 n=e5 v=65
36780 On ch=1 n=e6 v=0
36780 On ch=1 n=e5 v=0
36780 Par ch=1 c=64 v=127
36780 On ch=1 n=c#7 v=65
36780 On ch=1 n=c#6 v=65
36900 On ch=1 n=c#7 v=0
36900 On ch=1 n=c#6 v=0
36900 On ch=1 n=c#7 v=65
36900 On ch=1 n=c#6 v=65
36960 On ch=1 n=c#7 v=0
36960 On ch=1 n=c#6 v=0
36960 On ch=1 n=c#7 v=65
36960 On ch=1 n=c#6 v=65
37050 On ch=1 n=c#7 v=0
37050 On ch=1 n=c#6 v=0
37050 On ch=1 n=c#7 v=65
37050 On ch=1 n=c#6 v=65
37080 On ch=1 n=c#7 v=0
37080 On ch=1 n=c#6 v=0
37080 On ch=1 n=c#7 v=65
37080 On ch=1 n=c#6 v=65
37140 On ch=1 n=c#7 v=0
37140 On ch=1 n=c#6 v=0
37140 On ch=1 n=f#7 v=72
37140 On ch=1 n=f#6 v=72
37260 On ch=1 n=f#7 v=0
37260 On ch=1 n=f#6 v=0
37260 On ch=1 n=g#7 v=80
37260 On ch=1 n=g#6 v=80
37320 On ch=1 n=g#7 v=0
37320 On ch=1 n=g#6 v=0
37320 On ch=1 n=a7 v=87
37320 On ch=1 n=a6 v=87
37440 On ch=1 n=a7 v=0
37440 On ch=1 n=a6 v=0
37440 On ch=1 n=b7 v=95
37440 On ch=1 n=b6 v=95
37470 Par ch=1 c=64 v=0
37500 On ch=1 n=b7 v=0
37500 On ch=1 n=b6 v=0
37500 Par ch=1 c=64 v=127
37500 On ch=1 n=c#8 v=102
37500 On ch=1 n=c#7 v=102
37620 On ch=1 n=c#8 v=0
37620 On ch=1 n=c#7 v=0
37620 On ch=1 n=c#8 v=102
37620 On ch=1 n=c#7 v=102
37680 On ch=1 n=c#8 v=0
37680 On ch=1 n=c#7 v=0
37680 On ch=1 n=c#8 v=102
37680 On ch=1 n=c#7 v=102
37770 On ch=1 n=c#8 v=0
37770 On ch=1 n=c#7 v=0
37770 On ch=1 n=c#8 v=102
37770 On ch=1 n=c#7 v=102
37800 On ch=1 n=c#8 v=0
37800 On ch=1 n=c#7 v=0
37800 On ch=1 n=c#7 v=102
37800 On ch=1 n=c#8 v=102
37860 On ch=1 n=c#7 v=0
37860 On ch=1 n=c#8 v=0
37860 On ch=1 n=c#8 v=102
37860 On ch=1 n=c#7 v=102
38010 Par ch=1 c=64 v=0
38040 On ch=1 n=c#8 v=0
38040 On ch=1 n=c#7 v=0
38040 On ch=1 n=f#7 v=102
38040 On ch=1 n=f#6 v=102
38220 On ch=1 n=f#7 v=0
38220 On ch=1 n=f#6 v=0
38220 Par ch=1 c=64 v=127
38220 On ch=1 n=c#7 v=65
38220 On ch=1 n=c#6 v=65
38340 On ch=1 n=c#7 v=0
38340 On ch=1 n=c#6 v=0
38340 On ch=1 n=c#7 v=65
38340 On ch=1 n=c#6 v=65
38400 On ch=1 n=c#7 v=0
38400 On ch=1 n=c#6 v=0
38400 On ch=1 n=c#7 v=74
38400 On ch=1 n=c#6 v=74
38490 On ch=1 n=c#7 v=0
38490 On ch=1 n=c#6 v=0
38490 On ch=1 n=c#7 v=83
38490 On ch=1 n=c#6 v=83
38520 On ch=1 n=c#7 v=0
38520 On ch=1 n=c#6 v=0
38520 On ch=1 n=c#6 v=93
38520 On ch=1 n=c#7 v=93
38580 On ch=1 n=c#6 v=0
38580 On ch=1 n=c#7 v=0
38580 On ch=1 n=f#7 v=102
38580 On ch=1 n=f#6 v=102
38700 On ch=1 n=f#6 v=0
38700 On ch=1 n=f#6 v=102
38760 On ch=1 n=f#6 v=0
38760 On ch=1 n=f#6 v=102
38880 On ch=1 n=f#6 v=0
38880 On ch=1 n=f#6 v=96
38910 Par ch=1 c=64 v=0
38937 On ch=1 n=e6 v=90
38940 On ch=1 n=f#7 v=0
38940 On ch=1 n=f#6 v=0
38943 On ch=1 n=e7 v=90
39000 On ch=1 n=e6 v=0
39000 On ch=1 n=e7 v=0
39000 On ch=1 n=c#7 v=90
39000 On ch=1 n=c#6 v=90
39060 On ch=1 n=c#7 v=0
39060 On ch=1 n=c#6 v=0
39060 On ch=1 n=a#6 v=90
39060 On ch=1 n=a#5 v=90
39120 On ch=1 n=a#6 v=0
39120 On ch=1 n=a#5 v=0
39120 On ch=1 n=b6 v=90
39120 On ch=1 n=b5 v=90
39300 On ch=1 n=b6 v=0
39300 On ch=1 n=b5 v=0
39300 On ch=1 n=b6 v=90
39300 On ch=1 n=b5 v=90
39390 On ch=1 n=b6 v=0
39390 On ch=1 n=b5 v=0
39390 On ch=1 n=c#7 v=82
39390 On ch=1 n=c#6 v=82
39420 On ch=1 n=c#7 v=0
39420 On ch=1 n=c#6 v=0
39420 On ch=1 n=b6 v=73
39420 On ch=1 n=b5 v=73
39480 On ch=1 n=b6 v=0
39480 On ch=1 n=b5 v=0
39480 On ch=1 n=e6 v=65
39480 On ch=1 n=e5 v=65
39660 On ch=1 n=e6 v=0
39660 On ch=1 n=e5 v=0
39660 Par ch=1 c=64 v=127
39660 On ch=1 n=c#7 v=65
39660 On ch=1 n=c#6 v=65
39780 On ch=1 n=c#7 v=0
39780 On ch=1 n=c#6 v=0
39780 On ch=1 n=c#7 v=65
39780 On ch=1 n=c#6 v=65
39840 On ch=1 n=c#7 v=0
39840 On ch=1 n=c#6 v=0
39840 On ch=1 n=c#7 v=65
39840 On ch=1 n=c#6 v=65
39930 On ch=1 n=c#7 v=0
39930 On ch=1 n=c#6 v=0
39930 On ch=1 n=c#7 v=65
39930 On ch=1 n=c#6 v=65
39960 On ch=1 n=c#7 v=0
39960 On ch=1 n=c#6 v=0
39960 On ch=1 n=c#7 v=65
39960 On ch=1 n=c#6 v=65
40020 On ch=1 n=c#7 v=0
40020 On ch=1 n=c#6 v=0
40020 On ch=1 n=f#7 v=72
40020 On ch=1 n=f#6 v=72
40140 On ch=1 n=f#7 v=0
40140 On ch=1 n=f#6 v=0
40140 On ch=1 n=g#7 v=80
40140 On ch=1 n=g#6 v=80
40200 On ch=1 n=g#7 v=0
40200 On ch=1 n=g#6 v=0
40200 On ch=1 n=a7 v=87
40200 On ch=1 n=a6 v=87
40320 On ch=1 n=a7 v=0
40320 On ch=1 n=a6 v=0
40320 On ch=1 n=b7 v=95
40320 On ch=1 n=b6 v=95
40350 Par ch=1 c=64 v=0
40380 On ch=1 n=b7 v=0
40380 On ch=1 n=b6 v=0
40380 Par ch=1 c=64 v=127
40380 On ch=1 n=c#8 v=102
40380 On ch=1 n=c#7 v=102
40500 On ch=1 n=c#8 v=0
40500 On ch=1 n=c#7 v=0
40500 On ch=1 n=c#8 v=102
40500 On ch=1 n=c#7 v=102
40560 On ch=1 n=c#8 v=0
40560 On ch=1 n=c#7 v=0
40560 On ch=1 n=c#8 v=102
40560 On ch=1 n=c#7 v=102
40650 On ch=1 n=c#8 v=0
40650 On ch=1 n=c#7 v=0
40650 On ch=1 n=c#8 v=102
40650 On ch=1 n=c#7 v=102
40680 On ch=1 n=c#8 v=0
40680 On ch=1 n=c#7 v=0
40680 On ch=1 n=c#7 v=102
40680 On ch=1 n=c#8 v=102
40740 On ch=1 n=c#7 v=0
40740 On ch=1 n=c#8 v=0
40740 On ch=1 n=c#8 v=102
40740 On ch=1 n=c#7 v=102
40890 Par ch=1 c=64 v=0
40920 On ch=1 n=c#8 v=0
40920 On ch=1 n=c#7 v=0
40920 On ch=1 n=f#7 v=102
40920 On ch=1 n=f#6 v=102
40980 On ch=1 n=f#7 v=0
40980 On ch=1 n=f#6 v=0
41040 On ch=1 n=c#6 v=65
41100 On ch=1 n=c#6 v=0
41100 On ch=1 n=f#6 v=65
41100 On ch=1 n=c6 v=65
41160 On ch=1 n=f#6 v=0
41160 On ch=1 n=c6 v=0
41220 On ch=1 n=f#6 v=65
41280 On ch=1 n=f#6 v=0
41280 On ch=1 n=b6 v=65
41280 On ch=1 n=f6 v=65
41340 On ch=1 n=b6 v=0
41340 On ch=1 n=f6 v=0
41400 On ch=1 n=b6 v=65
41460 On ch=1 n=b6 v=0
41460 On ch=1 n=e7 v=65
41460 On ch=1 n=a6 v=65
41520 On ch=1 n=e7 v=0
41520 On ch=1 n=a6 v=0
41580 On ch=1 n=a6 v=81
41640 On ch=1 n=b5 v=65
41700 On ch=1 n=a6 v=0
41700 On ch=1 n=b5 v=0
41760 On ch=1 n=c6 v=65
41760 On ch=1 n=a6 v=81
41820 On ch=1 n=c6 v=0
41820 On ch=1 n=c#6 v=65
41880 On ch=1 n=a6 v=0
41880 On ch=1 n=c#6 v=0
41940 On ch=1 n=c#6 v=68
41940 On ch=1 n=a6 v=81
42000 On ch=1 n=c#6 v=0
42000 On ch=1 n=d6 v=71
42060 On ch=1 n=a6 v=0
42060 On ch=1 n=d6 v=0
42120 On ch=1 n=d6 v=74
42120 On ch=1 n=a6 v=81
42180 On ch=1 n=d6 v=0
42180 On ch=1 n=d#6 v=78
42240 On ch=1 n=a6 v=0
42240 On ch=1 n=d#6 v=0
42300 On ch=1 n=d#6 v=53
42300 On ch=1 n=c7 v=53
42360 On ch=1 n=d#6 v=0
42360 On ch=1 n=c7 v=0
42360 On ch=1 n=b6 v=47
42360 On ch=1 n=e6 v=47
42420 On ch=1 n=b6 v=0
42420 On ch=1 n=e6 v=0
42480 On ch=1 n=c#6 v=40
42540 On ch=1 n=c#6 v=0
42540 On ch=1 n=f#6 v=40
42540 On ch=1 n=c6 v=40
42600 On ch=1 n=f#6 v=0
42600 On ch=1 n=c6 v=0
42660 On ch=1 n=f#6 v=40
42720 On ch=1 n=f#6 v=0
42720 On ch=1 n=b6 v=50
42720 On ch=1 n=f6 v=50
42780 On ch=1 n=b6 v=0
42780 On ch=1 n=f6 v=0
42840 On ch=1 n=b6 v=50
42900 On ch=1 n=b6 v=0
42900 On ch=1 n=e7 v=60
42900 On ch=1 n=a#6 v=60
42960 On ch=1 n=e7 v=0
42960 On ch=1 n=a#6 v=0
43020 On ch=1 n=e7 v=60
43020 On ch=1 n=a#6 v=60
43080 On ch=1 n=e7 v=0
43080 On ch=1 n=a#6 v=0
43080 On ch=1 n=b6 v=70
43080 On ch=1 n=d#7 v=70
43140 On ch=1 n=b6 v=0
43140 On ch=1 n=d#7 v=0
43200 On ch=1 n=a6 v=70
43260 On ch=1 n=a6 v=0
43260 On ch=1 n=d7 v=80
43260 On ch=1 n=g#6 v=80
43320 On ch=1 n=d7 v=0
43320 On ch=1 n=g#6 v=0
43380 On ch=1 n=d7 v=80
43380 On ch=1 n=g#6 v=80
43440 On ch=1 n=d7 v=0
43440 On ch=1 n=g#6 v=0
43440 On ch=1 n=c#7 v=90
43440 On ch=1 n=a6 v=90
43500 On ch=1 n=c#7 v=0
43500 On ch=1 n=a6 v=0
43560 On ch=1 n=c#7 v=90
43560 On ch=1 n=a6 v=90
43620 On ch=1 n=c#7 v=0
43620 On ch=1 n=a6 v=0
43620 On ch=1 n=b6 v=90
43620 On ch=1 n=g#6 v=90
43740 On ch=1 n=b6 v=0
43740 On ch=1 n=g#6 v=0
43740 On ch=1 n=a6 v=90
43740 On ch=1 n=f#6 v=90
43800 On ch=1 n=a6 v=0
43800 On ch=1 n=f#6 v=0
43800 On ch=1 n=f6 v=90
43800 On ch=1 n=g#6 v=90
44160 On ch=1 n=f6 v=0
44160 On ch=1 n=g#6 v=0
44160 Par ch=1 c=64 v=127
44160 On ch=1 n=c#7 v=65
44160 On ch=1 n=c#6 v=65
44280 On ch=1 n=c#7 v=0
44280 On ch=1 n=c#6 v=0
44280 On ch=1 n=c#7 v=65
44280 On ch=1 n=c#6 v=65
44340 On ch=1 n=c#7 v=0
44340 On ch=1 n=c#6 v=0
44340 On ch=1 n=c#7 v=74
44340 On ch=1 n=c#6 v=74
44430 On ch=1 n=c#7 v=0
44430 On ch=1 n=c#6 v=0
44430 On ch=1 n=c#7 v=83
44430 On ch=1 n=c#6 v=83
44460 On ch=1 n=c#7 v=0
44460 On ch=1 n=c#6 v=0
44460 On ch=1 n=c#6 v=93
44460 On ch=1 n=c#7 v=93
44520 On ch=1 n=c#6 v=0
44520 On ch=1 n=c#7 v=0
44520 On ch=1 n=g#7 v=102
44520 On ch=1 n=g#6 v=102
44640 On ch=1 n=g#6 v=0
44640 On ch=1 n=g#6 v=102
44700 On ch=1 n=g#7 v=0
44700 On ch=1 n=g#6 v=0
44700 On ch=1 n=f#7 v=102
44700 On ch=1 n=f#6 v=102
44820 On ch=1 n=f#6 v=0
44820 On ch=1 n=f#6 v=96
44850 Par ch=1 c=64 v=0
44877 On ch=1 n=e6 v=90
44880 On ch=1 n=f#7 v=0
44880 On ch=1 n=f#6 v=0
44883 On ch=1 n=e7 v=90
44940 On ch=1 n=e6 v=0
44940 On ch=1 n=e7 v=0
44940 On ch=1 n=c#7 v=90
44940 On ch=1 n=c#6 v=90
45000 On ch=1 n=c#7 v=0
45000 On ch=1 n=c#6 v=0
45000 On ch=1 n=a#6 v=90
45000 On ch=1 n=a#5 v=90
45060 On ch=1 n=a#6 v=0
45060 On ch=1 n=a#5 v=0
45060 On ch=1 n=b6 v=90
45060 On ch=1 n=b5 v=90
45240 On ch=1 n=b6 v=0
45240 On ch=1 n=b5 v=0
45240 On ch=1 n=b6 v=90
45240 On ch=1 n=b5 v=90
45330 On ch=1 n=b6 v=0
45330 On ch=1 n=b5 v=0
45330 On ch=1 n=c#7 v=82
45330 On ch=1 n=c#6 v=82
45360 On ch=1 n=c#7 v=0
45360 On ch=1 n=c#6 v=0
45360 On ch=1 n=b6 v=73
45360 On ch=1 n=b5 v=73
45420 On ch=1 n=b6 v=0
45420 On ch=1 n=b5 v=0
45420 On ch=1 n=e6 v=65
45420 On ch=1 n=e5 v=65
45600 On ch=1 n=e6 v=0
45600 On ch=1 n=e5 v=0
45600 Par ch=1 c=64 v=127
45600 On ch=1 n=c#7 v=65
45600 On ch=1 n=c#6 v=65
45720 On ch=1 n=c#7 v=0
45720 On ch=1 n=c#6 v=0
45720 On ch=1 n=c#7 v=65
45720 On ch=1 n=c#6 v=65
45780 On ch=1 n=c#7 v=0
45780 On ch=1 n=c#6 v=0
45780 On ch=1 n=c#7 v=65
45780 On ch=1 n=c#6 v=65
45870 On ch=1 n=c#7 v=0
45870 On ch=1 n=c#6 v=0
45870 On ch=1 n=c#7 v=65
45870 On ch=1 n=c#6 v=65
45900 On ch=1 n=c#7 v=0
45900 On ch=1 n=c#6 v=0
45900 On ch=1 n=c#7 v=65
45900 On ch=1 n=c#6 v=65
45960 On ch=1 n=c#7 v=0
45960 On ch=1 n=c#6 v=0
45960 On ch=1 n=f#7 v=72
45960 On ch=1 n=f#6 v=72
46080 On ch=1 n=f#7 v=0
46080 On ch=1 n=f#6 v=0
46080 On ch=1 n=g#7 v=80
46080 On ch=1 n=g#6 v=80
46140 On ch=1 n=g#7 v=0
46140 On ch=1 n=g#6 v=0
46140 On ch=1 n=a7 v=87
46140 On ch=1 n=a6 v=87
46260 On ch=1 n=a7 v=0
46260 On ch=1 n=a6 v=0
46260 On ch=1 n=b7 v=95
46260 On ch=1 n=b6 v=95
46290 Par ch=1 c=64 v=0
46320 On ch=1 n=b7 v=0
46320 On ch=1 n=b6 v=0
46320 Par ch=1 c=64 v=127
46320 On ch=1 n=c#8 v=102
46320 On ch=1 n=c#7 v=102
46440 On ch=1 n=c#8 v=0
46440 On ch=1 n=c#7 v=0
46440 On ch=1 n=c#8 v=102
46440 On ch=1 n=c#7 v=102
46500 On ch=1 n=c#8 v=0
46500 On ch=1 n=c#7 v=0
46500 On ch=1 n=c#8 v=127
46500 On ch=1 n=c#7 v=127
46590 On ch=1 n=c#8 v=0
46590 On ch=1 n=c#7 v=0
46590 On ch=1 n=c#8 v=127
46590 On ch=1 n=c#7 v=127
46620 On ch=1 n=c#8 v=0
46620 On ch=1 n=c#7 v=0
46620 On ch=1 n=c#7 v=127
46620 On ch=1 n=c#8 v=127
46680 On ch=1 n=c#7 v=0
46680 On ch=1 n=c#8 v=0
46680 On ch=1 n=c#8 v=127
46680 On ch=1 n=c#7 v=127
46830 Par ch=1 c=64 v=0
46860 On ch=1 n=c#8 v=0
46860 On ch=1 n=c#7 v=0
46860 On ch=1 n=f#7 v=127
46860 On ch=1 n=f#6 v=127
46920 On ch=1 n=f#7 v=0
46920 On ch=1 n=f#6 v=0
47220 On ch=1 n=d6 v=90
47400 On ch=1 n=d6 v=0
47400 On ch=1 n=g6 v=92
47430 On ch=1 n=g6 v=0
47430 On ch=1 n=f6 v=94
47460 On ch=1 n=f6 v=0
47460 On ch=1 n=d7 v=96
47520 On ch=1 n=d7 v=0
47520 On ch=1 n=c7 v=98
47550 On ch=1 n=c7 v=0
47550 On ch=1 n=a#6 v=100
47580 On ch=1 n=a#6 v=0
47580 On ch=1 n=a#6 v=108
47640 On ch=1 n=a#6 v=0
47640 On ch=1 n=a6 v=102
47670 On ch=1 n=a6 v=0
47670 On ch=1 n=g6 v=102
47700 On ch=1 n=g6 v=0
47700 On ch=1 n=f#6 v=108
47760 On ch=1 n=f#6 v=0
47760 On ch=1 n=a6 v=102
47790 On ch=1 n=a6 v=0
47790 On ch=1 n=g6 v=102
47820 On ch=1 n=g6 v=0
47820 On ch=1 n=b5 v=108
47880 On ch=1 n=b5 v=0
47880 On ch=1 n=d6 v=102
47910 On ch=1 n=d6 v=0
47910 On ch=1 n=c6 v=102
47940 On ch=1 n=c6 v=0
47940 On ch=1 n=d6 v=102
48060 On ch=1 n=c6 v=102
48120 On ch=1 n=c6 v=0
48120 On ch=1 n=a#5 v=102
48180 On ch=1 n=d6 v=0
48180 On ch=1 n=a#5 v=0
48180 On ch=1 n=d6 v=102
48180 On ch=1 n=a5 v=102
48240 On ch=1 n=a5 v=0
48240 On ch=1 n=g5 v=102
48300 On ch=1 n=d6 v=0
48300 On ch=1 n=g5 v=0
48300 On ch=1 n=g5 v=102
48300 On ch=1 n=d#6 v=102
48420 On ch=1 n=g5 v=0
48420 On ch=1 n=c6 v=102
48480 On ch=1 n=d#6 v=0
48480 On ch=1 n=c6 v=0
48480 On ch=1 n=d6 v=102
48480 On ch=1 n=a#5 v=102
48510 On ch=1 n=d6 v=0
48510 On ch=1 n=d#6 v=102
48540 On ch=1 n=a#5 v=0
48540 On ch=1 n=d#6 v=0
48540 On ch=1 n=g6 v=102
48540 On ch=1 n=a5 v=102
48600 On ch=1 n=g6 v=0
48600 On ch=1 n=a5 v=0
48600 On ch=1 n=f6 v=102
48600 On ch=1 n=c6 v=102
48660 On ch=1 n=f6 v=0
48660 On ch=1 n=c6 v=0
48660 On ch=1 n=d6 v=102
48840 On ch=1 n=d6 v=0
48840 On ch=1 n=g6 v=102
48870 On ch=1 n=g6 v=0
48870 On ch=1 n=f6 v=102
48900 On ch=1 n=f6 v=0
48900 On ch=1 n=d7 v=102
48960 On ch=1 n=d7 v=0
48960 On ch=1 n=c7 v=102
48990 On ch=1 n=c7 v=0
48990 On ch=1 n=a#6 v=102
49020 On ch=1 n=a#6 v=0
49020 Par ch=1 c=64 v=127
49020 Par ch=1 c=86 v=8
49020 On ch=1 n=a#5 v=102
49025 On ch=1 n=a#5 v=0
49025 On ch=1 n=d#6 v=102
49030 On ch=1 n=d#6 v=0
49030 On ch=1 n=a#6 v=102
49080 On ch=1 n=a#6 v=0
49080 On ch=1 n=a6 v=102
49110 On ch=1 n=a6 v=0
49110 On ch=1 n=g6 v=102
49125 Par ch=1 c=64 v=0
49140 On ch=1 n=g6 v=0
49140 Par ch=1 c=64 v=127
49140 Par ch=1 c=86 v=8
49140 On ch=1 n=f5 v=102
49145 On ch=1 n=f5 v=0
49145 On ch=1 n=a#5 v=102
49150 On ch=1 n=a#5 v=0
49150 On ch=1 n=f6 v=102
49245 Par ch=1 c=64 v=0
49260 On ch=1 n=f6 v=0
49260 Par ch=1 c=64 v=127
49260 Par ch=1 c=86 v=8
49260 On ch=1 n=d#5 v=102
49265 On ch=1 n=d#5 v=0
49265 On ch=1 n=a5 v=102
49270 On ch=1 n=a5 v=0
49270 On ch=1 n=d#6 v=102
49320 On ch=1 n=d#6 v=0
49320 On ch=1 n=d6 v=102
49350 On ch=1 n=d6 v=0
49350 On ch=1 n=c6 v=102
49365 Par ch=1 c=64 v=0
49380 On ch=1 n=c6 v=0
49380 Par ch=1 c=64 v=127
49380 On ch=1 n=d5 v=102
49380 On ch=1 n=a#5 v=102
49485 Par ch=1 c=64 v=0
49500 On ch=1 n=d5 v=0
49500 On ch=1 n=a#5 v=0
49500 On ch=1 n=d#5 v=102
49500 On ch=1 n=f#5 v=102
49500 On ch=1 n=a#5 v=102
49560 On ch=1 n=d#5 v=0
49560 On ch=1 n=f#5 v=0
49560 On ch=1 n=a#5 v=0
49560 On ch=1 n=d5 v=102
49560 On ch=1 n=f5 v=102
49590 On ch=1 n=d5 v=0
49590 On ch=1 n=f5 v=0
49590 On ch=1 n=c5 v=102
49590 On ch=1 n=d#5 v=102
49620 On ch=1 n=c5 v=0
49620 On ch=1 n=d#5 v=0
49620 On ch=1 n=a#4 v=102
49620 On ch=1 n=d5 v=102
49620 On ch=1 n=f5 v=102
49680 On ch=1 n=a#4 v=0
49680 On ch=1 n=d5 v=0
49680 On ch=1 n=f5 v=0
49680 On ch=1 n=a4 v=102
49680 On ch=1 n=c5 v=102
49710 On ch=1 n=a4 v=0
49710 On ch=1 n=c5 v=0
49710 On ch=1 n=g4 v=102
49710 On ch=1 n=a#4 v=102
49740 On ch=1 n=g4 v=0
49740 On ch=1 n=a#4 v=0
49740 On ch=1 n=a4 v=102
49740 On ch=1 n=f5 v=102
49740 On ch=1 n=d#5 v=102
49830 On ch=1 n=a4 v=0
49830 On ch=1 n=f5 v=0
49830 On ch=1 n=d#5 v=0
49830 On ch=1 n=a4 v=102
49830 On ch=1 n=d#5 v=102
49830 On ch=1 n=f5 v=102
49860 On ch=1 n=a4 v=0
49860 On ch=1 n=d#5 v=0
49860 On ch=1 n=f5 v=0
49860 On ch=1 n=a4 v=102
49860 On ch=1 n=d#5 v=102
49860 On ch=1 n=f5 v=102
49980 On ch=1 n=a4 v=0
49980 On ch=1 n=d#5 v=0
49980 On ch=1 n=a#4 v=102
49980 On ch=1 n=d5 v=102
50040 On ch=1 n=f5 v=0
50040 On ch=1 n=a#4 v=0
50040 On ch=1 n=d5 v=0
50100 On ch=1 n=e7 v=120
50100 On ch=1 n=c#7 v=120
50100 On ch=1 n=a#6 v=120
50100 On ch=1 n=g6 v=120
50160 On ch=1 n=e7 v=0
50160 On ch=1 n=c#7 v=0
50160 On ch=1 n=a#6 v=0
50160 On ch=1 n=g6 v=0
50160 On ch=1 n=e5 v=102
50160 On ch=1 n=c#5 v=102
50160 On ch=1 n=a#4 v=102
50160 On ch=1 n=f#4 v=102
50220 On ch=1 n=c#5 v=0
50220 On ch=1 n=a#4 v=0
50220 On ch=1 n=f#4 v=0
50220 On ch=1 n=f#4 v=90
50220 On ch=1 n=a#4 v=90
50280 On ch=1 n=f#4 v=0
50280 On ch=1 n=a#4 v=0
50280 On ch=1 n=a#4 v=90
50280 On ch=1 n=f#4 v=90
50340 On ch=1 n=e5 v=0
50340 On ch=1 n=a#4 v=0
50340 On ch=1 n=f#4 v=0
50340 On ch=1 n=f5 v=90
50340 On ch=1 n=f4 v=90
50340 On ch=1 n=c5 v=90
50400 On ch=1 n=f4 v=0
50400 On ch=1 n=c5 v=0
50400 On ch=1 n=c5 v=90
50400 On ch=1 n=f4 v=90
50460 On ch=1 n=f5 v=0
50460 On ch=1 n=c5 v=0
50460 On ch=1 n=f4 v=0
50460 On ch=1 n=d7 v=120
50460 On ch=1 n=b6 v=120
50460 On ch=1 n=g#6 v=120
50460 On ch=1 n=f6 v=120
50520 On ch=1 n=d7 v=0
50520 On ch=1 n=b6 v=0
50520 On ch=1 n=g#6 v=0
50520 On ch=1 n=f6 v=0
50520 On ch=1 n=d5 v=102
50520 On ch=1 n=b4 v=102
50520 On ch=1 n=g#4 v=102
50520 On ch=1 n=e4 v=102
50580 On ch=1 n=b4 v=0
50580 On ch=1 n=g#4 v=0
50580 On ch=1 n=e4 v=0
50580 On ch=1 n=g#4 v=90
50580 On ch=1 n=e4 v=90
50640 On ch=1 n=g#4 v=0
50640 On ch=1 n=e4 v=0
50640 On ch=1 n=e4 v=90
50640 On ch=1 n=g#4 v=90
50700 On ch=1 n=d5 v=0
50700 On ch=1 n=e4 v=0
50700 On ch=1 n=g#4 v=0
50700 On ch=1 n=d#5 v=90
50700 On ch=1 n=a#4 v=90
50700 On ch=1 n=d#4 v=90
50760 On ch=1 n=a#4 v=0
50760 On ch=1 n=d#4 v=0
50760 On ch=1 n=d#4 v=90
50760 On ch=1 n=a#4 v=90
50820 On ch=1 n=d#5 v=0
50820 On ch=1 n=d#4 v=0
50820 On ch=1 n=a#4 v=0
50820 On ch=1 n=a#6 v=120
50820 On ch=1 n=g#6 v=120
50820 On ch=1 n=f6 v=120
50820 On ch=1 n=d6 v=120
50880 On ch=1 n=a#6 v=0
50880 On ch=1 n=g#6 v=0
50880 On ch=1 n=f6 v=0
50880 On ch=1 n=d6 v=0
50880 On ch=1 n=d4 v=102
50880 On ch=1 n=f4 v=102
50880 On ch=1 n=a#4 v=102
50880 On ch=1 n=g#4 v=102
50940 On ch=1 n=d4 v=0
50940 On ch=1 n=f4 v=0
50940 On ch=1 n=g#4 v=0
50940 On ch=1 n=d4 v=90
50940 On ch=1 n=f4 v=90
51000 On ch=1 n=d4 v=0
51000 On ch=1 n=f4 v=0
51000 On ch=1 n=f4 v=90
51000 On ch=1 n=d4 v=90
51060 On ch=1 n=a#4 v=0
51060 On ch=1 n=f4 v=0
51060 On ch=1 n=d4 v=0
51060 On ch=1 n=a#4 v=90
51060 On ch=1 n=f#4 v=90
51060 On ch=1 n=d#4 v=90
51120 On ch=1 n=f#4 v=0
51120 On ch=1 n=d#4 v=0
51120 On ch=1 n=d#4 v=90
51120 On ch=1 n=f#4 v=90
51180 On ch=1 n=a#4 v=0
51180 On ch=1 n=d#4 v=0
51180 On ch=1 n=f#4 v=0
51180 On ch=1 n=a#4 v=90
51240 On ch=1 n=d4 v=90
51240 On ch=1 n=f4 v=90
51270 On ch=1 n=d4 v=0
51270 On ch=1 n=f4 v=0
51270 On ch=1 n=f4 v=96
51270 On ch=1 n=d4 v=96
51300 On ch=1 n=f4 v=0
51300 On ch=1 n=d4 v=0
51300 On ch=1 n=d#4 v=102
51300 On ch=1 n=f#4 v=102
51360 On ch=1 n=d#4 v=0
51360 On ch=1 n=f#4 v=0
51360 On ch=1 n=d4 v=96
51360 On ch=1 n=f4 v=96
51420 On ch=1 n=a#4 v=0
51420 On ch=1 n=d4 v=0
51420 On ch=1 n=f4 v=0
51420 On ch=1 n=f4 v=90
51420 On ch=1 n=d4 v=90
51480 On ch=1 n=f4 v=0
51480 On ch=1 n=d4 v=0
51540 Par ch=1 c=64 v=127
51540 On ch=1 n=g6 v=90
51660 On ch=1 n=g5 v=91
51720 On ch=1 n=g6 v=0
51720 Par ch=1 c=64 v=0
51720 On ch=1 n=g6 v=92
51780 On ch=1 n=g5 v=0
51780 On ch=1 n=g6 v=0
51780 On ch=1 n=g#5 v=93
51780 On ch=1 n=g6 v=94
51840 On ch=1 n=g#5 v=0
51840 On ch=1 n=a5 v=95
51900 On ch=1 n=g6 v=0
51900 On ch=1 n=a5 v=0
51900 On ch=1 n=g6 v=96
52020 On ch=1 n=a#5 v=97
52080 On ch=1 n=g6 v=0
52080 On ch=1 n=g6 v=98
52140 On ch=1 n=a#5 v=0
52140 On ch=1 n=g6 v=0
52140 On ch=1 n=b5 v=99
52140 On ch=1 n=g6 v=100
52200 On ch=1 n=b5 v=0
52200 On ch=1 n=c6 v=101
52260 On ch=1 n=g6 v=0
52260 On ch=1 n=c6 v=0
52260 On ch=1 n=a#6 v=102
52320 On ch=1 n=a#5 v=102
52380 On ch=1 n=a#5 v=0
52380 On ch=1 n=a#5 v=102
52440 On ch=1 n=a#6 v=0
52440 On ch=1 n=a#5 v=0
52440 On ch=1 n=a#6 v=102
52440 On ch=1 n=a#5 v=102
52500 On ch=1 n=a#6 v=0
52500 On ch=1 n=a#5 v=0
52500 On ch=1 n=a6 v=102
52500 On ch=1 n=a#5 v=102
52560 On ch=1 n=a6 v=0
52560 On ch=1 n=a#5 v=0
52560 On ch=1 n=g6 v=102
52560 On ch=1 n=a#5 v=102
52620 On ch=1 n=g6 v=0
52620 On ch=1 n=a#5 v=0
52620 On ch=1 n=a#6 v=102
52620 On ch=1 n=f6 v=102
52680 On ch=1 n=a#5 v=102
52740 On ch=1 n=a#5 v=0
52740 On ch=1 n=a#5 v=102
52800 On ch=1 n=a#6 v=0
52800 On ch=1 n=f6 v=0
52800 On ch=1 n=a#5 v=0
52800 On ch=1 n=a#6 v=102
52800 On ch=1 n=e6 v=102
52800 On ch=1 n=a#5 v=102
52860 On ch=1 n=a#6 v=0
52860 On ch=1 n=e6 v=0
52860 On ch=1 n=a#5 v=0
52860 On ch=1 n=a#6 v=102
52860 On ch=1 n=d6 v=102
52860 On ch=1 n=a#5 v=102
52920 On ch=1 n=a#6 v=0
52920 On ch=1 n=d6 v=0
52920 On ch=1 n=a#5 v=0
52920 On ch=1 n=a#6 v=102
52920 On ch=1 n=c6 v=102
52920 On ch=1 n=a#5 v=102
52980 On ch=1 n=a#6 v=0
52980 On ch=1 n=c6 v=0
52980 On ch=1 n=a#5 v=0
52980 On ch=1 n=a#6 v=102
52980 On ch=1 n=c7 v=102
52980 On ch=1 n=c6 v=102
53040 On ch=1 n=a#6 v=0
53040 On ch=1 n=c6 v=0
53040 On ch=1 n=a6 v=102
53040 On ch=1 n=c6 v=102
53070 On ch=1 n=a6 v=0
53070 On ch=1 n=g6 v=102
53100 On ch=1 n=c6 v=0
53100 On ch=1 n=g6 v=0
53100 On ch=1 n=f6 v=102
53100 On ch=1 n=c6 v=102
53160 On ch=1 n=c7 v=0
53160 On ch=1 n=f6 v=0
53160 On ch=1 n=c6 v=0
53160 On ch=1 n=c7 v=102
53160 On ch=1 n=c6 v=102
53220 On ch=1 n=c7 v=0
53220 On ch=1 n=c6 v=0
53220 On ch=1 n=a#6 v=102
53220 On ch=1 n=c6 v=102
53280 On ch=1 n=a#6 v=0
53280 On ch=1 n=c6 v=0
53280 On ch=1 n=a6 v=102
53280 On ch=1 n=c6 v=102
53340 On ch=1 n=a6 v=0
53340 On ch=1 n=c6 v=0
53340 On ch=1 n=c7 v=102
53340 On ch=1 n=g6 v=102
53400 On ch=1 n=c6 v=100
53460 On ch=1 n=c6 v=0
53460 On ch=1 n=c6 v=98
53520 On ch=1 n=c7 v=0
53520 On ch=1 n=g6 v=0
53520 On ch=1 n=c6 v=0
53520 On ch=1 n=c7 v=96
53520 On ch=1 n=f6 v=96
53520 On ch=1 n=c6 v=96
53580 On ch=1 n=c7 v=0
53580 On ch=1 n=f6 v=0
53580 On ch=1 n=c6 v=0
53580 On ch=1 n=c6 v=102
53580 On ch=1 n=e6 v=94
53580 On ch=1 n=c7 v=94
53640 On ch=1 n=c6 v=0
53640 On ch=1 n=e6 v=0
53640 On ch=1 n=c7 v=0
53640 On ch=1 n=c7 v=92
53640 On ch=1 n=d#6 v=92
53640 On ch=1 n=c6 v=92
53700 On ch=1 n=c7 v=0
53700 On ch=1 n=d#6 v=0
53700 On ch=1 n=c6 v=0
53700 On ch=1 n=c7 v=90
53700 On ch=1 n=d7 v=90
53700 On ch=1 n=d6 v=90
53760 On ch=1 n=c7 v=0
53760 On ch=1 n=a#6 v=90
53820 On ch=1 n=a#6 v=0
53880 On ch=1 n=d7 v=0
53880 On ch=1 n=d6 v=0
53880 On ch=1 n=g7 v=90
53880 On ch=1 n=g6 v=90
53910 On ch=1 n=g7 v=0
53910 On ch=1 n=g6 v=0
53910 On ch=1 n=f7 v=90
53910 On ch=1 n=f6 v=90
53940 On ch=1 n=f7 v=0
53940 On ch=1 n=f6 v=0
53940 On ch=1 n=d8 v=90
53940 On ch=1 n=d7 v=90
54000 On ch=1 n=d8 v=0
54000 On ch=1 n=d7 v=0
54000 On ch=1 n=c7 v=90
54000 On ch=1 n=c8 v=90
54030 On ch=1 n=c7 v=0
54030 On ch=1 n=c8 v=0
54030 On ch=1 n=a#7 v=90
54030 On ch=1 n=a#6 v=90
54060 On ch=1 n=a#7 v=0
54060 On ch=1 n=a#6 v=0
54060 On ch=1 n=a#6 v=90
54060 On ch=1 n=a#7 v=90
54120 On ch=1 n=a#6 v=0
54120 On ch=1 n=a#7 v=0
54120 On ch=1 n=a7 v=90
54120 On ch=1 n=a6 v=90
54150 On ch=1 n=a7 v=0
54150 On ch=1 n=a6 v=0
54150 On ch=1 n=g6 v=90
54150 On ch=1 n=g7 v=90
54180 On ch=1 n=g6 v=0
54180 On ch=1 n=g7 v=0
54180 On ch=1 n=f#7 v=90
54180 On ch=1 n=f#6 v=90
54240 On ch=1 n=f#7 v=0
54240 On ch=1 n=f#6 v=0
54240 On ch=1 n=a7 v=90
54240 On ch=1 n=a6 v=90
54270 On ch=1 n=a7 v=0
54270 On ch=1 n=a6 v=0
54270 On ch=1 n=g6 v=90
54270 On ch=1 n=g7 v=90
54300 On ch=1 n=g6 v=0
54300 On ch=1 n=g7 v=0
54300 On ch=1 n=b5 v=90
54300 On ch=1 n=b6 v=90
54360 On ch=1 n=b5 v=0
54360 On ch=1 n=b6 v=0
54360 On ch=1 n=d7 v=90
54360 On ch=1 n=d6 v=90
54390 On ch=1 n=d7 v=0
54390 On ch=1 n=d6 v=0
54390 On ch=1 n=c6 v=90
54390 On ch=1 n=c7 v=90
54420 On ch=1 n=c6 v=0
54420 On ch=1 n=c7 v=0
54420 On ch=1 n=d7 v=90
54420 On ch=1 n=d6 v=90
54540 On ch=1 n=d7 v=0
54540 On ch=1 n=c6 v=90
54600 On ch=1 n=c6 v=0
54600 On ch=1 n=a#5 v=90
54660 On ch=1 n=d6 v=0
54660 On ch=1 n=a#5 v=0
54660 On ch=1 n=a5 v=90
54660 On ch=1 n=d6 v=90
54720 On ch=1 n=a5 v=0
54720 On ch=1 n=g5 v=90
54780 On ch=1 n=d6 v=0
54780 On ch=1 n=g5 v=0
54780 On ch=1 n=d#6 v=90
54780 On ch=1 n=f#5 v=90
54840 On ch=1 n=f#5 v=0
54840 On ch=1 n=g5 v=90
54900 On ch=1 n=g5 v=0
54900 On ch=1 n=c6 v=90
54960 On ch=1 n=d#6 v=0
54960 On ch=1 n=c6 v=0
54960 On ch=1 n=d6 v=90
54960 On ch=1 n=a#5 v=90
54990 On ch=1 n=d6 v=0
54990 On ch=1 n=d#6 v=90
55020 On ch=1 n=a#5 v=0
55020 On ch=1 n=d#6 v=0
55020 On ch=1 n=g6 v=90
55020 On ch=1 n=a5 v=90
55080 On ch=1 n=g6 v=0
55080 On ch=1 n=a5 v=0
55080 On ch=1 n=f6 v=90
55080 On ch=1 n=c6 v=90
55140 On ch=1 n=f6 v=0
55140 On ch=1 n=c6 v=0
55140 On ch=1 n=d6 v=90
55320 On ch=1 n=d6 v=0
55320 On ch=1 n=g5 v=53
55350 On ch=1 n=g5 v=0
55350 On ch=1 n=f5 v=53
55380 On ch=1 n=f5 v=0
55380 On ch=1 n=d6 v=53
55440 On ch=1 n=d6 v=0
55440 On ch=1 n=c6 v=53
55470 On ch=1 n=c6 v=0
55470 On ch=1 n=a#5 v=53
55500 On ch=1 n=a#5 v=0
55500 On ch=1 n=a#5 v=53
55560 On ch=1 n=a#5 v=0
55560 On ch=1 n=a5 v=53
55590 On ch=1 n=a5 v=0
55590 On ch=1 n=g5 v=53
55620 On ch=1 n=g5 v=0
55620 On ch=1 n=f#5 v=53
55680 On ch=1 n=f#5 v=0
55680 On ch=1 n=a5 v=53
55710 On ch=1 n=a5 v=0
55710 On ch=1 n=g5 v=53
55740 On ch=1 n=g5 v=0
55740 On ch=1 n=b5 v=53
55800 On ch=1 n=b5 v=0
55800 On ch=1 n=d6 v=53
55830 On ch=1 n=d6 v=0
55830 On ch=1 n=c6 v=53
55860 On ch=1 n=c6 v=0
55860 On ch=1 n=f6 v=53
55920 On ch=1 n=f6 v=0
55920 On ch=1 n=f5 v=53
55920 On ch=1 n=a#5 v=53
55950 On ch=1 n=f5 v=0
55950 On ch=1 n=a#5 v=0
55980 On ch=1 n=d6 v=58
55980 On ch=1 n=a#5 v=58
56010 On ch=1 n=d6 v=0
56010 On ch=1 n=a#5 v=0
56040 On ch=1 n=f6 v=63
56040 On ch=1 n=d6 v=63
56070 On ch=1 n=f6 v=0
56070 On ch=1 n=d6 v=0
56100 On ch=1 n=a#6 v=68
56100 On ch=1 n=f6 v=68
56130 On ch=1 n=a#6 v=0
56130 On ch=1 n=f6 v=0
56160 On ch=1 n=d7 v=73
56160 On ch=1 n=a#6 v=73
56190 On ch=1 n=d7 v=0
56190 On ch=1 n=a#6 v=0
56220 On ch=1 n=f7 v=78
56220 On ch=1 n=d7 v=78
56220 Par ch=1 c=64 v=127
56250 On ch=1 n=f7 v=0
56250 On ch=1 n=d7 v=0
56280 On ch=1 n=a#6 v=73
56280 On ch=1 n=d7 v=73
56310 On ch=1 n=a#6 v=0
56310 On ch=1 n=d7 v=0
56340 On ch=1 n=f6 v=68
56340 On ch=1 n=a#6 v=68
56370 On ch=1 n=f6 v=0
56370 On ch=1 n=a#6 v=0
56400 On ch=1 n=d6 v=63
56400 On ch=1 n=f6 v=63
56430 On ch=1 n=d6 v=0
56430 On ch=1 n=f6 v=0
56460 On ch=1 n=a#5 v=53
56460 On ch=1 n=d6 v=53
56490 Par ch=1 c=64 v=0
56580 On ch=1 n=a#5 v=0
56580 On ch=1 n=d6 v=0
57180 On ch=1 n=g6 v=127
57180 On ch=1 n=c#6 v=127
57180 On ch=1 n=e6 v=127
57180 On ch=1 n=a#5 v=127
57300 On ch=1 n=a#5 v=0
57300 On ch=1 n=a5 v=90
57360 On ch=1 n=g6 v=0
57360 On ch=1 n=c#6 v=0
57360 On ch=1 n=e6 v=0
57360 On ch=1 n=a5 v=0
57540 On ch=1 n=c#7 v=127
57540 On ch=1 n=e6 v=127
57540 On ch=1 n=g6 v=127
57660 On ch=1 n=c#7 v=0
57660 On ch=1 n=e6 v=0
57660 On ch=1 n=g6 v=0
57660 On ch=1 n=d7 v=90
57660 On ch=1 n=f6 v=90
57690 On ch=1 n=d7 v=0
57690 On ch=1 n=f6 v=0
57900 On ch=1 n=g6 v=127
57900 On ch=1 n=c#6 v=127
57900 On ch=1 n=e6 v=127
57900 On ch=1 n=a#5 v=127
58020 On ch=1 n=g6 v=0
58020 On ch=1 n=c#6 v=0
58020 On ch=1 n=e6 v=0
58020 On ch=1 n=a#5 v=0
58020 On ch=1 n=f6 v=90
58020 On ch=1 n=d6 v=90
58020 On ch=1 n=a5 v=90
58080 On ch=1 n=f6 v=0
58080 On ch=1 n=d6 v=0
58080 On ch=1 n=a5 v=0
58260 On ch=1 n=c#7 v=127
58260 On ch=1 n=e6 v=127
58260 On ch=1 n=g6 v=127
58380 On ch=1 n=c#7 v=0
58380 On ch=1 n=e6 v=0
58380 On ch=1 n=g6 v=0
58380 On ch=1 n=d7 v=90
58380 On ch=1 n=f6 v=90
58410 On ch=1 n=d7 v=0
58410 On ch=1 n=f6 v=0
58500 On ch=1 n=d7 v=102
58500 On ch=1 n=d6 v=102
58560 On ch=1 n=d7 v=0
58560 On ch=1 n=d6 v=0
58560 On ch=1 n=e7 v=106
58560 On ch=1 n=e6 v=106
58620 On ch=1 n=e7 v=0
58620 On ch=1 n=e6 v=0
58620 On ch=1 n=f7 v=110
58620 On ch=1 n=f6 v=110
58680 On ch=1 n=f7 v=0
58680 On ch=1 n=f6 v=0
58680 On ch=1 n=g7 v=114
58680 On ch=1 n=g6 v=114
58740 On ch=1 n=g7 v=0
58740 On ch=1 n=g6 v=0
58740 On ch=1 n=a7 v=118
58740 On ch=1 n=a6 v=118
58980 On ch=1 n=a7 v=0
58980 On ch=1 n=a6 v=0
58980 On ch=1 n=g7 v=122
58980 On ch=1 n=g6 v=122
59100 On ch=1 n=g7 v=0
59100 On ch=1 n=g6 v=0
59100 On ch=1 n=f7 v=127
59100 On ch=1 n=f6 v=127
59160 On ch=1 n=f7 v=0
59160 On ch=1 n=f6 v=0
59340 On ch=1 n=g6 v=127
59340 On ch=1 n=c#6 v=127
59340 On ch=1 n=e6 v=127
59340 On ch=1 n=a#5 v=127
59460 On ch=1 n=a#5 v=0
59460 On ch=1 n=a5 v=90
59520 On ch=1 n=g6 v=0
59520 On ch=1 n=c#6 v=0
59520 On ch=1 n=e6 v=0
59520 On ch=1 n=a5 v=0
59700 On ch=1 n=c#7 v=127
59700 On ch=1 n=e6 v=127
59700 On ch=1 n=g6 v=127
59820 On ch=1 n=c#7 v=0
59820 On ch=1 n=e6 v=0
59820 On ch=1 n=g6 v=0
59820 On ch=1 n=d7 v=90
59820 On ch=1 n=f6 v=90
59850 On ch=1 n=d7 v=0
59850 On ch=1 n=f6 v=0
60060 On ch=1 n=g6 v=127
60060 On ch=1 n=c#6 v=127
60060 On ch=1 n=e6 v=127
60060 On ch=1 n=a#5 v=127
60180 On ch=1 n=g6 v=0
60180 On ch=1 n=c#6 v=0
60180 On ch=1 n=e6 v=0
60180 On ch=1 n=a#5 v=0
60180 On ch=1 n=f6 v=90
60180 On ch=1 n=d6 v=90
60180 On ch=1 n=a5 v=90
60240 On ch=1 n=f6 v=0
60240 On ch=1 n=d6 v=0
60240 On ch=1 n=a5 v=0
60420 On ch=1 n=c#7 v=127
60420 On ch=1 n=e6 v=127
60420 On ch=1 n=g6 v=127
60540 On ch=1 n=c#7 v=0
60540 On ch=1 n=e6 v=0
60540 On ch=1 n=g6 v=0
60540 On ch=1 n=d7 v=90
60540 On ch=1 n=f6 v=90
60570 On ch=1 n=d7 v=0
60570 On ch=1 n=f6 v=0
60660 On ch=1 n=d7 v=102
60660 On ch=1 n=d6 v=102
60720 On ch=1 n=d7 v=0
60720 On ch=1 n=d6 v=0
60720 On ch=1 n=e7 v=106
60720 On ch=1 n=e6 v=106
60780 On ch=1 n=e7 v=0
60780 On ch=1 n=e6 v=0
60780 On ch=1 n=f7 v=110
60780 On ch=1 n=f6 v=110
60840 On ch=1 n=f7 v=0
60840 On ch=1 n=f6 v=0
60840 On ch=1 n=g7 v=114
60840 On ch=1 n=g6 v=114
60900 On ch=1 n=g7 v=0
60900 On ch=1 n=g6 v=0
60900 On ch=1 n=a7 v=118
60900 On ch=1 n=a6 v=118
61140 On ch=1 n=a7 v=0
61140 On ch=1 n=a6 v=0
61140 On ch=1 n=g7 v=122
61140 On ch=1 n=g6 v=122
61260 On ch=1 n=g7 v=0
61260 On ch=1 n=g6 v=0
61260 On ch=1 n=f7 v=127
61260 On ch=1 n=f6 v=127
61320 On ch=1 n=f7 v=0
61320 On ch=1 n=f6 v=0
61620 On ch=1 n=a7 v=53
61620 On ch=1 n=e7 v=53
61620 On ch=1 n=c#7 v=53
61740 On ch=1 n=a7 v=0
61740 On ch=1 n=e7 v=0
61740 On ch=1 n=c#7 v=0
61740 On ch=1 n=e7 v=53
61740 On ch=1 n=c#7 v=53
61740 On ch=1 n=a6 v=53
61860 On ch=1 n=e7 v=0
61860 On ch=1 n=c#7 v=0
61860 On ch=1 n=a6 v=0
61860 On ch=1 n=c#7 v=53
61860 On ch=1 n=a6 v=53
61860 On ch=1 n=e6 v=53
61980 On ch=1 n=c#7 v=0
61980 On ch=1 n=a6 v=0
61980 On ch=1 n=e6 v=0
61980 On ch=1 n=a6 v=53
61980 On ch=1 n=e6 v=53
61980 On ch=1 n=c#6 v=53
62100 On ch=1 n=a6 v=0
62100 On ch=1 n=e6 v=0
62100 On ch=1 n=c#6 v=0
62100 On ch=1 n=a5 v=53
62100 On ch=1 n=e6 v=53
62160 On ch=1 n=a5 v=0
62160 On ch=1 n=e6 v=0
62160 On ch=1 n=a5 v=53
62160 On ch=1 n=e6 v=53
62220 On ch=1 n=a5 v=0
62220 On ch=1 n=e6 v=0
62220 On ch=1 n=a5 v=53
62220 On ch=1 n=e6 v=53
62280 On ch=1 n=a5 v=0
62280 On ch=1 n=e6 v=0
62340 On ch=1 n=f#6 v=53
62340 On ch=1 n=a5 v=53
62460 On ch=1 n=f#6 v=0
62460 On ch=1 n=a5 v=0
62460 On ch=1 n=e6 v=53
62460 On ch=1 n=a5 v=53
62580 On ch=1 n=e6 v=0
62580 On ch=1 n=a5 v=0
62580 On ch=1 n=d6 v=53
62580 On ch=1 n=g#5 v=53
62580 On ch=1 n=e5 v=53
62700 On ch=1 n=d6 v=0
62700 On ch=1 n=g#5 v=0
62700 On ch=1 n=e5 v=0
62700 On ch=1 n=c#6 v=53
62700 On ch=1 n=a5 v=53
62700 On ch=1 n=e5 v=53
63060 On ch=1 n=c#6 v=0
63060 On ch=1 n=a5 v=0
63060 On ch=1 n=e5 v=0
63060 On ch=1 n=a7 v=53
63060 On ch=1 n=e7 v=53
63060 On ch=1 n=c#7 v=53
63180 On ch=1 n=a7 v=0
63180 On ch=1 n=e7 v=0
63180 On ch=1 n=c#7 v=0
63180 On ch=1 n=e7 v=53
63180 On ch=1 n=c#7 v=53
63180 On ch=1 n=a6 v=53
63300 On ch=1 n=e7 v=0
63300 On ch=1 n=c#7 v=0
63300 On ch=1 n=a6 v=0
63300 On ch=1 n=c#7 v=53
63300 On ch=1 n=a6 v=53
63300 On ch=1 n=e6 v=53
63420 On ch=1 n=c#7 v=0
63420 On ch=1 n=a6 v=0
63420 On ch=1 n=e6 v=0
63420 On ch=1 n=a6 v=53
63420 On ch=1 n=e6 v=53
63420 On ch=1 n=c#6 v=53
63540 On ch=1 n=a6 v=0
63540 On ch=1 n=e6 v=0
63540 On ch=1 n=c#6 v=0
63540 On ch=1 n=a5 v=53
63540 On ch=1 n=e6 v=53
63600 On ch=1 n=a5 v=0
63600 On ch=1 n=e6 v=0
63600 On ch=1 n=a5 v=53
63600 On ch=1 n=e6 v=53
63660 On ch=1 n=a5 v=0
63660 On ch=1 n=e6 v=0
63660 On ch=1 n=a5 v=53
63660 On ch=1 n=e6 v=53
63720 On ch=1 n=a5 v=0
63720 On ch=1 n=e6 v=0
63780 On ch=1 n=f#6 v=53
63780 On ch=1 n=a5 v=53
63900 On ch=1 n=f#6 v=0
63900 On ch=1 n=a5 v=0
63900 On ch=1 n=e6 v=53
63900 On ch=1 n=a5 v=53
64020 On ch=1 n=e6 v=0
64020 On ch=1 n=a5 v=0
64020 On ch=1 n=e6 v=53
64020 On ch=1 n=d6 v=53
64020 On ch=1 n=g#5 v=53
64020 On ch=1 n=e5 v=53
64140 On ch=1 n=e6 v=0
64140 On ch=1 n=d6 v=0
64140 On ch=1 n=g#5 v=0
64140 On ch=1 n=e5 v=0
64140 On ch=1 n=e6 v=53
64140 On ch=1 n=c#6 v=53
64140 On ch=1 n=a5 v=53
64140 On ch=1 n=e5 v=53
64500 On ch=1 n=e6 v=0
64500 On ch=1 n=c#6 v=0
64500 On ch=1 n=a5 v=0
64500 On ch=1 n=e5 v=0
64500 On ch=1 n=a7 v=53
64500 On ch=1 n=e7 v=53
64500 On ch=1 n=c#7 v=53
64620 On ch=1 n=a7 v=0
64620 On ch=1 n=e7 v=0
64620 On ch=1 n=c#7 v=0
64620 On ch=1 n=e7 v=53
64620 On ch=1 n=c#7 v=53
64620 On ch=1 n=a6 v=53
64740 On ch=1 n=e7 v=0
64740 On ch=1 n=c#7 v=0
64740 On ch=1 n=a6 v=0
64740 On ch=1 n=c#7 v=53
64740 On ch=1 n=a6 v=53
64740 On ch=1 n=e6 v=53
64860 On ch=1 n=c#7 v=0
64860 On ch=1 n=a6 v=0
64860 On ch=1 n=e6 v=0
64860 On ch=1 n=a6 v=53
64860 On ch=1 n=e6 v=53
64860 On ch=1 n=c#6 v=53
64980 On ch=1 n=a6 v=0
64980 On ch=1 n=e6 v=0
64980 On ch=1 n=c#6 v=0
64980 On ch=1 n=a5 v=53
64980 On ch=1 n=e6 v=53
65040 On ch=1 n=a5 v=0
65040 On ch=1 n=e6 v=0
65040 On ch=1 n=a5 v=53
65040 On ch=1 n=e6 v=53
65100 On ch=1 n=a5 v=0
65100 On ch=1 n=e6 v=0
65100 On ch=1 n=a5 v=53
65100 On ch=1 n=e6 v=53
65160 On ch=1 n=a5 v=0
65160 On ch=1 n=e6 v=0
65220 On ch=1 n=f#6 v=53
65220 On ch=1 n=a5 v=53
65340 On ch=1 n=f#6 v=0
65340 On ch=1 n=a5 v=0
65340 On ch=1 n=e6 v=53
65340 On ch=1 n=a5 v=53
65460 On ch=1 n=e6 v=0
65460 On ch=1 n=a5 v=0
65460 On ch=1 n=d6 v=53
65460 On ch=1 n=g#5 v=53
65460 On ch=1 n=e5 v=53
65580 On ch=1 n=d6 v=0
65580 On ch=1 n=g#5 v=0
65580 On ch=1 n=e5 v=0
65580 On ch=1 n=c#6 v=53
65580 On ch=1 n=a5 v=53
65580 On ch=1 n=e5 v=53
65940 On ch=1 n=c#6 v=0
65940 On ch=1 n=a5 v=0
65940 On ch=1 n=e5 v=0
65940 On ch=1 n=a7 v=53
65940 On ch=1 n=e7 v=53
65940 On ch=1 n=c#7 v=53
66060 On ch=1 n=a7 v=0
66060 On ch=1 n=e7 v=0
66060 On ch=1 n=c#7 v=0
66060 On ch=1 n=e7 v=53
66060 On ch=1 n=c#7 v=53
66060 On ch=1 n=a6 v=53
66180 On ch=1 n=e7 v=0
66180 On ch=1 n=c#7 v=0
66180 On ch=1 n=a6 v=0
66180 On ch=1 n=c#7 v=53
66180 On ch=1 n=a6 v=53
66180 On ch=1 n=e6 v=53
66300 On ch=1 n=c#7 v=0
66300 On ch=1 n=a6 v=0
66300 On ch=1 n=e6 v=0
66300 On ch=1 n=a6 v=53
66300 On ch=1 n=e6 v=53
66300 On ch=1 n=c#6 v=53
66420 On ch=1 n=a6 v=0
66420 On ch=1 n=e6 v=0
66420 On ch=1 n=c#6 v=0
66420 On ch=1 n=a5 v=53
66420 On ch=1 n=e6 v=53
66480 On ch=1 n=a5 v=0
66480 On ch=1 n=e6 v=0
66480 On ch=1 n=a5 v=53
66480 On ch=1 n=e6 v=53
66540 On ch=1 n=a5 v=0
66540 On ch=1 n=e6 v=0
66540 On ch=1 n=a5 v=53
66540 On ch=1 n=e6 v=53
66600 On ch=1 n=a5 v=0
66600 On ch=1 n=e6 v=0
66660 On ch=1 n=f#6 v=53
66660 On ch=1 n=a5 v=53
66780 On ch=1 n=f#6 v=0
66780 On ch=1 n=a5 v=0
66780 On ch=1 n=e6 v=53
66780 On ch=1 n=a5 v=53
66900 On ch=1 n=e6 v=0
66900 On ch=1 n=a5 v=0
66900 On ch=1 n=e6 v=53
66900 On ch=1 n=d6 v=53
66900 On ch=1 n=g#5 v=53
66900 On ch=1 n=e5 v=53
67020 On ch=1 n=e6 v=0
67020 On ch=1 n=d6 v=0
67020 On ch=1 n=g#5 v=0
67020 On ch=1 n=e5 v=0
67020 On ch=1 n=e6 v=53
67020 On ch=1 n=c#6 v=53
67020 On ch=1 n=a5 v=53
67020 On ch=1 n=e5 v=53
67260 On ch=1 n=e6 v=0
67260 On ch=1 n=c#6 v=0
67260 On ch=1 n=a5 v=0
67260 On ch=1 n=e5 v=0
67260 On ch=1 n=g6 v=127
67260 On ch=1 n=c#6 v=127
67260 On ch=1 n=e6 v=127
67260 On ch=1 n=a#5 v=127
67380 On ch=1 n=a#5 v=0
67380 On ch=1 n=a5 v=90
67440 On ch=1 n=g6 v=0
67440 On ch=1 n=c#6 v=0
67440 On ch=1 n=e6 v=0
67440 On ch=1 n=a5 v=0
67620 On ch=1 n=c#7 v=127
67620 On ch=1 n=e6 v=127
67620 On ch=1 n=g6 v=127
67740 On ch=1 n=c#7 v=0
67740 On ch=1 n=e6 v=0
67740 On ch=1 n=g6 v=0
67740 On ch=1 n=d7 v=90
67740 On ch=1 n=f6 v=90
67770 On ch=1 n=d7 v=0
67770 On ch=1 n=f6 v=0
67980 On ch=1 n=g6 v=127
67980 On ch=1 n=c#6 v=127
67980 On ch=1 n=e6 v=127
67980 On ch=1 n=a#5 v=127
68100 On ch=1 n=g6 v=0
68100 On ch=1 n=c#6 v=0
68100 On ch=1 n=e6 v=0
68100 On ch=1 n=a#5 v=0
68100 On ch=1 n=f6 v=90
68100 On ch=1 n=d6 v=90
68100 On ch=1 n=a5 v=90
68160 On ch=1 n=f6 v=0
68160 On ch=1 n=d6 v=0
68160 On ch=1 n=a5 v=0
68340 On ch=1 n=c#7 v=127
68340 On ch=1 n=e6 v=127
68340 On ch=1 n=g6 v=127
68460 On ch=1 n=c#7 v=0
68460 On ch=1 n=e6 v=0
68460 On ch=1 n=g6 v=0
68460 On ch=1 n=d7 v=90
68460 On ch=1 n=f6 v=90
68490 On ch=1 n=d7 v=0
68490 On ch=1 n=f6 v=0
68580 On ch=1 n=d7 v=90
68580 On ch=1 n=d6 v=90
68640 On ch=1 n=d7 v=0
68640 On ch=1 n=d6 v=0
68640 On ch=1 n=e7 v=90
68640 On ch=1 n=e6 v=90
68700 On ch=1 n=e7 v=0
68700 On ch=1 n=e6 v=0
68700 On ch=1 n=f7 v=90
68700 On ch=1 n=f6 v=90
68760 On ch=1 n=f7 v=0
68760 On ch=1 n=f6 v=0
68760 On ch=1 n=g7 v=90
68760 On ch=1 n=g6 v=90
68820 On ch=1 n=g7 v=0
68820 On ch=1 n=g6 v=0
68820 On ch=1 n=a7 v=90
68820 On ch=1 n=a6 v=90
69060 On ch=1 n=a7 v=0
69060 On ch=1 n=a6 v=0
69060 On ch=1 n=c#5 v=127
69060 On ch=1 n=a#4 v=127
69060 On ch=1 n=g4 v=127
69180 On ch=1 n=c#5 v=0
69180 On ch=1 n=a#4 v=0
69180 On ch=1 n=g4 v=0
69180 On ch=1 n=d5 v=90
69180 On ch=1 n=a4 v=90
69180 On ch=1 n=f4 v=90
69300 On ch=1 n=a4 v=0
69300 On ch=1 n=f4 v=0
69300 On ch=1 n=a4 v=90
69300 On ch=1 n=f4 v=90
69360 On ch=1 n=a4 v=0
69360 On ch=1 n=f4 v=0
69360 On ch=1 n=a4 v=90
69360 On ch=1 n=f4 v=90
69420 On ch=1 n=a4 v=0
69420 On ch=1 n=f4 v=0
69420 On ch=1 n=a4 v=90
69420 On ch=1 n=f4 v=90
69540 On ch=1 n=d5 v=0
69540 On ch=1 n=a4 v=0
69540 On ch=1 n=f4 v=0
69540 On ch=1 n=d5 v=66
69540 On ch=1 n=a#4 v=53
69540 On ch=1 n=g4 v=53
69660 On ch=1 n=a#4 v=0
69660 On ch=1 n=g4 v=0
69660 On ch=1 n=f4 v=53
69660 On ch=1 n=a4 v=53
69780 On ch=1 n=f4 v=0
69780 On ch=1 n=a4 v=0
69780 On ch=1 n=e4 v=53
69780 On ch=1 n=g4 v=53
69900 On ch=1 n=d5 v=0
69900 On ch=1 n=e4 v=0
69900 On ch=1 n=g4 v=0
69900 On ch=1 n=d5 v=66
69900 On ch=1 n=a4 v=53
69900 On ch=1 n=f4 v=53
70020 On ch=1 n=a4 v=0
70020 On ch=1 n=f4 v=0
70020 On ch=1 n=a4 v=53
70020 On ch=1 n=f4 v=53
70080 On ch=1 n=a4 v=0
70080 On ch=1 n=f4 v=0
70080 On ch=1 n=a4 v=53
70080 On ch=1 n=f4 v=53
70140 On ch=1 n=a4 v=0
70140 On ch=1 n=f4 v=0
70140 On ch=1 n=a4 v=53
70140 On ch=1 n=f4 v=53
70260 On ch=1 n=d5 v=0
70260 On ch=1 n=a4 v=0
70260 On ch=1 n=f4 v=0
70260 On ch=1 n=d5 v=66
70260 On ch=1 n=a#4 v=53
70260 On ch=1 n=g4 v=53
70380 On ch=1 n=a#4 v=0
70380 On ch=1 n=g4 v=0
70380 On ch=1 n=f4 v=53
70380 On ch=1 n=a4 v=53
70500 On ch=1 n=d5 v=0
70500 On ch=1 n=f4 v=0
70500 On ch=1 n=a4 v=0
70500 On ch=1 n=e4 v=53
70500 On ch=1 n=g4 v=53
70620 On ch=1 n=e4 v=0
70620 On ch=1 n=g4 v=0
70620 On ch=1 n=d5 v=66
70620 On ch=1 n=a4 v=53
70620 On ch=1 n=d4 v=53
70860 On ch=1 n=d5 v=0
70860 On ch=1 n=a4 v=0
70860 On ch=1 n=d4 v=0
70973 On ch=1 n=c6 v=115
70980 On ch=1 n=a6 v=115
70987 On ch=1 n=c7 v=115
71100 On ch=1 n=c6 v=0
71100 On ch=1 n=a6 v=0
71100 On ch=1 n=c7 v=0
71100 On ch=1 n=a#6 v=90
71100 On ch=1 n=a#5 v=90
71160 On ch=1 n=a#6 v=0
71160 On ch=1 n=a#5 v=0
71220 On ch=1 n=a6 v=90
71220 On ch=1 n=a5 v=90
71280 On ch=1 n=a6 v=0
71280 On ch=1 n=a5 v=0
71340 On ch=1 n=f6 v=90
71340 On ch=1 n=g6 v=90
71460 On ch=1 n=f6 v=0
71460 On ch=1 n=g6 v=0
71460 On ch=1 n=g6 v=90
71460 On ch=1 n=e6 v=90
71520 On ch=1 n=g6 v=0
71520 On ch=1 n=g5 v=90
71580 On ch=1 n=e6 v=0
71580 On ch=1 n=g5 v=0
71580 On ch=1 n=d6 v=90
71580 On ch=1 n=g6 v=90
71610 On ch=1 n=d6 v=0
71610 On ch=1 n=g6 v=0
71693 On ch=1 n=a#5 v=115
71700 On ch=1 n=g6 v=115
71707 On ch=1 n=a#6 v=115
71820 On ch=1 n=a#5 v=0
71820 On ch=1 n=g6 v=0
71820 On ch=1 n=a#6 v=0
71820 On ch=1 n=a5 v=90
71820 On ch=1 n=a6 v=90
71880 On ch=1 n=a5 v=0
71880 On ch=1 n=a6 v=0
71940 On ch=1 n=g6 v=90
71940 On ch=1 n=g5 v=90
72000 On ch=1 n=g6 v=0
72000 On ch=1 n=g5 v=0
72060 On ch=1 n=a6 v=90
72060 On ch=1 n=g6 v=90
72180 On ch=1 n=a6 v=0
72180 On ch=1 n=g6 v=0
72180 On ch=1 n=a6 v=90
72180 On ch=1 n=f6 v=90
72240 On ch=1 n=a6 v=0
72240 On ch=1 n=a5 v=90
72300 On ch=1 n=f6 v=0
72300 On ch=1 n=a5 v=0
72300 On ch=1 n=e6 v=90
72300 On ch=1 n=a6 v=90
72330 On ch=1 n=e6 v=0
72330 On ch=1 n=a6 v=0
72413 On ch=1 n=f6 v=115
72420 On ch=1 n=d7 v=115
72427 On ch=1 n=f7 v=115
72480 On ch=1 n=f6 v=0
72480 On ch=1 n=d7 v=0
72480 On ch=1 n=f7 v=0
72540 On ch=1 n=e7 v=90
72540 On ch=1 n=e6 v=90
72600 On ch=1 n=e7 v=0
72600 On ch=1 n=e6 v=0
72660 On ch=1 n=d7 v=90
72660 On ch=1 n=d6 v=90
72720 On ch=1 n=d7 v=0
72720 On ch=1 n=d6 v=0
72780 On ch=1 n=a#6 v=90
72780 On ch=1 n=c7 v=90
72900 On ch=1 n=a#6 v=0
72900 On ch=1 n=c7 v=0
72900 On ch=1 n=c7 v=90
72900 On ch=1 n=a6 v=90
72960 On ch=1 n=c7 v=0
72960 On ch=1 n=c6 v=90
73020 On ch=1 n=a6 v=0
73020 On ch=1 n=c6 v=0
73020 On ch=1 n=c7 v=90
73020 On ch=1 n=g6 v=90
73050 On ch=1 n=c7 v=0
73050 On ch=1 n=g6 v=0
73133 On ch=1 n=c6 v=115
73140 On ch=1 n=a6 v=115
73147 On ch=1 n=c7 v=115
73260 On ch=1 n=c6 v=0
73260 On ch=1 n=a6 v=0
73260 On ch=1 n=c7 v=0
73260 On ch=1 n=a#5 v=90
73260 On ch=1 n=a#6 v=90
73380 On ch=1 n=a#5 v=0
73380 On ch=1 n=a#6 v=0
73380 On ch=1 n=a6 v=90
73380 On ch=1 n=a5 v=90
73500 On ch=1 n=a6 v=0
73500 On ch=1 n=a5 v=0
73500 On ch=1 n=e6 v=90
73500 On ch=1 n=g6 v=90
73620 On ch=1 n=e6 v=0
73620 On ch=1 n=g6 v=0
73620 On ch=1 n=g6 v=90
73620 On ch=1 n=d6 v=90
73620 On ch=1 n=f6 v=90
73680 On ch=1 n=g6 v=0
73680 On ch=1 n=g5 v=90
73740 On ch=1 n=d6 v=0
73740 On ch=1 n=f6 v=0
73740 On ch=1 n=g5 v=0
73740 On ch=1 n=g6 v=90
73740 On ch=1 n=e6 v=90
73740 On ch=1 n=c6 v=90
73800 On ch=1 n=g6 v=0
73800 On ch=1 n=e6 v=0
73800 On ch=1 n=c6 v=0
73853 On ch=1 n=c6 v=115
73860 On ch=1 n=a6 v=115
73867 On ch=1 n=c7 v=115
73980 On ch=1 n=c6 v=0
73980 On ch=1 n=a6 v=0
73980 On ch=1 n=c7 v=0
73980 On ch=1 n=a#6 v=90
73980 On ch=1 n=a#5 v=90
74040 On ch=1 n=a#6 v=0
74040 On ch=1 n=a#5 v=0
74100 On ch=1 n=a6 v=90
74100 On ch=1 n=a5 v=90
74160 On ch=1 n=a6 v=0
74160 On ch=1 n=a5 v=0
74220 On ch=1 n=f6 v=90
74220 On ch=1 n=g6 v=90
74340 On ch=1 n=f6 v=0
74340 On ch=1 n=g6 v=0
74340 On ch=1 n=g6 v=90
74340 On ch=1 n=e6 v=90
74400 On ch=1 n=g6 v=0
74400 On ch=1 n=g5 v=90
74460 On ch=1 n=e6 v=0
74460 On ch=1 n=g5 v=0
74460 On ch=1 n=d6 v=90
74460 On ch=1 n=g6 v=90
74490 On ch=1 n=d6 v=0
74490 On ch=1 n=g6 v=0
74573 On ch=1 n=a#5 v=115
74580 On ch=1 n=g6 v=115
74587 On ch=1 n=a#6 v=115
74700 On ch=1 n=a#5 v=0
74700 On ch=1 n=g6 v=0
74700 On ch=1 n=a#6 v=0
74700 On ch=1 n=a5 v=90
74700 On ch=1 n=a6 v=90
74760 On ch=1 n=a5 v=0
74760 On ch=1 n=a6 v=0
74820 On ch=1 n=g6 v=90
74820 On ch=1 n=g5 v=90
74880 On ch=1 n=g6 v=0
74880 On ch=1 n=g5 v=0
74940 On ch=1 n=a6 v=90
74940 On ch=1 n=g6 v=90
75060 On ch=1 n=a6 v=0
75060 On ch=1 n=g6 v=0
75060 On ch=1 n=a6 v=90
75060 On ch=1 n=f6 v=90
75120 On ch=1 n=a6 v=0
75120 On ch=1 n=a5 v=90
75180 On ch=1 n=f6 v=0
75180 On ch=1 n=a5 v=0
75180 On ch=1 n=e6 v=90
75180 On ch=1 n=a6 v=90
75210 On ch=1 n=e6 v=0
75210 On ch=1 n=a6 v=0
75293 On ch=1 n=f6 v=115
75300 On ch=1 n=d7 v=115
75307 On ch=1 n=f7 v=115
75360 On ch=1 n=f6 v=0
75360 On ch=1 n=d7 v=0
75360 On ch=1 n=f7 v=0
75420 On ch=1 n=e7 v=90
75420 On ch=1 n=e6 v=90
75480 On ch=1 n=e7 v=0
75480 On ch=1 n=e6 v=0
75540 On ch=1 n=d7 v=90
75540 On ch=1 n=d6 v=90
75600 On ch=1 n=d7 v=0
75600 On ch=1 n=d6 v=0
75660 On ch=1 n=a#6 v=90
75660 On ch=1 n=c7 v=90
75780 On ch=1 n=a#6 v=0
75780 On ch=1 n=c7 v=0
75780 On ch=1 n=c7 v=90
75780 On ch=1 n=a6 v=90
75840 On ch=1 n=c7 v=0
75840 On ch=1 n=c6 v=90
75900 On ch=1 n=a6 v=0
75900 On ch=1 n=c6 v=0
75900 On ch=1 n=c7 v=90
75900 On ch=1 n=g6 v=90
75930 On ch=1 n=c7 v=0
75930 On ch=1 n=g6 v=0
76013 On ch=1 n=c6 v=90
76020 On ch=1 n=a6 v=90
76027 On ch=1 n=c7 v=90
76140 On ch=1 n=c6 v=0
76140 On ch=1 n=a6 v=0
76140 On ch=1 n=c7 v=0
76140 On ch=1 n=f6 v=98
76140 On ch=1 n=c6 v=98
76260 On ch=1 n=f6 v=0
76260 On ch=1 n=c6 v=0
76260 On ch=1 n=g6 v=106
76260 On ch=1 n=e6 v=106
76260 On ch=1 n=c6 v=106
76380 On ch=1 n=g6 v=0
76380 On ch=1 n=e6 v=0
76380 On ch=1 n=c6 v=0
76380 On ch=1 n=a6 v=115
76380 On ch=1 n=f6 v=115
76380 On ch=1 n=c6 v=115
76620 On ch=1 n=a6 v=0
76620 On ch=1 n=f6 v=0
76620 On ch=1 n=c6 v=0
76620 On ch=1 n=g6 v=127
76620 On ch=1 n=c#6 v=127
76620 On ch=1 n=e6 v=127
76620 On ch=1 n=a#5 v=127
76740 On ch=1 n=a#5 v=0
76740 On ch=1 n=a5 v=90
76800 On ch=1 n=g6 v=0
76800 On ch=1 n=c#6 v=0
76800 On ch=1 n=e6 v=0
76800 On ch=1 n=a5 v=0
76980 On ch=1 n=c#7 v=127
76980 On ch=1 n=e6 v=127
76980 On ch=1 n=g6 v=127
77100 On ch=1 n=c#7 v=0
77100 On ch=1 n=e6 v=0
77100 On ch=1 n=g6 v=0
77100 On ch=1 n=d7 v=90
77100 On ch=1 n=f6 v=90
77130 On ch=1 n=d7 v=0
77130 On ch=1 n=f6 v=0
77340 On ch=1 n=g6 v=127
77340 On ch=1 n=c#6 v=127
77340 On ch=1 n=e6 v=127
77340 On ch=1 n=a#5 v=127
77460 On ch=1 n=g6 v=0
77460 On ch=1 n=c#6 v=0
77460 On ch=1 n=e6 v=0
77460 On ch=1 n=a#5 v=0
77460 On ch=1 n=f6 v=90
77460 On ch=1 n=d6 v=90
77460 On ch=1 n=a5 v=90
77520 On ch=1 n=f6 v=0
77520 On ch=1 n=d6 v=0
77520 On ch=1 n=a5 v=0
77700 On ch=1 n=c#7 v=127
77700 On ch=1 n=e6 v=127
77700 On ch=1 n=g6 v=127
77820 On ch=1 n=c#7 v=0
77820 On ch=1 n=e6 v=0
77820 On ch=1 n=g6 v=0
77820 On ch=1 n=d7 v=90
77820 On ch=1 n=f6 v=90
77850 On ch=1 n=d7 v=0
77850 On ch=1 n=f6 v=0
77940 On ch=1 n=d7 v=127
77940 On ch=1 n=d6 v=127
78000 On ch=1 n=d7 v=0
78000 On ch=1 n=d6 v=0
78000 On ch=1 n=e7 v=127
78000 On ch=1 n=e6 v=127
78060 On ch=1 n=e7 v=0
78060 On ch=1 n=e6 v=0
78060 On ch=1 n=f7 v=127
78060 On ch=1 n=f6 v=127
78120 On ch=1 n=f7 v=0
78120 On ch=1 n=f6 v=0
78120 On ch=1 n=g7 v=127
78120 On ch=1 n=g6 v=127
78180 On ch=1 n=g7 v=0
78180 On ch=1 n=g6 v=0
78180 On ch=1 n=a7 v=127
78180 On ch=1 n=a6 v=127
78300 On ch=1 n=a7 v=0
78300 On ch=1 n=a6 v=0
78420 On ch=1 n=e4 v=127
78420 On ch=1 n=c#5 v=127
78420 On ch=1 n=a#4 v=127
78420 On ch=1 n=g4 v=127
78540 On ch=1 n=e4 v=0
78540 On ch=1 n=c#5 v=0
78540 On ch=1 n=a#4 v=0
78540 On ch=1 n=g4 v=0
78540 On ch=1 n=d5 v=90
78540 On ch=1 n=a4 v=90
78540 On ch=1 n=f4 v=90
78600 On ch=1 n=d5 v=0
78600 On ch=1 n=a4 v=0
78600 On ch=1 n=f4 v=0
79087 On ch=1 n=f5 v=53
79110 On ch=1 n=f5 v=0
79110 On ch=1 n=g5 v=53
79140 On ch=1 n=g5 v=0
79140 On ch=1 n=g#5 v=53
79170 On ch=1 n=g#5 v=0
79170 On ch=1 n=a#5 v=53
79200 On ch=1 n=a#5 v=0
79200 On ch=1 n=c6 v=53
79230 On ch=1 n=c6 v=0
79230 On ch=1 n=c#6 v=53
79260 On ch=1 n=c#6 v=0
79267 On ch=1 n=c6 v=53
79320 On ch=1 n=c6 v=0
79320 On ch=1 n=f6 v=53
79380 On ch=1 n=f6 v=0
79380 On ch=1 n=g#6 v=53
79440 On ch=1 n=g#6 v=0
79440 On ch=1 n=g6 v=53
79470 On ch=1 n=g6 v=0
79470 On ch=1 n=c6 v=53
79500 On ch=1 n=c6 v=0
79500 On ch=1 n=c7 v=53
79530 On ch=1 n=c7 v=0
79530 On ch=1 n=a#6 v=53
79560 On ch=1 n=a#6 v=0
79560 On ch=1 n=g#6 v=53
79590 On ch=1 n=g#6 v=0
79590 On ch=1 n=g6 v=53
79620 On ch=1 n=g6 v=0
79630 On ch=1 n=g#6 v=53
79680 On ch=1 n=g#6 v=0
79680 On ch=1 n=g6 v=53
79740 On ch=1 n=g6 v=0
79740 On ch=1 n=f6 v=53
79800 On ch=1 n=f6 v=0
79800 On ch=1 n=f6 v=53
79830 On ch=1 n=f6 v=0
79830 On ch=1 n=g6 v=53
79860 On ch=1 n=g6 v=0
79860 On ch=1 n=g#6 v=53
79890 On ch=1 n=g#6 v=0
79890 On ch=1 n=a#6 v=53
79920 On ch=1 n=a#6 v=0
79920 On ch=1 n=c7 v=53
79950 On ch=1 n=c7 v=0
79950 On ch=1 n=c#7 v=53
79980 On ch=1 n=c#7 v=0
79987 On ch=1 n=c7 v=53
80040 On ch=1 n=c7 v=0
80040 On ch=1 n=f7 v=53
80100 On ch=1 n=f7 v=0
80100 On ch=1 n=g#7 v=53
80160 On ch=1 n=g#7 v=0
80160 On ch=1 n=g7 v=53
80190 On ch=1 n=g7 v=0
80190 On ch=1 n=c7 v=53
80220 On ch=1 n=c7 v=0
80220 On ch=1 n=c8 v=53
80250 On ch=1 n=c8 v=0
80250 On ch=1 n=a#7 v=53
80280 On ch=1 n=a#7 v=0
80280 On ch=1 n=g#7 v=53
80310 On ch=1 n=g#7 v=0
80310 On ch=1 n=g7 v=53
80340 On ch=1 n=g7 v=0
80350 On ch=1 n=f7 v=53
80520 On ch=1 n=f7 v=0
80527 On ch=1 n=f5 v=53
80550 On ch=1 n=f5 v=0
80550 On ch=1 n=g5 v=53
80580 On ch=1 n=g5 v=0
80580 On ch=1 n=g#5 v=53
80610 On ch=1 n=g#5 v=0
80610 On ch=1 n=a#5 v=53
80640 On ch=1 n=a#5 v=0
80640 On ch=1 n=c6 v=53
80670 On ch=1 n=c6 v=0
80670 On ch=1 n=c#6 v=53
80700 On ch=1 n=c#6 v=0
80707 On ch=1 n=c6 v=53
80760 On ch=1 n=c6 v=0
80760 On ch=1 n=f6 v=53
80820 On ch=1 n=f6 v=0
80820 On ch=1 n=g#6 v=53
80880 On ch=1 n=g#6 v=0
80880 On ch=1 n=g6 v=53
80910 On ch=1 n=g6 v=0
80910 On ch=1 n=c6 v=53
80940 On ch=1 n=c6 v=0
80940 On ch=1 n=c7 v=53
80970 On ch=1 n=c7 v=0
80970 On ch=1 n=a#6 v=53
81000 On ch=1 n=a#6 v=0
81000 On ch=1 n=g#6 v=53
81030 On ch=1 n=g#6 v=0
81030 On ch=1 n=g6 v=53
81060 On ch=1 n=g6 v=0
81070 On ch=1 n=g#6 v=53
81120 On ch=1 n=g#6 v=0
81120 On ch=1 n=g6 v=53
81180 On ch=1 n=g6 v=0
81180 On ch=1 n=f6 v=53
81240 On ch=1 n=f6 v=0
81240 On ch=1 n=f6 v=53
81270 On ch=1 n=f6 v=0
81270 On ch=1 n=g6 v=53
81300 On ch=1 n=g6 v=0
81300 On ch=1 n=g#6 v=53
81330 On ch=1 n=g#6 v=0
81330 On ch=1 n=a#6 v=53
81360 On ch=1 n=a#6 v=0
81360 On ch=1 n=c7 v=53
81390 On ch=1 n=c7 v=0
81390 On ch=1 n=c#7 v=53
81420 On ch=1 n=c#7 v=0
81427 On ch=1 n=c7 v=53
81480 On ch=1 n=c7 v=0
81480 On ch=1 n=f7 v=53
81540 On ch=1 n=f7 v=0
81540 On ch=1 n=g#7 v=53
81600 On ch=1 n=g#7 v=0
81600 On ch=1 n=g7 v=53
81630 On ch=1 n=g7 v=0
81630 On ch=1 n=c7 v=53
81660 On ch=1 n=c7 v=0
81660 On ch=1 n=c8 v=53
81690 On ch=1 n=c8 v=0
81690 On ch=1 n=a#7 v=53
81720 On ch=1 n=a#7 v=0
81720 On ch=1 n=g#7 v=53
81750 On ch=1 n=g#7 v=0
81750 On ch=1 n=g7 v=53
81780 On ch=1 n=g7 v=0
81790 On ch=1 n=f7 v=53
81960 On ch=1 n=f7 v=0
81960 On ch=1 n=c6 v=90
81990 On ch=1 n=c5 v=90
82020 On ch=1 n=c5 v=0
82020 On ch=1 n=d#5 v=90
82050 On ch=1 n=c6 v=0
82050 On ch=1 n=d#5 v=0
82050 On ch=1 n=f6 v=90
82080 On ch=1 n=f6 v=0
82080 On ch=1 n=d#6 v=90
82110 On ch=1 n=d#5 v=90
82140 On ch=1 n=d#6 v=0
82140 On ch=1 n=d#5 v=0
82140 On ch=1 n=c#6 v=90
82170 On ch=1 n=c#5 v=90
82200 On ch=1 n=c#5 v=0
82200 On ch=1 n=d#5 v=90
82230 On ch=1 n=c#6 v=0
82230 On ch=1 n=d#5 v=0
82230 On ch=1 n=f6 v=90
82260 On ch=1 n=f6 v=0
82260 On ch=1 n=d#6 v=90
82290 On ch=1 n=d#5 v=90
82320 On ch=1 n=d#6 v=0
82320 On ch=1 n=d#5 v=0
82320 On ch=1 n=d#6 v=90
82350 On ch=1 n=d#5 v=90
82380 On ch=1 n=d#5 v=0
82380 On ch=1 n=g#5 v=90
82410 On ch=1 n=d#6 v=0
82410 On ch=1 n=g#5 v=0
82410 On ch=1 n=a#6 v=90
82440 On ch=1 n=a#6 v=0
82440 On ch=1 n=g#6 v=90
82470 On ch=1 n=g#5 v=90
82500 On ch=1 n=g#6 v=0
82500 On ch=1 n=g#5 v=0
82500 On ch=1 n=f6 v=90
82530 On ch=1 n=f5 v=90
82560 On ch=1 n=f5 v=0
82560 On ch=1 n=a#5 v=90
82590 On ch=1 n=f6 v=0
82590 On ch=1 n=a#5 v=0
82590 On ch=1 n=g6 v=90
82620 On ch=1 n=g6 v=0
82620 On ch=1 n=f6 v=90
82650 On ch=1 n=f5 v=90
82680 On ch=1 n=f6 v=0
82680 On ch=1 n=f5 v=0
82680 On ch=1 n=d#6 v=90
82710 On ch=1 n=d#5 v=90
82740 On ch=1 n=d#5 v=0
82740 On ch=1 n=g#5 v=90
82770 On ch=1 n=d#6 v=0
82770 On ch=1 n=g#5 v=0
82770 On ch=1 n=f6 v=90
82800 On ch=1 n=f6 v=0
82800 On ch=1 n=d#6 v=90
82830 On ch=1 n=d#5 v=90
82860 On ch=1 n=d#6 v=0
82860 On ch=1 n=d#5 v=0
82860 On ch=1 n=c#6 v=90
82890 On ch=1 n=c#5 v=90
82920 On ch=1 n=c#5 v=0
82920 On ch=1 n=d#5 v=90
82950 On ch=1 n=c#6 v=0
82950 On ch=1 n=d#5 v=0
82950 On ch=1 n=d#6 v=90
82980 On ch=1 n=d#6 v=0
82980 On ch=1 n=c#6 v=90
83010 On ch=1 n=c#5 v=90
83040 On ch=1 n=c#6 v=0
83040 On ch=1 n=c#5 v=0
83040 On ch=1 n=c6 v=90
83070 On ch=1 n=c5 v=90
83100 On ch=1 n=c5 v=0
83100 On ch=1 n=d#5 v=90
83130 On ch=1 n=c6 v=0
83130 On ch=1 n=d#5 v=0
83130 On ch=1 n=c#6 v=90
83160 On ch=1 n=c#6 v=0
83160 On ch=1 n=c6 v=90
83190 On ch=1 n=d#5 v=90
83220 On ch=1 n=c6 v=0
83220 On ch=1 n=d#5 v=0
83220 On ch=1 n=a#5 v=90
83250 On ch=1 n=c#5 v=90
83280 On ch=1 n=c#5 v=0
83280 On ch=1 n=d#5 v=90
83310 On ch=1 n=a#5 v=0
83310 On ch=1 n=d#5 v=0
83310 On ch=1 n=c6 v=90
83340 On ch=1 n=c6 v=0
83340 On ch=1 n=a#5 v=90
83370 On ch=1 n=c#5 v=90
83400 On ch=1 n=a#5 v=0
83400 On ch=1 n=c#5 v=0
83400 On ch=1 n=c6 v=90
83430 On ch=1 n=c5 v=90
83460 On ch=1 n=c5 v=0
83460 On ch=1 n=d#5 v=90
83490 On ch=1 n=c6 v=0
83490 On ch=1 n=d#5 v=0
83490 On ch=1 n=f6 v=90
83520 On ch=1 n=f6 v=0
83520 On ch=1 n=d#6 v=90
83550 On ch=1 n=d#5 v=90
83580 On ch=1 n=d#6 v=0
83580 On ch=1 n=d#5 v=0
83580 Par ch=1 c=64 v=90
83580 On ch=1 n=d6 v=90
83610 On ch=1 n=f5 v=90
83640 On ch=1 n=f5 v=0
83640 On ch=1 n=g#5 v=90
83670 On ch=1 n=d6 v=0
83670 On ch=1 n=g#5 v=0
83670 On ch=1 n=a#6 v=90
83700 On ch=1 n=a#6 v=0
83700 On ch=1 n=g#6 v=90
83730 On ch=1 n=g#5 v=90
83760 On ch=1 n=g#6 v=0
83760 On ch=1 n=g#5 v=0
83760 Par ch=1 c=64 v=0
83760 On ch=1 n=c6 v=90
83760 On ch=1 n=d#6 v=90
83790 On ch=1 n=d#5 v=90
83820 On ch=1 n=d#5 v=0
83820 On ch=1 n=g#5 v=90
83850 On ch=1 n=d#6 v=0
83850 On ch=1 n=g#5 v=0
83850 On ch=1 n=f6 v=90
83880 On ch=1 n=f6 v=0
83880 On ch=1 n=d#6 v=90
83910 On ch=1 n=d#5 v=90
83940 On ch=1 n=c6 v=0
83940 On ch=1 n=d#6 v=0
83940 On ch=1 n=d#5 v=0
83940 On ch=1 n=a#5 v=90
83940 On ch=1 n=c#6 v=90
83970 On ch=1 n=f5 v=90
84000 On ch=1 n=f5 v=0
84000 On ch=1 n=a#5 v=90
84030 On ch=1 n=a#5 v=0
84030 On ch=1 n=c#6 v=0
84030 On ch=1 n=d#6 v=90
84060 On ch=1 n=d#6 v=0
84060 On ch=1 n=c#6 v=90
84090 On ch=1 n=f5 v=90
84120 On ch=1 n=a#5 v=0
84120 On ch=1 n=c#6 v=0
84120 On ch=1 n=f5 v=0
84120 On ch=1 n=g#5 v=90
84120 On ch=1 n=c6 v=90
84150 On ch=1 n=d#5 v=90
84180 On ch=1 n=d#5 v=0
84180 On ch=1 n=g#5 v=90
84210 On ch=1 n=g#5 v=0
84210 On ch=1 n=c6 v=0
84210 On ch=1 n=f6 v=90
84240 On ch=1 n=f6 v=0
84240 On ch=1 n=d#6 v=90
84270 On ch=1 n=d#5 v=90
84300 On ch=1 n=g#5 v=0
84300 On ch=1 n=d#6 v=0
84300 On ch=1 n=d#5 v=0
84300 On ch=1 n=d#5 v=90
84300 On ch=1 n=a#5 v=90
84330 On ch=1 n=c#5 v=90
84360 On ch=1 n=c#5 v=0
84360 On ch=1 n=d#5 v=90
84390 On ch=1 n=d#5 v=0
84390 On ch=1 n=f6 v=90
84420 On ch=1 n=d#5 v=0
84420 On ch=1 n=f6 v=0
84420 On ch=1 n=d#6 v=90
84450 On ch=1 n=d#6 v=0
84450 On ch=1 n=g5 v=90
84480 On ch=1 n=a#5 v=0
84480 On ch=1 n=g5 v=0
84480 On ch=1 n=d#5 v=90
84480 On ch=1 n=g#5 v=90
84510 On ch=1 n=c5 v=90
84540 On ch=1 n=c5 v=0
84540 On ch=1 n=d#5 v=90
84570 On ch=1 n=d#5 v=0
84570 On ch=1 n=g#5 v=0
84570 On ch=1 n=f6 v=90
84600 On ch=1 n=f6 v=0
84600 On ch=1 n=d#6 v=90
84660 On ch=1 n=d#5 v=0
84840 On ch=1 n=d#6 v=0
85200 On ch=1 n=c#7 v=114
85200 On ch=1 n=g#6 v=114
85200 On ch=1 n=e6 v=114
85200 On ch=1 n=c#6 v=114
85260 On ch=1 n=c#7 v=0
85260 On ch=1 n=g#6 v=0
85260 On ch=1 n=e6 v=0
85260 On ch=1 n=c#6 v=0
85260 On ch=1 n=c#7 v=114
85260 On ch=1 n=g#6 v=114
85260 On ch=1 n=e6 v=114
85260 On ch=1 n=c#6 v=114
85320 On ch=1 n=c#7 v=0
85320 On ch=1 n=g#6 v=0
85320 On ch=1 n=e6 v=0
85320 On ch=1 n=c#6 v=0
85320 On ch=1 n=c#7 v=114
85320 On ch=1 n=g#6 v=114
85320 On ch=1 n=e6 v=114
85320 On ch=1 n=c#6 v=114
85410 On ch=1 n=c#7 v=0
85410 On ch=1 n=g#6 v=0
85410 On ch=1 n=e6 v=0
85410 On ch=1 n=c#6 v=0
85440 On ch=1 n=g#5 v=114
85440 On ch=1 n=c#6 v=114
85440 On ch=1 n=g#6 v=114
85560 On ch=1 n=g#5 v=0
85560 On ch=1 n=c#6 v=0
85560 On ch=1 n=g#6 v=0
85560 On ch=1 n=a6 v=114
85560 On ch=1 n=c#6 v=114
85560 On ch=1 n=a5 v=114
85680 On ch=1 n=a6 v=0
85680 On ch=1 n=c#6 v=0
85680 On ch=1 n=a5 v=0
85680 On ch=1 n=g#5 v=114
85680 On ch=1 n=c#6 v=114
85680 On ch=1 n=g#6 v=114
85800 On ch=1 n=g#5 v=0
85800 On ch=1 n=c#6 v=0
85800 On ch=1 n=g#6 v=0
85800 On ch=1 n=f#5 v=114
85800 On ch=1 n=c#6 v=114
85800 On ch=1 n=f#6 v=114
85920 On ch=1 n=f#5 v=0
85920 On ch=1 n=c#6 v=0
85920 On ch=1 n=f#6 v=0
86040 On ch=1 n=c#7 v=114
86040 On ch=1 n=g#6 v=114
86040 On ch=1 n=e6 v=114
86040 On ch=1 n=c#6 v=114
86100 On ch=1 n=c#7 v=0
86100 On ch=1 n=g#6 v=0
86100 On ch=1 n=e6 v=0
86100 On ch=1 n=c#6 v=0
86100 On ch=1 n=c#7 v=114
86100 On ch=1 n=g#6 v=114
86100 On ch=1 n=e6 v=114
86100 On ch=1 n=c#6 v=114
86160 On ch=1 n=c#7 v=0
86160 On ch=1 n=g#6 v=0
86160 On ch=1 n=e6 v=0
86160 On ch=1 n=c#6 v=0
86160 On ch=1 n=c#7 v=114
86160 On ch=1 n=g#6 v=114
86160 On ch=1 n=e6 v=114
86160 On ch=1 n=c#6 v=114
86250 On ch=1 n=c#7 v=0
86250 On ch=1 n=g#6 v=0
86250 On ch=1 n=e6 v=0
86250 On ch=1 n=c#6 v=0
86280 On ch=1 n=g#5 v=114
86280 On ch=1 n=c#6 v=114
86280 On ch=1 n=g#6 v=114
86400 On ch=1 n=g#5 v=0
86400 On ch=1 n=c#6 v=0
86400 On ch=1 n=g#6 v=0
86400 On ch=1 n=a6 v=114
86400 On ch=1 n=c#6 v=114
86400 On ch=1 n=a5 v=114
86520 On ch=1 n=a6 v=0
86520 On ch=1 n=c#6 v=0
86520 On ch=1 n=a5 v=0
86520 On ch=1 n=g#5 v=114
86520 On ch=1 n=c#6 v=114
86520 On ch=1 n=g#6 v=114
86640 On ch=1 n=g#5 v=0
86640 On ch=1 n=c#6 v=0
86640 On ch=1 n=g#6 v=0
86640 On ch=1 n=f#5 v=114
86640 On ch=1 n=c#6 v=114
86640 On ch=1 n=f#6 v=114
86760 On ch=1 n=f#5 v=0
86760 On ch=1 n=c#6 v=0
86760 On ch=1 n=f#6 v=0
86760 On ch=1 n=e5 v=114
86760 On ch=1 n=c#6 v=114
86760 On ch=1 n=e6 v=114
86820 On ch=1 n=e5 v=0
86820 On ch=1 n=c#6 v=0
86820 On ch=1 n=e6 v=0
86820 On ch=1 n=g#5 v=114
86820 On ch=1 n=e5 v=114
86820 On ch=1 n=e6 v=114
86880 On ch=1 n=g#5 v=0
86880 On ch=1 n=e5 v=0
86880 On ch=1 n=e6 v=0
86880 On ch=1 n=e5 v=114
86880 On ch=1 n=g#5 v=114
86880 On ch=1 n=e6 v=114
87000 On ch=1 n=e5 v=0
87000 On ch=1 n=g#5 v=0
87000 On ch=1 n=e6 v=0
87000 On ch=1 n=d5 v=114
87000 On ch=1 n=g#5 v=114
87000 On ch=1 n=d6 v=114
87120 On ch=1 n=d5 v=0
87120 On ch=1 n=g#5 v=0
87120 On ch=1 n=d6 v=0
87120 On ch=1 n=c#5 v=114
87120 On ch=1 n=a5 v=114
87120 On ch=1 n=c#6 v=114
87180 On ch=1 n=c#5 v=0
87180 On ch=1 n=a5 v=0
87180 On ch=1 n=c#6 v=0
87180 On ch=1 n=c#6 v=114
87180 On ch=1 n=e5 v=114
87180 On ch=1 n=c#5 v=114
87240 On ch=1 n=c#6 v=0
87240 On ch=1 n=e5 v=0
87240 On ch=1 n=c#5 v=0
87240 On ch=1 n=c#5 v=114
87240 On ch=1 n=e5 v=114
87240 On ch=1 n=c#6 v=114
87360 On ch=1 n=c#5 v=0
87360 On ch=1 n=e5 v=0
87360 On ch=1 n=c#6 v=0
87360 On ch=1 n=b4 v=114
87360 On ch=1 n=f5 v=114
87360 On ch=1 n=b5 v=114
87480 On ch=1 n=b4 v=0
87480 On ch=1 n=f5 v=0
87480 On ch=1 n=b5 v=0
87480 On ch=1 n=a4 v=114
87480 On ch=1 n=f#5 v=114
87480 On ch=1 n=a5 v=114
87540 On ch=1 n=a4 v=0
87540 On ch=1 n=f#5 v=0
87540 On ch=1 n=a5 v=0
87540 On ch=1 n=a4 v=114
87540 On ch=1 n=c#5 v=114
87540 On ch=1 n=a5 v=114
87600 On ch=1 n=a4 v=0
87600 On ch=1 n=c#5 v=0
87600 On ch=1 n=a5 v=0
87600 On ch=1 n=a4 v=114
87600 On ch=1 n=c#5 v=114
87600 On ch=1 n=d#5 v=114
87600 On ch=1 n=a5 v=114
87720 On ch=1 n=a4 v=0
87720 On ch=1 n=c#5 v=0
87720 On ch=1 n=d#5 v=0
87720 On ch=1 n=a5 v=0
87720 On ch=1 n=a#4 v=114
87720 On ch=1 n=c#5 v=114
87720 On ch=1 n=d#5 v=114
87720 On ch=1 n=a#5 v=114
87840 On ch=1 n=a#4 v=0
87840 On ch=1 n=c#5 v=0
87840 On ch=1 n=d#5 v=0
87840 On ch=1 n=a#5 v=0
87840 On ch=1 n=g#4 v=114
87840 On ch=1 n=c5 v=114
87840 On ch=1 n=d#5 v=114
87840 On ch=1 n=g#5 v=114
87900 On ch=1 n=g#4 v=0
87900 On ch=1 n=c5 v=0
87900 On ch=1 n=d#5 v=0
87900 On ch=1 n=g#5 v=0
87900 On ch=1 n=g#5 v=114
87900 On ch=1 n=d#5 v=114
87900 On ch=1 n=c5 v=114
87900 On ch=1 n=g#4 v=114
87960 On ch=1 n=g#5 v=0
87960 On ch=1 n=d#5 v=0
87960 On ch=1 n=c5 v=0
87960 On ch=1 n=g#4 v=0
87960 On ch=1 n=g#4 v=114
87960 On ch=1 n=c5 v=114
87960 On ch=1 n=d#5 v=114
87960 On ch=1 n=g#5 v=114
88080 On ch=1 n=g#4 v=0
88080 On ch=1 n=c5 v=0
88080 On ch=1 n=d#5 v=0
88080 On ch=1 n=g#5 v=0
88080 On ch=1 n=g#5 v=114
88080 On ch=1 n=d#5 v=114
88080 On ch=1 n=c5 v=114
88080 On ch=1 n=g#4 v=114
88200 On ch=1 n=g#5 v=0
88200 On ch=1 n=d#5 v=0
88200 On ch=1 n=c5 v=0
88200 On ch=1 n=g#4 v=0
88320 On ch=1 n=c#7 v=114
88320 On ch=1 n=g#6 v=114
88320 On ch=1 n=e6 v=114
88320 On ch=1 n=c#6 v=114
88380 On ch=1 n=c#7 v=0
88380 On ch=1 n=g#6 v=0
88380 On ch=1 n=e6 v=0
88380 On ch=1 n=c#6 v=0
88380 On ch=1 n=c#7 v=114
88380 On ch=1 n=g#6 v=114
88380 On ch=1 n=e6 v=114
88380 On ch=1 n=c#6 v=114
88440 On ch=1 n=c#7 v=0
88440 On ch=1 n=g#6 v=0
88440 On ch=1 n=e6 v=0
88440 On ch=1 n=c#6 v=0
88440 On ch=1 n=c#7 v=114
88440 On ch=1 n=g#6 v=114
88440 On ch=1 n=e6 v=114
88440 On ch=1 n=c#6 v=114
88530 On ch=1 n=c#7 v=0
88530 On ch=1 n=g#6 v=0
88530 On ch=1 n=e6 v=0
88530 On ch=1 n=c#6 v=0
88560 On ch=1 n=g#5 v=114
88560 On ch=1 n=c#6 v=114
88560 On ch=1 n=g#6 v=114
88680 On ch=1 n=g#5 v=0
88680 On ch=1 n=c#6 v=0
88680 On ch=1 n=g#6 v=0
88680 On ch=1 n=a6 v=114
88680 On ch=1 n=c#6 v=114
88680 On ch=1 n=a5 v=114
88800 On ch=1 n=a6 v=0
88800 On ch=1 n=c#6 v=0
88800 On ch=1 n=a5 v=0
88800 On ch=1 n=g#5 v=114
88800 On ch=1 n=c#6 v=114
88800 On ch=1 n=g#6 v=114
88920 On ch=1 n=g#5 v=0
88920 On ch=1 n=c#6 v=0
88920 On ch=1 n=g#6 v=0
88920 On ch=1 n=f#5 v=114
88920 On ch=1 n=c#6 v=114
88920 On ch=1 n=f#6 v=114
89040 On ch=1 n=f#5 v=0
89040 On ch=1 n=c#6 v=0
89040 On ch=1 n=f#6 v=0
89160 On ch=1 n=c#7 v=114
89160 On ch=1 n=g#6 v=114
89160 On ch=1 n=e6 v=114
89160 On ch=1 n=c#6 v=114
89220 On ch=1 n=c#7 v=0
89220 On ch=1 n=g#6 v=0
89220 On ch=1 n=e6 v=0
89220 On ch=1 n=c#6 v=0
89220 On ch=1 n=c#7 v=114
89220 On ch=1 n=g#6 v=114
89220 On ch=1 n=e6 v=114
89220 On ch=1 n=c#6 v=114
89280 On ch=1 n=c#7 v=0
89280 On ch=1 n=g#6 v=0
89280 On ch=1 n=e6 v=0
89280 On ch=1 n=c#6 v=0
89280 On ch=1 n=c#7 v=114
89280 On ch=1 n=g#6 v=114
89280 On ch=1 n=e6 v=114
89280 On ch=1 n=c#6 v=114
89370 On ch=1 n=c#7 v=0
89370 On ch=1 n=g#6 v=0
89370 On ch=1 n=e6 v=0
89370 On ch=1 n=c#6 v=0
89400 On ch=1 n=g#5 v=114
89400 On ch=1 n=c#6 v=114
89400 On ch=1 n=g#6 v=114
89520 On ch=1 n=g#5 v=0
89520 On ch=1 n=c#6 v=0
89520 On ch=1 n=g#6 v=0
89520 On ch=1 n=a6 v=114
89520 On ch=1 n=c#6 v=114
89520 On ch=1 n=a5 v=114
89640 On ch=1 n=a6 v=0
89640 On ch=1 n=c#6 v=0
89640 On ch=1 n=a5 v=0
89640 On ch=1 n=g#5 v=114
89640 On ch=1 n=c#6 v=114
89640 On ch=1 n=g#6 v=114
89760 On ch=1 n=g#5 v=0
89760 On ch=1 n=c#6 v=0
89760 On ch=1 n=g#6 v=0
89760 On ch=1 n=f#5 v=114
89760 On ch=1 n=c#6 v=114
89760 On ch=1 n=f#6 v=114
89880 On ch=1 n=f#5 v=0
89880 On ch=1 n=c#6 v=0
89880 On ch=1 n=f#6 v=0
89880 On ch=1 n=e5 v=114
89880 On ch=1 n=c#6 v=114
89880 On ch=1 n=e6 v=114
89940 On ch=1 n=e5 v=0
89940 On ch=1 n=c#6 v=0
89940 On ch=1 n=e6 v=0
89940 On ch=1 n=g#5 v=114
89940 On ch=1 n=e5 v=114
89940 On ch=1 n=e6 v=114
90000 On ch=1 n=g#5 v=0
90000 On ch=1 n=e5 v=0
90000 On ch=1 n=e6 v=0
90000 On ch=1 n=e5 v=114
90000 On ch=1 n=g#5 v=114
90000 On ch=1 n=e6 v=114
90120 On ch=1 n=e5 v=0
90120 On ch=1 n=g#5 v=0
90120 On ch=1 n=e6 v=0
90120 On ch=1 n=d5 v=114
90120 On ch=1 n=g#5 v=114
90120 On ch=1 n=d6 v=114
90240 On ch=1 n=d5 v=0
90240 On ch=1 n=g#5 v=0
90240 On ch=1 n=d6 v=0
90240 On ch=1 n=c#5 v=114
90240 On ch=1 n=a5 v=114
90240 On ch=1 n=c#6 v=114
90300 On ch=1 n=c#5 v=0
90300 On ch=1 n=a5 v=0
90300 On ch=1 n=c#6 v=0
90300 On ch=1 n=c#6 v=114
90300 On ch=1 n=e5 v=114
90300 On ch=1 n=c#5 v=114
90360 On ch=1 n=c#6 v=0
90360 On ch=1 n=e5 v=0
90360 On ch=1 n=c#5 v=0
90360 On ch=1 n=c#5 v=114
90360 On ch=1 n=e5 v=114
90360 On ch=1 n=c#6 v=114
90480 On ch=1 n=c#5 v=0
90480 On ch=1 n=e5 v=0
90480 On ch=1 n=c#6 v=0
90480 On ch=1 n=b4 v=114
90480 On ch=1 n=f5 v=114
90480 On ch=1 n=b5 v=114
90600 On ch=1 n=b4 v=0
90600 On ch=1 n=f5 v=0
90600 On ch=1 n=b5 v=0
90600 On ch=1 n=a4 v=114
90600 On ch=1 n=f#5 v=114
90600 On ch=1 n=a5 v=114
90660 On ch=1 n=a4 v=0
90660 On ch=1 n=f#5 v=0
90660 On ch=1 n=a5 v=0
90660 On ch=1 n=a4 v=114
90660 On ch=1 n=c#5 v=114
90660 On ch=1 n=a5 v=114
90720 On ch=1 n=a4 v=0
90720 On ch=1 n=c#5 v=0
90720 On ch=1 n=a5 v=0
90720 On ch=1 n=a4 v=114
90720 On ch=1 n=c#5 v=114
90720 On ch=1 n=d#5 v=114
90720 On ch=1 n=a5 v=114
90840 On ch=1 n=a4 v=0
90840 On ch=1 n=c#5 v=0
90840 On ch=1 n=d#5 v=0
90840 On ch=1 n=a5 v=0
90840 On ch=1 n=a#4 v=114
90840 On ch=1 n=c#5 v=114
90840 On ch=1 n=d#5 v=114
90840 On ch=1 n=a#5 v=114
90960 On ch=1 n=a#4 v=0
90960 On ch=1 n=c#5 v=0
90960 On ch=1 n=d#5 v=0
90960 On ch=1 n=a#5 v=0
90960 On ch=1 n=g#4 v=114
90960 On ch=1 n=c5 v=114
90960 On ch=1 n=d#5 v=114
90960 On ch=1 n=g#5 v=114
91020 On ch=1 n=g#4 v=0
91020 On ch=1 n=c5 v=0
91020 On ch=1 n=d#5 v=0
91020 On ch=1 n=g#5 v=0
91020 On ch=1 n=g#5 v=114
91020 On ch=1 n=d#5 v=114
91020 On ch=1 n=c5 v=114
91020 On ch=1 n=g#4 v=114
91080 On ch=1 n=g#5 v=0
91080 On ch=1 n=d#5 v=0
91080 On ch=1 n=c5 v=0
91080 On ch=1 n=g#4 v=0
91080 On ch=1 n=g#4 v=114
91080 On ch=1 n=c5 v=114
91080 On ch=1 n=d#5 v=114
91080 On ch=1 n=g#5 v=114
91200 On ch=1 n=g#4 v=0
91200 On ch=1 n=c5 v=0
91200 On ch=1 n=d#5 v=0
91200 On ch=1 n=g#5 v=0
91200 On ch=1 n=g#5 v=114
91200 On ch=1 n=d#5 v=114
91200 On ch=1 n=c5 v=114
91200 On ch=1 n=g#4 v=114
91320 On ch=1 n=g#5 v=0
91320 On ch=1 n=d#5 v=0
91320 On ch=1 n=c5 v=0
91320 On ch=1 n=g#4 v=0
91560 On ch=1 n=g#5 v=65
91560 On ch=1 n=c#6 v=65
91560 On ch=1 n=f6 v=65
91620 On ch=1 n=g#5 v=0
91620 On ch=1 n=c#6 v=0
91620 On ch=1 n=f6 v=0
91620 On ch=1 n=f6 v=68
91620 On ch=1 n=c#6 v=68
91620 On ch=1 n=g#5 v=68
91680 On ch=1 n=f6 v=0
91680 On ch=1 n=c#6 v=0
91680 On ch=1 n=g#5 v=0
91680 On ch=1 n=g#5 v=71
91680 On ch=1 n=c#6 v=71
91680 On ch=1 n=f6 v=71
91800 On ch=1 n=g#5 v=0
91800 On ch=1 n=c#6 v=0
91800 On ch=1 n=f6 v=0
91800 On ch=1 n=f6 v=74
91800 On ch=1 n=c#6 v=74
91800 On ch=1 n=a5 v=74
91920 On ch=1 n=f6 v=0
91920 On ch=1 n=c#6 v=0
91920 On ch=1 n=a5 v=0
91920 On ch=1 n=a#5 v=78
91920 On ch=1 n=c#6 v=78
91920 On ch=1 n=f6 v=78
91980 On ch=1 n=a#5 v=0
91980 On ch=1 n=c#6 v=0
91980 On ch=1 n=f6 v=0
91980 On ch=1 n=a#5 v=74
91980 On ch=1 n=c#6 v=74
91980 On ch=1 n=d#6 v=74
92040 On ch=1 n=a#5 v=0
92040 On ch=1 n=c#6 v=0
92040 On ch=1 n=d#6 v=0
92040 On ch=1 n=a#5 v=71
92040 On ch=1 n=c#6 v=71
92040 On ch=1 n=d#6 v=71
92160 On ch=1 n=a#5 v=0
92160 On ch=1 n=c#6 v=0
92160 On ch=1 n=d#6 v=0
92160 On ch=1 n=d#6 v=68
92160 On ch=1 n=c#6 v=68
92160 On ch=1 n=a#5 v=68
92280 On ch=1 n=d#6 v=0
92280 On ch=1 n=c#6 v=0
92280 On ch=1 n=a#5 v=0
92280 On ch=1 n=c#6 v=65
92280 On ch=1 n=d#6 v=65
92280 On ch=1 n=a#6 v=65
92340 On ch=1 n=c#6 v=0
92340 On ch=1 n=d#6 v=0
92340 On ch=1 n=a#6 v=0
92340 On ch=1 n=c#6 v=68
92340 On ch=1 n=d#6 v=68
92340 On ch=1 n=a#6 v=68
92400 On ch=1 n=c#6 v=0
92400 On ch=1 n=d#6 v=0
92400 On ch=1 n=a#6 v=0
92400 On ch=1 n=c#6 v=71
92400 On ch=1 n=d#6 v=71
92400 On ch=1 n=a#6 v=71
92520 On ch=1 n=c#6 v=0
92520 On ch=1 n=d#6 v=0
92520 On ch=1 n=a#6 v=0
92520 On ch=1 n=c#6 v=74
92520 On ch=1 n=e6 v=74
92520 On ch=1 n=a#6 v=74
92640 On ch=1 n=c#6 v=0
92640 On ch=1 n=e6 v=0
92640 On ch=1 n=a#6 v=0
92640 On ch=1 n=c#6 v=78
92640 On ch=1 n=e6 v=78
92640 On ch=1 n=a#6 v=78
92700 On ch=1 n=c#6 v=0
92700 On ch=1 n=e6 v=0
92700 On ch=1 n=a#6 v=0
92700 On ch=1 n=c6 v=74
92700 On ch=1 n=d#6 v=74
92700 On ch=1 n=g#6 v=74
92760 On ch=1 n=c6 v=0
92760 On ch=1 n=d#6 v=0
92760 On ch=1 n=g#6 v=0
92760 On ch=1 n=c6 v=71
92760 On ch=1 n=d#6 v=71
92760 On ch=1 n=g#6 v=71
92880 On ch=1 n=c6 v=0
92880 On ch=1 n=d#6 v=0
92880 On ch=1 n=g#6 v=0
92880 On ch=1 n=c6 v=68
92880 On ch=1 n=d#6 v=68
92880 On ch=1 n=g#6 v=68
93000 On ch=1 n=c6 v=0
93000 On ch=1 n=d#6 v=0
93000 On ch=1 n=g#6 v=0
93000 On ch=1 n=d#6 v=65
93000 On ch=1 n=f6 v=65
93000 On ch=1 n=c7 v=65
93060 On ch=1 n=d#6 v=0
93060 On ch=1 n=f6 v=0
93060 On ch=1 n=c7 v=0
93060 On ch=1 n=d#6 v=68
93060 On ch=1 n=f6 v=68
93060 On ch=1 n=c7 v=68
93120 On ch=1 n=d#6 v=0
93120 On ch=1 n=f6 v=0
93120 On ch=1 n=c7 v=0
93120 On ch=1 n=d#6 v=71
93120 On ch=1 n=f6 v=71
93120 On ch=1 n=c7 v=71
93240 On ch=1 n=d#6 v=0
93240 On ch=1 n=f6 v=0
93240 On ch=1 n=c7 v=0
93240 On ch=1 n=d#6 v=74
93240 On ch=1 n=f#6 v=74
93240 On ch=1 n=c7 v=74
93360 On ch=1 n=d#6 v=0
93360 On ch=1 n=f#6 v=0
93360 On ch=1 n=c7 v=0
93360 On ch=1 n=d#6 v=78
93360 On ch=1 n=f#6 v=78
93360 On ch=1 n=c7 v=78
93420 On ch=1 n=d#6 v=0
93420 On ch=1 n=f#6 v=0
93420 On ch=1 n=c7 v=0
93420 On ch=1 n=c#6 v=74
93420 On ch=1 n=f6 v=74
93420 On ch=1 n=c#7 v=74
93480 On ch=1 n=c#6 v=0
93480 On ch=1 n=f6 v=0
93480 On ch=1 n=c#7 v=0
93480 On ch=1 n=c#6 v=71
93480 On ch=1 n=f6 v=71
93480 On ch=1 n=c#7 v=71
93600 On ch=1 n=c#6 v=0
93600 On ch=1 n=f6 v=0
93600 On ch=1 n=c#7 v=0
93600 On ch=1 n=c#6 v=68
93600 On ch=1 n=f6 v=68
93600 On ch=1 n=c#7 v=68
93720 On ch=1 n=c#6 v=0
93720 On ch=1 n=f6 v=0
93720 On ch=1 n=c#7 v=0
93720 On ch=1 n=c6 v=65
93720 On ch=1 n=g6 v=65
93720 On ch=1 n=c#7 v=65
93780 On ch=1 n=c6 v=0
93780 On ch=1 n=g6 v=0
93780 On ch=1 n=c#7 v=0
93780 On ch=1 n=c#6 v=68
93840 On ch=1 n=c#6 v=0
93840 On ch=1 n=g6 v=71
93840 On ch=1 n=c#6 v=71
93960 On ch=1 n=g6 v=0
93960 On ch=1 n=c#6 v=0
93960 On ch=1 n=g6 v=74
93960 On ch=1 n=c#6 v=74
94080 On ch=1 n=g6 v=0
94080 On ch=1 n=c#6 v=0
94080 On ch=1 n=c#6 v=78
94080 On ch=1 n=e6 v=78
94080 On ch=1 n=a#6 v=78
94140 On ch=1 n=c#6 v=0
94140 On ch=1 n=e6 v=0
94140 On ch=1 n=a#6 v=0
94140 On ch=1 n=d#6 v=74
94200 On ch=1 n=d#6 v=0
94200 On ch=1 n=c6 v=71
94200 On ch=1 n=d#6 v=71
94200 On ch=1 n=g#6 v=71
94320 On ch=1 n=c6 v=0
94320 On ch=1 n=d#6 v=0
94320 On ch=1 n=g#6 v=0
94320 On ch=1 n=c6 v=68
94320 On ch=1 n=d#6 v=68
94320 On ch=1 n=g#6 v=68
94440 On ch=1 n=c6 v=0
94440 On ch=1 n=d#6 v=0
94440 On ch=1 n=g#6 v=0
94440 On ch=1 n=g#5 v=65
94440 On ch=1 n=c#6 v=65
94440 On ch=1 n=f6 v=65
94500 On ch=1 n=g#5 v=0
94500 On ch=1 n=c#6 v=0
94500 On ch=1 n=f6 v=0
94500 On ch=1 n=f6 v=68
94500 On ch=1 n=c#6 v=68
94500 On ch=1 n=g#5 v=68
94560 On ch=1 n=f6 v=0
94560 On ch=1 n=c#6 v=0
94560 On ch=1 n=g#5 v=0
94560 On ch=1 n=g#5 v=71
94560 On ch=1 n=c#6 v=71
94560 On ch=1 n=f6 v=71
94680 On ch=1 n=g#5 v=0
94680 On ch=1 n=c#6 v=0
94680 On ch=1 n=f6 v=0
94680 On ch=1 n=f6 v=74
94680 On ch=1 n=c#6 v=74
94680 On ch=1 n=a5 v=74
94800 On ch=1 n=f6 v=0
94800 On ch=1 n=c#6 v=0
94800 On ch=1 n=a5 v=0
94800 On ch=1 n=a#5 v=78
94800 On ch=1 n=c#6 v=78
94800 On ch=1 n=f6 v=78
94860 On ch=1 n=a#5 v=0
94860 On ch=1 n=c#6 v=0
94860 On ch=1 n=f6 v=0
94860 On ch=1 n=a#5 v=74
94860 On ch=1 n=c#6 v=74
94860 On ch=1 n=d#6 v=74
94920 On ch=1 n=a#5 v=0
94920 On ch=1 n=c#6 v=0
94920 On ch=1 n=d#6 v=0
94920 On ch=1 n=a#5 v=71
94920 On ch=1 n=c#6 v=71
94920 On ch=1 n=d#6 v=71
95040 On ch=1 n=a#5 v=0
95040 On ch=1 n=c#6 v=0
95040 On ch=1 n=d#6 v=0
95040 On ch=1 n=d#6 v=68
95040 On ch=1 n=c#6 v=68
95040 On ch=1 n=a#5 v=68
95160 On ch=1 n=d#6 v=0
95160 On ch=1 n=c#6 v=0
95160 On ch=1 n=a#5 v=0
95160 On ch=1 n=c#6 v=65
95160 On ch=1 n=d#6 v=65
95160 On ch=1 n=a#6 v=65
95220 On ch=1 n=c#6 v=0
95220 On ch=1 n=d#6 v=0
95220 On ch=1 n=a#6 v=0
95220 On ch=1 n=c#6 v=68
95220 On ch=1 n=d#6 v=68
95220 On ch=1 n=a#6 v=68
95280 On ch=1 n=c#6 v=0
95280 On ch=1 n=d#6 v=0
95280 On ch=1 n=a#6 v=0
95280 On ch=1 n=c#6 v=71
95280 On ch=1 n=d#6 v=71
95280 On ch=1 n=a#6 v=71
95400 On ch=1 n=c#6 v=0
95400 On ch=1 n=d#6 v=0
95400 On ch=1 n=a#6 v=0
95400 On ch=1 n=c#6 v=74
95400 On ch=1 n=e6 v=74
95400 On ch=1 n=a#6 v=74
95520 On ch=1 n=c#6 v=0
95520 On ch=1 n=e6 v=0
95520 On ch=1 n=a#6 v=0
95520 On ch=1 n=c#6 v=78
95520 On ch=1 n=e6 v=78
95520 On ch=1 n=a#6 v=78
95580 On ch=1 n=c#6 v=0
95580 On ch=1 n=e6 v=0
95580 On ch=1 n=a#6 v=0
95580 On ch=1 n=c6 v=74
95580 On ch=1 n=d#6 v=74
95580 On ch=1 n=g#6 v=74
95640 On ch=1 n=c6 v=0
95640 On ch=1 n=d#6 v=0
95640 On ch=1 n=g#6 v=0
95640 On ch=1 n=c6 v=71
95640 On ch=1 n=d#6 v=71
95640 On ch=1 n=g#6 v=71
95760 On ch=1 n=c6 v=0
95760 On ch=1 n=d#6 v=0
95760 On ch=1 n=g#6 v=0
95760 On ch=1 n=c6 v=68
95760 On ch=1 n=d#6 v=68
95760 On ch=1 n=g#6 v=68
95880 On ch=1 n=c6 v=0
95880 On ch=1 n=d#6 v=0
95880 On ch=1 n=g#6 v=0
95880 On ch=1 n=d#6 v=65
95880 On ch=1 n=f6 v=65
95880 On ch=1 n=c7 v=65
95940 On ch=1 n=d#6 v=0
95940 On ch=1 n=f6 v=0
95940 On ch=1 n=c7 v=0
95940 On ch=1 n=d#6 v=68
95940 On ch=1 n=f6 v=68
95940 On ch=1 n=c7 v=68
96000 On ch=1 n=d#6 v=0
96000 On ch=1 n=f6 v=0
96000 On ch=1 n=c7 v=0
96000 On ch=1 n=d#6 v=71
96000 On ch=1 n=f6 v=71
96000 On ch=1 n=c7 v=71
96120 On ch=1 n=d#6 v=0
96120 On ch=1 n=f6 v=0
96120 On ch=1 n=c7 v=0
96120 On ch=1 n=d#6 v=74
96120 On ch=1 n=f#6 v=74
96120 On ch=1 n=c7 v=74
96240 On ch=1 n=d#6 v=0
96240 On ch=1 n=f#6 v=0
96240 On ch=1 n=c7 v=0
96240 On ch=1 n=d#6 v=78
96240 On ch=1 n=f#6 v=78
96240 On ch=1 n=c7 v=78
96300 On ch=1 n=d#6 v=0
96300 On ch=1 n=f#6 v=0
96300 On ch=1 n=c7 v=0
96300 On ch=1 n=c#6 v=74
96300 On ch=1 n=f6 v=74
96300 On ch=1 n=c#7 v=74
96360 On ch=1 n=c#6 v=0
96360 On ch=1 n=f6 v=0
96360 On ch=1 n=c#7 v=0
96360 On ch=1 n=c#6 v=71
96360 On ch=1 n=f6 v=71
96360 On ch=1 n=c#7 v=71
96480 On ch=1 n=c#6 v=0
96480 On ch=1 n=f6 v=0
96480 On ch=1 n=c#7 v=0
96480 On ch=1 n=c#6 v=68
96480 On ch=1 n=f6 v=68
96480 On ch=1 n=c#7 v=68
96600 On ch=1 n=c#6 v=0
96600 On ch=1 n=f6 v=0
96600 On ch=1 n=c#7 v=0
96600 On ch=1 n=c6 v=65
96600 On ch=1 n=g6 v=65
96600 On ch=1 n=c#7 v=65
96660 On ch=1 n=c6 v=0
96660 On ch=1 n=g6 v=0
96660 On ch=1 n=c#7 v=0
96660 On ch=1 n=c#6 v=68
96720 On ch=1 n=c#6 v=0
96720 On ch=1 n=g6 v=71
96720 On ch=1 n=c#6 v=71
96840 On ch=1 n=g6 v=0
96840 On ch=1 n=c#6 v=0
96840 On ch=1 n=g6 v=74
96840 On ch=1 n=c#6 v=74
96960 On ch=1 n=g6 v=0
96960 On ch=1 n=c#6 v=0
96960 On ch=1 n=c#6 v=78
96960 On ch=1 n=e6 v=78
96960 On ch=1 n=a#6 v=78
97020 On ch=1 n=c#6 v=0
97020 On ch=1 n=e6 v=0
97020 On ch=1 n=a#6 v=0
97020 On ch=1 n=d#6 v=74
97080 On ch=1 n=d#6 v=0
97080 On ch=1 n=c6 v=71
97080 On ch=1 n=d#6 v=71
97080 On ch=1 n=g#6 v=71
97200 On ch=1 n=c6 v=0
97200 On ch=1 n=d#6 v=0
97200 On ch=1 n=g#6 v=0
97200 On ch=1 n=c6 v=68
97200 On ch=1 n=d#6 v=68
97200 On ch=1 n=g#6 v=68
97320 On ch=1 n=c6 v=0
97320 On ch=1 n=d#6 v=0
97320 On ch=1 n=g#6 v=0
97320 On ch=1 n=a#6 v=65
97320 On ch=1 n=f#6 v=65
97320 On ch=1 n=d#6 v=65
97320 On ch=1 n=c6 v=65
97377 On ch=1 n=c6 v=65
97380 On ch=1 n=a#6 v=0
97380 On ch=1 n=f#6 v=0
97380 On ch=1 n=d#6 v=0
97380 On ch=1 n=c6 v=0
97380 On ch=1 n=d#6 v=65
97383 On ch=1 n=f#6 v=65
97387 On ch=1 n=a#6 v=65
97440 On ch=1 n=c6 v=0
97440 On ch=1 n=d#6 v=0
97440 On ch=1 n=f#6 v=0
97440 On ch=1 n=a#6 v=0
97440 On ch=1 n=a#6 v=65
97440 On ch=1 n=f#6 v=65
97440 On ch=1 n=d#6 v=65
97440 On ch=1 n=c6 v=65
97560 On ch=1 n=a#6 v=0
97560 On ch=1 n=f#6 v=0
97560 On ch=1 n=d#6 v=0
97560 On ch=1 n=c6 v=0
97560 On ch=1 n=g#6 v=65
97560 On ch=1 n=c#6 v=65
97560 On ch=1 n=f6 v=65
97680 On ch=1 n=g#6 v=0
97680 On ch=1 n=c#6 v=0
97680 On ch=1 n=f6 v=0
97680 On ch=1 n=f#6 v=65
97680 On ch=1 n=d#6 v=65
97680 On ch=1 n=c6 v=65
97680 On ch=1 n=a5 v=65
97737 On ch=1 n=a5 v=65
97740 On ch=1 n=f#6 v=0
97740 On ch=1 n=d#6 v=0
97740 On ch=1 n=c6 v=0
97740 On ch=1 n=a5 v=0
97740 On ch=1 n=c6 v=65
97743 On ch=1 n=d#6 v=65
97747 On ch=1 n=f#6 v=65
97800 On ch=1 n=a5 v=0
97800 On ch=1 n=c6 v=0
97800 On ch=1 n=d#6 v=0
97800 On ch=1 n=f#6 v=0
97800 On ch=1 n=f#6 v=65
97800 On ch=1 n=d#6 v=65
97800 On ch=1 n=c6 v=65
97800 On ch=1 n=a5 v=65
97920 On ch=1 n=f#6 v=0
97920 On ch=1 n=d#6 v=0
97920 On ch=1 n=c6 v=0
97920 On ch=1 n=a5 v=0
97920 On ch=1 n=a#5 v=65
97920 On ch=1 n=c#6 v=65
97920 On ch=1 n=f6 v=65
98040 On ch=1 n=a#5 v=0
98040 On ch=1 n=c#6 v=0
98040 On ch=1 n=f6 v=0
98040 On ch=1 n=a#5 v=65
98040 On ch=1 n=c#6 v=65
98040 On ch=1 n=d#6 v=65
98100 On ch=1 n=a#5 v=0
98100 On ch=1 n=c#6 v=0
98100 On ch=1 n=d#6 v=0
98100 On ch=1 n=d#6 v=65
98100 On ch=1 n=c#6 v=65
98100 On ch=1 n=a#5 v=65
98160 On ch=1 n=d#6 v=0
98160 On ch=1 n=c#6 v=0
98160 On ch=1 n=a#5 v=0
98160 On ch=1 n=a#5 v=65
98160 On ch=1 n=c#6 v=65
98160 On ch=1 n=d#6 v=65
98280 On ch=1 n=a#5 v=0
98280 On ch=1 n=c#6 v=0
98280 On ch=1 n=d#6 v=0
98280 On ch=1 n=a#5 v=73
98280 On ch=1 n=c#6 v=73
98280 On ch=1 n=f6 v=73
98400 On ch=1 n=a#5 v=0
98400 On ch=1 n=c#6 v=0
98400 On ch=1 n=f6 v=0
98400 On ch=1 n=a#5 v=65
98400 On ch=1 n=c#6 v=65
98400 On ch=1 n=f6 v=65
98460 On ch=1 n=a#5 v=0
98460 On ch=1 n=c#6 v=0
98460 On ch=1 n=f6 v=0
98460 On ch=1 n=d#6 v=65
98460 On ch=1 n=c6 v=65
98520 On ch=1 n=d#6 v=0
98520 On ch=1 n=c6 v=0
98520 On ch=1 n=c6 v=65
98520 On ch=1 n=d#6 v=65
98640 On ch=1 n=c6 v=0
98640 On ch=1 n=d#6 v=0
98640 On ch=1 n=d#6 v=65
98640 On ch=1 n=c6 v=65
98760 On ch=1 n=d#6 v=0
98760 On ch=1 n=c6 v=0
98760 On ch=1 n=a#6 v=69
98760 On ch=1 n=f#6 v=69
98760 On ch=1 n=d#6 v=69
98760 On ch=1 n=c6 v=69
98820 On ch=1 n=a#6 v=0
98820 On ch=1 n=f#6 v=0
98820 On ch=1 n=d#6 v=0
98820 On ch=1 n=c6 v=0
98820 On ch=1 n=c6 v=69
98820 On ch=1 n=d#6 v=69
98820 On ch=1 n=f#6 v=69
98820 On ch=1 n=a#6 v=69
98880 On ch=1 n=c6 v=0
98880 On ch=1 n=d#6 v=0
98880 On ch=1 n=f#6 v=0
98880 On ch=1 n=a#6 v=0
98880 On ch=1 n=a#6 v=74
98880 On ch=1 n=f#6 v=74
98880 On ch=1 n=d#6 v=74
98880 On ch=1 n=c6 v=74
99000 On ch=1 n=a#6 v=0
99000 On ch=1 n=f#6 v=0
99000 On ch=1 n=d#6 v=0
99000 On ch=1 n=c6 v=0
99000 On ch=1 n=c#6 v=78
99000 On ch=1 n=f6 v=78
99000 On ch=1 n=g#6 v=78
99120 On ch=1 n=c#6 v=0
99120 On ch=1 n=f6 v=0
99120 On ch=1 n=g#6 v=0
99120 On ch=1 n=c7 v=83
99120 On ch=1 n=f#6 v=83
99120 On ch=1 n=d#6 v=83
99180 On ch=1 n=c7 v=0
99180 On ch=1 n=f#6 v=0
99180 On ch=1 n=d#6 v=0
99180 On ch=1 n=d#6 v=83
99180 On ch=1 n=f#6 v=83
99180 On ch=1 n=c7 v=83
99240 On ch=1 n=d#6 v=0
99240 On ch=1 n=f#6 v=0
99240 On ch=1 n=c7 v=0
99240 On ch=1 n=c7 v=87
99240 On ch=1 n=f#6 v=87
99240 On ch=1 n=d#6 v=87
99360 On ch=1 n=c7 v=0
99360 On ch=1 n=f#6 v=0
99360 On ch=1 n=d#6 v=0
99360 On ch=1 n=c#6 v=92
99360 On ch=1 n=f6 v=92
99360 On ch=1 n=c#7 v=92
99480 On ch=1 n=c#6 v=0
99480 On ch=1 n=f6 v=0
99480 On ch=1 n=c#7 v=0
99480 On ch=1 n=d#7 v=96
99480 On ch=1 n=a#6 v=96
99480 On ch=1 n=d#6 v=96
99540 On ch=1 n=d#7 v=0
99540 On ch=1 n=a#6 v=0
99540 On ch=1 n=d#6 v=0
99540 On ch=1 n=d#7 v=96
99540 On ch=1 n=a#6 v=96
99540 On ch=1 n=d#6 v=96
99600 On ch=1 n=d#7 v=0
99600 On ch=1 n=a#6 v=0
99600 On ch=1 n=d#6 v=0
99600 On ch=1 n=e6 v=101
99600 On ch=1 n=a#6 v=101
99600 On ch=1 n=e7 v=101
99720 On ch=1 n=e6 v=0
99720 On ch=1 n=a#6 v=0
99720 On ch=1 n=e7 v=0
99720 On ch=1 n=e7 v=102
99720 On ch=1 n=a#6 v=102
99720 On ch=1 n=e6 v=102
99840 On ch=1 n=e7 v=0
99840 On ch=1 n=a#6 v=0
99840 On ch=1 n=e6 v=0
99840 On ch=1 n=f7 v=102
99840 On ch=1 n=a6 v=102
99840 On ch=1 n=f6 v=102
100080 On ch=1 n=f7 v=0
100080 On ch=1 n=a6 v=0
100080 On ch=1 n=f6 v=0
100080 On ch=1 n=f#5 v=102
100080 On ch=1 n=c6 v=102
100080 On ch=1 n=d#6 v=102
100080 On ch=1 n=g#6 v=102
100200 On ch=1 n=f#5 v=0
100200 On ch=1 n=c6 v=0
100200 On ch=1 n=d#6 v=0
100200 On ch=1 n=g#6 v=0
100200 On ch=1 n=f5 v=102
100200 On ch=1 n=c#6 v=102
100200 On ch=1 n=f6 v=102
100260 On ch=1 n=f5 v=0
100260 On ch=1 n=c#6 v=0
100260 On ch=1 n=f6 v=0
100260 On ch=1 n=f6 v=102
100260 On ch=1 n=c#6 v=102
100260 On ch=1 n=g#5 v=102
100320 On ch=1 n=f6 v=0
100320 On ch=1 n=c#6 v=0
100320 On ch=1 n=g#5 v=0
100320 On ch=1 n=g#5 v=102
100320 On ch=1 n=c#6 v=102
100320 On ch=1 n=f6 v=102
100440 On ch=1 n=g#5 v=0
100440 On ch=1 n=c#6 v=0
100440 On ch=1 n=f6 v=0
100440 On ch=1 n=f6 v=102
100440 On ch=1 n=c#6 v=102
100440 On ch=1 n=a5 v=102
100560 On ch=1 n=f6 v=0
100560 On ch=1 n=c#6 v=0
100560 On ch=1 n=a5 v=0
100560 On ch=1 n=a#5 v=102
100560 On ch=1 n=c#6 v=102
100560 On ch=1 n=f6 v=102
100620 On ch=1 n=a#5 v=0
100620 On ch=1 n=c#6 v=0
100620 On ch=1 n=f6 v=0
100620 On ch=1 n=a#5 v=102
100620 On ch=1 n=c#6 v=102
100620 On ch=1 n=d#6 v=102
100680 On ch=1 n=a#5 v=0
100680 On ch=1 n=c#6 v=0
100680 On ch=1 n=d#6 v=0
100680 On ch=1 n=a#5 v=102
100680 On ch=1 n=c#6 v=102
100680 On ch=1 n=d#6 v=102
100800 On ch=1 n=a#5 v=0
100800 On ch=1 n=c#6 v=0
100800 On ch=1 n=d#6 v=0
100800 On ch=1 n=d#6 v=102
100800 On ch=1 n=c#6 v=102
100800 On ch=1 n=a#5 v=102
100920 On ch=1 n=d#6 v=0
100920 On ch=1 n=c#6 v=0
100920 On ch=1 n=a#5 v=0
100920 On ch=1 n=a#6 v=102
100920 On ch=1 n=d#6 v=102
100920 On ch=1 n=c#6 v=102
100980 On ch=1 n=a#6 v=0
100980 On ch=1 n=d#6 v=0
100980 On ch=1 n=c#6 v=0
100980 On ch=1 n=c#6 v=102
100980 On ch=1 n=d#6 v=102
100980 On ch=1 n=a#6 v=102
101040 On ch=1 n=c#6 v=0
101040 On ch=1 n=d#6 v=0
101040 On ch=1 n=a#6 v=0
101040 On ch=1 n=a#6 v=102
101040 On ch=1 n=d#6 v=102
101040 On ch=1 n=c#6 v=102
101160 On ch=1 n=a#6 v=0
101160 On ch=1 n=d#6 v=0
101160 On ch=1 n=c#6 v=0
101160 On ch=1 n=c#6 v=102
101160 On ch=1 n=e6 v=102
101160 On ch=1 n=a#6 v=102
101280 On ch=1 n=c#6 v=0
101280 On ch=1 n=e6 v=0
101280 On ch=1 n=a#6 v=0
101280 On ch=1 n=c#6 v=102
101280 On ch=1 n=e6 v=102
101280 On ch=1 n=a#6 v=102
101340 On ch=1 n=c#6 v=0
101340 On ch=1 n=e6 v=0
101340 On ch=1 n=a#6 v=0
101340 On ch=1 n=g#6 v=102
101340 On ch=1 n=d#6 v=102
101340 On ch=1 n=c6 v=102
101400 On ch=1 n=g#6 v=0
101400 On ch=1 n=d#6 v=0
101400 On ch=1 n=c6 v=0
101400 On ch=1 n=g#6 v=102
101400 On ch=1 n=d#6 v=102
101400 On ch=1 n=c6 v=102
101520 On ch=1 n=g#6 v=0
101520 On ch=1 n=d#6 v=0
101520 On ch=1 n=c6 v=0
101520 On ch=1 n=c6 v=102
101520 On ch=1 n=d#6 v=102
101520 On ch=1 n=g#6 v=102
101640 On ch=1 n=c6 v=0
101640 On ch=1 n=d#6 v=0
101640 On ch=1 n=g#6 v=0
101640 On ch=1 n=c7 v=102
101640 On ch=1 n=f6 v=102
101640 On ch=1 n=d#6 v=102
101700 On ch=1 n=c7 v=0
101700 On ch=1 n=f6 v=0
101700 On ch=1 n=d#6 v=0
101700 On ch=1 n=f6 v=102
101700 On ch=1 n=d#6 v=102
101700 On ch=1 n=c7 v=102
101760 On ch=1 n=f6 v=0
101760 On ch=1 n=d#6 v=0
101760 On ch=1 n=c7 v=0
101760 On ch=1 n=d#6 v=102
101760 On ch=1 n=f6 v=102
101760 On ch=1 n=c7 v=102
101880 On ch=1 n=d#6 v=0
101880 On ch=1 n=f6 v=0
101880 On ch=1 n=c7 v=0
101880 On ch=1 n=c7 v=102
101880 On ch=1 n=f#6 v=102
101880 On ch=1 n=d#6 v=102
102000 On ch=1 n=c7 v=0
102000 On ch=1 n=f#6 v=0
102000 On ch=1 n=d#6 v=0
102000 On ch=1 n=c7 v=102
102000 On ch=1 n=f#6 v=102
102000 On ch=1 n=d#6 v=102
102060 On ch=1 n=c7 v=0
102060 On ch=1 n=f#6 v=0
102060 On ch=1 n=d#6 v=0
102060 On ch=1 n=c#6 v=102
102060 On ch=1 n=f6 v=102
102060 On ch=1 n=c#7 v=102
102120 On ch=1 n=c#6 v=0
102120 On ch=1 n=f6 v=0
102120 On ch=1 n=c#7 v=0
102120 On ch=1 n=c#7 v=102
102120 On ch=1 n=f6 v=102
102120 On ch=1 n=c#6 v=102
102240 On ch=1 n=c#7 v=0
102240 On ch=1 n=f6 v=0
102240 On ch=1 n=c#6 v=0
102240 On ch=1 n=c#6 v=102
102240 On ch=1 n=g6 v=102
102240 On ch=1 n=c#7 v=102
102360 On ch=1 n=c#6 v=0
102360 On ch=1 n=g6 v=0
102360 On ch=1 n=c#7 v=0
102360 On ch=1 n=c#7 v=102
102360 On ch=1 n=a#6 v=102
102360 On ch=1 n=c#6 v=102
102420 On ch=1 n=c#7 v=0
102420 On ch=1 n=a#6 v=0
102420 On ch=1 n=c#6 v=0
102420 On ch=1 n=c#6 v=102
102420 On ch=1 n=g#6 v=102
102420 On ch=1 n=c#7 v=102
102480 On ch=1 n=c#6 v=0
102480 On ch=1 n=g#6 v=0
102480 On ch=1 n=c#7 v=0
102480 On ch=1 n=c#6 v=102
102480 On ch=1 n=g#6 v=102
102480 On ch=1 n=c#7 v=102
102600 On ch=1 n=c#6 v=0
102600 On ch=1 n=g#6 v=0
102600 On ch=1 n=c#7 v=0
102600 On ch=1 n=f#5 v=108
102600 On ch=1 n=c6 v=108
102600 On ch=1 n=g#6 v=108
102720 On ch=1 n=f#5 v=0
102720 On ch=1 n=c6 v=0
102720 On ch=1 n=g#6 v=0
102720 On ch=1 n=f#5 v=94
102720 On ch=1 n=d#6 v=94
102720 On ch=1 n=g#6 v=100
102780 On ch=1 n=f#5 v=0
102780 On ch=1 n=d#6 v=0
102780 On ch=1 n=c#6 v=86
102780 On ch=1 n=f5 v=86
102840 On ch=1 n=c#6 v=0
102840 On ch=1 n=f5 v=0
102840 On ch=1 n=f5 v=78
102840 On ch=1 n=c#6 v=78
102960 On ch=1 n=g#6 v=0
102960 On ch=1 n=f5 v=0
102960 On ch=1 n=c#6 v=0
103080 On ch=1 n=a#6 v=65
103080 On ch=1 n=f#6 v=65
103080 On ch=1 n=d#6 v=65
103080 On ch=1 n=c6 v=65
103137 On ch=1 n=c6 v=65
103140 On ch=1 n=a#6 v=0
103140 On ch=1 n=f#6 v=0
103140 On ch=1 n=d#6 v=0
103140 On ch=1 n=c6 v=0
103140 On ch=1 n=d#6 v=65
103143 On ch=1 n=f#6 v=65
103147 On ch=1 n=a#6 v=65
103200 On ch=1 n=c6 v=0
103200 On ch=1 n=d#6 v=0
103200 On ch=1 n=f#6 v=0
103200 On ch=1 n=a#6 v=0
103200 On ch=1 n=a#6 v=65
103200 On ch=1 n=f#6 v=65
103200 On ch=1 n=d#6 v=65
103200 On ch=1 n=c6 v=65
103320 On ch=1 n=a#6 v=0
103320 On ch=1 n=f#6 v=0
103320 On ch=1 n=d#6 v=0
103320 On ch=1 n=c6 v=0
103320 On ch=1 n=g#6 v=65
103320 On ch=1 n=c#6 v=65
103320 On ch=1 n=f6 v=65
103440 On ch=1 n=g#6 v=0
103440 On ch=1 n=c#6 v=0
103440 On ch=1 n=f6 v=0
103440 On ch=1 n=f#6 v=65
103440 On ch=1 n=d#6 v=65
103440 On ch=1 n=c6 v=65
103440 On ch=1 n=a5 v=65
103497 On ch=1 n=a5 v=65
103500 On ch=1 n=f#6 v=0
103500 On ch=1 n=d#6 v=0
103500 On ch=1 n=c6 v=0
103500 On ch=1 n=a5 v=0
103500 On ch=1 n=c6 v=65
103503 On ch=1 n=d#6 v=65
103507 On ch=1 n=f#6 v=65
103560 On ch=1 n=a5 v=0
103560 On ch=1 n=c6 v=0
103560 On ch=1 n=d#6 v=0
103560 On ch=1 n=f#6 v=0
103560 On ch=1 n=f#6 v=65
103560 On ch=1 n=d#6 v=65
103560 On ch=1 n=c6 v=65
103560 On ch=1 n=a5 v=65
103680 On ch=1 n=f#6 v=0
103680 On ch=1 n=d#6 v=0
103680 On ch=1 n=c6 v=0
103680 On ch=1 n=a5 v=0
103680 On ch=1 n=a#5 v=65
103680 On ch=1 n=c#6 v=65
103680 On ch=1 n=f6 v=65
103800 On ch=1 n=a#5 v=0
103800 On ch=1 n=c#6 v=0
103800 On ch=1 n=f6 v=0
103800 On ch=1 n=a#5 v=65
103800 On ch=1 n=c#6 v=65
103800 On ch=1 n=d#6 v=65
103860 On ch=1 n=a#5 v=0
103860 On ch=1 n=c#6 v=0
103860 On ch=1 n=d#6 v=0
103860 On ch=1 n=d#6 v=65
103860 On ch=1 n=c#6 v=65
103860 On ch=1 n=a#5 v=65
103920 On ch=1 n=d#6 v=0
103920 On ch=1 n=c#6 v=0
103920 On ch=1 n=a#5 v=0
103920 On ch=1 n=a#5 v=65
103920 On ch=1 n=c#6 v=65
103920 On ch=1 n=d#6 v=65
104040 On ch=1 n=a#5 v=0
104040 On ch=1 n=c#6 v=0
104040 On ch=1 n=d#6 v=0
104040 On ch=1 n=a#5 v=73
104040 On ch=1 n=c#6 v=73
104040 On ch=1 n=f6 v=73
104160 On ch=1 n=a#5 v=0
104160 On ch=1 n=c#6 v=0
104160 On ch=1 n=f6 v=0
104160 On ch=1 n=a#5 v=65
104160 On ch=1 n=c#6 v=65
104160 On ch=1 n=f6 v=65
104220 On ch=1 n=a#5 v=0
104220 On ch=1 n=c#6 v=0
104220 On ch=1 n=f6 v=0
104220 On ch=1 n=d#6 v=65
104220 On ch=1 n=c6 v=65
104280 On ch=1 n=d#6 v=0
104280 On ch=1 n=c6 v=0
104280 On ch=1 n=c6 v=65
104280 On ch=1 n=d#6 v=65
104400 On ch=1 n=c6 v=0
104400 On ch=1 n=d#6 v=0
104400 On ch=1 n=d#6 v=65
104400 On ch=1 n=c6 v=65
104520 On ch=1 n=d#6 v=0
104520 On ch=1 n=c6 v=0
104520 On ch=1 n=a#6 v=69
104520 On ch=1 n=f#6 v=69
104520 On ch=1 n=d#6 v=69
104520 On ch=1 n=c6 v=69
104580 On ch=1 n=a#6 v=0
104580 On ch=1 n=f#6 v=0
104580 On ch=1 n=d#6 v=0
104580 On ch=1 n=c6 v=0
104580 On ch=1 n=c6 v=69
104580 On ch=1 n=d#6 v=69
104580 On ch=1 n=f#6 v=69
104580 On ch=1 n=a#6 v=69
104640 On ch=1 n=c6 v=0
104640 On ch=1 n=d#6 v=0
104640 On ch=1 n=f#6 v=0
104640 On ch=1 n=a#6 v=0
104640 On ch=1 n=a#6 v=74
104640 On ch=1 n=f#6 v=74
104640 On ch=1 n=d#6 v=74
104640 On ch=1 n=c6 v=74
104760 On ch=1 n=a#6 v=0
104760 On ch=1 n=f#6 v=0
104760 On ch=1 n=d#6 v=0
104760 On ch=1 n=c6 v=0
104760 On ch=1 n=c#6 v=78
104760 On ch=1 n=f6 v=78
104760 On ch=1 n=g#6 v=78
104880 On ch=1 n=c#6 v=0
104880 On ch=1 n=f6 v=0
104880 On ch=1 n=g#6 v=0
104880 On ch=1 n=c7 v=83
104880 On ch=1 n=f#6 v=83
104880 On ch=1 n=d#6 v=83
104940 On ch=1 n=c7 v=0
104940 On ch=1 n=f#6 v=0
104940 On ch=1 n=d#6 v=0
104940 On ch=1 n=d#6 v=83
104940 On ch=1 n=f#6 v=83
104940 On ch=1 n=c7 v=83
105000 On ch=1 n=d#6 v=0
105000 On ch=1 n=f#6 v=0
105000 On ch=1 n=c7 v=0
105000 On ch=1 n=c7 v=87
105000 On ch=1 n=f#6 v=87
105000 On ch=1 n=d#6 v=87
105120 On ch=1 n=c7 v=0
105120 On ch=1 n=f#6 v=0
105120 On ch=1 n=d#6 v=0
105120 On ch=1 n=c#6 v=92
105120 On ch=1 n=f6 v=92
105120 On ch=1 n=c#7 v=92
105240 On ch=1 n=c#6 v=0
105240 On ch=1 n=f6 v=0
105240 On ch=1 n=c#7 v=0
105240 On ch=1 n=d#7 v=96
105240 On ch=1 n=a#6 v=96
105240 On ch=1 n=d#6 v=96
105300 On ch=1 n=d#7 v=0
105300 On ch=1 n=a#6 v=0
105300 On ch=1 n=d#6 v=0
105300 On ch=1 n=d#7 v=96
105300 On ch=1 n=a#6 v=96
105300 On ch=1 n=d#6 v=96
105360 On ch=1 n=d#7 v=0
105360 On ch=1 n=a#6 v=0
105360 On ch=1 n=d#6 v=0
105360 On ch=1 n=e6 v=101
105360 On ch=1 n=a#6 v=101
105360 On ch=1 n=e7 v=101
105480 On ch=1 n=e6 v=0
105480 On ch=1 n=a#6 v=0
105480 On ch=1 n=e7 v=0
105480 On ch=1 n=e7 v=102
105480 On ch=1 n=a#6 v=102
105480 On ch=1 n=e6 v=102
105600 On ch=1 n=e7 v=0
105600 On ch=1 n=a#6 v=0
105600 On ch=1 n=e6 v=0
105600 On ch=1 n=f7 v=102
105600 On ch=1 n=a6 v=102
105600 On ch=1 n=f6 v=102
105840 On ch=1 n=f7 v=0
105840 On ch=1 n=a6 v=0
105840 On ch=1 n=f6 v=0
105840 On ch=1 n=f#5 v=102
105840 On ch=1 n=c6 v=102
105840 On ch=1 n=d#6 v=102
105840 On ch=1 n=g#6 v=102
105960 On ch=1 n=f#5 v=0
105960 On ch=1 n=c6 v=0
105960 On ch=1 n=d#6 v=0
105960 On ch=1 n=g#6 v=0
105960 On ch=1 n=f5 v=102
105960 On ch=1 n=c#6 v=102
105960 On ch=1 n=f6 v=102
106020 On ch=1 n=f5 v=0
106020 On ch=1 n=c#6 v=0
106020 On ch=1 n=f6 v=0
106020 On ch=1 n=f6 v=102
106020 On ch=1 n=c#6 v=102
106020 On ch=1 n=g#5 v=102
106080 On ch=1 n=f6 v=0
106080 On ch=1 n=c#6 v=0
106080 On ch=1 n=g#5 v=0
106080 On ch=1 n=g#5 v=102
106080 On ch=1 n=c#6 v=102
106080 On ch=1 n=f6 v=102
106200 On ch=1 n=g#5 v=0
106200 On ch=1 n=c#6 v=0
106200 On ch=1 n=f6 v=0
106200 On ch=1 n=f6 v=102
106200 On ch=1 n=c#6 v=102
106200 On ch=1 n=a5 v=102
106320 On ch=1 n=f6 v=0
106320 On ch=1 n=c#6 v=0
106320 On ch=1 n=a5 v=0
106320 On ch=1 n=a#5 v=102
106320 On ch=1 n=c#6 v=102
106320 On ch=1 n=f6 v=102
106380 On ch=1 n=a#5 v=0
106380 On ch=1 n=c#6 v=0
106380 On ch=1 n=f6 v=0
106380 On ch=1 n=a#5 v=102
106380 On ch=1 n=c#6 v=102
106380 On ch=1 n=d#6 v=102
106440 On ch=1 n=a#5 v=0
106440 On ch=1 n=c#6 v=0
106440 On ch=1 n=d#6 v=0
106440 On ch=1 n=a#5 v=102
106440 On ch=1 n=c#6 v=102
106440 On ch=1 n=d#6 v=102
106560 On ch=1 n=a#5 v=0
106560 On ch=1 n=c#6 v=0
106560 On ch=1 n=d#6 v=0
106560 On ch=1 n=d#6 v=102
106560 On ch=1 n=c#6 v=102
106560 On ch=1 n=a#5 v=102
106680 On ch=1 n=d#6 v=0
106680 On ch=1 n=c#6 v=0
106680 On ch=1 n=a#5 v=0
106680 On ch=1 n=a#6 v=102
106680 On ch=1 n=d#6 v=102
106680 On ch=1 n=c#6 v=102
106740 On ch=1 n=a#6 v=0
106740 On ch=1 n=d#6 v=0
106740 On ch=1 n=c#6 v=0
106740 On ch=1 n=c#6 v=102
106740 On ch=1 n=d#6 v=102
106740 On ch=1 n=a#6 v=102
106800 On ch=1 n=c#6 v=0
106800 On ch=1 n=d#6 v=0
106800 On ch=1 n=a#6 v=0
106800 On ch=1 n=a#6 v=102
106800 On ch=1 n=d#6 v=102
106800 On ch=1 n=c#6 v=102
106920 On ch=1 n=a#6 v=0
106920 On ch=1 n=d#6 v=0
106920 On ch=1 n=c#6 v=0
106920 On ch=1 n=c#6 v=102
106920 On ch=1 n=e6 v=102
106920 On ch=1 n=a#6 v=102
107040 On ch=1 n=c#6 v=0
107040 On ch=1 n=e6 v=0
107040 On ch=1 n=a#6 v=0
107040 On ch=1 n=c#6 v=102
107040 On ch=1 n=e6 v=102
107040 On ch=1 n=a#6 v=102
107100 On ch=1 n=c#6 v=0
107100 On ch=1 n=e6 v=0
107100 On ch=1 n=a#6 v=0
107100 On ch=1 n=g#6 v=102
107100 On ch=1 n=d#6 v=102
107100 On ch=1 n=c6 v=102
107160 On ch=1 n=g#6 v=0
107160 On ch=1 n=d#6 v=0
107160 On ch=1 n=c6 v=0
107160 On ch=1 n=g#6 v=102
107160 On ch=1 n=d#6 v=102
107160 On ch=1 n=c6 v=102
107280 On ch=1 n=g#6 v=0
107280 On ch=1 n=d#6 v=0
107280 On ch=1 n=c6 v=0
107280 On ch=1 n=c6 v=102
107280 On ch=1 n=d#6 v=102
107280 On ch=1 n=g#6 v=102
107400 On ch=1 n=c6 v=0
107400 On ch=1 n=d#6 v=0
107400 On ch=1 n=g#6 v=0
107400 On ch=1 n=c7 v=102
107400 On ch=1 n=f6 v=102
107400 On ch=1 n=d#6 v=102
107460 On ch=1 n=c7 v=0
107460 On ch=1 n=f6 v=0
107460 On ch=1 n=d#6 v=0
107460 On ch=1 n=f6 v=102
107460 On ch=1 n=d#6 v=102
107460 On ch=1 n=c7 v=102
107520 On ch=1 n=f6 v=0
107520 On ch=1 n=d#6 v=0
107520 On ch=1 n=c7 v=0
107520 On ch=1 n=d#6 v=102
107520 On ch=1 n=f6 v=102
107520 On ch=1 n=c7 v=102
107640 On ch=1 n=d#6 v=0
107640 On ch=1 n=f6 v=0
107640 On ch=1 n=c7 v=0
107640 On ch=1 n=c7 v=102
107640 On ch=1 n=f#6 v=102
107640 On ch=1 n=d#6 v=102
107760 On ch=1 n=c7 v=0
107760 On ch=1 n=f#6 v=0
107760 On ch=1 n=d#6 v=0
107760 On ch=1 n=c7 v=102
107760 On ch=1 n=f#6 v=102
107760 On ch=1 n=d#6 v=102
107820 On ch=1 n=c7 v=0
107820 On ch=1 n=f#6 v=0
107820 On ch=1 n=d#6 v=0
107820 On ch=1 n=c#6 v=102
107820 On ch=1 n=f6 v=102
107820 On ch=1 n=c#7 v=102
107880 On ch=1 n=c#6 v=0
107880 On ch=1 n=f6 v=0
107880 On ch=1 n=c#7 v=0
107880 On ch=1 n=c#7 v=102
107880 On ch=1 n=f6 v=102
107880 On ch=1 n=c#6 v=102
108000 On ch=1 n=c#7 v=0
108000 On ch=1 n=f6 v=0
108000 On ch=1 n=c#6 v=0
108000 On ch=1 n=c#6 v=102
108000 On ch=1 n=g6 v=102
108000 On ch=1 n=c#7 v=102
108120 On ch=1 n=c#6 v=0
108120 On ch=1 n=g6 v=0
108120 On ch=1 n=c#7 v=0
108120 On ch=1 n=c#7 v=102
108120 On ch=1 n=a#6 v=102
108120 On ch=1 n=c#6 v=102
108180 On ch=1 n=c#7 v=0
108180 On ch=1 n=a#6 v=0
108180 On ch=1 n=c#6 v=0
108180 On ch=1 n=c#6 v=102
108180 On ch=1 n=g#6 v=102
108180 On ch=1 n=c#7 v=102
108240 On ch=1 n=c#6 v=0
108240 On ch=1 n=g#6 v=0
108240 On ch=1 n=c#7 v=0
108240 On ch=1 n=c#6 v=102
108240 On ch=1 n=g#6 v=102
108240 On ch=1 n=c#7 v=102
108360 On ch=1 n=c#6 v=0
108360 On ch=1 n=g#6 v=0
108360 On ch=1 n=c#7 v=0
108360 On ch=1 n=f#5 v=108
108360 On ch=1 n=c6 v=108
108360 On ch=1 n=g#6 v=108
108480 On ch=1 n=f#5 v=0
108480 On ch=1 n=c6 v=0
108480 On ch=1 n=g#6 v=0
108480 On ch=1 n=f#5 v=94
108480 On ch=1 n=d#6 v=94
108480 On ch=1 n=g#6 v=100
108540 On ch=1 n=f#5 v=0
108540 On ch=1 n=d#6 v=0
108540 On ch=1 n=c#6 v=86
108540 On ch=1 n=f5 v=86
108600 On ch=1 n=c#6 v=0
108600 On ch=1 n=f5 v=0
108600 On ch=1 n=f5 v=78
108600 On ch=1 n=c#6 v=78
108720 On ch=1 n=g#6 v=0
108720 On ch=1 n=f5 v=0
108720 On ch=1 n=c#6 v=0
109080 On ch=1 n=f6 v=90
109110 On ch=1 n=f6 v=0
109110 On ch=1 n=a#6 v=90
109140 On ch=1 n=a#6 v=0
109140 On ch=1 n=d#7 v=90
109170 On ch=1 n=d#7 v=0
109170 On ch=1 n=c#7 v=90
109200 On ch=1 n=c#7 v=0
109200 On ch=1 n=a#6 v=90
109230 On ch=1 n=a#6 v=0
109230 On ch=1 n=f6 v=90
109260 On ch=1 n=f6 v=0
109260 On ch=1 n=a#6 v=90
109290 On ch=1 n=a#6 v=0
109290 On ch=1 n=c#7 v=90
109320 On ch=1 n=c#7 v=0
109320 On ch=1 n=f#7 v=127
109320 On ch=1 n=f#6 v=127
109410 On ch=1 n=f#7 v=0
109410 On ch=1 n=f#6 v=0
109410 On ch=1 n=f#7 v=90
109440 On ch=1 n=f#7 v=0
109440 On ch=1 n=f#6 v=90
109470 On ch=1 n=f#6 v=0
109470 On ch=1 n=f#7 v=90
109500 On ch=1 n=f#7 v=0
109500 On ch=1 n=b6 v=127
109590 On ch=1 n=f7 v=90
109620 On ch=1 n=f7 v=0
109620 On ch=1 n=f6 v=90
109650 On ch=1 n=f6 v=0
109650 On ch=1 n=f7 v=90
109680 On ch=1 n=b6 v=0
109680 On ch=1 n=f7 v=0
109680 On ch=1 n=a#6 v=127
109770 On ch=1 n=d#7 v=90
109800 On ch=1 n=d#7 v=0
109800 On ch=1 n=d#6 v=90
109830 On ch=1 n=d#6 v=0
109830 On ch=1 n=d#7 v=90
109860 On ch=1 n=a#6 v=0
109860 On ch=1 n=d#7 v=0
109860 On ch=1 n=g#6 v=127
109950 On ch=1 n=c#7 v=90
109980 On ch=1 n=c#7 v=0
109980 On ch=1 n=c#6 v=90
110010 On ch=1 n=c#6 v=0
110010 On ch=1 n=c#7 v=90
110040 On ch=1 n=g#6 v=0
110040 On ch=1 n=c#7 v=0
110040 On ch=1 n=f#6 v=127
110130 On ch=1 n=c7 v=90
110160 On ch=1 n=c7 v=0
110160 On ch=1 n=c6 v=90
110190 On ch=1 n=c6 v=0
110190 On ch=1 n=c7 v=90
110220 On ch=1 n=f#6 v=0
110220 On ch=1 n=c7 v=0
110220 On ch=1 n=f6 v=127
110310 On ch=1 n=a#6 v=90
110340 On ch=1 n=a#6 v=0
110340 On ch=1 n=a#5 v=90
110370 On ch=1 n=a#5 v=0
110370 On ch=1 n=a#6 v=90
110400 On ch=1 n=f6 v=0
110400 On ch=1 n=a#6 v=0
110400 On ch=1 n=a6 v=90
110400 On ch=1 n=a5 v=90
110460 On ch=1 n=a6 v=0
110460 On ch=1 n=a5 v=0
110520 On ch=1 n=f6 v=90
110550 On ch=1 n=f6 v=0
110550 On ch=1 n=a#6 v=90
110580 On ch=1 n=a#6 v=0
110580 On ch=1 n=d#7 v=90
110610 On ch=1 n=d#7 v=0
110610 On ch=1 n=c#7 v=90
110640 On ch=1 n=c#7 v=0
110640 On ch=1 n=a#6 v=90
110670 On ch=1 n=a#6 v=0
110670 On ch=1 n=f6 v=90
110700 On ch=1 n=f6 v=0
110700 On ch=1 n=a#6 v=90
110730 On ch=1 n=a#6 v=0
110730 On ch=1 n=c#7 v=90
110760 On ch=1 n=c#7 v=0
110760 On ch=1 n=f#7 v=127
110760 On ch=1 n=f#6 v=127
110850 On ch=1 n=f#7 v=0
110850 On ch=1 n=f#6 v=0
110850 On ch=1 n=f#7 v=90
110880 On ch=1 n=f#7 v=0
110880 On ch=1 n=f#6 v=90
110910 On ch=1 n=f#6 v=0
110910 On ch=1 n=f#7 v=90
110940 On ch=1 n=f#7 v=0
110940 On ch=1 n=b6 v=127
111030 On ch=1 n=f7 v=90
111060 On ch=1 n=f7 v=0
111060 On ch=1 n=f6 v=90
111090 On ch=1 n=f6 v=0
111090 On ch=1 n=f7 v=90
111120 On ch=1 n=b6 v=0
111120 On ch=1 n=f7 v=0
111120 On ch=1 n=a#6 v=127
111210 On ch=1 n=d#7 v=90
111240 On ch=1 n=d#7 v=0
111240 On ch=1 n=d#6 v=90
111270 On ch=1 n=d#6 v=0
111270 On ch=1 n=d#7 v=90
111300 On ch=1 n=a#6 v=0
111300 On ch=1 n=d#7 v=0
111300 On ch=1 n=g#6 v=127
111390 On ch=1 n=c#7 v=90
111420 On ch=1 n=c#7 v=0
111420 On ch=1 n=c#6 v=90
111450 On ch=1 n=c#6 v=0
111450 On ch=1 n=c#7 v=90
111480 On ch=1 n=g#6 v=0
111480 On ch=1 n=c#7 v=0
111480 On ch=1 n=f#6 v=127
111570 On ch=1 n=c7 v=90
111600 On ch=1 n=c7 v=0
111600 On ch=1 n=c6 v=90
111630 On ch=1 n=c6 v=0
111630 On ch=1 n=c7 v=90
111660 On ch=1 n=f#6 v=0
111660 On ch=1 n=c7 v=0
111660 On ch=1 n=f6 v=127
111750 On ch=1 n=a#6 v=90
111780 On ch=1 n=a#6 v=0
111780 On ch=1 n=a#5 v=90
111810 On ch=1 n=a#5 v=0
111810 On ch=1 n=a#6 v=90
111840 On ch=1 n=f6 v=0
111840 On ch=1 n=a#6 v=0
111840 On ch=1 n=a6 v=90
111840 On ch=1 n=a5 v=90
111900 On ch=1 n=a6 v=0
111900 On ch=1 n=a5 v=0
112200 On ch=1 n=g#4 v=57
112200 On ch=1 n=f4 v=57
112230 On ch=1 n=g#4 v=0
112230 On ch=1 n=f4 v=0
112260 On ch=1 n=a#4 v=57
112260 On ch=1 n=f4 v=57
112290 On ch=1 n=a#4 v=0
112290 On ch=1 n=f4 v=0
112320 On ch=1 n=c5 v=57
112320 On ch=1 n=f4 v=57
112350 On ch=1 n=c5 v=0
112350 On ch=1 n=f4 v=0
112380 On ch=1 n=c#5 v=60
112380 On ch=1 n=f4 v=60
112410 On ch=1 n=c#5 v=0
112410 On ch=1 n=f4 v=0
112440 On ch=1 n=d#5 v=60
112440 On ch=1 n=f4 v=60
112470 On ch=1 n=d#5 v=0
112470 On ch=1 n=f4 v=0
112500 On ch=1 n=e5 v=60
112500 On ch=1 n=f4 v=60
112530 On ch=1 n=e5 v=0
112530 On ch=1 n=f4 v=0
112560 On ch=1 n=f4 v=64
112560 On ch=1 n=f5 v=64
112620 On ch=1 n=f4 v=0
112620 On ch=1 n=f5 v=0
112620 On ch=1 n=f#4 v=64
112620 On ch=1 n=f5 v=64
112680 On ch=1 n=f#4 v=0
112680 On ch=1 n=f5 v=0
112680 On ch=1 n=g#4 v=64
112680 On ch=1 n=f5 v=64
112740 On ch=1 n=g#4 v=0
112740 On ch=1 n=f5 v=0
112740 On ch=1 n=f5 v=67
112740 On ch=1 n=a#4 v=67
112800 On ch=1 n=f5 v=0
112800 On ch=1 n=a#4 v=0
112800 On ch=1 n=f#5 v=67
112800 On ch=1 n=a#4 v=67
112860 On ch=1 n=f#5 v=0
112860 On ch=1 n=a#4 v=0
112860 On ch=1 n=g#5 v=67
112860 On ch=1 n=a#4 v=67
112920 On ch=1 n=g#5 v=0
112920 On ch=1 n=a#4 v=0
112920 On ch=1 n=a#4 v=71
112920 On ch=1 n=a#5 v=71
112980 On ch=1 n=a#4 v=0
112980 On ch=1 n=a#5 v=0
112980 On ch=1 n=c5 v=71
112980 On ch=1 n=a#5 v=71
113040 On ch=1 n=c5 v=0
113040 On ch=1 n=a#5 v=0
113040 On ch=1 n=c#5 v=71
113040 On ch=1 n=a#5 v=71
113100 On ch=1 n=c#5 v=0
113100 On ch=1 n=a#5 v=0
113100 On ch=1 n=d#5 v=74
113100 On ch=1 n=a#5 v=74
113160 On ch=1 n=d#5 v=0
113160 On ch=1 n=a#5 v=0
113160 On ch=1 n=f5 v=74
113160 On ch=1 n=g#5 v=74
113220 On ch=1 n=f5 v=0
113220 On ch=1 n=g#5 v=0
113220 On ch=1 n=f#5 v=74
113220 On ch=1 n=g#5 v=74
113280 On ch=1 n=f#5 v=0
113280 On ch=1 n=g#5 v=0
113280 On ch=1 n=f#5 v=77
113280 On ch=1 n=g#5 v=77
113340 On ch=1 n=f#5 v=0
113340 On ch=1 n=g#5 v=0
113340 On ch=1 n=g#5 v=73
113340 On ch=1 n=f5 v=73
113400 On ch=1 n=g#5 v=0
113400 On ch=1 n=f5 v=0
113400 On ch=1 n=g#5 v=69
113400 On ch=1 n=d#5 v=69
113460 On ch=1 n=g#5 v=0
113460 On ch=1 n=d#5 v=0
113520 On ch=1 n=g#5 v=65
113520 On ch=1 n=f5 v=65
113580 On ch=1 n=g#5 v=0
113580 On ch=1 n=f5 v=0
113580 On ch=1 n=g#5 v=65
113580 On ch=1 n=f5 v=65
113640 On ch=1 n=g#5 v=0
113640 On ch=1 n=f5 v=0
113640 On ch=1 n=g#5 v=65
113640 On ch=1 n=f5 v=65
113700 On ch=1 n=g#5 v=0
113700 On ch=1 n=f5 v=0
113700 On ch=1 n=a#5 v=65
113700 On ch=1 n=f5 v=65
113760 On ch=1 n=a#5 v=0
113760 On ch=1 n=f5 v=0
113760 On ch=1 n=c6 v=65
113760 On ch=1 n=f5 v=65
113820 On ch=1 n=c6 v=0
113820 On ch=1 n=f5 v=0
113820 On ch=1 n=c#6 v=65
113820 On ch=1 n=f5 v=65
113880 On ch=1 n=c#6 v=0
113880 On ch=1 n=f5 v=0
113880 On ch=1 n=d#6 v=65
113880 On ch=1 n=f5 v=65
113940 On ch=1 n=d#6 v=0
113940 On ch=1 n=f5 v=0
113940 On ch=1 n=e6 v=65
113940 On ch=1 n=f5 v=65
114000 On ch=1 n=e6 v=0
114000 On ch=1 n=f5 v=0
114000 On ch=1 n=f6 v=65
114000 On ch=1 n=f5 v=65
114060 On ch=1 n=f6 v=0
114060 On ch=1 n=f5 v=0
114060 On ch=1 n=f#5 v=65
114060 On ch=1 n=f6 v=65
114120 On ch=1 n=f#5 v=0
114120 On ch=1 n=f6 v=0
114120 On ch=1 n=g#5 v=65
114120 On ch=1 n=f6 v=65
114180 On ch=1 n=g#5 v=0
114180 On ch=1 n=f6 v=0
114180 On ch=1 n=f6 v=65
114180 On ch=1 n=a#5 v=65
114240 On ch=1 n=f6 v=0
114240 On ch=1 n=a#5 v=0
114240 On ch=1 n=d#6 v=65
114240 On ch=1 n=a#5 v=65
114300 On ch=1 n=d#6 v=0
114300 On ch=1 n=a#5 v=0
114300 On ch=1 n=a#6 v=65
114300 On ch=1 n=c#6 v=65
114360 On ch=1 n=a#6 v=0
114360 On ch=1 n=c#6 v=0
114420 On ch=1 n=g#6 v=65
114420 On ch=1 n=c6 v=65
114480 On ch=1 n=c6 v=0
114480 On ch=1 n=b5 v=65
114540 On ch=1 n=g#6 v=0
114540 On ch=1 n=b5 v=0
114600 On ch=1 n=g#5 v=53
114600 On ch=1 n=a#5 v=53
114630 On ch=1 n=g#5 v=0
114630 On ch=1 n=a#5 v=0
114660 On ch=1 n=f#5 v=53
114660 On ch=1 n=a#5 v=53
114690 On ch=1 n=f#5 v=0
114690 On ch=1 n=a#5 v=0
114720 On ch=1 n=g#5 v=53
114750 On ch=1 n=g#5 v=0
115080 On ch=1 n=g#4 v=57
115080 On ch=1 n=f4 v=57
115110 On ch=1 n=g#4 v=0
115110 On ch=1 n=f4 v=0
115140 On ch=1 n=a#4 v=57
115140 On ch=1 n=f4 v=57
115170 On ch=1 n=a#4 v=0
115170 On ch=1 n=f4 v=0
115200 On ch=1 n=c5 v=57
115200 On ch=1 n=f4 v=57
115230 On ch=1 n=c5 v=0
115230 On ch=1 n=f4 v=0
115260 On ch=1 n=c#5 v=60
115260 On ch=1 n=f4 v=60
115290 On ch=1 n=c#5 v=0
115290 On ch=1 n=f4 v=0
115320 On ch=1 n=d#5 v=60
115320 On ch=1 n=f4 v=60
115350 On ch=1 n=d#5 v=0
115350 On ch=1 n=f4 v=0
115380 On ch=1 n=e5 v=60
115380 On ch=1 n=f4 v=60
115410 On ch=1 n=e5 v=0
115410 On ch=1 n=f4 v=0
115440 On ch=1 n=f4 v=64
115440 On ch=1 n=f5 v=64
115500 On ch=1 n=f4 v=0
115500 On ch=1 n=f5 v=0
115500 On ch=1 n=f#4 v=64
115500 On ch=1 n=f5 v=64
115560 On ch=1 n=f#4 v=0
115560 On ch=1 n=f5 v=0
115560 On ch=1 n=g#4 v=64
115560 On ch=1 n=f5 v=64
115620 On ch=1 n=g#4 v=0
115620 On ch=1 n=f5 v=0
115620 On ch=1 n=f5 v=67
115620 On ch=1 n=a#4 v=67
115680 On ch=1 n=f5 v=0
115680 On ch=1 n=a#4 v=0
115680 On ch=1 n=f#5 v=67
115680 On ch=1 n=a#4 v=67
115740 On ch=1 n=f#5 v=0
115740 On ch=1 n=a#4 v=0
115740 On ch=1 n=g#5 v=67
115740 On ch=1 n=a#4 v=67
115800 On ch=1 n=g#5 v=0
115800 On ch=1 n=a#4 v=0
115800 On ch=1 n=a#4 v=71
115800 On ch=1 n=a#5 v=71
115860 On ch=1 n=a#4 v=0
115860 On ch=1 n=a#5 v=0
115860 On ch=1 n=c5 v=71
115860 On ch=1 n=a#5 v=71
115920 On ch=1 n=c5 v=0
115920 On ch=1 n=a#5 v=0
115920 On ch=1 n=c#5 v=71
115920 On ch=1 n=a#5 v=71
115980 On ch=1 n=c#5 v=0
115980 On ch=1 n=a#5 v=0
115980 On ch=1 n=d#5 v=74
115980 On ch=1 n=a#5 v=74
116040 On ch=1 n=d#5 v=0
116040 On ch=1 n=a#5 v=0
116040 On ch=1 n=f5 v=74
116040 On ch=1 n=g#5 v=74
116100 On ch=1 n=f5 v=0
116100 On ch=1 n=g#5 v=0
116100 On ch=1 n=f#5 v=74
116100 On ch=1 n=g#5 v=74
116160 On ch=1 n=f#5 v=0
116160 On ch=1 n=g#5 v=0
116160 On ch=1 n=f#5 v=77
116160 On ch=1 n=g#5 v=77
116220 On ch=1 n=f#5 v=0
116220 On ch=1 n=g#5 v=0
116220 On ch=1 n=g#5 v=73
116220 On ch=1 n=f5 v=73
116280 On ch=1 n=g#5 v=0
116280 On ch=1 n=f5 v=0
116280 On ch=1 n=g#5 v=69
116280 On ch=1 n=d#5 v=69
116340 On ch=1 n=g#5 v=0
116340 On ch=1 n=d#5 v=0
116400 On ch=1 n=g#5 v=65
116400 On ch=1 n=f5 v=65
116460 On ch=1 n=g#5 v=0
116460 On ch=1 n=f5 v=0
116460 On ch=1 n=g#5 v=65
116460 On ch=1 n=f5 v=65
116520 On ch=1 n=g#5 v=0
116520 On ch=1 n=f5 v=0
116520 On ch=1 n=g#5 v=65
116520 On ch=1 n=f5 v=65
116580 On ch=1 n=g#5 v=0
116580 On ch=1 n=f5 v=0
116580 On ch=1 n=a#5 v=65
116580 On ch=1 n=f5 v=65
116640 On ch=1 n=a#5 v=0
116640 On ch=1 n=f5 v=0
116640 On ch=1 n=c6 v=65
116640 On ch=1 n=f5 v=65
116700 On ch=1 n=c6 v=0
116700 On ch=1 n=f5 v=0
116700 On ch=1 n=c#6 v=65
116700 On ch=1 n=f5 v=65
116760 On ch=1 n=c#6 v=0
116760 On ch=1 n=f5 v=0
116760 On ch=1 n=d#6 v=65
116760 On ch=1 n=f5 v=65
116820 On ch=1 n=d#6 v=0
116820 On ch=1 n=f5 v=0
116820 On ch=1 n=e6 v=65
116820 On ch=1 n=f5 v=65
116880 On ch=1 n=e6 v=0
116880 On ch=1 n=f5 v=0
116880 On ch=1 n=f6 v=65
116880 On ch=1 n=f5 v=65
116940 On ch=1 n=f6 v=0
116940 On ch=1 n=f5 v=0
116940 On ch=1 n=f#5 v=65
116940 On ch=1 n=f6 v=65
117000 On ch=1 n=f#5 v=0
117000 On ch=1 n=f6 v=0
117000 On ch=1 n=g#5 v=65
117000 On ch=1 n=f6 v=65
117060 On ch=1 n=g#5 v=0
117060 On ch=1 n=f6 v=0
117060 On ch=1 n=f6 v=65
117060 On ch=1 n=a#5 v=65
117120 On ch=1 n=f6 v=0
117120 On ch=1 n=a#5 v=0
117120 On ch=1 n=d#6 v=65
117120 On ch=1 n=a#5 v=65
117180 On ch=1 n=d#6 v=0
117180 On ch=1 n=a#5 v=0
117180 On ch=1 n=a#6 v=65
117180 On ch=1 n=c#6 v=65
117240 On ch=1 n=a#6 v=0
117240 On ch=1 n=c#6 v=0
117300 On ch=1 n=g#6 v=65
117300 On ch=1 n=c6 v=65
117360 On ch=1 n=c6 v=0
117360 On ch=1 n=b5 v=65
117420 On ch=1 n=g#6 v=0
117420 On ch=1 n=b5 v=0
117480 On ch=1 n=g#5 v=53
117480 On ch=1 n=a#5 v=53
117510 On ch=1 n=g#5 v=0
117510 On ch=1 n=a#5 v=0
117540 On ch=1 n=f#5 v=53
117540 On ch=1 n=a#5 v=53
117570 On ch=1 n=f#5 v=0
117570 On ch=1 n=a#5 v=0
117600 On ch=1 n=g#5 v=53
117630 On ch=1 n=g#5 v=0
117840 On ch=1 n=a#5 v=53
117840 On ch=1 n=f#5 v=53
117900 On ch=1 n=a#5 v=0
117900 On ch=1 n=f#5 v=0
117900 On ch=1 n=a#5 v=53
117900 On ch=1 n=f#5 v=53
117960 On ch=1 n=a#5 v=0
117960 On ch=1 n=f#5 v=0
117960 On ch=1 n=a#5 v=57
117960 On ch=1 n=f#5 v=57
118020 On ch=1 n=a#5 v=0
118020 On ch=1 n=f#5 v=0
118020 On ch=1 n=c6 v=57
118020 On ch=1 n=f#5 v=57
118080 On ch=1 n=c6 v=0
118080 On ch=1 n=f#5 v=0
118080 On ch=1 n=d6 v=57
118080 On ch=1 n=f#5 v=57
118140 On ch=1 n=d6 v=0
118140 On ch=1 n=f#5 v=0
118140 On ch=1 n=d#6 v=61
118140 On ch=1 n=f#5 v=61
118200 On ch=1 n=d#6 v=0
118200 On ch=1 n=f#5 v=0
118200 On ch=1 n=f6 v=61
118200 On ch=1 n=f#5 v=61
118260 On ch=1 n=f6 v=0
118260 On ch=1 n=f#5 v=0
118260 On ch=1 n=f#6 v=61
118260 On ch=1 n=f#5 v=61
118320 On ch=1 n=f#6 v=0
118320 On ch=1 n=f#5 v=0
118320 On ch=1 n=f#6 v=65
118320 On ch=1 n=f#5 v=65
118440 On ch=1 n=f#6 v=0
118440 On ch=1 n=f#5 v=0
118440 On ch=1 n=g#5 v=53
118500 On ch=1 n=g#5 v=0
118560 On ch=1 n=a#5 v=53
118560 On ch=1 n=f#5 v=53
118620 On ch=1 n=a#5 v=0
118620 On ch=1 n=f#5 v=0
118620 On ch=1 n=a#5 v=53
118620 On ch=1 n=f#5 v=53
118680 On ch=1 n=a#5 v=0
118680 On ch=1 n=f#5 v=0
118680 On ch=1 n=a#5 v=57
118680 On ch=1 n=f#5 v=57
118740 On ch=1 n=a#5 v=0
118740 On ch=1 n=f#5 v=0
118740 On ch=1 n=c6 v=57
118740 On ch=1 n=f#5 v=57
118800 On ch=1 n=c6 v=0
118800 On ch=1 n=f#5 v=0
118800 On ch=1 n=d6 v=57
118800 On ch=1 n=f#5 v=57
118860 On ch=1 n=d6 v=0
118860 On ch=1 n=f#5 v=0
118860 On ch=1 n=d#6 v=61
118860 On ch=1 n=f#5 v=61
118920 On ch=1 n=d#6 v=0
118920 On ch=1 n=f#5 v=0
118920 On ch=1 n=f6 v=61
118920 On ch=1 n=f#5 v=61
118980 On ch=1 n=f6 v=0
118980 On ch=1 n=f#5 v=0
118980 On ch=1 n=f#6 v=61
118980 On ch=1 n=f#5 v=61
119040 On ch=1 n=f#6 v=0
119040 On ch=1 n=f#5 v=0
119040 On ch=1 n=f#6 v=65
119040 On ch=1 n=f#5 v=65
119160 On ch=1 n=f#6 v=0
119160 On ch=1 n=f#5 v=0
119160 On ch=1 n=g#5 v=53
119220 On ch=1 n=g#5 v=0
119280 On ch=1 n=g#6 v=53
119340 On ch=1 n=g#6 v=0
119340 On ch=1 n=f5 v=53
119340 On ch=1 n=g#5 v=53
119400 On ch=1 n=f5 v=0
119400 On ch=1 n=g#5 v=0
119400 On ch=1 n=g#5 v=57
119400 On ch=1 n=f5 v=57
119460 On ch=1 n=g#5 v=0
119460 On ch=1 n=f5 v=0
119460 On ch=1 n=a#5 v=57
119460 On ch=1 n=f5 v=57
119520 On ch=1 n=a#5 v=0
119520 On ch=1 n=f5 v=0
119520 On ch=1 n=c6 v=57
119520 On ch=1 n=f5 v=57
119580 On ch=1 n=c6 v=0
119580 On ch=1 n=f5 v=0
119580 On ch=1 n=c#6 v=61
119580 On ch=1 n=f5 v=61
119640 On ch=1 n=c#6 v=0
119640 On ch=1 n=f5 v=0
119640 On ch=1 n=d#6 v=61
119640 On ch=1 n=f5 v=61
119700 On ch=1 n=d#6 v=0
119700 On ch=1 n=f5 v=0
119700 On ch=1 n=e6 v=61
119700 On ch=1 n=f5 v=61
119760 On ch=1 n=e6 v=0
119760 On ch=1 n=f5 v=0
119760 On ch=1 n=f6 v=65
119760 On ch=1 n=f5 v=65
119820 On ch=1 n=f6 v=0
119820 On ch=1 n=f5 v=0
119820 On ch=1 n=f6 v=65
119820 On ch=1 n=f#5 v=65
119880 On ch=1 n=f6 v=0
119880 On ch=1 n=f#5 v=0
119880 On ch=1 n=f6 v=65
119880 On ch=1 n=g#5 v=65
119940 On ch=1 n=f6 v=0
119940 On ch=1 n=g#5 v=0
119940 On ch=1 n=f6 v=69
119940 On ch=1 n=a#5 v=69
120000 On ch=1 n=f6 v=0
120000 On ch=1 n=e6 v=73
120060 On ch=1 n=e6 v=0
120060 On ch=1 n=a#6 v=77
120120 On ch=1 n=a#5 v=0
120120 On ch=1 n=a#6 v=0
120180 On ch=1 n=e6 v=69
120180 On ch=1 n=a#5 v=69
120210 On ch=1 n=e6 v=0
120210 On ch=1 n=a#5 v=0
120240 On ch=1 n=e6 v=61
120240 On ch=1 n=a#5 v=61
120270 On ch=1 n=e6 v=0
120270 On ch=1 n=a#5 v=0
120360 On ch=1 n=f6 v=53
120360 On ch=1 n=a#5 v=53
120390 On ch=1 n=f6 v=0
120390 On ch=1 n=a#5 v=0
120420 On ch=1 n=f6 v=53
120420 On ch=1 n=a5 v=53
120450 On ch=1 n=f6 v=0
120450 On ch=1 n=a5 v=0
120480 On ch=1 n=f6 v=53
120480 On ch=1 n=a#5 v=53
120510 On ch=1 n=f6 v=0
120510 On ch=1 n=a#5 v=0
120720 On ch=1 n=a#5 v=53
120720 On ch=1 n=f#5 v=53
120780 On ch=1 n=a#5 v=0
120780 On ch=1 n=f#5 v=0
120780 On ch=1 n=a#5 v=53
120780 On ch=1 n=f#5 v=53
120840 On ch=1 n=a#5 v=0
120840 On ch=1 n=f#5 v=0
120840 On ch=1 n=a#5 v=57
120840 On ch=1 n=f#5 v=57
120900 On ch=1 n=a#5 v=0
120900 On ch=1 n=f#5 v=0
120900 On ch=1 n=c6 v=57
120900 On ch=1 n=f#5 v=57
120960 On ch=1 n=c6 v=0
120960 On ch=1 n=f#5 v=0
120960 On ch=1 n=d6 v=57
120960 On ch=1 n=f#5 v=57
121020 On ch=1 n=d6 v=0
121020 On ch=1 n=f#5 v=0
121020 On ch=1 n=d#6 v=61
121020 On ch=1 n=f#5 v=61
121080 On ch=1 n=d#6 v=0
121080 On ch=1 n=f#5 v=0
121080 On ch=1 n=f6 v=61
121080 On ch=1 n=f#5 v=61
121140 On ch=1 n=f6 v=0
121140 On ch=1 n=f#5 v=0
121140 On ch=1 n=f#6 v=61
121140 On ch=1 n=f#5 v=61
121200 On ch=1 n=f#6 v=0
121200 On ch=1 n=f#5 v=0
121200 On ch=1 n=f#6 v=65
121200 On ch=1 n=f#5 v=65
121320 On ch=1 n=f#6 v=0
121320 On ch=1 n=f#5 v=0
121320 On ch=1 n=g#5 v=53
121380 On ch=1 n=g#5 v=0
121440 On ch=1 n=a#5 v=53
121440 On ch=1 n=f#5 v=53
121500 On ch=1 n=a#5 v=0
121500 On ch=1 n=f#5 v=0
121500 On ch=1 n=a#5 v=53
121500 On ch=1 n=f#5 v=53
121560 On ch=1 n=a#5 v=0
121560 On ch=1 n=f#5 v=0
121560 On ch=1 n=a#5 v=57
121560 On ch=1 n=f#5 v=57
121620 On ch=1 n=a#5 v=0
121620 On ch=1 n=f#5 v=0
121620 On ch=1 n=c6 v=57
121620 On ch=1 n=f#5 v=57
121680 On ch=1 n=c6 v=0
121680 On ch=1 n=f#5 v=0
121680 On ch=1 n=d6 v=57
121680 On ch=1 n=f#5 v=57
121740 On ch=1 n=d6 v=0
121740 On ch=1 n=f#5 v=0
121740 On ch=1 n=d#6 v=61
121740 On ch=1 n=f#5 v=61
121800 On ch=1 n=d#6 v=0
121800 On ch=1 n=f#5 v=0
121800 On ch=1 n=f6 v=61
121800 On ch=1 n=f#5 v=61
121860 On ch=1 n=f6 v=0
121860 On ch=1 n=f#5 v=0
121860 On ch=1 n=f#6 v=61
121860 On ch=1 n=f#5 v=61
121920 On ch=1 n=f#6 v=0
121920 On ch=1 n=f#5 v=0
121920 On ch=1 n=f#6 v=65
121920 On ch=1 n=f#5 v=65
122040 On ch=1 n=f#6 v=0
122040 On ch=1 n=f#5 v=0
122040 On ch=1 n=g#5 v=53
122100 On ch=1 n=g#5 v=0
122160 On ch=1 n=g#6 v=53
122220 On ch=1 n=g#6 v=0
122220 On ch=1 n=f5 v=53
122220 On ch=1 n=g#5 v=53
122280 On ch=1 n=f5 v=0
122280 On ch=1 n=g#5 v=0
122280 On ch=1 n=g#5 v=57
122280 On ch=1 n=f5 v=57
122340 On ch=1 n=g#5 v=0
122340 On ch=1 n=f5 v=0
122340 On ch=1 n=a#5 v=57
122340 On ch=1 n=f5 v=57
122400 On ch=1 n=a#5 v=0
122400 On ch=1 n=f5 v=0
122400 On ch=1 n=c6 v=57
122400 On ch=1 n=f5 v=57
122460 On ch=1 n=c6 v=0
122460 On ch=1 n=f5 v=0
122460 On ch=1 n=c#6 v=61
122460 On ch=1 n=f5 v=61
122520 On ch=1 n=c#6 v=0
122520 On ch=1 n=f5 v=0
122520 On ch=1 n=d#6 v=61
122520 On ch=1 n=f5 v=61
122580 On ch=1 n=d#6 v=0
122580 On ch=1 n=f5 v=0
122580 On ch=1 n=e6 v=61
122580 On ch=1 n=f5 v=61
122640 On ch=1 n=e6 v=0
122640 On ch=1 n=f5 v=0
122640 On ch=1 n=f6 v=65
122640 On ch=1 n=f5 v=65
122700 On ch=1 n=f6 v=0
122700 On ch=1 n=f5 v=0
122700 On ch=1 n=f6 v=65
122700 On ch=1 n=f#5 v=65
122760 On ch=1 n=f6 v=0
122760 On ch=1 n=f#5 v=0
122760 On ch=1 n=f6 v=65
122760 On ch=1 n=g#5 v=65
122820 On ch=1 n=f6 v=0
122820 On ch=1 n=g#5 v=0
122820 On ch=1 n=f6 v=69
122820 On ch=1 n=a#5 v=69
122880 On ch=1 n=f6 v=0
122880 On ch=1 n=e6 v=73
122940 On ch=1 n=e6 v=0
122940 On ch=1 n=a#6 v=77
123000 On ch=1 n=a#5 v=0
123000 On ch=1 n=a#6 v=0
123060 On ch=1 n=e6 v=69
123060 On ch=1 n=a#5 v=69
123090 On ch=1 n=e6 v=0
123090 On ch=1 n=a#5 v=0
123120 On ch=1 n=e6 v=61
123120 On ch=1 n=a#5 v=61
123150 On ch=1 n=e6 v=0
123150 On ch=1 n=a#5 v=0
123240 On ch=1 n=f6 v=53
123240 On ch=1 n=a#5 v=53
123270 On ch=1 n=f6 v=0
123270 On ch=1 n=a#5 v=0
123300 On ch=1 n=f6 v=53
123300 On ch=1 n=a5 v=53
123330 On ch=1 n=f6 v=0
123330 On ch=1 n=a5 v=0
123360 On ch=1 n=f6 v=53
123360 On ch=1 n=a#5 v=53
123390 On ch=1 n=f6 v=0
123390 On ch=1 n=a#5 v=0
124080 On ch=1 n=g4 v=53
124080 On ch=1 n=c5 v=53
124080 On ch=1 n=e5 v=53
124080 On ch=1 n=g5 v=53
124170 On ch=1 n=g4 v=0
124170 On ch=1 n=c5 v=0
124170 On ch=1 n=e5 v=0
124170 On ch=1 n=g5 v=0
124170 On ch=1 n=g4 v=53
124170 On ch=1 n=c5 v=53
124170 On ch=1 n=e5 v=53
124170 On ch=1 n=g5 v=53
124200 On ch=1 n=g4 v=0
124200 On ch=1 n=c5 v=0
124200 On ch=1 n=e5 v=0
124200 On ch=1 n=g5 v=0
124200 On ch=1 n=g4 v=53
124200 On ch=1 n=c5 v=53
124200 On ch=1 n=e5 v=53
124200 On ch=1 n=g5 v=53
124260 On ch=1 n=g4 v=0
124260 On ch=1 n=c5 v=0
124260 On ch=1 n=e5 v=0
124260 On ch=1 n=g5 v=0
124260 On ch=1 n=g4 v=53
124260 On ch=1 n=c5 v=53
124260 On ch=1 n=e5 v=53
124260 On ch=1 n=g5 v=53
124380 On ch=1 n=g4 v=0
124380 On ch=1 n=c5 v=0
124380 On ch=1 n=e5 v=0
124380 On ch=1 n=g5 v=0
124380 On ch=1 n=d5 v=53
124380 On ch=1 n=f5 v=53
124380 On ch=1 n=g4 v=53
124380 On ch=1 n=g5 v=53
124440 On ch=1 n=d5 v=0
124440 On ch=1 n=f5 v=0
124440 On ch=1 n=g4 v=0
124440 On ch=1 n=g5 v=0
124440 On ch=1 n=g4 v=53
124440 On ch=1 n=c5 v=53
124440 On ch=1 n=e5 v=53
124440 On ch=1 n=g5 v=53
124530 On ch=1 n=g4 v=0
124530 On ch=1 n=c5 v=0
124530 On ch=1 n=e5 v=0
124530 On ch=1 n=g5 v=0
124530 On ch=1 n=g4 v=53
124530 On ch=1 n=c5 v=53
124530 On ch=1 n=e5 v=53
124530 On ch=1 n=g5 v=53
124560 On ch=1 n=g4 v=0
124560 On ch=1 n=c5 v=0
124560 On ch=1 n=e5 v=0
124560 On ch=1 n=g5 v=0
124560 On ch=1 n=g4 v=53
124560 On ch=1 n=c5 v=53
124560 On ch=1 n=e5 v=53
124560 On ch=1 n=g5 v=53
124620 On ch=1 n=g4 v=0
124620 On ch=1 n=c5 v=0
124620 On ch=1 n=e5 v=0
124620 On ch=1 n=g5 v=0
124620 On ch=1 n=g4 v=53
124620 On ch=1 n=c5 v=53
124620 On ch=1 n=e5 v=53
124620 On ch=1 n=g5 v=53
124680 On ch=1 n=g4 v=0
124680 On ch=1 n=c5 v=0
124680 On ch=1 n=e5 v=0
124680 On ch=1 n=g5 v=0
124680 On ch=1 n=g4 v=53
124680 On ch=1 n=d5 v=53
124680 On ch=1 n=f5 v=53
124680 On ch=1 n=g5 v=53
124740 On ch=1 n=g4 v=0
124740 On ch=1 n=d5 v=0
124740 On ch=1 n=f5 v=0
124740 On ch=1 n=g5 v=0
124740 On ch=1 n=c5 v=53
124740 On ch=1 n=e5 v=53
124740 On ch=1 n=g4 v=53
124740 On ch=1 n=g5 v=53
124800 On ch=1 n=c5 v=0
124800 On ch=1 n=e5 v=0
124800 On ch=1 n=g4 v=0
124800 On ch=1 n=g5 v=0
124800 On ch=1 n=g4 v=53
124800 On ch=1 n=d5 v=53
124800 On ch=1 n=f5 v=53
124800 On ch=1 n=g5 v=53
124860 On ch=1 n=g4 v=0
124860 On ch=1 n=d5 v=0
124860 On ch=1 n=f5 v=0
124860 On ch=1 n=g5 v=0
124860 On ch=1 n=c5 v=53
124860 On ch=1 n=e5 v=53
124860 On ch=1 n=g4 v=53
124860 On ch=1 n=g5 v=53
124920 On ch=1 n=c5 v=0
124920 On ch=1 n=e5 v=0
124920 On ch=1 n=g4 v=0
124920 On ch=1 n=g5 v=0
124920 On ch=1 n=d5 v=53
124920 On ch=1 n=f5 v=53
124920 On ch=1 n=g4 v=53
124920 On ch=1 n=g5 v=53
124980 On ch=1 n=d5 v=0
124980 On ch=1 n=f5 v=0
124980 On ch=1 n=g4 v=0
124980 On ch=1 n=g5 v=0
124980 On ch=1 n=g4 v=53
124980 On ch=1 n=d5 v=53
124980 On ch=1 n=f5 v=53
124980 On ch=1 n=g5 v=53
125040 On ch=1 n=g4 v=0
125040 On ch=1 n=d5 v=0
125040 On ch=1 n=f5 v=0
125040 On ch=1 n=g5 v=0
125040 On ch=1 n=c5 v=53
125040 On ch=1 n=e5 v=53
125100 On ch=1 n=c5 v=0
125100 On ch=1 n=e5 v=0
125100 On ch=1 n=c5 v=53
125160 On ch=1 n=c5 v=0
125160 On ch=1 n=c5 v=75
125220 On ch=1 n=c5 v=0
125220 On ch=1 n=c5 v=53
125220 On ch=1 n=d5 v=53
125250 On ch=1 n=c5 v=0
125250 On ch=1 n=d5 v=0
125280 On ch=1 n=c5 v=53
125280 On ch=1 n=e5 v=53
125310 On ch=1 n=c5 v=0
125310 On ch=1 n=e5 v=0
125340 On ch=1 n=c5 v=53
125340 On ch=1 n=f5 v=53
125370 On ch=1 n=c5 v=0
125370 On ch=1 n=f5 v=0
125400 On ch=1 n=c5 v=53
125400 On ch=1 n=g5 v=53
125430 On ch=1 n=c5 v=0
125430 On ch=1 n=g5 v=0
125460 On ch=1 n=c5 v=53
125460 On ch=1 n=a5 v=53
125490 On ch=1 n=c5 v=0
125490 On ch=1 n=a5 v=0
125520 On ch=1 n=a4 v=53
125580 On ch=1 n=a4 v=0
125580 On ch=1 n=a4 v=53
125580 On ch=1 n=b4 v=53
125640 On ch=1 n=a4 v=0
125640 On ch=1 n=b4 v=0
125640 On ch=1 n=c#5 v=53
125640 On ch=1 n=a4 v=53
125700 On ch=1 n=c#5 v=0
125700 On ch=1 n=a4 v=0
125700 On ch=1 n=d5 v=53
125700 On ch=1 n=a4 v=53
125760 On ch=1 n=d5 v=0
125760 On ch=1 n=a4 v=0
125760 On ch=1 n=e5 v=53
125760 On ch=1 n=a4 v=53
125820 On ch=1 n=e5 v=0
125820 On ch=1 n=a4 v=0
125820 On ch=1 n=f5 v=53
125820 On ch=1 n=a4 v=53
125880 On ch=1 n=f5 v=0
125880 On ch=1 n=a4 v=0
125880 On ch=1 n=g4 v=53
125940 On ch=1 n=g4 v=0
125940 On ch=1 n=a4 v=59
125940 On ch=1 n=g4 v=59
126000 On ch=1 n=a4 v=0
126000 On ch=1 n=g4 v=0
126000 On ch=1 n=b4 v=65
126000 On ch=1 n=g4 v=65
126060 On ch=1 n=b4 v=0
126060 On ch=1 n=g4 v=0
126060 On ch=1 n=c5 v=71
126060 On ch=1 n=g4 v=71
126120 On ch=1 n=c5 v=0
126120 On ch=1 n=g4 v=0
126120 On ch=1 n=d5 v=77
126120 On ch=1 n=g4 v=77
126180 On ch=1 n=d5 v=0
126180 On ch=1 n=g4 v=0
126180 On ch=1 n=e5 v=83
126180 On ch=1 n=g4 v=83
126240 On ch=1 n=e5 v=0
126240 On ch=1 n=g4 v=0
126240 On ch=1 n=a4 v=90
126240 On ch=1 n=d#5 v=90
126240 On ch=1 n=f#5 v=90
126360 On ch=1 n=f#5 v=0
126360 On ch=1 n=g5 v=90
126420 On ch=1 n=a4 v=0
126420 On ch=1 n=d#5 v=0
126420 On ch=1 n=g5 v=0
126420 On ch=1 n=g4 v=90
126420 On ch=1 n=e5 v=90
126540 On ch=1 n=g4 v=0
126540 On ch=1 n=e5 v=0
126600 On ch=1 n=g7 v=127
126600 On ch=1 n=d7 v=127
126600 On ch=1 n=b6 v=127
126600 On ch=1 n=g6 v=127
126720 On ch=1 n=g7 v=0
126720 On ch=1 n=d7 v=0
126720 On ch=1 n=b6 v=0
126720 On ch=1 n=g6 v=0
126720 On ch=1 n=d7 v=127
126720 On ch=1 n=b6 v=127
126720 On ch=1 n=g6 v=127
126720 On ch=1 n=d6 v=127
126840 On ch=1 n=d7 v=0
126840 On ch=1 n=b6 v=0
126840 On ch=1 n=g6 v=0
126840 On ch=1 n=d6 v=0
126840 On ch=1 n=b6 v=127
126840 On ch=1 n=g6 v=127
126840 On ch=1 n=d6 v=127
126840 On ch=1 n=b5 v=127
126960 On ch=1 n=b6 v=0
126960 On ch=1 n=g6 v=0
126960 On ch=1 n=d6 v=0
126960 On ch=1 n=b5 v=0
126960 On ch=1 n=g5 v=127
126960 On ch=1 n=b5 v=127
126960 On ch=1 n=d6 v=127
126960 On ch=1 n=g6 v=127
127080 On ch=1 n=g5 v=0
127080 On ch=1 n=b5 v=0
127080 On ch=1 n=d6 v=0
127080 On ch=1 n=g6 v=0
127080 On ch=1 n=d5 v=127
127080 On ch=1 n=g5 v=127
127080 On ch=1 n=d6 v=127
127140 On ch=1 n=d5 v=0
127140 On ch=1 n=g5 v=0
127140 On ch=1 n=d6 v=0
127140 On ch=1 n=d5 v=127
127140 On ch=1 n=g5 v=127
127140 On ch=1 n=d6 v=127
127200 On ch=1 n=d5 v=0
127200 On ch=1 n=g5 v=0
127200 On ch=1 n=d6 v=0
127200 On ch=1 n=d5 v=127
127200 On ch=1 n=g5 v=127
127200 On ch=1 n=d6 v=127
127260 On ch=1 n=d5 v=0
127260 On ch=1 n=g5 v=0
127260 On ch=1 n=d6 v=0
127320 On ch=1 n=e5 v=127
127320 On ch=1 n=g5 v=127
127320 On ch=1 n=e6 v=127
127440 On ch=1 n=e5 v=0
127440 On ch=1 n=g5 v=0
127440 On ch=1 n=e6 v=0
127440 On ch=1 n=d5 v=127
127440 On ch=1 n=g5 v=127
127440 On ch=1 n=d6 v=127
127560 On ch=1 n=d5 v=0
127560 On ch=1 n=g5 v=0
127560 On ch=1 n=d6 v=0
127560 On ch=1 n=c5 v=127
127560 On ch=1 n=g5 v=127
127560 On ch=1 n=c6 v=127
127680 On ch=1 n=c5 v=0
127680 On ch=1 n=g5 v=0
127680 On ch=1 n=c6 v=0
127680 On ch=1 n=b4 v=127
127680 On ch=1 n=g5 v=127
127680 On ch=1 n=b5 v=127
127800 On ch=1 n=b4 v=0
127800 On ch=1 n=g5 v=0
127800 On ch=1 n=b5 v=0
127800 On ch=1 n=c5 v=127
127800 On ch=1 n=a5 v=127
127800 On ch=1 n=c6 v=127
127860 On ch=1 n=c5 v=0
127860 On ch=1 n=a5 v=0
127860 On ch=1 n=c6 v=0
127860 On ch=1 n=c#5 v=127
127860 On ch=1 n=a#5 v=127
127860 On ch=1 n=c#6 v=127
127920 On ch=1 n=c#5 v=0
127920 On ch=1 n=a#5 v=0
127920 On ch=1 n=c#6 v=0
127920 On ch=1 n=d5 v=127
127920 On ch=1 n=b5 v=127
127920 On ch=1 n=d6 v=127
127980 On ch=1 n=d5 v=0
127980 On ch=1 n=b5 v=0
127980 On ch=1 n=d6 v=0
128040 On ch=1 n=g7 v=127
128040 On ch=1 n=d7 v=127
128040 On ch=1 n=b6 v=127
128040 On ch=1 n=g6 v=127
128160 On ch=1 n=g7 v=0
128160 On ch=1 n=d7 v=0
128160 On ch=1 n=b6 v=0
128160 On ch=1 n=g6 v=0
128160 On ch=1 n=d7 v=127
128160 On ch=1 n=b6 v=127
128160 On ch=1 n=g6 v=127
128160 On ch=1 n=d6 v=127
128280 On ch=1 n=d7 v=0
128280 On ch=1 n=b6 v=0
128280 On ch=1 n=g6 v=0
128280 On ch=1 n=d6 v=0
128280 On ch=1 n=b6 v=127
128280 On ch=1 n=g6 v=127
128280 On ch=1 n=d6 v=127
128280 On ch=1 n=b5 v=127
128400 On ch=1 n=b6 v=0
128400 On ch=1 n=g6 v=0
128400 On ch=1 n=d6 v=0
128400 On ch=1 n=b5 v=0
128400 On ch=1 n=g5 v=127
128400 On ch=1 n=b5 v=127
128400 On ch=1 n=d6 v=127
128400 On ch=1 n=g6 v=127
128520 On ch=1 n=g5 v=0
128520 On ch=1 n=b5 v=0
128520 On ch=1 n=d6 v=0
128520 On ch=1 n=g6 v=0
128520 On ch=1 n=d5 v=127
128520 On ch=1 n=g5 v=127
128520 On ch=1 n=d6 v=127
128580 On ch=1 n=d5 v=0
128580 On ch=1 n=g5 v=0
128580 On ch=1 n=d6 v=0
128580 On ch=1 n=d5 v=127
128580 On ch=1 n=g5 v=127
128580 On ch=1 n=d6 v=127
128640 On ch=1 n=d5 v=0
128640 On ch=1 n=g5 v=0
128640 On ch=1 n=d6 v=0
128640 On ch=1 n=d5 v=127
128640 On ch=1 n=g5 v=127
128640 On ch=1 n=d6 v=127
128700 On ch=1 n=d5 v=0
128700 On ch=1 n=g5 v=0
128700 On ch=1 n=d6 v=0
128760 On ch=1 n=e5 v=127
128760 On ch=1 n=g5 v=127
128760 On ch=1 n=e6 v=127
128880 On ch=1 n=e5 v=0
128880 On ch=1 n=g5 v=0
128880 On ch=1 n=e6 v=0
128880 On ch=1 n=d5 v=127
128880 On ch=1 n=g5 v=127
128880 On ch=1 n=d6 v=127
129000 On ch=1 n=d5 v=0
129000 On ch=1 n=g5 v=0
129000 On ch=1 n=d6 v=0
129000 On ch=1 n=d5 v=127
129000 On ch=1 n=d6 v=127
129000 On ch=1 n=f#5 v=127
129000 On ch=1 n=c6 v=127
129120 On ch=1 n=d5 v=0
129120 On ch=1 n=d6 v=0
129120 On ch=1 n=f#5 v=0
129120 On ch=1 n=c6 v=0
129120 On ch=1 n=d6 v=127
129120 On ch=1 n=b5 v=127
129120 On ch=1 n=g5 v=127
129120 On ch=1 n=d5 v=127
129360 On ch=1 n=d6 v=0
129360 On ch=1 n=b5 v=0
129360 On ch=1 n=g5 v=0
129360 On ch=1 n=d5 v=0
129480 On ch=1 n=g7 v=127
129480 On ch=1 n=d7 v=127
129480 On ch=1 n=b6 v=127
129480 On ch=1 n=g6 v=127
129600 On ch=1 n=g7 v=0
129600 On ch=1 n=d7 v=0
129600 On ch=1 n=b6 v=0
129600 On ch=1 n=g6 v=0
129600 On ch=1 n=d7 v=127
129600 On ch=1 n=b6 v=127
129600 On ch=1 n=g6 v=127
129600 On ch=1 n=d6 v=127
129720 On ch=1 n=d7 v=0
129720 On ch=1 n=b6 v=0
129720 On ch=1 n=g6 v=0
129720 On ch=1 n=d6 v=0
129720 On ch=1 n=b6 v=127
129720 On ch=1 n=g6 v=127
129720 On ch=1 n=d6 v=127
129720 On ch=1 n=b5 v=127
129840 On ch=1 n=b6 v=0
129840 On ch=1 n=g6 v=0
129840 On ch=1 n=d6 v=0
129840 On ch=1 n=b5 v=0
129840 On ch=1 n=g5 v=127
129840 On ch=1 n=b5 v=127
129840 On ch=1 n=d6 v=127
129840 On ch=1 n=g6 v=127
129960 On ch=1 n=g5 v=0
129960 On ch=1 n=b5 v=0
129960 On ch=1 n=d6 v=0
129960 On ch=1 n=g6 v=0
129960 On ch=1 n=d5 v=127
129960 On ch=1 n=g5 v=127
129960 On ch=1 n=d6 v=127
130020 On ch=1 n=d5 v=0
130020 On ch=1 n=g5 v=0
130020 On ch=1 n=d6 v=0
130020 On ch=1 n=d5 v=127
130020 On ch=1 n=g5 v=127
130020 On ch=1 n=d6 v=127
130080 On ch=1 n=d5 v=0
130080 On ch=1 n=g5 v=0
130080 On ch=1 n=d6 v=0
130080 On ch=1 n=d5 v=127
130080 On ch=1 n=g5 v=127
130080 On ch=1 n=d6 v=127
130140 On ch=1 n=d5 v=0
130140 On ch=1 n=g5 v=0
130140 On ch=1 n=d6 v=0
130200 On ch=1 n=e5 v=127
130200 On ch=1 n=g5 v=127
130200 On ch=1 n=e6 v=127
130320 On ch=1 n=e5 v=0
130320 On ch=1 n=g5 v=0
130320 On ch=1 n=e6 v=0
130320 On ch=1 n=d5 v=127
130320 On ch=1 n=g5 v=127
130320 On ch=1 n=d6 v=127
130440 On ch=1 n=d5 v=0
130440 On ch=1 n=g5 v=0
130440 On ch=1 n=d6 v=0
130440 On ch=1 n=c5 v=127
130440 On ch=1 n=g5 v=127
130440 On ch=1 n=c6 v=127
130560 On ch=1 n=c5 v=0
130560 On ch=1 n=g5 v=0
130560 On ch=1 n=c6 v=0
130560 On ch=1 n=b4 v=127
130560 On ch=1 n=g5 v=127
130560 On ch=1 n=b5 v=127
130680 On ch=1 n=b4 v=0
130680 On ch=1 n=g5 v=0
130680 On ch=1 n=b5 v=0
130680 On ch=1 n=c5 v=127
130680 On ch=1 n=a5 v=127
130680 On ch=1 n=c6 v=127
130740 On ch=1 n=c5 v=0
130740 On ch=1 n=a5 v=0
130740 On ch=1 n=c6 v=0
130740 On ch=1 n=c#5 v=127
130740 On ch=1 n=a#5 v=127
130740 On ch=1 n=c#6 v=127
130800 On ch=1 n=c#5 v=0
130800 On ch=1 n=a#5 v=0
130800 On ch=1 n=c#6 v=0
130800 On ch=1 n=d5 v=127
130800 On ch=1 n=b5 v=127
130800 On ch=1 n=d6 v=127
130860 On ch=1 n=d5 v=0
130860 On ch=1 n=b5 v=0
130860 On ch=1 n=d6 v=0
130920 On ch=1 n=g7 v=127
130920 On ch=1 n=d7 v=127
130920 On ch=1 n=b6 v=127
130920 On ch=1 n=g6 v=127
131040 On ch=1 n=g7 v=0
131040 On ch=1 n=d7 v=0
131040 On ch=1 n=b6 v=0
131040 On ch=1 n=g6 v=0
131040 On ch=1 n=d7 v=127
131040 On ch=1 n=b6 v=127
131040 On ch=1 n=g6 v=127
131040 On ch=1 n=d6 v=127
131160 On ch=1 n=d7 v=0
131160 On ch=1 n=b6 v=0
131160 On ch=1 n=g6 v=0
131160 On ch=1 n=d6 v=0
131160 On ch=1 n=b6 v=127
131160 On ch=1 n=g6 v=127
131160 On ch=1 n=d6 v=127
131160 On ch=1 n=b5 v=127
131280 On ch=1 n=b6 v=0
131280 On ch=1 n=g6 v=0
131280 On ch=1 n=d6 v=0
131280 On ch=1 n=b5 v=0
131280 On ch=1 n=g5 v=127
131280 On ch=1 n=b5 v=127
131280 On ch=1 n=d6 v=127
131280 On ch=1 n=g6 v=127
131400 On ch=1 n=g5 v=0
131400 On ch=1 n=b5 v=0
131400 On ch=1 n=d6 v=0
131400 On ch=1 n=g6 v=0
131400 On ch=1 n=d5 v=127
131400 On ch=1 n=g5 v=127
131400 On ch=1 n=d6 v=127
131460 On ch=1 n=d5 v=0
131460 On ch=1 n=g5 v=0
131460 On ch=1 n=d6 v=0
131460 On ch=1 n=d5 v=127
131460 On ch=1 n=g5 v=127
131460 On ch=1 n=d6 v=127
131520 On ch=1 n=d5 v=0
131520 On ch=1 n=g5 v=0
131520 On ch=1 n=d6 v=0
131520 On ch=1 n=d5 v=127
131520 On ch=1 n=g5 v=127
131520 On ch=1 n=d6 v=127
131580 On ch=1 n=d5 v=0
131580 On ch=1 n=g5 v=0
131580 On ch=1 n=d6 v=0
131640 On ch=1 n=e5 v=127
131640 On ch=1 n=g5 v=127
131640 On ch=1 n=e6 v=127
131760 On ch=1 n=e5 v=0
131760 On ch=1 n=g5 v=0
131760 On ch=1 n=e6 v=0
131760 On ch=1 n=d5 v=127
131760 On ch=1 n=g5 v=127
131760 On ch=1 n=d6 v=127
131880 On ch=1 n=d5 v=0
131880 On ch=1 n=g5 v=0
131880 On ch=1 n=d6 v=0
131880 On ch=1 n=d5 v=127
131880 On ch=1 n=d6 v=127
131880 On ch=1 n=f#5 v=127
131880 On ch=1 n=c6 v=127
132000 On ch=1 n=d5 v=0
132000 On ch=1 n=d6 v=0
132000 On ch=1 n=f#5 v=0
132000 On ch=1 n=c6 v=0
132000 On ch=1 n=d6 v=127
132000 On ch=1 n=b5 v=127
132000 On ch=1 n=g5 v=127
132000 On ch=1 n=d5 v=127
132240 On ch=1 n=d6 v=0
132240 On ch=1 n=b5 v=0
132240 On ch=1 n=g5 v=0
132240 On ch=1 n=d5 v=0
132360 On ch=1 n=g5 v=65
132480 On ch=1 n=c5 v=65
132480 On ch=1 n=e5 v=65
132600 On ch=1 n=c5 v=0
132600 On ch=1 n=e5 v=0
132600 On ch=1 n=c5 v=78
132600 On ch=1 n=e5 v=78
132720 On ch=1 n=g5 v=0
132720 On ch=1 n=c5 v=0
132720 On ch=1 n=e5 v=0
132720 On ch=1 n=a5 v=65
132840 On ch=1 n=c5 v=65
132840 On ch=1 n=d#5 v=65
132960 On ch=1 n=c5 v=0
132960 On ch=1 n=d#5 v=0
132960 On ch=1 n=c5 v=78
132960 On ch=1 n=d#5 v=78
133080 On ch=1 n=a5 v=0
133080 On ch=1 n=c5 v=0
133080 On ch=1 n=d#5 v=0
133080 On ch=1 n=g5 v=65
133200 On ch=1 n=c5 v=65
133200 On ch=1 n=e5 v=65
133320 On ch=1 n=c5 v=0
133320 On ch=1 n=e5 v=0
133320 On ch=1 n=c5 v=78
133320 On ch=1 n=e5 v=78
133440 On ch=1 n=g5 v=0
133440 On ch=1 n=c5 v=0
133440 On ch=1 n=e5 v=0
133440 On ch=1 n=f#5 v=65
133560 On ch=1 n=c5 v=65
133560 On ch=1 n=d#5 v=65
133680 On ch=1 n=c5 v=0
133680 On ch=1 n=d#5 v=0
133680 On ch=1 n=c5 v=78
133680 On ch=1 n=d#5 v=78
133800 On ch=1 n=f#5 v=0
133800 On ch=1 n=c5 v=0
133800 On ch=1 n=d#5 v=0
133800 On ch=1 n=g5 v=65
133920 On ch=1 n=c5 v=65
133920 On ch=1 n=e5 v=65
134040 On ch=1 n=c5 v=0
134040 On ch=1 n=e5 v=0
134040 On ch=1 n=c5 v=78
134040 On ch=1 n=e5 v=78
134160 On ch=1 n=g5 v=0
134160 On ch=1 n=c5 v=0
134160 On ch=1 n=e5 v=0
134160 On ch=1 n=c6 v=65
134280 On ch=1 n=g5 v=65
134280 On ch=1 n=e5 v=65
134400 On ch=1 n=g5 v=0
134400 On ch=1 n=e5 v=0
134400 On ch=1 n=e5 v=78
134400 On ch=1 n=g5 v=78
134520 On ch=1 n=c6 v=0
134520 On ch=1 n=e5 v=0
134520 On ch=1 n=g5 v=0
134520 On ch=1 n=e6 v=65
134640 On ch=1 n=g5 v=65
134640 On ch=1 n=a5 v=65
134760 On ch=1 n=g5 v=0
134760 On ch=1 n=a5 v=0
134760 On ch=1 n=g5 v=78
134760 On ch=1 n=a5 v=78
134880 On ch=1 n=g5 v=0
134880 On ch=1 n=a5 v=0
135000 On ch=1 n=g5 v=65
135000 On ch=1 n=a5 v=65
135120 On ch=1 n=g5 v=0
135120 On ch=1 n=a5 v=0
135120 On ch=1 n=g5 v=78
135120 On ch=1 n=a5 v=78
135240 On ch=1 n=e6 v=0
135240 On ch=1 n=g5 v=0
135240 On ch=1 n=a5 v=0
135240 On ch=1 n=f6 v=65
135360 On ch=1 n=f5 v=65
135360 On ch=1 n=a5 v=65
135480 On ch=1 n=f5 v=0
135480 On ch=1 n=a5 v=0
135480 On ch=1 n=f5 v=65
135480 On ch=1 n=a5 v=65
135600 On ch=1 n=f6 v=0
135600 On ch=1 n=f5 v=0
135600 On ch=1 n=a5 v=0
135600 On ch=1 n=e6 v=65
135720 On ch=1 n=f5 v=65
135720 On ch=1 n=a5 v=65
135840 On ch=1 n=f5 v=0
135840 On ch=1 n=a5 v=0
135840 On ch=1 n=f5 v=65
135840 On ch=1 n=a5 v=65
135960 On ch=1 n=e6 v=0
135960 On ch=1 n=f5 v=0
135960 On ch=1 n=a5 v=0
135960 On ch=1 n=d6 v=65
136080 On ch=1 n=f5 v=65
136080 On ch=1 n=g#5 v=65
136200 On ch=1 n=f5 v=0
136200 On ch=1 n=g#5 v=0
136200 On ch=1 n=f5 v=65
136200 On ch=1 n=g#5 v=65
136320 On ch=1 n=d6 v=0
136320 On ch=1 n=f5 v=0
136320 On ch=1 n=g#5 v=0
136320 On ch=1 n=e6 v=65
136440 On ch=1 n=f5 v=65
136440 On ch=1 n=g5 v=65
136560 On ch=1 n=e6 v=0
136560 On ch=1 n=f5 v=0
136560 On ch=1 n=g5 v=0
136560 On ch=1 n=d6 v=65
136560 On ch=1 n=f5 v=65
136560 On ch=1 n=g5 v=65
136680 On ch=1 n=d6 v=0
136680 On ch=1 n=f5 v=0
136680 On ch=1 n=g5 v=0
136680 On ch=1 n=c6 v=65
136800 On ch=1 n=e5 v=65
136800 On ch=1 n=g5 v=65
136920 On ch=1 n=e5 v=0
136920 On ch=1 n=g5 v=0
136920 On ch=1 n=e5 v=65
136920 On ch=1 n=g5 v=65
137040 On ch=1 n=c6 v=0
137040 On ch=1 n=e5 v=0
137040 On ch=1 n=g5 v=0
137040 On ch=1 n=a5 v=65
137160 On ch=1 n=c5 v=65
137160 On ch=1 n=e5 v=65
137280 On ch=1 n=a5 v=0
137280 On ch=1 n=c5 v=0
137280 On ch=1 n=e5 v=0
137280 On ch=1 n=g5 v=65
137280 On ch=1 n=c5 v=65
137280 On ch=1 n=e5 v=65
137400 On ch=1 n=g5 v=0
137400 On ch=1 n=c5 v=0
137400 On ch=1 n=e5 v=0
137400 On ch=1 n=b5 v=65
137520 On ch=1 n=f5 v=65
137520 On ch=1 n=b4 v=65
137640 On ch=1 n=f5 v=0
137640 On ch=1 n=b4 v=0
137640 On ch=1 n=f5 v=65
137640 On ch=1 n=b4 v=65
137760 On ch=1 n=b5 v=0
137760 On ch=1 n=f5 v=0
137760 On ch=1 n=b4 v=0
137760 On ch=1 n=g#5 v=65
137880 On ch=1 n=f5 v=65
137880 On ch=1 n=b4 v=65
138000 On ch=1 n=g#5 v=0
138000 On ch=1 n=f5 v=0
138000 On ch=1 n=b4 v=0
138000 On ch=1 n=g5 v=65
138000 On ch=1 n=f5 v=65
138000 On ch=1 n=b4 v=65
138120 On ch=1 n=g5 v=0
138120 On ch=1 n=f5 v=0
138120 On ch=1 n=b4 v=0
138120 On ch=1 n=g5 v=65
138240 On ch=1 n=c5 v=65
138240 On ch=1 n=e5 v=65
138360 On ch=1 n=c5 v=0
138360 On ch=1 n=e5 v=0
138360 On ch=1 n=c5 v=78
138360 On ch=1 n=e5 v=78
138480 On ch=1 n=g5 v=0
138480 On ch=1 n=c5 v=0
138480 On ch=1 n=e5 v=0
138480 On ch=1 n=a5 v=65
138600 On ch=1 n=c5 v=65
138600 On ch=1 n=d#5 v=65
138720 On ch=1 n=c5 v=0
138720 On ch=1 n=d#5 v=0
138720 On ch=1 n=c5 v=78
138720 On ch=1 n=d#5 v=78
138840 On ch=1 n=a5 v=0
138840 On ch=1 n=c5 v=0
138840 On ch=1 n=d#5 v=0
138840 On ch=1 n=g5 v=65
138960 On ch=1 n=c5 v=65
138960 On ch=1 n=e5 v=65
139080 On ch=1 n=c5 v=0
139080 On ch=1 n=e5 v=0
139080 On ch=1 n=c5 v=78
139080 On ch=1 n=e5 v=78
139200 On ch=1 n=g5 v=0
139200 On ch=1 n=c5 v=0
139200 On ch=1 n=e5 v=0
139200 On ch=1 n=f#5 v=65
139320 On ch=1 n=c5 v=65
139320 On ch=1 n=d#5 v=65
139440 On ch=1 n=c5 v=0
139440 On ch=1 n=d#5 v=0
139440 On ch=1 n=c5 v=78
139440 On ch=1 n=d#5 v=78
139560 On ch=1 n=f#5 v=0
139560 On ch=1 n=c5 v=0
139560 On ch=1 n=d#5 v=0
139560 On ch=1 n=g5 v=65
139680 On ch=1 n=c5 v=65
139680 On ch=1 n=e5 v=65
139800 On ch=1 n=c5 v=0
139800 On ch=1 n=e5 v=0
139800 On ch=1 n=c5 v=78
139800 On ch=1 n=e5 v=78
139920 On ch=1 n=g5 v=0
139920 On ch=1 n=c5 v=0
139920 On ch=1 n=e5 v=0
139920 On ch=1 n=c6 v=65
140040 On ch=1 n=g5 v=65
140040 On ch=1 n=e5 v=65
140160 On ch=1 n=g5 v=0
140160 On ch=1 n=e5 v=0
140160 On ch=1 n=e5 v=78
140160 On ch=1 n=g5 v=78
140280 On ch=1 n=c6 v=0
140280 On ch=1 n=e5 v=0
140280 On ch=1 n=g5 v=0
140280 On ch=1 n=e6 v=65
140400 On ch=1 n=g5 v=65
140400 On ch=1 n=a5 v=65
140520 On ch=1 n=g5 v=0
140520 On ch=1 n=a5 v=0
140520 On ch=1 n=g5 v=78
140520 On ch=1 n=a5 v=78
140640 On ch=1 n=g5 v=0
140640 On ch=1 n=a5 v=0
140760 On ch=1 n=g5 v=65
140760 On ch=1 n=a5 v=65
140880 On ch=1 n=g5 v=0
140880 On ch=1 n=a5 v=0
140880 On ch=1 n=g5 v=78
140880 On ch=1 n=a5 v=78
141000 On ch=1 n=e6 v=0
141000 On ch=1 n=g5 v=0
141000 On ch=1 n=a5 v=0
141000 On ch=1 n=f6 v=65
141120 On ch=1 n=f5 v=65
141120 On ch=1 n=a5 v=65
141240 On ch=1 n=f5 v=0
141240 On ch=1 n=a5 v=0
141240 On ch=1 n=f5 v=65
141240 On ch=1 n=a5 v=65
141360 On ch=1 n=f6 v=0
141360 On ch=1 n=f5 v=0
141360 On ch=1 n=a5 v=0
141360 On ch=1 n=e6 v=65
141480 On ch=1 n=f5 v=65
141480 On ch=1 n=a5 v=65
141600 On ch=1 n=f5 v=0
141600 On ch=1 n=a5 v=0
141600 On ch=1 n=f5 v=65
141600 On ch=1 n=a5 v=65
141720 On ch=1 n=e6 v=0
141720 On ch=1 n=f5 v=0
141720 On ch=1 n=a5 v=0
141720 On ch=1 n=d6 v=65
141840 On ch=1 n=f5 v=65
141840 On ch=1 n=g#5 v=65
141960 On ch=1 n=f5 v=0
141960 On ch=1 n=g#5 v=0
141960 On ch=1 n=f5 v=65
141960 On ch=1 n=g#5 v=65
142080 On ch=1 n=d6 v=0
142080 On ch=1 n=f5 v=0
142080 On ch=1 n=g#5 v=0
142080 On ch=1 n=e6 v=65
142200 On ch=1 n=f5 v=65
142200 On ch=1 n=g5 v=65
142320 On ch=1 n=e6 v=0
142320 On ch=1 n=f5 v=0
142320 On ch=1 n=g5 v=0
142320 On ch=1 n=d6 v=65
142320 On ch=1 n=f5 v=65
142320 On ch=1 n=g5 v=65
142440 On ch=1 n=d6 v=0
142440 On ch=1 n=f5 v=0
142440 On ch=1 n=g5 v=0
142440 On ch=1 n=c6 v=65
142560 On ch=1 n=g5 v=65
142560 On ch=1 n=e5 v=65
142680 On ch=1 n=g5 v=0
142680 On ch=1 n=e5 v=0
142680 On ch=1 n=g5 v=65
142680 On ch=1 n=e5 v=65
142800 On ch=1 n=c6 v=0
142800 On ch=1 n=g5 v=0
142800 On ch=1 n=e5 v=0
142800 On ch=1 n=a5 v=65
142920 On ch=1 n=e5 v=65
143040 On ch=1 n=e5 v=0
143040 On ch=1 n=g5 v=65
143040 On ch=1 n=e5 v=65
143160 On ch=1 n=a5 v=0
143160 On ch=1 n=g5 v=0
143160 On ch=1 n=e5 v=0
143160 On ch=1 n=c6 v=65
143280 On ch=1 n=g5 v=65
143280 On ch=1 n=e5 v=65
143400 On ch=1 n=g5 v=0
143400 On ch=1 n=e5 v=0
143400 On ch=1 n=g5 v=65
143400 On ch=1 n=e5 v=65
143520 On ch=1 n=c6 v=0
143520 On ch=1 n=g5 v=0
143520 On ch=1 n=e5 v=0
143520 On ch=1 n=a5 v=65
143640 On ch=1 n=e5 v=65
143760 On ch=1 n=a5 v=0
143760 On ch=1 n=g5 v=65
143880 On ch=1 n=e5 v=0
143880 On ch=1 n=g5 v=0
143880 On ch=1 n=g#5 v=90
144060 On ch=1 n=g#5 v=0
144060 On ch=1 n=a5 v=90
144120 On ch=1 n=a5 v=0
144120 On ch=1 n=d6 v=90
144180 On ch=1 n=d6 v=0
144180 On ch=1 n=c6 v=90
144240 On ch=1 n=c6 v=0
144240 On ch=1 n=a#5 v=90
144420 On ch=1 n=a#5 v=0
144420 On ch=1 n=b5 v=90
144480 On ch=1 n=b5 v=0
144480 On ch=1 n=a6 v=90
144540 On ch=1 n=a6 v=0
144540 On ch=1 n=g6 v=90
144600 On ch=1 n=g6 v=0
144600 On ch=1 n=f#6 v=90
144780 On ch=1 n=f#6 v=0
144780 On ch=1 n=g6 v=90
144840 On ch=1 n=g6 v=0
144840 On ch=1 n=c7 v=90
144900 On ch=1 n=c7 v=0
144900 On ch=1 n=e7 v=90
144960 On ch=1 n=e7 v=0
144960 On ch=1 n=g7 v=90
145320 On ch=1 n=g7 v=0
145320 Par ch=1 c=64 v=127
145320 On ch=1 n=g5 v=53
145500 On ch=1 n=g5 v=0
145500 On ch=1 n=g#5 v=53
145560 On ch=1 n=g#5 v=0
145560 On ch=1 n=c#6 v=53
145620 On ch=1 n=c#6 v=0
145620 On ch=1 n=c6 v=53
145680 On ch=1 n=c6 v=0
145680 On ch=1 n=a#5 v=53
145860 On ch=1 n=a#5 v=0
145860 On ch=1 n=b5 v=53
145920 On ch=1 n=b5 v=0
145920 On ch=1 n=g#6 v=53
145980 On ch=1 n=g#6 v=0
145980 On ch=1 n=g6 v=53
146040 On ch=1 n=g6 v=0
146040 On ch=1 n=f#6 v=53
146220 On ch=1 n=f#6 v=0
146220 On ch=1 n=g6 v=53
146280 On ch=1 n=g6 v=0
146280 On ch=1 n=c7 v=53
146340 On ch=1 n=c7 v=0
146340 On ch=1 n=d#7 v=53
146400 On ch=1 n=d#7 v=0
146400 On ch=1 n=g7 v=53
146640 Par ch=1 c=64 v=0
146760 On ch=1 n=g7 v=0
146760 On ch=1 n=g6 v=65
146880 On ch=1 n=c6 v=65
146880 On ch=1 n=e6 v=65
147000 On ch=1 n=c6 v=0
147000 On ch=1 n=e6 v=0
147000 On ch=1 n=c6 v=65
147000 On ch=1 n=e6 v=65
147120 On ch=1 n=g6 v=0
147120 On ch=1 n=c6 v=0
147120 On ch=1 n=e6 v=0
147120 On ch=1 n=f#6 v=65
147240 On ch=1 n=c6 v=65
147240 On ch=1 n=d#6 v=65
147360 On ch=1 n=c6 v=0
147360 On ch=1 n=d#6 v=0
147360 On ch=1 n=c6 v=65
147360 On ch=1 n=d#6 v=65
147480 On ch=1 n=f#6 v=0
147480 On ch=1 n=c6 v=0
147480 On ch=1 n=d#6 v=0
147480 On ch=1 n=g6 v=65
147600 On ch=1 n=c6 v=65
147600 On ch=1 n=e6 v=65
147720 On ch=1 n=c6 v=0
147720 On ch=1 n=e6 v=0
147720 On ch=1 n=c6 v=65
147720 On ch=1 n=e6 v=65
147840 On ch=1 n=g6 v=0
147840 On ch=1 n=c6 v=0
147840 On ch=1 n=e6 v=0
147840 On ch=1 n=d#6 v=65
147960 On ch=1 n=c6 v=65
147960 On ch=1 n=a5 v=65
148080 On ch=1 n=c6 v=0
148080 On ch=1 n=a5 v=0
148080 On ch=1 n=c6 v=65
148080 On ch=1 n=a5 v=65
148200 On ch=1 n=d#6 v=0
148200 On ch=1 n=c6 v=0
148200 On ch=1 n=a5 v=0
148200 On ch=1 n=e6 v=65
148320 On ch=1 n=c6 v=65
148320 On ch=1 n=g5 v=65
148440 On ch=1 n=c6 v=0
148440 On ch=1 n=g5 v=0
148440 On ch=1 n=c6 v=65
148440 On ch=1 n=g5 v=65
148560 On ch=1 n=e6 v=0
148560 On ch=1 n=c6 v=0
148560 On ch=1 n=g5 v=0
148560 On ch=1 n=c6 v=65
148680 On ch=1 n=a5 v=65
148680 On ch=1 n=f#5 v=65
148800 On ch=1 n=a5 v=0
148800 On ch=1 n=f#5 v=0
148800 On ch=1 n=a5 v=65
148800 On ch=1 n=f#5 v=65
148920 On ch=1 n=c6 v=0
148920 On ch=1 n=a5 v=0
148920 On ch=1 n=f#5 v=0
148920 Par ch=1 c=64 v=65
148920 On ch=1 n=b5 v=65
149040 On ch=1 n=a5 v=61
149040 On ch=1 n=f#5 v=61
149160 On ch=1 n=a5 v=0
149160 On ch=1 n=f#5 v=0
149160 On ch=1 n=a5 v=57
149160 On ch=1 n=f#5 v=57
149280 On ch=1 n=a5 v=0
149280 On ch=1 n=f#5 v=0
149400 On ch=1 n=a5 v=53
149400 On ch=1 n=f#5 v=53
149519 Par ch=1 c=64 v=0
149520 On ch=1 n=a5 v=0
149520 On ch=1 n=f#5 v=0
149520 On ch=1 n=a5 v=49
149520 On ch=1 n=f#5 v=49
149640 On ch=1 n=b5 v=0
149640 On ch=1 n=a5 v=0
149640 On ch=1 n=f#5 v=0
149640 On ch=1 n=b5 v=90
149760 On ch=1 n=g5 v=90
149760 On ch=1 n=e5 v=90
149880 On ch=1 n=g5 v=0
149880 On ch=1 n=e5 v=0
149880 On ch=1 n=g5 v=90
149880 On ch=1 n=e5 v=90
150000 On ch=1 n=b5 v=0
150000 On ch=1 n=g5 v=0
150000 On ch=1 n=e5 v=0
150000 On ch=1 n=a5 v=90
150120 On ch=1 n=f#5 v=90
150120 On ch=1 n=e5 v=90
150240 On ch=1 n=a5 v=0
150240 On ch=1 n=f#5 v=0
150240 On ch=1 n=e5 v=0
150240 On ch=1 n=c6 v=90
150240 On ch=1 n=f#5 v=90
150240 On ch=1 n=e5 v=90
150360 On ch=1 n=c6 v=0
150360 On ch=1 n=f#5 v=0
150360 On ch=1 n=e5 v=0
150360 On ch=1 n=b5 v=102
150360 On ch=1 n=b4 v=102
150480 On ch=1 n=g5 v=90
150480 On ch=1 n=e5 v=90
150600 On ch=1 n=g5 v=0
150600 On ch=1 n=e5 v=0
150600 On ch=1 n=g5 v=90
150600 On ch=1 n=e5 v=90
150720 On ch=1 n=b5 v=0
150720 On ch=1 n=b4 v=0
150720 On ch=1 n=g5 v=0
150720 On ch=1 n=e5 v=0
150720 On ch=1 n=e5 v=102
150720 On ch=1 n=e6 v=102
150840 On ch=1 n=a5 v=90
150840 On ch=1 n=f#5 v=90
150960 On ch=1 n=a5 v=0
150960 On ch=1 n=f#5 v=0
150960 On ch=1 n=c5 v=102
150960 On ch=1 n=c6 v=102
151080 On ch=1 n=e5 v=0
151080 On ch=1 n=e6 v=0
151080 On ch=1 n=c5 v=0
151080 On ch=1 n=c6 v=0
151080 On ch=1 n=b5 v=102
151080 On ch=1 n=b4 v=102
151200 On ch=1 n=g5 v=90
151200 On ch=1 n=e5 v=90
151320 On ch=1 n=g5 v=0
151320 On ch=1 n=e5 v=0
151320 On ch=1 n=g5 v=90
151320 On ch=1 n=e5 v=90
151440 On ch=1 n=b5 v=0
151440 On ch=1 n=b4 v=0
151440 On ch=1 n=g5 v=0
151440 On ch=1 n=e5 v=0
151440 On ch=1 n=c6 v=93
151440 On ch=1 n=c5 v=93
151560 On ch=1 n=a5 v=82
151560 On ch=1 n=f#5 v=82
151680 On ch=1 n=a5 v=0
151680 On ch=1 n=f#5 v=0
151680 On ch=1 n=a5 v=82
151680 On ch=1 n=f#5 v=82
151800 On ch=1 n=c6 v=0
151800 On ch=1 n=c5 v=0
151800 On ch=1 n=a5 v=0
151800 On ch=1 n=f#5 v=0
151800 On ch=1 n=b5 v=84
151800 On ch=1 n=b4 v=84
151920 On ch=1 n=f#5 v=74
151920 On ch=1 n=d#5 v=74
152040 On ch=1 n=b4 v=0
152040 On ch=1 n=f#5 v=0
152040 On ch=1 n=d#5 v=0
152040 On ch=1 n=f#5 v=74
152040 On ch=1 n=d#5 v=74
152160 On ch=1 n=b5 v=0
152160 On ch=1 n=f#5 v=0
152160 On ch=1 n=d#5 v=0
152160 On ch=1 n=b5 v=73
152160 On ch=1 n=b4 v=73
152280 On ch=1 n=g5 v=65
152280 On ch=1 n=e5 v=65
152400 On ch=1 n=g5 v=0
152400 On ch=1 n=e5 v=0
152400 On ch=1 n=g5 v=65
152400 On ch=1 n=e5 v=65
152460 On ch=1 n=b5 v=0
152460 On ch=1 n=b4 v=0
152460 On ch=1 n=g5 v=0
152460 On ch=1 n=e5 v=0
152880 On ch=1 n=f5 v=127
152880 On ch=1 n=g5 v=127
152880 On ch=1 n=d6 v=127
152880 On ch=1 n=g6 v=127
152940 On ch=1 n=f5 v=0
152940 On ch=1 n=g5 v=0
152940 On ch=1 n=d6 v=0
152940 On ch=1 n=g6 v=0
153000 On ch=1 n=f5 v=127
153000 On ch=1 n=g5 v=127
153000 On ch=1 n=c#6 v=127
153000 On ch=1 n=g6 v=127
153030 On ch=1 n=f5 v=0
153030 On ch=1 n=g5 v=0
153030 On ch=1 n=c#6 v=0
153030 On ch=1 n=g6 v=0
153060 On ch=1 n=f5 v=127
153060 On ch=1 n=g5 v=127
153060 On ch=1 n=c#6 v=127
153060 On ch=1 n=g6 v=127
153090 On ch=1 n=f5 v=0
153090 On ch=1 n=g5 v=0
153090 On ch=1 n=c#6 v=0
153090 On ch=1 n=g6 v=0
153120 On ch=1 n=f5 v=127
153120 On ch=1 n=g5 v=127
153120 On ch=1 n=d6 v=127
153120 On ch=1 n=g6 v=127
153180 On ch=1 n=f5 v=0
153180 On ch=1 n=g5 v=0
153180 On ch=1 n=d6 v=0
153180 On ch=1 n=g6 v=0
153600 On ch=1 n=b5 v=127
153600 On ch=1 n=f6 v=127
153600 On ch=1 n=g6 v=127
153600 On ch=1 n=b6 v=127
153720 On ch=1 n=b5 v=0
153720 On ch=1 n=f6 v=0
153720 On ch=1 n=g6 v=0
153720 On ch=1 n=b6 v=0
153720 On ch=1 n=b5 v=127
153720 On ch=1 n=e6 v=127
153720 On ch=1 n=g6 v=127
153720 On ch=1 n=b6 v=127
153780 On ch=1 n=b5 v=0
153780 On ch=1 n=e6 v=0
153780 On ch=1 n=g6 v=0
153780 On ch=1 n=b6 v=0
153780 On ch=1 n=b6 v=127
153780 On ch=1 n=g6 v=127
153780 On ch=1 n=e6 v=127
153780 On ch=1 n=b5 v=127
153840 On ch=1 n=b6 v=0
153840 On ch=1 n=g6 v=0
153840 On ch=1 n=e6 v=0
153840 On ch=1 n=b5 v=0
153840 On ch=1 n=b5 v=127
153840 On ch=1 n=f6 v=127
153840 On ch=1 n=g6 v=127
153840 On ch=1 n=b6 v=127
153960 On ch=1 n=b5 v=0
153960 On ch=1 n=f6 v=0
153960 On ch=1 n=g6 v=0
153960 On ch=1 n=b6 v=0
154320 On ch=1 n=g6 v=65
154440 On ch=1 n=c6 v=65
154440 On ch=1 n=e6 v=65
154560 On ch=1 n=c6 v=0
154560 On ch=1 n=e6 v=0
154560 On ch=1 n=c6 v=65
154560 On ch=1 n=e6 v=65
154680 On ch=1 n=g6 v=0
154680 On ch=1 n=c6 v=0
154680 On ch=1 n=e6 v=0
154680 On ch=1 n=c7 v=65
154800 On ch=1 n=d6 v=65
154800 On ch=1 n=c6 v=65
154920 On ch=1 n=d6 v=0
154920 On ch=1 n=c6 v=0
154920 On ch=1 n=d6 v=65
154920 On ch=1 n=c6 v=65
155040 On ch=1 n=c7 v=0
155040 On ch=1 n=d6 v=0
155040 On ch=1 n=c6 v=0
155040 On ch=1 n=d6 v=65
155160 On ch=1 n=c6 v=65
155160 On ch=1 n=g5 v=65
155280 On ch=1 n=c6 v=0
155280 On ch=1 n=g5 v=0
155280 On ch=1 n=g5 v=65
155280 On ch=1 n=c6 v=65
155400 On ch=1 n=d6 v=0
155400 On ch=1 n=g5 v=0
155400 On ch=1 n=c6 v=0
155400 On ch=1 n=g6 v=65
155520 On ch=1 n=b5 v=65
155520 On ch=1 n=g5 v=65
155640 On ch=1 n=b5 v=0
155640 On ch=1 n=g5 v=0
155640 On ch=1 n=b5 v=65
155640 On ch=1 n=g5 v=65
155760 On ch=1 n=g6 v=0
155760 On ch=1 n=b5 v=0
155760 On ch=1 n=g5 v=0
155760 Par ch=1 c=64 v=127
155760 On ch=1 n=c6 v=65
155880 On ch=1 n=g5 v=65
155880 On ch=1 n=e5 v=65
156000 On ch=1 n=g5 v=0
156000 On ch=1 n=e5 v=0
156000 On ch=1 n=g5 v=65
156000 On ch=1 n=e5 v=65
156120 On ch=1 n=c6 v=0
156120 On ch=1 n=g5 v=0
156120 On ch=1 n=e5 v=0
156120 On ch=1 n=a5 v=65
156240 On ch=1 n=e5 v=65
156360 On ch=1 n=e5 v=0
156360 On ch=1 n=g5 v=65
156360 On ch=1 n=e5 v=65
156480 On ch=1 n=a5 v=0
156480 On ch=1 n=g5 v=0
156480 On ch=1 n=e5 v=0
156480 On ch=1 n=c6 v=47
156600 On ch=1 n=g5 v=47
156600 On ch=1 n=e5 v=47
156720 On ch=1 n=g5 v=0
156720 On ch=1 n=e5 v=0
156720 On ch=1 n=g5 v=47
156720 On ch=1 n=e5 v=47
156840 On ch=1 n=g5 v=0
156840 On ch=1 n=e5 v=0
156840 On ch=1 n=a5 v=47
156960 On ch=1 n=e5 v=47
157020 Par ch=1 c=64 v=0
157080 On ch=1 n=e5 v=0
157080 On ch=1 n=g5 v=47
157080 On ch=1 n=e5 v=47
157680 On ch=1 n=a5 v=0
157680 On ch=1 n=g5 v=0
157680 On ch=1 n=e5 v=0
157920 On ch=1 n=c6 v=0
157980 On ch=1 n=a6 v=90
157980 On ch=1 n=d#6 v=90
157980 On ch=1 n=c6 v=90
157980 On ch=1 n=a5 v=90
158010 On ch=1 n=a6 v=0
158010 On ch=1 n=d#6 v=0
158010 On ch=1 n=c6 v=0
158010 On ch=1 n=a5 v=0
158010 On ch=1 n=a5 v=90
158010 On ch=1 n=c6 v=90
158010 On ch=1 n=d#6 v=90
158010 On ch=1 n=a6 v=90
158040 On ch=1 n=a5 v=0
158040 On ch=1 n=c6 v=0
158040 On ch=1 n=d#6 v=0
158040 On ch=1 n=a6 v=0
158040 On ch=1 n=a6 v=96
158040 On ch=1 n=d#6 v=96
158040 On ch=1 n=c6 v=96
158040 On ch=1 n=a5 v=96
158100 On ch=1 n=a6 v=0
158100 On ch=1 n=d#6 v=0
158100 On ch=1 n=c6 v=0
158100 On ch=1 n=a5 v=0
158100 On ch=1 n=a5 v=90
158100 On ch=1 n=c#6 v=90
158100 On ch=1 n=e6 v=90
158100 On ch=1 n=a6 v=90
158130 On ch=1 n=a5 v=0
158130 On ch=1 n=c#6 v=0
158130 On ch=1 n=e6 v=0
158130 On ch=1 n=a6 v=0
158130 On ch=1 n=a6 v=90
158130 On ch=1 n=e6 v=90
158130 On ch=1 n=c#6 v=90
158130 On ch=1 n=a5 v=90
158160 On ch=1 n=a6 v=0
158160 On ch=1 n=e6 v=0
158160 On ch=1 n=c#6 v=0
158160 On ch=1 n=a5 v=0
158160 On ch=1 n=a5 v=96
158160 On ch=1 n=c#6 v=96
158160 On ch=1 n=e6 v=96
158160 On ch=1 n=a6 v=96
158220 On ch=1 n=a5 v=0
158220 On ch=1 n=c#6 v=0
158220 On ch=1 n=e6 v=0
158220 On ch=1 n=a6 v=0
158220 On ch=1 n=a5 v=90
158220 On ch=1 n=d6 v=90
158220 On ch=1 n=f6 v=90
158220 On ch=1 n=a6 v=90
158250 On ch=1 n=a5 v=0
158250 On ch=1 n=d6 v=0
158250 On ch=1 n=f6 v=0
158250 On ch=1 n=a6 v=0
158250 On ch=1 n=a5 v=90
158250 On ch=1 n=d6 v=90
158250 On ch=1 n=f6 v=90
158250 On ch=1 n=a6 v=90
158280 On ch=1 n=a5 v=0
158280 On ch=1 n=d6 v=0
158280 On ch=1 n=f6 v=0
158280 On ch=1 n=a6 v=0
158280 On ch=1 n=a5 v=96
158280 On ch=1 n=d6 v=96
158280 On ch=1 n=f6 v=96
158280 On ch=1 n=a6 v=96
158340 On ch=1 n=a5 v=0
158340 On ch=1 n=d6 v=0
158340 On ch=1 n=f6 v=0
158340 On ch=1 n=a6 v=0
158340 On ch=1 n=a6 v=90
158340 On ch=1 n=f#6 v=90
158340 On ch=1 n=d#6 v=90
158340 On ch=1 n=a5 v=90
158370 On ch=1 n=a6 v=0
158370 On ch=1 n=f#6 v=0
158370 On ch=1 n=d#6 v=0
158370 On ch=1 n=a5 v=0
158370 On ch=1 n=a5 v=90
158370 On ch=1 n=d#6 v=90
158370 On ch=1 n=f#6 v=90
158370 On ch=1 n=a6 v=90
158400 On ch=1 n=a5 v=0
158400 On ch=1 n=d#6 v=0
158400 On ch=1 n=f#6 v=0
158400 On ch=1 n=a6 v=0
158400 On ch=1 n=a5 v=96
158400 On ch=1 n=d#6 v=96
158400 On ch=1 n=f#6 v=96
158400 On ch=1 n=a6 v=96
158460 On ch=1 n=a5 v=0
158460 On ch=1 n=d#6 v=0
158460 On ch=1 n=f#6 v=0
158460 On ch=1 n=a6 v=0
158460 On ch=1 n=a5 v=90
158460 On ch=1 n=e6 v=90
158460 On ch=1 n=g6 v=90
158460 On ch=1 n=a6 v=90
158490 On ch=1 n=a5 v=0
158490 On ch=1 n=e6 v=0
158490 On ch=1 n=g6 v=0
158490 On ch=1 n=a6 v=0
158490 On ch=1 n=a6 v=90
158490 On ch=1 n=g6 v=90
158490 On ch=1 n=e6 v=90
158490 On ch=1 n=a5 v=90
158520 On ch=1 n=a6 v=0
158520 On ch=1 n=g6 v=0
158520 On ch=1 n=e6 v=0
158520 On ch=1 n=a5 v=0
158520 On ch=1 n=a5 v=96
158520 On ch=1 n=e6 v=96
158520 On ch=1 n=g6 v=96
158520 On ch=1 n=a6 v=96
158580 On ch=1 n=a5 v=0
158580 On ch=1 n=e6 v=0
158580 On ch=1 n=g6 v=0
158580 On ch=1 n=a6 v=0
158580 On ch=1 n=c#7 v=96
158580 On ch=1 n=a6 v=96
158580 On ch=1 n=g6 v=96
158580 On ch=1 n=e6 v=96
158640 On ch=1 n=c#7 v=0
158640 On ch=1 n=a6 v=0
158640 On ch=1 n=g6 v=0
158640 On ch=1 n=e6 v=0
158640 On ch=1 n=d6 v=96
158640 On ch=1 n=f#6 v=96
158640 On ch=1 n=a6 v=96
158640 On ch=1 n=d7 v=96
158700 On ch=1 n=d6 v=0
158700 On ch=1 n=f#6 v=0
158700 On ch=1 n=a6 v=0
158700 On ch=1 n=d7 v=0
159000 On ch=1 n=g5 v=65
159007 On ch=1 n=a6 v=65
159060 On ch=1 n=a6 v=0
159060 On ch=1 n=g#6 v=65
159090 On ch=1 n=g#6 v=0
159090 On ch=1 n=g6 v=65
159120 On ch=1 n=g6 v=0
159120 On ch=1 n=f#6 v=65
159180 On ch=1 n=g5 v=0
159180 On ch=1 n=f#6 v=0
159180 On ch=1 n=g5 v=65
159180 On ch=1 n=e6 v=65
159210 On ch=1 n=g5 v=0
159210 On ch=1 n=e6 v=0
159240 On ch=1 n=g5 v=65
159240 On ch=1 n=d6 v=65
159270 On ch=1 n=g5 v=0
159270 On ch=1 n=d6 v=0
159300 On ch=1 n=g5 v=65
159300 On ch=1 n=c#6 v=65
159330 On ch=1 n=g5 v=0
159330 On ch=1 n=c#6 v=0
159360 On ch=1 n=c#6 v=65
159365 On ch=1 n=c#6 v=0
159365 On ch=1 n=g5 v=71
159365 On ch=1 n=b5 v=71
159420 On ch=1 n=g5 v=0
159420 On ch=1 n=b5 v=0
159420 On ch=1 n=a5 v=65
159480 On ch=1 n=a5 v=0
159480 On ch=1 n=c#6 v=65
159485 On ch=1 n=c#6 v=0
159485 On ch=1 n=f#5 v=71
159485 On ch=1 n=b5 v=71
159540 On ch=1 n=f#5 v=0
159540 On ch=1 n=b5 v=0
159540 On ch=1 n=a5 v=65
159600 On ch=1 n=a5 v=0
159600 On ch=1 n=c#6 v=65
159605 On ch=1 n=c#6 v=0
159605 On ch=1 n=g5 v=71
159605 On ch=1 n=b5 v=71
159660 On ch=1 n=g5 v=0
159660 On ch=1 n=b5 v=0
159660 On ch=1 n=a5 v=65
159720 On ch=1 n=a5 v=0
159720 On ch=1 n=a5 v=65
159720 On ch=1 n=d6 v=65
159780 On ch=1 n=a5 v=0
159780 On ch=1 n=d6 v=0
159780 On ch=1 n=a5 v=65
159780 On ch=1 n=d6 v=65
159810 On ch=1 n=a5 v=0
159810 On ch=1 n=d6 v=0
159810 On ch=1 n=a5 v=65
159810 On ch=1 n=d6 v=65
159840 On ch=1 n=a5 v=0
159840 On ch=1 n=d6 v=0
159840 On ch=1 n=a5 v=70
159840 On ch=1 n=d6 v=70
159900 On ch=1 n=a5 v=0
159900 On ch=1 n=d6 v=0
159900 On ch=1 n=c#6 v=75
159900 On ch=1 n=e6 v=75
159960 On ch=1 n=c#6 v=0
159960 On ch=1 n=e6 v=0
159960 On ch=1 n=d6 v=80
159960 On ch=1 n=f#6 v=80
160020 On ch=1 n=d6 v=0
160020 On ch=1 n=f#6 v=0
160020 On ch=1 n=a6 v=85
160020 On ch=1 n=f#6 v=85
160080 On ch=1 n=a6 v=0
160080 On ch=1 n=f#6 v=0
160080 On ch=1 n=g6 v=90
160080 On ch=1 n=b6 v=90
160140 On ch=1 n=g6 v=0
160140 On ch=1 n=b6 v=0
160140 On ch=1 n=f#6 v=90
160140 On ch=1 n=a6 v=90
160170 On ch=1 n=f#6 v=0
160170 On ch=1 n=a6 v=0
160170 On ch=1 n=d6 v=90
160200 On ch=1 n=d6 v=0
160200 On ch=1 n=c#6 v=82
160200 On ch=1 n=e6 v=82
160260 On ch=1 n=c#6 v=0
160260 On ch=1 n=e6 v=0
160260 On ch=1 n=c#6 v=82
160260 On ch=1 n=e6 v=82
160290 On ch=1 n=c#6 v=0
160290 On ch=1 n=e6 v=0
160290 On ch=1 n=f#6 v=82
160290 On ch=1 n=d6 v=82
160320 On ch=1 n=f#6 v=0
160320 On ch=1 n=d6 v=0
160320 On ch=1 n=c#6 v=74
160320 On ch=1 n=e6 v=74
160440 On ch=1 n=c#6 v=0
160440 On ch=1 n=e6 v=0
160440 On ch=1 n=g5 v=65
160447 On ch=1 n=a6 v=65
160500 On ch=1 n=a6 v=0
160500 On ch=1 n=g#6 v=65
160530 On ch=1 n=g#6 v=0
160530 On ch=1 n=g6 v=65
160560 On ch=1 n=g6 v=0
160560 On ch=1 n=f#6 v=65
160620 On ch=1 n=g5 v=0
160620 On ch=1 n=f#6 v=0
160620 On ch=1 n=g5 v=65
160620 On ch=1 n=e6 v=65
160650 On ch=1 n=g5 v=0
160650 On ch=1 n=e6 v=0
160680 On ch=1 n=g5 v=65
160680 On ch=1 n=d6 v=65
160710 On ch=1 n=g5 v=0
160710 On ch=1 n=d6 v=0
160740 On ch=1 n=g5 v=65
160740 On ch=1 n=c#6 v=65
160770 On ch=1 n=g5 v=0
160770 On ch=1 n=c#6 v=0
160800 On ch=1 n=c#6 v=65
160805 On ch=1 n=c#6 v=0
160805 On ch=1 n=g5 v=71
160805 On ch=1 n=b5 v=71
160860 On ch=1 n=g5 v=0
160860 On ch=1 n=b5 v=0
160860 On ch=1 n=a5 v=65
160920 On ch=1 n=a5 v=0
160920 On ch=1 n=c#6 v=65
160925 On ch=1 n=c#6 v=0
160925 On ch=1 n=f#5 v=71
160925 On ch=1 n=b5 v=71
160980 On ch=1 n=f#5 v=0
160980 On ch=1 n=b5 v=0
160980 On ch=1 n=a5 v=65
161040 On ch=1 n=a5 v=0
161040 On ch=1 n=f5 v=71
161040 On ch=1 n=g#5 v=71
161100 On ch=1 n=f5 v=0
161100 On ch=1 n=g#5 v=0
161100 On ch=1 n=a5 v=65
161100 On ch=1 n=f#5 v=65
161160 On ch=1 n=a5 v=0
161160 On ch=1 n=f#5 v=0
161160 On ch=1 n=a6 v=90
161160 On ch=1 n=a5 v=90
161160 On ch=1 n=c#6 v=90
161190 On ch=1 n=a6 v=0
161190 On ch=1 n=g#6 v=65
161220 On ch=1 n=g#6 v=0
161220 On ch=1 n=f#6 v=65
161280 On ch=1 n=a5 v=0
161280 On ch=1 n=c#6 v=0
161280 On ch=1 n=f#6 v=0
161280 On ch=1 n=f5 v=65
161280 On ch=1 n=g#5 v=65
161340 On ch=1 n=f5 v=0
161340 On ch=1 n=g#5 v=0
161340 On ch=1 n=a5 v=65
161340 On ch=1 n=f#5 v=65
161400 On ch=1 n=a5 v=0
161400 On ch=1 n=f#5 v=0
161400 On ch=1 n=a6 v=90
161400 On ch=1 n=c#6 v=90
161400 On ch=1 n=a5 v=90
161430 On ch=1 n=a6 v=0
161430 On ch=1 n=g#6 v=65
161460 On ch=1 n=g#6 v=0
161460 On ch=1 n=f#6 v=65
161520 On ch=1 n=c#6 v=0
161520 On ch=1 n=a5 v=0
161520 On ch=1 n=f#6 v=0
161520 On ch=1 n=b5 v=102
161520 On ch=1 n=c#6 v=102
161520 On ch=1 n=f6 v=102
161580 On ch=1 n=b5 v=0
161580 On ch=1 n=c#6 v=0
161580 On ch=1 n=f6 v=0
161580 On ch=1 n=g#6 v=102
161580 On ch=1 n=c#6 v=102
161580 On ch=1 n=b5 v=102
161640 On ch=1 n=g#6 v=0
161640 On ch=1 n=c#6 v=0
161640 On ch=1 n=b5 v=0
161640 On ch=1 n=f#6 v=102
161640 On ch=1 n=c#6 v=102
161640 On ch=1 n=a5 v=102
161700 On ch=1 n=f#6 v=0
161700 On ch=1 n=c#6 v=0
161700 On ch=1 n=a5 v=0
161700 On ch=1 n=g#6 v=102
161700 On ch=1 n=b5 v=102
161700 On ch=1 n=c#6 v=102
161730 On ch=1 n=g#6 v=0
161730 On ch=1 n=a6 v=102
161760 On ch=1 n=b5 v=0
161760 On ch=1 n=c#6 v=0
161760 On ch=1 n=a6 v=0
161760 On ch=1 n=f#6 v=90
161760 On ch=1 n=c#6 v=90
161760 On ch=1 n=a5 v=90
161820 On ch=1 n=f#6 v=0
161820 On ch=1 n=c#6 v=0
161820 On ch=1 n=a5 v=0
161820 On ch=1 n=g#6 v=78
161820 On ch=1 n=b5 v=78
161820 On ch=1 n=c#6 v=78
161850 On ch=1 n=g#6 v=0
161850 On ch=1 n=a6 v=65
161880 On ch=1 n=b5 v=0
161880 On ch=1 n=c#6 v=0
161880 On ch=1 n=a6 v=0
161880 On ch=1 n=f#6 v=65
161880 On ch=1 n=a5 v=65
161880 On ch=1 n=c#6 v=65
161940 On ch=1 n=f#6 v=0
161940 On ch=1 n=a5 v=0
161940 On ch=1 n=c#6 v=0
162000 On ch=1 n=g5 v=65
162007 On ch=1 n=a6 v=65
162060 On ch=1 n=a6 v=0
162060 On ch=1 n=g#6 v=65
162090 On ch=1 n=g#6 v=0
162090 On ch=1 n=g6 v=65
162120 On ch=1 n=g6 v=0
162120 On ch=1 n=f#6 v=65
162180 On ch=1 n=g5 v=0
162180 On ch=1 n=f#6 v=0
162180 On ch=1 n=g5 v=65
162180 On ch=1 n=e6 v=65
162210 On ch=1 n=g5 v=0
162210 On ch=1 n=e6 v=0
162240 On ch=1 n=g5 v=65
162240 On ch=1 n=d6 v=65
162270 On ch=1 n=g5 v=0
162270 On ch=1 n=d6 v=0
162300 On ch=1 n=g5 v=65
162300 On ch=1 n=c#6 v=65
162330 On ch=1 n=g5 v=0
162330 On ch=1 n=c#6 v=0
162360 On ch=1 n=c#6 v=65
162365 On ch=1 n=c#6 v=0
162365 On ch=1 n=g5 v=71
162365 On ch=1 n=b5 v=71
162420 On ch=1 n=g5 v=0
162420 On ch=1 n=b5 v=0
162420 On ch=1 n=a5 v=65
162480 On ch=1 n=a5 v=0
162480 On ch=1 n=c#6 v=65
162485 On ch=1 n=c#6 v=0
162485 On ch=1 n=f#5 v=71
162485 On ch=1 n=b5 v=71
162540 On ch=1 n=f#5 v=0
162540 On ch=1 n=b5 v=0
162540 On ch=1 n=a5 v=65
162600 On ch=1 n=a5 v=0
162600 On ch=1 n=c#6 v=65
162605 On ch=1 n=c#6 v=0
162605 On ch=1 n=g5 v=71
162605 On ch=1 n=b5 v=71
162660 On ch=1 n=g5 v=0
162660 On ch=1 n=b5 v=0
162660 On ch=1 n=a5 v=65
162720 On ch=1 n=a5 v=0
162720 On ch=1 n=a5 v=65
162720 On ch=1 n=d6 v=65
162780 On ch=1 n=a5 v=0
162780 On ch=1 n=d6 v=0
162780 On ch=1 n=a5 v=65
162780 On ch=1 n=d6 v=65
162810 On ch=1 n=a5 v=0
162810 On ch=1 n=d6 v=0
162810 On ch=1 n=a5 v=65
162810 On ch=1 n=d6 v=65
162840 On ch=1 n=a5 v=0
162840 On ch=1 n=d6 v=0
162840 On ch=1 n=a5 v=70
162840 On ch=1 n=d6 v=70
162900 On ch=1 n=a5 v=0
162900 On ch=1 n=d6 v=0
162900 On ch=1 n=c#6 v=75
162900 On ch=1 n=e6 v=75
162960 On ch=1 n=c#6 v=0
162960 On ch=1 n=e6 v=0
162960 On ch=1 n=d6 v=80
162960 On ch=1 n=f#6 v=80
163020 On ch=1 n=d6 v=0
163020 On ch=1 n=f#6 v=0
163020 On ch=1 n=a6 v=85
163020 On ch=1 n=f#6 v=85
163080 On ch=1 n=a6 v=0
163080 On ch=1 n=f#6 v=0
163080 On ch=1 n=g6 v=90
163080 On ch=1 n=b6 v=90
163140 On ch=1 n=g6 v=0
163140 On ch=1 n=b6 v=0
163140 On ch=1 n=f#6 v=90
163140 On ch=1 n=a6 v=90
163170 On ch=1 n=f#6 v=0
163170 On ch=1 n=a6 v=0
163170 On ch=1 n=d6 v=90
163200 On ch=1 n=d6 v=0
163200 On ch=1 n=c#6 v=82
163200 On ch=1 n=e6 v=82
163260 On ch=1 n=c#6 v=0
163260 On ch=1 n=e6 v=0
163260 On ch=1 n=c#6 v=82
163260 On ch=1 n=e6 v=82
163290 On ch=1 n=c#6 v=0
163290 On ch=1 n=e6 v=0
163290 On ch=1 n=f#6 v=82
163290 On ch=1 n=d6 v=82
163320 On ch=1 n=f#6 v=0
163320 On ch=1 n=d6 v=0
163320 On ch=1 n=c#6 v=74
163320 On ch=1 n=e6 v=74
163440 On ch=1 n=c#6 v=0
163440 On ch=1 n=e6 v=0
163440 On ch=1 n=g5 v=65
163447 On ch=1 n=a6 v=65
163500 On ch=1 n=a6 v=0
163500 On ch=1 n=g#6 v=65
163530 On ch=1 n=g#6 v=0
163530 On ch=1 n=g6 v=65
163560 On ch=1 n=g6 v=0
163560 On ch=1 n=f#6 v=65
163620 On ch=1 n=g5 v=0
163620 On ch=1 n=f#6 v=0
163620 On ch=1 n=g5 v=65
163620 On ch=1 n=e6 v=65
163650 On ch=1 n=g5 v=0
163650 On ch=1 n=e6 v=0
163680 On ch=1 n=g5 v=65
163680 On ch=1 n=d6 v=65
163710 On ch=1 n=g5 v=0
163710 On ch=1 n=d6 v=0
163740 On ch=1 n=g5 v=65
163740 On ch=1 n=c#6 v=65
163770 On ch=1 n=g5 v=0
163770 On ch=1 n=c#6 v=0
163800 On ch=1 n=c#6 v=65
163805 On ch=1 n=c#6 v=0
163805 On ch=1 n=g5 v=71
163805 On ch=1 n=b5 v=71
163860 On ch=1 n=g5 v=0
163860 On ch=1 n=b5 v=0
163860 On ch=1 n=a5 v=65
163920 On ch=1 n=a5 v=0
163920 On ch=1 n=c#6 v=65
163925 On ch=1 n=c#6 v=0
163925 On ch=1 n=f#5 v=71
163925 On ch=1 n=b5 v=71
163980 On ch=1 n=f#5 v=0
163980 On ch=1 n=b5 v=0
163980 On ch=1 n=a5 v=65
164040 On ch=1 n=a5 v=0
164040 On ch=1 n=f5 v=71
164040 On ch=1 n=g#5 v=71
164100 On ch=1 n=f5 v=0
164100 On ch=1 n=g#5 v=0
164100 On ch=1 n=a5 v=65
164100 On ch=1 n=f#5 v=65
164160 On ch=1 n=a5 v=0
164160 On ch=1 n=f#5 v=0
164160 On ch=1 n=a6 v=90
164160 On ch=1 n=a5 v=90
164160 On ch=1 n=c#6 v=90
164190 On ch=1 n=a6 v=0
164190 On ch=1 n=g#6 v=65
164220 On ch=1 n=g#6 v=0
164220 On ch=1 n=f#6 v=65
164280 On ch=1 n=a5 v=0
164280 On ch=1 n=c#6 v=0
164280 On ch=1 n=f#6 v=0
164280 On ch=1 n=f5 v=65
164280 On ch=1 n=g#5 v=65
164340 On ch=1 n=f5 v=0
164340 On ch=1 n=g#5 v=0
164340 On ch=1 n=a5 v=65
164340 On ch=1 n=f#5 v=65
164400 On ch=1 n=a5 v=0
164400 On ch=1 n=f#5 v=0
164400 On ch=1 n=a6 v=90
164400 On ch=1 n=c#6 v=90
164400 On ch=1 n=a5 v=90
164430 On ch=1 n=a6 v=0
164430 On ch=1 n=g#6 v=65
164460 On ch=1 n=g#6 v=0
164460 On ch=1 n=f#6 v=65
164520 On ch=1 n=c#6 v=0
164520 On ch=1 n=a5 v=0
164520 On ch=1 n=f#6 v=0
164520 On ch=1 n=b5 v=102
164520 On ch=1 n=c#6 v=102
164520 On ch=1 n=f6 v=102
164580 On ch=1 n=b5 v=0
164580 On ch=1 n=c#6 v=0
164580 On ch=1 n=f6 v=0
164580 On ch=1 n=g#6 v=102
164580 On ch=1 n=c#6 v=102
164580 On ch=1 n=b5 v=102
164640 On ch=1 n=g#6 v=0
164640 On ch=1 n=c#6 v=0
164640 On ch=1 n=b5 v=0
164640 On ch=1 n=f#6 v=102
164640 On ch=1 n=c#6 v=102
164640 On ch=1 n=a5 v=102
164700 On ch=1 n=f#6 v=0
164700 On ch=1 n=c#6 v=0
164700 On ch=1 n=a5 v=0
164700 On ch=1 n=g#6 v=102
164700 On ch=1 n=b5 v=102
164700 On ch=1 n=c#6 v=102
164730 On ch=1 n=g#6 v=0
164730 On ch=1 n=a6 v=102
164760 On ch=1 n=b5 v=0
164760 On ch=1 n=c#6 v=0
164760 On ch=1 n=a6 v=0
164760 On ch=1 n=f#6 v=90
164760 On ch=1 n=c#6 v=90
164760 On ch=1 n=a5 v=90
164820 On ch=1 n=f#6 v=0
164820 On ch=1 n=c#6 v=0
164820 On ch=1 n=a5 v=0
164820 On ch=1 n=g#6 v=78
164820 On ch=1 n=b5 v=78
164820 On ch=1 n=c#6 v=78
164850 On ch=1 n=g#6 v=0
164850 On ch=1 n=a6 v=65
164880 On ch=1 n=b5 v=0
164880 On ch=1 n=c#6 v=0
164880 On ch=1 n=a6 v=0
164880 On ch=1 n=f#6 v=65
164880 On ch=1 n=a5 v=65
164880 On ch=1 n=c#6 v=65
164940 On ch=1 n=f#6 v=0
164940 On ch=1 n=a5 v=0
164940 On ch=1 n=c#6 v=0
165000 Par ch=1 c=64 v=127
165000 On ch=1 n=a#5 v=90
165030 On ch=1 n=a#5 v=0
165030 On ch=1 n=a5 v=90
165060 On ch=1 n=a5 v=0
165060 On ch=1 n=e5 v=90
165090 On ch=1 n=e5 v=0
165090 On ch=1 n=g5 v=90
165120 On ch=1 n=g5 v=0
165120 On ch=1 n=a#5 v=90
165150 On ch=1 n=a#5 v=0
165150 On ch=1 n=a5 v=90
165180 On ch=1 n=a5 v=0
165180 Par ch=1 c=64 v=0
165180 On ch=1 n=c#6 v=90
165210 On ch=1 n=c#6 v=0
165210 On ch=1 n=e6 v=90
165240 On ch=1 n=e6 v=0
165240 On ch=1 n=a5 v=96
165240 On ch=1 n=a6 v=96
165360 On ch=1 n=a5 v=0
165360 On ch=1 n=a6 v=0
165360 Par ch=1 c=64 v=127
165360 On ch=1 n=a#5 v=90
165390 On ch=1 n=a#5 v=0
165390 On ch=1 n=a5 v=90
165420 On ch=1 n=a5 v=0
165420 On ch=1 n=e5 v=90
165450 On ch=1 n=e5 v=0
165450 On ch=1 n=g5 v=90
165480 On ch=1 n=g5 v=0
165480 On ch=1 n=a#5 v=90
165510 On ch=1 n=a#5 v=0
165510 On ch=1 n=a5 v=90
165540 On ch=1 n=a5 v=0
165540 Par ch=1 c=64 v=0
165540 On ch=1 n=c#6 v=90
165570 On ch=1 n=c#6 v=0
165570 On ch=1 n=e6 v=90
165600 On ch=1 n=e6 v=0
165600 On ch=1 n=a5 v=96
165600 On ch=1 n=a6 v=96
165720 On ch=1 n=a5 v=0
165720 On ch=1 n=a6 v=0
165720 On ch=1 n=a6 v=90
165750 On ch=1 n=a6 v=0
165750 On ch=1 n=g#6 v=90
165780 On ch=1 n=g#6 v=0
165780 On ch=1 n=g#6 v=90
165810 On ch=1 n=g#6 v=0
165810 On ch=1 n=f6 v=90
165840 On ch=1 n=f6 v=0
165840 On ch=1 n=f6 v=90
165870 On ch=1 n=f6 v=0
165870 On ch=1 n=e6 v=90
165900 On ch=1 n=e6 v=0
165900 On ch=1 n=e6 v=90
165930 On ch=1 n=e6 v=0
165930 On ch=1 n=d6 v=90
165960 On ch=1 n=d6 v=0
165960 On ch=1 n=e6 v=96
165990 On ch=1 n=e6 v=0
165990 On ch=1 n=d6 v=90
166020 On ch=1 n=d6 v=0
166020 On ch=1 n=c#6 v=90
166050 On ch=1 n=c#6 v=0
166050 On ch=1 n=d6 v=90
166080 On ch=1 n=d6 v=0
166080 On ch=1 n=d#6 v=90
166110 On ch=1 n=d#6 v=0
166110 On ch=1 n=e6 v=90
166140 On ch=1 n=e6 v=0
166140 On ch=1 n=a5 v=90
166170 On ch=1 n=a5 v=0
166170 On ch=1 n=c#6 v=90
166200 On ch=1 n=c#6 v=0
166200 On ch=1 n=e5 v=86
166230 On ch=1 n=e5 v=0
166230 On ch=1 n=a5 v=82
166260 On ch=1 n=a5 v=0
166260 On ch=1 n=c#5 v=78
166290 On ch=1 n=c#5 v=0
166290 On ch=1 n=e5 v=74
166320 On ch=1 n=e5 v=0
166320 On ch=1 n=a4 v=70
166350 On ch=1 n=a4 v=0
166350 On ch=1 n=d#5 v=66
166380 On ch=1 n=d#5 v=0
166380 On ch=1 n=d5 v=62
166380 On ch=1 n=f#5 v=62
166410 On ch=1 n=d5 v=0
166410 On ch=1 n=f#5 v=0
166410 On ch=1 n=c5 v=58
166440 On ch=1 n=c5 v=0
166440 On ch=1 n=a#4 v=53
166440 On ch=1 n=g5 v=53
166500 On ch=1 n=a#4 v=0
166500 On ch=1 n=g5 v=0
166560 Par ch=1 c=86 v=8
166560 On ch=1 n=f#5 v=53
166565 On ch=1 n=f#5 v=0
166565 On ch=1 n=g5 v=59
166620 On ch=1 n=g5 v=0
166620 On ch=1 n=g4 v=53
166620 On ch=1 n=a#4 v=53
166680 On ch=1 n=g4 v=0
166680 On ch=1 n=a#4 v=0
166680 Par ch=1 c=86 v=8
166685 On ch=1 n=d5 v=59
166685 On ch=1 n=c#5 v=53
166700 On ch=1 n=c#5 v=0
166740 On ch=1 n=d5 v=0
166740 On ch=1 n=f#4 v=53
166740 On ch=1 n=a4 v=53
166800 On ch=1 n=f#4 v=0
166800 On ch=1 n=a4 v=0
166800 On ch=1 n=a#4 v=53
166800 On ch=1 n=g4 v=53
166860 On ch=1 n=a#4 v=0
166860 On ch=1 n=g4 v=0
166920 Par ch=1 c=86 v=8
166920 On ch=1 n=f#6 v=53
166925 On ch=1 n=f#6 v=0
166925 On ch=1 n=g6 v=59
166980 On ch=1 n=g6 v=0
166980 On ch=1 n=g5 v=53
166980 On ch=1 n=a#5 v=53
167040 On ch=1 n=g5 v=0
167040 On ch=1 n=a#5 v=0
167040 Par ch=1 c=86 v=8
167040 On ch=1 n=c#6 v=53
167045 On ch=1 n=c#6 v=0
167045 On ch=1 n=d6 v=59
167100 On ch=1 n=d6 v=0
167100 On ch=1 n=f#5 v=53
167100 On ch=1 n=a5 v=53
167160 On ch=1 n=f#5 v=0
167160 On ch=1 n=a5 v=0
167160 On ch=1 n=g5 v=53
167160 On ch=1 n=a#5 v=53
167220 On ch=1 n=g5 v=0
167220 On ch=1 n=a#5 v=0
167220 On ch=1 n=g6 v=53
167220 On ch=1 n=d6 v=53
167250 On ch=1 n=g6 v=0
167250 On ch=1 n=d6 v=0
167250 On ch=1 n=d6 v=53
167250 On ch=1 n=g6 v=53
167280 On ch=1 n=d6 v=0
167280 On ch=1 n=g6 v=0
167280 On ch=1 n=d6 v=58
167280 On ch=1 n=g6 v=58
167340 On ch=1 n=d6 v=0
167340 On ch=1 n=g6 v=0
167340 On ch=1 n=a6 v=63
167340 On ch=1 n=f#6 v=63
167400 On ch=1 n=a6 v=0
167400 On ch=1 n=f#6 v=0
167400 On ch=1 n=a#6 v=68
167400 On ch=1 n=g6 v=68
167460 On ch=1 n=a#6 v=0
167460 On ch=1 n=g6 v=0
167460 On ch=1 n=d7 v=73
167460 On ch=1 n=a#6 v=73
167520 On ch=1 n=d7 v=0
167520 On ch=1 n=a#6 v=0
167520 On ch=1 n=d#7 v=78
167520 On ch=1 n=c7 v=78
167580 On ch=1 n=d#7 v=0
167580 On ch=1 n=c7 v=0
167580 On ch=1 n=a#6 v=73
167580 On ch=1 n=d7 v=73
167610 On ch=1 n=a#6 v=0
167610 On ch=1 n=d7 v=0
167610 On ch=1 n=g6 v=73
167640 On ch=1 n=g6 v=0
167640 On ch=1 n=a6 v=68
167640 On ch=1 n=f#6 v=68
167700 On ch=1 n=a6 v=0
167700 On ch=1 n=f#6 v=0
167700 On ch=1 n=a6 v=63
167700 On ch=1 n=f#6 v=63
167730 On ch=1 n=a6 v=0
167730 On ch=1 n=f#6 v=0
167730 On ch=1 n=g6 v=63
167730 On ch=1 n=a#6 v=63
167760 On ch=1 n=g6 v=0
167760 On ch=1 n=a#6 v=0
167760 On ch=1 n=a6 v=58
167760 On ch=1 n=f#6 v=58
167880 On ch=1 n=a6 v=0
167880 On ch=1 n=f#6 v=0
167880 On ch=1 n=c#6 v=102
167880 On ch=1 n=e6 v=102
167940 On ch=1 n=c#6 v=0
167940 On ch=1 n=e6 v=0
167940 On ch=1 n=f6 v=102
167940 On ch=1 n=d6 v=102
168000 On ch=1 n=f6 v=0
168000 On ch=1 n=d6 v=0
168000 On ch=1 n=d7 v=102
168000 On ch=1 n=f6 v=102
168030 On ch=1 n=d7 v=0
168030 On ch=1 n=c7 v=102
168060 On ch=1 n=c7 v=0
168060 On ch=1 n=a#6 v=102
168120 On ch=1 n=f6 v=0
168120 On ch=1 n=a#6 v=0
168120 On ch=1 n=a6 v=102
168120 On ch=1 n=c7 v=102
168180 On ch=1 n=a6 v=0
168180 On ch=1 n=c7 v=0
168180 On ch=1 n=f7 v=102
168180 On ch=1 n=f6 v=102
168240 On ch=1 n=f7 v=0
168240 On ch=1 n=f6 v=0
168240 On ch=1 n=c#7 v=102
168240 On ch=1 n=e7 v=102
168300 On ch=1 n=c#7 v=0
168300 On ch=1 n=e7 v=0
168300 On ch=1 n=f7 v=102
168300 On ch=1 n=d7 v=102
168360 On ch=1 n=f7 v=0
168360 On ch=1 n=d7 v=0
168360 On ch=1 n=d8 v=102
168360 On ch=1 n=f7 v=102
168390 On ch=1 n=d8 v=0
168390 On ch=1 n=c8 v=102
168420 On ch=1 n=c8 v=0
168420 On ch=1 n=a#7 v=102
168480 On ch=1 n=f7 v=0
168480 On ch=1 n=a#7 v=0
168480 On ch=1 n=a7 v=102
168480 On ch=1 n=c8 v=102
168540 On ch=1 n=a7 v=0
168540 On ch=1 n=c8 v=0
168540 On ch=1 n=f8 v=102
168540 On ch=1 n=f7 v=102
168600 On ch=1 n=f8 v=0
168600 On ch=1 n=f7 v=0
168630 On ch=1 n=d#8 v=120
168630 On ch=1 n=d#7 v=120
168690 On ch=1 n=d#8 v=0
168690 On ch=1 n=d#7 v=0
168690 On ch=1 n=c7 v=120
168690 On ch=1 n=c8 v=120
168750 On ch=1 n=c7 v=0
168750 On ch=1 n=c8 v=0
168750 On ch=1 n=a7 v=120
168750 On ch=1 n=a6 v=120
168810 On ch=1 n=a7 v=0
168810 On ch=1 n=a6 v=0
168810 On ch=1 n=f6 v=120
168810 On ch=1 n=f7 v=120
168870 On ch=1 n=f6 v=0
168870 On ch=1 n=f7 v=0
168870 On ch=1 n=d#7 v=120
168870 On ch=1 n=d#6 v=120
168930 On ch=1 n=d#7 v=0
168930 On ch=1 n=d#6 v=0
168930 On ch=1 n=c6 v=120
168930 On ch=1 n=c7 v=120
168960 On ch=1 n=c6 v=0
168960 On ch=1 n=c7 v=0
168960 On ch=1 n=c#7 v=120
168960 On ch=1 n=c#6 v=120
168990 On ch=1 n=c#7 v=0
168990 On ch=1 n=c#6 v=0
168990 On ch=1 n=d6 v=120
168990 On ch=1 n=d7 v=120
169020 On ch=1 n=d6 v=0
169020 On ch=1 n=d7 v=0
169020 On ch=1 n=d#7 v=120
169020 On ch=1 n=d#6 v=120
169050 On ch=1 n=d#7 v=0
169050 On ch=1 n=d#6 v=0
169050 On ch=1 n=e6 v=120
169050 On ch=1 n=e7 v=120
169080 On ch=1 n=e6 v=0
169080 On ch=1 n=e7 v=0
169080 On ch=1 n=f#7 v=120
169080 On ch=1 n=f#6 v=120
169140 On ch=1 n=f#7 v=0
169140 On ch=1 n=f#6 v=0
169140 On ch=1 n=e6 v=120
169140 On ch=1 n=e7 v=120
169200 On ch=1 n=e6 v=0
169200 On ch=1 n=e7 v=0
169200 On ch=1 n=c#6 v=120
169200 On ch=1 n=a6 v=120
169260 On ch=1 n=c#6 v=0
169260 On ch=1 n=a6 v=0
169260 On ch=1 n=e6 v=120
169320 On ch=1 n=e6 v=0
169320 On ch=1 n=g5 v=90
169327 On ch=1 n=a6 v=90
169380 On ch=1 n=a6 v=0
169380 On ch=1 n=g#6 v=90
169410 On ch=1 n=g#6 v=0
169410 On ch=1 n=g6 v=90
169440 On ch=1 n=g6 v=0
169440 On ch=1 n=f#6 v=90
169500 On ch=1 n=g5 v=0
169500 On ch=1 n=f#6 v=0
169500 On ch=1 n=g5 v=90
169500 On ch=1 n=e6 v=90
169530 On ch=1 n=g5 v=0
169530 On ch=1 n=e6 v=0
169560 On ch=1 n=g5 v=90
169560 On ch=1 n=d6 v=90
169590 On ch=1 n=g5 v=0
169590 On ch=1 n=d6 v=0
169620 On ch=1 n=g5 v=90
169620 On ch=1 n=c#6 v=90
169650 On ch=1 n=g5 v=0
169650 On ch=1 n=c#6 v=0
169680 On ch=1 n=c#6 v=90
169685 On ch=1 n=c#6 v=0
169685 On ch=1 n=g5 v=98
169685 On ch=1 n=b5 v=98
169740 On ch=1 n=g5 v=0
169740 On ch=1 n=b5 v=0
169740 On ch=1 n=a5 v=90
169800 On ch=1 n=a5 v=0
169800 On ch=1 n=c#6 v=90
169805 On ch=1 n=c#6 v=0
169805 On ch=1 n=f#5 v=98
169805 On ch=1 n=b5 v=98
169860 On ch=1 n=f#5 v=0
169860 On ch=1 n=b5 v=0
169860 On ch=1 n=a5 v=90
169920 On ch=1 n=a5 v=0
169920 On ch=1 n=c#6 v=90
169925 On ch=1 n=c#6 v=0
169925 On ch=1 n=g5 v=98
169925 On ch=1 n=b5 v=98
169980 On ch=1 n=g5 v=0
169980 On ch=1 n=b5 v=0
169980 On ch=1 n=a5 v=90
170040 On ch=1 n=a5 v=0
170040 On ch=1 n=a5 v=90
170040 On ch=1 n=d6 v=90
170100 On ch=1 n=a5 v=0
170100 On ch=1 n=d6 v=0
170100 On ch=1 n=a5 v=90
170100 On ch=1 n=d6 v=90
170130 On ch=1 n=a5 v=0
170130 On ch=1 n=d6 v=0
170130 On ch=1 n=a5 v=90
170130 On ch=1 n=d6 v=90
170160 On ch=1 n=a5 v=0
170160 On ch=1 n=d6 v=0
170160 On ch=1 n=a5 v=97
170160 On ch=1 n=d6 v=97
170220 On ch=1 n=a5 v=0
170220 On ch=1 n=d6 v=0
170220 On ch=1 n=c#6 v=103
170220 On ch=1 n=e6 v=103
170280 On ch=1 n=c#6 v=0
170280 On ch=1 n=e6 v=0
170280 On ch=1 n=d6 v=110
170280 On ch=1 n=f#6 v=110
170340 On ch=1 n=d6 v=0
170340 On ch=1 n=f#6 v=0
170340 On ch=1 n=a6 v=117
170340 On ch=1 n=f#6 v=117
170400 On ch=1 n=a6 v=0
170400 On ch=1 n=f#6 v=0
170400 On ch=1 n=g6 v=124
170400 On ch=1 n=b6 v=124
170460 On ch=1 n=g6 v=0
170460 On ch=1 n=b6 v=0
170460 On ch=1 n=f#6 v=124
170460 On ch=1 n=a6 v=124
170490 On ch=1 n=f#6 v=0
170490 On ch=1 n=a6 v=0
170490 On ch=1 n=d6 v=124
170520 On ch=1 n=d6 v=0
170520 On ch=1 n=c#6 v=113
170520 On ch=1 n=e6 v=113
170580 On ch=1 n=c#6 v=0
170580 On ch=1 n=e6 v=0
170580 On ch=1 n=c#6 v=113
170580 On ch=1 n=e6 v=113
170610 On ch=1 n=c#6 v=0
170610 On ch=1 n=e6 v=0
170610 On ch=1 n=f#6 v=113
170610 On ch=1 n=d6 v=113
170640 On ch=1 n=f#6 v=0
170640 On ch=1 n=d6 v=0
170640 On ch=1 n=c#6 v=102
170640 On ch=1 n=e6 v=102
170760 On ch=1 n=c#6 v=0
170760 On ch=1 n=e6 v=0
170760 On ch=1 n=g5 v=90
170767 On ch=1 n=a6 v=90
170820 On ch=1 n=a6 v=0
170820 On ch=1 n=g#6 v=90
170850 On ch=1 n=g#6 v=0
170850 On ch=1 n=g6 v=90
170880 On ch=1 n=g6 v=0
170880 On ch=1 n=f#6 v=90
170940 On ch=1 n=g5 v=0
170940 On ch=1 n=f#6 v=0
170940 On ch=1 n=g5 v=90
170940 On ch=1 n=e6 v=90
170970 On ch=1 n=g5 v=0
170970 On ch=1 n=e6 v=0
171000 On ch=1 n=g5 v=90
171000 On ch=1 n=d6 v=90
171030 On ch=1 n=g5 v=0
171030 On ch=1 n=d6 v=0
171060 On ch=1 n=g5 v=90
171060 On ch=1 n=c#6 v=90
171090 On ch=1 n=g5 v=0
171090 On ch=1 n=c#6 v=0
171120 On ch=1 n=c#6 v=90
171125 On ch=1 n=c#6 v=0
171125 On ch=1 n=g5 v=98
171125 On ch=1 n=b5 v=98
171180 On ch=1 n=g5 v=0
171180 On ch=1 n=b5 v=0
171180 On ch=1 n=a5 v=90
171240 On ch=1 n=a5 v=0
171240 On ch=1 n=c#6 v=90
171245 On ch=1 n=c#6 v=0
171245 On ch=1 n=f#5 v=98
171245 On ch=1 n=b5 v=98
171300 On ch=1 n=f#5 v=0
171300 On ch=1 n=b5 v=0
171300 On ch=1 n=a5 v=90
171360 On ch=1 n=a5 v=0
171360 Par ch=1 c=86 v=8
171360 On ch=1 n=b6 v=53
171365 On ch=1 n=b6 v=0
171365 On ch=1 n=c6 v=53
171365 On ch=1 n=a6 v=53
171390 On ch=1 n=c6 v=0
171390 On ch=1 n=a6 v=0
171420 On ch=1 n=b6 v=53
171425 On ch=1 n=b6 v=0
171425 On ch=1 n=c6 v=53
171425 On ch=1 n=a6 v=53
171450 On ch=1 n=c6 v=0
171450 On ch=1 n=a6 v=0
171480 On ch=1 n=a6 v=53
171485 On ch=1 n=a6 v=0
171485 On ch=1 n=b5 v=53
171485 On ch=1 n=g6 v=53
171510 On ch=1 n=b5 v=0
171510 On ch=1 n=g6 v=0
171540 On ch=1 n=a6 v=56
171545 On ch=1 n=a6 v=0
171545 On ch=1 n=b5 v=56
171545 On ch=1 n=g6 v=56
171570 On ch=1 n=b5 v=0
171570 On ch=1 n=g6 v=0
171600 On ch=1 n=g6 v=59
171605 On ch=1 n=g6 v=0
171605 On ch=1 n=b5 v=59
171605 On ch=1 n=f#6 v=59
171630 On ch=1 n=b5 v=0
171630 On ch=1 n=f#6 v=0
171660 On ch=1 n=g6 v=62
171665 On ch=1 n=g6 v=0
171665 On ch=1 n=b5 v=62
171665 On ch=1 n=f#6 v=62
171690 On ch=1 n=b5 v=0
171690 On ch=1 n=f#6 v=0
171720 On ch=1 n=f#6 v=63
171725 On ch=1 n=f#6 v=0
171725 On ch=1 n=b5 v=63
171725 On ch=1 n=e6 v=63
171750 On ch=1 n=b5 v=0
171750 On ch=1 n=e6 v=0
171780 On ch=1 n=f#6 v=65
171785 On ch=1 n=f#6 v=0
171785 On ch=1 n=b5 v=65
171785 On ch=1 n=e6 v=65
171810 On ch=1 n=b5 v=0
171810 On ch=1 n=e6 v=0
171930 On ch=1 n=b6 v=65
171960 On ch=1 n=b6 v=0
171960 On ch=1 n=g5 v=59
171960 On ch=1 n=c#6 v=59
172080 On ch=1 n=g5 v=0
172080 On ch=1 n=c#6 v=0
172080 On ch=1 n=f#5 v=53
172080 On ch=1 n=d6 v=53
172140 On ch=1 n=f#5 v=0
172140 On ch=1 n=d6 v=0
172200 Par ch=1 c=64 v=127
172200 On ch=1 n=a#5 v=90
172230 On ch=1 n=a#5 v=0
172230 On ch=1 n=a5 v=90
172260 On ch=1 n=a5 v=0
172260 On ch=1 n=e5 v=90
172290 On ch=1 n=e5 v=0
172290 On ch=1 n=g5 v=90
172320 On ch=1 n=g5 v=0
172320 On ch=1 n=a#5 v=90
172350 On ch=1 n=a#5 v=0
172350 On ch=1 n=a5 v=90
172380 On ch=1 n=a5 v=0
172380 Par ch=1 c=64 v=0
172380 On ch=1 n=c#6 v=90
172410 On ch=1 n=c#6 v=0
172410 On ch=1 n=e6 v=90
172440 On ch=1 n=e6 v=0
172440 On ch=1 n=a5 v=96
172440 On ch=1 n=a6 v=96
172560 On ch=1 n=a5 v=0
172560 On ch=1 n=a6 v=0
172560 Par ch=1 c=64 v=127
172560 On ch=1 n=a#5 v=90
172590 On ch=1 n=a#5 v=0
172590 On ch=1 n=a5 v=90
172620 On ch=1 n=a5 v=0
172620 On ch=1 n=e5 v=90
172650 On ch=1 n=e5 v=0
172650 On ch=1 n=g5 v=90
172680 On ch=1 n=g5 v=0
172680 On ch=1 n=a#5 v=90
172710 On ch=1 n=a#5 v=0
172710 On ch=1 n=a5 v=90
172740 On ch=1 n=a5 v=0
172740 Par ch=1 c=64 v=0
172740 On ch=1 n=c#6 v=90
172770 On ch=1 n=c#6 v=0
172770 On ch=1 n=e6 v=90
172800 On ch=1 n=e6 v=0
172800 On ch=1 n=a5 v=96
172800 On ch=1 n=a6 v=96
172920 On ch=1 n=a5 v=0
172920 On ch=1 n=a6 v=0
172920 On ch=1 n=a6 v=90
172950 On ch=1 n=a6 v=0
172950 On ch=1 n=g#6 v=90
172980 On ch=1 n=g#6 v=0
172980 On ch=1 n=g#6 v=90
173010 On ch=1 n=g#6 v=0
173010 On ch=1 n=f6 v=90
173040 On ch=1 n=f6 v=0
173040 On ch=1 n=f6 v=90
173070 On ch=1 n=f6 v=0
173070 On ch=1 n=e6 v=90
173100 On ch=1 n=e6 v=0
173100 On ch=1 n=e6 v=90
173130 On ch=1 n=e6 v=0
173130 On ch=1 n=d6 v=90
173160 On ch=1 n=d6 v=0
173160 On ch=1 n=e6 v=96
173190 On ch=1 n=e6 v=0
173190 On ch=1 n=d6 v=90
173220 On ch=1 n=d6 v=0
173220 On ch=1 n=c#6 v=90
173250 On ch=1 n=c#6 v=0
173250 On ch=1 n=d6 v=90
173280 On ch=1 n=d6 v=0
173280 On ch=1 n=d#6 v=90
173310 On ch=1 n=d#6 v=0
173310 On ch=1 n=e6 v=90
173340 On ch=1 n=e6 v=0
173340 On ch=1 n=a5 v=90
173370 On ch=1 n=a5 v=0
173370 On ch=1 n=c#6 v=90
173400 On ch=1 n=c#6 v=0
173400 On ch=1 n=e5 v=86
173430 On ch=1 n=e5 v=0
173430 On ch=1 n=a5 v=82
173460 On ch=1 n=a5 v=0
173460 On ch=1 n=c#5 v=78
173490 On ch=1 n=c#5 v=0
173490 On ch=1 n=e5 v=74
173520 On ch=1 n=e5 v=0
173520 On ch=1 n=a4 v=70
173550 On ch=1 n=a4 v=0
173550 On ch=1 n=d#5 v=66
173580 On ch=1 n=d#5 v=0
173580 On ch=1 n=d5 v=62
173580 On ch=1 n=f#5 v=62
173610 On ch=1 n=d5 v=0
173610 On ch=1 n=f#5 v=0
173610 On ch=1 n=c5 v=58
173640 On ch=1 n=c5 v=0
173640 On ch=1 n=a#4 v=53
173640 On ch=1 n=g5 v=53
173700 On ch=1 n=a#4 v=0
173700 On ch=1 n=g5 v=0
173760 Par ch=1 c=86 v=8
173760 On ch=1 n=f#5 v=53
173765 On ch=1 n=f#5 v=0
173765 On ch=1 n=g5 v=59
173820 On ch=1 n=g5 v=0
173820 On ch=1 n=g4 v=53
173820 On ch=1 n=a#4 v=53
173880 On ch=1 n=g4 v=0
173880 On ch=1 n=a#4 v=0
173880 Par ch=1 c=86 v=8
173885 On ch=1 n=d5 v=59
173885 On ch=1 n=c#5 v=53
173900 On ch=1 n=c#5 v=0
173940 On ch=1 n=d5 v=0
173940 On ch=1 n=f#4 v=53
173940 On ch=1 n=a4 v=53
174000 On ch=1 n=f#4 v=0
174000 On ch=1 n=a4 v=0
174000 On ch=1 n=a#4 v=53
174000 On ch=1 n=g4 v=53
174060 On ch=1 n=a#4 v=0
174060 On ch=1 n=g4 v=0
174120 Par ch=1 c=86 v=8
174120 On ch=1 n=f#6 v=53
174125 On ch=1 n=f#6 v=0
174125 On ch=1 n=g6 v=59
174180 On ch=1 n=g6 v=0
174180 On ch=1 n=g5 v=53
174180 On ch=1 n=a#5 v=53
174240 On ch=1 n=g5 v=0
174240 On ch=1 n=a#5 v=0
174240 Par ch=1 c=86 v=8
174240 On ch=1 n=c#6 v=53
174245 On ch=1 n=c#6 v=0
174245 On ch=1 n=d6 v=59
174300 On ch=1 n=d6 v=0
174300 On ch=1 n=f#5 v=53
174300 On ch=1 n=a5 v=53
174360 On ch=1 n=f#5 v=0
174360 On ch=1 n=a5 v=0
174360 On ch=1 n=g5 v=53
174360 On ch=1 n=a#5 v=53
174420 On ch=1 n=g5 v=0
174420 On ch=1 n=a#5 v=0
174420 On ch=1 n=g6 v=53
174420 On ch=1 n=d6 v=53
174450 On ch=1 n=g6 v=0
174450 On ch=1 n=d6 v=0
174450 On ch=1 n=d6 v=53
174450 On ch=1 n=g6 v=53
174480 On ch=1 n=d6 v=0
174480 On ch=1 n=g6 v=0
174480 On ch=1 n=d6 v=58
174480 On ch=1 n=g6 v=58
174540 On ch=1 n=d6 v=0
174540 On ch=1 n=g6 v=0
174540 On ch=1 n=a6 v=63
174540 On ch=1 n=f#6 v=63
174600 On ch=1 n=a6 v=0
174600 On ch=1 n=f#6 v=0
174600 On ch=1 n=a#6 v=68
174600 On ch=1 n=g6 v=68
174660 On ch=1 n=a#6 v=0
174660 On ch=1 n=g6 v=0
174660 On ch=1 n=d7 v=73
174660 On ch=1 n=a#6 v=73
174720 On ch=1 n=d7 v=0
174720 On ch=1 n=a#6 v=0
174720 On ch=1 n=d#7 v=78
174720 On ch=1 n=c7 v=78
174780 On ch=1 n=d#7 v=0
174780 On ch=1 n=c7 v=0
174780 On ch=1 n=a#6 v=73
174780 On ch=1 n=d7 v=73
174810 On ch=1 n=a#6 v=0
174810 On ch=1 n=d7 v=0
174810 On ch=1 n=g6 v=73
174840 On ch=1 n=g6 v=0
174840 On ch=1 n=a6 v=68
174840 On ch=1 n=f#6 v=68
174900 On ch=1 n=a6 v=0
174900 On ch=1 n=f#6 v=0
174900 On ch=1 n=a6 v=63
174900 On ch=1 n=f#6 v=63
174930 On ch=1 n=a6 v=0
174930 On ch=1 n=f#6 v=0
174930 On ch=1 n=g6 v=63
174930 On ch=1 n=a#6 v=63
174960 On ch=1 n=g6 v=0
174960 On ch=1 n=a#6 v=0
174960 On ch=1 n=a6 v=58
174960 On ch=1 n=f#6 v=58
175080 On ch=1 n=a6 v=0
175080 On ch=1 n=f#6 v=0
175080 On ch=1 n=c#6 v=102
175080 On ch=1 n=e6 v=102
175140 On ch=1 n=c#6 v=0
175140 On ch=1 n=e6 v=0
175140 On ch=1 n=f6 v=102
175140 On ch=1 n=d6 v=102
175200 On ch=1 n=f6 v=0
175200 On ch=1 n=d6 v=0
175200 On ch=1 n=d7 v=102
175200 On ch=1 n=f6 v=102
175230 On ch=1 n=d7 v=0
175230 On ch=1 n=c7 v=102
175260 On ch=1 n=c7 v=0
175260 On ch=1 n=a#6 v=102
175320 On ch=1 n=f6 v=0
175320 On ch=1 n=a#6 v=0
175320 On ch=1 n=a6 v=102
175320 On ch=1 n=c7 v=102
175380 On ch=1 n=a6 v=0
175380 On ch=1 n=c7 v=0
175380 On ch=1 n=f7 v=102
175380 On ch=1 n=f6 v=102
175440 On ch=1 n=f7 v=0
175440 On ch=1 n=f6 v=0
175440 On ch=1 n=c#7 v=102
175440 On ch=1 n=e7 v=102
175500 On ch=1 n=c#7 v=0
175500 On ch=1 n=e7 v=0
175500 On ch=1 n=f7 v=102
175500 On ch=1 n=d7 v=102
175560 On ch=1 n=f7 v=0
175560 On ch=1 n=d7 v=0
175560 On ch=1 n=d8 v=102
175560 On ch=1 n=f7 v=102
175590 On ch=1 n=d8 v=0
175590 On ch=1 n=c8 v=102
175620 On ch=1 n=c8 v=0
175620 On ch=1 n=a#7 v=102
175680 On ch=1 n=f7 v=0
175680 On ch=1 n=a#7 v=0
175680 On ch=1 n=a7 v=102
175680 On ch=1 n=c8 v=102
175740 On ch=1 n=a7 v=0
175740 On ch=1 n=c8 v=0
175740 On ch=1 n=f8 v=102
175740 On ch=1 n=f7 v=102
175800 On ch=1 n=f8 v=0
175800 On ch=1 n=f7 v=0
175830 On ch=1 n=d#8 v=120
175830 On ch=1 n=d#7 v=120
175890 On ch=1 n=d#8 v=0
175890 On ch=1 n=d#7 v=0
175890 On ch=1 n=c7 v=120
175890 On ch=1 n=c8 v=120
175950 On ch=1 n=c7 v=0
175950 On ch=1 n=c8 v=0
175950 On ch=1 n=a7 v=120
175950 On ch=1 n=a6 v=120
176010 On ch=1 n=a7 v=0
176010 On ch=1 n=a6 v=0
176010 On ch=1 n=f6 v=120
176010 On ch=1 n=f7 v=120
176070 On ch=1 n=f6 v=0
176070 On ch=1 n=f7 v=0
176070 On ch=1 n=d#7 v=120
176070 On ch=1 n=d#6 v=120
176130 On ch=1 n=d#7 v=0
176130 On ch=1 n=d#6 v=0
176130 On ch=1 n=c6 v=120
176130 On ch=1 n=c7 v=120
176160 On ch=1 n=c6 v=0
176160 On ch=1 n=c7 v=0
176160 On ch=1 n=c#7 v=120
176160 On ch=1 n=c#6 v=120
176190 On ch=1 n=c#7 v=0
176190 On ch=1 n=c#6 v=0
176190 On ch=1 n=d6 v=120
176190 On ch=1 n=d7 v=120
176220 On ch=1 n=d6 v=0
176220 On ch=1 n=d7 v=0
176220 On ch=1 n=d#7 v=120
176220 On ch=1 n=d#6 v=120
176250 On ch=1 n=d#7 v=0
176250 On ch=1 n=d#6 v=0
176250 On ch=1 n=e6 v=120
176250 On ch=1 n=e7 v=120
176280 On ch=1 n=e6 v=0
176280 On ch=1 n=e7 v=0
176280 On ch=1 n=f#7 v=120
176280 On ch=1 n=f#6 v=120
176340 On ch=1 n=f#7 v=0
176340 On ch=1 n=f#6 v=0
176340 On ch=1 n=e6 v=120
176340 On ch=1 n=e7 v=120
176400 On ch=1 n=e6 v=0
176400 On ch=1 n=e7 v=0
176400 On ch=1 n=c#6 v=120
176400 On ch=1 n=a6 v=120
176460 On ch=1 n=c#6 v=0
176460 On ch=1 n=a6 v=0
176460 On ch=1 n=e6 v=120
176520 On ch=1 n=e6 v=0
176520 On ch=1 n=g5 v=90
176527 On ch=1 n=a6 v=90
176580 On ch=1 n=a6 v=0
176580 On ch=1 n=g#6 v=90
176610 On ch=1 n=g#6 v=0
176610 On ch=1 n=g6 v=90
176640 On ch=1 n=g6 v=0
176640 On ch=1 n=f#6 v=90
176700 On ch=1 n=g5 v=0
176700 On ch=1 n=f#6 v=0
176700 On ch=1 n=g5 v=90
176700 On ch=1 n=e6 v=90
176730 On ch=1 n=g5 v=0
176730 On ch=1 n=e6 v=0
176760 On ch=1 n=g5 v=90
176760 On ch=1 n=d6 v=90
176790 On ch=1 n=g5 v=0
176790 On ch=1 n=d6 v=0
176820 On ch=1 n=g5 v=90
176820 On ch=1 n=c#6 v=90
176850 On ch=1 n=g5 v=0
176850 On ch=1 n=c#6 v=0
176880 On ch=1 n=c#6 v=90
176885 On ch=1 n=c#6 v=0
176885 On ch=1 n=g5 v=98
176885 On ch=1 n=b5 v=98
176940 On ch=1 n=g5 v=0
176940 On ch=1 n=b5 v=0
176940 On ch=1 n=a5 v=90
177000 On ch=1 n=a5 v=0
177000 On ch=1 n=c#6 v=90
177005 On ch=1 n=c#6 v=0
177005 On ch=1 n=f#5 v=98
177005 On ch=1 n=b5 v=98
177060 On ch=1 n=f#5 v=0
177060 On ch=1 n=b5 v=0
177060 On ch=1 n=a5 v=90
177120 On ch=1 n=a5 v=0
177120 On ch=1 n=c#6 v=90
177125 On ch=1 n=c#6 v=0
177125 On ch=1 n=g5 v=98
177125 On ch=1 n=b5 v=98
177180 On ch=1 n=g5 v=0
177180 On ch=1 n=b5 v=0
177180 On ch=1 n=a5 v=90
177240 On ch=1 n=a5 v=0
177240 On ch=1 n=a5 v=90
177240 On ch=1 n=d6 v=90
177300 On ch=1 n=a5 v=0
177300 On ch=1 n=d6 v=0
177300 On ch=1 n=a5 v=90
177300 On ch=1 n=d6 v=90
177330 On ch=1 n=a5 v=0
177330 On ch=1 n=d6 v=0
177330 On ch=1 n=a5 v=90
177330 On ch=1 n=d6 v=90
177360 On ch=1 n=a5 v=0
177360 On ch=1 n=d6 v=0
177360 On ch=1 n=a5 v=97
177360 On ch=1 n=d6 v=97
177420 On ch=1 n=a5 v=0
177420 On ch=1 n=d6 v=0
177420 On ch=1 n=c#6 v=103
177420 On ch=1 n=e6 v=103
177480 On ch=1 n=c#6 v=0
177480 On ch=1 n=e6 v=0
177480 On ch=1 n=d6 v=110
177480 On ch=1 n=f#6 v=110
177540 On ch=1 n=d6 v=0
177540 On ch=1 n=f#6 v=0
177540 On ch=1 n=a6 v=117
177540 On ch=1 n=f#6 v=117
177600 On ch=1 n=a6 v=0
177600 On ch=1 n=f#6 v=0
177600 On ch=1 n=g6 v=124
177600 On ch=1 n=b6 v=124
177660 On ch=1 n=g6 v=0
177660 On ch=1 n=b6 v=0
177660 On ch=1 n=f#6 v=124
177660 On ch=1 n=a6 v=124
177690 On ch=1 n=f#6 v=0
177690 On ch=1 n=a6 v=0
177690 On ch=1 n=d6 v=124
177720 On ch=1 n=d6 v=0
177720 On ch=1 n=c#6 v=113
177720 On ch=1 n=e6 v=113
177780 On ch=1 n=c#6 v=0
177780 On ch=1 n=e6 v=0
177780 On ch=1 n=c#6 v=113
177780 On ch=1 n=e6 v=113
177810 On ch=1 n=c#6 v=0
177810 On ch=1 n=e6 v=0
177810 On ch=1 n=f#6 v=113
177810 On ch=1 n=d6 v=113
177840 On ch=1 n=f#6 v=0
177840 On ch=1 n=d6 v=0
177840 On ch=1 n=c#6 v=102
177840 On ch=1 n=e6 v=102
177960 On ch=1 n=c#6 v=0
177960 On ch=1 n=e6 v=0
177960 On ch=1 n=g5 v=90
177967 On ch=1 n=a6 v=90
178020 On ch=1 n=a6 v=0
178020 On ch=1 n=g#6 v=90
178050 On ch=1 n=g#6 v=0
178050 On ch=1 n=g6 v=90
178080 On ch=1 n=g6 v=0
178080 On ch=1 n=f#6 v=90
178140 On ch=1 n=g5 v=0
178140 On ch=1 n=f#6 v=0
178140 On ch=1 n=g5 v=90
178140 On ch=1 n=e6 v=90
178170 On ch=1 n=g5 v=0
178170 On ch=1 n=e6 v=0
178200 On ch=1 n=g5 v=90
178200 On ch=1 n=d6 v=90
178230 On ch=1 n=g5 v=0
178230 On ch=1 n=d6 v=0
178260 On ch=1 n=g5 v=90
178260 On ch=1 n=c#6 v=90
178290 On ch=1 n=g5 v=0
178290 On ch=1 n=c#6 v=0
178320 On ch=1 n=c#6 v=90
178325 On ch=1 n=c#6 v=0
178325 On ch=1 n=g5 v=98
178325 On ch=1 n=b5 v=98
178380 On ch=1 n=g5 v=0
178380 On ch=1 n=b5 v=0
178380 On ch=1 n=a5 v=90
178440 On ch=1 n=a5 v=0
178440 On ch=1 n=c#6 v=90
178445 On ch=1 n=c#6 v=0
178445 On ch=1 n=f#5 v=98
178445 On ch=1 n=b5 v=98
178500 On ch=1 n=f#5 v=0
178500 On ch=1 n=b5 v=0
178500 On ch=1 n=a5 v=90
178530 On ch=1 n=a5 v=0
178560 Par ch=1 c=86 v=8
178560 On ch=1 n=b6 v=53
178565 On ch=1 n=b6 v=0
178565 On ch=1 n=c6 v=53
178565 On ch=1 n=a6 v=53
178590 On ch=1 n=c6 v=0
178590 On ch=1 n=a6 v=0
178620 On ch=1 n=b6 v=53
178625 On ch=1 n=b6 v=0
178625 On ch=1 n=c6 v=53
178625 On ch=1 n=a6 v=53
178650 On ch=1 n=c6 v=0
178650 On ch=1 n=a6 v=0
178680 On ch=1 n=a6 v=53
178685 On ch=1 n=a6 v=0
178685 On ch=1 n=b5 v=53
178685 On ch=1 n=g6 v=53
178710 On ch=1 n=b5 v=0
178710 On ch=1 n=g6 v=0
178740 On ch=1 n=a6 v=56
178745 On ch=1 n=a6 v=0
178745 On ch=1 n=b5 v=56
178745 On ch=1 n=g6 v=56
178770 On ch=1 n=b5 v=0
178770 On ch=1 n=g6 v=0
178800 On ch=1 n=g6 v=59
178805 On ch=1 n=g6 v=0
178805 On ch=1 n=b5 v=59
178805 On ch=1 n=f#6 v=59
178830 On ch=1 n=b5 v=0
178830 On ch=1 n=f#6 v=0
178860 On ch=1 n=g6 v=62
178865 On ch=1 n=g6 v=0
178865 On ch=1 n=b5 v=62
178865 On ch=1 n=f#6 v=62
178890 On ch=1 n=b5 v=0
178890 On ch=1 n=f#6 v=0
178920 On ch=1 n=f#6 v=63
178925 On ch=1 n=f#6 v=0
178925 On ch=1 n=b5 v=63
178925 On ch=1 n=e6 v=63
178950 On ch=1 n=b5 v=0
178950 On ch=1 n=e6 v=0
178980 On ch=1 n=f#6 v=65
178985 On ch=1 n=f#6 v=0
178985 On ch=1 n=b5 v=65
178985 On ch=1 n=e6 v=65
179010 On ch=1 n=b5 v=0
179010 On ch=1 n=e6 v=0
179130 On ch=1 n=b6 v=65
179160 On ch=1 n=b6 v=0
179160 On ch=1 n=g5 v=59
179160 On ch=1 n=c#6 v=59
179280 On ch=1 n=g5 v=0
179280 On ch=1 n=c#6 v=0
179280 On ch=1 n=f#5 v=53
179280 On ch=1 n=d6 v=53
179340 On ch=1 n=f#5 v=0
179340 On ch=1 n=d6 v=0
179400 Par ch=1 c=64 v=127
179400 On ch=1 n=b7 v=65
179460 On ch=1 n=b6 v=71
179520 On ch=1 n=b7 v=0
179520 On ch=1 n=g7 v=65
179580 On ch=1 n=b6 v=0
179580 On ch=1 n=g6 v=71
179640 On ch=1 n=g7 v=0
179640 On ch=1 n=e7 v=65
179700 On ch=1 n=g6 v=0
179700 On ch=1 n=e6 v=71
179760 On ch=1 n=e7 v=0
179760 On ch=1 n=d7 v=65
179820 On ch=1 n=e6 v=0
179820 On ch=1 n=d6 v=71
179880 On ch=1 n=d7 v=0
179880 On ch=1 n=c7 v=65
179940 On ch=1 n=d6 v=0
179940 On ch=1 n=c6 v=71
180000 On ch=1 n=c7 v=0
180000 On ch=1 n=b6 v=65
180060 On ch=1 n=c6 v=0
180060 On ch=1 n=b5 v=65
180120 On ch=1 n=b6 v=0
180120 On ch=1 n=b6 v=65
180180 On ch=1 n=b5 v=0
180180 On ch=1 n=b5 v=65
180240 On ch=1 n=b6 v=0
180240 On ch=1 n=a6 v=65
180300 On ch=1 n=b5 v=0
180300 On ch=1 n=a5 v=65
180360 On ch=1 n=a6 v=0
180360 On ch=1 n=e7 v=65
180420 On ch=1 n=a5 v=0
180420 On ch=1 n=e6 v=65
180480 On ch=1 n=e7 v=0
180480 On ch=1 n=d7 v=65
180540 On ch=1 n=e6 v=0
180540 On ch=1 n=d6 v=65
180600 On ch=1 n=d7 v=0
180600 On ch=1 n=b6 v=65
180660 On ch=1 n=d6 v=0
180660 On ch=1 n=b5 v=65
180720 On ch=1 n=b6 v=0
180720 On ch=1 n=a6 v=65
180780 On ch=1 n=b5 v=0
180780 On ch=1 n=a5 v=65
180825 Par ch=1 c=64 v=0
180840 On ch=1 n=a6 v=0
180840 Par ch=1 c=64 v=127
180840 On ch=1 n=b7 v=65
180900 On ch=1 n=a5 v=0
180900 On ch=1 n=b6 v=71
180960 On ch=1 n=b7 v=0
180960 On ch=1 n=g7 v=65
181020 On ch=1 n=b6 v=0
181020 On ch=1 n=g6 v=71
181080 On ch=1 n=g7 v=0
181080 On ch=1 n=e7 v=65
181140 On ch=1 n=g6 v=0
181140 On ch=1 n=e6 v=71
181200 On ch=1 n=e7 v=0
181200 On ch=1 n=d7 v=65
181260 On ch=1 n=e6 v=0
181260 On ch=1 n=d6 v=71
181320 On ch=1 n=d7 v=0
181320 On ch=1 n=c7 v=65
181380 On ch=1 n=d6 v=0
181380 On ch=1 n=c6 v=71
181440 On ch=1 n=c7 v=0
181440 On ch=1 n=b6 v=65
181500 On ch=1 n=c6 v=0
181500 On ch=1 n=b5 v=65
181560 On ch=1 n=b6 v=0
181560 On ch=1 n=a6 v=65
181620 On ch=1 n=b5 v=0
181620 On ch=1 n=a5 v=65
181680 On ch=1 n=a6 v=0
181680 On ch=1 n=e7 v=65
181740 On ch=1 n=a5 v=0
181740 On ch=1 n=e6 v=65
181800 On ch=1 n=e7 v=0
181800 On ch=1 n=f#6 v=65
181860 On ch=1 n=e6 v=0
181860 On ch=1 n=f#5 v=65
181920 On ch=1 n=f#6 v=0
181920 On ch=1 n=g6 v=65
181980 On ch=1 n=f#5 v=0
181980 On ch=1 n=g5 v=65
182040 On ch=1 n=g6 v=0
182040 On ch=1 n=g5 v=0
182040 On ch=1 n=g7 v=65
182100 On ch=1 n=g7 v=0
182100 On ch=1 n=g6 v=65
182160 Par ch=1 c=64 v=0
182160 On ch=1 n=g7 v=65
182280 On ch=1 n=g6 v=0
182280 On ch=1 n=g7 v=0
182280 On ch=1 n=c7 v=120
182280 On ch=1 n=a6 v=120
182280 On ch=1 n=f#6 v=120
182280 On ch=1 n=c6 v=120
182340 On ch=1 n=c7 v=0
182340 On ch=1 n=a6 v=0
182340 On ch=1 n=f#6 v=0
182340 On ch=1 n=c6 v=0
182340 On ch=1 n=d#5 v=102
182370 On ch=1 n=d#5 v=0
182370 On ch=1 n=d#5 v=102
182400 On ch=1 n=d#5 v=0
182400 On ch=1 n=c#5 v=102
182430 On ch=1 n=c#5 v=0
182460 On ch=1 n=d5 v=102
182490 On ch=1 n=d5 v=0
182520 On ch=1 n=c5 v=102
182550 On ch=1 n=c5 v=0
182580 On ch=1 n=b4 v=102
182610 On ch=1 n=b4 v=0
182640 On ch=1 n=a4 v=102
182700 On ch=1 n=a4 v=0
182700 On ch=1 n=e5 v=108
182700 On ch=1 n=c#6 v=108
182730 On ch=1 n=e5 v=0
182730 On ch=1 n=e5 v=111
182760 On ch=1 n=e5 v=0
182760 On ch=1 n=d#5 v=114
182820 On ch=1 n=c#6 v=0
182820 On ch=1 n=d#5 v=0
182820 On ch=1 n=g#5 v=108
182820 On ch=1 n=d5 v=108
182850 On ch=1 n=g#5 v=0
182850 On ch=1 n=b5 v=105
182880 On ch=1 n=d5 v=0
182880 On ch=1 n=b5 v=0
182880 On ch=1 n=a5 v=102
182880 On ch=1 n=c5 v=102
183000 On ch=1 n=a5 v=0
183000 On ch=1 n=c5 v=0
183000 Par ch=1 c=85 v=8
183060 On ch=1 n=a#4 v=65
183065 On ch=1 n=a#4 v=0
183065 On ch=1 n=b4 v=65
183120 Par ch=1 c=86 v=8
183180 On ch=1 n=b4 v=0
183180 On ch=1 n=f#5 v=65
183185 On ch=1 n=f#5 v=0
183185 On ch=1 n=g5 v=65
183240 Par ch=1 c=85 v=8
183300 On ch=1 n=g5 v=0
183300 On ch=1 n=f#4 v=65
183305 On ch=1 n=f#4 v=0
183305 On ch=1 n=g4 v=65
183360 Par ch=1 c=85 v=8
183420 On ch=1 n=g4 v=0
183420 On ch=1 n=g#4 v=59
183425 On ch=1 n=g#4 v=0
183425 On ch=1 n=a4 v=59
183480 Par ch=1 c=85 v=8
183540 On ch=1 n=a4 v=0
183540 On ch=1 n=a#4 v=53
183545 On ch=1 n=a#4 v=0
183545 On ch=1 n=b4 v=53
183660 On ch=1 n=b4 v=0
183720 Par ch=1 c=64 v=127
183720 Par ch=1 c=86 v=8
183720 On ch=1 n=b7 v=65
183725 On ch=1 n=b7 v=0
183725 On ch=1 n=c7 v=65
183725 On ch=1 n=c8 v=65
183780 On ch=1 n=c7 v=0
183780 On ch=1 n=c8 v=0
183780 On ch=1 n=a#7 v=65
183785 On ch=1 n=a#7 v=0
183785 On ch=1 n=b6 v=65
183785 On ch=1 n=b7 v=65
183840 On ch=1 n=b6 v=0
183840 On ch=1 n=b7 v=0
183840 Par ch=1 c=86 v=8
183840 On ch=1 n=g#7 v=65
183845 On ch=1 n=g#7 v=0
183845 On ch=1 n=a6 v=65
183845 On ch=1 n=a7 v=65
183900 On ch=1 n=a6 v=0
183900 On ch=1 n=a7 v=0
183900 On ch=1 n=f#7 v=65
183905 On ch=1 n=f#7 v=0
183905 On ch=1 n=g6 v=65
183905 On ch=1 n=g7 v=65
183960 On ch=1 n=g6 v=0
183960 On ch=1 n=g7 v=0
183960 Par ch=1 c=86 v=8
183960 On ch=1 n=f7 v=65
183965 On ch=1 n=f7 v=0
183965 On ch=1 n=f#6 v=65
183965 On ch=1 n=f#7 v=65
184020 On ch=1 n=f#6 v=0
184020 On ch=1 n=f#7 v=0
184020 On ch=1 n=d#7 v=65
184025 On ch=1 n=d#7 v=0
184025 On ch=1 n=e6 v=65
184025 On ch=1 n=e7 v=65
184080 On ch=1 n=e6 v=0
184080 On ch=1 n=e7 v=0
184080 Par ch=1 c=86 v=8
184080 On ch=1 n=d7 v=65
184085 On ch=1 n=d7 v=0
184085 On ch=1 n=d#6 v=65
184085 On ch=1 n=d#7 v=65
184140 On ch=1 n=d#6 v=0
184140 On ch=1 n=d#7 v=0
184140 On ch=1 n=c#7 v=65
184145 On ch=1 n=c#7 v=0
184145 On ch=1 n=d6 v=65
184145 On ch=1 n=d7 v=65
184200 On ch=1 n=d6 v=0
184200 On ch=1 n=d7 v=0
184200 Par ch=1 c=86 v=8
184200 On ch=1 n=c7 v=65
184205 On ch=1 n=c7 v=0
184205 On ch=1 n=c#6 v=65
184205 On ch=1 n=c#7 v=65
184260 On ch=1 n=c#6 v=0
184260 On ch=1 n=c#7 v=0
184260 On ch=1 n=b6 v=65
184265 On ch=1 n=b6 v=0
184265 On ch=1 n=c6 v=65
184265 On ch=1 n=c7 v=65
184320 On ch=1 n=c6 v=0
184320 On ch=1 n=c7 v=0
184320 Par ch=1 c=86 v=8
184320 On ch=1 n=b6 v=65
184325 On ch=1 n=b6 v=0
184325 On ch=1 n=c6 v=75
184325 On ch=1 n=c7 v=75
184380 On ch=1 n=c6 v=0
184380 On ch=1 n=c7 v=0
184380 On ch=1 n=a#6 v=65
184385 On ch=1 n=a#6 v=0
184385 On ch=1 n=b5 v=65
184385 On ch=1 n=b6 v=65
184440 On ch=1 n=b5 v=0
184440 On ch=1 n=b6 v=0
184440 Par ch=1 c=86 v=8
184440 On ch=1 n=a#6 v=65
184445 On ch=1 n=a#6 v=0
184445 On ch=1 n=b5 v=65
184445 On ch=1 n=b6 v=65
184500 On ch=1 n=b5 v=0
184500 On ch=1 n=b6 v=0
184500 On ch=1 n=g#6 v=65
184505 On ch=1 n=g#6 v=0
184505 On ch=1 n=a5 v=65
184505 On ch=1 n=a6 v=65
184560 On ch=1 n=a5 v=0
184560 On ch=1 n=a6 v=0
184560 On ch=1 n=f#7 v=65
184560 On ch=1 n=f#6 v=65
184620 On ch=1 n=f#7 v=0
184620 On ch=1 n=f#6 v=0
184620 On ch=1 n=e6 v=65
184620 On ch=1 n=e7 v=65
184680 On ch=1 n=e6 v=0
184680 On ch=1 n=e7 v=0
184680 Par ch=1 c=86 v=8
184680 On ch=1 n=f#6 v=65
184685 On ch=1 n=f#6 v=0
184685 On ch=1 n=g5 v=65
184685 On ch=1 n=g6 v=65
184740 On ch=1 n=g5 v=0
184740 On ch=1 n=g6 v=0
184740 On ch=1 n=f6 v=65
184745 On ch=1 n=f6 v=0
184745 On ch=1 n=f#5 v=65
184745 On ch=1 n=f#6 v=65
184800 On ch=1 n=f#5 v=0
184800 On ch=1 n=f#6 v=0
184800 On ch=1 n=a6 v=65
184800 On ch=1 n=a5 v=65
184860 On ch=1 n=a6 v=0
184860 On ch=1 n=a5 v=0
184860 On ch=1 n=g5 v=65
184860 On ch=1 n=g6 v=65
185040 On ch=1 n=g5 v=0
185040 On ch=1 n=g6 v=0
185100 Par ch=1 c=64 v=0
185160 Par ch=1 c=64 v=127
185160 On ch=1 n=a#5 v=90
185190 On ch=1 n=a#5 v=0
185190 On ch=1 n=a5 v=90
185220 On ch=1 n=a5 v=0
185220 On ch=1 n=e5 v=90
185250 On ch=1 n=e5 v=0
185250 On ch=1 n=g5 v=90
185280 On ch=1 n=g5 v=0
185280 On ch=1 n=a#5 v=90
185310 On ch=1 n=a#5 v=0
185310 On ch=1 n=a5 v=90
185340 On ch=1 n=a5 v=0
185340 Par ch=1 c=64 v=0
185340 On ch=1 n=c#6 v=90
185370 On ch=1 n=c#6 v=0
185370 On ch=1 n=e6 v=90
185400 On ch=1 n=e6 v=0
185400 On ch=1 n=a5 v=96
185400 On ch=1 n=a6 v=96
185520 On ch=1 n=a5 v=0
185520 On ch=1 n=a6 v=0
185520 Par ch=1 c=64 v=127
185520 On ch=1 n=a#5 v=90
185550 On ch=1 n=a#5 v=0
185550 On ch=1 n=a5 v=90
185580 On ch=1 n=a5 v=0
185580 On ch=1 n=e5 v=90
185610 On ch=1 n=e5 v=0
185610 On ch=1 n=g5 v=90
185640 On ch=1 n=g5 v=0
185640 On ch=1 n=a#5 v=90
185670 On ch=1 n=a#5 v=0
185670 On ch=1 n=a5 v=90
185700 On ch=1 n=a5 v=0
185700 Par ch=1 c=64 v=0
185700 On ch=1 n=c#6 v=90
185730 On ch=1 n=c#6 v=0
185730 On ch=1 n=e6 v=90
185760 On ch=1 n=e6 v=0
185760 On ch=1 n=a5 v=96
185760 On ch=1 n=a6 v=96
185880 On ch=1 n=a5 v=0
185880 On ch=1 n=a6 v=0
185880 On ch=1 n=a6 v=90
185910 On ch=1 n=a6 v=0
185910 On ch=1 n=g#6 v=90
185940 On ch=1 n=g#6 v=0
185940 On ch=1 n=d7 v=90
185970 On ch=1 n=d7 v=0
185970 On ch=1 n=b6 v=90
186000 On ch=1 n=b6 v=0
186000 On ch=1 n=g#6 v=90
186030 On ch=1 n=g#6 v=0
186030 On ch=1 n=f6 v=90
186060 On ch=1 n=f6 v=0
186060 On ch=1 n=d6 v=90
186090 On ch=1 n=d6 v=0
186090 On ch=1 n=b5 v=90
186120 On ch=1 n=b5 v=0
186120 On ch=1 n=g#5 v=96
186150 On ch=1 n=g#5 v=0
186150 On ch=1 n=f5 v=90
186180 On ch=1 n=f5 v=0
186180 On ch=1 n=d5 v=96
186270 On ch=1 n=d5 v=0
186270 On ch=1 n=c#5 v=90
186300 On ch=1 n=c#5 v=0
186300 On ch=1 n=g5 v=90
186330 On ch=1 n=g5 v=0
186330 On ch=1 n=e5 v=90
186360 On ch=1 n=e5 v=0
186360 On ch=1 n=c#5 v=86
186390 On ch=1 n=c#5 v=0
186390 On ch=1 n=a#4 v=82
186420 On ch=1 n=a#4 v=0
186420 On ch=1 n=g4 v=78
186450 On ch=1 n=g4 v=0
186450 On ch=1 n=e4 v=74
186480 On ch=1 n=e4 v=0
186480 On ch=1 n=d#4 v=70
186510 On ch=1 n=d#4 v=0
186510 On ch=1 n=d4 v=66
186540 On ch=1 n=d4 v=0
186540 On ch=1 n=d5 v=62
186540 On ch=1 n=a4 v=62
186540 On ch=1 n=f#4 v=62
186540 On ch=1 n=c4 v=62
186570 On ch=1 n=c4 v=0
186570 On ch=1 n=a3 v=58
186600 On ch=1 n=d5 v=0
186600 On ch=1 n=a4 v=0
186600 On ch=1 n=f#4 v=0
186600 On ch=1 n=a3 v=0
186600 On ch=1 n=d5 v=53
186600 On ch=1 n=g4 v=53
186600 On ch=1 n=a#4 v=53
186720 On ch=1 n=d5 v=0
186720 On ch=1 n=g4 v=0
186720 On ch=1 n=a#4 v=0
186720 Par ch=1 c=86 v=8
186720 On ch=1 n=f#5 v=53
186725 On ch=1 n=f#5 v=0
186725 On ch=1 n=g5 v=59
186780 On ch=1 n=g5 v=0
186780 On ch=1 n=g4 v=53
186780 On ch=1 n=a#4 v=53
186840 On ch=1 n=g4 v=0
186840 On ch=1 n=a#4 v=0
186840 On ch=1 n=c#5 v=53
186840 Par ch=1 c=86 v=8
186845 On ch=1 n=c#5 v=0
186845 On ch=1 n=d5 v=59
186900 On ch=1 n=d5 v=0
186900 On ch=1 n=f#4 v=53
186900 On ch=1 n=a4 v=53
186960 On ch=1 n=f#4 v=0
186960 On ch=1 n=a4 v=0
186960 On ch=1 n=a#4 v=53
186960 On ch=1 n=g4 v=53
187020 On ch=1 n=a#4 v=0
187020 On ch=1 n=g4 v=0
187080 Par ch=1 c=86 v=8
187080 On ch=1 n=f#6 v=53
187085 On ch=1 n=f#6 v=0
187085 On ch=1 n=g6 v=59
187140 On ch=1 n=g6 v=0
187140 On ch=1 n=g5 v=53
187140 On ch=1 n=a#5 v=53
187200 On ch=1 n=g5 v=0
187200 On ch=1 n=a#5 v=0
187200 Par ch=1 c=86 v=8
187200 On ch=1 n=c#6 v=53
187205 On ch=1 n=c#6 v=0
187205 On ch=1 n=d6 v=59
187260 On ch=1 n=d6 v=0
187260 On ch=1 n=f#5 v=53
187260 On ch=1 n=a5 v=53
187320 On ch=1 n=f#5 v=0
187320 On ch=1 n=a5 v=0
187320 On ch=1 n=g5 v=53
187320 On ch=1 n=a#5 v=53
187380 On ch=1 n=g5 v=0
187380 On ch=1 n=a#5 v=0
187380 On ch=1 n=g6 v=53
187380 On ch=1 n=d6 v=53
187410 On ch=1 n=g6 v=0
187410 On ch=1 n=d6 v=0
187410 On ch=1 n=d6 v=53
187410 On ch=1 n=g6 v=53
187440 On ch=1 n=d6 v=0
187440 On ch=1 n=g6 v=0
187440 On ch=1 n=d6 v=58
187440 On ch=1 n=g6 v=58
187500 On ch=1 n=d6 v=0
187500 On ch=1 n=g6 v=0
187500 On ch=1 n=a6 v=63
187500 On ch=1 n=f#6 v=63
187560 On ch=1 n=a6 v=0
187560 On ch=1 n=f#6 v=0
187560 On ch=1 n=a#6 v=68
187560 On ch=1 n=g6 v=68
187620 On ch=1 n=a#6 v=0
187620 On ch=1 n=g6 v=0
187620 On ch=1 n=d7 v=73
187620 On ch=1 n=a#6 v=73
187680 On ch=1 n=d7 v=0
187680 On ch=1 n=a#6 v=0
187680 On ch=1 n=d#7 v=78
187680 On ch=1 n=c7 v=78
187740 On ch=1 n=d#7 v=0
187740 On ch=1 n=c7 v=0
187740 On ch=1 n=a#6 v=73
187740 On ch=1 n=d7 v=73
187770 On ch=1 n=a#6 v=0
187770 On ch=1 n=d7 v=0
187770 On ch=1 n=g6 v=73
187800 On ch=1 n=g6 v=0
187800 On ch=1 n=a6 v=68
187800 On ch=1 n=f#6 v=68
187860 On ch=1 n=a6 v=0
187860 On ch=1 n=f#6 v=0
187860 On ch=1 n=a6 v=63
187860 On ch=1 n=f#6 v=63
187890 On ch=1 n=a6 v=0
187890 On ch=1 n=f#6 v=0
187890 On ch=1 n=g6 v=63
187890 On ch=1 n=a#6 v=63
187920 On ch=1 n=g6 v=0
187920 On ch=1 n=a#6 v=0
187920 On ch=1 n=a6 v=58
187920 On ch=1 n=f#6 v=58
188040 On ch=1 n=a6 v=0
188040 On ch=1 n=f#6 v=0
188040 On ch=1 n=c#6 v=102
188040 On ch=1 n=e6 v=102
188100 On ch=1 n=c#6 v=0
188100 On ch=1 n=e6 v=0
188100 On ch=1 n=f6 v=102
188100 On ch=1 n=d6 v=102
188160 On ch=1 n=f6 v=0
188160 On ch=1 n=d6 v=0
188160 On ch=1 n=d7 v=102
188160 On ch=1 n=f6 v=102
188190 On ch=1 n=d7 v=0
188190 On ch=1 n=c7 v=102
188220 On ch=1 n=c7 v=0
188220 On ch=1 n=a#6 v=102
188280 On ch=1 n=f6 v=0
188280 On ch=1 n=a#6 v=0
188280 On ch=1 n=a6 v=102
188280 On ch=1 n=c7 v=102
188340 On ch=1 n=a6 v=0
188340 On ch=1 n=c7 v=0
188340 On ch=1 n=f7 v=102
188340 On ch=1 n=f6 v=102
188400 On ch=1 n=f7 v=0
188400 On ch=1 n=f6 v=0
188400 On ch=1 n=c#7 v=102
188400 On ch=1 n=e7 v=102
188460 On ch=1 n=c#7 v=0
188460 On ch=1 n=e7 v=0
188460 On ch=1 n=f7 v=102
188460 On ch=1 n=d7 v=102
188520 On ch=1 n=f7 v=0
188520 On ch=1 n=d7 v=0
188520 On ch=1 n=d8 v=102
188520 On ch=1 n=f7 v=102
188550 On ch=1 n=d8 v=0
188550 On ch=1 n=c8 v=102
188580 On ch=1 n=c8 v=0
188580 On ch=1 n=a#7 v=102
188640 On ch=1 n=f7 v=0
188640 On ch=1 n=a#7 v=0
188640 On ch=1 n=a7 v=102
188640 On ch=1 n=c8 v=102
188700 On ch=1 n=a7 v=0
188700 On ch=1 n=c8 v=0
188700 On ch=1 n=f8 v=102
188700 On ch=1 n=f7 v=102
188760 On ch=1 n=f8 v=0
188760 On ch=1 n=f7 v=0
188790 On ch=1 n=d#8 v=120
188790 On ch=1 n=d#7 v=120
188850 On ch=1 n=d#8 v=0
188850 On ch=1 n=d#7 v=0
188850 On ch=1 n=c7 v=120
188850 On ch=1 n=c8 v=120
188910 On ch=1 n=c7 v=0
188910 On ch=1 n=c8 v=0
188910 On ch=1 n=a7 v=120
188910 On ch=1 n=a6 v=120
188970 On ch=1 n=a7 v=0
188970 On ch=1 n=a6 v=0
188970 On ch=1 n=f6 v=120
188970 On ch=1 n=f7 v=120
189030 On ch=1 n=f6 v=0
189030 On ch=1 n=f7 v=0
189030 On ch=1 n=d#7 v=120
189030 On ch=1 n=d#6 v=120
189090 On ch=1 n=d#7 v=0
189090 On ch=1 n=d#6 v=0
189090 On ch=1 n=c6 v=120
189090 On ch=1 n=c7 v=120
189120 On ch=1 n=c6 v=0
189120 On ch=1 n=c7 v=0
189120 On ch=1 n=c#7 v=120
189120 On ch=1 n=c#6 v=120
189150 On ch=1 n=c#7 v=0
189150 On ch=1 n=c#6 v=0
189150 On ch=1 n=d6 v=120
189150 On ch=1 n=d7 v=120
189180 On ch=1 n=d6 v=0
189180 On ch=1 n=d7 v=0
189180 On ch=1 n=d#7 v=120
189180 On ch=1 n=d#6 v=120
189210 On ch=1 n=d#7 v=0
189210 On ch=1 n=d#6 v=0
189210 On ch=1 n=e6 v=120
189210 On ch=1 n=e7 v=120
189240 On ch=1 n=e6 v=0
189240 On ch=1 n=e7 v=0
189240 On ch=1 n=f#7 v=120
189240 On ch=1 n=f#6 v=120
189300 On ch=1 n=f#7 v=0
189300 On ch=1 n=f#6 v=0
189300 On ch=1 n=e6 v=120
189300 On ch=1 n=e7 v=120
189360 On ch=1 n=e6 v=0
189360 On ch=1 n=e7 v=0
189360 On ch=1 n=c#6 v=120
189360 On ch=1 n=a6 v=120
189420 On ch=1 n=c#6 v=0
189420 On ch=1 n=a6 v=0
189420 On ch=1 n=e6 v=120
189480 On ch=1 n=e6 v=0
189480 On ch=1 n=g5 v=90
189487 On ch=1 n=a6 v=90
189540 On ch=1 n=a6 v=0
189540 On ch=1 n=g#6 v=90
189570 On ch=1 n=g#6 v=0
189570 On ch=1 n=g6 v=90
189600 On ch=1 n=g6 v=0
189600 On ch=1 n=f#6 v=90
189660 On ch=1 n=g5 v=0
189660 On ch=1 n=f#6 v=0
189660 On ch=1 n=g5 v=90
189660 On ch=1 n=e6 v=90
189690 On ch=1 n=g5 v=0
189690 On ch=1 n=e6 v=0
189720 On ch=1 n=g5 v=90
189720 On ch=1 n=d6 v=90
189750 On ch=1 n=g5 v=0
189750 On ch=1 n=d6 v=0
189780 On ch=1 n=g5 v=90
189780 On ch=1 n=c#6 v=90
189810 On ch=1 n=g5 v=0
189810 On ch=1 n=c#6 v=0
189840 On ch=1 n=c#6 v=90
189845 On ch=1 n=c#6 v=0
189845 On ch=1 n=g5 v=98
189845 On ch=1 n=b5 v=98
189900 On ch=1 n=g5 v=0
189900 On ch=1 n=b5 v=0
189900 On ch=1 n=a5 v=90
189960 On ch=1 n=a5 v=0
189960 On ch=1 n=c#6 v=90
189965 On ch=1 n=c#6 v=0
189965 On ch=1 n=f#5 v=98
189965 On ch=1 n=b5 v=98
190020 On ch=1 n=f#5 v=0
190020 On ch=1 n=b5 v=0
190020 On ch=1 n=a5 v=90
190080 On ch=1 n=a5 v=0
190080 On ch=1 n=c#6 v=90
190085 On ch=1 n=c#6 v=0
190085 On ch=1 n=g5 v=98
190085 On ch=1 n=b5 v=98
190140 On ch=1 n=g5 v=0
190140 On ch=1 n=b5 v=0
190140 On ch=1 n=a5 v=90
190200 On ch=1 n=a5 v=0
190200 On ch=1 n=a5 v=90
190200 On ch=1 n=d6 v=90
190260 On ch=1 n=a5 v=0
190260 On ch=1 n=d6 v=0
190260 On ch=1 n=a5 v=90
190260 On ch=1 n=d6 v=90
190290 On ch=1 n=a5 v=0
190290 On ch=1 n=d6 v=0
190290 On ch=1 n=a5 v=90
190290 On ch=1 n=d6 v=90
190320 On ch=1 n=a5 v=0
190320 On ch=1 n=d6 v=0
190320 On ch=1 n=a5 v=97
190320 On ch=1 n=d6 v=97
190380 On ch=1 n=a5 v=0
190380 On ch=1 n=d6 v=0
190380 On ch=1 n=c#6 v=103
190380 On ch=1 n=e6 v=103
190440 On ch=1 n=c#6 v=0
190440 On ch=1 n=e6 v=0
190440 On ch=1 n=d6 v=110
190440 On ch=1 n=f#6 v=110
190500 On ch=1 n=d6 v=0
190500 On ch=1 n=f#6 v=0
190500 On ch=1 n=a6 v=117
190500 On ch=1 n=f#6 v=117
190560 On ch=1 n=a6 v=0
190560 On ch=1 n=f#6 v=0
190560 On ch=1 n=g6 v=124
190560 On ch=1 n=b6 v=124
190620 On ch=1 n=g6 v=0
190620 On ch=1 n=b6 v=0
190620 On ch=1 n=f#6 v=124
190620 On ch=1 n=a6 v=124
190650 On ch=1 n=f#6 v=0
190650 On ch=1 n=a6 v=0
190650 On ch=1 n=d6 v=124
190680 On ch=1 n=d6 v=0
190680 On ch=1 n=c#6 v=113
190680 On ch=1 n=e6 v=113
190740 On ch=1 n=c#6 v=0
190740 On ch=1 n=e6 v=0
190740 On ch=1 n=c#6 v=113
190740 On ch=1 n=e6 v=113
190770 On ch=1 n=c#6 v=0
190770 On ch=1 n=e6 v=0
190770 On ch=1 n=f#6 v=113
190770 On ch=1 n=d6 v=113
190800 On ch=1 n=f#6 v=0
190800 On ch=1 n=d6 v=0
190800 On ch=1 n=c#6 v=102
190800 On ch=1 n=e6 v=102
190920 On ch=1 n=c#6 v=0
190920 On ch=1 n=e6 v=0
190920 On ch=1 n=g5 v=90
190927 On ch=1 n=a6 v=90
190980 On ch=1 n=a6 v=0
190980 On ch=1 n=g#6 v=90
191010 On ch=1 n=g#6 v=0
191010 On ch=1 n=g6 v=90
191040 On ch=1 n=g6 v=0
191040 On ch=1 n=f#6 v=90
191100 On ch=1 n=g5 v=0
191100 On ch=1 n=f#6 v=0
191100 On ch=1 n=g5 v=90
191100 On ch=1 n=e6 v=90
191130 On ch=1 n=g5 v=0
191130 On ch=1 n=e6 v=0
191160 On ch=1 n=g5 v=90
191160 On ch=1 n=d6 v=90
191190 On ch=1 n=g5 v=0
191190 On ch=1 n=d6 v=0
191220 On ch=1 n=g5 v=90
191220 On ch=1 n=c#6 v=90
191250 On ch=1 n=g5 v=0
191250 On ch=1 n=c#6 v=0
191280 On ch=1 n=c#6 v=90
191285 On ch=1 n=c#6 v=0
191285 On ch=1 n=g5 v=98
191285 On ch=1 n=b5 v=98
191340 On ch=1 n=g5 v=0
191340 On ch=1 n=b5 v=0
191340 On ch=1 n=a5 v=90
191400 On ch=1 n=a5 v=0
191400 On ch=1 n=c#6 v=90
191405 On ch=1 n=c#6 v=0
191405 On ch=1 n=f#5 v=98
191405 On ch=1 n=b5 v=98
191460 On ch=1 n=f#5 v=0
191460 On ch=1 n=b5 v=0
191460 On ch=1 n=a5 v=90
191490 On ch=1 n=a5 v=0
191520 Par ch=1 c=86 v=8
191520 On ch=1 n=b6 v=53
191525 On ch=1 n=b6 v=0
191525 On ch=1 n=c6 v=53
191525 On ch=1 n=a6 v=53
191550 On ch=1 n=c6 v=0
191550 On ch=1 n=a6 v=0
191580 On ch=1 n=b6 v=53
191585 On ch=1 n=b6 v=0
191585 On ch=1 n=c6 v=53
191585 On ch=1 n=a6 v=53
191610 On ch=1 n=c6 v=0
191610 On ch=1 n=a6 v=0
191640 On ch=1 n=a6 v=53
191645 On ch=1 n=a6 v=0
191645 On ch=1 n=b5 v=53
191645 On ch=1 n=g6 v=53
191670 On ch=1 n=b5 v=0
191670 On ch=1 n=g6 v=0
191700 On ch=1 n=a6 v=56
191705 On ch=1 n=a6 v=0
191705 On ch=1 n=b5 v=56
191705 On ch=1 n=g6 v=56
191730 On ch=1 n=b5 v=0
191730 On ch=1 n=g6 v=0
191760 On ch=1 n=g6 v=59
191765 On ch=1 n=g6 v=0
191765 On ch=1 n=b5 v=59
191765 On ch=1 n=f#6 v=59
191790 On ch=1 n=b5 v=0
191790 On ch=1 n=f#6 v=0
191820 On ch=1 n=g6 v=62
191825 On ch=1 n=g6 v=0
191825 On ch=1 n=b5 v=62
191825 On ch=1 n=f#6 v=62
191850 On ch=1 n=b5 v=0
191850 On ch=1 n=f#6 v=0
191880 On ch=1 n=f#6 v=63
191885 On ch=1 n=f#6 v=0
191885 On ch=1 n=b5 v=63
191885 On ch=1 n=e6 v=63
191910 On ch=1 n=b5 v=0
191910 On ch=1 n=e6 v=0
191940 On ch=1 n=f#6 v=65
191945 On ch=1 n=f#6 v=0
191945 On ch=1 n=b5 v=65
191945 On ch=1 n=e6 v=65
191970 On ch=1 n=b5 v=0
191970 On ch=1 n=e6 v=0
192090 On ch=1 n=b6 v=65
192120 On ch=1 n=b6 v=0
192120 On ch=1 n=g5 v=59
192120 On ch=1 n=c#6 v=59
192240 On ch=1 n=g5 v=0
192240 On ch=1 n=c#6 v=0
192240 On ch=1 n=f#5 v=53
192240 On ch=1 n=d6 v=53
192300 On ch=1 n=f#5 v=0
192300 On ch=1 n=d6 v=0
192720 On ch=1 n=a5 v=102
192840 On ch=1 n=a5 v=0
192840 On ch=1 n=d6 v=102
192840 On ch=1 n=a5 v=102
193020 On ch=1 n=d6 v=0
193020 On ch=1 n=a5 v=0
193020 On ch=1 n=a5 v=102
193020 On ch=1 n=d6 v=102
193080 On ch=1 n=a5 v=0
193080 On ch=1 n=d6 v=0
193080 On ch=1 n=a5 v=102
193080 On ch=1 n=d6 v=102
193200 On ch=1 n=a5 v=0
193200 On ch=1 n=d6 v=0
193200 On ch=1 n=a5 v=102
193200 On ch=1 n=d6 v=102
193320 On ch=1 n=a5 v=0
193320 On ch=1 n=d6 v=0
193320 On ch=1 n=e6 v=102
193320 On ch=1 n=c#6 v=102
193320 On ch=1 n=a5 v=102
193440 On ch=1 n=e6 v=0
193440 On ch=1 n=c#6 v=0
193440 On ch=1 n=a5 v=0
193440 On ch=1 n=a5 v=102
193440 On ch=1 n=d6 v=102
193440 On ch=1 n=f#6 v=102
193560 On ch=1 n=a5 v=0
193560 On ch=1 n=d6 v=0
193560 On ch=1 n=f#6 v=0
193560 On ch=1 n=f#6 v=102
193560 On ch=1 n=d6 v=102
193560 On ch=1 n=a5 v=102
193680 On ch=1 n=f#6 v=0
193680 On ch=1 n=d6 v=0
193680 On ch=1 n=a5 v=0
193680 On ch=1 n=a5 v=102
193680 On ch=1 n=c#6 v=102
193680 On ch=1 n=e6 v=102
193800 On ch=1 n=a5 v=0
193800 On ch=1 n=c#6 v=0
193800 On ch=1 n=e6 v=0
193800 On ch=1 n=e6 v=102
193800 On ch=1 n=c#6 v=102
193800 On ch=1 n=a5 v=102
193920 On ch=1 n=e6 v=0
193920 On ch=1 n=c#6 v=0
193920 On ch=1 n=a5 v=0
193920 On ch=1 n=a5 v=102
193920 On ch=1 n=c#6 v=102
193920 On ch=1 n=e6 v=102
194160 On ch=1 n=a5 v=0
194160 On ch=1 n=c#6 v=0
194160 On ch=1 n=e6 v=0
194160 On ch=1 n=a5 v=102
194160 On ch=1 n=c#6 v=102
194160 On ch=1 n=e6 v=102
194280 On ch=1 n=a5 v=0
194280 On ch=1 n=c#6 v=0
194280 On ch=1 n=e6 v=0
194280 On ch=1 n=f#6 v=102
194280 On ch=1 n=d6 v=102
194280 On ch=1 n=a5 v=102
194460 On ch=1 n=f#6 v=0
194460 On ch=1 n=d6 v=0
194460 On ch=1 n=a5 v=0
194460 On ch=1 n=a5 v=102
194460 On ch=1 n=e6 v=102
194460 On ch=1 n=g6 v=102
194520 On ch=1 n=a5 v=0
194520 On ch=1 n=e6 v=0
194520 On ch=1 n=g6 v=0
194520 On ch=1 n=a6 v=102
194520 On ch=1 n=f#6 v=102
194520 On ch=1 n=a5 v=102
194640 On ch=1 n=a6 v=0
194640 On ch=1 n=f#6 v=0
194640 On ch=1 n=a5 v=0
194640 On ch=1 n=a5 v=102
194640 On ch=1 n=f#6 v=102
194640 On ch=1 n=a6 v=102
194760 On ch=1 n=a5 v=0
194760 On ch=1 n=f#6 v=0
194760 On ch=1 n=a6 v=0
194760 On ch=1 n=g6 v=102
194760 On ch=1 n=e6 v=102
194760 On ch=1 n=a5 v=102
194880 On ch=1 n=g6 v=0
194880 On ch=1 n=e6 v=0
194880 On ch=1 n=a5 v=0
194880 On ch=1 n=a5 v=102
194880 On ch=1 n=d6 v=102
194880 On ch=1 n=f#6 v=102
195000 On ch=1 n=a5 v=0
195000 On ch=1 n=d6 v=0
195000 On ch=1 n=f#6 v=0
195000 On ch=1 n=f#6 v=102
195000 On ch=1 n=d6 v=102
195000 On ch=1 n=a5 v=102
195120 On ch=1 n=f#6 v=0
195120 On ch=1 n=d6 v=0
195120 On ch=1 n=a5 v=0
195120 On ch=1 n=a5 v=102
195120 On ch=1 n=c#6 v=102
195120 On ch=1 n=e6 v=102
195240 On ch=1 n=a5 v=0
195240 On ch=1 n=c#6 v=0
195240 On ch=1 n=e6 v=0
195240 On ch=1 n=e6 v=102
195240 On ch=1 n=c#6 v=102
195240 On ch=1 n=a5 v=102
195360 On ch=1 n=e6 v=0
195360 On ch=1 n=c#6 v=0
195360 On ch=1 n=a5 v=0
195360 On ch=1 n=e6 v=102
195360 On ch=1 n=c#6 v=102
195360 On ch=1 n=a5 v=102
195600 On ch=1 n=e6 v=0
195600 On ch=1 n=c#6 v=0
195600 On ch=1 n=a5 v=0
195600 On ch=1 n=a5 v=102
195720 On ch=1 n=a5 v=0
195720 On ch=1 n=d6 v=102
195720 On ch=1 n=a5 v=102
195900 On ch=1 n=d6 v=0
195900 On ch=1 n=a5 v=0
195900 On ch=1 n=a5 v=102
195900 On ch=1 n=d6 v=102
195960 On ch=1 n=a5 v=0
195960 On ch=1 n=d6 v=0
195960 On ch=1 n=a5 v=102
195960 On ch=1 n=d6 v=102
196080 On ch=1 n=a5 v=0
196080 On ch=1 n=d6 v=0
196080 On ch=1 n=a5 v=102
196080 On ch=1 n=d6 v=102
196200 On ch=1 n=a5 v=0
196200 On ch=1 n=d6 v=0
196200 On ch=1 n=e6 v=102
196200 On ch=1 n=c#6 v=102
196200 On ch=1 n=a5 v=102
196320 On ch=1 n=e6 v=0
196320 On ch=1 n=c#6 v=0
196320 On ch=1 n=a5 v=0
196320 On ch=1 n=a5 v=102
196320 On ch=1 n=d6 v=102
196320 On ch=1 n=f#6 v=102
196440 On ch=1 n=a5 v=0
196440 On ch=1 n=d6 v=0
196440 On ch=1 n=f#6 v=0
196440 On ch=1 n=f#6 v=102
196440 On ch=1 n=d6 v=102
196440 On ch=1 n=a5 v=102
196560 On ch=1 n=f#6 v=0
196560 On ch=1 n=d6 v=0
196560 On ch=1 n=a5 v=0
196560 On ch=1 n=a5 v=102
196560 On ch=1 n=c#6 v=102
196560 On ch=1 n=e6 v=102
196680 On ch=1 n=a5 v=0
196680 On ch=1 n=c#6 v=0
196680 On ch=1 n=e6 v=0
196680 On ch=1 n=e6 v=102
196680 On ch=1 n=c#6 v=102
196680 On ch=1 n=a5 v=102
196800 On ch=1 n=e6 v=0
196800 On ch=1 n=c#6 v=0
196800 On ch=1 n=a5 v=0
196800 On ch=1 n=a5 v=102
196800 On ch=1 n=c#6 v=102
196800 On ch=1 n=e6 v=102
197040 On ch=1 n=a5 v=0
197040 On ch=1 n=c#6 v=0
197040 On ch=1 n=e6 v=0
197040 On ch=1 n=a5 v=102
197040 On ch=1 n=c#6 v=102
197040 On ch=1 n=e6 v=102
197160 On ch=1 n=a5 v=0
197160 On ch=1 n=c#6 v=0
197160 On ch=1 n=e6 v=0
197160 On ch=1 n=f#6 v=102
197160 On ch=1 n=d6 v=102
197160 On ch=1 n=a5 v=102
197340 On ch=1 n=f#6 v=0
197340 On ch=1 n=d6 v=0
197340 On ch=1 n=a5 v=0
197340 On ch=1 n=a5 v=102
197340 On ch=1 n=e6 v=102
197340 On ch=1 n=g6 v=102
197400 On ch=1 n=a5 v=0
197400 On ch=1 n=e6 v=0
197400 On ch=1 n=g6 v=0
197400 On ch=1 n=a6 v=102
197400 On ch=1 n=f#6 v=102
197400 On ch=1 n=a5 v=102
197520 On ch=1 n=a6 v=0
197520 On ch=1 n=f#6 v=0
197520 On ch=1 n=a5 v=0
197520 On ch=1 n=a5 v=102
197520 On ch=1 n=f#6 v=102
197520 On ch=1 n=a6 v=102
197640 On ch=1 n=a5 v=0
197640 On ch=1 n=f#6 v=0
197640 On ch=1 n=a6 v=0
197640 On ch=1 n=g6 v=102
197640 On ch=1 n=e6 v=102
197640 On ch=1 n=a5 v=102
197760 On ch=1 n=g6 v=0
197760 On ch=1 n=e6 v=0
197760 On ch=1 n=a5 v=0
197760 On ch=1 n=a5 v=102
197760 On ch=1 n=d6 v=102
197760 On ch=1 n=f#6 v=102
197880 On ch=1 n=a5 v=0
197880 On ch=1 n=d6 v=0
197880 On ch=1 n=f#6 v=0
197880 On ch=1 n=f#6 v=102
197880 On ch=1 n=d6 v=102
197880 On ch=1 n=a5 v=102
198000 On ch=1 n=f#6 v=0
198000 On ch=1 n=d6 v=0
198000 On ch=1 n=a5 v=0
198000 On ch=1 n=a5 v=102
198000 On ch=1 n=c#6 v=102
198000 On ch=1 n=e6 v=102
198120 On ch=1 n=a5 v=0
198120 On ch=1 n=c#6 v=0
198120 On ch=1 n=e6 v=0
198120 On ch=1 n=e6 v=102
198120 On ch=1 n=c#6 v=102
198120 On ch=1 n=a5 v=102
198240 On ch=1 n=e6 v=0
198240 On ch=1 n=c#6 v=0
198240 On ch=1 n=a5 v=0
198240 On ch=1 n=e6 v=102
198240 On ch=1 n=c#6 v=102
198240 On ch=1 n=a5 v=102
198720 On ch=1 n=e6 v=0
198720 On ch=1 n=c#6 v=0
198720 On ch=1 n=a5 v=0
198900 On ch=1 n=a6 v=102
198960 On ch=1 n=a6 v=0
198960 On ch=1 n=f#6 v=102
199020 On ch=1 n=f#6 v=0
199020 On ch=1 n=d6 v=102
199080 On ch=1 n=d6 v=0
199080 On ch=1 n=e6 v=102
199140 On ch=1 n=e6 v=0
199140 On ch=1 n=c#6 v=102
199200 On ch=1 n=c#6 v=0
199200 On ch=1 n=e6 v=102
199205 On ch=1 n=e6 v=0
199205 On ch=1 n=d6 v=102
199230 On ch=1 n=d6 v=0
199230 On ch=1 n=c#6 v=102
199260 On ch=1 n=c#6 v=0
199260 On ch=1 n=d6 v=102
199290 On ch=1 n=d6 v=0
199290 On ch=1 n=e6 v=102
199320 On ch=1 n=e6 v=0
199320 On ch=1 n=d6 v=102
199380 On ch=1 n=d6 v=0
199380 On ch=1 n=a6 v=102
199440 On ch=1 n=a6 v=0
199440 On ch=1 n=f#6 v=102
199500 On ch=1 n=f#6 v=0
199500 On ch=1 n=d6 v=102
199560 On ch=1 n=d6 v=0
199560 On ch=1 n=e6 v=102
199620 On ch=1 n=e6 v=0
199620 On ch=1 n=c#6 v=102
199680 On ch=1 n=c#6 v=0
199680 On ch=1 n=d6 v=102
199740 On ch=1 n=d6 v=0
199860 On ch=1 n=a6 v=102
199920 On ch=1 n=a6 v=0
199920 On ch=1 n=f#6 v=102
199980 On ch=1 n=f#6 v=0
199980 On ch=1 n=d6 v=102
200040 On ch=1 n=d6 v=0
200040 On ch=1 n=e6 v=102
200100 On ch=1 n=e6 v=0
200100 On ch=1 n=c#6 v=102
200160 On ch=1 n=c#6 v=0
200160 On ch=1 n=e6 v=102
200165 On ch=1 n=e6 v=0
200165 On ch=1 n=d6 v=102
200190 On ch=1 n=d6 v=0
200190 On ch=1 n=c#6 v=102
200220 On ch=1 n=c#6 v=0
200220 On ch=1 n=d6 v=102
200250 On ch=1 n=d6 v=0
200250 On ch=1 n=e6 v=102
200280 On ch=1 n=e6 v=0
200280 On ch=1 n=d6 v=102
200340 On ch=1 n=d6 v=0
200340 On ch=1 n=a6 v=102
200400 On ch=1 n=a6 v=0
200400 On ch=1 n=f#6 v=102
200460 On ch=1 n=f#6 v=0
200460 On ch=1 n=d6 v=102
200520 On ch=1 n=d6 v=0
200520 On ch=1 n=e6 v=102
200580 On ch=1 n=e6 v=0
200580 On ch=1 n=c#6 v=102
200640 On ch=1 n=c#6 v=0
200640 On ch=1 n=d6 v=102
200700 On ch=1 n=d6 v=0
200820 On ch=1 n=a5 v=102
200880 On ch=1 n=a5 v=0
200880 On ch=1 n=d6 v=102
200880 On ch=1 n=a5 v=102
201060 On ch=1 n=d6 v=0
201060 On ch=1 n=a5 v=0
201060 On ch=1 n=a5 v=102
201060 On ch=1 n=d6 v=102
201120 On ch=1 n=a5 v=0
201120 On ch=1 n=d6 v=0
201120 On ch=1 n=a5 v=102
201120 On ch=1 n=d6 v=102
201240 On ch=1 n=a5 v=0
201240 On ch=1 n=d6 v=0
201240 On ch=1 n=a5 v=102
201240 On ch=1 n=d6 v=102
201360 On ch=1 n=a5 v=0
201360 On ch=1 n=d6 v=0
201360 On ch=1 n=e6 v=102
201360 On ch=1 n=c#6 v=102
201360 On ch=1 n=a5 v=102
201480 On ch=1 n=e6 v=0
201480 On ch=1 n=c#6 v=0
201480 On ch=1 n=a5 v=0
201480 On ch=1 n=a5 v=102
201480 On ch=1 n=d6 v=102
201480 On ch=1 n=f#6 v=102
201600 On ch=1 n=a5 v=0
201600 On ch=1 n=d6 v=0
201600 On ch=1 n=f#6 v=0
201600 On ch=1 n=f#6 v=102
201600 On ch=1 n=d6 v=102
201600 On ch=1 n=a5 v=102
201720 On ch=1 n=f#6 v=0
201720 On ch=1 n=d6 v=0
201720 On ch=1 n=a5 v=0
201720 On ch=1 n=a5 v=102
201720 On ch=1 n=c#6 v=102
201720 On ch=1 n=e6 v=102
201840 On ch=1 n=a5 v=0
201840 On ch=1 n=c#6 v=0
201840 On ch=1 n=e6 v=0
201840 On ch=1 n=e6 v=102
201840 On ch=1 n=c#6 v=102
201840 On ch=1 n=a5 v=102
201960 On ch=1 n=e6 v=0
201960 On ch=1 n=c#6 v=0
201960 On ch=1 n=a5 v=0
201960 On ch=1 n=a5 v=102
201960 On ch=1 n=c#6 v=102
201960 On ch=1 n=e6 v=102
202200 On ch=1 n=a5 v=0
202200 On ch=1 n=c#6 v=0
202200 On ch=1 n=e6 v=0
202200 On ch=1 n=a5 v=102
202200 On ch=1 n=c#6 v=102
202200 On ch=1 n=e6 v=102
202320 On ch=1 n=a5 v=0
202320 On ch=1 n=c#6 v=0
202320 On ch=1 n=e6 v=0
202320 On ch=1 n=f#6 v=102
202320 On ch=1 n=d6 v=102
202320 On ch=1 n=a5 v=102
202500 On ch=1 n=f#6 v=0
202500 On ch=1 n=d6 v=0
202500 On ch=1 n=a5 v=0
202500 On ch=1 n=a5 v=102
202500 On ch=1 n=e6 v=102
202500 On ch=1 n=g6 v=102
202560 On ch=1 n=a5 v=0
202560 On ch=1 n=e6 v=0
202560 On ch=1 n=g6 v=0
202560 On ch=1 n=a6 v=102
202560 On ch=1 n=f#6 v=102
202560 On ch=1 n=a5 v=102
202680 On ch=1 n=a6 v=0
202680 On ch=1 n=f#6 v=0
202680 On ch=1 n=a5 v=0
202680 On ch=1 n=a5 v=102
202680 On ch=1 n=f#6 v=102
202680 On ch=1 n=a6 v=102
202800 On ch=1 n=a5 v=0
202800 On ch=1 n=f#6 v=0
202800 On ch=1 n=a6 v=0
202800 On ch=1 n=g6 v=102
202800 On ch=1 n=e6 v=102
202800 On ch=1 n=a5 v=102
202920 On ch=1 n=g6 v=0
202920 On ch=1 n=e6 v=0
202920 On ch=1 n=a5 v=0
202920 On ch=1 n=a5 v=102
202920 On ch=1 n=d6 v=102
202920 On ch=1 n=f#6 v=102
203040 On ch=1 n=a5 v=0
203040 On ch=1 n=d6 v=0
203040 On ch=1 n=f#6 v=0
203760 On ch=1 n=a6 v=90
203760 On ch=1 n=a5 v=90
203820 On ch=1 n=a6 v=0
203820 On ch=1 n=a5 v=0
203820 On ch=1 n=b6 v=90
203820 On ch=1 n=b5 v=90
203880 On ch=1 n=b6 v=0
203880 On ch=1 n=b5 v=0
203880 On ch=1 n=c#7 v=90
203880 On ch=1 n=c#6 v=90
203940 On ch=1 n=c#7 v=0
203940 On ch=1 n=c#6 v=0
203940 On ch=1 n=d7 v=90
203940 On ch=1 n=d6 v=90
204000 On ch=1 n=d7 v=0
204000 On ch=1 n=d6 v=0
204000 On ch=1 n=e7 v=90
204000 On ch=1 n=e6 v=90
204060 On ch=1 n=e7 v=0
204060 On ch=1 n=e6 v=0
204060 On ch=1 n=f#7 v=90
204060 On ch=1 n=f#6 v=90
204120 On ch=1 n=f#7 v=0
204120 On ch=1 n=f#6 v=0
204120 On ch=1 n=g7 v=90
204120 On ch=1 n=g6 v=90
204240 On ch=1 n=g7 v=0
204240 On ch=1 n=g6 v=0
204240 On ch=1 n=f#6 v=90
204240 On ch=1 n=f#7 v=90
204360 On ch=1 n=f#6 v=0
204360 On ch=1 n=f#7 v=0
204360 On ch=1 n=e7 v=90
204360 On ch=1 n=e6 v=90
204480 On ch=1 n=e7 v=0
204480 On ch=1 n=e6 v=0
204480 On ch=1 n=d7 v=90
204480 On ch=1 n=d6 v=90
204660 On ch=1 n=d7 v=0
204660 On ch=1 n=d6 v=0
204660 On ch=1 n=c#6 v=90
204660 On ch=1 n=c#7 v=90
204720 On ch=1 n=c#6 v=0
204720 On ch=1 n=c#7 v=0
204720 On ch=1 n=b5 v=90
204720 On ch=1 n=b6 v=90
204840 On ch=1 n=b5 v=0
204840 On ch=1 n=b6 v=0
204840 On ch=1 n=a6 v=90
204840 On ch=1 n=a5 v=90
205200 On ch=1 n=a6 v=0
205200 On ch=1 n=a5 v=0
205200 On ch=1 n=b6 v=90
205200 On ch=1 n=b5 v=90
205260 On ch=1 n=b6 v=0
205260 On ch=1 n=b5 v=0
205260 On ch=1 n=c#7 v=90
205260 On ch=1 n=c#6 v=90
205320 On ch=1 n=c#7 v=0
205320 On ch=1 n=c#6 v=0
205320 On ch=1 n=d7 v=90
205320 On ch=1 n=d6 v=90
205380 On ch=1 n=d7 v=0
205380 On ch=1 n=d6 v=0
205380 On ch=1 n=e7 v=90
205380 On ch=1 n=e6 v=90
205440 On ch=1 n=e7 v=0
205440 On ch=1 n=e6 v=0
205440 On ch=1 n=f#7 v=90
205440 On ch=1 n=f#6 v=90
205500 On ch=1 n=f#7 v=0
205500 On ch=1 n=f#6 v=0
205500 On ch=1 n=g7 v=90
205500 On ch=1 n=g6 v=90
205560 On ch=1 n=g7 v=0
205560 On ch=1 n=g6 v=0
205560 On ch=1 n=a7 v=90
205560 On ch=1 n=a6 v=90
205680 On ch=1 n=a7 v=0
205680 On ch=1 n=a6 v=0
205680 On ch=1 n=g6 v=90
205680 On ch=1 n=g7 v=90
205800 On ch=1 n=g6 v=0
205800 On ch=1 n=g7 v=0
205800 On ch=1 n=e7 v=90
205800 On ch=1 n=e6 v=90
205920 On ch=1 n=e7 v=0
205920 On ch=1 n=e6 v=0
205920 On ch=1 n=d7 v=90
205920 On ch=1 n=d6 v=90
205980 On ch=1 n=d7 v=0
205980 On ch=1 n=d6 v=0
205980 On ch=1 n=f#7 v=90
205980 On ch=1 n=f#6 v=90
206040 On ch=1 n=f#7 v=0
206040 On ch=1 n=f#6 v=0
206040 On ch=1 n=g7 v=90
206040 On ch=1 n=g6 v=90
206100 On ch=1 n=g7 v=0
206100 On ch=1 n=g6 v=0
206100 On ch=1 n=a7 v=90
206100 On ch=1 n=a6 v=90
206160 On ch=1 n=a7 v=0
206160 On ch=1 n=a6 v=0
206160 On ch=1 n=b7 v=90
206160 On ch=1 n=b6 v=90
206220 On ch=1 n=b7 v=0
206220 On ch=1 n=b6 v=0
206220 On ch=1 n=c#8 v=90
206220 On ch=1 n=c#7 v=90
206280 On ch=1 n=c#8 v=0
206280 On ch=1 n=c#7 v=0
206280 On ch=1 n=d8 v=90
206280 On ch=1 n=d7 v=90
206400 On ch=1 n=d8 v=0
206400 On ch=1 n=d7 v=0
206640 On ch=1 n=a6 v=90
206640 On ch=1 n=a5 v=90
206700 On ch=1 n=a6 v=0
206700 On ch=1 n=a5 v=0
206700 On ch=1 n=b6 v=90
206700 On ch=1 n=b5 v=90
206760 On ch=1 n=b6 v=0
206760 On ch=1 n=b5 v=0
206760 On ch=1 n=c#7 v=90
206760 On ch=1 n=c#6 v=90
206820 On ch=1 n=c#7 v=0
206820 On ch=1 n=c#6 v=0
206820 On ch=1 n=d7 v=90
206820 On ch=1 n=d6 v=90
206880 On ch=1 n=d7 v=0
206880 On ch=1 n=d6 v=0
206880 On ch=1 n=e7 v=90
206880 On ch=1 n=e6 v=90
206940 On ch=1 n=e7 v=0
206940 On ch=1 n=e6 v=0
206940 On ch=1 n=f#7 v=90
206940 On ch=1 n=f#6 v=90
207000 On ch=1 n=f#7 v=0
207000 On ch=1 n=f#6 v=0
207000 On ch=1 n=g7 v=90
207000 On ch=1 n=g6 v=90
207120 On ch=1 n=g7 v=0
207120 On ch=1 n=g6 v=0
207120 On ch=1 n=f#6 v=90
207120 On ch=1 n=f#7 v=90
207240 On ch=1 n=f#6 v=0
207240 On ch=1 n=f#7 v=0
207240 On ch=1 n=e7 v=90
207240 On ch=1 n=e6 v=90
207360 On ch=1 n=e7 v=0
207360 On ch=1 n=e6 v=0
207360 On ch=1 n=d7 v=90
207360 On ch=1 n=d6 v=90
207480 On ch=1 n=d7 v=0
207480 On ch=1 n=d6 v=0
207480 On ch=1 n=c#6 v=90
207480 On ch=1 n=c#7 v=90
207600 On ch=1 n=c#6 v=0
207600 On ch=1 n=c#7 v=0
207600 On ch=1 n=b5 v=90
207600 On ch=1 n=b6 v=90
207720 On ch=1 n=b5 v=0
207720 On ch=1 n=b6 v=0
207720 On ch=1 n=a6 v=90
207720 On ch=1 n=a5 v=90
208140 On ch=1 n=a6 v=0
208140 On ch=1 n=a5 v=0
208140 On ch=1 n=b6 v=90
208140 On ch=1 n=b5 v=90
208200 On ch=1 n=b6 v=0
208200 On ch=1 n=b5 v=0
208200 On ch=1 n=c#7 v=90
208200 On ch=1 n=c#6 v=90
208260 On ch=1 n=c#7 v=0
208260 On ch=1 n=c#6 v=0
208260 On ch=1 n=d7 v=90
208260 On ch=1 n=d6 v=90
208320 On ch=1 n=d7 v=0
208320 On ch=1 n=d6 v=0
208320 On ch=1 n=e7 v=90
208320 On ch=1 n=e6 v=90
208380 On ch=1 n=e7 v=0
208380 On ch=1 n=e6 v=0
208380 On ch=1 n=f#7 v=90
208380 On ch=1 n=f#6 v=90
208440 On ch=1 n=f#7 v=0
208440 On ch=1 n=f#6 v=0
208440 On ch=1 n=a7 v=90
208440 On ch=1 n=a6 v=90
208560 On ch=1 n=a7 v=0
208560 On ch=1 n=a6 v=0
208560 On ch=1 n=g6 v=90
208560 On ch=1 n=g7 v=90
208680 On ch=1 n=g6 v=0
208680 On ch=1 n=g7 v=0
208680 On ch=1 n=e7 v=90
208680 On ch=1 n=e6 v=90
208800 On ch=1 n=e7 v=0
208800 On ch=1 n=e6 v=0
208800 On ch=1 n=d7 v=90
208800 On ch=1 n=d6 v=90
208860 On ch=1 n=d7 v=0
208860 On ch=1 n=d6 v=0
208860 On ch=1 n=f#7 v=90
208860 On ch=1 n=f#6 v=90
208920 On ch=1 n=f#7 v=0
208920 On ch=1 n=f#6 v=0
208920 On ch=1 n=g7 v=90
208920 On ch=1 n=g6 v=90
208980 On ch=1 n=g7 v=0
208980 On ch=1 n=g6 v=0
208980 On ch=1 n=a7 v=90
208980 On ch=1 n=a6 v=90
209040 On ch=1 n=a7 v=0
209040 On ch=1 n=a6 v=0
209040 On ch=1 n=b7 v=90
209040 On ch=1 n=b6 v=90
209100 On ch=1 n=b7 v=0
209100 On ch=1 n=b6 v=0
209100 On ch=1 n=c#8 v=90
209100 On ch=1 n=c#7 v=90
209160 On ch=1 n=c#8 v=0
209160 On ch=1 n=c#7 v=0
209160 On ch=1 n=d8 v=90
209160 On ch=1 n=d7 v=90
209280 On ch=1 n=d8 v=0
209280 On ch=1 n=d7 v=0
209520 On ch=1 n=a6 v=90
209520 On ch=1 n=a5 v=90
209580 On ch=1 n=a6 v=0
209580 On ch=1 n=a5 v=0
209580 On ch=1 n=b6 v=90
209580 On ch=1 n=b5 v=90
209640 On ch=1 n=b6 v=0
209640 On ch=1 n=b5 v=0
209640 On ch=1 n=c#7 v=90
209640 On ch=1 n=c#6 v=90
209700 On ch=1 n=c#7 v=0
209700 On ch=1 n=c#6 v=0
209700 On ch=1 n=d7 v=90
209700 On ch=1 n=d6 v=90
209760 On ch=1 n=d7 v=0
209760 On ch=1 n=d6 v=0
209760 On ch=1 n=e7 v=90
209760 On ch=1 n=e6 v=90
209820 On ch=1 n=e7 v=0
209820 On ch=1 n=e6 v=0
209820 On ch=1 n=f#7 v=90
209820 On ch=1 n=f#6 v=90
209880 On ch=1 n=f#7 v=0
209880 On ch=1 n=f#6 v=0
209880 Par ch=1 c=64 v=127
209880 On ch=1 n=g7 v=90
209880 On ch=1 n=g6 v=90
210000 On ch=1 n=g7 v=0
210000 On ch=1 n=g6 v=0
210000 On ch=1 n=f#6 v=90
210000 On ch=1 n=f#7 v=90
210120 On ch=1 n=f#6 v=0
210120 On ch=1 n=f#7 v=0
210120 On ch=1 n=e7 v=90
210120 On ch=1 n=e6 v=90
210180 Par ch=1 c=64 v=0
210240 On ch=1 n=e7 v=0
210240 On ch=1 n=e6 v=0
210240 On ch=1 n=d7 v=90
210240 On ch=1 n=d6 v=90
210420 On ch=1 n=d7 v=0
210420 On ch=1 n=d6 v=0
210420 On ch=1 n=c#6 v=90
210420 On ch=1 n=c#7 v=90
210480 On ch=1 n=c#6 v=0
210480 On ch=1 n=c#7 v=0
210480 On ch=1 n=b5 v=90
210480 On ch=1 n=b6 v=90
210600 On ch=1 n=b5 v=0
210600 On ch=1 n=b6 v=0
210600 On ch=1 n=a6 v=90
210600 On ch=1 n=a5 v=90
210960 On ch=1 n=a6 v=0
210960 On ch=1 n=a5 v=0
210960 On ch=1 n=b5 v=90
210960 On ch=1 n=b6 v=96
211020 On ch=1 n=b5 v=0
211020 On ch=1 n=c#6 v=90
211080 On ch=1 n=c#6 v=0
211080 On ch=1 n=d6 v=90
211140 On ch=1 n=d6 v=0
211140 On ch=1 n=e6 v=90
211200 On ch=1 n=e6 v=0
211200 On ch=1 n=f#6 v=90
211260 On ch=1 n=f#6 v=0
211260 On ch=1 n=g6 v=90
211320 On ch=1 n=b6 v=0
211320 On ch=1 n=g6 v=0
211320 On ch=1 n=a5 v=96
211320 On ch=1 n=a6 v=96
211440 On ch=1 n=g6 v=90
211560 On ch=1 n=g6 v=0
211560 On ch=1 n=e6 v=90
211680 On ch=1 n=a5 v=0
211680 On ch=1 n=e6 v=0
211680 Par ch=1 c=64 v=127
211680 On ch=1 n=d6 v=90
211740 On ch=1 n=d6 v=0
211740 On ch=1 n=f#6 v=90
211800 On ch=1 n=a6 v=0
211800 On ch=1 n=f#6 v=0
211800 On ch=1 n=g6 v=90
211860 On ch=1 n=g6 v=0
211860 On ch=1 n=a6 v=90
211920 On ch=1 n=a6 v=0
211920 On ch=1 n=b6 v=90
211980 On ch=1 n=b6 v=0
211980 On ch=1 n=c#7 v=90
212040 On ch=1 n=c#7 v=0
212040 On ch=1 n=d7 v=90
212160 On ch=1 n=d7 v=0
212400 On ch=1 n=a5 v=90
212460 On ch=1 n=a5 v=0
212460 On ch=1 n=b5 v=90
212520 On ch=1 n=b5 v=0
212520 On ch=1 n=c#6 v=90
212580 On ch=1 n=c#6 v=0
212580 On ch=1 n=d6 v=90
212640 On ch=1 n=d6 v=0
212640 On ch=1 n=e6 v=90
212700 On ch=1 n=e6 v=0
212700 On ch=1 n=f#6 v=90
212820 On ch=1 n=f#6 v=0
212820 On ch=1 n=g6 v=90
212940 On ch=1 n=g6 v=0
212940 On ch=1 n=f#6 v=90
213060 On ch=1 n=f#6 v=0
213060 On ch=1 n=e6 v=90
213180 On ch=1 n=e6 v=0
213180 On ch=1 n=d6 v=90
213300 On ch=1 n=d6 v=0
213300 On ch=1 n=c#6 v=90
213420 On ch=1 n=c#6 v=0
213420 On ch=1 n=b5 v=90
213540 On ch=1 n=b5 v=0
213540 On ch=1 n=a5 v=90
213900 On ch=1 n=a5 v=0
213900 On ch=1 n=b5 v=90
213960 On ch=1 n=b5 v=0
213960 On ch=1 n=c#6 v=90
214020 On ch=1 n=c#6 v=0
214020 On ch=1 n=d6 v=90
214080 On ch=1 n=d6 v=0
214080 On ch=1 n=e6 v=90
214140 On ch=1 n=e6 v=0
214140 On ch=1 n=f#6 v=90
214260 On ch=1 n=f#6 v=0
214260 On ch=1 n=a6 v=90
214380 On ch=1 n=a6 v=0
214380 On ch=1 n=g6 v=90
214500 On ch=1 n=g6 v=0
214500 On ch=1 n=e6 v=90
214620 On ch=1 n=e6 v=0
214620 On ch=1 n=d6 v=92
214680 On ch=1 n=d6 v=0
214680 On ch=1 n=f#6 v=94
214740 On ch=1 n=f#6 v=0
214740 On ch=1 n=g6 v=96
214800 On ch=1 n=g6 v=0
214800 On ch=1 n=a6 v=98
214860 On ch=1 n=a6 v=0
214860 On ch=1 n=c#7 v=100
214980 On ch=1 n=c#7 v=0
214980 On ch=1 n=d7 v=102
215040 On ch=1 n=d7 v=0
215280 On ch=1 n=a5 v=102
215340 On ch=1 n=a5 v=0
215340 On ch=1 n=b5 v=102
215400 On ch=1 n=b5 v=0
215400 On ch=1 n=c#6 v=102
215460 On ch=1 n=c#6 v=0
215460 On ch=1 n=d6 v=102
215520 On ch=1 n=d6 v=0
215520 On ch=1 n=e6 v=102
215580 On ch=1 n=e6 v=0
215580 On ch=1 n=f#6 v=102
215640 On ch=1 n=f#6 v=0
215640 On ch=1 n=g6 v=102
215700 On ch=1 n=g6 v=0
216000 On ch=1 n=a5 v=102
216060 On ch=1 n=a5 v=0
216060 On ch=1 n=b5 v=102
216120 On ch=1 n=b5 v=0
216120 On ch=1 n=c#6 v=102
216180 On ch=1 n=c#6 v=0
216180 On ch=1 n=d6 v=102
216240 On ch=1 n=d6 v=0
216240 On ch=1 n=e6 v=102
216300 On ch=1 n=e6 v=0
216300 On ch=1 n=f#6 v=102
216360 On ch=1 n=f#6 v=0
216720 On ch=1 n=a5 v=102
216780 On ch=1 n=a5 v=0
216780 On ch=1 n=b5 v=102
216840 On ch=1 n=b5 v=0
216840 On ch=1 n=c#6 v=102
216900 On ch=1 n=c#6 v=0
216900 On ch=1 n=d6 v=102
216960 On ch=1 n=d6 v=0
216960 On ch=1 n=e6 v=102
217020 On ch=1 n=e6 v=0
217080 On ch=1 n=a6 v=102
217320 On ch=1 n=a6 v=0
217440 On ch=1 n=a5 v=102
217500 On ch=1 n=a5 v=0
217500 On ch=1 n=b5 v=100
217560 On ch=1 n=b5 v=0
217560 On ch=1 n=c#6 v=99
217620 On ch=1 n=c#6 v=0
217620 On ch=1 n=d6 v=98
217680 On ch=1 n=d6 v=0
217800 On ch=1 n=a6 v=97
218040 On ch=1 n=a6 v=0
218160 On ch=1 n=a5 v=91
218220 On ch=1 n=a5 v=0
218220 On ch=1 n=b5 v=91
218280 On ch=1 n=b5 v=0
218280 On ch=1 n=c#6 v=91
218340 On ch=1 n=c#6 v=0
218520 On ch=1 n=a6 v=86
218760 On ch=1 n=a6 v=0
218880 On ch=1 n=a5 v=81
218940 On ch=1 n=a5 v=0
218940 On ch=1 n=b5 v=81
219000 On ch=1 n=b5 v=0
219240 On ch=1 n=a6 v=75
219480 On ch=1 n=a6 v=0
219600 On ch=1 n=a5 v=70
219660 On ch=1 n=a5 v=0
219960 On ch=1 n=a6 v=65
220200 On ch=1 n=a6 v=0
220680 On ch=1 n=a6 v=53
220920 On ch=1 n=a6 v=0
221280 Par ch=1 c=64 v=0
221760 On ch=1 n=d5 v=71
223200 On ch=1 n=d5 v=0
223200 On ch=1 n=f#5 v=65
224640 On ch=1 n=f#5 v=0
224640 On ch=1 n=a5 v=65
227160 On ch=1 n=a5 v=0
227160 Meta TrkEnd
TrkEnd
MTrk
0 Meta 0x21 00
0 SeqSpec 00 00 00 6a 00 04 01
0 Meta TrkName "Bass"
0 PrCh ch=1 p=0
0 On ch=1 n=d3 v=90
180 On ch=1 n=d3 v=0
180 On ch=1 n=f#3 v=90
240 On ch=1 n=f#3 v=0
240 On ch=1 n=b3 v=90
300 On ch=1 n=b3 v=0
300 On ch=1 n=a3 v=90
360 On ch=1 n=a3 v=0
360 On ch=1 n=g#3 v=90
420 On ch=1 n=g#3 v=0
420 On ch=1 n=a3 v=90
480 On ch=1 n=a3 v=0
480 On ch=1 n=d4 v=90
540 On ch=1 n=d4 v=0
540 On ch=1 n=f#4 v=90
600 On ch=1 n=f#4 v=0
600 On ch=1 n=b4 v=90
660 On ch=1 n=b4 v=0
660 On ch=1 n=a4 v=90
720 On ch=1 n=a4 v=0
720 On ch=1 n=g#4 v=102
900 On ch=1 n=g#4 v=0
900 On ch=1 n=a4 v=90
960 On ch=1 n=a4 v=0
960 On ch=1 n=d5 v=90
1020 On ch=1 n=d5 v=0
1020 On ch=1 n=f#5 v=90
1080 On ch=1 n=f#5 v=0
1080 On ch=1 n=a5 v=90
1200 On ch=1 n=a5 v=0
1440 On ch=1 n=g#3 v=65
1620 On ch=1 n=g#3 v=0
1620 On ch=1 n=a3 v=65
1680 On ch=1 n=a3 v=0
1680 On ch=1 n=d4 v=65
1740 On ch=1 n=d4 v=0
1740 On ch=1 n=f#4 v=65
1800 On ch=1 n=f#4 v=0
1800 On ch=1 n=a4 v=65
1920 On ch=1 n=a4 v=0
2160 On ch=1 n=a3 v=65
2280 On ch=1 n=a3 v=0
2280 On ch=1 n=e5 v=71
2280 On ch=1 n=c#5 v=71
2280 On ch=1 n=a4 v=71
2400 On ch=1 n=e5 v=0
2400 On ch=1 n=c#5 v=0
2400 On ch=1 n=a4 v=0
2400 On ch=1 n=g4 v=78
2400 On ch=1 n=c#5 v=78
2400 On ch=1 n=e5 v=78
2520 On ch=1 n=g4 v=0
2520 On ch=1 n=c#5 v=0
2520 On ch=1 n=e5 v=0
2520 On ch=1 n=a#3 v=84
2640 On ch=1 n=a#3 v=0
2640 On ch=1 n=e5 v=84
2640 On ch=1 n=c#5 v=84
2640 On ch=1 n=f#4 v=84
2760 On ch=1 n=e5 v=0
2760 On ch=1 n=c#5 v=0
2760 On ch=1 n=f#4 v=0
2760 On ch=1 n=f#4 v=84
2760 On ch=1 n=c#5 v=84
2760 On ch=1 n=e5 v=84
2880 On ch=1 n=f#4 v=0
2880 On ch=1 n=c#5 v=0
2880 On ch=1 n=e5 v=0
2880 On ch=1 n=b3 v=84
3000 On ch=1 n=b3 v=0
3000 On ch=1 n=c#5 v=84
3000 On ch=1 n=b4 v=84
3000 On ch=1 n=f#4 v=84
3120 On ch=1 n=c#5 v=0
3120 On ch=1 n=b4 v=0
3120 On ch=1 n=f#4 v=0
3120 On ch=1 n=d5 v=84
3120 On ch=1 n=b4 v=84
3120 On ch=1 n=f#4 v=84
3240 On ch=1 n=d5 v=0
3240 On ch=1 n=b4 v=0
3240 On ch=1 n=f#4 v=0
3240 On ch=1 n=f#3 v=84
3360 On ch=1 n=c#5 v=84
3360 On ch=1 n=a4 v=84
3480 On ch=1 n=f#3 v=0
3480 On ch=1 n=f#4 v=84
3600 On ch=1 n=c#5 v=0
3600 On ch=1 n=a4 v=0
3600 On ch=1 n=f#4 v=0
3600 On ch=1 n=g4 v=84
3720 On ch=1 n=g4 v=0
3720 On ch=1 n=e5 v=84
3720 On ch=1 n=b4 v=84
3840 On ch=1 n=b4 v=0
3840 On ch=1 n=a#4 v=84
3960 On ch=1 n=e5 v=0
3960 On ch=1 n=a#4 v=0
3960 On ch=1 n=a4 v=84
4080 On ch=1 n=e5 v=84
4080 On ch=1 n=c#5 v=84
4200 On ch=1 n=a4 v=0
4200 On ch=1 n=g4 v=84
4320 On ch=1 n=e5 v=0
4320 On ch=1 n=c#5 v=0
4320 On ch=1 n=g4 v=0
4320 On ch=1 n=f#4 v=84
4440 On ch=1 n=d5 v=90
4440 On ch=1 n=a4 v=90
4560 On ch=1 n=d5 v=0
4560 On ch=1 n=a4 v=0
4560 On ch=1 n=a4 v=96
4560 On ch=1 n=d5 v=96
4680 On ch=1 n=f#4 v=0
4680 On ch=1 n=a4 v=0
4680 On ch=1 n=d5 v=0
4680 On ch=1 n=d4 v=102
4740 On ch=1 n=d4 v=0
4800 On ch=1 n=f#5 v=115
4800 On ch=1 n=d5 v=115
4800 On ch=1 n=a4 v=115
4800 On ch=1 n=f#4 v=115
5040 On ch=1 n=f#5 v=0
5040 On ch=1 n=d5 v=0
5040 On ch=1 n=a4 v=0
5040 On ch=1 n=f#4 v=0
5040 On ch=1 n=a3 v=65
5160 On ch=1 n=a3 v=0
5160 On ch=1 n=e5 v=71
5160 On ch=1 n=c#5 v=71
5160 On ch=1 n=a4 v=71
5280 On ch=1 n=e5 v=0
5280 On ch=1 n=c#5 v=0
5280 On ch=1 n=a4 v=0
5280 On ch=1 n=g4 v=78
5280 On ch=1 n=c#5 v=78
5280 On ch=1 n=e5 v=78
5400 On ch=1 n=g4 v=0
5400 On ch=1 n=c#5 v=0
5400 On ch=1 n=e5 v=0
5400 On ch=1 n=a#3 v=84
5520 On ch=1 n=a#3 v=0
5520 On ch=1 n=e5 v=84
5520 On ch=1 n=c#5 v=84
5520 On ch=1 n=f#4 v=84
5640 On ch=1 n=e5 v=0
5640 On ch=1 n=c#5 v=0
5640 On ch=1 n=f#4 v=0
5640 On ch=1 n=f#4 v=84
5640 On ch=1 n=c#5 v=84
5640 On ch=1 n=e5 v=84
5760 On ch=1 n=f#4 v=0
5760 On ch=1 n=c#5 v=0
5760 On ch=1 n=e5 v=0
5760 On ch=1 n=b3 v=84
5880 On ch=1 n=b3 v=0
5880 On ch=1 n=c#5 v=84
5880 On ch=1 n=b4 v=84
5880 On ch=1 n=f#4 v=84
6000 On ch=1 n=c#5 v=0
6000 On ch=1 n=b4 v=0
6000 On ch=1 n=f#4 v=0
6000 On ch=1 n=d5 v=84
6000 On ch=1 n=b4 v=84
6000 On ch=1 n=f#4 v=84
6120 On ch=1 n=d5 v=0
6120 On ch=1 n=b4 v=0
6120 On ch=1 n=f#4 v=0
6120 On ch=1 n=f#3 v=84
6240 On ch=1 n=c#5 v=84
6240 On ch=1 n=a4 v=84
6360 On ch=1 n=f#3 v=0
6360 On ch=1 n=f#4 v=84
6480 On ch=1 n=c#5 v=0
6480 On ch=1 n=a4 v=0
6480 On ch=1 n=f#4 v=0
6480 On ch=1 n=g4 v=84
6600 On ch=1 n=g4 v=0
6600 On ch=1 n=e5 v=84
6600 On ch=1 n=b4 v=84
6720 On ch=1 n=b4 v=0
6720 On ch=1 n=a#4 v=84
6840 On ch=1 n=e5 v=0
6840 On ch=1 n=a#4 v=0
6840 On ch=1 n=a4 v=84
6960 On ch=1 n=e5 v=84
6960 On ch=1 n=c#5 v=84
7080 On ch=1 n=a4 v=0
7080 On ch=1 n=g4 v=84
7200 On ch=1 n=e5 v=0
7200 On ch=1 n=c#5 v=0
7200 On ch=1 n=g4 v=0
7200 On ch=1 n=f#4 v=84
7320 On ch=1 n=d5 v=90
7320 On ch=1 n=a4 v=90
7440 On ch=1 n=d5 v=0
7440 On ch=1 n=a4 v=0
7440 On ch=1 n=a4 v=96
7440 On ch=1 n=d5 v=96
7560 On ch=1 n=f#4 v=0
7560 On ch=1 n=a4 v=0
7560 On ch=1 n=d5 v=0
7560 On ch=1 n=d4 v=102
7620 On ch=1 n=d4 v=0
7680 On ch=1 n=f#5 v=115
7680 On ch=1 n=d5 v=115
7680 On ch=1 n=a4 v=115
7680 On ch=1 n=f#4 v=115
7920 On ch=1 n=f#5 v=0
7920 On ch=1 n=d5 v=0
7920 On ch=1 n=a4 v=0
7920 On ch=1 n=f#4 v=0
7920 On ch=1 n=g4 v=65
8040 On ch=1 n=g4 v=0
8040 On ch=1 n=d#5 v=65
8040 On ch=1 n=a#5 v=65
8040 On ch=1 n=c#6 v=65
8160 On ch=1 n=d#5 v=0
8160 On ch=1 n=a#5 v=0
8160 On ch=1 n=c#6 v=0
8160 On ch=1 n=d#5 v=65
8160 On ch=1 n=a#5 v=65
8160 On ch=1 n=c#6 v=65
8280 On ch=1 n=d#5 v=0
8280 On ch=1 n=a#5 v=0
8280 On ch=1 n=c#6 v=0
8280 On ch=1 n=g#4 v=65
8400 On ch=1 n=g#4 v=0
8400 On ch=1 n=c6 v=65
8400 On ch=1 n=g#5 v=65
8400 On ch=1 n=d#5 v=65
8520 On ch=1 n=c6 v=0
8520 On ch=1 n=g#5 v=0
8520 On ch=1 n=d#5 v=0
8520 On ch=1 n=c6 v=65
8520 On ch=1 n=g#5 v=65
8520 On ch=1 n=d#5 v=65
8640 On ch=1 n=c6 v=0
8640 On ch=1 n=g#5 v=0
8640 On ch=1 n=d#5 v=0
8640 On ch=1 n=g#4 v=65
8760 On ch=1 n=g#4 v=0
8760 On ch=1 n=b5 v=65
8760 On ch=1 n=e5 v=65
8760 On ch=1 n=d5 v=65
8880 On ch=1 n=b5 v=0
8880 On ch=1 n=e5 v=0
8880 On ch=1 n=d5 v=0
8880 On ch=1 n=d5 v=65
8880 On ch=1 n=e5 v=65
8880 On ch=1 n=b5 v=65
9000 On ch=1 n=d5 v=0
9000 On ch=1 n=e5 v=0
9000 On ch=1 n=b5 v=0
9000 Par ch=1 c=64 v=76
9000 On ch=1 n=g4 v=65
9120 On ch=1 n=a5 v=65
9120 On ch=1 n=e5 v=65
9120 On ch=1 n=c#5 v=65
9240 On ch=1 n=a5 v=0
9240 On ch=1 n=e5 v=0
9240 On ch=1 n=c#5 v=0
9240 On ch=1 n=a5 v=65
9240 On ch=1 n=e5 v=65
9240 On ch=1 n=c#5 v=65
9360 On ch=1 n=a5 v=0
9360 On ch=1 n=e5 v=0
9360 On ch=1 n=c#5 v=0
9360 On ch=1 n=a3 v=65
9480 On ch=1 n=a3 v=0
9480 On ch=1 n=e5 v=77
9480 On ch=1 n=c#5 v=77
9480 On ch=1 n=a4 v=77
9600 On ch=1 n=e5 v=0
9600 On ch=1 n=c#5 v=0
9600 On ch=1 n=a4 v=0
9600 On ch=1 n=a4 v=89
9600 On ch=1 n=c#5 v=89
9600 On ch=1 n=e5 v=89
9720 On ch=1 n=a4 v=0
9720 On ch=1 n=c#5 v=0
9720 On ch=1 n=e5 v=0
9720 On ch=1 n=a3 v=102
9780 Par ch=1 c=64 v=0
9840 On ch=1 n=a3 v=0
9840 On ch=1 n=e5 v=102
9840 On ch=1 n=c#5 v=102
9840 On ch=1 n=a4 v=102
9960 On ch=1 n=e5 v=0
9960 On ch=1 n=c#5 v=0
9960 On ch=1 n=a4 v=0
9960 On ch=1 n=g4 v=102
9960 On ch=1 n=c#5 v=102
9960 On ch=1 n=e5 v=102
10080 On ch=1 n=g4 v=0
10080 On ch=1 n=g4 v=0
10080 On ch=1 n=c#5 v=0
10080 On ch=1 n=e5 v=0
10080 On ch=1 n=d3 v=102
10200 On ch=1 n=d3 v=0
10200 On ch=1 n=d5 v=102
10200 On ch=1 n=a4 v=102
10200 On ch=1 n=f#4 v=102
10320 On ch=1 n=d5 v=0
10320 On ch=1 n=a4 v=0
10320 On ch=1 n=f#4 v=0
10320 On ch=1 n=d5 v=102
10320 On ch=1 n=a4 v=102
10320 On ch=1 n=f#4 v=102
10440 On ch=1 n=d5 v=0
10440 On ch=1 n=a4 v=0
10440 On ch=1 n=f#4 v=0
10440 On ch=1 n=d3 v=102
10560 On ch=1 n=d3 v=0
10560 On ch=1 n=a5 v=115
10560 On ch=1 n=f#5 v=115
10560 On ch=1 n=d5 v=115
10560 On ch=1 n=a4 v=115
10800 On ch=1 n=a5 v=0
10800 On ch=1 n=f#5 v=0
10800 On ch=1 n=d5 v=0
10800 On ch=1 n=a4 v=0
10800 On ch=1 n=g4 v=65
10920 On ch=1 n=g4 v=0
10920 On ch=1 n=d#5 v=65
10920 On ch=1 n=a#5 v=65
10920 On ch=1 n=c#6 v=65
11040 On ch=1 n=d#5 v=0
11040 On ch=1 n=a#5 v=0
11040 On ch=1 n=c#6 v=0
11040 On ch=1 n=d#5 v=65
11040 On ch=1 n=a#5 v=65
11040 On ch=1 n=c#6 v=65
11160 On ch=1 n=d#5 v=0
11160 On ch=1 n=a#5 v=0
11160 On ch=1 n=c#6 v=0
11160 On ch=1 n=g#4 v=65
11280 On ch=1 n=g#4 v=0
11280 On ch=1 n=c6 v=65
11280 On ch=1 n=g#5 v=65
11280 On ch=1 n=d#5 v=65
11400 On ch=1 n=c6 v=0
11400 On ch=1 n=g#5 v=0
11400 On ch=1 n=d#5 v=0
11400 On ch=1 n=c6 v=65
11400 On ch=1 n=g#5 v=65
11400 On ch=1 n=d#5 v=65
11520 On ch=1 n=c6 v=0
11520 On ch=1 n=g#5 v=0
11520 On ch=1 n=d#5 v=0
11520 On ch=1 n=g#4 v=65
11640 On ch=1 n=g#4 v=0
11640 On ch=1 n=b5 v=65
11640 On ch=1 n=e5 v=65
11640 On ch=1 n=d5 v=65
11760 On ch=1 n=b5 v=0
11760 On ch=1 n=e5 v=0
11760 On ch=1 n=d5 v=0
11760 On ch=1 n=d5 v=65
11760 On ch=1 n=e5 v=65
11760 On ch=1 n=b5 v=65
11880 On ch=1 n=d5 v=0
11880 On ch=1 n=e5 v=0
11880 On ch=1 n=b5 v=0
11880 Par ch=1 c=64 v=76
11880 On ch=1 n=g4 v=65
12000 On ch=1 n=a5 v=65
12000 On ch=1 n=e5 v=65
12000 On ch=1 n=c#5 v=65
12120 On ch=1 n=a5 v=0
12120 On ch=1 n=e5 v=0
12120 On ch=1 n=c#5 v=0
12120 On ch=1 n=a5 v=65
12120 On ch=1 n=e5 v=65
12120 On ch=1 n=c#5 v=65
12240 On ch=1 n=a5 v=0
12240 On ch=1 n=e5 v=0
12240 On ch=1 n=c#5 v=0
12240 On ch=1 n=a3 v=65
12360 On ch=1 n=a3 v=0
12360 On ch=1 n=e5 v=77
12360 On ch=1 n=c#5 v=77
12360 On ch=1 n=a4 v=77
12480 On ch=1 n=e5 v=0
12480 On ch=1 n=c#5 v=0
12480 On ch=1 n=a4 v=0
12480 On ch=1 n=a4 v=89
12480 On ch=1 n=c#5 v=89
12480 On ch=1 n=e5 v=89
12600 On ch=1 n=a4 v=0
12600 On ch=1 n=c#5 v=0
12600 On ch=1 n=e5 v=0
12600 On ch=1 n=a3 v=102
12660 Par ch=1 c=64 v=0
12720 On ch=1 n=a3 v=0
12720 On ch=1 n=e5 v=102
12720 On ch=1 n=c#5 v=102
12720 On ch=1 n=a4 v=102
12840 On ch=1 n=e5 v=0
12840 On ch=1 n=c#5 v=0
12840 On ch=1 n=a4 v=0
12840 On ch=1 n=g4 v=102
12840 On ch=1 n=c#5 v=102
12840 On ch=1 n=e5 v=102
12960 On ch=1 n=g4 v=0
12960 On ch=1 n=g4 v=0
12960 On ch=1 n=c#5 v=0
12960 On ch=1 n=e5 v=0
12960 On ch=1 n=d3 v=102
13080 On ch=1 n=d3 v=0
13080 On ch=1 n=d5 v=102
13080 On ch=1 n=a4 v=102
13080 On ch=1 n=f#4 v=102
13200 On ch=1 n=d5 v=0
13200 On ch=1 n=a4 v=0
13200 On ch=1 n=f#4 v=0
13200 On ch=1 n=d5 v=102
13200 On ch=1 n=a4 v=102
13200 On ch=1 n=f#4 v=102
13320 On ch=1 n=d5 v=0
13320 On ch=1 n=a4 v=0
13320 On ch=1 n=f#4 v=0
13320 On ch=1 n=d3 v=102
13440 On ch=1 n=d3 v=0
13440 On ch=1 n=a5 v=115
13440 On ch=1 n=f#5 v=115
13440 On ch=1 n=d5 v=115
13440 On ch=1 n=a4 v=115
13680 On ch=1 n=a5 v=0
13680 On ch=1 n=f#5 v=0
13680 On ch=1 n=d5 v=0
13680 On ch=1 n=a4 v=0
25800 On ch=1 n=a2 v=115
25800 On ch=1 n=a3 v=115
26160 On ch=1 n=a2 v=0
26160 On ch=1 n=a3 v=0
26160 On ch=1 n=e3 v=115
26160 On ch=1 n=e4 v=115
26520 On ch=1 n=e3 v=0
26520 On ch=1 n=e4 v=0
26520 On ch=1 n=a3 v=115
26520 On ch=1 n=a4 v=115
26880 On ch=1 n=a3 v=0
26880 On ch=1 n=a4 v=0
26880 On ch=1 n=c#4 v=115
26880 On ch=1 n=c#5 v=115
27240 On ch=1 n=c#4 v=0
27240 On ch=1 n=c#5 v=0
27240 On ch=1 n=f#4 v=115
27240 On ch=1 n=f#5 v=115
27480 On ch=1 n=f#4 v=0
27480 On ch=1 n=f#5 v=0
27600 On ch=1 n=f3 v=115
27600 On ch=1 n=f4 v=115
27840 On ch=1 n=f3 v=0
27840 On ch=1 n=f4 v=0
27840 On ch=1 n=e3 v=115
27840 On ch=1 n=e4 v=102
27960 On ch=1 n=e3 v=0
27960 On ch=1 n=e4 v=0
28080 On ch=1 n=e4 v=115
28080 On ch=1 n=b4 v=115
28200 On ch=1 n=e4 v=0
28200 On ch=1 n=b4 v=0
28200 On ch=1 n=e4 v=115
28200 On ch=1 n=b4 v=115
28320 On ch=1 n=e4 v=0
28320 On ch=1 n=b4 v=0
28320 On ch=1 n=c#4 v=115
28320 On ch=1 n=a4 v=115
28440 On ch=1 n=c#4 v=0
28440 On ch=1 n=a4 v=0
28680 On ch=1 n=a2 v=115
28680 On ch=1 n=a3 v=115
29040 On ch=1 n=a2 v=0
29040 On ch=1 n=a3 v=0
29040 On ch=1 n=e3 v=115
29040 On ch=1 n=e4 v=115
29400 On ch=1 n=e3 v=0
29400 On ch=1 n=e4 v=0
29400 On ch=1 n=a3 v=115
29400 On ch=1 n=a4 v=115
29760 On ch=1 n=a3 v=0
29760 On ch=1 n=a4 v=0
29760 On ch=1 n=c#4 v=115
29760 On ch=1 n=c#5 v=115
30120 On ch=1 n=c#4 v=0
30120 On ch=1 n=c#5 v=0
30120 On ch=1 n=f#4 v=115
30120 On ch=1 n=f#5 v=115
30360 On ch=1 n=f#4 v=0
30360 On ch=1 n=f#5 v=0
30480 On ch=1 n=f3 v=115
30480 On ch=1 n=f4 v=115
30720 On ch=1 n=f3 v=0
30720 On ch=1 n=f4 v=0
30720 On ch=1 n=e3 v=115
30720 On ch=1 n=e4 v=102
30840 On ch=1 n=e3 v=0
30840 On ch=1 n=e4 v=0
30960 On ch=1 n=e4 v=115
30960 On ch=1 n=b4 v=115
31080 On ch=1 n=e4 v=0
31080 On ch=1 n=b4 v=0
31080 On ch=1 n=e4 v=115
31080 On ch=1 n=b4 v=115
31200 On ch=1 n=e4 v=0
31200 On ch=1 n=b4 v=0
31200 On ch=1 n=c#4 v=115
31200 On ch=1 n=a4 v=115
31320 On ch=1 n=c#4 v=0
31320 On ch=1 n=a4 v=0
32160 On ch=1 n=c#3 v=127
32160 On ch=1 n=c#4 v=127
32280 On ch=1 n=c#3 v=0
32280 On ch=1 n=c#4 v=0
32280 On ch=1 n=f#3 v=127
32280 On ch=1 n=f#4 v=127
32400 On ch=1 n=f#3 v=0
32400 On ch=1 n=f#4 v=0
32400 On ch=1 n=g#3 v=127
32400 On ch=1 n=g#4 v=127
32520 On ch=1 n=g#3 v=0
32520 On ch=1 n=g#4 v=0
32520 On ch=1 n=a3 v=127
32520 On ch=1 n=a4 v=127
32640 On ch=1 n=a3 v=0
32640 On ch=1 n=a4 v=0
32640 On ch=1 n=g#3 v=127
32640 On ch=1 n=g#4 v=127
32760 On ch=1 n=g#3 v=0
32760 On ch=1 n=g#4 v=0
32760 On ch=1 n=c#4 v=127
32760 On ch=1 n=c#5 v=127
32880 On ch=1 n=c#4 v=0
32880 On ch=1 n=c#5 v=0
32880 On ch=1 n=b3 v=127
32880 On ch=1 n=b4 v=127
33000 On ch=1 n=b3 v=0
33000 On ch=1 n=b4 v=0
33000 On ch=1 n=a3 v=127
33000 On ch=1 n=a4 v=127
33120 On ch=1 n=a3 v=0
33120 On ch=1 n=a4 v=0
33120 On ch=1 n=a3 v=127
33120 On ch=1 n=a4 v=127
33180 On ch=1 n=a3 v=0
33180 On ch=1 n=a4 v=0
33180 On ch=1 n=g#3 v=127
33180 On ch=1 n=g#4 v=127
33240 On ch=1 n=g#3 v=0
33240 On ch=1 n=g#4 v=0
33240 On ch=1 n=f#3 v=127
33240 On ch=1 n=f#4 v=127
33360 On ch=1 n=f#3 v=0
33360 On ch=1 n=f#4 v=0
33360 On ch=1 n=e3 v=127
33360 On ch=1 n=e4 v=127
33600 On ch=1 n=e3 v=0
33600 On ch=1 n=e4 v=0
33600 On ch=1 n=d3 v=127
33600 On ch=1 n=d4 v=127
33720 On ch=1 n=d3 v=0
33720 On ch=1 n=d4 v=0
33720 On ch=1 n=c#3 v=127
33720 On ch=1 n=c#4 v=127
33840 On ch=1 n=c#3 v=0
33840 On ch=1 n=c#4 v=0
33840 On ch=1 n=b2 v=127
33840 On ch=1 n=b3 v=127
33960 On ch=1 n=b2 v=0
33960 On ch=1 n=b3 v=0
33960 On ch=1 n=a2 v=127
33960 On ch=1 n=a3 v=127
34080 On ch=1 n=a2 v=0
34080 On ch=1 n=a3 v=0
34080 On ch=1 n=g#2 v=127
34080 On ch=1 n=g#3 v=127
34200 On ch=1 n=g#2 v=0
34200 On ch=1 n=g#3 v=0
34200 On ch=1 n=c#3 v=117
34200 On ch=1 n=c#4 v=117
34320 On ch=1 n=c#3 v=0
34320 On ch=1 n=c#4 v=0
34320 On ch=1 n=b2 v=107
34320 On ch=1 n=b3 v=107
34440 On ch=1 n=b2 v=0
34440 On ch=1 n=b3 v=0
34440 On ch=1 n=a2 v=96
34440 On ch=1 n=a3 v=96
34560 On ch=1 n=a2 v=0
34560 On ch=1 n=a3 v=0
34560 On ch=1 n=a2 v=86
34560 On ch=1 n=a3 v=86
34620 On ch=1 n=a2 v=0
34620 On ch=1 n=a3 v=0
34620 On ch=1 n=g#2 v=86
34620 On ch=1 n=g#3 v=86
34680 On ch=1 n=g#2 v=0
34680 On ch=1 n=g#3 v=0
34680 On ch=1 n=f#2 v=76
34680 On ch=1 n=f#3 v=76
34800 On ch=1 n=f#2 v=0
34800 On ch=1 n=f#3 v=0
34800 On ch=1 n=f#2 v=65
34800 On ch=1 n=f#3 v=65
35160 On ch=1 n=f#2 v=0
35160 On ch=1 n=f#3 v=0
35340 Par ch=1 c=64 v=127
35340 On ch=1 n=a3 v=65
35400 On ch=1 n=a3 v=0
35460 On ch=1 n=c#5 v=65
35460 On ch=1 n=a4 v=65
35520 On ch=1 n=c#5 v=0
35520 On ch=1 n=a4 v=0
35520 On ch=1 n=a4 v=77
35520 On ch=1 n=c#5 v=77
35640 On ch=1 n=a4 v=0
35640 On ch=1 n=c#5 v=0
35640 On ch=1 n=a4 v=89
35640 On ch=1 n=c#5 v=89
35700 On ch=1 n=a4 v=0
35700 On ch=1 n=c#5 v=0
35700 On ch=1 n=f#5 v=102
35700 On ch=1 n=c#5 v=102
35700 On ch=1 n=a4 v=102
35820 On ch=1 n=c#5 v=0
35820 On ch=1 n=a4 v=0
35820 On ch=1 n=c#5 v=102
35820 On ch=1 n=a4 v=102
35880 On ch=1 n=c#5 v=0
35880 On ch=1 n=a4 v=0
35880 On ch=1 n=c#5 v=102
35880 On ch=1 n=a4 v=102
36000 On ch=1 n=c#5 v=0
36000 On ch=1 n=a4 v=0
36000 On ch=1 n=a4 v=96
36000 On ch=1 n=c#5 v=96
36030 Par ch=1 c=64 v=0
36050 On ch=1 n=f#4 v=90
36057 On ch=1 n=a#4 v=90
36060 On ch=1 n=f#5 v=0
36060 On ch=1 n=a4 v=0
36060 On ch=1 n=c#5 v=0
36064 On ch=1 n=c#5 v=90
36070 On ch=1 n=g5 v=90
36120 On ch=1 n=f#4 v=0
36120 On ch=1 n=a#4 v=0
36120 On ch=1 n=c#5 v=0
36120 On ch=1 n=g5 v=0
36180 On ch=1 n=f#4 v=90
36240 On ch=1 n=f#4 v=0
36240 On ch=1 n=f#5 v=90
36240 On ch=1 n=d5 v=90
36240 On ch=1 n=b4 v=90
36240 On ch=1 n=f#4 v=90
36300 On ch=1 n=f#5 v=0
36300 On ch=1 n=d5 v=0
36300 On ch=1 n=b4 v=0
36300 On ch=1 n=f#4 v=0
36360 On ch=1 n=f#4 v=90
36420 On ch=1 n=f#4 v=0
36420 On ch=1 n=d5 v=90
36420 On ch=1 n=b4 v=90
36420 On ch=1 n=f#4 v=90
36540 On ch=1 n=d5 v=0
36540 On ch=1 n=b4 v=0
36540 On ch=1 n=f#4 v=0
36540 On ch=1 n=d5 v=78
36540 On ch=1 n=a4 v=78
36540 On ch=1 n=f4 v=78
36600 On ch=1 n=d5 v=0
36600 On ch=1 n=a4 v=0
36600 On ch=1 n=f4 v=0
36600 On ch=1 n=d5 v=65
36600 On ch=1 n=g#4 v=65
36600 On ch=1 n=e4 v=65
36720 On ch=1 n=g#4 v=0
36720 On ch=1 n=b4 v=65
36780 On ch=1 n=d5 v=0
36780 On ch=1 n=e4 v=0
36780 On ch=1 n=b4 v=0
36780 Par ch=1 c=64 v=127
36780 On ch=1 n=a3 v=65
36840 On ch=1 n=a3 v=0
36900 On ch=1 n=c#5 v=65
36900 On ch=1 n=a4 v=65
36960 On ch=1 n=c#5 v=0
36960 On ch=1 n=a4 v=0
36960 On ch=1 n=c#5 v=65
36960 On ch=1 n=a4 v=65
37080 On ch=1 n=c#5 v=0
37080 On ch=1 n=a4 v=0
37080 On ch=1 n=a4 v=65
37080 On ch=1 n=c#5 v=65
37140 On ch=1 n=a4 v=0
37140 On ch=1 n=c#5 v=0
37140 On ch=1 n=a4 v=72
37140 On ch=1 n=c#5 v=72
37140 On ch=1 n=f#5 v=72
37260 On ch=1 n=a4 v=0
37260 On ch=1 n=c#5 v=0
37260 On ch=1 n=f#5 v=0
37260 On ch=1 n=a4 v=80
37260 On ch=1 n=c#5 v=80
37260 On ch=1 n=g#5 v=80
37320 On ch=1 n=a4 v=0
37320 On ch=1 n=c#5 v=0
37320 On ch=1 n=g#5 v=0
37320 On ch=1 n=a4 v=87
37320 On ch=1 n=c#5 v=87
37320 On ch=1 n=a5 v=87
37440 On ch=1 n=a4 v=0
37440 On ch=1 n=c#5 v=0
37440 On ch=1 n=a5 v=0
37440 On ch=1 n=a4 v=95
37440 On ch=1 n=c#5 v=95
37440 On ch=1 n=b5 v=95
37470 Par ch=1 c=64 v=0
37500 On ch=1 n=a4 v=0
37500 On ch=1 n=c#5 v=0
37500 On ch=1 n=b5 v=0
37500 Par ch=1 c=64 v=127
37500 On ch=1 n=c#4 v=102
37620 On ch=1 n=c#4 v=0
37620 On ch=1 n=g#5 v=102
37620 On ch=1 n=f5 v=102
37620 On ch=1 n=b4 v=102
37680 On ch=1 n=g#5 v=0
37680 On ch=1 n=f5 v=0
37680 On ch=1 n=b4 v=0
37680 On ch=1 n=g#5 v=102
37680 On ch=1 n=f5 v=102
37680 On ch=1 n=b4 v=102
37800 On ch=1 n=g#5 v=0
37800 On ch=1 n=f5 v=0
37800 On ch=1 n=b4 v=0
37800 On ch=1 n=g#5 v=102
37800 On ch=1 n=f5 v=102
37800 On ch=1 n=b4 v=102
37860 On ch=1 n=g#5 v=0
37860 On ch=1 n=f5 v=0
37860 On ch=1 n=b4 v=0
37860 On ch=1 n=f#3 v=102
37980 On ch=1 n=f#3 v=0
37980 On ch=1 n=f#5 v=102
37980 On ch=1 n=c#5 v=102
37980 On ch=1 n=a#4 v=102
38010 Par ch=1 c=64 v=0
38220 On ch=1 n=f#5 v=0
38220 On ch=1 n=c#5 v=0
38220 On ch=1 n=a#4 v=0
38220 Par ch=1 c=64 v=127
38220 On ch=1 n=a3 v=65
38280 On ch=1 n=a3 v=0
38340 On ch=1 n=c#5 v=65
38340 On ch=1 n=a4 v=65
38400 On ch=1 n=c#5 v=0
38400 On ch=1 n=a4 v=0
38400 On ch=1 n=a4 v=77
38400 On ch=1 n=c#5 v=77
38520 On ch=1 n=a4 v=0
38520 On ch=1 n=c#5 v=0
38520 On ch=1 n=a4 v=89
38520 On ch=1 n=c#5 v=89
38580 On ch=1 n=a4 v=0
38580 On ch=1 n=c#5 v=0
38580 On ch=1 n=f#5 v=102
38580 On ch=1 n=c#5 v=102
38580 On ch=1 n=a4 v=102
38700 On ch=1 n=c#5 v=0
38700 On ch=1 n=a4 v=0
38700 On ch=1 n=c#5 v=102
38700 On ch=1 n=a4 v=102
38760 On ch=1 n=c#5 v=0
38760 On ch=1 n=a4 v=0
38760 On ch=1 n=c#5 v=102
38760 On ch=1 n=a4 v=102
38880 On ch=1 n=c#5 v=0
38880 On ch=1 n=a4 v=0
38880 On ch=1 n=a4 v=96
38880 On ch=1 n=c#5 v=96
38910 Par ch=1 c=64 v=0
38930 On ch=1 n=f#4 v=90
38937 On ch=1 n=a#4 v=90
38940 On ch=1 n=f#5 v=0
38940 On ch=1 n=a4 v=0
38940 On ch=1 n=c#5 v=0
38944 On ch=1 n=c#5 v=90
38950 On ch=1 n=g5 v=90
39000 On ch=1 n=f#4 v=0
39000 On ch=1 n=a#4 v=0
39000 On ch=1 n=c#5 v=0
39000 On ch=1 n=g5 v=0
39060 On ch=1 n=f#4 v=90
39120 On ch=1 n=f#4 v=0
39120 On ch=1 n=f#5 v=90
39120 On ch=1 n=d5 v=90
39120 On ch=1 n=b4 v=90
39120 On ch=1 n=f#4 v=90
39180 On ch=1 n=f#5 v=0
39180 On ch=1 n=d5 v=0
39180 On ch=1 n=b4 v=0
39180 On ch=1 n=f#4 v=0
39240 On ch=1 n=f#4 v=90
39300 On ch=1 n=f#4 v=0
39300 On ch=1 n=d5 v=90
39300 On ch=1 n=b4 v=90
39300 On ch=1 n=f#4 v=90
39420 On ch=1 n=d5 v=0
39420 On ch=1 n=b4 v=0
39420 On ch=1 n=f#4 v=0
39420 On ch=1 n=d5 v=78
39420 On ch=1 n=a4 v=78
39420 On ch=1 n=f4 v=78
39480 On ch=1 n=d5 v=0
39480 On ch=1 n=a4 v=0
39480 On ch=1 n=f4 v=0
39480 On ch=1 n=d5 v=65
39480 On ch=1 n=g#4 v=65
39480 On ch=1 n=e4 v=65
39600 On ch=1 n=g#4 v=0
39600 On ch=1 n=b4 v=65
39660 On ch=1 n=d5 v=0
39660 On ch=1 n=e4 v=0
39660 On ch=1 n=b4 v=0
39660 Par ch=1 c=64 v=127
39660 On ch=1 n=a3 v=65
39720 On ch=1 n=a3 v=0
39780 On ch=1 n=c#5 v=65
39780 On ch=1 n=a4 v=65
39840 On ch=1 n=c#5 v=0
39840 On ch=1 n=a4 v=0
39840 On ch=1 n=c#5 v=65
39840 On ch=1 n=a4 v=65
39960 On ch=1 n=c#5 v=0
39960 On ch=1 n=a4 v=0
39960 On ch=1 n=a4 v=65
39960 On ch=1 n=c#5 v=65
40020 On ch=1 n=a4 v=0
40020 On ch=1 n=c#5 v=0
40020 On ch=1 n=a4 v=72
40020 On ch=1 n=c#5 v=72
40020 On ch=1 n=f#5 v=72
40140 On ch=1 n=a4 v=0
40140 On ch=1 n=c#5 v=0
40140 On ch=1 n=f#5 v=0
40140 On ch=1 n=a4 v=80
40140 On ch=1 n=c#5 v=80
40140 On ch=1 n=g#5 v=80
40200 On ch=1 n=a4 v=0
40200 On ch=1 n=c#5 v=0
40200 On ch=1 n=g#5 v=0
40200 On ch=1 n=a4 v=87
40200 On ch=1 n=c#5 v=87
40200 On ch=1 n=a5 v=87
40320 On ch=1 n=a4 v=0
40320 On ch=1 n=c#5 v=0
40320 On ch=1 n=a5 v=0
40320 On ch=1 n=a4 v=95
40320 On ch=1 n=c#5 v=95
40320 On ch=1 n=b5 v=95
40350 Par ch=1 c=64 v=0
40380 On ch=1 n=a4 v=0
40380 On ch=1 n=c#5 v=0
40380 On ch=1 n=b5 v=0
40380 Par ch=1 c=64 v=127
40380 On ch=1 n=c#4 v=102
40500 On ch=1 n=c#4 v=0
40500 On ch=1 n=g#5 v=102
40500 On ch=1 n=f5 v=102
40500 On ch=1 n=b4 v=102
40560 On ch=1 n=g#5 v=0
40560 On ch=1 n=f5 v=0
40560 On ch=1 n=b4 v=0
40560 On ch=1 n=g#5 v=102
40560 On ch=1 n=f5 v=102
40560 On ch=1 n=b4 v=102
40680 On ch=1 n=g#5 v=0
40680 On ch=1 n=f5 v=0
40680 On ch=1 n=b4 v=0
40680 On ch=1 n=g#5 v=102
40680 On ch=1 n=f5 v=102
40680 On ch=1 n=b4 v=102
40740 On ch=1 n=g#5 v=0
40740 On ch=1 n=f5 v=0
40740 On ch=1 n=b4 v=0
40740 On ch=1 n=f#3 v=102
40860 On ch=1 n=f#3 v=0
40860 On ch=1 n=f#5 v=102
40860 On ch=1 n=c#5 v=102
40860 On ch=1 n=a#4 v=102
40890 Par ch=1 c=64 v=0
40980 On ch=1 n=f#5 v=0
40980 On ch=1 n=c#5 v=0
40980 On ch=1 n=a#4 v=0
41160 On ch=1 n=d#5 v=65
41160 On ch=1 n=a5 v=65
41190 On ch=1 n=d#5 v=0
41190 On ch=1 n=a5 v=0
41340 On ch=1 n=d5 v=65
41340 On ch=1 n=g#5 v=65
41370 On ch=1 n=d5 v=0
41370 On ch=1 n=g#5 v=0
41520 On ch=1 n=a5 v=65
41520 On ch=1 n=c#5 v=65
41550 On ch=1 n=a5 v=0
41550 On ch=1 n=c#5 v=0
41700 On ch=1 n=f#5 v=65
41700 On ch=1 n=d5 v=65
41730 On ch=1 n=f#5 v=0
41730 On ch=1 n=d5 v=0
41880 On ch=1 n=g5 v=68
41880 On ch=1 n=e5 v=68
41910 On ch=1 n=g5 v=0
41910 On ch=1 n=e5 v=0
42060 On ch=1 n=a5 v=74
42060 On ch=1 n=f#5 v=74
42090 On ch=1 n=a5 v=0
42090 On ch=1 n=f#5 v=0
42240 On ch=1 n=f5 v=78
42240 On ch=1 n=a5 v=78
42270 On ch=1 n=f5 v=0
42270 On ch=1 n=a5 v=0
42420 On ch=1 n=g#5 v=53
42420 On ch=1 n=e5 v=53
42450 On ch=1 n=g#5 v=0
42450 On ch=1 n=e5 v=0
42600 On ch=1 n=a5 v=40
42600 On ch=1 n=d#5 v=40
42630 On ch=1 n=a5 v=0
42630 On ch=1 n=d#5 v=0
42780 On ch=1 n=g#5 v=50
42780 On ch=1 n=d5 v=50
42810 On ch=1 n=g#5 v=0
42810 On ch=1 n=d5 v=0
42960 On ch=1 n=c#5 v=60
42960 On ch=1 n=g5 v=60
42990 On ch=1 n=c#5 v=0
42990 On ch=1 n=g5 v=0
43140 On ch=1 n=a5 v=70
43140 On ch=1 n=f#5 v=70
43140 On ch=1 n=b4 v=70
43170 On ch=1 n=a5 v=0
43170 On ch=1 n=f#5 v=0
43170 On ch=1 n=b4 v=0
43320 On ch=1 n=b5 v=80
43320 On ch=1 n=e5 v=80
43350 On ch=1 n=b5 v=0
43350 On ch=1 n=e5 v=0
43500 On ch=1 n=a5 v=90
43500 On ch=1 n=f#5 v=90
43560 On ch=1 n=a5 v=0
43560 On ch=1 n=f#5 v=0
43560 On ch=1 n=c#6 v=90
43560 On ch=1 n=a5 v=90
43620 On ch=1 n=c#6 v=0
43620 On ch=1 n=a5 v=0
43620 On ch=1 n=g#5 v=90
43620 On ch=1 n=b5 v=90
43740 On ch=1 n=g#5 v=0
43740 On ch=1 n=b5 v=0
43740 On ch=1 n=f#5 v=90
43740 On ch=1 n=a5 v=90
43800 On ch=1 n=f#5 v=0
43800 On ch=1 n=a5 v=0
43800 On ch=1 n=c#5 v=90
43800 On ch=1 n=g#5 v=90
44160 On ch=1 n=c#5 v=0
44160 On ch=1 n=g#5 v=0
44160 Par ch=1 c=64 v=127
44160 On ch=1 n=a3 v=65
44220 On ch=1 n=a3 v=0
44280 On ch=1 n=c#5 v=65
44280 On ch=1 n=a4 v=65
44340 On ch=1 n=c#5 v=0
44340 On ch=1 n=a4 v=0
44340 On ch=1 n=a4 v=77
44340 On ch=1 n=c#5 v=77
44460 On ch=1 n=a4 v=0
44460 On ch=1 n=c#5 v=0
44460 On ch=1 n=a4 v=89
44460 On ch=1 n=c#5 v=89
44520 On ch=1 n=a4 v=0
44520 On ch=1 n=c#5 v=0
44520 On ch=1 n=g#5 v=102
44520 On ch=1 n=c#5 v=102
44520 On ch=1 n=a4 v=102
44640 On ch=1 n=c#5 v=0
44640 On ch=1 n=a4 v=0
44640 On ch=1 n=c#5 v=102
44640 On ch=1 n=a4 v=102
44700 On ch=1 n=g#5 v=0
44700 On ch=1 n=c#5 v=0
44700 On ch=1 n=a4 v=0
44700 On ch=1 n=f#5 v=102
44700 On ch=1 n=c#5 v=102
44700 On ch=1 n=a4 v=102
44820 On ch=1 n=c#5 v=0
44820 On ch=1 n=a4 v=0
44820 On ch=1 n=a4 v=96
44820 On ch=1 n=c#5 v=96
44850 Par ch=1 c=64 v=0
44870 On ch=1 n=f#4 v=90
44877 On ch=1 n=a#4 v=90
44880 On ch=1 n=f#5 v=0
44880 On ch=1 n=a4 v=0
44880 On ch=1 n=c#5 v=0
44884 On ch=1 n=c#5 v=90
44890 On ch=1 n=g5 v=90
44940 On ch=1 n=f#4 v=0
44940 On ch=1 n=a#4 v=0
44940 On ch=1 n=c#5 v=0
44940 On ch=1 n=g5 v=0
45000 On ch=1 n=f#4 v=90
45060 On ch=1 n=f#4 v=0
45060 On ch=1 n=f#5 v=90
45060 On ch=1 n=d5 v=90
45060 On ch=1 n=b4 v=90
45060 On ch=1 n=f#4 v=90
45120 On ch=1 n=f#5 v=0
45120 On ch=1 n=d5 v=0
45120 On ch=1 n=b4 v=0
45120 On ch=1 n=f#4 v=0
45180 On ch=1 n=f#4 v=90
45240 On ch=1 n=f#4 v=0
45240 On ch=1 n=d5 v=90
45240 On ch=1 n=b4 v=90
45240 On ch=1 n=f#4 v=90
45360 On ch=1 n=d5 v=0
45360 On ch=1 n=b4 v=0
45360 On ch=1 n=f#4 v=0
45360 On ch=1 n=d5 v=78
45360 On ch=1 n=a4 v=78
45360 On ch=1 n=f4 v=78
45420 On ch=1 n=d5 v=0
45420 On ch=1 n=a4 v=0
45420 On ch=1 n=f4 v=0
45420 On ch=1 n=d5 v=65
45420 On ch=1 n=g#4 v=65
45420 On ch=1 n=e4 v=65
45540 On ch=1 n=g#4 v=0
45540 On ch=1 n=b4 v=65
45600 On ch=1 n=d5 v=0
45600 On ch=1 n=e4 v=0
45600 On ch=1 n=b4 v=0
45600 Par ch=1 c=64 v=127
45600 On ch=1 n=a3 v=65
45660 On ch=1 n=a3 v=0
45720 On ch=1 n=c#5 v=65
45720 On ch=1 n=a4 v=65
45780 On ch=1 n=c#5 v=0
45780 On ch=1 n=a4 v=0
45780 On ch=1 n=c#5 v=65
45780 On ch=1 n=a4 v=65
45900 On ch=1 n=c#5 v=0
45900 On ch=1 n=a4 v=0
45900 On ch=1 n=a4 v=65
45900 On ch=1 n=c#5 v=65
45960 On ch=1 n=a4 v=0
45960 On ch=1 n=c#5 v=0
45960 On ch=1 n=a4 v=72
45960 On ch=1 n=c#5 v=72
45960 On ch=1 n=f#5 v=72
46080 On ch=1 n=a4 v=0
46080 On ch=1 n=c#5 v=0
46080 On ch=1 n=f#5 v=0
46080 On ch=1 n=a4 v=80
46080 On ch=1 n=c#5 v=80
46080 On ch=1 n=g#5 v=80
46140 On ch=1 n=a4 v=0
46140 On ch=1 n=c#5 v=0
46140 On ch=1 n=g#5 v=0
46140 On ch=1 n=a4 v=87
46140 On ch=1 n=c#5 v=87
46140 On ch=1 n=a5 v=87
46260 On ch=1 n=a4 v=0
46260 On ch=1 n=c#5 v=0
46260 On ch=1 n=a5 v=0
46260 On ch=1 n=a4 v=95
46260 On ch=1 n=c#5 v=95
46260 On ch=1 n=b5 v=95
46290 Par ch=1 c=64 v=0
46320 On ch=1 n=a4 v=0
46320 On ch=1 n=c#5 v=0
46320 On ch=1 n=b5 v=0
46320 Par ch=1 c=64 v=127
46320 On ch=1 n=c#4 v=102
46440 On ch=1 n=c#4 v=0
46440 On ch=1 n=g#5 v=102
46440 On ch=1 n=f5 v=102
46440 On ch=1 n=b4 v=102
46500 On ch=1 n=g#5 v=0
46500 On ch=1 n=f5 v=0
46500 On ch=1 n=b4 v=0
46500 On ch=1 n=g#5 v=127
46500 On ch=1 n=f5 v=127
46500 On ch=1 n=b4 v=127
46620 On ch=1 n=g#5 v=0
46620 On ch=1 n=f5 v=0
46620 On ch=1 n=b4 v=0
46620 On ch=1 n=g#5 v=127
46620 On ch=1 n=f5 v=127
46620 On ch=1 n=b4 v=127
46680 On ch=1 n=g#5 v=0
46680 On ch=1 n=f5 v=0
46680 On ch=1 n=b4 v=0
46680 On ch=1 n=f#3 v=127
46800 On ch=1 n=f#3 v=0
46800 On ch=1 n=f#5 v=127
46800 On ch=1 n=c#5 v=127
46800 On ch=1 n=a#4 v=127
46830 Par ch=1 c=64 v=0
46920 On ch=1 n=f#5 v=0
46920 On ch=1 n=c#5 v=0
46920 On ch=1 n=a#4 v=0
47220 On ch=1 n=a#3 v=90
47280 On ch=1 n=a#3 v=0
47280 On ch=1 n=d5 v=92
47280 On ch=1 n=a#4 v=92
47340 On ch=1 n=d5 v=0
47340 On ch=1 n=a#4 v=0
47340 On ch=1 n=f4 v=94
47340 On ch=1 n=d5 v=94
47340 On ch=1 n=a#4 v=94
47400 On ch=1 n=d5 v=0
47400 On ch=1 n=a#4 v=0
47400 On ch=1 n=d5 v=96
47400 On ch=1 n=a#4 v=96
47460 On ch=1 n=d5 v=0
47460 On ch=1 n=a#4 v=0
47460 On ch=1 n=d5 v=98
47460 On ch=1 n=a#4 v=98
47520 On ch=1 n=f4 v=0
47520 On ch=1 n=d5 v=0
47520 On ch=1 n=a#4 v=0
47520 On ch=1 n=f#4 v=100
47520 On ch=1 n=d5 v=100
47520 On ch=1 n=a#4 v=100
47580 On ch=1 n=f#4 v=0
47580 On ch=1 n=d5 v=0
47580 On ch=1 n=a#4 v=0
47580 On ch=1 n=a#3 v=102
47640 On ch=1 n=a#3 v=0
47640 On ch=1 n=d#5 v=102
47640 On ch=1 n=a#4 v=102
47700 On ch=1 n=d#5 v=0
47700 On ch=1 n=a#4 v=0
47700 On ch=1 n=g4 v=102
47700 On ch=1 n=d#5 v=102
47700 On ch=1 n=a#4 v=102
47760 On ch=1 n=d#5 v=0
47760 On ch=1 n=a#4 v=0
47760 On ch=1 n=d#5 v=102
47760 On ch=1 n=b4 v=102
47820 On ch=1 n=d#5 v=0
47820 On ch=1 n=b4 v=0
47820 On ch=1 n=c5 v=102
47820 On ch=1 n=d#5 v=102
47880 On ch=1 n=g4 v=0
47880 On ch=1 n=c5 v=0
47880 On ch=1 n=d#5 v=0
47880 On ch=1 n=f4 v=102
47880 On ch=1 n=a4 v=102
47940 On ch=1 n=f4 v=0
47940 On ch=1 n=a4 v=0
47940 On ch=1 n=a#3 v=102
48000 On ch=1 n=a#3 v=0
48000 On ch=1 n=d5 v=102
48000 On ch=1 n=a#4 v=102
48060 On ch=1 n=d5 v=0
48060 On ch=1 n=a#4 v=0
48060 On ch=1 n=d4 v=102
48060 On ch=1 n=d5 v=102
48060 On ch=1 n=a#4 v=102
48120 On ch=1 n=d5 v=0
48120 On ch=1 n=a#4 v=0
48120 On ch=1 n=d5 v=102
48120 On ch=1 n=a#4 v=102
48180 On ch=1 n=d5 v=0
48180 On ch=1 n=a#4 v=0
48180 On ch=1 n=d5 v=102
48180 On ch=1 n=a#4 v=102
48240 On ch=1 n=d5 v=0
48240 On ch=1 n=a#4 v=0
48240 On ch=1 n=d5 v=102
48240 On ch=1 n=a#4 v=102
48300 On ch=1 n=d4 v=0
48300 On ch=1 n=d5 v=0
48300 On ch=1 n=a#4 v=0
48300 On ch=1 n=c4 v=102
48360 On ch=1 n=c4 v=0
48360 On ch=1 n=d#5 v=102
48360 On ch=1 n=c5 v=102
48420 On ch=1 n=d#5 v=0
48420 On ch=1 n=c5 v=0
48420 On ch=1 n=g4 v=102
48420 On ch=1 n=c5 v=102
48420 On ch=1 n=d#5 v=102
48480 On ch=1 n=c5 v=0
48480 On ch=1 n=d#5 v=0
48480 On ch=1 n=d#5 v=102
48480 On ch=1 n=c5 v=102
48540 On ch=1 n=g4 v=0
48540 On ch=1 n=d#5 v=0
48540 On ch=1 n=c5 v=0
48540 On ch=1 n=f4 v=102
48600 On ch=1 n=d#5 v=102
48600 On ch=1 n=a4 v=102
48660 On ch=1 n=f4 v=0
48660 On ch=1 n=d#5 v=0
48660 On ch=1 n=a4 v=0
48660 On ch=1 n=a#3 v=102
48720 On ch=1 n=a#3 v=0
48720 On ch=1 n=d5 v=102
48720 On ch=1 n=a#4 v=102
48780 On ch=1 n=d5 v=0
48780 On ch=1 n=a#4 v=0
48780 On ch=1 n=f4 v=102
48780 On ch=1 n=d5 v=102
48780 On ch=1 n=a#4 v=102
48840 On ch=1 n=d5 v=0
48840 On ch=1 n=a#4 v=0
48840 On ch=1 n=d5 v=102
48840 On ch=1 n=a#4 v=102
48900 On ch=1 n=d5 v=0
48900 On ch=1 n=a#4 v=0
48900 On ch=1 n=d5 v=102
48900 On ch=1 n=a#4 v=102
48960 On ch=1 n=f4 v=0
48960 On ch=1 n=d5 v=0
48960 On ch=1 n=a#4 v=0
48960 On ch=1 n=f#4 v=102
48960 On ch=1 n=d5 v=102
48960 On ch=1 n=a#4 v=102
49020 On ch=1 n=f#4 v=0
49020 On ch=1 n=d5 v=0
49020 On ch=1 n=a#4 v=0
49020 Par ch=1 c=64 v=127
49020 On ch=1 n=d#4 v=102
49024 On ch=1 n=d#4 v=0
49024 On ch=1 n=g4 v=102
49028 On ch=1 n=a#4 v=102
49032 On ch=1 n=g5 v=102
49125 Par ch=1 c=64 v=0
49140 On ch=1 n=g4 v=0
49140 On ch=1 n=a#4 v=0
49140 On ch=1 n=g5 v=0
49140 Par ch=1 c=64 v=127
49140 On ch=1 n=a#3 v=102
49145 On ch=1 n=a#3 v=0
49145 On ch=1 n=d4 v=102
49150 On ch=1 n=d4 v=0
49150 On ch=1 n=d5 v=102
49200 On ch=1 n=d5 v=0
49200 On ch=1 n=c5 v=102
49230 On ch=1 n=c5 v=0
49230 On ch=1 n=a#4 v=102
49245 Par ch=1 c=64 v=0
49260 On ch=1 n=a#4 v=0
49260 Par ch=1 c=64 v=127
49260 On ch=1 n=f#3 v=102
49265 On ch=1 n=f#3 v=0
49265 On ch=1 n=c4 v=102
49270 On ch=1 n=a4 v=102
49365 Par ch=1 c=64 v=0
49380 On ch=1 n=c4 v=0
49380 On ch=1 n=a4 v=0
49380 Par ch=1 c=64 v=127
49380 On ch=1 n=g3 v=102
49385 On ch=1 n=g3 v=0
49385 On ch=1 n=d4 v=102
49390 On ch=1 n=d4 v=0
49390 On ch=1 n=a#4 v=102
49440 On ch=1 n=a#4 v=0
49440 On ch=1 n=a4 v=102
49470 On ch=1 n=a4 v=0
49470 On ch=1 n=g4 v=102
49485 Par ch=1 c=64 v=0
49500 On ch=1 n=g4 v=0
49500 On ch=1 n=d#3 v=102
49507 On ch=1 n=f#4 v=102
49620 On ch=1 n=d#3 v=0
49620 On ch=1 n=f#4 v=0
49620 On ch=1 n=f3 v=102
49620 On ch=1 n=f4 v=102
49740 On ch=1 n=f3 v=0
49740 On ch=1 n=f4 v=0
49740 On ch=1 n=f3 v=102
49740 On ch=1 n=f4 v=102
49780 On ch=1 n=d4 v=102
49820 On ch=1 n=d4 v=0
49820 On ch=1 n=c4 v=102
49860 On ch=1 n=c4 v=0
49860 On ch=1 n=c4 v=102
49980 On ch=1 n=f3 v=0
49980 On ch=1 n=f4 v=0
49980 On ch=1 n=c4 v=0
49980 On ch=1 n=f4 v=102
49980 On ch=1 n=a#3 v=102
50040 On ch=1 n=f4 v=0
50040 On ch=1 n=a#3 v=0
50100 On ch=1 n=e6 v=120
50100 On ch=1 n=c#6 v=120
50100 On ch=1 n=a#5 v=120
50100 On ch=1 n=g5 v=120
50160 On ch=1 n=e6 v=0
50160 On ch=1 n=c#6 v=0
50160 On ch=1 n=a#5 v=0
50160 On ch=1 n=g5 v=0
50220 On ch=1 n=c#4 v=102
50280 On ch=1 n=c#4 v=0
50280 On ch=1 n=c4 v=90
50310 On ch=1 n=c4 v=0
50310 On ch=1 n=a#3 v=90
50340 On ch=1 n=a#3 v=0
50340 On ch=1 n=a3 v=90
50460 On ch=1 n=a3 v=0
50460 On ch=1 n=d6 v=120
50460 On ch=1 n=b5 v=120
50460 On ch=1 n=g#5 v=120
50460 On ch=1 n=f5 v=120
50520 On ch=1 n=d6 v=0
50520 On ch=1 n=b5 v=0
50520 On ch=1 n=g#5 v=0
50520 On ch=1 n=f5 v=0
50580 On ch=1 n=b3 v=102
50640 On ch=1 n=b3 v=0
50640 On ch=1 n=a#3 v=90
50670 On ch=1 n=a#3 v=0
50670 On ch=1 n=g#3 v=90
50700 On ch=1 n=g#3 v=0
50700 On ch=1 n=g3 v=90
50820 On ch=1 n=g3 v=0
50820 On ch=1 n=a#5 v=120
50820 On ch=1 n=g#5 v=120
50820 On ch=1 n=f5 v=120
50820 On ch=1 n=d5 v=120
50880 On ch=1 n=a#5 v=0
50880 On ch=1 n=g#5 v=0
50880 On ch=1 n=f5 v=0
50880 On ch=1 n=d5 v=0
50940 On ch=1 n=g#3 v=102
51000 On ch=1 n=g#3 v=0
51000 On ch=1 n=f#3 v=90
51030 On ch=1 n=f#3 v=0
51030 On ch=1 n=f3 v=90
51060 On ch=1 n=f3 v=0
51060 On ch=1 n=d#3 v=90
51120 On ch=1 n=d#3 v=0
51120 On ch=1 n=f#3 v=90
51180 On ch=1 n=f#3 v=0
51180 On ch=1 n=a#3 v=90
51420 On ch=1 n=a#3 v=0
51480 On ch=1 n=a#2 v=90
51480 On ch=1 n=a#3 v=90
51540 On ch=1 n=a#2 v=0
51540 On ch=1 n=a#3 v=0
51540 On ch=1 n=g2 v=90
51540 On ch=1 n=g3 v=90
51540 Par ch=1 c=64 v=127
51600 On ch=1 n=g2 v=0
51600 On ch=1 n=g3 v=0
51600 On ch=1 n=d5 v=90
51600 On ch=1 n=b4 v=90
51630 On ch=1 n=d5 v=0
51630 On ch=1 n=b4 v=0
51630 On ch=1 n=b4 v=90
51630 On ch=1 n=d5 v=90
51660 On ch=1 n=b4 v=0
51660 On ch=1 n=d5 v=0
51660 On ch=1 n=d5 v=90
51660 On ch=1 n=b4 v=90
51720 On ch=1 n=d5 v=0
51720 On ch=1 n=b4 v=0
51720 On ch=1 n=b4 v=92
51720 On ch=1 n=d5 v=92
51720 Par ch=1 c=64 v=0
51780 On ch=1 n=b4 v=0
51780 On ch=1 n=d5 v=0
51780 On ch=1 n=d#5 v=93
51780 On ch=1 n=c5 v=93
51840 On ch=1 n=d#5 v=0
51840 On ch=1 n=c5 v=0
51840 On ch=1 n=c#5 v=95
51840 On ch=1 n=e5 v=95
51900 On ch=1 n=c#5 v=0
51900 On ch=1 n=e5 v=0
51900 On ch=1 n=g2 v=96
51907 On ch=1 n=g3 v=96
51960 On ch=1 n=g2 v=0
51960 On ch=1 n=g3 v=0
51960 On ch=1 n=e5 v=96
51960 On ch=1 n=c#5 v=96
51990 On ch=1 n=e5 v=0
51990 On ch=1 n=c#5 v=0
51990 On ch=1 n=c#5 v=96
51990 On ch=1 n=e5 v=96
52020 On ch=1 n=c#5 v=0
52020 On ch=1 n=e5 v=0
52020 On ch=1 n=c#5 v=96
52020 On ch=1 n=e5 v=96
52080 On ch=1 n=c#5 v=0
52080 On ch=1 n=e5 v=0
52080 On ch=1 n=e5 v=98
52080 On ch=1 n=c#5 v=98
52140 On ch=1 n=e5 v=0
52140 On ch=1 n=c#5 v=0
52140 On ch=1 n=f5 v=99
52140 On ch=1 n=d5 v=99
52200 On ch=1 n=f5 v=0
52200 On ch=1 n=d5 v=0
52200 On ch=1 n=g5 v=101
52200 On ch=1 n=d#5 v=101
52260 On ch=1 n=g5 v=0
52260 On ch=1 n=d#5 v=0
52260 On ch=1 n=g3 v=102
52320 On ch=1 n=g3 v=0
52320 On ch=1 n=e5 v=102
52320 On ch=1 n=a#4 v=102
52380 On ch=1 n=e5 v=0
52380 On ch=1 n=a#4 v=0
52380 On ch=1 n=g4 v=108
52380 On ch=1 n=e5 v=108
52380 On ch=1 n=a#4 v=108
52440 On ch=1 n=e5 v=0
52440 On ch=1 n=a#4 v=0
52440 On ch=1 n=e5 v=102
52440 On ch=1 n=a#4 v=102
52500 On ch=1 n=e5 v=0
52500 On ch=1 n=a#4 v=0
52500 On ch=1 n=e5 v=102
52500 On ch=1 n=a#4 v=102
52560 On ch=1 n=e5 v=0
52560 On ch=1 n=a#4 v=0
52560 On ch=1 n=e5 v=102
52560 On ch=1 n=a#4 v=102
52620 On ch=1 n=g4 v=0
52620 On ch=1 n=e5 v=0
52620 On ch=1 n=a#4 v=0
52620 On ch=1 n=c4 v=102
52680 On ch=1 n=c4 v=0
52680 On ch=1 n=e5 v=102
52680 On ch=1 n=c5 v=102
52740 On ch=1 n=e5 v=0
52740 On ch=1 n=c5 v=0
52740 On ch=1 n=g4 v=102
52740 On ch=1 n=c5 v=102
52740 On ch=1 n=e5 v=102
52800 On ch=1 n=c5 v=0
52800 On ch=1 n=e5 v=0
52800 On ch=1 n=e5 v=102
52800 On ch=1 n=c5 v=102
52860 On ch=1 n=e5 v=0
52860 On ch=1 n=c5 v=0
52860 On ch=1 n=c5 v=102
52860 On ch=1 n=e5 v=102
52920 On ch=1 n=c5 v=0
52920 On ch=1 n=e5 v=0
52920 On ch=1 n=e5 v=102
52920 On ch=1 n=c5 v=102
52980 On ch=1 n=g4 v=0
52980 On ch=1 n=e5 v=0
52980 On ch=1 n=c5 v=0
52980 On ch=1 n=f4 v=102
53040 On ch=1 n=f4 v=0
53040 On ch=1 n=a5 v=102
53040 On ch=1 n=d#5 v=102
53100 On ch=1 n=a5 v=0
53100 On ch=1 n=d#5 v=0
53100 On ch=1 n=c5 v=102
53100 On ch=1 n=d#5 v=102
53100 On ch=1 n=a5 v=102
53160 On ch=1 n=d#5 v=0
53160 On ch=1 n=a5 v=0
53160 On ch=1 n=d#5 v=102
53160 On ch=1 n=a5 v=102
53220 On ch=1 n=d#5 v=0
53220 On ch=1 n=a5 v=0
53220 On ch=1 n=d#5 v=102
53220 On ch=1 n=a5 v=102
53280 On ch=1 n=d#5 v=0
53280 On ch=1 n=a5 v=0
53280 On ch=1 n=d#5 v=102
53280 On ch=1 n=a5 v=102
53340 On ch=1 n=c5 v=0
53340 On ch=1 n=d#5 v=0
53340 On ch=1 n=a5 v=0
53340 On ch=1 n=f4 v=102
53400 On ch=1 n=f4 v=0
53400 On ch=1 n=d#5 v=100
53400 On ch=1 n=a5 v=100
53460 On ch=1 n=d#5 v=0
53460 On ch=1 n=a5 v=0
53460 On ch=1 n=c5 v=98
53460 On ch=1 n=a5 v=98
53460 On ch=1 n=d#5 v=98
53520 On ch=1 n=a5 v=0
53520 On ch=1 n=d#5 v=0
53520 On ch=1 n=d#5 v=96
53520 On ch=1 n=a5 v=96
53580 On ch=1 n=d#5 v=0
53580 On ch=1 n=a5 v=0
53580 On ch=1 n=e5 v=94
53580 On ch=1 n=a5 v=94
53640 On ch=1 n=e5 v=0
53640 On ch=1 n=a5 v=0
53640 On ch=1 n=f5 v=92
53640 On ch=1 n=a5 v=92
53700 On ch=1 n=c5 v=0
53700 On ch=1 n=f5 v=0
53700 On ch=1 n=a5 v=0
53700 On ch=1 n=a#3 v=90
53760 On ch=1 n=a#3 v=0
53760 On ch=1 n=d5 v=90
53760 On ch=1 n=a#4 v=90
53820 On ch=1 n=d5 v=0
53820 On ch=1 n=a#4 v=0
53820 On ch=1 n=f4 v=90
53820 On ch=1 n=d5 v=90
53820 On ch=1 n=a#4 v=90
53880 On ch=1 n=d5 v=0
53880 On ch=1 n=a#4 v=0
53880 On ch=1 n=d5 v=90
53880 On ch=1 n=a#4 v=90
53940 On ch=1 n=d5 v=0
53940 On ch=1 n=a#4 v=0
53940 On ch=1 n=d5 v=90
53940 On ch=1 n=a#4 v=90
54000 On ch=1 n=f4 v=0
54000 On ch=1 n=d5 v=0
54000 On ch=1 n=a#4 v=0
54000 On ch=1 n=f#4 v=90
54000 On ch=1 n=d5 v=90
54000 On ch=1 n=a#4 v=90
54060 On ch=1 n=f#4 v=0
54060 On ch=1 n=d5 v=0
54060 On ch=1 n=a#4 v=0
54060 On ch=1 n=a#3 v=90
54120 On ch=1 n=a#3 v=0
54120 On ch=1 n=d#5 v=90
54120 On ch=1 n=a#4 v=90
54180 On ch=1 n=d#5 v=0
54180 On ch=1 n=a#4 v=0
54180 On ch=1 n=g4 v=90
54180 On ch=1 n=a#4 v=90
54180 On ch=1 n=d#5 v=90
54240 On ch=1 n=a#4 v=0
54240 On ch=1 n=d#5 v=0
54240 On ch=1 n=d#5 v=90
54240 On ch=1 n=b4 v=90
54300 On ch=1 n=d#5 v=0
54300 On ch=1 n=b4 v=0
54300 On ch=1 n=c5 v=90
54300 On ch=1 n=d#5 v=90
54360 On ch=1 n=g4 v=0
54360 On ch=1 n=c5 v=0
54360 On ch=1 n=d#5 v=0
54360 On ch=1 n=f4 v=90
54360 On ch=1 n=a4 v=90
54420 On ch=1 n=f4 v=0
54420 On ch=1 n=a4 v=0
54420 On ch=1 n=a#3 v=90
54480 On ch=1 n=a#3 v=0
54480 On ch=1 n=d5 v=90
54480 On ch=1 n=a#4 v=90
54540 On ch=1 n=d5 v=0
54540 On ch=1 n=a#4 v=0
54540 On ch=1 n=d4 v=90
54540 On ch=1 n=d5 v=90
54540 On ch=1 n=a#4 v=90
54600 On ch=1 n=d5 v=0
54600 On ch=1 n=a#4 v=0
54600 On ch=1 n=d5 v=90
54600 On ch=1 n=a#4 v=90
54660 On ch=1 n=d4 v=0
54660 On ch=1 n=d5 v=0
54660 On ch=1 n=a#4 v=0
54660 On ch=1 n=g4 v=90
54660 On ch=1 n=d5 v=90
54660 On ch=1 n=a#4 v=90
54720 On ch=1 n=d5 v=0
54720 On ch=1 n=a#4 v=0
54720 On ch=1 n=d5 v=90
54720 On ch=1 n=a#4 v=90
54780 On ch=1 n=g4 v=0
54780 On ch=1 n=d5 v=0
54780 On ch=1 n=a#4 v=0
54780 On ch=1 n=c4 v=90
54840 On ch=1 n=c4 v=0
54840 On ch=1 n=d#5 v=90
54840 On ch=1 n=c5 v=90
54900 On ch=1 n=d#5 v=0
54900 On ch=1 n=c5 v=0
54900 On ch=1 n=g4 v=90
54900 On ch=1 n=d#5 v=90
54900 On ch=1 n=c5 v=90
54960 On ch=1 n=d#5 v=0
54960 On ch=1 n=c5 v=0
54960 On ch=1 n=d#5 v=90
54960 On ch=1 n=c5 v=90
55020 On ch=1 n=g4 v=0
55020 On ch=1 n=d#5 v=0
55020 On ch=1 n=c5 v=0
55020 On ch=1 n=f4 v=90
55080 On ch=1 n=a4 v=90
55080 On ch=1 n=d#5 v=90
55140 On ch=1 n=f4 v=0
55140 On ch=1 n=a4 v=0
55140 On ch=1 n=d#5 v=0
55140 On ch=1 n=a#3 v=90
55200 On ch=1 n=a#3 v=0
55200 On ch=1 n=d5 v=90
55200 On ch=1 n=a#4 v=90
55260 On ch=1 n=d5 v=0
55260 On ch=1 n=a#4 v=0
55260 On ch=1 n=f4 v=90
55260 On ch=1 n=d5 v=90
55260 On ch=1 n=a#4 v=90
55320 On ch=1 n=d5 v=0
55320 On ch=1 n=a#4 v=0
55320 On ch=1 n=d5 v=53
55320 On ch=1 n=a#4 v=53
55380 On ch=1 n=f4 v=0
55380 On ch=1 n=d5 v=0
55380 On ch=1 n=a#4 v=0
55380 On ch=1 n=g#4 v=53
55380 On ch=1 n=d5 v=53
55380 On ch=1 n=a#4 v=53
55440 On ch=1 n=d5 v=0
55440 On ch=1 n=a#4 v=0
55440 On ch=1 n=d5 v=53
55440 On ch=1 n=a#4 v=53
55500 On ch=1 n=g#4 v=0
55500 On ch=1 n=d5 v=0
55500 On ch=1 n=a#4 v=0
55500 On ch=1 n=g4 v=53
55560 On ch=1 n=d#5 v=53
55560 On ch=1 n=a#4 v=53
55620 On ch=1 n=g4 v=0
55620 On ch=1 n=d#5 v=0
55620 On ch=1 n=a#4 v=0
55620 On ch=1 n=c4 v=53
55625 On ch=1 n=a#4 v=53
55630 On ch=1 n=e5 v=53
55680 On ch=1 n=a#4 v=0
55680 On ch=1 n=e5 v=0
55680 On ch=1 n=a#4 v=53
55680 On ch=1 n=e5 v=53
55740 On ch=1 n=c4 v=0
55740 On ch=1 n=a#4 v=0
55740 On ch=1 n=e5 v=0
55740 On ch=1 n=d#5 v=53
55740 On ch=1 n=a4 v=53
55740 On ch=1 n=f4 v=53
55800 On ch=1 n=d#5 v=0
55800 On ch=1 n=a4 v=0
55800 On ch=1 n=d#5 v=53
55800 On ch=1 n=a4 v=53
55860 On ch=1 n=f4 v=0
55860 On ch=1 n=d#5 v=0
55860 On ch=1 n=a4 v=0
55860 On ch=1 n=d5 v=53
55860 On ch=1 n=a#4 v=53
55920 On ch=1 n=d5 v=0
55920 On ch=1 n=a#4 v=0
55920 On ch=1 n=d5 v=53
55980 On ch=1 n=d5 v=0
55980 On ch=1 n=a#4 v=58
56040 On ch=1 n=a#4 v=0
56040 On ch=1 n=f4 v=63
56100 On ch=1 n=f4 v=0
56100 On ch=1 n=d4 v=68
56160 On ch=1 n=d4 v=0
56160 On ch=1 n=a#3 v=73
56220 On ch=1 n=a#3 v=0
56220 Par ch=1 c=64 v=127
56220 On ch=1 n=f3 v=78
56280 On ch=1 n=f3 v=0
56280 On ch=1 n=a#3 v=73
56340 On ch=1 n=a#3 v=0
56340 On ch=1 n=d4 v=68
56400 On ch=1 n=d4 v=0
56400 On ch=1 n=f4 v=63
56460 On ch=1 n=f4 v=0
56460 On ch=1 n=a#4 v=58
56490 Par ch=1 c=64 v=0
56580 On ch=1 n=a#4 v=0
57180 On ch=1 n=g5 v=127
57180 On ch=1 n=c#5 v=127
57180 On ch=1 n=e5 v=127
57180 On ch=1 n=a#4 v=127
57300 On ch=1 n=a#4 v=0
57300 On ch=1 n=a4 v=90
57360 On ch=1 n=g5 v=0
57360 On ch=1 n=c#5 v=0
57360 On ch=1 n=e5 v=0
57360 On ch=1 n=a4 v=0
57420 On ch=1 n=a3 v=90
57480 On ch=1 n=a3 v=0
57540 On ch=1 n=c#6 v=127
57540 On ch=1 n=e5 v=127
57540 On ch=1 n=g5 v=127
57660 On ch=1 n=c#6 v=0
57660 On ch=1 n=e5 v=0
57660 On ch=1 n=g5 v=0
57660 On ch=1 n=d6 v=90
57660 On ch=1 n=f5 v=90
57720 On ch=1 n=d6 v=0
57720 On ch=1 n=f5 v=0
57780 On ch=1 n=a3 v=90
57840 On ch=1 n=a3 v=0
57900 On ch=1 n=g5 v=127
57900 On ch=1 n=c#5 v=127
57900 On ch=1 n=e5 v=127
57900 On ch=1 n=a#4 v=127
58020 On ch=1 n=g5 v=0
58020 On ch=1 n=c#5 v=0
58020 On ch=1 n=e5 v=0
58020 On ch=1 n=a#4 v=0
58020 On ch=1 n=f5 v=90
58020 On ch=1 n=d5 v=90
58020 On ch=1 n=a4 v=90
58080 On ch=1 n=f5 v=0
58080 On ch=1 n=d5 v=0
58080 On ch=1 n=a4 v=0
58140 On ch=1 n=a3 v=90
58200 On ch=1 n=a3 v=0
58260 On ch=1 n=c#6 v=127
58260 On ch=1 n=e5 v=127
58260 On ch=1 n=g5 v=127
58380 On ch=1 n=c#6 v=0
58380 On ch=1 n=e5 v=0
58380 On ch=1 n=g5 v=0
58380 On ch=1 n=d6 v=90
58380 On ch=1 n=f5 v=90
58440 On ch=1 n=d6 v=0
58440 On ch=1 n=f5 v=0
58500 On ch=1 n=b4 v=102
58500 On ch=1 n=d5 v=102
58500 On ch=1 n=f5 v=102
58500 On ch=1 n=g5 v=102
58620 On ch=1 n=b4 v=0
58620 On ch=1 n=d5 v=0
58620 On ch=1 n=f5 v=0
58620 On ch=1 n=g5 v=0
58620 On ch=1 n=g5 v=110
58620 On ch=1 n=f5 v=110
58620 On ch=1 n=d5 v=110
58620 On ch=1 n=b4 v=110
58740 On ch=1 n=g5 v=0
58740 On ch=1 n=f5 v=0
58740 On ch=1 n=d5 v=0
58740 On ch=1 n=b4 v=0
58740 On ch=1 n=a5 v=118
58740 On ch=1 n=f5 v=118
58740 On ch=1 n=c5 v=118
58980 On ch=1 n=a5 v=0
58980 On ch=1 n=f5 v=0
58980 On ch=1 n=c5 v=0
58980 On ch=1 n=a#5 v=122
58980 On ch=1 n=e5 v=122
58980 On ch=1 n=c5 v=122
59100 On ch=1 n=a#5 v=0
59100 On ch=1 n=e5 v=0
59100 On ch=1 n=c5 v=0
59100 On ch=1 n=a5 v=127
59100 On ch=1 n=f5 v=127
59160 On ch=1 n=a5 v=0
59160 On ch=1 n=f5 v=0
59340 On ch=1 n=g5 v=127
59340 On ch=1 n=c#5 v=127
59340 On ch=1 n=e5 v=127
59340 On ch=1 n=a#4 v=127
59460 On ch=1 n=a#4 v=0
59460 On ch=1 n=a4 v=90
59520 On ch=1 n=g5 v=0
59520 On ch=1 n=c#5 v=0
59520 On ch=1 n=e5 v=0
59520 On ch=1 n=a4 v=0
59580 On ch=1 n=a3 v=90
59640 On ch=1 n=a3 v=0
59700 On ch=1 n=c#6 v=127
59700 On ch=1 n=e5 v=127
59700 On ch=1 n=g5 v=127
59820 On ch=1 n=c#6 v=0
59820 On ch=1 n=e5 v=0
59820 On ch=1 n=g5 v=0
59820 On ch=1 n=d6 v=90
59820 On ch=1 n=f5 v=90
59880 On ch=1 n=d6 v=0
59880 On ch=1 n=f5 v=0
59940 On ch=1 n=a3 v=90
60000 On ch=1 n=a3 v=0
60060 On ch=1 n=g5 v=127
60060 On ch=1 n=c#5 v=127
60060 On ch=1 n=e5 v=127
60060 On ch=1 n=a#4 v=127
60180 On ch=1 n=g5 v=0
60180 On ch=1 n=c#5 v=0
60180 On ch=1 n=e5 v=0
60180 On ch=1 n=a#4 v=0
60180 On ch=1 n=f5 v=90
60180 On ch=1 n=d5 v=90
60180 On ch=1 n=a4 v=90
60240 On ch=1 n=f5 v=0
60240 On ch=1 n=d5 v=0
60240 On ch=1 n=a4 v=0
60300 On ch=1 n=a3 v=90
60360 On ch=1 n=a3 v=0
60420 On ch=1 n=c#6 v=127
60420 On ch=1 n=e5 v=127
60420 On ch=1 n=g5 v=127
60540 On ch=1 n=c#6 v=0
60540 On ch=1 n=e5 v=0
60540 On ch=1 n=g5 v=0
60540 On ch=1 n=d6 v=90
60540 On ch=1 n=f5 v=90
60600 On ch=1 n=d6 v=0
60600 On ch=1 n=f5 v=0
60660 On ch=1 n=b4 v=102
60660 On ch=1 n=d5 v=102
60660 On ch=1 n=f5 v=102
60660 On ch=1 n=g5 v=102
60780 On ch=1 n=b4 v=0
60780 On ch=1 n=d5 v=0
60780 On ch=1 n=f5 v=0
60780 On ch=1 n=g5 v=0
60780 On ch=1 n=g5 v=110
60780 On ch=1 n=f5 v=110
60780 On ch=1 n=d5 v=110
60780 On ch=1 n=b4 v=110
60900 On ch=1 n=g5 v=0
60900 On ch=1 n=f5 v=0
60900 On ch=1 n=d5 v=0
60900 On ch=1 n=b4 v=0
60900 On ch=1 n=a5 v=118
60900 On ch=1 n=f5 v=118
60900 On ch=1 n=c5 v=118
61140 On ch=1 n=a5 v=0
61140 On ch=1 n=f5 v=0
61140 On ch=1 n=c5 v=0
61140 On ch=1 n=a#5 v=122
61140 On ch=1 n=e5 v=122
61140 On ch=1 n=c5 v=122
61260 On ch=1 n=a#5 v=0
61260 On ch=1 n=e5 v=0
61260 On ch=1 n=c5 v=0
61260 On ch=1 n=a5 v=127
61260 On ch=1 n=f5 v=127
61320 On ch=1 n=a5 v=0
61320 On ch=1 n=f5 v=0
61620 On ch=1 n=a2 v=53
61620 On ch=1 n=a3 v=53
61740 On ch=1 n=a2 v=0
61740 On ch=1 n=a3 v=0
61740 On ch=1 n=c#3 v=53
61740 On ch=1 n=c#4 v=53
61860 On ch=1 n=c#3 v=0
61860 On ch=1 n=c#4 v=0
61860 On ch=1 n=e3 v=53
61860 On ch=1 n=e4 v=53
61980 On ch=1 n=e3 v=0
61980 On ch=1 n=e4 v=0
61980 On ch=1 n=a4 v=53
61980 On ch=1 n=a3 v=53
62100 On ch=1 n=a4 v=0
62100 On ch=1 n=a3 v=0
62100 On ch=1 n=c#5 v=53
62100 On ch=1 n=c#4 v=53
62160 On ch=1 n=c#5 v=0
62160 On ch=1 n=c#4 v=0
62160 On ch=1 n=c#4 v=53
62160 On ch=1 n=c#5 v=53
62220 On ch=1 n=c#4 v=0
62220 On ch=1 n=c#5 v=0
62220 On ch=1 n=c#5 v=53
62220 On ch=1 n=c#4 v=53
62280 On ch=1 n=c#5 v=0
62280 On ch=1 n=c#4 v=0
62340 On ch=1 n=d4 v=53
62340 On ch=1 n=d5 v=53
62460 On ch=1 n=d4 v=0
62460 On ch=1 n=d5 v=0
62460 On ch=1 n=c#4 v=53
62460 On ch=1 n=c#5 v=53
62580 On ch=1 n=c#4 v=0
62580 On ch=1 n=c#5 v=0
62580 On ch=1 n=b3 v=53
62580 On ch=1 n=b4 v=53
62700 On ch=1 n=b3 v=0
62700 On ch=1 n=b4 v=0
62700 On ch=1 n=a3 v=53
62700 On ch=1 n=a4 v=53
62820 On ch=1 n=a3 v=0
62820 On ch=1 n=a4 v=0
62820 On ch=1 n=g#3 v=53
62820 On ch=1 n=g#4 v=53
62880 On ch=1 n=g#3 v=0
62880 On ch=1 n=g#4 v=0
62880 On ch=1 n=f#3 v=53
62880 On ch=1 n=f#4 v=53
62940 On ch=1 n=f#3 v=0
62940 On ch=1 n=f#4 v=0
62940 On ch=1 n=e3 v=53
62940 On ch=1 n=e4 v=53
63000 On ch=1 n=e3 v=0
63000 On ch=1 n=e4 v=0
63060 On ch=1 n=a2 v=53
63060 On ch=1 n=a3 v=53
63180 On ch=1 n=a2 v=0
63180 On ch=1 n=a3 v=0
63180 On ch=1 n=c#3 v=53
63180 On ch=1 n=c#4 v=53
63300 On ch=1 n=c#3 v=0
63300 On ch=1 n=c#4 v=0
63300 On ch=1 n=e3 v=53
63300 On ch=1 n=e4 v=53
63420 On ch=1 n=e3 v=0
63420 On ch=1 n=e4 v=0
63420 On ch=1 n=a4 v=53
63420 On ch=1 n=a3 v=53
63540 On ch=1 n=a4 v=0
63540 On ch=1 n=a3 v=0
63540 On ch=1 n=c#5 v=53
63540 On ch=1 n=c#4 v=53
63600 On ch=1 n=c#5 v=0
63600 On ch=1 n=c#4 v=0
63600 On ch=1 n=c#4 v=53
63600 On ch=1 n=c#5 v=53
63660 On ch=1 n=c#4 v=0
63660 On ch=1 n=c#5 v=0
63660 On ch=1 n=c#5 v=53
63660 On ch=1 n=c#4 v=53
63720 On ch=1 n=c#5 v=0
63720 On ch=1 n=c#4 v=0
63780 On ch=1 n=d4 v=53
63780 On ch=1 n=d5 v=53
63900 On ch=1 n=d4 v=0
63900 On ch=1 n=d5 v=0
63900 On ch=1 n=c#4 v=53
63900 On ch=1 n=c#5 v=53
64020 On ch=1 n=c#4 v=0
64020 On ch=1 n=c#5 v=0
64020 On ch=1 n=b3 v=53
64020 On ch=1 n=b4 v=53
64140 On ch=1 n=b3 v=0
64140 On ch=1 n=b4 v=0
64140 On ch=1 n=a3 v=53
64140 On ch=1 n=a4 v=53
64500 On ch=1 n=a3 v=0
64500 On ch=1 n=a4 v=0
64500 On ch=1 n=a2 v=53
64500 On ch=1 n=a3 v=53
64620 On ch=1 n=a2 v=0
64620 On ch=1 n=a3 v=0
64620 On ch=1 n=c#3 v=53
64620 On ch=1 n=c#4 v=53
64740 On ch=1 n=c#3 v=0
64740 On ch=1 n=c#4 v=0
64740 On ch=1 n=e3 v=53
64740 On ch=1 n=e4 v=53
64860 On ch=1 n=e3 v=0
64860 On ch=1 n=e4 v=0
64860 On ch=1 n=a4 v=53
64860 On ch=1 n=a3 v=53
64980 On ch=1 n=a4 v=0
64980 On ch=1 n=a3 v=0
64980 On ch=1 n=c#5 v=53
64980 On ch=1 n=c#4 v=53
65040 On ch=1 n=c#5 v=0
65040 On ch=1 n=c#4 v=0
65040 On ch=1 n=c#4 v=53
65040 On ch=1 n=c#5 v=53
65100 On ch=1 n=c#4 v=0
65100 On ch=1 n=c#5 v=0
65100 On ch=1 n=c#5 v=53
65100 On ch=1 n=c#4 v=53
65160 On ch=1 n=c#5 v=0
65160 On ch=1 n=c#4 v=0
65220 On ch=1 n=d4 v=53
65220 On ch=1 n=d5 v=53
65340 On ch=1 n=d4 v=0
65340 On ch=1 n=d5 v=0
65340 On ch=1 n=c#4 v=53
65340 On ch=1 n=c#5 v=53
65460 On ch=1 n=c#4 v=0
65460 On ch=1 n=c#5 v=0
65460 On ch=1 n=b3 v=53
65460 On ch=1 n=b4 v=53
65580 On ch=1 n=b3 v=0
65580 On ch=1 n=b4 v=0
65580 On ch=1 n=a3 v=53
65580 On ch=1 n=a4 v=53
65700 On ch=1 n=a3 v=0
65700 On ch=1 n=a4 v=0
65700 On ch=1 n=g#3 v=53
65700 On ch=1 n=g#4 v=53
65760 On ch=1 n=g#3 v=0
65760 On ch=1 n=g#4 v=0
65760 On ch=1 n=f#3 v=53
65760 On ch=1 n=f#4 v=53
65820 On ch=1 n=f#3 v=0
65820 On ch=1 n=f#4 v=0
65820 On ch=1 n=e3 v=53
65820 On ch=1 n=e4 v=53
65880 On ch=1 n=e3 v=0
65880 On ch=1 n=e4 v=0
65940 On ch=1 n=a2 v=53
65940 On ch=1 n=a3 v=53
66060 On ch=1 n=a2 v=0
66060 On ch=1 n=a3 v=0
66060 On ch=1 n=c#3 v=53
66060 On ch=1 n=c#4 v=53
66180 On ch=1 n=c#3 v=0
66180 On ch=1 n=c#4 v=0
66180 On ch=1 n=e3 v=53
66180 On ch=1 n=e4 v=53
66300 On ch=1 n=e3 v=0
66300 On ch=1 n=e4 v=0
66300 On ch=1 n=a4 v=53
66300 On ch=1 n=a3 v=53
66420 On ch=1 n=a4 v=0
66420 On ch=1 n=a3 v=0
66420 On ch=1 n=c#5 v=53
66420 On ch=1 n=c#4 v=53
66480 On ch=1 n=c#5 v=0
66480 On ch=1 n=c#4 v=0
66480 On ch=1 n=c#4 v=53
66480 On ch=1 n=c#5 v=53
66540 On ch=1 n=c#4 v=0
66540 On ch=1 n=c#5 v=0
66540 On ch=1 n=c#5 v=53
66540 On ch=1 n=c#4 v=53
66600 On ch=1 n=c#5 v=0
66600 On ch=1 n=c#4 v=0
66660 On ch=1 n=d4 v=53
66660 On ch=1 n=d5 v=53
66780 On ch=1 n=d4 v=0
66780 On ch=1 n=d5 v=0
66780 On ch=1 n=c#4 v=53
66780 On ch=1 n=c#5 v=53
66900 On ch=1 n=c#4 v=0
66900 On ch=1 n=c#5 v=0
66900 On ch=1 n=b3 v=53
66900 On ch=1 n=b4 v=53
67020 On ch=1 n=b3 v=0
67020 On ch=1 n=b4 v=0
67020 On ch=1 n=a3 v=53
67020 On ch=1 n=a4 v=53
67260 On ch=1 n=a3 v=0
67260 On ch=1 n=a4 v=0
67260 On ch=1 n=g5 v=127
67260 On ch=1 n=c#5 v=127
67260 On ch=1 n=e5 v=127
67260 On ch=1 n=a#4 v=127
67380 On ch=1 n=a#4 v=0
67380 On ch=1 n=a4 v=90
67440 On ch=1 n=g5 v=0
67440 On ch=1 n=c#5 v=0
67440 On ch=1 n=e5 v=0
67440 On ch=1 n=a4 v=0
67500 On ch=1 n=a3 v=90
67560 On ch=1 n=a3 v=0
67620 On ch=1 n=c#6 v=127
67620 On ch=1 n=e5 v=127
67620 On ch=1 n=g5 v=127
67740 On ch=1 n=c#6 v=0
67740 On ch=1 n=e5 v=0
67740 On ch=1 n=g5 v=0
67740 On ch=1 n=d6 v=90
67740 On ch=1 n=f5 v=90
67800 On ch=1 n=d6 v=0
67800 On ch=1 n=f5 v=0
67860 On ch=1 n=a3 v=90
67920 On ch=1 n=a3 v=0
67980 On ch=1 n=g5 v=127
67980 On ch=1 n=c#5 v=127
67980 On ch=1 n=e5 v=127
67980 On ch=1 n=a#4 v=127
68100 On ch=1 n=g5 v=0
68100 On ch=1 n=c#5 v=0
68100 On ch=1 n=e5 v=0
68100 On ch=1 n=a#4 v=0
68100 On ch=1 n=f5 v=90
68100 On ch=1 n=d5 v=90
68100 On ch=1 n=a4 v=90
68160 On ch=1 n=f5 v=0
68160 On ch=1 n=d5 v=0
68160 On ch=1 n=a4 v=0
68220 On ch=1 n=a3 v=90
68280 On ch=1 n=a3 v=0
68340 On ch=1 n=c#6 v=127
68340 On ch=1 n=e5 v=127
68340 On ch=1 n=g5 v=127
68460 On ch=1 n=c#6 v=0
68460 On ch=1 n=e5 v=0
68460 On ch=1 n=g5 v=0
68460 On ch=1 n=d6 v=90
68460 On ch=1 n=f5 v=90
68520 On ch=1 n=d6 v=0
68520 On ch=1 n=f5 v=0
68580 On ch=1 n=d5 v=90
68580 On ch=1 n=d4 v=90
68640 On ch=1 n=d5 v=0
68640 On ch=1 n=d4 v=0
68640 On ch=1 n=e5 v=90
68640 On ch=1 n=e4 v=90
68700 On ch=1 n=e5 v=0
68700 On ch=1 n=e4 v=0
68700 On ch=1 n=f5 v=90
68700 On ch=1 n=f4 v=90
68760 On ch=1 n=f5 v=0
68760 On ch=1 n=f4 v=0
68760 On ch=1 n=g5 v=90
68760 On ch=1 n=g4 v=90
68820 On ch=1 n=g5 v=0
68820 On ch=1 n=g4 v=0
68820 On ch=1 n=a5 v=90
68820 On ch=1 n=a4 v=90
69060 On ch=1 n=a5 v=0
69060 On ch=1 n=a4 v=0
69060 On ch=1 n=a2 v=127
69060 On ch=1 n=a3 v=127
69180 On ch=1 n=a2 v=0
69180 On ch=1 n=a3 v=0
69180 On ch=1 n=d3 v=90
69180 On ch=1 n=d4 v=90
69540 On ch=1 n=d4 v=0
69540 On ch=1 n=a#3 v=53
69900 On ch=1 n=d3 v=0
69900 On ch=1 n=a#3 v=0
69900 On ch=1 n=d3 v=53
69900 On ch=1 n=a3 v=53
70260 On ch=1 n=a3 v=0
70260 On ch=1 n=e3 v=53
70620 On ch=1 n=d3 v=0
70620 On ch=1 n=e3 v=0
70620 On ch=1 n=d3 v=53
70620 On ch=1 n=f3 v=53
70860 On ch=1 n=d3 v=0
70860 On ch=1 n=f3 v=0
70980 On ch=1 n=f4 v=90
70980 On ch=1 n=a4 v=90
70980 On ch=1 n=c5 v=90
71220 On ch=1 n=f4 v=0
71220 On ch=1 n=a4 v=0
71220 On ch=1 n=c5 v=0
71220 On ch=1 n=f3 v=90
71280 On ch=1 n=f3 v=0
71340 On ch=1 n=f4 v=90
71340 On ch=1 n=a#4 v=90
71340 On ch=1 n=d5 v=90
71580 On ch=1 n=f4 v=0
71580 On ch=1 n=a#4 v=0
71580 On ch=1 n=d5 v=0
71580 On ch=1 n=a#3 v=90
71640 On ch=1 n=a#3 v=0
71700 On ch=1 n=g4 v=90
71700 On ch=1 n=c5 v=90
71700 On ch=1 n=e5 v=90
71940 On ch=1 n=g4 v=0
71940 On ch=1 n=c5 v=0
71940 On ch=1 n=e5 v=0
71940 On ch=1 n=c4 v=90
72000 On ch=1 n=c4 v=0
72060 On ch=1 n=g4 v=90
72060 On ch=1 n=a4 v=90
72060 On ch=1 n=e5 v=90
72300 On ch=1 n=g4 v=0
72300 On ch=1 n=a4 v=0
72300 On ch=1 n=e5 v=0
72300 On ch=1 n=c#4 v=90
72360 On ch=1 n=c#4 v=0
72420 On ch=1 n=a4 v=90
72420 On ch=1 n=d5 v=90
72420 On ch=1 n=f5 v=90
72660 On ch=1 n=a4 v=0
72660 On ch=1 n=d5 v=0
72660 On ch=1 n=f5 v=0
72660 On ch=1 n=d4 v=90
72720 On ch=1 n=d4 v=0
72780 On ch=1 n=g5 v=90
72780 On ch=1 n=c5 v=90
72780 On ch=1 n=a#4 v=90
73020 On ch=1 n=g5 v=0
73020 On ch=1 n=c5 v=0
73020 On ch=1 n=a#4 v=0
73020 On ch=1 n=e4 v=90
73080 On ch=1 n=e4 v=0
73140 On ch=1 n=f5 v=90
73140 On ch=1 n=c5 v=90
73140 On ch=1 n=a4 v=90
73380 On ch=1 n=f5 v=0
73380 On ch=1 n=c5 v=0
73380 On ch=1 n=a4 v=0
73380 On ch=1 n=f4 v=90
73500 On ch=1 n=f4 v=0
73500 On ch=1 n=e5 v=90
73500 On ch=1 n=c5 v=90
73740 On ch=1 n=e5 v=0
73740 On ch=1 n=c5 v=0
73740 On ch=1 n=c4 v=90
73860 On ch=1 n=c4 v=0
73860 On ch=1 n=f4 v=90
73860 On ch=1 n=a4 v=90
73860 On ch=1 n=c5 v=90
74100 On ch=1 n=f4 v=0
74100 On ch=1 n=a4 v=0
74100 On ch=1 n=c5 v=0
74100 On ch=1 n=f3 v=90
74160 On ch=1 n=f3 v=0
74220 On ch=1 n=f4 v=90
74220 On ch=1 n=a#4 v=90
74220 On ch=1 n=d5 v=90
74460 On ch=1 n=f4 v=0
74460 On ch=1 n=a#4 v=0
74460 On ch=1 n=d5 v=0
74460 On ch=1 n=a#3 v=90
74520 On ch=1 n=a#3 v=0
74580 On ch=1 n=g4 v=90
74580 On ch=1 n=c5 v=90
74580 On ch=1 n=e5 v=90
74820 On ch=1 n=g4 v=0
74820 On ch=1 n=c5 v=0
74820 On ch=1 n=e5 v=0
74820 On ch=1 n=c4 v=90
74880 On ch=1 n=c4 v=0
74940 On ch=1 n=g4 v=90
74940 On ch=1 n=a4 v=90
74940 On ch=1 n=e5 v=90
75180 On ch=1 n=g4 v=0
75180 On ch=1 n=a4 v=0
75180 On ch=1 n=e5 v=0
75180 On ch=1 n=c#4 v=90
75240 On ch=1 n=c#4 v=0
75300 On ch=1 n=a4 v=90
75300 On ch=1 n=d5 v=90
75300 On ch=1 n=f5 v=90
75540 On ch=1 n=a4 v=0
75540 On ch=1 n=d5 v=0
75540 On ch=1 n=f5 v=0
75540 On ch=1 n=d4 v=90
75600 On ch=1 n=d4 v=0
75660 On ch=1 n=g5 v=90
75660 On ch=1 n=c5 v=90
75660 On ch=1 n=a#4 v=90
75900 On ch=1 n=g5 v=0
75900 On ch=1 n=c5 v=0
75900 On ch=1 n=a#4 v=0
75900 On ch=1 n=e4 v=90
75960 On ch=1 n=e4 v=0
76140 On ch=1 n=a4 v=98
76140 On ch=1 n=f5 v=98
76260 On ch=1 n=a4 v=0
76260 On ch=1 n=f5 v=0
76260 On ch=1 n=c5 v=106
76260 On ch=1 n=e5 v=106
76260 On ch=1 n=g5 v=106
76380 On ch=1 n=c5 v=0
76380 On ch=1 n=e5 v=0
76380 On ch=1 n=g5 v=0
76380 On ch=1 n=a5 v=115
76380 On ch=1 n=f5 v=115
76620 On ch=1 n=a5 v=0
76620 On ch=1 n=f5 v=0
76620 On ch=1 n=g5 v=127
76620 On ch=1 n=c#5 v=127
76620 On ch=1 n=e5 v=127
76620 On ch=1 n=a#4 v=127
76740 On ch=1 n=a#4 v=0
76740 On ch=1 n=a4 v=90
76800 On ch=1 n=g5 v=0
76800 On ch=1 n=c#5 v=0
76800 On ch=1 n=e5 v=0
76800 On ch=1 n=a4 v=0
76860 On ch=1 n=a3 v=115
76920 On ch=1 n=a3 v=0
76980 On ch=1 n=c#6 v=127
76980 On ch=1 n=e5 v=127
76980 On ch=1 n=g5 v=127
77100 On ch=1 n=c#6 v=0
77100 On ch=1 n=e5 v=0
77100 On ch=1 n=g5 v=0
77100 On ch=1 n=d6 v=90
77100 On ch=1 n=f5 v=90
77160 On ch=1 n=d6 v=0
77160 On ch=1 n=f5 v=0
77220 On ch=1 n=a3 v=115
77280 On ch=1 n=a3 v=0
77340 On ch=1 n=g5 v=127
77340 On ch=1 n=c#5 v=127
77340 On ch=1 n=e5 v=127
77340 On ch=1 n=a#4 v=127
77460 On ch=1 n=g5 v=0
77460 On ch=1 n=c#5 v=0
77460 On ch=1 n=e5 v=0
77460 On ch=1 n=a#4 v=0
77460 On ch=1 n=f5 v=90
77460 On ch=1 n=d5 v=90
77460 On ch=1 n=a4 v=90
77520 On ch=1 n=f5 v=0
77520 On ch=1 n=d5 v=0
77520 On ch=1 n=a4 v=0
77580 On ch=1 n=a3 v=115
77640 On ch=1 n=a3 v=0
77700 On ch=1 n=c#6 v=127
77700 On ch=1 n=e5 v=127
77700 On ch=1 n=g5 v=127
77820 On ch=1 n=c#6 v=0
77820 On ch=1 n=e5 v=0
77820 On ch=1 n=g5 v=0
77820 On ch=1 n=d6 v=90
77820 On ch=1 n=f5 v=90
77880 On ch=1 n=d6 v=0
77880 On ch=1 n=f5 v=0
77940 On ch=1 n=d5 v=127
77940 On ch=1 n=d4 v=127
78000 On ch=1 n=d5 v=0
78000 On ch=1 n=d4 v=0
78000 On ch=1 n=e5 v=127
78000 On ch=1 n=e4 v=127
78060 On ch=1 n=e5 v=0
78060 On ch=1 n=e4 v=0
78060 On ch=1 n=f5 v=127
78060 On ch=1 n=f4 v=127
78120 On ch=1 n=f5 v=0
78120 On ch=1 n=f4 v=0
78120 On ch=1 n=g5 v=127
78120 On ch=1 n=g4 v=127
78180 On ch=1 n=g5 v=0
78180 On ch=1 n=g4 v=0
78180 On ch=1 n=a5 v=127
78180 On ch=1 n=a4 v=127
78420 On ch=1 n=a5 v=0
78420 On ch=1 n=a4 v=0
78420 On ch=1 n=a2 v=127
78420 On ch=1 n=a3 v=127
78540 On ch=1 n=a2 v=0
78540 On ch=1 n=a3 v=0
78540 On ch=1 n=d3 v=90
78540 On ch=1 n=d4 v=90
78600 On ch=1 n=d3 v=0
78600 On ch=1 n=d4 v=0
79073 On ch=1 n=f4 v=53
79080 On ch=1 n=g#4 v=53
79087 On ch=1 n=c5 v=53
79140 On ch=1 n=f4 v=0
79140 On ch=1 n=g#4 v=0
79140 On ch=1 n=c5 v=0
79253 On ch=1 n=f4 v=53
79260 On ch=1 n=c5 v=53
79267 On ch=1 n=g#5 v=53
79440 On ch=1 n=g#5 v=0
79440 On ch=1 n=a#4 v=53
79440 On ch=1 n=e5 v=53
79500 On ch=1 n=f4 v=0
79500 On ch=1 n=c5 v=0
79500 On ch=1 n=a#4 v=0
79500 On ch=1 n=e5 v=0
79609 On ch=1 n=f4 v=53
79616 On ch=1 n=g#4 v=53
79623 On ch=1 n=c#5 v=53
79630 On ch=1 n=f5 v=53
79800 On ch=1 n=c#5 v=0
79800 On ch=1 n=c5 v=53
79860 On ch=1 n=f4 v=0
79860 On ch=1 n=f5 v=0
79860 On ch=1 n=c5 v=0
79867 On ch=1 n=g#4 v=0
79973 On ch=1 n=f4 v=53
79980 On ch=1 n=c5 v=53
79987 On ch=1 n=g#5 v=53
80160 On ch=1 n=g#5 v=0
80160 On ch=1 n=a#4 v=53
80160 On ch=1 n=e5 v=53
80220 On ch=1 n=f4 v=0
80220 On ch=1 n=c5 v=0
80220 On ch=1 n=a#4 v=0
80220 On ch=1 n=e5 v=0
80329 On ch=1 n=f4 v=53
80336 On ch=1 n=b4 v=53
80343 On ch=1 n=d5 v=53
80350 On ch=1 n=g#5 v=53
80513 On ch=1 n=f4 v=0
80513 On ch=1 n=f4 v=53
80520 On ch=1 n=b4 v=0
80520 On ch=1 n=d5 v=0
80520 On ch=1 n=g#5 v=0
80520 On ch=1 n=g#4 v=53
80527 On ch=1 n=c5 v=53
80580 On ch=1 n=f4 v=0
80580 On ch=1 n=g#4 v=0
80580 On ch=1 n=c5 v=0
80693 On ch=1 n=f4 v=53
80700 On ch=1 n=c5 v=53
80707 On ch=1 n=g#5 v=53
80880 On ch=1 n=g#5 v=0
80880 On ch=1 n=a#4 v=53
80880 On ch=1 n=e5 v=53
80940 On ch=1 n=f4 v=0
80940 On ch=1 n=c5 v=0
80940 On ch=1 n=a#4 v=0
80940 On ch=1 n=e5 v=0
81049 On ch=1 n=f4 v=53
81056 On ch=1 n=g#4 v=53
81063 On ch=1 n=c#5 v=53
81070 On ch=1 n=f5 v=53
81240 On ch=1 n=c#5 v=0
81240 On ch=1 n=c5 v=53
81300 On ch=1 n=f4 v=0
81300 On ch=1 n=f5 v=0
81300 On ch=1 n=c5 v=0
81307 On ch=1 n=g#4 v=0
81413 On ch=1 n=f4 v=53
81420 On ch=1 n=c5 v=53
81427 On ch=1 n=g#5 v=53
81600 On ch=1 n=g#5 v=0
81600 On ch=1 n=a#4 v=53
81600 On ch=1 n=e5 v=53
81660 On ch=1 n=f4 v=0
81660 On ch=1 n=c5 v=0
81660 On ch=1 n=a#4 v=0
81660 On ch=1 n=e5 v=0
81769 On ch=1 n=f4 v=53
81776 On ch=1 n=b4 v=53
81783 On ch=1 n=d5 v=53
81790 On ch=1 n=g#5 v=53
81960 On ch=1 n=f4 v=0
81960 On ch=1 n=b4 v=0
81960 On ch=1 n=d5 v=0
81960 On ch=1 n=g#5 v=0
81960 On ch=1 n=g#3 v=90
81990 On ch=1 n=d#4 v=90
82020 On ch=1 n=d#4 v=0
82020 On ch=1 n=g#4 v=90
82050 On ch=1 n=g#4 v=0
82050 On ch=1 n=c5 v=90
82080 On ch=1 n=c5 v=0
82080 On ch=1 n=g#4 v=90
82110 On ch=1 n=g#4 v=0
82110 On ch=1 n=d#4 v=90
82140 On ch=1 n=g#3 v=0
82140 On ch=1 n=d#4 v=0
82140 On ch=1 n=a#3 v=90
82170 On ch=1 n=d#4 v=90
82200 On ch=1 n=d#4 v=0
82200 On ch=1 n=a#4 v=90
82230 On ch=1 n=a#4 v=0
82230 On ch=1 n=c#5 v=90
82260 On ch=1 n=c#5 v=0
82260 On ch=1 n=a#4 v=90
82290 On ch=1 n=a#4 v=0
82290 On ch=1 n=d#4 v=90
82320 On ch=1 n=a#3 v=0
82320 On ch=1 n=d#4 v=0
82320 On ch=1 n=c4 v=90
82350 On ch=1 n=d#4 v=90
82380 On ch=1 n=d#4 v=0
82380 On ch=1 n=g#4 v=90
82410 On ch=1 n=g#4 v=0
82410 On ch=1 n=d#5 v=90
82440 On ch=1 n=d#5 v=0
82440 On ch=1 n=g#4 v=90
82470 On ch=1 n=g#4 v=0
82470 On ch=1 n=d#4 v=90
82500 On ch=1 n=c4 v=0
82500 On ch=1 n=d#4 v=0
82500 On ch=1 n=c#4 v=90
82530 On ch=1 n=g#4 v=90
82560 On ch=1 n=g#4 v=0
82560 On ch=1 n=a#4 v=90
82590 On ch=1 n=a#4 v=0
82590 On ch=1 n=f5 v=90
82620 On ch=1 n=f5 v=0
82620 On ch=1 n=a#4 v=90
82650 On ch=1 n=a#4 v=0
82650 On ch=1 n=g#4 v=90
82680 On ch=1 n=c#4 v=0
82680 On ch=1 n=g#4 v=0
82680 On ch=1 n=d#4 v=90
82710 On ch=1 n=g#4 v=90
82740 On ch=1 n=g#4 v=0
82740 On ch=1 n=c5 v=90
82770 On ch=1 n=c5 v=0
82770 On ch=1 n=d#5 v=90
82800 On ch=1 n=d#5 v=0
82800 On ch=1 n=c5 v=90
82830 On ch=1 n=c5 v=0
82830 On ch=1 n=g#4 v=90
82860 On ch=1 n=d#4 v=0
82860 On ch=1 n=g#4 v=0
82860 On ch=1 n=d#3 v=90
82890 On ch=1 n=a#3 v=90
82920 On ch=1 n=a#3 v=0
82920 On ch=1 n=d#4 v=90
82950 On ch=1 n=d#4 v=0
82950 On ch=1 n=g4 v=90
82980 On ch=1 n=g4 v=0
82980 On ch=1 n=d#4 v=90
83010 On ch=1 n=d#4 v=0
83010 On ch=1 n=a#3 v=90
83040 On ch=1 n=d#3 v=0
83040 On ch=1 n=a#3 v=0
83040 On ch=1 n=g#3 v=90
83070 On ch=1 n=d#4 v=90
83100 On ch=1 n=d#4 v=0
83100 On ch=1 n=g#4 v=90
83130 On ch=1 n=g#4 v=0
83130 On ch=1 n=c5 v=90
83160 On ch=1 n=c5 v=0
83160 On ch=1 n=g#4 v=90
83190 On ch=1 n=g#4 v=0
83190 On ch=1 n=d#4 v=90
83220 On ch=1 n=g#3 v=0
83220 On ch=1 n=d#4 v=0
83220 On ch=1 n=d#3 v=90
83250 On ch=1 n=a#3 v=90
83280 On ch=1 n=a#3 v=0
83280 On ch=1 n=d#4 v=90
83310 On ch=1 n=d#4 v=0
83310 On ch=1 n=g4 v=90
83340 On ch=1 n=g4 v=0
83340 On ch=1 n=d#4 v=90
83370 On ch=1 n=d#4 v=0
83370 On ch=1 n=a#3 v=90
83400 On ch=1 n=d#3 v=0
83400 On ch=1 n=a#3 v=0
83400 On ch=1 n=g#3 v=90
83430 On ch=1 n=d#4 v=90
83460 On ch=1 n=d#4 v=0
83460 On ch=1 n=g#4 v=90
83490 On ch=1 n=g#4 v=0
83490 On ch=1 n=c5 v=90
83520 On ch=1 n=c5 v=0
83520 On ch=1 n=g#4 v=90
83550 On ch=1 n=g#4 v=0
83550 On ch=1 n=d#4 v=90
83580 On ch=1 n=g#3 v=0
83580 On ch=1 n=d#4 v=0
83580 Par ch=1 c=64 v=90
83580 On ch=1 n=b3 v=90
83610 On ch=1 n=f4 v=90
83640 On ch=1 n=f4 v=0
83640 On ch=1 n=g#4 v=90
83670 On ch=1 n=g#4 v=0
83670 On ch=1 n=d5 v=90
83700 On ch=1 n=d5 v=0
83700 On ch=1 n=g#4 v=90
83730 On ch=1 n=g#4 v=0
83730 On ch=1 n=f4 v=90
83760 On ch=1 n=b3 v=0
83760 On ch=1 n=f4 v=0
83760 Par ch=1 c=64 v=0
83760 On ch=1 n=c4 v=90
83790 On ch=1 n=d#4 v=90
83820 On ch=1 n=d#4 v=0
83820 On ch=1 n=g#4 v=90
83850 On ch=1 n=g#4 v=0
83850 On ch=1 n=d#5 v=90
83880 On ch=1 n=d#5 v=0
83880 On ch=1 n=g#4 v=90
83910 On ch=1 n=g#4 v=0
83910 On ch=1 n=d#4 v=90
83940 On ch=1 n=c4 v=0
83940 On ch=1 n=d#4 v=0
83940 On ch=1 n=c#4 v=90
83970 On ch=1 n=g#4 v=90
84000 On ch=1 n=g#4 v=0
84000 On ch=1 n=a#4 v=90
84030 On ch=1 n=a#4 v=0
84030 On ch=1 n=f5 v=90
84060 On ch=1 n=f5 v=0
84060 On ch=1 n=a#4 v=90
84090 On ch=1 n=a#4 v=0
84090 On ch=1 n=g#4 v=90
84120 On ch=1 n=c#4 v=0
84120 On ch=1 n=g#4 v=0
84120 On ch=1 n=d#4 v=90
84150 On ch=1 n=g#4 v=90
84180 On ch=1 n=g#4 v=0
84180 On ch=1 n=c5 v=90
84210 On ch=1 n=c5 v=0
84210 On ch=1 n=d#5 v=90
84240 On ch=1 n=d#5 v=0
84240 On ch=1 n=c5 v=90
84270 On ch=1 n=c5 v=0
84270 On ch=1 n=g#4 v=90
84300 On ch=1 n=d#4 v=0
84300 On ch=1 n=g#4 v=0
84300 On ch=1 n=d#3 v=90
84330 On ch=1 n=a#3 v=90
84360 On ch=1 n=a#3 v=0
84360 On ch=1 n=d#4 v=90
84390 On ch=1 n=d#4 v=0
84390 On ch=1 n=g#4 v=90
84420 On ch=1 n=g#4 v=0
84420 On ch=1 n=d#4 v=90
84450 On ch=1 n=d#4 v=0
84450 On ch=1 n=c4 v=90
84480 On ch=1 n=d#3 v=0
84480 On ch=1 n=c4 v=0
84480 On ch=1 n=g#3 v=90
84510 On ch=1 n=d#4 v=90
84540 On ch=1 n=d#4 v=0
84540 On ch=1 n=g#4 v=90
84570 On ch=1 n=g#4 v=0
84570 On ch=1 n=c5 v=90
84600 On ch=1 n=g#3 v=0
84600 On ch=1 n=c5 v=0
84600 On ch=1 n=d#5 v=90
84630 On ch=1 n=d#5 v=0
84630 On ch=1 n=g#5 v=90
84660 On ch=1 n=g#5 v=0
84660 On ch=1 n=c6 v=90
84840 On ch=1 n=c6 v=0
85200 On ch=1 n=c#4 v=114
85200 On ch=1 n=c#5 v=114
85260 On ch=1 n=c#4 v=0
85260 On ch=1 n=c#5 v=0
85260 On ch=1 n=c#5 v=114
85260 On ch=1 n=c#4 v=114
85320 On ch=1 n=c#5 v=0
85320 On ch=1 n=c#4 v=0
85320 On ch=1 n=c#4 v=114
85320 On ch=1 n=c#5 v=114
85410 On ch=1 n=c#4 v=0
85410 On ch=1 n=c#5 v=0
85440 On ch=1 n=e4 v=114
85440 On ch=1 n=e5 v=114
85560 On ch=1 n=e4 v=0
85560 On ch=1 n=e5 v=0
85560 On ch=1 n=f#5 v=114
85560 On ch=1 n=f#4 v=114
85680 On ch=1 n=f#5 v=0
85680 On ch=1 n=f#4 v=0
85680 On ch=1 n=e4 v=114
85680 On ch=1 n=e5 v=114
85800 On ch=1 n=e4 v=0
85800 On ch=1 n=e5 v=0
85800 On ch=1 n=d#5 v=114
85800 On ch=1 n=d#4 v=114
85920 On ch=1 n=d#5 v=0
85920 On ch=1 n=d#4 v=0
86040 On ch=1 n=c#4 v=114
86040 On ch=1 n=c#5 v=114
86100 On ch=1 n=c#4 v=0
86100 On ch=1 n=c#5 v=0
86100 On ch=1 n=c#5 v=114
86100 On ch=1 n=c#4 v=114
86160 On ch=1 n=c#5 v=0
86160 On ch=1 n=c#4 v=0
86160 On ch=1 n=c#4 v=114
86160 On ch=1 n=c#5 v=114
86250 On ch=1 n=c#4 v=0
86250 On ch=1 n=c#5 v=0
86280 On ch=1 n=e4 v=114
86280 On ch=1 n=e5 v=114
86400 On ch=1 n=e4 v=0
86400 On ch=1 n=e5 v=0
86400 On ch=1 n=f#5 v=114
86400 On ch=1 n=f#4 v=114
86520 On ch=1 n=f#5 v=0
86520 On ch=1 n=f#4 v=0
86520 On ch=1 n=e4 v=114
86520 On ch=1 n=e5 v=114
86640 On ch=1 n=e4 v=0
86640 On ch=1 n=e5 v=0
86640 On ch=1 n=d#5 v=114
86640 On ch=1 n=d#4 v=114
86760 On ch=1 n=d#5 v=0
86760 On ch=1 n=d#4 v=0
86760 On ch=1 n=c#4 v=114
86760 On ch=1 n=c#5 v=114
86880 On ch=1 n=c#4 v=0
86880 On ch=1 n=c#5 v=0
86880 On ch=1 n=c#3 v=114
86880 On ch=1 n=c#4 v=114
87000 On ch=1 n=c#3 v=0
87000 On ch=1 n=c#4 v=0
87000 On ch=1 n=b4 v=114
87000 On ch=1 n=b3 v=114
87120 On ch=1 n=b4 v=0
87120 On ch=1 n=b3 v=0
87120 On ch=1 n=a3 v=114
87120 On ch=1 n=a4 v=114
87240 On ch=1 n=a3 v=0
87240 On ch=1 n=a4 v=0
87240 On ch=1 n=a2 v=114
87240 On ch=1 n=a3 v=114
87360 On ch=1 n=a2 v=0
87360 On ch=1 n=a3 v=0
87360 On ch=1 n=g#4 v=114
87360 On ch=1 n=g#3 v=114
87480 On ch=1 n=g#4 v=0
87480 On ch=1 n=g#3 v=0
87480 On ch=1 n=f#3 v=114
87480 On ch=1 n=f#4 v=114
87600 On ch=1 n=f#3 v=0
87600 On ch=1 n=f#4 v=0
87600 On ch=1 n=f#2 v=114
87600 On ch=1 n=f#3 v=114
87720 On ch=1 n=f#2 v=0
87720 On ch=1 n=f#3 v=0
87720 On ch=1 n=g2 v=114
87720 On ch=1 n=g3 v=114
87840 On ch=1 n=g2 v=0
87840 On ch=1 n=g3 v=0
87840 On ch=1 n=g#2 v=114
87840 On ch=1 n=g#3 v=114
87900 On ch=1 n=g#2 v=0
87900 On ch=1 n=g#3 v=0
87900 On ch=1 n=g#3 v=114
87900 On ch=1 n=g#2 v=114
87960 On ch=1 n=g#3 v=0
87960 On ch=1 n=g#2 v=0
87960 On ch=1 n=g#2 v=114
87960 On ch=1 n=g#3 v=114
88080 On ch=1 n=g#2 v=0
88080 On ch=1 n=g#3 v=0
88080 On ch=1 n=g#3 v=114
88080 On ch=1 n=g#2 v=114
88200 On ch=1 n=g#3 v=0
88200 On ch=1 n=g#2 v=0
88320 On ch=1 n=c#4 v=114
88320 On ch=1 n=c#5 v=114
88380 On ch=1 n=c#4 v=0
88380 On ch=1 n=c#5 v=0
88380 On ch=1 n=c#5 v=114
88380 On ch=1 n=c#4 v=114
88440 On ch=1 n=c#5 v=0
88440 On ch=1 n=c#4 v=0
88440 On ch=1 n=c#4 v=114
88440 On ch=1 n=c#5 v=114
88530 On ch=1 n=c#4 v=0
88530 On ch=1 n=c#5 v=0
88560 On ch=1 n=e4 v=114
88560 On ch=1 n=e5 v=114
88680 On ch=1 n=e4 v=0
88680 On ch=1 n=e5 v=0
88680 On ch=1 n=f#5 v=114
88680 On ch=1 n=f#4 v=114
88800 On ch=1 n=f#5 v=0
88800 On ch=1 n=f#4 v=0
88800 On ch=1 n=e4 v=114
88800 On ch=1 n=e5 v=114
88920 On ch=1 n=e4 v=0
88920 On ch=1 n=e5 v=0
88920 On ch=1 n=d#5 v=114
88920 On ch=1 n=d#4 v=114
89040 On ch=1 n=d#5 v=0
89040 On ch=1 n=d#4 v=0
89160 On ch=1 n=c#4 v=114
89160 On ch=1 n=c#5 v=114
89220 On ch=1 n=c#4 v=0
89220 On ch=1 n=c#5 v=0
89220 On ch=1 n=c#5 v=114
89220 On ch=1 n=c#4 v=114
89280 On ch=1 n=c#5 v=0
89280 On ch=1 n=c#4 v=0
89280 On ch=1 n=c#4 v=114
89280 On ch=1 n=c#5 v=114
89370 On ch=1 n=c#4 v=0
89370 On ch=1 n=c#5 v=0
89400 On ch=1 n=e4 v=114
89400 On ch=1 n=e5 v=114
89520 On ch=1 n=e4 v=0
89520 On ch=1 n=e5 v=0
89520 On ch=1 n=f#5 v=114
89520 On ch=1 n=f#4 v=114
89640 On ch=1 n=f#5 v=0
89640 On ch=1 n=f#4 v=0
89640 On ch=1 n=e4 v=114
89640 On ch=1 n=e5 v=114
89760 On ch=1 n=e4 v=0
89760 On ch=1 n=e5 v=0
89760 On ch=1 n=d#5 v=114
89760 On ch=1 n=d#4 v=114
89880 On ch=1 n=d#5 v=0
89880 On ch=1 n=d#4 v=0
89880 On ch=1 n=c#4 v=114
89880 On ch=1 n=c#5 v=114
90000 On ch=1 n=c#4 v=0
90000 On ch=1 n=c#5 v=0
90000 On ch=1 n=c#3 v=114
90000 On ch=1 n=c#4 v=114
90120 On ch=1 n=c#3 v=0
90120 On ch=1 n=c#4 v=0
90120 On ch=1 n=b4 v=114
90120 On ch=1 n=b3 v=114
90240 On ch=1 n=b4 v=0
90240 On ch=1 n=b3 v=0
90240 On ch=1 n=a3 v=114
90240 On ch=1 n=a4 v=114
90360 On ch=1 n=a3 v=0
90360 On ch=1 n=a4 v=0
90360 On ch=1 n=a2 v=114
90360 On ch=1 n=a3 v=114
90480 On ch=1 n=a2 v=0
90480 On ch=1 n=a3 v=0
90480 On ch=1 n=g#4 v=114
90480 On ch=1 n=g#3 v=114
90600 On ch=1 n=g#4 v=0
90600 On ch=1 n=g#3 v=0
90600 On ch=1 n=f#3 v=114
90600 On ch=1 n=f#4 v=114
90720 On ch=1 n=f#3 v=0
90720 On ch=1 n=f#4 v=0
90720 On ch=1 n=f#2 v=114
90720 On ch=1 n=f#3 v=114
90840 On ch=1 n=f#2 v=0
90840 On ch=1 n=f#3 v=0
90840 On ch=1 n=g2 v=114
90840 On ch=1 n=g3 v=114
90960 On ch=1 n=g2 v=0
90960 On ch=1 n=g3 v=0
90960 On ch=1 n=g#2 v=114
90960 On ch=1 n=g#3 v=114
91020 On ch=1 n=g#2 v=0
91020 On ch=1 n=g#3 v=0
91020 On ch=1 n=g#3 v=114
91020 On ch=1 n=g#2 v=114
91080 On ch=1 n=g#3 v=0
91080 On ch=1 n=g#2 v=0
91080 On ch=1 n=g#2 v=114
91080 On ch=1 n=g#3 v=114
91200 On ch=1 n=g#2 v=0
91200 On ch=1 n=g#3 v=0
91200 On ch=1 n=g#3 v=114
91200 On ch=1 n=g#2 v=114
91320 On ch=1 n=g#3 v=0
91320 On ch=1 n=g#2 v=0
91560 On ch=1 n=c#4 v=65
91680 On ch=1 n=c#4 v=0
91680 On ch=1 n=f5 v=69
91680 On ch=1 n=c#5 v=69
91680 On ch=1 n=g#4 v=69
91800 On ch=1 n=f5 v=0
91800 On ch=1 n=c#5 v=0
91800 On ch=1 n=g#4 v=0
91800 On ch=1 n=f5 v=73
91800 On ch=1 n=c#5 v=73
91800 On ch=1 n=a4 v=73
91920 On ch=1 n=f5 v=0
91920 On ch=1 n=c#5 v=0
91920 On ch=1 n=a4 v=0
91920 On ch=1 n=f#3 v=78
92040 On ch=1 n=f#3 v=0
92040 On ch=1 n=d#5 v=73
92040 On ch=1 n=c#5 v=73
92040 On ch=1 n=a#4 v=73
92160 On ch=1 n=d#5 v=0
92160 On ch=1 n=c#5 v=0
92160 On ch=1 n=a#4 v=0
92160 On ch=1 n=a#4 v=69
92160 On ch=1 n=c#5 v=69
92160 On ch=1 n=d#5 v=69
92280 On ch=1 n=a#4 v=0
92280 On ch=1 n=c#5 v=0
92280 On ch=1 n=d#5 v=0
92280 On ch=1 n=g3 v=65
92400 On ch=1 n=g3 v=0
92400 On ch=1 n=d#5 v=69
92400 On ch=1 n=c#5 v=69
92400 On ch=1 n=a#4 v=69
92520 On ch=1 n=d#5 v=0
92520 On ch=1 n=c#5 v=0
92520 On ch=1 n=a#4 v=0
92520 On ch=1 n=e5 v=73
92520 On ch=1 n=c#5 v=73
92520 On ch=1 n=a#4 v=73
92640 On ch=1 n=e5 v=0
92640 On ch=1 n=c#5 v=0
92640 On ch=1 n=a#4 v=0
92640 On ch=1 n=g#3 v=78
92760 On ch=1 n=g#3 v=0
92760 On ch=1 n=d#5 v=73
92760 On ch=1 n=c5 v=73
92760 On ch=1 n=g#4 v=73
92880 On ch=1 n=d#5 v=0
92880 On ch=1 n=c5 v=0
92880 On ch=1 n=g#4 v=0
92880 On ch=1 n=g#4 v=69
92880 On ch=1 n=c5 v=69
92880 On ch=1 n=d#5 v=69
93000 On ch=1 n=g#4 v=0
93000 On ch=1 n=c5 v=0
93000 On ch=1 n=d#5 v=0
93000 On ch=1 n=a3 v=65
93120 On ch=1 n=a3 v=0
93120 On ch=1 n=f5 v=69
93120 On ch=1 n=d#5 v=69
93120 On ch=1 n=a4 v=69
93240 On ch=1 n=f5 v=0
93240 On ch=1 n=d#5 v=0
93240 On ch=1 n=a4 v=0
93240 On ch=1 n=f#5 v=73
93240 On ch=1 n=d#5 v=73
93240 On ch=1 n=a4 v=73
93360 On ch=1 n=f#5 v=0
93360 On ch=1 n=d#5 v=0
93360 On ch=1 n=a4 v=0
93360 On ch=1 n=a#3 v=78
93480 On ch=1 n=a#3 v=0
93480 On ch=1 n=f5 v=73
93480 On ch=1 n=c#5 v=73
93480 On ch=1 n=a#4 v=73
93600 On ch=1 n=f5 v=0
93600 On ch=1 n=c#5 v=0
93600 On ch=1 n=a#4 v=0
93600 On ch=1 n=a#4 v=69
93600 On ch=1 n=c#5 v=69
93600 On ch=1 n=f5 v=69
93720 On ch=1 n=a#4 v=0
93720 On ch=1 n=c#5 v=0
93720 On ch=1 n=f5 v=0
93720 On ch=1 n=d#4 v=65
93840 On ch=1 n=d#4 v=0
93840 On ch=1 n=d#5 v=69
93840 On ch=1 n=a#4 v=69
93960 On ch=1 n=d#5 v=0
93960 On ch=1 n=a#4 v=0
93960 On ch=1 n=a#4 v=73
93960 On ch=1 n=d#5 v=73
94080 On ch=1 n=a#4 v=0
94080 On ch=1 n=d#5 v=0
94080 On ch=1 n=g#3 v=78
94200 On ch=1 n=g#3 v=0
94200 On ch=1 n=d#5 v=73
94200 On ch=1 n=g#4 v=73
94320 On ch=1 n=d#5 v=0
94320 On ch=1 n=g#4 v=0
94320 On ch=1 n=g#4 v=69
94320 On ch=1 n=d#5 v=69
94440 On ch=1 n=g#4 v=0
94440 On ch=1 n=d#5 v=0
94440 On ch=1 n=c#4 v=65
94560 On ch=1 n=c#4 v=0
94560 On ch=1 n=f5 v=69
94560 On ch=1 n=c#5 v=69
94560 On ch=1 n=g#4 v=69
94680 On ch=1 n=f5 v=0
94680 On ch=1 n=c#5 v=0
94680 On ch=1 n=g#4 v=0
94680 On ch=1 n=f5 v=73
94680 On ch=1 n=c#5 v=73
94680 On ch=1 n=a4 v=73
94800 On ch=1 n=f5 v=0
94800 On ch=1 n=c#5 v=0
94800 On ch=1 n=a4 v=0
94800 On ch=1 n=f#3 v=78
94920 On ch=1 n=f#3 v=0
94920 On ch=1 n=d#5 v=73
94920 On ch=1 n=c#5 v=73
94920 On ch=1 n=a#4 v=73
95040 On ch=1 n=d#5 v=0
95040 On ch=1 n=c#5 v=0
95040 On ch=1 n=a#4 v=0
95040 On ch=1 n=a#4 v=69
95040 On ch=1 n=c#5 v=69
95040 On ch=1 n=d#5 v=69
95160 On ch=1 n=a#4 v=0
95160 On ch=1 n=c#5 v=0
95160 On ch=1 n=d#5 v=0
95160 On ch=1 n=g3 v=65
95280 On ch=1 n=g3 v=0
95280 On ch=1 n=d#5 v=69
95280 On ch=1 n=c#5 v=69
95280 On ch=1 n=a#4 v=69
95400 On ch=1 n=d#5 v=0
95400 On ch=1 n=c#5 v=0
95400 On ch=1 n=a#4 v=0
95400 On ch=1 n=e5 v=73
95400 On ch=1 n=c#5 v=73
95400 On ch=1 n=a#4 v=73
95520 On ch=1 n=e5 v=0
95520 On ch=1 n=c#5 v=0
95520 On ch=1 n=a#4 v=0
95520 On ch=1 n=g#3 v=78
95640 On ch=1 n=g#3 v=0
95640 On ch=1 n=d#5 v=73
95640 On ch=1 n=c5 v=73
95640 On ch=1 n=g#4 v=73
95760 On ch=1 n=d#5 v=0
95760 On ch=1 n=c5 v=0
95760 On ch=1 n=g#4 v=0
95760 On ch=1 n=g#4 v=69
95760 On ch=1 n=c5 v=69
95760 On ch=1 n=d#5 v=69
95880 On ch=1 n=g#4 v=0
95880 On ch=1 n=c5 v=0
95880 On ch=1 n=d#5 v=0
95880 On ch=1 n=a3 v=65
96000 On ch=1 n=a3 v=0
96000 On ch=1 n=f5 v=69
96000 On ch=1 n=d#5 v=69
96000 On ch=1 n=a4 v=69
96120 On ch=1 n=f5 v=0
96120 On ch=1 n=d#5 v=0
96120 On ch=1 n=a4 v=0
96120 On ch=1 n=f#5 v=73
96120 On ch=1 n=d#5 v=73
96120 On ch=1 n=a4 v=73
96240 On ch=1 n=f#5 v=0
96240 On ch=1 n=d#5 v=0
96240 On ch=1 n=a4 v=0
96240 On ch=1 n=a#3 v=78
96360 On ch=1 n=a#3 v=0
96360 On ch=1 n=f5 v=73
96360 On ch=1 n=c#5 v=73
96360 On ch=1 n=a#4 v=73
96480 On ch=1 n=f5 v=0
96480 On ch=1 n=c#5 v=0
96480 On ch=1 n=a#4 v=0
96480 On ch=1 n=a#4 v=69
96480 On ch=1 n=c#5 v=69
96480 On ch=1 n=f5 v=69
96600 On ch=1 n=a#4 v=0
96600 On ch=1 n=c#5 v=0
96600 On ch=1 n=f5 v=0
96600 On ch=1 n=d#4 v=65
96720 On ch=1 n=d#4 v=0
96720 On ch=1 n=d#5 v=69
96720 On ch=1 n=a#4 v=69
96840 On ch=1 n=d#5 v=0
96840 On ch=1 n=a#4 v=0
96840 On ch=1 n=a#4 v=73
96840 On ch=1 n=d#5 v=73
96960 On ch=1 n=a#4 v=0
96960 On ch=1 n=d#5 v=0
96960 On ch=1 n=g#3 v=78
97080 On ch=1 n=g#3 v=0
97080 On ch=1 n=d#5 v=73
97080 On ch=1 n=g#4 v=73
97200 On ch=1 n=d#5 v=0
97200 On ch=1 n=g#4 v=0
97200 On ch=1 n=g#4 v=69
97200 On ch=1 n=d#5 v=69
97320 On ch=1 n=g#4 v=0
97320 On ch=1 n=d#5 v=0
97320 On ch=1 n=a#5 v=65
97320 On ch=1 n=f#5 v=65
97320 On ch=1 n=d#5 v=65
97320 On ch=1 n=c5 v=65
97377 On ch=1 n=c5 v=65
97380 On ch=1 n=a#5 v=0
97380 On ch=1 n=f#5 v=0
97380 On ch=1 n=d#5 v=0
97380 On ch=1 n=c5 v=0
97380 On ch=1 n=d#5 v=65
97383 On ch=1 n=f#5 v=65
97387 On ch=1 n=a#5 v=65
97440 On ch=1 n=c5 v=0
97440 On ch=1 n=d#5 v=0
97440 On ch=1 n=f#5 v=0
97440 On ch=1 n=a#5 v=0
97440 On ch=1 n=a#5 v=65
97440 On ch=1 n=f#5 v=65
97440 On ch=1 n=d#5 v=65
97440 On ch=1 n=c5 v=65
97560 On ch=1 n=a#5 v=0
97560 On ch=1 n=f#5 v=0
97560 On ch=1 n=d#5 v=0
97560 On ch=1 n=c5 v=0
97560 On ch=1 n=c#5 v=65
97560 On ch=1 n=f5 v=65
97560 On ch=1 n=g#5 v=65
97680 On ch=1 n=c#5 v=0
97680 On ch=1 n=f5 v=0
97680 On ch=1 n=g#5 v=0
97680 On ch=1 n=f#5 v=65
97680 On ch=1 n=d#5 v=65
97680 On ch=1 n=c5 v=65
97680 On ch=1 n=a4 v=65
97737 On ch=1 n=a4 v=65
97740 On ch=1 n=f#5 v=0
97740 On ch=1 n=d#5 v=0
97740 On ch=1 n=c5 v=0
97740 On ch=1 n=a4 v=0
97740 On ch=1 n=c5 v=65
97743 On ch=1 n=d#5 v=65
97747 On ch=1 n=f#5 v=65
97800 On ch=1 n=a4 v=0
97800 On ch=1 n=c5 v=0
97800 On ch=1 n=d#5 v=0
97800 On ch=1 n=f#5 v=0
97800 On ch=1 n=f#5 v=65
97800 On ch=1 n=d#5 v=65
97800 On ch=1 n=c5 v=65
97800 On ch=1 n=a4 v=65
97920 On ch=1 n=f#5 v=0
97920 On ch=1 n=d#5 v=0
97920 On ch=1 n=c5 v=0
97920 On ch=1 n=a4 v=0
97920 On ch=1 n=a#4 v=65
97920 On ch=1 n=c#5 v=65
97920 On ch=1 n=f5 v=65
98040 On ch=1 n=a#4 v=0
98040 On ch=1 n=c#5 v=0
98040 On ch=1 n=f5 v=0
98040 On ch=1 n=d#5 v=65
98040 On ch=1 n=c#5 v=65
98040 On ch=1 n=a#4 v=65
98040 On ch=1 n=g4 v=65
98100 On ch=1 n=d#5 v=0
98100 On ch=1 n=c#5 v=0
98100 On ch=1 n=a#4 v=0
98100 On ch=1 n=g4 v=0
98100 On ch=1 n=g4 v=65
98100 On ch=1 n=a#4 v=65
98100 On ch=1 n=c#5 v=65
98100 On ch=1 n=d#5 v=65
98160 On ch=1 n=g4 v=0
98160 On ch=1 n=a#4 v=0
98160 On ch=1 n=c#5 v=0
98160 On ch=1 n=d#5 v=0
98160 On ch=1 n=d#5 v=65
98160 On ch=1 n=c#5 v=65
98160 On ch=1 n=a#4 v=65
98160 On ch=1 n=g4 v=65
98280 On ch=1 n=d#5 v=0
98280 On ch=1 n=c#5 v=0
98280 On ch=1 n=a#4 v=0
98280 On ch=1 n=g4 v=0
98280 On ch=1 n=g4 v=65
98280 On ch=1 n=a#4 v=65
98280 On ch=1 n=c#5 v=65
98280 On ch=1 n=f5 v=65
98400 On ch=1 n=g4 v=0
98400 On ch=1 n=a#4 v=0
98400 On ch=1 n=c#5 v=0
98400 On ch=1 n=f5 v=0
98400 On ch=1 n=f5 v=65
98400 On ch=1 n=c#5 v=65
98400 On ch=1 n=a#4 v=65
98400 On ch=1 n=g4 v=65
98460 On ch=1 n=f5 v=0
98460 On ch=1 n=c#5 v=0
98460 On ch=1 n=a#4 v=0
98460 On ch=1 n=g4 v=0
98460 On ch=1 n=g#4 v=65
98460 On ch=1 n=c5 v=65
98460 On ch=1 n=d#5 v=65
98520 On ch=1 n=g#4 v=0
98520 On ch=1 n=c5 v=0
98520 On ch=1 n=d#5 v=0
98520 On ch=1 n=d#5 v=65
98520 On ch=1 n=c5 v=65
98520 On ch=1 n=g#4 v=65
98640 On ch=1 n=d#5 v=0
98640 On ch=1 n=c5 v=0
98640 On ch=1 n=g#4 v=0
98640 On ch=1 n=g#4 v=65
98640 On ch=1 n=c5 v=65
98640 On ch=1 n=d#5 v=65
98760 On ch=1 n=g#4 v=0
98760 On ch=1 n=c5 v=0
98760 On ch=1 n=d#5 v=0
98760 On ch=1 n=a#5 v=69
98760 On ch=1 n=f#5 v=69
98760 On ch=1 n=d#5 v=69
98760 On ch=1 n=c5 v=69
98820 On ch=1 n=a#5 v=0
98820 On ch=1 n=f#5 v=0
98820 On ch=1 n=d#5 v=0
98820 On ch=1 n=c5 v=0
98820 On ch=1 n=c5 v=69
98820 On ch=1 n=d#5 v=69
98820 On ch=1 n=f#5 v=69
98820 On ch=1 n=a#5 v=69
98880 On ch=1 n=c5 v=0
98880 On ch=1 n=d#5 v=0
98880 On ch=1 n=f#5 v=0
98880 On ch=1 n=a#5 v=0
98880 On ch=1 n=a#5 v=74
98880 On ch=1 n=f#5 v=74
98880 On ch=1 n=d#5 v=74
98880 On ch=1 n=c5 v=74
99000 On ch=1 n=a#5 v=0
99000 On ch=1 n=f#5 v=0
99000 On ch=1 n=d#5 v=0
99000 On ch=1 n=c5 v=0
99000 On ch=1 n=c#5 v=78
99000 On ch=1 n=f5 v=78
99000 On ch=1 n=g#5 v=78
99120 On ch=1 n=c#5 v=0
99120 On ch=1 n=f5 v=0
99120 On ch=1 n=g#5 v=0
99120 On ch=1 n=f#5 v=83
99120 On ch=1 n=d#5 v=83
99120 On ch=1 n=c5 v=83
99120 On ch=1 n=a4 v=83
99180 On ch=1 n=f#5 v=0
99180 On ch=1 n=d#5 v=0
99180 On ch=1 n=c5 v=0
99180 On ch=1 n=a4 v=0
99180 On ch=1 n=c5 v=83
99180 On ch=1 n=a4 v=83
99180 On ch=1 n=d#5 v=83
99180 On ch=1 n=f#5 v=83
99240 On ch=1 n=c5 v=0
99240 On ch=1 n=a4 v=0
99240 On ch=1 n=d#5 v=0
99240 On ch=1 n=f#5 v=0
99240 On ch=1 n=c5 v=87
99240 On ch=1 n=a4 v=87
99240 On ch=1 n=f#5 v=87
99240 On ch=1 n=d#5 v=87
99360 On ch=1 n=c5 v=0
99360 On ch=1 n=a4 v=0
99360 On ch=1 n=f#5 v=0
99360 On ch=1 n=d#5 v=0
99360 On ch=1 n=a#4 v=92
99360 On ch=1 n=c#5 v=92
99360 On ch=1 n=f5 v=92
99480 On ch=1 n=a#4 v=0
99480 On ch=1 n=c#5 v=0
99480 On ch=1 n=f5 v=0
99480 On ch=1 n=f#4 v=96
99480 On ch=1 n=d#5 v=96
99540 On ch=1 n=f#4 v=0
99540 On ch=1 n=d#5 v=0
99540 On ch=1 n=f#4 v=96
99540 On ch=1 n=d#5 v=96
99600 On ch=1 n=f#4 v=0
99600 On ch=1 n=d#5 v=0
99600 On ch=1 n=e5 v=101
99600 On ch=1 n=c#5 v=101
99600 On ch=1 n=a#4 v=101
99600 On ch=1 n=f#4 v=101
99720 On ch=1 n=e5 v=0
99720 On ch=1 n=c#5 v=0
99720 On ch=1 n=a#4 v=0
99720 On ch=1 n=f#4 v=0
99720 On ch=1 n=e5 v=102
99720 On ch=1 n=c5 v=102
99720 On ch=1 n=a#4 v=102
99720 On ch=1 n=f#4 v=102
99840 On ch=1 n=e5 v=0
99840 On ch=1 n=c5 v=0
99840 On ch=1 n=a#4 v=0
99840 On ch=1 n=f#4 v=0
99840 On ch=1 n=f5 v=102
99840 On ch=1 n=c5 v=102
99840 On ch=1 n=a4 v=102
99840 On ch=1 n=f4 v=65
100080 On ch=1 n=f5 v=0
100080 On ch=1 n=c5 v=0
100080 On ch=1 n=a4 v=0
100080 On ch=1 n=f4 v=0
100080 On ch=1 n=g#3 v=102
100080 On ch=1 n=g#2 v=102
100200 On ch=1 n=g#3 v=0
100200 On ch=1 n=g#2 v=0
100200 On ch=1 n=c#3 v=102
100200 On ch=1 n=c#4 v=102
100320 On ch=1 n=c#3 v=0
100320 On ch=1 n=c#4 v=0
100320 On ch=1 n=f5 v=102
100320 On ch=1 n=c#5 v=102
100320 On ch=1 n=g#4 v=102
100440 On ch=1 n=f5 v=0
100440 On ch=1 n=c#5 v=0
100440 On ch=1 n=g#4 v=0
100440 On ch=1 n=a4 v=108
100440 On ch=1 n=c#5 v=108
100440 On ch=1 n=f5 v=108
100560 On ch=1 n=a4 v=0
100560 On ch=1 n=c#5 v=0
100560 On ch=1 n=f5 v=0
100560 On ch=1 n=f#3 v=102
100680 On ch=1 n=f#3 v=0
100680 On ch=1 n=d#5 v=102
100680 On ch=1 n=c#5 v=102
100680 On ch=1 n=a#4 v=102
100800 On ch=1 n=d#5 v=0
100800 On ch=1 n=c#5 v=0
100800 On ch=1 n=a#4 v=0
100800 On ch=1 n=a#4 v=102
100800 On ch=1 n=c#5 v=102
100800 On ch=1 n=d#5 v=102
100920 On ch=1 n=a#4 v=0
100920 On ch=1 n=c#5 v=0
100920 On ch=1 n=d#5 v=0
100920 On ch=1 n=g3 v=102
101040 On ch=1 n=g3 v=0
101040 On ch=1 n=d#5 v=102
101040 On ch=1 n=c#5 v=102
101040 On ch=1 n=a#4 v=102
101160 On ch=1 n=d#5 v=0
101160 On ch=1 n=c#5 v=0
101160 On ch=1 n=a#4 v=0
101160 On ch=1 n=a#4 v=108
101160 On ch=1 n=c#5 v=108
101160 On ch=1 n=e5 v=108
101280 On ch=1 n=a#4 v=0
101280 On ch=1 n=c#5 v=0
101280 On ch=1 n=e5 v=0
101280 On ch=1 n=g#3 v=102
101400 On ch=1 n=g#3 v=0
101400 On ch=1 n=d#5 v=102
101400 On ch=1 n=c5 v=102
101400 On ch=1 n=g#4 v=102
101520 On ch=1 n=d#5 v=0
101520 On ch=1 n=c5 v=0
101520 On ch=1 n=g#4 v=0
101520 On ch=1 n=g#4 v=102
101520 On ch=1 n=c5 v=102
101520 On ch=1 n=d#5 v=102
101640 On ch=1 n=g#4 v=0
101640 On ch=1 n=c5 v=0
101640 On ch=1 n=d#5 v=0
101640 On ch=1 n=a3 v=102
101760 On ch=1 n=a3 v=0
101760 On ch=1 n=f5 v=102
101760 On ch=1 n=d#5 v=102
101760 On ch=1 n=c5 v=102
101880 On ch=1 n=f5 v=0
101880 On ch=1 n=d#5 v=0
101880 On ch=1 n=c5 v=0
101880 On ch=1 n=f#5 v=108
101880 On ch=1 n=d#5 v=108
101880 On ch=1 n=c5 v=108
102000 On ch=1 n=f#5 v=0
102000 On ch=1 n=d#5 v=0
102000 On ch=1 n=c5 v=0
102000 On ch=1 n=a#3 v=102
102120 On ch=1 n=a#3 v=0
102120 On ch=1 n=f5 v=102
102120 On ch=1 n=c#5 v=102
102240 On ch=1 n=f5 v=0
102240 On ch=1 n=c#5 v=0
102240 On ch=1 n=a#4 v=102
102240 On ch=1 n=e5 v=102
102360 On ch=1 n=a#4 v=0
102360 On ch=1 n=e5 v=0
102360 On ch=1 n=g#3 v=102
102480 On ch=1 n=g#3 v=0
102480 On ch=1 n=f5 v=102
102480 On ch=1 n=c#5 v=102
102480 On ch=1 n=g#4 v=102
102600 On ch=1 n=f5 v=0
102600 On ch=1 n=c#5 v=0
102600 On ch=1 n=g#4 v=0
102600 On ch=1 n=g#4 v=102
102600 On ch=1 n=d#5 v=102
102720 On ch=1 n=g#4 v=0
102720 On ch=1 n=d#5 v=0
102720 On ch=1 n=c5 v=94
102720 On ch=1 n=g#4 v=94
102780 On ch=1 n=c5 v=0
102780 On ch=1 n=g#4 v=0
102780 On ch=1 n=c#5 v=86
102780 On ch=1 n=c#4 v=86
102840 On ch=1 n=c#5 v=0
102840 On ch=1 n=c#4 v=0
102840 On ch=1 n=c#4 v=78
102840 On ch=1 n=c#5 v=78
102960 On ch=1 n=c#4 v=0
102960 On ch=1 n=c#5 v=0
103080 On ch=1 n=a#5 v=65
103080 On ch=1 n=f#5 v=65
103080 On ch=1 n=d#5 v=65
103080 On ch=1 n=c5 v=65
103137 On ch=1 n=c5 v=65
103140 On ch=1 n=a#5 v=0
103140 On ch=1 n=f#5 v=0
103140 On ch=1 n=d#5 v=0
103140 On ch=1 n=c5 v=0
103140 On ch=1 n=d#5 v=65
103143 On ch=1 n=f#5 v=65
103147 On ch=1 n=a#5 v=65
103200 On ch=1 n=c5 v=0
103200 On ch=1 n=d#5 v=0
103200 On ch=1 n=f#5 v=0
103200 On ch=1 n=a#5 v=0
103200 On ch=1 n=a#5 v=65
103200 On ch=1 n=f#5 v=65
103200 On ch=1 n=d#5 v=65
103200 On ch=1 n=c5 v=65
103320 On ch=1 n=a#5 v=0
103320 On ch=1 n=f#5 v=0
103320 On ch=1 n=d#5 v=0
103320 On ch=1 n=c5 v=0
103320 On ch=1 n=c#5 v=65
103320 On ch=1 n=f5 v=65
103320 On ch=1 n=g#5 v=65
103440 On ch=1 n=c#5 v=0
103440 On ch=1 n=f5 v=0
103440 On ch=1 n=g#5 v=0
103440 On ch=1 n=f#5 v=65
103440 On ch=1 n=d#5 v=65
103440 On ch=1 n=c5 v=65
103440 On ch=1 n=a4 v=65
103497 On ch=1 n=a4 v=65
103500 On ch=1 n=f#5 v=0
103500 On ch=1 n=d#5 v=0
103500 On ch=1 n=c5 v=0
103500 On ch=1 n=a4 v=0
103500 On ch=1 n=c5 v=65
103503 On ch=1 n=d#5 v=65
103507 On ch=1 n=f#5 v=65
103560 On ch=1 n=a4 v=0
103560 On ch=1 n=c5 v=0
103560 On ch=1 n=d#5 v=0
103560 On ch=1 n=f#5 v=0
103560 On ch=1 n=f#5 v=65
103560 On ch=1 n=d#5 v=65
103560 On ch=1 n=c5 v=65
103560 On ch=1 n=a4 v=65
103680 On ch=1 n=f#5 v=0
103680 On ch=1 n=d#5 v=0
103680 On ch=1 n=c5 v=0
103680 On ch=1 n=a4 v=0
103680 On ch=1 n=a#4 v=65
103680 On ch=1 n=c#5 v=65
103680 On ch=1 n=f5 v=65
103800 On ch=1 n=a#4 v=0
103800 On ch=1 n=c#5 v=0
103800 On ch=1 n=f5 v=0
103800 On ch=1 n=d#5 v=65
103800 On ch=1 n=c#5 v=65
103800 On ch=1 n=a#4 v=65
103800 On ch=1 n=g4 v=65
103860 On ch=1 n=d#5 v=0
103860 On ch=1 n=c#5 v=0
103860 On ch=1 n=a#4 v=0
103860 On ch=1 n=g4 v=0
103860 On ch=1 n=g4 v=65
103860 On ch=1 n=a#4 v=65
103860 On ch=1 n=c#5 v=65
103860 On ch=1 n=d#5 v=65
103920 On ch=1 n=g4 v=0
103920 On ch=1 n=a#4 v=0
103920 On ch=1 n=c#5 v=0
103920 On ch=1 n=d#5 v=0
103920 On ch=1 n=d#5 v=65
103920 On ch=1 n=c#5 v=65
103920 On ch=1 n=a#4 v=65
103920 On ch=1 n=g4 v=65
104040 On ch=1 n=d#5 v=0
104040 On ch=1 n=c#5 v=0
104040 On ch=1 n=a#4 v=0
104040 On ch=1 n=g4 v=0
104040 On ch=1 n=g4 v=65
104040 On ch=1 n=a#4 v=65
104040 On ch=1 n=c#5 v=65
104040 On ch=1 n=f5 v=65
104160 On ch=1 n=g4 v=0
104160 On ch=1 n=a#4 v=0
104160 On ch=1 n=c#5 v=0
104160 On ch=1 n=f5 v=0
104160 On ch=1 n=f5 v=65
104160 On ch=1 n=c#5 v=65
104160 On ch=1 n=a#4 v=65
104160 On ch=1 n=g4 v=65
104220 On ch=1 n=f5 v=0
104220 On ch=1 n=c#5 v=0
104220 On ch=1 n=a#4 v=0
104220 On ch=1 n=g4 v=0
104220 On ch=1 n=g#4 v=65
104220 On ch=1 n=c5 v=65
104220 On ch=1 n=d#5 v=65
104280 On ch=1 n=g#4 v=0
104280 On ch=1 n=c5 v=0
104280 On ch=1 n=d#5 v=0
104280 On ch=1 n=d#5 v=65
104280 On ch=1 n=c5 v=65
104280 On ch=1 n=g#4 v=65
104400 On ch=1 n=d#5 v=0
104400 On ch=1 n=c5 v=0
104400 On ch=1 n=g#4 v=0
104400 On ch=1 n=g#4 v=65
104400 On ch=1 n=c5 v=65
104400 On ch=1 n=d#5 v=65
104520 On ch=1 n=g#4 v=0
104520 On ch=1 n=c5 v=0
104520 On ch=1 n=d#5 v=0
104520 On ch=1 n=a#5 v=69
104520 On ch=1 n=f#5 v=69
104520 On ch=1 n=d#5 v=69
104520 On ch=1 n=c5 v=69
104580 On ch=1 n=a#5 v=0
104580 On ch=1 n=f#5 v=0
104580 On ch=1 n=d#5 v=0
104580 On ch=1 n=c5 v=0
104580 On ch=1 n=c5 v=69
104580 On ch=1 n=d#5 v=69
104580 On ch=1 n=f#5 v=69
104580 On ch=1 n=a#5 v=69
104640 On ch=1 n=c5 v=0
104640 On ch=1 n=d#5 v=0
104640 On ch=1 n=f#5 v=0
104640 On ch=1 n=a#5 v=0
104640 On ch=1 n=a#5 v=74
104640 On ch=1 n=f#5 v=74
104640 On ch=1 n=d#5 v=74
104640 On ch=1 n=c5 v=74
104760 On ch=1 n=a#5 v=0
104760 On ch=1 n=f#5 v=0
104760 On ch=1 n=d#5 v=0
104760 On ch=1 n=c5 v=0
104760 On ch=1 n=c#5 v=78
104760 On ch=1 n=f5 v=78
104760 On ch=1 n=g#5 v=78
104880 On ch=1 n=c#5 v=0
104880 On ch=1 n=f5 v=0
104880 On ch=1 n=g#5 v=0
104880 On ch=1 n=f#5 v=83
104880 On ch=1 n=d#5 v=83
104880 On ch=1 n=c5 v=83
104880 On ch=1 n=a4 v=83
104940 On ch=1 n=f#5 v=0
104940 On ch=1 n=d#5 v=0
104940 On ch=1 n=c5 v=0
104940 On ch=1 n=a4 v=0
104940 On ch=1 n=c5 v=83
104940 On ch=1 n=a4 v=83
104940 On ch=1 n=d#5 v=83
104940 On ch=1 n=f#5 v=83
105000 On ch=1 n=c5 v=0
105000 On ch=1 n=a4 v=0
105000 On ch=1 n=d#5 v=0
105000 On ch=1 n=f#5 v=0
105000 On ch=1 n=c5 v=87
105000 On ch=1 n=a4 v=87
105000 On ch=1 n=f#5 v=87
105000 On ch=1 n=d#5 v=87
105120 On ch=1 n=c5 v=0
105120 On ch=1 n=a4 v=0
105120 On ch=1 n=f#5 v=0
105120 On ch=1 n=d#5 v=0
105120 On ch=1 n=a#4 v=92
105120 On ch=1 n=c#5 v=92
105120 On ch=1 n=f5 v=92
105240 On ch=1 n=a#4 v=0
105240 On ch=1 n=c#5 v=0
105240 On ch=1 n=f5 v=0
105240 On ch=1 n=f#4 v=96
105240 On ch=1 n=d#5 v=96
105300 On ch=1 n=f#4 v=0
105300 On ch=1 n=d#5 v=0
105300 On ch=1 n=f#4 v=96
105300 On ch=1 n=d#5 v=96
105360 On ch=1 n=f#4 v=0
105360 On ch=1 n=d#5 v=0
105360 On ch=1 n=e5 v=101
105360 On ch=1 n=c#5 v=101
105360 On ch=1 n=a#4 v=101
105360 On ch=1 n=f#4 v=101
105480 On ch=1 n=e5 v=0
105480 On ch=1 n=c#5 v=0
105480 On ch=1 n=a#4 v=0
105480 On ch=1 n=f#4 v=0
105480 On ch=1 n=e5 v=102
105480 On ch=1 n=c5 v=102
105480 On ch=1 n=a#4 v=102
105480 On ch=1 n=f#4 v=102
105600 On ch=1 n=e5 v=0
105600 On ch=1 n=c5 v=0
105600 On ch=1 n=a#4 v=0
105600 On ch=1 n=f#4 v=0
105600 On ch=1 n=f5 v=102
105600 On ch=1 n=c5 v=102
105600 On ch=1 n=a4 v=102
105600 On ch=1 n=f4 v=65
105840 On ch=1 n=f5 v=0
105840 On ch=1 n=c5 v=0
105840 On ch=1 n=a4 v=0
105840 On ch=1 n=f4 v=0
105840 On ch=1 n=g#3 v=102
105840 On ch=1 n=g#2 v=102
105960 On ch=1 n=g#3 v=0
105960 On ch=1 n=g#2 v=0
105960 On ch=1 n=c#3 v=102
105960 On ch=1 n=c#4 v=102
106080 On ch=1 n=c#3 v=0
106080 On ch=1 n=c#4 v=0
106080 On ch=1 n=f5 v=102
106080 On ch=1 n=c#5 v=102
106080 On ch=1 n=g#4 v=102
106200 On ch=1 n=f5 v=0
106200 On ch=1 n=c#5 v=0
106200 On ch=1 n=g#4 v=0
106200 On ch=1 n=a4 v=108
106200 On ch=1 n=c#5 v=108
106200 On ch=1 n=f5 v=108
106320 On ch=1 n=a4 v=0
106320 On ch=1 n=c#5 v=0
106320 On ch=1 n=f5 v=0
106320 On ch=1 n=f#3 v=102
106440 On ch=1 n=f#3 v=0
106440 On ch=1 n=d#5 v=102
106440 On ch=1 n=c#5 v=102
106440 On ch=1 n=a#4 v=102
106560 On ch=1 n=d#5 v=0
106560 On ch=1 n=c#5 v=0
106560 On ch=1 n=a#4 v=0
106560 On ch=1 n=a#4 v=102
106560 On ch=1 n=c#5 v=102
106560 On ch=1 n=d#5 v=102
106680 On ch=1 n=a#4 v=0
106680 On ch=1 n=c#5 v=0
106680 On ch=1 n=d#5 v=0
106680 On ch=1 n=g3 v=102
106800 On ch=1 n=g3 v=0
106800 On ch=1 n=d#5 v=102
106800 On ch=1 n=c#5 v=102
106800 On ch=1 n=a#4 v=102
106920 On ch=1 n=d#5 v=0
106920 On ch=1 n=c#5 v=0
106920 On ch=1 n=a#4 v=0
106920 On ch=1 n=a#4 v=108
106920 On ch=1 n=c#5 v=108
106920 On ch=1 n=e5 v=108
107040 On ch=1 n=a#4 v=0
107040 On ch=1 n=c#5 v=0
107040 On ch=1 n=e5 v=0
107040 On ch=1 n=g#3 v=102
107160 On ch=1 n=g#3 v=0
107160 On ch=1 n=d#5 v=102
107160 On ch=1 n=c5 v=102
107160 On ch=1 n=g#4 v=102
107280 On ch=1 n=d#5 v=0
107280 On ch=1 n=c5 v=0
107280 On ch=1 n=g#4 v=0
107280 On ch=1 n=g#4 v=102
107280 On ch=1 n=c5 v=102
107280 On ch=1 n=d#5 v=102
107400 On ch=1 n=g#4 v=0
107400 On ch=1 n=c5 v=0
107400 On ch=1 n=d#5 v=0
107400 On ch=1 n=a3 v=102
107520 On ch=1 n=a3 v=0
107520 On ch=1 n=f5 v=102
107520 On ch=1 n=d#5 v=102
107520 On ch=1 n=c5 v=102
107640 On ch=1 n=f5 v=0
107640 On ch=1 n=d#5 v=0
107640 On ch=1 n=c5 v=0
107640 On ch=1 n=f#5 v=108
107640 On ch=1 n=d#5 v=108
107640 On ch=1 n=c5 v=108
107760 On ch=1 n=f#5 v=0
107760 On ch=1 n=d#5 v=0
107760 On ch=1 n=c5 v=0
107760 On ch=1 n=a#3 v=102
107880 On ch=1 n=a#3 v=0
107880 On ch=1 n=f5 v=102
107880 On ch=1 n=c#5 v=102
108000 On ch=1 n=f5 v=0
108000 On ch=1 n=c#5 v=0
108000 On ch=1 n=a#4 v=102
108000 On ch=1 n=e5 v=102
108120 On ch=1 n=a#4 v=0
108120 On ch=1 n=e5 v=0
108120 On ch=1 n=g#3 v=102
108240 On ch=1 n=g#3 v=0
108240 On ch=1 n=f5 v=102
108240 On ch=1 n=c#5 v=102
108240 On ch=1 n=g#4 v=102
108360 On ch=1 n=f5 v=0
108360 On ch=1 n=c#5 v=0
108360 On ch=1 n=g#4 v=0
108360 On ch=1 n=g#4 v=102
108360 On ch=1 n=d#5 v=102
108480 On ch=1 n=g#4 v=0
108480 On ch=1 n=d#5 v=0
108480 On ch=1 n=c5 v=94
108480 On ch=1 n=g#4 v=94
108540 On ch=1 n=c5 v=0
108540 On ch=1 n=g#4 v=0
108540 On ch=1 n=c#5 v=86
108540 On ch=1 n=c#4 v=86
108600 On ch=1 n=c#5 v=0
108600 On ch=1 n=c#4 v=0
108600 On ch=1 n=c#4 v=78
108600 On ch=1 n=c#5 v=78
108720 On ch=1 n=c#4 v=0
108720 On ch=1 n=c#5 v=0
109140 On ch=1 n=a#4 v=127
109200 On ch=1 n=c#6 v=90
109200 On ch=1 n=f5 v=90
109320 On ch=1 n=a#4 v=0
109320 On ch=1 n=c#6 v=0
109320 On ch=1 n=f5 v=0
109320 On ch=1 n=a#4 v=127
109380 On ch=1 n=c#6 v=90
109380 On ch=1 n=f#5 v=90
109500 On ch=1 n=a#4 v=0
109500 On ch=1 n=c#6 v=0
109500 On ch=1 n=f#5 v=0
109500 On ch=1 n=a#4 v=127
109560 On ch=1 n=d6 v=90
109560 On ch=1 n=g#5 v=90
109680 On ch=1 n=a#4 v=0
109680 On ch=1 n=a#4 v=127
109740 On ch=1 n=d6 v=0
109740 On ch=1 n=g#5 v=0
109740 On ch=1 n=f#5 v=90
109740 On ch=1 n=a#5 v=90
109860 On ch=1 n=a#4 v=0
109860 On ch=1 n=a#4 v=127
109920 On ch=1 n=f#5 v=0
109920 On ch=1 n=a#5 v=0
109920 On ch=1 n=g#5 v=90
109920 On ch=1 n=f5 v=90
110040 On ch=1 n=a#4 v=0
110040 On ch=1 n=a#4 v=127
110100 On ch=1 n=g#5 v=0
110100 On ch=1 n=f5 v=0
110100 On ch=1 n=d#5 v=90
110100 On ch=1 n=f#5 v=90
110220 On ch=1 n=a#4 v=0
110220 On ch=1 n=a#4 v=127
110280 On ch=1 n=d#5 v=0
110280 On ch=1 n=f#5 v=0
110280 On ch=1 n=f5 v=90
110280 On ch=1 n=c#5 v=90
110400 On ch=1 n=a#4 v=0
110400 On ch=1 n=f4 v=90
110460 On ch=1 n=f5 v=0
110460 On ch=1 n=c#5 v=0
110460 On ch=1 n=f5 v=90
110460 On ch=1 n=c5 v=90
110520 On ch=1 n=f4 v=0
110520 On ch=1 n=f5 v=0
110520 On ch=1 n=c5 v=0
110580 On ch=1 n=a#4 v=127
110640 On ch=1 n=c#6 v=90
110640 On ch=1 n=f5 v=90
110760 On ch=1 n=a#4 v=0
110760 On ch=1 n=c#6 v=0
110760 On ch=1 n=f5 v=0
110760 On ch=1 n=a#4 v=127
110820 On ch=1 n=c#6 v=90
110820 On ch=1 n=f#5 v=90
110940 On ch=1 n=a#4 v=0
110940 On ch=1 n=c#6 v=0
110940 On ch=1 n=f#5 v=0
110940 On ch=1 n=a#4 v=127
111000 On ch=1 n=d6 v=90
111000 On ch=1 n=g#5 v=90
111120 On ch=1 n=a#4 v=0
111120 On ch=1 n=a#4 v=127
111180 On ch=1 n=d6 v=0
111180 On ch=1 n=g#5 v=0
111180 On ch=1 n=f#5 v=90
111180 On ch=1 n=a#5 v=90
111300 On ch=1 n=a#4 v=0
111300 On ch=1 n=a#4 v=127
111360 On ch=1 n=f#5 v=0
111360 On ch=1 n=a#5 v=0
111360 On ch=1 n=g#5 v=90
111360 On ch=1 n=f5 v=90
111480 On ch=1 n=a#4 v=0
111480 On ch=1 n=a#4 v=127
111540 On ch=1 n=g#5 v=0
111540 On ch=1 n=f5 v=0
111540 On ch=1 n=d#5 v=90
111540 On ch=1 n=f#5 v=90
111660 On ch=1 n=a#4 v=0
111660 On ch=1 n=a#4 v=127
111720 On ch=1 n=d#5 v=0
111720 On ch=1 n=f#5 v=0
111720 On ch=1 n=f5 v=90
111720 On ch=1 n=c#5 v=90
111840 On ch=1 n=a#4 v=0
111840 On ch=1 n=f4 v=90
111900 On ch=1 n=f5 v=0
111900 On ch=1 n=c#5 v=0
111900 On ch=1 n=f5 v=90
111900 On ch=1 n=c5 v=90
111960 On ch=1 n=f4 v=0
111960 On ch=1 n=f5 v=0
111960 On ch=1 n=c5 v=0
112020 On ch=1 n=g#3 v=53
112020 On ch=1 n=c#3 v=53
112050 On ch=1 n=g#3 v=0
112080 On ch=1 n=a#3 v=53
112110 On ch=1 n=a#3 v=0
112140 On ch=1 n=c4 v=53
112170 On ch=1 n=c4 v=0
112200 On ch=1 n=c#4 v=57
112230 On ch=1 n=c#3 v=0
112230 On ch=1 n=c#4 v=0
112260 On ch=1 n=c#4 v=57
112260 On ch=1 n=c#3 v=57
112290 On ch=1 n=c#4 v=0
112290 On ch=1 n=c#3 v=0
112320 On ch=1 n=c#4 v=57
112320 On ch=1 n=c#3 v=57
112350 On ch=1 n=c#4 v=0
112350 On ch=1 n=c#3 v=0
112380 On ch=1 n=c#4 v=60
112380 On ch=1 n=c#3 v=60
112440 On ch=1 n=c#4 v=0
112440 On ch=1 n=c#3 v=0
112440 On ch=1 n=c#4 v=60
112440 On ch=1 n=c#3 v=60
112500 On ch=1 n=c#4 v=0
112500 On ch=1 n=c#3 v=0
112500 On ch=1 n=c#4 v=60
112500 On ch=1 n=c#3 v=60
112560 On ch=1 n=c#4 v=0
112560 On ch=1 n=c#3 v=0
112560 On ch=1 n=c#4 v=64
112560 On ch=1 n=c#3 v=64
112620 On ch=1 n=c#4 v=0
112620 On ch=1 n=c#3 v=0
112620 On ch=1 n=d#3 v=64
112620 On ch=1 n=c#4 v=64
112680 On ch=1 n=d#3 v=0
112680 On ch=1 n=c#4 v=0
112680 On ch=1 n=f3 v=64
112680 On ch=1 n=c#4 v=64
112740 On ch=1 n=f3 v=0
112740 On ch=1 n=c#4 v=0
112740 On ch=1 n=c#4 v=67
112740 On ch=1 n=f#3 v=67
112800 On ch=1 n=c#4 v=0
112800 On ch=1 n=f#3 v=0
112800 On ch=1 n=d#4 v=67
112800 On ch=1 n=f#3 v=67
112860 On ch=1 n=d#4 v=0
112860 On ch=1 n=f#3 v=0
112860 On ch=1 n=f4 v=67
112860 On ch=1 n=f#3 v=67
112920 On ch=1 n=f4 v=0
112920 On ch=1 n=f#3 v=0
112920 On ch=1 n=f#4 v=71
112920 On ch=1 n=f#3 v=71
112980 On ch=1 n=f#4 v=0
112980 On ch=1 n=f#3 v=0
112980 On ch=1 n=f#4 v=71
112980 On ch=1 n=g#3 v=71
113040 On ch=1 n=f#4 v=0
113040 On ch=1 n=g#3 v=0
113040 On ch=1 n=f#4 v=71
113040 On ch=1 n=a#3 v=71
113100 On ch=1 n=f#4 v=0
113100 On ch=1 n=a#3 v=0
113100 On ch=1 n=c4 v=74
113160 On ch=1 n=c4 v=0
113160 On ch=1 n=g#4 v=74
113160 On ch=1 n=c#4 v=74
113220 On ch=1 n=g#4 v=0
113220 On ch=1 n=c#4 v=0
113220 On ch=1 n=g#4 v=74
113220 On ch=1 n=d#4 v=74
113280 On ch=1 n=g#4 v=0
113280 On ch=1 n=d#4 v=0
113280 On ch=1 n=d#4 v=77
113280 On ch=1 n=g#4 v=77
113340 On ch=1 n=d#4 v=0
113340 On ch=1 n=g#4 v=0
113340 On ch=1 n=c#4 v=73
113340 On ch=1 n=g#4 v=73
113400 On ch=1 n=c#4 v=0
113400 On ch=1 n=g#4 v=0
113400 On ch=1 n=c4 v=69
113400 On ch=1 n=g#4 v=69
113460 On ch=1 n=c4 v=0
113460 On ch=1 n=g#4 v=0
113460 On ch=1 n=c#4 v=65
113460 On ch=1 n=g#4 v=65
113520 On ch=1 n=g#4 v=0
113520 On ch=1 n=a#4 v=65
113580 On ch=1 n=a#4 v=0
113580 On ch=1 n=c5 v=65
113640 On ch=1 n=c5 v=0
113640 On ch=1 n=c#5 v=65
113670 On ch=1 n=c#4 v=0
113700 On ch=1 n=c#5 v=0
113700 On ch=1 n=c#5 v=65
113700 On ch=1 n=c#4 v=65
113760 On ch=1 n=c#5 v=0
113760 On ch=1 n=c#4 v=0
113760 On ch=1 n=c#5 v=65
113760 On ch=1 n=c#4 v=65
113820 On ch=1 n=c#5 v=0
113820 On ch=1 n=c#4 v=0
113820 On ch=1 n=c#5 v=65
113820 On ch=1 n=c#4 v=65
113880 On ch=1 n=c#5 v=0
113880 On ch=1 n=c#4 v=0
113880 On ch=1 n=c#5 v=65
113880 On ch=1 n=c#4 v=65
113940 On ch=1 n=c#5 v=0
113940 On ch=1 n=c#4 v=0
113940 On ch=1 n=c#5 v=65
113940 On ch=1 n=c#4 v=65
114000 On ch=1 n=c#5 v=0
114000 On ch=1 n=c#4 v=0
114000 On ch=1 n=c#4 v=65
114000 On ch=1 n=c#5 v=65
114060 On ch=1 n=c#4 v=0
114060 On ch=1 n=c#5 v=0
114060 On ch=1 n=d#4 v=65
114060 On ch=1 n=c#5 v=65
114120 On ch=1 n=d#4 v=0
114120 On ch=1 n=c#5 v=0
114120 On ch=1 n=f4 v=65
114120 On ch=1 n=c#5 v=65
114180 On ch=1 n=f4 v=0
114180 On ch=1 n=c#5 v=0
114180 On ch=1 n=c#5 v=65
114180 On ch=1 n=f#4 v=65
114240 On ch=1 n=c#5 v=0
114240 On ch=1 n=f#4 v=0
114240 On ch=1 n=c#5 v=65
114240 On ch=1 n=g4 v=65
114300 On ch=1 n=c#5 v=0
114300 On ch=1 n=g4 v=0
114300 On ch=1 n=d#5 v=65
114300 On ch=1 n=g4 v=65
114360 On ch=1 n=d#5 v=0
114360 On ch=1 n=g4 v=0
114420 On ch=1 n=g#4 v=65
114420 On ch=1 n=d#5 v=65
114480 On ch=1 n=d#5 v=0
114480 On ch=1 n=d5 v=65
114540 On ch=1 n=g#4 v=0
114540 On ch=1 n=d5 v=0
114600 On ch=1 n=d5 v=53
114600 On ch=1 n=f4 v=53
114630 On ch=1 n=d5 v=0
114630 On ch=1 n=f4 v=0
114660 On ch=1 n=c#5 v=53
114660 On ch=1 n=d#4 v=53
114690 On ch=1 n=c#5 v=0
114690 On ch=1 n=d#4 v=0
114720 On ch=1 n=g#4 v=53
114720 On ch=1 n=c5 v=53
114750 On ch=1 n=g#4 v=0
114750 On ch=1 n=c5 v=0
114900 On ch=1 n=g#3 v=53
114900 On ch=1 n=c#3 v=53
114930 On ch=1 n=g#3 v=0
114960 On ch=1 n=a#3 v=53
114990 On ch=1 n=a#3 v=0
115020 On ch=1 n=c4 v=53
115050 On ch=1 n=c4 v=0
115080 On ch=1 n=c#4 v=57
115110 On ch=1 n=c#3 v=0
115110 On ch=1 n=c#4 v=0
115140 On ch=1 n=c#4 v=57
115140 On ch=1 n=c#3 v=57
115170 On ch=1 n=c#4 v=0
115170 On ch=1 n=c#3 v=0
115200 On ch=1 n=c#4 v=57
115200 On ch=1 n=c#3 v=57
115230 On ch=1 n=c#4 v=0
115230 On ch=1 n=c#3 v=0
115260 On ch=1 n=c#4 v=60
115260 On ch=1 n=c#3 v=60
115320 On ch=1 n=c#4 v=0
115320 On ch=1 n=c#3 v=0
115320 On ch=1 n=c#4 v=60
115320 On ch=1 n=c#3 v=60
115380 On ch=1 n=c#4 v=0
115380 On ch=1 n=c#3 v=0
115380 On ch=1 n=c#4 v=60
115380 On ch=1 n=c#3 v=60
115440 On ch=1 n=c#4 v=0
115440 On ch=1 n=c#3 v=0
115440 On ch=1 n=c#4 v=64
115440 On ch=1 n=c#3 v=64
115500 On ch=1 n=c#4 v=0
115500 On ch=1 n=c#3 v=0
115500 On ch=1 n=d#3 v=64
115500 On ch=1 n=c#4 v=64
115560 On ch=1 n=d#3 v=0
115560 On ch=1 n=c#4 v=0
115560 On ch=1 n=f3 v=64
115560 On ch=1 n=c#4 v=64
115620 On ch=1 n=f3 v=0
115620 On ch=1 n=c#4 v=0
115620 On ch=1 n=c#4 v=67
115620 On ch=1 n=f#3 v=67
115680 On ch=1 n=c#4 v=0
115680 On ch=1 n=f#3 v=0
115680 On ch=1 n=d#4 v=67
115680 On ch=1 n=f#3 v=67
115740 On ch=1 n=d#4 v=0
115740 On ch=1 n=f#3 v=0
115740 On ch=1 n=f4 v=67
115740 On ch=1 n=f#3 v=67
115800 On ch=1 n=f4 v=0
115800 On ch=1 n=f#3 v=0
115800 On ch=1 n=f#4 v=71
115800 On ch=1 n=f#3 v=71
115860 On ch=1 n=f#4 v=0
115860 On ch=1 n=f#3 v=0
115860 On ch=1 n=f#4 v=71
115860 On ch=1 n=g#3 v=71
115920 On ch=1 n=f#4 v=0
115920 On ch=1 n=g#3 v=0
115920 On ch=1 n=f#4 v=71
115920 On ch=1 n=a#3 v=71
115980 On ch=1 n=f#4 v=0
115980 On ch=1 n=a#3 v=0
115980 On ch=1 n=c4 v=74
116040 On ch=1 n=c4 v=0
116040 On ch=1 n=g#4 v=74
116040 On ch=1 n=c#4 v=74
116100 On ch=1 n=g#4 v=0
116100 On ch=1 n=c#4 v=0
116100 On ch=1 n=g#4 v=74
116100 On ch=1 n=d#4 v=74
116160 On ch=1 n=g#4 v=0
116160 On ch=1 n=d#4 v=0
116160 On ch=1 n=d#4 v=77
116160 On ch=1 n=g#4 v=77
116220 On ch=1 n=d#4 v=0
116220 On ch=1 n=g#4 v=0
116220 On ch=1 n=c#4 v=73
116220 On ch=1 n=g#4 v=73
116280 On ch=1 n=c#4 v=0
116280 On ch=1 n=g#4 v=0
116280 On ch=1 n=c4 v=69
116280 On ch=1 n=g#4 v=69
116340 On ch=1 n=c4 v=0
116340 On ch=1 n=g#4 v=0
116340 On ch=1 n=c#4 v=65
116340 On ch=1 n=g#4 v=65
116400 On ch=1 n=g#4 v=0
116400 On ch=1 n=a#4 v=65
116460 On ch=1 n=a#4 v=0
116460 On ch=1 n=c5 v=65
116520 On ch=1 n=c5 v=0
116520 On ch=1 n=c#5 v=65
116550 On ch=1 n=c#4 v=0
116580 On ch=1 n=c#5 v=0
116580 On ch=1 n=c#5 v=65
116580 On ch=1 n=c#4 v=65
116640 On ch=1 n=c#5 v=0
116640 On ch=1 n=c#4 v=0
116640 On ch=1 n=c#5 v=65
116640 On ch=1 n=c#4 v=65
116700 On ch=1 n=c#5 v=0
116700 On ch=1 n=c#4 v=0
116700 On ch=1 n=c#5 v=65
116700 On ch=1 n=c#4 v=65
116760 On ch=1 n=c#5 v=0
116760 On ch=1 n=c#4 v=0
116760 On ch=1 n=c#5 v=65
116760 On ch=1 n=c#4 v=65
116820 On ch=1 n=c#5 v=0
116820 On ch=1 n=c#4 v=0
116820 On ch=1 n=c#5 v=65
116820 On ch=1 n=c#4 v=65
116880 On ch=1 n=c#5 v=0
116880 On ch=1 n=c#4 v=0
116880 On ch=1 n=c#4 v=65
116880 On ch=1 n=c#5 v=65
116940 On ch=1 n=c#4 v=0
116940 On ch=1 n=c#5 v=0
116940 On ch=1 n=d#4 v=65
116940 On ch=1 n=c#5 v=65
117000 On ch=1 n=d#4 v=0
117000 On ch=1 n=c#5 v=0
117000 On ch=1 n=f4 v=65
117000 On ch=1 n=c#5 v=65
117060 On ch=1 n=f4 v=0
117060 On ch=1 n=c#5 v=0
117060 On ch=1 n=c#5 v=65
117060 On ch=1 n=f#4 v=65
117120 On ch=1 n=c#5 v=0
117120 On ch=1 n=f#4 v=0
117120 On ch=1 n=c#5 v=65
117120 On ch=1 n=g4 v=65
117180 On ch=1 n=c#5 v=0
117180 On ch=1 n=g4 v=0
117180 On ch=1 n=d#5 v=65
117180 On ch=1 n=g4 v=65
117240 On ch=1 n=d#5 v=0
117240 On ch=1 n=g4 v=0
117300 On ch=1 n=g#4 v=65
117300 On ch=1 n=d#5 v=65
117360 On ch=1 n=d#5 v=0
117360 On ch=1 n=d5 v=65
117420 On ch=1 n=g#4 v=0
117420 On ch=1 n=d5 v=0
117480 On ch=1 n=d5 v=53
117480 On ch=1 n=f4 v=53
117510 On ch=1 n=d5 v=0
117510 On ch=1 n=f4 v=0
117540 On ch=1 n=c#5 v=53
117540 On ch=1 n=d#4 v=53
117570 On ch=1 n=c#5 v=0
117570 On ch=1 n=d#4 v=0
117600 On ch=1 n=g#4 v=53
117600 On ch=1 n=c5 v=53
117630 On ch=1 n=g#4 v=0
117630 On ch=1 n=c5 v=0
117780 On ch=1 n=d#4 v=53
117780 On ch=1 n=a#4 v=53
117840 On ch=1 n=c5 v=53
117900 On ch=1 n=c5 v=0
117900 On ch=1 n=d5 v=53
117960 On ch=1 n=d5 v=0
117960 On ch=1 n=d#5 v=57
118020 On ch=1 n=d#4 v=0
118020 On ch=1 n=a#4 v=0
118020 On ch=1 n=d#5 v=0
118020 On ch=1 n=d#4 v=57
118020 On ch=1 n=a#4 v=57
118020 On ch=1 n=d#5 v=57
118080 On ch=1 n=d#4 v=0
118080 On ch=1 n=a#4 v=0
118080 On ch=1 n=d#5 v=0
118080 On ch=1 n=d#4 v=57
118080 On ch=1 n=a#4 v=57
118080 On ch=1 n=d#5 v=57
118140 On ch=1 n=d#4 v=0
118140 On ch=1 n=a#4 v=0
118140 On ch=1 n=d#5 v=0
118140 On ch=1 n=d#5 v=61
118140 On ch=1 n=a#4 v=61
118140 On ch=1 n=d#4 v=61
118200 On ch=1 n=d#5 v=0
118200 On ch=1 n=a#4 v=0
118200 On ch=1 n=d#4 v=0
118200 On ch=1 n=d#5 v=61
118200 On ch=1 n=a#4 v=61
118200 On ch=1 n=d#4 v=61
118260 On ch=1 n=d#5 v=0
118260 On ch=1 n=a#4 v=0
118260 On ch=1 n=d#4 v=0
118260 On ch=1 n=d#5 v=61
118260 On ch=1 n=a#4 v=61
118260 On ch=1 n=d#4 v=61
118320 On ch=1 n=d#5 v=0
118320 On ch=1 n=a#4 v=0
118320 On ch=1 n=d#4 v=0
118380 On ch=1 n=g#4 v=53
118380 On ch=1 n=c5 v=53
118440 On ch=1 n=g#4 v=0
118440 On ch=1 n=g#3 v=53
118500 On ch=1 n=c5 v=0
118500 On ch=1 n=g#3 v=0
118500 On ch=1 n=d#4 v=53
118500 On ch=1 n=a#4 v=53
118560 On ch=1 n=c5 v=53
118620 On ch=1 n=c5 v=0
118620 On ch=1 n=d5 v=53
118680 On ch=1 n=d5 v=0
118680 On ch=1 n=d#5 v=57
118740 On ch=1 n=d#4 v=0
118740 On ch=1 n=a#4 v=0
118740 On ch=1 n=d#5 v=0
118740 On ch=1 n=d#4 v=57
118740 On ch=1 n=a#4 v=57
118740 On ch=1 n=d#5 v=57
118800 On ch=1 n=d#4 v=0
118800 On ch=1 n=a#4 v=0
118800 On ch=1 n=d#5 v=0
118800 On ch=1 n=d#4 v=57
118800 On ch=1 n=a#4 v=57
118800 On ch=1 n=d#5 v=57
118860 On ch=1 n=d#4 v=0
118860 On ch=1 n=a#4 v=0
118860 On ch=1 n=d#5 v=0
118860 On ch=1 n=d#5 v=61
118860 On ch=1 n=a#4 v=61
118860 On ch=1 n=d#4 v=61
118920 On ch=1 n=d#5 v=0
118920 On ch=1 n=a#4 v=0
118920 On ch=1 n=d#4 v=0
118920 On ch=1 n=d#5 v=61
118920 On ch=1 n=a#4 v=61
118920 On ch=1 n=d#4 v=61
118980 On ch=1 n=d#5 v=0
118980 On ch=1 n=a#4 v=0
118980 On ch=1 n=d#4 v=0
118980 On ch=1 n=d#5 v=61
118980 On ch=1 n=a#4 v=61
118980 On ch=1 n=d#4 v=61
119040 On ch=1 n=d#5 v=0
119040 On ch=1 n=a#4 v=0
119040 On ch=1 n=d#4 v=0
119100 On ch=1 n=g#4 v=53
119100 On ch=1 n=c5 v=53
119160 On ch=1 n=g#4 v=0
119160 On ch=1 n=g#3 v=53
119220 On ch=1 n=c5 v=0
119220 On ch=1 n=g#3 v=0
119220 On ch=1 n=c#4 v=53
119220 On ch=1 n=g#4 v=53
119280 On ch=1 n=a#4 v=53
119340 On ch=1 n=a#4 v=0
119340 On ch=1 n=c5 v=53
119400 On ch=1 n=c5 v=0
119400 On ch=1 n=c#5 v=57
119460 On ch=1 n=c#4 v=0
119460 On ch=1 n=g#4 v=0
119460 On ch=1 n=c#5 v=0
119460 On ch=1 n=c#4 v=57
119460 On ch=1 n=g#4 v=57
119460 On ch=1 n=c#5 v=57
119520 On ch=1 n=c#4 v=0
119520 On ch=1 n=g#4 v=0
119520 On ch=1 n=c#5 v=0
119520 On ch=1 n=c#4 v=57
119520 On ch=1 n=g#4 v=57
119520 On ch=1 n=c#5 v=57
119580 On ch=1 n=c#4 v=0
119580 On ch=1 n=g#4 v=0
119580 On ch=1 n=c#5 v=0
119580 On ch=1 n=c#5 v=61
119580 On ch=1 n=g#4 v=61
119580 On ch=1 n=c#4 v=61
119640 On ch=1 n=c#5 v=0
119640 On ch=1 n=g#4 v=0
119640 On ch=1 n=c#4 v=0
119640 On ch=1 n=c#5 v=61
119640 On ch=1 n=g#4 v=61
119640 On ch=1 n=c#4 v=61
119700 On ch=1 n=c#5 v=0
119700 On ch=1 n=g#4 v=0
119700 On ch=1 n=c#4 v=0
119700 On ch=1 n=c#5 v=61
119700 On ch=1 n=g#4 v=61
119700 On ch=1 n=c#4 v=61
119760 On ch=1 n=c#5 v=0
119760 On ch=1 n=g#4 v=0
119760 On ch=1 n=c#4 v=0
119760 On ch=1 n=c#5 v=65
119760 On ch=1 n=g#4 v=65
119760 On ch=1 n=c#4 v=65
119820 On ch=1 n=c#5 v=0
119820 On ch=1 n=g#4 v=0
119820 On ch=1 n=c#4 v=0
119820 On ch=1 n=c#5 v=65
119820 On ch=1 n=g#4 v=65
119820 On ch=1 n=d#4 v=65
119880 On ch=1 n=c#5 v=0
119880 On ch=1 n=g#4 v=0
119880 On ch=1 n=d#4 v=0
119880 On ch=1 n=c#5 v=65
119880 On ch=1 n=g#4 v=65
119880 On ch=1 n=f4 v=65
119940 On ch=1 n=c#5 v=0
119940 On ch=1 n=g#4 v=0
119940 On ch=1 n=f4 v=0
119940 On ch=1 n=c#5 v=69
119940 On ch=1 n=f#4 v=69
120060 On ch=1 n=c#5 v=0
120060 On ch=1 n=f#4 v=0
120180 On ch=1 n=c#5 v=69
120180 On ch=1 n=f#4 v=69
120210 On ch=1 n=c#5 v=0
120210 On ch=1 n=f#4 v=0
120240 On ch=1 n=f#4 v=61
120240 On ch=1 n=c#5 v=61
120270 On ch=1 n=f#4 v=0
120270 On ch=1 n=c#5 v=0
120360 On ch=1 n=c#5 v=53
120360 On ch=1 n=f4 v=53
120390 On ch=1 n=c#5 v=0
120390 On ch=1 n=f4 v=0
120420 On ch=1 n=c5 v=53
120420 On ch=1 n=f4 v=53
120450 On ch=1 n=c5 v=0
120450 On ch=1 n=f4 v=0
120480 On ch=1 n=c#5 v=53
120480 On ch=1 n=a#4 v=53
120510 On ch=1 n=c#5 v=0
120510 On ch=1 n=a#4 v=0
120660 On ch=1 n=d#4 v=53
120660 On ch=1 n=a#4 v=53
120720 On ch=1 n=c5 v=53
120780 On ch=1 n=c5 v=0
120780 On ch=1 n=d5 v=53
120840 On ch=1 n=d5 v=0
120840 On ch=1 n=d#5 v=57
120900 On ch=1 n=d#4 v=0
120900 On ch=1 n=a#4 v=0
120900 On ch=1 n=d#5 v=0
120900 On ch=1 n=d#4 v=57
120900 On ch=1 n=a#4 v=57
120900 On ch=1 n=d#5 v=57
120960 On ch=1 n=d#4 v=0
120960 On ch=1 n=a#4 v=0
120960 On ch=1 n=d#5 v=0
120960 On ch=1 n=d#4 v=57
120960 On ch=1 n=a#4 v=57
120960 On ch=1 n=d#5 v=57
121020 On ch=1 n=d#4 v=0
121020 On ch=1 n=a#4 v=0
121020 On ch=1 n=d#5 v=0
121020 On ch=1 n=d#5 v=61
121020 On ch=1 n=a#4 v=61
121020 On ch=1 n=d#4 v=61
121080 On ch=1 n=d#5 v=0
121080 On ch=1 n=a#4 v=0
121080 On ch=1 n=d#4 v=0
121080 On ch=1 n=d#5 v=61
121080 On ch=1 n=a#4 v=61
121080 On ch=1 n=d#4 v=61
121140 On ch=1 n=d#5 v=0
121140 On ch=1 n=a#4 v=0
121140 On ch=1 n=d#4 v=0
121140 On ch=1 n=d#5 v=61
121140 On ch=1 n=a#4 v=61
121140 On ch=1 n=d#4 v=61
121200 On ch=1 n=d#5 v=0
121200 On ch=1 n=a#4 v=0
121200 On ch=1 n=d#4 v=0
121260 On ch=1 n=g#4 v=53
121260 On ch=1 n=c5 v=53
121320 On ch=1 n=g#4 v=0
121320 On ch=1 n=g#3 v=53
121380 On ch=1 n=c5 v=0
121380 On ch=1 n=g#3 v=0
121380 On ch=1 n=d#4 v=53
121380 On ch=1 n=a#4 v=53
121440 On ch=1 n=c5 v=53
121500 On ch=1 n=c5 v=0
121500 On ch=1 n=d5 v=53
121560 On ch=1 n=d5 v=0
121560 On ch=1 n=d#5 v=57
121620 On ch=1 n=d#4 v=0
121620 On ch=1 n=a#4 v=0
121620 On ch=1 n=d#5 v=0
121620 On ch=1 n=d#4 v=57
121620 On ch=1 n=a#4 v=57
121620 On ch=1 n=d#5 v=57
121680 On ch=1 n=d#4 v=0
121680 On ch=1 n=a#4 v=0
121680 On ch=1 n=d#5 v=0
121680 On ch=1 n=d#4 v=57
121680 On ch=1 n=a#4 v=57
121680 On ch=1 n=d#5 v=57
121740 On ch=1 n=d#4 v=0
121740 On ch=1 n=a#4 v=0
121740 On ch=1 n=d#5 v=0
121740 On ch=1 n=d#5 v=61
121740 On ch=1 n=a#4 v=61
121740 On ch=1 n=d#4 v=61
121800 On ch=1 n=d#5 v=0
121800 On ch=1 n=a#4 v=0
121800 On ch=1 n=d#4 v=0
121800 On ch=1 n=d#5 v=61
121800 On ch=1 n=a#4 v=61
121800 On ch=1 n=d#4 v=61
121860 On ch=1 n=d#5 v=0
121860 On ch=1 n=a#4 v=0
121860 On ch=1 n=d#4 v=0
121860 On ch=1 n=d#5 v=61
121860 On ch=1 n=a#4 v=61
121860 On ch=1 n=d#4 v=61
121920 On ch=1 n=d#5 v=0
121920 On ch=1 n=a#4 v=0
121920 On ch=1 n=d#4 v=0
121980 On ch=1 n=g#4 v=53
121980 On ch=1 n=c5 v=53
122040 On ch=1 n=g#4 v=0
122040 On ch=1 n=g#3 v=53
122100 On ch=1 n=c5 v=0
122100 On ch=1 n=g#3 v=0
122100 On ch=1 n=c#4 v=53
122100 On ch=1 n=g#4 v=53
122160 On ch=1 n=a#4 v=53
122220 On ch=1 n=a#4 v=0
122220 On ch=1 n=c5 v=53
122280 On ch=1 n=c5 v=0
122280 On ch=1 n=c#5 v=57
122340 On ch=1 n=c#4 v=0
122340 On ch=1 n=g#4 v=0
122340 On ch=1 n=c#5 v=0
122340 On ch=1 n=c#4 v=57
122340 On ch=1 n=g#4 v=57
122340 On ch=1 n=c#5 v=57
122400 On ch=1 n=c#4 v=0
122400 On ch=1 n=g#4 v=0
122400 On ch=1 n=c#5 v=0
122400 On ch=1 n=c#4 v=57
122400 On ch=1 n=g#4 v=57
122400 On ch=1 n=c#5 v=57
122460 On ch=1 n=c#4 v=0
122460 On ch=1 n=g#4 v=0
122460 On ch=1 n=c#5 v=0
122460 On ch=1 n=c#5 v=61
122460 On ch=1 n=g#4 v=61
122460 On ch=1 n=c#4 v=61
122520 On ch=1 n=c#5 v=0
122520 On ch=1 n=g#4 v=0
122520 On ch=1 n=c#4 v=0
122520 On ch=1 n=c#5 v=61
122520 On ch=1 n=g#4 v=61
122520 On ch=1 n=c#4 v=61
122580 On ch=1 n=c#5 v=0
122580 On ch=1 n=g#4 v=0
122580 On ch=1 n=c#4 v=0
122580 On ch=1 n=c#5 v=61
122580 On ch=1 n=g#4 v=61
122580 On ch=1 n=c#4 v=61
122640 On ch=1 n=c#5 v=0
122640 On ch=1 n=g#4 v=0
122640 On ch=1 n=c#4 v=0
122640 On ch=1 n=c#5 v=65
122640 On ch=1 n=g#4 v=65
122640 On ch=1 n=c#4 v=65
122700 On ch=1 n=c#5 v=0
122700 On ch=1 n=g#4 v=0
122700 On ch=1 n=c#4 v=0
122700 On ch=1 n=c#5 v=65
122700 On ch=1 n=g#4 v=65
122700 On ch=1 n=d#4 v=65
122760 On ch=1 n=c#5 v=0
122760 On ch=1 n=g#4 v=0
122760 On ch=1 n=d#4 v=0
122760 On ch=1 n=c#5 v=65
122760 On ch=1 n=g#4 v=65
122760 On ch=1 n=f4 v=65
122820 On ch=1 n=c#5 v=0
122820 On ch=1 n=g#4 v=0
122820 On ch=1 n=f4 v=0
122820 On ch=1 n=c#5 v=69
122820 On ch=1 n=f#4 v=69
122940 On ch=1 n=c#5 v=0
122940 On ch=1 n=f#4 v=0
123060 On ch=1 n=c#5 v=69
123060 On ch=1 n=f#4 v=69
123090 On ch=1 n=c#5 v=0
123090 On ch=1 n=f#4 v=0
123120 On ch=1 n=f#4 v=61
123120 On ch=1 n=c#5 v=61
123150 On ch=1 n=f#4 v=0
123150 On ch=1 n=c#5 v=0
123240 On ch=1 n=c#5 v=53
123240 On ch=1 n=f4 v=53
123270 On ch=1 n=c#5 v=0
123270 On ch=1 n=f4 v=0
123300 On ch=1 n=c5 v=53
123300 On ch=1 n=f4 v=53
123330 On ch=1 n=c5 v=0
123330 On ch=1 n=f4 v=0
123360 On ch=1 n=c#5 v=53
123360 On ch=1 n=a#4 v=53
123390 On ch=1 n=c#5 v=0
123390 On ch=1 n=a#4 v=0
123720 On ch=1 n=c3 v=53
123720 On ch=1 n=c4 v=53
123810 On ch=1 n=c3 v=0
123810 On ch=1 n=c4 v=0
123810 On ch=1 n=c3 v=53
123810 On ch=1 n=c4 v=53
123840 On ch=1 n=c3 v=0
123840 On ch=1 n=c4 v=0
123840 On ch=1 n=c3 v=53
123840 On ch=1 n=c4 v=53
123900 On ch=1 n=c3 v=0
123900 On ch=1 n=c4 v=0
123900 On ch=1 n=c4 v=102
123900 On ch=1 n=c3 v=78
123900 On ch=1 n=c4 v=78
124020 On ch=1 n=c4 v=0
124020 On ch=1 n=c3 v=0
124020 On ch=1 n=c4 v=0
124020 On ch=1 n=g2 v=53
124020 On ch=1 n=g3 v=53
124080 On ch=1 n=g2 v=0
124080 On ch=1 n=g3 v=0
124080 On ch=1 n=c3 v=53
124080 On ch=1 n=c4 v=53
124170 On ch=1 n=c3 v=0
124170 On ch=1 n=c4 v=0
124170 On ch=1 n=c3 v=53
124170 On ch=1 n=c4 v=53
124200 On ch=1 n=c3 v=0
124200 On ch=1 n=c4 v=0
124200 On ch=1 n=c3 v=53
124200 On ch=1 n=c4 v=53
124260 On ch=1 n=c3 v=0
124260 On ch=1 n=c4 v=0
124260 On ch=1 n=c3 v=78
124260 On ch=1 n=c4 v=78
124380 On ch=1 n=c3 v=0
124380 On ch=1 n=c4 v=0
124380 On ch=1 n=b2 v=53
124380 On ch=1 n=b3 v=53
124440 On ch=1 n=b2 v=0
124440 On ch=1 n=b3 v=0
124440 On ch=1 n=c3 v=53
124440 On ch=1 n=c4 v=53
124530 On ch=1 n=c3 v=0
124530 On ch=1 n=c4 v=0
124530 On ch=1 n=c3 v=53
124530 On ch=1 n=c4 v=53
124560 On ch=1 n=c3 v=0
124560 On ch=1 n=c4 v=0
124560 On ch=1 n=c3 v=53
124560 On ch=1 n=c4 v=53
124620 On ch=1 n=c3 v=0
124620 On ch=1 n=c4 v=0
124620 On ch=1 n=c3 v=78
124620 On ch=1 n=c4 v=78
124680 On ch=1 n=c3 v=0
124680 On ch=1 n=c4 v=0
124680 On ch=1 n=b2 v=53
124680 On ch=1 n=b3 v=53
124740 On ch=1 n=b2 v=0
124740 On ch=1 n=b3 v=0
124740 On ch=1 n=c3 v=53
124740 On ch=1 n=c4 v=53
124800 On ch=1 n=c3 v=0
124800 On ch=1 n=c4 v=0
124800 On ch=1 n=b2 v=53
124800 On ch=1 n=b3 v=53
124860 On ch=1 n=b2 v=0
124860 On ch=1 n=b3 v=0
124860 On ch=1 n=c3 v=53
124860 On ch=1 n=c4 v=53
124920 On ch=1 n=c3 v=0
124920 On ch=1 n=c4 v=0
124920 On ch=1 n=b2 v=53
124920 On ch=1 n=b3 v=53
124980 On ch=1 n=b2 v=0
124980 On ch=1 n=b3 v=0
124980 On ch=1 n=b2 v=53
124980 On ch=1 n=b3 v=53
125040 On ch=1 n=b2 v=0
125040 On ch=1 n=b3 v=0
125040 On ch=1 n=c3 v=53
125040 On ch=1 n=c4 v=53
125100 On ch=1 n=c3 v=0
125100 On ch=1 n=c4 v=0
125220 On ch=1 n=b4 v=53
125250 On ch=1 n=b4 v=0
125280 On ch=1 n=a#4 v=53
125310 On ch=1 n=a#4 v=0
125340 On ch=1 n=a4 v=53
125370 On ch=1 n=a4 v=0
125400 On ch=1 n=g4 v=53
125430 On ch=1 n=g4 v=0
125460 On ch=1 n=f4 v=53
125490 On ch=1 n=f4 v=0
125580 On ch=1 n=g#4 v=53
125640 On ch=1 n=g#4 v=0
125640 On ch=1 n=g4 v=53
125700 On ch=1 n=g4 v=0
125700 On ch=1 n=f4 v=53
125760 On ch=1 n=f4 v=0
125760 On ch=1 n=e4 v=53
125820 On ch=1 n=e4 v=0
125820 On ch=1 n=d4 v=53
125880 On ch=1 n=d4 v=0
125940 On ch=1 n=f#4 v=59
126000 On ch=1 n=f#4 v=0
126000 On ch=1 n=f4 v=65
126060 On ch=1 n=f4 v=0
126060 On ch=1 n=e4 v=71
126120 On ch=1 n=e4 v=0
126120 On ch=1 n=d4 v=77
126180 On ch=1 n=d4 v=0
126180 On ch=1 n=c4 v=83
126240 On ch=1 n=c4 v=0
126240 On ch=1 n=b3 v=90
126420 On ch=1 n=b3 v=0
126420 On ch=1 n=e4 v=90
126540 On ch=1 n=e4 v=0
126600 On ch=1 n=g2 v=127
126600 On ch=1 n=g3 v=127
126720 On ch=1 n=g2 v=0
126720 On ch=1 n=g3 v=0
126720 On ch=1 n=b2 v=127
126720 On ch=1 n=b3 v=127
126840 On ch=1 n=b2 v=0
126840 On ch=1 n=b3 v=0
126840 On ch=1 n=d3 v=127
126840 On ch=1 n=d4 v=127
126960 On ch=1 n=d3 v=0
126960 On ch=1 n=d4 v=0
126960 On ch=1 n=g3 v=127
126960 On ch=1 n=g4 v=127
127080 On ch=1 n=g3 v=0
127080 On ch=1 n=g4 v=0
127080 On ch=1 n=b3 v=127
127080 On ch=1 n=b4 v=127
127140 On ch=1 n=b3 v=0
127140 On ch=1 n=b4 v=0
127140 On ch=1 n=b3 v=127
127140 On ch=1 n=b4 v=127
127200 On ch=1 n=b3 v=0
127200 On ch=1 n=b4 v=0
127200 On ch=1 n=b3 v=127
127200 On ch=1 n=b4 v=127
127260 On ch=1 n=b3 v=0
127260 On ch=1 n=b4 v=0
127320 On ch=1 n=c4 v=127
127320 On ch=1 n=c5 v=127
127440 On ch=1 n=c4 v=0
127440 On ch=1 n=c5 v=0
127440 On ch=1 n=b3 v=127
127440 On ch=1 n=b4 v=127
127560 On ch=1 n=b3 v=0
127560 On ch=1 n=b4 v=0
127560 On ch=1 n=a3 v=127
127560 On ch=1 n=a4 v=127
127680 On ch=1 n=a3 v=0
127680 On ch=1 n=a4 v=0
127680 On ch=1 n=g3 v=127
127680 On ch=1 n=g4 v=127
127800 On ch=1 n=g3 v=0
127800 On ch=1 n=g4 v=0
127800 On ch=1 n=f#3 v=127
127800 On ch=1 n=f#4 v=127
127860 On ch=1 n=f#3 v=0
127860 On ch=1 n=f#4 v=0
127860 On ch=1 n=e3 v=127
127860 On ch=1 n=e4 v=127
127920 On ch=1 n=e3 v=0
127920 On ch=1 n=e4 v=0
127920 On ch=1 n=d3 v=127
127920 On ch=1 n=d4 v=127
127980 On ch=1 n=d3 v=0
127980 On ch=1 n=d4 v=0
128040 On ch=1 n=g2 v=127
128040 On ch=1 n=g3 v=127
128160 On ch=1 n=g2 v=0
128160 On ch=1 n=g3 v=0
128160 On ch=1 n=b2 v=127
128160 On ch=1 n=b3 v=127
128280 On ch=1 n=b2 v=0
128280 On ch=1 n=b3 v=0
128280 On ch=1 n=d3 v=127
128280 On ch=1 n=d4 v=127
128400 On ch=1 n=d3 v=0
128400 On ch=1 n=d4 v=0
128400 On ch=1 n=g3 v=127
128400 On ch=1 n=g4 v=127
128520 On ch=1 n=g3 v=0
128520 On ch=1 n=g4 v=0
128520 On ch=1 n=b3 v=127
128520 On ch=1 n=b4 v=127
128580 On ch=1 n=b3 v=0
128580 On ch=1 n=b4 v=0
128580 On ch=1 n=b3 v=127
128580 On ch=1 n=b4 v=127
128640 On ch=1 n=b3 v=0
128640 On ch=1 n=b4 v=0
128640 On ch=1 n=b3 v=127
128640 On ch=1 n=b4 v=127
128700 On ch=1 n=b3 v=0
128700 On ch=1 n=b4 v=0
128760 On ch=1 n=c4 v=127
128760 On ch=1 n=c5 v=127
128880 On ch=1 n=c4 v=0
128880 On ch=1 n=c5 v=0
128880 On ch=1 n=b3 v=127
128880 On ch=1 n=b4 v=127
129000 On ch=1 n=b3 v=0
129000 On ch=1 n=b4 v=0
129000 On ch=1 n=a3 v=127
129000 On ch=1 n=a4 v=127
129120 On ch=1 n=a3 v=0
129120 On ch=1 n=a4 v=0
129120 On ch=1 n=g3 v=127
129120 On ch=1 n=g4 v=127
129360 On ch=1 n=g3 v=0
129360 On ch=1 n=g4 v=0
129480 On ch=1 n=g2 v=127
129480 On ch=1 n=g3 v=127
129600 On ch=1 n=g2 v=0
129600 On ch=1 n=g3 v=0
129600 On ch=1 n=b2 v=127
129600 On ch=1 n=b3 v=127
129720 On ch=1 n=b2 v=0
129720 On ch=1 n=b3 v=0
129720 On ch=1 n=d3 v=127
129720 On ch=1 n=d4 v=127
129840 On ch=1 n=d3 v=0
129840 On ch=1 n=d4 v=0
129840 On ch=1 n=g3 v=127
129840 On ch=1 n=g4 v=127
129960 On ch=1 n=g3 v=0
129960 On ch=1 n=g4 v=0
129960 On ch=1 n=b3 v=127
129960 On ch=1 n=b4 v=127
130020 On ch=1 n=b3 v=0
130020 On ch=1 n=b4 v=0
130020 On ch=1 n=b3 v=127
130020 On ch=1 n=b4 v=127
130080 On ch=1 n=b3 v=0
130080 On ch=1 n=b4 v=0
130080 On ch=1 n=b3 v=127
130080 On ch=1 n=b4 v=127
130140 On ch=1 n=b3 v=0
130140 On ch=1 n=b4 v=0
130200 On ch=1 n=c4 v=127
130200 On ch=1 n=c5 v=127
130320 On ch=1 n=c4 v=0
130320 On ch=1 n=c5 v=0
130320 On ch=1 n=b3 v=127
130320 On ch=1 n=b4 v=127
130440 On ch=1 n=b3 v=0
130440 On ch=1 n=b4 v=0
130440 On ch=1 n=a3 v=127
130440 On ch=1 n=a4 v=127
130560 On ch=1 n=a3 v=0
130560 On ch=1 n=a4 v=0
130560 On ch=1 n=g3 v=127
130560 On ch=1 n=g4 v=127
130680 On ch=1 n=g3 v=0
130680 On ch=1 n=g4 v=0
130680 On ch=1 n=f#3 v=127
130680 On ch=1 n=f#4 v=127
130740 On ch=1 n=f#3 v=0
130740 On ch=1 n=f#4 v=0
130740 On ch=1 n=e3 v=127
130740 On ch=1 n=e4 v=127
130800 On ch=1 n=e3 v=0
130800 On ch=1 n=e4 v=0
130800 On ch=1 n=d3 v=127
130800 On ch=1 n=d4 v=127
130860 On ch=1 n=d3 v=0
130860 On ch=1 n=d4 v=0
130920 On ch=1 n=g2 v=127
130920 On ch=1 n=g3 v=127
131040 On ch=1 n=g2 v=0
131040 On ch=1 n=g3 v=0
131040 On ch=1 n=b2 v=127
131040 On ch=1 n=b3 v=127
131160 On ch=1 n=b2 v=0
131160 On ch=1 n=b3 v=0
131160 On ch=1 n=d3 v=127
131160 On ch=1 n=d4 v=127
131280 On ch=1 n=d3 v=0
131280 On ch=1 n=d4 v=0
131280 On ch=1 n=g3 v=127
131280 On ch=1 n=g4 v=127
131400 On ch=1 n=g3 v=0
131400 On ch=1 n=g4 v=0
131400 On ch=1 n=b3 v=127
131400 On ch=1 n=b4 v=127
131460 On ch=1 n=b3 v=0
131460 On ch=1 n=b4 v=0
131460 On ch=1 n=b3 v=127
131460 On ch=1 n=b4 v=127
131520 On ch=1 n=b3 v=0
131520 On ch=1 n=b4 v=0
131520 On ch=1 n=b3 v=127
131520 On ch=1 n=b4 v=127
131580 On ch=1 n=b3 v=0
131580 On ch=1 n=b4 v=0
131640 On ch=1 n=c4 v=127
131640 On ch=1 n=c5 v=127
131760 On ch=1 n=c4 v=0
131760 On ch=1 n=c5 v=0
131760 On ch=1 n=b3 v=127
131760 On ch=1 n=b4 v=127
131880 On ch=1 n=b3 v=0
131880 On ch=1 n=b4 v=0
131880 On ch=1 n=a3 v=127
131880 On ch=1 n=a4 v=127
132000 On ch=1 n=a3 v=0
132000 On ch=1 n=a4 v=0
132000 On ch=1 n=g3 v=127
132000 On ch=1 n=g4 v=127
132240 On ch=1 n=g3 v=0
132240 On ch=1 n=g4 v=0
132360 On ch=1 n=c3 v=65
132420 On ch=1 n=c3 v=0
132420 On ch=1 n=g3 v=65
132480 On ch=1 n=g3 v=0
132480 On ch=1 n=c4 v=65
132540 On ch=1 n=c4 v=0
132540 On ch=1 n=e4 v=65
132600 On ch=1 n=e4 v=0
132600 On ch=1 n=g4 v=78
132720 On ch=1 n=g4 v=0
132720 On ch=1 n=f#4 v=65
132780 On ch=1 n=f#4 v=0
132780 On ch=1 n=d#4 v=65
132840 On ch=1 n=d#4 v=0
132840 On ch=1 n=c4 v=65
132900 On ch=1 n=c4 v=0
132900 On ch=1 n=a3 v=65
132960 On ch=1 n=a3 v=0
132960 On ch=1 n=f#3 v=78
133080 On ch=1 n=f#3 v=0
133080 On ch=1 n=c3 v=65
133140 On ch=1 n=c3 v=0
133140 On ch=1 n=g3 v=65
133200 On ch=1 n=g3 v=0
133200 On ch=1 n=c4 v=65
133260 On ch=1 n=c4 v=0
133260 On ch=1 n=e4 v=65
133320 On ch=1 n=e4 v=0
133320 On ch=1 n=g4 v=78
133440 On ch=1 n=g4 v=0
133440 On ch=1 n=a4 v=65
133500 On ch=1 n=a4 v=0
133500 On ch=1 n=f#4 v=65
133560 On ch=1 n=f#4 v=0
133560 On ch=1 n=d#4 v=65
133620 On ch=1 n=d#4 v=0
133620 On ch=1 n=c4 v=65
133680 On ch=1 n=c4 v=0
133680 On ch=1 n=a3 v=78
133800 On ch=1 n=a3 v=0
133800 On ch=1 n=c3 v=65
133860 On ch=1 n=c3 v=0
133860 On ch=1 n=g3 v=65
133920 On ch=1 n=g3 v=0
133920 On ch=1 n=c4 v=65
133980 On ch=1 n=c4 v=0
133980 On ch=1 n=e4 v=65
134040 On ch=1 n=e4 v=0
134040 On ch=1 n=g4 v=78
134160 On ch=1 n=g4 v=0
134160 On ch=1 n=a4 v=65
134220 On ch=1 n=a4 v=0
134220 On ch=1 n=g4 v=65
134280 On ch=1 n=g4 v=0
134280 On ch=1 n=e4 v=65
134340 On ch=1 n=e4 v=0
134340 On ch=1 n=c4 v=65
134400 On ch=1 n=c4 v=0
134400 On ch=1 n=g3 v=78
134520 On ch=1 n=g3 v=0
134520 On ch=1 n=a2 v=65
134580 On ch=1 n=a2 v=0
134580 On ch=1 n=e3 v=65
134640 On ch=1 n=e3 v=0
134640 On ch=1 n=a3 v=65
134700 On ch=1 n=a3 v=0
134700 On ch=1 n=c#4 v=65
134760 On ch=1 n=c#4 v=0
134760 On ch=1 n=e4 v=78
134880 On ch=1 n=e4 v=0
134880 On ch=1 n=a4 v=65
134940 On ch=1 n=a4 v=0
134940 On ch=1 n=e4 v=65
135000 On ch=1 n=e4 v=0
135000 On ch=1 n=c#4 v=65
135060 On ch=1 n=c#4 v=0
135060 On ch=1 n=a3 v=65
135120 On ch=1 n=a3 v=0
135120 On ch=1 n=e3 v=78
135240 On ch=1 n=e3 v=0
135240 On ch=1 n=d3 v=65
135300 On ch=1 n=d3 v=0
135300 On ch=1 n=a3 v=65
135360 On ch=1 n=a3 v=0
135360 On ch=1 n=d4 v=65
135420 On ch=1 n=d4 v=0
135420 On ch=1 n=f4 v=65
135480 On ch=1 n=f4 v=0
135480 On ch=1 n=a4 v=78
135600 On ch=1 n=a4 v=0
135600 On ch=1 n=c5 v=65
135660 On ch=1 n=c5 v=0
135660 On ch=1 n=a4 v=65
135720 On ch=1 n=a4 v=0
135720 On ch=1 n=f4 v=65
135780 On ch=1 n=f4 v=0
135780 On ch=1 n=d4 v=65
135840 On ch=1 n=d4 v=0
135840 On ch=1 n=a3 v=65
135960 On ch=1 n=a3 v=0
135960 On ch=1 n=g3 v=65
136020 On ch=1 n=g3 v=0
136020 On ch=1 n=d4 v=65
136080 On ch=1 n=d4 v=0
136080 On ch=1 n=g4 v=65
136140 On ch=1 n=g4 v=0
136140 On ch=1 n=b4 v=65
136200 On ch=1 n=b4 v=0
136200 On ch=1 n=d5 v=65
136320 On ch=1 n=d5 v=0
136320 On ch=1 n=e5 v=78
136380 On ch=1 n=e5 v=0
136380 On ch=1 n=d5 v=65
136440 On ch=1 n=d5 v=0
136440 On ch=1 n=b4 v=65
136500 On ch=1 n=b4 v=0
136500 On ch=1 n=g4 v=65
136560 On ch=1 n=g4 v=0
136560 On ch=1 n=d4 v=65
136680 On ch=1 n=d4 v=0
136680 On ch=1 n=c3 v=65
136740 On ch=1 n=c3 v=0
136740 On ch=1 n=g3 v=65
136800 On ch=1 n=g3 v=0
136800 On ch=1 n=c4 v=65
136860 On ch=1 n=c4 v=0
136860 On ch=1 n=e4 v=65
136920 On ch=1 n=e4 v=0
136920 On ch=1 n=g4 v=65
137040 On ch=1 n=g4 v=0
137040 On ch=1 n=a4 v=65
137100 On ch=1 n=a4 v=0
137100 On ch=1 n=g4 v=65
137160 On ch=1 n=g4 v=0
137160 On ch=1 n=e4 v=65
137220 On ch=1 n=e4 v=0
137220 On ch=1 n=c4 v=65
137280 On ch=1 n=c4 v=0
137280 On ch=1 n=g3 v=65
137400 On ch=1 n=g3 v=0
137400 On ch=1 n=c3 v=65
137460 On ch=1 n=c3 v=0
137460 On ch=1 n=g3 v=65
137520 On ch=1 n=g3 v=0
137520 On ch=1 n=d4 v=65
137580 On ch=1 n=d4 v=0
137580 On ch=1 n=f4 v=65
137640 On ch=1 n=f4 v=0
137640 On ch=1 n=g4 v=65
137760 On ch=1 n=g4 v=0
137760 On ch=1 n=g#4 v=65
137820 On ch=1 n=g#4 v=0
137820 On ch=1 n=g4 v=65
137880 On ch=1 n=g4 v=0
137880 On ch=1 n=f4 v=65
137940 On ch=1 n=f4 v=0
137940 On ch=1 n=d4 v=65
138000 On ch=1 n=d4 v=0
138000 On ch=1 n=g3 v=65
138120 On ch=1 n=g3 v=0
138120 On ch=1 n=c3 v=65
138180 On ch=1 n=c3 v=0
138180 On ch=1 n=g3 v=65
138240 On ch=1 n=g3 v=0
138240 On ch=1 n=c4 v=65
138300 On ch=1 n=c4 v=0
138300 On ch=1 n=e4 v=65
138360 On ch=1 n=e4 v=0
138360 On ch=1 n=g4 v=78
138480 On ch=1 n=g4 v=0
138480 On ch=1 n=f#4 v=65
138540 On ch=1 n=f#4 v=0
138540 On ch=1 n=d#4 v=65
138600 On ch=1 n=d#4 v=0
138600 On ch=1 n=c4 v=65
138660 On ch=1 n=c4 v=0
138660 On ch=1 n=a3 v=65
138720 On ch=1 n=a3 v=0
138720 On ch=1 n=f#3 v=78
138840 On ch=1 n=f#3 v=0
138840 On ch=1 n=c3 v=65
138900 On ch=1 n=c3 v=0
138900 On ch=1 n=g3 v=65
138960 On ch=1 n=g3 v=0
138960 On ch=1 n=c4 v=65
139020 On ch=1 n=c4 v=0
139020 On ch=1 n=e4 v=65
139080 On ch=1 n=e4 v=0
139080 On ch=1 n=g4 v=78
139200 On ch=1 n=g4 v=0
139200 On ch=1 n=a4 v=65
139260 On ch=1 n=a4 v=0
139260 On ch=1 n=f#4 v=65
139320 On ch=1 n=f#4 v=0
139320 On ch=1 n=d#4 v=65
139380 On ch=1 n=d#4 v=0
139380 On ch=1 n=c4 v=65
139440 On ch=1 n=c4 v=0
139440 On ch=1 n=a3 v=78
139560 On ch=1 n=a3 v=0
139560 On ch=1 n=c3 v=65
139620 On ch=1 n=c3 v=0
139620 On ch=1 n=g3 v=65
139680 On ch=1 n=g3 v=0
139680 On ch=1 n=c4 v=65
139740 On ch=1 n=c4 v=0
139740 On ch=1 n=e4 v=65
139800 On ch=1 n=e4 v=0
139800 On ch=1 n=g4 v=78
139920 On ch=1 n=g4 v=0
139920 On ch=1 n=a4 v=65
139980 On ch=1 n=a4 v=0
139980 On ch=1 n=g4 v=65
140040 On ch=1 n=g4 v=0
140040 On ch=1 n=e4 v=65
140100 On ch=1 n=e4 v=0
140100 On ch=1 n=c4 v=65
140160 On ch=1 n=c4 v=0
140160 On ch=1 n=g3 v=78
140280 On ch=1 n=g3 v=0
140280 On ch=1 n=a2 v=65
140340 On ch=1 n=a2 v=0
140340 On ch=1 n=e3 v=65
140400 On ch=1 n=e3 v=0
140400 On ch=1 n=a3 v=65
140460 On ch=1 n=a3 v=0
140460 On ch=1 n=c#4 v=65
140520 On ch=1 n=c#4 v=0
140520 On ch=1 n=e4 v=78
140640 On ch=1 n=e4 v=0
140640 On ch=1 n=a4 v=65
140700 On ch=1 n=a4 v=0
140700 On ch=1 n=e4 v=65
140760 On ch=1 n=e4 v=0
140760 On ch=1 n=c#4 v=65
140820 On ch=1 n=c#4 v=0
140820 On ch=1 n=a3 v=65
140880 On ch=1 n=a3 v=0
140880 On ch=1 n=e3 v=78
141000 On ch=1 n=e3 v=0
141000 On ch=1 n=d3 v=65
141060 On ch=1 n=d3 v=0
141060 On ch=1 n=a3 v=65
141120 On ch=1 n=a3 v=0
141120 On ch=1 n=d4 v=65
141180 On ch=1 n=d4 v=0
141180 On ch=1 n=f4 v=65
141240 On ch=1 n=f4 v=0
141240 On ch=1 n=a4 v=78
141360 On ch=1 n=a4 v=0
141360 On ch=1 n=c5 v=65
141420 On ch=1 n=c5 v=0
141420 On ch=1 n=a4 v=65
141480 On ch=1 n=a4 v=0
141480 On ch=1 n=f4 v=65
141540 On ch=1 n=f4 v=0
141540 On ch=1 n=d4 v=65
141600 On ch=1 n=d4 v=0
141600 On ch=1 n=a3 v=65
141720 On ch=1 n=a3 v=0
141720 On ch=1 n=g3 v=65
141780 On ch=1 n=g3 v=0
141780 On ch=1 n=d4 v=65
141840 On ch=1 n=d4 v=0
141840 On ch=1 n=g4 v=65
141900 On ch=1 n=g4 v=0
141900 On ch=1 n=b4 v=65
141960 On ch=1 n=b4 v=0
141960 On ch=1 n=d5 v=65
142080 On ch=1 n=d5 v=0
142080 On ch=1 n=e5 v=78
142140 On ch=1 n=e5 v=0
142140 On ch=1 n=d5 v=65
142200 On ch=1 n=d5 v=0
142200 On ch=1 n=b4 v=65
142260 On ch=1 n=b4 v=0
142260 On ch=1 n=g4 v=65
142320 On ch=1 n=g4 v=0
142320 On ch=1 n=d4 v=65
142440 On ch=1 n=d4 v=0
142440 On ch=1 n=c3 v=65
142500 On ch=1 n=c3 v=0
142500 On ch=1 n=g3 v=65
142560 On ch=1 n=g3 v=0
142560 On ch=1 n=c4 v=65
142620 On ch=1 n=c4 v=0
142620 On ch=1 n=e4 v=65
142680 On ch=1 n=e4 v=0
142680 On ch=1 n=g4 v=65
142800 On ch=1 n=g4 v=0
142800 On ch=1 n=a4 v=65
142860 On ch=1 n=a4 v=0
142860 On ch=1 n=g4 v=65
142920 On ch=1 n=g4 v=0
142920 On ch=1 n=e4 v=65
142980 On ch=1 n=e4 v=0
142980 On ch=1 n=c4 v=65
143040 On ch=1 n=c4 v=0
143040 On ch=1 n=g3 v=65
143160 On ch=1 n=g3 v=0
143160 On ch=1 n=c3 v=65
143220 On ch=1 n=c3 v=0
143220 On ch=1 n=g3 v=65
143280 On ch=1 n=g3 v=0
143280 On ch=1 n=c4 v=65
143340 On ch=1 n=c4 v=0
143340 On ch=1 n=e4 v=65
143400 On ch=1 n=e4 v=0
143400 On ch=1 n=g4 v=65
143520 On ch=1 n=g4 v=0
143520 On ch=1 n=a4 v=65
143580 On ch=1 n=a4 v=0
143580 On ch=1 n=g4 v=65
143640 On ch=1 n=g4 v=0
143640 On ch=1 n=c5 v=65
143760 On ch=1 n=c5 v=0
143880 On ch=1 n=f4 v=90
143940 On ch=1 n=f4 v=0
143940 On ch=1 n=a4 v=90
144000 On ch=1 n=a4 v=0
144000 On ch=1 n=d5 v=90
144060 On ch=1 n=d5 v=0
144240 On ch=1 n=f4 v=90
144300 On ch=1 n=f4 v=0
144300 On ch=1 n=b4 v=90
144360 On ch=1 n=b4 v=0
144360 On ch=1 n=g5 v=90
144420 On ch=1 n=g5 v=0
144600 On ch=1 n=e4 v=90
144660 On ch=1 n=e4 v=0
144660 On ch=1 n=c5 v=90
144720 On ch=1 n=c5 v=0
144720 On ch=1 n=g5 v=90
144780 On ch=1 n=g5 v=0
144960 On ch=1 n=d4 v=90
145020 On ch=1 n=d4 v=0
145020 On ch=1 n=b4 v=90
145080 On ch=1 n=b4 v=0
145080 On ch=1 n=g5 v=90
145140 On ch=1 n=g5 v=0
145320 Par ch=1 c=64 v=127
145320 On ch=1 n=f4 v=53
145380 On ch=1 n=f4 v=0
145380 On ch=1 n=g#4 v=53
145440 On ch=1 n=g#4 v=0
145440 On ch=1 n=c#5 v=53
145500 On ch=1 n=c#5 v=0
145500 On ch=1 n=f5 v=53
145560 On ch=1 n=f5 v=0
145680 On ch=1 n=f4 v=53
145740 On ch=1 n=f4 v=0
145740 On ch=1 n=b4 v=53
145800 On ch=1 n=b4 v=0
145800 On ch=1 n=d5 v=53
145860 On ch=1 n=d5 v=0
145860 On ch=1 n=g#5 v=53
145920 On ch=1 n=g#5 v=0
146040 On ch=1 n=d#4 v=53
146100 On ch=1 n=d#4 v=0
146100 On ch=1 n=g4 v=53
146160 On ch=1 n=g4 v=0
146160 On ch=1 n=c5 v=53
146220 On ch=1 n=c5 v=0
146220 On ch=1 n=g5 v=53
146280 On ch=1 n=g5 v=0
146400 On ch=1 n=d4 v=53
146460 On ch=1 n=d4 v=0
146460 On ch=1 n=g4 v=53
146520 On ch=1 n=g4 v=0
146520 On ch=1 n=b4 v=53
146580 On ch=1 n=b4 v=0
146580 On ch=1 n=f5 v=53
146640 On ch=1 n=f5 v=0
146640 Par ch=1 c=64 v=0
146760 On ch=1 n=c4 v=65
146820 On ch=1 n=c4 v=0
146820 On ch=1 n=g4 v=65
146880 On ch=1 n=g4 v=0
146880 On ch=1 n=c5 v=65
146940 On ch=1 n=c5 v=0
146940 On ch=1 n=e5 v=65
147000 On ch=1 n=e5 v=0
147000 On ch=1 n=g5 v=65
147120 On ch=1 n=g5 v=0
147120 On ch=1 n=a5 v=65
147180 On ch=1 n=a5 v=0
147180 On ch=1 n=f#5 v=65
147240 On ch=1 n=f#5 v=0
147240 On ch=1 n=d#5 v=65
147300 On ch=1 n=d#5 v=0
147300 On ch=1 n=c5 v=65
147360 On ch=1 n=c5 v=0
147360 On ch=1 n=a4 v=65
147480 On ch=1 n=a4 v=0
147480 On ch=1 n=c4 v=65
147540 On ch=1 n=c4 v=0
147540 On ch=1 n=g4 v=65
147600 On ch=1 n=g4 v=0
147600 On ch=1 n=c5 v=65
147660 On ch=1 n=c5 v=0
147660 On ch=1 n=e5 v=65
147720 On ch=1 n=e5 v=0
147720 On ch=1 n=g5 v=65
147840 On ch=1 n=g5 v=0
147840 On ch=1 n=f#5 v=65
147900 On ch=1 n=f#5 v=0
147900 On ch=1 n=d#5 v=65
147960 On ch=1 n=d#5 v=0
147960 On ch=1 n=c5 v=65
148020 On ch=1 n=c5 v=0
148020 On ch=1 n=a4 v=65
148080 On ch=1 n=a4 v=0
148080 On ch=1 n=f#4 v=65
148200 On ch=1 n=f#4 v=0
148200 On ch=1 n=c4 v=65
148260 On ch=1 n=c4 v=0
148260 On ch=1 n=e4 v=65
148320 On ch=1 n=e4 v=0
148320 On ch=1 n=g4 v=65
148380 On ch=1 n=g4 v=0
148380 On ch=1 n=c5 v=65
148440 On ch=1 n=c5 v=0
148440 On ch=1 n=e5 v=65
148560 On ch=1 n=e5 v=0
148560 On ch=1 n=d#5 v=65
148620 On ch=1 n=d#5 v=0
148620 On ch=1 n=c5 v=65
148680 On ch=1 n=c5 v=0
148680 On ch=1 n=a4 v=65
148740 On ch=1 n=a4 v=0
148740 On ch=1 n=f#4 v=65
148800 On ch=1 n=f#4 v=0
148800 On ch=1 n=d#4 v=65
148920 On ch=1 n=d#4 v=0
148920 Par ch=1 c=64 v=66
148920 On ch=1 n=b3 v=65
148980 On ch=1 n=b3 v=0
148980 On ch=1 n=d#4 v=65
149040 On ch=1 n=d#4 v=0
149040 On ch=1 n=f#4 v=61
149100 On ch=1 n=f#4 v=0
149100 On ch=1 n=b4 v=61
149160 On ch=1 n=b4 v=0
149160 On ch=1 n=d#5 v=57
149280 On ch=1 n=d#5 v=0
149280 On ch=1 n=e5 v=57
149340 On ch=1 n=e5 v=0
149340 On ch=1 n=d#5 v=57
149400 On ch=1 n=d#5 v=0
149400 On ch=1 n=b4 v=53
149460 On ch=1 n=b4 v=0
149460 On ch=1 n=f#4 v=53
149519 Par ch=1 c=64 v=0
149520 On ch=1 n=f#4 v=0
149520 On ch=1 n=d#4 v=49
149640 On ch=1 n=d#4 v=0
149640 On ch=1 n=e3 v=90
149700 On ch=1 n=e3 v=0
149700 On ch=1 n=b3 v=90
149760 On ch=1 n=b3 v=0
149760 On ch=1 n=e4 v=90
149820 On ch=1 n=e4 v=0
149820 On ch=1 n=g4 v=90
149880 On ch=1 n=g4 v=0
149880 On ch=1 n=b4 v=90
150000 On ch=1 n=b4 v=0
150000 On ch=1 n=c5 v=90
150060 On ch=1 n=c5 v=0
150060 On ch=1 n=a4 v=90
150120 On ch=1 n=a4 v=0
150120 On ch=1 n=f#4 v=90
150180 On ch=1 n=f#4 v=0
150180 On ch=1 n=e4 v=90
150240 On ch=1 n=e4 v=0
150240 On ch=1 n=c4 v=90
150360 On ch=1 n=c4 v=0
150360 On ch=1 n=e3 v=90
150420 On ch=1 n=e3 v=0
150420 On ch=1 n=b3 v=90
150480 On ch=1 n=b3 v=0
150480 On ch=1 n=e4 v=90
150540 On ch=1 n=e4 v=0
150540 On ch=1 n=g4 v=90
150600 On ch=1 n=g4 v=0
150600 On ch=1 n=b4 v=90
150720 On ch=1 n=b4 v=0
150720 On ch=1 n=a4 v=90
150780 On ch=1 n=a4 v=0
150780 On ch=1 n=f#4 v=90
150840 On ch=1 n=f#4 v=0
150840 On ch=1 n=e4 v=90
150900 On ch=1 n=e4 v=0
150900 On ch=1 n=c4 v=90
150960 On ch=1 n=c4 v=0
150960 On ch=1 n=a3 v=90
151080 On ch=1 n=a3 v=0
151080 On ch=1 n=e3 v=90
151140 On ch=1 n=e3 v=0
151140 On ch=1 n=b3 v=90
151200 On ch=1 n=b3 v=0
151200 On ch=1 n=e4 v=90
151260 On ch=1 n=e4 v=0
151260 On ch=1 n=f#4 v=90
151320 On ch=1 n=f#4 v=0
151320 On ch=1 n=g4 v=90
151440 On ch=1 n=g4 v=0
151440 On ch=1 n=e3 v=82
151500 On ch=1 n=e3 v=0
151500 On ch=1 n=a3 v=82
151560 On ch=1 n=a3 v=0
151560 On ch=1 n=c4 v=82
151620 On ch=1 n=c4 v=0
151620 On ch=1 n=e4 v=82
151680 On ch=1 n=e4 v=0
151680 On ch=1 n=f#4 v=82
151800 On ch=1 n=f#4 v=0
151800 On ch=1 n=e3 v=74
151860 On ch=1 n=e3 v=0
151860 On ch=1 n=a3 v=74
151920 On ch=1 n=a3 v=0
151920 On ch=1 n=b3 v=74
151980 On ch=1 n=b3 v=0
151980 On ch=1 n=d#4 v=74
152040 On ch=1 n=d#4 v=0
152040 On ch=1 n=f#4 v=74
152160 On ch=1 n=f#4 v=0
152160 On ch=1 n=e3 v=66
152220 On ch=1 n=e3 v=0
152220 On ch=1 n=g3 v=66
152280 On ch=1 n=g3 v=0
152280 On ch=1 n=b3 v=66
152340 On ch=1 n=b3 v=0
152340 On ch=1 n=d#4 v=66
152400 On ch=1 n=d#4 v=0
152400 On ch=1 n=e4 v=66
152460 On ch=1 n=e4 v=0
152520 On ch=1 n=g3 v=127
152520 On ch=1 n=g4 v=127
152550 On ch=1 n=g3 v=0
152550 On ch=1 n=g4 v=0
152580 On ch=1 n=g3 v=127
152580 On ch=1 n=g4 v=127
152610 On ch=1 n=g3 v=0
152610 On ch=1 n=g4 v=0
152640 On ch=1 n=g3 v=127
152640 On ch=1 n=g4 v=127
152760 On ch=1 n=g3 v=0
152760 On ch=1 n=g4 v=0
152760 On ch=1 n=d3 v=127
152760 On ch=1 n=d4 v=127
152880 On ch=1 n=d3 v=0
152880 On ch=1 n=d4 v=0
152880 On ch=1 n=b3 v=127
152880 On ch=1 n=b4 v=127
153000 On ch=1 n=b3 v=0
153000 On ch=1 n=b4 v=0
153000 On ch=1 n=a#3 v=127
153000 On ch=1 n=a#4 v=127
153060 On ch=1 n=a#3 v=0
153060 On ch=1 n=a#4 v=0
153060 On ch=1 n=a#3 v=127
153060 On ch=1 n=a#4 v=127
153120 On ch=1 n=a#3 v=0
153120 On ch=1 n=a#4 v=0
153120 On ch=1 n=b3 v=127
153120 On ch=1 n=b4 v=127
153180 On ch=1 n=b3 v=0
153180 On ch=1 n=b4 v=0
153240 On ch=1 n=b3 v=127
153240 On ch=1 n=b4 v=127
153270 On ch=1 n=b3 v=0
153270 On ch=1 n=b4 v=0
153300 On ch=1 n=b3 v=127
153300 On ch=1 n=b4 v=127
153330 On ch=1 n=b3 v=0
153330 On ch=1 n=b4 v=0
153360 On ch=1 n=b3 v=127
153360 On ch=1 n=b4 v=127
153480 On ch=1 n=b3 v=0
153480 On ch=1 n=b4 v=0
153480 On ch=1 n=g3 v=127
153480 On ch=1 n=g4 v=127
153600 On ch=1 n=g3 v=0
153600 On ch=1 n=g4 v=0
153600 On ch=1 n=d4 v=127
153600 On ch=1 n=d5 v=127
153720 On ch=1 n=d4 v=0
153720 On ch=1 n=d5 v=0
153720 On ch=1 n=c#4 v=127
153720 On ch=1 n=c#5 v=127
153780 On ch=1 n=c#4 v=0
153780 On ch=1 n=c#5 v=0
153780 On ch=1 n=c#4 v=127
153780 On ch=1 n=c#5 v=127
153840 On ch=1 n=c#4 v=0
153840 On ch=1 n=c#5 v=0
153840 On ch=1 n=d4 v=127
153840 On ch=1 n=d5 v=127
153960 On ch=1 n=d4 v=0
153960 On ch=1 n=d5 v=0
154320 On ch=1 n=c4 v=65
154380 On ch=1 n=c4 v=0
154380 On ch=1 n=g4 v=65
154440 On ch=1 n=g4 v=0
154440 On ch=1 n=c5 v=65
154500 On ch=1 n=c5 v=0
154500 On ch=1 n=e5 v=65
154560 On ch=1 n=e5 v=0
154560 On ch=1 n=g5 v=65
154680 On ch=1 n=g5 v=0
154680 On ch=1 n=a5 v=78
154740 On ch=1 n=a5 v=0
154740 On ch=1 n=f#5 v=65
154800 On ch=1 n=f#5 v=0
154800 On ch=1 n=d5 v=65
154860 On ch=1 n=d5 v=0
154860 On ch=1 n=c5 v=65
154920 On ch=1 n=c5 v=0
154920 On ch=1 n=a4 v=65
155040 On ch=1 n=a4 v=0
155040 On ch=1 n=g3 v=65
155100 On ch=1 n=g3 v=0
155100 On ch=1 n=d4 v=65
155160 On ch=1 n=d4 v=0
155160 On ch=1 n=g4 v=65
155220 On ch=1 n=g4 v=0
155220 On ch=1 n=c5 v=65
155280 On ch=1 n=c5 v=0
155280 On ch=1 n=d5 v=65
155400 On ch=1 n=d5 v=0
155400 On ch=1 n=f5 v=78
155460 On ch=1 n=f5 v=0
155460 On ch=1 n=d5 v=65
155520 On ch=1 n=d5 v=0
155520 On ch=1 n=b4 v=65
155580 On ch=1 n=b4 v=0
155580 On ch=1 n=g4 v=65
155640 On ch=1 n=g4 v=0
155640 On ch=1 n=f4 v=65
155760 On ch=1 n=f4 v=0
155760 Par ch=1 c=64 v=127
155760 On ch=1 n=c3 v=65
155820 On ch=1 n=c3 v=0
155820 On ch=1 n=g3 v=65
155880 On ch=1 n=g3 v=0
155880 On ch=1 n=c4 v=65
155940 On ch=1 n=c4 v=0
155940 On ch=1 n=e4 v=65
156000 On ch=1 n=e4 v=0
156000 On ch=1 n=g4 v=65
156120 On ch=1 n=g4 v=0
156120 On ch=1 n=a4 v=78
156180 On ch=1 n=a4 v=0
156180 On ch=1 n=g4 v=65
156240 On ch=1 n=g4 v=0
156240 On ch=1 n=e4 v=65
156300 On ch=1 n=e4 v=0
156300 On ch=1 n=c4 v=65
156360 On ch=1 n=c4 v=0
156360 On ch=1 n=g3 v=65
156480 On ch=1 n=g3 v=0
156480 On ch=1 n=c3 v=47
156540 On ch=1 n=c3 v=0
156540 On ch=1 n=g3 v=47
156600 On ch=1 n=g3 v=0
156600 On ch=1 n=c4 v=47
156660 On ch=1 n=c4 v=0
156660 On ch=1 n=e4 v=47
156720 On ch=1 n=e4 v=0
156720 On ch=1 n=g4 v=47
156840 On ch=1 n=g4 v=0
156840 On ch=1 n=a4 v=54
156900 On ch=1 n=a4 v=0
156900 On ch=1 n=g4 v=47
156960 On ch=1 n=g4 v=0
156960 On ch=1 n=e4 v=47
157020 On ch=1 n=e4 v=0
157020 Par ch=1 c=64 v=0
157020 On ch=1 n=c4 v=47
157080 On ch=1 n=c4 v=0
157080 On ch=1 n=g3 v=47
157200 On ch=1 n=c3 v=29
157680 On ch=1 n=g3 v=0
157680 On ch=1 n=c3 v=0
157920 On ch=1 n=a2 v=114
157920 On ch=1 n=a3 v=114
157980 On ch=1 n=a2 v=0
157980 On ch=1 n=a3 v=0
157980 On ch=1 n=d#5 v=90
157980 On ch=1 n=c5 v=90
157980 On ch=1 n=a4 v=90
158010 On ch=1 n=d#5 v=0
158010 On ch=1 n=c5 v=0
158010 On ch=1 n=a4 v=0
158010 On ch=1 n=d#5 v=90
158010 On ch=1 n=c5 v=90
158010 On ch=1 n=a4 v=90
158040 On ch=1 n=d#5 v=0
158040 On ch=1 n=c5 v=0
158040 On ch=1 n=a4 v=0
158040 On ch=1 n=d#5 v=90
158040 On ch=1 n=c5 v=90
158040 On ch=1 n=a4 v=90
158100 On ch=1 n=d#5 v=0
158100 On ch=1 n=c5 v=0
158100 On ch=1 n=a4 v=0
158100 On ch=1 n=e5 v=90
158100 On ch=1 n=c#5 v=90
158100 On ch=1 n=a4 v=90
158130 On ch=1 n=e5 v=0
158130 On ch=1 n=c#5 v=0
158130 On ch=1 n=a4 v=0
158130 On ch=1 n=a4 v=90
158130 On ch=1 n=c#5 v=90
158130 On ch=1 n=e5 v=90
158160 On ch=1 n=a4 v=0
158160 On ch=1 n=c#5 v=0
158160 On ch=1 n=e5 v=0
158160 On ch=1 n=a4 v=90
158160 On ch=1 n=c#5 v=90
158160 On ch=1 n=e5 v=90
158220 On ch=1 n=a4 v=0
158220 On ch=1 n=c#5 v=0
158220 On ch=1 n=e5 v=0
158220 On ch=1 n=f5 v=90
158220 On ch=1 n=d5 v=90
158220 On ch=1 n=a4 v=90
158250 On ch=1 n=f5 v=0
158250 On ch=1 n=d5 v=0
158250 On ch=1 n=a4 v=0
158250 On ch=1 n=d5 v=90
158250 On ch=1 n=f5 v=90
158250 On ch=1 n=a4 v=90
158280 On ch=1 n=d5 v=0
158280 On ch=1 n=f5 v=0
158280 On ch=1 n=a4 v=0
158280 On ch=1 n=a4 v=90
158280 On ch=1 n=d5 v=90
158280 On ch=1 n=f5 v=90
158340 On ch=1 n=a4 v=0
158340 On ch=1 n=d5 v=0
158340 On ch=1 n=f5 v=0
158340 On ch=1 n=a4 v=90
158340 On ch=1 n=d#5 v=90
158340 On ch=1 n=f#5 v=90
158370 On ch=1 n=a4 v=0
158370 On ch=1 n=d#5 v=0
158370 On ch=1 n=f#5 v=0
158370 On ch=1 n=f#5 v=90
158370 On ch=1 n=d#5 v=90
158370 On ch=1 n=a4 v=90
158400 On ch=1 n=f#5 v=0
158400 On ch=1 n=d#5 v=0
158400 On ch=1 n=a4 v=0
158400 On ch=1 n=a4 v=90
158400 On ch=1 n=d#5 v=90
158400 On ch=1 n=f#5 v=90
158460 On ch=1 n=a4 v=0
158460 On ch=1 n=d#5 v=0
158460 On ch=1 n=f#5 v=0
158460 On ch=1 n=g5 v=90
158460 On ch=1 n=e5 v=90
158460 On ch=1 n=a4 v=90
158490 On ch=1 n=g5 v=0
158490 On ch=1 n=e5 v=0
158490 On ch=1 n=a4 v=0
158490 On ch=1 n=e5 v=90
158490 On ch=1 n=g5 v=90
158490 On ch=1 n=a4 v=90
158520 On ch=1 n=e5 v=0
158520 On ch=1 n=g5 v=0
158520 On ch=1 n=a4 v=0
158520 On ch=1 n=a4 v=90
158520 On ch=1 n=e5 v=90
158520 On ch=1 n=g5 v=90
158580 On ch=1 n=a4 v=0
158580 On ch=1 n=e5 v=0
158580 On ch=1 n=g5 v=0
158580 On ch=1 n=a3 v=90
158580 On ch=1 n=a4 v=90
158640 On ch=1 n=a3 v=0
158640 On ch=1 n=a4 v=0
158640 On ch=1 n=d3 v=96
158640 On ch=1 n=d4 v=96
158700 On ch=1 n=d3 v=0
158700 On ch=1 n=d4 v=0
158700 On ch=1 n=d5 v=90
158700 On ch=1 n=a4 v=90
158700 On ch=1 n=f#4 v=90
158730 On ch=1 n=d5 v=0
158730 On ch=1 n=a4 v=0
158730 On ch=1 n=f#4 v=0
158730 On ch=1 n=f#4 v=90
158730 On ch=1 n=a4 v=90
158730 On ch=1 n=d5 v=90
158760 On ch=1 n=f#4 v=0
158760 On ch=1 n=a4 v=0
158760 On ch=1 n=d5 v=0
158760 On ch=1 n=d4 v=82
158820 On ch=1 n=d4 v=0
158820 On ch=1 n=d5 v=82
158820 On ch=1 n=a4 v=82
158820 On ch=1 n=f#4 v=82
158850 On ch=1 n=d5 v=0
158850 On ch=1 n=a4 v=0
158850 On ch=1 n=f#4 v=0
158850 On ch=1 n=f#4 v=82
158850 On ch=1 n=a4 v=82
158850 On ch=1 n=d5 v=82
158880 On ch=1 n=f#4 v=0
158880 On ch=1 n=a4 v=0
158880 On ch=1 n=d5 v=0
158880 On ch=1 n=d4 v=74
158940 On ch=1 n=d4 v=0
158940 On ch=1 n=d5 v=74
158940 On ch=1 n=a4 v=74
158940 On ch=1 n=f#4 v=74
158970 On ch=1 n=d5 v=0
158970 On ch=1 n=a4 v=0
158970 On ch=1 n=f#4 v=0
158970 On ch=1 n=f#4 v=74
158970 On ch=1 n=a4 v=74
158970 On ch=1 n=d5 v=74
159000 On ch=1 n=f#4 v=0
159000 On ch=1 n=a4 v=0
159000 On ch=1 n=d5 v=0
159000 On ch=1 n=c#4 v=65
159060 On ch=1 n=c#4 v=0
159060 On ch=1 n=e5 v=71
159060 On ch=1 n=a4 v=71
159180 On ch=1 n=e5 v=0
159180 On ch=1 n=a4 v=0
159180 On ch=1 n=a4 v=65
159180 On ch=1 n=e5 v=65
159210 On ch=1 n=a4 v=0
159210 On ch=1 n=e5 v=0
159210 On ch=1 n=a4 v=65
159210 On ch=1 n=e5 v=65
159240 On ch=1 n=a4 v=0
159240 On ch=1 n=e5 v=0
159240 On ch=1 n=a4 v=65
159240 On ch=1 n=e5 v=65
159300 On ch=1 n=a4 v=0
159300 On ch=1 n=e5 v=0
159300 On ch=1 n=e5 v=65
159300 On ch=1 n=a4 v=65
159360 On ch=1 n=e5 v=0
159360 On ch=1 n=a4 v=0
159360 On ch=1 n=c#4 v=65
159360 On ch=1 n=a4 v=65
159420 On ch=1 n=c#4 v=0
159420 On ch=1 n=a4 v=0
159420 On ch=1 n=e5 v=65
159420 On ch=1 n=a4 v=65
159480 On ch=1 n=e5 v=0
159480 On ch=1 n=a4 v=0
159480 On ch=1 n=d4 v=65
159480 On ch=1 n=a4 v=65
159540 On ch=1 n=d4 v=0
159540 On ch=1 n=a4 v=0
159540 On ch=1 n=d5 v=65
159540 On ch=1 n=a4 v=65
159600 On ch=1 n=d5 v=0
159600 On ch=1 n=a4 v=0
159600 On ch=1 n=c#4 v=65
159600 On ch=1 n=a4 v=65
159660 On ch=1 n=c#4 v=0
159660 On ch=1 n=a4 v=0
159660 On ch=1 n=e5 v=65
159660 On ch=1 n=a4 v=65
159720 On ch=1 n=e5 v=0
159720 On ch=1 n=a4 v=0
159720 On ch=1 n=d4 v=65
159720 On ch=1 n=f#4 v=65
159720 On ch=1 n=d5 v=65
159780 On ch=1 n=d4 v=0
159780 On ch=1 n=f#4 v=0
159780 On ch=1 n=d5 v=0
159780 On ch=1 n=f#4 v=65
159780 On ch=1 n=d5 v=65
159810 On ch=1 n=f#4 v=0
159810 On ch=1 n=d5 v=0
159810 On ch=1 n=f#4 v=65
159810 On ch=1 n=d5 v=65
159840 On ch=1 n=f#4 v=0
159840 On ch=1 n=d5 v=0
159840 On ch=1 n=f#4 v=70
159840 On ch=1 n=d5 v=70
159900 On ch=1 n=f#4 v=0
159900 On ch=1 n=d5 v=0
159900 On ch=1 n=e5 v=75
159900 On ch=1 n=a4 v=75
159960 On ch=1 n=e5 v=0
159960 On ch=1 n=a4 v=0
159960 On ch=1 n=f#5 v=80
159960 On ch=1 n=d5 v=80
160020 On ch=1 n=f#5 v=0
160020 On ch=1 n=d5 v=0
160020 On ch=1 n=a5 v=85
160020 On ch=1 n=f#5 v=85
160020 On ch=1 n=d5 v=85
160080 On ch=1 n=a5 v=0
160080 On ch=1 n=f#5 v=0
160080 On ch=1 n=d5 v=0
160080 On ch=1 n=d5 v=90
160080 On ch=1 n=g5 v=90
160080 On ch=1 n=b5 v=90
160140 On ch=1 n=g5 v=0
160140 On ch=1 n=b5 v=0
160140 On ch=1 n=f#5 v=90
160140 On ch=1 n=a5 v=90
160200 On ch=1 n=d5 v=0
160200 On ch=1 n=f#5 v=0
160200 On ch=1 n=a5 v=0
160200 On ch=1 n=a4 v=82
160200 On ch=1 n=e5 v=82
160290 On ch=1 n=a4 v=0
160290 On ch=1 n=e5 v=0
160290 On ch=1 n=d5 v=82
160290 On ch=1 n=f#5 v=82
160320 On ch=1 n=d5 v=0
160320 On ch=1 n=f#5 v=0
160320 On ch=1 n=a4 v=74
160320 On ch=1 n=e5 v=74
160440 On ch=1 n=a4 v=0
160440 On ch=1 n=e5 v=0
160440 On ch=1 n=c#4 v=65
160500 On ch=1 n=c#4 v=0
160500 On ch=1 n=e5 v=71
160500 On ch=1 n=a4 v=71
160620 On ch=1 n=e5 v=0
160620 On ch=1 n=a4 v=0
160620 On ch=1 n=a4 v=65
160620 On ch=1 n=e5 v=65
160650 On ch=1 n=a4 v=0
160650 On ch=1 n=e5 v=0
160650 On ch=1 n=a4 v=65
160650 On ch=1 n=e5 v=65
160680 On ch=1 n=a4 v=0
160680 On ch=1 n=e5 v=0
160680 On ch=1 n=a4 v=65
160680 On ch=1 n=e5 v=65
160740 On ch=1 n=a4 v=0
160740 On ch=1 n=e5 v=0
160740 On ch=1 n=e5 v=65
160740 On ch=1 n=a4 v=65
160800 On ch=1 n=e5 v=0
160800 On ch=1 n=a4 v=0
160800 On ch=1 n=c#4 v=65
160800 On ch=1 n=a4 v=65
160860 On ch=1 n=c#4 v=0
160860 On ch=1 n=a4 v=0
160860 On ch=1 n=e5 v=65
160860 On ch=1 n=a4 v=65
160920 On ch=1 n=e5 v=0
160920 On ch=1 n=a4 v=0
160920 On ch=1 n=d5 v=65
160920 On ch=1 n=d4 v=65
160920 On ch=1 n=a4 v=65
160980 On ch=1 n=d5 v=0
160980 On ch=1 n=d4 v=0
160980 On ch=1 n=a4 v=0
161040 On ch=1 n=d4 v=71
161040 On ch=1 n=b4 v=71
161100 On ch=1 n=d4 v=0
161100 On ch=1 n=b4 v=0
161100 On ch=1 n=c#4 v=65
161100 On ch=1 n=a4 v=65
161160 On ch=1 n=c#4 v=0
161160 On ch=1 n=a4 v=0
161160 On ch=1 n=c#4 v=65
161160 On ch=1 n=a4 v=65
161280 On ch=1 n=c#4 v=0
161280 On ch=1 n=a4 v=0
161280 On ch=1 n=d4 v=71
161280 On ch=1 n=b4 v=71
161340 On ch=1 n=d4 v=0
161340 On ch=1 n=b4 v=0
161340 On ch=1 n=c#4 v=65
161340 On ch=1 n=a4 v=65
161400 On ch=1 n=c#4 v=0
161400 On ch=1 n=a4 v=0
161400 On ch=1 n=c#4 v=65
161400 On ch=1 n=a4 v=65
161520 On ch=1 n=c#4 v=0
161520 On ch=1 n=a4 v=0
161520 On ch=1 n=c#4 v=102
161520 On ch=1 n=g#4 v=102
161580 On ch=1 n=c#4 v=0
161580 On ch=1 n=g#4 v=0
161580 On ch=1 n=c#5 v=102
161580 On ch=1 n=c#4 v=102
161640 On ch=1 n=c#5 v=0
161640 On ch=1 n=c#4 v=0
161640 On ch=1 n=c#5 v=102
161640 On ch=1 n=f#4 v=102
161700 On ch=1 n=c#5 v=0
161700 On ch=1 n=f#4 v=0
161700 On ch=1 n=c#4 v=102
161700 On ch=1 n=c#5 v=102
161730 On ch=1 n=c#4 v=0
161730 On ch=1 n=c#5 v=0
161760 On ch=1 n=f#3 v=90
161760 On ch=1 n=f#4 v=90
161790 On ch=1 n=f#3 v=0
161790 On ch=1 n=f#4 v=0
161820 On ch=1 n=c#4 v=78
161850 On ch=1 n=c#4 v=0
161880 On ch=1 n=f#3 v=65
161910 On ch=1 n=f#3 v=0
162000 On ch=1 n=c#4 v=65
162060 On ch=1 n=c#4 v=0
162060 On ch=1 n=e5 v=71
162060 On ch=1 n=a4 v=71
162180 On ch=1 n=e5 v=0
162180 On ch=1 n=a4 v=0
162180 On ch=1 n=a4 v=65
162180 On ch=1 n=e5 v=65
162210 On ch=1 n=a4 v=0
162210 On ch=1 n=e5 v=0
162210 On ch=1 n=a4 v=65
162210 On ch=1 n=e5 v=65
162240 On ch=1 n=a4 v=0
162240 On ch=1 n=e5 v=0
162240 On ch=1 n=a4 v=65
162240 On ch=1 n=e5 v=65
162300 On ch=1 n=a4 v=0
162300 On ch=1 n=e5 v=0
162300 On ch=1 n=e5 v=65
162300 On ch=1 n=a4 v=65
162360 On ch=1 n=e5 v=0
162360 On ch=1 n=a4 v=0
162360 On ch=1 n=c#4 v=65
162360 On ch=1 n=a4 v=65
162420 On ch=1 n=c#4 v=0
162420 On ch=1 n=a4 v=0
162420 On ch=1 n=e5 v=65
162420 On ch=1 n=a4 v=65
162480 On ch=1 n=e5 v=0
162480 On ch=1 n=a4 v=0
162480 On ch=1 n=d4 v=65
162480 On ch=1 n=a4 v=65
162540 On ch=1 n=d4 v=0
162540 On ch=1 n=a4 v=0
162540 On ch=1 n=d5 v=65
162540 On ch=1 n=a4 v=65
162600 On ch=1 n=d5 v=0
162600 On ch=1 n=a4 v=0
162600 On ch=1 n=c#4 v=65
162600 On ch=1 n=a4 v=65
162660 On ch=1 n=c#4 v=0
162660 On ch=1 n=a4 v=0
162660 On ch=1 n=e5 v=65
162660 On ch=1 n=a4 v=65
162720 On ch=1 n=e5 v=0
162720 On ch=1 n=a4 v=0
162720 On ch=1 n=d4 v=65
162720 On ch=1 n=f#4 v=65
162720 On ch=1 n=d5 v=65
162780 On ch=1 n=d4 v=0
162780 On ch=1 n=f#4 v=0
162780 On ch=1 n=d5 v=0
162780 On ch=1 n=f#4 v=65
162780 On ch=1 n=d5 v=65
162810 On ch=1 n=f#4 v=0
162810 On ch=1 n=d5 v=0
162810 On ch=1 n=f#4 v=65
162810 On ch=1 n=d5 v=65
162840 On ch=1 n=f#4 v=0
162840 On ch=1 n=d5 v=0
162840 On ch=1 n=f#4 v=70
162840 On ch=1 n=d5 v=70
162900 On ch=1 n=f#4 v=0
162900 On ch=1 n=d5 v=0
162900 On ch=1 n=e5 v=75
162900 On ch=1 n=a4 v=75
162960 On ch=1 n=e5 v=0
162960 On ch=1 n=a4 v=0
162960 On ch=1 n=f#5 v=80
162960 On ch=1 n=d5 v=80
163020 On ch=1 n=f#5 v=0
163020 On ch=1 n=d5 v=0
163020 On ch=1 n=a5 v=85
163020 On ch=1 n=f#5 v=85
163020 On ch=1 n=d5 v=85
163080 On ch=1 n=a5 v=0
163080 On ch=1 n=f#5 v=0
163080 On ch=1 n=d5 v=0
163080 On ch=1 n=d5 v=90
163080 On ch=1 n=g5 v=90
163080 On ch=1 n=b5 v=90
163140 On ch=1 n=g5 v=0
163140 On ch=1 n=b5 v=0
163140 On ch=1 n=f#5 v=90
163140 On ch=1 n=a5 v=90
163200 On ch=1 n=d5 v=0
163200 On ch=1 n=f#5 v=0
163200 On ch=1 n=a5 v=0
163200 On ch=1 n=a4 v=82
163200 On ch=1 n=e5 v=82
163290 On ch=1 n=a4 v=0
163290 On ch=1 n=e5 v=0
163290 On ch=1 n=d5 v=82
163290 On ch=1 n=f#5 v=82
163320 On ch=1 n=d5 v=0
163320 On ch=1 n=f#5 v=0
163320 On ch=1 n=a4 v=74
163320 On ch=1 n=e5 v=74
163440 On ch=1 n=a4 v=0
163440 On ch=1 n=e5 v=0
163440 On ch=1 n=c#4 v=65
163500 On ch=1 n=c#4 v=0
163500 On ch=1 n=e5 v=71
163500 On ch=1 n=a4 v=71
163620 On ch=1 n=e5 v=0
163620 On ch=1 n=a4 v=0
163620 On ch=1 n=a4 v=65
163620 On ch=1 n=e5 v=65
163650 On ch=1 n=a4 v=0
163650 On ch=1 n=e5 v=0
163650 On ch=1 n=a4 v=65
163650 On ch=1 n=e5 v=65
163680 On ch=1 n=a4 v=0
163680 On ch=1 n=e5 v=0
163680 On ch=1 n=a4 v=65
163680 On ch=1 n=e5 v=65
163740 On ch=1 n=a4 v=0
163740 On ch=1 n=e5 v=0
163740 On ch=1 n=e5 v=65
163740 On ch=1 n=a4 v=65
163800 On ch=1 n=e5 v=0
163800 On ch=1 n=a4 v=0
163800 On ch=1 n=c#4 v=65
163800 On ch=1 n=a4 v=65
163860 On ch=1 n=c#4 v=0
163860 On ch=1 n=a4 v=0
163860 On ch=1 n=e5 v=65
163860 On ch=1 n=a4 v=65
163920 On ch=1 n=e5 v=0
163920 On ch=1 n=a4 v=0
163920 On ch=1 n=d5 v=65
163920 On ch=1 n=d4 v=65
163920 On ch=1 n=a4 v=65
163980 On ch=1 n=d5 v=0
163980 On ch=1 n=d4 v=0
163980 On ch=1 n=a4 v=0
164040 On ch=1 n=d4 v=71
164040 On ch=1 n=b4 v=71
164100 On ch=1 n=d4 v=0
164100 On ch=1 n=b4 v=0
164100 On ch=1 n=c#4 v=65
164100 On ch=1 n=a4 v=65
164160 On ch=1 n=c#4 v=0
164160 On ch=1 n=a4 v=0
164160 On ch=1 n=c#4 v=65
164160 On ch=1 n=a4 v=65
164280 On ch=1 n=c#4 v=0
164280 On ch=1 n=a4 v=0
164280 On ch=1 n=d4 v=71
164280 On ch=1 n=b4 v=71
164340 On ch=1 n=d4 v=0
164340 On ch=1 n=b4 v=0
164340 On ch=1 n=c#4 v=65
164340 On ch=1 n=a4 v=65
164400 On ch=1 n=c#4 v=0
164400 On ch=1 n=a4 v=0
164400 On ch=1 n=c#4 v=65
164400 On ch=1 n=a4 v=65
164520 On ch=1 n=c#4 v=0
164520 On ch=1 n=a4 v=0
164520 On ch=1 n=c#4 v=102
164520 On ch=1 n=g#4 v=102
164580 On ch=1 n=c#4 v=0
164580 On ch=1 n=g#4 v=0
164580 On ch=1 n=c#5 v=102
164580 On ch=1 n=c#4 v=102
164640 On ch=1 n=c#5 v=0
164640 On ch=1 n=c#4 v=0
164640 On ch=1 n=c#5 v=102
164640 On ch=1 n=f#4 v=102
164700 On ch=1 n=c#5 v=0
164700 On ch=1 n=f#4 v=0
164700 On ch=1 n=c#4 v=102
164700 On ch=1 n=c#5 v=102
164730 On ch=1 n=c#4 v=0
164730 On ch=1 n=c#5 v=0
164760 On ch=1 n=f#3 v=90
164760 On ch=1 n=f#4 v=90
164790 On ch=1 n=f#3 v=0
164790 On ch=1 n=f#4 v=0
164820 On ch=1 n=c#4 v=78
164850 On ch=1 n=c#4 v=0
164880 On ch=1 n=f#3 v=65
164910 On ch=1 n=f#3 v=0
165000 On ch=1 n=g4 v=90
165000 On ch=1 n=c#5 v=90
165000 Par ch=1 c=64 v=127
165060 On ch=1 n=g4 v=0
165060 On ch=1 n=c#5 v=0
165060 On ch=1 n=a3 v=90
165180 On ch=1 n=a3 v=0
165180 On ch=1 n=a4 v=90
165180 On ch=1 n=e5 v=90
165180 Par ch=1 c=64 v=0
165240 On ch=1 n=a4 v=0
165240 On ch=1 n=e5 v=0
165240 On ch=1 n=a4 v=90
165240 On ch=1 n=e5 v=90
165300 On ch=1 n=a4 v=0
165300 On ch=1 n=e5 v=0
165300 On ch=1 n=a4 v=90
165300 On ch=1 n=e5 v=90
165360 On ch=1 n=a4 v=0
165360 On ch=1 n=e5 v=0
165360 On ch=1 n=g4 v=90
165360 On ch=1 n=c#5 v=90
165360 Par ch=1 c=64 v=127
165360 Par ch=1 c=64 v=127
165420 On ch=1 n=g4 v=0
165420 On ch=1 n=c#5 v=0
165420 On ch=1 n=a3 v=90
165540 On ch=1 n=a3 v=0
165540 On ch=1 n=a4 v=90
165540 On ch=1 n=e5 v=90
165540 Par ch=1 c=64 v=0
165540 Par ch=1 c=64 v=0
165600 On ch=1 n=a4 v=0
165600 On ch=1 n=e5 v=0
165600 On ch=1 n=a4 v=90
165600 On ch=1 n=e5 v=90
165660 On ch=1 n=a4 v=0
165660 On ch=1 n=e5 v=0
165660 On ch=1 n=a4 v=90
165660 On ch=1 n=e5 v=90
165720 On ch=1 n=a4 v=0
165720 On ch=1 n=e5 v=0
165720 On ch=1 n=a3 v=90
165780 On ch=1 n=a3 v=0
165780 On ch=1 n=d5 v=90
165780 On ch=1 n=b4 v=90
165840 On ch=1 n=d5 v=0
165840 On ch=1 n=b4 v=0
165840 On ch=1 n=d4 v=90
165900 On ch=1 n=d4 v=0
165900 On ch=1 n=d5 v=90
165900 On ch=1 n=b4 v=90
165960 On ch=1 n=d5 v=0
165960 On ch=1 n=b4 v=0
165960 On ch=1 n=f4 v=90
166020 On ch=1 n=f4 v=0
166020 On ch=1 n=d5 v=90
166020 On ch=1 n=b4 v=90
166080 On ch=1 n=d5 v=0
166080 On ch=1 n=b4 v=0
166080 On ch=1 n=a3 v=90
166140 On ch=1 n=a3 v=0
166140 On ch=1 n=c#5 v=90
166140 On ch=1 n=a4 v=90
166200 On ch=1 n=c#5 v=0
166200 On ch=1 n=a4 v=0
166320 On ch=1 n=d4 v=70
166380 On ch=1 n=d4 v=0
166380 On ch=1 n=d3 v=62
166440 On ch=1 n=d3 v=0
166440 On ch=1 n=g3 v=53
166500 On ch=1 n=g3 v=0
166500 On ch=1 n=g3 v=53
166530 On ch=1 n=g3 v=0
166530 On ch=1 n=g2 v=53
166560 On ch=1 n=g2 v=0
166560 On ch=1 n=g3 v=53
166590 On ch=1 n=g3 v=0
166590 On ch=1 n=a3 v=53
166620 On ch=1 n=a3 v=0
166620 On ch=1 n=a#3 v=53
166650 On ch=1 n=a#3 v=0
166650 On ch=1 n=c4 v=53
166680 On ch=1 n=c4 v=0
166680 On ch=1 n=d4 v=53
166740 On ch=1 n=d4 v=0
166740 On ch=1 n=d3 v=53
166800 On ch=1 n=d3 v=0
166800 On ch=1 n=g3 v=53
166860 On ch=1 n=g3 v=0
166860 On ch=1 n=g4 v=53
166890 On ch=1 n=g4 v=0
166890 On ch=1 n=g3 v=53
166920 On ch=1 n=g3 v=0
166920 On ch=1 n=g4 v=53
166950 On ch=1 n=g4 v=0
166950 On ch=1 n=a4 v=53
166980 On ch=1 n=a4 v=0
166980 On ch=1 n=a#4 v=53
167010 On ch=1 n=a#4 v=0
167010 On ch=1 n=c5 v=53
167040 On ch=1 n=c5 v=0
167040 On ch=1 n=d5 v=53
167100 On ch=1 n=d5 v=0
167100 On ch=1 n=d4 v=53
167160 On ch=1 n=d4 v=0
167160 On ch=1 n=g4 v=53
167220 On ch=1 n=g4 v=0
167220 On ch=1 n=a#4 v=53
167220 On ch=1 n=g5 v=53
167250 On ch=1 n=a#4 v=0
167250 On ch=1 n=g5 v=0
167250 On ch=1 n=a#4 v=53
167250 On ch=1 n=g5 v=53
167280 On ch=1 n=a#4 v=0
167280 On ch=1 n=g5 v=0
167280 On ch=1 n=a#4 v=58
167280 On ch=1 n=g5 v=58
167340 On ch=1 n=a#4 v=0
167340 On ch=1 n=g5 v=0
167340 On ch=1 n=d5 v=63
167340 On ch=1 n=a5 v=63
167400 On ch=1 n=d5 v=0
167400 On ch=1 n=a5 v=0
167400 On ch=1 n=g5 v=68
167400 On ch=1 n=a#5 v=68
167460 On ch=1 n=g5 v=0
167460 On ch=1 n=a#5 v=0
167460 On ch=1 n=d6 v=73
167460 On ch=1 n=a#5 v=73
167460 On ch=1 n=g5 v=73
167520 On ch=1 n=d6 v=0
167520 On ch=1 n=a#5 v=0
167520 On ch=1 n=g5 v=0
167520 On ch=1 n=g5 v=78
167520 On ch=1 n=c6 v=78
167520 On ch=1 n=d#6 v=78
167580 On ch=1 n=c6 v=0
167580 On ch=1 n=d#6 v=0
167580 On ch=1 n=a#5 v=73
167580 On ch=1 n=d6 v=73
167640 On ch=1 n=g5 v=0
167640 On ch=1 n=a#5 v=0
167640 On ch=1 n=d6 v=0
167640 On ch=1 n=d5 v=68
167640 On ch=1 n=a5 v=68
167730 On ch=1 n=d5 v=0
167730 On ch=1 n=a5 v=0
167730 On ch=1 n=g5 v=63
167730 On ch=1 n=a#5 v=63
167760 On ch=1 n=g5 v=0
167760 On ch=1 n=a#5 v=0
167760 On ch=1 n=d5 v=58
167760 On ch=1 n=a5 v=58
167880 On ch=1 n=d5 v=0
167880 On ch=1 n=a5 v=0
167880 On ch=1 n=a#3 v=102
167880 On ch=1 n=a#4 v=102
167940 On ch=1 n=a#3 v=0
167940 On ch=1 n=a#4 v=0
167940 On ch=1 n=d5 v=102
167940 On ch=1 n=a#4 v=102
167940 On ch=1 n=f4 v=102
168000 On ch=1 n=d5 v=0
168000 On ch=1 n=a#4 v=0
168000 On ch=1 n=f4 v=0
168000 On ch=1 n=f4 v=108
168000 On ch=1 n=a#4 v=108
168000 On ch=1 n=d5 v=108
168120 On ch=1 n=f4 v=0
168120 On ch=1 n=a#4 v=0
168120 On ch=1 n=d5 v=0
168120 On ch=1 n=f3 v=102
168120 On ch=1 n=f4 v=102
168180 On ch=1 n=f3 v=0
168180 On ch=1 n=f4 v=0
168180 On ch=1 n=c5 v=102
168180 On ch=1 n=a4 v=102
168180 On ch=1 n=f4 v=102
168240 On ch=1 n=c5 v=0
168240 On ch=1 n=a4 v=0
168240 On ch=1 n=f4 v=0
168240 On ch=1 n=a#3 v=102
168240 On ch=1 n=a#4 v=102
168300 On ch=1 n=a#3 v=0
168300 On ch=1 n=a#4 v=0
168300 On ch=1 n=d5 v=102
168300 On ch=1 n=a#4 v=102
168300 On ch=1 n=f4 v=102
168360 On ch=1 n=d5 v=0
168360 On ch=1 n=a#4 v=0
168360 On ch=1 n=f4 v=0
168360 On ch=1 n=f4 v=108
168360 On ch=1 n=a#4 v=108
168360 On ch=1 n=d5 v=108
168480 On ch=1 n=f4 v=0
168480 On ch=1 n=a#4 v=0
168480 On ch=1 n=d5 v=0
168480 On ch=1 n=f4 v=102
168480 On ch=1 n=f5 v=102
168540 On ch=1 n=f4 v=0
168540 On ch=1 n=f5 v=0
168540 On ch=1 n=c6 v=102
168540 On ch=1 n=a5 v=102
168540 On ch=1 n=f5 v=102
168600 On ch=1 n=c6 v=0
168600 On ch=1 n=a5 v=0
168600 On ch=1 n=f5 v=0
168600 On ch=1 n=f4 v=114
168660 On ch=1 n=f4 v=0
168660 On ch=1 n=a5 v=114
168660 On ch=1 n=f5 v=114
168720 On ch=1 n=a5 v=0
168720 On ch=1 n=f5 v=0
168720 On ch=1 n=a4 v=114
168780 On ch=1 n=a4 v=0
168780 On ch=1 n=a5 v=114
168780 On ch=1 n=f5 v=114
168840 On ch=1 n=a5 v=0
168840 On ch=1 n=f5 v=0
168840 On ch=1 n=c5 v=114
168900 On ch=1 n=c5 v=0
168900 On ch=1 n=a5 v=114
168900 On ch=1 n=f5 v=114
168960 On ch=1 n=a5 v=0
168960 On ch=1 n=f5 v=0
168960 On ch=1 n=e4 v=114
169020 On ch=1 n=e4 v=0
169020 On ch=1 n=a5 v=114
169020 On ch=1 n=c#5 v=114
169080 On ch=1 n=a5 v=0
169080 On ch=1 n=c#5 v=0
169080 On ch=1 n=e4 v=114
169140 On ch=1 n=e4 v=0
169140 On ch=1 n=b5 v=114
169140 On ch=1 n=e5 v=114
169200 On ch=1 n=b5 v=0
169200 On ch=1 n=e5 v=0
169200 On ch=1 n=a5 v=114
169260 On ch=1 n=a5 v=0
169320 On ch=1 n=c#4 v=90
169380 On ch=1 n=c#4 v=0
169380 On ch=1 n=e5 v=98
169380 On ch=1 n=a4 v=98
169500 On ch=1 n=e5 v=0
169500 On ch=1 n=a4 v=0
169500 On ch=1 n=a4 v=90
169500 On ch=1 n=e5 v=90
169530 On ch=1 n=a4 v=0
169530 On ch=1 n=e5 v=0
169530 On ch=1 n=a4 v=90
169530 On ch=1 n=e5 v=90
169560 On ch=1 n=a4 v=0
169560 On ch=1 n=e5 v=0
169560 On ch=1 n=a4 v=90
169560 On ch=1 n=e5 v=90
169620 On ch=1 n=a4 v=0
169620 On ch=1 n=e5 v=0
169620 On ch=1 n=e5 v=90
169620 On ch=1 n=a4 v=90
169680 On ch=1 n=e5 v=0
169680 On ch=1 n=a4 v=0
169680 On ch=1 n=c#4 v=90
169680 On ch=1 n=a4 v=90
169740 On ch=1 n=c#4 v=0
169740 On ch=1 n=a4 v=0
169740 On ch=1 n=e5 v=90
169740 On ch=1 n=a4 v=90
169800 On ch=1 n=e5 v=0
169800 On ch=1 n=a4 v=0
169800 On ch=1 n=d4 v=90
169800 On ch=1 n=a4 v=90
169860 On ch=1 n=d4 v=0
169860 On ch=1 n=a4 v=0
169860 On ch=1 n=d5 v=90
169860 On ch=1 n=a4 v=90
169920 On ch=1 n=d5 v=0
169920 On ch=1 n=a4 v=0
169920 On ch=1 n=c#4 v=90
169920 On ch=1 n=a4 v=90
169980 On ch=1 n=c#4 v=0
169980 On ch=1 n=a4 v=0
169980 On ch=1 n=e5 v=90
169980 On ch=1 n=a4 v=90
170040 On ch=1 n=e5 v=0
170040 On ch=1 n=a4 v=0
170040 On ch=1 n=d4 v=90
170040 On ch=1 n=f#4 v=90
170040 On ch=1 n=d5 v=90
170100 On ch=1 n=d4 v=0
170100 On ch=1 n=f#4 v=0
170100 On ch=1 n=d5 v=0
170100 On ch=1 n=f#4 v=90
170100 On ch=1 n=d5 v=90
170130 On ch=1 n=f#4 v=0
170130 On ch=1 n=d5 v=0
170130 On ch=1 n=f#4 v=90
170130 On ch=1 n=d5 v=90
170160 On ch=1 n=f#4 v=0
170160 On ch=1 n=d5 v=0
170160 On ch=1 n=f#4 v=97
170160 On ch=1 n=d5 v=97
170220 On ch=1 n=f#4 v=0
170220 On ch=1 n=d5 v=0
170220 On ch=1 n=e5 v=103
170220 On ch=1 n=a4 v=103
170280 On ch=1 n=e5 v=0
170280 On ch=1 n=a4 v=0
170280 On ch=1 n=f#5 v=110
170280 On ch=1 n=d5 v=110
170340 On ch=1 n=f#5 v=0
170340 On ch=1 n=d5 v=0
170340 On ch=1 n=a5 v=117
170340 On ch=1 n=f#5 v=117
170340 On ch=1 n=d5 v=117
170400 On ch=1 n=a5 v=0
170400 On ch=1 n=f#5 v=0
170400 On ch=1 n=d5 v=0
170400 On ch=1 n=d5 v=124
170400 On ch=1 n=g5 v=124
170400 On ch=1 n=b5 v=124
170460 On ch=1 n=g5 v=0
170460 On ch=1 n=b5 v=0
170460 On ch=1 n=f#5 v=124
170460 On ch=1 n=a5 v=124
170520 On ch=1 n=d5 v=0
170520 On ch=1 n=f#5 v=0
170520 On ch=1 n=a5 v=0
170520 On ch=1 n=a4 v=113
170520 On ch=1 n=e5 v=113
170610 On ch=1 n=a4 v=0
170610 On ch=1 n=e5 v=0
170610 On ch=1 n=d5 v=113
170610 On ch=1 n=f#5 v=113
170640 On ch=1 n=d5 v=0
170640 On ch=1 n=f#5 v=0
170640 On ch=1 n=a4 v=102
170640 On ch=1 n=e5 v=102
170760 On ch=1 n=a4 v=0
170760 On ch=1 n=e5 v=0
170760 On ch=1 n=c#4 v=90
170820 On ch=1 n=c#4 v=0
170820 On ch=1 n=e5 v=98
170820 On ch=1 n=a4 v=98
170940 On ch=1 n=e5 v=0
170940 On ch=1 n=a4 v=0
170940 On ch=1 n=a4 v=90
170940 On ch=1 n=e5 v=90
170970 On ch=1 n=a4 v=0
170970 On ch=1 n=e5 v=0
170970 On ch=1 n=a4 v=90
170970 On ch=1 n=e5 v=90
171000 On ch=1 n=a4 v=0
171000 On ch=1 n=e5 v=0
171000 On ch=1 n=a4 v=90
171000 On ch=1 n=e5 v=90
171060 On ch=1 n=a4 v=0
171060 On ch=1 n=e5 v=0
171060 On ch=1 n=e5 v=90
171060 On ch=1 n=a4 v=90
171120 On ch=1 n=e5 v=0
171120 On ch=1 n=a4 v=0
171120 On ch=1 n=c#4 v=90
171120 On ch=1 n=a4 v=90
171180 On ch=1 n=c#4 v=0
171180 On ch=1 n=a4 v=0
171180 On ch=1 n=e5 v=90
171180 On ch=1 n=a4 v=90
171240 On ch=1 n=e5 v=0
171240 On ch=1 n=a4 v=0
171240 On ch=1 n=d5 v=90
171240 On ch=1 n=d4 v=90
171240 On ch=1 n=a4 v=90
171300 On ch=1 n=d5 v=0
171300 On ch=1 n=d4 v=0
171300 On ch=1 n=a4 v=0
171360 On ch=1 n=f#4 v=53
171360 On ch=1 n=d5 v=53
171390 On ch=1 n=f#4 v=0
171390 On ch=1 n=d5 v=0
171420 On ch=1 n=d5 v=53
171420 On ch=1 n=a5 v=53
171450 On ch=1 n=d5 v=0
171450 On ch=1 n=a5 v=0
171480 On ch=1 n=g4 v=53
171480 On ch=1 n=d5 v=53
171510 On ch=1 n=g4 v=0
171510 On ch=1 n=d5 v=0
171540 On ch=1 n=g5 v=56
171540 On ch=1 n=d5 v=56
171570 On ch=1 n=g5 v=0
171570 On ch=1 n=d5 v=0
171600 On ch=1 n=a4 v=59
171600 On ch=1 n=d#5 v=59
171630 On ch=1 n=a4 v=0
171630 On ch=1 n=d#5 v=0
171660 On ch=1 n=f#5 v=62
171660 On ch=1 n=d#5 v=62
171690 On ch=1 n=f#5 v=0
171690 On ch=1 n=d#5 v=0
171720 On ch=1 n=g4 v=63
171720 On ch=1 n=e5 v=63
171750 On ch=1 n=g4 v=0
171750 On ch=1 n=e5 v=0
171780 On ch=1 n=g5 v=65
171780 On ch=1 n=e5 v=65
171810 On ch=1 n=g5 v=0
171810 On ch=1 n=e5 v=0
171960 On ch=1 n=e5 v=59
171960 On ch=1 n=a4 v=59
172080 On ch=1 n=e5 v=0
172080 On ch=1 n=a4 v=0
172080 On ch=1 n=d5 v=53
172080 On ch=1 n=d4 v=53
172140 On ch=1 n=d5 v=0
172140 On ch=1 n=d4 v=0
172200 On ch=1 n=g4 v=90
172200 On ch=1 n=c#5 v=90
172200 Par ch=1 c=64 v=127
172260 On ch=1 n=g4 v=0
172260 On ch=1 n=c#5 v=0
172260 On ch=1 n=a3 v=90
172380 On ch=1 n=a3 v=0
172380 On ch=1 n=a4 v=90
172380 On ch=1 n=e5 v=90
172380 Par ch=1 c=64 v=0
172440 On ch=1 n=a4 v=0
172440 On ch=1 n=e5 v=0
172440 On ch=1 n=a4 v=90
172440 On ch=1 n=e5 v=90
172500 On ch=1 n=a4 v=0
172500 On ch=1 n=e5 v=0
172500 On ch=1 n=a4 v=90
172500 On ch=1 n=e5 v=90
172560 On ch=1 n=a4 v=0
172560 On ch=1 n=e5 v=0
172560 On ch=1 n=g4 v=90
172560 On ch=1 n=c#5 v=90
172560 Par ch=1 c=64 v=127
172560 Par ch=1 c=64 v=127
172620 On ch=1 n=g4 v=0
172620 On ch=1 n=c#5 v=0
172620 On ch=1 n=a3 v=90
172740 On ch=1 n=a3 v=0
172740 On ch=1 n=a4 v=90
172740 On ch=1 n=e5 v=90
172740 Par ch=1 c=64 v=0
172740 Par ch=1 c=64 v=0
172800 On ch=1 n=a4 v=0
172800 On ch=1 n=e5 v=0
172800 On ch=1 n=a4 v=90
172800 On ch=1 n=e5 v=90
172860 On ch=1 n=a4 v=0
172860 On ch=1 n=e5 v=0
172860 On ch=1 n=a4 v=90
172860 On ch=1 n=e5 v=90
172920 On ch=1 n=a4 v=0
172920 On ch=1 n=e5 v=0
172920 On ch=1 n=a3 v=90
172980 On ch=1 n=a3 v=0
172980 On ch=1 n=d5 v=90
172980 On ch=1 n=b4 v=90
173040 On ch=1 n=d5 v=0
173040 On ch=1 n=b4 v=0
173040 On ch=1 n=d4 v=90
173100 On ch=1 n=d4 v=0
173100 On ch=1 n=d5 v=90
173100 On ch=1 n=b4 v=90
173160 On ch=1 n=d5 v=0
173160 On ch=1 n=b4 v=0
173160 On ch=1 n=f4 v=90
173220 On ch=1 n=f4 v=0
173220 On ch=1 n=d5 v=90
173220 On ch=1 n=b4 v=90
173280 On ch=1 n=d5 v=0
173280 On ch=1 n=b4 v=0
173280 On ch=1 n=a3 v=90
173340 On ch=1 n=a3 v=0
173340 On ch=1 n=c#5 v=90
173340 On ch=1 n=a4 v=90
173400 On ch=1 n=c#5 v=0
173400 On ch=1 n=a4 v=0
173520 On ch=1 n=d4 v=70
173580 On ch=1 n=d4 v=0
173580 On ch=1 n=d3 v=62
173640 On ch=1 n=d3 v=0
173640 On ch=1 n=g3 v=53
173700 On ch=1 n=g3 v=0
173700 On ch=1 n=g3 v=53
173730 On ch=1 n=g3 v=0
173730 On ch=1 n=g2 v=53
173760 On ch=1 n=g2 v=0
173760 On ch=1 n=g3 v=53
173790 On ch=1 n=g3 v=0
173790 On ch=1 n=a3 v=53
173820 On ch=1 n=a3 v=0
173820 On ch=1 n=a#3 v=53
173850 On ch=1 n=a#3 v=0
173850 On ch=1 n=c4 v=53
173880 On ch=1 n=c4 v=0
173880 On ch=1 n=d4 v=53
173940 On ch=1 n=d4 v=0
173940 On ch=1 n=d3 v=53
174000 On ch=1 n=d3 v=0
174000 On ch=1 n=g3 v=53
174060 On ch=1 n=g3 v=0
174060 On ch=1 n=g4 v=53
174090 On ch=1 n=g4 v=0
174090 On ch=1 n=g3 v=53
174120 On ch=1 n=g3 v=0
174120 On ch=1 n=g4 v=53
174150 On ch=1 n=g4 v=0
174150 On ch=1 n=a4 v=53
174180 On ch=1 n=a4 v=0
174180 On ch=1 n=a#4 v=53
174210 On ch=1 n=a#4 v=0
174210 On ch=1 n=c5 v=53
174240 On ch=1 n=c5 v=0
174240 On ch=1 n=d5 v=53
174300 On ch=1 n=d5 v=0
174300 On ch=1 n=d4 v=53
174360 On ch=1 n=d4 v=0
174360 On ch=1 n=g4 v=53
174420 On ch=1 n=g4 v=0
174420 On ch=1 n=a#4 v=53
174420 On ch=1 n=g5 v=53
174450 On ch=1 n=a#4 v=0
174450 On ch=1 n=g5 v=0
174450 On ch=1 n=a#4 v=53
174450 On ch=1 n=g5 v=53
174480 On ch=1 n=a#4 v=0
174480 On ch=1 n=g5 v=0
174480 On ch=1 n=a#4 v=58
174480 On ch=1 n=g5 v=58
174540 On ch=1 n=a#4 v=0
174540 On ch=1 n=g5 v=0
174540 On ch=1 n=d5 v=63
174540 On ch=1 n=a5 v=63
174600 On ch=1 n=d5 v=0
174600 On ch=1 n=a5 v=0
174600 On ch=1 n=g5 v=68
174600 On ch=1 n=a#5 v=68
174660 On ch=1 n=g5 v=0
174660 On ch=1 n=a#5 v=0
174660 On ch=1 n=d6 v=73
174660 On ch=1 n=a#5 v=73
174660 On ch=1 n=g5 v=73
174720 On ch=1 n=d6 v=0
174720 On ch=1 n=a#5 v=0
174720 On ch=1 n=g5 v=0
174720 On ch=1 n=g5 v=78
174720 On ch=1 n=c6 v=78
174720 On ch=1 n=d#6 v=78
174780 On ch=1 n=c6 v=0
174780 On ch=1 n=d#6 v=0
174780 On ch=1 n=a#5 v=73
174780 On ch=1 n=d6 v=73
174840 On ch=1 n=g5 v=0
174840 On ch=1 n=a#5 v=0
174840 On ch=1 n=d6 v=0
174840 On ch=1 n=d5 v=68
174840 On ch=1 n=a5 v=68
174930 On ch=1 n=d5 v=0
174930 On ch=1 n=a5 v=0
174930 On ch=1 n=g5 v=63
174930 On ch=1 n=a#5 v=63
174960 On ch=1 n=g5 v=0
174960 On ch=1 n=a#5 v=0
174960 On ch=1 n=d5 v=58
174960 On ch=1 n=a5 v=58
175080 On ch=1 n=d5 v=0
175080 On ch=1 n=a5 v=0
175080 On ch=1 n=a#3 v=102
175080 On ch=1 n=a#4 v=102
175140 On ch=1 n=a#3 v=0
175140 On ch=1 n=a#4 v=0
175140 On ch=1 n=d5 v=102
175140 On ch=1 n=a#4 v=102
175140 On ch=1 n=f4 v=102
175200 On ch=1 n=d5 v=0
175200 On ch=1 n=a#4 v=0
175200 On ch=1 n=f4 v=0
175200 On ch=1 n=f4 v=108
175200 On ch=1 n=a#4 v=108
175200 On ch=1 n=d5 v=108
175320 On ch=1 n=f4 v=0
175320 On ch=1 n=a#4 v=0
175320 On ch=1 n=d5 v=0
175320 On ch=1 n=f3 v=102
175320 On ch=1 n=f4 v=102
175380 On ch=1 n=f3 v=0
175380 On ch=1 n=f4 v=0
175380 On ch=1 n=c5 v=102
175380 On ch=1 n=a4 v=102
175380 On ch=1 n=f4 v=102
175440 On ch=1 n=c5 v=0
175440 On ch=1 n=a4 v=0
175440 On ch=1 n=f4 v=0
175440 On ch=1 n=a#3 v=102
175440 On ch=1 n=a#4 v=102
175500 On ch=1 n=a#3 v=0
175500 On ch=1 n=a#4 v=0
175500 On ch=1 n=d5 v=102
175500 On ch=1 n=a#4 v=102
175500 On ch=1 n=f4 v=102
175560 On ch=1 n=d5 v=0
175560 On ch=1 n=a#4 v=0
175560 On ch=1 n=f4 v=0
175560 On ch=1 n=f4 v=108
175560 On ch=1 n=a#4 v=108
175560 On ch=1 n=d5 v=108
175680 On ch=1 n=f4 v=0
175680 On ch=1 n=a#4 v=0
175680 On ch=1 n=d5 v=0
175680 On ch=1 n=f4 v=102
175680 On ch=1 n=f5 v=102
175740 On ch=1 n=f4 v=0
175740 On ch=1 n=f5 v=0
175740 On ch=1 n=c6 v=102
175740 On ch=1 n=a5 v=102
175740 On ch=1 n=f5 v=102
175800 On ch=1 n=c6 v=0
175800 On ch=1 n=a5 v=0
175800 On ch=1 n=f5 v=0
175800 On ch=1 n=f4 v=114
175860 On ch=1 n=f4 v=0
175860 On ch=1 n=a5 v=114
175860 On ch=1 n=f5 v=114
175920 On ch=1 n=a5 v=0
175920 On ch=1 n=f5 v=0
175920 On ch=1 n=a4 v=114
175980 On ch=1 n=a4 v=0
175980 On ch=1 n=a5 v=114
175980 On ch=1 n=f5 v=114
176040 On ch=1 n=a5 v=0
176040 On ch=1 n=f5 v=0
176040 On ch=1 n=c5 v=114
176100 On ch=1 n=c5 v=0
176100 On ch=1 n=a5 v=114
176100 On ch=1 n=f5 v=114
176160 On ch=1 n=a5 v=0
176160 On ch=1 n=f5 v=0
176160 On ch=1 n=e4 v=114
176220 On ch=1 n=e4 v=0
176220 On ch=1 n=a5 v=114
176220 On ch=1 n=c#5 v=114
176280 On ch=1 n=a5 v=0
176280 On ch=1 n=c#5 v=0
176280 On ch=1 n=e4 v=114
176340 On ch=1 n=e4 v=0
176340 On ch=1 n=b5 v=114
176340 On ch=1 n=e5 v=114
176400 On ch=1 n=b5 v=0
176400 On ch=1 n=e5 v=0
176400 On ch=1 n=a5 v=114
176460 On ch=1 n=a5 v=0
176520 On ch=1 n=c#4 v=90
176580 On ch=1 n=c#4 v=0
176580 On ch=1 n=e5 v=98
176580 On ch=1 n=a4 v=98
176700 On ch=1 n=e5 v=0
176700 On ch=1 n=a4 v=0
176700 On ch=1 n=a4 v=90
176700 On ch=1 n=e5 v=90
176730 On ch=1 n=a4 v=0
176730 On ch=1 n=e5 v=0
176730 On ch=1 n=a4 v=90
176730 On ch=1 n=e5 v=90
176760 On ch=1 n=a4 v=0
176760 On ch=1 n=e5 v=0
176760 On ch=1 n=a4 v=90
176760 On ch=1 n=e5 v=90
176820 On ch=1 n=a4 v=0
176820 On ch=1 n=e5 v=0
176820 On ch=1 n=e5 v=90
176820 On ch=1 n=a4 v=90
176880 On ch=1 n=e5 v=0
176880 On ch=1 n=a4 v=0
176880 On ch=1 n=c#4 v=90
176880 On ch=1 n=a4 v=90
176940 On ch=1 n=c#4 v=0
176940 On ch=1 n=a4 v=0
176940 On ch=1 n=e5 v=90
176940 On ch=1 n=a4 v=90
177000 On ch=1 n=e5 v=0
177000 On ch=1 n=a4 v=0
177000 On ch=1 n=d4 v=90
177000 On ch=1 n=a4 v=90
177060 On ch=1 n=d4 v=0
177060 On ch=1 n=a4 v=0
177060 On ch=1 n=d5 v=90
177060 On ch=1 n=a4 v=90
177120 On ch=1 n=d5 v=0
177120 On ch=1 n=a4 v=0
177120 On ch=1 n=c#4 v=90
177120 On ch=1 n=a4 v=90
177180 On ch=1 n=c#4 v=0
177180 On ch=1 n=a4 v=0
177180 On ch=1 n=e5 v=90
177180 On ch=1 n=a4 v=90
177240 On ch=1 n=e5 v=0
177240 On ch=1 n=a4 v=0
177240 On ch=1 n=d4 v=90
177240 On ch=1 n=f#4 v=90
177240 On ch=1 n=d5 v=90
177300 On ch=1 n=d4 v=0
177300 On ch=1 n=f#4 v=0
177300 On ch=1 n=d5 v=0
177300 On ch=1 n=f#4 v=90
177300 On ch=1 n=d5 v=90
177330 On ch=1 n=f#4 v=0
177330 On ch=1 n=d5 v=0
177330 On ch=1 n=f#4 v=90
177330 On ch=1 n=d5 v=90
177360 On ch=1 n=f#4 v=0
177360 On ch=1 n=d5 v=0
177360 On ch=1 n=f#4 v=97
177360 On ch=1 n=d5 v=97
177420 On ch=1 n=f#4 v=0
177420 On ch=1 n=d5 v=0
177420 On ch=1 n=e5 v=103
177420 On ch=1 n=a4 v=103
177480 On ch=1 n=e5 v=0
177480 On ch=1 n=a4 v=0
177480 On ch=1 n=f#5 v=110
177480 On ch=1 n=d5 v=110
177540 On ch=1 n=f#5 v=0
177540 On ch=1 n=d5 v=0
177540 On ch=1 n=a5 v=117
177540 On ch=1 n=f#5 v=117
177540 On ch=1 n=d5 v=117
177600 On ch=1 n=a5 v=0
177600 On ch=1 n=f#5 v=0
177600 On ch=1 n=d5 v=0
177600 On ch=1 n=d5 v=124
177600 On ch=1 n=g5 v=124
177600 On ch=1 n=b5 v=124
177660 On ch=1 n=g5 v=0
177660 On ch=1 n=b5 v=0
177660 On ch=1 n=f#5 v=124
177660 On ch=1 n=a5 v=124
177720 On ch=1 n=d5 v=0
177720 On ch=1 n=f#5 v=0
177720 On ch=1 n=a5 v=0
177720 On ch=1 n=a4 v=113
177720 On ch=1 n=e5 v=113
177810 On ch=1 n=a4 v=0
177810 On ch=1 n=e5 v=0
177810 On ch=1 n=d5 v=113
177810 On ch=1 n=f#5 v=113
177840 On ch=1 n=d5 v=0
177840 On ch=1 n=f#5 v=0
177840 On ch=1 n=a4 v=102
177840 On ch=1 n=e5 v=102
177960 On ch=1 n=a4 v=0
177960 On ch=1 n=e5 v=0
177960 On ch=1 n=c#4 v=90
178020 On ch=1 n=c#4 v=0
178020 On ch=1 n=e5 v=98
178020 On ch=1 n=a4 v=98
178140 On ch=1 n=e5 v=0
178140 On ch=1 n=a4 v=0
178140 On ch=1 n=a4 v=90
178140 On ch=1 n=e5 v=90
178170 On ch=1 n=a4 v=0
178170 On ch=1 n=e5 v=0
178170 On ch=1 n=a4 v=90
178170 On ch=1 n=e5 v=90
178200 On ch=1 n=a4 v=0
178200 On ch=1 n=e5 v=0
178200 On ch=1 n=a4 v=90
178200 On ch=1 n=e5 v=90
178260 On ch=1 n=a4 v=0
178260 On ch=1 n=e5 v=0
178260 On ch=1 n=e5 v=90
178260 On ch=1 n=a4 v=90
178320 On ch=1 n=e5 v=0
178320 On ch=1 n=a4 v=0
178320 On ch=1 n=c#4 v=90
178320 On ch=1 n=a4 v=90
178380 On ch=1 n=c#4 v=0
178380 On ch=1 n=a4 v=0
178380 On ch=1 n=e5 v=90
178380 On ch=1 n=a4 v=90
178440 On ch=1 n=e5 v=0
178440 On ch=1 n=a4 v=0
178440 On ch=1 n=d5 v=90
178440 On ch=1 n=d4 v=90
178440 On ch=1 n=a4 v=90
178500 On ch=1 n=d5 v=0
178500 On ch=1 n=d4 v=0
178500 On ch=1 n=a4 v=0
178560 On ch=1 n=f#4 v=53
178560 On ch=1 n=d5 v=53
178590 On ch=1 n=f#4 v=0
178590 On ch=1 n=d5 v=0
178620 On ch=1 n=d5 v=53
178620 On ch=1 n=a5 v=53
178650 On ch=1 n=d5 v=0
178650 On ch=1 n=a5 v=0
178680 On ch=1 n=g4 v=53
178680 On ch=1 n=d5 v=53
178710 On ch=1 n=g4 v=0
178710 On ch=1 n=d5 v=0
178740 On ch=1 n=g5 v=56
178740 On ch=1 n=d5 v=56
178770 On ch=1 n=g5 v=0
178770 On ch=1 n=d5 v=0
178800 On ch=1 n=a4 v=59
178800 On ch=1 n=d#5 v=59
178830 On ch=1 n=a4 v=0
178830 On ch=1 n=d#5 v=0
178860 On ch=1 n=f#5 v=62
178860 On ch=1 n=d#5 v=62
178890 On ch=1 n=f#5 v=0
178890 On ch=1 n=d#5 v=0
178920 On ch=1 n=g4 v=63
178920 On ch=1 n=e5 v=63
178950 On ch=1 n=g4 v=0
178950 On ch=1 n=e5 v=0
178980 On ch=1 n=g5 v=65
178980 On ch=1 n=e5 v=65
179010 On ch=1 n=g5 v=0
179010 On ch=1 n=e5 v=0
179160 On ch=1 n=e5 v=59
179160 On ch=1 n=a4 v=59
179280 On ch=1 n=e5 v=0
179280 On ch=1 n=a4 v=0
179280 On ch=1 n=d5 v=53
179280 On ch=1 n=d4 v=53
179340 On ch=1 n=d5 v=0
179340 On ch=1 n=d4 v=0
179400 Par ch=1 c=64 v=127
179400 On ch=1 n=g4 v=65
179430 On ch=1 n=g4 v=0
179430 On ch=1 n=b5 v=65
179490 On ch=1 n=b5 v=0
179490 On ch=1 n=d5 v=65
179520 On ch=1 n=d5 v=0
179520 On ch=1 n=g4 v=65
179550 On ch=1 n=g4 v=0
179550 On ch=1 n=a#5 v=65
179610 On ch=1 n=a#5 v=0
179610 On ch=1 n=c#5 v=65
179640 On ch=1 n=c#5 v=0
179640 On ch=1 n=g4 v=65
179670 On ch=1 n=g4 v=0
179670 On ch=1 n=a5 v=65
179730 On ch=1 n=a5 v=0
179730 On ch=1 n=c5 v=65
179760 On ch=1 n=c5 v=0
179760 On ch=1 n=f#4 v=65
179790 On ch=1 n=f#4 v=0
179790 On ch=1 n=a5 v=65
179850 On ch=1 n=a5 v=0
179850 On ch=1 n=d5 v=65
179880 On ch=1 n=d5 v=0
179880 On ch=1 n=f#4 v=65
179910 On ch=1 n=f#4 v=0
179910 On ch=1 n=a5 v=65
179970 On ch=1 n=a5 v=0
179970 On ch=1 n=d#5 v=65
180000 On ch=1 n=d#5 v=0
180000 On ch=1 n=b3 v=65
180030 On ch=1 n=b3 v=0
180030 On ch=1 n=d#5 v=65
180090 On ch=1 n=d#5 v=0
180090 On ch=1 n=a4 v=65
180120 On ch=1 n=a4 v=0
180120 On ch=1 n=c4 v=65
180150 On ch=1 n=c4 v=0
180150 On ch=1 n=e5 v=65
180210 On ch=1 n=e5 v=0
180210 On ch=1 n=g#4 v=65
180240 On ch=1 n=g#4 v=0
180240 On ch=1 n=c4 v=65
180270 On ch=1 n=c4 v=0
180270 On ch=1 n=e5 v=65
180330 On ch=1 n=e5 v=0
180330 On ch=1 n=a4 v=65
180360 On ch=1 n=a4 v=0
180360 On ch=1 n=c4 v=65
180390 On ch=1 n=c4 v=0
180390 On ch=1 n=d5 v=65
180450 On ch=1 n=d5 v=0
180450 On ch=1 n=f#4 v=65
180480 On ch=1 n=f#4 v=0
180480 On ch=1 n=b3 v=65
180510 On ch=1 n=b3 v=0
180510 On ch=1 n=d5 v=65
180570 On ch=1 n=d5 v=0
180570 On ch=1 n=g4 v=65
180600 On ch=1 n=g4 v=0
180600 On ch=1 n=g3 v=65
180630 On ch=1 n=g3 v=0
180630 On ch=1 n=b4 v=65
180690 On ch=1 n=b4 v=0
180690 On ch=1 n=g4 v=65
180720 On ch=1 n=g4 v=0
180720 On ch=1 n=d4 v=65
180750 On ch=1 n=d4 v=0
180750 On ch=1 n=d5 v=65
180810 On ch=1 n=d5 v=0
180810 On ch=1 n=f#4 v=65
180825 Par ch=1 c=64 v=0
180840 On ch=1 n=f#4 v=0
180840 Par ch=1 c=64 v=127
180840 On ch=1 n=g4 v=65
180870 On ch=1 n=g4 v=0
180870 On ch=1 n=b5 v=65
180930 On ch=1 n=b5 v=0
180930 On ch=1 n=d5 v=65
180960 On ch=1 n=d5 v=0
180960 On ch=1 n=g4 v=65
180990 On ch=1 n=g4 v=0
180990 On ch=1 n=a#5 v=65
181050 On ch=1 n=a#5 v=0
181050 On ch=1 n=c#5 v=65
181080 On ch=1 n=c#5 v=0
181080 On ch=1 n=g4 v=65
181110 On ch=1 n=g4 v=0
181110 On ch=1 n=a5 v=65
181170 On ch=1 n=a5 v=0
181170 On ch=1 n=c5 v=65
181200 On ch=1 n=c5 v=0
181200 On ch=1 n=f#4 v=65
181230 On ch=1 n=f#4 v=0
181230 On ch=1 n=a5 v=65
181290 On ch=1 n=a5 v=0
181290 On ch=1 n=d5 v=65
181320 On ch=1 n=d5 v=0
181320 On ch=1 n=f#4 v=65
181350 On ch=1 n=f#4 v=0
181350 On ch=1 n=a5 v=65
181410 On ch=1 n=a5 v=0
181410 On ch=1 n=d#5 v=65
181440 On ch=1 n=d#5 v=0
181440 On ch=1 n=b3 v=65
181470 On ch=1 n=b3 v=0
181470 On ch=1 n=d#5 v=65
181530 On ch=1 n=d#5 v=0
181530 On ch=1 n=a4 v=65
181560 On ch=1 n=a4 v=0
181560 On ch=1 n=c4 v=65
181590 On ch=1 n=c4 v=0
181590 On ch=1 n=e5 v=65
181650 On ch=1 n=e5 v=0
181650 On ch=1 n=a4 v=65
181680 On ch=1 n=a4 v=0
181680 On ch=1 n=a3 v=65
181710 On ch=1 n=a3 v=0
181710 On ch=1 n=c5 v=65
181770 On ch=1 n=c5 v=0
181770 On ch=1 n=g4 v=65
181800 On ch=1 n=g4 v=0
181800 On ch=1 n=d4 v=65
181830 On ch=1 n=d4 v=0
181830 On ch=1 n=c5 v=65
181890 On ch=1 n=c5 v=0
181890 On ch=1 n=a4 v=65
181920 On ch=1 n=a4 v=0
181920 On ch=1 n=g4 v=65
181950 On ch=1 n=g4 v=0
181950 On ch=1 n=d#5 v=71
182010 On ch=1 n=d#5 v=0
182010 On ch=1 n=c5 v=65
182040 On ch=1 n=c5 v=0
182040 On ch=1 n=g4 v=65
182070 On ch=1 n=g4 v=0
182070 On ch=1 n=d#6 v=71
182130 On ch=1 n=d#6 v=0
182130 On ch=1 n=c6 v=65
182160 On ch=1 n=c6 v=0
182160 Par ch=1 c=64 v=0
182160 On ch=1 n=b5 v=65
182160 On ch=1 n=d6 v=65
182280 On ch=1 n=b5 v=0
182280 On ch=1 n=d6 v=0
182280 On ch=1 n=d4 v=120
182280 On ch=1 n=d5 v=120
182340 On ch=1 n=d4 v=0
182340 On ch=1 n=d5 v=0
182340 On ch=1 n=d#3 v=102
182340 On ch=1 n=d#4 v=102
182370 On ch=1 n=d#3 v=0
182370 On ch=1 n=d#4 v=0
182370 On ch=1 n=d#3 v=102
182370 On ch=1 n=d#4 v=102
182400 On ch=1 n=d#3 v=0
182400 On ch=1 n=d#4 v=0
182400 On ch=1 n=c#3 v=102
182400 On ch=1 n=c#4 v=102
182430 On ch=1 n=c#3 v=0
182430 On ch=1 n=c#4 v=0
182460 On ch=1 n=d4 v=102
182460 On ch=1 n=d3 v=102
182490 On ch=1 n=d4 v=0
182490 On ch=1 n=d3 v=0
182520 On ch=1 n=c3 v=102
182520 On ch=1 n=c4 v=102
182550 On ch=1 n=c3 v=0
182550 On ch=1 n=c4 v=0
182580 On ch=1 n=b3 v=102
182580 On ch=1 n=b2 v=102
182610 On ch=1 n=b3 v=0
182610 On ch=1 n=b2 v=0
182640 On ch=1 n=a2 v=102
182640 On ch=1 n=a3 v=102
182700 On ch=1 n=a2 v=0
182700 On ch=1 n=a3 v=0
182700 On ch=1 n=a3 v=108
182700 On ch=1 n=e4 v=108
182760 On ch=1 n=e4 v=0
182760 On ch=1 n=f#4 v=114
182820 On ch=1 n=f#4 v=0
182820 On ch=1 n=f4 v=108
182880 On ch=1 n=a3 v=0
182880 On ch=1 n=f4 v=0
182880 On ch=1 n=e4 v=102
182940 On ch=1 n=e4 v=0
182940 On ch=1 n=a3 v=90
183000 Par ch=1 c=85 v=8
183060 On ch=1 n=a3 v=0
183060 On ch=1 n=a#2 v=65
183060 On ch=1 n=a#3 v=65
183065 On ch=1 n=a#2 v=0
183065 On ch=1 n=a#3 v=0
183065 On ch=1 n=b2 v=65
183065 On ch=1 n=b3 v=65
183120 Par ch=1 c=85 v=8
183180 On ch=1 n=b2 v=0
183180 On ch=1 n=b3 v=0
183180 On ch=1 n=f#3 v=65
183180 On ch=1 n=f#4 v=65
183185 On ch=1 n=f#3 v=0
183185 On ch=1 n=f#4 v=0
183185 On ch=1 n=g3 v=65
183185 On ch=1 n=g4 v=65
183240 Par ch=1 c=85 v=8
183300 On ch=1 n=g3 v=0
183300 On ch=1 n=g4 v=0
183300 On ch=1 n=f#2 v=65
183300 On ch=1 n=f#3 v=65
183305 On ch=1 n=f#2 v=0
183305 On ch=1 n=f#3 v=0
183305 On ch=1 n=g2 v=65
183305 On ch=1 n=g3 v=65
183360 Par ch=1 c=85 v=8
183420 On ch=1 n=g2 v=0
183420 On ch=1 n=g3 v=0
183420 On ch=1 n=g#2 v=59
183420 On ch=1 n=g#3 v=59
183425 On ch=1 n=g#2 v=0
183425 On ch=1 n=g#3 v=0
183425 On ch=1 n=a2 v=59
183425 On ch=1 n=a3 v=59
183480 Par ch=1 c=85 v=8
183540 On ch=1 n=a2 v=0
183540 On ch=1 n=a3 v=0
183540 On ch=1 n=a#2 v=53
183540 On ch=1 n=a#3 v=53
183545 On ch=1 n=a#2 v=0
183545 On ch=1 n=a#3 v=0
183545 On ch=1 n=b2 v=53
183545 On ch=1 n=b3 v=53
183660 On ch=1 n=b2 v=0
183660 On ch=1 n=b3 v=0
183720 Par ch=1 c=64 v=127
183720 On ch=1 n=g4 v=65
183750 On ch=1 n=g4 v=0
183750 On ch=1 n=b5 v=65
183810 On ch=1 n=b5 v=0
183810 On ch=1 n=d5 v=65
183840 On ch=1 n=d5 v=0
183840 On ch=1 n=g4 v=65
183870 On ch=1 n=g4 v=0
183870 On ch=1 n=a#5 v=65
183930 On ch=1 n=a#5 v=0
183930 On ch=1 n=c#5 v=65
183960 On ch=1 n=c#5 v=0
183960 On ch=1 n=g4 v=65
183990 On ch=1 n=g4 v=0
183990 On ch=1 n=a5 v=65
184050 On ch=1 n=a5 v=0
184050 On ch=1 n=c5 v=65
184080 On ch=1 n=c5 v=0
184080 On ch=1 n=f#4 v=65
184110 On ch=1 n=f#4 v=0
184110 On ch=1 n=a5 v=65
184170 On ch=1 n=a5 v=0
184170 On ch=1 n=d5 v=65
184200 On ch=1 n=d5 v=0
184200 On ch=1 n=f#4 v=65
184230 On ch=1 n=f#4 v=0
184230 On ch=1 n=a5 v=65
184290 On ch=1 n=a5 v=0
184290 On ch=1 n=d#5 v=65
184320 On ch=1 n=d#5 v=0
184320 On ch=1 n=g4 v=65
184350 On ch=1 n=g4 v=0
184350 On ch=1 n=g5 v=65
184410 On ch=1 n=g5 v=0
184410 On ch=1 n=d5 v=65
184440 On ch=1 n=d5 v=0
184440 On ch=1 n=c4 v=65
184470 On ch=1 n=c4 v=0
184470 On ch=1 n=e5 v=65
184530 On ch=1 n=e5 v=0
184530 On ch=1 n=a4 v=65
184560 On ch=1 n=a4 v=0
184560 On ch=1 n=a3 v=65
184590 On ch=1 n=a3 v=0
184590 On ch=1 n=c5 v=65
184650 On ch=1 n=c5 v=0
184650 On ch=1 n=a4 v=65
184680 On ch=1 n=a4 v=0
184680 On ch=1 n=d4 v=65
184710 On ch=1 n=d4 v=0
184710 On ch=1 n=c5 v=65
184770 On ch=1 n=c5 v=0
184770 On ch=1 n=a4 v=65
184800 On ch=1 n=a4 v=0
184800 On ch=1 n=g3 v=65
184830 On ch=1 n=g3 v=0
184830 On ch=1 n=b4 v=65
184890 On ch=1 n=b4 v=0
184890 On ch=1 n=d4 v=65
184920 On ch=1 n=d4 v=0
184920 On ch=1 n=g3 v=65
184950 On ch=1 n=g3 v=0
184950 On ch=1 n=c5 v=65
185010 On ch=1 n=c5 v=0
185010 On ch=1 n=d#4 v=65
185040 On ch=1 n=d#4 v=0
185040 On ch=1 n=g3 v=65
185070 On ch=1 n=g3 v=0
185070 On ch=1 n=b4 v=65
185070 On ch=1 n=d4 v=65
185100 On ch=1 n=b4 v=0
185100 On ch=1 n=d4 v=0
185100 Par ch=1 c=64 v=0
185160 On ch=1 n=g4 v=90
185160 On ch=1 n=c#5 v=90
185160 Par ch=1 c=64 v=127
185220 On ch=1 n=g4 v=0
185220 On ch=1 n=c#5 v=0
185220 On ch=1 n=a3 v=90
185340 On ch=1 n=a3 v=0
185340 On ch=1 n=a4 v=90
185340 On ch=1 n=e5 v=90
185340 Par ch=1 c=64 v=0
185400 On ch=1 n=a4 v=0
185400 On ch=1 n=e5 v=0
185400 On ch=1 n=a4 v=90
185400 On ch=1 n=e5 v=90
185460 On ch=1 n=a4 v=0
185460 On ch=1 n=e5 v=0
185460 On ch=1 n=a4 v=90
185460 On ch=1 n=e5 v=90
185520 On ch=1 n=a4 v=0
185520 On ch=1 n=e5 v=0
185520 On ch=1 n=g4 v=90
185520 On ch=1 n=c#5 v=90
185520 Par ch=1 c=64 v=127
185520 Par ch=1 c=64 v=127
185580 On ch=1 n=g4 v=0
185580 On ch=1 n=c#5 v=0
185580 On ch=1 n=a3 v=90
185700 On ch=1 n=a3 v=0
185700 On ch=1 n=a4 v=90
185700 On ch=1 n=e5 v=90
185700 Par ch=1 c=64 v=0
185700 Par ch=1 c=64 v=0
185760 On ch=1 n=a4 v=0
185760 On ch=1 n=e5 v=0
185760 On ch=1 n=a4 v=90
185760 On ch=1 n=e5 v=90
185820 On ch=1 n=a4 v=0
185820 On ch=1 n=e5 v=0
185820 On ch=1 n=a4 v=90
185820 On ch=1 n=e5 v=90
185880 On ch=1 n=a4 v=0
185880 On ch=1 n=e5 v=0
185880 On ch=1 n=a3 v=90
185910 On ch=1 n=a3 v=0
185940 On ch=1 n=g#4 v=90
185940 On ch=1 n=f4 v=90
185970 On ch=1 n=g#4 v=0
185970 On ch=1 n=f4 v=0
186000 On ch=1 n=b3 v=90
186030 On ch=1 n=b3 v=0
186060 On ch=1 n=g#4 v=90
186060 On ch=1 n=f4 v=90
186090 On ch=1 n=g#4 v=0
186090 On ch=1 n=f4 v=0
186120 On ch=1 n=d4 v=90
186150 On ch=1 n=d4 v=0
186180 On ch=1 n=g#4 v=90
186180 On ch=1 n=f4 v=90
186210 On ch=1 n=g#4 v=0
186210 On ch=1 n=f4 v=0
186240 On ch=1 n=a3 v=90
186270 On ch=1 n=a3 v=0
186300 On ch=1 n=e4 v=90
186300 On ch=1 n=a4 v=90
186330 On ch=1 n=e4 v=0
186330 On ch=1 n=a4 v=0
186600 On ch=1 n=g3 v=53
186660 On ch=1 n=g3 v=0
186660 On ch=1 n=g3 v=53
186690 On ch=1 n=g3 v=0
186690 On ch=1 n=g2 v=53
186720 On ch=1 n=g2 v=0
186720 On ch=1 n=g3 v=53
186750 On ch=1 n=g3 v=0
186750 On ch=1 n=a3 v=53
186780 On ch=1 n=a3 v=0
186780 On ch=1 n=a#3 v=53
186810 On ch=1 n=a#3 v=0
186810 On ch=1 n=c4 v=53
186840 On ch=1 n=c4 v=0
186840 On ch=1 n=d4 v=53
186900 On ch=1 n=d4 v=0
186900 On ch=1 n=d3 v=53
186960 On ch=1 n=d3 v=0
186960 On ch=1 n=g3 v=53
187020 On ch=1 n=g3 v=0
187020 On ch=1 n=g4 v=53
187050 On ch=1 n=g4 v=0
187050 On ch=1 n=g3 v=53
187080 On ch=1 n=g3 v=0
187080 On ch=1 n=g4 v=53
187110 On ch=1 n=g4 v=0
187110 On ch=1 n=a4 v=53
187140 On ch=1 n=a4 v=0
187140 On ch=1 n=a#4 v=53
187170 On ch=1 n=a#4 v=0
187170 On ch=1 n=c5 v=53
187200 On ch=1 n=c5 v=0
187200 On ch=1 n=d5 v=53
187260 On ch=1 n=d5 v=0
187260 On ch=1 n=d4 v=53
187320 On ch=1 n=d4 v=0
187320 On ch=1 n=g4 v=53
187380 On ch=1 n=g4 v=0
187380 On ch=1 n=a#4 v=53
187380 On ch=1 n=g5 v=53
187410 On ch=1 n=a#4 v=0
187410 On ch=1 n=g5 v=0
187410 On ch=1 n=a#4 v=53
187410 On ch=1 n=g5 v=53
187440 On ch=1 n=a#4 v=0
187440 On ch=1 n=g5 v=0
187440 On ch=1 n=a#4 v=58
187440 On ch=1 n=g5 v=58
187500 On ch=1 n=a#4 v=0
187500 On ch=1 n=g5 v=0
187500 On ch=1 n=d5 v=63
187500 On ch=1 n=a5 v=63
187560 On ch=1 n=d5 v=0
187560 On ch=1 n=a5 v=0
187560 On ch=1 n=g5 v=68
187560 On ch=1 n=a#5 v=68
187620 On ch=1 n=g5 v=0
187620 On ch=1 n=a#5 v=0
187620 On ch=1 n=d6 v=73
187620 On ch=1 n=a#5 v=73
187620 On ch=1 n=g5 v=73
187680 On ch=1 n=d6 v=0
187680 On ch=1 n=a#5 v=0
187680 On ch=1 n=g5 v=0
187680 On ch=1 n=g5 v=78
187680 On ch=1 n=c6 v=78
187680 On ch=1 n=d#6 v=78
187740 On ch=1 n=c6 v=0
187740 On ch=1 n=d#6 v=0
187740 On ch=1 n=a#5 v=73
187740 On ch=1 n=d6 v=73
187800 On ch=1 n=g5 v=0
187800 On ch=1 n=a#5 v=0
187800 On ch=1 n=d6 v=0
187800 On ch=1 n=d5 v=68
187800 On ch=1 n=a5 v=68
187890 On ch=1 n=d5 v=0
187890 On ch=1 n=a5 v=0
187890 On ch=1 n=g5 v=63
187890 On ch=1 n=a#5 v=63
187920 On ch=1 n=g5 v=0
187920 On ch=1 n=a#5 v=0
187920 On ch=1 n=d5 v=58
187920 On ch=1 n=a5 v=58
188040 On ch=1 n=d5 v=0
188040 On ch=1 n=a5 v=0
188040 On ch=1 n=a#3 v=102
188040 On ch=1 n=a#4 v=102
188100 On ch=1 n=a#3 v=0
188100 On ch=1 n=a#4 v=0
188100 On ch=1 n=d5 v=102
188100 On ch=1 n=a#4 v=102
188100 On ch=1 n=f4 v=102
188160 On ch=1 n=d5 v=0
188160 On ch=1 n=a#4 v=0
188160 On ch=1 n=f4 v=0
188160 On ch=1 n=f4 v=108
188160 On ch=1 n=a#4 v=108
188160 On ch=1 n=d5 v=108
188280 On ch=1 n=f4 v=0
188280 On ch=1 n=a#4 v=0
188280 On ch=1 n=d5 v=0
188280 On ch=1 n=f3 v=102
188280 On ch=1 n=f4 v=102
188340 On ch=1 n=f3 v=0
188340 On ch=1 n=f4 v=0
188340 On ch=1 n=c5 v=102
188340 On ch=1 n=a4 v=102
188340 On ch=1 n=f4 v=102
188400 On ch=1 n=c5 v=0
188400 On ch=1 n=a4 v=0
188400 On ch=1 n=f4 v=0
188400 On ch=1 n=a#3 v=102
188400 On ch=1 n=a#4 v=102
188460 On ch=1 n=a#3 v=0
188460 On ch=1 n=a#4 v=0
188460 On ch=1 n=d5 v=102
188460 On ch=1 n=a#4 v=102
188460 On ch=1 n=f4 v=102
188520 On ch=1 n=d5 v=0
188520 On ch=1 n=a#4 v=0
188520 On ch=1 n=f4 v=0
188520 On ch=1 n=f4 v=108
188520 On ch=1 n=a#4 v=108
188520 On ch=1 n=d5 v=108
188640 On ch=1 n=f4 v=0
188640 On ch=1 n=a#4 v=0
188640 On ch=1 n=d5 v=0
188640 On ch=1 n=f4 v=102
188640 On ch=1 n=f5 v=102
188700 On ch=1 n=f4 v=0
188700 On ch=1 n=f5 v=0
188700 On ch=1 n=c6 v=102
188700 On ch=1 n=a5 v=102
188700 On ch=1 n=f5 v=102
188760 On ch=1 n=c6 v=0
188760 On ch=1 n=a5 v=0
188760 On ch=1 n=f5 v=0
188760 On ch=1 n=f4 v=114
188820 On ch=1 n=f4 v=0
188820 On ch=1 n=a5 v=114
188820 On ch=1 n=f5 v=114
188880 On ch=1 n=a5 v=0
188880 On ch=1 n=f5 v=0
188880 On ch=1 n=a4 v=114
188940 On ch=1 n=a4 v=0
188940 On ch=1 n=a5 v=114
188940 On ch=1 n=f5 v=114
189000 On ch=1 n=a5 v=0
189000 On ch=1 n=f5 v=0
189000 On ch=1 n=c5 v=114
189060 On ch=1 n=c5 v=0
189060 On ch=1 n=a5 v=114
189060 On ch=1 n=f5 v=114
189120 On ch=1 n=a5 v=0
189120 On ch=1 n=f5 v=0
189120 On ch=1 n=e4 v=114
189180 On ch=1 n=e4 v=0
189180 On ch=1 n=a5 v=114
189180 On ch=1 n=c#5 v=114
189240 On ch=1 n=a5 v=0
189240 On ch=1 n=c#5 v=0
189240 On ch=1 n=e4 v=114
189300 On ch=1 n=e4 v=0
189300 On ch=1 n=b5 v=114
189300 On ch=1 n=e5 v=114
189360 On ch=1 n=b5 v=0
189360 On ch=1 n=e5 v=0
189360 On ch=1 n=a5 v=114
189420 On ch=1 n=a5 v=0
189480 On ch=1 n=c#4 v=90
189540 On ch=1 n=c#4 v=0
189540 On ch=1 n=e5 v=98
189540 On ch=1 n=a4 v=98
189660 On ch=1 n=e5 v=0
189660 On ch=1 n=a4 v=0
189660 On ch=1 n=a4 v=90
189660 On ch=1 n=e5 v=90
189690 On ch=1 n=a4 v=0
189690 On ch=1 n=e5 v=0
189690 On ch=1 n=a4 v=90
189690 On ch=1 n=e5 v=90
189720 On ch=1 n=a4 v=0
189720 On ch=1 n=e5 v=0
189720 On ch=1 n=a4 v=90
189720 On ch=1 n=e5 v=90
189780 On ch=1 n=a4 v=0
189780 On ch=1 n=e5 v=0
189780 On ch=1 n=e5 v=90
189780 On ch=1 n=a4 v=90
189840 On ch=1 n=e5 v=0
189840 On ch=1 n=a4 v=0
189840 On ch=1 n=c#4 v=90
189840 On ch=1 n=a4 v=90
189900 On ch=1 n=c#4 v=0
189900 On ch=1 n=a4 v=0
189900 On ch=1 n=e5 v=90
189900 On ch=1 n=a4 v=90
189960 On ch=1 n=e5 v=0
189960 On ch=1 n=a4 v=0
189960 On ch=1 n=d4 v=90
189960 On ch=1 n=a4 v=90
190020 On ch=1 n=d4 v=0
190020 On ch=1 n=a4 v=0
190020 On ch=1 n=d5 v=90
190020 On ch=1 n=a4 v=90
190080 On ch=1 n=d5 v=0
190080 On ch=1 n=a4 v=0
190080 On ch=1 n=c#4 v=90
190080 On ch=1 n=a4 v=90
190140 On ch=1 n=c#4 v=0
190140 On ch=1 n=a4 v=0
190140 On ch=1 n=e5 v=90
190140 On ch=1 n=a4 v=90
190200 On ch=1 n=e5 v=0
190200 On ch=1 n=a4 v=0
190200 On ch=1 n=d4 v=90
190200 On ch=1 n=f#4 v=90
190200 On ch=1 n=d5 v=90
190260 On ch=1 n=d4 v=0
190260 On ch=1 n=f#4 v=0
190260 On ch=1 n=d5 v=0
190260 On ch=1 n=f#4 v=90
190260 On ch=1 n=d5 v=90
190290 On ch=1 n=f#4 v=0
190290 On ch=1 n=d5 v=0
190290 On ch=1 n=f#4 v=90
190290 On ch=1 n=d5 v=90
190320 On ch=1 n=f#4 v=0
190320 On ch=1 n=d5 v=0
190320 On ch=1 n=f#4 v=97
190320 On ch=1 n=d5 v=97
190380 On ch=1 n=f#4 v=0
190380 On ch=1 n=d5 v=0
190380 On ch=1 n=e5 v=103
190380 On ch=1 n=a4 v=103
190440 On ch=1 n=e5 v=0
190440 On ch=1 n=a4 v=0
190440 On ch=1 n=f#5 v=110
190440 On ch=1 n=d5 v=110
190500 On ch=1 n=f#5 v=0
190500 On ch=1 n=d5 v=0
190500 On ch=1 n=a5 v=117
190500 On ch=1 n=f#5 v=117
190500 On ch=1 n=d5 v=117
190560 On ch=1 n=a5 v=0
190560 On ch=1 n=f#5 v=0
190560 On ch=1 n=d5 v=0
190560 On ch=1 n=d5 v=124
190560 On ch=1 n=g5 v=124
190560 On ch=1 n=b5 v=124
190620 On ch=1 n=g5 v=0
190620 On ch=1 n=b5 v=0
190620 On ch=1 n=f#5 v=124
190620 On ch=1 n=a5 v=124
190680 On ch=1 n=d5 v=0
190680 On ch=1 n=f#5 v=0
190680 On ch=1 n=a5 v=0
190680 On ch=1 n=a4 v=113
190680 On ch=1 n=e5 v=113
190770 On ch=1 n=a4 v=0
190770 On ch=1 n=e5 v=0
190770 On ch=1 n=d5 v=113
190770 On ch=1 n=f#5 v=113
190800 On ch=1 n=d5 v=0
190800 On ch=1 n=f#5 v=0
190800 On ch=1 n=a4 v=102
190800 On ch=1 n=e5 v=102
190920 On ch=1 n=a4 v=0
190920 On ch=1 n=e5 v=0
190920 On ch=1 n=c#4 v=90
190980 On ch=1 n=c#4 v=0
190980 On ch=1 n=e5 v=98
190980 On ch=1 n=a4 v=98
191100 On ch=1 n=e5 v=0
191100 On ch=1 n=a4 v=0
191100 On ch=1 n=a4 v=90
191100 On ch=1 n=e5 v=90
191130 On ch=1 n=a4 v=0
191130 On ch=1 n=e5 v=0
191130 On ch=1 n=a4 v=90
191130 On ch=1 n=e5 v=90
191160 On ch=1 n=a4 v=0
191160 On ch=1 n=e5 v=0
191160 On ch=1 n=a4 v=90
191160 On ch=1 n=e5 v=90
191220 On ch=1 n=a4 v=0
191220 On ch=1 n=e5 v=0
191220 On ch=1 n=e5 v=90
191220 On ch=1 n=a4 v=90
191280 On ch=1 n=e5 v=0
191280 On ch=1 n=a4 v=0
191280 On ch=1 n=c#4 v=90
191280 On ch=1 n=a4 v=90
191340 On ch=1 n=c#4 v=0
191340 On ch=1 n=a4 v=0
191340 On ch=1 n=e5 v=90
191340 On ch=1 n=a4 v=90
191400 On ch=1 n=e5 v=0
191400 On ch=1 n=a4 v=0
191400 On ch=1 n=d5 v=90
191400 On ch=1 n=d4 v=90
191400 On ch=1 n=a4 v=90
191460 On ch=1 n=d5 v=0
191460 On ch=1 n=d4 v=0
191460 On ch=1 n=a4 v=0
191520 On ch=1 n=f#4 v=53
191520 On ch=1 n=d5 v=53
191550 On ch=1 n=f#4 v=0
191550 On ch=1 n=d5 v=0
191580 On ch=1 n=d5 v=53
191580 On ch=1 n=a5 v=53
191610 On ch=1 n=d5 v=0
191610 On ch=1 n=a5 v=0
191640 On ch=1 n=g4 v=53
191640 On ch=1 n=d5 v=53
191670 On ch=1 n=g4 v=0
191670 On ch=1 n=d5 v=0
191700 On ch=1 n=g5 v=56
191700 On ch=1 n=d5 v=56
191730 On ch=1 n=g5 v=0
191730 On ch=1 n=d5 v=0
191760 On ch=1 n=a4 v=59
191760 On ch=1 n=d#5 v=59
191790 On ch=1 n=a4 v=0
191790 On ch=1 n=d#5 v=0
191820 On ch=1 n=f#5 v=62
191820 On ch=1 n=d#5 v=62
191850 On ch=1 n=f#5 v=0
191850 On ch=1 n=d#5 v=0
191880 On ch=1 n=g4 v=63
191880 On ch=1 n=e5 v=63
191910 On ch=1 n=g4 v=0
191910 On ch=1 n=e5 v=0
191940 On ch=1 n=g5 v=65
191940 On ch=1 n=e5 v=65
191970 On ch=1 n=g5 v=0
191970 On ch=1 n=e5 v=0
192120 On ch=1 n=e5 v=59
192120 On ch=1 n=a4 v=59
192240 On ch=1 n=e5 v=0
192240 On ch=1 n=a4 v=0
192240 On ch=1 n=d5 v=53
192240 On ch=1 n=d4 v=53
192300 On ch=1 n=d5 v=0
192300 On ch=1 n=d4 v=0
192720 On ch=1 n=a4 v=102
192840 On ch=1 n=a4 v=0
192840 On ch=1 n=d5 v=102
192840 On ch=1 n=f#4 v=102
193020 On ch=1 n=d5 v=0
193020 On ch=1 n=f#4 v=0
193020 On ch=1 n=f#4 v=102
193020 On ch=1 n=d5 v=102
193080 On ch=1 n=f#4 v=0
193080 On ch=1 n=d5 v=0
193080 On ch=1 n=f#4 v=102
193080 On ch=1 n=d5 v=102
193200 On ch=1 n=f#4 v=0
193200 On ch=1 n=d5 v=0
193200 On ch=1 n=f#4 v=102
193200 On ch=1 n=d5 v=102
193320 On ch=1 n=f#4 v=0
193320 On ch=1 n=d5 v=0
193320 On ch=1 n=e5 v=102
193320 On ch=1 n=a4 v=102
193440 On ch=1 n=e5 v=0
193440 On ch=1 n=a4 v=0
193440 On ch=1 n=f#5 v=102
193440 On ch=1 n=d5 v=102
193560 On ch=1 n=f#5 v=0
193560 On ch=1 n=d5 v=0
193560 On ch=1 n=d5 v=102
193560 On ch=1 n=f#5 v=102
193680 On ch=1 n=d5 v=0
193680 On ch=1 n=f#5 v=0
193680 On ch=1 n=a4 v=102
193680 On ch=1 n=e5 v=102
193800 On ch=1 n=a4 v=0
193800 On ch=1 n=e5 v=0
193800 On ch=1 n=e5 v=102
193800 On ch=1 n=a4 v=102
193920 On ch=1 n=e5 v=0
193920 On ch=1 n=a4 v=0
193920 On ch=1 n=a4 v=102
193920 On ch=1 n=e5 v=102
194160 On ch=1 n=a4 v=0
194160 On ch=1 n=e5 v=0
194160 On ch=1 n=a4 v=102
194160 On ch=1 n=e5 v=102
194280 On ch=1 n=a4 v=0
194280 On ch=1 n=e5 v=0
194280 On ch=1 n=d5 v=102
194280 On ch=1 n=f#5 v=102
194460 On ch=1 n=d5 v=0
194460 On ch=1 n=f#5 v=0
194460 On ch=1 n=e5 v=102
194460 On ch=1 n=g5 v=102
194520 On ch=1 n=e5 v=0
194520 On ch=1 n=g5 v=0
194520 On ch=1 n=a5 v=102
194520 On ch=1 n=f#5 v=102
194640 On ch=1 n=a5 v=0
194640 On ch=1 n=f#5 v=0
194640 On ch=1 n=f#5 v=102
194640 On ch=1 n=a5 v=102
194760 On ch=1 n=f#5 v=0
194760 On ch=1 n=a5 v=0
194760 On ch=1 n=e5 v=102
194760 On ch=1 n=g5 v=102
194880 On ch=1 n=e5 v=0
194880 On ch=1 n=g5 v=0
194880 On ch=1 n=d5 v=102
194880 On ch=1 n=f#5 v=102
195000 On ch=1 n=d5 v=0
195000 On ch=1 n=f#5 v=0
195000 On ch=1 n=d5 v=102
195000 On ch=1 n=f#5 v=102
195120 On ch=1 n=d5 v=0
195120 On ch=1 n=f#5 v=0
195120 On ch=1 n=a4 v=102
195120 On ch=1 n=e5 v=102
195240 On ch=1 n=a4 v=0
195240 On ch=1 n=e5 v=0
195240 On ch=1 n=e5 v=102
195240 On ch=1 n=a4 v=102
195360 On ch=1 n=e5 v=0
195360 On ch=1 n=a4 v=0
195360 On ch=1 n=a4 v=102
195360 On ch=1 n=e5 v=102
195600 On ch=1 n=a4 v=0
195600 On ch=1 n=e5 v=0
195600 On ch=1 n=a4 v=102
195720 On ch=1 n=d5 v=102
195720 On ch=1 n=f#4 v=102
195840 On ch=1 n=a4 v=0
195900 On ch=1 n=d5 v=0
195900 On ch=1 n=f#4 v=0
195900 On ch=1 n=f#4 v=102
195900 On ch=1 n=d5 v=102
195960 On ch=1 n=f#4 v=0
195960 On ch=1 n=d5 v=0
195960 On ch=1 n=f#4 v=102
195960 On ch=1 n=d5 v=102
196080 On ch=1 n=f#4 v=0
196080 On ch=1 n=d5 v=0
196080 On ch=1 n=f#4 v=102
196080 On ch=1 n=d5 v=102
196200 On ch=1 n=f#4 v=0
196200 On ch=1 n=d5 v=0
196200 On ch=1 n=e5 v=102
196200 On ch=1 n=a4 v=102
196320 On ch=1 n=e5 v=0
196320 On ch=1 n=a4 v=0
196320 On ch=1 n=f#5 v=102
196320 On ch=1 n=d5 v=102
196440 On ch=1 n=f#5 v=0
196440 On ch=1 n=d5 v=0
196440 On ch=1 n=d5 v=102
196440 On ch=1 n=f#5 v=102
196560 On ch=1 n=d5 v=0
196560 On ch=1 n=f#5 v=0
196560 On ch=1 n=a4 v=102
196560 On ch=1 n=e5 v=102
196680 On ch=1 n=a4 v=0
196680 On ch=1 n=e5 v=0
196680 On ch=1 n=e5 v=102
196680 On ch=1 n=a4 v=102
196800 On ch=1 n=e5 v=0
196800 On ch=1 n=a4 v=0
196800 On ch=1 n=a4 v=102
196800 On ch=1 n=e5 v=102
197040 On ch=1 n=a4 v=0
197040 On ch=1 n=e5 v=0
197040 On ch=1 n=a4 v=102
197040 On ch=1 n=e5 v=102
197160 On ch=1 n=a4 v=0
197160 On ch=1 n=e5 v=0
197160 On ch=1 n=d5 v=102
197160 On ch=1 n=f#5 v=102
197340 On ch=1 n=d5 v=0
197340 On ch=1 n=f#5 v=0
197340 On ch=1 n=e5 v=102
197340 On ch=1 n=g5 v=102
197400 On ch=1 n=e5 v=0
197400 On ch=1 n=g5 v=0
197400 On ch=1 n=a5 v=102
197400 On ch=1 n=f#5 v=102
197520 On ch=1 n=a5 v=0
197520 On ch=1 n=f#5 v=0
197520 On ch=1 n=f#5 v=102
197520 On ch=1 n=a5 v=102
197640 On ch=1 n=f#5 v=0
197640 On ch=1 n=a5 v=0
197640 On ch=1 n=e5 v=102
197640 On ch=1 n=g5 v=102
197760 On ch=1 n=e5 v=0
197760 On ch=1 n=g5 v=0
197760 On ch=1 n=d5 v=102
197760 On ch=1 n=f#5 v=102
197880 On ch=1 n=d5 v=0
197880 On ch=1 n=f#5 v=0
197880 On ch=1 n=d5 v=102
197880 On ch=1 n=f#5 v=102
198000 On ch=1 n=d5 v=0
198000 On ch=1 n=f#5 v=0
198000 On ch=1 n=a4 v=102
198000 On ch=1 n=e5 v=102
198120 On ch=1 n=a4 v=0
198120 On ch=1 n=e5 v=0
198120 On ch=1 n=e5 v=102
198120 On ch=1 n=a4 v=102
198240 On ch=1 n=e5 v=0
198240 On ch=1 n=a4 v=0
198240 On ch=1 n=a4 v=102
198240 On ch=1 n=e5 v=102
198720 On ch=1 n=a4 v=0
198720 On ch=1 n=e5 v=0
198960 On ch=1 n=d5 v=102
198960 On ch=1 n=f#4 v=102
199020 On ch=1 n=d5 v=0
199020 On ch=1 n=f#4 v=0
199080 On ch=1 n=a4 v=102
199080 On ch=1 n=e5 v=102
199140 On ch=1 n=a4 v=0
199140 On ch=1 n=e5 v=0
199200 On ch=1 n=d5 v=102
199200 On ch=1 n=f#5 v=102
199260 On ch=1 n=d5 v=0
199260 On ch=1 n=f#5 v=0
199260 On ch=1 n=d5 v=102
199260 On ch=1 n=f#5 v=102
199320 On ch=1 n=d5 v=0
199320 On ch=1 n=f#5 v=0
199320 On ch=1 n=d5 v=102
199320 On ch=1 n=f#5 v=102
199380 On ch=1 n=d5 v=0
199380 On ch=1 n=f#5 v=0
199440 On ch=1 n=f#4 v=102
199440 On ch=1 n=d5 v=102
199500 On ch=1 n=f#4 v=0
199500 On ch=1 n=d5 v=0
199560 On ch=1 n=e5 v=102
199560 On ch=1 n=a4 v=102
199620 On ch=1 n=e5 v=0
199620 On ch=1 n=a4 v=0
199680 On ch=1 n=f#4 v=102
199680 On ch=1 n=d5 v=102
199740 On ch=1 n=f#4 v=0
199740 On ch=1 n=d5 v=0
199740 On ch=1 n=d5 v=102
199740 On ch=1 n=f#4 v=102
199800 On ch=1 n=d5 v=0
199800 On ch=1 n=f#4 v=0
199800 On ch=1 n=d5 v=102
199800 On ch=1 n=f#4 v=102
199860 On ch=1 n=d5 v=0
199860 On ch=1 n=f#4 v=0
199920 On ch=1 n=d5 v=102
199920 On ch=1 n=f#4 v=102
199980 On ch=1 n=d5 v=0
199980 On ch=1 n=f#4 v=0
200040 On ch=1 n=a4 v=102
200040 On ch=1 n=e5 v=102
200100 On ch=1 n=a4 v=0
200100 On ch=1 n=e5 v=0
200160 On ch=1 n=d5 v=102
200160 On ch=1 n=f#5 v=102
200220 On ch=1 n=d5 v=0
200220 On ch=1 n=f#5 v=0
200220 On ch=1 n=d5 v=102
200220 On ch=1 n=f#5 v=102
200280 On ch=1 n=d5 v=0
200280 On ch=1 n=f#5 v=0
200280 On ch=1 n=d5 v=102
200280 On ch=1 n=f#5 v=102
200340 On ch=1 n=d5 v=0
200340 On ch=1 n=f#5 v=0
200400 On ch=1 n=f#4 v=102
200400 On ch=1 n=d5 v=102
200460 On ch=1 n=f#4 v=0
200460 On ch=1 n=d5 v=0
200520 On ch=1 n=e5 v=102
200520 On ch=1 n=a4 v=102
200580 On ch=1 n=e5 v=0
200580 On ch=1 n=a4 v=0
200640 On ch=1 n=f#4 v=102
200640 On ch=1 n=d5 v=102
200700 On ch=1 n=f#4 v=0
200700 On ch=1 n=d5 v=0
200700 On ch=1 n=d5 v=102
200700 On ch=1 n=f#4 v=102
200760 On ch=1 n=d5 v=0
200760 On ch=1 n=f#4 v=0
200760 On ch=1 n=d5 v=102
200760 On ch=1 n=f#4 v=102
200820 On ch=1 n=d5 v=0
200820 On ch=1 n=f#4 v=0
200820 On ch=1 n=a4 v=102
200880 On ch=1 n=a4 v=0
200880 On ch=1 n=d5 v=102
200880 On ch=1 n=f#4 v=102
201060 On ch=1 n=d5 v=0
201060 On ch=1 n=f#4 v=0
201060 On ch=1 n=f#4 v=102
201060 On ch=1 n=d5 v=102
201120 On ch=1 n=f#4 v=0
201120 On ch=1 n=d5 v=0
201120 On ch=1 n=f#4 v=102
201120 On ch=1 n=d5 v=102
201240 On ch=1 n=f#4 v=0
201240 On ch=1 n=d5 v=0
201240 On ch=1 n=f#4 v=102
201240 On ch=1 n=d5 v=102
201360 On ch=1 n=f#4 v=0
201360 On ch=1 n=d5 v=0
201360 On ch=1 n=e5 v=102
201360 On ch=1 n=a4 v=102
201480 On ch=1 n=e5 v=0
201480 On ch=1 n=a4 v=0
201480 On ch=1 n=f#5 v=102
201480 On ch=1 n=d5 v=102
201600 On ch=1 n=f#5 v=0
201600 On ch=1 n=d5 v=0
201600 On ch=1 n=d5 v=102
201600 On ch=1 n=f#5 v=102
201720 On ch=1 n=d5 v=0
201720 On ch=1 n=f#5 v=0
201720 On ch=1 n=a4 v=102
201720 On ch=1 n=e5 v=102
201840 On ch=1 n=a4 v=0
201840 On ch=1 n=e5 v=0
201840 On ch=1 n=e5 v=102
201840 On ch=1 n=a4 v=102
201960 On ch=1 n=e5 v=0
201960 On ch=1 n=a4 v=0
201960 On ch=1 n=a4 v=102
201960 On ch=1 n=e5 v=102
202200 On ch=1 n=a4 v=0
202200 On ch=1 n=e5 v=0
202200 On ch=1 n=a4 v=102
202200 On ch=1 n=e5 v=102
202320 On ch=1 n=a4 v=0
202320 On ch=1 n=e5 v=0
202320 On ch=1 n=d5 v=102
202320 On ch=1 n=f#5 v=102
202500 On ch=1 n=d5 v=0
202500 On ch=1 n=f#5 v=0
202500 On ch=1 n=e5 v=102
202500 On ch=1 n=g5 v=102
202560 On ch=1 n=e5 v=0
202560 On ch=1 n=g5 v=0
202560 On ch=1 n=a5 v=102
202560 On ch=1 n=f#5 v=102
202680 On ch=1 n=a5 v=0
202680 On ch=1 n=f#5 v=0
202680 On ch=1 n=f#5 v=102
202680 On ch=1 n=a5 v=102
202800 On ch=1 n=f#5 v=0
202800 On ch=1 n=a5 v=0
202800 On ch=1 n=e5 v=102
202800 On ch=1 n=g5 v=102
202920 On ch=1 n=e5 v=0
202920 On ch=1 n=g5 v=0
202920 On ch=1 n=d5 v=102
202920 On ch=1 n=f#5 v=102
203040 On ch=1 n=d5 v=0
203040 On ch=1 n=f#5 v=0
203040 On ch=1 n=d5 v=102
203040 On ch=1 n=f#5 v=102
203160 On ch=1 n=d5 v=0
203160 On ch=1 n=f#5 v=0
203160 On ch=1 n=a4 v=102
203160 On ch=1 n=e5 v=102
203280 On ch=1 n=a4 v=0
203280 On ch=1 n=e5 v=0
203280 On ch=1 n=e5 v=102
203280 On ch=1 n=a4 v=102
203400 On ch=1 n=e5 v=0
203400 On ch=1 n=a4 v=0
203400 Par ch=1 c=64 v=127
203400 On ch=1 n=a3 v=102
203520 On ch=1 n=a3 v=0
203520 On ch=1 n=e5 v=102
203520 On ch=1 n=c#5 v=102
203520 On ch=1 n=a4 v=102
203520 On ch=1 n=g4 v=102
203640 On ch=1 n=e5 v=0
203640 On ch=1 n=c#5 v=0
203640 On ch=1 n=a4 v=0
203640 On ch=1 n=g4 v=0
203640 On ch=1 n=e5 v=102
203640 On ch=1 n=c#5 v=102
203640 On ch=1 n=a4 v=102
203640 On ch=1 n=g4 v=102
203700 Par ch=1 c=64 v=0
203760 On ch=1 n=e5 v=0
203760 On ch=1 n=c#5 v=0
203760 On ch=1 n=a4 v=0
203760 On ch=1 n=g4 v=0
203760 On ch=1 n=a3 v=90
203880 On ch=1 n=a3 v=0
203880 On ch=1 n=e5 v=90
203880 On ch=1 n=c#5 v=90
203880 On ch=1 n=a4 v=90
204000 On ch=1 n=e5 v=0
204000 On ch=1 n=c#5 v=0
204000 On ch=1 n=a4 v=0
204000 On ch=1 n=g4 v=90
204000 On ch=1 n=c#5 v=90
204000 On ch=1 n=e5 v=90
204120 On ch=1 n=g4 v=0
204120 On ch=1 n=c#5 v=0
204120 On ch=1 n=e5 v=0
204120 On ch=1 n=a#3 v=90
204240 On ch=1 n=a#3 v=0
204240 On ch=1 n=e5 v=90
204240 On ch=1 n=c#5 v=90
204240 On ch=1 n=f#4 v=90
204360 On ch=1 n=e5 v=0
204360 On ch=1 n=c#5 v=0
204360 On ch=1 n=f#4 v=0
204360 On ch=1 n=f#4 v=90
204360 On ch=1 n=c#5 v=90
204360 On ch=1 n=e5 v=90
204480 On ch=1 n=f#4 v=0
204480 On ch=1 n=c#5 v=0
204480 On ch=1 n=e5 v=0
204480 On ch=1 n=b3 v=90
204600 On ch=1 n=b3 v=0
204600 On ch=1 n=c#5 v=90
204600 On ch=1 n=b4 v=90
204600 On ch=1 n=f#4 v=90
204720 On ch=1 n=c#5 v=0
204720 On ch=1 n=b4 v=0
204720 On ch=1 n=f#4 v=0
204720 On ch=1 n=d5 v=90
204720 On ch=1 n=b4 v=90
204720 On ch=1 n=f#4 v=90
204840 On ch=1 n=d5 v=0
204840 On ch=1 n=b4 v=0
204840 On ch=1 n=f#4 v=0
204840 On ch=1 n=f#3 v=90
204960 On ch=1 n=c#5 v=90
204960 On ch=1 n=a4 v=90
205080 On ch=1 n=f#3 v=0
205080 On ch=1 n=f#4 v=90
205200 On ch=1 n=c#5 v=0
205200 On ch=1 n=a4 v=0
205200 On ch=1 n=f#4 v=0
205200 On ch=1 n=g4 v=90
205320 On ch=1 n=g4 v=0
205320 On ch=1 n=b4 v=90
205320 On ch=1 n=e5 v=90
205440 On ch=1 n=b4 v=0
205440 On ch=1 n=a#4 v=90
205560 On ch=1 n=e5 v=0
205560 On ch=1 n=a#4 v=0
205560 On ch=1 n=a4 v=90
205680 On ch=1 n=e5 v=90
205680 On ch=1 n=c#5 v=90
205800 On ch=1 n=a4 v=0
205800 On ch=1 n=g4 v=90
205920 On ch=1 n=e5 v=0
205920 On ch=1 n=c#5 v=0
205920 On ch=1 n=g4 v=0
205920 On ch=1 n=d5 v=102
205920 On ch=1 n=f#4 v=102
205920 On ch=1 n=d4 v=102
206100 On ch=1 n=d5 v=0
206100 On ch=1 n=f#4 v=0
206100 On ch=1 n=d4 v=0
206100 On ch=1 n=f#4 v=102
206100 On ch=1 n=d5 v=102
206160 On ch=1 n=f#4 v=0
206160 On ch=1 n=d5 v=0
206160 On ch=1 n=f#4 v=102
206160 On ch=1 n=d5 v=102
206280 On ch=1 n=f#4 v=0
206280 On ch=1 n=d5 v=0
206280 On ch=1 n=d5 v=102
206280 On ch=1 n=f#4 v=102
206400 On ch=1 n=d5 v=0
206400 On ch=1 n=f#4 v=0
206400 On ch=1 n=a4 v=102
206400 On ch=1 n=e5 v=102
206520 On ch=1 n=a4 v=0
206520 On ch=1 n=e5 v=0
206520 On ch=1 n=d5 v=102
206520 On ch=1 n=f#5 v=102
206640 On ch=1 n=d5 v=0
206640 On ch=1 n=f#5 v=0
206640 On ch=1 n=d5 v=102
206640 On ch=1 n=f#5 v=102
206760 On ch=1 n=d5 v=0
206760 On ch=1 n=f#5 v=0
206760 On ch=1 n=a4 v=102
206760 On ch=1 n=e5 v=102
206880 On ch=1 n=a4 v=0
206880 On ch=1 n=e5 v=0
206880 On ch=1 n=a4 v=102
206880 On ch=1 n=e5 v=102
207000 On ch=1 n=a4 v=0
207000 On ch=1 n=e5 v=0
207000 On ch=1 n=a4 v=102
207000 On ch=1 n=e5 v=102
207240 On ch=1 n=a4 v=0
207240 On ch=1 n=e5 v=0
207240 On ch=1 n=a4 v=102
207240 On ch=1 n=e5 v=102
207360 On ch=1 n=a4 v=0
207360 On ch=1 n=e5 v=0
207360 On ch=1 n=d5 v=102
207360 On ch=1 n=f#5 v=102
207540 On ch=1 n=d5 v=0
207540 On ch=1 n=f#5 v=0
207540 On ch=1 n=e5 v=102
207540 On ch=1 n=g5 v=102
207600 On ch=1 n=e5 v=0
207600 On ch=1 n=g5 v=0
207600 On ch=1 n=f#5 v=102
207600 On ch=1 n=a5 v=102
207720 On ch=1 n=f#5 v=0
207720 On ch=1 n=a5 v=0
207720 On ch=1 n=f#5 v=102
207720 On ch=1 n=a5 v=102
207840 On ch=1 n=f#5 v=0
207840 On ch=1 n=a5 v=0
207840 On ch=1 n=e5 v=102
207840 On ch=1 n=g5 v=102
207960 On ch=1 n=e5 v=0
207960 On ch=1 n=g5 v=0
207960 On ch=1 n=d5 v=102
207960 On ch=1 n=f#5 v=102
208080 On ch=1 n=d5 v=0
208080 On ch=1 n=f#5 v=0
208080 On ch=1 n=d5 v=102
208080 On ch=1 n=f#5 v=102
208200 On ch=1 n=d5 v=0
208200 On ch=1 n=f#5 v=0
208200 On ch=1 n=a4 v=102
208200 On ch=1 n=e5 v=102
208320 On ch=1 n=a4 v=0
208320 On ch=1 n=e5 v=0
208320 On ch=1 n=a4 v=102
208320 On ch=1 n=e5 v=102
208440 On ch=1 n=a4 v=0
208440 On ch=1 n=e5 v=0
208440 On ch=1 n=a4 v=102
208440 On ch=1 n=e5 v=102
208680 On ch=1 n=a4 v=0
208680 On ch=1 n=e5 v=0
208680 On ch=1 n=a4 v=102
208800 On ch=1 n=a4 v=0
208800 On ch=1 n=d4 v=102
208800 On ch=1 n=f#4 v=102
208800 On ch=1 n=d5 v=102
208980 On ch=1 n=d4 v=0
208980 On ch=1 n=f#4 v=0
208980 On ch=1 n=d5 v=0
208980 On ch=1 n=f#4 v=102
208980 On ch=1 n=d5 v=102
209040 On ch=1 n=f#4 v=0
209040 On ch=1 n=d5 v=0
209040 On ch=1 n=f#4 v=102
209040 On ch=1 n=d5 v=102
209160 On ch=1 n=f#4 v=0
209160 On ch=1 n=d5 v=0
209160 On ch=1 n=f#4 v=102
209160 On ch=1 n=d5 v=102
209280 On ch=1 n=f#4 v=0
209280 On ch=1 n=d5 v=0
209280 On ch=1 n=e5 v=102
209280 On ch=1 n=a4 v=102
209400 On ch=1 n=e5 v=0
209400 On ch=1 n=a4 v=0
209400 On ch=1 n=d5 v=102
209400 On ch=1 n=f#5 v=102
209520 On ch=1 n=d5 v=0
209520 On ch=1 n=f#5 v=0
209520 On ch=1 n=f#5 v=102
209520 On ch=1 n=d5 v=102
209640 On ch=1 n=f#5 v=0
209640 On ch=1 n=d5 v=0
209640 On ch=1 n=a4 v=102
209640 On ch=1 n=e5 v=102
209760 On ch=1 n=a4 v=0
209760 On ch=1 n=e5 v=0
209760 On ch=1 n=g4 v=102
209760 On ch=1 n=e5 v=102
209880 On ch=1 n=g4 v=0
209880 On ch=1 n=e5 v=0
209880 Par ch=1 c=64 v=127
209880 On ch=1 n=a#3 v=108
210000 On ch=1 n=a#3 v=0
210000 On ch=1 n=c#5 v=102
210000 On ch=1 n=e5 v=102
210000 On ch=1 n=f#4 v=102
210120 On ch=1 n=c#5 v=0
210120 On ch=1 n=e5 v=0
210120 On ch=1 n=f#4 v=0
210120 On ch=1 n=e5 v=102
210120 On ch=1 n=c#5 v=102
210120 On ch=1 n=f#4 v=102
210180 Par ch=1 c=64 v=0
210240 On ch=1 n=e5 v=0
210240 On ch=1 n=c#5 v=0
210240 On ch=1 n=f#4 v=0
210240 On ch=1 n=b3 v=108
210360 On ch=1 n=b3 v=0
210360 On ch=1 n=c#5 v=102
210360 On ch=1 n=b4 v=102
210360 On ch=1 n=f#4 v=102
210480 On ch=1 n=c#5 v=0
210480 On ch=1 n=b4 v=0
210480 On ch=1 n=f#4 v=0
210480 On ch=1 n=d5 v=102
210480 On ch=1 n=b4 v=102
210480 On ch=1 n=f#4 v=102
210600 On ch=1 n=d5 v=0
210600 On ch=1 n=b4 v=0
210600 On ch=1 n=f#4 v=0
210600 On ch=1 n=f#3 v=108
210720 On ch=1 n=f#3 v=0
210720 On ch=1 n=c#5 v=102
210720 On ch=1 n=a4 v=102
210720 On ch=1 n=f#4 v=102
210840 On ch=1 n=c#5 v=0
210840 On ch=1 n=a4 v=0
210840 On ch=1 n=f#4 v=0
210840 On ch=1 n=f#4 v=102
210840 On ch=1 n=a4 v=102
210840 On ch=1 n=c#5 v=102
210960 On ch=1 n=f#4 v=0
210960 On ch=1 n=a4 v=0
210960 On ch=1 n=c#5 v=0
210960 On ch=1 n=g3 v=108
211080 On ch=1 n=g3 v=0
211080 On ch=1 n=e5 v=102
211080 On ch=1 n=b4 v=102
211080 On ch=1 n=g4 v=102
211200 On ch=1 n=e5 v=0
211200 On ch=1 n=b4 v=0
211200 On ch=1 n=g4 v=0
211200 On ch=1 n=g4 v=102
211200 On ch=1 n=b4 v=102
211200 On ch=1 n=d5 v=102
211320 On ch=1 n=g4 v=0
211320 On ch=1 n=b4 v=0
211320 On ch=1 n=d5 v=0
211320 On ch=1 n=a3 v=108
211440 On ch=1 n=a3 v=0
211440 On ch=1 n=e5 v=102
211440 On ch=1 n=c#5 v=102
211440 On ch=1 n=a4 v=102
211560 On ch=1 n=e5 v=0
211560 On ch=1 n=c#5 v=0
211560 On ch=1 n=a4 v=0
211560 On ch=1 n=g4 v=102
211560 On ch=1 n=c#5 v=102
211560 On ch=1 n=e5 v=102
211680 On ch=1 n=g4 v=0
211680 On ch=1 n=c#5 v=0
211680 On ch=1 n=e5 v=0
211680 Par ch=1 c=64 v=127
211680 On ch=1 n=d3 v=120
211860 On ch=1 n=d5 v=102
211860 On ch=1 n=f#4 v=102
211920 On ch=1 n=d5 v=0
211920 On ch=1 n=f#4 v=0
211920 On ch=1 n=d5 v=102
211920 On ch=1 n=f#4 v=102
212040 On ch=1 n=d5 v=0
212040 On ch=1 n=f#4 v=0
212040 On ch=1 n=d5 v=102
212040 On ch=1 n=f#4 v=102
212160 On ch=1 n=d5 v=0
212160 On ch=1 n=f#4 v=0
212160 On ch=1 n=a4 v=102
212160 On ch=1 n=e5 v=102
212280 On ch=1 n=a4 v=0
212280 On ch=1 n=e5 v=0
212280 On ch=1 n=d5 v=102
212280 On ch=1 n=f#5 v=102
212400 On ch=1 n=d5 v=0
212400 On ch=1 n=f#5 v=0
212400 On ch=1 n=d5 v=102
212400 On ch=1 n=f#5 v=102
212520 On ch=1 n=d5 v=0
212520 On ch=1 n=f#5 v=0
212520 On ch=1 n=a4 v=102
212520 On ch=1 n=e5 v=102
212640 On ch=1 n=a4 v=0
212640 On ch=1 n=e5 v=0
212640 On ch=1 n=e5 v=102
212640 On ch=1 n=a4 v=102
212760 On ch=1 n=e5 v=0
212760 On ch=1 n=a4 v=0
212760 On ch=1 n=a4 v=108
212760 On ch=1 n=e5 v=108
213000 On ch=1 n=a4 v=0
213000 On ch=1 n=e5 v=0
213000 On ch=1 n=e5 v=102
213000 On ch=1 n=a4 v=102
213120 On ch=1 n=e5 v=0
213120 On ch=1 n=a4 v=0
213120 On ch=1 n=d5 v=102
213120 On ch=1 n=f#5 v=102
213300 On ch=1 n=d5 v=0
213300 On ch=1 n=f#5 v=0
213300 On ch=1 n=g5 v=102
213300 On ch=1 n=e5 v=102
213360 On ch=1 n=g5 v=0
213360 On ch=1 n=e5 v=0
213360 On ch=1 n=a5 v=102
213360 On ch=1 n=f#5 v=102
213480 On ch=1 n=a5 v=0
213480 On ch=1 n=f#5 v=0
213480 On ch=1 n=a5 v=102
213480 On ch=1 n=f#5 v=102
213600 On ch=1 n=a5 v=0
213600 On ch=1 n=f#5 v=0
213600 On ch=1 n=g5 v=102
213600 On ch=1 n=e5 v=102
213720 On ch=1 n=g5 v=0
213720 On ch=1 n=e5 v=0
213720 On ch=1 n=f#5 v=102
213720 On ch=1 n=d5 v=102
213840 On ch=1 n=f#5 v=0
213840 On ch=1 n=d5 v=0
213840 On ch=1 n=f#5 v=102
213840 On ch=1 n=d5 v=102
213960 On ch=1 n=f#5 v=0
213960 On ch=1 n=d5 v=0
213960 On ch=1 n=a4 v=102
213960 On ch=1 n=e5 v=102
214080 On ch=1 n=a4 v=0
214080 On ch=1 n=e5 v=0
214080 On ch=1 n=a4 v=102
214080 On ch=1 n=e5 v=102
214200 On ch=1 n=a4 v=0
214200 On ch=1 n=e5 v=0
214200 On ch=1 n=a4 v=102
214200 On ch=1 n=e5 v=102
214440 On ch=1 n=a4 v=0
214440 On ch=1 n=e5 v=0
214440 On ch=1 n=a4 v=108
214560 On ch=1 n=a4 v=0
214560 On ch=1 n=d5 v=102
214560 On ch=1 n=f#4 v=102
214560 On ch=1 n=d4 v=102
214740 On ch=1 n=d5 v=0
214740 On ch=1 n=f#4 v=0
214740 On ch=1 n=d4 v=0
214740 On ch=1 n=f#4 v=102
214740 On ch=1 n=d5 v=102
214800 On ch=1 n=f#4 v=0
214800 On ch=1 n=d5 v=0
214800 On ch=1 n=f#4 v=102
214800 On ch=1 n=d5 v=102
214920 On ch=1 n=f#4 v=0
214920 On ch=1 n=d5 v=0
214920 On ch=1 n=f#4 v=102
214920 On ch=1 n=d5 v=102
215040 On ch=1 n=f#4 v=0
215040 On ch=1 n=d5 v=0
215040 On ch=1 n=e5 v=102
215040 On ch=1 n=a4 v=102
215160 On ch=1 n=e5 v=0
215160 On ch=1 n=a4 v=0
215160 On ch=1 n=d5 v=102
215160 On ch=1 n=f#5 v=102
215280 On ch=1 n=d5 v=0
215280 On ch=1 n=f#5 v=0
215280 On ch=1 n=d5 v=102
215280 On ch=1 n=f#5 v=102
215400 On ch=1 n=d5 v=0
215400 On ch=1 n=f#5 v=0
215400 On ch=1 n=a4 v=102
215400 On ch=1 n=e5 v=102
215520 On ch=1 n=a4 v=0
215520 On ch=1 n=e5 v=0
215520 On ch=1 n=a4 v=102
215520 On ch=1 n=e5 v=102
215640 On ch=1 n=a4 v=0
215640 On ch=1 n=e5 v=0
215640 On ch=1 n=a4 v=102
215640 On ch=1 n=e5 v=102
215880 On ch=1 n=a4 v=0
215880 On ch=1 n=e5 v=0
215880 On ch=1 n=a4 v=102
215880 On ch=1 n=e5 v=102
216000 On ch=1 n=a4 v=0
216000 On ch=1 n=e5 v=0
216000 On ch=1 n=d5 v=102
216000 On ch=1 n=f#5 v=102
216240 On ch=1 n=d5 v=0
216240 On ch=1 n=f#5 v=0
216240 On ch=1 n=f#5 v=102
216240 On ch=1 n=a5 v=102
216360 On ch=1 n=f#5 v=0
216360 On ch=1 n=a5 v=0
216360 On ch=1 n=f#5 v=102
216360 On ch=1 n=a5 v=102
216480 On ch=1 n=f#5 v=0
216480 On ch=1 n=a5 v=0
216480 On ch=1 n=e5 v=102
216480 On ch=1 n=g5 v=102
216600 On ch=1 n=e5 v=0
216600 On ch=1 n=g5 v=0
216600 On ch=1 n=d5 v=102
216600 On ch=1 n=f#5 v=102
216720 On ch=1 n=d5 v=0
216720 On ch=1 n=f#5 v=0
216720 On ch=1 n=d5 v=102
216720 On ch=1 n=f#5 v=102
216840 On ch=1 n=d5 v=0
216840 On ch=1 n=f#5 v=0
216840 On ch=1 n=a4 v=102
216840 On ch=1 n=e5 v=102
216960 On ch=1 n=a4 v=0
216960 On ch=1 n=e5 v=0
216960 On ch=1 n=a4 v=102
216960 On ch=1 n=e5 v=102
217080 On ch=1 n=a4 v=0
217080 On ch=1 n=e5 v=0
217080 On ch=1 n=a4 v=102
217080 On ch=1 n=e5 v=102
217320 On ch=1 n=a4 v=0
217320 On ch=1 n=e5 v=0
217320 On ch=1 n=a4 v=108
217440 On ch=1 n=a4 v=0
217440 On ch=1 n=d5 v=102
217440 On ch=1 n=f#4 v=101
217440 On ch=1 n=d4 v=100
217620 On ch=1 n=d5 v=0
217620 On ch=1 n=f#4 v=0
217620 On ch=1 n=d4 v=0
217620 On ch=1 n=f#4 v=99
217620 On ch=1 n=d5 v=98
217680 On ch=1 n=f#4 v=0
217680 On ch=1 n=d5 v=0
217680 On ch=1 n=f#4 v=97
217680 On ch=1 n=d5 v=97
217800 On ch=1 n=f#4 v=0
217800 On ch=1 n=d5 v=0
217800 On ch=1 n=f#4 v=97
217800 On ch=1 n=d5 v=97
217920 On ch=1 n=f#4 v=0
217920 On ch=1 n=d5 v=0
217920 On ch=1 n=e5 v=97
217920 On ch=1 n=a4 v=97
218040 On ch=1 n=e5 v=0
218040 On ch=1 n=a4 v=0
218040 On ch=1 n=d5 v=97
218040 On ch=1 n=f#5 v=97
218160 On ch=1 n=d5 v=0
218160 On ch=1 n=f#5 v=0
218160 On ch=1 n=d5 v=91
218160 On ch=1 n=f#5 v=91
218280 On ch=1 n=d5 v=0
218280 On ch=1 n=f#5 v=0
218280 On ch=1 n=a4 v=91
218280 On ch=1 n=e5 v=91
218400 On ch=1 n=a4 v=0
218400 On ch=1 n=e5 v=0
218400 On ch=1 n=a4 v=91
218400 On ch=1 n=e5 v=91
218520 On ch=1 n=a4 v=0
218520 On ch=1 n=e5 v=0
218520 On ch=1 n=a4 v=86
218520 On ch=1 n=e5 v=86
218760 On ch=1 n=a4 v=0
218760 On ch=1 n=e5 v=0
218760 On ch=1 n=a4 v=86
218760 On ch=1 n=e5 v=86
218880 On ch=1 n=a4 v=0
218880 On ch=1 n=e5 v=0
218880 On ch=1 n=d5 v=81
218880 On ch=1 n=f#5 v=81
219060 On ch=1 n=d5 v=0
219060 On ch=1 n=f#5 v=0
219060 On ch=1 n=e5 v=81
219060 On ch=1 n=g5 v=81
219120 On ch=1 n=e5 v=0
219120 On ch=1 n=g5 v=0
219120 On ch=1 n=f#5 v=81
219120 On ch=1 n=a5 v=81
219240 On ch=1 n=f#5 v=0
219240 On ch=1 n=a5 v=0
219240 On ch=1 n=f#5 v=75
219240 On ch=1 n=a5 v=75
219360 On ch=1 n=f#5 v=0
219360 On ch=1 n=a5 v=0
219360 On ch=1 n=e5 v=75
219360 On ch=1 n=g5 v=75
219480 On ch=1 n=e5 v=0
219480 On ch=1 n=g5 v=0
219480 On ch=1 n=d5 v=75
219480 On ch=1 n=f#5 v=75
219600 On ch=1 n=d5 v=0
219600 On ch=1 n=f#5 v=0
219720 On ch=1 n=a4 v=70
219720 On ch=1 n=e5 v=70
219840 On ch=1 n=a4 v=0
219840 On ch=1 n=e5 v=0
219840 On ch=1 n=a4 v=70
219840 On ch=1 n=e5 v=70
219960 On ch=1 n=d3 v=0
219960 On ch=1 n=a4 v=0
219960 On ch=1 n=e5 v=0
220080 On ch=1 n=a4 v=65
220080 On ch=1 n=e5 v=65
220200 On ch=1 n=a4 v=0
220200 On ch=1 n=e5 v=0
220200 On ch=1 n=a4 v=65
220200 On ch=1 n=e5 v=65
220320 On ch=1 n=a4 v=0
220320 On ch=1 n=e5 v=0
220440 On ch=1 n=f#4 v=59
220440 On ch=1 n=d5 v=59
220560 On ch=1 n=f#4 v=0
220560 On ch=1 n=d5 v=0
220560 On ch=1 n=f#4 v=59
220560 On ch=1 n=d5 v=59
220680 On ch=1 n=f#4 v=0
220680 On ch=1 n=d5 v=0
220800 On ch=1 n=d5 v=53
220800 On ch=1 n=f#4 v=53
220920 On ch=1 n=d5 v=0
220920 On ch=1 n=f#4 v=0
220920 On ch=1 n=d5 v=53
220920 On ch=1 n=f#4 v=53
221040 On ch=1 n=d5 v=0
221040 On ch=1 n=f#4 v=0
221280 Par ch=1 c=64 v=0
221880 On ch=1 n=a4 v=65
221880 On ch=1 n=f#4 v=65
221880 On ch=1 n=d4 v=65
221880 On ch=1 n=c4 v=65
221940 On ch=1 n=a4 v=0
221940 On ch=1 n=f#4 v=0
221940 On ch=1 n=d4 v=0
221940 On ch=1 n=c4 v=0
222000 On ch=1 n=c4 v=65
222000 On ch=1 n=d4 v=65
222000 On ch=1 n=f#4 v=65
222000 On ch=1 n=a4 v=65
222060 On ch=1 n=c4 v=0
222060 On ch=1 n=d4 v=0
222060 On ch=1 n=f#4 v=0
222060 On ch=1 n=a4 v=0
222240 On ch=1 n=b4 v=65
222240 On ch=1 n=g4 v=65
222240 On ch=1 n=d4 v=65
222240 On ch=1 n=b3 v=65
222300 On ch=1 n=b4 v=0
222300 On ch=1 n=g4 v=0
222300 On ch=1 n=d4 v=0
222300 On ch=1 n=b3 v=0
222360 On ch=1 n=d4 v=65
222360 On ch=1 n=b3 v=65
222360 On ch=1 n=g4 v=65
222360 On ch=1 n=b4 v=65
222420 On ch=1 n=d4 v=0
222420 On ch=1 n=b3 v=0
222420 On ch=1 n=g4 v=0
222420 On ch=1 n=b4 v=0
222600 On ch=1 n=c5 v=65
222600 On ch=1 n=f#4 v=65
222600 On ch=1 n=d4 v=65
222600 On ch=1 n=a3 v=65
222660 On ch=1 n=c5 v=0
222660 On ch=1 n=f#4 v=0
222660 On ch=1 n=d4 v=0
222660 On ch=1 n=a3 v=0
222720 On ch=1 n=a3 v=65
222720 On ch=1 n=d4 v=65
222720 On ch=1 n=f#4 v=65
222720 On ch=1 n=c5 v=65
222780 On ch=1 n=a3 v=0
222780 On ch=1 n=d4 v=0
222780 On ch=1 n=f#4 v=0
222780 On ch=1 n=c5 v=0
222960 On ch=1 n=b4 v=65
222960 On ch=1 n=g4 v=65
222960 On ch=1 n=d4 v=65
222960 On ch=1 n=g3 v=65
223020 On ch=1 n=b4 v=0
223020 On ch=1 n=g4 v=0
223020 On ch=1 n=d4 v=0
223020 On ch=1 n=g3 v=0
223080 On ch=1 n=g3 v=65
223080 On ch=1 n=d4 v=65
223080 On ch=1 n=g4 v=65
223080 On ch=1 n=b4 v=65
223140 On ch=1 n=g3 v=0
223140 On ch=1 n=d4 v=0
223140 On ch=1 n=g4 v=0
223140 On ch=1 n=b4 v=0
223320 On ch=1 n=c#5 v=65
223320 On ch=1 n=a#4 v=65
223320 On ch=1 n=f#4 v=65
223320 On ch=1 n=e4 v=65
223380 On ch=1 n=c#5 v=0
223380 On ch=1 n=a#4 v=0
223380 On ch=1 n=f#4 v=0
223380 On ch=1 n=e4 v=0
223440 On ch=1 n=e4 v=65
223440 On ch=1 n=f#4 v=65
223440 On ch=1 n=a#4 v=65
223440 On ch=1 n=c#5 v=65
223500 On ch=1 n=e4 v=0
223500 On ch=1 n=f#4 v=0
223500 On ch=1 n=a#4 v=0
223500 On ch=1 n=c#5 v=0
223680 On ch=1 n=d5 v=65
223680 On ch=1 n=b4 v=65
223680 On ch=1 n=f#4 v=65
223680 On ch=1 n=d4 v=65
223740 On ch=1 n=d5 v=0
223740 On ch=1 n=b4 v=0
223740 On ch=1 n=f#4 v=0
223740 On ch=1 n=d4 v=0
223800 On ch=1 n=d4 v=65
223800 On ch=1 n=f#4 v=65
223800 On ch=1 n=d5 v=65
223800 On ch=1 n=b4 v=65
223860 On ch=1 n=d4 v=0
223860 On ch=1 n=f#4 v=0
223860 On ch=1 n=d5 v=0
223860 On ch=1 n=b4 v=0
224040 On ch=1 n=e5 v=65
224040 On ch=1 n=a#4 v=65
224040 On ch=1 n=f#4 v=65
224040 On ch=1 n=c#4 v=65
224100 On ch=1 n=e5 v=0
224100 On ch=1 n=a#4 v=0
224100 On ch=1 n=f#4 v=0
224100 On ch=1 n=c#4 v=0
224160 On ch=1 n=c#4 v=65
224160 On ch=1 n=f#4 v=65
224160 On ch=1 n=a#4 v=65
224160 On ch=1 n=e5 v=65
224220 On ch=1 n=c#4 v=0
224220 On ch=1 n=f#4 v=0
224220 On ch=1 n=a#4 v=0
224220 On ch=1 n=e5 v=0
224400 On ch=1 n=d5 v=65
224400 On ch=1 n=b4 v=65
224400 On ch=1 n=f#4 v=65
224400 On ch=1 n=b3 v=65
224460 On ch=1 n=d5 v=0
224460 On ch=1 n=b4 v=0
224460 On ch=1 n=f#4 v=0
224460 On ch=1 n=b3 v=0
224520 On ch=1 n=b3 v=65
224520 On ch=1 n=f#4 v=65
224520 On ch=1 n=d5 v=65
224520 On ch=1 n=b4 v=65
224580 On ch=1 n=b3 v=0
224580 On ch=1 n=f#4 v=0
224580 On ch=1 n=d5 v=0
224580 On ch=1 n=b4 v=0
224760 On ch=1 n=e5 v=65
224760 On ch=1 n=c#5 v=65
224760 On ch=1 n=a4 v=65
224760 On ch=1 n=g4 v=65
224820 On ch=1 n=e5 v=0
224820 On ch=1 n=c#5 v=0
224820 On ch=1 n=a4 v=0
224820 On ch=1 n=g4 v=0
224880 On ch=1 n=c#5 v=65
224880 On ch=1 n=e5 v=65
224880 On ch=1 n=a4 v=65
224880 On ch=1 n=g4 v=65
224940 On ch=1 n=c#5 v=0
224940 On ch=1 n=e5 v=0
224940 On ch=1 n=a4 v=0
224940 On ch=1 n=g4 v=0
225120 On ch=1 n=d5 v=65
225120 On ch=1 n=f#5 v=65
225120 On ch=1 n=a4 v=65
225120 On ch=1 n=f#4 v=65
225180 On ch=1 n=d5 v=0
225180 On ch=1 n=f#5 v=0
225180 On ch=1 n=a4 v=0
225180 On ch=1 n=f#4 v=0
225240 On ch=1 n=f#5 v=65
225240 On ch=1 n=d5 v=65
225240 On ch=1 n=f#4 v=65
225240 On ch=1 n=a4 v=65
225300 On ch=1 n=f#5 v=0
225300 On ch=1 n=d5 v=0
225300 On ch=1 n=f#4 v=0
225300 On ch=1 n=a4 v=0
225480 On ch=1 n=e4 v=53
225480 On ch=1 n=a4 v=53
225480 On ch=1 n=c#5 v=53
225480 On ch=1 n=g5 v=53
225540 On ch=1 n=e4 v=0
225540 On ch=1 n=a4 v=0
225540 On ch=1 n=c#5 v=0
225540 On ch=1 n=g5 v=0
225600 On ch=1 n=a4 v=53
225600 On ch=1 n=e4 v=53
225600 On ch=1 n=c#5 v=53
225600 On ch=1 n=g5 v=53
225660 On ch=1 n=a4 v=0
225660 On ch=1 n=e4 v=0
225660 On ch=1 n=c#5 v=0
225660 On ch=1 n=g5 v=0
225840 On ch=1 n=d5 v=53
225840 On ch=1 n=f#5 v=53
225840 On ch=1 n=d4 v=53
225840 On ch=1 n=a4 v=53
225900 On ch=1 n=d5 v=0
225900 On ch=1 n=f#5 v=0
225900 On ch=1 n=d4 v=0
225900 On ch=1 n=a4 v=0
225960 On ch=1 n=f#5 v=53
225960 On ch=1 n=d5 v=53
225960 On ch=1 n=a4 v=53
225960 On ch=1 n=d4 v=53
226020 On ch=1 n=f#5 v=0
226020 On ch=1 n=d5 v=0
226020 On ch=1 n=a4 v=0
226020 On ch=1 n=d4 v=0
226200 On ch=1 n=a3 v=53
226200 On ch=1 n=e4 v=53
226200 On ch=1 n=g5 v=53
226200 On ch=1 n=c#5 v=53
226320 On ch=1 n=a3 v=0
226320 On ch=1 n=e4 v=0
226320 On ch=1 n=g5 v=0
226320 On ch=1 n=c#5 v=0
226320 On ch=1 n=a3 v=53
226320 On ch=1 n=e4 v=53
226320 On ch=1 n=c#5 v=53
226320 On ch=1 n=g5 v=53
226440 On ch=1 n=a3 v=0
226440 On ch=1 n=e4 v=0
226440 On ch=1 n=c#5 v=0
226440 On ch=1 n=g5 v=0
226560 On ch=1 n=d3 v=53
226560 On ch=1 n=a3 v=53
226560 On ch=1 n=d5 v=53
226560 On ch=1 n=f#5 v=53
226680 On ch=1 n=d3 v=0
226680 On ch=1 n=a3 v=0
226680 On ch=1 n=d5 v=0
226680 On ch=1 n=f#5 v=0
226680 On ch=1 n=a3 v=53
226680 On ch=1 n=d3 v=53
226680 On ch=1 n=d5 v=53
226680 On ch=1 n=f#5 v=53
226800 On ch=1 n=a3 v=0
226800 On ch=1 n=d3 v=0
226800 On ch=1 n=d5 v=0
226800 On ch=1 n=f#5 v=0
226920 On ch=1 n=c#5 v=53
226920 On ch=1 n=g5 v=53
226920 On ch=1 n=a2 v=53
226920 On ch=1 n=e3 v=53
227040 On ch=1 n=c#5 v=0
227040 On ch=1 n=g5 v=0
227040 On ch=1 n=a2 v=0
227040 On ch=1 n=e3 v=0
227040 On ch=1 n=c#5 v=53
227040 On ch=1 n=g5 v=53
227040 On ch=1 n=a2 v=53
227040 On ch=1 n=e3 v=53
227160 On ch=1 n=c#5 v=0
227160 On ch=1 n=g5 v=0
227160 On ch=1 n=a2 v=0
227160 On ch=1 n=e3 v=0
227400 On ch=1 n=a3 v=40
227460 On ch=1 n=e4 v=40
227520 On ch=1 n=a4 v=40
227580 On ch=1 n=c#5 v=40
227640 On ch=1 n=e5 v=40
227700 On ch=1 n=g5 v=40
227760 On ch=1 n=a5 v=40
227880 On ch=1 n=a3 v=0
228000 On ch=1 n=e4 v=0
228120 On ch=1 n=a4 v=0
228240 On ch=1 n=c#5 v=0
228360 On ch=1 n=e5 v=0
228480 On ch=1 n=g5 v=0
228720 On ch=1 n=a2 v=40
228780 On ch=1 n=a2 v=0
228840 On ch=1 n=a2 v=40
228900 On ch=1 n=a2 v=0
228960 On ch=1 n=a5 v=0
228960 On ch=1 n=d3 v=40
228960 On ch=1 n=d5 v=40
228960 On ch=1 n=f#4 v=40
228990 On ch=1 n=d3 v=0
228990 On ch=1 n=d5 v=0
228990 On ch=1 n=f#4 v=0
229080 On ch=1 n=c#6 v=0
229200 On ch=1 n=c#6 v=0
229200 Meta TrkEnd
TrkEnd
