MFile 1 4 480
MTrk
0 Tempo 750000
0 TimeSig 4/4 24 8
0 KeySig 0 major
1440 Tempo 857142
1920 Tempo 681818
2880 Tempo 612244
3360 Tempo 545454
3840 Tempo 571428
5760 Tempo 631578
6720 Tempo 705882
7680 Tempo 800000
8640 Tempo 750000
9600 Tempo 618556
10560 Tempo 571428
12480 Tempo 666666
13440 Tempo 705882
14880 Tempo 750000
15360 Tempo 800000
15840 Tempo 857142
16080 Tempo 1200000
16560 Tempo 750000
18240 Tempo 666666
20160 Tempo 631578
22080 Tempo 600000
24000 Tempo 631578
24960 Tempo 705882
26880 Tempo 857142
27360 Tempo 1000000
27600 Tempo 1200000
27840 Tempo 857142
28080 Tempo 800000
28320 Tempo 750000
28800 Tempo 705882
29760 Tempo 666666
31680 Tempo 857142
32160 Tempo 923076
32640 Tempo 1090909
32880 Tempo 923076
33600 Tempo 857142
33840 Tempo 800000
34080 Tempo 750000
35520 Tempo 857142
36000 Tempo 923076
36480 Tempo 1090909
36720 Tempo 923076
37440 Tempo 857142
37680 Tempo 800000
37920 Tempo 750000
38400 Tempo 857142
38640 Tempo 923076
38880 Tempo 1000000
39840 Tempo 1090909
40320 Tempo 800000
41280 Tempo 705882
42720 Tempo 666666
44160 Tempo 750000
46080 Tempo 857142
47040 Tempo 750000
48000 Tempo 666666
48960 Tempo 631578
49920 Tempo 666666
51840 Tempo 705882
53280 Tempo 750000
53760 Tempo 800000
54240 Tempo 857142
54480 Tempo 1200000
54720 Tempo 923076
55200 Tempo 800000
55680 Tempo 705882
59520 Tempo 705882
61440 Tempo 750000
62640 Tempo 800000
63360 Tempo 857142
64560 Tempo 800000
65280 Tempo 1000000
65760 Tempo 1090909
66240 Tempo 1200000
66960 Tempo 1333333
67200 Tempo 1090909
67920 Tempo 1276595
68640 Tempo 1500000
68880 Tempo 2000000
69120 Tempo 1090909
71040 Tempo 434782
71040 TimeSig 2/4 24 8
124800 Tempo 1071428
125280 Tempo 357142
146880 Tempo 379746
147120 Tempo 405405
147360 Tempo 434782
147840 Tempo 508474
149280 Tempo 508474
149760 Tempo 451127
151680 Tempo 468750
159360 Tempo 487804
160320 Tempo 582524
161280 Tempo 530973
162240 Tempo 508474
164160 Tempo 337078
229440 Tempo 368098
230400 Tempo 405405
231360 Tempo 451127
232160 Tempo 1034482
232320 Tempo 434782
273120 Tempo 465116
273600 Tempo 500000
274560 Tempo 540540
276480 Tempo 681818
277920 Tempo 857142
278160 Tempo 1333333
278400 Tempo 750000
278400 TimeSig 4/4 24 8
279360 Tempo 600000
280320 Tempo 571428
281280 Tempo 545454
282240 Tempo 666666
283200 Tempo 750000
284160 Tempo 857142
285120 Tempo 750000
285600 Tempo 666666
286080 Tempo 600000
287040 Tempo 545454
288000 Tempo 600000
289920 Tempo 666666
290880 Tempo 705882
291360 Tempo 750000
291840 Tempo 800000
292320 Tempo 857142
292560 Tempo 1200000
292800 Tempo 857142
293760 Tempo 750000
294720 Tempo 857142
295680 Tempo 1000000
296640 Tempo 1200000
297480 Tempo 1333333
299520 Tempo 476190
299520 TimeSig 2/4 24 8
306600 Tempo 517241
306720 Tempo 625000
306960 Tempo 789473
307080 Tempo 2307692
307200 Tempo 476190
314280 Tempo 517241
314400 Tempo 625000
314640 Tempo 789473
314760 Tempo 1666666
314880 Tempo 476190
321600 Tempo 566037
321840 Tempo 625000
322080 Tempo 697674
322320 Tempo 789473
322440 Tempo 2307692
322560 Tempo 476190
328680 Tempo 666666
328800 Tempo 566037
329640 Tempo 789473
330000 Tempo 1071428
330240 Tempo 476190
343680 Tempo 458015
348480 Tempo 425531
368640 Tempo 410958
372480 Tempo 402684
383040 Tempo 394736
389760 Tempo 382165
396240 Tempo 437956
397440 Tempo 394736
409920 Tempo 833333
410880 Tempo 359281
492480 Tempo 382165
493440 Tempo 408163
494400 Tempo 472440
495360 Tempo 618556
495840 Tempo 833333
496320 Tempo 359281
510720 Tempo 408163
511680 Tempo 359281
523200 Tempo 408163
525120 Tempo 422535
526080 Tempo 437956
526800 Tempo 800000
527040 Tempo 571428
530880 Tempo 476190
537600 Tempo 566037
537840 Tempo 625000
538080 Tempo 697674
538320 Tempo 789473
538440 Tempo 2307692
538560 Tempo 476190
544680 Tempo 666666
544800 Tempo 566037
545640 Tempo 789473
546000 Tempo 1071428
546720 Tempo 441176
547200 Tempo 476190
548400 Tempo 566037
548760 Tempo 625000
548880 Tempo 789473
549120 Tempo 441176
551040 Tempo 476190
552240 Tempo 566037
552360 Tempo 566037
552600 Tempo 625000
552720 Tempo 789473
558720 Tempo 845070
559200 Tempo 1176470
560640 Tempo 1304347
561120 Tempo 1463414
561600 TimeSig 4/4 24 8
562560 Tempo 600000
568320 Tempo 705882
569040 Tempo 857142
569280 Tempo 705882
570720 Tempo 600000
576000 Tempo 705882
576720 Tempo 857142
576960 Tempo 666666
577440 Tempo 750000
577680 Tempo 631578
578880 Tempo 600000
585600 Tempo 705882
586080 Tempo 800000
586320 Tempo 967741
586560 Tempo 666666
587520 Tempo 600000
591360 Tempo 705882
592080 Tempo 857142
592320 Tempo 705882
593520 Tempo 600000
601440 Tempo 705882
601920 Tempo 600000
602400 Tempo 545454
603120 Tempo 600000
603840 Tempo 666666
604320 Tempo 750000
604800 Tempo 800000
605280 Tempo 666666
605760 Tempo 600000
606240 Tempo 545454
606960 Tempo 600000
607680 Tempo 666666
608160 Tempo 750000
608640 Tempo 800000
609120 Tempo 666666
609600 Tempo 600000
611520 Tempo 666666
612000 Tempo 750000
612480 Tempo 800000
612960 Tempo 666666
613440 Tempo 600000
615360 Tempo 666666
615840 Tempo 750000
616320 Tempo 857142
617040 Tempo 923076
617280 Tempo 666666
618240 Tempo 600000
631200 Tempo 750000
631440 Tempo 857142
632640 Tempo 476190
632640 TimeSig 2/4 24 8
695040 Tempo 740740
695232 Tempo 845070
695520 Tempo 600000
696000 Tempo 600000
696000 TimeSig 4/4 24 8
696960 Tempo 705882
697440 Tempo 800000
697680 Tempo 967741
697920 Tempo 666666
698880 Tempo 600000
702720 Tempo 705882
703440 Tempo 857142
703680 Tempo 705882
704880 Tempo 600000
712800 Tempo 705882
713280 Tempo 600000
713760 Tempo 545454
714480 Tempo 600000
715200 Tempo 666666
715680 Tempo 750000
716160 Tempo 800000
716640 Tempo 666666
717120 Tempo 600000
717600 Tempo 545454
718320 Tempo 600000
719040 Tempo 666666
719520 Tempo 750000
720000 Tempo 800000
720480 Tempo 666666
720960 Tempo 600000
722880 Tempo 666666
723360 Tempo 750000
723840 Tempo 800000
724320 Tempo 666666
724800 Tempo 600000
726720 Tempo 666666
727200 Tempo 750000
727680 Tempo 857142
728400 Tempo 923076
728640 Tempo 666666
729600 Tempo 600000
742560 Tempo 750000
742800 Tempo 923076
743520 Tempo 800000
744000 Tempo 666666
744960 Tempo 600000
745920 Tempo 666666
746880 Tempo 857142
747600 Tempo 1090909
747840 Tempo 1333333
748800 Tempo 625000
749760 Tempo 517241
751200 Tempo 476190
753120 Tempo 517241
754080 Tempo 476190
755520 Tempo 517241
756000 Tempo 566037
756720 Tempo 659340
756960 Tempo 845070
757200 Tempo 1935483
757440 Tempo 517241
758880 Tempo 476190
759360 Tempo 458015
759840 Tempo 517241
761280 Tempo 476190
762720 Tempo 517241
763680 Tempo 566037
764160 Tempo 625000
764640 Tempo 697674
765120 Tempo 517241
766080 Tempo 476190
768960 Tempo 517241
771360 Tempo 566037
772080 Tempo 625000
772320 Tempo 697674
772800 Tempo 517241
773520 Tempo 476190
774720 Tempo 458015
776160 Tempo 517241
779040 Tempo 594059
780480 Tempo 361445
794880 Tempo 441176
795360 Tempo 566037
795600 Tempo 517241
795840 Tempo 441176
796320 Tempo 458015
796800 Tempo 476190
797760 Tempo 458015
799200 Tempo 517241
802080 Tempo 566037
802800 Tempo 625000
803040 Tempo 697674
803520 Tempo 517241
804240 Tempo 476190
805440 Tempo 458015
806880 Tempo 517241
809760 Tempo 594059
810240 Tempo 659340
810480 Tempo 789473
810960 Tempo 983606
811200 Tempo 517241
812160 Tempo 476190
815040 Tempo 458015
817440 Tempo 540540
817920 Tempo 594059
818160 Tempo 659340
818640 Tempo 821917
818880 Tempo 517241
819840 Tempo 476190
822720 Tempo 458015
823440 Tempo 495867
823920 Tempo 540540
824640 Tempo 566037
825120 Tempo 594059
825600 Tempo 659340
826560 Tempo 517241
827520 Tempo 476190
828480 Tempo 458015
829920 Tempo 517241
832800 Tempo 566037
833520 Tempo 625000
833760 Tempo 697674
834240 Tempo 517241
834960 Tempo 476190
836160 Tempo 458015
837600 Tempo 517241
840480 Tempo 594059
840960 Tempo 659340
841200 Tempo 789473
841680 Tempo 983606
841920 Tempo 517241
854160 Tempo 566037
854640 Tempo 594059
855360 Tempo 625000
855840 Tempo 659340
857760 Tempo 697674
858720 Tempo 789473
859200 Tempo 1071428
861120 Tempo 394736
861120 TimeSig 2/4 24 8
921600 Tempo 422535
921840 Tempo 491803
922080 Tempo 731707
922320 Tempo 967741
922440 Tempo 1428571
922560 Tempo 394736
953280 Tempo 382165
974160 Tempo 1200000
974400 Tempo 352941
994560 Tempo 545454
995520 Tempo 652173
995520 TimeSig 4/4 24 8
1042800 Tempo 689655
1046640 Tempo 731707
1048560 Tempo 779220
1048800 Tempo 967741
1049280 Tempo 297029
1051200 Tempo 535714
1066560 Tempo 1071428
1067520 Tempo 535714
1073520 Tempo 588235
1073760 Tempo 618556
1074240 Tempo 689655
1074720 Tempo 731707
1074960 Tempo 895522
1075440 Tempo 535714
1112160 Tempo 618556
1112400 Tempo 689655
1112640 Tempo 652173
1113120 Tempo 618556
1115040 Tempo 731707
1115520 Tempo 779220
1116000 Tempo 833333
1116480 Tempo 535714
1120320 Tempo 472440
1122240 Tempo 535714
1125600 Tempo 618556
1125840 Tempo 689655
1126080 Tempo 535714
1127040 Tempo 512820
1129440 Tempo 618556
1129680 Tempo 689655
1129920 Tempo 588235
1131360 Tempo 833333
1131840 Tempo 731707
1133280 Tempo 618556
1136640 Tempo 1224489
1137120 Tempo 618556
1140720 Tempo 1764705
1140960 Tempo 535714
1144560 Tempo 1463414
1144800 Tempo 535714
1147200 Tempo 588235
1147680 Tempo 618556
1148160 Tempo 1463414
1148640 Tempo 535714
1150320 Tempo 588235
1150560 Tempo 652173
1151040 Tempo 689655
1151520 Tempo 731707
1152000 Tempo 3529411
1152240 Tempo 535714
1158000 Tempo 588235
1158240 Tempo 618556
1158720 Tempo 689655
1159200 Tempo 731707
1159440 Tempo 895522
1159920 Tempo 535714
1196640 Tempo 618556
1196880 Tempo 689655
1197120 Tempo 652173
1197600 Tempo 618556
1199520 Tempo 731707
1200000 Tempo 779220
1200480 Tempo 833333
1200960 Tempo 535714
1204800 Tempo 472440
1206720 Tempo 535714
1210080 Tempo 618556
1210320 Tempo 895522
1210560 Tempo 535714
1211520 Tempo 512820
1212480 Tempo 535714
1215360 Tempo 618556
1215840 Tempo 689655
1216080 Tempo 779220
1216320 Tempo 588235
1218240 Tempo 535714
1219680 Tempo 1071428
1220640 Tempo 535714
1222080 Tempo 588235
1222560 Tempo 652173
1223040 Tempo 731707
1223520 Tempo 1071428
1224480 Tempo 535714
1225920 Tempo 618556
1226400 Tempo 689655
1226880 Tempo 779220
1227360 Tempo 1071428
1227840 Tempo 382165
1250880 Tempo 731707
1250880 Meta TrkEnd
TrkEnd
MTrk
0 Meta TrkName "Piano - R Hand"
0 Meta 0x21 00
0 Meta 0x20 00
0 Par ch=1 c=10 v=64
0 PrCh ch=1 p=0
960 On ch=1 n=f#6 v=65
1200 On ch=1 n=a#5 v=47
1380 Off ch=1 n=a#5 v=80
1440 On ch=1 n=f#5 v=47
1620 Off ch=1 n=f#5 v=80
1680 On ch=1 n=a#4 v=47
1860 Off ch=1 n=a#4 v=80
1920 Off ch=1 n=f#6 v=80
1920 On ch=1 n=g6 v=65
2160 On ch=1 n=a#5 v=47
2340 Off ch=1 n=a#5 v=80
2400 On ch=1 n=g5 v=47
2580 Off ch=1 n=g5 v=80
2640 On ch=1 n=a#4 v=47
2820 Off ch=1 n=a#4 v=80
2880 Off ch=1 n=g6 v=80
2880 On ch=1 n=c6 v=65
3120 On ch=1 n=f5 v=47
3300 Off ch=1 n=f5 v=80
3360 On ch=1 n=c5 v=47
3540 Off ch=1 n=c5 v=80
3600 On ch=1 n=a4 v=53
3780 Off ch=1 n=a4 v=80
3840 Off ch=1 n=c6 v=80
3840 On ch=1 n=f6 v=77
4080 On ch=1 n=g#5 v=47
4260 Off ch=1 n=g#5 v=80
4320 On ch=1 n=f5 v=47
4500 Off ch=1 n=f5 v=80
4560 On ch=1 n=b4 v=47
4740 Off ch=1 n=b4 v=80
5040 On ch=1 n=g5 v=47
5220 Off ch=1 n=g5 v=80
5280 Off ch=1 n=f6 v=80
5280 On ch=1 n=d#6 v=90
5280 On ch=1 n=d#5 v=47
5460 Off ch=1 n=d#5 v=80
5520 On ch=1 n=c5 v=47
5700 Off ch=1 n=c5 v=80
5760 Off ch=1 n=d#6 v=80
5760 On ch=1 n=d6 v=90
6000 On ch=1 n=f5 v=47
6180 Off ch=1 n=f5 v=80
6240 On ch=1 n=d5 v=47
6420 Off ch=1 n=d5 v=80
6480 On ch=1 n=a#4 v=47
6660 Off ch=1 n=a#4 v=80
6720 Off ch=1 n=d6 v=80
6720 On ch=1 n=c6 v=83
6960 On ch=1 n=d#5 v=47
7140 Off ch=1 n=d#5 v=80
7200 On ch=1 n=a4 v=47
7380 Off ch=1 n=a4 v=80
7440 On ch=1 n=f4 v=47
7560 Off ch=1 n=c6 v=80
7560 On ch=1 n=a#5 v=65
7620 Off ch=1 n=f4 v=80
7680 Off ch=1 n=a#5 v=80
7680 On ch=1 n=a#5 v=65
7920 On ch=1 n=d5 v=47
8040 Off ch=1 n=d5 v=80
8160 On ch=1 n=a#4 v=47
8280 Off ch=1 n=a#4 v=80
8400 On ch=1 n=f4 v=47
8520 Off ch=1 n=f4 v=80
8640 Off ch=1 n=a#5 v=80
8640 On ch=1 n=f#6 v=65
8880 On ch=1 n=a#5 v=47
9060 Off ch=1 n=a#5 v=80
9120 On ch=1 n=f#5 v=47
9300 Off ch=1 n=f#5 v=80
9360 On ch=1 n=a#4 v=47
9540 Off ch=1 n=a#4 v=80
9600 Off ch=1 n=f#6 v=80
9600 On ch=1 n=g6 v=65
9840 On ch=1 n=a#5 v=47
10020 Off ch=1 n=a#5 v=80
10080 On ch=1 n=g5 v=47
10260 Off ch=1 n=g5 v=80
10320 On ch=1 n=a#4 v=47
10500 Off ch=1 n=a#4 v=80
10560 Off ch=1 n=g6 v=80
10560 On ch=1 n=c6 v=65
10800 On ch=1 n=f5 v=47
10980 Off ch=1 n=f5 v=80
11040 On ch=1 n=c5 v=47
11220 Off ch=1 n=c5 v=80
11280 On ch=1 n=a4 v=53
11460 Off ch=1 n=a4 v=80
11520 Off ch=1 n=c6 v=80
11520 On ch=1 n=f6 v=77
11760 On ch=1 n=g#5 v=53
11940 Off ch=1 n=g#5 v=80
12000 On ch=1 n=f5 v=53
12180 Off ch=1 n=f5 v=80
12240 On ch=1 n=b4 v=53
12420 Off ch=1 n=b4 v=80
12720 On ch=1 n=g5 v=53
12900 Off ch=1 n=g5 v=80
12960 Off ch=1 n=f6 v=80
12960 On ch=1 n=d#6 v=90
12960 On ch=1 n=d#5 v=53
13140 Off ch=1 n=d#5 v=80
13200 On ch=1 n=c5 v=53
13380 Off ch=1 n=c5 v=80
13440 Off ch=1 n=d#6 v=80
13440 On ch=1 n=d6 v=90
13680 On ch=1 n=f5 v=65
13860 Off ch=1 n=f5 v=80
13920 On ch=1 n=d5 v=65
14100 Off ch=1 n=d5 v=80
14160 On ch=1 n=a#4 v=65
14340 Off ch=1 n=a#4 v=80
14400 Off ch=1 n=d6 v=80
14400 On ch=1 n=c6 v=83
14640 On ch=1 n=d#5 v=65
14820 Off ch=1 n=d#5 v=80
14880 On ch=1 n=a4 v=65
15060 Off ch=1 n=a4 v=80
15120 On ch=1 n=f4 v=65
15240 Off ch=1 n=c6 v=80
15240 On ch=1 n=a#5 v=65
15300 Off ch=1 n=f4 v=80
15600 On ch=1 n=d5 v=47
15840 Off ch=1 n=d5 v=80
15840 On ch=1 n=a#4 v=47
16080 Off ch=1 n=a#4 v=80
16080 On ch=1 n=f4 v=47
16320 Off ch=1 n=a#5 v=80
16320 Off ch=1 n=f4 v=80
16320 On ch=1 n=a#5 v=53
16560 On ch=1 n=c#5 v=35
16800 Off ch=1 n=c#5 v=80
16800 On ch=1 n=a#4 v=35
17040 Off ch=1 n=a#4 v=80
17040 On ch=1 n=c#4 v=35
17280 Off ch=1 n=a#5 v=80
17280 Off ch=1 n=c#4 v=80
17280 On ch=1 n=c#6 v=53
17520 On ch=1 n=c#5 v=35
17760 Off ch=1 n=c#5 v=80
17760 On ch=1 n=a#4 v=35
18000 Off ch=1 n=a#4 v=80
18000 On ch=1 n=c#4 v=35
18240 Off ch=1 n=c#6 v=80
18240 Off ch=1 n=c#4 v=80
18240 On ch=1 n=a5 v=53
18480 On ch=1 n=c#5 v=35
18720 Off ch=1 n=c#5 v=80
18720 On ch=1 n=a4 v=35
18960 Off ch=1 n=a4 v=80
18960 On ch=1 n=c#4 v=35
19200 Off ch=1 n=a5 v=80
19200 Off ch=1 n=c#4 v=80
19440 On ch=1 n=c#5 v=35
19680 Off ch=1 n=c#5 v=80
19680 On ch=1 n=a#4 v=35
19920 Off ch=1 n=a#4 v=80
19920 On ch=1 n=c#4 v=35
20160 Off ch=1 n=c#4 v=80
20160 On ch=1 n=a#5 v=53
20400 On ch=1 n=c#5 v=35
20640 Off ch=1 n=c#5 v=80
20640 On ch=1 n=a#4 v=35
20880 Off ch=1 n=a#4 v=80
20880 On ch=1 n=c#4 v=35
21120 Off ch=1 n=a#5 v=80
21120 On ch=1 n=g#5 v=53
21121 Off ch=1 n=c#4 v=80
21360 On ch=1 n=c#5 v=35
21600 Off ch=1 n=c#5 v=80
21600 On ch=1 n=a#4 v=35
21840 Off ch=1 n=a#4 v=80
21840 On ch=1 n=c#4 v=35
22080 Off ch=1 n=g#5 v=80
22080 On ch=1 n=f#5 v=53
22081 Off ch=1 n=c#4 v=80
22320 On ch=1 n=c#5 v=35
22560 Off ch=1 n=c#5 v=80
22560 On ch=1 n=a#4 v=35
22800 Off ch=1 n=a#4 v=80
22800 On ch=1 n=c#4 v=35
23040 Off ch=1 n=f#5 v=80
23040 On ch=1 n=f5 v=53
23041 Off ch=1 n=c#4 v=80
23280 On ch=1 n=c#5 v=35
23520 Off ch=1 n=f5 v=80
23520 Off ch=1 n=c#5 v=80
23520 On ch=1 n=b4 v=35
23760 Off ch=1 n=b4 v=80
23760 On ch=1 n=c#4 v=35
24000 On ch=1 n=b5 v=53
24001 Off ch=1 n=c#4 v=80
24240 On ch=1 n=c#5 v=35
24480 Off ch=1 n=c#5 v=80
24480 On ch=1 n=b4 v=35
24720 Off ch=1 n=b4 v=80
24720 On ch=1 n=c#4 v=35
24960 Off ch=1 n=b5 v=80
24960 On ch=1 n=d#6 v=53
24961 Off ch=1 n=c#4 v=80
25200 On ch=1 n=c#5 v=35
25440 Off ch=1 n=c#5 v=80
25440 On ch=1 n=b4 v=35
25680 Off ch=1 n=b4 v=80
25680 On ch=1 n=c#4 v=35
25920 Off ch=1 n=d#6 v=80
25920 On ch=1 n=b5 v=53
25921 Off ch=1 n=c#4 v=80
26160 On ch=1 n=c#5 v=35
26400 Off ch=1 n=c#5 v=80
26400 On ch=1 n=b4 v=35
26640 Off ch=1 n=b4 v=80
26640 On ch=1 n=f4 v=35
26880 Off ch=1 n=b5 v=80
26881 Off ch=1 n=f4 v=80
27120 On ch=1 n=c#5 v=35
27360 Off ch=1 n=c#5 v=80
27360 On ch=1 n=b4 v=35
27600 Off ch=1 n=b4 v=80
27600 On ch=1 n=f4 v=35
27840 On ch=1 n=b5 v=53
27841 Off ch=1 n=f4 v=80
28080 On ch=1 n=c#5 v=35
28320 Off ch=1 n=c#5 v=80
28320 On ch=1 n=b4 v=35
28560 Off ch=1 n=b4 v=80
28560 On ch=1 n=f4 v=35
28800 Off ch=1 n=b5 v=80
28800 On ch=1 n=a#5 v=53
28801 Off ch=1 n=f4 v=80
29040 On ch=1 n=f5 v=35
29280 Off ch=1 n=f5 v=80
29280 On ch=1 n=b4 v=35
29520 Off ch=1 n=b4 v=80
29520 On ch=1 n=c#4 v=35
29760 Off ch=1 n=a#5 v=80
29760 On ch=1 n=g#5 v=53
29761 Off ch=1 n=c#4 v=80
30000 On ch=1 n=c#5 v=35
30240 Off ch=1 n=c#5 v=80
30240 On ch=1 n=f4 v=35
30480 Off ch=1 n=f4 v=80
30480 On ch=1 n=c#4 v=35
30720 Off ch=1 n=g#5 v=80
30720 On ch=1 n=g5 v=53
30721 Off ch=1 n=c#4 v=80
30960 On ch=1 n=c#5 v=35
31200 Off ch=1 n=g5 v=80
31200 Off ch=1 n=c#5 v=80
31200 On ch=1 n=a#4 v=35
31440 Off ch=1 n=a#4 v=80
31440 On ch=1 n=c#4 v=35
31680 On ch=1 n=c#6 v=53
31681 Off ch=1 n=c#4 v=80
31920 On ch=1 n=e5 v=41
32160 Off ch=1 n=e5 v=80
32160 On ch=1 n=a#4 v=47
32400 Off ch=1 n=a#4 v=80
32400 On ch=1 n=c#4 v=53
32640 Off ch=1 n=c#6 v=80
32640 On ch=1 n=a#6 v=78
32641 Off ch=1 n=c#4 v=80
32880 On ch=1 n=d#5 v=41
33120 Off ch=1 n=d#5 v=80
33120 On ch=1 n=a#4 v=41
33360 Off ch=1 n=a#4 v=80
33360 On ch=1 n=c#4 v=41
33600 Off ch=1 n=a#6 v=80
33600 On ch=1 n=c#6 v=53
33601 Off ch=1 n=c#4 v=80
33840 On ch=1 n=d#5 v=41
34080 Off ch=1 n=d#5 v=80
34080 On ch=1 n=a#4 v=41
34320 Off ch=1 n=a#4 v=80
34320 On ch=1 n=d#4 v=41
34561 Off ch=1 n=d#4 v=80
34800 On ch=1 n=e5 v=41
35040 Off ch=1 n=e5 v=80
35040 On ch=1 n=b4 v=41
35280 Off ch=1 n=b4 v=80
35280 On ch=1 n=e4 v=41
35520 Off ch=1 n=c#6 v=80
35520 On ch=1 n=b5 v=53
35521 Off ch=1 n=e4 v=80
35760 On ch=1 n=e5 v=47
36000 Off ch=1 n=e5 v=80
36000 On ch=1 n=b4 v=53
36240 Off ch=1 n=b4 v=80
36240 On ch=1 n=e4 v=59
36480 Off ch=1 n=b5 v=80
36480 On ch=1 n=g#6 v=78
36481 Off ch=1 n=e4 v=80
36720 On ch=1 n=e5 v=41
36960 Off ch=1 n=e5 v=80
36960 On ch=1 n=b4 v=41
37200 Off ch=1 n=b4 v=80
37200 On ch=1 n=e4 v=41
37440 Off ch=1 n=g#6 v=80
37440 On ch=1 n=b5 v=53
37441 Off ch=1 n=e4 v=80
37680 On ch=1 n=g#5 v=41
37920 On ch=1 n=b4 v=41
38160 Off ch=1 n=b4 v=80
38160 On ch=1 n=e4 v=41
38401 Off ch=1 n=e4 v=80
38640 On ch=1 n=f5 v=41
38880 Off ch=1 n=f5 v=80
38880 On ch=1 n=d5 v=41
39120 Off ch=1 n=d5 v=80
39120 On ch=1 n=f4 v=41
39360 Off ch=1 n=b5 v=80
39360 Off ch=1 n=g#5 v=80
39360 On ch=1 n=a#5 v=53
39361 Off ch=1 n=f4 v=80
39600 On ch=1 n=f5 v=41
39840 On ch=1 n=d5 v=41
40080 Off ch=1 n=d5 v=80
40080 On ch=1 n=f#4 v=41
40200 Off ch=1 n=f5 v=80
40200 On ch=1 n=f#5 v=41
40320 Off ch=1 n=a#5 v=80
40320 Off ch=1 n=f#5 v=80
40320 On ch=1 n=g6 v=65
40321 Off ch=1 n=f#4 v=80
40560 On ch=1 n=a#5 v=53
40740 Off ch=1 n=a#5 v=80
40800 On ch=1 n=g5 v=53
40980 Off ch=1 n=g5 v=80
41040 On ch=1 n=a#4 v=53
41220 Off ch=1 n=a#4 v=80
41280 Off ch=1 n=g6 v=80
41280 On ch=1 n=c6 v=65
41520 On ch=1 n=f5 v=53
41700 Off ch=1 n=f5 v=80
41760 On ch=1 n=c5 v=53
41940 Off ch=1 n=c5 v=80
42000 On ch=1 n=a4 v=59
42180 Off ch=1 n=a4 v=80
42240 Off ch=1 n=c6 v=80
42240 On ch=1 n=f6 v=77
42480 On ch=1 n=g#5 v=71
42660 Off ch=1 n=g#5 v=80
42720 On ch=1 n=f5 v=78
42900 Off ch=1 n=f5 v=80
42960 On ch=1 n=b4 v=78
43140 Off ch=1 n=b4 v=80
43440 On ch=1 n=g5 v=78
43620 Off ch=1 n=g5 v=80
43680 Off ch=1 n=f6 v=80
43680 On ch=1 n=d#5 v=78
43680 On ch=1 n=d#6 v=90
43860 Off ch=1 n=d#5 v=80
43920 On ch=1 n=c5 v=78
44100 Off ch=1 n=c5 v=80
44160 Off ch=1 n=d#6 v=80
44160 On ch=1 n=d6 v=90
44400 On ch=1 n=f5 v=78
44580 Off ch=1 n=f5 v=80
44640 On ch=1 n=d5 v=78
44820 Off ch=1 n=d5 v=80
44880 On ch=1 n=a#4 v=78
45060 Off ch=1 n=a#4 v=80
45120 Off ch=1 n=d6 v=80
45120 On ch=1 n=c6 v=83
45360 On ch=1 n=d#5 v=65
45540 Off ch=1 n=d#5 v=80
45600 On ch=1 n=a4 v=59
45780 Off ch=1 n=a4 v=80
45840 On ch=1 n=f4 v=53
45960 Off ch=1 n=c6 v=80
45960 On ch=1 n=a#5 v=65
46020 Off ch=1 n=f4 v=80
46080 Off ch=1 n=a#5 v=80
46080 On ch=1 n=a#5 v=65
46320 On ch=1 n=d5 v=53
46560 Off ch=1 n=d5 v=80
46560 On ch=1 n=a#4 v=53
46800 Off ch=1 n=a#4 v=80
46800 On ch=1 n=f4 v=53
47040 Off ch=1 n=a#5 v=80
47040 Off ch=1 n=f4 v=80
47040 On ch=1 n=f#6 v=65
47280 On ch=1 n=a#5 v=53
47460 Off ch=1 n=a#5 v=80
47520 On ch=1 n=f#5 v=53
47700 Off ch=1 n=f#5 v=80
47760 On ch=1 n=a#4 v=53
47940 Off ch=1 n=a#4 v=80
48000 Off ch=1 n=f#6 v=80
48000 On ch=1 n=g6 v=65
48240 On ch=1 n=a#5 v=53
48420 Off ch=1 n=a#5 v=80
48480 On ch=1 n=g5 v=53
48660 Off ch=1 n=g5 v=80
48720 On ch=1 n=a#4 v=53
48900 Off ch=1 n=a#4 v=80
48960 Off ch=1 n=g6 v=80
48960 On ch=1 n=c6 v=65
49200 On ch=1 n=f5 v=53
49380 Off ch=1 n=f5 v=80
49440 On ch=1 n=c5 v=53
49620 Off ch=1 n=c5 v=80
49680 On ch=1 n=a4 v=59
49860 Off ch=1 n=a4 v=80
49920 Off ch=1 n=c6 v=80
49920 On ch=1 n=f6 v=77
50160 On ch=1 n=g#5 v=71
50340 Off ch=1 n=g#5 v=80
50400 On ch=1 n=f5 v=78
50580 Off ch=1 n=f5 v=80
50640 On ch=1 n=b4 v=78
50820 Off ch=1 n=b4 v=80
51120 On ch=1 n=g5 v=78
51300 Off ch=1 n=g5 v=80
51360 Off ch=1 n=f6 v=80
51360 On ch=1 n=d#5 v=78
51360 On ch=1 n=d#6 v=90
51540 Off ch=1 n=d#5 v=80
51600 On ch=1 n=c5 v=78
51780 Off ch=1 n=c5 v=80
51840 Off ch=1 n=d#6 v=80
51840 On ch=1 n=d6 v=90
52080 On ch=1 n=f5 v=78
52260 Off ch=1 n=f5 v=80
52320 On ch=1 n=d5 v=78
52500 Off ch=1 n=d5 v=80
52560 On ch=1 n=a#4 v=78
52740 Off ch=1 n=a#4 v=80
52800 Off ch=1 n=d6 v=80
52800 On ch=1 n=c6 v=83
53040 On ch=1 n=d#5 v=65
53220 Off ch=1 n=d#5 v=80
53280 On ch=1 n=a4 v=59
53460 Off ch=1 n=a4 v=80
53520 On ch=1 n=f4 v=53
53640 Off ch=1 n=c6 v=80
53640 On ch=1 n=a#5 v=65
53700 Off ch=1 n=f4 v=80
54000 On ch=1 n=d5 v=53
54240 Off ch=1 n=d5 v=80
54240 On ch=1 n=a#4 v=53
54480 Off ch=1 n=a#4 v=80
54480 On ch=1 n=f4 v=53
54720 Off ch=1 n=a#5 v=80
54720 Off ch=1 n=f4 v=80
54960 On ch=1 n=d5 v=53
55200 Off ch=1 n=d5 v=80
55200 On ch=1 n=a#4 v=53
55200 On ch=1 n=a5 v=65
55440 Off ch=1 n=a#4 v=80
55440 On ch=1 n=f4 v=53
55560 Off ch=1 n=a5 v=80
55560 On ch=1 n=g5 v=65
55680 Off ch=1 n=f4 v=80
55680 Off ch=1 n=g5 v=80
55680 On ch=1 n=g5 v=65
55920 On ch=1 n=d5 v=53
56160 Off ch=1 n=d5 v=80
56160 Off ch=1 n=g5 v=80
56160 On ch=1 n=f5 v=65
56160 On ch=1 n=g#4 v=53
56400 Off ch=1 n=g#4 v=80
56400 On ch=1 n=f4 v=53
56640 Off ch=1 n=f4 v=80
56880 On ch=1 n=d5 v=53
57120 Off ch=1 n=f5 v=80
57120 Off ch=1 n=d5 v=80
57120 On ch=1 n=g#4 v=53
57120 On ch=1 n=f5 v=65
57360 Off ch=1 n=g#4 v=80
57360 On ch=1 n=f4 v=53
57600 Off ch=1 n=f4 v=80
57840 On ch=1 n=d#5 v=53
58080 Off ch=1 n=f5 v=80
58080 Off ch=1 n=d#5 v=80
58080 On ch=1 n=a4 v=53
58080 On ch=1 n=d#6 v=78
58320 Off ch=1 n=a4 v=80
58320 On ch=1 n=f4 v=53
58560 Off ch=1 n=f4 v=80
58800 Off ch=1 n=d#6 v=80
58800 On ch=1 n=c6 v=78
59040 On ch=1 n=d#5 v=53
59040 On ch=1 n=a4 v=53
59280 Off ch=1 n=a4 v=80
59280 Off ch=1 n=c6 v=80
59280 On ch=1 n=f4 v=53
59280 On ch=1 n=a5 v=78
59520 Off ch=1 n=a5 v=80
59520 Off ch=1 n=d#5 v=80
59520 Off ch=1 n=f4 v=80
59520 On ch=1 n=g5 v=65
59760 On ch=1 n=e5 v=53
60000 Off ch=1 n=e5 v=80
60000 Off ch=1 n=g5 v=80
60000 On ch=1 n=a#4 v=53
60000 On ch=1 n=f5 v=65
60240 Off ch=1 n=a#4 v=80
60240 On ch=1 n=f4 v=53
60480 Off ch=1 n=f5 v=80
60480 Off ch=1 n=f4 v=80
60720 On ch=1 n=f5 v=65
60960 On ch=1 n=a#4 v=53
61200 Off ch=1 n=a#4 v=80
61200 Off ch=1 n=f5 v=80
61200 On ch=1 n=f4 v=53
61200 On ch=1 n=f5 v=65
61440 Off ch=1 n=f4 v=80
61680 Off ch=1 n=f5 v=80
61680 On ch=1 n=f5 v=53
61920 Off ch=1 n=f5 v=80
61920 On ch=1 n=a#4 v=53
61920 On ch=1 n=f6 v=90
62160 Off ch=1 n=a#4 v=80
62160 On ch=1 n=f4 v=53
62400 Off ch=1 n=f4 v=80
62640 Off ch=1 n=f6 v=80
62640 On ch=1 n=d6 v=78
62880 On ch=1 n=a#4 v=53
62880 On ch=1 n=d5 v=53
63120 Off ch=1 n=a#4 v=80
63120 Off ch=1 n=d6 v=80
63120 On ch=1 n=f4 v=53
63120 On ch=1 n=a#5 v=78
63360 Off ch=1 n=a#5 v=80
63360 Off ch=1 n=d5 v=80
63360 Off ch=1 n=f4 v=80
63360 On ch=1 n=a5 v=65
63520 Off ch=1 n=a5 v=80
63520 On ch=1 n=g5 v=65
63680 Off ch=1 n=g5 v=80
63680 On ch=1 n=f#5 v=65
63840 Off ch=1 n=f#5 v=80
63840 On ch=1 n=g5 v=73
63936 Off ch=1 n=g5 v=80
63936 On ch=1 n=a5 v=73
64032 Off ch=1 n=a5 v=80
64032 On ch=1 n=g5 v=73
64128 Off ch=1 n=g5 v=80
64128 On ch=1 n=a5 v=81
64224 Off ch=1 n=a5 v=80
64224 On ch=1 n=g5 v=81
64320 Off ch=1 n=g5 v=80
64320 On ch=1 n=a5 v=90
64380 Off ch=1 n=a5 v=80
64380 On ch=1 n=g5 v=90
64440 Off ch=1 n=g5 v=80
64440 On ch=1 n=a5 v=90
64500 Off ch=1 n=a5 v=80
64500 On ch=1 n=g5 v=90
64560 Off ch=1 n=g5 v=80
64560 On ch=1 n=a5 v=82
64620 Off ch=1 n=a5 v=80
64620 On ch=1 n=g5 v=82
64680 Off ch=1 n=g5 v=80
64680 On ch=1 n=a5 v=82
64740 Off ch=1 n=a5 v=80
64740 On ch=1 n=g5 v=82
64800 Off ch=1 n=g5 v=80
64800 On ch=1 n=a5 v=74
64860 Off ch=1 n=a5 v=80
64860 On ch=1 n=g5 v=74
64920 Off ch=1 n=g5 v=80
64920 On ch=1 n=a5 v=74
64980 Off ch=1 n=a5 v=80
64980 On ch=1 n=g5 v=74
65040 Off ch=1 n=g5 v=80
65040 On ch=1 n=a5 v=65
65100 Off ch=1 n=a5 v=80
65100 On ch=1 n=g5 v=65
65160 Off ch=1 n=g5 v=80
65160 On ch=1 n=f5 v=65
65190 Off ch=1 n=f5 v=80
65190 On ch=1 n=g5 v=65
65220 Off ch=1 n=g5 v=80
65220 On ch=1 n=a5 v=65
65250 Off ch=1 n=a5 v=80
65250 On ch=1 n=a#5 v=65
65280 Off ch=1 n=a#5 v=80
65280 On ch=1 n=c6 v=65
65520 On ch=1 n=g5 v=53
65760 Off ch=1 n=g5 v=80
65760 On ch=1 n=e5 v=53
66000 Off ch=1 n=e5 v=80
66000 On ch=1 n=a#4 v=53
66240 Off ch=1 n=c6 v=80
66240 Off ch=1 n=a#4 v=80
66240 On ch=1 n=d6 v=65
66480 On ch=1 n=a5 v=53
66720 On ch=1 n=d#5 v=53
66960 Off ch=1 n=d#5 v=80
66960 On ch=1 n=a4 v=53
67200 Off ch=1 n=a5 v=80
67200 Off ch=1 n=d6 v=80
67200 Off ch=1 n=a4 v=80
67200 On ch=1 n=a#5 v=65
67440 On ch=1 n=f#5 v=62
67680 Off ch=1 n=f#5 v=80
67680 On ch=1 n=d#5 v=59
69120 Off ch=1 n=d#5 v=80
69120 On ch=1 n=d5 v=44
70080 Off ch=1 n=a#5 v=80
70080 Off ch=1 n=d5 v=80
71040 On ch=1 n=f5 v=90
71160 On ch=1 n=d5 v=78
71280 Off ch=1 n=d5 v=80
71280 Off ch=1 n=f5 v=80
71280 On ch=1 n=g5 v=90
71400 Off ch=1 n=g5 v=80
71400 On ch=1 n=a5 v=90
71520 Off ch=1 n=a5 v=80
71520 On ch=1 n=a#5 v=90
71640 Off ch=1 n=a#5 v=80
71640 On ch=1 n=d5 v=78
71760 Off ch=1 n=d5 v=80
71760 On ch=1 n=d6 v=90
71880 Off ch=1 n=d6 v=80
72000 On ch=1 n=f6 v=105
72120 On ch=1 n=g#5 v=78
72240 Off ch=1 n=g#5 v=80
72480 Off ch=1 n=f6 v=80
72480 On ch=1 n=d#6 v=90
72600 On ch=1 n=g5 v=78
72720 Off ch=1 n=g5 v=80
72960 Off ch=1 n=d#6 v=80
72960 On ch=1 n=d6 v=90
73080 On ch=1 n=f5 v=78
73200 Off ch=1 n=f5 v=80
73200 Off ch=1 n=d6 v=80
73200 On ch=1 n=d#6 v=90
73320 Off ch=1 n=d#6 v=80
73320 On ch=1 n=d6 v=90
73440 Off ch=1 n=d6 v=80
73440 On ch=1 n=c6 v=90
73560 Off ch=1 n=c6 v=80
73560 On ch=1 n=e5 v=78
73680 Off ch=1 n=e5 v=80
73680 On ch=1 n=d6 v=90
73800 Off ch=1 n=d6 v=80
73920 On ch=1 n=f5 v=102
74040 On ch=1 n=d5 v=90
74160 Off ch=1 n=d5 v=80
74160 Off ch=1 n=f5 v=80
74160 On ch=1 n=g5 v=102
74280 Off ch=1 n=g5 v=80
74280 On ch=1 n=a5 v=102
74400 Off ch=1 n=a5 v=80
74400 On ch=1 n=a#5 v=102
74520 Off ch=1 n=a#5 v=80
74520 On ch=1 n=d5 v=90
74640 Off ch=1 n=d5 v=80
74640 On ch=1 n=d6 v=102
74760 Off ch=1 n=d6 v=80
74880 On ch=1 n=f5 v=65
75000 On ch=1 n=d5 v=53
75120 Off ch=1 n=d5 v=80
75120 Off ch=1 n=f5 v=80
75120 On ch=1 n=g5 v=65
75240 Off ch=1 n=g5 v=80
75240 On ch=1 n=a5 v=65
75360 Off ch=1 n=a5 v=80
75360 On ch=1 n=a#5 v=65
75480 Off ch=1 n=a#5 v=80
75480 On ch=1 n=d5 v=53
75600 Off ch=1 n=d5 v=80
75600 On ch=1 n=d6 v=65
75720 Off ch=1 n=d6 v=80
75840 On ch=1 n=g6 v=80
75958 On ch=1 n=g5 v=65
76078 Off ch=1 n=g5 v=80
76320 Off ch=1 n=g6 v=80
76320 On ch=1 n=f6 v=65
76438 On ch=1 n=g5 v=53
76558 Off ch=1 n=g5 v=80
76800 Off ch=1 n=f6 v=80
76800 On ch=1 n=d#6 v=65
76920 On ch=1 n=g5 v=53
77040 Off ch=1 n=g5 v=80
77040 Off ch=1 n=d#6 v=80
77040 On ch=1 n=f6 v=65
77160 Off ch=1 n=f6 v=80
77160 On ch=1 n=d#6 v=65
77280 Off ch=1 n=d#6 v=80
77280 On ch=1 n=d6 v=65
77400 Off ch=1 n=d6 v=80
77400 On ch=1 n=g5 v=53
77520 Off ch=1 n=g5 v=80
77520 On ch=1 n=d#6 v=65
77640 Off ch=1 n=d#6 v=80
77760 On ch=1 n=a#5 v=102
77880 On ch=1 n=g5 v=90
78000 Off ch=1 n=g5 v=80
78000 Off ch=1 n=a#5 v=80
78000 On ch=1 n=c6 v=102
78120 Off ch=1 n=c6 v=80
78120 On ch=1 n=d6 v=102
78240 Off ch=1 n=d6 v=80
78240 On ch=1 n=d#6 v=102
78360 Off ch=1 n=d#6 v=80
78360 On ch=1 n=g5 v=90
78480 Off ch=1 n=g5 v=80
78480 On ch=1 n=g6 v=102
78600 Off ch=1 n=g6 v=80
78720 On ch=1 n=a#5 v=65
78840 On ch=1 n=g5 v=53
78960 Off ch=1 n=g5 v=80
78960 Off ch=1 n=a#5 v=80
78960 On ch=1 n=c6 v=65
79080 Off ch=1 n=c6 v=80
79080 On ch=1 n=d6 v=65
79200 Off ch=1 n=d6 v=80
79200 On ch=1 n=d#6 v=65
79320 Off ch=1 n=d#6 v=80
79320 On ch=1 n=g5 v=53
79440 Off ch=1 n=g5 v=80
79440 On ch=1 n=g6 v=65
79560 Off ch=1 n=g6 v=80
79680 On ch=1 n=c7 v=80
79798 On ch=1 n=c6 v=53
79918 Off ch=1 n=c6 v=80
80160 Off ch=1 n=c7 v=80
80160 On ch=1 n=a#6 v=65
80278 On ch=1 n=c6 v=53
80398 Off ch=1 n=c6 v=80
80640 Off ch=1 n=a#6 v=80
80640 On ch=1 n=a6 v=65
80760 On ch=1 n=c6 v=53
80880 Off ch=1 n=c6 v=80
80880 Off ch=1 n=a6 v=80
80880 On ch=1 n=g6 v=65
81000 Off ch=1 n=g6 v=80
81000 On ch=1 n=f6 v=65
81120 Off ch=1 n=f6 v=80
81120 On ch=1 n=a#6 v=65
81240 On ch=1 n=a#5 v=53
81360 Off ch=1 n=a#5 v=80
81360 Off ch=1 n=a#6 v=80
81360 On ch=1 n=f#6 v=65
81600 Off ch=1 n=f#6 v=80
81600 On ch=1 n=g6 v=65
81720 On ch=1 n=g5 v=53
81840 Off ch=1 n=g5 v=80
81840 Off ch=1 n=g6 v=80
81840 On ch=1 n=f6 v=65
81960 Off ch=1 n=f6 v=80
81960 On ch=1 n=d#6 v=65
82080 Off ch=1 n=d#6 v=80
82080 On ch=1 n=d6 v=65
82200 On ch=1 n=f5 v=53
82320 Off ch=1 n=f5 v=80
82320 Off ch=1 n=d6 v=80
82320 On ch=1 n=c6 v=65
82560 Off ch=1 n=c6 v=80
82560 On ch=1 n=f5 v=102
82680 On ch=1 n=d5 v=90
82800 Off ch=1 n=d5 v=80
82800 Off ch=1 n=f5 v=80
82800 On ch=1 n=g5 v=102
82920 Off ch=1 n=g5 v=80
82920 On ch=1 n=a5 v=102
83040 Off ch=1 n=a5 v=80
83040 On ch=1 n=a#5 v=102
83160 Off ch=1 n=a#5 v=80
83160 On ch=1 n=d5 v=90
83280 Off ch=1 n=d5 v=80
83280 On ch=1 n=d6 v=102
83400 Off ch=1 n=d6 v=80
83520 On ch=1 n=f5 v=90
83640 On ch=1 n=d5 v=78
83760 Off ch=1 n=d5 v=80
83760 Off ch=1 n=f5 v=80
83760 On ch=1 n=g5 v=90
83880 Off ch=1 n=g5 v=80
83880 On ch=1 n=a5 v=90
84000 Off ch=1 n=a5 v=80
84000 On ch=1 n=a#5 v=90
84120 Off ch=1 n=a#5 v=80
84120 On ch=1 n=d5 v=78
84240 Off ch=1 n=d5 v=80
84240 On ch=1 n=d6 v=90
84360 Off ch=1 n=d6 v=80
84480 On ch=1 n=f6 v=105
84606 On ch=1 n=g#5 v=78
84726 Off ch=1 n=g#5 v=80
84960 Off ch=1 n=f6 v=80
84960 On ch=1 n=d#6 v=90
85086 On ch=1 n=g5 v=78
85206 Off ch=1 n=g5 v=80
85440 Off ch=1 n=d#6 v=80
85440 On ch=1 n=d6 v=90
85560 On ch=1 n=f5 v=78
85680 Off ch=1 n=f5 v=80
85680 Off ch=1 n=d6 v=80
85680 On ch=1 n=d#6 v=90
85800 Off ch=1 n=d#6 v=80
85800 On ch=1 n=d6 v=90
85920 Off ch=1 n=d6 v=80
85920 On ch=1 n=c6 v=90
86040 Off ch=1 n=c6 v=80
86040 On ch=1 n=e5 v=78
86160 Off ch=1 n=e5 v=80
86160 On ch=1 n=d6 v=90
86280 Off ch=1 n=d6 v=80
86400 On ch=1 n=f5 v=102
86520 On ch=1 n=d5 v=90
86640 Off ch=1 n=d5 v=80
86640 Off ch=1 n=f5 v=80
86640 On ch=1 n=g5 v=102
86760 Off ch=1 n=g5 v=80
86760 On ch=1 n=a5 v=102
86880 Off ch=1 n=a5 v=80
86880 On ch=1 n=a#5 v=102
87000 Off ch=1 n=a#5 v=80
87000 On ch=1 n=d5 v=90
87120 Off ch=1 n=d5 v=80
87120 On ch=1 n=d6 v=102
87240 Off ch=1 n=d6 v=80
87360 On ch=1 n=f5 v=65
87480 On ch=1 n=d5 v=53
87600 Off ch=1 n=d5 v=80
87600 Off ch=1 n=f5 v=80
87600 On ch=1 n=g5 v=65
87720 Off ch=1 n=g5 v=80
87720 On ch=1 n=a5 v=65
87840 Off ch=1 n=a5 v=80
87840 On ch=1 n=a#5 v=65
87960 Off ch=1 n=a#5 v=80
87960 On ch=1 n=d5 v=53
88080 Off ch=1 n=d5 v=80
88080 On ch=1 n=d6 v=65
88200 Off ch=1 n=d6 v=80
88320 On ch=1 n=g6 v=80
88438 On ch=1 n=g5 v=65
88558 Off ch=1 n=g5 v=80
88800 Off ch=1 n=g6 v=80
88800 On ch=1 n=f6 v=65
88918 On ch=1 n=g5 v=53
89038 Off ch=1 n=g5 v=80
89280 Off ch=1 n=f6 v=80
89280 On ch=1 n=d#6 v=65
89400 On ch=1 n=g5 v=53
89520 Off ch=1 n=g5 v=80
89520 Off ch=1 n=d#6 v=80
89520 On ch=1 n=f6 v=65
89640 Off ch=1 n=f6 v=80
89640 On ch=1 n=d#6 v=65
89760 Off ch=1 n=d#6 v=80
89760 On ch=1 n=d6 v=65
89880 Off ch=1 n=d6 v=80
89880 On ch=1 n=g5 v=53
90000 Off ch=1 n=g5 v=80
90000 On ch=1 n=d#6 v=65
90120 Off ch=1 n=d#6 v=80
90240 On ch=1 n=a#5 v=102
90360 On ch=1 n=g5 v=90
90480 Off ch=1 n=g5 v=80
90480 Off ch=1 n=a#5 v=80
90480 On ch=1 n=c6 v=102
90600 Off ch=1 n=c6 v=80
90600 On ch=1 n=d6 v=102
90720 Off ch=1 n=d6 v=80
90720 On ch=1 n=d#6 v=102
90840 Off ch=1 n=d#6 v=80
90840 On ch=1 n=g5 v=90
90960 Off ch=1 n=g5 v=80
90960 On ch=1 n=g6 v=102
91080 Off ch=1 n=g6 v=80
91200 On ch=1 n=a#5 v=65
91320 On ch=1 n=g5 v=53
91440 Off ch=1 n=g5 v=80
91440 Off ch=1 n=a#5 v=80
91440 On ch=1 n=c6 v=65
91560 Off ch=1 n=c6 v=80
91560 On ch=1 n=d6 v=65
91680 Off ch=1 n=d6 v=80
91680 On ch=1 n=d#6 v=65
91800 Off ch=1 n=d#6 v=80
91800 On ch=1 n=g5 v=53
91920 Off ch=1 n=g5 v=80
91920 On ch=1 n=g6 v=65
92040 Off ch=1 n=g6 v=80
92160 On ch=1 n=c7 v=80
92278 On ch=1 n=c6 v=53
92398 Off ch=1 n=c6 v=80
92640 Off ch=1 n=c7 v=80
92640 On ch=1 n=a#6 v=65
92758 On ch=1 n=c6 v=53
92878 Off ch=1 n=c6 v=80
93120 Off ch=1 n=a#6 v=80
93120 On ch=1 n=a6 v=65
93240 On ch=1 n=c6 v=53
93360 Off ch=1 n=c6 v=80
93360 Off ch=1 n=a6 v=80
93360 On ch=1 n=g6 v=65
93480 Off ch=1 n=g6 v=80
93480 On ch=1 n=f6 v=65
93600 Off ch=1 n=f6 v=80
93600 On ch=1 n=a#6 v=65
93720 On ch=1 n=a#5 v=53
93840 Off ch=1 n=a#5 v=80
93840 Off ch=1 n=a#6 v=80
93840 On ch=1 n=f#6 v=65
94080 Off ch=1 n=f#6 v=80
94080 On ch=1 n=g6 v=65
94200 On ch=1 n=g5 v=53
94320 Off ch=1 n=g5 v=80
94320 Off ch=1 n=g6 v=80
94320 On ch=1 n=f6 v=65
94440 Off ch=1 n=f6 v=80
94440 On ch=1 n=d#6 v=65
94560 Off ch=1 n=d#6 v=80
94560 On ch=1 n=d6 v=65
94680 On ch=1 n=f5 v=53
94800 Off ch=1 n=f5 v=80
94800 Off ch=1 n=d6 v=80
94800 On ch=1 n=c6 v=65
95040 Off ch=1 n=c6 v=80
95040 On ch=1 n=f5 v=90
95160 Off ch=1 n=f5 v=80
95160 On ch=1 n=d5 v=90
95280 Off ch=1 n=d5 v=80
95280 On ch=1 n=a#5 v=90
95400 Off ch=1 n=a#5 v=80
95400 On ch=1 n=f5 v=90
95520 Off ch=1 n=f5 v=80
95520 On ch=1 n=f#5 v=90
95640 Off ch=1 n=f#5 v=80
95640 On ch=1 n=d#5 v=90
95760 Off ch=1 n=d#5 v=80
95760 On ch=1 n=a#5 v=90
95880 Off ch=1 n=a#5 v=80
95880 On ch=1 n=f#5 v=90
96000 Off ch=1 n=f#5 v=80
96000 On ch=1 n=f5 v=90
96120 Off ch=1 n=f5 v=80
96120 On ch=1 n=d5 v=90
96240 Off ch=1 n=d5 v=80
96240 On ch=1 n=a#5 v=90
96360 Off ch=1 n=a#5 v=80
96360 On ch=1 n=f5 v=90
96480 Off ch=1 n=f5 v=80
96480 On ch=1 n=f#5 v=90
96600 Off ch=1 n=f#5 v=80
96600 On ch=1 n=d#5 v=90
96720 Off ch=1 n=d#5 v=80
96720 On ch=1 n=a#5 v=90
96840 Off ch=1 n=a#5 v=80
96840 On ch=1 n=f#5 v=90
96960 Off ch=1 n=f#5 v=80
96960 On ch=1 n=a#5 v=90
97080 On ch=1 n=f5 v=90
97200 Off ch=1 n=f5 v=80
97200 Off ch=1 n=a#5 v=80
97200 On ch=1 n=c6 v=90
97320 Off ch=1 n=c6 v=80
97320 On ch=1 n=d6 v=90
97440 Off ch=1 n=d6 v=80
97440 On ch=1 n=d#6 v=90
97560 On ch=1 n=a#5 v=90
97680 Off ch=1 n=a#5 v=80
97680 Off ch=1 n=d#6 v=80
97680 On ch=1 n=f6 v=93
97800 Off ch=1 n=f6 v=80
97800 On ch=1 n=f#6 v=93
97920 Off ch=1 n=f#6 v=80
97920 On ch=1 n=g#6 v=96
98040 On ch=1 n=d#6 v=96
98160 Off ch=1 n=d#6 v=80
98160 Off ch=1 n=g#6 v=80
98160 On ch=1 n=a#6 v=99
98280 Off ch=1 n=a#6 v=80
98280 On ch=1 n=c7 v=99
98400 Off ch=1 n=c7 v=80
98400 On ch=1 n=c#7 v=102
98400 On ch=1 n=g#6 v=102
98400 On ch=1 n=f6 v=102
98640 Off ch=1 n=f6 v=80
98640 Off ch=1 n=g#6 v=80
98640 Off ch=1 n=c#7 v=80
98640 On ch=1 n=g#5 v=102
98640 On ch=1 n=f5 v=102
98640 On ch=1 n=c#6 v=102
98880 Off ch=1 n=c#6 v=80
98880 Off ch=1 n=f5 v=80
98880 Off ch=1 n=g#5 v=80
98880 On ch=1 n=g#5 v=90
99000 Off ch=1 n=g#5 v=80
99000 On ch=1 n=f5 v=90
99120 Off ch=1 n=f5 v=80
99120 On ch=1 n=c#6 v=90
99240 Off ch=1 n=c#6 v=80
99240 On ch=1 n=g#5 v=90
99360 Off ch=1 n=g#5 v=80
99360 On ch=1 n=a#5 v=90
99480 Off ch=1 n=a#5 v=80
99480 On ch=1 n=f#5 v=90
99600 Off ch=1 n=f#5 v=80
99600 On ch=1 n=c#6 v=90
99720 Off ch=1 n=c#6 v=80
99720 On ch=1 n=a#5 v=90
99840 Off ch=1 n=a#5 v=80
99840 On ch=1 n=g#5 v=90
99960 Off ch=1 n=g#5 v=80
99960 On ch=1 n=f5 v=90
100080 Off ch=1 n=f5 v=80
100080 On ch=1 n=c#6 v=90
100200 Off ch=1 n=c#6 v=80
100200 On ch=1 n=g#5 v=90
100320 Off ch=1 n=g#5 v=80
100320 On ch=1 n=a#5 v=90
100440 Off ch=1 n=a#5 v=80
100440 On ch=1 n=f#5 v=90
100560 Off ch=1 n=f#5 v=80
100560 On ch=1 n=c#6 v=90
100680 Off ch=1 n=c#6 v=80
100680 On ch=1 n=a#5 v=90
100800 Off ch=1 n=a#5 v=80
100800 On ch=1 n=c#6 v=90
100920 On ch=1 n=g#5 v=90
101040 Off ch=1 n=g#5 v=80
101040 Off ch=1 n=c#6 v=80
101040 On ch=1 n=d#6 v=90
101160 Off ch=1 n=d#6 v=80
101160 On ch=1 n=f6 v=90
101280 Off ch=1 n=f6 v=80
101280 On ch=1 n=f#6 v=90
101400 On ch=1 n=c#6 v=90
101520 Off ch=1 n=c#6 v=80
101520 Off ch=1 n=f#6 v=80
101520 On ch=1 n=g#6 v=93
101640 Off ch=1 n=g#6 v=80
101640 On ch=1 n=a#6 v=93
101760 Off ch=1 n=a#6 v=80
101760 On ch=1 n=c7 v=96
101880 On ch=1 n=g6 v=96
102000 Off ch=1 n=g6 v=80
102000 Off ch=1 n=c7 v=80
102000 On ch=1 n=d7 v=99
102120 Off ch=1 n=d7 v=80
102120 On ch=1 n=e7 v=99
102240 Off ch=1 n=e7 v=80
102240 On ch=1 n=f7 v=102
102240 On ch=1 n=c7 v=102
102240 On ch=1 n=a6 v=102
102480 Off ch=1 n=a6 v=80
102480 Off ch=1 n=c7 v=80
102480 Off ch=1 n=f7 v=80
102480 On ch=1 n=f6 v=102
102480 On ch=1 n=a5 v=102
102480 On ch=1 n=c6 v=102
102720 Off ch=1 n=c6 v=80
102720 Off ch=1 n=a5 v=80
102720 Off ch=1 n=f6 v=80
102720 On ch=1 n=f5 v=102
102840 On ch=1 n=d5 v=102
102960 Off ch=1 n=d5 v=80
102960 Off ch=1 n=f5 v=80
102960 On ch=1 n=g5 v=102
103080 Off ch=1 n=g5 v=80
103080 On ch=1 n=a5 v=102
103200 Off ch=1 n=a5 v=80
103200 On ch=1 n=a#5 v=102
103320 Off ch=1 n=a#5 v=80
103320 On ch=1 n=d5 v=102
103440 Off ch=1 n=d5 v=80
103440 On ch=1 n=d6 v=102
103560 Off ch=1 n=d6 v=80
103680 On ch=1 n=f6 v=65
103800 On ch=1 n=g#5 v=65
103920 Off ch=1 n=g#5 v=80
104160 Off ch=1 n=f6 v=80
104160 On ch=1 n=d#6 v=65
104280 On ch=1 n=g5 v=65
104400 Off ch=1 n=g5 v=80
104640 Off ch=1 n=d#6 v=80
104640 On ch=1 n=d6 v=65
104760 On ch=1 n=f5 v=65
104880 Off ch=1 n=f5 v=80
104880 Off ch=1 n=d6 v=80
104880 On ch=1 n=d#6 v=65
105000 Off ch=1 n=d#6 v=80
105000 On ch=1 n=d6 v=65
105120 Off ch=1 n=d6 v=80
105120 On ch=1 n=c6 v=65
105240 Off ch=1 n=c6 v=80
105240 On ch=1 n=e5 v=65
105360 Off ch=1 n=e5 v=80
105360 On ch=1 n=d6 v=65
105480 Off ch=1 n=d6 v=80
105600 On ch=1 n=f5 v=102
105720 On ch=1 n=d5 v=90
105840 Off ch=1 n=d5 v=80
105840 Off ch=1 n=f5 v=80
105840 On ch=1 n=g5 v=102
105960 Off ch=1 n=g5 v=80
105960 On ch=1 n=a5 v=102
106080 Off ch=1 n=a5 v=80
106080 On ch=1 n=a#5 v=102
106200 Off ch=1 n=a#5 v=80
106200 On ch=1 n=d5 v=90
106320 Off ch=1 n=d5 v=80
106320 On ch=1 n=d6 v=102
106440 Off ch=1 n=d6 v=80
106560 On ch=1 n=f5 v=65
106680 On ch=1 n=d5 v=53
106800 Off ch=1 n=d5 v=80
106800 Off ch=1 n=f5 v=80
106800 On ch=1 n=g5 v=65
106920 Off ch=1 n=g5 v=80
106920 On ch=1 n=a5 v=65
107040 Off ch=1 n=a5 v=80
107040 On ch=1 n=a#5 v=65
107160 Off ch=1 n=a#5 v=80
107160 On ch=1 n=d5 v=53
107280 Off ch=1 n=d5 v=80
107280 On ch=1 n=d6 v=65
107400 Off ch=1 n=d6 v=80
107520 On ch=1 n=g6 v=80
107638 On ch=1 n=g5 v=65
107758 Off ch=1 n=g5 v=80
108000 Off ch=1 n=g6 v=80
108000 On ch=1 n=f6 v=65
108118 On ch=1 n=g5 v=53
108238 Off ch=1 n=g5 v=80
108480 Off ch=1 n=f6 v=80
108480 On ch=1 n=d#6 v=65
108600 On ch=1 n=g5 v=53
108720 Off ch=1 n=g5 v=80
108720 Off ch=1 n=d#6 v=80
108720 On ch=1 n=f6 v=65
108840 Off ch=1 n=f6 v=80
108840 On ch=1 n=d#6 v=65
108960 Off ch=1 n=d#6 v=80
108960 On ch=1 n=d6 v=65
109080 Off ch=1 n=d6 v=80
109080 On ch=1 n=g5 v=53
109200 Off ch=1 n=g5 v=80
109200 On ch=1 n=d#6 v=65
109320 Off ch=1 n=d#6 v=80
109440 On ch=1 n=a#5 v=102
109560 On ch=1 n=g5 v=90
109680 Off ch=1 n=g5 v=80
109680 Off ch=1 n=a#5 v=80
109680 On ch=1 n=c6 v=102
109800 Off ch=1 n=c6 v=80
109800 On ch=1 n=d6 v=102
109920 Off ch=1 n=d6 v=80
109920 On ch=1 n=d#6 v=102
110040 Off ch=1 n=d#6 v=80
110040 On ch=1 n=g5 v=90
110160 Off ch=1 n=g5 v=80
110160 On ch=1 n=g6 v=102
110280 Off ch=1 n=g6 v=80
110400 On ch=1 n=a#5 v=65
110520 On ch=1 n=g5 v=53
110640 Off ch=1 n=g5 v=80
110640 Off ch=1 n=a#5 v=80
110640 On ch=1 n=c6 v=65
110760 Off ch=1 n=c6 v=80
110760 On ch=1 n=d6 v=65
110880 Off ch=1 n=d6 v=80
110880 On ch=1 n=d#6 v=65
111000 Off ch=1 n=d#6 v=80
111000 On ch=1 n=g5 v=53
111120 Off ch=1 n=g5 v=80
111120 On ch=1 n=g6 v=65
111240 Off ch=1 n=g6 v=80
111360 On ch=1 n=c7 v=80
111478 On ch=1 n=c6 v=53
111598 Off ch=1 n=c6 v=80
111840 Off ch=1 n=c7 v=80
111840 On ch=1 n=a#6 v=65
111958 On ch=1 n=c6 v=53
112078 Off ch=1 n=c6 v=80
112320 Off ch=1 n=a#6 v=80
112320 On ch=1 n=a6 v=65
112440 On ch=1 n=c6 v=53
112560 Off ch=1 n=c6 v=80
112560 Off ch=1 n=a6 v=80
112560 On ch=1 n=g6 v=65
112680 Off ch=1 n=g6 v=80
112680 On ch=1 n=f6 v=65
112800 Off ch=1 n=f6 v=80
112800 On ch=1 n=a#6 v=65
112920 On ch=1 n=a#5 v=53
113040 Off ch=1 n=a#5 v=80
113040 Off ch=1 n=a#6 v=80
113040 On ch=1 n=f#6 v=65
113280 Off ch=1 n=f#6 v=80
113280 On ch=1 n=g6 v=65
113400 On ch=1 n=g5 v=53
113520 Off ch=1 n=g5 v=80
113520 Off ch=1 n=g6 v=80
113520 On ch=1 n=f6 v=65
113640 Off ch=1 n=f6 v=80
113640 On ch=1 n=d#6 v=65
113760 Off ch=1 n=d#6 v=80
113760 On ch=1 n=d6 v=65
113880 On ch=1 n=f5 v=53
114000 Off ch=1 n=f5 v=80
114000 Off ch=1 n=d6 v=80
114000 On ch=1 n=c6 v=65
114240 Off ch=1 n=c6 v=80
114240 On ch=1 n=f5 v=65
114360 On ch=1 n=d5 v=65
114480 Off ch=1 n=d5 v=80
114480 Off ch=1 n=f5 v=80
114480 On ch=1 n=g5 v=65
114600 Off ch=1 n=g5 v=80
114600 On ch=1 n=a5 v=65
114720 Off ch=1 n=a5 v=80
114720 On ch=1 n=a#5 v=65
114840 On ch=1 n=d5 v=65
114960 Off ch=1 n=d5 v=80
114960 Off ch=1 n=a#5 v=80
114960 On ch=1 n=d6 v=65
115200 Off ch=1 n=d6 v=80
115200 On ch=1 n=f6 v=60
115320 On ch=1 n=d#5 v=48
115440 Off ch=1 n=d#5 v=80
115440 Off ch=1 n=f6 v=80
115440 On ch=1 n=d#6 v=60
115560 Off ch=1 n=d#6 v=80
115560 On ch=1 n=d6 v=60
115680 Off ch=1 n=d6 v=80
115680 On ch=1 n=c6 v=55
115800 On ch=1 n=d#5 v=43
115920 Off ch=1 n=d#5 v=80
115920 Off ch=1 n=c6 v=80
115920 On ch=1 n=c#6 v=55
116160 Off ch=1 n=c#6 v=80
116160 On ch=1 n=d6 v=50
116280 On ch=1 n=d5 v=38
116400 Off ch=1 n=d5 v=80
116400 Off ch=1 n=d6 v=80
116400 On ch=1 n=c6 v=50
116520 Off ch=1 n=c6 v=80
116520 On ch=1 n=a#5 v=50
116640 Off ch=1 n=a#5 v=80
116640 On ch=1 n=a5 v=45
116760 On ch=1 n=d5 v=33
116880 Off ch=1 n=d5 v=80
116880 Off ch=1 n=a5 v=80
116880 On ch=1 n=g5 v=45
117120 Off ch=1 n=g5 v=80
117120 On ch=1 n=f5 v=41
117240 On ch=1 n=a4 v=41
117360 Off ch=1 n=a4 v=80
117360 On ch=1 n=d#5 v=41
117480 Off ch=1 n=d#5 v=80
117480 On ch=1 n=d5 v=41
117600 Off ch=1 n=d5 v=80
117600 On ch=1 n=d#5 v=41
117720 Off ch=1 n=d#5 v=80
117720 On ch=1 n=a4 v=41
117840 Off ch=1 n=a4 v=80
117840 On ch=1 n=d5 v=41
117960 Off ch=1 n=d5 v=80
117960 On ch=1 n=c5 v=41
118080 Off ch=1 n=f5 v=80
118080 Off ch=1 n=c5 v=80
118080 On ch=1 n=f5 v=49
118200 On ch=1 n=d5 v=49
118320 Off ch=1 n=d5 v=80
118320 Off ch=1 n=f5 v=80
118320 On ch=1 n=g5 v=49
118440 Off ch=1 n=g5 v=80
118440 On ch=1 n=a5 v=49
118560 Off ch=1 n=a5 v=80
118560 On ch=1 n=a#5 v=57
118680 On ch=1 n=d5 v=57
118800 Off ch=1 n=d5 v=80
118800 Off ch=1 n=a#5 v=80
118800 On ch=1 n=d6 v=57
119040 Off ch=1 n=d6 v=80
119040 On ch=1 n=f6 v=60
119160 On ch=1 n=d#5 v=48
119280 Off ch=1 n=d#5 v=80
119280 Off ch=1 n=f6 v=80
119280 On ch=1 n=d#6 v=60
119400 Off ch=1 n=d#6 v=80
119400 On ch=1 n=d6 v=60
119520 Off ch=1 n=d6 v=80
119520 On ch=1 n=c6 v=55
119640 On ch=1 n=d#5 v=43
119760 Off ch=1 n=d#5 v=80
119760 Off ch=1 n=c6 v=80
119760 On ch=1 n=c#6 v=55
120000 Off ch=1 n=c#6 v=80
120000 On ch=1 n=d6 v=50
120120 On ch=1 n=d5 v=38
120240 Off ch=1 n=d5 v=80
120240 Off ch=1 n=d6 v=80
120240 On ch=1 n=c6 v=50
120360 Off ch=1 n=c6 v=80
120360 On ch=1 n=a#5 v=50
120480 Off ch=1 n=a#5 v=80
120480 On ch=1 n=a5 v=45
120600 On ch=1 n=d5 v=33
120720 Off ch=1 n=d5 v=80
120720 Off ch=1 n=a5 v=80
120720 On ch=1 n=g5 v=45
120960 Off ch=1 n=g5 v=80
120960 On ch=1 n=f5 v=41
121080 On ch=1 n=a4 v=41
121200 Off ch=1 n=a4 v=80
121200 On ch=1 n=d#5 v=41
121320 Off ch=1 n=d#5 v=80
121320 On ch=1 n=d5 v=41
121440 Off ch=1 n=d5 v=80
121440 On ch=1 n=d#5 v=41
121560 Off ch=1 n=d#5 v=80
121560 On ch=1 n=a4 v=41
121680 Off ch=1 n=a4 v=80
121680 On ch=1 n=d5 v=41
121800 Off ch=1 n=d5 v=80
121800 On ch=1 n=c5 v=41
121920 Off ch=1 n=f5 v=80
121920 Off ch=1 n=c5 v=80
121920 On ch=1 n=a#4 v=41
122400 Off ch=1 n=a#4 v=80
122400 On ch=1 n=c5 v=56
122400 On ch=1 n=a4 v=56
123000 Off ch=1 n=a4 v=80
123000 Off ch=1 n=c5 v=80
123000 On ch=1 n=d5 v=56
123240 Off ch=1 n=d5 v=80
123240 On ch=1 n=d#5 v=41
123360 Off ch=1 n=d#5 v=80
123360 On ch=1 n=c#5 v=62
123360 On ch=1 n=e5 v=62
123600 Off ch=1 n=e5 v=80
123600 On ch=1 n=f5 v=47
123720 Off ch=1 n=f5 v=80
123720 On ch=1 n=g5 v=47
123840 Off ch=1 n=c#5 v=80
123840 Off ch=1 n=g5 v=80
123840 On ch=1 n=d#5 v=68
123840 On ch=1 n=a5 v=68
124080 Off ch=1 n=a5 v=80
124080 On ch=1 n=a#5 v=53
124200 Off ch=1 n=a#5 v=80
124200 On ch=1 n=c6 v=53
124320 Off ch=1 n=d#5 v=80
124320 Off ch=1 n=c6 v=80
124320 On ch=1 n=d5 v=74
124320 On ch=1 n=d6 v=74
124800 Off ch=1 n=d6 v=80
124800 Off ch=1 n=d5 v=80
125280 On ch=1 n=d5 v=53
125520 Off ch=1 n=d5 v=80
125520 On ch=1 n=a4 v=53
125640 Off ch=1 n=a4 v=80
125640 On ch=1 n=f#4 v=53
125760 Off ch=1 n=f#4 v=80
125760 On ch=1 n=d5 v=53
126000 Off ch=1 n=d5 v=80
126000 On ch=1 n=a#4 v=53
126120 Off ch=1 n=a#4 v=80
126120 On ch=1 n=g4 v=53
126240 Off ch=1 n=g4 v=80
126240 On ch=1 n=d5 v=53
126480 Off ch=1 n=d5 v=80
126480 On ch=1 n=a4 v=53
126600 Off ch=1 n=a4 v=80
126600 On ch=1 n=f#4 v=53
126720 Off ch=1 n=f#4 v=80
126720 On ch=1 n=d5 v=53
126960 Off ch=1 n=d5 v=80
126960 On ch=1 n=a#4 v=53
127080 Off ch=1 n=a#4 v=80
127080 On ch=1 n=g4 v=53
127200 Off ch=1 n=g4 v=80
127200 On ch=1 n=d#5 v=53
127440 Off ch=1 n=d#5 v=80
127440 On ch=1 n=c5 v=53
127560 Off ch=1 n=c5 v=80
127560 On ch=1 n=g4 v=53
127680 Off ch=1 n=g4 v=80
127680 On ch=1 n=d5 v=53
127920 Off ch=1 n=d5 v=80
127920 On ch=1 n=a4 v=53
128040 Off ch=1 n=a4 v=80
128040 On ch=1 n=f#4 v=53
128160 Off ch=1 n=f#4 v=80
128160 On ch=1 n=d5 v=53
128400 Off ch=1 n=d5 v=80
128400 On ch=1 n=a4 v=53
128520 Off ch=1 n=a4 v=80
128520 On ch=1 n=f#4 v=53
128640 Off ch=1 n=f#4 v=80
128640 On ch=1 n=d5 v=53
128880 Off ch=1 n=d5 v=80
128880 On ch=1 n=a#4 v=53
129000 Off ch=1 n=a#4 v=80
129000 On ch=1 n=g4 v=53
129120 Off ch=1 n=g4 v=80
129120 On ch=1 n=d5 v=53
129360 Off ch=1 n=d5 v=80
129360 On ch=1 n=a4 v=53
129480 Off ch=1 n=a4 v=80
129480 On ch=1 n=f#4 v=53
129600 Off ch=1 n=f#4 v=80
129600 On ch=1 n=d5 v=53
129840 Off ch=1 n=d5 v=80
129840 On ch=1 n=a#4 v=53
129960 Off ch=1 n=a#4 v=80
129960 On ch=1 n=g4 v=53
130080 Off ch=1 n=g4 v=80
130080 On ch=1 n=d5 v=53
130320 Off ch=1 n=d5 v=80
130320 On ch=1 n=a#4 v=53
130440 Off ch=1 n=a#4 v=80
130440 On ch=1 n=g4 v=53
130560 Off ch=1 n=g4 v=80
130560 On ch=1 n=d5 v=53
130800 Off ch=1 n=d5 v=80
130800 On ch=1 n=a#4 v=53
130920 Off ch=1 n=a#4 v=80
130920 On ch=1 n=g4 v=53
131040 Off ch=1 n=g4 v=80
131040 On ch=1 n=d5 v=53
131280 Off ch=1 n=d5 v=80
131280 On ch=1 n=g#4 v=53
131400 Off ch=1 n=g#4 v=80
131400 On ch=1 n=f4 v=53
131520 Off ch=1 n=f4 v=80
131520 On ch=1 n=c5 v=53
131760 Off ch=1 n=c5 v=80
131760 On ch=1 n=a4 v=53
131880 Off ch=1 n=a4 v=80
131880 On ch=1 n=f4 v=53
132000 Off ch=1 n=f4 v=80
132000 On ch=1 n=c5 v=53
132240 Off ch=1 n=c5 v=80
132240 On ch=1 n=g4 v=53
132360 Off ch=1 n=g4 v=80
132360 On ch=1 n=e4 v=53
132480 Off ch=1 n=e4 v=80
132480 On ch=1 n=c5 v=53
132720 Off ch=1 n=c5 v=80
132720 On ch=1 n=a4 v=53
132840 Off ch=1 n=a4 v=80
132840 On ch=1 n=f4 v=53
132960 Off ch=1 n=f4 v=80
132960 On ch=1 n=c5 v=53
133200 Off ch=1 n=c5 v=80
133200 On ch=1 n=g4 v=53
133320 Off ch=1 n=g4 v=80
133320 On ch=1 n=e4 v=53
133440 Off ch=1 n=e4 v=80
133440 On ch=1 n=f5 v=53
133680 Off ch=1 n=f5 v=80
133680 On ch=1 n=c5 v=53
133800 Off ch=1 n=c5 v=80
133800 On ch=1 n=a4 v=53
133920 Off ch=1 n=a4 v=80
133920 On ch=1 n=g5 v=53
134160 Off ch=1 n=g5 v=80
134160 On ch=1 n=e5 v=53
134280 Off ch=1 n=e5 v=80
134280 On ch=1 n=c5 v=53
134400 Off ch=1 n=c5 v=80
134400 On ch=1 n=a5 v=53
134640 Off ch=1 n=a5 v=80
134640 On ch=1 n=f5 v=53
134760 Off ch=1 n=f5 v=80
134760 On ch=1 n=c5 v=53
134880 Off ch=1 n=c5 v=80
134880 On ch=1 n=c6 v=53
135120 Off ch=1 n=c6 v=80
135120 On ch=1 n=g5 v=53
135240 Off ch=1 n=g5 v=80
135240 On ch=1 n=e5 v=53
135360 Off ch=1 n=e5 v=80
135360 On ch=1 n=f6 v=53
135600 Off ch=1 n=f6 v=80
135600 On ch=1 n=c6 v=53
135720 Off ch=1 n=c6 v=80
135720 On ch=1 n=a5 v=53
135840 Off ch=1 n=a5 v=80
135840 On ch=1 n=c6 v=53
136080 Off ch=1 n=c6 v=80
136080 On ch=1 n=g5 v=53
136200 Off ch=1 n=g5 v=80
136200 On ch=1 n=e5 v=53
136320 Off ch=1 n=e5 v=80
136320 On ch=1 n=a5 v=53
136560 Off ch=1 n=a5 v=80
136560 On ch=1 n=f5 v=53
136680 Off ch=1 n=f5 v=80
136680 On ch=1 n=c5 v=53
136800 Off ch=1 n=c5 v=80
136800 On ch=1 n=g5 v=53
137040 Off ch=1 n=g5 v=80
137040 On ch=1 n=e5 v=53
137160 Off ch=1 n=e5 v=80
137160 On ch=1 n=c5 v=53
137280 Off ch=1 n=c5 v=80
137280 On ch=1 n=f5 v=53
137520 Off ch=1 n=f5 v=80
137520 On ch=1 n=c5 v=53
137640 Off ch=1 n=c5 v=80
137640 On ch=1 n=a4 v=53
137760 Off ch=1 n=a4 v=80
137760 On ch=1 n=g5 v=53
138000 Off ch=1 n=g5 v=80
138000 On ch=1 n=e5 v=53
138120 Off ch=1 n=e5 v=80
138120 On ch=1 n=c5 v=53
138240 Off ch=1 n=c5 v=80
138240 On ch=1 n=a5 v=53
138480 Off ch=1 n=a5 v=80
138480 On ch=1 n=f5 v=53
138600 Off ch=1 n=f5 v=80
138600 On ch=1 n=c5 v=53
138720 Off ch=1 n=c5 v=80
138720 On ch=1 n=c6 v=53
138960 Off ch=1 n=c6 v=80
138960 On ch=1 n=g5 v=53
139080 Off ch=1 n=g5 v=80
139080 On ch=1 n=e5 v=53
139200 Off ch=1 n=e5 v=80
139200 On ch=1 n=f6 v=53
139440 Off ch=1 n=f6 v=80
139440 On ch=1 n=c6 v=53
139560 Off ch=1 n=c6 v=80
139560 On ch=1 n=a5 v=53
139680 Off ch=1 n=a5 v=80
139680 On ch=1 n=c6 v=53
139920 Off ch=1 n=c6 v=80
139920 On ch=1 n=g5 v=53
140040 Off ch=1 n=g5 v=80
140040 On ch=1 n=e5 v=53
140160 Off ch=1 n=e5 v=80
140160 On ch=1 n=a5 v=53
140400 Off ch=1 n=a5 v=80
140400 On ch=1 n=f5 v=53
140520 Off ch=1 n=f5 v=80
140520 On ch=1 n=c5 v=53
140640 Off ch=1 n=c5 v=80
140640 On ch=1 n=g5 v=53
140880 Off ch=1 n=g5 v=80
140880 On ch=1 n=e5 v=53
141000 Off ch=1 n=e5 v=80
141000 On ch=1 n=c5 v=53
141120 Off ch=1 n=c5 v=80
141120 On ch=1 n=a5 v=53
141360 Off ch=1 n=a5 v=80
141360 On ch=1 n=f5 v=53
141480 Off ch=1 n=f5 v=80
141480 On ch=1 n=c5 v=53
141600 Off ch=1 n=c5 v=80
141600 On ch=1 n=c6 v=53
141840 Off ch=1 n=c6 v=80
141840 On ch=1 n=g5 v=53
141960 Off ch=1 n=g5 v=80
141960 On ch=1 n=e5 v=53
142080 Off ch=1 n=e5 v=80
142080 On ch=1 n=a5 v=53
142320 Off ch=1 n=a5 v=80
142320 On ch=1 n=f5 v=53
142440 Off ch=1 n=f5 v=80
142440 On ch=1 n=c5 v=53
142560 Off ch=1 n=c5 v=80
142560 On ch=1 n=g5 v=53
142800 Off ch=1 n=g5 v=80
142800 On ch=1 n=e5 v=53
142920 Off ch=1 n=e5 v=80
142920 On ch=1 n=c5 v=53
143040 Off ch=1 n=c5 v=80
143040 On ch=1 n=a5 v=53
143280 Off ch=1 n=a5 v=80
143280 On ch=1 n=f5 v=53
143400 Off ch=1 n=f5 v=80
143400 On ch=1 n=c5 v=53
143520 Off ch=1 n=c5 v=80
143520 On ch=1 n=c6 v=53
143760 Off ch=1 n=c6 v=80
143760 On ch=1 n=g5 v=53
143880 Off ch=1 n=g5 v=80
143880 On ch=1 n=e5 v=53
144000 Off ch=1 n=e5 v=80
144000 On ch=1 n=a5 v=53
144240 Off ch=1 n=a5 v=80
144240 On ch=1 n=f5 v=53
144360 Off ch=1 n=f5 v=80
144360 On ch=1 n=c5 v=53
144480 Off ch=1 n=c5 v=80
144480 On ch=1 n=g5 v=53
144720 Off ch=1 n=g5 v=80
144720 On ch=1 n=e5 v=53
144840 Off ch=1 n=e5 v=80
144840 On ch=1 n=c5 v=53
144960 Off ch=1 n=c5 v=80
144960 On ch=1 n=a5 v=53
145200 Off ch=1 n=a5 v=80
145200 On ch=1 n=f5 v=53
145320 Off ch=1 n=f5 v=80
145320 On ch=1 n=c5 v=53
145440 Off ch=1 n=c5 v=80
145440 On ch=1 n=c6 v=53
145680 Off ch=1 n=c6 v=80
145680 On ch=1 n=g5 v=53
145800 Off ch=1 n=g5 v=80
145800 On ch=1 n=e5 v=53
145920 Off ch=1 n=e5 v=80
145920 On ch=1 n=f6 v=53
146160 Off ch=1 n=f6 v=80
146160 On ch=1 n=c6 v=53
146280 Off ch=1 n=c6 v=80
146280 On ch=1 n=a5 v=53
146400 Off ch=1 n=a5 v=80
146400 On ch=1 n=g6 v=59
146640 Off ch=1 n=g6 v=80
146640 On ch=1 n=e6 v=59
146760 Off ch=1 n=e6 v=80
146760 On ch=1 n=c6 v=59
146880 Off ch=1 n=c6 v=80
146880 On ch=1 n=a6 v=65
147120 Off ch=1 n=a6 v=80
147120 On ch=1 n=f6 v=65
147240 Off ch=1 n=f6 v=80
147240 On ch=1 n=c6 v=65
147360 Off ch=1 n=c6 v=80
147360 On ch=1 n=c7 v=71
147600 Off ch=1 n=c7 v=80
147600 On ch=1 n=g6 v=71
147720 Off ch=1 n=g6 v=80
147720 On ch=1 n=e6 v=71
147840 Off ch=1 n=e6 v=80
147840 On ch=1 n=f6 v=77
147900 On ch=1 n=f7 v=77
149280 Off ch=1 n=f6 v=80
149340 Off ch=1 n=f7 v=80
149760 On ch=1 n=a#4 v=117
150240 Off ch=1 n=a#4 v=80
150240 On ch=1 n=d5 v=117
150240 On ch=1 n=a#5 v=117
150720 Off ch=1 n=a#5 v=80
150720 Off ch=1 n=d5 v=80
150720 On ch=1 n=f5 v=117
150720 On ch=1 n=d6 v=117
151200 Off ch=1 n=d6 v=80
151200 Off ch=1 n=f5 v=80
151200 On ch=1 n=a#5 v=117
151200 On ch=1 n=f6 v=117
151680 Off ch=1 n=f6 v=80
151680 On ch=1 n=a#6 v=117
152160 Off ch=1 n=a#5 v=80
152160 Off ch=1 n=a#6 v=80
152160 On ch=1 n=f6 v=102
152400 Off ch=1 n=f6 v=80
152400 On ch=1 n=g6 v=102
152640 Off ch=1 n=g6 v=80
152640 On ch=1 n=d#6 v=117
152640 On ch=1 n=a#5 v=117
153120 Off ch=1 n=a#5 v=80
153120 Off ch=1 n=d#6 v=80
153120 On ch=1 n=d6 v=117
153120 On ch=1 n=a#5 v=117
153120 On ch=1 n=f5 v=117
153600 Off ch=1 n=f5 v=80
153600 Off ch=1 n=a#5 v=80
153600 Off ch=1 n=d6 v=80
153600 On ch=1 n=c6 v=117
153600 On ch=1 n=g5 v=117
154080 Off ch=1 n=c6 v=80
154080 On ch=1 n=d6 v=117
154320 Off ch=1 n=d6 v=80
154320 On ch=1 n=d#6 v=117
154560 Off ch=1 n=g5 v=80
154560 Off ch=1 n=d#6 v=80
154560 On ch=1 n=d6 v=117
154560 On ch=1 n=a#5 v=117
154560 On ch=1 n=f5 v=117
155040 Off ch=1 n=f5 v=80
155040 Off ch=1 n=a#5 v=80
155040 Off ch=1 n=d6 v=80
155040 On ch=1 n=f5 v=117
155040 On ch=1 n=a5 v=117
155040 On ch=1 n=c6 v=117
155520 Off ch=1 n=c6 v=80
155520 Off ch=1 n=a5 v=80
155520 Off ch=1 n=f5 v=80
155520 On ch=1 n=f4 v=117
156000 Off ch=1 n=f4 v=80
156000 On ch=1 n=a4 v=117
156000 On ch=1 n=f5 v=117
156480 Off ch=1 n=f5 v=80
156480 Off ch=1 n=a4 v=80
156480 On ch=1 n=a5 v=117
156480 On ch=1 n=c5 v=117
156960 Off ch=1 n=c5 v=80
156960 Off ch=1 n=a5 v=80
156960 On ch=1 n=c6 v=117
156960 On ch=1 n=f5 v=117
157440 Off ch=1 n=c6 v=80
157440 On ch=1 n=f6 v=117
157920 Off ch=1 n=f5 v=80
157920 Off ch=1 n=f6 v=80
157920 On ch=1 n=c6 v=102
158160 Off ch=1 n=c6 v=80
158160 On ch=1 n=d6 v=102
158400 Off ch=1 n=d6 v=80
158400 On ch=1 n=a#5 v=117
158400 On ch=1 n=f5 v=117
158880 Off ch=1 n=f5 v=80
158880 Off ch=1 n=a#5 v=80
158880 On ch=1 n=f5 v=117
158880 On ch=1 n=a5 v=117
159360 Off ch=1 n=a5 v=80
159360 Off ch=1 n=f5 v=80
159360 On ch=1 n=d5 v=117
159360 On ch=1 n=g5 v=117
159840 Off ch=1 n=g5 v=80
159840 On ch=1 n=a5 v=117
160080 Off ch=1 n=a5 v=80
160080 On ch=1 n=a#5 v=117
160320 Off ch=1 n=d5 v=80
160320 Off ch=1 n=a#5 v=80
160320 On ch=1 n=a5 v=117
160320 On ch=1 n=f5 v=117
160800 Off ch=1 n=f5 v=80
160800 Off ch=1 n=a5 v=80
160800 On ch=1 n=g5 v=117
160800 On ch=1 n=e5 v=117
161280 Off ch=1 n=e5 v=80
161280 Off ch=1 n=g5 v=80
161280 On ch=1 n=c5 v=122
161280 On ch=1 n=f5 v=122
161520 Off ch=1 n=f5 v=80
161520 Off ch=1 n=c5 v=80
161760 On ch=1 n=e5 v=76
161760 On ch=1 n=g5 v=76
162360 Off ch=1 n=g5 v=80
162360 Off ch=1 n=e5 v=80
162360 On ch=1 n=a5 v=76
162600 Off ch=1 n=a5 v=80
162600 On ch=1 n=a#5 v=61
162720 Off ch=1 n=a#5 v=80
162720 On ch=1 n=g#5 v=82
162720 On ch=1 n=b5 v=82
162960 Off ch=1 n=b5 v=80
162960 On ch=1 n=c6 v=67
163080 Off ch=1 n=c6 v=80
163080 On ch=1 n=d6 v=67
163200 Off ch=1 n=g#5 v=80
163200 Off ch=1 n=d6 v=80
163200 On ch=1 n=a#5 v=88
163200 On ch=1 n=e6 v=88
163440 Off ch=1 n=e6 v=80
163440 On ch=1 n=f6 v=73
163560 Off ch=1 n=f6 v=80
163560 On ch=1 n=g6 v=73
163680 Off ch=1 n=a#5 v=80
163680 Off ch=1 n=g6 v=80
163680 On ch=1 n=a5 v=94
163680 On ch=1 n=a6 v=94
164160 Off ch=1 n=a6 v=80
164160 Off ch=1 n=a5 v=80
164640 On ch=1 n=d6 v=65
164800 Off ch=1 n=d6 v=80
164800 On ch=1 n=g5 v=65
164960 Off ch=1 n=g5 v=80
164960 On ch=1 n=d6 v=65
165120 Off ch=1 n=d6 v=80
165120 On ch=1 n=g6 v=65
165280 Off ch=1 n=g6 v=80
165280 On ch=1 n=g5 v=65
165440 Off ch=1 n=g5 v=80
165440 On ch=1 n=g6 v=65
165600 Off ch=1 n=g6 v=80
165600 On ch=1 n=d6 v=65
165760 Off ch=1 n=d6 v=80
165760 On ch=1 n=g5 v=65
165920 Off ch=1 n=g5 v=80
165920 On ch=1 n=d6 v=65
166080 Off ch=1 n=d6 v=80
166080 On ch=1 n=g6 v=65
166240 Off ch=1 n=g6 v=80
166240 On ch=1 n=g5 v=65
166400 Off ch=1 n=g5 v=80
166400 On ch=1 n=g6 v=65
166560 Off ch=1 n=g6 v=80
166560 On ch=1 n=d6 v=65
166720 Off ch=1 n=d6 v=80
166720 On ch=1 n=g5 v=65
166880 Off ch=1 n=g5 v=80
166880 On ch=1 n=d6 v=65
167040 Off ch=1 n=d6 v=80
167040 On ch=1 n=g6 v=65
167200 Off ch=1 n=g6 v=80
167200 On ch=1 n=g5 v=65
167360 Off ch=1 n=g5 v=80
167360 On ch=1 n=g6 v=65
167520 Off ch=1 n=g6 v=80
167520 On ch=1 n=f6 v=65
167680 Off ch=1 n=f6 v=80
167680 On ch=1 n=g5 v=65
167840 Off ch=1 n=g5 v=80
167840 On ch=1 n=f6 v=65
168000 Off ch=1 n=f6 v=80
168000 On ch=1 n=e6 v=65
168160 Off ch=1 n=e6 v=80
168160 On ch=1 n=g5 v=65
168320 Off ch=1 n=g5 v=80
168320 On ch=1 n=e6 v=65
168480 Off ch=1 n=e6 v=80
168480 On ch=1 n=d6 v=65
168640 Off ch=1 n=d6 v=80
168640 On ch=1 n=g5 v=65
168800 Off ch=1 n=g5 v=80
168800 On ch=1 n=d6 v=65
168960 Off ch=1 n=d6 v=80
168960 On ch=1 n=g6 v=65
169120 Off ch=1 n=g6 v=80
169120 On ch=1 n=g5 v=65
169280 Off ch=1 n=g5 v=80
169280 On ch=1 n=g6 v=65
169440 Off ch=1 n=g6 v=80
169440 On ch=1 n=d6 v=65
169600 Off ch=1 n=d6 v=80
169600 On ch=1 n=g5 v=65
169760 Off ch=1 n=g5 v=80
169760 On ch=1 n=d6 v=65
169920 Off ch=1 n=d6 v=80
169920 On ch=1 n=g6 v=65
170080 Off ch=1 n=g6 v=80
170080 On ch=1 n=g5 v=65
170240 Off ch=1 n=g5 v=80
170240 On ch=1 n=g6 v=65
170400 Off ch=1 n=g6 v=80
170400 On ch=1 n=d6 v=65
170560 Off ch=1 n=d6 v=80
170560 On ch=1 n=g5 v=65
170720 Off ch=1 n=g5 v=80
170720 On ch=1 n=d6 v=65
170880 Off ch=1 n=d6 v=80
170880 On ch=1 n=g6 v=65
171040 Off ch=1 n=g6 v=80
171040 On ch=1 n=g5 v=65
171200 Off ch=1 n=g5 v=80
171200 On ch=1 n=g6 v=65
171360 Off ch=1 n=g6 v=80
171360 On ch=1 n=f6 v=65
171520 Off ch=1 n=f6 v=80
171520 On ch=1 n=g5 v=65
171680 Off ch=1 n=g5 v=80
171680 On ch=1 n=f6 v=65
171840 Off ch=1 n=f6 v=80
171840 On ch=1 n=e6 v=65
172000 Off ch=1 n=e6 v=80
172000 On ch=1 n=g5 v=65
172160 Off ch=1 n=g5 v=80
172160 On ch=1 n=e6 v=65
172320 Off ch=1 n=e6 v=80
172320 On ch=1 n=g6 v=65
172480 Off ch=1 n=g6 v=80
172480 On ch=1 n=c6 v=65
172640 Off ch=1 n=c6 v=80
172640 On ch=1 n=g6 v=65
172800 Off ch=1 n=g6 v=80
172800 On ch=1 n=c7 v=65
172960 Off ch=1 n=c7 v=80
172960 On ch=1 n=c6 v=65
173120 Off ch=1 n=c6 v=80
173120 On ch=1 n=c7 v=65
173280 Off ch=1 n=c7 v=80
173280 On ch=1 n=g6 v=65
173440 Off ch=1 n=g6 v=80
173440 On ch=1 n=c6 v=65
173600 Off ch=1 n=c6 v=80
173600 On ch=1 n=g6 v=65
173760 Off ch=1 n=g6 v=80
173760 On ch=1 n=c7 v=65
173920 Off ch=1 n=c7 v=80
173920 On ch=1 n=c6 v=65
174080 Off ch=1 n=c6 v=80
174080 On ch=1 n=c7 v=65
174240 Off ch=1 n=c7 v=80
174240 On ch=1 n=g6 v=65
174400 Off ch=1 n=g6 v=80
174400 On ch=1 n=c6 v=65
174560 Off ch=1 n=c6 v=80
174560 On ch=1 n=g6 v=65
174720 Off ch=1 n=g6 v=80
174720 On ch=1 n=c7 v=73
174880 Off ch=1 n=c7 v=80
174880 On ch=1 n=c6 v=73
175040 Off ch=1 n=c6 v=80
175040 On ch=1 n=c7 v=73
175200 Off ch=1 n=c7 v=80
175200 On ch=1 n=a#6 v=81
175360 Off ch=1 n=a#6 v=80
175360 On ch=1 n=c6 v=81
175520 Off ch=1 n=c6 v=80
175520 On ch=1 n=a#6 v=81
175680 Off ch=1 n=a#6 v=80
175680 On ch=1 n=a6 v=89
175840 Off ch=1 n=a6 v=80
175840 On ch=1 n=c6 v=89
176000 Off ch=1 n=c6 v=80
176000 On ch=1 n=a6 v=89
176160 Off ch=1 n=a6 v=80
176160 On ch=1 n=g6 v=65
176320 Off ch=1 n=g6 v=80
176320 On ch=1 n=c6 v=65
176480 Off ch=1 n=c6 v=80
176480 On ch=1 n=g6 v=65
176640 Off ch=1 n=g6 v=80
176640 On ch=1 n=c7 v=65
176800 Off ch=1 n=c7 v=80
176800 On ch=1 n=c6 v=65
176960 Off ch=1 n=c6 v=80
176960 On ch=1 n=c7 v=65
177120 Off ch=1 n=c7 v=80
177120 On ch=1 n=g6 v=65
177280 Off ch=1 n=g6 v=80
177280 On ch=1 n=c6 v=65
177440 Off ch=1 n=c6 v=80
177440 On ch=1 n=g6 v=65
177600 Off ch=1 n=g6 v=80
177600 On ch=1 n=c7 v=65
177760 Off ch=1 n=c7 v=80
177760 On ch=1 n=c6 v=65
177920 Off ch=1 n=c6 v=80
177920 On ch=1 n=c7 v=65
178080 Off ch=1 n=c7 v=80
178080 On ch=1 n=g6 v=65
178240 Off ch=1 n=g6 v=80
178240 On ch=1 n=c6 v=65
178400 Off ch=1 n=c6 v=80
178400 On ch=1 n=g6 v=65
178560 Off ch=1 n=g6 v=80
178560 On ch=1 n=c7 v=73
178720 Off ch=1 n=c7 v=80
178720 On ch=1 n=c6 v=73
178880 Off ch=1 n=c6 v=80
178880 On ch=1 n=c7 v=73
179040 Off ch=1 n=c7 v=80
179040 On ch=1 n=a#6 v=81
179200 Off ch=1 n=a#6 v=80
179200 On ch=1 n=c6 v=81
179360 Off ch=1 n=c6 v=80
179360 On ch=1 n=a#6 v=81
179520 Off ch=1 n=a#6 v=80
179520 On ch=1 n=a6 v=89
179680 Off ch=1 n=a6 v=80
179680 On ch=1 n=c6 v=89
179840 Off ch=1 n=c6 v=80
179840 On ch=1 n=a6 v=89
180000 Off ch=1 n=a6 v=80
180000 On ch=1 n=f6 v=102
180160 Off ch=1 n=f6 v=80
180160 On ch=1 n=c6 v=102
180320 Off ch=1 n=c6 v=80
180320 On ch=1 n=f6 v=102
180480 Off ch=1 n=f6 v=80
180480 On ch=1 n=a#6 v=102
180640 Off ch=1 n=a#6 v=80
180640 On ch=1 n=a#5 v=102
180800 Off ch=1 n=a#5 v=80
180800 On ch=1 n=a#6 v=102
180960 Off ch=1 n=a#6 v=80
180960 On ch=1 n=f6 v=102
181120 Off ch=1 n=f6 v=80
181120 On ch=1 n=a#5 v=102
181280 Off ch=1 n=a#5 v=80
181280 On ch=1 n=f6 v=102
181440 Off ch=1 n=f6 v=80
181440 On ch=1 n=a#6 v=102
181600 Off ch=1 n=a#6 v=80
181600 On ch=1 n=a#5 v=102
181760 Off ch=1 n=a#5 v=80
181760 On ch=1 n=a#6 v=102
181920 Off ch=1 n=a#6 v=80
181920 On ch=1 n=d#6 v=102
182080 Off ch=1 n=d#6 v=80
182080 On ch=1 n=a#5 v=102
182240 Off ch=1 n=a#5 v=80
182240 On ch=1 n=d#6 v=102
182400 Off ch=1 n=d#6 v=80
182400 On ch=1 n=a#6 v=102
182560 Off ch=1 n=a#6 v=80
182560 On ch=1 n=a#5 v=102
182720 Off ch=1 n=a#5 v=80
182720 On ch=1 n=a#6 v=102
182880 Off ch=1 n=a#6 v=80
182880 On ch=1 n=d#6 v=102
183040 Off ch=1 n=d#6 v=80
183040 On ch=1 n=a5 v=102
183200 Off ch=1 n=a5 v=80
183200 On ch=1 n=d#6 v=102
183360 Off ch=1 n=d#6 v=80
183360 On ch=1 n=a6 v=102
183520 Off ch=1 n=a6 v=80
183520 On ch=1 n=a5 v=102
183680 Off ch=1 n=a5 v=80
183680 On ch=1 n=a6 v=102
183840 Off ch=1 n=a6 v=80
183840 On ch=1 n=d6 v=102
184000 Off ch=1 n=d6 v=80
184000 On ch=1 n=a5 v=102
184160 Off ch=1 n=a5 v=80
184160 On ch=1 n=d6 v=102
184320 Off ch=1 n=d6 v=80
184320 On ch=1 n=a6 v=102
184480 Off ch=1 n=a6 v=80
184480 On ch=1 n=a5 v=102
184640 Off ch=1 n=a5 v=80
184640 On ch=1 n=a6 v=102
184800 Off ch=1 n=a6 v=80
184800 On ch=1 n=d6 v=102
184960 Off ch=1 n=d6 v=80
184960 On ch=1 n=a5 v=102
185120 Off ch=1 n=a5 v=80
185120 On ch=1 n=d6 v=102
185280 Off ch=1 n=d6 v=80
185280 On ch=1 n=g6 v=102
185440 Off ch=1 n=g6 v=80
185440 On ch=1 n=g5 v=102
185600 Off ch=1 n=g5 v=80
185600 On ch=1 n=g6 v=102
185760 Off ch=1 n=g6 v=80
185760 On ch=1 n=c6 v=102
185920 Off ch=1 n=c6 v=80
185920 On ch=1 n=g5 v=102
186080 Off ch=1 n=g5 v=80
186080 On ch=1 n=c6 v=102
186240 Off ch=1 n=c6 v=80
186240 On ch=1 n=g6 v=102
186400 Off ch=1 n=g6 v=80
186400 On ch=1 n=g5 v=102
186560 Off ch=1 n=g5 v=80
186560 On ch=1 n=g6 v=102
186720 Off ch=1 n=g6 v=80
186720 On ch=1 n=c6 v=102
186880 Off ch=1 n=c6 v=80
186880 On ch=1 n=f5 v=102
187040 Off ch=1 n=f5 v=80
187040 On ch=1 n=c6 v=102
187200 Off ch=1 n=c6 v=80
187200 On ch=1 n=f6 v=102
187360 Off ch=1 n=f6 v=80
187360 On ch=1 n=f5 v=102
187520 Off ch=1 n=f5 v=80
187520 On ch=1 n=f6 v=102
187680 Off ch=1 n=f6 v=80
187680 On ch=1 n=a#5 v=102
187840 Off ch=1 n=a#5 v=80
187840 On ch=1 n=f5 v=102
188000 Off ch=1 n=f5 v=80
188000 On ch=1 n=a#5 v=102
188160 Off ch=1 n=a#5 v=80
188160 On ch=1 n=f6 v=102
188320 Off ch=1 n=f6 v=80
188320 On ch=1 n=f5 v=102
188480 Off ch=1 n=f5 v=80
188480 On ch=1 n=f6 v=102
188640 Off ch=1 n=f6 v=80
188640 On ch=1 n=a#5 v=102
188800 Off ch=1 n=a#5 v=80
188800 On ch=1 n=d#5 v=102
188960 Off ch=1 n=d#5 v=80
188960 On ch=1 n=a#5 v=102
189120 Off ch=1 n=a#5 v=80
189120 On ch=1 n=d#6 v=102
189280 Off ch=1 n=d#6 v=80
189280 On ch=1 n=d#5 v=102
189440 Off ch=1 n=d#5 v=80
189440 On ch=1 n=d#6 v=102
189600 Off ch=1 n=d#6 v=80
189600 On ch=1 n=a5 v=102
189760 Off ch=1 n=a5 v=80
189760 On ch=1 n=d#5 v=102
189920 Off ch=1 n=d#5 v=80
189920 On ch=1 n=a5 v=102
190080 Off ch=1 n=a5 v=80
190080 On ch=1 n=d#6 v=102
190240 Off ch=1 n=d#6 v=80
190240 On ch=1 n=d#5 v=102
190400 Off ch=1 n=d#5 v=80
190400 On ch=1 n=d#6 v=102
190560 Off ch=1 n=d#6 v=80
190560 On ch=1 n=g#5 v=102
190720 Off ch=1 n=g#5 v=80
190720 On ch=1 n=d5 v=102
190880 Off ch=1 n=d5 v=80
190880 On ch=1 n=g#5 v=102
191040 Off ch=1 n=g#5 v=80
191040 On ch=1 n=d6 v=102
191200 Off ch=1 n=d6 v=80
191200 On ch=1 n=d5 v=102
191360 Off ch=1 n=d5 v=80
191360 On ch=1 n=d6 v=102
191520 Off ch=1 n=d6 v=80
191520 On ch=1 n=g#5 v=65
191680 Off ch=1 n=g#5 v=80
191680 On ch=1 n=d5 v=65
191840 Off ch=1 n=d5 v=80
191840 On ch=1 n=g#5 v=65
192000 Off ch=1 n=g#5 v=80
192000 On ch=1 n=d6 v=80
192160 Off ch=1 n=d6 v=80
192160 On ch=1 n=d5 v=65
192320 Off ch=1 n=d5 v=80
192320 On ch=1 n=d6 v=65
192480 Off ch=1 n=d6 v=80
192480 On ch=1 n=g5 v=65
192640 Off ch=1 n=g5 v=80
192640 On ch=1 n=d5 v=65
192800 Off ch=1 n=d5 v=80
192800 On ch=1 n=g5 v=65
192960 Off ch=1 n=g5 v=80
192960 On ch=1 n=d6 v=80
193120 Off ch=1 n=d6 v=80
193120 On ch=1 n=d5 v=65
193280 Off ch=1 n=d5 v=80
193280 On ch=1 n=d6 v=65
193440 Off ch=1 n=d6 v=80
193440 On ch=1 n=f5 v=65
193600 Off ch=1 n=f5 v=80
193600 On ch=1 n=d5 v=65
193760 Off ch=1 n=d5 v=80
193760 On ch=1 n=f5 v=65
193920 Off ch=1 n=f5 v=80
193920 On ch=1 n=d6 v=80
194080 Off ch=1 n=d6 v=80
194080 On ch=1 n=d5 v=65
194240 Off ch=1 n=d5 v=80
194240 On ch=1 n=d6 v=65
194400 Off ch=1 n=d6 v=80
194400 On ch=1 n=d#5 v=71
194560 Off ch=1 n=d#5 v=80
194560 On ch=1 n=d5 v=71
194720 Off ch=1 n=d5 v=80
194720 On ch=1 n=d#5 v=71
194880 Off ch=1 n=d#5 v=80
194880 On ch=1 n=c6 v=92
195040 Off ch=1 n=c6 v=80
195040 On ch=1 n=c5 v=77
195200 Off ch=1 n=c5 v=80
195200 On ch=1 n=c6 v=77
195360 Off ch=1 n=c6 v=80
195360 On ch=1 n=d#5 v=77
195520 Off ch=1 n=d#5 v=80
195520 On ch=1 n=c5 v=77
195680 Off ch=1 n=c5 v=80
195680 On ch=1 n=d#5 v=77
195840 Off ch=1 n=d#5 v=80
195840 On ch=1 n=c6 v=98
196000 Off ch=1 n=c6 v=80
196000 On ch=1 n=c5 v=83
196160 Off ch=1 n=c5 v=80
196160 On ch=1 n=c6 v=83
196320 Off ch=1 n=c6 v=80
196320 On ch=1 n=d5 v=83
196480 Off ch=1 n=d5 v=80
196480 On ch=1 n=c5 v=83
196640 Off ch=1 n=c5 v=80
196640 On ch=1 n=d5 v=83
196800 Off ch=1 n=d5 v=80
196800 On ch=1 n=b5 v=104
196960 Off ch=1 n=b5 v=80
196960 On ch=1 n=b4 v=89
197120 Off ch=1 n=b4 v=80
197120 On ch=1 n=b5 v=89
197280 Off ch=1 n=b5 v=80
197280 On ch=1 n=d5 v=89
197440 Off ch=1 n=d5 v=80
197440 On ch=1 n=b4 v=89
197600 Off ch=1 n=b4 v=80
197600 On ch=1 n=d5 v=89
197760 Off ch=1 n=d5 v=80
197760 On ch=1 n=b5 v=110
197920 Off ch=1 n=b5 v=80
197920 On ch=1 n=b4 v=95
198080 Off ch=1 n=b4 v=80
198080 On ch=1 n=b5 v=95
198240 Off ch=1 n=b5 v=80
198240 On ch=1 n=d#5 v=95
198400 Off ch=1 n=d#5 v=80
198400 On ch=1 n=c5 v=95
198560 Off ch=1 n=c5 v=80
198560 On ch=1 n=d#5 v=95
198720 Off ch=1 n=d#5 v=80
198720 On ch=1 n=c6 v=110
198880 Off ch=1 n=c6 v=80
198880 On ch=1 n=c5 v=95
199040 Off ch=1 n=c5 v=80
199040 On ch=1 n=c6 v=95
199200 Off ch=1 n=c6 v=80
199200 On ch=1 n=f#5 v=65
199360 Off ch=1 n=f#5 v=80
199360 On ch=1 n=c5 v=65
199520 Off ch=1 n=c5 v=80
199520 On ch=1 n=f#5 v=65
199680 Off ch=1 n=f#5 v=80
199680 On ch=1 n=c6 v=80
199840 Off ch=1 n=c6 v=80
199840 On ch=1 n=c5 v=65
200000 Off ch=1 n=c5 v=80
200000 On ch=1 n=c6 v=65
200160 Off ch=1 n=c6 v=80
200160 On ch=1 n=f#5 v=65
200320 Off ch=1 n=f#5 v=80
200320 On ch=1 n=c5 v=65
200480 Off ch=1 n=c5 v=80
200480 On ch=1 n=f#5 v=65
200640 Off ch=1 n=f#5 v=80
200640 On ch=1 n=c6 v=80
200800 Off ch=1 n=c6 v=80
200800 On ch=1 n=c5 v=65
200960 Off ch=1 n=c5 v=80
200960 On ch=1 n=c6 v=65
201120 Off ch=1 n=c6 v=80
201120 On ch=1 n=d#5 v=65
201280 Off ch=1 n=d#5 v=80
201280 On ch=1 n=c5 v=65
201440 Off ch=1 n=c5 v=80
201440 On ch=1 n=d#5 v=65
201600 Off ch=1 n=d#5 v=80
201600 On ch=1 n=c6 v=80
201760 Off ch=1 n=c6 v=80
201760 On ch=1 n=c5 v=65
201920 Off ch=1 n=c5 v=80
201920 On ch=1 n=c6 v=65
202080 Off ch=1 n=c6 v=80
202080 On ch=1 n=c#5 v=71
202240 Off ch=1 n=c#5 v=80
202240 On ch=1 n=c5 v=71
202400 Off ch=1 n=c5 v=80
202400 On ch=1 n=c#5 v=71
202560 Off ch=1 n=c#5 v=80
202560 On ch=1 n=a#5 v=92
202720 Off ch=1 n=a#5 v=80
202720 On ch=1 n=a#4 v=77
202880 Off ch=1 n=a#4 v=80
202880 On ch=1 n=a#5 v=77
203040 Off ch=1 n=a#5 v=80
203040 On ch=1 n=c#5 v=77
203200 Off ch=1 n=c#5 v=80
203200 On ch=1 n=a#4 v=77
203360 Off ch=1 n=a#4 v=80
203360 On ch=1 n=c#5 v=77
203520 Off ch=1 n=c#5 v=80
203520 On ch=1 n=a#5 v=98
203680 Off ch=1 n=a#5 v=80
203680 On ch=1 n=a#4 v=83
203840 Off ch=1 n=a#4 v=80
203840 On ch=1 n=a#5 v=83
204000 Off ch=1 n=a#5 v=80
204000 On ch=1 n=c#5 v=83
204160 Off ch=1 n=c#5 v=80
204160 On ch=1 n=a4 v=83
204320 Off ch=1 n=a4 v=80
204320 On ch=1 n=c#5 v=83
204480 Off ch=1 n=c#5 v=80
204480 On ch=1 n=a5 v=104
204640 Off ch=1 n=a5 v=80
204640 On ch=1 n=a4 v=89
204800 Off ch=1 n=a4 v=80
204800 On ch=1 n=a5 v=89
204960 Off ch=1 n=a5 v=80
204960 On ch=1 n=c5 v=89
205120 Off ch=1 n=c5 v=80
205120 On ch=1 n=a4 v=89
205280 Off ch=1 n=a4 v=80
205280 On ch=1 n=c5 v=89
205440 Off ch=1 n=c5 v=80
205440 On ch=1 n=a5 v=110
205600 Off ch=1 n=a5 v=80
205600 On ch=1 n=a4 v=95
205760 Off ch=1 n=a4 v=80
205760 On ch=1 n=a5 v=95
205920 Off ch=1 n=a5 v=80
205920 On ch=1 n=c#5 v=95
206080 Off ch=1 n=c#5 v=80
206080 On ch=1 n=a#4 v=95
206240 Off ch=1 n=a#4 v=80
206240 On ch=1 n=c#5 v=95
206400 Off ch=1 n=c#5 v=80
206400 On ch=1 n=a#5 v=110
206560 Off ch=1 n=a#5 v=80
206560 On ch=1 n=a#4 v=95
206720 Off ch=1 n=a#4 v=80
206720 On ch=1 n=a#5 v=95
206880 Off ch=1 n=a#5 v=80
206880 On ch=1 n=c#5 v=65
207040 Off ch=1 n=c#5 v=80
207040 On ch=1 n=a#4 v=65
207200 Off ch=1 n=a#4 v=80
207200 On ch=1 n=c#5 v=65
207360 Off ch=1 n=c#5 v=80
207360 On ch=1 n=f#5 v=65
207520 Off ch=1 n=f#5 v=80
207520 On ch=1 n=a#4 v=65
207680 Off ch=1 n=a#4 v=80
207680 On ch=1 n=f#5 v=65
207840 Off ch=1 n=f#5 v=80
207840 On ch=1 n=g#5 v=65
208000 Off ch=1 n=g#5 v=80
208000 On ch=1 n=c#5 v=65
208160 Off ch=1 n=c#5 v=80
208160 On ch=1 n=g#5 v=65
208320 Off ch=1 n=g#5 v=80
208320 On ch=1 n=a#5 v=65
208480 Off ch=1 n=a#5 v=80
208480 On ch=1 n=f#5 v=65
208640 Off ch=1 n=f#5 v=80
208640 On ch=1 n=a#5 v=65
208800 Off ch=1 n=a#5 v=80
208800 On ch=1 n=c#6 v=65
208960 Off ch=1 n=c#6 v=80
208960 On ch=1 n=g#5 v=65
209120 Off ch=1 n=g#5 v=80
209120 On ch=1 n=c#6 v=65
209280 Off ch=1 n=c#6 v=80
209280 On ch=1 n=f#6 v=71
209440 Off ch=1 n=f#6 v=80
209440 On ch=1 n=a#5 v=71
209600 Off ch=1 n=a#5 v=80
209600 On ch=1 n=f#6 v=71
209760 Off ch=1 n=f#6 v=80
209760 On ch=1 n=g#6 v=77
209920 Off ch=1 n=g#6 v=80
209920 On ch=1 n=c#6 v=77
210080 Off ch=1 n=c#6 v=80
210080 On ch=1 n=g#6 v=77
210240 Off ch=1 n=g#6 v=80
210240 On ch=1 n=a#6 v=83
210720 Off ch=1 n=a#6 v=80
210720 On ch=1 n=b6 v=89
210880 Off ch=1 n=b6 v=80
210880 On ch=1 n=f6 v=89
211040 Off ch=1 n=f6 v=80
211040 On ch=1 n=b6 v=89
211200 Off ch=1 n=b6 v=80
211200 On ch=1 n=c7 v=90
211360 Off ch=1 n=c7 v=80
211360 On ch=1 n=e6 v=90
211520 Off ch=1 n=e6 v=80
211520 On ch=1 n=c7 v=90
211680 Off ch=1 n=c7 v=80
211680 On ch=1 n=f6 v=90
211840 Off ch=1 n=f6 v=80
211840 On ch=1 n=b5 v=90
212000 Off ch=1 n=b5 v=80
212000 On ch=1 n=f6 v=90
212160 Off ch=1 n=f6 v=80
212160 On ch=1 n=e6 v=90
212320 Off ch=1 n=e6 v=80
212320 On ch=1 n=c6 v=90
212480 Off ch=1 n=c6 v=80
212480 On ch=1 n=e6 v=90
212640 Off ch=1 n=e6 v=80
212640 On ch=1 n=b5 v=90
212800 Off ch=1 n=b5 v=80
212800 On ch=1 n=f5 v=90
212960 Off ch=1 n=f5 v=80
212960 On ch=1 n=b5 v=90
213120 Off ch=1 n=b5 v=80
213120 On ch=1 n=c6 v=90
213280 Off ch=1 n=c6 v=80
213280 On ch=1 n=e5 v=90
213440 Off ch=1 n=e5 v=80
213440 On ch=1 n=c6 v=90
213600 Off ch=1 n=c6 v=80
213600 On ch=1 n=f5 v=90
213760 Off ch=1 n=f5 v=80
213760 On ch=1 n=b4 v=90
213920 Off ch=1 n=b4 v=80
213920 On ch=1 n=f5 v=90
214080 Off ch=1 n=f5 v=80
214080 On ch=1 n=e5 v=90
214080 On ch=1 n=c5 v=90
214560 Off ch=1 n=c5 v=80
214560 Off ch=1 n=e5 v=80
214560 On ch=1 n=f5 v=65
214720 Off ch=1 n=f5 v=80
214720 On ch=1 n=d#5 v=65
214880 Off ch=1 n=d#5 v=80
214880 On ch=1 n=f5 v=65
215040 Off ch=1 n=f5 v=80
215040 On ch=1 n=a#5 v=65
215200 Off ch=1 n=a#5 v=80
215200 On ch=1 n=d#5 v=65
215360 Off ch=1 n=d#5 v=80
215360 On ch=1 n=a#5 v=65
215520 Off ch=1 n=a#5 v=80
215520 On ch=1 n=c6 v=71
215680 Off ch=1 n=c6 v=80
215680 On ch=1 n=f5 v=71
215840 Off ch=1 n=f5 v=80
215840 On ch=1 n=c6 v=71
216000 Off ch=1 n=c6 v=80
216000 On ch=1 n=c#6 v=77
216160 Off ch=1 n=c#6 v=80
216160 On ch=1 n=f5 v=77
216320 Off ch=1 n=f5 v=80
216320 On ch=1 n=c#6 v=77
216480 Off ch=1 n=c#6 v=80
216480 On ch=1 n=f6 v=83
216640 Off ch=1 n=f6 v=80
216640 On ch=1 n=c6 v=83
216800 Off ch=1 n=c6 v=80
216800 On ch=1 n=f6 v=83
216960 Off ch=1 n=f6 v=80
216960 On ch=1 n=a#6 v=89
217120 Off ch=1 n=a#6 v=80
217120 On ch=1 n=c#6 v=89
217280 Off ch=1 n=c#6 v=80
217280 On ch=1 n=a#6 v=89
217440 Off ch=1 n=a#6 v=80
217440 On ch=1 n=c7 v=95
217600 Off ch=1 n=c7 v=80
217600 On ch=1 n=f6 v=95
217760 Off ch=1 n=f6 v=80
217760 On ch=1 n=c7 v=95
217920 Off ch=1 n=c7 v=80
217920 On ch=1 n=c#7 v=101
218400 Off ch=1 n=c#7 v=80
218400 On ch=1 n=c#7 v=101
218560 Off ch=1 n=c#7 v=80
218560 On ch=1 n=g6 v=101
218720 Off ch=1 n=g6 v=80
218720 On ch=1 n=c#7 v=101
218880 Off ch=1 n=c#7 v=80
218880 On ch=1 n=d7 v=101
219040 Off ch=1 n=d7 v=80
219040 On ch=1 n=f#6 v=101
219200 Off ch=1 n=f#6 v=80
219200 On ch=1 n=d7 v=101
219360 Off ch=1 n=d7 v=80
219360 On ch=1 n=g6 v=101
219520 Off ch=1 n=g6 v=80
219520 On ch=1 n=c#6 v=101
219680 Off ch=1 n=c#6 v=80
219680 On ch=1 n=g6 v=101
219840 Off ch=1 n=g6 v=80
219840 On ch=1 n=f#6 v=101
220000 Off ch=1 n=f#6 v=80
220000 On ch=1 n=d6 v=101
220160 Off ch=1 n=d6 v=80
220160 On ch=1 n=f#6 v=101
220320 Off ch=1 n=f#6 v=80
220320 On ch=1 n=c#6 v=101
220480 Off ch=1 n=c#6 v=80
220480 On ch=1 n=g5 v=101
220640 Off ch=1 n=g5 v=80
220640 On ch=1 n=c#6 v=101
220800 Off ch=1 n=c#6 v=80
220800 On ch=1 n=d6 v=101
220960 Off ch=1 n=d6 v=80
220960 On ch=1 n=f#5 v=101
221120 Off ch=1 n=f#5 v=80
221120 On ch=1 n=d6 v=101
221280 Off ch=1 n=d6 v=80
221280 On ch=1 n=g5 v=101
221440 Off ch=1 n=g5 v=80
221440 On ch=1 n=c#5 v=101
221600 Off ch=1 n=c#5 v=80
221600 On ch=1 n=g5 v=101
221760 Off ch=1 n=g5 v=80
221760 On ch=1 n=f#5 v=101
221760 On ch=1 n=d5 v=101
222240 Off ch=1 n=d5 v=80
222240 Off ch=1 n=f#5 v=80
222240 On ch=1 n=d5 v=53
222480 Off ch=1 n=d5 v=80
222480 On ch=1 n=a4 v=53
222600 Off ch=1 n=a4 v=80
222600 On ch=1 n=f#4 v=53
222720 Off ch=1 n=f#4 v=80
222720 On ch=1 n=d5 v=53
222960 Off ch=1 n=d5 v=80
222960 On ch=1 n=a#4 v=53
223080 Off ch=1 n=a#4 v=80
223080 On ch=1 n=g4 v=53
223200 Off ch=1 n=g4 v=80
223200 On ch=1 n=d5 v=53
223440 Off ch=1 n=d5 v=80
223440 On ch=1 n=a4 v=53
223560 Off ch=1 n=a4 v=80
223560 On ch=1 n=f#4 v=53
223680 Off ch=1 n=f#4 v=80
223680 On ch=1 n=d5 v=53
223920 Off ch=1 n=d5 v=80
223920 On ch=1 n=a#4 v=53
224040 Off ch=1 n=a#4 v=80
224040 On ch=1 n=g4 v=53
224160 Off ch=1 n=g4 v=80
224160 On ch=1 n=d#5 v=53
224400 Off ch=1 n=d#5 v=80
224400 On ch=1 n=c5 v=53
224520 Off ch=1 n=c5 v=80
224520 On ch=1 n=g4 v=53
224640 Off ch=1 n=g4 v=80
224640 On ch=1 n=d5 v=53
224880 Off ch=1 n=d5 v=80
224880 On ch=1 n=a4 v=53
225000 Off ch=1 n=a4 v=80
225000 On ch=1 n=f#4 v=53
225120 Off ch=1 n=f#4 v=80
225120 On ch=1 n=d5 v=53
225360 Off ch=1 n=d5 v=80
225360 On ch=1 n=a4 v=53
225480 Off ch=1 n=a4 v=80
225480 On ch=1 n=f#4 v=53
225600 Off ch=1 n=f#4 v=80
225600 On ch=1 n=d5 v=53
225840 Off ch=1 n=d5 v=80
225840 On ch=1 n=a#4 v=53
225960 Off ch=1 n=a#4 v=80
225960 On ch=1 n=g4 v=53
226080 Off ch=1 n=g4 v=80
226080 On ch=1 n=d5 v=53
226320 Off ch=1 n=d5 v=80
226320 On ch=1 n=a4 v=53
226440 Off ch=1 n=a4 v=80
226440 On ch=1 n=f#4 v=53
226560 Off ch=1 n=f#4 v=80
226560 On ch=1 n=d5 v=49
226800 Off ch=1 n=d5 v=80
226800 On ch=1 n=a#4 v=49
226920 Off ch=1 n=a#4 v=80
226920 On ch=1 n=g4 v=49
227040 Off ch=1 n=g4 v=80
227040 On ch=1 n=d5 v=49
227280 Off ch=1 n=d5 v=80
227280 On ch=1 n=a4 v=49
227400 Off ch=1 n=a4 v=80
227400 On ch=1 n=f#4 v=49
227520 Off ch=1 n=f#4 v=80
227520 On ch=1 n=d5 v=45
227760 Off ch=1 n=d5 v=80
227760 On ch=1 n=a#4 v=45
227880 Off ch=1 n=a#4 v=80
227880 On ch=1 n=g4 v=45
228000 Off ch=1 n=g4 v=80
228000 On ch=1 n=d#5 v=45
228240 Off ch=1 n=d#5 v=80
228240 On ch=1 n=c5 v=45
228360 Off ch=1 n=c5 v=80
228360 On ch=1 n=g4 v=45
228480 Off ch=1 n=g4 v=80
228480 On ch=1 n=d5 v=41
228720 Off ch=1 n=d5 v=80
228720 On ch=1 n=a4 v=41
228840 Off ch=1 n=a4 v=80
228840 On ch=1 n=f#4 v=41
228960 Off ch=1 n=f#4 v=80
228960 On ch=1 n=d5 v=41
229200 Off ch=1 n=d5 v=80
229200 On ch=1 n=a4 v=41
229320 Off ch=1 n=a4 v=80
229320 On ch=1 n=f#4 v=41
229440 Off ch=1 n=f#4 v=80
229440 On ch=1 n=d#5 v=41
229600 Off ch=1 n=d#5 v=80
229600 On ch=1 n=a#4 v=41
229760 Off ch=1 n=a#4 v=80
229760 On ch=1 n=f#4 v=41
229920 Off ch=1 n=f#4 v=80
229920 On ch=1 n=d#5 v=41
230080 Off ch=1 n=d#5 v=80
230080 On ch=1 n=a#4 v=41
230240 Off ch=1 n=a#4 v=80
230240 On ch=1 n=f#4 v=41
230400 Off ch=1 n=f#4 v=80
230400 On ch=1 n=f#5 v=46
230560 Off ch=1 n=f#5 v=80
230560 On ch=1 n=d#5 v=46
230720 Off ch=1 n=d#5 v=80
230720 On ch=1 n=a#4 v=46
230880 Off ch=1 n=a#4 v=80
230880 On ch=1 n=f#5 v=51
231040 Off ch=1 n=f#5 v=80
231040 On ch=1 n=d#5 v=51
231200 Off ch=1 n=d#5 v=80
231200 On ch=1 n=a#4 v=51
231360 Off ch=1 n=a#4 v=80
231360 On ch=1 n=a#5 v=56
231520 Off ch=1 n=a#5 v=80
231520 On ch=1 n=f#5 v=56
231680 Off ch=1 n=f#5 v=80
231680 On ch=1 n=d#5 v=56
231840 Off ch=1 n=d#5 v=80
231840 On ch=1 n=a#5 v=61
232000 Off ch=1 n=a#5 v=80
232000 On ch=1 n=f#5 v=61
232160 Off ch=1 n=f#5 v=80
232160 On ch=1 n=d#5 v=61
232320 Off ch=1 n=d#5 v=80
232320 On ch=1 n=f5 v=65
232440 On ch=1 n=d5 v=65
232560 Off ch=1 n=d5 v=80
232560 Off ch=1 n=f5 v=80
232560 On ch=1 n=g5 v=65
232680 Off ch=1 n=g5 v=80
232680 On ch=1 n=a5 v=65
232800 Off ch=1 n=a5 v=80
232800 On ch=1 n=a#5 v=65
232920 Off ch=1 n=a#5 v=80
232920 On ch=1 n=d5 v=65
233040 Off ch=1 n=d5 v=80
233040 On ch=1 n=d6 v=65
233160 Off ch=1 n=d6 v=80
233280 On ch=1 n=f6 v=65
233406 On ch=1 n=g#5 v=65
233526 Off ch=1 n=g#5 v=80
233760 Off ch=1 n=f6 v=80
233760 On ch=1 n=d#6 v=65
233886 On ch=1 n=g5 v=65
234006 Off ch=1 n=g5 v=80
234240 Off ch=1 n=d#6 v=80
234240 On ch=1 n=d6 v=65
234360 On ch=1 n=f5 v=65
234480 Off ch=1 n=f5 v=80
234480 Off ch=1 n=d6 v=80
234480 On ch=1 n=d#6 v=65
234600 Off ch=1 n=d#6 v=80
234600 On ch=1 n=d6 v=65
234720 Off ch=1 n=d6 v=80
234720 On ch=1 n=c6 v=65
234840 Off ch=1 n=c6 v=80
234840 On ch=1 n=e5 v=65
234960 Off ch=1 n=e5 v=80
234960 On ch=1 n=d6 v=65
235080 Off ch=1 n=d6 v=80
235200 On ch=1 n=f5 v=102
235320 On ch=1 n=d5 v=90
235440 Off ch=1 n=d5 v=80
235440 Off ch=1 n=f5 v=80
235440 On ch=1 n=g5 v=102
235560 Off ch=1 n=g5 v=80
235560 On ch=1 n=a5 v=102
235680 Off ch=1 n=a5 v=80
235680 On ch=1 n=a#5 v=102
235800 Off ch=1 n=a#5 v=80
235800 On ch=1 n=d5 v=90
235920 Off ch=1 n=d5 v=80
235920 On ch=1 n=d6 v=102
236040 Off ch=1 n=d6 v=80
236160 On ch=1 n=f5 v=65
236280 On ch=1 n=d5 v=53
236400 Off ch=1 n=d5 v=80
236400 Off ch=1 n=f5 v=80
236400 On ch=1 n=g5 v=65
236520 Off ch=1 n=g5 v=80
236520 On ch=1 n=a5 v=65
236640 Off ch=1 n=a5 v=80
236640 On ch=1 n=a#5 v=65
236760 Off ch=1 n=a#5 v=80
236760 On ch=1 n=d5 v=53
236880 Off ch=1 n=d5 v=80
236880 On ch=1 n=d6 v=65
237000 Off ch=1 n=d6 v=80
237120 On ch=1 n=g6 v=80
237238 On ch=1 n=g5 v=65
237358 Off ch=1 n=g5 v=80
237600 Off ch=1 n=g6 v=80
237600 On ch=1 n=f6 v=65
237718 On ch=1 n=g5 v=53
237838 Off ch=1 n=g5 v=80
238080 Off ch=1 n=f6 v=80
238080 On ch=1 n=d#6 v=65
238200 On ch=1 n=g5 v=53
238320 Off ch=1 n=g5 v=80
238320 Off ch=1 n=d#6 v=80
238320 On ch=1 n=f6 v=65
238440 Off ch=1 n=f6 v=80
238440 On ch=1 n=d#6 v=65
238560 Off ch=1 n=d#6 v=80
238560 On ch=1 n=d6 v=65
238680 Off ch=1 n=d6 v=80
238680 On ch=1 n=g5 v=53
238800 Off ch=1 n=g5 v=80
238800 On ch=1 n=d#6 v=65
238920 Off ch=1 n=d#6 v=80
239040 On ch=1 n=a#5 v=102
239160 On ch=1 n=g5 v=90
239280 Off ch=1 n=g5 v=80
239280 Off ch=1 n=a#5 v=80
239280 On ch=1 n=c6 v=102
239400 Off ch=1 n=c6 v=80
239400 On ch=1 n=d6 v=102
239520 Off ch=1 n=d6 v=80
239520 On ch=1 n=d#6 v=102
239640 Off ch=1 n=d#6 v=80
239640 On ch=1 n=g5 v=90
239760 Off ch=1 n=g5 v=80
239760 On ch=1 n=g6 v=102
239880 Off ch=1 n=g6 v=80
240000 On ch=1 n=a#5 v=65
240120 On ch=1 n=g5 v=53
240240 Off ch=1 n=g5 v=80
240240 Off ch=1 n=a#5 v=80
240240 On ch=1 n=c6 v=65
240360 Off ch=1 n=c6 v=80
240360 On ch=1 n=d6 v=65
240480 Off ch=1 n=d6 v=80
240480 On ch=1 n=d#6 v=65
240600 Off ch=1 n=d#6 v=80
240600 On ch=1 n=g5 v=53
240720 Off ch=1 n=g5 v=80
240720 On ch=1 n=g6 v=65
240840 Off ch=1 n=g6 v=80
240960 On ch=1 n=c7 v=80
241078 On ch=1 n=c6 v=53
241198 Off ch=1 n=c6 v=80
241440 Off ch=1 n=c7 v=80
241440 On ch=1 n=a#6 v=65
241558 On ch=1 n=c6 v=53
241678 Off ch=1 n=c6 v=80
241920 Off ch=1 n=a#6 v=80
241920 On ch=1 n=a6 v=65
242040 On ch=1 n=c6 v=53
242160 Off ch=1 n=c6 v=80
242160 Off ch=1 n=a6 v=80
242160 On ch=1 n=g6 v=65
242280 Off ch=1 n=g6 v=80
242280 On ch=1 n=f6 v=65
242400 Off ch=1 n=f6 v=80
242400 On ch=1 n=a#6 v=65
242520 On ch=1 n=a#5 v=53
242640 Off ch=1 n=a#5 v=80
242640 Off ch=1 n=a#6 v=80
242640 On ch=1 n=f#6 v=65
242880 Off ch=1 n=f#6 v=80
242880 On ch=1 n=g6 v=65
243000 On ch=1 n=g5 v=53
243120 Off ch=1 n=g5 v=80
243120 Off ch=1 n=g6 v=80
243120 On ch=1 n=f6 v=65
243240 Off ch=1 n=f6 v=80
243240 On ch=1 n=d#6 v=65
243360 Off ch=1 n=d#6 v=80
243360 On ch=1 n=d6 v=65
243480 On ch=1 n=f5 v=53
243600 Off ch=1 n=f5 v=80
243600 Off ch=1 n=d6 v=80
243600 On ch=1 n=c6 v=65
243840 Off ch=1 n=c6 v=80
243840 On ch=1 n=f5 v=90
243960 Off ch=1 n=f5 v=80
243960 On ch=1 n=d5 v=90
244080 Off ch=1 n=d5 v=80
244080 On ch=1 n=a#5 v=90
244200 Off ch=1 n=a#5 v=80
244200 On ch=1 n=f5 v=90
244320 Off ch=1 n=f5 v=80
244320 On ch=1 n=f#5 v=90
244440 Off ch=1 n=f#5 v=80
244440 On ch=1 n=d#5 v=90
244560 Off ch=1 n=d#5 v=80
244560 On ch=1 n=a#5 v=90
244680 Off ch=1 n=a#5 v=80
244680 On ch=1 n=f#5 v=90
244800 Off ch=1 n=f#5 v=80
244800 On ch=1 n=f5 v=90
244920 Off ch=1 n=f5 v=80
244920 On ch=1 n=d5 v=90
245040 Off ch=1 n=d5 v=80
245040 On ch=1 n=a#5 v=90
245160 Off ch=1 n=a#5 v=80
245160 On ch=1 n=f5 v=90
245280 Off ch=1 n=f5 v=80
245280 On ch=1 n=f#5 v=90
245400 Off ch=1 n=f#5 v=80
245400 On ch=1 n=d#5 v=90
245520 Off ch=1 n=d#5 v=80
245520 On ch=1 n=a#5 v=90
245640 Off ch=1 n=a#5 v=80
245640 On ch=1 n=f#5 v=90
245760 Off ch=1 n=f#5 v=80
245760 On ch=1 n=a#5 v=90
245880 On ch=1 n=f5 v=90
246000 Off ch=1 n=f5 v=80
246000 Off ch=1 n=a#5 v=80
246000 On ch=1 n=c6 v=90
246120 Off ch=1 n=c6 v=80
246120 On ch=1 n=d6 v=90
246240 Off ch=1 n=d6 v=80
246240 On ch=1 n=d#6 v=90
246360 On ch=1 n=a#5 v=90
246480 Off ch=1 n=a#5 v=80
246480 Off ch=1 n=d#6 v=80
246480 On ch=1 n=f6 v=93
246600 Off ch=1 n=f6 v=80
246600 On ch=1 n=f#6 v=93
246720 Off ch=1 n=f#6 v=80
246720 On ch=1 n=g#6 v=96
246840 On ch=1 n=d#6 v=96
246960 Off ch=1 n=d#6 v=80
246960 Off ch=1 n=g#6 v=80
246960 On ch=1 n=a#6 v=99
247080 Off ch=1 n=a#6 v=80
247080 On ch=1 n=c7 v=99
247200 Off ch=1 n=c7 v=80
247200 On ch=1 n=c#7 v=102
247200 On ch=1 n=g#6 v=102
247200 On ch=1 n=f6 v=102
247440 Off ch=1 n=f6 v=80
247440 Off ch=1 n=g#6 v=80
247440 Off ch=1 n=c#7 v=80
247440 On ch=1 n=g#5 v=102
247440 On ch=1 n=f5 v=102
247440 On ch=1 n=c#6 v=102
247680 Off ch=1 n=c#6 v=80
247680 Off ch=1 n=f5 v=80
247680 Off ch=1 n=g#5 v=80
247680 On ch=1 n=g#5 v=90
247800 Off ch=1 n=g#5 v=80
247800 On ch=1 n=f5 v=90
247920 Off ch=1 n=f5 v=80
247920 On ch=1 n=c#6 v=90
248040 Off ch=1 n=c#6 v=80
248040 On ch=1 n=g#5 v=90
248160 Off ch=1 n=g#5 v=80
248160 On ch=1 n=a#5 v=90
248280 Off ch=1 n=a#5 v=80
248280 On ch=1 n=f#5 v=90
248400 Off ch=1 n=f#5 v=80
248400 On ch=1 n=c#6 v=90
248520 Off ch=1 n=c#6 v=80
248520 On ch=1 n=a#5 v=90
248640 Off ch=1 n=a#5 v=80
248640 On ch=1 n=g#5 v=90
248760 Off ch=1 n=g#5 v=80
248760 On ch=1 n=f5 v=90
248880 Off ch=1 n=f5 v=80
248880 On ch=1 n=c#6 v=90
249000 Off ch=1 n=c#6 v=80
249000 On ch=1 n=g#5 v=90
249120 Off ch=1 n=g#5 v=80
249120 On ch=1 n=a#5 v=90
249240 Off ch=1 n=a#5 v=80
249240 On ch=1 n=f#5 v=90
249360 Off ch=1 n=f#5 v=80
249360 On ch=1 n=c#6 v=90
249480 Off ch=1 n=c#6 v=80
249480 On ch=1 n=a#5 v=90
249600 Off ch=1 n=a#5 v=80
249600 On ch=1 n=c#6 v=90
249720 On ch=1 n=g#5 v=90
249840 Off ch=1 n=g#5 v=80
249840 Off ch=1 n=c#6 v=80
249840 On ch=1 n=d#6 v=90
249960 Off ch=1 n=d#6 v=80
249960 On ch=1 n=f6 v=90
250080 Off ch=1 n=f6 v=80
250080 On ch=1 n=f#6 v=90
250200 On ch=1 n=c#6 v=90
250320 Off ch=1 n=c#6 v=80
250320 Off ch=1 n=f#6 v=80
250320 On ch=1 n=g#6 v=93
250440 Off ch=1 n=g#6 v=80
250440 On ch=1 n=a#6 v=93
250560 Off ch=1 n=a#6 v=80
250560 On ch=1 n=c7 v=96
250680 On ch=1 n=g6 v=96
250800 Off ch=1 n=g6 v=80
250800 Off ch=1 n=c7 v=80
250800 On ch=1 n=d7 v=99
250920 Off ch=1 n=d7 v=80
250920 On ch=1 n=e7 v=99
251040 Off ch=1 n=e7 v=80
251040 On ch=1 n=f7 v=102
251040 On ch=1 n=c7 v=102
251040 On ch=1 n=a6 v=102
251280 Off ch=1 n=a6 v=80
251280 Off ch=1 n=c7 v=80
251280 Off ch=1 n=f7 v=80
251280 On ch=1 n=f6 v=102
251280 On ch=1 n=a5 v=102
251280 On ch=1 n=c6 v=102
251520 Off ch=1 n=c6 v=80
251520 Off ch=1 n=a5 v=80
251520 Off ch=1 n=f6 v=80
251520 On ch=1 n=f5 v=102
251640 On ch=1 n=d5 v=102
251760 Off ch=1 n=d5 v=80
251760 Off ch=1 n=f5 v=80
251760 On ch=1 n=g5 v=102
251880 Off ch=1 n=g5 v=80
251880 On ch=1 n=a5 v=102
252000 Off ch=1 n=a5 v=80
252000 On ch=1 n=a#5 v=102
252120 Off ch=1 n=a#5 v=80
252120 On ch=1 n=d5 v=102
252240 Off ch=1 n=d5 v=80
252240 On ch=1 n=d6 v=102
252360 Off ch=1 n=d6 v=80
252480 On ch=1 n=f6 v=65
252600 On ch=1 n=g#5 v=65
252720 Off ch=1 n=g#5 v=80
252960 Off ch=1 n=f6 v=80
252960 On ch=1 n=d#6 v=65
253080 On ch=1 n=g5 v=65
253200 Off ch=1 n=g5 v=80
253440 Off ch=1 n=d#6 v=80
253440 On ch=1 n=d6 v=65
253560 On ch=1 n=f5 v=65
253680 Off ch=1 n=f5 v=80
253680 Off ch=1 n=d6 v=80
253680 On ch=1 n=d#6 v=65
253800 Off ch=1 n=d#6 v=80
253800 On ch=1 n=d6 v=65
253920 Off ch=1 n=d6 v=80
253920 On ch=1 n=c6 v=65
254040 Off ch=1 n=c6 v=80
254040 On ch=1 n=e5 v=65
254160 Off ch=1 n=e5 v=80
254160 On ch=1 n=d6 v=65
254280 Off ch=1 n=d6 v=80
254400 On ch=1 n=f5 v=102
254520 On ch=1 n=d5 v=90
254640 Off ch=1 n=d5 v=80
254640 Off ch=1 n=f5 v=80
254640 On ch=1 n=g5 v=102
254760 Off ch=1 n=g5 v=80
254760 On ch=1 n=a5 v=102
254880 Off ch=1 n=a5 v=80
254880 On ch=1 n=a#5 v=102
255000 Off ch=1 n=a#5 v=80
255000 On ch=1 n=d5 v=90
255120 Off ch=1 n=d5 v=80
255120 On ch=1 n=d6 v=102
255240 Off ch=1 n=d6 v=80
255360 On ch=1 n=f5 v=65
255480 On ch=1 n=d5 v=53
255600 Off ch=1 n=d5 v=80
255600 Off ch=1 n=f5 v=80
255600 On ch=1 n=g5 v=65
255720 Off ch=1 n=g5 v=80
255720 On ch=1 n=a5 v=65
255840 Off ch=1 n=a5 v=80
255840 On ch=1 n=a#5 v=65
255960 Off ch=1 n=a#5 v=80
255960 On ch=1 n=d5 v=53
256080 Off ch=1 n=d5 v=80
256080 On ch=1 n=d6 v=65
256200 Off ch=1 n=d6 v=80
256320 On ch=1 n=g6 v=80
256438 On ch=1 n=g5 v=65
256558 Off ch=1 n=g5 v=80
256800 Off ch=1 n=g6 v=80
256800 On ch=1 n=f6 v=65
256918 On ch=1 n=g5 v=53
257038 Off ch=1 n=g5 v=80
257280 Off ch=1 n=f6 v=80
257280 On ch=1 n=d#6 v=65
257400 On ch=1 n=g5 v=53
257520 Off ch=1 n=g5 v=80
257520 Off ch=1 n=d#6 v=80
257520 On ch=1 n=f6 v=65
257640 Off ch=1 n=f6 v=80
257640 On ch=1 n=d#6 v=65
257760 Off ch=1 n=d#6 v=80
257760 On ch=1 n=d6 v=65
257880 Off ch=1 n=d6 v=80
257880 On ch=1 n=g5 v=53
258000 Off ch=1 n=g5 v=80
258000 On ch=1 n=d#6 v=65
258120 Off ch=1 n=d#6 v=80
258240 On ch=1 n=a#5 v=102
258360 On ch=1 n=g5 v=90
258480 Off ch=1 n=g5 v=80
258480 Off ch=1 n=a#5 v=80
258480 On ch=1 n=c6 v=102
258600 Off ch=1 n=c6 v=80
258600 On ch=1 n=d6 v=102
258720 Off ch=1 n=d6 v=80
258720 On ch=1 n=d#6 v=102
258840 Off ch=1 n=d#6 v=80
258840 On ch=1 n=g5 v=90
258960 Off ch=1 n=g5 v=80
258960 On ch=1 n=g6 v=102
259080 Off ch=1 n=g6 v=80
259200 On ch=1 n=a#5 v=65
259320 On ch=1 n=g5 v=53
259440 Off ch=1 n=g5 v=80
259440 Off ch=1 n=a#5 v=80
259440 On ch=1 n=c6 v=65
259560 Off ch=1 n=c6 v=80
259560 On ch=1 n=d6 v=65
259680 Off ch=1 n=d6 v=80
259680 On ch=1 n=d#6 v=65
259800 Off ch=1 n=d#6 v=80
259800 On ch=1 n=g5 v=53
259920 Off ch=1 n=g5 v=80
259920 On ch=1 n=g6 v=65
260040 Off ch=1 n=g6 v=80
260160 On ch=1 n=c7 v=80
260278 On ch=1 n=c6 v=53
260398 Off ch=1 n=c6 v=80
260640 Off ch=1 n=c7 v=80
260640 On ch=1 n=a#6 v=65
260758 On ch=1 n=c6 v=53
260878 Off ch=1 n=c6 v=80
261120 Off ch=1 n=a#6 v=80
261120 On ch=1 n=a6 v=65
261240 On ch=1 n=c6 v=53
261360 Off ch=1 n=c6 v=80
261360 Off ch=1 n=a6 v=80
261360 On ch=1 n=g6 v=65
261480 Off ch=1 n=g6 v=80
261480 On ch=1 n=f6 v=65
261600 Off ch=1 n=f6 v=80
261600 On ch=1 n=a#6 v=65
261720 On ch=1 n=a#5 v=53
261840 Off ch=1 n=a#5 v=80
261840 Off ch=1 n=a#6 v=80
261840 On ch=1 n=f#6 v=65
262080 Off ch=1 n=f#6 v=80
262080 On ch=1 n=g6 v=65
262200 On ch=1 n=g5 v=53
262320 Off ch=1 n=g5 v=80
262320 Off ch=1 n=g6 v=80
262320 On ch=1 n=f6 v=65
262440 Off ch=1 n=f6 v=80
262440 On ch=1 n=d#6 v=65
262560 Off ch=1 n=d#6 v=80
262560 On ch=1 n=d6 v=65
262680 On ch=1 n=f5 v=53
262800 Off ch=1 n=f5 v=80
262800 Off ch=1 n=d6 v=80
262800 On ch=1 n=c6 v=65
263040 Off ch=1 n=c6 v=80
263040 On ch=1 n=f5 v=65
263160 On ch=1 n=d5 v=65
263280 Off ch=1 n=d5 v=80
263280 Off ch=1 n=f5 v=80
263280 On ch=1 n=g5 v=65
263400 Off ch=1 n=g5 v=80
263400 On ch=1 n=a5 v=65
263520 Off ch=1 n=a5 v=80
263520 On ch=1 n=a#5 v=65
263640 On ch=1 n=d5 v=65
263760 Off ch=1 n=d5 v=80
263760 Off ch=1 n=a#5 v=80
263760 On ch=1 n=d6 v=65
264000 Off ch=1 n=d6 v=80
264000 On ch=1 n=f6 v=60
264120 On ch=1 n=d#5 v=48
264240 Off ch=1 n=d#5 v=80
264240 Off ch=1 n=f6 v=80
264240 On ch=1 n=d#6 v=60
264360 Off ch=1 n=d#6 v=80
264360 On ch=1 n=d6 v=60
264480 Off ch=1 n=d6 v=80
264480 On ch=1 n=c6 v=55
264600 On ch=1 n=d#5 v=43
264720 Off ch=1 n=d#5 v=80
264720 Off ch=1 n=c6 v=80
264720 On ch=1 n=c#6 v=55
264960 Off ch=1 n=c#6 v=80
264960 On ch=1 n=d6 v=50
265080 On ch=1 n=d5 v=38
265200 Off ch=1 n=d5 v=80
265200 Off ch=1 n=d6 v=80
265200 On ch=1 n=c6 v=50
265320 Off ch=1 n=c6 v=80
265320 On ch=1 n=a#5 v=50
265440 Off ch=1 n=a#5 v=80
265440 On ch=1 n=a5 v=45
265560 On ch=1 n=d5 v=33
265680 Off ch=1 n=d5 v=80
265680 Off ch=1 n=a5 v=80
265680 On ch=1 n=g5 v=45
265920 Off ch=1 n=g5 v=80
265920 On ch=1 n=f5 v=41
266040 On ch=1 n=a4 v=41
266160 Off ch=1 n=a4 v=80
266160 On ch=1 n=d#5 v=41
266280 Off ch=1 n=d#5 v=80
266280 On ch=1 n=d5 v=41
266400 Off ch=1 n=d5 v=80
266400 On ch=1 n=d#5 v=41
266520 Off ch=1 n=d#5 v=80
266520 On ch=1 n=a4 v=41
266640 Off ch=1 n=a4 v=80
266640 On ch=1 n=d5 v=41
266760 Off ch=1 n=d5 v=80
266760 On ch=1 n=c5 v=41
266880 Off ch=1 n=f5 v=80
266880 Off ch=1 n=c5 v=80
266880 On ch=1 n=f5 v=49
267000 On ch=1 n=d5 v=49
267120 Off ch=1 n=d5 v=80
267120 Off ch=1 n=f5 v=80
267120 On ch=1 n=g5 v=49
267240 Off ch=1 n=g5 v=80
267240 On ch=1 n=a5 v=49
267360 Off ch=1 n=a5 v=80
267360 On ch=1 n=a#5 v=57
267480 On ch=1 n=d5 v=57
267600 Off ch=1 n=d5 v=80
267600 Off ch=1 n=a#5 v=80
267600 On ch=1 n=d6 v=57
267840 Off ch=1 n=d6 v=80
267840 On ch=1 n=f6 v=60
267960 On ch=1 n=d#5 v=48
268080 Off ch=1 n=d#5 v=80
268080 Off ch=1 n=f6 v=80
268080 On ch=1 n=d#6 v=60
268200 Off ch=1 n=d#6 v=80
268200 On ch=1 n=d6 v=60
268320 Off ch=1 n=d6 v=80
268320 On ch=1 n=c6 v=55
268440 On ch=1 n=d#5 v=43
268560 Off ch=1 n=d#5 v=80
268560 Off ch=1 n=c6 v=80
268560 On ch=1 n=c#6 v=55
268800 Off ch=1 n=c#6 v=80
268800 On ch=1 n=d6 v=50
268920 On ch=1 n=d5 v=38
269040 Off ch=1 n=d5 v=80
269040 Off ch=1 n=d6 v=80
269040 On ch=1 n=c6 v=50
269160 Off ch=1 n=c6 v=80
269160 On ch=1 n=a#5 v=50
269280 Off ch=1 n=a#5 v=80
269280 On ch=1 n=a5 v=45
269400 On ch=1 n=d5 v=33
269520 Off ch=1 n=d5 v=80
269520 Off ch=1 n=a5 v=80
269520 On ch=1 n=g5 v=45
269760 Off ch=1 n=g5 v=80
269760 On ch=1 n=f5 v=41
269880 On ch=1 n=a4 v=41
270000 Off ch=1 n=a4 v=80
270000 On ch=1 n=d#5 v=41
270120 Off ch=1 n=d#5 v=80
270120 On ch=1 n=d5 v=41
270240 Off ch=1 n=d5 v=80
270240 On ch=1 n=d#5 v=41
270360 Off ch=1 n=d#5 v=80
270360 On ch=1 n=a4 v=41
270480 Off ch=1 n=a4 v=80
270480 On ch=1 n=d5 v=41
270600 Off ch=1 n=d5 v=80
270600 On ch=1 n=c5 v=41
270720 Off ch=1 n=f5 v=80
270720 Off ch=1 n=c5 v=80
270720 On ch=1 n=f5 v=65
270840 On ch=1 n=d5 v=65
270960 Off ch=1 n=d5 v=80
270960 Off ch=1 n=f5 v=80
270960 On ch=1 n=g5 v=65
271080 Off ch=1 n=g5 v=80
271080 On ch=1 n=a5 v=65
271200 Off ch=1 n=a5 v=80
271200 On ch=1 n=a#5 v=65
271320 Off ch=1 n=a#5 v=80
271320 On ch=1 n=d5 v=65
271440 Off ch=1 n=d5 v=80
271440 On ch=1 n=d6 v=65
271560 Off ch=1 n=d6 v=80
271680 On ch=1 n=f5 v=65
271800 On ch=1 n=d5 v=65
271920 Off ch=1 n=d5 v=80
271920 Off ch=1 n=f5 v=80
271920 On ch=1 n=g5 v=65
272040 Off ch=1 n=g5 v=80
272040 On ch=1 n=a5 v=65
272160 Off ch=1 n=a5 v=80
272160 On ch=1 n=a#5 v=65
272280 Off ch=1 n=a#5 v=80
272280 On ch=1 n=d5 v=65
272400 Off ch=1 n=d5 v=80
272400 On ch=1 n=d6 v=65
272520 Off ch=1 n=d6 v=80
272640 On ch=1 n=f5 v=72
272760 On ch=1 n=d5 v=72
272880 Off ch=1 n=d5 v=80
272880 Off ch=1 n=f5 v=80
272880 On ch=1 n=g5 v=72
273000 Off ch=1 n=g5 v=80
273000 On ch=1 n=a5 v=72
273120 Off ch=1 n=a5 v=80
273120 On ch=1 n=a#5 v=79
273240 Off ch=1 n=a#5 v=80
273240 On ch=1 n=d5 v=79
273360 Off ch=1 n=d5 v=80
273360 On ch=1 n=d6 v=79
273480 Off ch=1 n=d6 v=80
273600 On ch=1 n=f5 v=86
273720 On ch=1 n=d5 v=86
273840 Off ch=1 n=d5 v=80
273840 Off ch=1 n=f5 v=80
273840 On ch=1 n=g5 v=86
273960 Off ch=1 n=g5 v=80
273960 On ch=1 n=a5 v=86
274080 Off ch=1 n=a5 v=80
274080 On ch=1 n=a#5 v=93
274200 Off ch=1 n=a#5 v=80
274200 On ch=1 n=d5 v=93
274320 Off ch=1 n=d5 v=80
274320 On ch=1 n=d6 v=93
274440 Off ch=1 n=d6 v=80
274560 On ch=1 n=f5 v=100
274680 On ch=1 n=d5 v=100
274800 Off ch=1 n=d5 v=80
274800 Off ch=1 n=f5 v=80
274800 On ch=1 n=g5 v=100
274920 Off ch=1 n=g5 v=80
274920 On ch=1 n=a5 v=100
275040 Off ch=1 n=a5 v=80
275040 On ch=1 n=a#5 v=100
275160 Off ch=1 n=a#5 v=80
275160 On ch=1 n=d5 v=100
275280 Off ch=1 n=d5 v=80
275280 On ch=1 n=d6 v=100
275400 Off ch=1 n=d6 v=80
275520 On ch=1 n=f5 v=100
275760 Off ch=1 n=f5 v=80
275760 On ch=1 n=g5 v=100
275880 Off ch=1 n=g5 v=80
275880 On ch=1 n=a5 v=100
276000 Off ch=1 n=a5 v=80
276000 On ch=1 n=a#5 v=100
276240 Off ch=1 n=a#5 v=80
276240 On ch=1 n=d6 v=100
276480 Off ch=1 n=d6 v=80
276480 On ch=1 n=f#5 v=96
276720 Off ch=1 n=f#5 v=80
276720 On ch=1 n=g5 v=96
276840 Off ch=1 n=g5 v=80
276840 On ch=1 n=a5 v=92
276960 Off ch=1 n=a5 v=80
276960 On ch=1 n=a#5 v=88
277200 Off ch=1 n=a#5 v=80
277200 On ch=1 n=d6 v=84
277440 Off ch=1 n=d6 v=80
277440 On ch=1 n=f#5 v=80
277600 Off ch=1 n=f#5 v=80
277600 On ch=1 n=g5 v=82
277760 Off ch=1 n=g5 v=80
277760 On ch=1 n=a5 v=78
277920 Off ch=1 n=a5 v=80
277920 On ch=1 n=a#5 v=72
278160 Off ch=1 n=a#5 v=80
278160 On ch=1 n=d6 v=68
278400 Off ch=1 n=d6 v=80
278400 On ch=1 n=g6 v=65
278640 On ch=1 n=a#5 v=47
278820 Off ch=1 n=a#5 v=80
278880 On ch=1 n=g5 v=47
279060 Off ch=1 n=g5 v=80
279120 On ch=1 n=a#4 v=47
279300 Off ch=1 n=a#4 v=80
279360 Off ch=1 n=g6 v=80
279360 On ch=1 n=c6 v=65
279600 On ch=1 n=f5 v=47
279780 Off ch=1 n=f5 v=80
279840 On ch=1 n=c5 v=47
280020 Off ch=1 n=c5 v=80
280080 On ch=1 n=a4 v=47
280260 Off ch=1 n=a4 v=80
280320 Off ch=1 n=c6 v=80
280320 On ch=1 n=f6 v=65
280560 On ch=1 n=g#5 v=47
280740 Off ch=1 n=g#5 v=80
280800 On ch=1 n=f5 v=47
280980 Off ch=1 n=f5 v=80
281040 On ch=1 n=b4 v=47
281220 Off ch=1 n=b4 v=80
281520 On ch=1 n=g5 v=47
281700 Off ch=1 n=g5 v=80
281760 Off ch=1 n=f6 v=80
281760 On ch=1 n=d#6 v=65
281760 On ch=1 n=d#5 v=47
281940 Off ch=1 n=d#5 v=80
282000 On ch=1 n=c5 v=47
282180 Off ch=1 n=c5 v=80
282240 Off ch=1 n=d#6 v=80
282240 On ch=1 n=d6 v=65
282480 On ch=1 n=f5 v=47
282660 Off ch=1 n=f5 v=80
282720 On ch=1 n=d5 v=47
282900 Off ch=1 n=d5 v=80
282960 On ch=1 n=a#4 v=47
283140 Off ch=1 n=a#4 v=80
283200 Off ch=1 n=d6 v=80
283200 On ch=1 n=c6 v=65
283440 On ch=1 n=d#5 v=47
283620 Off ch=1 n=d#5 v=80
283680 On ch=1 n=a4 v=47
283860 Off ch=1 n=a4 v=80
283920 On ch=1 n=f4 v=47
284040 Off ch=1 n=c6 v=80
284040 On ch=1 n=a#5 v=65
284100 Off ch=1 n=f4 v=80
284160 Off ch=1 n=a#5 v=80
284160 On ch=1 n=a#5 v=65
284400 On ch=1 n=d5 v=47
284520 Off ch=1 n=d5 v=80
284640 On ch=1 n=a#4 v=47
284760 Off ch=1 n=a#4 v=80
284880 On ch=1 n=f4 v=47
285000 Off ch=1 n=f4 v=80
285120 Off ch=1 n=a#5 v=80
285120 On ch=1 n=f#6 v=65
285360 On ch=1 n=a#5 v=47
285540 Off ch=1 n=a#5 v=80
285600 On ch=1 n=f#5 v=47
285780 Off ch=1 n=f#5 v=80
285840 On ch=1 n=a#4 v=47
286020 Off ch=1 n=a#4 v=80
286080 Off ch=1 n=f#6 v=80
286080 On ch=1 n=g6 v=65
286320 On ch=1 n=a#5 v=47
286500 Off ch=1 n=a#5 v=80
286560 On ch=1 n=g5 v=47
286740 Off ch=1 n=g5 v=80
286800 On ch=1 n=a#4 v=47
286980 Off ch=1 n=a#4 v=80
287040 Off ch=1 n=g6 v=80
287040 On ch=1 n=c6 v=65
287280 On ch=1 n=f5 v=47
287460 Off ch=1 n=f5 v=80
287520 On ch=1 n=c5 v=47
287700 Off ch=1 n=c5 v=80
287760 On ch=1 n=a4 v=47
287940 Off ch=1 n=a4 v=80
288000 Off ch=1 n=c6 v=80
288000 On ch=1 n=f6 v=65
288240 On ch=1 n=g#5 v=47
288420 Off ch=1 n=g#5 v=80
288480 On ch=1 n=f5 v=47
288660 Off ch=1 n=f5 v=80
288720 On ch=1 n=b4 v=47
288900 Off ch=1 n=b4 v=80
289200 On ch=1 n=g5 v=47
289380 Off ch=1 n=g5 v=80
289440 Off ch=1 n=f6 v=80
289440 On ch=1 n=d#6 v=65
289440 On ch=1 n=d#5 v=47
289620 Off ch=1 n=d#5 v=80
289680 On ch=1 n=c5 v=47
289860 Off ch=1 n=c5 v=80
289920 Off ch=1 n=d#6 v=80
289920 On ch=1 n=d6 v=65
290160 On ch=1 n=f5 v=47
290340 Off ch=1 n=f5 v=80
290400 On ch=1 n=d5 v=47
290580 Off ch=1 n=d5 v=80
290640 On ch=1 n=a#4 v=47
290820 Off ch=1 n=a#4 v=80
290880 Off ch=1 n=d6 v=80
290880 On ch=1 n=c6 v=65
291120 On ch=1 n=d#5 v=47
291300 Off ch=1 n=d#5 v=80
291360 On ch=1 n=a4 v=47
291540 Off ch=1 n=a4 v=80
291600 On ch=1 n=f4 v=47
291720 Off ch=1 n=c6 v=80
291720 On ch=1 n=a#5 v=65
291780 Off ch=1 n=f4 v=80
292080 On ch=1 n=d5 v=47
292320 Off ch=1 n=d5 v=80
292320 On ch=1 n=a#4 v=47
292560 Off ch=1 n=a#4 v=80
292560 On ch=1 n=f4 v=47
292800 Off ch=1 n=a#5 v=80
292800 Off ch=1 n=f4 v=80
292800 On ch=1 n=d6 v=65
293040 On ch=1 n=d5 v=47
293220 Off ch=1 n=d5 v=80
293280 On ch=1 n=a4 v=47
293460 Off ch=1 n=a4 v=80
293520 On ch=1 n=d4 v=47
293700 Off ch=1 n=d4 v=80
293760 Off ch=1 n=d6 v=80
293760 On ch=1 n=a#5 v=65
294000 On ch=1 n=d5 v=47
294180 Off ch=1 n=d5 v=80
294240 On ch=1 n=a#4 v=47
294420 Off ch=1 n=a#4 v=80
294480 On ch=1 n=d4 v=47
294660 Off ch=1 n=d4 v=80
294720 Off ch=1 n=a#5 v=80
294720 On ch=1 n=f#5 v=65
294960 On ch=1 n=a#4 v=47
295140 Off ch=1 n=a#4 v=80
295200 On ch=1 n=f#4 v=47
295380 Off ch=1 n=f#4 v=80
295440 On ch=1 n=a#3 v=47
295620 Off ch=1 n=a#3 v=80
295680 Off ch=1 n=f#5 v=80
295680 On ch=1 n=f#5 v=65
295920 On ch=1 n=a#4 v=47
296100 Off ch=1 n=a#4 v=80
296160 On ch=1 n=f#4 v=47
296340 Off ch=1 n=f#4 v=80
296400 On ch=1 n=a#3 v=47
296580 Off ch=1 n=a#3 v=80
296640 Off ch=1 n=f#5 v=80
296640 On ch=1 n=d#5 v=65
296880 On ch=1 n=a4 v=47
297060 Off ch=1 n=a4 v=80
297120 On ch=1 n=d#4 v=47
297300 Off ch=1 n=d#4 v=80
297360 On ch=1 n=a3 v=47
297480 Off ch=1 n=d#5 v=80
297480 On ch=1 n=d5 v=65
297540 Off ch=1 n=a3 v=80
297600 On ch=1 n=f5 v=53
297840 On ch=1 n=a#4 v=53
298080 Off ch=1 n=f5 v=80
299520 Off ch=1 n=d5 v=80
299520 Off ch=1 n=a#4 v=80
299640 On ch=1 n=d6 v=65
299760 On ch=1 n=g5 v=65
299880 Off ch=1 n=g5 v=80
299880 Off ch=1 n=d6 v=80
299880 On ch=1 n=d#6 v=65
300000 Off ch=1 n=d#6 v=80
300000 On ch=1 n=c#6 v=65
300120 Off ch=1 n=c#6 v=80
300120 On ch=1 n=d6 v=65
300240 Off ch=1 n=d6 v=80
300240 On ch=1 n=g5 v=65
300360 Off ch=1 n=g5 v=80
300360 On ch=1 n=g6 v=65
300480 Off ch=1 n=g6 v=80
300600 On ch=1 n=c6 v=65
300720 On ch=1 n=g5 v=65
300840 Off ch=1 n=g5 v=80
300840 Off ch=1 n=c6 v=80
300840 On ch=1 n=d6 v=65
300960 Off ch=1 n=d6 v=80
300960 On ch=1 n=b5 v=65
301080 Off ch=1 n=b5 v=80
301080 On ch=1 n=c6 v=65
301200 Off ch=1 n=c6 v=80
301200 On ch=1 n=g5 v=65
301320 Off ch=1 n=g5 v=80
301320 On ch=1 n=g6 v=65
301440 Off ch=1 n=g6 v=80
301560 On ch=1 n=c6 v=65
301680 On ch=1 n=f5 v=65
301800 Off ch=1 n=f5 v=80
301800 Off ch=1 n=c6 v=80
301800 On ch=1 n=d6 v=65
301920 Off ch=1 n=d6 v=80
301920 On ch=1 n=b5 v=65
302040 Off ch=1 n=b5 v=80
302040 On ch=1 n=c6 v=65
302160 Off ch=1 n=c6 v=80
302160 On ch=1 n=f5 v=65
302280 Off ch=1 n=f5 v=80
302280 On ch=1 n=f6 v=65
302400 Off ch=1 n=f6 v=80
302520 On ch=1 n=a#5 v=65
302640 On ch=1 n=f5 v=65
302760 Off ch=1 n=f5 v=80
302760 Off ch=1 n=a#5 v=80
302760 On ch=1 n=c6 v=65
302880 Off ch=1 n=c6 v=80
302880 On ch=1 n=a5 v=65
303000 Off ch=1 n=a5 v=80
303000 On ch=1 n=a#5 v=65
303120 Off ch=1 n=a#5 v=80
303120 On ch=1 n=f5 v=65
303240 Off ch=1 n=f5 v=80
303240 On ch=1 n=f6 v=65
303360 Off ch=1 n=f6 v=80
303480 On ch=1 n=a#5 v=65
303600 On ch=1 n=d#5 v=71
303720 Off ch=1 n=d#5 v=80
303720 Off ch=1 n=a#5 v=80
303720 On ch=1 n=c6 v=71
303840 Off ch=1 n=c6 v=80
303840 On ch=1 n=a5 v=77
303960 Off ch=1 n=a5 v=80
303960 On ch=1 n=a#5 v=77
304080 Off ch=1 n=a#5 v=80
304080 On ch=1 n=d#5 v=83
304200 Off ch=1 n=d#5 v=80
304200 On ch=1 n=d#6 v=83
304320 Off ch=1 n=d#6 v=80
304440 On ch=1 n=d6 v=89
304560 Off ch=1 n=d6 v=80
304560 On ch=1 n=d5 v=83
304680 Off ch=1 n=d5 v=80
304680 On ch=1 n=d6 v=83
304800 Off ch=1 n=d6 v=80
304920 On ch=1 n=d6 v=77
305040 Off ch=1 n=d6 v=80
305040 On ch=1 n=d5 v=65
305160 Off ch=1 n=d5 v=80
305160 On ch=1 n=d6 v=65
305280 Off ch=1 n=d6 v=80
305400 On ch=1 n=d6 v=65
305520 Off ch=1 n=d6 v=80
305520 On ch=1 n=d5 v=65
305640 Off ch=1 n=d5 v=80
305640 On ch=1 n=d6 v=65
305760 Off ch=1 n=d6 v=80
305880 On ch=1 n=c6 v=65
306000 Off ch=1 n=c6 v=80
306000 On ch=1 n=c5 v=65
306120 Off ch=1 n=c5 v=80
306120 On ch=1 n=c6 v=65
306240 Off ch=1 n=c6 v=80
306360 On ch=1 n=d6 v=61
306480 Off ch=1 n=d6 v=80
306480 On ch=1 n=d5 v=57
306600 Off ch=1 n=d5 v=80
306600 On ch=1 n=d6 v=53
306720 Off ch=1 n=d6 v=80
306840 On ch=1 n=d6 v=49
306960 Off ch=1 n=d6 v=80
306960 On ch=1 n=d5 v=45
307080 Off ch=1 n=d5 v=80
307080 On ch=1 n=d6 v=41
307200 Off ch=1 n=d6 v=80
307320 On ch=1 n=d6 v=65
307440 On ch=1 n=g5 v=65
307560 Off ch=1 n=g5 v=80
307560 Off ch=1 n=d6 v=80
307560 On ch=1 n=d#6 v=65
307680 Off ch=1 n=d#6 v=80
307680 On ch=1 n=c#6 v=65
307800 Off ch=1 n=c#6 v=80
307800 On ch=1 n=d6 v=65
307920 Off ch=1 n=d6 v=80
307920 On ch=1 n=g5 v=65
308040 Off ch=1 n=g5 v=80
308040 On ch=1 n=g6 v=65
308160 Off ch=1 n=g6 v=80
308280 On ch=1 n=c6 v=65
308400 On ch=1 n=g5 v=65
308520 Off ch=1 n=g5 v=80
308520 Off ch=1 n=c6 v=80
308520 On ch=1 n=d6 v=65
308640 Off ch=1 n=d6 v=80
308640 On ch=1 n=b5 v=65
308760 Off ch=1 n=b5 v=80
308760 On ch=1 n=c6 v=65
308880 Off ch=1 n=c6 v=80
308880 On ch=1 n=g5 v=65
309000 Off ch=1 n=g5 v=80
309000 On ch=1 n=g6 v=65
309120 Off ch=1 n=g6 v=80
309240 On ch=1 n=c6 v=65
309360 On ch=1 n=f5 v=65
309480 Off ch=1 n=f5 v=80
309480 Off ch=1 n=c6 v=80
309480 On ch=1 n=d6 v=65
309600 Off ch=1 n=d6 v=80
309600 On ch=1 n=b5 v=65
309720 Off ch=1 n=b5 v=80
309720 On ch=1 n=c6 v=65
309840 Off ch=1 n=c6 v=80
309840 On ch=1 n=f5 v=65
309960 Off ch=1 n=f5 v=80
309960 On ch=1 n=f6 v=65
310080 Off ch=1 n=f6 v=80
310200 On ch=1 n=a#5 v=65
310320 On ch=1 n=f5 v=65
310440 Off ch=1 n=f5 v=80
310440 Off ch=1 n=a#5 v=80
310440 On ch=1 n=c6 v=65
310560 Off ch=1 n=c6 v=80
310560 On ch=1 n=a5 v=65
310680 Off ch=1 n=a5 v=80
310680 On ch=1 n=a#5 v=65
310800 Off ch=1 n=a#5 v=80
310800 On ch=1 n=f5 v=65
310920 Off ch=1 n=f5 v=80
310920 On ch=1 n=f6 v=65
311040 Off ch=1 n=f6 v=80
311160 On ch=1 n=a#5 v=65
311280 On ch=1 n=d#5 v=71
311400 Off ch=1 n=d#5 v=80
311400 Off ch=1 n=a#5 v=80
311400 On ch=1 n=c6 v=71
311520 Off ch=1 n=c6 v=80
311520 On ch=1 n=a5 v=77
311640 Off ch=1 n=a5 v=80
311640 On ch=1 n=a#5 v=77
311760 Off ch=1 n=a#5 v=80
311760 On ch=1 n=d#5 v=83
311880 Off ch=1 n=d#5 v=80
311880 On ch=1 n=d#6 v=83
312000 Off ch=1 n=d#6 v=80
312120 On ch=1 n=d6 v=89
312240 Off ch=1 n=d6 v=80
312240 On ch=1 n=d5 v=83
312360 Off ch=1 n=d5 v=80
312360 On ch=1 n=d6 v=83
312480 Off ch=1 n=d6 v=80
312600 On ch=1 n=d6 v=77
312720 Off ch=1 n=d6 v=80
312720 On ch=1 n=d5 v=65
312840 Off ch=1 n=d5 v=80
312840 On ch=1 n=d6 v=65
312960 Off ch=1 n=d6 v=80
313080 On ch=1 n=d6 v=65
313200 Off ch=1 n=d6 v=80
313200 On ch=1 n=d5 v=65
313320 Off ch=1 n=d5 v=80
313320 On ch=1 n=d6 v=65
313440 Off ch=1 n=d6 v=80
313560 On ch=1 n=c6 v=65
313680 Off ch=1 n=c6 v=80
313680 On ch=1 n=c5 v=65
313800 Off ch=1 n=c5 v=80
313800 On ch=1 n=c6 v=65
313920 Off ch=1 n=c6 v=80
314040 On ch=1 n=d6 v=61
314160 Off ch=1 n=d6 v=80
314160 On ch=1 n=d5 v=57
314280 Off ch=1 n=d5 v=80
314280 On ch=1 n=d6 v=53
314400 Off ch=1 n=d6 v=80
314520 On ch=1 n=d6 v=49
314640 Off ch=1 n=d6 v=80
314640 On ch=1 n=d5 v=45
314760 Off ch=1 n=d5 v=80
314760 On ch=1 n=d6 v=41
314880 Off ch=1 n=d6 v=80
315000 On ch=1 n=d6 v=65
315120 On ch=1 n=f5 v=65
315240 Off ch=1 n=f5 v=80
315240 Off ch=1 n=d6 v=80
315240 On ch=1 n=d#6 v=65
315360 Off ch=1 n=d#6 v=80
315360 On ch=1 n=c#6 v=65
315480 Off ch=1 n=c#6 v=80
315480 On ch=1 n=d6 v=65
315600 Off ch=1 n=d6 v=80
315600 On ch=1 n=f5 v=65
315720 Off ch=1 n=f5 v=80
315720 On ch=1 n=g6 v=65
315840 Off ch=1 n=g6 v=80
315960 On ch=1 n=d#6 v=65
316080 On ch=1 n=d#5 v=65
316200 Off ch=1 n=d#5 v=80
316200 Off ch=1 n=d#6 v=80
316200 On ch=1 n=d#6 v=65
316440 Off ch=1 n=d#6 v=80
316440 On ch=1 n=d6 v=65
316560 On ch=1 n=f5 v=65
316680 Off ch=1 n=f5 v=80
316680 Off ch=1 n=d6 v=80
316680 On ch=1 n=d6 v=65
316920 Off ch=1 n=d6 v=80
316920 On ch=1 n=c6 v=65
317040 On ch=1 n=d#5 v=71
317160 Off ch=1 n=d#5 v=80
317160 Off ch=1 n=c6 v=80
317160 On ch=1 n=c6 v=71
317400 Off ch=1 n=c6 v=80
317400 On ch=1 n=b5 v=77
317520 On ch=1 n=d5 v=83
317640 Off ch=1 n=d5 v=80
317640 Off ch=1 n=b5 v=80
317640 On ch=1 n=b5 v=83
317880 Off ch=1 n=b5 v=80
317880 On ch=1 n=d6 v=89
318000 On ch=1 n=f5 v=83
318120 Off ch=1 n=f5 v=80
318120 Off ch=1 n=d6 v=80
318120 On ch=1 n=d6 v=83
318360 Off ch=1 n=d6 v=80
318360 On ch=1 n=c6 v=77
318480 On ch=1 n=d#5 v=65
318600 Off ch=1 n=d#5 v=80
318600 Off ch=1 n=c6 v=80
318600 On ch=1 n=c6 v=65
318720 Off ch=1 n=c6 v=80
318840 On ch=1 n=c6 v=65
318960 On ch=1 n=d#5 v=65
319080 Off ch=1 n=d#5 v=80
319080 Off ch=1 n=c6 v=80
319080 On ch=1 n=c6 v=65
319200 Off ch=1 n=c6 v=80
319200 On ch=1 n=b5 v=65
319320 Off ch=1 n=b5 v=80
319320 On ch=1 n=c6 v=65
319440 Off ch=1 n=c6 v=80
319440 On ch=1 n=d#5 v=65
319560 Off ch=1 n=d#5 v=80
319560 On ch=1 n=f6 v=65
319680 Off ch=1 n=f6 v=80
319800 On ch=1 n=d6 v=65
319920 On ch=1 n=d5 v=65
320040 Off ch=1 n=d5 v=80
320040 Off ch=1 n=d6 v=80
320040 On ch=1 n=d6 v=65
320280 Off ch=1 n=d6 v=80
320280 On ch=1 n=c6 v=65
320400 On ch=1 n=g5 v=65
320520 Off ch=1 n=g5 v=80
320520 Off ch=1 n=c6 v=80
320520 On ch=1 n=c6 v=65
320760 Off ch=1 n=c6 v=80
320760 On ch=1 n=a#5 v=65
320880 On ch=1 n=f5 v=71
321000 Off ch=1 n=f5 v=80
321000 Off ch=1 n=a#5 v=80
321000 On ch=1 n=a#5 v=71
321240 Off ch=1 n=a#5 v=80
321240 On ch=1 n=a5 v=77
321360 On ch=1 n=d#5 v=83
321480 Off ch=1 n=d#5 v=80
321480 Off ch=1 n=a5 v=80
321480 On ch=1 n=a5 v=83
321720 Off ch=1 n=a5 v=80
321720 On ch=1 n=g#5 v=89
321840 On ch=1 n=d#5 v=83
321960 Off ch=1 n=d#5 v=80
321960 Off ch=1 n=g#5 v=80
321960 On ch=1 n=g#5 v=83
322200 Off ch=1 n=g#5 v=80
322200 On ch=1 n=g5 v=77
322320 On ch=1 n=d#5 v=65
322440 Off ch=1 n=d#5 v=80
322440 Off ch=1 n=g5 v=80
322440 On ch=1 n=g5 v=65
322560 Off ch=1 n=g5 v=80
322680 On ch=1 n=d6 v=65
322800 On ch=1 n=g5 v=65
322920 Off ch=1 n=g5 v=80
322920 Off ch=1 n=d6 v=80
322920 On ch=1 n=d#6 v=65
323040 Off ch=1 n=d#6 v=80
323040 On ch=1 n=c#6 v=65
323160 Off ch=1 n=c#6 v=80
323160 On ch=1 n=d6 v=65
323280 Off ch=1 n=d6 v=80
323280 On ch=1 n=g5 v=65
323400 Off ch=1 n=g5 v=80
323400 On ch=1 n=g6 v=65
323520 Off ch=1 n=g6 v=80
323640 On ch=1 n=c6 v=65
323760 On ch=1 n=g5 v=65
323880 Off ch=1 n=g5 v=80
323880 Off ch=1 n=c6 v=80
323880 On ch=1 n=d6 v=65
324000 Off ch=1 n=d6 v=80
324000 On ch=1 n=b5 v=65
324120 Off ch=1 n=b5 v=80
324120 On ch=1 n=c6 v=65
324240 Off ch=1 n=c6 v=80
324240 On ch=1 n=g5 v=65
324360 Off ch=1 n=g5 v=80
324360 On ch=1 n=g6 v=65
324480 Off ch=1 n=g6 v=80
324600 On ch=1 n=c6 v=65
324720 On ch=1 n=f5 v=65
324840 Off ch=1 n=f5 v=80
324840 Off ch=1 n=c6 v=80
324840 On ch=1 n=d6 v=65
324960 Off ch=1 n=d6 v=80
324960 On ch=1 n=b5 v=65
325080 Off ch=1 n=b5 v=80
325080 On ch=1 n=c6 v=65
325200 Off ch=1 n=c6 v=80
325200 On ch=1 n=f5 v=65
325320 Off ch=1 n=f5 v=80
325320 On ch=1 n=f6 v=65
325440 Off ch=1 n=f6 v=80
325560 On ch=1 n=a#5 v=65
325680 On ch=1 n=f5 v=65
325800 Off ch=1 n=f5 v=80
325800 Off ch=1 n=a#5 v=80
325800 On ch=1 n=c6 v=65
325920 Off ch=1 n=c6 v=80
325920 On ch=1 n=a5 v=65
326040 Off ch=1 n=a5 v=80
326040 On ch=1 n=a#5 v=65
326160 Off ch=1 n=a#5 v=80
326160 On ch=1 n=f5 v=65
326280 Off ch=1 n=f5 v=80
326280 On ch=1 n=f6 v=65
326400 Off ch=1 n=f6 v=80
326520 On ch=1 n=a#5 v=65
326640 On ch=1 n=d#5 v=71
326760 Off ch=1 n=d#5 v=80
326760 Off ch=1 n=a#5 v=80
326760 On ch=1 n=c6 v=71
326880 Off ch=1 n=c6 v=80
326880 On ch=1 n=a5 v=77
327000 Off ch=1 n=a5 v=80
327000 On ch=1 n=a#5 v=77
327120 Off ch=1 n=a#5 v=80
327120 On ch=1 n=d#5 v=83
327240 Off ch=1 n=d#5 v=80
327240 On ch=1 n=d#6 v=83
327360 Off ch=1 n=d#6 v=80
327480 On ch=1 n=d6 v=89
327600 Off ch=1 n=d6 v=80
327600 On ch=1 n=d5 v=83
327720 Off ch=1 n=d5 v=80
327720 On ch=1 n=d6 v=83
327840 Off ch=1 n=d6 v=80
327960 On ch=1 n=d6 v=77
328080 Off ch=1 n=d6 v=80
328080 On ch=1 n=d5 v=65
328200 Off ch=1 n=d5 v=80
328200 On ch=1 n=d6 v=65
328320 Off ch=1 n=d6 v=80
328440 On ch=1 n=d6 v=65
328560 Off ch=1 n=d6 v=80
328560 On ch=1 n=d5 v=65
328680 Off ch=1 n=d5 v=80
328680 On ch=1 n=d6 v=65
328800 Off ch=1 n=d6 v=80
328920 On ch=1 n=c6 v=65
329040 Off ch=1 n=c6 v=80
329040 On ch=1 n=c5 v=65
329160 Off ch=1 n=c5 v=80
329160 On ch=1 n=c6 v=65
329280 Off ch=1 n=c6 v=80
329400 On ch=1 n=d6 v=61
329520 Off ch=1 n=d6 v=80
329520 On ch=1 n=d5 v=57
329640 Off ch=1 n=d5 v=80
329640 On ch=1 n=d6 v=53
329760 Off ch=1 n=d6 v=80
329880 On ch=1 n=d6 v=49
330000 Off ch=1 n=d6 v=80
330000 On ch=1 n=d5 v=45
330120 Off ch=1 n=d5 v=80
330120 On ch=1 n=d6 v=41
330240 Off ch=1 n=d6 v=80
330484 On ch=1 n=a#3 v=102
330604 Off ch=1 n=a#3 v=80
330604 On ch=1 n=d#4 v=102
330724 Off ch=1 n=d#4 v=80
330724 On ch=1 n=a#4 v=102
330844 Off ch=1 n=a#4 v=80
330844 On ch=1 n=d4 v=102
330964 Off ch=1 n=d4 v=80
330964 On ch=1 n=d5 v=102
331084 Off ch=1 n=d5 v=80
331084 On ch=1 n=f#4 v=102
331200 On ch=1 n=g4 v=102
331204 Off ch=1 n=f#4 v=80
331320 Off ch=1 n=g4 v=80
331320 On ch=1 n=d4 v=102
331440 Off ch=1 n=d4 v=80
331440 On ch=1 n=g5 v=105
331560 Off ch=1 n=g5 v=80
331560 On ch=1 n=d5 v=105
331680 Off ch=1 n=d5 v=80
331680 On ch=1 n=d#5 v=108
331800 Off ch=1 n=d#5 v=80
331800 On ch=1 n=g4 v=108
331920 Off ch=1 n=g4 v=80
331920 On ch=1 n=a#5 v=111
332040 Off ch=1 n=a#5 v=80
332040 On ch=1 n=f#5 v=111
332160 Off ch=1 n=f#5 v=80
332160 On ch=1 n=g5 v=114
332400 Off ch=1 n=g5 v=80
332400 On ch=1 n=f#5 v=114
332520 Off ch=1 n=f#5 v=80
332520 On ch=1 n=g5 v=114
332640 Off ch=1 n=g5 v=80
332640 On ch=1 n=a6 v=127
332760 Off ch=1 n=a6 v=80
332760 On ch=1 n=g6 v=114
332880 Off ch=1 n=g6 v=80
332880 On ch=1 n=d#6 v=114
333000 Off ch=1 n=d#6 v=80
333000 On ch=1 n=c6 v=114
333120 Off ch=1 n=c6 v=80
333120 On ch=1 n=a#5 v=114
333240 Off ch=1 n=a#5 v=80
333240 On ch=1 n=a5 v=114
333360 Off ch=1 n=a5 v=80
333360 On ch=1 n=d6 v=111
333480 Off ch=1 n=d6 v=80
333480 On ch=1 n=c6 v=111
333600 Off ch=1 n=c6 v=80
333600 On ch=1 n=a5 v=108
333720 Off ch=1 n=a5 v=80
333720 On ch=1 n=f5 v=108
333840 Off ch=1 n=f5 v=80
333840 On ch=1 n=d#5 v=105
333960 Off ch=1 n=d#5 v=80
333960 On ch=1 n=c5 v=105
334080 Off ch=1 n=c5 v=80
334080 On ch=1 n=a#4 v=102
334320 Off ch=1 n=a#4 v=80
334320 On ch=1 n=d6 v=105
334440 Off ch=1 n=d6 v=80
334440 On ch=1 n=d#6 v=105
334560 Off ch=1 n=d#6 v=80
334560 On ch=1 n=c7 v=123
334680 Off ch=1 n=c7 v=80
334680 On ch=1 n=a#6 v=108
334800 Off ch=1 n=a#6 v=80
334800 On ch=1 n=g6 v=111
334920 Off ch=1 n=g6 v=80
334920 On ch=1 n=d#6 v=111
335040 Off ch=1 n=d#6 v=80
335040 On ch=1 n=d6 v=114
335160 Off ch=1 n=d6 v=80
335160 On ch=1 n=c6 v=114
335280 Off ch=1 n=c6 v=80
335280 On ch=1 n=d#6 v=111
335400 Off ch=1 n=d#6 v=80
335400 On ch=1 n=c6 v=111
335520 Off ch=1 n=c6 v=80
335520 On ch=1 n=a5 v=108
335640 Off ch=1 n=a5 v=80
335640 On ch=1 n=f5 v=108
335760 Off ch=1 n=f5 v=80
335760 On ch=1 n=e5 v=105
335880 Off ch=1 n=e5 v=80
335880 On ch=1 n=d#5 v=105
336000 Off ch=1 n=d#5 v=80
336000 On ch=1 n=d5 v=102
336240 Off ch=1 n=d5 v=80
336240 On ch=1 n=c#6 v=102
336360 Off ch=1 n=c#6 v=80
336360 On ch=1 n=d6 v=102
336480 Off ch=1 n=d6 v=80
336480 On ch=1 n=d#6 v=102
336600 Off ch=1 n=d#6 v=80
336600 On ch=1 n=d6 v=102
336720 Off ch=1 n=d6 v=80
336720 On ch=1 n=c6 v=102
336840 Off ch=1 n=c6 v=80
336840 On ch=1 n=d6 v=117
336960 Off ch=1 n=d6 v=80
336960 On ch=1 n=d6 v=117
337080 Off ch=1 n=d6 v=80
337080 On ch=1 n=c6 v=102
337200 Off ch=1 n=c6 v=80
337200 On ch=1 n=b5 v=102
337320 Off ch=1 n=b5 v=80
337320 On ch=1 n=c6 v=102
337440 Off ch=1 n=c6 v=80
337440 On ch=1 n=c6 v=117
337560 Off ch=1 n=c6 v=80
337560 On ch=1 n=a#5 v=102
337680 Off ch=1 n=a#5 v=80
337680 On ch=1 n=a5 v=102
337800 Off ch=1 n=a5 v=80
337800 On ch=1 n=a#5 v=102
337920 Off ch=1 n=a#5 v=80
337920 On ch=1 n=a5 v=117
338040 Off ch=1 n=a5 v=80
338040 On ch=1 n=g5 v=102
338160 Off ch=1 n=g5 v=80
338160 On ch=1 n=f#5 v=102
338280 Off ch=1 n=f#5 v=80
338280 On ch=1 n=g5 v=102
338400 Off ch=1 n=g5 v=80
338400 On ch=1 n=f#5 v=102
338520 Off ch=1 n=f#5 v=80
338520 On ch=1 n=g5 v=102
338640 Off ch=1 n=g5 v=80
338640 On ch=1 n=g#6 v=117
338760 Off ch=1 n=g#6 v=80
338760 On ch=1 n=f6 v=102
338880 Off ch=1 n=f6 v=80
338880 On ch=1 n=d6 v=102
339000 Off ch=1 n=d6 v=80
339000 On ch=1 n=b5 v=102
339120 Off ch=1 n=b5 v=80
339120 On ch=1 n=g#5 v=102
339240 Off ch=1 n=g#5 v=80
339240 On ch=1 n=f5 v=102
339360 Off ch=1 n=f5 v=80
339360 On ch=1 n=d5 v=102
339480 Off ch=1 n=d5 v=80
339480 On ch=1 n=b4 v=102
339600 Off ch=1 n=b4 v=80
340080 On ch=1 n=d6 v=102
340200 Off ch=1 n=d6 v=80
340200 On ch=1 n=d#6 v=102
340320 Off ch=1 n=d#6 v=80
340320 On ch=1 n=e6 v=102
340440 Off ch=1 n=e6 v=80
340440 On ch=1 n=d#6 v=102
340560 Off ch=1 n=d#6 v=80
340560 On ch=1 n=d6 v=102
340680 Off ch=1 n=d6 v=80
340680 On ch=1 n=d#6 v=102
340800 Off ch=1 n=d#6 v=80
340800 On ch=1 n=f6 v=117
340920 Off ch=1 n=f6 v=80
340920 On ch=1 n=d#6 v=102
341040 Off ch=1 n=d#6 v=80
341040 On ch=1 n=d6 v=102
341160 Off ch=1 n=d6 v=80
341160 On ch=1 n=d#6 v=102
341280 Off ch=1 n=d#6 v=80
341280 On ch=1 n=d#6 v=117
341400 Off ch=1 n=d#6 v=80
341400 On ch=1 n=d6 v=102
341520 Off ch=1 n=d6 v=80
341520 On ch=1 n=c#6 v=102
341640 Off ch=1 n=c#6 v=80
341640 On ch=1 n=d6 v=102
341760 Off ch=1 n=d6 v=80
341760 On ch=1 n=d6 v=117
341880 Off ch=1 n=d6 v=80
341880 On ch=1 n=c6 v=102
342000 Off ch=1 n=c6 v=80
342000 On ch=1 n=b5 v=102
342120 Off ch=1 n=b5 v=80
342120 On ch=1 n=c6 v=102
342240 Off ch=1 n=c6 v=80
342240 On ch=1 n=b5 v=102
342360 Off ch=1 n=b5 v=80
342360 On ch=1 n=c6 v=102
342480 Off ch=1 n=c6 v=80
342480 On ch=1 n=c#7 v=117
342600 Off ch=1 n=c#7 v=80
342600 On ch=1 n=a#6 v=102
342720 Off ch=1 n=a#6 v=80
342720 On ch=1 n=g6 v=102
342840 Off ch=1 n=g6 v=80
342840 On ch=1 n=e6 v=102
342960 Off ch=1 n=e6 v=80
342960 On ch=1 n=c#6 v=99
343080 Off ch=1 n=c#6 v=80
343080 On ch=1 n=a#5 v=99
343200 Off ch=1 n=a#5 v=80
343200 On ch=1 n=g5 v=96
343320 Off ch=1 n=g5 v=80
343320 On ch=1 n=e5 v=96
343440 Off ch=1 n=e5 v=80
343800 On ch=1 n=f5 v=115
343920 On ch=1 n=c5 v=78
344040 Off ch=1 n=c5 v=80
344040 Off ch=1 n=f5 v=80
344040 On ch=1 n=g5 v=78
344160 Off ch=1 n=g5 v=80
344160 On ch=1 n=a5 v=78
344280 Off ch=1 n=a5 v=80
344280 On ch=1 n=a5 v=115
344400 On ch=1 n=f5 v=78
344520 Off ch=1 n=f5 v=80
344520 Off ch=1 n=a5 v=80
344520 On ch=1 n=a#5 v=78
344640 Off ch=1 n=a#5 v=80
344640 On ch=1 n=c6 v=86
344760 Off ch=1 n=c6 v=80
344760 On ch=1 n=b5 v=123
344880 On ch=1 n=f5 v=86
345000 Off ch=1 n=f5 v=80
345000 Off ch=1 n=b5 v=80
345000 On ch=1 n=c6 v=86
345120 Off ch=1 n=c6 v=80
345120 On ch=1 n=d6 v=94
345240 Off ch=1 n=d6 v=80
345240 On ch=1 n=c6 v=127
345360 On ch=1 n=g5 v=94
345480 Off ch=1 n=g5 v=80
345480 Off ch=1 n=c6 v=80
345480 On ch=1 n=d6 v=94
345600 Off ch=1 n=d6 v=80
345600 On ch=1 n=d#6 v=102
345720 Off ch=1 n=d#6 v=80
345720 On ch=1 n=d6 v=127
345840 On ch=1 n=g#5 v=102
345960 Off ch=1 n=g#5 v=80
345960 Off ch=1 n=d6 v=80
345960 On ch=1 n=d#6 v=102
346080 Off ch=1 n=d#6 v=80
346080 On ch=1 n=f6 v=102
346200 Off ch=1 n=f6 v=80
346200 On ch=1 n=c6 v=127
346320 On ch=1 n=g5 v=102
346440 Off ch=1 n=g5 v=80
346440 Off ch=1 n=c6 v=80
346440 On ch=1 n=d6 v=102
346560 Off ch=1 n=d6 v=80
346560 On ch=1 n=d#6 v=94
346680 Off ch=1 n=d#6 v=80
346680 On ch=1 n=b5 v=127
346800 On ch=1 n=f5 v=94
346920 Off ch=1 n=f5 v=80
346920 Off ch=1 n=b5 v=80
346920 On ch=1 n=c6 v=94
347040 Off ch=1 n=c6 v=80
347040 On ch=1 n=d6 v=86
347160 Off ch=1 n=d6 v=80
347160 On ch=1 n=c6 v=123
347280 On ch=1 n=g5 v=86
347400 Off ch=1 n=g5 v=80
347400 Off ch=1 n=c6 v=80
347400 On ch=1 n=d6 v=86
347520 Off ch=1 n=d6 v=80
347520 On ch=1 n=d#6 v=78
347640 Off ch=1 n=d#6 v=80
347640 On ch=1 n=g5 v=115
347760 On ch=1 n=d#5 v=78
347880 Off ch=1 n=d#5 v=80
347880 Off ch=1 n=g5 v=80
347880 On ch=1 n=b5 v=78
348000 Off ch=1 n=b5 v=80
348000 On ch=1 n=c6 v=78
348120 Off ch=1 n=c6 v=80
348120 On ch=1 n=c6 v=115
348240 On ch=1 n=g5 v=78
348360 Off ch=1 n=g5 v=80
348360 Off ch=1 n=c6 v=80
348360 On ch=1 n=d6 v=78
348480 Off ch=1 n=d6 v=80
348480 On ch=1 n=d#6 v=78
348600 Off ch=1 n=d#6 v=80
348600 On ch=1 n=d6 v=102
348720 On ch=1 n=g#5 v=78
348840 Off ch=1 n=g#5 v=80
348840 Off ch=1 n=d6 v=80
348840 On ch=1 n=d#6 v=90
348960 Off ch=1 n=d#6 v=80
348960 On ch=1 n=f6 v=78
349080 Off ch=1 n=f6 v=80
349080 On ch=1 n=d#6 v=102
349200 On ch=1 n=a#5 v=78
349320 Off ch=1 n=a#5 v=80
349320 Off ch=1 n=d#6 v=80
349320 On ch=1 n=f6 v=90
349440 Off ch=1 n=f6 v=80
349440 On ch=1 n=g6 v=78
349560 Off ch=1 n=g6 v=80
349560 On ch=1 n=f6 v=102
349680 On ch=1 n=b5 v=78
349800 Off ch=1 n=b5 v=80
349800 Off ch=1 n=f6 v=80
349800 On ch=1 n=g6 v=90
349920 Off ch=1 n=g6 v=80
349920 On ch=1 n=g#6 v=78
350040 Off ch=1 n=g#6 v=80
350040 On ch=1 n=d#6 v=102
350160 On ch=1 n=a#5 v=78
350280 Off ch=1 n=a#5 v=80
350280 Off ch=1 n=d#6 v=80
350280 On ch=1 n=f6 v=90
350400 Off ch=1 n=f6 v=80
350400 On ch=1 n=g6 v=78
350520 Off ch=1 n=g6 v=80
350520 On ch=1 n=d6 v=78
350640 On ch=1 n=g#5 v=78
350760 Off ch=1 n=g#5 v=80
350760 Off ch=1 n=d6 v=80
350760 On ch=1 n=d#6 v=78
350880 Off ch=1 n=d#6 v=80
350880 On ch=1 n=f6 v=78
351000 Off ch=1 n=f6 v=80
351000 On ch=1 n=c6 v=78
351120 On ch=1 n=g5 v=78
351240 Off ch=1 n=g5 v=80
351240 Off ch=1 n=c6 v=80
351240 On ch=1 n=d6 v=78
351360 Off ch=1 n=d6 v=80
351360 On ch=1 n=d#6 v=78
351480 Off ch=1 n=d#6 v=80
351480 On ch=1 n=d#6 v=78
351600 On ch=1 n=c6 v=78
351720 Off ch=1 n=c6 v=80
351720 Off ch=1 n=d#6 v=80
351720 On ch=1 n=f6 v=78
351840 Off ch=1 n=f6 v=80
351840 On ch=1 n=g6 v=78
351960 Off ch=1 n=g6 v=80
351960 On ch=1 n=c6 v=78
352080 On ch=1 n=g5 v=78
352200 Off ch=1 n=g5 v=80
352200 Off ch=1 n=c6 v=80
352200 On ch=1 n=d6 v=78
352320 Off ch=1 n=d6 v=80
352320 On ch=1 n=d#6 v=78
352440 Off ch=1 n=d#6 v=80
352440 On ch=1 n=g5 v=78
352560 On ch=1 n=d#5 v=78
352680 Off ch=1 n=d#5 v=80
352680 Off ch=1 n=g5 v=80
352680 On ch=1 n=b5 v=78
352800 Off ch=1 n=b5 v=80
352800 On ch=1 n=c6 v=78
352920 Off ch=1 n=c6 v=80
352920 On ch=1 n=g5 v=78
353040 On ch=1 n=d5 v=78
353160 Off ch=1 n=d5 v=80
353160 Off ch=1 n=g5 v=80
353160 On ch=1 n=a5 v=78
353280 Off ch=1 n=a5 v=80
353280 On ch=1 n=a#5 v=78
353400 Off ch=1 n=a#5 v=80
353400 On ch=1 n=a#5 v=78
353520 On ch=1 n=g5 v=78
353640 Off ch=1 n=g5 v=80
353640 Off ch=1 n=a#5 v=80
353640 On ch=1 n=c6 v=78
353760 Off ch=1 n=c6 v=80
353760 On ch=1 n=d6 v=78
353880 Off ch=1 n=d6 v=80
353880 On ch=1 n=g5 v=78
354000 On ch=1 n=d5 v=78
354120 Off ch=1 n=d5 v=80
354120 Off ch=1 n=g5 v=80
354120 On ch=1 n=a5 v=78
354240 Off ch=1 n=a5 v=80
354240 On ch=1 n=a#5 v=78
354360 Off ch=1 n=a#5 v=80
354360 On ch=1 n=d5 v=78
354480 On ch=1 n=a#4 v=78
354600 Off ch=1 n=a#4 v=80
354600 Off ch=1 n=d5 v=80
354600 On ch=1 n=f#5 v=78
354720 Off ch=1 n=f#5 v=80
354720 On ch=1 n=g5 v=78
354840 Off ch=1 n=g5 v=80
354840 On ch=1 n=d5 v=78
354960 On ch=1 n=a4 v=78
355080 Off ch=1 n=a4 v=80
355080 Off ch=1 n=d5 v=80
355080 On ch=1 n=e5 v=78
355200 Off ch=1 n=e5 v=80
355200 On ch=1 n=f5 v=78
355320 Off ch=1 n=f5 v=80
355320 On ch=1 n=f5 v=78
355440 On ch=1 n=d5 v=78
355560 Off ch=1 n=d5 v=80
355560 Off ch=1 n=f5 v=80
355560 On ch=1 n=g5 v=78
355680 Off ch=1 n=g5 v=80
355680 On ch=1 n=a5 v=78
355800 Off ch=1 n=a5 v=80
355800 On ch=1 n=d5 v=78
355920 On ch=1 n=a4 v=78
356040 Off ch=1 n=a4 v=80
356040 Off ch=1 n=d5 v=80
356040 On ch=1 n=e5 v=78
356160 Off ch=1 n=e5 v=80
356160 On ch=1 n=f5 v=78
356280 Off ch=1 n=f5 v=80
356280 On ch=1 n=a4 v=78
356400 On ch=1 n=f4 v=78
356520 Off ch=1 n=f4 v=80
356520 Off ch=1 n=a4 v=80
356520 On ch=1 n=c#5 v=78
356640 Off ch=1 n=c#5 v=80
356640 On ch=1 n=d5 v=78
356760 Off ch=1 n=d5 v=80
356760 On ch=1 n=a4 v=78
356880 On ch=1 n=e4 v=78
357000 Off ch=1 n=e4 v=80
357000 Off ch=1 n=a4 v=80
357000 On ch=1 n=b4 v=78
357120 Off ch=1 n=b4 v=80
357120 On ch=1 n=c5 v=78
357240 Off ch=1 n=c5 v=80
357240 On ch=1 n=c5 v=78
357360 On ch=1 n=a4 v=78
357480 Off ch=1 n=a4 v=80
357480 Off ch=1 n=c5 v=80
357480 On ch=1 n=d5 v=78
357600 Off ch=1 n=d5 v=80
357600 On ch=1 n=e5 v=78
357720 Off ch=1 n=e5 v=80
357720 On ch=1 n=a4 v=78
357840 On ch=1 n=e4 v=78
357960 Off ch=1 n=e4 v=80
357960 Off ch=1 n=a4 v=80
357960 On ch=1 n=b4 v=78
358080 Off ch=1 n=b4 v=80
358080 On ch=1 n=c5 v=78
358200 Off ch=1 n=c5 v=80
358200 On ch=1 n=e4 v=78
358320 On ch=1 n=c4 v=78
358440 Off ch=1 n=c4 v=80
358440 Off ch=1 n=e4 v=80
358440 On ch=1 n=g#4 v=78
358560 Off ch=1 n=g#4 v=80
358560 On ch=1 n=a4 v=78
358680 Off ch=1 n=a4 v=80
358680 On ch=1 n=d#4 v=78
358800 Off ch=1 n=d#4 v=80
358800 On ch=1 n=c4 v=78
358920 Off ch=1 n=c4 v=80
358920 On ch=1 n=g#4 v=78
359040 Off ch=1 n=g#4 v=80
359040 On ch=1 n=a4 v=78
359160 Off ch=1 n=a4 v=80
359160 On ch=1 n=e4 v=78
359280 Off ch=1 n=e4 v=80
359280 On ch=1 n=c4 v=78
359400 Off ch=1 n=c4 v=80
359400 On ch=1 n=g#4 v=78
359520 Off ch=1 n=g#4 v=80
359520 On ch=1 n=a4 v=78
359640 Off ch=1 n=a4 v=80
359640 On ch=1 n=c4 v=65
359760 Off ch=1 n=c4 v=80
359760 On ch=1 n=d#4 v=65
359880 Off ch=1 n=d#4 v=80
359880 On ch=1 n=f4 v=65
360000 Off ch=1 n=f4 v=80
360000 On ch=1 n=f5 v=80
360480 Off ch=1 n=f5 v=80
360480 On ch=1 n=f5 v=80
360960 Off ch=1 n=f5 v=80
360960 On ch=1 n=f5 v=86
361680 Off ch=1 n=f5 v=80
361680 On ch=1 n=f5 v=77
361920 Off ch=1 n=f5 v=80
361920 On ch=1 n=f5 v=98
362400 Off ch=1 n=f5 v=80
362400 On ch=1 n=f5 v=104
363000 Off ch=1 n=f5 v=80
363000 On ch=1 n=f5 v=89
363120 Off ch=1 n=f5 v=80
363120 On ch=1 n=c5 v=89
363240 Off ch=1 n=c5 v=80
363240 On ch=1 n=g5 v=89
363360 Off ch=1 n=g5 v=80
363360 On ch=1 n=a5 v=89
363480 Off ch=1 n=a5 v=80
363480 On ch=1 n=c5 v=65
363600 Off ch=1 n=c5 v=80
363600 On ch=1 n=d#5 v=65
363720 Off ch=1 n=d#5 v=80
363720 On ch=1 n=f5 v=65
363840 Off ch=1 n=f5 v=80
363840 On ch=1 n=f6 v=80
364320 Off ch=1 n=f6 v=80
364320 On ch=1 n=f6 v=80
364800 Off ch=1 n=f6 v=80
364800 On ch=1 n=f6 v=86
365520 Off ch=1 n=f6 v=80
365520 On ch=1 n=f6 v=77
365760 Off ch=1 n=f6 v=80
365760 On ch=1 n=f6 v=98
366240 Off ch=1 n=f6 v=80
366240 On ch=1 n=f6 v=104
366840 Off ch=1 n=f6 v=80
366840 On ch=1 n=f6 v=96
366960 Off ch=1 n=f6 v=80
366960 On ch=1 n=c6 v=96
367080 Off ch=1 n=c6 v=80
367080 On ch=1 n=g6 v=96
367200 Off ch=1 n=g6 v=80
367200 On ch=1 n=a6 v=96
367320 Off ch=1 n=a6 v=80
367320 On ch=1 n=a6 v=96
367440 Off ch=1 n=a6 v=80
367440 On ch=1 n=f6 v=96
367560 Off ch=1 n=f6 v=80
367560 On ch=1 n=a#6 v=96
367680 Off ch=1 n=a#6 v=80
367680 On ch=1 n=c7 v=96
367800 Off ch=1 n=c7 v=80
367800 On ch=1 n=a#6 v=96
367920 Off ch=1 n=a#6 v=80
367920 On ch=1 n=f6 v=96
368040 Off ch=1 n=f6 v=80
368040 On ch=1 n=c7 v=96
368160 Off ch=1 n=c7 v=80
368160 On ch=1 n=c#7 v=96
368280 Off ch=1 n=c#7 v=80
368280 On ch=1 n=a6 v=96
368400 Off ch=1 n=a6 v=80
368400 On ch=1 n=f6 v=96
368520 Off ch=1 n=f6 v=80
368520 On ch=1 n=a#6 v=96
368640 Off ch=1 n=a#6 v=80
368640 On ch=1 n=c7 v=96
368760 Off ch=1 n=c7 v=80
368760 On ch=1 n=f6 v=96
368880 Off ch=1 n=f6 v=80
368880 On ch=1 n=c6 v=96
369000 Off ch=1 n=c6 v=80
369000 On ch=1 n=g6 v=96
369120 Off ch=1 n=g6 v=80
369120 On ch=1 n=a6 v=96
369240 Off ch=1 n=a6 v=80
369240 On ch=1 n=c6 v=96
369360 Off ch=1 n=c6 v=80
369360 On ch=1 n=a5 v=96
369480 Off ch=1 n=a5 v=80
369480 On ch=1 n=e6 v=96
369600 Off ch=1 n=e6 v=80
369600 On ch=1 n=f6 v=96
369720 Off ch=1 n=f6 v=80
369720 On ch=1 n=a#5 v=96
369840 Off ch=1 n=a#5 v=80
369840 On ch=1 n=g5 v=96
369960 Off ch=1 n=g5 v=80
369960 On ch=1 n=d#6 v=96
370080 Off ch=1 n=d#6 v=80
370080 On ch=1 n=e6 v=96
370200 Off ch=1 n=e6 v=80
370200 On ch=1 n=c6 v=96
370320 Off ch=1 n=c6 v=80
370320 On ch=1 n=a5 v=96
370440 Off ch=1 n=a5 v=80
370440 On ch=1 n=e6 v=96
370560 Off ch=1 n=e6 v=80
370560 On ch=1 n=f6 v=96
370680 Off ch=1 n=f6 v=80
370680 On ch=1 n=f5 v=96
370800 Off ch=1 n=f5 v=80
370820 On ch=1 n=c5 v=96
370920 Off ch=1 n=c5 v=80
370920 On ch=1 n=g5 v=96
371040 Off ch=1 n=g5 v=80
371040 On ch=1 n=a5 v=96
371160 Off ch=1 n=a5 v=80
371160 On ch=1 n=a5 v=96
371280 Off ch=1 n=a5 v=80
371280 On ch=1 n=f5 v=96
371400 Off ch=1 n=f5 v=80
371400 On ch=1 n=a#5 v=96
371520 Off ch=1 n=a#5 v=80
371520 On ch=1 n=c6 v=96
371640 Off ch=1 n=c6 v=80
371640 On ch=1 n=a#5 v=96
371760 Off ch=1 n=a#5 v=80
371760 On ch=1 n=f5 v=96
371880 Off ch=1 n=f5 v=80
371880 On ch=1 n=c6 v=96
372000 Off ch=1 n=c6 v=80
372000 On ch=1 n=c#6 v=96
372120 Off ch=1 n=c#6 v=80
372120 On ch=1 n=a5 v=96
372240 Off ch=1 n=a5 v=80
372240 On ch=1 n=f5 v=96
372360 Off ch=1 n=f5 v=80
372360 On ch=1 n=a#5 v=96
372480 Off ch=1 n=a#5 v=80
372480 On ch=1 n=c6 v=96
372600 Off ch=1 n=c6 v=80
372600 On ch=1 n=f5 v=96
372720 Off ch=1 n=f5 v=80
372720 On ch=1 n=c5 v=96
372840 Off ch=1 n=c5 v=80
372840 On ch=1 n=g5 v=96
372960 Off ch=1 n=g5 v=80
372960 On ch=1 n=a5 v=96
373080 Off ch=1 n=a5 v=80
373080 On ch=1 n=c5 v=96
373200 Off ch=1 n=c5 v=80
373200 On ch=1 n=a4 v=96
373320 Off ch=1 n=a4 v=80
373320 On ch=1 n=e5 v=96
373440 Off ch=1 n=e5 v=80
373440 On ch=1 n=f5 v=96
373560 Off ch=1 n=f5 v=80
373560 On ch=1 n=a#4 v=96
373680 Off ch=1 n=a#4 v=80
373680 On ch=1 n=g4 v=96
373800 Off ch=1 n=g4 v=80
373800 On ch=1 n=d#5 v=96
373920 Off ch=1 n=d#5 v=80
373920 On ch=1 n=e5 v=96
374040 Off ch=1 n=e5 v=80
374040 On ch=1 n=c5 v=96
374160 Off ch=1 n=c5 v=80
374160 On ch=1 n=a4 v=96
374280 Off ch=1 n=a4 v=80
374280 On ch=1 n=e5 v=96
374400 Off ch=1 n=e5 v=80
374400 On ch=1 n=f5 v=96
374520 Off ch=1 n=f5 v=80
374520 On ch=1 n=f4 v=96
374640 Off ch=1 n=f4 v=80
374660 On ch=1 n=c4 v=96
374760 Off ch=1 n=c4 v=80
374760 On ch=1 n=g4 v=96
374880 Off ch=1 n=g4 v=80
374880 On ch=1 n=a4 v=96
375000 Off ch=1 n=a4 v=80
375000 On ch=1 n=a4 v=96
375120 Off ch=1 n=a4 v=80
375120 On ch=1 n=f4 v=96
375240 Off ch=1 n=f4 v=80
375240 On ch=1 n=a#4 v=96
375360 Off ch=1 n=a#4 v=80
375360 On ch=1 n=a4 v=96
375480 Off ch=1 n=a4 v=80
375480 On ch=1 n=f4 v=96
375600 Off ch=1 n=f4 v=80
375620 On ch=1 n=c4 v=96
375720 Off ch=1 n=c4 v=80
375720 On ch=1 n=g4 v=96
375840 Off ch=1 n=g4 v=80
375840 On ch=1 n=a4 v=96
375960 Off ch=1 n=a4 v=80
375960 On ch=1 n=f4 v=96
376080 Off ch=1 n=f4 v=80
376100 On ch=1 n=c4 v=96
376200 Off ch=1 n=c4 v=80
376200 On ch=1 n=g4 v=96
376320 Off ch=1 n=g4 v=80
376320 On ch=1 n=a4 v=96
376440 Off ch=1 n=a4 v=80
376440 On ch=1 n=f4 v=96
376560 Off ch=1 n=f4 v=80
376580 On ch=1 n=c4 v=96
376680 Off ch=1 n=c4 v=80
376680 On ch=1 n=g4 v=96
376800 Off ch=1 n=g4 v=80
376800 On ch=1 n=a4 v=96
376920 Off ch=1 n=a4 v=80
376920 On ch=1 n=f4 v=96
377040 Off ch=1 n=f4 v=80
377060 On ch=1 n=c4 v=96
377160 Off ch=1 n=c4 v=80
377160 On ch=1 n=g4 v=96
377280 Off ch=1 n=g4 v=80
377280 On ch=1 n=a4 v=104
377400 Off ch=1 n=a4 v=80
377400 On ch=1 n=f4 v=104
377520 Off ch=1 n=f4 v=80
377540 On ch=1 n=c4 v=104
377640 Off ch=1 n=c4 v=80
377640 On ch=1 n=g4 v=104
377760 Off ch=1 n=g4 v=80
377760 On ch=1 n=a4 v=112
377880 Off ch=1 n=a4 v=80
377880 On ch=1 n=f4 v=112
378000 Off ch=1 n=f4 v=80
378020 On ch=1 n=c4 v=112
378120 Off ch=1 n=c4 v=80
378120 On ch=1 n=g4 v=112
378240 Off ch=1 n=g4 v=80
378240 On ch=1 n=g#4 v=127
378480 Off ch=1 n=g#4 v=80
378720 On ch=1 n=c7 v=127
378720 On ch=1 n=d6 v=127
378720 On ch=1 n=c6 v=127
379560 Off ch=1 n=c6 v=80
379560 Off ch=1 n=d6 v=80
379560 Off ch=1 n=c7 v=80
379560 On ch=1 n=a#6 v=102
379560 On ch=1 n=a#5 v=102
379680 Off ch=1 n=a#5 v=80
379680 Off ch=1 n=a#6 v=80
379680 On ch=1 n=a#6 v=102
379680 On ch=1 n=a#5 v=102
379800 Off ch=1 n=a#5 v=80
379800 Off ch=1 n=a#6 v=80
379920 On ch=1 n=d#6 v=102
380040 Off ch=1 n=d#6 v=80
380160 On ch=1 n=a#6 v=102
380160 On ch=1 n=a#5 v=102
380280 Off ch=1 n=a#5 v=80
380280 Off ch=1 n=a#6 v=80
380400 On ch=1 n=d6 v=102
380520 Off ch=1 n=d6 v=80
380640 On ch=1 n=g6 v=102
380640 On ch=1 n=g5 v=102
380760 Off ch=1 n=g5 v=80
380760 Off ch=1 n=g6 v=80
380880 On ch=1 n=c6 v=102
381000 Off ch=1 n=c6 v=80
381120 On ch=1 n=f6 v=102
381120 On ch=1 n=f5 v=102
381240 Off ch=1 n=f5 v=80
381240 Off ch=1 n=f6 v=80
381600 On ch=1 n=a5 v=102
381600 On ch=1 n=f5 v=102
381600 On ch=1 n=c5 v=102
381720 Off ch=1 n=c5 v=80
381720 Off ch=1 n=f5 v=80
381720 Off ch=1 n=a5 v=80
382200 On ch=1 n=c4 v=96
382320 Off ch=1 n=c4 v=80
382340 On ch=1 n=f4 v=96
382440 Off ch=1 n=f4 v=80
382440 On ch=1 n=g4 v=96
382560 Off ch=1 n=g4 v=80
382560 On ch=1 n=a4 v=96
382680 Off ch=1 n=a4 v=80
382680 On ch=1 n=c4 v=96
382800 Off ch=1 n=c4 v=80
382820 On ch=1 n=f4 v=96
382920 Off ch=1 n=f4 v=80
382920 On ch=1 n=g4 v=96
383040 Off ch=1 n=g4 v=80
383040 On ch=1 n=a4 v=96
383160 Off ch=1 n=a4 v=80
383160 On ch=1 n=c4 v=96
383280 Off ch=1 n=c4 v=80
383300 On ch=1 n=f4 v=96
383400 Off ch=1 n=f4 v=80
383400 On ch=1 n=g4 v=96
383520 Off ch=1 n=g4 v=80
383520 On ch=1 n=a4 v=96
383640 Off ch=1 n=a4 v=80
383640 On ch=1 n=c4 v=96
383760 Off ch=1 n=c4 v=80
383780 On ch=1 n=f4 v=96
383880 Off ch=1 n=f4 v=80
383880 On ch=1 n=g4 v=96
384000 Off ch=1 n=g4 v=80
384000 On ch=1 n=a4 v=96
384120 Off ch=1 n=a4 v=80
384120 On ch=1 n=c4 v=96
384240 Off ch=1 n=c4 v=80
384260 On ch=1 n=f4 v=96
384360 Off ch=1 n=f4 v=80
384360 On ch=1 n=g4 v=96
384480 Off ch=1 n=g4 v=80
384480 On ch=1 n=a4 v=96
384600 Off ch=1 n=a4 v=80
384600 On ch=1 n=c4 v=96
384720 Off ch=1 n=c4 v=80
384740 On ch=1 n=f4 v=96
384840 Off ch=1 n=f4 v=80
384840 On ch=1 n=g4 v=96
384960 Off ch=1 n=g4 v=80
384960 On ch=1 n=a4 v=96
385080 Off ch=1 n=a4 v=80
385080 On ch=1 n=c4 v=96
385200 Off ch=1 n=c4 v=80
385220 On ch=1 n=f4 v=96
385320 Off ch=1 n=f4 v=80
385320 On ch=1 n=g4 v=96
385440 Off ch=1 n=g4 v=80
385440 On ch=1 n=a4 v=96
385560 Off ch=1 n=a4 v=80
385560 On ch=1 n=c4 v=96
385680 Off ch=1 n=c4 v=80
385700 On ch=1 n=f4 v=96
385800 Off ch=1 n=f4 v=80
385800 On ch=1 n=g4 v=96
385920 Off ch=1 n=g4 v=80
385920 On ch=1 n=g#4 v=127
386160 Off ch=1 n=g#4 v=80
386400 On ch=1 n=c7 v=127
386400 On ch=1 n=d6 v=127
386400 On ch=1 n=c6 v=127
387120 Off ch=1 n=c6 v=80
387120 Off ch=1 n=d6 v=80
387120 Off ch=1 n=c7 v=80
387124 On ch=1 n=a#5 v=102
387124 On ch=1 n=a#6 v=102
387244 Off ch=1 n=a#6 v=80
387244 Off ch=1 n=a#5 v=80
387360 On ch=1 n=a#6 v=102
387360 On ch=1 n=a#5 v=102
387480 Off ch=1 n=a#5 v=80
387480 Off ch=1 n=a#6 v=80
387600 On ch=1 n=d#6 v=102
387720 Off ch=1 n=d#6 v=80
387840 On ch=1 n=a#6 v=102
387840 On ch=1 n=a#5 v=102
387960 Off ch=1 n=a#5 v=80
387960 Off ch=1 n=a#6 v=80
388080 On ch=1 n=d6 v=102
388200 Off ch=1 n=d6 v=80
388320 On ch=1 n=g6 v=102
388320 On ch=1 n=g5 v=102
388440 Off ch=1 n=g5 v=80
388440 Off ch=1 n=g6 v=80
388560 On ch=1 n=c6 v=102
388680 Off ch=1 n=c6 v=80
388800 On ch=1 n=f6 v=102
388800 On ch=1 n=f5 v=102
388920 Off ch=1 n=f5 v=80
388920 Off ch=1 n=f6 v=80
389280 On ch=1 n=a5 v=102
389280 On ch=1 n=f5 v=102
389280 On ch=1 n=c5 v=102
389400 Off ch=1 n=c5 v=80
389400 Off ch=1 n=f5 v=80
389400 Off ch=1 n=a5 v=80
390000 On ch=1 n=d4 v=114
390120 Off ch=1 n=d4 v=80
390120 On ch=1 n=g#4 v=114
390240 Off ch=1 n=g#4 v=80
390240 On ch=1 n=d5 v=114
390360 Off ch=1 n=d5 v=80
390360 On ch=1 n=g4 v=114
390480 Off ch=1 n=g4 v=80
390480 On ch=1 n=g5 v=114
390600 Off ch=1 n=g5 v=80
390600 On ch=1 n=d5 v=114
390720 Off ch=1 n=d5 v=80
390720 On ch=1 n=d#5 v=114
390840 Off ch=1 n=d#5 v=80
390840 On ch=1 n=g4 v=114
390960 Off ch=1 n=g4 v=80
390960 On ch=1 n=a#5 v=114
391080 Off ch=1 n=a#5 v=80
391080 On ch=1 n=f#5 v=114
391200 Off ch=1 n=f#5 v=80
391200 On ch=1 n=g5 v=114
391320 Off ch=1 n=g5 v=80
391320 On ch=1 n=a#4 v=114
391440 Off ch=1 n=a#4 v=80
391440 On ch=1 n=c6 v=114
391560 Off ch=1 n=c6 v=80
391560 On ch=1 n=g5 v=114
391680 Off ch=1 n=g5 v=80
391680 On ch=1 n=a5 v=114
391800 Off ch=1 n=a5 v=80
391800 On ch=1 n=c5 v=114
391920 Off ch=1 n=c5 v=80
391920 On ch=1 n=d6 v=114
392040 Off ch=1 n=d6 v=80
392040 On ch=1 n=a5 v=114
392160 Off ch=1 n=a5 v=80
392160 On ch=1 n=a#5 v=114
392280 Off ch=1 n=a#5 v=80
392280 On ch=1 n=d5 v=114
392400 Off ch=1 n=d5 v=80
392400 On ch=1 n=f6 v=114
392520 Off ch=1 n=f6 v=80
392520 On ch=1 n=c6 v=114
392640 Off ch=1 n=c6 v=80
392640 On ch=1 n=d6 v=114
392760 Off ch=1 n=d6 v=80
392760 On ch=1 n=f5 v=114
392880 Off ch=1 n=f5 v=80
392880 On ch=1 n=g6 v=114
393000 Off ch=1 n=g6 v=80
393000 On ch=1 n=d6 v=114
393120 Off ch=1 n=d6 v=80
393120 On ch=1 n=d#6 v=114
393240 Off ch=1 n=d#6 v=80
393240 On ch=1 n=g5 v=114
393360 Off ch=1 n=g5 v=80
393360 On ch=1 n=b5 v=114
393480 Off ch=1 n=b5 v=80
393480 On ch=1 n=f5 v=114
393600 Off ch=1 n=f5 v=80
393600 On ch=1 n=c6 v=114
393840 Off ch=1 n=c6 v=80
393840 On ch=1 n=d#5 v=114
393960 Off ch=1 n=d#5 v=80
393960 On ch=1 n=g#5 v=114
394080 Off ch=1 n=g#5 v=80
394080 On ch=1 n=d#6 v=114
394200 Off ch=1 n=d#6 v=80
394200 On ch=1 n=g5 v=114
394320 Off ch=1 n=g5 v=80
394320 On ch=1 n=f5 v=114
394440 Off ch=1 n=f5 v=80
394440 On ch=1 n=c6 v=114
394560 Off ch=1 n=c6 v=80
394560 On ch=1 n=f6 v=114
394680 Off ch=1 n=f6 v=80
394680 On ch=1 n=b5 v=114
394800 Off ch=1 n=b5 v=80
394800 On ch=1 n=g5 v=114
394920 Off ch=1 n=g5 v=80
394920 On ch=1 n=d6 v=114
395040 Off ch=1 n=d6 v=80
395040 On ch=1 n=g6 v=114
395160 Off ch=1 n=g6 v=80
395160 On ch=1 n=c6 v=114
395280 Off ch=1 n=c6 v=80
395280 On ch=1 n=a5 v=114
395400 Off ch=1 n=a5 v=80
395400 On ch=1 n=d#6 v=114
395520 Off ch=1 n=d#6 v=80
395520 On ch=1 n=a6 v=114
395640 Off ch=1 n=a6 v=80
395640 On ch=1 n=d6 v=114
395760 Off ch=1 n=d6 v=80
395760 On ch=1 n=a#5 v=114
395880 Off ch=1 n=a#5 v=80
395880 On ch=1 n=f6 v=114
396000 Off ch=1 n=f6 v=80
396000 On ch=1 n=a#6 v=114
396120 Off ch=1 n=a#6 v=80
396120 On ch=1 n=d#6 v=114
396240 Off ch=1 n=d#6 v=80
396240 On ch=1 n=d#7 v=114
396240 On ch=1 n=d#6 v=114
396240 On ch=1 n=a#6 v=114
396480 Off ch=1 n=a#6 v=80
396480 Off ch=1 n=d#6 v=80
396480 Off ch=1 n=d#7 v=80
396480 On ch=1 n=d7 v=102
396480 On ch=1 n=a#6 v=102
396480 On ch=1 n=d6 v=102
396960 Off ch=1 n=d6 v=80
396960 Off ch=1 n=a#6 v=80
396960 Off ch=1 n=d7 v=80
396960 On ch=1 n=c6 v=102
396960 On ch=1 n=f6 v=102
396960 On ch=1 n=c7 v=102
397440 Off ch=1 n=c7 v=80
397440 Off ch=1 n=f6 v=80
397440 Off ch=1 n=c6 v=80
397560 On ch=1 n=a#5 v=102
397680 Off ch=1 n=a#5 v=80
397680 On ch=1 n=d6 v=102
397800 Off ch=1 n=d6 v=80
397800 On ch=1 n=d#6 v=102
397920 Off ch=1 n=d#6 v=80
397920 On ch=1 n=f6 v=102
398040 Off ch=1 n=f6 v=80
398040 On ch=1 n=a#5 v=102
398160 Off ch=1 n=a#5 v=80
398160 On ch=1 n=d6 v=102
398280 Off ch=1 n=d6 v=80
398280 On ch=1 n=d#6 v=102
398400 Off ch=1 n=d#6 v=80
398400 On ch=1 n=f6 v=102
398520 Off ch=1 n=f6 v=80
398520 On ch=1 n=a#5 v=102
398640 Off ch=1 n=a#5 v=80
398640 On ch=1 n=d6 v=102
398760 Off ch=1 n=d6 v=80
398760 On ch=1 n=d#6 v=102
398880 Off ch=1 n=d#6 v=80
398880 On ch=1 n=f6 v=102
399000 Off ch=1 n=f6 v=80
399000 On ch=1 n=a#5 v=102
399120 Off ch=1 n=a#5 v=80
399120 On ch=1 n=d6 v=102
399240 Off ch=1 n=d6 v=80
399240 On ch=1 n=d#6 v=102
399360 Off ch=1 n=d#6 v=80
399360 On ch=1 n=f6 v=102
399480 Off ch=1 n=f6 v=80
399480 On ch=1 n=a#5 v=102
399600 Off ch=1 n=a#5 v=80
399600 On ch=1 n=d6 v=102
399720 Off ch=1 n=d6 v=80
399720 On ch=1 n=d#6 v=102
399840 Off ch=1 n=d#6 v=80
399840 On ch=1 n=f6 v=102
399960 Off ch=1 n=f6 v=80
399960 On ch=1 n=a#5 v=102
400080 Off ch=1 n=a#5 v=80
400080 On ch=1 n=d6 v=102
400200 Off ch=1 n=d6 v=80
400200 On ch=1 n=d#6 v=102
400320 Off ch=1 n=d#6 v=80
400320 On ch=1 n=f6 v=102
400440 Off ch=1 n=f6 v=80
400440 On ch=1 n=a#5 v=102
400560 Off ch=1 n=a#5 v=80
400560 On ch=1 n=d6 v=102
400680 Off ch=1 n=d6 v=80
400680 On ch=1 n=d#6 v=102
400800 Off ch=1 n=d#6 v=80
400800 On ch=1 n=f6 v=102
400920 Off ch=1 n=f6 v=80
400920 On ch=1 n=a#5 v=102
401040 Off ch=1 n=a#5 v=80
401040 On ch=1 n=d6 v=102
401160 Off ch=1 n=d6 v=80
401160 On ch=1 n=d#6 v=102
401280 Off ch=1 n=d#6 v=80
401280 On ch=1 n=f6 v=102
401400 Off ch=1 n=f6 v=80
401400 On ch=1 n=a#5 v=102
401520 Off ch=1 n=a#5 v=80
401520 On ch=1 n=d6 v=102
401640 Off ch=1 n=d6 v=80
401640 On ch=1 n=d#6 v=102
401760 Off ch=1 n=d#6 v=80
401760 On ch=1 n=f6 v=102
401880 Off ch=1 n=f6 v=80
401880 On ch=1 n=a#5 v=102
402000 Off ch=1 n=a#5 v=80
402000 On ch=1 n=d6 v=102
402120 Off ch=1 n=d6 v=80
402120 On ch=1 n=d#6 v=102
402240 Off ch=1 n=d#6 v=80
402240 On ch=1 n=f6 v=102
402360 Off ch=1 n=f6 v=80
402360 On ch=1 n=a#5 v=102
402480 Off ch=1 n=a#5 v=80
402480 On ch=1 n=d6 v=102
402600 Off ch=1 n=d6 v=80
402600 On ch=1 n=d#6 v=102
402720 Off ch=1 n=d#6 v=80
402720 On ch=1 n=f6 v=102
402840 Off ch=1 n=f6 v=80
402840 On ch=1 n=a#5 v=102
402960 Off ch=1 n=a#5 v=80
402960 On ch=1 n=d6 v=102
403080 Off ch=1 n=d6 v=80
403080 On ch=1 n=d#6 v=102
403200 Off ch=1 n=d#6 v=80
403200 On ch=1 n=f6 v=102
403320 Off ch=1 n=f6 v=80
403320 On ch=1 n=a#5 v=102
403440 Off ch=1 n=a#5 v=80
403440 On ch=1 n=d6 v=102
403560 Off ch=1 n=d6 v=80
403560 On ch=1 n=d#6 v=102
403680 Off ch=1 n=d#6 v=80
403680 On ch=1 n=f6 v=102
403800 Off ch=1 n=f6 v=80
403800 On ch=1 n=a#5 v=102
403920 Off ch=1 n=a#5 v=80
403920 On ch=1 n=d6 v=102
404040 Off ch=1 n=d6 v=80
404040 On ch=1 n=d#6 v=102
404160 Off ch=1 n=d#6 v=80
404160 On ch=1 n=f6 v=102
404280 Off ch=1 n=f6 v=80
404280 On ch=1 n=a#5 v=102
404400 Off ch=1 n=a#5 v=80
404400 On ch=1 n=d6 v=102
404520 Off ch=1 n=d6 v=80
404520 On ch=1 n=d#6 v=102
404640 Off ch=1 n=d#6 v=80
404640 On ch=1 n=f6 v=102
404760 Off ch=1 n=f6 v=80
404760 On ch=1 n=a#5 v=102
404880 Off ch=1 n=a#5 v=80
404880 On ch=1 n=d6 v=102
405000 Off ch=1 n=d6 v=80
405000 On ch=1 n=d#6 v=102
405120 Off ch=1 n=d#6 v=80
405120 On ch=1 n=f6 v=102
405240 Off ch=1 n=f6 v=80
405240 On ch=1 n=f5 v=102
405360 Off ch=1 n=f5 v=80
405360 On ch=1 n=a#5 v=102
405480 Off ch=1 n=a#5 v=80
405480 On ch=1 n=c6 v=102
405600 Off ch=1 n=c6 v=80
405600 On ch=1 n=d6 v=102
405720 Off ch=1 n=d6 v=80
405720 On ch=1 n=d5 v=102
405840 Off ch=1 n=d5 v=80
405840 On ch=1 n=f5 v=102
405960 Off ch=1 n=f5 v=80
405960 On ch=1 n=a5 v=102
406080 Off ch=1 n=a5 v=80
406080 On ch=1 n=a#5 v=102
406200 Off ch=1 n=a#5 v=80
406200 On ch=1 n=a#4 v=102
406320 Off ch=1 n=a#4 v=80
406320 On ch=1 n=d5 v=102
406440 Off ch=1 n=d5 v=80
406440 On ch=1 n=d#5 v=102
406560 Off ch=1 n=d#5 v=80
406560 On ch=1 n=f5 v=102
406680 Off ch=1 n=f5 v=80
406680 On ch=1 n=f4 v=102
406800 Off ch=1 n=f4 v=80
406800 On ch=1 n=a#4 v=102
406920 Off ch=1 n=a#4 v=80
406920 On ch=1 n=c5 v=102
407040 Off ch=1 n=c5 v=80
407040 On ch=1 n=d5 v=102
407160 Off ch=1 n=d5 v=80
407160 On ch=1 n=f4 v=102
407280 Off ch=1 n=f4 v=80
407280 On ch=1 n=a#4 v=102
407400 Off ch=1 n=a#4 v=80
407400 On ch=1 n=c5 v=102
407520 Off ch=1 n=c5 v=80
407520 On ch=1 n=d5 v=102
407640 Off ch=1 n=d5 v=80
407640 On ch=1 n=f4 v=102
407760 Off ch=1 n=f4 v=80
407760 On ch=1 n=a#4 v=102
407880 Off ch=1 n=a#4 v=80
407880 On ch=1 n=c5 v=102
408000 Off ch=1 n=c5 v=80
408000 On ch=1 n=d5 v=102
408120 Off ch=1 n=d5 v=80
408120 On ch=1 n=f4 v=102
408240 Off ch=1 n=f4 v=80
408240 On ch=1 n=a4 v=102
408360 Off ch=1 n=a4 v=80
408360 On ch=1 n=a#4 v=102
408480 Off ch=1 n=a#4 v=80
408480 On ch=1 n=c5 v=102
408600 Off ch=1 n=c5 v=80
408600 On ch=1 n=f4 v=102
408720 Off ch=1 n=f4 v=80
408720 On ch=1 n=a4 v=102
408840 Off ch=1 n=a4 v=80
408840 On ch=1 n=c5 v=102
408960 Off ch=1 n=c5 v=80
408960 On ch=1 n=d5 v=102
409080 Off ch=1 n=d5 v=80
409080 On ch=1 n=f4 v=102
409200 Off ch=1 n=f4 v=80
409200 On ch=1 n=a#4 v=102
409320 Off ch=1 n=a#4 v=80
409320 On ch=1 n=c5 v=102
409440 Off ch=1 n=c5 v=80
409440 On ch=1 n=d5 v=102
409680 Off ch=1 n=d5 v=80
411840 On ch=1 n=d5 v=102
411840 On ch=1 n=a4 v=102
411840 On ch=1 n=f4 v=102
412320 Off ch=1 n=f4 v=80
412320 Off ch=1 n=a4 v=80
412320 Off ch=1 n=d5 v=80
412680 On ch=1 n=d5 v=102
412680 On ch=1 n=a4 v=102
412680 On ch=1 n=f4 v=102
412800 Off ch=1 n=f4 v=80
412800 Off ch=1 n=a4 v=80
412800 Off ch=1 n=d5 v=80
412800 On ch=1 n=d5 v=102
412800 On ch=1 n=a4 v=102
412800 On ch=1 n=f4 v=102
412920 Off ch=1 n=f4 v=80
412920 Off ch=1 n=a4 v=80
412920 Off ch=1 n=d5 v=80
413280 On ch=1 n=e5 v=102
413280 On ch=1 n=a4 v=102
413280 On ch=1 n=g4 v=102
413400 Off ch=1 n=g4 v=80
413400 Off ch=1 n=a4 v=80
413400 Off ch=1 n=e5 v=80
413760 On ch=1 n=f4 v=102
413760 On ch=1 n=f5 v=102
413760 On ch=1 n=d5 v=102
414240 Off ch=1 n=d5 v=80
414240 Off ch=1 n=f5 v=80
414240 Off ch=1 n=f4 v=80
414600 On ch=1 n=f4 v=102
414600 On ch=1 n=f5 v=102
414600 On ch=1 n=d5 v=102
414720 Off ch=1 n=d5 v=80
414720 Off ch=1 n=f5 v=80
414720 Off ch=1 n=f4 v=80
414720 On ch=1 n=f4 v=102
414720 On ch=1 n=f5 v=102
414720 On ch=1 n=d5 v=102
414840 Off ch=1 n=d5 v=80
414840 Off ch=1 n=f5 v=80
414840 Off ch=1 n=f4 v=80
415200 On ch=1 n=g4 v=102
415200 On ch=1 n=g5 v=102
415200 On ch=1 n=d5 v=102
415320 Off ch=1 n=d5 v=80
415320 Off ch=1 n=g5 v=80
415320 Off ch=1 n=g4 v=80
415680 On ch=1 n=a5 v=102
415680 On ch=1 n=d5 v=102
415680 On ch=1 n=a4 v=102
416160 Off ch=1 n=a4 v=80
416160 Off ch=1 n=d5 v=80
416160 Off ch=1 n=a5 v=80
416520 On ch=1 n=a5 v=102
416520 On ch=1 n=d5 v=102
416520 On ch=1 n=a4 v=102
416640 Off ch=1 n=a4 v=80
416640 Off ch=1 n=d5 v=80
416640 Off ch=1 n=a5 v=80
416640 On ch=1 n=a5 v=102
416640 On ch=1 n=d5 v=102
416640 On ch=1 n=a4 v=102
416760 Off ch=1 n=a4 v=80
416760 Off ch=1 n=d5 v=80
416760 Off ch=1 n=a5 v=80
417120 On ch=1 n=a#5 v=102
417120 On ch=1 n=d5 v=102
417120 On ch=1 n=a#4 v=102
417240 Off ch=1 n=a#4 v=80
417240 Off ch=1 n=d5 v=80
417240 Off ch=1 n=a#5 v=80
417600 On ch=1 n=e5 v=117
417600 On ch=1 n=c#5 v=117
419040 Off ch=1 n=c#5 v=80
419040 Off ch=1 n=e5 v=80
419040 On ch=1 n=g5 v=102
419040 On ch=1 n=d5 v=102
419160 Off ch=1 n=d5 v=80
419160 Off ch=1 n=g5 v=80
419520 On ch=1 n=a#5 v=102
419520 On ch=1 n=d5 v=102
420000 Off ch=1 n=a#5 v=80
420360 On ch=1 n=a#5 v=102
420480 Off ch=1 n=a#5 v=80
420480 On ch=1 n=a#5 v=102
420960 Off ch=1 n=d5 v=80
420960 Off ch=1 n=a#5 v=80
420960 On ch=1 n=c6 v=102
421200 Off ch=1 n=c6 v=80
421440 On ch=1 n=d#5 v=117
421440 On ch=1 n=f#5 v=117
421440 On ch=1 n=c5 v=117
422880 Off ch=1 n=c5 v=80
422880 Off ch=1 n=f#5 v=80
422880 Off ch=1 n=d#5 v=80
422880 On ch=1 n=f#5 v=102
423000 Off ch=1 n=f#5 v=80
423360 On ch=1 n=f#5 v=102
423360 On ch=1 n=d#5 v=102
423360 On ch=1 n=c6 v=102
423840 Off ch=1 n=c6 v=80
424200 On ch=1 n=c6 v=102
424320 Off ch=1 n=c6 v=80
424320 On ch=1 n=c6 v=102
424800 Off ch=1 n=d#5 v=80
424800 Off ch=1 n=f#5 v=80
424800 Off ch=1 n=c6 v=80
424800 On ch=1 n=d6 v=102
425040 Off ch=1 n=d6 v=80
425280 On ch=1 n=g#5 v=117
425280 On ch=1 n=f5 v=117
425280 On ch=1 n=d5 v=117
426720 Off ch=1 n=d5 v=80
426720 Off ch=1 n=f5 v=80
426720 Off ch=1 n=g#5 v=80
426720 On ch=1 n=g#5 v=102
426840 Off ch=1 n=g#5 v=80
427200 On ch=1 n=d6 v=102
427200 On ch=1 n=g#5 v=102
427200 On ch=1 n=f5 v=102
427680 Off ch=1 n=d6 v=80
428040 On ch=1 n=d6 v=102
428160 Off ch=1 n=d6 v=80
428160 On ch=1 n=d6 v=102
428640 Off ch=1 n=g#5 v=80
428640 Off ch=1 n=f5 v=80
428640 Off ch=1 n=d6 v=80
428640 On ch=1 n=e6 v=102
428880 Off ch=1 n=e6 v=80
429120 On ch=1 n=b5 v=117
429120 On ch=1 n=g#5 v=117
429120 On ch=1 n=f5 v=117
429960 Off ch=1 n=f5 v=80
429960 Off ch=1 n=g#5 v=80
429960 Off ch=1 n=b5 v=80
429960 On ch=1 n=b5 v=102
429960 On ch=1 n=g#5 v=102
429960 On ch=1 n=f5 v=102
430080 Off ch=1 n=f5 v=80
430080 Off ch=1 n=g#5 v=80
430080 Off ch=1 n=b5 v=80
430080 On ch=1 n=b5 v=102
430080 On ch=1 n=g#5 v=102
430080 On ch=1 n=f5 v=102
430560 Off ch=1 n=f5 v=80
430560 Off ch=1 n=g#5 v=80
430560 Off ch=1 n=b5 v=80
430560 On ch=1 n=c6 v=102
430560 On ch=1 n=g#5 v=102
430560 On ch=1 n=f5 v=102
430680 Off ch=1 n=f5 v=80
430680 Off ch=1 n=g#5 v=80
430680 Off ch=1 n=c6 v=80
431040 On ch=1 n=g#5 v=117
431040 On ch=1 n=f5 v=117
431040 On ch=1 n=d5 v=117
431880 Off ch=1 n=d5 v=80
431880 Off ch=1 n=f5 v=80
431880 Off ch=1 n=g#5 v=80
431880 On ch=1 n=g#5 v=102
431880 On ch=1 n=f5 v=102
431880 On ch=1 n=d5 v=102
432000 Off ch=1 n=d5 v=80
432000 Off ch=1 n=f5 v=80
432000 Off ch=1 n=g#5 v=80
432000 On ch=1 n=g#5 v=102
432000 On ch=1 n=f5 v=102
432000 On ch=1 n=d5 v=102
432480 Off ch=1 n=d5 v=80
432480 Off ch=1 n=f5 v=80
432480 Off ch=1 n=g#5 v=80
432480 On ch=1 n=a5 v=102
432480 On ch=1 n=f5 v=102
432480 On ch=1 n=d5 v=102
432960 Off ch=1 n=d5 v=80
432960 Off ch=1 n=f5 v=80
432960 Off ch=1 n=a5 v=80
432960 On ch=1 n=e5 v=117
432960 On ch=1 n=b4 v=117
432960 On ch=1 n=d5 v=117
433800 Off ch=1 n=d5 v=80
433800 Off ch=1 n=b4 v=80
433800 Off ch=1 n=e5 v=80
433800 On ch=1 n=e5 v=102
433800 On ch=1 n=c5 v=102
433920 Off ch=1 n=c5 v=80
433920 Off ch=1 n=e5 v=80
433920 On ch=1 n=e5 v=102
433920 On ch=1 n=c5 v=102
434400 Off ch=1 n=c5 v=80
434400 Off ch=1 n=e5 v=80
434400 On ch=1 n=g#5 v=102
434400 On ch=1 n=e5 v=102
434400 On ch=1 n=b4 v=102
434520 Off ch=1 n=b4 v=80
434520 Off ch=1 n=e5 v=80
434520 Off ch=1 n=g#5 v=80
434880 On ch=1 n=a5 v=102
434880 On ch=1 n=e5 v=102
434880 On ch=1 n=c5 v=102
435360 Off ch=1 n=c5 v=80
435360 Off ch=1 n=e5 v=80
435360 Off ch=1 n=a5 v=80
435720 On ch=1 n=a5 v=102
435720 On ch=1 n=e5 v=102
435720 On ch=1 n=c5 v=102
435840 Off ch=1 n=c5 v=80
435840 Off ch=1 n=e5 v=80
435840 Off ch=1 n=a5 v=80
435840 On ch=1 n=a5 v=102
435840 On ch=1 n=e5 v=102
435840 On ch=1 n=c5 v=102
436320 Off ch=1 n=c5 v=80
436320 Off ch=1 n=e5 v=80
436320 Off ch=1 n=a5 v=80
436320 On ch=1 n=b5 v=102
436320 On ch=1 n=e5 v=102
436320 On ch=1 n=d5 v=102
436800 Off ch=1 n=d5 v=80
436800 Off ch=1 n=e5 v=80
436800 Off ch=1 n=b5 v=80
436800 On ch=1 n=c6 v=102
436800 On ch=1 n=a5 v=102
436800 On ch=1 n=c5 v=102
437280 Off ch=1 n=c5 v=80
437280 Off ch=1 n=a5 v=80
437280 Off ch=1 n=c6 v=80
437640 On ch=1 n=c5 v=105
437640 On ch=1 n=a5 v=105
437640 On ch=1 n=c6 v=105
437760 Off ch=1 n=c6 v=80
437760 Off ch=1 n=a5 v=80
437760 Off ch=1 n=c5 v=80
437760 On ch=1 n=a5 v=108
437760 On ch=1 n=c6 v=108
437760 On ch=1 n=c5 v=108
438240 Off ch=1 n=c5 v=80
438240 Off ch=1 n=c6 v=80
438240 Off ch=1 n=a5 v=80
438240 On ch=1 n=a5 v=111
438240 On ch=1 n=d6 v=111
438240 On ch=1 n=d5 v=111
438720 Off ch=1 n=d5 v=80
438720 Off ch=1 n=d6 v=80
438720 Off ch=1 n=a5 v=80
438720 On ch=1 n=e5 v=114
438720 On ch=1 n=e6 v=114
438720 On ch=1 n=a5 v=114
439200 Off ch=1 n=a5 v=80
439200 Off ch=1 n=e6 v=80
439200 Off ch=1 n=e5 v=80
439560 On ch=1 n=a5 v=114
439560 On ch=1 n=e6 v=114
439560 On ch=1 n=e5 v=114
439680 Off ch=1 n=e5 v=80
439680 Off ch=1 n=e6 v=80
439680 Off ch=1 n=a5 v=80
439680 On ch=1 n=e6 v=114
439680 On ch=1 n=a5 v=114
439680 On ch=1 n=e5 v=114
440160 Off ch=1 n=e5 v=80
440160 Off ch=1 n=a5 v=80
440160 Off ch=1 n=e6 v=80
440160 On ch=1 n=f6 v=114
440160 On ch=1 n=a5 v=114
440160 On ch=1 n=f5 v=114
440640 Off ch=1 n=f5 v=80
440640 Off ch=1 n=a5 v=80
440640 Off ch=1 n=f6 v=80
440640 On ch=1 n=b5 v=127
440640 On ch=1 n=g#5 v=127
442080 Off ch=1 n=g#5 v=80
442080 Off ch=1 n=b5 v=80
442080 On ch=1 n=d6 v=114
442080 On ch=1 n=a5 v=114
442200 Off ch=1 n=a5 v=80
442200 Off ch=1 n=d6 v=80
442560 On ch=1 n=a5 v=114
442560 On ch=1 n=f6 v=114
443040 Off ch=1 n=f6 v=80
443400 On ch=1 n=f6 v=114
443520 Off ch=1 n=f6 v=80
443520 On ch=1 n=f6 v=114
444000 Off ch=1 n=a5 v=80
444000 Off ch=1 n=f6 v=80
444000 On ch=1 n=g6 v=114
444120 Off ch=1 n=g6 v=80
444480 On ch=1 n=c#6 v=127
444480 On ch=1 n=a#5 v=127
444480 On ch=1 n=g5 v=127
445920 Off ch=1 n=g5 v=80
445920 Off ch=1 n=a#5 v=80
445920 Off ch=1 n=c#6 v=80
445920 On ch=1 n=c#6 v=114
446400 Off ch=1 n=c#6 v=80
446400 On ch=1 n=g6 v=114
446400 On ch=1 n=c#6 v=114
446400 On ch=1 n=a#5 v=114
446880 Off ch=1 n=g6 v=80
447240 On ch=1 n=g6 v=114
447360 Off ch=1 n=g6 v=80
447360 On ch=1 n=g6 v=114
447480 Off ch=1 n=g6 v=80
447840 Off ch=1 n=c#6 v=80
447840 Off ch=1 n=a#5 v=80
447840 On ch=1 n=a6 v=114
447960 Off ch=1 n=a6 v=80
448320 On ch=1 n=d#6 v=127
448320 On ch=1 n=c6 v=127
448320 On ch=1 n=a5 v=127
449760 Off ch=1 n=a5 v=80
449760 Off ch=1 n=c6 v=80
449760 Off ch=1 n=d#6 v=80
449760 On ch=1 n=d#6 v=114
449880 Off ch=1 n=d#6 v=80
450240 On ch=1 n=a6 v=114
450240 On ch=1 n=d#6 v=114
450240 On ch=1 n=c6 v=114
450720 Off ch=1 n=a6 v=80
451080 On ch=1 n=a6 v=114
451200 Off ch=1 n=a6 v=80
451200 On ch=1 n=a6 v=114
451320 Off ch=1 n=a6 v=80
451680 Off ch=1 n=d#6 v=80
451680 Off ch=1 n=c6 v=80
451680 On ch=1 n=b6 v=114
451800 Off ch=1 n=b6 v=80
452160 On ch=1 n=f#6 v=102
452160 On ch=1 n=d#6 v=102
452160 On ch=1 n=c6 v=102
453000 Off ch=1 n=c6 v=80
453000 Off ch=1 n=d#6 v=80
453000 Off ch=1 n=f#6 v=80
453000 On ch=1 n=f#6 v=102
453000 On ch=1 n=d#6 v=102
453000 On ch=1 n=c6 v=102
453120 Off ch=1 n=c6 v=80
453120 Off ch=1 n=d#6 v=80
453120 Off ch=1 n=f#6 v=80
453120 On ch=1 n=f#6 v=102
453120 On ch=1 n=d#6 v=102
453120 On ch=1 n=c6 v=102
453600 Off ch=1 n=c6 v=80
453600 Off ch=1 n=d#6 v=80
453600 Off ch=1 n=f#6 v=80
453600 On ch=1 n=g6 v=102
453600 On ch=1 n=d#6 v=102
453600 On ch=1 n=c6 v=102
453720 Off ch=1 n=c6 v=80
453720 Off ch=1 n=d#6 v=80
453720 Off ch=1 n=g6 v=80
454080 On ch=1 n=d#6 v=117
454080 On ch=1 n=c6 v=117
454080 On ch=1 n=a5 v=117
454920 Off ch=1 n=a5 v=80
454920 Off ch=1 n=c6 v=80
454920 Off ch=1 n=d#6 v=80
454920 On ch=1 n=d#6 v=102
454920 On ch=1 n=c6 v=102
454920 On ch=1 n=a5 v=102
455040 Off ch=1 n=a5 v=80
455040 Off ch=1 n=c6 v=80
455040 Off ch=1 n=d#6 v=80
455040 On ch=1 n=d#6 v=102
455040 On ch=1 n=c6 v=102
455040 On ch=1 n=a5 v=102
455520 Off ch=1 n=a5 v=80
455520 Off ch=1 n=c6 v=80
455520 Off ch=1 n=d#6 v=80
455520 On ch=1 n=e6 v=102
455520 On ch=1 n=c6 v=102
455520 On ch=1 n=a5 v=102
456000 Off ch=1 n=a5 v=80
456000 Off ch=1 n=c6 v=80
456000 Off ch=1 n=e6 v=80
456000 On ch=1 n=b5 v=102
456000 On ch=1 n=a5 v=102
456000 On ch=1 n=f#5 v=102
456840 Off ch=1 n=f#5 v=80
456840 Off ch=1 n=a5 v=80
456840 Off ch=1 n=b5 v=80
456840 On ch=1 n=b5 v=102
456840 On ch=1 n=g5 v=102
456960 Off ch=1 n=g5 v=80
456960 Off ch=1 n=b5 v=80
456960 On ch=1 n=b5 v=102
456960 On ch=1 n=g5 v=102
457080 Off ch=1 n=g5 v=80
457080 Off ch=1 n=b5 v=80
457440 On ch=1 n=d#6 v=102
457440 On ch=1 n=b5 v=102
457440 On ch=1 n=f#5 v=102
457560 Off ch=1 n=f#5 v=80
457560 Off ch=1 n=b5 v=80
457560 Off ch=1 n=d#6 v=80
457920 On ch=1 n=e6 v=117
457920 On ch=1 n=b5 v=117
457920 On ch=1 n=g5 v=117
458640 Off ch=1 n=g5 v=80
458640 Off ch=1 n=b5 v=80
458640 Off ch=1 n=e6 v=80
458640 On ch=1 n=e6 v=102
458640 On ch=1 n=b5 v=102
458640 On ch=1 n=g5 v=102
458880 Off ch=1 n=g5 v=80
458880 Off ch=1 n=b5 v=80
458880 Off ch=1 n=e6 v=80
458880 On ch=1 n=g5 v=110
458880 On ch=1 n=b5 v=110
458880 On ch=1 n=e6 v=110
459360 Off ch=1 n=e6 v=80
459360 Off ch=1 n=b5 v=80
459360 Off ch=1 n=g5 v=80
459360 On ch=1 n=a5 v=118
459360 On ch=1 n=b5 v=118
459360 On ch=1 n=f#6 v=118
459840 Off ch=1 n=f#6 v=80
459840 Off ch=1 n=b5 v=80
459840 Off ch=1 n=a5 v=80
459840 On ch=1 n=g6 v=126
459840 On ch=1 n=b5 v=126
459840 On ch=1 n=g5 v=126
460560 Off ch=1 n=g5 v=80
460560 Off ch=1 n=b5 v=80
460560 Off ch=1 n=g6 v=80
460560 On ch=1 n=b5 v=102
460560 On ch=1 n=g5 v=102
460560 On ch=1 n=e5 v=102
460800 Off ch=1 n=e5 v=80
460800 Off ch=1 n=g5 v=80
460800 Off ch=1 n=b5 v=80
460800 On ch=1 n=b5 v=102
460800 On ch=1 n=g5 v=102
460800 On ch=1 n=e5 v=102
461280 Off ch=1 n=e5 v=80
461280 Off ch=1 n=g5 v=80
461280 Off ch=1 n=b5 v=80
461280 On ch=1 n=e5 v=102
461280 On ch=1 n=c#6 v=102
461280 On ch=1 n=b5 v=102
461760 Off ch=1 n=b5 v=80
461760 Off ch=1 n=c#6 v=80
461760 Off ch=1 n=e5 v=80
461760 On ch=1 n=d6 v=117
461760 On ch=1 n=d5 v=117
461760 On ch=1 n=a5 v=117
462480 Off ch=1 n=a5 v=80
462480 Off ch=1 n=d5 v=80
462480 Off ch=1 n=d6 v=80
462480 On ch=1 n=d6 v=108
462480 On ch=1 n=a5 v=108
462480 On ch=1 n=f5 v=108
462720 Off ch=1 n=f5 v=80
462720 Off ch=1 n=a5 v=80
462720 Off ch=1 n=d6 v=80
462720 On ch=1 n=d6 v=114
462720 On ch=1 n=a5 v=114
462720 On ch=1 n=f5 v=114
463200 Off ch=1 n=f5 v=80
463200 Off ch=1 n=a5 v=80
463200 Off ch=1 n=d6 v=80
463200 On ch=1 n=e6 v=120
463200 On ch=1 n=a5 v=120
463200 On ch=1 n=g5 v=120
463680 Off ch=1 n=g5 v=80
463680 Off ch=1 n=a5 v=80
463680 Off ch=1 n=e6 v=80
463680 On ch=1 n=f5 v=126
463680 On ch=1 n=a5 v=126
463680 On ch=1 n=f6 v=126
464400 Off ch=1 n=f6 v=80
464400 Off ch=1 n=a5 v=80
464400 Off ch=1 n=f5 v=80
464400 On ch=1 n=d5 v=102
464400 On ch=1 n=f5 v=102
464400 On ch=1 n=a5 v=102
464640 Off ch=1 n=a5 v=80
464640 Off ch=1 n=f5 v=80
464640 Off ch=1 n=d5 v=80
464640 On ch=1 n=d5 v=102
464640 On ch=1 n=f5 v=102
464640 On ch=1 n=a5 v=102
465120 Off ch=1 n=a5 v=80
465120 Off ch=1 n=f5 v=80
465120 Off ch=1 n=d5 v=80
465120 On ch=1 n=g5 v=108
465120 On ch=1 n=d5 v=108
465120 On ch=1 n=b5 v=108
465600 Off ch=1 n=b5 v=80
465600 Off ch=1 n=d5 v=80
465600 Off ch=1 n=g5 v=80
465600 On ch=1 n=c6 v=127
465600 On ch=1 n=g5 v=127
465600 On ch=1 n=c5 v=127
466320 Off ch=1 n=c5 v=80
466320 Off ch=1 n=g5 v=80
466320 Off ch=1 n=c6 v=80
466320 On ch=1 n=d6 v=120
466320 On ch=1 n=g5 v=120
466320 On ch=1 n=f5 v=120
466560 Off ch=1 n=f5 v=80
466560 Off ch=1 n=g5 v=80
466560 Off ch=1 n=d6 v=80
466560 On ch=1 n=e5 v=126
466560 On ch=1 n=e6 v=126
467275 On ch=1 n=c#5 v=102
467275 On ch=1 n=f#5 v=102
467275 On ch=1 n=a#5 v=102
467280 Off ch=1 n=e6 v=80
467280 Off ch=1 n=e5 v=80
467515 Off ch=1 n=c#5 v=80
467515 Off ch=1 n=f#5 v=80
467515 Off ch=1 n=a#5 v=80
467520 On ch=1 n=b5 v=117
467520 On ch=1 n=f#5 v=117
467520 On ch=1 n=b4 v=117
468240 Off ch=1 n=b4 v=80
468240 Off ch=1 n=f#5 v=80
468240 Off ch=1 n=b5 v=80
468240 On ch=1 n=e5 v=102
468240 On ch=1 n=f#5 v=102
468240 On ch=1 n=c#6 v=102
468480 Off ch=1 n=c#6 v=80
468480 Off ch=1 n=f#5 v=80
468480 Off ch=1 n=e5 v=80
468480 On ch=1 n=d6 v=93
468480 On ch=1 n=d5 v=93
469200 Off ch=1 n=d5 v=80
469200 Off ch=1 n=d6 v=80
469200 On ch=1 n=b4 v=78
469200 On ch=1 n=e5 v=78
469200 On ch=1 n=g#5 v=78
469440 Off ch=1 n=g#5 v=80
469440 Off ch=1 n=e5 v=80
469440 Off ch=1 n=b4 v=80
469440 On ch=1 n=a5 v=93
469440 On ch=1 n=a4 v=93
469440 On ch=1 n=e5 v=93
470160 Off ch=1 n=e5 v=80
470160 Off ch=1 n=a4 v=80
470160 Off ch=1 n=a5 v=80
470160 On ch=1 n=e5 v=78
470160 On ch=1 n=b5 v=78
470160 On ch=1 n=d5 v=78
470400 Off ch=1 n=d5 v=80
470400 Off ch=1 n=b5 v=80
470400 Off ch=1 n=e5 v=80
470400 On ch=1 n=c5 v=93
470400 On ch=1 n=c6 v=93
471120 Off ch=1 n=c6 v=80
471120 Off ch=1 n=c5 v=80
471120 On ch=1 n=f#5 v=78
471120 On ch=1 n=d5 v=78
471120 On ch=1 n=a4 v=78
471360 Off ch=1 n=a4 v=80
471360 Off ch=1 n=d5 v=80
471360 Off ch=1 n=f#5 v=80
471360 On ch=1 n=g5 v=98
471360 On ch=1 n=g4 v=98
471360 On ch=1 n=d5 v=98
472080 Off ch=1 n=d5 v=80
472080 Off ch=1 n=g4 v=80
472080 Off ch=1 n=g5 v=80
472080 On ch=1 n=d5 v=88
472080 On ch=1 n=a4 v=88
472080 On ch=1 n=a5 v=88
472320 Off ch=1 n=a5 v=80
472320 Off ch=1 n=a4 v=80
472320 Off ch=1 n=d5 v=80
472320 On ch=1 n=b5 v=93
472320 On ch=1 n=b4 v=93
473040 Off ch=1 n=b4 v=80
473040 Off ch=1 n=b5 v=80
473040 On ch=1 n=c#5 v=98
473040 On ch=1 n=g5 v=98
473040 On ch=1 n=c#6 v=98
473280 Off ch=1 n=c#6 v=80
473280 Off ch=1 n=g5 v=80
473280 Off ch=1 n=c#5 v=80
473280 On ch=1 n=d6 v=102
473280 On ch=1 n=f#5 v=102
473280 On ch=1 n=d5 v=102
474000 Off ch=1 n=d5 v=80
474000 On ch=1 n=d5 v=102
474240 Off ch=1 n=f#5 v=80
474240 Off ch=1 n=d5 v=80
474240 On ch=1 n=d5 v=102
474720 Off ch=1 n=d5 v=80
474720 On ch=1 n=d5 v=102
475200 Off ch=1 n=d5 v=80
475200 On ch=1 n=d5 v=102
475920 Off ch=1 n=d6 v=80
475920 Off ch=1 n=d5 v=80
475920 On ch=1 n=d5 v=127
475920 On ch=1 n=a#5 v=127
476160 Off ch=1 n=d5 v=80
476160 On ch=1 n=d5 v=102
476640 Off ch=1 n=d5 v=80
476640 On ch=1 n=d5 v=102
477120 Off ch=1 n=d5 v=80
477120 On ch=1 n=d5 v=102
477840 Off ch=1 n=d5 v=80
477840 On ch=1 n=d5 v=127
478080 Off ch=1 n=d5 v=80
478080 On ch=1 n=d5 v=97
478560 Off ch=1 n=d5 v=80
478560 On ch=1 n=d5 v=92
479040 Off ch=1 n=d5 v=80
479040 On ch=1 n=d5 v=87
479760 Off ch=1 n=d5 v=80
479760 On ch=1 n=d5 v=107
480000 Off ch=1 n=d5 v=80
480000 On ch=1 n=d5 v=78
480480 Off ch=1 n=d5 v=80
480480 On ch=1 n=d5 v=78
480960 Off ch=1 n=a#5 v=80
480960 Off ch=1 n=d5 v=80
480960 On ch=1 n=d5 v=78
480960 On ch=1 n=a5 v=78
481440 Off ch=1 n=a5 v=80
481680 Off ch=1 n=d5 v=80
481680 On ch=1 n=d5 v=103
481920 Off ch=1 n=d5 v=80
481920 On ch=1 n=d5 v=78
482400 Off ch=1 n=d5 v=80
482400 On ch=1 n=d5 v=78
482880 Off ch=1 n=d5 v=80
482880 On ch=1 n=d5 v=102
483600 Off ch=1 n=d5 v=80
483600 On ch=1 n=d5 v=127
483600 On ch=1 n=a#5 v=127
483840 Off ch=1 n=d5 v=80
483840 On ch=1 n=d5 v=102
484320 Off ch=1 n=d5 v=80
484320 On ch=1 n=d5 v=102
484800 Off ch=1 n=d5 v=80
484800 On ch=1 n=d5 v=102
485520 Off ch=1 n=d5 v=80
485520 On ch=1 n=d5 v=127
485760 Off ch=1 n=d5 v=80
485760 On ch=1 n=d5 v=97
486240 Off ch=1 n=d5 v=80
486240 On ch=1 n=d5 v=92
486720 Off ch=1 n=d5 v=80
486720 On ch=1 n=d5 v=87
487440 Off ch=1 n=d5 v=80
487440 On ch=1 n=d5 v=107
487680 Off ch=1 n=d5 v=80
487680 On ch=1 n=d5 v=78
488160 Off ch=1 n=d5 v=80
488160 On ch=1 n=d5 v=78
488640 Off ch=1 n=a#5 v=80
488640 Off ch=1 n=d5 v=80
488640 On ch=1 n=d5 v=78
488640 On ch=1 n=a5 v=78
489360 Off ch=1 n=d5 v=80
489360 On ch=1 n=d5 v=103
489600 Off ch=1 n=d5 v=80
489600 On ch=1 n=d5 v=72
490080 Off ch=1 n=d5 v=80
490080 On ch=1 n=d5 v=72
490560 Off ch=1 n=d5 v=80
490560 On ch=1 n=d5 v=66
491280 Off ch=1 n=d5 v=80
491280 On ch=1 n=d5 v=91
491520 Off ch=1 n=d5 v=80
491520 On ch=1 n=d5 v=60
492000 Off ch=1 n=d5 v=80
492000 On ch=1 n=d5 v=60
492480 Off ch=1 n=a5 v=80
492480 Off ch=1 n=d5 v=80
492480 On ch=1 n=f#5 v=53
492480 On ch=1 n=d5 v=53
493200 Off ch=1 n=d5 v=80
493200 On ch=1 n=d5 v=53
493440 Off ch=1 n=d5 v=80
493440 On ch=1 n=d5 v=53
493920 Off ch=1 n=f#5 v=80
493920 Off ch=1 n=d5 v=80
493920 On ch=1 n=d5 v=50
494400 Off ch=1 n=d5 v=80
494400 On ch=1 n=d5 v=47
494880 Off ch=1 n=d5 v=80
494880 On ch=1 n=d5 v=44
495360 Off ch=1 n=d5 v=80
495360 On ch=1 n=d5 v=41
495840 Off ch=1 n=d5 v=80
495840 On ch=1 n=d5 v=38
496320 Off ch=1 n=d5 v=80
496680 On ch=1 n=g5 v=65
496800 On ch=1 n=d6 v=65
500160 Off ch=1 n=d6 v=80
500160 Off ch=1 n=g5 v=80
500160 On ch=1 n=g5 v=65
500400 On ch=1 n=d6 v=65
504000 Off ch=1 n=g5 v=80
504120 Off ch=1 n=d6 v=80
504360 On ch=1 n=g5 v=65
504420 Off ch=1 n=g5 v=80
504420 On ch=1 n=c6 v=65
504480 On ch=1 n=g6 v=65
507840 Off ch=1 n=g6 v=80
507840 Off ch=1 n=c6 v=80
507960 On ch=1 n=f5 v=65
508020 On ch=1 n=c6 v=65
511680 Off ch=1 n=c6 v=80
511680 Off ch=1 n=f5 v=80
511680 On ch=1 n=f5 v=65
511770 Off ch=1 n=f5 v=80
511770 On ch=1 n=a#5 v=65
511860 On ch=1 n=f6 v=65
515520 Off ch=1 n=f6 v=80
515520 Off ch=1 n=a#5 v=80
515520 On ch=1 n=d#5 v=65
515640 On ch=1 n=a#5 v=65
517440 Off ch=1 n=a#5 v=80
517440 Off ch=1 n=d#5 v=80
517440 On ch=1 n=d#5 v=65
517500 Off ch=1 n=d#5 v=80
517500 On ch=1 n=a5 v=65
517560 On ch=1 n=d#6 v=65
519360 Off ch=1 n=d#6 v=80
519360 Off ch=1 n=a5 v=80
519720 On ch=1 n=d5 v=65
519780 Off ch=1 n=d5 v=80
519780 On ch=1 n=a#5 v=65
519840 On ch=1 n=d6 v=65
523200 Off ch=1 n=d6 v=80
523200 Off ch=1 n=a#5 v=80
523200 On ch=1 n=d5 v=65
523260 Off ch=1 n=d5 v=80
523260 On ch=1 n=g5 v=65
523320 On ch=1 n=d6 v=65
524160 Off ch=1 n=d6 v=80
524160 On ch=1 n=c6 v=65
524160 On ch=1 n=c5 v=65
525120 Off ch=1 n=c5 v=80
525120 Off ch=1 n=c6 v=80
525120 On ch=1 n=a#5 v=65
525120 On ch=1 n=a#4 v=65
526800 Off ch=1 n=a#4 v=80
526800 Off ch=1 n=a#5 v=80
526800 On ch=1 n=c6 v=65
526800 On ch=1 n=c5 v=65
527040 Off ch=1 n=c5 v=80
527040 Off ch=1 n=g5 v=80
527040 Off ch=1 n=c6 v=80
527040 On ch=1 n=d5 v=53
527040 On ch=1 n=f#5 v=53
527040 On ch=1 n=d6 v=53
530880 Off ch=1 n=d6 v=80
530880 Off ch=1 n=f#5 v=80
530880 Off ch=1 n=d5 v=80
531000 On ch=1 n=d6 v=53
531120 On ch=1 n=f5 v=53
531240 Off ch=1 n=f5 v=80
531240 Off ch=1 n=d6 v=80
531240 On ch=1 n=d#6 v=53
531360 Off ch=1 n=d#6 v=80
531360 On ch=1 n=c#6 v=53
531480 Off ch=1 n=c#6 v=80
531480 On ch=1 n=d6 v=53
531600 Off ch=1 n=d6 v=80
531600 On ch=1 n=f5 v=53
531720 Off ch=1 n=f5 v=80
531720 On ch=1 n=g6 v=53
531840 Off ch=1 n=g6 v=80
531960 On ch=1 n=d#6 v=53
532080 On ch=1 n=d#5 v=53
532200 Off ch=1 n=d#5 v=80
532200 Off ch=1 n=d#6 v=80
532200 On ch=1 n=d#6 v=53
532440 Off ch=1 n=d#6 v=80
532440 On ch=1 n=d6 v=53
532560 On ch=1 n=f5 v=53
532680 Off ch=1 n=f5 v=80
532680 Off ch=1 n=d6 v=80
532680 On ch=1 n=d6 v=53
532920 Off ch=1 n=d6 v=80
532920 On ch=1 n=c6 v=53
533040 On ch=1 n=d#5 v=59
533160 Off ch=1 n=d#5 v=80
533160 Off ch=1 n=c6 v=80
533160 On ch=1 n=c6 v=59
533400 Off ch=1 n=c6 v=80
533400 On ch=1 n=b5 v=65
533520 On ch=1 n=d5 v=71
533640 Off ch=1 n=d5 v=80
533640 Off ch=1 n=b5 v=80
533640 On ch=1 n=b5 v=71
533880 Off ch=1 n=b5 v=80
533880 On ch=1 n=d6 v=77
534000 On ch=1 n=f5 v=71
534120 Off ch=1 n=f5 v=80
534120 Off ch=1 n=d6 v=80
534120 On ch=1 n=d6 v=71
534360 Off ch=1 n=d6 v=80
534360 On ch=1 n=c6 v=65
534480 On ch=1 n=d#5 v=53
534600 Off ch=1 n=d#5 v=80
534600 Off ch=1 n=c6 v=80
534600 On ch=1 n=c6 v=53
534720 Off ch=1 n=c6 v=80
534840 On ch=1 n=c6 v=53
534960 On ch=1 n=d#5 v=53
535080 Off ch=1 n=d#5 v=80
535080 Off ch=1 n=c6 v=80
535080 On ch=1 n=c6 v=53
535200 Off ch=1 n=c6 v=80
535200 On ch=1 n=b5 v=53
535320 Off ch=1 n=b5 v=80
535320 On ch=1 n=c6 v=53
535440 Off ch=1 n=c6 v=80
535440 On ch=1 n=d#5 v=53
535560 Off ch=1 n=d#5 v=80
535560 On ch=1 n=f6 v=53
535680 Off ch=1 n=f6 v=80
535800 On ch=1 n=d6 v=53
535920 On ch=1 n=d5 v=53
536040 Off ch=1 n=d5 v=80
536040 Off ch=1 n=d6 v=80
536040 On ch=1 n=d6 v=53
536280 Off ch=1 n=d6 v=80
536280 On ch=1 n=c6 v=53
536400 On ch=1 n=g5 v=53
536520 Off ch=1 n=g5 v=80
536520 Off ch=1 n=c6 v=80
536520 On ch=1 n=c6 v=53
536760 Off ch=1 n=c6 v=80
536760 On ch=1 n=a#5 v=53
536880 On ch=1 n=f5 v=59
537000 Off ch=1 n=f5 v=80
537000 Off ch=1 n=a#5 v=80
537000 On ch=1 n=a#5 v=59
537240 Off ch=1 n=a#5 v=80
537240 On ch=1 n=a5 v=65
537360 On ch=1 n=d#5 v=71
537480 Off ch=1 n=d#5 v=80
537480 Off ch=1 n=a5 v=80
537480 On ch=1 n=a5 v=71
537720 Off ch=1 n=a5 v=80
537720 On ch=1 n=g#5 v=77
537840 On ch=1 n=d#5 v=71
537960 Off ch=1 n=d#5 v=80
537960 Off ch=1 n=g#5 v=80
537960 On ch=1 n=g#5 v=71
538200 Off ch=1 n=g#5 v=80
538200 On ch=1 n=g5 v=65
538320 On ch=1 n=d#5 v=53
538440 Off ch=1 n=d#5 v=80
538440 Off ch=1 n=g5 v=80
538440 On ch=1 n=g5 v=53
538560 Off ch=1 n=g5 v=80
538680 On ch=1 n=d6 v=53
538800 On ch=1 n=g5 v=53
538920 Off ch=1 n=g5 v=80
538920 Off ch=1 n=d6 v=80
538920 On ch=1 n=d#6 v=53
539040 Off ch=1 n=d#6 v=80
539040 On ch=1 n=c#6 v=53
539160 Off ch=1 n=c#6 v=80
539160 On ch=1 n=d6 v=53
539280 Off ch=1 n=d6 v=80
539280 On ch=1 n=g5 v=53
539400 Off ch=1 n=g5 v=80
539400 On ch=1 n=g6 v=53
539520 Off ch=1 n=g6 v=80
539640 On ch=1 n=c6 v=53
539760 On ch=1 n=g5 v=53
539880 Off ch=1 n=g5 v=80
539880 Off ch=1 n=c6 v=80
539880 On ch=1 n=d6 v=53
540000 Off ch=1 n=d6 v=80
540000 On ch=1 n=b5 v=53
540120 Off ch=1 n=b5 v=80
540120 On ch=1 n=c6 v=53
540240 Off ch=1 n=c6 v=80
540240 On ch=1 n=g5 v=53
540360 Off ch=1 n=g5 v=80
540360 On ch=1 n=g6 v=53
540480 Off ch=1 n=g6 v=80
540600 On ch=1 n=c6 v=53
540720 On ch=1 n=f5 v=53
540840 Off ch=1 n=f5 v=80
540840 Off ch=1 n=c6 v=80
540840 On ch=1 n=d6 v=53
540960 Off ch=1 n=d6 v=80
540960 On ch=1 n=b5 v=53
541080 Off ch=1 n=b5 v=80
541080 On ch=1 n=c6 v=53
541200 Off ch=1 n=c6 v=80
541200 On ch=1 n=f5 v=53
541320 Off ch=1 n=f5 v=80
541320 On ch=1 n=f6 v=53
541440 Off ch=1 n=f6 v=80
541560 On ch=1 n=a#5 v=53
541680 On ch=1 n=f5 v=53
541800 Off ch=1 n=f5 v=80
541800 Off ch=1 n=a#5 v=80
541800 On ch=1 n=c6 v=53
541920 Off ch=1 n=c6 v=80
541920 On ch=1 n=a5 v=53
542040 Off ch=1 n=a5 v=80
542040 On ch=1 n=a#5 v=53
542160 Off ch=1 n=a#5 v=80
542160 On ch=1 n=f5 v=53
542280 Off ch=1 n=f5 v=80
542280 On ch=1 n=f6 v=53
542400 Off ch=1 n=f6 v=80
542520 On ch=1 n=a#5 v=53
542640 On ch=1 n=d#5 v=59
542760 Off ch=1 n=d#5 v=80
542760 Off ch=1 n=a#5 v=80
542760 On ch=1 n=c6 v=59
542880 Off ch=1 n=c6 v=80
542880 On ch=1 n=a5 v=65
543000 Off ch=1 n=a5 v=80
543000 On ch=1 n=a#5 v=65
543120 Off ch=1 n=a#5 v=80
543120 On ch=1 n=d#5 v=71
543240 Off ch=1 n=d#5 v=80
543240 On ch=1 n=d#6 v=71
543360 Off ch=1 n=d#6 v=80
543480 On ch=1 n=d6 v=77
543600 Off ch=1 n=d6 v=80
543600 On ch=1 n=d5 v=71
543720 Off ch=1 n=d5 v=80
543720 On ch=1 n=d6 v=71
543840 Off ch=1 n=d6 v=80
543960 On ch=1 n=d6 v=65
544080 Off ch=1 n=d6 v=80
544080 On ch=1 n=d5 v=53
544200 Off ch=1 n=d5 v=80
544200 On ch=1 n=d6 v=53
544320 Off ch=1 n=d6 v=80
544440 On ch=1 n=d6 v=53
544560 Off ch=1 n=d6 v=80
544560 On ch=1 n=d5 v=53
544680 Off ch=1 n=d5 v=80
544680 On ch=1 n=d6 v=53
544800 Off ch=1 n=d6 v=80
544920 On ch=1 n=c6 v=53
545040 Off ch=1 n=c6 v=80
545040 On ch=1 n=c5 v=53
545160 Off ch=1 n=c5 v=80
545160 On ch=1 n=c6 v=53
545280 Off ch=1 n=c6 v=80
545400 On ch=1 n=d6 v=49
545520 Off ch=1 n=d6 v=80
545520 On ch=1 n=d5 v=45
545640 Off ch=1 n=d5 v=80
545640 On ch=1 n=d6 v=41
545760 Off ch=1 n=d6 v=80
545880 On ch=1 n=d6 v=37
546000 Off ch=1 n=d6 v=80
546000 On ch=1 n=d5 v=33
546120 On ch=1 n=d6 v=29
546480 Off ch=1 n=d6 v=80
546480 Off ch=1 n=d5 v=80
546840 On ch=1 n=d6 v=78
546960 On ch=1 n=f5 v=78
547080 Off ch=1 n=d6 v=80
547080 On ch=1 n=d6 v=78
547200 Off ch=1 n=f5 v=80
547320 Off ch=1 n=d6 v=80
547320 On ch=1 n=d#6 v=78
547440 On ch=1 n=d#5 v=78
547560 Off ch=1 n=d#6 v=80
547560 On ch=1 n=d#6 v=78
547680 Off ch=1 n=d#5 v=80
547800 Off ch=1 n=d#6 v=80
547800 On ch=1 n=c6 v=78
547920 On ch=1 n=g5 v=78
548040 Off ch=1 n=c6 v=80
548040 On ch=1 n=c6 v=78
548160 Off ch=1 n=g5 v=80
548280 Off ch=1 n=c6 v=80
548280 On ch=1 n=a#5 v=78
548400 On ch=1 n=f5 v=78
548520 Off ch=1 n=a#5 v=80
548520 On ch=1 n=a#5 v=78
548760 Off ch=1 n=a#5 v=80
548760 On ch=1 n=a5 v=78
549000 Off ch=1 n=a5 v=80
549000 On ch=1 n=a5 v=78
550080 Off ch=1 n=f5 v=80
550080 Off ch=1 n=a5 v=80
550680 On ch=1 n=d6 v=78
550800 On ch=1 n=f5 v=78
550920 Off ch=1 n=d6 v=80
550920 On ch=1 n=d6 v=78
551040 Off ch=1 n=f5 v=80
551160 Off ch=1 n=d6 v=80
551160 On ch=1 n=d#6 v=78
551280 On ch=1 n=d#5 v=78
551400 Off ch=1 n=d#6 v=80
551400 On ch=1 n=d#6 v=78
551520 Off ch=1 n=d#5 v=80
551640 Off ch=1 n=d#6 v=80
551640 On ch=1 n=c6 v=78
551760 On ch=1 n=g5 v=78
551880 Off ch=1 n=c6 v=80
551880 On ch=1 n=c6 v=78
552000 Off ch=1 n=g5 v=80
552120 Off ch=1 n=c6 v=80
552120 On ch=1 n=a#5 v=78
552240 On ch=1 n=f5 v=78
552360 Off ch=1 n=a#5 v=80
552360 On ch=1 n=a#5 v=78
552600 Off ch=1 n=a#5 v=80
552600 On ch=1 n=a5 v=78
552840 Off ch=1 n=a5 v=80
552840 On ch=1 n=a5 v=78
553920 Off ch=1 n=f5 v=80
553920 Off ch=1 n=a5 v=80
554480 On ch=1 n=d5 v=65
554520 On ch=1 n=f5 v=65
554880 Off ch=1 n=d5 v=80
555040 On ch=1 n=d#5 v=71
555200 Off ch=1 n=f5 v=80
555200 Off ch=1 n=d#5 v=80
555200 On ch=1 n=f5 v=77
555360 Off ch=1 n=f5 v=80
555360 On ch=1 n=a5 v=77
555520 Off ch=1 n=a5 v=80
555520 On ch=1 n=g5 v=83
555680 Off ch=1 n=g5 v=80
555680 On ch=1 n=f5 v=83
555840 Off ch=1 n=f5 v=80
555880 On ch=1 n=a#4 v=90
555920 On ch=1 n=d#5 v=90
555960 On ch=1 n=a#5 v=90
556320 Off ch=1 n=a#5 v=80
556320 On ch=1 n=a5 v=90
556560 Off ch=1 n=a5 v=80
556560 On ch=1 n=g5 v=90
556800 Off ch=1 n=d#5 v=80
556800 Off ch=1 n=a#4 v=80
556800 Off ch=1 n=g5 v=80
556840 On ch=1 n=c5 v=71
556880 On ch=1 n=f5 v=71
557760 Off ch=1 n=f5 v=80
557760 Off ch=1 n=c5 v=80
557760 On ch=1 n=d#5 v=90
558720 Off ch=1 n=d#5 v=80
559800 On ch=1 n=g5 v=65
559800 On ch=1 n=c5 v=65
560520 Off ch=1 n=g5 v=80
560520 On ch=1 n=a4 v=65
560640 Off ch=1 n=a4 v=80
560640 On ch=1 n=a4 v=65
561120 Off ch=1 n=a4 v=80
561120 On ch=1 n=d#4 v=53
561360 On ch=1 n=a#4 v=53
561600 Off ch=1 n=c5 v=80
561600 Off ch=1 n=d#4 v=80
561600 On ch=1 n=d4 v=53
562560 Off ch=1 n=a#4 v=80
562560 Off ch=1 n=d4 v=80
563040 On ch=1 n=c#5 v=59
563040 On ch=1 n=a5 v=59
563280 Off ch=1 n=a5 v=80
563280 Off ch=1 n=c#5 v=80
563280 On ch=1 n=a#5 v=59
563280 On ch=1 n=d5 v=59
563520 Off ch=1 n=d5 v=80
563520 Off ch=1 n=a#5 v=80
563520 On ch=1 n=a#6 v=65
564000 Off ch=1 n=a#6 v=80
564000 On ch=1 n=a6 v=65
564000 On ch=1 n=a5 v=59
564000 On ch=1 n=c#5 v=59
564240 Off ch=1 n=c#5 v=80
564240 Off ch=1 n=a5 v=80
564240 Off ch=1 n=a6 v=80
564240 On ch=1 n=g6 v=65
564240 On ch=1 n=d5 v=59
564240 On ch=1 n=a#5 v=59
564480 Off ch=1 n=a#5 v=80
564480 Off ch=1 n=d5 v=80
564480 Off ch=1 n=g6 v=80
564480 On ch=1 n=f#6 v=65
564480 On ch=1 n=c6 v=59
564480 On ch=1 n=d#5 v=59
564960 Off ch=1 n=d#5 v=80
564960 Off ch=1 n=c6 v=80
564960 Off ch=1 n=f#6 v=80
564960 On ch=1 n=g6 v=65
564960 On ch=1 n=a#5 v=59
564960 On ch=1 n=d5 v=59
565200 Off ch=1 n=d5 v=80
565200 Off ch=1 n=a#5 v=80
565200 Off ch=1 n=g6 v=80
565200 On ch=1 n=a6 v=65
565200 On ch=1 n=a5 v=59
565200 On ch=1 n=c5 v=59
565440 Off ch=1 n=c5 v=80
565440 Off ch=1 n=a5 v=80
565440 Off ch=1 n=a6 v=80
565440 On ch=1 n=d6 v=65
565920 On ch=1 n=f#5 v=59
566160 Off ch=1 n=f#5 v=80
566160 On ch=1 n=g5 v=59
566400 Off ch=1 n=d6 v=80
566400 Off ch=1 n=g5 v=80
566400 On ch=1 n=a#5 v=59
566880 Off ch=1 n=a#5 v=80
566880 On ch=1 n=a5 v=59
567120 Off ch=1 n=a5 v=80
567120 On ch=1 n=g5 v=59
567240 On ch=1 n=d6 v=65
567360 Off ch=1 n=d6 v=80
567360 Off ch=1 n=g5 v=80
567360 On ch=1 n=d6 v=65
567840 On ch=1 n=f5 v=59
568080 Off ch=1 n=f5 v=80
568080 Off ch=1 n=d6 v=80
568080 On ch=1 n=a5 v=59
568080 On ch=1 n=f#5 v=59
568320 Off ch=1 n=a5 v=80
568320 On ch=1 n=f#6 v=65
568800 Off ch=1 n=f#5 v=80
568800 On ch=1 n=a5 v=59
569040 Off ch=1 n=f#6 v=80
569040 Off ch=1 n=a5 v=80
569040 On ch=1 n=e6 v=65
569040 On ch=1 n=g5 v=59
569280 Off ch=1 n=g5 v=80
569280 Off ch=1 n=e6 v=80
569280 On ch=1 n=d6 v=65
569760 On ch=1 n=f5 v=65
570000 Off ch=1 n=f5 v=80
570000 On ch=1 n=f#5 v=71
570240 Off ch=1 n=d6 v=80
570240 Off ch=1 n=f#5 v=80
570240 On ch=1 n=c6 v=83
570720 Off ch=1 n=c6 v=80
570720 On ch=1 n=a#5 v=71
570960 Off ch=1 n=a#5 v=80
570960 On ch=1 n=d6 v=71
570960 On ch=1 n=a5 v=65
571200 Off ch=1 n=a5 v=80
571200 Off ch=1 n=d6 v=80
571200 On ch=1 n=c7 v=65
571440 Off ch=1 n=c7 v=80
571440 On ch=1 n=a#6 v=65
571680 Off ch=1 n=a#6 v=80
571680 On ch=1 n=a6 v=65
571680 On ch=1 n=a5 v=59
571680 On ch=1 n=c#5 v=59
571920 Off ch=1 n=c#5 v=80
571920 Off ch=1 n=a5 v=80
571920 On ch=1 n=d5 v=59
571920 On ch=1 n=a#5 v=59
572040 Off ch=1 n=a6 v=80
572040 On ch=1 n=g6 v=65
572160 Off ch=1 n=d5 v=80
572160 Off ch=1 n=a#5 v=80
572160 Off ch=1 n=g6 v=80
572160 On ch=1 n=g6 v=65
572160 On ch=1 n=d#5 v=59
572160 On ch=1 n=c6 v=59
572400 Off ch=1 n=g6 v=80
572400 On ch=1 n=f#6 v=65
572640 Off ch=1 n=d#5 v=80
572640 Off ch=1 n=c6 v=80
572640 Off ch=1 n=f#6 v=80
572640 On ch=1 n=g6 v=65
572640 On ch=1 n=a#5 v=59
572640 On ch=1 n=d5 v=59
572880 Off ch=1 n=d5 v=80
572880 Off ch=1 n=a#5 v=80
572880 Off ch=1 n=g6 v=80
572880 On ch=1 n=a6 v=65
572880 On ch=1 n=a5 v=59
572880 On ch=1 n=c5 v=59
573120 Off ch=1 n=c5 v=80
573120 Off ch=1 n=a5 v=80
573120 Off ch=1 n=a6 v=80
573120 On ch=1 n=d6 v=65
573600 On ch=1 n=f#5 v=59
573840 Off ch=1 n=f#5 v=80
573840 On ch=1 n=g5 v=59
574080 Off ch=1 n=d6 v=80
574080 Off ch=1 n=g5 v=80
574080 On ch=1 n=a#5 v=59
574560 Off ch=1 n=a#5 v=80
574560 On ch=1 n=a5 v=59
574800 Off ch=1 n=a5 v=80
574800 On ch=1 n=d6 v=65
574800 On ch=1 n=g5 v=59
575040 Off ch=1 n=g5 v=80
575040 Off ch=1 n=d6 v=80
575040 On ch=1 n=d6 v=65
575520 On ch=1 n=e5 v=59
575760 Off ch=1 n=e5 v=80
575760 Off ch=1 n=d6 v=80
575760 On ch=1 n=a5 v=59
575760 On ch=1 n=f5 v=59
576000 Off ch=1 n=f5 v=80
576000 Off ch=1 n=a5 v=80
576000 On ch=1 n=d6 v=65
576240 Off ch=1 n=d6 v=80
576240 On ch=1 n=c6 v=65
576480 Off ch=1 n=c6 v=80
576480 On ch=1 n=g5 v=65
576720 Off ch=1 n=g5 v=80
576720 On ch=1 n=a5 v=65
576720 On ch=1 n=e5 v=59
576960 Off ch=1 n=e5 v=80
576960 Off ch=1 n=a5 v=80
576960 On ch=1 n=f5 v=65
577440 On ch=1 n=a4 v=65
577800 Off ch=1 n=a4 v=80
577800 On ch=1 n=a#4 v=65
577920 Off ch=1 n=f5 v=80
577920 Off ch=1 n=a#4 v=80
577920 On ch=1 n=c5 v=65
578400 Off ch=1 n=c5 v=80
578400 On ch=1 n=f5 v=90
578880 Off ch=1 n=f5 v=80
578880 On ch=1 n=d#6 v=90
579360 Off ch=1 n=d#6 v=80
579360 On ch=1 n=c5 v=94
579360 On ch=1 n=f5 v=94
579720 Off ch=1 n=c5 v=80
579720 On ch=1 n=d5 v=98
579840 Off ch=1 n=d5 v=80
579840 On ch=1 n=d#5 v=102
580320 Off ch=1 n=f5 v=80
580320 Off ch=1 n=d#5 v=80
580320 On ch=1 n=f5 v=90
580320 On ch=1 n=d5 v=90
580560 Off ch=1 n=d5 v=80
580560 On ch=1 n=c5 v=90
580800 Off ch=1 n=c5 v=80
580800 On ch=1 n=a#4 v=90
581160 Off ch=1 n=a#4 v=80
581160 On ch=1 n=c5 v=90
581280 Off ch=1 n=f5 v=80
581280 Off ch=1 n=c5 v=80
581280 On ch=1 n=d5 v=94
581400 Off ch=1 n=d5 v=80
581520 On ch=1 n=d#5 v=94
581640 Off ch=1 n=d#5 v=80
581760 On ch=1 n=f5 v=98
582000 On ch=1 n=a#5 v=98
582240 Off ch=1 n=a#5 v=80
582240 Off ch=1 n=f5 v=80
582240 On ch=1 n=a5 v=102
582240 On ch=1 n=e5 v=102
582480 Off ch=1 n=a5 v=80
582480 On ch=1 n=g5 v=102
582720 Off ch=1 n=e5 v=80
582720 Off ch=1 n=g5 v=80
582720 On ch=1 n=d#6 v=90
583200 Off ch=1 n=d#6 v=80
583200 On ch=1 n=f5 v=96
583200 On ch=1 n=c5 v=96
583560 Off ch=1 n=c5 v=80
583560 On ch=1 n=d5 v=96
583680 Off ch=1 n=d5 v=80
583680 On ch=1 n=d#5 v=102
584040 Off ch=1 n=d#5 v=80
584040 On ch=1 n=d#5 v=102
584160 Off ch=1 n=f5 v=80
584160 Off ch=1 n=d#5 v=80
584160 On ch=1 n=f5 v=108
584160 On ch=1 n=d5 v=108
584400 Off ch=1 n=d5 v=80
584400 On ch=1 n=c5 v=108
584640 Off ch=1 n=c5 v=80
584640 On ch=1 n=a#4 v=90
585000 Off ch=1 n=a#4 v=80
585000 On ch=1 n=c5 v=96
585120 Off ch=1 n=f5 v=80
585120 Off ch=1 n=c5 v=80
585120 On ch=1 n=d5 v=102
585240 Off ch=1 n=d5 v=80
585360 On ch=1 n=d#5 v=108
585480 Off ch=1 n=d#5 v=80
585600 On ch=1 n=f5 v=99
585840 Off ch=1 n=f5 v=80
585840 On ch=1 n=a#5 v=91
586080 Off ch=1 n=a#5 v=80
586080 On ch=1 n=a5 v=82
586080 On ch=1 n=d#5 v=82
586320 Off ch=1 n=d#5 v=80
586320 Off ch=1 n=a5 v=80
586320 On ch=1 n=a#5 v=73
586320 On ch=1 n=d5 v=73
586560 Off ch=1 n=d5 v=80
586560 Off ch=1 n=a#5 v=80
586560 On ch=1 n=a#6 v=65
587040 Off ch=1 n=a#6 v=80
587040 On ch=1 n=a6 v=65
587040 On ch=1 n=a5 v=65
587040 On ch=1 n=c#5 v=65
587280 Off ch=1 n=c#5 v=80
587280 Off ch=1 n=a5 v=80
587280 Off ch=1 n=a6 v=80
587280 On ch=1 n=g6 v=65
587280 On ch=1 n=d5 v=65
587280 On ch=1 n=a#5 v=65
587520 Off ch=1 n=a#5 v=80
587520 Off ch=1 n=d5 v=80
587520 Off ch=1 n=g6 v=80
587520 On ch=1 n=f#6 v=65
587520 On ch=1 n=c6 v=65
587520 On ch=1 n=d#5 v=65
588000 Off ch=1 n=d#5 v=80
588000 Off ch=1 n=c6 v=80
588000 Off ch=1 n=f#6 v=80
588000 On ch=1 n=g6 v=65
588000 On ch=1 n=a#5 v=65
588000 On ch=1 n=d5 v=65
588240 Off ch=1 n=d5 v=80
588240 Off ch=1 n=a#5 v=80
588240 Off ch=1 n=g6 v=80
588240 On ch=1 n=a6 v=65
588240 On ch=1 n=a5 v=65
588240 On ch=1 n=c5 v=65
588480 Off ch=1 n=c5 v=80
588480 Off ch=1 n=a5 v=80
588480 Off ch=1 n=a6 v=80
588480 On ch=1 n=d6 v=65
588960 On ch=1 n=f#5 v=65
589200 Off ch=1 n=f#5 v=80
589200 On ch=1 n=g5 v=65
589440 Off ch=1 n=d6 v=80
589440 Off ch=1 n=g5 v=80
589440 On ch=1 n=a#5 v=65
589920 Off ch=1 n=a#5 v=80
589920 On ch=1 n=a5 v=65
590160 Off ch=1 n=a5 v=80
590160 On ch=1 n=g5 v=65
590280 On ch=1 n=d6 v=65
590400 Off ch=1 n=d6 v=80
590400 Off ch=1 n=g5 v=80
590400 On ch=1 n=d6 v=65
590880 On ch=1 n=f5 v=65
591120 Off ch=1 n=f5 v=80
591120 Off ch=1 n=d6 v=80
591120 On ch=1 n=a5 v=65
591120 On ch=1 n=f#5 v=65
591360 Off ch=1 n=a5 v=80
591360 On ch=1 n=f#6 v=65
591840 Off ch=1 n=f#5 v=80
591840 On ch=1 n=a5 v=65
592080 Off ch=1 n=f#6 v=80
592080 Off ch=1 n=a5 v=80
592080 On ch=1 n=g5 v=65
592080 On ch=1 n=e6 v=65
592320 Off ch=1 n=e6 v=80
592320 Off ch=1 n=g5 v=80
592320 On ch=1 n=d6 v=65
592800 On ch=1 n=f5 v=71
593040 Off ch=1 n=f5 v=80
593040 On ch=1 n=f#5 v=77
593280 Off ch=1 n=d6 v=80
593280 Off ch=1 n=f#5 v=80
593280 On ch=1 n=c6 v=83
593760 Off ch=1 n=c6 v=80
593760 On ch=1 n=a#5 v=77
594000 Off ch=1 n=a#5 v=80
594000 On ch=1 n=d6 v=71
594000 On ch=1 n=a5 v=71
594240 Off ch=1 n=a5 v=80
594240 Off ch=1 n=d6 v=80
594240 On ch=1 n=c7 v=65
594480 Off ch=1 n=c7 v=80
594480 On ch=1 n=a#6 v=65
594720 Off ch=1 n=a#6 v=80
594720 On ch=1 n=c#5 v=65
594720 On ch=1 n=a5 v=65
594720 On ch=1 n=a6 v=71
594960 Off ch=1 n=a5 v=80
594960 Off ch=1 n=c#5 v=80
594960 On ch=1 n=d5 v=65
594960 On ch=1 n=a#5 v=65
595080 Off ch=1 n=a6 v=80
595080 On ch=1 n=g6 v=71
595200 Off ch=1 n=d5 v=80
595200 Off ch=1 n=a#5 v=80
595200 Off ch=1 n=g6 v=80
595200 On ch=1 n=e5 v=71
595200 On ch=1 n=c#6 v=71
595200 On ch=1 n=g6 v=77
595440 Off ch=1 n=g6 v=80
595440 Off ch=1 n=c#6 v=80
595440 Off ch=1 n=e5 v=80
595440 On ch=1 n=f#6 v=77
595440 On ch=1 n=d#5 v=71
595440 On ch=1 n=c6 v=71
595680 Off ch=1 n=c6 v=80
595680 Off ch=1 n=d#5 v=80
595680 Off ch=1 n=f#6 v=80
595680 On ch=1 n=d5 v=77
595680 On ch=1 n=a#5 v=77
595680 On ch=1 n=g6 v=83
595920 Off ch=1 n=g6 v=80
595920 Off ch=1 n=a#5 v=80
595920 Off ch=1 n=d5 v=80
595920 On ch=1 n=a6 v=83
595920 On ch=1 n=a5 v=77
595920 On ch=1 n=c5 v=77
596160 Off ch=1 n=c5 v=80
596160 Off ch=1 n=a5 v=80
596160 Off ch=1 n=a6 v=80
596160 On ch=1 n=d6 v=90
596640 On ch=1 n=f#5 v=90
596880 Off ch=1 n=f#5 v=80
596880 On ch=1 n=g5 v=90
597120 Off ch=1 n=d6 v=80
597120 Off ch=1 n=g5 v=80
597120 On ch=1 n=a#5 v=90
597600 Off ch=1 n=a#5 v=80
597600 On ch=1 n=a5 v=90
597840 Off ch=1 n=a5 v=80
597840 On ch=1 n=g5 v=102
597840 On ch=1 n=d6 v=102
598080 Off ch=1 n=d6 v=80
598080 Off ch=1 n=g5 v=80
598080 On ch=1 n=g6 v=117
598320 Off ch=1 n=g6 v=80
598320 On ch=1 n=d6 v=102
598560 Off ch=1 n=d6 v=80
598560 On ch=1 n=a#5 v=102
598560 On ch=1 n=g5 v=102
598800 Off ch=1 n=g5 v=80
598800 On ch=1 n=d5 v=102
598920 Off ch=1 n=a#5 v=80
598920 On ch=1 n=c6 v=102
599040 Off ch=1 n=d5 v=80
599040 Off ch=1 n=c6 v=80
599040 On ch=1 n=d6 v=102
599040 On ch=1 n=g5 v=102
599280 Off ch=1 n=g5 v=80
599280 On ch=1 n=a5 v=102
599520 Off ch=1 n=d6 v=80
599520 Off ch=1 n=a5 v=80
599520 On ch=1 n=a#5 v=102
599520 On ch=1 n=f#5 v=102
599760 Off ch=1 n=a#5 v=80
599760 On ch=1 n=a5 v=102
600000 Off ch=1 n=f#5 v=80
600000 Off ch=1 n=a5 v=80
600000 On ch=1 n=g5 v=102
600480 On ch=1 n=a#4 v=102
600840 Off ch=1 n=a#4 v=80
600840 On ch=1 n=c5 v=102
600960 Off ch=1 n=g5 v=80
600960 Off ch=1 n=c5 v=80
600960 On ch=1 n=d5 v=102
601440 Off ch=1 n=d5 v=80
601440 On ch=1 n=g5 v=90
601680 Off ch=1 n=g5 v=80
601680 On ch=1 n=f#5 v=90
601920 Off ch=1 n=f#5 v=80
601920 On ch=1 n=f5 v=90
602160 On ch=1 n=f4 v=90
602400 Off ch=1 n=f4 v=80
602400 On ch=1 n=c5 v=90
602640 Off ch=1 n=c5 v=80
602640 On ch=1 n=d#5 v=90
602880 Off ch=1 n=f5 v=80
602880 Off ch=1 n=d#5 v=80
602880 On ch=1 n=f5 v=96
603120 On ch=1 n=d#6 v=96
603360 Off ch=1 n=d#6 v=80
603360 On ch=1 n=d6 v=102
603600 Off ch=1 n=d6 v=80
603600 On ch=1 n=c6 v=102
603840 Off ch=1 n=f5 v=80
603840 Off ch=1 n=c6 v=80
603840 On ch=1 n=a#5 v=123
604080 On ch=1 n=g5 v=108
604320 Off ch=1 n=g5 v=80
604320 On ch=1 n=f5 v=108
604560 Off ch=1 n=f5 v=80
604560 On ch=1 n=e5 v=108
604800 Off ch=1 n=a#5 v=80
604800 Off ch=1 n=e5 v=80
604800 On ch=1 n=d#5 v=108
604800 On ch=1 n=a5 v=108
605280 Off ch=1 n=a5 v=80
605280 Off ch=1 n=d#5 v=80
605280 On ch=1 n=a5 v=90
605520 Off ch=1 n=a5 v=80
605520 On ch=1 n=g#5 v=90
605760 Off ch=1 n=g#5 v=80
605760 On ch=1 n=g5 v=90
606000 On ch=1 n=b4 v=90
606240 Off ch=1 n=b4 v=80
606240 On ch=1 n=d5 v=90
606480 Off ch=1 n=d5 v=80
606480 On ch=1 n=f5 v=90
606720 Off ch=1 n=g5 v=80
606720 Off ch=1 n=f5 v=80
606720 On ch=1 n=g5 v=96
606960 On ch=1 n=f6 v=96
607200 Off ch=1 n=f6 v=80
607200 On ch=1 n=d#6 v=102
607440 Off ch=1 n=d#6 v=80
607440 On ch=1 n=d6 v=102
607680 Off ch=1 n=g5 v=80
607680 Off ch=1 n=d6 v=80
607680 On ch=1 n=c6 v=123
607920 On ch=1 n=g#5 v=108
608160 Off ch=1 n=g#5 v=80
608160 On ch=1 n=g5 v=108
608400 Off ch=1 n=g5 v=80
608400 On ch=1 n=f#5 v=108
608640 Off ch=1 n=c6 v=80
608640 Off ch=1 n=f#5 v=80
608640 On ch=1 n=f5 v=108
608640 On ch=1 n=b5 v=108
609120 Off ch=1 n=b5 v=80
609120 Off ch=1 n=f5 v=80
609120 On ch=1 n=d6 v=65
609120 On ch=1 n=f#5 v=65
609360 Off ch=1 n=f#5 v=80
609360 Off ch=1 n=d6 v=80
609360 On ch=1 n=g5 v=65
609360 On ch=1 n=d#6 v=65
609600 Off ch=1 n=d#6 v=80
609600 Off ch=1 n=g5 v=80
609600 On ch=1 n=d#6 v=65
609600 On ch=1 n=d#7 v=65
610080 Off ch=1 n=d#7 v=80
610080 Off ch=1 n=d#6 v=80
610080 On ch=1 n=d6 v=65
610080 On ch=1 n=d7 v=65
610320 Off ch=1 n=d7 v=80
610320 Off ch=1 n=d6 v=80
610320 On ch=1 n=c6 v=65
610320 On ch=1 n=c7 v=65
610560 Off ch=1 n=c7 v=80
610560 Off ch=1 n=c6 v=80
610560 On ch=1 n=c6 v=65
610560 On ch=1 n=c7 v=65
610800 Off ch=1 n=c7 v=80
610800 Off ch=1 n=c6 v=80
610800 On ch=1 n=b5 v=65
610800 On ch=1 n=b6 v=65
611040 Off ch=1 n=b6 v=80
611040 Off ch=1 n=b5 v=80
611040 On ch=1 n=c6 v=65
611040 On ch=1 n=c7 v=65
611280 Off ch=1 n=c7 v=80
611280 Off ch=1 n=c6 v=80
611280 On ch=1 n=d6 v=65
611280 On ch=1 n=d7 v=65
611520 Off ch=1 n=d7 v=80
611520 Off ch=1 n=d6 v=80
611520 On ch=1 n=g6 v=65
611520 On ch=1 n=g5 v=65
612960 Off ch=1 n=g5 v=80
612960 Off ch=1 n=g6 v=80
612960 On ch=1 n=b5 v=65
612960 On ch=1 n=d5 v=65
613200 Off ch=1 n=d5 v=80
613200 Off ch=1 n=b5 v=80
613200 On ch=1 n=c6 v=65
613200 On ch=1 n=d#5 v=65
613440 Off ch=1 n=d#5 v=80
613440 Off ch=1 n=c6 v=80
613440 On ch=1 n=d7 v=65
613440 On ch=1 n=d6 v=65
613920 Off ch=1 n=d6 v=80
613920 Off ch=1 n=d7 v=80
613920 On ch=1 n=c7 v=65
613920 On ch=1 n=c6 v=65
614160 Off ch=1 n=c6 v=80
614160 Off ch=1 n=c7 v=80
614160 On ch=1 n=a#6 v=65
614160 On ch=1 n=a#5 v=65
614400 Off ch=1 n=a#5 v=80
614400 Off ch=1 n=a#6 v=80
614400 On ch=1 n=a6 v=65
614400 On ch=1 n=a5 v=65
614880 Off ch=1 n=a5 v=80
614880 Off ch=1 n=a6 v=80
614880 On ch=1 n=g5 v=65
614880 On ch=1 n=g6 v=65
615360 Off ch=1 n=g6 v=80
615360 Off ch=1 n=g5 v=80
615360 On ch=1 n=f5 v=65
615360 On ch=1 n=f6 v=65
615600 Off ch=1 n=f6 v=80
615600 Off ch=1 n=f5 v=80
615600 On ch=1 n=e5 v=65
615600 On ch=1 n=e6 v=65
615840 Off ch=1 n=e6 v=80
615840 Off ch=1 n=e5 v=80
615840 On ch=1 n=d#5 v=65
615840 On ch=1 n=d#6 v=65
616080 Off ch=1 n=d#6 v=80
616080 Off ch=1 n=d#5 v=80
616080 On ch=1 n=d5 v=65
616080 On ch=1 n=d6 v=65
616320 Off ch=1 n=d6 v=80
616320 Off ch=1 n=d5 v=80
616320 On ch=1 n=c#6 v=71
616320 On ch=1 n=e5 v=71
616560 Off ch=1 n=e5 v=80
616560 Off ch=1 n=c#6 v=80
616560 On ch=1 n=f5 v=77
616560 On ch=1 n=c6 v=77
616800 Off ch=1 n=c6 v=80
616800 Off ch=1 n=f5 v=80
616800 On ch=1 n=a#5 v=83
617040 Off ch=1 n=a#5 v=80
617040 On ch=1 n=f#5 v=86
617040 On ch=1 n=a5 v=86
617280 Off ch=1 n=a5 v=80
617280 Off ch=1 n=f#5 v=80
617280 On ch=1 n=a#6 v=65
617760 Off ch=1 n=a#6 v=80
617760 On ch=1 n=a6 v=65
617760 On ch=1 n=a5 v=65
617760 On ch=1 n=c#5 v=65
618000 Off ch=1 n=c#5 v=80
618000 Off ch=1 n=a5 v=80
618000 Off ch=1 n=a6 v=80
618000 On ch=1 n=g6 v=65
618000 On ch=1 n=d5 v=65
618000 On ch=1 n=a#5 v=65
618240 Off ch=1 n=a#5 v=80
618240 Off ch=1 n=d5 v=80
618240 Off ch=1 n=g6 v=80
618240 On ch=1 n=f#6 v=65
618240 On ch=1 n=c6 v=65
618240 On ch=1 n=d#5 v=65
618720 Off ch=1 n=d#5 v=80
618720 Off ch=1 n=c6 v=80
618720 Off ch=1 n=f#6 v=80
618720 On ch=1 n=g6 v=65
618720 On ch=1 n=a#5 v=65
618720 On ch=1 n=d5 v=65
618960 Off ch=1 n=d5 v=80
618960 Off ch=1 n=a#5 v=80
618960 Off ch=1 n=g6 v=80
618960 On ch=1 n=a6 v=65
618960 On ch=1 n=a5 v=65
618960 On ch=1 n=c5 v=65
619200 Off ch=1 n=c5 v=80
619200 Off ch=1 n=a5 v=80
619200 Off ch=1 n=a6 v=80
619200 On ch=1 n=d6 v=65
619680 On ch=1 n=f#5 v=65
619920 Off ch=1 n=f#5 v=80
619920 On ch=1 n=g5 v=65
620160 Off ch=1 n=d6 v=80
620160 Off ch=1 n=g5 v=80
620160 On ch=1 n=a#5 v=65
620640 Off ch=1 n=a#5 v=80
620640 On ch=1 n=a5 v=65
620880 Off ch=1 n=a5 v=80
620880 On ch=1 n=g5 v=65
621000 On ch=1 n=d6 v=65
621120 Off ch=1 n=d6 v=80
621120 Off ch=1 n=g5 v=80
621120 On ch=1 n=d6 v=65
621600 On ch=1 n=f5 v=65
621840 Off ch=1 n=f5 v=80
621840 Off ch=1 n=d6 v=80
621840 On ch=1 n=a5 v=65
621840 On ch=1 n=f#5 v=65
622080 Off ch=1 n=a5 v=80
622080 On ch=1 n=f#6 v=65
622560 Off ch=1 n=f#5 v=80
622560 On ch=1 n=a5 v=65
622800 Off ch=1 n=f#6 v=80
622800 Off ch=1 n=a5 v=80
622800 On ch=1 n=g5 v=65
622800 On ch=1 n=e6 v=65
623040 Off ch=1 n=e6 v=80
623040 Off ch=1 n=g5 v=80
623040 On ch=1 n=d6 v=65
623520 On ch=1 n=f5 v=71
623760 Off ch=1 n=f5 v=80
623760 On ch=1 n=f#5 v=77
624000 Off ch=1 n=d6 v=80
624000 Off ch=1 n=f#5 v=80
624000 On ch=1 n=c6 v=83
624480 Off ch=1 n=c6 v=80
624480 On ch=1 n=a#5 v=77
624720 Off ch=1 n=a#5 v=80
624720 On ch=1 n=d6 v=71
624720 On ch=1 n=a5 v=71
624960 Off ch=1 n=a5 v=80
624960 Off ch=1 n=d6 v=80
624960 On ch=1 n=c7 v=65
625200 Off ch=1 n=c7 v=80
625200 On ch=1 n=a#6 v=65
625440 Off ch=1 n=a#6 v=80
625440 On ch=1 n=c#5 v=65
625440 On ch=1 n=a5 v=65
625440 On ch=1 n=a6 v=71
625680 Off ch=1 n=a5 v=80
625680 Off ch=1 n=c#5 v=80
625680 On ch=1 n=d5 v=65
625680 On ch=1 n=a#5 v=65
625800 Off ch=1 n=a6 v=80
625800 On ch=1 n=g6 v=71
625920 Off ch=1 n=d5 v=80
625920 Off ch=1 n=a#5 v=80
625920 Off ch=1 n=g6 v=80
625920 On ch=1 n=e5 v=71
625920 On ch=1 n=c#6 v=71
625920 On ch=1 n=g6 v=77
626160 Off ch=1 n=g6 v=80
626160 Off ch=1 n=c#6 v=80
626160 Off ch=1 n=e5 v=80
626160 On ch=1 n=f#6 v=77
626160 On ch=1 n=d#5 v=71
626160 On ch=1 n=c6 v=71
626400 Off ch=1 n=c6 v=80
626400 Off ch=1 n=d#5 v=80
626400 Off ch=1 n=f#6 v=80
626400 On ch=1 n=d5 v=77
626400 On ch=1 n=a#5 v=77
626400 On ch=1 n=g6 v=83
626640 Off ch=1 n=g6 v=80
626640 Off ch=1 n=a#5 v=80
626640 Off ch=1 n=d5 v=80
626640 On ch=1 n=a6 v=83
626640 On ch=1 n=a5 v=77
626640 On ch=1 n=c5 v=77
626880 Off ch=1 n=c5 v=80
626880 Off ch=1 n=a5 v=80
626880 Off ch=1 n=a6 v=80
626880 On ch=1 n=d6 v=90
627360 On ch=1 n=f#5 v=90
627600 Off ch=1 n=f#5 v=80
627600 On ch=1 n=g5 v=90
627840 Off ch=1 n=d6 v=80
627840 Off ch=1 n=g5 v=80
627840 On ch=1 n=a#5 v=90
628320 Off ch=1 n=a#5 v=80
628320 On ch=1 n=a5 v=90
628560 Off ch=1 n=a5 v=80
628560 On ch=1 n=g5 v=102
628560 On ch=1 n=d6 v=102
628800 Off ch=1 n=d6 v=80
628800 Off ch=1 n=g5 v=80
628800 On ch=1 n=g6 v=117
629040 Off ch=1 n=g6 v=80
629040 On ch=1 n=d6 v=102
629280 Off ch=1 n=d6 v=80
629280 On ch=1 n=a#5 v=102
629280 On ch=1 n=g5 v=102
629520 Off ch=1 n=g5 v=80
629520 On ch=1 n=d5 v=102
629640 Off ch=1 n=a#5 v=80
629640 On ch=1 n=c6 v=102
629760 Off ch=1 n=d5 v=80
629760 Off ch=1 n=c6 v=80
629760 On ch=1 n=d6 v=102
629760 On ch=1 n=g5 v=102
630000 Off ch=1 n=g5 v=80
630000 On ch=1 n=a5 v=102
630240 Off ch=1 n=d6 v=80
630240 Off ch=1 n=a5 v=80
630240 On ch=1 n=a#5 v=102
630240 On ch=1 n=f#5 v=102
630480 Off ch=1 n=a#5 v=80
630480 On ch=1 n=a5 v=102
630720 Off ch=1 n=f#5 v=80
630720 Off ch=1 n=a5 v=80
630720 On ch=1 n=g5 v=102
631200 On ch=1 n=a#4 v=102
631560 Off ch=1 n=a#4 v=80
631560 On ch=1 n=c5 v=102
631680 Off ch=1 n=g5 v=80
631680 Off ch=1 n=c5 v=80
631680 On ch=1 n=d5 v=102
632160 Off ch=1 n=d5 v=80
633120 On ch=1 n=f5 v=120
633120 On ch=1 n=a#5 v=120
633240 Off ch=1 n=f5 v=80
633240 On ch=1 n=g5 v=102
633360 Off ch=1 n=g5 v=80
633360 On ch=1 n=f5 v=102
633480 Off ch=1 n=f5 v=80
633480 On ch=1 n=d#5 v=102
633600 Off ch=1 n=d#5 v=80
633600 On ch=1 n=d5 v=102
633720 Off ch=1 n=d5 v=80
633720 On ch=1 n=d#5 v=102
633840 Off ch=1 n=a#5 v=80
633840 Off ch=1 n=d#5 v=80
633840 On ch=1 n=d5 v=102
633960 Off ch=1 n=d5 v=80
633960 On ch=1 n=c5 v=102
634080 Off ch=1 n=c5 v=80
634080 On ch=1 n=a#4 v=102
634200 Off ch=1 n=a#4 v=80
634200 On ch=1 n=c5 v=102
634320 Off ch=1 n=c5 v=80
634320 On ch=1 n=a#4 v=102
634440 Off ch=1 n=a#4 v=80
634440 On ch=1 n=a4 v=102
634440 On ch=1 n=d#5 v=102
634560 Off ch=1 n=d#5 v=80
634560 Off ch=1 n=a4 v=80
634560 On ch=1 n=d5 v=102
634560 On ch=1 n=a#4 v=102
635040 Off ch=1 n=a#4 v=80
635040 Off ch=1 n=d5 v=80
635040 On ch=1 n=f5 v=120
635040 On ch=1 n=a#5 v=120
635160 Off ch=1 n=f5 v=80
635160 On ch=1 n=g5 v=102
635280 Off ch=1 n=g5 v=80
635280 On ch=1 n=f5 v=102
635400 Off ch=1 n=f5 v=80
635400 On ch=1 n=d#5 v=102
635520 Off ch=1 n=d#5 v=80
635520 On ch=1 n=d5 v=102
635640 Off ch=1 n=d5 v=80
635640 On ch=1 n=d#5 v=102
635760 Off ch=1 n=a#5 v=80
635760 Off ch=1 n=d#5 v=80
635760 On ch=1 n=d5 v=102
635880 Off ch=1 n=d5 v=80
635880 On ch=1 n=c5 v=102
636000 Off ch=1 n=c5 v=80
636000 On ch=1 n=a#4 v=102
636120 Off ch=1 n=a#4 v=80
636120 On ch=1 n=c5 v=102
636240 Off ch=1 n=c5 v=80
636240 On ch=1 n=a#4 v=102
636360 Off ch=1 n=a#4 v=80
636360 On ch=1 n=a4 v=102
636360 On ch=1 n=d#5 v=102
636480 Off ch=1 n=d#5 v=80
636480 Off ch=1 n=a4 v=80
636480 On ch=1 n=d5 v=102
636480 On ch=1 n=a#4 v=102
636960 Off ch=1 n=a#4 v=80
636960 Off ch=1 n=d5 v=80
636960 On ch=1 n=f5 v=120
636960 On ch=1 n=a#5 v=120
637080 Off ch=1 n=f5 v=80
637080 On ch=1 n=g5 v=102
637200 Off ch=1 n=g5 v=80
637200 On ch=1 n=f5 v=102
637320 Off ch=1 n=f5 v=80
637320 On ch=1 n=d#5 v=102
637440 Off ch=1 n=d#5 v=80
637440 On ch=1 n=d5 v=102
637560 Off ch=1 n=d5 v=80
637560 On ch=1 n=d#5 v=102
637680 Off ch=1 n=a#5 v=80
637680 Off ch=1 n=d#5 v=80
637680 On ch=1 n=d5 v=102
637800 Off ch=1 n=d5 v=80
637800 On ch=1 n=c5 v=102
637920 Off ch=1 n=c5 v=80
637920 On ch=1 n=a#4 v=102
638040 Off ch=1 n=a#4 v=80
638040 On ch=1 n=c5 v=102
638160 Off ch=1 n=c5 v=80
638160 On ch=1 n=a#4 v=102
638280 Off ch=1 n=a#4 v=80
638280 On ch=1 n=d#5 v=102
638280 On ch=1 n=f4 v=102
638400 Off ch=1 n=f4 v=80
638400 Off ch=1 n=d#5 v=80
638400 On ch=1 n=d5 v=102
638400 On ch=1 n=a#4 v=102
638880 Off ch=1 n=a#4 v=80
638880 Off ch=1 n=d5 v=80
638880 On ch=1 n=f5 v=120
638880 On ch=1 n=a#5 v=120
639000 Off ch=1 n=f5 v=80
639000 On ch=1 n=g5 v=102
639120 Off ch=1 n=g5 v=80
639120 On ch=1 n=f5 v=102
639240 Off ch=1 n=f5 v=80
639240 On ch=1 n=d#5 v=102
639360 Off ch=1 n=d#5 v=80
639360 On ch=1 n=d5 v=102
639480 Off ch=1 n=d5 v=80
639480 On ch=1 n=d#5 v=102
639600 Off ch=1 n=a#5 v=80
639600 Off ch=1 n=d#5 v=80
639600 On ch=1 n=d5 v=102
639720 Off ch=1 n=d5 v=80
639720 On ch=1 n=c5 v=102
639840 Off ch=1 n=c5 v=80
639840 On ch=1 n=a#4 v=102
639960 Off ch=1 n=a#4 v=80
639960 On ch=1 n=c5 v=102
640080 Off ch=1 n=c5 v=80
640080 On ch=1 n=a#4 v=102
640200 Off ch=1 n=a#4 v=80
640200 On ch=1 n=d#5 v=102
640200 On ch=1 n=f4 v=102
640320 Off ch=1 n=f4 v=80
640320 Off ch=1 n=d#5 v=80
640320 On ch=1 n=d5 v=102
640320 On ch=1 n=a#4 v=102
640800 Off ch=1 n=a#4 v=80
640800 Off ch=1 n=d5 v=80
640800 On ch=1 n=a#5 v=117
640800 On ch=1 n=d5 v=117
640920 Off ch=1 n=a#5 v=80
640920 On ch=1 n=c6 v=102
641040 Off ch=1 n=c6 v=80
641040 On ch=1 n=a#5 v=102
641160 Off ch=1 n=a#5 v=80
641160 On ch=1 n=a5 v=102
641280 Off ch=1 n=a5 v=80
641280 On ch=1 n=g5 v=102
641400 Off ch=1 n=g5 v=80
641400 On ch=1 n=a5 v=102
641520 Off ch=1 n=d5 v=80
641520 Off ch=1 n=a5 v=80
641520 On ch=1 n=g5 v=102
641640 Off ch=1 n=g5 v=80
641640 On ch=1 n=f5 v=102
641760 Off ch=1 n=f5 v=80
641760 On ch=1 n=e5 v=102
642000 Off ch=1 n=e5 v=80
642120 On ch=1 n=d6 v=102
642120 On ch=1 n=d5 v=102
642240 Off ch=1 n=d5 v=80
642240 Off ch=1 n=d6 v=80
642240 On ch=1 n=c6 v=102
642240 On ch=1 n=c5 v=102
642600 Off ch=1 n=c5 v=80
642600 Off ch=1 n=c6 v=80
642600 On ch=1 n=a#5 v=102
642600 On ch=1 n=a#4 v=102
642720 Off ch=1 n=a#4 v=80
642720 Off ch=1 n=a#5 v=80
642720 On ch=1 n=a5 v=102
642720 On ch=1 n=a4 v=102
642840 Off ch=1 n=a4 v=80
642840 Off ch=1 n=a5 v=80
642840 On ch=1 n=a#4 v=102
642960 Off ch=1 n=a#4 v=80
642960 On ch=1 n=a4 v=102
643080 Off ch=1 n=a4 v=80
643080 On ch=1 n=g4 v=102
643200 Off ch=1 n=g4 v=80
643200 On ch=1 n=f4 v=102
643320 Off ch=1 n=f4 v=80
643320 On ch=1 n=g4 v=102
643440 Off ch=1 n=g4 v=80
643440 On ch=1 n=f4 v=102
643560 Off ch=1 n=f4 v=80
643560 On ch=1 n=d4 v=102
643560 On ch=1 n=a#4 v=102
643680 Off ch=1 n=a#4 v=80
643680 Off ch=1 n=d4 v=80
643680 On ch=1 n=a4 v=102
643680 On ch=1 n=f4 v=102
643800 Off ch=1 n=f4 v=80
643800 Off ch=1 n=a4 v=80
643920 On ch=1 n=g4 v=102
643920 On ch=1 n=e4 v=102
644040 Off ch=1 n=e4 v=80
644040 Off ch=1 n=g4 v=80
644160 On ch=1 n=f4 v=102
644640 Off ch=1 n=f4 v=80
644640 On ch=1 n=f5 v=120
644640 On ch=1 n=a#5 v=120
644760 Off ch=1 n=f5 v=80
644760 On ch=1 n=g5 v=102
644880 Off ch=1 n=g5 v=80
644880 On ch=1 n=f5 v=102
645000 Off ch=1 n=f5 v=80
645000 On ch=1 n=d#5 v=102
645120 Off ch=1 n=d#5 v=80
645120 On ch=1 n=d5 v=102
645240 Off ch=1 n=d5 v=80
645240 On ch=1 n=d#5 v=102
645360 Off ch=1 n=a#5 v=80
645360 Off ch=1 n=d#5 v=80
645360 On ch=1 n=d5 v=102
645480 Off ch=1 n=d5 v=80
645480 On ch=1 n=c5 v=102
645600 Off ch=1 n=c5 v=80
645600 On ch=1 n=a#4 v=102
645720 Off ch=1 n=a#4 v=80
645720 On ch=1 n=c5 v=102
645840 Off ch=1 n=c5 v=80
645840 On ch=1 n=a#4 v=102
645960 Off ch=1 n=a#4 v=80
645960 On ch=1 n=a4 v=102
645960 On ch=1 n=d#5 v=102
646080 Off ch=1 n=d#5 v=80
646080 Off ch=1 n=a4 v=80
646080 On ch=1 n=d5 v=102
646080 On ch=1 n=a#4 v=102
646560 Off ch=1 n=a#4 v=80
646560 Off ch=1 n=d5 v=80
646560 On ch=1 n=f5 v=120
646560 On ch=1 n=a#5 v=120
646680 Off ch=1 n=f5 v=80
646680 On ch=1 n=g5 v=102
646800 Off ch=1 n=g5 v=80
646800 On ch=1 n=f5 v=102
646920 Off ch=1 n=f5 v=80
646920 On ch=1 n=d#5 v=102
647040 Off ch=1 n=d#5 v=80
647040 On ch=1 n=d5 v=102
647160 Off ch=1 n=d5 v=80
647160 On ch=1 n=d#5 v=102
647280 Off ch=1 n=a#5 v=80
647280 Off ch=1 n=d#5 v=80
647280 On ch=1 n=d5 v=102
647400 Off ch=1 n=d5 v=80
647400 On ch=1 n=c5 v=102
647520 Off ch=1 n=c5 v=80
647520 On ch=1 n=a#4 v=102
647640 Off ch=1 n=a#4 v=80
647640 On ch=1 n=c5 v=102
647760 Off ch=1 n=c5 v=80
647760 On ch=1 n=a#4 v=102
647880 Off ch=1 n=a#4 v=80
647880 On ch=1 n=a4 v=102
647880 On ch=1 n=d#5 v=102
648000 Off ch=1 n=d#5 v=80
648000 Off ch=1 n=a4 v=80
648000 On ch=1 n=d5 v=102
648000 On ch=1 n=a#4 v=102
648480 Off ch=1 n=a#4 v=80
648480 Off ch=1 n=d5 v=80
648480 On ch=1 n=f5 v=120
648480 On ch=1 n=a#5 v=120
648600 Off ch=1 n=f5 v=80
648600 On ch=1 n=g5 v=102
648720 Off ch=1 n=g5 v=80
648720 On ch=1 n=f5 v=102
648840 Off ch=1 n=f5 v=80
648840 On ch=1 n=d#5 v=102
648960 Off ch=1 n=d#5 v=80
648960 On ch=1 n=d5 v=102
649080 Off ch=1 n=d5 v=80
649080 On ch=1 n=d#5 v=102
649200 Off ch=1 n=a#5 v=80
649200 Off ch=1 n=d#5 v=80
649200 On ch=1 n=d5 v=102
649320 Off ch=1 n=d5 v=80
649320 On ch=1 n=c5 v=102
649440 Off ch=1 n=c5 v=80
649440 On ch=1 n=a#4 v=102
649560 Off ch=1 n=a#4 v=80
649560 On ch=1 n=c5 v=102
649680 Off ch=1 n=c5 v=80
649680 On ch=1 n=a#4 v=102
649800 Off ch=1 n=a#4 v=80
649800 On ch=1 n=d#5 v=102
649800 On ch=1 n=f4 v=102
649920 Off ch=1 n=f4 v=80
649920 Off ch=1 n=d#5 v=80
649920 On ch=1 n=d5 v=102
649920 On ch=1 n=a#4 v=102
650400 Off ch=1 n=a#4 v=80
650400 Off ch=1 n=d5 v=80
650400 On ch=1 n=f5 v=120
650400 On ch=1 n=a#5 v=120
650520 Off ch=1 n=f5 v=80
650520 On ch=1 n=g5 v=102
650640 Off ch=1 n=g5 v=80
650640 On ch=1 n=f5 v=102
650760 Off ch=1 n=f5 v=80
650760 On ch=1 n=d#5 v=102
650880 Off ch=1 n=d#5 v=80
650880 On ch=1 n=d5 v=102
651000 Off ch=1 n=d5 v=80
651000 On ch=1 n=d#5 v=102
651120 Off ch=1 n=a#5 v=80
651120 Off ch=1 n=d#5 v=80
651120 On ch=1 n=d5 v=102
651240 Off ch=1 n=d5 v=80
651240 On ch=1 n=c5 v=102
651360 Off ch=1 n=c5 v=80
651360 On ch=1 n=a#4 v=102
651480 Off ch=1 n=a#4 v=80
651480 On ch=1 n=c5 v=102
651600 Off ch=1 n=c5 v=80
651600 On ch=1 n=a#4 v=102
651720 Off ch=1 n=a#4 v=80
651720 On ch=1 n=d#5 v=102
651720 On ch=1 n=f4 v=102
651840 Off ch=1 n=f4 v=80
651840 Off ch=1 n=d#5 v=80
651840 On ch=1 n=d5 v=102
651840 On ch=1 n=a#4 v=102
652320 Off ch=1 n=a#4 v=80
652320 Off ch=1 n=d5 v=80
652320 On ch=1 n=a#5 v=117
652320 On ch=1 n=d5 v=117
652440 Off ch=1 n=a#5 v=80
652440 On ch=1 n=c6 v=102
652560 Off ch=1 n=c6 v=80
652560 On ch=1 n=a#5 v=102
652680 Off ch=1 n=a#5 v=80
652680 On ch=1 n=a5 v=102
652800 Off ch=1 n=a5 v=80
652800 On ch=1 n=g5 v=102
652920 Off ch=1 n=g5 v=80
652920 On ch=1 n=a5 v=102
653040 Off ch=1 n=d5 v=80
653040 Off ch=1 n=a5 v=80
653040 On ch=1 n=g5 v=102
653160 Off ch=1 n=g5 v=80
653160 On ch=1 n=f5 v=102
653280 Off ch=1 n=f5 v=80
653280 On ch=1 n=e5 v=102
653520 Off ch=1 n=e5 v=80
653640 On ch=1 n=d6 v=102
653640 On ch=1 n=d5 v=102
653760 Off ch=1 n=d5 v=80
653760 Off ch=1 n=d6 v=80
653760 On ch=1 n=c6 v=102
653760 On ch=1 n=c5 v=102
654120 Off ch=1 n=c5 v=80
654120 Off ch=1 n=c6 v=80
654120 On ch=1 n=a#5 v=102
654120 On ch=1 n=a#4 v=102
654240 Off ch=1 n=a#4 v=80
654240 Off ch=1 n=a#5 v=80
654240 On ch=1 n=a5 v=102
654240 On ch=1 n=a4 v=102
654360 Off ch=1 n=a4 v=80
654360 Off ch=1 n=a5 v=80
654360 On ch=1 n=a#4 v=102
654480 Off ch=1 n=a#4 v=80
654480 On ch=1 n=a4 v=102
654600 Off ch=1 n=a4 v=80
654600 On ch=1 n=g4 v=102
654720 Off ch=1 n=g4 v=80
654720 On ch=1 n=f4 v=102
654840 Off ch=1 n=f4 v=80
654840 On ch=1 n=g4 v=102
654960 Off ch=1 n=g4 v=80
654960 On ch=1 n=f4 v=102
655080 Off ch=1 n=f4 v=80
655080 On ch=1 n=d4 v=102
655080 On ch=1 n=a#4 v=102
655200 Off ch=1 n=a#4 v=80
655200 Off ch=1 n=d4 v=80
655200 On ch=1 n=a4 v=102
655200 On ch=1 n=f4 v=102
655320 Off ch=1 n=f4 v=80
655320 Off ch=1 n=a4 v=80
655440 On ch=1 n=g4 v=102
655440 On ch=1 n=e4 v=102
655560 Off ch=1 n=e4 v=80
655560 Off ch=1 n=g4 v=80
655680 On ch=1 n=f4 v=102
656160 Off ch=1 n=f4 v=80
656160 On ch=1 n=f5 v=120
656160 On ch=1 n=a#5 v=120
656280 Off ch=1 n=f5 v=80
656280 On ch=1 n=g5 v=102
656400 Off ch=1 n=g5 v=80
656400 On ch=1 n=f5 v=102
656520 Off ch=1 n=f5 v=80
656520 On ch=1 n=d#5 v=102
656640 Off ch=1 n=d#5 v=80
656640 On ch=1 n=d5 v=102
656760 Off ch=1 n=d5 v=80
656760 On ch=1 n=d#5 v=102
656880 Off ch=1 n=a#5 v=80
656880 Off ch=1 n=d#5 v=80
656880 On ch=1 n=d5 v=102
657000 Off ch=1 n=d5 v=80
657000 On ch=1 n=c5 v=102
657120 Off ch=1 n=c5 v=80
657120 On ch=1 n=a#4 v=102
657240 Off ch=1 n=a#4 v=80
657240 On ch=1 n=c5 v=102
657360 Off ch=1 n=c5 v=80
657360 On ch=1 n=a#4 v=102
657480 Off ch=1 n=a#4 v=80
657480 On ch=1 n=a4 v=102
657480 On ch=1 n=d#5 v=102
657600 Off ch=1 n=d#5 v=80
657600 Off ch=1 n=a4 v=80
657600 On ch=1 n=d5 v=102
657600 On ch=1 n=a#4 v=102
658080 Off ch=1 n=a#4 v=80
658080 Off ch=1 n=d5 v=80
658080 On ch=1 n=a5 v=120
658080 On ch=1 n=d6 v=120
658200 Off ch=1 n=a5 v=80
658200 On ch=1 n=a#5 v=102
658320 Off ch=1 n=a#5 v=80
658320 On ch=1 n=a5 v=102
658440 Off ch=1 n=a5 v=80
658440 On ch=1 n=g5 v=102
658560 Off ch=1 n=g5 v=80
658560 On ch=1 n=f5 v=102
658680 Off ch=1 n=f5 v=80
658680 On ch=1 n=g5 v=102
658800 Off ch=1 n=d6 v=80
658800 Off ch=1 n=g5 v=80
658800 On ch=1 n=f5 v=102
658920 Off ch=1 n=f5 v=80
658920 On ch=1 n=e5 v=102
659040 Off ch=1 n=e5 v=80
659040 On ch=1 n=d5 v=102
659160 Off ch=1 n=d5 v=80
659160 On ch=1 n=e5 v=102
659280 Off ch=1 n=e5 v=80
659280 On ch=1 n=d5 v=102
659400 Off ch=1 n=d5 v=80
659400 On ch=1 n=c#5 v=102
659400 On ch=1 n=g5 v=102
659520 Off ch=1 n=g5 v=80
659520 Off ch=1 n=c#5 v=80
659520 On ch=1 n=d5 v=102
659520 On ch=1 n=f5 v=102
660000 Off ch=1 n=f5 v=80
660000 Off ch=1 n=d5 v=80
660000 On ch=1 n=c6 v=120
660000 On ch=1 n=f6 v=120
660120 Off ch=1 n=c6 v=80
660120 On ch=1 n=d6 v=102
660240 Off ch=1 n=d6 v=80
660240 On ch=1 n=c6 v=102
660360 Off ch=1 n=c6 v=80
660360 On ch=1 n=a#5 v=102
660480 Off ch=1 n=a#5 v=80
660480 On ch=1 n=a5 v=102
660600 Off ch=1 n=a5 v=80
660600 On ch=1 n=a#5 v=102
660720 Off ch=1 n=f6 v=80
660720 Off ch=1 n=a#5 v=80
660720 On ch=1 n=a5 v=102
660840 Off ch=1 n=a5 v=80
660840 On ch=1 n=g5 v=102
660960 Off ch=1 n=g5 v=80
660960 On ch=1 n=f5 v=102
661080 Off ch=1 n=f5 v=80
661080 On ch=1 n=g5 v=102
661200 Off ch=1 n=g5 v=80
661200 On ch=1 n=f5 v=102
661320 Off ch=1 n=f5 v=80
661320 On ch=1 n=e5 v=102
661320 On ch=1 n=a#5 v=102
661440 Off ch=1 n=a#5 v=80
661440 Off ch=1 n=e5 v=80
661440 On ch=1 n=a5 v=102
661440 On ch=1 n=f5 v=102
661920 Off ch=1 n=f5 v=80
661920 Off ch=1 n=a5 v=80
661920 On ch=1 n=c6 v=120
661920 On ch=1 n=f6 v=120
662040 Off ch=1 n=c6 v=80
662040 On ch=1 n=d6 v=102
662160 Off ch=1 n=d6 v=80
662160 On ch=1 n=c6 v=102
662280 Off ch=1 n=c6 v=80
662280 On ch=1 n=a#5 v=102
662400 Off ch=1 n=a#5 v=80
662400 On ch=1 n=a5 v=102
662520 Off ch=1 n=a5 v=80
662520 On ch=1 n=a#5 v=102
662640 Off ch=1 n=f6 v=80
662640 Off ch=1 n=a#5 v=80
662640 On ch=1 n=a5 v=102
662760 Off ch=1 n=a5 v=80
662760 On ch=1 n=g5 v=102
662880 Off ch=1 n=g5 v=80
662880 On ch=1 n=f5 v=102
663000 Off ch=1 n=f5 v=80
663000 On ch=1 n=g5 v=102
663120 Off ch=1 n=g5 v=80
663120 On ch=1 n=f5 v=102
663240 Off ch=1 n=f5 v=80
663240 On ch=1 n=e5 v=102
663240 On ch=1 n=a#5 v=102
663360 Off ch=1 n=a#5 v=80
663360 Off ch=1 n=e5 v=80
663360 On ch=1 n=f5 v=102
663360 On ch=1 n=a5 v=102
663840 Off ch=1 n=a5 v=80
663840 Off ch=1 n=f5 v=80
663840 On ch=1 n=f6 v=120
663960 Off ch=1 n=f6 v=80
663960 On ch=1 n=g6 v=102
664080 Off ch=1 n=g6 v=80
664080 On ch=1 n=f6 v=102
664200 Off ch=1 n=f6 v=80
664200 On ch=1 n=e6 v=102
664320 Off ch=1 n=e6 v=80
664320 On ch=1 n=d6 v=102
664440 Off ch=1 n=d6 v=80
664440 On ch=1 n=e6 v=102
664560 Off ch=1 n=e6 v=80
664560 On ch=1 n=d6 v=102
664680 Off ch=1 n=d6 v=80
664680 On ch=1 n=c6 v=102
664800 Off ch=1 n=c6 v=80
664800 On ch=1 n=a#5 v=102
664920 Off ch=1 n=a#5 v=80
664920 On ch=1 n=c6 v=102
665040 Off ch=1 n=c6 v=80
665040 On ch=1 n=a#5 v=102
665160 Off ch=1 n=a#5 v=80
665160 On ch=1 n=a5 v=102
665280 Off ch=1 n=a5 v=80
665280 On ch=1 n=g5 v=102
665400 Off ch=1 n=g5 v=80
665400 On ch=1 n=a5 v=102
665520 Off ch=1 n=a5 v=80
665520 On ch=1 n=g5 v=102
665640 Off ch=1 n=g5 v=80
665640 On ch=1 n=f5 v=102
665760 Off ch=1 n=f5 v=80
665760 On ch=1 n=e5 v=102
665880 Off ch=1 n=e5 v=80
665880 On ch=1 n=f5 v=102
666000 Off ch=1 n=f5 v=80
666000 On ch=1 n=e5 v=102
666120 Off ch=1 n=e5 v=80
666120 On ch=1 n=d5 v=102
666240 Off ch=1 n=d5 v=80
666240 On ch=1 n=c5 v=102
666360 Off ch=1 n=c5 v=80
666360 On ch=1 n=d5 v=102
666480 Off ch=1 n=d5 v=80
666480 On ch=1 n=c5 v=102
666600 Off ch=1 n=c5 v=80
666600 On ch=1 n=a#4 v=102
666720 Off ch=1 n=a#4 v=80
666720 On ch=1 n=a4 v=102
666840 Off ch=1 n=a4 v=80
666840 On ch=1 n=a#4 v=102
666960 Off ch=1 n=a#4 v=80
666960 On ch=1 n=a4 v=102
667080 Off ch=1 n=a4 v=80
667080 On ch=1 n=g4 v=102
667200 Off ch=1 n=g4 v=80
667200 On ch=1 n=f4 v=102
667320 Off ch=1 n=f4 v=80
667320 On ch=1 n=g4 v=102
667440 Off ch=1 n=g4 v=80
667440 On ch=1 n=f4 v=102
667560 Off ch=1 n=f4 v=80
667560 On ch=1 n=d#4 v=102
667680 Off ch=1 n=d#4 v=80
667680 On ch=1 n=a#5 v=102
667680 On ch=1 n=a#6 v=102
667800 Off ch=1 n=a#6 v=80
667800 Off ch=1 n=a#5 v=80
667800 On ch=1 n=c6 v=102
667800 On ch=1 n=c7 v=102
667920 Off ch=1 n=c7 v=80
667920 Off ch=1 n=c6 v=80
667920 On ch=1 n=a#5 v=102
667920 On ch=1 n=a#6 v=102
668040 Off ch=1 n=a#6 v=80
668040 Off ch=1 n=a#5 v=80
668040 On ch=1 n=a5 v=102
668040 On ch=1 n=a6 v=102
668160 Off ch=1 n=a6 v=80
668160 Off ch=1 n=a5 v=80
668160 On ch=1 n=g5 v=102
668160 On ch=1 n=g6 v=102
668280 Off ch=1 n=g6 v=80
668280 Off ch=1 n=g5 v=80
668280 On ch=1 n=a5 v=102
668280 On ch=1 n=a6 v=102
668400 Off ch=1 n=a6 v=80
668400 Off ch=1 n=a5 v=80
668400 On ch=1 n=g5 v=102
668400 On ch=1 n=g6 v=102
668520 Off ch=1 n=g6 v=80
668520 Off ch=1 n=g5 v=80
668520 On ch=1 n=f5 v=102
668520 On ch=1 n=f6 v=102
668640 Off ch=1 n=f6 v=80
668640 Off ch=1 n=f5 v=80
668640 On ch=1 n=d#5 v=102
668640 On ch=1 n=d#6 v=102
668760 Off ch=1 n=d#6 v=80
668760 Off ch=1 n=d#5 v=80
668760 On ch=1 n=f5 v=102
668760 On ch=1 n=f6 v=102
668880 Off ch=1 n=f6 v=80
668880 Off ch=1 n=f5 v=80
668880 On ch=1 n=d#5 v=102
668880 On ch=1 n=d#6 v=102
669000 Off ch=1 n=d#6 v=80
669000 Off ch=1 n=d#5 v=80
669000 On ch=1 n=d5 v=102
669000 On ch=1 n=d6 v=102
669120 Off ch=1 n=d6 v=80
669120 Off ch=1 n=d5 v=80
669120 On ch=1 n=c5 v=102
669120 On ch=1 n=c6 v=102
669240 Off ch=1 n=c6 v=80
669240 Off ch=1 n=c5 v=80
669240 On ch=1 n=d5 v=102
669240 On ch=1 n=d6 v=102
669360 Off ch=1 n=d6 v=80
669360 Off ch=1 n=d5 v=80
669360 On ch=1 n=c5 v=102
669360 On ch=1 n=c6 v=102
669480 Off ch=1 n=c6 v=80
669480 Off ch=1 n=c5 v=80
669480 On ch=1 n=a#4 v=102
669480 On ch=1 n=a#5 v=102
669600 Off ch=1 n=a#5 v=80
669600 Off ch=1 n=a#4 v=80
669600 On ch=1 n=a4 v=102
669600 On ch=1 n=a5 v=102
669720 Off ch=1 n=a5 v=80
669720 Off ch=1 n=a4 v=80
669720 On ch=1 n=a#4 v=102
669720 On ch=1 n=a#5 v=102
669840 Off ch=1 n=a#5 v=80
669840 Off ch=1 n=a#4 v=80
669840 On ch=1 n=c5 v=102
669840 On ch=1 n=c6 v=102
669960 Off ch=1 n=c6 v=80
669960 Off ch=1 n=c5 v=80
669960 On ch=1 n=a#4 v=102
669960 On ch=1 n=a#5 v=102
670080 Off ch=1 n=a#5 v=80
670080 Off ch=1 n=a#4 v=80
670080 On ch=1 n=a4 v=102
670080 On ch=1 n=a5 v=102
670200 Off ch=1 n=a5 v=80
670200 Off ch=1 n=a4 v=80
670200 On ch=1 n=a#4 v=102
670200 On ch=1 n=a#5 v=102
670320 Off ch=1 n=a#5 v=80
670320 Off ch=1 n=a#4 v=80
670320 On ch=1 n=a4 v=102
670320 On ch=1 n=a5 v=102
670440 Off ch=1 n=a5 v=80
670440 Off ch=1 n=a4 v=80
670440 On ch=1 n=g4 v=102
670440 On ch=1 n=g5 v=102
670560 Off ch=1 n=g5 v=80
670560 Off ch=1 n=g4 v=80
670560 On ch=1 n=f4 v=102
670560 On ch=1 n=f5 v=102
670680 Off ch=1 n=f5 v=80
670680 Off ch=1 n=f4 v=80
670680 On ch=1 n=g4 v=102
670680 On ch=1 n=g5 v=102
670800 Off ch=1 n=g5 v=80
670800 Off ch=1 n=g4 v=80
670800 On ch=1 n=f4 v=102
670800 On ch=1 n=f5 v=102
670920 Off ch=1 n=f5 v=80
670920 Off ch=1 n=f4 v=80
670920 On ch=1 n=d#4 v=102
670920 On ch=1 n=d#5 v=102
671040 Off ch=1 n=d#5 v=80
671040 Off ch=1 n=d#4 v=80
671040 On ch=1 n=d4 v=102
671040 On ch=1 n=d5 v=102
671160 Off ch=1 n=d5 v=80
671160 Off ch=1 n=d4 v=80
671160 On ch=1 n=e4 v=102
671160 On ch=1 n=e5 v=102
671280 Off ch=1 n=e5 v=80
671280 Off ch=1 n=e4 v=80
671280 On ch=1 n=d4 v=102
671280 On ch=1 n=d5 v=102
671400 Off ch=1 n=d5 v=80
671400 Off ch=1 n=d4 v=80
671400 On ch=1 n=c4 v=102
671400 On ch=1 n=c5 v=102
671520 Off ch=1 n=c5 v=80
671520 Off ch=1 n=c4 v=80
671520 On ch=1 n=g6 v=102
671520 On ch=1 n=g5 v=102
671640 Off ch=1 n=g5 v=80
671640 Off ch=1 n=g6 v=80
671640 On ch=1 n=a5 v=102
671640 On ch=1 n=a6 v=102
671760 Off ch=1 n=a6 v=80
671760 Off ch=1 n=a5 v=80
671760 On ch=1 n=g5 v=102
671760 On ch=1 n=g6 v=102
671880 Off ch=1 n=g6 v=80
671880 Off ch=1 n=g5 v=80
671880 On ch=1 n=f5 v=102
671880 On ch=1 n=f6 v=102
672000 Off ch=1 n=f6 v=80
672000 Off ch=1 n=f5 v=80
672000 On ch=1 n=d#5 v=102
672000 On ch=1 n=d#6 v=102
672120 Off ch=1 n=d#6 v=80
672120 Off ch=1 n=d#5 v=80
672120 On ch=1 n=f5 v=102
672120 On ch=1 n=f6 v=102
672240 Off ch=1 n=f6 v=80
672240 Off ch=1 n=f5 v=80
672240 On ch=1 n=d#5 v=102
672240 On ch=1 n=d#6 v=102
672360 Off ch=1 n=d#6 v=80
672360 Off ch=1 n=d#5 v=80
672360 On ch=1 n=d5 v=102
672360 On ch=1 n=d6 v=102
672480 Off ch=1 n=d6 v=80
672480 Off ch=1 n=d5 v=80
672480 On ch=1 n=c5 v=102
672480 On ch=1 n=c6 v=102
672600 Off ch=1 n=c6 v=80
672600 Off ch=1 n=c5 v=80
672600 On ch=1 n=d5 v=102
672600 On ch=1 n=d6 v=102
672720 Off ch=1 n=d6 v=80
672720 Off ch=1 n=d5 v=80
672720 On ch=1 n=c5 v=102
672720 On ch=1 n=c6 v=102
672840 Off ch=1 n=c6 v=80
672840 Off ch=1 n=c5 v=80
672840 On ch=1 n=a#4 v=102
672840 On ch=1 n=a#5 v=102
672960 Off ch=1 n=a#5 v=80
672960 Off ch=1 n=a#4 v=80
672960 On ch=1 n=a4 v=102
672960 On ch=1 n=a5 v=102
673080 Off ch=1 n=a5 v=80
673080 Off ch=1 n=a4 v=80
673080 On ch=1 n=a#4 v=102
673080 On ch=1 n=a#5 v=102
673200 Off ch=1 n=a#5 v=80
673200 Off ch=1 n=a#4 v=80
673200 On ch=1 n=a4 v=102
673200 On ch=1 n=a5 v=102
673320 Off ch=1 n=a5 v=80
673320 Off ch=1 n=a4 v=80
673320 On ch=1 n=g4 v=102
673320 On ch=1 n=g5 v=102
673440 Off ch=1 n=g5 v=80
673440 Off ch=1 n=g4 v=80
673440 On ch=1 n=f#4 v=102
673440 On ch=1 n=f#5 v=102
673560 Off ch=1 n=f#5 v=80
673560 Off ch=1 n=f#4 v=80
673560 On ch=1 n=g5 v=102
673560 On ch=1 n=g4 v=102
673680 Off ch=1 n=g4 v=80
673680 Off ch=1 n=g5 v=80
673680 On ch=1 n=f#4 v=102
673680 On ch=1 n=f#5 v=102
673800 Off ch=1 n=f#5 v=80
673800 Off ch=1 n=f#4 v=80
673800 On ch=1 n=e4 v=102
673800 On ch=1 n=e5 v=102
673920 Off ch=1 n=e5 v=80
673920 Off ch=1 n=e4 v=80
673920 On ch=1 n=d5 v=102
673920 On ch=1 n=d4 v=102
674040 Off ch=1 n=d4 v=80
674040 Off ch=1 n=d5 v=80
674040 On ch=1 n=d#5 v=102
674040 On ch=1 n=d#4 v=102
674160 Off ch=1 n=d#4 v=80
674160 Off ch=1 n=d#5 v=80
674160 On ch=1 n=d5 v=102
674160 On ch=1 n=d4 v=102
674280 Off ch=1 n=d4 v=80
674280 Off ch=1 n=d5 v=80
674280 On ch=1 n=c5 v=102
674280 On ch=1 n=c4 v=102
674400 Off ch=1 n=c4 v=80
674400 Off ch=1 n=c5 v=80
674400 On ch=1 n=a#4 v=102
674400 On ch=1 n=a#3 v=102
674520 Off ch=1 n=a#3 v=80
674520 Off ch=1 n=a#4 v=80
674520 On ch=1 n=c4 v=102
674520 On ch=1 n=c5 v=102
674640 Off ch=1 n=c5 v=80
674640 Off ch=1 n=c4 v=80
674640 On ch=1 n=a#3 v=102
674640 On ch=1 n=a#4 v=102
674760 Off ch=1 n=a#4 v=80
674760 Off ch=1 n=a#3 v=80
674760 On ch=1 n=a4 v=102
674760 On ch=1 n=a3 v=102
674880 Off ch=1 n=a3 v=80
674880 Off ch=1 n=a4 v=80
674880 On ch=1 n=g4 v=102
674880 On ch=1 n=g3 v=102
675000 Off ch=1 n=g3 v=80
675000 Off ch=1 n=g4 v=80
675000 On ch=1 n=a4 v=102
675000 On ch=1 n=a3 v=102
675120 Off ch=1 n=a3 v=80
675120 Off ch=1 n=a4 v=80
675120 On ch=1 n=g3 v=102
675120 On ch=1 n=g4 v=102
675240 Off ch=1 n=g4 v=80
675240 Off ch=1 n=g3 v=80
675240 On ch=1 n=f3 v=102
675240 On ch=1 n=f4 v=102
675360 Off ch=1 n=f4 v=80
675360 Off ch=1 n=f3 v=80
675360 On ch=1 n=g4 v=127
675360 On ch=1 n=d#5 v=127
675480 Off ch=1 n=d#5 v=80
675480 On ch=1 n=f5 v=114
675600 Off ch=1 n=f5 v=80
675600 On ch=1 n=d#5 v=114
675720 Off ch=1 n=d#5 v=80
675720 On ch=1 n=d5 v=114
675840 Off ch=1 n=g4 v=80
675840 Off ch=1 n=d5 v=80
675840 On ch=1 n=c5 v=114
675960 Off ch=1 n=c5 v=80
675960 On ch=1 n=d5 v=114
676080 Off ch=1 n=d5 v=80
676080 On ch=1 n=c5 v=114
676200 Off ch=1 n=c5 v=80
676200 On ch=1 n=a#4 v=114
676320 Off ch=1 n=a#4 v=80
676320 On ch=1 n=g#4 v=114
676440 Off ch=1 n=g#4 v=80
676440 On ch=1 n=a#4 v=114
676560 Off ch=1 n=a#4 v=80
676560 On ch=1 n=g#4 v=114
676680 On ch=1 n=d5 v=114
676680 On ch=1 n=g#5 v=114
676800 Off ch=1 n=g#5 v=80
676800 Off ch=1 n=d5 v=80
676800 Off ch=1 n=g#4 v=80
676800 On ch=1 n=g5 v=114
676800 On ch=1 n=d#5 v=114
676800 On ch=1 n=g4 v=114
677280 Off ch=1 n=g4 v=80
677280 Off ch=1 n=d#5 v=80
677280 Off ch=1 n=g5 v=80
677280 On ch=1 n=g4 v=114
677280 On ch=1 n=d#5 v=114
677400 Off ch=1 n=d#5 v=80
677400 On ch=1 n=f5 v=114
677520 Off ch=1 n=f5 v=80
677520 On ch=1 n=d#5 v=114
677640 Off ch=1 n=d#5 v=80
677640 On ch=1 n=d5 v=114
677760 Off ch=1 n=g4 v=80
677760 Off ch=1 n=d5 v=80
677760 On ch=1 n=c5 v=114
677880 Off ch=1 n=c5 v=80
677880 On ch=1 n=d5 v=114
678000 Off ch=1 n=d5 v=80
678000 On ch=1 n=c5 v=114
678120 Off ch=1 n=c5 v=80
678120 On ch=1 n=a#4 v=114
678240 Off ch=1 n=a#4 v=80
678240 On ch=1 n=g#4 v=114
678360 Off ch=1 n=g#4 v=80
678360 On ch=1 n=a#4 v=114
678480 Off ch=1 n=a#4 v=80
678480 On ch=1 n=g#4 v=114
678600 On ch=1 n=d5 v=114
678600 On ch=1 n=g#5 v=114
678720 Off ch=1 n=g#5 v=80
678720 Off ch=1 n=d5 v=80
678720 Off ch=1 n=g#4 v=80
678720 On ch=1 n=g5 v=114
678720 On ch=1 n=d#5 v=114
678720 On ch=1 n=g4 v=114
679200 Off ch=1 n=g4 v=80
679200 Off ch=1 n=d#5 v=80
679200 Off ch=1 n=g5 v=80
679200 On ch=1 n=g5 v=127
679200 On ch=1 n=d#6 v=127
679320 Off ch=1 n=d#6 v=80
679320 On ch=1 n=f6 v=114
679440 Off ch=1 n=f6 v=80
679440 On ch=1 n=d#6 v=114
679560 Off ch=1 n=d#6 v=80
679560 On ch=1 n=d6 v=114
679680 Off ch=1 n=g5 v=80
679680 Off ch=1 n=d6 v=80
679680 On ch=1 n=c6 v=114
679800 Off ch=1 n=c6 v=80
679800 On ch=1 n=d6 v=114
679920 Off ch=1 n=d6 v=80
679920 On ch=1 n=c6 v=114
680040 Off ch=1 n=c6 v=80
680040 On ch=1 n=a#5 v=114
680160 Off ch=1 n=a#5 v=80
680160 On ch=1 n=a5 v=114
680280 Off ch=1 n=a5 v=80
680280 On ch=1 n=a#5 v=114
680400 Off ch=1 n=a#5 v=80
680400 On ch=1 n=a5 v=114
680520 Off ch=1 n=a5 v=80
680520 On ch=1 n=g5 v=114
680640 Off ch=1 n=g5 v=80
680640 On ch=1 n=f5 v=114
680760 Off ch=1 n=f5 v=80
680760 On ch=1 n=g5 v=114
680880 Off ch=1 n=g5 v=80
680880 On ch=1 n=f5 v=114
681000 Off ch=1 n=f5 v=80
681000 On ch=1 n=e5 v=114
681120 Off ch=1 n=e5 v=80
681120 On ch=1 n=g4 v=127
681120 On ch=1 n=d#5 v=127
681240 Off ch=1 n=d#5 v=80
681240 On ch=1 n=f5 v=114
681360 Off ch=1 n=f5 v=80
681360 On ch=1 n=d#5 v=114
681480 Off ch=1 n=d#5 v=80
681480 On ch=1 n=d5 v=114
681600 Off ch=1 n=g4 v=80
681600 Off ch=1 n=d5 v=80
681600 On ch=1 n=c5 v=106
681720 Off ch=1 n=c5 v=80
681720 On ch=1 n=d5 v=106
681840 Off ch=1 n=d5 v=80
681840 On ch=1 n=c5 v=98
681960 Off ch=1 n=c5 v=80
681960 On ch=1 n=a#4 v=98
682080 Off ch=1 n=a#4 v=80
682080 On ch=1 n=a4 v=90
682200 Off ch=1 n=a4 v=80
682200 On ch=1 n=a#4 v=90
682320 Off ch=1 n=a#4 v=80
682320 On ch=1 n=a4 v=82
682440 Off ch=1 n=a4 v=80
682440 On ch=1 n=g4 v=82
682560 Off ch=1 n=g4 v=80
682560 On ch=1 n=f4 v=74
682680 Off ch=1 n=f4 v=80
682680 On ch=1 n=g4 v=74
682800 Off ch=1 n=g4 v=80
682800 On ch=1 n=f4 v=66
682920 Off ch=1 n=f4 v=80
682920 On ch=1 n=d#4 v=66
683040 Off ch=1 n=d#4 v=80
683040 On ch=1 n=a#5 v=83
683040 On ch=1 n=f5 v=83
683160 Off ch=1 n=f5 v=80
683160 On ch=1 n=g5 v=65
683280 Off ch=1 n=g5 v=80
683280 On ch=1 n=f5 v=65
683400 Off ch=1 n=f5 v=80
683400 On ch=1 n=d#5 v=65
683520 Off ch=1 n=d#5 v=80
683520 On ch=1 n=d5 v=65
683640 Off ch=1 n=d5 v=80
683640 On ch=1 n=d#5 v=65
683760 Off ch=1 n=a#5 v=80
683760 Off ch=1 n=d#5 v=80
683760 On ch=1 n=d5 v=65
683880 Off ch=1 n=d5 v=80
683880 On ch=1 n=c5 v=65
684000 Off ch=1 n=c5 v=80
684000 On ch=1 n=a#4 v=65
684120 Off ch=1 n=a#4 v=80
684120 On ch=1 n=c5 v=65
684240 Off ch=1 n=c5 v=80
684240 On ch=1 n=a#4 v=65
684360 Off ch=1 n=a#4 v=80
684360 On ch=1 n=a4 v=65
684360 On ch=1 n=d#5 v=65
684480 Off ch=1 n=d#5 v=80
684480 Off ch=1 n=a4 v=80
684480 On ch=1 n=a#4 v=65
684480 On ch=1 n=d5 v=65
684960 Off ch=1 n=d5 v=80
684960 Off ch=1 n=a#4 v=80
684960 On ch=1 n=f5 v=83
684960 On ch=1 n=a#5 v=83
685080 Off ch=1 n=f5 v=80
685080 On ch=1 n=g5 v=65
685200 Off ch=1 n=g5 v=80
685200 On ch=1 n=f5 v=65
685320 Off ch=1 n=f5 v=80
685320 On ch=1 n=d#5 v=65
685440 Off ch=1 n=d#5 v=80
685440 On ch=1 n=d5 v=65
685560 Off ch=1 n=d5 v=80
685560 On ch=1 n=d#5 v=65
685680 Off ch=1 n=a#5 v=80
685680 Off ch=1 n=d#5 v=80
685680 On ch=1 n=d5 v=65
685800 Off ch=1 n=d5 v=80
685800 On ch=1 n=c5 v=65
685920 Off ch=1 n=c5 v=80
685920 On ch=1 n=a#4 v=65
686040 Off ch=1 n=a#4 v=80
686040 On ch=1 n=c5 v=65
686160 Off ch=1 n=c5 v=80
686160 On ch=1 n=a#4 v=65
686280 Off ch=1 n=a#4 v=80
686280 On ch=1 n=a4 v=65
686280 On ch=1 n=d#5 v=65
686400 Off ch=1 n=d#5 v=80
686400 Off ch=1 n=a4 v=80
686400 On ch=1 n=d5 v=65
686400 On ch=1 n=a#4 v=65
686880 Off ch=1 n=a#4 v=80
686880 Off ch=1 n=d5 v=80
686880 On ch=1 n=a#5 v=83
686880 On ch=1 n=f5 v=83
687000 Off ch=1 n=f5 v=80
687000 On ch=1 n=g5 v=65
687120 Off ch=1 n=g5 v=80
687120 On ch=1 n=f5 v=65
687240 Off ch=1 n=f5 v=80
687240 On ch=1 n=d#5 v=65
687360 Off ch=1 n=d#5 v=80
687360 On ch=1 n=d5 v=65
687480 Off ch=1 n=d5 v=80
687480 On ch=1 n=d#5 v=65
687600 Off ch=1 n=a#5 v=80
687600 Off ch=1 n=d#5 v=80
687600 On ch=1 n=d5 v=65
687720 Off ch=1 n=d5 v=80
687720 On ch=1 n=c5 v=65
687840 Off ch=1 n=c5 v=80
687840 On ch=1 n=a#4 v=65
687960 Off ch=1 n=a#4 v=80
687960 On ch=1 n=c5 v=65
688080 Off ch=1 n=c5 v=80
688080 On ch=1 n=a#4 v=65
688200 Off ch=1 n=a#4 v=80
688200 On ch=1 n=d#5 v=65
688200 On ch=1 n=f4 v=65
688320 Off ch=1 n=f4 v=80
688320 Off ch=1 n=d#5 v=80
688320 On ch=1 n=d5 v=65
688320 On ch=1 n=a#4 v=65
688800 Off ch=1 n=a#4 v=80
688800 Off ch=1 n=d5 v=80
688800 On ch=1 n=a#5 v=83
688800 On ch=1 n=f5 v=83
688920 Off ch=1 n=f5 v=80
688920 On ch=1 n=g5 v=65
689040 Off ch=1 n=g5 v=80
689040 On ch=1 n=f5 v=65
689160 Off ch=1 n=f5 v=80
689160 On ch=1 n=d#5 v=65
689280 Off ch=1 n=d#5 v=80
689280 On ch=1 n=d5 v=65
689400 Off ch=1 n=d5 v=80
689400 On ch=1 n=d#5 v=65
689520 Off ch=1 n=a#5 v=80
689520 Off ch=1 n=d#5 v=80
689520 On ch=1 n=d5 v=65
689640 Off ch=1 n=d5 v=80
689640 On ch=1 n=c5 v=65
689760 Off ch=1 n=c5 v=80
689760 On ch=1 n=a#4 v=65
689880 Off ch=1 n=a#4 v=80
689880 On ch=1 n=c5 v=65
690000 Off ch=1 n=c5 v=80
690000 On ch=1 n=a#4 v=65
690120 Off ch=1 n=a#4 v=80
690120 On ch=1 n=d#5 v=65
690120 On ch=1 n=f4 v=65
690240 Off ch=1 n=f4 v=80
690240 Off ch=1 n=d#5 v=80
690240 On ch=1 n=d5 v=65
690480 Off ch=1 n=d5 v=80
690720 On ch=1 n=f5 v=65
690720 On ch=1 n=d5 v=65
690840 Off ch=1 n=d5 v=80
690840 On ch=1 n=d#5 v=65
690960 Off ch=1 n=d#5 v=80
690960 On ch=1 n=d5 v=65
691080 Off ch=1 n=d5 v=80
691080 On ch=1 n=c5 v=65
691200 Off ch=1 n=c5 v=80
691200 On ch=1 n=d5 v=65
691320 Off ch=1 n=d5 v=80
691320 On ch=1 n=d#5 v=65
691440 Off ch=1 n=d#5 v=80
691440 On ch=1 n=d5 v=65
691560 Off ch=1 n=d5 v=80
691560 On ch=1 n=c5 v=65
691680 Off ch=1 n=c5 v=80
691680 On ch=1 n=d5 v=65
691800 Off ch=1 n=d5 v=80
691800 On ch=1 n=d#5 v=65
691920 Off ch=1 n=d#5 v=80
691920 On ch=1 n=d5 v=65
692040 Off ch=1 n=f5 v=80
692040 Off ch=1 n=d5 v=80
692040 On ch=1 n=f5 v=65
692040 On ch=1 n=c5 v=65
692160 Off ch=1 n=c5 v=80
692160 Off ch=1 n=f5 v=80
692160 On ch=1 n=d5 v=65
692160 On ch=1 n=f5 v=65
692280 Off ch=1 n=d5 v=80
692280 On ch=1 n=d#5 v=65
692400 Off ch=1 n=f5 v=80
692400 Off ch=1 n=d#5 v=80
692400 On ch=1 n=d5 v=65
692520 Off ch=1 n=d5 v=80
692520 On ch=1 n=c5 v=65
692640 Off ch=1 n=c5 v=80
692640 On ch=1 n=d5 v=53
692640 On ch=1 n=f5 v=53
692760 Off ch=1 n=d5 v=80
692760 On ch=1 n=d#5 v=53
692880 Off ch=1 n=d#5 v=80
692880 On ch=1 n=d5 v=53
693000 Off ch=1 n=d5 v=80
693000 On ch=1 n=c5 v=53
693120 Off ch=1 n=c5 v=80
693120 On ch=1 n=d5 v=53
693240 Off ch=1 n=d5 v=80
693240 On ch=1 n=d#5 v=53
693360 Off ch=1 n=d#5 v=80
693360 On ch=1 n=d5 v=53
693480 Off ch=1 n=d5 v=80
693480 On ch=1 n=c5 v=53
693600 Off ch=1 n=c5 v=80
693600 On ch=1 n=d5 v=53
693720 Off ch=1 n=d5 v=80
693720 On ch=1 n=d#5 v=53
693840 Off ch=1 n=d#5 v=80
693840 On ch=1 n=d5 v=53
693960 Off ch=1 n=f5 v=80
693960 Off ch=1 n=d5 v=80
693960 On ch=1 n=c5 v=53
693960 On ch=1 n=f5 v=53
694080 Off ch=1 n=f5 v=80
694080 Off ch=1 n=c5 v=80
694080 On ch=1 n=d5 v=53
694080 On ch=1 n=f5 v=53
694200 Off ch=1 n=d5 v=80
694200 On ch=1 n=d#5 v=53
694320 Off ch=1 n=f5 v=80
694320 Off ch=1 n=d#5 v=80
694320 On ch=1 n=d5 v=53
694440 Off ch=1 n=d5 v=80
694440 On ch=1 n=c5 v=53
694560 Off ch=1 n=c5 v=80
694560 On ch=1 n=d5 v=53
694560 On ch=1 n=f5 v=53
694680 Off ch=1 n=d5 v=80
694680 On ch=1 n=d#5 v=53
694800 Off ch=1 n=d#5 v=80
694800 On ch=1 n=d5 v=53
694920 Off ch=1 n=d5 v=80
694920 On ch=1 n=c5 v=53
695040 Off ch=1 n=c5 v=80
695040 On ch=1 n=d5 v=53
695136 Off ch=1 n=d5 v=80
695136 On ch=1 n=d#5 v=53
695232 Off ch=1 n=d#5 v=80
695232 On ch=1 n=d5 v=53
695328 Off ch=1 n=d5 v=80
695328 On ch=1 n=c5 v=53
695424 Off ch=1 n=c5 v=80
695424 On ch=1 n=d5 v=53
695520 Off ch=1 n=d5 v=80
695520 On ch=1 n=d#5 v=53
695760 Off ch=1 n=d#5 v=80
695760 On ch=1 n=c5 v=53
695880 Off ch=1 n=f5 v=80
695880 On ch=1 n=f5 v=53
696000 Off ch=1 n=c5 v=80
696000 On ch=1 n=a#4 v=90
696360 Off ch=1 n=a#4 v=80
696360 On ch=1 n=c5 v=96
696480 Off ch=1 n=f5 v=80
696480 Off ch=1 n=c5 v=80
696480 On ch=1 n=d5 v=102
696600 Off ch=1 n=d5 v=80
696720 On ch=1 n=d#5 v=108
696840 Off ch=1 n=d#5 v=80
696960 On ch=1 n=f5 v=99
697200 Off ch=1 n=f5 v=80
697200 On ch=1 n=a#5 v=91
697440 Off ch=1 n=a#5 v=80
697440 On ch=1 n=a5 v=82
697440 On ch=1 n=d#5 v=82
697680 Off ch=1 n=d#5 v=80
697680 Off ch=1 n=a5 v=80
697680 On ch=1 n=a#5 v=73
697680 On ch=1 n=d5 v=73
697920 Off ch=1 n=d5 v=80
697920 Off ch=1 n=a#5 v=80
697920 On ch=1 n=a#6 v=65
698400 Off ch=1 n=a#6 v=80
698400 On ch=1 n=a6 v=65
698400 On ch=1 n=a5 v=65
698400 On ch=1 n=c#5 v=65
698640 Off ch=1 n=c#5 v=80
698640 Off ch=1 n=a5 v=80
698640 Off ch=1 n=a6 v=80
698640 On ch=1 n=g6 v=65
698640 On ch=1 n=d5 v=65
698640 On ch=1 n=a#5 v=65
698880 Off ch=1 n=a#5 v=80
698880 Off ch=1 n=d5 v=80
698880 Off ch=1 n=g6 v=80
698880 On ch=1 n=f#6 v=65
698880 On ch=1 n=c6 v=65
698880 On ch=1 n=d#5 v=65
699360 Off ch=1 n=d#5 v=80
699360 Off ch=1 n=c6 v=80
699360 Off ch=1 n=f#6 v=80
699360 On ch=1 n=g6 v=65
699360 On ch=1 n=a#5 v=65
699360 On ch=1 n=d5 v=65
699600 Off ch=1 n=d5 v=80
699600 Off ch=1 n=a#5 v=80
699600 Off ch=1 n=g6 v=80
699600 On ch=1 n=a6 v=65
699600 On ch=1 n=a5 v=65
699600 On ch=1 n=c5 v=65
699840 Off ch=1 n=c5 v=80
699840 Off ch=1 n=a5 v=80
699840 Off ch=1 n=a6 v=80
699840 On ch=1 n=d6 v=65
700320 On ch=1 n=f#5 v=65
700560 Off ch=1 n=f#5 v=80
700560 On ch=1 n=g5 v=65
700800 Off ch=1 n=d6 v=80
700800 Off ch=1 n=g5 v=80
700800 On ch=1 n=a#5 v=65
701280 Off ch=1 n=a#5 v=80
701280 On ch=1 n=a5 v=65
701520 Off ch=1 n=a5 v=80
701520 On ch=1 n=g5 v=65
701640 On ch=1 n=d6 v=65
701760 Off ch=1 n=d6 v=80
701760 Off ch=1 n=g5 v=80
701760 On ch=1 n=d6 v=65
702240 On ch=1 n=f5 v=65
702480 Off ch=1 n=f5 v=80
702480 Off ch=1 n=d6 v=80
702480 On ch=1 n=a5 v=65
702480 On ch=1 n=f#5 v=65
702720 Off ch=1 n=a5 v=80
702720 On ch=1 n=f#6 v=65
703200 Off ch=1 n=f#5 v=80
703200 On ch=1 n=a5 v=65
703440 Off ch=1 n=f#6 v=80
703440 Off ch=1 n=a5 v=80
703440 On ch=1 n=g5 v=65
703440 On ch=1 n=e6 v=65
703680 Off ch=1 n=e6 v=80
703680 Off ch=1 n=g5 v=80
703680 On ch=1 n=d6 v=65
704160 On ch=1 n=f5 v=71
704400 Off ch=1 n=f5 v=80
704400 On ch=1 n=f#5 v=77
704640 Off ch=1 n=d6 v=80
704640 Off ch=1 n=f#5 v=80
704640 On ch=1 n=c6 v=83
705120 Off ch=1 n=c6 v=80
705120 On ch=1 n=a#5 v=77
705360 Off ch=1 n=a#5 v=80
705360 On ch=1 n=d6 v=71
705360 On ch=1 n=a5 v=71
705600 Off ch=1 n=a5 v=80
705600 Off ch=1 n=d6 v=80
705600 On ch=1 n=c7 v=65
705840 Off ch=1 n=c7 v=80
705840 On ch=1 n=a#6 v=65
706080 Off ch=1 n=a#6 v=80
706080 On ch=1 n=c#5 v=65
706080 On ch=1 n=a5 v=65
706080 On ch=1 n=a6 v=71
706320 Off ch=1 n=a5 v=80
706320 Off ch=1 n=c#5 v=80
706320 On ch=1 n=d5 v=65
706320 On ch=1 n=a#5 v=65
706440 Off ch=1 n=a6 v=80
706440 On ch=1 n=g6 v=71
706560 Off ch=1 n=d5 v=80
706560 Off ch=1 n=a#5 v=80
706560 Off ch=1 n=g6 v=80
706560 On ch=1 n=e5 v=71
706560 On ch=1 n=c#6 v=71
706560 On ch=1 n=g6 v=77
706800 Off ch=1 n=g6 v=80
706800 Off ch=1 n=c#6 v=80
706800 Off ch=1 n=e5 v=80
706800 On ch=1 n=f#6 v=77
706800 On ch=1 n=d#5 v=71
706800 On ch=1 n=c6 v=71
707040 Off ch=1 n=c6 v=80
707040 Off ch=1 n=d#5 v=80
707040 Off ch=1 n=f#6 v=80
707040 On ch=1 n=d5 v=77
707040 On ch=1 n=a#5 v=77
707040 On ch=1 n=g6 v=83
707280 Off ch=1 n=g6 v=80
707280 Off ch=1 n=a#5 v=80
707280 Off ch=1 n=d5 v=80
707280 On ch=1 n=a6 v=83
707280 On ch=1 n=a5 v=77
707280 On ch=1 n=c5 v=77
707520 Off ch=1 n=c5 v=80
707520 Off ch=1 n=a5 v=80
707520 Off ch=1 n=a6 v=80
707520 On ch=1 n=d6 v=90
708000 On ch=1 n=f#5 v=90
708240 Off ch=1 n=f#5 v=80
708240 On ch=1 n=g5 v=90
708480 Off ch=1 n=d6 v=80
708480 Off ch=1 n=g5 v=80
708480 On ch=1 n=a#5 v=90
708960 Off ch=1 n=a#5 v=80
708960 On ch=1 n=a5 v=90
709200 Off ch=1 n=a5 v=80
709200 On ch=1 n=g5 v=102
709200 On ch=1 n=d6 v=102
709440 Off ch=1 n=d6 v=80
709440 Off ch=1 n=g5 v=80
709440 On ch=1 n=g6 v=117
709680 Off ch=1 n=g6 v=80
709680 On ch=1 n=d6 v=102
709920 Off ch=1 n=d6 v=80
709920 On ch=1 n=a#5 v=102
709920 On ch=1 n=g5 v=102
710160 Off ch=1 n=g5 v=80
710160 On ch=1 n=d5 v=102
710280 Off ch=1 n=a#5 v=80
710280 On ch=1 n=c6 v=102
710400 Off ch=1 n=d5 v=80
710400 Off ch=1 n=c6 v=80
710400 On ch=1 n=d6 v=102
710400 On ch=1 n=g5 v=102
710640 Off ch=1 n=g5 v=80
710640 On ch=1 n=a5 v=102
710880 Off ch=1 n=d6 v=80
710880 Off ch=1 n=a5 v=80
710880 On ch=1 n=a#5 v=102
710880 On ch=1 n=f#5 v=102
711120 Off ch=1 n=a#5 v=80
711120 On ch=1 n=a5 v=102
711360 Off ch=1 n=f#5 v=80
711360 Off ch=1 n=a5 v=80
711360 On ch=1 n=g5 v=102
711840 On ch=1 n=a#4 v=102
712200 Off ch=1 n=a#4 v=80
712200 On ch=1 n=c5 v=102
712320 Off ch=1 n=g5 v=80
712320 Off ch=1 n=c5 v=80
712320 On ch=1 n=d5 v=102
712800 Off ch=1 n=d5 v=80
712800 On ch=1 n=g5 v=90
713040 Off ch=1 n=g5 v=80
713040 On ch=1 n=f#5 v=90
713280 Off ch=1 n=f#5 v=80
713280 On ch=1 n=f5 v=90
713520 On ch=1 n=f4 v=90
713760 Off ch=1 n=f4 v=80
713760 On ch=1 n=c5 v=90
714000 Off ch=1 n=c5 v=80
714000 On ch=1 n=d#5 v=90
714240 Off ch=1 n=f5 v=80
714240 Off ch=1 n=d#5 v=80
714240 On ch=1 n=f5 v=96
714480 On ch=1 n=d#6 v=96
714720 Off ch=1 n=d#6 v=80
714720 On ch=1 n=d6 v=102
714960 Off ch=1 n=d6 v=80
714960 On ch=1 n=c6 v=102
715200 Off ch=1 n=f5 v=80
715200 Off ch=1 n=c6 v=80
715200 On ch=1 n=a#5 v=123
715440 On ch=1 n=g5 v=108
715680 Off ch=1 n=g5 v=80
715680 On ch=1 n=f5 v=108
715920 Off ch=1 n=f5 v=80
715920 On ch=1 n=e5 v=108
716160 Off ch=1 n=a#5 v=80
716160 Off ch=1 n=e5 v=80
716160 On ch=1 n=d#5 v=108
716160 On ch=1 n=a5 v=108
716640 Off ch=1 n=a5 v=80
716640 Off ch=1 n=d#5 v=80
716640 On ch=1 n=a5 v=90
716880 Off ch=1 n=a5 v=80
716880 On ch=1 n=g#5 v=90
717120 Off ch=1 n=g#5 v=80
717120 On ch=1 n=g5 v=90
717360 On ch=1 n=b4 v=90
717600 Off ch=1 n=b4 v=80
717600 On ch=1 n=d5 v=90
717840 Off ch=1 n=d5 v=80
717840 On ch=1 n=f5 v=90
718080 Off ch=1 n=g5 v=80
718080 Off ch=1 n=f5 v=80
718080 On ch=1 n=g5 v=96
718320 On ch=1 n=f6 v=96
718560 Off ch=1 n=f6 v=80
718560 On ch=1 n=d#6 v=102
718800 Off ch=1 n=d#6 v=80
718800 On ch=1 n=d6 v=102
719040 Off ch=1 n=g5 v=80
719040 Off ch=1 n=d6 v=80
719040 On ch=1 n=c6 v=123
719280 On ch=1 n=g#5 v=108
719520 Off ch=1 n=g#5 v=80
719520 On ch=1 n=g5 v=108
719760 Off ch=1 n=g5 v=80
719760 On ch=1 n=f#5 v=108
720000 Off ch=1 n=c6 v=80
720000 Off ch=1 n=f#5 v=80
720000 On ch=1 n=f5 v=108
720000 On ch=1 n=b5 v=108
720480 Off ch=1 n=b5 v=80
720480 Off ch=1 n=f5 v=80
720480 On ch=1 n=d6 v=65
720480 On ch=1 n=f#5 v=65
720720 Off ch=1 n=f#5 v=80
720720 Off ch=1 n=d6 v=80
720720 On ch=1 n=g5 v=65
720720 On ch=1 n=d#6 v=65
720960 Off ch=1 n=d#6 v=80
720960 Off ch=1 n=g5 v=80
720960 On ch=1 n=d#6 v=65
720960 On ch=1 n=d#7 v=65
721440 Off ch=1 n=d#7 v=80
721440 Off ch=1 n=d#6 v=80
721440 On ch=1 n=d6 v=65
721440 On ch=1 n=d7 v=65
721680 Off ch=1 n=d7 v=80
721680 Off ch=1 n=d6 v=80
721680 On ch=1 n=c6 v=65
721680 On ch=1 n=c7 v=65
721920 Off ch=1 n=c7 v=80
721920 Off ch=1 n=c6 v=80
721920 On ch=1 n=c6 v=65
721920 On ch=1 n=c7 v=65
722160 Off ch=1 n=c7 v=80
722160 Off ch=1 n=c6 v=80
722160 On ch=1 n=b5 v=65
722160 On ch=1 n=b6 v=65
722400 Off ch=1 n=b6 v=80
722400 Off ch=1 n=b5 v=80
722400 On ch=1 n=c6 v=65
722400 On ch=1 n=c7 v=65
722640 Off ch=1 n=c7 v=80
722640 Off ch=1 n=c6 v=80
722640 On ch=1 n=d6 v=65
722640 On ch=1 n=d7 v=65
722880 Off ch=1 n=d7 v=80
722880 Off ch=1 n=d6 v=80
722880 On ch=1 n=g6 v=65
722880 On ch=1 n=g5 v=65
724320 Off ch=1 n=g5 v=80
724320 Off ch=1 n=g6 v=80
724320 On ch=1 n=b5 v=65
724320 On ch=1 n=d5 v=65
724560 Off ch=1 n=d5 v=80
724560 Off ch=1 n=b5 v=80
724560 On ch=1 n=c6 v=65
724560 On ch=1 n=d#5 v=65
724800 Off ch=1 n=d#5 v=80
724800 Off ch=1 n=c6 v=80
724800 On ch=1 n=d7 v=65
724800 On ch=1 n=d6 v=65
725280 Off ch=1 n=d6 v=80
725280 Off ch=1 n=d7 v=80
725280 On ch=1 n=c7 v=65
725280 On ch=1 n=c6 v=65
725520 Off ch=1 n=c6 v=80
725520 Off ch=1 n=c7 v=80
725520 On ch=1 n=a#6 v=65
725520 On ch=1 n=a#5 v=65
725760 Off ch=1 n=a#5 v=80
725760 Off ch=1 n=a#6 v=80
725760 On ch=1 n=a6 v=65
725760 On ch=1 n=a5 v=65
726240 Off ch=1 n=a5 v=80
726240 Off ch=1 n=a6 v=80
726240 On ch=1 n=g5 v=65
726240 On ch=1 n=g6 v=65
726720 Off ch=1 n=g6 v=80
726720 Off ch=1 n=g5 v=80
726720 On ch=1 n=f5 v=65
726720 On ch=1 n=f6 v=65
726960 Off ch=1 n=f6 v=80
726960 Off ch=1 n=f5 v=80
726960 On ch=1 n=e5 v=65
726960 On ch=1 n=e6 v=65
727200 Off ch=1 n=e6 v=80
727200 Off ch=1 n=e5 v=80
727200 On ch=1 n=d#5 v=65
727200 On ch=1 n=d#6 v=65
727440 Off ch=1 n=d#6 v=80
727440 Off ch=1 n=d#5 v=80
727440 On ch=1 n=d5 v=65
727440 On ch=1 n=d6 v=65
727680 Off ch=1 n=d6 v=80
727680 Off ch=1 n=d5 v=80
727680 On ch=1 n=c#6 v=71
727680 On ch=1 n=e5 v=71
727920 Off ch=1 n=e5 v=80
727920 Off ch=1 n=c#6 v=80
727920 On ch=1 n=f5 v=77
727920 On ch=1 n=c6 v=77
728160 Off ch=1 n=c6 v=80
728160 Off ch=1 n=f5 v=80
728160 On ch=1 n=a#5 v=83
728400 Off ch=1 n=a#5 v=80
728400 On ch=1 n=f#5 v=86
728400 On ch=1 n=a5 v=86
728640 Off ch=1 n=a5 v=80
728640 Off ch=1 n=f#5 v=80
728640 On ch=1 n=a#6 v=65
729120 Off ch=1 n=a#6 v=80
729120 On ch=1 n=a6 v=65
729120 On ch=1 n=a5 v=65
729120 On ch=1 n=c#5 v=65
729360 Off ch=1 n=c#5 v=80
729360 Off ch=1 n=a5 v=80
729360 Off ch=1 n=a6 v=80
729360 On ch=1 n=g6 v=65
729360 On ch=1 n=d5 v=65
729360 On ch=1 n=a#5 v=65
729600 Off ch=1 n=a#5 v=80
729600 Off ch=1 n=d5 v=80
729600 Off ch=1 n=g6 v=80
729600 On ch=1 n=f#6 v=65
729600 On ch=1 n=c6 v=65
729600 On ch=1 n=d#5 v=65
730080 Off ch=1 n=d#5 v=80
730080 Off ch=1 n=c6 v=80
730080 Off ch=1 n=f#6 v=80
730080 On ch=1 n=g6 v=65
730080 On ch=1 n=a#5 v=65
730080 On ch=1 n=d5 v=65
730320 Off ch=1 n=d5 v=80
730320 Off ch=1 n=a#5 v=80
730320 Off ch=1 n=g6 v=80
730320 On ch=1 n=a6 v=65
730320 On ch=1 n=a5 v=65
730320 On ch=1 n=c5 v=65
730560 Off ch=1 n=c5 v=80
730560 Off ch=1 n=a5 v=80
730560 Off ch=1 n=a6 v=80
730560 On ch=1 n=d6 v=65
731040 On ch=1 n=f#5 v=65
731280 Off ch=1 n=f#5 v=80
731280 On ch=1 n=g5 v=65
731520 Off ch=1 n=d6 v=80
731520 Off ch=1 n=g5 v=80
731520 On ch=1 n=a#5 v=65
732000 Off ch=1 n=a#5 v=80
732000 On ch=1 n=a5 v=65
732240 Off ch=1 n=a5 v=80
732240 On ch=1 n=g5 v=65
732360 On ch=1 n=d6 v=65
732480 Off ch=1 n=d6 v=80
732480 Off ch=1 n=g5 v=80
732480 On ch=1 n=d6 v=65
732960 On ch=1 n=f5 v=65
733200 Off ch=1 n=f5 v=80
733200 Off ch=1 n=d6 v=80
733200 On ch=1 n=a5 v=65
733200 On ch=1 n=f#5 v=65
733440 Off ch=1 n=a5 v=80
733440 On ch=1 n=f#6 v=65
733920 Off ch=1 n=f#5 v=80
733920 On ch=1 n=a5 v=65
734160 Off ch=1 n=f#6 v=80
734160 Off ch=1 n=a5 v=80
734160 On ch=1 n=g5 v=65
734160 On ch=1 n=e6 v=65
734400 Off ch=1 n=e6 v=80
734400 Off ch=1 n=g5 v=80
734400 On ch=1 n=d6 v=65
734880 On ch=1 n=f5 v=71
735120 Off ch=1 n=f5 v=80
735120 On ch=1 n=f#5 v=77
735360 Off ch=1 n=d6 v=80
735360 Off ch=1 n=f#5 v=80
735360 On ch=1 n=c6 v=83
735840 Off ch=1 n=c6 v=80
735840 On ch=1 n=a#5 v=77
736080 Off ch=1 n=a#5 v=80
736080 On ch=1 n=d6 v=71
736080 On ch=1 n=a5 v=71
736320 Off ch=1 n=a5 v=80
736320 Off ch=1 n=d6 v=80
736320 On ch=1 n=c7 v=65
736560 Off ch=1 n=c7 v=80
736560 On ch=1 n=a#6 v=65
736800 Off ch=1 n=a#6 v=80
736800 On ch=1 n=c#5 v=65
736800 On ch=1 n=a5 v=65
736800 On ch=1 n=a6 v=71
737040 Off ch=1 n=a5 v=80
737040 Off ch=1 n=c#5 v=80
737040 On ch=1 n=d5 v=65
737040 On ch=1 n=a#5 v=65
737160 Off ch=1 n=a6 v=80
737160 On ch=1 n=g6 v=71
737280 Off ch=1 n=d5 v=80
737280 Off ch=1 n=a#5 v=80
737280 Off ch=1 n=g6 v=80
737280 On ch=1 n=e5 v=71
737280 On ch=1 n=c#6 v=71
737280 On ch=1 n=g6 v=77
737520 Off ch=1 n=g6 v=80
737520 Off ch=1 n=c#6 v=80
737520 Off ch=1 n=e5 v=80
737520 On ch=1 n=f#6 v=77
737520 On ch=1 n=d#5 v=71
737520 On ch=1 n=c6 v=71
737760 Off ch=1 n=c6 v=80
737760 Off ch=1 n=d#5 v=80
737760 Off ch=1 n=f#6 v=80
737760 On ch=1 n=d5 v=77
737760 On ch=1 n=a#5 v=77
737760 On ch=1 n=g6 v=83
738000 Off ch=1 n=g6 v=80
738000 Off ch=1 n=a#5 v=80
738000 Off ch=1 n=d5 v=80
738000 On ch=1 n=a6 v=83
738000 On ch=1 n=a5 v=77
738000 On ch=1 n=c5 v=77
738240 Off ch=1 n=c5 v=80
738240 Off ch=1 n=a5 v=80
738240 Off ch=1 n=a6 v=80
738240 On ch=1 n=d6 v=90
738720 On ch=1 n=f#5 v=90
738960 Off ch=1 n=f#5 v=80
738960 On ch=1 n=g5 v=90
739200 Off ch=1 n=d6 v=80
739200 Off ch=1 n=g5 v=80
739200 On ch=1 n=a#5 v=90
739680 Off ch=1 n=a#5 v=80
739680 On ch=1 n=a5 v=90
739920 Off ch=1 n=a5 v=80
739920 On ch=1 n=g5 v=102
739920 On ch=1 n=d6 v=102
740160 Off ch=1 n=d6 v=80
740160 Off ch=1 n=g5 v=80
740160 On ch=1 n=g6 v=117
740400 Off ch=1 n=g6 v=80
740400 On ch=1 n=d6 v=102
740640 Off ch=1 n=d6 v=80
740640 On ch=1 n=a#5 v=102
740640 On ch=1 n=g5 v=102
740880 Off ch=1 n=g5 v=80
740880 On ch=1 n=d5 v=102
741000 Off ch=1 n=a#5 v=80
741000 On ch=1 n=c6 v=102
741120 Off ch=1 n=d5 v=80
741120 Off ch=1 n=c6 v=80
741120 On ch=1 n=d6 v=102
741120 On ch=1 n=g5 v=102
741360 Off ch=1 n=g5 v=80
741360 On ch=1 n=a5 v=102
741600 Off ch=1 n=d6 v=80
741600 Off ch=1 n=a5 v=80
741600 On ch=1 n=a#5 v=102
741600 On ch=1 n=f#5 v=102
741840 Off ch=1 n=a#5 v=80
741840 On ch=1 n=a5 v=102
742080 Off ch=1 n=f#5 v=80
742080 Off ch=1 n=a5 v=80
742080 On ch=1 n=g5 v=102
742560 On ch=1 n=a#4 v=102
742920 Off ch=1 n=a#4 v=80
742920 On ch=1 n=c5 v=102
743040 Off ch=1 n=g5 v=80
743040 Off ch=1 n=c5 v=80
743040 On ch=1 n=d5 v=102
743520 Off ch=1 n=d5 v=80
743520 On ch=1 n=c6 v=53
743760 Off ch=1 n=c6 v=80
743760 On ch=1 n=a#5 v=53
744000 Off ch=1 n=a#5 v=80
744000 On ch=1 n=g#5 v=53
744240 On ch=1 n=d#5 v=53
744480 Off ch=1 n=d#5 v=80
744480 On ch=1 n=c5 v=53
744720 Off ch=1 n=c5 v=80
744720 On ch=1 n=d#5 v=53
744960 Off ch=1 n=g#5 v=80
744960 Off ch=1 n=d#5 v=80
744960 On ch=1 n=g#5 v=57
745200 On ch=1 n=c6 v=57
745440 Off ch=1 n=c6 v=80
745440 On ch=1 n=d#6 v=61
745680 Off ch=1 n=d#6 v=80
745680 On ch=1 n=c6 v=61
745920 Off ch=1 n=g#5 v=80
745920 Off ch=1 n=c6 v=80
745920 On ch=1 n=g#5 v=65
746400 Off ch=1 n=g#5 v=80
746400 On ch=1 n=g5 v=53
746880 Off ch=1 n=g5 v=80
746880 On ch=1 n=f#5 v=61
747360 On ch=1 n=c5 v=57
747840 Off ch=1 n=c5 v=80
747840 Off ch=1 n=f#5 v=80
747840 On ch=1 n=g5 v=53
747840 On ch=1 n=a#4 v=53
748800 Off ch=1 n=a#4 v=80
748800 Off ch=1 n=g5 v=80
749520 On ch=1 n=f5 v=65
749520 On ch=1 n=f4 v=65
750000 On ch=1 n=c5 v=65
750240 Off ch=1 n=c5 v=80
750240 On ch=1 n=a#4 v=65
750480 Off ch=1 n=f4 v=80
750480 Off ch=1 n=f5 v=80
750480 On ch=1 n=a#5 v=65
750720 Off ch=1 n=a#4 v=80
750720 Off ch=1 n=a#5 v=80
750720 On ch=1 n=a5 v=65
750720 On ch=1 n=a4 v=65
750960 On ch=1 n=g5 v=65
751200 Off ch=1 n=g5 v=80
751200 On ch=1 n=f5 v=65
751440 Off ch=1 n=a4 v=80
751440 Off ch=1 n=a5 v=80
751440 On ch=1 n=c6 v=65
751440 On ch=1 n=c5 v=65
751680 Off ch=1 n=c5 v=80
751680 Off ch=1 n=f5 v=80
751680 Off ch=1 n=c6 v=80
751680 On ch=1 n=a#5 v=65
751680 On ch=1 n=a#4 v=65
751920 On ch=1 n=g5 v=65
752160 Off ch=1 n=g5 v=80
752160 On ch=1 n=f5 v=65
752400 Off ch=1 n=a#4 v=80
752400 Off ch=1 n=a#5 v=80
752400 Off ch=1 n=f5 v=80
752400 On ch=1 n=g5 v=65
752400 On ch=1 n=g6 v=65
752640 Off ch=1 n=g6 v=80
752640 Off ch=1 n=g5 v=80
752640 On ch=1 n=f6 v=65
752640 On ch=1 n=f5 v=65
752880 Off ch=1 n=f5 v=80
752880 Off ch=1 n=f6 v=80
752880 On ch=1 n=d5 v=65
752880 On ch=1 n=d6 v=65
753120 Off ch=1 n=d6 v=80
753120 Off ch=1 n=d5 v=80
753120 On ch=1 n=a#5 v=65
753120 On ch=1 n=a#4 v=65
753360 Off ch=1 n=a#4 v=80
753360 Off ch=1 n=a#5 v=80
753360 On ch=1 n=b4 v=65
753360 On ch=1 n=b5 v=65
753600 Off ch=1 n=b5 v=80
753600 Off ch=1 n=b4 v=80
753600 On ch=1 n=c6 v=65
753600 On ch=1 n=c5 v=65
753840 On ch=1 n=g#5 v=65
754080 Off ch=1 n=g#5 v=80
754080 On ch=1 n=g5 v=65
754320 Off ch=1 n=c5 v=80
754320 Off ch=1 n=c6 v=80
754320 On ch=1 n=c6 v=65
754320 On ch=1 n=c5 v=65
754560 Off ch=1 n=c5 v=80
754560 Off ch=1 n=g5 v=80
754560 Off ch=1 n=c6 v=80
754560 On ch=1 n=d6 v=65
754560 On ch=1 n=d5 v=65
754800 On ch=1 n=g#5 v=71
755040 Off ch=1 n=g#5 v=80
755040 On ch=1 n=g5 v=77
755280 Off ch=1 n=d5 v=80
755280 Off ch=1 n=d6 v=80
755280 On ch=1 n=d6 v=83
755280 On ch=1 n=d5 v=83
755520 Off ch=1 n=d5 v=80
755520 Off ch=1 n=g5 v=80
755520 Off ch=1 n=d6 v=80
755520 On ch=1 n=f5 v=90
755520 On ch=1 n=f6 v=90
755760 On ch=1 n=b5 v=83
756000 Off ch=1 n=b5 v=80
756000 On ch=1 n=c6 v=77
756240 Off ch=1 n=c6 v=80
756240 On ch=1 n=d6 v=71
756480 Off ch=1 n=f6 v=80
756480 Off ch=1 n=f5 v=80
756480 Off ch=1 n=d6 v=80
756480 On ch=1 n=d#6 v=65
756480 On ch=1 n=d#5 v=65
756600 Off ch=1 n=d#5 v=80
756600 Off ch=1 n=d#6 v=80
756720 On ch=1 n=e6 v=65
756720 On ch=1 n=e5 v=65
756840 Off ch=1 n=e5 v=80
756840 Off ch=1 n=e6 v=80
756960 On ch=1 n=f6 v=65
756960 On ch=1 n=f5 v=65
757080 Off ch=1 n=f5 v=80
757080 Off ch=1 n=f6 v=80
757200 On ch=1 n=f6 v=65
757200 On ch=1 n=a5 v=65
757320 Off ch=1 n=a5 v=80
757320 Off ch=1 n=f6 v=80
757440 On ch=1 n=f5 v=65
757440 On ch=1 n=f6 v=65
757680 On ch=1 n=c6 v=65
757920 Off ch=1 n=c6 v=80
757920 On ch=1 n=a#5 v=65
758160 Off ch=1 n=f6 v=80
758160 Off ch=1 n=f5 v=80
758160 On ch=1 n=a#6 v=65
758400 Off ch=1 n=a#5 v=80
758400 Off ch=1 n=a#6 v=80
758400 On ch=1 n=a5 v=65
758400 On ch=1 n=a6 v=65
758640 On ch=1 n=g6 v=65
758880 Off ch=1 n=g6 v=80
758880 On ch=1 n=f6 v=65
759120 Off ch=1 n=a6 v=80
759120 Off ch=1 n=a5 v=80
759120 On ch=1 n=c6 v=65
759120 On ch=1 n=c7 v=65
759360 Off ch=1 n=c7 v=80
759360 Off ch=1 n=f6 v=80
759360 Off ch=1 n=c6 v=80
759360 On ch=1 n=a#6 v=65
759360 On ch=1 n=a#5 v=65
759600 On ch=1 n=g6 v=65
759840 Off ch=1 n=g6 v=80
759840 On ch=1 n=f6 v=65
760080 Off ch=1 n=a#5 v=80
760080 Off ch=1 n=a#6 v=80
760080 Off ch=1 n=f6 v=80
760080 On ch=1 n=g7 v=65
760080 On ch=1 n=g6 v=65
760320 Off ch=1 n=g6 v=80
760320 Off ch=1 n=g7 v=80
760320 On ch=1 n=f7 v=65
760320 On ch=1 n=f6 v=65
760560 Off ch=1 n=f6 v=80
760560 Off ch=1 n=f7 v=80
760560 On ch=1 n=d6 v=65
760560 On ch=1 n=d7 v=65
760800 Off ch=1 n=d7 v=80
760800 Off ch=1 n=d6 v=80
760800 On ch=1 n=a#6 v=65
760800 On ch=1 n=a#5 v=65
761040 Off ch=1 n=a#5 v=80
761040 Off ch=1 n=a#6 v=80
761040 On ch=1 n=b5 v=65
761040 On ch=1 n=b6 v=65
761280 Off ch=1 n=b6 v=80
761280 Off ch=1 n=b5 v=80
761280 On ch=1 n=c7 v=65
761280 On ch=1 n=c6 v=65
761520 On ch=1 n=g#6 v=65
761760 Off ch=1 n=g#6 v=80
761760 On ch=1 n=g6 v=65
762000 Off ch=1 n=c6 v=80
762000 Off ch=1 n=c7 v=80
762000 On ch=1 n=c7 v=65
762000 On ch=1 n=c6 v=65
762240 Off ch=1 n=c6 v=80
762240 Off ch=1 n=g6 v=80
762240 Off ch=1 n=c7 v=80
762240 On ch=1 n=c#7 v=65
762240 On ch=1 n=c#6 v=65
762480 On ch=1 n=a6 v=71
762720 Off ch=1 n=a6 v=80
762720 On ch=1 n=g6 v=77
762960 Off ch=1 n=c#6 v=80
762960 Off ch=1 n=c#7 v=80
762960 On ch=1 n=a#5 v=83
762960 On ch=1 n=a#6 v=83
763200 Off ch=1 n=g6 v=80
763200 Off ch=1 n=a#5 v=80
763440 Off ch=1 n=a#6 v=80
763440 On ch=1 n=a6 v=65
763680 Off ch=1 n=a6 v=80
763680 On ch=1 n=g6 v=65
763680 On ch=1 n=a5 v=65
763680 On ch=1 n=d#5 v=65
763680 On ch=1 n=c5 v=65
763920 Off ch=1 n=g6 v=80
763920 On ch=1 n=d#6 v=65
764160 Off ch=1 n=d#6 v=80
764160 On ch=1 n=c6 v=65
764400 Off ch=1 n=c6 v=80
764400 On ch=1 n=a5 v=65
764640 Off ch=1 n=a5 v=80
764640 Off ch=1 n=d#5 v=80
764640 Off ch=1 n=c5 v=80
764640 Off ch=1 n=a5 v=80
764640 On ch=1 n=f5 v=65
764880 On ch=1 n=f4 v=65
765360 On ch=1 n=c5 v=65
765600 Off ch=1 n=c5 v=80
765600 On ch=1 n=a#4 v=65
765840 Off ch=1 n=f4 v=80
765840 Off ch=1 n=f5 v=80
765840 On ch=1 n=a#5 v=65
766080 Off ch=1 n=a#4 v=80
766080 Off ch=1 n=a#5 v=80
766080 On ch=1 n=a5 v=65
766080 On ch=1 n=a4 v=65
766320 On ch=1 n=g5 v=65
766560 Off ch=1 n=g5 v=80
766560 On ch=1 n=f5 v=65
766800 Off ch=1 n=a4 v=80
766800 Off ch=1 n=a5 v=80
766800 On ch=1 n=c6 v=65
766800 On ch=1 n=c5 v=65
767040 Off ch=1 n=c5 v=80
767040 Off ch=1 n=f5 v=80
767040 Off ch=1 n=c6 v=80
767040 On ch=1 n=a#5 v=65
767040 On ch=1 n=a#4 v=65
767280 On ch=1 n=g5 v=65
767520 Off ch=1 n=g5 v=80
767520 On ch=1 n=f5 v=65
767760 Off ch=1 n=a#4 v=80
767760 Off ch=1 n=a#5 v=80
767760 Off ch=1 n=f5 v=80
767760 On ch=1 n=g5 v=65
767760 On ch=1 n=g6 v=65
768000 Off ch=1 n=g6 v=80
768000 Off ch=1 n=g5 v=80
768000 On ch=1 n=f6 v=65
768000 On ch=1 n=f5 v=65
768240 Off ch=1 n=f5 v=80
768240 Off ch=1 n=f6 v=80
768240 On ch=1 n=d5 v=65
768240 On ch=1 n=d6 v=65
768480 Off ch=1 n=d6 v=80
768480 Off ch=1 n=d5 v=80
768480 On ch=1 n=a#5 v=65
768480 On ch=1 n=a#4 v=65
768720 Off ch=1 n=a#4 v=80
768720 Off ch=1 n=a#5 v=80
768720 On ch=1 n=b4 v=65
768720 On ch=1 n=b5 v=65
768960 Off ch=1 n=b5 v=80
768960 Off ch=1 n=b4 v=80
768960 On ch=1 n=c6 v=65
768960 On ch=1 n=c5 v=65
769200 On ch=1 n=g#5 v=65
769440 Off ch=1 n=g#5 v=80
769440 On ch=1 n=g5 v=65
769680 Off ch=1 n=c5 v=80
769680 Off ch=1 n=c6 v=80
769680 On ch=1 n=c6 v=65
769680 On ch=1 n=c5 v=65
769920 Off ch=1 n=c5 v=80
769920 Off ch=1 n=g5 v=80
769920 Off ch=1 n=c6 v=80
769920 On ch=1 n=d6 v=65
769920 On ch=1 n=d5 v=65
770160 On ch=1 n=g#5 v=71
770400 Off ch=1 n=g#5 v=80
770400 On ch=1 n=g5 v=77
770640 Off ch=1 n=d5 v=80
770640 Off ch=1 n=d6 v=80
770640 On ch=1 n=d6 v=83
770640 On ch=1 n=d5 v=83
770880 Off ch=1 n=d5 v=80
770880 Off ch=1 n=g5 v=80
770880 Off ch=1 n=d6 v=80
770880 On ch=1 n=f5 v=90
770880 On ch=1 n=f6 v=90
771120 On ch=1 n=b5 v=83
771360 Off ch=1 n=b5 v=80
771360 On ch=1 n=c6 v=77
771600 Off ch=1 n=c6 v=80
771600 On ch=1 n=d6 v=71
771840 Off ch=1 n=f6 v=80
771840 Off ch=1 n=f5 v=80
771840 Off ch=1 n=d6 v=80
771840 On ch=1 n=d#6 v=65
771840 On ch=1 n=d#5 v=65
771960 Off ch=1 n=d#5 v=80
771960 Off ch=1 n=d#6 v=80
772080 On ch=1 n=e6 v=65
772080 On ch=1 n=e5 v=65
772200 Off ch=1 n=e5 v=80
772200 Off ch=1 n=e6 v=80
772320 On ch=1 n=f6 v=65
772320 On ch=1 n=f5 v=65
772440 Off ch=1 n=f5 v=80
772440 Off ch=1 n=f6 v=80
772560 On ch=1 n=f6 v=65
772560 On ch=1 n=a5 v=65
772680 Off ch=1 n=a5 v=80
772680 Off ch=1 n=f6 v=80
772800 On ch=1 n=f5 v=65
772800 On ch=1 n=f6 v=65
773040 On ch=1 n=c6 v=65
773280 Off ch=1 n=c6 v=80
773280 On ch=1 n=a#5 v=65
773520 Off ch=1 n=f6 v=80
773520 Off ch=1 n=f5 v=80
773520 On ch=1 n=a#6 v=65
773760 Off ch=1 n=a#5 v=80
773760 Off ch=1 n=a#6 v=80
773760 On ch=1 n=a5 v=65
773760 On ch=1 n=a6 v=65
774000 On ch=1 n=g6 v=65
774240 Off ch=1 n=g6 v=80
774240 On ch=1 n=f6 v=65
774480 Off ch=1 n=a6 v=80
774480 Off ch=1 n=a5 v=80
774480 On ch=1 n=c6 v=65
774480 On ch=1 n=c7 v=65
774720 Off ch=1 n=c7 v=80
774720 Off ch=1 n=f6 v=80
774720 Off ch=1 n=c6 v=80
774720 On ch=1 n=a#6 v=65
774720 On ch=1 n=a#5 v=65
774960 On ch=1 n=g6 v=65
775200 Off ch=1 n=g6 v=80
775200 On ch=1 n=f6 v=65
775440 Off ch=1 n=a#5 v=80
775440 Off ch=1 n=a#6 v=80
775440 Off ch=1 n=f6 v=80
775440 On ch=1 n=g7 v=65
775440 On ch=1 n=g6 v=65
775680 Off ch=1 n=g6 v=80
775680 Off ch=1 n=g7 v=80
775680 On ch=1 n=f7 v=65
775680 On ch=1 n=f6 v=65
775920 Off ch=1 n=f6 v=80
775920 Off ch=1 n=f7 v=80
775920 On ch=1 n=d6 v=65
775920 On ch=1 n=d7 v=65
776160 Off ch=1 n=d7 v=80
776160 Off ch=1 n=d6 v=80
776160 On ch=1 n=a#6 v=65
776160 On ch=1 n=a#5 v=65
776400 Off ch=1 n=a#5 v=80
776400 Off ch=1 n=a#6 v=80
776400 On ch=1 n=b5 v=65
776400 On ch=1 n=b6 v=65
776640 Off ch=1 n=b6 v=80
776640 Off ch=1 n=b5 v=80
776640 On ch=1 n=c7 v=65
776640 On ch=1 n=c6 v=65
776880 On ch=1 n=g#6 v=65
777120 Off ch=1 n=g#6 v=80
777120 On ch=1 n=g6 v=65
777360 Off ch=1 n=c6 v=80
777360 Off ch=1 n=c7 v=80
777360 On ch=1 n=c7 v=65
777360 On ch=1 n=c6 v=65
777600 Off ch=1 n=c6 v=80
777600 Off ch=1 n=g6 v=80
777600 Off ch=1 n=c7 v=80
777600 On ch=1 n=c#7 v=65
777600 On ch=1 n=c#6 v=65
777840 On ch=1 n=a6 v=71
778080 Off ch=1 n=a6 v=80
778080 On ch=1 n=g6 v=77
778320 Off ch=1 n=c#6 v=80
778320 Off ch=1 n=c#7 v=80
778320 On ch=1 n=a#5 v=83
778320 On ch=1 n=a#6 v=83
778560 Off ch=1 n=g6 v=80
778560 Off ch=1 n=a#5 v=80
778800 Off ch=1 n=a#6 v=80
778800 On ch=1 n=a6 v=65
779040 Off ch=1 n=a6 v=80
779040 On ch=1 n=g6 v=65
779040 On ch=1 n=a5 v=65
779040 On ch=1 n=d#5 v=65
779040 On ch=1 n=c5 v=65
779280 Off ch=1 n=g6 v=80
779280 On ch=1 n=d#6 v=65
779520 Off ch=1 n=d#6 v=80
779520 On ch=1 n=c6 v=65
779760 Off ch=1 n=c6 v=80
779760 On ch=1 n=a5 v=65
780000 Off ch=1 n=a5 v=80
780000 Off ch=1 n=d#5 v=80
780000 Off ch=1 n=c5 v=80
780000 Off ch=1 n=a5 v=80
780000 On ch=1 n=f5 v=65
780120 Off ch=1 n=f5 v=80
780240 On ch=1 n=d5 v=102
780240 On ch=1 n=a#5 v=102
780360 Off ch=1 n=a#5 v=80
780360 Off ch=1 n=d5 v=80
780480 On ch=1 n=a5 v=102
780480 On ch=1 n=d#5 v=102
780480 On ch=1 n=c5 v=102
780660 Off ch=1 n=c5 v=80
780660 Off ch=1 n=d#5 v=80
780660 Off ch=1 n=a5 v=80
780960 On ch=1 n=g5 v=102
780960 On ch=1 n=e5 v=102
780960 On ch=1 n=a#4 v=102
781140 Off ch=1 n=a#4 v=80
781140 Off ch=1 n=e5 v=80
781140 Off ch=1 n=g5 v=80
781440 On ch=1 n=f#5 v=102
781440 On ch=1 n=d5 v=102
781440 On ch=1 n=a4 v=102
781620 Off ch=1 n=a4 v=80
781620 Off ch=1 n=d5 v=80
781620 Off ch=1 n=f#5 v=80
782160 On ch=1 n=c#5 v=102
782160 On ch=1 n=a#4 v=102
782160 On ch=1 n=g4 v=102
782340 Off ch=1 n=g4 v=80
782340 Off ch=1 n=a#4 v=80
782340 Off ch=1 n=c#5 v=80
782400 On ch=1 n=d5 v=102
782400 On ch=1 n=a4 v=102
782580 Off ch=1 n=a4 v=80
782580 Off ch=1 n=d5 v=80
782880 On ch=1 n=d#5 v=102
782880 On ch=1 n=d5 v=102
782880 On ch=1 n=a#4 v=102
783060 Off ch=1 n=a#4 v=80
783060 Off ch=1 n=d5 v=80
783060 Off ch=1 n=d#5 v=80
783360 On ch=1 n=f#5 v=102
783360 On ch=1 n=d5 v=102
783360 On ch=1 n=c5 v=102
783540 Off ch=1 n=c5 v=80
783540 Off ch=1 n=d5 v=80
783540 Off ch=1 n=f#5 v=80
784080 On ch=1 n=g5 v=102
784080 On ch=1 n=d5 v=102
784260 Off ch=1 n=d5 v=80
784260 Off ch=1 n=g5 v=80
784320 On ch=1 n=a5 v=105
784320 On ch=1 n=g5 v=105
784320 On ch=1 n=d#5 v=105
784500 Off ch=1 n=d#5 v=80
784500 Off ch=1 n=g5 v=80
784500 Off ch=1 n=a5 v=80
784800 On ch=1 n=a#5 v=105
784800 On ch=1 n=g5 v=105
784980 Off ch=1 n=g5 v=80
784980 Off ch=1 n=a#5 v=80
785280 On ch=1 n=c6 v=108
785280 On ch=1 n=a5 v=108
785280 On ch=1 n=g5 v=108
785460 Off ch=1 n=g5 v=80
785460 Off ch=1 n=a5 v=80
785460 Off ch=1 n=c6 v=80
786000 On ch=1 n=a#5 v=108
786000 On ch=1 n=g5 v=108
786180 Off ch=1 n=g5 v=80
786180 Off ch=1 n=a#5 v=80
786240 On ch=1 n=a5 v=111
786240 On ch=1 n=g5 v=111
786240 On ch=1 n=d#5 v=111
786420 Off ch=1 n=d#5 v=80
786420 Off ch=1 n=g5 v=80
786420 Off ch=1 n=a5 v=80
786720 On ch=1 n=a5 v=111
786720 On ch=1 n=g5 v=111
786720 On ch=1 n=e5 v=111
786900 Off ch=1 n=e5 v=80
786900 Off ch=1 n=g5 v=80
786900 Off ch=1 n=a5 v=80
787440 On ch=1 n=f#5 v=114
787440 On ch=1 n=a5 v=114
787620 Off ch=1 n=a5 v=80
787620 Off ch=1 n=f#5 v=80
787680 On ch=1 n=f#5 v=114
787680 On ch=1 n=a5 v=114
787680 On ch=1 n=d6 v=114
787860 Off ch=1 n=d6 v=80
787860 Off ch=1 n=a5 v=80
787860 Off ch=1 n=f#5 v=80
788400 On ch=1 n=a5 v=102
788400 On ch=1 n=d#5 v=102
788400 On ch=1 n=c5 v=102
788580 Off ch=1 n=c5 v=80
788580 Off ch=1 n=d#5 v=80
788580 Off ch=1 n=a5 v=80
788880 On ch=1 n=g5 v=102
788880 On ch=1 n=e5 v=102
788880 On ch=1 n=a#4 v=102
789060 Off ch=1 n=a#4 v=80
789060 Off ch=1 n=e5 v=80
789060 Off ch=1 n=g5 v=80
789360 On ch=1 n=f#5 v=102
789360 On ch=1 n=d5 v=102
789360 On ch=1 n=a4 v=102
789540 Off ch=1 n=a4 v=80
789540 Off ch=1 n=d5 v=80
789540 Off ch=1 n=f#5 v=80
789600 On ch=1 n=g4 v=102
789600 On ch=1 n=a#4 v=102
789600 On ch=1 n=c#5 v=102
789780 Off ch=1 n=c#5 v=80
789780 Off ch=1 n=a#4 v=80
789780 Off ch=1 n=g4 v=80
790320 On ch=1 n=a4 v=102
790320 On ch=1 n=d5 v=102
790500 Off ch=1 n=d5 v=80
790500 Off ch=1 n=a4 v=80
790800 On ch=1 n=d#5 v=102
790800 On ch=1 n=d5 v=102
790800 On ch=1 n=a#4 v=102
790980 Off ch=1 n=a#4 v=80
790980 Off ch=1 n=d5 v=80
790980 Off ch=1 n=d#5 v=80
791280 On ch=1 n=f#5 v=102
791280 On ch=1 n=d5 v=102
791280 On ch=1 n=c5 v=102
791460 Off ch=1 n=c5 v=80
791460 Off ch=1 n=d5 v=80
791460 Off ch=1 n=f#5 v=80
791520 On ch=1 n=d5 v=102
791520 On ch=1 n=g5 v=102
791700 Off ch=1 n=g5 v=80
791700 Off ch=1 n=d5 v=80
792240 On ch=1 n=d#5 v=105
792240 On ch=1 n=g5 v=105
792240 On ch=1 n=a5 v=105
792420 Off ch=1 n=a5 v=80
792420 Off ch=1 n=g5 v=80
792420 Off ch=1 n=d#5 v=80
792720 On ch=1 n=a#5 v=105
792720 On ch=1 n=g5 v=105
792900 Off ch=1 n=g5 v=80
792900 Off ch=1 n=a#5 v=80
793200 On ch=1 n=c6 v=108
793200 On ch=1 n=a5 v=108
793200 On ch=1 n=g5 v=108
793380 Off ch=1 n=g5 v=80
793380 Off ch=1 n=a5 v=80
793380 Off ch=1 n=c6 v=80
793440 On ch=1 n=g5 v=108
793440 On ch=1 n=a#5 v=108
793620 Off ch=1 n=a#5 v=80
793620 Off ch=1 n=g5 v=80
794160 On ch=1 n=d#5 v=111
794160 On ch=1 n=g5 v=111
794160 On ch=1 n=a5 v=111
794340 Off ch=1 n=a5 v=80
794340 Off ch=1 n=g5 v=80
794340 Off ch=1 n=d#5 v=80
794640 On ch=1 n=a5 v=111
794640 On ch=1 n=g5 v=111
794640 On ch=1 n=e5 v=111
794820 Off ch=1 n=e5 v=80
794820 Off ch=1 n=g5 v=80
794820 Off ch=1 n=a5 v=80
795120 On ch=1 n=a5 v=116
795120 On ch=1 n=f#5 v=116
795360 On ch=1 n=b4 v=102
795600 Off ch=1 n=b4 v=80
795600 Off ch=1 n=f#5 v=80
795600 Off ch=1 n=a5 v=80
795600 On ch=1 n=a4 v=65
795600 On ch=1 n=d#5 v=65
795600 On ch=1 n=f5 v=65
795840 Off ch=1 n=d#5 v=80
795840 Off ch=1 n=a4 v=80
795840 On ch=1 n=f4 v=65
796080 On ch=1 n=c5 v=65
796320 Off ch=1 n=c5 v=80
796320 On ch=1 n=a#4 v=65
796560 Off ch=1 n=f5 v=80
796560 Off ch=1 n=f4 v=80
796560 On ch=1 n=a#5 v=65
796800 Off ch=1 n=a#4 v=80
796800 Off ch=1 n=a#5 v=80
796800 On ch=1 n=a5 v=65
796800 On ch=1 n=a4 v=65
797040 On ch=1 n=g5 v=65
797280 Off ch=1 n=g5 v=80
797280 On ch=1 n=f5 v=65
797520 Off ch=1 n=a4 v=80
797520 Off ch=1 n=a5 v=80
797520 On ch=1 n=c6 v=65
797520 On ch=1 n=c5 v=65
797760 Off ch=1 n=c5 v=80
797760 Off ch=1 n=f5 v=80
797760 Off ch=1 n=c6 v=80
797760 On ch=1 n=a#5 v=65
797760 On ch=1 n=a#4 v=65
798000 On ch=1 n=g5 v=65
798240 Off ch=1 n=g5 v=80
798240 On ch=1 n=f5 v=65
798480 Off ch=1 n=a#4 v=80
798480 Off ch=1 n=a#5 v=80
798480 Off ch=1 n=f5 v=80
798480 On ch=1 n=g5 v=65
798480 On ch=1 n=g6 v=65
798720 Off ch=1 n=g6 v=80
798720 Off ch=1 n=g5 v=80
798720 On ch=1 n=f6 v=65
798720 On ch=1 n=f5 v=65
798960 Off ch=1 n=f5 v=80
798960 Off ch=1 n=f6 v=80
798960 On ch=1 n=d5 v=65
798960 On ch=1 n=d6 v=65
799200 Off ch=1 n=d6 v=80
799200 Off ch=1 n=d5 v=80
799200 On ch=1 n=a#5 v=65
799200 On ch=1 n=a#4 v=65
799440 Off ch=1 n=a#4 v=80
799440 Off ch=1 n=a#5 v=80
799440 On ch=1 n=b4 v=65
799440 On ch=1 n=b5 v=65
799680 Off ch=1 n=b5 v=80
799680 Off ch=1 n=b4 v=80
799680 On ch=1 n=c6 v=65
799680 On ch=1 n=c5 v=65
799920 On ch=1 n=g#5 v=65
800160 Off ch=1 n=g#5 v=80
800160 On ch=1 n=g5 v=65
800400 Off ch=1 n=c5 v=80
800400 Off ch=1 n=c6 v=80
800400 On ch=1 n=c6 v=65
800400 On ch=1 n=c5 v=65
800640 Off ch=1 n=c5 v=80
800640 Off ch=1 n=g5 v=80
800640 Off ch=1 n=c6 v=80
800640 On ch=1 n=d6 v=65
800640 On ch=1 n=d5 v=65
800880 On ch=1 n=g#5 v=71
801120 Off ch=1 n=g#5 v=80
801120 On ch=1 n=g5 v=77
801360 Off ch=1 n=d5 v=80
801360 Off ch=1 n=d6 v=80
801360 On ch=1 n=d6 v=83
801360 On ch=1 n=d5 v=83
801600 Off ch=1 n=d5 v=80
801600 Off ch=1 n=g5 v=80
801600 Off ch=1 n=d6 v=80
801600 On ch=1 n=f5 v=90
801600 On ch=1 n=f6 v=90
801840 On ch=1 n=b5 v=83
802080 Off ch=1 n=b5 v=80
802080 On ch=1 n=c6 v=77
802320 Off ch=1 n=c6 v=80
802320 On ch=1 n=d6 v=71
802560 Off ch=1 n=f6 v=80
802560 Off ch=1 n=f5 v=80
802560 Off ch=1 n=d6 v=80
802560 On ch=1 n=d#6 v=65
802560 On ch=1 n=d#5 v=65
802680 Off ch=1 n=d#5 v=80
802680 Off ch=1 n=d#6 v=80
802800 On ch=1 n=e6 v=65
802800 On ch=1 n=e5 v=65
802920 Off ch=1 n=e5 v=80
802920 Off ch=1 n=e6 v=80
803040 On ch=1 n=f6 v=65
803040 On ch=1 n=f5 v=65
803160 Off ch=1 n=f5 v=80
803160 Off ch=1 n=f6 v=80
803280 On ch=1 n=f6 v=65
803280 On ch=1 n=a5 v=65
803400 Off ch=1 n=a5 v=80
803400 Off ch=1 n=f6 v=80
803520 On ch=1 n=f5 v=65
803520 On ch=1 n=f6 v=65
803760 On ch=1 n=c6 v=65
804000 Off ch=1 n=c6 v=80
804000 On ch=1 n=a#5 v=65
804240 Off ch=1 n=f6 v=80
804240 Off ch=1 n=f5 v=80
804240 On ch=1 n=a#6 v=65
804480 Off ch=1 n=a#5 v=80
804480 Off ch=1 n=a#6 v=80
804480 On ch=1 n=a5 v=65
804480 On ch=1 n=a6 v=65
804720 On ch=1 n=g6 v=65
804960 Off ch=1 n=g6 v=80
804960 On ch=1 n=f6 v=65
805200 Off ch=1 n=a6 v=80
805200 Off ch=1 n=a5 v=80
805200 On ch=1 n=c6 v=65
805200 On ch=1 n=c7 v=65
805440 Off ch=1 n=c7 v=80
805440 Off ch=1 n=f6 v=80
805440 Off ch=1 n=c6 v=80
805440 On ch=1 n=a#6 v=65
805440 On ch=1 n=a#5 v=65
805680 On ch=1 n=g6 v=65
805920 Off ch=1 n=g6 v=80
805920 On ch=1 n=f6 v=65
806160 Off ch=1 n=a#5 v=80
806160 Off ch=1 n=a#6 v=80
806160 Off ch=1 n=f6 v=80
806160 On ch=1 n=g7 v=65
806160 On ch=1 n=g6 v=65
806400 Off ch=1 n=g6 v=80
806400 Off ch=1 n=g7 v=80
806400 On ch=1 n=f7 v=65
806400 On ch=1 n=f6 v=65
806640 Off ch=1 n=f6 v=80
806640 Off ch=1 n=f7 v=80
806640 On ch=1 n=d6 v=65
806640 On ch=1 n=d7 v=65
806880 Off ch=1 n=d7 v=80
806880 Off ch=1 n=d6 v=80
806880 On ch=1 n=a#6 v=65
806880 On ch=1 n=a#5 v=65
807120 Off ch=1 n=a#5 v=80
807120 Off ch=1 n=a#6 v=80
807120 On ch=1 n=b5 v=65
807120 On ch=1 n=b6 v=65
807360 Off ch=1 n=b6 v=80
807360 Off ch=1 n=b5 v=80
807360 On ch=1 n=c7 v=65
807360 On ch=1 n=c6 v=65
807600 On ch=1 n=g#6 v=65
807840 Off ch=1 n=g#6 v=80
807840 On ch=1 n=g6 v=65
808080 Off ch=1 n=c6 v=80
808080 Off ch=1 n=c7 v=80
808080 On ch=1 n=c7 v=65
808080 On ch=1 n=c6 v=65
808320 Off ch=1 n=c6 v=80
808320 Off ch=1 n=g6 v=80
808320 Off ch=1 n=c7 v=80
808320 On ch=1 n=c#7 v=65
808320 On ch=1 n=c#6 v=65
808560 On ch=1 n=a6 v=71
808800 Off ch=1 n=a6 v=80
808800 On ch=1 n=g6 v=77
809040 Off ch=1 n=c#6 v=80
809040 Off ch=1 n=c#7 v=80
809040 On ch=1 n=a#5 v=90
809040 On ch=1 n=a#6 v=90
809280 Off ch=1 n=g6 v=80
809280 Off ch=1 n=a#5 v=80
809520 Off ch=1 n=a#6 v=80
809520 On ch=1 n=a6 v=65
809760 Off ch=1 n=a6 v=80
809760 On ch=1 n=a5 v=84
809760 On ch=1 n=d#5 v=84
809760 On ch=1 n=c5 v=84
809760 On ch=1 n=g6 v=84
810000 Off ch=1 n=g6 v=80
810000 On ch=1 n=d#6 v=84
810240 Off ch=1 n=d#6 v=80
810240 On ch=1 n=c6 v=78
810480 Off ch=1 n=c6 v=80
810480 On ch=1 n=a5 v=78
810720 Off ch=1 n=c5 v=80
810720 Off ch=1 n=d#5 v=80
810720 Off ch=1 n=a5 v=80
810720 Off ch=1 n=a5 v=80
810720 On ch=1 n=f5 v=72
810960 Off ch=1 n=f5 v=80
810960 On ch=1 n=a5 v=65
811200 Off ch=1 n=a5 v=80
811200 On ch=1 n=c#6 v=71
811680 On ch=1 n=c#5 v=65
811920 Off ch=1 n=c#6 v=80
811920 On ch=1 n=a5 v=71
812160 Off ch=1 n=c#5 v=80
812160 Off ch=1 n=a5 v=80
812160 On ch=1 n=a#5 v=71
812640 On ch=1 n=c#5 v=65
812880 Off ch=1 n=a#5 v=80
812880 On ch=1 n=a5 v=71
813120 Off ch=1 n=c#5 v=80
813120 Off ch=1 n=a5 v=80
813120 On ch=1 n=c#6 v=71
813600 On ch=1 n=c#5 v=65
813840 Off ch=1 n=c#6 v=80
813840 On ch=1 n=a5 v=71
814080 Off ch=1 n=c#5 v=80
814080 Off ch=1 n=a5 v=80
814080 On ch=1 n=a#5 v=71
814560 On ch=1 n=c#5 v=65
814800 Off ch=1 n=a#5 v=80
814800 On ch=1 n=a#5 v=71
815040 Off ch=1 n=c#5 v=80
815040 Off ch=1 n=a#5 v=80
815040 On ch=1 n=b5 v=65
815520 On ch=1 n=f#5 v=65
815760 Off ch=1 n=b5 v=80
815760 On ch=1 n=b5 v=65
816000 Off ch=1 n=f#5 v=80
816000 Off ch=1 n=b5 v=80
816000 On ch=1 n=d#6 v=65
816480 On ch=1 n=g#5 v=65
816720 Off ch=1 n=d#6 v=80
816720 On ch=1 n=c#6 v=65
816960 Off ch=1 n=g#5 v=80
816960 Off ch=1 n=c#6 v=80
816960 On ch=1 n=b5 v=65
817200 Off ch=1 n=b5 v=80
817200 On ch=1 n=a#5 v=65
817440 Off ch=1 n=a#5 v=80
817440 On ch=1 n=g#5 v=65
817440 On ch=1 n=c#5 v=65
817680 Off ch=1 n=g#5 v=80
817680 On ch=1 n=f#5 v=65
817920 Off ch=1 n=c#5 v=80
817920 Off ch=1 n=f#5 v=80
817920 On ch=1 n=g#5 v=65
818400 On ch=1 n=c#5 v=65
818640 Off ch=1 n=g#5 v=80
818640 On ch=1 n=a5 v=53
818880 Off ch=1 n=c#5 v=80
818880 Off ch=1 n=a5 v=80
818880 On ch=1 n=c#6 v=53
819360 On ch=1 n=c#5 v=53
819600 Off ch=1 n=c#6 v=80
819600 On ch=1 n=a5 v=53
819840 Off ch=1 n=c#5 v=80
819840 Off ch=1 n=a5 v=80
819840 On ch=1 n=a#5 v=53
820320 On ch=1 n=c#5 v=53
820560 Off ch=1 n=a#5 v=80
820560 On ch=1 n=a5 v=53
820800 Off ch=1 n=c#5 v=80
820800 Off ch=1 n=a5 v=80
820800 On ch=1 n=c#6 v=53
821280 On ch=1 n=c#5 v=53
821520 Off ch=1 n=c#6 v=80
821520 On ch=1 n=a5 v=53
821760 Off ch=1 n=c#5 v=80
821760 Off ch=1 n=a5 v=80
821760 On ch=1 n=a#5 v=53
822240 On ch=1 n=c#5 v=53
822480 Off ch=1 n=a#5 v=80
822480 On ch=1 n=a#5 v=53
822720 Off ch=1 n=c#5 v=80
822720 Off ch=1 n=a#5 v=80
822720 On ch=1 n=b5 v=59
823200 On ch=1 n=d#5 v=65
823440 Off ch=1 n=b5 v=80
823440 On ch=1 n=b5 v=65
823680 Off ch=1 n=d#5 v=80
823680 Off ch=1 n=b5 v=80
823680 On ch=1 n=c6 v=71
824160 On ch=1 n=e5 v=78
824400 Off ch=1 n=c6 v=80
824400 On ch=1 n=c6 v=78
824640 Off ch=1 n=e5 v=80
824640 Off ch=1 n=c6 v=80
824640 On ch=1 n=c#6 v=78
825120 On ch=1 n=e5 v=78
825360 Off ch=1 n=c#6 v=80
825360 On ch=1 n=c6 v=96
825600 Off ch=1 n=e5 v=80
825600 On ch=1 n=f6 v=90
826080 Off ch=1 n=f6 v=80
826080 On ch=1 n=f5 v=53
826320 Off ch=1 n=c6 v=80
826320 On ch=1 n=f4 v=65
826800 On ch=1 n=c5 v=65
827040 Off ch=1 n=c5 v=80
827040 On ch=1 n=a#4 v=65
827280 Off ch=1 n=f5 v=80
827280 Off ch=1 n=f4 v=80
827280 On ch=1 n=a#5 v=65
827520 Off ch=1 n=a#4 v=80
827520 Off ch=1 n=a#5 v=80
827520 On ch=1 n=a5 v=65
827520 On ch=1 n=a4 v=65
827760 On ch=1 n=g5 v=65
828000 Off ch=1 n=g5 v=80
828000 On ch=1 n=f5 v=65
828240 Off ch=1 n=a4 v=80
828240 Off ch=1 n=a5 v=80
828240 On ch=1 n=c6 v=65
828240 On ch=1 n=c5 v=65
828480 Off ch=1 n=c5 v=80
828480 Off ch=1 n=f5 v=80
828480 Off ch=1 n=c6 v=80
828480 On ch=1 n=a#5 v=65
828480 On ch=1 n=a#4 v=65
828720 On ch=1 n=g5 v=65
828960 Off ch=1 n=g5 v=80
828960 On ch=1 n=f5 v=65
829200 Off ch=1 n=a#4 v=80
829200 Off ch=1 n=a#5 v=80
829200 Off ch=1 n=f5 v=80
829200 On ch=1 n=g5 v=65
829200 On ch=1 n=g6 v=65
829440 Off ch=1 n=g6 v=80
829440 Off ch=1 n=g5 v=80
829440 On ch=1 n=f6 v=65
829440 On ch=1 n=f5 v=65
829680 Off ch=1 n=f5 v=80
829680 Off ch=1 n=f6 v=80
829680 On ch=1 n=d5 v=65
829680 On ch=1 n=d6 v=65
829920 Off ch=1 n=d6 v=80
829920 Off ch=1 n=d5 v=80
829920 On ch=1 n=a#5 v=65
829920 On ch=1 n=a#4 v=65
830160 Off ch=1 n=a#4 v=80
830160 Off ch=1 n=a#5 v=80
830160 On ch=1 n=b4 v=65
830160 On ch=1 n=b5 v=65
830400 Off ch=1 n=b5 v=80
830400 Off ch=1 n=b4 v=80
830400 On ch=1 n=c6 v=65
830400 On ch=1 n=c5 v=65
830640 On ch=1 n=g#5 v=65
830880 Off ch=1 n=g#5 v=80
830880 On ch=1 n=g5 v=65
831120 Off ch=1 n=c5 v=80
831120 Off ch=1 n=c6 v=80
831120 On ch=1 n=c6 v=65
831120 On ch=1 n=c5 v=65
831360 Off ch=1 n=c5 v=80
831360 Off ch=1 n=g5 v=80
831360 Off ch=1 n=c6 v=80
831360 On ch=1 n=d6 v=65
831360 On ch=1 n=d5 v=65
831600 On ch=1 n=g#5 v=71
831840 Off ch=1 n=g#5 v=80
831840 On ch=1 n=g5 v=77
832080 Off ch=1 n=d5 v=80
832080 Off ch=1 n=d6 v=80
832080 On ch=1 n=d6 v=83
832080 On ch=1 n=d5 v=83
832320 Off ch=1 n=d5 v=80
832320 Off ch=1 n=g5 v=80
832320 Off ch=1 n=d6 v=80
832320 On ch=1 n=f5 v=90
832320 On ch=1 n=f6 v=90
832560 On ch=1 n=b5 v=83
832800 Off ch=1 n=b5 v=80
832800 On ch=1 n=c6 v=77
833040 Off ch=1 n=c6 v=80
833040 On ch=1 n=d6 v=71
833280 Off ch=1 n=f6 v=80
833280 Off ch=1 n=f5 v=80
833280 Off ch=1 n=d6 v=80
833280 On ch=1 n=d#6 v=65
833280 On ch=1 n=d#5 v=65
833400 Off ch=1 n=d#5 v=80
833400 Off ch=1 n=d#6 v=80
833520 On ch=1 n=e6 v=65
833520 On ch=1 n=e5 v=65
833640 Off ch=1 n=e5 v=80
833640 Off ch=1 n=e6 v=80
833760 On ch=1 n=f6 v=65
833760 On ch=1 n=f5 v=65
833880 Off ch=1 n=f5 v=80
833880 Off ch=1 n=f6 v=80
834000 On ch=1 n=f6 v=65
834000 On ch=1 n=a5 v=65
834120 Off ch=1 n=a5 v=80
834120 Off ch=1 n=f6 v=80
834240 On ch=1 n=f5 v=65
834240 On ch=1 n=f6 v=65
834480 On ch=1 n=c6 v=65
834720 Off ch=1 n=c6 v=80
834720 On ch=1 n=a#5 v=65
834960 Off ch=1 n=f6 v=80
834960 Off ch=1 n=f5 v=80
834960 On ch=1 n=a#6 v=65
835200 Off ch=1 n=a#5 v=80
835200 Off ch=1 n=a#6 v=80
835200 On ch=1 n=a5 v=65
835200 On ch=1 n=a6 v=65
835440 On ch=1 n=g6 v=65
835680 Off ch=1 n=g6 v=80
835680 On ch=1 n=f6 v=65
835920 Off ch=1 n=a6 v=80
835920 Off ch=1 n=a5 v=80
835920 On ch=1 n=c6 v=65
835920 On ch=1 n=c7 v=65
836160 Off ch=1 n=c7 v=80
836160 Off ch=1 n=f6 v=80
836160 Off ch=1 n=c6 v=80
836160 On ch=1 n=a#6 v=65
836160 On ch=1 n=a#5 v=65
836400 On ch=1 n=g6 v=65
836640 Off ch=1 n=g6 v=80
836640 On ch=1 n=f6 v=65
836880 Off ch=1 n=a#5 v=80
836880 Off ch=1 n=a#6 v=80
836880 Off ch=1 n=f6 v=80
836880 On ch=1 n=g7 v=65
836880 On ch=1 n=g6 v=65
837120 Off ch=1 n=g6 v=80
837120 Off ch=1 n=g7 v=80
837120 On ch=1 n=f7 v=65
837120 On ch=1 n=f6 v=65
837360 Off ch=1 n=f6 v=80
837360 Off ch=1 n=f7 v=80
837360 On ch=1 n=d6 v=65
837360 On ch=1 n=d7 v=65
837600 Off ch=1 n=d7 v=80
837600 Off ch=1 n=d6 v=80
837600 On ch=1 n=a#6 v=65
837600 On ch=1 n=a#5 v=65
837840 Off ch=1 n=a#5 v=80
837840 Off ch=1 n=a#6 v=80
837840 On ch=1 n=b5 v=65
837840 On ch=1 n=b6 v=65
838080 Off ch=1 n=b6 v=80
838080 Off ch=1 n=b5 v=80
838080 On ch=1 n=c7 v=65
838080 On ch=1 n=c6 v=65
838320 On ch=1 n=g#6 v=65
838560 Off ch=1 n=g#6 v=80
838560 On ch=1 n=g6 v=65
838800 Off ch=1 n=c6 v=80
838800 Off ch=1 n=c7 v=80
838800 On ch=1 n=c7 v=65
838800 On ch=1 n=c6 v=65
839040 Off ch=1 n=c6 v=80
839040 Off ch=1 n=g6 v=80
839040 Off ch=1 n=c7 v=80
839040 On ch=1 n=c#7 v=65
839040 On ch=1 n=c#6 v=65
839280 On ch=1 n=a6 v=71
839520 Off ch=1 n=a6 v=80
839520 On ch=1 n=g6 v=77
839760 Off ch=1 n=c#6 v=80
839760 Off ch=1 n=c#7 v=80
839760 On ch=1 n=a#5 v=90
839760 On ch=1 n=a#6 v=90
840000 Off ch=1 n=g6 v=80
840000 Off ch=1 n=a#5 v=80
840240 Off ch=1 n=a#6 v=80
840240 On ch=1 n=a6 v=65
840480 Off ch=1 n=a6 v=80
840480 On ch=1 n=a5 v=84
840480 On ch=1 n=d#5 v=84
840480 On ch=1 n=c5 v=84
840480 On ch=1 n=g6 v=84
840720 Off ch=1 n=g6 v=80
840720 On ch=1 n=d#6 v=84
840960 Off ch=1 n=d#6 v=80
840960 On ch=1 n=c6 v=78
841200 Off ch=1 n=c6 v=80
841200 On ch=1 n=a5 v=78
841440 Off ch=1 n=c5 v=80
841440 Off ch=1 n=d#5 v=80
841440 Off ch=1 n=a5 v=80
841440 Off ch=1 n=a5 v=80
841440 On ch=1 n=f5 v=72
841680 Off ch=1 n=f5 v=80
841680 On ch=1 n=c#6 v=65
842160 On ch=1 n=e5 v=53
842400 Off ch=1 n=e5 v=80
842640 Off ch=1 n=c#6 v=80
842640 On ch=1 n=d6 v=53
843120 On ch=1 n=f5 v=53
843360 Off ch=1 n=f5 v=80
843600 Off ch=1 n=d6 v=80
843600 On ch=1 n=b5 v=53
844080 On ch=1 n=e5 v=53
844320 Off ch=1 n=e5 v=80
844560 Off ch=1 n=b5 v=80
844560 On ch=1 n=c6 v=53
845040 On ch=1 n=d#5 v=53
845280 Off ch=1 n=d#5 v=80
845280 Off ch=1 n=c6 v=80
845280 On ch=1 n=a5 v=53
845520 Off ch=1 n=a5 v=80
845520 On ch=1 n=c#6 v=53
846000 On ch=1 n=e5 v=53
846240 Off ch=1 n=e5 v=80
846480 Off ch=1 n=c#6 v=80
846480 On ch=1 n=d6 v=53
846960 On ch=1 n=f5 v=53
847200 Off ch=1 n=f5 v=80
847440 Off ch=1 n=d6 v=80
847440 On ch=1 n=b5 v=53
847920 On ch=1 n=e5 v=53
848160 Off ch=1 n=e5 v=80
848400 Off ch=1 n=b5 v=80
848400 On ch=1 n=c6 v=53
848880 On ch=1 n=d#5 v=53
849120 Off ch=1 n=d#5 v=80
849120 Off ch=1 n=c6 v=80
849120 On ch=1 n=a5 v=53
849360 Off ch=1 n=a5 v=80
849360 On ch=1 n=c#6 v=65
849840 On ch=1 n=e5 v=53
850320 Off ch=1 n=e5 v=80
850320 Off ch=1 n=c#6 v=80
850320 On ch=1 n=d6 v=53
850800 On ch=1 n=f5 v=53
851280 Off ch=1 n=f5 v=80
851280 Off ch=1 n=d6 v=80
851280 On ch=1 n=a5 v=53
851760 On ch=1 n=c#5 v=53
852240 Off ch=1 n=c#5 v=80
852240 Off ch=1 n=a5 v=80
852240 On ch=1 n=a#5 v=53
852720 On ch=1 n=d5 v=53
853200 Off ch=1 n=d5 v=80
853200 Off ch=1 n=a#5 v=80
853200 On ch=1 n=f#5 v=53
853680 On ch=1 n=a4 v=53
854160 Off ch=1 n=a4 v=80
854160 Off ch=1 n=f#5 v=80
854160 On ch=1 n=g5 v=53
854640 On ch=1 n=a#4 v=53
855120 Off ch=1 n=a#4 v=80
855120 Off ch=1 n=g5 v=80
855120 On ch=1 n=d5 v=53
855600 On ch=1 n=f#4 v=53
856080 Off ch=1 n=f#4 v=80
856080 Off ch=1 n=d5 v=80
856080 On ch=1 n=d#5 v=53
856560 On ch=1 n=a#4 v=53
857280 On ch=1 n=f4 v=53
857760 Off ch=1 n=f4 v=80
857760 Off ch=1 n=a#4 v=80
857760 Off ch=1 n=d#5 v=80
861120 On ch=1 n=d#4 v=102
861240 On ch=1 n=g#4 v=84
861360 Off ch=1 n=g#4 v=80
861360 On ch=1 n=d#5 v=84
861480 Off ch=1 n=d#4 v=80
861480 Off ch=1 n=d#5 v=80
861480 On ch=1 n=g4 v=102
861600 Off ch=1 n=g4 v=80
861600 On ch=1 n=f#4 v=102
861720 On ch=1 n=a4 v=84
861840 Off ch=1 n=a4 v=80
861840 On ch=1 n=d5 v=84
861960 Off ch=1 n=f#4 v=80
861960 Off ch=1 n=d5 v=80
861960 On ch=1 n=d4 v=102
862080 Off ch=1 n=d4 v=80
862080 On ch=1 n=a#4 v=102
862200 On ch=1 n=d4 v=84
862320 Off ch=1 n=d4 v=80
862320 On ch=1 n=g4 v=84
862440 Off ch=1 n=a#4 v=80
862440 Off ch=1 n=g4 v=80
862440 On ch=1 n=a#4 v=84
862560 Off ch=1 n=a#4 v=80
862560 On ch=1 n=d5 v=102
862680 On ch=1 n=g5 v=84
862800 Off ch=1 n=g5 v=80
862800 On ch=1 n=a#5 v=84
862920 Off ch=1 n=a#5 v=80
862920 On ch=1 n=d6 v=84
863040 Off ch=1 n=d5 v=80
863040 Off ch=1 n=d6 v=80
863040 On ch=1 n=d#5 v=102
863160 On ch=1 n=g#5 v=84
863280 Off ch=1 n=g#5 v=80
863280 On ch=1 n=d#6 v=84
863400 Off ch=1 n=d#5 v=80
863400 Off ch=1 n=d#6 v=80
863400 On ch=1 n=g5 v=102
863520 Off ch=1 n=g5 v=80
863520 On ch=1 n=f#5 v=102
863640 On ch=1 n=a5 v=84
863760 Off ch=1 n=a5 v=80
863760 On ch=1 n=d6 v=84
863880 Off ch=1 n=f#5 v=80
863880 Off ch=1 n=d6 v=80
863880 On ch=1 n=d5 v=102
864000 Off ch=1 n=d5 v=80
864000 On ch=1 n=a#5 v=102
864120 On ch=1 n=d5 v=84
864240 Off ch=1 n=d5 v=80
864240 On ch=1 n=g5 v=84
864360 Off ch=1 n=a#5 v=80
864360 Off ch=1 n=g5 v=80
864360 On ch=1 n=a#5 v=84
864480 Off ch=1 n=a#5 v=80
864480 On ch=1 n=d6 v=102
864600 On ch=1 n=g6 v=84
864720 Off ch=1 n=g6 v=80
864720 On ch=1 n=a#6 v=84
864840 Off ch=1 n=a#6 v=80
864840 On ch=1 n=d7 v=84
864960 Off ch=1 n=d6 v=80
864960 Off ch=1 n=d7 v=80
864960 On ch=1 n=a#5 v=102
865080 On ch=1 n=d#6 v=84
865200 Off ch=1 n=d#6 v=80
865200 On ch=1 n=a#6 v=84
865320 Off ch=1 n=a#5 v=80
865320 Off ch=1 n=a#6 v=80
865320 On ch=1 n=d6 v=102
865440 Off ch=1 n=d6 v=80
865440 On ch=1 n=c#6 v=102
865560 On ch=1 n=e6 v=84
865680 Off ch=1 n=e6 v=80
865680 On ch=1 n=a6 v=84
865800 Off ch=1 n=c#6 v=80
865800 Off ch=1 n=a6 v=80
865800 On ch=1 n=a5 v=102
865920 Off ch=1 n=a5 v=80
865920 On ch=1 n=f6 v=102
866040 Off ch=1 n=f6 v=80
866040 On ch=1 n=a5 v=84
866160 Off ch=1 n=a5 v=80
866160 On ch=1 n=d6 v=84
866280 Off ch=1 n=d6 v=80
866280 On ch=1 n=f6 v=84
866400 Off ch=1 n=f6 v=80
866400 On ch=1 n=e6 v=102
866520 Off ch=1 n=e6 v=80
866520 On ch=1 n=g5 v=84
866640 Off ch=1 n=g5 v=80
866640 On ch=1 n=a#5 v=84
866760 Off ch=1 n=a#5 v=80
866760 On ch=1 n=e6 v=84
866880 Off ch=1 n=e6 v=80
866880 On ch=1 n=d6 v=102
867000 Off ch=1 n=d6 v=80
867000 On ch=1 n=f5 v=84
867120 Off ch=1 n=f5 v=80
867120 On ch=1 n=a5 v=84
867240 Off ch=1 n=a5 v=80
867240 On ch=1 n=d6 v=84
867360 Off ch=1 n=d6 v=80
867360 On ch=1 n=c#6 v=102
867480 Off ch=1 n=c#6 v=80
867480 On ch=1 n=e5 v=84
867600 Off ch=1 n=e5 v=80
867600 On ch=1 n=a5 v=84
867720 Off ch=1 n=a5 v=80
867720 On ch=1 n=c#6 v=84
867840 Off ch=1 n=c#6 v=80
867840 On ch=1 n=d6 v=102
867920 Off ch=1 n=d6 v=80
867920 On ch=1 n=a5 v=102
868000 Off ch=1 n=a5 v=80
868000 On ch=1 n=f5 v=102
868080 Off ch=1 n=f5 v=80
868080 On ch=1 n=d5 v=102
868160 Off ch=1 n=d5 v=80
868160 On ch=1 n=a4 v=102
868240 Off ch=1 n=a4 v=80
868240 On ch=1 n=f4 v=102
868320 Off ch=1 n=f4 v=80
868800 On ch=1 n=a4 v=90
868920 On ch=1 n=d5 v=72
869040 Off ch=1 n=d5 v=80
869040 On ch=1 n=f5 v=72
869160 Off ch=1 n=a4 v=80
869160 Off ch=1 n=f5 v=80
869160 On ch=1 n=g#4 v=90
869280 Off ch=1 n=g#4 v=80
869280 On ch=1 n=g5 v=90
869400 On ch=1 n=g4 v=72
869520 Off ch=1 n=g4 v=80
869520 On ch=1 n=d5 v=72
869640 Off ch=1 n=g5 v=80
869640 Off ch=1 n=d5 v=80
869640 On ch=1 n=f5 v=90
869760 Off ch=1 n=f5 v=80
869760 On ch=1 n=d#5 v=90
869880 On ch=1 n=g4 v=72
870000 Off ch=1 n=g4 v=80
870000 On ch=1 n=c5 v=72
870120 Off ch=1 n=d#5 v=80
870120 Off ch=1 n=c5 v=80
870120 On ch=1 n=d#5 v=72
870240 Off ch=1 n=d#5 v=80
870240 On ch=1 n=g5 v=90
870360 On ch=1 n=c6 v=72
870480 Off ch=1 n=c6 v=80
870480 On ch=1 n=d#6 v=72
870600 Off ch=1 n=d#6 v=80
870600 On ch=1 n=g6 v=72
870720 Off ch=1 n=g5 v=80
870720 Off ch=1 n=g6 v=80
870720 On ch=1 n=f6 v=90
870840 Off ch=1 n=f6 v=80
870840 On ch=1 n=g#5 v=72
870960 Off ch=1 n=g#5 v=80
870960 On ch=1 n=d6 v=72
871080 Off ch=1 n=d6 v=80
871080 On ch=1 n=f6 v=72
871200 Off ch=1 n=f6 v=80
871200 On ch=1 n=d6 v=90
871320 Off ch=1 n=d6 v=80
871320 On ch=1 n=g5 v=72
871440 Off ch=1 n=g5 v=80
871440 On ch=1 n=b5 v=72
871560 Off ch=1 n=b5 v=80
871560 On ch=1 n=d6 v=72
871680 Off ch=1 n=d6 v=80
871680 On ch=1 n=d#6 v=90
871800 Off ch=1 n=d#6 v=80
871800 On ch=1 n=c6 v=90
871920 Off ch=1 n=c6 v=80
871920 On ch=1 n=g5 v=90
872040 Off ch=1 n=g5 v=80
872040 On ch=1 n=d#5 v=90
872160 Off ch=1 n=d#5 v=80
872160 On ch=1 n=c5 v=90
872640 Off ch=1 n=c5 v=80
872640 On ch=1 n=c5 v=90
872760 On ch=1 n=d#5 v=72
872880 Off ch=1 n=d#5 v=80
872880 On ch=1 n=g5 v=72
873000 Off ch=1 n=c5 v=80
873000 Off ch=1 n=g5 v=80
873000 On ch=1 n=a#4 v=90
873120 Off ch=1 n=a#4 v=80
873120 On ch=1 n=a5 v=90
873240 On ch=1 n=a4 v=72
873360 Off ch=1 n=a4 v=80
873360 On ch=1 n=d#5 v=72
873480 Off ch=1 n=a5 v=80
873480 Off ch=1 n=d#5 v=80
873480 On ch=1 n=g5 v=90
873600 Off ch=1 n=g5 v=80
873600 On ch=1 n=d5 v=95
873720 On ch=1 n=f5 v=77
873840 Off ch=1 n=f5 v=80
873840 On ch=1 n=a5 v=77
873960 Off ch=1 n=d5 v=80
873960 Off ch=1 n=a5 v=80
873960 On ch=1 n=c5 v=95
874080 Off ch=1 n=c5 v=80
874080 On ch=1 n=a#5 v=100
874200 On ch=1 n=a#4 v=82
874320 Off ch=1 n=a#4 v=80
874320 On ch=1 n=f5 v=82
874440 Off ch=1 n=a#5 v=80
874440 Off ch=1 n=f5 v=80
874440 On ch=1 n=a5 v=100
874560 Off ch=1 n=a5 v=80
874560 On ch=1 n=d#5 v=105
874680 On ch=1 n=g5 v=87
874800 Off ch=1 n=g5 v=80
874800 On ch=1 n=a#5 v=87
874920 Off ch=1 n=d#5 v=80
874920 Off ch=1 n=a#5 v=80
874920 On ch=1 n=d5 v=105
875040 Off ch=1 n=d5 v=80
875040 On ch=1 n=c6 v=110
875160 On ch=1 n=c5 v=92
875280 Off ch=1 n=c5 v=80
875280 On ch=1 n=g5 v=92
875400 Off ch=1 n=c6 v=80
875400 Off ch=1 n=g5 v=80
875400 On ch=1 n=a#5 v=110
875520 Off ch=1 n=a#5 v=80
875520 On ch=1 n=a5 v=114
875640 Off ch=1 n=a5 v=80
875640 On ch=1 n=f5 v=114
875760 Off ch=1 n=f5 v=80
875760 On ch=1 n=c5 v=114
875880 Off ch=1 n=c5 v=80
875880 On ch=1 n=a4 v=114
876000 Off ch=1 n=a4 v=80
876000 On ch=1 n=f4 v=114
876120 Off ch=1 n=f4 v=80
876480 On ch=1 n=a#4 v=53
876600 On ch=1 n=d5 v=35
876720 Off ch=1 n=d5 v=80
876720 On ch=1 n=f5 v=35
876840 Off ch=1 n=a#4 v=80
876840 Off ch=1 n=f5 v=80
876840 On ch=1 n=a4 v=53
876960 Off ch=1 n=a4 v=80
876960 On ch=1 n=g5 v=53
877080 On ch=1 n=g4 v=35
877200 Off ch=1 n=g4 v=80
877200 On ch=1 n=d5 v=35
877320 Off ch=1 n=g5 v=80
877320 Off ch=1 n=d5 v=80
877320 On ch=1 n=f5 v=53
877440 Off ch=1 n=f5 v=80
877440 On ch=1 n=g4 v=53
877560 On ch=1 n=c5 v=35
877680 Off ch=1 n=c5 v=80
877680 On ch=1 n=d#5 v=35
877800 Off ch=1 n=g4 v=80
877800 Off ch=1 n=d#5 v=80
877800 On ch=1 n=f#4 v=53
877920 Off ch=1 n=f#4 v=80
877920 On ch=1 n=f5 v=53
878040 On ch=1 n=f4 v=35
878160 Off ch=1 n=f4 v=80
878160 On ch=1 n=c5 v=35
878280 Off ch=1 n=f5 v=80
878280 Off ch=1 n=c5 v=80
878280 On ch=1 n=d#5 v=53
878400 Off ch=1 n=d#5 v=80
878400 On ch=1 n=a#4 v=53
878520 On ch=1 n=d5 v=35
878640 Off ch=1 n=d5 v=80
878640 On ch=1 n=f5 v=35
878760 Off ch=1 n=a#4 v=80
878760 Off ch=1 n=f5 v=80
878760 On ch=1 n=a4 v=53
878880 Off ch=1 n=a4 v=80
878880 On ch=1 n=g5 v=53
879000 On ch=1 n=g4 v=35
879120 Off ch=1 n=g4 v=80
879120 On ch=1 n=d5 v=35
879240 Off ch=1 n=g5 v=80
879240 Off ch=1 n=d5 v=80
879240 On ch=1 n=f5 v=53
879360 Off ch=1 n=f5 v=80
879360 On ch=1 n=g4 v=53
879480 On ch=1 n=c5 v=35
879600 Off ch=1 n=c5 v=80
879600 On ch=1 n=d#5 v=35
879720 Off ch=1 n=g4 v=80
879720 Off ch=1 n=d#5 v=80
879720 On ch=1 n=f#4 v=53
879840 Off ch=1 n=f#4 v=80
879840 On ch=1 n=f5 v=53
879960 On ch=1 n=f4 v=35
880080 Off ch=1 n=f4 v=80
880080 On ch=1 n=c5 v=35
880200 Off ch=1 n=f5 v=80
880200 Off ch=1 n=c5 v=80
880200 On ch=1 n=d#5 v=53
880320 Off ch=1 n=d#5 v=80
880320 On ch=1 n=a#4 v=53
880440 On ch=1 n=d5 v=35
880560 Off ch=1 n=d5 v=80
880560 On ch=1 n=f5 v=35
880680 Off ch=1 n=a#4 v=80
880680 Off ch=1 n=f5 v=80
880680 On ch=1 n=a4 v=53
880800 Off ch=1 n=a4 v=80
880800 On ch=1 n=g5 v=53
880920 On ch=1 n=g4 v=35
881040 Off ch=1 n=g4 v=80
881040 On ch=1 n=d5 v=35
881160 Off ch=1 n=g5 v=80
881160 Off ch=1 n=d5 v=80
881160 On ch=1 n=f5 v=53
881280 Off ch=1 n=f5 v=80
881280 On ch=1 n=c5 v=53
881400 On ch=1 n=d#5 v=35
881520 Off ch=1 n=d#5 v=80
881520 On ch=1 n=g5 v=35
881640 Off ch=1 n=c5 v=80
881640 Off ch=1 n=g5 v=80
881640 On ch=1 n=a#4 v=53
881760 Off ch=1 n=a#4 v=80
881760 On ch=1 n=a5 v=57
881880 On ch=1 n=a4 v=39
882000 Off ch=1 n=a4 v=80
882000 On ch=1 n=d#5 v=39
882120 Off ch=1 n=a5 v=80
882120 Off ch=1 n=d#5 v=80
882120 On ch=1 n=g5 v=57
882240 Off ch=1 n=g5 v=80
882240 On ch=1 n=d5 v=61
882360 On ch=1 n=f5 v=43
882480 Off ch=1 n=f5 v=80
882480 On ch=1 n=a5 v=43
882600 Off ch=1 n=d5 v=80
882600 Off ch=1 n=a5 v=80
882600 On ch=1 n=c5 v=61
882720 Off ch=1 n=c5 v=80
882720 On ch=1 n=a#5 v=65
882840 On ch=1 n=a#4 v=47
882960 Off ch=1 n=a#4 v=80
882960 On ch=1 n=f5 v=47
883080 Off ch=1 n=a#5 v=80
883080 Off ch=1 n=f5 v=80
883080 On ch=1 n=a5 v=65
883200 Off ch=1 n=a5 v=80
883200 On ch=1 n=d#5 v=69
883320 On ch=1 n=g5 v=51
883440 Off ch=1 n=g5 v=80
883440 On ch=1 n=a#5 v=51
883560 Off ch=1 n=d#5 v=80
883560 Off ch=1 n=a#5 v=80
883560 On ch=1 n=d5 v=69
883680 Off ch=1 n=d5 v=80
883680 On ch=1 n=c6 v=73
883800 On ch=1 n=c5 v=55
883920 Off ch=1 n=c5 v=80
883920 On ch=1 n=g5 v=55
884040 Off ch=1 n=c6 v=80
884040 Off ch=1 n=g5 v=80
884040 On ch=1 n=a#5 v=73
884160 Off ch=1 n=a#5 v=80
884160 On ch=1 n=f5 v=78
884280 On ch=1 n=a5 v=60
884400 Off ch=1 n=a5 v=80
884400 On ch=1 n=c6 v=60
884520 Off ch=1 n=f5 v=80
884520 Off ch=1 n=c6 v=80
884520 On ch=1 n=e5 v=78
884640 Off ch=1 n=e5 v=80
884640 On ch=1 n=d6 v=78
884760 On ch=1 n=d5 v=60
884880 Off ch=1 n=d5 v=80
884880 On ch=1 n=a5 v=60
885000 Off ch=1 n=d6 v=80
885000 Off ch=1 n=a5 v=80
885000 On ch=1 n=c6 v=78
885120 Off ch=1 n=c6 v=80
885120 On ch=1 n=d5 v=78
885240 On ch=1 n=g5 v=60
885360 Off ch=1 n=g5 v=80
885360 On ch=1 n=a#5 v=60
885480 Off ch=1 n=d5 v=80
885480 Off ch=1 n=a#5 v=80
885480 On ch=1 n=c#5 v=78
885600 Off ch=1 n=c#5 v=80
885600 On ch=1 n=c6 v=86
885720 On ch=1 n=c5 v=68
885840 Off ch=1 n=c5 v=80
885840 On ch=1 n=g5 v=76
885960 Off ch=1 n=c6 v=80
885960 Off ch=1 n=g5 v=80
885960 On ch=1 n=a#5 v=94
886080 Off ch=1 n=a#5 v=80
886080 On ch=1 n=f5 v=102
886200 On ch=1 n=a5 v=84
886320 Off ch=1 n=a5 v=80
886320 On ch=1 n=c6 v=84
886440 Off ch=1 n=f5 v=80
886440 Off ch=1 n=c6 v=80
886440 On ch=1 n=e5 v=102
886560 Off ch=1 n=e5 v=80
886560 On ch=1 n=d6 v=102
886680 On ch=1 n=d5 v=84
886800 Off ch=1 n=d5 v=80
886800 On ch=1 n=a5 v=84
886920 Off ch=1 n=d6 v=80
886920 Off ch=1 n=a5 v=80
886920 On ch=1 n=c6 v=102
887040 Off ch=1 n=c6 v=80
887040 On ch=1 n=d5 v=102
887160 On ch=1 n=g5 v=84
887280 Off ch=1 n=g5 v=80
887280 On ch=1 n=a#5 v=84
887400 Off ch=1 n=d5 v=80
887400 Off ch=1 n=a#5 v=80
887400 On ch=1 n=c#5 v=102
887520 Off ch=1 n=c#5 v=80
887520 On ch=1 n=c6 v=102
887640 On ch=1 n=c5 v=84
887760 Off ch=1 n=c5 v=80
887760 On ch=1 n=g5 v=84
887880 Off ch=1 n=c6 v=80
887880 Off ch=1 n=g5 v=80
887880 On ch=1 n=a#5 v=102
888000 Off ch=1 n=a#5 v=80
888000 On ch=1 n=c5 v=98
888120 On ch=1 n=f5 v=80
888240 Off ch=1 n=f5 v=80
888240 On ch=1 n=a5 v=75
888360 Off ch=1 n=c5 v=80
888360 Off ch=1 n=a5 v=80
888360 On ch=1 n=c5 v=93
888480 Off ch=1 n=c5 v=80
888480 On ch=1 n=a#5 v=88
888600 On ch=1 n=a#4 v=70
888720 Off ch=1 n=a#4 v=80
888720 On ch=1 n=f5 v=65
888840 Off ch=1 n=a#5 v=80
888840 Off ch=1 n=f5 v=80
888840 On ch=1 n=a#5 v=78
888960 Off ch=1 n=a#5 v=80
888960 On ch=1 n=c5 v=78
889080 Off ch=1 n=c5 v=80
889080 On ch=1 n=f5 v=60
889200 Off ch=1 n=f5 v=80
889200 On ch=1 n=a5 v=60
889320 Off ch=1 n=a5 v=80
889320 On ch=1 n=b4 v=78
889440 Off ch=1 n=b4 v=80
889440 On ch=1 n=a#4 v=78
889560 Off ch=1 n=a#4 v=80
889560 On ch=1 n=e5 v=60
889680 Off ch=1 n=e5 v=80
889680 On ch=1 n=g5 v=60
889800 Off ch=1 n=g5 v=80
889800 On ch=1 n=g4 v=78
889920 Off ch=1 n=g4 v=80
889920 On ch=1 n=a4 v=78
890040 On ch=1 n=c5 v=60
890160 Off ch=1 n=c5 v=80
890160 On ch=1 n=f5 v=60
890280 Off ch=1 n=a4 v=80
890280 Off ch=1 n=f5 v=80
890280 On ch=1 n=g#4 v=78
890400 Off ch=1 n=g#4 v=80
890400 On ch=1 n=g4 v=78
890520 On ch=1 n=c5 v=60
890640 Off ch=1 n=c5 v=80
890640 On ch=1 n=d#5 v=60
890760 Off ch=1 n=g4 v=80
890760 Off ch=1 n=d#5 v=80
890760 On ch=1 n=f#4 v=78
890880 Off ch=1 n=f#4 v=80
890880 On ch=1 n=f4 v=78
891000 On ch=1 n=a4 v=60
891120 Off ch=1 n=a4 v=80
891120 On ch=1 n=c5 v=60
891240 Off ch=1 n=f4 v=80
891240 Off ch=1 n=c5 v=80
891240 On ch=1 n=d#4 v=78
891360 Off ch=1 n=d#4 v=80
891360 On ch=1 n=f4 v=78
891480 Off ch=1 n=f4 v=80
891480 On ch=1 n=a4 v=60
891600 Off ch=1 n=a4 v=80
891600 On ch=1 n=c5 v=60
891720 Off ch=1 n=c5 v=80
891840 On ch=1 n=a#4 v=65
891960 On ch=1 n=d5 v=47
892080 Off ch=1 n=d5 v=80
892080 On ch=1 n=f5 v=47
892200 Off ch=1 n=a#4 v=80
892200 Off ch=1 n=f5 v=80
892200 On ch=1 n=a4 v=65
892320 Off ch=1 n=a4 v=80
892320 On ch=1 n=g5 v=65
892440 On ch=1 n=g4 v=47
892560 Off ch=1 n=g4 v=80
892560 On ch=1 n=d5 v=47
892680 Off ch=1 n=g5 v=80
892680 Off ch=1 n=d5 v=80
892680 On ch=1 n=f5 v=65
892800 Off ch=1 n=f5 v=80
892800 On ch=1 n=g4 v=65
892920 On ch=1 n=c5 v=47
893040 Off ch=1 n=c5 v=80
893040 On ch=1 n=d#5 v=47
893160 Off ch=1 n=g4 v=80
893160 Off ch=1 n=d#5 v=80
893160 On ch=1 n=f#4 v=65
893280 Off ch=1 n=f#4 v=80
893280 On ch=1 n=f5 v=65
893400 On ch=1 n=f4 v=47
893520 Off ch=1 n=f4 v=80
893520 On ch=1 n=c5 v=47
893640 Off ch=1 n=f5 v=80
893640 Off ch=1 n=c5 v=80
893640 On ch=1 n=d#5 v=65
893760 Off ch=1 n=d#5 v=80
893760 On ch=1 n=a#4 v=65
893880 On ch=1 n=d5 v=47
894000 Off ch=1 n=d5 v=80
894000 On ch=1 n=f5 v=47
894120 Off ch=1 n=a#4 v=80
894120 Off ch=1 n=f5 v=80
894120 On ch=1 n=a4 v=65
894240 Off ch=1 n=a4 v=80
894240 On ch=1 n=g5 v=65
894360 On ch=1 n=g4 v=47
894480 Off ch=1 n=g4 v=80
894480 On ch=1 n=d5 v=47
894600 Off ch=1 n=g5 v=80
894600 Off ch=1 n=d5 v=80
894600 On ch=1 n=f5 v=65
894720 Off ch=1 n=f5 v=80
894720 On ch=1 n=g4 v=65
894840 On ch=1 n=c5 v=47
894960 Off ch=1 n=c5 v=80
894960 On ch=1 n=d#5 v=47
895080 Off ch=1 n=g4 v=80
895080 Off ch=1 n=d#5 v=80
895080 On ch=1 n=f#4 v=65
895200 Off ch=1 n=f#4 v=80
895200 On ch=1 n=f5 v=65
895320 On ch=1 n=f4 v=47
895440 Off ch=1 n=f4 v=80
895440 On ch=1 n=c5 v=47
895560 Off ch=1 n=f5 v=80
895560 Off ch=1 n=c5 v=80
895560 On ch=1 n=d#5 v=65
895680 Off ch=1 n=d#5 v=80
895680 On ch=1 n=a#4 v=65
895800 On ch=1 n=d5 v=47
895920 Off ch=1 n=d5 v=80
895920 On ch=1 n=f5 v=47
896040 Off ch=1 n=a#4 v=80
896040 Off ch=1 n=f5 v=80
896040 On ch=1 n=a4 v=65
896160 Off ch=1 n=a4 v=80
896160 On ch=1 n=g5 v=65
896280 On ch=1 n=g4 v=47
896400 Off ch=1 n=g4 v=80
896400 On ch=1 n=d5 v=47
896520 Off ch=1 n=g5 v=80
896520 Off ch=1 n=d5 v=80
896520 On ch=1 n=f5 v=65
896640 Off ch=1 n=f5 v=80
896640 On ch=1 n=c5 v=65
896760 On ch=1 n=d#5 v=47
896880 Off ch=1 n=d#5 v=80
896880 On ch=1 n=g5 v=47
897000 Off ch=1 n=c5 v=80
897000 Off ch=1 n=g5 v=80
897000 On ch=1 n=a#4 v=65
897120 Off ch=1 n=a#4 v=80
897120 On ch=1 n=a5 v=69
897240 On ch=1 n=a4 v=51
897360 Off ch=1 n=a4 v=80
897360 On ch=1 n=d#5 v=51
897480 Off ch=1 n=a5 v=80
897480 Off ch=1 n=d#5 v=80
897480 On ch=1 n=g5 v=69
897600 Off ch=1 n=g5 v=80
897600 On ch=1 n=d5 v=73
897720 On ch=1 n=f5 v=55
897840 Off ch=1 n=f5 v=80
897840 On ch=1 n=a5 v=55
897960 Off ch=1 n=d5 v=80
897960 Off ch=1 n=a5 v=80
897960 On ch=1 n=c5 v=73
898080 Off ch=1 n=c5 v=80
898080 On ch=1 n=a#5 v=77
898200 On ch=1 n=a#4 v=59
898320 Off ch=1 n=a#4 v=80
898320 On ch=1 n=f5 v=59
898440 Off ch=1 n=a#5 v=80
898440 Off ch=1 n=f5 v=80
898440 On ch=1 n=a5 v=77
898560 Off ch=1 n=a5 v=80
898560 On ch=1 n=d#5 v=81
898680 On ch=1 n=g5 v=63
898800 Off ch=1 n=g5 v=80
898800 On ch=1 n=a#5 v=63
898920 Off ch=1 n=d#5 v=80
898920 Off ch=1 n=a#5 v=80
898920 On ch=1 n=d5 v=81
899040 Off ch=1 n=d5 v=80
899040 On ch=1 n=c6 v=85
899160 On ch=1 n=c5 v=67
899280 Off ch=1 n=c5 v=80
899280 On ch=1 n=g5 v=67
899400 Off ch=1 n=c6 v=80
899400 Off ch=1 n=g5 v=80
899400 On ch=1 n=a#5 v=85
899520 Off ch=1 n=a#5 v=80
899520 On ch=1 n=f5 v=90
899640 On ch=1 n=a5 v=72
899760 Off ch=1 n=a5 v=80
899760 On ch=1 n=c6 v=72
899880 Off ch=1 n=f5 v=80
899880 Off ch=1 n=c6 v=80
899880 On ch=1 n=e5 v=90
900000 Off ch=1 n=e5 v=80
900000 On ch=1 n=d6 v=90
900120 On ch=1 n=d5 v=72
900240 Off ch=1 n=d5 v=80
900240 On ch=1 n=a5 v=72
900360 Off ch=1 n=d6 v=80
900360 Off ch=1 n=a5 v=80
900360 On ch=1 n=c6 v=90
900480 Off ch=1 n=c6 v=80
900480 On ch=1 n=d5 v=90
900600 On ch=1 n=g5 v=72
900720 Off ch=1 n=g5 v=80
900720 On ch=1 n=a#5 v=72
900840 Off ch=1 n=d5 v=80
900840 Off ch=1 n=a#5 v=80
900840 On ch=1 n=c#5 v=90
900960 Off ch=1 n=c#5 v=80
900960 On ch=1 n=c6 v=98
901080 On ch=1 n=c5 v=80
901200 Off ch=1 n=c5 v=80
901200 On ch=1 n=g5 v=88
901320 Off ch=1 n=c6 v=80
901320 Off ch=1 n=g5 v=80
901320 On ch=1 n=a#5 v=106
901440 Off ch=1 n=a#5 v=80
901440 On ch=1 n=f5 v=114
901560 On ch=1 n=a5 v=96
901680 Off ch=1 n=a5 v=80
901680 On ch=1 n=c6 v=96
901800 Off ch=1 n=f5 v=80
901800 Off ch=1 n=c6 v=80
901800 On ch=1 n=e5 v=114
901920 Off ch=1 n=e5 v=80
901920 On ch=1 n=d6 v=114
902040 On ch=1 n=d5 v=96
902160 Off ch=1 n=d5 v=80
902160 On ch=1 n=a5 v=96
902280 Off ch=1 n=d6 v=80
902280 Off ch=1 n=a5 v=80
902280 On ch=1 n=c6 v=114
902400 Off ch=1 n=c6 v=80
902400 On ch=1 n=d5 v=114
902520 On ch=1 n=g5 v=96
902640 Off ch=1 n=g5 v=80
902640 On ch=1 n=a#5 v=96
902760 Off ch=1 n=d5 v=80
902760 Off ch=1 n=a#5 v=80
902760 On ch=1 n=c#5 v=114
902880 Off ch=1 n=c#5 v=80
902880 On ch=1 n=c6 v=114
903000 On ch=1 n=c5 v=96
903120 Off ch=1 n=c5 v=80
903120 On ch=1 n=g5 v=96
903240 Off ch=1 n=c6 v=80
903240 Off ch=1 n=g5 v=80
903240 On ch=1 n=a#5 v=114
903360 Off ch=1 n=a#5 v=80
903360 On ch=1 n=c5 v=110
903480 On ch=1 n=f5 v=92
903600 Off ch=1 n=f5 v=80
903600 On ch=1 n=a5 v=87
903720 Off ch=1 n=c5 v=80
903720 Off ch=1 n=a5 v=80
903720 On ch=1 n=c5 v=105
903840 Off ch=1 n=c5 v=80
903840 On ch=1 n=a#5 v=100
903960 On ch=1 n=a#4 v=82
904080 Off ch=1 n=a#4 v=80
904080 On ch=1 n=f5 v=77
904200 Off ch=1 n=a#5 v=80
904200 Off ch=1 n=f5 v=80
904200 On ch=1 n=a#5 v=90
904320 Off ch=1 n=a#5 v=80
904320 On ch=1 n=c5 v=90
904440 Off ch=1 n=c5 v=80
904440 On ch=1 n=f5 v=72
904560 Off ch=1 n=f5 v=80
904560 On ch=1 n=a5 v=72
904680 Off ch=1 n=a5 v=80
904680 On ch=1 n=b4 v=90
904800 Off ch=1 n=b4 v=80
904800 On ch=1 n=a#4 v=90
904920 Off ch=1 n=a#4 v=80
904920 On ch=1 n=e5 v=72
905040 Off ch=1 n=e5 v=80
905040 On ch=1 n=g5 v=72
905160 Off ch=1 n=g5 v=80
905160 On ch=1 n=g4 v=90
905280 Off ch=1 n=g4 v=80
905280 On ch=1 n=a4 v=90
905400 On ch=1 n=c5 v=72
905520 Off ch=1 n=c5 v=80
905520 On ch=1 n=f5 v=72
905640 Off ch=1 n=a4 v=80
905640 Off ch=1 n=f5 v=80
905640 On ch=1 n=g#4 v=90
905760 Off ch=1 n=g#4 v=80
905760 On ch=1 n=g4 v=90
905880 On ch=1 n=c5 v=72
906000 Off ch=1 n=c5 v=80
906000 On ch=1 n=d#5 v=72
906120 Off ch=1 n=g4 v=80
906120 Off ch=1 n=d#5 v=80
906120 On ch=1 n=f#4 v=90
906240 Off ch=1 n=f#4 v=80
906240 On ch=1 n=f4 v=90
906360 On ch=1 n=a4 v=72
906480 Off ch=1 n=a4 v=80
906480 On ch=1 n=c5 v=72
906600 Off ch=1 n=f4 v=80
906600 Off ch=1 n=c5 v=80
906600 On ch=1 n=d#4 v=90
906720 Off ch=1 n=d#4 v=80
906720 On ch=1 n=f4 v=90
906840 Off ch=1 n=f4 v=80
906840 On ch=1 n=a4 v=72
906960 Off ch=1 n=a4 v=80
906960 On ch=1 n=c5 v=72
907080 Off ch=1 n=c5 v=80
907200 On ch=1 n=g#4 v=90
907320 Off ch=1 n=g#4 v=80
907320 On ch=1 n=d5 v=90
907440 Off ch=1 n=d5 v=80
907440 On ch=1 n=f5 v=90
907560 Off ch=1 n=f5 v=80
907680 On ch=1 n=g#4 v=90
907800 Off ch=1 n=g#4 v=80
907800 On ch=1 n=d5 v=90
907920 Off ch=1 n=d5 v=80
907920 On ch=1 n=f5 v=90
908040 Off ch=1 n=f5 v=80
908160 On ch=1 n=g#4 v=90
908280 Off ch=1 n=g#4 v=80
908280 On ch=1 n=d5 v=90
908400 Off ch=1 n=d5 v=80
908400 On ch=1 n=f5 v=90
908520 Off ch=1 n=f5 v=80
908640 On ch=1 n=g#4 v=90
908760 Off ch=1 n=g#4 v=80
908760 On ch=1 n=d5 v=90
908880 Off ch=1 n=d5 v=80
908880 On ch=1 n=f5 v=90
909000 Off ch=1 n=f5 v=80
909120 On ch=1 n=b4 v=65
909240 Off ch=1 n=b4 v=80
909240 On ch=1 n=f5 v=65
909360 Off ch=1 n=f5 v=80
909360 On ch=1 n=g#5 v=65
909480 Off ch=1 n=g#5 v=80
909600 On ch=1 n=b4 v=65
909720 Off ch=1 n=b4 v=80
909720 On ch=1 n=f5 v=65
909840 Off ch=1 n=f5 v=80
909840 On ch=1 n=g#5 v=65
909960 Off ch=1 n=g#5 v=80
910080 On ch=1 n=b4 v=65
910200 Off ch=1 n=b4 v=80
910200 On ch=1 n=f5 v=65
910320 Off ch=1 n=f5 v=80
910320 On ch=1 n=g#5 v=65
910440 Off ch=1 n=g#5 v=80
910560 On ch=1 n=b4 v=65
910680 Off ch=1 n=b4 v=80
910680 On ch=1 n=f5 v=65
910800 Off ch=1 n=f5 v=80
910800 On ch=1 n=g#5 v=65
910920 Off ch=1 n=g#5 v=80
911040 On ch=1 n=c#6 v=65
911160 On ch=1 n=f5 v=47
911280 Off ch=1 n=f5 v=80
911280 On ch=1 n=f#5 v=47
911400 Off ch=1 n=c#6 v=80
911400 Off ch=1 n=f#5 v=80
911400 On ch=1 n=b5 v=65
911520 Off ch=1 n=b5 v=80
911520 On ch=1 n=a#5 v=65
911640 On ch=1 n=f5 v=47
911760 Off ch=1 n=f5 v=80
911760 On ch=1 n=f#5 v=47
911880 Off ch=1 n=a#5 v=80
911880 Off ch=1 n=f#5 v=80
911880 On ch=1 n=g#5 v=65
912000 Off ch=1 n=g#5 v=80
912000 On ch=1 n=f#5 v=65
912120 On ch=1 n=c5 v=65
912240 Off ch=1 n=c5 v=80
912240 Off ch=1 n=f#5 v=80
912240 On ch=1 n=c#5 v=65
912360 Off ch=1 n=c#5 v=80
912360 On ch=1 n=d#5 v=65
912480 Off ch=1 n=d#5 v=80
912480 On ch=1 n=c#5 v=65
912600 Off ch=1 n=c#5 v=80
912600 On ch=1 n=a4 v=65
912720 Off ch=1 n=a4 v=80
912720 On ch=1 n=a#4 v=65
912840 Off ch=1 n=a#4 v=80
912840 On ch=1 n=b4 v=65
912960 Off ch=1 n=b4 v=80
912960 On ch=1 n=a#4 v=61
913080 Off ch=1 n=a#4 v=80
913080 On ch=1 n=f4 v=61
913200 Off ch=1 n=f4 v=80
913200 On ch=1 n=f#4 v=61
913320 Off ch=1 n=f#4 v=80
913320 On ch=1 n=g4 v=61
913440 Off ch=1 n=g4 v=80
913440 On ch=1 n=f#4 v=57
913560 Off ch=1 n=f#4 v=80
913560 On ch=1 n=c4 v=57
913680 Off ch=1 n=c4 v=80
913680 On ch=1 n=c#4 v=57
913800 Off ch=1 n=c#4 v=80
913800 On ch=1 n=d#4 v=57
913920 Off ch=1 n=d#4 v=80
913920 On ch=1 n=c#4 v=53
914040 Off ch=1 n=c#4 v=80
914040 On ch=1 n=a3 v=53
914160 Off ch=1 n=a3 v=80
914160 On ch=1 n=a#3 v=53
914280 Off ch=1 n=a#3 v=80
914280 On ch=1 n=b3 v=53
914400 Off ch=1 n=b3 v=80
914400 On ch=1 n=a#3 v=53
914640 Off ch=1 n=a#3 v=80
914880 On ch=1 n=c#5 v=90
915000 Off ch=1 n=c#5 v=80
915000 On ch=1 n=g5 v=90
915120 Off ch=1 n=g5 v=80
915120 On ch=1 n=a#5 v=90
915240 Off ch=1 n=a#5 v=80
915360 On ch=1 n=c#5 v=90
915480 Off ch=1 n=c#5 v=80
915480 On ch=1 n=g5 v=90
915600 Off ch=1 n=g5 v=80
915600 On ch=1 n=a#5 v=90
915720 Off ch=1 n=a#5 v=80
915840 On ch=1 n=c#5 v=90
915960 Off ch=1 n=c#5 v=80
915960 On ch=1 n=g5 v=90
916080 Off ch=1 n=g5 v=80
916080 On ch=1 n=a#5 v=90
916200 Off ch=1 n=a#5 v=80
916320 On ch=1 n=c#5 v=90
916440 Off ch=1 n=c#5 v=80
916440 On ch=1 n=g5 v=90
916560 Off ch=1 n=g5 v=80
916560 On ch=1 n=a#5 v=90
916680 Off ch=1 n=a#5 v=80
916800 On ch=1 n=e5 v=65
916920 On ch=1 n=a#5 v=65
917040 Off ch=1 n=a#5 v=80
917040 On ch=1 n=c#6 v=65
917160 Off ch=1 n=c#6 v=80
917280 Off ch=1 n=e5 v=80
917280 On ch=1 n=e5 v=65
917400 Off ch=1 n=e5 v=80
917400 On ch=1 n=a#5 v=65
917520 Off ch=1 n=a#5 v=80
917520 On ch=1 n=c#6 v=65
917640 Off ch=1 n=c#6 v=80
917760 On ch=1 n=e5 v=65
917880 On ch=1 n=a#5 v=65
918000 Off ch=1 n=a#5 v=80
918000 On ch=1 n=c#6 v=65
918120 Off ch=1 n=c#6 v=80
918240 Off ch=1 n=e5 v=80
918240 On ch=1 n=e5 v=73
918360 Off ch=1 n=e5 v=80
918360 On ch=1 n=a#5 v=73
918480 Off ch=1 n=a#5 v=80
918480 On ch=1 n=c#6 v=81
918600 Off ch=1 n=c#6 v=80
918720 On ch=1 n=f6 v=90
918840 On ch=1 n=f5 v=72
918960 Off ch=1 n=f5 v=80
918960 On ch=1 n=c6 v=72
919080 Off ch=1 n=f6 v=80
919080 Off ch=1 n=c6 v=80
919080 On ch=1 n=e6 v=90
919200 Off ch=1 n=e6 v=80
919200 On ch=1 n=d#6 v=90
919320 On ch=1 n=f5 v=72
919440 Off ch=1 n=f5 v=80
919440 On ch=1 n=b5 v=72
919560 Off ch=1 n=d#6 v=80
919560 Off ch=1 n=b5 v=80
919560 On ch=1 n=d6 v=90
919680 Off ch=1 n=d6 v=80
919680 On ch=1 n=c6 v=85
919800 On ch=1 n=f5 v=67
919920 Off ch=1 n=f5 v=80
919920 On ch=1 n=g#5 v=62
920100 Off ch=1 n=c6 v=80
920100 Off ch=1 n=g#5 v=80
920100 On ch=1 n=a#5 v=80
920160 Off ch=1 n=a#5 v=80
920160 On ch=1 n=a5 v=75
920280 On ch=1 n=e5 v=57
920400 Off ch=1 n=e5 v=80
920400 On ch=1 n=f5 v=52
920580 Off ch=1 n=a5 v=80
920580 Off ch=1 n=f5 v=80
920580 On ch=1 n=g5 v=70
920640 Off ch=1 n=g5 v=80
920640 On ch=1 n=f5 v=65
920760 Off ch=1 n=f5 v=80
920760 On ch=1 n=e5 v=65
920880 Off ch=1 n=e5 v=80
920880 On ch=1 n=f5 v=65
921000 Off ch=1 n=f5 v=80
921000 On ch=1 n=g5 v=65
921120 Off ch=1 n=g5 v=80
921120 On ch=1 n=f5 v=65
921240 Off ch=1 n=f5 v=80
921240 On ch=1 n=e5 v=65
921360 Off ch=1 n=e5 v=80
921360 On ch=1 n=f5 v=65
921480 Off ch=1 n=f5 v=80
921480 On ch=1 n=g5 v=65
921600 Off ch=1 n=g5 v=80
921600 On ch=1 n=f5 v=61
921720 Off ch=1 n=f5 v=80
921720 On ch=1 n=e5 v=61
921840 Off ch=1 n=e5 v=80
921840 On ch=1 n=f5 v=61
921960 Off ch=1 n=f5 v=80
921960 On ch=1 n=g5 v=61
922080 Off ch=1 n=g5 v=80
922080 On ch=1 n=f5 v=57
922200 Off ch=1 n=f5 v=80
922200 On ch=1 n=e5 v=57
922320 Off ch=1 n=e5 v=80
922320 On ch=1 n=f5 v=57
922440 Off ch=1 n=f5 v=80
922440 On ch=1 n=g5 v=57
922560 Off ch=1 n=g5 v=80
922560 On ch=1 n=a#4 v=65
922680 On ch=1 n=d5 v=47
922800 Off ch=1 n=d5 v=80
922800 On ch=1 n=f5 v=47
922920 Off ch=1 n=a#4 v=80
922920 Off ch=1 n=f5 v=80
922920 On ch=1 n=a4 v=65
923040 Off ch=1 n=a4 v=80
923040 On ch=1 n=g5 v=65
923160 On ch=1 n=g4 v=47
923280 Off ch=1 n=g4 v=80
923280 On ch=1 n=d5 v=47
923400 Off ch=1 n=g5 v=80
923400 Off ch=1 n=d5 v=80
923400 On ch=1 n=f5 v=65
923520 Off ch=1 n=f5 v=80
923520 On ch=1 n=g4 v=65
923640 On ch=1 n=c5 v=47
923760 Off ch=1 n=c5 v=80
923760 On ch=1 n=d#5 v=47
923880 Off ch=1 n=g4 v=80
923880 Off ch=1 n=d#5 v=80
923880 On ch=1 n=f#4 v=65
924000 Off ch=1 n=f#4 v=80
924000 On ch=1 n=f5 v=65
924120 On ch=1 n=f4 v=47
924240 Off ch=1 n=f4 v=80
924240 On ch=1 n=c5 v=47
924360 Off ch=1 n=f5 v=80
924360 Off ch=1 n=c5 v=80
924360 On ch=1 n=d#5 v=65
924480 Off ch=1 n=d#5 v=80
924480 On ch=1 n=a#4 v=65
924600 On ch=1 n=d5 v=47
924720 Off ch=1 n=d5 v=80
924720 On ch=1 n=f5 v=47
924840 Off ch=1 n=a#4 v=80
924840 Off ch=1 n=f5 v=80
924840 On ch=1 n=a4 v=65
924960 Off ch=1 n=a4 v=80
924960 On ch=1 n=g5 v=65
925080 On ch=1 n=g4 v=47
925200 Off ch=1 n=g4 v=80
925200 On ch=1 n=d5 v=47
925320 Off ch=1 n=g5 v=80
925320 Off ch=1 n=d5 v=80
925320 On ch=1 n=f5 v=65
925440 Off ch=1 n=f5 v=80
925440 On ch=1 n=g4 v=65
925560 On ch=1 n=c5 v=47
925680 Off ch=1 n=c5 v=80
925680 On ch=1 n=d#5 v=47
925800 Off ch=1 n=g4 v=80
925800 Off ch=1 n=d#5 v=80
925800 On ch=1 n=f#4 v=65
925920 Off ch=1 n=f#4 v=80
925920 On ch=1 n=f5 v=65
926040 On ch=1 n=f4 v=47
926160 Off ch=1 n=f4 v=80
926160 On ch=1 n=c5 v=47
926280 Off ch=1 n=f5 v=80
926280 Off ch=1 n=c5 v=80
926280 On ch=1 n=d#5 v=65
926400 Off ch=1 n=d#5 v=80
926400 On ch=1 n=a#4 v=65
926520 On ch=1 n=d5 v=47
926640 Off ch=1 n=d5 v=80
926640 On ch=1 n=f5 v=47
926760 Off ch=1 n=a#4 v=80
926760 Off ch=1 n=f5 v=80
926760 On ch=1 n=a4 v=65
926880 Off ch=1 n=a4 v=80
926880 On ch=1 n=g5 v=65
927000 On ch=1 n=g4 v=47
927120 Off ch=1 n=g4 v=80
927120 On ch=1 n=d5 v=47
927240 Off ch=1 n=g5 v=80
927240 Off ch=1 n=d5 v=80
927240 On ch=1 n=f5 v=65
927360 Off ch=1 n=f5 v=80
927360 On ch=1 n=c5 v=65
927480 On ch=1 n=d#5 v=47
927600 Off ch=1 n=d#5 v=80
927600 On ch=1 n=g5 v=47
927720 Off ch=1 n=c5 v=80
927720 Off ch=1 n=g5 v=80
927720 On ch=1 n=a#4 v=65
927840 Off ch=1 n=a#4 v=80
927840 On ch=1 n=a5 v=69
927960 On ch=1 n=a4 v=51
928080 Off ch=1 n=a4 v=80
928080 On ch=1 n=d#5 v=51
928200 Off ch=1 n=a5 v=80
928200 Off ch=1 n=d#5 v=80
928200 On ch=1 n=g5 v=69
928320 Off ch=1 n=g5 v=80
928320 On ch=1 n=d5 v=73
928440 On ch=1 n=f5 v=55
928560 Off ch=1 n=f5 v=80
928560 On ch=1 n=a5 v=55
928680 Off ch=1 n=d5 v=80
928680 Off ch=1 n=a5 v=80
928680 On ch=1 n=c5 v=73
928800 Off ch=1 n=c5 v=80
928800 On ch=1 n=a#5 v=77
928920 On ch=1 n=a#4 v=59
929040 Off ch=1 n=a#4 v=80
929040 On ch=1 n=f5 v=59
929160 Off ch=1 n=a#5 v=80
929160 Off ch=1 n=f5 v=80
929160 On ch=1 n=a5 v=77
929280 Off ch=1 n=a5 v=80
929280 On ch=1 n=d#5 v=81
929400 On ch=1 n=g5 v=63
929520 Off ch=1 n=g5 v=80
929520 On ch=1 n=a#5 v=63
929640 Off ch=1 n=d#5 v=80
929640 Off ch=1 n=a#5 v=80
929640 On ch=1 n=d5 v=81
929760 Off ch=1 n=d5 v=80
929760 On ch=1 n=c6 v=85
929880 On ch=1 n=c5 v=67
930000 Off ch=1 n=c5 v=80
930000 On ch=1 n=g5 v=67
930120 Off ch=1 n=c6 v=80
930120 Off ch=1 n=g5 v=80
930120 On ch=1 n=a#5 v=85
930240 Off ch=1 n=a#5 v=80
930240 On ch=1 n=c5 v=65
930360 Off ch=1 n=c5 v=80
930360 On ch=1 n=f5 v=65
930480 Off ch=1 n=f5 v=80
930480 On ch=1 n=a5 v=65
930600 Off ch=1 n=a5 v=80
930600 On ch=1 n=c5 v=65
930720 Off ch=1 n=c5 v=80
930720 On ch=1 n=a#5 v=65
930840 Off ch=1 n=a#5 v=80
930840 On ch=1 n=a#4 v=65
930960 Off ch=1 n=a#4 v=80
930960 On ch=1 n=d#5 v=65
931080 Off ch=1 n=d#5 v=80
931080 On ch=1 n=g5 v=65
931200 Off ch=1 n=g5 v=80
931200 On ch=1 n=f#5 v=65
931320 Off ch=1 n=f#5 v=80
931320 On ch=1 n=a4 v=65
931440 Off ch=1 n=a4 v=80
931440 On ch=1 n=d5 v=65
931560 Off ch=1 n=d5 v=80
931560 On ch=1 n=f#5 v=65
931680 Off ch=1 n=f#5 v=80
931680 On ch=1 n=g5 v=65
931800 Off ch=1 n=g5 v=80
931800 On ch=1 n=g4 v=65
931920 Off ch=1 n=g4 v=80
931920 On ch=1 n=d5 v=65
932040 Off ch=1 n=d5 v=80
932040 On ch=1 n=g5 v=65
932160 Off ch=1 n=g5 v=80
932160 On ch=1 n=g4 v=65
932280 Off ch=1 n=g4 v=80
932280 On ch=1 n=c5 v=65
932400 Off ch=1 n=c5 v=80
932400 On ch=1 n=e5 v=65
932520 Off ch=1 n=e5 v=80
932520 On ch=1 n=g4 v=65
932640 Off ch=1 n=g4 v=80
932640 On ch=1 n=f5 v=65
932760 Off ch=1 n=f5 v=80
932760 On ch=1 n=f4 v=65
932880 Off ch=1 n=f4 v=80
932880 On ch=1 n=a#4 v=65
933000 Off ch=1 n=a#4 v=80
933000 On ch=1 n=d5 v=65
933120 Off ch=1 n=d5 v=80
933120 On ch=1 n=c#5 v=75
933240 Off ch=1 n=c#5 v=80
933240 On ch=1 n=e4 v=75
933360 Off ch=1 n=e4 v=80
933360 On ch=1 n=a#4 v=85
933480 Off ch=1 n=a#4 v=80
933480 On ch=1 n=c#5 v=85
933600 Off ch=1 n=c#5 v=80
933600 On ch=1 n=e5 v=95
933720 Off ch=1 n=e5 v=80
933720 On ch=1 n=e4 v=95
933840 Off ch=1 n=e4 v=80
933840 On ch=1 n=a#4 v=105
933960 Off ch=1 n=a#4 v=80
933960 On ch=1 n=c#5 v=105
934080 Off ch=1 n=c#5 v=80
934080 On ch=1 n=f4 v=114
934200 On ch=1 n=a#4 v=96
934320 Off ch=1 n=a#4 v=80
934320 On ch=1 n=d5 v=96
934440 Off ch=1 n=f4 v=80
934440 Off ch=1 n=d5 v=80
934440 On ch=1 n=f#4 v=114
934560 Off ch=1 n=f#4 v=80
934560 On ch=1 n=g5 v=114
934680 On ch=1 n=g4 v=96
934800 Off ch=1 n=g4 v=80
934800 On ch=1 n=d5 v=96
934920 Off ch=1 n=g5 v=80
934920 Off ch=1 n=d5 v=80
934920 On ch=1 n=f5 v=114
935040 Off ch=1 n=f5 v=80
935040 On ch=1 n=d#5 v=114
935160 On ch=1 n=g4 v=96
935280 Off ch=1 n=g4 v=80
935280 On ch=1 n=c5 v=96
935400 Off ch=1 n=d#5 v=80
935400 Off ch=1 n=c5 v=80
935400 On ch=1 n=d#5 v=96
935520 Off ch=1 n=d#5 v=80
935520 On ch=1 n=g5 v=114
935640 On ch=1 n=c6 v=96
935760 Off ch=1 n=c6 v=80
935760 On ch=1 n=d#6 v=96
935880 Off ch=1 n=d#6 v=80
935880 On ch=1 n=g6 v=96
936000 Off ch=1 n=g5 v=80
936000 Off ch=1 n=g6 v=80
936000 On ch=1 n=g#6 v=114
936120 Off ch=1 n=g#6 v=80
936120 On ch=1 n=a#5 v=96
936240 Off ch=1 n=a#5 v=80
936240 On ch=1 n=d6 v=96
936360 Off ch=1 n=d6 v=80
936360 On ch=1 n=g#6 v=96
936480 Off ch=1 n=g#6 v=80
936480 On ch=1 n=g6 v=114
936600 Off ch=1 n=g6 v=80
936600 On ch=1 n=g5 v=96
936720 Off ch=1 n=g5 v=80
936720 On ch=1 n=d6 v=96
936840 Off ch=1 n=d6 v=80
936840 On ch=1 n=g6 v=96
936960 Off ch=1 n=g6 v=80
936960 On ch=1 n=d#6 v=114
937080 On ch=1 n=c6 v=114
937200 Off ch=1 n=c6 v=80
937200 On ch=1 n=g5 v=114
937320 Off ch=1 n=g5 v=80
937320 On ch=1 n=d#5 v=114
937440 Off ch=1 n=d#6 v=80
937440 Off ch=1 n=d#5 v=80
937440 On ch=1 n=c5 v=114
937920 Off ch=1 n=c5 v=80
937920 On ch=1 n=g4 v=114
938040 On ch=1 n=c5 v=96
938160 Off ch=1 n=c5 v=80
938160 On ch=1 n=d#5 v=96
938280 Off ch=1 n=g4 v=80
938280 Off ch=1 n=d#5 v=80
938280 On ch=1 n=g#4 v=114
938400 Off ch=1 n=g#4 v=80
938400 On ch=1 n=a5 v=114
938520 On ch=1 n=a4 v=96
938640 Off ch=1 n=a4 v=80
938640 On ch=1 n=e5 v=96
938760 Off ch=1 n=a5 v=80
938760 Off ch=1 n=e5 v=80
938760 On ch=1 n=g5 v=114
938880 Off ch=1 n=g5 v=80
938880 On ch=1 n=f5 v=114
939000 On ch=1 n=a4 v=96
939120 Off ch=1 n=a4 v=80
939120 On ch=1 n=d5 v=96
939240 Off ch=1 n=f5 v=80
939240 Off ch=1 n=d5 v=80
939240 On ch=1 n=f5 v=96
939360 Off ch=1 n=f5 v=80
939360 On ch=1 n=a5 v=114
939480 On ch=1 n=d6 v=96
939600 Off ch=1 n=d6 v=80
939600 On ch=1 n=f6 v=96
939720 Off ch=1 n=f6 v=80
939720 On ch=1 n=a6 v=96
939840 Off ch=1 n=a5 v=80
939840 Off ch=1 n=a6 v=80
939840 On ch=1 n=a#6 v=114
939960 Off ch=1 n=a#6 v=80
939960 On ch=1 n=c6 v=96
940080 Off ch=1 n=c6 v=80
940080 On ch=1 n=e6 v=96
940200 Off ch=1 n=e6 v=80
940200 On ch=1 n=a#6 v=96
940320 Off ch=1 n=a#6 v=80
940320 On ch=1 n=a6 v=114
940440 Off ch=1 n=a6 v=80
940440 On ch=1 n=a5 v=96
940560 Off ch=1 n=a5 v=80
940560 On ch=1 n=e6 v=96
940680 Off ch=1 n=e6 v=80
940680 On ch=1 n=a6 v=96
940800 Off ch=1 n=a6 v=80
940800 On ch=1 n=f6 v=114
940920 On ch=1 n=d6 v=114
941040 Off ch=1 n=d6 v=80
941040 On ch=1 n=a5 v=114
941160 Off ch=1 n=a5 v=80
941160 On ch=1 n=f5 v=114
941280 Off ch=1 n=f6 v=80
941280 Off ch=1 n=f5 v=80
941280 On ch=1 n=d5 v=114
941760 Off ch=1 n=d5 v=80
941760 On ch=1 n=a4 v=114
941880 On ch=1 n=d5 v=96
942000 Off ch=1 n=d5 v=80
942000 On ch=1 n=f5 v=96
942120 Off ch=1 n=a4 v=80
942120 Off ch=1 n=f5 v=80
942120 On ch=1 n=a#4 v=114
942240 Off ch=1 n=a#4 v=80
942240 On ch=1 n=b5 v=114
942360 On ch=1 n=b4 v=96
942480 Off ch=1 n=b4 v=80
942480 On ch=1 n=f#5 v=96
942600 Off ch=1 n=b5 v=80
942600 Off ch=1 n=f#5 v=80
942600 On ch=1 n=a5 v=114
942720 Off ch=1 n=a5 v=80
942720 On ch=1 n=g5 v=114
942840 On ch=1 n=b4 v=96
942960 Off ch=1 n=b4 v=80
942960 On ch=1 n=e5 v=96
943080 Off ch=1 n=g5 v=80
943080 Off ch=1 n=e5 v=80
943080 On ch=1 n=g5 v=96
943200 Off ch=1 n=g5 v=80
943200 On ch=1 n=b5 v=114
943320 On ch=1 n=e6 v=96
943440 Off ch=1 n=e6 v=80
943440 On ch=1 n=g6 v=96
943560 Off ch=1 n=g6 v=80
943560 On ch=1 n=b6 v=96
943680 Off ch=1 n=b5 v=80
943680 Off ch=1 n=b6 v=80
943680 On ch=1 n=a#4 v=114
943800 On ch=1 n=e5 v=96
943920 Off ch=1 n=e5 v=80
943920 On ch=1 n=g5 v=96
944040 Off ch=1 n=a#4 v=80
944040 Off ch=1 n=g5 v=80
944040 On ch=1 n=b4 v=114
944160 Off ch=1 n=b4 v=80
944160 On ch=1 n=c6 v=114
944280 On ch=1 n=c5 v=96
944400 Off ch=1 n=c5 v=80
944400 On ch=1 n=g5 v=96
944520 Off ch=1 n=c6 v=80
944520 Off ch=1 n=g5 v=80
944520 On ch=1 n=a#5 v=114
944640 Off ch=1 n=a#5 v=80
944640 On ch=1 n=a5 v=114
944760 On ch=1 n=c5 v=96
944880 Off ch=1 n=c5 v=80
944880 On ch=1 n=f5 v=96
945000 Off ch=1 n=a5 v=80
945000 Off ch=1 n=f5 v=80
945000 On ch=1 n=a5 v=96
945120 Off ch=1 n=a5 v=80
945120 On ch=1 n=c6 v=114
945240 On ch=1 n=f6 v=96
945360 Off ch=1 n=f6 v=80
945360 On ch=1 n=a6 v=96
945480 Off ch=1 n=a6 v=80
945480 On ch=1 n=c7 v=96
945600 Off ch=1 n=c6 v=80
945600 Off ch=1 n=c7 v=80
945600 On ch=1 n=d7 v=127
945720 Off ch=1 n=d7 v=80
945720 On ch=1 n=a#6 v=127
945840 Off ch=1 n=a#6 v=80
945840 On ch=1 n=d6 v=127
945960 Off ch=1 n=d6 v=80
945960 On ch=1 n=d7 v=127
946080 Off ch=1 n=d7 v=80
946080 On ch=1 n=c#7 v=127
946200 Off ch=1 n=c#7 v=80
946200 On ch=1 n=a#6 v=127
946320 Off ch=1 n=a#6 v=80
946320 On ch=1 n=c#6 v=127
946440 Off ch=1 n=c#6 v=80
946440 On ch=1 n=c#7 v=127
946560 Off ch=1 n=c#7 v=80
946560 On ch=1 n=d7 v=127
946680 Off ch=1 n=d7 v=80
946680 On ch=1 n=a#6 v=127
946800 Off ch=1 n=a#6 v=80
946800 On ch=1 n=d6 v=127
946920 Off ch=1 n=d6 v=80
946920 On ch=1 n=f5 v=127
947040 Off ch=1 n=f5 v=80
947040 On ch=1 n=a#4 v=127
947160 Off ch=1 n=a#4 v=80
947160 On ch=1 n=f6 v=127
947280 Off ch=1 n=f6 v=80
947280 On ch=1 n=a#5 v=127
947520 Off ch=1 n=a#5 v=80
947520 On ch=1 n=d7 v=127
947640 Off ch=1 n=d7 v=80
947640 On ch=1 n=a#6 v=127
947760 Off ch=1 n=a#6 v=80
947760 On ch=1 n=d6 v=127
947880 Off ch=1 n=d6 v=80
947880 On ch=1 n=d7 v=127
948000 Off ch=1 n=d7 v=80
948000 On ch=1 n=c#7 v=127
948120 Off ch=1 n=c#7 v=80
948120 On ch=1 n=a#6 v=127
948240 Off ch=1 n=a#6 v=80
948240 On ch=1 n=c#6 v=127
948360 Off ch=1 n=c#6 v=80
948360 On ch=1 n=c#7 v=127
948480 Off ch=1 n=c#7 v=80
948480 On ch=1 n=d7 v=127
948600 Off ch=1 n=d7 v=80
948600 On ch=1 n=a#6 v=127
948720 Off ch=1 n=a#6 v=80
948720 On ch=1 n=d6 v=127
948840 Off ch=1 n=d6 v=80
948840 On ch=1 n=f5 v=127
948960 Off ch=1 n=f5 v=80
948960 On ch=1 n=a#4 v=127
949080 Off ch=1 n=a#4 v=80
949080 On ch=1 n=f6 v=127
949200 Off ch=1 n=f6 v=80
949200 On ch=1 n=a#5 v=127
949440 Off ch=1 n=a#5 v=80
949440 On ch=1 n=d6 v=127
949560 Off ch=1 n=d6 v=80
949560 On ch=1 n=b5 v=127
949680 Off ch=1 n=b5 v=80
949680 On ch=1 n=d5 v=127
949800 Off ch=1 n=d5 v=80
949800 On ch=1 n=d6 v=127
949920 Off ch=1 n=d6 v=80
949920 On ch=1 n=c#6 v=127
950040 Off ch=1 n=c#6 v=80
950040 On ch=1 n=a#5 v=127
950160 Off ch=1 n=a#5 v=80
950160 On ch=1 n=c#5 v=127
950280 Off ch=1 n=c#5 v=80
950280 On ch=1 n=c#6 v=127
950400 Off ch=1 n=c#6 v=80
950400 On ch=1 n=d6 v=127
950520 Off ch=1 n=d6 v=80
950520 On ch=1 n=b5 v=127
950640 Off ch=1 n=b5 v=80
950640 On ch=1 n=d5 v=127
950760 Off ch=1 n=d5 v=80
950760 On ch=1 n=b4 v=127
950880 Off ch=1 n=b4 v=80
950880 On ch=1 n=d4 v=127
951000 Off ch=1 n=d4 v=80
951000 On ch=1 n=b5 v=127
951120 Off ch=1 n=b5 v=80
951120 On ch=1 n=d5 v=127
951360 Off ch=1 n=d5 v=80
951360 On ch=1 n=d6 v=127
951480 Off ch=1 n=d6 v=80
951480 On ch=1 n=b5 v=127
951600 Off ch=1 n=b5 v=80
951600 On ch=1 n=d5 v=127
951720 Off ch=1 n=d5 v=80
951720 On ch=1 n=d6 v=127
951840 Off ch=1 n=d6 v=80
951840 On ch=1 n=c#6 v=127
951960 Off ch=1 n=c#6 v=80
951960 On ch=1 n=a#5 v=127
952080 Off ch=1 n=a#5 v=80
952080 On ch=1 n=c#5 v=127
952200 Off ch=1 n=c#5 v=80
952200 On ch=1 n=c#6 v=127
952320 Off ch=1 n=c#6 v=80
952320 On ch=1 n=d6 v=127
952440 Off ch=1 n=d6 v=80
952440 On ch=1 n=b5 v=127
952560 Off ch=1 n=b5 v=80
952560 On ch=1 n=d5 v=127
952680 Off ch=1 n=d5 v=80
952680 On ch=1 n=b4 v=127
952800 Off ch=1 n=b4 v=80
952800 On ch=1 n=d4 v=127
952920 Off ch=1 n=d4 v=80
952920 On ch=1 n=b5 v=127
953040 Off ch=1 n=b5 v=80
953040 On ch=1 n=d5 v=127
953280 Off ch=1 n=d5 v=80
953280 On ch=1 n=d#4 v=65
953400 Off ch=1 n=d#4 v=65
953400 On ch=1 n=a#4 v=65
953520 Off ch=1 n=a#4 v=65
953520 On ch=1 n=d#5 v=65
953640 Off ch=1 n=d#5 v=65
953640 On ch=1 n=g#4 v=65
953760 Off ch=1 n=g#4 v=65
953760 On ch=1 n=f4 v=65
953880 Off ch=1 n=f4 v=65
953880 On ch=1 n=c5 v=65
954000 Off ch=1 n=c5 v=65
954000 On ch=1 n=f5 v=65
954120 Off ch=1 n=f5 v=65
954120 On ch=1 n=a#4 v=65
954240 Off ch=1 n=a#4 v=65
954240 On ch=1 n=g4 v=70
954360 Off ch=1 n=g4 v=65
954360 On ch=1 n=d#5 v=70
954480 Off ch=1 n=d#5 v=65
954480 On ch=1 n=g5 v=75
954600 Off ch=1 n=g5 v=65
954600 On ch=1 n=d#5 v=75
954720 Off ch=1 n=d#5 v=65
954720 On ch=1 n=g5 v=80
954840 Off ch=1 n=g5 v=65
954840 On ch=1 n=d#5 v=80
954960 Off ch=1 n=d#5 v=65
954960 On ch=1 n=g4 v=85
955080 Off ch=1 n=g4 v=65
955080 On ch=1 n=a#4 v=85
955200 Off ch=1 n=a#4 v=65
955200 On ch=1 n=g4 v=65
955320 Off ch=1 n=g4 v=65
955320 On ch=1 n=d5 v=65
955440 Off ch=1 n=d5 v=65
955440 On ch=1 n=g5 v=65
955560 Off ch=1 n=g5 v=65
955560 On ch=1 n=d5 v=65
955680 Off ch=1 n=d5 v=65
955680 On ch=1 n=a4 v=65
955800 Off ch=1 n=a4 v=65
955800 On ch=1 n=d#5 v=65
955920 Off ch=1 n=d#5 v=65
955920 On ch=1 n=a5 v=65
956040 Off ch=1 n=a5 v=65
956040 On ch=1 n=d5 v=65
956160 Off ch=1 n=d5 v=65
956160 On ch=1 n=a#4 v=70
956280 Off ch=1 n=a#4 v=65
956280 On ch=1 n=g5 v=70
956400 Off ch=1 n=g5 v=65
956400 On ch=1 n=a#5 v=75
956520 Off ch=1 n=a#5 v=65
956520 On ch=1 n=g5 v=75
956640 Off ch=1 n=g5 v=65
956640 On ch=1 n=a#5 v=80
956760 Off ch=1 n=a#5 v=65
956760 On ch=1 n=g5 v=80
956880 Off ch=1 n=g5 v=65
956880 On ch=1 n=a#4 v=85
957000 Off ch=1 n=a#4 v=65
957000 On ch=1 n=d5 v=85
957120 Off ch=1 n=d5 v=65
957120 On ch=1 n=a#4 v=65
957120 On ch=1 n=a#5 v=65
957240 Off ch=1 n=a#5 v=65
957240 Off ch=1 n=a#4 v=65
957360 On ch=1 n=d#5 v=65
957360 On ch=1 n=d#6 v=65
957480 Off ch=1 n=d#6 v=65
957480 Off ch=1 n=d#5 v=65
957600 On ch=1 n=c5 v=65
957600 On ch=1 n=c6 v=65
957720 Off ch=1 n=c6 v=65
957720 Off ch=1 n=c5 v=65
957840 On ch=1 n=f5 v=65
957840 On ch=1 n=f6 v=65
957960 Off ch=1 n=f6 v=65
957960 Off ch=1 n=f5 v=65
958080 On ch=1 n=d5 v=70
958080 On ch=1 n=d6 v=70
958200 Off ch=1 n=d6 v=65
958200 Off ch=1 n=d5 v=65
958320 On ch=1 n=g5 v=88
958320 On ch=1 n=g6 v=88
958800 Off ch=1 n=g6 v=65
958800 Off ch=1 n=g5 v=65
958800 On ch=1 n=g5 v=75
958800 On ch=1 n=g6 v=75
958920 Off ch=1 n=g6 v=65
958920 Off ch=1 n=g5 v=65
959040 On ch=1 n=d#6 v=80
959040 On ch=1 n=d#5 v=80
959160 Off ch=1 n=d#5 v=65
959160 Off ch=1 n=d#6 v=65
959280 On ch=1 n=g#5 v=80
959280 On ch=1 n=g#6 v=80
959400 Off ch=1 n=g#6 v=65
959400 Off ch=1 n=g#5 v=65
959520 On ch=1 n=f5 v=85
959520 On ch=1 n=f6 v=85
959640 Off ch=1 n=f6 v=65
959640 Off ch=1 n=f5 v=65
959760 On ch=1 n=a#5 v=85
959760 On ch=1 n=a#6 v=85
959880 Off ch=1 n=a#6 v=65
959880 Off ch=1 n=a#5 v=65
960000 On ch=1 n=g6 v=90
960000 On ch=1 n=g5 v=90
960120 Off ch=1 n=g5 v=65
960120 Off ch=1 n=g6 v=65
960240 On ch=1 n=c7 v=90
960240 On ch=1 n=c6 v=90
960720 Off ch=1 n=c6 v=65
960720 Off ch=1 n=c7 v=65
960720 On ch=1 n=c7 v=90
960720 On ch=1 n=c6 v=90
960840 Off ch=1 n=c6 v=65
960840 Off ch=1 n=c7 v=65
960960 On ch=1 n=c6 v=90
961080 On ch=1 n=f6 v=72
961200 Off ch=1 n=f6 v=65
961200 Off ch=1 n=c6 v=65
961200 On ch=1 n=c7 v=72
961320 Off ch=1 n=c7 v=65
961320 On ch=1 n=f6 v=72
961440 Off ch=1 n=f6 v=65
961440 On ch=1 n=c7 v=72
961560 Off ch=1 n=c7 v=65
961560 On ch=1 n=f6 v=72
961680 Off ch=1 n=f6 v=65
961680 On ch=1 n=b5 v=90
961800 On ch=1 n=f6 v=72
961920 Off ch=1 n=f6 v=65
961920 Off ch=1 n=b5 v=65
961920 On ch=1 n=c6 v=95
962040 On ch=1 n=f6 v=77
962160 Off ch=1 n=f6 v=65
962160 Off ch=1 n=c6 v=65
962160 On ch=1 n=c7 v=77
962280 Off ch=1 n=c7 v=65
962280 On ch=1 n=f6 v=77
962400 Off ch=1 n=f6 v=65
962400 On ch=1 n=d6 v=100
962520 On ch=1 n=g#6 v=82
962640 Off ch=1 n=g#6 v=65
962640 Off ch=1 n=d6 v=65
962640 On ch=1 n=d7 v=82
962760 Off ch=1 n=d7 v=65
962760 On ch=1 n=g#6 v=82
962880 Off ch=1 n=g#6 v=65
962880 On ch=1 n=d#6 v=105
963000 On ch=1 n=a6 v=87
963120 Off ch=1 n=a6 v=65
963120 Off ch=1 n=d#6 v=65
963120 On ch=1 n=d#7 v=87
963240 Off ch=1 n=d#7 v=65
963240 On ch=1 n=d#6 v=87
963360 Off ch=1 n=d#6 v=65
963360 On ch=1 n=e6 v=110
963480 On ch=1 n=a#6 v=92
963600 Off ch=1 n=a#6 v=65
963600 Off ch=1 n=e6 v=65
963600 On ch=1 n=e7 v=92
963720 Off ch=1 n=e7 v=65
963720 On ch=1 n=a#6 v=92
963840 Off ch=1 n=a#6 v=65
963840 On ch=1 n=e6 v=114
963960 On ch=1 n=a#6 v=96
964080 Off ch=1 n=a#6 v=65
964080 Off ch=1 n=e6 v=65
964080 On ch=1 n=e7 v=96
964200 Off ch=1 n=e7 v=65
964200 On ch=1 n=a#6 v=96
964320 Off ch=1 n=a#6 v=65
964320 On ch=1 n=f6 v=114
964440 On ch=1 n=a#6 v=96
964560 Off ch=1 n=a#6 v=65
964560 Off ch=1 n=f6 v=65
964560 On ch=1 n=f7 v=96
964680 Off ch=1 n=f7 v=65
964680 On ch=1 n=a#6 v=96
964800 Off ch=1 n=a#6 v=65
964800 On ch=1 n=d6 v=90
964920 On ch=1 n=g6 v=72
965040 Off ch=1 n=g6 v=65
965040 Off ch=1 n=d6 v=65
965040 On ch=1 n=d7 v=72
965160 Off ch=1 n=d7 v=65
965160 On ch=1 n=g6 v=72
965280 Off ch=1 n=g6 v=65
965280 On ch=1 n=d7 v=72
965400 Off ch=1 n=d7 v=65
965400 On ch=1 n=g6 v=72
965520 Off ch=1 n=g6 v=65
965520 On ch=1 n=c#6 v=90
965640 On ch=1 n=g6 v=72
965760 Off ch=1 n=g6 v=65
965760 Off ch=1 n=c#6 v=65
965760 On ch=1 n=d6 v=95
965880 On ch=1 n=g6 v=77
966000 Off ch=1 n=g6 v=65
966000 Off ch=1 n=d6 v=65
966000 On ch=1 n=d7 v=77
966120 Off ch=1 n=d7 v=65
966120 On ch=1 n=g6 v=77
966240 Off ch=1 n=g6 v=65
966240 On ch=1 n=d#6 v=100
966360 On ch=1 n=g6 v=82
966480 Off ch=1 n=g6 v=65
966480 Off ch=1 n=d#6 v=65
966480 On ch=1 n=d#7 v=82
966600 Off ch=1 n=d#7 v=65
966600 On ch=1 n=g6 v=82
966720 Off ch=1 n=g6 v=65
966720 On ch=1 n=f6 v=105
966840 On ch=1 n=g6 v=87
966960 Off ch=1 n=g6 v=65
966960 Off ch=1 n=f6 v=65
966960 On ch=1 n=f7 v=87
967080 Off ch=1 n=f7 v=65
967080 On ch=1 n=f6 v=87
967200 Off ch=1 n=f6 v=65
967200 On ch=1 n=f#6 v=110
967320 On ch=1 n=g6 v=92
967440 Off ch=1 n=g6 v=65
967440 Off ch=1 n=f#6 v=65
967440 On ch=1 n=f#7 v=92
967560 Off ch=1 n=f#7 v=65
967560 On ch=1 n=g6 v=92
967680 Off ch=1 n=g6 v=65
967680 On ch=1 n=f#6 v=127
967800 On ch=1 n=g6 v=96
967920 Off ch=1 n=g6 v=65
967920 Off ch=1 n=f#6 v=65
967920 On ch=1 n=f#7 v=96
968040 Off ch=1 n=f#7 v=65
968040 On ch=1 n=g6 v=96
968160 Off ch=1 n=g6 v=65
968160 On ch=1 n=f#6 v=114
968280 On ch=1 n=g6 v=96
968400 Off ch=1 n=g6 v=65
968400 Off ch=1 n=f#6 v=65
968400 On ch=1 n=g7 v=96
968520 Off ch=1 n=g7 v=65
968520 On ch=1 n=g6 v=96
968640 Off ch=1 n=g6 v=65
968640 On ch=1 n=a6 v=102
968640 On ch=1 n=d#7 v=102
968640 On ch=1 n=a7 v=102
969120 Off ch=1 n=a7 v=65
969120 Off ch=1 n=d#7 v=65
969120 Off ch=1 n=a6 v=65
969120 On ch=1 n=a6 v=120
969120 On ch=1 n=a7 v=120
969120 On ch=1 n=d7 v=120
969840 Off ch=1 n=d7 v=65
969840 Off ch=1 n=a7 v=65
969840 Off ch=1 n=a6 v=65
969840 On ch=1 n=a#6 v=102
969840 On ch=1 n=d7 v=102
969840 On ch=1 n=a#7 v=102
969960 Off ch=1 n=a#7 v=65
969960 Off ch=1 n=d7 v=65
969960 Off ch=1 n=a#6 v=65
970080 On ch=1 n=f#6 v=102
970080 On ch=1 n=d7 v=102
970080 On ch=1 n=f#7 v=102
970200 Off ch=1 n=f#7 v=65
970200 Off ch=1 n=d7 v=65
970200 Off ch=1 n=f#6 v=65
970320 On ch=1 n=g6 v=102
970320 On ch=1 n=d7 v=102
970320 On ch=1 n=g7 v=102
970440 Off ch=1 n=g7 v=65
970440 Off ch=1 n=d7 v=65
970440 Off ch=1 n=g6 v=65
970560 On ch=1 n=d6 v=102
970560 On ch=1 n=g#6 v=102
970560 On ch=1 n=d7 v=102
971040 Off ch=1 n=d7 v=65
971040 Off ch=1 n=g#6 v=65
971040 Off ch=1 n=d6 v=65
971040 On ch=1 n=d6 v=120
971040 On ch=1 n=d7 v=120
971040 On ch=1 n=a6 v=120
971760 Off ch=1 n=a6 v=65
971760 Off ch=1 n=d7 v=65
971760 Off ch=1 n=d6 v=65
971760 On ch=1 n=d7 v=102
971760 On ch=1 n=a#6 v=102
971760 On ch=1 n=d6 v=102
971880 Off ch=1 n=d6 v=65
971880 Off ch=1 n=a#6 v=65
971880 Off ch=1 n=d7 v=65
972000 On ch=1 n=a#5 v=102
972000 On ch=1 n=f#6 v=102
972000 On ch=1 n=a#6 v=102
972120 Off ch=1 n=a#6 v=65
972120 Off ch=1 n=f#6 v=65
972120 Off ch=1 n=a#5 v=65
972240 On ch=1 n=g6 v=102
972240 On ch=1 n=a#6 v=102
972240 On ch=1 n=a#5 v=102
972360 Off ch=1 n=a#5 v=65
972360 Off ch=1 n=a#6 v=65
972360 Off ch=1 n=g6 v=65
972480 On ch=1 n=g6 v=102
972480 On ch=1 n=d6 v=102
972480 On ch=1 n=g5 v=102
972600 Off ch=1 n=g5 v=65
972600 Off ch=1 n=d6 v=65
972600 Off ch=1 n=g6 v=65
972720 On ch=1 n=g5 v=102
972720 On ch=1 n=d#6 v=102
972720 On ch=1 n=g6 v=102
972840 Off ch=1 n=g6 v=65
972840 Off ch=1 n=d#6 v=65
972840 Off ch=1 n=g5 v=65
972960 On ch=1 n=b5 v=102
972960 On ch=1 n=g5 v=102
973080 Off ch=1 n=g5 v=65
973080 Off ch=1 n=b5 v=65
973200 On ch=1 n=g5 v=102
973200 On ch=1 n=c6 v=102
973320 Off ch=1 n=c6 v=65
973320 Off ch=1 n=g5 v=65
973440 On ch=1 n=f5 v=102
973440 On ch=1 n=f6 v=102
973560 Off ch=1 n=f6 v=65
973560 Off ch=1 n=f5 v=65
973920 On ch=1 n=c5 v=102
973920 On ch=1 n=f5 v=102
973920 On ch=1 n=a5 v=102
974040 Off ch=1 n=a5 v=65
974040 Off ch=1 n=f5 v=65
974040 Off ch=1 n=c5 v=65
974400 On ch=1 n=d5 v=53
974520 Off ch=1 n=d5 v=65
974520 On ch=1 n=d#5 v=53
974640 Off ch=1 n=d#5 v=65
974640 On ch=1 n=e5 v=53
974760 Off ch=1 n=e5 v=65
974760 On ch=1 n=f5 v=53
974880 Off ch=1 n=f5 v=65
974880 On ch=1 n=e5 v=53
975000 Off ch=1 n=e5 v=65
975000 On ch=1 n=c5 v=53
975120 Off ch=1 n=c5 v=65
975120 On ch=1 n=d5 v=53
975240 Off ch=1 n=d5 v=65
975240 On ch=1 n=e5 v=53
975360 Off ch=1 n=e5 v=65
975360 On ch=1 n=c5 v=53
975480 Off ch=1 n=c5 v=65
975480 On ch=1 n=c#5 v=53
975600 Off ch=1 n=c#5 v=65
975600 On ch=1 n=d5 v=53
975720 Off ch=1 n=d5 v=65
975720 On ch=1 n=d#5 v=53
975840 Off ch=1 n=d#5 v=65
975840 On ch=1 n=d5 v=53
975960 Off ch=1 n=d5 v=65
975960 On ch=1 n=a#4 v=53
976080 Off ch=1 n=a#4 v=65
976080 On ch=1 n=c5 v=53
976200 Off ch=1 n=c5 v=65
976200 On ch=1 n=d5 v=53
976320 Off ch=1 n=d5 v=65
976320 On ch=1 n=d5 v=53
976440 Off ch=1 n=d5 v=65
976440 On ch=1 n=d#5 v=53
976560 Off ch=1 n=d#5 v=65
976560 On ch=1 n=e5 v=53
976680 Off ch=1 n=e5 v=65
976680 On ch=1 n=f5 v=53
976800 Off ch=1 n=f5 v=65
976800 On ch=1 n=e5 v=53
976920 Off ch=1 n=e5 v=65
976920 On ch=1 n=c5 v=53
977040 Off ch=1 n=c5 v=65
977040 On ch=1 n=d5 v=53
977160 Off ch=1 n=d5 v=65
977160 On ch=1 n=e5 v=53
977280 Off ch=1 n=e5 v=65
977280 On ch=1 n=c5 v=53
977400 Off ch=1 n=c5 v=65
977400 On ch=1 n=c#5 v=53
977520 Off ch=1 n=c#5 v=65
977520 On ch=1 n=d5 v=53
977640 Off ch=1 n=d5 v=65
977640 On ch=1 n=d#5 v=53
977760 Off ch=1 n=d#5 v=65
977760 On ch=1 n=d5 v=53
977880 Off ch=1 n=d5 v=65
977880 On ch=1 n=a#4 v=53
978000 Off ch=1 n=a#4 v=65
978000 On ch=1 n=c5 v=53
978120 Off ch=1 n=c5 v=65
978120 On ch=1 n=d5 v=53
978240 Off ch=1 n=d5 v=65
978240 On ch=1 n=d5 v=58
978360 Off ch=1 n=d5 v=65
978360 On ch=1 n=d#5 v=58
978480 Off ch=1 n=d#5 v=65
978480 On ch=1 n=e5 v=58
978600 Off ch=1 n=e5 v=65
978600 On ch=1 n=f5 v=58
978720 Off ch=1 n=f5 v=65
978720 On ch=1 n=e5 v=58
978840 Off ch=1 n=e5 v=65
978840 On ch=1 n=c5 v=58
978960 Off ch=1 n=c5 v=65
978960 On ch=1 n=d5 v=58
979080 Off ch=1 n=d5 v=65
979080 On ch=1 n=e5 v=58
979200 Off ch=1 n=e5 v=65
979200 On ch=1 n=c5 v=63
979320 Off ch=1 n=c5 v=65
979320 On ch=1 n=c#5 v=63
979440 Off ch=1 n=c#5 v=65
979440 On ch=1 n=d5 v=63
979560 Off ch=1 n=d5 v=65
979560 On ch=1 n=d#5 v=63
979680 Off ch=1 n=d#5 v=65
979680 On ch=1 n=d5 v=63
979800 Off ch=1 n=d5 v=65
979800 On ch=1 n=a#4 v=63
979920 Off ch=1 n=a#4 v=65
979920 On ch=1 n=c5 v=63
980040 Off ch=1 n=c5 v=65
980040 On ch=1 n=d5 v=63
980160 Off ch=1 n=d5 v=65
980160 On ch=1 n=d5 v=68
980280 Off ch=1 n=d5 v=65
980280 On ch=1 n=d#5 v=68
980400 Off ch=1 n=d#5 v=65
980400 On ch=1 n=e5 v=68
980520 Off ch=1 n=e5 v=65
980520 On ch=1 n=f5 v=68
980640 Off ch=1 n=f5 v=65
980640 On ch=1 n=e5 v=68
980760 Off ch=1 n=e5 v=65
980760 On ch=1 n=c5 v=68
980880 Off ch=1 n=c5 v=65
980880 On ch=1 n=d5 v=68
981000 Off ch=1 n=d5 v=65
981000 On ch=1 n=e5 v=68
981120 Off ch=1 n=e5 v=65
981120 On ch=1 n=c5 v=73
981240 Off ch=1 n=c5 v=65
981240 On ch=1 n=c#5 v=73
981360 Off ch=1 n=c#5 v=65
981360 On ch=1 n=d5 v=73
981480 Off ch=1 n=d5 v=65
981480 On ch=1 n=d#5 v=73
981600 Off ch=1 n=d#5 v=65
981600 On ch=1 n=d5 v=73
981720 Off ch=1 n=d5 v=65
981720 On ch=1 n=a#4 v=73
981840 Off ch=1 n=a#4 v=65
981840 On ch=1 n=c5 v=73
981960 Off ch=1 n=c5 v=65
981960 On ch=1 n=d5 v=73
982080 Off ch=1 n=d5 v=65
982080 On ch=1 n=c5 v=78
982200 Off ch=1 n=c5 v=65
982200 On ch=1 n=g5 v=78
982320 Off ch=1 n=g5 v=65
982320 On ch=1 n=c6 v=96
982440 Off ch=1 n=c6 v=65
982440 On ch=1 n=g5 v=78
982560 Off ch=1 n=g5 v=65
982560 On ch=1 n=c6 v=96
982680 Off ch=1 n=c6 v=65
982680 On ch=1 n=g5 v=78
982800 Off ch=1 n=g5 v=65
982800 On ch=1 n=c5 v=78
982920 Off ch=1 n=c5 v=65
982920 On ch=1 n=g5 v=78
983040 Off ch=1 n=g5 v=65
983040 On ch=1 n=c#5 v=78
983160 Off ch=1 n=c#5 v=65
983160 On ch=1 n=g5 v=78
983280 Off ch=1 n=g5 v=65
983280 On ch=1 n=c#6 v=96
983400 Off ch=1 n=c#6 v=65
983400 On ch=1 n=g5 v=78
983520 Off ch=1 n=g5 v=65
983520 On ch=1 n=c#6 v=96
983640 Off ch=1 n=c#6 v=65
983640 On ch=1 n=g5 v=78
983760 Off ch=1 n=g5 v=65
983760 On ch=1 n=c#5 v=78
983880 Off ch=1 n=c#5 v=65
983880 On ch=1 n=g5 v=78
984000 Off ch=1 n=g5 v=65
984000 On ch=1 n=d5 v=83
984120 Off ch=1 n=d5 v=65
984120 On ch=1 n=a#5 v=83
984240 Off ch=1 n=a#5 v=65
984240 On ch=1 n=d6 v=101
984360 Off ch=1 n=d6 v=65
984360 On ch=1 n=d5 v=83
984480 Off ch=1 n=d5 v=65
984480 On ch=1 n=e5 v=88
984600 Off ch=1 n=e5 v=65
984600 On ch=1 n=a#5 v=88
984720 Off ch=1 n=a#5 v=65
984720 On ch=1 n=e6 v=106
984840 Off ch=1 n=e6 v=65
984840 On ch=1 n=e5 v=88
984960 Off ch=1 n=e5 v=65
984960 On ch=1 n=f5 v=93
985080 Off ch=1 n=f5 v=65
985080 On ch=1 n=c6 v=93
985200 Off ch=1 n=c6 v=65
985200 On ch=1 n=f6 v=111
985320 Off ch=1 n=f6 v=65
985320 On ch=1 n=c6 v=93
985440 Off ch=1 n=c6 v=65
985440 On ch=1 n=f6 v=116
985560 Off ch=1 n=f6 v=65
985560 On ch=1 n=c6 v=98
985680 Off ch=1 n=c6 v=65
985680 On ch=1 n=f5 v=98
985800 Off ch=1 n=f5 v=65
985800 On ch=1 n=c6 v=98
985920 Off ch=1 n=c6 v=65
985920 On ch=1 n=c6 v=102
986040 Off ch=1 n=c6 v=65
986040 On ch=1 n=g6 v=102
986160 Off ch=1 n=g6 v=65
986160 On ch=1 n=c7 v=120
986280 Off ch=1 n=c7 v=65
986280 On ch=1 n=g6 v=102
986400 Off ch=1 n=g6 v=65
986400 On ch=1 n=c7 v=120
986520 Off ch=1 n=c7 v=65
986520 On ch=1 n=g6 v=102
986640 Off ch=1 n=g6 v=65
986640 On ch=1 n=c6 v=102
986760 Off ch=1 n=c6 v=65
986760 On ch=1 n=g6 v=102
986880 Off ch=1 n=g6 v=65
986880 On ch=1 n=c#6 v=102
987000 Off ch=1 n=c#6 v=65
987000 On ch=1 n=g6 v=102
987120 Off ch=1 n=g6 v=65
987120 On ch=1 n=c#7 v=120
987240 Off ch=1 n=c#7 v=65
987240 On ch=1 n=g6 v=102
987360 Off ch=1 n=g6 v=65
987360 On ch=1 n=c#7 v=120
987480 Off ch=1 n=c#7 v=65
987480 On ch=1 n=g6 v=102
987600 Off ch=1 n=g6 v=65
987600 On ch=1 n=c#6 v=102
987720 Off ch=1 n=c#6 v=65
987720 On ch=1 n=g6 v=102
987840 Off ch=1 n=g6 v=65
987840 On ch=1 n=d6 v=107
987960 Off ch=1 n=d6 v=65
987960 On ch=1 n=a#6 v=107
988080 Off ch=1 n=a#6 v=65
988080 On ch=1 n=d7 v=125
988200 Off ch=1 n=d7 v=65
988200 On ch=1 n=a#6 v=107
988320 Off ch=1 n=a#6 v=65
988320 On ch=1 n=e6 v=112
988440 Off ch=1 n=e6 v=65
988440 On ch=1 n=a#6 v=112
988560 Off ch=1 n=a#6 v=65
988560 On ch=1 n=e7 v=127
988680 Off ch=1 n=e7 v=65
988680 On ch=1 n=a#6 v=112
988800 Off ch=1 n=a#6 v=65
988800 On ch=1 n=f6 v=117
988920 Off ch=1 n=f6 v=65
988920 On ch=1 n=c7 v=117
989040 Off ch=1 n=c7 v=65
989040 On ch=1 n=f7 v=127
989160 Off ch=1 n=f7 v=65
989160 On ch=1 n=c7 v=117
989280 Off ch=1 n=c7 v=65
989280 On ch=1 n=f7 v=127
989400 Off ch=1 n=f7 v=65
989400 On ch=1 n=c7 v=122
989520 Off ch=1 n=c7 v=65
989520 On ch=1 n=f6 v=122
989640 Off ch=1 n=f6 v=65
989640 On ch=1 n=c7 v=122
989760 Off ch=1 n=c7 v=65
989760 On ch=1 n=a#6 v=102
989760 On ch=1 n=a#7 v=102
989880 Off ch=1 n=a#7 v=65
989880 Off ch=1 n=a#6 v=65
990000 On ch=1 n=a#6 v=114
990120 Off ch=1 n=a#6 v=65
990120 On ch=1 n=d7 v=114
990240 Off ch=1 n=d7 v=65
990240 On ch=1 n=a#7 v=114
990360 Off ch=1 n=a#7 v=65
990360 On ch=1 n=f7 v=114
990480 Off ch=1 n=f7 v=65
990480 On ch=1 n=f6 v=114
990600 Off ch=1 n=f6 v=65
990600 On ch=1 n=a#6 v=114
990720 Off ch=1 n=a#6 v=65
990720 On ch=1 n=f7 v=114
990840 Off ch=1 n=f7 v=65
990840 On ch=1 n=d7 v=114
990960 Off ch=1 n=d7 v=65
990960 On ch=1 n=d6 v=114
991080 Off ch=1 n=d6 v=65
991080 On ch=1 n=f6 v=114
991200 Off ch=1 n=f6 v=65
991200 On ch=1 n=d7 v=114
991320 Off ch=1 n=d7 v=65
991320 On ch=1 n=a#6 v=114
991440 Off ch=1 n=a#6 v=65
991440 On ch=1 n=a#5 v=114
991560 Off ch=1 n=a#5 v=65
991560 On ch=1 n=d6 v=114
991680 Off ch=1 n=d6 v=65
991680 On ch=1 n=a#6 v=114
991800 Off ch=1 n=a#6 v=65
991800 On ch=1 n=f6 v=114
991920 Off ch=1 n=f6 v=65
991920 On ch=1 n=f5 v=114
992040 Off ch=1 n=f5 v=65
992040 On ch=1 n=a#5 v=114
992160 Off ch=1 n=a#5 v=65
992160 On ch=1 n=f6 v=114
992280 Off ch=1 n=f6 v=65
992280 On ch=1 n=d6 v=114
992400 Off ch=1 n=d6 v=65
992400 On ch=1 n=d5 v=114
992520 Off ch=1 n=d5 v=65
992520 On ch=1 n=f5 v=114
992640 Off ch=1 n=f5 v=65
992640 On ch=1 n=d6 v=114
992760 Off ch=1 n=d6 v=65
992760 On ch=1 n=a#5 v=114
992880 Off ch=1 n=a#5 v=65
992880 On ch=1 n=a#4 v=114
993000 Off ch=1 n=a#4 v=65
993000 On ch=1 n=d5 v=114
993120 Off ch=1 n=d5 v=65
993120 On ch=1 n=a#5 v=114
993240 Off ch=1 n=a#5 v=65
993240 On ch=1 n=f5 v=114
993360 Off ch=1 n=f5 v=65
993360 On ch=1 n=f4 v=114
993480 Off ch=1 n=f4 v=65
993480 On ch=1 n=a#4 v=114
993600 Off ch=1 n=a#4 v=65
994080 On ch=1 n=a#6 v=114
994080 On ch=1 n=a#5 v=114
994320 Off ch=1 n=a#5 v=65
994320 Off ch=1 n=a#6 v=65
995760 On ch=1 n=g#5 v=102
995760 On ch=1 n=d#5 v=102
995880 Off ch=1 n=d#5 v=65
995880 Off ch=1 n=g#5 v=65
995880 On ch=1 n=g#5 v=102
995880 On ch=1 n=d#5 v=102
996000 Off ch=1 n=d#5 v=65
996000 Off ch=1 n=g#5 v=65
996000 On ch=1 n=g#5 v=102
996000 On ch=1 n=d#5 v=102
996240 Off ch=1 n=d#5 v=65
996240 Off ch=1 n=g#5 v=65
996720 On ch=1 n=g#5 v=120
996720 On ch=1 n=d#5 v=120
996960 Off ch=1 n=d#5 v=65
996960 Off ch=1 n=g#5 v=65
997200 On ch=1 n=f#5 v=120
997200 On ch=1 n=d5 v=120
997200 On ch=1 n=c5 v=120
997440 Off ch=1 n=c5 v=65
997440 Off ch=1 n=d5 v=65
997440 Off ch=1 n=f#5 v=65
997680 On ch=1 n=g5 v=102
997680 On ch=1 n=d5 v=102
997800 Off ch=1 n=d5 v=65
997800 Off ch=1 n=g5 v=65
997800 On ch=1 n=g5 v=102
997800 On ch=1 n=d5 v=102
997920 Off ch=1 n=d5 v=65
997920 Off ch=1 n=g5 v=65
997920 On ch=1 n=g5 v=102
997920 On ch=1 n=d5 v=102
998160 Off ch=1 n=d5 v=65
998160 Off ch=1 n=g5 v=65
999600 On ch=1 n=g#5 v=102
999600 On ch=1 n=c#6 v=102
999720 Off ch=1 n=c#6 v=65
999720 Off ch=1 n=g#5 v=65
999720 On ch=1 n=c#6 v=102
999720 On ch=1 n=g#5 v=102
999840 Off ch=1 n=g#5 v=65
999840 Off ch=1 n=c#6 v=65
999840 On ch=1 n=c#6 v=102
999840 On ch=1 n=g#5 v=102
1000080 Off ch=1 n=g#5 v=65
1000080 Off ch=1 n=c#6 v=65
1000560 On ch=1 n=c#6 v=120
1000560 On ch=1 n=g#5 v=120
1000800 Off ch=1 n=g#5 v=65
1000800 Off ch=1 n=c#6 v=65
1001040 On ch=1 n=b5 v=120
1001040 On ch=1 n=g5 v=120
1001040 On ch=1 n=f5 v=120
1001280 Off ch=1 n=f5 v=65
1001280 Off ch=1 n=g5 v=65
1001280 Off ch=1 n=b5 v=65
1001520 On ch=1 n=g5 v=102
1001520 On ch=1 n=c6 v=102
1001640 Off ch=1 n=c6 v=65
1001640 Off ch=1 n=g5 v=65
1001640 On ch=1 n=c6 v=102
1001640 On ch=1 n=g5 v=102
1001760 Off ch=1 n=g5 v=65
1001760 Off ch=1 n=c6 v=65
1001760 On ch=1 n=c6 v=102
1001760 On ch=1 n=g5 v=102
1002000 Off ch=1 n=g5 v=65
1002000 Off ch=1 n=c6 v=65
1003440 On ch=1 n=g6 v=102
1003440 On ch=1 n=c6 v=102
1003440 On ch=1 n=g5 v=102
1003560 Off ch=1 n=g5 v=65
1003560 Off ch=1 n=c6 v=65
1003560 Off ch=1 n=g6 v=65
1003560 On ch=1 n=g6 v=102
1003560 On ch=1 n=c6 v=102
1003560 On ch=1 n=g5 v=102
1003680 Off ch=1 n=g5 v=65
1003680 Off ch=1 n=c6 v=65
1003680 Off ch=1 n=g6 v=65
1003680 On ch=1 n=g6 v=102
1003680 On ch=1 n=c6 v=102
1003680 On ch=1 n=g5 v=102
1003920 Off ch=1 n=g5 v=65
1003920 Off ch=1 n=c6 v=65
1003920 Off ch=1 n=g6 v=65
1004400 On ch=1 n=g6 v=120
1004400 On ch=1 n=c6 v=120
1004400 On ch=1 n=g5 v=120
1004640 Off ch=1 n=g5 v=65
1004640 Off ch=1 n=c6 v=65
1004640 Off ch=1 n=g6 v=65
1004880 On ch=1 n=c6 v=120
1004880 On ch=1 n=g#6 v=120
1004880 On ch=1 n=g#5 v=120
1005120 Off ch=1 n=g#5 v=65
1005120 Off ch=1 n=g#6 v=65
1005120 Off ch=1 n=c6 v=65
1005360 On ch=1 n=g5 v=102
1005360 On ch=1 n=g6 v=102
1005360 On ch=1 n=d6 v=102
1005480 Off ch=1 n=d6 v=65
1005480 Off ch=1 n=g6 v=65
1005480 Off ch=1 n=g5 v=65
1005480 On ch=1 n=g6 v=102
1005480 On ch=1 n=g5 v=102
1005480 On ch=1 n=d6 v=102
1005600 Off ch=1 n=d6 v=65
1005600 Off ch=1 n=g5 v=65
1005600 Off ch=1 n=g6 v=65
1005600 On ch=1 n=g6 v=102
1005600 On ch=1 n=g5 v=102
1005600 On ch=1 n=d6 v=102
1005840 Off ch=1 n=d6 v=65
1005840 Off ch=1 n=g5 v=65
1005840 Off ch=1 n=g6 v=65
1006320 On ch=1 n=g6 v=120
1006320 On ch=1 n=g5 v=120
1006320 On ch=1 n=d6 v=120
1006560 Off ch=1 n=d6 v=65
1006560 Off ch=1 n=g5 v=65
1006560 Off ch=1 n=g6 v=65
1006800 On ch=1 n=c6 v=120
1006800 On ch=1 n=g5 v=120
1006800 On ch=1 n=d#6 v=120
1007040 Off ch=1 n=d#6 v=65
1007040 Off ch=1 n=g5 v=65
1007040 Off ch=1 n=c6 v=65
1007280 On ch=1 n=f6 v=102
1007280 On ch=1 n=d#6 v=102
1007280 On ch=1 n=c6 v=102
1007280 On ch=1 n=f5 v=102
1007400 Off ch=1 n=f5 v=65
1007400 Off ch=1 n=c6 v=65
1007400 Off ch=1 n=d#6 v=65
1007400 Off ch=1 n=f6 v=65
1007400 On ch=1 n=f6 v=102
1007400 On ch=1 n=d#6 v=102
1007400 On ch=1 n=c6 v=102
1007400 On ch=1 n=f5 v=102
1007520 Off ch=1 n=f5 v=65
1007520 Off ch=1 n=c6 v=65
1007520 Off ch=1 n=d#6 v=65
1007520 Off ch=1 n=f6 v=65
1007520 On ch=1 n=f6 v=102
1007520 On ch=1 n=d#6 v=102
1007520 On ch=1 n=c6 v=102
1007520 On ch=1 n=f5 v=102
1007760 Off ch=1 n=f5 v=65
1007760 Off ch=1 n=c6 v=65
1007760 Off ch=1 n=d#6 v=65
1007760 Off ch=1 n=f6 v=65
1008240 On ch=1 n=f6 v=120
1008240 On ch=1 n=d#6 v=120
1008240 On ch=1 n=c6 v=120
1008240 On ch=1 n=f5 v=120
1008480 Off ch=1 n=f5 v=65
1008480 Off ch=1 n=c6 v=65
1008480 Off ch=1 n=d#6 v=65
1008480 Off ch=1 n=f6 v=65
1008720 On ch=1 n=a#6 v=120
1008720 On ch=1 n=f6 v=120
1008720 On ch=1 n=a#5 v=120
1008960 Off ch=1 n=a#5 v=65
1008960 Off ch=1 n=f6 v=65
1008960 Off ch=1 n=a#6 v=65
1009200 On ch=1 n=d#5 v=102
1009200 On ch=1 n=d#6 v=102
1009200 On ch=1 n=a#5 v=102
1009320 Off ch=1 n=a#5 v=65
1009320 Off ch=1 n=d#6 v=65
1009320 Off ch=1 n=d#5 v=65
1009320 On ch=1 n=d#5 v=102
1009320 On ch=1 n=d#6 v=102
1009320 On ch=1 n=a#5 v=102
1009440 Off ch=1 n=a#5 v=65
1009440 Off ch=1 n=d#6 v=65
1009440 Off ch=1 n=d#5 v=65
1009440 On ch=1 n=d#5 v=102
1009440 On ch=1 n=d#6 v=102
1009440 On ch=1 n=a#5 v=102
1009680 Off ch=1 n=a#5 v=65
1009680 Off ch=1 n=d#6 v=65
1009680 Off ch=1 n=d#5 v=65
1010160 On ch=1 n=d#5 v=120
1010160 On ch=1 n=d#6 v=120
1010160 On ch=1 n=a#5 v=120
1010400 Off ch=1 n=a#5 v=65
1010400 Off ch=1 n=d#6 v=65
1010400 Off ch=1 n=d#5 v=65
1010640 On ch=1 n=d#6 v=120
1010640 On ch=1 n=a#5 v=120
1010640 On ch=1 n=d#5 v=120
1010880 Off ch=1 n=d#5 v=65
1010880 Off ch=1 n=a#5 v=65
1010880 Off ch=1 n=d#6 v=65
1011120 On ch=1 n=a#5 v=102
1011120 On ch=1 n=d5 v=102
1011240 Off ch=1 n=d5 v=65
1011240 Off ch=1 n=a#5 v=65
1011240 On ch=1 n=a#5 v=102
1011240 On ch=1 n=d5 v=102
1011360 Off ch=1 n=d5 v=65
1011360 Off ch=1 n=a#5 v=65
1011360 On ch=1 n=a#5 v=102
1011360 On ch=1 n=d5 v=102
1011600 Off ch=1 n=d5 v=65
1011600 Off ch=1 n=a#5 v=65
1012080 On ch=1 n=a#5 v=120
1012080 On ch=1 n=d5 v=120
1012320 Off ch=1 n=d5 v=65
1012320 Off ch=1 n=a#5 v=65
1012560 On ch=1 n=a#5 v=120
1012560 On ch=1 n=d#5 v=120
1012800 Off ch=1 n=d#5 v=65
1012800 Off ch=1 n=a#5 v=65
1012800 On ch=1 n=g#5 v=127
1013040 On ch=1 n=d5 v=102
1013040 On ch=1 n=a#5 v=102
1013160 Off ch=1 n=a#5 v=65
1013160 Off ch=1 n=d5 v=65
1013160 On ch=1 n=a#5 v=102
1013160 On ch=1 n=d5 v=102
1013280 Off ch=1 n=d5 v=65
1013280 Off ch=1 n=a#5 v=65
1013280 On ch=1 n=a#5 v=102
1013280 On ch=1 n=d5 v=102
1013520 Off ch=1 n=d5 v=65
1013520 Off ch=1 n=a#5 v=65
1014000 On ch=1 n=d5 v=102
1014000 On ch=1 n=a#5 v=102
1014240 Off ch=1 n=a#5 v=65
1014240 Off ch=1 n=g#5 v=65
1014240 Off ch=1 n=d5 v=65
1014240 On ch=1 n=g5 v=127
1014480 On ch=1 n=a#5 v=102
1014480 On ch=1 n=d#5 v=102
1014720 Off ch=1 n=d#5 v=65
1014720 Off ch=1 n=a#5 v=65
1014720 Off ch=1 n=g5 v=65
1014720 On ch=1 n=f5 v=127
1014960 On ch=1 n=d5 v=102
1014960 On ch=1 n=a#5 v=102
1015080 Off ch=1 n=a#5 v=65
1015080 Off ch=1 n=d5 v=65
1015080 On ch=1 n=a#5 v=102
1015080 On ch=1 n=d5 v=102
1015200 Off ch=1 n=d5 v=65
1015200 Off ch=1 n=a#5 v=65
1015200 On ch=1 n=a#5 v=102
1015200 On ch=1 n=d5 v=102
1015440 Off ch=1 n=d5 v=65
1015440 Off ch=1 n=a#5 v=65
1015920 On ch=1 n=a#5 v=120
1015920 On ch=1 n=d5 v=120
1016160 Off ch=1 n=d5 v=65
1016160 Off ch=1 n=f5 v=65
1016160 Off ch=1 n=a#5 v=65
1016160 On ch=1 n=g5 v=127
1016400 On ch=1 n=a#5 v=120
1016400 On ch=1 n=d#5 v=120
1016640 Off ch=1 n=d#5 v=65
1016640 Off ch=1 n=a#5 v=65
1016640 Off ch=1 n=g5 v=65
1016640 On ch=1 n=g#5 v=127
1016880 On ch=1 n=a#5 v=102
1016880 On ch=1 n=d5 v=102
1017000 Off ch=1 n=d5 v=65
1017000 Off ch=1 n=a#5 v=65
1017000 On ch=1 n=a#5 v=102
1017000 On ch=1 n=d5 v=102
1017120 Off ch=1 n=d5 v=65
1017120 Off ch=1 n=a#5 v=65
1017120 On ch=1 n=a#5 v=102
1017120 On ch=1 n=d5 v=102
1017360 Off ch=1 n=d5 v=65
1017360 Off ch=1 n=a#5 v=65
1017840 On ch=1 n=d5 v=102
1017840 On ch=1 n=a#5 v=102
1018080 Off ch=1 n=a#5 v=65
1018080 Off ch=1 n=g#5 v=65
1018080 Off ch=1 n=d5 v=65
1018080 On ch=1 n=a5 v=127
1018320 Off ch=1 n=a5 v=65
1018320 On ch=1 n=a#5 v=102
1018320 On ch=1 n=d#5 v=102
1018560 Off ch=1 n=d#5 v=65
1018560 Off ch=1 n=a#5 v=65
1018560 On ch=1 n=c6 v=127
1018800 On ch=1 n=d#5 v=102
1018800 On ch=1 n=g5 v=102
1018920 Off ch=1 n=g5 v=65
1018920 Off ch=1 n=d#5 v=65
1018920 On ch=1 n=d#5 v=102
1018920 On ch=1 n=g5 v=102
1019040 Off ch=1 n=g5 v=65
1019040 Off ch=1 n=d#5 v=65
1019040 On ch=1 n=d#5 v=102
1019040 On ch=1 n=g5 v=102
1019280 Off ch=1 n=g5 v=65
1019280 Off ch=1 n=d#5 v=65
1019760 On ch=1 n=d#5 v=120
1019760 On ch=1 n=g5 v=120
1020000 Off ch=1 n=g5 v=65
1020000 Off ch=1 n=c6 v=65
1020000 Off ch=1 n=d#5 v=65
1020000 On ch=1 n=a#5 v=127
1020240 On ch=1 n=d#5 v=120
1020240 On ch=1 n=g5 v=120
1020480 Off ch=1 n=g5 v=65
1020480 Off ch=1 n=d#5 v=65
1020480 Off ch=1 n=a#5 v=65
1020720 On ch=1 n=d#5 v=102
1020720 On ch=1 n=g#5 v=102
1020840 Off ch=1 n=g#5 v=65
1020840 Off ch=1 n=d#5 v=65
1020840 On ch=1 n=d#5 v=102
1020840 On ch=1 n=g#5 v=102
1020960 Off ch=1 n=g#5 v=65
1020960 Off ch=1 n=d#5 v=65
1020960 On ch=1 n=d#5 v=102
1020960 On ch=1 n=g#5 v=102
1021200 Off ch=1 n=g#5 v=65
1021200 Off ch=1 n=d#5 v=65
1021680 On ch=1 n=d#5 v=120
1021680 On ch=1 n=g#5 v=120
1021920 Off ch=1 n=g#5 v=65
1021920 Off ch=1 n=d#5 v=65
1022160 On ch=1 n=d6 v=120
1022160 On ch=1 n=a5 v=120
1022160 On ch=1 n=f#5 v=120
1022400 Off ch=1 n=f#5 v=65
1022400 Off ch=1 n=a5 v=65
1022400 Off ch=1 n=d6 v=65
1022640 On ch=1 n=g6 v=102
1022640 On ch=1 n=d6 v=102
1022640 On ch=1 n=g5 v=102
1022760 Off ch=1 n=g5 v=65
1022760 Off ch=1 n=d6 v=65
1022760 Off ch=1 n=g6 v=65
1022760 On ch=1 n=g6 v=102
1022760 On ch=1 n=d6 v=102
1022760 On ch=1 n=g5 v=102
1022880 Off ch=1 n=g5 v=65
1022880 Off ch=1 n=d6 v=65
1022880 Off ch=1 n=g6 v=65
1022880 On ch=1 n=d6 v=102
1022880 On ch=1 n=g5 v=102
1022880 On ch=1 n=g6 v=102
1023120 Off ch=1 n=g6 v=65
1023120 Off ch=1 n=g5 v=65
1023120 Off ch=1 n=d6 v=65
1024560 On ch=1 n=c#6 v=102
1024560 On ch=1 n=g#5 v=102
1024680 Off ch=1 n=g#5 v=65
1024680 Off ch=1 n=c#6 v=65
1024680 On ch=1 n=c#6 v=102
1024680 On ch=1 n=g#5 v=102
1024800 Off ch=1 n=g#5 v=65
1024800 Off ch=1 n=c#6 v=65
1024800 On ch=1 n=c#6 v=102
1024800 On ch=1 n=g#5 v=102
1025040 Off ch=1 n=g#5 v=65
1025040 Off ch=1 n=c#6 v=65
1025520 On ch=1 n=c#6 v=120
1025520 On ch=1 n=g#5 v=120
1025760 Off ch=1 n=g#5 v=65
1025760 Off ch=1 n=c#6 v=65
1026000 On ch=1 n=g6 v=120
1026000 On ch=1 n=d6 v=120
1026000 On ch=1 n=g5 v=120
1026240 Off ch=1 n=g5 v=65
1026240 Off ch=1 n=d6 v=65
1026240 Off ch=1 n=g6 v=65
1026480 On ch=1 n=c7 v=102
1026480 On ch=1 n=g6 v=102
1026480 On ch=1 n=c6 v=102
1026600 Off ch=1 n=c6 v=65
1026600 Off ch=1 n=g6 v=65
1026600 Off ch=1 n=c7 v=65
1026600 On ch=1 n=c7 v=102
1026600 On ch=1 n=g6 v=102
1026600 On ch=1 n=c6 v=102
1026720 Off ch=1 n=c6 v=65
1026720 Off ch=1 n=g6 v=65
1026720 Off ch=1 n=c7 v=65
1026720 On ch=1 n=c7 v=102
1026720 On ch=1 n=g6 v=102
1026720 On ch=1 n=c6 v=102
1026960 Off ch=1 n=c6 v=65
1026960 Off ch=1 n=g6 v=65
1026960 Off ch=1 n=c7 v=65
1028400 On ch=1 n=c6 v=102
1028400 On ch=1 n=c7 v=102
1028400 On ch=1 n=f6 v=102
1028520 Off ch=1 n=f6 v=65
1028520 Off ch=1 n=c7 v=65
1028520 Off ch=1 n=c6 v=65
1028520 On ch=1 n=c6 v=102
1028520 On ch=1 n=c7 v=102
1028520 On ch=1 n=f6 v=102
1028640 Off ch=1 n=f6 v=65
1028640 Off ch=1 n=c7 v=65
1028640 Off ch=1 n=c6 v=65
1028640 On ch=1 n=c6 v=102
1028640 On ch=1 n=c7 v=102
1028640 On ch=1 n=f6 v=102
1028880 Off ch=1 n=f6 v=65
1028880 Off ch=1 n=c7 v=65
1028880 Off ch=1 n=c6 v=65
1029360 On ch=1 n=c6 v=120
1029360 On ch=1 n=c7 v=120
1029360 On ch=1 n=f6 v=120
1029600 Off ch=1 n=f6 v=65
1029600 Off ch=1 n=c7 v=65
1029600 Off ch=1 n=c6 v=65
1029840 On ch=1 n=f6 v=120
1029840 On ch=1 n=c#6 v=120
1029840 On ch=1 n=c#7 v=120
1030080 Off ch=1 n=c#7 v=65
1030080 Off ch=1 n=c#6 v=65
1030080 Off ch=1 n=f6 v=65
1030320 On ch=1 n=c7 v=102
1030320 On ch=1 n=g6 v=102
1030320 On ch=1 n=c6 v=102
1030440 Off ch=1 n=c6 v=65
1030440 Off ch=1 n=g6 v=65
1030440 Off ch=1 n=c7 v=65
1030440 On ch=1 n=c7 v=102
1030440 On ch=1 n=g6 v=102
1030440 On ch=1 n=c6 v=102
1030560 Off ch=1 n=c6 v=65
1030560 Off ch=1 n=g6 v=65
1030560 Off ch=1 n=c7 v=65
1030560 On ch=1 n=c7 v=102
1030560 On ch=1 n=g6 v=102
1030560 On ch=1 n=c6 v=102
1030800 Off ch=1 n=c6 v=65
1030800 Off ch=1 n=g6 v=65
1030800 Off ch=1 n=c7 v=65
1031280 On ch=1 n=c7 v=120
1031280 On ch=1 n=g6 v=120
1031280 On ch=1 n=c6 v=120
1031520 Off ch=1 n=c6 v=65
1031520 Off ch=1 n=g6 v=65
1031520 Off ch=1 n=c7 v=65
1031760 On ch=1 n=f6 v=120
1031760 On ch=1 n=c6 v=120
1031760 On ch=1 n=g#6 v=120
1032000 Off ch=1 n=g#6 v=65
1032000 Off ch=1 n=c6 v=65
1032000 Off ch=1 n=f6 v=65
1032240 On ch=1 n=a#6 v=102
1032240 On ch=1 n=g#6 v=102
1032240 On ch=1 n=f6 v=102
1032240 On ch=1 n=a#5 v=102
1032360 Off ch=1 n=a#5 v=65
1032360 Off ch=1 n=f6 v=65
1032360 Off ch=1 n=g#6 v=65
1032360 Off ch=1 n=a#6 v=65
1032360 On ch=1 n=a#6 v=102
1032360 On ch=1 n=g#6 v=102
1032360 On ch=1 n=f6 v=102
1032360 On ch=1 n=a#5 v=102
1032480 Off ch=1 n=a#5 v=65
1032480 Off ch=1 n=f6 v=65
1032480 Off ch=1 n=g#6 v=65
1032480 Off ch=1 n=a#6 v=65
1032480 On ch=1 n=a#6 v=102
1032480 On ch=1 n=g#6 v=102
1032480 On ch=1 n=f6 v=102
1032480 On ch=1 n=a#5 v=102
1032720 Off ch=1 n=a#5 v=65
1032720 Off ch=1 n=f6 v=65
1032720 Off ch=1 n=g#6 v=65
1032720 Off ch=1 n=a#6 v=65
1033200 On ch=1 n=a#6 v=120
1033200 On ch=1 n=g#6 v=120
1033200 On ch=1 n=f6 v=120
1033200 On ch=1 n=a#5 v=120
1033440 Off ch=1 n=a#5 v=65
1033440 Off ch=1 n=f6 v=65
1033440 Off ch=1 n=g#6 v=65
1033440 Off ch=1 n=a#6 v=65
1033680 On ch=1 n=d#7 v=120
1033680 On ch=1 n=a#6 v=120
1033680 On ch=1 n=d#6 v=120
1033920 Off ch=1 n=d#6 v=65
1033920 Off ch=1 n=a#6 v=65
1033920 Off ch=1 n=d#7 v=65
1034160 On ch=1 n=g#6 v=102
1034160 On ch=1 n=d#6 v=102
1034160 On ch=1 n=g#5 v=102
1034280 Off ch=1 n=g#5 v=65
1034280 Off ch=1 n=d#6 v=65
1034280 Off ch=1 n=g#6 v=65
1034280 On ch=1 n=g#6 v=102
1034280 On ch=1 n=d#6 v=102
1034280 On ch=1 n=g#5 v=102
1034400 Off ch=1 n=g#5 v=65
1034400 Off ch=1 n=d#6 v=65
1034400 Off ch=1 n=g#6 v=65
1034400 On ch=1 n=g#6 v=102
1034400 On ch=1 n=d#6 v=102
1034400 On ch=1 n=g#5 v=102
1034640 Off ch=1 n=g#5 v=65
1034640 Off ch=1 n=d#6 v=65
1034640 Off ch=1 n=g#6 v=65
1035120 On ch=1 n=g#6 v=120
1035120 On ch=1 n=d#6 v=120
1035120 On ch=1 n=g#5 v=120
1035360 Off ch=1 n=g#5 v=65
1035360 Off ch=1 n=d#6 v=65
1035360 Off ch=1 n=g#6 v=65
1035600 On ch=1 n=g#6 v=120
1035600 On ch=1 n=d#6 v=120
1035600 On ch=1 n=g#5 v=120
1035840 Off ch=1 n=g#5 v=65
1035840 Off ch=1 n=d#6 v=65
1035840 Off ch=1 n=g#6 v=65
1036080 On ch=1 n=f#5 v=78
1036080 On ch=1 n=d5 v=78
1036080 On ch=1 n=c5 v=78
1036200 Off ch=1 n=c5 v=65
1036200 Off ch=1 n=d5 v=65
1036200 Off ch=1 n=f#5 v=65
1036200 On ch=1 n=f#5 v=78
1036200 On ch=1 n=d5 v=78
1036200 On ch=1 n=c5 v=78
1036320 Off ch=1 n=c5 v=65
1036320 Off ch=1 n=d5 v=65
1036320 Off ch=1 n=f#5 v=65
1036320 On ch=1 n=f#5 v=78
1036320 On ch=1 n=d5 v=78
1036320 On ch=1 n=c5 v=78
1036440 Off ch=1 n=c5 v=65
1036440 Off ch=1 n=d5 v=65
1036440 Off ch=1 n=f#5 v=65
1037040 On ch=1 n=f#5 v=78
1037040 On ch=1 n=d5 v=78
1037040 On ch=1 n=c5 v=78
1037160 Off ch=1 n=c5 v=65
1037160 Off ch=1 n=d5 v=65
1037160 Off ch=1 n=f#5 v=65
1037520 On ch=1 n=f#5 v=78
1037520 On ch=1 n=d5 v=78
1037520 On ch=1 n=c5 v=78
1037640 Off ch=1 n=c5 v=65
1037640 Off ch=1 n=d5 v=65
1037640 Off ch=1 n=f#5 v=65
1038000 On ch=1 n=d5 v=78
1038000 On ch=1 n=g5 v=78
1038000 On ch=1 n=a#4 v=78
1038120 Off ch=1 n=a#4 v=65
1038120 Off ch=1 n=g5 v=65
1038120 Off ch=1 n=d5 v=65
1038120 On ch=1 n=d5 v=78
1038120 On ch=1 n=g5 v=78
1038120 On ch=1 n=a#4 v=78
1038240 Off ch=1 n=a#4 v=65
1038240 Off ch=1 n=g5 v=65
1038240 Off ch=1 n=d5 v=65
1038240 On ch=1 n=d5 v=78
1038240 On ch=1 n=g5 v=78
1038240 On ch=1 n=a#4 v=78
1038360 Off ch=1 n=a#4 v=65
1038360 Off ch=1 n=g5 v=65
1038360 Off ch=1 n=d5 v=65
1038960 On ch=1 n=d5 v=78
1038960 On ch=1 n=g5 v=78
1038960 On ch=1 n=a#4 v=78
1039080 Off ch=1 n=a#4 v=65
1039080 Off ch=1 n=g5 v=65
1039080 Off ch=1 n=d5 v=65
1039440 On ch=1 n=d5 v=78
1039440 On ch=1 n=a#4 v=78
1039440 On ch=1 n=g5 v=78
1039560 Off ch=1 n=g5 v=65
1039560 Off ch=1 n=a#4 v=65
1039560 Off ch=1 n=d5 v=65
1039920 On ch=1 n=f#4 v=53
1039920 On ch=1 n=a#4 v=53
1039920 On ch=1 n=e5 v=53
1040040 Off ch=1 n=e5 v=65
1040040 Off ch=1 n=a#4 v=65
1040040 Off ch=1 n=f#4 v=65
1040040 On ch=1 n=f#4 v=53
1040040 On ch=1 n=a#4 v=53
1040040 On ch=1 n=e5 v=53
1040160 Off ch=1 n=e5 v=65
1040160 Off ch=1 n=a#4 v=65
1040160 Off ch=1 n=f#4 v=65
1040160 On ch=1 n=f#4 v=53
1040160 On ch=1 n=a#4 v=53
1040160 On ch=1 n=e5 v=53
1040280 Off ch=1 n=e5 v=65
1040280 Off ch=1 n=a#4 v=65
1040280 Off ch=1 n=f#4 v=65
1040880 On ch=1 n=f#4 v=53
1040880 On ch=1 n=a#4 v=53
1040880 On ch=1 n=e5 v=53
1041000 Off ch=1 n=e5 v=65
1041000 Off ch=1 n=a#4 v=65
1041000 Off ch=1 n=f#4 v=65
1041360 On ch=1 n=f#4 v=53
1041360 On ch=1 n=a#4 v=53
1041360 On ch=1 n=e5 v=53
1041480 Off ch=1 n=e5 v=65
1041480 Off ch=1 n=a#4 v=65
1041480 Off ch=1 n=f#4 v=65
1041840 On ch=1 n=c5 v=53
1041840 On ch=1 n=a4 v=53
1041840 On ch=1 n=f5 v=53
1041960 Off ch=1 n=f5 v=65
1041960 Off ch=1 n=a4 v=65
1041960 Off ch=1 n=c5 v=65
1041960 On ch=1 n=c5 v=53
1041960 On ch=1 n=a4 v=53
1041960 On ch=1 n=f5 v=53
1042080 Off ch=1 n=f5 v=65
1042080 Off ch=1 n=a4 v=65
1042080 Off ch=1 n=c5 v=65
1042080 On ch=1 n=c5 v=53
1042080 On ch=1 n=a4 v=53
1042080 On ch=1 n=f5 v=53
1042200 Off ch=1 n=f5 v=65
1042200 Off ch=1 n=a4 v=65
1042200 Off ch=1 n=c5 v=65
1042800 On ch=1 n=c5 v=53
1042800 On ch=1 n=a4 v=53
1042800 On ch=1 n=f5 v=53
1042920 Off ch=1 n=f5 v=65
1042920 Off ch=1 n=a4 v=65
1042920 Off ch=1 n=c5 v=65
1043280 On ch=1 n=c5 v=53
1043280 On ch=1 n=a4 v=53
1043280 On ch=1 n=f5 v=53
1043400 Off ch=1 n=f5 v=65
1043400 Off ch=1 n=a4 v=65
1043400 Off ch=1 n=c5 v=65
1043760 On ch=1 n=a#4 v=53
1043760 On ch=1 n=f#4 v=53
1043760 On ch=1 n=e5 v=53
1043880 Off ch=1 n=e5 v=65
1043880 Off ch=1 n=f#4 v=65
1043880 Off ch=1 n=a#4 v=65
1043880 On ch=1 n=f#4 v=53
1043880 On ch=1 n=a#4 v=53
1043880 On ch=1 n=e5 v=53
1044000 Off ch=1 n=e5 v=65
1044000 Off ch=1 n=a#4 v=65
1044000 Off ch=1 n=f#4 v=65
1044000 On ch=1 n=f#4 v=53
1044000 On ch=1 n=a#4 v=53
1044000 On ch=1 n=e5 v=53
1044120 Off ch=1 n=e5 v=65
1044120 Off ch=1 n=a#4 v=65
1044120 Off ch=1 n=f#4 v=65
1044720 On ch=1 n=f#4 v=53
1044720 On ch=1 n=a#4 v=53
1044720 On ch=1 n=e5 v=53
1044840 Off ch=1 n=e5 v=65
1044840 Off ch=1 n=a#4 v=65
1044840 Off ch=1 n=f#4 v=65
1045200 On ch=1 n=f#4 v=53
1045200 On ch=1 n=a#4 v=53
1045200 On ch=1 n=e5 v=53
1045320 Off ch=1 n=e5 v=65
1045320 Off ch=1 n=a#4 v=65
1045320 Off ch=1 n=f#4 v=65
1045680 On ch=1 n=f5 v=53
1045680 On ch=1 n=a4 v=53
1045680 On ch=1 n=c5 v=53
1045800 Off ch=1 n=c5 v=65
1045800 Off ch=1 n=a4 v=65
1045800 Off ch=1 n=f5 v=65
1045800 On ch=1 n=c5 v=53
1045800 On ch=1 n=a4 v=53
1045800 On ch=1 n=f5 v=53
1045920 Off ch=1 n=f5 v=65
1045920 Off ch=1 n=a4 v=65
1045920 Off ch=1 n=c5 v=65
1045920 On ch=1 n=c5 v=53
1045920 On ch=1 n=a4 v=53
1045920 On ch=1 n=f5 v=53
1046040 Off ch=1 n=f5 v=65
1046040 Off ch=1 n=a4 v=65
1046040 Off ch=1 n=c5 v=65
1046640 On ch=1 n=c5 v=53
1046640 On ch=1 n=a4 v=53
1046640 On ch=1 n=f5 v=53
1046760 Off ch=1 n=f5 v=65
1046760 Off ch=1 n=a4 v=65
1046760 Off ch=1 n=c5 v=65
1047120 On ch=1 n=c5 v=53
1047120 On ch=1 n=a4 v=53
1047120 On ch=1 n=f5 v=53
1047240 Off ch=1 n=f5 v=65
1047240 Off ch=1 n=a4 v=65
1047240 Off ch=1 n=c5 v=65
1047600 On ch=1 n=f5 v=50
1047600 On ch=1 n=a4 v=50
1047600 On ch=1 n=c5 v=50
1047720 Off ch=1 n=c5 v=65
1047720 Off ch=1 n=a4 v=65
1047720 Off ch=1 n=f5 v=65
1047720 On ch=1 n=c5 v=50
1047720 On ch=1 n=a4 v=50
1047720 On ch=1 n=f5 v=50
1047840 Off ch=1 n=f5 v=65
1047840 Off ch=1 n=a4 v=65
1047840 Off ch=1 n=c5 v=65
1047840 On ch=1 n=c5 v=47
1047840 On ch=1 n=a4 v=47
1047840 On ch=1 n=f5 v=47
1047960 Off ch=1 n=f5 v=65
1047960 Off ch=1 n=a4 v=65
1047960 Off ch=1 n=c5 v=65
1048560 On ch=1 n=c5 v=47
1048560 On ch=1 n=a4 v=47
1048560 On ch=1 n=f5 v=47
1048680 Off ch=1 n=f5 v=65
1048680 Off ch=1 n=a4 v=65
1048680 Off ch=1 n=c5 v=65
1049040 On ch=1 n=c5 v=41
1049040 On ch=1 n=a4 v=41
1049040 On ch=1 n=f5 v=41
1049160 Off ch=1 n=f5 v=65
1049160 Off ch=1 n=a4 v=65
1049160 Off ch=1 n=c5 v=65
1052640 On ch=1 n=c#6 v=90
1052640 On ch=1 n=c#5 v=90
1052880 Off ch=1 n=c#5 v=65
1052880 Off ch=1 n=c#6 v=65
1052880 On ch=1 n=d6 v=90
1052880 On ch=1 n=d5 v=90
1053120 Off ch=1 n=d5 v=65
1053120 Off ch=1 n=d6 v=65
1053120 On ch=1 n=d#5 v=90
1053120 On ch=1 n=d#6 v=90
1053360 Off ch=1 n=d#6 v=65
1053360 Off ch=1 n=d#5 v=65
1053360 On ch=1 n=d6 v=90
1053360 On ch=1 n=d5 v=90
1053600 Off ch=1 n=d5 v=65
1053600 Off ch=1 n=d6 v=65
1053600 On ch=1 n=c#5 v=90
1053600 On ch=1 n=c#6 v=90
1053840 Off ch=1 n=c#6 v=65
1053840 Off ch=1 n=c#5 v=65
1053840 On ch=1 n=d6 v=90
1053840 On ch=1 n=d5 v=90
1054080 Off ch=1 n=d5 v=65
1054080 Off ch=1 n=d6 v=65
1054080 On ch=1 n=c6 v=90
1054080 On ch=1 n=c5 v=90
1054320 Off ch=1 n=c5 v=65
1054320 Off ch=1 n=c6 v=65
1054320 On ch=1 n=a#4 v=90
1054320 On ch=1 n=a#5 v=90
1054560 Off ch=1 n=a#5 v=65
1054560 Off ch=1 n=a#4 v=65
1054560 On ch=1 n=a5 v=90
1054560 On ch=1 n=a4 v=90
1054800 Off ch=1 n=a4 v=65
1054800 Off ch=1 n=a5 v=65
1054800 On ch=1 n=a#4 v=90
1054800 On ch=1 n=a#5 v=90
1055040 Off ch=1 n=a#5 v=65
1055040 Off ch=1 n=a#4 v=65
1056480 On ch=1 n=d6 v=90
1056480 On ch=1 n=d5 v=90
1056720 Off ch=1 n=d5 v=65
1056720 Off ch=1 n=d6 v=65
1056720 On ch=1 n=d#6 v=90
1056720 On ch=1 n=d#5 v=90
1056960 Off ch=1 n=d#5 v=65
1056960 Off ch=1 n=d#6 v=65
1056960 On ch=1 n=e5 v=90
1056960 On ch=1 n=e6 v=90
1057200 Off ch=1 n=e6 v=65
1057200 Off ch=1 n=e5 v=65
1057200 On ch=1 n=d#6 v=90
1057200 On ch=1 n=d#5 v=90
1057440 Off ch=1 n=d#5 v=65
1057440 Off ch=1 n=d#6 v=65
1057440 On ch=1 n=d5 v=90
1057440 On ch=1 n=d6 v=90
1057680 Off ch=1 n=d6 v=65
1057680 Off ch=1 n=d5 v=65
1057680 On ch=1 n=d#6 v=90
1057680 On ch=1 n=d#5 v=90
1057920 Off ch=1 n=d#5 v=65
1057920 Off ch=1 n=d#6 v=65
1057920 On ch=1 n=c#6 v=90
1057920 On ch=1 n=c#5 v=90
1058160 Off ch=1 n=c#5 v=65
1058160 Off ch=1 n=c#6 v=65
1058160 On ch=1 n=c5 v=90
1058160 On ch=1 n=c6 v=90
1058400 Off ch=1 n=c6 v=65
1058400 Off ch=1 n=c5 v=65
1058400 On ch=1 n=b4 v=90
1058400 On ch=1 n=b5 v=90
1058640 Off ch=1 n=b5 v=65
1058640 Off ch=1 n=b4 v=65
1058640 On ch=1 n=c5 v=90
1058640 On ch=1 n=c6 v=90
1058880 Off ch=1 n=c6 v=65
1058880 Off ch=1 n=c5 v=65
1060320 On ch=1 n=e5 v=90
1060320 On ch=1 n=e6 v=90
1060560 Off ch=1 n=e6 v=65
1060560 Off ch=1 n=e5 v=65
1060560 On ch=1 n=f6 v=90
1060560 On ch=1 n=f5 v=90
1060800 Off ch=1 n=f5 v=65
1060800 Off ch=1 n=f6 v=65
1060800 On ch=1 n=g5 v=90
1060800 On ch=1 n=g6 v=90
1061040 Off ch=1 n=g6 v=65
1061040 Off ch=1 n=g5 v=65
1061040 On ch=1 n=f6 v=90
1061040 On ch=1 n=f5 v=90
1061280 Off ch=1 n=f5 v=65
1061280 Off ch=1 n=f6 v=65
1061280 On ch=1 n=e5 v=90
1061280 On ch=1 n=e6 v=90
1061520 Off ch=1 n=e6 v=65
1061520 Off ch=1 n=e5 v=65
1061520 On ch=1 n=f6 v=90
1061520 On ch=1 n=f5 v=90
1061760 Off ch=1 n=f5 v=65
1061760 Off ch=1 n=f6 v=65
1061760 On ch=1 n=d#6 v=90
1061760 On ch=1 n=d#5 v=90
1062000 Off ch=1 n=d#5 v=65
1062000 Off ch=1 n=d#6 v=65
1062000 On ch=1 n=d6 v=90
1062000 On ch=1 n=d5 v=90
1062240 Off ch=1 n=d5 v=65
1062240 Off ch=1 n=d6 v=65
1062240 On ch=1 n=c#6 v=90
1062240 On ch=1 n=c#5 v=90
1062480 Off ch=1 n=c#5 v=65
1062480 Off ch=1 n=c#6 v=65
1062480 On ch=1 n=d6 v=90
1062480 On ch=1 n=d5 v=90
1062720 Off ch=1 n=d5 v=65
1062720 Off ch=1 n=d6 v=65
1062720 On ch=1 n=f5 v=90
1062720 On ch=1 n=f6 v=90
1062960 Off ch=1 n=f6 v=65
1062960 Off ch=1 n=f5 v=65
1062960 On ch=1 n=d#5 v=90
1062960 On ch=1 n=d#6 v=90
1063200 Off ch=1 n=d#6 v=65
1063200 Off ch=1 n=d#5 v=65
1063200 On ch=1 n=d6 v=90
1063200 On ch=1 n=d5 v=90
1063440 Off ch=1 n=d5 v=65
1063440 Off ch=1 n=d6 v=65
1063440 On ch=1 n=c5 v=90
1063440 On ch=1 n=c6 v=90
1063680 Off ch=1 n=c6 v=65
1063680 Off ch=1 n=c5 v=65
1063680 On ch=1 n=d#6 v=90
1063680 On ch=1 n=d#5 v=90
1063920 Off ch=1 n=d#5 v=65
1063920 Off ch=1 n=d#6 v=65
1063920 On ch=1 n=d5 v=90
1063920 On ch=1 n=d6 v=90
1064160 Off ch=1 n=d6 v=65
1064160 Off ch=1 n=d5 v=65
1064160 On ch=1 n=c6 v=90
1064160 On ch=1 n=c5 v=90
1064400 Off ch=1 n=c5 v=65
1064400 Off ch=1 n=c6 v=65
1064400 On ch=1 n=a#5 v=90
1064400 On ch=1 n=a#4 v=90
1064880 Off ch=1 n=a#4 v=65
1064880 Off ch=1 n=a#5 v=65
1064880 On ch=1 n=a5 v=102
1064880 On ch=1 n=a4 v=102
1065120 Off ch=1 n=a4 v=65
1065120 Off ch=1 n=a5 v=65
1065120 On ch=1 n=d6 v=108
1065120 On ch=1 n=d5 v=108
1065480 Off ch=1 n=d5 v=65
1065480 Off ch=1 n=d6 v=65
1065480 On ch=1 n=c5 v=114
1065480 On ch=1 n=c6 v=114
1065600 Off ch=1 n=c6 v=65
1065600 Off ch=1 n=c5 v=65
1065600 On ch=1 n=c5 v=114
1065600 On ch=1 n=c6 v=114
1065840 Off ch=1 n=c6 v=65
1065840 Off ch=1 n=c5 v=65
1065840 On ch=1 n=a#5 v=108
1065840 On ch=1 n=a#4 v=108
1066080 Off ch=1 n=a#4 v=65
1066080 Off ch=1 n=a#5 v=65
1066080 On ch=1 n=a4 v=102
1066080 On ch=1 n=a5 v=102
1066320 Off ch=1 n=a5 v=65
1066320 Off ch=1 n=a4 v=65
1066320 On ch=1 n=g5 v=96
1066320 On ch=1 n=g4 v=96
1066480 Off ch=1 n=g4 v=65
1066480 Off ch=1 n=g5 v=65
1066560 On ch=1 n=f5 v=90
1066560 On ch=1 n=f4 v=90
1067520 Off ch=1 n=f4 v=65
1067520 Off ch=1 n=f5 v=65
1067760 On ch=1 n=f5 v=90
1067960 On ch=1 n=a5 v=90
1068000 Off ch=1 n=a5 v=65
1068000 Off ch=1 n=f5 v=65
1068000 On ch=1 n=g5 v=90
1068240 Off ch=1 n=g5 v=65
1068240 On ch=1 n=f5 v=90
1068480 Off ch=1 n=f5 v=65
1068480 On ch=1 n=c6 v=94
1068600 Off ch=1 n=c6 v=65
1068720 On ch=1 n=f5 v=94
1068920 On ch=1 n=a5 v=94
1068960 Off ch=1 n=a5 v=65
1068960 Off ch=1 n=f5 v=65
1068960 On ch=1 n=g5 v=94
1069200 Off ch=1 n=g5 v=65
1069200 On ch=1 n=f5 v=94
1069440 Off ch=1 n=f5 v=65
1069440 On ch=1 n=d6 v=98
1069560 Off ch=1 n=d6 v=65
1069680 On ch=1 n=g5 v=98
1069880 On ch=1 n=b5 v=98
1069920 Off ch=1 n=b5 v=65
1069920 Off ch=1 n=g5 v=65
1069920 On ch=1 n=g#5 v=98
1070160 Off ch=1 n=g#5 v=65
1070160 On ch=1 n=g5 v=98
1070400 On ch=1 n=d#6 v=102
1070820 Off ch=1 n=g5 v=65
1070820 On ch=1 n=g5 v=102
1070880 Off ch=1 n=d#6 v=65
1070880 Off ch=1 n=g5 v=65
1070880 On ch=1 n=g6 v=120
1071360 On ch=1 n=g#5 v=102
1071600 Off ch=1 n=g6 v=65
1071600 On ch=1 n=f6 v=102
1071840 Off ch=1 n=f6 v=65
1071840 On ch=1 n=d#6 v=102
1072080 Off ch=1 n=d#6 v=65
1072080 On ch=1 n=d6 v=102
1072320 Off ch=1 n=d6 v=65
1072320 On ch=1 n=d#6 v=98
1072800 Off ch=1 n=g#5 v=65
1072800 On ch=1 n=g5 v=116
1073280 Off ch=1 n=d#6 v=65
1073280 On ch=1 n=d6 v=94
1073520 Off ch=1 n=g5 v=65
1073520 On ch=1 n=f5 v=94
1073760 Off ch=1 n=f5 v=65
1073760 On ch=1 n=d#5 v=94
1074000 Off ch=1 n=d#5 v=65
1074000 On ch=1 n=d5 v=94
1074240 Off ch=1 n=d6 v=65
1074240 Off ch=1 n=d5 v=65
1074240 On ch=1 n=c6 v=90
1074240 On ch=1 n=d#5 v=90
1074720 Off ch=1 n=d#5 v=65
1074720 Off ch=1 n=c6 v=65
1076160 On ch=1 n=f#5 v=65
1076160 On ch=1 n=d5 v=65
1077120 Off ch=1 n=d5 v=65
1077120 On ch=1 n=d5 v=77
1078080 Off ch=1 n=f#5 v=65
1078080 Off ch=1 n=d5 v=65
1078500 On ch=1 n=d#5 v=90
1078560 On ch=1 n=c6 v=108
1079280 Off ch=1 n=c6 v=65
1079280 On ch=1 n=c6 v=90
1079520 Off ch=1 n=c6 v=65
1079520 On ch=1 n=d6 v=90
1079760 Off ch=1 n=d6 v=65
1079760 On ch=1 n=d#6 v=90
1080000 Off ch=1 n=d#5 v=65
1080000 Off ch=1 n=d#6 v=65
1080000 On ch=1 n=d6 v=90
1080240 On ch=1 n=d5 v=90
1080480 Off ch=1 n=d5 v=65
1080480 Off ch=1 n=d6 v=65
1080480 On ch=1 n=c6 v=90
1080480 On ch=1 n=e5 v=90
1080720 Off ch=1 n=e5 v=65
1080720 On ch=1 n=f#5 v=90
1080960 Off ch=1 n=c6 v=65
1080960 Off ch=1 n=f#5 v=65
1080960 On ch=1 n=a#5 v=90
1080960 On ch=1 n=g5 v=90
1081440 Off ch=1 n=g5 v=65
1081440 Off ch=1 n=a#5 v=65
1081440 On ch=1 n=e5 v=90
1081440 On ch=1 n=a#4 v=90
1081920 Off ch=1 n=e5 v=65
1081920 On ch=1 n=f5 v=90
1082160 Off ch=1 n=a#4 v=65
1082880 Off ch=1 n=f5 v=65
1085280 On ch=1 n=f#5 v=65
1085520 Off ch=1 n=f#5 v=65
1085520 On ch=1 n=g5 v=65
1085695 Off ch=1 n=g5 v=65
1085760 On ch=1 n=g#5 v=65
1086000 Off ch=1 n=g#5 v=65
1086000 On ch=1 n=g5 v=65
1086240 Off ch=1 n=g5 v=65
1086240 On ch=1 n=f#5 v=65
1086480 Off ch=1 n=f#5 v=65
1086480 On ch=1 n=g5 v=65
1086720 Off ch=1 n=g5 v=65
1086720 On ch=1 n=f5 v=65
1086960 Off ch=1 n=f5 v=65
1086960 On ch=1 n=d#5 v=65
1087200 Off ch=1 n=d#5 v=65
1087200 On ch=1 n=d5 v=90
1087200 On ch=1 n=d6 v=90
1087440 Off ch=1 n=d6 v=65
1087440 Off ch=1 n=d5 v=65
1087440 On ch=1 n=d#5 v=90
1087440 On ch=1 n=d#6 v=90
1087615 Off ch=1 n=d#6 v=65
1087615 Off ch=1 n=d#5 v=65
1087680 On ch=1 n=g5 v=90
1087680 On ch=1 n=g6 v=90
1087920 Off ch=1 n=g6 v=65
1087920 Off ch=1 n=g5 v=65
1087920 On ch=1 n=f6 v=90
1087920 On ch=1 n=f5 v=90
1088160 Off ch=1 n=f5 v=65
1088160 Off ch=1 n=f6 v=65
1088160 On ch=1 n=d#6 v=90
1088160 On ch=1 n=d#5 v=90
1088400 Off ch=1 n=d#5 v=65
1088400 Off ch=1 n=d#6 v=65
1088400 On ch=1 n=c5 v=90
1088400 On ch=1 n=c6 v=90
1088640 Off ch=1 n=c6 v=65
1088640 Off ch=1 n=c5 v=65
1088640 On ch=1 n=a5 v=90
1088640 On ch=1 n=a4 v=90
1088880 Off ch=1 n=a4 v=65
1088880 Off ch=1 n=a5 v=65
1088880 On ch=1 n=a#4 v=90
1088880 On ch=1 n=g5 v=90
1089120 Off ch=1 n=g5 v=65
1089120 Off ch=1 n=a#4 v=65
1089120 On ch=1 n=f5 v=108
1089120 On ch=1 n=d5 v=108
1089120 On ch=1 n=b4 v=108
1089360 Off ch=1 n=b4 v=65
1089360 Off ch=1 n=d5 v=65
1089360 On ch=1 n=c5 v=90
1089360 On ch=1 n=d#5 v=90
1089600 Off ch=1 n=c5 v=65
1089840 Off ch=1 n=d#5 v=65
1089840 On ch=1 n=d5 v=90
1090080 Off ch=1 n=f5 v=65
1090080 Off ch=1 n=d5 v=65
1090080 On ch=1 n=c#5 v=90
1090320 Off ch=1 n=c#5 v=65
1090320 On ch=1 n=d5 v=90
1090560 Off ch=1 n=d5 v=65
1090560 On ch=1 n=c5 v=90
1090800 Off ch=1 n=c5 v=65
1090800 On ch=1 n=a#4 v=90
1091040 Off ch=1 n=a#4 v=65
1091040 On ch=1 n=g#4 v=108
1091040 On ch=1 n=d5 v=108
1091280 Off ch=1 n=g#4 v=65
1091280 On ch=1 n=a4 v=90
1091520 Off ch=1 n=a4 v=65
1091520 On ch=1 n=c5 v=65
1091760 Off ch=1 n=c5 v=65
1091760 On ch=1 n=a#4 v=65
1092000 Off ch=1 n=d5 v=65
1092000 Off ch=1 n=a#4 v=65
1092000 On ch=1 n=a4 v=65
1092240 Off ch=1 n=a4 v=65
1092240 On ch=1 n=a#4 v=65
1092480 Off ch=1 n=a#4 v=65
1092480 On ch=1 n=g#4 v=65
1092720 Off ch=1 n=g#4 v=65
1092720 On ch=1 n=g4 v=65
1092960 Off ch=1 n=g4 v=65
1092960 On ch=1 n=a#4 v=83
1092960 On ch=1 n=e4 v=83
1093200 Off ch=1 n=e4 v=65
1093200 On ch=1 n=f4 v=65
1093440 Off ch=1 n=f4 v=65
1093440 On ch=1 n=g#4 v=65
1093680 Off ch=1 n=g#4 v=65
1093680 On ch=1 n=g4 v=65
1093920 Off ch=1 n=a#4 v=65
1093920 Off ch=1 n=g4 v=65
1093920 On ch=1 n=f#4 v=65
1094160 Off ch=1 n=f#4 v=65
1094160 On ch=1 n=g4 v=65
1094400 Off ch=1 n=g4 v=65
1094400 On ch=1 n=f4 v=65
1094640 Off ch=1 n=f4 v=65
1094640 On ch=1 n=d#4 v=65
1094880 Off ch=1 n=d#4 v=65
1094880 On ch=1 n=g4 v=83
1094880 On ch=1 n=c#4 v=83
1095120 Off ch=1 n=c#4 v=65
1095120 On ch=1 n=d4 v=65
1095360 Off ch=1 n=d4 v=65
1095360 On ch=1 n=f4 v=71
1095600 Off ch=1 n=f4 v=65
1095600 On ch=1 n=d#4 v=71
1095840 Off ch=1 n=g4 v=65
1095840 Off ch=1 n=d#4 v=65
1095840 On ch=1 n=a#4 v=95
1095840 On ch=1 n=e4 v=95
1096080 Off ch=1 n=e4 v=65
1096080 On ch=1 n=f4 v=77
1096320 Off ch=1 n=f4 v=65
1096320 On ch=1 n=g#4 v=83
1096560 Off ch=1 n=g#4 v=65
1096560 On ch=1 n=g4 v=83
1096800 Off ch=1 n=a#4 v=65
1096800 Off ch=1 n=g4 v=65
1096800 On ch=1 n=c5 v=107
1096800 On ch=1 n=f#4 v=107
1097040 Off ch=1 n=f#4 v=65
1097040 On ch=1 n=g4 v=89
1097280 Off ch=1 n=g4 v=65
1097280 On ch=1 n=a#4 v=89
1097520 Off ch=1 n=a#4 v=65
1097520 On ch=1 n=g#4 v=89
1097760 Off ch=1 n=g#4 v=65
1097760 On ch=1 n=g4 v=89
1098000 Off ch=1 n=g4 v=65
1098000 On ch=1 n=g#4 v=89
1098240 Off ch=1 n=g#4 v=65
1098240 On ch=1 n=g4 v=89
1098480 Off ch=1 n=g4 v=65
1098480 On ch=1 n=f4 v=89
1098720 Off ch=1 n=c5 v=65
1098720 Off ch=1 n=f4 v=65
1098720 On ch=1 n=c5 v=83
1098720 On ch=1 n=f#4 v=83
1098960 Off ch=1 n=f#4 v=65
1098960 On ch=1 n=g4 v=65
1099200 Off ch=1 n=g4 v=65
1099200 On ch=1 n=a#4 v=65
1099440 Off ch=1 n=a#4 v=65
1099440 On ch=1 n=g#4 v=65
1099680 Off ch=1 n=c5 v=65
1099680 Off ch=1 n=g#4 v=65
1099680 On ch=1 n=d#5 v=83
1099680 On ch=1 n=a4 v=83
1099920 Off ch=1 n=a4 v=65
1099920 On ch=1 n=a#4 v=65
1100160 Off ch=1 n=a#4 v=65
1100160 On ch=1 n=c#5 v=65
1100400 Off ch=1 n=c#5 v=65
1100400 On ch=1 n=c5 v=65
1100640 Off ch=1 n=d#5 v=65
1100640 Off ch=1 n=c5 v=65
1100640 On ch=1 n=f5 v=83
1100640 On ch=1 n=b4 v=83
1100880 Off ch=1 n=b4 v=65
1100880 On ch=1 n=c5 v=65
1101120 Off ch=1 n=c5 v=65
1101120 On ch=1 n=d#5 v=74
1101360 Off ch=1 n=d#5 v=65
1101360 On ch=1 n=d5 v=74
1101600 Off ch=1 n=f5 v=65
1101600 Off ch=1 n=d5 v=65
1101600 On ch=1 n=c#5 v=83
1101840 Off ch=1 n=c#5 v=65
1101840 On ch=1 n=d5 v=83
1102080 Off ch=1 n=d5 v=65
1102080 On ch=1 n=d#5 v=92
1102320 Off ch=1 n=d#5 v=65
1102320 On ch=1 n=f5 v=92
1102560 Off ch=1 n=f5 v=65
1102560 On ch=1 n=f#6 v=102
1102560 On ch=1 n=f#5 v=102
1102800 Off ch=1 n=f#5 v=65
1102800 Off ch=1 n=f#6 v=65
1102800 On ch=1 n=g6 v=102
1102800 On ch=1 n=g5 v=102
1103040 Off ch=1 n=g5 v=65
1103040 Off ch=1 n=g6 v=65
1103040 On ch=1 n=g#6 v=102
1103040 On ch=1 n=g#5 v=102
1103280 Off ch=1 n=g#5 v=65
1103280 Off ch=1 n=g#6 v=65
1103280 On ch=1 n=g6 v=102
1103280 On ch=1 n=g5 v=102
1103520 Off ch=1 n=g5 v=65
1103520 Off ch=1 n=g6 v=65
1103520 On ch=1 n=f#6 v=102
1103520 On ch=1 n=f#5 v=102
1103760 Off ch=1 n=f#5 v=65
1103760 Off ch=1 n=f#6 v=65
1103760 On ch=1 n=g6 v=102
1103760 On ch=1 n=g5 v=102
1104000 Off ch=1 n=g5 v=65
1104000 Off ch=1 n=g6 v=65
1104000 On ch=1 n=f6 v=102
1104000 On ch=1 n=f5 v=102
1104240 Off ch=1 n=f5 v=65
1104240 Off ch=1 n=f6 v=65
1104240 On ch=1 n=d#6 v=102
1104240 On ch=1 n=d#5 v=102
1104480 Off ch=1 n=d#5 v=65
1104480 Off ch=1 n=d#6 v=65
1104480 On ch=1 n=d6 v=102
1104480 On ch=1 n=d5 v=102
1104720 Off ch=1 n=d5 v=65
1104720 Off ch=1 n=d6 v=65
1104720 On ch=1 n=d#6 v=102
1104720 On ch=1 n=d#5 v=102
1104960 Off ch=1 n=d#5 v=65
1104960 Off ch=1 n=d#6 v=65
1104960 On ch=1 n=f5 v=102
1104960 On ch=1 n=b4 v=102
1104960 On ch=1 n=f4 v=102
1106400 Off ch=1 n=f4 v=65
1106400 Off ch=1 n=b4 v=65
1106400 Off ch=1 n=f5 v=65
1106400 On ch=1 n=g6 v=102
1106400 On ch=1 n=g5 v=102
1106640 Off ch=1 n=g5 v=65
1106640 Off ch=1 n=g6 v=65
1106640 On ch=1 n=g#6 v=102
1106640 On ch=1 n=g#5 v=102
1106880 Off ch=1 n=g#5 v=65
1106880 Off ch=1 n=g#6 v=65
1106880 On ch=1 n=a#5 v=102
1106880 On ch=1 n=a#6 v=102
1107120 Off ch=1 n=a#6 v=65
1107120 Off ch=1 n=a#5 v=65
1107120 On ch=1 n=g#6 v=102
1107120 On ch=1 n=g#5 v=102
1107360 Off ch=1 n=g#5 v=65
1107360 Off ch=1 n=g#6 v=65
1107360 On ch=1 n=g6 v=102
1107360 On ch=1 n=g5 v=102
1107600 Off ch=1 n=g5 v=65
1107600 Off ch=1 n=g6 v=65
1107600 On ch=1 n=g#6 v=102
1107600 On ch=1 n=g#5 v=102
1107840 Off ch=1 n=g#5 v=65
1107840 Off ch=1 n=g#6 v=65
1107840 On ch=1 n=g5 v=102
1107840 On ch=1 n=g6 v=102
1108080 Off ch=1 n=g6 v=65
1108080 Off ch=1 n=g5 v=65
1108080 On ch=1 n=f5 v=102
1108080 On ch=1 n=f6 v=102
1108320 Off ch=1 n=f6 v=65
1108320 Off ch=1 n=f5 v=65
1108320 On ch=1 n=e5 v=102
1108320 On ch=1 n=e6 v=102
1108560 Off ch=1 n=e6 v=65
1108560 Off ch=1 n=e5 v=65
1108560 On ch=1 n=f5 v=102
1108560 On ch=1 n=f6 v=102
1108800 Off ch=1 n=f6 v=65
1108800 Off ch=1 n=f5 v=65
1108800 On ch=1 n=c#5 v=102
1108800 On ch=1 n=g4 v=102
1108800 On ch=1 n=g5 v=102
1110240 Off ch=1 n=g5 v=65
1110240 Off ch=1 n=g4 v=65
1110240 Off ch=1 n=c#5 v=65
1110240 On ch=1 n=a6 v=102
1110240 On ch=1 n=a5 v=102
1110480 Off ch=1 n=a5 v=65
1110480 Off ch=1 n=a6 v=65
1110480 On ch=1 n=a#6 v=102
1110480 On ch=1 n=a#5 v=102
1110720 Off ch=1 n=a#5 v=65
1110720 Off ch=1 n=a#6 v=65
1110720 On ch=1 n=c6 v=102
1110720 On ch=1 n=c7 v=102
1110960 Off ch=1 n=c7 v=65
1110960 Off ch=1 n=c6 v=65
1110960 On ch=1 n=a#6 v=102
1110960 On ch=1 n=a#5 v=102
1111200 Off ch=1 n=a#5 v=65
1111200 Off ch=1 n=a#6 v=65
1111200 On ch=1 n=a6 v=102
1111200 On ch=1 n=a5 v=102
1111440 Off ch=1 n=a5 v=65
1111440 Off ch=1 n=a6 v=65
1111440 On ch=1 n=a#6 v=102
1111440 On ch=1 n=a#5 v=102
1111680 Off ch=1 n=a#5 v=65
1111680 Off ch=1 n=a#6 v=65
1111680 On ch=1 n=g#5 v=102
1111680 On ch=1 n=g#6 v=102
1111920 Off ch=1 n=g#6 v=65
1111920 Off ch=1 n=g#5 v=65
1111920 On ch=1 n=g5 v=102
1111920 On ch=1 n=g6 v=102
1112160 Off ch=1 n=g6 v=65
1112160 Off ch=1 n=g5 v=65
1112160 On ch=1 n=f#5 v=102
1112160 On ch=1 n=f#6 v=102
1112400 Off ch=1 n=f#6 v=65
1112400 Off ch=1 n=f#5 v=65
1112400 On ch=1 n=g5 v=102
1112400 On ch=1 n=g6 v=102
1112640 Off ch=1 n=g6 v=65
1112640 Off ch=1 n=g5 v=65
1112640 On ch=1 n=a#6 v=102
1112640 On ch=1 n=a#5 v=102
1112880 Off ch=1 n=a#5 v=65
1112880 Off ch=1 n=a#6 v=65
1112880 On ch=1 n=f5 v=102
1112880 On ch=1 n=f6 v=102
1113120 Off ch=1 n=f6 v=65
1113120 Off ch=1 n=f5 v=65
1113120 On ch=1 n=d6 v=102
1113120 On ch=1 n=d5 v=102
1113360 Off ch=1 n=d5 v=65
1113360 Off ch=1 n=d6 v=65
1113360 On ch=1 n=d#5 v=102
1113360 On ch=1 n=d#6 v=102
1113600 Off ch=1 n=d#6 v=65
1113600 Off ch=1 n=d#5 v=65
1113600 On ch=1 n=a#6 v=102
1113600 On ch=1 n=a#5 v=102
1113840 Off ch=1 n=a#5 v=65
1113840 Off ch=1 n=a#6 v=65
1113840 On ch=1 n=d6 v=102
1113840 On ch=1 n=d5 v=102
1114080 Off ch=1 n=d5 v=65
1114080 Off ch=1 n=d6 v=65
1114080 On ch=1 n=c6 v=102
1114080 On ch=1 n=c5 v=102
1114320 Off ch=1 n=c5 v=65
1114320 Off ch=1 n=c6 v=65
1114320 On ch=1 n=c#5 v=102
1114320 On ch=1 n=c#6 v=102
1114560 Off ch=1 n=c#5 v=65
1114560 On ch=1 n=a#6 v=92
1114800 Off ch=1 n=c#6 v=65
1114800 Off ch=1 n=a#6 v=65
1114800 On ch=1 n=a#5 v=92
1115280 On ch=1 n=a#4 v=82
1115520 Off ch=1 n=a#5 v=65
1115520 On ch=1 n=g#5 v=72
1115760 Off ch=1 n=a#4 v=65
1115760 On ch=1 n=g#4 v=72
1116000 On ch=1 n=f#5 v=62
1116240 Off ch=1 n=f#5 v=65
1116240 Off ch=1 n=g#5 v=65
1116240 Off ch=1 n=g#4 v=65
1116240 On ch=1 n=f5 v=62
1116240 On ch=1 n=f4 v=62
1116360 Off ch=1 n=f4 v=65
1116360 Off ch=1 n=f5 v=65
1116360 On ch=1 n=f#5 v=62
1116360 On ch=1 n=f#4 v=62
1116446 On ch=1 n=g#4 v=53
1116473 On ch=1 n=d#5 v=53
1116480 Off ch=1 n=f#4 v=65
1116480 Off ch=1 n=f#5 v=65
1116480 On ch=1 n=a#5 v=53
1116600 Off ch=1 n=a#5 v=65
1116720 On ch=1 n=g#5 v=53
1116840 Off ch=1 n=g#5 v=65
1116960 On ch=1 n=g5 v=53
1117080 Off ch=1 n=g5 v=65
1117200 On ch=1 n=g#5 v=53
1117320 Off ch=1 n=g#5 v=65
1117440 On ch=1 n=g#5 v=53
1117560 Off ch=1 n=g#5 v=65
1117680 On ch=1 n=f#5 v=53
1117800 Off ch=1 n=f#5 v=65
1117920 On ch=1 n=f5 v=53
1118040 Off ch=1 n=f5 v=65
1118160 On ch=1 n=f#5 v=53
1118280 Off ch=1 n=f#5 v=65
1118392 Off ch=1 n=g#4 v=65
1118400 On ch=1 n=f5 v=53
1118400 On ch=1 n=a4 v=53
1119840 Off ch=1 n=a4 v=65
1119840 Off ch=1 n=d#5 v=65
1119840 Off ch=1 n=f5 v=65
1119840 On ch=1 n=d5 v=53
1120080 Off ch=1 n=d5 v=65
1120080 On ch=1 n=d#5 v=53
1120320 Off ch=1 n=d#5 v=65
1120320 On ch=1 n=a#5 v=53
1120320 On ch=1 n=d#5 v=53
1120320 On ch=1 n=g#4 v=53
1120440 Off ch=1 n=a#5 v=65
1120560 On ch=1 n=g#5 v=53
1120680 Off ch=1 n=g#5 v=65
1120800 On ch=1 n=g5 v=53
1120920 Off ch=1 n=g5 v=65
1121040 On ch=1 n=g#5 v=53
1121160 Off ch=1 n=g#5 v=65
1121280 On ch=1 n=g#5 v=53
1121400 Off ch=1 n=g#5 v=65
1121520 On ch=1 n=f#5 v=53
1121640 Off ch=1 n=f#5 v=65
1121760 On ch=1 n=f5 v=53
1121880 Off ch=1 n=f5 v=65
1122000 On ch=1 n=f#5 v=53
1122120 Off ch=1 n=f#5 v=65
1122240 Off ch=1 n=g#4 v=65
1122240 On ch=1 n=f5 v=53
1122240 On ch=1 n=a4 v=53
1123680 Off ch=1 n=a4 v=65
1123680 Off ch=1 n=d#5 v=65
1123680 Off ch=1 n=f5 v=65
1123680 On ch=1 n=f5 v=53
1123680 On ch=1 n=d5 v=53
1123680 On ch=1 n=g#4 v=53
1124160 Off ch=1 n=g#4 v=65
1124160 Off ch=1 n=d5 v=65
1124160 Off ch=1 n=f5 v=65
1124160 On ch=1 n=d#5 v=53
1124160 On ch=1 n=c5 v=53
1124160 On ch=1 n=g4 v=53
1125120 Off ch=1 n=g4 v=65
1125120 Off ch=1 n=c5 v=65
1125120 Off ch=1 n=d#5 v=65
1125120 On ch=1 n=c5 v=53
1125120 On ch=1 n=a4 v=53
1125120 On ch=1 n=d#4 v=53
1125600 Off ch=1 n=d#4 v=65
1125600 Off ch=1 n=a4 v=65
1125600 Off ch=1 n=c5 v=65
1125600 On ch=1 n=c#6 v=90
1125840 Off ch=1 n=c#6 v=65
1125840 On ch=1 n=d6 v=90
1126020 On ch=1 n=d5 v=90
1126080 Off ch=1 n=d6 v=65
1126080 On ch=1 n=d#6 v=90
1126320 Off ch=1 n=d#6 v=65
1126320 On ch=1 n=d6 v=90
1126560 Off ch=1 n=d6 v=65
1126560 On ch=1 n=c6 v=90
1126800 Off ch=1 n=c6 v=65
1126800 On ch=1 n=a#5 v=90
1127040 Off ch=1 n=a#5 v=65
1127040 On ch=1 n=a5 v=90
1127280 Off ch=1 n=a5 v=65
1127280 On ch=1 n=c6 v=90
1127520 Off ch=1 n=d5 v=65
1127520 Off ch=1 n=c6 v=65
1127520 On ch=1 n=a#5 v=90
1127520 On ch=1 n=c5 v=90
1127760 Off ch=1 n=c5 v=65
1127760 Off ch=1 n=a#5 v=65
1127760 On ch=1 n=g5 v=90
1127760 On ch=1 n=c#5 v=90
1128000 Off ch=1 n=c#5 v=65
1128000 Off ch=1 n=g5 v=65
1128000 On ch=1 n=f5 v=90
1128000 On ch=1 n=d#5 v=90
1128240 Off ch=1 n=d#5 v=65
1128240 On ch=1 n=d5 v=90
1128480 Off ch=1 n=d5 v=65
1128480 On ch=1 n=c5 v=90
1128720 Off ch=1 n=c5 v=65
1128720 On ch=1 n=a#4 v=90
1128960 Off ch=1 n=a#4 v=65
1128960 On ch=1 n=a4 v=90
1129200 Off ch=1 n=a4 v=65
1129200 On ch=1 n=c5 v=90
1129440 Off ch=1 n=f5 v=65
1129440 Off ch=1 n=c5 v=65
1129440 On ch=1 n=f5 v=90
1129440 On ch=1 n=d5 v=90
1129680 Off ch=1 n=f5 v=65
1129680 On ch=1 n=a#5 v=90
1129860 On ch=1 n=d#5 v=90
1129920 Off ch=1 n=d5 v=65
1129920 Off ch=1 n=a#5 v=65
1129920 On ch=1 n=c6 v=90
1131300 On ch=1 n=f5 v=90
1131360 Off ch=1 n=f5 v=65
1131360 Off ch=1 n=d#5 v=65
1131360 Off ch=1 n=c6 v=65
1131360 On ch=1 n=f5 v=90
1131600 Off ch=1 n=f5 v=65
1131600 On ch=1 n=g5 v=90
1131645 Off ch=1 n=g5 v=65
1131645 On ch=1 n=f5 v=90
1131690 Off ch=1 n=f5 v=65
1131690 On ch=1 n=e5 v=90
1131735 Off ch=1 n=e5 v=65
1131735 On ch=1 n=f5 v=90
1131780 Off ch=1 n=f5 v=65
1131780 On ch=1 n=d5 v=53
1131840 On ch=1 n=d6 v=53
1133280 Off ch=1 n=d6 v=65
1133280 Off ch=1 n=d5 v=65
1133280 On ch=1 n=d6 v=65
1133700 On ch=1 n=f5 v=65
1133760 Off ch=1 n=d6 v=65
1133760 On ch=1 n=g#6 v=65
1134480 Off ch=1 n=g#6 v=65
1134480 On ch=1 n=g6 v=65
1134660 Off ch=1 n=f5 v=65
1134660 On ch=1 n=d#5 v=65
1134720 Off ch=1 n=g6 v=65
1134720 On ch=1 n=f6 v=65
1134960 Off ch=1 n=f6 v=65
1134960 On ch=1 n=d#6 v=65
1135200 Off ch=1 n=d#5 v=65
1135200 Off ch=1 n=d#6 v=65
1135200 On ch=1 n=d6 v=65
1135200 On ch=1 n=f#5 v=65
1135440 Off ch=1 n=d6 v=65
1135440 On ch=1 n=c6 v=65
1135620 Off ch=1 n=f#5 v=65
1135620 Off ch=1 n=c6 v=65
1135620 On ch=1 n=f5 v=65
1135650 On ch=1 n=a5 v=65
1135680 On ch=1 n=f6 v=65
1136100 Off ch=1 n=f6 v=65
1136100 Off ch=1 n=a5 v=65
1136100 Off ch=1 n=f5 v=65
1136100 On ch=1 n=a#5 v=65
1136150 Off ch=1 n=a#5 v=65
1136160 On ch=1 n=a#5 v=65
1137120 Off ch=1 n=a#5 v=65
1139040 On ch=1 n=d#6 v=90
1139040 On ch=1 n=a5 v=90
1139040 On ch=1 n=d#5 v=90
1139280 Off ch=1 n=d#5 v=65
1139280 Off ch=1 n=a5 v=65
1139280 Off ch=1 n=d#6 v=65
1139280 On ch=1 n=e6 v=90
1139280 On ch=1 n=a#5 v=90
1139280 On ch=1 n=e5 v=90
1139520 Off ch=1 n=e5 v=65
1139520 Off ch=1 n=a#5 v=65
1139520 Off ch=1 n=e6 v=65
1139520 On ch=1 n=a#5 v=127
1139520 On ch=1 n=e6 v=127
1139520 On ch=1 n=a#6 v=127
1140240 Off ch=1 n=a#6 v=65
1140240 On ch=1 n=a6 v=90
1140360 Off ch=1 n=a6 v=65
1140360 On ch=1 n=g6 v=90
1140480 Off ch=1 n=e6 v=65
1140480 Off ch=1 n=a#5 v=65
1140480 Off ch=1 n=g6 v=65
1140480 On ch=1 n=f6 v=90
1140480 On ch=1 n=a5 v=90
1140720 Off ch=1 n=a5 v=65
1140720 Off ch=1 n=f6 v=65
1142880 On ch=1 n=g#6 v=99
1142880 On ch=1 n=d6 v=99
1142880 On ch=1 n=g#5 v=99
1142960 Off ch=1 n=g#5 v=65
1142960 Off ch=1 n=d6 v=65
1142960 Off ch=1 n=g#6 v=65
1143040 On ch=1 n=a5 v=108
1143040 On ch=1 n=d#6 v=108
1143040 On ch=1 n=a6 v=108
1143120 Off ch=1 n=a6 v=65
1143120 Off ch=1 n=d#6 v=65
1143120 Off ch=1 n=a5 v=65
1143200 On ch=1 n=c7 v=117
1143200 On ch=1 n=f#6 v=117
1143200 On ch=1 n=c6 v=117
1143280 Off ch=1 n=c6 v=65
1143280 Off ch=1 n=f#6 v=65
1143280 Off ch=1 n=c7 v=65
1143360 On ch=1 n=d#7 v=127
1143360 On ch=1 n=d#6 v=127
1143360 On ch=1 n=a6 v=127
1144080 Off ch=1 n=d#6 v=65
1144080 Off ch=1 n=d#7 v=65
1144080 On ch=1 n=d7 v=90
1144080 On ch=1 n=d6 v=90
1144200 Off ch=1 n=d6 v=65
1144200 Off ch=1 n=d7 v=65
1144200 On ch=1 n=c7 v=90
1144200 On ch=1 n=c6 v=90
1144320 Off ch=1 n=c6 v=65
1144320 Off ch=1 n=a6 v=65
1144320 Off ch=1 n=c7 v=65
1144320 On ch=1 n=b6 v=90
1144320 On ch=1 n=b5 v=90
1144560 Off ch=1 n=b5 v=65
1144560 Off ch=1 n=b6 v=65
1144800 On ch=1 n=c#7 v=65
1144800 On ch=1 n=g6 v=65
1144800 On ch=1 n=c#6 v=65
1145040 Off ch=1 n=c#6 v=65
1145040 Off ch=1 n=g6 v=65
1145040 Off ch=1 n=c#7 v=65
1145040 On ch=1 n=d6 v=70
1145040 On ch=1 n=g#6 v=70
1145040 On ch=1 n=d7 v=70
1145280 Off ch=1 n=d7 v=65
1145280 Off ch=1 n=g#6 v=65
1145280 Off ch=1 n=d6 v=65
1145280 On ch=1 n=f7 v=75
1145280 On ch=1 n=b6 v=75
1145280 On ch=1 n=f6 v=75
1145520 Off ch=1 n=f6 v=65
1145520 Off ch=1 n=b6 v=65
1145520 Off ch=1 n=f7 v=65
1145520 On ch=1 n=d#7 v=80
1145520 On ch=1 n=c7 v=80
1145520 On ch=1 n=d#6 v=80
1145760 Off ch=1 n=d#6 v=65
1145760 Off ch=1 n=c7 v=65
1145760 Off ch=1 n=d#7 v=65
1145760 On ch=1 n=b6 v=84
1145760 On ch=1 n=f6 v=84
1145760 On ch=1 n=b5 v=84
1146000 Off ch=1 n=b5 v=65
1146000 Off ch=1 n=f6 v=65
1146000 Off ch=1 n=b6 v=65
1146000 On ch=1 n=c6 v=84
1146000 On ch=1 n=f#6 v=84
1146000 On ch=1 n=c7 v=84
1146240 Off ch=1 n=c7 v=65
1146240 Off ch=1 n=f#6 v=65
1146240 Off ch=1 n=c6 v=65
1146240 On ch=1 n=d#7 v=84
1146240 On ch=1 n=g#6 v=84
1146240 On ch=1 n=d#6 v=84
1146480 Off ch=1 n=d#6 v=65
1146480 Off ch=1 n=g#6 v=65
1146480 Off ch=1 n=d#7 v=65
1146480 On ch=1 n=d6 v=89
1146480 On ch=1 n=a#6 v=89
1146480 On ch=1 n=d7 v=89
1146720 Off ch=1 n=d7 v=65
1146720 Off ch=1 n=a#6 v=65
1146720 Off ch=1 n=d6 v=65
1146720 On ch=1 n=c7 v=94
1146720 On ch=1 n=g6 v=94
1146720 On ch=1 n=c6 v=94
1146840 Off ch=1 n=c6 v=65
1146840 Off ch=1 n=g6 v=65
1146840 Off ch=1 n=c7 v=65
1146960 On ch=1 n=a#5 v=99
1146960 On ch=1 n=g6 v=99
1146960 On ch=1 n=a#6 v=99
1147080 Off ch=1 n=a#6 v=65
1147080 Off ch=1 n=g6 v=65
1147080 Off ch=1 n=a#5 v=65
1147200 On ch=1 n=d7 v=102
1147200 On ch=1 n=d6 v=102
1147320 Off ch=1 n=d6 v=65
1147320 Off ch=1 n=d7 v=65
1147680 On ch=1 n=c7 v=102
1147680 On ch=1 n=c6 v=102
1147800 Off ch=1 n=c6 v=65
1147800 Off ch=1 n=c7 v=65
1148160 On ch=1 n=c7 v=102
1148160 On ch=1 n=f6 v=102
1148160 On ch=1 n=c6 v=102
1148400 Off ch=1 n=c6 v=65
1148400 Off ch=1 n=f6 v=65
1148400 Off ch=1 n=c7 v=65
1148640 On ch=1 n=e5 v=65
1148640 On ch=1 n=c#6 v=65
1148880 Off ch=1 n=c#6 v=65
1148880 Off ch=1 n=e5 v=65
1148880 On ch=1 n=f5 v=65
1148880 On ch=1 n=d6 v=65
1149120 Off ch=1 n=d6 v=65
1149120 Off ch=1 n=f5 v=65
1149120 On ch=1 n=f6 v=65
1149120 On ch=1 n=g#5 v=65
1149360 Off ch=1 n=g#5 v=65
1149360 Off ch=1 n=f6 v=65
1149360 On ch=1 n=g5 v=65
1149360 On ch=1 n=d#6 v=65
1149600 Off ch=1 n=d#6 v=65
1149600 Off ch=1 n=g5 v=65
1149600 On ch=1 n=b5 v=65
1149600 On ch=1 n=d5 v=65
1149840 Off ch=1 n=d5 v=65
1149840 Off ch=1 n=b5 v=65
1149840 On ch=1 n=d#5 v=65
1149840 On ch=1 n=c6 v=65
1150080 Off ch=1 n=c6 v=65
1150080 Off ch=1 n=d#5 v=65
1150080 On ch=1 n=d#6 v=65
1150080 On ch=1 n=f#5 v=65
1150320 Off ch=1 n=f#5 v=65
1150320 Off ch=1 n=d#6 v=65
1150320 On ch=1 n=d6 v=65
1150320 On ch=1 n=f5 v=65
1150560 Off ch=1 n=f5 v=65
1150560 Off ch=1 n=d6 v=65
1150560 On ch=1 n=f#5 v=65
1150560 On ch=1 n=c6 v=65
1150800 Off ch=1 n=c6 v=65
1150800 Off ch=1 n=f#5 v=65
1150800 On ch=1 n=a#5 v=65
1150800 On ch=1 n=g5 v=65
1151040 Off ch=1 n=g5 v=65
1151040 Off ch=1 n=a#5 v=65
1151040 On ch=1 n=d6 v=65
1151040 On ch=1 n=f5 v=65
1151520 Off ch=1 n=f5 v=65
1151520 Off ch=1 n=d6 v=65
1151520 On ch=1 n=c6 v=53
1151520 On ch=1 n=e5 v=53
1152000 Off ch=1 n=e5 v=65
1152000 Off ch=1 n=c6 v=65
1152000 On ch=1 n=c6 v=53
1152000 On ch=1 n=f5 v=53
1152240 Off ch=1 n=f5 v=65
1152240 Off ch=1 n=c6 v=65
1152240 On ch=1 n=f5 v=90
1152440 On ch=1 n=a5 v=90
1152480 Off ch=1 n=a5 v=65
1152480 Off ch=1 n=f5 v=65
1152480 On ch=1 n=g5 v=90
1152720 Off ch=1 n=g5 v=65
1152720 On ch=1 n=f5 v=90
1152960 Off ch=1 n=f5 v=65
1152960 On ch=1 n=c6 v=94
1153080 Off ch=1 n=c6 v=65
1153200 On ch=1 n=f5 v=94
1153400 On ch=1 n=a5 v=94
1153440 Off ch=1 n=a5 v=65
1153440 Off ch=1 n=f5 v=65
1153440 On ch=1 n=g5 v=94
1153680 Off ch=1 n=g5 v=65
1153680 On ch=1 n=f5 v=94
1153920 Off ch=1 n=f5 v=65
1153920 On ch=1 n=d6 v=98
1154040 Off ch=1 n=d6 v=65
1154160 On ch=1 n=g5 v=98
1154360 On ch=1 n=b5 v=98
1154400 Off ch=1 n=b5 v=65
1154400 Off ch=1 n=g5 v=65
1154400 On ch=1 n=g#5 v=98
1154640 Off ch=1 n=g#5 v=65
1154640 On ch=1 n=g5 v=98
1154880 On ch=1 n=d#6 v=102
1155300 Off ch=1 n=g5 v=65
1155300 On ch=1 n=g5 v=102
1155360 Off ch=1 n=d#6 v=65
1155360 Off ch=1 n=g5 v=65
1155360 On ch=1 n=g6 v=120
1155840 On ch=1 n=g#5 v=102
1156080 Off ch=1 n=g6 v=65
1156080 On ch=1 n=f6 v=102
1156320 Off ch=1 n=f6 v=65
1156320 On ch=1 n=d#6 v=102
1156560 Off ch=1 n=d#6 v=65
1156560 On ch=1 n=d6 v=102
1156800 Off ch=1 n=d6 v=65
1156800 On ch=1 n=d#6 v=98
1157280 Off ch=1 n=g#5 v=65
1157280 On ch=1 n=g5 v=116
1157760 Off ch=1 n=d#6 v=65
1157760 On ch=1 n=d6 v=94
1158000 Off ch=1 n=g5 v=65
1158000 On ch=1 n=f5 v=94
1158240 Off ch=1 n=f5 v=65
1158240 On ch=1 n=d#5 v=94
1158480 Off ch=1 n=d#5 v=65
1158480 On ch=1 n=d5 v=94
1158720 Off ch=1 n=d6 v=65
1158720 Off ch=1 n=d5 v=65
1158720 On ch=1 n=c6 v=90
1158720 On ch=1 n=d#5 v=90
1159200 Off ch=1 n=d#5 v=65
1159200 Off ch=1 n=c6 v=65
1160640 On ch=1 n=f#5 v=65
1160640 On ch=1 n=d5 v=65
1161600 Off ch=1 n=d5 v=65
1161600 On ch=1 n=d5 v=77
1162560 Off ch=1 n=f#5 v=65
1162560 Off ch=1 n=d5 v=65
1162980 On ch=1 n=d#5 v=90
1163040 On ch=1 n=c6 v=108
1163760 Off ch=1 n=c6 v=65
1163760 On ch=1 n=c6 v=90
1164000 Off ch=1 n=c6 v=65
1164000 On ch=1 n=d6 v=90
1164240 Off ch=1 n=d6 v=65
1164240 On ch=1 n=d#6 v=90
1164480 Off ch=1 n=d#5 v=65
1164480 Off ch=1 n=d#6 v=65
1164480 On ch=1 n=d6 v=90
1164720 On ch=1 n=d5 v=90
1164960 Off ch=1 n=d5 v=65
1164960 Off ch=1 n=d6 v=65
1164960 On ch=1 n=c6 v=90
1164960 On ch=1 n=e5 v=90
1165200 Off ch=1 n=e5 v=65
1165200 On ch=1 n=f#5 v=90
1165440 Off ch=1 n=c6 v=65
1165440 Off ch=1 n=f#5 v=65
1165440 On ch=1 n=a#5 v=90
1165440 On ch=1 n=g5 v=90
1165920 Off ch=1 n=g5 v=65
1165920 Off ch=1 n=a#5 v=65
1165920 On ch=1 n=e5 v=90
1165920 On ch=1 n=a#4 v=90
1166400 Off ch=1 n=e5 v=65
1166400 On ch=1 n=f5 v=90
1166640 Off ch=1 n=a#4 v=65
1167360 Off ch=1 n=f5 v=65
1169760 On ch=1 n=f#5 v=65
1170000 Off ch=1 n=f#5 v=65
1170000 On ch=1 n=g5 v=65
1170175 Off ch=1 n=g5 v=65
1170240 On ch=1 n=g#5 v=65
1170480 Off ch=1 n=g#5 v=65
1170480 On ch=1 n=g5 v=65
1170720 Off ch=1 n=g5 v=65
1170720 On ch=1 n=f#5 v=65
1170960 Off ch=1 n=f#5 v=65
1170960 On ch=1 n=g5 v=65
1171200 Off ch=1 n=g5 v=65
1171200 On ch=1 n=f5 v=65
1171440 Off ch=1 n=f5 v=65
1171440 On ch=1 n=d#5 v=65
1171680 Off ch=1 n=d#5 v=65
1171680 On ch=1 n=d5 v=90
1171680 On ch=1 n=d6 v=90
1171920 Off ch=1 n=d6 v=65
1171920 Off ch=1 n=d5 v=65
1171920 On ch=1 n=d#5 v=90
1171920 On ch=1 n=d#6 v=90
1172095 Off ch=1 n=d#6 v=65
1172095 Off ch=1 n=d#5 v=65
1172160 On ch=1 n=g5 v=90
1172160 On ch=1 n=g6 v=90
1172400 Off ch=1 n=g6 v=65
1172400 Off ch=1 n=g5 v=65
1172400 On ch=1 n=f6 v=90
1172400 On ch=1 n=f5 v=90
1172640 Off ch=1 n=f5 v=65
1172640 Off ch=1 n=f6 v=65
1172640 On ch=1 n=d#6 v=90
1172640 On ch=1 n=d#5 v=90
1172880 Off ch=1 n=d#5 v=65
1172880 Off ch=1 n=d#6 v=65
1172880 On ch=1 n=c5 v=90
1172880 On ch=1 n=c6 v=90
1173120 Off ch=1 n=c6 v=65
1173120 Off ch=1 n=c5 v=65
1173120 On ch=1 n=a5 v=90
1173120 On ch=1 n=a4 v=90
1173360 Off ch=1 n=a4 v=65
1173360 Off ch=1 n=a5 v=65
1173360 On ch=1 n=a#4 v=90
1173360 On ch=1 n=g5 v=90
1173600 Off ch=1 n=g5 v=65
1173600 Off ch=1 n=a#4 v=65
1173600 On ch=1 n=f5 v=108
1173600 On ch=1 n=d5 v=108
1173600 On ch=1 n=b4 v=108
1173840 Off ch=1 n=b4 v=65
1173840 Off ch=1 n=d5 v=65
1173840 On ch=1 n=c5 v=90
1173840 On ch=1 n=d#5 v=90
1174080 Off ch=1 n=c5 v=65
1174320 Off ch=1 n=d#5 v=65
1174320 On ch=1 n=d5 v=90
1174560 Off ch=1 n=f5 v=65
1174560 Off ch=1 n=d5 v=65
1174560 On ch=1 n=c#5 v=90
1174800 Off ch=1 n=c#5 v=65
1174800 On ch=1 n=d5 v=90
1175040 Off ch=1 n=d5 v=65
1175040 On ch=1 n=c5 v=90
1175280 Off ch=1 n=c5 v=65
1175280 On ch=1 n=a#4 v=90
1175520 Off ch=1 n=a#4 v=65
1175520 On ch=1 n=g#4 v=108
1175520 On ch=1 n=d5 v=108
1175760 Off ch=1 n=g#4 v=65
1175760 On ch=1 n=a4 v=90
1176000 Off ch=1 n=a4 v=65
1176000 On ch=1 n=c5 v=65
1176240 Off ch=1 n=c5 v=65
1176240 On ch=1 n=a#4 v=65
1176480 Off ch=1 n=d5 v=65
1176480 Off ch=1 n=a#4 v=65
1176480 On ch=1 n=a4 v=65
1176720 Off ch=1 n=a4 v=65
1176720 On ch=1 n=a#4 v=65
1176960 Off ch=1 n=a#4 v=65
1176960 On ch=1 n=g#4 v=65
1177200 Off ch=1 n=g#4 v=65
1177200 On ch=1 n=g4 v=65
1177440 Off ch=1 n=g4 v=65
1177440 On ch=1 n=a#4 v=83
1177440 On ch=1 n=e4 v=83
1177680 Off ch=1 n=e4 v=65
1177680 On ch=1 n=f4 v=65
1177920 Off ch=1 n=f4 v=65
1177920 On ch=1 n=g#4 v=65
1178160 Off ch=1 n=g#4 v=65
1178160 On ch=1 n=g4 v=65
1178400 Off ch=1 n=a#4 v=65
1178400 Off ch=1 n=g4 v=65
1178400 On ch=1 n=f#4 v=65
1178640 Off ch=1 n=f#4 v=65
1178640 On ch=1 n=g4 v=65
1178880 Off ch=1 n=g4 v=65
1178880 On ch=1 n=f4 v=65
1179120 Off ch=1 n=f4 v=65
1179120 On ch=1 n=d#4 v=65
1179360 Off ch=1 n=d#4 v=65
1179360 On ch=1 n=g4 v=83
1179360 On ch=1 n=c#4 v=83
1179600 Off ch=1 n=c#4 v=65
1179600 On ch=1 n=d4 v=65
1179840 Off ch=1 n=d4 v=65
1179840 On ch=1 n=f4 v=71
1180080 Off ch=1 n=f4 v=65
1180080 On ch=1 n=d#4 v=71
1180320 Off ch=1 n=g4 v=65
1180320 Off ch=1 n=d#4 v=65
1180320 On ch=1 n=a#4 v=95
1180320 On ch=1 n=e4 v=95
1180560 Off ch=1 n=e4 v=65
1180560 On ch=1 n=f4 v=77
1180800 Off ch=1 n=f4 v=65
1180800 On ch=1 n=g#4 v=83
1181040 Off ch=1 n=g#4 v=65
1181040 On ch=1 n=g4 v=83
1181280 Off ch=1 n=a#4 v=65
1181280 Off ch=1 n=g4 v=65
1181280 On ch=1 n=c5 v=107
1181280 On ch=1 n=f#4 v=107
1181520 Off ch=1 n=f#4 v=65
1181520 On ch=1 n=g4 v=89
1181760 Off ch=1 n=g4 v=65
1181760 On ch=1 n=a#4 v=89
1182000 Off ch=1 n=a#4 v=65
1182000 On ch=1 n=g#4 v=89
1182240 Off ch=1 n=g#4 v=65
1182240 On ch=1 n=g4 v=89
1182480 Off ch=1 n=g4 v=65
1182480 On ch=1 n=g#4 v=89
1182720 Off ch=1 n=g#4 v=65
1182720 On ch=1 n=g4 v=89
1182960 Off ch=1 n=g4 v=65
1182960 On ch=1 n=f4 v=89
1183200 Off ch=1 n=c5 v=65
1183200 Off ch=1 n=f4 v=65
1183200 On ch=1 n=c5 v=83
1183200 On ch=1 n=f#4 v=83
1183440 Off ch=1 n=f#4 v=65
1183440 On ch=1 n=g4 v=65
1183680 Off ch=1 n=g4 v=65
1183680 On ch=1 n=a#4 v=65
1183920 Off ch=1 n=a#4 v=65
1183920 On ch=1 n=g#4 v=65
1184160 Off ch=1 n=c5 v=65
1184160 Off ch=1 n=g#4 v=65
1184160 On ch=1 n=d#5 v=83
1184160 On ch=1 n=a4 v=83
1184400 Off ch=1 n=a4 v=65
1184400 On ch=1 n=a#4 v=65
1184640 Off ch=1 n=a#4 v=65
1184640 On ch=1 n=c#5 v=65
1184880 Off ch=1 n=c#5 v=65
1184880 On ch=1 n=c5 v=65
1185120 Off ch=1 n=d#5 v=65
1185120 Off ch=1 n=c5 v=65
1185120 On ch=1 n=f5 v=83
1185120 On ch=1 n=b4 v=83
1185360 Off ch=1 n=b4 v=65
1185360 On ch=1 n=c5 v=65
1185600 Off ch=1 n=c5 v=65
1185600 On ch=1 n=d#5 v=74
1185840 Off ch=1 n=d#5 v=65
1185840 On ch=1 n=d5 v=74
1186080 Off ch=1 n=f5 v=65
1186080 Off ch=1 n=d5 v=65
1186080 On ch=1 n=c#5 v=83
1186320 Off ch=1 n=c#5 v=65
1186320 On ch=1 n=d5 v=83
1186560 Off ch=1 n=d5 v=65
1186560 On ch=1 n=d#5 v=92
1186800 Off ch=1 n=d#5 v=65
1186800 On ch=1 n=f5 v=92
1187040 Off ch=1 n=f5 v=65
1187040 On ch=1 n=f#6 v=102
1187040 On ch=1 n=f#5 v=102
1187280 Off ch=1 n=f#5 v=65
1187280 Off ch=1 n=f#6 v=65
1187280 On ch=1 n=g6 v=102
1187280 On ch=1 n=g5 v=102
1187520 Off ch=1 n=g5 v=65
1187520 Off ch=1 n=g6 v=65
1187520 On ch=1 n=g#6 v=102
1187520 On ch=1 n=g#5 v=102
1187760 Off ch=1 n=g#5 v=65
1187760 Off ch=1 n=g#6 v=65
1187760 On ch=1 n=g6 v=102
1187760 On ch=1 n=g5 v=102
1188000 Off ch=1 n=g5 v=65
1188000 Off ch=1 n=g6 v=65
1188000 On ch=1 n=f#6 v=102
1188000 On ch=1 n=f#5 v=102
1188240 Off ch=1 n=f#5 v=65
1188240 Off ch=1 n=f#6 v=65
1188240 On ch=1 n=g6 v=102
1188240 On ch=1 n=g5 v=102
1188480 Off ch=1 n=g5 v=65
1188480 Off ch=1 n=g6 v=65
1188480 On ch=1 n=f6 v=102
1188480 On ch=1 n=f5 v=102
1188720 Off ch=1 n=f5 v=65
1188720 Off ch=1 n=f6 v=65
1188720 On ch=1 n=d#6 v=102
1188720 On ch=1 n=d#5 v=102
1188960 Off ch=1 n=d#5 v=65
1188960 Off ch=1 n=d#6 v=65
1188960 On ch=1 n=d6 v=102
1188960 On ch=1 n=d5 v=102
1189200 Off ch=1 n=d5 v=65
1189200 Off ch=1 n=d6 v=65
1189200 On ch=1 n=d#6 v=102
1189200 On ch=1 n=d#5 v=102
1189440 Off ch=1 n=d#5 v=65
1189440 Off ch=1 n=d#6 v=65
1189440 On ch=1 n=f5 v=102
1189440 On ch=1 n=b4 v=102
1189440 On ch=1 n=f4 v=102
1190880 Off ch=1 n=f4 v=65
1190880 Off ch=1 n=b4 v=65
1190880 Off ch=1 n=f5 v=65
1190880 On ch=1 n=g6 v=102
1190880 On ch=1 n=g5 v=102
1191120 Off ch=1 n=g5 v=65
1191120 Off ch=1 n=g6 v=65
1191120 On ch=1 n=g#6 v=102
1191120 On ch=1 n=g#5 v=102
1191360 Off ch=1 n=g#5 v=65
1191360 Off ch=1 n=g#6 v=65
1191360 On ch=1 n=a#5 v=102
1191360 On ch=1 n=a#6 v=102
1191600 Off ch=1 n=a#6 v=65
1191600 Off ch=1 n=a#5 v=65
1191600 On ch=1 n=g#6 v=102
1191600 On ch=1 n=g#5 v=102
1191840 Off ch=1 n=g#5 v=65
1191840 Off ch=1 n=g#6 v=65
1191840 On ch=1 n=g6 v=102
1191840 On ch=1 n=g5 v=102
1192080 Off ch=1 n=g5 v=65
1192080 Off ch=1 n=g6 v=65
1192080 On ch=1 n=g#6 v=102
1192080 On ch=1 n=g#5 v=102
1192320 Off ch=1 n=g#5 v=65
1192320 Off ch=1 n=g#6 v=65
1192320 On ch=1 n=g5 v=102
1192320 On ch=1 n=g6 v=102
1192560 Off ch=1 n=g6 v=65
1192560 Off ch=1 n=g5 v=65
1192560 On ch=1 n=f5 v=102
1192560 On ch=1 n=f6 v=102
1192800 Off ch=1 n=f6 v=65
1192800 Off ch=1 n=f5 v=65
1192800 On ch=1 n=e5 v=102
1192800 On ch=1 n=e6 v=102
1193040 Off ch=1 n=e6 v=65
1193040 Off ch=1 n=e5 v=65
1193040 On ch=1 n=f5 v=102
1193040 On ch=1 n=f6 v=102
1193280 Off ch=1 n=f6 v=65
1193280 Off ch=1 n=f5 v=65
1193280 On ch=1 n=c#5 v=102
1193280 On ch=1 n=g4 v=102
1193280 On ch=1 n=g5 v=102
1194720 Off ch=1 n=g5 v=65
1194720 Off ch=1 n=g4 v=65
1194720 Off ch=1 n=c#5 v=65
1194720 On ch=1 n=a6 v=102
1194720 On ch=1 n=a5 v=102
1194960 Off ch=1 n=a5 v=65
1194960 Off ch=1 n=a6 v=65
1194960 On ch=1 n=a#6 v=102
1194960 On ch=1 n=a#5 v=102
1195200 Off ch=1 n=a#5 v=65
1195200 Off ch=1 n=a#6 v=65
1195200 On ch=1 n=c6 v=102
1195200 On ch=1 n=c7 v=102
1195440 Off ch=1 n=c7 v=65
1195440 Off ch=1 n=c6 v=65
1195440 On ch=1 n=a#6 v=102
1195440 On ch=1 n=a#5 v=102
1195680 Off ch=1 n=a#5 v=65
1195680 Off ch=1 n=a#6 v=65
1195680 On ch=1 n=a6 v=102
1195680 On ch=1 n=a5 v=102
1195920 Off ch=1 n=a5 v=65
1195920 Off ch=1 n=a6 v=65
1195920 On ch=1 n=a#6 v=102
1195920 On ch=1 n=a#5 v=102
1196160 Off ch=1 n=a#5 v=65
1196160 Off ch=1 n=a#6 v=65
1196160 On ch=1 n=g#5 v=102
1196160 On ch=1 n=g#6 v=102
1196400 Off ch=1 n=g#6 v=65
1196400 Off ch=1 n=g#5 v=65
1196400 On ch=1 n=g5 v=102
1196400 On ch=1 n=g6 v=102
1196640 Off ch=1 n=g6 v=65
1196640 Off ch=1 n=g5 v=65
1196640 On ch=1 n=f#5 v=102
1196640 On ch=1 n=f#6 v=102
1196880 Off ch=1 n=f#6 v=65
1196880 Off ch=1 n=f#5 v=65
1196880 On ch=1 n=g5 v=102
1196880 On ch=1 n=g6 v=102
1197120 Off ch=1 n=g6 v=65
1197120 Off ch=1 n=g5 v=65
1197120 On ch=1 n=a#6 v=102
1197120 On ch=1 n=a#5 v=102
1197360 Off ch=1 n=a#5 v=65
1197360 Off ch=1 n=a#6 v=65
1197360 On ch=1 n=f5 v=102
1197360 On ch=1 n=f6 v=102
1197600 Off ch=1 n=f6 v=65
1197600 Off ch=1 n=f5 v=65
1197600 On ch=1 n=d6 v=102
1197600 On ch=1 n=d5 v=102
1197840 Off ch=1 n=d5 v=65
1197840 Off ch=1 n=d6 v=65
1197840 On ch=1 n=d#5 v=102
1197840 On ch=1 n=d#6 v=102
1198080 Off ch=1 n=d#6 v=65
1198080 Off ch=1 n=d#5 v=65
1198080 On ch=1 n=a#6 v=102
1198080 On ch=1 n=a#5 v=102
1198320 Off ch=1 n=a#5 v=65
1198320 Off ch=1 n=a#6 v=65
1198320 On ch=1 n=d6 v=102
1198320 On ch=1 n=d5 v=102
1198560 Off ch=1 n=d5 v=65
1198560 Off ch=1 n=d6 v=65
1198560 On ch=1 n=c6 v=102
1198560 On ch=1 n=c5 v=102
1198800 Off ch=1 n=c5 v=65
1198800 Off ch=1 n=c6 v=65
1198800 On ch=1 n=c#5 v=102
1198800 On ch=1 n=c#6 v=102
1199040 Off ch=1 n=c#5 v=65
1199040 On ch=1 n=a#6 v=92
1199280 Off ch=1 n=c#6 v=65
1199280 Off ch=1 n=a#6 v=65
1199280 On ch=1 n=a#5 v=92
1199760 On ch=1 n=a#4 v=82
1200000 Off ch=1 n=a#5 v=65
1200000 On ch=1 n=g#5 v=72
1200240 Off ch=1 n=a#4 v=65
1200240 On ch=1 n=g#4 v=72
1200480 On ch=1 n=f#5 v=62
1200720 Off ch=1 n=f#5 v=65
1200720 Off ch=1 n=g#5 v=65
1200720 Off ch=1 n=g#4 v=65
1200720 On ch=1 n=f5 v=62
1200720 On ch=1 n=f4 v=62
1200840 Off ch=1 n=f4 v=65
1200840 Off ch=1 n=f5 v=65
1200840 On ch=1 n=f#5 v=62
1200840 On ch=1 n=f#4 v=62
1200926 On ch=1 n=g#4 v=53
1200953 On ch=1 n=d#5 v=53
1200960 Off ch=1 n=f#4 v=65
1200960 Off ch=1 n=f#5 v=65
1200960 On ch=1 n=a#5 v=53
1201080 Off ch=1 n=a#5 v=65
1201200 On ch=1 n=g#5 v=53
1201320 Off ch=1 n=g#5 v=65
1201440 On ch=1 n=g5 v=53
1201560 Off ch=1 n=g5 v=65
1201680 On ch=1 n=g#5 v=53
1201800 Off ch=1 n=g#5 v=65
1201920 On ch=1 n=g#5 v=53
1202040 Off ch=1 n=g#5 v=65
1202160 On ch=1 n=f#5 v=53
1202280 Off ch=1 n=f#5 v=65
1202400 On ch=1 n=f5 v=53
1202520 Off ch=1 n=f5 v=65
1202640 On ch=1 n=f#5 v=53
1202760 Off ch=1 n=f#5 v=65
1202872 Off ch=1 n=g#4 v=65
1202880 On ch=1 n=f5 v=53
1202880 On ch=1 n=a4 v=53
1204320 Off ch=1 n=a4 v=65
1204320 Off ch=1 n=d#5 v=65
1204320 Off ch=1 n=f5 v=65
1204320 On ch=1 n=d5 v=53
1204560 Off ch=1 n=d5 v=65
1204560 On ch=1 n=d#5 v=53
1204800 Off ch=1 n=d#5 v=65
1204800 On ch=1 n=a#5 v=53
1204800 On ch=1 n=d#5 v=53
1204800 On ch=1 n=g#4 v=53
1204920 Off ch=1 n=a#5 v=65
1205040 On ch=1 n=g#5 v=53
1205160 Off ch=1 n=g#5 v=65
1205280 On ch=1 n=g5 v=53
1205400 Off ch=1 n=g5 v=65
1205520 On ch=1 n=g#5 v=53
1205640 Off ch=1 n=g#5 v=65
1205760 On ch=1 n=g#5 v=53
1205880 Off ch=1 n=g#5 v=65
1206000 On ch=1 n=f#5 v=53
1206120 Off ch=1 n=f#5 v=65
1206240 On ch=1 n=f5 v=53
1206360 Off ch=1 n=f5 v=65
1206480 On ch=1 n=f#5 v=53
1206600 Off ch=1 n=f#5 v=65
1206720 Off ch=1 n=g#4 v=65
1206720 On ch=1 n=f5 v=53
1206720 On ch=1 n=a4 v=53
1208160 Off ch=1 n=a4 v=65
1208160 Off ch=1 n=d#5 v=65
1208160 Off ch=1 n=f5 v=65
1208160 On ch=1 n=f5 v=53
1208160 On ch=1 n=d5 v=53
1208160 On ch=1 n=g#4 v=53
1208640 Off ch=1 n=g#4 v=65
1208640 Off ch=1 n=d5 v=65
1208640 Off ch=1 n=f5 v=65
1208640 On ch=1 n=d#5 v=53
1208640 On ch=1 n=c5 v=53
1208640 On ch=1 n=g4 v=53
1209600 Off ch=1 n=g4 v=65
1209600 Off ch=1 n=c5 v=65
1209600 Off ch=1 n=d#5 v=65
1209600 On ch=1 n=c5 v=53
1209600 On ch=1 n=a4 v=53
1209600 On ch=1 n=d#4 v=53
1210080 Off ch=1 n=d#4 v=65
1210080 Off ch=1 n=a4 v=65
1210080 Off ch=1 n=c5 v=65
1210080 On ch=1 n=c#6 v=90
1210320 Off ch=1 n=c#6 v=65
1210320 On ch=1 n=d6 v=90
1210500 On ch=1 n=d5 v=90
1210560 Off ch=1 n=d6 v=65
1210560 On ch=1 n=d#6 v=90
1210800 Off ch=1 n=d#6 v=65
1210800 On ch=1 n=d6 v=90
1211040 Off ch=1 n=d6 v=65
1211040 On ch=1 n=c#6 v=90
1211280 Off ch=1 n=c#6 v=65
1211280 On ch=1 n=d6 v=90
1211520 Off ch=1 n=d6 v=65
1211520 On ch=1 n=c6 v=90
1211760 Off ch=1 n=c6 v=65
1211760 On ch=1 n=a#5 v=90
1212000 Off ch=1 n=d5 v=65
1212000 Off ch=1 n=a#5 v=65
1212000 On ch=1 n=a5 v=90
1212000 On ch=1 n=c#5 v=90
1212240 Off ch=1 n=c#5 v=65
1212240 Off ch=1 n=a5 v=65
1212240 On ch=1 n=a#5 v=90
1212240 On ch=1 n=d5 v=90
1212480 Off ch=1 n=d5 v=65
1212480 Off ch=1 n=a#5 v=65
1212480 On ch=1 n=f5 v=90
1212480 On ch=1 n=d#5 v=90
1212720 Off ch=1 n=d#5 v=65
1212720 On ch=1 n=d5 v=90
1212960 Off ch=1 n=d5 v=65
1212960 On ch=1 n=c#5 v=90
1213200 Off ch=1 n=c#5 v=65
1213200 On ch=1 n=d5 v=90
1213440 Off ch=1 n=d5 v=65
1213440 On ch=1 n=c5 v=90
1213680 Off ch=1 n=c5 v=65
1213680 On ch=1 n=a#4 v=90
1213920 Off ch=1 n=f5 v=65
1213920 Off ch=1 n=a#4 v=65
1213920 On ch=1 n=c#5 v=90
1213920 On ch=1 n=a#4 v=90
1213920 On ch=1 n=e4 v=90
1214160 Off ch=1 n=e4 v=65
1214160 Off ch=1 n=a#4 v=65
1214160 Off ch=1 n=c#5 v=65
1214160 On ch=1 n=f4 v=90
1214160 On ch=1 n=d5 v=90
1214160 On ch=1 n=a#4 v=90
1214400 Off ch=1 n=a#4 v=65
1214400 Off ch=1 n=d5 v=65
1214400 Off ch=1 n=f4 v=65
1214400 On ch=1 n=d#5 v=90
1214400 On ch=1 n=g4 v=90
1214400 On ch=1 n=a#4 v=90
1214640 Off ch=1 n=g4 v=65
1214640 Off ch=1 n=d#5 v=65
1214640 On ch=1 n=d5 v=90
1214640 On ch=1 n=f4 v=90
1214880 Off ch=1 n=f4 v=65
1214880 Off ch=1 n=d5 v=65
1214880 On ch=1 n=e4 v=90
1214880 On ch=1 n=c#5 v=90
1215120 Off ch=1 n=c#5 v=65
1215120 Off ch=1 n=e4 v=65
1215120 On ch=1 n=d5 v=90
1215120 On ch=1 n=f4 v=90
1215360 Off ch=1 n=f4 v=65
1215360 Off ch=1 n=a#4 v=65
1215360 Off ch=1 n=d5 v=65
1215360 On ch=1 n=d#4 v=90
1215360 On ch=1 n=c5 v=90
1215600 Off ch=1 n=c5 v=65
1215600 Off ch=1 n=d#4 v=65
1215600 On ch=1 n=a#4 v=90
1215600 On ch=1 n=d4 v=90
1215840 Off ch=1 n=d4 v=65
1215840 Off ch=1 n=a#4 v=65
1215840 On ch=1 n=c#4 v=90
1215840 On ch=1 n=a4 v=90
1216080 Off ch=1 n=a4 v=65
1216080 Off ch=1 n=c#4 v=65
1216080 On ch=1 n=a#4 v=90
1216080 On ch=1 n=d4 v=90
1216320 Off ch=1 n=d4 v=65
1216320 Off ch=1 n=a#4 v=65
1216320 On ch=1 n=f4 v=90
1216320 On ch=1 n=d4 v=90
1216800 Off ch=1 n=d4 v=65
1216800 Off ch=1 n=f4 v=65
1220640 On ch=1 n=g5 v=65
1220640 On ch=1 n=d#5 v=65
1220640 On ch=1 n=g4 v=65
1220880 Off ch=1 n=g4 v=65
1220880 Off ch=1 n=d#5 v=65
1220880 Off ch=1 n=g5 v=65
1221600 On ch=1 n=a5 v=65
1221600 On ch=1 n=d#5 v=65
1221600 On ch=1 n=a4 v=65
1221780 Off ch=1 n=a4 v=65
1221780 Off ch=1 n=d#5 v=65
1221780 Off ch=1 n=a5 v=65
1222080 On ch=1 n=a#5 v=65
1222080 On ch=1 n=a#4 v=65
1222200 Off ch=1 n=a#4 v=65
1222200 Off ch=1 n=a#5 v=65
1222320 On ch=1 n=c5 v=65
1222320 On ch=1 n=f#5 v=65
1222320 On ch=1 n=c6 v=65
1222440 Off ch=1 n=c6 v=65
1222440 Off ch=1 n=f#5 v=65
1222440 Off ch=1 n=c5 v=65
1222560 On ch=1 n=d6 v=65
1222560 On ch=1 n=d5 v=65
1222680 Off ch=1 n=d5 v=65
1222680 Off ch=1 n=d6 v=65
1222800 On ch=1 n=a#5 v=65
1222800 On ch=1 n=d#5 v=65
1222800 On ch=1 n=d#6 v=65
1222920 Off ch=1 n=d#6 v=65
1222920 Off ch=1 n=d#5 v=65
1222920 Off ch=1 n=a#5 v=65
1223040 On ch=1 n=d5 v=65
1223040 On ch=1 n=a#5 v=65
1223040 On ch=1 n=d6 v=65
1223280 Off ch=1 n=d6 v=65
1223280 Off ch=1 n=a#5 v=65
1223280 Off ch=1 n=d5 v=65
1223520 On ch=1 n=c6 v=65
1224000 Off ch=1 n=c6 v=65
1224480 On ch=1 n=g6 v=53
1224480 On ch=1 n=d#6 v=53
1224480 On ch=1 n=g5 v=53
1224720 Off ch=1 n=g5 v=65
1224720 Off ch=1 n=d#6 v=65
1224720 Off ch=1 n=g6 v=65
1225440 On ch=1 n=a6 v=53
1225440 On ch=1 n=d#6 v=53
1225440 On ch=1 n=a5 v=53
1225620 Off ch=1 n=a5 v=65
1225620 Off ch=1 n=d#6 v=65
1225620 Off ch=1 n=a6 v=65
1225920 On ch=1 n=a#6 v=53
1225920 On ch=1 n=a#5 v=53
1226040 Off ch=1 n=a#5 v=65
1226040 Off ch=1 n=a#6 v=65
1226160 On ch=1 n=c6 v=53
1226160 On ch=1 n=f#6 v=53
1226160 On ch=1 n=c7 v=53
1226280 Off ch=1 n=c7 v=65
1226280 Off ch=1 n=f#6 v=65
1226280 Off ch=1 n=c6 v=65
1226400 On ch=1 n=d7 v=53
1226400 On ch=1 n=d6 v=53
1226520 Off ch=1 n=d6 v=65
1226520 Off ch=1 n=d7 v=65
1226640 On ch=1 n=a#6 v=53
1226640 On ch=1 n=d#6 v=53
1226640 On ch=1 n=d#7 v=53
1226760 Off ch=1 n=d#7 v=65
1226760 Off ch=1 n=d#6 v=65
1226760 Off ch=1 n=a#6 v=65
1226880 On ch=1 n=d6 v=53
1226880 On ch=1 n=a#6 v=53
1226880 On ch=1 n=d7 v=53
1227120 Off ch=1 n=d7 v=65
1227120 Off ch=1 n=a#6 v=65
1227120 Off ch=1 n=d6 v=65
1227360 On ch=1 n=c7 v=53
1227840 Off ch=1 n=c7 v=65
1229760 On ch=1 n=a#4 v=127
1229760 On ch=1 n=a#5 v=127
1230720 Off ch=1 n=a#5 v=65
1230720 Off ch=1 n=a#4 v=65
1230720 On ch=1 n=a5 v=120
1230720 On ch=1 n=a4 v=120
1231200 Off ch=1 n=a4 v=65
1231200 Off ch=1 n=a5 v=65
1231200 On ch=1 n=g#5 v=120
1231200 On ch=1 n=g#4 v=120
1231680 Off ch=1 n=g#4 v=65
1231680 Off ch=1 n=g#5 v=65
1231680 On ch=1 n=g5 v=120
1231680 On ch=1 n=g4 v=120
1232160 Off ch=1 n=g4 v=65
1232160 Off ch=1 n=g5 v=65
1232160 On ch=1 n=f#5 v=120
1232160 On ch=1 n=f#4 v=120
1232160 On ch=1 n=d#5 v=120
1232160 On ch=1 n=c5 v=120
1232640 Off ch=1 n=f#4 v=65
1232640 Off ch=1 n=f#5 v=65
1232640 On ch=1 n=f5 v=120
1232640 On ch=1 n=f4 v=120
1233120 Off ch=1 n=f4 v=65
1233120 Off ch=1 n=d#5 v=65
1233120 Off ch=1 n=c5 v=65
1233120 Off ch=1 n=f5 v=65
1233120 On ch=1 n=f5 v=120
1233120 On ch=1 n=d5 v=120
1233120 On ch=1 n=f4 v=120
1233120 On ch=1 n=a#4 v=120
1233600 Off ch=1 n=f4 v=65
1233600 Off ch=1 n=d5 v=65
1233600 Off ch=1 n=f5 v=65
1233600 On ch=1 n=d#5 v=120
1233600 On ch=1 n=d#4 v=120
1234080 Off ch=1 n=d#4 v=65
1234080 Off ch=1 n=a#4 v=65
1234080 Off ch=1 n=d#5 v=65
1234080 On ch=1 n=e5 v=120
1234080 On ch=1 n=c#5 v=120
1234080 On ch=1 n=a#4 v=120
1234080 On ch=1 n=e4 v=120
1234560 Off ch=1 n=e4 v=65
1234560 Off ch=1 n=a#4 v=65
1234560 Off ch=1 n=c#5 v=65
1234560 Off ch=1 n=e5 v=65
1234560 On ch=1 n=f5 v=120
1234560 On ch=1 n=d5 v=120
1234560 On ch=1 n=a#4 v=120
1235040 Off ch=1 n=a#4 v=65
1235040 Off ch=1 n=d5 v=65
1235040 Off ch=1 n=f5 v=65
1235040 On ch=1 n=f5 v=120
1235040 On ch=1 n=c5 v=120
1235040 On ch=1 n=a4 v=120
1235520 Off ch=1 n=a4 v=65
1235520 Off ch=1 n=c5 v=65
1235520 Off ch=1 n=f5 v=65
1235520 On ch=1 n=a#5 v=127
1235520 On ch=1 n=a#6 v=127
1236480 Off ch=1 n=a#6 v=65
1236480 Off ch=1 n=a#5 v=65
1236480 On ch=1 n=a6 v=120
1236480 On ch=1 n=a5 v=120
1236960 Off ch=1 n=a5 v=65
1236960 Off ch=1 n=a6 v=65
1236960 On ch=1 n=g#6 v=120
1236960 On ch=1 n=g#5 v=120
1236960 On ch=1 n=f6 v=120
1236960 On ch=1 n=d6 v=120
1237440 Off ch=1 n=g#5 v=65
1237440 Off ch=1 n=g#6 v=65
1237440 On ch=1 n=g6 v=120
1237440 On ch=1 n=g5 v=120
1237920 Off ch=1 n=g5 v=65
1237920 Off ch=1 n=f6 v=65
1237920 Off ch=1 n=d6 v=65
1237920 Off ch=1 n=g6 v=65
1237920 On ch=1 n=f#6 v=120
1237920 On ch=1 n=f#5 v=120
1237920 On ch=1 n=d#6 v=120
1237920 On ch=1 n=c6 v=120
1238400 Off ch=1 n=f#5 v=65
1238400 Off ch=1 n=f#6 v=65
1238400 On ch=1 n=f5 v=120
1238400 On ch=1 n=f6 v=120
1238880 Off ch=1 n=f6 v=65
1238880 Off ch=1 n=d#6 v=65
1238880 Off ch=1 n=c6 v=65
1238880 Off ch=1 n=f5 v=65
1238880 On ch=1 n=f6 v=120
1238880 On ch=1 n=d6 v=120
1238880 On ch=1 n=f5 v=120
1238880 On ch=1 n=a#5 v=120
1239360 Off ch=1 n=f5 v=65
1239360 Off ch=1 n=d6 v=65
1239360 Off ch=1 n=f6 v=65
1239360 On ch=1 n=d#6 v=120
1239360 On ch=1 n=d#5 v=120
1239840 Off ch=1 n=d#5 v=65
1239840 Off ch=1 n=a#5 v=65
1239840 Off ch=1 n=d#6 v=65
1239840 On ch=1 n=d#6 v=120
1239840 On ch=1 n=c#6 v=120
1239840 On ch=1 n=a#5 v=120
1239840 On ch=1 n=e5 v=120
1240320 Off ch=1 n=e5 v=65
1240320 Off ch=1 n=a#5 v=65
1240320 Off ch=1 n=c#6 v=65
1240320 Off ch=1 n=d#6 v=65
1240320 On ch=1 n=f6 v=120
1240320 On ch=1 n=d6 v=120
1240320 On ch=1 n=a#5 v=120
1240800 Off ch=1 n=a#5 v=65
1240800 Off ch=1 n=d6 v=65
1240800 Off ch=1 n=f6 v=65
1240800 On ch=1 n=f6 v=120
1240800 On ch=1 n=c6 v=120
1240800 On ch=1 n=a5 v=120
1241280 Off ch=1 n=a5 v=65
1241280 Off ch=1 n=c6 v=65
1241280 Off ch=1 n=f6 v=65
1241280 On ch=1 n=a#6 v=127
1241280 On ch=1 n=a#7 v=127
1242240 Off ch=1 n=a#7 v=65
1242240 Off ch=1 n=a#6 v=65
1242240 On ch=1 n=g6 v=120
1242240 On ch=1 n=g7 v=120
1242720 Off ch=1 n=g7 v=65
1242720 Off ch=1 n=g6 v=65
1242720 On ch=1 n=f#7 v=120
1242720 On ch=1 n=f#6 v=120
1242720 On ch=1 n=c7 v=120
1242720 On ch=1 n=d#7 v=120
1243200 Off ch=1 n=d#7 v=65
1243200 Off ch=1 n=c7 v=65
1243200 Off ch=1 n=f#6 v=65
1243200 Off ch=1 n=f#7 v=65
1243200 On ch=1 n=f7 v=120
1243200 On ch=1 n=d7 v=120
1243200 On ch=1 n=a#6 v=120
1243200 On ch=1 n=f6 v=120
1243680 Off ch=1 n=f6 v=65
1243680 Off ch=1 n=a#6 v=65
1243680 Off ch=1 n=d7 v=65
1243680 Off ch=1 n=f7 v=65
1243680 On ch=1 n=a#5 v=120
1243680 On ch=1 n=f6 v=120
1243680 On ch=1 n=g#6 v=120
1243680 On ch=1 n=a#6 v=120
1244160 Off ch=1 n=a#6 v=65
1244160 Off ch=1 n=g#6 v=65
1244160 Off ch=1 n=f6 v=65
1244160 Off ch=1 n=a#5 v=65
1244160 On ch=1 n=g6 v=120
1244160 On ch=1 n=d#6 v=120
1244160 On ch=1 n=g5 v=120
1244640 Off ch=1 n=g5 v=65
1244640 Off ch=1 n=d#6 v=65
1244640 Off ch=1 n=g6 v=65
1244640 On ch=1 n=f#5 v=120
1244640 On ch=1 n=c6 v=120
1244640 On ch=1 n=d#6 v=120
1244640 On ch=1 n=f#6 v=120
1245120 Off ch=1 n=f#6 v=65
1245120 Off ch=1 n=d#6 v=65
1245120 Off ch=1 n=c6 v=65
1245120 Off ch=1 n=f#5 v=65
1245120 On ch=1 n=f6 v=120
1245120 On ch=1 n=d6 v=120
1245120 On ch=1 n=a#5 v=120
1245120 On ch=1 n=f5 v=120
1245600 Off ch=1 n=f5 v=65
1245600 Off ch=1 n=a#5 v=65
1245600 Off ch=1 n=d6 v=65
1245600 Off ch=1 n=f6 v=65
1245600 On ch=1 n=a#5 v=120
1245600 On ch=1 n=g#5 v=120
1245600 On ch=1 n=f5 v=120
1245600 On ch=1 n=a#4 v=120
1246080 Off ch=1 n=a#4 v=65
1246080 Off ch=1 n=f5 v=65
1246080 Off ch=1 n=g#5 v=65
1246080 Off ch=1 n=a#5 v=65
1246080 On ch=1 n=g5 v=120
1246080 On ch=1 n=d#5 v=120
1246080 On ch=1 n=g4 v=120
1246560 Off ch=1 n=g4 v=65
1246560 Off ch=1 n=d#5 v=65
1246560 Off ch=1 n=g5 v=65
1246560 On ch=1 n=f#5 v=120
1246560 On ch=1 n=d#5 v=120
1246560 On ch=1 n=c5 v=120
1246560 On ch=1 n=f#4 v=120
1247040 Off ch=1 n=f#4 v=65
1247040 Off ch=1 n=c5 v=65
1247040 Off ch=1 n=d#5 v=65
1247040 Off ch=1 n=f#5 v=65
1247040 On ch=1 n=f5 v=120
1247040 On ch=1 n=d5 v=120
1247040 On ch=1 n=a#4 v=120
1247040 On ch=1 n=f4 v=120
1247520 Off ch=1 n=f4 v=65
1247520 Off ch=1 n=a#4 v=65
1247520 Off ch=1 n=d5 v=65
1247520 Off ch=1 n=f5 v=65
1247520 On ch=1 n=f#5 v=120
1247520 On ch=1 n=d#5 v=120
1247520 On ch=1 n=c5 v=120
1247520 On ch=1 n=f#4 v=120
1248000 Off ch=1 n=f#4 v=65
1248000 Off ch=1 n=c5 v=65
1248000 Off ch=1 n=d#5 v=65
1248000 Off ch=1 n=f#5 v=65
1248000 On ch=1 n=f5 v=120
1248000 On ch=1 n=d5 v=120
1248000 On ch=1 n=a#4 v=120
1248000 On ch=1 n=f4 v=120
1248480 Off ch=1 n=f4 v=65
1248480 Off ch=1 n=a#4 v=65
1248480 Off ch=1 n=d5 v=65
1248480 Off ch=1 n=f5 v=65
1248480 On ch=1 n=f#4 v=120
1248480 On ch=1 n=c5 v=120
1248480 On ch=1 n=d#5 v=120
1248480 On ch=1 n=f#5 v=120
1248960 Off ch=1 n=f#5 v=65
1248960 Off ch=1 n=d#5 v=65
1248960 Off ch=1 n=c5 v=65
1248960 Off ch=1 n=f#4 v=65
1248960 On ch=1 n=f4 v=120
1248960 On ch=1 n=a#4 v=120
1248960 On ch=1 n=d5 v=120
1248960 On ch=1 n=f5 v=120
1249440 Off ch=1 n=f5 v=65
1249440 Off ch=1 n=d5 v=65
1249440 Off ch=1 n=a#4 v=65
1249440 Off ch=1 n=f4 v=65
1249920 On ch=1 n=a#6 v=127
1249920 On ch=1 n=d7 v=127
1249920 On ch=1 n=d6 v=127
1250400 Off ch=1 n=d6 v=65
1250400 Off ch=1 n=d7 v=65
1250400 Off ch=1 n=a#6 v=65
1250760 On ch=1 n=a#4 v=114
1250760 On ch=1 n=d4 v=114
1250880 Off ch=1 n=d4 v=65
1250880 Off ch=1 n=a#4 v=65
1250880 On ch=1 n=a#4 v=114
1250880 On ch=1 n=d4 v=114
1252800 Off ch=1 n=d4 v=65
1252800 Off ch=1 n=a#4 v=65
1252800 Meta TrkEnd
TrkEnd
MTrk
0 Meta TrkName "Piano - L Hand"
0 Meta 0x21 00
0 Meta 0x20 00
0 Par ch=1 c=10 v=64
0 PrCh ch=1 p=0
960 On ch=1 n=d4 v=65
1920 Off ch=1 n=d4 v=80
1920 On ch=1 n=d#4 v=65
2880 Off ch=1 n=d#4 v=80
2880 On ch=1 n=d#4 v=65
3840 Off ch=1 n=d#4 v=80
3840 On ch=1 n=d4 v=90
4800 Off ch=1 n=d4 v=80
4800 On ch=1 n=d#4 v=90
5760 Off ch=1 n=d#4 v=80
5760 On ch=1 n=f4 v=90
6720 Off ch=1 n=f4 v=80
6720 On ch=1 n=f3 v=78
7680 Off ch=1 n=f3 v=80
7680 On ch=1 n=a#3 v=65
8640 Off ch=1 n=a#3 v=80
8640 On ch=1 n=d4 v=65
9600 Off ch=1 n=d4 v=80
9600 On ch=1 n=d#4 v=65
10560 Off ch=1 n=d#4 v=80
10560 On ch=1 n=d#4 v=65
11520 Off ch=1 n=d#4 v=80
11520 On ch=1 n=d4 v=90
12480 Off ch=1 n=d4 v=80
12480 On ch=1 n=d#4 v=90
13440 Off ch=1 n=d#4 v=80
13440 On ch=1 n=f4 v=90
14400 Off ch=1 n=f4 v=80
14400 On ch=1 n=f3 v=78
15360 Off ch=1 n=f3 v=80
15360 On ch=1 n=a#3 v=65
16320 Off ch=1 n=a#3 v=80
16320 On ch=1 n=f#3 v=53
17280 Off ch=1 n=f#3 v=80
18240 On ch=1 n=f3 v=53
19200 Off ch=1 n=f3 v=80
19200 On ch=1 n=f#3 v=53
20160 Off ch=1 n=f#3 v=80
20160 On ch=1 n=c#3 v=53
21120 Off ch=1 n=c#3 v=80
22080 On ch=1 n=a#3 v=53
23040 Off ch=1 n=a#3 v=80
23040 On ch=1 n=g#3 v=53
24000 Off ch=1 n=g#3 v=80
24000 On ch=1 n=f#3 v=53
24960 Off ch=1 n=f#3 v=80
24960 On ch=1 n=f3 v=53
25440 Off ch=1 n=f3 v=80
25920 On ch=1 n=g#3 v=53
26880 Off ch=1 n=g#3 v=80
26880 On ch=1 n=c#4 v=53
27840 Off ch=1 n=c#4 v=80
27840 On ch=1 n=c#3 v=53
28800 Off ch=1 n=c#3 v=80
29760 On ch=1 n=b3 v=53
30720 Off ch=1 n=b3 v=80
30720 On ch=1 n=a#3 v=53
31680 Off ch=1 n=a#3 v=80
31680 On ch=1 n=g#3 v=53
32640 Off ch=1 n=g#3 v=80
32640 On ch=1 n=g3 v=53
33120 Off ch=1 n=g3 v=80
33600 On ch=1 n=g3 v=53
34560 Off ch=1 n=g3 v=80
34560 On ch=1 n=e4 v=78
35520 Off ch=1 n=e4 v=80
35520 On ch=1 n=g#3 v=53
36480 Off ch=1 n=g#3 v=80
37440 On ch=1 n=g#3 v=53
38400 Off ch=1 n=g#3 v=80
38400 On ch=1 n=f4 v=65
39360 Off ch=1 n=f4 v=80
39360 On ch=1 n=a#3 v=78
40320 Off ch=1 n=a#3 v=80
40320 On ch=1 n=d#4 v=65
41280 Off ch=1 n=d#4 v=80
41280 On ch=1 n=d#4 v=65
42240 Off ch=1 n=d#4 v=80
42240 On ch=1 n=d4 v=90
43200 Off ch=1 n=d4 v=80
43200 On ch=1 n=d#4 v=90
44160 Off ch=1 n=d#4 v=80
44160 On ch=1 n=f4 v=90
45120 Off ch=1 n=f4 v=80
45120 On ch=1 n=f3 v=78
46080 Off ch=1 n=f3 v=80
46080 On ch=1 n=a#3 v=65
47040 Off ch=1 n=a#3 v=80
47040 On ch=1 n=d4 v=65
48000 Off ch=1 n=d4 v=80
48000 On ch=1 n=d#4 v=65
48960 Off ch=1 n=d#4 v=80
48960 On ch=1 n=d#4 v=65
49920 Off ch=1 n=d#4 v=80
49920 On ch=1 n=d4 v=90
50880 Off ch=1 n=d4 v=80
50880 On ch=1 n=d#4 v=90
51840 Off ch=1 n=d#4 v=80
51840 On ch=1 n=f4 v=90
52800 Off ch=1 n=f4 v=80
52800 On ch=1 n=f3 v=78
53760 Off ch=1 n=f3 v=80
53760 On ch=1 n=a#3 v=65
54720 Off ch=1 n=a#3 v=80
54720 On ch=1 n=f3 v=65
55200 Off ch=1 n=f3 v=80
55680 On ch=1 n=b3 v=65
56640 Off ch=1 n=b3 v=80
56640 On ch=1 n=f3 v=65
57120 Off ch=1 n=f3 v=80
57600 On ch=1 n=c4 v=65
58560 Off ch=1 n=c4 v=80
58560 On ch=1 n=f3 v=65
59040 Off ch=1 n=f3 v=80
59520 On ch=1 n=c#4 v=65
60480 Off ch=1 n=c#4 v=80
60480 On ch=1 n=f3 v=65
60960 Off ch=1 n=f3 v=80
61440 On ch=1 n=d4 v=65
62400 Off ch=1 n=d4 v=80
62400 On ch=1 n=f3 v=65
62880 Off ch=1 n=f3 v=80
63360 On ch=1 n=e4 v=65
63840 On ch=1 n=c#5 v=69
64080 Off ch=1 n=c#5 v=80
64080 On ch=1 n=g4 v=78
64320 Off ch=1 n=e4 v=80
64320 On ch=1 n=f3 v=90
64800 Off ch=1 n=g4 v=80
64800 Off ch=1 n=f3 v=80
64800 On ch=1 n=c#5 v=78
65040 Off ch=1 n=c#5 v=80
65040 On ch=1 n=g4 v=65
65280 Off ch=1 n=g4 v=80
65280 On ch=1 n=f4 v=65
66240 Off ch=1 n=f4 v=80
66240 On ch=1 n=f3 v=65
66720 Off ch=1 n=f3 v=80
67200 On ch=1 n=a#3 v=65
67920 Off ch=1 n=a#3 v=80
67920 On ch=1 n=c5 v=56
68160 Off ch=1 n=c5 v=80
68160 On ch=1 n=a#4 v=53
68400 Off ch=1 n=a#4 v=80
68400 On ch=1 n=f#4 v=50
68640 Off ch=1 n=f#4 v=80
68640 On ch=1 n=f4 v=47
68880 On ch=1 n=d#4 v=44
69120 Off ch=1 n=d#4 v=80
69120 On ch=1 n=a#3 v=44
70080 Off ch=1 n=f4 v=80
70080 Off ch=1 n=a#3 v=80
71040 On ch=1 n=a#3 v=90
71280 Off ch=1 n=a#3 v=80
71280 On ch=1 n=a#4 v=78
71400 Off ch=1 n=a#4 v=80
71400 On ch=1 n=f4 v=78
71520 Off ch=1 n=f4 v=80
71520 On ch=1 n=d4 v=90
71760 Off ch=1 n=d4 v=80
71760 On ch=1 n=a#4 v=78
71880 Off ch=1 n=a#4 v=80
71880 On ch=1 n=f4 v=78
72000 Off ch=1 n=f4 v=80
72000 On ch=1 n=a#3 v=90
72240 Off ch=1 n=a#3 v=80
72240 On ch=1 n=d5 v=78
72360 Off ch=1 n=d5 v=80
72360 On ch=1 n=b4 v=78
72480 Off ch=1 n=b4 v=80
72480 On ch=1 n=d#4 v=90
72720 Off ch=1 n=d#4 v=80
72720 On ch=1 n=d#5 v=78
72840 Off ch=1 n=d#5 v=80
72840 On ch=1 n=a#4 v=78
72960 Off ch=1 n=a#4 v=80
72960 On ch=1 n=f4 v=90
73200 Off ch=1 n=f4 v=80
73200 On ch=1 n=d5 v=78
73320 Off ch=1 n=d5 v=80
73320 On ch=1 n=a#4 v=78
73440 Off ch=1 n=a#4 v=80
73440 On ch=1 n=f3 v=90
73680 Off ch=1 n=f3 v=80
73680 On ch=1 n=a4 v=78
73800 Off ch=1 n=a4 v=80
73800 On ch=1 n=f4 v=78
73920 Off ch=1 n=f4 v=80
73920 On ch=1 n=a#3 v=102
74160 Off ch=1 n=a#3 v=80
74160 On ch=1 n=a#4 v=90
74280 Off ch=1 n=a#4 v=80
74280 On ch=1 n=f4 v=90
74400 Off ch=1 n=f4 v=80
74400 On ch=1 n=d4 v=102
74640 Off ch=1 n=d4 v=80
74640 On ch=1 n=a#4 v=90
74760 Off ch=1 n=a#4 v=80
74760 On ch=1 n=f4 v=90
74880 Off ch=1 n=f4 v=80
74880 On ch=1 n=a#3 v=65
75120 Off ch=1 n=a#3 v=80
75120 On ch=1 n=a#4 v=53
75240 Off ch=1 n=a#4 v=80
75240 On ch=1 n=f4 v=53
75360 Off ch=1 n=f4 v=80
75360 On ch=1 n=d4 v=65
75600 Off ch=1 n=d4 v=80
75600 On ch=1 n=a#4 v=53
75720 Off ch=1 n=a#4 v=80
75720 On ch=1 n=f4 v=53
75840 Off ch=1 n=f4 v=80
75840 On ch=1 n=g3 v=65
76080 Off ch=1 n=g3 v=80
76080 On ch=1 n=d5 v=53
76200 Off ch=1 n=d5 v=80
76200 On ch=1 n=b4 v=53
76320 Off ch=1 n=b4 v=80
76320 On ch=1 n=g4 v=65
76560 Off ch=1 n=g4 v=80
76560 On ch=1 n=d5 v=53
76680 Off ch=1 n=d5 v=80
76680 On ch=1 n=b4 v=53
76800 Off ch=1 n=b4 v=80
76800 On ch=1 n=c4 v=65
77040 Off ch=1 n=c4 v=80
77040 On ch=1 n=d#5 v=53
77160 Off ch=1 n=d#5 v=80
77160 On ch=1 n=c5 v=53
77280 Off ch=1 n=c5 v=80
77280 On ch=1 n=g4 v=65
77520 Off ch=1 n=g4 v=80
77520 On ch=1 n=d5 v=53
77640 Off ch=1 n=d5 v=80
77640 On ch=1 n=b4 v=53
77760 Off ch=1 n=b4 v=80
77760 On ch=1 n=d#4 v=102
78000 Off ch=1 n=d#4 v=80
78000 On ch=1 n=d#5 v=90
78120 Off ch=1 n=d#5 v=80
78120 On ch=1 n=a#4 v=90
78240 Off ch=1 n=a#4 v=80
78240 On ch=1 n=g4 v=102
78480 Off ch=1 n=g4 v=80
78480 On ch=1 n=d#5 v=90
78600 Off ch=1 n=d#5 v=80
78600 On ch=1 n=a#4 v=90
78720 Off ch=1 n=a#4 v=80
78720 On ch=1 n=d#4 v=65
78960 Off ch=1 n=d#4 v=80
78960 On ch=1 n=d#5 v=53
79080 Off ch=1 n=d#5 v=80
79080 On ch=1 n=a#4 v=53
79200 Off ch=1 n=a#4 v=80
79200 On ch=1 n=g4 v=65
79440 Off ch=1 n=g4 v=80
79440 On ch=1 n=d#5 v=53
79560 Off ch=1 n=d#5 v=80
79560 On ch=1 n=a#4 v=53
79680 Off ch=1 n=a#4 v=80
79680 On ch=1 n=d#4 v=65
79920 Off ch=1 n=d#4 v=80
79920 On ch=1 n=g5 v=53
80040 Off ch=1 n=g5 v=80
80040 On ch=1 n=c5 v=53
80160 Off ch=1 n=c5 v=80
80160 On ch=1 n=g4 v=65
80400 Off ch=1 n=g4 v=80
80400 On ch=1 n=g5 v=53
80520 Off ch=1 n=g5 v=80
80520 On ch=1 n=c5 v=53
80640 Off ch=1 n=c5 v=80
80640 On ch=1 n=d#4 v=65
80880 Off ch=1 n=d#4 v=80
80880 On ch=1 n=f5 v=53
81000 Off ch=1 n=f5 v=80
81000 On ch=1 n=c5 v=53
81120 Off ch=1 n=c5 v=80
81120 On ch=1 n=d4 v=65
81360 Off ch=1 n=d4 v=80
81360 On ch=1 n=f5 v=53
81480 Off ch=1 n=f5 v=80
81480 On ch=1 n=c5 v=53
81600 Off ch=1 n=c5 v=80
81600 On ch=1 n=d#4 v=65
81840 Off ch=1 n=d#4 v=80
81840 On ch=1 n=d#5 v=53
81960 Off ch=1 n=d#5 v=80
81960 On ch=1 n=a#4 v=53
82080 Off ch=1 n=a#4 v=80
82080 On ch=1 n=f4 v=65
82320 Off ch=1 n=f4 v=80
82320 On ch=1 n=d#5 v=53
82440 Off ch=1 n=d#5 v=80
82440 On ch=1 n=a4 v=53
82560 Off ch=1 n=a4 v=80
82560 On ch=1 n=a#3 v=102
82800 Off ch=1 n=a#3 v=80
82800 On ch=1 n=a#4 v=90
82920 Off ch=1 n=a#4 v=80
82920 On ch=1 n=f4 v=90
83040 Off ch=1 n=f4 v=80
83040 On ch=1 n=d4 v=102
83280 Off ch=1 n=d4 v=80
83280 On ch=1 n=a#4 v=90
83400 Off ch=1 n=a#4 v=80
83400 On ch=1 n=f4 v=90
83520 Off ch=1 n=f4 v=80
83520 On ch=1 n=a#3 v=90
83760 Off ch=1 n=a#3 v=80
83760 On ch=1 n=a#4 v=78
83880 Off ch=1 n=a#4 v=80
83880 On ch=1 n=f4 v=78
84000 Off ch=1 n=f4 v=80
84000 On ch=1 n=d4 v=90
84240 Off ch=1 n=d4 v=80
84240 On ch=1 n=a#4 v=78
84360 Off ch=1 n=a#4 v=80
84360 On ch=1 n=f4 v=78
84480 Off ch=1 n=f4 v=80
84480 On ch=1 n=a#3 v=90
84720 Off ch=1 n=a#3 v=80
84720 On ch=1 n=d5 v=78
84840 Off ch=1 n=d5 v=80
84840 On ch=1 n=b4 v=78
84960 Off ch=1 n=b4 v=80
84960 On ch=1 n=d#4 v=90
85200 Off ch=1 n=d#4 v=80
85200 On ch=1 n=d#5 v=78
85320 Off ch=1 n=d#5 v=80
85320 On ch=1 n=a#4 v=78
85440 Off ch=1 n=a#4 v=80
85440 On ch=1 n=f4 v=90
85680 Off ch=1 n=f4 v=80
85680 On ch=1 n=d5 v=78
85800 Off ch=1 n=d5 v=80
85800 On ch=1 n=a#4 v=78
85920 Off ch=1 n=a#4 v=80
85920 On ch=1 n=f3 v=90
86160 Off ch=1 n=f3 v=80
86160 On ch=1 n=a4 v=78
86280 Off ch=1 n=a4 v=80
86280 On ch=1 n=f4 v=78
86400 Off ch=1 n=f4 v=80
86400 On ch=1 n=a#3 v=102
86640 Off ch=1 n=a#3 v=80
86640 On ch=1 n=a#4 v=90
86760 Off ch=1 n=a#4 v=80
86760 On ch=1 n=f4 v=90
86880 Off ch=1 n=f4 v=80
86880 On ch=1 n=d4 v=102
87120 Off ch=1 n=d4 v=80
87120 On ch=1 n=a#4 v=90
87240 Off ch=1 n=a#4 v=80
87240 On ch=1 n=f4 v=90
87360 Off ch=1 n=f4 v=80
87360 On ch=1 n=a#3 v=65
87600 Off ch=1 n=a#3 v=80
87600 On ch=1 n=a#4 v=53
87720 Off ch=1 n=a#4 v=80
87720 On ch=1 n=f4 v=53
87840 Off ch=1 n=f4 v=80
87840 On ch=1 n=d4 v=65
88080 Off ch=1 n=d4 v=80
88080 On ch=1 n=a#4 v=53
88200 Off ch=1 n=a#4 v=80
88200 On ch=1 n=f4 v=53
88320 Off ch=1 n=f4 v=80
88320 On ch=1 n=g3 v=65
88560 Off ch=1 n=g3 v=80
88560 On ch=1 n=d5 v=53
88680 Off ch=1 n=d5 v=80
88680 On ch=1 n=b4 v=53
88800 Off ch=1 n=b4 v=80
88800 On ch=1 n=g4 v=65
89040 Off ch=1 n=g4 v=80
89040 On ch=1 n=d5 v=53
89160 Off ch=1 n=d5 v=80
89160 On ch=1 n=b4 v=53
89280 Off ch=1 n=b4 v=80
89280 On ch=1 n=c4 v=65
89520 Off ch=1 n=c4 v=80
89520 On ch=1 n=d#5 v=53
89640 Off ch=1 n=d#5 v=80
89640 On ch=1 n=c5 v=53
89760 Off ch=1 n=c5 v=80
89760 On ch=1 n=g4 v=65
90000 Off ch=1 n=g4 v=80
90000 On ch=1 n=d5 v=53
90120 Off ch=1 n=d5 v=80
90120 On ch=1 n=b4 v=53
90240 Off ch=1 n=b4 v=80
90240 On ch=1 n=d#4 v=102
90480 Off ch=1 n=d#4 v=80
90480 On ch=1 n=d#5 v=90
90600 Off ch=1 n=d#5 v=80
90600 On ch=1 n=a#4 v=90
90720 Off ch=1 n=a#4 v=80
90720 On ch=1 n=g4 v=102
90960 Off ch=1 n=g4 v=80
90960 On ch=1 n=d#5 v=90
91080 Off ch=1 n=d#5 v=80
91080 On ch=1 n=a#4 v=90
91200 Off ch=1 n=a#4 v=80
91200 On ch=1 n=d#4 v=65
91440 Off ch=1 n=d#4 v=80
91440 On ch=1 n=d#5 v=53
91560 Off ch=1 n=d#5 v=80
91560 On ch=1 n=a#4 v=53
91680 Off ch=1 n=a#4 v=80
91680 On ch=1 n=g4 v=65
91920 Off ch=1 n=g4 v=80
91920 On ch=1 n=d#5 v=53
92040 Off ch=1 n=d#5 v=80
92040 On ch=1 n=a#4 v=53
92160 Off ch=1 n=a#4 v=80
92160 On ch=1 n=d#4 v=65
92400 Off ch=1 n=d#4 v=80
92400 On ch=1 n=g5 v=53
92520 Off ch=1 n=g5 v=80
92520 On ch=1 n=c5 v=53
92640 Off ch=1 n=c5 v=80
92640 On ch=1 n=g4 v=65
92880 Off ch=1 n=g4 v=80
92880 On ch=1 n=g5 v=53
93000 Off ch=1 n=g5 v=80
93000 On ch=1 n=c5 v=53
93120 Off ch=1 n=c5 v=80
93120 On ch=1 n=d#4 v=65
93360 Off ch=1 n=d#4 v=80
93360 On ch=1 n=f5 v=53
93480 Off ch=1 n=f5 v=80
93480 On ch=1 n=c5 v=53
93600 Off ch=1 n=c5 v=80
93600 On ch=1 n=d4 v=65
93840 Off ch=1 n=d4 v=80
93840 On ch=1 n=f5 v=53
93960 Off ch=1 n=f5 v=80
93960 On ch=1 n=c5 v=53
94080 Off ch=1 n=c5 v=80
94080 On ch=1 n=d#4 v=65
94320 Off ch=1 n=d#4 v=80
94320 On ch=1 n=d#5 v=53
94440 Off ch=1 n=d#5 v=80
94440 On ch=1 n=a#4 v=53
94560 Off ch=1 n=a#4 v=80
94560 On ch=1 n=f4 v=65
94800 Off ch=1 n=f4 v=80
94800 On ch=1 n=d#5 v=53
94920 Off ch=1 n=d#5 v=80
94920 On ch=1 n=a4 v=53
95040 Off ch=1 n=a4 v=80
95040 On ch=1 n=a#3 v=90
95280 Off ch=1 n=a#3 v=80
95280 On ch=1 n=c4 v=90
95400 Off ch=1 n=c4 v=80
95400 On ch=1 n=d4 v=90
95520 Off ch=1 n=d4 v=80
95520 On ch=1 n=d#4 v=90
95640 Off ch=1 n=d#4 v=80
95760 On ch=1 n=f#4 v=90
95880 Off ch=1 n=f#4 v=80
96000 On ch=1 n=a#2 v=90
96240 Off ch=1 n=a#2 v=80
96240 On ch=1 n=c3 v=90
96360 Off ch=1 n=c3 v=80
96360 On ch=1 n=d3 v=90
96480 Off ch=1 n=d3 v=80
96480 On ch=1 n=d#3 v=90
96600 Off ch=1 n=d#3 v=80
96720 On ch=1 n=f#3 v=90
96840 Off ch=1 n=f#3 v=80
96960 On ch=1 n=a#3 v=90
97080 Off ch=1 n=a#3 v=80
97200 On ch=1 n=a#4 v=90
97320 Off ch=1 n=a#4 v=80
97440 On ch=1 n=f#3 v=90
97560 Off ch=1 n=f#3 v=80
97680 On ch=1 n=f#4 v=90
97800 Off ch=1 n=f#4 v=80
97920 On ch=1 n=d#3 v=96
98040 Off ch=1 n=d#3 v=80
98160 On ch=1 n=d#4 v=96
98280 Off ch=1 n=d#4 v=80
98400 On ch=1 n=c#3 v=102
98400 On ch=1 n=c#4 v=102
98640 Off ch=1 n=c#4 v=80
98640 Off ch=1 n=c#3 v=80
98640 On ch=1 n=f4 v=102
98640 On ch=1 n=g#4 v=102
98640 On ch=1 n=c#5 v=102
98880 Off ch=1 n=c#5 v=80
98880 Off ch=1 n=g#4 v=80
98880 Off ch=1 n=f4 v=80
98880 On ch=1 n=c#3 v=90
99120 Off ch=1 n=c#3 v=80
99120 On ch=1 n=d#3 v=90
99240 Off ch=1 n=d#3 v=80
99240 On ch=1 n=f3 v=90
99360 Off ch=1 n=f3 v=80
99360 On ch=1 n=f#3 v=90
99480 Off ch=1 n=f#3 v=80
99600 On ch=1 n=a#3 v=90
99720 Off ch=1 n=a#3 v=80
99840 On ch=1 n=c#4 v=90
100080 Off ch=1 n=c#4 v=80
100080 On ch=1 n=d#4 v=90
100200 Off ch=1 n=d#4 v=80
100200 On ch=1 n=f4 v=90
100320 Off ch=1 n=f4 v=80
100320 On ch=1 n=f#4 v=90
100440 Off ch=1 n=f#4 v=80
100560 On ch=1 n=a#4 v=90
100680 Off ch=1 n=a#4 v=80
100800 On ch=1 n=c#4 v=90
100920 Off ch=1 n=c#4 v=80
101040 On ch=1 n=a#4 v=90
101040 On ch=1 n=c#5 v=90
101040 On ch=1 n=f5 v=90
101160 Off ch=1 n=f5 v=80
101160 Off ch=1 n=c#5 v=80
101160 Off ch=1 n=a#4 v=80
101280 On ch=1 n=f#3 v=90
101400 Off ch=1 n=f#3 v=80
101520 On ch=1 n=a#4 v=90
101520 On ch=1 n=c#5 v=90
101520 On ch=1 n=f#5 v=90
101640 Off ch=1 n=f#5 v=80
101640 Off ch=1 n=c#5 v=80
101640 Off ch=1 n=a#4 v=80
101760 On ch=1 n=c3 v=96
101880 Off ch=1 n=c3 v=80
102000 On ch=1 n=e5 v=96
102000 On ch=1 n=g4 v=96
102000 On ch=1 n=c5 v=96
102120 Off ch=1 n=c5 v=80
102120 Off ch=1 n=g4 v=80
102120 Off ch=1 n=e5 v=80
102240 On ch=1 n=f3 v=102
102480 Off ch=1 n=f3 v=80
102480 On ch=1 n=f5 v=102
102480 On ch=1 n=c5 v=102
102480 On ch=1 n=a4 v=102
102720 Off ch=1 n=a4 v=80
102720 Off ch=1 n=c5 v=80
102720 Off ch=1 n=f5 v=80
102720 On ch=1 n=a#3 v=90
102960 Off ch=1 n=a#3 v=80
102960 On ch=1 n=a#4 v=78
103080 Off ch=1 n=a#4 v=80
103080 On ch=1 n=f4 v=78
103200 Off ch=1 n=f4 v=80
103200 On ch=1 n=d4 v=90
103440 Off ch=1 n=d4 v=80
103440 On ch=1 n=a#4 v=78
103560 Off ch=1 n=a#4 v=80
103560 On ch=1 n=f4 v=78
103680 Off ch=1 n=f4 v=80
103680 On ch=1 n=a#3 v=90
103920 Off ch=1 n=a#3 v=80
103920 On ch=1 n=d5 v=78
104040 Off ch=1 n=d5 v=80
104040 On ch=1 n=b4 v=78
104160 Off ch=1 n=b4 v=80
104160 On ch=1 n=d#4 v=90
104400 Off ch=1 n=d#4 v=80
104400 On ch=1 n=d#5 v=78
104520 Off ch=1 n=d#5 v=80
104520 On ch=1 n=a#4 v=78
104640 Off ch=1 n=a#4 v=80
104640 On ch=1 n=f4 v=90
104880 Off ch=1 n=f4 v=80
104880 On ch=1 n=d5 v=78
105000 Off ch=1 n=d5 v=80
105000 On ch=1 n=a#4 v=78
105120 Off ch=1 n=a#4 v=80
105120 On ch=1 n=f3 v=90
105360 Off ch=1 n=f3 v=80
105360 On ch=1 n=a4 v=78
105480 Off ch=1 n=a4 v=80
105480 On ch=1 n=f4 v=78
105600 Off ch=1 n=f4 v=80
105600 On ch=1 n=a#3 v=102
105840 Off ch=1 n=a#3 v=80
105840 On ch=1 n=a#4 v=90
105960 Off ch=1 n=a#4 v=80
105960 On ch=1 n=f4 v=90
106080 Off ch=1 n=f4 v=80
106080 On ch=1 n=d4 v=102
106320 Off ch=1 n=d4 v=80
106320 On ch=1 n=a#4 v=90
106440 Off ch=1 n=a#4 v=80
106440 On ch=1 n=f4 v=90
106560 Off ch=1 n=f4 v=80
106560 On ch=1 n=a#3 v=65
106800 Off ch=1 n=a#3 v=80
106800 On ch=1 n=a#4 v=53
106920 Off ch=1 n=a#4 v=80
106920 On ch=1 n=f4 v=53
107040 Off ch=1 n=f4 v=80
107040 On ch=1 n=d4 v=65
107280 Off ch=1 n=d4 v=80
107280 On ch=1 n=a#4 v=53
107400 Off ch=1 n=a#4 v=80
107400 On ch=1 n=f4 v=53
107520 Off ch=1 n=f4 v=80
107520 On ch=1 n=g3 v=65
107760 Off ch=1 n=g3 v=80
107760 On ch=1 n=d5 v=53
107880 Off ch=1 n=d5 v=80
107880 On ch=1 n=b4 v=53
108000 Off ch=1 n=b4 v=80
108000 On ch=1 n=g4 v=65
108240 Off ch=1 n=g4 v=80
108240 On ch=1 n=d5 v=53
108360 Off ch=1 n=d5 v=80
108360 On ch=1 n=b4 v=53
108480 Off ch=1 n=b4 v=80
108480 On ch=1 n=c4 v=65
108720 Off ch=1 n=c4 v=80
108720 On ch=1 n=d#5 v=53
108840 Off ch=1 n=d#5 v=80
108840 On ch=1 n=c5 v=53
108960 Off ch=1 n=c5 v=80
108960 On ch=1 n=g4 v=65
109200 Off ch=1 n=g4 v=80
109200 On ch=1 n=d5 v=53
109320 Off ch=1 n=d5 v=80
109320 On ch=1 n=b4 v=53
109440 Off ch=1 n=b4 v=80
109440 On ch=1 n=d#4 v=102
109680 Off ch=1 n=d#4 v=80
109680 On ch=1 n=d#5 v=90
109800 Off ch=1 n=d#5 v=80
109800 On ch=1 n=a#4 v=90
109920 Off ch=1 n=a#4 v=80
109920 On ch=1 n=g4 v=102
110160 Off ch=1 n=g4 v=80
110160 On ch=1 n=d#5 v=90
110280 Off ch=1 n=d#5 v=80
110280 On ch=1 n=a#4 v=90
110400 Off ch=1 n=a#4 v=80
110400 On ch=1 n=d#4 v=65
110640 Off ch=1 n=d#4 v=80
110640 On ch=1 n=d#5 v=53
110760 Off ch=1 n=d#5 v=80
110760 On ch=1 n=a#4 v=53
110880 Off ch=1 n=a#4 v=80
110880 On ch=1 n=g4 v=65
111120 Off ch=1 n=g4 v=80
111120 On ch=1 n=d#5 v=53
111240 Off ch=1 n=d#5 v=80
111240 On ch=1 n=a#4 v=53
111360 Off ch=1 n=a#4 v=80
111360 On ch=1 n=d#4 v=65
111600 Off ch=1 n=d#4 v=80
111600 On ch=1 n=g5 v=53
111720 Off ch=1 n=g5 v=80
111720 On ch=1 n=c5 v=53
111840 Off ch=1 n=c5 v=80
111840 On ch=1 n=g4 v=65
112080 Off ch=1 n=g4 v=80
112080 On ch=1 n=g5 v=53
112200 Off ch=1 n=g5 v=80
112200 On ch=1 n=c5 v=53
112320 Off ch=1 n=c5 v=80
112320 On ch=1 n=d#4 v=65
112560 Off ch=1 n=d#4 v=80
112560 On ch=1 n=f5 v=53
112680 Off ch=1 n=f5 v=80
112680 On ch=1 n=c5 v=53
112800 Off ch=1 n=c5 v=80
112800 On ch=1 n=d4 v=65
113040 Off ch=1 n=d4 v=80
113040 On ch=1 n=f5 v=53
113160 Off ch=1 n=f5 v=80
113160 On ch=1 n=c5 v=53
113280 Off ch=1 n=c5 v=80
113280 On ch=1 n=d#4 v=65
113520 Off ch=1 n=d#4 v=80
113520 On ch=1 n=d#5 v=53
113640 Off ch=1 n=d#5 v=80
113640 On ch=1 n=a#4 v=53
113760 Off ch=1 n=a#4 v=80
113760 On ch=1 n=f4 v=65
114000 Off ch=1 n=f4 v=80
114000 On ch=1 n=d#5 v=53
114120 Off ch=1 n=d#5 v=80
114120 On ch=1 n=a4 v=53
114240 Off ch=1 n=a4 v=80
114240 On ch=1 n=a#3 v=65
114480 Off ch=1 n=a#3 v=80
114480 On ch=1 n=a#4 v=65
114600 Off ch=1 n=a#4 v=80
114600 On ch=1 n=f4 v=65
114720 Off ch=1 n=f4 v=80
114720 On ch=1 n=d4 v=65
114960 Off ch=1 n=d4 v=80
114960 On ch=1 n=a#4 v=65
115080 Off ch=1 n=a#4 v=80
115080 On ch=1 n=f4 v=65
115200 Off ch=1 n=f4 v=80
115200 On ch=1 n=a#3 v=60
115440 Off ch=1 n=a#3 v=80
115440 On ch=1 n=g4 v=60
115560 Off ch=1 n=g4 v=80
115560 On ch=1 n=f4 v=60
115680 Off ch=1 n=f4 v=80
115680 On ch=1 n=a#3 v=55
115920 Off ch=1 n=a#3 v=80
115920 On ch=1 n=g4 v=55
116040 Off ch=1 n=g4 v=80
116040 On ch=1 n=f4 v=55
116160 Off ch=1 n=f4 v=80
116160 On ch=1 n=a#3 v=50
116400 Off ch=1 n=a#3 v=80
116400 On ch=1 n=a#4 v=50
116520 Off ch=1 n=a#4 v=80
116520 On ch=1 n=f4 v=50
116640 Off ch=1 n=f4 v=80
116640 On ch=1 n=d4 v=45
116880 Off ch=1 n=d4 v=80
116880 On ch=1 n=a#4 v=45
117000 Off ch=1 n=a#4 v=80
117000 On ch=1 n=f4 v=45
117120 Off ch=1 n=f4 v=80
117120 On ch=1 n=a#3 v=41
117360 Off ch=1 n=a#3 v=80
117360 On ch=1 n=g4 v=41
117480 Off ch=1 n=g4 v=80
117480 On ch=1 n=f4 v=41
117600 Off ch=1 n=f4 v=80
117600 On ch=1 n=a#3 v=41
117840 Off ch=1 n=a#3 v=80
117840 On ch=1 n=f4 v=41
117960 Off ch=1 n=f4 v=80
117960 On ch=1 n=d#4 v=41
118080 Off ch=1 n=d#4 v=80
118080 On ch=1 n=d4 v=49
118080 On ch=1 n=a#3 v=49
118320 Off ch=1 n=a#3 v=80
118320 Off ch=1 n=d4 v=80
118320 On ch=1 n=a#4 v=49
118440 Off ch=1 n=a#4 v=80
118440 On ch=1 n=f4 v=49
118560 Off ch=1 n=f4 v=80
118560 On ch=1 n=d4 v=57
118800 Off ch=1 n=d4 v=80
118800 On ch=1 n=a#4 v=57
118920 Off ch=1 n=a#4 v=80
118920 On ch=1 n=f4 v=57
119040 Off ch=1 n=f4 v=80
119040 On ch=1 n=a#3 v=60
119280 Off ch=1 n=a#3 v=80
119280 On ch=1 n=g4 v=60
119400 Off ch=1 n=g4 v=80
119400 On ch=1 n=f4 v=60
119520 Off ch=1 n=f4 v=80
119520 On ch=1 n=a#3 v=55
119760 Off ch=1 n=a#3 v=80
119760 On ch=1 n=g4 v=55
119880 Off ch=1 n=g4 v=80
119880 On ch=1 n=f4 v=55
120000 Off ch=1 n=f4 v=80
120000 On ch=1 n=a#3 v=50
120240 Off ch=1 n=a#3 v=80
120240 On ch=1 n=a#4 v=50
120360 Off ch=1 n=a#4 v=80
120360 On ch=1 n=f4 v=50
120480 Off ch=1 n=f4 v=80
120480 On ch=1 n=d4 v=45
120720 Off ch=1 n=d4 v=80
120720 On ch=1 n=a#4 v=45
120840 Off ch=1 n=a#4 v=80
120840 On ch=1 n=f4 v=45
120960 Off ch=1 n=f4 v=80
120960 On ch=1 n=a#3 v=41
121200 Off ch=1 n=a#3 v=80
121200 On ch=1 n=g4 v=41
121320 Off ch=1 n=g4 v=80
121320 On ch=1 n=f4 v=41
121440 Off ch=1 n=f4 v=80
121440 On ch=1 n=a#3 v=41
121680 Off ch=1 n=a#3 v=80
121680 On ch=1 n=f4 v=41
121800 Off ch=1 n=f4 v=80
121800 On ch=1 n=d#4 v=41
121920 Off ch=1 n=d#4 v=80
121920 On ch=1 n=a#3 v=56
121920 On ch=1 n=d4 v=56
122160 Off ch=1 n=d4 v=80
122160 On ch=1 n=d#4 v=41
122280 Off ch=1 n=d#4 v=80
122280 On ch=1 n=f4 v=41
122400 Off ch=1 n=a#3 v=80
122400 Off ch=1 n=f4 v=80
122400 On ch=1 n=f#4 v=56
122400 On ch=1 n=a#3 v=56
123360 Off ch=1 n=a#3 v=80
123360 Off ch=1 n=f#4 v=80
123360 On ch=1 n=g4 v=62
123360 On ch=1 n=a#3 v=62
123840 Off ch=1 n=a#3 v=80
123840 Off ch=1 n=g4 v=80
123840 On ch=1 n=f#4 v=68
123840 On ch=1 n=a#3 v=68
124320 Off ch=1 n=a#3 v=80
124320 Off ch=1 n=f#4 v=80
124320 On ch=1 n=f4 v=74
124320 On ch=1 n=a#3 v=74
124800 Off ch=1 n=a#3 v=80
124800 Off ch=1 n=f4 v=80
125280 On ch=1 n=d3 v=53
125400 Off ch=1 n=d3 v=80
125640 On ch=1 n=d3 v=53
125760 Off ch=1 n=d3 v=80
125760 On ch=1 n=g3 v=53
126240 Off ch=1 n=g3 v=80
126240 On ch=1 n=d3 v=53
126360 Off ch=1 n=d3 v=80
126600 On ch=1 n=d3 v=53
126720 Off ch=1 n=d3 v=80
126720 On ch=1 n=g3 v=53
127200 Off ch=1 n=g3 v=80
127200 On ch=1 n=c3 v=53
127320 Off ch=1 n=c3 v=80
127560 On ch=1 n=c3 v=53
127680 Off ch=1 n=c3 v=80
127680 On ch=1 n=d#3 v=53
127920 Off ch=1 n=d#3 v=80
128040 On ch=1 n=d3 v=53
128160 Off ch=1 n=d3 v=80
128160 On ch=1 n=c#3 v=53
128400 Off ch=1 n=c#3 v=80
128520 On ch=1 n=d3 v=53
128640 Off ch=1 n=d3 v=80
128640 On ch=1 n=g3 v=53
129120 Off ch=1 n=g3 v=80
129120 On ch=1 n=d3 v=53
129240 Off ch=1 n=d3 v=80
129480 On ch=1 n=d3 v=53
129600 Off ch=1 n=d3 v=80
129600 On ch=1 n=g3 v=53
129840 Off ch=1 n=g3 v=80
129960 On ch=1 n=a3 v=53
130080 Off ch=1 n=a3 v=80
130080 On ch=1 n=a#3 v=53
130320 Off ch=1 n=a#3 v=80
130440 On ch=1 n=c4 v=53
130560 Off ch=1 n=c4 v=80
130560 On ch=1 n=d4 v=53
131040 Off ch=1 n=d4 v=80
131040 On ch=1 n=b3 v=53
131520 Off ch=1 n=b3 v=80
131520 On ch=1 n=c4 v=53
132000 Off ch=1 n=c4 v=80
132000 On ch=1 n=c3 v=53
132480 Off ch=1 n=c3 v=80
132480 On ch=1 n=f3 v=53
132960 Off ch=1 n=f3 v=80
132960 On ch=1 n=c6 v=68
133200 Off ch=1 n=c6 v=80
133440 On ch=1 n=f5 v=53
133680 Off ch=1 n=f5 v=80
133920 On ch=1 n=c5 v=53
134160 Off ch=1 n=c5 v=80
134400 On ch=1 n=f4 v=53
134640 Off ch=1 n=f4 v=80
134880 On ch=1 n=c4 v=53
135120 Off ch=1 n=c4 v=80
135360 On ch=1 n=f3 v=53
135600 Off ch=1 n=f3 v=80
135840 On ch=1 n=c4 v=53
136080 Off ch=1 n=c4 v=80
136320 On ch=1 n=f4 v=53
136560 Off ch=1 n=f4 v=80
136800 On ch=1 n=c6 v=68
137040 Off ch=1 n=c6 v=80
137280 On ch=1 n=f5 v=53
137520 Off ch=1 n=f5 v=80
137760 On ch=1 n=c5 v=53
138000 Off ch=1 n=c5 v=80
138240 On ch=1 n=f4 v=53
138480 Off ch=1 n=f4 v=80
138720 On ch=1 n=c4 v=53
138960 Off ch=1 n=c4 v=80
139200 On ch=1 n=f3 v=53
139440 Off ch=1 n=f3 v=80
139680 On ch=1 n=c4 v=53
139920 Off ch=1 n=c4 v=80
140160 On ch=1 n=f4 v=53
140400 Off ch=1 n=f4 v=80
140640 On ch=1 n=c6 v=68
140880 Off ch=1 n=c6 v=80
141120 On ch=1 n=f5 v=53
141360 Off ch=1 n=f5 v=80
141600 On ch=1 n=c5 v=53
141840 Off ch=1 n=c5 v=80
142080 On ch=1 n=f5 v=53
142320 Off ch=1 n=f5 v=80
142560 On ch=1 n=c6 v=68
142800 Off ch=1 n=c6 v=80
143040 On ch=1 n=f5 v=53
143280 Off ch=1 n=f5 v=80
143520 On ch=1 n=c5 v=53
143760 Off ch=1 n=c5 v=80
144000 On ch=1 n=f5 v=53
144240 Off ch=1 n=f5 v=80
144480 On ch=1 n=c6 v=68
144720 Off ch=1 n=c6 v=80
144960 On ch=1 n=f5 v=53
145200 Off ch=1 n=f5 v=80
145440 On ch=1 n=c5 v=53
145680 Off ch=1 n=c5 v=80
145920 On ch=1 n=f4 v=53
146160 Off ch=1 n=f4 v=80
146400 On ch=1 n=c4 v=59
146640 Off ch=1 n=c4 v=80
146880 On ch=1 n=f3 v=65
147120 Off ch=1 n=f3 v=80
147360 On ch=1 n=c3 v=71
147600 Off ch=1 n=c3 v=80
147900 On ch=1 n=f3 v=77
147900 On ch=1 n=f2 v=77
149280 On ch=1 n=a#3 v=117
149340 Off ch=1 n=f2 v=80
149340 Off ch=1 n=f3 v=80
149760 Off ch=1 n=a#3 v=80
149760 On ch=1 n=d4 v=117
150240 Off ch=1 n=d4 v=80
150240 On ch=1 n=f4 v=117
150720 Off ch=1 n=f4 v=80
150720 On ch=1 n=a#4 v=102
151200 On ch=1 n=d5 v=102
151680 On ch=1 n=a4 v=102
151680 On ch=1 n=f5 v=102
152160 Off ch=1 n=f5 v=80
152160 On ch=1 n=a#5 v=102
152640 Off ch=1 n=a4 v=80
152640 Off ch=1 n=d5 v=80
152640 Off ch=1 n=a#4 v=80
152640 Off ch=1 n=a#5 v=80
152640 On ch=1 n=d#5 v=102
152640 On ch=1 n=a#4 v=102
152640 On ch=1 n=g4 v=102
153120 Off ch=1 n=g4 v=80
153120 Off ch=1 n=a#4 v=80
153120 Off ch=1 n=d#5 v=80
153120 On ch=1 n=d5 v=102
153120 On ch=1 n=a#4 v=102
153120 On ch=1 n=f4 v=102
153600 Off ch=1 n=f4 v=80
153600 Off ch=1 n=a#4 v=80
153600 Off ch=1 n=d5 v=80
153600 On ch=1 n=d#4 v=117
153600 On ch=1 n=a#4 v=117
153600 On ch=1 n=c5 v=117
154080 Off ch=1 n=c5 v=80
154080 Off ch=1 n=a#4 v=80
154080 Off ch=1 n=d#4 v=80
154080 On ch=1 n=c4 v=102
154560 Off ch=1 n=c4 v=80
154560 On ch=1 n=f4 v=102
155040 Off ch=1 n=f4 v=80
155040 On ch=1 n=f3 v=117
155520 Off ch=1 n=f3 v=80
155520 On ch=1 n=a3 v=117
156000 Off ch=1 n=a3 v=80
156000 On ch=1 n=c4 v=117
156480 Off ch=1 n=c4 v=80
156480 On ch=1 n=f4 v=102
156960 On ch=1 n=a4 v=102
157440 On ch=1 n=c5 v=102
157440 On ch=1 n=d#4 v=102
157920 Off ch=1 n=c5 v=80
157920 On ch=1 n=f5 v=102
158400 Off ch=1 n=a4 v=80
158400 Off ch=1 n=f4 v=80
158400 Off ch=1 n=d#4 v=80
158400 Off ch=1 n=f5 v=80
158400 On ch=1 n=d5 v=102
158400 On ch=1 n=d4 v=102
158880 Off ch=1 n=d4 v=80
158880 Off ch=1 n=d5 v=80
158880 On ch=1 n=c5 v=102
158880 On ch=1 n=c4 v=102
159360 Off ch=1 n=c4 v=80
159360 Off ch=1 n=c5 v=80
159360 On ch=1 n=a#4 v=102
159360 On ch=1 n=a#3 v=102
159840 Off ch=1 n=a#3 v=80
159840 Off ch=1 n=a#4 v=80
159840 On ch=1 n=g3 v=102
160320 Off ch=1 n=g3 v=80
160320 On ch=1 n=c4 v=102
160320 On ch=1 n=c5 v=102
160800 Off ch=1 n=c5 v=80
160800 Off ch=1 n=c4 v=80
160800 On ch=1 n=a#4 v=102
160800 On ch=1 n=c4 v=102
161280 Off ch=1 n=c4 v=80
161280 Off ch=1 n=a#4 v=80
161280 On ch=1 n=f3 v=76
161280 On ch=1 n=a4 v=76
161520 Off ch=1 n=a4 v=80
161520 Off ch=1 n=f3 v=80
161520 On ch=1 n=a#4 v=61
161640 Off ch=1 n=a#4 v=80
161640 On ch=1 n=c5 v=61
161760 Off ch=1 n=c5 v=80
161760 On ch=1 n=c#5 v=76
161760 On ch=1 n=f4 v=76
162720 Off ch=1 n=f4 v=80
162720 Off ch=1 n=c#5 v=80
162720 On ch=1 n=f4 v=82
162720 On ch=1 n=d5 v=82
162720 On ch=1 n=f5 v=82
163200 Off ch=1 n=f5 v=80
163200 Off ch=1 n=d5 v=80
163200 Off ch=1 n=f4 v=80
163200 On ch=1 n=c#5 v=88
163200 On ch=1 n=f4 v=88
163200 On ch=1 n=g5 v=82
163680 Off ch=1 n=g5 v=80
163680 Off ch=1 n=f4 v=80
163680 Off ch=1 n=c#5 v=80
163680 On ch=1 n=c5 v=94
163680 On ch=1 n=f4 v=94
163680 On ch=1 n=f5 v=82
164160 Off ch=1 n=f5 v=80
164160 Off ch=1 n=f4 v=80
164160 Off ch=1 n=c5 v=80
164640 On ch=1 n=d5 v=65
164640 On ch=1 n=a#4 v=65
164640 On ch=1 n=g4 v=65
164640 On ch=1 n=f4 v=65
164820 Off ch=1 n=f4 v=80
164820 Off ch=1 n=g4 v=80
164820 Off ch=1 n=a#4 v=80
164820 Off ch=1 n=d5 v=80
165000 On ch=1 n=d5 v=65
165000 On ch=1 n=a#4 v=65
165000 On ch=1 n=g4 v=65
165000 On ch=1 n=f4 v=65
165120 Off ch=1 n=f4 v=80
165120 Off ch=1 n=g4 v=80
165120 Off ch=1 n=a#4 v=80
165120 Off ch=1 n=d5 v=80
165120 On ch=1 n=c5 v=65
165120 On ch=1 n=a#4 v=65
165120 On ch=1 n=e4 v=65
165600 Off ch=1 n=e4 v=80
165600 Off ch=1 n=a#4 v=80
165600 Off ch=1 n=c5 v=80
165600 On ch=1 n=d5 v=65
165600 On ch=1 n=a#4 v=65
165600 On ch=1 n=g4 v=65
165600 On ch=1 n=f4 v=65
165780 Off ch=1 n=f4 v=80
165780 Off ch=1 n=g4 v=80
165780 Off ch=1 n=a#4 v=80
165780 Off ch=1 n=d5 v=80
165960 On ch=1 n=d5 v=65
165960 On ch=1 n=a#4 v=65
165960 On ch=1 n=g4 v=65
165960 On ch=1 n=f4 v=65
166080 Off ch=1 n=f4 v=80
166080 Off ch=1 n=g4 v=80
166080 Off ch=1 n=a#4 v=80
166080 Off ch=1 n=d5 v=80
166080 On ch=1 n=c5 v=65
166080 On ch=1 n=a#4 v=65
166080 On ch=1 n=e4 v=65
166560 Off ch=1 n=e4 v=80
166560 Off ch=1 n=a#4 v=80
166560 Off ch=1 n=c5 v=80
166560 On ch=1 n=d5 v=65
166560 On ch=1 n=a#4 v=65
166560 On ch=1 n=g4 v=65
166560 On ch=1 n=f4 v=65
166740 Off ch=1 n=f4 v=80
166740 Off ch=1 n=g4 v=80
166740 Off ch=1 n=a#4 v=80
166740 Off ch=1 n=d5 v=80
166920 On ch=1 n=d5 v=65
166920 On ch=1 n=a#4 v=65
166920 On ch=1 n=g4 v=65
166920 On ch=1 n=f4 v=65
167040 Off ch=1 n=f4 v=80
167040 Off ch=1 n=g4 v=80
167040 Off ch=1 n=a#4 v=80
167040 Off ch=1 n=d5 v=80
167040 On ch=1 n=c5 v=65
167040 On ch=1 n=a#4 v=65
167040 On ch=1 n=e4 v=65
167280 Off ch=1 n=e4 v=80
167280 Off ch=1 n=a#4 v=80
167280 Off ch=1 n=c5 v=80
167520 On ch=1 n=d5 v=65
167520 On ch=1 n=a#4 v=65
167520 On ch=1 n=d4 v=65
167760 Off ch=1 n=d4 v=80
167760 Off ch=1 n=a#4 v=80
167760 Off ch=1 n=d5 v=80
168000 On ch=1 n=e5 v=65
168000 On ch=1 n=a#4 v=65
168000 On ch=1 n=c4 v=65
168240 Off ch=1 n=c4 v=80
168240 Off ch=1 n=a#4 v=80
168240 Off ch=1 n=e5 v=80
168480 On ch=1 n=d5 v=65
168480 On ch=1 n=a#4 v=65
168480 On ch=1 n=g4 v=65
168480 On ch=1 n=f4 v=65
168660 Off ch=1 n=f4 v=80
168660 Off ch=1 n=g4 v=80
168660 Off ch=1 n=a#4 v=80
168660 Off ch=1 n=d5 v=80
168840 On ch=1 n=d5 v=65
168840 On ch=1 n=a#4 v=65
168840 On ch=1 n=g4 v=65
168840 On ch=1 n=f4 v=65
168960 Off ch=1 n=f4 v=80
168960 Off ch=1 n=g4 v=80
168960 Off ch=1 n=a#4 v=80
168960 Off ch=1 n=d5 v=80
168960 On ch=1 n=c5 v=65
168960 On ch=1 n=a#4 v=65
168960 On ch=1 n=e4 v=65
169440 Off ch=1 n=e4 v=80
169440 Off ch=1 n=a#4 v=80
169440 Off ch=1 n=c5 v=80
169440 On ch=1 n=d5 v=65
169440 On ch=1 n=a#4 v=65
169440 On ch=1 n=g4 v=65
169440 On ch=1 n=f4 v=65
169620 Off ch=1 n=f4 v=80
169620 Off ch=1 n=g4 v=80
169620 Off ch=1 n=a#4 v=80
169620 Off ch=1 n=d5 v=80
169800 On ch=1 n=d5 v=65
169800 On ch=1 n=a#4 v=65
169800 On ch=1 n=g4 v=65
169800 On ch=1 n=f4 v=65
169920 Off ch=1 n=f4 v=80
169920 Off ch=1 n=g4 v=80
169920 Off ch=1 n=a#4 v=80
169920 Off ch=1 n=d5 v=80
169920 On ch=1 n=c5 v=65
169920 On ch=1 n=a#4 v=65
169920 On ch=1 n=e4 v=65
170400 Off ch=1 n=e4 v=80
170400 Off ch=1 n=a#4 v=80
170400 Off ch=1 n=c5 v=80
170400 On ch=1 n=d5 v=65
170400 On ch=1 n=a#4 v=65
170400 On ch=1 n=g4 v=65
170400 On ch=1 n=f4 v=65
170580 Off ch=1 n=f4 v=80
170580 Off ch=1 n=g4 v=80
170580 Off ch=1 n=a#4 v=80
170580 Off ch=1 n=d5 v=80
170760 On ch=1 n=d5 v=65
170760 On ch=1 n=a#4 v=65
170760 On ch=1 n=g4 v=65
170760 On ch=1 n=f4 v=65
170880 Off ch=1 n=f4 v=80
170880 Off ch=1 n=g4 v=80
170880 Off ch=1 n=a#4 v=80
170880 Off ch=1 n=d5 v=80
170880 On ch=1 n=c5 v=65
170880 On ch=1 n=a#4 v=65
170880 On ch=1 n=e4 v=65
171120 Off ch=1 n=e4 v=80
171120 Off ch=1 n=a#4 v=80
171120 Off ch=1 n=c5 v=80
171360 On ch=1 n=d5 v=65
171360 On ch=1 n=a#4 v=65
171360 On ch=1 n=d4 v=65
171600 Off ch=1 n=d4 v=80
171600 Off ch=1 n=a#4 v=80
171600 Off ch=1 n=d5 v=80
171840 On ch=1 n=e5 v=65
171840 On ch=1 n=a#4 v=65
171840 On ch=1 n=c4 v=65
172080 Off ch=1 n=c4 v=80
172080 Off ch=1 n=a#4 v=80
172080 Off ch=1 n=e5 v=80
172320 On ch=1 n=g5 v=65
172320 On ch=1 n=e5 v=65
172320 On ch=1 n=c5 v=65
172320 On ch=1 n=a#4 v=65
172500 Off ch=1 n=a#4 v=80
172500 Off ch=1 n=c5 v=80
172500 Off ch=1 n=e5 v=80
172500 Off ch=1 n=g5 v=80
172680 On ch=1 n=g5 v=65
172680 On ch=1 n=e5 v=65
172680 On ch=1 n=c5 v=65
172680 On ch=1 n=a#4 v=65
172800 Off ch=1 n=a#4 v=80
172800 Off ch=1 n=c5 v=80
172800 Off ch=1 n=e5 v=80
172800 Off ch=1 n=g5 v=80
172800 On ch=1 n=f5 v=80
172800 On ch=1 n=e5 v=80
172800 On ch=1 n=c5 v=80
172800 On ch=1 n=a4 v=80
173280 Off ch=1 n=a4 v=80
173280 Off ch=1 n=c5 v=80
173280 Off ch=1 n=e5 v=80
173280 Off ch=1 n=f5 v=80
173280 On ch=1 n=g5 v=65
173280 On ch=1 n=e5 v=65
173280 On ch=1 n=c5 v=65
173280 On ch=1 n=a#4 v=65
173460 Off ch=1 n=a#4 v=80
173460 Off ch=1 n=c5 v=80
173460 Off ch=1 n=e5 v=80
173460 Off ch=1 n=g5 v=80
173640 On ch=1 n=g5 v=65
173640 On ch=1 n=e5 v=65
173640 On ch=1 n=c5 v=65
173640 On ch=1 n=a#4 v=65
173760 Off ch=1 n=a#4 v=80
173760 Off ch=1 n=c5 v=80
173760 Off ch=1 n=e5 v=80
173760 Off ch=1 n=g5 v=80
173760 On ch=1 n=f5 v=80
173760 On ch=1 n=e5 v=80
173760 On ch=1 n=c5 v=80
173760 On ch=1 n=a4 v=80
174240 Off ch=1 n=a4 v=80
174240 Off ch=1 n=c5 v=80
174240 Off ch=1 n=e5 v=80
174240 Off ch=1 n=f5 v=80
174240 On ch=1 n=g5 v=65
174240 On ch=1 n=e5 v=65
174240 On ch=1 n=c5 v=65
174240 On ch=1 n=a#4 v=65
174420 Off ch=1 n=a#4 v=80
174420 Off ch=1 n=c5 v=80
174420 Off ch=1 n=e5 v=80
174420 Off ch=1 n=g5 v=80
174600 On ch=1 n=g5 v=65
174600 On ch=1 n=e5 v=65
174600 On ch=1 n=c5 v=65
174600 On ch=1 n=a#4 v=65
174720 Off ch=1 n=a#4 v=80
174720 Off ch=1 n=c5 v=80
174720 Off ch=1 n=e5 v=80
174720 Off ch=1 n=g5 v=80
174720 On ch=1 n=a4 v=73
174720 On ch=1 n=c5 v=73
174720 On ch=1 n=f5 v=73
174960 Off ch=1 n=f5 v=80
174960 Off ch=1 n=c5 v=80
174960 Off ch=1 n=a4 v=80
175200 On ch=1 n=g5 v=81
175200 On ch=1 n=c5 v=81
175200 On ch=1 n=g4 v=81
175440 Off ch=1 n=g4 v=80
175440 Off ch=1 n=c5 v=80
175440 Off ch=1 n=g5 v=80
175680 On ch=1 n=f4 v=89
175680 On ch=1 n=c5 v=89
175680 On ch=1 n=a5 v=89
175920 Off ch=1 n=a5 v=80
175920 Off ch=1 n=c5 v=80
175920 Off ch=1 n=f4 v=80
176160 On ch=1 n=g5 v=65
176160 On ch=1 n=e5 v=65
176160 On ch=1 n=c5 v=65
176160 On ch=1 n=a#4 v=65
176340 Off ch=1 n=a#4 v=80
176340 Off ch=1 n=c5 v=80
176340 Off ch=1 n=e5 v=80
176340 Off ch=1 n=g5 v=80
176520 On ch=1 n=g5 v=65
176520 On ch=1 n=e5 v=65
176520 On ch=1 n=c5 v=65
176520 On ch=1 n=a#4 v=65
176640 Off ch=1 n=a#4 v=80
176640 Off ch=1 n=c5 v=80
176640 Off ch=1 n=e5 v=80
176640 Off ch=1 n=g5 v=80
176640 On ch=1 n=f5 v=80
176640 On ch=1 n=e5 v=80
176640 On ch=1 n=c5 v=80
176640 On ch=1 n=a4 v=80
177120 Off ch=1 n=a4 v=80
177120 Off ch=1 n=c5 v=80
177120 Off ch=1 n=e5 v=80
177120 Off ch=1 n=f5 v=80
177120 On ch=1 n=g5 v=65
177120 On ch=1 n=e5 v=65
177120 On ch=1 n=c5 v=65
177120 On ch=1 n=a#4 v=65
177300 Off ch=1 n=a#4 v=80
177300 Off ch=1 n=c5 v=80
177300 Off ch=1 n=e5 v=80
177300 Off ch=1 n=g5 v=80
177480 On ch=1 n=g5 v=65
177480 On ch=1 n=e5 v=65
177480 On ch=1 n=c5 v=65
177480 On ch=1 n=a#4 v=65
177600 Off ch=1 n=a#4 v=80
177600 Off ch=1 n=c5 v=80
177600 Off ch=1 n=e5 v=80
177600 Off ch=1 n=g5 v=80
177600 On ch=1 n=f5 v=80
177600 On ch=1 n=e5 v=80
177600 On ch=1 n=c5 v=80
177600 On ch=1 n=a4 v=80
178080 Off ch=1 n=a4 v=80
178080 Off ch=1 n=c5 v=80
178080 Off ch=1 n=e5 v=80
178080 Off ch=1 n=f5 v=80
178080 On ch=1 n=g5 v=65
178080 On ch=1 n=e5 v=65
178080 On ch=1 n=c5 v=65
178080 On ch=1 n=a#4 v=65
178260 Off ch=1 n=a#4 v=80
178260 Off ch=1 n=c5 v=80
178260 Off ch=1 n=e5 v=80
178260 Off ch=1 n=g5 v=80
178440 On ch=1 n=g5 v=65
178440 On ch=1 n=e5 v=65
178440 On ch=1 n=c5 v=65
178440 On ch=1 n=a#4 v=65
178560 Off ch=1 n=a#4 v=80
178560 Off ch=1 n=c5 v=80
178560 Off ch=1 n=e5 v=80
178560 Off ch=1 n=g5 v=80
178560 On ch=1 n=a4 v=73
178560 On ch=1 n=c5 v=73
178560 On ch=1 n=f5 v=73
178800 Off ch=1 n=f5 v=80
178800 Off ch=1 n=c5 v=80
178800 Off ch=1 n=a4 v=80
179040 On ch=1 n=g5 v=81
179040 On ch=1 n=c5 v=81
179040 On ch=1 n=g4 v=81
179280 Off ch=1 n=g4 v=80
179280 Off ch=1 n=c5 v=80
179280 Off ch=1 n=g5 v=80
179520 On ch=1 n=f4 v=89
179520 On ch=1 n=c5 v=89
179520 On ch=1 n=a5 v=89
179760 Off ch=1 n=a5 v=80
179760 Off ch=1 n=c5 v=80
179760 Off ch=1 n=f4 v=80
180000 On ch=1 n=f5 v=102
180180 Off ch=1 n=f5 v=80
180360 On ch=1 n=f5 v=102
180480 Off ch=1 n=f5 v=80
180480 On ch=1 n=a#5 v=102
180960 Off ch=1 n=a#5 v=80
180960 On ch=1 n=d5 v=102
181140 Off ch=1 n=d5 v=80
181320 On ch=1 n=d5 v=102
181440 Off ch=1 n=d5 v=80
181440 On ch=1 n=g5 v=102
181920 Off ch=1 n=g5 v=80
181920 On ch=1 n=g4 v=102
182100 Off ch=1 n=g4 v=80
182280 On ch=1 n=g4 v=102
182400 Off ch=1 n=g4 v=80
182400 On ch=1 n=c5 v=102
182880 Off ch=1 n=c5 v=80
182880 On ch=1 n=c4 v=102
183060 Off ch=1 n=c4 v=80
183240 On ch=1 n=c4 v=102
183360 Off ch=1 n=c4 v=80
183360 On ch=1 n=f4 v=102
183840 Off ch=1 n=f4 v=80
183840 On ch=1 n=f5 v=102
184020 Off ch=1 n=f5 v=80
184200 On ch=1 n=f5 v=102
184320 Off ch=1 n=f5 v=80
184320 On ch=1 n=a#5 v=102
184800 Off ch=1 n=a#5 v=80
184800 On ch=1 n=a#4 v=102
184980 Off ch=1 n=a#4 v=80
185160 On ch=1 n=a#4 v=102
185280 Off ch=1 n=a#4 v=80
185280 On ch=1 n=d#5 v=102
185760 Off ch=1 n=d#5 v=80
185760 On ch=1 n=d#4 v=102
185940 Off ch=1 n=d#4 v=80
186120 On ch=1 n=d#4 v=102
186240 Off ch=1 n=d#4 v=80
186240 On ch=1 n=a4 v=102
186720 Off ch=1 n=a4 v=80
186720 On ch=1 n=a3 v=102
186900 Off ch=1 n=a3 v=80
187080 On ch=1 n=a3 v=102
187200 Off ch=1 n=a3 v=80
187200 On ch=1 n=d4 v=102
187680 Off ch=1 n=d4 v=80
187680 On ch=1 n=d5 v=102
187860 Off ch=1 n=d5 v=80
188040 On ch=1 n=d5 v=102
188160 Off ch=1 n=d5 v=80
188160 On ch=1 n=g5 v=102
188640 Off ch=1 n=g5 v=80
188640 On ch=1 n=g4 v=102
188820 Off ch=1 n=g4 v=80
189000 On ch=1 n=g4 v=102
189120 Off ch=1 n=g4 v=80
189120 On ch=1 n=c5 v=102
189600 Off ch=1 n=c5 v=80
189600 On ch=1 n=c4 v=102
189780 Off ch=1 n=c4 v=80
189960 On ch=1 n=c4 v=102
190080 Off ch=1 n=c4 v=80
190080 On ch=1 n=f4 v=102
190560 Off ch=1 n=f4 v=80
190560 On ch=1 n=f3 v=102
190740 Off ch=1 n=f3 v=80
190920 On ch=1 n=f3 v=102
191040 Off ch=1 n=f3 v=80
191040 On ch=1 n=a#3 v=102
191520 Off ch=1 n=a#3 v=80
191520 On ch=1 n=a#2 v=65
191700 Off ch=1 n=a#2 v=80
191880 On ch=1 n=a#2 v=65
192000 Off ch=1 n=a#2 v=80
192000 On ch=1 n=a#3 v=65
192480 Off ch=1 n=a#3 v=80
192480 On ch=1 n=b2 v=65
192660 Off ch=1 n=b2 v=80
192840 On ch=1 n=b2 v=65
192960 Off ch=1 n=b2 v=80
192960 On ch=1 n=b3 v=65
193440 Off ch=1 n=b3 v=80
193440 On ch=1 n=c3 v=65
193620 Off ch=1 n=c3 v=80
193800 On ch=1 n=c3 v=65
193920 Off ch=1 n=c3 v=80
193920 On ch=1 n=c4 v=65
194400 Off ch=1 n=c4 v=80
194400 On ch=1 n=d3 v=71
194580 Off ch=1 n=d3 v=80
194760 On ch=1 n=d3 v=71
194880 Off ch=1 n=d3 v=80
194880 On ch=1 n=d4 v=77
195360 Off ch=1 n=d4 v=80
195360 On ch=1 n=d#3 v=77
195540 Off ch=1 n=d#3 v=80
195720 On ch=1 n=d#3 v=77
195840 Off ch=1 n=d#3 v=80
195840 On ch=1 n=d#4 v=83
196320 Off ch=1 n=d#4 v=80
196320 On ch=1 n=f3 v=83
196500 Off ch=1 n=f3 v=80
196680 On ch=1 n=f3 v=83
196800 Off ch=1 n=f3 v=80
196800 On ch=1 n=f4 v=89
197280 Off ch=1 n=f4 v=80
197280 On ch=1 n=g3 v=89
197460 Off ch=1 n=g3 v=80
197640 On ch=1 n=g3 v=89
197760 Off ch=1 n=g3 v=80
197760 On ch=1 n=g4 v=95
198240 Off ch=1 n=g4 v=80
198240 On ch=1 n=c3 v=95
198420 Off ch=1 n=c3 v=80
198600 On ch=1 n=c3 v=95
198720 Off ch=1 n=c3 v=80
198720 On ch=1 n=c4 v=95
199200 Off ch=1 n=c4 v=80
199200 On ch=1 n=g#2 v=65
199380 Off ch=1 n=g#2 v=80
199560 On ch=1 n=g#2 v=65
199680 Off ch=1 n=g#2 v=80
199680 On ch=1 n=g#3 v=65
200160 Off ch=1 n=g#3 v=80
200160 On ch=1 n=a2 v=65
200340 Off ch=1 n=a2 v=80
200520 On ch=1 n=a2 v=65
200640 Off ch=1 n=a2 v=80
200640 On ch=1 n=a3 v=65
201120 Off ch=1 n=a3 v=80
201120 On ch=1 n=a#2 v=65
201300 Off ch=1 n=a#2 v=80
201480 On ch=1 n=a#2 v=65
201600 Off ch=1 n=a#2 v=80
201600 On ch=1 n=a#3 v=65
202080 Off ch=1 n=a#3 v=80
202080 On ch=1 n=c3 v=71
202260 Off ch=1 n=c3 v=80
202440 On ch=1 n=c3 v=71
202560 Off ch=1 n=c3 v=80
202560 On ch=1 n=c4 v=77
203040 Off ch=1 n=c4 v=80
203040 On ch=1 n=c#3 v=77
203220 Off ch=1 n=c#3 v=80
203400 On ch=1 n=c#3 v=77
203520 Off ch=1 n=c#3 v=80
203520 On ch=1 n=c#4 v=83
204000 Off ch=1 n=c#4 v=80
204000 On ch=1 n=d#3 v=83
204180 Off ch=1 n=d#3 v=80
204360 On ch=1 n=d#3 v=83
204480 Off ch=1 n=d#3 v=80
204480 On ch=1 n=d#4 v=89
204960 Off ch=1 n=d#4 v=80
204960 On ch=1 n=f3 v=89
205140 Off ch=1 n=f3 v=80
205320 On ch=1 n=f3 v=89
205440 Off ch=1 n=f3 v=80
205440 On ch=1 n=f4 v=95
205920 Off ch=1 n=f4 v=80
205920 On ch=1 n=a#2 v=89
206100 Off ch=1 n=a#2 v=80
206280 On ch=1 n=a#2 v=89
206400 Off ch=1 n=a#2 v=80
206400 On ch=1 n=a#3 v=95
206880 Off ch=1 n=a#3 v=80
206880 On ch=1 n=c#4 v=65
207060 Off ch=1 n=c#4 v=80
207240 On ch=1 n=c#4 v=65
207360 Off ch=1 n=c#4 v=80
207360 On ch=1 n=f#4 v=86
207840 Off ch=1 n=f#4 v=80
207840 On ch=1 n=c#4 v=65
208020 Off ch=1 n=c#4 v=80
208200 On ch=1 n=c#4 v=65
208320 Off ch=1 n=c#4 v=80
208320 On ch=1 n=f#4 v=86
208800 Off ch=1 n=f#4 v=80
208800 On ch=1 n=c#4 v=65
208980 Off ch=1 n=c#4 v=80
209160 On ch=1 n=c#4 v=65
209280 Off ch=1 n=c#4 v=80
209280 On ch=1 n=f#4 v=92
209760 Off ch=1 n=f#4 v=80
209760 On ch=1 n=c#4 v=77
209940 Off ch=1 n=c#4 v=80
210120 On ch=1 n=c#4 v=77
210240 Off ch=1 n=c#4 v=80
210240 On ch=1 n=f#4 v=104
210720 Off ch=1 n=f#4 v=80
210720 On ch=1 n=c#3 v=90
210880 Off ch=1 n=c#3 v=80
210880 On ch=1 n=g3 v=90
211040 Off ch=1 n=g3 v=80
211040 On ch=1 n=c#3 v=90
211200 Off ch=1 n=c#3 v=80
211200 On ch=1 n=c3 v=90
211680 Off ch=1 n=c3 v=80
211680 On ch=1 n=g#3 v=90
211840 Off ch=1 n=g#3 v=80
211840 On ch=1 n=d4 v=90
212000 Off ch=1 n=d4 v=80
212000 On ch=1 n=g#3 v=90
212160 Off ch=1 n=g#3 v=80
212160 On ch=1 n=g3 v=90
212640 Off ch=1 n=g3 v=80
212640 On ch=1 n=c#4 v=90
212800 Off ch=1 n=c#4 v=80
212800 On ch=1 n=g4 v=90
212960 Off ch=1 n=g4 v=80
212960 On ch=1 n=c#4 v=90
213120 Off ch=1 n=c#4 v=80
213120 On ch=1 n=c3 v=90
213600 Off ch=1 n=c3 v=80
213600 On ch=1 n=g#4 v=90
213760 Off ch=1 n=g#4 v=80
213760 On ch=1 n=d5 v=90
213920 Off ch=1 n=d5 v=80
213920 On ch=1 n=g#4 v=90
214080 Off ch=1 n=g#4 v=80
214080 On ch=1 n=g4 v=104
214560 Off ch=1 n=g4 v=80
214560 On ch=1 n=f4 v=65
214560 On ch=1 n=a4 v=65
214740 Off ch=1 n=a4 v=80
214740 Off ch=1 n=f4 v=80
214920 On ch=1 n=f4 v=65
214920 On ch=1 n=a4 v=65
215040 Off ch=1 n=a4 v=80
215040 On ch=1 n=a#4 v=90
215520 Off ch=1 n=f4 v=80
215520 Off ch=1 n=a#4 v=80
215520 On ch=1 n=a4 v=71
215520 On ch=1 n=f4 v=71
215700 Off ch=1 n=f4 v=80
215700 Off ch=1 n=a4 v=80
215880 On ch=1 n=f4 v=71
215880 On ch=1 n=a4 v=71
216000 Off ch=1 n=a4 v=80
216000 On ch=1 n=a#4 v=102
216480 Off ch=1 n=f4 v=80
216480 Off ch=1 n=a#4 v=80
216480 On ch=1 n=a4 v=83
216480 On ch=1 n=f4 v=83
216660 Off ch=1 n=f4 v=80
216660 Off ch=1 n=a4 v=80
216840 On ch=1 n=f4 v=83
216840 On ch=1 n=a4 v=83
216960 Off ch=1 n=a4 v=80
216960 On ch=1 n=a#4 v=114
217440 Off ch=1 n=f4 v=80
217440 Off ch=1 n=a#4 v=80
217440 On ch=1 n=a4 v=95
217440 On ch=1 n=f4 v=95
217620 Off ch=1 n=f4 v=80
217620 Off ch=1 n=a4 v=80
217800 On ch=1 n=f4 v=95
217800 On ch=1 n=a4 v=95
217920 Off ch=1 n=a4 v=80
217920 On ch=1 n=a#4 v=126
218400 Off ch=1 n=f4 v=80
218400 Off ch=1 n=a#4 v=80
218400 On ch=1 n=d#3 v=101
218560 Off ch=1 n=d#3 v=80
218560 On ch=1 n=a3 v=101
218720 Off ch=1 n=a3 v=80
218720 On ch=1 n=d#3 v=101
218880 Off ch=1 n=d#3 v=80
218880 On ch=1 n=d3 v=101
219360 Off ch=1 n=d3 v=80
219360 On ch=1 n=a#3 v=101
219520 Off ch=1 n=a#3 v=80
219520 On ch=1 n=e4 v=101
219680 Off ch=1 n=e4 v=80
219680 On ch=1 n=a#3 v=101
219840 Off ch=1 n=a#3 v=80
219840 On ch=1 n=a3 v=101
220320 Off ch=1 n=a3 v=80
220320 On ch=1 n=d#4 v=101
220480 Off ch=1 n=d#4 v=80
220480 On ch=1 n=a4 v=101
220640 Off ch=1 n=a4 v=80
220640 On ch=1 n=d#4 v=101
220800 Off ch=1 n=d#4 v=80
220800 On ch=1 n=d4 v=101
221280 Off ch=1 n=d4 v=80
221280 On ch=1 n=a#4 v=101
221440 Off ch=1 n=a#4 v=80
221440 On ch=1 n=e5 v=101
221600 Off ch=1 n=e5 v=80
221600 On ch=1 n=a#4 v=101
221760 Off ch=1 n=a#4 v=80
221760 On ch=1 n=a4 v=101
222240 Off ch=1 n=a4 v=80
222240 On ch=1 n=d3 v=53
222360 Off ch=1 n=d3 v=80
222600 On ch=1 n=d3 v=53
222720 Off ch=1 n=d3 v=80
222720 On ch=1 n=g3 v=53
223200 Off ch=1 n=g3 v=80
223200 On ch=1 n=d3 v=53
223320 Off ch=1 n=d3 v=80
223560 On ch=1 n=d3 v=53
223680 Off ch=1 n=d3 v=80
223680 On ch=1 n=g3 v=53
224160 Off ch=1 n=g3 v=80
224160 On ch=1 n=c3 v=53
224280 Off ch=1 n=c3 v=80
224520 On ch=1 n=c3 v=53
224640 Off ch=1 n=c3 v=80
224640 On ch=1 n=d#3 v=53
224880 Off ch=1 n=d#3 v=80
225000 On ch=1 n=d3 v=53
225120 Off ch=1 n=d3 v=80
225120 On ch=1 n=c#3 v=53
225360 Off ch=1 n=c#3 v=80
225480 On ch=1 n=d3 v=53
225600 Off ch=1 n=d3 v=80
225600 On ch=1 n=g3 v=53
226080 Off ch=1 n=g3 v=80
226080 On ch=1 n=d3 v=53
226200 Off ch=1 n=d3 v=80
226440 On ch=1 n=d3 v=53
226560 Off ch=1 n=d3 v=80
226560 On ch=1 n=g3 v=49
227040 Off ch=1 n=g3 v=80
227040 On ch=1 n=d3 v=49
227160 Off ch=1 n=d3 v=80
227400 On ch=1 n=d3 v=49
227520 Off ch=1 n=d3 v=80
227520 On ch=1 n=g3 v=45
228000 Off ch=1 n=g3 v=80
228000 On ch=1 n=c3 v=45
228480 Off ch=1 n=c3 v=80
228480 On ch=1 n=d3 v=41
229440 Off ch=1 n=d3 v=80
229440 On ch=1 n=a#3 v=41
229440 On ch=1 n=a#2 v=41
230400 Off ch=1 n=a#2 v=80
230400 Off ch=1 n=a#3 v=80
230400 On ch=1 n=f#3 v=46
230400 On ch=1 n=f#2 v=46
231360 Off ch=1 n=f#2 v=80
231360 Off ch=1 n=f#3 v=80
231360 On ch=1 n=d#3 v=56
231360 On ch=1 n=d#2 v=56
232320 Off ch=1 n=d#2 v=80
232320 Off ch=1 n=d#3 v=80
232320 On ch=1 n=a#2 v=65
232560 Off ch=1 n=a#2 v=80
232560 On ch=1 n=a#4 v=65
232680 Off ch=1 n=a#4 v=80
232680 On ch=1 n=f4 v=65
232800 Off ch=1 n=f4 v=80
232800 On ch=1 n=d4 v=65
233040 Off ch=1 n=d4 v=80
233040 On ch=1 n=a#4 v=65
233160 Off ch=1 n=a#4 v=80
233160 On ch=1 n=f4 v=65
233280 Off ch=1 n=f4 v=80
233280 On ch=1 n=a#3 v=65
233520 Off ch=1 n=a#3 v=80
233520 On ch=1 n=d5 v=65
233640 Off ch=1 n=d5 v=80
233640 On ch=1 n=b4 v=65
233760 Off ch=1 n=b4 v=80
233760 On ch=1 n=d#4 v=65
234000 Off ch=1 n=d#4 v=80
234000 On ch=1 n=d#5 v=65
234120 Off ch=1 n=d#5 v=80
234120 On ch=1 n=a#4 v=65
234240 Off ch=1 n=a#4 v=80
234240 On ch=1 n=f4 v=65
234480 Off ch=1 n=f4 v=80
234480 On ch=1 n=d5 v=65
234600 Off ch=1 n=d5 v=80
234600 On ch=1 n=a#4 v=65
234720 Off ch=1 n=a#4 v=80
234720 On ch=1 n=f3 v=65
234960 Off ch=1 n=f3 v=80
234960 On ch=1 n=a4 v=65
235080 Off ch=1 n=a4 v=80
235080 On ch=1 n=f4 v=65
235200 Off ch=1 n=f4 v=80
235200 On ch=1 n=a#3 v=102
235440 Off ch=1 n=a#3 v=80
235440 On ch=1 n=a#4 v=90
235560 Off ch=1 n=a#4 v=80
235560 On ch=1 n=f4 v=90
235680 Off ch=1 n=f4 v=80
235680 On ch=1 n=d4 v=102
235920 Off ch=1 n=d4 v=80
235920 On ch=1 n=a#4 v=90
236040 Off ch=1 n=a#4 v=80
236040 On ch=1 n=f4 v=90
236160 Off ch=1 n=f4 v=80
236160 On ch=1 n=a#3 v=65
236400 Off ch=1 n=a#3 v=80
236400 On ch=1 n=a#4 v=53
236520 Off ch=1 n=a#4 v=80
236520 On ch=1 n=f4 v=53
236640 Off ch=1 n=f4 v=80
236640 On ch=1 n=d4 v=65
236880 Off ch=1 n=d4 v=80
236880 On ch=1 n=a#4 v=53
237000 Off ch=1 n=a#4 v=80
237000 On ch=1 n=f4 v=53
237120 Off ch=1 n=f4 v=80
237120 On ch=1 n=g3 v=65
237360 Off ch=1 n=g3 v=80
237360 On ch=1 n=d5 v=53
237480 Off ch=1 n=d5 v=80
237480 On ch=1 n=b4 v=53
237600 Off ch=1 n=b4 v=80
237600 On ch=1 n=g4 v=65
237840 Off ch=1 n=g4 v=80
237840 On ch=1 n=d5 v=53
237960 Off ch=1 n=d5 v=80
237960 On ch=1 n=b4 v=53
238080 Off ch=1 n=b4 v=80
238080 On ch=1 n=c4 v=65
238320 Off ch=1 n=c4 v=80
238320 On ch=1 n=d#5 v=53
238440 Off ch=1 n=d#5 v=80
238440 On ch=1 n=c5 v=53
238560 Off ch=1 n=c5 v=80
238560 On ch=1 n=g4 v=65
238800 Off ch=1 n=g4 v=80
238800 On ch=1 n=d5 v=53
238920 Off ch=1 n=d5 v=80
238920 On ch=1 n=b4 v=53
239040 Off ch=1 n=b4 v=80
239040 On ch=1 n=d#4 v=102
239280 Off ch=1 n=d#4 v=80
239280 On ch=1 n=d#5 v=90
239400 Off ch=1 n=d#5 v=80
239400 On ch=1 n=a#4 v=90
239520 Off ch=1 n=a#4 v=80
239520 On ch=1 n=g4 v=102
239760 Off ch=1 n=g4 v=80
239760 On ch=1 n=d#5 v=90
239880 Off ch=1 n=d#5 v=80
239880 On ch=1 n=a#4 v=90
240000 Off ch=1 n=a#4 v=80
240000 On ch=1 n=d#4 v=65
240240 Off ch=1 n=d#4 v=80
240240 On ch=1 n=d#5 v=53
240360 Off ch=1 n=d#5 v=80
240360 On ch=1 n=a#4 v=53
240480 Off ch=1 n=a#4 v=80
240480 On ch=1 n=g4 v=65
240720 Off ch=1 n=g4 v=80
240720 On ch=1 n=d#5 v=53
240840 Off ch=1 n=d#5 v=80
240840 On ch=1 n=a#4 v=53
240960 Off ch=1 n=a#4 v=80
240960 On ch=1 n=d#4 v=65
241200 Off ch=1 n=d#4 v=80
241200 On ch=1 n=g5 v=53
241320 Off ch=1 n=g5 v=80
241320 On ch=1 n=c5 v=53
241440 Off ch=1 n=c5 v=80
241440 On ch=1 n=g4 v=65
241680 Off ch=1 n=g4 v=80
241680 On ch=1 n=g5 v=53
241800 Off ch=1 n=g5 v=80
241800 On ch=1 n=c5 v=53
241920 Off ch=1 n=c5 v=80
241920 On ch=1 n=d#4 v=65
242160 Off ch=1 n=d#4 v=80
242160 On ch=1 n=f5 v=53
242280 Off ch=1 n=f5 v=80
242280 On ch=1 n=c5 v=53
242400 Off ch=1 n=c5 v=80
242400 On ch=1 n=d4 v=65
242640 Off ch=1 n=d4 v=80
242640 On ch=1 n=f5 v=53
242760 Off ch=1 n=f5 v=80
242760 On ch=1 n=c5 v=53
242880 Off ch=1 n=c5 v=80
242880 On ch=1 n=d#4 v=65
243120 Off ch=1 n=d#4 v=80
243120 On ch=1 n=d#5 v=53
243240 Off ch=1 n=d#5 v=80
243240 On ch=1 n=a#4 v=53
243360 Off ch=1 n=a#4 v=80
243360 On ch=1 n=f4 v=65
243600 Off ch=1 n=f4 v=80
243600 On ch=1 n=d#5 v=53
243720 Off ch=1 n=d#5 v=80
243720 On ch=1 n=a4 v=53
243840 Off ch=1 n=a4 v=80
243840 On ch=1 n=a#3 v=90
244080 Off ch=1 n=a#3 v=80
244080 On ch=1 n=c4 v=90
244200 Off ch=1 n=c4 v=80
244200 On ch=1 n=d4 v=90
244320 Off ch=1 n=d4 v=80
244320 On ch=1 n=d#4 v=90
244440 Off ch=1 n=d#4 v=80
244560 On ch=1 n=f#4 v=90
244680 Off ch=1 n=f#4 v=80
244800 On ch=1 n=a#2 v=90
245040 Off ch=1 n=a#2 v=80
245040 On ch=1 n=c3 v=90
245160 Off ch=1 n=c3 v=80
245160 On ch=1 n=d3 v=90
245280 Off ch=1 n=d3 v=80
245280 On ch=1 n=d#3 v=90
245400 Off ch=1 n=d#3 v=80
245520 On ch=1 n=f#3 v=90
245640 Off ch=1 n=f#3 v=80
245760 On ch=1 n=a#3 v=90
245880 Off ch=1 n=a#3 v=80
246000 On ch=1 n=a#4 v=90
246120 Off ch=1 n=a#4 v=80
246240 On ch=1 n=f#3 v=90
246360 Off ch=1 n=f#3 v=80
246480 On ch=1 n=f#4 v=90
246600 Off ch=1 n=f#4 v=80
246720 On ch=1 n=d#3 v=96
246840 Off ch=1 n=d#3 v=80
246960 On ch=1 n=d#4 v=96
247080 Off ch=1 n=d#4 v=80
247200 On ch=1 n=c#3 v=102
247200 On ch=1 n=c#4 v=102
247440 Off ch=1 n=c#4 v=80
247440 Off ch=1 n=c#3 v=80
247440 On ch=1 n=f4 v=102
247440 On ch=1 n=g#4 v=102
247440 On ch=1 n=c#5 v=102
247680 Off ch=1 n=c#5 v=80
247680 Off ch=1 n=g#4 v=80
247680 Off ch=1 n=f4 v=80
247680 On ch=1 n=c#3 v=90
247920 Off ch=1 n=c#3 v=80
247920 On ch=1 n=d#3 v=90
248040 Off ch=1 n=d#3 v=80
248040 On ch=1 n=f3 v=90
248160 Off ch=1 n=f3 v=80
248160 On ch=1 n=f#3 v=90
248280 Off ch=1 n=f#3 v=80
248400 On ch=1 n=a#3 v=90
248520 Off ch=1 n=a#3 v=80
248640 On ch=1 n=c#4 v=90
248880 Off ch=1 n=c#4 v=80
248880 On ch=1 n=d#4 v=90
249000 Off ch=1 n=d#4 v=80
249000 On ch=1 n=f4 v=90
249120 Off ch=1 n=f4 v=80
249120 On ch=1 n=f#4 v=90
249240 Off ch=1 n=f#4 v=80
249360 On ch=1 n=a#4 v=90
249480 Off ch=1 n=a#4 v=80
249600 On ch=1 n=c#4 v=90
249720 Off ch=1 n=c#4 v=80
249840 On ch=1 n=a#4 v=90
249840 On ch=1 n=c#5 v=90
249840 On ch=1 n=f5 v=90
249960 Off ch=1 n=f5 v=80
249960 Off ch=1 n=c#5 v=80
249960 Off ch=1 n=a#4 v=80
250080 On ch=1 n=f#3 v=90
250200 Off ch=1 n=f#3 v=80
250320 On ch=1 n=a#4 v=90
250320 On ch=1 n=c#5 v=90
250320 On ch=1 n=f#5 v=90
250440 Off ch=1 n=f#5 v=80
250440 Off ch=1 n=c#5 v=80
250440 Off ch=1 n=a#4 v=80
250560 On ch=1 n=c3 v=96
250680 Off ch=1 n=c3 v=80
250800 On ch=1 n=e5 v=96
250800 On ch=1 n=g4 v=96
250800 On ch=1 n=c5 v=96
250920 Off ch=1 n=c5 v=80
250920 Off ch=1 n=g4 v=80
250920 Off ch=1 n=e5 v=80
251040 On ch=1 n=f3 v=102
251280 Off ch=1 n=f3 v=80
251280 On ch=1 n=f5 v=102
251280 On ch=1 n=c5 v=102
251280 On ch=1 n=a4 v=102
251520 Off ch=1 n=a4 v=80
251520 Off ch=1 n=c5 v=80
251520 Off ch=1 n=f5 v=80
251520 On ch=1 n=a#3 v=90
251760 Off ch=1 n=a#3 v=80
251760 On ch=1 n=a#4 v=78
251880 Off ch=1 n=a#4 v=80
251880 On ch=1 n=f4 v=78
252000 Off ch=1 n=f4 v=80
252000 On ch=1 n=d4 v=90
252240 Off ch=1 n=d4 v=80
252240 On ch=1 n=a#4 v=78
252360 Off ch=1 n=a#4 v=80
252360 On ch=1 n=f4 v=78
252480 Off ch=1 n=f4 v=80
252480 On ch=1 n=a#3 v=90
252720 Off ch=1 n=a#3 v=80
252720 On ch=1 n=d5 v=78
252840 Off ch=1 n=d5 v=80
252840 On ch=1 n=b4 v=78
252960 Off ch=1 n=b4 v=80
252960 On ch=1 n=d#4 v=90
253200 Off ch=1 n=d#4 v=80
253200 On ch=1 n=d#5 v=78
253320 Off ch=1 n=d#5 v=80
253320 On ch=1 n=a#4 v=78
253440 Off ch=1 n=a#4 v=80
253440 On ch=1 n=f4 v=90
253680 Off ch=1 n=f4 v=80
253680 On ch=1 n=d5 v=78
253800 Off ch=1 n=d5 v=80
253800 On ch=1 n=a#4 v=78
253920 Off ch=1 n=a#4 v=80
253920 On ch=1 n=f3 v=90
254160 Off ch=1 n=f3 v=80
254160 On ch=1 n=a4 v=78
254280 Off ch=1 n=a4 v=80
254280 On ch=1 n=f4 v=78
254400 Off ch=1 n=f4 v=80
254400 On ch=1 n=a#3 v=102
254640 Off ch=1 n=a#3 v=80
254640 On ch=1 n=a#4 v=90
254760 Off ch=1 n=a#4 v=80
254760 On ch=1 n=f4 v=90
254880 Off ch=1 n=f4 v=80
254880 On ch=1 n=d4 v=102
255120 Off ch=1 n=d4 v=80
255120 On ch=1 n=a#4 v=90
255240 Off ch=1 n=a#4 v=80
255240 On ch=1 n=f4 v=90
255360 Off ch=1 n=f4 v=80
255360 On ch=1 n=a#3 v=65
255600 Off ch=1 n=a#3 v=80
255600 On ch=1 n=a#4 v=53
255720 Off ch=1 n=a#4 v=80
255720 On ch=1 n=f4 v=53
255840 Off ch=1 n=f4 v=80
255840 On ch=1 n=d4 v=65
256080 Off ch=1 n=d4 v=80
256080 On ch=1 n=a#4 v=53
256200 Off ch=1 n=a#4 v=80
256200 On ch=1 n=f4 v=53
256320 Off ch=1 n=f4 v=80
256320 On ch=1 n=g3 v=65
256560 Off ch=1 n=g3 v=80
256560 On ch=1 n=d5 v=53
256680 Off ch=1 n=d5 v=80
256680 On ch=1 n=b4 v=53
256800 Off ch=1 n=b4 v=80
256800 On ch=1 n=g4 v=65
257040 Off ch=1 n=g4 v=80
257040 On ch=1 n=d5 v=53
257160 Off ch=1 n=d5 v=80
257160 On ch=1 n=b4 v=53
257280 Off ch=1 n=b4 v=80
257280 On ch=1 n=c4 v=65
257520 Off ch=1 n=c4 v=80
257520 On ch=1 n=d#5 v=53
257640 Off ch=1 n=d#5 v=80
257640 On ch=1 n=c5 v=53
257760 Off ch=1 n=c5 v=80
257760 On ch=1 n=g4 v=65
258000 Off ch=1 n=g4 v=80
258000 On ch=1 n=d5 v=53
258120 Off ch=1 n=d5 v=80
258120 On ch=1 n=b4 v=53
258240 Off ch=1 n=b4 v=80
258240 On ch=1 n=d#4 v=102
258480 Off ch=1 n=d#4 v=80
258480 On ch=1 n=d#5 v=90
258600 Off ch=1 n=d#5 v=80
258600 On ch=1 n=a#4 v=90
258720 Off ch=1 n=a#4 v=80
258720 On ch=1 n=g4 v=102
258960 Off ch=1 n=g4 v=80
258960 On ch=1 n=d#5 v=90
259080 Off ch=1 n=d#5 v=80
259080 On ch=1 n=a#4 v=90
259200 Off ch=1 n=a#4 v=80
259200 On ch=1 n=d#4 v=65
259440 Off ch=1 n=d#4 v=80
259440 On ch=1 n=d#5 v=53
259560 Off ch=1 n=d#5 v=80
259560 On ch=1 n=a#4 v=53
259680 Off ch=1 n=a#4 v=80
259680 On ch=1 n=g4 v=65
259920 Off ch=1 n=g4 v=80
259920 On ch=1 n=d#5 v=53
260040 Off ch=1 n=d#5 v=80
260040 On ch=1 n=a#4 v=53
260160 Off ch=1 n=a#4 v=80
260160 On ch=1 n=d#4 v=65
260400 Off ch=1 n=d#4 v=80
260400 On ch=1 n=g5 v=53
260520 Off ch=1 n=g5 v=80
260520 On ch=1 n=c5 v=53
260640 Off ch=1 n=c5 v=80
260640 On ch=1 n=g4 v=65
260880 Off ch=1 n=g4 v=80
260880 On ch=1 n=g5 v=53
261000 Off ch=1 n=g5 v=80
261000 On ch=1 n=c5 v=53
261120 Off ch=1 n=c5 v=80
261120 On ch=1 n=d#4 v=65
261360 Off ch=1 n=d#4 v=80
261360 On ch=1 n=f5 v=53
261480 Off ch=1 n=f5 v=80
261480 On ch=1 n=c5 v=53
261600 Off ch=1 n=c5 v=80
261600 On ch=1 n=d4 v=65
261840 Off ch=1 n=d4 v=80
261840 On ch=1 n=f5 v=53
261960 Off ch=1 n=f5 v=80
261960 On ch=1 n=c5 v=53
262080 Off ch=1 n=c5 v=80
262080 On ch=1 n=d#4 v=65
262320 Off ch=1 n=d#4 v=80
262320 On ch=1 n=d#5 v=53
262440 Off ch=1 n=d#5 v=80
262440 On ch=1 n=a#4 v=53
262560 Off ch=1 n=a#4 v=80
262560 On ch=1 n=f4 v=65
262800 Off ch=1 n=f4 v=80
262800 On ch=1 n=d#5 v=53
262920 Off ch=1 n=d#5 v=80
262920 On ch=1 n=a4 v=53
263040 Off ch=1 n=a4 v=80
263040 On ch=1 n=a#3 v=65
263280 Off ch=1 n=a#3 v=80
263280 On ch=1 n=a#4 v=65
263400 Off ch=1 n=a#4 v=80
263400 On ch=1 n=f4 v=65
263520 Off ch=1 n=f4 v=80
263520 On ch=1 n=d4 v=65
263760 Off ch=1 n=d4 v=80
263760 On ch=1 n=a#4 v=65
263880 Off ch=1 n=a#4 v=80
263880 On ch=1 n=f4 v=65
264000 Off ch=1 n=f4 v=80
264000 On ch=1 n=a#3 v=60
264240 Off ch=1 n=a#3 v=80
264240 On ch=1 n=g4 v=60
264360 Off ch=1 n=g4 v=80
264360 On ch=1 n=f4 v=60
264480 Off ch=1 n=f4 v=80
264480 On ch=1 n=a#3 v=55
264720 Off ch=1 n=a#3 v=80
264720 On ch=1 n=g4 v=55
264840 Off ch=1 n=g4 v=80
264840 On ch=1 n=f4 v=55
264960 Off ch=1 n=f4 v=80
264960 On ch=1 n=a#3 v=50
265200 Off ch=1 n=a#3 v=80
265200 On ch=1 n=a#4 v=50
265320 Off ch=1 n=a#4 v=80
265320 On ch=1 n=f4 v=50
265440 Off ch=1 n=f4 v=80
265440 On ch=1 n=d4 v=45
265680 Off ch=1 n=d4 v=80
265680 On ch=1 n=a#4 v=45
265800 Off ch=1 n=a#4 v=80
265800 On ch=1 n=f4 v=45
265920 Off ch=1 n=f4 v=80
265920 On ch=1 n=a#3 v=41
266160 Off ch=1 n=a#3 v=80
266160 On ch=1 n=g4 v=41
266280 Off ch=1 n=g4 v=80
266280 On ch=1 n=f4 v=41
266400 Off ch=1 n=f4 v=80
266400 On ch=1 n=a#3 v=41
266640 Off ch=1 n=a#3 v=80
266640 On ch=1 n=f4 v=41
266760 Off ch=1 n=f4 v=80
266760 On ch=1 n=d#4 v=41
266880 Off ch=1 n=d#4 v=80
266880 On ch=1 n=d4 v=49
266880 On ch=1 n=a#3 v=49
267120 Off ch=1 n=a#3 v=80
267120 Off ch=1 n=d4 v=80
267120 On ch=1 n=a#4 v=49
267240 Off ch=1 n=a#4 v=80
267240 On ch=1 n=f4 v=49
267360 Off ch=1 n=f4 v=80
267360 On ch=1 n=d4 v=57
267600 Off ch=1 n=d4 v=80
267600 On ch=1 n=a#4 v=57
267720 Off ch=1 n=a#4 v=80
267720 On ch=1 n=f4 v=57
267840 Off ch=1 n=f4 v=80
267840 On ch=1 n=a#3 v=60
268080 Off ch=1 n=a#3 v=80
268080 On ch=1 n=g4 v=60
268200 Off ch=1 n=g4 v=80
268200 On ch=1 n=f4 v=60
268320 Off ch=1 n=f4 v=80
268320 On ch=1 n=a#3 v=55
268560 Off ch=1 n=a#3 v=80
268560 On ch=1 n=g4 v=55
268680 Off ch=1 n=g4 v=80
268680 On ch=1 n=f4 v=55
268800 Off ch=1 n=f4 v=80
268800 On ch=1 n=a#3 v=50
269040 Off ch=1 n=a#3 v=80
269040 On ch=1 n=a#4 v=50
269160 Off ch=1 n=a#4 v=80
269160 On ch=1 n=f4 v=50
269280 Off ch=1 n=f4 v=80
269280 On ch=1 n=d4 v=45
269520 Off ch=1 n=d4 v=80
269520 On ch=1 n=a#4 v=45
269640 Off ch=1 n=a#4 v=80
269640 On ch=1 n=f4 v=45
269760 Off ch=1 n=f4 v=80
269760 On ch=1 n=a#3 v=41
270000 Off ch=1 n=a#3 v=80
270000 On ch=1 n=g4 v=41
270120 Off ch=1 n=g4 v=80
270120 On ch=1 n=f4 v=41
270240 Off ch=1 n=f4 v=80
270240 On ch=1 n=a#3 v=41
270480 Off ch=1 n=a#3 v=80
270480 On ch=1 n=f4 v=41
270600 Off ch=1 n=f4 v=80
270600 On ch=1 n=d#4 v=41
270720 Off ch=1 n=d#4 v=80
270720 On ch=1 n=a#3 v=65
270720 On ch=1 n=d4 v=65
270960 Off ch=1 n=d4 v=80
270960 Off ch=1 n=a#3 v=80
270960 On ch=1 n=a#4 v=65
271080 Off ch=1 n=a#4 v=80
271080 On ch=1 n=f4 v=65
271200 Off ch=1 n=f4 v=80
271200 On ch=1 n=d4 v=65
271440 Off ch=1 n=d4 v=80
271440 On ch=1 n=a#4 v=65
271560 Off ch=1 n=a#4 v=80
271560 On ch=1 n=f4 v=65
271680 Off ch=1 n=f4 v=80
271680 On ch=1 n=a#3 v=80
271920 Off ch=1 n=a#3 v=80
271920 On ch=1 n=a#4 v=65
272040 Off ch=1 n=a#4 v=80
272040 On ch=1 n=f4 v=65
272160 Off ch=1 n=f4 v=80
272160 On ch=1 n=d4 v=65
272400 Off ch=1 n=d4 v=80
272400 On ch=1 n=a#4 v=65
272520 Off ch=1 n=a#4 v=80
272520 On ch=1 n=f4 v=65
272640 Off ch=1 n=f4 v=80
272640 On ch=1 n=f3 v=87
272880 Off ch=1 n=f3 v=80
272880 On ch=1 n=a#4 v=72
273000 Off ch=1 n=a#4 v=80
273000 On ch=1 n=f4 v=72
273120 Off ch=1 n=f4 v=80
273120 On ch=1 n=d4 v=79
273360 Off ch=1 n=d4 v=80
273360 On ch=1 n=a#4 v=79
273480 Off ch=1 n=a#4 v=80
273480 On ch=1 n=f4 v=79
273600 Off ch=1 n=f4 v=80
273600 On ch=1 n=d3 v=101
273840 Off ch=1 n=d3 v=80
273840 On ch=1 n=a#4 v=86
273960 Off ch=1 n=a#4 v=80
273960 On ch=1 n=f4 v=86
274080 Off ch=1 n=f4 v=80
274080 On ch=1 n=d4 v=93
274320 Off ch=1 n=d4 v=80
274320 On ch=1 n=a#4 v=93
274440 Off ch=1 n=a#4 v=80
274440 On ch=1 n=f4 v=93
274560 Off ch=1 n=f4 v=80
274560 On ch=1 n=a#3 v=102
274560 On ch=1 n=a#2 v=102
276480 Off ch=1 n=a#2 v=80
276480 Off ch=1 n=a#3 v=80
278400 On ch=1 n=d#4 v=65
279360 Off ch=1 n=d#4 v=80
279360 On ch=1 n=d#4 v=65
280320 Off ch=1 n=d#4 v=80
280320 On ch=1 n=d4 v=65
281280 Off ch=1 n=d4 v=80
281280 On ch=1 n=d#4 v=65
282240 Off ch=1 n=d#4 v=80
282240 On ch=1 n=f4 v=65
283200 Off ch=1 n=f4 v=80
283200 On ch=1 n=f3 v=65
284160 Off ch=1 n=f3 v=80
284160 On ch=1 n=a#3 v=65
285120 Off ch=1 n=a#3 v=80
285120 On ch=1 n=d4 v=65
286080 Off ch=1 n=d4 v=80
286080 On ch=1 n=d#4 v=65
287040 Off ch=1 n=d#4 v=80
287040 On ch=1 n=d#4 v=65
288000 Off ch=1 n=d#4 v=80
288000 On ch=1 n=d4 v=65
288960 Off ch=1 n=d4 v=80
288960 On ch=1 n=d#4 v=65
289920 Off ch=1 n=d#4 v=80
289920 On ch=1 n=f4 v=65
290880 Off ch=1 n=f4 v=80
290880 On ch=1 n=f3 v=65
291840 Off ch=1 n=f3 v=80
291840 On ch=1 n=a#3 v=65
292800 Off ch=1 n=a#3 v=80
292800 On ch=1 n=f#3 v=65
293760 Off ch=1 n=f#3 v=80
293760 On ch=1 n=g3 v=65
294720 Off ch=1 n=g3 v=80
294720 On ch=1 n=d3 v=65
295680 Off ch=1 n=d3 v=80
295680 On ch=1 n=d#3 v=65
296640 Off ch=1 n=d#3 v=80
296640 On ch=1 n=b2 v=65
297600 Off ch=1 n=b2 v=80
297600 On ch=1 n=a#2 v=53
298080 Off ch=1 n=a#2 v=80
298080 On ch=1 n=f4 v=47
299520 Off ch=1 n=f4 v=80
299520 On ch=1 n=g4 v=65
299760 Off ch=1 n=g4 v=80
299760 On ch=1 n=d5 v=65
299760 On ch=1 n=a#5 v=65
300000 Off ch=1 n=a#5 v=80
300000 Off ch=1 n=d5 v=80
300000 On ch=1 n=f4 v=65
300240 Off ch=1 n=f4 v=80
300240 On ch=1 n=a#5 v=65
300240 On ch=1 n=d5 v=65
300480 Off ch=1 n=d5 v=80
300480 Off ch=1 n=a#5 v=80
300480 On ch=1 n=e4 v=65
300720 Off ch=1 n=e4 v=80
300720 On ch=1 n=a#5 v=65
300720 On ch=1 n=c5 v=65
300960 Off ch=1 n=c5 v=80
300960 Off ch=1 n=a#5 v=80
301200 On ch=1 n=a#5 v=65
301200 On ch=1 n=c5 v=65
301440 Off ch=1 n=c5 v=80
301440 Off ch=1 n=a#5 v=80
301440 On ch=1 n=f4 v=65
301680 Off ch=1 n=f4 v=80
301680 On ch=1 n=d#5 v=65
301680 On ch=1 n=a5 v=65
301920 Off ch=1 n=a5 v=80
301920 Off ch=1 n=d#5 v=80
301920 On ch=1 n=g4 v=65
302160 On ch=1 n=d#5 v=65
302160 On ch=1 n=a5 v=65
302280 Off ch=1 n=g4 v=80
302280 On ch=1 n=a4 v=65
302400 Off ch=1 n=d#5 v=80
302400 Off ch=1 n=a5 v=80
302400 Off ch=1 n=a4 v=80
302400 On ch=1 n=a#4 v=90
302640 On ch=1 n=g#5 v=65
302640 On ch=1 n=d5 v=65
302880 Off ch=1 n=d5 v=80
302880 Off ch=1 n=g#5 v=80
303120 On ch=1 n=g#5 v=65
303120 On ch=1 n=d5 v=65
303360 Off ch=1 n=d5 v=80
303360 Off ch=1 n=a#4 v=80
303360 Off ch=1 n=g#5 v=80
303360 On ch=1 n=d#4 v=80
303600 Off ch=1 n=d#4 v=80
303600 On ch=1 n=a#4 v=71
303600 On ch=1 n=g5 v=71
304080 Off ch=1 n=g5 v=80
304080 Off ch=1 n=a#4 v=80
304080 On ch=1 n=f#5 v=83
304080 On ch=1 n=a#4 v=83
304320 Off ch=1 n=a#4 v=80
304320 Off ch=1 n=f#5 v=80
304320 On ch=1 n=a#3 v=89
304560 Off ch=1 n=a#3 v=80
304560 On ch=1 n=f5 v=83
304560 On ch=1 n=a#4 v=83
304800 Off ch=1 n=a#4 v=80
304800 Off ch=1 n=f5 v=80
304800 On ch=1 n=d4 v=77
305040 Off ch=1 n=d4 v=80
305040 On ch=1 n=a4 v=65
305040 On ch=1 n=f#5 v=65
305280 Off ch=1 n=f#5 v=80
305280 Off ch=1 n=a4 v=80
305280 On ch=1 n=d#4 v=65
305520 Off ch=1 n=d#4 v=80
305520 On ch=1 n=g4 v=65
305610 Off ch=1 n=g4 v=80
305610 On ch=1 n=g5 v=90
306000 Off ch=1 n=g5 v=80
306000 On ch=1 n=a4 v=65
306000 On ch=1 n=g4 v=65
306240 Off ch=1 n=g4 v=80
306240 Off ch=1 n=a4 v=80
306240 On ch=1 n=d4 v=65
306480 Off ch=1 n=d4 v=80
306480 On ch=1 n=f#4 v=57
306480 On ch=1 n=a4 v=57
306480 On ch=1 n=f#5 v=57
306960 Off ch=1 n=f#5 v=80
306960 Off ch=1 n=a4 v=80
306960 Off ch=1 n=f#4 v=80
306960 On ch=1 n=f#4 v=45
306960 On ch=1 n=a4 v=45
306960 On ch=1 n=f#5 v=45
307200 Off ch=1 n=f#5 v=80
307200 Off ch=1 n=a4 v=80
307200 Off ch=1 n=f#4 v=80
307200 On ch=1 n=g4 v=65
307440 Off ch=1 n=g4 v=80
307440 On ch=1 n=d5 v=65
307440 On ch=1 n=a#5 v=65
307680 Off ch=1 n=a#5 v=80
307680 Off ch=1 n=d5 v=80
307680 On ch=1 n=f4 v=65
307920 Off ch=1 n=f4 v=80
307920 On ch=1 n=a#5 v=65
307920 On ch=1 n=d5 v=65
308160 Off ch=1 n=d5 v=80
308160 Off ch=1 n=a#5 v=80
308160 On ch=1 n=e4 v=65
308400 Off ch=1 n=e4 v=80
308400 On ch=1 n=a#5 v=65
308400 On ch=1 n=c5 v=65
308640 Off ch=1 n=c5 v=80
308640 Off ch=1 n=a#5 v=80
308880 On ch=1 n=a#5 v=65
308880 On ch=1 n=c5 v=65
309120 Off ch=1 n=c5 v=80
309120 Off ch=1 n=a#5 v=80
309120 On ch=1 n=f4 v=65
309360 Off ch=1 n=f4 v=80
309360 On ch=1 n=d#5 v=65
309360 On ch=1 n=a5 v=65
309600 Off ch=1 n=a5 v=80
309600 Off ch=1 n=d#5 v=80
309600 On ch=1 n=g4 v=65
309840 On ch=1 n=d#5 v=65
309840 On ch=1 n=a5 v=65
309960 Off ch=1 n=g4 v=80
309960 On ch=1 n=a4 v=65
310080 Off ch=1 n=d#5 v=80
310080 Off ch=1 n=a5 v=80
310080 Off ch=1 n=a4 v=80
310080 On ch=1 n=a#4 v=90
310320 On ch=1 n=g#5 v=65
310320 On ch=1 n=d5 v=65
310560 Off ch=1 n=d5 v=80
310560 Off ch=1 n=g#5 v=80
310800 On ch=1 n=g#5 v=65
310800 On ch=1 n=d5 v=65
311040 Off ch=1 n=d5 v=80
311040 Off ch=1 n=a#4 v=80
311040 Off ch=1 n=g#5 v=80
311040 On ch=1 n=d#4 v=80
311280 Off ch=1 n=d#4 v=80
311280 On ch=1 n=a#4 v=71
311280 On ch=1 n=g5 v=71
311760 Off ch=1 n=g5 v=80
311760 Off ch=1 n=a#4 v=80
311760 On ch=1 n=f#5 v=83
311760 On ch=1 n=a#4 v=83
312000 Off ch=1 n=a#4 v=80
312000 Off ch=1 n=f#5 v=80
312000 On ch=1 n=a#3 v=89
312240 Off ch=1 n=a#3 v=80
312240 On ch=1 n=f5 v=83
312240 On ch=1 n=a#4 v=83
312480 Off ch=1 n=a#4 v=80
312480 Off ch=1 n=f5 v=80
312480 On ch=1 n=d4 v=77
312720 Off ch=1 n=d4 v=80
312720 On ch=1 n=a4 v=65
312720 On ch=1 n=f#5 v=65
312960 Off ch=1 n=f#5 v=80
312960 Off ch=1 n=a4 v=80
312960 On ch=1 n=d#4 v=65
313200 Off ch=1 n=d#4 v=80
313200 On ch=1 n=g4 v=65
313290 Off ch=1 n=g4 v=80
313290 On ch=1 n=g5 v=90
313680 Off ch=1 n=g5 v=80
313680 On ch=1 n=a4 v=65
313680 On ch=1 n=g4 v=65
313920 Off ch=1 n=g4 v=80
313920 Off ch=1 n=a4 v=80
313920 On ch=1 n=d4 v=65
314160 Off ch=1 n=d4 v=80
314160 On ch=1 n=f#4 v=57
314160 On ch=1 n=a4 v=57
314160 On ch=1 n=f#5 v=57
314640 Off ch=1 n=f#5 v=80
314640 Off ch=1 n=a4 v=80
314640 Off ch=1 n=f#4 v=80
314640 On ch=1 n=f#4 v=45
314640 On ch=1 n=a4 v=45
314640 On ch=1 n=f#5 v=45
314880 Off ch=1 n=f#5 v=80
314880 Off ch=1 n=a4 v=80
314880 Off ch=1 n=f#4 v=80
314880 On ch=1 n=g3 v=65
315120 On ch=1 n=b4 v=65
315120 On ch=1 n=g4 v=65
315360 Off ch=1 n=g4 v=80
315360 Off ch=1 n=b4 v=80
315360 Off ch=1 n=g3 v=80
315360 On ch=1 n=a3 v=65
315600 On ch=1 n=g4 v=65
315600 On ch=1 n=b4 v=65
315720 Off ch=1 n=a3 v=80
315720 On ch=1 n=b3 v=65
315840 Off ch=1 n=g4 v=80
315840 Off ch=1 n=b4 v=80
315840 Off ch=1 n=b3 v=80
315840 On ch=1 n=c4 v=65
316080 On ch=1 n=c5 v=71
316080 On ch=1 n=g4 v=71
316320 Off ch=1 n=g4 v=80
316320 Off ch=1 n=c5 v=80
316320 Off ch=1 n=c4 v=80
316320 On ch=1 n=f4 v=77
316560 On ch=1 n=d5 v=83
316560 On ch=1 n=g#4 v=83
316800 Off ch=1 n=g#4 v=80
316800 Off ch=1 n=d5 v=80
316800 Off ch=1 n=f4 v=80
316800 On ch=1 n=g4 v=89
317040 On ch=1 n=c5 v=71
317280 Off ch=1 n=c5 v=80
317280 Off ch=1 n=g4 v=80
317280 On ch=1 n=g3 v=77
317520 On ch=1 n=b4 v=83
317520 On ch=1 n=g4 v=83
318000 Off ch=1 n=g4 v=80
318000 Off ch=1 n=b4 v=80
318000 On ch=1 n=d5 v=83
318000 On ch=1 n=b4 v=83
318240 Off ch=1 n=g3 v=80
318240 On ch=1 n=c4 v=77
318480 Off ch=1 n=d5 v=80
318480 Off ch=1 n=b4 v=80
318480 On ch=1 n=c5 v=65
318480 On ch=1 n=g4 v=65
318720 Off ch=1 n=g4 v=80
318720 Off ch=1 n=c4 v=80
318720 Off ch=1 n=c5 v=80
318720 On ch=1 n=f3 v=65
318960 On ch=1 n=a4 v=65
318960 On ch=1 n=f4 v=65
319200 Off ch=1 n=f4 v=80
319200 Off ch=1 n=a4 v=80
319200 Off ch=1 n=f3 v=80
319200 On ch=1 n=g3 v=65
319440 On ch=1 n=f4 v=65
319440 On ch=1 n=a4 v=65
319560 Off ch=1 n=g3 v=80
319560 On ch=1 n=a3 v=65
319680 Off ch=1 n=f4 v=80
319680 Off ch=1 n=a4 v=80
319680 Off ch=1 n=a3 v=80
319680 On ch=1 n=a#3 v=65
319920 On ch=1 n=f4 v=71
319920 On ch=1 n=a#4 v=71
320160 Off ch=1 n=a#4 v=80
320160 Off ch=1 n=f4 v=80
320160 Off ch=1 n=a#3 v=80
320160 On ch=1 n=d#4 v=77
320400 On ch=1 n=g4 v=83
320400 On ch=1 n=c5 v=83
320640 Off ch=1 n=c5 v=80
320640 Off ch=1 n=g4 v=80
320640 Off ch=1 n=d#4 v=80
320640 On ch=1 n=f4 v=89
320880 On ch=1 n=a#4 v=71
320880 On ch=1 n=d5 v=71
321120 Off ch=1 n=d5 v=80
321120 Off ch=1 n=a#4 v=80
321120 Off ch=1 n=f4 v=80
321120 On ch=1 n=f#4 v=77
321360 On ch=1 n=a4 v=83
321360 On ch=1 n=c5 v=83
321600 Off ch=1 n=c5 v=80
321600 Off ch=1 n=a4 v=80
321600 On ch=1 n=g#4 v=83
321840 On ch=1 n=c5 v=83
322080 Off ch=1 n=f#4 v=80
322080 Off ch=1 n=g#4 v=80
322080 On ch=1 n=g4 v=77
322320 Off ch=1 n=c5 v=80
322320 On ch=1 n=c5 v=65
322560 Off ch=1 n=g4 v=80
322560 Off ch=1 n=c5 v=80
322560 On ch=1 n=g4 v=65
322800 Off ch=1 n=g4 v=80
322800 On ch=1 n=d5 v=65
322800 On ch=1 n=a#5 v=65
323040 Off ch=1 n=a#5 v=80
323040 Off ch=1 n=d5 v=80
323040 On ch=1 n=f4 v=65
323280 Off ch=1 n=f4 v=80
323280 On ch=1 n=a#5 v=65
323280 On ch=1 n=d5 v=65
323520 Off ch=1 n=d5 v=80
323520 Off ch=1 n=a#5 v=80
323520 On ch=1 n=e4 v=65
323760 Off ch=1 n=e4 v=80
323760 On ch=1 n=a#5 v=65
323760 On ch=1 n=c5 v=65
324000 Off ch=1 n=c5 v=80
324000 Off ch=1 n=a#5 v=80
324240 On ch=1 n=a#5 v=65
324240 On ch=1 n=c5 v=65
324480 Off ch=1 n=c5 v=80
324480 Off ch=1 n=a#5 v=80
324480 On ch=1 n=f4 v=65
324720 Off ch=1 n=f4 v=80
324720 On ch=1 n=d#5 v=65
324720 On ch=1 n=a5 v=65
324960 Off ch=1 n=a5 v=80
324960 Off ch=1 n=d#5 v=80
324960 On ch=1 n=g4 v=65
325200 On ch=1 n=d#5 v=65
325200 On ch=1 n=a5 v=65
325320 Off ch=1 n=g4 v=80
325320 On ch=1 n=a4 v=65
325440 Off ch=1 n=d#5 v=80
325440 Off ch=1 n=a5 v=80
325440 Off ch=1 n=a4 v=80
325440 On ch=1 n=a#4 v=90
325680 On ch=1 n=g#5 v=65
325680 On ch=1 n=d5 v=65
325920 Off ch=1 n=d5 v=80
325920 Off ch=1 n=g#5 v=80
326160 On ch=1 n=g#5 v=65
326160 On ch=1 n=d5 v=65
326400 Off ch=1 n=d5 v=80
326400 Off ch=1 n=a#4 v=80
326400 Off ch=1 n=g#5 v=80
326400 On ch=1 n=d#4 v=80
326640 Off ch=1 n=d#4 v=80
326640 On ch=1 n=a#4 v=71
326640 On ch=1 n=g5 v=71
327120 Off ch=1 n=g5 v=80
327120 Off ch=1 n=a#4 v=80
327120 On ch=1 n=f#5 v=83
327120 On ch=1 n=a#4 v=83
327360 Off ch=1 n=a#4 v=80
327360 Off ch=1 n=f#5 v=80
327360 On ch=1 n=a#3 v=89
327600 Off ch=1 n=a#3 v=80
327600 On ch=1 n=f5 v=83
327600 On ch=1 n=a#4 v=83
327840 Off ch=1 n=a#4 v=80
327840 Off ch=1 n=f5 v=80
327840 On ch=1 n=d4 v=77
328080 Off ch=1 n=d4 v=80
328080 On ch=1 n=a4 v=65
328080 On ch=1 n=f#5 v=65
328320 Off ch=1 n=f#5 v=80
328320 Off ch=1 n=a4 v=80
328320 On ch=1 n=d#4 v=65
328560 Off ch=1 n=d#4 v=80
328560 On ch=1 n=g4 v=65
328650 Off ch=1 n=g4 v=80
328650 On ch=1 n=g5 v=90
329040 Off ch=1 n=g5 v=80
329040 On ch=1 n=a4 v=65
329040 On ch=1 n=g4 v=65
329280 Off ch=1 n=g4 v=80
329280 Off ch=1 n=a4 v=80
329280 On ch=1 n=d4 v=65
329520 Off ch=1 n=d4 v=80
329520 On ch=1 n=f#4 v=57
329520 On ch=1 n=a4 v=57
329520 On ch=1 n=f#5 v=57
330000 Off ch=1 n=f#5 v=80
330000 Off ch=1 n=a4 v=80
330000 Off ch=1 n=f#4 v=80
330000 On ch=1 n=d4 v=45
330240 Off ch=1 n=d4 v=80
330240 On ch=1 n=g3 v=115
330240 On ch=1 n=g2 v=115
330960 Off ch=1 n=g2 v=80
330960 Off ch=1 n=g3 v=80
330960 On ch=1 n=a3 v=102
330960 On ch=1 n=a2 v=102
331080 Off ch=1 n=a2 v=80
331080 Off ch=1 n=a3 v=80
331200 On ch=1 n=a#3 v=102
331200 On ch=1 n=a#2 v=102
331320 Off ch=1 n=a#2 v=80
331320 Off ch=1 n=a#3 v=80
331440 On ch=1 n=b2 v=105
331440 On ch=1 n=b3 v=105
331560 Off ch=1 n=b3 v=80
331560 Off ch=1 n=b2 v=80
331680 On ch=1 n=c4 v=108
331680 On ch=1 n=c3 v=108
331800 Off ch=1 n=c3 v=80
331800 Off ch=1 n=c4 v=80
331920 On ch=1 n=d3 v=111
331920 On ch=1 n=d4 v=111
332040 Off ch=1 n=d4 v=80
332040 Off ch=1 n=d3 v=80
332160 On ch=1 n=d#3 v=114
332160 On ch=1 n=d#4 v=114
332400 Off ch=1 n=d#4 v=80
332400 Off ch=1 n=d#3 v=80
332400 On ch=1 n=c5 v=114
332400 On ch=1 n=a#4 v=114
332400 On ch=1 n=d#4 v=114
332880 Off ch=1 n=d#4 v=80
332880 Off ch=1 n=a#4 v=80
332880 Off ch=1 n=c5 v=80
332880 On ch=1 n=g4 v=114
333120 Off ch=1 n=g4 v=80
333120 On ch=1 n=f3 v=114
333360 Off ch=1 n=f3 v=80
333360 On ch=1 n=d#5 v=111
333360 On ch=1 n=c5 v=111
333360 On ch=1 n=f4 v=111
333840 Off ch=1 n=f4 v=80
333840 Off ch=1 n=c5 v=80
333840 Off ch=1 n=d#5 v=80
333840 On ch=1 n=a4 v=105
334080 Off ch=1 n=a4 v=80
334080 On ch=1 n=g4 v=102
334080 On ch=1 n=g3 v=102
334320 Off ch=1 n=g3 v=80
334320 Off ch=1 n=g4 v=80
334320 On ch=1 n=d#5 v=105
334320 On ch=1 n=a#4 v=105
334320 On ch=1 n=g4 v=105
334800 Off ch=1 n=g4 v=80
334800 Off ch=1 n=a#4 v=80
334800 Off ch=1 n=d#5 v=80
334800 On ch=1 n=g5 v=111
335040 Off ch=1 n=g5 v=80
335040 On ch=1 n=a3 v=102
335280 Off ch=1 n=a3 v=80
335280 On ch=1 n=d#5 v=105
335280 On ch=1 n=f4 v=105
335280 On ch=1 n=c5 v=105
335760 Off ch=1 n=c5 v=80
335760 Off ch=1 n=f4 v=80
335760 Off ch=1 n=d#5 v=80
335760 On ch=1 n=a4 v=111
336000 Off ch=1 n=a4 v=80
336000 On ch=1 n=a#3 v=102
336240 Off ch=1 n=a#3 v=80
336240 On ch=1 n=f4 v=117
336240 On ch=1 n=d5 v=117
336720 Off ch=1 n=f4 v=80
336720 On ch=1 n=f#4 v=117
337200 Off ch=1 n=f#4 v=80
337200 On ch=1 n=g4 v=117
337680 Off ch=1 n=g4 v=80
337680 On ch=1 n=a4 v=117
338160 Off ch=1 n=a4 v=80
338160 On ch=1 n=a#4 v=117
338400 Off ch=1 n=d5 v=80
338640 Off ch=1 n=a#4 v=80
338640 On ch=1 n=b4 v=117
339120 Off ch=1 n=b4 v=80
339600 On ch=1 n=g#4 v=102
339720 Off ch=1 n=g#4 v=80
339720 On ch=1 n=f4 v=102
339840 Off ch=1 n=f4 v=80
339840 On ch=1 n=c4 v=102
340080 Off ch=1 n=c4 v=80
340080 On ch=1 n=g4 v=102
340080 On ch=1 n=e5 v=102
340560 Off ch=1 n=e5 v=80
340560 Off ch=1 n=g4 v=80
340560 On ch=1 n=c4 v=117
341040 On ch=1 n=g4 v=102
341040 On ch=1 n=d#5 v=102
341280 Off ch=1 n=d#5 v=80
341280 Off ch=1 n=g4 v=80
341280 Off ch=1 n=c4 v=80
341280 On ch=1 n=d4 v=117
341520 On ch=1 n=b4 v=102
341520 On ch=1 n=f5 v=102
341760 Off ch=1 n=f5 v=80
341760 Off ch=1 n=b4 v=80
341760 Off ch=1 n=d4 v=80
341760 On ch=1 n=d#4 v=117
342000 On ch=1 n=c5 v=102
342000 On ch=1 n=g5 v=102
342240 Off ch=1 n=g5 v=80
342240 Off ch=1 n=c5 v=80
342240 Off ch=1 n=d#4 v=80
342240 On ch=1 n=e4 v=117
342480 On ch=1 n=a#4 v=117
342480 On ch=1 n=c#5 v=102
342480 On ch=1 n=f5 v=102
342960 Off ch=1 n=f5 v=80
342960 Off ch=1 n=c#5 v=80
342960 Off ch=1 n=a#4 v=80
342960 Off ch=1 n=e4 v=80
342960 On ch=1 n=e4 v=99
343440 Off ch=1 n=e4 v=80
343440 On ch=1 n=g4 v=93
343440 On ch=1 n=c#5 v=93
343560 Off ch=1 n=c#5 v=80
343560 On ch=1 n=a#4 v=93
343680 Off ch=1 n=g4 v=80
343680 Off ch=1 n=a#4 v=80
343680 On ch=1 n=a4 v=90
343680 On ch=1 n=f4 v=90
343920 Off ch=1 n=f4 v=80
343920 Off ch=1 n=a4 v=80
344640 On ch=1 n=c5 v=53
344640 On ch=1 n=a4 v=53
344640 On ch=1 n=f4 v=53
344760 Off ch=1 n=f4 v=80
344760 Off ch=1 n=a4 v=80
344760 Off ch=1 n=c5 v=80
345120 On ch=1 n=f4 v=53
345120 On ch=1 n=g#4 v=53
345120 On ch=1 n=b4 v=53
345120 On ch=1 n=d5 v=53
345240 Off ch=1 n=d5 v=80
345240 Off ch=1 n=b4 v=80
345240 Off ch=1 n=g#4 v=80
345240 Off ch=1 n=f4 v=80
345600 On ch=1 n=c5 v=61
345600 On ch=1 n=g4 v=61
345600 On ch=1 n=d#4 v=61
345720 Off ch=1 n=d#4 v=80
345720 Off ch=1 n=g4 v=80
345720 Off ch=1 n=c5 v=80
346320 On ch=1 n=d5 v=69
346320 On ch=1 n=c5 v=69
346320 On ch=1 n=g#4 v=69
346320 On ch=1 n=f4 v=69
346440 Off ch=1 n=f4 v=80
346440 Off ch=1 n=g#4 v=80
346440 Off ch=1 n=c5 v=80
346440 Off ch=1 n=d5 v=80
346560 On ch=1 n=d#5 v=77
346560 On ch=1 n=c5 v=77
346560 On ch=1 n=g4 v=77
346680 Off ch=1 n=g4 v=80
346680 Off ch=1 n=c5 v=80
346680 Off ch=1 n=d#5 v=80
347040 On ch=1 n=g4 v=77
347040 On ch=1 n=b4 v=77
347040 On ch=1 n=d5 v=77
347160 Off ch=1 n=d5 v=80
347160 Off ch=1 n=b4 v=80
347160 Off ch=1 n=g4 v=80
347520 On ch=1 n=c4 v=53
347520 On ch=1 n=g4 v=53
347520 On ch=1 n=c5 v=53
347640 Off ch=1 n=c5 v=80
347640 Off ch=1 n=g4 v=80
347640 Off ch=1 n=c4 v=80
348480 On ch=1 n=d#5 v=61
348480 On ch=1 n=c5 v=61
348600 Off ch=1 n=c5 v=80
348600 Off ch=1 n=d#5 v=80
348960 On ch=1 n=a#4 v=69
348960 On ch=1 n=d5 v=69
348960 On ch=1 n=f5 v=69
349080 Off ch=1 n=f5 v=80
349080 Off ch=1 n=d5 v=80
349080 Off ch=1 n=a#4 v=80
349440 On ch=1 n=d#5 v=77
349440 On ch=1 n=a#4 v=77
349440 On ch=1 n=d#4 v=77
349560 Off ch=1 n=d#4 v=80
349560 Off ch=1 n=a#4 v=80
349560 Off ch=1 n=d#5 v=80
350160 On ch=1 n=g#4 v=77
350160 On ch=1 n=f5 v=77
350160 On ch=1 n=d#5 v=77
350280 Off ch=1 n=d#5 v=80
350280 Off ch=1 n=f5 v=80
350280 Off ch=1 n=g#4 v=80
350400 On ch=1 n=g5 v=77
350400 On ch=1 n=a#4 v=77
350520 Off ch=1 n=a#4 v=80
350520 Off ch=1 n=g5 v=80
350880 On ch=1 n=f5 v=77
350880 On ch=1 n=d5 v=77
350880 On ch=1 n=b4 v=77
351000 Off ch=1 n=b4 v=80
351000 Off ch=1 n=d5 v=80
351000 Off ch=1 n=f5 v=80
351360 On ch=1 n=c5 v=77
351360 On ch=1 n=d#5 v=77
351480 Off ch=1 n=d#5 v=80
351480 Off ch=1 n=c5 v=80
352320 On ch=1 n=g4 v=93
352320 On ch=1 n=c4 v=93
352800 Off ch=1 n=c4 v=80
352800 On ch=1 n=d#4 v=78
353280 Off ch=1 n=g4 v=80
353280 Off ch=1 n=d#4 v=80
353280 On ch=1 n=g3 v=93
353280 On ch=1 n=g4 v=93
354000 Off ch=1 n=g3 v=80
354000 On ch=1 n=a3 v=78
354240 Off ch=1 n=g4 v=80
354240 Off ch=1 n=a3 v=80
354240 On ch=1 n=g4 v=93
354240 On ch=1 n=a#3 v=93
354720 Off ch=1 n=a#3 v=80
354720 On ch=1 n=g3 v=78
355200 Off ch=1 n=g4 v=80
355200 Off ch=1 n=g3 v=80
355200 On ch=1 n=d4 v=93
355200 On ch=1 n=d3 v=93
356160 Off ch=1 n=d3 v=80
356160 Off ch=1 n=d4 v=80
356160 On ch=1 n=d3 v=93
356160 On ch=1 n=d4 v=93
356640 Off ch=1 n=d3 v=80
356640 On ch=1 n=f3 v=78
357120 Off ch=1 n=d4 v=80
357120 Off ch=1 n=f3 v=80
357120 On ch=1 n=a2 v=93
357120 On ch=1 n=a3 v=93
357840 Off ch=1 n=a2 v=80
357840 On ch=1 n=b2 v=78
358080 Off ch=1 n=a3 v=80
358080 Off ch=1 n=b2 v=80
358080 On ch=1 n=c3 v=93
358080 On ch=1 n=a3 v=93
358560 Off ch=1 n=c3 v=80
358560 On ch=1 n=a2 v=78
359040 Off ch=1 n=a3 v=80
359040 Off ch=1 n=a2 v=80
359040 On ch=1 n=f3 v=93
359040 On ch=1 n=f2 v=93
359520 Off ch=1 n=f2 v=80
359520 Off ch=1 n=f3 v=80
360000 On ch=1 n=a4 v=65
360120 Off ch=1 n=a4 v=80
360120 On ch=1 n=d4 v=65
360240 Off ch=1 n=d4 v=80
360240 On ch=1 n=f4 v=65
360360 Off ch=1 n=f4 v=80
360360 On ch=1 n=g#4 v=65
360480 Off ch=1 n=g#4 v=80
360480 On ch=1 n=b4 v=65
360600 Off ch=1 n=b4 v=80
360600 On ch=1 n=d#4 v=65
360720 Off ch=1 n=d#4 v=80
360720 On ch=1 n=f4 v=65
360840 Off ch=1 n=f4 v=80
360840 On ch=1 n=a4 v=65
360960 Off ch=1 n=a4 v=80
360960 On ch=1 n=c5 v=71
361080 Off ch=1 n=c5 v=80
361080 On ch=1 n=d4 v=71
361200 Off ch=1 n=d4 v=80
361200 On ch=1 n=f4 v=71
361320 Off ch=1 n=f4 v=80
361320 On ch=1 n=a#4 v=71
361440 Off ch=1 n=a#4 v=80
361440 On ch=1 n=d5 v=77
361560 Off ch=1 n=d5 v=80
361560 On ch=1 n=c4 v=77
361680 Off ch=1 n=c4 v=80
361680 On ch=1 n=f4 v=77
361800 Off ch=1 n=f4 v=80
361800 On ch=1 n=a4 v=77
361920 Off ch=1 n=a4 v=80
361920 On ch=1 n=d#5 v=83
362040 Off ch=1 n=d#5 v=80
362040 On ch=1 n=a#3 v=83
362160 Off ch=1 n=a#3 v=80
362160 On ch=1 n=e4 v=83
362280 Off ch=1 n=e4 v=80
362280 On ch=1 n=g4 v=83
362400 Off ch=1 n=g4 v=80
362400 On ch=1 n=e5 v=89
362520 Off ch=1 n=e5 v=80
362640 On ch=1 n=f3 v=126
362760 On ch=1 n=c4 v=89
362880 On ch=1 n=a4 v=89
363120 Off ch=1 n=a4 v=80
363120 Off ch=1 n=c4 v=80
363120 Off ch=1 n=f3 v=80
363480 On ch=1 n=c5 v=65
363600 Off ch=1 n=c5 v=80
363600 On ch=1 n=d#5 v=65
363720 Off ch=1 n=d#5 v=80
363720 On ch=1 n=f5 v=65
363840 Off ch=1 n=f5 v=80
363840 On ch=1 n=a5 v=65
363960 Off ch=1 n=a5 v=80
363960 On ch=1 n=d5 v=65
364080 Off ch=1 n=d5 v=80
364080 On ch=1 n=f5 v=65
364200 Off ch=1 n=f5 v=80
364200 On ch=1 n=g#5 v=65
364320 Off ch=1 n=g#5 v=80
364320 On ch=1 n=b5 v=65
364440 Off ch=1 n=b5 v=80
364440 On ch=1 n=d#5 v=65
364560 Off ch=1 n=d#5 v=80
364560 On ch=1 n=f5 v=65
364680 Off ch=1 n=f5 v=80
364680 On ch=1 n=a5 v=65
364800 Off ch=1 n=a5 v=80
364800 On ch=1 n=c6 v=71
364920 Off ch=1 n=c6 v=80
364920 On ch=1 n=d5 v=71
365040 Off ch=1 n=d5 v=80
365040 On ch=1 n=f5 v=71
365160 Off ch=1 n=f5 v=80
365160 On ch=1 n=a#5 v=71
365280 Off ch=1 n=a#5 v=80
365280 On ch=1 n=d6 v=77
365400 Off ch=1 n=d6 v=80
365400 On ch=1 n=c5 v=77
365520 Off ch=1 n=c5 v=80
365520 On ch=1 n=f5 v=77
365640 Off ch=1 n=f5 v=80
365640 On ch=1 n=a5 v=77
365760 Off ch=1 n=a5 v=80
365760 On ch=1 n=d#6 v=83
365880 Off ch=1 n=d#6 v=80
365880 On ch=1 n=a#4 v=83
366000 Off ch=1 n=a#4 v=80
366000 On ch=1 n=e5 v=83
366120 Off ch=1 n=e5 v=80
366120 On ch=1 n=g5 v=83
366240 Off ch=1 n=g5 v=80
366240 On ch=1 n=e6 v=89
366360 Off ch=1 n=e6 v=80
366480 On ch=1 n=f4 v=126
366600 On ch=1 n=c5 v=89
366720 On ch=1 n=a5 v=89
366960 Off ch=1 n=a5 v=80
366960 Off ch=1 n=c5 v=80
366960 Off ch=1 n=f4 v=80
367680 On ch=1 n=c5 v=117
367680 On ch=1 n=a5 v=117
367680 On ch=1 n=f4 v=117
367920 Off ch=1 n=f4 v=80
367920 Off ch=1 n=a5 v=80
367920 Off ch=1 n=c5 v=80
368160 On ch=1 n=f4 v=117
368160 On ch=1 n=a#5 v=117
368160 On ch=1 n=c#5 v=117
368400 Off ch=1 n=c#5 v=80
368400 Off ch=1 n=a#5 v=80
368400 Off ch=1 n=f4 v=80
368520 On ch=1 n=f4 v=102
368580 Off ch=1 n=f4 v=80
368580 On ch=1 n=c5 v=102
368640 On ch=1 n=a5 v=117
369360 Off ch=1 n=a5 v=80
369360 Off ch=1 n=c5 v=80
369360 On ch=1 n=c5 v=117
369600 Off ch=1 n=c5 v=80
369600 On ch=1 n=c5 v=117
370080 Off ch=1 n=c5 v=80
370080 On ch=1 n=c#5 v=117
370560 Off ch=1 n=c#5 v=80
370560 On ch=1 n=f4 v=117
370560 On ch=1 n=c5 v=117
370800 Off ch=1 n=c5 v=80
370800 Off ch=1 n=f4 v=80
371520 On ch=1 n=c4 v=117
371520 On ch=1 n=a4 v=117
371520 On ch=1 n=f3 v=117
371760 Off ch=1 n=f3 v=80
371760 Off ch=1 n=a4 v=80
371760 Off ch=1 n=c4 v=80
372000 On ch=1 n=f3 v=117
372000 On ch=1 n=a#4 v=117
372000 On ch=1 n=c#4 v=117
372240 Off ch=1 n=c#4 v=80
372240 Off ch=1 n=a#4 v=80
372240 Off ch=1 n=f3 v=80
372360 On ch=1 n=f3 v=102
372420 Off ch=1 n=f3 v=80
372420 On ch=1 n=c4 v=102
372480 On ch=1 n=a4 v=117
373200 Off ch=1 n=a4 v=80
373200 Off ch=1 n=c4 v=80
373200 On ch=1 n=c4 v=117
373440 Off ch=1 n=c4 v=80
373440 On ch=1 n=c4 v=117
373920 Off ch=1 n=c4 v=80
373920 On ch=1 n=c#4 v=117
374400 Off ch=1 n=c#4 v=80
374400 On ch=1 n=c4 v=117
374400 On ch=1 n=f3 v=117
374880 Off ch=1 n=f3 v=80
374880 Off ch=1 n=c4 v=80
375360 On ch=1 n=d#5 v=117
375360 On ch=1 n=c5 v=117
375840 Off ch=1 n=c5 v=80
375840 Off ch=1 n=d#5 v=80
375840 On ch=1 n=d#5 v=117
375840 On ch=1 n=c5 v=117
376320 Off ch=1 n=c5 v=80
376320 Off ch=1 n=d#5 v=80
376320 On ch=1 n=d#5 v=117
376320 On ch=1 n=c5 v=117
377040 Off ch=1 n=c5 v=80
377040 Off ch=1 n=d#5 v=80
377040 On ch=1 n=d#5 v=117
377040 On ch=1 n=c5 v=117
377280 Off ch=1 n=c5 v=80
377280 Off ch=1 n=d#5 v=80
377280 On ch=1 n=c5 v=125
377280 On ch=1 n=d#5 v=125
377760 Off ch=1 n=d#5 v=80
377760 Off ch=1 n=c5 v=80
377760 On ch=1 n=c5 v=127
377760 On ch=1 n=d#5 v=127
378240 Off ch=1 n=d#5 v=80
378240 Off ch=1 n=c5 v=80
378240 On ch=1 n=c5 v=126
378240 On ch=1 n=d#5 v=126
378480 Off ch=1 n=d#5 v=80
378480 Off ch=1 n=c5 v=80
378480 On ch=1 n=a#2 v=102
378480 On ch=1 n=a#3 v=102
378600 Off ch=1 n=a#3 v=80
378600 Off ch=1 n=a#2 v=80
378720 On ch=1 n=g#4 v=127
378720 On ch=1 n=a#4 v=127
378720 On ch=1 n=d5 v=127
378720 On ch=1 n=f5 v=127
379560 Off ch=1 n=f5 v=80
379560 Off ch=1 n=d5 v=80
379560 Off ch=1 n=a#4 v=80
379560 Off ch=1 n=g#4 v=80
379560 On ch=1 n=d5 v=102
379560 On ch=1 n=a#4 v=102
379560 On ch=1 n=g#4 v=102
379680 Off ch=1 n=g#4 v=80
379680 Off ch=1 n=a#4 v=80
379680 Off ch=1 n=d5 v=80
379680 On ch=1 n=g4 v=102
379680 On ch=1 n=a#4 v=102
379680 On ch=1 n=d#5 v=102
379800 Off ch=1 n=d#5 v=80
379800 Off ch=1 n=a#4 v=80
379800 Off ch=1 n=g4 v=80
379920 On ch=1 n=f#4 v=102
379920 On ch=1 n=a#4 v=102
379920 On ch=1 n=d#5 v=102
380040 Off ch=1 n=d#5 v=80
380040 Off ch=1 n=a#4 v=80
380040 Off ch=1 n=f#4 v=80
380160 On ch=1 n=f4 v=102
380160 On ch=1 n=a#4 v=102
380160 On ch=1 n=d5 v=102
380280 Off ch=1 n=d5 v=80
380280 Off ch=1 n=a#4 v=80
380280 Off ch=1 n=f4 v=80
380640 On ch=1 n=c5 v=102
380640 On ch=1 n=a#4 v=102
380640 On ch=1 n=e4 v=102
380760 Off ch=1 n=e4 v=80
380760 Off ch=1 n=a#4 v=80
380760 Off ch=1 n=c5 v=80
381120 On ch=1 n=f4 v=102
381120 On ch=1 n=a#4 v=102
381120 On ch=1 n=d5 v=102
381240 Off ch=1 n=d5 v=80
381240 Off ch=1 n=a#4 v=80
381240 Off ch=1 n=f4 v=80
381600 On ch=1 n=f4 v=102
381600 On ch=1 n=f3 v=102
381720 Off ch=1 n=f3 v=80
381720 Off ch=1 n=f4 v=80
382080 On ch=1 n=f3 v=102
382080 On ch=1 n=f2 v=102
382560 Off ch=1 n=f2 v=80
382560 Off ch=1 n=f3 v=80
383040 On ch=1 n=d#5 v=117
383040 On ch=1 n=g5 v=117
383040 On ch=1 n=c5 v=117
383520 Off ch=1 n=c5 v=80
383520 Off ch=1 n=g5 v=80
383520 Off ch=1 n=d#5 v=80
383520 On ch=1 n=d#5 v=117
383520 On ch=1 n=g5 v=117
383520 On ch=1 n=c5 v=117
384000 Off ch=1 n=c5 v=80
384000 Off ch=1 n=g5 v=80
384000 Off ch=1 n=d#5 v=80
384000 On ch=1 n=d#5 v=117
384000 On ch=1 n=g5 v=117
384000 On ch=1 n=c5 v=117
384720 Off ch=1 n=c5 v=80
384720 Off ch=1 n=g5 v=80
384720 Off ch=1 n=d#5 v=80
384720 On ch=1 n=d#5 v=117
384720 On ch=1 n=g5 v=117
384720 On ch=1 n=c5 v=117
384960 Off ch=1 n=c5 v=80
384960 Off ch=1 n=g5 v=80
384960 Off ch=1 n=d#5 v=80
384960 On ch=1 n=d#5 v=125
384960 On ch=1 n=g5 v=125
384960 On ch=1 n=c5 v=125
385440 Off ch=1 n=c5 v=80
385440 Off ch=1 n=g5 v=80
385440 Off ch=1 n=d#5 v=80
385440 On ch=1 n=d#5 v=127
385440 On ch=1 n=g5 v=127
385440 On ch=1 n=c5 v=127
385920 Off ch=1 n=c5 v=80
385920 Off ch=1 n=g5 v=80
385920 Off ch=1 n=d#5 v=80
385920 On ch=1 n=d#5 v=126
385920 On ch=1 n=g5 v=126
385920 On ch=1 n=c5 v=126
386160 Off ch=1 n=c5 v=80
386160 Off ch=1 n=g5 v=80
386160 Off ch=1 n=d#5 v=80
386160 On ch=1 n=a#2 v=102
386160 On ch=1 n=a#3 v=102
386280 Off ch=1 n=a#3 v=80
386280 Off ch=1 n=a#2 v=80
386400 On ch=1 n=f5 v=127
386400 On ch=1 n=d5 v=127
386400 On ch=1 n=a#4 v=127
386400 On ch=1 n=g#4 v=127
387120 Off ch=1 n=g#4 v=80
387120 Off ch=1 n=a#4 v=80
387120 Off ch=1 n=d5 v=80
387120 Off ch=1 n=f5 v=80
387124 On ch=1 n=g#4 v=102
387124 On ch=1 n=a#4 v=102
387124 On ch=1 n=d5 v=102
387244 Off ch=1 n=d5 v=80
387244 Off ch=1 n=a#4 v=80
387244 Off ch=1 n=g#4 v=80
387360 On ch=1 n=g4 v=102
387360 On ch=1 n=a#4 v=102
387360 On ch=1 n=d#5 v=102
387480 Off ch=1 n=d#5 v=80
387480 Off ch=1 n=a#4 v=80
387480 Off ch=1 n=g4 v=80
387600 On ch=1 n=f#4 v=102
387600 On ch=1 n=a#4 v=102
387600 On ch=1 n=d#5 v=102
387720 Off ch=1 n=d#5 v=80
387720 Off ch=1 n=a#4 v=80
387720 Off ch=1 n=f#4 v=80
387840 On ch=1 n=f4 v=102
387840 On ch=1 n=a#4 v=102
387840 On ch=1 n=d5 v=102
387960 Off ch=1 n=d5 v=80
387960 Off ch=1 n=a#4 v=80
387960 Off ch=1 n=f4 v=80
388320 On ch=1 n=c5 v=102
388320 On ch=1 n=a#4 v=102
388320 On ch=1 n=e4 v=102
388440 Off ch=1 n=e4 v=80
388440 Off ch=1 n=a#4 v=80
388440 Off ch=1 n=c5 v=80
388800 On ch=1 n=f4 v=102
388800 On ch=1 n=a#4 v=102
388800 On ch=1 n=d5 v=102
388920 Off ch=1 n=d5 v=80
388920 Off ch=1 n=a#4 v=80
388920 Off ch=1 n=f4 v=80
389280 On ch=1 n=f4 v=102
389280 On ch=1 n=f3 v=102
389400 Off ch=1 n=f3 v=80
389400 Off ch=1 n=f4 v=80
389760 On ch=1 n=a#3 v=127
389760 On ch=1 n=a#2 v=127
390480 Off ch=1 n=a#2 v=80
390480 Off ch=1 n=a#3 v=80
390480 On ch=1 n=b3 v=114
390480 On ch=1 n=b2 v=114
390600 Off ch=1 n=b2 v=80
390600 Off ch=1 n=b3 v=80
390720 On ch=1 n=c3 v=114
390720 On ch=1 n=c4 v=114
390840 Off ch=1 n=c4 v=80
390840 Off ch=1 n=c3 v=80
390960 On ch=1 n=d4 v=114
390960 On ch=1 n=d3 v=114
391080 Off ch=1 n=d3 v=80
391080 Off ch=1 n=d4 v=80
391200 On ch=1 n=d#3 v=114
391200 On ch=1 n=d#4 v=114
391320 Off ch=1 n=d#4 v=80
391320 Off ch=1 n=d#3 v=80
391440 On ch=1 n=e4 v=114
391440 On ch=1 n=e3 v=114
391560 Off ch=1 n=e3 v=80
391560 Off ch=1 n=e4 v=80
391680 On ch=1 n=f3 v=114
391680 On ch=1 n=f4 v=114
391800 Off ch=1 n=f4 v=80
391800 Off ch=1 n=f3 v=80
391920 On ch=1 n=f#4 v=114
391920 On ch=1 n=f#3 v=114
392040 Off ch=1 n=f#3 v=80
392040 Off ch=1 n=f#4 v=80
392160 On ch=1 n=g3 v=114
392160 On ch=1 n=g4 v=114
392280 Off ch=1 n=g4 v=80
392280 Off ch=1 n=g3 v=80
392400 On ch=1 n=a4 v=114
392400 On ch=1 n=a3 v=114
392520 Off ch=1 n=a3 v=80
392520 Off ch=1 n=a4 v=80
392640 On ch=1 n=a#3 v=114
392640 On ch=1 n=a#4 v=114
392760 Off ch=1 n=a#4 v=80
392760 Off ch=1 n=a#3 v=80
392880 On ch=1 n=b4 v=114
392880 On ch=1 n=b3 v=114
393000 Off ch=1 n=b3 v=80
393000 Off ch=1 n=b4 v=80
393120 On ch=1 n=c4 v=114
393120 On ch=1 n=c5 v=114
393240 Off ch=1 n=c5 v=80
393240 Off ch=1 n=c4 v=80
393360 On ch=1 n=d5 v=114
393360 On ch=1 n=d4 v=114
393480 Off ch=1 n=d4 v=80
393480 Off ch=1 n=d5 v=80
393600 On ch=1 n=d#5 v=114
393600 On ch=1 n=d#4 v=114
393720 Off ch=1 n=d#4 v=80
393720 Off ch=1 n=d#5 v=80
393840 On ch=1 n=c5 v=114
393840 On ch=1 n=c4 v=114
394080 Off ch=1 n=c4 v=80
394080 Off ch=1 n=c5 v=80
394320 On ch=1 n=d4 v=114
394320 On ch=1 n=d5 v=114
394560 Off ch=1 n=d5 v=80
394560 Off ch=1 n=d4 v=80
394800 On ch=1 n=d#5 v=114
394800 On ch=1 n=d#4 v=114
395040 Off ch=1 n=d#4 v=80
395040 Off ch=1 n=d#5 v=80
395280 On ch=1 n=f#4 v=114
395280 On ch=1 n=f#5 v=114
395520 Off ch=1 n=f#5 v=80
395520 Off ch=1 n=f#4 v=80
395760 On ch=1 n=g5 v=114
395760 On ch=1 n=g4 v=114
396000 Off ch=1 n=g4 v=80
396000 Off ch=1 n=g5 v=80
396240 On ch=1 n=f#4 v=114
396240 On ch=1 n=a#4 v=114
396240 On ch=1 n=d#5 v=114
396240 On ch=1 n=f#5 v=114
396480 Off ch=1 n=f#5 v=80
396480 Off ch=1 n=d#5 v=80
396480 Off ch=1 n=a#4 v=80
396480 Off ch=1 n=f#4 v=80
396480 On ch=1 n=f4 v=102
396480 On ch=1 n=a#4 v=102
396480 On ch=1 n=d5 v=102
396480 On ch=1 n=f5 v=102
396960 Off ch=1 n=f5 v=80
396960 Off ch=1 n=d5 v=80
396960 Off ch=1 n=a#4 v=80
396960 Off ch=1 n=f4 v=80
396960 On ch=1 n=f4 v=102
396960 On ch=1 n=a4 v=102
396960 On ch=1 n=d#5 v=102
396960 On ch=1 n=f5 v=102
397440 Off ch=1 n=f5 v=80
397440 Off ch=1 n=d#5 v=80
397440 Off ch=1 n=a4 v=80
397440 Off ch=1 n=f4 v=80
397440 On ch=1 n=a#3 v=102
397440 On ch=1 n=a#2 v=102
397920 Off ch=1 n=a#2 v=80
397920 Off ch=1 n=a#3 v=80
398880 On ch=1 n=a5 v=117
399120 Off ch=1 n=a5 v=80
399360 On ch=1 n=g5 v=117
400080 Off ch=1 n=g5 v=80
400080 On ch=1 n=f5 v=117
400320 Off ch=1 n=f5 v=80
400320 On ch=1 n=f5 v=117
400800 Off ch=1 n=f5 v=80
400800 On ch=1 n=f5 v=117
401280 Off ch=1 n=f5 v=80
401280 On ch=1 n=f5 v=117
401280 On ch=1 n=a#4 v=117
401760 Off ch=1 n=a#4 v=80
401760 Off ch=1 n=f5 v=80
402720 On ch=1 n=a4 v=117
402960 Off ch=1 n=a4 v=80
403200 On ch=1 n=g4 v=117
403920 Off ch=1 n=g4 v=80
403920 On ch=1 n=f4 v=117
404160 Off ch=1 n=f4 v=80
404160 On ch=1 n=f4 v=117
404640 Off ch=1 n=f4 v=80
404640 On ch=1 n=f4 v=117
405120 Off ch=1 n=f4 v=80
405120 On ch=1 n=f4 v=117
405120 On ch=1 n=a#3 v=117
405600 Off ch=1 n=a#3 v=80
405600 Off ch=1 n=f4 v=80
406560 On ch=1 n=a3 v=117
406560 On ch=1 n=a2 v=117
406800 Off ch=1 n=a2 v=80
406800 Off ch=1 n=a3 v=80
407040 On ch=1 n=g3 v=117
407040 On ch=1 n=g2 v=117
407760 Off ch=1 n=g2 v=80
407760 Off ch=1 n=g3 v=80
407760 On ch=1 n=f3 v=117
407760 On ch=1 n=f2 v=117
408000 Off ch=1 n=f2 v=80
408000 Off ch=1 n=f3 v=80
408000 On ch=1 n=f3 v=117
408000 On ch=1 n=f2 v=117
408480 Off ch=1 n=f2 v=80
408480 Off ch=1 n=f3 v=80
408480 On ch=1 n=f2 v=117
408480 On ch=1 n=f3 v=117
408960 Off ch=1 n=f3 v=80
408960 Off ch=1 n=f2 v=80
408960 On ch=1 n=a#3 v=117
408960 On ch=1 n=a#2 v=117
409440 Off ch=1 n=a#2 v=80
409440 Off ch=1 n=a#3 v=80
410880 On ch=1 n=d4 v=102
410880 On ch=1 n=f4 v=102
410880 On ch=1 n=a4 v=102
411000 Off ch=1 n=a4 v=80
411000 Off ch=1 n=f4 v=80
411000 Off ch=1 n=d4 v=80
411360 On ch=1 n=a4 v=102
411360 On ch=1 n=e4 v=102
411360 On ch=1 n=c#5 v=102
411480 Off ch=1 n=c#5 v=80
411480 Off ch=1 n=e4 v=80
411480 Off ch=1 n=a4 v=80
412800 On ch=1 n=a2 v=102
412800 On ch=1 n=a3 v=102
412920 Off ch=1 n=a3 v=80
412920 Off ch=1 n=a2 v=80
413280 On ch=1 n=c#3 v=102
413280 On ch=1 n=c#4 v=102
413400 Off ch=1 n=c#4 v=80
413400 Off ch=1 n=c#3 v=80
413760 On ch=1 n=d4 v=102
413760 On ch=1 n=d3 v=102
414240 Off ch=1 n=d3 v=80
414240 Off ch=1 n=d4 v=80
414600 On ch=1 n=d3 v=102
414600 On ch=1 n=d4 v=102
414720 Off ch=1 n=d4 v=80
414720 Off ch=1 n=d3 v=80
414720 On ch=1 n=d3 v=102
414720 On ch=1 n=d4 v=102
414840 Off ch=1 n=d4 v=80
414840 Off ch=1 n=d3 v=80
415200 On ch=1 n=e3 v=102
415200 On ch=1 n=e4 v=102
415320 Off ch=1 n=e4 v=80
415320 Off ch=1 n=e3 v=80
415680 On ch=1 n=f3 v=102
415680 On ch=1 n=f4 v=102
416160 Off ch=1 n=f4 v=80
416160 Off ch=1 n=f3 v=80
416520 On ch=1 n=f3 v=102
416520 On ch=1 n=f4 v=102
416640 Off ch=1 n=f4 v=80
416640 Off ch=1 n=f3 v=80
416640 On ch=1 n=f3 v=102
416640 On ch=1 n=f4 v=102
416760 Off ch=1 n=f4 v=80
416760 Off ch=1 n=f3 v=80
417120 On ch=1 n=g3 v=102
417120 On ch=1 n=g4 v=102
417240 Off ch=1 n=g4 v=80
417240 Off ch=1 n=g3 v=80
417600 On ch=1 n=a4 v=102
417600 On ch=1 n=a3 v=102
418080 Off ch=1 n=a3 v=80
418080 Off ch=1 n=a4 v=80
418440 On ch=1 n=a4 v=102
418440 On ch=1 n=a3 v=102
418560 Off ch=1 n=a3 v=80
418560 Off ch=1 n=a4 v=80
418560 On ch=1 n=a4 v=102
418560 On ch=1 n=a3 v=102
418680 Off ch=1 n=a3 v=80
418680 Off ch=1 n=a4 v=80
419040 On ch=1 n=a#4 v=102
419040 On ch=1 n=a#3 v=102
419160 Off ch=1 n=a#3 v=80
419160 Off ch=1 n=a#4 v=80
419520 On ch=1 n=g4 v=117
419520 On ch=1 n=g3 v=117
420960 Off ch=1 n=g3 v=80
420960 Off ch=1 n=g4 v=80
420960 On ch=1 n=a4 v=102
420960 On ch=1 n=a3 v=102
421440 Off ch=1 n=a3 v=80
421440 Off ch=1 n=a4 v=80
421440 On ch=1 n=a#3 v=102
421440 On ch=1 n=a#4 v=102
421920 Off ch=1 n=a#4 v=80
421920 Off ch=1 n=a#3 v=80
422280 On ch=1 n=a#4 v=102
422280 On ch=1 n=a#3 v=102
422400 Off ch=1 n=a#3 v=80
422400 Off ch=1 n=a#4 v=80
422400 On ch=1 n=a#4 v=102
422400 On ch=1 n=a#3 v=102
422880 Off ch=1 n=a#3 v=80
422880 Off ch=1 n=a#4 v=80
422880 On ch=1 n=c4 v=102
422880 On ch=1 n=c5 v=102
423000 Off ch=1 n=c5 v=80
423000 Off ch=1 n=c4 v=80
423360 On ch=1 n=a3 v=117
423360 On ch=1 n=a4 v=117
424800 Off ch=1 n=a4 v=80
424800 Off ch=1 n=a3 v=80
424800 On ch=1 n=b4 v=102
424800 On ch=1 n=b3 v=102
425280 Off ch=1 n=b3 v=80
425280 Off ch=1 n=b4 v=80
425280 On ch=1 n=c4 v=102
425280 On ch=1 n=c5 v=102
425760 Off ch=1 n=c5 v=80
425760 Off ch=1 n=c4 v=80
426120 On ch=1 n=c5 v=102
426120 On ch=1 n=c4 v=102
426240 Off ch=1 n=c4 v=80
426240 Off ch=1 n=c5 v=80
426240 On ch=1 n=c5 v=102
426240 On ch=1 n=c4 v=102
426720 Off ch=1 n=c4 v=80
426720 Off ch=1 n=c5 v=80
426720 On ch=1 n=d4 v=102
426720 On ch=1 n=d5 v=102
426840 Off ch=1 n=d5 v=80
426840 Off ch=1 n=d4 v=80
427200 On ch=1 n=b4 v=117
427200 On ch=1 n=b3 v=117
428640 Off ch=1 n=b3 v=80
428640 Off ch=1 n=b4 v=80
428640 On ch=1 n=c4 v=102
428640 On ch=1 n=c5 v=102
429120 Off ch=1 n=c5 v=80
429120 Off ch=1 n=c4 v=80
429120 On ch=1 n=d4 v=117
429120 On ch=1 n=d5 v=117
429960 Off ch=1 n=d5 v=80
429960 Off ch=1 n=d4 v=80
429960 On ch=1 n=d4 v=102
429960 On ch=1 n=d5 v=102
430080 Off ch=1 n=d5 v=80
430080 Off ch=1 n=d4 v=80
430080 On ch=1 n=d4 v=102
430080 On ch=1 n=d5 v=102
430560 Off ch=1 n=d5 v=80
430560 Off ch=1 n=d4 v=80
430560 On ch=1 n=e4 v=102
430560 On ch=1 n=e5 v=102
430680 Off ch=1 n=e5 v=80
430680 Off ch=1 n=e4 v=80
431040 On ch=1 n=b3 v=117
431040 On ch=1 n=b4 v=117
431880 Off ch=1 n=b4 v=80
431880 Off ch=1 n=b3 v=80
431880 On ch=1 n=b3 v=102
431880 On ch=1 n=b4 v=102
432000 Off ch=1 n=b4 v=80
432000 Off ch=1 n=b3 v=80
432000 On ch=1 n=b3 v=102
432000 On ch=1 n=b4 v=102
432480 Off ch=1 n=b4 v=80
432480 Off ch=1 n=b3 v=80
432480 On ch=1 n=c5 v=102
432480 On ch=1 n=c4 v=102
432960 Off ch=1 n=c4 v=80
432960 Off ch=1 n=c5 v=80
432960 On ch=1 n=g#3 v=117
432960 On ch=1 n=g#4 v=117
433800 Off ch=1 n=g#4 v=80
433800 Off ch=1 n=g#3 v=80
433800 On ch=1 n=a3 v=102
433800 On ch=1 n=a4 v=102
433920 Off ch=1 n=a4 v=80
433920 Off ch=1 n=a3 v=80
433920 On ch=1 n=a3 v=102
433920 On ch=1 n=a4 v=102
434400 Off ch=1 n=a4 v=80
434400 Off ch=1 n=a3 v=80
435720 On ch=1 n=e3 v=102
435720 On ch=1 n=e4 v=102
435840 Off ch=1 n=e4 v=80
435840 Off ch=1 n=e3 v=80
435840 On ch=1 n=e4 v=102
435840 On ch=1 n=e3 v=102
436320 Off ch=1 n=e3 v=80
436320 Off ch=1 n=e4 v=80
436320 On ch=1 n=g#4 v=102
436320 On ch=1 n=g#3 v=102
436800 Off ch=1 n=g#3 v=80
436800 Off ch=1 n=g#4 v=80
436800 On ch=1 n=a3 v=102
436800 On ch=1 n=a4 v=102
437280 Off ch=1 n=a4 v=80
437280 Off ch=1 n=a3 v=80
437640 On ch=1 n=a3 v=105
437640 On ch=1 n=a4 v=105
437760 Off ch=1 n=a4 v=80
437760 Off ch=1 n=a3 v=80
437760 On ch=1 n=a3 v=108
437760 On ch=1 n=a4 v=108
438240 Off ch=1 n=a4 v=80
438240 Off ch=1 n=a3 v=80
438240 On ch=1 n=b4 v=111
438240 On ch=1 n=b3 v=111
438720 Off ch=1 n=b3 v=80
438720 Off ch=1 n=b4 v=80
438720 On ch=1 n=c4 v=114
438720 On ch=1 n=c5 v=114
439200 Off ch=1 n=c5 v=80
439200 Off ch=1 n=c4 v=80
439560 On ch=1 n=c5 v=114
439560 On ch=1 n=c4 v=114
439680 Off ch=1 n=c4 v=80
439680 Off ch=1 n=c5 v=80
439680 On ch=1 n=c5 v=114
439680 On ch=1 n=c4 v=114
440160 Off ch=1 n=c4 v=80
440160 Off ch=1 n=c5 v=80
440160 On ch=1 n=d5 v=114
440160 On ch=1 n=d4 v=114
440640 Off ch=1 n=d4 v=80
440640 Off ch=1 n=d5 v=80
440640 On ch=1 n=e5 v=114
440640 On ch=1 n=e4 v=114
441120 Off ch=1 n=e4 v=80
441120 Off ch=1 n=e5 v=80
441480 On ch=1 n=e5 v=114
441480 On ch=1 n=e4 v=114
441600 Off ch=1 n=e4 v=80
441600 Off ch=1 n=e5 v=80
441600 On ch=1 n=e4 v=114
441600 On ch=1 n=e5 v=114
441720 Off ch=1 n=e5 v=80
441720 Off ch=1 n=e4 v=80
442080 On ch=1 n=f5 v=114
442080 On ch=1 n=f4 v=114
442200 Off ch=1 n=f4 v=80
442200 Off ch=1 n=f5 v=80
442560 On ch=1 n=d5 v=127
442560 On ch=1 n=d4 v=127
444000 Off ch=1 n=d4 v=80
444000 Off ch=1 n=d5 v=80
444000 On ch=1 n=e5 v=127
444000 On ch=1 n=e4 v=127
444480 Off ch=1 n=e4 v=80
444480 Off ch=1 n=e5 v=80
444480 On ch=1 n=f4 v=114
444480 On ch=1 n=f5 v=114
444960 Off ch=1 n=f5 v=80
444960 Off ch=1 n=f4 v=80
445320 On ch=1 n=f5 v=114
445320 On ch=1 n=f4 v=114
445440 Off ch=1 n=f4 v=80
445440 Off ch=1 n=f5 v=80
445440 On ch=1 n=f5 v=114
445440 On ch=1 n=f4 v=114
445920 Off ch=1 n=f4 v=80
445920 Off ch=1 n=f5 v=80
445920 On ch=1 n=g4 v=114
445920 On ch=1 n=g5 v=114
446040 Off ch=1 n=g5 v=80
446040 Off ch=1 n=g4 v=80
446400 On ch=1 n=e4 v=127
446400 On ch=1 n=e5 v=127
447840 Off ch=1 n=e5 v=80
447840 Off ch=1 n=e4 v=80
447840 On ch=1 n=f#4 v=127
447840 On ch=1 n=f#5 v=127
448320 Off ch=1 n=f#5 v=80
448320 Off ch=1 n=f#4 v=80
448320 On ch=1 n=g5 v=114
448320 On ch=1 n=g4 v=114
448800 Off ch=1 n=g4 v=80
448800 Off ch=1 n=g5 v=80
449160 On ch=1 n=g5 v=114
449160 On ch=1 n=g4 v=114
449280 Off ch=1 n=g4 v=80
449280 Off ch=1 n=g5 v=80
449280 On ch=1 n=g5 v=114
449280 On ch=1 n=g4 v=114
449760 Off ch=1 n=g4 v=80
449760 Off ch=1 n=g5 v=80
449760 On ch=1 n=a4 v=114
449760 On ch=1 n=a5 v=114
449880 Off ch=1 n=a5 v=80
449880 Off ch=1 n=a4 v=80
450240 On ch=1 n=f#5 v=127
450240 On ch=1 n=f#4 v=127
451680 Off ch=1 n=f#4 v=80
451680 Off ch=1 n=f#5 v=80
451680 On ch=1 n=g5 v=127
451680 On ch=1 n=g4 v=127
452160 Off ch=1 n=g4 v=80
452160 Off ch=1 n=g5 v=80
452160 On ch=1 n=a5 v=114
452160 On ch=1 n=a4 v=114
453000 Off ch=1 n=a4 v=80
453000 Off ch=1 n=a5 v=80
453000 On ch=1 n=a4 v=114
453000 On ch=1 n=a5 v=114
453120 Off ch=1 n=a5 v=80
453120 Off ch=1 n=a4 v=80
453120 On ch=1 n=a4 v=114
453120 On ch=1 n=a5 v=114
453600 Off ch=1 n=a5 v=80
453600 Off ch=1 n=a4 v=80
453600 On ch=1 n=b5 v=102
453600 On ch=1 n=b4 v=102
453720 Off ch=1 n=b4 v=80
453720 Off ch=1 n=b5 v=80
454080 On ch=1 n=f#5 v=102
454080 On ch=1 n=f#4 v=102
454920 Off ch=1 n=f#4 v=80
454920 Off ch=1 n=f#5 v=80
454920 On ch=1 n=f#4 v=102
454920 On ch=1 n=f#5 v=102
455040 Off ch=1 n=f#5 v=80
455040 Off ch=1 n=f#4 v=80
455040 On ch=1 n=f#4 v=102
455040 On ch=1 n=f#5 v=102
455520 Off ch=1 n=f#5 v=80
455520 Off ch=1 n=f#4 v=80
455520 On ch=1 n=g4 v=102
455520 On ch=1 n=g5 v=102
456000 Off ch=1 n=g5 v=80
456000 Off ch=1 n=g4 v=80
456000 On ch=1 n=d#5 v=102
456000 On ch=1 n=d#4 v=102
456840 Off ch=1 n=d#4 v=80
456840 Off ch=1 n=d#5 v=80
456840 On ch=1 n=e5 v=102
456840 On ch=1 n=e4 v=102
456960 Off ch=1 n=e4 v=80
456960 Off ch=1 n=e5 v=80
456960 On ch=1 n=e4 v=102
456960 On ch=1 n=e5 v=102
457440 Off ch=1 n=e5 v=80
457440 Off ch=1 n=e4 v=80
458640 On ch=1 n=b4 v=102
458640 On ch=1 n=b3 v=102
458880 Off ch=1 n=b3 v=80
458880 Off ch=1 n=b4 v=80
458880 On ch=1 n=b4 v=110
458880 On ch=1 n=b3 v=110
459360 Off ch=1 n=b3 v=80
459360 Off ch=1 n=b4 v=80
459360 On ch=1 n=d#4 v=118
459360 On ch=1 n=b4 v=118
459840 Off ch=1 n=b4 v=80
459840 Off ch=1 n=d#4 v=80
459840 On ch=1 n=b4 v=127
459840 On ch=1 n=e4 v=127
460560 Off ch=1 n=e4 v=80
460560 Off ch=1 n=b4 v=80
460560 On ch=1 n=b4 v=102
460560 On ch=1 n=e4 v=102
460800 Off ch=1 n=e4 v=80
460800 Off ch=1 n=b4 v=80
460800 On ch=1 n=b4 v=102
460800 On ch=1 n=e4 v=102
461280 Off ch=1 n=e4 v=80
461280 Off ch=1 n=b4 v=80
461280 On ch=1 n=a4 v=102
461280 On ch=1 n=g4 v=102
461760 Off ch=1 n=g4 v=80
461760 Off ch=1 n=a4 v=80
461760 On ch=1 n=a4 v=102
461760 On ch=1 n=f4 v=102
462480 Off ch=1 n=f4 v=80
462480 Off ch=1 n=a4 v=80
462480 On ch=1 n=a3 v=108
462480 On ch=1 n=a4 v=108
462720 Off ch=1 n=a4 v=80
462720 Off ch=1 n=a3 v=80
462720 On ch=1 n=a3 v=114
462720 On ch=1 n=a4 v=114
463200 Off ch=1 n=a4 v=80
463200 Off ch=1 n=a3 v=80
463200 On ch=1 n=c#4 v=120
463200 On ch=1 n=a4 v=120
463680 Off ch=1 n=a4 v=80
463680 Off ch=1 n=c#4 v=80
463680 On ch=1 n=d4 v=127
463680 On ch=1 n=a4 v=127
464400 Off ch=1 n=a4 v=80
464400 Off ch=1 n=d4 v=80
464400 On ch=1 n=a4 v=102
464400 On ch=1 n=d4 v=102
464640 Off ch=1 n=d4 v=80
464640 Off ch=1 n=a4 v=80
464640 On ch=1 n=a4 v=102
464640 On ch=1 n=d4 v=102
465120 Off ch=1 n=d4 v=80
465120 Off ch=1 n=a4 v=80
465120 On ch=1 n=g4 v=108
465120 On ch=1 n=f4 v=108
465600 Off ch=1 n=f4 v=80
465600 Off ch=1 n=g4 v=80
465600 On ch=1 n=a4 v=114
465600 On ch=1 n=e4 v=114
466320 Off ch=1 n=e4 v=80
466320 Off ch=1 n=a4 v=80
466320 On ch=1 n=b3 v=120
466320 On ch=1 n=a4 v=120
466560 Off ch=1 n=a4 v=80
466560 Off ch=1 n=b3 v=80
466560 On ch=1 n=c4 v=127
466560 On ch=1 n=a4 v=127
467275 On ch=1 n=f#4 v=102
467275 On ch=1 n=e4 v=102
467280 Off ch=1 n=a4 v=80
467280 Off ch=1 n=c4 v=80
467515 Off ch=1 n=f#4 v=80
467515 Off ch=1 n=e4 v=80
467520 On ch=1 n=f#4 v=102
467520 On ch=1 n=d4 v=102
468235 On ch=1 n=f#4 v=102
468235 On ch=1 n=a#3 v=102
468240 Off ch=1 n=d4 v=80
468240 Off ch=1 n=f#4 v=80
468475 Off ch=1 n=f#4 v=80
468475 Off ch=1 n=a#3 v=80
468480 On ch=1 n=b3 v=93
468480 On ch=1 n=f#4 v=93
469200 Off ch=1 n=f#4 v=80
469200 Off ch=1 n=b3 v=80
469200 On ch=1 n=d4 v=78
469200 On ch=1 n=e4 v=78
469440 Off ch=1 n=e4 v=80
469440 Off ch=1 n=d4 v=80
469440 On ch=1 n=c4 v=93
469440 On ch=1 n=e4 v=93
470160 Off ch=1 n=e4 v=80
470160 Off ch=1 n=c4 v=80
470160 On ch=1 n=e4 v=78
470160 On ch=1 n=g#3 v=78
470400 Off ch=1 n=g#3 v=80
470400 Off ch=1 n=e4 v=80
470400 On ch=1 n=a3 v=93
470400 On ch=1 n=e4 v=93
471120 Off ch=1 n=e4 v=80
471120 Off ch=1 n=a3 v=80
471120 On ch=1 n=c4 v=78
471120 On ch=1 n=d4 v=78
471360 Off ch=1 n=d4 v=80
471360 Off ch=1 n=c4 v=80
471360 On ch=1 n=d4 v=98
471360 On ch=1 n=b3 v=98
472080 Off ch=1 n=b3 v=80
472080 Off ch=1 n=d4 v=80
472080 On ch=1 n=d4 v=88
472080 On ch=1 n=a3 v=88
472320 Off ch=1 n=a3 v=80
472320 Off ch=1 n=d4 v=80
472320 On ch=1 n=d4 v=108
472320 On ch=1 n=g3 v=108
473040 Off ch=1 n=g3 v=80
473040 Off ch=1 n=d4 v=80
473040 On ch=1 n=d4 v=98
473040 On ch=1 n=e3 v=98
473280 Off ch=1 n=e3 v=80
473280 Off ch=1 n=d4 v=80
473280 On ch=1 n=d4 v=102
473280 On ch=1 n=d3 v=102
475920 On ch=1 n=g5 v=102
476160 Off ch=1 n=g5 v=80
476160 On ch=1 n=e5 v=102
476400 Off ch=1 n=e5 v=80
476640 On ch=1 n=c#5 v=102
476880 Off ch=1 n=c#5 v=80
477120 On ch=1 n=a#4 v=102
477840 Off ch=1 n=a#4 v=80
477840 On ch=1 n=g4 v=102
478080 Off ch=1 n=g4 v=80
478080 On ch=1 n=e4 v=97
478320 Off ch=1 n=e4 v=80
478560 On ch=1 n=c#4 v=92
478800 Off ch=1 n=c#4 v=80
479040 Off ch=1 n=d3 v=80
479040 Off ch=1 n=d4 v=80
479040 On ch=1 n=a#3 v=87
479760 Off ch=1 n=a#3 v=80
479760 On ch=1 n=g3 v=82
480000 Off ch=1 n=g3 v=80
480000 On ch=1 n=e3 v=78
480240 Off ch=1 n=e3 v=80
480480 On ch=1 n=c#3 v=78
480720 Off ch=1 n=c#3 v=80
480960 On ch=1 n=d3 v=78
483600 On ch=1 n=g5 v=102
483840 Off ch=1 n=g5 v=80
483840 On ch=1 n=e5 v=102
484080 Off ch=1 n=e5 v=80
484320 On ch=1 n=c#5 v=102
484560 Off ch=1 n=c#5 v=80
484800 On ch=1 n=a#4 v=117
485520 Off ch=1 n=a#4 v=80
485520 On ch=1 n=g4 v=102
485760 Off ch=1 n=d3 v=80
485760 Off ch=1 n=g4 v=80
485760 On ch=1 n=e4 v=97
486000 Off ch=1 n=e4 v=80
486240 On ch=1 n=c#4 v=92
486480 Off ch=1 n=c#4 v=80
486720 On ch=1 n=a#3 v=102
487440 Off ch=1 n=a#3 v=80
487440 On ch=1 n=g3 v=82
487680 Off ch=1 n=g3 v=80
487680 On ch=1 n=e3 v=78
487920 Off ch=1 n=e3 v=80
488160 On ch=1 n=c#3 v=78
488400 Off ch=1 n=c#3 v=80
488640 On ch=1 n=d3 v=93
493920 Off ch=1 n=d3 v=80
496320 On ch=1 n=g4 v=65
496560 Off ch=1 n=g4 v=80
496560 On ch=1 n=d5 v=65
496800 On ch=1 n=a#5 v=65
500160 Off ch=1 n=a#5 v=80
500160 Off ch=1 n=d5 v=80
500160 On ch=1 n=f4 v=65
500280 Off ch=1 n=f4 v=80
500280 On ch=1 n=d5 v=65
500400 On ch=1 n=a#5 v=65
504000 Off ch=1 n=a#5 v=80
504000 Off ch=1 n=d5 v=80
504000 On ch=1 n=e4 v=65
504240 Off ch=1 n=e4 v=80
504241 On ch=1 n=c5 v=65
504480 On ch=1 n=a#5 v=65
507840 Off ch=1 n=a#5 v=80
507840 On ch=1 n=f4 v=65
507841 Off ch=1 n=c5 v=80
507930 Off ch=1 n=f4 v=80
507930 On ch=1 n=d#5 v=65
508020 On ch=1 n=a5 v=65
509760 On ch=1 n=g4 v=65
511440 Off ch=1 n=g4 v=80
511440 On ch=1 n=a4 v=65
511680 Off ch=1 n=a5 v=80
511680 Off ch=1 n=d#5 v=80
511680 Off ch=1 n=a4 v=80
511680 On ch=1 n=a#4 v=65
511770 Off ch=1 n=a#4 v=80
511770 On ch=1 n=d5 v=65
511860 On ch=1 n=a#5 v=65
515520 Off ch=1 n=a#5 v=80
515520 Off ch=1 n=d5 v=80
515520 On ch=1 n=d#4 v=65
515580 Off ch=1 n=d#4 v=80
515580 On ch=1 n=a#4 v=65
515640 On ch=1 n=g5 v=65
517440 Off ch=1 n=g5 v=80
517440 Off ch=1 n=a#4 v=80
517440 On ch=1 n=d#4 v=65
517500 Off ch=1 n=d#4 v=80
517500 On ch=1 n=a#4 v=65
517560 On ch=1 n=f#5 v=65
519360 Off ch=1 n=f#5 v=80
519360 Off ch=1 n=a#4 v=80
519360 On ch=1 n=a#3 v=65
519520 Off ch=1 n=a#3 v=80
519520 On ch=1 n=f4 v=65
519680 Off ch=1 n=f4 v=80
519680 On ch=1 n=a#4 v=65
519840 On ch=1 n=f5 v=65
523200 Off ch=1 n=f5 v=80
523200 Off ch=1 n=a#4 v=80
523200 On ch=1 n=d#4 v=65
523320 On ch=1 n=g4 v=65
527040 Off ch=1 n=g4 v=80
527040 Off ch=1 n=d#4 v=80
527040 On ch=1 n=a4 v=53
527040 On ch=1 n=d4 v=53
530880 Off ch=1 n=d4 v=80
530880 Off ch=1 n=a4 v=80
530880 On ch=1 n=g3 v=53
531120 On ch=1 n=b4 v=53
531120 On ch=1 n=g4 v=53
531360 Off ch=1 n=g4 v=80
531360 Off ch=1 n=b4 v=80
531360 Off ch=1 n=g3 v=80
531360 On ch=1 n=a3 v=53
531600 On ch=1 n=g4 v=53
531600 On ch=1 n=b4 v=53
531720 Off ch=1 n=a3 v=80
531720 On ch=1 n=b3 v=53
531840 Off ch=1 n=g4 v=80
531840 Off ch=1 n=b4 v=80
531840 Off ch=1 n=b3 v=80
531840 On ch=1 n=c4 v=53
532080 On ch=1 n=c5 v=59
532080 On ch=1 n=g4 v=59
532320 Off ch=1 n=g4 v=80
532320 Off ch=1 n=c5 v=80
532320 Off ch=1 n=c4 v=80
532320 On ch=1 n=f4 v=65
532560 On ch=1 n=d5 v=71
532560 On ch=1 n=g#4 v=71
532800 Off ch=1 n=g#4 v=80
532800 Off ch=1 n=d5 v=80
532800 Off ch=1 n=f4 v=80
532800 On ch=1 n=g4 v=77
533040 On ch=1 n=c5 v=59
533280 Off ch=1 n=c5 v=80
533280 Off ch=1 n=g4 v=80
533280 On ch=1 n=g3 v=65
533520 On ch=1 n=b4 v=71
533520 On ch=1 n=g4 v=71
534000 Off ch=1 n=g4 v=80
534000 Off ch=1 n=b4 v=80
534000 On ch=1 n=d5 v=71
534000 On ch=1 n=b4 v=71
534240 Off ch=1 n=g3 v=80
534240 On ch=1 n=c4 v=65
534480 Off ch=1 n=d5 v=80
534480 Off ch=1 n=b4 v=80
534480 On ch=1 n=c5 v=53
534480 On ch=1 n=g4 v=53
534720 Off ch=1 n=g4 v=80
534720 Off ch=1 n=c4 v=80
534720 Off ch=1 n=c5 v=80
534720 On ch=1 n=f3 v=53
534960 On ch=1 n=a4 v=53
534960 On ch=1 n=f4 v=53
535200 Off ch=1 n=f4 v=80
535200 Off ch=1 n=a4 v=80
535200 Off ch=1 n=f3 v=80
535200 On ch=1 n=g3 v=53
535440 On ch=1 n=f4 v=53
535440 On ch=1 n=a4 v=53
535560 Off ch=1 n=g3 v=80
535560 On ch=1 n=a3 v=53
535680 Off ch=1 n=f4 v=80
535680 Off ch=1 n=a4 v=80
535680 Off ch=1 n=a3 v=80
535680 On ch=1 n=a#3 v=53
535920 On ch=1 n=f4 v=59
535920 On ch=1 n=a#4 v=59
536160 Off ch=1 n=a#4 v=80
536160 Off ch=1 n=f4 v=80
536160 Off ch=1 n=a#3 v=80
536160 On ch=1 n=d#4 v=65
536400 On ch=1 n=g4 v=71
536400 On ch=1 n=c5 v=71
536640 Off ch=1 n=c5 v=80
536640 Off ch=1 n=g4 v=80
536640 Off ch=1 n=d#4 v=80
536640 On ch=1 n=f4 v=77
536880 On ch=1 n=a#4 v=59
536880 On ch=1 n=d5 v=59
537120 Off ch=1 n=d5 v=80
537120 Off ch=1 n=a#4 v=80
537120 Off ch=1 n=f4 v=80
537120 On ch=1 n=f#4 v=65
537360 On ch=1 n=a4 v=71
537360 On ch=1 n=c5 v=71
537600 Off ch=1 n=c5 v=80
537600 Off ch=1 n=a4 v=80
537600 On ch=1 n=g#4 v=71
537840 On ch=1 n=c5 v=71
538080 Off ch=1 n=f#4 v=80
538080 Off ch=1 n=g#4 v=80
538080 On ch=1 n=g4 v=65
538320 Off ch=1 n=c5 v=80
538320 On ch=1 n=c5 v=53
538560 Off ch=1 n=g4 v=80
538560 Off ch=1 n=c5 v=80
538560 On ch=1 n=g4 v=53
538800 Off ch=1 n=g4 v=80
538800 On ch=1 n=d5 v=53
538800 On ch=1 n=a#5 v=53
539040 Off ch=1 n=a#5 v=80
539040 Off ch=1 n=d5 v=80
539040 On ch=1 n=f4 v=53
539280 Off ch=1 n=f4 v=80
539280 On ch=1 n=a#5 v=53
539280 On ch=1 n=d5 v=53
539520 Off ch=1 n=d5 v=80
539520 Off ch=1 n=a#5 v=80
539520 On ch=1 n=e4 v=53
539760 Off ch=1 n=e4 v=80
539760 On ch=1 n=a#5 v=53
539760 On ch=1 n=c5 v=53
540000 Off ch=1 n=c5 v=80
540000 Off ch=1 n=a#5 v=80
540240 On ch=1 n=a#5 v=53
540240 On ch=1 n=c5 v=53
540480 Off ch=1 n=c5 v=80
540480 Off ch=1 n=a#5 v=80
540480 On ch=1 n=f4 v=53
540720 Off ch=1 n=f4 v=80
540720 On ch=1 n=d#5 v=53
540720 On ch=1 n=a5 v=53
540960 Off ch=1 n=a5 v=80
540960 Off ch=1 n=d#5 v=80
540960 On ch=1 n=g4 v=53
541200 On ch=1 n=d#5 v=53
541200 On ch=1 n=a5 v=53
541320 Off ch=1 n=g4 v=80
541320 On ch=1 n=a4 v=53
541440 Off ch=1 n=d#5 v=80
541440 Off ch=1 n=a5 v=80
541440 Off ch=1 n=a4 v=80
541440 On ch=1 n=a#4 v=78
541680 On ch=1 n=g#5 v=53
541680 On ch=1 n=d5 v=53
541920 Off ch=1 n=d5 v=80
541920 Off ch=1 n=g#5 v=80
542160 On ch=1 n=g#5 v=53
542160 On ch=1 n=d5 v=53
542400 Off ch=1 n=d5 v=80
542400 Off ch=1 n=a#4 v=80
542400 Off ch=1 n=g#5 v=80
542400 On ch=1 n=d#4 v=68
542640 Off ch=1 n=d#4 v=80
542640 On ch=1 n=a#4 v=59
542640 On ch=1 n=g5 v=59
543120 Off ch=1 n=g5 v=80
543120 Off ch=1 n=a#4 v=80
543120 On ch=1 n=f#5 v=71
543120 On ch=1 n=a#4 v=71
543360 Off ch=1 n=a#4 v=80
543360 Off ch=1 n=f#5 v=80
543360 On ch=1 n=a#3 v=77
543600 Off ch=1 n=a#3 v=80
543600 On ch=1 n=f5 v=71
543600 On ch=1 n=a#4 v=71
543840 Off ch=1 n=a#4 v=80
543840 Off ch=1 n=f5 v=80
543840 On ch=1 n=d4 v=65
544080 Off ch=1 n=d4 v=80
544080 On ch=1 n=a4 v=53
544080 On ch=1 n=f#5 v=53
544320 Off ch=1 n=f#5 v=80
544320 Off ch=1 n=a4 v=80
544320 On ch=1 n=d#4 v=53
544560 Off ch=1 n=d#4 v=80
544560 On ch=1 n=g4 v=53
544650 Off ch=1 n=g4 v=80
544650 On ch=1 n=g5 v=78
545040 Off ch=1 n=g5 v=80
545040 On ch=1 n=a4 v=53
545040 On ch=1 n=g4 v=53
545280 Off ch=1 n=g4 v=80
545280 Off ch=1 n=a4 v=80
545280 On ch=1 n=d4 v=53
545520 Off ch=1 n=d4 v=80
545520 On ch=1 n=f#4 v=45
545520 On ch=1 n=a4 v=45
545520 On ch=1 n=f#5 v=45
546000 On ch=1 n=d4 v=33
546480 Off ch=1 n=d4 v=80
546480 Off ch=1 n=f#5 v=80
546480 Off ch=1 n=a4 v=80
546480 Off ch=1 n=f#4 v=80
546720 On ch=1 n=g3 v=78
546960 On ch=1 n=g4 v=78
546960 On ch=1 n=b4 v=78
547200 Off ch=1 n=b4 v=80
547200 Off ch=1 n=g4 v=80
547200 Off ch=1 n=g3 v=80
547200 On ch=1 n=c4 v=78
547440 On ch=1 n=g4 v=78
547440 On ch=1 n=c5 v=78
547680 Off ch=1 n=c5 v=80
547680 Off ch=1 n=g4 v=80
547680 Off ch=1 n=c4 v=80
547680 On ch=1 n=d#4 v=78
547920 On ch=1 n=g4 v=78
547920 On ch=1 n=c5 v=78
548160 Off ch=1 n=c5 v=80
548160 Off ch=1 n=g4 v=80
548160 Off ch=1 n=d#4 v=80
548160 On ch=1 n=f4 v=78
548400 On ch=1 n=d5 v=78
548880 Off ch=1 n=d5 v=80
548880 On ch=1 n=c5 v=78
550080 Off ch=1 n=f4 v=80
550080 Off ch=1 n=c5 v=80
550560 On ch=1 n=g3 v=78
550800 On ch=1 n=g4 v=78
550800 On ch=1 n=b4 v=78
551040 Off ch=1 n=b4 v=80
551040 Off ch=1 n=g4 v=80
551040 Off ch=1 n=g3 v=80
551040 On ch=1 n=c4 v=78
551280 On ch=1 n=g4 v=78
551280 On ch=1 n=c5 v=78
551520 Off ch=1 n=c5 v=80
551520 Off ch=1 n=g4 v=80
551520 Off ch=1 n=c4 v=80
551520 On ch=1 n=d#4 v=78
551760 On ch=1 n=g4 v=78
551760 On ch=1 n=c5 v=78
552000 Off ch=1 n=c5 v=80
552000 Off ch=1 n=g4 v=80
552000 Off ch=1 n=d#4 v=80
552000 On ch=1 n=f4 v=78
552240 On ch=1 n=d5 v=78
552720 Off ch=1 n=d5 v=80
552720 On ch=1 n=c5 v=78
553920 Off ch=1 n=f4 v=80
553920 Off ch=1 n=c5 v=80
554400 On ch=1 n=b3 v=65
554440 On ch=1 n=g#4 v=65
554880 Off ch=1 n=g#4 v=80
554880 Off ch=1 n=b3 v=80
554880 On ch=1 n=c4 v=71
554940 On ch=1 n=a4 v=71
555840 Off ch=1 n=a4 v=80
555840 Off ch=1 n=c4 v=80
555840 On ch=1 n=g3 v=90
556800 Off ch=1 n=g3 v=80
556800 On ch=1 n=a3 v=71
556960 On ch=1 n=d#4 v=71
557120 Off ch=1 n=d#4 v=80
557120 On ch=1 n=f4 v=77
557280 Off ch=1 n=f4 v=80
557280 On ch=1 n=a4 v=77
557440 Off ch=1 n=a4 v=80
557440 On ch=1 n=g4 v=83
557600 Off ch=1 n=g4 v=80
557600 On ch=1 n=f4 v=83
557760 Off ch=1 n=a3 v=80
557760 Off ch=1 n=f4 v=80
557760 On ch=1 n=g3 v=90
557760 On ch=1 n=a#4 v=90
558240 Off ch=1 n=a#4 v=80
558240 On ch=1 n=a4 v=90
558480 Off ch=1 n=a4 v=80
558480 On ch=1 n=g4 v=90
558720 Off ch=1 n=g3 v=80
558720 Off ch=1 n=g4 v=80
558720 On ch=1 n=d#5 v=65
558720 On ch=1 n=c5 v=65
558720 On ch=1 n=f#4 v=65
558720 On ch=1 n=a3 v=65
558960 Off ch=1 n=a3 v=80
558960 Off ch=1 n=f#4 v=80
558960 Off ch=1 n=c5 v=80
558960 Off ch=1 n=d#5 v=80
559200 On ch=1 n=d5 v=65
559200 On ch=1 n=g#4 v=65
559200 On ch=1 n=f4 v=65
559200 On ch=1 n=b3 v=65
559440 Off ch=1 n=b3 v=80
559440 Off ch=1 n=f4 v=80
559440 Off ch=1 n=g#4 v=80
559440 Off ch=1 n=d5 v=80
559680 On ch=1 n=e4 v=65
559720 Off ch=1 n=e4 v=80
559720 On ch=1 n=g4 v=65
559760 Off ch=1 n=g4 v=80
559760 On ch=1 n=a#4 v=65
559800 Off ch=1 n=a#4 v=80
559800 On ch=1 n=c4 v=65
559800 On ch=1 n=c3 v=65
560160 Off ch=1 n=c3 v=80
560160 On ch=1 n=d#4 v=65
560160 On ch=1 n=f3 v=65
561080 Off ch=1 n=d#4 v=80
561600 Off ch=1 n=c4 v=80
561600 On ch=1 n=a#2 v=53
562560 Off ch=1 n=f3 v=80
562560 Off ch=1 n=a#2 v=80
563520 On ch=1 n=g3 v=65
563520 On ch=1 n=g2 v=65
564000 Off ch=1 n=g2 v=80
564000 Off ch=1 n=g3 v=80
565440 On ch=1 n=g3 v=65
565680 Off ch=1 n=g3 v=80
565920 On ch=1 n=a4 v=59
566160 Off ch=1 n=a4 v=80
566160 On ch=1 n=a#4 v=59
566400 Off ch=1 n=a#4 v=80
566400 On ch=1 n=d5 v=59
566880 Off ch=1 n=d5 v=80
566880 On ch=1 n=c5 v=59
567120 Off ch=1 n=c5 v=80
567120 On ch=1 n=a#4 v=59
567360 Off ch=1 n=a#4 v=80
567360 On ch=1 n=a3 v=65
567600 Off ch=1 n=a3 v=80
567840 On ch=1 n=g#4 v=59
568080 Off ch=1 n=g#4 v=80
568080 On ch=1 n=a4 v=59
568320 Off ch=1 n=a4 v=80
568320 On ch=1 n=a2 v=65
568560 Off ch=1 n=a2 v=80
568800 On ch=1 n=b4 v=59
569040 Off ch=1 n=b4 v=80
569040 On ch=1 n=c#5 v=59
569280 Off ch=1 n=c#5 v=80
569280 On ch=1 n=d3 v=65
569520 Off ch=1 n=d3 v=80
569760 On ch=1 n=g#4 v=65
570000 Off ch=1 n=g#4 v=80
570000 On ch=1 n=a4 v=71
570240 Off ch=1 n=a4 v=80
570240 On ch=1 n=d#5 v=77
570720 Off ch=1 n=d#5 v=80
570720 On ch=1 n=d5 v=71
570960 Off ch=1 n=d5 v=80
570960 On ch=1 n=c5 v=65
571200 Off ch=1 n=c5 v=80
571200 On ch=1 n=g3 v=65
571440 Off ch=1 n=g3 v=80
573120 On ch=1 n=g3 v=65
573240 Off ch=1 n=g3 v=80
573600 On ch=1 n=a4 v=65
573840 Off ch=1 n=a4 v=80
573840 On ch=1 n=a#4 v=65
574080 Off ch=1 n=a#4 v=80
574080 On ch=1 n=d5 v=65
574560 Off ch=1 n=d5 v=80
574560 On ch=1 n=c5 v=65
574800 Off ch=1 n=c5 v=80
574800 On ch=1 n=a#4 v=65
575040 Off ch=1 n=a#4 v=80
575040 On ch=1 n=a3 v=65
575280 Off ch=1 n=a3 v=80
575520 On ch=1 n=g#4 v=65
575760 Off ch=1 n=g#4 v=80
575760 On ch=1 n=a4 v=65
576000 Off ch=1 n=a4 v=80
576000 On ch=1 n=c3 v=65
576000 On ch=1 n=c4 v=65
576120 Off ch=1 n=c4 v=80
576120 Off ch=1 n=c3 v=80
576480 On ch=1 n=a#4 v=65
576720 Off ch=1 n=a#4 v=80
576720 On ch=1 n=c5 v=65
576960 Off ch=1 n=c5 v=80
576960 On ch=1 n=f3 v=65
576960 On ch=1 n=f2 v=65
577200 Off ch=1 n=f2 v=80
577200 Off ch=1 n=f3 v=80
577440 On ch=1 n=f4 v=65
577800 Off ch=1 n=f4 v=80
577800 On ch=1 n=g4 v=65
577920 Off ch=1 n=g4 v=80
577920 On ch=1 n=a4 v=65
578400 Off ch=1 n=a4 v=80
578880 On ch=1 n=f3 v=90
579360 Off ch=1 n=f3 v=80
579360 On ch=1 n=a4 v=94
579360 On ch=1 n=f4 v=94
579720 Off ch=1 n=a4 v=80
579720 On ch=1 n=a#4 v=98
579840 Off ch=1 n=a#4 v=80
579840 On ch=1 n=c5 v=102
580320 Off ch=1 n=c5 v=80
580320 On ch=1 n=a4 v=90
580560 Off ch=1 n=a4 v=80
580560 On ch=1 n=d#4 v=90
580710 On ch=1 n=a#2 v=90
580800 Off ch=1 n=a#2 v=80
580800 Off ch=1 n=f4 v=80
580800 Off ch=1 n=d#4 v=80
580800 On ch=1 n=d4 v=90
581160 Off ch=1 n=d4 v=80
581160 On ch=1 n=f4 v=90
581280 On ch=1 n=a#4 v=94
581400 Off ch=1 n=a#4 v=80
581520 On ch=1 n=c5 v=94
581640 Off ch=1 n=c5 v=80
581760 On ch=1 n=d5 v=98
582240 Off ch=1 n=d5 v=80
582240 On ch=1 n=c#5 v=102
582720 Off ch=1 n=f4 v=80
582720 Off ch=1 n=c#5 v=80
582720 On ch=1 n=f3 v=90
583200 Off ch=1 n=f3 v=80
583200 On ch=1 n=f4 v=96
583200 On ch=1 n=a4 v=96
583560 Off ch=1 n=a4 v=80
583560 On ch=1 n=a#4 v=96
583680 Off ch=1 n=a#4 v=80
583680 On ch=1 n=c5 v=102
584040 Off ch=1 n=c5 v=80
584040 On ch=1 n=c5 v=102
584160 Off ch=1 n=c5 v=80
584160 On ch=1 n=a4 v=108
584400 Off ch=1 n=a4 v=80
584400 On ch=1 n=d#4 v=108
584550 On ch=1 n=a#2 v=108
584640 Off ch=1 n=a#2 v=80
584640 Off ch=1 n=f4 v=80
584640 Off ch=1 n=d#4 v=80
584640 On ch=1 n=d4 v=90
585000 Off ch=1 n=d4 v=80
585000 On ch=1 n=f4 v=96
585120 On ch=1 n=a#4 v=102
585240 Off ch=1 n=a#4 v=80
585360 On ch=1 n=c5 v=108
585480 Off ch=1 n=c5 v=80
585600 On ch=1 n=d5 v=99
586080 Off ch=1 n=f4 v=80
586080 Off ch=1 n=d5 v=80
586080 On ch=1 n=c5 v=82
586080 On ch=1 n=f#4 v=82
586320 Off ch=1 n=f#4 v=80
586320 Off ch=1 n=c5 v=80
586320 On ch=1 n=a#4 v=73
586320 On ch=1 n=g4 v=73
586560 Off ch=1 n=g4 v=80
586560 Off ch=1 n=a#4 v=80
586560 On ch=1 n=g2 v=65
587040 Off ch=1 n=g2 v=80
588480 On ch=1 n=g4 v=65
588960 On ch=1 n=a4 v=65
589200 Off ch=1 n=a4 v=80
589200 On ch=1 n=a#4 v=65
589440 Off ch=1 n=a#4 v=80
589440 On ch=1 n=d5 v=65
589920 Off ch=1 n=d5 v=80
589920 On ch=1 n=c5 v=65
590160 Off ch=1 n=c5 v=80
590160 On ch=1 n=a#4 v=65
590400 Off ch=1 n=g4 v=80
590400 Off ch=1 n=a#4 v=80
590400 On ch=1 n=a3 v=65
590640 Off ch=1 n=a3 v=80
590880 On ch=1 n=g#4 v=65
591120 Off ch=1 n=g#4 v=80
591120 On ch=1 n=a4 v=65
591360 Off ch=1 n=a4 v=80
591360 On ch=1 n=a2 v=65
591600 Off ch=1 n=a2 v=80
591840 On ch=1 n=b4 v=65
592080 Off ch=1 n=b4 v=80
592080 On ch=1 n=c#5 v=65
592320 Off ch=1 n=c#5 v=80
592320 On ch=1 n=d3 v=65
592560 Off ch=1 n=d3 v=80
592800 On ch=1 n=g#4 v=71
593040 Off ch=1 n=g#4 v=80
593040 On ch=1 n=a4 v=77
593280 Off ch=1 n=a4 v=80
593280 On ch=1 n=d#5 v=83
593760 Off ch=1 n=d#5 v=80
593760 On ch=1 n=d5 v=77
594000 Off ch=1 n=d5 v=80
594000 On ch=1 n=c5 v=71
594240 Off ch=1 n=c5 v=80
594240 On ch=1 n=g2 v=65
594240 On ch=1 n=g3 v=65
594480 Off ch=1 n=g3 v=80
594480 Off ch=1 n=g2 v=80
596160 On ch=1 n=g3 v=90
596640 Off ch=1 n=g3 v=80
596640 On ch=1 n=a4 v=90
596880 Off ch=1 n=a4 v=80
596880 On ch=1 n=a#4 v=90
597120 Off ch=1 n=a#4 v=80
597120 On ch=1 n=d5 v=90
597600 Off ch=1 n=d5 v=80
597600 On ch=1 n=c5 v=90
597840 Off ch=1 n=c5 v=80
597840 On ch=1 n=a#4 v=102
598080 Off ch=1 n=a#4 v=80
598080 On ch=1 n=d3 v=102
598560 Off ch=1 n=d3 v=80
598560 On ch=1 n=g4 v=102
598920 On ch=1 n=a4 v=102
599040 Off ch=1 n=a4 v=80
599040 On ch=1 n=a#4 v=102
599240 Off ch=1 n=a#4 v=80
599280 On ch=1 n=c5 v=102
599480 Off ch=1 n=c5 v=80
599520 Off ch=1 n=g4 v=80
599520 On ch=1 n=d5 v=102
599520 On ch=1 n=d3 v=102
599760 Off ch=1 n=d5 v=80
599760 On ch=1 n=c5 v=102
600000 Off ch=1 n=d3 v=80
600000 Off ch=1 n=c5 v=80
600000 On ch=1 n=g3 v=102
600480 Off ch=1 n=g3 v=80
600480 On ch=1 n=d4 v=102
600840 On ch=1 n=g4 v=102
600960 Off ch=1 n=g4 v=80
600960 On ch=1 n=a#4 v=102
601440 Off ch=1 n=d4 v=80
601440 Off ch=1 n=a#4 v=80
601920 On ch=1 n=a2 v=90
602160 Off ch=1 n=a2 v=80
602400 On ch=1 n=g4 v=90
602640 Off ch=1 n=g4 v=80
602640 On ch=1 n=f#4 v=90
602880 Off ch=1 n=f#4 v=80
602880 On ch=1 n=f4 v=96
603120 On ch=1 n=f3 v=96
603360 Off ch=1 n=f3 v=80
603360 On ch=1 n=c4 v=102
603600 Off ch=1 n=c4 v=80
603600 On ch=1 n=d#4 v=102
603840 Off ch=1 n=f4 v=80
603840 Off ch=1 n=d#4 v=80
603840 On ch=1 n=f4 v=123
604080 On ch=1 n=d#5 v=108
604320 Off ch=1 n=d#5 v=80
604320 On ch=1 n=d5 v=108
604560 Off ch=1 n=d5 v=80
604560 On ch=1 n=c#5 v=108
604800 Off ch=1 n=f4 v=80
604800 Off ch=1 n=c#5 v=80
604800 On ch=1 n=c5 v=108
605280 Off ch=1 n=c5 v=80
605760 On ch=1 n=f2 v=90
605760 On ch=1 n=f3 v=90
606240 Off ch=1 n=f3 v=80
606240 Off ch=1 n=f2 v=80
606240 On ch=1 n=a4 v=90
606480 Off ch=1 n=a4 v=80
606480 On ch=1 n=g#4 v=90
606720 Off ch=1 n=g#4 v=80
606720 On ch=1 n=g4 v=96
606960 On ch=1 n=b3 v=96
607200 Off ch=1 n=b3 v=80
607200 On ch=1 n=d4 v=102
607440 Off ch=1 n=d4 v=80
607440 On ch=1 n=f4 v=102
607680 Off ch=1 n=g4 v=80
607680 Off ch=1 n=f4 v=80
607680 On ch=1 n=g4 v=123
607920 On ch=1 n=f5 v=108
608160 Off ch=1 n=f5 v=80
608160 On ch=1 n=e5 v=108
608400 Off ch=1 n=e5 v=80
608400 On ch=1 n=d#5 v=108
608640 Off ch=1 n=g4 v=80
608640 Off ch=1 n=d#5 v=80
608640 On ch=1 n=d5 v=108
609120 Off ch=1 n=d5 v=80
609600 On ch=1 n=c4 v=65
609600 On ch=1 n=c3 v=65
610080 Off ch=1 n=c3 v=80
610080 Off ch=1 n=c4 v=80
610080 On ch=1 n=d6 v=65
610080 On ch=1 n=f#5 v=65
610320 Off ch=1 n=f#5 v=80
610320 Off ch=1 n=d6 v=80
610320 On ch=1 n=g5 v=65
610320 On ch=1 n=d#6 v=65
610560 Off ch=1 n=d#6 v=80
610560 Off ch=1 n=g5 v=80
610560 On ch=1 n=f6 v=65
610560 On ch=1 n=g#5 v=65
611040 Off ch=1 n=g#5 v=80
611040 Off ch=1 n=f6 v=80
611040 On ch=1 n=d#6 v=65
611040 On ch=1 n=g5 v=65
611280 Off ch=1 n=g5 v=80
611280 Off ch=1 n=d#6 v=80
611280 On ch=1 n=f5 v=65
611280 On ch=1 n=d6 v=65
611520 Off ch=1 n=d6 v=80
611520 Off ch=1 n=f5 v=80
611520 On ch=1 n=d6 v=65
611520 On ch=1 n=f5 v=65
611760 Off ch=1 n=f5 v=80
611760 Off ch=1 n=d6 v=80
611760 On ch=1 n=d#5 v=65
611760 On ch=1 n=c6 v=65
612000 Off ch=1 n=c6 v=80
612000 Off ch=1 n=d#5 v=80
612000 On ch=1 n=d6 v=65
612000 On ch=1 n=f5 v=65
612240 Off ch=1 n=f5 v=80
612240 Off ch=1 n=d6 v=80
612240 On ch=1 n=g5 v=65
612240 On ch=1 n=d#6 v=65
612480 Off ch=1 n=d#6 v=80
612480 Off ch=1 n=g5 v=80
612480 On ch=1 n=g5 v=65
612480 On ch=1 n=c5 v=65
612960 Off ch=1 n=c5 v=80
612960 Off ch=1 n=g5 v=80
612960 On ch=1 n=f4 v=65
612960 On ch=1 n=f5 v=65
613440 Off ch=1 n=f5 v=80
613440 On ch=1 n=a#3 v=65
613920 Off ch=1 n=f4 v=80
613920 Off ch=1 n=a#3 v=80
613920 On ch=1 n=a4 v=65
613920 On ch=1 n=f#5 v=65
614160 Off ch=1 n=f#5 v=80
614160 Off ch=1 n=a4 v=80
614160 On ch=1 n=g5 v=65
614160 On ch=1 n=a#4 v=65
614340 On ch=1 n=c4 v=65
614400 Off ch=1 n=c4 v=80
614400 Off ch=1 n=a#4 v=80
614400 Off ch=1 n=g5 v=80
614400 On ch=1 n=f5 v=65
614400 On ch=1 n=d6 v=65
614640 Off ch=1 n=d6 v=80
614640 On ch=1 n=c#6 v=65
614880 Off ch=1 n=f5 v=80
614880 Off ch=1 n=c#6 v=80
614880 On ch=1 n=c6 v=65
614880 On ch=1 n=c5 v=65
614880 On ch=1 n=e5 v=65
615120 Off ch=1 n=c6 v=80
615120 On ch=1 n=a#5 v=65
615260 Off ch=1 n=c5 v=80
615260 Off ch=1 n=e5 v=80
615280 On ch=1 n=f4 v=65
615320 Off ch=1 n=f4 v=80
615320 On ch=1 n=c5 v=65
615360 Off ch=1 n=a#5 v=80
615360 Off ch=1 n=c5 v=80
615360 On ch=1 n=a5 v=65
615600 Off ch=1 n=a5 v=80
615600 On ch=1 n=g#5 v=65
615840 Off ch=1 n=g#5 v=80
615840 On ch=1 n=g5 v=65
616080 Off ch=1 n=g5 v=80
616080 On ch=1 n=f5 v=65
616320 Off ch=1 n=f5 v=80
616320 On ch=1 n=e5 v=71
616560 Off ch=1 n=e5 v=80
616560 On ch=1 n=d#5 v=77
616800 Off ch=1 n=d#5 v=80
616800 On ch=1 n=d5 v=83
617040 Off ch=1 n=d5 v=80
617040 On ch=1 n=d4 v=86
617040 On ch=1 n=c5 v=86
617280 Off ch=1 n=c5 v=80
617280 Off ch=1 n=d4 v=80
617280 On ch=1 n=g2 v=65
617760 Off ch=1 n=g2 v=80
619200 On ch=1 n=g4 v=65
619680 On ch=1 n=a4 v=65
619920 Off ch=1 n=a4 v=80
619920 On ch=1 n=a#4 v=65
620160 Off ch=1 n=a#4 v=80
620160 On ch=1 n=d5 v=65
620640 Off ch=1 n=d5 v=80
620640 On ch=1 n=c5 v=65
620880 Off ch=1 n=c5 v=80
620880 On ch=1 n=a#4 v=65
621120 Off ch=1 n=g4 v=80
621120 Off ch=1 n=a#4 v=80
621120 On ch=1 n=a3 v=65
621360 Off ch=1 n=a3 v=80
621600 On ch=1 n=g#4 v=65
621840 Off ch=1 n=g#4 v=80
621840 On ch=1 n=a4 v=65
622080 Off ch=1 n=a4 v=80
622080 On ch=1 n=a2 v=65
622320 Off ch=1 n=a2 v=80
622560 On ch=1 n=b4 v=65
622800 Off ch=1 n=b4 v=80
622800 On ch=1 n=c#5 v=65
623040 Off ch=1 n=c#5 v=80
623040 On ch=1 n=d3 v=65
623280 Off ch=1 n=d3 v=80
623520 On ch=1 n=g#4 v=71
623760 Off ch=1 n=g#4 v=80
623760 On ch=1 n=a4 v=77
624000 Off ch=1 n=a4 v=80
624000 On ch=1 n=d#5 v=83
624480 Off ch=1 n=d#5 v=80
624480 On ch=1 n=d5 v=77
624720 Off ch=1 n=d5 v=80
624720 On ch=1 n=c5 v=71
624960 Off ch=1 n=c5 v=80
624960 On ch=1 n=g2 v=65
624960 On ch=1 n=g3 v=65
625200 Off ch=1 n=g3 v=80
625200 Off ch=1 n=g2 v=80
626880 On ch=1 n=g3 v=90
627120 Off ch=1 n=g3 v=80
627360 On ch=1 n=a4 v=90
627600 Off ch=1 n=a4 v=80
627600 On ch=1 n=a#4 v=90
627840 Off ch=1 n=a#4 v=80
627840 On ch=1 n=d5 v=90
628320 Off ch=1 n=d5 v=80
628320 On ch=1 n=c5 v=90
628560 Off ch=1 n=c5 v=80
628560 On ch=1 n=a#4 v=102
628800 Off ch=1 n=a#4 v=80
628800 On ch=1 n=d3 v=102
629280 Off ch=1 n=d3 v=80
629280 On ch=1 n=g4 v=102
629640 On ch=1 n=a4 v=102
629760 Off ch=1 n=a4 v=80
629760 On ch=1 n=a#4 v=102
629960 Off ch=1 n=a#4 v=80
630000 On ch=1 n=c5 v=102
630200 Off ch=1 n=c5 v=80
630240 Off ch=1 n=g4 v=80
630240 On ch=1 n=d5 v=102
630240 On ch=1 n=d3 v=102
630480 Off ch=1 n=d5 v=80
630480 On ch=1 n=c5 v=102
630720 Off ch=1 n=d3 v=80
630720 Off ch=1 n=c5 v=80
630720 On ch=1 n=g3 v=102
631200 Off ch=1 n=g3 v=80
631200 On ch=1 n=d4 v=102
631560 On ch=1 n=g4 v=102
631680 Off ch=1 n=g4 v=80
631680 On ch=1 n=a#4 v=102
632160 Off ch=1 n=d4 v=80
632160 Off ch=1 n=a#4 v=80
633120 On ch=1 n=d5 v=102
633120 On ch=1 n=a#4 v=102
633240 Off ch=1 n=d5 v=80
633240 On ch=1 n=d#5 v=102
633360 Off ch=1 n=d#5 v=80
633360 On ch=1 n=d5 v=102
633480 Off ch=1 n=d5 v=80
633480 On ch=1 n=c5 v=102
633600 Off ch=1 n=a#4 v=80
633600 Off ch=1 n=c5 v=80
633600 On ch=1 n=a#4 v=102
633720 Off ch=1 n=a#4 v=80
633720 On ch=1 n=c5 v=102
633840 Off ch=1 n=c5 v=80
633840 On ch=1 n=a#4 v=102
633960 Off ch=1 n=a#4 v=80
633960 On ch=1 n=a4 v=102
634080 Off ch=1 n=a4 v=80
634080 On ch=1 n=g4 v=102
634200 Off ch=1 n=g4 v=80
634200 On ch=1 n=a4 v=102
634320 Off ch=1 n=a4 v=80
634320 On ch=1 n=g4 v=102
634440 Off ch=1 n=g4 v=80
634440 On ch=1 n=f#4 v=102
634560 Off ch=1 n=f#4 v=80
634560 On ch=1 n=f4 v=102
634680 Off ch=1 n=f4 v=80
634680 On ch=1 n=g4 v=102
634800 Off ch=1 n=g4 v=80
634800 On ch=1 n=f4 v=102
634920 Off ch=1 n=f4 v=80
634920 On ch=1 n=d#4 v=102
635040 Off ch=1 n=d#4 v=80
635040 On ch=1 n=d4 v=102
635160 Off ch=1 n=d4 v=80
635160 On ch=1 n=d#4 v=102
635280 Off ch=1 n=d#4 v=80
635280 On ch=1 n=d4 v=102
635400 Off ch=1 n=d4 v=80
635400 On ch=1 n=c4 v=102
635520 Off ch=1 n=c4 v=80
635520 On ch=1 n=a#3 v=102
635640 Off ch=1 n=a#3 v=80
635640 On ch=1 n=c4 v=102
635760 Off ch=1 n=c4 v=80
635760 On ch=1 n=a#3 v=102
635880 Off ch=1 n=a#3 v=80
635880 On ch=1 n=a3 v=102
636000 Off ch=1 n=a3 v=80
636000 On ch=1 n=g3 v=102
636120 Off ch=1 n=g3 v=80
636120 On ch=1 n=a3 v=102
636240 Off ch=1 n=a3 v=80
636240 On ch=1 n=g3 v=102
636360 Off ch=1 n=g3 v=80
636360 On ch=1 n=f#3 v=102
636480 Off ch=1 n=f#3 v=80
636480 On ch=1 n=f3 v=102
636600 Off ch=1 n=f3 v=80
636600 On ch=1 n=g3 v=102
636720 Off ch=1 n=g3 v=80
636720 On ch=1 n=f3 v=102
636840 Off ch=1 n=f3 v=80
636840 On ch=1 n=d#3 v=102
636960 Off ch=1 n=d#3 v=80
636960 On ch=1 n=d3 v=102
637080 Off ch=1 n=d3 v=80
637080 On ch=1 n=d#3 v=102
637200 Off ch=1 n=d#3 v=80
637200 On ch=1 n=d3 v=102
637320 Off ch=1 n=d3 v=80
637320 On ch=1 n=d#3 v=102
637440 Off ch=1 n=d#3 v=80
637440 On ch=1 n=f3 v=102
637560 Off ch=1 n=f3 v=80
637560 On ch=1 n=d#3 v=102
637680 Off ch=1 n=d#3 v=80
637680 On ch=1 n=f3 v=102
637800 Off ch=1 n=f3 v=80
637800 On ch=1 n=f#3 v=102
637920 Off ch=1 n=f#3 v=80
637920 On ch=1 n=g3 v=102
638040 Off ch=1 n=g3 v=80
638040 On ch=1 n=f#3 v=102
638160 Off ch=1 n=f#3 v=80
638160 On ch=1 n=g3 v=102
638280 Off ch=1 n=g3 v=80
638280 On ch=1 n=a3 v=102
638400 Off ch=1 n=a3 v=80
638400 On ch=1 n=a#3 v=102
638520 Off ch=1 n=a#3 v=80
638520 On ch=1 n=c4 v=102
638640 Off ch=1 n=c4 v=80
638640 On ch=1 n=a#3 v=102
638760 Off ch=1 n=a#3 v=80
638760 On ch=1 n=c4 v=102
638880 Off ch=1 n=c4 v=80
638880 On ch=1 n=d4 v=102
639000 Off ch=1 n=d4 v=80
639000 On ch=1 n=c#4 v=102
639120 Off ch=1 n=c#4 v=80
639120 On ch=1 n=d4 v=102
639240 Off ch=1 n=d4 v=80
639240 On ch=1 n=d#4 v=102
639360 Off ch=1 n=d#4 v=80
639360 On ch=1 n=f4 v=102
639480 Off ch=1 n=f4 v=80
639480 On ch=1 n=d#4 v=102
639600 Off ch=1 n=d#4 v=80
639600 On ch=1 n=f4 v=102
639720 Off ch=1 n=f4 v=80
639720 On ch=1 n=f#4 v=102
639840 Off ch=1 n=f#4 v=80
639840 On ch=1 n=g4 v=102
639960 Off ch=1 n=g4 v=80
639960 On ch=1 n=f#4 v=102
640080 Off ch=1 n=f#4 v=80
640080 On ch=1 n=g4 v=102
640200 Off ch=1 n=g4 v=80
640200 On ch=1 n=a4 v=102
640320 Off ch=1 n=a4 v=80
640320 On ch=1 n=a#4 v=117
640440 Off ch=1 n=a#4 v=80
640440 On ch=1 n=c5 v=102
640560 Off ch=1 n=c5 v=80
640560 On ch=1 n=a#4 v=102
640680 Off ch=1 n=a#4 v=80
640680 On ch=1 n=a4 v=102
640800 Off ch=1 n=a4 v=80
640800 On ch=1 n=g4 v=102
640920 Off ch=1 n=g4 v=80
640920 On ch=1 n=a4 v=102
641040 Off ch=1 n=a4 v=80
641040 On ch=1 n=g4 v=102
641160 Off ch=1 n=g4 v=80
641160 On ch=1 n=f4 v=102
641280 Off ch=1 n=f4 v=80
641280 On ch=1 n=e4 v=102
641400 Off ch=1 n=e4 v=80
641400 On ch=1 n=f4 v=102
641520 Off ch=1 n=f4 v=80
641520 On ch=1 n=e4 v=102
641640 Off ch=1 n=e4 v=80
641640 On ch=1 n=d4 v=102
641760 Off ch=1 n=d4 v=80
641760 On ch=1 n=c4 v=102
641880 Off ch=1 n=c4 v=80
641880 On ch=1 n=d4 v=102
642000 Off ch=1 n=d4 v=80
642000 On ch=1 n=c4 v=102
642120 Off ch=1 n=c4 v=80
642120 On ch=1 n=a#3 v=102
642240 Off ch=1 n=a#3 v=80
642240 On ch=1 n=a3 v=102
642360 Off ch=1 n=a3 v=80
642360 On ch=1 n=a#3 v=102
642480 Off ch=1 n=a#3 v=80
642480 On ch=1 n=a3 v=102
642600 Off ch=1 n=a3 v=80
642600 On ch=1 n=g3 v=102
642720 Off ch=1 n=g3 v=80
642720 On ch=1 n=f3 v=102
642840 Off ch=1 n=f3 v=80
642840 On ch=1 n=g3 v=102
642960 Off ch=1 n=g3 v=80
642960 On ch=1 n=f3 v=102
643080 Off ch=1 n=f3 v=80
643080 On ch=1 n=e3 v=102
643200 Off ch=1 n=e3 v=80
643200 On ch=1 n=d3 v=102
643320 Off ch=1 n=d3 v=80
643320 On ch=1 n=c#3 v=102
643440 Off ch=1 n=c#3 v=80
643440 On ch=1 n=d3 v=102
643560 Off ch=1 n=d3 v=80
643560 On ch=1 n=a#2 v=102
643680 Off ch=1 n=a#2 v=80
643680 On ch=1 n=c3 v=102
643800 Off ch=1 n=c3 v=80
643800 On ch=1 n=a#2 v=102
643920 Off ch=1 n=a#2 v=80
643920 On ch=1 n=c3 v=102
644040 Off ch=1 n=c3 v=80
644040 On ch=1 n=c2 v=102
644160 Off ch=1 n=c2 v=80
644160 On ch=1 n=f2 v=102
644280 Off ch=1 n=f2 v=80
644280 On ch=1 n=g2 v=102
644400 Off ch=1 n=g2 v=80
644400 On ch=1 n=f2 v=102
644520 Off ch=1 n=f2 v=80
644520 On ch=1 n=d#2 v=102
644640 Off ch=1 n=d#2 v=80
644640 On ch=1 n=d2 v=102
645120 Off ch=1 n=d2 v=80
645120 On ch=1 n=a#4 v=102
645240 Off ch=1 n=a#4 v=80
645240 On ch=1 n=c5 v=102
645360 Off ch=1 n=c5 v=80
645360 On ch=1 n=a#4 v=102
645480 Off ch=1 n=a#4 v=80
645480 On ch=1 n=a4 v=102
645600 Off ch=1 n=a4 v=80
645600 On ch=1 n=g4 v=102
645720 Off ch=1 n=g4 v=80
645720 On ch=1 n=a4 v=102
645840 Off ch=1 n=a4 v=80
645840 On ch=1 n=g4 v=102
645960 Off ch=1 n=g4 v=80
645960 On ch=1 n=f#4 v=102
646080 Off ch=1 n=f#4 v=80
646080 On ch=1 n=f4 v=102
646200 Off ch=1 n=f4 v=80
646200 On ch=1 n=g4 v=102
646320 Off ch=1 n=g4 v=80
646320 On ch=1 n=f4 v=102
646440 Off ch=1 n=f4 v=80
646440 On ch=1 n=d#4 v=102
646560 Off ch=1 n=d#4 v=80
646560 On ch=1 n=d4 v=102
646680 Off ch=1 n=d4 v=80
646680 On ch=1 n=d#4 v=102
646800 Off ch=1 n=d#4 v=80
646800 On ch=1 n=d4 v=102
646920 Off ch=1 n=d4 v=80
646920 On ch=1 n=c4 v=102
647040 Off ch=1 n=c4 v=80
647040 On ch=1 n=a#3 v=102
647160 Off ch=1 n=a#3 v=80
647160 On ch=1 n=c4 v=102
647280 Off ch=1 n=c4 v=80
647280 On ch=1 n=a#3 v=102
647400 Off ch=1 n=a#3 v=80
647400 On ch=1 n=a3 v=102
647520 Off ch=1 n=a3 v=80
647520 On ch=1 n=g3 v=102
647640 Off ch=1 n=g3 v=80
647640 On ch=1 n=a3 v=102
647760 Off ch=1 n=a3 v=80
647760 On ch=1 n=g3 v=102
647880 Off ch=1 n=g3 v=80
647880 On ch=1 n=f#3 v=102
648000 Off ch=1 n=f#3 v=80
648000 On ch=1 n=f3 v=102
648120 Off ch=1 n=f3 v=80
648120 On ch=1 n=g3 v=102
648240 Off ch=1 n=g3 v=80
648240 On ch=1 n=f3 v=102
648360 Off ch=1 n=f3 v=80
648360 On ch=1 n=d#3 v=102
648480 Off ch=1 n=d#3 v=80
648480 On ch=1 n=d3 v=102
648600 Off ch=1 n=d3 v=80
648600 On ch=1 n=d#3 v=102
648720 Off ch=1 n=d#3 v=80
648720 On ch=1 n=d3 v=102
648840 Off ch=1 n=d3 v=80
648840 On ch=1 n=d#3 v=102
648960 Off ch=1 n=d#3 v=80
648960 On ch=1 n=f3 v=102
649080 Off ch=1 n=f3 v=80
649080 On ch=1 n=d#3 v=102
649200 Off ch=1 n=d#3 v=80
649200 On ch=1 n=f3 v=102
649320 Off ch=1 n=f3 v=80
649320 On ch=1 n=f#3 v=102
649440 Off ch=1 n=f#3 v=80
649440 On ch=1 n=g3 v=102
649560 Off ch=1 n=g3 v=80
649560 On ch=1 n=f#3 v=102
649680 Off ch=1 n=f#3 v=80
649680 On ch=1 n=g3 v=102
649800 Off ch=1 n=g3 v=80
649800 On ch=1 n=a3 v=102
649920 Off ch=1 n=a3 v=80
649920 On ch=1 n=a#3 v=102
650040 Off ch=1 n=a#3 v=80
650040 On ch=1 n=c4 v=102
650160 Off ch=1 n=c4 v=80
650160 On ch=1 n=a#3 v=102
650280 Off ch=1 n=a#3 v=80
650280 On ch=1 n=c4 v=102
650400 Off ch=1 n=c4 v=80
650400 On ch=1 n=d4 v=102
650520 Off ch=1 n=d4 v=80
650520 On ch=1 n=c#4 v=102
650640 Off ch=1 n=c#4 v=80
650640 On ch=1 n=d4 v=102
650760 Off ch=1 n=d4 v=80
650760 On ch=1 n=d#4 v=102
650880 Off ch=1 n=d#4 v=80
650880 On ch=1 n=f4 v=102
651000 Off ch=1 n=f4 v=80
651000 On ch=1 n=d#4 v=102
651120 Off ch=1 n=d#4 v=80
651120 On ch=1 n=f4 v=102
651240 Off ch=1 n=f4 v=80
651240 On ch=1 n=f#4 v=102
651360 Off ch=1 n=f#4 v=80
651360 On ch=1 n=g4 v=102
651480 Off ch=1 n=g4 v=80
651480 On ch=1 n=f#4 v=102
651600 Off ch=1 n=f#4 v=80
651600 On ch=1 n=g4 v=102
651720 Off ch=1 n=g4 v=80
651720 On ch=1 n=a4 v=102
651840 Off ch=1 n=a4 v=80
651840 On ch=1 n=a#4 v=117
651960 Off ch=1 n=a#4 v=80
651960 On ch=1 n=c5 v=102
652080 Off ch=1 n=c5 v=80
652080 On ch=1 n=a#4 v=102
652200 Off ch=1 n=a#4 v=80
652200 On ch=1 n=a4 v=102
652320 Off ch=1 n=a4 v=80
652320 On ch=1 n=g4 v=102
652440 Off ch=1 n=g4 v=80
652440 On ch=1 n=a4 v=102
652560 Off ch=1 n=a4 v=80
652560 On ch=1 n=g4 v=102
652680 Off ch=1 n=g4 v=80
652680 On ch=1 n=f4 v=102
652800 Off ch=1 n=f4 v=80
652800 On ch=1 n=e4 v=102
652920 Off ch=1 n=e4 v=80
652920 On ch=1 n=f4 v=102
653040 Off ch=1 n=f4 v=80
653040 On ch=1 n=e4 v=102
653160 Off ch=1 n=e4 v=80
653160 On ch=1 n=d4 v=102
653280 Off ch=1 n=d4 v=80
653280 On ch=1 n=c4 v=102
653400 Off ch=1 n=c4 v=80
653400 On ch=1 n=d4 v=102
653520 Off ch=1 n=d4 v=80
653520 On ch=1 n=c4 v=102
653640 Off ch=1 n=c4 v=80
653640 On ch=1 n=a#3 v=102
653760 Off ch=1 n=a#3 v=80
653760 On ch=1 n=a3 v=102
653880 Off ch=1 n=a3 v=80
653880 On ch=1 n=a#3 v=102
654000 Off ch=1 n=a#3 v=80
654000 On ch=1 n=a3 v=102
654120 Off ch=1 n=a3 v=80
654120 On ch=1 n=g3 v=102
654240 Off ch=1 n=g3 v=80
654240 On ch=1 n=f3 v=102
654360 Off ch=1 n=f3 v=80
654360 On ch=1 n=g3 v=102
654480 Off ch=1 n=g3 v=80
654480 On ch=1 n=f3 v=102
654600 Off ch=1 n=f3 v=80
654600 On ch=1 n=e3 v=102
654720 Off ch=1 n=e3 v=80
654720 On ch=1 n=d3 v=102
654840 Off ch=1 n=d3 v=80
654840 On ch=1 n=c#3 v=102
654960 Off ch=1 n=c#3 v=80
654960 On ch=1 n=d3 v=102
655080 Off ch=1 n=d3 v=80
655080 On ch=1 n=a#2 v=102
655200 Off ch=1 n=a#2 v=80
655200 On ch=1 n=c3 v=102
655320 Off ch=1 n=c3 v=80
655320 On ch=1 n=a#2 v=102
655440 Off ch=1 n=a#2 v=80
655440 On ch=1 n=c3 v=102
655560 Off ch=1 n=c3 v=80
655560 On ch=1 n=c2 v=102
655680 Off ch=1 n=c2 v=80
655680 On ch=1 n=f2 v=102
655800 Off ch=1 n=f2 v=80
655800 On ch=1 n=g2 v=102
655920 Off ch=1 n=g2 v=80
655920 On ch=1 n=f2 v=102
656040 Off ch=1 n=f2 v=80
656040 On ch=1 n=d#2 v=102
656160 Off ch=1 n=d#2 v=80
656160 On ch=1 n=d2 v=102
656640 Off ch=1 n=d2 v=80
656640 On ch=1 n=a#4 v=102
656760 Off ch=1 n=a#4 v=80
656760 On ch=1 n=c5 v=102
656880 Off ch=1 n=c5 v=80
656880 On ch=1 n=a#4 v=102
657000 Off ch=1 n=a#4 v=80
657000 On ch=1 n=a4 v=102
657120 Off ch=1 n=a4 v=80
657120 On ch=1 n=g4 v=102
657240 Off ch=1 n=g4 v=80
657240 On ch=1 n=a4 v=102
657360 Off ch=1 n=a4 v=80
657360 On ch=1 n=g4 v=102
657480 Off ch=1 n=g4 v=80
657480 On ch=1 n=f#4 v=102
657600 Off ch=1 n=f#4 v=80
657600 On ch=1 n=f4 v=102
657720 Off ch=1 n=f4 v=80
657720 On ch=1 n=g4 v=102
657840 Off ch=1 n=g4 v=80
657840 On ch=1 n=f4 v=102
657960 Off ch=1 n=f4 v=80
657960 On ch=1 n=d#4 v=102
658080 Off ch=1 n=d#4 v=80
658080 On ch=1 n=f4 v=120
658080 On ch=1 n=a3 v=120
658080 On ch=1 n=d3 v=120
658560 Off ch=1 n=d3 v=80
658560 Off ch=1 n=a3 v=80
658560 Off ch=1 n=f4 v=80
658560 On ch=1 n=d5 v=102
658680 Off ch=1 n=d5 v=80
658680 On ch=1 n=e5 v=102
658800 Off ch=1 n=e5 v=80
658800 On ch=1 n=d5 v=102
658920 Off ch=1 n=d5 v=80
658920 On ch=1 n=c5 v=102
659040 Off ch=1 n=c5 v=80
659040 On ch=1 n=b4 v=102
659160 Off ch=1 n=b4 v=80
659160 On ch=1 n=c#5 v=102
659280 Off ch=1 n=c#5 v=80
659280 On ch=1 n=b4 v=102
659400 Off ch=1 n=b4 v=80
659400 On ch=1 n=a#4 v=102
659520 Off ch=1 n=a#4 v=80
659520 On ch=1 n=a4 v=102
659640 Off ch=1 n=a4 v=80
659640 On ch=1 n=b4 v=102
659760 Off ch=1 n=b4 v=80
659760 On ch=1 n=a4 v=102
659880 Off ch=1 n=a4 v=80
659880 On ch=1 n=g4 v=102
660000 Off ch=1 n=g4 v=80
660000 On ch=1 n=a4 v=120
660000 On ch=1 n=f3 v=120
660000 On ch=1 n=c4 v=120
660480 Off ch=1 n=c4 v=80
660480 Off ch=1 n=f3 v=80
660480 Off ch=1 n=a4 v=80
660480 On ch=1 n=f5 v=102
660600 Off ch=1 n=f5 v=80
660600 On ch=1 n=g5 v=102
660720 Off ch=1 n=g5 v=80
660720 On ch=1 n=f5 v=102
660840 Off ch=1 n=f5 v=80
660840 On ch=1 n=e5 v=102
660960 Off ch=1 n=e5 v=80
660960 On ch=1 n=d5 v=102
661080 Off ch=1 n=d5 v=80
661080 On ch=1 n=e5 v=102
661200 Off ch=1 n=e5 v=80
661200 On ch=1 n=d5 v=102
661320 Off ch=1 n=d5 v=80
661320 On ch=1 n=c#5 v=102
661440 Off ch=1 n=c#5 v=80
661440 On ch=1 n=c5 v=102
661560 Off ch=1 n=c5 v=80
661560 On ch=1 n=d5 v=102
661680 Off ch=1 n=d5 v=80
661680 On ch=1 n=c5 v=102
661800 Off ch=1 n=c5 v=80
661800 On ch=1 n=a#4 v=102
661920 Off ch=1 n=a#4 v=80
661920 On ch=1 n=a4 v=120
661920 On ch=1 n=c4 v=120
661920 On ch=1 n=f3 v=120
662400 Off ch=1 n=f3 v=80
662400 Off ch=1 n=c4 v=80
662400 Off ch=1 n=a4 v=80
662400 On ch=1 n=f5 v=102
662520 Off ch=1 n=f5 v=80
662520 On ch=1 n=g5 v=102
662640 Off ch=1 n=g5 v=80
662640 On ch=1 n=f5 v=102
662760 Off ch=1 n=f5 v=80
662760 On ch=1 n=e5 v=102
662880 Off ch=1 n=e5 v=80
662880 On ch=1 n=d5 v=102
663000 Off ch=1 n=d5 v=80
663000 On ch=1 n=e5 v=102
663120 Off ch=1 n=e5 v=80
663120 On ch=1 n=d5 v=102
663240 Off ch=1 n=d5 v=80
663240 On ch=1 n=c#5 v=102
663360 Off ch=1 n=c#5 v=80
663360 On ch=1 n=c5 v=102
663480 Off ch=1 n=c5 v=80
663480 On ch=1 n=d5 v=102
663600 Off ch=1 n=d5 v=80
663600 On ch=1 n=c5 v=102
663720 Off ch=1 n=c5 v=80
663720 On ch=1 n=a#4 v=102
663760 On ch=1 n=f3 v=102
663800 On ch=1 n=c4 v=102
663840 Off ch=1 n=a#4 v=80
663840 On ch=1 n=a4 v=102
664200 Off ch=1 n=c4 v=80
664200 On ch=1 n=c#4 v=102
664320 Off ch=1 n=f3 v=80
664320 Off ch=1 n=a4 v=80
664320 Off ch=1 n=c#4 v=80
664320 On ch=1 n=d4 v=102
664560 Off ch=1 n=d4 v=80
664560 On ch=1 n=e4 v=105
664680 Off ch=1 n=e4 v=80
664800 On ch=1 n=f4 v=108
664920 Off ch=1 n=f4 v=80
665040 On ch=1 n=f#4 v=111
665160 Off ch=1 n=f#4 v=80
665280 On ch=1 n=g4 v=114
665680 On ch=1 n=f3 v=102
665720 On ch=1 n=c4 v=102
665760 Off ch=1 n=g4 v=80
665760 On ch=1 n=a#4 v=102
666120 Off ch=1 n=a#4 v=80
666120 On ch=1 n=b4 v=102
666240 Off ch=1 n=f3 v=80
666240 Off ch=1 n=c4 v=80
666240 Off ch=1 n=b4 v=80
666240 On ch=1 n=c5 v=102
666480 Off ch=1 n=c5 v=80
666480 On ch=1 n=c#5 v=105
666600 Off ch=1 n=c#5 v=80
666720 On ch=1 n=d5 v=108
666840 Off ch=1 n=d5 v=80
666960 On ch=1 n=e5 v=111
667080 Off ch=1 n=e5 v=80
667200 On ch=1 n=f5 v=114
667600 On ch=1 n=a#3 v=102
667640 On ch=1 n=f4 v=102
667680 Off ch=1 n=f5 v=80
667680 On ch=1 n=d5 v=102
668040 Off ch=1 n=f4 v=80
668040 On ch=1 n=f#4 v=102
668160 Off ch=1 n=a#3 v=80
668160 Off ch=1 n=d5 v=80
668160 Off ch=1 n=f#4 v=80
668160 On ch=1 n=g4 v=102
668400 Off ch=1 n=g4 v=80
668400 On ch=1 n=a4 v=105
668520 Off ch=1 n=a4 v=80
668640 On ch=1 n=a#4 v=108
668760 Off ch=1 n=a#4 v=80
668880 On ch=1 n=b4 v=111
669000 Off ch=1 n=b4 v=80
669120 On ch=1 n=c5 v=114
669520 On ch=1 n=a#3 v=102
669560 On ch=1 n=f#4 v=102
669600 Off ch=1 n=c5 v=80
669600 On ch=1 n=d#5 v=102
669960 Off ch=1 n=f#4 v=80
669960 On ch=1 n=g4 v=102
670080 Off ch=1 n=a#3 v=80
670080 Off ch=1 n=d#5 v=80
670080 Off ch=1 n=g4 v=80
670080 On ch=1 n=a4 v=102
670320 Off ch=1 n=a4 v=80
670320 On ch=1 n=b4 v=105
670440 Off ch=1 n=b4 v=80
670560 On ch=1 n=c5 v=108
670680 Off ch=1 n=c5 v=80
670800 On ch=1 n=c#5 v=111
670920 Off ch=1 n=c#5 v=80
671040 On ch=1 n=d5 v=114
671440 On ch=1 n=g3 v=102
671480 On ch=1 n=d4 v=102
671520 Off ch=1 n=d5 v=80
671520 On ch=1 n=a#4 v=102
671880 Off ch=1 n=g3 v=80
671880 On ch=1 n=a3 v=102
672000 Off ch=1 n=a3 v=80
672000 On ch=1 n=a#3 v=102
672240 Off ch=1 n=d4 v=80
672240 Off ch=1 n=a#4 v=80
672240 Off ch=1 n=a#3 v=80
672240 On ch=1 n=b3 v=105
672360 Off ch=1 n=b3 v=80
672480 On ch=1 n=c4 v=108
672600 Off ch=1 n=c4 v=80
672720 On ch=1 n=d4 v=111
672840 Off ch=1 n=d4 v=80
672960 On ch=1 n=d#4 v=114
673440 Off ch=1 n=d#4 v=80
673440 On ch=1 n=d4 v=102
673440 On ch=1 n=g3 v=102
673800 Off ch=1 n=d4 v=80
673800 On ch=1 n=e4 v=102
673920 Off ch=1 n=e4 v=80
673920 On ch=1 n=f4 v=102
674160 Off ch=1 n=f4 v=80
674160 On ch=1 n=f#4 v=105
674280 Off ch=1 n=f#4 v=80
674400 Off ch=1 n=g3 v=80
674400 On ch=1 n=g4 v=108
674520 Off ch=1 n=g4 v=80
674640 On ch=1 n=a4 v=111
674760 Off ch=1 n=a4 v=80
674880 On ch=1 n=a#4 v=114
675360 Off ch=1 n=a#4 v=80
675360 On ch=1 n=d#3 v=114
675420 Off ch=1 n=d#3 v=80
675420 On ch=1 n=d#4 v=114
675480 Off ch=1 n=d#4 v=80
675480 On ch=1 n=f4 v=114
675600 Off ch=1 n=f4 v=80
675600 On ch=1 n=d#4 v=114
675720 Off ch=1 n=d#4 v=80
675720 On ch=1 n=d4 v=114
675840 Off ch=1 n=d4 v=80
675840 On ch=1 n=c4 v=114
675960 Off ch=1 n=c4 v=80
675960 On ch=1 n=d4 v=114
676080 Off ch=1 n=d4 v=80
676080 On ch=1 n=c4 v=114
676200 Off ch=1 n=c4 v=80
676200 On ch=1 n=a#3 v=114
676320 Off ch=1 n=a#3 v=80
676320 On ch=1 n=g#3 v=114
676440 Off ch=1 n=g#3 v=80
676440 On ch=1 n=a#3 v=114
676560 Off ch=1 n=a#3 v=80
676560 On ch=1 n=g#3 v=114
676680 Off ch=1 n=g#3 v=80
676680 On ch=1 n=f3 v=114
676800 Off ch=1 n=f3 v=80
676800 On ch=1 n=d#3 v=114
676920 Off ch=1 n=d#3 v=80
676920 On ch=1 n=f3 v=114
677040 Off ch=1 n=f3 v=80
677040 On ch=1 n=d#3 v=114
677160 Off ch=1 n=d#3 v=80
677160 On ch=1 n=d3 v=114
677280 Off ch=1 n=d3 v=80
677280 On ch=1 n=c3 v=114
677320 Off ch=1 n=c3 v=80
677320 On ch=1 n=c4 v=114
677400 Off ch=1 n=c4 v=80
677400 On ch=1 n=d4 v=114
677520 Off ch=1 n=d4 v=80
677520 On ch=1 n=c4 v=114
677640 Off ch=1 n=c4 v=80
677640 On ch=1 n=a#3 v=114
677760 Off ch=1 n=a#3 v=80
677760 On ch=1 n=g#3 v=114
677880 Off ch=1 n=g#3 v=80
677880 On ch=1 n=a#3 v=114
678000 Off ch=1 n=a#3 v=80
678000 On ch=1 n=g#3 v=114
678120 Off ch=1 n=g#3 v=80
678120 On ch=1 n=g3 v=114
678240 Off ch=1 n=g3 v=80
678240 On ch=1 n=f3 v=114
678360 Off ch=1 n=f3 v=80
678360 On ch=1 n=g3 v=114
678480 Off ch=1 n=g3 v=80
678480 On ch=1 n=f3 v=114
678600 Off ch=1 n=f3 v=80
678600 On ch=1 n=e3 v=114
678720 Off ch=1 n=e3 v=80
678720 On ch=1 n=d#3 v=114
678840 Off ch=1 n=d#3 v=80
678840 On ch=1 n=f3 v=114
678960 Off ch=1 n=f3 v=80
678960 On ch=1 n=d#3 v=114
679080 Off ch=1 n=d#3 v=80
679080 On ch=1 n=d3 v=114
679200 Off ch=1 n=d3 v=80
679200 On ch=1 n=c3 v=114
679320 Off ch=1 n=c3 v=80
679320 On ch=1 n=b2 v=114
679440 Off ch=1 n=b2 v=80
679440 On ch=1 n=c3 v=114
679560 Off ch=1 n=c3 v=80
679560 On ch=1 n=d3 v=114
679680 Off ch=1 n=d3 v=80
679680 On ch=1 n=d#3 v=114
679800 Off ch=1 n=d#3 v=80
679800 On ch=1 n=d3 v=114
679920 Off ch=1 n=d3 v=80
679920 On ch=1 n=d#3 v=114
680040 Off ch=1 n=d#3 v=80
680040 On ch=1 n=e3 v=114
680160 Off ch=1 n=e3 v=80
680160 On ch=1 n=f3 v=114
680280 Off ch=1 n=f3 v=80
680280 On ch=1 n=e3 v=114
680400 Off ch=1 n=e3 v=80
680400 On ch=1 n=f3 v=114
680520 Off ch=1 n=f3 v=80
680520 On ch=1 n=g3 v=114
680640 Off ch=1 n=g3 v=80
680640 On ch=1 n=a3 v=114
680760 Off ch=1 n=a3 v=80
680760 On ch=1 n=g#3 v=114
680880 Off ch=1 n=g#3 v=80
680880 On ch=1 n=a3 v=114
681000 Off ch=1 n=a3 v=80
681000 On ch=1 n=a#3 v=114
681120 Off ch=1 n=a#3 v=80
681120 On ch=1 n=c4 v=114
681240 Off ch=1 n=c4 v=80
681240 On ch=1 n=b3 v=114
681360 Off ch=1 n=b3 v=80
681360 On ch=1 n=c4 v=114
681480 Off ch=1 n=c4 v=80
681480 On ch=1 n=d4 v=114
681600 Off ch=1 n=d4 v=80
681600 On ch=1 n=d#4 v=106
681720 Off ch=1 n=d#4 v=80
681720 On ch=1 n=d4 v=106
681840 Off ch=1 n=d4 v=80
681840 On ch=1 n=d#4 v=98
681960 Off ch=1 n=d#4 v=80
681960 On ch=1 n=e4 v=98
682080 Off ch=1 n=e4 v=80
682080 On ch=1 n=f4 v=91
682200 Off ch=1 n=f4 v=80
682200 On ch=1 n=g4 v=91
682320 Off ch=1 n=g4 v=80
682320 On ch=1 n=f4 v=82
682440 Off ch=1 n=f4 v=80
682440 On ch=1 n=d#4 v=82
682560 Off ch=1 n=d#4 v=80
682560 On ch=1 n=d4 v=74
682680 Off ch=1 n=d4 v=80
682680 On ch=1 n=d#4 v=74
682800 Off ch=1 n=d#4 v=80
682800 On ch=1 n=d4 v=66
682920 Off ch=1 n=d4 v=80
682920 On ch=1 n=c4 v=66
683040 Off ch=1 n=c4 v=80
683040 On ch=1 n=d4 v=65
683040 On ch=1 n=a#3 v=65
683160 Off ch=1 n=d4 v=80
683160 On ch=1 n=d#4 v=65
683280 Off ch=1 n=d#4 v=80
683280 On ch=1 n=d4 v=65
683400 Off ch=1 n=d4 v=80
683400 On ch=1 n=c4 v=65
683520 Off ch=1 n=a#3 v=80
683520 Off ch=1 n=c4 v=80
683520 On ch=1 n=a#3 v=65
683760 Off ch=1 n=a#3 v=80
684000 On ch=1 n=g4 v=65
684120 Off ch=1 n=g4 v=80
684120 On ch=1 n=a4 v=65
684240 Off ch=1 n=a4 v=80
684240 On ch=1 n=g4 v=65
684360 Off ch=1 n=g4 v=80
684360 On ch=1 n=g#4 v=65
684480 Off ch=1 n=g#4 v=80
684480 On ch=1 n=f4 v=65
684600 Off ch=1 n=f4 v=80
684600 On ch=1 n=g4 v=65
684720 Off ch=1 n=g4 v=80
684720 On ch=1 n=f4 v=65
684840 Off ch=1 n=f4 v=80
684840 On ch=1 n=d#4 v=65
684960 Off ch=1 n=d#4 v=80
684960 On ch=1 n=d4 v=65
685080 Off ch=1 n=d4 v=80
685080 On ch=1 n=d#4 v=65
685200 Off ch=1 n=d#4 v=80
685200 On ch=1 n=d4 v=65
685320 Off ch=1 n=d4 v=80
685320 On ch=1 n=c4 v=65
685440 Off ch=1 n=c4 v=80
685440 On ch=1 n=a#3 v=65
685560 Off ch=1 n=a#3 v=80
685560 On ch=1 n=c4 v=65
685680 Off ch=1 n=c4 v=80
685680 On ch=1 n=a#3 v=65
685800 Off ch=1 n=a#3 v=80
685800 On ch=1 n=a3 v=65
685920 Off ch=1 n=a3 v=80
685920 On ch=1 n=g3 v=65
686040 Off ch=1 n=g3 v=80
686040 On ch=1 n=a3 v=65
686160 Off ch=1 n=a3 v=80
686160 On ch=1 n=g3 v=65
686280 Off ch=1 n=g3 v=80
686280 On ch=1 n=f#3 v=65
686400 Off ch=1 n=f#3 v=80
686400 On ch=1 n=f3 v=65
686520 Off ch=1 n=f3 v=80
686520 On ch=1 n=g3 v=65
686640 Off ch=1 n=g3 v=80
686640 On ch=1 n=f3 v=65
686760 Off ch=1 n=f3 v=80
686760 On ch=1 n=d#3 v=65
686880 Off ch=1 n=d#3 v=80
686880 On ch=1 n=d3 v=65
687000 Off ch=1 n=d3 v=80
687000 On ch=1 n=d#3 v=65
687120 Off ch=1 n=d#3 v=80
687120 On ch=1 n=d3 v=65
687240 Off ch=1 n=d3 v=80
687240 On ch=1 n=d#3 v=65
687360 Off ch=1 n=d#3 v=80
687360 On ch=1 n=f3 v=65
687480 Off ch=1 n=f3 v=80
687480 On ch=1 n=d#3 v=65
687600 Off ch=1 n=d#3 v=80
687600 On ch=1 n=f3 v=65
687720 Off ch=1 n=f3 v=80
687720 On ch=1 n=f#3 v=65
687840 Off ch=1 n=f#3 v=80
687840 On ch=1 n=g3 v=65
687960 Off ch=1 n=g3 v=80
687960 On ch=1 n=f#3 v=65
688080 Off ch=1 n=f#3 v=80
688080 On ch=1 n=g3 v=65
688200 Off ch=1 n=g3 v=80
688200 On ch=1 n=a3 v=65
688320 Off ch=1 n=a3 v=80
688320 On ch=1 n=a#3 v=65
688440 Off ch=1 n=a#3 v=80
688440 On ch=1 n=c4 v=65
688560 Off ch=1 n=c4 v=80
688560 On ch=1 n=a#3 v=65
688680 Off ch=1 n=a#3 v=80
688680 On ch=1 n=c4 v=65
688800 Off ch=1 n=c4 v=80
688800 On ch=1 n=d4 v=65
688920 Off ch=1 n=d4 v=80
688920 On ch=1 n=c#4 v=65
689040 Off ch=1 n=c#4 v=80
689040 On ch=1 n=d4 v=65
689160 Off ch=1 n=d4 v=80
689160 On ch=1 n=d#4 v=65
689280 Off ch=1 n=d#4 v=80
689280 On ch=1 n=f4 v=65
689400 Off ch=1 n=f4 v=80
689400 On ch=1 n=d#4 v=65
689520 Off ch=1 n=d#4 v=80
689520 On ch=1 n=f4 v=65
689640 Off ch=1 n=f4 v=80
689640 On ch=1 n=f#4 v=65
689760 Off ch=1 n=f#4 v=80
689760 On ch=1 n=g4 v=65
689880 Off ch=1 n=g4 v=80
689880 On ch=1 n=f#4 v=65
690000 Off ch=1 n=f#4 v=80
690000 On ch=1 n=g4 v=65
690120 Off ch=1 n=g4 v=80
690120 On ch=1 n=a4 v=65
690240 Off ch=1 n=a4 v=80
690240 On ch=1 n=a#4 v=65
690360 On ch=1 n=c5 v=65
690480 Off ch=1 n=c5 v=80
690480 Off ch=1 n=a#4 v=80
690480 On ch=1 n=a#4 v=65
690600 Off ch=1 n=a#4 v=80
690600 On ch=1 n=a4 v=65
690720 Off ch=1 n=a4 v=80
690720 On ch=1 n=a#4 v=65
690720 On ch=1 n=f4 v=65
690840 Off ch=1 n=a#4 v=80
690840 On ch=1 n=c5 v=65
690960 Off ch=1 n=c5 v=80
690960 On ch=1 n=a#4 v=65
691080 Off ch=1 n=a#4 v=80
691080 On ch=1 n=a4 v=65
691200 Off ch=1 n=a4 v=80
691200 On ch=1 n=a#4 v=65
691320 Off ch=1 n=a#4 v=80
691320 On ch=1 n=c5 v=65
691440 Off ch=1 n=c5 v=80
691440 On ch=1 n=a#4 v=65
691560 Off ch=1 n=a#4 v=80
691560 On ch=1 n=a4 v=65
691680 Off ch=1 n=a4 v=80
691680 On ch=1 n=a#4 v=65
691800 Off ch=1 n=a#4 v=80
691800 On ch=1 n=c5 v=65
691920 Off ch=1 n=c5 v=80
691920 On ch=1 n=a#4 v=65
692040 Off ch=1 n=f4 v=80
692040 Off ch=1 n=a#4 v=80
692040 On ch=1 n=a4 v=65
692040 On ch=1 n=f4 v=65
692160 Off ch=1 n=f4 v=80
692160 Off ch=1 n=a4 v=80
692160 On ch=1 n=a#4 v=65
692160 On ch=1 n=f4 v=65
692280 Off ch=1 n=a#4 v=80
692280 On ch=1 n=c5 v=65
692400 Off ch=1 n=f4 v=80
692400 Off ch=1 n=c5 v=80
692400 On ch=1 n=a#4 v=65
692520 Off ch=1 n=a#4 v=80
692520 On ch=1 n=a4 v=65
692640 Off ch=1 n=a4 v=80
692640 On ch=1 n=a#4 v=53
692640 On ch=1 n=f4 v=53
692760 Off ch=1 n=a#4 v=80
692760 On ch=1 n=c5 v=53
692880 Off ch=1 n=c5 v=80
692880 On ch=1 n=a#4 v=53
693000 Off ch=1 n=a#4 v=80
693000 On ch=1 n=a4 v=53
693120 Off ch=1 n=a4 v=80
693120 On ch=1 n=a#4 v=53
693240 Off ch=1 n=a#4 v=80
693240 On ch=1 n=c5 v=53
693360 Off ch=1 n=c5 v=80
693360 On ch=1 n=a#4 v=53
693480 Off ch=1 n=a#4 v=80
693480 On ch=1 n=a4 v=53
693600 Off ch=1 n=a4 v=80
693600 On ch=1 n=a#4 v=53
693720 Off ch=1 n=a#4 v=80
693720 On ch=1 n=c5 v=53
693840 Off ch=1 n=c5 v=80
693840 On ch=1 n=a#4 v=53
693960 Off ch=1 n=f4 v=80
693960 Off ch=1 n=a#4 v=80
693960 On ch=1 n=a4 v=53
693960 On ch=1 n=f4 v=53
694080 Off ch=1 n=f4 v=80
694080 Off ch=1 n=a4 v=80
694080 On ch=1 n=a#4 v=53
694080 On ch=1 n=f4 v=53
694200 Off ch=1 n=a#4 v=80
694200 On ch=1 n=c5 v=53
694320 Off ch=1 n=f4 v=80
694320 Off ch=1 n=c5 v=80
694320 On ch=1 n=a#4 v=53
694440 Off ch=1 n=a#4 v=80
694440 On ch=1 n=a4 v=53
694560 Off ch=1 n=a4 v=80
694560 On ch=1 n=a#4 v=53
694560 On ch=1 n=f4 v=53
694680 Off ch=1 n=a#4 v=80
694680 On ch=1 n=c5 v=53
694800 Off ch=1 n=c5 v=80
694800 On ch=1 n=a#4 v=53
694920 Off ch=1 n=a#4 v=80
694920 On ch=1 n=a4 v=53
695040 Off ch=1 n=a4 v=80
695040 On ch=1 n=a#4 v=53
695136 Off ch=1 n=a#4 v=80
695136 On ch=1 n=c5 v=53
695232 Off ch=1 n=c5 v=80
695232 On ch=1 n=a#4 v=53
695328 Off ch=1 n=a#4 v=80
695328 On ch=1 n=a4 v=53
695424 Off ch=1 n=a4 v=80
695424 On ch=1 n=a#4 v=53
695520 Off ch=1 n=f4 v=80
695520 Off ch=1 n=a#4 v=80
695520 On ch=1 n=c5 v=53
695760 Off ch=1 n=c5 v=80
695760 On ch=1 n=d#4 v=53
695910 On ch=1 n=a#2 v=53
696000 Off ch=1 n=a#2 v=80
696000 Off ch=1 n=d#4 v=80
696000 On ch=1 n=d4 v=53
696360 Off ch=1 n=d4 v=80
696360 On ch=1 n=f4 v=96
696480 On ch=1 n=a#4 v=102
696600 Off ch=1 n=a#4 v=80
696720 On ch=1 n=c5 v=108
696840 Off ch=1 n=c5 v=80
696960 On ch=1 n=d5 v=99
697440 Off ch=1 n=f4 v=80
697440 Off ch=1 n=d5 v=80
697440 On ch=1 n=c5 v=82
697440 On ch=1 n=f#4 v=82
697680 Off ch=1 n=f#4 v=80
697680 Off ch=1 n=c5 v=80
697680 On ch=1 n=a#4 v=73
697680 On ch=1 n=g4 v=73
697920 Off ch=1 n=g4 v=80
697920 Off ch=1 n=a#4 v=80
697920 On ch=1 n=g2 v=65
698400 Off ch=1 n=g2 v=80
699840 On ch=1 n=g4 v=65
700320 On ch=1 n=a4 v=65
700560 Off ch=1 n=a4 v=80
700560 On ch=1 n=a#4 v=65
700800 Off ch=1 n=a#4 v=80
700800 On ch=1 n=d5 v=65
701280 Off ch=1 n=d5 v=80
701280 On ch=1 n=c5 v=65
701520 Off ch=1 n=c5 v=80
701520 On ch=1 n=a#4 v=65
701760 Off ch=1 n=g4 v=80
701760 Off ch=1 n=a#4 v=80
701760 On ch=1 n=a3 v=65
702000 Off ch=1 n=a3 v=80
702240 On ch=1 n=g#4 v=65
702480 Off ch=1 n=g#4 v=80
702480 On ch=1 n=a4 v=65
702720 Off ch=1 n=a4 v=80
702720 On ch=1 n=a2 v=65
702960 Off ch=1 n=a2 v=80
703200 On ch=1 n=b4 v=65
703440 Off ch=1 n=b4 v=80
703440 On ch=1 n=c#5 v=65
703680 Off ch=1 n=c#5 v=80
703680 On ch=1 n=d3 v=65
703920 Off ch=1 n=d3 v=80
704160 On ch=1 n=g#4 v=71
704400 Off ch=1 n=g#4 v=80
704400 On ch=1 n=a4 v=77
704640 Off ch=1 n=a4 v=80
704640 On ch=1 n=d#5 v=83
705120 Off ch=1 n=d#5 v=80
705120 On ch=1 n=d5 v=77
705360 Off ch=1 n=d5 v=80
705360 On ch=1 n=c5 v=71
705600 Off ch=1 n=c5 v=80
705600 On ch=1 n=g2 v=65
705600 On ch=1 n=g3 v=65
705840 Off ch=1 n=g3 v=80
705840 Off ch=1 n=g2 v=80
707520 On ch=1 n=g3 v=90
708000 Off ch=1 n=g3 v=80
708000 On ch=1 n=a4 v=90
708240 Off ch=1 n=a4 v=80
708240 On ch=1 n=a#4 v=90
708480 Off ch=1 n=a#4 v=80
708480 On ch=1 n=d5 v=90
708960 Off ch=1 n=d5 v=80
708960 On ch=1 n=c5 v=90
709200 Off ch=1 n=c5 v=80
709200 On ch=1 n=a#4 v=102
709440 Off ch=1 n=a#4 v=80
709440 On ch=1 n=d3 v=102
709920 Off ch=1 n=d3 v=80
709920 On ch=1 n=g4 v=102
710280 On ch=1 n=a4 v=102
710400 Off ch=1 n=a4 v=80
710400 On ch=1 n=a#4 v=102
710600 Off ch=1 n=a#4 v=80
710640 On ch=1 n=c5 v=102
710840 Off ch=1 n=c5 v=80
710880 Off ch=1 n=g4 v=80
710880 On ch=1 n=d5 v=102
710880 On ch=1 n=d3 v=102
711120 Off ch=1 n=d5 v=80
711120 On ch=1 n=c5 v=102
711360 Off ch=1 n=d3 v=80
711360 Off ch=1 n=c5 v=80
711360 On ch=1 n=g3 v=102
711840 Off ch=1 n=g3 v=80
711840 On ch=1 n=d4 v=102
712200 On ch=1 n=g4 v=102
712320 Off ch=1 n=g4 v=80
712320 On ch=1 n=a#4 v=102
712800 Off ch=1 n=d4 v=80
712800 Off ch=1 n=a#4 v=80
713280 On ch=1 n=a2 v=90
713280 On ch=1 n=a3 v=90
713760 Off ch=1 n=a3 v=80
713760 Off ch=1 n=a2 v=80
713760 On ch=1 n=g4 v=90
714000 Off ch=1 n=g4 v=80
714000 On ch=1 n=f#4 v=90
714240 Off ch=1 n=f#4 v=80
714240 On ch=1 n=f4 v=96
714480 On ch=1 n=f3 v=96
714720 Off ch=1 n=f3 v=80
714720 On ch=1 n=c4 v=102
714960 Off ch=1 n=c4 v=80
714960 On ch=1 n=d#4 v=102
715200 Off ch=1 n=f4 v=80
715200 Off ch=1 n=d#4 v=80
715200 On ch=1 n=f4 v=123
715440 On ch=1 n=d#5 v=108
715680 Off ch=1 n=d#5 v=80
715680 On ch=1 n=d5 v=108
715920 Off ch=1 n=d5 v=80
715920 On ch=1 n=c#5 v=108
716160 Off ch=1 n=f4 v=80
716160 Off ch=1 n=c#5 v=80
716160 On ch=1 n=c5 v=108
716640 Off ch=1 n=c5 v=80
717120 On ch=1 n=f2 v=90
717120 On ch=1 n=f3 v=90
717600 Off ch=1 n=f3 v=80
717600 Off ch=1 n=f2 v=80
717600 On ch=1 n=a4 v=90
717840 Off ch=1 n=a4 v=80
717840 On ch=1 n=g#4 v=90
718080 Off ch=1 n=g#4 v=80
718080 On ch=1 n=g4 v=96
718320 On ch=1 n=b3 v=96
718560 Off ch=1 n=b3 v=80
718560 On ch=1 n=d4 v=102
718800 Off ch=1 n=d4 v=80
718800 On ch=1 n=f4 v=102
719040 Off ch=1 n=g4 v=80
719040 Off ch=1 n=f4 v=80
719040 On ch=1 n=g4 v=123
719280 On ch=1 n=f5 v=108
719520 Off ch=1 n=f5 v=80
719520 On ch=1 n=e5 v=108
719760 Off ch=1 n=e5 v=80
719760 On ch=1 n=d#5 v=108
720000 Off ch=1 n=g4 v=80
720000 Off ch=1 n=d#5 v=80
720000 On ch=1 n=d5 v=108
720480 Off ch=1 n=d5 v=80
720960 On ch=1 n=c4 v=65
720960 On ch=1 n=c3 v=65
721440 Off ch=1 n=c3 v=80
721440 Off ch=1 n=c4 v=80
721440 On ch=1 n=d6 v=65
721440 On ch=1 n=f#5 v=65
721680 Off ch=1 n=f#5 v=80
721680 Off ch=1 n=d6 v=80
721680 On ch=1 n=g5 v=65
721680 On ch=1 n=d#6 v=65
721920 Off ch=1 n=d#6 v=80
721920 Off ch=1 n=g5 v=80
721920 On ch=1 n=f6 v=65
721920 On ch=1 n=g#5 v=65
722400 Off ch=1 n=g#5 v=80
722400 Off ch=1 n=f6 v=80
722400 On ch=1 n=d#6 v=65
722400 On ch=1 n=g5 v=65
722640 Off ch=1 n=g5 v=80
722640 Off ch=1 n=d#6 v=80
722640 On ch=1 n=f5 v=65
722640 On ch=1 n=d6 v=65
722880 Off ch=1 n=d6 v=80
722880 Off ch=1 n=f5 v=80
722880 On ch=1 n=d6 v=65
722880 On ch=1 n=f5 v=65
723120 Off ch=1 n=f5 v=80
723120 Off ch=1 n=d6 v=80
723120 On ch=1 n=d#5 v=65
723120 On ch=1 n=c6 v=65
723360 Off ch=1 n=c6 v=80
723360 Off ch=1 n=d#5 v=80
723360 On ch=1 n=d6 v=65
723360 On ch=1 n=f5 v=65
723600 Off ch=1 n=f5 v=80
723600 Off ch=1 n=d6 v=80
723600 On ch=1 n=g5 v=65
723600 On ch=1 n=d#6 v=65
723840 Off ch=1 n=d#6 v=80
723840 Off ch=1 n=g5 v=80
723840 On ch=1 n=g5 v=65
723840 On ch=1 n=c5 v=65
724320 Off ch=1 n=c5 v=80
724320 Off ch=1 n=g5 v=80
724320 On ch=1 n=f4 v=65
724320 On ch=1 n=f5 v=65
724800 Off ch=1 n=f5 v=80
724800 On ch=1 n=a#3 v=65
725280 Off ch=1 n=f4 v=80
725280 Off ch=1 n=a#3 v=80
725280 On ch=1 n=a4 v=65
725280 On ch=1 n=f#5 v=65
725520 Off ch=1 n=f#5 v=80
725520 Off ch=1 n=a4 v=80
725520 On ch=1 n=g5 v=65
725520 On ch=1 n=a#4 v=65
725700 On ch=1 n=c4 v=65
725760 Off ch=1 n=c4 v=80
725760 Off ch=1 n=a#4 v=80
725760 Off ch=1 n=g5 v=80
725760 On ch=1 n=f5 v=65
725760 On ch=1 n=d6 v=65
726000 Off ch=1 n=d6 v=80
726000 On ch=1 n=c#6 v=65
726240 Off ch=1 n=f5 v=80
726240 Off ch=1 n=c#6 v=80
726240 On ch=1 n=c6 v=65
726240 On ch=1 n=c5 v=65
726240 On ch=1 n=e5 v=65
726480 Off ch=1 n=c6 v=80
726480 On ch=1 n=a#5 v=65
726620 Off ch=1 n=c5 v=80
726620 Off ch=1 n=e5 v=80
726640 On ch=1 n=f4 v=65
726680 Off ch=1 n=f4 v=80
726680 On ch=1 n=c5 v=65
726720 Off ch=1 n=a#5 v=80
726720 Off ch=1 n=c5 v=80
726720 On ch=1 n=a5 v=65
726960 Off ch=1 n=a5 v=80
726960 On ch=1 n=g#5 v=65
727200 Off ch=1 n=g#5 v=80
727200 On ch=1 n=g5 v=65
727440 Off ch=1 n=g5 v=80
727440 On ch=1 n=f5 v=65
727680 Off ch=1 n=f5 v=80
727680 On ch=1 n=e5 v=71
727920 Off ch=1 n=e5 v=80
727920 On ch=1 n=d#5 v=77
728160 Off ch=1 n=d#5 v=80
728160 On ch=1 n=d5 v=83
728400 Off ch=1 n=d5 v=80
728400 On ch=1 n=d4 v=86
728400 On ch=1 n=c5 v=86
728640 Off ch=1 n=c5 v=80
728640 Off ch=1 n=d4 v=80
728640 On ch=1 n=g2 v=65
729120 Off ch=1 n=g2 v=80
730560 On ch=1 n=g4 v=65
731040 On ch=1 n=a4 v=65
731280 Off ch=1 n=a4 v=80
731280 On ch=1 n=a#4 v=65
731520 Off ch=1 n=a#4 v=80
731520 On ch=1 n=d5 v=65
732000 Off ch=1 n=d5 v=80
732000 On ch=1 n=c5 v=65
732240 Off ch=1 n=c5 v=80
732240 On ch=1 n=a#4 v=65
732480 Off ch=1 n=g4 v=80
732480 Off ch=1 n=a#4 v=80
732480 On ch=1 n=a3 v=65
732720 Off ch=1 n=a3 v=80
732960 On ch=1 n=g#4 v=65
733200 Off ch=1 n=g#4 v=80
733200 On ch=1 n=a4 v=65
733440 Off ch=1 n=a4 v=80
733440 On ch=1 n=a2 v=65
733680 Off ch=1 n=a2 v=80
733920 On ch=1 n=b4 v=65
734160 Off ch=1 n=b4 v=80
734160 On ch=1 n=c#5 v=65
734400 Off ch=1 n=c#5 v=80
734400 On ch=1 n=d3 v=65
734640 Off ch=1 n=d3 v=80
734880 On ch=1 n=g#4 v=71
735120 Off ch=1 n=g#4 v=80
735120 On ch=1 n=a4 v=77
735360 Off ch=1 n=a4 v=80
735360 On ch=1 n=d#5 v=83
735840 Off ch=1 n=d#5 v=80
735840 On ch=1 n=d5 v=77
736080 Off ch=1 n=d5 v=80
736080 On ch=1 n=c5 v=71
736320 Off ch=1 n=c5 v=80
736320 On ch=1 n=g3 v=65
736320 On ch=1 n=g2 v=65
736800 Off ch=1 n=g2 v=80
736800 Off ch=1 n=g3 v=80
738240 On ch=1 n=g3 v=90
738720 Off ch=1 n=g3 v=80
738720 On ch=1 n=a4 v=90
738960 Off ch=1 n=a4 v=80
738960 On ch=1 n=a#4 v=90
739200 Off ch=1 n=a#4 v=80
739200 On ch=1 n=d5 v=90
739680 Off ch=1 n=d5 v=80
739680 On ch=1 n=c5 v=90
739920 Off ch=1 n=c5 v=80
739920 On ch=1 n=a#4 v=102
740160 Off ch=1 n=a#4 v=80
740160 On ch=1 n=d3 v=102
740640 Off ch=1 n=d3 v=80
740640 On ch=1 n=g4 v=102
741000 On ch=1 n=a4 v=102
741120 Off ch=1 n=a4 v=80
741120 On ch=1 n=a#4 v=102
741320 Off ch=1 n=a#4 v=80
741360 On ch=1 n=c5 v=102
741560 Off ch=1 n=c5 v=80
741600 Off ch=1 n=g4 v=80
741600 On ch=1 n=d5 v=102
741600 On ch=1 n=d3 v=102
741840 Off ch=1 n=d5 v=80
741840 On ch=1 n=c5 v=102
742080 Off ch=1 n=d3 v=80
742080 Off ch=1 n=c5 v=80
742080 On ch=1 n=g3 v=102
742560 Off ch=1 n=g3 v=80
742560 On ch=1 n=d4 v=102
742920 On ch=1 n=g4 v=102
743040 Off ch=1 n=g4 v=80
743040 On ch=1 n=a#4 v=102
743520 Off ch=1 n=d4 v=80
743520 Off ch=1 n=a#4 v=80
744000 On ch=1 n=g2 v=53
744480 Off ch=1 n=g2 v=80
744720 On ch=1 n=a#4 v=53
744960 Off ch=1 n=a#4 v=80
744960 On ch=1 n=g#4 v=57
745200 On ch=1 n=d#4 v=57
745440 Off ch=1 n=d#4 v=80
745440 On ch=1 n=c4 v=61
745680 Off ch=1 n=c4 v=80
745680 On ch=1 n=d#4 v=61
745920 Off ch=1 n=g#4 v=80
745920 Off ch=1 n=d#4 v=80
745920 On ch=1 n=g#4 v=65
746160 On ch=1 n=c5 v=65
746400 Off ch=1 n=c5 v=80
746400 On ch=1 n=d#5 v=53
746640 Off ch=1 n=d#5 v=80
746640 On ch=1 n=c5 v=53
746880 Off ch=1 n=g#4 v=80
746880 Off ch=1 n=c5 v=80
746880 On ch=1 n=g#4 v=61
747360 Off ch=1 n=g#4 v=80
747360 On ch=1 n=a4 v=57
747360 On ch=1 n=d#4 v=57
747600 Off ch=1 n=d#4 v=80
747600 On ch=1 n=c4 v=57
747840 Off ch=1 n=a4 v=80
747840 Off ch=1 n=c4 v=80
747840 On ch=1 n=d4 v=53
747840 On ch=1 n=g3 v=53
748800 Off ch=1 n=g3 v=80
748800 Off ch=1 n=d4 v=80
749760 On ch=1 n=a#2 v=65
750480 Off ch=1 n=a#2 v=80
750480 On ch=1 n=f3 v=65
750480 On ch=1 n=d4 v=65
750720 Off ch=1 n=d4 v=80
750720 Off ch=1 n=f3 v=80
750720 On ch=1 n=c3 v=65
751440 Off ch=1 n=c3 v=80
751440 On ch=1 n=f3 v=65
751440 On ch=1 n=d#4 v=65
751680 Off ch=1 n=d#4 v=80
751680 Off ch=1 n=f3 v=80
751680 On ch=1 n=d3 v=65
752400 On ch=1 n=f4 v=65
752400 On ch=1 n=a#3 v=65
753360 Off ch=1 n=a#3 v=80
753360 On ch=1 n=g#3 v=65
753600 Off ch=1 n=f4 v=80
753600 Off ch=1 n=d3 v=80
753600 Off ch=1 n=g#3 v=80
753600 On ch=1 n=g3 v=65
753600 On ch=1 n=d#3 v=65
754320 Off ch=1 n=d#3 v=80
754320 Off ch=1 n=g3 v=80
754320 On ch=1 n=c4 v=65
754320 On ch=1 n=g4 v=65
754560 Off ch=1 n=g4 v=80
754560 Off ch=1 n=c4 v=80
754560 On ch=1 n=g3 v=65
755280 Off ch=1 n=g3 v=80
755280 On ch=1 n=f4 v=83
755280 On ch=1 n=b4 v=83
755520 Off ch=1 n=b4 v=80
755520 Off ch=1 n=f4 v=80
755520 On ch=1 n=g#4 v=90
755520 On ch=1 n=d5 v=90
755520 On ch=1 n=c4 v=90
756480 Off ch=1 n=d5 v=80
756480 Off ch=1 n=g#4 v=80
756480 On ch=1 n=c5 v=65
756480 On ch=1 n=g4 v=65
756720 Off ch=1 n=g4 v=80
756720 Off ch=1 n=c4 v=80
756720 Off ch=1 n=c5 v=80
756720 On ch=1 n=a#4 v=65
756720 On ch=1 n=f#4 v=65
756840 Off ch=1 n=f#4 v=80
756840 Off ch=1 n=a#4 v=80
756960 On ch=1 n=a4 v=65
756960 On ch=1 n=f4 v=65
757080 Off ch=1 n=f4 v=80
757080 Off ch=1 n=a4 v=80
757200 On ch=1 n=f4 v=65
757200 On ch=1 n=c5 v=65
757200 On ch=1 n=d#5 v=65
757320 Off ch=1 n=d#5 v=80
757320 Off ch=1 n=c5 v=80
757320 Off ch=1 n=f4 v=80
757440 On ch=1 n=a#3 v=65
758160 Off ch=1 n=a#3 v=80
758160 On ch=1 n=f4 v=65
758160 On ch=1 n=d5 v=65
758400 Off ch=1 n=d5 v=80
758400 Off ch=1 n=f4 v=80
758400 On ch=1 n=c4 v=65
759120 Off ch=1 n=c4 v=80
759120 On ch=1 n=f4 v=65
759120 On ch=1 n=d#5 v=65
759120 On ch=1 n=a4 v=65
759360 Off ch=1 n=a4 v=80
759360 Off ch=1 n=d#5 v=80
759360 Off ch=1 n=f4 v=80
759360 On ch=1 n=d4 v=65
760080 On ch=1 n=f5 v=65
760080 On ch=1 n=a#4 v=65
760080 On ch=1 n=f4 v=65
761040 Off ch=1 n=a#4 v=80
761040 On ch=1 n=g#4 v=65
761280 Off ch=1 n=f5 v=80
761280 Off ch=1 n=d4 v=80
761280 Off ch=1 n=f4 v=80
761280 Off ch=1 n=g#4 v=80
761280 On ch=1 n=g4 v=65
761280 On ch=1 n=d#4 v=65
762000 Off ch=1 n=d#4 v=80
762000 Off ch=1 n=g4 v=80
762000 On ch=1 n=c5 v=65
762000 On ch=1 n=g5 v=65
762180 Off ch=1 n=g5 v=80
762180 Off ch=1 n=c5 v=80
762240 On ch=1 n=e4 v=65
762960 Off ch=1 n=e4 v=80
762960 On ch=1 n=a#4 v=83
762960 On ch=1 n=c#5 v=65
762960 On ch=1 n=g5 v=83
763140 Off ch=1 n=g5 v=80
763140 Off ch=1 n=c#5 v=80
763140 Off ch=1 n=a#4 v=80
763200 On ch=1 n=f4 v=65
764640 Off ch=1 n=f4 v=80
765120 On ch=1 n=a#2 v=65
765840 Off ch=1 n=a#2 v=80
765840 On ch=1 n=f3 v=65
765840 On ch=1 n=d4 v=65
766080 Off ch=1 n=d4 v=80
766080 Off ch=1 n=f3 v=80
766080 On ch=1 n=c3 v=65
766800 Off ch=1 n=c3 v=80
766800 On ch=1 n=f3 v=65
766800 On ch=1 n=d#4 v=65
767040 Off ch=1 n=d#4 v=80
767040 Off ch=1 n=f3 v=80
767040 On ch=1 n=d3 v=65
767760 On ch=1 n=f4 v=65
767760 On ch=1 n=a#3 v=65
768720 Off ch=1 n=a#3 v=80
768720 On ch=1 n=g#3 v=65
768960 Off ch=1 n=f4 v=80
768960 Off ch=1 n=d3 v=80
768960 Off ch=1 n=g#3 v=80
768960 On ch=1 n=g3 v=65
768960 On ch=1 n=d#3 v=65
769680 Off ch=1 n=d#3 v=80
769680 Off ch=1 n=g3 v=80
769680 On ch=1 n=c4 v=65
769680 On ch=1 n=g4 v=65
769920 Off ch=1 n=g4 v=80
769920 Off ch=1 n=c4 v=80
769920 On ch=1 n=g3 v=65
770640 Off ch=1 n=g3 v=80
770640 On ch=1 n=f4 v=83
770640 On ch=1 n=b4 v=83
770880 Off ch=1 n=b4 v=80
770880 Off ch=1 n=f4 v=80
770880 On ch=1 n=g#4 v=90
770880 On ch=1 n=d5 v=90
770880 On ch=1 n=c4 v=90
771840 Off ch=1 n=d5 v=80
771840 Off ch=1 n=g#4 v=80
771840 On ch=1 n=c5 v=65
771840 On ch=1 n=g4 v=65
772080 Off ch=1 n=g4 v=80
772080 Off ch=1 n=c4 v=80
772080 Off ch=1 n=c5 v=80
772080 On ch=1 n=a#4 v=65
772080 On ch=1 n=f#4 v=65
772200 Off ch=1 n=f#4 v=80
772200 Off ch=1 n=a#4 v=80
772320 On ch=1 n=a4 v=65
772320 On ch=1 n=f4 v=65
772440 Off ch=1 n=f4 v=80
772440 Off ch=1 n=a4 v=80
772560 On ch=1 n=f4 v=65
772560 On ch=1 n=c5 v=65
772560 On ch=1 n=d#5 v=65
772680 Off ch=1 n=d#5 v=80
772680 Off ch=1 n=c5 v=80
772680 Off ch=1 n=f4 v=80
772800 On ch=1 n=a#3 v=65
773520 Off ch=1 n=a#3 v=80
773520 On ch=1 n=f4 v=65
773520 On ch=1 n=d5 v=65
773760 Off ch=1 n=d5 v=80
773760 Off ch=1 n=f4 v=80
773760 On ch=1 n=c4 v=65
774480 Off ch=1 n=c4 v=80
774480 On ch=1 n=f4 v=65
774480 On ch=1 n=d#5 v=65
774480 On ch=1 n=a4 v=65
774720 Off ch=1 n=a4 v=80
774720 Off ch=1 n=d#5 v=80
774720 Off ch=1 n=f4 v=80
774720 On ch=1 n=d4 v=65
775440 On ch=1 n=f5 v=65
775440 On ch=1 n=a#4 v=65
775440 On ch=1 n=f4 v=65
776400 Off ch=1 n=a#4 v=80
776400 On ch=1 n=g#4 v=65
776640 Off ch=1 n=f5 v=80
776640 Off ch=1 n=d4 v=80
776640 Off ch=1 n=f4 v=80
776640 Off ch=1 n=g#4 v=80
776640 On ch=1 n=g4 v=65
776640 On ch=1 n=d#4 v=65
777360 Off ch=1 n=d#4 v=80
777360 Off ch=1 n=g4 v=80
777360 On ch=1 n=c5 v=65
777360 On ch=1 n=g5 v=65
777540 Off ch=1 n=g5 v=80
777540 Off ch=1 n=c5 v=80
777600 On ch=1 n=e4 v=65
778320 Off ch=1 n=e4 v=80
778320 On ch=1 n=a#4 v=83
778320 On ch=1 n=c#5 v=65
778320 On ch=1 n=g5 v=83
778500 Off ch=1 n=g5 v=80
778500 Off ch=1 n=c#5 v=80
778500 Off ch=1 n=a#4 v=80
778560 On ch=1 n=f4 v=65
780000 Off ch=1 n=f4 v=80
780720 On ch=1 n=c4 v=90
780720 On ch=1 n=c3 v=90
780900 Off ch=1 n=c3 v=80
780900 Off ch=1 n=c4 v=80
781200 On ch=1 n=c#4 v=90
781200 On ch=1 n=c#3 v=90
781380 Off ch=1 n=c#3 v=80
781380 Off ch=1 n=c#4 v=80
781680 On ch=1 n=d4 v=90
781680 On ch=1 n=d3 v=90
781860 Off ch=1 n=d3 v=80
781860 Off ch=1 n=d4 v=80
781920 On ch=1 n=d#3 v=90
781920 On ch=1 n=d#4 v=90
782100 Off ch=1 n=d#4 v=80
782100 Off ch=1 n=d#3 v=80
782640 On ch=1 n=f#4 v=90
782640 On ch=1 n=f#3 v=90
782820 Off ch=1 n=f#3 v=80
782820 Off ch=1 n=f#4 v=80
783120 On ch=1 n=g3 v=90
783120 On ch=1 n=g4 v=90
783300 Off ch=1 n=g4 v=80
783300 Off ch=1 n=g3 v=80
783600 On ch=1 n=a4 v=90
783600 On ch=1 n=a3 v=90
783780 Off ch=1 n=a3 v=80
783780 Off ch=1 n=a4 v=80
783840 On ch=1 n=a#4 v=90
783840 On ch=1 n=a#3 v=90
784020 Off ch=1 n=a#3 v=80
784020 Off ch=1 n=a#4 v=80
784560 On ch=1 n=c5 v=93
784560 On ch=1 n=c4 v=93
784740 Off ch=1 n=c4 v=80
784740 Off ch=1 n=c5 v=80
785040 On ch=1 n=d4 v=93
785040 On ch=1 n=d5 v=93
785220 Off ch=1 n=d5 v=80
785220 Off ch=1 n=d4 v=80
785520 On ch=1 n=d#4 v=96
785520 On ch=1 n=d#5 v=96
785700 Off ch=1 n=d#5 v=80
785700 Off ch=1 n=d#4 v=80
785760 On ch=1 n=d5 v=96
785760 On ch=1 n=d4 v=96
785940 Off ch=1 n=d4 v=80
785940 Off ch=1 n=d5 v=80
786480 On ch=1 n=c5 v=99
786480 On ch=1 n=c4 v=99
786660 Off ch=1 n=c4 v=80
786660 Off ch=1 n=c5 v=80
786960 On ch=1 n=c#4 v=99
786960 On ch=1 n=c#5 v=99
787140 Off ch=1 n=c#5 v=80
787140 Off ch=1 n=c#4 v=80
787216 On ch=1 n=d4 v=102
787216 On ch=1 n=d5 v=102
787396 Off ch=1 n=d5 v=80
787396 Off ch=1 n=d4 v=80
787920 On ch=1 n=a#2 v=102
787920 On ch=1 n=a#3 v=102
788100 Off ch=1 n=a#3 v=80
788100 Off ch=1 n=a#2 v=80
788160 On ch=1 n=c4 v=93
788160 On ch=1 n=c3 v=93
788340 Off ch=1 n=c3 v=80
788340 Off ch=1 n=c4 v=80
788640 On ch=1 n=c#4 v=93
788640 On ch=1 n=c#3 v=93
788820 Off ch=1 n=c#3 v=80
788820 Off ch=1 n=c#4 v=80
789120 On ch=1 n=d4 v=96
789120 On ch=1 n=d3 v=96
789300 Off ch=1 n=d3 v=80
789300 Off ch=1 n=d4 v=80
789840 On ch=1 n=e3 v=96
789840 On ch=1 n=e4 v=96
790020 Off ch=1 n=e4 v=80
790020 Off ch=1 n=e3 v=80
790080 On ch=1 n=f#3 v=99
790080 On ch=1 n=f#4 v=99
790260 Off ch=1 n=f#4 v=80
790260 Off ch=1 n=f#3 v=80
790560 On ch=1 n=g3 v=99
790560 On ch=1 n=g4 v=99
790740 Off ch=1 n=g4 v=80
790740 Off ch=1 n=g3 v=80
791040 On ch=1 n=a4 v=102
791040 On ch=1 n=a3 v=102
791220 Off ch=1 n=a3 v=80
791220 Off ch=1 n=a4 v=80
791760 On ch=1 n=a#3 v=102
791760 On ch=1 n=a#4 v=102
791940 Off ch=1 n=a#4 v=80
791940 Off ch=1 n=a#3 v=80
792000 On ch=1 n=c4 v=114
792000 On ch=1 n=c5 v=114
792180 Off ch=1 n=c5 v=80
792180 Off ch=1 n=c4 v=80
792480 On ch=1 n=d4 v=114
792480 On ch=1 n=d5 v=114
792660 Off ch=1 n=d5 v=80
792660 Off ch=1 n=d4 v=80
792960 On ch=1 n=d#4 v=127
792960 On ch=1 n=d#5 v=127
793140 Off ch=1 n=d#5 v=80
793140 Off ch=1 n=d#4 v=80
793680 On ch=1 n=d4 v=114
793680 On ch=1 n=d5 v=114
793860 Off ch=1 n=d5 v=80
793860 Off ch=1 n=d4 v=80
793920 On ch=1 n=c4 v=114
793920 On ch=1 n=c5 v=114
794100 Off ch=1 n=c5 v=80
794100 Off ch=1 n=c4 v=80
794400 On ch=1 n=c#4 v=114
794400 On ch=1 n=c#5 v=114
794580 Off ch=1 n=c#5 v=80
794580 Off ch=1 n=c#4 v=80
794880 On ch=1 n=d5 v=127
794880 On ch=1 n=d4 v=127
795360 Off ch=1 n=d5 v=80
795360 On ch=1 n=b3 v=114
795600 Off ch=1 n=d4 v=80
795600 Off ch=1 n=b3 v=80
795600 On ch=1 n=c4 v=65
795600 On ch=1 n=f4 v=65
795600 On ch=1 n=f3 v=65
795840 Off ch=1 n=f3 v=80
795840 Off ch=1 n=f4 v=80
795840 Off ch=1 n=c4 v=80
795840 On ch=1 n=a#2 v=65
796560 Off ch=1 n=a#2 v=80
796560 On ch=1 n=f3 v=65
796560 On ch=1 n=d4 v=65
796800 Off ch=1 n=d4 v=80
796800 Off ch=1 n=f3 v=80
796800 On ch=1 n=c3 v=65
797520 Off ch=1 n=c3 v=80
797520 On ch=1 n=f3 v=65
797520 On ch=1 n=d#4 v=65
797760 Off ch=1 n=d#4 v=80
797760 Off ch=1 n=f3 v=80
797760 On ch=1 n=d3 v=65
798480 On ch=1 n=f4 v=65
798480 On ch=1 n=a#3 v=65
799440 Off ch=1 n=a#3 v=80
799440 On ch=1 n=g#3 v=65
799680 Off ch=1 n=f4 v=80
799680 Off ch=1 n=d3 v=80
799680 Off ch=1 n=g#3 v=80
799680 On ch=1 n=g3 v=65
799680 On ch=1 n=d#3 v=65
800400 Off ch=1 n=d#3 v=80
800400 Off ch=1 n=g3 v=80
800400 On ch=1 n=c4 v=65
800400 On ch=1 n=g4 v=65
800640 Off ch=1 n=g4 v=80
800640 Off ch=1 n=c4 v=80
800640 On ch=1 n=g3 v=65
801360 Off ch=1 n=g3 v=80
801360 On ch=1 n=f4 v=83
801360 On ch=1 n=b4 v=83
801600 Off ch=1 n=b4 v=80
801600 Off ch=1 n=f4 v=80
801600 On ch=1 n=g#4 v=90
801600 On ch=1 n=d5 v=90
801600 On ch=1 n=c4 v=90
802560 Off ch=1 n=d5 v=80
802560 Off ch=1 n=g#4 v=80
802560 On ch=1 n=c5 v=65
802560 On ch=1 n=g4 v=65
802800 Off ch=1 n=g4 v=80
802800 Off ch=1 n=c4 v=80
802800 Off ch=1 n=c5 v=80
802800 On ch=1 n=a#4 v=65
802800 On ch=1 n=f#4 v=65
802920 Off ch=1 n=f#4 v=80
802920 Off ch=1 n=a#4 v=80
803040 On ch=1 n=a4 v=65
803040 On ch=1 n=f4 v=65
803160 Off ch=1 n=f4 v=80
803160 Off ch=1 n=a4 v=80
803280 On ch=1 n=f4 v=65
803280 On ch=1 n=c5 v=65
803280 On ch=1 n=d#5 v=65
803400 Off ch=1 n=d#5 v=80
803400 Off ch=1 n=c5 v=80
803400 Off ch=1 n=f4 v=80
803520 On ch=1 n=a#3 v=65
804240 Off ch=1 n=a#3 v=80
804240 On ch=1 n=f4 v=65
804240 On ch=1 n=d5 v=65
804480 Off ch=1 n=d5 v=80
804480 Off ch=1 n=f4 v=80
804480 On ch=1 n=c4 v=65
805200 Off ch=1 n=c4 v=80
805200 On ch=1 n=f4 v=65
805200 On ch=1 n=d#5 v=65
805200 On ch=1 n=a4 v=65
805440 Off ch=1 n=a4 v=80
805440 Off ch=1 n=d#5 v=80
805440 Off ch=1 n=f4 v=80
805440 On ch=1 n=d4 v=65
806160 On ch=1 n=f5 v=65
806160 On ch=1 n=a#4 v=65
806160 On ch=1 n=f4 v=65
807120 Off ch=1 n=a#4 v=80
807120 On ch=1 n=g#4 v=65
807360 Off ch=1 n=f5 v=80
807360 Off ch=1 n=d4 v=80
807360 Off ch=1 n=f4 v=80
807360 Off ch=1 n=g#4 v=80
807360 On ch=1 n=g4 v=65
807360 On ch=1 n=d#4 v=65
808080 Off ch=1 n=d#4 v=80
808080 Off ch=1 n=g4 v=80
808080 On ch=1 n=c5 v=65
808080 On ch=1 n=g5 v=65
808260 Off ch=1 n=g5 v=80
808260 Off ch=1 n=c5 v=80
808320 On ch=1 n=e4 v=65
809040 Off ch=1 n=e4 v=80
809040 On ch=1 n=a#4 v=83
809040 On ch=1 n=c#5 v=65
809040 On ch=1 n=g5 v=83
809220 Off ch=1 n=g5 v=80
809220 Off ch=1 n=c#5 v=80
809220 Off ch=1 n=a#4 v=80
809280 On ch=1 n=f4 v=65
810720 Off ch=1 n=f4 v=80
811200 On ch=1 n=f3 v=65
811440 On ch=1 n=c#4 v=65
811440 On ch=1 n=a4 v=65
811680 Off ch=1 n=a4 v=80
811680 Off ch=1 n=c#4 v=80
812160 Off ch=1 n=f3 v=80
812160 On ch=1 n=f#3 v=65
812400 On ch=1 n=c#4 v=65
812400 On ch=1 n=a#4 v=65
812640 Off ch=1 n=a#4 v=80
812640 Off ch=1 n=c#4 v=80
813120 Off ch=1 n=f#3 v=80
813120 On ch=1 n=f3 v=65
813360 On ch=1 n=c#4 v=65
813360 On ch=1 n=a4 v=65
813600 Off ch=1 n=a4 v=80
813600 Off ch=1 n=c#4 v=80
814080 Off ch=1 n=f3 v=80
814080 On ch=1 n=f#3 v=65
814320 On ch=1 n=c#4 v=65
814320 On ch=1 n=a#4 v=65
814560 Off ch=1 n=a#4 v=80
814560 Off ch=1 n=c#4 v=80
815040 Off ch=1 n=f#3 v=80
815040 On ch=1 n=f#3 v=65
815280 On ch=1 n=d#4 v=65
815280 On ch=1 n=b4 v=65
815520 Off ch=1 n=b4 v=80
815520 Off ch=1 n=d#4 v=80
816000 Off ch=1 n=f#3 v=80
816000 On ch=1 n=f#3 v=65
816240 On ch=1 n=f4 v=65
816240 On ch=1 n=b4 v=65
816480 Off ch=1 n=b4 v=80
816480 Off ch=1 n=f4 v=80
816960 Off ch=1 n=f#3 v=80
816960 On ch=1 n=f#3 v=65
817200 On ch=1 n=f#4 v=65
817200 On ch=1 n=a#4 v=65
817440 Off ch=1 n=a#4 v=80
817440 Off ch=1 n=f#4 v=80
817440 Off ch=1 n=f#3 v=80
817440 On ch=1 n=a#3 v=65
817920 Off ch=1 n=a#3 v=80
817920 On ch=1 n=c#4 v=65
818160 On ch=1 n=f4 v=65
818160 On ch=1 n=b4 v=65
818400 Off ch=1 n=b4 v=80
818400 Off ch=1 n=f4 v=80
818880 Off ch=1 n=c#4 v=80
818880 On ch=1 n=c#3 v=53
819120 Off ch=1 n=c#3 v=80
819120 On ch=1 n=f4 v=53
819120 On ch=1 n=a4 v=53
819360 Off ch=1 n=a4 v=80
819360 Off ch=1 n=f4 v=80
819840 On ch=1 n=f#3 v=53
820080 Off ch=1 n=f#3 v=80
820080 On ch=1 n=f#4 v=53
820080 On ch=1 n=a#4 v=53
820320 Off ch=1 n=a#4 v=80
820320 Off ch=1 n=f#4 v=80
820800 On ch=1 n=c#3 v=53
821040 Off ch=1 n=c#3 v=80
821040 On ch=1 n=f4 v=53
821040 On ch=1 n=a4 v=53
821280 Off ch=1 n=a4 v=80
821280 Off ch=1 n=f4 v=80
821760 On ch=1 n=f#3 v=53
822000 Off ch=1 n=f#3 v=80
822000 On ch=1 n=f#4 v=53
822000 On ch=1 n=a#4 v=53
822240 Off ch=1 n=a#4 v=80
822240 Off ch=1 n=f#4 v=80
822720 On ch=1 n=f#3 v=53
822960 Off ch=1 n=f#3 v=80
822960 On ch=1 n=d#4 v=53
822960 On ch=1 n=b4 v=53
823200 Off ch=1 n=b4 v=80
823200 Off ch=1 n=d#4 v=80
823920 On ch=1 n=c5 v=71
823920 On ch=1 n=e4 v=71
824160 Off ch=1 n=e4 v=80
824160 Off ch=1 n=c5 v=80
824640 On ch=1 n=f#2 v=78
824880 Off ch=1 n=f#2 v=80
824880 On ch=1 n=e4 v=78
824880 On ch=1 n=c#5 v=78
825120 Off ch=1 n=e4 v=80
825360 Off ch=1 n=c#5 v=80
825360 On ch=1 n=a#4 v=65
825360 On ch=1 n=c5 v=65
825600 Off ch=1 n=c5 v=80
825600 Off ch=1 n=a#4 v=80
825600 On ch=1 n=f2 v=59
825840 Off ch=1 n=f2 v=80
825840 On ch=1 n=a4 v=53
825840 On ch=1 n=c5 v=53
826080 Off ch=1 n=c5 v=80
826080 Off ch=1 n=a4 v=80
826560 On ch=1 n=a#2 v=65
827280 Off ch=1 n=a#2 v=80
827280 On ch=1 n=f3 v=65
827280 On ch=1 n=d4 v=65
827520 Off ch=1 n=d4 v=80
827520 Off ch=1 n=f3 v=80
827520 On ch=1 n=c3 v=65
828240 Off ch=1 n=c3 v=80
828240 On ch=1 n=f3 v=65
828240 On ch=1 n=d#4 v=65
828480 Off ch=1 n=d#4 v=80
828480 Off ch=1 n=f3 v=80
828480 On ch=1 n=d3 v=65
829200 On ch=1 n=f4 v=65
829200 On ch=1 n=a#3 v=65
830160 Off ch=1 n=a#3 v=80
830160 On ch=1 n=g#3 v=65
830400 Off ch=1 n=f4 v=80
830400 Off ch=1 n=d3 v=80
830400 Off ch=1 n=g#3 v=80
830400 On ch=1 n=g3 v=65
830400 On ch=1 n=d#3 v=65
831120 Off ch=1 n=d#3 v=80
831120 Off ch=1 n=g3 v=80
831120 On ch=1 n=c4 v=65
831120 On ch=1 n=g4 v=65
831360 Off ch=1 n=g4 v=80
831360 Off ch=1 n=c4 v=80
831360 On ch=1 n=g3 v=65
832080 Off ch=1 n=g3 v=80
832080 On ch=1 n=f4 v=83
832080 On ch=1 n=b4 v=83
832320 Off ch=1 n=b4 v=80
832320 Off ch=1 n=f4 v=80
832320 On ch=1 n=g#4 v=90
832320 On ch=1 n=d5 v=90
832320 On ch=1 n=c4 v=90
833280 Off ch=1 n=d5 v=80
833280 Off ch=1 n=g#4 v=80
833280 On ch=1 n=c5 v=65
833280 On ch=1 n=g4 v=65
833520 Off ch=1 n=g4 v=80
833520 Off ch=1 n=c4 v=80
833520 Off ch=1 n=c5 v=80
833520 On ch=1 n=a#4 v=65
833520 On ch=1 n=f#4 v=65
833640 Off ch=1 n=f#4 v=80
833640 Off ch=1 n=a#4 v=80
833760 On ch=1 n=a4 v=65
833760 On ch=1 n=f4 v=65
833880 Off ch=1 n=f4 v=80
833880 Off ch=1 n=a4 v=80
834000 On ch=1 n=f4 v=65
834000 On ch=1 n=c5 v=65
834000 On ch=1 n=d#5 v=65
834120 Off ch=1 n=d#5 v=80
834120 Off ch=1 n=c5 v=80
834120 Off ch=1 n=f4 v=80
834240 On ch=1 n=a#3 v=65
834960 Off ch=1 n=a#3 v=80
834960 On ch=1 n=f4 v=65
834960 On ch=1 n=d5 v=65
835200 Off ch=1 n=d5 v=80
835200 Off ch=1 n=f4 v=80
835200 On ch=1 n=c4 v=65
835920 Off ch=1 n=c4 v=80
835920 On ch=1 n=f4 v=65
835920 On ch=1 n=d#5 v=65
835920 On ch=1 n=a4 v=65
836160 Off ch=1 n=a4 v=80
836160 Off ch=1 n=d#5 v=80
836160 Off ch=1 n=f4 v=80
836160 On ch=1 n=d4 v=65
836880 On ch=1 n=f5 v=65
836880 On ch=1 n=a#4 v=65
836880 On ch=1 n=f4 v=65
837840 Off ch=1 n=a#4 v=80
837840 On ch=1 n=g#4 v=65
838080 Off ch=1 n=f5 v=80
838080 Off ch=1 n=d4 v=80
838080 Off ch=1 n=f4 v=80
838080 Off ch=1 n=g#4 v=80
838080 On ch=1 n=g4 v=65
838080 On ch=1 n=d#4 v=65
838800 Off ch=1 n=d#4 v=80
838800 Off ch=1 n=g4 v=80
838800 On ch=1 n=c5 v=65
838800 On ch=1 n=g5 v=65
838980 Off ch=1 n=g5 v=80
838980 Off ch=1 n=c5 v=80
839040 On ch=1 n=e4 v=65
839760 Off ch=1 n=e4 v=80
839760 On ch=1 n=a#4 v=83
839760 On ch=1 n=c#5 v=65
839760 On ch=1 n=g5 v=83
839940 Off ch=1 n=g5 v=80
839940 Off ch=1 n=c#5 v=80
839940 Off ch=1 n=a#4 v=80
840000 On ch=1 n=f4 v=65
841440 Off ch=1 n=f4 v=80
841920 On ch=1 n=a#3 v=53
842400 Off ch=1 n=a#3 v=80
842400 On ch=1 n=c#5 v=53
842640 On ch=1 n=e4 v=53
842880 Off ch=1 n=e4 v=80
842880 Off ch=1 n=c#5 v=80
843360 On ch=1 n=g#4 v=53
843600 On ch=1 n=d4 v=53
843840 Off ch=1 n=d4 v=80
843840 Off ch=1 n=g#4 v=80
843840 On ch=1 n=a#2 v=53
844320 Off ch=1 n=a#2 v=80
844320 On ch=1 n=g4 v=53
844560 On ch=1 n=c4 v=53
844800 Off ch=1 n=c4 v=80
844800 Off ch=1 n=g4 v=80
845280 On ch=1 n=f4 v=53
845520 On ch=1 n=f3 v=53
845760 Off ch=1 n=f3 v=80
845760 Off ch=1 n=f4 v=80
845760 On ch=1 n=a#2 v=53
846240 Off ch=1 n=a#2 v=80
846240 On ch=1 n=c#5 v=53
846480 On ch=1 n=e4 v=53
846720 Off ch=1 n=e4 v=80
846720 Off ch=1 n=c#5 v=80
847200 On ch=1 n=g#4 v=53
847440 On ch=1 n=d4 v=53
847680 Off ch=1 n=d4 v=80
847680 Off ch=1 n=g#4 v=80
847680 On ch=1 n=a#2 v=53
848160 Off ch=1 n=a#2 v=80
848160 On ch=1 n=g4 v=53
848400 On ch=1 n=c4 v=53
848640 Off ch=1 n=c4 v=80
848640 Off ch=1 n=g4 v=80
849120 On ch=1 n=f4 v=53
849360 On ch=1 n=f3 v=53
849600 Off ch=1 n=f3 v=80
849600 Off ch=1 n=f4 v=80
849600 On ch=1 n=a#2 v=53
850080 Off ch=1 n=a#2 v=80
850080 On ch=1 n=c#5 v=53
850320 On ch=1 n=e4 v=53
850560 Off ch=1 n=c#5 v=80
851040 Off ch=1 n=e4 v=80
851040 On ch=1 n=d5 v=53
851280 On ch=1 n=f4 v=53
851520 Off ch=1 n=d5 v=80
852000 Off ch=1 n=f4 v=80
852000 On ch=1 n=a4 v=53
852240 On ch=1 n=c#4 v=53
852480 Off ch=1 n=a4 v=80
852960 Off ch=1 n=c#4 v=80
852960 On ch=1 n=a#4 v=53
853200 On ch=1 n=d4 v=53
853440 Off ch=1 n=a#4 v=80
853920 Off ch=1 n=d4 v=80
853920 On ch=1 n=f#4 v=53
854160 On ch=1 n=a3 v=53
854400 Off ch=1 n=f#4 v=80
854880 Off ch=1 n=a3 v=80
854880 On ch=1 n=g4 v=53
855120 On ch=1 n=a#3 v=53
855360 Off ch=1 n=g4 v=80
855840 Off ch=1 n=a#3 v=80
855840 On ch=1 n=d4 v=53
856080 On ch=1 n=f#3 v=53
856320 Off ch=1 n=d4 v=80
856800 Off ch=1 n=f#3 v=80
856800 On ch=1 n=d#4 v=53
857040 On ch=1 n=a#3 v=53
857280 Off ch=1 n=d#4 v=80
857760 On ch=1 n=d4 v=53
857760 On ch=1 n=f3 v=53
858240 Off ch=1 n=f3 v=80
858240 Off ch=1 n=d4 v=80
858240 On ch=1 n=a#4 v=65
858240 On ch=1 n=f4 v=65
858240 On ch=1 n=d4 v=65
858720 On ch=1 n=f3 v=65
858720 On ch=1 n=a#2 v=65
859200 Off ch=1 n=d4 v=80
859200 Off ch=1 n=f4 v=80
859200 Off ch=1 n=a#3 v=80
859200 Off ch=1 n=a#4 v=80
859200 On ch=1 n=a#4 v=65
859200 On ch=1 n=d4 v=65
859200 On ch=1 n=f4 v=65
860160 Off ch=1 n=f4 v=80
860160 Off ch=1 n=d4 v=80
860160 Off ch=1 n=f3 v=80
860160 Off ch=1 n=a#2 v=80
860160 Off ch=1 n=a#4 v=80
861120 On ch=1 n=c3 v=120
861120 On ch=1 n=c4 v=120
861600 Off ch=1 n=c3 v=80
861600 On ch=1 n=d3 v=102
862080 Off ch=1 n=c4 v=80
862080 Off ch=1 n=d3 v=80
862080 On ch=1 n=g3 v=102
862080 On ch=1 n=g2 v=102
862560 Off ch=1 n=g2 v=80
862560 Off ch=1 n=g3 v=80
863040 On ch=1 n=c5 v=120
863040 On ch=1 n=c4 v=120
863520 Off ch=1 n=c4 v=80
863520 On ch=1 n=d4 v=102
864000 Off ch=1 n=c5 v=80
864000 Off ch=1 n=d4 v=80
864000 On ch=1 n=g4 v=102
864000 On ch=1 n=g3 v=102
864480 Off ch=1 n=g3 v=80
864480 Off ch=1 n=g4 v=80
864960 On ch=1 n=g5 v=120
864960 On ch=1 n=a#4 v=120
864960 On ch=1 n=g4 v=120
864960 On ch=1 n=d#5 v=120
865320 Off ch=1 n=d#5 v=80
865320 On ch=1 n=d5 v=102
865440 Off ch=1 n=g4 v=80
865440 Off ch=1 n=a#4 v=80
865440 Off ch=1 n=g5 v=80
865440 Off ch=1 n=d5 v=80
865440 On ch=1 n=e5 v=102
865440 On ch=1 n=c#5 v=102
865440 On ch=1 n=a4 v=102
865440 On ch=1 n=g4 v=102
865920 Off ch=1 n=g4 v=80
865920 Off ch=1 n=a4 v=80
865920 Off ch=1 n=c#5 v=80
865920 Off ch=1 n=e5 v=80
865920 On ch=1 n=d5 v=102
865920 On ch=1 n=a4 v=102
865920 On ch=1 n=f4 v=102
866400 Off ch=1 n=f4 v=80
866400 Off ch=1 n=a4 v=80
866400 Off ch=1 n=d5 v=80
866640 On ch=1 n=g4 v=102
866760 Off ch=1 n=g4 v=80
866880 On ch=1 n=a4 v=102
867000 Off ch=1 n=a4 v=80
867360 On ch=1 n=a4 v=102
867360 On ch=1 n=a3 v=102
867840 Off ch=1 n=a3 v=80
867840 Off ch=1 n=a4 v=80
867840 On ch=1 n=d4 v=102
868320 Off ch=1 n=d4 v=80
868320 On ch=1 n=d4 v=102
868560 Off ch=1 n=d4 v=80
868800 On ch=1 n=d4 v=90
868800 On ch=1 n=d3 v=90
868920 Off ch=1 n=d3 v=80
868920 Off ch=1 n=d4 v=80
869280 On ch=1 n=a#3 v=90
869280 On ch=1 n=a#2 v=90
869400 Off ch=1 n=a#2 v=80
869400 Off ch=1 n=a#3 v=80
869760 On ch=1 n=c3 v=90
869760 On ch=1 n=c4 v=90
869880 Off ch=1 n=c4 v=80
869880 Off ch=1 n=c3 v=80
870480 On ch=1 n=c5 v=102
870480 On ch=1 n=g4 v=102
870480 On ch=1 n=d#4 v=102
870600 Off ch=1 n=d#4 v=80
870600 Off ch=1 n=g4 v=80
870600 Off ch=1 n=c5 v=80
870720 On ch=1 n=d5 v=102
870720 On ch=1 n=g#4 v=102
870720 On ch=1 n=f4 v=102
870840 Off ch=1 n=f4 v=80
870840 Off ch=1 n=g#4 v=80
870840 Off ch=1 n=d5 v=80
871200 On ch=1 n=d5 v=102
871200 On ch=1 n=b4 v=102
871200 On ch=1 n=g4 v=102
871320 Off ch=1 n=g4 v=80
871320 Off ch=1 n=b4 v=80
871320 Off ch=1 n=d5 v=80
871680 On ch=1 n=d#5 v=102
871680 On ch=1 n=g4 v=102
871680 On ch=1 n=c4 v=102
871800 Off ch=1 n=c4 v=80
871800 Off ch=1 n=g4 v=80
871800 Off ch=1 n=d#5 v=80
872400 On ch=1 n=c3 v=90
872640 On ch=1 n=c4 v=90
873360 Off ch=1 n=c4 v=80
873360 Off ch=1 n=c3 v=80
873360 On ch=1 n=f4 v=90
873360 On ch=1 n=f3 v=90
873840 Off ch=1 n=f3 v=80
873840 Off ch=1 n=f4 v=80
873840 On ch=1 n=d4 v=95
873840 On ch=1 n=d3 v=95
874320 Off ch=1 n=d3 v=80
874320 Off ch=1 n=d4 v=80
874320 On ch=1 n=g3 v=100
874320 On ch=1 n=g4 v=100
874800 Off ch=1 n=g4 v=80
874800 Off ch=1 n=g3 v=80
874800 On ch=1 n=d#4 v=105
874800 On ch=1 n=d#3 v=105
875280 Off ch=1 n=d#3 v=80
875280 Off ch=1 n=d#4 v=80
875280 On ch=1 n=e4 v=110
875280 On ch=1 n=e3 v=110
875520 Off ch=1 n=e3 v=80
875520 Off ch=1 n=e4 v=80
875520 On ch=1 n=f4 v=114
875520 On ch=1 n=f3 v=114
876000 Off ch=1 n=f3 v=80
876000 Off ch=1 n=f4 v=80
876240 On ch=1 n=f3 v=120
876480 On ch=1 n=a#3 v=53
876480 On ch=1 n=a#2 v=53
876960 Off ch=1 n=a#2 v=80
876960 Off ch=1 n=a#3 v=80
876960 On ch=1 n=b3 v=53
876960 On ch=1 n=b2 v=53
877440 Off ch=1 n=b2 v=80
877440 Off ch=1 n=b3 v=80
877440 On ch=1 n=c3 v=53
877440 On ch=1 n=c4 v=53
877920 Off ch=1 n=c4 v=80
877920 Off ch=1 n=c3 v=80
877920 On ch=1 n=a2 v=53
877920 On ch=1 n=a3 v=53
878400 Off ch=1 n=a3 v=80
878400 Off ch=1 n=a2 v=80
878400 On ch=1 n=a#2 v=53
878400 On ch=1 n=a#3 v=53
878880 Off ch=1 n=a#3 v=80
878880 Off ch=1 n=a#2 v=80
878880 On ch=1 n=b3 v=53
878880 On ch=1 n=b2 v=53
879360 Off ch=1 n=b2 v=80
879360 Off ch=1 n=b3 v=80
879360 On ch=1 n=c3 v=53
879360 On ch=1 n=c4 v=53
879840 Off ch=1 n=c4 v=80
879840 Off ch=1 n=c3 v=80
879840 On ch=1 n=a3 v=53
879840 On ch=1 n=a2 v=53
880320 Off ch=1 n=a2 v=80
880320 Off ch=1 n=a3 v=80
880320 On ch=1 n=a#3 v=53
880320 On ch=1 n=a#2 v=53
880800 Off ch=1 n=a#2 v=80
880800 Off ch=1 n=f3 v=80
880800 Off ch=1 n=a#3 v=80
880800 On ch=1 n=b3 v=53
880800 On ch=1 n=b2 v=53
881760 Off ch=1 n=b2 v=80
881760 Off ch=1 n=b3 v=80
881760 On ch=1 n=c4 v=57
881760 On ch=1 n=c3 v=57
882720 Off ch=1 n=c3 v=80
882720 Off ch=1 n=c4 v=80
882720 On ch=1 n=d3 v=65
882720 On ch=1 n=d4 v=65
883680 Off ch=1 n=d4 v=80
883680 Off ch=1 n=d3 v=80
883680 On ch=1 n=d#4 v=73
883680 On ch=1 n=d#3 v=73
884040 Off ch=1 n=d#3 v=80
884040 Off ch=1 n=d#4 v=80
884040 On ch=1 n=e3 v=73
884040 On ch=1 n=e4 v=73
884160 Off ch=1 n=e4 v=80
884160 Off ch=1 n=e3 v=80
884160 On ch=1 n=f3 v=78
884160 On ch=1 n=f4 v=78
884400 Off ch=1 n=f4 v=80
884400 Off ch=1 n=f3 v=80
884640 On ch=1 n=f#3 v=92
884640 On ch=1 n=f#4 v=92
885360 Off ch=1 n=f#4 v=80
885360 Off ch=1 n=f#3 v=80
885360 On ch=1 n=g4 v=78
885360 On ch=1 n=g3 v=78
885840 Off ch=1 n=g3 v=80
885840 Off ch=1 n=g4 v=80
885840 On ch=1 n=e4 v=90
885840 On ch=1 n=e3 v=90
886080 Off ch=1 n=e3 v=80
886080 Off ch=1 n=e4 v=80
886080 On ch=1 n=f4 v=102
886080 On ch=1 n=f3 v=102
886320 Off ch=1 n=f3 v=80
886320 Off ch=1 n=f4 v=80
886560 On ch=1 n=f#4 v=116
886560 On ch=1 n=f#3 v=116
887280 Off ch=1 n=f#3 v=80
887280 Off ch=1 n=f#4 v=80
887280 On ch=1 n=g4 v=102
887280 On ch=1 n=g3 v=102
887760 Off ch=1 n=g3 v=80
887760 Off ch=1 n=g4 v=80
887760 On ch=1 n=e4 v=102
887760 On ch=1 n=e3 v=102
888000 Off ch=1 n=e3 v=80
888000 Off ch=1 n=e4 v=80
888000 On ch=1 n=f4 v=97
888000 On ch=1 n=f3 v=97
888120 Off ch=1 n=f3 v=80
888120 Off ch=1 n=f4 v=80
888360 On ch=1 n=d#4 v=92
888360 On ch=1 n=d#3 v=92
888480 Off ch=1 n=d#3 v=80
888480 Off ch=1 n=d#4 v=80
888480 On ch=1 n=d4 v=87
888480 On ch=1 n=d3 v=87
888600 Off ch=1 n=d3 v=80
888600 Off ch=1 n=d4 v=80
888840 On ch=1 n=c#4 v=82
888840 On ch=1 n=c#3 v=82
888960 Off ch=1 n=c#3 v=80
888960 Off ch=1 n=c#4 v=80
888960 On ch=1 n=c4 v=78
888960 On ch=1 n=c3 v=78
889080 Off ch=1 n=c3 v=80
889080 Off ch=1 n=c4 v=80
889440 On ch=1 n=c3 v=78
889440 On ch=1 n=c2 v=78
889560 Off ch=1 n=c2 v=80
889560 Off ch=1 n=c3 v=80
889920 On ch=1 n=f3 v=78
889920 On ch=1 n=f2 v=78
890040 Off ch=1 n=f2 v=80
890040 Off ch=1 n=f3 v=80
891360 On ch=1 n=c4 v=78
891720 Off ch=1 n=c4 v=80
891720 On ch=1 n=a3 v=78
891840 Off ch=1 n=a3 v=80
891840 On ch=1 n=a#2 v=65
891840 On ch=1 n=a#3 v=65
892320 Off ch=1 n=a#3 v=80
892320 Off ch=1 n=a#2 v=80
892320 On ch=1 n=b3 v=65
892320 On ch=1 n=b2 v=65
892800 Off ch=1 n=b2 v=80
892800 Off ch=1 n=b3 v=80
892800 On ch=1 n=c3 v=65
892800 On ch=1 n=c4 v=65
893280 Off ch=1 n=c4 v=80
893280 Off ch=1 n=c3 v=80
893280 On ch=1 n=a2 v=65
893280 On ch=1 n=a3 v=65
893760 Off ch=1 n=a3 v=80
893760 Off ch=1 n=a2 v=80
893760 On ch=1 n=a#2 v=65
893760 On ch=1 n=a#3 v=65
894240 Off ch=1 n=a#3 v=80
894240 Off ch=1 n=a#2 v=80
894240 On ch=1 n=b3 v=65
894240 On ch=1 n=b2 v=65
894720 Off ch=1 n=b2 v=80
894720 Off ch=1 n=b3 v=80
894720 On ch=1 n=c3 v=65
894720 On ch=1 n=c4 v=65
895200 Off ch=1 n=c4 v=80
895200 Off ch=1 n=c3 v=80
895200 On ch=1 n=a3 v=65
895200 On ch=1 n=a2 v=65
895680 Off ch=1 n=a2 v=80
895680 Off ch=1 n=a3 v=80
895680 On ch=1 n=a#2 v=65
895680 On ch=1 n=a#3 v=65
896160 Off ch=1 n=a#3 v=80
896160 Off ch=1 n=a#2 v=80
896160 On ch=1 n=b3 v=65
896160 On ch=1 n=b2 v=65
897120 Off ch=1 n=b2 v=80
897120 Off ch=1 n=b3 v=80
897120 On ch=1 n=c4 v=69
897120 On ch=1 n=c3 v=69
898080 Off ch=1 n=c3 v=80
898080 Off ch=1 n=c4 v=80
898080 On ch=1 n=d3 v=77
898080 On ch=1 n=d4 v=77
899040 Off ch=1 n=d4 v=80
899040 Off ch=1 n=d3 v=80
899040 On ch=1 n=d#4 v=85
899040 On ch=1 n=d#3 v=85
899400 Off ch=1 n=d#3 v=80
899400 Off ch=1 n=d#4 v=80
899400 On ch=1 n=e3 v=85
899400 On ch=1 n=e4 v=85
899520 Off ch=1 n=e4 v=80
899520 Off ch=1 n=e3 v=80
899520 On ch=1 n=f3 v=90
899520 On ch=1 n=f4 v=90
899760 Off ch=1 n=f4 v=80
899760 Off ch=1 n=f3 v=80
900000 On ch=1 n=f#3 v=104
900000 On ch=1 n=f#4 v=104
900720 Off ch=1 n=f#4 v=80
900720 Off ch=1 n=f#3 v=80
900720 On ch=1 n=g4 v=90
900720 On ch=1 n=g3 v=90
901200 Off ch=1 n=g3 v=80
901200 Off ch=1 n=g4 v=80
901200 On ch=1 n=e4 v=102
901200 On ch=1 n=e3 v=102
901440 Off ch=1 n=e3 v=80
901440 Off ch=1 n=e4 v=80
901440 On ch=1 n=f4 v=114
901440 On ch=1 n=f3 v=114
901680 Off ch=1 n=f3 v=80
901680 Off ch=1 n=f4 v=80
901920 On ch=1 n=f#4 v=127
901920 On ch=1 n=f#3 v=127
902640 Off ch=1 n=f#3 v=80
902640 Off ch=1 n=f#4 v=80
902640 On ch=1 n=g4 v=114
902640 On ch=1 n=g3 v=114
903120 Off ch=1 n=g3 v=80
903120 Off ch=1 n=g4 v=80
903120 On ch=1 n=e4 v=114
903120 On ch=1 n=e3 v=114
903360 Off ch=1 n=e3 v=80
903360 Off ch=1 n=e4 v=80
903360 On ch=1 n=f4 v=109
903360 On ch=1 n=f3 v=109
903480 Off ch=1 n=f3 v=80
903480 Off ch=1 n=f4 v=80
903720 On ch=1 n=d#4 v=104
903720 On ch=1 n=d#3 v=104
903840 Off ch=1 n=d#3 v=80
903840 Off ch=1 n=d#4 v=80
903840 On ch=1 n=d4 v=99
903840 On ch=1 n=d3 v=99
903960 Off ch=1 n=d3 v=80
903960 Off ch=1 n=d4 v=80
904200 On ch=1 n=c#4 v=94
904200 On ch=1 n=c#3 v=94
904320 Off ch=1 n=c#3 v=80
904320 Off ch=1 n=c#4 v=80
904320 On ch=1 n=c4 v=90
904320 On ch=1 n=c3 v=90
904440 Off ch=1 n=c3 v=80
904440 Off ch=1 n=c4 v=80
904800 On ch=1 n=c3 v=90
904800 On ch=1 n=c2 v=90
904920 Off ch=1 n=c2 v=80
904920 Off ch=1 n=c3 v=80
905280 On ch=1 n=f3 v=90
905280 On ch=1 n=f2 v=90
905400 Off ch=1 n=f2 v=80
905400 Off ch=1 n=f3 v=80
906720 On ch=1 n=c4 v=90
907080 Off ch=1 n=c4 v=80
907080 On ch=1 n=a3 v=90
907200 Off ch=1 n=a3 v=80
907200 On ch=1 n=a#3 v=90
907560 Off ch=1 n=a#3 v=80
907560 On ch=1 n=b4 v=104
908040 Off ch=1 n=b4 v=80
908040 On ch=1 n=a#3 v=90
908520 Off ch=1 n=a#3 v=80
908520 On ch=1 n=b4 v=104
909000 Off ch=1 n=b4 v=80
909000 On ch=1 n=a#3 v=90
909120 Off ch=1 n=a#3 v=80
909120 On ch=1 n=b3 v=65
909480 Off ch=1 n=b3 v=80
909480 On ch=1 n=c#5 v=79
909960 Off ch=1 n=c#5 v=80
909960 On ch=1 n=b3 v=65
910440 Off ch=1 n=b3 v=80
910440 On ch=1 n=c#5 v=79
910920 Off ch=1 n=c#5 v=80
910920 On ch=1 n=b3 v=65
911040 Off ch=1 n=b3 v=80
911040 On ch=1 n=a#3 v=65
911280 Off ch=1 n=a#3 v=80
911280 On ch=1 n=c#5 v=65
911760 Off ch=1 n=c#5 v=80
911760 On ch=1 n=a#3 v=65
912240 Off ch=1 n=a#3 v=80
912240 On ch=1 n=c#5 v=65
912720 Off ch=1 n=c#5 v=80
912720 On ch=1 n=a#3 v=65
913200 Off ch=1 n=a#3 v=80
913200 On ch=1 n=c#5 v=61
913680 Off ch=1 n=c#5 v=80
913680 On ch=1 n=a#3 v=57
914160 Off ch=1 n=a#3 v=80
914160 On ch=1 n=c#5 v=53
914640 Off ch=1 n=c#5 v=80
914640 On ch=1 n=a#3 v=53
914880 Off ch=1 n=a#3 v=80
914880 On ch=1 n=d#4 v=90
915240 Off ch=1 n=d#4 v=80
915240 On ch=1 n=e5 v=104
915720 Off ch=1 n=e5 v=80
915720 On ch=1 n=d#4 v=90
916200 Off ch=1 n=d#4 v=80
916200 On ch=1 n=e5 v=104
916680 Off ch=1 n=e5 v=80
916680 On ch=1 n=d#4 v=90
916800 Off ch=1 n=d#4 v=80
916800 On ch=1 n=e4 v=65
917160 Off ch=1 n=e4 v=80
917160 On ch=1 n=f#5 v=79
917640 Off ch=1 n=f#5 v=80
917640 On ch=1 n=e4 v=65
918120 Off ch=1 n=e4 v=80
918120 On ch=1 n=f#5 v=79
918600 Off ch=1 n=f#5 v=80
918600 On ch=1 n=e4 v=81
918720 Off ch=1 n=e4 v=80
918720 On ch=1 n=f4 v=90
918960 Off ch=1 n=f4 v=80
919200 On ch=1 n=d#5 v=104
919200 On ch=1 n=c5 v=104
919200 On ch=1 n=a5 v=104
920160 Off ch=1 n=a5 v=80
920160 Off ch=1 n=c5 v=80
920160 Off ch=1 n=d#5 v=80
920880 On ch=1 n=d#5 v=65
921360 Off ch=1 n=d#5 v=80
921360 On ch=1 n=d5 v=65
921840 Off ch=1 n=d5 v=80
921840 On ch=1 n=c5 v=65
922320 Off ch=1 n=c5 v=80
923040 On ch=1 n=a#3 v=65
923040 On ch=1 n=a#2 v=65
923220 Off ch=1 n=a#2 v=80
923220 Off ch=1 n=a#3 v=80
923400 On ch=1 n=b3 v=65
923400 On ch=1 n=b2 v=65
923520 Off ch=1 n=b2 v=80
923520 Off ch=1 n=b3 v=80
923520 On ch=1 n=c4 v=65
923520 On ch=1 n=c3 v=65
924000 Off ch=1 n=c3 v=80
924000 Off ch=1 n=c4 v=80
924000 On ch=1 n=a3 v=65
924000 On ch=1 n=a2 v=65
924480 Off ch=1 n=a2 v=80
924480 Off ch=1 n=a3 v=80
924960 On ch=1 n=a#3 v=65
924960 On ch=1 n=a#2 v=65
925140 Off ch=1 n=a#2 v=80
925140 Off ch=1 n=a#3 v=80
925320 On ch=1 n=b3 v=65
925320 On ch=1 n=b2 v=65
925440 Off ch=1 n=b2 v=80
925440 Off ch=1 n=b3 v=80
925440 On ch=1 n=c4 v=65
925440 On ch=1 n=c3 v=65
925920 Off ch=1 n=c3 v=80
925920 Off ch=1 n=c4 v=80
925920 On ch=1 n=a3 v=65
925920 On ch=1 n=a2 v=65
926400 Off ch=1 n=a2 v=80
926400 Off ch=1 n=a3 v=80
926880 On ch=1 n=a#3 v=65
926880 On ch=1 n=a#2 v=65
927240 Off ch=1 n=a#2 v=80
927240 Off ch=1 n=a#3 v=80
927240 On ch=1 n=b3 v=65
927240 On ch=1 n=b2 v=65
927840 Off ch=1 n=b2 v=80
927840 Off ch=1 n=b3 v=80
927840 On ch=1 n=c4 v=65
927840 On ch=1 n=c3 v=65
928800 Off ch=1 n=c3 v=80
928800 Off ch=1 n=c4 v=80
928800 On ch=1 n=d4 v=65
928800 On ch=1 n=d3 v=65
929760 Off ch=1 n=d3 v=80
929760 Off ch=1 n=d4 v=80
929760 On ch=1 n=d#3 v=85
929760 On ch=1 n=d#4 v=85
930120 Off ch=1 n=d#4 v=80
930120 Off ch=1 n=d#3 v=80
930120 On ch=1 n=e3 v=85
930120 On ch=1 n=e4 v=85
930240 Off ch=1 n=e4 v=80
930240 Off ch=1 n=e3 v=80
930240 On ch=1 n=f4 v=65
930240 On ch=1 n=f3 v=65
930600 Off ch=1 n=f3 v=80
930600 Off ch=1 n=f4 v=80
930600 On ch=1 n=d#4 v=65
930600 On ch=1 n=d#3 v=65
930720 Off ch=1 n=d#3 v=80
930720 Off ch=1 n=d#4 v=80
930720 On ch=1 n=d4 v=65
930720 On ch=1 n=d3 v=65
931080 Off ch=1 n=d3 v=80
931080 Off ch=1 n=d4 v=80
931080 On ch=1 n=c#4 v=65
931080 On ch=1 n=c#3 v=65
931200 Off ch=1 n=c#3 v=80
931200 Off ch=1 n=c#4 v=80
931200 On ch=1 n=c4 v=65
931200 On ch=1 n=c3 v=65
931680 Off ch=1 n=c3 v=80
931680 Off ch=1 n=c4 v=80
931680 On ch=1 n=b3 v=65
931680 On ch=1 n=b2 v=65
932160 Off ch=1 n=b2 v=80
932160 Off ch=1 n=b3 v=80
932160 On ch=1 n=c4 v=65
932160 On ch=1 n=c3 v=65
932520 Off ch=1 n=c3 v=80
932520 Off ch=1 n=c4 v=80
932520 On ch=1 n=a#3 v=65
932520 On ch=1 n=a#2 v=65
932640 Off ch=1 n=a#2 v=80
932640 Off ch=1 n=a#3 v=80
932640 On ch=1 n=a3 v=65
932640 On ch=1 n=a2 v=65
933000 Off ch=1 n=a2 v=80
933000 Off ch=1 n=a3 v=80
933000 On ch=1 n=g#3 v=65
933000 On ch=1 n=g#2 v=65
933120 Off ch=1 n=g#2 v=80
933120 Off ch=1 n=g#3 v=80
933120 On ch=1 n=g3 v=75
933120 On ch=1 n=g2 v=75
933600 Off ch=1 n=g2 v=80
933600 Off ch=1 n=g3 v=80
933600 On ch=1 n=f#2 v=95
933600 On ch=1 n=f#3 v=95
934080 Off ch=1 n=f#3 v=80
934080 Off ch=1 n=f#2 v=80
934080 On ch=1 n=f3 v=127
934080 On ch=1 n=f2 v=127
934560 Off ch=1 n=f2 v=80
934800 On ch=1 n=b3 v=114
935040 Off ch=1 n=b3 v=80
935040 On ch=1 n=c4 v=94
935280 Off ch=1 n=c4 v=80
935280 On ch=1 n=d#4 v=99
935400 Off ch=1 n=d#4 v=80
935520 Off ch=1 n=f3 v=80
935520 On ch=1 n=g4 v=104
935640 Off ch=1 n=g4 v=80
935760 On ch=1 n=c5 v=109
935880 Off ch=1 n=c5 v=80
936000 On ch=1 n=d5 v=114
936000 On ch=1 n=c5 v=114
936000 On ch=1 n=g#4 v=114
936000 On ch=1 n=f4 v=114
936120 Off ch=1 n=f4 v=80
936120 Off ch=1 n=g#4 v=80
936120 Off ch=1 n=c5 v=80
936120 Off ch=1 n=d5 v=80
936480 On ch=1 n=d5 v=114
936480 On ch=1 n=b4 v=114
936480 On ch=1 n=g4 v=114
936600 Off ch=1 n=g4 v=80
936600 Off ch=1 n=b4 v=80
936600 Off ch=1 n=d5 v=80
936960 On ch=1 n=d#5 v=102
936960 On ch=1 n=g4 v=102
936960 On ch=1 n=c4 v=102
937440 Off ch=1 n=c4 v=80
937440 Off ch=1 n=g4 v=80
937440 Off ch=1 n=d#5 v=80
937680 On ch=1 n=f2 v=127
937920 On ch=1 n=f3 v=127
938400 Off ch=1 n=f2 v=80
938640 On ch=1 n=c#4 v=114
938880 Off ch=1 n=c#4 v=80
938880 On ch=1 n=d4 v=94
939120 Off ch=1 n=d4 v=80
939120 On ch=1 n=f4 v=99
939240 Off ch=1 n=f4 v=80
939360 Off ch=1 n=f3 v=80
939360 On ch=1 n=a4 v=104
939480 Off ch=1 n=a4 v=80
939600 On ch=1 n=d5 v=109
939720 Off ch=1 n=d5 v=80
939840 On ch=1 n=g4 v=114
939840 On ch=1 n=a#4 v=114
939840 On ch=1 n=d5 v=114
939840 On ch=1 n=e5 v=114
939960 Off ch=1 n=e5 v=80
939960 Off ch=1 n=d5 v=80
939960 Off ch=1 n=a#4 v=80
939960 Off ch=1 n=g4 v=80
940320 On ch=1 n=g5 v=114
940320 On ch=1 n=c#5 v=114
940320 On ch=1 n=a4 v=114
940440 Off ch=1 n=a4 v=80
940440 Off ch=1 n=c#5 v=80
940440 Off ch=1 n=g5 v=80
940800 On ch=1 n=f5 v=102
940800 On ch=1 n=a4 v=102
940800 On ch=1 n=d4 v=102
941280 Off ch=1 n=d4 v=80
941280 Off ch=1 n=a4 v=80
941280 Off ch=1 n=f5 v=80
941520 On ch=1 n=f2 v=127
941760 On ch=1 n=f3 v=127
942240 Off ch=1 n=f2 v=80
942480 On ch=1 n=d#4 v=114
942720 Off ch=1 n=d#4 v=80
942720 On ch=1 n=e4 v=94
942960 Off ch=1 n=e4 v=80
942960 On ch=1 n=g4 v=99
943080 Off ch=1 n=g4 v=80
943200 Off ch=1 n=f3 v=80
943200 On ch=1 n=b4 v=104
943320 Off ch=1 n=b4 v=80
943680 On ch=1 n=f3 v=127
943680 On ch=1 n=f2 v=127
944400 Off ch=1 n=f2 v=80
944400 On ch=1 n=e4 v=114
944640 Off ch=1 n=e4 v=80
944640 On ch=1 n=f4 v=94
944880 Off ch=1 n=f4 v=80
944880 On ch=1 n=a4 v=99
945000 Off ch=1 n=a4 v=80
945120 Off ch=1 n=f3 v=80
945120 On ch=1 n=c5 v=104
945240 Off ch=1 n=c5 v=80
945600 On ch=1 n=d5 v=127
945600 On ch=1 n=f4 v=127
945600 On ch=1 n=a#3 v=127
945840 Off ch=1 n=a#3 v=80
945840 Off ch=1 n=f4 v=80
945840 Off ch=1 n=d5 v=80
946080 On ch=1 n=c#5 v=127
946080 On ch=1 n=e4 v=127
946080 On ch=1 n=a#3 v=127
946320 Off ch=1 n=a#3 v=80
946320 Off ch=1 n=e4 v=80
946320 Off ch=1 n=c#5 v=80
946560 On ch=1 n=d5 v=127
946560 On ch=1 n=f4 v=127
946560 On ch=1 n=a#3 v=127
946800 Off ch=1 n=a#3 v=80
946800 Off ch=1 n=f4 v=80
946800 Off ch=1 n=d5 v=80
947520 On ch=1 n=a#3 v=127
947520 On ch=1 n=f4 v=127
947520 On ch=1 n=d5 v=127
947760 Off ch=1 n=d5 v=80
947760 Off ch=1 n=f4 v=80
947760 Off ch=1 n=a#3 v=80
948000 On ch=1 n=c#5 v=127
948000 On ch=1 n=e4 v=127
948000 On ch=1 n=a#3 v=127
948240 Off ch=1 n=a#3 v=80
948240 Off ch=1 n=e4 v=80
948240 Off ch=1 n=c#5 v=80
948480 On ch=1 n=d5 v=127
948480 On ch=1 n=f4 v=127
948480 On ch=1 n=a#3 v=127
948720 Off ch=1 n=a#3 v=80
948720 Off ch=1 n=f4 v=80
948720 Off ch=1 n=d5 v=80
949440 On ch=1 n=b4 v=127
949440 On ch=1 n=d4 v=127
949440 On ch=1 n=g3 v=127
949680 Off ch=1 n=g3 v=80
949680 Off ch=1 n=d4 v=80
949680 Off ch=1 n=b4 v=80
949920 On ch=1 n=g3 v=127
949920 On ch=1 n=c#4 v=127
949920 On ch=1 n=a#4 v=127
950160 Off ch=1 n=a#4 v=80
950160 Off ch=1 n=c#4 v=80
950160 Off ch=1 n=g3 v=80
950400 On ch=1 n=g3 v=127
950400 On ch=1 n=d4 v=127
950400 On ch=1 n=b4 v=127
950640 Off ch=1 n=b4 v=80
950640 Off ch=1 n=d4 v=80
950640 Off ch=1 n=g3 v=80
951360 On ch=1 n=g3 v=127
951360 On ch=1 n=d4 v=127
951360 On ch=1 n=b4 v=127
951600 Off ch=1 n=b4 v=80
951600 Off ch=1 n=d4 v=80
951600 Off ch=1 n=g3 v=80
951840 On ch=1 n=g3 v=127
951840 On ch=1 n=c#4 v=127
951840 On ch=1 n=a#4 v=127
952080 Off ch=1 n=a#4 v=80
952080 Off ch=1 n=c#4 v=80
952080 Off ch=1 n=g3 v=80
952320 On ch=1 n=g3 v=127
952320 On ch=1 n=d4 v=127
952320 On ch=1 n=b4 v=127
952560 Off ch=1 n=b4 v=80
952560 Off ch=1 n=d4 v=80
952560 Off ch=1 n=g3 v=80
953280 On ch=1 n=c3 v=65
953400 Off ch=1 n=c3 v=65
953520 On ch=1 n=g#3 v=65
953640 Off ch=1 n=g#3 v=65
953760 On ch=1 n=d3 v=65
953880 Off ch=1 n=d3 v=65
954000 On ch=1 n=a#3 v=65
954120 Off ch=1 n=a#3 v=65
954240 On ch=1 n=d#3 v=70
954360 Off ch=1 n=d#3 v=65
954480 On ch=1 n=d#4 v=93
954960 Off ch=1 n=d#4 v=65
954960 On ch=1 n=d#4 v=85
955080 Off ch=1 n=d#4 v=65
955200 On ch=1 n=d#3 v=65
955320 Off ch=1 n=d#3 v=65
955440 On ch=1 n=d#4 v=65
955560 Off ch=1 n=d#4 v=65
955680 On ch=1 n=f#3 v=65
955800 Off ch=1 n=f#3 v=65
955920 On ch=1 n=f#4 v=65
956040 Off ch=1 n=f#4 v=65
956160 On ch=1 n=g3 v=70
956280 Off ch=1 n=g3 v=65
956400 On ch=1 n=g4 v=93
956880 Off ch=1 n=g4 v=65
956880 On ch=1 n=g4 v=85
957000 Off ch=1 n=g4 v=65
957120 On ch=1 n=g3 v=65
957240 Off ch=1 n=g3 v=65
957240 On ch=1 n=a#3 v=65
957360 Off ch=1 n=a#3 v=65
957360 On ch=1 n=f4 v=65
957480 Off ch=1 n=f4 v=65
957480 On ch=1 n=d#4 v=65
957600 Off ch=1 n=d#4 v=65
957600 On ch=1 n=a3 v=65
957720 Off ch=1 n=a3 v=65
957720 On ch=1 n=c4 v=65
957840 Off ch=1 n=c4 v=65
957840 On ch=1 n=g4 v=65
957960 Off ch=1 n=g4 v=65
957960 On ch=1 n=f4 v=65
958080 Off ch=1 n=f4 v=65
958080 On ch=1 n=b3 v=70
958200 Off ch=1 n=b3 v=65
958200 On ch=1 n=d4 v=70
958320 Off ch=1 n=d4 v=65
958320 On ch=1 n=b4 v=70
958440 Off ch=1 n=b4 v=65
958440 On ch=1 n=g4 v=70
958560 Off ch=1 n=g4 v=65
958560 On ch=1 n=b4 v=75
958680 Off ch=1 n=b4 v=65
958680 On ch=1 n=g4 v=75
958800 Off ch=1 n=g4 v=65
958800 On ch=1 n=a#3 v=75
958920 Off ch=1 n=a#3 v=65
958920 On ch=1 n=d4 v=75
959040 Off ch=1 n=d4 v=65
959040 On ch=1 n=c4 v=80
959160 Off ch=1 n=c4 v=65
959160 On ch=1 n=d#4 v=80
959280 Off ch=1 n=d#4 v=65
959280 On ch=1 n=a#4 v=80
959400 Off ch=1 n=a#4 v=65
959400 On ch=1 n=g#4 v=80
959520 Off ch=1 n=g#4 v=65
959520 On ch=1 n=d4 v=85
959640 Off ch=1 n=d4 v=65
959640 On ch=1 n=f4 v=85
959760 Off ch=1 n=f4 v=65
959760 On ch=1 n=c5 v=85
959880 Off ch=1 n=c5 v=65
959880 On ch=1 n=a#4 v=85
960000 Off ch=1 n=a#4 v=65
960000 On ch=1 n=e4 v=90
960120 Off ch=1 n=e4 v=65
960120 On ch=1 n=g4 v=90
960240 Off ch=1 n=g4 v=65
960240 On ch=1 n=e5 v=90
960360 Off ch=1 n=e5 v=65
960360 On ch=1 n=c5 v=90
960480 Off ch=1 n=c5 v=65
960480 On ch=1 n=e5 v=90
960600 Off ch=1 n=e5 v=65
960600 On ch=1 n=c5 v=90
960720 Off ch=1 n=c5 v=65
960720 On ch=1 n=e4 v=90
960840 Off ch=1 n=e4 v=65
960840 On ch=1 n=g4 v=90
960960 Off ch=1 n=g4 v=65
960960 On ch=1 n=f5 v=90
960960 On ch=1 n=d#5 v=90
960960 On ch=1 n=c5 v=90
960960 On ch=1 n=a4 v=90
960960 On ch=1 n=f4 v=90
961080 Off ch=1 n=f4 v=65
961080 Off ch=1 n=a4 v=65
961080 Off ch=1 n=c5 v=65
961080 Off ch=1 n=d#5 v=65
961080 Off ch=1 n=f5 v=65
961200 On ch=1 n=f4 v=90
961200 On ch=1 n=a4 v=90
961200 On ch=1 n=c5 v=90
961200 On ch=1 n=d#5 v=90
961200 On ch=1 n=f5 v=90
961320 Off ch=1 n=f5 v=65
961320 Off ch=1 n=d#5 v=65
961320 Off ch=1 n=c5 v=65
961320 Off ch=1 n=a4 v=65
961320 Off ch=1 n=f4 v=65
961680 On ch=1 n=f5 v=90
961680 On ch=1 n=d5 v=90
961680 On ch=1 n=b4 v=90
961680 On ch=1 n=g#4 v=90
961680 On ch=1 n=f4 v=90
961800 Off ch=1 n=f4 v=65
961800 Off ch=1 n=g#4 v=65
961800 Off ch=1 n=b4 v=65
961800 Off ch=1 n=d5 v=65
961800 Off ch=1 n=f5 v=65
962160 On ch=1 n=f4 v=95
962160 On ch=1 n=a4 v=95
962160 On ch=1 n=c5 v=95
962160 On ch=1 n=d#5 v=95
962160 On ch=1 n=f5 v=95
962280 Off ch=1 n=f5 v=65
962280 Off ch=1 n=d#5 v=65
962280 Off ch=1 n=c5 v=65
962280 Off ch=1 n=a4 v=65
962280 Off ch=1 n=f4 v=65
962640 On ch=1 n=f4 v=100
962640 On ch=1 n=b4 v=100
962640 On ch=1 n=d5 v=100
962640 On ch=1 n=f5 v=100
962760 Off ch=1 n=f5 v=65
962760 Off ch=1 n=d5 v=65
962760 Off ch=1 n=b4 v=65
962760 Off ch=1 n=f4 v=65
963120 On ch=1 n=f5 v=105
963120 On ch=1 n=c5 v=105
963120 On ch=1 n=f4 v=105
963240 Off ch=1 n=f4 v=65
963240 Off ch=1 n=c5 v=65
963240 Off ch=1 n=f5 v=65
963600 On ch=1 n=f5 v=110
963600 On ch=1 n=c#5 v=110
963600 On ch=1 n=f4 v=110
963720 Off ch=1 n=f4 v=65
963720 Off ch=1 n=c#5 v=65
963720 Off ch=1 n=f5 v=65
964080 On ch=1 n=f4 v=114
964080 On ch=1 n=c#5 v=114
964080 On ch=1 n=f5 v=114
964200 Off ch=1 n=f5 v=65
964200 Off ch=1 n=c#5 v=65
964200 Off ch=1 n=f4 v=65
964560 On ch=1 n=f4 v=114
964560 On ch=1 n=f5 v=114
964560 On ch=1 n=d5 v=114
964680 Off ch=1 n=d5 v=65
964680 Off ch=1 n=f5 v=65
964680 Off ch=1 n=f4 v=65
964800 On ch=1 n=g5 v=90
964800 On ch=1 n=f5 v=90
964800 On ch=1 n=d5 v=90
964800 On ch=1 n=b4 v=90
964800 On ch=1 n=f4 v=90
964920 Off ch=1 n=f4 v=65
964920 Off ch=1 n=b4 v=65
964920 Off ch=1 n=d5 v=65
964920 Off ch=1 n=f5 v=65
964920 Off ch=1 n=g5 v=65
965040 On ch=1 n=b4 v=90
965040 On ch=1 n=d5 v=90
965040 On ch=1 n=f5 v=90
965040 On ch=1 n=g5 v=90
965040 On ch=1 n=f4 v=90
965160 Off ch=1 n=f4 v=65
965160 Off ch=1 n=g5 v=65
965160 Off ch=1 n=f5 v=65
965160 Off ch=1 n=d5 v=65
965160 Off ch=1 n=b4 v=65
965520 On ch=1 n=g5 v=90
965520 On ch=1 n=c#5 v=90
965520 On ch=1 n=a#4 v=90
965520 On ch=1 n=f4 v=90
965520 On ch=1 n=f5 v=90
965640 Off ch=1 n=f5 v=65
965640 Off ch=1 n=f4 v=65
965640 Off ch=1 n=a#4 v=65
965640 Off ch=1 n=c#5 v=65
965640 Off ch=1 n=g5 v=65
966000 On ch=1 n=b4 v=95
966000 On ch=1 n=d5 v=95
966000 On ch=1 n=f5 v=95
966000 On ch=1 n=g5 v=95
966000 On ch=1 n=f4 v=95
966120 Off ch=1 n=f4 v=65
966120 Off ch=1 n=g5 v=65
966120 Off ch=1 n=f5 v=65
966120 Off ch=1 n=d5 v=65
966120 Off ch=1 n=b4 v=65
966480 On ch=1 n=e5 v=100
966480 On ch=1 n=g5 v=100
966480 On ch=1 n=c5 v=100
966480 On ch=1 n=f4 v=100
966600 Off ch=1 n=f4 v=65
966600 Off ch=1 n=c5 v=65
966600 Off ch=1 n=g5 v=65
966600 Off ch=1 n=e5 v=65
966960 On ch=1 n=g5 v=105
966960 On ch=1 n=d5 v=105
966960 On ch=1 n=f4 v=105
966960 On ch=1 n=f5 v=105
967080 Off ch=1 n=f5 v=65
967080 Off ch=1 n=f4 v=65
967080 Off ch=1 n=d5 v=65
967080 Off ch=1 n=g5 v=65
967440 On ch=1 n=f#5 v=110
967440 On ch=1 n=d5 v=110
967440 On ch=1 n=f4 v=110
967560 Off ch=1 n=f4 v=65
967560 Off ch=1 n=d5 v=65
967560 Off ch=1 n=f#5 v=65
967920 On ch=1 n=f4 v=114
967920 On ch=1 n=d5 v=114
967920 On ch=1 n=f#5 v=114
968040 Off ch=1 n=f#5 v=65
968040 Off ch=1 n=d5 v=65
968040 Off ch=1 n=f4 v=65
968400 On ch=1 n=g5 v=114
968400 On ch=1 n=f4 v=114
968400 On ch=1 n=d#5 v=114
968520 Off ch=1 n=d#5 v=65
968520 Off ch=1 n=f4 v=65
968520 Off ch=1 n=g5 v=65
968640 On ch=1 n=a5 v=102
968640 On ch=1 n=d#5 v=102
968640 On ch=1 n=c5 v=102
968640 On ch=1 n=f4 v=102
969120 Off ch=1 n=f4 v=65
969120 Off ch=1 n=c5 v=65
969120 Off ch=1 n=d#5 v=65
969120 Off ch=1 n=a5 v=65
969120 On ch=1 n=a5 v=120
969120 On ch=1 n=f#4 v=120
969120 On ch=1 n=d5 v=120
969120 On ch=1 n=c5 v=102
969840 Off ch=1 n=c5 v=65
969840 Off ch=1 n=d5 v=65
969840 Off ch=1 n=f#4 v=65
969840 Off ch=1 n=a5 v=65
969840 On ch=1 n=d5 v=102
969840 On ch=1 n=a#5 v=102
969840 On ch=1 n=g4 v=102
969960 Off ch=1 n=g4 v=65
969960 Off ch=1 n=a#5 v=65
969960 Off ch=1 n=d5 v=65
970080 On ch=1 n=d5 v=102
970080 On ch=1 n=f#5 v=102
970080 On ch=1 n=a4 v=102
970080 On ch=1 n=c5 v=102
970200 Off ch=1 n=c5 v=65
970200 Off ch=1 n=a4 v=65
970200 Off ch=1 n=f#5 v=65
970200 Off ch=1 n=d5 v=65
970320 On ch=1 n=d5 v=102
970320 On ch=1 n=g5 v=102
970320 On ch=1 n=a#4 v=102
970440 Off ch=1 n=a#4 v=65
970440 Off ch=1 n=g5 v=65
970440 Off ch=1 n=d5 v=65
970560 On ch=1 n=g#5 v=102
970560 On ch=1 n=d5 v=102
970560 On ch=1 n=c5 v=102
970560 On ch=1 n=f4 v=102
971040 Off ch=1 n=f4 v=65
971040 Off ch=1 n=c5 v=65
971040 Off ch=1 n=d5 v=65
971040 Off ch=1 n=g#5 v=65
971040 On ch=1 n=a5 v=120
971040 On ch=1 n=d5 v=120
971040 On ch=1 n=c5 v=102
971040 On ch=1 n=f#4 v=120
971760 Off ch=1 n=f#4 v=65
971760 Off ch=1 n=c5 v=65
971760 Off ch=1 n=d5 v=65
971760 Off ch=1 n=a5 v=65
971760 On ch=1 n=a#5 v=102
971760 On ch=1 n=d5 v=102
971760 On ch=1 n=g4 v=102
971880 Off ch=1 n=g4 v=65
971880 Off ch=1 n=d5 v=65
971880 Off ch=1 n=a#5 v=65
972000 On ch=1 n=f#5 v=102
972000 On ch=1 n=a#4 v=102
972000 On ch=1 n=d4 v=102
972120 Off ch=1 n=d4 v=65
972120 Off ch=1 n=a#4 v=65
972120 Off ch=1 n=f#5 v=65
972240 On ch=1 n=g5 v=102
972240 On ch=1 n=a#4 v=102
972240 On ch=1 n=d#4 v=102
972360 Off ch=1 n=d#4 v=65
972360 Off ch=1 n=a#4 v=65
972360 Off ch=1 n=g5 v=65
972480 On ch=1 n=b3 v=102
972480 On ch=1 n=g4 v=102
972480 On ch=1 n=d5 v=102
972600 Off ch=1 n=d5 v=65
972600 Off ch=1 n=g4 v=65
972600 Off ch=1 n=b3 v=65
972720 On ch=1 n=c4 v=102
972720 On ch=1 n=g4 v=102
972720 On ch=1 n=d#5 v=102
972840 Off ch=1 n=d#5 v=65
972840 Off ch=1 n=g4 v=65
972840 Off ch=1 n=c4 v=65
972960 On ch=1 n=d4 v=102
972960 On ch=1 n=g4 v=102
972960 On ch=1 n=b4 v=102
973080 Off ch=1 n=b4 v=65
973080 Off ch=1 n=g4 v=65
973080 Off ch=1 n=d4 v=65
973200 On ch=1 n=d#4 v=102
973200 On ch=1 n=g4 v=102
973200 On ch=1 n=c5 v=102
973320 Off ch=1 n=c5 v=65
973320 Off ch=1 n=g4 v=65
973320 Off ch=1 n=d#4 v=65
973440 On ch=1 n=f4 v=102
973440 On ch=1 n=a#4 v=102
973440 On ch=1 n=d5 v=102
973560 Off ch=1 n=d5 v=65
973560 Off ch=1 n=a#4 v=65
973560 Off ch=1 n=f4 v=65
973920 On ch=1 n=f3 v=102
973920 On ch=1 n=f4 v=102
974040 Off ch=1 n=f4 v=65
974040 Off ch=1 n=f3 v=65
974400 On ch=1 n=b3 v=53
974640 On ch=1 n=g#4 v=53
974880 Off ch=1 n=b3 v=65
974880 On ch=1 n=c4 v=53
975120 Off ch=1 n=g#4 v=65
975120 On ch=1 n=g4 v=53
975360 Off ch=1 n=c4 v=65
975360 Off ch=1 n=g4 v=65
975360 On ch=1 n=a3 v=53
975600 On ch=1 n=f#4 v=53
975840 Off ch=1 n=a3 v=65
975840 On ch=1 n=a#3 v=53
976080 Off ch=1 n=f#4 v=65
976080 On ch=1 n=f4 v=53
976320 Off ch=1 n=a#3 v=65
976320 Off ch=1 n=f4 v=65
976320 On ch=1 n=b3 v=53
976560 On ch=1 n=g#4 v=53
976800 Off ch=1 n=b3 v=65
976800 On ch=1 n=c4 v=53
977040 Off ch=1 n=g#4 v=65
977040 On ch=1 n=g4 v=53
977280 Off ch=1 n=c4 v=65
977280 Off ch=1 n=g4 v=65
977280 On ch=1 n=a3 v=53
977520 On ch=1 n=f#4 v=53
977760 Off ch=1 n=a3 v=65
977760 On ch=1 n=a#3 v=53
978000 Off ch=1 n=f#4 v=65
978000 On ch=1 n=f4 v=53
978240 Off ch=1 n=a#3 v=65
978240 Off ch=1 n=f4 v=65
978240 On ch=1 n=g#3 v=58
978240 On ch=1 n=a#3 v=58
978480 On ch=1 n=f4 v=58
978720 Off ch=1 n=g#3 v=65
978720 On ch=1 n=g3 v=58
978960 Off ch=1 n=f4 v=65
978960 On ch=1 n=e4 v=58
979200 Off ch=1 n=a#3 v=65
979200 Off ch=1 n=g3 v=65
979200 Off ch=1 n=e4 v=65
979200 On ch=1 n=a#3 v=63
979200 On ch=1 n=f#3 v=63
979440 On ch=1 n=d#4 v=63
979680 Off ch=1 n=f#3 v=65
979680 On ch=1 n=f3 v=63
979920 Off ch=1 n=d#4 v=65
979920 On ch=1 n=d4 v=63
980160 Off ch=1 n=a#3 v=65
980160 Off ch=1 n=f3 v=65
980160 Off ch=1 n=d4 v=65
980160 On ch=1 n=a#3 v=68
980160 On ch=1 n=g#3 v=68
980400 On ch=1 n=f4 v=68
980640 Off ch=1 n=g#3 v=65
980640 On ch=1 n=g3 v=68
980880 Off ch=1 n=f4 v=65
980880 On ch=1 n=e4 v=68
981120 Off ch=1 n=a#3 v=65
981120 Off ch=1 n=g3 v=65
981120 Off ch=1 n=e4 v=65
981120 On ch=1 n=a#3 v=73
981120 On ch=1 n=f#3 v=73
981360 On ch=1 n=d#4 v=73
981600 Off ch=1 n=f#3 v=65
981600 On ch=1 n=f3 v=73
981840 Off ch=1 n=d#4 v=65
981840 On ch=1 n=d4 v=73
982080 Off ch=1 n=a#3 v=65
982080 Off ch=1 n=f3 v=65
982080 Off ch=1 n=d4 v=65
982080 On ch=1 n=e3 v=78
982320 Off ch=1 n=e3 v=65
982320 On ch=1 n=g3 v=96
982320 On ch=1 n=c4 v=96
982320 On ch=1 n=g4 v=96
982800 Off ch=1 n=g4 v=65
982800 Off ch=1 n=c4 v=65
982800 Off ch=1 n=g3 v=65
982800 On ch=1 n=e3 v=78
983040 Off ch=1 n=e3 v=65
983040 On ch=1 n=d#3 v=78
983280 Off ch=1 n=d#3 v=65
983280 On ch=1 n=g3 v=96
983280 On ch=1 n=g4 v=96
983280 On ch=1 n=a#3 v=96
983760 Off ch=1 n=a#3 v=65
983760 Off ch=1 n=g4 v=65
983760 Off ch=1 n=g3 v=65
983760 On ch=1 n=d#3 v=78
984000 Off ch=1 n=d#3 v=65
984000 On ch=1 n=d3 v=83
984240 Off ch=1 n=d3 v=65
984240 On ch=1 n=f3 v=83
984240 On ch=1 n=a#3 v=83
984240 On ch=1 n=f4 v=83
984480 Off ch=1 n=f4 v=65
984480 Off ch=1 n=a#3 v=65
984480 Off ch=1 n=f3 v=65
984480 On ch=1 n=c#3 v=88
984720 Off ch=1 n=c#3 v=65
984720 On ch=1 n=g3 v=88
984720 On ch=1 n=a#3 v=88
984720 On ch=1 n=e4 v=88
984960 Off ch=1 n=e4 v=65
984960 Off ch=1 n=a#3 v=65
984960 Off ch=1 n=g3 v=65
984960 On ch=1 n=c3 v=93
985200 Off ch=1 n=c3 v=65
985200 On ch=1 n=f4 v=111
985200 On ch=1 n=d#4 v=111
985200 On ch=1 n=a3 v=111
985680 Off ch=1 n=a3 v=65
985680 Off ch=1 n=d#4 v=65
985680 Off ch=1 n=f4 v=65
985680 On ch=1 n=c3 v=98
985920 Off ch=1 n=c3 v=65
985920 On ch=1 n=e4 v=102
986160 Off ch=1 n=e4 v=65
986160 On ch=1 n=g4 v=120
986160 On ch=1 n=c5 v=120
986160 On ch=1 n=g5 v=120
986640 Off ch=1 n=g5 v=65
986640 Off ch=1 n=c5 v=65
986640 Off ch=1 n=g4 v=65
986640 On ch=1 n=e4 v=102
986880 Off ch=1 n=e4 v=65
986880 On ch=1 n=d#4 v=102
987120 Off ch=1 n=d#4 v=65
987120 On ch=1 n=g4 v=120
987120 On ch=1 n=g5 v=120
987120 On ch=1 n=a#4 v=120
987600 Off ch=1 n=a#4 v=65
987600 Off ch=1 n=g5 v=65
987600 Off ch=1 n=g4 v=65
987600 On ch=1 n=d#4 v=102
987840 Off ch=1 n=d#4 v=65
987840 On ch=1 n=d4 v=107
988080 Off ch=1 n=d4 v=65
988080 On ch=1 n=f4 v=107
988080 On ch=1 n=a#4 v=107
988080 On ch=1 n=f5 v=107
988320 Off ch=1 n=f5 v=65
988320 Off ch=1 n=a#4 v=65
988320 Off ch=1 n=f4 v=65
988320 On ch=1 n=c#4 v=112
988560 Off ch=1 n=c#4 v=65
988560 On ch=1 n=g4 v=112
988560 On ch=1 n=a#4 v=112
988560 On ch=1 n=e5 v=112
988800 Off ch=1 n=e5 v=65
988800 Off ch=1 n=a#4 v=65
988800 Off ch=1 n=g4 v=65
988800 On ch=1 n=c4 v=117
989040 Off ch=1 n=c4 v=65
989040 On ch=1 n=f5 v=127
989040 On ch=1 n=d#5 v=127
989040 On ch=1 n=a4 v=127
989520 Off ch=1 n=a4 v=65
989520 Off ch=1 n=d#5 v=65
989520 Off ch=1 n=f5 v=65
989520 On ch=1 n=f3 v=122
989760 Off ch=1 n=f3 v=65
989760 On ch=1 n=a#3 v=102
989760 On ch=1 n=f4 v=102
989760 On ch=1 n=d5 v=102
989880 Off ch=1 n=d5 v=65
989880 Off ch=1 n=f4 v=65
989880 Off ch=1 n=a#3 v=65
990480 On ch=1 n=d6 v=114
990600 Off ch=1 n=d6 v=65
990600 On ch=1 n=a#5 v=114
990720 Off ch=1 n=a#5 v=65
990720 On ch=1 n=d5 v=114
990840 Off ch=1 n=d5 v=65
990840 On ch=1 n=f5 v=114
990960 Off ch=1 n=f5 v=65
990960 On ch=1 n=a#5 v=114
991080 Off ch=1 n=a#5 v=65
991080 On ch=1 n=f5 v=114
991200 Off ch=1 n=f5 v=65
991200 On ch=1 n=a#4 v=114
991320 Off ch=1 n=a#4 v=65
991320 On ch=1 n=d5 v=114
991440 Off ch=1 n=d5 v=65
991440 On ch=1 n=f5 v=114
991560 Off ch=1 n=f5 v=65
991560 On ch=1 n=d5 v=114
991680 Off ch=1 n=d5 v=65
991680 On ch=1 n=f4 v=114
991800 Off ch=1 n=f4 v=65
991800 On ch=1 n=a#4 v=114
991920 Off ch=1 n=a#4 v=65
991920 On ch=1 n=d5 v=114
992040 Off ch=1 n=d5 v=65
992040 On ch=1 n=a#4 v=114
992160 Off ch=1 n=a#4 v=65
992160 On ch=1 n=d4 v=114
992280 Off ch=1 n=d4 v=65
992280 On ch=1 n=f4 v=114
992400 Off ch=1 n=f4 v=65
992400 On ch=1 n=a#4 v=114
992520 Off ch=1 n=a#4 v=65
992520 On ch=1 n=f4 v=114
992640 Off ch=1 n=f4 v=65
992640 On ch=1 n=a#3 v=114
992760 Off ch=1 n=a#3 v=65
992760 On ch=1 n=d4 v=114
992880 Off ch=1 n=d4 v=65
992880 On ch=1 n=f4 v=114
993000 Off ch=1 n=f4 v=65
993000 On ch=1 n=d4 v=114
993120 Off ch=1 n=d4 v=65
993120 On ch=1 n=f3 v=114
993240 Off ch=1 n=f3 v=65
993240 On ch=1 n=a#3 v=114
993360 Off ch=1 n=a#3 v=65
993360 On ch=1 n=d4 v=114
993480 Off ch=1 n=d4 v=65
993480 On ch=1 n=a#3 v=114
993600 Off ch=1 n=a#3 v=65
993600 On ch=1 n=a#2 v=114
993840 Off ch=1 n=a#2 v=65
994080 On ch=1 n=a#3 v=114
994080 On ch=1 n=a#4 v=114
994320 Off ch=1 n=a#4 v=65
994320 Off ch=1 n=a#3 v=65
995520 On ch=1 n=c4 v=127
995520 On ch=1 n=c3 v=127
995760 On ch=1 n=d#4 v=102
995760 On ch=1 n=c5 v=102
995760 On ch=1 n=g#4 v=102
995880 Off ch=1 n=g#4 v=65
995880 Off ch=1 n=c5 v=65
995880 Off ch=1 n=d#4 v=65
995880 On ch=1 n=d#4 v=102
995880 On ch=1 n=c5 v=102
995880 On ch=1 n=g#4 v=102
996000 Off ch=1 n=g#4 v=65
996000 Off ch=1 n=c5 v=65
996000 Off ch=1 n=d#4 v=65
996000 On ch=1 n=d#4 v=102
996000 On ch=1 n=c5 v=102
996000 On ch=1 n=g#4 v=102
996240 Off ch=1 n=g#4 v=65
996240 Off ch=1 n=c5 v=65
996240 Off ch=1 n=d#4 v=65
996720 On ch=1 n=d#4 v=120
996720 On ch=1 n=c5 v=120
996720 On ch=1 n=g#4 v=120
996960 Off ch=1 n=g#4 v=65
996960 Off ch=1 n=c5 v=65
996960 Off ch=1 n=c3 v=65
996960 Off ch=1 n=c4 v=65
996960 Off ch=1 n=d#4 v=65
996960 On ch=1 n=d3 v=127
996960 On ch=1 n=d4 v=127
997200 Off ch=1 n=d4 v=65
997200 On ch=1 n=d4 v=120
997200 On ch=1 n=a4 v=120
997440 Off ch=1 n=a4 v=65
997440 Off ch=1 n=d3 v=65
997440 Off ch=1 n=d4 v=65
997440 On ch=1 n=g3 v=127
997440 On ch=1 n=g2 v=127
997680 On ch=1 n=d4 v=102
997680 On ch=1 n=b4 v=102
997680 On ch=1 n=g4 v=102
997800 Off ch=1 n=g4 v=65
997800 Off ch=1 n=b4 v=65
997800 Off ch=1 n=d4 v=65
997800 On ch=1 n=d4 v=102
997800 On ch=1 n=b4 v=102
997800 On ch=1 n=g4 v=102
997920 Off ch=1 n=g4 v=65
997920 Off ch=1 n=b4 v=65
997920 Off ch=1 n=d4 v=65
997920 On ch=1 n=d4 v=102
997920 On ch=1 n=b4 v=102
997920 On ch=1 n=g4 v=102
998160 Off ch=1 n=g4 v=65
998160 Off ch=1 n=b4 v=65
998160 Off ch=1 n=d4 v=65
999360 Off ch=1 n=g2 v=65
999360 Off ch=1 n=g3 v=65
999360 On ch=1 n=f4 v=127
999360 On ch=1 n=f3 v=127
999600 On ch=1 n=g#4 v=102
999600 On ch=1 n=f5 v=102
999600 On ch=1 n=c#5 v=102
999720 Off ch=1 n=c#5 v=65
999720 Off ch=1 n=f5 v=65
999720 Off ch=1 n=g#4 v=65
999720 On ch=1 n=g#4 v=102
999720 On ch=1 n=f5 v=102
999720 On ch=1 n=c#5 v=102
999840 Off ch=1 n=c#5 v=65
999840 Off ch=1 n=f5 v=65
999840 Off ch=1 n=g#4 v=65
999840 On ch=1 n=g#4 v=102
999840 On ch=1 n=f5 v=102
999840 On ch=1 n=c#5 v=102
1000080 Off ch=1 n=c#5 v=65
1000080 Off ch=1 n=f5 v=65
1000080 Off ch=1 n=g#4 v=65
1000560 On ch=1 n=g#4 v=120
1000560 On ch=1 n=f5 v=120
1000560 On ch=1 n=c#5 v=120
1000800 Off ch=1 n=c#5 v=65
1000800 Off ch=1 n=f5 v=65
1000800 Off ch=1 n=f3 v=65
1000800 Off ch=1 n=f4 v=65
1000800 Off ch=1 n=g#4 v=65
1000800 On ch=1 n=g3 v=127
1000800 On ch=1 n=g4 v=127
1001040 Off ch=1 n=g4 v=65
1001040 On ch=1 n=g4 v=120
1001040 On ch=1 n=d5 v=120
1001280 Off ch=1 n=d5 v=65
1001280 Off ch=1 n=g3 v=65
1001280 Off ch=1 n=g4 v=65
1001280 On ch=1 n=c4 v=127
1001280 On ch=1 n=c3 v=127
1001520 On ch=1 n=g4 v=102
1001520 On ch=1 n=e5 v=102
1001520 On ch=1 n=c5 v=102
1001640 Off ch=1 n=c5 v=65
1001640 Off ch=1 n=e5 v=65
1001640 Off ch=1 n=g4 v=65
1001640 On ch=1 n=g4 v=102
1001640 On ch=1 n=e5 v=102
1001640 On ch=1 n=c5 v=102
1001760 Off ch=1 n=c5 v=65
1001760 Off ch=1 n=e5 v=65
1001760 Off ch=1 n=g4 v=65
1001760 On ch=1 n=g4 v=102
1001760 On ch=1 n=e5 v=102
1001760 On ch=1 n=c5 v=102
1002000 Off ch=1 n=c5 v=65
1002000 Off ch=1 n=e5 v=65
1002000 Off ch=1 n=g4 v=65
1003200 Off ch=1 n=c3 v=65
1003200 Off ch=1 n=c4 v=65
1003200 On ch=1 n=d#4 v=127
1003200 On ch=1 n=d#3 v=127
1003440 Off ch=1 n=d#4 v=65
1003440 On ch=1 n=d#4 v=102
1003440 On ch=1 n=c5 v=102
1003440 On ch=1 n=g4 v=102
1003560 Off ch=1 n=g4 v=65
1003560 Off ch=1 n=c5 v=65
1003560 Off ch=1 n=d#4 v=65
1003560 On ch=1 n=d#4 v=102
1003560 On ch=1 n=c5 v=102
1003560 On ch=1 n=g4 v=102
1003680 Off ch=1 n=g4 v=65
1003680 Off ch=1 n=c5 v=65
1003680 Off ch=1 n=d#4 v=65
1003680 On ch=1 n=d#4 v=102
1003680 On ch=1 n=c5 v=102
1003680 On ch=1 n=g4 v=102
1003920 Off ch=1 n=g4 v=65
1003920 Off ch=1 n=c5 v=65
1003920 Off ch=1 n=d#4 v=65
1004400 On ch=1 n=d#4 v=120
1004400 On ch=1 n=c5 v=120
1004400 On ch=1 n=g4 v=120
1004640 Off ch=1 n=g4 v=65
1004640 Off ch=1 n=c5 v=65
1004640 Off ch=1 n=d#3 v=65
1004640 Off ch=1 n=d#4 v=65
1004640 On ch=1 n=f4 v=127
1004640 On ch=1 n=f3 v=127
1004880 Off ch=1 n=f4 v=65
1004880 On ch=1 n=f4 v=120
1004880 On ch=1 n=g#4 v=120
1004880 On ch=1 n=c5 v=120
1005120 Off ch=1 n=c5 v=65
1005120 Off ch=1 n=g#4 v=65
1005120 Off ch=1 n=f3 v=65
1005120 Off ch=1 n=f4 v=65
1005120 On ch=1 n=b2 v=127
1005120 On ch=1 n=b3 v=127
1005360 On ch=1 n=d5 v=102
1005360 On ch=1 n=d4 v=102
1005360 On ch=1 n=g4 v=102
1005480 Off ch=1 n=g4 v=65
1005480 Off ch=1 n=d4 v=65
1005480 Off ch=1 n=d5 v=65
1005480 On ch=1 n=d5 v=102
1005480 On ch=1 n=d4 v=102
1005480 On ch=1 n=g4 v=102
1005600 Off ch=1 n=g4 v=65
1005600 Off ch=1 n=d4 v=65
1005600 Off ch=1 n=d5 v=65
1005600 On ch=1 n=d5 v=102
1005600 On ch=1 n=d4 v=102
1005600 On ch=1 n=g4 v=102
1005840 Off ch=1 n=g4 v=65
1005840 Off ch=1 n=d4 v=65
1005840 Off ch=1 n=d5 v=65
1006320 On ch=1 n=d5 v=120
1006320 On ch=1 n=a4 v=120
1006320 On ch=1 n=d4 v=120
1006560 Off ch=1 n=d4 v=65
1006560 Off ch=1 n=a4 v=65
1006560 Off ch=1 n=b3 v=65
1006560 Off ch=1 n=b2 v=65
1006560 Off ch=1 n=d5 v=65
1006560 On ch=1 n=c3 v=127
1006560 On ch=1 n=c4 v=127
1006800 Off ch=1 n=c4 v=65
1006800 On ch=1 n=g4 v=120
1006800 On ch=1 n=d#4 v=120
1006800 On ch=1 n=c5 v=120
1007040 Off ch=1 n=c5 v=65
1007040 Off ch=1 n=d#4 v=65
1007040 Off ch=1 n=c3 v=65
1007040 Off ch=1 n=g4 v=65
1007040 On ch=1 n=g#2 v=127
1007040 On ch=1 n=g#3 v=127
1007280 On ch=1 n=d#4 v=102
1007280 On ch=1 n=g#4 v=102
1007280 On ch=1 n=f4 v=102
1007280 On ch=1 n=c5 v=102
1007400 Off ch=1 n=c5 v=65
1007400 Off ch=1 n=f4 v=65
1007400 Off ch=1 n=g#4 v=65
1007400 Off ch=1 n=d#4 v=65
1007400 On ch=1 n=d#4 v=102
1007400 On ch=1 n=g#4 v=102
1007400 On ch=1 n=f4 v=102
1007400 On ch=1 n=c5 v=102
1007520 Off ch=1 n=c5 v=65
1007520 Off ch=1 n=f4 v=65
1007520 Off ch=1 n=g#4 v=65
1007520 Off ch=1 n=d#4 v=65
1007520 On ch=1 n=d#4 v=102
1007520 On ch=1 n=g#4 v=102
1007520 On ch=1 n=f4 v=102
1007520 On ch=1 n=c5 v=102
1007760 Off ch=1 n=c5 v=65
1007760 Off ch=1 n=f4 v=65
1007760 Off ch=1 n=g#4 v=65
1007760 Off ch=1 n=d#4 v=65
1008240 On ch=1 n=d#4 v=120
1008240 On ch=1 n=g#4 v=120
1008240 On ch=1 n=f4 v=120
1008240 On ch=1 n=c5 v=120
1008480 Off ch=1 n=c5 v=65
1008480 Off ch=1 n=f4 v=65
1008480 Off ch=1 n=g#4 v=65
1008480 Off ch=1 n=g#3 v=65
1008480 Off ch=1 n=g#2 v=65
1008480 Off ch=1 n=d#4 v=65
1008480 On ch=1 n=a#2 v=127
1008480 On ch=1 n=a#3 v=127
1008720 Off ch=1 n=a#3 v=65
1008720 On ch=1 n=g#5 v=120
1008720 On ch=1 n=d5 v=120
1008720 On ch=1 n=a#4 v=120
1008960 Off ch=1 n=a#4 v=65
1008960 Off ch=1 n=d5 v=65
1008960 Off ch=1 n=a#2 v=65
1008960 Off ch=1 n=g#5 v=65
1008960 On ch=1 n=d#3 v=127
1008960 On ch=1 n=d#2 v=127
1009200 On ch=1 n=g4 v=102
1009200 On ch=1 n=a#4 v=102
1009200 On ch=1 n=g5 v=102
1009320 Off ch=1 n=g5 v=65
1009320 Off ch=1 n=a#4 v=65
1009320 Off ch=1 n=g4 v=65
1009320 On ch=1 n=g4 v=102
1009320 On ch=1 n=a#4 v=102
1009320 On ch=1 n=g5 v=102
1009440 Off ch=1 n=g5 v=65
1009440 Off ch=1 n=a#4 v=65
1009440 Off ch=1 n=g4 v=65
1009440 On ch=1 n=g4 v=102
1009440 On ch=1 n=a#4 v=102
1009440 On ch=1 n=g5 v=102
1009680 Off ch=1 n=g5 v=65
1009680 Off ch=1 n=a#4 v=65
1009680 Off ch=1 n=g4 v=65
1010160 On ch=1 n=g4 v=120
1010160 On ch=1 n=a#4 v=120
1010160 On ch=1 n=g5 v=120
1010400 Off ch=1 n=g5 v=65
1010400 Off ch=1 n=a#4 v=65
1010400 Off ch=1 n=g4 v=65
1010640 On ch=1 n=g4 v=120
1010640 On ch=1 n=a#4 v=120
1010640 On ch=1 n=g5 v=120
1010880 Off ch=1 n=g5 v=65
1010880 Off ch=1 n=a#4 v=65
1010880 Off ch=1 n=d#2 v=65
1010880 Off ch=1 n=d#3 v=65
1010880 Off ch=1 n=g4 v=65
1010880 On ch=1 n=a#3 v=127
1010880 On ch=1 n=a#2 v=127
1011120 Off ch=1 n=a#2 v=65
1011120 Off ch=1 n=a#3 v=65
1011120 On ch=1 n=a#3 v=102
1011120 On ch=1 n=g#4 v=102
1011240 Off ch=1 n=g#4 v=65
1011240 Off ch=1 n=a#3 v=65
1011240 On ch=1 n=a#3 v=102
1011240 On ch=1 n=g#4 v=102
1011360 Off ch=1 n=g#4 v=65
1011360 Off ch=1 n=a#3 v=65
1011360 On ch=1 n=a#3 v=102
1011360 On ch=1 n=g#4 v=102
1011600 Off ch=1 n=g#4 v=65
1011600 Off ch=1 n=a#3 v=65
1012080 On ch=1 n=a#3 v=120
1012080 On ch=1 n=g#4 v=120
1012320 Off ch=1 n=g#4 v=65
1012320 Off ch=1 n=a#3 v=65
1012320 On ch=1 n=a#3 v=127
1012320 On ch=1 n=a#2 v=127
1012560 Off ch=1 n=a#2 v=65
1012560 Off ch=1 n=a#3 v=65
1012560 On ch=1 n=a#3 v=120
1012560 On ch=1 n=g4 v=120
1012800 Off ch=1 n=g4 v=65
1012800 Off ch=1 n=a#3 v=65
1012800 On ch=1 n=a#2 v=127
1012800 On ch=1 n=a#3 v=127
1013040 Off ch=1 n=a#3 v=65
1013040 Off ch=1 n=a#2 v=65
1013040 On ch=1 n=a#3 v=102
1013040 On ch=1 n=f4 v=102
1013160 Off ch=1 n=f4 v=65
1013160 Off ch=1 n=a#3 v=65
1013160 On ch=1 n=a#3 v=102
1013160 On ch=1 n=f4 v=102
1013280 Off ch=1 n=f4 v=65
1013280 Off ch=1 n=a#3 v=65
1013280 On ch=1 n=a#3 v=102
1013280 On ch=1 n=f4 v=102
1013520 Off ch=1 n=f4 v=65
1013520 Off ch=1 n=a#3 v=65
1014000 On ch=1 n=a#3 v=102
1014000 On ch=1 n=f4 v=102
1014240 Off ch=1 n=f4 v=65
1014240 Off ch=1 n=a#3 v=65
1014240 On ch=1 n=a#2 v=127
1014240 On ch=1 n=a#3 v=127
1014480 Off ch=1 n=a#3 v=65
1014480 Off ch=1 n=a#2 v=65
1014480 On ch=1 n=a#3 v=102
1014480 On ch=1 n=d#4 v=102
1014720 Off ch=1 n=d#4 v=65
1014720 Off ch=1 n=a#3 v=65
1014720 On ch=1 n=g#3 v=127
1014720 On ch=1 n=g#2 v=127
1014960 On ch=1 n=a#3 v=102
1014960 On ch=1 n=a#4 v=102
1015080 Off ch=1 n=a#4 v=65
1015080 Off ch=1 n=a#3 v=65
1015080 On ch=1 n=a#3 v=102
1015080 On ch=1 n=a#4 v=102
1015200 Off ch=1 n=a#4 v=65
1015200 Off ch=1 n=a#3 v=65
1015200 On ch=1 n=a#3 v=102
1015200 On ch=1 n=a#4 v=102
1015440 Off ch=1 n=a#4 v=65
1015440 Off ch=1 n=a#3 v=65
1015920 On ch=1 n=a#3 v=120
1015920 On ch=1 n=a#4 v=120
1016160 Off ch=1 n=a#4 v=65
1016160 Off ch=1 n=g#2 v=65
1016160 Off ch=1 n=g#3 v=65
1016160 Off ch=1 n=a#3 v=65
1016160 On ch=1 n=g2 v=127
1016160 On ch=1 n=g3 v=127
1016400 On ch=1 n=a#3 v=120
1016400 On ch=1 n=a#4 v=120
1016640 Off ch=1 n=a#4 v=65
1016640 Off ch=1 n=a#3 v=65
1016640 Off ch=1 n=g3 v=65
1016640 Off ch=1 n=g2 v=65
1016640 On ch=1 n=f3 v=127
1016640 On ch=1 n=f2 v=127
1016880 On ch=1 n=a#3 v=102
1016880 On ch=1 n=a#4 v=102
1017000 Off ch=1 n=a#4 v=65
1017000 Off ch=1 n=a#3 v=65
1017000 On ch=1 n=a#3 v=102
1017000 On ch=1 n=a#4 v=102
1017120 Off ch=1 n=a#4 v=65
1017120 Off ch=1 n=a#3 v=65
1017120 On ch=1 n=a#3 v=102
1017120 On ch=1 n=a#4 v=102
1017360 Off ch=1 n=a#4 v=65
1017360 Off ch=1 n=a#3 v=65
1017840 On ch=1 n=a#3 v=102
1017840 On ch=1 n=a#4 v=102
1018080 Off ch=1 n=a#4 v=65
1018080 Off ch=1 n=f2 v=65
1018080 Off ch=1 n=f3 v=65
1018080 Off ch=1 n=a#3 v=65
1018080 On ch=1 n=f#3 v=127
1018080 On ch=1 n=f#2 v=127
1018320 On ch=1 n=a#3 v=102
1018320 On ch=1 n=a#4 v=102
1018560 Off ch=1 n=a#4 v=65
1018560 Off ch=1 n=a#3 v=65
1018560 Off ch=1 n=f#2 v=65
1018560 Off ch=1 n=f#3 v=65
1018560 On ch=1 n=g3 v=127
1018560 On ch=1 n=g2 v=127
1018800 On ch=1 n=a#3 v=102
1018800 On ch=1 n=a#4 v=102
1018920 Off ch=1 n=a#4 v=65
1018920 Off ch=1 n=a#3 v=65
1018920 On ch=1 n=a#3 v=102
1018920 On ch=1 n=a#4 v=102
1019040 Off ch=1 n=a#4 v=65
1019040 Off ch=1 n=a#3 v=65
1019040 On ch=1 n=a#3 v=102
1019040 On ch=1 n=a#4 v=102
1019280 Off ch=1 n=a#4 v=65
1019280 Off ch=1 n=a#3 v=65
1019760 On ch=1 n=a#3 v=102
1019760 On ch=1 n=a#4 v=102
1020000 Off ch=1 n=a#4 v=65
1020000 Off ch=1 n=g2 v=65
1020000 Off ch=1 n=g3 v=65
1020000 Off ch=1 n=a#3 v=65
1020000 On ch=1 n=a2 v=127
1020000 On ch=1 n=a3 v=127
1020240 Off ch=1 n=a3 v=65
1020240 On ch=1 n=a#3 v=102
1020240 On ch=1 n=a#4 v=102
1020480 Off ch=1 n=a#4 v=65
1020480 Off ch=1 n=a2 v=65
1020480 Off ch=1 n=a#3 v=65
1020480 On ch=1 n=c4 v=127
1020480 On ch=1 n=c3 v=127
1020720 On ch=1 n=d#4 v=102
1020720 On ch=1 n=g#4 v=102
1020720 On ch=1 n=c5 v=102
1020840 Off ch=1 n=c5 v=65
1020840 Off ch=1 n=g#4 v=65
1020840 Off ch=1 n=d#4 v=65
1020840 On ch=1 n=d#4 v=102
1020840 On ch=1 n=g#4 v=102
1020840 On ch=1 n=c5 v=102
1020960 Off ch=1 n=c5 v=65
1020960 Off ch=1 n=g#4 v=65
1020960 Off ch=1 n=d#4 v=65
1020960 On ch=1 n=d#4 v=102
1020960 On ch=1 n=g#4 v=102
1020960 On ch=1 n=c5 v=102
1021200 Off ch=1 n=c5 v=65
1021200 Off ch=1 n=g#4 v=65
1021200 Off ch=1 n=d#4 v=65
1021680 On ch=1 n=d#4 v=120
1021680 On ch=1 n=g#4 v=120
1021680 On ch=1 n=c5 v=120
1021920 Off ch=1 n=c5 v=65
1021920 Off ch=1 n=g#4 v=65
1021920 Off ch=1 n=c3 v=65
1021920 Off ch=1 n=c4 v=65
1021920 Off ch=1 n=d#4 v=65
1021920 On ch=1 n=d4 v=127
1021920 On ch=1 n=d3 v=127
1022160 Off ch=1 n=d4 v=65
1022160 On ch=1 n=d4 v=120
1022160 On ch=1 n=a4 v=120
1022160 On ch=1 n=d5 v=120
1022400 Off ch=1 n=d5 v=65
1022400 Off ch=1 n=a4 v=65
1022400 Off ch=1 n=d3 v=65
1022400 Off ch=1 n=d4 v=65
1022400 On ch=1 n=g3 v=127
1022400 On ch=1 n=g2 v=127
1022640 On ch=1 n=d4 v=102
1022640 On ch=1 n=g4 v=102
1022640 On ch=1 n=b4 v=102
1022760 Off ch=1 n=b4 v=65
1022760 Off ch=1 n=g4 v=65
1022760 Off ch=1 n=d4 v=65
1022760 On ch=1 n=d4 v=102
1022760 On ch=1 n=g4 v=102
1022760 On ch=1 n=b4 v=102
1022880 Off ch=1 n=b4 v=65
1022880 Off ch=1 n=g4 v=65
1022880 Off ch=1 n=d4 v=65
1022880 On ch=1 n=d4 v=102
1022880 On ch=1 n=g4 v=102
1022880 On ch=1 n=b4 v=102
1023120 Off ch=1 n=b4 v=65
1023120 Off ch=1 n=g4 v=65
1023120 Off ch=1 n=d4 v=65
1024320 Off ch=1 n=g2 v=65
1024320 Off ch=1 n=g3 v=65
1024320 On ch=1 n=f4 v=127
1024320 On ch=1 n=f3 v=127
1024560 On ch=1 n=g#4 v=102
1024560 On ch=1 n=c#5 v=102
1024560 On ch=1 n=f5 v=102
1024680 Off ch=1 n=f5 v=65
1024680 Off ch=1 n=c#5 v=65
1024680 Off ch=1 n=g#4 v=65
1024680 On ch=1 n=g#4 v=102
1024680 On ch=1 n=c#5 v=102
1024680 On ch=1 n=f5 v=102
1024800 Off ch=1 n=f5 v=65
1024800 Off ch=1 n=c#5 v=65
1024800 Off ch=1 n=g#4 v=65
1024800 On ch=1 n=g#4 v=102
1024800 On ch=1 n=c#5 v=102
1024800 On ch=1 n=f5 v=102
1025040 Off ch=1 n=f5 v=65
1025040 Off ch=1 n=c#5 v=65
1025040 Off ch=1 n=g#4 v=65
1025520 On ch=1 n=g#4 v=120
1025520 On ch=1 n=c#5 v=120
1025520 On ch=1 n=f5 v=120
1025760 Off ch=1 n=f5 v=65
1025760 Off ch=1 n=c#5 v=65
1025760 Off ch=1 n=f3 v=65
1025760 Off ch=1 n=f4 v=65
1025760 Off ch=1 n=g#4 v=65
1025760 On ch=1 n=g4 v=127
1025760 On ch=1 n=g3 v=127
1026000 Off ch=1 n=g4 v=65
1026000 On ch=1 n=g4 v=120
1026000 On ch=1 n=b4 v=120
1026000 On ch=1 n=f5 v=120
1026240 Off ch=1 n=f5 v=65
1026240 Off ch=1 n=b4 v=65
1026240 Off ch=1 n=g3 v=65
1026240 Off ch=1 n=g4 v=65
1026240 On ch=1 n=c3 v=127
1026240 On ch=1 n=c4 v=127
1026480 On ch=1 n=g4 v=102
1026480 On ch=1 n=e4 v=102
1026480 On ch=1 n=e5 v=102
1026480 On ch=1 n=c5 v=102
1026600 Off ch=1 n=c5 v=65
1026600 Off ch=1 n=e5 v=65
1026600 Off ch=1 n=e4 v=65
1026600 Off ch=1 n=g4 v=65
1026600 On ch=1 n=g4 v=102
1026600 On ch=1 n=e4 v=102
1026600 On ch=1 n=e5 v=102
1026600 On ch=1 n=c5 v=102
1026720 Off ch=1 n=c5 v=65
1026720 Off ch=1 n=e5 v=65
1026720 Off ch=1 n=e4 v=65
1026720 Off ch=1 n=g4 v=65
1026720 On ch=1 n=g4 v=102
1026720 On ch=1 n=e4 v=102
1026720 On ch=1 n=e5 v=102
1026720 On ch=1 n=c5 v=102
1026960 Off ch=1 n=c5 v=65
1026960 Off ch=1 n=e5 v=65
1026960 Off ch=1 n=e4 v=65
1026960 Off ch=1 n=g4 v=65
1028160 Off ch=1 n=c4 v=65
1028160 Off ch=1 n=c3 v=65
1028160 On ch=1 n=g#4 v=127
1028160 On ch=1 n=g#3 v=127
1028400 Off ch=1 n=g#4 v=65
1028400 On ch=1 n=g#4 v=102
1028400 On ch=1 n=f5 v=102
1028400 On ch=1 n=c5 v=102
1028520 Off ch=1 n=c5 v=65
1028520 Off ch=1 n=f5 v=65
1028520 Off ch=1 n=g#4 v=65
1028520 On ch=1 n=g#4 v=102
1028520 On ch=1 n=f5 v=102
1028520 On ch=1 n=c5 v=102
1028640 Off ch=1 n=c5 v=65
1028640 Off ch=1 n=f5 v=65
1028640 Off ch=1 n=g#4 v=65
1028640 On ch=1 n=g#4 v=102
1028640 On ch=1 n=f5 v=102
1028640 On ch=1 n=c5 v=102
1028880 Off ch=1 n=c5 v=65
1028880 Off ch=1 n=f5 v=65
1028880 Off ch=1 n=g#4 v=65
1029360 On ch=1 n=g#4 v=120
1029360 On ch=1 n=f5 v=120
1029360 On ch=1 n=c5 v=120
1029600 Off ch=1 n=c5 v=65
1029600 Off ch=1 n=f5 v=65
1029600 Off ch=1 n=g#3 v=65
1029600 Off ch=1 n=g#4 v=65
1029600 On ch=1 n=a#4 v=127
1029600 On ch=1 n=a#3 v=127
1029840 Off ch=1 n=a#4 v=65
1029840 On ch=1 n=a#4 v=120
1029840 On ch=1 n=c#5 v=120
1029840 On ch=1 n=f5 v=120
1030080 Off ch=1 n=f5 v=65
1030080 Off ch=1 n=c#5 v=65
1030080 Off ch=1 n=a#3 v=65
1030080 Off ch=1 n=a#4 v=65
1030080 On ch=1 n=e4 v=127
1030080 On ch=1 n=e3 v=127
1030320 On ch=1 n=g5 v=102
1030320 On ch=1 n=g4 v=102
1030320 On ch=1 n=c5 v=102
1030440 Off ch=1 n=c5 v=65
1030440 Off ch=1 n=g4 v=65
1030440 Off ch=1 n=g5 v=65
1030440 On ch=1 n=g5 v=102
1030440 On ch=1 n=g4 v=102
1030440 On ch=1 n=c5 v=102
1030560 Off ch=1 n=c5 v=65
1030560 Off ch=1 n=g4 v=65
1030560 Off ch=1 n=g5 v=65
1030560 On ch=1 n=g5 v=102
1030560 On ch=1 n=g4 v=102
1030560 On ch=1 n=c5 v=102
1030800 Off ch=1 n=c5 v=65
1030800 Off ch=1 n=g4 v=65
1030800 Off ch=1 n=g5 v=65
1031280 On ch=1 n=g5 v=120
1031280 On ch=1 n=d5 v=120
1031280 On ch=1 n=g4 v=120
1031520 Off ch=1 n=g4 v=65
1031520 Off ch=1 n=d5 v=65
1031520 Off ch=1 n=e3 v=65
1031520 Off ch=1 n=e4 v=65
1031520 Off ch=1 n=g5 v=65
1031520 On ch=1 n=f3 v=127
1031520 On ch=1 n=f4 v=127
1031760 Off ch=1 n=f4 v=65
1031760 On ch=1 n=c5 v=120
1031760 On ch=1 n=g#4 v=120
1031760 On ch=1 n=f5 v=120
1032000 Off ch=1 n=f5 v=65
1032000 Off ch=1 n=g#4 v=65
1032000 Off ch=1 n=f3 v=65
1032000 Off ch=1 n=c5 v=65
1032000 On ch=1 n=c#4 v=127
1032000 On ch=1 n=c#3 v=127
1032240 On ch=1 n=f5 v=102
1032240 On ch=1 n=f4 v=102
1032240 On ch=1 n=g#4 v=102
1032240 On ch=1 n=a#4 v=102
1032360 Off ch=1 n=a#4 v=65
1032360 Off ch=1 n=g#4 v=65
1032360 Off ch=1 n=f4 v=65
1032360 Off ch=1 n=f5 v=65
1032360 On ch=1 n=f5 v=102
1032360 On ch=1 n=f4 v=102
1032360 On ch=1 n=g#4 v=102
1032360 On ch=1 n=a#4 v=102
1032480 Off ch=1 n=a#4 v=65
1032480 Off ch=1 n=g#4 v=65
1032480 Off ch=1 n=f4 v=65
1032480 Off ch=1 n=f5 v=65
1032480 On ch=1 n=f5 v=102
1032480 On ch=1 n=f4 v=102
1032480 On ch=1 n=g#4 v=102
1032480 On ch=1 n=a#4 v=102
1032720 Off ch=1 n=a#4 v=65
1032720 Off ch=1 n=g#4 v=65
1032720 Off ch=1 n=f4 v=65
1032720 Off ch=1 n=f5 v=65
1033200 On ch=1 n=f5 v=120
1033200 On ch=1 n=f4 v=120
1033200 On ch=1 n=g#4 v=120
1033200 On ch=1 n=a#4 v=120
1033440 Off ch=1 n=a#4 v=65
1033440 Off ch=1 n=g#4 v=65
1033440 Off ch=1 n=f4 v=65
1033440 Off ch=1 n=c#3 v=65
1033440 Off ch=1 n=c#4 v=65
1033440 Off ch=1 n=f5 v=65
1033440 On ch=1 n=d#3 v=127
1033440 On ch=1 n=d#4 v=127
1033680 Off ch=1 n=d#4 v=65
1033680 On ch=1 n=g4 v=120
1033680 On ch=1 n=a#4 v=120
1033680 On ch=1 n=c#5 v=120
1033680 On ch=1 n=d#5 v=120
1033680 On ch=1 n=g5 v=120
1033920 Off ch=1 n=g5 v=65
1033920 Off ch=1 n=d#5 v=65
1033920 Off ch=1 n=c#5 v=65
1033920 Off ch=1 n=a#4 v=65
1033920 Off ch=1 n=d#3 v=65
1033920 Off ch=1 n=g4 v=65
1033920 On ch=1 n=g#2 v=127
1033920 On ch=1 n=g#3 v=127
1034160 On ch=1 n=c5 v=102
1034160 On ch=1 n=d#4 v=102
1034160 On ch=1 n=g#4 v=102
1034280 Off ch=1 n=g#4 v=65
1034280 Off ch=1 n=d#4 v=65
1034280 Off ch=1 n=c5 v=65
1034280 On ch=1 n=c5 v=102
1034280 On ch=1 n=d#4 v=102
1034280 On ch=1 n=g#4 v=102
1034400 Off ch=1 n=g#4 v=65
1034400 Off ch=1 n=d#4 v=65
1034400 Off ch=1 n=c5 v=65
1034400 On ch=1 n=c5 v=102
1034400 On ch=1 n=d#4 v=102
1034400 On ch=1 n=g#4 v=102
1034640 Off ch=1 n=g#4 v=65
1034640 Off ch=1 n=d#4 v=65
1034640 Off ch=1 n=c5 v=65
1035120 On ch=1 n=c5 v=120
1035120 On ch=1 n=d#4 v=120
1035120 On ch=1 n=g#4 v=120
1035360 Off ch=1 n=g#4 v=65
1035360 Off ch=1 n=d#4 v=65
1035360 Off ch=1 n=c5 v=65
1035600 On ch=1 n=d#4 v=120
1035600 On ch=1 n=g#4 v=120
1035600 On ch=1 n=c5 v=120
1035840 Off ch=1 n=c5 v=65
1035840 Off ch=1 n=g#4 v=65
1035840 Off ch=1 n=g#3 v=65
1035840 Off ch=1 n=g#2 v=65
1035840 Off ch=1 n=d#4 v=65
1035840 On ch=1 n=d4 v=53
1035840 On ch=1 n=a4 v=53
1037280 Off ch=1 n=a4 v=65
1037280 On ch=1 n=d3 v=53
1037760 Off ch=1 n=d3 v=65
1037760 On ch=1 n=g3 v=53
1038720 Off ch=1 n=g3 v=65
1039200 Off ch=1 n=d4 v=65
1039200 On ch=1 n=a#3 v=53
1039680 Off ch=1 n=a#3 v=65
1039680 On ch=1 n=c#4 v=53
1041120 Off ch=1 n=c#4 v=65
1041120 On ch=1 n=c3 v=53
1041600 Off ch=1 n=c3 v=65
1041600 On ch=1 n=f3 v=53
1043040 Off ch=1 n=f3 v=65
1043040 On ch=1 n=a3 v=53
1043520 Off ch=1 n=a3 v=65
1043520 On ch=1 n=c#4 v=53
1044960 Off ch=1 n=c#4 v=65
1044960 On ch=1 n=c3 v=53
1045440 Off ch=1 n=c3 v=65
1045440 On ch=1 n=f3 v=53
1046880 On ch=1 n=f4 v=53
1047000 Off ch=1 n=f4 v=65
1048800 On ch=1 n=f2 v=47
1048920 Off ch=1 n=f2 v=65
1049280 Off ch=1 n=f3 v=65
1055040 On ch=1 n=c5 v=108
1055040 On ch=1 n=a#4 v=108
1055040 On ch=1 n=f#4 v=108
1055040 On ch=1 n=c4 v=108
1055040 On ch=1 n=a#3 v=108
1055040 On ch=1 n=d#3 v=108
1055520 Off ch=1 n=d#3 v=65
1055520 On ch=1 n=a#2 v=108
1056480 Off ch=1 n=a#3 v=65
1056480 Off ch=1 n=c4 v=65
1056480 Off ch=1 n=f#4 v=65
1056480 Off ch=1 n=a#4 v=65
1056480 Off ch=1 n=c5 v=65
1056480 Off ch=1 n=a#2 v=65
1058880 On ch=1 n=a#3 v=108
1058880 On ch=1 n=a#4 v=108
1058880 On ch=1 n=f3 v=108
1058880 On ch=1 n=d4 v=108
1058880 On ch=1 n=g#4 v=108
1058880 On ch=1 n=d5 v=108
1059360 Off ch=1 n=f3 v=65
1059360 On ch=1 n=a#2 v=108
1060320 Off ch=1 n=a#4 v=65
1060320 Off ch=1 n=a#3 v=65
1060320 Off ch=1 n=d4 v=65
1060320 Off ch=1 n=g#4 v=65
1060320 Off ch=1 n=d5 v=65
1060320 Off ch=1 n=a#2 v=65
1062240 On ch=1 n=g3 v=65
1062240 On ch=1 n=a#4 v=65
1062480 Off ch=1 n=a#4 v=65
1062480 On ch=1 n=b4 v=65
1062720 Off ch=1 n=g3 v=65
1062720 Off ch=1 n=b4 v=65
1062720 On ch=1 n=c4 v=65
1062720 On ch=1 n=d5 v=65
1062960 Off ch=1 n=d5 v=65
1062960 On ch=1 n=c5 v=65
1063200 Off ch=1 n=c4 v=65
1063200 Off ch=1 n=c5 v=65
1063200 On ch=1 n=f4 v=65
1063200 On ch=1 n=a#4 v=65
1063440 Off ch=1 n=a#4 v=65
1063440 On ch=1 n=a4 v=65
1063680 Off ch=1 n=f4 v=65
1063680 Off ch=1 n=a4 v=65
1063680 On ch=1 n=a#3 v=65
1063680 On ch=1 n=c5 v=65
1063920 Off ch=1 n=c5 v=65
1063920 On ch=1 n=a#4 v=65
1064100 On ch=1 n=g4 v=65
1064160 Off ch=1 n=a#3 v=65
1064160 Off ch=1 n=a#4 v=65
1064160 On ch=1 n=a4 v=65
1064400 Off ch=1 n=g4 v=65
1064400 Off ch=1 n=a4 v=65
1064400 On ch=1 n=g4 v=65
1064640 On ch=1 n=c4 v=71
1064880 Off ch=1 n=g4 v=65
1064880 On ch=1 n=f4 v=77
1065120 Off ch=1 n=f4 v=65
1065120 On ch=1 n=a#4 v=83
1065480 Off ch=1 n=a#4 v=65
1065480 On ch=1 n=a4 v=89
1065840 Off ch=1 n=a4 v=65
1065840 On ch=1 n=g4 v=83
1066020 Off ch=1 n=c4 v=65
1066020 On ch=1 n=c4 v=83
1066080 Off ch=1 n=g4 v=65
1066080 On ch=1 n=f4 v=77
1066320 Off ch=1 n=c4 v=65
1066320 Off ch=1 n=f4 v=65
1066320 On ch=1 n=c4 v=71
1066480 On ch=1 n=f3 v=71
1066560 On ch=1 n=a4 v=65
1067520 Off ch=1 n=a4 v=65
1067520 Off ch=1 n=f3 v=65
1067520 Off ch=1 n=c4 v=65
1068420 On ch=1 n=d#4 v=90
1068440 On ch=1 n=f4 v=90
1068460 On ch=1 n=a4 v=90
1068480 On ch=1 n=c5 v=94
1069380 Off ch=1 n=d#4 v=65
1069380 On ch=1 n=d4 v=94
1069400 Off ch=1 n=f4 v=65
1069400 On ch=1 n=g4 v=94
1069420 Off ch=1 n=a4 v=65
1069420 On ch=1 n=b4 v=94
1069440 Off ch=1 n=c5 v=65
1069440 On ch=1 n=f5 v=98
1070340 Off ch=1 n=d4 v=65
1070340 On ch=1 n=c4 v=98
1070360 Off ch=1 n=g4 v=65
1070370 On ch=1 n=g4 v=98
1070380 Off ch=1 n=b4 v=65
1070400 Off ch=1 n=f5 v=65
1070400 On ch=1 n=d#5 v=102
1071300 Off ch=1 n=c4 v=65
1071330 Off ch=1 n=g4 v=65
1071360 Off ch=1 n=d#5 v=65
1071360 On ch=1 n=d5 v=102
1071360 On ch=1 n=f4 v=102
1072320 Off ch=1 n=f4 v=65
1072320 Off ch=1 n=d5 v=65
1072320 On ch=1 n=g4 v=98
1073280 Off ch=1 n=g4 v=65
1073280 On ch=1 n=g3 v=94
1073760 On ch=1 n=g4 v=112
1074240 Off ch=1 n=g3 v=65
1074240 On ch=1 n=c4 v=90
1074480 Off ch=1 n=g4 v=65
1074480 On ch=1 n=f4 v=90
1074720 Off ch=1 n=f4 v=65
1074720 On ch=1 n=d#4 v=90
1074960 Off ch=1 n=d#4 v=65
1074960 On ch=1 n=d4 v=90
1075200 Off ch=1 n=c4 v=65
1075200 Off ch=1 n=d4 v=65
1075200 On ch=1 n=c4 v=90
1075440 Off ch=1 n=c4 v=65
1075440 On ch=1 n=c4 v=90
1075640 On ch=1 n=d#4 v=90
1075680 Off ch=1 n=d#4 v=65
1075680 Off ch=1 n=c4 v=65
1075680 On ch=1 n=d4 v=90
1075920 Off ch=1 n=d4 v=65
1075920 On ch=1 n=c4 v=90
1076160 Off ch=1 n=c4 v=65
1076160 On ch=1 n=a4 v=65
1076400 On ch=1 n=c4 v=65
1076600 On ch=1 n=d#4 v=65
1076640 Off ch=1 n=d#4 v=65
1076640 Off ch=1 n=c4 v=65
1076640 On ch=1 n=d4 v=71
1076880 Off ch=1 n=d4 v=65
1076880 On ch=1 n=c4 v=71
1077120 Off ch=1 n=a4 v=65
1077120 Off ch=1 n=c4 v=65
1077120 On ch=1 n=a#4 v=77
1077360 On ch=1 n=a#3 v=77
1077560 On ch=1 n=d4 v=77
1077600 Off ch=1 n=d4 v=65
1077600 Off ch=1 n=a#3 v=65
1077600 On ch=1 n=c4 v=83
1077840 Off ch=1 n=c4 v=65
1077840 On ch=1 n=a#3 v=83
1078080 Off ch=1 n=a#4 v=65
1078080 Off ch=1 n=a#3 v=65
1078080 On ch=1 n=a3 v=90
1079040 Off ch=1 n=a3 v=65
1079040 On ch=1 n=g3 v=90
1080000 Off ch=1 n=g3 v=65
1080000 On ch=1 n=f#3 v=90
1080480 Off ch=1 n=f#3 v=65
1080480 On ch=1 n=d3 v=90
1080960 Off ch=1 n=d3 v=65
1080960 On ch=1 n=g3 v=90
1081200 On ch=1 n=g4 v=90
1081440 Off ch=1 n=g4 v=65
1081440 Off ch=1 n=g3 v=65
1081440 On ch=1 n=c4 v=90
1081440 On ch=1 n=a4 v=90
1081680 Off ch=1 n=a4 v=65
1081680 On ch=1 n=a#4 v=90
1081920 Off ch=1 n=c4 v=65
1081920 On ch=1 n=f3 v=90
1082160 Off ch=1 n=a#4 v=65
1082160 On ch=1 n=a4 v=90
1082400 Off ch=1 n=a4 v=65
1082400 On ch=1 n=g4 v=90
1082640 Off ch=1 n=g4 v=65
1082640 On ch=1 n=f4 v=90
1082880 Off ch=1 n=f3 v=65
1082880 Off ch=1 n=f4 v=65
1082880 On ch=1 n=e4 v=90
1083120 Off ch=1 n=e4 v=65
1083120 On ch=1 n=d#4 v=90
1083360 Off ch=1 n=d#4 v=65
1083360 On ch=1 n=c#4 v=65
1083600 Off ch=1 n=c#4 v=65
1083600 On ch=1 n=d4 v=65
1083840 Off ch=1 n=d4 v=65
1083840 On ch=1 n=d#4 v=65
1084080 Off ch=1 n=d#4 v=65
1084080 On ch=1 n=d4 v=65
1084320 Off ch=1 n=d4 v=65
1084320 On ch=1 n=c#4 v=65
1084560 Off ch=1 n=c#4 v=65
1084560 On ch=1 n=d4 v=65
1084800 Off ch=1 n=d4 v=65
1084800 On ch=1 n=c4 v=65
1085040 Off ch=1 n=c4 v=65
1085040 On ch=1 n=a#3 v=65
1085280 Off ch=1 n=a#3 v=65
1085280 On ch=1 n=a3 v=65
1085520 Off ch=1 n=a3 v=65
1085520 On ch=1 n=a#3 v=65
1085700 Off ch=1 n=a#3 v=65
1085700 On ch=1 n=d#3 v=65
1085760 Off ch=1 n=d#3 v=65
1085760 On ch=1 n=c4 v=65
1086000 Off ch=1 n=c4 v=65
1086000 On ch=1 n=a#3 v=65
1086240 Off ch=1 n=a#3 v=65
1086240 On ch=1 n=a3 v=65
1086480 Off ch=1 n=a3 v=65
1086480 On ch=1 n=a#3 v=65
1086720 Off ch=1 n=a#3 v=65
1086720 On ch=1 n=g#3 v=65
1086960 Off ch=1 n=g#3 v=65
1086960 On ch=1 n=g3 v=65
1087200 Off ch=1 n=g3 v=65
1087200 On ch=1 n=f#3 v=90
1087440 Off ch=1 n=f#3 v=65
1087440 On ch=1 n=g3 v=90
1087620 Off ch=1 n=g3 v=65
1087620 On ch=1 n=a#2 v=90
1087680 Off ch=1 n=a#2 v=65
1087680 On ch=1 n=f3 v=90
1087920 Off ch=1 n=f3 v=65
1087920 On ch=1 n=a3 v=90
1088160 Off ch=1 n=a3 v=65
1088160 On ch=1 n=c4 v=90
1088400 Off ch=1 n=c4 v=65
1088400 On ch=1 n=d#4 v=90
1088640 Off ch=1 n=d#4 v=65
1088640 On ch=1 n=f4 v=90
1088880 Off ch=1 n=f4 v=65
1088880 On ch=1 n=g4 v=90
1089120 Off ch=1 n=g4 v=65
1089120 On ch=1 n=g#4 v=90
1089360 Off ch=1 n=g#4 v=65
1089360 On ch=1 n=a#4 v=90
1089600 Off ch=1 n=a#4 v=65
1089600 On ch=1 n=c5 v=90
1089600 On ch=1 n=a#3 v=90
1089840 Off ch=1 n=c5 v=65
1089840 On ch=1 n=a#4 v=90
1090080 Off ch=1 n=a#3 v=65
1090080 Off ch=1 n=a#4 v=65
1090080 On ch=1 n=a4 v=90
1090320 Off ch=1 n=a4 v=65
1090320 On ch=1 n=a#4 v=90
1090560 Off ch=1 n=a#4 v=65
1090560 On ch=1 n=a4 v=90
1090800 Off ch=1 n=a4 v=65
1090800 On ch=1 n=g4 v=90
1091040 Off ch=1 n=g4 v=65
1091040 On ch=1 n=d4 v=65
1091040 On ch=1 n=f4 v=65
1091280 Off ch=1 n=f4 v=65
1091280 On ch=1 n=f#4 v=65
1091520 Off ch=1 n=d4 v=65
1091520 Off ch=1 n=f#4 v=65
1091520 On ch=1 n=g3 v=65
1091520 On ch=1 n=a4 v=65
1091760 Off ch=1 n=a4 v=65
1091760 On ch=1 n=g4 v=65
1092000 Off ch=1 n=g3 v=65
1092000 Off ch=1 n=g4 v=65
1092000 On ch=1 n=f#4 v=65
1092240 Off ch=1 n=f#4 v=65
1092240 On ch=1 n=g4 v=65
1092480 Off ch=1 n=g4 v=65
1092480 On ch=1 n=f4 v=65
1092720 Off ch=1 n=f4 v=65
1092720 On ch=1 n=d#4 v=65
1092960 Off ch=1 n=d#4 v=65
1092960 On ch=1 n=c#4 v=65
1092960 On ch=1 n=a#3 v=65
1093200 Off ch=1 n=c#4 v=65
1093200 On ch=1 n=d4 v=65
1093440 Off ch=1 n=a#3 v=65
1093440 Off ch=1 n=d4 v=65
1093440 On ch=1 n=d#3 v=65
1093440 On ch=1 n=f4 v=65
1093680 Off ch=1 n=f4 v=65
1093680 On ch=1 n=d#4 v=65
1093920 Off ch=1 n=d#3 v=65
1093920 Off ch=1 n=d#4 v=65
1093920 On ch=1 n=d4 v=65
1094160 Off ch=1 n=d4 v=65
1094160 On ch=1 n=d#4 v=65
1094400 Off ch=1 n=d#4 v=65
1094400 On ch=1 n=d4 v=65
1094640 Off ch=1 n=d4 v=65
1094640 On ch=1 n=c4 v=65
1094880 Off ch=1 n=c4 v=65
1094880 On ch=1 n=a#3 v=65
1094880 On ch=1 n=g3 v=65
1095120 Off ch=1 n=a#3 v=65
1095120 On ch=1 n=b3 v=65
1095360 Off ch=1 n=g3 v=65
1095360 Off ch=1 n=b3 v=65
1095360 On ch=1 n=d4 v=71
1095360 On ch=1 n=c3 v=71
1095600 Off ch=1 n=d4 v=65
1095600 On ch=1 n=c4 v=71
1095840 Off ch=1 n=c3 v=65
1095840 Off ch=1 n=c4 v=65
1095840 On ch=1 n=a#3 v=77
1095840 On ch=1 n=c#4 v=77
1096080 Off ch=1 n=c#4 v=65
1096080 On ch=1 n=d4 v=77
1096320 Off ch=1 n=a#3 v=65
1096320 Off ch=1 n=d4 v=65
1096320 On ch=1 n=f4 v=83
1096320 On ch=1 n=d#3 v=83
1096560 Off ch=1 n=f4 v=65
1096560 On ch=1 n=d#4 v=83
1096800 Off ch=1 n=d#3 v=65
1096800 On ch=1 n=c4 v=89
1097040 Off ch=1 n=d#4 v=65
1097040 On ch=1 n=e4 v=89
1097280 Off ch=1 n=c4 v=65
1097280 Off ch=1 n=e4 v=65
1097280 On ch=1 n=g4 v=89
1097280 On ch=1 n=f3 v=89
1097520 Off ch=1 n=g4 v=65
1097520 On ch=1 n=f4 v=89
1097760 Off ch=1 n=f3 v=65
1097760 Off ch=1 n=f4 v=65
1097760 On ch=1 n=e4 v=89
1098000 Off ch=1 n=e4 v=65
1098000 On ch=1 n=f4 v=89
1098240 Off ch=1 n=f4 v=65
1098240 On ch=1 n=b3 v=89
1098480 Off ch=1 n=b3 v=65
1098480 On ch=1 n=g#3 v=89
1098720 Off ch=1 n=g#3 v=65
1098720 On ch=1 n=d#4 v=65
1098720 On ch=1 n=c4 v=65
1098960 Off ch=1 n=d#4 v=65
1098960 On ch=1 n=e4 v=65
1099200 Off ch=1 n=c4 v=65
1099200 Off ch=1 n=e4 v=65
1099200 On ch=1 n=g4 v=65
1099200 On ch=1 n=f3 v=65
1099440 Off ch=1 n=g4 v=65
1099440 On ch=1 n=f4 v=65
1099680 Off ch=1 n=f3 v=65
1099680 Off ch=1 n=f4 v=65
1099680 On ch=1 n=f#4 v=65
1099680 On ch=1 n=d#4 v=65
1099920 Off ch=1 n=f#4 v=65
1099920 On ch=1 n=g4 v=65
1100160 Off ch=1 n=d#4 v=65
1100160 Off ch=1 n=g4 v=65
1100160 On ch=1 n=a#4 v=65
1100160 On ch=1 n=g#3 v=65
1100400 Off ch=1 n=a#4 v=65
1100400 On ch=1 n=g#4 v=65
1100640 Off ch=1 n=g#3 v=65
1100640 Off ch=1 n=g#4 v=65
1100640 On ch=1 n=g#4 v=65
1100640 On ch=1 n=f4 v=65
1100880 Off ch=1 n=g#4 v=65
1100880 On ch=1 n=a4 v=65
1101120 Off ch=1 n=f4 v=65
1101120 Off ch=1 n=a4 v=65
1101120 On ch=1 n=a#3 v=74
1101120 On ch=1 n=c5 v=74
1101360 Off ch=1 n=c5 v=65
1101360 On ch=1 n=a#4 v=74
1101600 Off ch=1 n=a#3 v=65
1101600 Off ch=1 n=a#4 v=65
1101600 On ch=1 n=a4 v=83
1101840 Off ch=1 n=a4 v=65
1101840 On ch=1 n=g#4 v=83
1102080 Off ch=1 n=g#4 v=65
1102080 On ch=1 n=g4 v=92
1102320 Off ch=1 n=g4 v=65
1102320 On ch=1 n=f4 v=92
1102560 Off ch=1 n=f4 v=65
1102560 On ch=1 n=a4 v=102
1102560 On ch=1 n=d#4 v=102
1102800 Off ch=1 n=a4 v=65
1102800 On ch=1 n=a#4 v=102
1103040 Off ch=1 n=a#4 v=65
1103040 On ch=1 n=c5 v=102
1103280 Off ch=1 n=c5 v=65
1103280 On ch=1 n=a#4 v=102
1103520 Off ch=1 n=a#4 v=65
1103520 On ch=1 n=a4 v=102
1103760 Off ch=1 n=a4 v=65
1103760 On ch=1 n=a#4 v=102
1104000 Off ch=1 n=d#4 v=65
1104000 Off ch=1 n=a#4 v=65
1104000 On ch=1 n=g#4 v=102
1104240 Off ch=1 n=g#4 v=65
1104240 On ch=1 n=g4 v=102
1104480 Off ch=1 n=g4 v=65
1104480 On ch=1 n=f4 v=102
1104720 Off ch=1 n=f4 v=65
1104720 On ch=1 n=d#4 v=102
1104960 Off ch=1 n=d#4 v=65
1104960 On ch=1 n=g#4 v=102
1104960 On ch=1 n=d4 v=102
1104960 On ch=1 n=g#3 v=102
1105440 Off ch=1 n=g#3 v=65
1105440 Off ch=1 n=d4 v=65
1105440 Off ch=1 n=g#4 v=65
1105440 On ch=1 n=d#3 v=120
1106400 Off ch=1 n=d#3 v=65
1106400 On ch=1 n=b4 v=102
1106400 On ch=1 n=d#4 v=120
1106640 Off ch=1 n=b4 v=65
1106640 On ch=1 n=c5 v=102
1106880 Off ch=1 n=c5 v=65
1106880 On ch=1 n=c#5 v=102
1107120 Off ch=1 n=c#5 v=65
1107120 On ch=1 n=c5 v=102
1107360 Off ch=1 n=c5 v=65
1107360 On ch=1 n=b4 v=102
1107600 Off ch=1 n=b4 v=65
1107600 On ch=1 n=c5 v=102
1107840 Off ch=1 n=c5 v=65
1107840 On ch=1 n=a#4 v=102
1108080 Off ch=1 n=a#4 v=65
1108080 On ch=1 n=g#4 v=102
1108320 Off ch=1 n=g#4 v=65
1108320 On ch=1 n=g4 v=102
1108560 Off ch=1 n=g4 v=65
1108560 On ch=1 n=f4 v=102
1108800 Off ch=1 n=d#4 v=65
1108800 Off ch=1 n=f4 v=65
1108800 On ch=1 n=a#4 v=102
1108800 On ch=1 n=d#4 v=102
1108800 On ch=1 n=a#3 v=102
1109280 Off ch=1 n=a#3 v=65
1109280 Off ch=1 n=d#4 v=65
1109280 Off ch=1 n=a#4 v=65
1109280 On ch=1 n=d#3 v=120
1110240 Off ch=1 n=d#3 v=65
1110240 On ch=1 n=d#4 v=120
1110240 On ch=1 n=c5 v=120
1110480 Off ch=1 n=c5 v=65
1110480 On ch=1 n=c#5 v=102
1110720 Off ch=1 n=c#5 v=65
1110720 On ch=1 n=d#5 v=93
1110960 Off ch=1 n=d#5 v=65
1110960 On ch=1 n=c#5 v=93
1111200 Off ch=1 n=c#5 v=65
1111200 On ch=1 n=c5 v=84
1111440 Off ch=1 n=c5 v=65
1111440 On ch=1 n=c#5 v=84
1111680 Off ch=1 n=c#5 v=65
1111680 On ch=1 n=c5 v=75
1111920 Off ch=1 n=c5 v=65
1111920 On ch=1 n=a#4 v=75
1112100 On ch=1 n=e3 v=65
1112130 On ch=1 n=c#4 v=65
1112160 Off ch=1 n=d#4 v=65
1112160 Off ch=1 n=a#4 v=65
1112160 On ch=1 n=a4 v=65
1112400 Off ch=1 n=a4 v=65
1112400 On ch=1 n=a#4 v=65
1112640 Off ch=1 n=e3 v=65
1112640 Off ch=1 n=c#4 v=65
1112640 Off ch=1 n=a#4 v=65
1112640 On ch=1 n=f3 v=65
1112640 On ch=1 n=d4 v=65
1112880 On ch=1 n=a#4 v=102
1113060 On ch=1 n=f#3 v=65
1113120 Off ch=1 n=d4 v=65
1113120 Off ch=1 n=f3 v=65
1113120 On ch=1 n=a#3 v=65
1113360 Off ch=1 n=a#4 v=65
1113360 On ch=1 n=a#4 v=102
1113600 Off ch=1 n=f#3 v=65
1113600 On ch=1 n=f3 v=65
1113840 Off ch=1 n=a#4 v=65
1113840 On ch=1 n=a#4 v=102
1114080 Off ch=1 n=a#3 v=65
1114080 Off ch=1 n=f3 v=65
1114080 On ch=1 n=e3 v=65
1114080 On ch=1 n=a#3 v=65
1114320 Off ch=1 n=a#4 v=65
1114320 On ch=1 n=a#4 v=102
1114560 Off ch=1 n=e3 v=65
1114560 Off ch=1 n=a#4 v=65
1114560 On ch=1 n=f3 v=65
1114800 On ch=1 n=a#4 v=92
1115040 Off ch=1 n=f3 v=65
1115040 On ch=1 n=f#3 v=65
1115280 Off ch=1 n=a#4 v=65
1115280 On ch=1 n=a#4 v=82
1115520 Off ch=1 n=f#3 v=65
1115520 On ch=1 n=f3 v=65
1115760 Off ch=1 n=a#4 v=65
1115760 On ch=1 n=a#4 v=72
1116000 Off ch=1 n=a#3 v=65
1116000 Off ch=1 n=f3 v=65
1116000 On ch=1 n=d#3 v=65
1116240 Off ch=1 n=a#4 v=65
1116240 On ch=1 n=a#4 v=62
1116420 On ch=1 n=c3 v=53
1116480 Off ch=1 n=d#3 v=65
1116480 Off ch=1 n=a#4 v=65
1118640 Off ch=1 n=c3 v=65
1118640 On ch=1 n=c#3 v=53
1118880 Off ch=1 n=c#3 v=65
1118880 On ch=1 n=c3 v=53
1119120 Off ch=1 n=c3 v=65
1119120 On ch=1 n=b2 v=53
1119360 Off ch=1 n=b2 v=65
1119360 On ch=1 n=c3 v=53
1119600 Off ch=1 n=c3 v=65
1119600 On ch=1 n=f2 v=53
1119840 Off ch=1 n=f2 v=65
1120320 On ch=1 n=c3 v=53
1122480 Off ch=1 n=c3 v=65
1122480 On ch=1 n=c#3 v=53
1122720 Off ch=1 n=c#3 v=65
1122720 On ch=1 n=c3 v=53
1122960 Off ch=1 n=c3 v=65
1122960 On ch=1 n=b2 v=53
1123200 Off ch=1 n=b2 v=65
1123200 On ch=1 n=c3 v=53
1123440 Off ch=1 n=c3 v=65
1123440 On ch=1 n=f2 v=53
1123680 Off ch=1 n=f2 v=65
1123680 On ch=1 n=a#2 v=53
1123920 Off ch=1 n=a#2 v=65
1123920 On ch=1 n=b2 v=53
1124160 Off ch=1 n=b2 v=65
1124160 On ch=1 n=d3 v=53
1124400 Off ch=1 n=d3 v=65
1124400 On ch=1 n=c3 v=53
1124640 Off ch=1 n=c3 v=65
1124640 On ch=1 n=b2 v=53
1124880 Off ch=1 n=b2 v=65
1124880 On ch=1 n=c3 v=53
1125120 Off ch=1 n=c3 v=65
1125120 On ch=1 n=g3 v=53
1125360 Off ch=1 n=g3 v=65
1125360 On ch=1 n=f3 v=53
1125600 Off ch=1 n=f3 v=65
1125600 On ch=1 n=e3 v=90
1125840 Off ch=1 n=e3 v=65
1125840 On ch=1 n=f3 v=90
1126020 On ch=1 n=a#2 v=90
1126080 Off ch=1 n=f3 v=65
1126080 On ch=1 n=f4 v=90
1128000 Off ch=1 n=a#2 v=65
1128000 Off ch=1 n=f4 v=65
1129440 On ch=1 n=a#4 v=90
1129680 On ch=1 n=f4 v=90
1129860 On ch=1 n=f3 v=90
1129920 Off ch=1 n=f4 v=65
1129920 Off ch=1 n=a#4 v=65
1129920 On ch=1 n=a4 v=90
1131840 Off ch=1 n=f3 v=65
1131840 Off ch=1 n=a4 v=65
1131840 On ch=1 n=f4 v=53
1131840 On ch=1 n=a#3 v=53
1133760 Off ch=1 n=a#3 v=65
1133760 Off ch=1 n=f4 v=65
1133760 On ch=1 n=b4 v=65
1133760 On ch=1 n=g3 v=65
1134720 Off ch=1 n=g3 v=65
1134720 Off ch=1 n=b4 v=65
1134720 On ch=1 n=c5 v=65
1134720 On ch=1 n=c4 v=65
1135200 Off ch=1 n=c4 v=65
1135200 Off ch=1 n=c5 v=65
1135200 On ch=1 n=d#4 v=65
1135200 On ch=1 n=a#4 v=65
1135680 Off ch=1 n=a#4 v=65
1135680 Off ch=1 n=d#4 v=65
1135680 On ch=1 n=d#5 v=65
1135680 On ch=1 n=f4 v=65
1136160 Off ch=1 n=f4 v=65
1136160 Off ch=1 n=d#5 v=65
1136160 On ch=1 n=d5 v=65
1136160 On ch=1 n=g4 v=65
1137120 Off ch=1 n=g4 v=65
1137120 Off ch=1 n=d5 v=65
1137120 On ch=1 n=a4 v=90
1137360 Off ch=1 n=a4 v=65
1137360 On ch=1 n=a#4 v=90
1137600 Off ch=1 n=a#4 v=65
1137600 On ch=1 n=c5 v=90
1137840 Off ch=1 n=c5 v=65
1137840 On ch=1 n=a#4 v=90
1138080 Off ch=1 n=a#4 v=65
1138080 On ch=1 n=a4 v=90
1138320 Off ch=1 n=a4 v=65
1138320 On ch=1 n=a#4 v=90
1138560 Off ch=1 n=a#4 v=65
1138560 On ch=1 n=a4 v=90
1138800 Off ch=1 n=a4 v=65
1138800 On ch=1 n=g4 v=90
1139040 Off ch=1 n=g4 v=65
1139040 On ch=1 n=f#4 v=90
1139280 Off ch=1 n=f#4 v=65
1139280 On ch=1 n=g4 v=90
1139460 Off ch=1 n=g4 v=65
1139460 On ch=1 n=c4 v=90
1139520 Off ch=1 n=c4 v=65
1139520 On ch=1 n=c#5 v=127
1139520 On ch=1 n=e5 v=127
1140480 Off ch=1 n=e5 v=65
1140480 Off ch=1 n=c#5 v=65
1140480 On ch=1 n=f5 v=90
1140480 On ch=1 n=c5 v=90
1140720 Off ch=1 n=c5 v=65
1140720 Off ch=1 n=f5 v=65
1140960 On ch=1 n=a4 v=90
1141200 Off ch=1 n=a4 v=65
1141200 On ch=1 n=a#4 v=90
1141440 Off ch=1 n=a#4 v=65
1141440 On ch=1 n=c5 v=90
1141680 Off ch=1 n=c5 v=65
1141680 On ch=1 n=a#4 v=90
1141920 Off ch=1 n=a#4 v=65
1141920 On ch=1 n=a4 v=90
1142160 Off ch=1 n=a4 v=65
1142160 On ch=1 n=a#4 v=90
1142400 Off ch=1 n=a#4 v=65
1142400 On ch=1 n=a4 v=90
1142640 Off ch=1 n=a4 v=65
1142640 On ch=1 n=g4 v=90
1142880 Off ch=1 n=g4 v=65
1142880 On ch=1 n=f4 v=99
1142880 On ch=1 n=b4 v=99
1142880 On ch=1 n=d5 v=99
1142960 Off ch=1 n=d5 v=65
1142960 Off ch=1 n=b4 v=65
1142960 Off ch=1 n=f4 v=65
1143040 On ch=1 n=f#4 v=108
1143040 On ch=1 n=c5 v=108
1143040 On ch=1 n=d#5 v=108
1143120 Off ch=1 n=d#5 v=65
1143120 Off ch=1 n=c5 v=65
1143120 Off ch=1 n=f#4 v=65
1143200 On ch=1 n=a4 v=117
1143200 On ch=1 n=d#5 v=117
1143200 On ch=1 n=f5 v=117
1143280 Off ch=1 n=f5 v=65
1143280 Off ch=1 n=d#5 v=65
1143280 Off ch=1 n=a4 v=65
1143360 On ch=1 n=c5 v=127
1143360 On ch=1 n=d#5 v=127
1143360 On ch=1 n=f#5 v=127
1143360 On ch=1 n=a5 v=127
1144320 Off ch=1 n=a5 v=65
1144320 Off ch=1 n=f#5 v=65
1144320 Off ch=1 n=d#5 v=65
1144320 Off ch=1 n=c5 v=65
1144320 On ch=1 n=g#4 v=90
1144320 On ch=1 n=d5 v=90
1144320 On ch=1 n=f5 v=90
1144560 Off ch=1 n=f5 v=65
1144560 Off ch=1 n=d5 v=65
1144560 Off ch=1 n=g#4 v=65
1144800 On ch=1 n=a#4 v=65
1144800 On ch=1 n=e5 v=65
1144800 On ch=1 n=g5 v=65
1145040 Off ch=1 n=g5 v=65
1145040 Off ch=1 n=e5 v=65
1145040 Off ch=1 n=a#4 v=65
1145040 On ch=1 n=b4 v=70
1145040 On ch=1 n=f5 v=70
1145040 On ch=1 n=g#5 v=70
1145280 Off ch=1 n=g#5 v=65
1145280 Off ch=1 n=f5 v=65
1145280 Off ch=1 n=b4 v=65
1145280 On ch=1 n=d5 v=75
1145280 On ch=1 n=g#5 v=75
1145280 On ch=1 n=b5 v=75
1145520 Off ch=1 n=b5 v=65
1145520 Off ch=1 n=g#5 v=65
1145520 Off ch=1 n=d5 v=65
1145520 On ch=1 n=d#5 v=80
1145520 On ch=1 n=g5 v=80
1145520 On ch=1 n=c6 v=80
1145760 Off ch=1 n=c6 v=65
1145760 Off ch=1 n=g5 v=65
1145760 Off ch=1 n=d#5 v=65
1145760 On ch=1 n=f5 v=84
1145760 On ch=1 n=d5 v=84
1145760 On ch=1 n=g#4 v=84
1146000 Off ch=1 n=g#4 v=65
1146000 Off ch=1 n=d5 v=65
1146000 Off ch=1 n=f5 v=65
1146000 On ch=1 n=a4 v=84
1146000 On ch=1 n=d#5 v=84
1146000 On ch=1 n=f#5 v=84
1146240 Off ch=1 n=f#5 v=65
1146240 Off ch=1 n=d#5 v=65
1146240 Off ch=1 n=a4 v=65
1146240 On ch=1 n=c5 v=89
1146240 On ch=1 n=d#5 v=89
1146240 On ch=1 n=f#5 v=89
1146240 On ch=1 n=a5 v=89
1146480 Off ch=1 n=a5 v=65
1146480 Off ch=1 n=f#5 v=65
1146480 Off ch=1 n=d#5 v=65
1146480 Off ch=1 n=c5 v=65
1146480 On ch=1 n=d5 v=99
1146480 On ch=1 n=f5 v=99
1146480 On ch=1 n=a#5 v=99
1146720 Off ch=1 n=a#5 v=65
1146720 Off ch=1 n=f5 v=65
1146720 Off ch=1 n=d5 v=65
1146720 On ch=1 n=d#4 v=94
1146720 On ch=1 n=a#4 v=94
1146720 On ch=1 n=c5 v=94
1146840 Off ch=1 n=c5 v=65
1146840 Off ch=1 n=a#4 v=65
1146840 Off ch=1 n=d#4 v=65
1146960 On ch=1 n=e4 v=99
1146960 On ch=1 n=a#4 v=99
1146960 On ch=1 n=c5 v=99
1147080 Off ch=1 n=c5 v=65
1147080 Off ch=1 n=a#4 v=65
1147080 Off ch=1 n=e4 v=65
1147200 On ch=1 n=f4 v=102
1147200 On ch=1 n=a#4 v=102
1147200 On ch=1 n=d5 v=102
1147200 On ch=1 n=a#5 v=102
1147320 Off ch=1 n=a#5 v=65
1147320 Off ch=1 n=d5 v=65
1147320 Off ch=1 n=a#4 v=65
1147320 Off ch=1 n=f4 v=65
1147680 On ch=1 n=g4 v=102
1147680 On ch=1 n=c5 v=102
1147680 On ch=1 n=e5 v=102
1147680 On ch=1 n=a#5 v=102
1147800 Off ch=1 n=a#5 v=65
1147800 Off ch=1 n=e5 v=65
1147800 Off ch=1 n=c5 v=65
1147800 Off ch=1 n=g4 v=65
1148160 On ch=1 n=a4 v=102
1148160 On ch=1 n=c5 v=102
1148160 On ch=1 n=f5 v=102
1148400 Off ch=1 n=f5 v=65
1148400 Off ch=1 n=c5 v=65
1148400 Off ch=1 n=a4 v=65
1148640 On ch=1 n=a#3 v=65
1148640 On ch=1 n=g4 v=65
1148880 Off ch=1 n=g4 v=65
1148880 Off ch=1 n=a#3 v=65
1148880 On ch=1 n=b3 v=65
1148880 On ch=1 n=g#4 v=65
1149120 Off ch=1 n=g#4 v=65
1149120 Off ch=1 n=b3 v=65
1149120 On ch=1 n=b4 v=65
1149120 On ch=1 n=d4 v=65
1149360 Off ch=1 n=d4 v=65
1149360 Off ch=1 n=b4 v=65
1149360 On ch=1 n=c5 v=65
1149360 On ch=1 n=d#4 v=65
1149600 Off ch=1 n=d#4 v=65
1149600 Off ch=1 n=c5 v=65
1149600 On ch=1 n=f4 v=65
1149600 On ch=1 n=g#3 v=65
1149840 Off ch=1 n=g#3 v=65
1149840 Off ch=1 n=f4 v=65
1149840 On ch=1 n=a3 v=65
1149840 On ch=1 n=f#4 v=65
1150080 Off ch=1 n=f#4 v=65
1150080 Off ch=1 n=a3 v=65
1150080 On ch=1 n=a4 v=65
1150080 On ch=1 n=c4 v=65
1150320 Off ch=1 n=c4 v=65
1150320 Off ch=1 n=a4 v=65
1150320 On ch=1 n=d4 v=65
1150320 On ch=1 n=a#4 v=65
1150560 Off ch=1 n=a#4 v=65
1150560 Off ch=1 n=d4 v=65
1150560 On ch=1 n=a4 v=65
1150560 On ch=1 n=d#4 v=65
1150800 Off ch=1 n=d#4 v=65
1150800 Off ch=1 n=a4 v=65
1150800 On ch=1 n=g4 v=65
1150800 On ch=1 n=e4 v=65
1151040 Off ch=1 n=e4 v=65
1151040 Off ch=1 n=g4 v=65
1151040 On ch=1 n=f4 v=65
1151040 On ch=1 n=a#4 v=65
1151520 Off ch=1 n=a#4 v=65
1151520 Off ch=1 n=f4 v=65
1151520 On ch=1 n=c4 v=53
1151520 On ch=1 n=a#4 v=53
1152000 Off ch=1 n=a#4 v=65
1152000 Off ch=1 n=c4 v=65
1152000 On ch=1 n=f3 v=53
1152000 On ch=1 n=a4 v=53
1152240 Off ch=1 n=a4 v=65
1152240 Off ch=1 n=f3 v=65
1152900 On ch=1 n=d#4 v=90
1152920 On ch=1 n=f4 v=90
1152940 On ch=1 n=a4 v=90
1152960 On ch=1 n=c5 v=94
1153860 Off ch=1 n=d#4 v=65
1153860 On ch=1 n=d4 v=94
1153880 Off ch=1 n=f4 v=65
1153880 On ch=1 n=g4 v=94
1153900 Off ch=1 n=a4 v=65
1153900 On ch=1 n=b4 v=94
1153920 Off ch=1 n=c5 v=65
1153920 On ch=1 n=f5 v=98
1154820 Off ch=1 n=d4 v=65
1154820 On ch=1 n=c4 v=98
1154840 Off ch=1 n=g4 v=65
1154850 On ch=1 n=g4 v=98
1154860 Off ch=1 n=b4 v=65
1154880 Off ch=1 n=f5 v=65
1154880 On ch=1 n=d#5 v=102
1155780 Off ch=1 n=c4 v=65
1155810 Off ch=1 n=g4 v=65
1155840 Off ch=1 n=d#5 v=65
1155840 On ch=1 n=d5 v=102
1155840 On ch=1 n=f4 v=102
1156800 Off ch=1 n=f4 v=65
1156800 Off ch=1 n=d5 v=65
1156800 On ch=1 n=g4 v=98
1157760 Off ch=1 n=g4 v=65
1157760 On ch=1 n=g3 v=94
1158240 On ch=1 n=g4 v=112
1158720 Off ch=1 n=g3 v=65
1158720 On ch=1 n=c4 v=90
1158960 Off ch=1 n=g4 v=65
1158960 On ch=1 n=f4 v=90
1159200 Off ch=1 n=f4 v=65
1159200 On ch=1 n=d#4 v=90
1159440 Off ch=1 n=d#4 v=65
1159440 On ch=1 n=d4 v=90
1159680 Off ch=1 n=c4 v=65
1159680 Off ch=1 n=d4 v=65
1159680 On ch=1 n=c4 v=90
1159920 Off ch=1 n=c4 v=65
1159920 On ch=1 n=c4 v=90
1160120 On ch=1 n=d#4 v=90
1160160 Off ch=1 n=d#4 v=65
1160160 Off ch=1 n=c4 v=65
1160160 On ch=1 n=d4 v=90
1160400 Off ch=1 n=d4 v=65
1160400 On ch=1 n=c4 v=90
1160640 Off ch=1 n=c4 v=65
1160640 On ch=1 n=a4 v=65
1160880 On ch=1 n=c4 v=65
1161080 On ch=1 n=d#4 v=65
1161120 Off ch=1 n=d#4 v=65
1161120 Off ch=1 n=c4 v=65
1161120 On ch=1 n=d4 v=71
1161360 Off ch=1 n=d4 v=65
1161360 On ch=1 n=c4 v=71
1161600 Off ch=1 n=a4 v=65
1161600 Off ch=1 n=c4 v=65
1161600 On ch=1 n=a#4 v=77
1161840 On ch=1 n=a#3 v=77
1162040 On ch=1 n=d4 v=77
1162080 Off ch=1 n=d4 v=65
1162080 Off ch=1 n=a#3 v=65
1162080 On ch=1 n=c4 v=83
1162320 Off ch=1 n=c4 v=65
1162320 On ch=1 n=a#3 v=83
1162560 Off ch=1 n=a#4 v=65
1162560 Off ch=1 n=a#3 v=65
1162560 On ch=1 n=a3 v=90
1163520 Off ch=1 n=a3 v=65
1163520 On ch=1 n=g3 v=90
1164480 Off ch=1 n=g3 v=65
1164480 On ch=1 n=f#3 v=90
1164960 Off ch=1 n=f#3 v=65
1164960 On ch=1 n=d3 v=90
1165440 Off ch=1 n=d3 v=65
1165440 On ch=1 n=g3 v=90
1165680 On ch=1 n=g4 v=90
1165920 Off ch=1 n=g4 v=65
1165920 Off ch=1 n=g3 v=65
1165920 On ch=1 n=c4 v=90
1165920 On ch=1 n=a4 v=90
1166160 Off ch=1 n=a4 v=65
1166160 On ch=1 n=a#4 v=90
1166400 Off ch=1 n=c4 v=65
1166400 On ch=1 n=f3 v=90
1166640 Off ch=1 n=a#4 v=65
1166640 On ch=1 n=a4 v=90
1166880 Off ch=1 n=a4 v=65
1166880 On ch=1 n=g4 v=90
1167120 Off ch=1 n=g4 v=65
1167120 On ch=1 n=f4 v=90
1167360 Off ch=1 n=f3 v=65
1167360 Off ch=1 n=f4 v=65
1167360 On ch=1 n=e4 v=90
1167600 Off ch=1 n=e4 v=65
1167600 On ch=1 n=d#4 v=90
1167840 Off ch=1 n=d#4 v=65
1167840 On ch=1 n=c#4 v=65
1168080 Off ch=1 n=c#4 v=65
1168080 On ch=1 n=d4 v=65
1168320 Off ch=1 n=d4 v=65
1168320 On ch=1 n=d#4 v=65
1168560 Off ch=1 n=d#4 v=65
1168560 On ch=1 n=d4 v=65
1168800 Off ch=1 n=d4 v=65
1168800 On ch=1 n=c#4 v=65
1169040 Off ch=1 n=c#4 v=65
1169040 On ch=1 n=d4 v=65
1169280 Off ch=1 n=d4 v=65
1169280 On ch=1 n=c4 v=65
1169520 Off ch=1 n=c4 v=65
1169520 On ch=1 n=a#3 v=65
1169760 Off ch=1 n=a#3 v=65
1169760 On ch=1 n=a3 v=65
1170000 Off ch=1 n=a3 v=65
1170000 On ch=1 n=a#3 v=65
1170180 Off ch=1 n=a#3 v=65
1170180 On ch=1 n=d#3 v=65
1170240 Off ch=1 n=d#3 v=65
1170240 On ch=1 n=c4 v=65
1170480 Off ch=1 n=c4 v=65
1170480 On ch=1 n=a#3 v=65
1170720 Off ch=1 n=a#3 v=65
1170720 On ch=1 n=a3 v=65
1170960 Off ch=1 n=a3 v=65
1170960 On ch=1 n=a#3 v=65
1171200 Off ch=1 n=a#3 v=65
1171200 On ch=1 n=g#3 v=65
1171440 Off ch=1 n=g#3 v=65
1171440 On ch=1 n=g3 v=65
1171680 Off ch=1 n=g3 v=65
1171680 On ch=1 n=f#3 v=90
1171920 Off ch=1 n=f#3 v=65
1171920 On ch=1 n=g3 v=90
1172100 Off ch=1 n=g3 v=65
1172100 On ch=1 n=a#2 v=90
1172160 Off ch=1 n=a#2 v=65
1172160 On ch=1 n=f3 v=90
1172400 Off ch=1 n=f3 v=65
1172400 On ch=1 n=a3 v=90
1172640 Off ch=1 n=a3 v=65
1172640 On ch=1 n=c4 v=90
1172880 Off ch=1 n=c4 v=65
1172880 On ch=1 n=d#4 v=90
1173120 Off ch=1 n=d#4 v=65
1173120 On ch=1 n=f4 v=90
1173360 Off ch=1 n=f4 v=65
1173360 On ch=1 n=g4 v=90
1173600 Off ch=1 n=g4 v=65
1173600 On ch=1 n=g#4 v=90
1173840 Off ch=1 n=g#4 v=65
1173840 On ch=1 n=a#4 v=90
1174080 Off ch=1 n=a#4 v=65
1174080 On ch=1 n=c5 v=90
1174080 On ch=1 n=a#3 v=90
1174320 Off ch=1 n=c5 v=65
1174320 On ch=1 n=a#4 v=90
1174560 Off ch=1 n=a#3 v=65
1174560 Off ch=1 n=a#4 v=65
1174560 On ch=1 n=a4 v=90
1174800 Off ch=1 n=a4 v=65
1174800 On ch=1 n=a#4 v=90
1175040 Off ch=1 n=a#4 v=65
1175040 On ch=1 n=a4 v=90
1175280 Off ch=1 n=a4 v=65
1175280 On ch=1 n=g4 v=90
1175520 Off ch=1 n=g4 v=65
1175520 On ch=1 n=d4 v=65
1175520 On ch=1 n=f4 v=65
1175760 Off ch=1 n=f4 v=65
1175760 On ch=1 n=f#4 v=65
1176000 Off ch=1 n=d4 v=65
1176000 Off ch=1 n=f#4 v=65
1176000 On ch=1 n=g3 v=65
1176000 On ch=1 n=a4 v=65
1176240 Off ch=1 n=a4 v=65
1176240 On ch=1 n=g4 v=65
1176480 Off ch=1 n=g3 v=65
1176480 Off ch=1 n=g4 v=65
1176480 On ch=1 n=f#4 v=65
1176720 Off ch=1 n=f#4 v=65
1176720 On ch=1 n=g4 v=65
1176960 Off ch=1 n=g4 v=65
1176960 On ch=1 n=f4 v=65
1177200 Off ch=1 n=f4 v=65
1177200 On ch=1 n=d#4 v=65
1177440 Off ch=1 n=d#4 v=65
1177440 On ch=1 n=c#4 v=65
1177440 On ch=1 n=a#3 v=65
1177680 Off ch=1 n=c#4 v=65
1177680 On ch=1 n=d4 v=65
1177920 Off ch=1 n=a#3 v=65
1177920 Off ch=1 n=d4 v=65
1177920 On ch=1 n=d#3 v=65
1177920 On ch=1 n=f4 v=65
1178160 Off ch=1 n=f4 v=65
1178160 On ch=1 n=d#4 v=65
1178400 Off ch=1 n=d#3 v=65
1178400 Off ch=1 n=d#4 v=65
1178400 On ch=1 n=d4 v=65
1178640 Off ch=1 n=d4 v=65
1178640 On ch=1 n=d#4 v=65
1178880 Off ch=1 n=d#4 v=65
1178880 On ch=1 n=d4 v=65
1179120 Off ch=1 n=d4 v=65
1179120 On ch=1 n=c4 v=65
1179360 Off ch=1 n=c4 v=65
1179360 On ch=1 n=a#3 v=65
1179360 On ch=1 n=g3 v=65
1179600 Off ch=1 n=a#3 v=65
1179600 On ch=1 n=b3 v=65
1179840 Off ch=1 n=g3 v=65
1179840 Off ch=1 n=b3 v=65
1179840 On ch=1 n=d4 v=71
1179840 On ch=1 n=c3 v=71
1180080 Off ch=1 n=d4 v=65
1180080 On ch=1 n=c4 v=71
1180320 Off ch=1 n=c3 v=65
1180320 Off ch=1 n=c4 v=65
1180320 On ch=1 n=a#3 v=77
1180320 On ch=1 n=c#4 v=77
1180560 Off ch=1 n=c#4 v=65
1180560 On ch=1 n=d4 v=77
1180800 Off ch=1 n=a#3 v=65
1180800 Off ch=1 n=d4 v=65
1180800 On ch=1 n=f4 v=83
1180800 On ch=1 n=d#3 v=83
1181040 Off ch=1 n=f4 v=65
1181040 On ch=1 n=d#4 v=83
1181280 Off ch=1 n=d#3 v=65
1181280 On ch=1 n=c4 v=89
1181520 Off ch=1 n=d#4 v=65
1181520 On ch=1 n=e4 v=89
1181760 Off ch=1 n=c4 v=65
1181760 Off ch=1 n=e4 v=65
1181760 On ch=1 n=g4 v=89
1181760 On ch=1 n=f3 v=89
1182000 Off ch=1 n=g4 v=65
1182000 On ch=1 n=f4 v=89
1182240 Off ch=1 n=f3 v=65
1182240 Off ch=1 n=f4 v=65
1182240 On ch=1 n=e4 v=89
1182480 Off ch=1 n=e4 v=65
1182480 On ch=1 n=f4 v=89
1182720 Off ch=1 n=f4 v=65
1182720 On ch=1 n=b3 v=89
1182960 Off ch=1 n=b3 v=65
1182960 On ch=1 n=g#3 v=89
1183200 Off ch=1 n=g#3 v=65
1183200 On ch=1 n=d#4 v=65
1183200 On ch=1 n=c4 v=65
1183440 Off ch=1 n=d#4 v=65
1183440 On ch=1 n=e4 v=65
1183680 Off ch=1 n=c4 v=65
1183680 Off ch=1 n=e4 v=65
1183680 On ch=1 n=g4 v=65
1183680 On ch=1 n=f3 v=65
1183920 Off ch=1 n=g4 v=65
1183920 On ch=1 n=f4 v=65
1184160 Off ch=1 n=f3 v=65
1184160 Off ch=1 n=f4 v=65
1184160 On ch=1 n=f#4 v=65
1184160 On ch=1 n=d#4 v=65
1184400 Off ch=1 n=f#4 v=65
1184400 On ch=1 n=g4 v=65
1184640 Off ch=1 n=d#4 v=65
1184640 Off ch=1 n=g4 v=65
1184640 On ch=1 n=a#4 v=65
1184640 On ch=1 n=g#3 v=65
1184880 Off ch=1 n=a#4 v=65
1184880 On ch=1 n=g#4 v=65
1185120 Off ch=1 n=g#3 v=65
1185120 Off ch=1 n=g#4 v=65
1185120 On ch=1 n=g#4 v=65
1185120 On ch=1 n=f4 v=65
1185360 Off ch=1 n=g#4 v=65
1185360 On ch=1 n=a4 v=65
1185600 Off ch=1 n=f4 v=65
1185600 Off ch=1 n=a4 v=65
1185600 On ch=1 n=a#3 v=74
1185600 On ch=1 n=c5 v=74
1185840 Off ch=1 n=c5 v=65
1185840 On ch=1 n=a#4 v=74
1186080 Off ch=1 n=a#3 v=65
1186080 Off ch=1 n=a#4 v=65
1186080 On ch=1 n=a4 v=83
1186320 Off ch=1 n=a4 v=65
1186320 On ch=1 n=g#4 v=83
1186560 Off ch=1 n=g#4 v=65
1186560 On ch=1 n=g4 v=92
1186800 Off ch=1 n=g4 v=65
1186800 On ch=1 n=f4 v=92
1187040 Off ch=1 n=f4 v=65
1187040 On ch=1 n=a4 v=102
1187040 On ch=1 n=d#4 v=102
1187280 Off ch=1 n=a4 v=65
1187280 On ch=1 n=a#4 v=102
1187520 Off ch=1 n=a#4 v=65
1187520 On ch=1 n=c5 v=102
1187760 Off ch=1 n=c5 v=65
1187760 On ch=1 n=a#4 v=102
1188000 Off ch=1 n=a#4 v=65
1188000 On ch=1 n=a4 v=102
1188240 Off ch=1 n=a4 v=65
1188240 On ch=1 n=a#4 v=102
1188480 Off ch=1 n=d#4 v=65
1188480 Off ch=1 n=a#4 v=65
1188480 On ch=1 n=g#4 v=102
1188720 Off ch=1 n=g#4 v=65
1188720 On ch=1 n=g4 v=102
1188960 Off ch=1 n=g4 v=65
1188960 On ch=1 n=f4 v=102
1189200 Off ch=1 n=f4 v=65
1189200 On ch=1 n=d#4 v=102
1189440 Off ch=1 n=d#4 v=65
1189440 On ch=1 n=g#4 v=102
1189440 On ch=1 n=d4 v=102
1189440 On ch=1 n=g#3 v=102
1189920 Off ch=1 n=g#3 v=65
1189920 Off ch=1 n=d4 v=65
1189920 Off ch=1 n=g#4 v=65
1189920 On ch=1 n=d#3 v=120
1190880 Off ch=1 n=d#3 v=65
1190880 On ch=1 n=b4 v=102
1190880 On ch=1 n=d#4 v=120
1191120 Off ch=1 n=b4 v=65
1191120 On ch=1 n=c5 v=102
1191360 Off ch=1 n=c5 v=65
1191360 On ch=1 n=c#5 v=102
1191600 Off ch=1 n=c#5 v=65
1191600 On ch=1 n=c5 v=102
1191840 Off ch=1 n=c5 v=65
1191840 On ch=1 n=b4 v=102
1192080 Off ch=1 n=b4 v=65
1192080 On ch=1 n=c5 v=102
1192320 Off ch=1 n=c5 v=65
1192320 On ch=1 n=a#4 v=102
1192560 Off ch=1 n=a#4 v=65
1192560 On ch=1 n=g#4 v=102
1192800 Off ch=1 n=g#4 v=65
1192800 On ch=1 n=g4 v=102
1193040 Off ch=1 n=g4 v=65
1193040 On ch=1 n=f4 v=102
1193280 Off ch=1 n=d#4 v=65
1193280 Off ch=1 n=f4 v=65
1193280 On ch=1 n=a#4 v=102
1193280 On ch=1 n=d#4 v=102
1193280 On ch=1 n=a#3 v=102
1193760 Off ch=1 n=a#3 v=65
1193760 Off ch=1 n=d#4 v=65
1193760 Off ch=1 n=a#4 v=65
1193760 On ch=1 n=d#3 v=120
1194720 Off ch=1 n=d#3 v=65
1194720 On ch=1 n=d#4 v=120
1194720 On ch=1 n=c5 v=120
1194960 Off ch=1 n=c5 v=65
1194960 On ch=1 n=c#5 v=102
1195200 Off ch=1 n=c#5 v=65
1195200 On ch=1 n=d#5 v=93
1195440 Off ch=1 n=d#5 v=65
1195440 On ch=1 n=c#5 v=93
1195680 Off ch=1 n=c#5 v=65
1195680 On ch=1 n=c5 v=84
1195920 Off ch=1 n=c5 v=65
1195920 On ch=1 n=c#5 v=84
1196160 Off ch=1 n=c#5 v=65
1196160 On ch=1 n=c5 v=75
1196400 Off ch=1 n=c5 v=65
1196400 On ch=1 n=a#4 v=75
1196580 On ch=1 n=e3 v=65
1196610 On ch=1 n=c#4 v=65
1196640 Off ch=1 n=d#4 v=65
1196640 Off ch=1 n=a#4 v=65
1196640 On ch=1 n=a4 v=65
1196880 Off ch=1 n=a4 v=65
1196880 On ch=1 n=a#4 v=65
1197120 Off ch=1 n=e3 v=65
1197120 Off ch=1 n=c#4 v=65
1197120 Off ch=1 n=a#4 v=65
1197120 On ch=1 n=f3 v=65
1197120 On ch=1 n=d4 v=65
1197360 On ch=1 n=a#4 v=102
1197540 On ch=1 n=f#3 v=65
1197600 Off ch=1 n=d4 v=65
1197600 Off ch=1 n=f3 v=65
1197600 On ch=1 n=a#3 v=65
1197840 Off ch=1 n=a#4 v=65
1197840 On ch=1 n=a#4 v=102
1198080 Off ch=1 n=f#3 v=65
1198080 On ch=1 n=f3 v=65
1198320 Off ch=1 n=a#4 v=65
1198320 On ch=1 n=a#4 v=102
1198560 Off ch=1 n=a#3 v=65
1198560 Off ch=1 n=f3 v=65
1198560 On ch=1 n=e3 v=65
1198560 On ch=1 n=a#3 v=65
1198800 Off ch=1 n=a#4 v=65
1198800 On ch=1 n=a#4 v=102
1199040 Off ch=1 n=e3 v=65
1199040 Off ch=1 n=a#4 v=65
1199040 On ch=1 n=f3 v=65
1199280 On ch=1 n=a#4 v=92
1199520 Off ch=1 n=f3 v=65
1199520 On ch=1 n=f#3 v=65
1199760 Off ch=1 n=a#4 v=65
1199760 On ch=1 n=a#4 v=82
1200000 Off ch=1 n=f#3 v=65
1200000 On ch=1 n=f3 v=65
1200240 Off ch=1 n=a#4 v=65
1200240 On ch=1 n=a#4 v=72
1200480 Off ch=1 n=a#3 v=65
1200480 Off ch=1 n=f3 v=65
1200480 On ch=1 n=d#3 v=65
1200720 Off ch=1 n=a#4 v=65
1200720 On ch=1 n=a#4 v=62
1200900 On ch=1 n=c3 v=53
1200960 Off ch=1 n=d#3 v=65
1200960 Off ch=1 n=a#4 v=65
1203120 Off ch=1 n=c3 v=65
1203120 On ch=1 n=c#3 v=53
1203360 Off ch=1 n=c#3 v=65
1203360 On ch=1 n=c3 v=53
1203600 Off ch=1 n=c3 v=65
1203600 On ch=1 n=b2 v=53
1203840 Off ch=1 n=b2 v=65
1203840 On ch=1 n=c3 v=53
1204080 Off ch=1 n=c3 v=65
1204080 On ch=1 n=f2 v=53
1204320 Off ch=1 n=f2 v=65
1204800 On ch=1 n=c3 v=53
1206960 Off ch=1 n=c3 v=65
1206960 On ch=1 n=c#3 v=53
1207200 Off ch=1 n=c#3 v=65
1207200 On ch=1 n=c3 v=53
1207440 Off ch=1 n=c3 v=65
1207440 On ch=1 n=b2 v=53
1207680 Off ch=1 n=b2 v=65
1207680 On ch=1 n=c3 v=53
1207920 Off ch=1 n=c3 v=65
1207920 On ch=1 n=f2 v=53
1208160 Off ch=1 n=f2 v=65
1208160 On ch=1 n=a#2 v=53
1208400 Off ch=1 n=a#2 v=65
1208400 On ch=1 n=b2 v=53
1208640 Off ch=1 n=b2 v=65
1208640 On ch=1 n=d3 v=53
1208880 Off ch=1 n=d3 v=65
1208880 On ch=1 n=c3 v=53
1209120 Off ch=1 n=c3 v=65
1209120 On ch=1 n=b2 v=53
1209360 Off ch=1 n=b2 v=65
1209360 On ch=1 n=c3 v=53
1209600 Off ch=1 n=c3 v=65
1209600 On ch=1 n=g3 v=53
1209840 Off ch=1 n=g3 v=65
1209840 On ch=1 n=f3 v=53
1210080 Off ch=1 n=f3 v=65
1210080 On ch=1 n=e3 v=90
1210320 Off ch=1 n=e3 v=65
1210320 On ch=1 n=f3 v=90
1210500 On ch=1 n=a#2 v=90
1210560 Off ch=1 n=f3 v=65
1210560 On ch=1 n=f3 v=90
1214880 Off ch=1 n=a#2 v=65
1214880 Off ch=1 n=f3 v=65
1216800 On ch=1 n=g4 v=102
1216800 On ch=1 n=d#4 v=102
1216800 On ch=1 n=a#3 v=102
1216800 On ch=1 n=d#3 v=102
1217760 Off ch=1 n=d#3 v=65
1217760 Off ch=1 n=a#3 v=65
1217760 Off ch=1 n=d#4 v=65
1217760 Off ch=1 n=g4 v=65
1217760 On ch=1 n=a4 v=108
1217760 On ch=1 n=d#4 v=108
1217760 On ch=1 n=c4 v=108
1217760 On ch=1 n=f#3 v=108
1218240 Off ch=1 n=f#3 v=65
1218240 Off ch=1 n=c4 v=65
1218240 Off ch=1 n=d#4 v=65
1218240 Off ch=1 n=a4 v=65
1218240 On ch=1 n=a#4 v=114
1218240 On ch=1 n=d4 v=114
1218240 On ch=1 n=g3 v=114
1218480 Off ch=1 n=g3 v=65
1218480 Off ch=1 n=d4 v=65
1218480 Off ch=1 n=a#4 v=65
1218480 On ch=1 n=a3 v=114
1218480 On ch=1 n=f4 v=114
1218480 On ch=1 n=c5 v=114
1218720 Off ch=1 n=c5 v=65
1218720 Off ch=1 n=f4 v=65
1218720 Off ch=1 n=a3 v=65
1218720 On ch=1 n=d5 v=120
1218720 On ch=1 n=g#4 v=120
1218720 On ch=1 n=f4 v=120
1218720 On ch=1 n=b3 v=120
1218960 Off ch=1 n=b3 v=65
1218960 Off ch=1 n=f4 v=65
1218960 Off ch=1 n=g#4 v=65
1218960 Off ch=1 n=d5 v=65
1218960 On ch=1 n=c4 v=120
1218960 On ch=1 n=g4 v=120
1218960 On ch=1 n=d#5 v=120
1219200 Off ch=1 n=d#5 v=65
1219200 Off ch=1 n=g4 v=65
1219200 Off ch=1 n=c4 v=65
1219200 On ch=1 n=d5 v=126
1219200 On ch=1 n=a#4 v=126
1219200 On ch=1 n=f4 v=126
1219620 Off ch=1 n=f4 v=65
1219620 Off ch=1 n=a#4 v=65
1219620 Off ch=1 n=d5 v=65
1219620 On ch=1 n=f3 v=126
1219680 Off ch=1 n=f3 v=0
1219680 On ch=1 n=c5 v=126
1219680 On ch=1 n=a4 v=126
1219680 On ch=1 n=f4 v=126
1220160 Off ch=1 n=f4 v=65
1220160 Off ch=1 n=a4 v=65
1220160 Off ch=1 n=c5 v=65
1220640 On ch=1 n=a#4 v=65
1220640 On ch=1 n=d#4 v=65
1220880 Off ch=1 n=d#4 v=65
1220880 Off ch=1 n=a#4 v=65
1221600 On ch=1 n=c4 v=65
1221600 On ch=1 n=f#4 v=65
1221780 Off ch=1 n=f#4 v=65
1221780 Off ch=1 n=c4 v=65
1222080 On ch=1 n=f4 v=65
1222080 On ch=1 n=d4 v=65
1222200 Off ch=1 n=d4 v=65
1222200 Off ch=1 n=f4 v=65
1222320 On ch=1 n=d#4 v=65
1222320 On ch=1 n=a4 v=65
1222440 Off ch=1 n=a4 v=65
1222440 Off ch=1 n=d#4 v=65
1222560 On ch=1 n=a#4 v=65
1222560 On ch=1 n=f4 v=65
1222680 Off ch=1 n=f4 v=65
1222680 Off ch=1 n=a#4 v=65
1222800 On ch=1 n=f#4 v=65
1222800 On ch=1 n=a#4 v=65
1222920 Off ch=1 n=a#4 v=65
1222920 Off ch=1 n=f#4 v=65
1223040 On ch=1 n=a#4 v=65
1223040 On ch=1 n=f4 v=65
1223160 Off ch=1 n=a#4 v=65
1223520 On ch=1 n=a4 v=65
1224000 Off ch=1 n=f4 v=65
1224000 Off ch=1 n=a4 v=65
1224480 On ch=1 n=a#5 v=53
1224480 On ch=1 n=d#5 v=53
1224720 Off ch=1 n=d#5 v=65
1224720 Off ch=1 n=a#5 v=65
1225440 On ch=1 n=c5 v=53
1225440 On ch=1 n=f#5 v=53
1225620 Off ch=1 n=f#5 v=65
1225620 Off ch=1 n=c5 v=65
1225920 On ch=1 n=f5 v=53
1225920 On ch=1 n=d5 v=53
1226040 Off ch=1 n=d5 v=65
1226040 Off ch=1 n=f5 v=65
1226160 On ch=1 n=d#5 v=53
1226160 On ch=1 n=a5 v=53
1226280 Off ch=1 n=a5 v=65
1226280 Off ch=1 n=d#5 v=65
1226400 On ch=1 n=a#5 v=53
1226400 On ch=1 n=f5 v=53
1226520 Off ch=1 n=f5 v=65
1226520 Off ch=1 n=a#5 v=65
1226640 On ch=1 n=f#5 v=53
1226640 On ch=1 n=a#5 v=53
1226760 Off ch=1 n=a#5 v=65
1226760 Off ch=1 n=f#5 v=65
1226880 On ch=1 n=a#5 v=53
1226880 On ch=1 n=f5 v=53
1227000 Off ch=1 n=a#5 v=65
1227360 On ch=1 n=a5 v=65
1227840 Off ch=1 n=f5 v=65
1227840 Off ch=1 n=a5 v=65
1230060 On ch=1 n=d4 v=102
1230120 Off ch=1 n=d4 v=65
1230120 On ch=1 n=d#4 v=102
1230180 Off ch=1 n=d#4 v=65
1230180 On ch=1 n=f4 v=102
1230240 Off ch=1 n=f4 v=65
1230240 On ch=1 n=f#4 v=102
1230540 On ch=1 n=f4 v=102
1230600 Off ch=1 n=f4 v=65
1230600 On ch=1 n=d#4 v=102
1230660 Off ch=1 n=d#4 v=65
1230660 On ch=1 n=d4 v=102
1230720 Off ch=1 n=f#4 v=65
1230720 Off ch=1 n=d4 v=65
1230720 On ch=1 n=c4 v=102
1231020 On ch=1 n=d4 v=102
1231080 Off ch=1 n=d4 v=65
1231080 On ch=1 n=d#4 v=102
1231140 Off ch=1 n=d#4 v=65
1231140 On ch=1 n=e4 v=102
1231200 Off ch=1 n=c4 v=65
1231200 Off ch=1 n=e4 v=65
1231200 On ch=1 n=f4 v=102
1231500 On ch=1 n=e4 v=102
1231560 Off ch=1 n=e4 v=65
1231560 On ch=1 n=d#4 v=102
1231620 Off ch=1 n=d#4 v=65
1231620 On ch=1 n=d4 v=102
1231680 Off ch=1 n=f4 v=65
1231680 Off ch=1 n=d4 v=65
1231680 On ch=1 n=b3 v=102
1231980 On ch=1 n=c4 v=102
1232040 Off ch=1 n=c4 v=65
1232040 On ch=1 n=c#4 v=102
1232100 Off ch=1 n=c#4 v=65
1232100 On ch=1 n=d4 v=102
1232160 Off ch=1 n=b3 v=65
1232160 Off ch=1 n=d4 v=65
1232160 On ch=1 n=d#4 v=102
1232460 On ch=1 n=c#4 v=102
1232520 Off ch=1 n=c#4 v=65
1232520 On ch=1 n=c4 v=102
1232580 Off ch=1 n=c4 v=65
1232580 On ch=1 n=a#3 v=102
1232640 Off ch=1 n=d#4 v=65
1232640 Off ch=1 n=a#3 v=65
1232640 On ch=1 n=a3 v=102
1232940 On ch=1 n=a#3 v=102
1233000 Off ch=1 n=a#3 v=65
1233000 On ch=1 n=c4 v=102
1233060 Off ch=1 n=c4 v=65
1233060 On ch=1 n=c#4 v=102
1233120 Off ch=1 n=a3 v=65
1233120 Off ch=1 n=c#4 v=65
1233120 On ch=1 n=d4 v=102
1233420 On ch=1 n=c4 v=102
1233480 Off ch=1 n=c4 v=65
1233480 On ch=1 n=a#3 v=102
1233540 Off ch=1 n=a#3 v=65
1233540 On ch=1 n=a3 v=102
1233600 Off ch=1 n=d4 v=65
1233600 Off ch=1 n=a3 v=65
1233600 On ch=1 n=g3 v=102
1233900 On ch=1 n=a3 v=102
1233960 Off ch=1 n=a3 v=65
1233960 On ch=1 n=a#3 v=102
1234020 Off ch=1 n=a#3 v=65
1234020 On ch=1 n=c4 v=102
1234080 Off ch=1 n=g3 v=65
1234080 Off ch=1 n=c4 v=65
1234080 On ch=1 n=f#3 v=102
1234080 On ch=1 n=c#4 v=102
1234380 Off ch=1 n=f#3 v=65
1234380 On ch=1 n=c4 v=102
1234440 Off ch=1 n=c4 v=65
1234440 On ch=1 n=a#3 v=102
1234500 Off ch=1 n=a#3 v=65
1234500 On ch=1 n=a3 v=102
1234560 Off ch=1 n=c#4 v=65
1234560 Off ch=1 n=a3 v=65
1234560 On ch=1 n=f4 v=102
1234560 On ch=1 n=f3 v=102
1235040 Off ch=1 n=f3 v=65
1235040 Off ch=1 n=f4 v=65
1235040 On ch=1 n=f3 v=120
1235040 On ch=1 n=f2 v=120
1235520 Off ch=1 n=f2 v=65
1235520 Off ch=1 n=f3 v=65
1235520 On ch=1 n=a#3 v=127
1235520 On ch=1 n=a#2 v=127
1235760 Off ch=1 n=a#2 v=65
1235760 Off ch=1 n=a#3 v=65
1235820 On ch=1 n=d5 v=102
1235880 Off ch=1 n=d5 v=65
1235880 On ch=1 n=d#5 v=102
1235940 Off ch=1 n=d#5 v=65
1235940 On ch=1 n=f5 v=102
1236000 Off ch=1 n=f5 v=65
1236000 On ch=1 n=f#5 v=102
1236300 On ch=1 n=f5 v=102
1236360 Off ch=1 n=f5 v=65
1236360 On ch=1 n=d#5 v=102
1236420 Off ch=1 n=d#5 v=65
1236420 On ch=1 n=d5 v=102
1236480 Off ch=1 n=f#5 v=65
1236480 Off ch=1 n=d5 v=65
1236480 On ch=1 n=c5 v=102
1236780 On ch=1 n=d5 v=102
1236840 Off ch=1 n=d5 v=65
1236840 On ch=1 n=d#5 v=102
1236900 Off ch=1 n=d#5 v=65
1236900 On ch=1 n=e5 v=102
1236960 Off ch=1 n=c5 v=65
1236960 Off ch=1 n=e5 v=65
1236960 On ch=1 n=f5 v=102
1237260 On ch=1 n=e5 v=102
1237320 Off ch=1 n=e5 v=65
1237320 On ch=1 n=d#5 v=102
1237380 Off ch=1 n=d#5 v=65
1237380 On ch=1 n=d5 v=102
1237440 Off ch=1 n=f5 v=65
1237440 Off ch=1 n=d5 v=65
1237440 On ch=1 n=b4 v=102
1237740 On ch=1 n=c5 v=102
1237800 Off ch=1 n=c5 v=65
1237800 On ch=1 n=c#5 v=102
1237860 Off ch=1 n=c#5 v=65
1237860 On ch=1 n=d5 v=102
1237920 Off ch=1 n=b4 v=65
1237920 Off ch=1 n=d5 v=65
1237920 On ch=1 n=d#5 v=102
1238220 On ch=1 n=c#5 v=102
1238280 Off ch=1 n=c#5 v=65
1238280 On ch=1 n=c5 v=102
1238340 Off ch=1 n=c5 v=65
1238340 On ch=1 n=a#4 v=102
1238400 Off ch=1 n=d#5 v=65
1238400 Off ch=1 n=a#4 v=65
1238400 On ch=1 n=a4 v=102
1238700 On ch=1 n=a#4 v=102
1238760 Off ch=1 n=a#4 v=65
1238760 On ch=1 n=c5 v=102
1238820 Off ch=1 n=c5 v=65
1238820 On ch=1 n=c#5 v=102
1238880 Off ch=1 n=a4 v=65
1238880 Off ch=1 n=c#5 v=65
1238880 On ch=1 n=d5 v=102
1239180 On ch=1 n=c5 v=102
1239240 Off ch=1 n=c5 v=65
1239240 On ch=1 n=a#4 v=102
1239300 Off ch=1 n=a#4 v=65
1239300 On ch=1 n=a4 v=102
1239360 Off ch=1 n=d5 v=65
1239360 Off ch=1 n=a4 v=65
1239360 On ch=1 n=g4 v=102
1239660 On ch=1 n=a4 v=102
1239720 Off ch=1 n=a4 v=65
1239720 On ch=1 n=a#4 v=102
1239780 Off ch=1 n=a#4 v=65
1239780 On ch=1 n=c5 v=102
1239840 Off ch=1 n=g4 v=65
1239840 Off ch=1 n=c5 v=65
1239840 On ch=1 n=f#4 v=102
1239840 On ch=1 n=c#5 v=102
1240140 Off ch=1 n=f#4 v=65
1240140 On ch=1 n=c5 v=102
1240200 Off ch=1 n=c5 v=65
1240200 On ch=1 n=a#4 v=102
1240260 Off ch=1 n=a#4 v=65
1240260 On ch=1 n=a4 v=102
1240320 Off ch=1 n=c#5 v=65
1240320 Off ch=1 n=a4 v=65
1240320 On ch=1 n=f5 v=102
1240320 On ch=1 n=f4 v=102
1240800 Off ch=1 n=f4 v=65
1240800 Off ch=1 n=f5 v=65
1240800 On ch=1 n=f4 v=120
1240800 On ch=1 n=f3 v=120
1241280 Off ch=1 n=f3 v=65
1241280 Off ch=1 n=f4 v=65
1241280 On ch=1 n=a#2 v=127
1241280 On ch=1 n=a#3 v=127
1241520 Off ch=1 n=a#3 v=65
1241520 Off ch=1 n=a#2 v=65
1241580 On ch=1 n=f5 v=102
1241640 Off ch=1 n=f5 v=65
1241640 On ch=1 n=g5 v=102
1241700 Off ch=1 n=g5 v=65
1241700 On ch=1 n=g#5 v=102
1241760 Off ch=1 n=g#5 v=65
1241760 On ch=1 n=a#5 v=120
1241760 On ch=1 n=f6 v=120
1242060 Off ch=1 n=f6 v=65
1242060 Off ch=1 n=a#5 v=65
1242060 On ch=1 n=g#5 v=102
1242120 Off ch=1 n=g#5 v=65
1242120 On ch=1 n=g5 v=102
1242180 Off ch=1 n=g5 v=65
1242180 On ch=1 n=f5 v=102
1242240 Off ch=1 n=f5 v=65
1242240 On ch=1 n=d#5 v=102
1242240 On ch=1 n=d#6 v=120
1242540 Off ch=1 n=d#6 v=65
1242540 Off ch=1 n=d#5 v=65
1242540 On ch=1 n=d#5 v=102
1242600 Off ch=1 n=d#5 v=65
1242600 On ch=1 n=f5 v=102
1242660 Off ch=1 n=f5 v=65
1242660 On ch=1 n=f#5 v=102
1242720 Off ch=1 n=f#5 v=65
1242720 On ch=1 n=d#6 v=102
1242720 On ch=1 n=g#5 v=102
1243020 Off ch=1 n=g#5 v=65
1243020 Off ch=1 n=d#6 v=65
1243020 On ch=1 n=f#5 v=102
1243080 Off ch=1 n=f#5 v=65
1243080 On ch=1 n=f5 v=102
1243140 Off ch=1 n=f5 v=65
1243140 On ch=1 n=d#5 v=102
1243200 Off ch=1 n=d#5 v=65
1243200 On ch=1 n=a#5 v=102
1243200 On ch=1 n=a#4 v=102
1243440 Off ch=1 n=a#4 v=65
1243440 Off ch=1 n=a#5 v=65
1243500 On ch=1 n=f4 v=102
1243560 Off ch=1 n=f4 v=65
1243560 On ch=1 n=g4 v=102
1243620 Off ch=1 n=g4 v=65
1243620 On ch=1 n=g#4 v=102
1243680 Off ch=1 n=g#4 v=65
1243680 On ch=1 n=a#4 v=120
1243680 On ch=1 n=f5 v=120
1243980 Off ch=1 n=f5 v=65
1243980 Off ch=1 n=a#4 v=65
1243980 On ch=1 n=g#4 v=102
1244040 Off ch=1 n=g#4 v=65
1244040 On ch=1 n=g4 v=102
1244100 Off ch=1 n=g4 v=65
1244100 On ch=1 n=f4 v=102
1244160 Off ch=1 n=f4 v=65
1244160 On ch=1 n=d#4 v=102
1244160 On ch=1 n=d#5 v=120
1244460 Off ch=1 n=d#5 v=65
1244460 Off ch=1 n=d#4 v=65
1244460 On ch=1 n=d#4 v=102
1244520 Off ch=1 n=d#4 v=65
1244520 On ch=1 n=f4 v=102
1244580 Off ch=1 n=f4 v=65
1244580 On ch=1 n=f#4 v=102
1244640 Off ch=1 n=f#4 v=65
1244640 On ch=1 n=d#5 v=102
1244640 On ch=1 n=g#4 v=102
1244940 Off ch=1 n=g#4 v=65
1244940 Off ch=1 n=d#5 v=65
1244940 On ch=1 n=f#4 v=102
1245000 Off ch=1 n=f#4 v=65
1245000 On ch=1 n=f4 v=102
1245060 Off ch=1 n=f4 v=65
1245060 On ch=1 n=d#4 v=102
1245120 Off ch=1 n=d#4 v=65
1245120 On ch=1 n=a#4 v=102
1245120 On ch=1 n=a#3 v=102
1245360 Off ch=1 n=a#3 v=65
1245360 Off ch=1 n=a#4 v=65
1245420 On ch=1 n=f3 v=102
1245480 Off ch=1 n=f3 v=65
1245480 On ch=1 n=g3 v=102
1245540 Off ch=1 n=g3 v=65
1245540 On ch=1 n=g#3 v=102
1245600 Off ch=1 n=g#3 v=65
1245600 On ch=1 n=a#3 v=120
1245600 On ch=1 n=f4 v=120
1245900 Off ch=1 n=f4 v=65
1245900 Off ch=1 n=a#3 v=65
1245900 On ch=1 n=g#3 v=102
1245960 Off ch=1 n=g#3 v=65
1245960 On ch=1 n=g3 v=102
1246020 Off ch=1 n=g3 v=65
1246020 On ch=1 n=f3 v=102
1246080 Off ch=1 n=f3 v=65
1246080 On ch=1 n=d#3 v=102
1246080 On ch=1 n=d#4 v=120
1246380 Off ch=1 n=d#4 v=65
1246380 Off ch=1 n=d#3 v=65
1246380 On ch=1 n=d#3 v=102
1246440 Off ch=1 n=d#3 v=65
1246440 On ch=1 n=f3 v=102
1246500 Off ch=1 n=f3 v=65
1246500 On ch=1 n=f#3 v=102
1246560 Off ch=1 n=f#3 v=65
1246560 On ch=1 n=d#4 v=102
1246560 On ch=1 n=g#3 v=102
1246860 Off ch=1 n=g#3 v=65
1246860 Off ch=1 n=d#4 v=65
1246860 On ch=1 n=f#3 v=102
1246920 Off ch=1 n=f#3 v=65
1246920 On ch=1 n=f3 v=102
1246980 Off ch=1 n=f3 v=65
1246980 On ch=1 n=d#3 v=102
1247040 Off ch=1 n=d#3 v=65
1247040 On ch=1 n=a#3 v=102
1247040 On ch=1 n=a#2 v=102
1247280 Off ch=1 n=a#2 v=65
1247280 Off ch=1 n=a#3 v=65
1247340 On ch=1 n=d#3 v=102
1247400 Off ch=1 n=d#3 v=65
1247400 On ch=1 n=f3 v=102
1247460 Off ch=1 n=f3 v=65
1247460 On ch=1 n=f#3 v=102
1247520 Off ch=1 n=f#3 v=65
1247520 On ch=1 n=d#4 v=102
1247520 On ch=1 n=g#3 v=102
1247820 Off ch=1 n=g#3 v=65
1247820 Off ch=1 n=d#4 v=65
1247820 On ch=1 n=f#3 v=102
1247880 Off ch=1 n=f#3 v=65
1247880 On ch=1 n=f3 v=102
1247940 Off ch=1 n=f3 v=65
1247940 On ch=1 n=d#3 v=102
1248000 Off ch=1 n=d#3 v=65
1248000 On ch=1 n=a#3 v=102
1248000 On ch=1 n=a#2 v=102
1248240 Off ch=1 n=a#2 v=65
1248240 Off ch=1 n=a#3 v=65
1248300 On ch=1 n=d#3 v=102
1248360 Off ch=1 n=d#3 v=65
1248360 On ch=1 n=f3 v=102
1248420 Off ch=1 n=f3 v=65
1248420 On ch=1 n=f#3 v=102
1248480 Off ch=1 n=f#3 v=65
1248480 On ch=1 n=d#4 v=102
1248480 On ch=1 n=g#3 v=102
1248780 Off ch=1 n=g#3 v=65
1248780 Off ch=1 n=d#4 v=65
1248780 On ch=1 n=f#3 v=102
1248840 Off ch=1 n=f#3 v=65
1248840 On ch=1 n=f3 v=102
1248900 Off ch=1 n=f3 v=65
1248900 On ch=1 n=d#3 v=102
1248960 Off ch=1 n=d#3 v=65
1248960 On ch=1 n=a#3 v=102
1248960 On ch=1 n=a#2 v=102
1249440 Off ch=1 n=a#2 v=65
1249440 Off ch=1 n=a#3 v=65
1249920 On ch=1 n=f5 v=127
1249920 On ch=1 n=d5 v=127
1249920 On ch=1 n=a#4 v=127
1249920 On ch=1 n=f4 v=127
1250400 Off ch=1 n=f4 v=65
1250400 Off ch=1 n=a#4 v=65
1250400 Off ch=1 n=d5 v=65
1250400 Off ch=1 n=f5 v=65
1250760 On ch=1 n=a#2 v=114
1250760 On ch=1 n=f3 v=114
1250880 Off ch=1 n=f3 v=65
1250880 Off ch=1 n=a#2 v=65
1250880 On ch=1 n=f3 v=114
1250880 On ch=1 n=a#2 v=114
1252800 Off ch=1 n=a#2 v=65
1252800 Off ch=1 n=f3 v=65
1252800 Meta TrkEnd
TrkEnd
MTrk
0 Meta TrkName "Pedal"
0 Meta 0x21 00
0 Meta 0x20 00
0 Par ch=1 c=10 v=64
0 PrCh ch=1 p=0
960 Par ch=1 c=64 v=127
4800 Par ch=1 c=64 v=0
5040 Par ch=1 c=64 v=127
8600 Par ch=1 c=64 v=0
8640 Par ch=1 c=64 v=127
12480 Par ch=1 c=64 v=0
12720 Par ch=1 c=64 v=127
16200 Par ch=1 c=64 v=0
16320 Par ch=1 c=64 v=127
20040 Par ch=1 c=64 v=0
20160 Par ch=1 c=64 v=127
39360 Par ch=1 c=64 v=0
40320 Par ch=1 c=64 v=127
43200 Par ch=1 c=64 v=0
43440 Par ch=1 c=64 v=127
46080 Par ch=1 c=64 v=0
47040 Par ch=1 c=64 v=127
50880 Par ch=1 c=64 v=0
51120 Par ch=1 c=64 v=127
54600 Par ch=1 c=64 v=0
54720 Par ch=1 c=64 v=127
59400 Par ch=1 c=64 v=0
59520 Par ch=1 c=64 v=127
70960 Par ch=1 c=64 v=0
71040 Par ch=1 c=64 v=127
71920 Par ch=1 c=64 v=0
72000 Par ch=1 c=64 v=127
72400 Par ch=1 c=64 v=0
72480 Par ch=1 c=64 v=127
72880 Par ch=1 c=64 v=0
73920 Par ch=1 c=64 v=127
74800 Par ch=1 c=64 v=0
74880 Par ch=1 c=64 v=127
75760 Par ch=1 c=64 v=0
75840 Par ch=1 c=64 v=127
76240 Par ch=1 c=64 v=0
76320 Par ch=1 c=64 v=127
76720 Par ch=1 c=64 v=0
77760 Par ch=1 c=64 v=127
78640 Par ch=1 c=64 v=0
78720 Par ch=1 c=64 v=127
79600 Par ch=1 c=64 v=0
79680 Par ch=1 c=64 v=127
80080 Par ch=1 c=64 v=0
80160 Par ch=1 c=64 v=127
80560 Par ch=1 c=64 v=0
82560 Par ch=1 c=64 v=127
83440 Par ch=1 c=64 v=0
83520 Par ch=1 c=64 v=127
84400 Par ch=1 c=64 v=0
84480 Par ch=1 c=64 v=127
84880 Par ch=1 c=64 v=0
84960 Par ch=1 c=64 v=127
85360 Par ch=1 c=64 v=0
86400 Par ch=1 c=64 v=127
87280 Par ch=1 c=64 v=0
87360 Par ch=1 c=64 v=127
88240 Par ch=1 c=64 v=0
88320 Par ch=1 c=64 v=127
88720 Par ch=1 c=64 v=0
88800 Par ch=1 c=64 v=127
89200 Par ch=1 c=64 v=0
90240 Par ch=1 c=64 v=127
91120 Par ch=1 c=64 v=0
91200 Par ch=1 c=64 v=127
92080 Par ch=1 c=64 v=0
92160 Par ch=1 c=64 v=127
92560 Par ch=1 c=64 v=0
92640 Par ch=1 c=64 v=127
93040 Par ch=1 c=64 v=0
95040 Par ch=1 c=64 v=127
95440 Par ch=1 c=64 v=0
96000 Par ch=1 c=64 v=127
96400 Par ch=1 c=64 v=0
96960 Par ch=1 c=64 v=127
97840 Par ch=1 c=64 v=0
97920 Par ch=1 c=64 v=127
98320 Par ch=1 c=64 v=0
98880 Par ch=1 c=64 v=127
99280 Par ch=1 c=64 v=0
99840 Par ch=1 c=64 v=127
100240 Par ch=1 c=64 v=0
100800 Par ch=1 c=64 v=127
101680 Par ch=1 c=64 v=0
101760 Par ch=1 c=64 v=127
102160 Par ch=1 c=64 v=0
102720 Par ch=1 c=64 v=127
103600 Par ch=1 c=64 v=0
103680 Par ch=1 c=64 v=127
104080 Par ch=1 c=64 v=0
104160 Par ch=1 c=64 v=127
104560 Par ch=1 c=64 v=0
105600 Par ch=1 c=64 v=127
106480 Par ch=1 c=64 v=0
106560 Par ch=1 c=64 v=127
107440 Par ch=1 c=64 v=0
107520 Par ch=1 c=64 v=127
107920 Par ch=1 c=64 v=0
108000 Par ch=1 c=64 v=127
108400 Par ch=1 c=64 v=0
109440 Par ch=1 c=64 v=127
110320 Par ch=1 c=64 v=0
110400 Par ch=1 c=64 v=127
111280 Par ch=1 c=64 v=0
111360 Par ch=1 c=64 v=127
112240 Par ch=1 c=64 v=0
112320 Par ch=1 c=64 v=127
112720 Par ch=1 c=64 v=0
112800 Par ch=1 c=64 v=127
113200 Par ch=1 c=64 v=0
113280 Par ch=1 c=64 v=127
114160 Par ch=1 c=64 v=0
114240 Par ch=1 c=64 v=127
115120 Par ch=1 c=64 v=0
115200 Par ch=1 c=64 v=127
116080 Par ch=1 c=64 v=0
116160 Par ch=1 c=64 v=127
117040 Par ch=1 c=64 v=0
117120 Par ch=1 c=64 v=127
118000 Par ch=1 c=64 v=0
118080 Par ch=1 c=64 v=127
118960 Par ch=1 c=64 v=0
119040 Par ch=1 c=64 v=127
119920 Par ch=1 c=64 v=0
120000 Par ch=1 c=64 v=127
120880 Par ch=1 c=64 v=0
120960 Par ch=1 c=64 v=127
121840 Par ch=1 c=64 v=0
122400 Par ch=1 c=64 v=127
123280 Par ch=1 c=64 v=0
123360 Par ch=1 c=64 v=127
124240 Par ch=1 c=64 v=0
132960 Par ch=1 c=64 v=127
147760 Par ch=1 c=64 v=0
229440 Par ch=1 c=64 v=127
232240 Par ch=1 c=64 v=0
232320 Par ch=1 c=64 v=127
233200 Par ch=1 c=64 v=0
233280 Par ch=1 c=64 v=127
233680 Par ch=1 c=64 v=0
233760 Par ch=1 c=64 v=127
234160 Par ch=1 c=64 v=0
235200 Par ch=1 c=64 v=127
236080 Par ch=1 c=64 v=0
236160 Par ch=1 c=64 v=127
237040 Par ch=1 c=64 v=0
237120 Par ch=1 c=64 v=127
237520 Par ch=1 c=64 v=0
237600 Par ch=1 c=64 v=127
238000 Par ch=1 c=64 v=0
239040 Par ch=1 c=64 v=127
239920 Par ch=1 c=64 v=0
240000 Par ch=1 c=64 v=127
240880 Par ch=1 c=64 v=0
240960 Par ch=1 c=64 v=127
241360 Par ch=1 c=64 v=0
241440 Par ch=1 c=64 v=127
241840 Par ch=1 c=64 v=0
243840 Par ch=1 c=64 v=127
244240 Par ch=1 c=64 v=0
244800 Par ch=1 c=64 v=127
245200 Par ch=1 c=64 v=0
245760 Par ch=1 c=64 v=127
246640 Par ch=1 c=64 v=0
246720 Par ch=1 c=64 v=127
247120 Par ch=1 c=64 v=0
247680 Par ch=1 c=64 v=127
248080 Par ch=1 c=64 v=0
248640 Par ch=1 c=64 v=127
249040 Par ch=1 c=64 v=0
249600 Par ch=1 c=64 v=127
250480 Par ch=1 c=64 v=0
250560 Par ch=1 c=64 v=127
250960 Par ch=1 c=64 v=0
251520 Par ch=1 c=64 v=127
252400 Par ch=1 c=64 v=0
252480 Par ch=1 c=64 v=127
252880 Par ch=1 c=64 v=0
252960 Par ch=1 c=64 v=127
253360 Par ch=1 c=64 v=0
254400 Par ch=1 c=64 v=127
255280 Par ch=1 c=64 v=0
255360 Par ch=1 c=64 v=127
256240 Par ch=1 c=64 v=0
256320 Par ch=1 c=64 v=127
256720 Par ch=1 c=64 v=0
256800 Par ch=1 c=64 v=127
257200 Par ch=1 c=64 v=0
258240 Par ch=1 c=64 v=127
259120 Par ch=1 c=64 v=0
259200 Par ch=1 c=64 v=127
260080 Par ch=1 c=64 v=0
260160 Par ch=1 c=64 v=127
261040 Par ch=1 c=64 v=0
261120 Par ch=1 c=64 v=127
261520 Par ch=1 c=64 v=0
261600 Par ch=1 c=64 v=127
262000 Par ch=1 c=64 v=0
262080 Par ch=1 c=64 v=127
262960 Par ch=1 c=64 v=0
263040 Par ch=1 c=64 v=127
263920 Par ch=1 c=64 v=0
264000 Par ch=1 c=64 v=127
264880 Par ch=1 c=64 v=0
264960 Par ch=1 c=64 v=127
265840 Par ch=1 c=64 v=0
265920 Par ch=1 c=64 v=127
266800 Par ch=1 c=64 v=0
266880 Par ch=1 c=64 v=127
267760 Par ch=1 c=64 v=0
267840 Par ch=1 c=64 v=127
268720 Par ch=1 c=64 v=0
268800 Par ch=1 c=64 v=127
269680 Par ch=1 c=64 v=0
269760 Par ch=1 c=64 v=127
270640 Par ch=1 c=64 v=0
270720 Par ch=1 c=64 v=127
271600 Par ch=1 c=64 v=0
271680 Par ch=1 c=64 v=127
272560 Par ch=1 c=64 v=0
272640 Par ch=1 c=64 v=127
273520 Par ch=1 c=64 v=0
273600 Par ch=1 c=64 v=127
274480 Par ch=1 c=64 v=0
274560 Par ch=1 c=64 v=127
281280 Par ch=1 c=64 v=0
281520 Par ch=1 c=64 v=127
285080 Par ch=1 c=64 v=0
285120 Par ch=1 c=64 v=127
288960 Par ch=1 c=64 v=0
289200 Par ch=1 c=64 v=127
292800 Par ch=1 c=64 v=0
293040 Par ch=1 c=64 v=127
294720 Par ch=1 c=64 v=0
294960 Par ch=1 c=64 v=127
299440 Par ch=1 c=64 v=0
299520 Par ch=1 c=64 v=127
300400 Par ch=1 c=64 v=0
300480 Par ch=1 c=64 v=127
301360 Par ch=1 c=64 v=0
301440 Par ch=1 c=64 v=127
302320 Par ch=1 c=64 v=0
302400 Par ch=1 c=64 v=127
303280 Par ch=1 c=64 v=0
303360 Par ch=1 c=64 v=127
304240 Par ch=1 c=64 v=0
304320 Par ch=1 c=64 v=127
305200 Par ch=1 c=64 v=0
305280 Par ch=1 c=64 v=127
306160 Par ch=1 c=64 v=0
306240 Par ch=1 c=64 v=127
307120 Par ch=1 c=64 v=0
307200 Par ch=1 c=64 v=127
308080 Par ch=1 c=64 v=0
308160 Par ch=1 c=64 v=127
309040 Par ch=1 c=64 v=0
309120 Par ch=1 c=64 v=127
310000 Par ch=1 c=64 v=0
310080 Par ch=1 c=64 v=127
310960 Par ch=1 c=64 v=0
311040 Par ch=1 c=64 v=127
311920 Par ch=1 c=64 v=0
312000 Par ch=1 c=64 v=127
312880 Par ch=1 c=64 v=0
312960 Par ch=1 c=64 v=127
313840 Par ch=1 c=64 v=0
313920 Par ch=1 c=64 v=127
314800 Par ch=1 c=64 v=0
322560 Par ch=1 c=64 v=127
323440 Par ch=1 c=64 v=0
323520 Par ch=1 c=64 v=127
324400 Par ch=1 c=64 v=0
324480 Par ch=1 c=64 v=127
325360 Par ch=1 c=64 v=0
325440 Par ch=1 c=64 v=127
326320 Par ch=1 c=64 v=0
326400 Par ch=1 c=64 v=127
327280 Par ch=1 c=64 v=0
327360 Par ch=1 c=64 v=127
328240 Par ch=1 c=64 v=0
328320 Par ch=1 c=64 v=127
329200 Par ch=1 c=64 v=0
329280 Par ch=1 c=64 v=127
330160 Par ch=1 c=64 v=0
332400 Par ch=1 c=64 v=127
333040 Par ch=1 c=64 v=0
333120 Par ch=1 c=64 v=127
334000 Par ch=1 c=64 v=0
334080 Par ch=1 c=64 v=127
334960 Par ch=1 c=64 v=0
338640 Par ch=1 c=64 v=127
339760 Par ch=1 c=64 v=0
339840 Par ch=1 c=64 v=127
340720 Par ch=1 c=64 v=0
342480 Par ch=1 c=64 v=127
343600 Par ch=1 c=64 v=0
350400 Par ch=1 c=64 v=127
351280 Par ch=1 c=64 v=0
352320 Par ch=1 c=64 v=127
353200 Par ch=1 c=64 v=0
393840 Par ch=1 c=64 v=127
394760 Par ch=1 c=64 v=0
394800 Par ch=1 c=64 v=127
396400 Par ch=1 c=64 v=0
397440 Par ch=1 c=64 v=127
401200 Par ch=1 c=64 v=0
401280 Par ch=1 c=64 v=127
405040 Par ch=1 c=64 v=0
405120 Par ch=1 c=64 v=127
406960 Par ch=1 c=64 v=0
407040 Par ch=1 c=64 v=127
407920 Par ch=1 c=64 v=0
408000 Par ch=1 c=64 v=127
408880 Par ch=1 c=64 v=0
408960 Par ch=1 c=64 v=127
410400 Par ch=1 c=64 v=0
473280 Par ch=1 c=64 v=127
480880 Par ch=1 c=64 v=0
480960 Par ch=1 c=64 v=127
488560 Par ch=1 c=64 v=0
488640 Par ch=1 c=64 v=127
496240 Par ch=1 c=64 v=0
496320 Par ch=1 c=64 v=127
500080 Par ch=1 c=64 v=0
500160 Par ch=1 c=64 v=127
503920 Par ch=1 c=64 v=0
504000 Par ch=1 c=64 v=127
507760 Par ch=1 c=64 v=0
507840 Par ch=1 c=64 v=127
511600 Par ch=1 c=64 v=0
511680 Par ch=1 c=64 v=127
515440 Par ch=1 c=64 v=0
515520 Par ch=1 c=64 v=127
517360 Par ch=1 c=64 v=0
517440 Par ch=1 c=64 v=127
519280 Par ch=1 c=64 v=0
519360 Par ch=1 c=64 v=127
523120 Par ch=1 c=64 v=0
523200 Par ch=1 c=64 v=127
526960 Par ch=1 c=64 v=0
527040 Par ch=1 c=64 v=127
530800 Par ch=1 c=64 v=0
538560 Par ch=1 c=64 v=127
539440 Par ch=1 c=64 v=0
539520 Par ch=1 c=64 v=127
540400 Par ch=1 c=64 v=0
540480 Par ch=1 c=64 v=127
541360 Par ch=1 c=64 v=0
541440 Par ch=1 c=64 v=127
542320 Par ch=1 c=64 v=0
542400 Par ch=1 c=64 v=127
543280 Par ch=1 c=64 v=0
543360 Par ch=1 c=64 v=127
544240 Par ch=1 c=64 v=0
544320 Par ch=1 c=64 v=127
545200 Par ch=1 c=64 v=0
545280 Par ch=1 c=64 v=127
546160 Par ch=1 c=64 v=0
546720 Par ch=1 c=64 v=127
548560 Par ch=1 c=64 v=0
550560 Par ch=1 c=64 v=127
552400 Par ch=1 c=64 v=0
554880 Par ch=1 c=64 v=127
555760 Par ch=1 c=64 v=0
555840 Par ch=1 c=64 v=127
556720 Par ch=1 c=64 v=0
556800 Par ch=1 c=64 v=127
557680 Par ch=1 c=64 v=0
557760 Par ch=1 c=64 v=127
558640 Par ch=1 c=64 v=0
559680 Par ch=1 c=64 v=127
560560 Par ch=1 c=64 v=0
563040 Par ch=1 c=64 v=127
565560 Par ch=1 c=64 v=0
565920 Par ch=1 c=64 v=127
567560 Par ch=1 c=64 v=0
567840 Par ch=1 c=64 v=127
568440 Par ch=1 c=64 v=0
568680 Par ch=1 c=64 v=127
569400 Par ch=1 c=64 v=0
569580 Par ch=1 c=64 v=127
571400 Par ch=1 c=64 v=0
571500 Par ch=1 c=64 v=127
573320 Par ch=1 c=64 v=0
573600 Par ch=1 c=64 v=127
575160 Par ch=1 c=64 v=0
575520 Par ch=1 c=64 v=127
576200 Par ch=1 c=64 v=0
576240 Par ch=1 c=64 v=127
577160 Par ch=1 c=64 v=0
579360 Par ch=1 c=64 v=127
580720 Par ch=1 c=64 v=0
581760 Par ch=1 c=64 v=127
582640 Par ch=1 c=64 v=0
583200 Par ch=1 c=64 v=127
584080 Par ch=1 c=64 v=0
585600 Par ch=1 c=64 v=127
586000 Par ch=1 c=64 v=0
586560 Par ch=1 c=64 v=127
588600 Par ch=1 c=64 v=0
588960 Par ch=1 c=64 v=127
590520 Par ch=1 c=64 v=0
590880 Par ch=1 c=64 v=127
591480 Par ch=1 c=64 v=0
591840 Par ch=1 c=64 v=127
592560 Par ch=1 c=64 v=0
592800 Par ch=1 c=64 v=127
594440 Par ch=1 c=64 v=0
594540 Par ch=1 c=64 v=127
596280 Par ch=1 c=64 v=0
596640 Par ch=1 c=64 v=127
598200 Par ch=1 c=64 v=0
598560 Par ch=1 c=64 v=127
599160 Par ch=1 c=64 v=0
599250 Par ch=1 c=64 v=127
599920 Par ch=1 c=64 v=0
602880 Par ch=1 c=64 v=127
604760 Par ch=1 c=64 v=0
605280 Par ch=1 c=64 v=127
606640 Par ch=1 c=64 v=0
606720 Par ch=1 c=64 v=127
607680 Par ch=1 c=64 v=127
608560 Par ch=1 c=64 v=0
608600 Par ch=1 c=64 v=0
609120 Par ch=1 c=64 v=127
611440 Par ch=1 c=64 v=0
611520 Par ch=1 c=64 v=127
617200 Par ch=1 c=64 v=0
617280 Par ch=1 c=64 v=127
619320 Par ch=1 c=64 v=0
619680 Par ch=1 c=64 v=127
621240 Par ch=1 c=64 v=0
621600 Par ch=1 c=64 v=127
622200 Par ch=1 c=64 v=0
622560 Par ch=1 c=64 v=127
623280 Par ch=1 c=64 v=0
623520 Par ch=1 c=64 v=127
625160 Par ch=1 c=64 v=0
625260 Par ch=1 c=64 v=127
627000 Par ch=1 c=64 v=0
627360 Par ch=1 c=64 v=127
628920 Par ch=1 c=64 v=0
629280 Par ch=1 c=64 v=127
629880 Par ch=1 c=64 v=0
629970 Par ch=1 c=64 v=127
630640 Par ch=1 c=64 v=0
633120 Par ch=1 c=64 v=127
633840 Par ch=1 c=64 v=0
635040 Par ch=1 c=64 v=127
635760 Par ch=1 c=64 v=0
636960 Par ch=1 c=64 v=127
637680 Par ch=1 c=64 v=0
638880 Par ch=1 c=64 v=127
639600 Par ch=1 c=64 v=0
644640 Par ch=1 c=64 v=127
645360 Par ch=1 c=64 v=0
646560 Par ch=1 c=64 v=127
647280 Par ch=1 c=64 v=0
648480 Par ch=1 c=64 v=127
649200 Par ch=1 c=64 v=0
650400 Par ch=1 c=64 v=127
651120 Par ch=1 c=64 v=0
656160 Par ch=1 c=64 v=127
656880 Par ch=1 c=64 v=0
658080 Par ch=1 c=64 v=127
658800 Par ch=1 c=64 v=0
660000 Par ch=1 c=64 v=127
660720 Par ch=1 c=64 v=0
661920 Par ch=1 c=64 v=127
662640 Par ch=1 c=64 v=0
663760 Par ch=1 c=64 v=127
664280 Par ch=1 c=64 v=0
665680 Par ch=1 c=64 v=127
666200 Par ch=1 c=64 v=0
667600 Par ch=1 c=64 v=127
668120 Par ch=1 c=64 v=0
669520 Par ch=1 c=64 v=127
670040 Par ch=1 c=64 v=0
671440 Par ch=1 c=64 v=127
671960 Par ch=1 c=64 v=0
673360 Par ch=1 c=64 v=127
673880 Par ch=1 c=64 v=0
675360 Par ch=1 c=64 v=127
675880 Par ch=1 c=64 v=0
677280 Par ch=1 c=64 v=127
677800 Par ch=1 c=64 v=0
679200 Par ch=1 c=64 v=127
679720 Par ch=1 c=64 v=0
681120 Par ch=1 c=64 v=127
681640 Par ch=1 c=64 v=0
682560 Par ch=1 c=64 v=127
683080 Par ch=1 c=64 v=0
684960 Par ch=1 c=64 v=127
685480 Par ch=1 c=64 v=0
686880 Par ch=1 c=64 v=127
687400 Par ch=1 c=64 v=0
688800 Par ch=1 c=64 v=127
689320 Par ch=1 c=64 v=0
696960 Par ch=1 c=64 v=127
697360 Par ch=1 c=64 v=0
697920 Par ch=1 c=64 v=127
699960 Par ch=1 c=64 v=0
700320 Par ch=1 c=64 v=127
701880 Par ch=1 c=64 v=0
702240 Par ch=1 c=64 v=127
702840 Par ch=1 c=64 v=0
703200 Par ch=1 c=64 v=127
703920 Par ch=1 c=64 v=0
704160 Par ch=1 c=64 v=127
705800 Par ch=1 c=64 v=0
705900 Par ch=1 c=64 v=127
707640 Par ch=1 c=64 v=0
708000 Par ch=1 c=64 v=127
709560 Par ch=1 c=64 v=0
709920 Par ch=1 c=64 v=127
710520 Par ch=1 c=64 v=0
710610 Par ch=1 c=64 v=127
711280 Par ch=1 c=64 v=0
713280 Par ch=1 c=64 v=127
714200 Par ch=1 c=64 v=0
714240 Par ch=1 c=64 v=127
716160 Par ch=1 c=64 v=0
716640 Par ch=1 c=64 v=127
718000 Par ch=1 c=64 v=0
718080 Par ch=1 c=64 v=127
719920 Par ch=1 c=64 v=0
720480 Par ch=1 c=64 v=127
722800 Par ch=1 c=64 v=0
722880 Par ch=1 c=64 v=127
728560 Par ch=1 c=64 v=0
728640 Par ch=1 c=64 v=127
730680 Par ch=1 c=64 v=0
731040 Par ch=1 c=64 v=127
732600 Par ch=1 c=64 v=0
732960 Par ch=1 c=64 v=127
733560 Par ch=1 c=64 v=0
733920 Par ch=1 c=64 v=127
734640 Par ch=1 c=64 v=0
734880 Par ch=1 c=64 v=127
736520 Par ch=1 c=64 v=0
736620 Par ch=1 c=64 v=127
738360 Par ch=1 c=64 v=0
738720 Par ch=1 c=64 v=127
740280 Par ch=1 c=64 v=0
740640 Par ch=1 c=64 v=127
741240 Par ch=1 c=64 v=0
741330 Par ch=1 c=64 v=127
742000 Par ch=1 c=64 v=0
743520 Par ch=1 c=64 v=127
744920 Par ch=1 c=64 v=0
744960 Par ch=1 c=64 v=127
747600 Par ch=1 c=64 v=0
749520 Par ch=1 c=64 v=127
750680 Par ch=1 c=64 v=0
750720 Par ch=1 c=64 v=127
751640 Par ch=1 c=64 v=0
751680 Par ch=1 c=64 v=127
752600 Par ch=1 c=64 v=0
752640 Par ch=1 c=64 v=127
753560 Par ch=1 c=64 v=0
753600 Par ch=1 c=64 v=127
754520 Par ch=1 c=64 v=0
754560 Par ch=1 c=64 v=127
755480 Par ch=1 c=64 v=0
755520 Par ch=1 c=64 v=127
756440 Par ch=1 c=64 v=0
757440 Par ch=1 c=64 v=127
758360 Par ch=1 c=64 v=0
758400 Par ch=1 c=64 v=127
759320 Par ch=1 c=64 v=0
759360 Par ch=1 c=64 v=127
760280 Par ch=1 c=64 v=0
760320 Par ch=1 c=64 v=127
761240 Par ch=1 c=64 v=0
761280 Par ch=1 c=64 v=127
762000 Par ch=1 c=64 v=0
762240 Par ch=1 c=64 v=127
762960 Par ch=1 c=64 v=0
763200 Par ch=1 c=64 v=127
765080 Par ch=1 c=64 v=0
765120 Par ch=1 c=64 v=127
766040 Par ch=1 c=64 v=0
766080 Par ch=1 c=64 v=127
767000 Par ch=1 c=64 v=0
767040 Par ch=1 c=64 v=127
767960 Par ch=1 c=64 v=0
768000 Par ch=1 c=64 v=127
768920 Par ch=1 c=64 v=0
768960 Par ch=1 c=64 v=127
769880 Par ch=1 c=64 v=0
769920 Par ch=1 c=64 v=127
770840 Par ch=1 c=64 v=0
770880 Par ch=1 c=64 v=127
771800 Par ch=1 c=64 v=0
772800 Par ch=1 c=64 v=127
773720 Par ch=1 c=64 v=0
773760 Par ch=1 c=64 v=127
774680 Par ch=1 c=64 v=0
774720 Par ch=1 c=64 v=127
775640 Par ch=1 c=64 v=0
775680 Par ch=1 c=64 v=127
776600 Par ch=1 c=64 v=0
776640 Par ch=1 c=64 v=127
777360 Par ch=1 c=64 v=0
777600 Par ch=1 c=64 v=127
778320 Par ch=1 c=64 v=0
778560 Par ch=1 c=64 v=127
780000 Par ch=1 c=64 v=0
795840 Par ch=1 c=64 v=127
796760 Par ch=1 c=64 v=0
796800 Par ch=1 c=64 v=127
797720 Par ch=1 c=64 v=0
797760 Par ch=1 c=64 v=127
798680 Par ch=1 c=64 v=0
798720 Par ch=1 c=64 v=127
799640 Par ch=1 c=64 v=0
799680 Par ch=1 c=64 v=127
800600 Par ch=1 c=64 v=0
800640 Par ch=1 c=64 v=127
801560 Par ch=1 c=64 v=0
801600 Par ch=1 c=64 v=127
802520 Par ch=1 c=64 v=0
803520 Par ch=1 c=64 v=127
804440 Par ch=1 c=64 v=0
804480 Par ch=1 c=64 v=127
805400 Par ch=1 c=64 v=0
805440 Par ch=1 c=64 v=127
806360 Par ch=1 c=64 v=0
806400 Par ch=1 c=64 v=127
807320 Par ch=1 c=64 v=0
807360 Par ch=1 c=64 v=127
808080 Par ch=1 c=64 v=0
808320 Par ch=1 c=64 v=127
809040 Par ch=1 c=64 v=0
809280 Par ch=1 c=64 v=127
811160 Par ch=1 c=64 v=0
811200 Par ch=1 c=64 v=127
813080 Par ch=1 c=64 v=0
813120 Par ch=1 c=64 v=127
815000 Par ch=1 c=64 v=0
815040 Par ch=1 c=64 v=127
816920 Par ch=1 c=64 v=0
816960 Par ch=1 c=64 v=127
817880 Par ch=1 c=64 v=0
817920 Par ch=1 c=64 v=127
818840 Par ch=1 c=64 v=0
818880 Par ch=1 c=64 v=127
820760 Par ch=1 c=64 v=0
820800 Par ch=1 c=64 v=127
822680 Par ch=1 c=64 v=0
822720 Par ch=1 c=64 v=127
824600 Par ch=1 c=64 v=0
824640 Par ch=1 c=64 v=127
825560 Par ch=1 c=64 v=0
825600 Par ch=1 c=64 v=127
826520 Par ch=1 c=64 v=0
826560 Par ch=1 c=64 v=127
827480 Par ch=1 c=64 v=0
827520 Par ch=1 c=64 v=127
828440 Par ch=1 c=64 v=0
828480 Par ch=1 c=64 v=127
829400 Par ch=1 c=64 v=0
829440 Par ch=1 c=64 v=127
830360 Par ch=1 c=64 v=0
830400 Par ch=1 c=64 v=127
831320 Par ch=1 c=64 v=0
831360 Par ch=1 c=64 v=127
832280 Par ch=1 c=64 v=0
832320 Par ch=1 c=64 v=127
833240 Par ch=1 c=64 v=0
834240 Par ch=1 c=64 v=127
835160 Par ch=1 c=64 v=0
835200 Par ch=1 c=64 v=127
836120 Par ch=1 c=64 v=0
836160 Par ch=1 c=64 v=127
837080 Par ch=1 c=64 v=0
837120 Par ch=1 c=64 v=127
838040 Par ch=1 c=64 v=0
838080 Par ch=1 c=64 v=127
838800 Par ch=1 c=64 v=0
839040 Par ch=1 c=64 v=127
839760 Par ch=1 c=64 v=0
840000 Par ch=1 c=64 v=127
841880 Par ch=1 c=64 v=0
841920 Par ch=1 c=64 v=127
843080 Par ch=1 c=64 v=0
843120 Par ch=1 c=64 v=127
843800 Par ch=1 c=64 v=0
843840 Par ch=1 c=64 v=127
845000 Par ch=1 c=64 v=0
845040 Par ch=1 c=64 v=127
845720 Par ch=1 c=64 v=0
845760 Par ch=1 c=64 v=127
846920 Par ch=1 c=64 v=0
846960 Par ch=1 c=64 v=127
847640 Par ch=1 c=64 v=0
847680 Par ch=1 c=64 v=127
848840 Par ch=1 c=64 v=0
848880 Par ch=1 c=64 v=127
849560 Par ch=1 c=64 v=0
849600 Par ch=1 c=64 v=127
850560 Par ch=1 c=64 v=0
862080 Par ch=1 c=64 v=127
863000 Par ch=1 c=64 v=0
864000 Par ch=1 c=64 v=127
864920 Par ch=1 c=64 v=0
866880 Par ch=1 c=64 v=127
867800 Par ch=1 c=64 v=0
867840 Par ch=1 c=64 v=127
868560 Par ch=1 c=64 v=0
869760 Par ch=1 c=64 v=127
870680 Par ch=1 c=64 v=0
871680 Par ch=1 c=64 v=127
872280 Par ch=1 c=64 v=0
875520 Par ch=1 c=64 v=127
876000 Par ch=1 c=64 v=0
890160 Par ch=1 c=64 v=127
890360 Par ch=1 c=64 v=0
890400 Par ch=1 c=64 v=127
890840 Par ch=1 c=64 v=0
890880 Par ch=1 c=64 v=127
891360 Par ch=1 c=64 v=0
907200 Par ch=1 c=64 v=127
909040 Par ch=1 c=64 v=0
909120 Par ch=1 c=64 v=127
910960 Par ch=1 c=64 v=0
911040 Par ch=1 c=64 v=127
912880 Par ch=1 c=64 v=0
912960 Par ch=1 c=64 v=127
913840 Par ch=1 c=64 v=0
914880 Par ch=1 c=64 v=127
916720 Par ch=1 c=64 v=0
916800 Par ch=1 c=64 v=127
918640 Par ch=1 c=64 v=0
918720 Par ch=1 c=64 v=127
922520 Par ch=1 c=64 v=0
934080 Par ch=1 c=64 v=127
935000 Par ch=1 c=64 v=0
936960 Par ch=1 c=64 v=127
937560 Par ch=1 c=64 v=0
937920 Par ch=1 c=64 v=127
938840 Par ch=1 c=64 v=0
941760 Par ch=1 c=64 v=127
942360 Par ch=1 c=64 v=0
943680 Par ch=1 c=64 v=127
944280 Par ch=1 c=64 v=0
945600 Par ch=1 c=64 v=127
946040 Par ch=1 c=64 v=0
946080 Par ch=1 c=64 v=127
946520 Par ch=1 c=64 v=0
946560 Par ch=1 c=64 v=127
947280 Par ch=1 c=64 v=0
947520 Par ch=1 c=64 v=127
947960 Par ch=1 c=64 v=0
948000 Par ch=1 c=64 v=127
948440 Par ch=1 c=64 v=0
948480 Par ch=1 c=64 v=127
949200 Par ch=1 c=64 v=0
990960 Par ch=1 c=64 v=127
993840 Par ch=1 c=64 v=0
995520 Par ch=1 c=64 v=127
996920 Par ch=1 c=64 v=0
996960 Par ch=1 c=64 v=127
997400 Par ch=1 c=64 v=0
997440 Par ch=1 c=64 v=127
999120 Par ch=1 c=64 v=0
999360 Par ch=1 c=64 v=127
1001200 Par ch=1 c=64 v=0
1001280 Par ch=1 c=64 v=127
1002960 Par ch=1 c=64 v=0
1003200 Par ch=1 c=64 v=127
1005040 Par ch=1 c=64 v=0
1005120 Par ch=1 c=64 v=127
1006520 Par ch=1 c=64 v=0
1006560 Par ch=1 c=64 v=127
1007000 Par ch=1 c=64 v=0
1007040 Par ch=1 c=64 v=127
1008440 Par ch=1 c=64 v=0
1008480 Par ch=1 c=64 v=127
1008920 Par ch=1 c=64 v=0
1008960 Par ch=1 c=64 v=127
1010800 Par ch=1 c=64 v=0
1010880 Par ch=1 c=64 v=127
1012280 Par ch=1 c=64 v=0
1012320 Par ch=1 c=64 v=127
1012760 Par ch=1 c=64 v=0
1012800 Par ch=1 c=64 v=127
1014200 Par ch=1 c=64 v=0
1014240 Par ch=1 c=64 v=127
1014680 Par ch=1 c=64 v=0
1014720 Par ch=1 c=64 v=127
1016120 Par ch=1 c=64 v=0
1016160 Par ch=1 c=64 v=127
1016600 Par ch=1 c=64 v=0
1016640 Par ch=1 c=64 v=127
1018040 Par ch=1 c=64 v=0
1018080 Par ch=1 c=64 v=127
1018520 Par ch=1 c=64 v=0
1018560 Par ch=1 c=64 v=127
1019960 Par ch=1 c=64 v=0
1020000 Par ch=1 c=64 v=127
1020440 Par ch=1 c=64 v=0
1020480 Par ch=1 c=64 v=127
1021880 Par ch=1 c=64 v=0
1021920 Par ch=1 c=64 v=127
1022360 Par ch=1 c=64 v=0
1022400 Par ch=1 c=64 v=127
1024080 Par ch=1 c=64 v=0
1024320 Par ch=1 c=64 v=127
1025720 Par ch=1 c=64 v=0
1025760 Par ch=1 c=64 v=127
1026200 Par ch=1 c=64 v=0
1026240 Par ch=1 c=64 v=127
1027920 Par ch=1 c=64 v=0
1028160 Par ch=1 c=64 v=127
1030000 Par ch=1 c=64 v=0
1030080 Par ch=1 c=64 v=127
1031480 Par ch=1 c=64 v=0
1031520 Par ch=1 c=64 v=127
1031960 Par ch=1 c=64 v=0
1032000 Par ch=1 c=64 v=127
1033400 Par ch=1 c=64 v=0
1033440 Par ch=1 c=64 v=127
1033880 Par ch=1 c=64 v=0
1033920 Par ch=1 c=64 v=127
1035760 Par ch=1 c=64 v=0
1036320 Par ch=1 c=64 v=127
1037040 Par ch=1 c=64 v=0
1040160 Par ch=1 c=64 v=127
1040880 Par ch=1 c=64 v=0
1044000 Par ch=1 c=64 v=127
1044720 Par ch=1 c=64 v=0
1055040 Par ch=1 c=64 v=127
1056480 Par ch=1 c=64 v=0
1058880 Par ch=1 c=64 v=127
1060320 Par ch=1 c=64 v=0
1062240 Par ch=1 c=64 v=127
1063640 Par ch=1 c=64 v=0
1063680 Par ch=1 c=64 v=127
1064880 Par ch=1 c=64 v=0
1065120 Par ch=1 c=64 v=127
1066430 Par ch=1 c=64 v=0
1066480 Par ch=1 c=64 v=127
1067520 Par ch=1 c=64 v=0
1070880 Par ch=1 c=64 v=127
1074200 Par ch=1 c=64 v=0
1078080 Par ch=1 c=64 v=127
1079960 Par ch=1 c=64 v=0
1080000 Par ch=1 c=64 v=127
1082880 Par ch=1 c=64 v=0
1085700 Par ch=1 c=64 v=127
1086680 Par ch=1 c=64 v=0
1087620 Par ch=1 c=64 v=127
1088600 Par ch=1 c=64 v=0
1112100 Par ch=1 c=64 v=127
1112600 Par ch=1 c=64 v=0
1112640 Par ch=1 c=64 v=127
1114520 Par ch=1 c=64 v=0
1114560 Par ch=1 c=64 v=127
1116440 Par ch=1 c=64 v=0
1125600 Par ch=1 c=64 v=127
1127760 Par ch=1 c=64 v=0
1132320 Par ch=1 c=64 v=127
1133720 Par ch=1 c=64 v=0
1133760 Par ch=1 c=64 v=127
1135160 Par ch=1 c=64 v=0
1135200 Par ch=1 c=64 v=127
1135640 Par ch=1 c=64 v=0
1152480 Par ch=1 c=64 v=127
1152920 Par ch=1 c=64 v=0
1155360 Par ch=1 c=64 v=127
1158680 Par ch=1 c=64 v=0
1162560 Par ch=1 c=64 v=127
1164440 Par ch=1 c=64 v=0
1164480 Par ch=1 c=64 v=127
1167360 Par ch=1 c=64 v=0
1170180 Par ch=1 c=64 v=127
1171160 Par ch=1 c=64 v=0
1172100 Par ch=1 c=64 v=127
1173080 Par ch=1 c=64 v=0
1196580 Par ch=1 c=64 v=127
1197080 Par ch=1 c=64 v=0
1197120 Par ch=1 c=64 v=127
1199000 Par ch=1 c=64 v=0
1199040 Par ch=1 c=64 v=127
1200920 Par ch=1 c=64 v=0
1210500 Par ch=1 c=64 v=127
1212240 Par ch=1 c=64 v=0
1235760 Par ch=1 c=64 v=127
1239320 Par ch=1 c=64 v=0
1239360 Par ch=1 c=64 v=127
1241240 Par ch=1 c=64 v=0
1241520 Par ch=1 c=64 v=127
1245080 Par ch=1 c=64 v=0
1245120 Par ch=1 c=64 v=127
1246040 Par ch=1 c=64 v=0
1246080 Par ch=1 c=64 v=127
1247960 Par ch=1 c=64 v=0
1248000 Par ch=1 c=64 v=127
1248920 Par ch=1 c=64 v=0
1248920 Meta TrkEnd
TrkEnd
