MFile 1 4 480
MTrk
0 Tempo 508474
0 TimeSig 4/4 24 8
0 KeySig -1 major
960 Tempo 434782
5280 Tempo 508474
5760 Tempo 555555
6720 Tempo 681818
7680 Tempo 555555
8160 Tempo 405405
10080 Tempo 434782
10560 Tempo 508474
11520 Tempo 468750
12000 Tempo 379746
13920 Tempo 434782
14400 Tempo 508474
15360 Tempo 508474
16320 Tempo 434782
20640 Tempo 508474
21120 Tempo 555555
22080 Tempo 681818
23040 Tempo 508474
23520 Tempo 379746
25440 Tempo 434782
25920 Tempo 508474
26880 Tempo 508474
27360 Tempo 379746
29280 Tempo 434782
29760 Tempo 508474
30720 Tempo 508474
31680 Tempo 434782
36000 Tempo 508474
36480 Tempo 555555
37440 Tempo 882352
37680 Tempo 1132075
38400 Tempo 555555
38880 Tempo 468750
39360 Tempo 434782
39840 Tempo 405405
40320 Tempo 508474
40800 Tempo 555555
41280 Tempo 508474
42240 Tempo 487804
42720 Tempo 434782
43200 Tempo 405405
44160 Tempo 468750
45120 Tempo 555555
46080 Tempo 555555
46560 Tempo 468750
47040 Tempo 434782
47520 Tempo 405405
48000 Tempo 508474
48480 Tempo 555555
48960 Tempo 508474
49920 Tempo 468750
50400 Tempo 434782
50880 Tempo 405405
51840 Tempo 434782
52800 Tempo 555555
54240 Tempo 508474
54720 Tempo 451127
55200 Tempo 434782
56640 Tempo 508474
57120 Tempo 508474
57600 Tempo 468750
58080 Tempo 419580
58560 Tempo 379746
59040 Tempo 346820
59520 Tempo 468750
60480 Tempo 508474
61440 Tempo 769230
61600 Tempo 468750
61920 Tempo 468750
62880 Tempo 555555
63360 Tempo 1395348
63600 Tempo 821917
63840 Tempo 882352
64320 Tempo 1034482
64800 Tempo 1034482
65120 Tempo 2000000
65280 Tempo 612244
65760 Tempo 508474
66240 Tempo 468750
67680 Tempo 555555
68160 Tempo 722891
68640 Tempo 1132075
69120 Tempo 555555
69600 Tempo 468750
70080 Tempo 434782
70560 Tempo 405405
71040 Tempo 508474
71520 Tempo 555555
72000 Tempo 508474
72960 Tempo 468750
73440 Tempo 434782
73920 Tempo 405405
74880 Tempo 434782
75840 Tempo 555555
77280 Tempo 508474
77760 Tempo 451127
78240 Tempo 434782
79680 Tempo 468750
80160 Tempo 508474
80640 Tempo 468750
81120 Tempo 419580
81600 Tempo 379746
82080 Tempo 346820
82560 Tempo 468750
83520 Tempo 508474
84000 Tempo 645161
84480 Tempo 1395348
84640 Tempo 952380
84960 Tempo 681818
85440 Tempo 555555
86160 Tempo 468750
86400 Tempo 1034482
86560 Tempo 681818
86880 Tempo 769230
87360 Tempo 769230
87840 Tempo 952380
88200 Tempo 612244
88800 Tempo 487804
89280 Tempo 451127
90720 Tempo 405405
91200 Tempo 821917
91680 Tempo 1034482
92160 Tempo 508474
93120 Tempo 434782
97440 Tempo 508474
97920 Tempo 555555
98880 Tempo 681818
99840 Tempo 508474
100320 Tempo 405405
102240 Tempo 434782
102720 Tempo 508474
103680 Tempo 434782
104160 Tempo 405405
106080 Tempo 434782
106560 Tempo 508474
107520 Tempo 508474
108480 Tempo 434782
112800 Tempo 508474
113280 Tempo 555555
114240 Tempo 882352
114720 Tempo 555555
115440 Tempo 612244
116160 Tempo 508474
117120 Tempo 468750
120000 Tempo 555555
120480 Tempo 612244
120960 Tempo 681818
121200 Tempo 612244
121920 Tempo 508474
122880 Tempo 468750
125760 Tempo 555555
126240 Tempo 612244
126720 Tempo 681818
126960 Tempo 612244
127680 Tempo 508474
128640 Tempo 468750
132480 Tempo 451127
134400 Tempo 434782
135840 Tempo 582524
136320 Tempo 530973
137280 Tempo 952380
137760 Tempo 821917
138720 Tempo 612244
139680 Tempo 508474
140160 Tempo 468750
143040 Tempo 555555
143520 Tempo 612244
144000 Tempo 681818
144240 Tempo 612244
144960 Tempo 508474
145920 Tempo 468750
149760 Tempo 451127
151680 Tempo 434782
153120 Tempo 508474
154800 Tempo 645161
155520 Tempo 555555
156480 Tempo 468750
158400 Tempo 434782
159840 Tempo 468750
160320 Tempo 508474
160800 Tempo 555555
161280 Tempo 612244
162240 Tempo 882352
162480 Tempo 1132075
163200 Tempo 508474
163680 Tempo 434782
164160 Tempo 405405
164640 Tempo 379746
165120 Tempo 468750
165600 Tempo 508474
166080 Tempo 468750
167040 Tempo 451127
167520 Tempo 405405
168000 Tempo 379746
168960 Tempo 434782
169920 Tempo 555555
171360 Tempo 434782
171840 Tempo 405405
172320 Tempo 379746
172800 Tempo 468750
173280 Tempo 508474
173760 Tempo 468750
174720 Tempo 434782
175200 Tempo 405405
175680 Tempo 379746
176640 Tempo 405405
177600 Tempo 508474
179040 Tempo 468750
179520 Tempo 419580
180000 Tempo 405405
181440 Tempo 468750
182400 Tempo 434782
182880 Tempo 392156
183360 Tempo 357142
183840 Tempo 327868
184320 Tempo 434782
185280 Tempo 508474
185760 Tempo 555555
186240 Tempo 1132075
186400 Tempo 468750
186720 Tempo 434782
187680 Tempo 555555
188160 Tempo 1395348
188400 Tempo 821917
188640 Tempo 882352
189120 Tempo 1034482
189600 Tempo 1034482
189920 Tempo 2000000
190080 Tempo 612244
190560 Tempo 508474
191040 Tempo 468750
192480 Tempo 555555
192960 Tempo 722891
193440 Tempo 1132075
193920 Tempo 555555
194400 Tempo 468750
194880 Tempo 434782
195360 Tempo 405405
195840 Tempo 508474
196320 Tempo 555555
196800 Tempo 508474
197760 Tempo 434782
198240 Tempo 405405
198720 Tempo 379746
199680 Tempo 405405
200640 Tempo 508474
202080 Tempo 468750
202560 Tempo 419580
203040 Tempo 405405
204480 Tempo 434782
204960 Tempo 468750
205440 Tempo 434782
205920 Tempo 392156
206400 Tempo 357142
206880 Tempo 327868
207360 Tempo 434782
208320 Tempo 508474
208800 Tempo 645161
209280 Tempo 1132075
209440 Tempo 821917
209760 Tempo 612244
210240 Tempo 508474
210960 Tempo 434782
211200 Tempo 882352
211360 Tempo 612244
211680 Tempo 681818
212640 Tempo 1034482
213000 Tempo 681818
213120 Tempo 530973
213600 Tempo 451127
214080 Tempo 419580
215520 Tempo 379746
216000 Tempo 821917
216480 Tempo 612244
216960 Tempo 508474
217920 Tempo 434782
222240 Tempo 508474
222720 Tempo 555555
223680 Tempo 681818
224640 Tempo 508474
225120 Tempo 405405
227040 Tempo 434782
227520 Tempo 508474
228480 Tempo 434782
228960 Tempo 405405
230880 Tempo 434782
231360 Tempo 508474
232320 Tempo 508474
233280 Tempo 434782
238080 Tempo 468750
239520 Tempo 392156
241440 Tempo 379746
243360 Tempo 368098
245280 Tempo 357142
245760 Tempo 405405
247200 Tempo 357142
249120 Tempo 346820
253440 Tempo 405405
254400 Tempo 468750
254880 Tempo 368098
256800 Tempo 405405
257280 Tempo 487804
258720 Tempo 645161
260640 Tempo 722891
261120 Tempo 1132075
261120 Meta TrkEnd
TrkEnd
MTrk
0 Meta TrkName "Piano R Hand"
0 Meta 0x21 00
0 Meta 0x20 00
0 Par ch=1 c=10 v=64
0 PrCh ch=1 p=0
0 On ch=1 n=f4 v=114
0 On ch=1 n=d4 v=114
120 Off ch=1 n=d4 v=80
120 Off ch=1 n=f4 v=80
480 On ch=1 n=c5 v=114
480 On ch=1 n=g4 v=114
480 On ch=1 n=e4 v=114
600 Off ch=1 n=e4 v=80
600 Off ch=1 n=g4 v=80
600 Off ch=1 n=c5 v=80
960 On ch=1 n=c5 v=114
960 On ch=1 n=a4 v=114
960 On ch=1 n=f4 v=114
1920 Off ch=1 n=f4 v=80
1920 Off ch=1 n=a4 v=80
1920 Off ch=1 n=c5 v=80
1920 On ch=1 n=d5 v=114
1920 On ch=1 n=a#4 v=114
1920 On ch=1 n=f4 v=114
2400 Off ch=1 n=f4 v=80
2400 Off ch=1 n=a#4 v=80
2400 Off ch=1 n=d5 v=80
2400 On ch=1 n=e5 v=114
2400 On ch=1 n=c5 v=114
2400 On ch=1 n=a#4 v=114
2880 Off ch=1 n=a#4 v=80
2880 Off ch=1 n=c5 v=80
2880 Off ch=1 n=e5 v=80
2880 On ch=1 n=f5 v=102
2880 On ch=1 n=c5 v=102
2880 On ch=1 n=a4 v=102
3360 Off ch=1 n=a4 v=80
3360 Off ch=1 n=c5 v=80
3360 Off ch=1 n=f5 v=80
3360 On ch=1 n=a4 v=105
3360 On ch=1 n=d5 v=105
3360 On ch=1 n=f#5 v=105
3840 Off ch=1 n=f#5 v=80
3840 Off ch=1 n=d5 v=80
3840 Off ch=1 n=a4 v=80
3840 On ch=1 n=g5 v=108
3840 On ch=1 n=d5 v=108
3840 On ch=1 n=g4 v=108
4320 Off ch=1 n=g4 v=80
4320 Off ch=1 n=d5 v=80
4320 Off ch=1 n=g5 v=80
4320 On ch=1 n=f#5 v=111
4320 On ch=1 n=d5 v=111
4320 On ch=1 n=a5 v=111
4800 Off ch=1 n=a5 v=80
4800 Off ch=1 n=d5 v=80
4800 Off ch=1 n=f#5 v=80
4800 On ch=1 n=d5 v=114
4800 On ch=1 n=g5 v=114
4800 On ch=1 n=a#5 v=114
5280 Off ch=1 n=a#5 v=80
5280 Off ch=1 n=g5 v=80
5280 Off ch=1 n=d5 v=80
5280 On ch=1 n=d6 v=117
5280 On ch=1 n=a#5 v=117
5280 On ch=1 n=d5 v=117
5760 Off ch=1 n=d5 v=80
5760 Off ch=1 n=a#5 v=80
5760 Off ch=1 n=d6 v=80
5760 On ch=1 n=c6 v=120
5760 On ch=1 n=a5 v=120
5760 On ch=1 n=c5 v=120
6240 Off ch=1 n=c5 v=80
6240 Off ch=1 n=a5 v=80
6240 Off ch=1 n=c6 v=80
6240 On ch=1 n=e5 v=102
6240 On ch=1 n=c5 v=102
6240 On ch=1 n=g4 v=102
6720 Off ch=1 n=g4 v=80
6720 Off ch=1 n=c5 v=80
6720 Off ch=1 n=e5 v=80
6720 On ch=1 n=f5 v=102
6720 On ch=1 n=c5 v=102
6720 On ch=1 n=a4 v=102
7200 Off ch=1 n=a4 v=80
7200 Off ch=1 n=c5 v=80
7200 Off ch=1 n=f5 v=80
7680 On ch=1 n=d5 v=127
8160 Off ch=1 n=d5 v=80
8160 On ch=1 n=d#5 v=102
8160 On ch=1 n=d5 v=102
8640 Off ch=1 n=d5 v=80
8640 Off ch=1 n=d#5 v=80
8640 On ch=1 n=d#5 v=102
8640 On ch=1 n=c5 v=102
9120 Off ch=1 n=c5 v=80
9120 Off ch=1 n=d#5 v=80
9120 On ch=1 n=c6 v=102
9280 Off ch=1 n=c6 v=80
9280 On ch=1 n=d6 v=102
9440 Off ch=1 n=d6 v=80
9440 On ch=1 n=d#6 v=102
9600 Off ch=1 n=d#6 v=80
9600 On ch=1 n=d6 v=102
9600 On ch=1 n=a5 v=102
10500 Off ch=1 n=a5 v=80
10500 Off ch=1 n=d6 v=80
10500 On ch=1 n=c6 v=102
10500 On ch=1 n=a5 v=102
10500 On ch=1 n=d5 v=102
10560 Off ch=1 n=d5 v=80
10560 Off ch=1 n=a5 v=80
10560 Off ch=1 n=c6 v=80
10560 On ch=1 n=c6 v=120
10560 On ch=1 n=f5 v=120
10560 On ch=1 n=d5 v=120
10800 Off ch=1 n=d5 v=80
10800 Off ch=1 n=f5 v=80
10800 Off ch=1 n=c6 v=80
11040 On ch=1 n=b5 v=102
11040 On ch=1 n=f5 v=102
11040 On ch=1 n=d5 v=102
11520 Off ch=1 n=d5 v=80
11520 Off ch=1 n=f5 v=80
11520 Off ch=1 n=b5 v=80
11520 On ch=1 n=c5 v=127
12000 Off ch=1 n=c5 v=80
12000 On ch=1 n=c#5 v=102
12000 On ch=1 n=c5 v=102
12480 Off ch=1 n=c5 v=80
12480 Off ch=1 n=c#5 v=80
12480 On ch=1 n=c#5 v=102
12480 On ch=1 n=a#4 v=102
12960 Off ch=1 n=a#4 v=80
12960 Off ch=1 n=c#5 v=80
12960 On ch=1 n=a#5 v=102
13120 Off ch=1 n=a#5 v=80
13120 On ch=1 n=c6 v=102
13280 Off ch=1 n=c6 v=80
13280 On ch=1 n=c#6 v=102
13440 Off ch=1 n=c#6 v=80
13440 On ch=1 n=c6 v=102
13440 On ch=1 n=g5 v=102
14340 Off ch=1 n=g5 v=80
14340 Off ch=1 n=c6 v=80
14340 On ch=1 n=a#5 v=102
14340 On ch=1 n=g5 v=102
14340 On ch=1 n=c5 v=102
14400 Off ch=1 n=c5 v=80
14400 Off ch=1 n=g5 v=80
14400 Off ch=1 n=a#5 v=80
14400 On ch=1 n=a#5 v=120
14400 On ch=1 n=d#5 v=120
14400 On ch=1 n=c5 v=120
14640 Off ch=1 n=c5 v=80
14640 Off ch=1 n=d#5 v=80
14640 Off ch=1 n=a#5 v=80
14880 On ch=1 n=a5 v=102
14880 On ch=1 n=d#5 v=102
14880 On ch=1 n=c5 v=102
15360 Off ch=1 n=c5 v=80
15360 Off ch=1 n=d#5 v=80
15360 Off ch=1 n=a5 v=80
15360 On ch=1 n=a#4 v=102
15360 On ch=1 n=c#5 v=102
15360 On ch=1 n=f4 v=102
15600 Off ch=1 n=f4 v=80
15600 Off ch=1 n=c#5 v=80
15600 Off ch=1 n=a#4 v=80
15840 On ch=1 n=g#5 v=102
15840 On ch=1 n=d#5 v=102
15840 On ch=1 n=c5 v=102
16080 Off ch=1 n=c5 v=80
16080 Off ch=1 n=d#5 v=80
16080 Off ch=1 n=g#5 v=80
16320 On ch=1 n=g#5 v=102
16320 On ch=1 n=f5 v=102
16320 On ch=1 n=c#5 v=102
17040 Off ch=1 n=c#5 v=80
17040 Off ch=1 n=f5 v=80
17040 Off ch=1 n=g#5 v=80
17280 On ch=1 n=a#5 v=102
17280 On ch=1 n=f#5 v=102
17280 On ch=1 n=c#5 v=102
17760 Off ch=1 n=c#5 v=80
17760 Off ch=1 n=f#5 v=80
17760 Off ch=1 n=a#5 v=80
17760 On ch=1 n=c6 v=102
17760 On ch=1 n=g#5 v=102
17760 On ch=1 n=f#5 v=102
18240 Off ch=1 n=f#5 v=80
18240 Off ch=1 n=g#5 v=80
18240 Off ch=1 n=c6 v=80
18240 On ch=1 n=c#6 v=102
18240 On ch=1 n=g#5 v=102
18240 On ch=1 n=f5 v=102
18720 Off ch=1 n=f5 v=80
18720 Off ch=1 n=g#5 v=80
18720 Off ch=1 n=c#6 v=80
18720 On ch=1 n=f5 v=105
18720 On ch=1 n=a#5 v=105
18720 On ch=1 n=d6 v=105
19200 Off ch=1 n=d6 v=80
19200 Off ch=1 n=a#5 v=80
19200 Off ch=1 n=f5 v=80
19200 On ch=1 n=d#6 v=108
19200 On ch=1 n=a#5 v=108
19200 On ch=1 n=d#5 v=108
19680 Off ch=1 n=d#5 v=80
19680 Off ch=1 n=a#5 v=80
19680 Off ch=1 n=d#6 v=80
19680 On ch=1 n=d6 v=111
19680 On ch=1 n=a#5 v=111
19680 On ch=1 n=f6 v=111
20160 Off ch=1 n=f6 v=80
20160 Off ch=1 n=a#5 v=80
20160 Off ch=1 n=d6 v=80
20160 On ch=1 n=a#5 v=114
20160 On ch=1 n=d#6 v=114
20160 On ch=1 n=f#6 v=114
20640 Off ch=1 n=f#6 v=80
20640 Off ch=1 n=d#6 v=80
20640 Off ch=1 n=a#5 v=80
20640 On ch=1 n=a#6 v=117
20640 On ch=1 n=f#6 v=117
20640 On ch=1 n=a#5 v=117
21120 Off ch=1 n=a#5 v=80
21120 Off ch=1 n=f#6 v=80
21120 Off ch=1 n=a#6 v=80
21120 On ch=1 n=g#6 v=120
21120 On ch=1 n=f6 v=120
21120 On ch=1 n=g#5 v=120
21600 Off ch=1 n=g#5 v=80
21600 Off ch=1 n=f6 v=80
21600 Off ch=1 n=g#6 v=80
21600 On ch=1 n=c6 v=102
21600 On ch=1 n=g#5 v=102
21600 On ch=1 n=d#5 v=102
22080 Off ch=1 n=d#5 v=80
22080 Off ch=1 n=g#5 v=80
22080 Off ch=1 n=c6 v=80
22080 On ch=1 n=c#6 v=102
22080 On ch=1 n=g#5 v=102
22080 On ch=1 n=f5 v=102
22560 Off ch=1 n=f5 v=80
22560 Off ch=1 n=g#5 v=80
22560 Off ch=1 n=c#6 v=80
23040 On ch=1 n=a#4 v=127
23520 Off ch=1 n=a#4 v=80
23520 On ch=1 n=b4 v=102
23520 On ch=1 n=a#4 v=102
24000 Off ch=1 n=a#4 v=80
24000 Off ch=1 n=b4 v=80
24000 On ch=1 n=b4 v=102
24000 On ch=1 n=g#4 v=102
24480 Off ch=1 n=g#4 v=80
24480 Off ch=1 n=b4 v=80
24480 On ch=1 n=g#5 v=102
24640 Off ch=1 n=g#5 v=80
24640 On ch=1 n=a#5 v=102
24800 Off ch=1 n=a#5 v=80
24800 On ch=1 n=b5 v=102
24960 Off ch=1 n=b5 v=80
24960 On ch=1 n=f5 v=102
24960 On ch=1 n=a#5 v=102
25860 Off ch=1 n=a#5 v=80
25860 Off ch=1 n=f5 v=80
25860 On ch=1 n=g#5 v=102
25860 On ch=1 n=f5 v=102
25860 On ch=1 n=a#4 v=102
25920 Off ch=1 n=a#4 v=80
25920 Off ch=1 n=f5 v=80
25920 Off ch=1 n=g#5 v=80
25920 On ch=1 n=g#5 v=120
25920 On ch=1 n=c#5 v=120
25920 On ch=1 n=a#4 v=120
26160 Off ch=1 n=a#4 v=80
26160 Off ch=1 n=c#5 v=80
26160 Off ch=1 n=g#5 v=80
26400 On ch=1 n=g5 v=102
26400 On ch=1 n=c#5 v=102
26400 On ch=1 n=a#4 v=102
26880 Off ch=1 n=a#4 v=80
26880 Off ch=1 n=c#5 v=80
26880 Off ch=1 n=g5 v=80
26880 On ch=1 n=g#4 v=127
27360 Off ch=1 n=g#4 v=80
27360 On ch=1 n=a4 v=102
27360 On ch=1 n=g#4 v=102
27840 Off ch=1 n=g#4 v=80
27840 Off ch=1 n=a4 v=80
27840 On ch=1 n=a4 v=102
27840 On ch=1 n=f#4 v=102
28320 Off ch=1 n=f#4 v=80
28320 Off ch=1 n=a4 v=80
28320 On ch=1 n=f#5 v=102
28480 Off ch=1 n=f#5 v=80
28480 On ch=1 n=g#5 v=102
28640 Off ch=1 n=g#5 v=80
28640 On ch=1 n=a5 v=102
28800 Off ch=1 n=a5 v=80
28800 On ch=1 n=g#5 v=102
28800 On ch=1 n=d#5 v=102
29700 Off ch=1 n=d#5 v=80
29700 Off ch=1 n=g#5 v=80
29700 On ch=1 n=f#5 v=102
29700 On ch=1 n=d#5 v=102
29700 On ch=1 n=g#4 v=102
29760 Off ch=1 n=g#4 v=80
29760 Off ch=1 n=d#5 v=80
29760 Off ch=1 n=f#5 v=80
29760 On ch=1 n=f#5 v=120
29760 On ch=1 n=b4 v=120
29760 On ch=1 n=g#4 v=120
30000 Off ch=1 n=g#4 v=80
30000 Off ch=1 n=b4 v=80
30000 Off ch=1 n=f#5 v=80
30240 On ch=1 n=f5 v=102
30240 On ch=1 n=b4 v=102
30240 On ch=1 n=g#4 v=102
30480 Off ch=1 n=g#4 v=80
30480 Off ch=1 n=b4 v=80
30480 Off ch=1 n=f5 v=80
30720 On ch=1 n=a5 v=114
30720 On ch=1 n=f#5 v=114
30720 On ch=1 n=c#5 v=114
30720 On ch=1 n=a4 v=114
30960 Off ch=1 n=a4 v=80
30960 Off ch=1 n=c#5 v=80
30960 Off ch=1 n=f#5 v=80
30960 Off ch=1 n=a5 v=80
31200 On ch=1 n=e6 v=114
31200 On ch=1 n=b5 v=114
31200 On ch=1 n=g#5 v=114
31200 On ch=1 n=e5 v=114
31440 Off ch=1 n=e5 v=80
31440 Off ch=1 n=g#5 v=80
31440 Off ch=1 n=b5 v=80
31440 Off ch=1 n=e6 v=80
31680 On ch=1 n=e6 v=114
31680 On ch=1 n=c#6 v=114
31680 On ch=1 n=a5 v=114
31680 On ch=1 n=e5 v=114
32640 Off ch=1 n=e5 v=80
32640 Off ch=1 n=a5 v=80
32640 Off ch=1 n=c#6 v=80
32640 Off ch=1 n=e6 v=80
32640 On ch=1 n=f#6 v=114
32640 On ch=1 n=d6 v=114
32640 On ch=1 n=a5 v=114
32640 On ch=1 n=f#5 v=114
33120 Off ch=1 n=f#5 v=80
33120 Off ch=1 n=a5 v=80
33120 Off ch=1 n=d6 v=80
33120 Off ch=1 n=f#6 v=80
33120 On ch=1 n=g#6 v=114
33120 On ch=1 n=d6 v=114
33120 On ch=1 n=e6 v=114
33120 On ch=1 n=b5 v=114
33120 On ch=1 n=g#5 v=114
33600 Off ch=1 n=g#5 v=80
33600 Off ch=1 n=b5 v=80
33600 Off ch=1 n=e6 v=80
33600 Off ch=1 n=d6 v=80
33600 Off ch=1 n=g#6 v=80
33600 On ch=1 n=a6 v=114
33600 On ch=1 n=e6 v=114
33600 On ch=1 n=c#6 v=114
33600 On ch=1 n=a5 v=114
34080 Off ch=1 n=a5 v=80
34080 Off ch=1 n=c#6 v=80
34080 Off ch=1 n=e6 v=80
34080 Off ch=1 n=a6 v=80
34080 On ch=1 n=a#6 v=114
34080 On ch=1 n=f#6 v=114
34080 On ch=1 n=c#6 v=114
34080 On ch=1 n=a#5 v=114
34560 Off ch=1 n=a#5 v=80
34560 Off ch=1 n=c#6 v=80
34560 Off ch=1 n=f#6 v=80
34560 Off ch=1 n=a#6 v=80
34560 On ch=1 n=d6 v=114
34560 On ch=1 n=b5 v=114
34560 On ch=1 n=f#6 v=114
34560 On ch=1 n=b6 v=114
35040 Off ch=1 n=b6 v=80
35040 Off ch=1 n=f#6 v=80
35040 Off ch=1 n=b5 v=80
35040 Off ch=1 n=d6 v=80
35040 On ch=1 n=f#6 v=117
35040 On ch=1 n=c#6 v=117
35040 On ch=1 n=a#6 v=117
35040 On ch=1 n=c#7 v=117
35520 Off ch=1 n=c#7 v=80
35520 Off ch=1 n=a#6 v=80
35520 Off ch=1 n=c#6 v=80
35520 Off ch=1 n=f#6 v=80
35520 On ch=1 n=d7 v=120
35520 On ch=1 n=b6 v=120
35520 On ch=1 n=f#6 v=120
35520 On ch=1 n=d6 v=120
36000 Off ch=1 n=d6 v=80
36000 Off ch=1 n=f#6 v=80
36000 Off ch=1 n=b6 v=80
36000 Off ch=1 n=d7 v=80
36000 On ch=1 n=f#7 v=123
36000 On ch=1 n=d7 v=123
36000 On ch=1 n=b6 v=123
36000 On ch=1 n=f#6 v=123
36480 Off ch=1 n=f#6 v=80
36480 Off ch=1 n=b6 v=80
36480 Off ch=1 n=d7 v=80
36480 Off ch=1 n=f#7 v=80
36480 On ch=1 n=e7 v=127
36480 On ch=1 n=c#7 v=127
36480 On ch=1 n=e6 v=127
36960 Off ch=1 n=e6 v=80
36960 Off ch=1 n=c#7 v=80
36960 Off ch=1 n=e7 v=80
36960 On ch=1 n=g#6 v=102
36960 On ch=1 n=e6 v=102
36960 On ch=1 n=b5 v=102
36960 On ch=1 n=g#5 v=102
37440 Off ch=1 n=g#5 v=80
37440 Off ch=1 n=b5 v=80
37440 Off ch=1 n=e6 v=80
37440 Off ch=1 n=g#6 v=80
37440 On ch=1 n=a6 v=102
37440 On ch=1 n=e6 v=102
37440 On ch=1 n=c#6 v=102
37440 On ch=1 n=a5 v=102
37920 Off ch=1 n=a5 v=80
37920 Off ch=1 n=c#6 v=80
37920 Off ch=1 n=e6 v=80
37920 Off ch=1 n=a6 v=80
38400 On ch=1 n=a4 v=78
38880 Off ch=1 n=a4 v=80
38880 On ch=1 n=c5 v=78
39360 Off ch=1 n=c5 v=80
39360 On ch=1 n=f5 v=82
39840 Off ch=1 n=f5 v=80
39840 On ch=1 n=g5 v=86
40320 Off ch=1 n=g5 v=80
40320 On ch=1 n=a5 v=90
41040 On ch=1 n=a#4 v=78
41160 Off ch=1 n=a5 v=80
41160 On ch=1 n=g5 v=78
41200 Off ch=1 n=a#4 v=80
41280 Off ch=1 n=g5 v=80
41280 On ch=1 n=g5 v=78
41760 Off ch=1 n=g5 v=80
41760 On ch=1 n=f5 v=78
42240 Off ch=1 n=f5 v=80
42240 On ch=1 n=a4 v=78
42720 Off ch=1 n=a4 v=80
42720 On ch=1 n=c5 v=78
43200 Off ch=1 n=c5 v=80
43200 On ch=1 n=f5 v=78
43680 Off ch=1 n=f5 v=80
43680 On ch=1 n=f5 v=78
44160 Off ch=1 n=f5 v=80
44160 On ch=1 n=e5 v=78
44640 Off ch=1 n=e5 v=80
44640 On ch=1 n=d5 v=78
45120 Off ch=1 n=d5 v=80
45120 On ch=1 n=c5 v=78
45600 On ch=1 n=a#4 v=65
46080 Off ch=1 n=a#4 v=80
46080 Off ch=1 n=c5 v=80
46080 On ch=1 n=a4 v=78
46560 Off ch=1 n=a4 v=80
46560 On ch=1 n=c5 v=78
47040 Off ch=1 n=c5 v=80
47040 On ch=1 n=f5 v=82
47520 Off ch=1 n=f5 v=80
47520 On ch=1 n=g5 v=86
48000 Off ch=1 n=g5 v=80
48000 On ch=1 n=a5 v=90
48720 On ch=1 n=a#4 v=78
48840 Off ch=1 n=a5 v=80
48840 On ch=1 n=g5 v=78
48880 Off ch=1 n=a#4 v=80
48960 Off ch=1 n=g5 v=80
48960 On ch=1 n=g5 v=78
49440 Off ch=1 n=g5 v=80
49440 On ch=1 n=f5 v=78
49920 Off ch=1 n=f5 v=80
49920 On ch=1 n=a4 v=78
50400 Off ch=1 n=a4 v=80
50400 On ch=1 n=c5 v=78
50880 Off ch=1 n=c5 v=80
50880 On ch=1 n=f5 v=78
51360 Off ch=1 n=f5 v=80
51360 On ch=1 n=f5 v=78
51840 Off ch=1 n=f5 v=80
51840 On ch=1 n=e5 v=78
52320 Off ch=1 n=e5 v=80
52320 On ch=1 n=d5 v=78
52800 Off ch=1 n=d5 v=80
52800 On ch=1 n=c5 v=78
53760 Off ch=1 n=c5 v=80
53760 On ch=1 n=c5 v=78
54240 Off ch=1 n=c5 v=80
54240 On ch=1 n=d5 v=78
54720 Off ch=1 n=d5 v=80
54720 On ch=1 n=e5 v=82
55200 Off ch=1 n=e5 v=80
55200 On ch=1 n=f5 v=86
55680 Off ch=1 n=f5 v=80
55680 On ch=1 n=g5 v=90
56520 Off ch=1 n=g5 v=80
56520 On ch=1 n=a5 v=90
56640 Off ch=1 n=a5 v=80
56640 On ch=1 n=g5 v=90
57120 Off ch=1 n=g5 v=80
57120 On ch=1 n=f5 v=90
57600 Off ch=1 n=f5 v=80
57600 On ch=1 n=f5 v=78
58080 Off ch=1 n=f5 v=80
58080 On ch=1 n=g5 v=78
58560 Off ch=1 n=g5 v=80
58560 On ch=1 n=a5 v=82
59040 Off ch=1 n=a5 v=80
59040 On ch=1 n=a#5 v=86
59520 Off ch=1 n=a#5 v=80
59520 On ch=1 n=c6 v=90
60360 Off ch=1 n=c6 v=80
60360 On ch=1 n=d6 v=90
60480 Off ch=1 n=d6 v=80
60480 On ch=1 n=c6 v=90
60960 Off ch=1 n=c6 v=80
60960 On ch=1 n=a#5 v=90
61440 Off ch=1 n=a#5 v=80
61440 On ch=1 n=d6 v=90
61920 Off ch=1 n=d6 v=80
61920 On ch=1 n=c6 v=87
62400 Off ch=1 n=c6 v=80
62400 On ch=1 n=a#5 v=84
62880 Off ch=1 n=a#5 v=80
62880 On ch=1 n=a5 v=81
63360 Off ch=1 n=a5 v=80
63360 On ch=1 n=g5 v=78
63600 Off ch=1 n=g5 v=80
63600 On ch=1 n=a5 v=78
63660 Off ch=1 n=a5 v=80
63660 On ch=1 n=g5 v=78
63720 Off ch=1 n=g5 v=80
63720 On ch=1 n=f5 v=78
63780 Off ch=1 n=f5 v=80
63780 On ch=1 n=g5 v=78
63840 Off ch=1 n=g5 v=80
63840 On ch=1 n=a5 v=78
64200 Off ch=1 n=a5 v=80
64200 On ch=1 n=f5 v=78
64320 Off ch=1 n=f5 v=80
64320 On ch=1 n=a5 v=78
64800 Off ch=1 n=a5 v=80
64800 On ch=1 n=g5 v=78
65280 Off ch=1 n=g5 v=80
65280 On ch=1 n=a#5 v=65
65760 Off ch=1 n=a#5 v=80
65760 On ch=1 n=g#5 v=65
66240 Off ch=1 n=g#5 v=80
66240 On ch=1 n=f#5 v=65
66720 Off ch=1 n=f#5 v=80
66720 On ch=1 n=f5 v=65
67200 Off ch=1 n=f5 v=80
67200 On ch=1 n=e5 v=65
67680 Off ch=1 n=e5 v=80
67680 On ch=1 n=f5 v=63
68160 Off ch=1 n=f5 v=80
68160 On ch=1 n=f#5 v=61
68640 Off ch=1 n=f#5 v=80
68640 On ch=1 n=g5 v=59
69060 On ch=1 n=c5 v=65
69120 Off ch=1 n=c5 v=80
69120 Off ch=1 n=g5 v=80
69120 On ch=1 n=a4 v=78
69600 Off ch=1 n=a4 v=80
69600 On ch=1 n=c5 v=78
70080 Off ch=1 n=c5 v=80
70080 On ch=1 n=f5 v=82
70560 Off ch=1 n=f5 v=80
70560 On ch=1 n=g5 v=86
71040 Off ch=1 n=g5 v=80
71040 On ch=1 n=a5 v=90
71760 On ch=1 n=a#4 v=78
71880 Off ch=1 n=a5 v=80
71880 On ch=1 n=g5 v=78
71920 Off ch=1 n=a#4 v=80
72000 Off ch=1 n=g5 v=80
72000 On ch=1 n=g5 v=78
72480 Off ch=1 n=g5 v=80
72480 On ch=1 n=f5 v=78
72960 Off ch=1 n=f5 v=80
72960 On ch=1 n=a4 v=78
73440 Off ch=1 n=a4 v=80
73440 On ch=1 n=c5 v=78
73920 Off ch=1 n=c5 v=80
73920 On ch=1 n=f5 v=78
74400 Off ch=1 n=f5 v=80
74400 On ch=1 n=f5 v=78
74880 Off ch=1 n=f5 v=80
74880 On ch=1 n=e5 v=78
75360 Off ch=1 n=e5 v=80
75360 On ch=1 n=d5 v=78
75840 Off ch=1 n=d5 v=80
75840 On ch=1 n=c5 v=78
76800 Off ch=1 n=c5 v=80
76800 On ch=1 n=c5 v=78
77280 Off ch=1 n=c5 v=80
77280 On ch=1 n=d5 v=78
77760 Off ch=1 n=d5 v=80
77760 On ch=1 n=e5 v=82
78240 Off ch=1 n=e5 v=80
78240 On ch=1 n=f5 v=86
78720 Off ch=1 n=f5 v=80
78720 On ch=1 n=g5 v=90
79560 Off ch=1 n=g5 v=80
79560 On ch=1 n=a5 v=90
79680 Off ch=1 n=a5 v=80
79680 On ch=1 n=g5 v=90
80160 Off ch=1 n=g5 v=80
80160 On ch=1 n=f5 v=90
80640 Off ch=1 n=f5 v=80
80640 On ch=1 n=f5 v=78
81120 Off ch=1 n=f5 v=80
81120 On ch=1 n=g5 v=78
81600 Off ch=1 n=g5 v=80
81600 On ch=1 n=a5 v=82
82080 Off ch=1 n=a5 v=80
82080 On ch=1 n=a#5 v=86
82560 Off ch=1 n=a#5 v=80
82560 On ch=1 n=c6 v=90
83400 Off ch=1 n=c6 v=80
83400 On ch=1 n=d6 v=90
83520 Off ch=1 n=d6 v=80
83520 On ch=1 n=c6 v=90
84000 Off ch=1 n=c6 v=80
84000 On ch=1 n=a#5 v=90
84480 Off ch=1 n=a#5 v=80
84480 On ch=1 n=f6 v=65
84960 Off ch=1 n=f6 v=80
84960 On ch=1 n=d#6 v=65
85440 Off ch=1 n=d#6 v=80
85440 On ch=1 n=c#6 v=65
86160 Off ch=1 n=c#6 v=80
86160 On ch=1 n=c6 v=65
86400 Off ch=1 n=c6 v=80
86400 On ch=1 n=c6 v=65
86880 Off ch=1 n=c6 v=80
86880 On ch=1 n=a#5 v=65
87360 Off ch=1 n=a#5 v=80
87360 On ch=1 n=g#5 v=65
88200 Off ch=1 n=g#5 v=80
88200 On ch=1 n=g#4 v=65
88320 Off ch=1 n=g#4 v=80
88320 On ch=1 n=a4 v=65
88800 Off ch=1 n=a4 v=80
88800 On ch=1 n=c5 v=68
89280 Off ch=1 n=c5 v=80
89280 On ch=1 n=f5 v=71
89760 Off ch=1 n=f5 v=80
89760 On ch=1 n=g5 v=74
90240 Off ch=1 n=g5 v=80
90240 On ch=1 n=a5 v=78
90960 Off ch=1 n=a5 v=80
90960 On ch=1 n=g5 v=72
91200 Off ch=1 n=g5 v=80
91200 On ch=1 n=f5 v=65
91680 Off ch=1 n=f5 v=80
92160 On ch=1 n=f4 v=102
92160 On ch=1 n=d4 v=102
92280 Off ch=1 n=d4 v=80
92280 Off ch=1 n=f4 v=80
92640 On ch=1 n=e4 v=102
92640 On ch=1 n=g4 v=102
92640 On ch=1 n=c5 v=102
92760 Off ch=1 n=c5 v=80
92760 Off ch=1 n=g4 v=80
92760 Off ch=1 n=e4 v=80
93120 On ch=1 n=f4 v=102
93120 On ch=1 n=a4 v=102
93120 On ch=1 n=c5 v=102
93840 Off ch=1 n=c5 v=80
93840 Off ch=1 n=a4 v=80
93840 Off ch=1 n=f4 v=80
94080 On ch=1 n=f4 v=102
94080 On ch=1 n=a#4 v=102
94080 On ch=1 n=d5 v=102
94560 Off ch=1 n=d5 v=80
94560 Off ch=1 n=a#4 v=80
94560 Off ch=1 n=f4 v=80
94560 On ch=1 n=a#4 v=102
94560 On ch=1 n=c5 v=102
94560 On ch=1 n=e5 v=102
95040 Off ch=1 n=e5 v=80
95040 Off ch=1 n=c5 v=80
95040 Off ch=1 n=a#4 v=80
95040 On ch=1 n=a4 v=102
95040 On ch=1 n=c5 v=102
95040 On ch=1 n=f5 v=102
95520 Off ch=1 n=f5 v=80
95520 Off ch=1 n=c5 v=80
95520 Off ch=1 n=a4 v=80
95520 On ch=1 n=a4 v=105
95520 On ch=1 n=d5 v=105
95520 On ch=1 n=f#5 v=105
96000 Off ch=1 n=f#5 v=80
96000 Off ch=1 n=d5 v=80
96000 Off ch=1 n=a4 v=80
96000 On ch=1 n=g4 v=108
96000 On ch=1 n=d5 v=108
96000 On ch=1 n=g5 v=108
96480 Off ch=1 n=g5 v=80
96480 Off ch=1 n=d5 v=80
96480 Off ch=1 n=g4 v=80
96480 On ch=1 n=d5 v=111
96480 On ch=1 n=f#5 v=111
96480 On ch=1 n=a5 v=111
96960 Off ch=1 n=a5 v=80
96960 Off ch=1 n=f#5 v=80
96960 Off ch=1 n=d5 v=80
96960 On ch=1 n=d5 v=114
96960 On ch=1 n=g5 v=114
96960 On ch=1 n=a#5 v=114
97440 Off ch=1 n=a#5 v=80
97440 Off ch=1 n=g5 v=80
97440 Off ch=1 n=d5 v=80
97440 On ch=1 n=d5 v=117
97440 On ch=1 n=a#5 v=117
97440 On ch=1 n=d6 v=117
97920 Off ch=1 n=d6 v=80
97920 Off ch=1 n=a#5 v=80
97920 Off ch=1 n=d5 v=80
97920 On ch=1 n=c5 v=120
97920 On ch=1 n=a5 v=120
97920 On ch=1 n=c6 v=120
98400 Off ch=1 n=c6 v=80
98400 Off ch=1 n=a5 v=80
98400 Off ch=1 n=c5 v=80
98400 On ch=1 n=g4 v=102
98400 On ch=1 n=c5 v=102
98400 On ch=1 n=e5 v=102
98880 Off ch=1 n=e5 v=80
98880 Off ch=1 n=c5 v=80
98880 Off ch=1 n=g4 v=80
98880 On ch=1 n=a4 v=102
98880 On ch=1 n=c5 v=102
98880 On ch=1 n=f5 v=102
99360 Off ch=1 n=f5 v=80
99360 Off ch=1 n=c5 v=80
99360 Off ch=1 n=a4 v=80
99840 On ch=1 n=a5 v=127
100320 Off ch=1 n=a5 v=80
100320 On ch=1 n=a#5 v=102
100320 On ch=1 n=a5 v=102
100800 Off ch=1 n=a5 v=80
100800 Off ch=1 n=a#5 v=80
100800 On ch=1 n=a#5 v=102
100800 On ch=1 n=g5 v=102
101280 Off ch=1 n=g5 v=80
101280 Off ch=1 n=a#5 v=80
101280 On ch=1 n=g6 v=102
101440 Off ch=1 n=g6 v=80
101440 On ch=1 n=a6 v=102
101600 Off ch=1 n=a6 v=80
101600 On ch=1 n=a#6 v=102
101760 Off ch=1 n=a#6 v=80
101760 On ch=1 n=a6 v=102
101760 On ch=1 n=e6 v=102
102600 Off ch=1 n=e6 v=80
102600 Off ch=1 n=a6 v=80
102600 On ch=1 n=g6 v=102
102600 On ch=1 n=e6 v=102
102600 On ch=1 n=a5 v=102
102720 Off ch=1 n=a5 v=80
102720 Off ch=1 n=e6 v=80
102720 Off ch=1 n=g6 v=80
102720 On ch=1 n=g6 v=120
102720 On ch=1 n=c6 v=120
102720 On ch=1 n=a5 v=120
102960 Off ch=1 n=a5 v=80
102960 Off ch=1 n=c6 v=80
102960 Off ch=1 n=g6 v=80
103200 On ch=1 n=f#6 v=102
103200 On ch=1 n=c6 v=102
103200 On ch=1 n=a5 v=102
103680 Off ch=1 n=a5 v=80
103680 Off ch=1 n=c6 v=80
103680 Off ch=1 n=f#6 v=80
103680 On ch=1 n=g5 v=127
104160 Off ch=1 n=g5 v=80
104160 On ch=1 n=g#5 v=102
104160 On ch=1 n=g5 v=102
104640 Off ch=1 n=g5 v=80
104640 Off ch=1 n=g#5 v=80
104640 On ch=1 n=g#5 v=102
104640 On ch=1 n=f5 v=102
105120 Off ch=1 n=f5 v=80
105120 Off ch=1 n=g#5 v=80
105120 On ch=1 n=f6 v=102
105280 Off ch=1 n=f6 v=80
105280 On ch=1 n=g6 v=102
105440 Off ch=1 n=g6 v=80
105440 On ch=1 n=g#6 v=102
105600 Off ch=1 n=g#6 v=80
105600 On ch=1 n=d6 v=102
105600 On ch=1 n=g6 v=102
106440 On ch=1 n=f6 v=102
106440 On ch=1 n=d6 v=102
106440 On ch=1 n=g5 v=102
106500 Off ch=1 n=g6 v=80
106500 Off ch=1 n=d6 v=80
106560 Off ch=1 n=f6 v=80
106560 Off ch=1 n=d6 v=80
106560 Off ch=1 n=g5 v=80
106560 On ch=1 n=f6 v=120
106560 On ch=1 n=a#5 v=120
106560 On ch=1 n=g5 v=120
106800 Off ch=1 n=g5 v=80
106800 Off ch=1 n=a#5 v=80
106800 Off ch=1 n=f6 v=80
107040 On ch=1 n=e6 v=102
107040 On ch=1 n=a#5 v=102
107040 On ch=1 n=g5 v=102
107280 Off ch=1 n=g5 v=80
107280 Off ch=1 n=a#5 v=80
107280 Off ch=1 n=e6 v=80
107520 On ch=1 n=a5 v=114
107520 On ch=1 n=f5 v=114
107520 On ch=1 n=c5 v=114
107760 Off ch=1 n=c5 v=80
107760 Off ch=1 n=f5 v=80
107760 Off ch=1 n=a5 v=80
108000 On ch=1 n=c5 v=114
108000 On ch=1 n=g5 v=114
108000 On ch=1 n=c6 v=114
108240 Off ch=1 n=c6 v=80
108240 Off ch=1 n=g5 v=80
108240 Off ch=1 n=c5 v=80
108480 On ch=1 n=f5 v=114
108480 On ch=1 n=c6 v=114
108480 On ch=1 n=f6 v=114
109440 Off ch=1 n=f6 v=80
109440 Off ch=1 n=c6 v=80
109440 Off ch=1 n=f5 v=80
109440 On ch=1 n=e6 v=127
109440 On ch=1 n=a#5 v=127
109440 On ch=1 n=e5 v=127
109920 Off ch=1 n=e5 v=80
109920 Off ch=1 n=a#5 v=80
109920 Off ch=1 n=e6 v=80
109920 On ch=1 n=d5 v=127
109920 On ch=1 n=b5 v=127
109920 On ch=1 n=d6 v=127
110400 Off ch=1 n=d6 v=80
110400 Off ch=1 n=b5 v=80
110400 Off ch=1 n=d5 v=80
110400 On ch=1 n=d6 v=127
110400 On ch=1 n=f5 v=127
110400 On ch=1 n=d5 v=127
110880 Off ch=1 n=d5 v=80
110880 Off ch=1 n=f5 v=80
110880 Off ch=1 n=d6 v=80
110880 On ch=1 n=c6 v=127
110880 On ch=1 n=d#5 v=127
110880 On ch=1 n=f5 v=127
111240 Off ch=1 n=f5 v=80
111240 On ch=1 n=f#5 v=127
111360 Off ch=1 n=d#5 v=80
111360 Off ch=1 n=c6 v=80
111360 Off ch=1 n=f#5 v=80
111360 On ch=1 n=c6 v=127
111360 On ch=1 n=g5 v=127
111360 On ch=1 n=d5 v=127
111840 Off ch=1 n=d5 v=80
111840 Off ch=1 n=g5 v=80
111840 Off ch=1 n=c6 v=80
111840 On ch=1 n=d5 v=127
111840 On ch=1 n=g5 v=127
111840 On ch=1 n=a#5 v=127
112320 Off ch=1 n=a#5 v=80
112320 Off ch=1 n=g5 v=80
112320 Off ch=1 n=d5 v=80
112320 On ch=1 n=a5 v=127
112320 On ch=1 n=f5 v=127
112320 On ch=1 n=d5 v=127
112800 Off ch=1 n=d5 v=80
112800 Off ch=1 n=f5 v=80
112800 Off ch=1 n=a5 v=80
112800 On ch=1 n=f5 v=127
112800 On ch=1 n=d5 v=127
112800 On ch=1 n=g5 v=127
113280 Off ch=1 n=g5 v=80
113280 Off ch=1 n=d5 v=80
113280 Off ch=1 n=f5 v=80
113280 On ch=1 n=a5 v=127
113280 On ch=1 n=f5 v=127
113280 On ch=1 n=c5 v=127
113520 Off ch=1 n=c5 v=80
113520 Off ch=1 n=f5 v=80
113520 Off ch=1 n=a5 v=80
113760 On ch=1 n=a#4 v=127
113760 On ch=1 n=e5 v=127
113760 On ch=1 n=g5 v=127
114120 Off ch=1 n=g5 v=80
114120 Off ch=1 n=e5 v=80
114120 Off ch=1 n=a#4 v=80
114240 On ch=1 n=f5 v=127
114240 On ch=1 n=c5 v=127
114240 On ch=1 n=a4 v=127
114720 Off ch=1 n=a4 v=80
114720 Off ch=1 n=c5 v=80
114720 Off ch=1 n=f5 v=80
115680 On ch=1 n=g#4 v=90
116400 Off ch=1 n=g#4 v=80
116400 On ch=1 n=f#4 v=78
116640 Off ch=1 n=f#4 v=80
116640 On ch=1 n=f4 v=78
116640 On ch=1 n=c#5 v=90
116880 Off ch=1 n=f4 v=80
116880 On ch=1 n=d#4 v=78
117120 Off ch=1 n=d#4 v=80
117120 On ch=1 n=c#4 v=78
117360 Off ch=1 n=c#5 v=80
117360 On ch=1 n=c5 v=78
117600 Off ch=1 n=c#4 v=80
117600 Off ch=1 n=c5 v=80
117600 On ch=1 n=a#4 v=78
117600 On ch=1 n=f#5 v=90
117840 Off ch=1 n=a#4 v=80
117840 On ch=1 n=g#4 v=78
118080 Off ch=1 n=g#4 v=80
118320 Off ch=1 n=f#5 v=80
118320 On ch=1 n=f5 v=78
118560 Off ch=1 n=f5 v=80
118560 On ch=1 n=d#5 v=78
118560 On ch=1 n=a#5 v=90
118800 Off ch=1 n=d#5 v=80
118800 On ch=1 n=c#5 v=78
119040 Off ch=1 n=c#5 v=80
119040 On ch=1 n=c5 v=78
119280 Off ch=1 n=a#5 v=80
119280 On ch=1 n=g#5 v=78
119520 Off ch=1 n=c5 v=80
119520 Off ch=1 n=g#5 v=80
119520 On ch=1 n=g5 v=78
119520 On ch=1 n=d#6 v=78
119760 Off ch=1 n=g5 v=80
119760 On ch=1 n=f#5 v=78
120000 Off ch=1 n=d#6 v=80
120000 Off ch=1 n=f#5 v=80
120000 On ch=1 n=f5 v=78
120000 On ch=1 n=f6 v=90
120240 Off ch=1 n=f6 v=80
120240 On ch=1 n=c#6 v=87
120480 Off ch=1 n=f5 v=80
120480 Off ch=1 n=c#6 v=80
120480 On ch=1 n=c6 v=84
120480 On ch=1 n=g5 v=84
120480 On ch=1 n=c#5 v=84
120720 Off ch=1 n=c6 v=80
120720 On ch=1 n=a#5 v=81
120960 Off ch=1 n=g5 v=80
120960 Off ch=1 n=c#5 v=80
120960 Off ch=1 n=a#5 v=80
120960 On ch=1 n=g#5 v=78
120960 On ch=1 n=c5 v=78
121440 Off ch=1 n=c5 v=80
121440 Off ch=1 n=g#5 v=80
121440 On ch=1 n=g#4 v=90
122160 Off ch=1 n=g#4 v=80
122160 On ch=1 n=f#4 v=78
122400 Off ch=1 n=f#4 v=80
122400 On ch=1 n=f4 v=78
122400 On ch=1 n=c#5 v=90
122640 Off ch=1 n=f4 v=80
122640 On ch=1 n=d#4 v=78
122880 Off ch=1 n=d#4 v=80
122880 On ch=1 n=c#4 v=78
123120 Off ch=1 n=c#5 v=80
123120 On ch=1 n=c5 v=78
123360 Off ch=1 n=c#4 v=80
123360 Off ch=1 n=c5 v=80
123360 On ch=1 n=a#4 v=78
123360 On ch=1 n=f#5 v=90
123600 Off ch=1 n=a#4 v=80
123600 On ch=1 n=g#4 v=78
123840 Off ch=1 n=g#4 v=80
124080 Off ch=1 n=f#5 v=80
124080 On ch=1 n=f5 v=78
124320 Off ch=1 n=f5 v=80
124320 On ch=1 n=d#5 v=78
124320 On ch=1 n=a#5 v=90
124560 Off ch=1 n=d#5 v=80
124560 On ch=1 n=c#5 v=78
124800 Off ch=1 n=c#5 v=80
124800 On ch=1 n=c5 v=78
125040 Off ch=1 n=a#5 v=80
125040 On ch=1 n=g#5 v=78
125280 Off ch=1 n=c5 v=80
125280 Off ch=1 n=g#5 v=80
125280 On ch=1 n=g5 v=78
125280 On ch=1 n=d#6 v=78
125520 Off ch=1 n=g5 v=80
125520 On ch=1 n=f#5 v=78
125760 Off ch=1 n=d#6 v=80
125760 Off ch=1 n=f#5 v=80
125760 On ch=1 n=f5 v=78
125760 On ch=1 n=f6 v=90
126000 Off ch=1 n=f6 v=80
126000 On ch=1 n=c#6 v=87
126240 Off ch=1 n=f5 v=80
126240 Off ch=1 n=c#6 v=80
126240 On ch=1 n=c6 v=84
126240 On ch=1 n=g5 v=84
126240 On ch=1 n=c#5 v=84
126480 Off ch=1 n=c6 v=80
126480 On ch=1 n=a#5 v=81
126720 Off ch=1 n=g5 v=80
126720 Off ch=1 n=c#5 v=80
126720 Off ch=1 n=a#5 v=80
126720 On ch=1 n=c5 v=78
126720 On ch=1 n=g#5 v=78
127200 Off ch=1 n=g#5 v=80
127200 Off ch=1 n=c5 v=80
127200 On ch=1 n=b3 v=90
127920 Off ch=1 n=b3 v=80
127920 On ch=1 n=a#3 v=78
128160 Off ch=1 n=a#3 v=80
128160 On ch=1 n=f4 v=90
128160 On ch=1 n=a3 v=78
128400 Off ch=1 n=a3 v=80
128400 On ch=1 n=g#3 v=78
128640 Off ch=1 n=g#3 v=80
128880 Off ch=1 n=f4 v=80
128880 On ch=1 n=d#4 v=78
129120 Off ch=1 n=d#4 v=80
129120 On ch=1 n=d4 v=78
129120 On ch=1 n=a#4 v=90
129360 Off ch=1 n=d4 v=80
129360 On ch=1 n=c#4 v=78
129600 Off ch=1 n=c#4 v=80
129600 On ch=1 n=c4 v=78
129840 Off ch=1 n=a#4 v=80
129840 On ch=1 n=g#4 v=78
130080 Off ch=1 n=c4 v=80
130080 Off ch=1 n=g#4 v=80
130080 On ch=1 n=g4 v=78
130080 On ch=1 n=d#5 v=90
130320 Off ch=1 n=g4 v=80
130320 On ch=1 n=f#4 v=78
130560 Off ch=1 n=d#5 v=80
130560 Off ch=1 n=f#4 v=80
130560 On ch=1 n=c#5 v=78
130560 On ch=1 n=f4 v=78
130800 Off ch=1 n=f4 v=80
131040 Off ch=1 n=c#5 v=80
131040 On ch=1 n=b4 v=90
131760 Off ch=1 n=b4 v=80
131760 On ch=1 n=a#4 v=78
132000 Off ch=1 n=a#4 v=80
132000 On ch=1 n=a4 v=78
132000 On ch=1 n=f5 v=90
132240 Off ch=1 n=a4 v=80
132240 On ch=1 n=g#4 v=78
132480 Off ch=1 n=g#4 v=80
132480 On ch=1 n=g4 v=78
132720 Off ch=1 n=f5 v=80
132720 On ch=1 n=d#5 v=78
132960 Off ch=1 n=g4 v=80
132960 Off ch=1 n=d#5 v=80
132960 On ch=1 n=d5 v=78
132960 On ch=1 n=a#5 v=90
133200 Off ch=1 n=d5 v=80
133200 On ch=1 n=c#5 v=78
133440 Off ch=1 n=c#5 v=80
133440 On ch=1 n=c5 v=78
133680 Off ch=1 n=a#5 v=80
133680 On ch=1 n=g#5 v=78
133920 Off ch=1 n=c5 v=80
133920 Off ch=1 n=g#5 v=80
133920 On ch=1 n=g5 v=78
133920 On ch=1 n=d#6 v=90
134160 Off ch=1 n=g5 v=80
134160 On ch=1 n=f#5 v=78
134400 Off ch=1 n=f#5 v=80
134400 On ch=1 n=f5 v=83
134640 Off ch=1 n=d#6 v=80
134640 Off ch=1 n=f5 v=80
134640 On ch=1 n=f#5 v=83
134640 On ch=1 n=d#5 v=83
134880 Off ch=1 n=d#5 v=80
134880 Off ch=1 n=f#5 v=80
134880 On ch=1 n=c#5 v=88
134880 On ch=1 n=g#5 v=88
135120 Off ch=1 n=c#5 v=80
135120 On ch=1 n=c5 v=88
135360 Off ch=1 n=c5 v=80
135360 On ch=1 n=a#4 v=93
135600 Off ch=1 n=g#5 v=80
135600 Off ch=1 n=a#4 v=80
135600 On ch=1 n=g#5 v=93
135840 Off ch=1 n=g#5 v=80
135840 On ch=1 n=c#6 v=98
135840 On ch=1 n=f#5 v=98
136080 Off ch=1 n=f#5 v=80
136080 On ch=1 n=f5 v=98
136320 Off ch=1 n=f5 v=80
136320 On ch=1 n=d#5 v=102
136560 Off ch=1 n=c#6 v=80
136560 Off ch=1 n=d#5 v=80
136560 On ch=1 n=c#5 v=102
136560 On ch=1 n=f5 v=102
136800 Off ch=1 n=f5 v=80
136800 Off ch=1 n=c#5 v=80
136800 On ch=1 n=c5 v=102
136800 On ch=1 n=f#5 v=102
137040 On ch=1 n=a#4 v=102
137280 Off ch=1 n=a#4 v=80
137280 Off ch=1 n=f#5 v=80
137280 On ch=1 n=a4 v=94
137280 On ch=1 n=f5 v=94
137760 Off ch=1 n=f5 v=80
137760 Off ch=1 n=c5 v=80
137760 Off ch=1 n=a4 v=80
137760 On ch=1 n=f#5 v=90
137760 On ch=1 n=c5 v=90
137760 On ch=1 n=g#4 v=90
138720 Off ch=1 n=g#4 v=80
138720 Off ch=1 n=c5 v=80
138720 Off ch=1 n=f#5 v=80
138720 On ch=1 n=g#4 v=90
139440 Off ch=1 n=g#4 v=80
139440 On ch=1 n=f#4 v=78
139680 Off ch=1 n=f#4 v=80
139680 On ch=1 n=f4 v=78
139680 On ch=1 n=c#5 v=90
139920 Off ch=1 n=f4 v=80
139920 On ch=1 n=d#4 v=78
140160 Off ch=1 n=d#4 v=80
140160 On ch=1 n=c#4 v=78
140400 Off ch=1 n=c#5 v=80
140400 On ch=1 n=c5 v=78
140640 Off ch=1 n=c#4 v=80
140640 Off ch=1 n=c5 v=80
140640 On ch=1 n=a#4 v=78
140640 On ch=1 n=f#5 v=90
140880 Off ch=1 n=a#4 v=80
140880 On ch=1 n=g#4 v=78
141120 Off ch=1 n=g#4 v=80
141360 Off ch=1 n=f#5 v=80
141360 On ch=1 n=f5 v=78
141600 Off ch=1 n=f5 v=80
141600 On ch=1 n=d#5 v=78
141600 On ch=1 n=a#5 v=90
141840 Off ch=1 n=d#5 v=80
141840 On ch=1 n=c#5 v=78
142080 Off ch=1 n=c#5 v=80
142080 On ch=1 n=c5 v=78
142320 Off ch=1 n=a#5 v=80
142320 On ch=1 n=g#5 v=78
142560 Off ch=1 n=c5 v=80
142560 Off ch=1 n=g#5 v=80
142560 On ch=1 n=g5 v=78
142560 On ch=1 n=d#6 v=78
142800 Off ch=1 n=g5 v=80
142800 On ch=1 n=f#5 v=78
143040 Off ch=1 n=d#6 v=80
143040 Off ch=1 n=f#5 v=80
143040 On ch=1 n=f5 v=78
143040 On ch=1 n=f6 v=90
143280 Off ch=1 n=f6 v=80
143280 On ch=1 n=c#6 v=87
143520 Off ch=1 n=f5 v=80
143520 Off ch=1 n=c#6 v=80
143520 On ch=1 n=c6 v=84
143520 On ch=1 n=g5 v=84
143520 On ch=1 n=c#5 v=84
143760 Off ch=1 n=c6 v=80
143760 On ch=1 n=a#5 v=81
144000 Off ch=1 n=g5 v=80
144000 Off ch=1 n=c#5 v=80
144000 Off ch=1 n=a#5 v=80
144000 On ch=1 n=c5 v=78
144000 On ch=1 n=g#5 v=78
144480 Off ch=1 n=g#5 v=80
144480 Off ch=1 n=c5 v=80
144480 On ch=1 n=b3 v=90
145200 Off ch=1 n=b3 v=80
145200 On ch=1 n=a#3 v=78
145440 Off ch=1 n=a#3 v=80
145440 On ch=1 n=f4 v=90
145440 On ch=1 n=a3 v=78
145680 Off ch=1 n=a3 v=80
145680 On ch=1 n=g#3 v=78
145920 Off ch=1 n=g#3 v=80
146160 Off ch=1 n=f4 v=80
146160 On ch=1 n=d#4 v=78
146400 Off ch=1 n=d#4 v=80
146400 On ch=1 n=d4 v=78
146400 On ch=1 n=a#4 v=90
146640 Off ch=1 n=d4 v=80
146640 On ch=1 n=c#4 v=78
146880 Off ch=1 n=c#4 v=80
146880 On ch=1 n=c4 v=78
147120 Off ch=1 n=a#4 v=80
147120 On ch=1 n=g#4 v=78
147360 Off ch=1 n=c4 v=80
147360 Off ch=1 n=g#4 v=80
147360 On ch=1 n=g4 v=78
147360 On ch=1 n=d#5 v=90
147600 Off ch=1 n=g4 v=80
147600 On ch=1 n=f#4 v=78
147840 Off ch=1 n=d#5 v=80
147840 Off ch=1 n=f#4 v=80
147840 On ch=1 n=c#5 v=78
147840 On ch=1 n=f4 v=78
148080 Off ch=1 n=f4 v=80
148320 Off ch=1 n=c#5 v=80
148320 On ch=1 n=b4 v=90
149040 Off ch=1 n=b4 v=80
149040 On ch=1 n=a#4 v=78
149280 Off ch=1 n=a#4 v=80
149280 On ch=1 n=a4 v=78
149280 On ch=1 n=f5 v=90
149520 Off ch=1 n=a4 v=80
149520 On ch=1 n=g#4 v=78
149760 Off ch=1 n=g#4 v=80
149760 On ch=1 n=g4 v=78
150000 Off ch=1 n=f5 v=80
150000 On ch=1 n=d#5 v=78
150240 Off ch=1 n=g4 v=80
150240 Off ch=1 n=d#5 v=80
150240 On ch=1 n=d5 v=78
150240 On ch=1 n=a#5 v=90
150480 Off ch=1 n=d5 v=80
150480 On ch=1 n=c#5 v=78
150720 Off ch=1 n=c#5 v=80
150720 On ch=1 n=c5 v=78
150960 Off ch=1 n=a#5 v=80
150960 On ch=1 n=g#5 v=78
151200 Off ch=1 n=c5 v=80
151200 Off ch=1 n=g#5 v=80
151200 On ch=1 n=g5 v=78
151200 On ch=1 n=d#6 v=90
151440 Off ch=1 n=g5 v=80
151440 On ch=1 n=f#5 v=78
151680 Off ch=1 n=f#5 v=80
151680 On ch=1 n=f5 v=78
151920 Off ch=1 n=d#6 v=80
151920 Off ch=1 n=f5 v=80
151920 On ch=1 n=f#5 v=78
151920 On ch=1 n=d#5 v=78
152160 Off ch=1 n=d#5 v=80
152160 Off ch=1 n=f#5 v=80
152160 On ch=1 n=c#5 v=78
152160 On ch=1 n=g#5 v=78
152400 Off ch=1 n=c#5 v=80
152400 On ch=1 n=c5 v=78
152640 Off ch=1 n=c5 v=80
152640 On ch=1 n=a#4 v=78
152880 Off ch=1 n=g#5 v=80
152880 Off ch=1 n=a#4 v=80
152880 On ch=1 n=g#5 v=78
153120 Off ch=1 n=g#5 v=80
153120 On ch=1 n=c#6 v=78
153120 On ch=1 n=f#5 v=78
153360 Off ch=1 n=f#5 v=80
153360 On ch=1 n=f5 v=78
153600 Off ch=1 n=f5 v=80
153600 On ch=1 n=d#5 v=84
153840 Off ch=1 n=c#6 v=80
153840 Off ch=1 n=d#5 v=80
153840 On ch=1 n=c#5 v=84
153840 On ch=1 n=f5 v=84
154080 Off ch=1 n=f5 v=80
154080 Off ch=1 n=c#5 v=80
154080 On ch=1 n=c5 v=90
154080 On ch=1 n=f#5 v=90
154320 On ch=1 n=a#4 v=90
154560 Off ch=1 n=a#4 v=80
154560 Off ch=1 n=f#5 v=80
154560 On ch=1 n=a4 v=96
154560 On ch=1 n=f5 v=96
155040 Off ch=1 n=f5 v=80
155040 Off ch=1 n=c5 v=80
155040 Off ch=1 n=a4 v=80
155040 On ch=1 n=d#5 v=98
155040 On ch=1 n=c5 v=98
155040 On ch=1 n=f4 v=98
155520 Off ch=1 n=f4 v=80
155520 Off ch=1 n=c5 v=80
155520 Off ch=1 n=d#5 v=80
155520 On ch=1 n=f4 v=102
155520 On ch=1 n=a#4 v=102
155520 On ch=1 n=c#5 v=102
155760 Off ch=1 n=c#5 v=80
155760 Off ch=1 n=a#4 v=80
155760 Off ch=1 n=f4 v=80
156000 On ch=1 n=c5 v=102
156000 On ch=1 n=d#5 v=102
156000 On ch=1 n=g#5 v=102
156240 Off ch=1 n=g#5 v=80
156240 Off ch=1 n=d#5 v=80
156240 Off ch=1 n=c5 v=80
156480 On ch=1 n=c#5 v=102
156480 On ch=1 n=f5 v=102
156480 On ch=1 n=g#5 v=102
157440 Off ch=1 n=g#5 v=80
157440 Off ch=1 n=f5 v=80
157440 Off ch=1 n=c#5 v=80
157440 On ch=1 n=c#5 v=102
157440 On ch=1 n=f#5 v=102
157440 On ch=1 n=a#5 v=102
157920 Off ch=1 n=a#5 v=80
157920 Off ch=1 n=f#5 v=80
157920 Off ch=1 n=c#5 v=80
157920 On ch=1 n=f#5 v=102
157920 On ch=1 n=g#5 v=102
157920 On ch=1 n=c6 v=102
158400 Off ch=1 n=c6 v=80
158400 Off ch=1 n=g#5 v=80
158400 Off ch=1 n=f#5 v=80
158400 On ch=1 n=f5 v=102
158400 On ch=1 n=g#5 v=102
158400 On ch=1 n=c#6 v=102
158880 Off ch=1 n=c#6 v=80
158880 Off ch=1 n=g#5 v=80
158880 Off ch=1 n=f5 v=80
158880 On ch=1 n=f5 v=102
158880 On ch=1 n=a#5 v=102
158880 On ch=1 n=d6 v=102
159360 Off ch=1 n=d6 v=80
159360 Off ch=1 n=a#5 v=80
159360 Off ch=1 n=f5 v=80
159360 On ch=1 n=d#5 v=102
159360 On ch=1 n=a#5 v=102
159360 On ch=1 n=d#6 v=102
159840 Off ch=1 n=d#6 v=80
159840 Off ch=1 n=a#5 v=80
159840 Off ch=1 n=d#5 v=80
159840 On ch=1 n=a#5 v=106
159840 On ch=1 n=d6 v=106
159840 On ch=1 n=f6 v=106
160320 Off ch=1 n=f6 v=80
160320 Off ch=1 n=d6 v=80
160320 Off ch=1 n=a#5 v=80
160320 On ch=1 n=a#5 v=111
160320 On ch=1 n=d#6 v=111
160320 On ch=1 n=f#6 v=111
160800 Off ch=1 n=f#6 v=80
160800 Off ch=1 n=d#6 v=80
160800 Off ch=1 n=a#5 v=80
160800 On ch=1 n=a#5 v=115
160800 On ch=1 n=f#6 v=115
160800 On ch=1 n=a#6 v=115
161280 Off ch=1 n=a#6 v=80
161280 Off ch=1 n=f#6 v=80
161280 Off ch=1 n=a#5 v=80
161280 On ch=1 n=g#5 v=120
161280 On ch=1 n=f6 v=120
161280 On ch=1 n=g#6 v=120
161760 Off ch=1 n=g#6 v=80
161760 Off ch=1 n=f6 v=80
161760 Off ch=1 n=g#5 v=80
161760 On ch=1 n=d#5 v=102
161760 On ch=1 n=g#5 v=102
161760 On ch=1 n=c6 v=102
162240 Off ch=1 n=c6 v=80
162240 Off ch=1 n=g#5 v=80
162240 Off ch=1 n=d#5 v=80
162240 On ch=1 n=f5 v=102
162240 On ch=1 n=g#5 v=102
162240 On ch=1 n=c#6 v=102
162720 Off ch=1 n=c#6 v=80
162720 Off ch=1 n=g#5 v=80
162720 Off ch=1 n=f5 v=80
163200 On ch=1 n=c#5 v=78
163680 Off ch=1 n=c#5 v=80
163680 On ch=1 n=e5 v=78
164160 Off ch=1 n=e5 v=80
164160 On ch=1 n=a5 v=82
164640 Off ch=1 n=a5 v=80
164640 On ch=1 n=b5 v=86
165120 Off ch=1 n=b5 v=80
165120 On ch=1 n=c#6 v=90
165840 On ch=1 n=d5 v=78
165960 Off ch=1 n=c#6 v=80
165960 On ch=1 n=b5 v=78
166000 Off ch=1 n=d5 v=80
166080 Off ch=1 n=b5 v=80
166080 On ch=1 n=b5 v=78
166560 Off ch=1 n=b5 v=80
166560 On ch=1 n=a5 v=78
167040 Off ch=1 n=a5 v=80
167040 On ch=1 n=c#5 v=78
167520 Off ch=1 n=c#5 v=80
167520 On ch=1 n=e5 v=78
168000 Off ch=1 n=e5 v=80
168000 On ch=1 n=a5 v=78
168480 Off ch=1 n=a5 v=80
168480 On ch=1 n=a5 v=78
168960 Off ch=1 n=a5 v=80
168960 On ch=1 n=g#5 v=78
169440 Off ch=1 n=g#5 v=80
169440 On ch=1 n=f#5 v=78
169920 Off ch=1 n=f#5 v=80
169920 On ch=1 n=e5 v=78
170400 On ch=1 n=d5 v=65
170880 Off ch=1 n=d5 v=80
170880 Off ch=1 n=e5 v=80
170880 On ch=1 n=c#5 v=78
171360 Off ch=1 n=c#5 v=80
171360 On ch=1 n=e5 v=78
171840 Off ch=1 n=e5 v=80
171840 On ch=1 n=a5 v=82
172320 Off ch=1 n=a5 v=80
172320 On ch=1 n=b5 v=86
172800 Off ch=1 n=b5 v=80
172800 On ch=1 n=c#6 v=90
173520 On ch=1 n=d5 v=78
173640 Off ch=1 n=c#6 v=80
173640 On ch=1 n=b5 v=78
173680 Off ch=1 n=d5 v=80
173760 Off ch=1 n=b5 v=80
173760 On ch=1 n=b5 v=78
174240 Off ch=1 n=b5 v=80
174240 On ch=1 n=a5 v=78
174720 Off ch=1 n=a5 v=80
174720 On ch=1 n=c#5 v=78
175200 Off ch=1 n=c#5 v=80
175200 On ch=1 n=e5 v=78
175680 Off ch=1 n=e5 v=80
175680 On ch=1 n=a5 v=78
176160 Off ch=1 n=a5 v=80
176160 On ch=1 n=a5 v=78
176640 Off ch=1 n=a5 v=80
176640 On ch=1 n=g#5 v=78
177120 Off ch=1 n=g#5 v=80
177120 On ch=1 n=f#5 v=78
177600 Off ch=1 n=f#5 v=80
177600 On ch=1 n=e5 v=78
178560 Off ch=1 n=e5 v=80
178560 On ch=1 n=e5 v=78
179040 Off ch=1 n=e5 v=80
179040 On ch=1 n=f#5 v=78
179520 Off ch=1 n=f#5 v=80
179520 On ch=1 n=g#5 v=82
180000 Off ch=1 n=g#5 v=80
180000 On ch=1 n=a5 v=86
180480 Off ch=1 n=a5 v=80
180480 On ch=1 n=b5 v=90
181320 Off ch=1 n=b5 v=80
181320 On ch=1 n=c#6 v=90
181440 Off ch=1 n=c#6 v=80
181440 On ch=1 n=b5 v=90
181920 Off ch=1 n=b5 v=80
181920 On ch=1 n=a5 v=90
182400 Off ch=1 n=a5 v=80
182400 On ch=1 n=a5 v=78
182880 Off ch=1 n=a5 v=80
182880 On ch=1 n=b5 v=78
183360 Off ch=1 n=b5 v=80
183360 On ch=1 n=c#6 v=82
183840 Off ch=1 n=c#6 v=80
183840 On ch=1 n=d6 v=86
184320 Off ch=1 n=d6 v=80
184320 On ch=1 n=e6 v=90
185160 Off ch=1 n=e6 v=80
185160 On ch=1 n=f#6 v=90
185280 Off ch=1 n=f#6 v=80
185280 On ch=1 n=e6 v=90
185760 Off ch=1 n=e6 v=80
185760 On ch=1 n=d6 v=90
186240 Off ch=1 n=d6 v=80
186240 On ch=1 n=f#6 v=90
186720 Off ch=1 n=f#6 v=80
186720 On ch=1 n=e6 v=87
187200 Off ch=1 n=e6 v=80
187200 On ch=1 n=d6 v=84
187680 Off ch=1 n=d6 v=80
187680 On ch=1 n=c#6 v=81
188160 Off ch=1 n=c#6 v=80
188160 On ch=1 n=b5 v=78
188400 Off ch=1 n=b5 v=80
188400 On ch=1 n=c#6 v=78
188460 Off ch=1 n=c#6 v=80
188460 On ch=1 n=b5 v=78
188520 Off ch=1 n=b5 v=80
188520 On ch=1 n=a5 v=78
188580 Off ch=1 n=a5 v=80
188580 On ch=1 n=b5 v=78
188640 Off ch=1 n=b5 v=80
188640 On ch=1 n=c#6 v=78
189000 Off ch=1 n=c#6 v=80
189000 On ch=1 n=a5 v=78
189120 Off ch=1 n=a5 v=80
189120 On ch=1 n=c#6 v=78
189600 Off ch=1 n=c#6 v=80
189600 On ch=1 n=b5 v=78
190080 Off ch=1 n=b5 v=80
190080 On ch=1 n=d6 v=65
190560 Off ch=1 n=d6 v=80
190560 On ch=1 n=c6 v=65
191040 Off ch=1 n=c6 v=80
191040 On ch=1 n=a#5 v=65
191520 Off ch=1 n=a#5 v=80
191520 On ch=1 n=a5 v=65
192000 Off ch=1 n=a5 v=80
192000 On ch=1 n=g#5 v=65
192480 Off ch=1 n=g#5 v=80
192480 On ch=1 n=a5 v=63
192960 Off ch=1 n=a5 v=80
192960 On ch=1 n=a#5 v=61
193440 Off ch=1 n=a#5 v=80
193440 On ch=1 n=b5 v=59
193860 On ch=1 n=e5 v=65
193920 Off ch=1 n=e5 v=80
193920 Off ch=1 n=b5 v=80
193920 On ch=1 n=c#5 v=78
194400 Off ch=1 n=c#5 v=80
194400 On ch=1 n=e5 v=78
194880 Off ch=1 n=e5 v=80
194880 On ch=1 n=a5 v=82
195360 Off ch=1 n=a5 v=80
195360 On ch=1 n=b5 v=86
195840 Off ch=1 n=b5 v=80
195840 On ch=1 n=c#6 v=90
196560 On ch=1 n=d5 v=78
196680 Off ch=1 n=c#6 v=80
196680 On ch=1 n=b5 v=78
196720 Off ch=1 n=d5 v=80
196800 Off ch=1 n=b5 v=80
196800 On ch=1 n=b5 v=78
197280 Off ch=1 n=b5 v=80
197280 On ch=1 n=a5 v=78
197760 Off ch=1 n=a5 v=80
197760 On ch=1 n=c#5 v=78
198240 Off ch=1 n=c#5 v=80
198240 On ch=1 n=e5 v=78
198720 Off ch=1 n=e5 v=80
198720 On ch=1 n=a5 v=78
199200 Off ch=1 n=a5 v=80
199200 On ch=1 n=a5 v=78
199680 Off ch=1 n=a5 v=80
199680 On ch=1 n=g#5 v=78
200160 Off ch=1 n=g#5 v=80
200160 On ch=1 n=f#5 v=78
200640 Off ch=1 n=f#5 v=80
200640 On ch=1 n=e5 v=78
201600 Off ch=1 n=e5 v=80
201600 On ch=1 n=e5 v=78
202080 Off ch=1 n=e5 v=80
202080 On ch=1 n=f#5 v=78
202560 Off ch=1 n=f#5 v=80
202560 On ch=1 n=g#5 v=82
203040 Off ch=1 n=g#5 v=80
203040 On ch=1 n=a5 v=86
203520 Off ch=1 n=a5 v=80
203520 On ch=1 n=b5 v=90
204360 Off ch=1 n=b5 v=80
204360 On ch=1 n=c#6 v=90
204480 Off ch=1 n=c#6 v=80
204480 On ch=1 n=b5 v=90
204960 Off ch=1 n=b5 v=80
204960 On ch=1 n=a5 v=90
205440 Off ch=1 n=a5 v=80
205440 On ch=1 n=a5 v=78
205920 Off ch=1 n=a5 v=80
205920 On ch=1 n=b5 v=78
206400 Off ch=1 n=b5 v=80
206400 On ch=1 n=c#6 v=82
206880 Off ch=1 n=c#6 v=80
206880 On ch=1 n=d6 v=86
207360 Off ch=1 n=d6 v=80
207360 On ch=1 n=e6 v=90
208200 Off ch=1 n=e6 v=80
208200 On ch=1 n=f#6 v=90
208320 Off ch=1 n=f#6 v=80
208320 On ch=1 n=e6 v=90
208800 Off ch=1 n=e6 v=80
208800 On ch=1 n=d6 v=90
209280 Off ch=1 n=d6 v=80
209280 On ch=1 n=a6 v=65
209760 Off ch=1 n=a6 v=80
209760 On ch=1 n=g6 v=65
210240 Off ch=1 n=g6 v=80
210240 On ch=1 n=f6 v=65
210960 Off ch=1 n=f6 v=80
210960 On ch=1 n=e6 v=65
211200 Off ch=1 n=e6 v=80
211200 On ch=1 n=e6 v=65
211680 Off ch=1 n=e6 v=80
211680 On ch=1 n=d6 v=65
212160 Off ch=1 n=d6 v=80
212160 On ch=1 n=c6 v=65
213000 Off ch=1 n=c6 v=80
213000 On ch=1 n=c5 v=65
213120 Off ch=1 n=c5 v=80
213120 On ch=1 n=c#5 v=65
213600 Off ch=1 n=c#5 v=80
213600 On ch=1 n=e5 v=68
214080 Off ch=1 n=e5 v=80
214080 On ch=1 n=a5 v=71
214560 Off ch=1 n=a5 v=80
214560 On ch=1 n=b5 v=74
215040 Off ch=1 n=b5 v=80
215040 On ch=1 n=c#6 v=78
215760 Off ch=1 n=c#6 v=80
215760 On ch=1 n=b5 v=72
216000 Off ch=1 n=b5 v=80
216000 On ch=1 n=a5 v=65
216480 Off ch=1 n=a5 v=80
216960 On ch=1 n=f4 v=102
216960 On ch=1 n=d4 v=102
217080 Off ch=1 n=d4 v=80
217080 Off ch=1 n=f4 v=80
217440 On ch=1 n=e4 v=102
217440 On ch=1 n=g4 v=102
217440 On ch=1 n=c5 v=102
217560 Off ch=1 n=c5 v=80
217560 Off ch=1 n=g4 v=80
217560 Off ch=1 n=e4 v=80
217920 On ch=1 n=f4 v=102
217920 On ch=1 n=a4 v=102
217920 On ch=1 n=c5 v=102
218640 Off ch=1 n=c5 v=80
218640 Off ch=1 n=a4 v=80
218640 Off ch=1 n=f4 v=80
218880 On ch=1 n=f4 v=102
218880 On ch=1 n=a#4 v=102
218880 On ch=1 n=d5 v=102
219360 Off ch=1 n=d5 v=80
219360 Off ch=1 n=a#4 v=80
219360 Off ch=1 n=f4 v=80
219360 On ch=1 n=a#4 v=102
219360 On ch=1 n=c5 v=102
219360 On ch=1 n=e5 v=102
219840 Off ch=1 n=e5 v=80
219840 Off ch=1 n=c5 v=80
219840 Off ch=1 n=a#4 v=80
219840 On ch=1 n=a4 v=102
219840 On ch=1 n=c5 v=102
219840 On ch=1 n=f5 v=102
220320 Off ch=1 n=f5 v=80
220320 Off ch=1 n=c5 v=80
220320 Off ch=1 n=a4 v=80
220320 On ch=1 n=a4 v=105
220320 On ch=1 n=d5 v=105
220320 On ch=1 n=f#5 v=105
220800 Off ch=1 n=f#5 v=80
220800 Off ch=1 n=d5 v=80
220800 Off ch=1 n=a4 v=80
220800 On ch=1 n=g4 v=108
220800 On ch=1 n=d5 v=108
220800 On ch=1 n=g5 v=108
221280 Off ch=1 n=g5 v=80
221280 Off ch=1 n=d5 v=80
221280 Off ch=1 n=g4 v=80
221280 On ch=1 n=d5 v=111
221280 On ch=1 n=f#5 v=111
221280 On ch=1 n=a5 v=111
221760 Off ch=1 n=a5 v=80
221760 Off ch=1 n=f#5 v=80
221760 Off ch=1 n=d5 v=80
221760 On ch=1 n=d5 v=114
221760 On ch=1 n=g5 v=114
221760 On ch=1 n=a#5 v=114
222240 Off ch=1 n=a#5 v=80
222240 Off ch=1 n=g5 v=80
222240 Off ch=1 n=d5 v=80
222240 On ch=1 n=d5 v=117
222240 On ch=1 n=a#5 v=117
222240 On ch=1 n=d6 v=117
222720 Off ch=1 n=d6 v=80
222720 Off ch=1 n=a#5 v=80
222720 Off ch=1 n=d5 v=80
222720 On ch=1 n=c5 v=120
222720 On ch=1 n=a5 v=120
222720 On ch=1 n=c6 v=120
223200 Off ch=1 n=c6 v=80
223200 Off ch=1 n=a5 v=80
223200 Off ch=1 n=c5 v=80
223200 On ch=1 n=g4 v=102
223200 On ch=1 n=c5 v=102
223200 On ch=1 n=e5 v=102
223680 Off ch=1 n=e5 v=80
223680 Off ch=1 n=c5 v=80
223680 Off ch=1 n=g4 v=80
223680 On ch=1 n=a4 v=102
223680 On ch=1 n=c5 v=102
223680 On ch=1 n=f5 v=102
224160 Off ch=1 n=f5 v=80
224160 Off ch=1 n=c5 v=80
224160 Off ch=1 n=a4 v=80
224640 On ch=1 n=a5 v=127
225120 Off ch=1 n=a5 v=80
225120 On ch=1 n=a#5 v=102
225120 On ch=1 n=a5 v=102
225600 Off ch=1 n=a5 v=80
225600 Off ch=1 n=a#5 v=80
225600 On ch=1 n=a#5 v=102
225600 On ch=1 n=g5 v=102
226080 Off ch=1 n=g5 v=80
226080 Off ch=1 n=a#5 v=80
226080 On ch=1 n=g6 v=102
226240 Off ch=1 n=g6 v=80
226240 On ch=1 n=a6 v=102
226400 Off ch=1 n=a6 v=80
226400 On ch=1 n=a#6 v=102
226560 Off ch=1 n=a#6 v=80
226560 On ch=1 n=a6 v=102
226560 On ch=1 n=e6 v=102
227400 Off ch=1 n=e6 v=80
227400 Off ch=1 n=a6 v=80
227400 On ch=1 n=g6 v=102
227400 On ch=1 n=e6 v=102
227400 On ch=1 n=a5 v=102
227520 Off ch=1 n=a5 v=80
227520 Off ch=1 n=e6 v=80
227520 Off ch=1 n=g6 v=80
227520 On ch=1 n=g6 v=120
227520 On ch=1 n=c6 v=120
227520 On ch=1 n=a5 v=120
227760 Off ch=1 n=a5 v=80
227760 Off ch=1 n=c6 v=80
227760 Off ch=1 n=g6 v=80
228000 On ch=1 n=f#6 v=102
228000 On ch=1 n=c6 v=102
228000 On ch=1 n=a5 v=102
228480 Off ch=1 n=a5 v=80
228480 Off ch=1 n=c6 v=80
228480 Off ch=1 n=f#6 v=80
228480 On ch=1 n=g5 v=127
228960 Off ch=1 n=g5 v=80
228960 On ch=1 n=g#5 v=102
228960 On ch=1 n=g5 v=102
229440 Off ch=1 n=g5 v=80
229440 Off ch=1 n=g#5 v=80
229440 On ch=1 n=g#5 v=102
229440 On ch=1 n=f5 v=102
229920 Off ch=1 n=f5 v=80
229920 Off ch=1 n=g#5 v=80
229920 On ch=1 n=f6 v=102
230080 Off ch=1 n=f6 v=80
230080 On ch=1 n=g6 v=102
230240 Off ch=1 n=g6 v=80
230240 On ch=1 n=g#6 v=102
230400 Off ch=1 n=g#6 v=80
230400 On ch=1 n=d6 v=102
230400 On ch=1 n=g6 v=102
231240 On ch=1 n=f6 v=102
231240 On ch=1 n=d6 v=102
231240 On ch=1 n=g5 v=102
231300 Off ch=1 n=g6 v=80
231300 Off ch=1 n=d6 v=80
231360 Off ch=1 n=f6 v=80
231360 Off ch=1 n=d6 v=80
231360 Off ch=1 n=g5 v=80
231360 On ch=1 n=f6 v=120
231360 On ch=1 n=a#5 v=120
231360 On ch=1 n=g5 v=120
231600 Off ch=1 n=g5 v=80
231600 Off ch=1 n=a#5 v=80
231600 Off ch=1 n=f6 v=80
231840 On ch=1 n=e6 v=102
231840 On ch=1 n=a#5 v=102
231840 On ch=1 n=g5 v=102
232080 Off ch=1 n=g5 v=80
232080 Off ch=1 n=a#5 v=80
232080 Off ch=1 n=e6 v=80
232320 On ch=1 n=a5 v=114
232320 On ch=1 n=f5 v=114
232320 On ch=1 n=c5 v=114
232560 Off ch=1 n=c5 v=80
232560 Off ch=1 n=f5 v=80
232560 Off ch=1 n=a5 v=80
232800 On ch=1 n=c5 v=114
232800 On ch=1 n=g5 v=114
232800 On ch=1 n=c6 v=114
233040 Off ch=1 n=c6 v=80
233040 Off ch=1 n=g5 v=80
233040 Off ch=1 n=c5 v=80
233280 On ch=1 n=f5 v=114
233280 On ch=1 n=c6 v=114
233280 On ch=1 n=f6 v=114
234240 Off ch=1 n=f6 v=80
234240 Off ch=1 n=c6 v=80
234240 Off ch=1 n=f5 v=80
234240 On ch=1 n=e6 v=127
234240 On ch=1 n=a#5 v=127
234240 On ch=1 n=e5 v=127
234720 Off ch=1 n=e5 v=80
234720 Off ch=1 n=a#5 v=80
234720 Off ch=1 n=e6 v=80
234720 On ch=1 n=d5 v=127
234720 On ch=1 n=b5 v=127
234720 On ch=1 n=d6 v=127
235200 Off ch=1 n=d6 v=80
235200 Off ch=1 n=b5 v=80
235200 Off ch=1 n=d5 v=80
235200 On ch=1 n=d6 v=127
235200 On ch=1 n=f5 v=127
235200 On ch=1 n=d5 v=127
235680 Off ch=1 n=d5 v=80
235680 Off ch=1 n=f5 v=80
235680 Off ch=1 n=d6 v=80
235680 On ch=1 n=c6 v=127
235680 On ch=1 n=d#5 v=127
235680 On ch=1 n=f5 v=127
236040 Off ch=1 n=f5 v=80
236040 On ch=1 n=f#5 v=127
236160 Off ch=1 n=d#5 v=80
236160 Off ch=1 n=c6 v=80
236160 Off ch=1 n=f#5 v=80
236160 On ch=1 n=c6 v=127
236160 On ch=1 n=g5 v=127
236160 On ch=1 n=d5 v=127
236640 Off ch=1 n=d5 v=80
236640 Off ch=1 n=g5 v=80
236640 Off ch=1 n=c6 v=80
236640 On ch=1 n=d5 v=127
236640 On ch=1 n=g5 v=127
236640 On ch=1 n=a#5 v=127
237120 Off ch=1 n=a#5 v=80
237120 Off ch=1 n=g5 v=80
237120 Off ch=1 n=d5 v=80
237120 On ch=1 n=a5 v=127
237120 On ch=1 n=f5 v=127
237120 On ch=1 n=d5 v=127
237600 Off ch=1 n=d5 v=80
237600 Off ch=1 n=f5 v=80
237600 Off ch=1 n=a5 v=80
237600 On ch=1 n=f5 v=127
237600 On ch=1 n=d5 v=127
237600 On ch=1 n=g5 v=127
238080 Off ch=1 n=g5 v=80
238080 Off ch=1 n=d5 v=80
238080 Off ch=1 n=f5 v=80
238080 On ch=1 n=a5 v=127
238080 On ch=1 n=f5 v=127
238080 On ch=1 n=c5 v=127
238320 Off ch=1 n=c5 v=80
238320 Off ch=1 n=f5 v=80
238320 Off ch=1 n=a5 v=80
238560 On ch=1 n=a#4 v=127
238560 On ch=1 n=e5 v=127
238560 On ch=1 n=g5 v=127
238920 Off ch=1 n=g5 v=80
238920 Off ch=1 n=e5 v=80
238920 Off ch=1 n=a#4 v=80
239040 On ch=1 n=f5 v=127
239040 On ch=1 n=c5 v=127
239040 On ch=1 n=a4 v=127
239520 Off ch=1 n=a4 v=80
239520 Off ch=1 n=c5 v=80
239520 Off ch=1 n=f5 v=80
239520 On ch=1 n=f4 v=102
240000 Off ch=1 n=f4 v=80
240000 On ch=1 n=f4 v=78
240000 On ch=1 n=f#4 v=78
240480 Off ch=1 n=f#4 v=80
240480 Off ch=1 n=f4 v=80
240480 On ch=1 n=f4 v=102
240480 On ch=1 n=f#4 v=102
240480 On ch=1 n=c#5 v=102
240960 Off ch=1 n=c#5 v=80
240960 Off ch=1 n=f#4 v=80
240960 Off ch=1 n=f4 v=80
240960 On ch=1 n=a#4 v=78
240960 On ch=1 n=b4 v=78
241440 Off ch=1 n=b4 v=80
241440 Off ch=1 n=a#4 v=80
241440 On ch=1 n=b4 v=102
241440 On ch=1 n=g#4 v=102
241920 Off ch=1 n=g#4 v=80
241920 Off ch=1 n=b4 v=80
241920 On ch=1 n=a#4 v=78
241920 On ch=1 n=g#4 v=78
242400 Off ch=1 n=g#4 v=80
242400 Off ch=1 n=a#4 v=80
242400 On ch=1 n=a#4 v=78
242400 On ch=1 n=f#4 v=78
243360 Off ch=1 n=f#4 v=80
243360 Off ch=1 n=a#4 v=80
243360 On ch=1 n=g5 v=78
243360 On ch=1 n=e5 v=78
243360 On ch=1 n=a#4 v=78
243840 Off ch=1 n=a#4 v=80
243840 Off ch=1 n=e5 v=80
243840 Off ch=1 n=g5 v=80
243840 On ch=1 n=a5 v=78
243840 On ch=1 n=f5 v=78
243840 On ch=1 n=a4 v=78
244320 Off ch=1 n=a4 v=80
244320 Off ch=1 n=f5 v=80
244320 Off ch=1 n=a5 v=80
244320 On ch=1 n=c6 v=81
244680 Off ch=1 n=c6 v=80
244680 On ch=1 n=c#6 v=81
244800 Off ch=1 n=c#6 v=80
244800 On ch=1 n=d6 v=84
244800 On ch=1 n=d5 v=84
245280 Off ch=1 n=d5 v=80
245280 Off ch=1 n=d6 v=80
245280 On ch=1 n=d6 v=87
245280 On ch=1 n=f5 v=87
245440 Off ch=1 n=f5 v=80
245440 Off ch=1 n=d6 v=80
245440 On ch=1 n=f5 v=87
245440 On ch=1 n=e6 v=87
245600 Off ch=1 n=e6 v=80
245600 Off ch=1 n=f5 v=80
245600 On ch=1 n=f5 v=87
245600 On ch=1 n=f6 v=87
245760 Off ch=1 n=f6 v=80
245760 Off ch=1 n=f5 v=80
245760 On ch=1 n=a5 v=90
245760 On ch=1 n=a6 v=90
246240 Off ch=1 n=a6 v=80
246240 Off ch=1 n=a5 v=80
246240 On ch=1 n=g5 v=90
246240 On ch=1 n=c6 v=90
246240 On ch=1 n=g6 v=90
246720 Off ch=1 n=g6 v=80
246720 Off ch=1 n=c6 v=80
246720 Off ch=1 n=g5 v=80
246720 On ch=1 n=f6 v=90
246720 On ch=1 n=c6 v=90
246720 On ch=1 n=f5 v=90
247200 Off ch=1 n=f5 v=80
247200 Off ch=1 n=c6 v=80
247200 Off ch=1 n=f6 v=80
247200 On ch=1 n=f5 v=102
247680 Off ch=1 n=f5 v=80
247680 On ch=1 n=f5 v=78
247680 On ch=1 n=f#5 v=78
248160 Off ch=1 n=f#5 v=80
248160 Off ch=1 n=f5 v=80
248160 On ch=1 n=f5 v=102
248160 On ch=1 n=f#5 v=102
248160 On ch=1 n=c#6 v=102
248640 Off ch=1 n=c#6 v=80
248640 Off ch=1 n=f#5 v=80
248640 Off ch=1 n=f5 v=80
248640 On ch=1 n=a#5 v=78
248640 On ch=1 n=b5 v=78
249120 Off ch=1 n=b5 v=80
249120 Off ch=1 n=a#5 v=80
249120 On ch=1 n=b5 v=102
249120 On ch=1 n=g#5 v=102
249600 Off ch=1 n=g#5 v=80
249600 Off ch=1 n=b5 v=80
249600 On ch=1 n=a#5 v=78
249600 On ch=1 n=g#5 v=78
250080 Off ch=1 n=g#5 v=80
250080 Off ch=1 n=a#5 v=80
250080 On ch=1 n=a#5 v=78
250080 On ch=1 n=f#5 v=78
251040 Off ch=1 n=f#5 v=80
251040 Off ch=1 n=a#5 v=80
251040 On ch=1 n=g6 v=78
251040 On ch=1 n=e6 v=78
251040 On ch=1 n=a#5 v=78
251520 Off ch=1 n=a#5 v=80
251520 Off ch=1 n=e6 v=80
251520 Off ch=1 n=g6 v=80
251520 On ch=1 n=a6 v=78
251520 On ch=1 n=f6 v=78
251520 On ch=1 n=a5 v=78
252000 Off ch=1 n=a5 v=80
252000 Off ch=1 n=f6 v=80
252000 Off ch=1 n=a6 v=80
252000 On ch=1 n=c7 v=81
252360 Off ch=1 n=c7 v=80
252360 On ch=1 n=c#7 v=81
252480 Off ch=1 n=c#7 v=80
252480 On ch=1 n=d7 v=84
252480 On ch=1 n=d6 v=84
252960 Off ch=1 n=d6 v=80
252960 Off ch=1 n=d7 v=80
252960 On ch=1 n=d7 v=87
252960 On ch=1 n=f6 v=87
253120 Off ch=1 n=f6 v=80
253120 Off ch=1 n=d7 v=80
253120 On ch=1 n=f6 v=87
253120 On ch=1 n=e7 v=87
253280 Off ch=1 n=e7 v=80
253280 Off ch=1 n=f6 v=80
253280 On ch=1 n=f6 v=87
253280 On ch=1 n=f7 v=87
253440 Off ch=1 n=f7 v=80
253440 Off ch=1 n=f6 v=80
253440 On ch=1 n=a6 v=90
253440 On ch=1 n=a7 v=90
253920 Off ch=1 n=a7 v=80
253920 Off ch=1 n=a6 v=80
253920 On ch=1 n=g6 v=90
253920 On ch=1 n=c7 v=90
253920 On ch=1 n=g7 v=90
254400 Off ch=1 n=g7 v=80
254400 Off ch=1 n=c7 v=80
254400 Off ch=1 n=g6 v=80
254400 On ch=1 n=f7 v=90
254400 On ch=1 n=c7 v=90
254400 On ch=1 n=f6 v=90
254880 Off ch=1 n=f6 v=80
254880 Off ch=1 n=c7 v=80
254880 Off ch=1 n=f7 v=80
254880 On ch=1 n=d6 v=112
254880 On ch=1 n=g#5 v=112
255040 Off ch=1 n=d6 v=80
255040 On ch=1 n=e6 v=102
255200 Off ch=1 n=e6 v=80
255200 On ch=1 n=f6 v=102
255360 Off ch=1 n=g#5 v=80
255360 Off ch=1 n=f6 v=80
255360 On ch=1 n=g5 v=102
255360 On ch=1 n=c6 v=102
255840 Off ch=1 n=c6 v=80
255840 Off ch=1 n=g5 v=80
255840 On ch=1 n=c6 v=112
255840 On ch=1 n=e5 v=112
255840 On ch=1 n=a5 v=112
256200 Off ch=1 n=a5 v=80
256200 On ch=1 n=g5 v=102
256320 Off ch=1 n=e5 v=80
256320 Off ch=1 n=c6 v=80
256320 Off ch=1 n=g5 v=80
256320 On ch=1 n=f5 v=102
256800 Off ch=1 n=f5 v=80
256800 On ch=1 n=d5 v=112
256800 On ch=1 n=g#4 v=112
256960 Off ch=1 n=d5 v=80
256960 On ch=1 n=e5 v=102
257120 Off ch=1 n=e5 v=80
257120 On ch=1 n=f5 v=102
257280 Off ch=1 n=g#4 v=80
257280 Off ch=1 n=f5 v=80
257280 On ch=1 n=g4 v=102
257280 On ch=1 n=c5 v=102
257760 Off ch=1 n=c5 v=80
257760 Off ch=1 n=g4 v=80
257760 On ch=1 n=c5 v=112
257760 On ch=1 n=e4 v=112
257760 On ch=1 n=a4 v=112
258120 Off ch=1 n=a4 v=80
258120 On ch=1 n=g4 v=102
258240 Off ch=1 n=e4 v=80
258240 Off ch=1 n=c5 v=80
258240 Off ch=1 n=g4 v=80
258240 On ch=1 n=f4 v=102
258720 Off ch=1 n=f4 v=80
258720 On ch=1 n=f4 v=114
258720 On ch=1 n=a#4 v=114
258720 On ch=1 n=d5 v=114
258960 Off ch=1 n=d5 v=80
258960 Off ch=1 n=a#4 v=80
258960 Off ch=1 n=f4 v=80
259080 On ch=1 n=d5 v=114
259080 On ch=1 n=a#4 v=114
259080 On ch=1 n=f4 v=114
259200 Off ch=1 n=f4 v=80
259200 Off ch=1 n=a#4 v=80
259200 Off ch=1 n=d5 v=80
259200 On ch=1 n=a4 v=114
259200 On ch=1 n=c5 v=114
259200 On ch=1 n=f5 v=114
260160 Off ch=1 n=f5 v=80
260160 Off ch=1 n=c5 v=80
260160 Off ch=1 n=a4 v=80
260160 On ch=1 n=a4 v=102
260160 On ch=1 n=f4 v=102
260160 On ch=1 n=c4 v=102
260640 Off ch=1 n=c4 v=80
260640 Off ch=1 n=f4 v=80
260640 Off ch=1 n=a4 v=80
260640 On ch=1 n=c4 v=102
260640 On ch=1 n=f4 v=102
260640 On ch=1 n=a4 v=102
261120 Off ch=1 n=a4 v=80
261120 Off ch=1 n=f4 v=80
261120 Off ch=1 n=c4 v=80
261120 On ch=1 n=c4 v=102
261120 On ch=1 n=f4 v=102
261120 On ch=1 n=a4 v=102
261600 Off ch=1 n=a4 v=80
261600 Off ch=1 n=f4 v=80
261600 Off ch=1 n=c4 v=80
261600 Meta TrkEnd
TrkEnd
MTrk
0 Meta TrkName "Piano L Hand"
0 Meta 0x21 00
0 Meta 0x20 00
0 Par ch=1 c=10 v=64
0 PrCh ch=1 p=0
0 On ch=1 n=a3 v=114
0 On ch=1 n=d3 v=114
120 Off ch=1 n=d3 v=80
120 Off ch=1 n=a3 v=80
480 On ch=1 n=c4 v=114
480 On ch=1 n=c3 v=114
600 Off ch=1 n=c3 v=80
600 Off ch=1 n=c4 v=80
960 On ch=1 n=f3 v=114
960 On ch=1 n=f2 v=114
1440 Off ch=1 n=f2 v=80
1440 Off ch=1 n=f3 v=80
1440 On ch=1 n=f2 v=114
1440 On ch=1 n=f3 v=114
1600 Off ch=1 n=f3 v=80
1600 Off ch=1 n=f2 v=80
1600 On ch=1 n=g2 v=114
1600 On ch=1 n=g3 v=114
1760 Off ch=1 n=g3 v=80
1760 Off ch=1 n=g2 v=80
1760 On ch=1 n=a2 v=114
1760 On ch=1 n=a3 v=114
1920 Off ch=1 n=a3 v=80
1920 Off ch=1 n=a2 v=80
1920 On ch=1 n=a#3 v=114
1920 On ch=1 n=a#2 v=114
2400 Off ch=1 n=a#2 v=80
2400 Off ch=1 n=a#3 v=80
2400 On ch=1 n=g2 v=114
2400 On ch=1 n=g3 v=114
2880 Off ch=1 n=g3 v=80
2880 Off ch=1 n=g2 v=80
2880 On ch=1 n=a2 v=102
2880 On ch=1 n=a3 v=102
3040 Off ch=1 n=a3 v=80
3040 Off ch=1 n=a2 v=80
3040 On ch=1 n=a#3 v=102
3040 On ch=1 n=a#2 v=102
3200 Off ch=1 n=a#2 v=80
3200 Off ch=1 n=a#3 v=80
3200 On ch=1 n=c3 v=102
3200 On ch=1 n=c4 v=102
3360 Off ch=1 n=c4 v=80
3360 Off ch=1 n=c3 v=80
3360 On ch=1 n=d4 v=105
3360 On ch=1 n=d3 v=105
3720 Off ch=1 n=d3 v=80
3720 Off ch=1 n=d4 v=80
3840 On ch=1 n=a#3 v=108
3840 On ch=1 n=a#2 v=108
4320 Off ch=1 n=a#2 v=80
4320 Off ch=1 n=a#3 v=80
4320 On ch=1 n=a3 v=111
4320 On ch=1 n=a2 v=111
4800 Off ch=1 n=a2 v=80
4800 Off ch=1 n=a3 v=80
4800 On ch=1 n=g3 v=114
4800 On ch=1 n=g2 v=114
5280 Off ch=1 n=g2 v=80
5280 Off ch=1 n=g3 v=80
5280 On ch=1 n=g2 v=117
5280 On ch=1 n=g3 v=117
5440 Off ch=1 n=g3 v=80
5440 Off ch=1 n=g2 v=80
5440 On ch=1 n=a2 v=117
5440 On ch=1 n=a3 v=117
5600 Off ch=1 n=a3 v=80
5600 Off ch=1 n=a2 v=80
5600 On ch=1 n=a#2 v=117
5600 On ch=1 n=a#3 v=117
5760 Off ch=1 n=a#3 v=80
5760 Off ch=1 n=a#2 v=80
5760 On ch=1 n=c3 v=120
5760 On ch=1 n=c4 v=120
6240 Off ch=1 n=c4 v=80
6240 Off ch=1 n=c3 v=80
6240 On ch=1 n=c3 v=102
6240 On ch=1 n=c2 v=102
6720 Off ch=1 n=c2 v=80
6720 Off ch=1 n=c3 v=80
6720 On ch=1 n=f3 v=102
6720 On ch=1 n=f2 v=102
7200 Off ch=1 n=f2 v=80
7200 Off ch=1 n=f3 v=80
7200 On ch=1 n=e3 v=102
7200 On ch=1 n=e2 v=102
7680 Off ch=1 n=e2 v=80
7680 Off ch=1 n=e3 v=80
7680 On ch=1 n=d3 v=127
7680 On ch=1 n=d2 v=127
8160 Off ch=1 n=d2 v=80
8160 Off ch=1 n=d3 v=80
8160 On ch=1 n=g4 v=102
8320 Off ch=1 n=g4 v=80
8320 On ch=1 n=a4 v=102
8480 Off ch=1 n=a4 v=80
8480 On ch=1 n=a#4 v=102
8640 Off ch=1 n=a#4 v=80
8640 On ch=1 n=a4 v=102
9120 Off ch=1 n=a4 v=80
9120 On ch=1 n=a#4 v=102
9120 On ch=1 n=g4 v=102
9120 On ch=1 n=d#5 v=102
9600 Off ch=1 n=d#5 v=80
9600 Off ch=1 n=g4 v=80
9600 Off ch=1 n=a#4 v=80
9600 On ch=1 n=a4 v=102
9600 On ch=1 n=f#4 v=102
9600 On ch=1 n=d5 v=102
10080 Off ch=1 n=d5 v=80
10080 Off ch=1 n=f#4 v=80
10080 Off ch=1 n=a4 v=80
10080 On ch=1 n=d4 v=102
10080 On ch=1 n=d3 v=102
10240 Off ch=1 n=d3 v=80
10240 Off ch=1 n=d4 v=80
10240 On ch=1 n=e4 v=108
10400 Off ch=1 n=e4 v=80
10400 On ch=1 n=f4 v=114
10560 Off ch=1 n=f4 v=80
10560 On ch=1 n=g#4 v=120
10560 On ch=1 n=g#3 v=120
10800 Off ch=1 n=g#3 v=80
10800 Off ch=1 n=g#4 v=80
11040 On ch=1 n=g4 v=111
11040 On ch=1 n=g3 v=111
11520 Off ch=1 n=g3 v=80
11520 Off ch=1 n=g4 v=80
11520 On ch=1 n=c3 v=127
11520 On ch=1 n=c2 v=127
12000 Off ch=1 n=c2 v=80
12000 Off ch=1 n=c3 v=80
12000 On ch=1 n=f4 v=102
12160 Off ch=1 n=f4 v=80
12160 On ch=1 n=g4 v=102
12320 Off ch=1 n=g4 v=80
12320 On ch=1 n=g#4 v=102
12480 Off ch=1 n=g#4 v=80
12480 On ch=1 n=g4 v=102
12960 Off ch=1 n=g4 v=80
12960 On ch=1 n=g#4 v=102
12960 On ch=1 n=f4 v=102
12960 On ch=1 n=c#5 v=102
13440 Off ch=1 n=c#5 v=80
13440 Off ch=1 n=f4 v=80
13440 Off ch=1 n=g#4 v=80
13440 On ch=1 n=g4 v=102
13440 On ch=1 n=e4 v=102
13440 On ch=1 n=c5 v=102
13920 Off ch=1 n=c5 v=80
13920 Off ch=1 n=e4 v=80
13920 Off ch=1 n=g4 v=80
13920 On ch=1 n=c4 v=102
13920 On ch=1 n=c3 v=102
14080 Off ch=1 n=c3 v=80
14080 Off ch=1 n=c4 v=80
14080 On ch=1 n=d4 v=108
14240 Off ch=1 n=d4 v=80
14240 On ch=1 n=d#4 v=114
14400 Off ch=1 n=d#4 v=80
14400 On ch=1 n=f#4 v=120
14400 On ch=1 n=f#3 v=120
14640 Off ch=1 n=f#3 v=80
14640 Off ch=1 n=f#4 v=80
14880 On ch=1 n=f4 v=111
14880 On ch=1 n=f3 v=111
15360 Off ch=1 n=f3 v=80
15360 Off ch=1 n=f4 v=80
15360 On ch=1 n=a#2 v=102
15360 On ch=1 n=a#3 v=102
15600 Off ch=1 n=a#3 v=80
15600 Off ch=1 n=a#2 v=80
15840 On ch=1 n=g#3 v=102
15840 On ch=1 n=g#2 v=102
16080 Off ch=1 n=g#2 v=80
16080 Off ch=1 n=g#3 v=80
16320 On ch=1 n=c#4 v=102
16320 On ch=1 n=c#3 v=102
16800 Off ch=1 n=c#3 v=80
16800 Off ch=1 n=c#4 v=80
16800 On ch=1 n=c#4 v=102
16800 On ch=1 n=c#3 v=102
16960 Off ch=1 n=c#3 v=80
16960 Off ch=1 n=c#4 v=80
16960 On ch=1 n=d#3 v=102
16960 On ch=1 n=d#4 v=102
17120 Off ch=1 n=d#4 v=80
17120 Off ch=1 n=d#3 v=80
17120 On ch=1 n=f3 v=102
17120 On ch=1 n=f4 v=102
17280 Off ch=1 n=f4 v=80
17280 Off ch=1 n=f3 v=80
17280 On ch=1 n=f#4 v=102
17280 On ch=1 n=f#3 v=102
17760 Off ch=1 n=f#3 v=80
17760 Off ch=1 n=f#4 v=80
17760 On ch=1 n=d#3 v=102
17760 On ch=1 n=d#4 v=102
18240 Off ch=1 n=d#4 v=80
18240 Off ch=1 n=d#3 v=80
18240 On ch=1 n=f3 v=102
18240 On ch=1 n=f4 v=102
18400 Off ch=1 n=f4 v=80
18400 Off ch=1 n=f3 v=80
18400 On ch=1 n=f#4 v=102
18400 On ch=1 n=f#3 v=102
18560 Off ch=1 n=f#3 v=80
18560 Off ch=1 n=f#4 v=80
18560 On ch=1 n=g#3 v=102
18560 On ch=1 n=g#4 v=102
18720 Off ch=1 n=g#4 v=80
18720 Off ch=1 n=g#3 v=80
18720 On ch=1 n=a#4 v=105
18720 On ch=1 n=a#3 v=105
19080 Off ch=1 n=a#3 v=80
19080 Off ch=1 n=a#4 v=80
19200 On ch=1 n=f#4 v=108
19200 On ch=1 n=f#3 v=108
19680 Off ch=1 n=f#3 v=80
19680 Off ch=1 n=f#4 v=80
19680 On ch=1 n=f4 v=111
19680 On ch=1 n=f3 v=111
20160 Off ch=1 n=f3 v=80
20160 Off ch=1 n=f4 v=80
20160 On ch=1 n=d#4 v=114
20160 On ch=1 n=d#3 v=114
20640 Off ch=1 n=d#3 v=80
20640 Off ch=1 n=d#4 v=80
20640 On ch=1 n=d#3 v=117
20640 On ch=1 n=d#4 v=117
20800 Off ch=1 n=d#4 v=80
20800 Off ch=1 n=d#3 v=80
20800 On ch=1 n=f3 v=117
20800 On ch=1 n=f4 v=117
20960 Off ch=1 n=f4 v=80
20960 Off ch=1 n=f3 v=80
20960 On ch=1 n=f#3 v=117
20960 On ch=1 n=f#4 v=117
21120 Off ch=1 n=f#4 v=80
21120 Off ch=1 n=f#3 v=80
21120 On ch=1 n=g#3 v=120
21120 On ch=1 n=g#4 v=120
21600 Off ch=1 n=g#4 v=80
21600 Off ch=1 n=g#3 v=80
21600 On ch=1 n=g#3 v=102
21600 On ch=1 n=g#2 v=102
22080 Off ch=1 n=g#2 v=80
22080 Off ch=1 n=g#3 v=80
22080 On ch=1 n=c#4 v=102
22080 On ch=1 n=c#3 v=102
22560 Off ch=1 n=c#3 v=80
22560 Off ch=1 n=c#4 v=80
22560 On ch=1 n=c4 v=102
22560 On ch=1 n=c3 v=102
23040 Off ch=1 n=c3 v=80
23040 Off ch=1 n=c4 v=80
23040 On ch=1 n=a#2 v=127
23040 On ch=1 n=a#3 v=127
23520 Off ch=1 n=a#3 v=80
23520 Off ch=1 n=a#2 v=80
23520 On ch=1 n=d#4 v=102
23680 Off ch=1 n=d#4 v=80
23680 On ch=1 n=f4 v=102
23840 Off ch=1 n=f4 v=80
23840 On ch=1 n=f#4 v=102
24000 Off ch=1 n=f#4 v=80
24000 On ch=1 n=f4 v=102
24480 Off ch=1 n=f4 v=80
24480 On ch=1 n=f#4 v=102
24480 On ch=1 n=d#4 v=102
24480 On ch=1 n=b4 v=102
24960 Off ch=1 n=b4 v=80
24960 Off ch=1 n=d#4 v=80
24960 Off ch=1 n=f#4 v=80
24960 On ch=1 n=f4 v=102
24960 On ch=1 n=d4 v=102
24960 On ch=1 n=a#4 v=102
25440 Off ch=1 n=a#4 v=80
25440 Off ch=1 n=d4 v=80
25440 Off ch=1 n=f4 v=80
25440 On ch=1 n=a#3 v=102
25440 On ch=1 n=a#2 v=102
25600 Off ch=1 n=a#2 v=80
25600 Off ch=1 n=a#3 v=80
25600 On ch=1 n=c4 v=108
25760 Off ch=1 n=c4 v=80
25760 On ch=1 n=c#4 v=114
25920 Off ch=1 n=c#4 v=80
25920 On ch=1 n=e4 v=120
25920 On ch=1 n=e3 v=120
26160 Off ch=1 n=e3 v=80
26160 Off ch=1 n=e4 v=80
26400 On ch=1 n=d#4 v=111
26400 On ch=1 n=d#3 v=111
26880 Off ch=1 n=d#3 v=80
26880 Off ch=1 n=d#4 v=80
26880 On ch=1 n=g#2 v=127
26880 On ch=1 n=g#3 v=127
27360 Off ch=1 n=g#3 v=80
27360 Off ch=1 n=g#2 v=80
27360 On ch=1 n=c#4 v=102
27520 Off ch=1 n=c#4 v=80
27520 On ch=1 n=d#4 v=102
27680 Off ch=1 n=d#4 v=80
27680 On ch=1 n=e4 v=102
27840 Off ch=1 n=e4 v=80
27840 On ch=1 n=d#4 v=102
28320 Off ch=1 n=d#4 v=80
28320 On ch=1 n=e4 v=102
28320 On ch=1 n=c#4 v=102
28320 On ch=1 n=a4 v=102
28800 Off ch=1 n=a4 v=80
28800 Off ch=1 n=c#4 v=80
28800 Off ch=1 n=e4 v=80
28800 On ch=1 n=d#4 v=102
28800 On ch=1 n=c4 v=102
28800 On ch=1 n=g#4 v=102
29280 Off ch=1 n=g#4 v=80
29280 Off ch=1 n=c4 v=80
29280 Off ch=1 n=d#4 v=80
29280 On ch=1 n=g#3 v=102
29280 On ch=1 n=g#2 v=102
29440 Off ch=1 n=g#2 v=80
29440 Off ch=1 n=g#3 v=80
29440 On ch=1 n=a#3 v=108
29600 Off ch=1 n=a#3 v=80
29600 On ch=1 n=b3 v=114
29760 Off ch=1 n=b3 v=80
29760 On ch=1 n=d4 v=120
29760 On ch=1 n=d3 v=120
30000 Off ch=1 n=d3 v=80
30000 Off ch=1 n=d4 v=80
30240 On ch=1 n=c#4 v=111
30240 On ch=1 n=c#3 v=111
30480 Off ch=1 n=c#3 v=80
30480 Off ch=1 n=c#4 v=80
30720 On ch=1 n=f#4 v=114
30720 On ch=1 n=f#3 v=114
30960 Off ch=1 n=f#3 v=80
30960 Off ch=1 n=f#4 v=80
31200 On ch=1 n=e3 v=114
31200 On ch=1 n=e4 v=114
31440 Off ch=1 n=e4 v=80
31440 Off ch=1 n=e3 v=80
31680 On ch=1 n=a3 v=114
31680 On ch=1 n=a2 v=114
32160 Off ch=1 n=a2 v=80
32160 Off ch=1 n=a3 v=80
32160 On ch=1 n=a3 v=114
32160 On ch=1 n=a2 v=114
32320 Off ch=1 n=a2 v=80
32320 Off ch=1 n=a3 v=80
32320 On ch=1 n=b3 v=114
32320 On ch=1 n=b2 v=114
32480 Off ch=1 n=b2 v=80
32480 Off ch=1 n=b3 v=80
32480 On ch=1 n=c#4 v=114
32480 On ch=1 n=c#3 v=114
32640 Off ch=1 n=c#3 v=80
32640 Off ch=1 n=c#4 v=80
32640 On ch=1 n=d3 v=114
32640 On ch=1 n=d4 v=114
33120 Off ch=1 n=d4 v=80
33120 Off ch=1 n=d3 v=80
33120 On ch=1 n=b3 v=114
33120 On ch=1 n=b2 v=114
33600 Off ch=1 n=b2 v=80
33600 Off ch=1 n=b3 v=80
33600 On ch=1 n=c#4 v=114
33600 On ch=1 n=c#3 v=114
33760 Off ch=1 n=c#3 v=80
33760 Off ch=1 n=c#4 v=80
33760 On ch=1 n=d4 v=114
33760 On ch=1 n=d3 v=114
33920 Off ch=1 n=d3 v=80
33920 Off ch=1 n=d4 v=80
33920 On ch=1 n=e3 v=114
33920 On ch=1 n=e4 v=114
34080 Off ch=1 n=e4 v=80
34080 Off ch=1 n=e3 v=80
34080 On ch=1 n=f#3 v=114
34080 On ch=1 n=f#4 v=114
34440 Off ch=1 n=f#4 v=80
34440 Off ch=1 n=f#3 v=80
34560 On ch=1 n=d3 v=108
34560 On ch=1 n=d4 v=108
35040 Off ch=1 n=d4 v=80
35040 Off ch=1 n=d3 v=80
35040 On ch=1 n=c#4 v=111
35040 On ch=1 n=c#3 v=111
35520 Off ch=1 n=c#3 v=80
35520 Off ch=1 n=c#4 v=80
35520 On ch=1 n=b2 v=114
35520 On ch=1 n=b3 v=114
36000 Off ch=1 n=b3 v=80
36000 Off ch=1 n=b2 v=80
36000 On ch=1 n=b3 v=117
36000 On ch=1 n=b2 v=117
36160 Off ch=1 n=b2 v=80
36160 Off ch=1 n=b3 v=80
36160 On ch=1 n=c#3 v=117
36160 On ch=1 n=c#4 v=117
36320 Off ch=1 n=c#4 v=80
36320 Off ch=1 n=c#3 v=80
36320 On ch=1 n=d3 v=117
36320 On ch=1 n=d4 v=117
36480 Off ch=1 n=d4 v=80
36480 Off ch=1 n=d3 v=80
36480 On ch=1 n=e4 v=120
36480 On ch=1 n=e3 v=120
36960 Off ch=1 n=e3 v=80
36960 Off ch=1 n=e4 v=80
36960 On ch=1 n=e2 v=102
36960 On ch=1 n=e3 v=102
37440 Off ch=1 n=e3 v=80
37440 Off ch=1 n=e2 v=80
37440 On ch=1 n=a3 v=102
37440 On ch=1 n=a2 v=102
37920 Off ch=1 n=a2 v=80
37920 Off ch=1 n=a3 v=80
37920 On ch=1 n=g3 v=102
37920 On ch=1 n=g2 v=102
38400 Off ch=1 n=g2 v=80
38400 Off ch=1 n=g3 v=80
38400 On ch=1 n=f2 v=65
38400 On ch=1 n=f3 v=65
38560 On ch=1 n=c4 v=47
38720 Off ch=1 n=c4 v=80
38720 On ch=1 n=f4 v=47
38880 Off ch=1 n=f3 v=80
38880 Off ch=1 n=f2 v=80
38880 Off ch=1 n=f4 v=80
39040 On ch=1 n=f4 v=47
39200 Off ch=1 n=f4 v=80
39200 On ch=1 n=a4 v=47
39360 Off ch=1 n=a4 v=80
39360 On ch=1 n=f3 v=65
39520 On ch=1 n=a4 v=47
39680 Off ch=1 n=a4 v=80
39680 On ch=1 n=c5 v=47
39840 Off ch=1 n=f3 v=80
39840 Off ch=1 n=c5 v=80
39840 On ch=1 n=d3 v=65
40000 On ch=1 n=f4 v=47
40160 Off ch=1 n=f4 v=80
40160 On ch=1 n=b4 v=47
40320 Off ch=1 n=d3 v=80
40320 Off ch=1 n=b4 v=80
40320 On ch=1 n=c3 v=65
40480 On ch=1 n=f4 v=47
40640 Off ch=1 n=f4 v=80
40640 On ch=1 n=c5 v=47
40800 Off ch=1 n=c3 v=80
40800 Off ch=1 n=c5 v=80
40800 On ch=1 n=c3 v=65
40960 On ch=1 n=e4 v=47
41120 Off ch=1 n=e4 v=80
41280 Off ch=1 n=c3 v=80
41280 On ch=1 n=f3 v=65
41440 On ch=1 n=e4 v=47
41600 Off ch=1 n=e4 v=80
41600 On ch=1 n=a#4 v=47
41760 Off ch=1 n=a#4 v=80
41920 On ch=1 n=f4 v=47
42080 Off ch=1 n=f4 v=80
42080 On ch=1 n=a4 v=47
42239 Off ch=1 n=a4 v=80
42240 Off ch=1 n=f3 v=80
42240 On ch=1 n=f3 v=65
42400 On ch=1 n=c4 v=47
42560 Off ch=1 n=c4 v=80
42560 On ch=1 n=f4 v=47
42720 Off ch=1 n=f4 v=80
42880 On ch=1 n=f4 v=47
43040 Off ch=1 n=f4 v=80
43040 On ch=1 n=a4 v=47
43200 Off ch=1 n=f3 v=80
43200 Off ch=1 n=a4 v=80
43200 On ch=1 n=d3 v=65
43360 On ch=1 n=f4 v=47
43520 Off ch=1 n=f4 v=80
43520 On ch=1 n=a4 v=47
43680 Off ch=1 n=d3 v=80
43680 Off ch=1 n=a4 v=80
43680 On ch=1 n=b2 v=65
43840 On ch=1 n=d4 v=47
44000 Off ch=1 n=d4 v=80
44000 On ch=1 n=g#4 v=47
44160 Off ch=1 n=b2 v=80
44160 Off ch=1 n=g#4 v=80
44160 On ch=1 n=c3 v=65
44320 On ch=1 n=c4 v=47
44480 Off ch=1 n=c4 v=80
44480 On ch=1 n=g4 v=47
44640 Off ch=1 n=c3 v=80
44640 Off ch=1 n=g4 v=80
44640 On ch=1 n=g2 v=65
44800 On ch=1 n=b3 v=47
44960 Off ch=1 n=b3 v=80
44960 On ch=1 n=f4 v=47
45120 Off ch=1 n=g2 v=80
45120 Off ch=1 n=f4 v=80
45120 On ch=1 n=c3 v=65
45280 On ch=1 n=c4 v=47
45440 Off ch=1 n=c4 v=80
45440 On ch=1 n=e4 v=47
45600 Off ch=1 n=e4 v=80
45760 On ch=1 n=g3 v=53
45920 Off ch=1 n=g3 v=80
45920 On ch=1 n=e4 v=47
46080 Off ch=1 n=c3 v=80
46080 Off ch=1 n=e4 v=80
46080 On ch=1 n=f2 v=65
46080 On ch=1 n=f3 v=65
46240 On ch=1 n=c4 v=47
46400 Off ch=1 n=c4 v=80
46400 On ch=1 n=f4 v=47
46560 Off ch=1 n=f3 v=80
46560 Off ch=1 n=f2 v=80
46560 Off ch=1 n=f4 v=80
46720 On ch=1 n=f4 v=47
46880 Off ch=1 n=f4 v=80
46880 On ch=1 n=a4 v=47
47040 Off ch=1 n=a4 v=80
47040 On ch=1 n=f3 v=65
47200 On ch=1 n=a4 v=47
47360 Off ch=1 n=a4 v=80
47360 On ch=1 n=c5 v=47
47520 Off ch=1 n=f3 v=80
47520 Off ch=1 n=c5 v=80
47520 On ch=1 n=d3 v=65
47680 On ch=1 n=f4 v=47
47840 Off ch=1 n=f4 v=80
47840 On ch=1 n=b4 v=47
48000 Off ch=1 n=d3 v=80
48000 Off ch=1 n=b4 v=80
48000 On ch=1 n=c3 v=65
48160 On ch=1 n=f4 v=47
48320 Off ch=1 n=f4 v=80
48320 On ch=1 n=c5 v=47
48480 Off ch=1 n=c3 v=80
48480 Off ch=1 n=c5 v=80
48480 On ch=1 n=c3 v=65
48640 On ch=1 n=e4 v=47
48800 Off ch=1 n=e4 v=80
48960 Off ch=1 n=c3 v=80
48960 On ch=1 n=f3 v=65
49120 On ch=1 n=e4 v=47
49280 Off ch=1 n=e4 v=80
49280 On ch=1 n=a#4 v=47
49440 Off ch=1 n=a#4 v=80
49600 On ch=1 n=f4 v=47
49760 Off ch=1 n=f4 v=80
49760 On ch=1 n=a4 v=47
49919 Off ch=1 n=a4 v=80
49920 Off ch=1 n=f3 v=80
49920 On ch=1 n=f3 v=65
50080 On ch=1 n=c4 v=47
50240 Off ch=1 n=c4 v=80
50240 On ch=1 n=f4 v=47
50400 Off ch=1 n=f4 v=80
50560 On ch=1 n=f4 v=47
50720 Off ch=1 n=f4 v=80
50720 On ch=1 n=a4 v=47
50880 Off ch=1 n=f3 v=80
50880 Off ch=1 n=a4 v=80
50880 On ch=1 n=d3 v=65
51040 On ch=1 n=f4 v=47
51200 Off ch=1 n=f4 v=80
51200 On ch=1 n=a4 v=47
51360 Off ch=1 n=d3 v=80
51360 Off ch=1 n=a4 v=80
51360 On ch=1 n=b2 v=65
51520 On ch=1 n=d4 v=47
51680 Off ch=1 n=d4 v=80
51680 On ch=1 n=g#4 v=47
51840 Off ch=1 n=b2 v=80
51840 Off ch=1 n=g#4 v=80
51840 On ch=1 n=c3 v=65
52000 On ch=1 n=c4 v=47
52160 Off ch=1 n=c4 v=80
52160 On ch=1 n=g4 v=47
52320 Off ch=1 n=c3 v=80
52320 Off ch=1 n=g4 v=80
52320 On ch=1 n=g2 v=65
52480 On ch=1 n=b3 v=47
52640 Off ch=1 n=b3 v=80
52640 On ch=1 n=f4 v=47
52800 Off ch=1 n=g2 v=80
52800 Off ch=1 n=f4 v=80
52800 On ch=1 n=c3 v=65
52960 On ch=1 n=c4 v=47
53120 Off ch=1 n=c4 v=80
53120 On ch=1 n=e4 v=47
53280 Off ch=1 n=e4 v=80
53440 On ch=1 n=g3 v=47
53600 Off ch=1 n=g3 v=80
53600 On ch=1 n=e4 v=47
53760 Off ch=1 n=c3 v=80
53760 Off ch=1 n=e4 v=80
53760 On ch=1 n=c3 v=65
53920 On ch=1 n=e4 v=53
54080 Off ch=1 n=e4 v=80
54080 On ch=1 n=a#4 v=53
54240 Off ch=1 n=c3 v=80
54240 Off ch=1 n=a#4 v=80
54240 On ch=1 n=c4 v=65
54400 On ch=1 n=f4 v=53
54560 Off ch=1 n=f4 v=80
54560 On ch=1 n=a#4 v=53
54720 Off ch=1 n=a#4 v=80
54880 On ch=1 n=g4 v=53
55040 Off ch=1 n=g4 v=80
55040 On ch=1 n=a#4 v=53
55200 Off ch=1 n=c4 v=80
55200 Off ch=1 n=a#4 v=80
55200 On ch=1 n=c4 v=65
55360 On ch=1 n=a4 v=53
55520 Off ch=1 n=a4 v=80
55520 On ch=1 n=a#4 v=53
55680 Off ch=1 n=c4 v=80
55680 Off ch=1 n=a#4 v=80
55680 On ch=1 n=c3 v=65
55840 On ch=1 n=a#4 v=53
56000 Off ch=1 n=a#4 v=80
56000 On ch=1 n=d5 v=53
56160 Off ch=1 n=c3 v=80
56160 Off ch=1 n=d5 v=80
56160 On ch=1 n=c4 v=65
56320 On ch=1 n=c5 v=53
56320 On ch=1 n=e5 v=53
56480 Off ch=1 n=e5 v=80
56480 Off ch=1 n=c5 v=80
56640 Off ch=1 n=c4 v=80
56640 On ch=1 n=f3 v=65
56800 On ch=1 n=a#4 v=53
56960 Off ch=1 n=a#4 v=80
56960 On ch=1 n=c5 v=53
57120 Off ch=1 n=f3 v=80
57120 Off ch=1 n=c5 v=80
57280 On ch=1 n=a4 v=53
57440 Off ch=1 n=a4 v=80
57440 On ch=1 n=c5 v=53
57600 Off ch=1 n=c5 v=80
57600 On ch=1 n=f3 v=65
57760 On ch=1 n=a4 v=53
57920 Off ch=1 n=a4 v=80
57920 On ch=1 n=d#5 v=53
58080 Off ch=1 n=f3 v=80
58080 Off ch=1 n=d#5 v=80
58080 On ch=1 n=f4 v=65
58240 On ch=1 n=a#4 v=53
58400 Off ch=1 n=a#4 v=80
58400 On ch=1 n=d#5 v=53
58560 Off ch=1 n=d#5 v=80
58720 On ch=1 n=c5 v=53
58880 Off ch=1 n=c5 v=80
58880 On ch=1 n=d#5 v=53
59040 Off ch=1 n=f4 v=80
59040 Off ch=1 n=d#5 v=80
59040 On ch=1 n=f4 v=65
59200 On ch=1 n=d5 v=53
59360 Off ch=1 n=d5 v=80
59360 On ch=1 n=d#5 v=53
59520 Off ch=1 n=f4 v=80
59520 Off ch=1 n=d#5 v=80
59520 On ch=1 n=f3 v=65
59680 On ch=1 n=d#5 v=53
59840 Off ch=1 n=d#5 v=80
59840 On ch=1 n=g5 v=53
60000 Off ch=1 n=f3 v=80
60000 Off ch=1 n=g5 v=80
60000 On ch=1 n=f4 v=65
60160 On ch=1 n=a5 v=53
60160 On ch=1 n=f5 v=53
60320 Off ch=1 n=f5 v=80
60320 Off ch=1 n=a5 v=80
60480 Off ch=1 n=f4 v=80
60480 On ch=1 n=a#3 v=65
60640 On ch=1 n=d#5 v=53
60800 Off ch=1 n=d#5 v=80
60800 On ch=1 n=f5 v=53
60960 Off ch=1 n=a#3 v=80
60960 Off ch=1 n=f5 v=80
61120 On ch=1 n=d5 v=53
61280 Off ch=1 n=d5 v=80
61280 On ch=1 n=f5 v=53
61440 Off ch=1 n=f5 v=80
61440 On ch=1 n=a#3 v=65
61440 On ch=1 n=f4 v=65
61600 On ch=1 n=a#4 v=53
61760 Off ch=1 n=a#4 v=80
61760 On ch=1 n=d5 v=53
61920 Off ch=1 n=f4 v=80
61920 Off ch=1 n=a#3 v=80
61920 Off ch=1 n=d5 v=80
61920 On ch=1 n=f#4 v=65
61920 On ch=1 n=d4 v=65
62080 On ch=1 n=c5 v=53
62240 Off ch=1 n=c5 v=80
62240 On ch=1 n=d5 v=53
62400 Off ch=1 n=d4 v=80
62400 Off ch=1 n=f#4 v=80
62400 Off ch=1 n=d5 v=80
62400 On ch=1 n=d4 v=65
62400 On ch=1 n=g3 v=65
62560 On ch=1 n=a#4 v=53
62720 Off ch=1 n=a#4 v=80
62720 On ch=1 n=d5 v=53
62880 Off ch=1 n=g3 v=80
62880 Off ch=1 n=d4 v=80
62880 Off ch=1 n=d5 v=80
62880 On ch=1 n=c4 v=65
62880 On ch=1 n=a3 v=65
63040 On ch=1 n=f4 v=53
63200 Off ch=1 n=f4 v=80
63200 On ch=1 n=d5 v=53
63360 Off ch=1 n=a3 v=80
63360 Off ch=1 n=c4 v=80
63360 Off ch=1 n=d5 v=80
63360 On ch=1 n=a#3 v=65
63360 On ch=1 n=d4 v=65
63520 On ch=1 n=g4 v=53
63680 Off ch=1 n=g4 v=80
63680 On ch=1 n=d#5 v=53
63840 Off ch=1 n=d4 v=80
63840 Off ch=1 n=a#3 v=80
63840 Off ch=1 n=d#5 v=80
63840 On ch=1 n=b3 v=65
63840 On ch=1 n=f4 v=65
64000 On ch=1 n=a4 v=53
64160 Off ch=1 n=a4 v=80
64160 On ch=1 n=d#5 v=53
64320 Off ch=1 n=f4 v=80
64320 Off ch=1 n=b3 v=80
64320 Off ch=1 n=d#5 v=80
64320 On ch=1 n=f4 v=65
64320 On ch=1 n=c4 v=65
64480 On ch=1 n=a4 v=53
64640 Off ch=1 n=a4 v=80
64640 On ch=1 n=c5 v=53
64800 Off ch=1 n=f4 v=80
64800 Off ch=1 n=c5 v=80
64800 On ch=1 n=e4 v=65
64960 On ch=1 n=g4 v=53
65120 Off ch=1 n=g4 v=80
65120 On ch=1 n=c5 v=53
65280 Off ch=1 n=c4 v=80
65280 Off ch=1 n=e4 v=80
65280 Off ch=1 n=c5 v=80
65280 On ch=1 n=f#3 v=65
65280 On ch=1 n=c#4 v=65
65440 On ch=1 n=f#4 v=53
65600 Off ch=1 n=f#4 v=80
65600 On ch=1 n=a#4 v=53
65760 Off ch=1 n=a#4 v=80
65920 On ch=1 n=f#4 v=53
66080 Off ch=1 n=f#4 v=80
66080 On ch=1 n=a#4 v=53
66240 Off ch=1 n=a#4 v=80
66400 On ch=1 n=f#4 v=53
66560 Off ch=1 n=f#4 v=80
66560 On ch=1 n=a#4 v=53
66720 Off ch=1 n=c#4 v=80
66720 Off ch=1 n=f#3 v=80
66720 Off ch=1 n=a#4 v=80
66720 On ch=1 n=f#3 v=65
66720 On ch=1 n=c#4 v=65
66880 On ch=1 n=f4 v=53
67040 Off ch=1 n=f4 v=80
67040 On ch=1 n=a#4 v=53
67200 Off ch=1 n=f#3 v=80
67200 Off ch=1 n=a#4 v=80
67200 On ch=1 n=g3 v=65
67360 On ch=1 n=e4 v=53
67520 Off ch=1 n=e4 v=80
67520 On ch=1 n=a#4 v=53
67680 Off ch=1 n=g3 v=80
67680 Off ch=1 n=a#4 v=80
67680 On ch=1 n=f3 v=65
67840 On ch=1 n=f4 v=53
68000 Off ch=1 n=f4 v=80
68000 On ch=1 n=a#4 v=53
68160 Off ch=1 n=f3 v=80
68160 Off ch=1 n=a#4 v=80
68160 On ch=1 n=e3 v=65
68320 On ch=1 n=f#4 v=53
68480 Off ch=1 n=f#4 v=80
68480 On ch=1 n=a#4 v=53
68640 Off ch=1 n=a#4 v=80
68800 On ch=1 n=g4 v=53
68880 Off ch=1 n=c#4 v=80
68880 On ch=1 n=c4 v=65
68960 Off ch=1 n=g4 v=80
68960 On ch=1 n=a#4 v=53
69120 Off ch=1 n=e3 v=80
69120 Off ch=1 n=c4 v=80
69120 Off ch=1 n=a#4 v=80
69120 On ch=1 n=f3 v=65
69280 On ch=1 n=c4 v=47
69440 Off ch=1 n=c4 v=80
69440 On ch=1 n=f4 v=47
69600 Off ch=1 n=f4 v=80
69760 On ch=1 n=f4 v=47
69920 Off ch=1 n=f4 v=80
69920 On ch=1 n=a4 v=47
70080 Off ch=1 n=f3 v=80
70080 Off ch=1 n=a4 v=80
70080 On ch=1 n=d3 v=69
70240 On ch=1 n=a4 v=47
70400 Off ch=1 n=a4 v=80
70400 On ch=1 n=c5 v=47
70560 Off ch=1 n=d3 v=80
70560 Off ch=1 n=c5 v=80
70560 On ch=1 n=c#3 v=73
70720 On ch=1 n=f4 v=47
70880 Off ch=1 n=f4 v=80
70880 On ch=1 n=b4 v=47
71040 Off ch=1 n=c#3 v=80
71040 Off ch=1 n=b4 v=80
71040 On ch=1 n=c3 v=78
71200 On ch=1 n=f4 v=47
71360 Off ch=1 n=f4 v=80
71360 On ch=1 n=c5 v=47
71520 Off ch=1 n=c3 v=80
71520 Off ch=1 n=c5 v=80
71520 On ch=1 n=c3 v=78
71680 On ch=1 n=e4 v=47
71840 Off ch=1 n=e4 v=80
72000 Off ch=1 n=c3 v=80
72000 On ch=1 n=f3 v=78
72160 On ch=1 n=e4 v=47
72320 Off ch=1 n=e4 v=80
72320 On ch=1 n=a#4 v=47
72480 Off ch=1 n=a#4 v=80
72640 On ch=1 n=f4 v=47
72800 Off ch=1 n=f4 v=80
72800 On ch=1 n=a4 v=47
72959 Off ch=1 n=a4 v=80
72960 Off ch=1 n=f3 v=80
72960 On ch=1 n=f3 v=65
73120 On ch=1 n=c4 v=47
73280 Off ch=1 n=c4 v=80
73280 On ch=1 n=f4 v=47
73440 Off ch=1 n=f4 v=80
73600 On ch=1 n=f4 v=47
73760 Off ch=1 n=f4 v=80
73760 On ch=1 n=a4 v=47
73920 Off ch=1 n=f3 v=80
73920 Off ch=1 n=a4 v=80
73920 On ch=1 n=d3 v=65
74080 On ch=1 n=f4 v=47
74240 Off ch=1 n=f4 v=80
74240 On ch=1 n=a4 v=47
74400 Off ch=1 n=d3 v=80
74400 Off ch=1 n=a4 v=80
74400 On ch=1 n=b2 v=65
74560 On ch=1 n=d4 v=47
74720 Off ch=1 n=d4 v=80
74720 On ch=1 n=g#4 v=47
74880 Off ch=1 n=b2 v=80
74880 Off ch=1 n=g#4 v=80
74880 On ch=1 n=c3 v=65
75040 On ch=1 n=c4 v=47
75200 Off ch=1 n=c4 v=80
75200 On ch=1 n=g4 v=47
75360 Off ch=1 n=c3 v=80
75360 Off ch=1 n=g4 v=80
75360 On ch=1 n=g2 v=65
75520 On ch=1 n=b3 v=47
75680 Off ch=1 n=b3 v=80
75680 On ch=1 n=f4 v=47
75840 Off ch=1 n=g2 v=80
75840 Off ch=1 n=f4 v=80
75840 On ch=1 n=c3 v=65
76000 On ch=1 n=c4 v=47
76160 Off ch=1 n=c4 v=80
76160 On ch=1 n=e4 v=47
76320 Off ch=1 n=e4 v=80
76480 On ch=1 n=g3 v=47
76640 Off ch=1 n=g3 v=80
76640 On ch=1 n=e4 v=47
76800 Off ch=1 n=c3 v=80
76800 Off ch=1 n=e4 v=80
76800 On ch=1 n=c3 v=65
76960 On ch=1 n=e4 v=53
77120 Off ch=1 n=e4 v=80
77120 On ch=1 n=a#4 v=53
77280 Off ch=1 n=c3 v=80
77280 Off ch=1 n=a#4 v=80
77280 On ch=1 n=c4 v=65
77440 On ch=1 n=f4 v=53
77600 Off ch=1 n=f4 v=80
77600 On ch=1 n=a#4 v=53
77760 Off ch=1 n=a#4 v=80
77920 On ch=1 n=g4 v=53
78080 Off ch=1 n=g4 v=80
78080 On ch=1 n=a#4 v=53
78240 Off ch=1 n=c4 v=80
78240 Off ch=1 n=a#4 v=80
78240 On ch=1 n=c4 v=65
78400 On ch=1 n=a4 v=53
78560 Off ch=1 n=a4 v=80
78560 On ch=1 n=a#4 v=53
78720 Off ch=1 n=c4 v=80
78720 Off ch=1 n=a#4 v=80
78720 On ch=1 n=c3 v=65
78880 On ch=1 n=a#4 v=53
79040 Off ch=1 n=a#4 v=80
79040 On ch=1 n=d5 v=53
79200 Off ch=1 n=c3 v=80
79200 Off ch=1 n=d5 v=80
79200 On ch=1 n=c4 v=65
79360 On ch=1 n=c5 v=53
79360 On ch=1 n=e5 v=53
79520 Off ch=1 n=e5 v=80
79520 Off ch=1 n=c5 v=80
79680 Off ch=1 n=c4 v=80
79680 On ch=1 n=f3 v=65
79840 On ch=1 n=a#4 v=53
80000 Off ch=1 n=a#4 v=80
80000 On ch=1 n=c5 v=53
80160 Off ch=1 n=f3 v=80
80160 Off ch=1 n=c5 v=80
80320 On ch=1 n=a4 v=53
80480 Off ch=1 n=a4 v=80
80480 On ch=1 n=c5 v=53
80640 Off ch=1 n=c5 v=80
80640 On ch=1 n=f3 v=65
80800 On ch=1 n=a4 v=53
80960 Off ch=1 n=a4 v=80
80960 On ch=1 n=d#5 v=53
81120 Off ch=1 n=f3 v=80
81120 Off ch=1 n=d#5 v=80
81120 On ch=1 n=f4 v=65
81280 On ch=1 n=a#4 v=53
81440 Off ch=1 n=a#4 v=80
81440 On ch=1 n=d#5 v=53
81600 Off ch=1 n=d#5 v=80
81760 On ch=1 n=c5 v=53
81920 Off ch=1 n=c5 v=80
81920 On ch=1 n=d#5 v=53
82080 Off ch=1 n=f4 v=80
82080 Off ch=1 n=d#5 v=80
82080 On ch=1 n=f4 v=65
82240 On ch=1 n=d5 v=53
82400 Off ch=1 n=d5 v=80
82400 On ch=1 n=d#5 v=53
82560 Off ch=1 n=f4 v=80
82560 Off ch=1 n=d#5 v=80
82560 On ch=1 n=f3 v=65
82720 On ch=1 n=d#5 v=53
82880 Off ch=1 n=d#5 v=80
82880 On ch=1 n=g5 v=53
83040 Off ch=1 n=f3 v=80
83040 Off ch=1 n=g5 v=80
83040 On ch=1 n=f4 v=65
83200 On ch=1 n=a5 v=53
83200 On ch=1 n=f5 v=53
83360 Off ch=1 n=f5 v=80
83360 Off ch=1 n=a5 v=80
83520 Off ch=1 n=f4 v=80
83520 On ch=1 n=a#3 v=65
83680 On ch=1 n=d#5 v=53
83840 Off ch=1 n=d#5 v=80
83840 On ch=1 n=f5 v=53
84000 Off ch=1 n=a#3 v=80
84000 Off ch=1 n=f5 v=80
84160 On ch=1 n=d5 v=53
84320 Off ch=1 n=d5 v=80
84320 On ch=1 n=f5 v=53
84480 Off ch=1 n=f5 v=80
84480 On ch=1 n=c#3 v=60
84480 On ch=1 n=g#3 v=60
84640 On ch=1 n=f4 v=53
84800 Off ch=1 n=f4 v=80
84800 On ch=1 n=f5 v=53
84960 Off ch=1 n=f5 v=80
85120 On ch=1 n=f4 v=53
85280 Off ch=1 n=f4 v=80
85280 On ch=1 n=f5 v=53
85440 Off ch=1 n=f5 v=80
85600 On ch=1 n=f4 v=53
85760 Off ch=1 n=f4 v=80
85760 On ch=1 n=f5 v=53
85920 Off ch=1 n=g#3 v=80
85920 Off ch=1 n=c#3 v=80
85920 Off ch=1 n=f5 v=80
85920 On ch=1 n=a3 v=60
85920 On ch=1 n=c#3 v=60
86080 On ch=1 n=f4 v=53
86240 Off ch=1 n=f4 v=80
86240 On ch=1 n=f5 v=53
86400 Off ch=1 n=c#3 v=80
86400 Off ch=1 n=a3 v=80
86400 Off ch=1 n=f5 v=80
86400 On ch=1 n=c#3 v=60
86460 Off ch=1 n=c#3 v=80
86460 On ch=1 n=a#3 v=60
86560 On ch=1 n=f#4 v=53
86720 Off ch=1 n=f#4 v=80
86720 On ch=1 n=f#5 v=53
86880 Off ch=1 n=a#3 v=80
86880 Off ch=1 n=f#5 v=80
86880 On ch=1 n=c4 v=66
87040 On ch=1 n=f#4 v=53
87200 Off ch=1 n=f#4 v=80
87200 On ch=1 n=d#5 v=53
87360 Off ch=1 n=c4 v=80
87360 Off ch=1 n=d#5 v=80
87360 On ch=1 n=c#4 v=72
87520 On ch=1 n=f4 v=53
87680 Off ch=1 n=f4 v=80
87680 On ch=1 n=f5 v=53
87840 Off ch=1 n=c#4 v=80
87840 Off ch=1 n=f5 v=80
88000 On ch=1 n=g#3 v=53
88160 Off ch=1 n=g#3 v=80
88320 On ch=1 n=a3 v=60
88320 On ch=1 n=c3 v=60
88480 Off ch=1 n=a3 v=80
88480 On ch=1 n=c4 v=53
88640 Off ch=1 n=c4 v=80
88640 On ch=1 n=f4 v=53
88800 Off ch=1 n=c3 v=80
88800 Off ch=1 n=f4 v=80
88960 On ch=1 n=f4 v=53
89120 Off ch=1 n=f4 v=80
89120 On ch=1 n=a4 v=53
89280 Off ch=1 n=a4 v=80
89440 On ch=1 n=a4 v=53
89600 Off ch=1 n=a4 v=80
89600 On ch=1 n=c5 v=53
89760 Off ch=1 n=c5 v=80
89760 On ch=1 n=d3 v=60
89920 On ch=1 n=f4 v=53
90080 Off ch=1 n=f4 v=80
90080 On ch=1 n=b4 v=53
90240 Off ch=1 n=d3 v=80
90240 Off ch=1 n=b4 v=80
90240 On ch=1 n=c3 v=65
90400 On ch=1 n=f4 v=53
90560 Off ch=1 n=f4 v=80
90560 On ch=1 n=c5 v=53
90720 Off ch=1 n=c3 v=80
90720 Off ch=1 n=c5 v=80
90720 On ch=1 n=c3 v=65
90880 On ch=1 n=e4 v=53
91040 Off ch=1 n=e4 v=80
91040 On ch=1 n=a#4 v=53
91200 Off ch=1 n=c3 v=80
91200 Off ch=1 n=a#4 v=80
91200 On ch=1 n=f3 v=53
91200 On ch=1 n=c4 v=53
91360 On ch=1 n=f4 v=53
91520 Off ch=1 n=f4 v=80
91520 On ch=1 n=a4 v=53
91680 Off ch=1 n=a4 v=80
91840 On ch=1 n=f4 v=47
92000 Off ch=1 n=f4 v=80
92000 On ch=1 n=a4 v=47
92160 Off ch=1 n=c4 v=80
92160 Off ch=1 n=f3 v=80
92160 Off ch=1 n=a4 v=80
92160 On ch=1 n=a3 v=102
92160 On ch=1 n=d3 v=102
92280 Off ch=1 n=d3 v=80
92280 Off ch=1 n=a3 v=80
92640 On ch=1 n=c4 v=102
92640 On ch=1 n=c3 v=102
92760 Off ch=1 n=c3 v=80
92760 Off ch=1 n=c4 v=80
93120 On ch=1 n=f2 v=102
93120 On ch=1 n=f3 v=102
93600 Off ch=1 n=f3 v=80
93600 Off ch=1 n=f2 v=80
93600 On ch=1 n=f3 v=102
93600 On ch=1 n=f2 v=102
93760 Off ch=1 n=f2 v=80
93760 Off ch=1 n=f3 v=80
93760 On ch=1 n=g2 v=102
93760 On ch=1 n=g3 v=102
93920 Off ch=1 n=g3 v=80
93920 Off ch=1 n=g2 v=80
93920 On ch=1 n=a2 v=102
93920 On ch=1 n=a3 v=102
94080 Off ch=1 n=a3 v=80
94080 Off ch=1 n=a2 v=80
94080 On ch=1 n=a#2 v=102
94080 On ch=1 n=a#3 v=102
94560 Off ch=1 n=a#3 v=80
94560 Off ch=1 n=a#2 v=80
94560 On ch=1 n=g2 v=102
94560 On ch=1 n=g3 v=102
95040 Off ch=1 n=g3 v=80
95040 Off ch=1 n=g2 v=80
95040 On ch=1 n=a2 v=102
95040 On ch=1 n=a3 v=102
95200 Off ch=1 n=a3 v=80
95200 Off ch=1 n=a2 v=80
95200 On ch=1 n=a#3 v=102
95200 On ch=1 n=a#2 v=102
95360 Off ch=1 n=a#2 v=80
95360 Off ch=1 n=a#3 v=80
95360 On ch=1 n=c3 v=102
95360 On ch=1 n=c4 v=102
95520 Off ch=1 n=c4 v=80
95520 Off ch=1 n=c3 v=80
95520 On ch=1 n=d4 v=105
95520 On ch=1 n=d3 v=105
95880 Off ch=1 n=d3 v=80
95880 Off ch=1 n=d4 v=80
96000 On ch=1 n=a#2 v=108
96000 On ch=1 n=a#3 v=108
96480 Off ch=1 n=a#3 v=80
96480 Off ch=1 n=a#2 v=80
96480 On ch=1 n=a3 v=111
96480 On ch=1 n=a2 v=111
96960 Off ch=1 n=a2 v=80
96960 Off ch=1 n=a3 v=80
96960 On ch=1 n=g3 v=114
96960 On ch=1 n=g2 v=114
97440 Off ch=1 n=g2 v=80
97440 Off ch=1 n=g3 v=80
97440 On ch=1 n=g2 v=117
97440 On ch=1 n=g3 v=117
97600 Off ch=1 n=g3 v=80
97600 Off ch=1 n=g2 v=80
97600 On ch=1 n=a2 v=117
97600 On ch=1 n=a3 v=117
97760 Off ch=1 n=a3 v=80
97760 Off ch=1 n=a2 v=80
97760 On ch=1 n=a#2 v=117
97760 On ch=1 n=a#3 v=117
97920 Off ch=1 n=a#3 v=80
97920 Off ch=1 n=a#2 v=80
97920 On ch=1 n=c3 v=120
97920 On ch=1 n=c4 v=120
98400 Off ch=1 n=c4 v=80
98400 Off ch=1 n=c3 v=80
98400 On ch=1 n=c3 v=102
98400 On ch=1 n=c2 v=102
98880 Off ch=1 n=c2 v=80
98880 Off ch=1 n=c3 v=80
98880 On ch=1 n=f3 v=102
98880 On ch=1 n=f2 v=102
99360 Off ch=1 n=f2 v=80
99360 Off ch=1 n=f3 v=80
99360 On ch=1 n=g2 v=102
99360 On ch=1 n=g3 v=102
99840 Off ch=1 n=g3 v=80
99840 Off ch=1 n=g2 v=80
99840 On ch=1 n=a3 v=127
99840 On ch=1 n=a2 v=127
100320 Off ch=1 n=a2 v=80
100320 Off ch=1 n=a3 v=80
100320 On ch=1 n=d4 v=102
100480 Off ch=1 n=d4 v=80
100480 On ch=1 n=e4 v=102
100640 Off ch=1 n=e4 v=80
100640 On ch=1 n=f4 v=102
100800 Off ch=1 n=f4 v=80
100800 On ch=1 n=e4 v=102
101280 Off ch=1 n=e4 v=80
101280 On ch=1 n=f4 v=102
101280 On ch=1 n=d4 v=102
101280 On ch=1 n=a#4 v=102
101760 Off ch=1 n=a#4 v=80
101760 Off ch=1 n=d4 v=80
101760 Off ch=1 n=f4 v=80
101760 On ch=1 n=a4 v=102
101760 On ch=1 n=c#4 v=102
101760 On ch=1 n=e4 v=102
102240 Off ch=1 n=e4 v=80
102240 Off ch=1 n=c#4 v=80
102240 Off ch=1 n=a4 v=80
102240 On ch=1 n=a3 v=102
102240 On ch=1 n=a2 v=102
102400 Off ch=1 n=a2 v=80
102400 Off ch=1 n=a3 v=80
102400 On ch=1 n=b3 v=108
102560 Off ch=1 n=b3 v=80
102560 On ch=1 n=c4 v=114
102720 Off ch=1 n=c4 v=80
102720 On ch=1 n=d#4 v=120
102720 On ch=1 n=d#3 v=120
102960 Off ch=1 n=d#3 v=80
102960 Off ch=1 n=d#4 v=80
103200 On ch=1 n=d4 v=111
103200 On ch=1 n=d3 v=111
103680 Off ch=1 n=d3 v=80
103680 Off ch=1 n=d4 v=80
103680 On ch=1 n=g3 v=127
103680 On ch=1 n=g2 v=127
104160 Off ch=1 n=g2 v=80
104160 Off ch=1 n=g3 v=80
104160 On ch=1 n=c4 v=102
104320 Off ch=1 n=c4 v=80
104320 On ch=1 n=d4 v=102
104480 Off ch=1 n=d4 v=80
104480 On ch=1 n=d#4 v=102
104640 Off ch=1 n=d#4 v=80
104640 On ch=1 n=d4 v=102
105120 Off ch=1 n=d4 v=80
105120 On ch=1 n=d#4 v=102
105120 On ch=1 n=c4 v=102
105120 On ch=1 n=g#4 v=102
105600 Off ch=1 n=g#4 v=80
105600 Off ch=1 n=c4 v=80
105600 Off ch=1 n=d#4 v=80
105600 On ch=1 n=g4 v=102
105600 On ch=1 n=b3 v=102
105600 On ch=1 n=d4 v=102
106080 Off ch=1 n=d4 v=80
106080 Off ch=1 n=b3 v=80
106080 Off ch=1 n=g4 v=80
106080 On ch=1 n=g3 v=102
106080 On ch=1 n=g2 v=102
106240 Off ch=1 n=g2 v=80
106240 Off ch=1 n=g3 v=80
106240 On ch=1 n=a3 v=108
106400 Off ch=1 n=a3 v=80
106400 On ch=1 n=a#3 v=114
106560 Off ch=1 n=a#3 v=80
106560 On ch=1 n=c#4 v=120
106560 On ch=1 n=c#3 v=120
106800 Off ch=1 n=c#3 v=80
106800 Off ch=1 n=c#4 v=80
107040 On ch=1 n=c4 v=111
107040 On ch=1 n=c3 v=111
107280 Off ch=1 n=c3 v=80
107280 Off ch=1 n=c4 v=80
107520 On ch=1 n=f3 v=114
107520 On ch=1 n=f4 v=114
107760 Off ch=1 n=f4 v=80
107760 Off ch=1 n=f3 v=80
108000 On ch=1 n=e3 v=114
108000 On ch=1 n=e4 v=114
108240 Off ch=1 n=e4 v=80
108240 Off ch=1 n=e3 v=80
108480 On ch=1 n=d3 v=114
108480 On ch=1 n=d4 v=114
108960 Off ch=1 n=d4 v=80
108960 Off ch=1 n=d3 v=80
108960 On ch=1 n=d4 v=114
108960 On ch=1 n=d3 v=114
109120 Off ch=1 n=d3 v=80
109120 Off ch=1 n=d4 v=80
109120 On ch=1 n=e4 v=114
109120 On ch=1 n=e3 v=117
109280 Off ch=1 n=e3 v=80
109280 Off ch=1 n=e4 v=80
109280 On ch=1 n=f4 v=120
109280 On ch=1 n=f3 v=123
109440 Off ch=1 n=f3 v=80
109440 Off ch=1 n=f4 v=80
109440 On ch=1 n=g3 v=127
109440 On ch=1 n=g4 v=127
109920 Off ch=1 n=g4 v=80
109920 Off ch=1 n=g3 v=80
109920 On ch=1 n=g#4 v=114
109920 On ch=1 n=g#3 v=114
110080 Off ch=1 n=g#3 v=80
110080 Off ch=1 n=g#4 v=80
110080 On ch=1 n=a4 v=114
110080 On ch=1 n=a3 v=117
110240 Off ch=1 n=a3 v=80
110240 Off ch=1 n=a4 v=80
110240 On ch=1 n=b4 v=120
110240 On ch=1 n=b3 v=123
110400 Off ch=1 n=b3 v=80
110400 Off ch=1 n=b4 v=80
110400 On ch=1 n=a4 v=127
110400 On ch=1 n=a3 v=127
110880 Off ch=1 n=a3 v=80
110880 Off ch=1 n=a4 v=80
110880 On ch=1 n=f3 v=114
110880 On ch=1 n=f2 v=114
111040 Off ch=1 n=f2 v=80
111040 Off ch=1 n=f3 v=80
111040 On ch=1 n=g3 v=114
111040 On ch=1 n=g2 v=117
111200 Off ch=1 n=g2 v=80
111200 Off ch=1 n=g3 v=80
111200 On ch=1 n=a3 v=120
111200 On ch=1 n=a2 v=123
111360 Off ch=1 n=a2 v=80
111360 Off ch=1 n=a3 v=80
111360 On ch=1 n=a#3 v=127
111360 On ch=1 n=a#2 v=127
111840 Off ch=1 n=a#2 v=80
111840 Off ch=1 n=a#3 v=80
111840 On ch=1 n=g3 v=114
111840 On ch=1 n=g4 v=114
112000 Off ch=1 n=g4 v=80
112000 Off ch=1 n=g3 v=80
112000 On ch=1 n=a4 v=114
112000 On ch=1 n=a3 v=117
112160 Off ch=1 n=a3 v=80
112160 Off ch=1 n=a4 v=80
112160 On ch=1 n=a#4 v=120
112160 On ch=1 n=a#3 v=123
112320 Off ch=1 n=a#3 v=80
112320 Off ch=1 n=a#4 v=80
112320 On ch=1 n=b4 v=127
112320 On ch=1 n=b3 v=127
112800 Off ch=1 n=b3 v=80
112800 Off ch=1 n=b4 v=80
112800 On ch=1 n=g3 v=114
112800 On ch=1 n=g2 v=114
112960 Off ch=1 n=g2 v=80
112960 Off ch=1 n=g3 v=80
112960 On ch=1 n=a3 v=114
112960 On ch=1 n=a2 v=117
113120 Off ch=1 n=a2 v=80
113120 Off ch=1 n=a3 v=80
113120 On ch=1 n=b3 v=120
113120 On ch=1 n=b2 v=123
113280 Off ch=1 n=b2 v=80
113280 Off ch=1 n=b3 v=80
113280 On ch=1 n=c4 v=127
113280 On ch=1 n=c3 v=127
113520 Off ch=1 n=c3 v=80
113520 Off ch=1 n=c4 v=80
113760 On ch=1 n=c3 v=127
113760 On ch=1 n=c2 v=127
114120 Off ch=1 n=c2 v=80
114120 Off ch=1 n=c3 v=80
114240 On ch=1 n=f3 v=127
114240 On ch=1 n=f2 v=127
114720 Off ch=1 n=f2 v=80
114720 Off ch=1 n=f3 v=80
114720 On ch=1 n=d#4 v=90
115440 Off ch=1 n=d#4 v=80
115440 On ch=1 n=c#4 v=78
115680 Off ch=1 n=c#4 v=80
115680 On ch=1 n=c4 v=78
115920 Off ch=1 n=c4 v=80
115920 On ch=1 n=a#3 v=78
116160 Off ch=1 n=a#3 v=80
116160 On ch=1 n=g#3 v=78
118080 On ch=1 n=f#4 v=78
119520 Off ch=1 n=f#4 v=80
119520 On ch=1 n=c4 v=78
120000 Off ch=1 n=c4 v=80
120000 On ch=1 n=c#4 v=78
120360 Off ch=1 n=g#3 v=80
120360 On ch=1 n=g#3 v=90
120480 Off ch=1 n=c#4 v=80
120480 On ch=1 n=d#4 v=90
121200 Off ch=1 n=g#3 v=80
121200 Off ch=1 n=d#4 v=80
121200 On ch=1 n=c#4 v=78
121440 Off ch=1 n=c#4 v=80
121440 On ch=1 n=c4 v=78
121680 Off ch=1 n=c4 v=80
121680 On ch=1 n=a#3 v=78
121920 Off ch=1 n=a#3 v=80
121920 On ch=1 n=g#3 v=78
123840 On ch=1 n=f#4 v=78
125280 Off ch=1 n=f#4 v=80
125280 On ch=1 n=c4 v=78
125760 Off ch=1 n=c4 v=80
125760 On ch=1 n=c#4 v=78
126120 Off ch=1 n=g#3 v=80
126120 On ch=1 n=g#3 v=90
126240 Off ch=1 n=c#4 v=80
126240 On ch=1 n=d#4 v=90
126960 Off ch=1 n=g#3 v=80
126960 Off ch=1 n=d#4 v=80
126960 On ch=1 n=f#3 v=78
127200 Off ch=1 n=f#3 v=80
127200 On ch=1 n=f3 v=78
127440 Off ch=1 n=f3 v=80
127440 On ch=1 n=d#3 v=78
127680 Off ch=1 n=d#3 v=80
127680 On ch=1 n=d3 v=78
128640 Off ch=1 n=d3 v=80
128640 On ch=1 n=f#3 v=78
128640 On ch=1 n=d#3 v=78
129600 Off ch=1 n=d#3 v=80
129600 Off ch=1 n=f#3 v=80
129600 On ch=1 n=g#3 v=78
129600 On ch=1 n=g#2 v=78
130800 Off ch=1 n=g#2 v=80
130800 Off ch=1 n=g#3 v=80
130800 On ch=1 n=f#3 v=75
130800 On ch=1 n=f#2 v=75
131040 Off ch=1 n=f#2 v=80
131040 Off ch=1 n=f#3 v=80
131040 On ch=1 n=f3 v=72
131040 On ch=1 n=f2 v=72
131280 Off ch=1 n=f2 v=80
131280 Off ch=1 n=f3 v=80
131280 On ch=1 n=d#3 v=69
131280 On ch=1 n=d#2 v=69
131520 Off ch=1 n=d#2 v=80
131520 Off ch=1 n=d#3 v=80
131520 On ch=1 n=d3 v=65
131520 On ch=1 n=d2 v=65
132000 Off ch=1 n=d2 v=80
132000 Off ch=1 n=d3 v=80
132480 On ch=1 n=d#3 v=78
132480 On ch=1 n=d#2 v=78
133440 Off ch=1 n=d#2 v=80
133440 Off ch=1 n=d#3 v=80
133440 On ch=1 n=g#3 v=78
133440 On ch=1 n=g#2 v=78
134400 Off ch=1 n=g#2 v=80
134400 On ch=1 n=c#3 v=83
134880 Off ch=1 n=c#3 v=80
134880 On ch=1 n=f3 v=88
135360 Off ch=1 n=g#3 v=80
135360 Off ch=1 n=f3 v=80
135360 On ch=1 n=f#3 v=93
135840 Off ch=1 n=f#3 v=80
135840 On ch=1 n=a#3 v=98
136320 Off ch=1 n=a#3 v=80
136320 On ch=1 n=c4 v=102
136800 Off ch=1 n=c4 v=80
136800 On ch=1 n=d#4 v=102
137280 Off ch=1 n=d#4 v=80
137280 On ch=1 n=f4 v=94
137520 Off ch=1 n=f4 v=80
137520 On ch=1 n=e4 v=86
137760 Off ch=1 n=e4 v=80
137760 On ch=1 n=d#4 v=90
138480 Off ch=1 n=d#4 v=80
138480 On ch=1 n=c#4 v=78
138720 Off ch=1 n=c#4 v=80
138720 On ch=1 n=c4 v=78
138960 Off ch=1 n=c4 v=80
138960 On ch=1 n=a#3 v=78
139200 Off ch=1 n=a#3 v=80
139200 On ch=1 n=g#3 v=78
141120 On ch=1 n=f#4 v=78
142560 Off ch=1 n=f#4 v=80
142560 On ch=1 n=c4 v=78
143040 Off ch=1 n=c4 v=80
143040 On ch=1 n=c#4 v=78
143400 Off ch=1 n=g#3 v=80
143400 On ch=1 n=g#3 v=90
143520 Off ch=1 n=c#4 v=80
143520 On ch=1 n=d#4 v=90
144240 Off ch=1 n=g#3 v=80
144240 Off ch=1 n=d#4 v=80
144240 On ch=1 n=f#3 v=78
144480 Off ch=1 n=f#3 v=80
144480 On ch=1 n=f3 v=78
144720 Off ch=1 n=f3 v=80
144720 On ch=1 n=d#3 v=78
144960 Off ch=1 n=d#3 v=80
144960 On ch=1 n=d3 v=78
145920 Off ch=1 n=d3 v=80
145920 On ch=1 n=f#3 v=78
145920 On ch=1 n=d#3 v=78
146880 Off ch=1 n=d#3 v=80
146880 Off ch=1 n=f#3 v=80
146880 On ch=1 n=g#3 v=78
146880 On ch=1 n=g#2 v=78
148080 Off ch=1 n=g#2 v=80
148080 Off ch=1 n=g#3 v=80
148080 On ch=1 n=f#3 v=75
148080 On ch=1 n=f#2 v=75
148320 Off ch=1 n=f#2 v=80
148320 Off ch=1 n=f#3 v=80
148320 On ch=1 n=f3 v=72
148320 On ch=1 n=f2 v=72
148560 Off ch=1 n=f2 v=80
148560 Off ch=1 n=f3 v=80
148560 On ch=1 n=d#3 v=69
148560 On ch=1 n=d#2 v=69
148800 Off ch=1 n=d#2 v=80
148800 Off ch=1 n=d#3 v=80
148800 On ch=1 n=d3 v=65
148800 On ch=1 n=d2 v=65
149280 Off ch=1 n=d2 v=80
149280 Off ch=1 n=d3 v=80
149760 On ch=1 n=d#3 v=78
149760 On ch=1 n=d#2 v=78
150720 Off ch=1 n=d#2 v=80
150720 Off ch=1 n=d#3 v=80
150720 On ch=1 n=g#3 v=78
150720 On ch=1 n=g#2 v=78
151680 Off ch=1 n=g#2 v=80
151680 On ch=1 n=c#3 v=78
152160 Off ch=1 n=c#3 v=80
152160 On ch=1 n=f3 v=78
152640 Off ch=1 n=g#3 v=80
152640 Off ch=1 n=f3 v=80
152640 On ch=1 n=f#3 v=78
153120 Off ch=1 n=f#3 v=80
153120 On ch=1 n=a#3 v=78
153600 Off ch=1 n=a#3 v=80
153600 On ch=1 n=c4 v=84
154080 Off ch=1 n=c4 v=80
154080 On ch=1 n=d#4 v=90
154560 Off ch=1 n=d#4 v=80
154560 On ch=1 n=f4 v=96
154800 Off ch=1 n=f4 v=80
154800 On ch=1 n=f3 v=102
154800 On ch=1 n=f2 v=102
154920 Off ch=1 n=f2 v=80
154920 Off ch=1 n=f3 v=80
155040 On ch=1 n=g2 v=102
155040 On ch=1 n=g3 v=102
155160 Off ch=1 n=g3 v=80
155160 Off ch=1 n=g2 v=80
155280 On ch=1 n=a3 v=102
155280 On ch=1 n=a2 v=102
155400 Off ch=1 n=a2 v=80
155400 Off ch=1 n=a3 v=80
155520 On ch=1 n=a#2 v=102
155520 On ch=1 n=a#3 v=102
155760 Off ch=1 n=a#3 v=80
155760 Off ch=1 n=a#2 v=80
156000 On ch=1 n=g#3 v=102
156000 On ch=1 n=g#2 v=102
156240 Off ch=1 n=g#2 v=80
156240 Off ch=1 n=g#3 v=80
156480 On ch=1 n=c#3 v=102
156480 On ch=1 n=c#4 v=102
156960 Off ch=1 n=c#4 v=80
156960 Off ch=1 n=c#3 v=80
156960 On ch=1 n=c#4 v=105
156960 On ch=1 n=c#3 v=105
157120 Off ch=1 n=c#3 v=80
157120 Off ch=1 n=c#4 v=80
157120 On ch=1 n=d#4 v=108
157120 On ch=1 n=d#3 v=108
157280 Off ch=1 n=d#3 v=80
157280 Off ch=1 n=d#4 v=80
157280 On ch=1 n=f4 v=111
157280 On ch=1 n=f3 v=111
157440 Off ch=1 n=f3 v=80
157440 Off ch=1 n=f4 v=80
157440 On ch=1 n=f#4 v=114
157440 On ch=1 n=f#3 v=114
157920 Off ch=1 n=f#3 v=80
157920 Off ch=1 n=f#4 v=80
157920 On ch=1 n=d#3 v=102
157920 On ch=1 n=d#4 v=102
158400 Off ch=1 n=d#4 v=80
158400 Off ch=1 n=d#3 v=80
158400 On ch=1 n=f4 v=105
158400 On ch=1 n=f3 v=105
158560 Off ch=1 n=f3 v=80
158560 Off ch=1 n=f4 v=80
158560 On ch=1 n=f#3 v=108
158560 On ch=1 n=f#4 v=108
158720 Off ch=1 n=f#4 v=80
158720 Off ch=1 n=f#3 v=80
158720 On ch=1 n=g#4 v=111
158720 On ch=1 n=g#3 v=111
158880 Off ch=1 n=g#3 v=80
158880 Off ch=1 n=g#4 v=80
158880 On ch=1 n=a#3 v=114
158880 On ch=1 n=a#4 v=114
159240 Off ch=1 n=a#4 v=80
159240 Off ch=1 n=a#3 v=80
159360 On ch=1 n=f#3 v=102
159360 On ch=1 n=f#4 v=102
159840 Off ch=1 n=f#4 v=80
159840 Off ch=1 n=f#3 v=80
159840 On ch=1 n=f3 v=102
159840 On ch=1 n=f4 v=102
160320 Off ch=1 n=f4 v=80
160320 Off ch=1 n=f3 v=80
160320 On ch=1 n=d#3 v=102
160320 On ch=1 n=d#4 v=102
160800 Off ch=1 n=d#4 v=80
160800 Off ch=1 n=d#3 v=80
160800 On ch=1 n=d#3 v=106
160800 On ch=1 n=d#4 v=106
160960 Off ch=1 n=d#4 v=80
160960 Off ch=1 n=d#3 v=80
160960 On ch=1 n=f4 v=111
160960 On ch=1 n=f3 v=111
161120 Off ch=1 n=f3 v=80
161120 Off ch=1 n=f4 v=80
161120 On ch=1 n=f#3 v=115
161120 On ch=1 n=f#4 v=115
161280 Off ch=1 n=f#4 v=80
161280 Off ch=1 n=f#3 v=80
161280 On ch=1 n=g#3 v=120
161280 On ch=1 n=g#4 v=120
161760 Off ch=1 n=g#4 v=80
161760 Off ch=1 n=g#3 v=80
161760 On ch=1 n=g#2 v=102
161760 On ch=1 n=g#3 v=102
162240 Off ch=1 n=g#3 v=80
162240 Off ch=1 n=g#2 v=80
162240 On ch=1 n=c#3 v=102
162240 On ch=1 n=c#4 v=102
162720 Off ch=1 n=c#4 v=80
162720 Off ch=1 n=c#3 v=80
162720 On ch=1 n=b3 v=102
162720 On ch=1 n=b2 v=102
163200 Off ch=1 n=b2 v=80
163200 Off ch=1 n=b3 v=80
163200 On ch=1 n=a3 v=65
163200 On ch=1 n=a2 v=65
163360 On ch=1 n=e4 v=47
163520 Off ch=1 n=e4 v=80
163520 On ch=1 n=a4 v=47
163680 Off ch=1 n=a2 v=80
163680 Off ch=1 n=a3 v=80
163680 Off ch=1 n=a4 v=80
163840 On ch=1 n=a4 v=47
164000 Off ch=1 n=a4 v=80
164000 On ch=1 n=c#5 v=47
164160 Off ch=1 n=c#5 v=80
164160 On ch=1 n=a3 v=65
164320 On ch=1 n=c#5 v=47
164480 Off ch=1 n=c#5 v=80
164480 On ch=1 n=e5 v=47
164640 Off ch=1 n=a3 v=80
164640 Off ch=1 n=e5 v=80
164640 On ch=1 n=f#3 v=65
164800 On ch=1 n=a4 v=47
164960 Off ch=1 n=a4 v=80
164960 On ch=1 n=d#5 v=47
165120 Off ch=1 n=f#3 v=80
165120 Off ch=1 n=d#5 v=80
165120 On ch=1 n=e3 v=65
165280 On ch=1 n=a4 v=47
165440 Off ch=1 n=a4 v=80
165440 On ch=1 n=e5 v=47
165600 Off ch=1 n=e3 v=80
165600 Off ch=1 n=e5 v=80
165600 On ch=1 n=e3 v=65
165760 On ch=1 n=g#4 v=47
165920 Off ch=1 n=g#4 v=80
166080 Off ch=1 n=e3 v=80
166080 On ch=1 n=a3 v=65
166240 On ch=1 n=g#4 v=47
166400 Off ch=1 n=g#4 v=80
166400 On ch=1 n=d5 v=47
166560 Off ch=1 n=d5 v=80
166720 On ch=1 n=a4 v=47
166880 Off ch=1 n=a4 v=80
166880 On ch=1 n=c#5 v=47
167039 Off ch=1 n=c#5 v=80
167040 Off ch=1 n=a3 v=80
167040 On ch=1 n=a3 v=65
167200 On ch=1 n=e4 v=47
167360 Off ch=1 n=e4 v=80
167360 On ch=1 n=a4 v=47
167520 Off ch=1 n=a4 v=80
167680 On ch=1 n=a4 v=47
167840 Off ch=1 n=a4 v=80
167840 On ch=1 n=c#5 v=47
168000 Off ch=1 n=a3 v=80
168000 Off ch=1 n=c#5 v=80
168000 On ch=1 n=f#3 v=65
168160 On ch=1 n=a4 v=47
168320 Off ch=1 n=a4 v=80
168320 On ch=1 n=c#5 v=47
168480 Off ch=1 n=f#3 v=80
168480 Off ch=1 n=c#5 v=80
168480 On ch=1 n=d#3 v=65
168640 On ch=1 n=f#4 v=47
168800 Off ch=1 n=f#4 v=80
168800 On ch=1 n=c5 v=47
168960 Off ch=1 n=d#3 v=80
168960 Off ch=1 n=c5 v=80
168960 On ch=1 n=e3 v=65
169120 On ch=1 n=e4 v=47
169280 Off ch=1 n=e4 v=80
169280 On ch=1 n=b4 v=47
169440 Off ch=1 n=e3 v=80
169440 Off ch=1 n=b4 v=80
169440 On ch=1 n=b2 v=65
169600 On ch=1 n=d#4 v=47
169760 Off ch=1 n=d#4 v=80
169760 On ch=1 n=a4 v=47
169920 Off ch=1 n=b2 v=80
169920 Off ch=1 n=a4 v=80
169920 On ch=1 n=e3 v=65
170080 On ch=1 n=e4 v=47
170240 Off ch=1 n=e4 v=80
170240 On ch=1 n=g#4 v=47
170400 Off ch=1 n=g#4 v=80
170560 On ch=1 n=b3 v=53
170720 Off ch=1 n=b3 v=80
170720 On ch=1 n=g#4 v=47
170880 Off ch=1 n=e3 v=80
170880 Off ch=1 n=g#4 v=80
170880 On ch=1 n=a3 v=65
170880 On ch=1 n=a2 v=65
171040 On ch=1 n=e4 v=47
171200 Off ch=1 n=e4 v=80
171200 On ch=1 n=a4 v=47
171360 Off ch=1 n=a2 v=80
171360 Off ch=1 n=a3 v=80
171360 Off ch=1 n=a4 v=80
171520 On ch=1 n=a4 v=47
171680 Off ch=1 n=a4 v=80
171680 On ch=1 n=c#5 v=47
171840 Off ch=1 n=c#5 v=80
171840 On ch=1 n=a3 v=65
172000 On ch=1 n=c#5 v=47
172160 Off ch=1 n=c#5 v=80
172160 On ch=1 n=e5 v=47
172320 Off ch=1 n=a3 v=80
172320 Off ch=1 n=e5 v=80
172320 On ch=1 n=f#3 v=65
172480 On ch=1 n=a4 v=47
172640 Off ch=1 n=a4 v=80
172640 On ch=1 n=d#5 v=47
172800 Off ch=1 n=f#3 v=80
172800 Off ch=1 n=d#5 v=80
172800 On ch=1 n=e3 v=65
172960 On ch=1 n=a4 v=47
173120 Off ch=1 n=a4 v=80
173120 On ch=1 n=e5 v=47
173280 Off ch=1 n=e3 v=80
173280 Off ch=1 n=e5 v=80
173280 On ch=1 n=e3 v=65
173440 On ch=1 n=g#4 v=47
173600 Off ch=1 n=g#4 v=80
173760 Off ch=1 n=e3 v=80
173760 On ch=1 n=a3 v=65
173920 On ch=1 n=g#4 v=47
174080 Off ch=1 n=g#4 v=80
174080 On ch=1 n=d5 v=47
174240 Off ch=1 n=d5 v=80
174400 On ch=1 n=a4 v=47
174560 Off ch=1 n=a4 v=80
174560 On ch=1 n=c#5 v=47
174719 Off ch=1 n=c#5 v=80
174720 Off ch=1 n=a3 v=80
174720 On ch=1 n=a3 v=65
174880 On ch=1 n=e4 v=47
175040 Off ch=1 n=e4 v=80
175040 On ch=1 n=a4 v=47
175200 Off ch=1 n=a4 v=80
175360 On ch=1 n=a4 v=47
175520 Off ch=1 n=a4 v=80
175520 On ch=1 n=c#5 v=47
175680 Off ch=1 n=a3 v=80
175680 Off ch=1 n=c#5 v=80
175680 On ch=1 n=f#3 v=65
175840 On ch=1 n=a4 v=47
176000 Off ch=1 n=a4 v=80
176000 On ch=1 n=c#5 v=47
176160 Off ch=1 n=f#3 v=80
176160 Off ch=1 n=c#5 v=80
176160 On ch=1 n=d#3 v=65
176320 On ch=1 n=f#4 v=47
176480 Off ch=1 n=f#4 v=80
176480 On ch=1 n=c5 v=47
176640 Off ch=1 n=d#3 v=80
176640 Off ch=1 n=c5 v=80
176640 On ch=1 n=e3 v=65
176800 On ch=1 n=e4 v=47
176960 Off ch=1 n=e4 v=80
176960 On ch=1 n=b4 v=47
177120 Off ch=1 n=e3 v=80
177120 Off ch=1 n=b4 v=80
177120 On ch=1 n=b2 v=65
177280 On ch=1 n=d#4 v=47
177440 Off ch=1 n=d#4 v=80
177440 On ch=1 n=a4 v=47
177600 Off ch=1 n=b2 v=80
177600 Off ch=1 n=a4 v=80
177600 On ch=1 n=e3 v=65
177760 On ch=1 n=e4 v=47
177920 Off ch=1 n=e4 v=80
177920 On ch=1 n=g#4 v=47
178080 Off ch=1 n=g#4 v=80
178240 On ch=1 n=b3 v=47
178400 Off ch=1 n=b3 v=80
178400 On ch=1 n=g#4 v=47
178560 Off ch=1 n=e3 v=80
178560 Off ch=1 n=g#4 v=80
178560 On ch=1 n=e3 v=65
178720 On ch=1 n=g#4 v=53
178880 Off ch=1 n=g#4 v=80
178880 On ch=1 n=d5 v=53
179040 Off ch=1 n=e3 v=80
179040 Off ch=1 n=d5 v=80
179040 On ch=1 n=e4 v=65
179200 On ch=1 n=a4 v=53
179360 Off ch=1 n=a4 v=80
179360 On ch=1 n=d5 v=53
179520 Off ch=1 n=d5 v=80
179680 On ch=1 n=b4 v=53
179840 Off ch=1 n=b4 v=80
179840 On ch=1 n=d5 v=53
180000 Off ch=1 n=e4 v=80
180000 Off ch=1 n=d5 v=80
180000 On ch=1 n=e4 v=65
180160 On ch=1 n=c#5 v=53
180320 Off ch=1 n=c#5 v=80
180320 On ch=1 n=d5 v=53
180480 Off ch=1 n=e4 v=80
180480 Off ch=1 n=d5 v=80
180480 On ch=1 n=e3 v=65
180640 On ch=1 n=d5 v=53
180800 Off ch=1 n=d5 v=80
180800 On ch=1 n=f#5 v=53
180960 Off ch=1 n=e3 v=80
180960 Off ch=1 n=f#5 v=80
180960 On ch=1 n=e4 v=65
181120 On ch=1 n=e5 v=53
181120 On ch=1 n=g#5 v=53
181280 Off ch=1 n=g#5 v=80
181280 Off ch=1 n=e5 v=80
181440 Off ch=1 n=e4 v=80
181440 On ch=1 n=a3 v=65
181600 On ch=1 n=d5 v=53
181760 Off ch=1 n=d5 v=80
181760 On ch=1 n=e5 v=53
181920 Off ch=1 n=a3 v=80
181920 Off ch=1 n=e5 v=80
182080 On ch=1 n=c#5 v=53
182240 Off ch=1 n=c#5 v=80
182240 On ch=1 n=e5 v=53
182400 Off ch=1 n=e5 v=80
182400 On ch=1 n=a3 v=65
182560 On ch=1 n=c#5 v=53
182720 Off ch=1 n=c#5 v=80
182720 On ch=1 n=g5 v=53
182880 Off ch=1 n=a3 v=80
182880 Off ch=1 n=g5 v=80
182880 On ch=1 n=a4 v=65
183040 On ch=1 n=d5 v=53
183200 Off ch=1 n=d5 v=80
183200 On ch=1 n=g5 v=53
183360 Off ch=1 n=g5 v=80
183520 On ch=1 n=e5 v=53
183680 Off ch=1 n=e5 v=80
183680 On ch=1 n=g5 v=53
183840 Off ch=1 n=a4 v=80
183840 Off ch=1 n=g5 v=80
183840 On ch=1 n=a4 v=65
184000 On ch=1 n=f#5 v=53
184160 Off ch=1 n=f#5 v=80
184160 On ch=1 n=g5 v=53
184320 Off ch=1 n=a4 v=80
184320 Off ch=1 n=g5 v=80
184320 On ch=1 n=a3 v=65
184480 On ch=1 n=g5 v=53
184640 Off ch=1 n=g5 v=80
184640 On ch=1 n=b5 v=53
184800 Off ch=1 n=a3 v=80
184800 Off ch=1 n=b5 v=80
184800 On ch=1 n=a4 v=65
184960 On ch=1 n=c#6 v=53
184960 On ch=1 n=a5 v=53
185120 Off ch=1 n=a5 v=80
185120 Off ch=1 n=c#6 v=80
185280 Off ch=1 n=a4 v=80
185280 On ch=1 n=d4 v=65
185440 On ch=1 n=g5 v=53
185600 Off ch=1 n=g5 v=80
185600 On ch=1 n=a5 v=53
185760 Off ch=1 n=d4 v=80
185760 Off ch=1 n=a5 v=80
185920 On ch=1 n=f#5 v=53
186080 Off ch=1 n=f#5 v=80
186080 On ch=1 n=a5 v=53
186240 Off ch=1 n=a5 v=80
186240 On ch=1 n=d4 v=65
186240 On ch=1 n=a4 v=65
186400 On ch=1 n=d5 v=53
186560 Off ch=1 n=d5 v=80
186560 On ch=1 n=f#5 v=53
186720 Off ch=1 n=a4 v=80
186720 Off ch=1 n=d4 v=80
186720 Off ch=1 n=f#5 v=80
186720 On ch=1 n=a#4 v=65
186720 On ch=1 n=f#4 v=65
186880 On ch=1 n=e5 v=53
187040 Off ch=1 n=e5 v=80
187040 On ch=1 n=f#5 v=53
187200 Off ch=1 n=f#4 v=80
187200 Off ch=1 n=a#4 v=80
187200 Off ch=1 n=f#5 v=80
187200 On ch=1 n=f#4 v=65
187200 On ch=1 n=b3 v=65
187360 On ch=1 n=d5 v=53
187520 Off ch=1 n=d5 v=80
187520 On ch=1 n=f#5 v=53
187680 Off ch=1 n=b3 v=80
187680 Off ch=1 n=f#4 v=80
187680 Off ch=1 n=f#5 v=80
187680 On ch=1 n=e4 v=65
187680 On ch=1 n=c#4 v=65
187840 On ch=1 n=a4 v=53
188000 Off ch=1 n=a4 v=80
188000 On ch=1 n=f#5 v=53
188160 Off ch=1 n=c#4 v=80
188160 Off ch=1 n=e4 v=80
188160 Off ch=1 n=f#5 v=80
188160 On ch=1 n=d4 v=65
188160 On ch=1 n=f#4 v=65
188320 On ch=1 n=b4 v=53
188480 Off ch=1 n=b4 v=80
188480 On ch=1 n=g5 v=53
188640 Off ch=1 n=f#4 v=80
188640 Off ch=1 n=d4 v=80
188640 Off ch=1 n=g5 v=80
188640 On ch=1 n=d#4 v=65
188640 On ch=1 n=a4 v=65
188800 On ch=1 n=c#5 v=53
188960 Off ch=1 n=c#5 v=80
188960 On ch=1 n=g5 v=53
189120 Off ch=1 n=a4 v=80
189120 Off ch=1 n=d#4 v=80
189120 Off ch=1 n=g5 v=80
189120 On ch=1 n=a4 v=65
189120 On ch=1 n=e4 v=65
189280 On ch=1 n=c#5 v=53
189440 Off ch=1 n=c#5 v=80
189440 On ch=1 n=e5 v=53
189600 Off ch=1 n=a4 v=80
189600 Off ch=1 n=e5 v=80
189600 On ch=1 n=g#4 v=65
189760 On ch=1 n=b4 v=53
189920 Off ch=1 n=b4 v=80
189920 On ch=1 n=e5 v=53
190080 Off ch=1 n=e4 v=80
190080 Off ch=1 n=g#4 v=80
190080 Off ch=1 n=e5 v=80
190080 On ch=1 n=f4 v=65
190080 On ch=1 n=a#3 v=65
190240 On ch=1 n=a#4 v=53
190400 Off ch=1 n=a#4 v=80
190400 On ch=1 n=d5 v=53
190560 Off ch=1 n=d5 v=80
190720 On ch=1 n=a#4 v=53
190880 Off ch=1 n=a#4 v=80
190880 On ch=1 n=d5 v=53
191040 Off ch=1 n=d5 v=80
191200 On ch=1 n=a#4 v=53
191360 Off ch=1 n=a#4 v=80
191360 On ch=1 n=d5 v=53
191520 Off ch=1 n=a#3 v=80
191520 Off ch=1 n=f4 v=80
191520 Off ch=1 n=d5 v=80
191520 On ch=1 n=a#3 v=65
191520 On ch=1 n=f4 v=65
191680 On ch=1 n=a4 v=53
191840 Off ch=1 n=a4 v=80
191840 On ch=1 n=d5 v=53
192000 Off ch=1 n=a#3 v=80
192000 Off ch=1 n=d5 v=80
192000 On ch=1 n=b3 v=65
192160 On ch=1 n=g#4 v=53
192320 Off ch=1 n=g#4 v=80
192320 On ch=1 n=d5 v=53
192480 Off ch=1 n=b3 v=80
192480 Off ch=1 n=d5 v=80
192480 On ch=1 n=a3 v=65
192640 On ch=1 n=a4 v=53
192800 Off ch=1 n=a4 v=80
192800 On ch=1 n=d5 v=53
192960 Off ch=1 n=a3 v=80
192960 Off ch=1 n=d5 v=80
192960 On ch=1 n=g#3 v=65
193120 On ch=1 n=a#4 v=53
193280 Off ch=1 n=a#4 v=80
193280 On ch=1 n=d5 v=53
193440 Off ch=1 n=d5 v=80
193600 On ch=1 n=b4 v=53
193680 Off ch=1 n=f4 v=80
193680 On ch=1 n=e4 v=65
193760 Off ch=1 n=b4 v=80
193760 On ch=1 n=d5 v=53
193920 Off ch=1 n=g#3 v=80
193920 Off ch=1 n=e4 v=80
193920 Off ch=1 n=d5 v=80
193920 On ch=1 n=a3 v=65
194080 On ch=1 n=e4 v=47
194240 Off ch=1 n=e4 v=80
194240 On ch=1 n=a4 v=47
194400 Off ch=1 n=a4 v=80
194560 On ch=1 n=a4 v=47
194720 Off ch=1 n=a4 v=80
194720 On ch=1 n=c#5 v=47
194880 Off ch=1 n=a3 v=80
194880 Off ch=1 n=c#5 v=80
194880 On ch=1 n=f#3 v=69
195040 On ch=1 n=c#5 v=47
195200 Off ch=1 n=c#5 v=80
195200 On ch=1 n=e5 v=47
195360 Off ch=1 n=f#3 v=80
195360 Off ch=1 n=e5 v=80
195360 On ch=1 n=f3 v=73
195520 On ch=1 n=a4 v=47
195680 Off ch=1 n=a4 v=80
195680 On ch=1 n=d#5 v=47
195840 Off ch=1 n=f3 v=80
195840 Off ch=1 n=d#5 v=80
195840 On ch=1 n=e3 v=78
196000 On ch=1 n=a4 v=47
196160 Off ch=1 n=a4 v=80
196160 On ch=1 n=e5 v=47
196320 Off ch=1 n=e3 v=80
196320 Off ch=1 n=e5 v=80
196320 On ch=1 n=e3 v=78
196480 On ch=1 n=g#4 v=47
196640 Off ch=1 n=g#4 v=80
196800 Off ch=1 n=e3 v=80
196800 On ch=1 n=a3 v=78
196960 On ch=1 n=g#4 v=47
197120 Off ch=1 n=g#4 v=80
197120 On ch=1 n=d5 v=47
197280 Off ch=1 n=d5 v=80
197440 On ch=1 n=a4 v=47
197600 Off ch=1 n=a4 v=80
197600 On ch=1 n=c#5 v=47
197759 Off ch=1 n=c#5 v=80
197760 Off ch=1 n=a3 v=80
197760 On ch=1 n=a3 v=65
197920 On ch=1 n=e4 v=47
198080 Off ch=1 n=e4 v=80
198080 On ch=1 n=a4 v=47
198240 Off ch=1 n=a4 v=80
198400 On ch=1 n=a4 v=47
198560 Off ch=1 n=a4 v=80
198560 On ch=1 n=c#5 v=47
198720 Off ch=1 n=a3 v=80
198720 Off ch=1 n=c#5 v=80
198720 On ch=1 n=f#3 v=65
198880 On ch=1 n=a4 v=47
199040 Off ch=1 n=a4 v=80
199040 On ch=1 n=c#5 v=47
199200 Off ch=1 n=f#3 v=80
199200 Off ch=1 n=c#5 v=80
199200 On ch=1 n=d#3 v=65
199360 On ch=1 n=f#4 v=47
199520 Off ch=1 n=f#4 v=80
199520 On ch=1 n=c5 v=47
199680 Off ch=1 n=d#3 v=80
199680 Off ch=1 n=c5 v=80
199680 On ch=1 n=e3 v=65
199840 On ch=1 n=e4 v=47
200000 Off ch=1 n=e4 v=80
200000 On ch=1 n=b4 v=47
200160 Off ch=1 n=e3 v=80
200160 Off ch=1 n=b4 v=80
200160 On ch=1 n=b2 v=65
200320 On ch=1 n=d#4 v=47
200480 Off ch=1 n=d#4 v=80
200480 On ch=1 n=a4 v=47
200640 Off ch=1 n=b2 v=80
200640 Off ch=1 n=a4 v=80
200640 On ch=1 n=e3 v=65
200800 On ch=1 n=e4 v=47
200960 Off ch=1 n=e4 v=80
200960 On ch=1 n=g#4 v=47
201120 Off ch=1 n=g#4 v=80
201280 On ch=1 n=b3 v=47
201440 Off ch=1 n=b3 v=80
201440 On ch=1 n=g#4 v=47
201600 Off ch=1 n=e3 v=80
201600 Off ch=1 n=g#4 v=80
201600 On ch=1 n=e3 v=65
201760 On ch=1 n=g#4 v=53
201920 Off ch=1 n=g#4 v=80
201920 On ch=1 n=d5 v=53
202080 Off ch=1 n=e3 v=80
202080 Off ch=1 n=d5 v=80
202080 On ch=1 n=e4 v=65
202240 On ch=1 n=a4 v=53
202400 Off ch=1 n=a4 v=80
202400 On ch=1 n=d5 v=53
202560 Off ch=1 n=d5 v=80
202720 On ch=1 n=b4 v=53
202880 Off ch=1 n=b4 v=80
202880 On ch=1 n=d5 v=53
203040 Off ch=1 n=e4 v=80
203040 Off ch=1 n=d5 v=80
203040 On ch=1 n=e4 v=65
203200 On ch=1 n=c#5 v=53
203360 Off ch=1 n=c#5 v=80
203360 On ch=1 n=d5 v=53
203520 Off ch=1 n=e4 v=80
203520 Off ch=1 n=d5 v=80
203520 On ch=1 n=e3 v=65
203680 On ch=1 n=d5 v=53
203840 Off ch=1 n=d5 v=80
203840 On ch=1 n=f#5 v=53
204000 Off ch=1 n=e3 v=80
204000 Off ch=1 n=f#5 v=80
204000 On ch=1 n=e4 v=65
204160 On ch=1 n=e5 v=53
204160 On ch=1 n=g#5 v=53
204320 Off ch=1 n=g#5 v=80
204320 Off ch=1 n=e5 v=80
204480 Off ch=1 n=e4 v=80
204480 On ch=1 n=a3 v=65
204640 On ch=1 n=d5 v=53
204800 Off ch=1 n=d5 v=80
204800 On ch=1 n=e5 v=53
204960 Off ch=1 n=a3 v=80
204960 Off ch=1 n=e5 v=80
205120 On ch=1 n=c#5 v=53
205280 Off ch=1 n=c#5 v=80
205280 On ch=1 n=e5 v=53
205440 Off ch=1 n=e5 v=80
205440 On ch=1 n=a3 v=65
205600 On ch=1 n=c#5 v=53
205760 Off ch=1 n=c#5 v=80
205760 On ch=1 n=g5 v=53
205920 Off ch=1 n=a3 v=80
205920 Off ch=1 n=g5 v=80
205920 On ch=1 n=a4 v=65
206080 On ch=1 n=d5 v=53
206240 Off ch=1 n=d5 v=80
206240 On ch=1 n=g5 v=53
206400 Off ch=1 n=g5 v=80
206560 On ch=1 n=e5 v=53
206720 Off ch=1 n=e5 v=80
206720 On ch=1 n=g5 v=53
206880 Off ch=1 n=a4 v=80
206880 Off ch=1 n=g5 v=80
206880 On ch=1 n=a4 v=65
207040 On ch=1 n=f#5 v=53
207200 Off ch=1 n=f#5 v=80
207200 On ch=1 n=g5 v=53
207360 Off ch=1 n=a4 v=80
207360 Off ch=1 n=g5 v=80
207360 On ch=1 n=a3 v=65
207520 On ch=1 n=g5 v=53
207680 Off ch=1 n=g5 v=80
207680 On ch=1 n=b5 v=53
207840 Off ch=1 n=a3 v=80
207840 Off ch=1 n=b5 v=80
207840 On ch=1 n=a4 v=65
208000 On ch=1 n=c#6 v=53
208000 On ch=1 n=a5 v=53
208160 Off ch=1 n=a5 v=80
208160 Off ch=1 n=c#6 v=80
208320 Off ch=1 n=a4 v=80
208320 On ch=1 n=d4 v=65
208480 On ch=1 n=g5 v=53
208640 Off ch=1 n=g5 v=80
208640 On ch=1 n=a5 v=53
208800 Off ch=1 n=d4 v=80
208800 Off ch=1 n=a5 v=80
208960 On ch=1 n=f#5 v=53
209120 Off ch=1 n=f#5 v=80
209120 On ch=1 n=a5 v=53
209280 Off ch=1 n=a5 v=80
209280 On ch=1 n=f3 v=60
209280 On ch=1 n=c4 v=60
209440 On ch=1 n=a4 v=53
209600 Off ch=1 n=a4 v=80
209600 On ch=1 n=a5 v=53
209760 Off ch=1 n=a5 v=80
209920 On ch=1 n=a4 v=53
210080 Off ch=1 n=a4 v=80
210080 On ch=1 n=a5 v=53
210240 Off ch=1 n=a5 v=80
210400 On ch=1 n=a4 v=53
210560 Off ch=1 n=a4 v=80
210560 On ch=1 n=a5 v=53
210720 Off ch=1 n=c4 v=80
210720 Off ch=1 n=f3 v=80
210720 Off ch=1 n=a5 v=80
210720 On ch=1 n=c#4 v=60
210720 On ch=1 n=f3 v=60
210880 On ch=1 n=a4 v=53
211040 Off ch=1 n=a4 v=80
211040 On ch=1 n=a5 v=53
211200 Off ch=1 n=f3 v=80
211200 Off ch=1 n=c#4 v=80
211200 Off ch=1 n=a5 v=80
211200 On ch=1 n=f3 v=60
211260 Off ch=1 n=f3 v=80
211260 On ch=1 n=d4 v=60
211360 On ch=1 n=a#4 v=53
211520 Off ch=1 n=a#4 v=80
211520 On ch=1 n=a#5 v=53
211680 Off ch=1 n=d4 v=80
211680 Off ch=1 n=a#5 v=80
211680 On ch=1 n=e4 v=66
211840 On ch=1 n=a#4 v=53
212000 Off ch=1 n=a#4 v=80
212000 On ch=1 n=g5 v=53
212160 Off ch=1 n=e4 v=80
212160 Off ch=1 n=g5 v=80
212160 On ch=1 n=f4 v=72
212320 On ch=1 n=a4 v=53
212480 Off ch=1 n=a4 v=80
212480 On ch=1 n=a5 v=53
212640 Off ch=1 n=f4 v=80
212640 Off ch=1 n=a5 v=80
212800 On ch=1 n=c4 v=53
212960 Off ch=1 n=c4 v=80
213120 On ch=1 n=c#4 v=60
213120 On ch=1 n=e3 v=60
213280 Off ch=1 n=c#4 v=80
213280 On ch=1 n=e4 v=53
213440 Off ch=1 n=e4 v=80
213440 On ch=1 n=a4 v=53
213600 Off ch=1 n=e3 v=80
213600 Off ch=1 n=a4 v=80
213760 On ch=1 n=a4 v=53
213920 Off ch=1 n=a4 v=80
213920 On ch=1 n=c#5 v=53
214080 Off ch=1 n=c#5 v=80
214240 On ch=1 n=c#5 v=53
214400 Off ch=1 n=c#5 v=80
214400 On ch=1 n=e5 v=53
214560 Off ch=1 n=e5 v=80
214560 On ch=1 n=f#3 v=60
214720 On ch=1 n=a4 v=53
214880 Off ch=1 n=a4 v=80
214880 On ch=1 n=d#5 v=53
215040 Off ch=1 n=f#3 v=80
215040 Off ch=1 n=d#5 v=80
215040 On ch=1 n=e3 v=65
215200 On ch=1 n=a4 v=53
215360 Off ch=1 n=a4 v=80
215360 On ch=1 n=e5 v=53
215520 Off ch=1 n=e3 v=80
215520 Off ch=1 n=e5 v=80
215520 On ch=1 n=e3 v=65
215680 On ch=1 n=g#4 v=53
215840 Off ch=1 n=g#4 v=80
215840 On ch=1 n=d5 v=53
216000 Off ch=1 n=e3 v=80
216000 Off ch=1 n=d5 v=80
216000 On ch=1 n=a3 v=65
216000 On ch=1 n=e4 v=65
216160 Off ch=1 n=e4 v=80
216160 On ch=1 n=a4 v=53
216320 Off ch=1 n=a4 v=80
216320 On ch=1 n=c#5 v=53
216480 Off ch=1 n=a3 v=80
216480 Off ch=1 n=c#5 v=80
216480 On ch=1 n=a2 v=102
216480 On ch=1 n=a3 v=102
216640 Off ch=1 n=a3 v=80
216640 Off ch=1 n=a2 v=80
216640 On ch=1 n=b2 v=102
216640 On ch=1 n=b3 v=102
216800 Off ch=1 n=b3 v=80
216800 Off ch=1 n=b2 v=80
216800 On ch=1 n=c#3 v=102
216800 On ch=1 n=c#4 v=102
216960 Off ch=1 n=c#4 v=80
216960 Off ch=1 n=c#3 v=80
216960 On ch=1 n=d3 v=102
216960 On ch=1 n=a3 v=102
216960 On ch=1 n=d4 v=102
217080 Off ch=1 n=d4 v=80
217080 Off ch=1 n=a3 v=80
217080 Off ch=1 n=d3 v=80
217440 On ch=1 n=c4 v=102
217440 On ch=1 n=c3 v=102
217560 Off ch=1 n=c3 v=80
217560 Off ch=1 n=c4 v=80
217920 On ch=1 n=f2 v=102
217920 On ch=1 n=f3 v=102
218400 Off ch=1 n=f3 v=80
218400 Off ch=1 n=f2 v=80
218400 On ch=1 n=f3 v=102
218400 On ch=1 n=f2 v=102
218560 Off ch=1 n=f2 v=80
218560 Off ch=1 n=f3 v=80
218560 On ch=1 n=g2 v=102
218560 On ch=1 n=g3 v=102
218720 Off ch=1 n=g3 v=80
218720 Off ch=1 n=g2 v=80
218720 On ch=1 n=a2 v=102
218720 On ch=1 n=a3 v=102
218880 Off ch=1 n=a3 v=80
218880 Off ch=1 n=a2 v=80
218880 On ch=1 n=a#2 v=102
218880 On ch=1 n=a#3 v=102
219360 Off ch=1 n=a#3 v=80
219360 Off ch=1 n=a#2 v=80
219360 On ch=1 n=g2 v=102
219360 On ch=1 n=g3 v=102
219840 Off ch=1 n=g3 v=80
219840 Off ch=1 n=g2 v=80
219840 On ch=1 n=a2 v=102
219840 On ch=1 n=a3 v=102
220000 Off ch=1 n=a3 v=80
220000 Off ch=1 n=a2 v=80
220000 On ch=1 n=a#3 v=102
220000 On ch=1 n=a#2 v=102
220160 Off ch=1 n=a#2 v=80
220160 Off ch=1 n=a#3 v=80
220160 On ch=1 n=c3 v=102
220160 On ch=1 n=c4 v=102
220320 Off ch=1 n=c4 v=80
220320 Off ch=1 n=c3 v=80
220320 On ch=1 n=d4 v=105
220320 On ch=1 n=d3 v=105
220680 Off ch=1 n=d3 v=80
220680 Off ch=1 n=d4 v=80
220800 On ch=1 n=a#2 v=108
220800 On ch=1 n=a#3 v=108
221280 Off ch=1 n=a#3 v=80
221280 Off ch=1 n=a#2 v=80
221280 On ch=1 n=a3 v=111
221280 On ch=1 n=a2 v=111
221760 Off ch=1 n=a2 v=80
221760 Off ch=1 n=a3 v=80
221760 On ch=1 n=g3 v=114
221760 On ch=1 n=g2 v=114
222240 Off ch=1 n=g2 v=80
222240 Off ch=1 n=g3 v=80
222240 On ch=1 n=g2 v=117
222240 On ch=1 n=g3 v=117
222400 Off ch=1 n=g3 v=80
222400 Off ch=1 n=g2 v=80
222400 On ch=1 n=a2 v=117
222400 On ch=1 n=a3 v=117
222560 Off ch=1 n=a3 v=80
222560 Off ch=1 n=a2 v=80
222560 On ch=1 n=a#2 v=117
222560 On ch=1 n=a#3 v=117
222720 Off ch=1 n=a#3 v=80
222720 Off ch=1 n=a#2 v=80
222720 On ch=1 n=c3 v=120
222720 On ch=1 n=c4 v=120
223200 Off ch=1 n=c4 v=80
223200 Off ch=1 n=c3 v=80
223200 On ch=1 n=c3 v=102
223200 On ch=1 n=c2 v=102
223680 Off ch=1 n=c2 v=80
223680 Off ch=1 n=c3 v=80
223680 On ch=1 n=f3 v=102
223680 On ch=1 n=f2 v=102
224160 Off ch=1 n=f2 v=80
224160 Off ch=1 n=f3 v=80
224160 On ch=1 n=g2 v=102
224160 On ch=1 n=g3 v=102
224640 Off ch=1 n=g3 v=80
224640 Off ch=1 n=g2 v=80
224640 On ch=1 n=a3 v=127
224640 On ch=1 n=a2 v=127
225120 Off ch=1 n=a2 v=80
225120 Off ch=1 n=a3 v=80
225120 On ch=1 n=d4 v=102
225280 Off ch=1 n=d4 v=80
225280 On ch=1 n=e4 v=102
225440 Off ch=1 n=e4 v=80
225440 On ch=1 n=f4 v=102
225600 Off ch=1 n=f4 v=80
225600 On ch=1 n=e4 v=102
226080 Off ch=1 n=e4 v=80
226080 On ch=1 n=f4 v=102
226080 On ch=1 n=d4 v=102
226080 On ch=1 n=a#4 v=102
226560 Off ch=1 n=a#4 v=80
226560 Off ch=1 n=d4 v=80
226560 Off ch=1 n=f4 v=80
226560 On ch=1 n=a4 v=102
226560 On ch=1 n=c#4 v=102
226560 On ch=1 n=e4 v=102
227040 Off ch=1 n=e4 v=80
227040 Off ch=1 n=c#4 v=80
227040 Off ch=1 n=a4 v=80
227040 On ch=1 n=a3 v=102
227040 On ch=1 n=a2 v=102
227200 Off ch=1 n=a2 v=80
227200 Off ch=1 n=a3 v=80
227200 On ch=1 n=b3 v=108
227360 Off ch=1 n=b3 v=80
227360 On ch=1 n=c4 v=114
227520 Off ch=1 n=c4 v=80
227520 On ch=1 n=d#4 v=120
227520 On ch=1 n=d#3 v=120
227760 Off ch=1 n=d#3 v=80
227760 Off ch=1 n=d#4 v=80
228000 On ch=1 n=d4 v=111
228000 On ch=1 n=d3 v=111
228480 Off ch=1 n=d3 v=80
228480 Off ch=1 n=d4 v=80
228480 On ch=1 n=g3 v=127
228480 On ch=1 n=g2 v=127
228960 Off ch=1 n=g2 v=80
228960 Off ch=1 n=g3 v=80
228960 On ch=1 n=c4 v=102
229120 Off ch=1 n=c4 v=80
229120 On ch=1 n=d4 v=102
229280 Off ch=1 n=d4 v=80
229280 On ch=1 n=d#4 v=102
229440 Off ch=1 n=d#4 v=80
229440 On ch=1 n=d4 v=102
229920 Off ch=1 n=d4 v=80
229920 On ch=1 n=d#4 v=102
229920 On ch=1 n=c4 v=102
229920 On ch=1 n=g#4 v=102
230400 Off ch=1 n=g#4 v=80
230400 Off ch=1 n=c4 v=80
230400 Off ch=1 n=d#4 v=80
230400 On ch=1 n=g4 v=102
230400 On ch=1 n=b3 v=102
230400 On ch=1 n=d4 v=102
230880 Off ch=1 n=d4 v=80
230880 Off ch=1 n=b3 v=80
230880 Off ch=1 n=g4 v=80
230880 On ch=1 n=g3 v=102
230880 On ch=1 n=g2 v=102
231040 Off ch=1 n=g2 v=80
231040 Off ch=1 n=g3 v=80
231040 On ch=1 n=a3 v=108
231200 Off ch=1 n=a3 v=80
231200 On ch=1 n=a#3 v=114
231360 Off ch=1 n=a#3 v=80
231360 On ch=1 n=c#4 v=120
231360 On ch=1 n=c#3 v=120
231600 Off ch=1 n=c#3 v=80
231600 Off ch=1 n=c#4 v=80
231840 On ch=1 n=c4 v=111
231840 On ch=1 n=c3 v=111
232080 Off ch=1 n=c3 v=80
232080 Off ch=1 n=c4 v=80
232320 On ch=1 n=f3 v=114
232320 On ch=1 n=f4 v=114
232560 Off ch=1 n=f4 v=80
232560 Off ch=1 n=f3 v=80
232800 On ch=1 n=e3 v=114
232800 On ch=1 n=e4 v=114
233040 Off ch=1 n=e4 v=80
233040 Off ch=1 n=e3 v=80
233280 On ch=1 n=d3 v=114
233280 On ch=1 n=d4 v=114
233760 Off ch=1 n=d4 v=80
233760 Off ch=1 n=d3 v=80
233760 On ch=1 n=d4 v=114
233760 On ch=1 n=d3 v=114
233920 Off ch=1 n=d3 v=80
233920 Off ch=1 n=d4 v=80
233920 On ch=1 n=e4 v=114
233920 On ch=1 n=e3 v=117
234080 Off ch=1 n=e3 v=80
234080 Off ch=1 n=e4 v=80
234080 On ch=1 n=f4 v=120
234080 On ch=1 n=f3 v=123
234240 Off ch=1 n=f3 v=80
234240 Off ch=1 n=f4 v=80
234240 On ch=1 n=g3 v=127
234240 On ch=1 n=g4 v=127
234720 Off ch=1 n=g4 v=80
234720 Off ch=1 n=g3 v=80
234720 On ch=1 n=g#4 v=114
234720 On ch=1 n=g#3 v=114
234880 Off ch=1 n=g#3 v=80
234880 Off ch=1 n=g#4 v=80
234880 On ch=1 n=a4 v=114
234880 On ch=1 n=a3 v=117
235040 Off ch=1 n=a3 v=80
235040 Off ch=1 n=a4 v=80
235040 On ch=1 n=b4 v=120
235040 On ch=1 n=b3 v=123
235200 Off ch=1 n=b3 v=80
235200 Off ch=1 n=b4 v=80
235200 On ch=1 n=a4 v=127
235200 On ch=1 n=a3 v=127
235680 Off ch=1 n=a3 v=80
235680 Off ch=1 n=a4 v=80
235680 On ch=1 n=f3 v=114
235680 On ch=1 n=f2 v=114
235840 Off ch=1 n=f2 v=80
235840 Off ch=1 n=f3 v=80
235840 On ch=1 n=g3 v=114
235840 On ch=1 n=g2 v=117
236000 Off ch=1 n=g2 v=80
236000 Off ch=1 n=g3 v=80
236000 On ch=1 n=a3 v=120
236000 On ch=1 n=a2 v=123
236160 Off ch=1 n=a2 v=80
236160 Off ch=1 n=a3 v=80
236160 On ch=1 n=a#3 v=127
236160 On ch=1 n=a#2 v=127
236640 Off ch=1 n=a#2 v=80
236640 Off ch=1 n=a#3 v=80
236640 On ch=1 n=g3 v=114
236640 On ch=1 n=g4 v=114
236800 Off ch=1 n=g4 v=80
236800 Off ch=1 n=g3 v=80
236800 On ch=1 n=a4 v=114
236800 On ch=1 n=a3 v=117
236960 Off ch=1 n=a3 v=80
236960 Off ch=1 n=a4 v=80
236960 On ch=1 n=a#4 v=120
236960 On ch=1 n=a#3 v=123
237120 Off ch=1 n=a#3 v=80
237120 Off ch=1 n=a#4 v=80
237120 On ch=1 n=b4 v=127
237120 On ch=1 n=b3 v=127
237600 Off ch=1 n=b3 v=80
237600 Off ch=1 n=b4 v=80
237600 On ch=1 n=g3 v=114
237600 On ch=1 n=g2 v=114
237760 Off ch=1 n=g2 v=80
237760 Off ch=1 n=g3 v=80
237760 On ch=1 n=a3 v=114
237760 On ch=1 n=a2 v=117
237920 Off ch=1 n=a2 v=80
237920 Off ch=1 n=a3 v=80
237920 On ch=1 n=b3 v=120
237920 On ch=1 n=b2 v=123
238080 Off ch=1 n=b2 v=80
238080 Off ch=1 n=b3 v=80
238080 On ch=1 n=c4 v=127
238080 On ch=1 n=c3 v=127
238320 Off ch=1 n=c3 v=80
238320 Off ch=1 n=c4 v=80
238560 On ch=1 n=c3 v=127
238560 On ch=1 n=c2 v=127
238920 Off ch=1 n=c2 v=80
238920 Off ch=1 n=c3 v=80
239040 On ch=1 n=f3 v=127
239040 On ch=1 n=f2 v=127
239520 Off ch=1 n=f2 v=80
239520 Off ch=1 n=f3 v=80
239520 On ch=1 n=f3 v=102
239680 Off ch=1 n=f3 v=80
239680 On ch=1 n=g3 v=102
239840 Off ch=1 n=g3 v=80
239840 On ch=1 n=a3 v=102
240000 Off ch=1 n=a3 v=80
240000 On ch=1 n=a#3 v=78
240480 Off ch=1 n=a#3 v=80
240480 On ch=1 n=a#3 v=84
240640 Off ch=1 n=a#3 v=80
240640 On ch=1 n=c4 v=84
240800 Off ch=1 n=c4 v=80
240800 On ch=1 n=c#4 v=84
240960 Off ch=1 n=c#4 v=80
240960 On ch=1 n=d#4 v=90
241440 Off ch=1 n=d#4 v=80
241440 On ch=1 n=f4 v=96
241440 On ch=1 n=c#4 v=96
241600 Off ch=1 n=f4 v=80
241600 On ch=1 n=f#4 v=96
241760 Off ch=1 n=f#4 v=80
241760 On ch=1 n=g#4 v=96
241920 Off ch=1 n=c#4 v=80
241920 Off ch=1 n=g#4 v=80
241920 On ch=1 n=f4 v=102
241920 On ch=1 n=c#4 v=102
242400 Off ch=1 n=c#4 v=80
242400 Off ch=1 n=f4 v=80
242400 On ch=1 n=c#5 v=102
242560 Off ch=1 n=c#5 v=80
242560 On ch=1 n=d#5 v=102
242720 Off ch=1 n=d#5 v=80
242720 On ch=1 n=f5 v=102
242880 Off ch=1 n=f5 v=80
242880 On ch=1 n=f#5 v=110
243360 Off ch=1 n=f#5 v=80
243360 On ch=1 n=c4 v=78
243360 On ch=1 n=c3 v=78
243520 Off ch=1 n=c4 v=80
243520 On ch=1 n=d4 v=78
243680 Off ch=1 n=d4 v=80
243680 On ch=1 n=e4 v=78
243840 Off ch=1 n=c3 v=80
243840 Off ch=1 n=e4 v=80
243840 On ch=1 n=f4 v=78
243840 On ch=1 n=f3 v=78
244320 Off ch=1 n=f3 v=80
244320 Off ch=1 n=f4 v=80
244320 On ch=1 n=f4 v=82
244320 On ch=1 n=f3 v=84
244480 Off ch=1 n=f3 v=80
244480 On ch=1 n=g3 v=84
244640 Off ch=1 n=g3 v=80
244640 On ch=1 n=a3 v=84
244800 Off ch=1 n=a3 v=80
244800 On ch=1 n=a#3 v=86
245280 Off ch=1 n=f4 v=80
245280 Off ch=1 n=a#3 v=80
245280 On ch=1 n=b3 v=90
245280 On ch=1 n=g#4 v=90
245280 On ch=1 n=d5 v=90
245760 Off ch=1 n=d5 v=80
245760 Off ch=1 n=g#4 v=80
245760 Off ch=1 n=b3 v=80
245760 On ch=1 n=c5 v=90
245760 On ch=1 n=a4 v=90
245760 On ch=1 n=c4 v=90
246240 Off ch=1 n=c4 v=80
246240 Off ch=1 n=a4 v=80
246240 Off ch=1 n=c5 v=80
246240 On ch=1 n=c4 v=90
246240 On ch=1 n=a#4 v=90
246240 On ch=1 n=e5 v=90
246720 Off ch=1 n=e5 v=80
246720 Off ch=1 n=a#4 v=80
246720 Off ch=1 n=c4 v=80
246720 On ch=1 n=a4 v=90
246720 On ch=1 n=c4 v=90
246720 On ch=1 n=f3 v=90
247200 Off ch=1 n=f3 v=80
247200 Off ch=1 n=c4 v=80
247200 Off ch=1 n=a4 v=80
247200 On ch=1 n=f4 v=102
247360 Off ch=1 n=f4 v=80
247360 On ch=1 n=g4 v=102
247520 Off ch=1 n=g4 v=80
247520 On ch=1 n=a4 v=102
247680 Off ch=1 n=a4 v=80
247680 On ch=1 n=a#4 v=78
248160 Off ch=1 n=a#4 v=80
248160 On ch=1 n=a#4 v=84
248320 Off ch=1 n=a#4 v=80
248320 On ch=1 n=c5 v=84
248480 Off ch=1 n=c5 v=80
248480 On ch=1 n=c#5 v=84
248640 Off ch=1 n=c#5 v=80
248640 On ch=1 n=d#5 v=90
249120 Off ch=1 n=d#5 v=80
249120 On ch=1 n=f5 v=96
249120 On ch=1 n=c#5 v=96
249280 Off ch=1 n=f5 v=80
249280 On ch=1 n=f#5 v=96
249440 Off ch=1 n=f#5 v=80
249440 On ch=1 n=g#5 v=96
249600 Off ch=1 n=c#5 v=80
249600 Off ch=1 n=g#5 v=80
249600 On ch=1 n=f5 v=102
249600 On ch=1 n=c#5 v=102
250080 Off ch=1 n=c#5 v=80
250080 Off ch=1 n=f5 v=80
250080 On ch=1 n=c#6 v=102
250240 Off ch=1 n=c#6 v=80
250240 On ch=1 n=d#6 v=102
250400 Off ch=1 n=d#6 v=80
250400 On ch=1 n=f6 v=102
250560 Off ch=1 n=f6 v=80
250560 On ch=1 n=f#6 v=110
251040 Off ch=1 n=f#6 v=80
251040 On ch=1 n=c5 v=78
251040 On ch=1 n=c4 v=78
251200 Off ch=1 n=c5 v=80
251200 On ch=1 n=d5 v=78
251360 Off ch=1 n=d5 v=80
251360 On ch=1 n=e5 v=78
251520 Off ch=1 n=c4 v=80
251520 Off ch=1 n=e5 v=80
251520 On ch=1 n=f5 v=78
251520 On ch=1 n=f4 v=78
252000 Off ch=1 n=f4 v=80
252000 Off ch=1 n=f5 v=80
252000 On ch=1 n=f5 v=82
252000 On ch=1 n=f4 v=84
252160 Off ch=1 n=f4 v=80
252160 On ch=1 n=g4 v=84
252320 Off ch=1 n=g4 v=80
252320 On ch=1 n=a4 v=84
252480 Off ch=1 n=a4 v=80
252480 On ch=1 n=a#4 v=86
252960 Off ch=1 n=f5 v=80
252960 Off ch=1 n=a#4 v=80
252960 On ch=1 n=b4 v=90
252960 On ch=1 n=g#5 v=90
252960 On ch=1 n=d6 v=90
253440 Off ch=1 n=d6 v=80
253440 Off ch=1 n=g#5 v=80
253440 Off ch=1 n=b4 v=80
253440 On ch=1 n=c6 v=90
253440 On ch=1 n=a5 v=90
253440 On ch=1 n=c5 v=90
253920 Off ch=1 n=c5 v=80
253920 Off ch=1 n=a5 v=80
253920 Off ch=1 n=c6 v=80
253920 On ch=1 n=c5 v=90
253920 On ch=1 n=a#5 v=90
253920 On ch=1 n=e6 v=90
254400 Off ch=1 n=e6 v=80
254400 Off ch=1 n=a#5 v=80
254400 Off ch=1 n=c5 v=80
254400 On ch=1 n=a5 v=90
254400 On ch=1 n=c5 v=90
254400 On ch=1 n=f4 v=90
254880 Off ch=1 n=f4 v=80
254880 Off ch=1 n=c5 v=80
254880 Off ch=1 n=a5 v=80
254880 On ch=1 n=b4 v=102
254880 On ch=1 n=f5 v=102
255360 Off ch=1 n=f5 v=80
255360 Off ch=1 n=b4 v=80
255360 On ch=1 n=e5 v=102
255360 On ch=1 n=c5 v=102
255720 On ch=1 n=c4 v=102
255840 Off ch=1 n=c5 v=80
255840 Off ch=1 n=e5 v=80
255840 On ch=1 n=c5 v=102
256000 Off ch=1 n=c5 v=80
256000 On ch=1 n=b4 v=102
256160 Off ch=1 n=b4 v=80
256160 On ch=1 n=a#4 v=102
256320 Off ch=1 n=c4 v=80
256320 Off ch=1 n=a#4 v=80
256320 On ch=1 n=a4 v=102
256320 On ch=1 n=f4 v=102
256800 Off ch=1 n=f4 v=80
256800 Off ch=1 n=a4 v=80
256800 On ch=1 n=f4 v=102
256800 On ch=1 n=b3 v=102
257280 Off ch=1 n=b3 v=80
257280 Off ch=1 n=f4 v=80
257280 On ch=1 n=e4 v=102
257280 On ch=1 n=c4 v=102
257640 On ch=1 n=c3 v=102
257760 Off ch=1 n=c4 v=80
257760 Off ch=1 n=e4 v=80
257760 On ch=1 n=c4 v=102
257920 Off ch=1 n=c4 v=80
257920 On ch=1 n=b3 v=102
258080 Off ch=1 n=b3 v=80
258080 On ch=1 n=a#3 v=102
258240 Off ch=1 n=c3 v=80
258240 Off ch=1 n=a#3 v=80
258240 On ch=1 n=a3 v=102
258240 On ch=1 n=f3 v=102
258720 Off ch=1 n=f3 v=80
258720 Off ch=1 n=a3 v=80
258720 On ch=1 n=a#2 v=114
258720 On ch=1 n=a#3 v=114
258880 Off ch=1 n=a#3 v=80
258880 Off ch=1 n=a#2 v=80
258880 On ch=1 n=a2 v=114
258880 On ch=1 n=a3 v=114
259040 Off ch=1 n=a3 v=80
259040 Off ch=1 n=a2 v=80
259040 On ch=1 n=g2 v=114
259040 On ch=1 n=g3 v=114
259200 Off ch=1 n=g3 v=80
259200 Off ch=1 n=g2 v=80
259200 On ch=1 n=f2 v=114
259200 On ch=1 n=f3 v=114
260160 Off ch=1 n=f3 v=80
260160 Off ch=1 n=f2 v=80
260160 On ch=1 n=f3 v=102
260160 On ch=1 n=f2 v=102
260640 Off ch=1 n=f2 v=80
260640 Off ch=1 n=f3 v=80
260640 On ch=1 n=f2 v=102
260640 On ch=1 n=f3 v=102
261120 Off ch=1 n=f3 v=80
261120 Off ch=1 n=f2 v=80
261120 On ch=1 n=f2 v=102
261120 On ch=1 n=f3 v=102
261600 Off ch=1 n=f3 v=80
261600 Off ch=1 n=f2 v=80
261600 Meta TrkEnd
TrkEnd
MTrk
0 Meta TrkName "Pedal"
0 Meta 0x21 00
0 Meta 0x20 00
0 Par ch=1 c=10 v=64
0 PrCh ch=1 p=0
5760 Par ch=1 c=64 v=127
6720 Par ch=1 c=64 v=0
16320 Par ch=1 c=64 v=127
17280 Par ch=1 c=64 v=0
21120 Par ch=1 c=64 v=127
22080 Par ch=1 c=64 v=0
38400 Par ch=1 c=64 v=127
39760 Par ch=1 c=64 v=0
40320 Par ch=1 c=64 v=127
41200 Par ch=1 c=64 v=0
41760 Par ch=1 c=64 v=127
43200 Par ch=1 c=64 v=0
44640 Par ch=1 c=64 v=127
45120 Par ch=1 c=64 v=0
46080 Par ch=1 c=64 v=127
47440 Par ch=1 c=64 v=0
48000 Par ch=1 c=64 v=127
48880 Par ch=1 c=64 v=0
49440 Par ch=1 c=64 v=127
50880 Par ch=1 c=64 v=0
52320 Par ch=1 c=64 v=127
52720 Par ch=1 c=64 v=0
52800 Par ch=1 c=64 v=127
53680 Par ch=1 c=64 v=0
54240 Par ch=1 c=64 v=127
55600 Par ch=1 c=64 v=0
55680 Par ch=1 c=64 v=127
57520 Par ch=1 c=64 v=0
57600 Par ch=1 c=64 v=127
59440 Par ch=1 c=64 v=0
59520 Par ch=1 c=64 v=127
61360 Par ch=1 c=64 v=0
65280 Par ch=1 c=64 v=127
67120 Par ch=1 c=64 v=0
69120 Par ch=1 c=64 v=127
70480 Par ch=1 c=64 v=0
71040 Par ch=1 c=64 v=127
71920 Par ch=1 c=64 v=0
72480 Par ch=1 c=64 v=127
73920 Par ch=1 c=64 v=0
75360 Par ch=1 c=64 v=127
75760 Par ch=1 c=64 v=0
75840 Par ch=1 c=64 v=127
76720 Par ch=1 c=64 v=0
77280 Par ch=1 c=64 v=127
78640 Par ch=1 c=64 v=0
78720 Par ch=1 c=64 v=127
80560 Par ch=1 c=64 v=0
80640 Par ch=1 c=64 v=127
82480 Par ch=1 c=64 v=0
82560 Par ch=1 c=64 v=127
84400 Par ch=1 c=64 v=0
84480 Par ch=1 c=64 v=127
86320 Par ch=1 c=64 v=0
86400 Par ch=1 c=64 v=127
87280 Par ch=1 c=64 v=0
87360 Par ch=1 c=64 v=127
88240 Par ch=1 c=64 v=0
88320 Par ch=1 c=64 v=127
90160 Par ch=1 c=64 v=0
90240 Par ch=1 c=64 v=127
91120 Par ch=1 c=64 v=0
91200 Par ch=1 c=64 v=127
92080 Par ch=1 c=64 v=0
113280 Par ch=1 c=64 v=127
114230 Par ch=1 c=64 v=0
116160 Par ch=1 c=64 v=127
118000 Par ch=1 c=64 v=0
163200 Par ch=1 c=64 v=127
164560 Par ch=1 c=64 v=0
165120 Par ch=1 c=64 v=127
166000 Par ch=1 c=64 v=0
166560 Par ch=1 c=64 v=127
168000 Par ch=1 c=64 v=0
169440 Par ch=1 c=64 v=127
169920 Par ch=1 c=64 v=0
170880 Par ch=1 c=64 v=127
172240 Par ch=1 c=64 v=0
172800 Par ch=1 c=64 v=127
173680 Par ch=1 c=64 v=0
174240 Par ch=1 c=64 v=127
175680 Par ch=1 c=64 v=0
177120 Par ch=1 c=64 v=127
177520 Par ch=1 c=64 v=0
177600 Par ch=1 c=64 v=127
178480 Par ch=1 c=64 v=0
179040 Par ch=1 c=64 v=127
180400 Par ch=1 c=64 v=0
180480 Par ch=1 c=64 v=127
182320 Par ch=1 c=64 v=0
182400 Par ch=1 c=64 v=127
184240 Par ch=1 c=64 v=0
184320 Par ch=1 c=64 v=127
186160 Par ch=1 c=64 v=0
190080 Par ch=1 c=64 v=127
191920 Par ch=1 c=64 v=0
193920 Par ch=1 c=64 v=127
195280 Par ch=1 c=64 v=0
195840 Par ch=1 c=64 v=127
196720 Par ch=1 c=64 v=0
197280 Par ch=1 c=64 v=127
198720 Par ch=1 c=64 v=0
200160 Par ch=1 c=64 v=127
200560 Par ch=1 c=64 v=0
200640 Par ch=1 c=64 v=127
201520 Par ch=1 c=64 v=0
202080 Par ch=1 c=64 v=127
203440 Par ch=1 c=64 v=0
203520 Par ch=1 c=64 v=127
205360 Par ch=1 c=64 v=0
205440 Par ch=1 c=64 v=127
207280 Par ch=1 c=64 v=0
207360 Par ch=1 c=64 v=127
209200 Par ch=1 c=64 v=0
209280 Par ch=1 c=64 v=127
211120 Par ch=1 c=64 v=0
211200 Par ch=1 c=64 v=127
212080 Par ch=1 c=64 v=0
212160 Par ch=1 c=64 v=127
213040 Par ch=1 c=64 v=0
213120 Par ch=1 c=64 v=127
214960 Par ch=1 c=64 v=0
215040 Par ch=1 c=64 v=127
215920 Par ch=1 c=64 v=0
216000 Par ch=1 c=64 v=127
216400 Par ch=1 c=64 v=0
238080 Par ch=1 c=64 v=127
239030 Par ch=1 c=64 v=0
239030 Meta TrkEnd
TrkEnd
