MFile 1 4 480
MTrk
0 Tempo 638297
0 TimeSig 2/4 24 8
0 KeySig 2 major
160 Tempo 326086
2880 Tempo 416666
3360 Tempo 326086
4800 Tempo 309278
5760 Tempo 344827
6720 Tempo 365853
7080 Tempo 714285
7200 Tempo 483870
7680 Tempo 365853
8160 Tempo 344827
10560 Tempo 365853
10920 Tempo 714285
11040 Tempo 483870
11520 Tempo 365853
12000 Tempo 326086
12480 Tempo 344827
13440 Tempo 326086
14760 Tempo 714285
14880 Tempo 483870
15360 Tempo 365853
16320 Tempo 344827
17280 Tempo 326086
19200 Tempo 344827
36000 Tempo 365853
40320 Tempo 344827
85920 Tempo 389610
86400 Tempo 447761
86880 Tempo 326086
89280 Tempo 416666
89760 Tempo 326086
91200 Tempo 309278
92160 Tempo 344827
93120 Tempo 365853
93480 Tempo 714285
93600 Tempo 483870
94080 Tempo 365853
94560 Tempo 344827
96960 Tempo 365853
97320 Tempo 714285
97440 Tempo 483870
97920 Tempo 365853
98400 Tempo 326086
98880 Tempo 344827
99840 Tempo 326086
101160 Tempo 714285
101280 Tempo 483870
101760 Tempo 365853
102720 Tempo 344827
111840 Tempo 365853
113280 Tempo 344827
123360 Tempo 365853
124320 Tempo 416666
124800 Tempo 483870
125280 Tempo 326086
128160 Tempo 344827
128640 Tempo 416666
129120 Tempo 365853
129600 Tempo 326086
131520 Tempo 416666
132000 Tempo 483870
132960 Tempo 576923
133320 Tempo 2500000
133440 Tempo 1764705
134400 Tempo 1111111
134560 Tempo 810810
134880 Tempo 674157
135360 Tempo 638297
135840 Tempo 576923
136160 Tempo 937500
136480 Tempo 810810
136800 Tempo 674157
137280 Tempo 638297
137760 Tempo 606060
138080 Tempo 937500
138400 Tempo 714285
139200 Tempo 576923
139680 Tempo 526315
140640 Tempo 638297
141600 Tempo 937500
141920 Tempo 1111111
142080 Tempo 1111111
142240 Tempo 810810
142560 Tempo 674157
143040 Tempo 638297
143520 Tempo 576923
143840 Tempo 937500
144160 Tempo 810810
144480 Tempo 674157
144960 Tempo 937500
145440 Tempo 1016949
145760 Tempo 1764705
145920 Tempo 937500
146080 Tempo 759493
146400 Tempo 638297
146880 Tempo 606060
147360 Tempo 576923
147680 Tempo 810810
148320 Tempo 674157
148800 Tempo 810810
149280 Tempo 674157
150240 Tempo 714285
150720 Tempo 638297
151200 Tempo 576923
151680 Tempo 714285
152640 Tempo 638297
153120 Tempo 576923
153600 Tempo 714285
154560 Tempo 594059
155520 Tempo 714285
156480 Tempo 594059
157440 Tempo 714285
158400 Tempo 594059
159360 Tempo 714285
159840 Tempo 937500
160480 Tempo 810810
161280 Tempo 1538461
161600 Tempo 937500
162240 Tempo 810810
162720 Tempo 1016949
163040 Tempo 1764705
163200 Tempo 1111111
163360 Tempo 810810
163680 Tempo 674157
164160 Tempo 638297
164640 Tempo 576923
164960 Tempo 937500
165280 Tempo 810810
165600 Tempo 638297
166560 Tempo 606060
166880 Tempo 937500
167200 Tempo 714285
168000 Tempo 576923
168480 Tempo 526315
169440 Tempo 638297
170400 Tempo 937500
170720 Tempo 1363636
170880 Tempo 810810
171360 Tempo 674157
171840 Tempo 638297
172320 Tempo 576923
172640 Tempo 937500
172960 Tempo 810810
173280 Tempo 674157
173760 Tempo 937500
174560 Tempo 1111111
174720 Tempo 937500
174880 Tempo 714285
175200 Tempo 638297
175680 Tempo 606060
176160 Tempo 576923
176480 Tempo 810810
177120 Tempo 674157
177600 Tempo 810810
178080 Tempo 674157
179040 Tempo 714285
179520 Tempo 638297
180000 Tempo 526315
180480 Tempo 714285
181440 Tempo 638297
181920 Tempo 550458
182400 Tempo 714285
183360 Tempo 594059
184320 Tempo 714285
185280 Tempo 594059
186240 Tempo 714285
187200 Tempo 594059
188160 Tempo 937500
188640 Tempo 1111111
189280 Tempo 937500
190080 Tempo 2068965
190400 Tempo 937500
191040 Tempo 810810
191520 Tempo 1016949
191840 Tempo 2068965
192000 Tempo 937500
192480 Tempo 810810
192960 Tempo 714285
193920 Tempo 638297
196800 Tempo 714285
197760 Tempo 810810
198240 Tempo 714285
198720 Tempo 638297
200160 Tempo 576923
200640 Tempo 638297
201600 Tempo 714285
202080 Tempo 638297
202560 Tempo 576923
203520 Tempo 714285
204000 Tempo 638297
204480 Tempo 714285
205440 Tempo 810810
205920 Tempo 937500
206400 Tempo 1111111
206880 Tempo 1363636
207200 Tempo 3750000
207360 Tempo 1111111
207520 Tempo 714285
207840 Tempo 674157
208320 Tempo 638297
208800 Tempo 576923
209120 Tempo 937500
209440 Tempo 810810
209760 Tempo 638297
210720 Tempo 606060
211040 Tempo 937500
211360 Tempo 714285
212160 Tempo 576923
212640 Tempo 526315
213600 Tempo 638297
214560 Tempo 869565
215040 Tempo 810810
215520 Tempo 674157
216000 Tempo 638297
216480 Tempo 576923
216800 Tempo 937500
217120 Tempo 810810
217440 Tempo 674157
217920 Tempo 937500
218720 Tempo 1111111
218880 Tempo 937500
219040 Tempo 759493
219360 Tempo 638297
219840 Tempo 606060
220320 Tempo 576923
220640 Tempo 810810
221280 Tempo 674157
221760 Tempo 810810
222240 Tempo 674157
223200 Tempo 714285
223680 Tempo 638297
224160 Tempo 576923
224640 Tempo 714285
225600 Tempo 606060
226080 Tempo 550458
226560 Tempo 714285
227520 Tempo 566037
228000 Tempo 540540
228480 Tempo 714285
229440 Tempo 566037
229920 Tempo 540540
230400 Tempo 714285
231360 Tempo 594059
231840 Tempo 566037
232320 Tempo 810810
232800 Tempo 937500
233120 Tempo 1224489
233280 Tempo 937500
233760 Tempo 810810
234240 Tempo 2068965
234560 Tempo 937500
235200 Tempo 810810
235680 Tempo 937500
236000 Tempo 3000000
236160 Tempo 365853
237120 Tempo 344827
238080 Tempo 326086
240000 Tempo 344827
256800 Tempo 365853
261120 Tempo 344827
306720 Tempo 389610
307200 Tempo 447761
307680 Tempo 326086
310080 Tempo 416666
310560 Tempo 326086
312000 Tempo 309278
312960 Tempo 344827
313920 Tempo 365853
314280 Tempo 714285
314400 Tempo 483870
314880 Tempo 365853
315360 Tempo 344827
317760 Tempo 365853
318120 Tempo 714285
318240 Tempo 483870
318720 Tempo 365853
319200 Tempo 326086
319680 Tempo 344827
320640 Tempo 326086
321960 Tempo 714285
322080 Tempo 483870
322560 Tempo 365853
323520 Tempo 344827
332640 Tempo 365853
334080 Tempo 344827
344160 Tempo 365853
345120 Tempo 416666
345600 Tempo 483870
346080 Tempo 326086
348960 Tempo 344827
349440 Tempo 416666
349920 Tempo 365853
350400 Tempo 326086
352320 Tempo 416666
353280 Tempo 483870
353760 Tempo 576923
354120 Tempo 1764705
354240 Tempo 483870
356160 Tempo 638297
356640 Tempo 810810
356640 Meta TrkEnd
TrkEnd
MTrk
0 Meta TrkName "Piano R Hand"
0 Meta 0x21 00
0 Meta 0x20 00
0 Par ch=1 c=10 v=64
0 PrCh ch=1 p=0
0 On ch=1 n=f#5 v=90
60 Off ch=1 n=f#5 v=80
120 On ch=1 n=f#6 v=90
240 Off ch=1 n=f#6 v=80
240 On ch=1 n=d6 v=90
360 Off ch=1 n=d6 v=80
360 On ch=1 n=f#5 v=90
420 Off ch=1 n=f#5 v=80
480 On ch=1 n=g5 v=90
540 Off ch=1 n=g5 v=80
600 On ch=1 n=g6 v=90
720 Off ch=1 n=g6 v=80
720 On ch=1 n=d6 v=90
840 Off ch=1 n=d6 v=80
840 On ch=1 n=g5 v=90
900 Off ch=1 n=g5 v=80
960 On ch=1 n=f#5 v=90
1020 Off ch=1 n=f#5 v=80
1080 On ch=1 n=f#6 v=90
1200 Off ch=1 n=f#6 v=80
1200 On ch=1 n=d6 v=90
1320 Off ch=1 n=d6 v=80
1320 On ch=1 n=f#5 v=90
1380 Off ch=1 n=f#5 v=80
1440 On ch=1 n=f5 v=90
1500 Off ch=1 n=f5 v=80
1560 On ch=1 n=f6 v=90
1680 Off ch=1 n=f6 v=80
1680 On ch=1 n=d6 v=90
1800 Off ch=1 n=d6 v=80
1800 On ch=1 n=f5 v=90
1860 Off ch=1 n=f5 v=80
1920 On ch=1 n=e5 v=90
1980 Off ch=1 n=e5 v=80
2040 On ch=1 n=e6 v=90
2160 Off ch=1 n=e6 v=80
2160 On ch=1 n=d6 v=90
2280 Off ch=1 n=d6 v=80
2280 On ch=1 n=e5 v=90
2340 Off ch=1 n=e5 v=80
2400 On ch=1 n=f#5 v=90
2460 Off ch=1 n=f#5 v=80
2520 On ch=1 n=f#6 v=90
2640 Off ch=1 n=f#6 v=80
2640 On ch=1 n=d6 v=90
2760 Off ch=1 n=d6 v=80
2760 On ch=1 n=f#5 v=90
2820 Off ch=1 n=f#5 v=80
2880 On ch=1 n=d5 v=90
2940 Off ch=1 n=d5 v=80
3000 On ch=1 n=d6 v=90
3120 Off ch=1 n=d6 v=80
3120 On ch=1 n=a5 v=90
3240 Off ch=1 n=a5 v=80
3240 On ch=1 n=d5 v=90
3300 Off ch=1 n=d5 v=80
3360 On ch=1 n=a4 v=90
3420 Off ch=1 n=a4 v=80
3480 On ch=1 n=a5 v=90
3600 Off ch=1 n=a5 v=80
3600 On ch=1 n=f#5 v=90
3720 Off ch=1 n=f#5 v=80
3720 On ch=1 n=a4 v=90
3780 Off ch=1 n=a4 v=80
3840 On ch=1 n=a4 v=90
3900 Off ch=1 n=a4 v=80
3960 On ch=1 n=a5 v=90
4080 Off ch=1 n=a5 v=80
4080 On ch=1 n=e5 v=90
4200 Off ch=1 n=e5 v=80
4200 On ch=1 n=a4 v=90
4260 Off ch=1 n=a4 v=80
4320 On ch=1 n=a4 v=90
4380 Off ch=1 n=a4 v=80
4440 On ch=1 n=a5 v=90
4560 Off ch=1 n=a5 v=80
4560 On ch=1 n=d#5 v=90
4680 Off ch=1 n=d#5 v=80
4680 On ch=1 n=a4 v=90
4740 Off ch=1 n=a4 v=80
4800 On ch=1 n=g#4 v=90
4860 Off ch=1 n=g#4 v=80
4920 On ch=1 n=g#5 v=90
5040 Off ch=1 n=g#5 v=80
5040 On ch=1 n=d5 v=90
5160 Off ch=1 n=d5 v=80
5160 On ch=1 n=g#4 v=90
5220 Off ch=1 n=g#4 v=80
5280 On ch=1 n=g4 v=90
5340 Off ch=1 n=g4 v=80
5400 On ch=1 n=g5 v=90
5520 Off ch=1 n=g5 v=80
5520 On ch=1 n=d5 v=90
5640 Off ch=1 n=d5 v=80
5640 On ch=1 n=g4 v=90
5700 Off ch=1 n=g4 v=80
5760 On ch=1 n=f#4 v=90
5820 Off ch=1 n=f#4 v=80
5880 On ch=1 n=f#5 v=90
6000 Off ch=1 n=f#5 v=80
6000 On ch=1 n=d5 v=90
6120 Off ch=1 n=d5 v=80
6120 On ch=1 n=f#4 v=90
6180 Off ch=1 n=f#4 v=80
6240 On ch=1 n=f4 v=90
6300 Off ch=1 n=f4 v=80
6360 On ch=1 n=f5 v=90
6480 Off ch=1 n=f5 v=80
6480 On ch=1 n=d5 v=90
6600 Off ch=1 n=d5 v=80
6600 On ch=1 n=f4 v=90
6660 Off ch=1 n=f4 v=80
6720 On ch=1 n=e4 v=90
6780 Off ch=1 n=e4 v=80
6840 On ch=1 n=e5 v=90
6960 Off ch=1 n=e5 v=80
6960 On ch=1 n=c#5 v=90
7080 Off ch=1 n=c#5 v=80
7080 On ch=1 n=e4 v=90
7140 Off ch=1 n=e4 v=80
7680 On ch=1 n=a5 v=90
7740 Off ch=1 n=a5 v=80
7800 On ch=1 n=a6 v=90
7920 Off ch=1 n=a6 v=80
7920 On ch=1 n=f#6 v=90
8040 Off ch=1 n=f#6 v=80
8040 On ch=1 n=a5 v=90
8100 Off ch=1 n=a5 v=80
8160 On ch=1 n=b5 v=90
8220 Off ch=1 n=b5 v=80
8280 On ch=1 n=b6 v=90
8400 Off ch=1 n=b6 v=80
8400 On ch=1 n=f#6 v=90
8520 Off ch=1 n=f#6 v=80
8520 On ch=1 n=b5 v=90
8580 Off ch=1 n=b5 v=80
8640 On ch=1 n=a5 v=90
8700 Off ch=1 n=a5 v=80
8760 On ch=1 n=a6 v=90
8880 Off ch=1 n=a6 v=80
8880 On ch=1 n=f#6 v=90
9000 Off ch=1 n=f#6 v=80
9000 On ch=1 n=a5 v=90
9060 Off ch=1 n=a5 v=80
9120 On ch=1 n=f#5 v=90
9180 Off ch=1 n=f#5 v=80
9240 On ch=1 n=f#6 v=90
9360 Off ch=1 n=f#6 v=80
9360 On ch=1 n=c#6 v=90
9480 Off ch=1 n=c#6 v=80
9480 On ch=1 n=f#5 v=90
9540 Off ch=1 n=f#5 v=80
9600 On ch=1 n=g#5 v=90
9660 Off ch=1 n=g#5 v=80
9720 On ch=1 n=g#6 v=90
9840 Off ch=1 n=g#6 v=80
9840 On ch=1 n=d6 v=90
9960 Off ch=1 n=d6 v=80
9960 On ch=1 n=g#5 v=90
10020 Off ch=1 n=g#5 v=80
10080 On ch=1 n=a5 v=90
10140 Off ch=1 n=a5 v=80
10200 On ch=1 n=a6 v=90
10320 Off ch=1 n=a6 v=80
10320 On ch=1 n=f6 v=90
10440 Off ch=1 n=f6 v=80
10440 On ch=1 n=a5 v=90
10500 Off ch=1 n=a5 v=80
10560 On ch=1 n=f#5 v=90
10620 Off ch=1 n=f#5 v=80
10680 On ch=1 n=f#6 v=90
10800 Off ch=1 n=f#6 v=80
10800 On ch=1 n=c#6 v=90
10920 Off ch=1 n=c#6 v=80
10920 On ch=1 n=f#5 v=90
10980 Off ch=1 n=f#5 v=80
11520 On ch=1 n=c#6 v=90
11580 Off ch=1 n=c#6 v=80
11640 On ch=1 n=c#7 v=90
11760 Off ch=1 n=c#7 v=80
11760 On ch=1 n=a6 v=90
11880 Off ch=1 n=a6 v=80
11880 On ch=1 n=c#6 v=90
11940 Off ch=1 n=c#6 v=80
12000 On ch=1 n=d6 v=90
12060 Off ch=1 n=d6 v=80
12120 On ch=1 n=d7 v=90
12240 Off ch=1 n=d7 v=80
12240 On ch=1 n=a6 v=90
12360 Off ch=1 n=a6 v=80
12360 On ch=1 n=d6 v=90
12420 Off ch=1 n=d6 v=80
12480 On ch=1 n=c#6 v=90
12540 Off ch=1 n=c#6 v=80
12600 On ch=1 n=c#7 v=90
12720 Off ch=1 n=c#7 v=80
12720 On ch=1 n=a6 v=90
12840 Off ch=1 n=a6 v=80
12840 On ch=1 n=c#6 v=90
12900 Off ch=1 n=c#6 v=80
12960 On ch=1 n=a5 v=90
13020 Off ch=1 n=a5 v=80
13080 On ch=1 n=a6 v=90
13200 Off ch=1 n=a6 v=80
13200 On ch=1 n=e6 v=90
13320 Off ch=1 n=e6 v=80
13320 On ch=1 n=a5 v=90
13380 Off ch=1 n=a5 v=80
13440 On ch=1 n=b5 v=90
13500 Off ch=1 n=b5 v=80
13560 On ch=1 n=b6 v=90
13680 Off ch=1 n=b6 v=80
13680 On ch=1 n=f#6 v=90
13800 Off ch=1 n=f#6 v=80
13800 On ch=1 n=b5 v=90
13860 Off ch=1 n=b5 v=80
13920 On ch=1 n=c#6 v=90
13980 Off ch=1 n=c#6 v=80
14040 On ch=1 n=c#7 v=90
14160 Off ch=1 n=c#7 v=80
14160 On ch=1 n=g#6 v=90
14280 Off ch=1 n=g#6 v=80
14280 On ch=1 n=c#6 v=90
14340 Off ch=1 n=c#6 v=80
14400 On ch=1 n=a5 v=90
14460 Off ch=1 n=a5 v=80
14520 On ch=1 n=a6 v=90
14640 Off ch=1 n=a6 v=80
14640 On ch=1 n=e6 v=90
14760 Off ch=1 n=e6 v=80
14760 On ch=1 n=a5 v=90
14820 Off ch=1 n=a5 v=80
15360 On ch=1 n=a4 v=78
15480 On ch=1 n=a5 v=65
15600 Off ch=1 n=a5 v=80
15600 Off ch=1 n=a4 v=80
15600 On ch=1 n=f#5 v=65
15720 Off ch=1 n=f#5 v=80
15720 On ch=1 n=a4 v=78
15780 Off ch=1 n=a4 v=80
15840 On ch=1 n=a4 v=90
15960 On ch=1 n=a5 v=71
16080 Off ch=1 n=a5 v=80
16080 Off ch=1 n=a4 v=80
16080 On ch=1 n=f#5 v=71
16200 Off ch=1 n=f#5 v=80
16200 On ch=1 n=b4 v=90
16260 Off ch=1 n=b4 v=80
16320 On ch=1 n=c5 v=102
16440 Off ch=1 n=c5 v=80
16440 On ch=1 n=a5 v=77
16560 Off ch=1 n=a5 v=80
16560 On ch=1 n=f#5 v=77
16680 Off ch=1 n=f#5 v=80
16680 On ch=1 n=c5 v=102
16800 Off ch=1 n=c5 v=80
16800 On ch=1 n=c5 v=102
16920 Off ch=1 n=c5 v=80
16920 On ch=1 n=a5 v=77
17040 Off ch=1 n=a5 v=80
17040 On ch=1 n=d#5 v=77
17160 Off ch=1 n=d#5 v=80
17160 On ch=1 n=c5 v=102
17280 Off ch=1 n=c5 v=80
17280 On ch=1 n=b4 v=95
17400 Off ch=1 n=b4 v=80
17400 On ch=1 n=g#5 v=70
17520 Off ch=1 n=g#5 v=80
17520 On ch=1 n=e5 v=70
17640 Off ch=1 n=e5 v=80
17640 On ch=1 n=b4 v=95
17760 Off ch=1 n=b4 v=80
17760 On ch=1 n=a#4 v=87
17880 Off ch=1 n=a#4 v=80
17880 On ch=1 n=g5 v=62
18000 Off ch=1 n=g5 v=80
18000 On ch=1 n=d5 v=62
18120 Off ch=1 n=d5 v=80
18120 On ch=1 n=a#4 v=87
18240 Off ch=1 n=a#4 v=80
18240 On ch=1 n=a4 v=80
18360 Off ch=1 n=a4 v=80
18360 On ch=1 n=f#5 v=55
18480 Off ch=1 n=f#5 v=80
18480 On ch=1 n=c5 v=55
18600 Off ch=1 n=c5 v=80
18600 On ch=1 n=a4 v=80
18720 Off ch=1 n=a4 v=80
18720 On ch=1 n=g4 v=72
18840 Off ch=1 n=g4 v=80
18840 On ch=1 n=e5 v=47
18960 Off ch=1 n=e5 v=80
18960 On ch=1 n=c#5 v=47
19080 Off ch=1 n=c#5 v=80
19080 On ch=1 n=g4 v=72
19200 Off ch=1 n=g4 v=80
19200 On ch=1 n=f#4 v=65
19320 Off ch=1 n=f#4 v=80
19320 On ch=1 n=f#5 v=53
19440 Off ch=1 n=f#5 v=80
19440 On ch=1 n=d5 v=53
19560 Off ch=1 n=d5 v=80
19560 On ch=1 n=f#4 v=65
19620 Off ch=1 n=f#4 v=80
19680 On ch=1 n=f#4 v=65
19800 On ch=1 n=f#5 v=53
19860 Off ch=1 n=f#4 v=80
19920 Off ch=1 n=f#5 v=80
19920 On ch=1 n=d5 v=53
20040 Off ch=1 n=d5 v=80
20040 On ch=1 n=g4 v=65
20100 Off ch=1 n=g4 v=80
20160 On ch=1 n=a4 v=65
20220 Off ch=1 n=a4 v=80
20280 On ch=1 n=f#5 v=53
20400 Off ch=1 n=f#5 v=80
20400 On ch=1 n=d5 v=53
20520 Off ch=1 n=d5 v=80
20520 On ch=1 n=a4 v=65
20640 Off ch=1 n=a4 v=80
20640 On ch=1 n=a4 v=53
20760 Off ch=1 n=a4 v=80
20760 On ch=1 n=f#5 v=41
20880 Off ch=1 n=f#5 v=80
20880 On ch=1 n=d#5 v=41
21000 Off ch=1 n=d#5 v=80
21000 On ch=1 n=a4 v=53
21120 Off ch=1 n=a4 v=80
21120 On ch=1 n=g4 v=61
21240 Off ch=1 n=g4 v=80
21240 On ch=1 n=g5 v=49
21360 Off ch=1 n=g5 v=80
21360 On ch=1 n=e5 v=49
21480 Off ch=1 n=e5 v=80
21480 On ch=1 n=g4 v=61
21600 Off ch=1 n=g4 v=80
21600 On ch=1 n=c5 v=70
21720 Off ch=1 n=c5 v=80
21720 On ch=1 n=a5 v=58
21840 Off ch=1 n=a5 v=80
21840 On ch=1 n=e5 v=58
21960 Off ch=1 n=e5 v=80
21960 On ch=1 n=c5 v=70
22080 Off ch=1 n=c5 v=80
22080 On ch=1 n=b4 v=78
22200 Off ch=1 n=b4 v=80
22200 On ch=1 n=g5 v=65
22320 Off ch=1 n=g5 v=80
22320 On ch=1 n=e5 v=65
22440 Off ch=1 n=e5 v=80
22440 On ch=1 n=b4 v=78
22560 Off ch=1 n=b4 v=80
22560 On ch=1 n=b4 v=65
22680 Off ch=1 n=b4 v=80
22680 On ch=1 n=f#5 v=53
22800 Off ch=1 n=f#5 v=80
22800 On ch=1 n=d#5 v=53
22920 Off ch=1 n=d#5 v=80
22920 On ch=1 n=b4 v=65
23040 Off ch=1 n=b4 v=80
23040 On ch=1 n=b4 v=78
23160 Off ch=1 n=b4 v=80
23160 On ch=1 n=b5 v=65
23280 Off ch=1 n=b5 v=80
23280 On ch=1 n=g#5 v=65
23400 Off ch=1 n=g#5 v=80
23400 On ch=1 n=b4 v=78
23460 Off ch=1 n=b4 v=80
23520 On ch=1 n=b4 v=90
23640 On ch=1 n=b5 v=71
23700 Off ch=1 n=b4 v=80
23760 Off ch=1 n=b5 v=80
23760 On ch=1 n=g#5 v=71
23880 Off ch=1 n=g#5 v=80
23880 On ch=1 n=c#5 v=90
23940 Off ch=1 n=c#5 v=80
24000 On ch=1 n=d5 v=102
24120 Off ch=1 n=d5 v=80
24120 On ch=1 n=b5 v=77
24240 Off ch=1 n=b5 v=80
24240 On ch=1 n=g#5 v=77
24360 Off ch=1 n=g#5 v=80
24360 On ch=1 n=d5 v=102
24480 Off ch=1 n=d5 v=80
24480 On ch=1 n=d5 v=102
24600 Off ch=1 n=d5 v=80
24600 On ch=1 n=b5 v=77
24720 Off ch=1 n=b5 v=80
24720 On ch=1 n=f5 v=77
24840 Off ch=1 n=f5 v=80
24840 On ch=1 n=d5 v=102
24960 Off ch=1 n=d5 v=80
24960 On ch=1 n=c#5 v=95
25080 Off ch=1 n=c#5 v=80
25080 On ch=1 n=a#5 v=70
25200 Off ch=1 n=a#5 v=80
25200 On ch=1 n=f#5 v=70
25320 Off ch=1 n=f#5 v=80
25320 On ch=1 n=c#5 v=95
25440 Off ch=1 n=c#5 v=80
25440 On ch=1 n=c5 v=87
25560 Off ch=1 n=c5 v=80
25560 On ch=1 n=a5 v=62
25680 Off ch=1 n=a5 v=80
25680 On ch=1 n=e5 v=62
25800 Off ch=1 n=e5 v=80
25800 On ch=1 n=c5 v=87
25920 Off ch=1 n=c5 v=80
25920 On ch=1 n=b4 v=80
26040 Off ch=1 n=b4 v=80
26040 On ch=1 n=g#5 v=55
26160 Off ch=1 n=g#5 v=80
26160 On ch=1 n=d5 v=55
26280 Off ch=1 n=d5 v=80
26280 On ch=1 n=b4 v=80
26400 Off ch=1 n=b4 v=80
26400 On ch=1 n=a4 v=72
26520 Off ch=1 n=a4 v=80
26520 On ch=1 n=f#5 v=47
26640 Off ch=1 n=f#5 v=80
26640 On ch=1 n=d#5 v=47
26760 Off ch=1 n=d#5 v=80
26760 On ch=1 n=a4 v=72
26880 Off ch=1 n=a4 v=80
26880 On ch=1 n=g#4 v=65
27000 Off ch=1 n=g#4 v=80
27000 On ch=1 n=g#5 v=53
27120 Off ch=1 n=g#5 v=80
27120 On ch=1 n=e5 v=53
27240 Off ch=1 n=e5 v=80
27240 On ch=1 n=g#4 v=65
27300 Off ch=1 n=g#4 v=80
27360 On ch=1 n=g#4 v=65
27480 On ch=1 n=g#5 v=53
27540 Off ch=1 n=g#4 v=80
27600 Off ch=1 n=g#5 v=80
27600 On ch=1 n=e5 v=53
27720 Off ch=1 n=e5 v=80
27720 On ch=1 n=a4 v=65
27780 Off ch=1 n=a4 v=80
27840 On ch=1 n=b4 v=65
27900 Off ch=1 n=b4 v=80
27960 On ch=1 n=g#5 v=53
28080 Off ch=1 n=g#5 v=80
28080 On ch=1 n=e5 v=53
28200 Off ch=1 n=e5 v=80
28200 On ch=1 n=b4 v=65
28320 Off ch=1 n=b4 v=80
28320 On ch=1 n=b4 v=53
28440 Off ch=1 n=b4 v=80
28440 On ch=1 n=g#5 v=41
28560 Off ch=1 n=g#5 v=80
28560 On ch=1 n=f5 v=41
28680 Off ch=1 n=f5 v=80
28680 On ch=1 n=b4 v=53
28800 Off ch=1 n=b4 v=80
28800 On ch=1 n=a4 v=61
28920 Off ch=1 n=a4 v=80
28920 On ch=1 n=a5 v=49
29040 Off ch=1 n=a5 v=80
29040 On ch=1 n=f#5 v=49
29160 Off ch=1 n=f#5 v=80
29160 On ch=1 n=a4 v=61
29280 Off ch=1 n=a4 v=80
29280 On ch=1 n=d5 v=70
29400 Off ch=1 n=d5 v=80
29400 On ch=1 n=b5 v=58
29520 Off ch=1 n=b5 v=80
29520 On ch=1 n=f#5 v=58
29640 Off ch=1 n=f#5 v=80
29640 On ch=1 n=d5 v=70
29760 Off ch=1 n=d5 v=80
29760 On ch=1 n=c#5 v=78
29880 Off ch=1 n=c#5 v=80
29880 On ch=1 n=a5 v=65
30000 Off ch=1 n=a5 v=80
30000 On ch=1 n=f#5 v=65
30120 Off ch=1 n=f#5 v=80
30120 On ch=1 n=c#5 v=78
30240 Off ch=1 n=c#5 v=80
30240 On ch=1 n=b4 v=65
30360 Off ch=1 n=b4 v=80
30360 On ch=1 n=g#5 v=53
30480 Off ch=1 n=g#5 v=80
30480 On ch=1 n=f5 v=53
30600 Off ch=1 n=f5 v=80
30600 On ch=1 n=b4 v=65
30720 Off ch=1 n=b4 v=80
30720 On ch=1 n=a4 v=53
30780 Off ch=1 n=a4 v=80
30840 On ch=1 n=a5 v=41
30960 Off ch=1 n=a5 v=80
30960 On ch=1 n=f#5 v=41
31080 Off ch=1 n=f#5 v=80
31080 On ch=1 n=a4 v=53
31140 Off ch=1 n=a4 v=80
31200 On ch=1 n=a4 v=53
31260 Off ch=1 n=a4 v=80
31320 On ch=1 n=a5 v=41
31440 Off ch=1 n=a5 v=80
31440 On ch=1 n=f#5 v=41
31560 Off ch=1 n=f#5 v=80
31560 On ch=1 n=b4 v=53
31620 Off ch=1 n=b4 v=80
31680 On ch=1 n=c#5 v=61
31740 Off ch=1 n=c#5 v=80
31800 On ch=1 n=c#6 v=49
31920 Off ch=1 n=c#6 v=80
31920 On ch=1 n=a5 v=49
32040 Off ch=1 n=a5 v=80
32040 On ch=1 n=c#5 v=61
32100 Off ch=1 n=c#5 v=80
32160 On ch=1 n=c#5 v=69
32220 Off ch=1 n=c#5 v=80
32280 On ch=1 n=c#6 v=57
32400 Off ch=1 n=c#6 v=80
32400 On ch=1 n=a5 v=57
32520 Off ch=1 n=a5 v=80
32520 On ch=1 n=f#5 v=69
32580 Off ch=1 n=f#5 v=80
32640 On ch=1 n=f#5 v=90
32760 On ch=1 n=c#6 v=65
32880 Off ch=1 n=c#6 v=80
32880 On ch=1 n=g#5 v=65
33000 Off ch=1 n=f#5 v=80
33000 Off ch=1 n=g#5 v=80
33000 On ch=1 n=f#5 v=78
33120 Off ch=1 n=f#5 v=80
33120 On ch=1 n=f#5 v=90
33240 On ch=1 n=c#6 v=65
33360 Off ch=1 n=c#6 v=80
33360 On ch=1 n=g#5 v=65
33480 Off ch=1 n=f#5 v=80
33480 Off ch=1 n=g#5 v=80
33480 On ch=1 n=f#5 v=78
33600 Off ch=1 n=f#5 v=80
33600 On ch=1 n=e5 v=86
33720 On ch=1 n=c#6 v=73
33840 Off ch=1 n=c#6 v=80
33840 On ch=1 n=g#5 v=73
33960 Off ch=1 n=e5 v=80
33960 Off ch=1 n=g#5 v=80
33960 On ch=1 n=e5 v=86
34080 Off ch=1 n=e5 v=80
34080 On ch=1 n=e5 v=94
34200 On ch=1 n=c#6 v=81
34320 Off ch=1 n=c#6 v=80
34320 On ch=1 n=g#5 v=81
34440 Off ch=1 n=e5 v=80
34440 Off ch=1 n=g#5 v=80
34440 On ch=1 n=e5 v=94
34560 Off ch=1 n=e5 v=80
34560 On ch=1 n=d5 v=90
34680 Off ch=1 n=d5 v=80
34680 On ch=1 n=c#6 v=90
34800 Off ch=1 n=c#6 v=80
34800 On ch=1 n=a5 v=90
34920 Off ch=1 n=a5 v=80
34920 On ch=1 n=d5 v=90
35040 Off ch=1 n=d5 v=80
35040 On ch=1 n=d5 v=90
35160 Off ch=1 n=d5 v=80
35160 On ch=1 n=c#6 v=90
35280 Off ch=1 n=c#6 v=80
35280 On ch=1 n=a5 v=90
35400 Off ch=1 n=a5 v=80
35400 On ch=1 n=d5 v=90
35520 Off ch=1 n=d5 v=80
35520 On ch=1 n=d5 v=90
35640 Off ch=1 n=d5 v=80
35640 On ch=1 n=b5 v=90
35760 Off ch=1 n=b5 v=80
35760 On ch=1 n=a5 v=90
35880 Off ch=1 n=a5 v=80
35880 On ch=1 n=d5 v=90
36000 Off ch=1 n=d5 v=80
36000 On ch=1 n=d5 v=90
36120 Off ch=1 n=d5 v=80
36120 On ch=1 n=b5 v=90
36240 Off ch=1 n=b5 v=80
36240 On ch=1 n=g#5 v=90
36360 Off ch=1 n=g#5 v=80
36360 On ch=1 n=d5 v=90
36480 Off ch=1 n=d5 v=80
36480 On ch=1 n=d5 v=90
36600 Off ch=1 n=d5 v=80
36600 On ch=1 n=b5 v=90
36720 Off ch=1 n=b5 v=80
36720 On ch=1 n=f5 v=90
36840 Off ch=1 n=f5 v=80
36840 On ch=1 n=d5 v=90
36960 Off ch=1 n=d5 v=80
36960 On ch=1 n=d5 v=90
37080 Off ch=1 n=d5 v=80
37080 On ch=1 n=b5 v=90
37200 Off ch=1 n=b5 v=80
37200 On ch=1 n=f5 v=90
37320 Off ch=1 n=f5 v=80
37320 On ch=1 n=d5 v=90
37440 Off ch=1 n=d5 v=80
37440 On ch=1 n=d5 v=90
37560 Off ch=1 n=d5 v=80
37560 On ch=1 n=a5 v=90
37680 Off ch=1 n=a5 v=80
37680 On ch=1 n=f#5 v=90
37800 Off ch=1 n=f#5 v=80
37800 On ch=1 n=d5 v=90
37920 Off ch=1 n=d5 v=80
37920 On ch=1 n=d5 v=90
38040 Off ch=1 n=d5 v=80
38040 On ch=1 n=a5 v=90
38160 Off ch=1 n=a5 v=80
38160 On ch=1 n=f#5 v=90
38280 Off ch=1 n=f#5 v=80
38280 On ch=1 n=d5 v=90
38400 Off ch=1 n=d5 v=80
38400 On ch=1 n=d5 v=102
38490 Off ch=1 n=d5 v=80
38520 On ch=1 n=g#5 v=78
38640 Off ch=1 n=g#5 v=80
38640 On ch=1 n=f5 v=78
38760 Off ch=1 n=f5 v=80
38760 On ch=1 n=d5 v=102
38850 Off ch=1 n=d5 v=80
38880 On ch=1 n=d5 v=102
38970 Off ch=1 n=d5 v=80
39000 On ch=1 n=g#5 v=78
39120 Off ch=1 n=g#5 v=80
39120 On ch=1 n=f5 v=78
39240 Off ch=1 n=f5 v=80
39240 On ch=1 n=d5 v=102
39330 Off ch=1 n=d5 v=80
39360 On ch=1 n=c#5 v=102
39450 Off ch=1 n=c#5 v=80
39480 On ch=1 n=g#5 v=78
39600 Off ch=1 n=g#5 v=80
39600 On ch=1 n=f#5 v=78
39720 Off ch=1 n=f#5 v=80
39720 On ch=1 n=b4 v=102
39810 Off ch=1 n=b4 v=80
39840 On ch=1 n=a4 v=102
39930 Off ch=1 n=a4 v=80
39960 On ch=1 n=g#5 v=78
40080 Off ch=1 n=g#5 v=80
40080 On ch=1 n=f#5 v=78
40200 Off ch=1 n=f#5 v=80
40200 On ch=1 n=g#4 v=102
40290 Off ch=1 n=g#4 v=80
40320 On ch=1 n=f#4 v=102
40440 On ch=1 n=c#6 v=78
40500 Off ch=1 n=f#4 v=80
40560 Off ch=1 n=c#6 v=80
40560 On ch=1 n=a#5 v=78
40680 Off ch=1 n=a#5 v=80
40680 On ch=1 n=c#5 v=102
40770 Off ch=1 n=c#5 v=80
40800 On ch=1 n=c#5 v=102
40920 On ch=1 n=c#6 v=78
40980 Off ch=1 n=c#5 v=80
41040 Off ch=1 n=c#6 v=80
41040 On ch=1 n=a#5 v=78
41160 Off ch=1 n=a#5 v=80
41160 On ch=1 n=d#5 v=102
41250 Off ch=1 n=d#5 v=80
41280 On ch=1 n=e5 v=102
41400 Off ch=1 n=e5 v=80
41400 On ch=1 n=c#6 v=78
41520 Off ch=1 n=c#6 v=80
41520 On ch=1 n=a#5 v=78
41640 Off ch=1 n=a#5 v=80
41640 On ch=1 n=e5 v=102
41760 Off ch=1 n=e5 v=80
41760 On ch=1 n=e5 v=102
41880 Off ch=1 n=e5 v=80
41880 On ch=1 n=c#6 v=78
42000 Off ch=1 n=c#6 v=80
42000 On ch=1 n=g5 v=78
42120 Off ch=1 n=g5 v=80
42120 On ch=1 n=e5 v=102
42240 Off ch=1 n=e5 v=80
42240 On ch=1 n=d#5 v=95
42360 Off ch=1 n=d#5 v=80
42360 On ch=1 n=c6 v=78
42480 Off ch=1 n=c6 v=80
42480 On ch=1 n=g#5 v=78
42600 Off ch=1 n=g#5 v=80
42600 On ch=1 n=d#5 v=95
42720 Off ch=1 n=d#5 v=80
42720 On ch=1 n=d5 v=87
42840 Off ch=1 n=d5 v=80
42840 On ch=1 n=b5 v=75
42960 Off ch=1 n=b5 v=80
42960 On ch=1 n=f#5 v=75
43080 Off ch=1 n=f#5 v=80
43080 On ch=1 n=d5 v=87
43200 Off ch=1 n=d5 v=80
43200 On ch=1 n=c#5 v=80
43320 Off ch=1 n=c#5 v=80
43320 On ch=1 n=a#5 v=68
43440 Off ch=1 n=a#5 v=80
43440 On ch=1 n=e5 v=68
43560 Off ch=1 n=e5 v=80
43560 On ch=1 n=c#5 v=80
43680 Off ch=1 n=c#5 v=80
43680 On ch=1 n=b4 v=72
43800 Off ch=1 n=b4 v=80
43800 On ch=1 n=g#5 v=60
43920 Off ch=1 n=g#5 v=80
43920 On ch=1 n=f5 v=60
44040 Off ch=1 n=f5 v=80
44040 On ch=1 n=b4 v=72
44160 Off ch=1 n=b4 v=80
44160 On ch=1 n=a#4 v=65
44280 Off ch=1 n=a#4 v=80
44280 On ch=1 n=a#5 v=47
44400 Off ch=1 n=a#5 v=80
44400 On ch=1 n=f#5 v=47
44520 Off ch=1 n=f#5 v=80
44520 On ch=1 n=a#4 v=65
44580 Off ch=1 n=a#4 v=80
44640 On ch=1 n=a#4 v=65
44760 On ch=1 n=a#5 v=47
44820 Off ch=1 n=a#4 v=80
44880 Off ch=1 n=a#5 v=80
44880 On ch=1 n=f#5 v=47
45000 Off ch=1 n=f#5 v=80
45000 On ch=1 n=b4 v=65
45060 Off ch=1 n=b4 v=80
45120 On ch=1 n=c#5 v=65
45180 Off ch=1 n=c#5 v=80
45240 On ch=1 n=a#5 v=47
45360 Off ch=1 n=a#5 v=80
45360 On ch=1 n=f#5 v=47
45480 Off ch=1 n=f#5 v=80
45480 On ch=1 n=c#5 v=65
45600 Off ch=1 n=c#5 v=80
45600 On ch=1 n=c#5 v=53
45720 Off ch=1 n=c#5 v=80
45720 On ch=1 n=a#5 v=40
45840 Off ch=1 n=a#5 v=80
45840 On ch=1 n=g5 v=40
45960 Off ch=1 n=g5 v=80
45960 On ch=1 n=c#5 v=53
46080 Off ch=1 n=c#5 v=80
46080 On ch=1 n=b4 v=53
46200 Off ch=1 n=b4 v=80
46200 On ch=1 n=b5 v=40
46320 Off ch=1 n=b5 v=80
46320 On ch=1 n=g#5 v=40
46440 Off ch=1 n=g#5 v=80
46440 On ch=1 n=b4 v=53
46560 Off ch=1 n=b4 v=80
46560 On ch=1 n=e5 v=53
46680 Off ch=1 n=e5 v=80
46680 On ch=1 n=c#6 v=40
46800 Off ch=1 n=c#6 v=80
46800 On ch=1 n=g#5 v=40
46920 Off ch=1 n=g#5 v=80
46920 On ch=1 n=e5 v=53
47040 Off ch=1 n=e5 v=80
47040 On ch=1 n=d#5 v=53
47160 Off ch=1 n=d#5 v=80
47160 On ch=1 n=b5 v=40
47280 Off ch=1 n=b5 v=80
47280 On ch=1 n=g#5 v=40
47400 Off ch=1 n=g#5 v=80
47400 On ch=1 n=d#5 v=53
47520 Off ch=1 n=d#5 v=80
47520 On ch=1 n=d#5 v=53
47640 Off ch=1 n=d#5 v=80
47640 On ch=1 n=a#5 v=40
47760 Off ch=1 n=a#5 v=80
47760 On ch=1 n=g5 v=40
47880 Off ch=1 n=g5 v=80
47880 On ch=1 n=d#5 v=53
48000 Off ch=1 n=d#5 v=80
48000 On ch=1 n=d#5 v=53
48060 Off ch=1 n=d#5 v=80
48120 On ch=1 n=d#6 v=40
48240 Off ch=1 n=d#6 v=80
48240 On ch=1 n=c6 v=40
48360 Off ch=1 n=c6 v=80
48360 On ch=1 n=d#5 v=53
48420 Off ch=1 n=d#5 v=80
48480 On ch=1 n=d#5 v=65
48540 Off ch=1 n=d#5 v=80
48600 On ch=1 n=d#6 v=53
48720 Off ch=1 n=d#6 v=80
48720 On ch=1 n=c6 v=53
48840 Off ch=1 n=c6 v=80
48840 On ch=1 n=f5 v=65
48900 Off ch=1 n=f5 v=80
48960 On ch=1 n=f#5 v=78
49080 Off ch=1 n=f#5 v=80
49080 On ch=1 n=d#6 v=60
49200 Off ch=1 n=d#6 v=80
49200 On ch=1 n=c6 v=60
49320 Off ch=1 n=c6 v=80
49320 On ch=1 n=f#5 v=78
49440 Off ch=1 n=f#5 v=80
49440 On ch=1 n=f#5 v=78
49560 Off ch=1 n=f#5 v=80
49560 On ch=1 n=d#6 v=60
49680 Off ch=1 n=d#6 v=80
49680 On ch=1 n=a5 v=60
49800 Off ch=1 n=a5 v=80
49800 On ch=1 n=f#5 v=78
49920 Off ch=1 n=f#5 v=80
49920 On ch=1 n=f5 v=78
50040 Off ch=1 n=f5 v=80
50040 On ch=1 n=d6 v=60
50160 Off ch=1 n=d6 v=80
50160 On ch=1 n=a#5 v=60
50280 Off ch=1 n=a#5 v=80
50280 On ch=1 n=f5 v=78
50400 Off ch=1 n=f5 v=80
50400 On ch=1 n=e5 v=78
50520 Off ch=1 n=e5 v=80
50520 On ch=1 n=c#6 v=60
50640 Off ch=1 n=c#6 v=80
50640 On ch=1 n=g#5 v=60
50760 Off ch=1 n=g#5 v=80
50760 On ch=1 n=e5 v=78
50880 Off ch=1 n=e5 v=80
50880 On ch=1 n=d#5 v=78
51000 Off ch=1 n=d#5 v=80
51000 On ch=1 n=c6 v=60
51120 Off ch=1 n=c6 v=80
51120 On ch=1 n=f#5 v=60
51240 Off ch=1 n=f#5 v=80
51240 On ch=1 n=d#5 v=78
51360 Off ch=1 n=d#5 v=80
51360 On ch=1 n=c#5 v=72
51480 Off ch=1 n=c#5 v=80
51480 On ch=1 n=a#5 v=54
51600 Off ch=1 n=a#5 v=80
51600 On ch=1 n=g5 v=54
51720 Off ch=1 n=g5 v=80
51720 On ch=1 n=c#5 v=72
51840 Off ch=1 n=c#5 v=80
51840 On ch=1 n=c5 v=65
51960 Off ch=1 n=c5 v=80
51960 On ch=1 n=c6 v=50
52080 Off ch=1 n=c6 v=80
52080 On ch=1 n=g#5 v=50
52200 Off ch=1 n=g#5 v=80
52200 On ch=1 n=c5 v=65
52260 Off ch=1 n=c5 v=80
52320 On ch=1 n=c5 v=65
52440 Off ch=1 n=c5 v=80
52440 On ch=1 n=c6 v=51
52560 Off ch=1 n=c6 v=80
52560 On ch=1 n=g#5 v=51
52680 Off ch=1 n=g#5 v=80
52680 On ch=1 n=c#5 v=78
52800 Off ch=1 n=c#5 v=80
52800 On ch=1 n=d#5 v=90
52920 Off ch=1 n=d#5 v=80
52920 On ch=1 n=c6 v=75
53040 Off ch=1 n=c6 v=80
53040 On ch=1 n=g#5 v=75
53160 Off ch=1 n=g#5 v=80
53160 On ch=1 n=d#5 v=90
53280 Off ch=1 n=d#5 v=80
53280 On ch=1 n=d#5 v=53
53400 Off ch=1 n=d#5 v=80
53400 On ch=1 n=c6 v=40
53520 Off ch=1 n=c6 v=80
53520 On ch=1 n=a5 v=40
53640 Off ch=1 n=a5 v=80
53640 On ch=1 n=d#5 v=53
53760 Off ch=1 n=d#5 v=80
53760 On ch=1 n=c#5 v=53
53880 Off ch=1 n=c#5 v=80
53880 On ch=1 n=c#6 v=40
54000 Off ch=1 n=c#6 v=80
54000 On ch=1 n=a#5 v=40
54120 Off ch=1 n=a#5 v=80
54120 On ch=1 n=c#5 v=53
54240 Off ch=1 n=c#5 v=80
54240 On ch=1 n=f#5 v=53
54360 Off ch=1 n=f#5 v=80
54360 On ch=1 n=d#6 v=40
54480 Off ch=1 n=d#6 v=80
54480 On ch=1 n=a#5 v=40
54600 Off ch=1 n=a#5 v=80
54600 On ch=1 n=f#5 v=53
54720 Off ch=1 n=f#5 v=80
54720 On ch=1 n=f5 v=53
54840 Off ch=1 n=f5 v=80
54840 On ch=1 n=c#6 v=40
54960 Off ch=1 n=c#6 v=80
54960 On ch=1 n=a#5 v=40
55080 Off ch=1 n=a#5 v=80
55080 On ch=1 n=f5 v=53
55200 Off ch=1 n=f5 v=80
55200 On ch=1 n=d#5 v=53
55320 Off ch=1 n=d#5 v=80
55320 On ch=1 n=c6 v=40
55440 Off ch=1 n=c6 v=80
55440 On ch=1 n=a5 v=40
55560 Off ch=1 n=a5 v=80
55560 On ch=1 n=d#5 v=53
55680 Off ch=1 n=d#5 v=80
55680 On ch=1 n=c#5 v=53
55800 Off ch=1 n=c#5 v=80
55800 On ch=1 n=c#6 v=40
55920 Off ch=1 n=c#6 v=80
55920 On ch=1 n=a#5 v=40
56040 Off ch=1 n=a#5 v=80
56040 On ch=1 n=c#5 v=53
56100 Off ch=1 n=c#5 v=80
56160 On ch=1 n=c#5 v=53
56280 Off ch=1 n=c#5 v=80
56280 On ch=1 n=c#6 v=40
56400 Off ch=1 n=c#6 v=80
56400 On ch=1 n=a#5 v=40
56520 Off ch=1 n=a#5 v=80
56520 On ch=1 n=d#5 v=53
56580 Off ch=1 n=d#5 v=80
56640 On ch=1 n=f5 v=61
56760 Off ch=1 n=f5 v=80
56760 On ch=1 n=f6 v=48
56880 Off ch=1 n=f6 v=80
56880 On ch=1 n=c#6 v=48
57000 Off ch=1 n=c#6 v=80
57000 On ch=1 n=f5 v=61
57060 Off ch=1 n=f5 v=80
57120 On ch=1 n=f5 v=69
57240 Off ch=1 n=f5 v=80
57240 On ch=1 n=f6 v=56
57360 Off ch=1 n=f6 v=80
57360 On ch=1 n=c#6 v=56
57480 Off ch=1 n=c#6 v=80
57480 On ch=1 n=a#5 v=69
57540 Off ch=1 n=a#5 v=80
57600 On ch=1 n=a#5 v=95
57720 On ch=1 n=f6 v=63
57840 Off ch=1 n=f6 v=80
57840 Off ch=1 n=a#5 v=80
57840 On ch=1 n=c6 v=63
57960 Off ch=1 n=c6 v=80
57960 On ch=1 n=a#5 v=78
58080 Off ch=1 n=a#5 v=80
58080 On ch=1 n=a#5 v=78
58200 On ch=1 n=f6 v=63
58320 Off ch=1 n=f6 v=80
58320 Off ch=1 n=a#5 v=80
58320 On ch=1 n=c6 v=63
58440 Off ch=1 n=c6 v=80
58440 On ch=1 n=a#5 v=78
58560 Off ch=1 n=a#5 v=80
58560 On ch=1 n=g#5 v=95
58680 On ch=1 n=f6 v=63
58800 Off ch=1 n=f6 v=80
58800 Off ch=1 n=g#5 v=80
58800 On ch=1 n=c6 v=63
58920 Off ch=1 n=c6 v=80
58920 On ch=1 n=g#5 v=78
59040 Off ch=1 n=g#5 v=80
59040 On ch=1 n=g#5 v=78
59160 On ch=1 n=f6 v=63
59280 Off ch=1 n=f6 v=80
59280 Off ch=1 n=g#5 v=80
59280 On ch=1 n=c6 v=63
59400 Off ch=1 n=c6 v=80
59400 On ch=1 n=g#5 v=78
59520 Off ch=1 n=g#5 v=80
59520 On ch=1 n=a#4 v=78
59640 Off ch=1 n=a#4 v=80
59640 On ch=1 n=a#5 v=63
59760 Off ch=1 n=a#5 v=80
59760 On ch=1 n=g#5 v=63
59880 Off ch=1 n=g#5 v=80
59880 On ch=1 n=a#4 v=78
59940 Off ch=1 n=a#4 v=80
60000 On ch=1 n=a#4 v=81
60120 Off ch=1 n=a#4 v=80
60120 On ch=1 n=a#5 v=68
60240 Off ch=1 n=a#5 v=80
60240 On ch=1 n=g#5 v=68
60360 Off ch=1 n=g#5 v=80
60360 On ch=1 n=c5 v=81
60420 Off ch=1 n=c5 v=80
60480 On ch=1 n=c#5 v=84
60600 Off ch=1 n=c#5 v=80
60600 On ch=1 n=a#5 v=71
60720 Off ch=1 n=a#5 v=80
60720 On ch=1 n=f#5 v=71
60840 Off ch=1 n=f#5 v=80
60840 On ch=1 n=c#5 v=84
60900 Off ch=1 n=c#5 v=80
60960 On ch=1 n=c#5 v=87
61080 Off ch=1 n=c#5 v=80
61080 On ch=1 n=c#6 v=74
61200 Off ch=1 n=c#6 v=80
61200 On ch=1 n=a#5 v=74
61320 Off ch=1 n=a#5 v=80
61320 On ch=1 n=f#5 v=87
61380 Off ch=1 n=f#5 v=80
61440 On ch=1 n=f#5 v=102
61560 On ch=1 n=c#6 v=76
61680 Off ch=1 n=c#6 v=80
61680 Off ch=1 n=f#5 v=80
61680 On ch=1 n=g#5 v=76
61800 Off ch=1 n=g#5 v=80
61800 On ch=1 n=f#5 v=90
61920 Off ch=1 n=f#5 v=80
61920 On ch=1 n=f#5 v=90
62040 On ch=1 n=c#6 v=76
62160 Off ch=1 n=c#6 v=80
62160 Off ch=1 n=f#5 v=80
62160 On ch=1 n=g#5 v=76
62280 Off ch=1 n=g#5 v=80
62280 On ch=1 n=f#5 v=90
62400 Off ch=1 n=f#5 v=80
62400 On ch=1 n=f5 v=102
62520 On ch=1 n=c#6 v=76
62640 Off ch=1 n=c#6 v=80
62640 Off ch=1 n=f5 v=80
62640 On ch=1 n=g#5 v=76
62760 Off ch=1 n=g#5 v=80
62760 On ch=1 n=f5 v=90
62880 Off ch=1 n=f5 v=80
62880 On ch=1 n=f5 v=90
63000 On ch=1 n=c#6 v=76
63120 Off ch=1 n=c#6 v=80
63120 Off ch=1 n=f5 v=80
63120 On ch=1 n=g#5 v=76
63240 Off ch=1 n=g#5 v=80
63240 On ch=1 n=f5 v=90
63360 Off ch=1 n=f5 v=80
63360 On ch=1 n=c#5 v=90
63480 On ch=1 n=c#6 v=76
63600 Off ch=1 n=c#6 v=80
63600 Off ch=1 n=c#5 v=80
63600 On ch=1 n=g5 v=76
63720 Off ch=1 n=g5 v=80
63720 On ch=1 n=c#5 v=90
63840 Off ch=1 n=c#5 v=80
63840 On ch=1 n=c#5 v=90
63960 On ch=1 n=c#6 v=76
64080 Off ch=1 n=c#6 v=80
64080 Off ch=1 n=c#5 v=80
64080 On ch=1 n=g5 v=76
64200 Off ch=1 n=g5 v=80
64200 On ch=1 n=c#5 v=90
64320 Off ch=1 n=c#5 v=80
64320 On ch=1 n=e5 v=90
64440 On ch=1 n=c#6 v=70
64560 Off ch=1 n=c#6 v=80
64560 Off ch=1 n=e5 v=80
64560 On ch=1 n=a#5 v=70
64680 Off ch=1 n=a#5 v=80
64680 On ch=1 n=e5 v=90
64800 Off ch=1 n=e5 v=80
64800 On ch=1 n=e5 v=90
64920 On ch=1 n=c#6 v=70
65040 Off ch=1 n=c#6 v=80
65040 Off ch=1 n=e5 v=80
65040 On ch=1 n=a#5 v=70
65160 Off ch=1 n=a#5 v=80
65160 On ch=1 n=e5 v=90
65280 Off ch=1 n=e5 v=80
65280 On ch=1 n=e5 v=90
65400 On ch=1 n=d6 v=70
65520 Off ch=1 n=d6 v=80
65520 Off ch=1 n=e5 v=80
65520 On ch=1 n=a5 v=70
65640 Off ch=1 n=a5 v=80
65640 On ch=1 n=d5 v=90
65760 Off ch=1 n=d5 v=80
65760 On ch=1 n=d5 v=90
65880 On ch=1 n=d6 v=70
66000 Off ch=1 n=d6 v=80
66000 Off ch=1 n=d5 v=80
66000 On ch=1 n=a5 v=70
66120 Off ch=1 n=a5 v=80
66120 On ch=1 n=e5 v=90
66240 Off ch=1 n=e5 v=80
66240 On ch=1 n=f5 v=90
66360 On ch=1 n=f6 v=70
66480 Off ch=1 n=f6 v=80
66480 Off ch=1 n=f5 v=80
66480 On ch=1 n=d6 v=70
66600 Off ch=1 n=d6 v=80
66600 On ch=1 n=f5 v=90
66720 Off ch=1 n=f5 v=80
66720 On ch=1 n=f5 v=90
66840 On ch=1 n=f6 v=70
66960 Off ch=1 n=f6 v=80
66960 Off ch=1 n=f5 v=80
66960 On ch=1 n=d6 v=70
67080 Off ch=1 n=d6 v=80
67080 On ch=1 n=f5 v=90
67200 Off ch=1 n=f5 v=80
67200 On ch=1 n=f5 v=90
67320 On ch=1 n=e6 v=70
67440 Off ch=1 n=e6 v=80
67440 Off ch=1 n=f5 v=80
67440 On ch=1 n=d6 v=70
67560 Off ch=1 n=d6 v=80
67560 On ch=1 n=e5 v=90
67680 Off ch=1 n=e5 v=80
67680 On ch=1 n=e5 v=90
67800 On ch=1 n=e6 v=70
67920 Off ch=1 n=e6 v=80
67920 Off ch=1 n=e5 v=80
67920 On ch=1 n=d6 v=70
68040 Off ch=1 n=d6 v=80
68040 On ch=1 n=f5 v=90
68160 Off ch=1 n=f5 v=80
68160 On ch=1 n=g5 v=90
68280 On ch=1 n=g6 v=70
68400 Off ch=1 n=g6 v=80
68400 Off ch=1 n=g5 v=80
68400 On ch=1 n=e6 v=70
68520 Off ch=1 n=e6 v=80
68520 On ch=1 n=g5 v=90
68640 Off ch=1 n=g5 v=80
68640 On ch=1 n=g5 v=90
68760 On ch=1 n=g6 v=70
68880 Off ch=1 n=g6 v=80
68880 Off ch=1 n=g5 v=80
68880 On ch=1 n=e6 v=70
69000 Off ch=1 n=e6 v=80
69000 On ch=1 n=g5 v=90
69120 Off ch=1 n=g5 v=80
69120 On ch=1 n=g5 v=90
69240 On ch=1 n=f6 v=70
69360 Off ch=1 n=f6 v=80
69360 Off ch=1 n=g5 v=80
69360 On ch=1 n=e6 v=70
69480 Off ch=1 n=e6 v=80
69480 On ch=1 n=f5 v=90
69600 Off ch=1 n=f5 v=80
69600 On ch=1 n=f5 v=90
69720 On ch=1 n=f6 v=70
69840 Off ch=1 n=f6 v=80
69840 Off ch=1 n=f5 v=80
69840 On ch=1 n=e6 v=70
69960 Off ch=1 n=e6 v=80
69960 On ch=1 n=g5 v=90
70080 Off ch=1 n=g5 v=80
70080 On ch=1 n=a5 v=90
70200 On ch=1 n=a6 v=70
70320 Off ch=1 n=a6 v=80
70320 Off ch=1 n=a5 v=80
70320 On ch=1 n=f6 v=70
70440 Off ch=1 n=f6 v=80
70440 On ch=1 n=a5 v=90
70560 Off ch=1 n=a5 v=80
70560 On ch=1 n=a5 v=90
70680 On ch=1 n=a6 v=70
70800 Off ch=1 n=a6 v=80
70800 Off ch=1 n=a5 v=80
70800 On ch=1 n=f6 v=70
70920 Off ch=1 n=f6 v=80
70920 On ch=1 n=a5 v=90
71040 Off ch=1 n=a5 v=80
71040 On ch=1 n=a5 v=78
71160 On ch=1 n=a#6 v=63
71280 Off ch=1 n=a#6 v=80
71280 Off ch=1 n=a5 v=80
71280 On ch=1 n=f6 v=63
71400 Off ch=1 n=f6 v=80
71400 On ch=1 n=a5 v=78
71520 Off ch=1 n=a5 v=80
71520 On ch=1 n=a5 v=78
71640 Off ch=1 n=a5 v=80
71640 On ch=1 n=g6 v=63
71760 Off ch=1 n=g6 v=80
71760 On ch=1 n=d6 v=63
71880 Off ch=1 n=d6 v=80
71880 On ch=1 n=a5 v=78
72000 Off ch=1 n=a5 v=80
72000 On ch=1 n=a5 v=85
72120 Off ch=1 n=a5 v=80
72120 On ch=1 n=a6 v=72
72240 Off ch=1 n=a6 v=80
72240 On ch=1 n=e6 v=72
72360 Off ch=1 n=e6 v=80
72360 On ch=1 n=a5 v=85
72480 Off ch=1 n=a5 v=80
72480 On ch=1 n=a5 v=85
72600 Off ch=1 n=a5 v=80
72600 On ch=1 n=f6 v=72
72720 Off ch=1 n=f6 v=80
72720 On ch=1 n=c6 v=72
72840 Off ch=1 n=c6 v=80
72840 On ch=1 n=a5 v=85
72960 Off ch=1 n=a5 v=80
72960 On ch=1 n=a5 v=92
73080 Off ch=1 n=a5 v=80
73080 On ch=1 n=g6 v=79
73200 Off ch=1 n=g6 v=80
73200 On ch=1 n=d6 v=79
73320 Off ch=1 n=d6 v=80
73320 On ch=1 n=a5 v=92
73440 Off ch=1 n=a5 v=80
73440 On ch=1 n=a5 v=92
73560 Off ch=1 n=a5 v=80
73560 On ch=1 n=e6 v=79
73680 Off ch=1 n=e6 v=80
73680 On ch=1 n=a#5 v=79
73800 Off ch=1 n=a#5 v=80
73800 On ch=1 n=a5 v=92
73920 Off ch=1 n=a5 v=80
73920 On ch=1 n=a5 v=99
74040 Off ch=1 n=a5 v=80
74040 On ch=1 n=f6 v=85
74160 Off ch=1 n=f6 v=80
74160 On ch=1 n=c6 v=85
74280 Off ch=1 n=c6 v=80
74280 On ch=1 n=a5 v=99
74400 Off ch=1 n=a5 v=80
74400 On ch=1 n=a5 v=99
74520 Off ch=1 n=a5 v=80
74520 On ch=1 n=d6 v=85
74640 Off ch=1 n=d6 v=80
74640 On ch=1 n=a#5 v=85
74760 Off ch=1 n=a#5 v=80
74760 On ch=1 n=a5 v=99
74880 Off ch=1 n=a5 v=80
74880 On ch=1 n=a5 v=106
75000 Off ch=1 n=a5 v=80
75000 On ch=1 n=e6 v=93
75120 Off ch=1 n=e6 v=80
75120 On ch=1 n=a#5 v=93
75240 Off ch=1 n=a#5 v=80
75240 On ch=1 n=a5 v=106
75360 Off ch=1 n=a5 v=80
75360 On ch=1 n=a5 v=106
75480 Off ch=1 n=a5 v=80
75480 On ch=1 n=d6 v=93
75600 Off ch=1 n=d6 v=80
75600 On ch=1 n=a#5 v=93
75720 Off ch=1 n=a#5 v=80
75720 On ch=1 n=a5 v=106
75840 Off ch=1 n=a5 v=80
75840 On ch=1 n=g5 v=114
75960 Off ch=1 n=g5 v=80
75960 On ch=1 n=c#6 v=100
76080 Off ch=1 n=c#6 v=80
76080 On ch=1 n=a5 v=100
76200 Off ch=1 n=a5 v=80
76200 On ch=1 n=g5 v=114
76320 Off ch=1 n=g5 v=80
76320 On ch=1 n=f5 v=114
76440 Off ch=1 n=f5 v=80
76440 On ch=1 n=a#5 v=100
76560 Off ch=1 n=a#5 v=80
76560 On ch=1 n=g5 v=100
76680 Off ch=1 n=g5 v=80
76680 On ch=1 n=f5 v=114
76800 Off ch=1 n=f5 v=80
76800 On ch=1 n=d5 v=114
76920 Off ch=1 n=d5 v=80
76920 On ch=1 n=g5 v=100
77040 Off ch=1 n=g5 v=80
77040 On ch=1 n=e5 v=100
77160 Off ch=1 n=e5 v=80
77160 On ch=1 n=d5 v=114
77280 Off ch=1 n=d5 v=80
77280 On ch=1 n=a#4 v=114
77400 Off ch=1 n=a#4 v=80
77400 On ch=1 n=g5 v=100
77520 Off ch=1 n=g5 v=80
77520 On ch=1 n=e5 v=100
77640 Off ch=1 n=e5 v=80
77640 On ch=1 n=a#4 v=114
77760 Off ch=1 n=a#4 v=80
77760 On ch=1 n=g4 v=114
77880 Off ch=1 n=g4 v=80
77880 On ch=1 n=g5 v=100
78000 Off ch=1 n=g5 v=80
78000 On ch=1 n=e5 v=100
78120 Off ch=1 n=e5 v=80
78120 On ch=1 n=g4 v=114
78240 Off ch=1 n=g4 v=80
78240 On ch=1 n=g4 v=114
78360 Off ch=1 n=g4 v=80
78360 On ch=1 n=g5 v=100
78480 Off ch=1 n=g5 v=80
78480 On ch=1 n=d5 v=100
78600 Off ch=1 n=d5 v=80
78600 On ch=1 n=g4 v=114
78720 Off ch=1 n=g4 v=80
78720 On ch=1 n=g4 v=78
78840 On ch=1 n=g5 v=63
78960 Off ch=1 n=g5 v=80
78960 Off ch=1 n=g4 v=80
78960 On ch=1 n=c#5 v=63
79080 Off ch=1 n=c#5 v=80
79080 On ch=1 n=g4 v=78
79200 Off ch=1 n=g4 v=80
79200 On ch=1 n=g4 v=78
79320 On ch=1 n=g5 v=63
79440 Off ch=1 n=g5 v=80
79440 Off ch=1 n=g4 v=80
79440 On ch=1 n=c#5 v=63
79560 Off ch=1 n=c#5 v=80
79560 On ch=1 n=a4 v=78
79680 Off ch=1 n=a4 v=80
79680 On ch=1 n=a#4 v=82
79800 On ch=1 n=g5 v=63
79920 Off ch=1 n=g5 v=80
79920 Off ch=1 n=a#4 v=80
79920 On ch=1 n=e5 v=63
80040 Off ch=1 n=e5 v=80
80040 On ch=1 n=a#4 v=82
80160 Off ch=1 n=a#4 v=80
80160 On ch=1 n=a#4 v=82
80280 On ch=1 n=g5 v=63
80400 Off ch=1 n=g5 v=80
80400 Off ch=1 n=a#4 v=80
80400 On ch=1 n=e5 v=63
80520 Off ch=1 n=e5 v=80
80520 On ch=1 n=a#4 v=82
80640 Off ch=1 n=a#4 v=80
80640 On ch=1 n=a#4 v=87
80760 On ch=1 n=a#5 v=75
80880 Off ch=1 n=a#5 v=80
80880 Off ch=1 n=a#4 v=80
80880 On ch=1 n=g5 v=75
81000 Off ch=1 n=g5 v=80
81000 On ch=1 n=a#4 v=87
81120 Off ch=1 n=a#4 v=80
81120 On ch=1 n=a#4 v=87
81240 On ch=1 n=a#5 v=75
81360 Off ch=1 n=a#5 v=80
81360 Off ch=1 n=a#4 v=80
81360 On ch=1 n=g5 v=75
81480 Off ch=1 n=g5 v=80
81480 On ch=1 n=c5 v=87
81600 Off ch=1 n=c5 v=80
81600 On ch=1 n=c#5 v=91
81720 On ch=1 n=a#5 v=75
81840 Off ch=1 n=a#5 v=80
81840 Off ch=1 n=c#5 v=80
81840 On ch=1 n=g5 v=75
81960 Off ch=1 n=g5 v=80
81960 On ch=1 n=c#5 v=91
82080 Off ch=1 n=c#5 v=80
82080 On ch=1 n=c#5 v=91
82200 On ch=1 n=a#5 v=75
82320 Off ch=1 n=a#5 v=80
82320 Off ch=1 n=c#5 v=80
82320 On ch=1 n=g5 v=75
82440 Off ch=1 n=g5 v=80
82440 On ch=1 n=c#5 v=91
82560 Off ch=1 n=c#5 v=80
82560 On ch=1 n=c#5 v=96
82680 On ch=1 n=a#5 v=83
82800 Off ch=1 n=a#5 v=80
82800 Off ch=1 n=c#5 v=80
82800 On ch=1 n=f#5 v=83
82920 Off ch=1 n=f#5 v=80
82920 On ch=1 n=c#5 v=96
83040 Off ch=1 n=c#5 v=80
83040 On ch=1 n=c#5 v=96
83160 On ch=1 n=a#5 v=83
83280 Off ch=1 n=a#5 v=80
83280 Off ch=1 n=c#5 v=80
83280 On ch=1 n=f#5 v=83
83400 Off ch=1 n=f#5 v=80
83400 On ch=1 n=d#5 v=96
83520 Off ch=1 n=d#5 v=80
83520 On ch=1 n=e5 v=100
83640 On ch=1 n=c#6 v=83
83760 Off ch=1 n=c#6 v=80
83760 Off ch=1 n=e5 v=80
83760 On ch=1 n=a#5 v=83
83880 Off ch=1 n=a#5 v=80
83880 On ch=1 n=e5 v=100
84000 Off ch=1 n=e5 v=80
84000 On ch=1 n=e5 v=100
84120 On ch=1 n=c#6 v=83
84240 Off ch=1 n=c#6 v=80
84240 Off ch=1 n=e5 v=80
84240 On ch=1 n=a#5 v=83
84360 Off ch=1 n=a#5 v=80
84360 On ch=1 n=e5 v=100
84480 Off ch=1 n=e5 v=80
84480 On ch=1 n=e5 v=105
84600 Off ch=1 n=e5 v=80
84600 On ch=1 n=e6 v=91
84720 Off ch=1 n=e6 v=80
84720 On ch=1 n=c#6 v=91
84840 Off ch=1 n=c#6 v=80
84840 On ch=1 n=e5 v=105
84960 Off ch=1 n=e5 v=80
84960 On ch=1 n=e5 v=105
85080 Off ch=1 n=e5 v=80
85080 On ch=1 n=e6 v=91
85200 Off ch=1 n=e6 v=80
85200 On ch=1 n=c#6 v=91
85320 Off ch=1 n=c#6 v=80
85320 On ch=1 n=f#5 v=105
85440 Off ch=1 n=f#5 v=80
85440 On ch=1 n=g5 v=109
85560 Off ch=1 n=g5 v=80
85560 On ch=1 n=e6 v=95
85680 Off ch=1 n=e6 v=80
85680 On ch=1 n=c#6 v=95
85800 Off ch=1 n=c#6 v=80
85800 On ch=1 n=g5 v=109
85920 Off ch=1 n=g5 v=80
85920 On ch=1 n=g5 v=109
86040 Off ch=1 n=g5 v=80
86040 On ch=1 n=e6 v=95
86160 Off ch=1 n=e6 v=80
86160 On ch=1 n=c#6 v=95
86280 Off ch=1 n=c#6 v=80
86280 On ch=1 n=g5 v=109
86400 Off ch=1 n=g5 v=80
86400 On ch=1 n=f#5 v=90
86460 Off ch=1 n=f#5 v=80
86520 On ch=1 n=f#6 v=90
86640 Off ch=1 n=f#6 v=80
86640 On ch=1 n=d6 v=90
86760 Off ch=1 n=d6 v=80
86760 On ch=1 n=f#5 v=90
86820 Off ch=1 n=f#5 v=80
86880 On ch=1 n=g5 v=90
86940 Off ch=1 n=g5 v=80
87000 On ch=1 n=g6 v=90
87120 Off ch=1 n=g6 v=80
87120 On ch=1 n=d6 v=90
87240 Off ch=1 n=d6 v=80
87240 On ch=1 n=g5 v=90
87300 Off ch=1 n=g5 v=80
87360 On ch=1 n=f#5 v=90
87420 Off ch=1 n=f#5 v=80
87480 On ch=1 n=f#6 v=90
87600 Off ch=1 n=f#6 v=80
87600 On ch=1 n=d6 v=90
87720 Off ch=1 n=d6 v=80
87720 On ch=1 n=f#5 v=90
87780 Off ch=1 n=f#5 v=80
87840 On ch=1 n=f5 v=90
87900 Off ch=1 n=f5 v=80
87960 On ch=1 n=f6 v=90
88080 Off ch=1 n=f6 v=80
88080 On ch=1 n=d6 v=90
88200 Off ch=1 n=d6 v=80
88200 On ch=1 n=f5 v=90
88260 Off ch=1 n=f5 v=80
88320 On ch=1 n=e5 v=90
88380 Off ch=1 n=e5 v=80
88440 On ch=1 n=e6 v=90
88560 Off ch=1 n=e6 v=80
88560 On ch=1 n=d6 v=90
88680 Off ch=1 n=d6 v=80
88680 On ch=1 n=e5 v=90
88740 Off ch=1 n=e5 v=80
88800 On ch=1 n=f#5 v=90
88860 Off ch=1 n=f#5 v=80
88920 On ch=1 n=f#6 v=90
89040 Off ch=1 n=f#6 v=80
89040 On ch=1 n=d6 v=90
89160 Off ch=1 n=d6 v=80
89160 On ch=1 n=f#5 v=90
89220 Off ch=1 n=f#5 v=80
89280 On ch=1 n=d5 v=90
89340 Off ch=1 n=d5 v=80
89400 On ch=1 n=d6 v=90
89520 Off ch=1 n=d6 v=80
89520 On ch=1 n=a5 v=90
89640 Off ch=1 n=a5 v=80
89640 On ch=1 n=d5 v=90
89700 Off ch=1 n=d5 v=80
89760 On ch=1 n=a4 v=90
89820 Off ch=1 n=a4 v=80
89880 On ch=1 n=a5 v=90
90000 Off ch=1 n=a5 v=80
90000 On ch=1 n=f#5 v=90
90120 Off ch=1 n=f#5 v=80
90120 On ch=1 n=a4 v=90
90180 Off ch=1 n=a4 v=80
90240 On ch=1 n=a4 v=90
90300 Off ch=1 n=a4 v=80
90360 On ch=1 n=a5 v=90
90480 Off ch=1 n=a5 v=80
90480 On ch=1 n=e5 v=90
90600 Off ch=1 n=e5 v=80
90600 On ch=1 n=a4 v=90
90660 Off ch=1 n=a4 v=80
90720 On ch=1 n=a4 v=90
90780 Off ch=1 n=a4 v=80
90840 On ch=1 n=a5 v=90
90960 Off ch=1 n=a5 v=80
90960 On ch=1 n=d#5 v=90
91080 Off ch=1 n=d#5 v=80
91080 On ch=1 n=a4 v=90
91140 Off ch=1 n=a4 v=80
91200 On ch=1 n=g#4 v=90
91260 Off ch=1 n=g#4 v=80
91320 On ch=1 n=g#5 v=90
91440 Off ch=1 n=g#5 v=80
91440 On ch=1 n=d5 v=90
91560 Off ch=1 n=d5 v=80
91560 On ch=1 n=g#4 v=90
91620 Off ch=1 n=g#4 v=80
91680 On ch=1 n=g4 v=90
91740 Off ch=1 n=g4 v=80
91800 On ch=1 n=g5 v=90
91920 Off ch=1 n=g5 v=80
91920 On ch=1 n=d5 v=90
92040 Off ch=1 n=d5 v=80
92040 On ch=1 n=g4 v=90
92100 Off ch=1 n=g4 v=80
92160 On ch=1 n=f#4 v=90
92220 Off ch=1 n=f#4 v=80
92280 On ch=1 n=f#5 v=90
92400 Off ch=1 n=f#5 v=80
92400 On ch=1 n=d5 v=90
92520 Off ch=1 n=d5 v=80
92520 On ch=1 n=f#4 v=90
92580 Off ch=1 n=f#4 v=80
92640 On ch=1 n=f4 v=90
92700 Off ch=1 n=f4 v=80
92760 On ch=1 n=f5 v=90
92880 Off ch=1 n=f5 v=80
92880 On ch=1 n=d5 v=90
93000 Off ch=1 n=d5 v=80
93000 On ch=1 n=f4 v=90
93060 Off ch=1 n=f4 v=80
93120 On ch=1 n=e4 v=90
93180 Off ch=1 n=e4 v=80
93240 On ch=1 n=e5 v=90
93360 Off ch=1 n=e5 v=80
93360 On ch=1 n=c#5 v=90
93480 Off ch=1 n=c#5 v=80
93480 On ch=1 n=e4 v=90
93540 Off ch=1 n=e4 v=80
94080 On ch=1 n=a5 v=90
94140 Off ch=1 n=a5 v=80
94200 On ch=1 n=a6 v=90
94320 Off ch=1 n=a6 v=80
94320 On ch=1 n=f#6 v=90
94440 Off ch=1 n=f#6 v=80
94440 On ch=1 n=a5 v=90
94500 Off ch=1 n=a5 v=80
94560 On ch=1 n=b5 v=90
94620 Off ch=1 n=b5 v=80
94680 On ch=1 n=b6 v=90
94800 Off ch=1 n=b6 v=80
94800 On ch=1 n=f#6 v=90
94920 Off ch=1 n=f#6 v=80
94920 On ch=1 n=b5 v=90
94980 Off ch=1 n=b5 v=80
95040 On ch=1 n=a5 v=90
95100 Off ch=1 n=a5 v=80
95160 On ch=1 n=a6 v=90
95280 Off ch=1 n=a6 v=80
95280 On ch=1 n=f#6 v=90
95400 Off ch=1 n=f#6 v=80
95400 On ch=1 n=a5 v=90
95460 Off ch=1 n=a5 v=80
95520 On ch=1 n=f#5 v=90
95580 Off ch=1 n=f#5 v=80
95640 On ch=1 n=f#6 v=90
95760 Off ch=1 n=f#6 v=80
95760 On ch=1 n=c#6 v=90
95880 Off ch=1 n=c#6 v=80
95880 On ch=1 n=f#5 v=90
95940 Off ch=1 n=f#5 v=80
96000 On ch=1 n=g#5 v=90
96060 Off ch=1 n=g#5 v=80
96120 On ch=1 n=g#6 v=90
96240 Off ch=1 n=g#6 v=80
96240 On ch=1 n=d6 v=90
96360 Off ch=1 n=d6 v=80
96360 On ch=1 n=g#5 v=90
96420 Off ch=1 n=g#5 v=80
96480 On ch=1 n=a5 v=90
96540 Off ch=1 n=a5 v=80
96600 On ch=1 n=a6 v=90
96720 Off ch=1 n=a6 v=80
96720 On ch=1 n=f6 v=90
96840 Off ch=1 n=f6 v=80
96840 On ch=1 n=a5 v=90
96900 Off ch=1 n=a5 v=80
96960 On ch=1 n=f#5 v=90
97020 Off ch=1 n=f#5 v=80
97080 On ch=1 n=f#6 v=90
97200 Off ch=1 n=f#6 v=80
97200 On ch=1 n=c#6 v=90
97320 Off ch=1 n=c#6 v=80
97320 On ch=1 n=f#5 v=90
97380 Off ch=1 n=f#5 v=80
97920 On ch=1 n=c#6 v=90
97980 Off ch=1 n=c#6 v=80
98040 On ch=1 n=c#7 v=90
98160 Off ch=1 n=c#7 v=80
98160 On ch=1 n=a6 v=90
98280 Off ch=1 n=a6 v=80
98280 On ch=1 n=c#6 v=90
98340 Off ch=1 n=c#6 v=80
98400 On ch=1 n=d6 v=90
98460 Off ch=1 n=d6 v=80
98520 On ch=1 n=d7 v=90
98640 Off ch=1 n=d7 v=80
98640 On ch=1 n=a6 v=90
98760 Off ch=1 n=a6 v=80
98760 On ch=1 n=d6 v=90
98820 Off ch=1 n=d6 v=80
98880 On ch=1 n=c#6 v=90
98940 Off ch=1 n=c#6 v=80
99000 On ch=1 n=c#7 v=90
99120 Off ch=1 n=c#7 v=80
99120 On ch=1 n=a6 v=90
99240 Off ch=1 n=a6 v=80
99240 On ch=1 n=c#6 v=90
99300 Off ch=1 n=c#6 v=80
99360 On ch=1 n=a5 v=90
99420 Off ch=1 n=a5 v=80
99480 On ch=1 n=a6 v=90
99600 Off ch=1 n=a6 v=80
99600 On ch=1 n=e6 v=90
99720 Off ch=1 n=e6 v=80
99720 On ch=1 n=a5 v=90
99780 Off ch=1 n=a5 v=80
99840 On ch=1 n=b5 v=90
99900 Off ch=1 n=b5 v=80
99960 On ch=1 n=b6 v=90
100080 Off ch=1 n=b6 v=80
100080 On ch=1 n=f#6 v=90
100200 Off ch=1 n=f#6 v=80
100200 On ch=1 n=b5 v=90
100260 Off ch=1 n=b5 v=80
100320 On ch=1 n=c#6 v=90
100380 Off ch=1 n=c#6 v=80
100440 On ch=1 n=c#7 v=90
100560 Off ch=1 n=c#7 v=80
100560 On ch=1 n=g#6 v=90
100680 Off ch=1 n=g#6 v=80
100680 On ch=1 n=c#6 v=90
100740 Off ch=1 n=c#6 v=80
100800 On ch=1 n=a5 v=90
100860 Off ch=1 n=a5 v=80
100920 On ch=1 n=a6 v=90
101040 Off ch=1 n=a6 v=80
101040 On ch=1 n=e6 v=90
101160 Off ch=1 n=e6 v=80
101160 On ch=1 n=a5 v=90
101220 Off ch=1 n=a5 v=80
101760 On ch=1 n=c5 v=78
101880 On ch=1 n=a5 v=63
102000 Off ch=1 n=a5 v=80
102000 Off ch=1 n=c5 v=80
102000 On ch=1 n=f#5 v=63
102120 Off ch=1 n=f#5 v=80
102120 On ch=1 n=c5 v=78
102240 Off ch=1 n=c5 v=80
102240 On ch=1 n=c5 v=86
102360 On ch=1 n=b5 v=63
102480 Off ch=1 n=b5 v=80
102480 Off ch=1 n=c5 v=80
102480 On ch=1 n=f#5 v=63
102600 Off ch=1 n=f#5 v=80
102600 On ch=1 n=d5 v=86
102720 Off ch=1 n=d5 v=80
102720 On ch=1 n=e5 v=105
102840 On ch=1 n=c6 v=94
102960 Off ch=1 n=c6 v=80
102960 On ch=1 n=f#5 v=94
103080 Off ch=1 n=e5 v=80
103080 Off ch=1 n=f#5 v=80
103080 On ch=1 n=e5 v=94
103200 Off ch=1 n=e5 v=80
103200 On ch=1 n=d5 v=102
103320 On ch=1 n=b5 v=102
103440 Off ch=1 n=b5 v=80
103440 Off ch=1 n=d5 v=80
103440 On ch=1 n=f#5 v=102
103560 Off ch=1 n=f#5 v=80
103560 On ch=1 n=c5 v=102
103680 Off ch=1 n=c5 v=80
103680 On ch=1 n=b4 v=78
103800 On ch=1 n=g5 v=63
103920 Off ch=1 n=g5 v=80
103920 Off ch=1 n=b4 v=80
103920 On ch=1 n=f#5 v=63
104040 Off ch=1 n=f#5 v=80
104040 On ch=1 n=b4 v=78
104160 Off ch=1 n=b4 v=80
104160 On ch=1 n=g4 v=78
104280 On ch=1 n=e5 v=63
104400 Off ch=1 n=e5 v=80
104400 Off ch=1 n=g4 v=80
104400 On ch=1 n=b4 v=63
104520 Off ch=1 n=b4 v=80
104520 On ch=1 n=g4 v=78
104640 Off ch=1 n=g4 v=80
104640 On ch=1 n=a4 v=78
104760 On ch=1 n=f#5 v=63
104880 Off ch=1 n=f#5 v=80
104880 Off ch=1 n=a4 v=80
104880 On ch=1 n=e5 v=63
105000 Off ch=1 n=e5 v=80
105000 On ch=1 n=a4 v=78
105120 Off ch=1 n=a4 v=80
105120 On ch=1 n=f#4 v=78
105240 On ch=1 n=d5 v=63
105360 Off ch=1 n=d5 v=80
105360 Off ch=1 n=f#4 v=80
105360 On ch=1 n=a4 v=63
105480 Off ch=1 n=a4 v=80
105480 On ch=1 n=f#4 v=78
105600 Off ch=1 n=f#4 v=80
105600 On ch=1 n=g4 v=78
105720 On ch=1 n=e5 v=63
105840 Off ch=1 n=e5 v=80
105840 Off ch=1 n=g4 v=80
105840 On ch=1 n=d5 v=63
105960 Off ch=1 n=d5 v=80
105960 On ch=1 n=g4 v=78
106080 Off ch=1 n=g4 v=80
106080 On ch=1 n=g4 v=86
106200 On ch=1 n=f#5 v=63
106320 Off ch=1 n=f#5 v=80
106320 Off ch=1 n=g4 v=80
106320 On ch=1 n=d5 v=63
106440 Off ch=1 n=d5 v=80
106440 On ch=1 n=a4 v=86
106560 Off ch=1 n=a4 v=80
106560 On ch=1 n=b4 v=105
106680 On ch=1 n=g5 v=94
106800 Off ch=1 n=g5 v=80
106800 On ch=1 n=d5 v=94
106920 Off ch=1 n=b4 v=80
106920 Off ch=1 n=d5 v=80
106920 On ch=1 n=b4 v=94
107040 Off ch=1 n=b4 v=80
107040 On ch=1 n=a4 v=102
107160 On ch=1 n=f#5 v=102
107280 Off ch=1 n=f#5 v=80
107280 Off ch=1 n=a4 v=80
107280 On ch=1 n=d5 v=102
107400 Off ch=1 n=d5 v=80
107400 On ch=1 n=g4 v=102
107520 Off ch=1 n=g4 v=80
107520 On ch=1 n=g4 v=78
107640 On ch=1 n=e5 v=63
107760 Off ch=1 n=e5 v=80
107760 Off ch=1 n=g4 v=80
107760 On ch=1 n=c#5 v=63
107880 Off ch=1 n=c#5 v=80
107880 On ch=1 n=g4 v=78
108000 Off ch=1 n=g4 v=80
108000 On ch=1 n=a4 v=78
108120 On ch=1 n=f5 v=63
108240 Off ch=1 n=f5 v=80
108240 Off ch=1 n=a4 v=80
108240 On ch=1 n=c#5 v=63
108360 Off ch=1 n=c#5 v=80
108360 On ch=1 n=a4 v=78
108480 Off ch=1 n=a4 v=80
108480 On ch=1 n=f#4 v=78
108600 On ch=1 n=d5 v=63
108720 Off ch=1 n=d5 v=80
108720 Off ch=1 n=f#4 v=80
108720 On ch=1 n=b4 v=63
108840 Off ch=1 n=b4 v=80
108840 On ch=1 n=f#4 v=78
108960 Off ch=1 n=f#4 v=80
108960 On ch=1 n=g4 v=78
109080 On ch=1 n=e5 v=63
109200 Off ch=1 n=e5 v=80
109200 Off ch=1 n=g4 v=80
109200 On ch=1 n=b4 v=63
109320 Off ch=1 n=b4 v=80
109320 On ch=1 n=g4 v=78
109440 Off ch=1 n=g4 v=80
109440 On ch=1 n=e4 v=78
109560 On ch=1 n=c#5 v=78
109680 Off ch=1 n=c#5 v=80
109680 On ch=1 n=a4 v=78
109800 Off ch=1 n=a4 v=80
109800 On ch=1 n=a#4 v=78
109920 Off ch=1 n=e4 v=80
109920 Off ch=1 n=a#4 v=80
109920 On ch=1 n=a4 v=86
110040 On ch=1 n=f#5 v=86
110160 Off ch=1 n=f#5 v=80
110160 On ch=1 n=d5 v=86
110280 Off ch=1 n=d5 v=80
110280 On ch=1 n=d#5 v=86
110400 Off ch=1 n=a4 v=80
110400 Off ch=1 n=d#5 v=80
110400 On ch=1 n=d5 v=94
110520 On ch=1 n=b5 v=94
110640 Off ch=1 n=b5 v=80
110640 On ch=1 n=g5 v=94
110760 Off ch=1 n=g5 v=80
110760 On ch=1 n=g#5 v=94
110880 Off ch=1 n=d5 v=80
110880 Off ch=1 n=g#5 v=80
110880 On ch=1 n=g5 v=102
111000 On ch=1 n=e6 v=102
111120 Off ch=1 n=e6 v=80
111120 On ch=1 n=c6 v=102
111240 Off ch=1 n=c6 v=80
111240 On ch=1 n=c#6 v=102
111360 Off ch=1 n=g5 v=80
111360 Off ch=1 n=c#6 v=80
111360 On ch=1 n=f#5 v=78
111480 On ch=1 n=f#6 v=78
111600 On ch=1 n=d6 v=78
111608 Off ch=1 n=f#6 v=80
111608 Off ch=1 n=f#5 v=80
111720 On ch=1 n=f#5 v=78
111728 Off ch=1 n=d6 v=80
111840 On ch=1 n=b5 v=120
111848 Off ch=1 n=f#5 v=80
111960 On ch=1 n=b6 v=78
112080 Off ch=1 n=b5 v=80
112080 Off ch=1 n=b6 v=80
112080 On ch=1 n=g6 v=78
112200 Off ch=1 n=g6 v=80
112200 On ch=1 n=b5 v=102
112320 Off ch=1 n=b5 v=80
112320 On ch=1 n=a5 v=78
112440 On ch=1 n=a6 v=63
112560 On ch=1 n=f#6 v=63
112568 Off ch=1 n=a6 v=80
112568 Off ch=1 n=a5 v=80
112680 On ch=1 n=a5 v=102
112688 Off ch=1 n=f#6 v=80
112800 On ch=1 n=a5 v=78
112808 Off ch=1 n=a5 v=80
112920 On ch=1 n=a6 v=63
113040 Off ch=1 n=a5 v=80
113040 Off ch=1 n=a6 v=80
113040 On ch=1 n=e6 v=63
113160 Off ch=1 n=e6 v=80
113160 On ch=1 n=a5 v=102
113280 Off ch=1 n=a5 v=80
113280 On ch=1 n=c6 v=65
113400 On ch=1 n=a6 v=51
113520 Off ch=1 n=a6 v=80
113520 Off ch=1 n=c6 v=80
113520 On ch=1 n=f#6 v=51
113640 Off ch=1 n=f#6 v=80
113640 On ch=1 n=c6 v=65
113760 Off ch=1 n=c6 v=80
113760 On ch=1 n=c6 v=78
113880 On ch=1 n=b6 v=63
114000 Off ch=1 n=b6 v=80
114000 Off ch=1 n=c6 v=80
114000 On ch=1 n=f#6 v=63
114120 Off ch=1 n=f#6 v=80
114120 On ch=1 n=d6 v=78
114240 Off ch=1 n=d6 v=80
114240 On ch=1 n=e6 v=100
114360 On ch=1 n=c7 v=75
114480 Off ch=1 n=c7 v=80
114480 On ch=1 n=f#6 v=75
114600 Off ch=1 n=e6 v=80
114600 Off ch=1 n=f#6 v=80
114600 On ch=1 n=e6 v=90
114720 Off ch=1 n=e6 v=80
114720 On ch=1 n=d6 v=90
114840 On ch=1 n=b6 v=75
114960 Off ch=1 n=b6 v=80
114960 Off ch=1 n=d6 v=80
114960 On ch=1 n=f#6 v=75
115080 Off ch=1 n=f#6 v=80
115080 On ch=1 n=c6 v=90
115200 Off ch=1 n=c6 v=80
115200 On ch=1 n=b5 v=65
115320 On ch=1 n=g6 v=51
115440 Off ch=1 n=g6 v=80
115440 Off ch=1 n=b5 v=80
115440 On ch=1 n=f#6 v=51
115560 Off ch=1 n=f#6 v=80
115560 On ch=1 n=b5 v=65
115680 Off ch=1 n=b5 v=80
115680 On ch=1 n=g5 v=65
115800 On ch=1 n=e6 v=51
115920 Off ch=1 n=e6 v=80
115920 Off ch=1 n=g5 v=80
115920 On ch=1 n=b5 v=51
116040 Off ch=1 n=b5 v=80
116040 On ch=1 n=g5 v=65
116160 Off ch=1 n=g5 v=80
116160 On ch=1 n=a5 v=65
116280 On ch=1 n=f#6 v=51
116400 Off ch=1 n=f#6 v=80
116400 Off ch=1 n=a5 v=80
116400 On ch=1 n=e6 v=51
116520 Off ch=1 n=e6 v=80
116520 On ch=1 n=a5 v=65
116640 Off ch=1 n=a5 v=80
116640 On ch=1 n=f#5 v=65
116760 On ch=1 n=d6 v=51
116880 Off ch=1 n=d6 v=80
116880 Off ch=1 n=f#5 v=80
116880 On ch=1 n=a5 v=51
117000 Off ch=1 n=a5 v=80
117000 On ch=1 n=f#5 v=65
117120 Off ch=1 n=f#5 v=80
117120 On ch=1 n=g5 v=65
117240 On ch=1 n=e6 v=51
117360 Off ch=1 n=e6 v=80
117360 Off ch=1 n=g5 v=80
117360 On ch=1 n=d6 v=51
117480 Off ch=1 n=d6 v=80
117480 On ch=1 n=g5 v=65
117600 Off ch=1 n=g5 v=80
117600 On ch=1 n=g5 v=78
117720 On ch=1 n=f#6 v=63
117840 Off ch=1 n=f#6 v=80
117840 Off ch=1 n=g5 v=80
117840 On ch=1 n=d6 v=63
117960 Off ch=1 n=d6 v=80
117960 On ch=1 n=a5 v=78
118080 Off ch=1 n=a5 v=80
118080 On ch=1 n=b5 v=100
118200 On ch=1 n=g6 v=75
118320 Off ch=1 n=g6 v=80
118320 Off ch=1 n=b5 v=80
118320 On ch=1 n=d6 v=75
118440 Off ch=1 n=d6 v=80
118440 On ch=1 n=b5 v=90
118560 Off ch=1 n=b5 v=80
118560 On ch=1 n=a5 v=90
118680 On ch=1 n=f#6 v=75
118800 Off ch=1 n=f#6 v=80
118800 Off ch=1 n=a5 v=80
118800 On ch=1 n=d6 v=75
118920 Off ch=1 n=d6 v=80
118920 On ch=1 n=g5 v=90
119040 Off ch=1 n=g5 v=80
119040 On ch=1 n=g5 v=65
119160 On ch=1 n=e6 v=51
119280 Off ch=1 n=e6 v=80
119280 Off ch=1 n=g5 v=80
119280 On ch=1 n=c#6 v=51
119400 Off ch=1 n=c#6 v=80
119400 On ch=1 n=g5 v=65
119520 Off ch=1 n=g5 v=80
119520 On ch=1 n=a5 v=65
119640 On ch=1 n=f6 v=51
119760 Off ch=1 n=f6 v=80
119760 Off ch=1 n=a5 v=80
119760 On ch=1 n=c#6 v=51
119880 Off ch=1 n=c#6 v=80
119880 On ch=1 n=a5 v=65
120000 Off ch=1 n=a5 v=80
120000 On ch=1 n=f#5 v=65
120120 On ch=1 n=d6 v=51
120240 Off ch=1 n=d6 v=80
120240 Off ch=1 n=f#5 v=80
120240 On ch=1 n=b5 v=51
120360 Off ch=1 n=b5 v=80
120360 On ch=1 n=f#5 v=65
120480 Off ch=1 n=f#5 v=80
120480 On ch=1 n=g5 v=65
120600 On ch=1 n=e6 v=51
120720 Off ch=1 n=e6 v=80
120720 Off ch=1 n=g5 v=80
120720 On ch=1 n=b5 v=51
120840 Off ch=1 n=b5 v=80
120840 On ch=1 n=g5 v=65
120960 Off ch=1 n=g5 v=80
120960 On ch=1 n=e5 v=65
121080 On ch=1 n=c#6 v=65
121200 Off ch=1 n=c#6 v=80
121200 On ch=1 n=a5 v=65
121320 Off ch=1 n=a5 v=80
121320 On ch=1 n=a#5 v=65
121440 Off ch=1 n=e5 v=80
121440 Off ch=1 n=a#5 v=80
121440 On ch=1 n=a5 v=71
121560 On ch=1 n=f#6 v=71
121680 Off ch=1 n=f#6 v=80
121680 On ch=1 n=d6 v=71
121800 Off ch=1 n=d6 v=80
121800 On ch=1 n=d#6 v=71
121920 Off ch=1 n=a5 v=80
121920 Off ch=1 n=d#6 v=80
121920 On ch=1 n=d6 v=77
122040 On ch=1 n=b6 v=77
122160 Off ch=1 n=b6 v=80
122160 On ch=1 n=g6 v=77
122280 Off ch=1 n=g6 v=80
122280 On ch=1 n=g#6 v=77
122400 Off ch=1 n=d6 v=80
122400 Off ch=1 n=g#6 v=80
122400 On ch=1 n=g6 v=83
122520 On ch=1 n=e7 v=83
122640 Off ch=1 n=e7 v=80
122640 On ch=1 n=c7 v=83
122760 Off ch=1 n=c7 v=80
122760 On ch=1 n=c#7 v=83
122880 Off ch=1 n=g6 v=80
122880 Off ch=1 n=c#7 v=80
122880 On ch=1 n=f#6 v=90
123000 On ch=1 n=f#7 v=72
123120 On ch=1 n=d7 v=72
123128 Off ch=1 n=f#7 v=80
123128 Off ch=1 n=f#6 v=80
123240 On ch=1 n=f#6 v=90
123248 Off ch=1 n=d7 v=80
123360 On ch=1 n=b6 v=90
123368 Off ch=1 n=f#6 v=80
123480 On ch=1 n=b7 v=120
123600 Off ch=1 n=b6 v=80
123600 Off ch=1 n=b7 v=80
123600 On ch=1 n=g7 v=72
123720 Off ch=1 n=g7 v=80
123720 On ch=1 n=b6 v=90
123840 Off ch=1 n=b6 v=80
123840 On ch=1 n=a6 v=90
123960 On ch=1 n=a7 v=72
124080 On ch=1 n=f#7 v=72
124088 Off ch=1 n=a7 v=80
124088 Off ch=1 n=a6 v=80
124200 On ch=1 n=a6 v=90
124208 Off ch=1 n=f#7 v=80
124320 On ch=1 n=a6 v=90
124328 Off ch=1 n=a6 v=80
124440 On ch=1 n=a7 v=72
124560 Off ch=1 n=a6 v=80
124560 Off ch=1 n=a7 v=80
124560 On ch=1 n=e7 v=72
124680 Off ch=1 n=e7 v=80
124680 On ch=1 n=a6 v=90
124800 Off ch=1 n=a6 v=80
124800 On ch=1 n=f#6 v=114
124920 On ch=1 n=f#7 v=90
125040 Off ch=1 n=f#7 v=80
125040 Off ch=1 n=f#6 v=80
125040 On ch=1 n=d7 v=90
125160 Off ch=1 n=d7 v=80
125160 On ch=1 n=f#6 v=90
125280 Off ch=1 n=f#6 v=80
125280 On ch=1 n=g6 v=114
125400 On ch=1 n=g7 v=90
125520 Off ch=1 n=g7 v=80
125520 Off ch=1 n=g6 v=80
125520 On ch=1 n=d7 v=90
125640 Off ch=1 n=d7 v=80
125640 On ch=1 n=g6 v=90
125760 Off ch=1 n=g6 v=80
125760 On ch=1 n=f#6 v=114
125880 On ch=1 n=f#7 v=90
126000 Off ch=1 n=f#7 v=80
126000 Off ch=1 n=f#6 v=80
126000 On ch=1 n=d7 v=90
126120 Off ch=1 n=d7 v=80
126120 On ch=1 n=f#6 v=90
126240 Off ch=1 n=f#6 v=80
126240 On ch=1 n=f6 v=114
126360 On ch=1 n=f7 v=90
126480 Off ch=1 n=f7 v=80
126480 Off ch=1 n=f6 v=80
126480 On ch=1 n=d7 v=90
126600 Off ch=1 n=d7 v=80
126600 On ch=1 n=f6 v=90
126720 Off ch=1 n=f6 v=80
126720 On ch=1 n=f#6 v=114
126840 On ch=1 n=f#7 v=90
126960 Off ch=1 n=f#7 v=80
126960 Off ch=1 n=f#6 v=80
126960 On ch=1 n=d7 v=90
127080 Off ch=1 n=d7 v=80
127080 On ch=1 n=f#6 v=90
127200 Off ch=1 n=f#6 v=80
127200 On ch=1 n=d6 v=114
127320 On ch=1 n=d7 v=90
127440 Off ch=1 n=d7 v=80
127440 Off ch=1 n=d6 v=80
127440 On ch=1 n=a6 v=90
127560 Off ch=1 n=a6 v=80
127560 On ch=1 n=d6 v=90
127680 Off ch=1 n=d6 v=80
127680 On ch=1 n=a5 v=114
127800 On ch=1 n=a6 v=90
127920 Off ch=1 n=a6 v=80
127920 Off ch=1 n=a5 v=80
127920 On ch=1 n=f#6 v=90
128040 Off ch=1 n=f#6 v=80
128040 On ch=1 n=a5 v=90
128160 Off ch=1 n=a5 v=80
128160 On ch=1 n=g5 v=114
128280 On ch=1 n=g6 v=90
128400 Off ch=1 n=g6 v=80
128400 Off ch=1 n=g5 v=80
128400 On ch=1 n=d6 v=90
128520 Off ch=1 n=d6 v=80
128520 On ch=1 n=g5 v=90
128640 Off ch=1 n=g5 v=80
128640 On ch=1 n=f#5 v=115
128760 On ch=1 n=f#6 v=90
128880 Off ch=1 n=f#6 v=80
128880 Off ch=1 n=f#5 v=80
128880 On ch=1 n=d6 v=90
129000 Off ch=1 n=d6 v=80
129000 On ch=1 n=f#5 v=90
129120 Off ch=1 n=f#5 v=80
129120 On ch=1 n=g5 v=114
129240 On ch=1 n=g6 v=90
129360 Off ch=1 n=g6 v=80
129360 Off ch=1 n=g5 v=80
129360 On ch=1 n=d6 v=90
129480 Off ch=1 n=d6 v=80
129480 On ch=1 n=g5 v=90
129600 Off ch=1 n=g5 v=80
129600 On ch=1 n=f#5 v=114
129720 On ch=1 n=f#6 v=90
129840 Off ch=1 n=f#6 v=80
129840 Off ch=1 n=f#5 v=80
129840 On ch=1 n=d6 v=90
129960 Off ch=1 n=d6 v=80
129960 On ch=1 n=f#5 v=90
130080 Off ch=1 n=f#5 v=80
130080 On ch=1 n=f5 v=114
130200 On ch=1 n=f6 v=90
130320 Off ch=1 n=f6 v=80
130320 Off ch=1 n=f5 v=80
130320 On ch=1 n=d6 v=90
130440 Off ch=1 n=d6 v=80
130440 On ch=1 n=f5 v=90
130560 Off ch=1 n=f5 v=80
130560 On ch=1 n=f#5 v=114
130680 On ch=1 n=f#6 v=90
130800 Off ch=1 n=f#6 v=80
130800 Off ch=1 n=f#5 v=80
130800 On ch=1 n=d6 v=90
130920 Off ch=1 n=d6 v=80
130920 On ch=1 n=f#5 v=90
131040 Off ch=1 n=f#5 v=80
131040 On ch=1 n=d5 v=114
131160 On ch=1 n=d6 v=90
131280 Off ch=1 n=d6 v=80
131280 Off ch=1 n=d5 v=80
131280 On ch=1 n=a5 v=90
131400 Off ch=1 n=a5 v=80
131400 On ch=1 n=d5 v=90
131520 Off ch=1 n=d5 v=80
131520 On ch=1 n=a4 v=114
131640 On ch=1 n=a5 v=90
131760 Off ch=1 n=a5 v=80
131760 Off ch=1 n=a4 v=80
131760 On ch=1 n=f#5 v=90
131880 Off ch=1 n=f#5 v=80
131880 On ch=1 n=a4 v=90
132000 Off ch=1 n=a4 v=80
132000 On ch=1 n=g4 v=114
132120 On ch=1 n=g5 v=90
132240 Off ch=1 n=g5 v=80
132240 Off ch=1 n=g4 v=80
132240 On ch=1 n=d5 v=90
132360 Off ch=1 n=d5 v=80
132360 On ch=1 n=g4 v=90
132480 Off ch=1 n=g4 v=80
132480 On ch=1 n=f#4 v=102
132600 Off ch=1 n=f#4 v=80
132600 On ch=1 n=f#5 v=102
132720 Off ch=1 n=f#5 v=80
132720 On ch=1 n=d5 v=102
132840 Off ch=1 n=d5 v=80
132840 On ch=1 n=f#4 v=102
132960 Off ch=1 n=f#4 v=80
132960 On ch=1 n=f#4 v=102
133080 Off ch=1 n=f#4 v=80
133080 On ch=1 n=f#5 v=102
133200 Off ch=1 n=f#5 v=80
133200 On ch=1 n=d5 v=102
133320 Off ch=1 n=d5 v=80
133320 On ch=1 n=f#4 v=102
133440 Off ch=1 n=f#4 v=80
134880 On ch=1 n=c#5 v=65
135040 Off ch=1 n=c#5 v=80
135040 On ch=1 n=d5 v=65
135200 Off ch=1 n=d5 v=80
135200 On ch=1 n=d#5 v=65
135360 Off ch=1 n=d#5 v=80
135360 On ch=1 n=e5 v=65
135520 Off ch=1 n=e5 v=80
135520 On ch=1 n=g#5 v=65
135680 Off ch=1 n=g#5 v=80
135680 On ch=1 n=a5 v=65
135840 Off ch=1 n=a5 v=80
135840 On ch=1 n=c#6 v=71
136000 Off ch=1 n=c#6 v=80
136000 On ch=1 n=d6 v=77
136160 Off ch=1 n=d6 v=80
136160 On ch=1 n=e6 v=83
136320 Off ch=1 n=e6 v=80
136320 On ch=1 n=e6 v=90
136800 Off ch=1 n=e6 v=80
136800 On ch=1 n=d5 v=65
136800 On ch=1 n=a5 v=65
136960 Off ch=1 n=d5 v=80
136960 On ch=1 n=f5 v=65
137120 Off ch=1 n=f5 v=80
137120 On ch=1 n=f#5 v=65
137280 Off ch=1 n=a5 v=80
137280 Off ch=1 n=f#5 v=80
137280 On ch=1 n=g#5 v=65
137440 Off ch=1 n=g#5 v=80
137440 On ch=1 n=a5 v=65
137600 Off ch=1 n=a5 v=80
137600 On ch=1 n=c#6 v=65
137760 Off ch=1 n=c#6 v=80
137760 On ch=1 n=d6 v=71
137920 Off ch=1 n=d6 v=80
137920 On ch=1 n=e6 v=77
138080 Off ch=1 n=e6 v=80
138080 On ch=1 n=f#6 v=83
138240 Off ch=1 n=f#6 v=80
138240 On ch=1 n=f#6 v=90
138720 Off ch=1 n=f#6 v=80
138720 On ch=1 n=e6 v=90
138960 Off ch=1 n=e6 v=80
138960 On ch=1 n=d6 v=90
139200 Off ch=1 n=d6 v=80
139200 On ch=1 n=c#6 v=90
139440 Off ch=1 n=c#6 v=80
139440 On ch=1 n=b5 v=90
139620 Off ch=1 n=b5 v=80
139680 On ch=1 n=a5 v=90
139860 Off ch=1 n=a5 v=80
139920 On ch=1 n=g#5 v=90
140100 Off ch=1 n=g#5 v=80
140160 On ch=1 n=f#5 v=90
140640 Off ch=1 n=f#5 v=80
140640 On ch=1 n=e5 v=78
141600 Off ch=1 n=e5 v=80
141600 On ch=1 n=d#5 v=72
141840 Off ch=1 n=d#5 v=80
141840 On ch=1 n=d5 v=65
142080 Off ch=1 n=d5 v=80
142560 On ch=1 n=c#5 v=65
142720 Off ch=1 n=c#5 v=80
142720 On ch=1 n=d5 v=65
142880 Off ch=1 n=d5 v=80
142880 On ch=1 n=d#5 v=65
143040 Off ch=1 n=d#5 v=80
143040 On ch=1 n=e5 v=65
143200 Off ch=1 n=e5 v=80
143200 On ch=1 n=g#5 v=65
143360 Off ch=1 n=g#5 v=80
143360 On ch=1 n=a5 v=65
143520 Off ch=1 n=a5 v=80
143520 On ch=1 n=c#6 v=71
143680 Off ch=1 n=c#6 v=80
143680 On ch=1 n=d6 v=77
143840 Off ch=1 n=d6 v=80
143840 On ch=1 n=e6 v=83
144000 Off ch=1 n=e6 v=80
144000 On ch=1 n=e6 v=90
144480 Off ch=1 n=e6 v=80
144480 On ch=1 n=f#5 v=65
144480 On ch=1 n=a#4 v=65
144640 Off ch=1 n=a#4 v=80
144640 On ch=1 n=c#5 v=65
144800 Off ch=1 n=c#5 v=80
144800 On ch=1 n=e5 v=65
144960 Off ch=1 n=f#5 v=80
144960 Off ch=1 n=e5 v=80
144960 On ch=1 n=g4 v=65
144960 On ch=1 n=g5 v=65
145120 Off ch=1 n=g4 v=80
145120 On ch=1 n=a#4 v=65
145280 Off ch=1 n=a#4 v=80
145280 On ch=1 n=c#5 v=65
145440 Off ch=1 n=c#5 v=80
145440 On ch=1 n=e5 v=65
145600 Off ch=1 n=g5 v=80
145600 Off ch=1 n=e5 v=80
145600 On ch=1 n=f#5 v=65
145760 Off ch=1 n=f#5 v=80
145760 On ch=1 n=a#5 v=65
145920 Off ch=1 n=a#5 v=80
146400 On ch=1 n=b4 v=65
146560 Off ch=1 n=b4 v=80
146560 On ch=1 n=c#5 v=65
146720 Off ch=1 n=c#5 v=80
146720 On ch=1 n=d5 v=65
146880 Off ch=1 n=d5 v=80
146880 On ch=1 n=f#5 v=65
147040 Off ch=1 n=f#5 v=80
147040 On ch=1 n=g5 v=65
147200 Off ch=1 n=g5 v=80
147200 On ch=1 n=a#5 v=65
147360 Off ch=1 n=a#5 v=80
147360 On ch=1 n=b5 v=71
147520 Off ch=1 n=b5 v=80
147520 On ch=1 n=c#6 v=77
147680 Off ch=1 n=c#6 v=80
147680 On ch=1 n=d6 v=83
147840 Off ch=1 n=d6 v=80
147840 On ch=1 n=g6 v=90
148320 Off ch=1 n=g6 v=80
148320 On ch=1 n=b4 v=65
148480 Off ch=1 n=b4 v=80
148480 On ch=1 n=c#5 v=65
148640 Off ch=1 n=c#5 v=80
148640 On ch=1 n=d5 v=65
148800 Off ch=1 n=d5 v=80
148800 On ch=1 n=b5 v=65
148960 Off ch=1 n=b5 v=80
149120 On ch=1 n=e5 v=50
149280 Off ch=1 n=e5 v=80
149280 On ch=1 n=a5 v=65
149440 Off ch=1 n=a5 v=80
149440 On ch=1 n=e5 v=50
149600 Off ch=1 n=e5 v=80
149600 On ch=1 n=g5 v=65
149760 Off ch=1 n=g5 v=80
149760 On ch=1 n=f#5 v=65
150080 Off ch=1 n=f#5 v=80
150240 On ch=1 n=f#4 v=65
150400 Off ch=1 n=f#4 v=80
150400 On ch=1 n=g4 v=65
150560 Off ch=1 n=g4 v=80
150560 On ch=1 n=g#4 v=65
150720 Off ch=1 n=g#4 v=80
150720 On ch=1 n=a4 v=65
150880 Off ch=1 n=a4 v=80
150880 On ch=1 n=b4 v=69
151040 Off ch=1 n=b4 v=80
151040 On ch=1 n=c#5 v=73
151200 Off ch=1 n=c#5 v=80
151200 On ch=1 n=d5 v=77
151360 Off ch=1 n=d5 v=80
151360 On ch=1 n=e5 v=81
151520 Off ch=1 n=e5 v=80
151520 On ch=1 n=f#5 v=85
151680 Off ch=1 n=f#5 v=80
151680 On ch=1 n=g#5 v=90
152160 Off ch=1 n=g#5 v=80
152640 On ch=1 n=c#5 v=65
152800 Off ch=1 n=c#5 v=80
152800 On ch=1 n=d5 v=69
152960 Off ch=1 n=d5 v=80
152960 On ch=1 n=e5 v=73
153120 Off ch=1 n=e5 v=80
153120 On ch=1 n=f5 v=77
153280 Off ch=1 n=f5 v=80
153280 On ch=1 n=g5 v=81
153440 Off ch=1 n=g5 v=80
153440 On ch=1 n=g#5 v=85
153600 Off ch=1 n=g#5 v=80
153600 On ch=1 n=a5 v=100
154080 Off ch=1 n=a5 v=80
154080 On ch=1 n=a6 v=90
154240 Off ch=1 n=a6 v=80
154560 On ch=1 n=f#5 v=65
154720 Off ch=1 n=f#5 v=80
154720 On ch=1 n=a5 v=69
154880 Off ch=1 n=a5 v=80
154880 On ch=1 n=c#6 v=73
155040 Off ch=1 n=c#6 v=80
155040 On ch=1 n=f#6 v=77
155200 Off ch=1 n=f#6 v=80
155200 On ch=1 n=g#6 v=81
155360 Off ch=1 n=g#6 v=80
155360 On ch=1 n=a6 v=85
155520 Off ch=1 n=a6 v=80
155520 On ch=1 n=a5 v=100
156000 Off ch=1 n=a5 v=80
156000 On ch=1 n=a6 v=90
156160 Off ch=1 n=a6 v=80
156480 On ch=1 n=f#5 v=65
156640 Off ch=1 n=f#5 v=80
156640 On ch=1 n=a5 v=69
156800 Off ch=1 n=a5 v=80
156800 On ch=1 n=c#6 v=73
156960 Off ch=1 n=c#6 v=80
156960 On ch=1 n=f#6 v=77
157120 Off ch=1 n=f#6 v=80
157120 On ch=1 n=g#6 v=81
157280 Off ch=1 n=g#6 v=80
157280 On ch=1 n=a6 v=85
157440 Off ch=1 n=a6 v=80
157440 On ch=1 n=c6 v=100
157920 Off ch=1 n=c6 v=80
157920 On ch=1 n=c7 v=90
158080 Off ch=1 n=c7 v=80
158400 On ch=1 n=c6 v=65
158560 Off ch=1 n=c6 v=80
158560 On ch=1 n=d#6 v=69
158720 Off ch=1 n=d#6 v=80
158720 On ch=1 n=e6 v=73
158880 Off ch=1 n=e6 v=80
158880 On ch=1 n=f#6 v=77
159040 Off ch=1 n=f#6 v=80
159040 On ch=1 n=g6 v=81
159200 Off ch=1 n=g6 v=80
159200 On ch=1 n=c7 v=85
159360 Off ch=1 n=c7 v=80
159360 On ch=1 n=e6 v=98
159840 Off ch=1 n=e6 v=80
159840 On ch=1 n=e7 v=106
160000 Off ch=1 n=e7 v=80
160320 On ch=1 n=g#6 v=114
160480 Off ch=1 n=g#6 v=80
160480 On ch=1 n=e6 v=114
160640 Off ch=1 n=e6 v=80
160640 On ch=1 n=c#6 v=114
160800 Off ch=1 n=c#6 v=80
160800 On ch=1 n=b5 v=114
160960 Off ch=1 n=b5 v=80
160960 On ch=1 n=f#5 v=114
161120 Off ch=1 n=f#5 v=80
161120 On ch=1 n=g#5 v=114
161280 Off ch=1 n=g#5 v=80
161280 On ch=1 n=e5 v=114
161600 Off ch=1 n=e5 v=80
161600 On ch=1 n=f5 v=114
161760 Off ch=1 n=f5 v=80
161760 On ch=1 n=g#5 v=114
161920 Off ch=1 n=g#5 v=80
161920 On ch=1 n=f#5 v=114
162080 Off ch=1 n=f#5 v=80
162080 On ch=1 n=e5 v=114
162240 Off ch=1 n=e5 v=80
162240 On ch=1 n=d5 v=107
162400 Off ch=1 n=d5 v=80
162400 On ch=1 n=b4 v=100
162560 Off ch=1 n=b4 v=80
162560 On ch=1 n=g#4 v=93
162720 Off ch=1 n=g#4 v=80
162720 On ch=1 n=e4 v=86
162880 Off ch=1 n=e4 v=80
162880 On ch=1 n=d4 v=79
163040 Off ch=1 n=d4 v=80
163040 On ch=1 n=b3 v=72
163200 Off ch=1 n=b3 v=80
163680 On ch=1 n=c#5 v=65
163840 Off ch=1 n=c#5 v=80
163840 On ch=1 n=d5 v=65
164000 Off ch=1 n=d5 v=80
164000 On ch=1 n=d#5 v=65
164160 Off ch=1 n=d#5 v=80
164160 On ch=1 n=e5 v=65
164320 Off ch=1 n=e5 v=80
164320 On ch=1 n=g#5 v=65
164480 Off ch=1 n=g#5 v=80
164480 On ch=1 n=a5 v=65
164640 Off ch=1 n=a5 v=80
164640 On ch=1 n=c#6 v=71
164800 Off ch=1 n=c#6 v=80
164800 On ch=1 n=d6 v=77
164960 Off ch=1 n=d6 v=80
164960 On ch=1 n=e6 v=83
165120 Off ch=1 n=e6 v=80
165120 On ch=1 n=e6 v=90
165600 Off ch=1 n=e6 v=80
165600 On ch=1 n=d5 v=65
165600 On ch=1 n=a5 v=65
165760 Off ch=1 n=d5 v=80
165760 On ch=1 n=f5 v=65
165920 Off ch=1 n=f5 v=80
165920 On ch=1 n=f#5 v=65
166080 Off ch=1 n=a5 v=80
166080 Off ch=1 n=f#5 v=80
166080 On ch=1 n=g#5 v=65
166240 Off ch=1 n=g#5 v=80
166240 On ch=1 n=a5 v=65
166400 Off ch=1 n=a5 v=80
166400 On ch=1 n=c#6 v=65
166560 Off ch=1 n=c#6 v=80
166560 On ch=1 n=d6 v=71
166720 Off ch=1 n=d6 v=80
166720 On ch=1 n=e6 v=77
166880 Off ch=1 n=e6 v=80
166880 On ch=1 n=f#6 v=83
167040 Off ch=1 n=f#6 v=80
167040 On ch=1 n=f#6 v=90
167520 Off ch=1 n=f#6 v=80
167520 On ch=1 n=e6 v=90
167760 Off ch=1 n=e6 v=80
167760 On ch=1 n=d6 v=90
168000 Off ch=1 n=d6 v=80
168000 On ch=1 n=c#6 v=90
168240 Off ch=1 n=c#6 v=80
168240 On ch=1 n=b5 v=90
168420 Off ch=1 n=b5 v=80
168480 On ch=1 n=a5 v=90
168660 Off ch=1 n=a5 v=80
168720 On ch=1 n=g#5 v=90
168900 Off ch=1 n=g#5 v=80
168960 On ch=1 n=f#5 v=90
169440 Off ch=1 n=f#5 v=80
169440 On ch=1 n=e5 v=78
170400 Off ch=1 n=e5 v=80
170400 On ch=1 n=d#5 v=72
170640 Off ch=1 n=d#5 v=80
170640 On ch=1 n=d5 v=65
170880 Off ch=1 n=d5 v=80
171360 On ch=1 n=c#5 v=65
171520 Off ch=1 n=c#5 v=80
171520 On ch=1 n=d5 v=65
171680 Off ch=1 n=d5 v=80
171680 On ch=1 n=d#5 v=65
171840 Off ch=1 n=d#5 v=80
171840 On ch=1 n=e5 v=65
172000 Off ch=1 n=e5 v=80
172000 On ch=1 n=g#5 v=65
172160 Off ch=1 n=g#5 v=80
172160 On ch=1 n=a5 v=65
172320 Off ch=1 n=a5 v=80
172320 On ch=1 n=c#6 v=71
172480 Off ch=1 n=c#6 v=80
172480 On ch=1 n=d6 v=77
172640 Off ch=1 n=d6 v=80
172640 On ch=1 n=e6 v=83
172800 Off ch=1 n=e6 v=80
172800 On ch=1 n=e6 v=90
173280 Off ch=1 n=e6 v=80
173280 On ch=1 n=f#5 v=65
173280 On ch=1 n=a#4 v=65
173440 Off ch=1 n=a#4 v=80
173440 On ch=1 n=c#5 v=65
173600 Off ch=1 n=c#5 v=80
173600 On ch=1 n=e5 v=65
173760 Off ch=1 n=f#5 v=80
173760 Off ch=1 n=e5 v=80
173760 On ch=1 n=g4 v=65
173760 On ch=1 n=g5 v=65
173920 Off ch=1 n=g4 v=80
173920 On ch=1 n=a#4 v=65
174080 Off ch=1 n=a#4 v=80
174080 On ch=1 n=c#5 v=65
174240 Off ch=1 n=c#5 v=80
174240 On ch=1 n=e5 v=65
174400 Off ch=1 n=g5 v=80
174400 Off ch=1 n=e5 v=80
174400 On ch=1 n=f#5 v=65
174560 Off ch=1 n=f#5 v=80
174560 On ch=1 n=a#5 v=65
174720 Off ch=1 n=a#5 v=80
175200 On ch=1 n=b4 v=65
175360 Off ch=1 n=b4 v=80
175360 On ch=1 n=c#5 v=65
175520 Off ch=1 n=c#5 v=80
175520 On ch=1 n=d5 v=65
175680 Off ch=1 n=d5 v=80
175680 On ch=1 n=f#5 v=65
175840 Off ch=1 n=f#5 v=80
175840 On ch=1 n=g5 v=65
176000 Off ch=1 n=g5 v=80
176000 On ch=1 n=a#5 v=65
176160 Off ch=1 n=a#5 v=80
176160 On ch=1 n=b5 v=71
176320 Off ch=1 n=b5 v=80
176320 On ch=1 n=c#6 v=77
176480 Off ch=1 n=c#6 v=80
176480 On ch=1 n=d6 v=83
176640 Off ch=1 n=d6 v=80
176640 On ch=1 n=g6 v=90
177120 Off ch=1 n=g6 v=80
177120 On ch=1 n=b4 v=65
177280 Off ch=1 n=b4 v=80
177280 On ch=1 n=c#5 v=65
177440 Off ch=1 n=c#5 v=80
177440 On ch=1 n=d5 v=65
177600 Off ch=1 n=d5 v=80
177600 On ch=1 n=b5 v=65
177760 Off ch=1 n=b5 v=80
177920 On ch=1 n=e5 v=50
178080 Off ch=1 n=e5 v=80
178080 On ch=1 n=a5 v=65
178240 Off ch=1 n=a5 v=80
178240 On ch=1 n=e5 v=50
178400 Off ch=1 n=e5 v=80
178400 On ch=1 n=g5 v=65
178560 Off ch=1 n=g5 v=80
178560 On ch=1 n=f#5 v=65
178880 Off ch=1 n=f#5 v=80
179040 On ch=1 n=f#4 v=65
179200 Off ch=1 n=f#4 v=80
179200 On ch=1 n=g4 v=65
179360 Off ch=1 n=g4 v=80
179360 On ch=1 n=g#4 v=65
179520 Off ch=1 n=g#4 v=80
179520 On ch=1 n=a4 v=65
179680 Off ch=1 n=a4 v=80
179680 On ch=1 n=b4 v=69
179840 Off ch=1 n=b4 v=80
179840 On ch=1 n=c#5 v=73
180000 Off ch=1 n=c#5 v=80
180000 On ch=1 n=d5 v=77
180160 Off ch=1 n=d5 v=80
180160 On ch=1 n=e5 v=81
180320 Off ch=1 n=e5 v=80
180320 On ch=1 n=f#5 v=85
180480 Off ch=1 n=f#5 v=80
180480 On ch=1 n=g#5 v=90
180960 Off ch=1 n=g#5 v=80
181440 On ch=1 n=c#5 v=65
181600 Off ch=1 n=c#5 v=80
181600 On ch=1 n=d5 v=69
181760 Off ch=1 n=d5 v=80
181760 On ch=1 n=e5 v=73
181920 Off ch=1 n=e5 v=80
181920 On ch=1 n=f5 v=77
182080 Off ch=1 n=f5 v=80
182080 On ch=1 n=g5 v=81
182240 Off ch=1 n=g5 v=80
182240 On ch=1 n=g#5 v=85
182400 Off ch=1 n=g#5 v=80
182400 On ch=1 n=a5 v=100
182880 Off ch=1 n=a5 v=80
182880 On ch=1 n=a6 v=90
183040 Off ch=1 n=a6 v=80
183360 On ch=1 n=f#5 v=65
183520 Off ch=1 n=f#5 v=80
183520 On ch=1 n=a5 v=69
183680 Off ch=1 n=a5 v=80
183680 On ch=1 n=c#6 v=73
183840 Off ch=1 n=c#6 v=80
183840 On ch=1 n=f#6 v=77
184000 Off ch=1 n=f#6 v=80
184000 On ch=1 n=g#6 v=81
184160 Off ch=1 n=g#6 v=80
184160 On ch=1 n=a6 v=85
184320 Off ch=1 n=a6 v=80
184320 On ch=1 n=a5 v=100
184800 Off ch=1 n=a5 v=80
184800 On ch=1 n=a6 v=90
184960 Off ch=1 n=a6 v=80
185280 On ch=1 n=f#5 v=65
185440 Off ch=1 n=f#5 v=80
185440 On ch=1 n=a5 v=69
185600 Off ch=1 n=a5 v=80
185600 On ch=1 n=c#6 v=73
185760 Off ch=1 n=c#6 v=80
185760 On ch=1 n=f#6 v=77
185920 Off ch=1 n=f#6 v=80
185920 On ch=1 n=g#6 v=81
186080 Off ch=1 n=g#6 v=80
186080 On ch=1 n=a6 v=85
186240 Off ch=1 n=a6 v=80
186240 On ch=1 n=c6 v=100
186720 Off ch=1 n=c6 v=80
186720 On ch=1 n=c7 v=90
186880 Off ch=1 n=c7 v=80
187200 On ch=1 n=c6 v=65
187360 Off ch=1 n=c6 v=80
187360 On ch=1 n=d#6 v=69
187520 Off ch=1 n=d#6 v=80
187520 On ch=1 n=e6 v=73
187680 Off ch=1 n=e6 v=80
187680 On ch=1 n=f#6 v=77
187840 Off ch=1 n=f#6 v=80
187840 On ch=1 n=g6 v=81
188000 Off ch=1 n=g6 v=80
188000 On ch=1 n=c7 v=85
188160 Off ch=1 n=c7 v=80
188160 On ch=1 n=e6 v=98
188640 Off ch=1 n=e6 v=80
188640 On ch=1 n=e7 v=106
188800 Off ch=1 n=e7 v=80
189120 On ch=1 n=g#6 v=114
189280 Off ch=1 n=g#6 v=80
189280 On ch=1 n=e6 v=114
189440 Off ch=1 n=e6 v=80
189440 On ch=1 n=c#6 v=114
189600 Off ch=1 n=c#6 v=80
189600 On ch=1 n=b5 v=114
189760 Off ch=1 n=b5 v=80
189760 On ch=1 n=f#5 v=114
189920 Off ch=1 n=f#5 v=80
189920 On ch=1 n=g#5 v=114
190080 Off ch=1 n=g#5 v=80
190080 On ch=1 n=e5 v=114
190400 Off ch=1 n=e5 v=80
190400 On ch=1 n=f5 v=114
190560 Off ch=1 n=f5 v=80
190560 On ch=1 n=g#5 v=114
190720 Off ch=1 n=g#5 v=80
190720 On ch=1 n=f#5 v=114
190880 Off ch=1 n=f#5 v=80
190880 On ch=1 n=e5 v=114
191040 Off ch=1 n=e5 v=80
191040 On ch=1 n=d5 v=107
191200 Off ch=1 n=d5 v=80
191200 On ch=1 n=b4 v=100
191360 Off ch=1 n=b4 v=80
191360 On ch=1 n=g#4 v=93
191520 Off ch=1 n=g#4 v=80
191520 On ch=1 n=e4 v=86
191680 Off ch=1 n=e4 v=80
191680 On ch=1 n=d4 v=79
191840 Off ch=1 n=d4 v=80
191840 On ch=1 n=b3 v=72
192000 Off ch=1 n=b3 v=80
192000 On ch=1 n=e5 v=65
192480 Off ch=1 n=e5 v=80
192480 On ch=1 n=d#5 v=65
192640 On ch=1 n=g5 v=47
192800 Off ch=1 n=g5 v=80
192800 On ch=1 n=c#6 v=47
192960 Off ch=1 n=d#5 v=80
192960 Off ch=1 n=c#6 v=80
192960 On ch=1 n=d6 v=65
193120 On ch=1 n=g5 v=47
193280 Off ch=1 n=g5 v=80
193280 Off ch=1 n=d6 v=80
193280 On ch=1 n=d6 v=47
193440 Off ch=1 n=d6 v=80
193440 On ch=1 n=g6 v=65
193600 On ch=1 n=d6 v=47
193760 Off ch=1 n=d6 v=80
193760 On ch=1 n=a#5 v=47
193920 Off ch=1 n=g6 v=80
193920 Off ch=1 n=a#5 v=80
193920 On ch=1 n=c6 v=65
194080 On ch=1 n=g5 v=47
194240 Off ch=1 n=g5 v=80
194240 On ch=1 n=e5 v=47
194400 Off ch=1 n=c6 v=80
194400 Off ch=1 n=e5 v=80
194400 On ch=1 n=d5 v=65
194560 On ch=1 n=c5 v=47
194640 Off ch=1 n=d5 v=80
194640 On ch=1 n=e5 v=65
194720 Off ch=1 n=c5 v=80
194720 On ch=1 n=g4 v=47
194880 Off ch=1 n=e5 v=80
194880 Off ch=1 n=g4 v=80
194880 On ch=1 n=f5 v=65
195040 On ch=1 n=a4 v=47
195200 Off ch=1 n=a4 v=80
195200 On ch=1 n=c5 v=47
195360 Off ch=1 n=f5 v=80
195360 Off ch=1 n=c5 v=80
195360 On ch=1 n=e5 v=65
195520 On ch=1 n=c5 v=47
195680 Off ch=1 n=c5 v=80
195680 On ch=1 n=g4 v=47
195840 Off ch=1 n=e5 v=80
195840 Off ch=1 n=g4 v=80
195840 On ch=1 n=d5 v=65
196000 On ch=1 n=f4 v=65
196160 Off ch=1 n=f4 v=80
196160 On ch=1 n=a#4 v=65
196320 Off ch=1 n=d5 v=80
196320 Off ch=1 n=a#4 v=80
196320 On ch=1 n=c5 v=65
196480 On ch=1 n=f5 v=65
196640 Off ch=1 n=f5 v=80
196640 On ch=1 n=a5 v=65
196800 Off ch=1 n=c5 v=80
196800 Off ch=1 n=a5 v=80
196800 On ch=1 n=a#5 v=65
196960 On ch=1 n=e5 v=65
197120 Off ch=1 n=e5 v=80
197120 Off ch=1 n=a#5 v=80
197120 On ch=1 n=a#5 v=65
197280 Off ch=1 n=a#5 v=80
197280 On ch=1 n=e6 v=65
197440 On ch=1 n=a#5 v=65
197600 Off ch=1 n=a#5 v=80
197600 On ch=1 n=g5 v=65
197760 Off ch=1 n=e6 v=80
197760 Off ch=1 n=g5 v=80
197760 On ch=1 n=a5 v=65
197920 On ch=1 n=e5 v=65
198080 Off ch=1 n=e5 v=80
198080 On ch=1 n=c#5 v=65
198240 Off ch=1 n=a5 v=80
198240 Off ch=1 n=c#5 v=80
198240 On ch=1 n=b4 v=65
198400 On ch=1 n=a4 v=65
198480 Off ch=1 n=b4 v=80
198480 On ch=1 n=c#5 v=65
198560 Off ch=1 n=a4 v=80
198560 On ch=1 n=e4 v=65
198720 Off ch=1 n=c#5 v=80
198720 Off ch=1 n=e4 v=80
198720 On ch=1 n=d5 v=65
198880 On ch=1 n=f4 v=65
199040 Off ch=1 n=f4 v=80
199040 On ch=1 n=a4 v=65
199200 Off ch=1 n=d5 v=80
199200 Off ch=1 n=a4 v=80
199200 On ch=1 n=c5 v=65
199360 On ch=1 n=a4 v=65
199520 Off ch=1 n=a4 v=80
199520 On ch=1 n=e4 v=65
199680 Off ch=1 n=c5 v=80
199680 Off ch=1 n=e4 v=80
199680 On ch=1 n=a#4 v=65
199840 On ch=1 n=d4 v=65
200000 Off ch=1 n=d4 v=80
200000 On ch=1 n=f4 v=65
200160 Off ch=1 n=a#4 v=80
200160 Off ch=1 n=f4 v=80
200160 On ch=1 n=a4 v=65
200320 On ch=1 n=d5 v=65
200480 Off ch=1 n=d5 v=80
200480 On ch=1 n=f5 v=65
200640 Off ch=1 n=a4 v=80
200640 Off ch=1 n=f5 v=80
200640 On ch=1 n=e5 v=65
200800 On ch=1 n=g#4 v=65
200960 Off ch=1 n=g#4 v=80
200960 On ch=1 n=c5 v=65
201120 Off ch=1 n=e5 v=80
201120 Off ch=1 n=c5 v=80
201120 On ch=1 n=d5 v=65
201280 On ch=1 n=b4 v=65
201440 Off ch=1 n=b4 v=80
201440 On ch=1 n=g#4 v=65
201600 Off ch=1 n=d5 v=80
201600 Off ch=1 n=g#4 v=80
201600 On ch=1 n=a#4 v=65
201760 On ch=1 n=d4 v=65
201920 Off ch=1 n=d4 v=80
201920 On ch=1 n=f4 v=65
202080 Off ch=1 n=a#4 v=80
202080 Off ch=1 n=f4 v=80
202080 On ch=1 n=a4 v=65
202240 On ch=1 n=d5 v=65
202400 Off ch=1 n=d5 v=80
202400 On ch=1 n=f5 v=65
202560 Off ch=1 n=a4 v=80
202560 Off ch=1 n=f5 v=80
202560 On ch=1 n=e5 v=65
202720 On ch=1 n=g#4 v=65
202880 Off ch=1 n=g#4 v=80
202880 On ch=1 n=c5 v=65
203040 Off ch=1 n=e5 v=80
203040 Off ch=1 n=c5 v=80
203040 On ch=1 n=d5 v=65
203200 On ch=1 n=b4 v=65
203360 Off ch=1 n=b4 v=80
203360 On ch=1 n=g#4 v=65
203520 Off ch=1 n=d5 v=80
203520 Off ch=1 n=g#4 v=80
203520 On ch=1 n=e5 v=65
203680 On ch=1 n=g4 v=65
203840 Off ch=1 n=g4 v=80
203840 On ch=1 n=a#4 v=65
204000 Off ch=1 n=e5 v=80
204000 Off ch=1 n=a#4 v=80
204000 On ch=1 n=d5 v=65
204160 On ch=1 n=g5 v=65
204320 Off ch=1 n=g5 v=80
204320 On ch=1 n=a#5 v=65
204480 Off ch=1 n=d5 v=80
204480 Off ch=1 n=a#5 v=80
204480 On ch=1 n=a5 v=65
204640 On ch=1 n=c#5 v=65
204800 Off ch=1 n=c#5 v=80
204800 On ch=1 n=f5 v=65
204960 Off ch=1 n=a5 v=80
204960 Off ch=1 n=f5 v=80
204960 On ch=1 n=g5 v=65
205120 On ch=1 n=e5 v=65
205280 Off ch=1 n=e5 v=80
205280 On ch=1 n=c#5 v=65
205440 Off ch=1 n=g5 v=80
205440 Off ch=1 n=c#5 v=80
205440 On ch=1 n=d#5 v=75
205600 On ch=1 n=g4 v=65
205760 Off ch=1 n=g4 v=80
205760 On ch=1 n=a#4 v=65
205920 Off ch=1 n=d#5 v=80
205920 Off ch=1 n=a#4 v=80
205920 On ch=1 n=d5 v=65
206080 On ch=1 n=g5 v=65
206240 Off ch=1 n=g5 v=80
206240 On ch=1 n=a#5 v=65
206400 Off ch=1 n=d5 v=80
206400 Off ch=1 n=a#5 v=80
206400 On ch=1 n=a5 v=65
206560 On ch=1 n=c#5 v=65
206720 Off ch=1 n=c#5 v=80
206720 On ch=1 n=f5 v=65
206880 Off ch=1 n=a5 v=80
206880 Off ch=1 n=f5 v=80
206880 On ch=1 n=g5 v=65
207040 On ch=1 n=e5 v=65
207200 Off ch=1 n=e5 v=80
207200 On ch=1 n=c#5 v=65
207360 Off ch=1 n=c#5 v=80
207840 Off ch=1 n=g5 v=80
207840 On ch=1 n=f#5 v=65
208000 Off ch=1 n=f#5 v=80
208000 On ch=1 n=g5 v=65
208160 Off ch=1 n=g5 v=80
208160 On ch=1 n=g#5 v=65
208320 Off ch=1 n=g#5 v=80
208320 On ch=1 n=a5 v=65
208480 Off ch=1 n=a5 v=80
208480 On ch=1 n=c#6 v=65
208640 Off ch=1 n=c#6 v=80
208640 On ch=1 n=d6 v=65
208800 Off ch=1 n=d6 v=80
208800 On ch=1 n=f#6 v=71
208960 Off ch=1 n=f#6 v=80
208960 On ch=1 n=g6 v=77
209120 Off ch=1 n=g6 v=80
209120 On ch=1 n=a6 v=83
209280 Off ch=1 n=a6 v=80
209280 On ch=1 n=a6 v=90
209760 Off ch=1 n=a6 v=80
209760 On ch=1 n=d6 v=65
209760 On ch=1 n=g5 v=65
209920 Off ch=1 n=g5 v=80
209920 On ch=1 n=a#5 v=65
210080 Off ch=1 n=a#5 v=80
210080 On ch=1 n=b5 v=65
210240 Off ch=1 n=d6 v=80
210240 Off ch=1 n=b5 v=80
210240 On ch=1 n=c#6 v=65
210400 Off ch=1 n=c#6 v=80
210400 On ch=1 n=d6 v=65
210560 Off ch=1 n=d6 v=80
210560 On ch=1 n=f#6 v=65
210720 Off ch=1 n=f#6 v=80
210720 On ch=1 n=g6 v=71
210880 Off ch=1 n=g6 v=80
210880 On ch=1 n=a6 v=77
211040 Off ch=1 n=a6 v=80
211040 On ch=1 n=b6 v=83
211200 Off ch=1 n=b6 v=80
211200 On ch=1 n=b6 v=90
211680 Off ch=1 n=b6 v=80
211680 On ch=1 n=a6 v=90
211920 Off ch=1 n=a6 v=80
211920 On ch=1 n=g6 v=90
212160 Off ch=1 n=g6 v=80
212160 On ch=1 n=f#6 v=78
212400 Off ch=1 n=f#6 v=80
212400 On ch=1 n=e6 v=78
212580 Off ch=1 n=e6 v=80
212640 On ch=1 n=d6 v=78
212820 Off ch=1 n=d6 v=80
212880 On ch=1 n=c#6 v=78
213060 Off ch=1 n=c#6 v=80
213120 On ch=1 n=b5 v=78
213600 Off ch=1 n=b5 v=80
213600 On ch=1 n=a5 v=78
214560 Off ch=1 n=a5 v=80
214560 On ch=1 n=g#5 v=72
214800 Off ch=1 n=g#5 v=80
214800 On ch=1 n=g5 v=65
215040 Off ch=1 n=g5 v=80
215520 On ch=1 n=f#5 v=65
215680 Off ch=1 n=f#5 v=80
215680 On ch=1 n=g5 v=65
215840 Off ch=1 n=g5 v=80
215840 On ch=1 n=g#5 v=65
216000 Off ch=1 n=g#5 v=80
216000 On ch=1 n=a5 v=65
216160 Off ch=1 n=a5 v=80
216160 On ch=1 n=c#6 v=65
216320 Off ch=1 n=c#6 v=80
216320 On ch=1 n=d6 v=65
216480 Off ch=1 n=d6 v=80
216480 On ch=1 n=f#6 v=71
216640 Off ch=1 n=f#6 v=80
216640 On ch=1 n=g6 v=77
216800 Off ch=1 n=g6 v=80
216800 On ch=1 n=a6 v=83
216960 Off ch=1 n=a6 v=80
216960 On ch=1 n=a6 v=90
217440 Off ch=1 n=a6 v=80
217440 On ch=1 n=b5 v=65
217440 On ch=1 n=d#5 v=65
217600 Off ch=1 n=d#5 v=80
217600 On ch=1 n=f#5 v=65
217760 Off ch=1 n=f#5 v=80
217760 On ch=1 n=a5 v=65
217920 Off ch=1 n=b5 v=80
217920 Off ch=1 n=a5 v=80
217920 On ch=1 n=c5 v=65
217920 On ch=1 n=c6 v=65
218080 Off ch=1 n=c5 v=80
218080 On ch=1 n=d#5 v=65
218240 Off ch=1 n=d#5 v=80
218240 On ch=1 n=f#5 v=65
218400 Off ch=1 n=f#5 v=80
218400 On ch=1 n=a5 v=65
218560 Off ch=1 n=c6 v=80
218560 Off ch=1 n=a5 v=80
218560 On ch=1 n=b5 v=65
218720 Off ch=1 n=b5 v=80
218720 On ch=1 n=d#6 v=65
218880 Off ch=1 n=d#6 v=80
219360 On ch=1 n=e5 v=65
219520 Off ch=1 n=e5 v=80
219520 On ch=1 n=f#5 v=65
219680 Off ch=1 n=f#5 v=80
219680 On ch=1 n=g5 v=65
219840 Off ch=1 n=g5 v=80
219840 On ch=1 n=b5 v=65
220000 Off ch=1 n=b5 v=80
220000 On ch=1 n=c6 v=65
220160 Off ch=1 n=c6 v=80
220160 On ch=1 n=d#6 v=65
220320 Off ch=1 n=d#6 v=80
220320 On ch=1 n=e6 v=71
220480 Off ch=1 n=e6 v=80
220480 On ch=1 n=f#6 v=77
220640 Off ch=1 n=f#6 v=80
220640 On ch=1 n=g6 v=83
220800 Off ch=1 n=g6 v=80
220800 On ch=1 n=c7 v=90
221280 Off ch=1 n=c7 v=80
221280 On ch=1 n=e5 v=65
221440 On ch=1 n=f#5 v=65
221600 Off ch=1 n=f#5 v=80
221600 On ch=1 n=g5 v=65
221760 Off ch=1 n=e5 v=80
221760 Off ch=1 n=g5 v=80
221760 On ch=1 n=f#6 v=65
221920 Off ch=1 n=f#6 v=80
222000 On ch=1 n=e6 v=65
222080 On ch=1 n=a5 v=50
222160 Off ch=1 n=e6 v=80
222240 Off ch=1 n=a5 v=80
222240 On ch=1 n=d6 v=65
222400 Off ch=1 n=d6 v=80
222400 On ch=1 n=a5 v=50
222560 Off ch=1 n=a5 v=80
222560 On ch=1 n=c6 v=65
222720 Off ch=1 n=c6 v=80
222720 On ch=1 n=b5 v=65
223040 Off ch=1 n=b5 v=80
223200 On ch=1 n=b4 v=65
223360 Off ch=1 n=b4 v=80
223360 On ch=1 n=c5 v=65
223520 Off ch=1 n=c5 v=80
223520 On ch=1 n=c#5 v=65
223680 Off ch=1 n=c#5 v=80
223680 On ch=1 n=d5 v=65
223840 Off ch=1 n=d5 v=80
223840 On ch=1 n=e5 v=69
224000 Off ch=1 n=e5 v=80
224000 On ch=1 n=f#5 v=73
224160 Off ch=1 n=f#5 v=80
224160 On ch=1 n=g5 v=77
224320 Off ch=1 n=g5 v=80
224320 On ch=1 n=a5 v=81
224480 Off ch=1 n=a5 v=80
224480 On ch=1 n=b5 v=85
224640 Off ch=1 n=b5 v=80
224640 On ch=1 n=c#6 v=90
225120 Off ch=1 n=c#6 v=80
225600 On ch=1 n=f#5 v=65
225760 Off ch=1 n=f#5 v=80
225760 On ch=1 n=g5 v=69
225920 Off ch=1 n=g5 v=80
225920 On ch=1 n=a5 v=73
226080 Off ch=1 n=a5 v=80
226080 On ch=1 n=a#5 v=77
226240 Off ch=1 n=a#5 v=80
226240 On ch=1 n=c6 v=81
226400 Off ch=1 n=c6 v=80
226400 On ch=1 n=c#6 v=85
226560 Off ch=1 n=c#6 v=80
226560 On ch=1 n=d6 v=100
227040 Off ch=1 n=d6 v=80
227040 On ch=1 n=d7 v=90
227200 Off ch=1 n=d7 v=80
227520 On ch=1 n=b5 v=65
227680 Off ch=1 n=b5 v=80
227680 On ch=1 n=d6 v=69
227840 Off ch=1 n=d6 v=80
227840 On ch=1 n=f#6 v=73
228000 Off ch=1 n=f#6 v=80
228000 On ch=1 n=b6 v=77
228160 Off ch=1 n=b6 v=80
228160 On ch=1 n=c#7 v=81
228320 Off ch=1 n=c#7 v=80
228320 On ch=1 n=d7 v=85
228480 Off ch=1 n=d7 v=80
228480 On ch=1 n=d6 v=100
228960 Off ch=1 n=d6 v=80
228960 On ch=1 n=d7 v=90
229120 Off ch=1 n=d7 v=80
229440 On ch=1 n=b5 v=65
229600 Off ch=1 n=b5 v=80
229600 On ch=1 n=d6 v=69
229760 Off ch=1 n=d6 v=80
229760 On ch=1 n=f#6 v=73
229920 Off ch=1 n=f#6 v=80
229920 On ch=1 n=b6 v=77
230080 Off ch=1 n=b6 v=80
230080 On ch=1 n=c#7 v=81
230240 Off ch=1 n=c#7 v=80
230240 On ch=1 n=d7 v=85
230400 Off ch=1 n=d7 v=80
230400 On ch=1 n=f6 v=100
230880 Off ch=1 n=f6 v=80
230880 On ch=1 n=f7 v=90
231040 Off ch=1 n=f7 v=80
231360 On ch=1 n=f6 v=65
231520 Off ch=1 n=f6 v=80
231520 On ch=1 n=g#6 v=69
231680 Off ch=1 n=g#6 v=80
231680 On ch=1 n=a6 v=73
231840 Off ch=1 n=a6 v=80
231840 On ch=1 n=b6 v=77
232000 Off ch=1 n=b6 v=80
232000 On ch=1 n=c7 v=81
232160 Off ch=1 n=c7 v=80
232160 On ch=1 n=f7 v=85
232320 Off ch=1 n=f7 v=80
232320 On ch=1 n=a6 v=98
232800 Off ch=1 n=a6 v=80
232800 On ch=1 n=a7 v=106
232960 Off ch=1 n=a7 v=80
233280 On ch=1 n=c#7 v=114
233440 Off ch=1 n=c#7 v=80
233440 On ch=1 n=a6 v=114
233600 Off ch=1 n=a6 v=80
233600 On ch=1 n=f#6 v=114
233760 Off ch=1 n=f#6 v=80
233760 On ch=1 n=e6 v=114
233920 Off ch=1 n=e6 v=80
233920 On ch=1 n=b5 v=114
234080 Off ch=1 n=b5 v=80
234080 On ch=1 n=c#6 v=114
234240 Off ch=1 n=c#6 v=80
234240 On ch=1 n=a5 v=114
234560 Off ch=1 n=a5 v=80
234560 On ch=1 n=a#5 v=114
234720 Off ch=1 n=a#5 v=80
234720 On ch=1 n=c#6 v=114
234880 Off ch=1 n=c#6 v=80
234880 On ch=1 n=b5 v=114
235040 Off ch=1 n=b5 v=80
235040 On ch=1 n=a5 v=114
235200 Off ch=1 n=a5 v=80
235200 On ch=1 n=g5 v=105
235360 Off ch=1 n=g5 v=80
235360 On ch=1 n=e5 v=96
235520 Off ch=1 n=e5 v=80
235520 On ch=1 n=c#5 v=87
235680 Off ch=1 n=c#5 v=80
235680 On ch=1 n=a4 v=78
235840 Off ch=1 n=a4 v=80
235840 On ch=1 n=g4 v=69
236000 Off ch=1 n=g4 v=80
236000 On ch=1 n=e4 v=60
236160 Off ch=1 n=e4 v=80
236160 On ch=1 n=a4 v=53
236280 On ch=1 n=a5 v=53
236400 Off ch=1 n=a5 v=80
236400 Off ch=1 n=a4 v=80
236400 On ch=1 n=f#5 v=53
236520 Off ch=1 n=f#5 v=80
236520 On ch=1 n=a4 v=53
236580 Off ch=1 n=a4 v=80
236640 On ch=1 n=a4 v=53
236760 On ch=1 n=a5 v=53
236880 Off ch=1 n=a5 v=80
236880 Off ch=1 n=a4 v=80
236880 On ch=1 n=f#5 v=53
237000 Off ch=1 n=f#5 v=80
237000 On ch=1 n=b4 v=53
237060 Off ch=1 n=b4 v=80
237120 On ch=1 n=c5 v=53
237240 Off ch=1 n=c5 v=80
237240 On ch=1 n=a5 v=53
237360 Off ch=1 n=a5 v=80
237360 On ch=1 n=f#5 v=53
237480 Off ch=1 n=f#5 v=80
237480 On ch=1 n=c5 v=53
237600 Off ch=1 n=c5 v=80
237600 On ch=1 n=c5 v=53
237720 Off ch=1 n=c5 v=80
237720 On ch=1 n=a5 v=53
237840 Off ch=1 n=a5 v=80
237840 On ch=1 n=d#5 v=53
237960 Off ch=1 n=d#5 v=80
237960 On ch=1 n=c5 v=53
238080 Off ch=1 n=c5 v=80
238080 On ch=1 n=b4 v=53
238200 Off ch=1 n=b4 v=80
238200 On ch=1 n=g#5 v=53
238320 Off ch=1 n=g#5 v=80
238320 On ch=1 n=e5 v=53
238440 Off ch=1 n=e5 v=80
238440 On ch=1 n=b4 v=53
238560 Off ch=1 n=b4 v=80
238560 On ch=1 n=a#4 v=53
238680 Off ch=1 n=a#4 v=80
238680 On ch=1 n=g5 v=53
238800 Off ch=1 n=g5 v=80
238800 On ch=1 n=d5 v=53
238920 Off ch=1 n=d5 v=80
238920 On ch=1 n=a#4 v=53
239040 Off ch=1 n=a#4 v=80
239040 On ch=1 n=a4 v=53
239160 Off ch=1 n=a4 v=80
239160 On ch=1 n=f#5 v=53
239280 Off ch=1 n=f#5 v=80
239280 On ch=1 n=c5 v=53
239400 Off ch=1 n=c5 v=80
239400 On ch=1 n=a4 v=53
239520 Off ch=1 n=a4 v=80
239520 On ch=1 n=g4 v=53
239640 Off ch=1 n=g4 v=80
239640 On ch=1 n=e5 v=53
239760 Off ch=1 n=e5 v=80
239760 On ch=1 n=c#5 v=53
239880 Off ch=1 n=c#5 v=80
239880 On ch=1 n=g4 v=53
240000 Off ch=1 n=g4 v=80
240000 On ch=1 n=f#4 v=53
240120 Off ch=1 n=f#4 v=80
240120 On ch=1 n=f#5 v=53
240240 Off ch=1 n=f#5 v=80
240240 On ch=1 n=d5 v=53
240360 Off ch=1 n=d5 v=80
240360 On ch=1 n=f#4 v=53
240420 Off ch=1 n=f#4 v=80
240480 On ch=1 n=f#4 v=53
240600 On ch=1 n=f#5 v=53
240660 Off ch=1 n=f#4 v=80
240720 Off ch=1 n=f#5 v=80
240720 On ch=1 n=d5 v=53
240840 Off ch=1 n=d5 v=80
240840 On ch=1 n=g4 v=53
240900 Off ch=1 n=g4 v=80
240960 On ch=1 n=a4 v=65
241020 Off ch=1 n=a4 v=80
241080 On ch=1 n=f#5 v=53
241200 Off ch=1 n=f#5 v=80
241200 On ch=1 n=d5 v=53
241320 Off ch=1 n=d5 v=80
241320 On ch=1 n=a4 v=65
241440 Off ch=1 n=a4 v=80
241440 On ch=1 n=a4 v=53
241560 Off ch=1 n=a4 v=80
241560 On ch=1 n=f#5 v=41
241680 Off ch=1 n=f#5 v=80
241680 On ch=1 n=d#5 v=41
241800 Off ch=1 n=d#5 v=80
241800 On ch=1 n=a4 v=53
241920 Off ch=1 n=a4 v=80
241920 On ch=1 n=g4 v=61
242040 Off ch=1 n=g4 v=80
242040 On ch=1 n=g5 v=49
242160 Off ch=1 n=g5 v=80
242160 On ch=1 n=e5 v=49
242280 Off ch=1 n=e5 v=80
242280 On ch=1 n=g4 v=61
242400 Off ch=1 n=g4 v=80
242400 On ch=1 n=c5 v=70
242520 Off ch=1 n=c5 v=80
242520 On ch=1 n=a5 v=58
242640 Off ch=1 n=a5 v=80
242640 On ch=1 n=e5 v=58
242760 Off ch=1 n=e5 v=80
242760 On ch=1 n=c5 v=70
242880 Off ch=1 n=c5 v=80
242880 On ch=1 n=b4 v=78
243000 Off ch=1 n=b4 v=80
243000 On ch=1 n=g5 v=65
243120 Off ch=1 n=g5 v=80
243120 On ch=1 n=e5 v=65
243240 Off ch=1 n=e5 v=80
243240 On ch=1 n=b4 v=78
243360 Off ch=1 n=b4 v=80
243360 On ch=1 n=b4 v=65
243480 Off ch=1 n=b4 v=80
243480 On ch=1 n=f#5 v=53
243600 Off ch=1 n=f#5 v=80
243600 On ch=1 n=d#5 v=53
243720 Off ch=1 n=d#5 v=80
243720 On ch=1 n=b4 v=65
243840 Off ch=1 n=b4 v=80
243840 On ch=1 n=b4 v=78
243960 Off ch=1 n=b4 v=80
243960 On ch=1 n=b5 v=65
244080 Off ch=1 n=b5 v=80
244080 On ch=1 n=g#5 v=65
244200 Off ch=1 n=g#5 v=80
244200 On ch=1 n=b4 v=78
244260 Off ch=1 n=b4 v=80
244320 On ch=1 n=b4 v=90
244440 On ch=1 n=b5 v=71
244500 Off ch=1 n=b4 v=80
244560 Off ch=1 n=b5 v=80
244560 On ch=1 n=g#5 v=71
244680 Off ch=1 n=g#5 v=80
244680 On ch=1 n=c#5 v=90
244740 Off ch=1 n=c#5 v=80
244800 On ch=1 n=d5 v=102
244920 Off ch=1 n=d5 v=80
244920 On ch=1 n=b5 v=77
245040 Off ch=1 n=b5 v=80
245040 On ch=1 n=g#5 v=77
245160 Off ch=1 n=g#5 v=80
245160 On ch=1 n=d5 v=102
245280 Off ch=1 n=d5 v=80
245280 On ch=1 n=d5 v=102
245400 Off ch=1 n=d5 v=80
245400 On ch=1 n=b5 v=77
245520 Off ch=1 n=b5 v=80
245520 On ch=1 n=f5 v=77
245640 Off ch=1 n=f5 v=80
245640 On ch=1 n=d5 v=102
245760 Off ch=1 n=d5 v=80
245760 On ch=1 n=c#5 v=95
245880 Off ch=1 n=c#5 v=80
245880 On ch=1 n=a#5 v=70
246000 Off ch=1 n=a#5 v=80
246000 On ch=1 n=f#5 v=70
246120 Off ch=1 n=f#5 v=80
246120 On ch=1 n=c#5 v=95
246240 Off ch=1 n=c#5 v=80
246240 On ch=1 n=c5 v=87
246360 Off ch=1 n=c5 v=80
246360 On ch=1 n=a5 v=62
246480 Off ch=1 n=a5 v=80
246480 On ch=1 n=e5 v=62
246600 Off ch=1 n=e5 v=80
246600 On ch=1 n=c5 v=87
246720 Off ch=1 n=c5 v=80
246720 On ch=1 n=b4 v=80
246840 Off ch=1 n=b4 v=80
246840 On ch=1 n=g#5 v=55
246960 Off ch=1 n=g#5 v=80
246960 On ch=1 n=d5 v=55
247080 Off ch=1 n=d5 v=80
247080 On ch=1 n=b4 v=80
247200 Off ch=1 n=b4 v=80
247200 On ch=1 n=a4 v=72
247320 Off ch=1 n=a4 v=80
247320 On ch=1 n=f#5 v=47
247440 Off ch=1 n=f#5 v=80
247440 On ch=1 n=d#5 v=47
247560 Off ch=1 n=d#5 v=80
247560 On ch=1 n=a4 v=72
247680 Off ch=1 n=a4 v=80
247680 On ch=1 n=g#4 v=65
247800 Off ch=1 n=g#4 v=80
247800 On ch=1 n=g#5 v=53
247920 Off ch=1 n=g#5 v=80
247920 On ch=1 n=e5 v=53
248040 Off ch=1 n=e5 v=80
248040 On ch=1 n=g#4 v=65
248100 Off ch=1 n=g#4 v=80
248160 On ch=1 n=g#4 v=65
248280 On ch=1 n=g#5 v=53
248340 Off ch=1 n=g#4 v=80
248400 Off ch=1 n=g#5 v=80
248400 On ch=1 n=e5 v=53
248520 Off ch=1 n=e5 v=80
248520 On ch=1 n=a4 v=65
248580 Off ch=1 n=a4 v=80
248640 On ch=1 n=b4 v=65
248700 Off ch=1 n=b4 v=80
248760 On ch=1 n=g#5 v=53
248880 Off ch=1 n=g#5 v=80
248880 On ch=1 n=e5 v=53
249000 Off ch=1 n=e5 v=80
249000 On ch=1 n=b4 v=65
249120 Off ch=1 n=b4 v=80
249120 On ch=1 n=b4 v=53
249240 Off ch=1 n=b4 v=80
249240 On ch=1 n=g#5 v=41
249360 Off ch=1 n=g#5 v=80
249360 On ch=1 n=f5 v=41
249480 Off ch=1 n=f5 v=80
249480 On ch=1 n=b4 v=53
249600 Off ch=1 n=b4 v=80
249600 On ch=1 n=a4 v=61
249720 Off ch=1 n=a4 v=80
249720 On ch=1 n=a5 v=49
249840 Off ch=1 n=a5 v=80
249840 On ch=1 n=f#5 v=49
249960 Off ch=1 n=f#5 v=80
249960 On ch=1 n=a4 v=61
250080 Off ch=1 n=a4 v=80
250080 On ch=1 n=d5 v=70
250200 Off ch=1 n=d5 v=80
250200 On ch=1 n=b5 v=58
250320 Off ch=1 n=b5 v=80
250320 On ch=1 n=f#5 v=58
250440 Off ch=1 n=f#5 v=80
250440 On ch=1 n=d5 v=70
250560 Off ch=1 n=d5 v=80
250560 On ch=1 n=c#5 v=78
250680 Off ch=1 n=c#5 v=80
250680 On ch=1 n=a5 v=65
250800 Off ch=1 n=a5 v=80
250800 On ch=1 n=f#5 v=65
250920 Off ch=1 n=f#5 v=80
250920 On ch=1 n=c#5 v=78
251040 Off ch=1 n=c#5 v=80
251040 On ch=1 n=b4 v=65
251160 Off ch=1 n=b4 v=80
251160 On ch=1 n=g#5 v=53
251280 Off ch=1 n=g#5 v=80
251280 On ch=1 n=f5 v=53
251400 Off ch=1 n=f5 v=80
251400 On ch=1 n=b4 v=65
251520 Off ch=1 n=b4 v=80
251520 On ch=1 n=a4 v=53
251580 Off ch=1 n=a4 v=80
251640 On ch=1 n=a5 v=41
251760 Off ch=1 n=a5 v=80
251760 On ch=1 n=f#5 v=41
251880 Off ch=1 n=f#5 v=80
251880 On ch=1 n=a4 v=53
251940 Off ch=1 n=a4 v=80
252000 On ch=1 n=a4 v=53
252060 Off ch=1 n=a4 v=80
252120 On ch=1 n=a5 v=41
252240 Off ch=1 n=a5 v=80
252240 On ch=1 n=f#5 v=41
252360 Off ch=1 n=f#5 v=80
252360 On ch=1 n=b4 v=53
252420 Off ch=1 n=b4 v=80
252480 On ch=1 n=c#5 v=61
252540 Off ch=1 n=c#5 v=80
252600 On ch=1 n=c#6 v=49
252720 Off ch=1 n=c#6 v=80
252720 On ch=1 n=a5 v=49
252840 Off ch=1 n=a5 v=80
252840 On ch=1 n=c#5 v=61
252900 Off ch=1 n=c#5 v=80
252960 On ch=1 n=c#5 v=69
253020 Off ch=1 n=c#5 v=80
253080 On ch=1 n=c#6 v=57
253200 Off ch=1 n=c#6 v=80
253200 On ch=1 n=a5 v=57
253320 Off ch=1 n=a5 v=80
253320 On ch=1 n=f#5 v=69
253380 Off ch=1 n=f#5 v=80
253440 On ch=1 n=f#5 v=90
253560 On ch=1 n=c#6 v=65
253680 Off ch=1 n=c#6 v=80
253680 On ch=1 n=g#5 v=65
253800 Off ch=1 n=f#5 v=80
253800 Off ch=1 n=g#5 v=80
253800 On ch=1 n=f#5 v=78
253920 Off ch=1 n=f#5 v=80
253920 On ch=1 n=f#5 v=90
254040 On ch=1 n=c#6 v=65
254160 Off ch=1 n=c#6 v=80
254160 On ch=1 n=g#5 v=65
254280 Off ch=1 n=f#5 v=80
254280 Off ch=1 n=g#5 v=80
254280 On ch=1 n=f#5 v=78
254400 Off ch=1 n=f#5 v=80
254400 On ch=1 n=e5 v=86
254520 On ch=1 n=c#6 v=73
254640 Off ch=1 n=c#6 v=80
254640 On ch=1 n=g#5 v=73
254760 Off ch=1 n=e5 v=80
254760 Off ch=1 n=g#5 v=80
254760 On ch=1 n=e5 v=86
254880 Off ch=1 n=e5 v=80
254880 On ch=1 n=e5 v=94
255000 On ch=1 n=c#6 v=81
255120 Off ch=1 n=c#6 v=80
255120 On ch=1 n=g#5 v=81
255240 Off ch=1 n=e5 v=80
255240 Off ch=1 n=g#5 v=80
255240 On ch=1 n=e5 v=94
255360 Off ch=1 n=e5 v=80
255360 On ch=1 n=d5 v=90
255480 Off ch=1 n=d5 v=80
255480 On ch=1 n=c#6 v=90
255600 Off ch=1 n=c#6 v=80
255600 On ch=1 n=a5 v=90
255720 Off ch=1 n=a5 v=80
255720 On ch=1 n=d5 v=90
255840 Off ch=1 n=d5 v=80
255840 On ch=1 n=d5 v=90
255960 Off ch=1 n=d5 v=80
255960 On ch=1 n=c#6 v=90
256080 Off ch=1 n=c#6 v=80
256080 On ch=1 n=a5 v=90
256200 Off ch=1 n=a5 v=80
256200 On ch=1 n=d5 v=90
256320 Off ch=1 n=d5 v=80
256320 On ch=1 n=d5 v=90
256440 Off ch=1 n=d5 v=80
256440 On ch=1 n=b5 v=90
256560 Off ch=1 n=b5 v=80
256560 On ch=1 n=a5 v=90
256680 Off ch=1 n=a5 v=80
256680 On ch=1 n=d5 v=90
256800 Off ch=1 n=d5 v=80
256800 On ch=1 n=d5 v=90
256920 Off ch=1 n=d5 v=80
256920 On ch=1 n=b5 v=90
257040 Off ch=1 n=b5 v=80
257040 On ch=1 n=g#5 v=90
257160 Off ch=1 n=g#5 v=80
257160 On ch=1 n=d5 v=90
257280 Off ch=1 n=d5 v=80
257280 On ch=1 n=d5 v=90
257400 Off ch=1 n=d5 v=80
257400 On ch=1 n=b5 v=90
257520 Off ch=1 n=b5 v=80
257520 On ch=1 n=f5 v=90
257640 Off ch=1 n=f5 v=80
257640 On ch=1 n=d5 v=90
257760 Off ch=1 n=d5 v=80
257760 On ch=1 n=d5 v=90
257880 Off ch=1 n=d5 v=80
257880 On ch=1 n=b5 v=90
258000 Off ch=1 n=b5 v=80
258000 On ch=1 n=f5 v=90
258120 Off ch=1 n=f5 v=80
258120 On ch=1 n=d5 v=90
258240 Off ch=1 n=d5 v=80
258240 On ch=1 n=d5 v=90
258360 Off ch=1 n=d5 v=80
258360 On ch=1 n=a5 v=90
258480 Off ch=1 n=a5 v=80
258480 On ch=1 n=f#5 v=90
258600 Off ch=1 n=f#5 v=80
258600 On ch=1 n=d5 v=90
258720 Off ch=1 n=d5 v=80
258720 On ch=1 n=d5 v=90
258840 Off ch=1 n=d5 v=80
258840 On ch=1 n=a5 v=90
258960 Off ch=1 n=a5 v=80
258960 On ch=1 n=f#5 v=90
259080 Off ch=1 n=f#5 v=80
259080 On ch=1 n=d5 v=90
259200 Off ch=1 n=d5 v=80
259200 On ch=1 n=d5 v=102
259290 Off ch=1 n=d5 v=80
259320 On ch=1 n=g#5 v=78
259440 Off ch=1 n=g#5 v=80
259440 On ch=1 n=f5 v=78
259560 Off ch=1 n=f5 v=80
259560 On ch=1 n=d5 v=102
259650 Off ch=1 n=d5 v=80
259680 On ch=1 n=d5 v=102
259770 Off ch=1 n=d5 v=80
259800 On ch=1 n=g#5 v=78
259920 Off ch=1 n=g#5 v=80
259920 On ch=1 n=f5 v=78
260040 Off ch=1 n=f5 v=80
260040 On ch=1 n=d5 v=102
260130 Off ch=1 n=d5 v=80
260160 On ch=1 n=c#5 v=102
260250 Off ch=1 n=c#5 v=80
260280 On ch=1 n=g#5 v=78
260400 Off ch=1 n=g#5 v=80
260400 On ch=1 n=f#5 v=78
260520 Off ch=1 n=f#5 v=80
260520 On ch=1 n=b4 v=102
260610 Off ch=1 n=b4 v=80
260640 On ch=1 n=a4 v=102
260730 Off ch=1 n=a4 v=80
260760 On ch=1 n=g#5 v=78
260880 Off ch=1 n=g#5 v=80
260880 On ch=1 n=f#5 v=78
261000 Off ch=1 n=f#5 v=80
261000 On ch=1 n=g#4 v=102
261090 Off ch=1 n=g#4 v=80
261120 On ch=1 n=f#4 v=102
261240 On ch=1 n=c#6 v=78
261300 Off ch=1 n=f#4 v=80
261360 Off ch=1 n=c#6 v=80
261360 On ch=1 n=a#5 v=78
261480 Off ch=1 n=a#5 v=80
261480 On ch=1 n=c#5 v=102
261570 Off ch=1 n=c#5 v=80
261600 On ch=1 n=c#5 v=102
261720 On ch=1 n=c#6 v=78
261780 Off ch=1 n=c#5 v=80
261840 Off ch=1 n=c#6 v=80
261840 On ch=1 n=a#5 v=78
261960 Off ch=1 n=a#5 v=80
261960 On ch=1 n=d#5 v=102
262050 Off ch=1 n=d#5 v=80
262080 On ch=1 n=e5 v=102
262200 Off ch=1 n=e5 v=80
262200 On ch=1 n=c#6 v=78
262320 Off ch=1 n=c#6 v=80
262320 On ch=1 n=a#5 v=78
262440 Off ch=1 n=a#5 v=80
262440 On ch=1 n=e5 v=102
262560 Off ch=1 n=e5 v=80
262560 On ch=1 n=e5 v=102
262680 Off ch=1 n=e5 v=80
262680 On ch=1 n=c#6 v=78
262800 Off ch=1 n=c#6 v=80
262800 On ch=1 n=g5 v=78
262920 Off ch=1 n=g5 v=80
262920 On ch=1 n=e5 v=102
263040 Off ch=1 n=e5 v=80
263040 On ch=1 n=d#5 v=95
263160 Off ch=1 n=d#5 v=80
263160 On ch=1 n=c6 v=78
263280 Off ch=1 n=c6 v=80
263280 On ch=1 n=g#5 v=78
263400 Off ch=1 n=g#5 v=80
263400 On ch=1 n=d#5 v=95
263520 Off ch=1 n=d#5 v=80
263520 On ch=1 n=d5 v=87
263640 Off ch=1 n=d5 v=80
263640 On ch=1 n=b5 v=75
263760 Off ch=1 n=b5 v=80
263760 On ch=1 n=f#5 v=75
263880 Off ch=1 n=f#5 v=80
263880 On ch=1 n=d5 v=87
264000 Off ch=1 n=d5 v=80
264000 On ch=1 n=c#5 v=80
264120 Off ch=1 n=c#5 v=80
264120 On ch=1 n=a#5 v=68
264240 Off ch=1 n=a#5 v=80
264240 On ch=1 n=e5 v=68
264360 Off ch=1 n=e5 v=80
264360 On ch=1 n=c#5 v=80
264480 Off ch=1 n=c#5 v=80
264480 On ch=1 n=b4 v=72
264600 Off ch=1 n=b4 v=80
264600 On ch=1 n=g#5 v=60
264720 Off ch=1 n=g#5 v=80
264720 On ch=1 n=f5 v=60
264840 Off ch=1 n=f5 v=80
264840 On ch=1 n=b4 v=72
264960 Off ch=1 n=b4 v=80
264960 On ch=1 n=a#4 v=65
265080 Off ch=1 n=a#4 v=80
265080 On ch=1 n=a#5 v=47
265200 Off ch=1 n=a#5 v=80
265200 On ch=1 n=f#5 v=47
265320 Off ch=1 n=f#5 v=80
265320 On ch=1 n=a#4 v=65
265380 Off ch=1 n=a#4 v=80
265440 On ch=1 n=a#4 v=65
265560 On ch=1 n=a#5 v=47
265620 Off ch=1 n=a#4 v=80
265680 Off ch=1 n=a#5 v=80
265680 On ch=1 n=f#5 v=47
265800 Off ch=1 n=f#5 v=80
265800 On ch=1 n=b4 v=65
265860 Off ch=1 n=b4 v=80
265920 On ch=1 n=c#5 v=65
265980 Off ch=1 n=c#5 v=80
266040 On ch=1 n=a#5 v=47
266160 Off ch=1 n=a#5 v=80
266160 On ch=1 n=f#5 v=47
266280 Off ch=1 n=f#5 v=80
266280 On ch=1 n=c#5 v=65
266400 Off ch=1 n=c#5 v=80
266400 On ch=1 n=c#5 v=53
266520 Off ch=1 n=c#5 v=80
266520 On ch=1 n=a#5 v=40
266640 Off ch=1 n=a#5 v=80
266640 On ch=1 n=g5 v=40
266760 Off ch=1 n=g5 v=80
266760 On ch=1 n=c#5 v=53
266880 Off ch=1 n=c#5 v=80
266880 On ch=1 n=b4 v=53
267000 Off ch=1 n=b4 v=80
267000 On ch=1 n=b5 v=40
267120 Off ch=1 n=b5 v=80
267120 On ch=1 n=g#5 v=40
267240 Off ch=1 n=g#5 v=80
267240 On ch=1 n=b4 v=53
267360 Off ch=1 n=b4 v=80
267360 On ch=1 n=e5 v=53
267480 Off ch=1 n=e5 v=80
267480 On ch=1 n=c#6 v=40
267600 Off ch=1 n=c#6 v=80
267600 On ch=1 n=g#5 v=40
267720 Off ch=1 n=g#5 v=80
267720 On ch=1 n=e5 v=53
267840 Off ch=1 n=e5 v=80
267840 On ch=1 n=d#5 v=53
267960 Off ch=1 n=d#5 v=80
267960 On ch=1 n=b5 v=40
268080 Off ch=1 n=b5 v=80
268080 On ch=1 n=g#5 v=40
268200 Off ch=1 n=g#5 v=80
268200 On ch=1 n=d#5 v=53
268320 Off ch=1 n=d#5 v=80
268320 On ch=1 n=d#5 v=53
268440 Off ch=1 n=d#5 v=80
268440 On ch=1 n=a#5 v=40
268560 Off ch=1 n=a#5 v=80
268560 On ch=1 n=g5 v=40
268680 Off ch=1 n=g5 v=80
268680 On ch=1 n=d#5 v=53
268800 Off ch=1 n=d#5 v=80
268800 On ch=1 n=d#5 v=53
268860 Off ch=1 n=d#5 v=80
268920 On ch=1 n=d#6 v=40
269040 Off ch=1 n=d#6 v=80
269040 On ch=1 n=c6 v=40
269160 Off ch=1 n=c6 v=80
269160 On ch=1 n=d#5 v=53
269220 Off ch=1 n=d#5 v=80
269280 On ch=1 n=d#5 v=65
269340 Off ch=1 n=d#5 v=80
269400 On ch=1 n=d#6 v=53
269520 Off ch=1 n=d#6 v=80
269520 On ch=1 n=c6 v=53
269640 Off ch=1 n=c6 v=80
269640 On ch=1 n=f5 v=65
269700 Off ch=1 n=f5 v=80
269760 On ch=1 n=f#5 v=78
269880 Off ch=1 n=f#5 v=80
269880 On ch=1 n=d#6 v=60
270000 Off ch=1 n=d#6 v=80
270000 On ch=1 n=c6 v=60
270120 Off ch=1 n=c6 v=80
270120 On ch=1 n=f#5 v=78
270240 Off ch=1 n=f#5 v=80
270240 On ch=1 n=f#5 v=78
270360 Off ch=1 n=f#5 v=80
270360 On ch=1 n=d#6 v=60
270480 Off ch=1 n=d#6 v=80
270480 On ch=1 n=a5 v=60
270600 Off ch=1 n=a5 v=80
270600 On ch=1 n=f#5 v=78
270720 Off ch=1 n=f#5 v=80
270720 On ch=1 n=f5 v=78
270840 Off ch=1 n=f5 v=80
270840 On ch=1 n=d6 v=60
270960 Off ch=1 n=d6 v=80
270960 On ch=1 n=a#5 v=60
271080 Off ch=1 n=a#5 v=80
271080 On ch=1 n=f5 v=78
271200 Off ch=1 n=f5 v=80
271200 On ch=1 n=e5 v=78
271320 Off ch=1 n=e5 v=80
271320 On ch=1 n=c#6 v=60
271440 Off ch=1 n=c#6 v=80
271440 On ch=1 n=g#5 v=60
271560 Off ch=1 n=g#5 v=80
271560 On ch=1 n=e5 v=78
271680 Off ch=1 n=e5 v=80
271680 On ch=1 n=d#5 v=78
271800 Off ch=1 n=d#5 v=80
271800 On ch=1 n=c6 v=60
271920 Off ch=1 n=c6 v=80
271920 On ch=1 n=f#5 v=60
272040 Off ch=1 n=f#5 v=80
272040 On ch=1 n=d#5 v=78
272160 Off ch=1 n=d#5 v=80
272160 On ch=1 n=c#5 v=72
272280 Off ch=1 n=c#5 v=80
272280 On ch=1 n=a#5 v=54
272400 Off ch=1 n=a#5 v=80
272400 On ch=1 n=g5 v=54
272520 Off ch=1 n=g5 v=80
272520 On ch=1 n=c#5 v=72
272640 Off ch=1 n=c#5 v=80
272640 On ch=1 n=c5 v=65
272760 Off ch=1 n=c5 v=80
272760 On ch=1 n=c6 v=50
272880 Off ch=1 n=c6 v=80
272880 On ch=1 n=g#5 v=50
273000 Off ch=1 n=g#5 v=80
273000 On ch=1 n=c5 v=65
273060 Off ch=1 n=c5 v=80
273120 On ch=1 n=c5 v=65
273240 Off ch=1 n=c5 v=80
273240 On ch=1 n=c6 v=51
273360 Off ch=1 n=c6 v=80
273360 On ch=1 n=g#5 v=51
273480 Off ch=1 n=g#5 v=80
273480 On ch=1 n=c#5 v=78
273600 Off ch=1 n=c#5 v=80
273600 On ch=1 n=d#5 v=90
273720 Off ch=1 n=d#5 v=80
273720 On ch=1 n=c6 v=75
273840 Off ch=1 n=c6 v=80
273840 On ch=1 n=g#5 v=75
273960 Off ch=1 n=g#5 v=80
273960 On ch=1 n=d#5 v=90
274080 Off ch=1 n=d#5 v=80
274080 On ch=1 n=d#5 v=53
274200 Off ch=1 n=d#5 v=80
274200 On ch=1 n=c6 v=40
274320 Off ch=1 n=c6 v=80
274320 On ch=1 n=a5 v=40
274440 Off ch=1 n=a5 v=80
274440 On ch=1 n=d#5 v=53
274560 Off ch=1 n=d#5 v=80
274560 On ch=1 n=c#5 v=53
274680 Off ch=1 n=c#5 v=80
274680 On ch=1 n=c#6 v=40
274800 Off ch=1 n=c#6 v=80
274800 On ch=1 n=a#5 v=40
274920 Off ch=1 n=a#5 v=80
274920 On ch=1 n=c#5 v=53
275040 Off ch=1 n=c#5 v=80
275040 On ch=1 n=f#5 v=53
275160 Off ch=1 n=f#5 v=80
275160 On ch=1 n=d#6 v=40
275280 Off ch=1 n=d#6 v=80
275280 On ch=1 n=a#5 v=40
275400 Off ch=1 n=a#5 v=80
275400 On ch=1 n=f#5 v=53
275520 Off ch=1 n=f#5 v=80
275520 On ch=1 n=f5 v=53
275640 Off ch=1 n=f5 v=80
275640 On ch=1 n=c#6 v=40
275760 Off ch=1 n=c#6 v=80
275760 On ch=1 n=a#5 v=40
275880 Off ch=1 n=a#5 v=80
275880 On ch=1 n=f5 v=53
276000 Off ch=1 n=f5 v=80
276000 On ch=1 n=d#5 v=53
276120 Off ch=1 n=d#5 v=80
276120 On ch=1 n=c6 v=40
276240 Off ch=1 n=c6 v=80
276240 On ch=1 n=a5 v=40
276360 Off ch=1 n=a5 v=80
276360 On ch=1 n=d#5 v=53
276480 Off ch=1 n=d#5 v=80
276480 On ch=1 n=c#5 v=53
276600 Off ch=1 n=c#5 v=80
276600 On ch=1 n=c#6 v=40
276720 Off ch=1 n=c#6 v=80
276720 On ch=1 n=a#5 v=40
276840 Off ch=1 n=a#5 v=80
276840 On ch=1 n=c#5 v=53
276900 Off ch=1 n=c#5 v=80
276960 On ch=1 n=c#5 v=53
277080 Off ch=1 n=c#5 v=80
277080 On ch=1 n=c#6 v=40
277200 Off ch=1 n=c#6 v=80
277200 On ch=1 n=a#5 v=40
277320 Off ch=1 n=a#5 v=80
277320 On ch=1 n=d#5 v=53
277380 Off ch=1 n=d#5 v=80
277440 On ch=1 n=f5 v=61
277560 Off ch=1 n=f5 v=80
277560 On ch=1 n=f6 v=48
277680 Off ch=1 n=f6 v=80
277680 On ch=1 n=c#6 v=48
277800 Off ch=1 n=c#6 v=80
277800 On ch=1 n=f5 v=61
277860 Off ch=1 n=f5 v=80
277920 On ch=1 n=f5 v=69
278040 Off ch=1 n=f5 v=80
278040 On ch=1 n=f6 v=56
278160 Off ch=1 n=f6 v=80
278160 On ch=1 n=c#6 v=56
278280 Off ch=1 n=c#6 v=80
278280 On ch=1 n=a#5 v=69
278340 Off ch=1 n=a#5 v=80
278400 On ch=1 n=a#5 v=95
278520 On ch=1 n=f6 v=63
278640 Off ch=1 n=f6 v=80
278640 Off ch=1 n=a#5 v=80
278640 On ch=1 n=c6 v=63
278760 Off ch=1 n=c6 v=80
278760 On ch=1 n=a#5 v=78
278880 Off ch=1 n=a#5 v=80
278880 On ch=1 n=a#5 v=78
279000 On ch=1 n=f6 v=63
279120 Off ch=1 n=f6 v=80
279120 Off ch=1 n=a#5 v=80
279120 On ch=1 n=c6 v=63
279240 Off ch=1 n=c6 v=80
279240 On ch=1 n=a#5 v=78
279360 Off ch=1 n=a#5 v=80
279360 On ch=1 n=g#5 v=95
279480 On ch=1 n=f6 v=63
279600 Off ch=1 n=f6 v=80
279600 Off ch=1 n=g#5 v=80
279600 On ch=1 n=c6 v=63
279720 Off ch=1 n=c6 v=80
279720 On ch=1 n=g#5 v=78
279840 Off ch=1 n=g#5 v=80
279840 On ch=1 n=g#5 v=78
279960 On ch=1 n=f6 v=63
280080 Off ch=1 n=f6 v=80
280080 Off ch=1 n=g#5 v=80
280080 On ch=1 n=c6 v=63
280200 Off ch=1 n=c6 v=80
280200 On ch=1 n=g#5 v=78
280320 Off ch=1 n=g#5 v=80
280320 On ch=1 n=a#4 v=78
280440 Off ch=1 n=a#4 v=80
280440 On ch=1 n=a#5 v=63
280560 Off ch=1 n=a#5 v=80
280560 On ch=1 n=g#5 v=63
280680 Off ch=1 n=g#5 v=80
280680 On ch=1 n=a#4 v=78
280740 Off ch=1 n=a#4 v=80
280800 On ch=1 n=a#4 v=81
280920 Off ch=1 n=a#4 v=80
280920 On ch=1 n=a#5 v=68
281040 Off ch=1 n=a#5 v=80
281040 On ch=1 n=g#5 v=68
281160 Off ch=1 n=g#5 v=80
281160 On ch=1 n=c5 v=81
281220 Off ch=1 n=c5 v=80
281280 On ch=1 n=c#5 v=84
281400 Off ch=1 n=c#5 v=80
281400 On ch=1 n=a#5 v=71
281520 Off ch=1 n=a#5 v=80
281520 On ch=1 n=f#5 v=71
281640 Off ch=1 n=f#5 v=80
281640 On ch=1 n=c#5 v=84
281700 Off ch=1 n=c#5 v=80
281760 On ch=1 n=c#5 v=87
281880 Off ch=1 n=c#5 v=80
281880 On ch=1 n=c#6 v=74
282000 Off ch=1 n=c#6 v=80
282000 On ch=1 n=a#5 v=74
282120 Off ch=1 n=a#5 v=80
282120 On ch=1 n=f#5 v=87
282180 Off ch=1 n=f#5 v=80
282240 On ch=1 n=f#5 v=102
282360 On ch=1 n=c#6 v=76
282480 Off ch=1 n=c#6 v=80
282480 Off ch=1 n=f#5 v=80
282480 On ch=1 n=g#5 v=76
282600 Off ch=1 n=g#5 v=80
282600 On ch=1 n=f#5 v=90
282720 Off ch=1 n=f#5 v=80
282720 On ch=1 n=f#5 v=90
282840 On ch=1 n=c#6 v=76
282960 Off ch=1 n=c#6 v=80
282960 Off ch=1 n=f#5 v=80
282960 On ch=1 n=g#5 v=76
283080 Off ch=1 n=g#5 v=80
283080 On ch=1 n=f#5 v=90
283200 Off ch=1 n=f#5 v=80
283200 On ch=1 n=f5 v=102
283320 On ch=1 n=c#6 v=76
283440 Off ch=1 n=c#6 v=80
283440 Off ch=1 n=f5 v=80
283440 On ch=1 n=g#5 v=76
283560 Off ch=1 n=g#5 v=80
283560 On ch=1 n=f5 v=90
283680 Off ch=1 n=f5 v=80
283680 On ch=1 n=f5 v=90
283800 On ch=1 n=c#6 v=76
283920 Off ch=1 n=c#6 v=80
283920 Off ch=1 n=f5 v=80
283920 On ch=1 n=g#5 v=76
284040 Off ch=1 n=g#5 v=80
284040 On ch=1 n=f5 v=90
284160 Off ch=1 n=f5 v=80
284160 On ch=1 n=c#5 v=90
284280 On ch=1 n=c#6 v=76
284400 Off ch=1 n=c#6 v=80
284400 Off ch=1 n=c#5 v=80
284400 On ch=1 n=g5 v=76
284520 Off ch=1 n=g5 v=80
284520 On ch=1 n=c#5 v=90
284640 Off ch=1 n=c#5 v=80
284640 On ch=1 n=c#5 v=90
284760 On ch=1 n=c#6 v=76
284880 Off ch=1 n=c#6 v=80
284880 Off ch=1 n=c#5 v=80
284880 On ch=1 n=g5 v=76
285000 Off ch=1 n=g5 v=80
285000 On ch=1 n=c#5 v=90
285120 Off ch=1 n=c#5 v=80
285120 On ch=1 n=e5 v=90
285240 On ch=1 n=c#6 v=70
285360 Off ch=1 n=c#6 v=80
285360 Off ch=1 n=e5 v=80
285360 On ch=1 n=a#5 v=70
285480 Off ch=1 n=a#5 v=80
285480 On ch=1 n=e5 v=90
285600 Off ch=1 n=e5 v=80
285600 On ch=1 n=e5 v=90
285720 On ch=1 n=c#6 v=70
285840 Off ch=1 n=c#6 v=80
285840 Off ch=1 n=e5 v=80
285840 On ch=1 n=a#5 v=70
285960 Off ch=1 n=a#5 v=80
285960 On ch=1 n=e5 v=90
286080 Off ch=1 n=e5 v=80
286080 On ch=1 n=e5 v=90
286200 On ch=1 n=d6 v=70
286320 Off ch=1 n=d6 v=80
286320 Off ch=1 n=e5 v=80
286320 On ch=1 n=a5 v=70
286440 Off ch=1 n=a5 v=80
286440 On ch=1 n=d5 v=90
286560 Off ch=1 n=d5 v=80
286560 On ch=1 n=d5 v=90
286680 On ch=1 n=d6 v=70
286800 Off ch=1 n=d6 v=80
286800 Off ch=1 n=d5 v=80
286800 On ch=1 n=a5 v=70
286920 Off ch=1 n=a5 v=80
286920 On ch=1 n=e5 v=90
287040 Off ch=1 n=e5 v=80
287040 On ch=1 n=f5 v=90
287160 On ch=1 n=f6 v=70
287280 Off ch=1 n=f6 v=80
287280 Off ch=1 n=f5 v=80
287280 On ch=1 n=d6 v=70
287400 Off ch=1 n=d6 v=80
287400 On ch=1 n=f5 v=90
287520 Off ch=1 n=f5 v=80
287520 On ch=1 n=f5 v=90
287640 On ch=1 n=f6 v=70
287760 Off ch=1 n=f6 v=80
287760 Off ch=1 n=f5 v=80
287760 On ch=1 n=d6 v=70
287880 Off ch=1 n=d6 v=80
287880 On ch=1 n=f5 v=90
288000 Off ch=1 n=f5 v=80
288000 On ch=1 n=f5 v=90
288120 On ch=1 n=e6 v=70
288240 Off ch=1 n=e6 v=80
288240 Off ch=1 n=f5 v=80
288240 On ch=1 n=d6 v=70
288360 Off ch=1 n=d6 v=80
288360 On ch=1 n=e5 v=90
288480 Off ch=1 n=e5 v=80
288480 On ch=1 n=e5 v=90
288600 On ch=1 n=e6 v=70
288720 Off ch=1 n=e6 v=80
288720 Off ch=1 n=e5 v=80
288720 On ch=1 n=d6 v=70
288840 Off ch=1 n=d6 v=80
288840 On ch=1 n=f5 v=90
288960 Off ch=1 n=f5 v=80
288960 On ch=1 n=g5 v=90
289080 On ch=1 n=g6 v=70
289200 Off ch=1 n=g6 v=80
289200 Off ch=1 n=g5 v=80
289200 On ch=1 n=e6 v=70
289320 Off ch=1 n=e6 v=80
289320 On ch=1 n=g5 v=90
289440 Off ch=1 n=g5 v=80
289440 On ch=1 n=g5 v=90
289560 On ch=1 n=g6 v=70
289680 Off ch=1 n=g6 v=80
289680 Off ch=1 n=g5 v=80
289680 On ch=1 n=e6 v=70
289800 Off ch=1 n=e6 v=80
289800 On ch=1 n=g5 v=90
289920 Off ch=1 n=g5 v=80
289920 On ch=1 n=g5 v=90
290040 On ch=1 n=f6 v=70
290160 Off ch=1 n=f6 v=80
290160 Off ch=1 n=g5 v=80
290160 On ch=1 n=e6 v=70
290280 Off ch=1 n=e6 v=80
290280 On ch=1 n=f5 v=90
290400 Off ch=1 n=f5 v=80
290400 On ch=1 n=f5 v=90
290520 On ch=1 n=f6 v=70
290640 Off ch=1 n=f6 v=80
290640 Off ch=1 n=f5 v=80
290640 On ch=1 n=e6 v=70
290760 Off ch=1 n=e6 v=80
290760 On ch=1 n=g5 v=90
290880 Off ch=1 n=g5 v=80
290880 On ch=1 n=a5 v=90
291000 On ch=1 n=a6 v=70
291120 Off ch=1 n=a6 v=80
291120 Off ch=1 n=a5 v=80
291120 On ch=1 n=f6 v=70
291240 Off ch=1 n=f6 v=80
291240 On ch=1 n=a5 v=90
291360 Off ch=1 n=a5 v=80
291360 On ch=1 n=a5 v=90
291480 On ch=1 n=a6 v=70
291600 Off ch=1 n=a6 v=80
291600 Off ch=1 n=a5 v=80
291600 On ch=1 n=f6 v=70
291720 Off ch=1 n=f6 v=80
291720 On ch=1 n=a5 v=90
291840 Off ch=1 n=a5 v=80
291840 On ch=1 n=a5 v=78
291960 On ch=1 n=a#6 v=63
292080 Off ch=1 n=a#6 v=80
292080 Off ch=1 n=a5 v=80
292080 On ch=1 n=f6 v=63
292200 Off ch=1 n=f6 v=80
292200 On ch=1 n=a5 v=78
292320 Off ch=1 n=a5 v=80
292320 On ch=1 n=a5 v=78
292440 Off ch=1 n=a5 v=80
292440 On ch=1 n=g6 v=63
292560 Off ch=1 n=g6 v=80
292560 On ch=1 n=d6 v=63
292680 Off ch=1 n=d6 v=80
292680 On ch=1 n=a5 v=78
292800 Off ch=1 n=a5 v=80
292800 On ch=1 n=a5 v=85
292920 Off ch=1 n=a5 v=80
292920 On ch=1 n=a6 v=72
293040 Off ch=1 n=a6 v=80
293040 On ch=1 n=e6 v=72
293160 Off ch=1 n=e6 v=80
293160 On ch=1 n=a5 v=85
293280 Off ch=1 n=a5 v=80
293280 On ch=1 n=a5 v=85
293400 Off ch=1 n=a5 v=80
293400 On ch=1 n=f6 v=72
293520 Off ch=1 n=f6 v=80
293520 On ch=1 n=c6 v=72
293640 Off ch=1 n=c6 v=80
293640 On ch=1 n=a5 v=85
293760 Off ch=1 n=a5 v=80
293760 On ch=1 n=a5 v=92
293880 Off ch=1 n=a5 v=80
293880 On ch=1 n=g6 v=79
294000 Off ch=1 n=g6 v=80
294000 On ch=1 n=d6 v=79
294120 Off ch=1 n=d6 v=80
294120 On ch=1 n=a5 v=92
294240 Off ch=1 n=a5 v=80
294240 On ch=1 n=a5 v=92
294360 Off ch=1 n=a5 v=80
294360 On ch=1 n=e6 v=79
294480 Off ch=1 n=e6 v=80
294480 On ch=1 n=a#5 v=79
294600 Off ch=1 n=a#5 v=80
294600 On ch=1 n=a5 v=92
294720 Off ch=1 n=a5 v=80
294720 On ch=1 n=a5 v=99
294840 Off ch=1 n=a5 v=80
294840 On ch=1 n=f6 v=85
294960 Off ch=1 n=f6 v=80
294960 On ch=1 n=c6 v=85
295080 Off ch=1 n=c6 v=80
295080 On ch=1 n=a5 v=99
295200 Off ch=1 n=a5 v=80
295200 On ch=1 n=a5 v=99
295320 Off ch=1 n=a5 v=80
295320 On ch=1 n=d6 v=85
295440 Off ch=1 n=d6 v=80
295440 On ch=1 n=a#5 v=85
295560 Off ch=1 n=a#5 v=80
295560 On ch=1 n=a5 v=99
295680 Off ch=1 n=a5 v=80
295680 On ch=1 n=a5 v=106
295800 Off ch=1 n=a5 v=80
295800 On ch=1 n=e6 v=93
295920 Off ch=1 n=e6 v=80
295920 On ch=1 n=a#5 v=93
296040 Off ch=1 n=a#5 v=80
296040 On ch=1 n=a5 v=106
296160 Off ch=1 n=a5 v=80
296160 On ch=1 n=a5 v=106
296280 Off ch=1 n=a5 v=80
296280 On ch=1 n=d6 v=93
296400 Off ch=1 n=d6 v=80
296400 On ch=1 n=a#5 v=93
296520 Off ch=1 n=a#5 v=80
296520 On ch=1 n=a5 v=106
296640 Off ch=1 n=a5 v=80
296640 On ch=1 n=g5 v=114
296760 Off ch=1 n=g5 v=80
296760 On ch=1 n=c#6 v=100
296880 Off ch=1 n=c#6 v=80
296880 On ch=1 n=a5 v=100
297000 Off ch=1 n=a5 v=80
297000 On ch=1 n=g5 v=114
297120 Off ch=1 n=g5 v=80
297120 On ch=1 n=f5 v=114
297240 Off ch=1 n=f5 v=80
297240 On ch=1 n=a#5 v=100
297360 Off ch=1 n=a#5 v=80
297360 On ch=1 n=g5 v=100
297480 Off ch=1 n=g5 v=80
297480 On ch=1 n=f5 v=114
297600 Off ch=1 n=f5 v=80
297600 On ch=1 n=d5 v=114
297720 Off ch=1 n=d5 v=80
297720 On ch=1 n=g5 v=100
297840 Off ch=1 n=g5 v=80
297840 On ch=1 n=e5 v=100
297960 Off ch=1 n=e5 v=80
297960 On ch=1 n=d5 v=114
298080 Off ch=1 n=d5 v=80
298080 On ch=1 n=a#4 v=114
298200 Off ch=1 n=a#4 v=80
298200 On ch=1 n=g5 v=100
298320 Off ch=1 n=g5 v=80
298320 On ch=1 n=e5 v=100
298440 Off ch=1 n=e5 v=80
298440 On ch=1 n=a#4 v=114
298560 Off ch=1 n=a#4 v=80
298560 On ch=1 n=g4 v=114
298680 Off ch=1 n=g4 v=80
298680 On ch=1 n=g5 v=100
298800 Off ch=1 n=g5 v=80
298800 On ch=1 n=e5 v=100
298920 Off ch=1 n=e5 v=80
298920 On ch=1 n=g4 v=114
299040 Off ch=1 n=g4 v=80
299040 On ch=1 n=g4 v=114
299160 Off ch=1 n=g4 v=80
299160 On ch=1 n=g5 v=100
299280 Off ch=1 n=g5 v=80
299280 On ch=1 n=d5 v=100
299400 Off ch=1 n=d5 v=80
299400 On ch=1 n=g4 v=114
299520 Off ch=1 n=g4 v=80
299520 On ch=1 n=g4 v=78
299640 On ch=1 n=g5 v=63
299760 Off ch=1 n=g5 v=80
299760 Off ch=1 n=g4 v=80
299760 On ch=1 n=c#5 v=63
299880 Off ch=1 n=c#5 v=80
299880 On ch=1 n=g4 v=78
300000 Off ch=1 n=g4 v=80
300000 On ch=1 n=g4 v=78
300120 On ch=1 n=g5 v=63
300240 Off ch=1 n=g5 v=80
300240 Off ch=1 n=g4 v=80
300240 On ch=1 n=c#5 v=63
300360 Off ch=1 n=c#5 v=80
300360 On ch=1 n=a4 v=78
300480 Off ch=1 n=a4 v=80
300480 On ch=1 n=a#4 v=82
300600 On ch=1 n=g5 v=63
300720 Off ch=1 n=g5 v=80
300720 Off ch=1 n=a#4 v=80
300720 On ch=1 n=e5 v=63
300840 Off ch=1 n=e5 v=80
300840 On ch=1 n=a#4 v=82
300960 Off ch=1 n=a#4 v=80
300960 On ch=1 n=a#4 v=82
301080 On ch=1 n=g5 v=63
301200 Off ch=1 n=g5 v=80
301200 Off ch=1 n=a#4 v=80
301200 On ch=1 n=e5 v=63
301320 Off ch=1 n=e5 v=80
301320 On ch=1 n=a#4 v=82
301440 Off ch=1 n=a#4 v=80
301440 On ch=1 n=a#4 v=87
301560 On ch=1 n=a#5 v=75
301680 Off ch=1 n=a#5 v=80
301680 Off ch=1 n=a#4 v=80
301680 On ch=1 n=g5 v=75
301800 Off ch=1 n=g5 v=80
301800 On ch=1 n=a#4 v=87
301920 Off ch=1 n=a#4 v=80
301920 On ch=1 n=a#4 v=87
302040 On ch=1 n=a#5 v=75
302160 Off ch=1 n=a#5 v=80
302160 Off ch=1 n=a#4 v=80
302160 On ch=1 n=g5 v=75
302280 Off ch=1 n=g5 v=80
302280 On ch=1 n=c5 v=87
302400 Off ch=1 n=c5 v=80
302400 On ch=1 n=c#5 v=91
302520 On ch=1 n=a#5 v=75
302640 Off ch=1 n=a#5 v=80
302640 Off ch=1 n=c#5 v=80
302640 On ch=1 n=g5 v=75
302760 Off ch=1 n=g5 v=80
302760 On ch=1 n=c#5 v=91
302880 Off ch=1 n=c#5 v=80
302880 On ch=1 n=c#5 v=91
303000 On ch=1 n=a#5 v=75
303120 Off ch=1 n=a#5 v=80
303120 Off ch=1 n=c#5 v=80
303120 On ch=1 n=g5 v=75
303240 Off ch=1 n=g5 v=80
303240 On ch=1 n=c#5 v=91
303360 Off ch=1 n=c#5 v=80
303360 On ch=1 n=c#5 v=96
303480 On ch=1 n=a#5 v=83
303600 Off ch=1 n=a#5 v=80
303600 Off ch=1 n=c#5 v=80
303600 On ch=1 n=f#5 v=83
303720 Off ch=1 n=f#5 v=80
303720 On ch=1 n=c#5 v=96
303840 Off ch=1 n=c#5 v=80
303840 On ch=1 n=c#5 v=96
303960 On ch=1 n=a#5 v=83
304080 Off ch=1 n=a#5 v=80
304080 Off ch=1 n=c#5 v=80
304080 On ch=1 n=f#5 v=83
304200 Off ch=1 n=f#5 v=80
304200 On ch=1 n=d#5 v=96
304320 Off ch=1 n=d#5 v=80
304320 On ch=1 n=e5 v=100
304440 On ch=1 n=c#6 v=83
304560 Off ch=1 n=c#6 v=80
304560 Off ch=1 n=e5 v=80
304560 On ch=1 n=a#5 v=83
304680 Off ch=1 n=a#5 v=80
304680 On ch=1 n=e5 v=100
304800 Off ch=1 n=e5 v=80
304800 On ch=1 n=e5 v=100
304920 On ch=1 n=c#6 v=83
305040 Off ch=1 n=c#6 v=80
305040 Off ch=1 n=e5 v=80
305040 On ch=1 n=a#5 v=83
305160 Off ch=1 n=a#5 v=80
305160 On ch=1 n=e5 v=100
305280 Off ch=1 n=e5 v=80
305280 On ch=1 n=e5 v=105
305400 Off ch=1 n=e5 v=80
305400 On ch=1 n=e6 v=91
305520 Off ch=1 n=e6 v=80
305520 On ch=1 n=c#6 v=91
305640 Off ch=1 n=c#6 v=80
305640 On ch=1 n=e5 v=105
305760 Off ch=1 n=e5 v=80
305760 On ch=1 n=e5 v=105
305880 Off ch=1 n=e5 v=80
305880 On ch=1 n=e6 v=91
306000 Off ch=1 n=e6 v=80
306000 On ch=1 n=c#6 v=91
306120 Off ch=1 n=c#6 v=80
306120 On ch=1 n=f#5 v=105
306240 Off ch=1 n=f#5 v=80
306240 On ch=1 n=g5 v=109
306360 Off ch=1 n=g5 v=80
306360 On ch=1 n=e6 v=95
306480 Off ch=1 n=e6 v=80
306480 On ch=1 n=c#6 v=95
306600 Off ch=1 n=c#6 v=80
306600 On ch=1 n=g5 v=109
306720 Off ch=1 n=g5 v=80
306720 On ch=1 n=g5 v=109
306840 Off ch=1 n=g5 v=80
306840 On ch=1 n=e6 v=95
306960 Off ch=1 n=e6 v=80
306960 On ch=1 n=c#6 v=95
307080 Off ch=1 n=c#6 v=80
307080 On ch=1 n=g5 v=109
307200 Off ch=1 n=g5 v=80
307200 On ch=1 n=f#5 v=90
307260 Off ch=1 n=f#5 v=80
307320 On ch=1 n=f#6 v=90
307440 Off ch=1 n=f#6 v=80
307440 On ch=1 n=d6 v=90
307560 Off ch=1 n=d6 v=80
307560 On ch=1 n=f#5 v=90
307620 Off ch=1 n=f#5 v=80
307680 On ch=1 n=g5 v=90
307740 Off ch=1 n=g5 v=80
307800 On ch=1 n=g6 v=90
307920 Off ch=1 n=g6 v=80
307920 On ch=1 n=d6 v=90
308040 Off ch=1 n=d6 v=80
308040 On ch=1 n=g5 v=90
308100 Off ch=1 n=g5 v=80
308160 On ch=1 n=f#5 v=90
308220 Off ch=1 n=f#5 v=80
308280 On ch=1 n=f#6 v=90
308400 Off ch=1 n=f#6 v=80
308400 On ch=1 n=d6 v=90
308520 Off ch=1 n=d6 v=80
308520 On ch=1 n=f#5 v=90
308580 Off ch=1 n=f#5 v=80
308640 On ch=1 n=f5 v=90
308700 Off ch=1 n=f5 v=80
308760 On ch=1 n=f6 v=90
308880 Off ch=1 n=f6 v=80
308880 On ch=1 n=d6 v=90
309000 Off ch=1 n=d6 v=80
309000 On ch=1 n=f5 v=90
309060 Off ch=1 n=f5 v=80
309120 On ch=1 n=e5 v=90
309180 Off ch=1 n=e5 v=80
309240 On ch=1 n=e6 v=90
309360 Off ch=1 n=e6 v=80
309360 On ch=1 n=d6 v=90
309480 Off ch=1 n=d6 v=80
309480 On ch=1 n=e5 v=90
309540 Off ch=1 n=e5 v=80
309600 On ch=1 n=f#5 v=90
309660 Off ch=1 n=f#5 v=80
309720 On ch=1 n=f#6 v=90
309840 Off ch=1 n=f#6 v=80
309840 On ch=1 n=d6 v=90
309960 Off ch=1 n=d6 v=80
309960 On ch=1 n=f#5 v=90
310020 Off ch=1 n=f#5 v=80
310080 On ch=1 n=d5 v=90
310140 Off ch=1 n=d5 v=80
310200 On ch=1 n=d6 v=90
310320 Off ch=1 n=d6 v=80
310320 On ch=1 n=a5 v=90
310440 Off ch=1 n=a5 v=80
310440 On ch=1 n=d5 v=90
310500 Off ch=1 n=d5 v=80
310560 On ch=1 n=a4 v=90
310620 Off ch=1 n=a4 v=80
310680 On ch=1 n=a5 v=90
310800 Off ch=1 n=a5 v=80
310800 On ch=1 n=f#5 v=90
310920 Off ch=1 n=f#5 v=80
310920 On ch=1 n=a4 v=90
310980 Off ch=1 n=a4 v=80
311040 On ch=1 n=a4 v=90
311100 Off ch=1 n=a4 v=80
311160 On ch=1 n=a5 v=90
311280 Off ch=1 n=a5 v=80
311280 On ch=1 n=e5 v=90
311400 Off ch=1 n=e5 v=80
311400 On ch=1 n=a4 v=90
311460 Off ch=1 n=a4 v=80
311520 On ch=1 n=a4 v=90
311580 Off ch=1 n=a4 v=80
311640 On ch=1 n=a5 v=90
311760 Off ch=1 n=a5 v=80
311760 On ch=1 n=d#5 v=90
311880 Off ch=1 n=d#5 v=80
311880 On ch=1 n=a4 v=90
311940 Off ch=1 n=a4 v=80
312000 On ch=1 n=g#4 v=90
312060 Off ch=1 n=g#4 v=80
312120 On ch=1 n=g#5 v=90
312240 Off ch=1 n=g#5 v=80
312240 On ch=1 n=d5 v=90
312360 Off ch=1 n=d5 v=80
312360 On ch=1 n=g#4 v=90
312420 Off ch=1 n=g#4 v=80
312480 On ch=1 n=g4 v=90
312540 Off ch=1 n=g4 v=80
312600 On ch=1 n=g5 v=90
312720 Off ch=1 n=g5 v=80
312720 On ch=1 n=d5 v=90
312840 Off ch=1 n=d5 v=80
312840 On ch=1 n=g4 v=90
312900 Off ch=1 n=g4 v=80
312960 On ch=1 n=f#4 v=90
313020 Off ch=1 n=f#4 v=80
313080 On ch=1 n=f#5 v=90
313200 Off ch=1 n=f#5 v=80
313200 On ch=1 n=d5 v=90
313320 Off ch=1 n=d5 v=80
313320 On ch=1 n=f#4 v=90
313380 Off ch=1 n=f#4 v=80
313440 On ch=1 n=f4 v=90
313500 Off ch=1 n=f4 v=80
313560 On ch=1 n=f5 v=90
313680 Off ch=1 n=f5 v=80
313680 On ch=1 n=d5 v=90
313800 Off ch=1 n=d5 v=80
313800 On ch=1 n=f4 v=90
313860 Off ch=1 n=f4 v=80
313920 On ch=1 n=e4 v=90
313980 Off ch=1 n=e4 v=80
314040 On ch=1 n=e5 v=90
314160 Off ch=1 n=e5 v=80
314160 On ch=1 n=c#5 v=90
314280 Off ch=1 n=c#5 v=80
314280 On ch=1 n=e4 v=90
314340 Off ch=1 n=e4 v=80
314880 On ch=1 n=a5 v=90
314940 Off ch=1 n=a5 v=80
315000 On ch=1 n=a6 v=90
315120 Off ch=1 n=a6 v=80
315120 On ch=1 n=f#6 v=90
315240 Off ch=1 n=f#6 v=80
315240 On ch=1 n=a5 v=90
315300 Off ch=1 n=a5 v=80
315360 On ch=1 n=b5 v=90
315420 Off ch=1 n=b5 v=80
315480 On ch=1 n=b6 v=90
315600 Off ch=1 n=b6 v=80
315600 On ch=1 n=f#6 v=90
315720 Off ch=1 n=f#6 v=80
315720 On ch=1 n=b5 v=90
315780 Off ch=1 n=b5 v=80
315840 On ch=1 n=a5 v=90
315900 Off ch=1 n=a5 v=80
315960 On ch=1 n=a6 v=90
316080 Off ch=1 n=a6 v=80
316080 On ch=1 n=f#6 v=90
316200 Off ch=1 n=f#6 v=80
316200 On ch=1 n=a5 v=90
316260 Off ch=1 n=a5 v=80
316320 On ch=1 n=f#5 v=90
316380 Off ch=1 n=f#5 v=80
316440 On ch=1 n=f#6 v=90
316560 Off ch=1 n=f#6 v=80
316560 On ch=1 n=c#6 v=90
316680 Off ch=1 n=c#6 v=80
316680 On ch=1 n=f#5 v=90
316740 Off ch=1 n=f#5 v=80
316800 On ch=1 n=g#5 v=90
316860 Off ch=1 n=g#5 v=80
316920 On ch=1 n=g#6 v=90
317040 Off ch=1 n=g#6 v=80
317040 On ch=1 n=d6 v=90
317160 Off ch=1 n=d6 v=80
317160 On ch=1 n=g#5 v=90
317220 Off ch=1 n=g#5 v=80
317280 On ch=1 n=a5 v=90
317340 Off ch=1 n=a5 v=80
317400 On ch=1 n=a6 v=90
317520 Off ch=1 n=a6 v=80
317520 On ch=1 n=f6 v=90
317640 Off ch=1 n=f6 v=80
317640 On ch=1 n=a5 v=90
317700 Off ch=1 n=a5 v=80
317760 On ch=1 n=f#5 v=90
317820 Off ch=1 n=f#5 v=80
317880 On ch=1 n=f#6 v=90
318000 Off ch=1 n=f#6 v=80
318000 On ch=1 n=c#6 v=90
318120 Off ch=1 n=c#6 v=80
318120 On ch=1 n=f#5 v=90
318180 Off ch=1 n=f#5 v=80
318720 On ch=1 n=c#6 v=90
318780 Off ch=1 n=c#6 v=80
318840 On ch=1 n=c#7 v=90
318960 Off ch=1 n=c#7 v=80
318960 On ch=1 n=a6 v=90
319080 Off ch=1 n=a6 v=80
319080 On ch=1 n=c#6 v=90
319140 Off ch=1 n=c#6 v=80
319200 On ch=1 n=d6 v=90
319260 Off ch=1 n=d6 v=80
319320 On ch=1 n=d7 v=90
319440 Off ch=1 n=d7 v=80
319440 On ch=1 n=a6 v=90
319560 Off ch=1 n=a6 v=80
319560 On ch=1 n=d6 v=90
319620 Off ch=1 n=d6 v=80
319680 On ch=1 n=c#6 v=90
319740 Off ch=1 n=c#6 v=80
319800 On ch=1 n=c#7 v=90
319920 Off ch=1 n=c#7 v=80
319920 On ch=1 n=a6 v=90
320040 Off ch=1 n=a6 v=80
320040 On ch=1 n=c#6 v=90
320100 Off ch=1 n=c#6 v=80
320160 On ch=1 n=a5 v=90
320220 Off ch=1 n=a5 v=80
320280 On ch=1 n=a6 v=90
320400 Off ch=1 n=a6 v=80
320400 On ch=1 n=e6 v=90
320520 Off ch=1 n=e6 v=80
320520 On ch=1 n=a5 v=90
320580 Off ch=1 n=a5 v=80
320640 On ch=1 n=b5 v=90
320700 Off ch=1 n=b5 v=80
320760 On ch=1 n=b6 v=90
320880 Off ch=1 n=b6 v=80
320880 On ch=1 n=f#6 v=90
321000 Off ch=1 n=f#6 v=80
321000 On ch=1 n=b5 v=90
321060 Off ch=1 n=b5 v=80
321120 On ch=1 n=c#6 v=90
321180 Off ch=1 n=c#6 v=80
321240 On ch=1 n=c#7 v=90
321360 Off ch=1 n=c#7 v=80
321360 On ch=1 n=g#6 v=90
321480 Off ch=1 n=g#6 v=80
321480 On ch=1 n=c#6 v=90
321540 Off ch=1 n=c#6 v=80
321600 On ch=1 n=a5 v=90
321660 Off ch=1 n=a5 v=80
321720 On ch=1 n=a6 v=90
321840 Off ch=1 n=a6 v=80
321840 On ch=1 n=e6 v=90
321960 Off ch=1 n=e6 v=80
321960 On ch=1 n=a5 v=90
322020 Off ch=1 n=a5 v=80
322560 On ch=1 n=c5 v=78
322680 On ch=1 n=a5 v=63
322800 Off ch=1 n=a5 v=80
322800 Off ch=1 n=c5 v=80
322800 On ch=1 n=f#5 v=63
322920 Off ch=1 n=f#5 v=80
322920 On ch=1 n=c5 v=78
323040 Off ch=1 n=c5 v=80
323040 On ch=1 n=c5 v=86
323160 On ch=1 n=b5 v=63
323280 Off ch=1 n=b5 v=80
323280 Off ch=1 n=c5 v=80
323280 On ch=1 n=f#5 v=63
323400 Off ch=1 n=f#5 v=80
323400 On ch=1 n=d5 v=86
323520 Off ch=1 n=d5 v=80
323520 On ch=1 n=e5 v=105
323640 On ch=1 n=c6 v=94
323760 Off ch=1 n=c6 v=80
323760 On ch=1 n=f#5 v=94
323880 Off ch=1 n=e5 v=80
323880 Off ch=1 n=f#5 v=80
323880 On ch=1 n=e5 v=94
324000 Off ch=1 n=e5 v=80
324000 On ch=1 n=d5 v=102
324120 On ch=1 n=b5 v=102
324240 Off ch=1 n=b5 v=80
324240 Off ch=1 n=d5 v=80
324240 On ch=1 n=f#5 v=102
324360 Off ch=1 n=f#5 v=80
324360 On ch=1 n=c5 v=102
324480 Off ch=1 n=c5 v=80
324480 On ch=1 n=b4 v=78
324600 On ch=1 n=g5 v=63
324720 Off ch=1 n=g5 v=80
324720 Off ch=1 n=b4 v=80
324720 On ch=1 n=f#5 v=63
324840 Off ch=1 n=f#5 v=80
324840 On ch=1 n=b4 v=78
324960 Off ch=1 n=b4 v=80
324960 On ch=1 n=g4 v=78
325080 On ch=1 n=e5 v=63
325200 Off ch=1 n=e5 v=80
325200 Off ch=1 n=g4 v=80
325200 On ch=1 n=b4 v=63
325320 Off ch=1 n=b4 v=80
325320 On ch=1 n=g4 v=78
325440 Off ch=1 n=g4 v=80
325440 On ch=1 n=a4 v=78
325560 On ch=1 n=f#5 v=63
325680 Off ch=1 n=f#5 v=80
325680 Off ch=1 n=a4 v=80
325680 On ch=1 n=e5 v=63
325800 Off ch=1 n=e5 v=80
325800 On ch=1 n=a4 v=78
325920 Off ch=1 n=a4 v=80
325920 On ch=1 n=f#4 v=78
326040 On ch=1 n=d5 v=63
326160 Off ch=1 n=d5 v=80
326160 Off ch=1 n=f#4 v=80
326160 On ch=1 n=a4 v=63
326280 Off ch=1 n=a4 v=80
326280 On ch=1 n=f#4 v=78
326400 Off ch=1 n=f#4 v=80
326400 On ch=1 n=g4 v=78
326520 On ch=1 n=e5 v=63
326640 Off ch=1 n=e5 v=80
326640 Off ch=1 n=g4 v=80
326640 On ch=1 n=d5 v=63
326760 Off ch=1 n=d5 v=80
326760 On ch=1 n=g4 v=78
326880 Off ch=1 n=g4 v=80
326880 On ch=1 n=g4 v=86
327000 On ch=1 n=f#5 v=63
327120 Off ch=1 n=f#5 v=80
327120 Off ch=1 n=g4 v=80
327120 On ch=1 n=d5 v=63
327240 Off ch=1 n=d5 v=80
327240 On ch=1 n=a4 v=86
327360 Off ch=1 n=a4 v=80
327360 On ch=1 n=b4 v=105
327480 On ch=1 n=g5 v=94
327600 Off ch=1 n=g5 v=80
327600 On ch=1 n=d5 v=94
327720 Off ch=1 n=b4 v=80
327720 Off ch=1 n=d5 v=80
327720 On ch=1 n=b4 v=94
327840 Off ch=1 n=b4 v=80
327840 On ch=1 n=a4 v=102
327960 On ch=1 n=f#5 v=102
328080 Off ch=1 n=f#5 v=80
328080 Off ch=1 n=a4 v=80
328080 On ch=1 n=d5 v=102
328200 Off ch=1 n=d5 v=80
328200 On ch=1 n=g4 v=102
328320 Off ch=1 n=g4 v=80
328320 On ch=1 n=g4 v=78
328440 On ch=1 n=e5 v=63
328560 Off ch=1 n=e5 v=80
328560 Off ch=1 n=g4 v=80
328560 On ch=1 n=c#5 v=63
328680 Off ch=1 n=c#5 v=80
328680 On ch=1 n=g4 v=78
328800 Off ch=1 n=g4 v=80
328800 On ch=1 n=a4 v=78
328920 On ch=1 n=f5 v=63
329040 Off ch=1 n=f5 v=80
329040 Off ch=1 n=a4 v=80
329040 On ch=1 n=c#5 v=63
329160 Off ch=1 n=c#5 v=80
329160 On ch=1 n=a4 v=78
329280 Off ch=1 n=a4 v=80
329280 On ch=1 n=f#4 v=78
329400 On ch=1 n=d5 v=63
329520 Off ch=1 n=d5 v=80
329520 Off ch=1 n=f#4 v=80
329520 On ch=1 n=b4 v=63
329640 Off ch=1 n=b4 v=80
329640 On ch=1 n=f#4 v=78
329760 Off ch=1 n=f#4 v=80
329760 On ch=1 n=g4 v=78
329880 On ch=1 n=e5 v=63
330000 Off ch=1 n=e5 v=80
330000 Off ch=1 n=g4 v=80
330000 On ch=1 n=b4 v=63
330120 Off ch=1 n=b4 v=80
330120 On ch=1 n=g4 v=78
330240 Off ch=1 n=g4 v=80
330240 On ch=1 n=e4 v=78
330360 On ch=1 n=c#5 v=78
330480 Off ch=1 n=c#5 v=80
330480 On ch=1 n=a4 v=78
330600 Off ch=1 n=a4 v=80
330600 On ch=1 n=a#4 v=78
330720 Off ch=1 n=e4 v=80
330720 Off ch=1 n=a#4 v=80
330720 On ch=1 n=a4 v=86
330840 On ch=1 n=f#5 v=86
330960 Off ch=1 n=f#5 v=80
330960 On ch=1 n=d5 v=86
331080 Off ch=1 n=d5 v=80
331080 On ch=1 n=d#5 v=86
331200 Off ch=1 n=a4 v=80
331200 Off ch=1 n=d#5 v=80
331200 On ch=1 n=d5 v=94
331320 On ch=1 n=b5 v=94
331440 Off ch=1 n=b5 v=80
331440 On ch=1 n=g5 v=94
331560 Off ch=1 n=g5 v=80
331560 On ch=1 n=g#5 v=94
331680 Off ch=1 n=d5 v=80
331680 Off ch=1 n=g#5 v=80
331680 On ch=1 n=g5 v=102
331800 On ch=1 n=e6 v=102
331920 Off ch=1 n=e6 v=80
331920 On ch=1 n=c6 v=102
332040 Off ch=1 n=c6 v=80
332040 On ch=1 n=c#6 v=102
332160 Off ch=1 n=g5 v=80
332160 Off ch=1 n=c#6 v=80
332160 On ch=1 n=f#5 v=78
332280 On ch=1 n=f#6 v=78
332400 On ch=1 n=d6 v=78
332408 Off ch=1 n=f#6 v=80
332408 Off ch=1 n=f#5 v=80
332520 On ch=1 n=f#5 v=78
332528 Off ch=1 n=d6 v=80
332640 On ch=1 n=b5 v=120
332648 Off ch=1 n=f#5 v=80
332760 On ch=1 n=b6 v=78
332880 Off ch=1 n=b5 v=80
332880 Off ch=1 n=b6 v=80
332880 On ch=1 n=g6 v=78
333000 Off ch=1 n=g6 v=80
333000 On ch=1 n=b5 v=102
333120 Off ch=1 n=b5 v=80
333120 On ch=1 n=a5 v=78
333240 On ch=1 n=a6 v=63
333360 On ch=1 n=f#6 v=63
333368 Off ch=1 n=a6 v=80
333368 Off ch=1 n=a5 v=80
333480 On ch=1 n=a5 v=102
333488 Off ch=1 n=f#6 v=80
333600 On ch=1 n=a5 v=78
333608 Off ch=1 n=a5 v=80
333720 On ch=1 n=a6 v=63
333840 Off ch=1 n=a5 v=80
333840 Off ch=1 n=a6 v=80
333840 On ch=1 n=e6 v=63
333960 Off ch=1 n=e6 v=80
333960 On ch=1 n=a5 v=102
334080 Off ch=1 n=a5 v=80
334080 On ch=1 n=c6 v=65
334200 On ch=1 n=a6 v=51
334320 Off ch=1 n=a6 v=80
334320 Off ch=1 n=c6 v=80
334320 On ch=1 n=f#6 v=51
334440 Off ch=1 n=f#6 v=80
334440 On ch=1 n=c6 v=65
334560 Off ch=1 n=c6 v=80
334560 On ch=1 n=c6 v=78
334680 On ch=1 n=b6 v=63
334800 Off ch=1 n=b6 v=80
334800 Off ch=1 n=c6 v=80
334800 On ch=1 n=f#6 v=63
334920 Off ch=1 n=f#6 v=80
334920 On ch=1 n=d6 v=78
335040 Off ch=1 n=d6 v=80
335040 On ch=1 n=e6 v=100
335160 On ch=1 n=c7 v=75
335280 Off ch=1 n=c7 v=80
335280 On ch=1 n=f#6 v=75
335400 Off ch=1 n=e6 v=80
335400 Off ch=1 n=f#6 v=80
335400 On ch=1 n=e6 v=90
335520 Off ch=1 n=e6 v=80
335520 On ch=1 n=d6 v=90
335640 On ch=1 n=b6 v=75
335760 Off ch=1 n=b6 v=80
335760 Off ch=1 n=d6 v=80
335760 On ch=1 n=f#6 v=75
335880 Off ch=1 n=f#6 v=80
335880 On ch=1 n=c6 v=90
336000 Off ch=1 n=c6 v=80
336000 On ch=1 n=b5 v=65
336120 On ch=1 n=g6 v=51
336240 Off ch=1 n=g6 v=80
336240 Off ch=1 n=b5 v=80
336240 On ch=1 n=f#6 v=51
336360 Off ch=1 n=f#6 v=80
336360 On ch=1 n=b5 v=65
336480 Off ch=1 n=b5 v=80
336480 On ch=1 n=g5 v=65
336600 On ch=1 n=e6 v=51
336720 Off ch=1 n=e6 v=80
336720 Off ch=1 n=g5 v=80
336720 On ch=1 n=b5 v=51
336840 Off ch=1 n=b5 v=80
336840 On ch=1 n=g5 v=65
336960 Off ch=1 n=g5 v=80
336960 On ch=1 n=a5 v=65
337080 On ch=1 n=f#6 v=51
337200 Off ch=1 n=f#6 v=80
337200 Off ch=1 n=a5 v=80
337200 On ch=1 n=e6 v=51
337320 Off ch=1 n=e6 v=80
337320 On ch=1 n=a5 v=65
337440 Off ch=1 n=a5 v=80
337440 On ch=1 n=f#5 v=65
337560 On ch=1 n=d6 v=51
337680 Off ch=1 n=d6 v=80
337680 Off ch=1 n=f#5 v=80
337680 On ch=1 n=a5 v=51
337800 Off ch=1 n=a5 v=80
337800 On ch=1 n=f#5 v=65
337920 Off ch=1 n=f#5 v=80
337920 On ch=1 n=g5 v=65
338040 On ch=1 n=e6 v=51
338160 Off ch=1 n=e6 v=80
338160 Off ch=1 n=g5 v=80
338160 On ch=1 n=d6 v=51
338280 Off ch=1 n=d6 v=80
338280 On ch=1 n=g5 v=65
338400 Off ch=1 n=g5 v=80
338400 On ch=1 n=g5 v=78
338520 On ch=1 n=f#6 v=63
338640 Off ch=1 n=f#6 v=80
338640 Off ch=1 n=g5 v=80
338640 On ch=1 n=d6 v=63
338760 Off ch=1 n=d6 v=80
338760 On ch=1 n=a5 v=78
338880 Off ch=1 n=a5 v=80
338880 On ch=1 n=b5 v=100
339000 On ch=1 n=g6 v=75
339120 Off ch=1 n=g6 v=80
339120 Off ch=1 n=b5 v=80
339120 On ch=1 n=d6 v=75
339240 Off ch=1 n=d6 v=80
339240 On ch=1 n=b5 v=90
339360 Off ch=1 n=b5 v=80
339360 On ch=1 n=a5 v=90
339480 On ch=1 n=f#6 v=75
339600 Off ch=1 n=f#6 v=80
339600 Off ch=1 n=a5 v=80
339600 On ch=1 n=d6 v=75
339720 Off ch=1 n=d6 v=80
339720 On ch=1 n=g5 v=90
339840 Off ch=1 n=g5 v=80
339840 On ch=1 n=g5 v=65
339960 On ch=1 n=e6 v=51
340080 Off ch=1 n=e6 v=80
340080 Off ch=1 n=g5 v=80
340080 On ch=1 n=c#6 v=51
340200 Off ch=1 n=c#6 v=80
340200 On ch=1 n=g5 v=65
340320 Off ch=1 n=g5 v=80
340320 On ch=1 n=a5 v=65
340440 On ch=1 n=f6 v=51
340560 Off ch=1 n=f6 v=80
340560 Off ch=1 n=a5 v=80
340560 On ch=1 n=c#6 v=51
340680 Off ch=1 n=c#6 v=80
340680 On ch=1 n=a5 v=65
340800 Off ch=1 n=a5 v=80
340800 On ch=1 n=f#5 v=65
340920 On ch=1 n=d6 v=51
341040 Off ch=1 n=d6 v=80
341040 Off ch=1 n=f#5 v=80
341040 On ch=1 n=b5 v=51
341160 Off ch=1 n=b5 v=80
341160 On ch=1 n=f#5 v=65
341280 Off ch=1 n=f#5 v=80
341280 On ch=1 n=g5 v=65
341400 On ch=1 n=e6 v=51
341520 Off ch=1 n=e6 v=80
341520 Off ch=1 n=g5 v=80
341520 On ch=1 n=b5 v=51
341640 Off ch=1 n=b5 v=80
341640 On ch=1 n=g5 v=65
341760 Off ch=1 n=g5 v=80
341760 On ch=1 n=e5 v=65
341880 On ch=1 n=c#6 v=65
342000 Off ch=1 n=c#6 v=80
342000 On ch=1 n=a5 v=65
342120 Off ch=1 n=a5 v=80
342120 On ch=1 n=a#5 v=65
342240 Off ch=1 n=e5 v=80
342240 Off ch=1 n=a#5 v=80
342240 On ch=1 n=a5 v=71
342360 On ch=1 n=f#6 v=71
342480 Off ch=1 n=f#6 v=80
342480 On ch=1 n=d6 v=71
342600 Off ch=1 n=d6 v=80
342600 On ch=1 n=d#6 v=71
342720 Off ch=1 n=a5 v=80
342720 Off ch=1 n=d#6 v=80
342720 On ch=1 n=d6 v=77
342840 On ch=1 n=b6 v=77
342960 Off ch=1 n=b6 v=80
342960 On ch=1 n=g6 v=77
343080 Off ch=1 n=g6 v=80
343080 On ch=1 n=g#6 v=77
343200 Off ch=1 n=d6 v=80
343200 Off ch=1 n=g#6 v=80
343200 On ch=1 n=g6 v=83
343320 On ch=1 n=e7 v=83
343440 Off ch=1 n=e7 v=80
343440 On ch=1 n=c7 v=83
343560 Off ch=1 n=c7 v=80
343560 On ch=1 n=c#7 v=83
343680 Off ch=1 n=g6 v=80
343680 Off ch=1 n=c#7 v=80
343680 On ch=1 n=f#6 v=90
343800 On ch=1 n=f#7 v=72
343920 On ch=1 n=d7 v=72
343928 Off ch=1 n=f#7 v=80
343928 Off ch=1 n=f#6 v=80
344040 On ch=1 n=f#6 v=90
344048 Off ch=1 n=d7 v=80
344160 On ch=1 n=b6 v=90
344168 Off ch=1 n=f#6 v=80
344280 On ch=1 n=b7 v=120
344400 Off ch=1 n=b6 v=80
344400 Off ch=1 n=b7 v=80
344400 On ch=1 n=g7 v=72
344520 Off ch=1 n=g7 v=80
344520 On ch=1 n=b6 v=90
344640 Off ch=1 n=b6 v=80
344640 On ch=1 n=a6 v=90
344760 On ch=1 n=a7 v=72
344880 On ch=1 n=f#7 v=72
344888 Off ch=1 n=a7 v=80
344888 Off ch=1 n=a6 v=80
345000 On ch=1 n=a6 v=90
345008 Off ch=1 n=f#7 v=80
345120 On ch=1 n=a6 v=90
345128 Off ch=1 n=a6 v=80
345240 On ch=1 n=a7 v=72
345360 Off ch=1 n=a6 v=80
345360 Off ch=1 n=a7 v=80
345360 On ch=1 n=e7 v=72
345480 Off ch=1 n=e7 v=80
345480 On ch=1 n=a6 v=90
345600 Off ch=1 n=a6 v=80
345600 On ch=1 n=f#6 v=114
345720 On ch=1 n=f#7 v=90
345840 Off ch=1 n=f#7 v=80
345840 Off ch=1 n=f#6 v=80
345840 On ch=1 n=d7 v=90
345960 Off ch=1 n=d7 v=80
345960 On ch=1 n=f#6 v=90
346080 Off ch=1 n=f#6 v=80
346080 On ch=1 n=g6 v=114
346200 On ch=1 n=g7 v=90
346320 Off ch=1 n=g7 v=80
346320 Off ch=1 n=g6 v=80
346320 On ch=1 n=d7 v=90
346440 Off ch=1 n=d7 v=80
346440 On ch=1 n=g6 v=90
346560 Off ch=1 n=g6 v=80
346560 On ch=1 n=f#6 v=114
346680 On ch=1 n=f#7 v=90
346800 Off ch=1 n=f#7 v=80
346800 Off ch=1 n=f#6 v=80
346800 On ch=1 n=d7 v=90
346920 Off ch=1 n=d7 v=80
346920 On ch=1 n=f#6 v=90
347040 Off ch=1 n=f#6 v=80
347040 On ch=1 n=f6 v=114
347160 On ch=1 n=f7 v=90
347280 Off ch=1 n=f7 v=80
347280 Off ch=1 n=f6 v=80
347280 On ch=1 n=d7 v=90
347400 Off ch=1 n=d7 v=80
347400 On ch=1 n=f6 v=90
347520 Off ch=1 n=f6 v=80
347520 On ch=1 n=f#6 v=114
347640 On ch=1 n=f#7 v=90
347760 Off ch=1 n=f#7 v=80
347760 Off ch=1 n=f#6 v=80
347760 On ch=1 n=d7 v=90
347880 Off ch=1 n=d7 v=80
347880 On ch=1 n=f#6 v=90
348000 Off ch=1 n=f#6 v=80
348000 On ch=1 n=d6 v=114
348120 On ch=1 n=d7 v=90
348240 Off ch=1 n=d7 v=80
348240 Off ch=1 n=d6 v=80
348240 On ch=1 n=a6 v=90
348360 Off ch=1 n=a6 v=80
348360 On ch=1 n=d6 v=90
348480 Off ch=1 n=d6 v=80
348480 On ch=1 n=a5 v=114
348600 On ch=1 n=a6 v=90
348720 Off ch=1 n=a6 v=80
348720 Off ch=1 n=a5 v=80
348720 On ch=1 n=f#6 v=90
348840 Off ch=1 n=f#6 v=80
348840 On ch=1 n=a5 v=90
348960 Off ch=1 n=a5 v=80
348960 On ch=1 n=g5 v=114
349080 On ch=1 n=g6 v=90
349200 Off ch=1 n=g6 v=80
349200 Off ch=1 n=g5 v=80
349200 On ch=1 n=d6 v=90
349320 Off ch=1 n=d6 v=80
349320 On ch=1 n=g5 v=90
349440 Off ch=1 n=g5 v=80
349440 On ch=1 n=f#5 v=115
349560 On ch=1 n=f#6 v=90
349680 Off ch=1 n=f#6 v=80
349680 Off ch=1 n=f#5 v=80
349680 On ch=1 n=d6 v=90
349800 Off ch=1 n=d6 v=80
349800 On ch=1 n=f#5 v=90
349920 Off ch=1 n=f#5 v=80
349920 On ch=1 n=g5 v=114
350040 On ch=1 n=g6 v=90
350160 Off ch=1 n=g6 v=80
350160 Off ch=1 n=g5 v=80
350160 On ch=1 n=d6 v=90
350280 Off ch=1 n=d6 v=80
350280 On ch=1 n=g5 v=90
350400 Off ch=1 n=g5 v=80
350400 On ch=1 n=f#5 v=114
350520 On ch=1 n=f#6 v=90
350640 Off ch=1 n=f#6 v=80
350640 Off ch=1 n=f#5 v=80
350640 On ch=1 n=d6 v=90
350760 Off ch=1 n=d6 v=80
350760 On ch=1 n=f#5 v=90
350880 Off ch=1 n=f#5 v=80
350880 On ch=1 n=f5 v=114
351000 On ch=1 n=f6 v=90
351120 Off ch=1 n=f6 v=80
351120 Off ch=1 n=f5 v=80
351120 On ch=1 n=d6 v=90
351240 Off ch=1 n=d6 v=80
351240 On ch=1 n=f5 v=90
351360 Off ch=1 n=f5 v=80
351360 On ch=1 n=f#5 v=114
351480 On ch=1 n=f#6 v=90
351600 Off ch=1 n=f#6 v=80
351600 Off ch=1 n=f#5 v=80
351600 On ch=1 n=d6 v=90
351720 Off ch=1 n=d6 v=80
351720 On ch=1 n=f#5 v=90
351840 Off ch=1 n=f#5 v=80
351840 On ch=1 n=d5 v=114
351960 On ch=1 n=d6 v=90
352080 Off ch=1 n=d6 v=80
352080 Off ch=1 n=d5 v=80
352080 On ch=1 n=a5 v=90
352200 Off ch=1 n=a5 v=80
352200 On ch=1 n=d5 v=90
352320 Off ch=1 n=d5 v=80
352320 On ch=1 n=a4 v=114
352440 On ch=1 n=a5 v=90
352560 Off ch=1 n=a5 v=80
352560 Off ch=1 n=a4 v=80
352560 On ch=1 n=f#5 v=90
352680 Off ch=1 n=f#5 v=80
352680 On ch=1 n=a4 v=90
352800 Off ch=1 n=a4 v=80
352800 On ch=1 n=g4 v=114
352920 On ch=1 n=g5 v=90
353040 Off ch=1 n=g5 v=80
353040 Off ch=1 n=g4 v=80
353040 On ch=1 n=d5 v=90
353160 Off ch=1 n=d5 v=80
353160 On ch=1 n=g4 v=90
353280 Off ch=1 n=g4 v=80
353280 On ch=1 n=f#4 v=127
353400 Off ch=1 n=f#4 v=80
353400 On ch=1 n=f#5 v=102
353520 Off ch=1 n=f#5 v=80
353520 On ch=1 n=d5 v=102
353640 Off ch=1 n=d5 v=80
353640 On ch=1 n=f#4 v=102
353760 Off ch=1 n=f#4 v=80
353760 On ch=1 n=f#4 v=102
353880 Off ch=1 n=f#4 v=80
353880 On ch=1 n=f#5 v=102
354000 Off ch=1 n=f#5 v=80
354000 On ch=1 n=d5 v=102
354120 Off ch=1 n=d5 v=80
354120 On ch=1 n=f#4 v=102
354240 Off ch=1 n=f#4 v=80
354240 On ch=1 n=f#5 v=127
354360 Off ch=1 n=f#5 v=80
354360 On ch=1 n=f#6 v=102
354480 Off ch=1 n=f#6 v=80
354480 On ch=1 n=d6 v=102
354600 Off ch=1 n=d6 v=80
354600 On ch=1 n=f#5 v=102
354720 Off ch=1 n=f#5 v=80
354720 On ch=1 n=f#5 v=102
354840 Off ch=1 n=f#5 v=80
354840 On ch=1 n=f#6 v=102
354960 Off ch=1 n=f#6 v=80
354960 On ch=1 n=d6 v=102
355080 Off ch=1 n=d6 v=80
355080 On ch=1 n=f#5 v=102
355200 Off ch=1 n=f#5 v=80
355200 On ch=1 n=f#6 v=127
355200 On ch=1 n=d7 v=127
355200 On ch=1 n=f#7 v=127
355680 Off ch=1 n=f#7 v=80
355680 Off ch=1 n=d7 v=80
355680 Off ch=1 n=f#6 v=80
356160 On ch=1 n=d6 v=114
356160 On ch=1 n=a5 v=114
356160 On ch=1 n=d5 v=114
356280 Off ch=1 n=d5 v=80
356280 Off ch=1 n=a5 v=80
356280 Off ch=1 n=d6 v=80
356640 On ch=1 n=d5 v=114
356640 On ch=1 n=a5 v=114
356640 On ch=1 n=d6 v=114
356760 Off ch=1 n=d6 v=80
356760 Off ch=1 n=a5 v=80
356760 Off ch=1 n=d5 v=80
357120 On ch=1 n=d6 v=114
357120 On ch=1 n=a5 v=114
357120 On ch=1 n=d5 v=114
359040 Off ch=1 n=d5 v=80
359040 Off ch=1 n=a5 v=80
359040 Off ch=1 n=d6 v=80
359040 Meta TrkEnd
TrkEnd
MTrk
0 Meta TrkName "Piano L Hand"
0 Meta 0x21 00
0 Meta 0x20 00
0 Par ch=1 c=10 v=64
0 PrCh ch=1 p=0
0 On ch=1 n=d4 v=127
0 On ch=1 n=d3 v=127
420 On ch=1 n=a#4 v=114
450 On ch=1 n=d5 v=114
480 Off ch=1 n=d3 v=80
480 Off ch=1 n=d4 v=80
480 On ch=1 n=a#5 v=114
720 Off ch=1 n=a#4 v=80
720 Off ch=1 n=d5 v=80
720 Off ch=1 n=a#5 v=80
900 On ch=1 n=a4 v=114
930 On ch=1 n=d5 v=114
960 On ch=1 n=a5 v=114
1200 Off ch=1 n=a5 v=80
1200 Off ch=1 n=d5 v=80
1200 Off ch=1 n=a4 v=80
1380 On ch=1 n=g#4 v=114
1410 On ch=1 n=d5 v=114
1440 On ch=1 n=g#5 v=114
1680 Off ch=1 n=g#5 v=80
1680 Off ch=1 n=d5 v=80
1680 Off ch=1 n=g#4 v=80
1860 On ch=1 n=g4 v=114
1890 On ch=1 n=d5 v=114
1920 On ch=1 n=g5 v=114
2160 Off ch=1 n=g5 v=80
2160 Off ch=1 n=d5 v=80
2160 Off ch=1 n=g4 v=80
2340 On ch=1 n=a4 v=114
2370 On ch=1 n=c#5 v=114
2400 On ch=1 n=a5 v=114
2640 Off ch=1 n=a5 v=80
2640 Off ch=1 n=c#5 v=80
2640 Off ch=1 n=a4 v=80
2820 On ch=1 n=f#4 v=114
2850 On ch=1 n=a4 v=114
2880 On ch=1 n=f#5 v=114
3120 Off ch=1 n=f#5 v=80
3120 Off ch=1 n=a4 v=80
3120 Off ch=1 n=f#4 v=80
3300 On ch=1 n=d4 v=114
3330 On ch=1 n=f#4 v=114
3360 On ch=1 n=d5 v=114
3600 Off ch=1 n=d5 v=80
3600 Off ch=1 n=f#4 v=80
3600 Off ch=1 n=d4 v=80
3780 On ch=1 n=c#4 v=114
3810 On ch=1 n=e4 v=114
3840 On ch=1 n=c#5 v=114
4080 Off ch=1 n=c#5 v=80
4080 Off ch=1 n=e4 v=80
4080 Off ch=1 n=c#4 v=80
4260 On ch=1 n=c4 v=114
4290 On ch=1 n=d#4 v=114
4320 On ch=1 n=c5 v=114
4560 Off ch=1 n=c5 v=80
4560 Off ch=1 n=d#4 v=80
4560 Off ch=1 n=c4 v=80
4740 On ch=1 n=b3 v=114
4770 On ch=1 n=d4 v=114
4800 On ch=1 n=b4 v=114
5040 Off ch=1 n=b4 v=80
5040 Off ch=1 n=d4 v=80
5040 Off ch=1 n=b3 v=80
5220 On ch=1 n=a#3 v=114
5250 On ch=1 n=d4 v=114
5280 On ch=1 n=a#4 v=114
5520 Off ch=1 n=a#4 v=80
5520 Off ch=1 n=d4 v=80
5520 Off ch=1 n=a#3 v=80
5700 On ch=1 n=a3 v=114
5730 On ch=1 n=d4 v=114
5760 On ch=1 n=a4 v=114
6000 Off ch=1 n=a4 v=80
6000 Off ch=1 n=d4 v=80
6000 Off ch=1 n=a3 v=80
6180 On ch=1 n=g#3 v=114
6210 On ch=1 n=d4 v=114
6240 On ch=1 n=g#4 v=114
6480 Off ch=1 n=g#4 v=80
6480 Off ch=1 n=d4 v=80
6480 Off ch=1 n=g#3 v=80
6660 On ch=1 n=a3 v=114
6690 On ch=1 n=c#4 v=114
6720 On ch=1 n=a4 v=114
6960 Off ch=1 n=a4 v=80
6960 Off ch=1 n=c#4 v=80
6960 Off ch=1 n=a3 v=80
7200 On ch=1 n=a3 v=102
7200 On ch=1 n=a2 v=102
7320 Off ch=1 n=a2 v=80
7320 Off ch=1 n=a3 v=80
7440 On ch=1 n=g#3 v=114
7440 On ch=1 n=g#2 v=114
7560 Off ch=1 n=g#2 v=80
7560 Off ch=1 n=g#3 v=80
7680 On ch=1 n=f#3 v=127
7680 On ch=1 n=f#2 v=127
8100 Off ch=1 n=f#2 v=80
8100 Off ch=1 n=f#3 v=80
8100 On ch=1 n=d5 v=114
8130 On ch=1 n=f#5 v=114
8160 On ch=1 n=d6 v=114
8400 Off ch=1 n=d6 v=80
8400 Off ch=1 n=f#5 v=80
8400 Off ch=1 n=d5 v=80
8580 On ch=1 n=c#5 v=114
8610 On ch=1 n=f#5 v=114
8640 On ch=1 n=c#6 v=114
8880 Off ch=1 n=c#6 v=80
8880 Off ch=1 n=f#5 v=80
8880 Off ch=1 n=c#5 v=80
9060 On ch=1 n=a4 v=114
9090 On ch=1 n=c#5 v=114
9120 On ch=1 n=a5 v=114
9360 Off ch=1 n=a5 v=80
9360 Off ch=1 n=c#5 v=80
9360 Off ch=1 n=a4 v=80
9540 On ch=1 n=b4 v=114
9570 On ch=1 n=d5 v=114
9600 On ch=1 n=b5 v=114
9840 Off ch=1 n=b5 v=80
9840 Off ch=1 n=d5 v=80
9840 Off ch=1 n=b4 v=80
10020 On ch=1 n=c#5 v=114
10050 On ch=1 n=f5 v=114
10080 On ch=1 n=c#6 v=114
10320 Off ch=1 n=c#6 v=80
10320 Off ch=1 n=f5 v=80
10320 Off ch=1 n=c#5 v=80
10500 On ch=1 n=a4 v=114
10530 On ch=1 n=c#5 v=114
10560 On ch=1 n=a5 v=114
10800 Off ch=1 n=a5 v=80
10800 Off ch=1 n=c#5 v=80
10800 Off ch=1 n=a4 v=80
11040 On ch=1 n=f#3 v=102
11040 On ch=1 n=f#2 v=102
11160 Off ch=1 n=f#2 v=80
11160 Off ch=1 n=f#3 v=80
11280 On ch=1 n=f3 v=114
11280 On ch=1 n=f2 v=114
11400 Off ch=1 n=f2 v=80
11400 Off ch=1 n=f3 v=80
11520 On ch=1 n=e2 v=127
11520 On ch=1 n=e3 v=127
11940 Off ch=1 n=e3 v=80
11940 Off ch=1 n=e2 v=80
11940 On ch=1 n=f#5 v=114
11970 On ch=1 n=a5 v=114
12000 On ch=1 n=f#6 v=114
12240 Off ch=1 n=f#6 v=80
12240 Off ch=1 n=a5 v=80
12240 Off ch=1 n=f#5 v=80
12420 On ch=1 n=e5 v=114
12450 On ch=1 n=a5 v=114
12480 On ch=1 n=e6 v=114
12720 Off ch=1 n=e6 v=80
12720 Off ch=1 n=a5 v=80
12720 Off ch=1 n=e5 v=80
12900 On ch=1 n=c#5 v=114
12930 On ch=1 n=e5 v=114
12960 On ch=1 n=c#6 v=114
13200 Off ch=1 n=c#6 v=80
13200 Off ch=1 n=e5 v=80
13200 Off ch=1 n=c#5 v=80
13380 On ch=1 n=d5 v=114
13410 On ch=1 n=f#5 v=114
13440 On ch=1 n=d6 v=114
13680 Off ch=1 n=d6 v=80
13680 Off ch=1 n=f#5 v=80
13680 Off ch=1 n=d5 v=80
13860 On ch=1 n=e5 v=114
13890 On ch=1 n=g#5 v=114
13920 On ch=1 n=e6 v=114
14160 Off ch=1 n=e6 v=80
14160 Off ch=1 n=g#5 v=80
14160 Off ch=1 n=e5 v=80
14340 On ch=1 n=c#5 v=114
14370 On ch=1 n=e5 v=114
14400 On ch=1 n=c#6 v=114
14640 Off ch=1 n=c#6 v=80
14640 Off ch=1 n=e5 v=80
14640 Off ch=1 n=c#5 v=80
14880 On ch=1 n=f#3 v=90
14880 On ch=1 n=f#2 v=90
15000 Off ch=1 n=f#2 v=80
15000 Off ch=1 n=f#3 v=80
15120 On ch=1 n=e2 v=102
15120 On ch=1 n=e3 v=102
15240 Off ch=1 n=e3 v=80
15240 Off ch=1 n=e2 v=80
15360 On ch=1 n=d2 v=114
15360 On ch=1 n=d3 v=114
15600 Off ch=1 n=d3 v=80
15600 Off ch=1 n=d2 v=80
16800 On ch=1 n=d4 v=90
16800 On ch=1 n=d3 v=90
19440 Off ch=1 n=d3 v=80
19440 Off ch=1 n=d4 v=80
19560 On ch=1 n=d4 v=65
19620 Off ch=1 n=d4 v=80
19680 On ch=1 n=d4 v=65
19860 Off ch=1 n=d4 v=80
20040 On ch=1 n=e4 v=65
20100 Off ch=1 n=e4 v=80
20160 On ch=1 n=f#4 v=65
20280 Off ch=1 n=f#4 v=80
20640 On ch=1 n=b3 v=53
20640 On ch=1 n=b2 v=53
20760 Off ch=1 n=b2 v=80
20760 Off ch=1 n=b3 v=80
21120 On ch=1 n=e3 v=61
21120 On ch=1 n=e4 v=61
21240 Off ch=1 n=e4 v=80
21240 Off ch=1 n=e3 v=80
21600 On ch=1 n=a2 v=70
21600 On ch=1 n=a3 v=70
21720 Off ch=1 n=a3 v=80
21720 Off ch=1 n=a2 v=80
21960 On ch=1 n=a3 v=70
21960 On ch=1 n=a2 v=70
22020 Off ch=1 n=a2 v=80
22020 Off ch=1 n=a3 v=80
22080 On ch=1 n=b2 v=78
22080 On ch=1 n=b3 v=78
22200 Off ch=1 n=b3 v=80
22200 Off ch=1 n=b2 v=80
22560 On ch=1 n=b2 v=65
22560 On ch=1 n=b3 v=65
22680 Off ch=1 n=b3 v=80
22680 Off ch=1 n=b2 v=80
23040 On ch=1 n=e3 v=114
23040 On ch=1 n=e2 v=114
23160 Off ch=1 n=e2 v=80
23160 Off ch=1 n=e3 v=80
24480 On ch=1 n=e3 v=90
24480 On ch=1 n=e4 v=90
27120 Off ch=1 n=e4 v=80
27120 Off ch=1 n=e3 v=80
27240 On ch=1 n=e4 v=65
27300 Off ch=1 n=e4 v=80
27360 On ch=1 n=e4 v=65
27540 Off ch=1 n=e4 v=80
27720 On ch=1 n=f#4 v=65
27780 Off ch=1 n=f#4 v=80
27840 On ch=1 n=g#4 v=65
27960 Off ch=1 n=g#4 v=80
28320 On ch=1 n=c#3 v=53
28320 On ch=1 n=c#4 v=53
28440 Off ch=1 n=c#4 v=80
28440 Off ch=1 n=c#3 v=80
28800 On ch=1 n=f#4 v=61
28800 On ch=1 n=f#3 v=61
28920 Off ch=1 n=f#3 v=80
28920 Off ch=1 n=f#4 v=80
29280 On ch=1 n=b3 v=70
29280 On ch=1 n=b2 v=70
29400 Off ch=1 n=b2 v=80
29400 Off ch=1 n=b3 v=80
29640 On ch=1 n=b3 v=70
29640 On ch=1 n=b2 v=70
29700 Off ch=1 n=b2 v=80
29700 Off ch=1 n=b3 v=80
29760 On ch=1 n=c#4 v=78
29760 On ch=1 n=c#3 v=78
29880 Off ch=1 n=c#3 v=80
29880 Off ch=1 n=c#4 v=80
30240 On ch=1 n=c#2 v=65
30240 On ch=1 n=c#3 v=65
30360 Off ch=1 n=c#3 v=80
30360 Off ch=1 n=c#2 v=80
30720 On ch=1 n=f#3 v=53
30720 On ch=1 n=f#2 v=53
30840 Off ch=1 n=f#2 v=80
30840 Off ch=1 n=f#3 v=80
31680 On ch=1 n=c#4 v=71
32640 On ch=1 n=c#3 v=78
32880 Off ch=1 n=c#3 v=80
32880 Off ch=1 n=c#4 v=80
33000 On ch=1 n=c#4 v=78
33060 Off ch=1 n=c#4 v=80
33120 On ch=1 n=c#4 v=78
33240 Off ch=1 n=c#4 v=80
33480 On ch=1 n=d#4 v=78
33540 Off ch=1 n=d#4 v=80
33600 On ch=1 n=e4 v=86
33720 Off ch=1 n=e4 v=80
33960 On ch=1 n=e4 v=86
34020 Off ch=1 n=e4 v=80
34080 On ch=1 n=e4 v=94
34200 Off ch=1 n=e4 v=80
34440 On ch=1 n=g#4 v=94
34500 Off ch=1 n=g#4 v=80
34560 On ch=1 n=a4 v=102
34560 On ch=1 n=f#4 v=102
34680 Off ch=1 n=f#4 v=80
34680 Off ch=1 n=a4 v=80
35040 On ch=1 n=f#4 v=112
35040 On ch=1 n=f#3 v=112
36000 Off ch=1 n=f#3 v=80
36000 Off ch=1 n=f#4 v=80
36000 On ch=1 n=g#3 v=119
36000 On ch=1 n=g#4 v=119
36960 Off ch=1 n=g#4 v=80
36960 Off ch=1 n=g#3 v=80
36960 On ch=1 n=a4 v=127
36960 On ch=1 n=a3 v=127
37920 Off ch=1 n=a4 v=80
37920 On ch=1 n=d3 v=112
37920 On ch=1 n=d4 v=112
38400 Off ch=1 n=a3 v=80
38880 Off ch=1 n=d3 v=80
38880 Off ch=1 n=d4 v=80
38880 On ch=1 n=b3 v=100
38880 On ch=1 n=b2 v=100
39840 Off ch=1 n=b2 v=80
39840 Off ch=1 n=b3 v=80
39840 On ch=1 n=c#4 v=90
39840 On ch=1 n=c#3 v=90
40320 Off ch=1 n=c#3 v=80
40320 Off ch=1 n=c#4 v=80
40320 On ch=1 n=f#3 v=78
40320 On ch=1 n=f#2 v=78
41760 Off ch=1 n=f#2 v=80
41760 Off ch=1 n=f#3 v=80
41760 On ch=1 n=f#3 v=90
41760 On ch=1 n=f#4 v=90
44400 Off ch=1 n=f#4 v=80
44400 Off ch=1 n=f#3 v=80
44520 On ch=1 n=f#4 v=65
44580 Off ch=1 n=f#4 v=80
44640 On ch=1 n=f#4 v=65
44760 Off ch=1 n=f#4 v=80
45000 On ch=1 n=g#4 v=65
45060 Off ch=1 n=g#4 v=80
45120 On ch=1 n=a#4 v=65
45240 Off ch=1 n=a#4 v=80
45600 On ch=1 n=d#4 v=53
45600 On ch=1 n=d#3 v=53
45720 Off ch=1 n=d#3 v=80
45720 Off ch=1 n=d#4 v=80
46080 On ch=1 n=g#3 v=53
46080 On ch=1 n=g#4 v=53
46200 Off ch=1 n=g#4 v=80
46200 Off ch=1 n=g#3 v=80
46560 On ch=1 n=c#3 v=53
46560 On ch=1 n=c#4 v=53
46680 Off ch=1 n=c#4 v=80
46680 Off ch=1 n=c#3 v=80
46920 On ch=1 n=c#4 v=53
46920 On ch=1 n=c#3 v=53
46980 Off ch=1 n=c#3 v=80
46980 Off ch=1 n=c#4 v=80
47040 On ch=1 n=d#4 v=53
47040 On ch=1 n=d#3 v=53
47160 Off ch=1 n=d#3 v=80
47160 Off ch=1 n=d#4 v=80
47520 On ch=1 n=d#2 v=53
47520 On ch=1 n=d#3 v=53
47640 Off ch=1 n=d#3 v=80
47640 Off ch=1 n=d#2 v=80
48000 On ch=1 n=g#3 v=53
48000 On ch=1 n=g#2 v=53
48120 Off ch=1 n=g#2 v=80
48120 Off ch=1 n=g#3 v=80
49440 On ch=1 n=g#3 v=90
49440 On ch=1 n=g#4 v=90
52080 Off ch=1 n=g#4 v=80
52080 Off ch=1 n=g#3 v=80
52200 On ch=1 n=g#4 v=65
52260 Off ch=1 n=g#4 v=80
52320 On ch=1 n=g#4 v=65
52440 Off ch=1 n=g#4 v=80
52680 On ch=1 n=a#4 v=65
52740 Off ch=1 n=a#4 v=80
52800 On ch=1 n=c5 v=65
52920 Off ch=1 n=c5 v=80
53280 On ch=1 n=f3 v=53
53280 On ch=1 n=f4 v=53
53400 Off ch=1 n=f4 v=80
53400 Off ch=1 n=f3 v=80
53760 On ch=1 n=a#4 v=53
53760 On ch=1 n=a#3 v=53
53880 Off ch=1 n=a#3 v=80
53880 Off ch=1 n=a#4 v=80
54240 On ch=1 n=d#4 v=53
54240 On ch=1 n=d#3 v=53
54360 Off ch=1 n=d#3 v=80
54360 Off ch=1 n=d#4 v=80
54600 On ch=1 n=d#4 v=53
54600 On ch=1 n=d#3 v=53
54660 Off ch=1 n=d#3 v=80
54660 Off ch=1 n=d#4 v=80
54720 On ch=1 n=f4 v=53
54720 On ch=1 n=f3 v=53
54840 Off ch=1 n=f3 v=80
54840 Off ch=1 n=f4 v=80
55200 On ch=1 n=f2 v=53
55200 On ch=1 n=f3 v=53
55320 Off ch=1 n=f3 v=80
55320 Off ch=1 n=f2 v=80
55680 On ch=1 n=a#3 v=53
55680 On ch=1 n=a#2 v=53
55800 Off ch=1 n=a#2 v=80
55800 Off ch=1 n=a#3 v=80
56640 On ch=1 n=f4 v=69
57600 On ch=1 n=f3 v=78
57840 Off ch=1 n=f3 v=80
57840 Off ch=1 n=f4 v=80
57960 On ch=1 n=f4 v=78
58020 Off ch=1 n=f4 v=80
58080 On ch=1 n=f4 v=78
58200 Off ch=1 n=f4 v=80
58440 On ch=1 n=g4 v=78
58500 Off ch=1 n=g4 v=80
58560 On ch=1 n=g#4 v=90
58680 Off ch=1 n=g#4 v=80
58920 On ch=1 n=g#4 v=90
58980 Off ch=1 n=g#4 v=80
59040 On ch=1 n=g#4 v=102
59160 Off ch=1 n=g#4 v=80
59400 On ch=1 n=c5 v=102
59460 Off ch=1 n=c5 v=80
59520 On ch=1 n=c#5 v=114
59760 Off ch=1 n=c#5 v=80
60480 On ch=1 n=f#4 v=94
60480 On ch=1 n=f#3 v=94
61440 Off ch=1 n=f#3 v=80
61440 Off ch=1 n=f#4 v=80
61440 On ch=1 n=c#3 v=90
61680 Off ch=1 n=c#3 v=80
61800 On ch=1 n=c#4 v=90
61860 Off ch=1 n=c#4 v=80
61920 On ch=1 n=c#4 v=90
62040 Off ch=1 n=c#4 v=80
62280 On ch=1 n=d#4 v=90
62340 Off ch=1 n=d#4 v=80
62400 On ch=1 n=f4 v=98
62520 Off ch=1 n=f4 v=80
62760 On ch=1 n=f4 v=98
62820 Off ch=1 n=f4 v=80
62880 On ch=1 n=f4 v=106
63000 Off ch=1 n=f4 v=80
63240 On ch=1 n=g#4 v=106
63300 Off ch=1 n=g#4 v=80
63360 On ch=1 n=a3 v=114
63360 On ch=1 n=a4 v=114
64560 Off ch=1 n=a4 v=80
64560 Off ch=1 n=a3 v=80
64800 On ch=1 n=g4 v=114
65280 On ch=1 n=a3 v=114
65760 Off ch=1 n=g4 v=80
65760 On ch=1 n=f4 v=102
66000 Off ch=1 n=f4 v=80
66120 On ch=1 n=a4 v=102
66240 Off ch=1 n=a3 v=80
66240 Off ch=1 n=a4 v=80
66240 On ch=1 n=d5 v=102
66480 Off ch=1 n=d5 v=80
66720 On ch=1 n=a4 v=114
67200 On ch=1 n=a3 v=114
67680 Off ch=1 n=a4 v=80
67680 On ch=1 n=g4 v=102
67920 Off ch=1 n=g4 v=80
68040 On ch=1 n=c#5 v=102
68160 Off ch=1 n=a3 v=80
68160 Off ch=1 n=c#5 v=80
68160 On ch=1 n=e5 v=102
68400 Off ch=1 n=e5 v=80
68640 On ch=1 n=a#4 v=114
69120 On ch=1 n=a3 v=114
69600 Off ch=1 n=a#4 v=80
69600 On ch=1 n=a4 v=102
69840 Off ch=1 n=a4 v=80
69960 On ch=1 n=d5 v=102
70080 Off ch=1 n=a3 v=80
70080 Off ch=1 n=d5 v=80
70080 On ch=1 n=f5 v=102
70320 Off ch=1 n=f5 v=80
70560 On ch=1 n=a4 v=102
71040 On ch=1 n=a3 v=88
71520 Off ch=1 n=a3 v=80
71520 Off ch=1 n=a4 v=80
71520 On ch=1 n=b5 v=88
71760 Off ch=1 n=b5 v=80
72000 On ch=1 n=c5 v=95
72240 Off ch=1 n=c5 v=80
72480 On ch=1 n=a5 v=95
72720 Off ch=1 n=a5 v=80
72960 On ch=1 n=a#4 v=102
73200 Off ch=1 n=a#4 v=80
73440 On ch=1 n=g5 v=102
73680 Off ch=1 n=g5 v=80
73920 On ch=1 n=a4 v=109
74160 Off ch=1 n=a4 v=80
74400 On ch=1 n=f5 v=109
74640 Off ch=1 n=f5 v=80
74880 On ch=1 n=g4 v=116
75120 Off ch=1 n=g4 v=80
75360 On ch=1 n=f4 v=116
75360 On ch=1 n=f5 v=116
75840 Off ch=1 n=f5 v=80
75840 Off ch=1 n=f4 v=80
75840 On ch=1 n=e4 v=124
75840 On ch=1 n=e5 v=124
76320 Off ch=1 n=e5 v=80
76320 Off ch=1 n=e4 v=80
76320 On ch=1 n=d5 v=124
76320 On ch=1 n=d4 v=124
76800 Off ch=1 n=d4 v=80
76800 Off ch=1 n=d5 v=80
76800 On ch=1 n=a#3 v=124
76800 On ch=1 n=a#4 v=124
77280 Off ch=1 n=a#4 v=80
77280 Off ch=1 n=a#3 v=80
77280 On ch=1 n=g3 v=124
77280 On ch=1 n=g4 v=124
77760 Off ch=1 n=g4 v=80
77760 Off ch=1 n=g3 v=80
77760 On ch=1 n=e3 v=124
77760 On ch=1 n=e4 v=124
78240 Off ch=1 n=e4 v=80
78240 Off ch=1 n=e3 v=80
78240 On ch=1 n=a#3 v=124
78240 On ch=1 n=a#2 v=124
78720 Off ch=1 n=a#2 v=80
78720 Off ch=1 n=a#3 v=80
78720 On ch=1 n=a3 v=114
78720 On ch=1 n=a2 v=114
79200 Off ch=1 n=a2 v=80
79200 Off ch=1 n=a3 v=80
79200 On ch=1 n=e2 v=95
79200 On ch=1 n=e3 v=95
79680 Off ch=1 n=e3 v=80
79680 Off ch=1 n=e2 v=80
79680 On ch=1 n=c#3 v=95
79680 On ch=1 n=c#2 v=95
80160 Off ch=1 n=c#2 v=80
80160 Off ch=1 n=c#3 v=80
80160 On ch=1 n=c3 v=95
80160 On ch=1 n=c2 v=95
81120 Off ch=1 n=c2 v=80
81120 Off ch=1 n=c3 v=80
81120 On ch=1 n=g2 v=105
81120 On ch=1 n=g3 v=105
81600 Off ch=1 n=g3 v=80
81600 Off ch=1 n=g2 v=80
81600 On ch=1 n=e3 v=105
81600 On ch=1 n=e2 v=105
82080 Off ch=1 n=e2 v=80
82080 Off ch=1 n=e3 v=80
82080 On ch=1 n=d#3 v=105
82080 On ch=1 n=d#2 v=105
83040 Off ch=1 n=d#2 v=80
83040 Off ch=1 n=d#3 v=80
83040 On ch=1 n=a#3 v=115
83040 On ch=1 n=a#2 v=115
83520 Off ch=1 n=a#2 v=80
83520 Off ch=1 n=a#3 v=80
83520 On ch=1 n=g3 v=115
83520 On ch=1 n=g2 v=115
84000 Off ch=1 n=g2 v=80
84000 Off ch=1 n=g3 v=80
84000 On ch=1 n=f#2 v=115
84000 On ch=1 n=f#3 v=115
84960 Off ch=1 n=f#3 v=80
84960 Off ch=1 n=f#2 v=80
84960 On ch=1 n=c#3 v=100
84960 On ch=1 n=c#4 v=100
85440 Off ch=1 n=c#4 v=80
85440 Off ch=1 n=c#3 v=80
85440 On ch=1 n=a#3 v=105
85440 On ch=1 n=a#2 v=105
85920 Off ch=1 n=a#2 v=80
85920 Off ch=1 n=a#3 v=80
85920 On ch=1 n=a3 v=110
85920 On ch=1 n=a2 v=110
86400 Off ch=1 n=a2 v=80
86400 Off ch=1 n=a3 v=80
86400 On ch=1 n=d2 v=127
86400 On ch=1 n=d3 v=127
86820 On ch=1 n=a#4 v=114
86850 On ch=1 n=d5 v=114
86880 Off ch=1 n=d3 v=80
86880 Off ch=1 n=d2 v=80
86880 On ch=1 n=a#5 v=114
87120 Off ch=1 n=a#4 v=80
87120 Off ch=1 n=d5 v=80
87120 Off ch=1 n=a#5 v=80
87300 On ch=1 n=a4 v=114
87330 On ch=1 n=d5 v=114
87360 On ch=1 n=a5 v=114
87600 Off ch=1 n=a5 v=80
87600 Off ch=1 n=d5 v=80
87600 Off ch=1 n=a4 v=80
87780 On ch=1 n=g#4 v=114
87810 On ch=1 n=d5 v=114
87840 On ch=1 n=g#5 v=114
88080 Off ch=1 n=g#5 v=80
88080 Off ch=1 n=d5 v=80
88080 Off ch=1 n=g#4 v=80
88260 On ch=1 n=g4 v=114
88290 On ch=1 n=d5 v=114
88320 On ch=1 n=g5 v=114
88560 Off ch=1 n=g5 v=80
88560 Off ch=1 n=d5 v=80
88560 Off ch=1 n=g4 v=80
88740 On ch=1 n=a4 v=114
88770 On ch=1 n=c#5 v=114
88800 On ch=1 n=a5 v=114
89040 Off ch=1 n=a5 v=80
89040 Off ch=1 n=c#5 v=80
89040 Off ch=1 n=a4 v=80
89220 On ch=1 n=f#4 v=114
89250 On ch=1 n=a4 v=114
89280 On ch=1 n=f#5 v=114
89520 Off ch=1 n=f#5 v=80
89520 Off ch=1 n=a4 v=80
89520 Off ch=1 n=f#4 v=80
89700 On ch=1 n=d4 v=114
89730 On ch=1 n=f#4 v=114
89760 On ch=1 n=d5 v=114
90000 Off ch=1 n=d5 v=80
90000 Off ch=1 n=f#4 v=80
90000 Off ch=1 n=d4 v=80
90180 On ch=1 n=c#4 v=114
90210 On ch=1 n=e4 v=114
90240 On ch=1 n=c#5 v=114
90480 Off ch=1 n=c#5 v=80
90480 Off ch=1 n=e4 v=80
90480 Off ch=1 n=c#4 v=80
90660 On ch=1 n=c4 v=114
90690 On ch=1 n=d#4 v=114
90720 On ch=1 n=c5 v=114
90960 Off ch=1 n=c5 v=80
90960 Off ch=1 n=d#4 v=80
90960 Off ch=1 n=c4 v=80
91140 On ch=1 n=b3 v=114
91170 On ch=1 n=d4 v=114
91200 On ch=1 n=b4 v=114
91440 Off ch=1 n=b4 v=80
91440 Off ch=1 n=d4 v=80
91440 Off ch=1 n=b3 v=80
91620 On ch=1 n=a#3 v=114
91650 On ch=1 n=d4 v=114
91680 On ch=1 n=a#4 v=114
91920 Off ch=1 n=a#4 v=80
91920 Off ch=1 n=d4 v=80
91920 Off ch=1 n=a#3 v=80
92100 On ch=1 n=a3 v=114
92130 On ch=1 n=d4 v=114
92160 On ch=1 n=a4 v=114
92400 Off ch=1 n=a4 v=80
92400 Off ch=1 n=d4 v=80
92400 Off ch=1 n=a3 v=80
92580 On ch=1 n=g#3 v=114
92610 On ch=1 n=d4 v=114
92640 On ch=1 n=g#4 v=114
92880 Off ch=1 n=g#4 v=80
92880 Off ch=1 n=d4 v=80
92880 Off ch=1 n=g#3 v=80
93060 On ch=1 n=a3 v=114
93090 On ch=1 n=c#4 v=114
93120 On ch=1 n=a4 v=114
93360 Off ch=1 n=a4 v=80
93360 Off ch=1 n=c#4 v=80
93360 Off ch=1 n=a3 v=80
93600 On ch=1 n=a3 v=102
93600 On ch=1 n=a2 v=102
93720 Off ch=1 n=a2 v=80
93720 Off ch=1 n=a3 v=80
93840 On ch=1 n=g#3 v=114
93840 On ch=1 n=g#2 v=114
93960 Off ch=1 n=g#2 v=80
93960 Off ch=1 n=g#3 v=80
94080 On ch=1 n=f#3 v=127
94080 On ch=1 n=f#2 v=127
94500 Off ch=1 n=f#2 v=80
94500 Off ch=1 n=f#3 v=80
94500 On ch=1 n=d5 v=114
94530 On ch=1 n=f#5 v=114
94560 On ch=1 n=d6 v=114
94800 Off ch=1 n=d6 v=80
94800 Off ch=1 n=f#5 v=80
94800 Off ch=1 n=d5 v=80
94980 On ch=1 n=c#5 v=114
95010 On ch=1 n=f#5 v=114
95040 On ch=1 n=c#6 v=114
95280 Off ch=1 n=c#6 v=80
95280 Off ch=1 n=f#5 v=80
95280 Off ch=1 n=c#5 v=80
95460 On ch=1 n=a4 v=114
95490 On ch=1 n=c#5 v=114
95520 On ch=1 n=a5 v=114
95760 Off ch=1 n=a5 v=80
95760 Off ch=1 n=c#5 v=80
95760 Off ch=1 n=a4 v=80
95940 On ch=1 n=b4 v=114
95970 On ch=1 n=d5 v=114
96000 On ch=1 n=b5 v=114
96240 Off ch=1 n=b5 v=80
96240 Off ch=1 n=d5 v=80
96240 Off ch=1 n=b4 v=80
96420 On ch=1 n=c#5 v=114
96450 On ch=1 n=f5 v=114
96480 On ch=1 n=c#6 v=114
96720 Off ch=1 n=c#6 v=80
96720 Off ch=1 n=f5 v=80
96720 Off ch=1 n=c#5 v=80
96900 On ch=1 n=a4 v=114
96930 On ch=1 n=c#5 v=114
96960 On ch=1 n=a5 v=114
97200 Off ch=1 n=a5 v=80
97200 Off ch=1 n=c#5 v=80
97200 Off ch=1 n=a4 v=80
97440 On ch=1 n=f#3 v=102
97440 On ch=1 n=f#2 v=102
97560 Off ch=1 n=f#2 v=80
97560 Off ch=1 n=f#3 v=80
97680 On ch=1 n=f3 v=114
97680 On ch=1 n=f2 v=114
97800 Off ch=1 n=f2 v=80
97800 Off ch=1 n=f3 v=80
97920 On ch=1 n=e2 v=127
97920 On ch=1 n=e3 v=127
98340 Off ch=1 n=e3 v=80
98340 Off ch=1 n=e2 v=80
98340 On ch=1 n=f#5 v=114
98370 On ch=1 n=a5 v=114
98400 On ch=1 n=f#6 v=114
98640 Off ch=1 n=f#6 v=80
98640 Off ch=1 n=a5 v=80
98640 Off ch=1 n=f#5 v=80
98820 On ch=1 n=e5 v=114
98850 On ch=1 n=a5 v=114
98880 On ch=1 n=e6 v=114
99120 Off ch=1 n=e6 v=80
99120 Off ch=1 n=a5 v=80
99120 Off ch=1 n=e5 v=80
99300 On ch=1 n=c#5 v=114
99330 On ch=1 n=e5 v=114
99360 On ch=1 n=c#6 v=114
99600 Off ch=1 n=c#6 v=80
99600 Off ch=1 n=e5 v=80
99600 Off ch=1 n=c#5 v=80
99780 On ch=1 n=d5 v=114
99810 On ch=1 n=f#5 v=114
99840 On ch=1 n=d6 v=114
100080 Off ch=1 n=d6 v=80
100080 Off ch=1 n=f#5 v=80
100080 Off ch=1 n=d5 v=80
100260 On ch=1 n=e5 v=114
100290 On ch=1 n=g#5 v=114
100320 On ch=1 n=e6 v=114
100560 Off ch=1 n=e6 v=80
100560 Off ch=1 n=g#5 v=80
100560 Off ch=1 n=e5 v=80
100740 On ch=1 n=c#5 v=114
100770 On ch=1 n=e5 v=114
100800 On ch=1 n=c#6 v=114
101040 Off ch=1 n=c#6 v=80
101040 Off ch=1 n=e5 v=80
101040 Off ch=1 n=c#5 v=80
101280 On ch=1 n=f#3 v=90
101280 On ch=1 n=f#2 v=90
101400 Off ch=1 n=f#2 v=80
101400 Off ch=1 n=f#3 v=80
101520 On ch=1 n=e2 v=102
101520 On ch=1 n=e3 v=102
101640 Off ch=1 n=e3 v=80
101640 Off ch=1 n=e2 v=80
101760 On ch=1 n=d3 v=96
101760 On ch=1 n=d2 v=96
103200 Off ch=1 n=d2 v=80
103200 Off ch=1 n=d3 v=80
103680 On ch=1 n=g3 v=65
103680 On ch=1 n=g2 v=65
103800 Off ch=1 n=g2 v=80
103800 Off ch=1 n=g3 v=80
104160 On ch=1 n=c#3 v=65
104160 On ch=1 n=c#4 v=65
104280 Off ch=1 n=c#4 v=80
104280 Off ch=1 n=c#3 v=80
104640 On ch=1 n=f#3 v=65
104640 On ch=1 n=f#2 v=65
104760 Off ch=1 n=f#2 v=80
104760 Off ch=1 n=f#3 v=80
105120 On ch=1 n=b3 v=65
105120 On ch=1 n=b2 v=65
105240 Off ch=1 n=b2 v=80
105240 Off ch=1 n=b3 v=80
105600 On ch=1 n=e3 v=65
105600 On ch=1 n=e2 v=65
107040 Off ch=1 n=e2 v=80
107040 Off ch=1 n=e3 v=80
107520 On ch=1 n=a3 v=65
107520 On ch=1 n=a2 v=65
107640 Off ch=1 n=a2 v=80
107640 Off ch=1 n=a3 v=80
108000 On ch=1 n=d3 v=65
108000 On ch=1 n=d2 v=65
108120 Off ch=1 n=d2 v=80
108120 Off ch=1 n=d3 v=80
108480 On ch=1 n=g3 v=65
108480 On ch=1 n=g2 v=65
108600 Off ch=1 n=g2 v=80
108600 Off ch=1 n=g3 v=80
108960 On ch=1 n=c#2 v=65
108960 On ch=1 n=c#3 v=65
109080 Off ch=1 n=c#3 v=80
109080 Off ch=1 n=c#2 v=80
109440 On ch=1 n=f#2 v=89
109440 On ch=1 n=f#3 v=89
109920 Off ch=1 n=f#3 v=80
109920 Off ch=1 n=f#2 v=80
109920 On ch=1 n=b3 v=97
109920 On ch=1 n=b2 v=97
110400 Off ch=1 n=b2 v=80
110400 Off ch=1 n=b3 v=80
110400 On ch=1 n=e4 v=105
110400 On ch=1 n=e3 v=105
110880 Off ch=1 n=e3 v=80
110880 Off ch=1 n=e4 v=80
110880 On ch=1 n=a4 v=113
110880 On ch=1 n=a3 v=113
111360 Off ch=1 n=a3 v=80
111360 Off ch=1 n=a4 v=80
111360 On ch=1 n=d4 v=89
111360 On ch=1 n=d5 v=89
111780 Off ch=1 n=d5 v=80
111780 Off ch=1 n=d4 v=80
111780 On ch=1 n=g#3 v=89
111800 On ch=1 n=d4 v=89
111820 On ch=1 n=f4 v=89
111840 On ch=1 n=b4 v=89
112080 Off ch=1 n=b4 v=80
112080 Off ch=1 n=f4 v=80
112080 Off ch=1 n=d4 v=80
112080 Off ch=1 n=g#3 v=80
112260 On ch=1 n=a3 v=89
112280 On ch=1 n=d4 v=89
112300 On ch=1 n=f#4 v=89
112320 On ch=1 n=a4 v=89
112560 Off ch=1 n=a4 v=80
112560 Off ch=1 n=f#4 v=80
112560 Off ch=1 n=d4 v=80
112560 Off ch=1 n=a3 v=80
112740 On ch=1 n=a3 v=89
112760 On ch=1 n=c#4 v=89
112780 On ch=1 n=e4 v=89
112800 On ch=1 n=c#5 v=89
113040 Off ch=1 n=c#5 v=80
113040 Off ch=1 n=e4 v=80
113040 Off ch=1 n=c#4 v=80
113040 Off ch=1 n=a3 v=80
113280 On ch=1 n=d4 v=65
113280 On ch=1 n=d3 v=65
113520 Off ch=1 n=d3 v=80
113520 Off ch=1 n=d4 v=80
113640 On ch=1 n=a5 v=65
113640 On ch=1 n=f#5 v=65
113640 On ch=1 n=c5 v=65
113760 Off ch=1 n=c5 v=80
113760 Off ch=1 n=f#5 v=80
113760 Off ch=1 n=a5 v=80
113760 On ch=1 n=a5 v=78
113760 On ch=1 n=f#5 v=78
113760 On ch=1 n=c5 v=78
114000 Off ch=1 n=c5 v=80
114000 Off ch=1 n=f#5 v=80
114000 Off ch=1 n=a5 v=80
114120 On ch=1 n=b5 v=78
114120 On ch=1 n=f#5 v=78
114120 On ch=1 n=d5 v=78
114240 Off ch=1 n=d5 v=80
114240 Off ch=1 n=f#5 v=80
114240 Off ch=1 n=b5 v=80
114240 On ch=1 n=c6 v=100
114240 On ch=1 n=f#5 v=100
114240 On ch=1 n=e5 v=100
114720 Off ch=1 n=e5 v=80
114720 Off ch=1 n=f#5 v=80
114720 Off ch=1 n=c6 v=80
114720 On ch=1 n=b5 v=90
114720 On ch=1 n=f#5 v=90
114720 On ch=1 n=d5 v=90
114960 Off ch=1 n=d5 v=80
114960 Off ch=1 n=f#5 v=80
114960 Off ch=1 n=b5 v=80
115080 On ch=1 n=a5 v=90
115080 On ch=1 n=f#5 v=90
115080 On ch=1 n=c5 v=90
115200 Off ch=1 n=c5 v=80
115200 Off ch=1 n=f#5 v=80
115200 Off ch=1 n=a5 v=80
115200 On ch=1 n=g4 v=65
115200 On ch=1 n=g5 v=65
115320 Off ch=1 n=g5 v=80
115320 Off ch=1 n=g4 v=80
115680 On ch=1 n=c#4 v=65
115680 On ch=1 n=c#5 v=65
115800 Off ch=1 n=c#5 v=80
115800 Off ch=1 n=c#4 v=80
116160 On ch=1 n=f#4 v=65
116160 On ch=1 n=f#5 v=65
116280 Off ch=1 n=f#5 v=80
116280 Off ch=1 n=f#4 v=80
116640 On ch=1 n=b4 v=65
116640 On ch=1 n=b3 v=65
116760 Off ch=1 n=b3 v=80
116760 Off ch=1 n=b4 v=80
117120 On ch=1 n=e5 v=65
117120 On ch=1 n=e4 v=65
117360 Off ch=1 n=e4 v=80
117360 Off ch=1 n=e5 v=80
117480 On ch=1 n=g4 v=65
117480 On ch=1 n=e5 v=65
117480 On ch=1 n=d5 v=65
117600 Off ch=1 n=d5 v=80
117600 Off ch=1 n=e5 v=80
117600 Off ch=1 n=g4 v=80
117600 On ch=1 n=e5 v=78
117600 On ch=1 n=g4 v=78
117600 On ch=1 n=d5 v=78
117840 Off ch=1 n=d5 v=80
117840 Off ch=1 n=g4 v=80
117840 Off ch=1 n=e5 v=80
117960 On ch=1 n=f#5 v=78
117960 On ch=1 n=a4 v=78
117960 On ch=1 n=d5 v=78
118080 Off ch=1 n=d5 v=80
118080 Off ch=1 n=a4 v=80
118080 Off ch=1 n=f#5 v=80
118080 On ch=1 n=b4 v=100
118080 On ch=1 n=g5 v=100
118080 On ch=1 n=d5 v=100
118560 Off ch=1 n=d5 v=80
118560 Off ch=1 n=g5 v=80
118560 Off ch=1 n=b4 v=80
118560 On ch=1 n=f#5 v=90
118560 On ch=1 n=a4 v=90
118560 On ch=1 n=d5 v=90
118800 Off ch=1 n=d5 v=80
118800 Off ch=1 n=a4 v=80
118800 Off ch=1 n=f#5 v=80
118920 On ch=1 n=g4 v=90
118920 On ch=1 n=d5 v=90
118920 On ch=1 n=e5 v=90
119040 Off ch=1 n=e5 v=80
119040 Off ch=1 n=d5 v=80
119040 Off ch=1 n=g4 v=80
119040 On ch=1 n=a3 v=90
119040 On ch=1 n=a4 v=90
119160 Off ch=1 n=a4 v=80
119160 Off ch=1 n=a3 v=80
119520 On ch=1 n=d4 v=65
119520 On ch=1 n=d3 v=65
119640 Off ch=1 n=d3 v=80
119640 Off ch=1 n=d4 v=80
120000 On ch=1 n=g4 v=65
120000 On ch=1 n=g3 v=65
120120 Off ch=1 n=g3 v=80
120120 Off ch=1 n=g4 v=80
120480 On ch=1 n=c#3 v=65
120480 On ch=1 n=c#4 v=65
120600 Off ch=1 n=c#4 v=80
120600 Off ch=1 n=c#3 v=80
120960 On ch=1 n=f#3 v=75
120960 On ch=1 n=f#4 v=75
121440 Off ch=1 n=f#4 v=80
121440 Off ch=1 n=f#3 v=80
121440 On ch=1 n=b4 v=81
121440 On ch=1 n=b3 v=81
121920 Off ch=1 n=b3 v=80
121920 Off ch=1 n=b4 v=80
121920 On ch=1 n=e4 v=87
121920 On ch=1 n=e5 v=87
122400 Off ch=1 n=e5 v=80
122400 Off ch=1 n=e4 v=80
122400 On ch=1 n=a5 v=93
122400 On ch=1 n=a4 v=93
122880 Off ch=1 n=a4 v=80
122880 Off ch=1 n=a5 v=80
122880 On ch=1 n=d5 v=100
122880 On ch=1 n=d6 v=100
123300 Off ch=1 n=d6 v=80
123300 Off ch=1 n=d5 v=80
123300 On ch=1 n=g#4 v=112
123320 On ch=1 n=d5 v=112
123340 On ch=1 n=f5 v=112
123360 On ch=1 n=b5 v=112
123600 Off ch=1 n=b5 v=80
123600 Off ch=1 n=f5 v=80
123600 Off ch=1 n=d5 v=80
123600 Off ch=1 n=g#4 v=80
123780 On ch=1 n=a4 v=112
123800 On ch=1 n=d5 v=112
123820 On ch=1 n=f#5 v=112
123840 On ch=1 n=a5 v=112
124080 Off ch=1 n=a5 v=80
124080 Off ch=1 n=f#5 v=80
124080 Off ch=1 n=d5 v=80
124080 Off ch=1 n=a4 v=80
124260 On ch=1 n=a4 v=112
124280 On ch=1 n=c#5 v=112
124300 On ch=1 n=e5 v=112
124320 On ch=1 n=a5 v=112
124560 Off ch=1 n=a5 v=80
124560 Off ch=1 n=e5 v=80
124560 Off ch=1 n=c#5 v=80
124560 Off ch=1 n=a4 v=80
124800 On ch=1 n=d4 v=127
124800 On ch=1 n=d5 v=127
125220 On ch=1 n=a#5 v=114
125250 On ch=1 n=d6 v=114
125280 Off ch=1 n=d5 v=80
125280 Off ch=1 n=d4 v=80
125280 On ch=1 n=a#6 v=114
125520 Off ch=1 n=a#5 v=80
125520 Off ch=1 n=d6 v=80
125520 Off ch=1 n=a#6 v=80
125700 On ch=1 n=a5 v=114
125730 On ch=1 n=d6 v=114
125760 On ch=1 n=a6 v=114
126000 Off ch=1 n=a6 v=80
126000 Off ch=1 n=d6 v=80
126000 Off ch=1 n=a5 v=80
126180 On ch=1 n=g#5 v=114
126210 On ch=1 n=d6 v=114
126240 On ch=1 n=g#6 v=114
126480 Off ch=1 n=g#6 v=80
126480 Off ch=1 n=d6 v=80
126480 Off ch=1 n=g#5 v=80
126660 On ch=1 n=a5 v=114
126690 On ch=1 n=d6 v=114
126720 On ch=1 n=a6 v=114
126960 Off ch=1 n=a6 v=80
126960 Off ch=1 n=d6 v=80
126960 Off ch=1 n=a5 v=80
127140 On ch=1 n=f#5 v=114
127170 On ch=1 n=a5 v=114
127200 On ch=1 n=f#6 v=114
127440 Off ch=1 n=f#6 v=80
127440 Off ch=1 n=a5 v=80
127440 Off ch=1 n=f#5 v=80
127620 On ch=1 n=d5 v=114
127650 On ch=1 n=f#5 v=114
127680 On ch=1 n=d6 v=114
127920 Off ch=1 n=d6 v=80
127920 Off ch=1 n=f#5 v=80
127920 Off ch=1 n=d5 v=80
128100 On ch=1 n=a#4 v=114
128130 On ch=1 n=d5 v=114
128160 On ch=1 n=a#5 v=114
128400 Off ch=1 n=a#5 v=80
128400 Off ch=1 n=d5 v=80
128400 Off ch=1 n=a#4 v=80
128580 On ch=1 n=a4 v=114
128610 On ch=1 n=d5 v=114
128640 On ch=1 n=a5 v=114
128880 Off ch=1 n=a5 v=80
128880 Off ch=1 n=d5 v=80
128880 Off ch=1 n=a4 v=80
129060 On ch=1 n=a#4 v=114
129090 On ch=1 n=d5 v=114
129120 On ch=1 n=a#5 v=114
129360 Off ch=1 n=a#5 v=80
129360 Off ch=1 n=d5 v=80
129360 Off ch=1 n=a#4 v=80
129540 On ch=1 n=a4 v=114
129570 On ch=1 n=d5 v=114
129600 On ch=1 n=a5 v=114
129840 Off ch=1 n=a5 v=80
129840 Off ch=1 n=d5 v=80
129840 Off ch=1 n=a4 v=80
130020 On ch=1 n=g#4 v=114
130050 On ch=1 n=d5 v=114
130080 On ch=1 n=g#5 v=114
130320 Off ch=1 n=g#5 v=80
130320 Off ch=1 n=d5 v=80
130320 Off ch=1 n=g#4 v=80
130500 On ch=1 n=a4 v=114
130530 On ch=1 n=d5 v=114
130560 On ch=1 n=a5 v=114
130800 Off ch=1 n=a5 v=80
130800 Off ch=1 n=d5 v=80
130800 Off ch=1 n=a4 v=80
130980 On ch=1 n=f#4 v=114
131010 On ch=1 n=a4 v=114
131040 On ch=1 n=f#5 v=114
131280 Off ch=1 n=f#5 v=80
131280 Off ch=1 n=a4 v=80
131280 Off ch=1 n=f#4 v=80
131460 On ch=1 n=d4 v=114
131490 On ch=1 n=f#4 v=114
131520 On ch=1 n=d5 v=114
131760 Off ch=1 n=d5 v=80
131760 Off ch=1 n=f#4 v=80
131760 Off ch=1 n=d4 v=80
131940 On ch=1 n=a#3 v=114
131970 On ch=1 n=d4 v=114
132000 On ch=1 n=a#4 v=114
132240 Off ch=1 n=a#4 v=80
132240 Off ch=1 n=d4 v=80
132240 Off ch=1 n=a#3 v=80
132480 On ch=1 n=a4 v=102
132480 On ch=1 n=d4 v=102
132480 On ch=1 n=a3 v=102
133440 Off ch=1 n=a3 v=80
133440 Off ch=1 n=d4 v=80
133440 Off ch=1 n=a4 v=80
133440 On ch=1 n=a3 v=65
133440 On ch=1 n=d3 v=65
133920 Off ch=1 n=d3 v=80
133920 Off ch=1 n=a3 v=80
134370 On ch=1 n=a3 v=65
134400 On ch=1 n=e4 v=65
134560 Off ch=1 n=e4 v=80
134560 Off ch=1 n=a3 v=80
134560 On ch=1 n=a4 v=65
134720 Off ch=1 n=a4 v=80
134720 On ch=1 n=c5 v=65
134880 Off ch=1 n=c5 v=80
136290 On ch=1 n=a3 v=65
136320 On ch=1 n=f#4 v=65
136480 Off ch=1 n=f#4 v=80
136480 Off ch=1 n=a3 v=80
136480 On ch=1 n=a4 v=65
136640 Off ch=1 n=a4 v=80
136640 On ch=1 n=c#5 v=65
136800 Off ch=1 n=c#5 v=80
138240 On ch=1 n=e4 v=65
138240 On ch=1 n=a3 v=65
138400 Off ch=1 n=a3 v=80
138400 Off ch=1 n=e4 v=80
138400 On ch=1 n=g#4 v=65
138560 Off ch=1 n=g#4 v=80
138560 On ch=1 n=b4 v=65
138720 Off ch=1 n=b4 v=80
138720 On ch=1 n=e5 v=65
138880 Off ch=1 n=e5 v=80
138880 On ch=1 n=d5 v=65
139040 Off ch=1 n=d5 v=80
139040 On ch=1 n=b5 v=65
139200 Off ch=1 n=b5 v=80
139200 On ch=1 n=g#5 v=65
139360 Off ch=1 n=g#5 v=80
139360 On ch=1 n=b4 v=65
139520 Off ch=1 n=b4 v=80
139520 On ch=1 n=g#5 v=65
139680 Off ch=1 n=g#5 v=80
139680 On ch=1 n=e5 v=65
139840 Off ch=1 n=e5 v=80
139840 On ch=1 n=g#4 v=65
140000 Off ch=1 n=g#4 v=80
140000 On ch=1 n=e5 v=65
140160 Off ch=1 n=e5 v=80
140160 On ch=1 n=d5 v=62
140320 Off ch=1 n=d5 v=80
140320 On ch=1 n=e4 v=62
140480 Off ch=1 n=e4 v=80
140480 On ch=1 n=d5 v=62
140640 Off ch=1 n=d5 v=80
140640 On ch=1 n=b4 v=59
140800 Off ch=1 n=b4 v=80
140800 On ch=1 n=d4 v=59
140960 Off ch=1 n=d4 v=80
140960 On ch=1 n=b4 v=59
141120 Off ch=1 n=b4 v=80
141120 On ch=1 n=g#4 v=56
141280 Off ch=1 n=g#4 v=80
141280 On ch=1 n=b3 v=56
141440 Off ch=1 n=b3 v=80
141440 On ch=1 n=g#4 v=56
141600 Off ch=1 n=g#4 v=80
141600 On ch=1 n=e4 v=53
141760 Off ch=1 n=e4 v=80
141760 On ch=1 n=a#3 v=53
141920 Off ch=1 n=a#3 v=80
141920 On ch=1 n=d4 v=53
142080 Off ch=1 n=d4 v=80
142080 On ch=1 n=e4 v=53
142080 On ch=1 n=a3 v=53
142240 Off ch=1 n=a3 v=80
142240 Off ch=1 n=e4 v=80
142240 On ch=1 n=a4 v=59
142400 Off ch=1 n=a4 v=80
142400 On ch=1 n=c5 v=65
142560 Off ch=1 n=c5 v=80
143970 On ch=1 n=f#3 v=65
144000 On ch=1 n=e4 v=65
144160 Off ch=1 n=e4 v=80
144160 Off ch=1 n=f#3 v=80
144160 On ch=1 n=f#4 v=65
144320 Off ch=1 n=f#4 v=80
144320 On ch=1 n=g4 v=65
144480 Off ch=1 n=g4 v=80
144960 On ch=1 n=e4 v=53
144960 On ch=1 n=e3 v=53
145440 Off ch=1 n=e3 v=80
145440 Off ch=1 n=e4 v=80
145440 On ch=1 n=f#2 v=53
145440 On ch=1 n=f#3 v=53
145860 Off ch=1 n=f#3 v=80
145890 On ch=1 n=f#3 v=65
145920 Off ch=1 n=f#2 v=80
145920 On ch=1 n=d4 v=65
146080 Off ch=1 n=f#3 v=80
146080 Off ch=1 n=d4 v=80
146080 On ch=1 n=g4 v=65
146240 Off ch=1 n=g4 v=80
146240 On ch=1 n=a#4 v=65
146400 Off ch=1 n=a#4 v=80
147600 On ch=1 n=f3 v=65
147840 Off ch=1 n=f3 v=80
147840 On ch=1 n=d4 v=65
147840 On ch=1 n=e3 v=65
148000 Off ch=1 n=e3 v=80
148000 Off ch=1 n=d4 v=80
148000 On ch=1 n=g4 v=65
148160 Off ch=1 n=g4 v=80
148160 On ch=1 n=a#4 v=65
148320 Off ch=1 n=a#4 v=80
148800 On ch=1 n=a3 v=65
148800 On ch=1 n=g4 v=65
148960 Off ch=1 n=g4 v=80
148960 Off ch=1 n=a3 v=80
148960 On ch=1 n=c#5 v=65
149120 Off ch=1 n=c#5 v=80
149520 On ch=1 n=a2 v=65
149760 Off ch=1 n=a2 v=80
149760 On ch=1 n=d3 v=65
149760 On ch=1 n=a3 v=65
149920 Off ch=1 n=a3 v=80
149920 Off ch=1 n=d3 v=80
149920 On ch=1 n=d4 v=65
150080 Off ch=1 n=d4 v=80
150080 On ch=1 n=e4 v=65
150240 Off ch=1 n=e4 v=80
150880 On ch=1 n=g#4 v=69
151040 Off ch=1 n=g#4 v=80
151040 On ch=1 n=g4 v=73
151200 Off ch=1 n=g4 v=80
151200 On ch=1 n=f#4 v=77
151360 Off ch=1 n=f#4 v=80
151360 On ch=1 n=e4 v=81
151520 Off ch=1 n=e4 v=80
151520 On ch=1 n=d4 v=85
151680 Off ch=1 n=d4 v=80
151680 On ch=1 n=b2 v=65
151840 Off ch=1 n=b2 v=80
151840 On ch=1 n=d4 v=73
152000 Off ch=1 n=d4 v=80
152000 On ch=1 n=f4 v=81
152160 Off ch=1 n=f4 v=80
152160 On ch=1 n=g#4 v=90
152320 Off ch=1 n=g#4 v=80
152320 On ch=1 n=a#4 v=90
152480 Off ch=1 n=a#4 v=80
152480 On ch=1 n=b4 v=90
152640 Off ch=1 n=b4 v=80
152800 On ch=1 n=b4 v=69
152960 Off ch=1 n=b4 v=80
152960 On ch=1 n=g#4 v=73
153120 Off ch=1 n=g#4 v=80
153120 On ch=1 n=f4 v=77
153280 Off ch=1 n=f4 v=80
153280 On ch=1 n=e4 v=81
153440 Off ch=1 n=e4 v=80
153440 On ch=1 n=d4 v=85
153600 Off ch=1 n=d4 v=80
153600 On ch=1 n=f4 v=90
153600 On ch=1 n=c#4 v=90
153760 Off ch=1 n=f4 v=80
153760 On ch=1 n=a4 v=90
153920 Off ch=1 n=a4 v=80
153920 On ch=1 n=f5 v=90
154080 Off ch=1 n=c#4 v=80
154080 Off ch=1 n=f5 v=80
154080 On ch=1 n=f#4 v=90
154080 On ch=1 n=a4 v=90
154240 On ch=1 n=c#5 v=90
154400 On ch=1 n=f5 v=90
154560 Off ch=1 n=f5 v=80
155520 Off ch=1 n=c#5 v=80
155520 Off ch=1 n=a4 v=80
155520 Off ch=1 n=f#4 v=80
155520 On ch=1 n=c#4 v=90
155520 On ch=1 n=f4 v=90
155680 Off ch=1 n=f4 v=80
155680 On ch=1 n=a4 v=90
155840 Off ch=1 n=a4 v=80
155840 On ch=1 n=f5 v=90
156000 Off ch=1 n=c#4 v=80
156000 Off ch=1 n=f5 v=80
156000 On ch=1 n=f#4 v=90
156000 On ch=1 n=a4 v=90
156160 On ch=1 n=c#5 v=90
156320 On ch=1 n=f5 v=90
156480 Off ch=1 n=f5 v=80
156960 Off ch=1 n=c#5 v=80
156960 On ch=1 n=d#5 v=100
157440 Off ch=1 n=a4 v=80
157440 Off ch=1 n=f#4 v=80
157440 Off ch=1 n=d#5 v=80
157440 On ch=1 n=c5 v=90
157440 On ch=1 n=f#4 v=90
157600 Off ch=1 n=c5 v=80
157600 On ch=1 n=d#5 v=90
157760 Off ch=1 n=d#5 v=80
157760 On ch=1 n=a5 v=90
157920 Off ch=1 n=f#4 v=80
157920 Off ch=1 n=a5 v=80
157920 On ch=1 n=g4 v=90
157920 On ch=1 n=c5 v=90
158080 On ch=1 n=e5 v=90
158240 On ch=1 n=b5 v=90
158400 Off ch=1 n=b5 v=80
158880 Off ch=1 n=e5 v=80
158880 On ch=1 n=g5 v=90
159360 Off ch=1 n=c5 v=80
159360 Off ch=1 n=g4 v=80
159360 Off ch=1 n=g5 v=80
159360 On ch=1 n=a#4 v=90
159360 On ch=1 n=e5 v=90
159520 Off ch=1 n=e5 v=80
159520 On ch=1 n=g5 v=98
159680 Off ch=1 n=g5 v=80
159680 On ch=1 n=c6 v=98
159840 Off ch=1 n=a#4 v=80
159840 Off ch=1 n=c6 v=80
159840 On ch=1 n=b4 v=106
159840 On ch=1 n=g#5 v=106
160000 On ch=1 n=b5 v=106
160160 Off ch=1 n=b5 v=80
160160 On ch=1 n=b6 v=106
160320 Off ch=1 n=b6 v=80
160800 Off ch=1 n=g#5 v=80
160800 On ch=1 n=d#5 v=114
160800 On ch=1 n=a5 v=114
161280 Off ch=1 n=a5 v=80
161280 Off ch=1 n=b4 v=80
161280 Off ch=1 n=d#5 v=80
161440 On ch=1 n=g#4 v=102
161440 On ch=1 n=e4 v=102
161440 On ch=1 n=d5 v=102
162239 Off ch=1 n=d5 v=80
162240 Off ch=1 n=e4 v=80
162240 Off ch=1 n=g#4 v=80
163170 On ch=1 n=a3 v=65
163200 On ch=1 n=e4 v=65
163360 Off ch=1 n=e4 v=80
163360 Off ch=1 n=a3 v=80
163360 On ch=1 n=a4 v=65
163520 Off ch=1 n=a4 v=80
163520 On ch=1 n=c5 v=65
163680 Off ch=1 n=c5 v=80
165090 On ch=1 n=a3 v=65
165120 On ch=1 n=f#4 v=65
165280 Off ch=1 n=f#4 v=80
165280 Off ch=1 n=a3 v=80
165280 On ch=1 n=a4 v=65
165440 Off ch=1 n=a4 v=80
165440 On ch=1 n=c#5 v=65
165600 Off ch=1 n=c#5 v=80
167040 On ch=1 n=e4 v=65
167040 On ch=1 n=a3 v=65
167200 Off ch=1 n=a3 v=80
167200 Off ch=1 n=e4 v=80
167200 On ch=1 n=g#4 v=65
167360 Off ch=1 n=g#4 v=80
167360 On ch=1 n=b4 v=65
167520 Off ch=1 n=b4 v=80
167520 On ch=1 n=e5 v=65
167680 Off ch=1 n=e5 v=80
167680 On ch=1 n=d5 v=65
167840 Off ch=1 n=d5 v=80
167840 On ch=1 n=b5 v=65
168000 Off ch=1 n=b5 v=80
168000 On ch=1 n=g#5 v=65
168160 Off ch=1 n=g#5 v=80
168160 On ch=1 n=b4 v=65
168320 Off ch=1 n=b4 v=80
168320 On ch=1 n=g#5 v=65
168480 Off ch=1 n=g#5 v=80
168480 On ch=1 n=e5 v=65
168640 Off ch=1 n=e5 v=80
168640 On ch=1 n=g#4 v=65
168800 Off ch=1 n=g#4 v=80
168800 On ch=1 n=e5 v=65
168960 Off ch=1 n=e5 v=80
168960 On ch=1 n=d5 v=62
169120 Off ch=1 n=d5 v=80
169120 On ch=1 n=e4 v=62
169280 Off ch=1 n=e4 v=80
169280 On ch=1 n=d5 v=62
169440 Off ch=1 n=d5 v=80
169440 On ch=1 n=b4 v=59
169600 Off ch=1 n=b4 v=80
169600 On ch=1 n=d4 v=59
169760 Off ch=1 n=d4 v=80
169760 On ch=1 n=b4 v=59
169920 Off ch=1 n=b4 v=80
169920 On ch=1 n=g#4 v=56
170080 Off ch=1 n=g#4 v=80
170080 On ch=1 n=b3 v=56
170240 Off ch=1 n=b3 v=80
170240 On ch=1 n=g#4 v=56
170400 Off ch=1 n=g#4 v=80
170400 On ch=1 n=e4 v=53
170560 Off ch=1 n=e4 v=80
170560 On ch=1 n=a#3 v=53
170720 Off ch=1 n=a#3 v=80
170720 On ch=1 n=d4 v=53
170880 Off ch=1 n=d4 v=80
170880 On ch=1 n=e4 v=53
170880 On ch=1 n=a3 v=53
171040 Off ch=1 n=a3 v=80
171040 Off ch=1 n=e4 v=80
171040 On ch=1 n=a4 v=59
171200 Off ch=1 n=a4 v=80
171200 On ch=1 n=c5 v=65
171360 Off ch=1 n=c5 v=80
172770 On ch=1 n=f#3 v=65
172800 On ch=1 n=e4 v=65
172960 Off ch=1 n=e4 v=80
172960 Off ch=1 n=f#3 v=80
172960 On ch=1 n=f#4 v=65
173120 Off ch=1 n=f#4 v=80
173120 On ch=1 n=g4 v=65
173280 Off ch=1 n=g4 v=80
173760 On ch=1 n=e4 v=53
173760 On ch=1 n=e3 v=53
174240 Off ch=1 n=e3 v=80
174240 Off ch=1 n=e4 v=80
174240 On ch=1 n=f#2 v=53
174240 On ch=1 n=f#3 v=53
174660 Off ch=1 n=f#3 v=80
174690 On ch=1 n=f#3 v=65
174720 Off ch=1 n=f#2 v=80
174720 On ch=1 n=d4 v=65
174880 Off ch=1 n=f#3 v=80
174880 Off ch=1 n=d4 v=80
174880 On ch=1 n=g4 v=65
175040 Off ch=1 n=g4 v=80
175040 On ch=1 n=a#4 v=65
175200 Off ch=1 n=a#4 v=80
176400 On ch=1 n=f3 v=65
176640 Off ch=1 n=f3 v=80
176640 On ch=1 n=d4 v=65
176640 On ch=1 n=e3 v=65
176800 Off ch=1 n=e3 v=80
176800 Off ch=1 n=d4 v=80
176800 On ch=1 n=g4 v=65
176960 Off ch=1 n=g4 v=80
176960 On ch=1 n=a#4 v=65
177120 Off ch=1 n=a#4 v=80
177600 On ch=1 n=a3 v=65
177600 On ch=1 n=g4 v=65
177760 Off ch=1 n=g4 v=80
177760 Off ch=1 n=a3 v=80
177760 On ch=1 n=c#5 v=65
177920 Off ch=1 n=c#5 v=80
178320 On ch=1 n=a2 v=65
178560 Off ch=1 n=a2 v=80
178560 On ch=1 n=d3 v=65
178560 On ch=1 n=a3 v=65
178720 Off ch=1 n=a3 v=80
178720 Off ch=1 n=d3 v=80
178720 On ch=1 n=d4 v=65
178880 Off ch=1 n=d4 v=80
178880 On ch=1 n=e4 v=65
179040 Off ch=1 n=e4 v=80
179680 On ch=1 n=g#4 v=69
179840 Off ch=1 n=g#4 v=80
179840 On ch=1 n=g4 v=73
180000 Off ch=1 n=g4 v=80
180000 On ch=1 n=f#4 v=77
180160 Off ch=1 n=f#4 v=80
180160 On ch=1 n=e4 v=81
180320 Off ch=1 n=e4 v=80
180320 On ch=1 n=d4 v=85
180480 Off ch=1 n=d4 v=80
180480 On ch=1 n=b2 v=65
180640 Off ch=1 n=b2 v=80
180640 On ch=1 n=d4 v=73
180800 Off ch=1 n=d4 v=80
180800 On ch=1 n=f4 v=81
180960 Off ch=1 n=f4 v=80
180960 On ch=1 n=g#4 v=90
181120 Off ch=1 n=g#4 v=80
181120 On ch=1 n=a#4 v=90
181280 Off ch=1 n=a#4 v=80
181280 On ch=1 n=b4 v=90
181440 Off ch=1 n=b4 v=80
181600 On ch=1 n=b4 v=69
181760 Off ch=1 n=b4 v=80
181760 On ch=1 n=g#4 v=73
181920 Off ch=1 n=g#4 v=80
181920 On ch=1 n=f4 v=77
182080 Off ch=1 n=f4 v=80
182080 On ch=1 n=e4 v=81
182240 Off ch=1 n=e4 v=80
182240 On ch=1 n=d4 v=85
182400 Off ch=1 n=d4 v=80
182400 On ch=1 n=f4 v=90
182400 On ch=1 n=c#4 v=90
182560 Off ch=1 n=f4 v=80
182560 On ch=1 n=a4 v=90
182720 Off ch=1 n=a4 v=80
182720 On ch=1 n=f5 v=90
182880 Off ch=1 n=c#4 v=80
182880 Off ch=1 n=f5 v=80
182880 On ch=1 n=f#4 v=90
182880 On ch=1 n=a4 v=90
183040 On ch=1 n=c#5 v=90
183200 On ch=1 n=f5 v=90
183360 Off ch=1 n=f5 v=80
184320 Off ch=1 n=c#5 v=80
184320 Off ch=1 n=a4 v=80
184320 Off ch=1 n=f#4 v=80
184320 On ch=1 n=c#4 v=90
184320 On ch=1 n=f4 v=90
184480 Off ch=1 n=f4 v=80
184480 On ch=1 n=a4 v=90
184640 Off ch=1 n=a4 v=80
184640 On ch=1 n=f5 v=90
184800 Off ch=1 n=c#4 v=80
184800 Off ch=1 n=f5 v=80
184800 On ch=1 n=f#4 v=90
184800 On ch=1 n=a4 v=90
184960 On ch=1 n=c#5 v=90
185120 On ch=1 n=f5 v=90
185280 Off ch=1 n=f5 v=80
185760 Off ch=1 n=c#5 v=80
185760 On ch=1 n=d#5 v=100
186240 Off ch=1 n=a4 v=80
186240 Off ch=1 n=f#4 v=80
186240 Off ch=1 n=d#5 v=80
186240 On ch=1 n=c5 v=90
186240 On ch=1 n=f#4 v=90
186400 Off ch=1 n=c5 v=80
186400 On ch=1 n=d#5 v=90
186560 Off ch=1 n=d#5 v=80
186560 On ch=1 n=a5 v=90
186720 Off ch=1 n=f#4 v=80
186720 Off ch=1 n=a5 v=80
186720 On ch=1 n=g4 v=90
186720 On ch=1 n=c5 v=90
186880 On ch=1 n=e5 v=90
187040 On ch=1 n=b5 v=90
187200 Off ch=1 n=b5 v=80
187680 Off ch=1 n=e5 v=80
187680 On ch=1 n=g5 v=90
188160 Off ch=1 n=c5 v=80
188160 Off ch=1 n=g4 v=80
188160 Off ch=1 n=g5 v=80
188160 On ch=1 n=a#4 v=90
188160 On ch=1 n=e5 v=90
188320 Off ch=1 n=e5 v=80
188320 On ch=1 n=g5 v=98
188480 Off ch=1 n=g5 v=80
188480 On ch=1 n=c6 v=98
188640 Off ch=1 n=a#4 v=80
188640 Off ch=1 n=c6 v=80
188640 On ch=1 n=b4 v=106
188640 On ch=1 n=g#5 v=106
188800 On ch=1 n=b5 v=106
188960 Off ch=1 n=b5 v=80
188960 On ch=1 n=b6 v=106
189120 Off ch=1 n=b6 v=80
189600 Off ch=1 n=g#5 v=80
189600 On ch=1 n=d#5 v=114
189600 On ch=1 n=a5 v=114
190080 Off ch=1 n=a5 v=80
190080 Off ch=1 n=b4 v=80
190080 Off ch=1 n=d#5 v=80
190240 On ch=1 n=g#4 v=102
190240 On ch=1 n=e4 v=102
190240 On ch=1 n=d5 v=102
191039 Off ch=1 n=d5 v=80
191040 Off ch=1 n=e4 v=80
191040 Off ch=1 n=g#4 v=80
192000 On ch=1 n=a3 v=65
192160 On ch=1 n=g4 v=47
192320 Off ch=1 n=g4 v=80
192320 On ch=1 n=c#6 v=47
192420 On ch=1 n=a#3 v=65
192480 Off ch=1 n=a#3 v=80
192480 Off ch=1 n=a3 v=80
192480 Off ch=1 n=c#6 v=80
192480 On ch=1 n=a#4 v=65
192960 On ch=1 n=d5 v=65
193440 Off ch=1 n=d5 v=80
193440 On ch=1 n=g5 v=65
193920 Off ch=1 n=g5 v=80
193920 On ch=1 n=c5 v=65
194400 Off ch=1 n=c5 v=80
194400 On ch=1 n=a#3 v=65
194880 Off ch=1 n=a#4 v=80
194880 Off ch=1 n=a#3 v=80
194880 On ch=1 n=a3 v=65
196320 Off ch=1 n=a3 v=80
196320 On ch=1 n=a4 v=65
196800 Off ch=1 n=a4 v=80
196800 On ch=1 n=g4 v=65
196800 On ch=1 n=a#4 v=65
197280 Off ch=1 n=a#4 v=80
197280 On ch=1 n=e5 v=65
197760 Off ch=1 n=e5 v=80
197760 On ch=1 n=a4 v=65
198240 Off ch=1 n=a4 v=80
198240 On ch=1 n=g3 v=65
198720 Off ch=1 n=g4 v=80
198720 Off ch=1 n=g3 v=80
198720 On ch=1 n=f3 v=65
200160 Off ch=1 n=f3 v=80
200160 On ch=1 n=f3 v=65
200320 Off ch=1 n=f3 v=80
200320 On ch=1 n=e3 v=65
200480 Off ch=1 n=e3 v=80
200480 On ch=1 n=d3 v=65
200640 Off ch=1 n=d3 v=80
200640 On ch=1 n=e3 v=65
201840 Off ch=1 n=e3 v=80
202080 On ch=1 n=f3 v=65
202240 Off ch=1 n=f3 v=80
202240 On ch=1 n=e3 v=65
202400 Off ch=1 n=e3 v=80
202400 On ch=1 n=d3 v=65
202560 Off ch=1 n=d3 v=80
202560 On ch=1 n=e3 v=65
203040 On ch=1 n=e4 v=65
204000 Off ch=1 n=e4 v=80
204000 Off ch=1 n=e3 v=80
204000 On ch=1 n=a#3 v=65
204160 Off ch=1 n=a#3 v=80
204160 On ch=1 n=a3 v=61
204320 Off ch=1 n=a3 v=80
204320 On ch=1 n=g3 v=57
204480 Off ch=1 n=g3 v=80
204480 On ch=1 n=a3 v=53
205920 Off ch=1 n=a3 v=80
205920 On ch=1 n=a#3 v=65
206080 Off ch=1 n=a#3 v=80
206080 On ch=1 n=a3 v=61
206240 Off ch=1 n=a3 v=80
206240 On ch=1 n=g3 v=57
206400 Off ch=1 n=g3 v=80
206400 On ch=1 n=a3 v=53
206880 On ch=1 n=a4 v=47
207360 Off ch=1 n=a3 v=80
207360 On ch=1 n=d4 v=53
207520 Off ch=1 n=a4 v=80
207520 On ch=1 n=d5 v=65
207680 Off ch=1 n=d5 v=80
207680 On ch=1 n=f5 v=65
207840 Off ch=1 n=d4 v=80
207840 Off ch=1 n=f5 v=80
209280 On ch=1 n=b4 v=65
209280 On ch=1 n=d4 v=65
209440 Off ch=1 n=d4 v=80
209440 Off ch=1 n=b4 v=80
209440 On ch=1 n=d5 v=65
209600 Off ch=1 n=d5 v=80
209600 On ch=1 n=f#5 v=65
209760 Off ch=1 n=f#5 v=80
211200 On ch=1 n=d4 v=65
211200 On ch=1 n=a4 v=65
211360 Off ch=1 n=a4 v=80
211360 Off ch=1 n=d4 v=80
211360 On ch=1 n=c#5 v=65
211520 Off ch=1 n=c#5 v=80
211520 On ch=1 n=e5 v=65
211680 Off ch=1 n=e5 v=80
211680 On ch=1 n=a5 v=65
211840 Off ch=1 n=a5 v=80
211840 On ch=1 n=g5 v=65
212000 Off ch=1 n=g5 v=80
212000 On ch=1 n=e6 v=65
212160 Off ch=1 n=e6 v=80
212160 On ch=1 n=c#6 v=65
212320 Off ch=1 n=c#6 v=80
212320 On ch=1 n=e5 v=65
212480 Off ch=1 n=e5 v=80
212480 On ch=1 n=c#6 v=65
212640 Off ch=1 n=c#6 v=80
212640 On ch=1 n=a5 v=65
212800 Off ch=1 n=a5 v=80
212800 On ch=1 n=c#5 v=65
212960 Off ch=1 n=c#5 v=80
212960 On ch=1 n=a5 v=65
213120 Off ch=1 n=a5 v=80
213120 On ch=1 n=g5 v=62
213280 Off ch=1 n=g5 v=80
213280 On ch=1 n=a4 v=62
213440 Off ch=1 n=a4 v=80
213440 On ch=1 n=g5 v=62
213600 Off ch=1 n=g5 v=80
213600 On ch=1 n=e5 v=59
213760 Off ch=1 n=e5 v=80
213760 On ch=1 n=g4 v=59
213920 Off ch=1 n=g4 v=80
213920 On ch=1 n=e5 v=59
214080 Off ch=1 n=e5 v=80
214080 On ch=1 n=c#5 v=56
214240 Off ch=1 n=c#5 v=80
214240 On ch=1 n=e4 v=56
214400 Off ch=1 n=e4 v=80
214400 On ch=1 n=c#5 v=56
214560 Off ch=1 n=c#5 v=80
214560 On ch=1 n=a4 v=53
214720 Off ch=1 n=a4 v=80
214720 On ch=1 n=d#4 v=53
214880 Off ch=1 n=d#4 v=80
214880 On ch=1 n=g4 v=53
215040 Off ch=1 n=g4 v=80
215040 On ch=1 n=d4 v=47
215040 On ch=1 n=a4 v=47
215200 Off ch=1 n=a4 v=80
215200 Off ch=1 n=d4 v=80
215200 On ch=1 n=d5 v=59
215360 Off ch=1 n=d5 v=80
215360 On ch=1 n=f5 v=65
215520 Off ch=1 n=f5 v=80
216930 On ch=1 n=b3 v=65
216960 On ch=1 n=a4 v=65
217120 Off ch=1 n=a4 v=80
217120 Off ch=1 n=b3 v=80
217120 On ch=1 n=b4 v=65
217280 Off ch=1 n=b4 v=80
217280 On ch=1 n=c5 v=65
217440 Off ch=1 n=c5 v=80
217920 On ch=1 n=a4 v=53
217920 On ch=1 n=a3 v=53
218400 Off ch=1 n=a3 v=80
218400 Off ch=1 n=a4 v=80
218400 On ch=1 n=b2 v=53
218400 On ch=1 n=b3 v=53
218820 Off ch=1 n=b3 v=80
218850 On ch=1 n=b3 v=65
218880 Off ch=1 n=b2 v=80
218880 On ch=1 n=g4 v=65
219040 Off ch=1 n=b3 v=80
219040 Off ch=1 n=g4 v=80
219040 On ch=1 n=c5 v=65
219200 Off ch=1 n=c5 v=80
219200 On ch=1 n=d#5 v=65
219360 Off ch=1 n=d#5 v=80
220560 On ch=1 n=a#3 v=65
220800 Off ch=1 n=a#3 v=80
220800 On ch=1 n=g4 v=65
220800 On ch=1 n=a3 v=65
220960 Off ch=1 n=a3 v=80
220960 Off ch=1 n=g4 v=80
220960 On ch=1 n=c5 v=65
221120 Off ch=1 n=c5 v=80
221120 On ch=1 n=d#5 v=65
221280 Off ch=1 n=d#5 v=80
221760 On ch=1 n=d4 v=65
221760 On ch=1 n=c5 v=65
221920 Off ch=1 n=c5 v=80
221920 Off ch=1 n=d4 v=80
221920 On ch=1 n=f#5 v=65
222080 Off ch=1 n=f#5 v=80
222480 On ch=1 n=d3 v=65
222720 Off ch=1 n=d3 v=80
222720 On ch=1 n=g3 v=65
222720 On ch=1 n=d4 v=65
222880 Off ch=1 n=d4 v=80
222880 Off ch=1 n=g3 v=80
222880 On ch=1 n=g4 v=65
223040 Off ch=1 n=g4 v=80
223040 On ch=1 n=a4 v=65
223200 Off ch=1 n=a4 v=80
223840 On ch=1 n=c#5 v=69
224000 Off ch=1 n=c#5 v=80
224000 On ch=1 n=c5 v=73
224160 Off ch=1 n=c5 v=80
224160 On ch=1 n=b4 v=77
224320 Off ch=1 n=b4 v=80
224320 On ch=1 n=a4 v=81
224480 Off ch=1 n=a4 v=80
224480 On ch=1 n=g4 v=85
224640 Off ch=1 n=g4 v=80
224640 On ch=1 n=e3 v=65
224800 Off ch=1 n=e3 v=80
224800 On ch=1 n=g4 v=73
224960 Off ch=1 n=g4 v=80
224960 On ch=1 n=a#4 v=81
225120 Off ch=1 n=a#4 v=80
225120 On ch=1 n=c#5 v=90
225280 Off ch=1 n=c#5 v=80
225280 On ch=1 n=d#5 v=90
225440 Off ch=1 n=d#5 v=80
225440 On ch=1 n=e5 v=90
225600 Off ch=1 n=e5 v=80
225760 On ch=1 n=e5 v=69
225920 Off ch=1 n=e5 v=80
225920 On ch=1 n=c#5 v=73
226080 Off ch=1 n=c#5 v=80
226080 On ch=1 n=a#4 v=77
226240 Off ch=1 n=a#4 v=80
226240 On ch=1 n=a4 v=81
226400 Off ch=1 n=a4 v=80
226400 On ch=1 n=g4 v=85
226560 Off ch=1 n=g4 v=80
226560 On ch=1 n=a#4 v=90
226560 On ch=1 n=f#4 v=90
226720 Off ch=1 n=a#4 v=80
226720 On ch=1 n=d5 v=90
226880 Off ch=1 n=d5 v=80
226880 On ch=1 n=a#5 v=90
227040 Off ch=1 n=f#4 v=80
227040 Off ch=1 n=a#5 v=80
227040 On ch=1 n=b4 v=90
227040 On ch=1 n=d5 v=90
227200 On ch=1 n=f#5 v=90
227360 On ch=1 n=a#5 v=90
227520 Off ch=1 n=a#5 v=80
228480 Off ch=1 n=f#5 v=80
228480 Off ch=1 n=d5 v=80
228480 Off ch=1 n=b4 v=80
228480 On ch=1 n=a#4 v=90
228480 On ch=1 n=f#4 v=90
228640 Off ch=1 n=a#4 v=80
228640 On ch=1 n=d5 v=90
228800 Off ch=1 n=d5 v=80
228800 On ch=1 n=a#5 v=90
228960 Off ch=1 n=f#4 v=80
228960 Off ch=1 n=a#5 v=80
228960 On ch=1 n=b4 v=90
228960 On ch=1 n=d5 v=90
229120 On ch=1 n=f#5 v=90
229280 On ch=1 n=a#5 v=90
229440 Off ch=1 n=a#5 v=80
229920 Off ch=1 n=f#5 v=80
229920 On ch=1 n=g#5 v=100
230400 Off ch=1 n=d5 v=80
230400 Off ch=1 n=b4 v=80
230400 Off ch=1 n=g#5 v=80
230400 On ch=1 n=f5 v=90
230400 On ch=1 n=b4 v=90
230560 Off ch=1 n=f5 v=80
230560 On ch=1 n=g#5 v=90
230720 Off ch=1 n=g#5 v=80
230720 On ch=1 n=d6 v=90
230880 Off ch=1 n=b4 v=80
230880 Off ch=1 n=d6 v=80
230880 On ch=1 n=c5 v=90
230880 On ch=1 n=f5 v=90
231040 On ch=1 n=a5 v=90
231200 On ch=1 n=e6 v=90
231360 Off ch=1 n=e6 v=80
231840 Off ch=1 n=a5 v=80
231840 On ch=1 n=c6 v=90
232320 Off ch=1 n=f5 v=80
232320 Off ch=1 n=c5 v=80
232320 Off ch=1 n=c6 v=80
232320 On ch=1 n=a5 v=90
232320 On ch=1 n=d#5 v=90
232480 Off ch=1 n=a5 v=80
232480 On ch=1 n=c6 v=98
232640 Off ch=1 n=c6 v=80
232640 On ch=1 n=f6 v=98
232800 Off ch=1 n=d#5 v=80
232800 Off ch=1 n=f6 v=80
232800 On ch=1 n=e5 v=106
232800 On ch=1 n=c#6 v=106
232960 On ch=1 n=e6 v=106
233120 Off ch=1 n=e6 v=80
233120 On ch=1 n=e7 v=106
233280 Off ch=1 n=e7 v=80
233760 Off ch=1 n=c#6 v=80
233760 On ch=1 n=g#5 v=114
233760 On ch=1 n=d6 v=114
234240 Off ch=1 n=d6 v=80
234240 Off ch=1 n=e5 v=80
234240 Off ch=1 n=g#5 v=80
234400 On ch=1 n=c#5 v=102
234400 On ch=1 n=a4 v=102
234400 On ch=1 n=g5 v=102
235199 Off ch=1 n=g5 v=80
235200 Off ch=1 n=a4 v=80
235200 Off ch=1 n=c#5 v=80
236160 On ch=1 n=d3 v=53
236160 On ch=1 n=d4 v=53
237600 Off ch=1 n=d4 v=80
237600 Off ch=1 n=d3 v=80
237600 On ch=1 n=d2 v=53
237600 On ch=1 n=d3 v=53
239520 Off ch=1 n=d3 v=80
239520 Off ch=1 n=d2 v=80
240360 On ch=1 n=d4 v=53
240420 Off ch=1 n=d4 v=80
240480 On ch=1 n=d4 v=53
240660 Off ch=1 n=d4 v=80
240840 On ch=1 n=e4 v=53
240900 Off ch=1 n=e4 v=80
240960 On ch=1 n=f#4 v=65
241080 Off ch=1 n=f#4 v=80
241440 On ch=1 n=b3 v=53
241440 On ch=1 n=b2 v=53
241560 Off ch=1 n=b2 v=80
241560 Off ch=1 n=b3 v=80
241920 On ch=1 n=e3 v=61
241920 On ch=1 n=e4 v=61
242040 Off ch=1 n=e4 v=80
242040 Off ch=1 n=e3 v=80
242400 On ch=1 n=a2 v=70
242400 On ch=1 n=a3 v=70
242520 Off ch=1 n=a3 v=80
242520 Off ch=1 n=a2 v=80
242760 On ch=1 n=a3 v=70
242760 On ch=1 n=a2 v=70
242820 Off ch=1 n=a2 v=80
242820 Off ch=1 n=a3 v=80
242880 On ch=1 n=b2 v=78
242880 On ch=1 n=b3 v=78
243000 Off ch=1 n=b3 v=80
243000 Off ch=1 n=b2 v=80
243360 On ch=1 n=b2 v=65
243360 On ch=1 n=b3 v=65
243480 Off ch=1 n=b3 v=80
243480 Off ch=1 n=b2 v=80
243840 On ch=1 n=e3 v=114
243840 On ch=1 n=e2 v=114
243960 Off ch=1 n=e2 v=80
243960 Off ch=1 n=e3 v=80
245280 On ch=1 n=e3 v=90
245280 On ch=1 n=e4 v=90
247920 Off ch=1 n=e4 v=80
247920 Off ch=1 n=e3 v=80
248040 On ch=1 n=e4 v=65
248100 Off ch=1 n=e4 v=80
248160 On ch=1 n=e4 v=65
248340 Off ch=1 n=e4 v=80
248520 On ch=1 n=f#4 v=65
248580 Off ch=1 n=f#4 v=80
248640 On ch=1 n=g#4 v=65
248760 Off ch=1 n=g#4 v=80
249120 On ch=1 n=c#3 v=53
249120 On ch=1 n=c#4 v=53
249240 Off ch=1 n=c#4 v=80
249240 Off ch=1 n=c#3 v=80
249600 On ch=1 n=f#4 v=61
249600 On ch=1 n=f#3 v=61
249720 Off ch=1 n=f#3 v=80
249720 Off ch=1 n=f#4 v=80
250080 On ch=1 n=b3 v=70
250080 On ch=1 n=b2 v=70
250200 Off ch=1 n=b2 v=80
250200 Off ch=1 n=b3 v=80
250440 On ch=1 n=b3 v=70
250440 On ch=1 n=b2 v=70
250500 Off ch=1 n=b2 v=80
250500 Off ch=1 n=b3 v=80
250560 On ch=1 n=c#4 v=78
250560 On ch=1 n=c#3 v=78
250680 Off ch=1 n=c#3 v=80
250680 Off ch=1 n=c#4 v=80
251040 On ch=1 n=c#2 v=65
251040 On ch=1 n=c#3 v=65
251160 Off ch=1 n=c#3 v=80
251160 Off ch=1 n=c#2 v=80
251520 On ch=1 n=f#3 v=53
251520 On ch=1 n=f#2 v=53
251640 Off ch=1 n=f#2 v=80
251640 Off ch=1 n=f#3 v=80
252480 On ch=1 n=c#4 v=71
253440 On ch=1 n=c#3 v=78
253680 Off ch=1 n=c#3 v=80
253680 Off ch=1 n=c#4 v=80
253800 On ch=1 n=c#4 v=78
253860 Off ch=1 n=c#4 v=80
253920 On ch=1 n=c#4 v=78
254040 Off ch=1 n=c#4 v=80
254280 On ch=1 n=d#4 v=78
254340 Off ch=1 n=d#4 v=80
254400 On ch=1 n=e4 v=86
254520 Off ch=1 n=e4 v=80
254760 On ch=1 n=e4 v=86
254820 Off ch=1 n=e4 v=80
254880 On ch=1 n=e4 v=94
255000 Off ch=1 n=e4 v=80
255240 On ch=1 n=g#4 v=94
255300 Off ch=1 n=g#4 v=80
255360 On ch=1 n=a4 v=102
255360 On ch=1 n=f#4 v=102
255480 Off ch=1 n=f#4 v=80
255480 Off ch=1 n=a4 v=80
255840 On ch=1 n=f#4 v=112
255840 On ch=1 n=f#3 v=112
256800 Off ch=1 n=f#3 v=80
256800 Off ch=1 n=f#4 v=80
256800 On ch=1 n=g#3 v=119
256800 On ch=1 n=g#4 v=119
257760 Off ch=1 n=g#4 v=80
257760 Off ch=1 n=g#3 v=80
257760 On ch=1 n=a4 v=127
257760 On ch=1 n=a3 v=127
258720 Off ch=1 n=a4 v=80
258720 On ch=1 n=d3 v=112
258720 On ch=1 n=d4 v=112
259200 Off ch=1 n=a3 v=80
259680 Off ch=1 n=d3 v=80
259680 Off ch=1 n=d4 v=80
259680 On ch=1 n=b3 v=100
259680 On ch=1 n=b2 v=100
260640 Off ch=1 n=b2 v=80
260640 Off ch=1 n=b3 v=80
260640 On ch=1 n=c#4 v=90
260640 On ch=1 n=c#3 v=90
261120 Off ch=1 n=c#3 v=80
261120 Off ch=1 n=c#4 v=80
261120 On ch=1 n=f#3 v=78
261120 On ch=1 n=f#2 v=78
262560 Off ch=1 n=f#2 v=80
262560 Off ch=1 n=f#3 v=80
262560 On ch=1 n=f#3 v=90
262560 On ch=1 n=f#4 v=90
265200 Off ch=1 n=f#4 v=80
265200 Off ch=1 n=f#3 v=80
265320 On ch=1 n=f#4 v=65
265380 Off ch=1 n=f#4 v=80
265440 On ch=1 n=f#4 v=65
265560 Off ch=1 n=f#4 v=80
265800 On ch=1 n=g#4 v=65
265860 Off ch=1 n=g#4 v=80
265920 On ch=1 n=a#4 v=65
266040 Off ch=1 n=a#4 v=80
266400 On ch=1 n=d#4 v=53
266400 On ch=1 n=d#3 v=53
266520 Off ch=1 n=d#3 v=80
266520 Off ch=1 n=d#4 v=80
266880 On ch=1 n=g#3 v=53
266880 On ch=1 n=g#4 v=53
267000 Off ch=1 n=g#4 v=80
267000 Off ch=1 n=g#3 v=80
267360 On ch=1 n=c#3 v=53
267360 On ch=1 n=c#4 v=53
267480 Off ch=1 n=c#4 v=80
267480 Off ch=1 n=c#3 v=80
267720 On ch=1 n=c#4 v=53
267720 On ch=1 n=c#3 v=53
267780 Off ch=1 n=c#3 v=80
267780 Off ch=1 n=c#4 v=80
267840 On ch=1 n=d#4 v=53
267840 On ch=1 n=d#3 v=53
267960 Off ch=1 n=d#3 v=80
267960 Off ch=1 n=d#4 v=80
268320 On ch=1 n=d#2 v=53
268320 On ch=1 n=d#3 v=53
268440 Off ch=1 n=d#3 v=80
268440 Off ch=1 n=d#2 v=80
268800 On ch=1 n=g#3 v=53
268800 On ch=1 n=g#2 v=53
268920 Off ch=1 n=g#2 v=80
268920 Off ch=1 n=g#3 v=80
270240 On ch=1 n=g#3 v=90
270240 On ch=1 n=g#4 v=90
272880 Off ch=1 n=g#4 v=80
272880 Off ch=1 n=g#3 v=80
273000 On ch=1 n=g#4 v=65
273060 Off ch=1 n=g#4 v=80
273120 On ch=1 n=g#4 v=65
273240 Off ch=1 n=g#4 v=80
273480 On ch=1 n=a#4 v=65
273540 Off ch=1 n=a#4 v=80
273600 On ch=1 n=c5 v=65
273720 Off ch=1 n=c5 v=80
274080 On ch=1 n=f3 v=53
274080 On ch=1 n=f4 v=53
274200 Off ch=1 n=f4 v=80
274200 Off ch=1 n=f3 v=80
274560 On ch=1 n=a#4 v=53
274560 On ch=1 n=a#3 v=53
274680 Off ch=1 n=a#3 v=80
274680 Off ch=1 n=a#4 v=80
275040 On ch=1 n=d#4 v=53
275040 On ch=1 n=d#3 v=53
275160 Off ch=1 n=d#3 v=80
275160 Off ch=1 n=d#4 v=80
275400 On ch=1 n=d#4 v=53
275400 On ch=1 n=d#3 v=53
275460 Off ch=1 n=d#3 v=80
275460 Off ch=1 n=d#4 v=80
275520 On ch=1 n=f4 v=53
275520 On ch=1 n=f3 v=53
275640 Off ch=1 n=f3 v=80
275640 Off ch=1 n=f4 v=80
276000 On ch=1 n=f2 v=53
276000 On ch=1 n=f3 v=53
276120 Off ch=1 n=f3 v=80
276120 Off ch=1 n=f2 v=80
276480 On ch=1 n=a#3 v=53
276480 On ch=1 n=a#2 v=53
276600 Off ch=1 n=a#2 v=80
276600 Off ch=1 n=a#3 v=80
277440 On ch=1 n=f4 v=69
278400 On ch=1 n=f3 v=78
278640 Off ch=1 n=f3 v=80
278640 Off ch=1 n=f4 v=80
278760 On ch=1 n=f4 v=78
278820 Off ch=1 n=f4 v=80
278880 On ch=1 n=f4 v=78
279000 Off ch=1 n=f4 v=80
279240 On ch=1 n=g4 v=78
279300 Off ch=1 n=g4 v=80
279360 On ch=1 n=g#4 v=90
279480 Off ch=1 n=g#4 v=80
279720 On ch=1 n=g#4 v=90
279780 Off ch=1 n=g#4 v=80
279840 On ch=1 n=g#4 v=102
279960 Off ch=1 n=g#4 v=80
280200 On ch=1 n=c5 v=102
280260 Off ch=1 n=c5 v=80
280320 On ch=1 n=c#5 v=114
280560 Off ch=1 n=c#5 v=80
281280 On ch=1 n=f#4 v=94
281280 On ch=1 n=f#3 v=94
282240 Off ch=1 n=f#3 v=80
282240 Off ch=1 n=f#4 v=80
282240 On ch=1 n=c#3 v=90
282480 Off ch=1 n=c#3 v=80
282600 On ch=1 n=c#4 v=90
282660 Off ch=1 n=c#4 v=80
282720 On ch=1 n=c#4 v=90
282840 Off ch=1 n=c#4 v=80
283080 On ch=1 n=d#4 v=90
283140 Off ch=1 n=d#4 v=80
283200 On ch=1 n=f4 v=98
283320 Off ch=1 n=f4 v=80
283560 On ch=1 n=f4 v=98
283620 Off ch=1 n=f4 v=80
283680 On ch=1 n=f4 v=106
283800 Off ch=1 n=f4 v=80
284040 On ch=1 n=g#4 v=106
284100 Off ch=1 n=g#4 v=80
284160 On ch=1 n=a3 v=114
284160 On ch=1 n=a4 v=114
285360 Off ch=1 n=a4 v=80
285360 Off ch=1 n=a3 v=80
285600 On ch=1 n=g4 v=114
286080 On ch=1 n=a3 v=114
286560 Off ch=1 n=g4 v=80
286560 On ch=1 n=f4 v=102
286800 Off ch=1 n=f4 v=80
286920 On ch=1 n=a4 v=102
287040 Off ch=1 n=a3 v=80
287040 Off ch=1 n=a4 v=80
287040 On ch=1 n=d5 v=102
287280 Off ch=1 n=d5 v=80
287520 On ch=1 n=a4 v=114
288000 On ch=1 n=a3 v=114
288480 Off ch=1 n=a4 v=80
288480 On ch=1 n=g4 v=102
288720 Off ch=1 n=g4 v=80
288840 On ch=1 n=c#5 v=102
288960 Off ch=1 n=a3 v=80
288960 Off ch=1 n=c#5 v=80
288960 On ch=1 n=e5 v=102
289200 Off ch=1 n=e5 v=80
289440 On ch=1 n=a#4 v=114
289920 On ch=1 n=a3 v=114
290400 Off ch=1 n=a#4 v=80
290400 On ch=1 n=a4 v=102
290640 Off ch=1 n=a4 v=80
290760 On ch=1 n=d5 v=102
290880 Off ch=1 n=a3 v=80
290880 Off ch=1 n=d5 v=80
290880 On ch=1 n=f5 v=102
291120 Off ch=1 n=f5 v=80
291360 On ch=1 n=a4 v=114
291840 On ch=1 n=a3 v=114
292320 Off ch=1 n=a3 v=80
292320 Off ch=1 n=a4 v=80
292320 On ch=1 n=b5 v=88
292560 Off ch=1 n=b5 v=80
292800 On ch=1 n=c5 v=95
293040 Off ch=1 n=c5 v=80
293280 On ch=1 n=a5 v=95
293520 Off ch=1 n=a5 v=80
293760 On ch=1 n=a#4 v=102
294000 Off ch=1 n=a#4 v=80
294240 On ch=1 n=g5 v=102
294480 Off ch=1 n=g5 v=80
294720 On ch=1 n=a4 v=109
294960 Off ch=1 n=a4 v=80
295200 On ch=1 n=f5 v=109
295440 Off ch=1 n=f5 v=80
295680 On ch=1 n=g4 v=116
295920 Off ch=1 n=g4 v=80
296160 On ch=1 n=f4 v=116
296160 On ch=1 n=f5 v=116
296640 Off ch=1 n=f5 v=80
296640 Off ch=1 n=f4 v=80
296640 On ch=1 n=e4 v=124
296640 On ch=1 n=e5 v=124
297120 Off ch=1 n=e5 v=80
297120 Off ch=1 n=e4 v=80
297120 On ch=1 n=d5 v=124
297120 On ch=1 n=d4 v=124
297600 Off ch=1 n=d4 v=80
297600 Off ch=1 n=d5 v=80
297600 On ch=1 n=a#3 v=124
297600 On ch=1 n=a#4 v=124
298080 Off ch=1 n=a#4 v=80
298080 Off ch=1 n=a#3 v=80
298080 On ch=1 n=g3 v=124
298080 On ch=1 n=g4 v=124
298560 Off ch=1 n=g4 v=80
298560 Off ch=1 n=g3 v=80
298560 On ch=1 n=e3 v=124
298560 On ch=1 n=e4 v=124
299040 Off ch=1 n=e4 v=80
299040 Off ch=1 n=e3 v=80
299040 On ch=1 n=a#3 v=124
299040 On ch=1 n=a#2 v=124
299520 Off ch=1 n=a#2 v=80
299520 Off ch=1 n=a#3 v=80
299520 On ch=1 n=a3 v=114
299520 On ch=1 n=a2 v=114
300000 Off ch=1 n=a2 v=80
300000 Off ch=1 n=a3 v=80
300000 On ch=1 n=e2 v=95
300000 On ch=1 n=e3 v=95
300480 Off ch=1 n=e3 v=80
300480 Off ch=1 n=e2 v=80
300480 On ch=1 n=c#3 v=95
300480 On ch=1 n=c#2 v=95
300960 Off ch=1 n=c#2 v=80
300960 Off ch=1 n=c#3 v=80
300960 On ch=1 n=c3 v=95
300960 On ch=1 n=c2 v=95
301920 Off ch=1 n=c2 v=80
301920 Off ch=1 n=c3 v=80
301920 On ch=1 n=g2 v=105
301920 On ch=1 n=g3 v=105
302400 Off ch=1 n=g3 v=80
302400 Off ch=1 n=g2 v=80
302400 On ch=1 n=e3 v=105
302400 On ch=1 n=e2 v=105
302880 Off ch=1 n=e2 v=80
302880 Off ch=1 n=e3 v=80
302880 On ch=1 n=d#3 v=105
302880 On ch=1 n=d#2 v=105
303840 Off ch=1 n=d#2 v=80
303840 Off ch=1 n=d#3 v=80
303840 On ch=1 n=a#3 v=115
303840 On ch=1 n=a#2 v=115
304320 Off ch=1 n=a#2 v=80
304320 Off ch=1 n=a#3 v=80
304320 On ch=1 n=g3 v=115
304320 On ch=1 n=g2 v=115
304800 Off ch=1 n=g2 v=80
304800 Off ch=1 n=g3 v=80
304800 On ch=1 n=f#2 v=115
304800 On ch=1 n=f#3 v=115
305760 Off ch=1 n=f#3 v=80
305760 Off ch=1 n=f#2 v=80
305760 On ch=1 n=c#3 v=100
305760 On ch=1 n=c#4 v=100
306240 Off ch=1 n=c#4 v=80
306240 Off ch=1 n=c#3 v=80
306240 On ch=1 n=a#3 v=105
306240 On ch=1 n=a#2 v=105
306720 Off ch=1 n=a#2 v=80
306720 Off ch=1 n=a#3 v=80
306720 On ch=1 n=a3 v=110
306720 On ch=1 n=a2 v=110
307200 Off ch=1 n=a2 v=80
307200 Off ch=1 n=a3 v=80
307200 On ch=1 n=d2 v=127
307200 On ch=1 n=d3 v=127
307620 On ch=1 n=a#4 v=114
307650 On ch=1 n=d5 v=114
307680 Off ch=1 n=d3 v=80
307680 Off ch=1 n=d2 v=80
307680 On ch=1 n=a#5 v=114
307920 Off ch=1 n=a#4 v=80
307920 Off ch=1 n=d5 v=80
307920 Off ch=1 n=a#5 v=80
308100 On ch=1 n=a4 v=114
308130 On ch=1 n=d5 v=114
308160 On ch=1 n=a5 v=114
308400 Off ch=1 n=a5 v=80
308400 Off ch=1 n=d5 v=80
308400 Off ch=1 n=a4 v=80
308580 On ch=1 n=g#4 v=114
308610 On ch=1 n=d5 v=114
308640 On ch=1 n=g#5 v=114
308880 Off ch=1 n=g#5 v=80
308880 Off ch=1 n=d5 v=80
308880 Off ch=1 n=g#4 v=80
309060 On ch=1 n=g4 v=114
309090 On ch=1 n=d5 v=114
309120 On ch=1 n=g5 v=114
309360 Off ch=1 n=g5 v=80
309360 Off ch=1 n=d5 v=80
309360 Off ch=1 n=g4 v=80
309540 On ch=1 n=a4 v=114
309570 On ch=1 n=c#5 v=114
309600 On ch=1 n=a5 v=114
309840 Off ch=1 n=a5 v=80
309840 Off ch=1 n=c#5 v=80
309840 Off ch=1 n=a4 v=80
310020 On ch=1 n=f#4 v=114
310050 On ch=1 n=a4 v=114
310080 On ch=1 n=f#5 v=114
310320 Off ch=1 n=f#5 v=80
310320 Off ch=1 n=a4 v=80
310320 Off ch=1 n=f#4 v=80
310500 On ch=1 n=d4 v=114
310530 On ch=1 n=f#4 v=114
310560 On ch=1 n=d5 v=114
310800 Off ch=1 n=d5 v=80
310800 Off ch=1 n=f#4 v=80
310800 Off ch=1 n=d4 v=80
310980 On ch=1 n=c#4 v=114
311010 On ch=1 n=e4 v=114
311040 On ch=1 n=c#5 v=114
311280 Off ch=1 n=c#5 v=80
311280 Off ch=1 n=e4 v=80
311280 Off ch=1 n=c#4 v=80
311460 On ch=1 n=c4 v=114
311490 On ch=1 n=d#4 v=114
311520 On ch=1 n=c5 v=114
311760 Off ch=1 n=c5 v=80
311760 Off ch=1 n=d#4 v=80
311760 Off ch=1 n=c4 v=80
311940 On ch=1 n=b3 v=114
311970 On ch=1 n=d4 v=114
312000 On ch=1 n=b4 v=114
312240 Off ch=1 n=b4 v=80
312240 Off ch=1 n=d4 v=80
312240 Off ch=1 n=b3 v=80
312420 On ch=1 n=a#3 v=114
312450 On ch=1 n=d4 v=114
312480 On ch=1 n=a#4 v=114
312720 Off ch=1 n=a#4 v=80
312720 Off ch=1 n=d4 v=80
312720 Off ch=1 n=a#3 v=80
312900 On ch=1 n=a3 v=114
312930 On ch=1 n=d4 v=114
312960 On ch=1 n=a4 v=114
313200 Off ch=1 n=a4 v=80
313200 Off ch=1 n=d4 v=80
313200 Off ch=1 n=a3 v=80
313380 On ch=1 n=g#3 v=114
313410 On ch=1 n=d4 v=114
313440 On ch=1 n=g#4 v=114
313680 Off ch=1 n=g#4 v=80
313680 Off ch=1 n=d4 v=80
313680 Off ch=1 n=g#3 v=80
313860 On ch=1 n=a3 v=114
313890 On ch=1 n=c#4 v=114
313920 On ch=1 n=a4 v=114
314160 Off ch=1 n=a4 v=80
314160 Off ch=1 n=c#4 v=80
314160 Off ch=1 n=a3 v=80
314400 On ch=1 n=a3 v=102
314400 On ch=1 n=a2 v=102
314520 Off ch=1 n=a2 v=80
314520 Off ch=1 n=a3 v=80
314640 On ch=1 n=g#3 v=114
314640 On ch=1 n=g#2 v=114
314760 Off ch=1 n=g#2 v=80
314760 Off ch=1 n=g#3 v=80
314880 On ch=1 n=f#3 v=127
314880 On ch=1 n=f#2 v=127
315300 Off ch=1 n=f#2 v=80
315300 Off ch=1 n=f#3 v=80
315300 On ch=1 n=d5 v=114
315330 On ch=1 n=f#5 v=114
315360 On ch=1 n=d6 v=114
315600 Off ch=1 n=d6 v=80
315600 Off ch=1 n=f#5 v=80
315600 Off ch=1 n=d5 v=80
315780 On ch=1 n=c#5 v=114
315810 On ch=1 n=f#5 v=114
315840 On ch=1 n=c#6 v=114
316080 Off ch=1 n=c#6 v=80
316080 Off ch=1 n=f#5 v=80
316080 Off ch=1 n=c#5 v=80
316260 On ch=1 n=a4 v=114
316290 On ch=1 n=c#5 v=114
316320 On ch=1 n=a5 v=114
316560 Off ch=1 n=a5 v=80
316560 Off ch=1 n=c#5 v=80
316560 Off ch=1 n=a4 v=80
316740 On ch=1 n=b4 v=114
316770 On ch=1 n=d5 v=114
316800 On ch=1 n=b5 v=114
317040 Off ch=1 n=b5 v=80
317040 Off ch=1 n=d5 v=80
317040 Off ch=1 n=b4 v=80
317220 On ch=1 n=c#5 v=114
317250 On ch=1 n=f5 v=114
317280 On ch=1 n=c#6 v=114
317520 Off ch=1 n=c#6 v=80
317520 Off ch=1 n=f5 v=80
317520 Off ch=1 n=c#5 v=80
317700 On ch=1 n=a4 v=114
317730 On ch=1 n=c#5 v=114
317760 On ch=1 n=a5 v=114
318000 Off ch=1 n=a5 v=80
318000 Off ch=1 n=c#5 v=80
318000 Off ch=1 n=a4 v=80
318240 On ch=1 n=f#3 v=102
318240 On ch=1 n=f#2 v=102
318360 Off ch=1 n=f#2 v=80
318360 Off ch=1 n=f#3 v=80
318480 On ch=1 n=f3 v=114
318480 On ch=1 n=f2 v=114
318600 Off ch=1 n=f2 v=80
318600 Off ch=1 n=f3 v=80
318720 On ch=1 n=e2 v=127
318720 On ch=1 n=e3 v=127
319140 Off ch=1 n=e3 v=80
319140 Off ch=1 n=e2 v=80
319140 On ch=1 n=f#5 v=114
319170 On ch=1 n=a5 v=114
319200 On ch=1 n=f#6 v=114
319440 Off ch=1 n=f#6 v=80
319440 Off ch=1 n=a5 v=80
319440 Off ch=1 n=f#5 v=80
319620 On ch=1 n=e5 v=114
319650 On ch=1 n=a5 v=114
319680 On ch=1 n=e6 v=114
319920 Off ch=1 n=e6 v=80
319920 Off ch=1 n=a5 v=80
319920 Off ch=1 n=e5 v=80
320100 On ch=1 n=c#5 v=114
320130 On ch=1 n=e5 v=114
320160 On ch=1 n=c#6 v=114
320400 Off ch=1 n=c#6 v=80
320400 Off ch=1 n=e5 v=80
320400 Off ch=1 n=c#5 v=80
320580 On ch=1 n=d5 v=114
320610 On ch=1 n=f#5 v=114
320640 On ch=1 n=d6 v=114
320880 Off ch=1 n=d6 v=80
320880 Off ch=1 n=f#5 v=80
320880 Off ch=1 n=d5 v=80
321060 On ch=1 n=e5 v=114
321090 On ch=1 n=g#5 v=114
321120 On ch=1 n=e6 v=114
321360 Off ch=1 n=e6 v=80
321360 Off ch=1 n=g#5 v=80
321360 Off ch=1 n=e5 v=80
321540 On ch=1 n=c#5 v=114
321570 On ch=1 n=e5 v=114
321600 On ch=1 n=c#6 v=114
321840 Off ch=1 n=c#6 v=80
321840 Off ch=1 n=e5 v=80
321840 Off ch=1 n=c#5 v=80
322080 On ch=1 n=f#3 v=90
322080 On ch=1 n=f#2 v=90
322200 Off ch=1 n=f#2 v=80
322200 Off ch=1 n=f#3 v=80
322320 On ch=1 n=e2 v=102
322320 On ch=1 n=e3 v=102
322440 Off ch=1 n=e3 v=80
322440 Off ch=1 n=e2 v=80
322560 On ch=1 n=d3 v=96
322560 On ch=1 n=d2 v=96
324000 Off ch=1 n=d2 v=80
324000 Off ch=1 n=d3 v=80
324480 On ch=1 n=g3 v=65
324480 On ch=1 n=g2 v=65
324600 Off ch=1 n=g2 v=80
324600 Off ch=1 n=g3 v=80
324960 On ch=1 n=c#3 v=65
324960 On ch=1 n=c#4 v=65
325080 Off ch=1 n=c#4 v=80
325080 Off ch=1 n=c#3 v=80
325440 On ch=1 n=f#3 v=65
325440 On ch=1 n=f#2 v=65
325560 Off ch=1 n=f#2 v=80
325560 Off ch=1 n=f#3 v=80
325920 On ch=1 n=b3 v=65
325920 On ch=1 n=b2 v=65
326040 Off ch=1 n=b2 v=80
326040 Off ch=1 n=b3 v=80
326400 On ch=1 n=e3 v=65
326400 On ch=1 n=e2 v=65
327840 Off ch=1 n=e2 v=80
327840 Off ch=1 n=e3 v=80
328320 On ch=1 n=a3 v=65
328320 On ch=1 n=a2 v=65
328440 Off ch=1 n=a2 v=80
328440 Off ch=1 n=a3 v=80
328800 On ch=1 n=d3 v=65
328800 On ch=1 n=d2 v=65
328920 Off ch=1 n=d2 v=80
328920 Off ch=1 n=d3 v=80
329280 On ch=1 n=g3 v=65
329280 On ch=1 n=g2 v=65
329400 Off ch=1 n=g2 v=80
329400 Off ch=1 n=g3 v=80
329760 On ch=1 n=c#2 v=65
329760 On ch=1 n=c#3 v=65
329880 Off ch=1 n=c#3 v=80
329880 Off ch=1 n=c#2 v=80
330240 On ch=1 n=f#2 v=89
330240 On ch=1 n=f#3 v=89
330720 Off ch=1 n=f#3 v=80
330720 Off ch=1 n=f#2 v=80
330720 On ch=1 n=b3 v=97
330720 On ch=1 n=b2 v=97
331200 Off ch=1 n=b2 v=80
331200 Off ch=1 n=b3 v=80
331200 On ch=1 n=e4 v=105
331200 On ch=1 n=e3 v=105
331680 Off ch=1 n=e3 v=80
331680 Off ch=1 n=e4 v=80
331680 On ch=1 n=a4 v=113
331680 On ch=1 n=a3 v=113
332160 Off ch=1 n=a3 v=80
332160 Off ch=1 n=a4 v=80
332160 On ch=1 n=d4 v=89
332160 On ch=1 n=d5 v=89
332580 Off ch=1 n=d5 v=80
332580 Off ch=1 n=d4 v=80
332580 On ch=1 n=g#3 v=89
332600 On ch=1 n=d4 v=89
332620 On ch=1 n=f4 v=89
332640 On ch=1 n=b4 v=89
332880 Off ch=1 n=b4 v=80
332880 Off ch=1 n=f4 v=80
332880 Off ch=1 n=d4 v=80
332880 Off ch=1 n=g#3 v=80
333060 On ch=1 n=a3 v=89
333080 On ch=1 n=d4 v=89
333100 On ch=1 n=f#4 v=89
333120 On ch=1 n=a4 v=89
333360 Off ch=1 n=a4 v=80
333360 Off ch=1 n=f#4 v=80
333360 Off ch=1 n=d4 v=80
333360 Off ch=1 n=a3 v=80
333540 On ch=1 n=a3 v=89
333560 On ch=1 n=c#4 v=89
333580 On ch=1 n=e4 v=89
333600 On ch=1 n=c#5 v=89
333840 Off ch=1 n=c#5 v=80
333840 Off ch=1 n=e4 v=80
333840 Off ch=1 n=c#4 v=80
333840 Off ch=1 n=a3 v=80
334080 On ch=1 n=d4 v=65
334080 On ch=1 n=d3 v=65
334320 Off ch=1 n=d3 v=80
334320 Off ch=1 n=d4 v=80
334440 On ch=1 n=a5 v=65
334440 On ch=1 n=f#5 v=65
334440 On ch=1 n=c5 v=65
334560 Off ch=1 n=c5 v=80
334560 Off ch=1 n=f#5 v=80
334560 Off ch=1 n=a5 v=80
334560 On ch=1 n=a5 v=78
334560 On ch=1 n=f#5 v=78
334560 On ch=1 n=c5 v=78
334800 Off ch=1 n=c5 v=80
334800 Off ch=1 n=f#5 v=80
334800 Off ch=1 n=a5 v=80
334920 On ch=1 n=b5 v=78
334920 On ch=1 n=f#5 v=78
334920 On ch=1 n=d5 v=78
335040 Off ch=1 n=d5 v=80
335040 Off ch=1 n=f#5 v=80
335040 Off ch=1 n=b5 v=80
335040 On ch=1 n=c6 v=100
335040 On ch=1 n=f#5 v=100
335040 On ch=1 n=e5 v=100
335520 Off ch=1 n=e5 v=80
335520 Off ch=1 n=f#5 v=80
335520 Off ch=1 n=c6 v=80
335520 On ch=1 n=b5 v=90
335520 On ch=1 n=f#5 v=90
335520 On ch=1 n=d5 v=90
335760 Off ch=1 n=d5 v=80
335760 Off ch=1 n=f#5 v=80
335760 Off ch=1 n=b5 v=80
335880 On ch=1 n=a5 v=90
335880 On ch=1 n=f#5 v=90
335880 On ch=1 n=c5 v=90
336000 Off ch=1 n=c5 v=80
336000 Off ch=1 n=f#5 v=80
336000 Off ch=1 n=a5 v=80
336000 On ch=1 n=g4 v=65
336000 On ch=1 n=g5 v=65
336120 Off ch=1 n=g5 v=80
336120 Off ch=1 n=g4 v=80
336480 On ch=1 n=c#4 v=65
336480 On ch=1 n=c#5 v=65
336600 Off ch=1 n=c#5 v=80
336600 Off ch=1 n=c#4 v=80
336960 On ch=1 n=f#4 v=65
336960 On ch=1 n=f#5 v=65
337080 Off ch=1 n=f#5 v=80
337080 Off ch=1 n=f#4 v=80
337440 On ch=1 n=b4 v=65
337440 On ch=1 n=b3 v=65
337560 Off ch=1 n=b3 v=80
337560 Off ch=1 n=b4 v=80
337920 On ch=1 n=e5 v=65
337920 On ch=1 n=e4 v=65
338160 Off ch=1 n=e4 v=80
338160 Off ch=1 n=e5 v=80
338280 On ch=1 n=g4 v=65
338280 On ch=1 n=e5 v=65
338280 On ch=1 n=d5 v=65
338400 Off ch=1 n=d5 v=80
338400 Off ch=1 n=e5 v=80
338400 Off ch=1 n=g4 v=80
338400 On ch=1 n=e5 v=78
338400 On ch=1 n=g4 v=78
338400 On ch=1 n=d5 v=78
338640 Off ch=1 n=d5 v=80
338640 Off ch=1 n=g4 v=80
338640 Off ch=1 n=e5 v=80
338760 On ch=1 n=f#5 v=78
338760 On ch=1 n=a4 v=78
338760 On ch=1 n=d5 v=78
338880 Off ch=1 n=d5 v=80
338880 Off ch=1 n=a4 v=80
338880 Off ch=1 n=f#5 v=80
338880 On ch=1 n=b4 v=100
338880 On ch=1 n=g5 v=100
338880 On ch=1 n=d5 v=100
339360 Off ch=1 n=d5 v=80
339360 Off ch=1 n=g5 v=80
339360 Off ch=1 n=b4 v=80
339360 On ch=1 n=f#5 v=90
339360 On ch=1 n=a4 v=90
339360 On ch=1 n=d5 v=90
339600 Off ch=1 n=d5 v=80
339600 Off ch=1 n=a4 v=80
339600 Off ch=1 n=f#5 v=80
339720 On ch=1 n=g4 v=90
339720 On ch=1 n=d5 v=90
339720 On ch=1 n=e5 v=90
339840 Off ch=1 n=e5 v=80
339840 Off ch=1 n=d5 v=80
339840 Off ch=1 n=g4 v=80
339840 On ch=1 n=a3 v=90
339840 On ch=1 n=a4 v=90
339960 Off ch=1 n=a4 v=80
339960 Off ch=1 n=a3 v=80
340320 On ch=1 n=d4 v=65
340320 On ch=1 n=d3 v=65
340440 Off ch=1 n=d3 v=80
340440 Off ch=1 n=d4 v=80
340800 On ch=1 n=g4 v=65
340800 On ch=1 n=g3 v=65
340920 Off ch=1 n=g3 v=80
340920 Off ch=1 n=g4 v=80
341280 On ch=1 n=c#3 v=65
341280 On ch=1 n=c#4 v=65
341400 Off ch=1 n=c#4 v=80
341400 Off ch=1 n=c#3 v=80
341760 On ch=1 n=f#3 v=75
341760 On ch=1 n=f#4 v=75
342240 Off ch=1 n=f#4 v=80
342240 Off ch=1 n=f#3 v=80
342240 On ch=1 n=b4 v=81
342240 On ch=1 n=b3 v=81
342720 Off ch=1 n=b3 v=80
342720 Off ch=1 n=b4 v=80
342720 On ch=1 n=e4 v=87
342720 On ch=1 n=e5 v=87
343200 Off ch=1 n=e5 v=80
343200 Off ch=1 n=e4 v=80
343200 On ch=1 n=a5 v=93
343200 On ch=1 n=a4 v=93
343680 Off ch=1 n=a4 v=80
343680 Off ch=1 n=a5 v=80
343680 On ch=1 n=d5 v=100
343680 On ch=1 n=d6 v=100
344100 Off ch=1 n=d6 v=80
344100 Off ch=1 n=d5 v=80
344100 On ch=1 n=g#4 v=112
344120 On ch=1 n=d5 v=112
344140 On ch=1 n=f5 v=112
344160 On ch=1 n=b5 v=112
344400 Off ch=1 n=b5 v=80
344400 Off ch=1 n=f5 v=80
344400 Off ch=1 n=d5 v=80
344400 Off ch=1 n=g#4 v=80
344580 On ch=1 n=a4 v=112
344600 On ch=1 n=d5 v=112
344620 On ch=1 n=f#5 v=112
344640 On ch=1 n=a5 v=112
344880 Off ch=1 n=a5 v=80
344880 Off ch=1 n=f#5 v=80
344880 Off ch=1 n=d5 v=80
344880 Off ch=1 n=a4 v=80
345060 On ch=1 n=a4 v=112
345080 On ch=1 n=c#5 v=112
345100 On ch=1 n=e5 v=112
345120 On ch=1 n=a5 v=112
345360 Off ch=1 n=a5 v=80
345360 Off ch=1 n=e5 v=80
345360 Off ch=1 n=c#5 v=80
345360 Off ch=1 n=a4 v=80
345600 On ch=1 n=d4 v=127
345600 On ch=1 n=d5 v=127
346020 On ch=1 n=a#5 v=114
346050 On ch=1 n=d6 v=114
346080 Off ch=1 n=d5 v=80
346080 Off ch=1 n=d4 v=80
346080 On ch=1 n=a#6 v=114
346320 Off ch=1 n=a#5 v=80
346320 Off ch=1 n=d6 v=80
346320 Off ch=1 n=a#6 v=80
346500 On ch=1 n=a5 v=114
346530 On ch=1 n=d6 v=114
346560 On ch=1 n=a6 v=114
346800 Off ch=1 n=a6 v=80
346800 Off ch=1 n=d6 v=80
346800 Off ch=1 n=a5 v=80
346980 On ch=1 n=g#5 v=114
347010 On ch=1 n=d6 v=114
347040 On ch=1 n=g#6 v=114
347280 Off ch=1 n=g#6 v=80
347280 Off ch=1 n=d6 v=80
347280 Off ch=1 n=g#5 v=80
347460 On ch=1 n=a5 v=114
347490 On ch=1 n=d6 v=114
347520 On ch=1 n=a6 v=114
347760 Off ch=1 n=a6 v=80
347760 Off ch=1 n=d6 v=80
347760 Off ch=1 n=a5 v=80
347940 On ch=1 n=f#5 v=114
347970 On ch=1 n=a5 v=114
348000 On ch=1 n=f#6 v=114
348240 Off ch=1 n=f#6 v=80
348240 Off ch=1 n=a5 v=80
348240 Off ch=1 n=f#5 v=80
348420 On ch=1 n=d5 v=114
348450 On ch=1 n=f#5 v=114
348480 On ch=1 n=d6 v=114
348720 Off ch=1 n=d6 v=80
348720 Off ch=1 n=f#5 v=80
348720 Off ch=1 n=d5 v=80
348900 On ch=1 n=a#4 v=114
348930 On ch=1 n=d5 v=114
348960 On ch=1 n=a#5 v=114
349200 Off ch=1 n=a#5 v=80
349200 Off ch=1 n=d5 v=80
349200 Off ch=1 n=a#4 v=80
349380 On ch=1 n=a4 v=114
349410 On ch=1 n=d5 v=114
349440 On ch=1 n=a5 v=114
349680 Off ch=1 n=a5 v=80
349680 Off ch=1 n=d5 v=80
349680 Off ch=1 n=a4 v=80
349860 On ch=1 n=a#4 v=114
349890 On ch=1 n=d5 v=114
349920 On ch=1 n=a#5 v=114
350160 Off ch=1 n=a#5 v=80
350160 Off ch=1 n=d5 v=80
350160 Off ch=1 n=a#4 v=80
350340 On ch=1 n=a4 v=114
350370 On ch=1 n=d5 v=114
350400 On ch=1 n=a5 v=114
350640 Off ch=1 n=a5 v=80
350640 Off ch=1 n=d5 v=80
350640 Off ch=1 n=a4 v=80
350820 On ch=1 n=g#4 v=114
350850 On ch=1 n=d5 v=114
350880 On ch=1 n=g#5 v=114
351120 Off ch=1 n=g#5 v=80
351120 Off ch=1 n=d5 v=80
351120 Off ch=1 n=g#4 v=80
351300 On ch=1 n=a4 v=114
351330 On ch=1 n=d5 v=114
351360 On ch=1 n=a5 v=114
351600 Off ch=1 n=a5 v=80
351600 Off ch=1 n=d5 v=80
351600 Off ch=1 n=a4 v=80
351780 On ch=1 n=f#4 v=114
351810 On ch=1 n=a4 v=114
351840 On ch=1 n=f#5 v=114
352080 Off ch=1 n=f#5 v=80
352080 Off ch=1 n=a4 v=80
352080 Off ch=1 n=f#4 v=80
352260 On ch=1 n=d4 v=114
352290 On ch=1 n=f#4 v=114
352320 On ch=1 n=d5 v=114
352560 Off ch=1 n=d5 v=80
352560 Off ch=1 n=f#4 v=80
352560 Off ch=1 n=d4 v=80
352740 On ch=1 n=a#3 v=114
352770 On ch=1 n=d4 v=114
352800 On ch=1 n=a#4 v=114
353040 Off ch=1 n=a#4 v=80
353040 Off ch=1 n=d4 v=80
353040 Off ch=1 n=a#3 v=80
353220 On ch=1 n=a3 v=114
353250 On ch=1 n=d4 v=114
353280 On ch=1 n=a4 v=114
353520 Off ch=1 n=a4 v=80
353520 Off ch=1 n=d4 v=80
353520 Off ch=1 n=a3 v=80
353760 On ch=1 n=d3 v=114
354000 Off ch=1 n=d3 v=80
354240 On ch=1 n=d4 v=127
354240 On ch=1 n=a4 v=127
354240 On ch=1 n=d5 v=127
354480 Off ch=1 n=d5 v=80
354480 Off ch=1 n=a4 v=80
354480 Off ch=1 n=d4 v=80
354720 On ch=1 n=a4 v=127
354720 On ch=1 n=d5 v=127
354720 On ch=1 n=a5 v=127
354960 Off ch=1 n=a5 v=80
354960 Off ch=1 n=d5 v=80
354960 Off ch=1 n=a4 v=80
355200 On ch=1 n=d5 v=127
355200 On ch=1 n=a5 v=127
355200 On ch=1 n=d6 v=127
355680 Off ch=1 n=d6 v=80
355680 Off ch=1 n=a5 v=80
355680 Off ch=1 n=d5 v=80
356160 On ch=1 n=d4 v=114
356160 On ch=1 n=a4 v=114
356160 On ch=1 n=f#5 v=114
356280 Off ch=1 n=f#5 v=80
356280 Off ch=1 n=a4 v=80
356280 Off ch=1 n=d4 v=80
356640 On ch=1 n=f#5 v=114
356640 On ch=1 n=a4 v=114
356640 On ch=1 n=d4 v=114
356760 Off ch=1 n=d4 v=80
356760 Off ch=1 n=a4 v=80
356760 Off ch=1 n=f#5 v=80
357120 On ch=1 n=f#4 v=114
357120 On ch=1 n=a3 v=114
357120 On ch=1 n=d3 v=114
359040 Off ch=1 n=d3 v=80
359040 Off ch=1 n=a3 v=80
359040 Off ch=1 n=f#4 v=80
359040 Meta TrkEnd
TrkEnd
MTrk
0 Meta TrkName "Pedal"
0 Meta 0x21 00
0 Meta 0x20 00
0 Par ch=1 c=10 v=64
0 PrCh ch=1 p=0
0 Par ch=1 c=64 v=127
920 Par ch=1 c=64 v=0
960 Par ch=1 c=64 v=127
1880 Par ch=1 c=64 v=0
1920 Par ch=1 c=64 v=127
2840 Par ch=1 c=64 v=0
2880 Par ch=1 c=64 v=127
3800 Par ch=1 c=64 v=0
3840 Par ch=1 c=64 v=127
4760 Par ch=1 c=64 v=0
4800 Par ch=1 c=64 v=127
5720 Par ch=1 c=64 v=0
5760 Par ch=1 c=64 v=127
6680 Par ch=1 c=64 v=0
6720 Par ch=1 c=64 v=127
7200 Par ch=1 c=64 v=0
7680 Par ch=1 c=64 v=127
8600 Par ch=1 c=64 v=0
8640 Par ch=1 c=64 v=127
9560 Par ch=1 c=64 v=0
9600 Par ch=1 c=64 v=127
10520 Par ch=1 c=64 v=0
10560 Par ch=1 c=64 v=127
11040 Par ch=1 c=64 v=0
11520 Par ch=1 c=64 v=127
12440 Par ch=1 c=64 v=0
12480 Par ch=1 c=64 v=127
13400 Par ch=1 c=64 v=0
13440 Par ch=1 c=64 v=127
14360 Par ch=1 c=64 v=0
14400 Par ch=1 c=64 v=127
14880 Par ch=1 c=64 v=0
86400 Par ch=1 c=64 v=127
87320 Par ch=1 c=64 v=0
87360 Par ch=1 c=64 v=127
88280 Par ch=1 c=64 v=0
88320 Par ch=1 c=64 v=127
89240 Par ch=1 c=64 v=0
89280 Par ch=1 c=64 v=127
90200 Par ch=1 c=64 v=0
90240 Par ch=1 c=64 v=127
91160 Par ch=1 c=64 v=0
91200 Par ch=1 c=64 v=127
92120 Par ch=1 c=64 v=0
92160 Par ch=1 c=64 v=127
93080 Par ch=1 c=64 v=0
93120 Par ch=1 c=64 v=127
93600 Par ch=1 c=64 v=0
94080 Par ch=1 c=64 v=127
95000 Par ch=1 c=64 v=0
95040 Par ch=1 c=64 v=127
95960 Par ch=1 c=64 v=0
96000 Par ch=1 c=64 v=127
96920 Par ch=1 c=64 v=0
96960 Par ch=1 c=64 v=127
97440 Par ch=1 c=64 v=0
97920 Par ch=1 c=64 v=127
98840 Par ch=1 c=64 v=0
98880 Par ch=1 c=64 v=127
99800 Par ch=1 c=64 v=0
99840 Par ch=1 c=64 v=127
100760 Par ch=1 c=64 v=0
100800 Par ch=1 c=64 v=127
101280 Par ch=1 c=64 v=0
111840 Par ch=1 c=64 v=127
112280 Par ch=1 c=64 v=0
112320 Par ch=1 c=64 v=127
112760 Par ch=1 c=64 v=0
112800 Par ch=1 c=64 v=127
113240 Par ch=1 c=64 v=0
113280 Par ch=1 c=64 v=127
114200 Par ch=1 c=64 v=0
117120 Par ch=1 c=64 v=127
118040 Par ch=1 c=64 v=0
123360 Par ch=1 c=64 v=127
123800 Par ch=1 c=64 v=0
123840 Par ch=1 c=64 v=127
124280 Par ch=1 c=64 v=0
124320 Par ch=1 c=64 v=127
124760 Par ch=1 c=64 v=0
124800 Par ch=1 c=64 v=127
125720 Par ch=1 c=64 v=0
125760 Par ch=1 c=64 v=127
126680 Par ch=1 c=64 v=0
126720 Par ch=1 c=64 v=127
127640 Par ch=1 c=64 v=0
127680 Par ch=1 c=64 v=127
128600 Par ch=1 c=64 v=0
128640 Par ch=1 c=64 v=127
129560 Par ch=1 c=64 v=0
129600 Par ch=1 c=64 v=127
130520 Par ch=1 c=64 v=0
130560 Par ch=1 c=64 v=127
131480 Par ch=1 c=64 v=0
131520 Par ch=1 c=64 v=127
132440 Par ch=1 c=64 v=0
132480 Par ch=1 c=64 v=127
133400 Par ch=1 c=64 v=0
134340 Par ch=1 c=64 v=127
142120 Par ch=1 c=64 v=0
142160 Par ch=1 c=64 v=127
144920 Par ch=1 c=64 v=0
144960 Par ch=1 c=64 v=127
147720 Par ch=1 c=64 v=0
147840 Par ch=1 c=64 v=127
149680 Par ch=1 c=64 v=0
149760 Par ch=1 c=64 v=127
150880 Par ch=1 c=64 v=0
151680 Par ch=1 c=64 v=127
152800 Par ch=1 c=64 v=0
153600 Par ch=1 c=64 v=127
154040 Par ch=1 c=64 v=0
154080 Par ch=1 c=64 v=127
155960 Par ch=1 c=64 v=0
156000 Par ch=1 c=64 v=127
157880 Par ch=1 c=64 v=0
157920 Par ch=1 c=64 v=127
159800 Par ch=1 c=64 v=0
159840 Par ch=1 c=64 v=127
162720 Par ch=1 c=64 v=0
163140 Par ch=1 c=64 v=127
170920 Par ch=1 c=64 v=0
170960 Par ch=1 c=64 v=127
173720 Par ch=1 c=64 v=0
173760 Par ch=1 c=64 v=127
176520 Par ch=1 c=64 v=0
176640 Par ch=1 c=64 v=127
178480 Par ch=1 c=64 v=0
178560 Par ch=1 c=64 v=127
179680 Par ch=1 c=64 v=0
180480 Par ch=1 c=64 v=127
181600 Par ch=1 c=64 v=0
182400 Par ch=1 c=64 v=127
182840 Par ch=1 c=64 v=0
182880 Par ch=1 c=64 v=127
184760 Par ch=1 c=64 v=0
184800 Par ch=1 c=64 v=127
186680 Par ch=1 c=64 v=0
186720 Par ch=1 c=64 v=127
188600 Par ch=1 c=64 v=0
188640 Par ch=1 c=64 v=127
191520 Par ch=1 c=64 v=0
192000 Par ch=1 c=64 v=127
194800 Par ch=1 c=64 v=0
194880 Par ch=1 c=64 v=127
198640 Par ch=1 c=64 v=0
198720 Par ch=1 c=64 v=127
200100 Par ch=1 c=64 v=0
200640 Par ch=1 c=64 v=127
202500 Par ch=1 c=64 v=0
202560 Par ch=1 c=64 v=127
204420 Par ch=1 c=64 v=0
204480 Par ch=1 c=64 v=127
206340 Par ch=1 c=64 v=0
206400 Par ch=1 c=64 v=127
207300 Par ch=1 c=64 v=127
215080 Par ch=1 c=64 v=0
215120 Par ch=1 c=64 v=127
217880 Par ch=1 c=64 v=0
217920 Par ch=1 c=64 v=127
220680 Par ch=1 c=64 v=0
220800 Par ch=1 c=64 v=127
222640 Par ch=1 c=64 v=0
222720 Par ch=1 c=64 v=127
223840 Par ch=1 c=64 v=0
224640 Par ch=1 c=64 v=127
225760 Par ch=1 c=64 v=0
226560 Par ch=1 c=64 v=127
227000 Par ch=1 c=64 v=0
227040 Par ch=1 c=64 v=127
228920 Par ch=1 c=64 v=0
228960 Par ch=1 c=64 v=127
230840 Par ch=1 c=64 v=0
230880 Par ch=1 c=64 v=127
232760 Par ch=1 c=64 v=0
232800 Par ch=1 c=64 v=127
235680 Par ch=1 c=64 v=0
307200 Par ch=1 c=64 v=127
308120 Par ch=1 c=64 v=0
308160 Par ch=1 c=64 v=127
309080 Par ch=1 c=64 v=0
309120 Par ch=1 c=64 v=127
310040 Par ch=1 c=64 v=0
310080 Par ch=1 c=64 v=127
311000 Par ch=1 c=64 v=0
311040 Par ch=1 c=64 v=127
311960 Par ch=1 c=64 v=0
312000 Par ch=1 c=64 v=127
312920 Par ch=1 c=64 v=0
312960 Par ch=1 c=64 v=127
313880 Par ch=1 c=64 v=0
313920 Par ch=1 c=64 v=127
314400 Par ch=1 c=64 v=0
314880 Par ch=1 c=64 v=127
315800 Par ch=1 c=64 v=0
315840 Par ch=1 c=64 v=127
316760 Par ch=1 c=64 v=0
316800 Par ch=1 c=64 v=127
317720 Par ch=1 c=64 v=0
317760 Par ch=1 c=64 v=127
318240 Par ch=1 c=64 v=0
318720 Par ch=1 c=64 v=127
319640 Par ch=1 c=64 v=0
319680 Par ch=1 c=64 v=127
320600 Par ch=1 c=64 v=0
320640 Par ch=1 c=64 v=127
321560 Par ch=1 c=64 v=0
321600 Par ch=1 c=64 v=127
322080 Par ch=1 c=64 v=0
332640 Par ch=1 c=64 v=127
333080 Par ch=1 c=64 v=0
333120 Par ch=1 c=64 v=127
333560 Par ch=1 c=64 v=0
333600 Par ch=1 c=64 v=127
334040 Par ch=1 c=64 v=0
334080 Par ch=1 c=64 v=127
335000 Par ch=1 c=64 v=0
337920 Par ch=1 c=64 v=127
338840 Par ch=1 c=64 v=0
344160 Par ch=1 c=64 v=127
344600 Par ch=1 c=64 v=0
344640 Par ch=1 c=64 v=127
345080 Par ch=1 c=64 v=0
345120 Par ch=1 c=64 v=127
345560 Par ch=1 c=64 v=0
345600 Par ch=1 c=64 v=127
346520 Par ch=1 c=64 v=0
346560 Par ch=1 c=64 v=127
347480 Par ch=1 c=64 v=0
347520 Par ch=1 c=64 v=127
348440 Par ch=1 c=64 v=0
348480 Par ch=1 c=64 v=127
349400 Par ch=1 c=64 v=0
349440 Par ch=1 c=64 v=127
350360 Par ch=1 c=64 v=0
350400 Par ch=1 c=64 v=127
351320 Par ch=1 c=64 v=0
351360 Par ch=1 c=64 v=127
352280 Par ch=1 c=64 v=0
352320 Par ch=1 c=64 v=127
353240 Par ch=1 c=64 v=0
353280 Par ch=1 c=64 v=127
353720 Par ch=1 c=64 v=0
353760 Par ch=1 c=64 v=127
354230 Par ch=1 c=64 v=0
354240 Par ch=1 c=64 v=127
355160 Par ch=1 c=64 v=0
355200 Par ch=1 c=64 v=127
356120 Par ch=1 c=64 v=0
356160 Par ch=1 c=64 v=127
357080 Par ch=1 c=64 v=0
357080 Meta TrkEnd
TrkEnd
