MFile 1 4 480
MTrk
0 Tempo 303030
0 TimeSig 3/4 24 8
0 KeySig 2 major
1920 Tempo 392156
2400 Tempo 487804
2760 Tempo 303030
3840 Tempo 357142
4200 Tempo 303030
5280 Tempo 357142
5760 Tempo 303030
6720 Tempo 337078
7200 Tempo 303030
8160 Tempo 451127
8640 Tempo 303030
9600 Tempo 357142
9960 Tempo 303030
11040 Tempo 357142
11520 Tempo 303030
12480 Tempo 337078
12960 Tempo 303030
13920 Tempo 379746
14400 Tempo 303030
19680 Tempo 288461
25920 Tempo 275229
27360 Tempo 263157
29760 Tempo 337078
30240 Tempo 252100
36960 Tempo 468750
37320 Tempo 263157
38400 Tempo 246913
40800 Tempo 252100
46080 Tempo 303030
48000 Tempo 392156
48480 Tempo 487804
48840 Tempo 275229
49920 Tempo 357142
50280 Tempo 275229
51360 Tempo 357142
51840 Tempo 303030
52800 Tempo 337078
53280 Tempo 303030
54240 Tempo 451127
54720 Tempo 275229
55680 Tempo 357142
56040 Tempo 275229
57120 Tempo 357142
57600 Tempo 288461
58560 Tempo 337078
59040 Tempo 303030
60000 Tempo 379746
60480 Tempo 275229
61920 Tempo 288461
63360 Tempo 275229
65760 Tempo 288461
68640 Tempo 368098
69120 Tempo 319148
70560 Tempo 405405
71520 Tempo 952380
72000 Tempo 468750
72240 Tempo 319148
73680 Tempo 303030
74880 Tempo 337078
76800 Tempo 319148
79440 Tempo 303030
80640 Tempo 337078
83400 Tempo 319148
86400 Tempo 337078
89280 Tempo 357142
90720 Tempo 368098
92160 Tempo 392156
94560 Tempo 434782
95040 Tempo 468750
95280 Tempo 319148
96720 Tempo 303030
97920 Tempo 337078
99840 Tempo 319148
102480 Tempo 303030
103680 Tempo 337078
106440 Tempo 319148
108000 Tempo 303030
109440 Tempo 337078
110880 Tempo 379746
111840 Tempo 405405
112320 Tempo 405405
113760 Tempo 434782
114720 Tempo 582524
115200 Tempo 468750
116640 Tempo 508474
117840 Tempo 769230
118320 Tempo 468750
118560 Tempo 319148
142560 Tempo 379746
143520 Tempo 419580
145440 Tempo 468750
145920 Tempo 508474
146640 Tempo 1578947
146880 Tempo 368098
147840 Tempo 487804
148200 Tempo 303030
149280 Tempo 357142
149640 Tempo 303030
150720 Tempo 357142
151200 Tempo 303030
152160 Tempo 337078
152640 Tempo 303030
153600 Tempo 451127
154080 Tempo 303030
155040 Tempo 357142
155400 Tempo 303030
156480 Tempo 357142
156960 Tempo 303030
157920 Tempo 337078
158400 Tempo 303030
159360 Tempo 379746
159840 Tempo 303030
169920 Tempo 288461
171360 Tempo 275229
172800 Tempo 263157
175200 Tempo 337078
175680 Tempo 252100
182400 Tempo 468750
182760 Tempo 263157
183840 Tempo 246913
191520 Tempo 303030
193440 Tempo 392156
193920 Tempo 487804
194280 Tempo 275229
195360 Tempo 357142
195720 Tempo 303030
196800 Tempo 357142
197280 Tempo 303030
198240 Tempo 337078
198720 Tempo 303030
199680 Tempo 451127
200160 Tempo 275229
201120 Tempo 357142
201480 Tempo 303030
202560 Tempo 357142
203040 Tempo 303030
204000 Tempo 337078
204480 Tempo 303030
205440 Tempo 379746
205920 Tempo 275229
216000 Tempo 252100
217440 Tempo 232558
220320 Tempo 223880
224640 Tempo 223880
226080 Tempo 232558
231360 Tempo 219780
264960 Tempo 237154
266400 Tempo 257510
267840 Tempo 337078
268320 Tempo 392156
268800 Tempo 487804
269160 Tempo 303030
269760 Tempo 288461
273600 Tempo 303030
274080 Tempo 319148
275520 Tempo 288461
277920 Tempo 288461
280320 Tempo 275229
282240 Tempo 269058
286080 Tempo 263157
290880 Tempo 576923
290880 TimeSig 2/4 24 8
292800 Tempo 606060
294720 Tempo 337078
294720 TimeSig 3/4 24 8
296160 Tempo 310880
297600 Tempo 281690
300000 Tempo 405405
300480 Tempo 288461
301440 Tempo 275229
301920 Tempo 263157
305760 Tempo 379746
306240 Tempo 288461
307680 Tempo 263157
317280 Tempo 379746
317760 Tempo 337078
319200 Tempo 263157
319680 Tempo 288461
320640 Tempo 337078
322080 Tempo 263157
323040 Tempo 319148
323520 Tempo 275229
324480 Tempo 246913
325440 Tempo 215827
327360 Tempo 212014
328800 Tempo 219780
329280 Tempo 252100
330720 Tempo 434782
331200 Tempo 303030
331200 Meta TrkEnd
TrkEnd
MTrk
0 Meta TrkName "Piano R Hand"
0 Meta 0x21 00
0 Meta 0x20 00
0 Par ch=1 c=10 v=64
0 PrCh ch=1 p=0
1440 On ch=1 n=a5 v=65
1920 On ch=1 n=g5 v=47
1920 On ch=1 n=e5 v=47
2400 Off ch=1 n=e5 v=80
2400 Off ch=1 n=g5 v=80
2400 On ch=1 n=g5 v=47
2400 On ch=1 n=e5 v=47
2880 Off ch=1 n=e5 v=80
2880 Off ch=1 n=a5 v=80
2880 Off ch=1 n=g5 v=80
2880 On ch=1 n=a5 v=65
3120 On ch=1 n=d5 v=47
3360 Off ch=1 n=a5 v=80
3360 On ch=1 n=d6 v=73
3840 Off ch=1 n=d5 v=80
3840 On ch=1 n=d5 v=47
4080 Off ch=1 n=d6 v=80
4080 On ch=1 n=c#6 v=81
4320 Off ch=1 n=d5 v=80
4320 Off ch=1 n=c#6 v=80
4320 On ch=1 n=c#6 v=90
4800 On ch=1 n=g5 v=47
4800 On ch=1 n=d5 v=47
5280 Off ch=1 n=d5 v=80
5280 Off ch=1 n=g5 v=80
5280 Off ch=1 n=c#6 v=80
5280 On ch=1 n=d5 v=47
5280 On ch=1 n=g5 v=47
5280 On ch=1 n=b5 v=90
5760 Off ch=1 n=b5 v=80
5760 Off ch=1 n=g5 v=80
5760 Off ch=1 n=d5 v=80
5760 On ch=1 n=a5 v=90
6240 On ch=1 n=e5 v=47
6240 On ch=1 n=g5 v=47
6720 Off ch=1 n=g5 v=80
6720 Off ch=1 n=e5 v=80
6720 On ch=1 n=g5 v=47
6720 On ch=1 n=e5 v=47
7200 Off ch=1 n=e5 v=80
7200 Off ch=1 n=a5 v=80
7200 Off ch=1 n=g5 v=80
7200 On ch=1 n=a5 v=65
7680 On ch=1 n=g5 v=47
7680 On ch=1 n=e5 v=47
8160 Off ch=1 n=e5 v=80
8160 Off ch=1 n=g5 v=80
8160 On ch=1 n=g5 v=47
8160 On ch=1 n=e5 v=47
8640 Off ch=1 n=e5 v=80
8640 Off ch=1 n=a5 v=80
8640 Off ch=1 n=g5 v=80
8640 On ch=1 n=a5 v=65
8880 On ch=1 n=d5 v=47
9120 Off ch=1 n=a5 v=80
9120 On ch=1 n=d6 v=73
9600 Off ch=1 n=d5 v=80
9600 On ch=1 n=d5 v=47
9840 Off ch=1 n=d6 v=80
9840 On ch=1 n=c#6 v=81
10080 Off ch=1 n=d5 v=80
10080 Off ch=1 n=c#6 v=80
10080 On ch=1 n=c#6 v=90
10560 On ch=1 n=g5 v=47
10560 On ch=1 n=d5 v=47
11040 Off ch=1 n=d5 v=80
11040 Off ch=1 n=g5 v=80
11040 Off ch=1 n=c#6 v=80
11040 On ch=1 n=b5 v=90
11040 On ch=1 n=d5 v=47
11040 On ch=1 n=g5 v=47
11520 Off ch=1 n=g5 v=80
11520 Off ch=1 n=d5 v=80
11520 Off ch=1 n=b5 v=80
11520 On ch=1 n=a5 v=90
12000 On ch=1 n=e5 v=47
12000 On ch=1 n=g5 v=47
12480 Off ch=1 n=g5 v=80
12480 Off ch=1 n=e5 v=80
12480 On ch=1 n=g5 v=47
12480 On ch=1 n=e5 v=47
12960 Off ch=1 n=e5 v=80
12960 Off ch=1 n=a5 v=80
12960 Off ch=1 n=g5 v=80
12960 On ch=1 n=a5 v=65
13440 On ch=1 n=g5 v=47
13440 On ch=1 n=e5 v=47
13920 Off ch=1 n=e5 v=80
13920 Off ch=1 n=g5 v=80
13920 On ch=1 n=g5 v=47
13920 On ch=1 n=e5 v=47
14400 Off ch=1 n=e5 v=80
14400 Off ch=1 n=a5 v=80
14400 Off ch=1 n=g5 v=80
14400 On ch=1 n=a5 v=65
14640 On ch=1 n=d5 v=47
14880 Off ch=1 n=a5 v=80
14880 On ch=1 n=d6 v=73
15360 Off ch=1 n=d5 v=80
15360 On ch=1 n=d5 v=47
15600 Off ch=1 n=d6 v=80
15600 On ch=1 n=c#6 v=81
15840 Off ch=1 n=d5 v=80
15840 Off ch=1 n=c#6 v=80
15840 On ch=1 n=c#6 v=90
16320 On ch=1 n=e5 v=47
16800 Off ch=1 n=e5 v=80
16800 Off ch=1 n=c#6 v=80
16800 On ch=1 n=e5 v=47
16800 On ch=1 n=f#5 v=65
17280 Off ch=1 n=f#5 v=80
17280 Off ch=1 n=e5 v=80
17280 On ch=1 n=f#5 v=65
17520 On ch=1 n=d5 v=47
17760 Off ch=1 n=f#5 v=80
17760 On ch=1 n=c#6 v=73
18240 Off ch=1 n=d5 v=80
18240 On ch=1 n=d5 v=47
18480 Off ch=1 n=c#6 v=80
18480 On ch=1 n=b5 v=81
18720 Off ch=1 n=d5 v=80
18720 Off ch=1 n=b5 v=80
18720 On ch=1 n=b5 v=90
19200 Off ch=1 n=b5 v=80
19200 On ch=1 n=e5 v=65
19200 On ch=1 n=b4 v=65
19680 Off ch=1 n=b4 v=80
19680 Off ch=1 n=e5 v=80
19680 On ch=1 n=f#5 v=102
19680 On ch=1 n=d#5 v=102
19680 On ch=1 n=b4 v=102
20040 Off ch=1 n=b4 v=80
20040 Off ch=1 n=d#5 v=80
20040 Off ch=1 n=f#5 v=80
20160 On ch=1 n=d6 v=65
20640 Off ch=1 n=d6 v=80
20640 On ch=1 n=g5 v=72
20640 On ch=1 n=d5 v=72
21120 Off ch=1 n=d5 v=80
21120 Off ch=1 n=g5 v=80
21120 On ch=1 n=a5 v=102
21120 On ch=1 n=f#5 v=102
21120 On ch=1 n=d5 v=102
21480 Off ch=1 n=d5 v=80
21480 Off ch=1 n=f#5 v=80
21480 Off ch=1 n=a5 v=80
21600 On ch=1 n=g6 v=78
22080 On ch=1 n=d6 v=84
22080 On ch=1 n=g5 v=84
22560 Off ch=1 n=g5 v=80
22560 Off ch=1 n=d6 v=80
22560 Off ch=1 n=g6 v=80
22560 On ch=1 n=g#6 v=102
22560 On ch=1 n=d6 v=102
22560 On ch=1 n=g#5 v=102
23040 Off ch=1 n=g#5 v=80
23040 Off ch=1 n=d6 v=80
23040 Off ch=1 n=g#6 v=80
23520 On ch=1 n=a6 v=102
23520 On ch=1 n=f#6 v=102
23520 On ch=1 n=a5 v=102
23760 Off ch=1 n=a5 v=80
23760 Off ch=1 n=f#6 v=80
23760 Off ch=1 n=a6 v=80
24000 On ch=1 n=e6 v=102
24000 On ch=1 n=g5 v=102
24000 On ch=1 n=c#6 v=102
24240 Off ch=1 n=c#6 v=80
24240 Off ch=1 n=g5 v=80
24240 Off ch=1 n=e6 v=80
24480 On ch=1 n=f#6 v=114
24480 On ch=1 n=d6 v=114
24480 On ch=1 n=f#5 v=114
25440 Off ch=1 n=f#5 v=80
25440 Off ch=1 n=d6 v=80
25440 Off ch=1 n=f#6 v=80
25440 On ch=1 n=e6 v=114
25440 On ch=1 n=c#6 v=114
25440 On ch=1 n=f#5 v=114
25920 Off ch=1 n=f#5 v=80
25920 Off ch=1 n=c#6 v=80
25920 Off ch=1 n=e6 v=80
25920 On ch=1 n=f#5 v=114
25920 On ch=1 n=b5 v=114
25920 On ch=1 n=d6 v=114
26880 Off ch=1 n=d6 v=80
26880 Off ch=1 n=b5 v=80
26880 Off ch=1 n=f#5 v=80
26880 On ch=1 n=g5 v=114
26880 On ch=1 n=d6 v=114
26880 On ch=1 n=g6 v=114
27360 Off ch=1 n=g6 v=80
27360 Off ch=1 n=d6 v=80
27360 Off ch=1 n=g5 v=80
27360 On ch=1 n=g6 v=114
27360 On ch=1 n=c#6 v=114
27360 On ch=1 n=g5 v=114
28320 Off ch=1 n=g5 v=80
28320 Off ch=1 n=c#6 v=80
28320 Off ch=1 n=g6 v=80
28320 On ch=1 n=g6 v=118
28320 On ch=1 n=d6 v=118
28320 On ch=1 n=g5 v=118
29280 Off ch=1 n=g5 v=80
29280 Off ch=1 n=d6 v=80
29280 Off ch=1 n=g6 v=80
29280 On ch=1 n=g5 v=122
29280 On ch=1 n=g6 v=122
29280 On ch=1 n=e6 v=122
30240 Off ch=1 n=e6 v=80
30240 Off ch=1 n=g6 v=80
30240 Off ch=1 n=g5 v=80
30240 On ch=1 n=f#6 v=127
30240 On ch=1 n=d6 v=127
30240 On ch=1 n=f#5 v=127
30480 Off ch=1 n=f#5 v=80
30480 Off ch=1 n=d6 v=80
30480 Off ch=1 n=f#6 v=80
30480 On ch=1 n=f#5 v=127
30480 On ch=1 n=d6 v=127
30480 On ch=1 n=f#6 v=127
30720 Off ch=1 n=f#6 v=80
30720 Off ch=1 n=d6 v=80
30720 Off ch=1 n=f#5 v=80
30720 On ch=1 n=f#6 v=127
30720 On ch=1 n=d6 v=127
30720 On ch=1 n=f#5 v=127
31200 Off ch=1 n=f#5 v=80
31200 Off ch=1 n=d6 v=80
31200 Off ch=1 n=f#6 v=80
31200 On ch=1 n=f#5 v=127
31200 On ch=1 n=c#6 v=127
31200 On ch=1 n=e6 v=127
31680 Off ch=1 n=e6 v=80
31680 Off ch=1 n=c#6 v=80
31680 Off ch=1 n=f#5 v=80
31680 On ch=1 n=d6 v=114
31680 On ch=1 n=b5 v=114
31680 On ch=1 n=f#5 v=114
32640 Off ch=1 n=f#5 v=80
32640 Off ch=1 n=b5 v=80
32640 Off ch=1 n=d6 v=80
32640 On ch=1 n=g5 v=114
32640 On ch=1 n=d6 v=114
32640 On ch=1 n=g6 v=114
33120 Off ch=1 n=g6 v=80
33120 Off ch=1 n=d6 v=80
33120 Off ch=1 n=g5 v=80
33120 On ch=1 n=g6 v=114
33120 On ch=1 n=c#6 v=114
33120 On ch=1 n=g5 v=114
34080 Off ch=1 n=g5 v=80
34080 Off ch=1 n=c#6 v=80
34080 Off ch=1 n=g6 v=80
34080 On ch=1 n=g6 v=118
34080 On ch=1 n=d6 v=118
34080 On ch=1 n=g5 v=118
35040 Off ch=1 n=g5 v=80
35040 Off ch=1 n=d6 v=80
35040 Off ch=1 n=g6 v=80
35040 On ch=1 n=g5 v=122
35040 On ch=1 n=g6 v=122
35040 On ch=1 n=e6 v=122
36000 Off ch=1 n=e6 v=80
36000 Off ch=1 n=g6 v=80
36000 Off ch=1 n=g5 v=80
36000 On ch=1 n=f#6 v=127
36000 On ch=1 n=d6 v=127
36000 On ch=1 n=f#5 v=127
36480 Off ch=1 n=f#5 v=80
36480 Off ch=1 n=d6 v=80
36480 Off ch=1 n=f#6 v=80
36960 On ch=1 n=c#5 v=102
36960 On ch=1 n=g4 v=90
37200 Off ch=1 n=g4 v=80
37200 On ch=1 n=a4 v=90
37440 Off ch=1 n=a4 v=80
37440 On ch=1 n=a#4 v=90
37680 Off ch=1 n=a#4 v=80
37920 Off ch=1 n=c#5 v=80
37920 On ch=1 n=d#5 v=102
37920 On ch=1 n=a4 v=90
38160 Off ch=1 n=a4 v=80
38160 On ch=1 n=b4 v=90
38400 Off ch=1 n=b4 v=80
38400 On ch=1 n=c5 v=90
38640 Off ch=1 n=c5 v=80
38880 Off ch=1 n=d#5 v=80
38880 On ch=1 n=f5 v=102
38880 On ch=1 n=b4 v=90
39120 Off ch=1 n=b4 v=80
39120 On ch=1 n=c5 v=90
39360 Off ch=1 n=c5 v=80
39360 On ch=1 n=d5 v=90
39600 Off ch=1 n=d5 v=80
39840 Off ch=1 n=f5 v=80
39840 On ch=1 n=b5 v=102
39840 On ch=1 n=d5 v=90
40080 Off ch=1 n=d5 v=80
40080 On ch=1 n=e5 v=90
40320 Off ch=1 n=e5 v=80
40320 On ch=1 n=f5 v=90
40560 Off ch=1 n=f5 v=80
40800 Off ch=1 n=b5 v=80
40800 On ch=1 n=a5 v=102
40800 On ch=1 n=f#5 v=102
40800 On ch=1 n=d5 v=102
41040 Off ch=1 n=d5 v=80
41040 Off ch=1 n=f#5 v=80
41040 Off ch=1 n=a5 v=80
41280 On ch=1 n=e5 v=102
41280 On ch=1 n=c#6 v=102
41280 On ch=1 n=a5 v=102
41520 Off ch=1 n=a5 v=80
41520 Off ch=1 n=c#6 v=80
41520 Off ch=1 n=e5 v=80
41760 On ch=1 n=d6 v=102
41760 On ch=1 n=a5 v=102
41760 On ch=1 n=d5 v=102
42240 Off ch=1 n=d5 v=80
42240 Off ch=1 n=a5 v=80
42240 Off ch=1 n=d6 v=80
42720 On ch=1 n=b4 v=102
42720 On ch=1 n=d#4 v=90
42960 Off ch=1 n=d#4 v=80
42960 On ch=1 n=e4 v=90
43200 Off ch=1 n=e4 v=80
43200 On ch=1 n=f#4 v=90
43440 Off ch=1 n=f#4 v=80
43680 Off ch=1 n=b4 v=80
43680 On ch=1 n=d5 v=102
43680 On ch=1 n=g4 v=90
43920 Off ch=1 n=g4 v=80
43920 On ch=1 n=a4 v=90
44160 Off ch=1 n=a4 v=80
44160 On ch=1 n=a#4 v=90
44400 Off ch=1 n=a#4 v=80
44640 Off ch=1 n=d5 v=80
44640 On ch=1 n=g5 v=102
44640 On ch=1 n=c5 v=90
44880 Off ch=1 n=c5 v=80
44880 On ch=1 n=d5 v=90
45120 Off ch=1 n=d5 v=80
45120 On ch=1 n=d#5 v=90
45360 Off ch=1 n=d#5 v=80
45600 Off ch=1 n=g5 v=80
45600 On ch=1 n=c6 v=102
45600 On ch=1 n=f5 v=90
45840 Off ch=1 n=f5 v=80
45840 On ch=1 n=g5 v=90
46080 Off ch=1 n=g5 v=80
46080 On ch=1 n=g#5 v=90
46320 Off ch=1 n=g#5 v=80
46560 Off ch=1 n=c6 v=80
46560 On ch=1 n=b5 v=102
46560 On ch=1 n=f5 v=102
46800 Off ch=1 n=f5 v=80
46800 Off ch=1 n=b5 v=80
47040 On ch=1 n=f5 v=114
47040 On ch=1 n=d6 v=114
47280 Off ch=1 n=d6 v=80
47280 Off ch=1 n=f5 v=80
47520 On ch=1 n=f6 v=120
47520 On ch=1 n=d6 v=120
47520 On ch=1 n=f5 v=120
48000 Off ch=1 n=f5 v=80
48000 Off ch=1 n=d6 v=80
48000 Off ch=1 n=f6 v=80
48000 On ch=1 n=d5 v=65
48000 On ch=1 n=f5 v=65
48480 Off ch=1 n=f5 v=80
48480 Off ch=1 n=d5 v=80
48480 On ch=1 n=d5 v=65
48480 On ch=1 n=g5 v=65
48480 On ch=1 n=f5 v=65
48960 Off ch=1 n=f5 v=80
48960 Off ch=1 n=g5 v=80
48960 Off ch=1 n=d5 v=80
48960 On ch=1 n=g5 v=65
49200 On ch=1 n=c5 v=53
49320 Off ch=1 n=c5 v=80
49320 On ch=1 n=c5 v=53
49440 Off ch=1 n=g5 v=80
49440 On ch=1 n=c6 v=73
49920 Off ch=1 n=c5 v=80
49920 On ch=1 n=c5 v=63
50160 Off ch=1 n=c6 v=80
50160 On ch=1 n=b5 v=81
50400 Off ch=1 n=c5 v=80
50400 Off ch=1 n=b5 v=80
50400 On ch=1 n=b5 v=100
50880 On ch=1 n=f5 v=47
50880 On ch=1 n=c5 v=47
51360 Off ch=1 n=c5 v=80
51360 Off ch=1 n=f5 v=80
51360 Off ch=1 n=b5 v=80
51360 On ch=1 n=c5 v=47
51360 On ch=1 n=f5 v=47
51360 On ch=1 n=a5 v=90
51840 Off ch=1 n=a5 v=80
51840 Off ch=1 n=f5 v=80
51840 Off ch=1 n=c5 v=80
51840 On ch=1 n=g5 v=90
52320 On ch=1 n=d5 v=47
52320 On ch=1 n=f5 v=47
52800 Off ch=1 n=f5 v=80
52800 Off ch=1 n=d5 v=80
52800 On ch=1 n=f5 v=47
52800 On ch=1 n=d5 v=47
53280 Off ch=1 n=d5 v=80
53280 Off ch=1 n=g5 v=80
53280 Off ch=1 n=f5 v=80
53280 On ch=1 n=g5 v=65
53760 On ch=1 n=f5 v=47
53760 On ch=1 n=d5 v=47
54240 Off ch=1 n=d5 v=80
54240 Off ch=1 n=f5 v=80
54240 On ch=1 n=f5 v=47
54240 On ch=1 n=d5 v=47
54720 Off ch=1 n=d5 v=80
54720 Off ch=1 n=g5 v=80
54720 Off ch=1 n=f5 v=80
54720 On ch=1 n=g5 v=65
54960 On ch=1 n=c5 v=53
55080 Off ch=1 n=c5 v=80
55080 On ch=1 n=c5 v=53
55200 Off ch=1 n=g5 v=80
55200 On ch=1 n=c6 v=73
55680 Off ch=1 n=c5 v=80
55680 On ch=1 n=c5 v=63
55920 Off ch=1 n=c6 v=80
55920 On ch=1 n=b5 v=81
56160 Off ch=1 n=c5 v=80
56160 Off ch=1 n=b5 v=80
56160 On ch=1 n=b5 v=90
56640 On ch=1 n=f5 v=47
56640 On ch=1 n=c5 v=47
57120 Off ch=1 n=c5 v=80
57120 Off ch=1 n=f5 v=80
57120 Off ch=1 n=b5 v=80
57120 On ch=1 n=a5 v=90
57120 On ch=1 n=c5 v=47
57120 On ch=1 n=f5 v=47
57600 Off ch=1 n=f5 v=80
57600 Off ch=1 n=c5 v=80
57600 Off ch=1 n=a5 v=80
57600 On ch=1 n=g5 v=90
58080 On ch=1 n=f5 v=47
58080 On ch=1 n=d5 v=47
58560 Off ch=1 n=d5 v=80
58560 Off ch=1 n=f5 v=80
58560 Off ch=1 n=g5 v=80
58560 On ch=1 n=e5 v=120
58560 On ch=1 n=d5 v=120
58560 On ch=1 n=g#5 v=120
59040 Off ch=1 n=g#5 v=80
59040 Off ch=1 n=d5 v=80
59040 Off ch=1 n=e5 v=80
59040 On ch=1 n=a5 v=102
59520 On ch=1 n=g5 v=84
59520 On ch=1 n=e5 v=84
60000 Off ch=1 n=e5 v=80
60000 Off ch=1 n=g5 v=80
60000 On ch=1 n=g5 v=84
60000 On ch=1 n=e5 v=84
60480 Off ch=1 n=e5 v=80
60480 Off ch=1 n=a5 v=80
60480 Off ch=1 n=g5 v=80
60480 On ch=1 n=a5 v=102
60720 On ch=1 n=d5 v=102
60960 Off ch=1 n=a5 v=80
60960 On ch=1 n=d6 v=102
61440 Off ch=1 n=d5 v=80
61440 On ch=1 n=d5 v=102
61680 Off ch=1 n=d6 v=80
61680 On ch=1 n=c#6 v=102
61920 Off ch=1 n=d5 v=80
61920 Off ch=1 n=c#6 v=80
61920 On ch=1 n=c#6 v=102
62400 On ch=1 n=e5 v=102
62880 Off ch=1 n=e5 v=80
62880 Off ch=1 n=c#6 v=80
62880 On ch=1 n=e5 v=102
62880 On ch=1 n=f#5 v=102
63360 Off ch=1 n=f#5 v=80
63360 Off ch=1 n=e5 v=80
63360 On ch=1 n=f#5 v=102
63600 On ch=1 n=d5 v=102
63840 Off ch=1 n=f#5 v=80
63840 On ch=1 n=c#6 v=102
64320 Off ch=1 n=d5 v=80
64320 On ch=1 n=d5 v=102
64560 Off ch=1 n=c#6 v=80
64560 On ch=1 n=b5 v=102
64800 Off ch=1 n=d5 v=80
64800 Off ch=1 n=b5 v=80
64800 On ch=1 n=b5 v=102
65280 Off ch=1 n=b5 v=80
65280 On ch=1 n=e5 v=77
65280 On ch=1 n=b4 v=77
65760 Off ch=1 n=b4 v=80
65760 Off ch=1 n=e5 v=80
65760 On ch=1 n=f#5 v=114
65760 On ch=1 n=d#5 v=114
65760 On ch=1 n=b4 v=114
66120 Off ch=1 n=b4 v=80
66120 Off ch=1 n=d#5 v=80
66120 Off ch=1 n=f#5 v=80
66240 On ch=1 n=d6 v=77
66720 Off ch=1 n=d6 v=80
66720 On ch=1 n=g5 v=84
66720 On ch=1 n=d5 v=84
67200 Off ch=1 n=d5 v=80
67200 Off ch=1 n=g5 v=80
67200 On ch=1 n=a5 v=114
67200 On ch=1 n=f#5 v=114
67200 On ch=1 n=d5 v=114
67560 Off ch=1 n=d5 v=80
67560 Off ch=1 n=f#5 v=80
67560 Off ch=1 n=a5 v=80
67680 On ch=1 n=g6 v=90
68160 On ch=1 n=d6 v=96
68160 On ch=1 n=g5 v=96
68640 Off ch=1 n=g5 v=80
68640 Off ch=1 n=d6 v=80
68640 Off ch=1 n=g6 v=80
68640 On ch=1 n=d6 v=114
68640 On ch=1 n=g#5 v=114
68640 On ch=1 n=g#6 v=114
69120 Off ch=1 n=g#6 v=80
69120 Off ch=1 n=g#5 v=80
69120 Off ch=1 n=d6 v=80
69600 On ch=1 n=a6 v=114
69600 On ch=1 n=f#6 v=114
69600 On ch=1 n=a5 v=114
70080 Off ch=1 n=a5 v=80
70080 Off ch=1 n=f#6 v=80
70080 Off ch=1 n=a6 v=80
70080 On ch=1 n=c#6 v=114
70080 On ch=1 n=g5 v=114
70080 On ch=1 n=e6 v=114
70560 Off ch=1 n=e6 v=80
70560 Off ch=1 n=g5 v=80
70560 Off ch=1 n=c#6 v=80
70560 On ch=1 n=d6 v=114
70560 On ch=1 n=f#5 v=114
71520 Off ch=1 n=f#5 v=80
71520 Off ch=1 n=d6 v=80
75360 On ch=1 n=b5 v=102
75840 Off ch=1 n=b5 v=80
75840 On ch=1 n=a#5 v=107
76320 Off ch=1 n=a#5 v=80
76320 On ch=1 n=b5 v=112
76800 Off ch=1 n=b5 v=80
76800 On ch=1 n=c#6 v=117
77640 Off ch=1 n=c#6 v=80
77640 On ch=1 n=d6 v=122
77760 Off ch=1 n=d6 v=80
77760 On ch=1 n=d6 v=127
78720 Off ch=1 n=d6 v=80
78720 On ch=1 n=c#6 v=114
79200 Off ch=1 n=c#6 v=80
81120 On ch=1 n=d6 v=102
81600 Off ch=1 n=d6 v=80
81600 On ch=1 n=c#6 v=107
82080 Off ch=1 n=c#6 v=80
82080 On ch=1 n=d6 v=112
82560 Off ch=1 n=d6 v=80
82560 On ch=1 n=e6 v=117
83400 Off ch=1 n=e6 v=80
83400 On ch=1 n=f6 v=122
83520 Off ch=1 n=f6 v=80
83520 On ch=1 n=f6 v=127
85920 Off ch=1 n=f6 v=80
85920 On ch=1 n=e6 v=114
86400 Off ch=1 n=e6 v=80
86400 On ch=1 n=d#6 v=102
89280 Off ch=1 n=d#6 v=80
89280 On ch=1 n=e6 v=102
90720 Off ch=1 n=e6 v=80
90720 On ch=1 n=b5 v=102
92160 Off ch=1 n=b5 v=80
92160 On ch=1 n=b5 v=102
94080 Off ch=1 n=b5 v=80
98400 On ch=1 n=b5 v=102
98880 Off ch=1 n=b5 v=80
98880 On ch=1 n=a#5 v=107
99360 Off ch=1 n=a#5 v=80
99360 On ch=1 n=b5 v=112
99840 Off ch=1 n=b5 v=80
99840 On ch=1 n=c#6 v=117
100680 Off ch=1 n=c#6 v=80
100680 On ch=1 n=d6 v=122
100800 Off ch=1 n=d6 v=80
100800 On ch=1 n=d6 v=127
101760 Off ch=1 n=d6 v=80
101760 On ch=1 n=c#6 v=114
102240 Off ch=1 n=c#6 v=80
104160 On ch=1 n=d6 v=102
104640 Off ch=1 n=d6 v=80
104640 On ch=1 n=c#6 v=107
105120 Off ch=1 n=c#6 v=80
105120 On ch=1 n=d6 v=112
105600 Off ch=1 n=d6 v=80
105600 On ch=1 n=e6 v=117
106440 Off ch=1 n=e6 v=80
106440 On ch=1 n=f6 v=122
106560 Off ch=1 n=f6 v=80
106560 On ch=1 n=f6 v=127
108960 Off ch=1 n=f6 v=80
108960 On ch=1 n=e6 v=114
109440 Off ch=1 n=e6 v=80
109440 On ch=1 n=d#6 v=102
112320 Off ch=1 n=d#6 v=80
112320 On ch=1 n=e6 v=102
113760 Off ch=1 n=e6 v=80
113760 On ch=1 n=b5 v=102
115200 Off ch=1 n=b5 v=80
115200 On ch=1 n=b5 v=102
117120 Off ch=1 n=b5 v=80
118320 On ch=1 n=e5 v=65
118560 On ch=1 n=c#5 v=53
118560 On ch=1 n=a4 v=53
118800 Off ch=1 n=a4 v=80
118800 Off ch=1 n=c#5 v=80
118800 Off ch=1 n=e5 v=80
118800 On ch=1 n=g#5 v=70
119040 On ch=1 n=e5 v=53
119040 On ch=1 n=c#5 v=53
119280 Off ch=1 n=c#5 v=80
119280 Off ch=1 n=e5 v=80
119280 Off ch=1 n=g#5 v=80
119280 On ch=1 n=a5 v=75
119520 On ch=1 n=c#5 v=53
119520 On ch=1 n=e5 v=53
119760 Off ch=1 n=e5 v=80
119760 Off ch=1 n=c#5 v=80
119760 Off ch=1 n=a5 v=80
119760 On ch=1 n=g#5 v=80
120000 On ch=1 n=c#5 v=53
120000 On ch=1 n=e5 v=53
120240 Off ch=1 n=e5 v=80
120240 Off ch=1 n=c#5 v=80
120240 Off ch=1 n=g#5 v=80
120240 On ch=1 n=a5 v=85
120480 On ch=1 n=c#5 v=53
120480 On ch=1 n=e5 v=53
120720 Off ch=1 n=e5 v=80
120720 Off ch=1 n=c#5 v=80
120720 Off ch=1 n=a5 v=80
120720 On ch=1 n=a5 v=100
121200 On ch=1 n=f5 v=53
121200 On ch=1 n=d5 v=53
121440 Off ch=1 n=d5 v=80
121440 Off ch=1 n=f5 v=80
121680 On ch=1 n=d5 v=53
121680 On ch=1 n=f5 v=53
121920 Off ch=1 n=f5 v=80
121920 Off ch=1 n=d5 v=80
122160 On ch=1 n=d5 v=53
122160 On ch=1 n=f5 v=53
122400 Off ch=1 n=f5 v=80
122400 Off ch=1 n=a5 v=80
122400 Off ch=1 n=d5 v=80
122400 On ch=1 n=g5 v=90
122640 On ch=1 n=d5 v=53
122640 On ch=1 n=f5 v=53
122880 Off ch=1 n=f5 v=80
122880 Off ch=1 n=d5 v=80
123120 On ch=1 n=d5 v=53
123120 On ch=1 n=f5 v=53
123360 Off ch=1 n=f5 v=80
123360 Off ch=1 n=d5 v=80
123600 On ch=1 n=d5 v=53
123600 On ch=1 n=f5 v=53
123840 Off ch=1 n=f5 v=80
123840 Off ch=1 n=g5 v=80
123840 Off ch=1 n=d5 v=80
124080 On ch=1 n=g5 v=65
124320 On ch=1 n=a#4 v=53
124320 On ch=1 n=e5 v=53
124560 Off ch=1 n=e5 v=80
124560 Off ch=1 n=a#4 v=80
124560 Off ch=1 n=g5 v=80
124560 On ch=1 n=a5 v=70
124800 On ch=1 n=a#4 v=53
124800 On ch=1 n=e5 v=53
125040 Off ch=1 n=e5 v=80
125040 Off ch=1 n=a#4 v=80
125040 Off ch=1 n=a5 v=80
125040 On ch=1 n=a#5 v=75
125280 On ch=1 n=a#4 v=53
125280 On ch=1 n=e5 v=53
125520 Off ch=1 n=e5 v=80
125520 Off ch=1 n=a#4 v=80
125520 Off ch=1 n=a#5 v=80
125520 On ch=1 n=a5 v=80
125760 On ch=1 n=a#4 v=53
125760 On ch=1 n=e5 v=53
126000 Off ch=1 n=e5 v=80
126000 Off ch=1 n=a#4 v=80
126000 Off ch=1 n=a5 v=80
126000 On ch=1 n=a#5 v=85
126240 On ch=1 n=a#4 v=53
126240 On ch=1 n=e5 v=53
126480 Off ch=1 n=e5 v=80
126480 Off ch=1 n=a#4 v=80
126480 Off ch=1 n=a#5 v=80
126480 On ch=1 n=a#5 v=100
126720 On ch=1 n=f#5 v=53
126720 On ch=1 n=d#5 v=53
126960 Off ch=1 n=d#5 v=80
126960 Off ch=1 n=f#5 v=80
126960 On ch=1 n=f#5 v=53
126960 On ch=1 n=d#5 v=53
127200 Off ch=1 n=d#5 v=80
127200 Off ch=1 n=f#5 v=80
127440 On ch=1 n=d#5 v=53
127440 On ch=1 n=f#5 v=53
127680 Off ch=1 n=f#5 v=80
127680 Off ch=1 n=d#5 v=80
127920 On ch=1 n=d#5 v=53
127920 On ch=1 n=f#5 v=53
128160 Off ch=1 n=f#5 v=80
128160 Off ch=1 n=a#5 v=80
128160 Off ch=1 n=d#5 v=80
128160 On ch=1 n=a5 v=90
128400 On ch=1 n=d#5 v=53
128400 On ch=1 n=f#5 v=53
128640 Off ch=1 n=f#5 v=80
128640 Off ch=1 n=d#5 v=80
128880 On ch=1 n=d#5 v=53
128880 On ch=1 n=f#5 v=53
129120 Off ch=1 n=f#5 v=80
129120 Off ch=1 n=d#5 v=80
129360 On ch=1 n=d#5 v=53
129360 On ch=1 n=f#5 v=53
129600 Off ch=1 n=f#5 v=80
129600 Off ch=1 n=a5 v=80
129600 Off ch=1 n=d#5 v=80
129840 On ch=1 n=d6 v=90
130080 On ch=1 n=g5 v=71
130080 On ch=1 n=d5 v=71
130320 Off ch=1 n=d5 v=80
130320 Off ch=1 n=g5 v=80
130320 Off ch=1 n=d6 v=80
130320 On ch=1 n=a5 v=90
130560 On ch=1 n=f#5 v=71
130560 On ch=1 n=d5 v=71
130800 Off ch=1 n=d5 v=80
130800 Off ch=1 n=f#5 v=80
130800 Off ch=1 n=a5 v=80
130800 On ch=1 n=a#5 v=90
131040 On ch=1 n=g5 v=71
131040 On ch=1 n=d5 v=71
131280 Off ch=1 n=d5 v=80
131280 Off ch=1 n=g5 v=80
131280 Off ch=1 n=a#5 v=80
131280 On ch=1 n=a5 v=90
131520 On ch=1 n=d5 v=71
131520 On ch=1 n=a#4 v=71
131760 Off ch=1 n=a#4 v=80
131760 Off ch=1 n=d5 v=80
131760 Off ch=1 n=a5 v=80
131760 On ch=1 n=g5 v=82
132000 On ch=1 n=d5 v=63
132000 On ch=1 n=a#4 v=63
132240 Off ch=1 n=a#4 v=80
132240 Off ch=1 n=d5 v=80
132240 Off ch=1 n=g5 v=80
132240 On ch=1 n=e5 v=74
132480 On ch=1 n=c5 v=55
132480 On ch=1 n=g4 v=55
132720 Off ch=1 n=g4 v=80
132720 Off ch=1 n=c5 v=80
132720 On ch=1 n=g4 v=55
132720 On ch=1 n=c5 v=55
132960 Off ch=1 n=c5 v=80
132960 Off ch=1 n=g4 v=80
133200 On ch=1 n=c5 v=55
133200 On ch=1 n=g4 v=55
133440 Off ch=1 n=g4 v=80
133440 Off ch=1 n=c5 v=80
133680 On ch=1 n=c5 v=55
133680 On ch=1 n=g4 v=55
133920 Off ch=1 n=g4 v=80
133920 Off ch=1 n=e5 v=80
133920 Off ch=1 n=c5 v=80
133920 On ch=1 n=f5 v=65
134160 On ch=1 n=c5 v=55
134160 On ch=1 n=a4 v=55
134400 Off ch=1 n=a4 v=80
134400 Off ch=1 n=c5 v=80
134640 On ch=1 n=c5 v=55
134640 On ch=1 n=a4 v=55
134880 Off ch=1 n=a4 v=80
134880 Off ch=1 n=c5 v=80
135120 On ch=1 n=c5 v=55
135120 On ch=1 n=a4 v=55
135360 Off ch=1 n=a4 v=80
135360 Off ch=1 n=f5 v=80
135360 Off ch=1 n=c5 v=80
135600 On ch=1 n=d6 v=90
135840 On ch=1 n=g5 v=71
135840 On ch=1 n=d5 v=71
136080 Off ch=1 n=d5 v=80
136080 Off ch=1 n=g5 v=80
136080 Off ch=1 n=d6 v=80
136080 On ch=1 n=a5 v=90
136320 On ch=1 n=f#5 v=71
136320 On ch=1 n=d5 v=71
136560 Off ch=1 n=d5 v=80
136560 Off ch=1 n=f#5 v=80
136560 Off ch=1 n=a5 v=80
136560 On ch=1 n=a#5 v=90
136800 On ch=1 n=g5 v=71
136800 On ch=1 n=d5 v=71
137040 Off ch=1 n=d5 v=80
137040 Off ch=1 n=g5 v=80
137040 Off ch=1 n=a#5 v=80
137040 On ch=1 n=a5 v=90
137280 On ch=1 n=d5 v=71
137280 On ch=1 n=a#4 v=71
137520 Off ch=1 n=a#4 v=80
137520 Off ch=1 n=d5 v=80
137520 Off ch=1 n=a5 v=80
137520 On ch=1 n=g5 v=90
137760 On ch=1 n=a#4 v=63
137760 On ch=1 n=d5 v=63
138000 Off ch=1 n=d5 v=80
138000 Off ch=1 n=a#4 v=80
138000 Off ch=1 n=g5 v=80
138000 On ch=1 n=e5 v=90
138240 On ch=1 n=c5 v=55
138240 On ch=1 n=g4 v=55
138480 Off ch=1 n=g4 v=80
138480 Off ch=1 n=c5 v=80
138480 On ch=1 n=g4 v=55
138480 On ch=1 n=c5 v=55
138720 Off ch=1 n=c5 v=80
138720 Off ch=1 n=g4 v=80
138960 On ch=1 n=c5 v=55
138960 On ch=1 n=g4 v=55
139200 Off ch=1 n=g4 v=80
139200 Off ch=1 n=c5 v=80
139440 On ch=1 n=c5 v=55
139440 On ch=1 n=g4 v=55
139680 Off ch=1 n=g4 v=80
139680 Off ch=1 n=e5 v=80
139680 Off ch=1 n=c5 v=80
139680 On ch=1 n=d#5 v=90
139920 On ch=1 n=f#4 v=47
139920 On ch=1 n=c5 v=47
140160 Off ch=1 n=c5 v=80
140160 Off ch=1 n=f#4 v=80
140400 On ch=1 n=g4 v=47
140400 On ch=1 n=c5 v=47
140640 Off ch=1 n=c5 v=80
140640 Off ch=1 n=g4 v=80
140880 On ch=1 n=a4 v=47
140880 On ch=1 n=c5 v=47
141120 Off ch=1 n=c5 v=80
141120 Off ch=1 n=d#5 v=80
141120 Off ch=1 n=a4 v=80
141120 On ch=1 n=d5 v=90
141360 On ch=1 n=a4 v=47
141360 On ch=1 n=c5 v=47
141600 Off ch=1 n=c5 v=80
141600 Off ch=1 n=a4 v=80
141840 On ch=1 n=c5 v=47
141840 On ch=1 n=a4 v=47
142080 Off ch=1 n=a4 v=80
142080 Off ch=1 n=c5 v=80
142320 On ch=1 n=c5 v=47
142320 On ch=1 n=a4 v=47
142560 Off ch=1 n=a4 v=80
142560 Off ch=1 n=d5 v=80
142560 Off ch=1 n=c5 v=80
142560 On ch=1 n=d5 v=90
142800 On ch=1 n=a#4 v=47
142800 On ch=1 n=g4 v=47
143040 Off ch=1 n=g4 v=80
143040 Off ch=1 n=a#4 v=80
143280 On ch=1 n=a#4 v=47
143280 On ch=1 n=g4 v=47
143520 Off ch=1 n=g4 v=80
143520 Off ch=1 n=a#4 v=80
143760 On ch=1 n=a#4 v=47
143760 On ch=1 n=g4 v=47
143880 Off ch=1 n=d5 v=80
143880 On ch=1 n=d5 v=90
144000 Off ch=1 n=a#4 v=80
144000 Off ch=1 n=g4 v=80
144000 Off ch=1 n=d5 v=80
144000 On ch=1 n=c#5 v=78
144240 On ch=1 n=e4 v=41
144240 On ch=1 n=a4 v=41
144480 Off ch=1 n=a4 v=80
144480 Off ch=1 n=e4 v=80
144720 On ch=1 n=e4 v=41
144720 On ch=1 n=a4 v=41
144960 Off ch=1 n=a4 v=80
144960 Off ch=1 n=e4 v=80
145200 On ch=1 n=e4 v=41
145200 On ch=1 n=a4 v=41
145440 Off ch=1 n=a4 v=80
145440 Off ch=1 n=c#5 v=80
145440 Off ch=1 n=e4 v=80
145440 On ch=1 n=e5 v=65
145680 On ch=1 n=a4 v=35
145680 On ch=1 n=c#5 v=35
145920 Off ch=1 n=c#5 v=80
145920 Off ch=1 n=a4 v=80
146160 On ch=1 n=a4 v=35
146160 On ch=1 n=c#5 v=35
146400 Off ch=1 n=c#5 v=80
146400 Off ch=1 n=a4 v=80
146640 On ch=1 n=a4 v=35
146640 On ch=1 n=c#5 v=35
146880 Off ch=1 n=c#5 v=80
146880 Off ch=1 n=e5 v=80
146880 Off ch=1 n=a4 v=80
146880 On ch=1 n=a5 v=65
147360 On ch=1 n=g5 v=47
147360 On ch=1 n=e5 v=47
147840 Off ch=1 n=e5 v=80
147840 Off ch=1 n=g5 v=80
147840 On ch=1 n=g5 v=47
147840 On ch=1 n=e5 v=47
148320 Off ch=1 n=e5 v=80
148320 Off ch=1 n=a5 v=80
148320 Off ch=1 n=g5 v=80
148320 On ch=1 n=a5 v=65
148560 On ch=1 n=d5 v=47
148800 Off ch=1 n=a5 v=80
148800 On ch=1 n=d6 v=73
149280 Off ch=1 n=d5 v=80
149280 On ch=1 n=d5 v=47
149520 Off ch=1 n=d6 v=80
149520 On ch=1 n=c#6 v=81
149760 Off ch=1 n=d5 v=80
149760 Off ch=1 n=c#6 v=80
149760 On ch=1 n=c#6 v=90
150240 On ch=1 n=g5 v=47
150240 On ch=1 n=d5 v=47
150720 Off ch=1 n=d5 v=80
150720 Off ch=1 n=g5 v=80
150720 Off ch=1 n=c#6 v=80
150720 On ch=1 n=d5 v=47
150720 On ch=1 n=g5 v=47
150720 On ch=1 n=b5 v=90
151200 Off ch=1 n=b5 v=80
151200 Off ch=1 n=g5 v=80
151200 Off ch=1 n=d5 v=80
151200 On ch=1 n=a5 v=90
151680 On ch=1 n=e5 v=47
151680 On ch=1 n=g5 v=47
152160 Off ch=1 n=g5 v=80
152160 Off ch=1 n=e5 v=80
152160 On ch=1 n=g5 v=47
152160 On ch=1 n=e5 v=47
152640 Off ch=1 n=e5 v=80
152640 Off ch=1 n=a5 v=80
152640 Off ch=1 n=g5 v=80
152640 On ch=1 n=a5 v=65
153120 On ch=1 n=g5 v=47
153120 On ch=1 n=e5 v=47
153600 Off ch=1 n=e5 v=80
153600 Off ch=1 n=g5 v=80
153600 On ch=1 n=g5 v=47
153600 On ch=1 n=e5 v=47
154080 Off ch=1 n=e5 v=80
154080 Off ch=1 n=a5 v=80
154080 Off ch=1 n=g5 v=80
154080 On ch=1 n=a5 v=65
154320 On ch=1 n=d5 v=47
154560 Off ch=1 n=a5 v=80
154560 On ch=1 n=d6 v=73
155040 Off ch=1 n=d5 v=80
155040 On ch=1 n=d5 v=47
155280 Off ch=1 n=d6 v=80
155280 On ch=1 n=c#6 v=81
155520 Off ch=1 n=d5 v=80
155520 Off ch=1 n=c#6 v=80
155520 On ch=1 n=c#6 v=90
156000 On ch=1 n=g5 v=47
156000 On ch=1 n=d5 v=47
156480 Off ch=1 n=d5 v=80
156480 Off ch=1 n=g5 v=80
156480 Off ch=1 n=c#6 v=80
156480 On ch=1 n=b5 v=90
156480 On ch=1 n=d5 v=47
156480 On ch=1 n=g5 v=47
156960 Off ch=1 n=g5 v=80
156960 Off ch=1 n=d5 v=80
156960 Off ch=1 n=b5 v=80
156960 On ch=1 n=a5 v=90
157440 On ch=1 n=e5 v=47
157440 On ch=1 n=g5 v=47
157920 Off ch=1 n=g5 v=80
157920 Off ch=1 n=e5 v=80
157920 On ch=1 n=g5 v=47
157920 On ch=1 n=e5 v=47
158400 Off ch=1 n=e5 v=80
158400 Off ch=1 n=a5 v=80
158400 Off ch=1 n=g5 v=80
158400 On ch=1 n=a5 v=65
158880 On ch=1 n=g5 v=47
158880 On ch=1 n=e5 v=47
159360 Off ch=1 n=e5 v=80
159360 Off ch=1 n=g5 v=80
159360 On ch=1 n=g5 v=47
159360 On ch=1 n=e5 v=47
159840 Off ch=1 n=e5 v=80
159840 Off ch=1 n=a5 v=80
159840 Off ch=1 n=g5 v=80
159840 On ch=1 n=a5 v=65
160080 On ch=1 n=d5 v=47
160320 Off ch=1 n=a5 v=80
160320 On ch=1 n=d6 v=73
160800 Off ch=1 n=d5 v=80
160800 On ch=1 n=d5 v=47
161040 Off ch=1 n=d6 v=80
161040 On ch=1 n=c#6 v=81
161280 Off ch=1 n=d5 v=80
161280 Off ch=1 n=c#6 v=80
161280 On ch=1 n=c#6 v=90
161760 On ch=1 n=e5 v=47
162240 Off ch=1 n=e5 v=80
162240 Off ch=1 n=c#6 v=80
162240 On ch=1 n=e5 v=47
162240 On ch=1 n=f#5 v=65
162720 Off ch=1 n=f#5 v=80
162720 Off ch=1 n=e5 v=80
162720 On ch=1 n=f#5 v=65
162960 On ch=1 n=d5 v=47
163200 Off ch=1 n=f#5 v=80
163200 On ch=1 n=c#6 v=73
163680 Off ch=1 n=d5 v=80
163680 On ch=1 n=d5 v=47
163920 Off ch=1 n=c#6 v=80
163920 On ch=1 n=b5 v=81
164160 Off ch=1 n=d5 v=80
164160 Off ch=1 n=b5 v=80
164160 On ch=1 n=b5 v=90
164640 Off ch=1 n=b5 v=80
164640 On ch=1 n=e5 v=65
164640 On ch=1 n=b4 v=65
165120 Off ch=1 n=b4 v=80
165120 Off ch=1 n=e5 v=80
165120 On ch=1 n=b4 v=102
165120 On ch=1 n=d#5 v=102
165120 On ch=1 n=f#5 v=102
165600 Off ch=1 n=f#5 v=80
165600 Off ch=1 n=d#5 v=80
165600 Off ch=1 n=b4 v=80
165600 On ch=1 n=d6 v=65
166080 Off ch=1 n=d6 v=80
166080 On ch=1 n=g5 v=72
166080 On ch=1 n=d5 v=72
166560 Off ch=1 n=d5 v=80
166560 Off ch=1 n=g5 v=80
166560 On ch=1 n=d5 v=102
166560 On ch=1 n=a5 v=102
166560 On ch=1 n=f#5 v=102
167040 Off ch=1 n=f#5 v=80
167040 Off ch=1 n=a5 v=80
167040 Off ch=1 n=d5 v=80
167040 On ch=1 n=g6 v=78
167520 On ch=1 n=d6 v=84
167520 On ch=1 n=g5 v=84
168000 Off ch=1 n=g5 v=80
168000 Off ch=1 n=d6 v=80
168000 Off ch=1 n=g6 v=80
168000 On ch=1 n=g#6 v=102
168000 On ch=1 n=d6 v=102
168000 On ch=1 n=g#5 v=102
168480 Off ch=1 n=g#5 v=80
168480 Off ch=1 n=d6 v=80
168480 Off ch=1 n=g#6 v=80
168960 On ch=1 n=a6 v=102
168960 On ch=1 n=f#6 v=102
168960 On ch=1 n=a5 v=102
169200 Off ch=1 n=a5 v=80
169200 Off ch=1 n=f#6 v=80
169200 Off ch=1 n=a6 v=80
169440 On ch=1 n=e6 v=102
169440 On ch=1 n=g5 v=102
169440 On ch=1 n=c#6 v=102
169680 Off ch=1 n=c#6 v=80
169680 Off ch=1 n=g5 v=80
169680 Off ch=1 n=e6 v=80
169920 On ch=1 n=f#6 v=114
169920 On ch=1 n=d6 v=114
169920 On ch=1 n=f#5 v=114
170880 Off ch=1 n=f#5 v=80
170880 Off ch=1 n=d6 v=80
170880 Off ch=1 n=f#6 v=80
170880 On ch=1 n=e6 v=114
170880 On ch=1 n=c#6 v=114
170880 On ch=1 n=f#5 v=114
171360 Off ch=1 n=f#5 v=80
171360 Off ch=1 n=c#6 v=80
171360 Off ch=1 n=e6 v=80
171360 On ch=1 n=f#5 v=114
171360 On ch=1 n=b5 v=114
171360 On ch=1 n=d6 v=114
172320 Off ch=1 n=d6 v=80
172320 Off ch=1 n=b5 v=80
172320 Off ch=1 n=f#5 v=80
172320 On ch=1 n=g5 v=114
172320 On ch=1 n=d6 v=114
172320 On ch=1 n=g6 v=114
172800 Off ch=1 n=g6 v=80
172800 Off ch=1 n=d6 v=80
172800 Off ch=1 n=g5 v=80
172800 On ch=1 n=g6 v=114
172800 On ch=1 n=c#6 v=114
172800 On ch=1 n=g5 v=114
173760 Off ch=1 n=g5 v=80
173760 Off ch=1 n=c#6 v=80
173760 Off ch=1 n=g6 v=80
173760 On ch=1 n=g6 v=118
173760 On ch=1 n=d6 v=118
173760 On ch=1 n=g5 v=118
174720 Off ch=1 n=g5 v=80
174720 Off ch=1 n=d6 v=80
174720 Off ch=1 n=g6 v=80
174720 On ch=1 n=g5 v=122
174720 On ch=1 n=g6 v=122
174720 On ch=1 n=e6 v=122
175680 Off ch=1 n=e6 v=80
175680 Off ch=1 n=g6 v=80
175680 Off ch=1 n=g5 v=80
175680 On ch=1 n=f#6 v=127
175680 On ch=1 n=d6 v=127
175680 On ch=1 n=f#5 v=127
175920 Off ch=1 n=f#5 v=80
175920 Off ch=1 n=d6 v=80
175920 Off ch=1 n=f#6 v=80
175920 On ch=1 n=f#5 v=127
175920 On ch=1 n=d6 v=127
175920 On ch=1 n=f#6 v=127
176160 Off ch=1 n=f#6 v=80
176160 Off ch=1 n=d6 v=80
176160 Off ch=1 n=f#5 v=80
176160 On ch=1 n=f#6 v=127
176160 On ch=1 n=d6 v=127
176160 On ch=1 n=f#5 v=127
176640 Off ch=1 n=f#5 v=80
176640 Off ch=1 n=d6 v=80
176640 Off ch=1 n=f#6 v=80
176640 On ch=1 n=f#5 v=127
176640 On ch=1 n=c#6 v=127
176640 On ch=1 n=e6 v=127
177120 Off ch=1 n=e6 v=80
177120 Off ch=1 n=c#6 v=80
177120 Off ch=1 n=f#5 v=80
177120 On ch=1 n=d6 v=114
177120 On ch=1 n=b5 v=114
177120 On ch=1 n=f#5 v=114
178080 Off ch=1 n=f#5 v=80
178080 Off ch=1 n=b5 v=80
178080 Off ch=1 n=d6 v=80
178080 On ch=1 n=g5 v=114
178080 On ch=1 n=d6 v=114
178080 On ch=1 n=g6 v=114
178560 Off ch=1 n=g6 v=80
178560 Off ch=1 n=d6 v=80
178560 Off ch=1 n=g5 v=80
178560 On ch=1 n=g6 v=114
178560 On ch=1 n=c#6 v=114
178560 On ch=1 n=g5 v=114
179520 Off ch=1 n=g5 v=80
179520 Off ch=1 n=c#6 v=80
179520 Off ch=1 n=g6 v=80
179520 On ch=1 n=g6 v=118
179520 On ch=1 n=d6 v=118
179520 On ch=1 n=g5 v=118
180480 Off ch=1 n=g5 v=80
180480 Off ch=1 n=d6 v=80
180480 Off ch=1 n=g6 v=80
180480 On ch=1 n=g5 v=122
180480 On ch=1 n=g6 v=122
180480 On ch=1 n=e6 v=122
181440 Off ch=1 n=e6 v=80
181440 Off ch=1 n=g6 v=80
181440 Off ch=1 n=g5 v=80
181440 On ch=1 n=f#6 v=127
181440 On ch=1 n=d6 v=127
181440 On ch=1 n=f#5 v=127
181920 Off ch=1 n=f#5 v=80
181920 Off ch=1 n=d6 v=80
181920 Off ch=1 n=f#6 v=80
182400 On ch=1 n=c#5 v=102
182400 On ch=1 n=g4 v=90
182640 Off ch=1 n=g4 v=80
182640 On ch=1 n=a4 v=90
182880 Off ch=1 n=a4 v=80
182880 On ch=1 n=a#4 v=90
183120 Off ch=1 n=a#4 v=80
183360 Off ch=1 n=c#5 v=80
183360 On ch=1 n=d#5 v=102
183360 On ch=1 n=a4 v=90
183600 Off ch=1 n=a4 v=80
183600 On ch=1 n=b4 v=90
183840 Off ch=1 n=b4 v=80
183840 On ch=1 n=c5 v=90
184080 Off ch=1 n=c5 v=80
184320 Off ch=1 n=d#5 v=80
184320 On ch=1 n=f5 v=102
184320 On ch=1 n=b4 v=90
184560 Off ch=1 n=b4 v=80
184560 On ch=1 n=c5 v=90
184800 Off ch=1 n=c5 v=80
184800 On ch=1 n=d5 v=90
185040 Off ch=1 n=d5 v=80
185280 Off ch=1 n=f5 v=80
185280 On ch=1 n=b5 v=102
185280 On ch=1 n=d5 v=90
185520 Off ch=1 n=d5 v=80
185520 On ch=1 n=e5 v=90
185760 Off ch=1 n=e5 v=80
185760 On ch=1 n=f5 v=90
186000 Off ch=1 n=f5 v=80
186240 Off ch=1 n=b5 v=80
186240 On ch=1 n=a5 v=102
186240 On ch=1 n=f#5 v=102
186240 On ch=1 n=d5 v=102
186480 Off ch=1 n=d5 v=80
186480 Off ch=1 n=f#5 v=80
186480 Off ch=1 n=a5 v=80
186720 On ch=1 n=e5 v=102
186720 On ch=1 n=c#6 v=102
186720 On ch=1 n=a5 v=102
186960 Off ch=1 n=a5 v=80
186960 Off ch=1 n=c#6 v=80
186960 Off ch=1 n=e5 v=80
187200 On ch=1 n=d6 v=102
187200 On ch=1 n=a5 v=102
187200 On ch=1 n=d5 v=102
187680 Off ch=1 n=d5 v=80
187680 Off ch=1 n=a5 v=80
187680 Off ch=1 n=d6 v=80
188160 On ch=1 n=b4 v=102
188160 On ch=1 n=d#4 v=90
188400 Off ch=1 n=d#4 v=80
188400 On ch=1 n=e4 v=90
188640 Off ch=1 n=e4 v=80
188640 On ch=1 n=f#4 v=90
188880 Off ch=1 n=f#4 v=80
189120 Off ch=1 n=b4 v=80
189120 On ch=1 n=d5 v=102
189120 On ch=1 n=g4 v=90
189360 Off ch=1 n=g4 v=80
189360 On ch=1 n=a4 v=90
189600 Off ch=1 n=a4 v=80
189600 On ch=1 n=a#4 v=90
189840 Off ch=1 n=a#4 v=80
190080 Off ch=1 n=d5 v=80
190080 On ch=1 n=g5 v=102
190080 On ch=1 n=c5 v=90
190320 Off ch=1 n=c5 v=80
190320 On ch=1 n=d5 v=90
190560 Off ch=1 n=d5 v=80
190560 On ch=1 n=d#5 v=90
190800 Off ch=1 n=d#5 v=80
191040 Off ch=1 n=g5 v=80
191040 On ch=1 n=c6 v=102
191040 On ch=1 n=f5 v=90
191280 Off ch=1 n=f5 v=80
191280 On ch=1 n=g5 v=90
191520 Off ch=1 n=g5 v=80
191520 On ch=1 n=g#5 v=90
191760 Off ch=1 n=g#5 v=80
192000 Off ch=1 n=c6 v=80
192000 On ch=1 n=b5 v=102
192000 On ch=1 n=f5 v=102
192240 Off ch=1 n=f5 v=80
192240 Off ch=1 n=b5 v=80
192480 On ch=1 n=f5 v=114
192480 On ch=1 n=d6 v=114
192720 Off ch=1 n=d6 v=80
192720 Off ch=1 n=f5 v=80
192960 On ch=1 n=d6 v=120
192960 On ch=1 n=f5 v=120
192960 On ch=1 n=f6 v=120
193440 Off ch=1 n=f6 v=80
193440 Off ch=1 n=f5 v=80
193440 Off ch=1 n=d6 v=80
193440 On ch=1 n=d5 v=65
193440 On ch=1 n=f5 v=65
193920 Off ch=1 n=f5 v=80
193920 Off ch=1 n=d5 v=80
193920 On ch=1 n=d5 v=65
193920 On ch=1 n=g5 v=65
193920 On ch=1 n=f5 v=65
194400 Off ch=1 n=f5 v=80
194400 Off ch=1 n=g5 v=80
194400 Off ch=1 n=d5 v=80
194400 On ch=1 n=g5 v=65
194640 On ch=1 n=c5 v=53
194760 Off ch=1 n=c5 v=80
194760 On ch=1 n=c5 v=53
194880 Off ch=1 n=g5 v=80
194880 On ch=1 n=c6 v=73
195360 Off ch=1 n=c5 v=80
195360 On ch=1 n=c5 v=63
195600 Off ch=1 n=c6 v=80
195600 On ch=1 n=b5 v=81
195840 Off ch=1 n=c5 v=80
195840 Off ch=1 n=b5 v=80
195840 On ch=1 n=b5 v=100
196320 On ch=1 n=f5 v=47
196320 On ch=1 n=c5 v=47
196800 Off ch=1 n=c5 v=80
196800 Off ch=1 n=f5 v=80
196800 Off ch=1 n=b5 v=80
196800 On ch=1 n=c5 v=47
196800 On ch=1 n=f5 v=47
196800 On ch=1 n=a5 v=90
197280 Off ch=1 n=a5 v=80
197280 Off ch=1 n=f5 v=80
197280 Off ch=1 n=c5 v=80
197280 On ch=1 n=g5 v=90
197760 On ch=1 n=d5 v=47
197760 On ch=1 n=f5 v=47
198240 Off ch=1 n=f5 v=80
198240 Off ch=1 n=d5 v=80
198240 On ch=1 n=f5 v=47
198240 On ch=1 n=d5 v=47
198720 Off ch=1 n=d5 v=80
198720 Off ch=1 n=g5 v=80
198720 Off ch=1 n=f5 v=80
198720 On ch=1 n=g5 v=65
199200 On ch=1 n=f5 v=47
199200 On ch=1 n=d5 v=47
199680 Off ch=1 n=d5 v=80
199680 Off ch=1 n=f5 v=80
199680 On ch=1 n=f5 v=47
199680 On ch=1 n=d5 v=47
200160 Off ch=1 n=d5 v=80
200160 Off ch=1 n=g5 v=80
200160 Off ch=1 n=f5 v=80
200160 On ch=1 n=g5 v=65
200400 On ch=1 n=c5 v=53
200520 Off ch=1 n=c5 v=80
200520 On ch=1 n=c5 v=53
200640 Off ch=1 n=g5 v=80
200640 On ch=1 n=c6 v=73
201120 Off ch=1 n=c5 v=80
201120 On ch=1 n=c5 v=63
201360 Off ch=1 n=c6 v=80
201360 On ch=1 n=b5 v=81
201600 Off ch=1 n=c5 v=80
201600 Off ch=1 n=b5 v=80
201600 On ch=1 n=b5 v=90
202080 On ch=1 n=f5 v=47
202080 On ch=1 n=c5 v=47
202560 Off ch=1 n=c5 v=80
202560 Off ch=1 n=f5 v=80
202560 Off ch=1 n=b5 v=80
202560 On ch=1 n=a5 v=90
202560 On ch=1 n=c5 v=47
202560 On ch=1 n=f5 v=47
203040 Off ch=1 n=f5 v=80
203040 Off ch=1 n=c5 v=80
203040 Off ch=1 n=a5 v=80
203040 On ch=1 n=g5 v=90
203520 On ch=1 n=f5 v=47
203520 On ch=1 n=d5 v=47
204000 Off ch=1 n=d5 v=80
204000 Off ch=1 n=f5 v=80
204000 Off ch=1 n=g5 v=80
204000 On ch=1 n=e5 v=120
204000 On ch=1 n=d5 v=120
204000 On ch=1 n=g#5 v=120
204480 Off ch=1 n=g#5 v=80
204480 Off ch=1 n=d5 v=80
204480 Off ch=1 n=e5 v=80
204480 On ch=1 n=a5 v=102
204960 On ch=1 n=g5 v=84
204960 On ch=1 n=e5 v=84
205440 Off ch=1 n=e5 v=80
205440 Off ch=1 n=g5 v=80
205440 On ch=1 n=g5 v=84
205440 On ch=1 n=e5 v=84
205920 Off ch=1 n=e5 v=80
205920 Off ch=1 n=a5 v=80
205920 Off ch=1 n=g5 v=80
205920 On ch=1 n=a5 v=102
206160 On ch=1 n=d5 v=102
206400 Off ch=1 n=a5 v=80
206400 On ch=1 n=d6 v=102
206880 Off ch=1 n=d5 v=80
206880 On ch=1 n=d5 v=102
207120 Off ch=1 n=d6 v=80
207120 On ch=1 n=c#6 v=102
207360 Off ch=1 n=d5 v=80
207360 Off ch=1 n=c#6 v=80
207360 On ch=1 n=c#6 v=102
207840 On ch=1 n=e5 v=102
208320 Off ch=1 n=e5 v=80
208320 Off ch=1 n=c#6 v=80
208320 On ch=1 n=e5 v=102
208320 On ch=1 n=f#5 v=102
208800 Off ch=1 n=f#5 v=80
208800 Off ch=1 n=e5 v=80
208800 On ch=1 n=f#5 v=102
209040 On ch=1 n=d5 v=102
209280 Off ch=1 n=f#5 v=80
209280 On ch=1 n=c#6 v=102
209760 Off ch=1 n=d5 v=80
209760 On ch=1 n=d5 v=102
210000 Off ch=1 n=c#6 v=80
210000 On ch=1 n=b5 v=102
210240 Off ch=1 n=d5 v=80
210240 Off ch=1 n=b5 v=80
210240 On ch=1 n=b5 v=102
210720 Off ch=1 n=b5 v=80
210720 On ch=1 n=e5 v=77
210720 On ch=1 n=b4 v=77
211200 Off ch=1 n=b4 v=80
211200 Off ch=1 n=e5 v=80
211200 On ch=1 n=b4 v=114
211200 On ch=1 n=d#5 v=114
211200 On ch=1 n=f#5 v=114
211680 Off ch=1 n=f#5 v=80
211680 Off ch=1 n=d#5 v=80
211680 Off ch=1 n=b4 v=80
211680 On ch=1 n=d6 v=77
212160 Off ch=1 n=d6 v=80
212160 On ch=1 n=g5 v=84
212160 On ch=1 n=d5 v=84
212640 Off ch=1 n=d5 v=80
212640 Off ch=1 n=g5 v=80
212640 On ch=1 n=d5 v=114
212640 On ch=1 n=a5 v=114
212640 On ch=1 n=f#5 v=114
213120 Off ch=1 n=f#5 v=80
213120 Off ch=1 n=a5 v=80
213120 Off ch=1 n=d5 v=80
213120 On ch=1 n=g6 v=90
213600 On ch=1 n=d6 v=96
213600 On ch=1 n=g5 v=96
214080 Off ch=1 n=g5 v=80
214080 Off ch=1 n=d6 v=80
214080 Off ch=1 n=g6 v=80
214080 On ch=1 n=g#6 v=114
214080 On ch=1 n=d6 v=114
214080 On ch=1 n=g#5 v=114
214560 Off ch=1 n=g#5 v=80
214560 Off ch=1 n=d6 v=80
214560 Off ch=1 n=g#6 v=80
215040 On ch=1 n=a6 v=114
215040 On ch=1 n=f#6 v=114
215040 On ch=1 n=a5 v=114
215400 Off ch=1 n=a5 v=80
215400 Off ch=1 n=f#6 v=80
215400 Off ch=1 n=a6 v=80
215520 On ch=1 n=e6 v=114
215520 On ch=1 n=c#6 v=114
215520 On ch=1 n=g5 v=114
215880 Off ch=1 n=g5 v=80
215880 Off ch=1 n=c#6 v=80
215880 Off ch=1 n=e6 v=80
216000 On ch=1 n=d4 v=102
216240 On ch=1 n=f#4 v=84
216480 Off ch=1 n=f#4 v=80
216480 Off ch=1 n=d4 v=80
216480 On ch=1 n=e4 v=102
216720 On ch=1 n=a4 v=84
216960 Off ch=1 n=a4 v=80
216960 Off ch=1 n=e4 v=80
216960 On ch=1 n=g#4 v=102
217200 On ch=1 n=d5 v=84
217440 Off ch=1 n=d5 v=80
217440 Off ch=1 n=g#4 v=80
217440 On ch=1 n=a4 v=117
217680 On ch=1 n=c#5 v=84
217920 Off ch=1 n=c#5 v=80
217920 Off ch=1 n=a4 v=80
217920 On ch=1 n=b4 v=104
218160 On ch=1 n=e5 v=86
218400 Off ch=1 n=e5 v=80
218400 Off ch=1 n=b4 v=80
218400 On ch=1 n=c#5 v=106
218640 On ch=1 n=a5 v=88
218880 Off ch=1 n=a5 v=80
218880 Off ch=1 n=c#5 v=80
218880 On ch=1 n=d5 v=108
219120 On ch=1 n=f#5 v=90
219360 Off ch=1 n=f#5 v=80
219360 Off ch=1 n=d5 v=80
219360 On ch=1 n=e5 v=110
219600 On ch=1 n=a5 v=92
219840 Off ch=1 n=a5 v=80
219840 Off ch=1 n=e5 v=80
219840 On ch=1 n=g#5 v=112
220080 On ch=1 n=d6 v=94
220320 Off ch=1 n=d6 v=80
220320 Off ch=1 n=g#5 v=80
220320 On ch=1 n=a5 v=127
220560 On ch=1 n=c#6 v=96
220800 Off ch=1 n=c#6 v=80
220800 Off ch=1 n=a5 v=80
220800 On ch=1 n=b5 v=114
221040 On ch=1 n=e6 v=96
221280 Off ch=1 n=e6 v=80
221280 Off ch=1 n=b5 v=80
221280 On ch=1 n=c#6 v=114
221520 On ch=1 n=a6 v=96
221760 Off ch=1 n=a6 v=80
221760 Off ch=1 n=c#6 v=80
221760 On ch=1 n=d6 v=114
222000 On ch=1 n=f#6 v=96
222240 Off ch=1 n=f#6 v=80
222240 Off ch=1 n=d6 v=80
222240 On ch=1 n=c#6 v=114
222480 On ch=1 n=e6 v=96
222720 Off ch=1 n=e6 v=80
222720 Off ch=1 n=c#6 v=80
222720 On ch=1 n=c6 v=114
222960 On ch=1 n=a6 v=96
223200 Off ch=1 n=a6 v=80
223200 Off ch=1 n=c6 v=80
223200 On ch=1 n=b5 v=114
223440 On ch=1 n=d6 v=96
223680 Off ch=1 n=d6 v=80
223680 Off ch=1 n=b5 v=80
223680 On ch=1 n=a#5 v=114
223920 On ch=1 n=g6 v=96
224160 Off ch=1 n=g6 v=80
224160 Off ch=1 n=a#5 v=80
224160 On ch=1 n=b5 v=114
224400 On ch=1 n=d6 v=96
224640 Off ch=1 n=d6 v=80
224640 Off ch=1 n=b5 v=80
224640 On ch=1 n=a5 v=114
224880 On ch=1 n=c#6 v=96
225120 Off ch=1 n=c#6 v=80
225120 Off ch=1 n=a5 v=80
225120 On ch=1 n=g#5 v=114
225360 On ch=1 n=b5 v=96
225600 Off ch=1 n=b5 v=80
225600 Off ch=1 n=g#5 v=80
225600 On ch=1 n=g5 v=114
225840 On ch=1 n=e6 v=96
226080 Off ch=1 n=e6 v=80
226080 Off ch=1 n=g5 v=80
226080 On ch=1 n=f#5 v=111
226320 On ch=1 n=a5 v=93
226560 Off ch=1 n=a5 v=80
226560 Off ch=1 n=f#5 v=80
226560 On ch=1 n=f5 v=108
226800 On ch=1 n=d6 v=90
227040 Off ch=1 n=d6 v=80
227040 Off ch=1 n=f5 v=80
227040 On ch=1 n=f#5 v=105
227280 On ch=1 n=a5 v=87
227520 Off ch=1 n=a5 v=80
227520 Off ch=1 n=f#5 v=80
227520 On ch=1 n=b4 v=102
227760 On ch=1 n=d5 v=84
228000 Off ch=1 n=d5 v=80
228000 Off ch=1 n=b4 v=80
228000 On ch=1 n=c#5 v=102
228240 On ch=1 n=f#5 v=84
228480 Off ch=1 n=f#5 v=80
228480 Off ch=1 n=c#5 v=80
228480 On ch=1 n=f5 v=102
228720 On ch=1 n=b5 v=84
228960 Off ch=1 n=b5 v=80
228960 Off ch=1 n=f5 v=80
228960 On ch=1 n=f#5 v=105
229200 On ch=1 n=a#5 v=87
229440 Off ch=1 n=a#5 v=80
229440 Off ch=1 n=f#5 v=80
229440 On ch=1 n=f#5 v=105
229680 On ch=1 n=b5 v=87
229920 Off ch=1 n=b5 v=80
229920 Off ch=1 n=f#5 v=80
229920 On ch=1 n=f#5 v=105
230160 On ch=1 n=c#6 v=87
230400 Off ch=1 n=c#6 v=80
230400 Off ch=1 n=f#5 v=80
230400 On ch=1 n=b5 v=108
230640 On ch=1 n=d6 v=90
230880 Off ch=1 n=d6 v=80
230880 Off ch=1 n=b5 v=80
230880 On ch=1 n=c#6 v=108
231120 On ch=1 n=f#6 v=90
231360 Off ch=1 n=f#6 v=80
231360 Off ch=1 n=c#6 v=80
231360 On ch=1 n=f6 v=108
231600 On ch=1 n=b6 v=90
231840 Off ch=1 n=b6 v=80
231840 Off ch=1 n=f6 v=80
231840 On ch=1 n=f#6 v=111
232080 On ch=1 n=a#6 v=93
232320 Off ch=1 n=a#6 v=80
232320 Off ch=1 n=f#6 v=80
232320 On ch=1 n=f#6 v=111
232560 On ch=1 n=b6 v=93
232800 Off ch=1 n=b6 v=80
232800 Off ch=1 n=f#6 v=80
232800 On ch=1 n=f#6 v=111
233040 On ch=1 n=c#7 v=93
233280 Off ch=1 n=c#7 v=80
233280 Off ch=1 n=f#6 v=80
233280 On ch=1 n=b6 v=114
233520 On ch=1 n=d7 v=96
233760 Off ch=1 n=d7 v=80
233760 Off ch=1 n=b6 v=80
233760 On ch=1 n=a#6 v=78
234000 On ch=1 n=c#7 v=59
234240 Off ch=1 n=c#7 v=80
234240 Off ch=1 n=a#6 v=80
234240 On ch=1 n=a6 v=78
234480 On ch=1 n=f#7 v=59
234720 Off ch=1 n=f#7 v=80
234720 Off ch=1 n=a6 v=80
234720 On ch=1 n=g6 v=83
234960 On ch=1 n=b6 v=64
235200 Off ch=1 n=b6 v=80
235200 Off ch=1 n=g6 v=80
235200 On ch=1 n=f#6 v=89
235440 On ch=1 n=e7 v=70
235680 Off ch=1 n=e7 v=80
235680 Off ch=1 n=f#6 v=80
235680 On ch=1 n=g6 v=94
235920 On ch=1 n=b6 v=75
236160 Off ch=1 n=b6 v=80
236160 Off ch=1 n=g6 v=80
236160 On ch=1 n=f#6 v=100
236400 On ch=1 n=a#6 v=81
236640 Off ch=1 n=a#6 v=80
236640 Off ch=1 n=f#6 v=80
236640 On ch=1 n=f6 v=105
236880 On ch=1 n=g#6 v=86
237120 Off ch=1 n=g#6 v=80
237120 Off ch=1 n=f6 v=80
237120 On ch=1 n=e6 v=111
237360 On ch=1 n=c#7 v=91
237600 Off ch=1 n=c#7 v=80
237600 Off ch=1 n=e6 v=80
237600 On ch=1 n=d6 v=93
237840 On ch=1 n=f#6 v=75
238080 Off ch=1 n=f#6 v=80
238080 Off ch=1 n=d6 v=80
238080 On ch=1 n=c#6 v=84
238320 On ch=1 n=b6 v=66
238560 Off ch=1 n=b6 v=80
238560 Off ch=1 n=c#6 v=80
238560 On ch=1 n=d6 v=75
238800 On ch=1 n=f#6 v=57
239040 Off ch=1 n=f#6 v=80
239040 Off ch=1 n=d6 v=80
239280 On ch=1 n=g6 v=65
239520 Off ch=1 n=g6 v=80
239520 On ch=1 n=g5 v=65
239760 Off ch=1 n=g5 v=80
239760 On ch=1 n=g6 v=65
240000 Off ch=1 n=g6 v=80
240000 On ch=1 n=f#5 v=65
240240 Off ch=1 n=f#5 v=80
240240 On ch=1 n=g6 v=65
240480 Off ch=1 n=g6 v=80
240480 On ch=1 n=g5 v=65
240720 Off ch=1 n=g5 v=80
240720 On ch=1 n=g6 v=65
240960 Off ch=1 n=g6 v=80
240960 On ch=1 n=e6 v=65
241200 Off ch=1 n=e6 v=80
241200 On ch=1 n=g6 v=65
241440 Off ch=1 n=g6 v=80
241440 On ch=1 n=d6 v=65
241680 Off ch=1 n=d6 v=80
241680 On ch=1 n=g6 v=65
241920 Off ch=1 n=g6 v=80
241920 On ch=1 n=c#6 v=65
242160 Off ch=1 n=c#6 v=80
242160 On ch=1 n=g6 v=65
242400 Off ch=1 n=g6 v=80
242400 On ch=1 n=c6 v=65
242640 Off ch=1 n=c6 v=80
242640 On ch=1 n=g6 v=65
242880 Off ch=1 n=g6 v=80
242880 On ch=1 n=c#6 v=65
243120 Off ch=1 n=c#6 v=80
243120 On ch=1 n=g6 v=65
243360 Off ch=1 n=g6 v=80
243360 On ch=1 n=d6 v=65
243600 Off ch=1 n=d6 v=80
243600 On ch=1 n=f#6 v=65
243840 Off ch=1 n=f#6 v=80
243840 On ch=1 n=a5 v=65
244080 Off ch=1 n=a5 v=80
244080 On ch=1 n=f#6 v=65
244320 Off ch=1 n=f#6 v=80
244320 On ch=1 n=f#5 v=65
244560 Off ch=1 n=f#5 v=80
244560 On ch=1 n=f#6 v=65
244800 Off ch=1 n=f#6 v=80
245040 On ch=1 n=e6 v=65
245280 Off ch=1 n=e6 v=80
245280 On ch=1 n=e5 v=65
245520 Off ch=1 n=e5 v=80
245520 On ch=1 n=e6 v=65
245760 Off ch=1 n=e6 v=80
245760 On ch=1 n=d#5 v=65
246000 Off ch=1 n=d#5 v=80
246000 On ch=1 n=e6 v=65
246240 Off ch=1 n=e6 v=80
246240 On ch=1 n=e5 v=65
246480 Off ch=1 n=e5 v=80
246480 On ch=1 n=e6 v=65
246720 Off ch=1 n=e6 v=80
246720 On ch=1 n=c#6 v=65
246960 Off ch=1 n=c#6 v=80
246960 On ch=1 n=e6 v=65
247200 Off ch=1 n=e6 v=80
247200 On ch=1 n=b5 v=65
247440 Off ch=1 n=b5 v=80
247440 On ch=1 n=e6 v=65
247680 Off ch=1 n=e6 v=80
247680 On ch=1 n=a#5 v=65
247920 Off ch=1 n=a#5 v=80
247920 On ch=1 n=e6 v=65
248160 Off ch=1 n=e6 v=80
248160 On ch=1 n=a5 v=65
248400 Off ch=1 n=a5 v=80
248400 On ch=1 n=e6 v=65
248640 Off ch=1 n=e6 v=80
248640 On ch=1 n=a#5 v=65
248880 Off ch=1 n=a#5 v=80
248880 On ch=1 n=e6 v=65
249120 Off ch=1 n=e6 v=80
249120 On ch=1 n=b5 v=65
249360 Off ch=1 n=b5 v=80
249360 On ch=1 n=d6 v=65
249600 Off ch=1 n=d6 v=80
249600 On ch=1 n=f#5 v=65
249840 Off ch=1 n=f#5 v=80
249840 On ch=1 n=d6 v=65
250080 Off ch=1 n=d6 v=80
250080 On ch=1 n=d5 v=65
250320 Off ch=1 n=d5 v=80
250320 On ch=1 n=d6 v=65
250560 Off ch=1 n=d6 v=80
250560 On ch=1 n=e5 v=65
250800 On ch=1 n=g5 v=47
251040 Off ch=1 n=g5 v=80
251040 Off ch=1 n=e5 v=80
251040 On ch=1 n=f#5 v=65
251280 On ch=1 n=b5 v=47
251520 Off ch=1 n=b5 v=80
251520 Off ch=1 n=f#5 v=80
251520 On ch=1 n=g5 v=65
251760 On ch=1 n=e6 v=47
252000 Off ch=1 n=e6 v=80
252000 Off ch=1 n=g5 v=80
252000 On ch=1 n=a5 v=69
252240 On ch=1 n=c#6 v=51
252480 Off ch=1 n=c#6 v=80
252480 Off ch=1 n=a5 v=80
252480 On ch=1 n=b5 v=69
252720 On ch=1 n=e6 v=51
252960 Off ch=1 n=e6 v=80
252960 Off ch=1 n=b5 v=80
252960 On ch=1 n=c#6 v=74
253200 On ch=1 n=a6 v=56
253440 Off ch=1 n=a6 v=80
253440 Off ch=1 n=c#6 v=80
253440 On ch=1 n=e6 v=78
253680 On ch=1 n=g6 v=60
253920 Off ch=1 n=g6 v=80
253920 Off ch=1 n=e6 v=80
253920 On ch=1 n=f#6 v=78
254160 On ch=1 n=b6 v=60
254400 Off ch=1 n=b6 v=80
254400 Off ch=1 n=f#6 v=80
254400 On ch=1 n=g6 v=83
254640 On ch=1 n=e7 v=65
254880 Off ch=1 n=e7 v=80
254880 Off ch=1 n=g6 v=80
254880 On ch=1 n=a6 v=87
255120 Off ch=1 n=a6 v=80
255120 On ch=1 n=c#7 v=69
255360 Off ch=1 n=c#7 v=80
255360 On ch=1 n=b6 v=87
255600 Off ch=1 n=b6 v=80
255600 On ch=1 n=e7 v=69
255840 Off ch=1 n=e7 v=80
255840 On ch=1 n=c#7 v=92
256080 Off ch=1 n=c#7 v=80
256080 On ch=1 n=a7 v=74
256320 Off ch=1 n=a7 v=80
256320 On ch=1 n=f#7 v=102
256320 On ch=1 n=d7 v=102
256320 On ch=1 n=f#6 v=102
256440 Off ch=1 n=f#6 v=80
256440 Off ch=1 n=d7 v=80
256440 Off ch=1 n=f#7 v=80
256800 On ch=1 n=c#7 v=102
256800 On ch=1 n=c#6 v=102
256920 Off ch=1 n=c#6 v=80
256920 Off ch=1 n=c#7 v=80
257280 On ch=1 n=d6 v=102
257280 On ch=1 n=a6 v=102
257280 On ch=1 n=d7 v=102
257400 Off ch=1 n=d7 v=80
257400 Off ch=1 n=a6 v=80
257400 Off ch=1 n=d6 v=80
257760 On ch=1 n=b5 v=102
257760 On ch=1 n=g6 v=102
257760 On ch=1 n=b6 v=102
257880 Off ch=1 n=b6 v=80
257880 Off ch=1 n=g6 v=80
257880 Off ch=1 n=b5 v=80
258240 On ch=1 n=f#5 v=102
258240 On ch=1 n=f#6 v=102
258360 Off ch=1 n=f#6 v=80
258360 Off ch=1 n=f#5 v=80
258720 On ch=1 n=g5 v=102
258720 On ch=1 n=d6 v=102
258720 On ch=1 n=g6 v=102
258840 Off ch=1 n=g6 v=80
258840 Off ch=1 n=d6 v=80
258840 Off ch=1 n=g5 v=80
259200 On ch=1 n=e6 v=102
259200 On ch=1 n=a5 v=102
259200 On ch=1 n=g5 v=102
259320 Off ch=1 n=g5 v=80
259320 Off ch=1 n=a5 v=80
259320 Off ch=1 n=e6 v=80
259680 On ch=1 n=d5 v=102
259680 On ch=1 n=a5 v=102
259800 Off ch=1 n=a5 v=80
259800 Off ch=1 n=d5 v=80
260160 On ch=1 n=c#5 v=102
260160 On ch=1 n=g5 v=102
260160 On ch=1 n=a5 v=102
260280 Off ch=1 n=a5 v=80
260280 Off ch=1 n=g5 v=80
260280 Off ch=1 n=c#5 v=80
260640 On ch=1 n=d6 v=120
260640 On ch=1 n=f#6 v=120
260640 On ch=1 n=f#5 v=120
260760 Off ch=1 n=f#5 v=80
260760 Off ch=1 n=f#6 v=80
260760 Off ch=1 n=d6 v=80
261120 On ch=1 n=d5 v=102
261120 On ch=1 n=g5 v=102
261120 On ch=1 n=a5 v=102
261240 Off ch=1 n=a5 v=80
261240 Off ch=1 n=g5 v=80
261240 Off ch=1 n=d5 v=80
261600 On ch=1 n=d5 v=102
261600 On ch=1 n=f#5 v=102
261600 On ch=1 n=a5 v=102
261720 Off ch=1 n=a5 v=80
261720 Off ch=1 n=f#5 v=80
261720 Off ch=1 n=d5 v=80
262080 On ch=1 n=d5 v=102
262080 On ch=1 n=a5 v=102
262080 On ch=1 n=d6 v=102
262200 Off ch=1 n=d6 v=80
262200 Off ch=1 n=a5 v=80
262200 Off ch=1 n=d5 v=80
262560 On ch=1 n=e5 v=102
262560 On ch=1 n=e6 v=102
262680 Off ch=1 n=e6 v=80
262680 Off ch=1 n=e5 v=80
263040 On ch=1 n=f#5 v=102
263040 On ch=1 n=d6 v=102
263040 On ch=1 n=f#6 v=102
263160 Off ch=1 n=f#6 v=80
263160 Off ch=1 n=d6 v=80
263160 Off ch=1 n=f#5 v=80
263520 On ch=1 n=g6 v=105
263520 On ch=1 n=d6 v=105
263520 On ch=1 n=g5 v=105
263640 Off ch=1 n=g5 v=80
263640 Off ch=1 n=d6 v=80
263640 Off ch=1 n=g6 v=80
264000 On ch=1 n=a6 v=105
264000 On ch=1 n=a5 v=105
264120 Off ch=1 n=a5 v=80
264120 Off ch=1 n=a6 v=80
264480 On ch=1 n=b6 v=105
264480 On ch=1 n=d6 v=105
264480 On ch=1 n=b5 v=105
264600 Off ch=1 n=b5 v=80
264600 Off ch=1 n=d6 v=80
264600 Off ch=1 n=b6 v=80
264960 On ch=1 n=c#7 v=108
264960 On ch=1 n=a6 v=108
264960 On ch=1 n=c#6 v=108
265080 Off ch=1 n=c#6 v=80
265080 Off ch=1 n=a6 v=80
265080 Off ch=1 n=c#7 v=80
265440 On ch=1 n=d7 v=108
265440 On ch=1 n=d6 v=108
265560 Off ch=1 n=d6 v=80
265560 Off ch=1 n=d7 v=80
265920 On ch=1 n=e7 v=108
265920 On ch=1 n=a6 v=108
265920 On ch=1 n=e6 v=108
266040 Off ch=1 n=e6 v=80
266040 Off ch=1 n=a6 v=80
266040 Off ch=1 n=e7 v=80
266400 On ch=1 n=a6 v=111
266400 On ch=1 n=f#7 v=111
266400 On ch=1 n=f#6 v=111
266520 Off ch=1 n=f#6 v=80
266520 Off ch=1 n=f#7 v=80
266520 Off ch=1 n=a6 v=80
266880 On ch=1 n=g7 v=111
266880 On ch=1 n=g6 v=111
267000 Off ch=1 n=g6 v=80
267000 Off ch=1 n=g7 v=80
267360 On ch=1 n=a7 v=111
267360 On ch=1 n=f#7 v=111
267360 On ch=1 n=e7 v=111
267360 On ch=1 n=a6 v=111
267480 Off ch=1 n=a6 v=80
267480 Off ch=1 n=e7 v=80
267480 Off ch=1 n=f#7 v=80
267480 Off ch=1 n=a7 v=80
267840 On ch=1 n=b7 v=127
267840 On ch=1 n=f#7 v=127
267840 On ch=1 n=d#7 v=127
267840 On ch=1 n=b6 v=127
268080 Off ch=1 n=b6 v=80
268080 Off ch=1 n=d#7 v=80
268080 Off ch=1 n=f#7 v=80
268080 Off ch=1 n=b7 v=80
268320 On ch=1 n=b5 v=65
268320 On ch=1 n=a5 v=65
268800 Off ch=1 n=a5 v=80
268800 Off ch=1 n=b5 v=80
268800 On ch=1 n=b5 v=65
268800 On ch=1 n=a5 v=65
269280 Off ch=1 n=a5 v=80
269280 Off ch=1 n=b5 v=80
269280 On ch=1 n=b5 v=69
269520 On ch=1 n=e5 v=69
269640 Off ch=1 n=e5 v=80
269640 On ch=1 n=e5 v=69
269760 Off ch=1 n=b5 v=80
269760 On ch=1 n=e6 v=69
270240 Off ch=1 n=e5 v=80
270240 On ch=1 n=e5 v=73
270480 Off ch=1 n=e6 v=80
270480 On ch=1 n=d#6 v=73
270720 Off ch=1 n=e5 v=80
270720 Off ch=1 n=d#6 v=80
270720 On ch=1 n=c#6 v=77
271200 Off ch=1 n=c#6 v=80
271200 On ch=1 n=b5 v=77
271200 On ch=1 n=e5 v=61
271200 On ch=1 n=g5 v=61
271680 Off ch=1 n=g5 v=80
271680 Off ch=1 n=e5 v=80
271680 Off ch=1 n=b5 v=80
271680 On ch=1 n=a5 v=81
271680 On ch=1 n=e5 v=61
271680 On ch=1 n=g5 v=61
272160 Off ch=1 n=g5 v=80
272160 Off ch=1 n=e5 v=80
272160 Off ch=1 n=a5 v=80
272160 On ch=1 n=f#6 v=100
272640 On ch=1 n=a5 v=72
272640 On ch=1 n=c6 v=72
273120 Off ch=1 n=c6 v=80
273120 Off ch=1 n=a5 v=80
273120 On ch=1 n=a5 v=72
273120 On ch=1 n=c6 v=72
273600 Off ch=1 n=c6 v=80
273600 Off ch=1 n=f#6 v=80
273600 Off ch=1 n=a5 v=80
273600 On ch=1 n=b5 v=90
274080 On ch=1 n=a5 v=72
274080 On ch=1 n=f#5 v=72
274560 Off ch=1 n=f#5 v=80
274560 Off ch=1 n=a5 v=80
274560 On ch=1 n=a5 v=72
274560 On ch=1 n=f#5 v=72
275040 Off ch=1 n=f#5 v=80
275040 Off ch=1 n=b5 v=80
275040 Off ch=1 n=a5 v=80
275040 On ch=1 n=b5 v=69
275280 On ch=1 n=e5 v=69
275400 Off ch=1 n=e5 v=80
275400 On ch=1 n=e5 v=69
275520 Off ch=1 n=b5 v=80
275520 On ch=1 n=e6 v=69
276000 Off ch=1 n=e5 v=80
276000 On ch=1 n=e5 v=73
276240 Off ch=1 n=e6 v=80
276240 On ch=1 n=d#6 v=73
276480 Off ch=1 n=e5 v=80
276480 Off ch=1 n=d#6 v=80
276480 On ch=1 n=c#6 v=77
276960 Off ch=1 n=c#6 v=80
276960 On ch=1 n=b5 v=77
276960 On ch=1 n=e5 v=61
276960 On ch=1 n=g5 v=61
277440 Off ch=1 n=g5 v=80
277440 Off ch=1 n=e5 v=80
277440 Off ch=1 n=b5 v=80
277440 On ch=1 n=a5 v=81
277440 On ch=1 n=e5 v=61
277440 On ch=1 n=g5 v=61
277920 Off ch=1 n=g5 v=80
277920 Off ch=1 n=e5 v=80
277920 Off ch=1 n=a5 v=80
277920 On ch=1 n=c7 v=100
278400 On ch=1 n=a6 v=72
278400 On ch=1 n=c6 v=72
278880 Off ch=1 n=c6 v=80
278880 Off ch=1 n=a6 v=80
278880 On ch=1 n=a6 v=72
278880 On ch=1 n=c6 v=72
279360 Off ch=1 n=c6 v=80
279360 Off ch=1 n=c7 v=80
279360 Off ch=1 n=a6 v=80
279360 On ch=1 n=b6 v=102
279360 On ch=1 n=g6 v=102
279360 On ch=1 n=b5 v=102
280320 Off ch=1 n=b5 v=80
280320 Off ch=1 n=g6 v=80
280320 Off ch=1 n=b6 v=80
280320 On ch=1 n=a6 v=102
280320 On ch=1 n=f#6 v=102
280320 On ch=1 n=a5 v=102
280800 Off ch=1 n=a5 v=80
280800 Off ch=1 n=f#6 v=80
280800 Off ch=1 n=a6 v=80
280800 On ch=1 n=g6 v=102
280800 On ch=1 n=g5 v=102
280800 On ch=1 n=e6 v=102
281760 Off ch=1 n=e6 v=80
281760 Off ch=1 n=g5 v=80
281760 Off ch=1 n=g6 v=80
281760 On ch=1 n=d6 v=102
281760 On ch=1 n=g6 v=102
281760 On ch=1 n=g5 v=102
282240 Off ch=1 n=g5 v=80
282240 Off ch=1 n=g6 v=80
282240 Off ch=1 n=d6 v=80
282240 On ch=1 n=g5 v=106
282240 On ch=1 n=g6 v=106
282240 On ch=1 n=c#6 v=106
283200 Off ch=1 n=c#6 v=80
283200 Off ch=1 n=g6 v=80
283200 Off ch=1 n=g5 v=80
283200 On ch=1 n=g5 v=106
283200 On ch=1 n=g6 v=106
283200 On ch=1 n=d6 v=106
283200 On ch=1 n=a5 v=106
284160 Off ch=1 n=a5 v=80
284160 Off ch=1 n=d6 v=80
284160 Off ch=1 n=g6 v=80
284160 Off ch=1 n=g5 v=80
284160 On ch=1 n=a5 v=110
284160 On ch=1 n=g6 v=110
284160 On ch=1 n=g5 v=110
284160 On ch=1 n=e6 v=110
285120 Off ch=1 n=e6 v=80
285120 Off ch=1 n=g5 v=80
285120 Off ch=1 n=g6 v=80
285120 Off ch=1 n=a5 v=80
285120 On ch=1 n=f#6 v=102
285120 On ch=1 n=d6 v=102
285120 On ch=1 n=f#5 v=102
286080 Off ch=1 n=f#5 v=80
286080 Off ch=1 n=d6 v=80
286080 Off ch=1 n=f#6 v=80
286080 On ch=1 n=e6 v=102
286080 On ch=1 n=c#6 v=102
286080 On ch=1 n=e5 v=102
286560 Off ch=1 n=e5 v=80
286560 Off ch=1 n=c#6 v=80
286560 Off ch=1 n=e6 v=80
286560 On ch=1 n=d6 v=102
286560 On ch=1 n=d5 v=102
286560 On ch=1 n=b5 v=102
287520 Off ch=1 n=b5 v=80
287520 Off ch=1 n=d5 v=80
287520 Off ch=1 n=d6 v=80
287520 On ch=1 n=a5 v=102
287520 On ch=1 n=d6 v=102
287520 On ch=1 n=d5 v=102
288000 Off ch=1 n=d5 v=80
288000 Off ch=1 n=d6 v=80
288000 Off ch=1 n=a5 v=80
288000 On ch=1 n=d5 v=106
288000 On ch=1 n=d6 v=106
288000 On ch=1 n=g#5 v=106
288960 Off ch=1 n=g#5 v=80
288960 Off ch=1 n=d6 v=80
288960 Off ch=1 n=d5 v=80
288960 On ch=1 n=d5 v=106
288960 On ch=1 n=d6 v=106
288960 On ch=1 n=a5 v=106
288960 On ch=1 n=e5 v=106
289920 Off ch=1 n=e5 v=80
289920 Off ch=1 n=a5 v=80
289920 Off ch=1 n=d6 v=80
289920 Off ch=1 n=d5 v=80
289920 On ch=1 n=e5 v=110
289920 On ch=1 n=d6 v=110
289920 On ch=1 n=d5 v=110
289920 On ch=1 n=b5 v=110
290880 Off ch=1 n=b5 v=80
290880 Off ch=1 n=d5 v=80
290880 Off ch=1 n=d6 v=80
290880 Off ch=1 n=e5 v=80
290880 On ch=1 n=d6 v=102
290880 On ch=1 n=a5 v=102
290880 On ch=1 n=d5 v=102
291120 Off ch=1 n=d5 v=80
291120 Off ch=1 n=a5 v=80
291120 Off ch=1 n=d6 v=80
291360 On ch=1 n=a4 v=102
291360 On ch=1 n=f#4 v=102
291360 On ch=1 n=d4 v=102
291600 Off ch=1 n=d4 v=80
291600 Off ch=1 n=f#4 v=80
291600 Off ch=1 n=a4 v=80
291840 On ch=1 n=g5 v=102
291840 On ch=1 n=d5 v=102
291840 On ch=1 n=g4 v=102
292080 Off ch=1 n=g4 v=80
292080 Off ch=1 n=d5 v=80
292080 Off ch=1 n=g5 v=80
292320 On ch=1 n=g#5 v=102
292320 On ch=1 n=f5 v=102
292320 On ch=1 n=d5 v=102
292560 Off ch=1 n=d5 v=80
292560 Off ch=1 n=f5 v=80
292560 Off ch=1 n=g#5 v=80
292800 On ch=1 n=a5 v=102
292800 On ch=1 n=f#5 v=102
292800 On ch=1 n=d5 v=102
293040 Off ch=1 n=d5 v=80
293040 Off ch=1 n=f#5 v=80
293040 Off ch=1 n=a5 v=80
293760 On ch=1 n=g4 v=102
293760 On ch=1 n=c#5 v=102
293760 On ch=1 n=e5 v=102
294000 Off ch=1 n=e5 v=80
294000 Off ch=1 n=c#5 v=80
294000 Off ch=1 n=g4 v=80
294720 On ch=1 n=d5 v=78
295200 On ch=1 n=c5 v=60
295200 On ch=1 n=a4 v=60
295680 Off ch=1 n=a4 v=80
295680 Off ch=1 n=c5 v=80
295680 On ch=1 n=c5 v=60
295680 On ch=1 n=a4 v=60
296160 Off ch=1 n=a4 v=80
296160 Off ch=1 n=d5 v=80
296160 Off ch=1 n=c5 v=80
296160 On ch=1 n=d5 v=78
296640 Off ch=1 n=d5 v=80
296640 On ch=1 n=c#5 v=78
296640 On ch=1 n=g4 v=78
297120 Off ch=1 n=c#5 v=80
297120 On ch=1 n=g5 v=78
297600 Off ch=1 n=g4 v=80
297600 Off ch=1 n=g5 v=80
297600 On ch=1 n=e5 v=86
298080 Off ch=1 n=e5 v=80
298080 On ch=1 n=d#5 v=86
298080 On ch=1 n=a4 v=86
298560 Off ch=1 n=d#5 v=80
298560 On ch=1 n=a5 v=86
299040 Off ch=1 n=a4 v=80
299040 Off ch=1 n=a5 v=80
299040 On ch=1 n=a5 v=94
299520 Off ch=1 n=a5 v=80
299520 On ch=1 n=g#5 v=94
299520 On ch=1 n=d5 v=94
300000 Off ch=1 n=g#5 v=80
300000 On ch=1 n=d6 v=94
300480 Off ch=1 n=d5 v=80
300480 Off ch=1 n=d6 v=80
300480 On ch=1 n=a5 v=102
300960 On ch=1 n=g5 v=102
300960 On ch=1 n=e5 v=102
301200 Off ch=1 n=e5 v=80
301200 Off ch=1 n=g5 v=80
301440 Off ch=1 n=a5 v=80
301440 On ch=1 n=g5 v=102
301440 On ch=1 n=g6 v=102
301680 Off ch=1 n=g6 v=80
301680 Off ch=1 n=g5 v=80
301920 On ch=1 n=g5 v=102
302400 Off ch=1 n=g5 v=80
302400 On ch=1 n=f#5 v=102
302400 On ch=1 n=d5 v=102
302640 Off ch=1 n=d5 v=80
302640 Off ch=1 n=f#5 v=80
302880 On ch=1 n=e5 v=102
302880 On ch=1 n=e6 v=102
303120 Off ch=1 n=e6 v=80
303120 Off ch=1 n=e5 v=80
303360 On ch=1 n=e5 v=102
303840 Off ch=1 n=e5 v=80
303840 On ch=1 n=d5 v=102
303840 On ch=1 n=b4 v=102
304080 Off ch=1 n=b4 v=80
304080 Off ch=1 n=d5 v=80
304320 On ch=1 n=c5 v=102
304320 On ch=1 n=c6 v=102
304560 Off ch=1 n=c6 v=80
304560 Off ch=1 n=c5 v=80
304800 On ch=1 n=c5 v=102
305280 Off ch=1 n=c5 v=80
305280 On ch=1 n=b4 v=102
305280 On ch=1 n=g4 v=102
305520 Off ch=1 n=g4 v=80
305520 Off ch=1 n=b4 v=80
305760 On ch=1 n=a5 v=102
305760 On ch=1 n=a4 v=102
306240 Off ch=1 n=a4 v=80
306240 Off ch=1 n=a5 v=80
306240 On ch=1 n=d5 v=78
306720 On ch=1 n=c5 v=60
306720 On ch=1 n=a4 v=60
307200 Off ch=1 n=a4 v=80
307200 Off ch=1 n=c5 v=80
307200 On ch=1 n=c5 v=60
307200 On ch=1 n=a4 v=60
307680 Off ch=1 n=a4 v=80
307680 Off ch=1 n=d5 v=80
307680 Off ch=1 n=c5 v=80
307680 On ch=1 n=d5 v=78
308160 Off ch=1 n=d5 v=80
308160 On ch=1 n=c#5 v=78
308160 On ch=1 n=g4 v=78
308640 Off ch=1 n=c#5 v=80
308640 On ch=1 n=g5 v=78
309120 Off ch=1 n=g4 v=80
309120 Off ch=1 n=g5 v=80
309120 On ch=1 n=e5 v=86
309600 Off ch=1 n=e5 v=80
309600 On ch=1 n=d#5 v=86
309600 On ch=1 n=a4 v=86
310080 Off ch=1 n=d#5 v=80
310080 On ch=1 n=a5 v=86
310560 Off ch=1 n=a4 v=80
310560 Off ch=1 n=a5 v=80
310560 On ch=1 n=a5 v=94
311040 Off ch=1 n=a5 v=80
311040 On ch=1 n=g#5 v=94
311040 On ch=1 n=d5 v=94
311520 Off ch=1 n=g#5 v=80
311520 On ch=1 n=d6 v=94
312000 Off ch=1 n=d5 v=80
312000 Off ch=1 n=d6 v=80
312000 On ch=1 n=a5 v=102
312480 On ch=1 n=g5 v=102
312480 On ch=1 n=e5 v=102
312720 Off ch=1 n=e5 v=80
312720 Off ch=1 n=g5 v=80
312960 Off ch=1 n=a5 v=80
312960 On ch=1 n=g5 v=102
312960 On ch=1 n=g6 v=102
313200 Off ch=1 n=g6 v=80
313200 Off ch=1 n=g5 v=80
313440 On ch=1 n=g5 v=102
313920 Off ch=1 n=g5 v=80
313920 On ch=1 n=f#5 v=102
313920 On ch=1 n=d5 v=102
314160 Off ch=1 n=d5 v=80
314160 Off ch=1 n=f#5 v=80
314400 On ch=1 n=e5 v=102
314400 On ch=1 n=e6 v=102
314640 Off ch=1 n=e6 v=80
314640 Off ch=1 n=e5 v=80
314880 On ch=1 n=e5 v=102
315360 Off ch=1 n=e5 v=80
315360 On ch=1 n=d5 v=102
315360 On ch=1 n=b4 v=102
315600 Off ch=1 n=b4 v=80
315600 Off ch=1 n=d5 v=80
315840 On ch=1 n=c5 v=102
315840 On ch=1 n=c6 v=102
316080 Off ch=1 n=c6 v=80
316080 Off ch=1 n=c5 v=80
316320 On ch=1 n=c5 v=102
316800 Off ch=1 n=c5 v=80
316800 On ch=1 n=b4 v=102
316800 On ch=1 n=g4 v=102
317040 Off ch=1 n=g4 v=80
317040 Off ch=1 n=b4 v=80
317280 On ch=1 n=a5 v=102
317280 On ch=1 n=a4 v=102
317760 Off ch=1 n=a4 v=80
317760 Off ch=1 n=a5 v=80
317760 On ch=1 n=d5 v=78
318240 On ch=1 n=c5 v=60
318240 On ch=1 n=a4 v=60
318720 Off ch=1 n=a4 v=80
318720 Off ch=1 n=c5 v=80
318720 On ch=1 n=c5 v=60
318720 On ch=1 n=a4 v=60
319200 Off ch=1 n=a4 v=80
319200 Off ch=1 n=d5 v=80
319200 Off ch=1 n=c5 v=80
319200 On ch=1 n=d5 v=78
319680 Off ch=1 n=d5 v=80
319680 On ch=1 n=c#5 v=93
319680 On ch=1 n=g4 v=93
320160 Off ch=1 n=c#5 v=80
320160 On ch=1 n=g5 v=78
320640 Off ch=1 n=g4 v=80
320640 Off ch=1 n=g5 v=80
320640 On ch=1 n=d5 v=78
321120 On ch=1 n=c5 v=60
321120 On ch=1 n=a4 v=60
321600 Off ch=1 n=a4 v=80
321600 Off ch=1 n=c5 v=80
321600 On ch=1 n=c5 v=60
321600 On ch=1 n=a4 v=60
322080 Off ch=1 n=a4 v=80
322080 Off ch=1 n=d5 v=80
322080 Off ch=1 n=c5 v=80
322080 On ch=1 n=d5 v=78
322560 Off ch=1 n=d5 v=80
322560 On ch=1 n=c#5 v=93
322560 On ch=1 n=g4 v=93
323040 Off ch=1 n=c#5 v=80
323040 On ch=1 n=g5 v=78
323520 Off ch=1 n=g4 v=80
323520 Off ch=1 n=g5 v=80
323520 On ch=1 n=f#5 v=102
323520 On ch=1 n=d5 v=102
323520 On ch=1 n=f#4 v=102
324000 Off ch=1 n=f#4 v=80
324000 Off ch=1 n=d5 v=80
324000 Off ch=1 n=f#5 v=80
324000 On ch=1 n=g5 v=102
324000 On ch=1 n=c#5 v=102
324000 On ch=1 n=g4 v=102
324480 Off ch=1 n=g4 v=80
324480 Off ch=1 n=c#5 v=80
324480 Off ch=1 n=g5 v=80
324480 On ch=1 n=f#5 v=102
324480 On ch=1 n=d5 v=102
324480 On ch=1 n=f#4 v=102
324960 Off ch=1 n=f#4 v=80
324960 Off ch=1 n=d5 v=80
324960 Off ch=1 n=f#5 v=80
324960 On ch=1 n=a#5 v=108
324960 On ch=1 n=e5 v=108
324960 On ch=1 n=a#4 v=108
325440 Off ch=1 n=a#4 v=80
325440 Off ch=1 n=e5 v=80
325440 Off ch=1 n=a#5 v=80
325440 On ch=1 n=a5 v=108
325440 On ch=1 n=f#5 v=108
325440 On ch=1 n=a4 v=108
325920 Off ch=1 n=a4 v=80
325920 Off ch=1 n=f#5 v=80
325920 Off ch=1 n=a5 v=80
325920 On ch=1 n=c#6 v=108
325920 On ch=1 n=g5 v=108
325920 On ch=1 n=c#5 v=108
326400 Off ch=1 n=c#5 v=80
326400 Off ch=1 n=g5 v=80
326400 Off ch=1 n=c#6 v=80
326400 On ch=1 n=d6 v=114
326400 On ch=1 n=a5 v=114
326400 On ch=1 n=d5 v=114
326880 Off ch=1 n=d5 v=80
326880 Off ch=1 n=a5 v=80
326880 Off ch=1 n=d6 v=80
326880 On ch=1 n=e6 v=114
326880 On ch=1 n=a#5 v=114
326880 On ch=1 n=e5 v=114
327360 Off ch=1 n=e5 v=80
327360 Off ch=1 n=a#5 v=80
327360 Off ch=1 n=e6 v=80
327360 On ch=1 n=d6 v=114
327360 On ch=1 n=a5 v=114
327360 On ch=1 n=d5 v=114
327840 Off ch=1 n=d5 v=80
327840 Off ch=1 n=a5 v=80
327840 Off ch=1 n=d6 v=80
327840 On ch=1 n=g6 v=120
327840 On ch=1 n=c#6 v=120
327840 On ch=1 n=g5 v=120
328320 Off ch=1 n=g5 v=80
328320 Off ch=1 n=c#6 v=80
328320 Off ch=1 n=g6 v=80
328320 On ch=1 n=f#6 v=120
328320 On ch=1 n=d6 v=120
328320 On ch=1 n=f#5 v=120
328800 Off ch=1 n=f#5 v=80
328800 Off ch=1 n=d6 v=80
328800 Off ch=1 n=f#6 v=80
328800 On ch=1 n=a#6 v=120
328800 On ch=1 n=e6 v=120
328800 On ch=1 n=a#5 v=120
329280 Off ch=1 n=a#5 v=80
329280 Off ch=1 n=e6 v=80
329280 Off ch=1 n=a#6 v=80
329280 On ch=1 n=a6 v=126
329280 On ch=1 n=f#6 v=126
329280 On ch=1 n=a5 v=126
329760 Off ch=1 n=a5 v=80
329760 Off ch=1 n=f#6 v=80
329760 Off ch=1 n=a6 v=80
330720 On ch=1 n=d7 v=126
330720 On ch=1 n=a6 v=126
330720 On ch=1 n=d6 v=126
331200 Off ch=1 n=d6 v=80
331200 Off ch=1 n=a6 v=80
331200 Off ch=1 n=d7 v=80
332160 On ch=1 n=d4 v=126
336480 Off ch=1 n=d4 v=80
336480 Meta TrkEnd
TrkEnd
MTrk
0 Meta TrkName "Piano L Hand"
0 Meta 0x21 00
0 Meta 0x20 00
0 Par ch=1 c=10 v=64
0 PrCh ch=1 p=0
1320 On ch=1 n=a2 v=53
1440 Off ch=1 n=a2 v=80
1440 On ch=1 n=a3 v=53
1680 Off ch=1 n=a3 v=80
1680 On ch=1 n=b3 v=53
1920 Off ch=1 n=b3 v=80
1920 On ch=1 n=c4 v=53
2160 Off ch=1 n=c4 v=80
2400 On ch=1 n=c#4 v=53
2640 Off ch=1 n=c#4 v=80
2760 On ch=1 n=d3 v=53
2880 Off ch=1 n=d3 v=80
2880 On ch=1 n=d4 v=53
3120 Off ch=1 n=d4 v=0
3120 On ch=1 n=e4 v=53
3360 Off ch=1 n=e4 v=80
3360 On ch=1 n=f4 v=61
3600 Off ch=1 n=f4 v=80
3840 On ch=1 n=f#4 v=69
4080 Off ch=1 n=f#4 v=80
4200 On ch=1 n=g3 v=78
4320 Off ch=1 n=g3 v=80
4320 On ch=1 n=g4 v=78
4560 Off ch=1 n=g4 v=80
4560 On ch=1 n=a4 v=78
4800 Off ch=1 n=a4 v=80
4800 On ch=1 n=a#4 v=78
5040 Off ch=1 n=a#4 v=80
5280 On ch=1 n=b4 v=78
5520 Off ch=1 n=b4 v=80
5760 On ch=1 n=a3 v=78
5760 On ch=1 n=a4 v=78
6000 Off ch=1 n=a3 v=80
6000 On ch=1 n=b3 v=78
6240 Off ch=1 n=b3 v=80
6240 On ch=1 n=c4 v=78
6480 Off ch=1 n=c4 v=80
6720 On ch=1 n=c#4 v=78
6960 Off ch=1 n=c#4 v=80
7080 On ch=1 n=a2 v=53
7200 Off ch=1 n=a4 v=80
7200 Off ch=1 n=a2 v=80
7200 On ch=1 n=a3 v=53
7440 Off ch=1 n=a3 v=80
7440 On ch=1 n=b3 v=53
7680 Off ch=1 n=b3 v=80
7680 On ch=1 n=c4 v=53
7920 Off ch=1 n=c4 v=80
8160 On ch=1 n=c#4 v=53
8400 Off ch=1 n=c#4 v=80
8520 On ch=1 n=d3 v=53
8640 Off ch=1 n=d3 v=80
8640 On ch=1 n=d4 v=53
8880 Off ch=1 n=d4 v=0
8880 On ch=1 n=e4 v=53
9120 Off ch=1 n=e4 v=80
9120 On ch=1 n=f4 v=61
9360 Off ch=1 n=f4 v=80
9600 On ch=1 n=f#4 v=69
9840 Off ch=1 n=f#4 v=80
9960 On ch=1 n=g3 v=78
10080 Off ch=1 n=g3 v=80
10080 On ch=1 n=g4 v=78
10320 Off ch=1 n=g4 v=80
10320 On ch=1 n=a4 v=78
10560 Off ch=1 n=a4 v=80
10560 On ch=1 n=a#4 v=78
10800 Off ch=1 n=a#4 v=80
11040 On ch=1 n=b4 v=78
11280 Off ch=1 n=b4 v=80
11520 On ch=1 n=a3 v=78
11520 On ch=1 n=a4 v=78
11760 Off ch=1 n=a3 v=80
11760 On ch=1 n=b3 v=78
12000 Off ch=1 n=b3 v=80
12000 On ch=1 n=c4 v=78
12240 Off ch=1 n=c4 v=80
12480 On ch=1 n=c#4 v=78
12720 Off ch=1 n=c#4 v=80
12840 On ch=1 n=a2 v=53
12960 Off ch=1 n=a4 v=80
12960 Off ch=1 n=a2 v=80
12960 On ch=1 n=a3 v=53
13200 Off ch=1 n=a3 v=80
13200 On ch=1 n=b3 v=53
13440 Off ch=1 n=b3 v=80
13440 On ch=1 n=c4 v=53
13680 Off ch=1 n=c4 v=80
13920 On ch=1 n=c#4 v=53
14160 Off ch=1 n=c#4 v=80
14280 On ch=1 n=d3 v=53
14400 Off ch=1 n=d3 v=80
14400 On ch=1 n=d4 v=53
14640 Off ch=1 n=d4 v=0
14640 On ch=1 n=e4 v=53
14880 Off ch=1 n=e4 v=80
14880 On ch=1 n=f4 v=61
15120 Off ch=1 n=f4 v=80
15360 On ch=1 n=f#4 v=69
15600 Off ch=1 n=f#4 v=80
15720 On ch=1 n=f#2 v=78
15840 Off ch=1 n=f#2 v=80
15840 On ch=1 n=f#3 v=78
16080 Off ch=1 n=f#3 v=0
16080 On ch=1 n=g#3 v=78
16320 Off ch=1 n=g#3 v=80
16320 On ch=1 n=a3 v=78
16560 Off ch=1 n=a3 v=80
16800 On ch=1 n=a#3 v=78
17040 Off ch=1 n=a#3 v=80
17160 On ch=1 n=b2 v=53
17280 Off ch=1 n=b2 v=80
17280 On ch=1 n=b3 v=53
17520 Off ch=1 n=b3 v=0
17520 On ch=1 n=c#4 v=53
17760 Off ch=1 n=c#4 v=80
17760 On ch=1 n=d4 v=61
18000 Off ch=1 n=d4 v=80
18240 On ch=1 n=d#4 v=69
18480 Off ch=1 n=d#4 v=80
18600 On ch=1 n=e2 v=78
18720 Off ch=1 n=e2 v=80
18720 On ch=1 n=e3 v=78
18960 Off ch=1 n=e3 v=0
18960 On ch=1 n=f#3 v=78
19200 Off ch=1 n=f#3 v=80
19200 On ch=1 n=g3 v=78
19440 Off ch=1 n=g3 v=80
19680 On ch=1 n=a3 v=102
19680 On ch=1 n=a2 v=102
20040 Off ch=1 n=a2 v=80
20040 Off ch=1 n=a3 v=80
20040 On ch=1 n=g2 v=78
20160 Off ch=1 n=g2 v=80
20160 On ch=1 n=g3 v=78
20400 Off ch=1 n=g3 v=0
20400 On ch=1 n=a3 v=78
20640 Off ch=1 n=a3 v=80
20640 On ch=1 n=b3 v=78
20880 Off ch=1 n=b3 v=80
21120 On ch=1 n=c4 v=102
21120 On ch=1 n=c3 v=102
21480 Off ch=1 n=c3 v=80
21480 Off ch=1 n=c4 v=80
21480 On ch=1 n=b2 v=78
21600 Off ch=1 n=b2 v=80
21600 On ch=1 n=b3 v=78
21840 Off ch=1 n=b3 v=0
21840 On ch=1 n=c4 v=78
22080 Off ch=1 n=c4 v=80
22080 On ch=1 n=d4 v=78
22320 Off ch=1 n=d4 v=80
22560 On ch=1 n=a#3 v=102
22560 On ch=1 n=a#2 v=102
22800 Off ch=1 n=a#2 v=80
22800 Off ch=1 n=a#3 v=80
23040 On ch=1 n=a2 v=90
23520 On ch=1 n=a3 v=102
24000 Off ch=1 n=a3 v=80
24000 Off ch=1 n=a2 v=80
24000 On ch=1 n=a3 v=102
24000 On ch=1 n=a4 v=102
24480 Off ch=1 n=a4 v=80
24480 Off ch=1 n=a3 v=80
24480 On ch=1 n=d5 v=102
24480 On ch=1 n=d4 v=102
24720 Off ch=1 n=d4 v=80
24720 On ch=1 n=e4 v=102
24960 Off ch=1 n=e4 v=80
24960 On ch=1 n=f#4 v=102
25200 Off ch=1 n=f#4 v=80
25440 Off ch=1 n=d5 v=80
25440 On ch=1 n=f#4 v=102
25440 On ch=1 n=f#3 v=102
25680 Off ch=1 n=f#3 v=80
25680 Off ch=1 n=f#4 v=80
25920 On ch=1 n=b4 v=102
25920 On ch=1 n=b3 v=102
26160 Off ch=1 n=b3 v=80
26160 On ch=1 n=c#4 v=102
26400 Off ch=1 n=c#4 v=80
26400 On ch=1 n=d4 v=102
26640 Off ch=1 n=d4 v=80
26880 Off ch=1 n=b4 v=80
26880 On ch=1 n=e3 v=102
26880 On ch=1 n=e4 v=102
27120 Off ch=1 n=e4 v=80
27120 Off ch=1 n=e3 v=80
27360 On ch=1 n=a3 v=102
27360 On ch=1 n=a4 v=102
27600 Off ch=1 n=a3 v=80
27600 On ch=1 n=b3 v=102
27840 Off ch=1 n=b3 v=80
27840 On ch=1 n=c#4 v=102
28080 Off ch=1 n=c#4 v=80
28320 Off ch=1 n=a4 v=80
28320 On ch=1 n=a4 v=106
28320 On ch=1 n=b3 v=106
28560 Off ch=1 n=b3 v=80
28560 On ch=1 n=c#4 v=106
28800 Off ch=1 n=c#4 v=80
28800 On ch=1 n=d4 v=106
29040 Off ch=1 n=d4 v=80
29280 Off ch=1 n=a4 v=80
29280 On ch=1 n=a4 v=110
29280 On ch=1 n=c#4 v=110
29520 Off ch=1 n=c#4 v=80
29520 On ch=1 n=d4 v=110
29760 Off ch=1 n=d4 v=80
29760 On ch=1 n=e4 v=110
30000 Off ch=1 n=e4 v=80
30240 Off ch=1 n=a4 v=80
30240 On ch=1 n=d5 v=114
30240 On ch=1 n=d4 v=114
30480 Off ch=1 n=d4 v=80
30480 On ch=1 n=e4 v=114
30720 Off ch=1 n=e4 v=80
30720 On ch=1 n=f#4 v=114
30960 Off ch=1 n=f#4 v=80
31200 Off ch=1 n=d5 v=80
31200 On ch=1 n=f#3 v=114
31200 On ch=1 n=f#4 v=114
31440 Off ch=1 n=f#4 v=80
31440 Off ch=1 n=f#3 v=80
31680 On ch=1 n=b3 v=102
31680 On ch=1 n=b4 v=102
31920 Off ch=1 n=b3 v=80
31920 On ch=1 n=c#4 v=102
32160 Off ch=1 n=c#4 v=80
32160 On ch=1 n=d4 v=102
32400 Off ch=1 n=d4 v=80
32640 Off ch=1 n=b4 v=80
32640 On ch=1 n=e3 v=102
32640 On ch=1 n=e4 v=102
32880 Off ch=1 n=e4 v=80
32880 Off ch=1 n=e3 v=80
33120 On ch=1 n=a3 v=102
33120 On ch=1 n=a4 v=102
33360 Off ch=1 n=a3 v=80
33360 On ch=1 n=b3 v=102
33600 Off ch=1 n=b3 v=80
33600 On ch=1 n=c#4 v=102
33840 Off ch=1 n=c#4 v=80
34080 Off ch=1 n=a4 v=80
34080 On ch=1 n=a4 v=106
34080 On ch=1 n=b3 v=106
34320 Off ch=1 n=b3 v=80
34320 On ch=1 n=c#4 v=106
34560 Off ch=1 n=c#4 v=80
34560 On ch=1 n=d4 v=106
34800 Off ch=1 n=d4 v=80
35040 Off ch=1 n=a4 v=80
35040 On ch=1 n=a4 v=110
35040 On ch=1 n=c#4 v=110
35280 Off ch=1 n=c#4 v=80
35280 On ch=1 n=d4 v=110
35520 Off ch=1 n=d4 v=80
35520 On ch=1 n=e4 v=110
35760 Off ch=1 n=e4 v=80
36000 Off ch=1 n=a4 v=80
36000 On ch=1 n=d5 v=114
36000 On ch=1 n=d4 v=114
36240 Off ch=1 n=d4 v=80
36240 On ch=1 n=e4 v=114
36480 Off ch=1 n=e4 v=80
36480 On ch=1 n=f#4 v=114
36720 Off ch=1 n=f#4 v=80
36960 Off ch=1 n=d5 v=80
36960 On ch=1 n=e4 v=102
36960 On ch=1 n=d4 v=102
37920 Off ch=1 n=e4 v=80
37920 On ch=1 n=f#4 v=102
38880 Off ch=1 n=d4 v=80
38880 Off ch=1 n=f#4 v=80
38880 On ch=1 n=d4 v=102
38880 On ch=1 n=g4 v=102
39840 Off ch=1 n=g4 v=80
39840 On ch=1 n=g#4 v=102
40800 Off ch=1 n=d4 v=80
40800 Off ch=1 n=g#4 v=80
40800 On ch=1 n=a4 v=102
40800 On ch=1 n=d4 v=102
41040 Off ch=1 n=d4 v=80
41040 Off ch=1 n=a4 v=80
41280 On ch=1 n=g4 v=102
41280 On ch=1 n=d4 v=102
41520 Off ch=1 n=d4 v=80
41520 Off ch=1 n=g4 v=80
41760 On ch=1 n=d4 v=120
41760 On ch=1 n=d3 v=120
42000 Off ch=1 n=d3 v=80
42000 On ch=1 n=e3 v=102
42240 Off ch=1 n=d4 v=80
42240 Off ch=1 n=e3 v=80
42240 On ch=1 n=f#3 v=102
42480 Off ch=1 n=f#3 v=80
42720 On ch=1 n=b3 v=112
42720 On ch=1 n=b2 v=112
43680 Off ch=1 n=b2 v=80
43680 Off ch=1 n=b3 v=80
43680 On ch=1 n=a#3 v=112
43680 On ch=1 n=a#2 v=112
44640 Off ch=1 n=a#2 v=80
44640 Off ch=1 n=a#3 v=80
44640 On ch=1 n=a3 v=112
44640 On ch=1 n=a2 v=112
45600 Off ch=1 n=a2 v=80
45600 Off ch=1 n=a3 v=80
45600 On ch=1 n=g#3 v=112
45600 On ch=1 n=g#2 v=112
46560 Off ch=1 n=g#2 v=80
46560 Off ch=1 n=g#3 v=80
46560 On ch=1 n=g3 v=108
46560 On ch=1 n=g2 v=108
46800 Off ch=1 n=g2 v=80
46800 Off ch=1 n=g3 v=80
47040 On ch=1 n=g2 v=114
47040 On ch=1 n=g3 v=114
47280 Off ch=1 n=g3 v=80
47280 Off ch=1 n=g2 v=80
47400 On ch=1 n=g2 v=120
47520 Off ch=1 n=g2 v=80
47520 On ch=1 n=g3 v=120
47760 Off ch=1 n=g3 v=80
47760 On ch=1 n=a3 v=120
48000 Off ch=1 n=a3 v=80
48000 On ch=1 n=a#3 v=53
48240 Off ch=1 n=a#3 v=80
48480 On ch=1 n=b3 v=53
48720 Off ch=1 n=b3 v=80
48840 On ch=1 n=c3 v=53
48960 Off ch=1 n=c3 v=80
48960 On ch=1 n=c4 v=53
49200 Off ch=1 n=c4 v=0
49200 On ch=1 n=d4 v=53
49440 Off ch=1 n=d4 v=80
49440 On ch=1 n=d#4 v=61
49680 Off ch=1 n=d#4 v=80
49920 On ch=1 n=e4 v=69
50160 Off ch=1 n=e4 v=80
50280 On ch=1 n=f3 v=78
50400 Off ch=1 n=f3 v=80
50400 On ch=1 n=f4 v=78
50640 Off ch=1 n=f4 v=80
50640 On ch=1 n=g4 v=78
50880 Off ch=1 n=g4 v=80
50880 On ch=1 n=g#4 v=78
51120 Off ch=1 n=g#4 v=80
51360 On ch=1 n=a4 v=78
51600 Off ch=1 n=a4 v=80
51840 On ch=1 n=g4 v=78
51840 On ch=1 n=g3 v=78
52080 Off ch=1 n=g3 v=80
52080 On ch=1 n=a3 v=78
52320 Off ch=1 n=a3 v=80
52320 On ch=1 n=a#3 v=78
52560 Off ch=1 n=a#3 v=80
52800 On ch=1 n=b3 v=78
53040 Off ch=1 n=b3 v=80
53160 On ch=1 n=g2 v=53
53280 Off ch=1 n=g4 v=80
53280 Off ch=1 n=g2 v=80
53280 On ch=1 n=g3 v=53
53520 Off ch=1 n=g3 v=80
53520 On ch=1 n=a3 v=53
53760 Off ch=1 n=a3 v=80
53760 On ch=1 n=a#3 v=53
54000 Off ch=1 n=a#3 v=80
54240 On ch=1 n=b3 v=53
54480 Off ch=1 n=b3 v=80
54600 On ch=1 n=c3 v=53
54720 Off ch=1 n=c3 v=80
54720 On ch=1 n=c4 v=53
54960 Off ch=1 n=c4 v=0
54960 On ch=1 n=d4 v=53
55200 Off ch=1 n=d4 v=80
55200 On ch=1 n=d#4 v=61
55440 Off ch=1 n=d#4 v=80
55680 On ch=1 n=e4 v=69
55920 Off ch=1 n=e4 v=80
56040 On ch=1 n=f3 v=78
56160 Off ch=1 n=f3 v=80
56160 On ch=1 n=f4 v=78
56400 Off ch=1 n=f4 v=80
56400 On ch=1 n=g4 v=78
56640 Off ch=1 n=g4 v=80
56640 On ch=1 n=g#4 v=78
56880 Off ch=1 n=g#4 v=80
57120 On ch=1 n=a4 v=78
57360 Off ch=1 n=a4 v=80
57600 On ch=1 n=g3 v=78
57600 On ch=1 n=g4 v=78
57840 Off ch=1 n=g3 v=80
57840 On ch=1 n=a3 v=78
58080 Off ch=1 n=a3 v=80
58080 On ch=1 n=a#3 v=78
58320 Off ch=1 n=a#3 v=80
58560 Off ch=1 n=g4 v=80
58560 On ch=1 n=e4 v=120
58560 On ch=1 n=e3 v=120
58920 Off ch=1 n=e3 v=80
58920 Off ch=1 n=e4 v=80
58920 On ch=1 n=a2 v=102
59040 Off ch=1 n=a2 v=80
59040 On ch=1 n=a3 v=102
59280 Off ch=1 n=a3 v=80
59280 On ch=1 n=b3 v=102
59520 Off ch=1 n=b3 v=80
59520 On ch=1 n=c4 v=102
59760 Off ch=1 n=c4 v=80
60000 On ch=1 n=c#4 v=102
60240 Off ch=1 n=c#4 v=80
60360 On ch=1 n=d3 v=102
60480 Off ch=1 n=d3 v=80
60480 On ch=1 n=d4 v=102
60720 Off ch=1 n=d4 v=0
60720 On ch=1 n=e4 v=102
60960 Off ch=1 n=e4 v=80
60960 On ch=1 n=f4 v=102
61200 Off ch=1 n=f4 v=80
61440 On ch=1 n=f#4 v=102
61680 Off ch=1 n=f#4 v=80
61800 On ch=1 n=f#2 v=102
61920 Off ch=1 n=f#2 v=80
61920 On ch=1 n=f#3 v=102
62160 Off ch=1 n=f#3 v=0
62160 On ch=1 n=g#3 v=102
62400 Off ch=1 n=g#3 v=80
62400 On ch=1 n=a3 v=102
62640 Off ch=1 n=a3 v=80
62880 On ch=1 n=a#3 v=102
63120 Off ch=1 n=a#3 v=80
63240 On ch=1 n=b2 v=102
63360 Off ch=1 n=b2 v=80
63360 On ch=1 n=b3 v=102
63600 Off ch=1 n=b3 v=0
63600 On ch=1 n=c#4 v=102
63840 Off ch=1 n=c#4 v=80
63840 On ch=1 n=d4 v=102
64080 Off ch=1 n=d4 v=80
64320 On ch=1 n=d#4 v=102
64560 Off ch=1 n=d#4 v=80
64680 On ch=1 n=e2 v=78
64800 Off ch=1 n=e2 v=80
64800 On ch=1 n=e3 v=90
65040 Off ch=1 n=e3 v=0
65040 On ch=1 n=f#3 v=90
65280 Off ch=1 n=f#3 v=80
65280 On ch=1 n=g3 v=90
65520 Off ch=1 n=g3 v=80
65760 On ch=1 n=a3 v=114
65760 On ch=1 n=a2 v=114
66120 Off ch=1 n=a2 v=80
66120 Off ch=1 n=a3 v=80
66120 On ch=1 n=g2 v=90
66240 Off ch=1 n=g2 v=80
66240 On ch=1 n=g3 v=90
66480 Off ch=1 n=g3 v=0
66480 On ch=1 n=a3 v=90
66720 Off ch=1 n=a3 v=80
66720 On ch=1 n=b3 v=90
66960 Off ch=1 n=b3 v=80
67200 On ch=1 n=c4 v=114
67200 On ch=1 n=c3 v=114
67560 Off ch=1 n=c3 v=80
67560 Off ch=1 n=c4 v=80
67560 On ch=1 n=b2 v=90
67680 Off ch=1 n=b2 v=80
67680 On ch=1 n=b3 v=90
67920 Off ch=1 n=b3 v=0
67920 On ch=1 n=c4 v=90
68160 Off ch=1 n=c4 v=80
68160 On ch=1 n=d4 v=90
68400 Off ch=1 n=d4 v=80
68640 On ch=1 n=a#3 v=114
68640 On ch=1 n=a#2 v=114
68880 Off ch=1 n=a#2 v=80
68880 Off ch=1 n=a#3 v=80
69120 On ch=1 n=a2 v=102
69600 On ch=1 n=a3 v=114
70080 Off ch=1 n=a3 v=80
70080 Off ch=1 n=a2 v=80
70080 On ch=1 n=a4 v=114
70560 Off ch=1 n=a4 v=80
70560 On ch=1 n=d3 v=114
70560 On ch=1 n=a3 v=114
71520 Off ch=1 n=a3 v=80
71520 Off ch=1 n=d3 v=80
72000 On ch=1 n=a3 v=102
72240 Off ch=1 n=a3 v=80
72240 On ch=1 n=e5 v=72
72240 On ch=1 n=c#5 v=72
72480 On ch=1 n=e4 v=102
72720 Off ch=1 n=c#5 v=80
72720 Off ch=1 n=e5 v=80
72720 On ch=1 n=c#5 v=72
72720 On ch=1 n=e5 v=72
72960 Off ch=1 n=e4 v=80
72960 On ch=1 n=g#4 v=102
73200 Off ch=1 n=c#5 v=80
73200 Off ch=1 n=e5 v=80
73200 On ch=1 n=c#5 v=72
73200 On ch=1 n=e5 v=72
73440 Off ch=1 n=g#4 v=80
73440 On ch=1 n=a4 v=102
73680 Off ch=1 n=c#5 v=80
73680 Off ch=1 n=e5 v=80
73680 On ch=1 n=c#5 v=72
73680 On ch=1 n=e5 v=72
73920 Off ch=1 n=a4 v=80
73920 On ch=1 n=g#4 v=102
74160 Off ch=1 n=c#5 v=80
74160 Off ch=1 n=e5 v=80
74160 On ch=1 n=c#5 v=72
74160 On ch=1 n=e5 v=72
74400 Off ch=1 n=g#4 v=80
74400 On ch=1 n=a4 v=102
74640 Off ch=1 n=c#5 v=80
74640 Off ch=1 n=e5 v=80
74640 On ch=1 n=c#5 v=72
74640 On ch=1 n=e5 v=72
74880 Off ch=1 n=a4 v=80
74880 On ch=1 n=a4 v=117
75120 Off ch=1 n=c#5 v=80
75120 Off ch=1 n=e5 v=80
75120 On ch=1 n=d5 v=72
75120 On ch=1 n=f5 v=72
75600 Off ch=1 n=f5 v=80
75600 Off ch=1 n=d5 v=80
75600 On ch=1 n=d5 v=72
75600 On ch=1 n=f5 v=72
76080 Off ch=1 n=f5 v=80
76080 Off ch=1 n=d5 v=80
76080 On ch=1 n=d5 v=72
76080 On ch=1 n=f5 v=72
76560 Off ch=1 n=f5 v=80
76560 Off ch=1 n=d5 v=80
76560 On ch=1 n=d5 v=72
76560 On ch=1 n=f5 v=72
77040 Off ch=1 n=f5 v=80
77040 Off ch=1 n=d5 v=80
77040 On ch=1 n=d5 v=72
77040 On ch=1 n=f5 v=72
77280 Off ch=1 n=a4 v=80
77280 On ch=1 n=g#4 v=102
77520 Off ch=1 n=d5 v=80
77520 Off ch=1 n=f5 v=80
77520 On ch=1 n=f5 v=72
77520 On ch=1 n=d5 v=72
77760 Off ch=1 n=d5 v=80
77760 Off ch=1 n=g#4 v=80
77760 Off ch=1 n=f5 v=80
77760 On ch=1 n=a3 v=102
78000 Off ch=1 n=a3 v=80
78000 On ch=1 n=e5 v=72
78000 On ch=1 n=c#5 v=72
78240 On ch=1 n=e4 v=102
78480 Off ch=1 n=c#5 v=80
78480 Off ch=1 n=e5 v=80
78480 On ch=1 n=c#5 v=72
78480 On ch=1 n=e5 v=72
78720 Off ch=1 n=e4 v=80
78720 On ch=1 n=g#4 v=102
78960 Off ch=1 n=c#5 v=80
78960 Off ch=1 n=e5 v=80
78960 On ch=1 n=c#5 v=72
78960 On ch=1 n=e5 v=72
79200 Off ch=1 n=g#4 v=80
79200 On ch=1 n=a4 v=102
79440 Off ch=1 n=c#5 v=80
79440 Off ch=1 n=e5 v=80
79440 On ch=1 n=c#5 v=72
79440 On ch=1 n=e5 v=72
79680 Off ch=1 n=a4 v=80
79680 On ch=1 n=g#4 v=102
79920 Off ch=1 n=c#5 v=80
79920 Off ch=1 n=e5 v=80
79920 On ch=1 n=c#5 v=72
79920 On ch=1 n=e5 v=72
80160 Off ch=1 n=g#4 v=80
80160 On ch=1 n=a4 v=102
80400 Off ch=1 n=c#5 v=80
80400 Off ch=1 n=e5 v=80
80400 On ch=1 n=c#5 v=72
80400 On ch=1 n=e5 v=72
80640 Off ch=1 n=a4 v=80
80640 On ch=1 n=a#4 v=117
80880 Off ch=1 n=c#5 v=80
80880 Off ch=1 n=e5 v=80
80880 On ch=1 n=f5 v=72
80880 On ch=1 n=g#5 v=72
81360 Off ch=1 n=g#5 v=80
81360 Off ch=1 n=f5 v=80
81360 On ch=1 n=f5 v=72
81360 On ch=1 n=g#5 v=72
81840 Off ch=1 n=g#5 v=80
81840 Off ch=1 n=f5 v=80
81840 On ch=1 n=f5 v=72
81840 On ch=1 n=g#5 v=72
82320 Off ch=1 n=g#5 v=80
82320 Off ch=1 n=f5 v=80
82320 On ch=1 n=f5 v=72
82320 On ch=1 n=g#5 v=72
82800 Off ch=1 n=g#5 v=80
82800 Off ch=1 n=f5 v=80
82800 On ch=1 n=f5 v=72
82800 On ch=1 n=g#5 v=72
83040 Off ch=1 n=a#4 v=80
83040 On ch=1 n=b4 v=102
83280 Off ch=1 n=f5 v=80
83280 Off ch=1 n=g#5 v=80
83280 On ch=1 n=g#5 v=72
83280 On ch=1 n=f5 v=72
83520 Off ch=1 n=f5 v=80
83520 Off ch=1 n=g#5 v=80
83760 On ch=1 n=a5 v=72
83760 On ch=1 n=c6 v=72
84000 Off ch=1 n=b4 v=80
84000 On ch=1 n=c5 v=104
84240 Off ch=1 n=a5 v=80
84240 Off ch=1 n=c6 v=80
84240 On ch=1 n=a5 v=72
84240 On ch=1 n=c6 v=72
84480 Off ch=1 n=c5 v=80
84480 On ch=1 n=e5 v=106
84720 Off ch=1 n=a5 v=80
84720 Off ch=1 n=c6 v=80
84720 On ch=1 n=a5 v=72
84720 On ch=1 n=c6 v=72
84960 Off ch=1 n=e5 v=80
84960 On ch=1 n=f5 v=108
85200 Off ch=1 n=a5 v=80
85200 Off ch=1 n=c6 v=80
85200 On ch=1 n=a5 v=72
85200 On ch=1 n=c6 v=72
85440 Off ch=1 n=f5 v=80
85440 On ch=1 n=e5 v=111
85680 Off ch=1 n=a5 v=80
85680 Off ch=1 n=c6 v=80
85680 On ch=1 n=a5 v=72
85680 On ch=1 n=c6 v=72
85920 Off ch=1 n=e5 v=80
85920 On ch=1 n=f5 v=114
86160 Off ch=1 n=a5 v=80
86160 Off ch=1 n=c6 v=80
86160 On ch=1 n=a5 v=72
86160 On ch=1 n=c6 v=72
86640 Off ch=1 n=c6 v=80
86640 Off ch=1 n=a5 v=80
86640 On ch=1 n=a5 v=72
86640 On ch=1 n=c6 v=72
86880 Off ch=1 n=f5 v=80
86880 On ch=1 n=c5 v=112
87120 Off ch=1 n=a5 v=80
87120 Off ch=1 n=c6 v=80
87120 On ch=1 n=a5 v=72
87120 On ch=1 n=c6 v=72
87360 Off ch=1 n=c5 v=80
87360 On ch=1 n=a4 v=110
87600 Off ch=1 n=a5 v=80
87600 Off ch=1 n=c6 v=80
87600 On ch=1 n=a5 v=72
87600 On ch=1 n=c6 v=72
87840 Off ch=1 n=a4 v=80
87840 On ch=1 n=f4 v=108
88080 Off ch=1 n=a5 v=80
88080 Off ch=1 n=c6 v=80
88080 On ch=1 n=a5 v=72
88080 On ch=1 n=c6 v=72
88320 Off ch=1 n=f4 v=80
88320 On ch=1 n=c4 v=106
88560 Off ch=1 n=a5 v=80
88560 Off ch=1 n=c6 v=80
88560 On ch=1 n=a5 v=72
88560 On ch=1 n=c6 v=72
88800 Off ch=1 n=c4 v=80
88800 On ch=1 n=a3 v=102
89040 Off ch=1 n=a5 v=80
89040 Off ch=1 n=c6 v=80
89040 On ch=1 n=c6 v=72
89040 On ch=1 n=a5 v=72
89280 Off ch=1 n=a5 v=80
89280 Off ch=1 n=a3 v=80
89280 Off ch=1 n=c6 v=80
89280 On ch=1 n=b3 v=105
89520 On ch=1 n=e5 v=72
89520 On ch=1 n=g#5 v=72
89760 On ch=1 n=e4 v=108
90000 Off ch=1 n=g#5 v=80
90000 Off ch=1 n=e5 v=80
90000 On ch=1 n=e5 v=72
90000 On ch=1 n=g#5 v=72
90240 Off ch=1 n=e4 v=80
90240 On ch=1 n=g#4 v=111
90480 Off ch=1 n=e5 v=80
90480 Off ch=1 n=g#5 v=80
90480 On ch=1 n=e5 v=72
90480 On ch=1 n=g#5 v=72
90720 Off ch=1 n=g#5 v=80
90720 Off ch=1 n=g#4 v=80
90720 Off ch=1 n=e5 v=80
90720 On ch=1 n=b4 v=114
90960 On ch=1 n=d#5 v=72
90960 On ch=1 n=a5 v=72
91200 Off ch=1 n=b4 v=80
91200 On ch=1 n=f#4 v=114
91440 Off ch=1 n=d#5 v=80
91440 Off ch=1 n=a5 v=80
91440 On ch=1 n=d#5 v=72
91440 On ch=1 n=a5 v=72
91680 Off ch=1 n=f#4 v=80
91680 On ch=1 n=g#4 v=114
91920 Off ch=1 n=d#5 v=80
91920 Off ch=1 n=a5 v=80
91920 On ch=1 n=d#5 v=72
91920 On ch=1 n=a5 v=72
92160 Off ch=1 n=a5 v=80
92160 Off ch=1 n=b3 v=80
92160 Off ch=1 n=g#4 v=80
92160 Off ch=1 n=d#5 v=80
92160 On ch=1 n=e4 v=102
92400 On ch=1 n=d5 v=72
92400 On ch=1 n=e5 v=72
92640 On ch=1 n=g#4 v=106
92880 Off ch=1 n=e5 v=80
92880 Off ch=1 n=d5 v=80
92880 On ch=1 n=d5 v=72
92880 On ch=1 n=e5 v=72
93120 Off ch=1 n=g#4 v=80
93120 On ch=1 n=b4 v=110
93360 Off ch=1 n=d5 v=80
93360 Off ch=1 n=e5 v=80
93360 On ch=1 n=d5 v=72
93360 On ch=1 n=e5 v=72
93600 Off ch=1 n=e5 v=80
93600 Off ch=1 n=b4 v=80
93600 Off ch=1 n=d5 v=80
93600 On ch=1 n=d5 v=72
93600 On ch=1 n=e5 v=72
93840 Off ch=1 n=e5 v=80
93840 Off ch=1 n=d5 v=80
93840 On ch=1 n=e5 v=72
93840 On ch=1 n=d5 v=72
94080 Off ch=1 n=d5 v=80
94080 Off ch=1 n=e4 v=80
94080 Off ch=1 n=e5 v=80
94080 On ch=1 n=b4 v=102
94320 On ch=1 n=e5 v=72
94320 On ch=1 n=d5 v=72
94560 Off ch=1 n=d5 v=80
94560 Off ch=1 n=e5 v=80
94560 Off ch=1 n=b4 v=80
94560 On ch=1 n=c#5 v=90
94800 On ch=1 n=d5 v=72
94800 On ch=1 n=e5 v=72
95040 Off ch=1 n=e5 v=80
95040 Off ch=1 n=d5 v=80
95040 Off ch=1 n=c#5 v=80
95040 On ch=1 n=a3 v=102
95280 Off ch=1 n=a3 v=80
95280 On ch=1 n=e5 v=78
95280 On ch=1 n=c#5 v=78
95520 On ch=1 n=e4 v=102
95760 Off ch=1 n=c#5 v=80
95760 Off ch=1 n=e5 v=80
95760 On ch=1 n=c#5 v=78
95760 On ch=1 n=e5 v=78
96000 Off ch=1 n=e4 v=80
96000 On ch=1 n=g#4 v=102
96240 Off ch=1 n=c#5 v=80
96240 Off ch=1 n=e5 v=80
96240 On ch=1 n=c#5 v=78
96240 On ch=1 n=e5 v=78
96480 Off ch=1 n=g#4 v=80
96480 On ch=1 n=a4 v=102
96720 Off ch=1 n=c#5 v=80
96720 Off ch=1 n=e5 v=80
96720 On ch=1 n=c#5 v=78
96720 On ch=1 n=e5 v=78
96960 Off ch=1 n=a4 v=80
96960 On ch=1 n=g#4 v=102
97200 Off ch=1 n=c#5 v=80
97200 Off ch=1 n=e5 v=80
97200 On ch=1 n=c#5 v=78
97200 On ch=1 n=e5 v=78
97440 Off ch=1 n=g#4 v=80
97440 On ch=1 n=a4 v=102
97680 Off ch=1 n=c#5 v=80
97680 Off ch=1 n=e5 v=80
97680 On ch=1 n=c#5 v=78
97680 On ch=1 n=e5 v=78
97920 Off ch=1 n=a4 v=80
97920 On ch=1 n=a4 v=117
98160 Off ch=1 n=c#5 v=80
98160 Off ch=1 n=e5 v=80
98160 On ch=1 n=d5 v=78
98160 On ch=1 n=f5 v=78
98640 Off ch=1 n=f5 v=80
98640 Off ch=1 n=d5 v=80
98640 On ch=1 n=d5 v=78
98640 On ch=1 n=f5 v=78
99120 Off ch=1 n=f5 v=80
99120 Off ch=1 n=d5 v=80
99120 On ch=1 n=d5 v=78
99120 On ch=1 n=f5 v=78
99600 Off ch=1 n=f5 v=80
99600 Off ch=1 n=d5 v=80
99600 On ch=1 n=d5 v=78
99600 On ch=1 n=f5 v=78
100080 Off ch=1 n=f5 v=80
100080 Off ch=1 n=d5 v=80
100080 On ch=1 n=d5 v=78
100080 On ch=1 n=f5 v=78
100320 Off ch=1 n=a4 v=80
100320 On ch=1 n=g#4 v=102
100560 Off ch=1 n=d5 v=80
100560 Off ch=1 n=f5 v=80
100560 On ch=1 n=f5 v=78
100560 On ch=1 n=d5 v=78
100800 Off ch=1 n=d5 v=80
100800 Off ch=1 n=g#4 v=80
100800 Off ch=1 n=f5 v=80
100800 On ch=1 n=a3 v=102
101040 Off ch=1 n=a3 v=80
101040 On ch=1 n=e5 v=78
101040 On ch=1 n=c#5 v=78
101280 On ch=1 n=e4 v=102
101520 Off ch=1 n=c#5 v=80
101520 Off ch=1 n=e5 v=80
101520 On ch=1 n=c#5 v=78
101520 On ch=1 n=e5 v=78
101760 Off ch=1 n=e4 v=80
101760 On ch=1 n=g#4 v=102
102000 Off ch=1 n=c#5 v=80
102000 Off ch=1 n=e5 v=80
102000 On ch=1 n=c#5 v=78
102000 On ch=1 n=e5 v=78
102240 Off ch=1 n=g#4 v=80
102240 On ch=1 n=a4 v=102
102480 Off ch=1 n=c#5 v=80
102480 Off ch=1 n=e5 v=80
102480 On ch=1 n=c#5 v=78
102480 On ch=1 n=e5 v=78
102720 Off ch=1 n=a4 v=80
102720 On ch=1 n=g#4 v=102
102960 Off ch=1 n=c#5 v=80
102960 Off ch=1 n=e5 v=80
102960 On ch=1 n=c#5 v=78
102960 On ch=1 n=e5 v=78
103200 Off ch=1 n=g#4 v=80
103200 On ch=1 n=a4 v=102
103440 Off ch=1 n=c#5 v=80
103440 Off ch=1 n=e5 v=80
103440 On ch=1 n=c#5 v=78
103440 On ch=1 n=e5 v=78
103680 Off ch=1 n=a4 v=80
103680 On ch=1 n=a#4 v=117
103920 Off ch=1 n=c#5 v=80
103920 Off ch=1 n=e5 v=80
103920 On ch=1 n=f5 v=78
103920 On ch=1 n=g#5 v=78
104400 Off ch=1 n=g#5 v=80
104400 Off ch=1 n=f5 v=80
104400 On ch=1 n=f5 v=78
104400 On ch=1 n=g#5 v=78
104880 Off ch=1 n=g#5 v=80
104880 Off ch=1 n=f5 v=80
104880 On ch=1 n=f5 v=78
104880 On ch=1 n=g#5 v=78
105360 Off ch=1 n=g#5 v=80
105360 Off ch=1 n=f5 v=80
105360 On ch=1 n=f5 v=78
105360 On ch=1 n=g#5 v=78
105840 Off ch=1 n=g#5 v=80
105840 Off ch=1 n=f5 v=80
105840 On ch=1 n=f5 v=78
105840 On ch=1 n=g#5 v=78
106080 Off ch=1 n=a#4 v=80
106080 On ch=1 n=b4 v=102
106320 Off ch=1 n=f5 v=80
106320 Off ch=1 n=g#5 v=80
106320 On ch=1 n=g#5 v=78
106320 On ch=1 n=f5 v=78
106560 Off ch=1 n=f5 v=80
106560 Off ch=1 n=g#5 v=80
106800 On ch=1 n=a5 v=78
106800 On ch=1 n=c6 v=78
107040 Off ch=1 n=b4 v=80
107040 On ch=1 n=c5 v=104
107280 Off ch=1 n=a5 v=80
107280 Off ch=1 n=c6 v=80
107280 On ch=1 n=a5 v=78
107280 On ch=1 n=c6 v=78
107520 Off ch=1 n=c5 v=80
107520 On ch=1 n=e5 v=106
107760 Off ch=1 n=a5 v=80
107760 Off ch=1 n=c6 v=80
107760 On ch=1 n=a5 v=78
107760 On ch=1 n=c6 v=78
108000 Off ch=1 n=e5 v=80
108000 On ch=1 n=f5 v=108
108240 Off ch=1 n=a5 v=80
108240 Off ch=1 n=c6 v=80
108240 On ch=1 n=a5 v=78
108240 On ch=1 n=c6 v=78
108480 Off ch=1 n=f5 v=80
108480 On ch=1 n=e5 v=111
108720 Off ch=1 n=a5 v=80
108720 Off ch=1 n=c6 v=80
108720 On ch=1 n=a5 v=78
108720 On ch=1 n=c6 v=78
108960 Off ch=1 n=e5 v=80
108960 On ch=1 n=f5 v=114
109200 Off ch=1 n=a5 v=80
109200 Off ch=1 n=c6 v=80
109200 On ch=1 n=a5 v=78
109200 On ch=1 n=c6 v=78
109680 Off ch=1 n=c6 v=80
109680 Off ch=1 n=a5 v=80
109680 On ch=1 n=a5 v=78
109680 On ch=1 n=c6 v=78
109920 Off ch=1 n=f5 v=80
109920 On ch=1 n=c5 v=112
110160 Off ch=1 n=a5 v=80
110160 Off ch=1 n=c6 v=80
110160 On ch=1 n=a5 v=78
110160 On ch=1 n=c6 v=78
110400 Off ch=1 n=c5 v=80
110400 On ch=1 n=a4 v=110
110640 Off ch=1 n=a5 v=80
110640 Off ch=1 n=c6 v=80
110640 On ch=1 n=a5 v=78
110640 On ch=1 n=c6 v=78
110880 Off ch=1 n=a4 v=80
110880 On ch=1 n=f4 v=108
111120 Off ch=1 n=a5 v=80
111120 Off ch=1 n=c6 v=80
111120 On ch=1 n=a5 v=78
111120 On ch=1 n=c6 v=78
111360 Off ch=1 n=f4 v=80
111360 On ch=1 n=c4 v=106
111600 Off ch=1 n=a5 v=80
111600 Off ch=1 n=c6 v=80
111600 On ch=1 n=a5 v=78
111600 On ch=1 n=c6 v=78
111840 Off ch=1 n=c4 v=80
111840 On ch=1 n=a3 v=102
112080 Off ch=1 n=a5 v=80
112080 Off ch=1 n=c6 v=80
112080 On ch=1 n=c6 v=78
112080 On ch=1 n=a5 v=78
112320 Off ch=1 n=a5 v=80
112320 Off ch=1 n=a3 v=80
112320 Off ch=1 n=c6 v=80
112320 On ch=1 n=b3 v=105
112560 On ch=1 n=e5 v=78
112560 On ch=1 n=g#5 v=78
112800 On ch=1 n=e4 v=108
113040 Off ch=1 n=g#5 v=80
113040 Off ch=1 n=e5 v=80
113040 On ch=1 n=e5 v=78
113040 On ch=1 n=g#5 v=78
113280 Off ch=1 n=e4 v=80
113280 On ch=1 n=g#4 v=111
113520 Off ch=1 n=e5 v=80
113520 Off ch=1 n=g#5 v=80
113520 On ch=1 n=e5 v=78
113520 On ch=1 n=g#5 v=78
113760 Off ch=1 n=g#5 v=80
113760 Off ch=1 n=g#4 v=80
113760 Off ch=1 n=e5 v=80
113760 On ch=1 n=b4 v=114
114000 On ch=1 n=d#5 v=78
114000 On ch=1 n=a5 v=78
114240 Off ch=1 n=b4 v=80
114240 On ch=1 n=f#4 v=114
114480 Off ch=1 n=d#5 v=80
114480 Off ch=1 n=a5 v=80
114480 On ch=1 n=d#5 v=78
114480 On ch=1 n=a5 v=78
114720 Off ch=1 n=f#4 v=80
114720 On ch=1 n=g#4 v=114
114960 Off ch=1 n=d#5 v=80
114960 Off ch=1 n=a5 v=80
114960 On ch=1 n=d#5 v=78
114960 On ch=1 n=a5 v=78
115200 Off ch=1 n=a5 v=80
115200 Off ch=1 n=b3 v=80
115200 Off ch=1 n=g#4 v=80
115200 Off ch=1 n=d#5 v=80
115200 On ch=1 n=e4 v=102
115440 On ch=1 n=e5 v=78
115440 On ch=1 n=d5 v=78
115680 On ch=1 n=g#4 v=106
115920 Off ch=1 n=d5 v=80
115920 Off ch=1 n=e5 v=80
115920 On ch=1 n=d5 v=78
115920 On ch=1 n=e5 v=78
116160 Off ch=1 n=g#4 v=80
116160 On ch=1 n=b4 v=110
116400 Off ch=1 n=d5 v=80
116400 Off ch=1 n=e5 v=80
116400 On ch=1 n=d5 v=78
116400 On ch=1 n=e5 v=78
116640 Off ch=1 n=e5 v=80
116640 Off ch=1 n=b4 v=80
116640 Off ch=1 n=d5 v=80
116640 On ch=1 n=d5 v=114
116640 On ch=1 n=e5 v=114
116880 Off ch=1 n=e5 v=80
116880 Off ch=1 n=d5 v=80
116880 On ch=1 n=e5 v=78
116880 On ch=1 n=d5 v=78
117120 Off ch=1 n=d5 v=80
117120 Off ch=1 n=e4 v=80
117120 Off ch=1 n=e5 v=80
117120 On ch=1 n=b4 v=102
117360 On ch=1 n=e5 v=78
117360 On ch=1 n=d5 v=78
117600 Off ch=1 n=d5 v=80
117600 Off ch=1 n=e5 v=80
117600 Off ch=1 n=b4 v=80
117600 On ch=1 n=c#5 v=90
117840 On ch=1 n=d5 v=78
117840 On ch=1 n=e5 v=78
118080 Off ch=1 n=e5 v=80
118080 Off ch=1 n=d5 v=80
118080 Off ch=1 n=c#5 v=80
118080 On ch=1 n=a3 v=65
118080 On ch=1 n=a2 v=65
120960 Off ch=1 n=a2 v=80
120960 Off ch=1 n=a3 v=80
120960 On ch=1 n=a#3 v=65
120960 On ch=1 n=a#2 v=65
121440 On ch=1 n=d4 v=65
121920 Off ch=1 n=d4 v=80
121920 On ch=1 n=f4 v=71
122400 Off ch=1 n=f4 v=80
122400 On ch=1 n=g4 v=77
122880 Off ch=1 n=g4 v=80
122880 On ch=1 n=f4 v=83
123360 Off ch=1 n=f4 v=80
123360 On ch=1 n=d4 v=90
123840 Off ch=1 n=a#2 v=80
123840 Off ch=1 n=a#3 v=80
123840 Off ch=1 n=d4 v=80
123840 On ch=1 n=c4 v=65
123840 On ch=1 n=c3 v=65
126720 Off ch=1 n=c3 v=80
126720 Off ch=1 n=c4 v=80
126720 On ch=1 n=c3 v=65
126720 On ch=1 n=c4 v=65
127200 On ch=1 n=d#4 v=70
127680 Off ch=1 n=d#4 v=80
127680 On ch=1 n=f#4 v=75
128160 Off ch=1 n=f#4 v=80
128160 On ch=1 n=a4 v=80
128640 Off ch=1 n=a4 v=80
128640 On ch=1 n=f#4 v=85
129120 Off ch=1 n=f#4 v=80
129120 On ch=1 n=d#4 v=90
129600 Off ch=1 n=c4 v=80
129600 Off ch=1 n=c3 v=80
129600 Off ch=1 n=d#4 v=80
129600 On ch=1 n=a#2 v=90
129600 On ch=1 n=a#3 v=90
132960 Off ch=1 n=a#3 v=80
132960 Off ch=1 n=a#2 v=80
132960 On ch=1 n=d4 v=90
132960 On ch=1 n=d3 v=90
133440 Off ch=1 n=d3 v=80
133440 Off ch=1 n=d4 v=80
133440 On ch=1 n=a#3 v=90
133440 On ch=1 n=a#2 v=90
133920 Off ch=1 n=a#2 v=80
133920 Off ch=1 n=a#3 v=80
133920 On ch=1 n=a3 v=82
133920 On ch=1 n=a2 v=82
134400 Off ch=1 n=a2 v=80
134400 Off ch=1 n=a3 v=80
134400 On ch=1 n=g3 v=74
134400 On ch=1 n=g2 v=74
134880 Off ch=1 n=g2 v=80
134880 Off ch=1 n=g3 v=80
134880 On ch=1 n=f3 v=65
134880 On ch=1 n=f2 v=65
135360 Off ch=1 n=f2 v=80
135360 Off ch=1 n=f3 v=80
135360 On ch=1 n=a#3 v=90
135360 On ch=1 n=a#2 v=90
138720 Off ch=1 n=a#2 v=80
138720 Off ch=1 n=a#3 v=80
138720 On ch=1 n=d4 v=90
138720 On ch=1 n=d3 v=90
139200 Off ch=1 n=d3 v=80
139200 Off ch=1 n=d4 v=80
139200 On ch=1 n=a#3 v=90
139200 On ch=1 n=a#2 v=90
139680 Off ch=1 n=a#2 v=80
139680 Off ch=1 n=a#3 v=80
139680 On ch=1 n=a3 v=82
139680 On ch=1 n=a2 v=82
140160 Off ch=1 n=a2 v=80
140160 Off ch=1 n=a3 v=80
140160 On ch=1 n=g3 v=74
140160 On ch=1 n=g2 v=74
140640 Off ch=1 n=g2 v=80
140640 Off ch=1 n=g3 v=80
140640 On ch=1 n=f#2 v=65
140640 On ch=1 n=f#3 v=65
141120 Off ch=1 n=f#3 v=80
141120 Off ch=1 n=f#2 v=80
141600 On ch=1 n=g2 v=65
141600 On ch=1 n=g3 v=65
142080 Off ch=1 n=g3 v=80
142080 Off ch=1 n=g2 v=80
142080 On ch=1 n=a2 v=65
142080 On ch=1 n=a3 v=65
142560 Off ch=1 n=a3 v=80
142560 Off ch=1 n=a2 v=80
142560 On ch=1 n=a#2 v=65
142560 On ch=1 n=a#3 v=65
143040 Off ch=1 n=a#3 v=80
143040 Off ch=1 n=a#2 v=80
143040 On ch=1 n=a2 v=65
143040 On ch=1 n=a3 v=65
143520 Off ch=1 n=a3 v=80
143520 Off ch=1 n=a2 v=80
143520 On ch=1 n=g2 v=65
143520 On ch=1 n=g3 v=65
144480 Off ch=1 n=g3 v=80
144480 Off ch=1 n=g2 v=80
144480 On ch=1 n=a2 v=65
144480 On ch=1 n=a3 v=65
144960 Off ch=1 n=a3 v=80
144960 Off ch=1 n=a2 v=80
144960 On ch=1 n=g#2 v=65
144960 On ch=1 n=g#3 v=65
145440 Off ch=1 n=g#3 v=80
145440 Off ch=1 n=g#2 v=80
145440 On ch=1 n=a2 v=65
145440 On ch=1 n=a3 v=65
145920 Off ch=1 n=a3 v=80
145920 Off ch=1 n=a2 v=80
145920 On ch=1 n=g#2 v=59
145920 On ch=1 n=g#3 v=59
146400 Off ch=1 n=g#3 v=80
146400 Off ch=1 n=g#2 v=80
146400 On ch=1 n=a2 v=53
146400 On ch=1 n=a3 v=53
146880 On ch=1 n=a3 v=53
147120 Off ch=1 n=a3 v=80
147120 Off ch=1 n=a3 v=80
147120 Off ch=1 n=a2 v=80
147120 On ch=1 n=b3 v=53
147360 Off ch=1 n=b3 v=80
147360 On ch=1 n=c4 v=53
147600 Off ch=1 n=c4 v=80
147840 On ch=1 n=c#4 v=53
148080 Off ch=1 n=c#4 v=80
148200 On ch=1 n=d3 v=53
148320 Off ch=1 n=d3 v=80
148320 On ch=1 n=d4 v=53
148560 Off ch=1 n=d4 v=0
148560 On ch=1 n=e4 v=53
148800 Off ch=1 n=e4 v=80
148800 On ch=1 n=f4 v=61
149040 Off ch=1 n=f4 v=80
149280 On ch=1 n=f#4 v=69
149520 Off ch=1 n=f#4 v=80
149640 On ch=1 n=g3 v=78
149760 Off ch=1 n=g3 v=80
149760 On ch=1 n=g4 v=78
150000 Off ch=1 n=g4 v=80
150000 On ch=1 n=a4 v=78
150240 Off ch=1 n=a4 v=80
150240 On ch=1 n=a#4 v=78
150480 Off ch=1 n=a#4 v=80
150720 On ch=1 n=b4 v=78
150960 Off ch=1 n=b4 v=80
151200 On ch=1 n=a3 v=78
151200 On ch=1 n=a4 v=78
151440 Off ch=1 n=a3 v=80
151440 On ch=1 n=b3 v=78
151680 Off ch=1 n=b3 v=80
151680 On ch=1 n=c4 v=78
151920 Off ch=1 n=c4 v=80
152160 On ch=1 n=c#4 v=78
152400 Off ch=1 n=c#4 v=80
152520 On ch=1 n=a2 v=53
152640 Off ch=1 n=a4 v=80
152640 Off ch=1 n=a2 v=80
152640 On ch=1 n=a3 v=53
152880 Off ch=1 n=a3 v=80
152880 On ch=1 n=b3 v=53
153120 Off ch=1 n=b3 v=80
153120 On ch=1 n=c4 v=53
153360 Off ch=1 n=c4 v=80
153600 On ch=1 n=c#4 v=53
153840 Off ch=1 n=c#4 v=80
153960 On ch=1 n=d3 v=53
154080 Off ch=1 n=d3 v=80
154080 On ch=1 n=d4 v=53
154320 Off ch=1 n=d4 v=0
154320 On ch=1 n=e4 v=53
154560 Off ch=1 n=e4 v=80
154560 On ch=1 n=f4 v=61
154800 Off ch=1 n=f4 v=80
155040 On ch=1 n=f#4 v=69
155280 Off ch=1 n=f#4 v=80
155400 On ch=1 n=g3 v=78
155520 Off ch=1 n=g3 v=80
155520 On ch=1 n=g4 v=78
155760 Off ch=1 n=g4 v=80
155760 On ch=1 n=a4 v=78
156000 Off ch=1 n=a4 v=80
156000 On ch=1 n=a#4 v=78
156240 Off ch=1 n=a#4 v=80
156480 On ch=1 n=b4 v=78
156720 Off ch=1 n=b4 v=80
156960 On ch=1 n=a3 v=78
156960 On ch=1 n=a4 v=78
157200 Off ch=1 n=a3 v=80
157200 On ch=1 n=b3 v=78
157440 Off ch=1 n=b3 v=80
157440 On ch=1 n=c4 v=78
157680 Off ch=1 n=c4 v=80
157920 On ch=1 n=c#4 v=78
158160 Off ch=1 n=c#4 v=80
158280 On ch=1 n=a2 v=53
158400 Off ch=1 n=a4 v=80
158400 Off ch=1 n=a2 v=80
158400 On ch=1 n=a3 v=53
158640 Off ch=1 n=a3 v=80
158640 On ch=1 n=b3 v=53
158880 Off ch=1 n=b3 v=80
158880 On ch=1 n=c4 v=53
159120 Off ch=1 n=c4 v=80
159360 On ch=1 n=c#4 v=53
159600 Off ch=1 n=c#4 v=80
159720 On ch=1 n=d3 v=53
159840 Off ch=1 n=d3 v=80
159840 On ch=1 n=d4 v=53
160080 Off ch=1 n=d4 v=0
160080 On ch=1 n=e4 v=53
160320 Off ch=1 n=e4 v=80
160320 On ch=1 n=f4 v=61
160560 Off ch=1 n=f4 v=80
160800 On ch=1 n=f#4 v=69
161040 Off ch=1 n=f#4 v=80
161160 On ch=1 n=f#2 v=78
161280 Off ch=1 n=f#2 v=80
161280 On ch=1 n=f#3 v=78
161520 Off ch=1 n=f#3 v=0
161520 On ch=1 n=g#3 v=78
161760 Off ch=1 n=g#3 v=80
161760 On ch=1 n=a3 v=78
162000 Off ch=1 n=a3 v=80
162240 On ch=1 n=a#3 v=78
162480 Off ch=1 n=a#3 v=80
162600 On ch=1 n=b2 v=53
162720 Off ch=1 n=b2 v=80
162720 On ch=1 n=b3 v=53
162960 Off ch=1 n=b3 v=0
162960 On ch=1 n=c#4 v=53
163200 Off ch=1 n=c#4 v=80
163200 On ch=1 n=d4 v=61
163440 Off ch=1 n=d4 v=80
163680 On ch=1 n=d#4 v=69
163920 Off ch=1 n=d#4 v=80
164040 On ch=1 n=e2 v=78
164160 Off ch=1 n=e2 v=80
164160 On ch=1 n=e3 v=78
164400 Off ch=1 n=e3 v=0
164400 On ch=1 n=f#3 v=78
164640 Off ch=1 n=f#3 v=80
164640 On ch=1 n=g3 v=78
164880 Off ch=1 n=g3 v=80
165120 On ch=1 n=a3 v=102
165120 On ch=1 n=a2 v=102
165360 Off ch=1 n=a2 v=80
165360 Off ch=1 n=a3 v=80
165480 On ch=1 n=g2 v=78
165600 Off ch=1 n=g2 v=80
165600 On ch=1 n=g3 v=78
165840 Off ch=1 n=g3 v=0
165840 On ch=1 n=a3 v=78
166080 Off ch=1 n=a3 v=80
166080 On ch=1 n=b3 v=78
166320 Off ch=1 n=b3 v=80
166560 On ch=1 n=c4 v=102
166560 On ch=1 n=c3 v=102
166800 Off ch=1 n=c3 v=80
166800 Off ch=1 n=c4 v=80
166920 On ch=1 n=b2 v=78
167040 Off ch=1 n=b2 v=80
167040 On ch=1 n=b3 v=78
167280 Off ch=1 n=b3 v=0
167280 On ch=1 n=c4 v=78
167520 Off ch=1 n=c4 v=80
167520 On ch=1 n=d4 v=78
167760 Off ch=1 n=d4 v=80
168000 On ch=1 n=a#3 v=102
168000 On ch=1 n=a#2 v=102
168240 Off ch=1 n=a#2 v=80
168240 Off ch=1 n=a#3 v=80
168480 On ch=1 n=a2 v=90
168960 On ch=1 n=a3 v=102
169440 Off ch=1 n=a3 v=80
169440 Off ch=1 n=a2 v=80
169440 On ch=1 n=a3 v=102
169440 On ch=1 n=a4 v=102
169920 Off ch=1 n=a4 v=80
169920 Off ch=1 n=a3 v=80
169920 On ch=1 n=d5 v=102
169920 On ch=1 n=d4 v=102
170160 Off ch=1 n=d4 v=80
170160 On ch=1 n=e4 v=102
170400 Off ch=1 n=e4 v=80
170400 On ch=1 n=f#4 v=102
170640 Off ch=1 n=f#4 v=80
170880 Off ch=1 n=d5 v=80
170880 On ch=1 n=f#4 v=102
170880 On ch=1 n=f#3 v=102
171120 Off ch=1 n=f#3 v=80
171120 Off ch=1 n=f#4 v=80
171360 On ch=1 n=b4 v=102
171360 On ch=1 n=b3 v=102
171600 Off ch=1 n=b3 v=80
171600 On ch=1 n=c#4 v=102
171840 Off ch=1 n=c#4 v=80
171840 On ch=1 n=d4 v=102
172080 Off ch=1 n=d4 v=80
172320 Off ch=1 n=b4 v=80
172320 On ch=1 n=e3 v=102
172320 On ch=1 n=e4 v=102
172560 Off ch=1 n=e4 v=80
172560 Off ch=1 n=e3 v=80
172800 On ch=1 n=a3 v=102
172800 On ch=1 n=a4 v=102
173040 Off ch=1 n=a3 v=80
173040 On ch=1 n=b3 v=102
173280 Off ch=1 n=b3 v=80
173280 On ch=1 n=c#4 v=102
173520 Off ch=1 n=c#4 v=80
173760 Off ch=1 n=a4 v=80
173760 On ch=1 n=a4 v=106
173760 On ch=1 n=b3 v=106
174000 Off ch=1 n=b3 v=80
174000 On ch=1 n=c#4 v=106
174240 Off ch=1 n=c#4 v=80
174240 On ch=1 n=d4 v=106
174480 Off ch=1 n=d4 v=80
174720 Off ch=1 n=a4 v=80
174720 On ch=1 n=a4 v=110
174720 On ch=1 n=c#4 v=110
174960 Off ch=1 n=c#4 v=80
174960 On ch=1 n=d4 v=110
175200 Off ch=1 n=d4 v=80
175200 On ch=1 n=e4 v=110
175440 Off ch=1 n=e4 v=80
175680 Off ch=1 n=a4 v=80
175680 On ch=1 n=d5 v=114
175680 On ch=1 n=d4 v=114
175920 Off ch=1 n=d4 v=80
175920 On ch=1 n=e4 v=114
176160 Off ch=1 n=e4 v=80
176160 On ch=1 n=f#4 v=114
176400 Off ch=1 n=f#4 v=80
176640 Off ch=1 n=d5 v=80
176640 On ch=1 n=f#3 v=114
176640 On ch=1 n=f#4 v=114
176880 Off ch=1 n=f#4 v=80
176880 Off ch=1 n=f#3 v=80
177120 On ch=1 n=b3 v=102
177120 On ch=1 n=b4 v=102
177360 Off ch=1 n=b3 v=80
177360 On ch=1 n=c#4 v=102
177600 Off ch=1 n=c#4 v=80
177600 On ch=1 n=d4 v=102
177840 Off ch=1 n=d4 v=80
178080 Off ch=1 n=b4 v=80
178080 On ch=1 n=e3 v=102
178080 On ch=1 n=e4 v=102
178320 Off ch=1 n=e4 v=80
178320 Off ch=1 n=e3 v=80
178560 On ch=1 n=a3 v=102
178560 On ch=1 n=a4 v=102
178800 Off ch=1 n=a3 v=80
178800 On ch=1 n=b3 v=102
179040 Off ch=1 n=b3 v=80
179040 On ch=1 n=c#4 v=102
179280 Off ch=1 n=c#4 v=80
179520 Off ch=1 n=a4 v=80
179520 On ch=1 n=a4 v=106
179520 On ch=1 n=b3 v=106
179760 Off ch=1 n=b3 v=80
179760 On ch=1 n=c#4 v=106
180000 Off ch=1 n=c#4 v=80
180000 On ch=1 n=d4 v=106
180240 Off ch=1 n=d4 v=80
180480 Off ch=1 n=a4 v=80
180480 On ch=1 n=a4 v=110
180480 On ch=1 n=c#4 v=110
180720 Off ch=1 n=c#4 v=80
180720 On ch=1 n=d4 v=110
180960 Off ch=1 n=d4 v=80
180960 On ch=1 n=e4 v=110
181200 Off ch=1 n=e4 v=80
181440 Off ch=1 n=a4 v=80
181440 On ch=1 n=d5 v=114
181440 On ch=1 n=d4 v=114
181680 Off ch=1 n=d4 v=80
181680 On ch=1 n=e4 v=114
181920 Off ch=1 n=e4 v=80
181920 On ch=1 n=f#4 v=114
182160 Off ch=1 n=f#4 v=80
182400 Off ch=1 n=d5 v=80
182400 On ch=1 n=e4 v=102
182400 On ch=1 n=d4 v=102
183360 Off ch=1 n=e4 v=80
183360 On ch=1 n=f#4 v=102
184320 Off ch=1 n=d4 v=80
184320 Off ch=1 n=f#4 v=80
184320 On ch=1 n=d4 v=102
184320 On ch=1 n=g4 v=102
185280 Off ch=1 n=g4 v=80
185280 On ch=1 n=g#4 v=102
186240 Off ch=1 n=d4 v=80
186240 Off ch=1 n=g#4 v=80
186240 On ch=1 n=a4 v=102
186240 On ch=1 n=d4 v=102
186480 Off ch=1 n=d4 v=80
186480 Off ch=1 n=a4 v=80
186720 On ch=1 n=g4 v=102
186720 On ch=1 n=d4 v=102
186960 Off ch=1 n=d4 v=80
186960 Off ch=1 n=g4 v=80
187200 On ch=1 n=d4 v=120
187200 On ch=1 n=d3 v=120
187440 Off ch=1 n=d3 v=80
187440 On ch=1 n=e3 v=102
187680 Off ch=1 n=d4 v=80
187680 Off ch=1 n=e3 v=80
187680 On ch=1 n=f#3 v=102
187920 Off ch=1 n=f#3 v=80
188160 On ch=1 n=b3 v=112
188160 On ch=1 n=b2 v=112
189120 Off ch=1 n=b2 v=80
189120 Off ch=1 n=b3 v=80
189120 On ch=1 n=a#3 v=112
189120 On ch=1 n=a#2 v=112
190080 Off ch=1 n=a#2 v=80
190080 Off ch=1 n=a#3 v=80
190080 On ch=1 n=a3 v=112
190080 On ch=1 n=a2 v=112
191040 Off ch=1 n=a2 v=80
191040 Off ch=1 n=a3 v=80
191040 On ch=1 n=g#3 v=112
191040 On ch=1 n=g#2 v=112
192000 Off ch=1 n=g#2 v=80
192000 Off ch=1 n=g#3 v=80
192000 On ch=1 n=g3 v=108
192000 On ch=1 n=g2 v=108
192240 Off ch=1 n=g2 v=80
192240 Off ch=1 n=g3 v=80
192480 On ch=1 n=g2 v=114
192480 On ch=1 n=g3 v=114
192720 Off ch=1 n=g3 v=80
192720 Off ch=1 n=g2 v=80
192840 On ch=1 n=g2 v=120
192960 Off ch=1 n=g2 v=80
192960 On ch=1 n=g3 v=120
193200 Off ch=1 n=g3 v=80
193200 On ch=1 n=a3 v=120
193440 Off ch=1 n=a3 v=80
193440 On ch=1 n=a#3 v=53
193680 Off ch=1 n=a#3 v=80
193920 On ch=1 n=b3 v=53
194160 Off ch=1 n=b3 v=80
194280 On ch=1 n=c3 v=53
194400 Off ch=1 n=c3 v=80
194400 On ch=1 n=c4 v=53
194640 Off ch=1 n=c4 v=0
194640 On ch=1 n=d4 v=53
194880 Off ch=1 n=d4 v=80
194880 On ch=1 n=d#4 v=61
195120 Off ch=1 n=d#4 v=80
195360 On ch=1 n=e4 v=69
195600 Off ch=1 n=e4 v=80
195720 On ch=1 n=f3 v=78
195840 Off ch=1 n=f3 v=80
195840 On ch=1 n=f4 v=78
196080 Off ch=1 n=f4 v=80
196080 On ch=1 n=g4 v=78
196320 Off ch=1 n=g4 v=80
196320 On ch=1 n=g#4 v=78
196560 Off ch=1 n=g#4 v=80
196800 On ch=1 n=a4 v=78
197040 Off ch=1 n=a4 v=80
197280 On ch=1 n=g4 v=78
197280 On ch=1 n=g3 v=78
197520 Off ch=1 n=g3 v=80
197520 On ch=1 n=a3 v=78
197760 Off ch=1 n=a3 v=80
197760 On ch=1 n=a#3 v=78
198000 Off ch=1 n=a#3 v=80
198240 On ch=1 n=b3 v=78
198480 Off ch=1 n=b3 v=80
198600 On ch=1 n=g2 v=53
198720 Off ch=1 n=g4 v=80
198720 Off ch=1 n=g2 v=80
198720 On ch=1 n=g3 v=53
198960 Off ch=1 n=g3 v=80
198960 On ch=1 n=a3 v=53
199200 Off ch=1 n=a3 v=80
199200 On ch=1 n=a#3 v=53
199440 Off ch=1 n=a#3 v=80
199680 On ch=1 n=b3 v=53
199920 Off ch=1 n=b3 v=80
200040 On ch=1 n=c3 v=53
200160 Off ch=1 n=c3 v=80
200160 On ch=1 n=c4 v=53
200400 Off ch=1 n=c4 v=0
200400 On ch=1 n=d4 v=53
200640 Off ch=1 n=d4 v=80
200640 On ch=1 n=d#4 v=61
200880 Off ch=1 n=d#4 v=80
201120 On ch=1 n=e4 v=69
201360 Off ch=1 n=e4 v=80
201480 On ch=1 n=f3 v=78
201600 Off ch=1 n=f3 v=80
201600 On ch=1 n=f4 v=78
201840 Off ch=1 n=f4 v=80
201840 On ch=1 n=g4 v=78
202080 Off ch=1 n=g4 v=80
202080 On ch=1 n=g#4 v=78
202320 Off ch=1 n=g#4 v=80
202560 On ch=1 n=a4 v=78
202800 Off ch=1 n=a4 v=80
203040 On ch=1 n=g3 v=78
203040 On ch=1 n=g4 v=78
203280 Off ch=1 n=g3 v=80
203280 On ch=1 n=a3 v=78
203520 Off ch=1 n=a3 v=80
203520 On ch=1 n=a#3 v=78
203760 Off ch=1 n=a#3 v=80
204000 Off ch=1 n=g4 v=80
204000 On ch=1 n=e4 v=120
204000 On ch=1 n=e3 v=120
204360 Off ch=1 n=e3 v=80
204360 Off ch=1 n=e4 v=80
204360 On ch=1 n=a2 v=102
204480 Off ch=1 n=a2 v=80
204480 On ch=1 n=a3 v=102
204720 Off ch=1 n=a3 v=80
204720 On ch=1 n=b3 v=102
204960 Off ch=1 n=b3 v=80
204960 On ch=1 n=c4 v=102
205200 Off ch=1 n=c4 v=80
205440 On ch=1 n=c#4 v=102
205680 Off ch=1 n=c#4 v=80
205800 On ch=1 n=d3 v=102
205920 Off ch=1 n=d3 v=80
205920 On ch=1 n=d4 v=102
206160 Off ch=1 n=d4 v=0
206160 On ch=1 n=e4 v=102
206400 Off ch=1 n=e4 v=80
206400 On ch=1 n=f4 v=102
206640 Off ch=1 n=f4 v=80
206880 On ch=1 n=f#4 v=102
207120 Off ch=1 n=f#4 v=80
207240 On ch=1 n=f#2 v=102
207360 Off ch=1 n=f#2 v=80
207360 On ch=1 n=f#3 v=102
207600 Off ch=1 n=f#3 v=0
207600 On ch=1 n=g#3 v=102
207840 Off ch=1 n=g#3 v=80
207840 On ch=1 n=a3 v=102
208080 Off ch=1 n=a3 v=80
208320 On ch=1 n=a#3 v=102
208560 Off ch=1 n=a#3 v=80
208680 On ch=1 n=b2 v=102
208800 Off ch=1 n=b2 v=80
208800 On ch=1 n=b3 v=102
209040 Off ch=1 n=b3 v=0
209040 On ch=1 n=c#4 v=102
209280 Off ch=1 n=c#4 v=80
209280 On ch=1 n=d4 v=102
209520 Off ch=1 n=d4 v=80
209760 On ch=1 n=d#4 v=102
210000 Off ch=1 n=d#4 v=80
210120 On ch=1 n=e2 v=78
210240 Off ch=1 n=e2 v=80
210240 On ch=1 n=e3 v=90
210480 Off ch=1 n=e3 v=0
210480 On ch=1 n=f#3 v=90
210720 Off ch=1 n=f#3 v=80
210720 On ch=1 n=g3 v=90
210960 Off ch=1 n=g3 v=80
211200 On ch=1 n=a3 v=114
211200 On ch=1 n=a2 v=114
211440 Off ch=1 n=a2 v=80
211440 Off ch=1 n=a3 v=80
211560 On ch=1 n=g2 v=90
211680 Off ch=1 n=g2 v=80
211680 On ch=1 n=g3 v=90
211920 Off ch=1 n=g3 v=0
211920 On ch=1 n=a3 v=90
212160 Off ch=1 n=a3 v=80
212160 On ch=1 n=b3 v=90
212400 Off ch=1 n=b3 v=80
212640 On ch=1 n=c4 v=114
212640 On ch=1 n=c3 v=114
212880 Off ch=1 n=c3 v=80
212880 Off ch=1 n=c4 v=80
213000 On ch=1 n=b2 v=90
213120 Off ch=1 n=b2 v=80
213120 On ch=1 n=b3 v=90
213360 Off ch=1 n=b3 v=0
213360 On ch=1 n=c4 v=90
213600 Off ch=1 n=c4 v=80
213600 On ch=1 n=d4 v=90
213840 Off ch=1 n=d4 v=80
214080 On ch=1 n=a#3 v=114
214080 On ch=1 n=a#2 v=114
214320 Off ch=1 n=a#2 v=80
214320 Off ch=1 n=a#3 v=80
214560 On ch=1 n=a2 v=102
215040 On ch=1 n=a3 v=114
215520 Off ch=1 n=a3 v=80
215520 Off ch=1 n=a2 v=80
215520 On ch=1 n=a4 v=114
216000 Off ch=1 n=a4 v=80
216000 On ch=1 n=d3 v=102
216480 Off ch=1 n=d3 v=80
216480 On ch=1 n=c#3 v=102
216960 Off ch=1 n=c#3 v=80
216960 On ch=1 n=b2 v=102
217440 Off ch=1 n=b2 v=80
217440 On ch=1 n=a2 v=102
217440 On ch=1 n=a3 v=102
217920 Off ch=1 n=a3 v=80
217920 Off ch=1 n=a2 v=80
217920 On ch=1 n=g#4 v=117
218400 Off ch=1 n=g#4 v=80
218400 On ch=1 n=g4 v=117
218880 Off ch=1 n=g4 v=80
218880 On ch=1 n=f#4 v=102
218880 On ch=1 n=d4 v=102
219360 Off ch=1 n=d4 v=80
219360 Off ch=1 n=f#4 v=80
219360 On ch=1 n=c#4 v=102
219840 Off ch=1 n=c#4 v=80
219840 On ch=1 n=b3 v=102
220320 Off ch=1 n=b3 v=80
220320 On ch=1 n=a3 v=102
220320 On ch=1 n=a4 v=102
220800 Off ch=1 n=a4 v=80
220800 Off ch=1 n=a3 v=80
220800 On ch=1 n=g#5 v=117
221280 Off ch=1 n=g#5 v=80
221280 On ch=1 n=g5 v=117
221760 Off ch=1 n=g5 v=80
221760 On ch=1 n=d4 v=102
222240 Off ch=1 n=d4 v=80
222240 On ch=1 n=e5 v=102
222240 On ch=1 n=a5 v=102
222720 Off ch=1 n=e5 v=80
222720 On ch=1 n=d5 v=102
223200 Off ch=1 n=a5 v=80
223200 Off ch=1 n=d5 v=80
223200 On ch=1 n=g3 v=102
223680 Off ch=1 n=g3 v=80
223680 On ch=1 n=g4 v=102
223680 On ch=1 n=d5 v=102
224160 Off ch=1 n=g4 v=80
224160 On ch=1 n=d4 v=102
224640 Off ch=1 n=d5 v=80
224640 Off ch=1 n=d4 v=80
224640 On ch=1 n=a3 v=102
225120 Off ch=1 n=a3 v=80
225120 On ch=1 n=e5 v=102
225120 On ch=1 n=b4 v=102
225600 Off ch=1 n=b4 v=80
225600 On ch=1 n=a4 v=102
226080 Off ch=1 n=e5 v=80
226080 Off ch=1 n=a4 v=80
226080 On ch=1 n=d3 v=102
226560 Off ch=1 n=d3 v=80
226560 On ch=1 n=d4 v=102
226560 On ch=1 n=a4 v=102
227040 Off ch=1 n=d4 v=80
227040 On ch=1 n=a3 v=102
227520 Off ch=1 n=a4 v=80
227520 Off ch=1 n=a3 v=80
227520 On ch=1 n=b3 v=102
227520 On ch=1 n=b2 v=102
228480 Off ch=1 n=b2 v=80
228480 Off ch=1 n=b3 v=80
228480 On ch=1 n=g#4 v=117
228960 Off ch=1 n=g#4 v=80
228960 On ch=1 n=f#4 v=117
228960 On ch=1 n=f#3 v=117
229440 Off ch=1 n=f#3 v=80
229440 Off ch=1 n=f#4 v=80
229440 On ch=1 n=g#4 v=117
229920 Off ch=1 n=g#4 v=80
229920 On ch=1 n=a#4 v=117
230400 Off ch=1 n=a#4 v=80
230400 On ch=1 n=b4 v=117
230400 On ch=1 n=b3 v=117
231360 Off ch=1 n=b3 v=80
231360 Off ch=1 n=b4 v=80
231360 On ch=1 n=g#5 v=117
231840 Off ch=1 n=g#5 v=80
231840 On ch=1 n=f#5 v=117
231840 On ch=1 n=f#4 v=117
232320 Off ch=1 n=f#4 v=80
232320 Off ch=1 n=f#5 v=80
232320 On ch=1 n=g#5 v=117
232800 Off ch=1 n=g#5 v=80
232800 On ch=1 n=a#5 v=117
233280 Off ch=1 n=a#5 v=80
233280 On ch=1 n=b4 v=114
233760 Off ch=1 n=b4 v=80
233760 On ch=1 n=f#6 v=78
233760 On ch=1 n=c#6 v=78
234240 Off ch=1 n=c#6 v=80
234240 On ch=1 n=b5 v=78
234720 Off ch=1 n=f#6 v=80
234720 Off ch=1 n=b5 v=80
234720 On ch=1 n=e4 v=83
235200 Off ch=1 n=e4 v=80
235200 On ch=1 n=b5 v=89
235200 On ch=1 n=e5 v=89
235680 Off ch=1 n=e5 v=80
235680 On ch=1 n=b4 v=94
236160 Off ch=1 n=b5 v=80
236160 Off ch=1 n=b4 v=80
236160 On ch=1 n=f#4 v=100
236640 Off ch=1 n=f#4 v=80
236640 On ch=1 n=g#5 v=105
236640 On ch=1 n=c#6 v=105
237120 Off ch=1 n=g#5 v=80
237120 On ch=1 n=f#5 v=111
237600 Off ch=1 n=c#6 v=80
237600 Off ch=1 n=f#5 v=80
237600 On ch=1 n=b3 v=93
238080 Off ch=1 n=b3 v=80
238080 On ch=1 n=f#5 v=84
238080 On ch=1 n=b4 v=84
238560 Off ch=1 n=b4 v=80
238560 On ch=1 n=f#4 v=75
239040 Off ch=1 n=f#5 v=80
239040 Off ch=1 n=f#4 v=80
239040 On ch=1 n=e4 v=65
239280 Off ch=1 n=e4 v=80
239520 On ch=1 n=b4 v=65
239520 On ch=1 n=e5 v=65
240000 Off ch=1 n=e5 v=80
240000 Off ch=1 n=b4 v=80
240000 On ch=1 n=a#4 v=65
240480 Off ch=1 n=a#4 v=80
240480 On ch=1 n=a#3 v=65
240720 Off ch=1 n=a#3 v=80
240960 On ch=1 n=d5 v=65
240960 On ch=1 n=e5 v=65
241440 Off ch=1 n=e5 v=80
241440 Off ch=1 n=d5 v=80
241440 On ch=1 n=a#4 v=65
241920 Off ch=1 n=a#4 v=80
241920 On ch=1 n=a3 v=65
242160 Off ch=1 n=a3 v=80
242400 On ch=1 n=c#5 v=65
242400 On ch=1 n=g5 v=65
242880 Off ch=1 n=g5 v=80
242880 Off ch=1 n=c#5 v=80
242880 On ch=1 n=a4 v=65
243360 Off ch=1 n=a4 v=80
243360 On ch=1 n=d4 v=65
243600 Off ch=1 n=d4 v=80
243840 On ch=1 n=a4 v=65
243840 On ch=1 n=d5 v=65
244320 Off ch=1 n=d5 v=80
244320 Off ch=1 n=a4 v=80
244320 On ch=1 n=f#4 v=65
244800 Off ch=1 n=f#4 v=80
244800 On ch=1 n=c#4 v=65
245040 Off ch=1 n=c#4 v=80
245280 On ch=1 n=g#4 v=65
245280 On ch=1 n=c#5 v=65
245760 Off ch=1 n=c#5 v=80
245760 Off ch=1 n=g#4 v=80
245760 On ch=1 n=g4 v=65
246240 Off ch=1 n=g4 v=80
246240 On ch=1 n=g3 v=65
246480 Off ch=1 n=g3 v=80
246720 On ch=1 n=b4 v=65
246720 On ch=1 n=c#5 v=65
247200 Off ch=1 n=c#5 v=80
247200 Off ch=1 n=b4 v=80
247200 On ch=1 n=g4 v=65
247680 Off ch=1 n=g4 v=80
247680 On ch=1 n=f#3 v=65
247920 Off ch=1 n=f#3 v=80
248160 On ch=1 n=a#4 v=65
248160 On ch=1 n=e5 v=65
248640 Off ch=1 n=e5 v=80
248640 Off ch=1 n=a#4 v=80
248640 On ch=1 n=f#4 v=65
249120 Off ch=1 n=f#4 v=80
249120 On ch=1 n=b3 v=65
249360 Off ch=1 n=b3 v=80
249600 On ch=1 n=b4 v=65
249600 On ch=1 n=d4 v=65
250080 Off ch=1 n=d4 v=80
250080 Off ch=1 n=b4 v=80
250080 On ch=1 n=b3 v=65
250560 Off ch=1 n=b3 v=80
250560 On ch=1 n=e3 v=65
251040 Off ch=1 n=e3 v=80
251040 On ch=1 n=e4 v=65
251040 On ch=1 n=b4 v=65
251520 Off ch=1 n=e4 v=80
251520 On ch=1 n=b3 v=65
252000 Off ch=1 n=b4 v=80
252000 Off ch=1 n=b3 v=80
252000 On ch=1 n=a3 v=69
252480 Off ch=1 n=a3 v=80
252480 On ch=1 n=b4 v=69
252480 On ch=1 n=e5 v=69
252960 Off ch=1 n=b4 v=80
252960 On ch=1 n=a4 v=74
253440 Off ch=1 n=e5 v=80
253440 Off ch=1 n=a4 v=80
253440 On ch=1 n=e4 v=78
253920 Off ch=1 n=e4 v=80
253920 On ch=1 n=b5 v=78
253920 On ch=1 n=e5 v=78
254400 Off ch=1 n=e5 v=80
254400 On ch=1 n=b4 v=83
254880 Off ch=1 n=b5 v=80
254880 Off ch=1 n=b4 v=80
254880 On ch=1 n=a4 v=87
255360 Off ch=1 n=a4 v=80
255360 On ch=1 n=e6 v=87
255360 On ch=1 n=b5 v=87
255840 Off ch=1 n=b5 v=80
255840 On ch=1 n=a5 v=92
256320 Off ch=1 n=e6 v=80
256320 Off ch=1 n=a5 v=80
256320 On ch=1 n=d3 v=102
256500 Off ch=1 n=d3 v=80
256560 On ch=1 n=d4 v=102
256800 Off ch=1 n=d4 v=80
256800 On ch=1 n=e3 v=102
256980 Off ch=1 n=e3 v=80
257040 On ch=1 n=d4 v=102
257280 Off ch=1 n=d4 v=80
257280 On ch=1 n=f#3 v=102
257460 Off ch=1 n=f#3 v=80
257520 On ch=1 n=d4 v=102
257760 Off ch=1 n=d4 v=80
257760 On ch=1 n=g3 v=102
257880 Off ch=1 n=g3 v=80
258000 On ch=1 n=d4 v=102
258240 Off ch=1 n=d4 v=80
258240 On ch=1 n=a3 v=102
258360 Off ch=1 n=a3 v=80
258480 On ch=1 n=d4 v=102
258720 Off ch=1 n=d4 v=80
258720 On ch=1 n=b3 v=102
258840 Off ch=1 n=b3 v=80
258960 On ch=1 n=d4 v=102
259200 Off ch=1 n=d4 v=80
259200 On ch=1 n=c#4 v=120
259320 Off ch=1 n=c#4 v=80
259440 On ch=1 n=a4 v=102
259680 Off ch=1 n=a4 v=80
259680 On ch=1 n=d4 v=102
259800 Off ch=1 n=d4 v=80
259920 On ch=1 n=a4 v=102
260160 Off ch=1 n=a4 v=80
260160 On ch=1 n=e4 v=102
260280 Off ch=1 n=e4 v=80
260400 On ch=1 n=a4 v=102
260640 Off ch=1 n=a4 v=80
260640 On ch=1 n=d4 v=120
260760 Off ch=1 n=d4 v=80
260880 On ch=1 n=a4 v=102
261120 Off ch=1 n=a4 v=80
261120 On ch=1 n=e4 v=102
261240 Off ch=1 n=e4 v=80
261360 On ch=1 n=a4 v=102
261600 Off ch=1 n=a4 v=80
261600 On ch=1 n=f#4 v=102
261720 Off ch=1 n=f#4 v=80
261840 On ch=1 n=a4 v=102
262080 Off ch=1 n=a4 v=80
262080 On ch=1 n=f#4 v=102
262200 Off ch=1 n=f#4 v=80
262320 On ch=1 n=f#5 v=102
262560 Off ch=1 n=f#5 v=80
262560 On ch=1 n=c#4 v=102
262680 Off ch=1 n=c#4 v=80
262800 On ch=1 n=c#5 v=102
263040 Off ch=1 n=c#5 v=80
263040 On ch=1 n=d4 v=102
263160 Off ch=1 n=d4 v=80
263280 On ch=1 n=d5 v=102
263520 Off ch=1 n=d5 v=80
263520 On ch=1 n=b3 v=105
263640 Off ch=1 n=b3 v=80
263760 On ch=1 n=b4 v=105
264000 Off ch=1 n=b4 v=80
264000 On ch=1 n=f#3 v=105
264120 Off ch=1 n=f#3 v=80
264240 On ch=1 n=f#4 v=105
264480 Off ch=1 n=f#4 v=80
264480 On ch=1 n=g3 v=105
264600 Off ch=1 n=g3 v=80
264720 On ch=1 n=g4 v=105
264960 Off ch=1 n=g4 v=80
264960 On ch=1 n=a3 v=123
265080 Off ch=1 n=a3 v=80
265200 On ch=1 n=a4 v=108
265440 Off ch=1 n=a4 v=80
265440 On ch=1 n=d3 v=108
265560 Off ch=1 n=d3 v=80
265680 On ch=1 n=d4 v=108
265920 Off ch=1 n=d4 v=80
265920 On ch=1 n=c#3 v=108
266040 Off ch=1 n=c#3 v=80
266160 On ch=1 n=c#4 v=108
266400 Off ch=1 n=c#4 v=80
266400 On ch=1 n=a3 v=127
266520 Off ch=1 n=a3 v=80
266640 On ch=1 n=a4 v=111
266880 Off ch=1 n=a4 v=80
266880 On ch=1 n=d3 v=111
267000 Off ch=1 n=d3 v=80
267120 On ch=1 n=d4 v=111
267360 Off ch=1 n=d4 v=80
267360 On ch=1 n=c3 v=111
267480 Off ch=1 n=c3 v=80
267600 On ch=1 n=c4 v=111
267720 On ch=1 n=b2 v=120
267840 Off ch=1 n=b2 v=80
267840 Off ch=1 n=c4 v=80
267840 On ch=1 n=b3 v=120
268080 Off ch=1 n=b3 v=80
268080 On ch=1 n=c#4 v=120
268320 Off ch=1 n=c#4 v=80
268320 On ch=1 n=d4 v=53
268560 Off ch=1 n=d4 v=80
268800 On ch=1 n=d#4 v=53
269040 Off ch=1 n=d#4 v=80
269160 On ch=1 n=e3 v=69
269280 Off ch=1 n=e3 v=80
269280 On ch=1 n=e4 v=69
269520 Off ch=1 n=e4 v=0
269520 On ch=1 n=f#4 v=69
269760 Off ch=1 n=f#4 v=80
269760 On ch=1 n=g4 v=69
270000 Off ch=1 n=g4 v=80
270240 On ch=1 n=g#4 v=73
270480 Off ch=1 n=g#4 v=80
270600 On ch=1 n=a3 v=73
270720 Off ch=1 n=a3 v=80
270720 On ch=1 n=a4 v=77
270960 Off ch=1 n=a4 v=80
270960 On ch=1 n=b4 v=77
271200 Off ch=1 n=b4 v=80
271200 On ch=1 n=c5 v=77
271440 Off ch=1 n=c5 v=80
271680 On ch=1 n=c#5 v=81
271920 Off ch=1 n=c#5 v=80
272040 On ch=1 n=d4 v=90
272160 Off ch=1 n=d4 v=80
272160 On ch=1 n=d5 v=90
272400 Off ch=1 n=d5 v=80
272400 On ch=1 n=e5 v=90
272640 Off ch=1 n=e5 v=80
272640 On ch=1 n=f5 v=90
272880 Off ch=1 n=f5 v=80
273120 On ch=1 n=f#5 v=90
273360 Off ch=1 n=f#5 v=80
273480 On ch=1 n=b2 v=65
273600 Off ch=1 n=b2 v=80
273600 On ch=1 n=b3 v=65
273840 Off ch=1 n=b3 v=80
273840 On ch=1 n=c#4 v=65
274080 Off ch=1 n=c#4 v=80
274080 On ch=1 n=d4 v=65
274320 Off ch=1 n=d4 v=80
274560 On ch=1 n=d#4 v=65
274800 Off ch=1 n=d#4 v=80
274920 On ch=1 n=e3 v=65
275040 Off ch=1 n=e3 v=80
275040 On ch=1 n=e4 v=65
275280 Off ch=1 n=e4 v=80
275280 On ch=1 n=f#4 v=65
275520 Off ch=1 n=f#4 v=80
275520 On ch=1 n=g4 v=65
275760 Off ch=1 n=g4 v=80
276000 On ch=1 n=g#4 v=65
276240 Off ch=1 n=g#4 v=80
276360 On ch=1 n=a3 v=65
276480 Off ch=1 n=a3 v=80
276480 On ch=1 n=a4 v=65
276720 Off ch=1 n=a4 v=80
276720 On ch=1 n=b4 v=65
276960 Off ch=1 n=b4 v=80
276960 On ch=1 n=c5 v=65
277200 Off ch=1 n=c5 v=80
277440 On ch=1 n=c#5 v=65
277680 Off ch=1 n=c#5 v=80
277800 On ch=1 n=d4 v=65
277920 Off ch=1 n=d4 v=80
277920 On ch=1 n=d5 v=65
278160 Off ch=1 n=d5 v=80
278160 On ch=1 n=e5 v=65
278400 Off ch=1 n=e5 v=80
278400 On ch=1 n=f5 v=65
278880 Off ch=1 n=f5 v=80
278880 On ch=1 n=f#5 v=65
279360 Off ch=1 n=f#5 v=80
279360 On ch=1 n=g5 v=102
279360 On ch=1 n=g4 v=102
279600 Off ch=1 n=g4 v=80
279600 On ch=1 n=a4 v=102
279840 Off ch=1 n=a4 v=80
279840 On ch=1 n=b4 v=102
280320 Off ch=1 n=g5 v=80
280320 Off ch=1 n=b4 v=80
280320 On ch=1 n=b4 v=102
280320 On ch=1 n=b3 v=102
280800 Off ch=1 n=b3 v=80
280800 Off ch=1 n=b4 v=80
280800 On ch=1 n=e5 v=102
280800 On ch=1 n=e4 v=102
281040 Off ch=1 n=e4 v=80
281040 On ch=1 n=f#4 v=102
281280 Off ch=1 n=f#4 v=80
281280 On ch=1 n=g4 v=102
281760 Off ch=1 n=e5 v=80
281760 Off ch=1 n=g4 v=80
281760 On ch=1 n=a#4 v=102
281760 On ch=1 n=a#3 v=102
282240 Off ch=1 n=a#3 v=80
282240 Off ch=1 n=a#4 v=80
282240 On ch=1 n=a4 v=106
282240 On ch=1 n=a3 v=106
282480 Off ch=1 n=a3 v=80
282480 On ch=1 n=b3 v=106
282720 Off ch=1 n=b3 v=80
282720 On ch=1 n=c#4 v=106
283200 Off ch=1 n=a4 v=80
283200 Off ch=1 n=c#4 v=80
283200 On ch=1 n=a4 v=106
283200 On ch=1 n=b3 v=106
283440 Off ch=1 n=b3 v=80
283440 On ch=1 n=c#4 v=106
283680 Off ch=1 n=c#4 v=80
283680 On ch=1 n=d4 v=110
284160 Off ch=1 n=a4 v=80
284160 Off ch=1 n=d4 v=80
284160 On ch=1 n=c#4 v=110
284160 On ch=1 n=a4 v=110
284400 Off ch=1 n=c#4 v=80
284400 On ch=1 n=d4 v=110
284640 Off ch=1 n=d4 v=80
284640 On ch=1 n=e4 v=110
285120 Off ch=1 n=a4 v=80
285120 Off ch=1 n=e4 v=80
285120 On ch=1 n=d5 v=102
285120 On ch=1 n=d4 v=102
285360 Off ch=1 n=d4 v=80
285360 On ch=1 n=e4 v=102
285600 Off ch=1 n=e4 v=80
285600 On ch=1 n=f#4 v=102
286080 Off ch=1 n=d5 v=80
286080 Off ch=1 n=f#4 v=80
286080 On ch=1 n=f#4 v=102
286080 On ch=1 n=f#3 v=102
286560 Off ch=1 n=f#3 v=80
286560 Off ch=1 n=f#4 v=80
286560 On ch=1 n=b4 v=102
286560 On ch=1 n=b3 v=102
286800 Off ch=1 n=b3 v=80
286800 On ch=1 n=c#4 v=102
287040 Off ch=1 n=c#4 v=80
287040 On ch=1 n=d4 v=102
287520 Off ch=1 n=b4 v=80
287520 Off ch=1 n=d4 v=80
287520 On ch=1 n=f4 v=102
287520 On ch=1 n=f3 v=102
288000 Off ch=1 n=f3 v=80
288000 Off ch=1 n=f4 v=80
288000 On ch=1 n=e4 v=106
288000 On ch=1 n=e3 v=106
288240 Off ch=1 n=e3 v=80
288240 On ch=1 n=f#3 v=106
288480 Off ch=1 n=f#3 v=80
288480 On ch=1 n=g#3 v=106
288960 Off ch=1 n=e4 v=80
288960 Off ch=1 n=g#3 v=80
288960 On ch=1 n=e4 v=106
288960 On ch=1 n=f#3 v=106
289200 Off ch=1 n=f#3 v=80
289200 On ch=1 n=g#3 v=106
289440 Off ch=1 n=g#3 v=80
289440 On ch=1 n=a3 v=110
289920 Off ch=1 n=e4 v=80
289920 Off ch=1 n=a3 v=80
289920 On ch=1 n=g#3 v=110
289920 On ch=1 n=e4 v=110
290160 Off ch=1 n=g#3 v=80
290160 On ch=1 n=a3 v=110
290400 Off ch=1 n=a3 v=80
290400 On ch=1 n=b3 v=110
290880 Off ch=1 n=e4 v=80
290880 Off ch=1 n=b3 v=80
290880 On ch=1 n=f#4 v=102
290880 On ch=1 n=a3 v=102
291120 Off ch=1 n=a3 v=80
291120 Off ch=1 n=f#4 v=80
291360 On ch=1 n=c4 v=102
291360 On ch=1 n=c3 v=102
291600 Off ch=1 n=c3 v=80
291600 Off ch=1 n=c4 v=80
291840 On ch=1 n=b3 v=102
291840 On ch=1 n=b2 v=102
292080 Off ch=1 n=b2 v=80
292080 Off ch=1 n=b3 v=80
292320 On ch=1 n=a#3 v=102
292320 On ch=1 n=a#2 v=102
292560 Off ch=1 n=a#2 v=80
292560 Off ch=1 n=a#3 v=80
292800 On ch=1 n=a2 v=102
292800 On ch=1 n=a3 v=102
293040 Off ch=1 n=a3 v=80
293040 Off ch=1 n=a2 v=80
293760 On ch=1 n=a4 v=102
293760 On ch=1 n=a3 v=102
294000 Off ch=1 n=a3 v=80
294000 Off ch=1 n=a4 v=80
294600 On ch=1 n=d2 v=78
294720 Off ch=1 n=d2 v=80
294720 On ch=1 n=d3 v=78
294960 Off ch=1 n=d3 v=80
294960 On ch=1 n=e3 v=78
295200 Off ch=1 n=e3 v=80
295200 On ch=1 n=f3 v=78
295440 Off ch=1 n=f3 v=80
295680 On ch=1 n=f#3 v=78
295920 Off ch=1 n=f#3 v=80
296040 On ch=1 n=g2 v=78
296160 Off ch=1 n=g2 v=80
296160 On ch=1 n=g3 v=78
296400 Off ch=1 n=g3 v=80
296400 On ch=1 n=a3 v=78
296640 Off ch=1 n=a3 v=80
296640 On ch=1 n=a#3 v=78
297120 On ch=1 n=e4 v=78
297480 On ch=1 n=f#2 v=86
297600 Off ch=1 n=f#2 v=80
297600 Off ch=1 n=e4 v=80
297600 Off ch=1 n=a#3 v=80
297600 On ch=1 n=f#3 v=86
297840 Off ch=1 n=f#3 v=80
297840 On ch=1 n=g#3 v=86
298080 Off ch=1 n=g#3 v=80
298080 On ch=1 n=a3 v=86
298560 On ch=1 n=f#4 v=86
298920 On ch=1 n=b2 v=94
299040 Off ch=1 n=b2 v=80
299040 Off ch=1 n=f#4 v=80
299040 Off ch=1 n=a3 v=80
299040 On ch=1 n=b3 v=94
299280 Off ch=1 n=b3 v=80
299280 On ch=1 n=c#4 v=94
299520 Off ch=1 n=c#4 v=80
299520 On ch=1 n=d4 v=94
300000 On ch=1 n=f4 v=94
300480 Off ch=1 n=f4 v=80
300480 Off ch=1 n=d4 v=80
300480 On ch=1 n=c#3 v=84
300480 On ch=1 n=c#4 v=84
300720 Off ch=1 n=c#4 v=80
300720 Off ch=1 n=c#3 v=80
300720 On ch=1 n=a4 v=84
300960 Off ch=1 n=a4 v=80
301440 On ch=1 n=c#3 v=84
301440 On ch=1 n=c#4 v=84
301680 Off ch=1 n=c#4 v=80
301680 Off ch=1 n=c#3 v=80
301920 On ch=1 n=d4 v=84
301920 On ch=1 n=d3 v=84
302160 Off ch=1 n=d3 v=80
302160 Off ch=1 n=d4 v=80
302160 On ch=1 n=a4 v=84
302400 Off ch=1 n=a4 v=80
302880 On ch=1 n=a#3 v=84
302880 On ch=1 n=a#2 v=84
303120 Off ch=1 n=a#2 v=80
303120 Off ch=1 n=a#3 v=80
303360 On ch=1 n=b2 v=84
303360 On ch=1 n=b3 v=84
303600 Off ch=1 n=b3 v=80
303600 Off ch=1 n=b2 v=80
303600 On ch=1 n=f#4 v=84
303840 Off ch=1 n=f#4 v=80
304320 On ch=1 n=f#3 v=84
304320 On ch=1 n=f#2 v=84
304560 Off ch=1 n=f#2 v=80
304560 Off ch=1 n=f#3 v=80
304800 On ch=1 n=g3 v=84
304800 On ch=1 n=g2 v=84
305040 Off ch=1 n=g2 v=80
305040 Off ch=1 n=g3 v=80
305040 On ch=1 n=d4 v=84
305280 Off ch=1 n=d4 v=80
305760 On ch=1 n=a2 v=84
305760 On ch=1 n=a3 v=84
306120 Off ch=1 n=a3 v=80
306120 Off ch=1 n=a2 v=80
306120 On ch=1 n=d2 v=78
306240 Off ch=1 n=d2 v=80
306240 On ch=1 n=d3 v=78
306480 Off ch=1 n=d3 v=80
306480 On ch=1 n=e3 v=78
306720 Off ch=1 n=e3 v=80
306720 On ch=1 n=f3 v=78
306960 Off ch=1 n=f3 v=80
307200 On ch=1 n=f#3 v=78
307440 Off ch=1 n=f#3 v=80
307560 On ch=1 n=g2 v=78
307680 Off ch=1 n=g2 v=80
307680 On ch=1 n=g3 v=78
307920 Off ch=1 n=g3 v=80
307920 On ch=1 n=a3 v=78
308160 Off ch=1 n=a3 v=80
308160 On ch=1 n=a#3 v=78
308640 On ch=1 n=e4 v=78
309000 On ch=1 n=f#2 v=86
309120 Off ch=1 n=f#2 v=80
309120 Off ch=1 n=e4 v=80
309120 Off ch=1 n=a#3 v=80
309120 On ch=1 n=f#3 v=86
309360 Off ch=1 n=f#3 v=80
309360 On ch=1 n=g#3 v=86
309600 Off ch=1 n=g#3 v=80
309600 On ch=1 n=a3 v=86
310080 On ch=1 n=f#4 v=86
310440 On ch=1 n=b2 v=94
310560 Off ch=1 n=b2 v=80
310560 Off ch=1 n=f#4 v=80
310560 Off ch=1 n=a3 v=80
310560 On ch=1 n=b3 v=94
310800 Off ch=1 n=b3 v=80
310800 On ch=1 n=c#4 v=94
311040 Off ch=1 n=c#4 v=80
311040 On ch=1 n=d4 v=94
311520 On ch=1 n=f4 v=94
312000 Off ch=1 n=f4 v=80
312000 Off ch=1 n=d4 v=80
312000 On ch=1 n=c#4 v=84
312000 On ch=1 n=c#3 v=84
312240 Off ch=1 n=c#3 v=80
312240 Off ch=1 n=c#4 v=80
312240 On ch=1 n=a4 v=84
312480 Off ch=1 n=a4 v=80
312960 On ch=1 n=c#4 v=84
312960 On ch=1 n=c#3 v=84
313200 Off ch=1 n=c#3 v=80
313200 Off ch=1 n=c#4 v=80
313440 On ch=1 n=d4 v=84
313440 On ch=1 n=d3 v=84
313680 Off ch=1 n=d3 v=80
313680 Off ch=1 n=d4 v=80
313680 On ch=1 n=a4 v=84
313920 Off ch=1 n=a4 v=80
314400 On ch=1 n=a#3 v=84
314400 On ch=1 n=a#2 v=84
314640 Off ch=1 n=a#2 v=80
314640 Off ch=1 n=a#3 v=80
314880 On ch=1 n=b2 v=84
314880 On ch=1 n=b3 v=84
315120 Off ch=1 n=b3 v=80
315120 Off ch=1 n=b2 v=80
315120 On ch=1 n=f#4 v=84
315360 Off ch=1 n=f#4 v=80
315840 On ch=1 n=f#3 v=84
315840 On ch=1 n=f#2 v=84
316080 Off ch=1 n=f#2 v=80
316080 Off ch=1 n=f#3 v=80
316320 On ch=1 n=g3 v=84
316320 On ch=1 n=g2 v=84
316560 Off ch=1 n=g2 v=80
316560 Off ch=1 n=g3 v=80
316560 On ch=1 n=d4 v=84
316800 Off ch=1 n=d4 v=80
317280 On ch=1 n=a2 v=84
317280 On ch=1 n=a3 v=84
317640 Off ch=1 n=a3 v=80
317640 Off ch=1 n=a2 v=80
317640 On ch=1 n=d2 v=78
317760 Off ch=1 n=d2 v=80
317760 On ch=1 n=d3 v=78
318000 Off ch=1 n=d3 v=80
318000 On ch=1 n=e3 v=78
318240 Off ch=1 n=e3 v=80
318240 On ch=1 n=f3 v=78
318480 Off ch=1 n=f3 v=80
318720 On ch=1 n=f#3 v=78
318960 Off ch=1 n=f#3 v=80
319080 On ch=1 n=g2 v=78
319200 Off ch=1 n=g2 v=80
319200 On ch=1 n=g3 v=78
319440 Off ch=1 n=g3 v=80
319440 On ch=1 n=a3 v=78
319680 Off ch=1 n=a3 v=80
319680 On ch=1 n=a#3 v=93
320160 On ch=1 n=e4 v=78
320520 On ch=1 n=d2 v=78
320640 Off ch=1 n=d2 v=80
320640 Off ch=1 n=e4 v=80
320640 Off ch=1 n=a#3 v=80
320640 On ch=1 n=d3 v=78
320880 Off ch=1 n=d3 v=80
320880 On ch=1 n=e3 v=78
321120 Off ch=1 n=e3 v=80
321120 On ch=1 n=f3 v=78
321360 Off ch=1 n=f3 v=80
321600 On ch=1 n=f#3 v=78
321840 Off ch=1 n=f#3 v=80
321960 On ch=1 n=g2 v=78
322080 Off ch=1 n=g2 v=80
322080 On ch=1 n=g3 v=78
322320 Off ch=1 n=g3 v=80
322320 On ch=1 n=a3 v=78
322560 Off ch=1 n=a3 v=80
322560 On ch=1 n=a#3 v=93
323040 On ch=1 n=e4 v=78
323520 Off ch=1 n=e4 v=80
323520 Off ch=1 n=a#3 v=80
323520 On ch=1 n=d3 v=102
324000 Off ch=1 n=d3 v=80
324000 On ch=1 n=a#3 v=102
324000 On ch=1 n=e4 v=102
324480 Off ch=1 n=e4 v=80
324480 Off ch=1 n=a#3 v=80
324480 On ch=1 n=d4 v=102
324480 On ch=1 n=a3 v=102
324960 Off ch=1 n=a3 v=80
324960 Off ch=1 n=d4 v=80
324960 On ch=1 n=g4 v=108
324960 On ch=1 n=c#4 v=108
325440 Off ch=1 n=c#4 v=80
325440 Off ch=1 n=g4 v=80
325440 On ch=1 n=d4 v=108
325440 On ch=1 n=f#4 v=108
325920 Off ch=1 n=f#4 v=80
325920 Off ch=1 n=d4 v=80
325920 On ch=1 n=e4 v=108
325920 On ch=1 n=a#4 v=108
326400 Off ch=1 n=a#4 v=80
326400 Off ch=1 n=e4 v=80
326400 On ch=1 n=f#4 v=114
326400 On ch=1 n=a4 v=114
326880 Off ch=1 n=a4 v=80
326880 Off ch=1 n=f#4 v=80
326880 On ch=1 n=g4 v=114
326880 On ch=1 n=c#5 v=114
327360 Off ch=1 n=c#5 v=80
327360 Off ch=1 n=g4 v=80
327360 On ch=1 n=f#4 v=114
327360 On ch=1 n=d5 v=114
327840 Off ch=1 n=d5 v=80
327840 Off ch=1 n=f#4 v=80
327840 On ch=1 n=a#4 v=120
327840 On ch=1 n=e5 v=120
328320 Off ch=1 n=e5 v=80
328320 Off ch=1 n=a#4 v=80
328320 On ch=1 n=d5 v=120
328320 On ch=1 n=a4 v=120
328800 Off ch=1 n=a4 v=80
328800 Off ch=1 n=d5 v=80
328800 On ch=1 n=c#5 v=120
328800 On ch=1 n=g5 v=120
329280 Off ch=1 n=g5 v=80
329280 Off ch=1 n=c#5 v=80
329280 On ch=1 n=f#5 v=126
329280 On ch=1 n=d5 v=126
329760 Off ch=1 n=d5 v=80
329760 Off ch=1 n=f#5 v=80
330720 On ch=1 n=f#5 v=126
330720 On ch=1 n=a4 v=126
330720 On ch=1 n=d4 v=126
331200 Off ch=1 n=d4 v=80
331200 Off ch=1 n=a4 v=80
331200 Off ch=1 n=f#5 v=80
332160 On ch=1 n=d3 v=126
332160 On ch=1 n=d2 v=126
336480 Off ch=1 n=d2 v=80
336480 Off ch=1 n=d3 v=80
336480 Meta TrkEnd
TrkEnd
MTrk
0 Meta TrkName "Pedal"
0 Meta 0x21 00
0 Meta 0x20 00
0 Par ch=1 c=10 v=64
0 PrCh ch=1 p=0
3360 Par ch=1 c=64 v=127
4280 Par ch=1 c=64 v=0
4800 Par ch=1 c=64 v=127
5720 Par ch=1 c=64 v=0
9120 Par ch=1 c=64 v=127
10040 Par ch=1 c=64 v=0
10560 Par ch=1 c=64 v=127
11480 Par ch=1 c=64 v=0
14880 Par ch=1 c=64 v=127
15800 Par ch=1 c=64 v=0
16320 Par ch=1 c=64 v=127
17240 Par ch=1 c=64 v=0
17760 Par ch=1 c=64 v=127
18680 Par ch=1 c=64 v=0
23040 Par ch=1 c=64 v=127
24440 Par ch=1 c=64 v=0
36960 Par ch=1 c=64 v=127
37880 Par ch=1 c=64 v=0
37920 Par ch=1 c=64 v=127
38840 Par ch=1 c=64 v=0
38880 Par ch=1 c=64 v=127
39800 Par ch=1 c=64 v=0
39840 Par ch=1 c=64 v=127
40760 Par ch=1 c=64 v=0
41760 Par ch=1 c=64 v=127
42680 Par ch=1 c=64 v=0
42720 Par ch=1 c=64 v=127
43640 Par ch=1 c=64 v=0
43680 Par ch=1 c=64 v=127
44600 Par ch=1 c=64 v=0
44640 Par ch=1 c=64 v=127
45560 Par ch=1 c=64 v=0
45600 Par ch=1 c=64 v=127
46520 Par ch=1 c=64 v=0
49440 Par ch=1 c=64 v=127
50360 Par ch=1 c=64 v=0
50880 Par ch=1 c=64 v=127
51800 Par ch=1 c=64 v=0
55200 Par ch=1 c=64 v=127
56120 Par ch=1 c=64 v=0
56640 Par ch=1 c=64 v=127
57560 Par ch=1 c=64 v=0
60960 Par ch=1 c=64 v=127
61880 Par ch=1 c=64 v=0
62400 Par ch=1 c=64 v=127
63320 Par ch=1 c=64 v=0
63840 Par ch=1 c=64 v=127
64760 Par ch=1 c=64 v=0
72000 Par ch=1 c=64 v=127
74840 Par ch=1 c=64 v=0
77760 Par ch=1 c=64 v=127
80600 Par ch=1 c=64 v=0
83520 Par ch=1 c=64 v=127
86360 Par ch=1 c=64 v=0
86400 Par ch=1 c=64 v=127
89240 Par ch=1 c=64 v=0
92160 Par ch=1 c=64 v=127
95000 Par ch=1 c=64 v=0
95040 Par ch=1 c=64 v=127
97880 Par ch=1 c=64 v=0
100800 Par ch=1 c=64 v=127
103640 Par ch=1 c=64 v=0
106560 Par ch=1 c=64 v=127
109400 Par ch=1 c=64 v=0
109440 Par ch=1 c=64 v=127
112280 Par ch=1 c=64 v=0
115200 Par ch=1 c=64 v=127
118040 Par ch=1 c=64 v=0
118080 Par ch=1 c=64 v=127
120920 Par ch=1 c=64 v=0
120960 Par ch=1 c=64 v=127
123800 Par ch=1 c=64 v=0
126720 Par ch=1 c=64 v=127
129560 Par ch=1 c=64 v=0
148800 Par ch=1 c=64 v=127
149720 Par ch=1 c=64 v=0
150240 Par ch=1 c=64 v=127
151160 Par ch=1 c=64 v=0
154560 Par ch=1 c=64 v=127
155480 Par ch=1 c=64 v=0
156000 Par ch=1 c=64 v=127
156920 Par ch=1 c=64 v=0
160320 Par ch=1 c=64 v=127
161240 Par ch=1 c=64 v=0
161760 Par ch=1 c=64 v=127
162680 Par ch=1 c=64 v=0
163200 Par ch=1 c=64 v=127
164120 Par ch=1 c=64 v=0
164640 Par ch=1 c=64 v=127
165560 Par ch=1 c=64 v=0
166080 Par ch=1 c=64 v=127
167000 Par ch=1 c=64 v=0
168480 Par ch=1 c=64 v=127
169880 Par ch=1 c=64 v=0
182400 Par ch=1 c=64 v=127
183320 Par ch=1 c=64 v=0
183360 Par ch=1 c=64 v=127
184280 Par ch=1 c=64 v=0
184320 Par ch=1 c=64 v=127
185240 Par ch=1 c=64 v=0
185280 Par ch=1 c=64 v=127
186200 Par ch=1 c=64 v=0
187200 Par ch=1 c=64 v=127
188120 Par ch=1 c=64 v=0
188160 Par ch=1 c=64 v=127
189080 Par ch=1 c=64 v=0
189120 Par ch=1 c=64 v=127
190040 Par ch=1 c=64 v=0
190080 Par ch=1 c=64 v=127
191000 Par ch=1 c=64 v=0
191040 Par ch=1 c=64 v=127
191960 Par ch=1 c=64 v=0
194880 Par ch=1 c=64 v=127
195800 Par ch=1 c=64 v=0
196320 Par ch=1 c=64 v=127
197240 Par ch=1 c=64 v=0
200640 Par ch=1 c=64 v=127
201560 Par ch=1 c=64 v=0
202080 Par ch=1 c=64 v=127
203000 Par ch=1 c=64 v=0
206400 Par ch=1 c=64 v=127
207320 Par ch=1 c=64 v=0
207840 Par ch=1 c=64 v=127
208760 Par ch=1 c=64 v=0
209280 Par ch=1 c=64 v=127
210200 Par ch=1 c=64 v=0
210720 Par ch=1 c=64 v=127
211640 Par ch=1 c=64 v=0
212160 Par ch=1 c=64 v=127
213080 Par ch=1 c=64 v=0
250560 Par ch=1 c=64 v=127
251960 Par ch=1 c=64 v=0
252000 Par ch=1 c=64 v=127
253400 Par ch=1 c=64 v=0
253440 Par ch=1 c=64 v=127
254840 Par ch=1 c=64 v=0
269760 Par ch=1 c=64 v=127
270680 Par ch=1 c=64 v=0
271200 Par ch=1 c=64 v=127
272120 Par ch=1 c=64 v=0
272640 Par ch=1 c=64 v=127
273560 Par ch=1 c=64 v=0
274080 Par ch=1 c=64 v=127
275000 Par ch=1 c=64 v=0
276960 Par ch=1 c=64 v=127
277880 Par ch=1 c=64 v=0
299520 Par ch=1 c=64 v=127
300920 Par ch=1 c=64 v=0
311040 Par ch=1 c=64 v=127
312440 Par ch=1 c=64 v=0
312440 Meta TrkEnd
TrkEnd
