MFile 1 4 480
MTrk
0 Tempo 594059
0 TimeSig 3/4 24 8
0 KeySig 2 minor
1440 Tempo 705882
1680 Tempo 550458
2400 Tempo 517241
4320 Tempo 495867
5280 Tempo 517241
10080 Tempo 566037
10800 Tempo 517241
11520 Tempo 495867
12000 Tempo 476190
12480 Tempo 566037
12960 Tempo 625000
13200 Tempo 517241
16560 Tempo 550458
17280 Tempo 594059
17760 Tempo 659340
18000 Tempo 594059
18720 Tempo 540540
18960 Tempo 495867
19200 Tempo 540540
20160 Tempo 495867
20640 Tempo 540540
21600 Tempo 495867
22080 Tempo 540540
23040 Tempo 495867
23520 Tempo 540540
25920 Tempo 495867
26400 Tempo 540540
27360 Tempo 566037
28800 Tempo 625000
29520 Tempo 566037
30480 Tempo 550458
31200 Tempo 517241
33120 Tempo 495867
34080 Tempo 517241
38880 Tempo 566037
39600 Tempo 517241
40320 Tempo 495867
40800 Tempo 476190
41280 Tempo 566037
41760 Tempo 625000
42000 Tempo 517241
45360 Tempo 550458
46080 Tempo 594059
46560 Tempo 659340
47040 Tempo 909090
47280 Tempo 2307692
47520 Tempo 909090
48000 Tempo 740740
48480 Tempo 625000
49920 Tempo 909090
50640 Tempo 789473
51360 Tempo 659340
52800 Tempo 1071428
53280 Tempo 845070
53760 Tempo 659340
55680 Tempo 909090
56160 Tempo 789473
56640 Tempo 697674
57120 Tempo 625000
58080 Tempo 789473
58320 Tempo 983606
59040 Tempo 909090
59520 Tempo 740740
60000 Tempo 625000
61440 Tempo 983606
62160 Tempo 789473
62880 Tempo 659340
64320 Tempo 1071428
64800 Tempo 845070
65280 Tempo 659340
66480 Tempo 625000
67200 Tempo 909090
67680 Tempo 789473
68160 Tempo 697674
68640 Tempo 625000
69600 Tempo 789473
69840 Tempo 983606
70320 Tempo 1176470
70560 Tempo 697674
71040 Tempo 625000
71520 Tempo 517241
72960 Tempo 697674
73440 Tempo 476190
73920 Tempo 697674
74160 Tempo 540540
75120 Tempo 476190
75840 Tempo 697674
76080 Tempo 566037
76800 Tempo 659340
77280 Tempo 517241
78000 Tempo 594059
78720 Tempo 909090
79200 Tempo 740740
79680 Tempo 659340
80160 Tempo 566037
80880 Tempo 594059
81600 Tempo 789473
82080 Tempo 909090
82560 Tempo 625000
83520 Tempo 983606
84000 Tempo 566037
84960 Tempo 845070
85440 Tempo 789473
86400 Tempo 909090
87360 Tempo 1176470
87600 Tempo 1463414
87840 Tempo 909090
88320 Tempo 740740
88800 Tempo 625000
90240 Tempo 909090
90960 Tempo 789473
91680 Tempo 659340
93120 Tempo 1071428
93600 Tempo 845070
94080 Tempo 659340
95040 Tempo 625000
96480 Tempo 789473
96960 Tempo 697674
97440 Tempo 625000
98400 Tempo 789473
98640 Tempo 983606
99120 Tempo 1176470
99360 Tempo 697674
99840 Tempo 625000
100320 Tempo 517241
101760 Tempo 697674
102240 Tempo 476190
102720 Tempo 697674
102960 Tempo 540540
103920 Tempo 476190
104640 Tempo 697674
104880 Tempo 566037
105600 Tempo 659340
106080 Tempo 517241
106800 Tempo 594059
107520 Tempo 909090
108000 Tempo 740740
108480 Tempo 659340
108960 Tempo 566037
109680 Tempo 594059
110400 Tempo 789473
110880 Tempo 909090
111360 Tempo 625000
112320 Tempo 983606
112800 Tempo 566037
113760 Tempo 845070
114240 Tempo 789473
115200 Tempo 909090
116160 Tempo 1176470
116400 Tempo 1463414
116640 Tempo 909090
117120 Tempo 740740
117600 Tempo 625000
119040 Tempo 909090
119760 Tempo 789473
120480 Tempo 659340
121920 Tempo 1071428
122400 Tempo 845070
122880 Tempo 659340
123840 Tempo 625000
125280 Tempo 789473
125760 Tempo 697674
126240 Tempo 625000
127200 Tempo 789473
127440 Tempo 594059
128400 Tempo 517241
133920 Tempo 495867
135360 Tempo 476190
137760 Tempo 517241
139680 Tempo 495867
141120 Tempo 476190
143520 Tempo 566037
143760 Tempo 517241
144720 Tempo 517241
144960 Tempo 517241
145680 Tempo 909090
146160 Tempo 517241
147120 Tempo 740740
147600 Tempo 566037
148560 Tempo 697674
149040 Tempo 566037
149760 Tempo 789473
150000 Tempo 550458
150720 Tempo 517241
152640 Tempo 495867
153600 Tempo 517241
158400 Tempo 566037
159120 Tempo 517241
159840 Tempo 495867
160320 Tempo 476190
160800 Tempo 566037
161280 Tempo 625000
161520 Tempo 517241
164160 Tempo 545454
164880 Tempo 576923
165600 Tempo 625000
166080 Tempo 697674
166560 Tempo 1666666
166800 Tempo 2307692
167040 Tempo 1176470
167280 Tempo 697674
168240 Tempo 909090
168480 Tempo 594059
169920 Tempo 659340
171360 Tempo 566037
172800 Tempo 625000
174240 Tempo 659340
175200 Tempo 697674
175680 Tempo 659340
177120 Tempo 697674
178320 Tempo 1935483
178560 Tempo 697674
180000 Tempo 566037
181440 Tempo 659340
182880 Tempo 566037
184320 Tempo 594059
185760 Tempo 625000
186720 Tempo 1071428
186960 Tempo 1666666
187200 Tempo 1071428
187920 Tempo 789473
188160 Tempo 697674
188640 Tempo 1071428
188880 Tempo 625000
189360 Tempo 983606
189600 Tempo 1304347
190080 Tempo 909090
190320 Tempo 697674
191520 Tempo 594059
197280 Tempo 659340
198240 Tempo 697674
198720 Tempo 659340
199920 Tempo 789473
200160 Tempo 1071428
201840 Tempo 697674
202320 Tempo 594059
203040 Tempo 566037
203760 Tempo 540540
205200 Tempo 517241
205920 Tempo 659340
208080 Tempo 566037
208800 Tempo 540540
209520 Tempo 517241
211680 Tempo 740740
213120 Tempo 659340
213360 Tempo 594059
214080 Tempo 566037
216960 Tempo 540540
224640 Tempo 517241
228480 Tempo 566037
229680 Tempo 625000
230640 Tempo 550458
231360 Tempo 517241
233280 Tempo 495867
234240 Tempo 517241
239040 Tempo 566037
239760 Tempo 517241
240480 Tempo 495867
240960 Tempo 476190
241440 Tempo 566037
241920 Tempo 625000
242160 Tempo 517241
244800 Tempo 545454
245520 Tempo 576923
246240 Tempo 625000
246720 Tempo 697674
247200 Tempo 1666666
247440 Tempo 2307692
247680 Tempo 480000
296880 Tempo 517241
302400 Tempo 495867
303840 Tempo 476190
306240 Tempo 517241
308160 Tempo 495867
309600 Tempo 476190
312000 Tempo 566037
312240 Tempo 517241
313200 Tempo 517241
313440 Tempo 517241
314160 Tempo 909090
314640 Tempo 517241
315600 Tempo 740740
316080 Tempo 566037
317040 Tempo 697674
317520 Tempo 566037
318240 Tempo 697674
318480 Tempo 540540
319200 Tempo 517241
321120 Tempo 495867
322080 Tempo 517241
326880 Tempo 566037
327600 Tempo 517241
328320 Tempo 495867
329280 Tempo 566037
329760 Tempo 625000
330000 Tempo 517241
332640 Tempo 545454
333360 Tempo 576923
334080 Tempo 625000
334560 Tempo 697674
335040 Tempo 1666666
335280 Tempo 2307692
335520 Tempo 845070
336000 Tempo 625000
336480 Tempo 566037
337680 Tempo 789473
337920 Tempo 1071428
338400 Tempo 740740
338880 Tempo 659340
339840 Tempo 909090
340320 Tempo 789473
340800 Tempo 909090
341520 Tempo 740740
341760 Tempo 625000
342240 Tempo 566037
343440 Tempo 983606
343920 Tempo 1176470
344160 Tempo 740740
344640 Tempo 659340
345600 Tempo 845070
346080 Tempo 789473
346560 Tempo 909090
346800 Tempo 1176470
347040 Tempo 909090
347520 Tempo 625000
348000 Tempo 566037
349200 Tempo 697674
349440 Tempo 1071428
349920 Tempo 740740
350400 Tempo 659340
351360 Tempo 845070
351840 Tempo 789473
352320 Tempo 909090
353040 Tempo 740740
353280 Tempo 625000
353760 Tempo 566037
354960 Tempo 740740
355200 Tempo 1176470
355680 Tempo 740740
356160 Tempo 659340
357120 Tempo 845070
357600 Tempo 789473
358080 Tempo 1176470
358560 Tempo 697674
359040 Tempo 625000
359280 Tempo 566037
360240 Tempo 540540
361440 Tempo 458015
361920 Tempo 697674
362160 Tempo 540540
363120 Tempo 495867
363840 Tempo 789473
364560 Tempo 566037
365040 Tempo 625000
365520 Tempo 566037
366480 Tempo 659340
367440 Tempo 566037
367920 Tempo 697674
368880 Tempo 625000
369360 Tempo 845070
369840 Tempo 1666666
370080 Tempo 909090
370320 Tempo 740740
370560 Tempo 625000
371040 Tempo 566037
372240 Tempo 789473
372480 Tempo 1071428
372960 Tempo 740740
373440 Tempo 659340
374400 Tempo 845070
374880 Tempo 789473
375360 Tempo 1176470
376080 Tempo 740740
376320 Tempo 625000
376560 Tempo 697674
377040 Tempo 789473
377520 Tempo 909090
378000 Tempo 1071428
378240 Tempo 2307692
378480 Tempo 1666666
378720 Tempo 740740
380160 Tempo 697674
382320 Tempo 845070
382800 Tempo 909090
383040 Tempo 625000
383760 Tempo 789473
384240 Tempo 983606
384480 Tempo 697674
386880 Tempo 789473
387360 Tempo 625000
388080 Tempo 789473
388800 Tempo 625000
389520 Tempo 845070
390240 Tempo 740740
391680 Tempo 789473
393120 Tempo 659340
394080 Tempo 740740
394560 Tempo 789473
395040 Tempo 983606
395520 Tempo 1304347
395760 Tempo 1935483
396000 Tempo 659340
397440 Tempo 594059
398880 Tempo 625000
400320 Tempo 566037
401760 Tempo 625000
403200 Tempo 659340
404160 Tempo 697674
404640 Tempo 659340
406080 Tempo 789473
407520 Tempo 845070
409680 Tempo 909090
410400 Tempo 845070
411120 Tempo 983606
411840 Tempo 845070
412560 Tempo 1071428
412800 Tempo 1304347
413040 Tempo 2307692
413220 Tempo 659340
413760 Tempo 495867
414240 Tempo 495867
414720 Tempo 476190
415680 Tempo 540540
416160 Tempo 495867
417600 Tempo 476190
418560 Tempo 625000
419040 Tempo 517241
421440 Tempo 697674
421920 Tempo 566037
422400 Tempo 625000
423120 Tempo 659340
424080 Tempo 789473
425520 Tempo 845070
426240 Tempo 983606
426960 Tempo 1071428
427680 Tempo 1176470
429120 Tempo 740740
430080 Tempo 1176470
430080 Meta TrkEnd
TrkEnd
MTrk
0 Meta TrkName "Piano R Hand"
0 Meta 0x21 00
0 Meta 0x20 00
0 Par ch=1 c=10 v=64
0 PrCh ch=1 p=0
720 On ch=1 n=a4 v=102
780 Off ch=1 n=a4 v=80
840 On ch=1 n=a4 v=102
900 Off ch=1 n=a4 v=80
960 On ch=1 n=a#4 v=102
1080 Off ch=1 n=a#4 v=80
1200 On ch=1 n=g#4 v=102
1320 Off ch=1 n=g#4 v=80
1440 On ch=1 n=a4 v=102
1650 Off ch=1 n=a4 v=80
1680 On ch=1 n=a5 v=102
1680 On ch=1 n=e6 v=102
1680 On ch=1 n=a6 v=102
1800 Off ch=1 n=a6 v=80
1800 Off ch=1 n=e6 v=80
1800 Off ch=1 n=a5 v=80
1920 On ch=1 n=d6 v=78
1920 On ch=1 n=a5 v=78
2040 Off ch=1 n=a5 v=80
2040 Off ch=1 n=d6 v=80
2160 On ch=1 n=e6 v=78
2160 On ch=1 n=b5 v=78
2280 Off ch=1 n=b5 v=80
2280 Off ch=1 n=e6 v=80
2400 On ch=1 n=a5 v=120
2400 On ch=1 n=g5 v=120
2640 Off ch=1 n=a5 v=80
2640 On ch=1 n=b5 v=78
2760 Off ch=1 n=b5 v=80
2760 On ch=1 n=c#6 v=78
2880 Off ch=1 n=g5 v=80
2880 Off ch=1 n=c#6 v=80
2880 On ch=1 n=d6 v=78
2880 On ch=1 n=f#5 v=78
3120 Off ch=1 n=f#5 v=80
3120 Off ch=1 n=d6 v=80
3120 On ch=1 n=f#5 v=84
3600 Off ch=1 n=f#5 v=80
3600 On ch=1 n=f#6 v=120
3600 On ch=1 n=f#5 v=120
4080 Off ch=1 n=f#5 v=80
4080 Off ch=1 n=f#6 v=80
4080 On ch=1 n=e6 v=96
4080 On ch=1 n=f#5 v=96
4320 Off ch=1 n=f#5 v=80
4320 Off ch=1 n=e6 v=80
4320 On ch=1 n=d6 v=102
4440 Off ch=1 n=d6 v=80
4440 On ch=1 n=e6 v=102
4560 Off ch=1 n=e6 v=80
4560 On ch=1 n=d6 v=102
4680 Off ch=1 n=d6 v=80
4680 On ch=1 n=c#6 v=102
4800 Off ch=1 n=c#6 v=80
4800 On ch=1 n=b5 v=102
4920 Off ch=1 n=b5 v=80
4920 On ch=1 n=c#6 v=102
5040 Off ch=1 n=c#6 v=80
5040 On ch=1 n=b5 v=102
5160 Off ch=1 n=b5 v=80
5160 On ch=1 n=a5 v=102
5280 Off ch=1 n=a5 v=80
5280 On ch=1 n=g#5 v=102
5520 Off ch=1 n=g#5 v=80
5520 On ch=1 n=g#5 v=102
5520 On ch=1 n=e6 v=102
5640 Off ch=1 n=e6 v=80
5640 Off ch=1 n=g#5 v=80
5760 On ch=1 n=a5 v=102
5760 On ch=1 n=g5 v=102
5880 Off ch=1 n=g5 v=80
5880 Off ch=1 n=a5 v=80
6000 On ch=1 n=a4 v=102
6060 Off ch=1 n=a4 v=80
6120 On ch=1 n=a4 v=102
6180 Off ch=1 n=a4 v=80
6240 On ch=1 n=a#4 v=102
6360 Off ch=1 n=a#4 v=80
6480 On ch=1 n=g#4 v=102
6600 Off ch=1 n=g#4 v=80
6720 On ch=1 n=a4 v=102
6840 Off ch=1 n=a4 v=80
6960 On ch=1 n=a5 v=102
6960 On ch=1 n=e6 v=102
6960 On ch=1 n=a6 v=102
7080 Off ch=1 n=a6 v=80
7080 Off ch=1 n=e6 v=80
7080 Off ch=1 n=a5 v=80
7200 On ch=1 n=d6 v=78
7200 On ch=1 n=a5 v=78
7320 Off ch=1 n=a5 v=80
7320 Off ch=1 n=d6 v=80
7440 On ch=1 n=e6 v=78
7440 On ch=1 n=b5 v=78
7560 Off ch=1 n=b5 v=80
7560 Off ch=1 n=e6 v=80
7680 On ch=1 n=g5 v=120
7680 On ch=1 n=a5 v=120
7920 Off ch=1 n=a5 v=80
7920 On ch=1 n=b5 v=78
8040 Off ch=1 n=b5 v=80
8040 On ch=1 n=c#6 v=78
8160 Off ch=1 n=g5 v=80
8160 Off ch=1 n=c#6 v=80
8160 On ch=1 n=d6 v=78
8160 On ch=1 n=f#5 v=78
8280 Off ch=1 n=f#5 v=80
8280 Off ch=1 n=d6 v=80
8400 On ch=1 n=g#5 v=78
8400 On ch=1 n=d5 v=78
8580 Off ch=1 n=d5 v=80
8580 Off ch=1 n=g#5 v=80
8640 On ch=1 n=a5 v=78
8640 On ch=1 n=c#5 v=78
8820 Off ch=1 n=c#5 v=80
8820 Off ch=1 n=a5 v=80
8880 On ch=1 n=g5 v=78
8880 On ch=1 n=e5 v=78
8880 On ch=1 n=a4 v=78
9060 Off ch=1 n=a4 v=80
9060 Off ch=1 n=e5 v=80
9060 Off ch=1 n=g5 v=80
9120 On ch=1 n=f#5 v=78
9120 On ch=1 n=d5 v=78
9120 On ch=1 n=a4 v=78
9300 Off ch=1 n=a4 v=80
9300 Off ch=1 n=d5 v=80
9300 Off ch=1 n=f#5 v=80
9360 On ch=1 n=f5 v=81
9360 On ch=1 n=d5 v=81
9360 On ch=1 n=b4 v=81
9540 Off ch=1 n=b4 v=80
9540 Off ch=1 n=d5 v=80
9540 Off ch=1 n=f5 v=80
9600 On ch=1 n=e5 v=84
9600 On ch=1 n=c#5 v=84
9780 Off ch=1 n=c#5 v=80
9780 Off ch=1 n=e5 v=80
9840 On ch=1 n=a5 v=87
9840 On ch=1 n=e5 v=87
9840 On ch=1 n=c5 v=87
10020 Off ch=1 n=c5 v=80
10020 Off ch=1 n=e5 v=80
10020 Off ch=1 n=a5 v=80
10080 On ch=1 n=a5 v=90
10080 On ch=1 n=d#5 v=90
10080 On ch=1 n=b4 v=90
10260 Off ch=1 n=b4 v=80
10260 Off ch=1 n=d#5 v=80
10260 Off ch=1 n=a5 v=80
10320 On ch=1 n=b5 v=93
10800 Off ch=1 n=b5 v=80
10800 On ch=1 n=b6 v=120
10800 On ch=1 n=f#6 v=120
10800 On ch=1 n=b5 v=120
11280 Off ch=1 n=b6 v=80
11280 On ch=1 n=a6 v=99
11520 Off ch=1 n=f#6 v=80
11520 Off ch=1 n=b5 v=80
11520 Off ch=1 n=a6 v=80
11520 On ch=1 n=g6 v=102
11640 Off ch=1 n=g6 v=80
11640 On ch=1 n=a6 v=102
11760 Off ch=1 n=a6 v=80
11760 On ch=1 n=g6 v=102
11880 Off ch=1 n=g6 v=80
11880 On ch=1 n=f#6 v=102
12000 Off ch=1 n=f#6 v=80
12000 On ch=1 n=e6 v=102
12120 Off ch=1 n=e6 v=80
12120 On ch=1 n=f#6 v=102
12240 Off ch=1 n=f#6 v=80
12240 On ch=1 n=e6 v=102
12360 Off ch=1 n=e6 v=80
12360 On ch=1 n=d6 v=102
12480 Off ch=1 n=d6 v=80
12480 On ch=1 n=c6 v=102
12720 Off ch=1 n=c6 v=80
12720 On ch=1 n=a6 v=102
12720 On ch=1 n=c6 v=102
12840 Off ch=1 n=c6 v=80
12840 Off ch=1 n=a6 v=80
12960 On ch=1 n=d6 v=102
12960 On ch=1 n=c6 v=102
13170 Off ch=1 n=c6 v=80
13170 Off ch=1 n=d6 v=80
13200 On ch=1 n=d5 v=102
13260 Off ch=1 n=d5 v=80
13320 On ch=1 n=d5 v=78
13380 Off ch=1 n=d5 v=80
13440 On ch=1 n=d#5 v=78
13560 Off ch=1 n=d#5 v=80
13680 On ch=1 n=c#5 v=78
13800 Off ch=1 n=c#5 v=80
13920 On ch=1 n=d5 v=78
14040 Off ch=1 n=d5 v=80
14160 On ch=1 n=d6 v=102
14160 On ch=1 n=a6 v=102
14160 On ch=1 n=d7 v=102
14280 Off ch=1 n=d7 v=80
14280 Off ch=1 n=a6 v=80
14280 Off ch=1 n=d6 v=80
14400 On ch=1 n=g6 v=78
14400 On ch=1 n=d6 v=78
14520 Off ch=1 n=d6 v=80
14520 Off ch=1 n=g6 v=80
14640 On ch=1 n=a6 v=78
14640 On ch=1 n=e6 v=78
14760 Off ch=1 n=e6 v=80
14760 Off ch=1 n=a6 v=80
14880 On ch=1 n=c6 v=120
14880 On ch=1 n=d6 v=120
15120 Off ch=1 n=d6 v=80
15120 On ch=1 n=e6 v=78
15240 Off ch=1 n=e6 v=80
15240 On ch=1 n=f#6 v=78
15360 Off ch=1 n=c6 v=80
15360 Off ch=1 n=f#6 v=80
15360 On ch=1 n=g6 v=78
15360 On ch=1 n=b5 v=78
15480 Off ch=1 n=b5 v=80
15480 Off ch=1 n=g6 v=80
15600 On ch=1 n=c#6 v=78
15600 On ch=1 n=g5 v=78
15780 Off ch=1 n=g5 v=80
15780 Off ch=1 n=c#6 v=80
15840 On ch=1 n=d6 v=78
15840 On ch=1 n=f#5 v=78
16020 Off ch=1 n=f#5 v=80
16020 Off ch=1 n=d6 v=80
16080 On ch=1 n=c6 v=78
16080 On ch=1 n=a5 v=78
16080 On ch=1 n=d5 v=78
16260 Off ch=1 n=d5 v=80
16260 Off ch=1 n=a5 v=80
16260 Off ch=1 n=c6 v=80
16320 On ch=1 n=b5 v=78
16320 On ch=1 n=g5 v=78
16320 On ch=1 n=d5 v=78
16500 Off ch=1 n=d5 v=80
16500 Off ch=1 n=g5 v=80
16500 Off ch=1 n=b5 v=80
16560 On ch=1 n=a5 v=81
16560 On ch=1 n=f#5 v=81
16560 On ch=1 n=c5 v=81
16740 Off ch=1 n=c5 v=80
16740 Off ch=1 n=f#5 v=80
16740 Off ch=1 n=a5 v=80
16800 On ch=1 n=e5 v=84
16800 On ch=1 n=g5 v=84
16800 On ch=1 n=b4 v=84
16980 Off ch=1 n=b4 v=80
16980 Off ch=1 n=g5 v=80
16980 Off ch=1 n=e5 v=80
17040 On ch=1 n=b4 v=87
17040 On ch=1 n=e5 v=87
17040 On ch=1 n=g#5 v=87
17220 Off ch=1 n=g#5 v=80
17220 Off ch=1 n=e5 v=80
17220 Off ch=1 n=b4 v=80
17280 On ch=1 n=a5 v=98
17280 On ch=1 n=e5 v=98
17280 On ch=1 n=a4 v=98
17460 Off ch=1 n=a4 v=80
17460 Off ch=1 n=e5 v=80
17460 Off ch=1 n=a5 v=80
17520 On ch=1 n=b5 v=106
17520 On ch=1 n=g#5 v=106
17520 On ch=1 n=e5 v=106
17700 Off ch=1 n=e5 v=80
17700 Off ch=1 n=g#5 v=80
17700 Off ch=1 n=b5 v=80
17760 On ch=1 n=e5 v=114
17760 On ch=1 n=a5 v=114
17760 On ch=1 n=c#6 v=114
17940 Off ch=1 n=c#6 v=80
17940 Off ch=1 n=a5 v=80
17940 Off ch=1 n=e5 v=80
18000 On ch=1 n=a4 v=125
18240 Off ch=1 n=a4 v=80
18240 On ch=1 n=a4 v=102
18480 Off ch=1 n=a4 v=80
18480 On ch=1 n=a4 v=114
18720 Off ch=1 n=a4 v=80
18720 On ch=1 n=a#4 v=120
18840 Off ch=1 n=a#4 v=80
18840 On ch=1 n=d#5 v=90
18960 Off ch=1 n=d#5 v=80
18960 On ch=1 n=g5 v=96
19080 Off ch=1 n=g5 v=80
19080 On ch=1 n=a#5 v=102
19200 Off ch=1 n=a#5 v=80
19200 On ch=1 n=d#6 v=108
19440 Off ch=1 n=d#6 v=80
19440 On ch=1 n=d6 v=114
19680 Off ch=1 n=d6 v=80
19680 On ch=1 n=a5 v=124
19680 On ch=1 n=c#6 v=102
19728 Off ch=1 n=c#6 v=80
19728 On ch=1 n=d6 v=102
19776 Off ch=1 n=d6 v=80
19776 On ch=1 n=c#6 v=124
19824 Off ch=1 n=c#6 v=80
19824 On ch=1 n=d6 v=102
19872 Off ch=1 n=d6 v=80
19872 On ch=1 n=c#6 v=102
19920 Off ch=1 n=c#6 v=80
19920 On ch=1 n=c6 v=102
20040 Off ch=1 n=c6 v=80
20040 On ch=1 n=c#6 v=102
20160 Off ch=1 n=a5 v=80
20160 Off ch=1 n=c#6 v=80
20160 On ch=1 n=a5 v=120
20160 On ch=1 n=d6 v=120
20280 Off ch=1 n=a5 v=80
20280 On ch=1 n=a#5 v=90
20400 Off ch=1 n=d6 v=80
20400 Off ch=1 n=a#5 v=80
20400 On ch=1 n=d6 v=96
20520 Off ch=1 n=d6 v=80
20520 On ch=1 n=f6 v=102
20640 Off ch=1 n=f6 v=80
20640 On ch=1 n=a#6 v=108
20880 Off ch=1 n=a#6 v=80
20880 On ch=1 n=a6 v=114
21120 Off ch=1 n=a6 v=80
21120 On ch=1 n=g#6 v=124
21168 Off ch=1 n=g#6 v=80
21168 On ch=1 n=a6 v=102
21216 Off ch=1 n=a6 v=80
21216 On ch=1 n=g#6 v=124
21264 Off ch=1 n=g#6 v=80
21264 On ch=1 n=a6 v=102
21312 Off ch=1 n=a6 v=80
21312 On ch=1 n=g#6 v=102
21360 Off ch=1 n=g#6 v=80
21360 On ch=1 n=g6 v=102
21480 Off ch=1 n=g6 v=80
21480 On ch=1 n=g#6 v=102
21600 Off ch=1 n=g#6 v=80
21600 On ch=1 n=c5 v=120
21720 Off ch=1 n=c5 v=80
21720 On ch=1 n=f5 v=90
21840 Off ch=1 n=f5 v=80
21840 On ch=1 n=a5 v=96
21960 Off ch=1 n=a5 v=80
21960 On ch=1 n=c6 v=102
22080 Off ch=1 n=c6 v=80
22080 On ch=1 n=f6 v=108
22320 Off ch=1 n=f6 v=80
22320 On ch=1 n=e6 v=114
22560 Off ch=1 n=e6 v=80
22560 On ch=1 n=c6 v=124
22560 On ch=1 n=d#6 v=102
22608 Off ch=1 n=d#6 v=80
22608 On ch=1 n=e6 v=102
22656 Off ch=1 n=e6 v=80
22656 On ch=1 n=d#6 v=124
22704 Off ch=1 n=d#6 v=80
22704 On ch=1 n=e6 v=102
22752 Off ch=1 n=e6 v=80
22752 On ch=1 n=d#6 v=102
22800 Off ch=1 n=d#6 v=80
22800 On ch=1 n=d6 v=102
22920 Off ch=1 n=d6 v=80
22920 On ch=1 n=d#6 v=102
23040 Off ch=1 n=c6 v=80
23040 Off ch=1 n=d#6 v=80
23040 On ch=1 n=b5 v=120
23040 On ch=1 n=e6 v=120
23160 Off ch=1 n=b5 v=80
23160 On ch=1 n=c6 v=90
23280 Off ch=1 n=e6 v=80
23280 Off ch=1 n=c6 v=80
23280 On ch=1 n=e6 v=96
23400 Off ch=1 n=e6 v=80
23400 On ch=1 n=g6 v=102
23520 Off ch=1 n=g6 v=80
23520 On ch=1 n=c7 v=108
23760 Off ch=1 n=c7 v=80
23760 On ch=1 n=b6 v=114
24000 Off ch=1 n=b6 v=80
24000 On ch=1 n=a#6 v=124
24048 Off ch=1 n=a#6 v=80
24048 On ch=1 n=b6 v=102
24096 Off ch=1 n=b6 v=80
24096 On ch=1 n=a#6 v=124
24144 Off ch=1 n=a#6 v=80
24144 On ch=1 n=b6 v=102
24192 Off ch=1 n=b6 v=80
24192 On ch=1 n=a#6 v=102
24240 Off ch=1 n=a#6 v=80
24240 On ch=1 n=a6 v=102
24360 Off ch=1 n=a6 v=80
24360 On ch=1 n=a#6 v=102
24480 Off ch=1 n=a#6 v=80
24480 On ch=1 n=b6 v=102
24720 Off ch=1 n=b6 v=80
24720 On ch=1 n=a#6 v=87
24840 Off ch=1 n=a#6 v=80
24840 On ch=1 n=g#6 v=87
24960 Off ch=1 n=g#6 v=80
24960 On ch=1 n=f#6 v=102
25200 Off ch=1 n=f#6 v=80
25200 On ch=1 n=g#6 v=87
25320 Off ch=1 n=g#6 v=80
25320 On ch=1 n=f#6 v=87
25440 Off ch=1 n=f#6 v=80
25440 On ch=1 n=c#6 v=102
25680 Off ch=1 n=c#6 v=80
25680 On ch=1 n=d#6 v=87
25800 Off ch=1 n=d#6 v=80
25800 On ch=1 n=c#6 v=87
25920 Off ch=1 n=c#6 v=80
25920 On ch=1 n=a5 v=102
26040 Off ch=1 n=a5 v=80
26040 On ch=1 n=a#5 v=90
26160 Off ch=1 n=a#5 v=80
26160 On ch=1 n=d6 v=96
26280 Off ch=1 n=d6 v=80
26280 On ch=1 n=f6 v=102
26400 Off ch=1 n=f6 v=80
26400 On ch=1 n=a#6 v=108
26640 Off ch=1 n=a#6 v=80
26640 On ch=1 n=a6 v=114
26880 Off ch=1 n=a6 v=80
26880 On ch=1 n=g#6 v=124
26928 Off ch=1 n=g#6 v=80
26928 On ch=1 n=a6 v=102
26976 Off ch=1 n=a6 v=80
26976 On ch=1 n=g#6 v=124
27024 Off ch=1 n=g#6 v=80
27024 On ch=1 n=a6 v=102
27072 Off ch=1 n=a6 v=80
27072 On ch=1 n=g#6 v=102
27120 Off ch=1 n=g#6 v=80
27120 On ch=1 n=g6 v=102
27240 Off ch=1 n=g6 v=80
27240 On ch=1 n=g#6 v=102
27360 Off ch=1 n=g#6 v=80
27360 On ch=1 n=a6 v=102
27600 Off ch=1 n=a6 v=80
27600 On ch=1 n=g#6 v=87
27720 Off ch=1 n=g#6 v=80
27720 On ch=1 n=f#6 v=87
27840 Off ch=1 n=f#6 v=80
27840 On ch=1 n=e6 v=102
28080 Off ch=1 n=e6 v=80
28080 On ch=1 n=f#6 v=87
28200 Off ch=1 n=f#6 v=80
28200 On ch=1 n=e6 v=87
28320 Off ch=1 n=e6 v=80
28320 On ch=1 n=b5 v=102
28560 Off ch=1 n=b5 v=80
28560 On ch=1 n=c#6 v=87
28680 Off ch=1 n=c#6 v=80
28680 On ch=1 n=b5 v=87
28800 Off ch=1 n=b5 v=80
28800 On ch=1 n=c#6 v=90
28800 On ch=1 n=a5 v=90
28920 Off ch=1 n=a5 v=80
28920 Off ch=1 n=c#6 v=80
29040 On ch=1 n=d6 v=98
29040 On ch=1 n=b5 v=98
29040 On ch=1 n=a5 v=98
29160 Off ch=1 n=a5 v=80
29160 Off ch=1 n=b5 v=80
29160 Off ch=1 n=d6 v=80
29280 On ch=1 n=e6 v=106
29280 On ch=1 n=c#6 v=106
29280 On ch=1 n=a5 v=106
29400 Off ch=1 n=a5 v=80
29400 Off ch=1 n=c#6 v=80
29400 Off ch=1 n=e6 v=80
29520 On ch=1 n=a4 v=114
29580 Off ch=1 n=a4 v=80
29640 On ch=1 n=a4 v=90
29700 Off ch=1 n=a4 v=80
29760 On ch=1 n=a#4 v=90
29880 Off ch=1 n=a#4 v=80
30000 On ch=1 n=g#4 v=90
30120 Off ch=1 n=g#4 v=80
30240 On ch=1 n=a4 v=90
30450 Off ch=1 n=a4 v=80
30480 On ch=1 n=a5 v=102
30480 On ch=1 n=e6 v=102
30480 On ch=1 n=a6 v=102
30600 Off ch=1 n=a6 v=80
30600 Off ch=1 n=e6 v=80
30600 Off ch=1 n=a5 v=80
30720 On ch=1 n=d6 v=78
30720 On ch=1 n=a5 v=78
30840 Off ch=1 n=a5 v=80
30840 Off ch=1 n=d6 v=80
30960 On ch=1 n=e6 v=78
30960 On ch=1 n=b5 v=78
31080 Off ch=1 n=b5 v=80
31080 Off ch=1 n=e6 v=80
31200 On ch=1 n=a5 v=120
31200 On ch=1 n=g5 v=120
31440 Off ch=1 n=a5 v=80
31440 On ch=1 n=b5 v=78
31560 Off ch=1 n=b5 v=80
31560 On ch=1 n=c#6 v=78
31680 Off ch=1 n=g5 v=80
31680 Off ch=1 n=c#6 v=80
31680 On ch=1 n=d6 v=78
31680 On ch=1 n=f#5 v=78
31920 Off ch=1 n=f#5 v=80
31920 Off ch=1 n=d6 v=80
31920 On ch=1 n=f#5 v=84
32400 Off ch=1 n=f#5 v=80
32400 On ch=1 n=f#6 v=120
32400 On ch=1 n=f#5 v=120
32880 Off ch=1 n=f#5 v=80
32880 Off ch=1 n=f#6 v=80
32880 On ch=1 n=e6 v=96
32880 On ch=1 n=f#5 v=96
33120 Off ch=1 n=f#5 v=80
33120 Off ch=1 n=e6 v=80
33120 On ch=1 n=d6 v=102
33240 Off ch=1 n=d6 v=80
33240 On ch=1 n=e6 v=102
33360 Off ch=1 n=e6 v=80
33360 On ch=1 n=d6 v=102
33480 Off ch=1 n=d6 v=80
33480 On ch=1 n=c#6 v=102
33600 Off ch=1 n=c#6 v=80
33600 On ch=1 n=b5 v=102
33720 Off ch=1 n=b5 v=80
33720 On ch=1 n=c#6 v=102
33840 Off ch=1 n=c#6 v=80
33840 On ch=1 n=b5 v=102
33960 Off ch=1 n=b5 v=80
33960 On ch=1 n=a5 v=102
34080 Off ch=1 n=a5 v=80
34080 On ch=1 n=g#5 v=102
34320 Off ch=1 n=g#5 v=80
34320 On ch=1 n=g#5 v=102
34320 On ch=1 n=e6 v=102
34440 Off ch=1 n=e6 v=80
34440 Off ch=1 n=g#5 v=80
34560 On ch=1 n=a5 v=102
34560 On ch=1 n=g5 v=102
34680 Off ch=1 n=g5 v=80
34680 Off ch=1 n=a5 v=80
34800 On ch=1 n=a4 v=114
34860 Off ch=1 n=a4 v=80
34920 On ch=1 n=a4 v=90
34980 Off ch=1 n=a4 v=80
35040 On ch=1 n=a#4 v=90
35160 Off ch=1 n=a#4 v=80
35280 On ch=1 n=g#4 v=90
35400 Off ch=1 n=g#4 v=80
35520 On ch=1 n=a4 v=90
35640 Off ch=1 n=a4 v=80
35760 On ch=1 n=a5 v=102
35760 On ch=1 n=e6 v=102
35760 On ch=1 n=a6 v=102
35880 Off ch=1 n=a6 v=80
35880 Off ch=1 n=e6 v=80
35880 Off ch=1 n=a5 v=80
36000 On ch=1 n=d6 v=78
36000 On ch=1 n=a5 v=78
36120 Off ch=1 n=a5 v=80
36120 Off ch=1 n=d6 v=80
36240 On ch=1 n=e6 v=78
36240 On ch=1 n=b5 v=78
36360 Off ch=1 n=b5 v=80
36360 Off ch=1 n=e6 v=80
36480 On ch=1 n=g5 v=120
36480 On ch=1 n=a5 v=120
36720 Off ch=1 n=a5 v=80
36720 On ch=1 n=b5 v=78
36840 Off ch=1 n=b5 v=80
36840 On ch=1 n=c#6 v=78
36960 Off ch=1 n=g5 v=80
36960 Off ch=1 n=c#6 v=80
36960 On ch=1 n=d6 v=78
36960 On ch=1 n=f#5 v=78
37080 Off ch=1 n=f#5 v=80
37080 Off ch=1 n=d6 v=80
37200 On ch=1 n=g#5 v=78
37200 On ch=1 n=d5 v=78
37380 Off ch=1 n=d5 v=80
37380 Off ch=1 n=g#5 v=80
37440 On ch=1 n=a5 v=78
37440 On ch=1 n=c#5 v=78
37620 Off ch=1 n=c#5 v=80
37620 Off ch=1 n=a5 v=80
37680 On ch=1 n=g5 v=78
37680 On ch=1 n=e5 v=78
37680 On ch=1 n=a4 v=78
37860 Off ch=1 n=a4 v=80
37860 Off ch=1 n=e5 v=80
37860 Off ch=1 n=g5 v=80
37920 On ch=1 n=f#5 v=78
37920 On ch=1 n=d5 v=78
37920 On ch=1 n=a4 v=78
38100 Off ch=1 n=a4 v=80
38100 Off ch=1 n=d5 v=80
38100 Off ch=1 n=f#5 v=80
38160 On ch=1 n=f5 v=81
38160 On ch=1 n=d5 v=81
38160 On ch=1 n=b4 v=81
38340 Off ch=1 n=b4 v=80
38340 Off ch=1 n=d5 v=80
38340 Off ch=1 n=f5 v=80
38400 On ch=1 n=e5 v=84
38400 On ch=1 n=c#5 v=84
38580 Off ch=1 n=c#5 v=80
38580 Off ch=1 n=e5 v=80
38640 On ch=1 n=a5 v=87
38640 On ch=1 n=e5 v=87
38640 On ch=1 n=c5 v=87
38820 Off ch=1 n=c5 v=80
38820 Off ch=1 n=e5 v=80
38820 Off ch=1 n=a5 v=80
38880 On ch=1 n=a5 v=90
38880 On ch=1 n=d#5 v=90
38880 On ch=1 n=b4 v=90
39060 Off ch=1 n=b4 v=80
39060 Off ch=1 n=d#5 v=80
39060 Off ch=1 n=a5 v=80
39120 On ch=1 n=b5 v=93
39600 Off ch=1 n=b5 v=80
39600 On ch=1 n=b6 v=120
39600 On ch=1 n=f#6 v=120
39600 On ch=1 n=b5 v=120
40080 Off ch=1 n=b6 v=80
40080 On ch=1 n=a6 v=99
40320 Off ch=1 n=f#6 v=80
40320 Off ch=1 n=b5 v=80
40320 Off ch=1 n=a6 v=80
40320 On ch=1 n=g6 v=102
40440 Off ch=1 n=g6 v=80
40440 On ch=1 n=a6 v=102
40560 Off ch=1 n=a6 v=80
40560 On ch=1 n=g6 v=102
40680 Off ch=1 n=g6 v=80
40680 On ch=1 n=f#6 v=102
40800 Off ch=1 n=f#6 v=80
40800 On ch=1 n=e6 v=102
40920 Off ch=1 n=e6 v=80
40920 On ch=1 n=f#6 v=102
41040 Off ch=1 n=f#6 v=80
41040 On ch=1 n=e6 v=102
41160 Off ch=1 n=e6 v=80
41160 On ch=1 n=d6 v=102
41280 Off ch=1 n=d6 v=80
41280 On ch=1 n=c6 v=102
41520 Off ch=1 n=c6 v=80
41520 On ch=1 n=a6 v=102
41520 On ch=1 n=c6 v=102
41640 Off ch=1 n=c6 v=80
41640 Off ch=1 n=a6 v=80
41760 On ch=1 n=c6 v=102
41760 On ch=1 n=d6 v=102
41970 Off ch=1 n=d6 v=80
41970 Off ch=1 n=c6 v=80
42000 On ch=1 n=d5 v=114
42060 Off ch=1 n=d5 v=80
42120 On ch=1 n=d5 v=90
42180 Off ch=1 n=d5 v=80
42240 On ch=1 n=d#5 v=90
42360 Off ch=1 n=d#5 v=80
42480 On ch=1 n=c#5 v=90
42600 Off ch=1 n=c#5 v=80
42720 On ch=1 n=d5 v=90
42840 Off ch=1 n=d5 v=80
42960 On ch=1 n=d6 v=102
42960 On ch=1 n=a6 v=102
42960 On ch=1 n=d7 v=102
43080 Off ch=1 n=d7 v=80
43080 Off ch=1 n=a6 v=80
43080 Off ch=1 n=d6 v=80
43200 On ch=1 n=g6 v=78
43200 On ch=1 n=d6 v=78
43320 Off ch=1 n=d6 v=80
43320 Off ch=1 n=g6 v=80
43440 On ch=1 n=a6 v=78
43440 On ch=1 n=e6 v=78
43560 Off ch=1 n=e6 v=80
43560 Off ch=1 n=a6 v=80
43680 On ch=1 n=c6 v=120
43680 On ch=1 n=d6 v=120
43920 Off ch=1 n=d6 v=80
43920 On ch=1 n=e6 v=78
44040 Off ch=1 n=e6 v=80
44040 On ch=1 n=f#6 v=78
44160 Off ch=1 n=c6 v=80
44160 Off ch=1 n=f#6 v=80
44160 On ch=1 n=g6 v=78
44160 On ch=1 n=b5 v=78
44280 Off ch=1 n=b5 v=80
44280 Off ch=1 n=g6 v=80
44400 On ch=1 n=c#6 v=78
44400 On ch=1 n=g5 v=78
44580 Off ch=1 n=g5 v=80
44580 Off ch=1 n=c#6 v=80
44640 On ch=1 n=d6 v=78
44640 On ch=1 n=f#5 v=78
44820 Off ch=1 n=f#5 v=80
44820 Off ch=1 n=d6 v=80
44880 On ch=1 n=c6 v=78
44880 On ch=1 n=a5 v=78
44880 On ch=1 n=d5 v=78
45060 Off ch=1 n=d5 v=80
45060 Off ch=1 n=a5 v=80
45060 Off ch=1 n=c6 v=80
45120 On ch=1 n=b5 v=78
45120 On ch=1 n=g5 v=78
45120 On ch=1 n=d5 v=78
45300 Off ch=1 n=d5 v=80
45300 Off ch=1 n=g5 v=80
45300 Off ch=1 n=b5 v=80
45360 On ch=1 n=a5 v=81
45360 On ch=1 n=f#5 v=81
45360 On ch=1 n=c5 v=81
45540 Off ch=1 n=c5 v=80
45540 Off ch=1 n=f#5 v=80
45540 Off ch=1 n=a5 v=80
45600 On ch=1 n=e5 v=84
45600 On ch=1 n=g5 v=84
45600 On ch=1 n=b4 v=84
45780 Off ch=1 n=b4 v=80
45780 Off ch=1 n=g5 v=80
45780 Off ch=1 n=e5 v=80
45840 On ch=1 n=b4 v=87
45840 On ch=1 n=e5 v=87
45840 On ch=1 n=g#5 v=87
46020 Off ch=1 n=g#5 v=80
46020 Off ch=1 n=e5 v=80
46020 Off ch=1 n=b4 v=80
46080 On ch=1 n=a5 v=98
46080 On ch=1 n=e5 v=98
46080 On ch=1 n=a4 v=98
46260 Off ch=1 n=a4 v=80
46260 Off ch=1 n=e5 v=80
46260 Off ch=1 n=a5 v=80
46320 On ch=1 n=b5 v=106
46320 On ch=1 n=g#5 v=106
46320 On ch=1 n=e5 v=106
46500 Off ch=1 n=e5 v=80
46500 Off ch=1 n=g#5 v=80
46500 Off ch=1 n=b5 v=80
46560 On ch=1 n=e5 v=114
46560 On ch=1 n=a5 v=114
46560 On ch=1 n=c#6 v=114
46740 Off ch=1 n=c#6 v=80
46740 Off ch=1 n=a5 v=80
46740 Off ch=1 n=e5 v=80
47040 On ch=1 n=d6 v=114
47040 On ch=1 n=a5 v=114
47040 On ch=1 n=f#5 v=114
47280 Off ch=1 n=f#5 v=80
47280 Off ch=1 n=a5 v=80
47280 Off ch=1 n=d6 v=80
47520 On ch=1 n=d5 v=78
47520 On ch=1 n=a#4 v=78
47760 Off ch=1 n=d5 v=80
47760 On ch=1 n=e5 v=78
48000 Off ch=1 n=a#4 v=80
48000 Off ch=1 n=e5 v=80
48000 On ch=1 n=f5 v=78
48000 On ch=1 n=a4 v=75
48240 Off ch=1 n=f5 v=80
48240 On ch=1 n=c5 v=78
48480 Off ch=1 n=a4 v=80
48480 Off ch=1 n=c5 v=80
48480 On ch=1 n=c5 v=78
48480 On ch=1 n=g#4 v=72
48720 Off ch=1 n=c5 v=80
48720 On ch=1 n=d5 v=78
48960 Off ch=1 n=g#4 v=80
48960 Off ch=1 n=d5 v=80
48960 On ch=1 n=d#5 v=66
48960 On ch=1 n=g4 v=69
49200 Off ch=1 n=d#5 v=80
49200 On ch=1 n=a#4 v=66
49440 Off ch=1 n=g4 v=80
49440 Off ch=1 n=a#4 v=80
49440 On ch=1 n=a#4 v=66
49440 On ch=1 n=f#4 v=66
49680 Off ch=1 n=a#4 v=80
49680 On ch=1 n=c5 v=66
49920 Off ch=1 n=f#4 v=80
49920 Off ch=1 n=c5 v=80
49920 On ch=1 n=d5 v=60
49920 On ch=1 n=f4 v=63
50160 Off ch=1 n=d5 v=80
50160 On ch=1 n=a#4 v=60
50400 Off ch=1 n=f4 v=80
50400 On ch=1 n=d5 v=53
50400 On ch=1 n=f4 v=53
50640 Off ch=1 n=a#4 v=80
50640 Off ch=1 n=d5 v=80
50640 On ch=1 n=d#5 v=53
50640 On ch=1 n=c5 v=53
50880 Off ch=1 n=d#5 v=80
50880 On ch=1 n=f5 v=53
51120 Off ch=1 n=f4 v=80
51120 Off ch=1 n=c5 v=80
51120 Off ch=1 n=f5 v=80
51120 On ch=1 n=c5 v=53
51120 On ch=1 n=d#4 v=53
51360 Off ch=1 n=d#4 v=80
51360 Off ch=1 n=c5 v=80
51360 On ch=1 n=c5 v=53
51360 On ch=1 n=d#4 v=53
51600 Off ch=1 n=d#4 v=80
51600 Off ch=1 n=c5 v=80
51600 On ch=1 n=d5 v=53
51600 On ch=1 n=f4 v=53
51840 Off ch=1 n=f4 v=80
51840 Off ch=1 n=d5 v=80
51840 On ch=1 n=d#5 v=53
51840 On ch=1 n=g4 v=53
52080 Off ch=1 n=g4 v=80
52080 Off ch=1 n=d#5 v=80
52080 On ch=1 n=a#4 v=53
52080 On ch=1 n=d4 v=53
52320 Off ch=1 n=d4 v=80
52320 Off ch=1 n=a#4 v=80
52320 On ch=1 n=a#4 v=53
52320 On ch=1 n=d4 v=53
52560 Off ch=1 n=d4 v=80
52560 On ch=1 n=c5 v=53
52560 On ch=1 n=d#4 v=53
52800 Off ch=1 n=d#4 v=80
52800 Off ch=1 n=c5 v=80
52800 On ch=1 n=c#5 v=53
52800 On ch=1 n=e4 v=53
53040 Off ch=1 n=e4 v=80
53040 Off ch=1 n=a#4 v=80
53040 Off ch=1 n=c#5 v=80
53040 On ch=1 n=a#4 v=53
53280 On ch=1 n=d5 v=53
53280 On ch=1 n=f4 v=53
53520 Off ch=1 n=d5 v=80
53520 Off ch=1 n=a#4 v=80
53520 On ch=1 n=d#5 v=53
53520 On ch=1 n=c5 v=53
53760 Off ch=1 n=c5 v=80
53760 Off ch=1 n=d#5 v=80
53760 On ch=1 n=d5 v=53
53760 On ch=1 n=f5 v=53
54000 Off ch=1 n=f5 v=80
54000 Off ch=1 n=f4 v=80
54000 Off ch=1 n=d5 v=80
54000 On ch=1 n=c5 v=53
54000 On ch=1 n=a4 v=53
54000 On ch=1 n=f4 v=53
54240 Off ch=1 n=f4 v=80
54240 Off ch=1 n=a4 v=80
54240 Off ch=1 n=c5 v=80
54240 On ch=1 n=a4 v=53
54240 On ch=1 n=c5 v=53
54240 On ch=1 n=f4 v=53
54480 Off ch=1 n=c5 v=80
54480 Off ch=1 n=a4 v=80
54480 On ch=1 n=d5 v=53
54480 On ch=1 n=a#4 v=53
54720 Off ch=1 n=a#4 v=80
54720 Off ch=1 n=d5 v=80
54720 On ch=1 n=c5 v=53
54720 On ch=1 n=d#5 v=53
54960 Off ch=1 n=d#5 v=80
54960 Off ch=1 n=f4 v=80
54960 Off ch=1 n=c5 v=80
54960 On ch=1 n=a#4 v=53
54960 On ch=1 n=g4 v=53
54960 On ch=1 n=f4 v=53
55200 Off ch=1 n=f4 v=80
55200 Off ch=1 n=g4 v=80
55200 Off ch=1 n=a#4 v=80
55200 On ch=1 n=g4 v=53
55200 On ch=1 n=a#4 v=53
55200 On ch=1 n=f4 v=53
55440 Off ch=1 n=a#4 v=80
55440 Off ch=1 n=g4 v=80
55440 On ch=1 n=a4 v=53
55440 On ch=1 n=c5 v=53
55680 Off ch=1 n=c5 v=80
55680 Off ch=1 n=f4 v=80
55680 Off ch=1 n=a4 v=80
55680 On ch=1 n=a#4 v=53
55680 On ch=1 n=d5 v=53
55680 On ch=1 n=f4 v=53
55920 Off ch=1 n=a#4 v=80
55920 On ch=1 n=g#4 v=53
56160 Off ch=1 n=d5 v=80
56160 Off ch=1 n=f4 v=80
56160 Off ch=1 n=g#4 v=80
56160 On ch=1 n=f4 v=53
56160 On ch=1 n=a4 v=53
56160 On ch=1 n=c5 v=53
56400 Off ch=1 n=c5 v=80
56400 Off ch=1 n=a4 v=80
56400 On ch=1 n=g#4 v=61
56400 On ch=1 n=d5 v=61
56640 Off ch=1 n=d5 v=80
56640 Off ch=1 n=f4 v=80
56640 Off ch=1 n=g#4 v=80
56640 On ch=1 n=e5 v=61
56640 On ch=1 n=c5 v=61
56880 Off ch=1 n=e5 v=80
56880 On ch=1 n=f5 v=69
57120 Off ch=1 n=c5 v=80
57120 Off ch=1 n=f5 v=80
57120 On ch=1 n=g4 v=69
57120 On ch=1 n=g5 v=69
57120 On ch=1 n=e5 v=69
57360 Off ch=1 n=e5 v=80
57360 Off ch=1 n=g5 v=80
57360 On ch=1 n=f5 v=69
57360 On ch=1 n=d5 v=69
57600 Off ch=1 n=d5 v=80
57600 Off ch=1 n=g4 v=80
57600 Off ch=1 n=f5 v=80
57600 On ch=1 n=e5 v=78
57600 On ch=1 n=c5 v=78
57600 On ch=1 n=g4 v=78
57840 Off ch=1 n=g4 v=80
57840 Off ch=1 n=c5 v=80
57840 Off ch=1 n=e5 v=80
57840 On ch=1 n=b4 v=78
57840 On ch=1 n=f5 v=78
58080 Off ch=1 n=f5 v=80
58080 Off ch=1 n=b4 v=80
58080 On ch=1 n=g5 v=78
58080 On ch=1 n=a#4 v=78
58320 Off ch=1 n=a#4 v=80
58320 Off ch=1 n=g5 v=80
58320 On ch=1 n=c5 v=78
58320 On ch=1 n=a5 v=78
58560 Off ch=1 n=a5 v=80
58560 Off ch=1 n=c5 v=80
58560 On ch=1 n=f5 v=78
58560 On ch=1 n=a4 v=78
58800 Off ch=1 n=a4 v=80
58800 Off ch=1 n=f5 v=80
58800 On ch=1 n=d#5 v=78
59040 Off ch=1 n=d#5 v=80
59040 On ch=1 n=a#4 v=78
59040 On ch=1 n=d5 v=78
59280 Off ch=1 n=d5 v=80
59280 On ch=1 n=e5 v=78
59520 Off ch=1 n=a#4 v=80
59520 Off ch=1 n=e5 v=80
59520 On ch=1 n=f5 v=78
59520 On ch=1 n=a4 v=75
59760 Off ch=1 n=f5 v=80
59760 On ch=1 n=c5 v=78
60000 Off ch=1 n=a4 v=80
60000 Off ch=1 n=c5 v=80
60000 On ch=1 n=c5 v=78
60000 On ch=1 n=g#4 v=72
60240 Off ch=1 n=c5 v=80
60240 On ch=1 n=d5 v=78
60480 Off ch=1 n=g#4 v=80
60480 Off ch=1 n=d5 v=80
60480 On ch=1 n=d#5 v=66
60480 On ch=1 n=g4 v=69
60720 Off ch=1 n=d#5 v=80
60720 On ch=1 n=a#4 v=66
60960 Off ch=1 n=g4 v=80
60960 Off ch=1 n=a#4 v=80
60960 On ch=1 n=a#4 v=66
60960 On ch=1 n=f#4 v=66
61200 Off ch=1 n=a#4 v=80
61200 On ch=1 n=c5 v=66
61440 Off ch=1 n=f#4 v=80
61440 Off ch=1 n=c5 v=80
61440 On ch=1 n=d5 v=60
61440 On ch=1 n=f4 v=63
61680 Off ch=1 n=d5 v=80
61680 On ch=1 n=a#4 v=60
61920 Off ch=1 n=f4 v=80
61920 On ch=1 n=d5 v=53
61920 On ch=1 n=f4 v=53
62160 Off ch=1 n=a#4 v=80
62160 Off ch=1 n=d5 v=80
62160 On ch=1 n=d#5 v=53
62160 On ch=1 n=c5 v=53
62400 Off ch=1 n=d#5 v=80
62400 On ch=1 n=f5 v=53
62640 Off ch=1 n=f4 v=80
62640 Off ch=1 n=c5 v=80
62640 Off ch=1 n=f5 v=80
62640 On ch=1 n=c5 v=53
62640 On ch=1 n=d#4 v=53
62880 Off ch=1 n=d#4 v=80
62880 Off ch=1 n=c5 v=80
62880 On ch=1 n=c5 v=53
62880 On ch=1 n=d#4 v=53
63120 Off ch=1 n=d#4 v=80
63120 Off ch=1 n=c5 v=80
63120 On ch=1 n=d5 v=53
63120 On ch=1 n=f4 v=53
63360 Off ch=1 n=f4 v=80
63360 Off ch=1 n=d5 v=80
63360 On ch=1 n=d#5 v=53
63360 On ch=1 n=g4 v=53
63600 Off ch=1 n=g4 v=80
63600 Off ch=1 n=d#5 v=80
63600 On ch=1 n=a#4 v=53
63600 On ch=1 n=d4 v=53
63840 Off ch=1 n=d4 v=80
63840 Off ch=1 n=a#4 v=80
63840 On ch=1 n=a#4 v=53
63840 On ch=1 n=d4 v=53
64080 Off ch=1 n=d4 v=80
64080 On ch=1 n=c5 v=53
64080 On ch=1 n=d#4 v=53
64320 Off ch=1 n=d#4 v=80
64320 Off ch=1 n=c5 v=80
64320 On ch=1 n=c#5 v=53
64320 On ch=1 n=e4 v=53
64560 Off ch=1 n=e4 v=80
64560 Off ch=1 n=a#4 v=80
64560 Off ch=1 n=c#5 v=80
64560 On ch=1 n=a#4 v=53
64800 On ch=1 n=d5 v=53
64800 On ch=1 n=f4 v=53
65040 Off ch=1 n=d5 v=80
65040 Off ch=1 n=a#4 v=80
65040 On ch=1 n=d#5 v=53
65040 On ch=1 n=c5 v=53
65280 Off ch=1 n=c5 v=80
65280 Off ch=1 n=d#5 v=80
65280 On ch=1 n=d5 v=53
65280 On ch=1 n=f5 v=53
65520 Off ch=1 n=f5 v=80
65520 Off ch=1 n=f4 v=80
65520 Off ch=1 n=d5 v=80
65520 On ch=1 n=c5 v=53
65520 On ch=1 n=a4 v=53
65520 On ch=1 n=f4 v=53
65760 Off ch=1 n=f4 v=80
65760 Off ch=1 n=a4 v=80
65760 Off ch=1 n=c5 v=80
65760 On ch=1 n=a4 v=53
65760 On ch=1 n=c5 v=53
65760 On ch=1 n=f4 v=53
66000 Off ch=1 n=c5 v=80
66000 Off ch=1 n=a4 v=80
66000 On ch=1 n=d5 v=53
66000 On ch=1 n=a#4 v=53
66240 Off ch=1 n=a#4 v=80
66240 Off ch=1 n=d5 v=80
66240 On ch=1 n=c5 v=53
66240 On ch=1 n=d#5 v=53
66480 Off ch=1 n=d#5 v=80
66480 Off ch=1 n=f4 v=80
66480 Off ch=1 n=c5 v=80
66480 On ch=1 n=a#4 v=53
66480 On ch=1 n=g4 v=53
66480 On ch=1 n=f4 v=53
66720 Off ch=1 n=f4 v=80
66720 Off ch=1 n=g4 v=80
66720 Off ch=1 n=a#4 v=80
66720 On ch=1 n=g4 v=53
66720 On ch=1 n=a#4 v=53
66720 On ch=1 n=f4 v=53
66960 Off ch=1 n=a#4 v=80
66960 Off ch=1 n=g4 v=80
66960 On ch=1 n=a4 v=53
66960 On ch=1 n=c5 v=53
67200 Off ch=1 n=c5 v=80
67200 Off ch=1 n=f4 v=80
67200 Off ch=1 n=a4 v=80
67200 On ch=1 n=a#4 v=53
67200 On ch=1 n=d5 v=53
67200 On ch=1 n=f4 v=53
67440 Off ch=1 n=a#4 v=80
67440 On ch=1 n=g#4 v=53
67680 Off ch=1 n=d5 v=80
67680 Off ch=1 n=f4 v=80
67680 Off ch=1 n=g#4 v=80
67680 On ch=1 n=f4 v=53
67680 On ch=1 n=a4 v=53
67680 On ch=1 n=c5 v=53
67920 Off ch=1 n=c5 v=80
67920 Off ch=1 n=a4 v=80
67920 On ch=1 n=g#4 v=61
67920 On ch=1 n=d5 v=61
68160 Off ch=1 n=d5 v=80
68160 Off ch=1 n=f4 v=80
68160 Off ch=1 n=g#4 v=80
68160 On ch=1 n=e5 v=61
68160 On ch=1 n=c5 v=61
68400 Off ch=1 n=e5 v=80
68400 On ch=1 n=f5 v=69
68640 Off ch=1 n=c5 v=80
68640 Off ch=1 n=f5 v=80
68640 On ch=1 n=g4 v=69
68640 On ch=1 n=g5 v=69
68640 On ch=1 n=e5 v=69
68880 Off ch=1 n=e5 v=80
68880 Off ch=1 n=g5 v=80
68880 On ch=1 n=f5 v=69
68880 On ch=1 n=d5 v=69
69120 Off ch=1 n=d5 v=80
69120 Off ch=1 n=g4 v=80
69120 Off ch=1 n=f5 v=80
69120 On ch=1 n=e5 v=78
69120 On ch=1 n=c5 v=78
69120 On ch=1 n=g4 v=78
69360 Off ch=1 n=g4 v=80
69360 Off ch=1 n=c5 v=80
69360 Off ch=1 n=e5 v=80
69360 On ch=1 n=b4 v=78
69360 On ch=1 n=f5 v=78
69600 Off ch=1 n=f5 v=80
69600 Off ch=1 n=b4 v=80
69600 On ch=1 n=g5 v=78
69600 On ch=1 n=a#4 v=78
69840 Off ch=1 n=a#4 v=80
69840 Off ch=1 n=g5 v=80
69840 On ch=1 n=c5 v=78
69840 On ch=1 n=a5 v=78
70080 Off ch=1 n=a5 v=80
70080 Off ch=1 n=c5 v=80
70080 On ch=1 n=f5 v=78
70080 On ch=1 n=a4 v=78
70320 Off ch=1 n=a4 v=80
70320 Off ch=1 n=f5 v=80
70320 On ch=1 n=c5 v=78
70560 Off ch=1 n=c5 v=80
70560 On ch=1 n=f5 v=78
70560 On ch=1 n=a4 v=78
70800 Off ch=1 n=a4 v=80
70800 Off ch=1 n=f5 v=80
70800 On ch=1 n=a#4 v=78
70800 On ch=1 n=g5 v=78
71040 Off ch=1 n=g5 v=80
71040 Off ch=1 n=a#4 v=80
71040 On ch=1 n=a5 v=78
71040 On ch=1 n=c5 v=78
71280 Off ch=1 n=c5 v=80
71280 Off ch=1 n=a5 v=80
71280 On ch=1 n=f5 v=78
71280 On ch=1 n=a4 v=78
71460 Off ch=1 n=a4 v=80
71460 Off ch=1 n=f5 v=80
71520 On ch=1 n=f5 v=78
71520 On ch=1 n=a4 v=78
71760 Off ch=1 n=a4 v=80
71760 Off ch=1 n=f5 v=80
71760 On ch=1 n=g5 v=78
71760 On ch=1 n=a#4 v=78
72000 Off ch=1 n=a#4 v=80
72000 Off ch=1 n=g5 v=80
72000 On ch=1 n=c5 v=78
72000 On ch=1 n=a5 v=78
72240 Off ch=1 n=a5 v=80
72240 Off ch=1 n=c5 v=80
72240 On ch=1 n=a4 v=78
72240 On ch=1 n=f5 v=78
72420 Off ch=1 n=f5 v=80
72420 Off ch=1 n=a4 v=80
72480 On ch=1 n=a#4 v=81
72480 On ch=1 n=g5 v=81
72720 Off ch=1 n=g5 v=80
72720 Off ch=1 n=a#4 v=80
72720 On ch=1 n=c5 v=84
72720 On ch=1 n=a5 v=84
72960 Off ch=1 n=a5 v=80
72960 Off ch=1 n=c5 v=80
72960 On ch=1 n=d5 v=87
72960 On ch=1 n=a#5 v=87
73200 Off ch=1 n=a#5 v=80
73200 Off ch=1 n=d5 v=80
73200 On ch=1 n=c5 v=90
73200 On ch=1 n=a5 v=90
73440 Off ch=1 n=a5 v=80
73440 Off ch=1 n=c5 v=80
73440 On ch=1 n=g5 v=90
73440 On ch=1 n=a#4 v=90
73680 Off ch=1 n=a#4 v=80
73680 Off ch=1 n=g5 v=80
73680 On ch=1 n=c5 v=90
73680 On ch=1 n=a5 v=90
73920 Off ch=1 n=a5 v=80
73920 Off ch=1 n=c5 v=80
73920 On ch=1 n=a#5 v=90
73920 On ch=1 n=d5 v=90
74160 Off ch=1 n=d5 v=80
74160 Off ch=1 n=a#5 v=80
74160 On ch=1 n=g5 v=90
74160 On ch=1 n=a#4 v=90
74340 Off ch=1 n=a#4 v=80
74340 Off ch=1 n=g5 v=80
74400 On ch=1 n=a#4 v=90
74400 On ch=1 n=g5 v=90
74640 Off ch=1 n=g5 v=80
74640 Off ch=1 n=a#4 v=80
74640 On ch=1 n=c5 v=90
74640 On ch=1 n=a5 v=90
74880 Off ch=1 n=a5 v=80
74880 Off ch=1 n=c5 v=80
74880 On ch=1 n=d5 v=90
74880 On ch=1 n=a#5 v=90
75120 Off ch=1 n=a#5 v=80
75120 Off ch=1 n=d5 v=80
75120 On ch=1 n=a#4 v=90
75120 On ch=1 n=g5 v=90
75300 Off ch=1 n=g5 v=80
75300 Off ch=1 n=a#4 v=80
75360 On ch=1 n=c5 v=93
75360 On ch=1 n=a5 v=93
75600 Off ch=1 n=a5 v=80
75600 Off ch=1 n=c5 v=80
75600 On ch=1 n=a#5 v=96
75600 On ch=1 n=d5 v=96
75840 Off ch=1 n=d5 v=80
75840 Off ch=1 n=a#5 v=80
75840 On ch=1 n=c6 v=99
75840 On ch=1 n=c5 v=99
76080 Off ch=1 n=c5 v=80
76080 Off ch=1 n=c6 v=80
76080 On ch=1 n=a#5 v=102
76080 On ch=1 n=e5 v=102
76320 Off ch=1 n=e5 v=80
76320 Off ch=1 n=a#5 v=80
76320 On ch=1 n=f5 v=90
76320 On ch=1 n=c5 v=90
76320 On ch=1 n=a5 v=90
76560 Off ch=1 n=a5 v=80
76560 Off ch=1 n=c5 v=80
76560 Off ch=1 n=f5 v=80
76560 On ch=1 n=a#5 v=90
76560 On ch=1 n=g5 v=90
76560 On ch=1 n=c5 v=90
76800 Off ch=1 n=c5 v=80
76800 Off ch=1 n=g5 v=80
76800 Off ch=1 n=a#5 v=80
76800 On ch=1 n=c6 v=117
76800 On ch=1 n=a5 v=117
76800 On ch=1 n=c5 v=117
77040 Off ch=1 n=a5 v=80
77040 Off ch=1 n=c6 v=80
77040 On ch=1 n=g5 v=102
77040 On ch=1 n=e5 v=102
77280 Off ch=1 n=e5 v=80
77280 Off ch=1 n=c5 v=80
77280 Off ch=1 n=g5 v=80
77280 On ch=1 n=g5 v=102
77280 On ch=1 n=e5 v=102
77280 On ch=1 n=c5 v=102
77520 Off ch=1 n=c5 v=80
77520 Off ch=1 n=e5 v=80
77520 Off ch=1 n=g5 v=80
77520 On ch=1 n=a5 v=102
77520 On ch=1 n=f5 v=102
77520 On ch=1 n=c5 v=102
77760 Off ch=1 n=c5 v=80
77760 Off ch=1 n=f5 v=80
77760 Off ch=1 n=a5 v=80
77760 On ch=1 n=a#5 v=117
77760 On ch=1 n=g5 v=117
77760 On ch=1 n=c5 v=117
78000 Off ch=1 n=g5 v=80
78000 Off ch=1 n=a#5 v=80
78000 On ch=1 n=f5 v=102
78000 On ch=1 n=d5 v=102
78240 Off ch=1 n=d5 v=80
78240 Off ch=1 n=c5 v=80
78240 Off ch=1 n=f5 v=80
78240 On ch=1 n=f5 v=102
78240 On ch=1 n=d5 v=102
78240 On ch=1 n=c5 v=102
78480 Off ch=1 n=c5 v=80
78480 Off ch=1 n=d5 v=80
78480 Off ch=1 n=f5 v=80
78480 On ch=1 n=c5 v=102
78480 On ch=1 n=e5 v=102
78480 On ch=1 n=g5 v=102
78720 Off ch=1 n=g5 v=80
78720 Off ch=1 n=e5 v=80
78720 Off ch=1 n=c5 v=80
78720 On ch=1 n=a5 v=117
78720 On ch=1 n=f5 v=117
78960 Off ch=1 n=f5 v=80
78960 On ch=1 n=a4 v=102
79200 Off ch=1 n=a5 v=80
79200 Off ch=1 n=a4 v=80
79200 On ch=1 n=a5 v=90
79200 On ch=1 n=c5 v=90
79200 On ch=1 n=f5 v=90
79440 Off ch=1 n=f5 v=80
79440 Off ch=1 n=c5 v=80
79440 Off ch=1 n=a5 v=80
79440 On ch=1 n=a#5 v=90
79440 On ch=1 n=g5 v=90
79440 On ch=1 n=c5 v=90
79680 Off ch=1 n=c5 v=80
79680 Off ch=1 n=g5 v=80
79680 Off ch=1 n=a#5 v=80
79680 On ch=1 n=c6 v=117
79680 On ch=1 n=a5 v=117
79680 On ch=1 n=c5 v=117
79920 Off ch=1 n=a5 v=80
79920 Off ch=1 n=c6 v=80
79920 On ch=1 n=g5 v=102
79920 On ch=1 n=e5 v=102
80160 Off ch=1 n=e5 v=80
80160 Off ch=1 n=c5 v=80
80160 Off ch=1 n=g5 v=80
80160 On ch=1 n=g5 v=102
80160 On ch=1 n=e5 v=102
80160 On ch=1 n=c5 v=102
80400 Off ch=1 n=c5 v=80
80400 Off ch=1 n=e5 v=80
80400 Off ch=1 n=g5 v=80
80400 On ch=1 n=a5 v=102
80400 On ch=1 n=f5 v=102
80400 On ch=1 n=c5 v=102
80640 Off ch=1 n=c5 v=80
80640 Off ch=1 n=f5 v=80
80640 Off ch=1 n=a5 v=80
80640 On ch=1 n=a#5 v=117
80640 On ch=1 n=g5 v=117
80640 On ch=1 n=c5 v=117
80880 Off ch=1 n=g5 v=80
80880 Off ch=1 n=a#5 v=80
80880 On ch=1 n=f5 v=102
80880 On ch=1 n=d5 v=102
81120 Off ch=1 n=d5 v=80
81120 Off ch=1 n=c5 v=80
81120 Off ch=1 n=f5 v=80
81120 On ch=1 n=f5 v=102
81120 On ch=1 n=d5 v=102
81120 On ch=1 n=c5 v=102
81360 Off ch=1 n=c5 v=80
81360 Off ch=1 n=d5 v=80
81360 Off ch=1 n=f5 v=80
81360 On ch=1 n=c5 v=102
81360 On ch=1 n=e5 v=102
81360 On ch=1 n=g5 v=102
81600 Off ch=1 n=g5 v=80
81600 Off ch=1 n=e5 v=80
81600 Off ch=1 n=c5 v=80
81600 On ch=1 n=f5 v=117
81600 On ch=1 n=a5 v=117
81840 Off ch=1 n=f5 v=80
81840 On ch=1 n=a4 v=102
82080 Off ch=1 n=a5 v=80
82080 Off ch=1 n=a4 v=80
82080 On ch=1 n=f5 v=90
82080 On ch=1 n=a5 v=90
82320 Off ch=1 n=f5 v=80
82320 On ch=1 n=a4 v=90
82560 Off ch=1 n=a5 v=80
82560 On ch=1 n=a5 v=105
82560 On ch=1 n=f5 v=105
82800 Off ch=1 n=f5 v=80
82800 Off ch=1 n=a5 v=80
82800 On ch=1 n=g5 v=90
82800 On ch=1 n=d#5 v=90
83040 Off ch=1 n=d#5 v=80
83040 Off ch=1 n=g5 v=80
83040 On ch=1 n=f5 v=90
83040 On ch=1 n=d5 v=90
83280 Off ch=1 n=d5 v=80
83280 Off ch=1 n=f5 v=80
83280 On ch=1 n=d#5 v=90
83280 On ch=1 n=c5 v=90
83520 Off ch=1 n=c5 v=80
83520 Off ch=1 n=d#5 v=80
83520 On ch=1 n=f5 v=90
83520 On ch=1 n=d5 v=90
83760 Off ch=1 n=d5 v=80
83760 Off ch=1 n=a4 v=80
83760 On ch=1 n=a4 v=90
84000 Off ch=1 n=f5 v=80
84000 On ch=1 n=f5 v=105
84000 On ch=1 n=d5 v=105
84240 Off ch=1 n=d5 v=80
84240 Off ch=1 n=f5 v=80
84240 On ch=1 n=d#5 v=90
84240 On ch=1 n=c5 v=90
84480 Off ch=1 n=c5 v=80
84480 Off ch=1 n=a4 v=80
84480 Off ch=1 n=d#5 v=80
84480 On ch=1 n=a#4 v=90
84480 On ch=1 n=d5 v=90
84720 Off ch=1 n=d5 v=80
84720 Off ch=1 n=a#4 v=80
84720 On ch=1 n=a4 v=90
84720 On ch=1 n=c5 v=90
84960 Off ch=1 n=c5 v=80
84960 Off ch=1 n=a4 v=80
84960 On ch=1 n=d5 v=90
84960 On ch=1 n=a#4 v=90
85200 Off ch=1 n=a#4 v=80
85200 Off ch=1 n=d5 v=80
85200 On ch=1 n=a4 v=90
85200 On ch=1 n=c5 v=90
85380 Off ch=1 n=c5 v=80
85380 Off ch=1 n=a4 v=80
85400 On ch=1 n=a#4 v=84
85420 On ch=1 n=d5 v=84
85440 On ch=1 n=f5 v=84
85680 Off ch=1 n=d5 v=80
85680 Off ch=1 n=a#4 v=80
85680 On ch=1 n=c5 v=84
85680 On ch=1 n=a4 v=84
85920 Off ch=1 n=a4 v=80
85920 Off ch=1 n=c5 v=80
85920 On ch=1 n=d5 v=78
85920 On ch=1 n=a#4 v=78
86160 Off ch=1 n=a#4 v=80
86160 Off ch=1 n=d5 v=80
86160 On ch=1 n=a4 v=78
86160 On ch=1 n=c5 v=78
86340 Off ch=1 n=c5 v=80
86340 Off ch=1 n=a4 v=80
86360 On ch=1 n=a#4 v=72
86380 On ch=1 n=d5 v=72
86400 Off ch=1 n=f5 v=80
86400 On ch=1 n=f5 v=72
86640 Off ch=1 n=a#4 v=80
86640 Off ch=1 n=d5 v=80
86640 On ch=1 n=c5 v=72
86640 On ch=1 n=a4 v=72
86880 Off ch=1 n=a4 v=80
86880 Off ch=1 n=c5 v=80
86880 On ch=1 n=d5 v=66
86880 On ch=1 n=a#4 v=66
87120 Off ch=1 n=a#4 v=80
87120 Off ch=1 n=d5 v=80
87120 On ch=1 n=a4 v=66
87120 On ch=1 n=c5 v=66
87300 Off ch=1 n=c5 v=80
87300 Off ch=1 n=a4 v=80
87320 On ch=1 n=a#4 v=60
87340 On ch=1 n=d5 v=60
87360 Off ch=1 n=f5 v=80
87360 On ch=1 n=f5 v=60
87600 Off ch=1 n=a#4 v=80
87600 Off ch=1 n=d5 v=80
87600 On ch=1 n=c5 v=60
87600 On ch=1 n=a4 v=60
87840 Off ch=1 n=a4 v=80
87840 Off ch=1 n=f5 v=80
87840 Off ch=1 n=c5 v=80
87840 On ch=1 n=d5 v=53
87840 On ch=1 n=a#4 v=53
88080 Off ch=1 n=a#4 v=80
88080 Off ch=1 n=d5 v=80
88080 On ch=1 n=c5 v=53
88080 On ch=1 n=d#5 v=53
88320 Off ch=1 n=d#5 v=80
88320 Off ch=1 n=c5 v=80
88320 On ch=1 n=f5 v=53
88320 On ch=1 n=a4 v=53
88560 Off ch=1 n=f5 v=80
88560 On ch=1 n=c5 v=53
88800 Off ch=1 n=a4 v=80
88800 Off ch=1 n=c5 v=80
88800 On ch=1 n=c5 v=53
88800 On ch=1 n=g#4 v=53
89040 Off ch=1 n=c5 v=80
89040 On ch=1 n=d5 v=53
89280 Off ch=1 n=g#4 v=80
89280 Off ch=1 n=d5 v=80
89280 On ch=1 n=d#5 v=53
89280 On ch=1 n=g4 v=53
89520 Off ch=1 n=d#5 v=80
89520 On ch=1 n=a#4 v=53
89760 Off ch=1 n=g4 v=80
89760 Off ch=1 n=a#4 v=80
89760 On ch=1 n=a#4 v=53
89760 On ch=1 n=f#4 v=53
90000 Off ch=1 n=a#4 v=80
90000 On ch=1 n=c5 v=53
90240 Off ch=1 n=f#4 v=80
90240 Off ch=1 n=c5 v=80
90240 On ch=1 n=f4 v=53
90240 On ch=1 n=c#5 v=53
90480 Off ch=1 n=c#5 v=80
90480 On ch=1 n=g#4 v=53
90720 Off ch=1 n=f4 v=80
90720 Off ch=1 n=g#4 v=80
90720 On ch=1 n=c#5 v=53
90720 On ch=1 n=f4 v=53
90960 Off ch=1 n=f4 v=80
90960 Off ch=1 n=c#5 v=80
90960 On ch=1 n=f#4 v=53
90960 On ch=1 n=d#5 v=53
91200 Off ch=1 n=d#5 v=80
91200 Off ch=1 n=f#4 v=80
91200 On ch=1 n=f5 v=53
91200 On ch=1 n=g#4 v=53
91440 Off ch=1 n=g#4 v=80
91440 Off ch=1 n=f5 v=80
91440 On ch=1 n=d#4 v=53
91440 On ch=1 n=c5 v=53
91680 Off ch=1 n=c5 v=80
91680 Off ch=1 n=d#4 v=80
91680 On ch=1 n=c5 v=68
91680 On ch=1 n=d#4 v=68
91920 Off ch=1 n=d#4 v=80
91920 Off ch=1 n=c5 v=80
91920 On ch=1 n=d5 v=53
91920 On ch=1 n=f4 v=53
92160 Off ch=1 n=f4 v=80
92160 Off ch=1 n=d5 v=80
92160 On ch=1 n=f#4 v=53
92160 On ch=1 n=d#5 v=53
92400 Off ch=1 n=d#5 v=80
92400 Off ch=1 n=f#4 v=80
92400 On ch=1 n=a#4 v=53
92400 On ch=1 n=c#4 v=53
92640 Off ch=1 n=c#4 v=80
92640 Off ch=1 n=a#4 v=80
92640 On ch=1 n=c#4 v=68
92640 On ch=1 n=a#4 v=68
92880 Off ch=1 n=a#4 v=80
92880 Off ch=1 n=c#4 v=80
92880 On ch=1 n=c5 v=53
92880 On ch=1 n=d#4 v=53
93120 Off ch=1 n=d#4 v=80
93120 Off ch=1 n=c5 v=80
93120 On ch=1 n=e4 v=53
93120 On ch=1 n=c#5 v=53
93360 Off ch=1 n=c#5 v=80
93360 Off ch=1 n=e4 v=80
93360 On ch=1 n=a#4 v=53
93600 On ch=1 n=f4 v=53
93600 On ch=1 n=d5 v=53
93840 Off ch=1 n=d5 v=80
93840 Off ch=1 n=a#4 v=80
93840 On ch=1 n=d#5 v=53
93840 On ch=1 n=c5 v=53
94080 Off ch=1 n=c5 v=80
94080 Off ch=1 n=d#5 v=80
94080 On ch=1 n=d5 v=53
94080 On ch=1 n=f5 v=53
94320 Off ch=1 n=f5 v=80
94320 Off ch=1 n=f4 v=80
94320 Off ch=1 n=d5 v=80
94320 On ch=1 n=c5 v=53
94320 On ch=1 n=a4 v=53
94320 On ch=1 n=f4 v=53
94560 Off ch=1 n=f4 v=80
94560 Off ch=1 n=a4 v=80
94560 Off ch=1 n=c5 v=80
94560 On ch=1 n=f4 v=53
94560 On ch=1 n=a4 v=53
94560 On ch=1 n=c5 v=53
94800 Off ch=1 n=c5 v=80
94800 Off ch=1 n=a4 v=80
94800 On ch=1 n=a#4 v=53
94800 On ch=1 n=d5 v=53
95040 Off ch=1 n=d5 v=80
95040 Off ch=1 n=f4 v=80
95040 Off ch=1 n=a#4 v=80
95040 On ch=1 n=d#5 v=53
95040 On ch=1 n=c5 v=53
95040 On ch=1 n=f4 v=53
95280 Off ch=1 n=c5 v=80
95280 Off ch=1 n=d#5 v=80
95280 On ch=1 n=d5 v=53
95280 On ch=1 n=f5 v=53
95520 Off ch=1 n=f5 v=80
95520 Off ch=1 n=f4 v=80
95520 Off ch=1 n=d5 v=80
95520 On ch=1 n=g5 v=53
95520 On ch=1 n=f4 v=53
95520 On ch=1 n=d#5 v=53
95760 Off ch=1 n=d#5 v=80
95760 Off ch=1 n=g5 v=80
95760 On ch=1 n=f5 v=53
95760 On ch=1 n=d5 v=53
96000 Off ch=1 n=d5 v=80
96000 Off ch=1 n=f4 v=80
96000 Off ch=1 n=f5 v=80
96000 On ch=1 n=d#5 v=53
96000 On ch=1 n=c5 v=53
96000 On ch=1 n=f4 v=53
96240 Off ch=1 n=c5 v=80
96240 Off ch=1 n=d#5 v=80
96240 On ch=1 n=d5 v=53
96240 On ch=1 n=a#4 v=53
96480 Off ch=1 n=a#4 v=80
96480 Off ch=1 n=f4 v=80
96480 Off ch=1 n=d5 v=80
96480 On ch=1 n=g4 v=63
96480 On ch=1 n=c5 v=63
96720 Off ch=1 n=c5 v=80
96720 On ch=1 n=d5 v=63
96720 On ch=1 n=b4 v=63
96960 Off ch=1 n=b4 v=80
96960 Off ch=1 n=g4 v=80
96960 Off ch=1 n=d5 v=80
96960 On ch=1 n=c5 v=73
96960 On ch=1 n=d#5 v=73
97200 Off ch=1 n=d#5 v=80
97200 Off ch=1 n=c5 v=80
97200 On ch=1 n=f5 v=73
97200 On ch=1 n=d5 v=73
97200 On ch=1 n=a#4 v=73
97440 Off ch=1 n=a#4 v=80
97440 Off ch=1 n=d5 v=80
97440 Off ch=1 n=f5 v=80
97440 On ch=1 n=a#4 v=83
97440 On ch=1 n=d#5 v=83
97440 On ch=1 n=g5 v=83
97680 Off ch=1 n=g5 v=80
97680 Off ch=1 n=d#5 v=80
97680 Off ch=1 n=a#4 v=80
97680 On ch=1 n=a5 v=83
97680 On ch=1 n=f#5 v=83
97680 On ch=1 n=d5 v=83
97920 Off ch=1 n=d5 v=80
97920 Off ch=1 n=f#5 v=80
97920 Off ch=1 n=a5 v=80
97920 On ch=1 n=d5 v=93
97920 On ch=1 n=g5 v=93
97920 On ch=1 n=a#5 v=93
98160 Off ch=1 n=a#5 v=80
98160 Off ch=1 n=g5 v=80
98160 Off ch=1 n=d5 v=80
98160 On ch=1 n=c6 v=93
98160 On ch=1 n=a5 v=93
98160 On ch=1 n=f5 v=93
98400 Off ch=1 n=f5 v=80
98400 Off ch=1 n=a5 v=80
98400 Off ch=1 n=c6 v=80
98400 On ch=1 n=f5 v=103
98400 On ch=1 n=a#5 v=103
98400 On ch=1 n=d6 v=103
98640 Off ch=1 n=d6 v=80
98640 Off ch=1 n=a#5 v=80
98640 Off ch=1 n=f5 v=80
98640 On ch=1 n=f6 v=103
98640 On ch=1 n=c6 v=103
98640 On ch=1 n=a5 v=103
98880 Off ch=1 n=a5 v=80
98880 Off ch=1 n=c6 v=80
98880 Off ch=1 n=f6 v=80
98880 On ch=1 n=a#5 v=120
98880 On ch=1 n=d6 v=120
98880 On ch=1 n=f6 v=120
99360 Off ch=1 n=f6 v=80
99360 Off ch=1 n=d6 v=80
99360 Off ch=1 n=a#5 v=80
99360 On ch=1 n=f5 v=78
99360 On ch=1 n=a4 v=78
99600 Off ch=1 n=a4 v=80
99600 Off ch=1 n=f5 v=80
99600 On ch=1 n=a#4 v=78
99600 On ch=1 n=g5 v=78
99840 Off ch=1 n=g5 v=80
99840 Off ch=1 n=a#4 v=80
99840 On ch=1 n=a5 v=78
99840 On ch=1 n=c5 v=78
100080 Off ch=1 n=c5 v=80
100080 Off ch=1 n=a5 v=80
100080 On ch=1 n=f5 v=78
100080 On ch=1 n=a4 v=78
100260 Off ch=1 n=a4 v=80
100260 Off ch=1 n=f5 v=80
100320 On ch=1 n=f5 v=78
100320 On ch=1 n=a4 v=78
100560 Off ch=1 n=a4 v=80
100560 Off ch=1 n=f5 v=80
100560 On ch=1 n=g5 v=78
100560 On ch=1 n=a#4 v=78
100800 Off ch=1 n=a#4 v=80
100800 Off ch=1 n=g5 v=80
100800 On ch=1 n=c5 v=78
100800 On ch=1 n=a5 v=78
101040 Off ch=1 n=a5 v=80
101040 Off ch=1 n=c5 v=80
101040 On ch=1 n=a4 v=78
101040 On ch=1 n=f5 v=78
101220 Off ch=1 n=f5 v=80
101220 Off ch=1 n=a4 v=80
101280 On ch=1 n=a#4 v=81
101280 On ch=1 n=g5 v=81
101520 Off ch=1 n=g5 v=80
101520 Off ch=1 n=a#4 v=80
101520 On ch=1 n=c5 v=84
101520 On ch=1 n=a5 v=84
101760 Off ch=1 n=a5 v=80
101760 Off ch=1 n=c5 v=80
101760 On ch=1 n=d5 v=87
101760 On ch=1 n=a#5 v=87
102000 Off ch=1 n=a#5 v=80
102000 Off ch=1 n=d5 v=80
102000 On ch=1 n=c5 v=90
102000 On ch=1 n=a5 v=90
102240 Off ch=1 n=a5 v=80
102240 Off ch=1 n=c5 v=80
102240 On ch=1 n=g5 v=90
102240 On ch=1 n=a#4 v=90
102480 Off ch=1 n=a#4 v=80
102480 Off ch=1 n=g5 v=80
102480 On ch=1 n=c5 v=90
102480 On ch=1 n=a5 v=90
102720 Off ch=1 n=a5 v=80
102720 Off ch=1 n=c5 v=80
102720 On ch=1 n=a#5 v=90
102720 On ch=1 n=d5 v=90
102960 Off ch=1 n=d5 v=80
102960 Off ch=1 n=a#5 v=80
102960 On ch=1 n=g5 v=90
102960 On ch=1 n=a#4 v=90
103140 Off ch=1 n=a#4 v=80
103140 Off ch=1 n=g5 v=80
103200 On ch=1 n=a#4 v=90
103200 On ch=1 n=g5 v=90
103440 Off ch=1 n=g5 v=80
103440 Off ch=1 n=a#4 v=80
103440 On ch=1 n=c5 v=90
103440 On ch=1 n=a5 v=90
103680 Off ch=1 n=a5 v=80
103680 Off ch=1 n=c5 v=80
103680 On ch=1 n=d5 v=90
103680 On ch=1 n=a#5 v=90
103920 Off ch=1 n=a#5 v=80
103920 Off ch=1 n=d5 v=80
103920 On ch=1 n=a#4 v=90
103920 On ch=1 n=g5 v=90
104100 Off ch=1 n=g5 v=80
104100 Off ch=1 n=a#4 v=80
104160 On ch=1 n=c5 v=93
104160 On ch=1 n=a5 v=93
104400 Off ch=1 n=a5 v=80
104400 Off ch=1 n=c5 v=80
104400 On ch=1 n=a#5 v=96
104400 On ch=1 n=d5 v=96
104640 Off ch=1 n=d5 v=80
104640 Off ch=1 n=a#5 v=80
104640 On ch=1 n=c6 v=99
104640 On ch=1 n=c5 v=99
104880 Off ch=1 n=c5 v=80
104880 Off ch=1 n=c6 v=80
104880 On ch=1 n=a#5 v=102
104880 On ch=1 n=e5 v=102
105120 Off ch=1 n=e5 v=80
105120 Off ch=1 n=a#5 v=80
105120 On ch=1 n=f5 v=90
105120 On ch=1 n=c5 v=90
105120 On ch=1 n=a5 v=90
105360 Off ch=1 n=a5 v=80
105360 Off ch=1 n=c5 v=80
105360 Off ch=1 n=f5 v=80
105360 On ch=1 n=a#5 v=90
105360 On ch=1 n=g5 v=90
105360 On ch=1 n=c5 v=90
105600 Off ch=1 n=c5 v=80
105600 Off ch=1 n=g5 v=80
105600 Off ch=1 n=a#5 v=80
105600 On ch=1 n=c6 v=117
105600 On ch=1 n=a5 v=117
105600 On ch=1 n=c5 v=117
105840 Off ch=1 n=a5 v=80
105840 Off ch=1 n=c6 v=80
105840 On ch=1 n=g5 v=102
105840 On ch=1 n=e5 v=102
106080 Off ch=1 n=e5 v=80
106080 Off ch=1 n=c5 v=80
106080 Off ch=1 n=g5 v=80
106080 On ch=1 n=g5 v=102
106080 On ch=1 n=e5 v=102
106080 On ch=1 n=c5 v=102
106320 Off ch=1 n=c5 v=80
106320 Off ch=1 n=e5 v=80
106320 Off ch=1 n=g5 v=80
106320 On ch=1 n=a5 v=102
106320 On ch=1 n=f5 v=102
106320 On ch=1 n=c5 v=102
106560 Off ch=1 n=c5 v=80
106560 Off ch=1 n=f5 v=80
106560 Off ch=1 n=a5 v=80
106560 On ch=1 n=a#5 v=117
106560 On ch=1 n=g5 v=117
106560 On ch=1 n=c5 v=117
106800 Off ch=1 n=g5 v=80
106800 Off ch=1 n=a#5 v=80
106800 On ch=1 n=f5 v=102
106800 On ch=1 n=d5 v=102
107040 Off ch=1 n=d5 v=80
107040 Off ch=1 n=c5 v=80
107040 Off ch=1 n=f5 v=80
107040 On ch=1 n=f5 v=102
107040 On ch=1 n=d5 v=102
107040 On ch=1 n=c5 v=102
107280 Off ch=1 n=c5 v=80
107280 Off ch=1 n=d5 v=80
107280 Off ch=1 n=f5 v=80
107280 On ch=1 n=c5 v=102
107280 On ch=1 n=e5 v=102
107280 On ch=1 n=g5 v=102
107520 Off ch=1 n=g5 v=80
107520 Off ch=1 n=e5 v=80
107520 Off ch=1 n=c5 v=80
107520 On ch=1 n=a5 v=117
107520 On ch=1 n=f5 v=117
107760 Off ch=1 n=f5 v=80
107760 On ch=1 n=a4 v=102
108000 Off ch=1 n=a5 v=80
108000 Off ch=1 n=a4 v=80
108000 On ch=1 n=a5 v=90
108000 On ch=1 n=c5 v=90
108000 On ch=1 n=f5 v=90
108240 Off ch=1 n=f5 v=80
108240 Off ch=1 n=c5 v=80
108240 Off ch=1 n=a5 v=80
108240 On ch=1 n=a#5 v=90
108240 On ch=1 n=g5 v=90
108240 On ch=1 n=c5 v=90
108480 Off ch=1 n=c5 v=80
108480 Off ch=1 n=g5 v=80
108480 Off ch=1 n=a#5 v=80
108480 On ch=1 n=c6 v=117
108480 On ch=1 n=a5 v=117
108480 On ch=1 n=c5 v=117
108720 Off ch=1 n=a5 v=80
108720 Off ch=1 n=c6 v=80
108720 On ch=1 n=g5 v=102
108720 On ch=1 n=e5 v=102
108960 Off ch=1 n=e5 v=80
108960 Off ch=1 n=c5 v=80
108960 Off ch=1 n=g5 v=80
108960 On ch=1 n=g5 v=102
108960 On ch=1 n=e5 v=102
108960 On ch=1 n=c5 v=102
109200 Off ch=1 n=c5 v=80
109200 Off ch=1 n=e5 v=80
109200 Off ch=1 n=g5 v=80
109200 On ch=1 n=a5 v=102
109200 On ch=1 n=f5 v=102
109200 On ch=1 n=c5 v=102
109440 Off ch=1 n=c5 v=80
109440 Off ch=1 n=f5 v=80
109440 Off ch=1 n=a5 v=80
109440 On ch=1 n=a#5 v=117
109440 On ch=1 n=g5 v=117
109440 On ch=1 n=c5 v=117
109680 Off ch=1 n=g5 v=80
109680 Off ch=1 n=a#5 v=80
109680 On ch=1 n=f5 v=102
109680 On ch=1 n=d5 v=102
109920 Off ch=1 n=d5 v=80
109920 Off ch=1 n=c5 v=80
109920 Off ch=1 n=f5 v=80
109920 On ch=1 n=f5 v=102
109920 On ch=1 n=d5 v=102
109920 On ch=1 n=c5 v=102
110160 Off ch=1 n=c5 v=80
110160 Off ch=1 n=d5 v=80
110160 Off ch=1 n=f5 v=80
110160 On ch=1 n=c5 v=102
110160 On ch=1 n=e5 v=102
110160 On ch=1 n=g5 v=102
110400 Off ch=1 n=g5 v=80
110400 Off ch=1 n=e5 v=80
110400 Off ch=1 n=c5 v=80
110400 On ch=1 n=f5 v=117
110400 On ch=1 n=a5 v=117
110640 Off ch=1 n=f5 v=80
110640 On ch=1 n=a4 v=102
110880 Off ch=1 n=a5 v=80
110880 Off ch=1 n=a4 v=80
110880 On ch=1 n=f5 v=90
110880 On ch=1 n=a5 v=90
111120 Off ch=1 n=f5 v=80
111120 On ch=1 n=a4 v=90
111360 Off ch=1 n=a5 v=80
111360 On ch=1 n=a5 v=105
111360 On ch=1 n=f5 v=105
111600 Off ch=1 n=f5 v=80
111600 Off ch=1 n=a5 v=80
111600 On ch=1 n=g5 v=90
111600 On ch=1 n=d#5 v=90
111840 Off ch=1 n=d#5 v=80
111840 Off ch=1 n=g5 v=80
111840 On ch=1 n=f5 v=90
111840 On ch=1 n=d5 v=90
112080 Off ch=1 n=d5 v=80
112080 Off ch=1 n=f5 v=80
112080 On ch=1 n=d#5 v=90
112080 On ch=1 n=c5 v=90
112320 Off ch=1 n=c5 v=80
112320 Off ch=1 n=d#5 v=80
112320 On ch=1 n=f5 v=90
112320 On ch=1 n=d5 v=90
112560 Off ch=1 n=d5 v=80
112560 Off ch=1 n=a4 v=80
112560 On ch=1 n=a4 v=90
112800 Off ch=1 n=f5 v=80
112800 On ch=1 n=f5 v=105
112800 On ch=1 n=d5 v=105
113040 Off ch=1 n=d5 v=80
113040 Off ch=1 n=f5 v=80
113040 On ch=1 n=d#5 v=90
113040 On ch=1 n=c5 v=90
113280 Off ch=1 n=c5 v=80
113280 Off ch=1 n=a4 v=80
113280 Off ch=1 n=d#5 v=80
113280 On ch=1 n=a#4 v=90
113280 On ch=1 n=d5 v=90
113520 Off ch=1 n=d5 v=80
113520 Off ch=1 n=a#4 v=80
113520 On ch=1 n=a4 v=90
113520 On ch=1 n=c5 v=90
113760 Off ch=1 n=c5 v=80
113760 Off ch=1 n=a4 v=80
113760 On ch=1 n=d5 v=90
113760 On ch=1 n=a#4 v=90
114000 Off ch=1 n=a#4 v=80
114000 Off ch=1 n=d5 v=80
114000 On ch=1 n=a4 v=90
114000 On ch=1 n=c5 v=90
114180 Off ch=1 n=c5 v=80
114180 Off ch=1 n=a4 v=80
114200 On ch=1 n=a#4 v=84
114220 On ch=1 n=d5 v=84
114240 On ch=1 n=f5 v=84
114480 Off ch=1 n=d5 v=80
114480 Off ch=1 n=a#4 v=80
114480 On ch=1 n=c5 v=84
114480 On ch=1 n=a4 v=84
114720 Off ch=1 n=a4 v=80
114720 Off ch=1 n=c5 v=80
114720 On ch=1 n=d5 v=78
114720 On ch=1 n=a#4 v=78
114960 Off ch=1 n=a#4 v=80
114960 Off ch=1 n=d5 v=80
114960 On ch=1 n=a4 v=78
114960 On ch=1 n=c5 v=78
115140 Off ch=1 n=c5 v=80
115140 Off ch=1 n=a4 v=80
115160 On ch=1 n=a#4 v=72
115180 On ch=1 n=d5 v=72
115200 Off ch=1 n=f5 v=80
115200 On ch=1 n=f5 v=72
115440 Off ch=1 n=a#4 v=80
115440 Off ch=1 n=d5 v=80
115440 On ch=1 n=c5 v=72
115440 On ch=1 n=a4 v=72
115680 Off ch=1 n=a4 v=80
115680 Off ch=1 n=c5 v=80
115680 On ch=1 n=d5 v=66
115680 On ch=1 n=a#4 v=66
115920 Off ch=1 n=a#4 v=80
115920 Off ch=1 n=d5 v=80
115920 On ch=1 n=a4 v=66
115920 On ch=1 n=c5 v=66
116100 Off ch=1 n=c5 v=80
116100 Off ch=1 n=a4 v=80
116120 On ch=1 n=a#4 v=60
116140 On ch=1 n=d5 v=60
116160 Off ch=1 n=f5 v=80
116160 On ch=1 n=f5 v=60
116400 Off ch=1 n=a#4 v=80
116400 Off ch=1 n=d5 v=80
116400 On ch=1 n=c5 v=60
116400 On ch=1 n=a4 v=60
116640 Off ch=1 n=a4 v=80
116640 Off ch=1 n=f5 v=80
116640 Off ch=1 n=c5 v=80
116640 On ch=1 n=d5 v=53
116640 On ch=1 n=a#4 v=53
116880 Off ch=1 n=a#4 v=80
116880 Off ch=1 n=d5 v=80
116880 On ch=1 n=c5 v=53
116880 On ch=1 n=d#5 v=53
117120 Off ch=1 n=d#5 v=80
117120 Off ch=1 n=c5 v=80
117120 On ch=1 n=f5 v=53
117120 On ch=1 n=a4 v=53
117360 Off ch=1 n=f5 v=80
117360 On ch=1 n=c5 v=53
117600 Off ch=1 n=a4 v=80
117600 Off ch=1 n=c5 v=80
117600 On ch=1 n=c5 v=53
117600 On ch=1 n=g#4 v=53
117840 Off ch=1 n=c5 v=80
117840 On ch=1 n=d5 v=53
118080 Off ch=1 n=g#4 v=80
118080 Off ch=1 n=d5 v=80
118080 On ch=1 n=d#5 v=53
118080 On ch=1 n=g4 v=53
118320 Off ch=1 n=d#5 v=80
118320 On ch=1 n=a#4 v=53
118560 Off ch=1 n=g4 v=80
118560 Off ch=1 n=a#4 v=80
118560 On ch=1 n=a#4 v=53
118560 On ch=1 n=f#4 v=53
118800 Off ch=1 n=a#4 v=80
118800 On ch=1 n=c5 v=53
119040 Off ch=1 n=f#4 v=80
119040 Off ch=1 n=c5 v=80
119040 On ch=1 n=f4 v=53
119040 On ch=1 n=c#5 v=53
119280 Off ch=1 n=c#5 v=80
119280 On ch=1 n=g#4 v=53
119520 Off ch=1 n=f4 v=80
119520 Off ch=1 n=g#4 v=80
119520 On ch=1 n=c#5 v=53
119520 On ch=1 n=f4 v=53
119760 Off ch=1 n=f4 v=80
119760 Off ch=1 n=c#5 v=80
119760 On ch=1 n=f#4 v=53
119760 On ch=1 n=d#5 v=53
120000 Off ch=1 n=d#5 v=80
120000 Off ch=1 n=f#4 v=80
120000 On ch=1 n=f5 v=53
120000 On ch=1 n=g#4 v=53
120240 Off ch=1 n=g#4 v=80
120240 Off ch=1 n=f5 v=80
120240 On ch=1 n=d#4 v=53
120240 On ch=1 n=c5 v=53
120480 Off ch=1 n=c5 v=80
120480 Off ch=1 n=d#4 v=80
120480 On ch=1 n=c5 v=68
120480 On ch=1 n=d#4 v=68
120720 Off ch=1 n=d#4 v=80
120720 Off ch=1 n=c5 v=80
120720 On ch=1 n=d5 v=53
120720 On ch=1 n=f4 v=53
120960 Off ch=1 n=f4 v=80
120960 Off ch=1 n=d5 v=80
120960 On ch=1 n=f#4 v=53
120960 On ch=1 n=d#5 v=53
121200 Off ch=1 n=d#5 v=80
121200 Off ch=1 n=f#4 v=80
121200 On ch=1 n=a#4 v=53
121200 On ch=1 n=c#4 v=53
121440 Off ch=1 n=c#4 v=80
121440 Off ch=1 n=a#4 v=80
121440 On ch=1 n=c#4 v=68
121440 On ch=1 n=a#4 v=68
121680 Off ch=1 n=a#4 v=80
121680 Off ch=1 n=c#4 v=80
121680 On ch=1 n=c5 v=53
121680 On ch=1 n=d#4 v=53
121920 Off ch=1 n=d#4 v=80
121920 Off ch=1 n=c5 v=80
121920 On ch=1 n=e4 v=53
121920 On ch=1 n=c#5 v=53
122160 Off ch=1 n=c#5 v=80
122160 Off ch=1 n=e4 v=80
122160 On ch=1 n=a#4 v=53
122400 On ch=1 n=f4 v=53
122400 On ch=1 n=d5 v=53
122640 Off ch=1 n=d5 v=80
122640 Off ch=1 n=a#4 v=80
122640 On ch=1 n=d#5 v=53
122640 On ch=1 n=c5 v=53
122880 Off ch=1 n=c5 v=80
122880 Off ch=1 n=d#5 v=80
122880 On ch=1 n=d5 v=53
122880 On ch=1 n=f5 v=53
123120 Off ch=1 n=f5 v=80
123120 Off ch=1 n=f4 v=80
123120 Off ch=1 n=d5 v=80
123120 On ch=1 n=c5 v=53
123120 On ch=1 n=a4 v=53
123120 On ch=1 n=f4 v=53
123360 Off ch=1 n=f4 v=80
123360 Off ch=1 n=a4 v=80
123360 Off ch=1 n=c5 v=80
123360 On ch=1 n=f4 v=53
123360 On ch=1 n=a4 v=53
123360 On ch=1 n=c5 v=53
123600 Off ch=1 n=c5 v=80
123600 Off ch=1 n=a4 v=80
123600 On ch=1 n=a#4 v=53
123600 On ch=1 n=d5 v=53
123840 Off ch=1 n=d5 v=80
123840 Off ch=1 n=f4 v=80
123840 Off ch=1 n=a#4 v=80
123840 On ch=1 n=d#5 v=53
123840 On ch=1 n=c5 v=53
123840 On ch=1 n=f4 v=53
124080 Off ch=1 n=c5 v=80
124080 Off ch=1 n=d#5 v=80
124080 On ch=1 n=d5 v=53
124080 On ch=1 n=f5 v=53
124320 Off ch=1 n=f5 v=80
124320 Off ch=1 n=f4 v=80
124320 Off ch=1 n=d5 v=80
124320 On ch=1 n=g5 v=53
124320 On ch=1 n=f4 v=53
124320 On ch=1 n=d#5 v=53
124560 Off ch=1 n=d#5 v=80
124560 Off ch=1 n=g5 v=80
124560 On ch=1 n=f5 v=53
124560 On ch=1 n=d5 v=53
124800 Off ch=1 n=d5 v=80
124800 Off ch=1 n=f4 v=80
124800 Off ch=1 n=f5 v=80
124800 On ch=1 n=d#5 v=53
124800 On ch=1 n=c5 v=53
124800 On ch=1 n=f4 v=53
125040 Off ch=1 n=c5 v=80
125040 Off ch=1 n=d#5 v=80
125040 On ch=1 n=d5 v=53
125040 On ch=1 n=a#4 v=53
125280 Off ch=1 n=a#4 v=80
125280 Off ch=1 n=f4 v=80
125280 Off ch=1 n=d5 v=80
125280 On ch=1 n=g4 v=63
125280 On ch=1 n=c5 v=63
125520 Off ch=1 n=c5 v=80
125520 On ch=1 n=d5 v=63
125520 On ch=1 n=b4 v=63
125760 Off ch=1 n=b4 v=80
125760 Off ch=1 n=g4 v=80
125760 Off ch=1 n=d5 v=80
125760 On ch=1 n=c5 v=73
125760 On ch=1 n=d#5 v=73
126000 Off ch=1 n=d#5 v=80
126000 Off ch=1 n=c5 v=80
126000 On ch=1 n=f5 v=73
126000 On ch=1 n=d5 v=73
126000 On ch=1 n=a#4 v=73
126240 Off ch=1 n=a#4 v=80
126240 Off ch=1 n=d5 v=80
126240 Off ch=1 n=f5 v=80
126240 On ch=1 n=a#4 v=83
126240 On ch=1 n=d#5 v=83
126240 On ch=1 n=g5 v=83
126480 Off ch=1 n=g5 v=80
126480 Off ch=1 n=d#5 v=80
126480 Off ch=1 n=a#4 v=80
126480 On ch=1 n=a5 v=83
126480 On ch=1 n=f#5 v=83
126480 On ch=1 n=d5 v=83
126720 Off ch=1 n=d5 v=80
126720 Off ch=1 n=f#5 v=80
126720 Off ch=1 n=a5 v=80
126720 On ch=1 n=d5 v=93
126720 On ch=1 n=g5 v=93
126720 On ch=1 n=a#5 v=93
126960 Off ch=1 n=a#5 v=80
126960 Off ch=1 n=g5 v=80
126960 Off ch=1 n=d5 v=80
126960 On ch=1 n=c6 v=93
126960 On ch=1 n=a5 v=93
126960 On ch=1 n=f5 v=93
127200 Off ch=1 n=f5 v=80
127200 Off ch=1 n=a5 v=80
127200 Off ch=1 n=c6 v=80
127200 On ch=1 n=f5 v=103
127200 On ch=1 n=a#5 v=103
127200 On ch=1 n=d6 v=103
127440 Off ch=1 n=d6 v=80
127440 Off ch=1 n=a#5 v=80
127440 Off ch=1 n=f5 v=80
127440 On ch=1 n=d5 v=102
127500 Off ch=1 n=d5 v=80
127560 On ch=1 n=d5 v=102
127620 Off ch=1 n=d5 v=80
127680 On ch=1 n=d#5 v=102
127800 Off ch=1 n=d#5 v=80
127920 On ch=1 n=c#5 v=102
128040 Off ch=1 n=c#5 v=80
128160 On ch=1 n=d5 v=102
128400 Off ch=1 n=d5 v=80
128400 On ch=1 n=d6 v=102
128400 On ch=1 n=a6 v=102
128400 On ch=1 n=d7 v=102
128520 Off ch=1 n=d7 v=80
128520 Off ch=1 n=a6 v=80
128520 Off ch=1 n=d6 v=80
128640 On ch=1 n=g6 v=78
128640 On ch=1 n=d6 v=78
128760 Off ch=1 n=d6 v=80
128760 Off ch=1 n=g6 v=80
128880 On ch=1 n=a6 v=78
128880 On ch=1 n=e6 v=78
129000 Off ch=1 n=e6 v=80
129000 Off ch=1 n=a6 v=80
129120 On ch=1 n=c6 v=120
129120 On ch=1 n=d6 v=120
129360 Off ch=1 n=d6 v=80
129360 On ch=1 n=e6 v=78
129480 Off ch=1 n=e6 v=80
129480 On ch=1 n=f#6 v=78
129600 Off ch=1 n=c6 v=80
129600 Off ch=1 n=f#6 v=80
129600 On ch=1 n=g6 v=78
129600 On ch=1 n=a#5 v=78
129720 Off ch=1 n=a#5 v=80
129720 Off ch=1 n=g6 v=80
129840 On ch=1 n=c6 v=78
129840 On ch=1 n=g5 v=78
129840 On ch=1 n=d#6 v=78
130020 Off ch=1 n=d#6 v=80
130020 Off ch=1 n=g5 v=80
130020 Off ch=1 n=c6 v=80
130080 On ch=1 n=d6 v=78
130080 On ch=1 n=a5 v=78
130080 On ch=1 n=f#5 v=78
130260 Off ch=1 n=f#5 v=80
130260 Off ch=1 n=a5 v=80
130260 Off ch=1 n=d6 v=80
130320 On ch=1 n=a#4 v=102
130380 Off ch=1 n=a#4 v=80
130440 On ch=1 n=a#4 v=102
130500 Off ch=1 n=a#4 v=80
130560 On ch=1 n=c5 v=102
130680 Off ch=1 n=c5 v=80
130800 On ch=1 n=a4 v=102
130920 Off ch=1 n=a4 v=80
131040 On ch=1 n=a#4 v=102
131280 Off ch=1 n=a#4 v=80
131280 On ch=1 n=a#5 v=102
131280 On ch=1 n=a#6 v=102
131400 Off ch=1 n=a#6 v=80
131400 Off ch=1 n=a#5 v=80
131520 On ch=1 n=d#6 v=78
131520 On ch=1 n=a#5 v=78
131640 Off ch=1 n=a#5 v=80
131640 Off ch=1 n=d#6 v=80
131760 On ch=1 n=f6 v=78
131760 On ch=1 n=c6 v=78
131880 Off ch=1 n=c6 v=80
131880 Off ch=1 n=f6 v=80
132000 On ch=1 n=g#5 v=120
132000 On ch=1 n=a#5 v=120
132240 Off ch=1 n=a#5 v=80
132240 On ch=1 n=c6 v=78
132360 Off ch=1 n=c6 v=80
132360 On ch=1 n=d6 v=78
132480 Off ch=1 n=g#5 v=80
132480 Off ch=1 n=d6 v=80
132480 On ch=1 n=d#6 v=78
132480 On ch=1 n=g5 v=78
132600 Off ch=1 n=g5 v=80
132600 Off ch=1 n=d#6 v=80
132720 On ch=1 n=g#5 v=78
132720 On ch=1 n=d#5 v=78
132720 On ch=1 n=c6 v=78
132900 Off ch=1 n=c6 v=80
132900 Off ch=1 n=d#5 v=80
132900 Off ch=1 n=g#5 v=80
132960 On ch=1 n=f5 v=78
132960 On ch=1 n=d5 v=78
132960 On ch=1 n=b5 v=78
133140 Off ch=1 n=b5 v=80
133140 Off ch=1 n=d5 v=80
133140 Off ch=1 n=f5 v=80
133200 On ch=1 n=g4 v=102
133260 Off ch=1 n=g4 v=80
133320 On ch=1 n=g4 v=102
133380 Off ch=1 n=g4 v=80
133440 On ch=1 n=g#4 v=102
133560 Off ch=1 n=g#4 v=80
133680 On ch=1 n=f#4 v=102
133800 Off ch=1 n=f#4 v=80
133920 On ch=1 n=g4 v=102
134160 On ch=1 n=g5 v=102
134280 Off ch=1 n=g5 v=80
134400 On ch=1 n=c5 v=102
134520 Off ch=1 n=c5 v=80
134640 On ch=1 n=d5 v=102
134760 Off ch=1 n=d5 v=80
134880 Off ch=1 n=g4 v=80
134880 On ch=1 n=g4 v=122
134940 Off ch=1 n=g4 v=80
134940 On ch=1 n=a4 v=107
135000 Off ch=1 n=a4 v=80
135000 On ch=1 n=g4 v=107
135060 Off ch=1 n=g4 v=80
135060 On ch=1 n=a4 v=107
135120 Off ch=1 n=a4 v=80
135120 On ch=1 n=g4 v=107
135180 Off ch=1 n=g4 v=80
135180 On ch=1 n=a4 v=107
135240 Off ch=1 n=a4 v=80
135240 On ch=1 n=a4 v=107
135300 Off ch=1 n=a4 v=80
135300 On ch=1 n=b4 v=107
135360 Off ch=1 n=b4 v=80
135360 On ch=1 n=c5 v=127
135600 On ch=1 n=c6 v=127
135720 Off ch=1 n=c6 v=80
135840 On ch=1 n=f5 v=127
135960 Off ch=1 n=f5 v=80
136080 On ch=1 n=g5 v=127
136200 Off ch=1 n=g5 v=80
136320 Off ch=1 n=c5 v=80
136320 On ch=1 n=c5 v=127
136380 Off ch=1 n=c5 v=80
136380 On ch=1 n=d5 v=117
136440 Off ch=1 n=d5 v=80
136440 On ch=1 n=c5 v=117
136500 Off ch=1 n=c5 v=80
136500 On ch=1 n=d5 v=117
136560 Off ch=1 n=d5 v=80
136560 On ch=1 n=c5 v=117
136620 Off ch=1 n=c5 v=80
136620 On ch=1 n=d5 v=117
136680 Off ch=1 n=d5 v=80
136680 On ch=1 n=d5 v=117
136740 Off ch=1 n=d5 v=80
136740 On ch=1 n=e5 v=117
136800 Off ch=1 n=e5 v=80
136800 On ch=1 n=f5 v=122
137040 On ch=1 n=f6 v=122
137160 Off ch=1 n=f6 v=80
137280 On ch=1 n=a#5 v=122
137400 Off ch=1 n=a#5 v=80
137520 On ch=1 n=c6 v=122
137640 Off ch=1 n=c6 v=80
137760 Off ch=1 n=f5 v=80
137760 On ch=1 n=b5 v=127
137760 On ch=1 n=f5 v=127
138000 On ch=1 n=c6 v=122
138120 Off ch=1 n=c6 v=80
138120 On ch=1 n=d6 v=122
138240 Off ch=1 n=f5 v=80
138240 Off ch=1 n=d6 v=80
138240 On ch=1 n=d#6 v=122
138240 On ch=1 n=g5 v=122
138360 Off ch=1 n=g5 v=80
138360 Off ch=1 n=b5 v=80
138360 Off ch=1 n=d#6 v=80
138480 On ch=1 n=d6 v=122
138480 On ch=1 n=b5 v=122
138480 On ch=1 n=f5 v=122
138600 Off ch=1 n=f5 v=80
138600 Off ch=1 n=b5 v=80
138600 Off ch=1 n=d6 v=80
138720 On ch=1 n=c#6 v=122
138720 On ch=1 n=a5 v=122
138720 On ch=1 n=e5 v=122
138840 Off ch=1 n=e5 v=80
138840 Off ch=1 n=a5 v=80
138840 Off ch=1 n=c#6 v=80
138960 On ch=1 n=a4 v=102
139020 Off ch=1 n=a4 v=80
139080 On ch=1 n=a4 v=102
139140 Off ch=1 n=a4 v=80
139200 On ch=1 n=a#4 v=102
139320 Off ch=1 n=a#4 v=80
139440 On ch=1 n=g#4 v=102
139560 Off ch=1 n=g#4 v=80
139680 On ch=1 n=a4 v=102
139920 On ch=1 n=a5 v=102
140040 Off ch=1 n=a5 v=80
140160 On ch=1 n=d5 v=102
140280 Off ch=1 n=d5 v=80
140400 On ch=1 n=e5 v=102
140520 Off ch=1 n=e5 v=80
140640 Off ch=1 n=a4 v=80
140640 On ch=1 n=a4 v=107
140700 Off ch=1 n=a4 v=80
140700 On ch=1 n=b4 v=107
140760 Off ch=1 n=b4 v=80
140760 On ch=1 n=a4 v=107
140820 Off ch=1 n=a4 v=80
140820 On ch=1 n=b4 v=107
140880 Off ch=1 n=b4 v=80
140880 On ch=1 n=a4 v=107
140940 Off ch=1 n=a4 v=80
140940 On ch=1 n=b4 v=107
141000 Off ch=1 n=b4 v=80
141000 On ch=1 n=b4 v=107
141060 Off ch=1 n=b4 v=80
141060 On ch=1 n=c#5 v=107
141120 Off ch=1 n=c#5 v=80
141120 On ch=1 n=d5 v=127
141360 On ch=1 n=d6 v=127
141480 Off ch=1 n=d6 v=80
141600 On ch=1 n=g5 v=127
141720 Off ch=1 n=g5 v=80
141840 On ch=1 n=a5 v=127
141960 Off ch=1 n=a5 v=80
142080 Off ch=1 n=d5 v=80
142080 On ch=1 n=d5 v=117
142140 Off ch=1 n=d5 v=80
142140 On ch=1 n=e5 v=117
142200 Off ch=1 n=e5 v=80
142200 On ch=1 n=d5 v=117
142260 Off ch=1 n=d5 v=80
142260 On ch=1 n=e5 v=117
142320 Off ch=1 n=e5 v=80
142320 On ch=1 n=d5 v=117
142380 Off ch=1 n=d5 v=80
142380 On ch=1 n=e5 v=117
142440 Off ch=1 n=e5 v=80
142440 On ch=1 n=e5 v=117
142500 Off ch=1 n=e5 v=80
142500 On ch=1 n=f#5 v=117
142560 Off ch=1 n=f#5 v=80
142560 On ch=1 n=g5 v=122
142800 On ch=1 n=g6 v=122
142920 Off ch=1 n=g6 v=80
143040 On ch=1 n=c6 v=122
143160 Off ch=1 n=c6 v=80
143280 On ch=1 n=d6 v=122
143400 Off ch=1 n=d6 v=80
143520 Off ch=1 n=g5 v=80
143520 On ch=1 n=g5 v=127
143520 On ch=1 n=c#6 v=127
143760 On ch=1 n=d6 v=122
143880 Off ch=1 n=d6 v=80
143880 On ch=1 n=e6 v=122
144000 Off ch=1 n=g5 v=80
144000 Off ch=1 n=e6 v=80
144000 On ch=1 n=f6 v=122
144000 On ch=1 n=a5 v=122
144120 Off ch=1 n=a5 v=80
144120 Off ch=1 n=c#6 v=80
144120 Off ch=1 n=f6 v=80
144240 On ch=1 n=e6 v=122
144240 On ch=1 n=c#6 v=122
144240 On ch=1 n=g5 v=122
144360 Off ch=1 n=g5 v=80
144360 Off ch=1 n=c#6 v=80
144360 Off ch=1 n=e6 v=80
144480 On ch=1 n=d#6 v=122
144480 On ch=1 n=b5 v=122
144480 On ch=1 n=f#5 v=122
144600 Off ch=1 n=f#5 v=80
144600 Off ch=1 n=b5 v=80
144600 Off ch=1 n=d#6 v=80
144720 On ch=1 n=b4 v=102
144780 Off ch=1 n=b4 v=80
144840 On ch=1 n=b4 v=102
144900 Off ch=1 n=b4 v=80
144960 On ch=1 n=c#5 v=102
145080 Off ch=1 n=c#5 v=80
145200 On ch=1 n=a#4 v=102
145320 Off ch=1 n=a#4 v=80
145440 On ch=1 n=b4 v=102
145680 Off ch=1 n=b4 v=80
145680 On ch=1 n=g6 v=117
145680 On ch=1 n=e6 v=117
145680 On ch=1 n=a#5 v=117
145860 Off ch=1 n=a#5 v=80
145860 Off ch=1 n=e6 v=80
145860 Off ch=1 n=g6 v=80
145920 On ch=1 n=b5 v=117
145920 On ch=1 n=d#6 v=117
145920 On ch=1 n=f#6 v=117
146100 Off ch=1 n=f#6 v=80
146100 Off ch=1 n=d#6 v=80
146100 Off ch=1 n=b5 v=80
146160 On ch=1 n=b4 v=102
146220 Off ch=1 n=b4 v=80
146280 On ch=1 n=b4 v=102
146340 Off ch=1 n=b4 v=80
146400 On ch=1 n=c#5 v=102
146520 Off ch=1 n=c#5 v=80
146640 On ch=1 n=a#4 v=102
146760 Off ch=1 n=a#4 v=80
146880 On ch=1 n=b4 v=102
147120 Off ch=1 n=b4 v=80
147120 On ch=1 n=d6 v=127
147120 On ch=1 n=f6 v=127
147120 On ch=1 n=g#5 v=127
147120 On ch=1 n=g#6 v=127
147600 Off ch=1 n=g#6 v=80
147600 Off ch=1 n=g#5 v=80
147600 Off ch=1 n=f6 v=80
147600 Off ch=1 n=d6 v=80
147600 On ch=1 n=a#4 v=102
147660 Off ch=1 n=a#4 v=80
147720 On ch=1 n=a#4 v=102
147780 Off ch=1 n=a#4 v=80
147840 On ch=1 n=c5 v=102
147960 Off ch=1 n=c5 v=80
148080 On ch=1 n=a4 v=102
148200 Off ch=1 n=a4 v=80
148320 On ch=1 n=a#4 v=102
148560 Off ch=1 n=a#4 v=80
148560 On ch=1 n=g6 v=117
148560 On ch=1 n=d#6 v=117
148560 On ch=1 n=g5 v=117
148740 Off ch=1 n=g5 v=80
148740 Off ch=1 n=d#6 v=80
148740 Off ch=1 n=g6 v=80
148800 On ch=1 n=g#5 v=117
148800 On ch=1 n=d6 v=117
148800 On ch=1 n=f6 v=117
148980 Off ch=1 n=f6 v=80
148980 Off ch=1 n=d6 v=80
148980 Off ch=1 n=g#5 v=80
149040 On ch=1 n=a4 v=114
149100 Off ch=1 n=a4 v=80
149160 On ch=1 n=a4 v=90
149220 Off ch=1 n=a4 v=80
149280 On ch=1 n=a#4 v=90
149400 Off ch=1 n=a#4 v=80
149520 On ch=1 n=g#4 v=90
149640 Off ch=1 n=g#4 v=80
149760 On ch=1 n=a4 v=90
149970 Off ch=1 n=a4 v=80
150000 On ch=1 n=a5 v=102
150000 On ch=1 n=e6 v=102
150000 On ch=1 n=a6 v=102
150120 Off ch=1 n=a6 v=80
150120 Off ch=1 n=e6 v=80
150120 Off ch=1 n=a5 v=80
150240 On ch=1 n=d6 v=78
150240 On ch=1 n=a5 v=78
150360 Off ch=1 n=a5 v=80
150360 Off ch=1 n=d6 v=80
150480 On ch=1 n=e6 v=78
150480 On ch=1 n=b5 v=78
150600 Off ch=1 n=b5 v=80
150600 Off ch=1 n=e6 v=80
150720 On ch=1 n=a5 v=120
150720 On ch=1 n=g5 v=120
150960 Off ch=1 n=a5 v=80
150960 On ch=1 n=b5 v=78
151080 Off ch=1 n=b5 v=80
151080 On ch=1 n=c#6 v=78
151200 Off ch=1 n=g5 v=80
151200 Off ch=1 n=c#6 v=80
151200 On ch=1 n=d6 v=78
151200 On ch=1 n=f#5 v=78
151440 Off ch=1 n=f#5 v=80
151440 Off ch=1 n=d6 v=80
151440 On ch=1 n=f#5 v=84
151920 Off ch=1 n=f#5 v=80
151920 On ch=1 n=f#6 v=120
151920 On ch=1 n=f#5 v=120
152400 Off ch=1 n=f#5 v=80
152400 Off ch=1 n=f#6 v=80
152400 On ch=1 n=e6 v=96
152400 On ch=1 n=f#5 v=96
152640 Off ch=1 n=f#5 v=80
152640 Off ch=1 n=e6 v=80
152640 On ch=1 n=d6 v=102
152760 Off ch=1 n=d6 v=80
152760 On ch=1 n=e6 v=102
152880 Off ch=1 n=e6 v=80
152880 On ch=1 n=d6 v=102
153000 Off ch=1 n=d6 v=80
153000 On ch=1 n=c#6 v=102
153120 Off ch=1 n=c#6 v=80
153120 On ch=1 n=b5 v=102
153240 Off ch=1 n=b5 v=80
153240 On ch=1 n=c#6 v=102
153360 Off ch=1 n=c#6 v=80
153360 On ch=1 n=b5 v=102
153480 Off ch=1 n=b5 v=80
153480 On ch=1 n=a5 v=102
153600 Off ch=1 n=a5 v=80
153600 On ch=1 n=g#5 v=102
153840 Off ch=1 n=g#5 v=80
153840 On ch=1 n=g#5 v=102
153840 On ch=1 n=e6 v=102
153960 Off ch=1 n=e6 v=80
153960 Off ch=1 n=g#5 v=80
154080 On ch=1 n=a5 v=102
154080 On ch=1 n=g5 v=102
154200 Off ch=1 n=g5 v=80
154200 Off ch=1 n=a5 v=80
154320 On ch=1 n=a4 v=114
154380 Off ch=1 n=a4 v=80
154440 On ch=1 n=a4 v=90
154500 Off ch=1 n=a4 v=80
154560 On ch=1 n=a#4 v=90
154680 Off ch=1 n=a#4 v=80
154800 On ch=1 n=g#4 v=90
154920 Off ch=1 n=g#4 v=80
155040 On ch=1 n=a4 v=90
155160 Off ch=1 n=a4 v=80
155280 On ch=1 n=a5 v=102
155280 On ch=1 n=e6 v=102
155280 On ch=1 n=a6 v=102
155400 Off ch=1 n=a6 v=80
155400 Off ch=1 n=e6 v=80
155400 Off ch=1 n=a5 v=80
155520 On ch=1 n=d6 v=78
155520 On ch=1 n=a5 v=78
155640 Off ch=1 n=a5 v=80
155640 Off ch=1 n=d6 v=80
155760 On ch=1 n=e6 v=78
155760 On ch=1 n=b5 v=78
155880 Off ch=1 n=b5 v=80
155880 Off ch=1 n=e6 v=80
156000 On ch=1 n=g5 v=120
156000 On ch=1 n=a5 v=120
156240 Off ch=1 n=a5 v=80
156240 On ch=1 n=b5 v=78
156360 Off ch=1 n=b5 v=80
156360 On ch=1 n=c#6 v=78
156480 Off ch=1 n=g5 v=80
156480 Off ch=1 n=c#6 v=80
156480 On ch=1 n=d6 v=78
156480 On ch=1 n=f#5 v=78
156600 Off ch=1 n=f#5 v=80
156600 Off ch=1 n=d6 v=80
156720 On ch=1 n=g#5 v=78
156720 On ch=1 n=d5 v=78
156900 Off ch=1 n=d5 v=80
156900 Off ch=1 n=g#5 v=80
156960 On ch=1 n=a5 v=78
156960 On ch=1 n=c#5 v=78
157140 Off ch=1 n=c#5 v=80
157140 Off ch=1 n=a5 v=80
157200 On ch=1 n=g5 v=78
157200 On ch=1 n=e5 v=78
157200 On ch=1 n=a4 v=78
157380 Off ch=1 n=a4 v=80
157380 Off ch=1 n=e5 v=80
157380 Off ch=1 n=g5 v=80
157440 On ch=1 n=f#5 v=78
157440 On ch=1 n=d5 v=78
157440 On ch=1 n=a4 v=78
157620 Off ch=1 n=a4 v=80
157620 Off ch=1 n=d5 v=80
157620 Off ch=1 n=f#5 v=80
157680 On ch=1 n=f5 v=81
157680 On ch=1 n=d5 v=81
157680 On ch=1 n=b4 v=81
157860 Off ch=1 n=b4 v=80
157860 Off ch=1 n=d5 v=80
157860 Off ch=1 n=f5 v=80
157920 On ch=1 n=e5 v=84
157920 On ch=1 n=c#5 v=84
158100 Off ch=1 n=c#5 v=80
158100 Off ch=1 n=e5 v=80
158160 On ch=1 n=a5 v=87
158160 On ch=1 n=e5 v=87
158160 On ch=1 n=c5 v=87
158340 Off ch=1 n=c5 v=80
158340 Off ch=1 n=e5 v=80
158340 Off ch=1 n=a5 v=80
158400 On ch=1 n=a5 v=90
158400 On ch=1 n=d#5 v=90
158400 On ch=1 n=b4 v=90
158580 Off ch=1 n=b4 v=80
158580 Off ch=1 n=d#5 v=80
158580 Off ch=1 n=a5 v=80
158640 On ch=1 n=b5 v=93
159120 Off ch=1 n=b5 v=80
159120 On ch=1 n=b6 v=120
159120 On ch=1 n=f#6 v=120
159120 On ch=1 n=b5 v=120
159600 Off ch=1 n=b6 v=80
159600 On ch=1 n=a6 v=99
159840 Off ch=1 n=f#6 v=80
159840 Off ch=1 n=b5 v=80
159840 Off ch=1 n=a6 v=80
159840 On ch=1 n=g6 v=102
159960 Off ch=1 n=g6 v=80
159960 On ch=1 n=a6 v=102
160080 Off ch=1 n=a6 v=80
160080 On ch=1 n=g6 v=102
160200 Off ch=1 n=g6 v=80
160200 On ch=1 n=f#6 v=102
160320 Off ch=1 n=f#6 v=80
160320 On ch=1 n=e6 v=102
160440 Off ch=1 n=e6 v=80
160440 On ch=1 n=f#6 v=102
160560 Off ch=1 n=f#6 v=80
160560 On ch=1 n=e6 v=102
160680 Off ch=1 n=e6 v=80
160680 On ch=1 n=d6 v=102
160800 Off ch=1 n=d6 v=80
160800 On ch=1 n=c6 v=102
161040 Off ch=1 n=c6 v=80
161040 On ch=1 n=a6 v=102
161040 On ch=1 n=c6 v=102
161160 Off ch=1 n=c6 v=80
161160 Off ch=1 n=a6 v=80
161280 On ch=1 n=c6 v=102
161280 On ch=1 n=d6 v=102
161490 Off ch=1 n=d6 v=80
161490 Off ch=1 n=c6 v=80
161520 On ch=1 n=d5 v=114
161580 Off ch=1 n=d5 v=80
161640 On ch=1 n=d5 v=90
161700 Off ch=1 n=d5 v=80
161760 On ch=1 n=d#5 v=90
161880 Off ch=1 n=d#5 v=80
162000 On ch=1 n=c#5 v=90
162120 Off ch=1 n=c#5 v=80
162240 On ch=1 n=d5 v=90
162360 Off ch=1 n=d5 v=80
162480 On ch=1 n=d6 v=102
162480 On ch=1 n=a6 v=102
162480 On ch=1 n=d7 v=102
162600 Off ch=1 n=d7 v=80
162600 Off ch=1 n=a6 v=80
162600 Off ch=1 n=d6 v=80
162720 On ch=1 n=g6 v=78
162720 On ch=1 n=d6 v=78
162840 Off ch=1 n=d6 v=80
162840 Off ch=1 n=g6 v=80
162960 On ch=1 n=a6 v=78
162960 On ch=1 n=e6 v=78
163080 Off ch=1 n=e6 v=80
163080 Off ch=1 n=a6 v=80
163200 On ch=1 n=c6 v=120
163200 On ch=1 n=d6 v=120
163440 Off ch=1 n=d6 v=80
163440 On ch=1 n=e6 v=78
163560 Off ch=1 n=e6 v=80
163560 On ch=1 n=f#6 v=78
163680 Off ch=1 n=c6 v=80
163680 Off ch=1 n=f#6 v=80
163680 On ch=1 n=g6 v=78
163680 On ch=1 n=b5 v=78
163800 Off ch=1 n=b5 v=80
163800 Off ch=1 n=g6 v=80
163920 On ch=1 n=c#6 v=78
163920 On ch=1 n=g5 v=78
164100 Off ch=1 n=g5 v=80
164100 Off ch=1 n=c#6 v=80
164160 On ch=1 n=d6 v=78
164160 On ch=1 n=f#5 v=78
164340 Off ch=1 n=f#5 v=80
164340 Off ch=1 n=d6 v=80
164400 On ch=1 n=c6 v=78
164400 On ch=1 n=a5 v=78
164400 On ch=1 n=d5 v=78
164580 Off ch=1 n=d5 v=80
164580 Off ch=1 n=a5 v=80
164580 Off ch=1 n=c6 v=80
164640 On ch=1 n=b5 v=78
164640 On ch=1 n=g5 v=78
164640 On ch=1 n=d5 v=78
164820 Off ch=1 n=d5 v=80
164820 Off ch=1 n=g5 v=80
164820 Off ch=1 n=b5 v=80
164880 On ch=1 n=a5 v=81
164880 On ch=1 n=f#5 v=81
164880 On ch=1 n=c5 v=81
165060 Off ch=1 n=c5 v=80
165060 Off ch=1 n=f#5 v=80
165060 Off ch=1 n=a5 v=80
165120 On ch=1 n=e5 v=84
165120 On ch=1 n=g5 v=84
165120 On ch=1 n=b4 v=84
165300 Off ch=1 n=b4 v=80
165300 Off ch=1 n=g5 v=80
165300 Off ch=1 n=e5 v=80
165360 On ch=1 n=b4 v=87
165360 On ch=1 n=e5 v=87
165360 On ch=1 n=g#5 v=87
165540 Off ch=1 n=g#5 v=80
165540 Off ch=1 n=e5 v=80
165540 Off ch=1 n=b4 v=80
165600 On ch=1 n=a5 v=98
165600 On ch=1 n=e5 v=98
165600 On ch=1 n=a4 v=98
165780 Off ch=1 n=a4 v=80
165780 Off ch=1 n=e5 v=80
165780 Off ch=1 n=a5 v=80
165840 On ch=1 n=b5 v=106
165840 On ch=1 n=g#5 v=106
165840 On ch=1 n=e5 v=106
166020 Off ch=1 n=e5 v=80
166020 Off ch=1 n=g#5 v=80
166020 Off ch=1 n=b5 v=80
166080 On ch=1 n=e5 v=114
166080 On ch=1 n=a5 v=114
166080 On ch=1 n=c#6 v=114
166260 Off ch=1 n=c#6 v=80
166260 Off ch=1 n=a5 v=80
166260 Off ch=1 n=e5 v=80
166560 On ch=1 n=d6 v=114
166560 On ch=1 n=a5 v=114
166560 On ch=1 n=f#5 v=114
166800 Off ch=1 n=f#5 v=80
166800 Off ch=1 n=a5 v=80
166800 Off ch=1 n=d6 v=80
167040 On ch=1 n=a5 v=65
167280 On ch=1 n=g5 v=41
167280 On ch=1 n=e5 v=41
167640 Off ch=1 n=e5 v=80
167640 Off ch=1 n=g5 v=80
167760 On ch=1 n=e5 v=41
167760 On ch=1 n=g5 v=41
168120 Off ch=1 n=g5 v=80
168120 Off ch=1 n=e5 v=80
168240 On ch=1 n=g5 v=41
168240 On ch=1 n=e5 v=41
168420 Off ch=1 n=e5 v=80
168420 Off ch=1 n=g5 v=80
168480 Off ch=1 n=a5 v=80
168480 On ch=1 n=a5 v=65
168720 On ch=1 n=f#5 v=41
168720 On ch=1 n=d5 v=41
168900 Off ch=1 n=d5 v=80
168900 Off ch=1 n=f#5 v=80
168960 On ch=1 n=f#5 v=41
168960 On ch=1 n=d5 v=41
169140 Off ch=1 n=d5 v=80
169140 Off ch=1 n=f#5 v=80
169200 On ch=1 n=f#5 v=41
169200 On ch=1 n=d5 v=41
169380 Off ch=1 n=d5 v=80
169380 Off ch=1 n=f#5 v=80
169440 Off ch=1 n=a5 v=80
169440 On ch=1 n=b5 v=80
169680 On ch=1 n=e5 v=41
169680 On ch=1 n=d5 v=41
169920 Off ch=1 n=d5 v=80
169920 Off ch=1 n=e5 v=80
169920 Off ch=1 n=b5 v=80
169920 On ch=1 n=a5 v=65
170160 On ch=1 n=e5 v=47
170160 On ch=1 n=g5 v=47
170640 Off ch=1 n=g5 v=80
170640 Off ch=1 n=e5 v=80
170640 On ch=1 n=g5 v=47
170640 On ch=1 n=e5 v=47
171120 Off ch=1 n=e5 v=80
171120 Off ch=1 n=g5 v=80
171120 On ch=1 n=g5 v=47
171120 On ch=1 n=e5 v=47
171360 Off ch=1 n=e5 v=80
171360 Off ch=1 n=a5 v=80
171360 Off ch=1 n=g5 v=80
171360 On ch=1 n=a5 v=65
171600 On ch=1 n=f#5 v=53
171600 On ch=1 n=d5 v=53
171840 Off ch=1 n=d5 v=80
171840 Off ch=1 n=f#5 v=80
171840 On ch=1 n=f#5 v=53
171840 On ch=1 n=d5 v=53
172080 Off ch=1 n=d5 v=80
172080 Off ch=1 n=f#5 v=80
172080 On ch=1 n=f#5 v=53
172080 On ch=1 n=d5 v=53
172320 Off ch=1 n=d5 v=80
172320 Off ch=1 n=a5 v=80
172320 Off ch=1 n=f#5 v=80
172320 On ch=1 n=d6 v=80
172560 On ch=1 n=e5 v=53
172560 On ch=1 n=d5 v=53
172800 Off ch=1 n=d5 v=80
172800 Off ch=1 n=e5 v=80
172800 Off ch=1 n=d6 v=80
172800 On ch=1 n=a5 v=59
173040 On ch=1 n=e5 v=47
173040 On ch=1 n=g5 v=47
173280 Off ch=1 n=g5 v=80
173280 Off ch=1 n=e5 v=80
173280 On ch=1 n=e5 v=47
173280 On ch=1 n=g5 v=47
173520 Off ch=1 n=g5 v=80
173520 Off ch=1 n=e5 v=80
173520 On ch=1 n=e5 v=47
173520 On ch=1 n=g5 v=47
173760 Off ch=1 n=g5 v=80
173760 Off ch=1 n=e5 v=80
174000 On ch=1 n=g5 v=47
174000 On ch=1 n=e5 v=47
174240 Off ch=1 n=e5 v=80
174240 Off ch=1 n=a5 v=80
174240 Off ch=1 n=g5 v=80
174240 On ch=1 n=a5 v=65
174480 On ch=1 n=d5 v=53
174480 On ch=1 n=f#5 v=53
174960 Off ch=1 n=f#5 v=80
174960 Off ch=1 n=d5 v=80
174960 On ch=1 n=d5 v=53
174960 On ch=1 n=f#5 v=53
175200 Off ch=1 n=a5 v=80
175200 On ch=1 n=b5 v=80
175440 Off ch=1 n=d5 v=80
175440 Off ch=1 n=f#5 v=80
175440 On ch=1 n=d5 v=53
175440 On ch=1 n=e5 v=53
175680 Off ch=1 n=e5 v=80
175680 Off ch=1 n=b5 v=80
175680 Off ch=1 n=d5 v=80
175680 On ch=1 n=a5 v=59
175920 On ch=1 n=c#5 v=47
175920 On ch=1 n=e5 v=47
176160 Off ch=1 n=e5 v=80
176160 Off ch=1 n=c#5 v=80
176160 On ch=1 n=c#5 v=47
176160 On ch=1 n=e5 v=47
176400 Off ch=1 n=e5 v=80
176400 Off ch=1 n=c#5 v=80
176400 On ch=1 n=c#5 v=47
176400 On ch=1 n=e5 v=47
176640 Off ch=1 n=e5 v=80
176640 Off ch=1 n=c#5 v=80
176880 On ch=1 n=c#5 v=47
176880 On ch=1 n=e5 v=47
177120 Off ch=1 n=e5 v=80
177120 Off ch=1 n=a5 v=80
177120 Off ch=1 n=c#5 v=80
177120 On ch=1 n=a5 v=59
177360 On ch=1 n=d5 v=47
177840 Off ch=1 n=d5 v=80
177840 On ch=1 n=d5 v=44
178320 Off ch=1 n=d5 v=80
178320 On ch=1 n=d5 v=41
178560 Off ch=1 n=a5 v=80
178560 Off ch=1 n=d5 v=80
178560 On ch=1 n=d5 v=65
178800 On ch=1 n=d6 v=53
178800 On ch=1 n=a5 v=53
179160 Off ch=1 n=a5 v=80
179160 Off ch=1 n=d6 v=80
179280 On ch=1 n=d6 v=53
179280 On ch=1 n=a5 v=53
179640 Off ch=1 n=a5 v=80
179640 Off ch=1 n=d6 v=80
179760 On ch=1 n=d6 v=53
179760 On ch=1 n=a5 v=53
179940 Off ch=1 n=a5 v=80
179940 Off ch=1 n=d6 v=80
180000 Off ch=1 n=d5 v=80
180000 On ch=1 n=d5 v=65
180240 On ch=1 n=g5 v=53
180240 On ch=1 n=d6 v=53
180420 Off ch=1 n=d6 v=80
180420 Off ch=1 n=g5 v=80
180480 On ch=1 n=g5 v=53
180480 On ch=1 n=d6 v=53
180660 Off ch=1 n=d6 v=80
180660 Off ch=1 n=g5 v=80
180720 On ch=1 n=g5 v=53
180720 On ch=1 n=d6 v=53
180900 Off ch=1 n=d6 v=80
180900 Off ch=1 n=g5 v=80
180960 Off ch=1 n=d5 v=80
180960 On ch=1 n=e5 v=80
181200 On ch=1 n=c#6 v=53
181200 On ch=1 n=g5 v=53
181440 Off ch=1 n=g5 v=80
181440 Off ch=1 n=c#6 v=80
181440 Off ch=1 n=e5 v=80
181440 On ch=1 n=d5 v=65
181680 On ch=1 n=d6 v=47
181680 On ch=1 n=a5 v=47
182160 Off ch=1 n=a5 v=80
182160 Off ch=1 n=d6 v=80
182160 On ch=1 n=d6 v=47
182160 On ch=1 n=a5 v=47
182640 Off ch=1 n=a5 v=80
182640 Off ch=1 n=d6 v=80
182640 On ch=1 n=d6 v=47
182640 On ch=1 n=a5 v=47
182880 Off ch=1 n=a5 v=80
182880 Off ch=1 n=d5 v=80
182880 Off ch=1 n=d6 v=80
182880 On ch=1 n=d5 v=65
183120 On ch=1 n=d6 v=53
183120 On ch=1 n=g5 v=53
183360 Off ch=1 n=g5 v=80
183360 Off ch=1 n=d6 v=80
183360 On ch=1 n=d6 v=53
183360 On ch=1 n=g5 v=53
183600 Off ch=1 n=g5 v=80
183600 Off ch=1 n=d6 v=80
183600 On ch=1 n=d6 v=53
183600 On ch=1 n=g5 v=53
183840 Off ch=1 n=g5 v=80
183840 Off ch=1 n=d5 v=80
183840 Off ch=1 n=d6 v=80
183840 On ch=1 n=g5 v=80
184080 On ch=1 n=e5 v=53
184080 On ch=1 n=a#5 v=53
184080 On ch=1 n=c#6 v=53
184320 Off ch=1 n=c#6 v=80
184320 Off ch=1 n=a#5 v=80
184320 Off ch=1 n=e5 v=80
184320 Off ch=1 n=g5 v=80
184320 On ch=1 n=d5 v=59
184560 On ch=1 n=d6 v=47
184560 On ch=1 n=a5 v=47
184800 Off ch=1 n=a5 v=80
184800 Off ch=1 n=d6 v=80
184800 On ch=1 n=d6 v=47
184800 On ch=1 n=a5 v=47
185040 Off ch=1 n=a5 v=80
185040 Off ch=1 n=d6 v=80
185040 On ch=1 n=d6 v=47
185040 On ch=1 n=a5 v=47
185280 Off ch=1 n=a5 v=80
185280 Off ch=1 n=d6 v=80
185520 On ch=1 n=d6 v=47
185520 On ch=1 n=a5 v=47
185760 Off ch=1 n=a5 v=80
185760 Off ch=1 n=d5 v=80
185760 Off ch=1 n=d6 v=80
185760 On ch=1 n=d5 v=59
186000 On ch=1 n=d6 v=47
186000 On ch=1 n=g5 v=47
186480 Off ch=1 n=g5 v=80
186480 Off ch=1 n=d6 v=80
186480 On ch=1 n=d6 v=47
186480 On ch=1 n=g5 v=47
186720 Off ch=1 n=d5 v=80
186720 On ch=1 n=e5 v=59
186960 Off ch=1 n=d6 v=80
186960 Off ch=1 n=g5 v=80
186960 On ch=1 n=c#6 v=47
186960 On ch=1 n=g5 v=47
187200 Off ch=1 n=g5 v=80
187200 Off ch=1 n=e5 v=80
187200 Off ch=1 n=c#6 v=80
187200 On ch=1 n=e6 v=59
187440 On ch=1 n=g5 v=47
187920 Off ch=1 n=e6 v=80
187920 On ch=1 n=d6 v=62
188160 Off ch=1 n=d6 v=80
188160 On ch=1 n=c#6 v=65
188400 Off ch=1 n=c#6 v=80
188400 On ch=1 n=d6 v=68
188640 Off ch=1 n=d6 v=80
188640 On ch=1 n=d6 v=78
188880 Off ch=1 n=g5 v=80
188880 On ch=1 n=g5 v=65
189360 Off ch=1 n=d6 v=80
189360 On ch=1 n=c6 v=74
189600 Off ch=1 n=g5 v=80
189600 On ch=1 n=g5 v=60
189840 Off ch=1 n=c6 v=80
189840 On ch=1 n=a#5 v=70
190080 Off ch=1 n=g5 v=80
190080 Off ch=1 n=a#5 v=80
190080 On ch=1 n=a5 v=65
190320 On ch=1 n=g5 v=53
190320 On ch=1 n=e5 v=53
190800 Off ch=1 n=e5 v=80
190800 Off ch=1 n=g5 v=80
190800 On ch=1 n=e5 v=53
190800 On ch=1 n=g5 v=53
191280 Off ch=1 n=g5 v=80
191280 Off ch=1 n=e5 v=80
191280 On ch=1 n=e5 v=53
191280 On ch=1 n=g5 v=53
191520 Off ch=1 n=g5 v=80
191520 Off ch=1 n=a5 v=80
191520 Off ch=1 n=e5 v=80
191520 On ch=1 n=a5 v=65
191760 On ch=1 n=d5 v=53
191760 On ch=1 n=f#5 v=53
192240 Off ch=1 n=f#5 v=80
192240 Off ch=1 n=d5 v=80
192240 On ch=1 n=d5 v=53
192240 On ch=1 n=f#5 v=53
192480 Off ch=1 n=a5 v=80
192480 On ch=1 n=b5 v=80
192720 Off ch=1 n=d5 v=80
192720 Off ch=1 n=f#5 v=80
192720 On ch=1 n=d5 v=53
192720 On ch=1 n=e5 v=53
192960 Off ch=1 n=e5 v=80
192960 Off ch=1 n=b5 v=80
192960 Off ch=1 n=d5 v=80
192960 On ch=1 n=a5 v=65
193200 On ch=1 n=a4 v=47
193200 On ch=1 n=e5 v=47
193680 Off ch=1 n=e5 v=80
193680 Off ch=1 n=a4 v=80
193680 On ch=1 n=a4 v=47
193680 On ch=1 n=e5 v=47
194160 Off ch=1 n=e5 v=80
194160 Off ch=1 n=a4 v=80
194160 On ch=1 n=a4 v=47
194160 On ch=1 n=e5 v=47
194400 Off ch=1 n=e5 v=80
194400 Off ch=1 n=a5 v=80
194400 Off ch=1 n=a4 v=80
194400 On ch=1 n=a5 v=65
194640 On ch=1 n=a4 v=53
194640 On ch=1 n=d5 v=53
194880 Off ch=1 n=d5 v=80
194880 Off ch=1 n=a4 v=80
194880 On ch=1 n=a4 v=53
194880 On ch=1 n=d5 v=53
195120 Off ch=1 n=d5 v=80
195120 Off ch=1 n=a4 v=80
195120 On ch=1 n=a4 v=53
195120 On ch=1 n=d5 v=53
195360 Off ch=1 n=d5 v=80
195360 Off ch=1 n=a5 v=80
195360 Off ch=1 n=a4 v=80
195360 On ch=1 n=d6 v=80
195600 On ch=1 n=b4 v=53
195600 On ch=1 n=d5 v=53
195840 Off ch=1 n=d5 v=80
195840 Off ch=1 n=b4 v=80
195840 Off ch=1 n=d6 v=80
195840 On ch=1 n=a5 v=59
196080 On ch=1 n=g5 v=47
196080 On ch=1 n=c#5 v=47
196560 Off ch=1 n=c#5 v=80
196560 Off ch=1 n=g5 v=80
196560 On ch=1 n=g5 v=47
196560 On ch=1 n=c#5 v=47
197040 Off ch=1 n=c#5 v=80
197040 Off ch=1 n=g5 v=80
197040 On ch=1 n=g5 v=47
197040 On ch=1 n=e5 v=47
197280 Off ch=1 n=e5 v=80
197280 Off ch=1 n=a5 v=80
197280 Off ch=1 n=g5 v=80
197280 On ch=1 n=a5 v=65
197520 On ch=1 n=d5 v=53
197520 On ch=1 n=f#5 v=53
197760 Off ch=1 n=f#5 v=80
197760 Off ch=1 n=d5 v=80
197760 On ch=1 n=f#5 v=53
197760 On ch=1 n=d5 v=53
198000 Off ch=1 n=d5 v=80
198000 Off ch=1 n=f#5 v=80
198000 On ch=1 n=f#5 v=53
198000 On ch=1 n=d5 v=53
198240 Off ch=1 n=d5 v=80
198240 Off ch=1 n=a5 v=80
198240 Off ch=1 n=f#5 v=80
198240 On ch=1 n=b5 v=80
198480 On ch=1 n=e5 v=53
198480 On ch=1 n=d5 v=53
198720 Off ch=1 n=d5 v=80
198720 Off ch=1 n=e5 v=80
198720 Off ch=1 n=b5 v=80
198720 On ch=1 n=a5 v=59
198960 On ch=1 n=c#5 v=53
198960 On ch=1 n=e5 v=53
199440 Off ch=1 n=e5 v=80
199440 Off ch=1 n=c#5 v=80
199440 On ch=1 n=e5 v=50
199440 On ch=1 n=c#5 v=50
199920 On ch=1 n=c#5 v=47
199920 On ch=1 n=e5 v=47
200160 Off ch=1 n=a5 v=80
200160 On ch=1 n=a5 v=59
200272 Off ch=1 n=c#5 v=80
200272 Off ch=1 n=e5 v=80
200400 Off ch=1 n=e5 v=80
200400 Off ch=1 n=c#5 v=80
200400 On ch=1 n=d#5 v=47
200400 On ch=1 n=c5 v=47
200640 Off ch=1 n=c5 v=80
200640 Off ch=1 n=d#5 v=80
200640 On ch=1 n=d#5 v=47
200640 On ch=1 n=c5 v=47
200880 Off ch=1 n=c5 v=80
200880 Off ch=1 n=d#5 v=80
201120 Off ch=1 n=a5 v=80
201840 On ch=1 n=f5 v=65
201960 Off ch=1 n=f5 v=80
202080 On ch=1 n=a#4 v=65
202200 Off ch=1 n=a#4 v=80
202320 On ch=1 n=c5 v=65
202440 Off ch=1 n=c5 v=80
202560 On ch=1 n=f4 v=65
202800 Off ch=1 n=f4 v=80
202800 On ch=1 n=g4 v=65
202920 Off ch=1 n=g4 v=80
202920 On ch=1 n=a4 v=65
203040 Off ch=1 n=a4 v=80
203040 On ch=1 n=a#4 v=65
203160 Off ch=1 n=a#4 v=80
203280 On ch=1 n=a#5 v=65
203400 Off ch=1 n=a#5 v=80
203520 On ch=1 n=d#5 v=65
203640 Off ch=1 n=d#5 v=80
203760 On ch=1 n=f5 v=65
203880 Off ch=1 n=f5 v=80
204000 On ch=1 n=a#4 v=65
204240 Off ch=1 n=a#4 v=80
204240 On ch=1 n=c5 v=69
204360 Off ch=1 n=c5 v=80
204360 On ch=1 n=d5 v=73
204480 Off ch=1 n=d5 v=80
204480 On ch=1 n=d#5 v=78
204600 Off ch=1 n=d#5 v=80
204720 On ch=1 n=d#6 v=78
204840 Off ch=1 n=d#6 v=80
204960 On ch=1 n=g#5 v=78
205080 Off ch=1 n=g#5 v=80
205200 On ch=1 n=a#5 v=78
205320 Off ch=1 n=a#5 v=80
205440 On ch=1 n=d#5 v=78
205680 On ch=1 n=f5 v=78
205800 Off ch=1 n=f5 v=80
205800 On ch=1 n=g5 v=78
205920 Off ch=1 n=d#5 v=80
205920 Off ch=1 n=g5 v=80
205920 On ch=1 n=g#5 v=78
206100 Off ch=1 n=g#5 v=80
206160 On ch=1 n=g#5 v=78
206160 On ch=1 n=d5 v=78
206340 Off ch=1 n=d5 v=80
206340 Off ch=1 n=g#5 v=80
206400 On ch=1 n=g5 v=78
206400 On ch=1 n=d#5 v=78
206580 Off ch=1 n=d#5 v=80
206580 Off ch=1 n=g5 v=80
207600 On ch=1 n=c5 v=65
207720 Off ch=1 n=c5 v=80
207840 On ch=1 n=f4 v=65
207960 Off ch=1 n=f4 v=80
208080 On ch=1 n=g4 v=65
208200 Off ch=1 n=g4 v=80
208320 On ch=1 n=c4 v=65
208560 Off ch=1 n=c4 v=80
208560 On ch=1 n=d4 v=65
208680 Off ch=1 n=d4 v=80
208680 On ch=1 n=e4 v=65
208800 Off ch=1 n=e4 v=80
208800 On ch=1 n=f4 v=65
208920 Off ch=1 n=f4 v=80
209040 On ch=1 n=f5 v=65
209160 Off ch=1 n=f5 v=80
209280 On ch=1 n=a#4 v=65
209400 Off ch=1 n=a#4 v=80
209520 On ch=1 n=c5 v=65
209640 Off ch=1 n=c5 v=80
209760 On ch=1 n=f4 v=65
210000 Off ch=1 n=f4 v=80
210000 On ch=1 n=g4 v=69
210120 Off ch=1 n=g4 v=80
210120 On ch=1 n=a4 v=73
210240 Off ch=1 n=a4 v=80
210240 On ch=1 n=a#4 v=78
210360 Off ch=1 n=a#4 v=80
210480 On ch=1 n=a#5 v=78
210600 Off ch=1 n=a#5 v=80
210720 On ch=1 n=d#5 v=78
210840 Off ch=1 n=d#5 v=80
210960 On ch=1 n=f5 v=78
211080 Off ch=1 n=f5 v=80
211200 On ch=1 n=a#4 v=78
211440 On ch=1 n=c5 v=78
211560 Off ch=1 n=c5 v=80
211560 On ch=1 n=d5 v=78
211680 Off ch=1 n=a#4 v=80
211680 Off ch=1 n=d5 v=80
211680 On ch=1 n=d#5 v=78
211860 Off ch=1 n=d#5 v=80
211920 On ch=1 n=d#5 v=78
211920 On ch=1 n=a4 v=78
212100 Off ch=1 n=a4 v=80
212100 Off ch=1 n=d#5 v=80
212160 On ch=1 n=a#4 v=78
212160 On ch=1 n=c#5 v=78
212340 Off ch=1 n=c#5 v=80
212340 Off ch=1 n=a#4 v=80
213360 On ch=1 n=f#4 v=65
213480 Off ch=1 n=f#4 v=80
213600 On ch=1 n=b3 v=65
213720 Off ch=1 n=b3 v=80
213840 On ch=1 n=c#4 v=65
213960 Off ch=1 n=c#4 v=80
214080 On ch=1 n=f#3 v=65
214320 Off ch=1 n=f#3 v=80
214320 On ch=1 n=g#3 v=65
214440 Off ch=1 n=g#3 v=80
214440 On ch=1 n=a#3 v=65
214560 Off ch=1 n=a#3 v=80
214560 On ch=1 n=b3 v=65
214680 Off ch=1 n=b3 v=80
214800 On ch=1 n=c4 v=65
214800 On ch=1 n=a#3 v=65
214920 Off ch=1 n=a#3 v=80
214920 Off ch=1 n=c4 v=80
215040 On ch=1 n=b3 v=65
215040 On ch=1 n=d4 v=65
216240 Off ch=1 n=d4 v=80
216240 Off ch=1 n=b3 v=80
216240 On ch=1 n=g4 v=65
216360 Off ch=1 n=g4 v=80
216480 On ch=1 n=c4 v=65
216600 Off ch=1 n=c4 v=80
216720 On ch=1 n=d4 v=65
216840 Off ch=1 n=d4 v=80
216960 On ch=1 n=g3 v=65
217200 Off ch=1 n=g3 v=80
217200 On ch=1 n=a3 v=65
217320 Off ch=1 n=a3 v=80
217320 On ch=1 n=b3 v=65
217440 Off ch=1 n=b3 v=80
217440 On ch=1 n=c4 v=65
217560 Off ch=1 n=c4 v=80
217680 On ch=1 n=d4 v=65
217680 On ch=1 n=b3 v=65
217800 Off ch=1 n=b3 v=80
217800 Off ch=1 n=d4 v=80
217920 On ch=1 n=e4 v=65
217920 On ch=1 n=c4 v=65
218880 Off ch=1 n=c4 v=80
218880 Off ch=1 n=e4 v=80
219120 On ch=1 n=a4 v=65
219360 On ch=1 n=d4 v=65
219600 Off ch=1 n=d4 v=80
219600 On ch=1 n=e4 v=65
219840 Off ch=1 n=a4 v=80
219840 Off ch=1 n=e4 v=80
219840 On ch=1 n=a3 v=65
219840 On ch=1 n=g4 v=65
220080 Off ch=1 n=a3 v=80
220080 On ch=1 n=b3 v=65
220200 Off ch=1 n=b3 v=80
220200 On ch=1 n=c#4 v=65
220320 Off ch=1 n=g4 v=80
220320 Off ch=1 n=c#4 v=80
220320 On ch=1 n=f#4 v=65
220320 On ch=1 n=d4 v=65
220560 Off ch=1 n=d4 v=80
220560 Off ch=1 n=f#4 v=80
220560 On ch=1 n=d5 v=80
220800 On ch=1 n=g4 v=65
221040 Off ch=1 n=g4 v=80
221040 On ch=1 n=a4 v=65
221280 Off ch=1 n=d5 v=80
221280 Off ch=1 n=a4 v=80
221280 On ch=1 n=d4 v=65
221280 On ch=1 n=c#5 v=65
221520 Off ch=1 n=d4 v=80
221520 On ch=1 n=e4 v=65
221640 Off ch=1 n=e4 v=80
221640 On ch=1 n=f#4 v=65
221760 Off ch=1 n=c#5 v=80
221760 Off ch=1 n=f#4 v=80
221760 On ch=1 n=b4 v=65
221760 On ch=1 n=g4 v=65
222000 Off ch=1 n=g4 v=80
222000 Off ch=1 n=b4 v=80
222000 On ch=1 n=g4 v=72
222240 On ch=1 n=c#4 v=72
222480 Off ch=1 n=c#4 v=80
222480 On ch=1 n=d4 v=72
222720 Off ch=1 n=g4 v=80
222720 Off ch=1 n=d4 v=80
222720 On ch=1 n=g3 v=72
222720 On ch=1 n=f#4 v=72
222960 Off ch=1 n=g3 v=80
222960 On ch=1 n=a3 v=72
223080 Off ch=1 n=a3 v=80
223080 On ch=1 n=b3 v=72
223200 Off ch=1 n=f#4 v=80
223200 Off ch=1 n=b3 v=80
223200 On ch=1 n=e4 v=72
223200 On ch=1 n=c#4 v=72
223440 Off ch=1 n=c#4 v=80
223440 Off ch=1 n=e4 v=80
223440 On ch=1 n=c#5 v=94
223680 On ch=1 n=f#4 v=79
223920 Off ch=1 n=f#4 v=80
223920 On ch=1 n=g4 v=79
224160 Off ch=1 n=c#5 v=80
224160 Off ch=1 n=g4 v=80
224160 On ch=1 n=c#4 v=79
224160 On ch=1 n=b4 v=79
224400 Off ch=1 n=c#4 v=80
224400 On ch=1 n=d4 v=79
224520 Off ch=1 n=d4 v=80
224520 On ch=1 n=e4 v=79
224640 Off ch=1 n=b4 v=80
224640 Off ch=1 n=e4 v=80
224640 On ch=1 n=f#4 v=79
224640 On ch=1 n=a4 v=79
224880 Off ch=1 n=a4 v=80
224880 Off ch=1 n=f#4 v=80
224880 On ch=1 n=f#5 v=86
225120 On ch=1 n=b4 v=86
225360 Off ch=1 n=b4 v=80
225360 On ch=1 n=c#5 v=86
225600 Off ch=1 n=f#5 v=80
225600 Off ch=1 n=c#5 v=80
225600 On ch=1 n=f#4 v=86
225600 On ch=1 n=e5 v=86
225840 Off ch=1 n=f#4 v=80
225840 On ch=1 n=g4 v=86
225960 Off ch=1 n=g4 v=80
225960 On ch=1 n=a4 v=86
226080 Off ch=1 n=e5 v=80
226080 Off ch=1 n=a4 v=80
226080 On ch=1 n=d5 v=86
226080 On ch=1 n=b4 v=86
226320 Off ch=1 n=b4 v=80
226320 Off ch=1 n=d5 v=80
226320 On ch=1 n=b5 v=108
226560 On ch=1 n=e5 v=93
226800 Off ch=1 n=e5 v=80
226800 On ch=1 n=f#5 v=93
227040 Off ch=1 n=b5 v=80
227040 Off ch=1 n=f#5 v=80
227040 On ch=1 n=b4 v=93
227040 On ch=1 n=a5 v=93
227280 Off ch=1 n=b4 v=80
227280 On ch=1 n=c#5 v=93
227400 Off ch=1 n=c#5 v=80
227400 On ch=1 n=d5 v=93
227520 Off ch=1 n=a5 v=80
227520 Off ch=1 n=d5 v=80
227520 On ch=1 n=e5 v=100
227520 On ch=1 n=g5 v=115
227760 Off ch=1 n=e5 v=80
227760 On ch=1 n=d5 v=100
227880 Off ch=1 n=d5 v=80
227880 On ch=1 n=c#5 v=100
228000 Off ch=1 n=g5 v=80
228000 Off ch=1 n=c#5 v=80
228000 On ch=1 n=f5 v=100
228000 On ch=1 n=g#5 v=115
228240 Off ch=1 n=f5 v=80
228240 On ch=1 n=e5 v=100
228360 Off ch=1 n=e5 v=80
228360 On ch=1 n=d5 v=100
228480 Off ch=1 n=g#5 v=80
228480 Off ch=1 n=d5 v=80
228480 On ch=1 n=f#5 v=107
228480 On ch=1 n=a5 v=122
228720 Off ch=1 n=f#5 v=80
228720 On ch=1 n=e5 v=107
228840 Off ch=1 n=e5 v=80
228840 On ch=1 n=d5 v=107
228960 Off ch=1 n=a5 v=80
228960 Off ch=1 n=d5 v=80
228960 On ch=1 n=g5 v=107
228960 On ch=1 n=b5 v=122
229200 Off ch=1 n=g5 v=80
229200 On ch=1 n=f#5 v=107
229320 Off ch=1 n=f#5 v=80
229320 On ch=1 n=e5 v=107
229440 Off ch=1 n=b5 v=80
229440 Off ch=1 n=e5 v=80
229440 On ch=1 n=c#6 v=127
229440 On ch=1 n=a5 v=127
229680 Off ch=1 n=a5 v=80
229680 Off ch=1 n=c#6 v=80
229680 On ch=1 n=a4 v=114
229740 Off ch=1 n=a4 v=80
229800 On ch=1 n=a4 v=90
229860 Off ch=1 n=a4 v=80
229920 On ch=1 n=a#4 v=90
230040 Off ch=1 n=a#4 v=80
230160 On ch=1 n=g#4 v=90
230280 Off ch=1 n=g#4 v=80
230400 On ch=1 n=a4 v=90
230610 Off ch=1 n=a4 v=80
230640 On ch=1 n=a5 v=102
230640 On ch=1 n=e6 v=102
230640 On ch=1 n=a6 v=102
230760 Off ch=1 n=a6 v=80
230760 Off ch=1 n=e6 v=80
230760 Off ch=1 n=a5 v=80
230880 On ch=1 n=d6 v=78
230880 On ch=1 n=a5 v=78
231000 Off ch=1 n=a5 v=80
231000 Off ch=1 n=d6 v=80
231120 On ch=1 n=e6 v=78
231120 On ch=1 n=b5 v=78
231240 Off ch=1 n=b5 v=80
231240 Off ch=1 n=e6 v=80
231360 On ch=1 n=a5 v=120
231360 On ch=1 n=g5 v=120
231600 Off ch=1 n=a5 v=80
231600 On ch=1 n=b5 v=78
231720 Off ch=1 n=b5 v=80
231720 On ch=1 n=c#6 v=78
231840 Off ch=1 n=g5 v=80
231840 Off ch=1 n=c#6 v=80
231840 On ch=1 n=d6 v=78
231840 On ch=1 n=f#5 v=78
232080 Off ch=1 n=f#5 v=80
232080 Off ch=1 n=d6 v=80
232080 On ch=1 n=f#5 v=84
232560 Off ch=1 n=f#5 v=80
232560 On ch=1 n=f#6 v=120
232560 On ch=1 n=f#5 v=120
233040 Off ch=1 n=f#5 v=80
233040 Off ch=1 n=f#6 v=80
233040 On ch=1 n=e6 v=96
233040 On ch=1 n=f#5 v=96
233280 Off ch=1 n=f#5 v=80
233280 Off ch=1 n=e6 v=80
233280 On ch=1 n=d6 v=102
233400 Off ch=1 n=d6 v=80
233400 On ch=1 n=e6 v=102
233520 Off ch=1 n=e6 v=80
233520 On ch=1 n=d6 v=102
233640 Off ch=1 n=d6 v=80
233640 On ch=1 n=c#6 v=102
233760 Off ch=1 n=c#6 v=80
233760 On ch=1 n=b5 v=102
233880 Off ch=1 n=b5 v=80
233880 On ch=1 n=c#6 v=102
234000 Off ch=1 n=c#6 v=80
234000 On ch=1 n=b5 v=102
234120 Off ch=1 n=b5 v=80
234120 On ch=1 n=a5 v=102
234240 Off ch=1 n=a5 v=80
234240 On ch=1 n=g#5 v=102
234480 Off ch=1 n=g#5 v=80
234480 On ch=1 n=g#5 v=102
234480 On ch=1 n=e6 v=102
234600 Off ch=1 n=e6 v=80
234600 Off ch=1 n=g#5 v=80
234720 On ch=1 n=a5 v=102
234720 On ch=1 n=g5 v=102
234840 Off ch=1 n=g5 v=80
234840 Off ch=1 n=a5 v=80
234960 On ch=1 n=a4 v=114
235020 Off ch=1 n=a4 v=80
235080 On ch=1 n=a4 v=90
235140 Off ch=1 n=a4 v=80
235200 On ch=1 n=a#4 v=90
235320 Off ch=1 n=a#4 v=80
235440 On ch=1 n=g#4 v=90
235560 Off ch=1 n=g#4 v=80
235680 On ch=1 n=a4 v=90
235800 Off ch=1 n=a4 v=80
235920 On ch=1 n=a5 v=102
235920 On ch=1 n=e6 v=102
235920 On ch=1 n=a6 v=102
236040 Off ch=1 n=a6 v=80
236040 Off ch=1 n=e6 v=80
236040 Off ch=1 n=a5 v=80
236160 On ch=1 n=d6 v=78
236160 On ch=1 n=a5 v=78
236280 Off ch=1 n=a5 v=80
236280 Off ch=1 n=d6 v=80
236400 On ch=1 n=e6 v=78
236400 On ch=1 n=b5 v=78
236520 Off ch=1 n=b5 v=80
236520 Off ch=1 n=e6 v=80
236640 On ch=1 n=g5 v=120
236640 On ch=1 n=a5 v=120
236880 Off ch=1 n=a5 v=80
236880 On ch=1 n=b5 v=78
237000 Off ch=1 n=b5 v=80
237000 On ch=1 n=c#6 v=78
237120 Off ch=1 n=g5 v=80
237120 Off ch=1 n=c#6 v=80
237120 On ch=1 n=d6 v=78
237120 On ch=1 n=f#5 v=78
237240 Off ch=1 n=f#5 v=80
237240 Off ch=1 n=d6 v=80
237360 On ch=1 n=g#5 v=78
237360 On ch=1 n=d5 v=78
237540 Off ch=1 n=d5 v=80
237540 Off ch=1 n=g#5 v=80
237600 On ch=1 n=a5 v=78
237600 On ch=1 n=c#5 v=78
237780 Off ch=1 n=c#5 v=80
237780 Off ch=1 n=a5 v=80
237840 On ch=1 n=g5 v=78
237840 On ch=1 n=e5 v=78
237840 On ch=1 n=a4 v=78
238020 Off ch=1 n=a4 v=80
238020 Off ch=1 n=e5 v=80
238020 Off ch=1 n=g5 v=80
238080 On ch=1 n=f#5 v=78
238080 On ch=1 n=d5 v=78
238080 On ch=1 n=a4 v=78
238260 Off ch=1 n=a4 v=80
238260 Off ch=1 n=d5 v=80
238260 Off ch=1 n=f#5 v=80
238320 On ch=1 n=f5 v=81
238320 On ch=1 n=d5 v=81
238320 On ch=1 n=b4 v=81
238500 Off ch=1 n=b4 v=80
238500 Off ch=1 n=d5 v=80
238500 Off ch=1 n=f5 v=80
238560 On ch=1 n=e5 v=84
238560 On ch=1 n=c#5 v=84
238740 Off ch=1 n=c#5 v=80
238740 Off ch=1 n=e5 v=80
238800 On ch=1 n=a5 v=87
238800 On ch=1 n=e5 v=87
238800 On ch=1 n=c5 v=87
238980 Off ch=1 n=c5 v=80
238980 Off ch=1 n=e5 v=80
238980 Off ch=1 n=a5 v=80
239040 On ch=1 n=a5 v=90
239040 On ch=1 n=d#5 v=90
239040 On ch=1 n=b4 v=90
239220 Off ch=1 n=b4 v=80
239220 Off ch=1 n=d#5 v=80
239220 Off ch=1 n=a5 v=80
239280 On ch=1 n=b5 v=93
239760 Off ch=1 n=b5 v=80
239760 On ch=1 n=b6 v=120
239760 On ch=1 n=f#6 v=120
239760 On ch=1 n=b5 v=120
240240 Off ch=1 n=b6 v=80
240240 On ch=1 n=a6 v=99
240480 Off ch=1 n=f#6 v=80
240480 Off ch=1 n=b5 v=80
240480 Off ch=1 n=a6 v=80
240480 On ch=1 n=g6 v=102
240600 Off ch=1 n=g6 v=80
240600 On ch=1 n=a6 v=102
240720 Off ch=1 n=a6 v=80
240720 On ch=1 n=g6 v=102
240840 Off ch=1 n=g6 v=80
240840 On ch=1 n=f#6 v=102
240960 Off ch=1 n=f#6 v=80
240960 On ch=1 n=e6 v=102
241080 Off ch=1 n=e6 v=80
241080 On ch=1 n=f#6 v=102
241200 Off ch=1 n=f#6 v=80
241200 On ch=1 n=e6 v=102
241320 Off ch=1 n=e6 v=80
241320 On ch=1 n=d6 v=102
241440 Off ch=1 n=d6 v=80
241440 On ch=1 n=c6 v=102
241680 Off ch=1 n=c6 v=80
241680 On ch=1 n=a6 v=102
241680 On ch=1 n=c6 v=102
241800 Off ch=1 n=c6 v=80
241800 Off ch=1 n=a6 v=80
241920 On ch=1 n=c6 v=102
241920 On ch=1 n=d6 v=102
242130 Off ch=1 n=d6 v=80
242130 Off ch=1 n=c6 v=80
242160 On ch=1 n=d5 v=114
242220 Off ch=1 n=d5 v=80
242280 On ch=1 n=d5 v=90
242340 Off ch=1 n=d5 v=80
242400 On ch=1 n=d#5 v=90
242520 Off ch=1 n=d#5 v=80
242640 On ch=1 n=c#5 v=90
242760 Off ch=1 n=c#5 v=80
242880 On ch=1 n=d5 v=90
243000 Off ch=1 n=d5 v=80
243120 On ch=1 n=d6 v=102
243120 On ch=1 n=a6 v=102
243120 On ch=1 n=d7 v=102
243240 Off ch=1 n=d7 v=80
243240 Off ch=1 n=a6 v=80
243240 Off ch=1 n=d6 v=80
243360 On ch=1 n=g6 v=78
243360 On ch=1 n=d6 v=78
243480 Off ch=1 n=d6 v=80
243480 Off ch=1 n=g6 v=80
243600 On ch=1 n=a6 v=78
243600 On ch=1 n=e6 v=78
243720 Off ch=1 n=e6 v=80
243720 Off ch=1 n=a6 v=80
243840 On ch=1 n=c6 v=120
243840 On ch=1 n=d6 v=120
244080 Off ch=1 n=d6 v=80
244080 On ch=1 n=e6 v=78
244200 Off ch=1 n=e6 v=80
244200 On ch=1 n=f#6 v=78
244320 Off ch=1 n=c6 v=80
244320 Off ch=1 n=f#6 v=80
244320 On ch=1 n=g6 v=78
244320 On ch=1 n=b5 v=78
244440 Off ch=1 n=b5 v=80
244440 Off ch=1 n=g6 v=80
244560 On ch=1 n=c#6 v=78
244560 On ch=1 n=g5 v=78
244740 Off ch=1 n=g5 v=80
244740 Off ch=1 n=c#6 v=80
244800 On ch=1 n=d6 v=78
244800 On ch=1 n=f#5 v=78
244980 Off ch=1 n=f#5 v=80
244980 Off ch=1 n=d6 v=80
245040 On ch=1 n=c6 v=78
245040 On ch=1 n=a5 v=78
245040 On ch=1 n=d5 v=78
245220 Off ch=1 n=d5 v=80
245220 Off ch=1 n=a5 v=80
245220 Off ch=1 n=c6 v=80
245280 On ch=1 n=b5 v=78
245280 On ch=1 n=g5 v=78
245280 On ch=1 n=d5 v=78
245460 Off ch=1 n=d5 v=80
245460 Off ch=1 n=g5 v=80
245460 Off ch=1 n=b5 v=80
245520 On ch=1 n=a5 v=81
245520 On ch=1 n=f#5 v=81
245520 On ch=1 n=c5 v=81
245700 Off ch=1 n=c5 v=80
245700 Off ch=1 n=f#5 v=80
245700 Off ch=1 n=a5 v=80
245760 On ch=1 n=e5 v=84
245760 On ch=1 n=g5 v=84
245760 On ch=1 n=b4 v=84
245940 Off ch=1 n=b4 v=80
245940 Off ch=1 n=g5 v=80
245940 Off ch=1 n=e5 v=80
246000 On ch=1 n=b4 v=87
246000 On ch=1 n=e5 v=87
246000 On ch=1 n=g#5 v=87
246180 Off ch=1 n=g#5 v=80
246180 Off ch=1 n=e5 v=80
246180 Off ch=1 n=b4 v=80
246240 On ch=1 n=a5 v=98
246240 On ch=1 n=e5 v=98
246240 On ch=1 n=a4 v=98
246420 Off ch=1 n=a4 v=80
246420 Off ch=1 n=e5 v=80
246420 Off ch=1 n=a5 v=80
246480 On ch=1 n=b5 v=106
246480 On ch=1 n=g#5 v=106
246480 On ch=1 n=e5 v=106
246660 Off ch=1 n=e5 v=80
246660 Off ch=1 n=g#5 v=80
246660 Off ch=1 n=b5 v=80
246720 On ch=1 n=e5 v=114
246720 On ch=1 n=a5 v=114
246720 On ch=1 n=c#6 v=114
246900 Off ch=1 n=c#6 v=80
246900 Off ch=1 n=a5 v=80
246900 Off ch=1 n=e5 v=80
247200 On ch=1 n=d6 v=114
247200 On ch=1 n=a5 v=114
247200 On ch=1 n=f#5 v=114
247440 Off ch=1 n=f#5 v=80
247440 Off ch=1 n=a5 v=80
247440 Off ch=1 n=d6 v=80
247680 On ch=1 n=d5 v=117
247680 On ch=1 n=a#4 v=117
247920 Off ch=1 n=a#4 v=80
247920 Off ch=1 n=d5 v=80
247920 On ch=1 n=d5 v=102
247920 On ch=1 n=a#4 v=102
248040 Off ch=1 n=a#4 v=80
248040 Off ch=1 n=d5 v=80
248040 On ch=1 n=d5 v=102
248040 On ch=1 n=a#4 v=102
248160 Off ch=1 n=a#4 v=80
248160 Off ch=1 n=d5 v=80
248160 On ch=1 n=g5 v=117
248160 On ch=1 n=a#4 v=117
248400 Off ch=1 n=a#4 v=80
248400 Off ch=1 n=g5 v=80
248400 On ch=1 n=g5 v=102
248400 On ch=1 n=a#4 v=102
248520 Off ch=1 n=a#4 v=80
248520 Off ch=1 n=g5 v=80
248520 On ch=1 n=g5 v=102
248520 On ch=1 n=a#4 v=102
248640 Off ch=1 n=a#4 v=80
248640 Off ch=1 n=g5 v=80
248640 On ch=1 n=f#5 v=117
248640 On ch=1 n=a4 v=117
248880 Off ch=1 n=a4 v=80
248880 Off ch=1 n=f#5 v=80
248880 On ch=1 n=f#5 v=102
248880 On ch=1 n=a4 v=102
249000 Off ch=1 n=a4 v=80
249000 Off ch=1 n=f#5 v=80
249000 On ch=1 n=f#5 v=102
249000 On ch=1 n=a4 v=102
249120 Off ch=1 n=a4 v=80
249120 Off ch=1 n=f#5 v=80
249120 On ch=1 n=g5 v=120
249120 On ch=1 n=g4 v=120
249360 Off ch=1 n=g4 v=80
249360 Off ch=1 n=g5 v=80
249360 On ch=1 n=g5 v=105
249360 On ch=1 n=g4 v=105
249480 Off ch=1 n=g4 v=80
249480 Off ch=1 n=g5 v=80
249480 On ch=1 n=g5 v=105
249480 On ch=1 n=g4 v=105
249600 Off ch=1 n=g4 v=80
249600 Off ch=1 n=g5 v=80
249600 On ch=1 n=a5 v=123
249600 On ch=1 n=c5 v=123
249840 Off ch=1 n=c5 v=80
249840 Off ch=1 n=a5 v=80
249840 On ch=1 n=a5 v=108
249840 On ch=1 n=c5 v=108
249960 Off ch=1 n=c5 v=80
249960 Off ch=1 n=a5 v=80
249960 On ch=1 n=a5 v=108
249960 On ch=1 n=c5 v=108
250080 Off ch=1 n=c5 v=80
250080 Off ch=1 n=a5 v=80
250080 On ch=1 n=a#5 v=126
250080 On ch=1 n=a#4 v=126
250320 Off ch=1 n=a#4 v=80
250320 Off ch=1 n=a#5 v=80
250320 On ch=1 n=a#5 v=111
250320 On ch=1 n=a#4 v=111
250440 Off ch=1 n=a#4 v=80
250440 Off ch=1 n=a#5 v=80
250440 On ch=1 n=a#5 v=111
250440 On ch=1 n=a#4 v=111
250560 Off ch=1 n=a#4 v=80
250560 Off ch=1 n=a#5 v=80
250560 On ch=1 n=a#4 v=117
250560 On ch=1 n=d5 v=117
250800 Off ch=1 n=d5 v=80
250800 Off ch=1 n=a#4 v=80
250800 On ch=1 n=d5 v=102
250800 On ch=1 n=a#4 v=102
250920 Off ch=1 n=a#4 v=80
250920 Off ch=1 n=d5 v=80
250920 On ch=1 n=d5 v=102
250920 On ch=1 n=a#4 v=102
251040 Off ch=1 n=a#4 v=80
251040 Off ch=1 n=d5 v=80
251040 On ch=1 n=g5 v=117
251040 On ch=1 n=a#4 v=117
251280 Off ch=1 n=a#4 v=80
251280 Off ch=1 n=g5 v=80
251280 On ch=1 n=g5 v=102
251280 On ch=1 n=a#4 v=102
251400 Off ch=1 n=a#4 v=80
251400 Off ch=1 n=g5 v=80
251400 On ch=1 n=g5 v=102
251400 On ch=1 n=a#4 v=102
251520 Off ch=1 n=a#4 v=80
251520 Off ch=1 n=g5 v=80
251520 On ch=1 n=c5 v=117
251520 On ch=1 n=a#4 v=117
251760 Off ch=1 n=a#4 v=80
251760 Off ch=1 n=c5 v=80
251760 On ch=1 n=c5 v=102
251760 On ch=1 n=a#4 v=102
251880 Off ch=1 n=a#4 v=80
251880 Off ch=1 n=c5 v=80
251880 On ch=1 n=c5 v=102
251880 On ch=1 n=a#4 v=102
252000 Off ch=1 n=a#4 v=80
252000 Off ch=1 n=c5 v=80
252000 On ch=1 n=f5 v=120
252000 On ch=1 n=a4 v=120
252240 Off ch=1 n=a4 v=80
252240 Off ch=1 n=f5 v=80
252240 On ch=1 n=f5 v=105
252240 On ch=1 n=a4 v=105
252360 Off ch=1 n=a4 v=80
252360 Off ch=1 n=f5 v=80
252360 On ch=1 n=f5 v=105
252360 On ch=1 n=a4 v=105
252480 Off ch=1 n=a4 v=80
252480 Off ch=1 n=f5 v=80
252480 On ch=1 n=f5 v=123
252480 On ch=1 n=d5 v=123
252720 Off ch=1 n=d5 v=80
252720 Off ch=1 n=f5 v=80
252720 On ch=1 n=f5 v=108
252720 On ch=1 n=d5 v=108
252840 Off ch=1 n=d5 v=80
252840 Off ch=1 n=f5 v=80
252840 On ch=1 n=f5 v=108
252840 On ch=1 n=d5 v=108
252960 Off ch=1 n=d5 v=80
252960 Off ch=1 n=f5 v=80
252960 On ch=1 n=f5 v=126
252960 On ch=1 n=c5 v=126
253200 Off ch=1 n=c5 v=80
253200 Off ch=1 n=f5 v=80
253200 On ch=1 n=f#5 v=127
253200 On ch=1 n=d5 v=127
253200 On ch=1 n=a4 v=127
253320 Off ch=1 n=a4 v=80
253320 Off ch=1 n=d5 v=80
253320 Off ch=1 n=f#5 v=80
253440 On ch=1 n=a#4 v=117
253440 On ch=1 n=d5 v=117
253680 Off ch=1 n=d5 v=80
253680 Off ch=1 n=a#4 v=80
253680 On ch=1 n=d5 v=102
253680 On ch=1 n=a#4 v=102
253800 Off ch=1 n=a#4 v=80
253800 Off ch=1 n=d5 v=80
253800 On ch=1 n=d5 v=102
253800 On ch=1 n=a#4 v=102
253920 Off ch=1 n=a#4 v=80
253920 Off ch=1 n=d5 v=80
253920 On ch=1 n=g5 v=117
253920 On ch=1 n=a#4 v=117
254160 Off ch=1 n=a#4 v=80
254160 Off ch=1 n=g5 v=80
254160 On ch=1 n=g5 v=102
254160 On ch=1 n=a#4 v=102
254280 Off ch=1 n=a#4 v=80
254280 Off ch=1 n=g5 v=80
254280 On ch=1 n=g5 v=102
254280 On ch=1 n=a#4 v=102
254400 Off ch=1 n=a#4 v=80
254400 Off ch=1 n=g5 v=80
254400 On ch=1 n=f#5 v=117
254400 On ch=1 n=a4 v=117
254640 Off ch=1 n=a4 v=80
254640 Off ch=1 n=f#5 v=80
254640 On ch=1 n=f#5 v=102
254640 On ch=1 n=a4 v=102
254760 Off ch=1 n=a4 v=80
254760 Off ch=1 n=f#5 v=80
254760 On ch=1 n=f#5 v=102
254760 On ch=1 n=a4 v=102
254880 Off ch=1 n=a4 v=80
254880 Off ch=1 n=f#5 v=80
254880 On ch=1 n=g5 v=120
254880 On ch=1 n=g4 v=120
255120 Off ch=1 n=g4 v=80
255120 Off ch=1 n=g5 v=80
255120 On ch=1 n=g5 v=105
255120 On ch=1 n=g4 v=105
255240 Off ch=1 n=g4 v=80
255240 Off ch=1 n=g5 v=80
255240 On ch=1 n=g5 v=105
255240 On ch=1 n=g4 v=105
255360 Off ch=1 n=g4 v=80
255360 Off ch=1 n=g5 v=80
255360 On ch=1 n=a5 v=123
255360 On ch=1 n=c5 v=123
255600 Off ch=1 n=c5 v=80
255600 Off ch=1 n=a5 v=80
255600 On ch=1 n=a5 v=108
255600 On ch=1 n=c5 v=108
255720 Off ch=1 n=c5 v=80
255720 Off ch=1 n=a5 v=80
255720 On ch=1 n=a5 v=108
255720 On ch=1 n=c5 v=108
255840 Off ch=1 n=c5 v=80
255840 Off ch=1 n=a5 v=80
255840 On ch=1 n=a#5 v=126
255840 On ch=1 n=a#4 v=126
256080 Off ch=1 n=a#4 v=80
256080 Off ch=1 n=a#5 v=80
256080 On ch=1 n=a#5 v=111
256080 On ch=1 n=a#4 v=111
256200 Off ch=1 n=a#4 v=80
256200 Off ch=1 n=a#5 v=80
256200 On ch=1 n=a#5 v=111
256200 On ch=1 n=a#4 v=111
256320 Off ch=1 n=a#4 v=80
256320 Off ch=1 n=a#5 v=80
256320 On ch=1 n=a#4 v=117
256320 On ch=1 n=d#5 v=117
256560 Off ch=1 n=d#5 v=80
256560 Off ch=1 n=a#4 v=80
256560 On ch=1 n=a#4 v=102
256560 On ch=1 n=d#5 v=102
256680 Off ch=1 n=d#5 v=80
256680 Off ch=1 n=a#4 v=80
256680 On ch=1 n=a#4 v=102
256680 On ch=1 n=d#5 v=102
256800 Off ch=1 n=d#5 v=80
256800 Off ch=1 n=a#4 v=80
256800 On ch=1 n=b4 v=127
256800 On ch=1 n=g#5 v=127
257040 Off ch=1 n=g#5 v=80
257040 Off ch=1 n=b4 v=80
257040 On ch=1 n=b4 v=102
257040 On ch=1 n=g#5 v=102
257160 Off ch=1 n=g#5 v=80
257160 Off ch=1 n=b4 v=80
257160 On ch=1 n=b4 v=102
257160 On ch=1 n=g#5 v=102
257280 Off ch=1 n=g#5 v=80
257280 Off ch=1 n=b4 v=80
257280 On ch=1 n=g#4 v=117
257280 On ch=1 n=d5 v=117
257520 Off ch=1 n=d5 v=80
257520 Off ch=1 n=g#4 v=80
257520 On ch=1 n=g#4 v=102
257520 On ch=1 n=d5 v=102
257640 Off ch=1 n=d5 v=80
257640 Off ch=1 n=g#4 v=80
257640 On ch=1 n=g#4 v=102
257640 On ch=1 n=d5 v=102
257760 Off ch=1 n=d5 v=80
257760 Off ch=1 n=g#4 v=80
257760 On ch=1 n=g4 v=117
257760 On ch=1 n=d#5 v=117
258000 Off ch=1 n=d#5 v=80
258000 Off ch=1 n=g4 v=80
258000 On ch=1 n=g4 v=102
258000 On ch=1 n=d#5 v=102
258120 Off ch=1 n=d#5 v=80
258120 Off ch=1 n=g4 v=80
258120 On ch=1 n=g4 v=102
258120 On ch=1 n=d#5 v=102
258240 Off ch=1 n=d#5 v=80
258240 Off ch=1 n=g4 v=80
258240 On ch=1 n=d#5 v=117
258240 On ch=1 n=c5 v=117
258480 Off ch=1 n=c5 v=80
258480 Off ch=1 n=d#5 v=80
258480 On ch=1 n=d#5 v=102
258480 On ch=1 n=c5 v=102
258600 Off ch=1 n=c5 v=80
258600 Off ch=1 n=d#5 v=80
258600 On ch=1 n=d#5 v=102
258600 On ch=1 n=c5 v=102
258720 Off ch=1 n=c5 v=80
258720 Off ch=1 n=d#5 v=80
258720 On ch=1 n=d#5 v=127
258720 On ch=1 n=a#4 v=127
258960 Off ch=1 n=a#4 v=80
258960 Off ch=1 n=d#5 v=80
258960 On ch=1 n=d5 v=102
259080 Off ch=1 n=d5 v=80
259200 On ch=1 n=a#4 v=117
259200 On ch=1 n=d5 v=117
259440 Off ch=1 n=d5 v=80
259440 Off ch=1 n=a#4 v=80
259440 On ch=1 n=d5 v=102
259440 On ch=1 n=a#4 v=102
259560 Off ch=1 n=a#4 v=80
259560 Off ch=1 n=d5 v=80
259560 On ch=1 n=d5 v=102
259560 On ch=1 n=a#4 v=102
259680 Off ch=1 n=a#4 v=80
259680 Off ch=1 n=d5 v=80
259680 On ch=1 n=g5 v=117
259680 On ch=1 n=a#4 v=117
259920 Off ch=1 n=a#4 v=80
259920 Off ch=1 n=g5 v=80
259920 On ch=1 n=g5 v=102
259920 On ch=1 n=a#4 v=102
260040 Off ch=1 n=a#4 v=80
260040 Off ch=1 n=g5 v=80
260040 On ch=1 n=g5 v=102
260040 On ch=1 n=a#4 v=102
260160 Off ch=1 n=a#4 v=80
260160 Off ch=1 n=g5 v=80
260160 On ch=1 n=f#5 v=117
260160 On ch=1 n=a4 v=117
260400 Off ch=1 n=a4 v=80
260400 Off ch=1 n=f#5 v=80
260400 On ch=1 n=f#5 v=102
260400 On ch=1 n=a4 v=102
260520 Off ch=1 n=a4 v=80
260520 Off ch=1 n=f#5 v=80
260520 On ch=1 n=f#5 v=102
260520 On ch=1 n=a4 v=102
260640 Off ch=1 n=a4 v=80
260640 Off ch=1 n=f#5 v=80
260640 On ch=1 n=g5 v=120
260640 On ch=1 n=g4 v=120
260880 Off ch=1 n=g4 v=80
260880 Off ch=1 n=g5 v=80
260880 On ch=1 n=g5 v=105
260880 On ch=1 n=g4 v=105
261000 Off ch=1 n=g4 v=80
261000 Off ch=1 n=g5 v=80
261000 On ch=1 n=g5 v=105
261000 On ch=1 n=g4 v=105
261120 Off ch=1 n=g4 v=80
261120 Off ch=1 n=g5 v=80
261120 On ch=1 n=a5 v=123
261120 On ch=1 n=c5 v=123
261360 Off ch=1 n=c5 v=80
261360 Off ch=1 n=a5 v=80
261360 On ch=1 n=a5 v=108
261360 On ch=1 n=c5 v=108
261480 Off ch=1 n=c5 v=80
261480 Off ch=1 n=a5 v=80
261480 On ch=1 n=a5 v=108
261480 On ch=1 n=c5 v=108
261600 Off ch=1 n=c5 v=80
261600 Off ch=1 n=a5 v=80
261600 On ch=1 n=a#5 v=126
261600 On ch=1 n=a#4 v=126
261840 Off ch=1 n=a#4 v=80
261840 Off ch=1 n=a#5 v=80
261840 On ch=1 n=a#5 v=111
261840 On ch=1 n=a#4 v=111
261960 Off ch=1 n=a#4 v=80
261960 Off ch=1 n=a#5 v=80
261960 On ch=1 n=a#5 v=111
261960 On ch=1 n=a#4 v=111
262080 Off ch=1 n=a#4 v=80
262080 Off ch=1 n=a#5 v=80
262080 On ch=1 n=a#4 v=117
262080 On ch=1 n=d5 v=117
262320 Off ch=1 n=d5 v=80
262320 Off ch=1 n=a#4 v=80
262320 On ch=1 n=d5 v=102
262320 On ch=1 n=a#4 v=102
262440 Off ch=1 n=a#4 v=80
262440 Off ch=1 n=d5 v=80
262440 On ch=1 n=d5 v=102
262440 On ch=1 n=a#4 v=102
262560 Off ch=1 n=a#4 v=80
262560 Off ch=1 n=d5 v=80
262560 On ch=1 n=g5 v=117
262560 On ch=1 n=a#4 v=117
262800 Off ch=1 n=a#4 v=80
262800 Off ch=1 n=g5 v=80
262800 On ch=1 n=g5 v=102
262800 On ch=1 n=a#4 v=102
262920 Off ch=1 n=a#4 v=80
262920 Off ch=1 n=g5 v=80
262920 On ch=1 n=g5 v=102
262920 On ch=1 n=a#4 v=102
263040 Off ch=1 n=a#4 v=80
263040 Off ch=1 n=g5 v=80
263040 On ch=1 n=c5 v=117
263040 On ch=1 n=a#4 v=117
263280 Off ch=1 n=a#4 v=80
263280 Off ch=1 n=c5 v=80
263280 On ch=1 n=c5 v=102
263280 On ch=1 n=a#4 v=102
263400 Off ch=1 n=a#4 v=80
263400 Off ch=1 n=c5 v=80
263400 On ch=1 n=c5 v=102
263400 On ch=1 n=a#4 v=102
263520 Off ch=1 n=a#4 v=80
263520 Off ch=1 n=c5 v=80
263520 On ch=1 n=f5 v=120
263520 On ch=1 n=a4 v=120
263760 Off ch=1 n=a4 v=80
263760 Off ch=1 n=f5 v=80
263760 On ch=1 n=f5 v=105
263760 On ch=1 n=a4 v=105
263880 Off ch=1 n=a4 v=80
263880 Off ch=1 n=f5 v=80
263880 On ch=1 n=f5 v=105
263880 On ch=1 n=a4 v=105
264000 Off ch=1 n=a4 v=80
264000 Off ch=1 n=f5 v=80
264000 On ch=1 n=f5 v=123
264000 On ch=1 n=d5 v=123
264240 Off ch=1 n=d5 v=80
264240 Off ch=1 n=f5 v=80
264240 On ch=1 n=f5 v=108
264240 On ch=1 n=d5 v=108
264360 Off ch=1 n=d5 v=80
264360 Off ch=1 n=f5 v=80
264360 On ch=1 n=f5 v=108
264360 On ch=1 n=d5 v=108
264480 Off ch=1 n=d5 v=80
264480 Off ch=1 n=f5 v=80
264480 On ch=1 n=f5 v=126
264480 On ch=1 n=c5 v=126
264720 Off ch=1 n=c5 v=80
264720 Off ch=1 n=f5 v=80
264720 On ch=1 n=f#5 v=127
264720 On ch=1 n=d5 v=127
264720 On ch=1 n=a4 v=127
264840 Off ch=1 n=a4 v=80
264840 Off ch=1 n=d5 v=80
264840 Off ch=1 n=f#5 v=80
264960 On ch=1 n=a#4 v=117
264960 On ch=1 n=d5 v=117
265200 Off ch=1 n=d5 v=80
265200 Off ch=1 n=a#4 v=80
265200 On ch=1 n=d5 v=102
265200 On ch=1 n=a#4 v=102
265320 Off ch=1 n=a#4 v=80
265320 Off ch=1 n=d5 v=80
265320 On ch=1 n=d5 v=102
265320 On ch=1 n=a#4 v=102
265440 Off ch=1 n=a#4 v=80
265440 Off ch=1 n=d5 v=80
265440 On ch=1 n=g5 v=117
265440 On ch=1 n=a#4 v=117
265680 Off ch=1 n=a#4 v=80
265680 Off ch=1 n=g5 v=80
265680 On ch=1 n=g5 v=102
265680 On ch=1 n=a#4 v=102
265800 Off ch=1 n=a#4 v=80
265800 Off ch=1 n=g5 v=80
265800 On ch=1 n=g5 v=102
265800 On ch=1 n=a#4 v=102
265920 Off ch=1 n=a#4 v=80
265920 Off ch=1 n=g5 v=80
265920 On ch=1 n=f#5 v=117
265920 On ch=1 n=a4 v=117
266160 Off ch=1 n=a4 v=80
266160 Off ch=1 n=f#5 v=80
266160 On ch=1 n=f#5 v=102
266160 On ch=1 n=a4 v=102
266280 Off ch=1 n=a4 v=80
266280 Off ch=1 n=f#5 v=80
266280 On ch=1 n=f#5 v=102
266280 On ch=1 n=a4 v=102
266400 Off ch=1 n=a4 v=80
266400 Off ch=1 n=f#5 v=80
266400 On ch=1 n=g5 v=120
266400 On ch=1 n=g4 v=120
266640 Off ch=1 n=g4 v=80
266640 Off ch=1 n=g5 v=80
266640 On ch=1 n=g5 v=105
266640 On ch=1 n=g4 v=105
266760 Off ch=1 n=g4 v=80
266760 Off ch=1 n=g5 v=80
266760 On ch=1 n=g5 v=105
266760 On ch=1 n=g4 v=105
266880 Off ch=1 n=g4 v=80
266880 Off ch=1 n=g5 v=80
266880 On ch=1 n=a5 v=123
266880 On ch=1 n=c5 v=123
267120 Off ch=1 n=c5 v=80
267120 Off ch=1 n=a5 v=80
267120 On ch=1 n=a5 v=108
267120 On ch=1 n=c5 v=108
267240 Off ch=1 n=c5 v=80
267240 Off ch=1 n=a5 v=80
267240 On ch=1 n=a5 v=108
267240 On ch=1 n=c5 v=108
267360 Off ch=1 n=c5 v=80
267360 Off ch=1 n=a5 v=80
267360 On ch=1 n=a#5 v=126
267360 On ch=1 n=a#4 v=126
267600 Off ch=1 n=a#4 v=80
267600 Off ch=1 n=a#5 v=80
267600 On ch=1 n=a#5 v=111
267600 On ch=1 n=a#4 v=111
267720 Off ch=1 n=a#4 v=80
267720 Off ch=1 n=a#5 v=80
267720 On ch=1 n=a#5 v=111
267720 On ch=1 n=a#4 v=111
267840 Off ch=1 n=a#4 v=80
267840 Off ch=1 n=a#5 v=80
267840 On ch=1 n=a#4 v=117
267840 On ch=1 n=d#5 v=117
268080 Off ch=1 n=d#5 v=80
268080 Off ch=1 n=a#4 v=80
268080 On ch=1 n=a#4 v=102
268080 On ch=1 n=d#5 v=102
268200 Off ch=1 n=d#5 v=80
268200 Off ch=1 n=a#4 v=80
268200 On ch=1 n=a#4 v=102
268200 On ch=1 n=d#5 v=102
268320 Off ch=1 n=d#5 v=80
268320 Off ch=1 n=a#4 v=80
268320 On ch=1 n=b4 v=127
268320 On ch=1 n=g#5 v=127
268560 Off ch=1 n=g#5 v=80
268560 Off ch=1 n=b4 v=80
268560 On ch=1 n=b4 v=102
268560 On ch=1 n=g#5 v=102
268680 Off ch=1 n=g#5 v=80
268680 Off ch=1 n=b4 v=80
268680 On ch=1 n=b4 v=102
268680 On ch=1 n=g#5 v=102
268800 Off ch=1 n=g#5 v=80
268800 Off ch=1 n=b4 v=80
268800 On ch=1 n=g#4 v=117
268800 On ch=1 n=d5 v=117
269040 Off ch=1 n=d5 v=80
269040 Off ch=1 n=g#4 v=80
269040 On ch=1 n=g#4 v=102
269040 On ch=1 n=d5 v=102
269160 Off ch=1 n=d5 v=80
269160 Off ch=1 n=g#4 v=80
269160 On ch=1 n=g#4 v=102
269160 On ch=1 n=d5 v=102
269280 Off ch=1 n=d5 v=80
269280 Off ch=1 n=g#4 v=80
269280 On ch=1 n=g4 v=117
269280 On ch=1 n=d#5 v=117
269520 Off ch=1 n=d#5 v=80
269520 Off ch=1 n=g4 v=80
269520 On ch=1 n=g4 v=102
269520 On ch=1 n=d#5 v=102
269640 Off ch=1 n=d#5 v=80
269640 Off ch=1 n=g4 v=80
269640 On ch=1 n=g4 v=102
269640 On ch=1 n=d#5 v=102
269760 Off ch=1 n=d#5 v=80
269760 Off ch=1 n=g4 v=80
269760 On ch=1 n=d#5 v=117
269760 On ch=1 n=g#4 v=117
269760 On ch=1 n=c5 v=117
270000 Off ch=1 n=c5 v=80
270000 Off ch=1 n=g#4 v=80
270000 Off ch=1 n=d#5 v=80
270000 On ch=1 n=d#5 v=102
270000 On ch=1 n=g#4 v=102
270000 On ch=1 n=c5 v=102
270120 Off ch=1 n=c5 v=80
270120 Off ch=1 n=g#4 v=80
270120 Off ch=1 n=d#5 v=80
270120 On ch=1 n=d#5 v=102
270120 On ch=1 n=g#4 v=102
270120 On ch=1 n=c5 v=102
270240 Off ch=1 n=c5 v=80
270240 Off ch=1 n=g#4 v=80
270240 Off ch=1 n=d#5 v=80
270240 On ch=1 n=g4 v=102
270240 On ch=1 n=a#4 v=102
270240 On ch=1 n=d#5 v=102
270720 Off ch=1 n=d#5 v=80
270720 Off ch=1 n=a#4 v=80
270720 Off ch=1 n=g4 v=80
270720 On ch=1 n=e5 v=65
270720 On ch=1 n=g4 v=65
270720 On ch=1 n=c5 v=80
271200 Off ch=1 n=g4 v=80
271200 Off ch=1 n=e5 v=80
271200 On ch=1 n=f5 v=69
271200 On ch=1 n=g#4 v=69
271680 Off ch=1 n=g#4 v=80
271680 Off ch=1 n=c5 v=80
271680 Off ch=1 n=f5 v=80
271680 On ch=1 n=g5 v=73
271680 On ch=1 n=a#4 v=73
271680 On ch=1 n=c#5 v=88
272160 Off ch=1 n=a#4 v=80
272160 Off ch=1 n=g5 v=80
272160 On ch=1 n=f5 v=78
272160 On ch=1 n=g#4 v=78
272640 Off ch=1 n=g#4 v=80
272640 Off ch=1 n=f5 v=80
272640 On ch=1 n=d#5 v=78
272640 On ch=1 n=g4 v=78
273120 Off ch=1 n=g4 v=80
273120 Off ch=1 n=c#5 v=80
273120 Off ch=1 n=d#5 v=80
273120 On ch=1 n=f4 v=78
273120 On ch=1 n=c#5 v=93
273120 On ch=1 n=g#4 v=78
273600 Off ch=1 n=g#4 v=80
273600 Off ch=1 n=f4 v=80
273600 On ch=1 n=g4 v=78
273600 On ch=1 n=e4 v=78
274080 Off ch=1 n=e4 v=80
274080 Off ch=1 n=g4 v=80
274080 On ch=1 n=g#4 v=82
274080 On ch=1 n=f4 v=82
274560 Off ch=1 n=f4 v=80
274560 Off ch=1 n=c#5 v=80
274560 Off ch=1 n=g#4 v=80
274560 On ch=1 n=a#4 v=86
274560 On ch=1 n=g4 v=86
274560 On ch=1 n=c#5 v=101
275040 Off ch=1 n=g4 v=80
275040 Off ch=1 n=a#4 v=80
275040 On ch=1 n=g#4 v=90
275040 On ch=1 n=f4 v=90
275520 Off ch=1 n=f4 v=80
275520 Off ch=1 n=g#4 v=80
275520 On ch=1 n=g4 v=94
275520 On ch=1 n=d#4 v=94
276000 Off ch=1 n=d#4 v=80
276000 Off ch=1 n=g4 v=80
276000 On ch=1 n=f4 v=98
276000 On ch=1 n=c#4 v=98
276480 Off ch=1 n=c#4 v=80
276480 Off ch=1 n=c#5 v=80
276480 Off ch=1 n=f4 v=80
276480 On ch=1 n=e5 v=102
276480 On ch=1 n=g4 v=102
276480 On ch=1 n=c5 v=117
276960 Off ch=1 n=g4 v=80
276960 Off ch=1 n=e5 v=80
276960 On ch=1 n=g#4 v=102
276960 On ch=1 n=f5 v=102
277440 Off ch=1 n=f5 v=80
277440 Off ch=1 n=c5 v=80
277440 Off ch=1 n=g#4 v=80
277440 On ch=1 n=g5 v=105
277440 On ch=1 n=a#4 v=105
277440 On ch=1 n=c#5 v=120
277920 Off ch=1 n=a#4 v=80
277920 Off ch=1 n=g5 v=80
277920 On ch=1 n=f5 v=108
277920 On ch=1 n=g#4 v=108
278400 Off ch=1 n=g#4 v=80
278400 Off ch=1 n=f5 v=80
278400 On ch=1 n=g4 v=111
278400 On ch=1 n=d#5 v=111
278880 Off ch=1 n=d#5 v=80
278880 Off ch=1 n=c#5 v=80
278880 Off ch=1 n=g4 v=80
278880 On ch=1 n=g#4 v=114
278880 On ch=1 n=f4 v=114
278880 On ch=1 n=c#5 v=127
279360 Off ch=1 n=f4 v=80
279360 Off ch=1 n=g#4 v=80
279360 On ch=1 n=g4 v=114
279360 On ch=1 n=e4 v=114
279840 Off ch=1 n=e4 v=80
279840 Off ch=1 n=g4 v=80
279840 On ch=1 n=f4 v=114
279840 On ch=1 n=g#4 v=114
280320 Off ch=1 n=g#4 v=80
280320 Off ch=1 n=c#5 v=80
280320 Off ch=1 n=f4 v=80
280320 On ch=1 n=d5 v=114
280320 On ch=1 n=f4 v=114
280320 On ch=1 n=g#4 v=114
280800 Off ch=1 n=g#4 v=80
280800 On ch=1 n=c5 v=127
281280 Off ch=1 n=c5 v=80
281280 On ch=1 n=b4 v=114
281760 Off ch=1 n=f4 v=80
281760 Off ch=1 n=d5 v=80
281760 Off ch=1 n=b4 v=80
281760 On ch=1 n=e5 v=102
281760 On ch=1 n=a#4 v=102
281760 On ch=1 n=g4 v=102
282240 Off ch=1 n=g4 v=80
282240 Off ch=1 n=a#4 v=80
282240 Off ch=1 n=e5 v=80
282240 On ch=1 n=a4 v=114
282240 On ch=1 n=c5 v=114
282720 Off ch=1 n=c5 v=80
282720 Off ch=1 n=a4 v=80
282720 On ch=1 n=a4 v=114
282720 On ch=1 n=c5 v=114
282720 On ch=1 n=f5 v=114
283200 Off ch=1 n=f5 v=80
283200 Off ch=1 n=c5 v=80
283200 Off ch=1 n=a4 v=80
283200 On ch=1 n=e5 v=114
283200 On ch=1 n=c5 v=114
283200 On ch=1 n=g4 v=114
283680 Off ch=1 n=g4 v=80
283680 Off ch=1 n=c5 v=80
283680 Off ch=1 n=e5 v=80
283680 On ch=1 n=f5 v=114
283680 On ch=1 n=c5 v=114
283680 On ch=1 n=a4 v=114
284400 Off ch=1 n=a4 v=80
284400 Off ch=1 n=c5 v=80
284400 Off ch=1 n=f5 v=80
284400 On ch=1 n=g5 v=114
284400 On ch=1 n=e5 v=114
284400 On ch=1 n=c5 v=114
284640 Off ch=1 n=c5 v=80
284640 Off ch=1 n=e5 v=80
284640 Off ch=1 n=g5 v=80
284640 On ch=1 n=a5 v=120
284640 On ch=1 n=f5 v=120
284640 On ch=1 n=c5 v=120
284880 Off ch=1 n=c5 v=80
284880 Off ch=1 n=f5 v=80
284880 Off ch=1 n=a5 v=80
284880 On ch=1 n=a5 v=127
284880 On ch=1 n=f#5 v=127
284880 On ch=1 n=c5 v=127
285120 Off ch=1 n=c5 v=80
285120 Off ch=1 n=f#5 v=80
285120 Off ch=1 n=a5 v=80
285120 On ch=1 n=a#4 v=117
285120 On ch=1 n=d5 v=117
285360 Off ch=1 n=d5 v=80
285360 Off ch=1 n=a#4 v=80
285360 On ch=1 n=d5 v=102
285360 On ch=1 n=a#4 v=102
285480 Off ch=1 n=a#4 v=80
285480 Off ch=1 n=d5 v=80
285480 On ch=1 n=d5 v=102
285480 On ch=1 n=a#4 v=102
285600 Off ch=1 n=a#4 v=80
285600 Off ch=1 n=d5 v=80
285600 On ch=1 n=g5 v=117
285600 On ch=1 n=a#4 v=117
285840 Off ch=1 n=a#4 v=80
285840 Off ch=1 n=g5 v=80
285840 On ch=1 n=g5 v=102
285840 On ch=1 n=a#4 v=102
285960 Off ch=1 n=a#4 v=80
285960 Off ch=1 n=g5 v=80
285960 On ch=1 n=g5 v=102
285960 On ch=1 n=a#4 v=102
286080 Off ch=1 n=a#4 v=80
286080 Off ch=1 n=g5 v=80
286080 On ch=1 n=f#5 v=117
286080 On ch=1 n=a4 v=117
286320 Off ch=1 n=a4 v=80
286320 Off ch=1 n=f#5 v=80
286320 On ch=1 n=f#5 v=102
286320 On ch=1 n=a4 v=102
286440 Off ch=1 n=a4 v=80
286440 Off ch=1 n=f#5 v=80
286440 On ch=1 n=f#5 v=102
286440 On ch=1 n=a4 v=102
286560 Off ch=1 n=a4 v=80
286560 Off ch=1 n=f#5 v=80
286560 On ch=1 n=g5 v=120
286560 On ch=1 n=g4 v=120
286800 Off ch=1 n=g4 v=80
286800 Off ch=1 n=g5 v=80
286800 On ch=1 n=g5 v=105
286800 On ch=1 n=g4 v=105
286920 Off ch=1 n=g4 v=80
286920 Off ch=1 n=g5 v=80
286920 On ch=1 n=g5 v=105
286920 On ch=1 n=g4 v=105
287040 Off ch=1 n=g4 v=80
287040 Off ch=1 n=g5 v=80
287040 On ch=1 n=a5 v=123
287040 On ch=1 n=c5 v=123
287280 Off ch=1 n=c5 v=80
287280 Off ch=1 n=a5 v=80
287280 On ch=1 n=a5 v=108
287280 On ch=1 n=c5 v=108
287400 Off ch=1 n=c5 v=80
287400 Off ch=1 n=a5 v=80
287400 On ch=1 n=a5 v=108
287400 On ch=1 n=c5 v=108
287520 Off ch=1 n=c5 v=80
287520 Off ch=1 n=a5 v=80
287520 On ch=1 n=a#5 v=126
287520 On ch=1 n=a#4 v=126
287760 Off ch=1 n=a#4 v=80
287760 Off ch=1 n=a#5 v=80
287760 On ch=1 n=a#5 v=111
287760 On ch=1 n=a#4 v=111
287880 Off ch=1 n=a#4 v=80
287880 Off ch=1 n=a#5 v=80
287880 On ch=1 n=a#5 v=111
287880 On ch=1 n=a#4 v=111
288000 Off ch=1 n=a#4 v=80
288000 Off ch=1 n=a#5 v=80
288000 On ch=1 n=a#4 v=117
288000 On ch=1 n=d5 v=117
288240 Off ch=1 n=d5 v=80
288240 Off ch=1 n=a#4 v=80
288240 On ch=1 n=d5 v=102
288240 On ch=1 n=a#4 v=102
288360 Off ch=1 n=a#4 v=80
288360 Off ch=1 n=d5 v=80
288360 On ch=1 n=d5 v=102
288360 On ch=1 n=a#4 v=102
288480 Off ch=1 n=a#4 v=80
288480 Off ch=1 n=d5 v=80
288480 On ch=1 n=g5 v=117
288480 On ch=1 n=a#4 v=117
288720 Off ch=1 n=a#4 v=80
288720 Off ch=1 n=g5 v=80
288720 On ch=1 n=g5 v=102
288720 On ch=1 n=a#4 v=102
288840 Off ch=1 n=a#4 v=80
288840 Off ch=1 n=g5 v=80
288840 On ch=1 n=g5 v=102
288840 On ch=1 n=a#4 v=102
288960 Off ch=1 n=a#4 v=80
288960 Off ch=1 n=g5 v=80
288960 On ch=1 n=c5 v=117
288960 On ch=1 n=a#4 v=117
289200 Off ch=1 n=a#4 v=80
289200 Off ch=1 n=c5 v=80
289200 On ch=1 n=c5 v=102
289200 On ch=1 n=a#4 v=102
289320 Off ch=1 n=a#4 v=80
289320 Off ch=1 n=c5 v=80
289320 On ch=1 n=c5 v=102
289320 On ch=1 n=a#4 v=102
289440 Off ch=1 n=a#4 v=80
289440 Off ch=1 n=c5 v=80
289440 On ch=1 n=f5 v=120
289440 On ch=1 n=a4 v=120
289680 Off ch=1 n=a4 v=80
289680 Off ch=1 n=f5 v=80
289680 On ch=1 n=f5 v=105
289680 On ch=1 n=a4 v=105
289800 Off ch=1 n=a4 v=80
289800 Off ch=1 n=f5 v=80
289800 On ch=1 n=f5 v=105
289800 On ch=1 n=a4 v=105
289920 Off ch=1 n=a4 v=80
289920 Off ch=1 n=f5 v=80
289920 On ch=1 n=f5 v=123
289920 On ch=1 n=d5 v=123
290160 Off ch=1 n=d5 v=80
290160 Off ch=1 n=f5 v=80
290160 On ch=1 n=f5 v=108
290160 On ch=1 n=d5 v=108
290280 Off ch=1 n=d5 v=80
290280 Off ch=1 n=f5 v=80
290280 On ch=1 n=f5 v=108
290280 On ch=1 n=d5 v=108
290400 Off ch=1 n=d5 v=80
290400 Off ch=1 n=f5 v=80
290400 On ch=1 n=f5 v=126
290400 On ch=1 n=c5 v=126
290640 Off ch=1 n=c5 v=80
290640 Off ch=1 n=f5 v=80
290640 On ch=1 n=f#5 v=127
290640 On ch=1 n=d5 v=127
290640 On ch=1 n=a4 v=127
290760 Off ch=1 n=a4 v=80
290760 Off ch=1 n=d5 v=80
290760 Off ch=1 n=f#5 v=80
290880 On ch=1 n=a#4 v=117
290880 On ch=1 n=d5 v=117
291120 Off ch=1 n=d5 v=80
291120 Off ch=1 n=a#4 v=80
291120 On ch=1 n=d5 v=102
291120 On ch=1 n=a#4 v=102
291240 Off ch=1 n=a#4 v=80
291240 Off ch=1 n=d5 v=80
291240 On ch=1 n=d5 v=102
291240 On ch=1 n=a#4 v=102
291360 Off ch=1 n=a#4 v=80
291360 Off ch=1 n=d5 v=80
291360 On ch=1 n=g5 v=117
291360 On ch=1 n=a#4 v=117
291600 Off ch=1 n=a#4 v=80
291600 Off ch=1 n=g5 v=80
291600 On ch=1 n=g5 v=102
291600 On ch=1 n=a#4 v=102
291720 Off ch=1 n=a#4 v=80
291720 Off ch=1 n=g5 v=80
291720 On ch=1 n=g5 v=102
291720 On ch=1 n=a#4 v=102
291840 Off ch=1 n=a#4 v=80
291840 Off ch=1 n=g5 v=80
291840 On ch=1 n=f#5 v=117
291840 On ch=1 n=a4 v=117
292080 Off ch=1 n=a4 v=80
292080 Off ch=1 n=f#5 v=80
292080 On ch=1 n=f#5 v=102
292080 On ch=1 n=a4 v=102
292200 Off ch=1 n=a4 v=80
292200 Off ch=1 n=f#5 v=80
292200 On ch=1 n=f#5 v=102
292200 On ch=1 n=a4 v=102
292320 Off ch=1 n=a4 v=80
292320 Off ch=1 n=f#5 v=80
292320 On ch=1 n=g5 v=120
292320 On ch=1 n=g4 v=120
292560 Off ch=1 n=g4 v=80
292560 Off ch=1 n=g5 v=80
292560 On ch=1 n=g5 v=105
292560 On ch=1 n=g4 v=105
292680 Off ch=1 n=g4 v=80
292680 Off ch=1 n=g5 v=80
292680 On ch=1 n=g5 v=105
292680 On ch=1 n=g4 v=105
292800 Off ch=1 n=g4 v=80
292800 Off ch=1 n=g5 v=80
292800 On ch=1 n=a5 v=123
292800 On ch=1 n=c5 v=123
293040 Off ch=1 n=c5 v=80
293040 Off ch=1 n=a5 v=80
293040 On ch=1 n=a5 v=108
293040 On ch=1 n=c5 v=108
293160 Off ch=1 n=c5 v=80
293160 Off ch=1 n=a5 v=80
293160 On ch=1 n=a5 v=108
293160 On ch=1 n=c5 v=108
293280 Off ch=1 n=c5 v=80
293280 Off ch=1 n=a5 v=80
293280 On ch=1 n=a#5 v=126
293280 On ch=1 n=a#4 v=126
293520 Off ch=1 n=a#4 v=80
293520 Off ch=1 n=a#5 v=80
293520 On ch=1 n=a#5 v=111
293520 On ch=1 n=a#4 v=111
293640 Off ch=1 n=a#4 v=80
293640 Off ch=1 n=a#5 v=80
293640 On ch=1 n=a#5 v=111
293640 On ch=1 n=a#4 v=111
293760 Off ch=1 n=a#4 v=80
293760 Off ch=1 n=a#5 v=80
293760 On ch=1 n=a#4 v=117
293760 On ch=1 n=d#5 v=117
294000 Off ch=1 n=d#5 v=80
294000 Off ch=1 n=a#4 v=80
294000 On ch=1 n=a#4 v=102
294000 On ch=1 n=d#5 v=102
294120 Off ch=1 n=d#5 v=80
294120 Off ch=1 n=a#4 v=80
294120 On ch=1 n=a#4 v=102
294120 On ch=1 n=d#5 v=102
294240 Off ch=1 n=d#5 v=80
294240 Off ch=1 n=a#4 v=80
294240 On ch=1 n=b4 v=127
294240 On ch=1 n=g#5 v=127
294480 Off ch=1 n=g#5 v=80
294480 Off ch=1 n=b4 v=80
294480 On ch=1 n=b4 v=102
294480 On ch=1 n=g#5 v=102
294600 Off ch=1 n=g#5 v=80
294600 Off ch=1 n=b4 v=80
294600 On ch=1 n=b4 v=102
294600 On ch=1 n=g#5 v=102
294720 Off ch=1 n=g#5 v=80
294720 Off ch=1 n=b4 v=80
294720 On ch=1 n=g#4 v=117
294720 On ch=1 n=d5 v=117
294960 Off ch=1 n=d5 v=80
294960 Off ch=1 n=g#4 v=80
294960 On ch=1 n=g#4 v=102
294960 On ch=1 n=d5 v=102
295080 Off ch=1 n=d5 v=80
295080 Off ch=1 n=g#4 v=80
295080 On ch=1 n=g#4 v=102
295080 On ch=1 n=d5 v=102
295200 Off ch=1 n=d5 v=80
295200 Off ch=1 n=g#4 v=80
295200 On ch=1 n=d#5 v=102
295200 On ch=1 n=g4 v=102
295380 Off ch=1 n=g4 v=80
295380 Off ch=1 n=d#5 v=80
295440 On ch=1 n=d#5 v=102
295440 On ch=1 n=c5 v=102
295440 On ch=1 n=g#4 v=102
295620 Off ch=1 n=g#4 v=80
295620 Off ch=1 n=c5 v=80
295620 Off ch=1 n=d#5 v=80
295680 On ch=1 n=d#5 v=102
295680 On ch=1 n=a#4 v=102
295680 On ch=1 n=g4 v=102
295860 Off ch=1 n=g4 v=80
295860 Off ch=1 n=a#4 v=80
295860 Off ch=1 n=d#5 v=80
295920 On ch=1 n=d5 v=102
295980 Off ch=1 n=d5 v=80
296040 On ch=1 n=d5 v=102
296100 Off ch=1 n=d5 v=80
296160 On ch=1 n=d#5 v=102
296280 Off ch=1 n=d#5 v=80
296400 On ch=1 n=c#5 v=102
296520 Off ch=1 n=c#5 v=80
296640 On ch=1 n=d5 v=102
296880 Off ch=1 n=d5 v=80
296880 On ch=1 n=d6 v=102
296880 On ch=1 n=a6 v=102
296880 On ch=1 n=d7 v=102
297000 Off ch=1 n=d7 v=80
297000 Off ch=1 n=a6 v=80
297000 Off ch=1 n=d6 v=80
297120 On ch=1 n=g6 v=78
297120 On ch=1 n=d6 v=78
297240 Off ch=1 n=d6 v=80
297240 Off ch=1 n=g6 v=80
297360 On ch=1 n=a6 v=78
297360 On ch=1 n=e6 v=78
297480 Off ch=1 n=e6 v=80
297480 Off ch=1 n=a6 v=80
297600 On ch=1 n=c6 v=120
297600 On ch=1 n=d6 v=120
297840 Off ch=1 n=d6 v=80
297840 On ch=1 n=e6 v=78
297960 Off ch=1 n=e6 v=80
297960 On ch=1 n=f#6 v=78
298080 Off ch=1 n=c6 v=80
298080 Off ch=1 n=f#6 v=80
298080 On ch=1 n=g6 v=78
298080 On ch=1 n=a#5 v=78
298200 Off ch=1 n=a#5 v=80
298200 Off ch=1 n=g6 v=80
298320 On ch=1 n=c6 v=78
298320 On ch=1 n=g5 v=78
298320 On ch=1 n=d#6 v=78
298500 Off ch=1 n=d#6 v=80
298500 Off ch=1 n=g5 v=80
298500 Off ch=1 n=c6 v=80
298560 On ch=1 n=d6 v=78
298560 On ch=1 n=a5 v=78
298560 On ch=1 n=f#5 v=78
298740 Off ch=1 n=f#5 v=80
298740 Off ch=1 n=a5 v=80
298740 Off ch=1 n=d6 v=80
298800 On ch=1 n=a#4 v=102
298860 Off ch=1 n=a#4 v=80
298920 On ch=1 n=a#4 v=102
298980 Off ch=1 n=a#4 v=80
299040 On ch=1 n=c5 v=102
299160 Off ch=1 n=c5 v=80
299280 On ch=1 n=a4 v=102
299400 Off ch=1 n=a4 v=80
299520 On ch=1 n=a#4 v=102
299760 Off ch=1 n=a#4 v=80
299760 On ch=1 n=a#5 v=102
299760 On ch=1 n=a#6 v=102
299880 Off ch=1 n=a#6 v=80
299880 Off ch=1 n=a#5 v=80
300000 On ch=1 n=d#6 v=78
300000 On ch=1 n=a#5 v=78
300120 Off ch=1 n=a#5 v=80
300120 Off ch=1 n=d#6 v=80
300240 On ch=1 n=f6 v=78
300240 On ch=1 n=c6 v=78
300360 Off ch=1 n=c6 v=80
300360 Off ch=1 n=f6 v=80
300480 On ch=1 n=g#5 v=120
300480 On ch=1 n=a#5 v=120
300720 Off ch=1 n=a#5 v=80
300720 On ch=1 n=c6 v=78
300840 Off ch=1 n=c6 v=80
300840 On ch=1 n=d6 v=78
300960 Off ch=1 n=g#5 v=80
300960 Off ch=1 n=d6 v=80
300960 On ch=1 n=d#6 v=78
300960 On ch=1 n=g5 v=78
301080 Off ch=1 n=g5 v=80
301080 Off ch=1 n=d#6 v=80
301200 On ch=1 n=g#5 v=78
301200 On ch=1 n=d#5 v=78
301200 On ch=1 n=c6 v=78
301380 Off ch=1 n=c6 v=80
301380 Off ch=1 n=d#5 v=80
301380 Off ch=1 n=g#5 v=80
301440 On ch=1 n=f5 v=78
301440 On ch=1 n=d5 v=78
301440 On ch=1 n=b5 v=78
301620 Off ch=1 n=b5 v=80
301620 Off ch=1 n=d5 v=80
301620 Off ch=1 n=f5 v=80
301680 On ch=1 n=g4 v=102
301740 Off ch=1 n=g4 v=80
301800 On ch=1 n=g4 v=102
301860 Off ch=1 n=g4 v=80
301920 On ch=1 n=g#4 v=102
302040 Off ch=1 n=g#4 v=80
302160 On ch=1 n=f#4 v=102
302280 Off ch=1 n=f#4 v=80
302400 On ch=1 n=g4 v=102
302640 On ch=1 n=g5 v=102
302760 Off ch=1 n=g5 v=80
302880 On ch=1 n=c5 v=102
303000 Off ch=1 n=c5 v=80
303120 On ch=1 n=d5 v=102
303240 Off ch=1 n=d5 v=80
303360 Off ch=1 n=g4 v=80
303360 On ch=1 n=g4 v=122
303411 Off ch=1 n=g4 v=80
303411 On ch=1 n=a4 v=107
303463 Off ch=1 n=a4 v=80
303463 On ch=1 n=g4 v=107
303514 Off ch=1 n=g4 v=80
303514 On ch=1 n=a4 v=107
303566 Off ch=1 n=a4 v=80
303566 On ch=1 n=g4 v=107
303617 Off ch=1 n=g4 v=80
303617 On ch=1 n=a4 v=107
303669 Off ch=1 n=a4 v=80
303669 On ch=1 n=g4 v=107
303720 Off ch=1 n=g4 v=80
303720 On ch=1 n=a4 v=107
303780 Off ch=1 n=a4 v=80
303780 On ch=1 n=b4 v=107
303840 Off ch=1 n=b4 v=80
303840 On ch=1 n=c5 v=127
304080 On ch=1 n=c6 v=127
304200 Off ch=1 n=c6 v=80
304320 On ch=1 n=f5 v=127
304440 Off ch=1 n=f5 v=80
304560 On ch=1 n=g5 v=127
304680 Off ch=1 n=g5 v=80
304800 Off ch=1 n=c5 v=80
304800 On ch=1 n=c5 v=127
304860 Off ch=1 n=c5 v=80
304860 On ch=1 n=d5 v=117
304920 Off ch=1 n=d5 v=80
304920 On ch=1 n=c5 v=117
304980 Off ch=1 n=c5 v=80
304980 On ch=1 n=d5 v=117
305040 Off ch=1 n=d5 v=80
305040 On ch=1 n=c5 v=117
305100 Off ch=1 n=c5 v=80
305100 On ch=1 n=d5 v=117
305160 Off ch=1 n=d5 v=80
305160 On ch=1 n=d5 v=117
305220 Off ch=1 n=d5 v=80
305220 On ch=1 n=e5 v=117
305280 Off ch=1 n=e5 v=80
305280 On ch=1 n=f5 v=122
305520 On ch=1 n=f6 v=122
305640 Off ch=1 n=f6 v=80
305760 On ch=1 n=a#5 v=122
305880 Off ch=1 n=a#5 v=80
306000 On ch=1 n=c6 v=122
306120 Off ch=1 n=c6 v=80
306240 Off ch=1 n=f5 v=80
306240 On ch=1 n=b5 v=127
306240 On ch=1 n=f5 v=127
306480 On ch=1 n=c6 v=122
306600 Off ch=1 n=c6 v=80
306600 On ch=1 n=d6 v=122
306720 Off ch=1 n=f5 v=80
306720 Off ch=1 n=d6 v=80
306720 On ch=1 n=d#6 v=122
306720 On ch=1 n=g5 v=122
306840 Off ch=1 n=g5 v=80
306840 Off ch=1 n=b5 v=80
306840 Off ch=1 n=d#6 v=80
306960 On ch=1 n=d6 v=122
306960 On ch=1 n=b5 v=122
306960 On ch=1 n=f5 v=122
307080 Off ch=1 n=f5 v=80
307080 Off ch=1 n=b5 v=80
307080 Off ch=1 n=d6 v=80
307200 On ch=1 n=c#6 v=122
307200 On ch=1 n=a5 v=122
307200 On ch=1 n=e5 v=122
307320 Off ch=1 n=e5 v=80
307320 Off ch=1 n=a5 v=80
307320 Off ch=1 n=c#6 v=80
307440 On ch=1 n=a4 v=102
307500 Off ch=1 n=a4 v=80
307560 On ch=1 n=a4 v=102
307620 Off ch=1 n=a4 v=80
307680 On ch=1 n=a#4 v=102
307800 Off ch=1 n=a#4 v=80
307920 On ch=1 n=g#4 v=102
308040 Off ch=1 n=g#4 v=80
308160 On ch=1 n=a4 v=102
308400 On ch=1 n=a5 v=102
308520 Off ch=1 n=a5 v=80
308640 On ch=1 n=d5 v=102
308760 Off ch=1 n=d5 v=80
308880 On ch=1 n=e5 v=102
309000 Off ch=1 n=e5 v=80
309120 Off ch=1 n=a4 v=80
309120 On ch=1 n=a4 v=122
309171 Off ch=1 n=a4 v=80
309171 On ch=1 n=b4 v=107
309223 Off ch=1 n=b4 v=80
309223 On ch=1 n=a4 v=107
309274 Off ch=1 n=a4 v=80
309274 On ch=1 n=b4 v=107
309326 Off ch=1 n=b4 v=80
309326 On ch=1 n=a4 v=107
309377 Off ch=1 n=a4 v=80
309377 On ch=1 n=b4 v=107
309429 Off ch=1 n=b4 v=80
309429 On ch=1 n=a4 v=107
309480 Off ch=1 n=a4 v=80
309480 On ch=1 n=b4 v=107
309540 Off ch=1 n=b4 v=80
309540 On ch=1 n=c#5 v=107
309600 Off ch=1 n=c#5 v=80
309600 On ch=1 n=d5 v=127
309840 On ch=1 n=d6 v=127
309960 Off ch=1 n=d6 v=80
310080 On ch=1 n=g5 v=127
310200 Off ch=1 n=g5 v=80
310320 On ch=1 n=a5 v=127
310440 Off ch=1 n=a5 v=80
310560 Off ch=1 n=d5 v=80
310560 On ch=1 n=d5 v=117
310620 Off ch=1 n=d5 v=80
310620 On ch=1 n=e5 v=117
310680 Off ch=1 n=e5 v=80
310680 On ch=1 n=d5 v=117
310740 Off ch=1 n=d5 v=80
310740 On ch=1 n=e5 v=117
310800 Off ch=1 n=e5 v=80
310800 On ch=1 n=d5 v=117
310860 Off ch=1 n=d5 v=80
310860 On ch=1 n=e5 v=117
310920 Off ch=1 n=e5 v=80
310920 On ch=1 n=e5 v=117
310980 Off ch=1 n=e5 v=80
310980 On ch=1 n=f#5 v=117
311040 Off ch=1 n=f#5 v=80
311040 On ch=1 n=g5 v=122
311280 On ch=1 n=g6 v=122
311400 Off ch=1 n=g6 v=80
311520 On ch=1 n=c6 v=122
311640 Off ch=1 n=c6 v=80
311760 On ch=1 n=d6 v=122
311880 Off ch=1 n=d6 v=80
312000 Off ch=1 n=g5 v=80
312000 On ch=1 n=g5 v=127
312000 On ch=1 n=c#6 v=127
312240 On ch=1 n=d6 v=122
312360 Off ch=1 n=d6 v=80
312360 On ch=1 n=e6 v=122
312480 Off ch=1 n=g5 v=80
312480 Off ch=1 n=e6 v=80
312480 On ch=1 n=f6 v=122
312480 On ch=1 n=a5 v=122
312600 Off ch=1 n=a5 v=80
312600 Off ch=1 n=c#6 v=80
312600 Off ch=1 n=f6 v=80
312720 On ch=1 n=e6 v=122
312720 On ch=1 n=c#6 v=122
312720 On ch=1 n=g5 v=122
312840 Off ch=1 n=g5 v=80
312840 Off ch=1 n=c#6 v=80
312840 Off ch=1 n=e6 v=80
312960 On ch=1 n=d#6 v=122
312960 On ch=1 n=b5 v=122
312960 On ch=1 n=f#5 v=122
313080 Off ch=1 n=f#5 v=80
313080 Off ch=1 n=b5 v=80
313080 Off ch=1 n=d#6 v=80
313200 On ch=1 n=b4 v=102
313260 Off ch=1 n=b4 v=80
313320 On ch=1 n=b4 v=102
313380 Off ch=1 n=b4 v=80
313440 On ch=1 n=c#5 v=102
313560 Off ch=1 n=c#5 v=80
313680 On ch=1 n=a#4 v=102
313800 Off ch=1 n=a#4 v=80
313920 On ch=1 n=b4 v=102
314160 Off ch=1 n=b4 v=80
314160 On ch=1 n=g6 v=117
314160 On ch=1 n=e6 v=117
314160 On ch=1 n=a#5 v=117
314340 Off ch=1 n=a#5 v=80
314340 Off ch=1 n=e6 v=80
314340 Off ch=1 n=g6 v=80
314400 On ch=1 n=b5 v=117
314400 On ch=1 n=d#6 v=117
314400 On ch=1 n=f#6 v=117
314580 Off ch=1 n=f#6 v=80
314580 Off ch=1 n=d#6 v=80
314580 Off ch=1 n=b5 v=80
314640 On ch=1 n=b4 v=102
314700 Off ch=1 n=b4 v=80
314760 On ch=1 n=b4 v=102
314820 Off ch=1 n=b4 v=80
314880 On ch=1 n=c#5 v=102
315000 Off ch=1 n=c#5 v=80
315120 On ch=1 n=a#4 v=102
315240 Off ch=1 n=a#4 v=80
315360 On ch=1 n=b4 v=102
315600 Off ch=1 n=b4 v=80
315600 On ch=1 n=d6 v=127
315600 On ch=1 n=f6 v=127
315600 On ch=1 n=g#5 v=127
315600 On ch=1 n=g#6 v=127
316080 Off ch=1 n=g#6 v=80
316080 Off ch=1 n=g#5 v=80
316080 Off ch=1 n=f6 v=80
316080 Off ch=1 n=d6 v=80
316080 On ch=1 n=a#4 v=102
316140 Off ch=1 n=a#4 v=80
316200 On ch=1 n=a#4 v=102
316260 Off ch=1 n=a#4 v=80
316320 On ch=1 n=c5 v=102
316440 Off ch=1 n=c5 v=80
316560 On ch=1 n=a4 v=102
316680 Off ch=1 n=a4 v=80
316800 On ch=1 n=a#4 v=102
317040 Off ch=1 n=a#4 v=80
317040 On ch=1 n=g6 v=117
317040 On ch=1 n=d#6 v=117
317040 On ch=1 n=g5 v=117
317220 Off ch=1 n=g5 v=80
317220 Off ch=1 n=d#6 v=80
317220 Off ch=1 n=g6 v=80
317280 On ch=1 n=g#5 v=117
317280 On ch=1 n=d6 v=117
317280 On ch=1 n=f6 v=117
317460 Off ch=1 n=f6 v=80
317460 Off ch=1 n=d6 v=80
317460 Off ch=1 n=g#5 v=80
317520 On ch=1 n=a4 v=114
317580 Off ch=1 n=a4 v=80
317640 On ch=1 n=a4 v=90
317700 Off ch=1 n=a4 v=80
317760 On ch=1 n=a#4 v=90
317880 Off ch=1 n=a#4 v=80
318000 On ch=1 n=g#4 v=90
318120 Off ch=1 n=g#4 v=80
318240 On ch=1 n=a4 v=90
318450 Off ch=1 n=a4 v=80
318480 On ch=1 n=a5 v=102
318480 On ch=1 n=e6 v=102
318480 On ch=1 n=a6 v=102
318600 Off ch=1 n=a6 v=80
318600 Off ch=1 n=e6 v=80
318600 Off ch=1 n=a5 v=80
318720 On ch=1 n=d6 v=78
318720 On ch=1 n=a5 v=78
318840 Off ch=1 n=a5 v=80
318840 Off ch=1 n=d6 v=80
318960 On ch=1 n=e6 v=78
318960 On ch=1 n=b5 v=78
319080 Off ch=1 n=b5 v=80
319080 Off ch=1 n=e6 v=80
319200 On ch=1 n=a5 v=120
319200 On ch=1 n=g5 v=120
319440 Off ch=1 n=a5 v=80
319440 On ch=1 n=b5 v=78
319560 Off ch=1 n=b5 v=80
319560 On ch=1 n=c#6 v=78
319680 Off ch=1 n=g5 v=80
319680 Off ch=1 n=c#6 v=80
319680 On ch=1 n=d6 v=78
319680 On ch=1 n=f#5 v=78
319920 Off ch=1 n=f#5 v=80
319920 Off ch=1 n=d6 v=80
319920 On ch=1 n=f#5 v=84
320400 Off ch=1 n=f#5 v=80
320400 On ch=1 n=f#6 v=120
320400 On ch=1 n=f#5 v=120
320880 Off ch=1 n=f#5 v=80
320880 Off ch=1 n=f#6 v=80
320880 On ch=1 n=e6 v=96
320880 On ch=1 n=f#5 v=96
321120 Off ch=1 n=f#5 v=80
321120 Off ch=1 n=e6 v=80
321120 On ch=1 n=d6 v=102
321240 Off ch=1 n=d6 v=80
321240 On ch=1 n=e6 v=102
321360 Off ch=1 n=e6 v=80
321360 On ch=1 n=d6 v=102
321480 Off ch=1 n=d6 v=80
321480 On ch=1 n=c#6 v=102
321600 Off ch=1 n=c#6 v=80
321600 On ch=1 n=b5 v=102
321720 Off ch=1 n=b5 v=80
321720 On ch=1 n=c#6 v=102
321840 Off ch=1 n=c#6 v=80
321840 On ch=1 n=b5 v=102
321960 Off ch=1 n=b5 v=80
321960 On ch=1 n=a5 v=102
322080 Off ch=1 n=a5 v=80
322080 On ch=1 n=g#5 v=102
322320 Off ch=1 n=g#5 v=80
322320 On ch=1 n=g#5 v=102
322320 On ch=1 n=e6 v=102
322440 Off ch=1 n=e6 v=80
322440 Off ch=1 n=g#5 v=80
322560 On ch=1 n=a5 v=102
322560 On ch=1 n=g5 v=102
322680 Off ch=1 n=g5 v=80
322680 Off ch=1 n=a5 v=80
322800 On ch=1 n=a4 v=114
322860 Off ch=1 n=a4 v=80
322920 On ch=1 n=a4 v=90
322980 Off ch=1 n=a4 v=80
323040 On ch=1 n=a#4 v=90
323160 Off ch=1 n=a#4 v=80
323280 On ch=1 n=g#4 v=90
323400 Off ch=1 n=g#4 v=80
323520 On ch=1 n=a4 v=90
323640 Off ch=1 n=a4 v=80
323760 On ch=1 n=a5 v=102
323760 On ch=1 n=e6 v=102
323760 On ch=1 n=a6 v=102
323880 Off ch=1 n=a6 v=80
323880 Off ch=1 n=e6 v=80
323880 Off ch=1 n=a5 v=80
324000 On ch=1 n=d6 v=78
324000 On ch=1 n=a5 v=78
324120 Off ch=1 n=a5 v=80
324120 Off ch=1 n=d6 v=80
324240 On ch=1 n=e6 v=78
324240 On ch=1 n=b5 v=78
324360 Off ch=1 n=b5 v=80
324360 Off ch=1 n=e6 v=80
324480 On ch=1 n=g5 v=120
324480 On ch=1 n=a5 v=120
324720 Off ch=1 n=a5 v=80
324720 On ch=1 n=b5 v=78
324840 Off ch=1 n=b5 v=80
324840 On ch=1 n=c#6 v=78
324960 Off ch=1 n=g5 v=80
324960 Off ch=1 n=c#6 v=80
324960 On ch=1 n=d6 v=78
324960 On ch=1 n=f#5 v=78
325080 Off ch=1 n=f#5 v=80
325080 Off ch=1 n=d6 v=80
325200 On ch=1 n=g#5 v=78
325200 On ch=1 n=d5 v=78
325380 Off ch=1 n=d5 v=80
325380 Off ch=1 n=g#5 v=80
325440 On ch=1 n=a5 v=78
325440 On ch=1 n=c#5 v=78
325620 Off ch=1 n=c#5 v=80
325620 Off ch=1 n=a5 v=80
325680 On ch=1 n=g5 v=78
325680 On ch=1 n=e5 v=78
325680 On ch=1 n=a4 v=78
325860 Off ch=1 n=a4 v=80
325860 Off ch=1 n=e5 v=80
325860 Off ch=1 n=g5 v=80
325920 On ch=1 n=f#5 v=78
325920 On ch=1 n=d5 v=78
325920 On ch=1 n=a4 v=78
326100 Off ch=1 n=a4 v=80
326100 Off ch=1 n=d5 v=80
326100 Off ch=1 n=f#5 v=80
326160 On ch=1 n=f5 v=81
326160 On ch=1 n=d5 v=81
326160 On ch=1 n=b4 v=81
326340 Off ch=1 n=b4 v=80
326340 Off ch=1 n=d5 v=80
326340 Off ch=1 n=f5 v=80
326400 On ch=1 n=e5 v=84
326400 On ch=1 n=c#5 v=84
326580 Off ch=1 n=c#5 v=80
326580 Off ch=1 n=e5 v=80
326640 On ch=1 n=a5 v=87
326640 On ch=1 n=e5 v=87
326640 On ch=1 n=c5 v=87
326820 Off ch=1 n=c5 v=80
326820 Off ch=1 n=e5 v=80
326820 Off ch=1 n=a5 v=80
326880 On ch=1 n=a5 v=90
326880 On ch=1 n=d#5 v=90
326880 On ch=1 n=b4 v=90
327060 Off ch=1 n=b4 v=80
327060 Off ch=1 n=d#5 v=80
327060 Off ch=1 n=a5 v=80
327120 On ch=1 n=b5 v=93
327600 Off ch=1 n=b5 v=80
327600 On ch=1 n=b6 v=120
327600 On ch=1 n=f#6 v=120
327600 On ch=1 n=b5 v=120
328080 Off ch=1 n=b6 v=80
328080 On ch=1 n=a6 v=99
328320 Off ch=1 n=f#6 v=80
328320 Off ch=1 n=b5 v=80
328320 Off ch=1 n=a6 v=80
328320 On ch=1 n=g6 v=102
328440 Off ch=1 n=g6 v=80
328440 On ch=1 n=a6 v=102
328560 Off ch=1 n=a6 v=80
328560 On ch=1 n=g6 v=102
328680 Off ch=1 n=g6 v=80
328680 On ch=1 n=f#6 v=102
328800 Off ch=1 n=f#6 v=80
328800 On ch=1 n=e6 v=102
328920 Off ch=1 n=e6 v=80
328920 On ch=1 n=f#6 v=102
329040 Off ch=1 n=f#6 v=80
329040 On ch=1 n=e6 v=102
329160 Off ch=1 n=e6 v=80
329160 On ch=1 n=d6 v=102
329280 Off ch=1 n=d6 v=80
329280 On ch=1 n=c6 v=102
329520 Off ch=1 n=c6 v=80
329520 On ch=1 n=a6 v=102
329520 On ch=1 n=c6 v=102
329640 Off ch=1 n=c6 v=80
329640 Off ch=1 n=a6 v=80
329760 On ch=1 n=c6 v=102
329760 On ch=1 n=d6 v=102
329970 Off ch=1 n=d6 v=80
329970 Off ch=1 n=c6 v=80
330000 On ch=1 n=d5 v=114
330060 Off ch=1 n=d5 v=80
330120 On ch=1 n=d5 v=90
330180 Off ch=1 n=d5 v=80
330240 On ch=1 n=d#5 v=90
330360 Off ch=1 n=d#5 v=80
330480 On ch=1 n=c#5 v=90
330600 Off ch=1 n=c#5 v=80
330720 On ch=1 n=d5 v=90
330840 Off ch=1 n=d5 v=80
330960 On ch=1 n=d6 v=102
330960 On ch=1 n=a6 v=102
330960 On ch=1 n=d7 v=102
331080 Off ch=1 n=d7 v=80
331080 Off ch=1 n=a6 v=80
331080 Off ch=1 n=d6 v=80
331200 On ch=1 n=g6 v=78
331200 On ch=1 n=d6 v=78
331320 Off ch=1 n=d6 v=80
331320 Off ch=1 n=g6 v=80
331440 On ch=1 n=a6 v=78
331440 On ch=1 n=e6 v=78
331560 Off ch=1 n=e6 v=80
331560 Off ch=1 n=a6 v=80
331680 On ch=1 n=c6 v=120
331680 On ch=1 n=d6 v=120
331920 Off ch=1 n=d6 v=80
331920 On ch=1 n=e6 v=78
332040 Off ch=1 n=e6 v=80
332040 On ch=1 n=f#6 v=78
332160 Off ch=1 n=c6 v=80
332160 Off ch=1 n=f#6 v=80
332160 On ch=1 n=g6 v=78
332160 On ch=1 n=b5 v=78
332280 Off ch=1 n=b5 v=80
332280 Off ch=1 n=g6 v=80
332400 On ch=1 n=c#6 v=78
332400 On ch=1 n=g5 v=78
332580 Off ch=1 n=g5 v=80
332580 Off ch=1 n=c#6 v=80
332640 On ch=1 n=d6 v=78
332640 On ch=1 n=f#5 v=78
332820 Off ch=1 n=f#5 v=80
332820 Off ch=1 n=d6 v=80
332880 On ch=1 n=c6 v=78
332880 On ch=1 n=a5 v=78
332880 On ch=1 n=d5 v=78
333060 Off ch=1 n=d5 v=80
333060 Off ch=1 n=a5 v=80
333060 Off ch=1 n=c6 v=80
333120 On ch=1 n=b5 v=78
333120 On ch=1 n=g5 v=78
333120 On ch=1 n=d5 v=78
333300 Off ch=1 n=d5 v=80
333300 Off ch=1 n=g5 v=80
333300 Off ch=1 n=b5 v=80
333360 On ch=1 n=a5 v=81
333360 On ch=1 n=f#5 v=81
333360 On ch=1 n=c5 v=81
333540 Off ch=1 n=c5 v=80
333540 Off ch=1 n=f#5 v=80
333540 Off ch=1 n=a5 v=80
333600 On ch=1 n=e5 v=84
333600 On ch=1 n=g5 v=84
333600 On ch=1 n=b4 v=84
333780 Off ch=1 n=b4 v=80
333780 Off ch=1 n=g5 v=80
333780 Off ch=1 n=e5 v=80
333840 On ch=1 n=b4 v=87
333840 On ch=1 n=e5 v=87
333840 On ch=1 n=g#5 v=87
334020 Off ch=1 n=g#5 v=80
334020 Off ch=1 n=e5 v=80
334020 Off ch=1 n=b4 v=80
334080 On ch=1 n=a5 v=98
334080 On ch=1 n=e5 v=98
334080 On ch=1 n=a4 v=98
334260 Off ch=1 n=a4 v=80
334260 Off ch=1 n=e5 v=80
334260 Off ch=1 n=a5 v=80
334320 On ch=1 n=b5 v=106
334320 On ch=1 n=g#5 v=106
334320 On ch=1 n=e5 v=106
334500 Off ch=1 n=e5 v=80
334500 Off ch=1 n=g#5 v=80
334500 Off ch=1 n=b5 v=80
334560 On ch=1 n=e5 v=114
334560 On ch=1 n=a5 v=114
334560 On ch=1 n=c#6 v=114
334740 Off ch=1 n=c#6 v=80
334740 Off ch=1 n=a5 v=80
334740 Off ch=1 n=e5 v=80
335040 On ch=1 n=d6 v=114
335040 On ch=1 n=a5 v=114
335040 On ch=1 n=f#5 v=114
335280 Off ch=1 n=f#5 v=80
335280 Off ch=1 n=a5 v=80
335280 Off ch=1 n=d6 v=80
335520 On ch=1 n=f#5 v=65
335520 On ch=1 n=c#5 v=65
335520 On ch=1 n=a#4 v=65
335760 Off ch=1 n=a#4 v=80
335760 Off ch=1 n=c#5 v=80
335760 On ch=1 n=b4 v=65
335760 On ch=1 n=d5 v=65
336000 Off ch=1 n=d5 v=80
336000 Off ch=1 n=f#5 v=80
336000 Off ch=1 n=b4 v=80
336000 On ch=1 n=g5 v=65
336000 On ch=1 n=d5 v=65
336000 On ch=1 n=b4 v=65
336240 Off ch=1 n=b4 v=80
336240 Off ch=1 n=d5 v=80
336240 On ch=1 n=c#5 v=65
336240 On ch=1 n=e5 v=65
336480 Off ch=1 n=e5 v=80
336480 Off ch=1 n=g5 v=80
336480 Off ch=1 n=c#5 v=80
336480 On ch=1 n=e5 v=65
336480 On ch=1 n=b4 v=65
336480 On ch=1 n=g4 v=65
336720 Off ch=1 n=g4 v=80
336720 Off ch=1 n=b4 v=80
336720 On ch=1 n=a4 v=65
336720 On ch=1 n=c#5 v=65
336960 Off ch=1 n=c#5 v=80
336960 Off ch=1 n=e5 v=80
336960 Off ch=1 n=a4 v=80
336960 On ch=1 n=c#5 v=65
336960 On ch=1 n=a4 v=65
336960 On ch=1 n=f#5 v=65
337200 Off ch=1 n=a4 v=80
337200 Off ch=1 n=c#5 v=80
337200 On ch=1 n=d5 v=65
337200 On ch=1 n=b4 v=65
337440 Off ch=1 n=b4 v=80
337440 Off ch=1 n=f#5 v=80
337440 Off ch=1 n=d5 v=80
337440 On ch=1 n=a4 v=65
337440 On ch=1 n=f#4 v=65
337440 On ch=1 n=d5 v=65
337680 Off ch=1 n=f#4 v=80
337680 Off ch=1 n=a4 v=80
337680 On ch=1 n=g4 v=65
337680 On ch=1 n=b4 v=65
337920 Off ch=1 n=b4 v=80
337920 Off ch=1 n=d5 v=80
337920 Off ch=1 n=g4 v=80
337920 On ch=1 n=b4 v=65
337920 On ch=1 n=g4 v=65
337920 On ch=1 n=e5 v=65
338160 Off ch=1 n=g4 v=80
338160 Off ch=1 n=b4 v=80
338160 On ch=1 n=g#4 v=65
338400 Off ch=1 n=e5 v=80
338400 Off ch=1 n=g#4 v=80
338400 On ch=1 n=a#4 v=65
338400 On ch=1 n=c#5 v=65
338640 Off ch=1 n=c#5 v=80
338640 On ch=1 n=d#5 v=65
338880 Off ch=1 n=a#4 v=80
338880 Off ch=1 n=d#5 v=80
338880 On ch=1 n=a#4 v=65
338880 On ch=1 n=c#5 v=65
339120 Off ch=1 n=c#5 v=80
339120 On ch=1 n=f#5 v=65
339360 Off ch=1 n=a#4 v=80
339360 Off ch=1 n=f#5 v=80
339360 On ch=1 n=b4 v=65
339360 On ch=1 n=f#5 v=65
339360 On ch=1 n=d#5 v=65
339600 Off ch=1 n=d#5 v=80
339600 Off ch=1 n=f#5 v=80
339600 On ch=1 n=f5 v=65
339840 Off ch=1 n=b4 v=80
339840 Off ch=1 n=f5 v=80
339840 On ch=1 n=a#4 v=73
339840 On ch=1 n=f#5 v=73
340080 Off ch=1 n=a#4 v=80
340080 On ch=1 n=c#5 v=81
340320 Off ch=1 n=f#5 v=80
340320 Off ch=1 n=c#5 v=80
340320 On ch=1 n=b4 v=84
340320 On ch=1 n=f5 v=84
340320 On ch=1 n=d#5 v=84
340560 Off ch=1 n=b4 v=80
340560 On ch=1 n=c#5 v=84
340800 Off ch=1 n=f5 v=80
340800 Off ch=1 n=d#5 v=80
340800 Off ch=1 n=c#5 v=80
340800 On ch=1 n=a#4 v=78
340800 On ch=1 n=f#5 v=78
341040 Off ch=1 n=a#4 v=80
341040 On ch=1 n=c#5 v=72
341280 Off ch=1 n=f#5 v=80
341280 On ch=1 n=f#5 v=65
341280 On ch=1 n=a#4 v=65
341520 Off ch=1 n=a#4 v=80
341520 Off ch=1 n=c#5 v=80
341520 Off ch=1 n=f#5 v=80
341520 On ch=1 n=g5 v=70
341520 On ch=1 n=d5 v=70
341520 On ch=1 n=b4 v=70
341760 Off ch=1 n=b4 v=80
341760 Off ch=1 n=d5 v=80
341760 Off ch=1 n=g5 v=80
341760 On ch=1 n=b4 v=75
341760 On ch=1 n=d5 v=75
341760 On ch=1 n=g5 v=75
342000 Off ch=1 n=g5 v=80
342000 Off ch=1 n=d5 v=80
342000 Off ch=1 n=b4 v=80
342000 On ch=1 n=e5 v=80
342000 On ch=1 n=c#5 v=80
342000 On ch=1 n=g4 v=80
342240 Off ch=1 n=g4 v=80
342240 Off ch=1 n=c#5 v=80
342240 Off ch=1 n=e5 v=80
342240 On ch=1 n=e5 v=85
342240 On ch=1 n=c#5 v=85
342240 On ch=1 n=g4 v=85
342480 Off ch=1 n=g4 v=80
342480 Off ch=1 n=c#5 v=80
342480 Off ch=1 n=e5 v=80
342480 On ch=1 n=f#5 v=90
342480 On ch=1 n=d5 v=90
342480 On ch=1 n=a4 v=90
342720 Off ch=1 n=a4 v=80
342720 Off ch=1 n=d5 v=80
342720 Off ch=1 n=f#5 v=80
342720 On ch=1 n=f#5 v=65
342720 On ch=1 n=a4 v=65
342720 On ch=1 n=d5 v=65
342960 Off ch=1 n=d5 v=80
342960 Off ch=1 n=a4 v=80
342960 Off ch=1 n=f#5 v=80
342960 On ch=1 n=d5 v=71
342960 On ch=1 n=b4 v=71
342960 On ch=1 n=f4 v=71
343200 Off ch=1 n=f4 v=80
343200 Off ch=1 n=b4 v=80
343200 Off ch=1 n=d5 v=80
343200 On ch=1 n=d5 v=77
343200 On ch=1 n=b4 v=77
343200 On ch=1 n=f4 v=77
343440 Off ch=1 n=f4 v=80
343440 Off ch=1 n=b4 v=80
343440 Off ch=1 n=d5 v=80
343440 On ch=1 n=e5 v=83
343440 On ch=1 n=e4 v=83
343680 Off ch=1 n=e4 v=80
343680 Off ch=1 n=e5 v=80
343680 On ch=1 n=e5 v=90
343680 On ch=1 n=e4 v=90
344160 Off ch=1 n=e4 v=80
344160 Off ch=1 n=e5 v=80
344160 On ch=1 n=d5 v=65
344160 On ch=1 n=g4 v=65
344400 Off ch=1 n=d5 v=80
344400 On ch=1 n=e5 v=69
344640 Off ch=1 n=g4 v=80
344640 Off ch=1 n=e5 v=80
344640 On ch=1 n=d5 v=73
344640 On ch=1 n=g4 v=73
344880 Off ch=1 n=d5 v=80
344880 On ch=1 n=g5 v=77
345120 Off ch=1 n=g4 v=80
345120 On ch=1 n=a4 v=81
345360 Off ch=1 n=g5 v=80
345360 On ch=1 n=f#5 v=85
345600 Off ch=1 n=a4 v=80
345600 Off ch=1 n=f#5 v=80
345600 On ch=1 n=g5 v=90
345600 On ch=1 n=g4 v=90
345840 Off ch=1 n=g5 v=80
345840 On ch=1 n=d5 v=86
346080 Off ch=1 n=g4 v=80
346080 Off ch=1 n=d5 v=80
346080 On ch=1 n=g5 v=82
346080 On ch=1 n=g4 v=82
346320 Off ch=1 n=g5 v=80
346320 On ch=1 n=e5 v=78
346560 Off ch=1 n=e5 v=80
346560 On ch=1 n=g5 v=74
346800 Off ch=1 n=g5 v=80
346800 On ch=1 n=d5 v=70
347040 Off ch=1 n=g4 v=80
347040 Off ch=1 n=d5 v=80
347040 On ch=1 n=f#5 v=65
347040 On ch=1 n=a#4 v=53
347040 On ch=1 n=c#5 v=53
347280 Off ch=1 n=c#5 v=80
347280 Off ch=1 n=a#4 v=80
347280 On ch=1 n=b4 v=53
347280 On ch=1 n=d5 v=53
347520 Off ch=1 n=d5 v=80
347520 Off ch=1 n=f#5 v=80
347520 Off ch=1 n=b4 v=80
347520 On ch=1 n=g5 v=65
347520 On ch=1 n=d5 v=53
347520 On ch=1 n=b4 v=53
347760 Off ch=1 n=b4 v=80
347760 Off ch=1 n=d5 v=80
347760 On ch=1 n=c#5 v=53
347760 On ch=1 n=e5 v=53
348000 Off ch=1 n=e5 v=80
348000 Off ch=1 n=g5 v=80
348000 Off ch=1 n=c#5 v=80
348000 On ch=1 n=e5 v=65
348000 On ch=1 n=b4 v=53
348000 On ch=1 n=g4 v=53
348240 Off ch=1 n=g4 v=80
348240 Off ch=1 n=b4 v=80
348240 On ch=1 n=a4 v=53
348240 On ch=1 n=c#5 v=53
348480 Off ch=1 n=c#5 v=80
348480 Off ch=1 n=e5 v=80
348480 Off ch=1 n=a4 v=80
348480 On ch=1 n=c#5 v=65
348480 On ch=1 n=a4 v=65
348480 On ch=1 n=f#5 v=65
348720 Off ch=1 n=a4 v=80
348720 Off ch=1 n=c#5 v=80
348720 On ch=1 n=d5 v=65
348720 On ch=1 n=b4 v=65
348960 Off ch=1 n=b4 v=80
348960 Off ch=1 n=f#5 v=80
348960 Off ch=1 n=d5 v=80
348960 On ch=1 n=a4 v=65
348960 On ch=1 n=f#4 v=65
348960 On ch=1 n=d5 v=65
349200 Off ch=1 n=f#4 v=80
349200 Off ch=1 n=a4 v=80
349200 On ch=1 n=g4 v=65
349200 On ch=1 n=b4 v=65
349440 Off ch=1 n=b4 v=80
349440 Off ch=1 n=d5 v=80
349440 Off ch=1 n=g4 v=80
349440 On ch=1 n=b4 v=65
349440 On ch=1 n=g4 v=65
349440 On ch=1 n=e5 v=65
349680 Off ch=1 n=g4 v=80
349680 Off ch=1 n=b4 v=80
349680 On ch=1 n=g#4 v=65
349920 Off ch=1 n=e5 v=80
349920 Off ch=1 n=g#4 v=80
349920 On ch=1 n=a#4 v=65
349920 On ch=1 n=c#5 v=65
350160 Off ch=1 n=c#5 v=80
350160 On ch=1 n=d#5 v=65
350400 Off ch=1 n=a#4 v=80
350400 Off ch=1 n=d#5 v=80
350400 On ch=1 n=a#4 v=65
350400 On ch=1 n=c#5 v=65
350640 Off ch=1 n=c#5 v=80
350640 On ch=1 n=f#5 v=65
350880 Off ch=1 n=a#4 v=80
350880 Off ch=1 n=f#5 v=80
350880 On ch=1 n=b4 v=65
350880 On ch=1 n=f#5 v=65
350880 On ch=1 n=d#5 v=65
351120 Off ch=1 n=d#5 v=80
351120 Off ch=1 n=f#5 v=80
351120 On ch=1 n=f5 v=65
351360 Off ch=1 n=b4 v=80
351360 Off ch=1 n=f5 v=80
351360 On ch=1 n=a#4 v=73
351360 On ch=1 n=f#5 v=73
351600 Off ch=1 n=a#4 v=80
351600 On ch=1 n=c#5 v=81
351840 Off ch=1 n=f#5 v=80
351840 Off ch=1 n=c#5 v=80
351840 On ch=1 n=b4 v=84
351840 On ch=1 n=d#5 v=84
351840 On ch=1 n=f5 v=84
352080 Off ch=1 n=b4 v=80
352080 On ch=1 n=c#5 v=84
352320 Off ch=1 n=d#5 v=80
352320 Off ch=1 n=f5 v=80
352320 Off ch=1 n=c#5 v=80
352320 On ch=1 n=a#4 v=78
352320 On ch=1 n=f#5 v=78
352560 Off ch=1 n=a#4 v=80
352560 On ch=1 n=c#5 v=72
352800 Off ch=1 n=f#5 v=80
352800 On ch=1 n=f#5 v=65
352800 On ch=1 n=a#4 v=65
353040 Off ch=1 n=a#4 v=80
353040 Off ch=1 n=c#5 v=80
353040 Off ch=1 n=f#5 v=80
353040 On ch=1 n=g5 v=70
353040 On ch=1 n=d5 v=70
353040 On ch=1 n=b4 v=70
353280 Off ch=1 n=b4 v=80
353280 Off ch=1 n=d5 v=80
353280 Off ch=1 n=g5 v=80
353280 On ch=1 n=b4 v=75
353280 On ch=1 n=d5 v=75
353280 On ch=1 n=g5 v=75
353520 Off ch=1 n=g5 v=80
353520 Off ch=1 n=d5 v=80
353520 Off ch=1 n=b4 v=80
353520 On ch=1 n=e5 v=80
353520 On ch=1 n=c#5 v=80
353520 On ch=1 n=g4 v=80
353760 Off ch=1 n=g4 v=80
353760 Off ch=1 n=c#5 v=80
353760 Off ch=1 n=e5 v=80
353760 On ch=1 n=e5 v=85
353760 On ch=1 n=c#5 v=85
353760 On ch=1 n=g4 v=85
354000 Off ch=1 n=g4 v=80
354000 Off ch=1 n=c#5 v=80
354000 Off ch=1 n=e5 v=80
354000 On ch=1 n=f#5 v=90
354000 On ch=1 n=d5 v=90
354000 On ch=1 n=a4 v=90
354240 Off ch=1 n=a4 v=80
354240 Off ch=1 n=d5 v=80
354240 Off ch=1 n=f#5 v=80
354240 On ch=1 n=f#5 v=65
354240 On ch=1 n=a4 v=65
354240 On ch=1 n=d5 v=65
354480 Off ch=1 n=d5 v=80
354480 Off ch=1 n=a4 v=80
354480 Off ch=1 n=f#5 v=80
354480 On ch=1 n=d5 v=71
354480 On ch=1 n=b4 v=71
354480 On ch=1 n=f4 v=71
354720 Off ch=1 n=f4 v=80
354720 Off ch=1 n=b4 v=80
354720 Off ch=1 n=d5 v=80
354720 On ch=1 n=d5 v=77
354720 On ch=1 n=b4 v=77
354720 On ch=1 n=f4 v=77
354960 Off ch=1 n=f4 v=80
354960 Off ch=1 n=b4 v=80
354960 Off ch=1 n=d5 v=80
354960 On ch=1 n=e5 v=83
354960 On ch=1 n=e4 v=83
355200 Off ch=1 n=e4 v=80
355200 Off ch=1 n=e5 v=80
355200 On ch=1 n=e5 v=90
355200 On ch=1 n=e4 v=90
355680 Off ch=1 n=e4 v=80
355680 Off ch=1 n=e5 v=80
355680 On ch=1 n=d5 v=65
355680 On ch=1 n=g4 v=65
355920 Off ch=1 n=d5 v=80
355920 On ch=1 n=e5 v=69
356160 Off ch=1 n=g4 v=80
356160 Off ch=1 n=e5 v=80
356160 On ch=1 n=d5 v=73
356160 On ch=1 n=g4 v=73
356400 Off ch=1 n=d5 v=80
356400 On ch=1 n=g5 v=77
356640 Off ch=1 n=g4 v=80
356640 On ch=1 n=a4 v=81
356880 Off ch=1 n=g5 v=80
356880 On ch=1 n=f#5 v=85
357120 Off ch=1 n=a4 v=80
357120 Off ch=1 n=f#5 v=80
357120 On ch=1 n=g5 v=90
357120 On ch=1 n=g4 v=90
357360 Off ch=1 n=g5 v=80
357360 On ch=1 n=d5 v=86
357600 Off ch=1 n=g4 v=80
357600 Off ch=1 n=d5 v=80
357600 On ch=1 n=g5 v=82
357600 On ch=1 n=g4 v=82
357840 Off ch=1 n=g5 v=80
357840 On ch=1 n=e5 v=78
358080 Off ch=1 n=e5 v=80
358080 On ch=1 n=g5 v=74
358320 Off ch=1 n=g5 v=80
358320 On ch=1 n=d5 v=70
358560 Off ch=1 n=g4 v=80
358560 Off ch=1 n=d5 v=80
358560 On ch=1 n=g5 v=84
358560 On ch=1 n=b4 v=84
358800 Off ch=1 n=b4 v=80
358800 Off ch=1 n=g5 v=80
358800 On ch=1 n=c5 v=84
358800 On ch=1 n=a5 v=84
359040 Off ch=1 n=a5 v=80
359040 Off ch=1 n=c5 v=80
359040 On ch=1 n=g5 v=84
359040 On ch=1 n=b4 v=84
359280 Off ch=1 n=b4 v=80
359280 Off ch=1 n=g5 v=80
359280 On ch=1 n=b5 v=84
359280 On ch=1 n=d5 v=84
359460 Off ch=1 n=d5 v=80
359460 Off ch=1 n=b5 v=80
359520 On ch=1 n=b5 v=84
359520 On ch=1 n=d5 v=84
359760 Off ch=1 n=d5 v=80
359760 Off ch=1 n=b5 v=80
359760 On ch=1 n=a5 v=84
359760 On ch=1 n=c5 v=84
360000 Off ch=1 n=c5 v=80
360000 Off ch=1 n=a5 v=80
360000 On ch=1 n=a5 v=84
360000 On ch=1 n=c5 v=84
360240 Off ch=1 n=c5 v=80
360240 Off ch=1 n=a5 v=80
360240 On ch=1 n=d5 v=84
360240 On ch=1 n=b5 v=84
360480 Off ch=1 n=b5 v=80
360480 Off ch=1 n=d5 v=80
360480 On ch=1 n=b5 v=84
360480 On ch=1 n=d5 v=84
360720 Off ch=1 n=d5 v=80
360720 Off ch=1 n=b5 v=80
360720 On ch=1 n=a5 v=84
360720 On ch=1 n=c5 v=84
360960 Off ch=1 n=c5 v=80
360960 Off ch=1 n=a5 v=80
360960 On ch=1 n=c5 v=84
360960 On ch=1 n=a5 v=84
361200 Off ch=1 n=a5 v=80
361200 Off ch=1 n=c5 v=80
361200 On ch=1 n=d5 v=84
361200 On ch=1 n=b5 v=84
361440 Off ch=1 n=b5 v=80
361440 Off ch=1 n=d5 v=80
361440 On ch=1 n=c5 v=84
361440 On ch=1 n=a5 v=84
361680 Off ch=1 n=a5 v=80
361680 Off ch=1 n=c5 v=80
361680 On ch=1 n=d5 v=84
361680 On ch=1 n=b5 v=84
361920 Off ch=1 n=b5 v=80
361920 Off ch=1 n=d5 v=80
361920 On ch=1 n=c5 v=84
361920 On ch=1 n=a5 v=84
362160 Off ch=1 n=a5 v=80
362160 Off ch=1 n=c5 v=80
362160 On ch=1 n=c6 v=84
362160 On ch=1 n=e5 v=84
362340 Off ch=1 n=e5 v=80
362340 Off ch=1 n=c6 v=80
362400 On ch=1 n=c6 v=84
362400 On ch=1 n=e5 v=84
362640 Off ch=1 n=e5 v=80
362640 Off ch=1 n=c6 v=80
362640 On ch=1 n=d5 v=84
362640 On ch=1 n=a5 v=84
362880 Off ch=1 n=a5 v=80
362880 Off ch=1 n=d5 v=80
362880 On ch=1 n=a5 v=84
362880 On ch=1 n=d5 v=84
363120 Off ch=1 n=d5 v=80
363120 Off ch=1 n=a5 v=80
363120 On ch=1 n=e5 v=84
363120 On ch=1 n=c6 v=84
363360 Off ch=1 n=c6 v=80
363360 Off ch=1 n=e5 v=80
363360 On ch=1 n=e5 v=84
363360 On ch=1 n=c6 v=84
363600 Off ch=1 n=c6 v=80
363600 Off ch=1 n=e5 v=80
363600 On ch=1 n=a5 v=84
363600 On ch=1 n=d5 v=84
363840 Off ch=1 n=d5 v=80
363840 Off ch=1 n=a5 v=80
363840 On ch=1 n=a5 v=84
363840 On ch=1 n=d5 v=84
364080 Off ch=1 n=d5 v=80
364080 Off ch=1 n=a5 v=80
364080 On ch=1 n=c6 v=84
364320 Off ch=1 n=c6 v=80
364320 On ch=1 n=d5 v=84
364320 On ch=1 n=b5 v=84
364560 Off ch=1 n=b5 v=80
364560 Off ch=1 n=d5 v=80
364560 On ch=1 n=d#5 v=99
364560 On ch=1 n=c6 v=99
364800 Off ch=1 n=c6 v=80
364800 Off ch=1 n=d#5 v=80
364800 On ch=1 n=d#5 v=84
364800 On ch=1 n=c6 v=84
365040 Off ch=1 n=c6 v=80
365040 Off ch=1 n=d#5 v=80
365040 On ch=1 n=d5 v=84
365040 On ch=1 n=b5 v=84
365280 Off ch=1 n=b5 v=80
365280 Off ch=1 n=d5 v=80
365280 On ch=1 n=d5 v=84
365280 On ch=1 n=b5 v=84
365520 Off ch=1 n=b5 v=80
365520 Off ch=1 n=d5 v=80
365520 On ch=1 n=d#5 v=99
365520 On ch=1 n=c6 v=99
365760 Off ch=1 n=c6 v=80
365760 Off ch=1 n=d#5 v=80
365760 On ch=1 n=c6 v=84
365760 On ch=1 n=d#5 v=84
366000 Off ch=1 n=d#5 v=80
366000 Off ch=1 n=c6 v=80
366000 On ch=1 n=b5 v=84
366000 On ch=1 n=d5 v=84
366240 Off ch=1 n=d5 v=80
366240 Off ch=1 n=b5 v=80
366240 On ch=1 n=b5 v=80
366240 On ch=1 n=d5 v=80
366480 Off ch=1 n=d5 v=80
366480 Off ch=1 n=b5 v=80
366480 On ch=1 n=a5 v=95
366480 On ch=1 n=c5 v=95
366720 Off ch=1 n=c5 v=80
366720 Off ch=1 n=a5 v=80
366720 On ch=1 n=a5 v=80
366720 On ch=1 n=c5 v=80
366960 Off ch=1 n=c5 v=80
366960 Off ch=1 n=a5 v=80
366960 On ch=1 n=g5 v=80
366960 On ch=1 n=b4 v=80
367200 Off ch=1 n=b4 v=80
367200 Off ch=1 n=g5 v=80
367200 On ch=1 n=g5 v=76
367200 On ch=1 n=b4 v=76
367440 Off ch=1 n=b4 v=80
367440 Off ch=1 n=g5 v=80
367440 On ch=1 n=c5 v=91
367440 On ch=1 n=a5 v=91
367680 Off ch=1 n=a5 v=80
367680 Off ch=1 n=c5 v=80
367680 On ch=1 n=c5 v=76
367680 On ch=1 n=a5 v=76
367920 Off ch=1 n=a5 v=80
367920 Off ch=1 n=c5 v=80
367920 On ch=1 n=b4 v=76
367920 On ch=1 n=g5 v=76
368160 Off ch=1 n=g5 v=80
368160 Off ch=1 n=b4 v=80
368160 On ch=1 n=b4 v=72
368160 On ch=1 n=g5 v=72
368400 Off ch=1 n=g5 v=80
368400 Off ch=1 n=b4 v=80
368400 On ch=1 n=f#5 v=72
368400 On ch=1 n=a#4 v=72
368640 Off ch=1 n=a#4 v=80
368640 Off ch=1 n=f#5 v=80
368640 On ch=1 n=f#5 v=72
368640 On ch=1 n=a#4 v=72
368880 Off ch=1 n=a#4 v=80
368880 Off ch=1 n=f#5 v=80
368880 On ch=1 n=b4 v=72
368880 On ch=1 n=g5 v=72
369120 Off ch=1 n=g5 v=80
369120 Off ch=1 n=b4 v=80
369120 On ch=1 n=b4 v=68
369120 On ch=1 n=g5 v=68
369360 Off ch=1 n=g5 v=80
369360 Off ch=1 n=b4 v=80
369360 On ch=1 n=a#4 v=68
369360 On ch=1 n=f#5 v=68
369600 Off ch=1 n=f#5 v=80
369600 Off ch=1 n=a#4 v=80
369600 On ch=1 n=a#4 v=68
369600 On ch=1 n=f#5 v=68
369840 Off ch=1 n=f#5 v=80
369840 Off ch=1 n=a#4 v=80
369840 On ch=1 n=g5 v=68
369840 On ch=1 n=b4 v=68
370080 Off ch=1 n=b4 v=80
370080 Off ch=1 n=g5 v=80
370080 On ch=1 n=a#4 v=53
370080 On ch=1 n=f#5 v=65
370320 Off ch=1 n=a#4 v=80
370320 On ch=1 n=b4 v=53
370560 Off ch=1 n=f#5 v=80
370560 Off ch=1 n=b4 v=80
370560 On ch=1 n=g5 v=65
370560 On ch=1 n=b4 v=53
370800 Off ch=1 n=b4 v=80
370800 On ch=1 n=c#5 v=53
371040 Off ch=1 n=g5 v=80
371040 Off ch=1 n=c#5 v=80
371040 On ch=1 n=e5 v=65
371040 On ch=1 n=b4 v=53
371040 On ch=1 n=g4 v=53
371280 Off ch=1 n=g4 v=80
371280 Off ch=1 n=b4 v=80
371280 On ch=1 n=a4 v=53
371280 On ch=1 n=c#5 v=53
371520 Off ch=1 n=c#5 v=80
371520 Off ch=1 n=e5 v=80
371520 Off ch=1 n=a4 v=80
371520 On ch=1 n=c#5 v=65
371520 On ch=1 n=a4 v=65
371520 On ch=1 n=f#5 v=65
371760 Off ch=1 n=a4 v=80
371760 Off ch=1 n=c#5 v=80
371760 On ch=1 n=d5 v=65
371760 On ch=1 n=b4 v=65
372000 Off ch=1 n=b4 v=80
372000 Off ch=1 n=f#5 v=80
372000 Off ch=1 n=d5 v=80
372000 On ch=1 n=a4 v=65
372000 On ch=1 n=f#4 v=65
372000 On ch=1 n=d5 v=65
372240 Off ch=1 n=f#4 v=80
372240 Off ch=1 n=a4 v=80
372240 On ch=1 n=g4 v=65
372240 On ch=1 n=b4 v=65
372480 Off ch=1 n=b4 v=80
372480 Off ch=1 n=d5 v=80
372480 Off ch=1 n=g4 v=80
372480 On ch=1 n=b4 v=65
372480 On ch=1 n=g4 v=65
372480 On ch=1 n=e5 v=65
372720 Off ch=1 n=g4 v=80
372720 Off ch=1 n=b4 v=80
372720 On ch=1 n=g#4 v=65
372960 Off ch=1 n=e5 v=80
372960 Off ch=1 n=g#4 v=80
372960 On ch=1 n=a#4 v=70
372960 On ch=1 n=c#5 v=70
373200 Off ch=1 n=c#5 v=80
373200 On ch=1 n=d#5 v=70
373440 Off ch=1 n=a#4 v=80
373440 Off ch=1 n=d#5 v=80
373440 On ch=1 n=a#4 v=75
373440 On ch=1 n=c#5 v=75
373680 Off ch=1 n=c#5 v=80
373680 On ch=1 n=f#5 v=75
373920 Off ch=1 n=a#4 v=80
373920 Off ch=1 n=f#5 v=80
373920 On ch=1 n=b4 v=80
373920 On ch=1 n=f#5 v=80
373920 On ch=1 n=d#5 v=80
374160 Off ch=1 n=d#5 v=80
374160 Off ch=1 n=f#5 v=80
374160 On ch=1 n=f5 v=80
374400 Off ch=1 n=b4 v=80
374400 Off ch=1 n=f5 v=80
374400 On ch=1 n=a#4 v=84
374400 On ch=1 n=f#5 v=84
374640 Off ch=1 n=a#4 v=80
374640 On ch=1 n=c#5 v=84
374880 Off ch=1 n=f#5 v=80
374880 Off ch=1 n=c#5 v=80
374880 On ch=1 n=b4 v=84
374880 On ch=1 n=d#5 v=84
374880 On ch=1 n=f5 v=84
375120 Off ch=1 n=b4 v=80
375120 On ch=1 n=c#5 v=84
375360 Off ch=1 n=d#5 v=80
375360 Off ch=1 n=f5 v=80
375360 Off ch=1 n=c#5 v=80
375360 On ch=1 n=a#4 v=84
375360 On ch=1 n=f#5 v=84
375600 Off ch=1 n=a#4 v=80
375600 On ch=1 n=c#5 v=84
375840 Off ch=1 n=f#5 v=80
375840 On ch=1 n=f#5 v=84
375840 On ch=1 n=a#4 v=84
376080 Off ch=1 n=a#4 v=80
376080 Off ch=1 n=c#5 v=80
376080 Off ch=1 n=f#5 v=80
376080 On ch=1 n=g5 v=53
376080 On ch=1 n=d5 v=53
376080 On ch=1 n=b4 v=53
376320 Off ch=1 n=b4 v=80
376320 Off ch=1 n=d5 v=80
376320 Off ch=1 n=g5 v=80
376320 On ch=1 n=b4 v=53
376320 On ch=1 n=d5 v=53
376320 On ch=1 n=g5 v=53
376560 Off ch=1 n=g5 v=80
376560 Off ch=1 n=d5 v=80
376560 Off ch=1 n=b4 v=80
376560 On ch=1 n=e5 v=53
376560 On ch=1 n=c#5 v=53
376560 On ch=1 n=g4 v=53
376800 Off ch=1 n=g4 v=80
376800 Off ch=1 n=c#5 v=80
376800 Off ch=1 n=e5 v=80
376800 On ch=1 n=e5 v=53
376800 On ch=1 n=c#5 v=53
376800 On ch=1 n=g4 v=53
377040 Off ch=1 n=g4 v=80
377040 Off ch=1 n=c#5 v=80
377040 Off ch=1 n=e5 v=80
377040 On ch=1 n=f#5 v=53
377040 On ch=1 n=d5 v=53
377040 On ch=1 n=a4 v=53
377280 Off ch=1 n=a4 v=80
377280 Off ch=1 n=d5 v=80
377280 Off ch=1 n=f#5 v=80
377280 On ch=1 n=f#5 v=53
377280 On ch=1 n=a4 v=53
377280 On ch=1 n=d5 v=53
377520 Off ch=1 n=d5 v=80
377520 Off ch=1 n=a4 v=80
377520 Off ch=1 n=f#5 v=80
377520 On ch=1 n=d5 v=50
377520 On ch=1 n=b4 v=50
377520 On ch=1 n=f4 v=50
377760 Off ch=1 n=f4 v=80
377760 Off ch=1 n=b4 v=80
377760 Off ch=1 n=d5 v=80
377760 On ch=1 n=d5 v=47
377760 On ch=1 n=b4 v=47
377760 On ch=1 n=f4 v=47
378000 Off ch=1 n=f4 v=80
378000 Off ch=1 n=b4 v=80
378000 Off ch=1 n=d5 v=80
378000 On ch=1 n=e5 v=44
378000 On ch=1 n=e4 v=44
378000 On ch=1 n=c#5 v=44
378240 Off ch=1 n=c#5 v=80
378240 Off ch=1 n=e4 v=80
378240 Off ch=1 n=e5 v=80
378240 On ch=1 n=c#5 v=41
378240 On ch=1 n=e5 v=41
378240 On ch=1 n=e4 v=41
379680 Off ch=1 n=e4 v=80
379680 Off ch=1 n=e5 v=80
379680 Off ch=1 n=c#5 v=80
380160 On ch=1 n=a3 v=65
380400 Off ch=1 n=a3 v=80
380400 On ch=1 n=b3 v=65
380640 Off ch=1 n=b3 v=80
380640 On ch=1 n=a3 v=65
380880 Off ch=1 n=a3 v=80
380880 On ch=1 n=d4 v=65
381120 Off ch=1 n=d4 v=80
381120 On ch=1 n=d4 v=65
381360 Off ch=1 n=d4 v=80
381360 On ch=1 n=c#4 v=65
381600 Off ch=1 n=c#4 v=80
381600 On ch=1 n=a#4 v=65
381600 On ch=1 n=c#4 v=65
381840 Off ch=1 n=c#4 v=80
381840 Off ch=1 n=a#4 v=80
381840 On ch=1 n=b4 v=65
381840 On ch=1 n=d4 v=65
382080 Off ch=1 n=d4 v=80
382080 Off ch=1 n=b4 v=80
382080 On ch=1 n=a#4 v=72
382080 On ch=1 n=c#4 v=72
382320 Off ch=1 n=c#4 v=80
382320 Off ch=1 n=a#4 v=80
382320 On ch=1 n=d5 v=72
382320 On ch=1 n=f4 v=72
382560 Off ch=1 n=f4 v=80
382560 Off ch=1 n=d5 v=80
382560 On ch=1 n=d5 v=78
382560 On ch=1 n=f4 v=78
382800 Off ch=1 n=f4 v=80
382800 Off ch=1 n=d5 v=80
382800 On ch=1 n=c#5 v=78
382800 On ch=1 n=e4 v=78
383040 Off ch=1 n=e4 v=80
383040 Off ch=1 n=c#5 v=80
383040 On ch=1 n=a#5 v=65
383040 On ch=1 n=c#5 v=65
383280 Off ch=1 n=c#5 v=80
383280 Off ch=1 n=a#5 v=80
383280 On ch=1 n=b5 v=65
383280 On ch=1 n=d5 v=65
383520 Off ch=1 n=d5 v=80
383520 Off ch=1 n=b5 v=80
383520 On ch=1 n=a#5 v=65
383520 On ch=1 n=c#5 v=65
383760 Off ch=1 n=c#5 v=80
383760 Off ch=1 n=a#5 v=80
383760 On ch=1 n=d6 v=65
383760 On ch=1 n=f5 v=65
384000 Off ch=1 n=f5 v=80
384000 Off ch=1 n=d6 v=80
384000 On ch=1 n=d6 v=65
384000 On ch=1 n=f5 v=65
384240 Off ch=1 n=f5 v=80
384240 Off ch=1 n=d6 v=80
384240 On ch=1 n=c#6 v=65
384240 On ch=1 n=e5 v=65
384480 Off ch=1 n=e5 v=80
384480 Off ch=1 n=c#6 v=80
384480 On ch=1 n=f5 v=65
384480 On ch=1 n=c#6 v=65
384720 Off ch=1 n=c#6 v=80
384720 Off ch=1 n=f5 v=80
384720 On ch=1 n=f#5 v=65
384720 On ch=1 n=d6 v=65
384960 Off ch=1 n=d6 v=80
384960 Off ch=1 n=f#5 v=80
384960 On ch=1 n=f5 v=72
384960 On ch=1 n=c#6 v=72
385200 Off ch=1 n=c#6 v=80
385200 Off ch=1 n=f5 v=80
385200 On ch=1 n=b5 v=87
385200 On ch=1 n=g#6 v=87
385440 Off ch=1 n=g#6 v=80
385440 Off ch=1 n=b5 v=80
385440 On ch=1 n=b5 v=78
385440 On ch=1 n=g#6 v=78
385680 Off ch=1 n=g#6 v=80
385680 Off ch=1 n=b5 v=80
385680 On ch=1 n=f5 v=78
385680 On ch=1 n=c#6 v=78
385920 Off ch=1 n=c#6 v=80
385920 Off ch=1 n=f5 v=80
385920 On ch=1 n=c#6 v=65
385920 On ch=1 n=f5 v=65
386160 Off ch=1 n=f5 v=80
386160 Off ch=1 n=c#6 v=80
386160 On ch=1 n=f#5 v=65
386160 On ch=1 n=d6 v=65
386400 Off ch=1 n=d6 v=80
386400 Off ch=1 n=f#5 v=80
386400 On ch=1 n=f5 v=72
386400 On ch=1 n=c#6 v=72
386640 Off ch=1 n=c#6 v=80
386640 Off ch=1 n=f5 v=80
386640 On ch=1 n=b5 v=87
386640 On ch=1 n=g#6 v=87
386880 Off ch=1 n=g#6 v=80
386880 Off ch=1 n=b5 v=80
386880 On ch=1 n=b5 v=78
386880 On ch=1 n=g#6 v=78
387120 Off ch=1 n=g#6 v=80
387120 Off ch=1 n=b5 v=80
387120 On ch=1 n=f5 v=78
387120 On ch=1 n=c#6 v=78
387360 Off ch=1 n=c#6 v=80
387360 Off ch=1 n=f5 v=80
387360 On ch=1 n=e5 v=65
387360 On ch=1 n=c#6 v=65
387600 Off ch=1 n=c#6 v=80
387600 Off ch=1 n=e5 v=80
387600 On ch=1 n=f5 v=65
387600 On ch=1 n=d6 v=65
387840 Off ch=1 n=d6 v=80
387840 Off ch=1 n=f5 v=80
387840 On ch=1 n=e5 v=65
387840 On ch=1 n=c#6 v=65
388080 Off ch=1 n=c#6 v=80
388080 Off ch=1 n=e5 v=80
388080 On ch=1 n=a#5 v=65
388080 On ch=1 n=g6 v=65
388320 Off ch=1 n=g6 v=80
388320 Off ch=1 n=a#5 v=80
388320 On ch=1 n=a#5 v=80
388320 On ch=1 n=g6 v=80
388560 Off ch=1 n=g6 v=80
388560 Off ch=1 n=a#5 v=80
388560 On ch=1 n=e5 v=65
388560 On ch=1 n=c#6 v=65
388800 Off ch=1 n=c#6 v=80
388800 Off ch=1 n=e5 v=80
388800 On ch=1 n=c#6 v=65
388800 On ch=1 n=e5 v=65
389040 Off ch=1 n=e5 v=80
389040 Off ch=1 n=c#6 v=80
389040 On ch=1 n=f5 v=65
389040 On ch=1 n=d6 v=65
389280 Off ch=1 n=d6 v=80
389280 Off ch=1 n=f5 v=80
389280 On ch=1 n=e5 v=65
389280 On ch=1 n=c#6 v=65
389520 Off ch=1 n=c#6 v=80
389520 Off ch=1 n=e5 v=80
389520 On ch=1 n=a#5 v=65
389520 On ch=1 n=g6 v=65
389760 Off ch=1 n=g6 v=80
389760 Off ch=1 n=a#5 v=80
389760 On ch=1 n=a#5 v=80
389760 On ch=1 n=g6 v=80
390000 Off ch=1 n=g6 v=80
390000 Off ch=1 n=a#5 v=80
390000 On ch=1 n=e5 v=65
390000 On ch=1 n=c#6 v=65
390240 Off ch=1 n=c#6 v=80
390240 Off ch=1 n=e5 v=80
390240 On ch=1 n=c#6 v=65
390240 On ch=1 n=e5 v=65
390480 Off ch=1 n=e5 v=80
390480 Off ch=1 n=c#6 v=80
390480 On ch=1 n=d5 v=65
390480 On ch=1 n=d6 v=65
390720 Off ch=1 n=d6 v=80
390720 Off ch=1 n=d5 v=80
390720 On ch=1 n=e5 v=58
390720 On ch=1 n=c#6 v=58
390960 Off ch=1 n=c#6 v=80
390960 Off ch=1 n=e5 v=80
390960 On ch=1 n=d5 v=58
390960 On ch=1 n=d6 v=58
391200 Off ch=1 n=d6 v=80
391200 Off ch=1 n=d5 v=80
391200 On ch=1 n=e5 v=51
391200 On ch=1 n=c#6 v=51
391440 Off ch=1 n=c#6 v=80
391440 Off ch=1 n=e5 v=80
391440 On ch=1 n=d5 v=51
391440 On ch=1 n=d6 v=51
391680 Off ch=1 n=d6 v=80
391680 Off ch=1 n=d5 v=80
391680 On ch=1 n=e5 v=47
391680 On ch=1 n=c#6 v=47
391860 Off ch=1 n=c#6 v=80
391860 Off ch=1 n=e5 v=80
391920 On ch=1 n=e5 v=47
391920 On ch=1 n=c#5 v=47
392100 Off ch=1 n=c#5 v=80
392100 Off ch=1 n=e5 v=80
392160 On ch=1 n=e5 v=47
392160 On ch=1 n=c#6 v=47
392340 Off ch=1 n=c#6 v=80
392340 Off ch=1 n=e5 v=80
392400 On ch=1 n=e5 v=47
392400 On ch=1 n=c#5 v=47
392580 Off ch=1 n=c#5 v=80
392580 Off ch=1 n=e5 v=80
392640 On ch=1 n=e5 v=47
392640 On ch=1 n=c#6 v=47
392820 Off ch=1 n=c#6 v=80
392820 Off ch=1 n=e5 v=80
392880 On ch=1 n=e5 v=47
392880 On ch=1 n=c#5 v=47
393060 Off ch=1 n=c#5 v=80
393060 Off ch=1 n=e5 v=80
393120 On ch=1 n=e5 v=65
393120 On ch=1 n=c#6 v=65
393360 Off ch=1 n=c#6 v=80
393360 Off ch=1 n=e5 v=80
393360 On ch=1 n=d6 v=65
393360 On ch=1 n=d5 v=65
393600 Off ch=1 n=d5 v=80
393600 Off ch=1 n=d6 v=80
393600 On ch=1 n=e5 v=59
393600 On ch=1 n=c#6 v=59
393840 Off ch=1 n=c#6 v=80
393840 Off ch=1 n=e5 v=80
393840 On ch=1 n=d6 v=59
393840 On ch=1 n=d5 v=59
394080 Off ch=1 n=d5 v=80
394080 Off ch=1 n=d6 v=80
394080 On ch=1 n=e5 v=53
394080 On ch=1 n=c#6 v=53
394320 Off ch=1 n=c#6 v=80
394320 Off ch=1 n=e5 v=80
394320 On ch=1 n=d6 v=53
394320 On ch=1 n=d5 v=53
394560 Off ch=1 n=d5 v=80
394560 Off ch=1 n=d6 v=80
394560 On ch=1 n=c#6 v=53
394560 On ch=1 n=e5 v=53
394800 Off ch=1 n=e5 v=80
394800 Off ch=1 n=c#6 v=80
394800 On ch=1 n=e5 v=53
394800 On ch=1 n=c#5 v=53
395040 Off ch=1 n=c#5 v=80
395040 Off ch=1 n=e5 v=80
395040 On ch=1 n=e5 v=53
395040 On ch=1 n=c#6 v=53
395280 Off ch=1 n=c#6 v=80
395280 Off ch=1 n=e5 v=80
395280 On ch=1 n=e5 v=53
395280 On ch=1 n=c#5 v=53
395520 Off ch=1 n=c#5 v=80
395520 Off ch=1 n=e5 v=80
395520 On ch=1 n=e5 v=53
395520 On ch=1 n=c#6 v=53
395760 Off ch=1 n=c#6 v=80
395760 Off ch=1 n=e5 v=80
395760 On ch=1 n=e5 v=53
395760 On ch=1 n=c#5 v=53
396000 Off ch=1 n=c#5 v=80
396000 Off ch=1 n=e5 v=80
396000 On ch=1 n=a5 v=65
396240 On ch=1 n=g5 v=41
396240 On ch=1 n=e5 v=41
396720 Off ch=1 n=e5 v=80
396720 Off ch=1 n=g5 v=80
396720 On ch=1 n=e5 v=41
396720 On ch=1 n=g5 v=41
397200 Off ch=1 n=g5 v=80
397200 Off ch=1 n=e5 v=80
397200 On ch=1 n=g5 v=41
397200 On ch=1 n=e5 v=41
397440 Off ch=1 n=e5 v=80
397440 Off ch=1 n=a5 v=80
397440 Off ch=1 n=g5 v=80
397440 On ch=1 n=a5 v=65
397680 On ch=1 n=f#5 v=41
397680 On ch=1 n=d5 v=41
397920 Off ch=1 n=d5 v=80
397920 Off ch=1 n=f#5 v=80
397920 On ch=1 n=d5 v=41
397920 On ch=1 n=f#5 v=41
398160 Off ch=1 n=f#5 v=80
398160 Off ch=1 n=d5 v=80
398160 On ch=1 n=f#5 v=41
398160 On ch=1 n=d5 v=41
398400 Off ch=1 n=d5 v=80
398400 Off ch=1 n=a5 v=80
398400 Off ch=1 n=f#5 v=80
398400 On ch=1 n=b5 v=80
398640 On ch=1 n=e5 v=41
398640 On ch=1 n=d5 v=41
398880 Off ch=1 n=d5 v=80
398880 Off ch=1 n=e5 v=80
398880 Off ch=1 n=b5 v=80
398880 On ch=1 n=a5 v=65
399120 On ch=1 n=e5 v=47
399120 On ch=1 n=g5 v=47
399600 Off ch=1 n=g5 v=80
399600 Off ch=1 n=e5 v=80
399600 On ch=1 n=g5 v=47
399600 On ch=1 n=e5 v=47
400080 Off ch=1 n=e5 v=80
400080 Off ch=1 n=g5 v=80
400080 On ch=1 n=g5 v=47
400080 On ch=1 n=e5 v=47
400320 Off ch=1 n=e5 v=80
400320 Off ch=1 n=a5 v=80
400320 Off ch=1 n=g5 v=80
400320 On ch=1 n=a5 v=65
400560 On ch=1 n=f#5 v=53
400560 On ch=1 n=d5 v=53
400800 Off ch=1 n=d5 v=80
400800 Off ch=1 n=f#5 v=80
400800 On ch=1 n=f#5 v=53
400800 On ch=1 n=d5 v=53
401040 Off ch=1 n=d5 v=80
401040 Off ch=1 n=f#5 v=80
401040 On ch=1 n=f#5 v=53
401040 On ch=1 n=d5 v=53
401280 Off ch=1 n=d5 v=80
401280 Off ch=1 n=a5 v=80
401280 Off ch=1 n=f#5 v=80
401280 On ch=1 n=d6 v=80
401520 On ch=1 n=e5 v=53
401520 On ch=1 n=d5 v=53
401760 Off ch=1 n=d5 v=80
401760 Off ch=1 n=e5 v=80
401760 Off ch=1 n=d6 v=80
401760 On ch=1 n=a5 v=59
402000 On ch=1 n=g5 v=47
402000 On ch=1 n=e5 v=47
402480 Off ch=1 n=e5 v=80
402480 Off ch=1 n=g5 v=80
402480 On ch=1 n=e5 v=47
402480 On ch=1 n=g5 v=47
402960 Off ch=1 n=g5 v=80
402960 Off ch=1 n=e5 v=80
402960 On ch=1 n=g5 v=47
402960 On ch=1 n=e5 v=47
403200 Off ch=1 n=e5 v=80
403200 Off ch=1 n=a5 v=80
403200 Off ch=1 n=g5 v=80
403200 On ch=1 n=a5 v=65
403440 On ch=1 n=d5 v=53
403440 On ch=1 n=f#5 v=53
403680 Off ch=1 n=f#5 v=80
403680 Off ch=1 n=d5 v=80
403680 On ch=1 n=f#5 v=53
403680 On ch=1 n=d5 v=53
403920 Off ch=1 n=d5 v=80
403920 Off ch=1 n=f#5 v=80
403920 On ch=1 n=f#5 v=53
403920 On ch=1 n=d5 v=53
404160 Off ch=1 n=d5 v=80
404160 Off ch=1 n=a5 v=80
404160 Off ch=1 n=f#5 v=80
404160 On ch=1 n=b5 v=80
404400 On ch=1 n=d5 v=53
404400 On ch=1 n=e5 v=53
404640 Off ch=1 n=e5 v=80
404640 Off ch=1 n=d5 v=80
404640 Off ch=1 n=b5 v=80
404640 On ch=1 n=a5 v=59
404880 On ch=1 n=e5 v=47
404880 On ch=1 n=c#5 v=47
405360 Off ch=1 n=c#5 v=80
405360 Off ch=1 n=e5 v=80
405360 On ch=1 n=c#5 v=47
405360 On ch=1 n=e5 v=47
405840 Off ch=1 n=e5 v=80
405840 Off ch=1 n=c#5 v=80
405840 On ch=1 n=c#5 v=47
405840 On ch=1 n=e5 v=47
406080 Off ch=1 n=e5 v=80
406080 Off ch=1 n=a5 v=80
406080 Off ch=1 n=c#5 v=80
406080 On ch=1 n=a5 v=65
406320 On ch=1 n=d#5 v=61
406320 On ch=1 n=c5 v=61
406560 Off ch=1 n=c5 v=80
406560 Off ch=1 n=d#5 v=80
406560 On ch=1 n=d#5 v=57
406560 On ch=1 n=c5 v=57
407520 Off ch=1 n=c5 v=80
407520 Off ch=1 n=a5 v=80
407520 Off ch=1 n=d#5 v=80
407520 On ch=1 n=d6 v=65
407760 On ch=1 n=a5 v=61
407760 On ch=1 n=d5 v=61
408000 Off ch=1 n=d5 v=80
408000 Off ch=1 n=a5 v=80
408000 On ch=1 n=a5 v=57
408000 On ch=1 n=d5 v=57
408960 Off ch=1 n=d5 v=80
408960 Off ch=1 n=d6 v=80
408960 Off ch=1 n=a5 v=80
408960 On ch=1 n=d6 v=65
409200 On ch=1 n=g5 v=61
409200 On ch=1 n=d5 v=61
409440 Off ch=1 n=d5 v=80
409440 Off ch=1 n=g5 v=80
409440 On ch=1 n=g5 v=57
409440 On ch=1 n=d5 v=57
409920 Off ch=1 n=d6 v=80
409920 On ch=1 n=g6 v=65
410400 Off ch=1 n=g5 v=80
410400 Off ch=1 n=d5 v=80
410400 Off ch=1 n=g6 v=80
410400 On ch=1 n=d6 v=65
410640 On ch=1 n=c6 v=61
410640 On ch=1 n=d5 v=61
410880 Off ch=1 n=d5 v=80
410880 Off ch=1 n=c6 v=80
410880 On ch=1 n=c6 v=57
410880 On ch=1 n=d5 v=57
411840 Off ch=1 n=d5 v=80
411840 Off ch=1 n=d6 v=80
411840 Off ch=1 n=c6 v=80
411840 On ch=1 n=d6 v=65
412080 On ch=1 n=b5 v=61
412080 On ch=1 n=g5 v=61
412320 Off ch=1 n=g5 v=80
412320 Off ch=1 n=b5 v=80
412320 On ch=1 n=b5 v=57
412320 On ch=1 n=g5 v=57
412800 Off ch=1 n=d6 v=80
412800 On ch=1 n=b6 v=65
413280 Off ch=1 n=b5 v=80
413280 Off ch=1 n=g5 v=80
413280 Off ch=1 n=b6 v=80
413280 On ch=1 n=a5 v=90
413520 On ch=1 n=g5 v=72
413520 On ch=1 n=e5 v=72
414000 Off ch=1 n=e5 v=80
414000 Off ch=1 n=g5 v=80
414000 On ch=1 n=e5 v=72
414000 On ch=1 n=g5 v=72
414480 Off ch=1 n=g5 v=80
414480 Off ch=1 n=e5 v=80
414480 On ch=1 n=g5 v=72
414480 On ch=1 n=e5 v=72
414720 Off ch=1 n=e5 v=80
414720 Off ch=1 n=a5 v=80
414720 Off ch=1 n=g5 v=80
414720 On ch=1 n=a5 v=90
414960 On ch=1 n=f#5 v=72
414960 On ch=1 n=d5 v=72
415200 Off ch=1 n=d5 v=80
415200 Off ch=1 n=f#5 v=80
415200 On ch=1 n=d5 v=72
415200 On ch=1 n=f#5 v=72
415440 Off ch=1 n=f#5 v=80
415440 Off ch=1 n=d5 v=80
415440 On ch=1 n=f#5 v=72
415440 On ch=1 n=d5 v=72
415680 Off ch=1 n=d5 v=80
415680 Off ch=1 n=a5 v=80
415680 Off ch=1 n=f#5 v=80
415680 On ch=1 n=b5 v=105
415920 On ch=1 n=e5 v=72
415920 On ch=1 n=d5 v=72
416160 Off ch=1 n=d5 v=80
416160 Off ch=1 n=e5 v=80
416160 Off ch=1 n=b5 v=80
416160 On ch=1 n=a5 v=90
416400 On ch=1 n=a4 v=72
416400 On ch=1 n=e5 v=72
416880 Off ch=1 n=e5 v=80
416880 Off ch=1 n=a4 v=80
416880 On ch=1 n=a4 v=72
416880 On ch=1 n=e5 v=72
417360 Off ch=1 n=e5 v=80
417360 Off ch=1 n=a4 v=80
417360 On ch=1 n=a4 v=72
417360 On ch=1 n=e5 v=72
417600 Off ch=1 n=e5 v=80
417600 Off ch=1 n=a5 v=80
417600 Off ch=1 n=a4 v=80
417600 On ch=1 n=a5 v=90
417840 On ch=1 n=a4 v=72
417840 On ch=1 n=d5 v=72
418080 Off ch=1 n=d5 v=80
418080 Off ch=1 n=a4 v=80
418080 On ch=1 n=a4 v=72
418080 On ch=1 n=d5 v=72
418320 Off ch=1 n=d5 v=80
418320 Off ch=1 n=a4 v=80
418320 On ch=1 n=a4 v=72
418320 On ch=1 n=d5 v=72
418560 Off ch=1 n=d5 v=80
418560 Off ch=1 n=a5 v=80
418560 Off ch=1 n=a4 v=80
418560 On ch=1 n=d6 v=105
418800 On ch=1 n=b4 v=72
418800 On ch=1 n=d5 v=72
419040 Off ch=1 n=d5 v=80
419040 Off ch=1 n=b4 v=80
419040 Off ch=1 n=d6 v=80
419040 On ch=1 n=a5 v=84
419280 On ch=1 n=g5 v=72
419280 On ch=1 n=c#5 v=72
419760 Off ch=1 n=c#5 v=80
419760 Off ch=1 n=g5 v=80
419760 On ch=1 n=g5 v=72
419760 On ch=1 n=c#5 v=72
420240 Off ch=1 n=c#5 v=80
420240 Off ch=1 n=g5 v=80
420240 On ch=1 n=g5 v=72
420240 On ch=1 n=e5 v=72
420480 Off ch=1 n=e5 v=80
420480 Off ch=1 n=a5 v=80
420480 Off ch=1 n=g5 v=80
420480 On ch=1 n=a5 v=90
420720 On ch=1 n=f#5 v=78
420720 On ch=1 n=d5 v=78
421200 Off ch=1 n=d5 v=80
421200 Off ch=1 n=f#5 v=80
421200 On ch=1 n=d5 v=78
421200 On ch=1 n=f#5 v=78
421440 Off ch=1 n=a5 v=80
421440 On ch=1 n=b5 v=105
421680 Off ch=1 n=d5 v=80
421680 Off ch=1 n=f#5 v=80
421680 On ch=1 n=d5 v=78
421680 On ch=1 n=e5 v=78
421920 Off ch=1 n=e5 v=80
421920 Off ch=1 n=b5 v=80
421920 Off ch=1 n=d5 v=80
421920 On ch=1 n=a5 v=81
422160 On ch=1 n=e5 v=81
422160 On ch=1 n=c#5 v=81
422640 Off ch=1 n=c#5 v=80
422640 Off ch=1 n=e5 v=80
422640 On ch=1 n=c#5 v=72
422640 On ch=1 n=e5 v=72
423120 Off ch=1 n=e5 v=80
423120 Off ch=1 n=c#5 v=80
423120 On ch=1 n=c#5 v=63
423120 On ch=1 n=e5 v=63
423360 Off ch=1 n=e5 v=80
423360 Off ch=1 n=a5 v=80
423360 Off ch=1 n=c#5 v=80
423360 On ch=1 n=a5 v=53
423600 On ch=1 n=d#5 v=53
423600 On ch=1 n=c5 v=53
423840 On ch=1 n=f#4 v=53
424800 Off ch=1 n=f#4 v=80
424800 Off ch=1 n=c5 v=80
424800 Off ch=1 n=d#5 v=80
424800 Off ch=1 n=a5 v=80
424800 On ch=1 n=g5 v=50
425040 On ch=1 n=a#4 v=50
425040 On ch=1 n=d5 v=50
425280 On ch=1 n=g4 v=50
426240 Off ch=1 n=g4 v=80
426240 Off ch=1 n=d5 v=80
426240 Off ch=1 n=a#4 v=80
426240 Off ch=1 n=g5 v=80
426240 On ch=1 n=g5 v=47
426480 On ch=1 n=a#4 v=47
426480 On ch=1 n=e5 v=47
426720 On ch=1 n=g4 v=47
427680 Off ch=1 n=g5 v=80
427680 On ch=1 n=g5 v=44
428160 Off ch=1 n=a#4 v=80
428160 Off ch=1 n=e5 v=80
428160 Off ch=1 n=g4 v=80
428160 Off ch=1 n=g5 v=80
428160 On ch=1 n=f#5 v=44
428160 On ch=1 n=a4 v=44
428160 On ch=1 n=d5 v=44
428640 Off ch=1 n=a4 v=80
428640 Off ch=1 n=f#5 v=80
428640 On ch=1 n=g4 v=44
428640 On ch=1 n=e5 v=44
429120 Off ch=1 n=e5 v=80
429120 Off ch=1 n=d5 v=80
429120 Off ch=1 n=g4 v=80
429120 On ch=1 n=f#5 v=41
429120 On ch=1 n=d5 v=41
429120 On ch=1 n=a4 v=41
430080 Off ch=1 n=a4 v=80
430080 Off ch=1 n=d5 v=80
430080 Off ch=1 n=f#5 v=80
430080 Meta TrkEnd
TrkEnd
MTrk
0 Meta TrkName "Piano L Hand"
0 Meta 0x21 00
0 Meta 0x20 00
0 Par ch=1 c=10 v=64
0 PrCh ch=1 p=0
720 On ch=1 n=a2 v=102
720 On ch=1 n=a3 v=102
840 Off ch=1 n=a3 v=80
840 Off ch=1 n=a2 v=80
960 On ch=1 n=a#3 v=102
960 On ch=1 n=a#2 v=102
1080 Off ch=1 n=a#2 v=80
1080 Off ch=1 n=a#3 v=80
1200 On ch=1 n=g#3 v=102
1200 On ch=1 n=g#2 v=102
1320 Off ch=1 n=g#2 v=80
1320 Off ch=1 n=g#3 v=80
1440 On ch=1 n=a3 v=102
1440 On ch=1 n=a2 v=102
1650 Off ch=1 n=a2 v=80
1650 Off ch=1 n=a3 v=80
1680 On ch=1 n=c#5 v=102
1680 On ch=1 n=g5 v=102
1800 Off ch=1 n=g5 v=80
1800 Off ch=1 n=c#5 v=80
1920 On ch=1 n=d5 v=78
1920 On ch=1 n=f#5 v=78
2040 Off ch=1 n=f#5 v=80
2040 Off ch=1 n=d5 v=80
2160 On ch=1 n=e5 v=78
2160 On ch=1 n=d5 v=78
2160 On ch=1 n=g#4 v=78
2280 Off ch=1 n=g#4 v=80
2280 Off ch=1 n=d5 v=80
2280 Off ch=1 n=e5 v=80
2400 On ch=1 n=e5 v=78
2400 On ch=1 n=c#5 v=78
2400 On ch=1 n=a4 v=78
2520 Off ch=1 n=a4 v=80
2520 Off ch=1 n=c#5 v=80
2520 Off ch=1 n=e5 v=80
2640 On ch=1 n=a4 v=78
2640 On ch=1 n=a3 v=78
2760 Off ch=1 n=a3 v=80
2760 Off ch=1 n=a4 v=80
2880 On ch=1 n=d4 v=78
2880 On ch=1 n=d3 v=78
3120 Off ch=1 n=d3 v=80
3120 Off ch=1 n=d4 v=80
3120 On ch=1 n=d5 v=84
3120 On ch=1 n=a4 v=84
3120 On ch=1 n=f#4 v=84
3360 Off ch=1 n=f#4 v=80
3360 Off ch=1 n=a4 v=80
3360 Off ch=1 n=d5 v=80
3360 On ch=1 n=f#3 v=87
3600 Off ch=1 n=f#3 v=80
3600 On ch=1 n=f#4 v=90
3600 On ch=1 n=a#4 v=90
3600 On ch=1 n=e5 v=90
3840 Off ch=1 n=e5 v=80
3840 Off ch=1 n=a#4 v=80
3840 Off ch=1 n=f#4 v=80
3840 On ch=1 n=f#2 v=120
4080 Off ch=1 n=f#2 v=80
4080 On ch=1 n=e5 v=96
4080 On ch=1 n=a#4 v=96
4080 On ch=1 n=f#4 v=96
4320 Off ch=1 n=f#4 v=80
4320 Off ch=1 n=a#4 v=80
4320 Off ch=1 n=e5 v=80
4320 On ch=1 n=b3 v=102
4560 Off ch=1 n=b3 v=80
4560 On ch=1 n=f#4 v=102
4560 On ch=1 n=b4 v=102
4560 On ch=1 n=d5 v=102
4800 Off ch=1 n=d5 v=80
4800 Off ch=1 n=b4 v=80
4800 Off ch=1 n=f#4 v=80
4800 On ch=1 n=f4 v=120
5040 On ch=1 n=b4 v=102
5040 On ch=1 n=d5 v=102
5280 Off ch=1 n=d5 v=80
5280 Off ch=1 n=b4 v=80
5280 Off ch=1 n=f4 v=80
5280 On ch=1 n=e4 v=102
5520 On ch=1 n=d5 v=102
5520 On ch=1 n=e5 v=102
5760 Off ch=1 n=e5 v=80
5760 Off ch=1 n=d5 v=80
5760 Off ch=1 n=e4 v=80
5760 On ch=1 n=c#5 v=102
5760 On ch=1 n=a4 v=102
5880 Off ch=1 n=a4 v=80
5880 Off ch=1 n=c#5 v=80
6000 On ch=1 n=a3 v=102
6000 On ch=1 n=a2 v=102
6120 Off ch=1 n=a2 v=80
6120 Off ch=1 n=a3 v=80
6240 On ch=1 n=a#3 v=102
6240 On ch=1 n=a#2 v=102
6360 Off ch=1 n=a#2 v=80
6360 Off ch=1 n=a#3 v=80
6480 On ch=1 n=g#3 v=102
6480 On ch=1 n=g#2 v=102
6600 Off ch=1 n=g#2 v=80
6600 Off ch=1 n=g#3 v=80
6720 On ch=1 n=a2 v=102
6720 On ch=1 n=a3 v=102
6840 Off ch=1 n=a3 v=80
6840 Off ch=1 n=a2 v=80
6960 On ch=1 n=c#5 v=102
6960 On ch=1 n=g5 v=102
7080 Off ch=1 n=g5 v=80
7080 Off ch=1 n=c#5 v=80
7200 On ch=1 n=d5 v=78
7200 On ch=1 n=f#5 v=78
7320 Off ch=1 n=f#5 v=80
7320 Off ch=1 n=d5 v=80
7440 On ch=1 n=g4 v=78
7440 On ch=1 n=e5 v=78
7560 Off ch=1 n=e5 v=80
7560 Off ch=1 n=g4 v=80
7680 On ch=1 n=a4 v=102
7680 On ch=1 n=c#5 v=102
7800 Off ch=1 n=c#5 v=80
7800 Off ch=1 n=a4 v=80
7920 On ch=1 n=a3 v=78
7920 On ch=1 n=a4 v=78
8040 Off ch=1 n=a4 v=80
8040 Off ch=1 n=a3 v=80
8160 On ch=1 n=d4 v=78
8160 On ch=1 n=d3 v=78
8340 Off ch=1 n=d3 v=80
8340 Off ch=1 n=d4 v=80
8400 On ch=1 n=e3 v=78
8400 On ch=1 n=e4 v=78
8580 Off ch=1 n=e4 v=80
8580 Off ch=1 n=e3 v=80
8640 On ch=1 n=a3 v=78
8640 On ch=1 n=a2 v=78
8820 Off ch=1 n=a2 v=80
8820 Off ch=1 n=a3 v=80
8880 On ch=1 n=b3 v=78
8880 On ch=1 n=b2 v=78
8940 Off ch=1 n=b2 v=80
8940 Off ch=1 n=b3 v=80
9000 On ch=1 n=c#3 v=78
9000 On ch=1 n=c#4 v=78
9060 Off ch=1 n=c#4 v=80
9060 Off ch=1 n=c#3 v=80
9120 On ch=1 n=d4 v=78
9120 On ch=1 n=d3 v=78
9300 Off ch=1 n=d3 v=80
9300 Off ch=1 n=d4 v=80
9360 On ch=1 n=g#3 v=81
9360 On ch=1 n=g#2 v=81
9540 Off ch=1 n=g#2 v=80
9540 Off ch=1 n=g#3 v=80
9600 On ch=1 n=a3 v=84
9600 On ch=1 n=a2 v=84
9780 Off ch=1 n=a2 v=80
9780 Off ch=1 n=a3 v=80
9840 On ch=1 n=g3 v=87
9840 On ch=1 n=g2 v=87
10020 Off ch=1 n=g2 v=80
10020 Off ch=1 n=g3 v=80
10080 On ch=1 n=f#3 v=90
10080 On ch=1 n=f#2 v=90
10260 Off ch=1 n=f#2 v=80
10260 Off ch=1 n=f#3 v=80
10320 On ch=1 n=b4 v=93
10320 On ch=1 n=f#4 v=93
10560 Off ch=1 n=f#4 v=80
10560 Off ch=1 n=b4 v=80
10560 On ch=1 n=d#4 v=96
10800 Off ch=1 n=d#4 v=80
10800 On ch=1 n=f#4 v=99
10800 On ch=1 n=b4 v=99
10800 On ch=1 n=f#5 v=99
11040 Off ch=1 n=f#5 v=80
11040 Off ch=1 n=b4 v=80
11040 Off ch=1 n=f#4 v=80
11040 On ch=1 n=b3 v=101
11280 Off ch=1 n=b3 v=80
11280 On ch=1 n=f#4 v=101
11280 On ch=1 n=b4 v=101
11280 On ch=1 n=d#5 v=101
11520 Off ch=1 n=d#5 v=80
11520 Off ch=1 n=b4 v=80
11520 Off ch=1 n=f#4 v=80
11520 On ch=1 n=e4 v=102
11760 Off ch=1 n=e4 v=80
11760 On ch=1 n=g4 v=102
11760 On ch=1 n=b4 v=102
11760 On ch=1 n=e5 v=102
12000 Off ch=1 n=e5 v=80
12000 Off ch=1 n=b4 v=80
12000 Off ch=1 n=g4 v=80
12000 On ch=1 n=c4 v=117
12240 Off ch=1 n=c4 v=80
12240 On ch=1 n=g4 v=102
12240 On ch=1 n=c5 v=102
12240 On ch=1 n=e5 v=102
12480 Off ch=1 n=e5 v=80
12480 Off ch=1 n=c5 v=80
12480 Off ch=1 n=g4 v=80
12480 On ch=1 n=a3 v=117
12720 Off ch=1 n=a3 v=80
12720 On ch=1 n=g4 v=102
12720 On ch=1 n=c5 v=102
12720 On ch=1 n=e5 v=102
12960 Off ch=1 n=e5 v=80
12960 Off ch=1 n=c5 v=80
12960 Off ch=1 n=g4 v=80
12960 On ch=1 n=d5 v=102
12960 On ch=1 n=d4 v=102
13170 Off ch=1 n=d4 v=80
13170 Off ch=1 n=d5 v=80
13200 On ch=1 n=d3 v=102
13200 On ch=1 n=d4 v=102
13320 Off ch=1 n=d4 v=80
13320 Off ch=1 n=d3 v=80
13440 On ch=1 n=d#4 v=78
13440 On ch=1 n=d#3 v=78
13560 Off ch=1 n=d#3 v=80
13560 Off ch=1 n=d#4 v=80
13680 On ch=1 n=c#4 v=78
13680 On ch=1 n=c#3 v=78
13800 Off ch=1 n=c#3 v=80
13800 Off ch=1 n=c#4 v=80
13920 On ch=1 n=d3 v=78
13920 On ch=1 n=d4 v=78
14040 Off ch=1 n=d4 v=80
14040 Off ch=1 n=d3 v=80
14160 On ch=1 n=c6 v=102
14160 On ch=1 n=a5 v=102
14160 On ch=1 n=f#5 v=102
14280 Off ch=1 n=f#5 v=80
14280 Off ch=1 n=a5 v=80
14280 Off ch=1 n=c6 v=80
14400 On ch=1 n=b5 v=78
14400 On ch=1 n=g5 v=78
14520 Off ch=1 n=g5 v=80
14520 Off ch=1 n=b5 v=80
14640 On ch=1 n=a5 v=78
14640 On ch=1 n=g5 v=78
14640 On ch=1 n=c5 v=78
14760 Off ch=1 n=c5 v=80
14760 Off ch=1 n=g5 v=80
14760 Off ch=1 n=a5 v=80
14880 On ch=1 n=a5 v=102
14880 On ch=1 n=f#5 v=102
14880 On ch=1 n=d5 v=78
15000 Off ch=1 n=d5 v=80
15000 Off ch=1 n=f#5 v=80
15000 Off ch=1 n=a5 v=80
15120 On ch=1 n=d5 v=78
15120 On ch=1 n=d4 v=78
15240 Off ch=1 n=d4 v=80
15240 Off ch=1 n=d5 v=80
15360 On ch=1 n=g4 v=78
15360 On ch=1 n=g3 v=78
15540 Off ch=1 n=g3 v=80
15540 Off ch=1 n=g4 v=80
15600 On ch=1 n=a3 v=78
15600 On ch=1 n=a4 v=78
15780 Off ch=1 n=a4 v=80
15780 Off ch=1 n=a3 v=80
15840 On ch=1 n=d4 v=78
15840 On ch=1 n=d3 v=78
16020 Off ch=1 n=d3 v=80
16020 Off ch=1 n=d4 v=80
16080 On ch=1 n=e4 v=78
16080 On ch=1 n=e3 v=78
16140 Off ch=1 n=e3 v=80
16140 Off ch=1 n=e4 v=80
16200 On ch=1 n=f#3 v=78
16200 On ch=1 n=f#4 v=78
16260 Off ch=1 n=f#4 v=80
16260 Off ch=1 n=f#3 v=80
16320 On ch=1 n=g4 v=78
16320 On ch=1 n=g3 v=78
16500 Off ch=1 n=g3 v=80
16500 Off ch=1 n=g4 v=80
16560 On ch=1 n=d#4 v=81
16560 On ch=1 n=d#3 v=81
16740 Off ch=1 n=d#3 v=80
16740 Off ch=1 n=d#4 v=80
16800 On ch=1 n=e4 v=84
16800 On ch=1 n=e3 v=84
16980 Off ch=1 n=e3 v=80
16980 Off ch=1 n=e4 v=80
17040 On ch=1 n=d4 v=87
17040 On ch=1 n=d3 v=87
17220 Off ch=1 n=d3 v=80
17220 Off ch=1 n=d4 v=80
17280 On ch=1 n=c#3 v=98
17280 On ch=1 n=c#4 v=98
17460 Off ch=1 n=c#4 v=80
17460 Off ch=1 n=c#3 v=80
17520 On ch=1 n=b2 v=106
17520 On ch=1 n=b3 v=106
17700 Off ch=1 n=b3 v=80
17700 Off ch=1 n=b2 v=80
17760 On ch=1 n=a2 v=114
17760 On ch=1 n=a3 v=114
17940 Off ch=1 n=a3 v=80
17940 Off ch=1 n=a2 v=80
18000 On ch=1 n=a3 v=125
18240 Off ch=1 n=a3 v=80
18240 On ch=1 n=a3 v=102
18480 Off ch=1 n=a3 v=80
18480 On ch=1 n=a3 v=114
18720 Off ch=1 n=a3 v=80
18720 On ch=1 n=d#4 v=120
18720 On ch=1 n=g3 v=120
18840 Off ch=1 n=g3 v=80
18840 Off ch=1 n=d#4 v=80
18840 On ch=1 n=g4 v=90
18960 Off ch=1 n=g4 v=80
18960 On ch=1 n=a#4 v=96
19080 Off ch=1 n=a#4 v=80
19080 On ch=1 n=d#5 v=102
19200 Off ch=1 n=d#5 v=80
19200 On ch=1 n=g5 v=108
19440 Off ch=1 n=g5 v=80
19440 On ch=1 n=f5 v=114
19680 Off ch=1 n=f5 v=80
19680 On ch=1 n=e5 v=124
19680 On ch=1 n=g4 v=124
20160 Off ch=1 n=g4 v=80
20160 Off ch=1 n=e5 v=80
20160 On ch=1 n=f4 v=120
20400 Off ch=1 n=f4 v=80
20400 On ch=1 n=f5 v=96
20400 On ch=1 n=d5 v=96
20640 Off ch=1 n=d5 v=80
20640 Off ch=1 n=f5 v=80
20640 On ch=1 n=a#5 v=108
20880 Off ch=1 n=a#5 v=80
20880 On ch=1 n=a5 v=114
21120 Off ch=1 n=a5 v=80
21120 On ch=1 n=b5 v=124
21120 On ch=1 n=g#5 v=124
21120 On ch=1 n=f5 v=124
21120 On ch=1 n=d5 v=124
21600 Off ch=1 n=d5 v=80
21600 Off ch=1 n=f5 v=80
21600 Off ch=1 n=g#5 v=80
21600 Off ch=1 n=b5 v=80
21600 On ch=1 n=f4 v=120
21600 On ch=1 n=a3 v=120
21720 Off ch=1 n=a3 v=80
21720 Off ch=1 n=f4 v=80
21720 On ch=1 n=a4 v=90
21840 Off ch=1 n=a4 v=80
21840 On ch=1 n=c5 v=96
21960 Off ch=1 n=c5 v=80
21960 On ch=1 n=f5 v=102
22080 Off ch=1 n=f5 v=80
22080 On ch=1 n=a5 v=108
22320 Off ch=1 n=a5 v=80
22320 On ch=1 n=g5 v=114
22560 Off ch=1 n=g5 v=80
22560 On ch=1 n=f#5 v=124
22560 On ch=1 n=a4 v=124
23040 Off ch=1 n=a4 v=80
23040 Off ch=1 n=f#5 v=80
23040 On ch=1 n=g4 v=120
23280 Off ch=1 n=g4 v=80
23280 On ch=1 n=g5 v=96
23280 On ch=1 n=e5 v=96
23520 Off ch=1 n=e5 v=80
23520 Off ch=1 n=g5 v=80
23520 On ch=1 n=c6 v=108
23760 Off ch=1 n=c6 v=80
23760 On ch=1 n=b5 v=114
24000 Off ch=1 n=b5 v=80
24000 On ch=1 n=c#6 v=124
24000 On ch=1 n=a#5 v=124
24000 On ch=1 n=g5 v=124
24000 On ch=1 n=e5 v=124
24480 Off ch=1 n=e5 v=80
24480 Off ch=1 n=g5 v=80
24480 Off ch=1 n=a#5 v=80
24480 Off ch=1 n=c#6 v=80
24480 On ch=1 n=f#4 v=87
24720 Off ch=1 n=f#4 v=80
24720 On ch=1 n=d#5 v=102
24720 On ch=1 n=f#5 v=102
24720 On ch=1 n=b5 v=102
25200 Off ch=1 n=b5 v=80
25200 Off ch=1 n=f#5 v=80
25200 Off ch=1 n=d#5 v=80
25200 On ch=1 n=a#5 v=102
25200 On ch=1 n=e5 v=102
25200 On ch=1 n=c#5 v=102
25680 Off ch=1 n=c#5 v=80
25680 Off ch=1 n=e5 v=80
25680 Off ch=1 n=a#5 v=80
25680 On ch=1 n=f#5 v=102
25680 On ch=1 n=e5 v=102
25680 On ch=1 n=a#4 v=102
25920 Off ch=1 n=a#4 v=80
25920 Off ch=1 n=e5 v=80
25920 Off ch=1 n=f#5 v=80
25920 On ch=1 n=f4 v=120
26160 Off ch=1 n=f4 v=80
26160 On ch=1 n=f5 v=96
26160 On ch=1 n=d5 v=96
26400 Off ch=1 n=d5 v=80
26400 Off ch=1 n=f5 v=80
26400 On ch=1 n=a#5 v=108
26640 Off ch=1 n=a#5 v=80
26640 On ch=1 n=a5 v=114
26880 Off ch=1 n=a5 v=80
26880 On ch=1 n=b5 v=124
26880 On ch=1 n=g#5 v=124
26880 On ch=1 n=f5 v=124
26880 On ch=1 n=d5 v=124
27360 Off ch=1 n=d5 v=80
27360 Off ch=1 n=f5 v=80
27360 Off ch=1 n=g#5 v=80
27360 Off ch=1 n=b5 v=80
27360 On ch=1 n=e4 v=87
27600 Off ch=1 n=e4 v=80
27600 On ch=1 n=c#5 v=102
27600 On ch=1 n=e5 v=102
27600 On ch=1 n=a5 v=102
28080 Off ch=1 n=a5 v=80
28080 Off ch=1 n=e5 v=80
28080 Off ch=1 n=c#5 v=80
28080 On ch=1 n=g#5 v=102
28080 On ch=1 n=d5 v=102
28080 On ch=1 n=b4 v=102
28560 Off ch=1 n=b4 v=80
28560 Off ch=1 n=d5 v=80
28560 Off ch=1 n=g#5 v=80
28560 On ch=1 n=e5 v=102
28560 On ch=1 n=d5 v=102
28560 On ch=1 n=g#4 v=102
28800 Off ch=1 n=g#4 v=80
28800 Off ch=1 n=d5 v=80
28800 Off ch=1 n=e5 v=80
28800 On ch=1 n=e5 v=90
28800 On ch=1 n=a4 v=90
28920 Off ch=1 n=a4 v=80
28920 Off ch=1 n=e5 v=80
29040 On ch=1 n=d5 v=98
29040 On ch=1 n=b4 v=98
29040 On ch=1 n=a4 v=98
29160 Off ch=1 n=a4 v=80
29160 Off ch=1 n=b4 v=80
29160 Off ch=1 n=d5 v=80
29280 On ch=1 n=e5 v=106
29280 On ch=1 n=c#5 v=106
29280 On ch=1 n=a4 v=106
29460 Off ch=1 n=a4 v=80
29460 Off ch=1 n=c#5 v=80
29460 Off ch=1 n=e5 v=80
29520 On ch=1 n=a3 v=114
29520 On ch=1 n=a2 v=114
29640 Off ch=1 n=a2 v=80
29640 Off ch=1 n=a3 v=80
29760 On ch=1 n=a#3 v=90
29760 On ch=1 n=a#2 v=90
29880 Off ch=1 n=a#2 v=80
29880 Off ch=1 n=a#3 v=80
30000 On ch=1 n=g#3 v=90
30000 On ch=1 n=g#2 v=90
30120 Off ch=1 n=g#2 v=80
30120 Off ch=1 n=g#3 v=80
30240 On ch=1 n=a3 v=90
30240 On ch=1 n=a2 v=90
30450 Off ch=1 n=a2 v=80
30450 Off ch=1 n=a3 v=80
30480 On ch=1 n=c#5 v=102
30480 On ch=1 n=g5 v=102
30600 Off ch=1 n=g5 v=80
30600 Off ch=1 n=c#5 v=80
30720 On ch=1 n=d5 v=78
30720 On ch=1 n=f#5 v=78
30840 Off ch=1 n=f#5 v=80
30840 Off ch=1 n=d5 v=80
30960 On ch=1 n=e5 v=78
30960 On ch=1 n=d5 v=78
30960 On ch=1 n=g#4 v=78
31080 Off ch=1 n=g#4 v=80
31080 Off ch=1 n=d5 v=80
31080 Off ch=1 n=e5 v=80
31200 On ch=1 n=e5 v=78
31200 On ch=1 n=c#5 v=78
31200 On ch=1 n=a4 v=78
31320 Off ch=1 n=a4 v=80
31320 Off ch=1 n=c#5 v=80
31320 Off ch=1 n=e5 v=80
31440 On ch=1 n=a4 v=78
31440 On ch=1 n=a3 v=78
31560 Off ch=1 n=a3 v=80
31560 Off ch=1 n=a4 v=80
31680 On ch=1 n=d4 v=78
31680 On ch=1 n=d3 v=78
31920 Off ch=1 n=d3 v=80
31920 Off ch=1 n=d4 v=80
31920 On ch=1 n=d5 v=84
31920 On ch=1 n=a4 v=84
31920 On ch=1 n=f#4 v=84
32160 Off ch=1 n=f#4 v=80
32160 Off ch=1 n=a4 v=80
32160 Off ch=1 n=d5 v=80
32160 On ch=1 n=f#3 v=87
32400 Off ch=1 n=f#3 v=80
32400 On ch=1 n=f#4 v=90
32400 On ch=1 n=a#4 v=90
32400 On ch=1 n=e5 v=90
32640 Off ch=1 n=e5 v=80
32640 Off ch=1 n=a#4 v=80
32640 Off ch=1 n=f#4 v=80
32640 On ch=1 n=f#2 v=120
32880 Off ch=1 n=f#2 v=80
32880 On ch=1 n=e5 v=96
32880 On ch=1 n=a#4 v=96
32880 On ch=1 n=f#4 v=96
33120 Off ch=1 n=f#4 v=80
33120 Off ch=1 n=a#4 v=80
33120 Off ch=1 n=e5 v=80
33120 On ch=1 n=b3 v=102
33360 Off ch=1 n=b3 v=80
33360 On ch=1 n=f#4 v=102
33360 On ch=1 n=b4 v=102
33360 On ch=1 n=d5 v=102
33600 Off ch=1 n=d5 v=80
33600 Off ch=1 n=b4 v=80
33600 Off ch=1 n=f#4 v=80
33600 On ch=1 n=f4 v=120
33840 On ch=1 n=b4 v=102
33840 On ch=1 n=d5 v=102
34080 Off ch=1 n=d5 v=80
34080 Off ch=1 n=b4 v=80
34080 Off ch=1 n=f4 v=80
34080 On ch=1 n=e4 v=102
34320 On ch=1 n=d5 v=102
34320 On ch=1 n=e5 v=102
34560 Off ch=1 n=e5 v=80
34560 Off ch=1 n=d5 v=80
34560 Off ch=1 n=e4 v=80
34560 On ch=1 n=c#5 v=102
34560 On ch=1 n=a4 v=102
34680 Off ch=1 n=a4 v=80
34680 Off ch=1 n=c#5 v=80
34800 On ch=1 n=a3 v=114
34800 On ch=1 n=a2 v=114
34920 Off ch=1 n=a2 v=80
34920 Off ch=1 n=a3 v=80
35040 On ch=1 n=a#3 v=78
35040 On ch=1 n=a#2 v=78
35160 Off ch=1 n=a#2 v=80
35160 Off ch=1 n=a#3 v=80
35280 On ch=1 n=g#3 v=78
35280 On ch=1 n=g#2 v=78
35400 Off ch=1 n=g#2 v=80
35400 Off ch=1 n=g#3 v=80
35520 On ch=1 n=a2 v=78
35520 On ch=1 n=a3 v=78
35640 Off ch=1 n=a3 v=80
35640 Off ch=1 n=a2 v=80
35760 On ch=1 n=c#5 v=102
35760 On ch=1 n=g5 v=102
35880 Off ch=1 n=g5 v=80
35880 Off ch=1 n=c#5 v=80
36000 On ch=1 n=d5 v=78
36000 On ch=1 n=f#5 v=78
36120 Off ch=1 n=f#5 v=80
36120 Off ch=1 n=d5 v=80
36240 On ch=1 n=g4 v=78
36240 On ch=1 n=e5 v=78
36360 Off ch=1 n=e5 v=80
36360 Off ch=1 n=g4 v=80
36480 On ch=1 n=a4 v=102
36480 On ch=1 n=c#5 v=102
36600 Off ch=1 n=c#5 v=80
36600 Off ch=1 n=a4 v=80
36720 On ch=1 n=a3 v=78
36720 On ch=1 n=a4 v=78
36840 Off ch=1 n=a4 v=80
36840 Off ch=1 n=a3 v=80
36960 On ch=1 n=d4 v=78
36960 On ch=1 n=d3 v=78
37140 Off ch=1 n=d3 v=80
37140 Off ch=1 n=d4 v=80
37200 On ch=1 n=e3 v=78
37200 On ch=1 n=e4 v=78
37380 Off ch=1 n=e4 v=80
37380 Off ch=1 n=e3 v=80
37440 On ch=1 n=a3 v=78
37440 On ch=1 n=a2 v=78
37620 Off ch=1 n=a2 v=80
37620 Off ch=1 n=a3 v=80
37680 On ch=1 n=b3 v=78
37680 On ch=1 n=b2 v=78
37740 Off ch=1 n=b2 v=80
37740 Off ch=1 n=b3 v=80
37800 On ch=1 n=c#3 v=78
37800 On ch=1 n=c#4 v=78
37860 Off ch=1 n=c#4 v=80
37860 Off ch=1 n=c#3 v=80
37920 On ch=1 n=d4 v=78
37920 On ch=1 n=d3 v=78
38100 Off ch=1 n=d3 v=80
38100 Off ch=1 n=d4 v=80
38160 On ch=1 n=g#3 v=81
38160 On ch=1 n=g#2 v=81
38340 Off ch=1 n=g#2 v=80
38340 Off ch=1 n=g#3 v=80
38400 On ch=1 n=a3 v=84
38400 On ch=1 n=a2 v=84
38580 Off ch=1 n=a2 v=80
38580 Off ch=1 n=a3 v=80
38640 On ch=1 n=g3 v=87
38640 On ch=1 n=g2 v=87
38820 Off ch=1 n=g2 v=80
38820 Off ch=1 n=g3 v=80
38880 On ch=1 n=f#3 v=90
38880 On ch=1 n=f#2 v=90
39060 Off ch=1 n=f#2 v=80
39060 Off ch=1 n=f#3 v=80
39120 On ch=1 n=b4 v=93
39120 On ch=1 n=f#4 v=93
39360 Off ch=1 n=f#4 v=80
39360 Off ch=1 n=b4 v=80
39360 On ch=1 n=d#4 v=96
39600 Off ch=1 n=d#4 v=80
39600 On ch=1 n=f#4 v=99
39600 On ch=1 n=b4 v=99
39600 On ch=1 n=f#5 v=99
39840 Off ch=1 n=f#5 v=80
39840 Off ch=1 n=b4 v=80
39840 Off ch=1 n=f#4 v=80
39840 On ch=1 n=b3 v=101
40080 Off ch=1 n=b3 v=80
40080 On ch=1 n=f#4 v=101
40080 On ch=1 n=b4 v=101
40080 On ch=1 n=d#5 v=101
40320 Off ch=1 n=d#5 v=80
40320 Off ch=1 n=b4 v=80
40320 Off ch=1 n=f#4 v=80
40320 On ch=1 n=e4 v=102
40560 Off ch=1 n=e4 v=80
40560 On ch=1 n=g4 v=102
40560 On ch=1 n=b4 v=102
40560 On ch=1 n=e5 v=102
40800 Off ch=1 n=e5 v=80
40800 Off ch=1 n=b4 v=80
40800 Off ch=1 n=g4 v=80
40800 On ch=1 n=c4 v=117
41040 Off ch=1 n=c4 v=80
41040 On ch=1 n=g4 v=102
41040 On ch=1 n=c5 v=102
41040 On ch=1 n=e5 v=102
41280 Off ch=1 n=e5 v=80
41280 Off ch=1 n=c5 v=80
41280 Off ch=1 n=g4 v=80
41280 On ch=1 n=a3 v=117
41520 Off ch=1 n=a3 v=80
41520 On ch=1 n=g4 v=102
41520 On ch=1 n=c5 v=102
41520 On ch=1 n=e5 v=102
41760 Off ch=1 n=e5 v=80
41760 Off ch=1 n=c5 v=80
41760 Off ch=1 n=g4 v=80
41760 On ch=1 n=d5 v=102
41760 On ch=1 n=d4 v=102
41970 Off ch=1 n=d4 v=80
41970 Off ch=1 n=d5 v=80
42000 On ch=1 n=d3 v=114
42000 On ch=1 n=d4 v=114
42120 Off ch=1 n=d4 v=80
42120 Off ch=1 n=d3 v=80
42240 On ch=1 n=d#4 v=78
42240 On ch=1 n=d#3 v=78
42360 Off ch=1 n=d#3 v=80
42360 Off ch=1 n=d#4 v=80
42480 On ch=1 n=c#4 v=78
42480 On ch=1 n=c#3 v=78
42600 Off ch=1 n=c#3 v=80
42600 Off ch=1 n=c#4 v=80
42720 On ch=1 n=d3 v=78
42720 On ch=1 n=d4 v=78
42840 Off ch=1 n=d4 v=80
42840 Off ch=1 n=d3 v=80
42960 On ch=1 n=c6 v=102
42960 On ch=1 n=a5 v=102
42960 On ch=1 n=f#5 v=102
43080 Off ch=1 n=f#5 v=80
43080 Off ch=1 n=a5 v=80
43080 Off ch=1 n=c6 v=80
43200 On ch=1 n=b5 v=78
43200 On ch=1 n=g5 v=78
43320 Off ch=1 n=g5 v=80
43320 Off ch=1 n=b5 v=80
43440 On ch=1 n=a5 v=78
43440 On ch=1 n=g5 v=78
43440 On ch=1 n=c5 v=78
43560 Off ch=1 n=c5 v=80
43560 Off ch=1 n=g5 v=80
43560 Off ch=1 n=a5 v=80
43680 On ch=1 n=a5 v=102
43680 On ch=1 n=f#5 v=102
43680 On ch=1 n=d5 v=78
43800 Off ch=1 n=d5 v=80
43800 Off ch=1 n=f#5 v=80
43800 Off ch=1 n=a5 v=80
43920 On ch=1 n=d5 v=78
43920 On ch=1 n=d4 v=78
44040 Off ch=1 n=d4 v=80
44040 Off ch=1 n=d5 v=80
44160 On ch=1 n=g4 v=78
44160 On ch=1 n=g3 v=78
44340 Off ch=1 n=g3 v=80
44340 Off ch=1 n=g4 v=80
44400 On ch=1 n=a3 v=78
44400 On ch=1 n=a4 v=78
44580 Off ch=1 n=a4 v=80
44580 Off ch=1 n=a3 v=80
44640 On ch=1 n=d4 v=78
44640 On ch=1 n=d3 v=78
44820 Off ch=1 n=d3 v=80
44820 Off ch=1 n=d4 v=80
44880 On ch=1 n=e4 v=78
44880 On ch=1 n=e3 v=78
44940 Off ch=1 n=e3 v=80
44940 Off ch=1 n=e4 v=80
45000 On ch=1 n=f#3 v=78
45000 On ch=1 n=f#4 v=78
45060 Off ch=1 n=f#4 v=80
45060 Off ch=1 n=f#3 v=80
45120 On ch=1 n=g4 v=78
45120 On ch=1 n=g3 v=78
45300 Off ch=1 n=g3 v=80
45300 Off ch=1 n=g4 v=80
45360 On ch=1 n=d#4 v=81
45360 On ch=1 n=d#3 v=81
45540 Off ch=1 n=d#3 v=80
45540 Off ch=1 n=d#4 v=80
45600 On ch=1 n=e4 v=84
45600 On ch=1 n=e3 v=84
45780 Off ch=1 n=e3 v=80
45780 Off ch=1 n=e4 v=80
45840 On ch=1 n=d4 v=87
45840 On ch=1 n=d3 v=87
46020 Off ch=1 n=d3 v=80
46020 Off ch=1 n=d4 v=80
46080 On ch=1 n=c#3 v=98
46080 On ch=1 n=c#4 v=98
46260 Off ch=1 n=c#4 v=80
46260 Off ch=1 n=c#3 v=80
46320 On ch=1 n=b2 v=106
46320 On ch=1 n=b3 v=106
46500 Off ch=1 n=b3 v=80
46500 Off ch=1 n=b2 v=80
46560 On ch=1 n=a2 v=114
46560 On ch=1 n=a3 v=114
46740 Off ch=1 n=a3 v=80
46740 Off ch=1 n=a2 v=80
47040 On ch=1 n=d3 v=114
47040 On ch=1 n=d2 v=114
47280 Off ch=1 n=d2 v=80
47280 Off ch=1 n=d3 v=80
47520 On ch=1 n=d4 v=78
47520 On ch=1 n=g3 v=78
47760 Off ch=1 n=d4 v=80
47760 On ch=1 n=e4 v=78
48000 Off ch=1 n=g3 v=80
48000 Off ch=1 n=e4 v=80
48000 On ch=1 n=f4 v=75
48000 On ch=1 n=f3 v=75
48480 Off ch=1 n=f3 v=80
48480 Off ch=1 n=f4 v=80
48480 On ch=1 n=a#3 v=72
48960 Off ch=1 n=a#3 v=80
48960 On ch=1 n=d#4 v=69
48960 On ch=1 n=d#3 v=69
49440 Off ch=1 n=d#3 v=80
49440 Off ch=1 n=d#4 v=80
49440 On ch=1 n=a3 v=66
49920 Off ch=1 n=a3 v=80
49920 On ch=1 n=a#3 v=60
49920 On ch=1 n=a#2 v=60
51360 Off ch=1 n=a#2 v=80
51360 Off ch=1 n=a#3 v=80
51360 On ch=1 n=a3 v=53
51360 On ch=1 n=a2 v=53
52800 Off ch=1 n=a2 v=80
52800 Off ch=1 n=a3 v=80
52800 On ch=1 n=g3 v=65
52800 On ch=1 n=g2 v=65
53280 Off ch=1 n=g2 v=80
53280 Off ch=1 n=g3 v=80
53280 On ch=1 n=f3 v=53
53280 On ch=1 n=f2 v=53
53520 Off ch=1 n=f2 v=80
53520 On ch=1 n=d#3 v=53
53760 Off ch=1 n=d#3 v=80
53760 On ch=1 n=d3 v=53
54000 Off ch=1 n=f3 v=80
54000 Off ch=1 n=d3 v=80
54000 On ch=1 n=f3 v=53
54000 On ch=1 n=d#3 v=53
54240 Off ch=1 n=d#3 v=80
54240 Off ch=1 n=f3 v=80
54240 On ch=1 n=d#3 v=53
54240 On ch=1 n=f3 v=53
54480 Off ch=1 n=d#3 v=80
54480 On ch=1 n=d3 v=53
54720 Off ch=1 n=d3 v=80
54720 On ch=1 n=c3 v=53
54960 Off ch=1 n=f3 v=80
54960 Off ch=1 n=c3 v=80
54960 On ch=1 n=d3 v=53
54960 On ch=1 n=f3 v=53
55200 Off ch=1 n=f3 v=80
55200 Off ch=1 n=d3 v=80
55200 On ch=1 n=d3 v=53
55200 On ch=1 n=f3 v=53
55440 Off ch=1 n=d3 v=80
55440 On ch=1 n=c3 v=53
55680 Off ch=1 n=f3 v=80
55680 Off ch=1 n=c3 v=80
55680 On ch=1 n=a#2 v=53
55680 On ch=1 n=f3 v=53
55920 Off ch=1 n=a#2 v=80
55920 On ch=1 n=b2 v=53
56160 Off ch=1 n=f3 v=80
56160 Off ch=1 n=b2 v=80
56160 On ch=1 n=c4 v=65
56160 On ch=1 n=c3 v=65
56400 Off ch=1 n=c3 v=80
56400 Off ch=1 n=c4 v=80
56400 On ch=1 n=b2 v=65
56400 On ch=1 n=b3 v=65
56640 Off ch=1 n=b3 v=80
56640 Off ch=1 n=b2 v=80
56640 On ch=1 n=a#3 v=65
56640 On ch=1 n=a#2 v=65
56880 Off ch=1 n=a#2 v=80
56880 Off ch=1 n=a#3 v=80
56880 On ch=1 n=a2 v=65
56880 On ch=1 n=a3 v=65
57120 Off ch=1 n=a3 v=80
57120 Off ch=1 n=a2 v=80
57120 On ch=1 n=a#3 v=65
57120 On ch=1 n=a#2 v=65
57360 Off ch=1 n=a#2 v=80
57360 Off ch=1 n=a#3 v=80
57360 On ch=1 n=b3 v=65
57360 On ch=1 n=b2 v=65
57600 Off ch=1 n=b2 v=80
57600 Off ch=1 n=b3 v=80
57600 On ch=1 n=c4 v=65
57600 On ch=1 n=c3 v=65
57840 Off ch=1 n=c4 v=80
57840 On ch=1 n=d4 v=65
58080 Off ch=1 n=c3 v=80
58080 Off ch=1 n=d4 v=80
58080 On ch=1 n=e4 v=65
58080 On ch=1 n=c3 v=65
58320 Off ch=1 n=e4 v=80
58320 On ch=1 n=c4 v=65
58560 Off ch=1 n=c3 v=80
58560 Off ch=1 n=c4 v=80
58560 On ch=1 n=f4 v=65
58560 On ch=1 n=f3 v=65
58800 Off ch=1 n=f4 v=80
58800 On ch=1 n=d#4 v=65
59040 Off ch=1 n=f3 v=80
59040 Off ch=1 n=d#4 v=80
59040 On ch=1 n=g3 v=78
59040 On ch=1 n=d4 v=78
59280 Off ch=1 n=d4 v=80
59280 On ch=1 n=e4 v=78
59520 Off ch=1 n=g3 v=80
59520 Off ch=1 n=e4 v=80
59520 On ch=1 n=f4 v=75
59520 On ch=1 n=f3 v=75
60000 Off ch=1 n=f3 v=80
60000 Off ch=1 n=f4 v=80
60000 On ch=1 n=a#3 v=72
60480 Off ch=1 n=a#3 v=80
60480 On ch=1 n=d#4 v=69
60480 On ch=1 n=d#3 v=69
60960 Off ch=1 n=d#3 v=80
60960 Off ch=1 n=d#4 v=80
60960 On ch=1 n=a3 v=66
61440 Off ch=1 n=a3 v=80
61440 On ch=1 n=a#3 v=60
61440 On ch=1 n=a#2 v=60
62880 Off ch=1 n=a#2 v=80
62880 Off ch=1 n=a#3 v=80
62880 On ch=1 n=a3 v=53
62880 On ch=1 n=a2 v=53
64320 Off ch=1 n=a2 v=80
64320 Off ch=1 n=a3 v=80
64320 On ch=1 n=g3 v=65
64320 On ch=1 n=g2 v=65
64800 Off ch=1 n=g2 v=80
64800 Off ch=1 n=g3 v=80
64800 On ch=1 n=f3 v=53
64800 On ch=1 n=f2 v=53
65040 Off ch=1 n=f2 v=80
65040 On ch=1 n=d#3 v=53
65280 Off ch=1 n=d#3 v=80
65280 On ch=1 n=d3 v=53
65520 Off ch=1 n=f3 v=80
65520 Off ch=1 n=d3 v=80
65520 On ch=1 n=f3 v=53
65520 On ch=1 n=d#3 v=53
65760 Off ch=1 n=d#3 v=80
65760 Off ch=1 n=f3 v=80
65760 On ch=1 n=d#3 v=53
65760 On ch=1 n=f3 v=53
66000 Off ch=1 n=d#3 v=80
66000 On ch=1 n=d3 v=53
66240 Off ch=1 n=d3 v=80
66240 On ch=1 n=c3 v=53
66480 Off ch=1 n=f3 v=80
66480 Off ch=1 n=c3 v=80
66480 On ch=1 n=d3 v=53
66480 On ch=1 n=f3 v=53
66720 Off ch=1 n=f3 v=80
66720 Off ch=1 n=d3 v=80
66720 On ch=1 n=d3 v=53
66720 On ch=1 n=f3 v=53
66960 Off ch=1 n=d3 v=80
66960 On ch=1 n=c3 v=53
67200 Off ch=1 n=f3 v=80
67200 Off ch=1 n=c3 v=80
67200 On ch=1 n=a#2 v=53
67200 On ch=1 n=f3 v=53
67440 Off ch=1 n=a#2 v=80
67440 On ch=1 n=b2 v=53
67680 Off ch=1 n=f3 v=80
67680 Off ch=1 n=b2 v=80
67680 On ch=1 n=c4 v=65
67680 On ch=1 n=c3 v=65
67920 Off ch=1 n=c3 v=80
67920 Off ch=1 n=c4 v=80
67920 On ch=1 n=b2 v=65
67920 On ch=1 n=b3 v=65
68160 Off ch=1 n=b3 v=80
68160 Off ch=1 n=b2 v=80
68160 On ch=1 n=a#3 v=65
68160 On ch=1 n=a#2 v=65
68400 Off ch=1 n=a#2 v=80
68400 Off ch=1 n=a#3 v=80
68400 On ch=1 n=a2 v=65
68400 On ch=1 n=a3 v=65
68640 Off ch=1 n=a3 v=80
68640 Off ch=1 n=a2 v=80
68640 On ch=1 n=a#3 v=65
68640 On ch=1 n=a#2 v=65
68880 Off ch=1 n=a#2 v=80
68880 Off ch=1 n=a#3 v=80
68880 On ch=1 n=b3 v=65
68880 On ch=1 n=b2 v=65
69120 Off ch=1 n=b2 v=80
69120 Off ch=1 n=b3 v=80
69120 On ch=1 n=c4 v=65
69120 On ch=1 n=c3 v=65
69360 Off ch=1 n=c4 v=80
69360 On ch=1 n=d4 v=65
69600 Off ch=1 n=c3 v=80
69600 Off ch=1 n=d4 v=80
69600 On ch=1 n=e4 v=65
69600 On ch=1 n=c3 v=65
69840 Off ch=1 n=e4 v=80
69840 On ch=1 n=c4 v=65
70080 Off ch=1 n=c3 v=80
70080 Off ch=1 n=c4 v=80
70080 On ch=1 n=f4 v=65
70080 On ch=1 n=f3 v=65
70500 Off ch=1 n=f3 v=80
70500 On ch=1 n=f3 v=78
70560 Off ch=1 n=f4 v=80
70560 On ch=1 n=f4 v=78
70800 Off ch=1 n=f4 v=80
70800 On ch=1 n=e4 v=78
71040 Off ch=1 n=e4 v=80
71040 On ch=1 n=d#4 v=78
71280 Off ch=1 n=d#4 v=80
71280 On ch=1 n=f4 v=78
71460 Off ch=1 n=f4 v=80
71520 On ch=1 n=f4 v=78
71760 Off ch=1 n=f4 v=80
71760 On ch=1 n=e4 v=78
72000 Off ch=1 n=e4 v=80
72000 On ch=1 n=d#4 v=78
72240 Off ch=1 n=d#4 v=80
72240 On ch=1 n=f4 v=78
72480 Off ch=1 n=f3 v=80
72480 Off ch=1 n=f4 v=80
72480 On ch=1 n=e4 v=81
72720 Off ch=1 n=e4 v=80
72720 On ch=1 n=d#4 v=84
72960 Off ch=1 n=d#4 v=80
72960 On ch=1 n=d4 v=87
73200 Off ch=1 n=d4 v=80
73200 On ch=1 n=f#4 v=90
73380 On ch=1 n=f3 v=90
73440 Off ch=1 n=f#4 v=80
73440 On ch=1 n=g4 v=90
73680 Off ch=1 n=g4 v=80
73680 On ch=1 n=f#4 v=90
73920 Off ch=1 n=f#4 v=80
73920 On ch=1 n=f4 v=90
74160 Off ch=1 n=f4 v=80
74160 On ch=1 n=g4 v=90
74340 Off ch=1 n=g4 v=80
74400 On ch=1 n=g4 v=90
74640 Off ch=1 n=g4 v=80
74640 On ch=1 n=f#4 v=90
74880 Off ch=1 n=f#4 v=80
74880 On ch=1 n=f4 v=90
75120 Off ch=1 n=f4 v=80
75120 On ch=1 n=g4 v=90
75360 Off ch=1 n=f3 v=80
75360 Off ch=1 n=g4 v=80
75360 On ch=1 n=f#4 v=93
75600 Off ch=1 n=f#4 v=80
75600 On ch=1 n=f4 v=96
75840 Off ch=1 n=f4 v=80
75840 On ch=1 n=e4 v=99
76080 Off ch=1 n=e4 v=80
76080 On ch=1 n=g4 v=102
76320 Off ch=1 n=g4 v=80
76320 On ch=1 n=f3 v=102
76320 On ch=1 n=f4 v=102
76560 Off ch=1 n=f4 v=80
76560 On ch=1 n=e4 v=102
76800 Off ch=1 n=e4 v=80
76800 On ch=1 n=d4 v=117
77280 Off ch=1 n=d4 v=80
77280 On ch=1 n=e4 v=102
77520 Off ch=1 n=e4 v=80
77520 On ch=1 n=d4 v=102
77760 Off ch=1 n=d4 v=80
77760 On ch=1 n=c4 v=117
78240 Off ch=1 n=c4 v=80
78240 On ch=1 n=d4 v=102
78480 Off ch=1 n=d4 v=80
78480 On ch=1 n=c4 v=102
78720 Off ch=1 n=c4 v=80
78720 On ch=1 n=b3 v=117
78960 Off ch=1 n=b3 v=80
78960 On ch=1 n=c4 v=102
79200 Off ch=1 n=f3 v=80
79200 Off ch=1 n=c4 v=80
79200 On ch=1 n=f4 v=102
79200 On ch=1 n=f3 v=102
79440 Off ch=1 n=f4 v=80
79440 On ch=1 n=e4 v=102
79680 Off ch=1 n=e4 v=80
79680 On ch=1 n=d4 v=117
80160 Off ch=1 n=d4 v=80
80160 On ch=1 n=e4 v=102
80400 Off ch=1 n=e4 v=80
80400 On ch=1 n=d4 v=102
80640 Off ch=1 n=d4 v=80
80640 On ch=1 n=c4 v=117
81120 Off ch=1 n=c4 v=80
81120 On ch=1 n=d4 v=102
81360 Off ch=1 n=d4 v=80
81360 On ch=1 n=c4 v=102
81600 Off ch=1 n=c4 v=80
81600 On ch=1 n=b3 v=117
81840 Off ch=1 n=b3 v=80
81840 On ch=1 n=c4 v=102
82080 Off ch=1 n=c4 v=80
82080 On ch=1 n=b3 v=90
82320 Off ch=1 n=b3 v=80
82320 On ch=1 n=c4 v=90
82560 Off ch=1 n=f3 v=80
82560 Off ch=1 n=c4 v=80
82560 On ch=1 n=b3 v=105
82560 On ch=1 n=f3 v=105
82800 Off ch=1 n=b3 v=80
82800 On ch=1 n=c4 v=90
83040 Off ch=1 n=c4 v=80
83040 On ch=1 n=d4 v=90
83280 Off ch=1 n=d4 v=80
83280 On ch=1 n=d#4 v=90
83520 Off ch=1 n=d#4 v=80
83520 On ch=1 n=d4 v=90
83760 Off ch=1 n=d4 v=80
83760 On ch=1 n=d#4 v=90
84000 Off ch=1 n=f3 v=80
84000 Off ch=1 n=d#4 v=80
84000 On ch=1 n=d4 v=105
84000 On ch=1 n=f3 v=105
84240 Off ch=1 n=d4 v=80
84240 On ch=1 n=d#4 v=90
84480 Off ch=1 n=d#4 v=80
84480 On ch=1 n=e4 v=90
84720 Off ch=1 n=e4 v=80
84720 On ch=1 n=f4 v=90
84960 Off ch=1 n=f4 v=80
84960 On ch=1 n=e4 v=90
85200 Off ch=1 n=e4 v=80
85200 On ch=1 n=f4 v=90
85440 Off ch=1 n=f3 v=80
85440 Off ch=1 n=f4 v=80
85440 On ch=1 n=e4 v=84
85440 On ch=1 n=f3 v=84
85680 Off ch=1 n=e4 v=80
85680 On ch=1 n=f4 v=84
85920 Off ch=1 n=f4 v=80
85920 On ch=1 n=e4 v=78
86160 Off ch=1 n=e4 v=80
86160 On ch=1 n=f4 v=78
86400 Off ch=1 n=f3 v=80
86400 Off ch=1 n=f4 v=80
86400 On ch=1 n=e4 v=72
86400 On ch=1 n=f3 v=72
86640 Off ch=1 n=e4 v=80
86640 On ch=1 n=f4 v=72
86880 Off ch=1 n=f4 v=80
86880 On ch=1 n=e4 v=66
87120 Off ch=1 n=e4 v=80
87120 On ch=1 n=f4 v=66
87360 Off ch=1 n=f3 v=80
87360 Off ch=1 n=f4 v=80
87360 On ch=1 n=e4 v=60
87360 On ch=1 n=f3 v=60
87600 Off ch=1 n=e4 v=80
87600 On ch=1 n=f4 v=60
88800 Off ch=1 n=f3 v=80
88800 Off ch=1 n=f4 v=80
88800 On ch=1 n=a#3 v=53
88800 On ch=1 n=a#2 v=53
90240 Off ch=1 n=a#2 v=80
90240 Off ch=1 n=a#3 v=80
90240 On ch=1 n=g#3 v=53
90240 On ch=1 n=g#2 v=53
91680 Off ch=1 n=g#2 v=80
91680 Off ch=1 n=g#3 v=80
91680 On ch=1 n=f#3 v=53
91680 On ch=1 n=f#2 v=53
93120 Off ch=1 n=f#2 v=80
93120 Off ch=1 n=f#3 v=80
93120 On ch=1 n=f3 v=53
93120 On ch=1 n=f2 v=53
93600 Off ch=1 n=f2 v=80
93840 On ch=1 n=d#3 v=53
94080 Off ch=1 n=d#3 v=80
94080 On ch=1 n=d3 v=53
94320 Off ch=1 n=d3 v=80
94320 On ch=1 n=d#3 v=53
94560 Off ch=1 n=f3 v=80
94560 Off ch=1 n=d#3 v=80
94560 On ch=1 n=d#3 v=53
94560 On ch=1 n=f3 v=53
94800 Off ch=1 n=d#3 v=80
94800 On ch=1 n=d3 v=53
95040 Off ch=1 n=f3 v=80
95040 Off ch=1 n=d3 v=80
95040 On ch=1 n=f3 v=68
95040 On ch=1 n=c3 v=68
95280 Off ch=1 n=c3 v=80
95280 On ch=1 n=a#2 v=53
95520 Off ch=1 n=f3 v=80
95520 Off ch=1 n=a#2 v=80
95520 On ch=1 n=f3 v=68
95520 On ch=1 n=a2 v=68
95760 Off ch=1 n=a2 v=80
95760 On ch=1 n=a#2 v=53
96000 Off ch=1 n=f3 v=80
96000 Off ch=1 n=a#2 v=80
96000 On ch=1 n=f3 v=68
96000 On ch=1 n=c3 v=68
96240 Off ch=1 n=c3 v=80
96240 On ch=1 n=d3 v=53
96480 Off ch=1 n=f3 v=80
96480 Off ch=1 n=d3 v=80
96480 On ch=1 n=d#3 v=63
96480 On ch=1 n=f3 v=63
96720 Off ch=1 n=d#3 v=80
96720 On ch=1 n=d3 v=63
96960 Off ch=1 n=f3 v=80
96960 Off ch=1 n=d3 v=80
96960 On ch=1 n=c3 v=73
96960 On ch=1 n=g3 v=73
97200 Off ch=1 n=g3 v=80
97200 Off ch=1 n=c3 v=80
97200 On ch=1 n=a#3 v=73
97200 On ch=1 n=a#2 v=73
97440 Off ch=1 n=a#2 v=80
97440 Off ch=1 n=a#3 v=80
97440 On ch=1 n=d#3 v=83
97440 On ch=1 n=d#4 v=83
97680 Off ch=1 n=d#4 v=80
97680 Off ch=1 n=d#3 v=80
97680 On ch=1 n=d4 v=83
97680 On ch=1 n=d3 v=83
97920 Off ch=1 n=d3 v=80
97920 Off ch=1 n=d4 v=80
97920 On ch=1 n=g4 v=93
97920 On ch=1 n=g3 v=93
98160 Off ch=1 n=g3 v=80
98160 Off ch=1 n=g4 v=80
98160 On ch=1 n=f3 v=93
98160 On ch=1 n=f4 v=93
98400 Off ch=1 n=f4 v=80
98400 Off ch=1 n=f3 v=80
98400 On ch=1 n=a#3 v=103
98400 On ch=1 n=a#2 v=103
98640 Off ch=1 n=a#2 v=80
98640 Off ch=1 n=a#3 v=80
98640 On ch=1 n=f2 v=103
98640 On ch=1 n=f3 v=103
98880 Off ch=1 n=f3 v=80
98880 Off ch=1 n=f2 v=80
98880 On ch=1 n=a#3 v=120
98880 On ch=1 n=a#2 v=120
99300 On ch=1 n=f3 v=78
99360 Off ch=1 n=a#2 v=80
99360 Off ch=1 n=a#3 v=80
99360 On ch=1 n=f4 v=78
99600 Off ch=1 n=f4 v=80
99600 On ch=1 n=e4 v=78
99840 Off ch=1 n=e4 v=80
99840 On ch=1 n=d#4 v=78
100080 Off ch=1 n=d#4 v=80
100080 On ch=1 n=f4 v=78
100260 Off ch=1 n=f4 v=80
100320 On ch=1 n=f4 v=78
100560 Off ch=1 n=f4 v=80
100560 On ch=1 n=e4 v=78
100800 Off ch=1 n=e4 v=80
100800 On ch=1 n=d#4 v=78
101040 Off ch=1 n=d#4 v=80
101040 On ch=1 n=f4 v=78
101280 Off ch=1 n=f3 v=80
101280 Off ch=1 n=f4 v=80
101280 On ch=1 n=e4 v=81
101520 Off ch=1 n=e4 v=80
101520 On ch=1 n=d#4 v=84
101760 Off ch=1 n=d#4 v=80
101760 On ch=1 n=d4 v=87
102000 Off ch=1 n=d4 v=80
102000 On ch=1 n=f#4 v=90
102180 On ch=1 n=f3 v=90
102240 Off ch=1 n=f#4 v=80
102240 On ch=1 n=g4 v=90
102480 Off ch=1 n=g4 v=80
102480 On ch=1 n=f#4 v=90
102720 Off ch=1 n=f#4 v=80
102720 On ch=1 n=f4 v=90
102960 Off ch=1 n=f4 v=80
102960 On ch=1 n=g4 v=90
103140 Off ch=1 n=g4 v=80
103200 On ch=1 n=g4 v=90
103440 Off ch=1 n=g4 v=80
103440 On ch=1 n=f#4 v=90
103680 Off ch=1 n=f#4 v=80
103680 On ch=1 n=f4 v=90
103920 Off ch=1 n=f4 v=80
103920 On ch=1 n=g4 v=90
104160 Off ch=1 n=f3 v=80
104160 Off ch=1 n=g4 v=80
104160 On ch=1 n=f#4 v=93
104400 Off ch=1 n=f#4 v=80
104400 On ch=1 n=f4 v=96
104640 Off ch=1 n=f4 v=80
104640 On ch=1 n=e4 v=99
104880 Off ch=1 n=e4 v=80
104880 On ch=1 n=g4 v=102
105120 Off ch=1 n=g4 v=80
105120 On ch=1 n=f3 v=102
105120 On ch=1 n=f4 v=102
105360 Off ch=1 n=f4 v=80
105360 On ch=1 n=e4 v=102
105600 Off ch=1 n=e4 v=80
105600 On ch=1 n=d4 v=117
106080 Off ch=1 n=d4 v=80
106080 On ch=1 n=e4 v=102
106320 Off ch=1 n=e4 v=80
106320 On ch=1 n=d4 v=102
106560 Off ch=1 n=d4 v=80
106560 On ch=1 n=c4 v=117
107040 Off ch=1 n=c4 v=80
107040 On ch=1 n=d4 v=102
107280 Off ch=1 n=d4 v=80
107280 On ch=1 n=c4 v=102
107520 Off ch=1 n=c4 v=80
107520 On ch=1 n=b3 v=117
107760 Off ch=1 n=b3 v=80
107760 On ch=1 n=c4 v=102
108000 Off ch=1 n=f3 v=80
108000 Off ch=1 n=c4 v=80
108000 On ch=1 n=f4 v=102
108000 On ch=1 n=f3 v=102
108240 Off ch=1 n=f4 v=80
108240 On ch=1 n=e4 v=102
108480 Off ch=1 n=e4 v=80
108480 On ch=1 n=d4 v=117
108960 Off ch=1 n=d4 v=80
108960 On ch=1 n=e4 v=102
109200 Off ch=1 n=e4 v=80
109200 On ch=1 n=d4 v=102
109440 Off ch=1 n=d4 v=80
109440 On ch=1 n=c4 v=117
109920 Off ch=1 n=c4 v=80
109920 On ch=1 n=d4 v=102
110160 Off ch=1 n=d4 v=80
110160 On ch=1 n=c4 v=102
110400 Off ch=1 n=c4 v=80
110400 On ch=1 n=b3 v=117
110640 Off ch=1 n=b3 v=80
110640 On ch=1 n=c4 v=102
110880 Off ch=1 n=c4 v=80
110880 On ch=1 n=b3 v=90
111120 Off ch=1 n=b3 v=80
111120 On ch=1 n=c4 v=90
111360 Off ch=1 n=f3 v=80
111360 Off ch=1 n=c4 v=80
111360 On ch=1 n=b3 v=105
111360 On ch=1 n=f3 v=105
111600 Off ch=1 n=b3 v=80
111600 On ch=1 n=c4 v=90
111840 Off ch=1 n=c4 v=80
111840 On ch=1 n=d4 v=90
112080 Off ch=1 n=d4 v=80
112080 On ch=1 n=d#4 v=90
112320 Off ch=1 n=d#4 v=80
112320 On ch=1 n=d4 v=90
112560 Off ch=1 n=d4 v=80
112560 On ch=1 n=d#4 v=90
112800 Off ch=1 n=f3 v=80
112800 Off ch=1 n=d#4 v=80
112800 On ch=1 n=d4 v=105
112800 On ch=1 n=f3 v=105
113040 Off ch=1 n=d4 v=80
113040 On ch=1 n=d#4 v=90
113280 Off ch=1 n=d#4 v=80
113280 On ch=1 n=e4 v=90
113520 Off ch=1 n=e4 v=80
113520 On ch=1 n=f4 v=90
113760 Off ch=1 n=f4 v=80
113760 On ch=1 n=e4 v=90
114000 Off ch=1 n=e4 v=80
114000 On ch=1 n=f4 v=90
114240 Off ch=1 n=f3 v=80
114240 Off ch=1 n=f4 v=80
114240 On ch=1 n=e4 v=84
114240 On ch=1 n=f3 v=84
114480 Off ch=1 n=e4 v=80
114480 On ch=1 n=f4 v=84
114720 Off ch=1 n=f4 v=80
114720 On ch=1 n=e4 v=78
114960 Off ch=1 n=e4 v=80
114960 On ch=1 n=f4 v=78
115200 Off ch=1 n=f3 v=80
115200 Off ch=1 n=f4 v=80
115200 On ch=1 n=e4 v=72
115200 On ch=1 n=f3 v=72
115440 Off ch=1 n=e4 v=80
115440 On ch=1 n=f4 v=72
115680 Off ch=1 n=f4 v=80
115680 On ch=1 n=e4 v=66
115920 Off ch=1 n=e4 v=80
115920 On ch=1 n=f4 v=66
116160 Off ch=1 n=f3 v=80
116160 Off ch=1 n=f4 v=80
116160 On ch=1 n=e4 v=60
116160 On ch=1 n=f3 v=60
116400 Off ch=1 n=e4 v=80
116400 On ch=1 n=f4 v=60
117600 Off ch=1 n=f3 v=80
117600 Off ch=1 n=f4 v=80
117600 On ch=1 n=a#3 v=53
117600 On ch=1 n=a#2 v=53
119040 Off ch=1 n=a#2 v=80
119040 Off ch=1 n=a#3 v=80
119040 On ch=1 n=g#3 v=53
119040 On ch=1 n=g#2 v=53
120480 Off ch=1 n=g#2 v=80
120480 Off ch=1 n=g#3 v=80
120480 On ch=1 n=f#3 v=53
120480 On ch=1 n=f#2 v=53
121920 Off ch=1 n=f#2 v=80
121920 Off ch=1 n=f#3 v=80
121920 On ch=1 n=f3 v=53
121920 On ch=1 n=f2 v=53
122400 Off ch=1 n=f2 v=80
122640 On ch=1 n=d#3 v=53
122880 Off ch=1 n=d#3 v=80
122880 On ch=1 n=d3 v=53
123120 Off ch=1 n=d3 v=80
123120 On ch=1 n=d#3 v=53
123360 Off ch=1 n=f3 v=80
123360 Off ch=1 n=d#3 v=80
123360 On ch=1 n=d#3 v=53
123360 On ch=1 n=f3 v=53
123600 Off ch=1 n=d#3 v=80
123600 On ch=1 n=d3 v=53
123840 Off ch=1 n=f3 v=80
123840 Off ch=1 n=d3 v=80
123840 On ch=1 n=f3 v=68
123840 On ch=1 n=c3 v=68
124080 Off ch=1 n=c3 v=80
124080 On ch=1 n=a#2 v=53
124320 Off ch=1 n=f3 v=80
124320 Off ch=1 n=a#2 v=80
124320 On ch=1 n=f3 v=68
124320 On ch=1 n=a2 v=68
124560 Off ch=1 n=a2 v=80
124560 On ch=1 n=a#2 v=53
124800 Off ch=1 n=f3 v=80
124800 Off ch=1 n=a#2 v=80
124800 On ch=1 n=f3 v=68
124800 On ch=1 n=c3 v=68
125040 Off ch=1 n=c3 v=80
125040 On ch=1 n=d3 v=53
125280 Off ch=1 n=f3 v=80
125280 Off ch=1 n=d3 v=80
125280 On ch=1 n=d#3 v=63
125280 On ch=1 n=f3 v=63
125520 Off ch=1 n=d#3 v=80
125520 On ch=1 n=d3 v=63
125760 Off ch=1 n=f3 v=80
125760 Off ch=1 n=d3 v=80
125760 On ch=1 n=c3 v=73
125760 On ch=1 n=g3 v=73
126000 Off ch=1 n=g3 v=80
126000 Off ch=1 n=c3 v=80
126000 On ch=1 n=a#3 v=73
126000 On ch=1 n=a#2 v=73
126240 Off ch=1 n=a#2 v=80
126240 Off ch=1 n=a#3 v=80
126240 On ch=1 n=d#3 v=83
126240 On ch=1 n=d#4 v=83
126480 Off ch=1 n=d#4 v=80
126480 Off ch=1 n=d#3 v=80
126480 On ch=1 n=d4 v=83
126480 On ch=1 n=d3 v=83
126720 Off ch=1 n=d3 v=80
126720 Off ch=1 n=d4 v=80
126720 On ch=1 n=g4 v=93
126720 On ch=1 n=g3 v=93
126960 Off ch=1 n=g3 v=80
126960 Off ch=1 n=g4 v=80
126960 On ch=1 n=f3 v=93
126960 On ch=1 n=f4 v=93
127200 Off ch=1 n=f4 v=80
127200 Off ch=1 n=f3 v=80
127200 On ch=1 n=a#3 v=103
127200 On ch=1 n=a#2 v=103
127440 Off ch=1 n=a#2 v=80
127440 Off ch=1 n=a#3 v=80
127440 On ch=1 n=d4 v=102
127440 On ch=1 n=d3 v=102
127560 Off ch=1 n=d3 v=80
127560 Off ch=1 n=d4 v=80
127680 On ch=1 n=d#4 v=102
127680 On ch=1 n=d#3 v=102
127800 Off ch=1 n=d#3 v=80
127800 Off ch=1 n=d#4 v=80
127920 On ch=1 n=c#4 v=102
127920 On ch=1 n=c#3 v=102
128040 Off ch=1 n=c#3 v=80
128040 Off ch=1 n=c#4 v=80
128160 On ch=1 n=d4 v=102
128160 On ch=1 n=d3 v=102
128400 Off ch=1 n=d3 v=80
128400 Off ch=1 n=d4 v=80
128400 On ch=1 n=f#5 v=102
128400 On ch=1 n=c6 v=102
128520 Off ch=1 n=c6 v=80
128520 Off ch=1 n=f#5 v=80
128640 On ch=1 n=g5 v=78
128640 On ch=1 n=a#5 v=78
128760 Off ch=1 n=a#5 v=80
128760 Off ch=1 n=g5 v=80
128880 On ch=1 n=a5 v=78
128880 On ch=1 n=c5 v=78
128880 On ch=1 n=g5 v=78
129000 Off ch=1 n=g5 v=80
129000 Off ch=1 n=c5 v=80
129000 Off ch=1 n=a5 v=80
129120 On ch=1 n=d5 v=102
129120 On ch=1 n=f#5 v=102
129120 On ch=1 n=a5 v=102
129240 Off ch=1 n=a5 v=80
129240 Off ch=1 n=f#5 v=80
129240 Off ch=1 n=d5 v=80
129360 On ch=1 n=d4 v=78
129360 On ch=1 n=d5 v=78
129480 Off ch=1 n=d5 v=80
129480 Off ch=1 n=d4 v=80
129600 On ch=1 n=g4 v=78
129600 On ch=1 n=g3 v=78
129780 Off ch=1 n=g3 v=80
129780 Off ch=1 n=g4 v=80
129840 On ch=1 n=a3 v=78
129840 On ch=1 n=a4 v=78
130020 Off ch=1 n=a4 v=80
130020 Off ch=1 n=a3 v=80
130080 On ch=1 n=d4 v=78
130080 On ch=1 n=d3 v=78
130260 Off ch=1 n=d3 v=80
130260 Off ch=1 n=d4 v=80
130320 On ch=1 n=a#3 v=102
130320 On ch=1 n=a#2 v=102
130440 Off ch=1 n=a#2 v=80
130440 Off ch=1 n=a#3 v=80
130560 On ch=1 n=c3 v=102
130560 On ch=1 n=c4 v=102
130680 Off ch=1 n=c4 v=80
130680 Off ch=1 n=c3 v=80
130800 On ch=1 n=a3 v=102
130800 On ch=1 n=a2 v=102
130920 Off ch=1 n=a2 v=80
130920 Off ch=1 n=a3 v=80
131040 On ch=1 n=a#3 v=102
131040 On ch=1 n=a#2 v=102
131280 Off ch=1 n=a#2 v=80
131280 Off ch=1 n=a#3 v=80
131280 On ch=1 n=d5 v=102
131280 On ch=1 n=g#4 v=102
131280 On ch=1 n=a#4 v=102
131280 On ch=1 n=f5 v=102
131400 Off ch=1 n=f5 v=80
131400 Off ch=1 n=a#4 v=80
131400 Off ch=1 n=g#4 v=80
131400 Off ch=1 n=d5 v=80
131520 On ch=1 n=g4 v=78
131520 On ch=1 n=d#5 v=78
131640 Off ch=1 n=d#5 v=80
131640 Off ch=1 n=g4 v=80
131760 On ch=1 n=g#4 v=78
131760 On ch=1 n=d#5 v=78
131880 Off ch=1 n=d#5 v=80
131880 Off ch=1 n=g#4 v=80
132000 On ch=1 n=a#4 v=102
132000 On ch=1 n=d5 v=102
132120 Off ch=1 n=d5 v=80
132120 Off ch=1 n=a#4 v=80
132240 On ch=1 n=a#3 v=78
132240 On ch=1 n=a#4 v=78
132360 Off ch=1 n=a#4 v=80
132360 Off ch=1 n=a#3 v=80
132480 On ch=1 n=d#4 v=78
132480 On ch=1 n=d#3 v=78
132660 Off ch=1 n=d#3 v=80
132660 Off ch=1 n=d#4 v=80
132720 On ch=1 n=f3 v=78
132720 On ch=1 n=f4 v=78
132900 Off ch=1 n=f4 v=80
132900 Off ch=1 n=f3 v=80
132960 On ch=1 n=g3 v=78
132960 On ch=1 n=g4 v=78
133140 Off ch=1 n=g4 v=80
133140 Off ch=1 n=g3 v=80
133200 On ch=1 n=g2 v=102
133200 On ch=1 n=g3 v=102
133320 Off ch=1 n=g3 v=80
133320 Off ch=1 n=g2 v=80
133440 On ch=1 n=g#2 v=102
133440 On ch=1 n=g#3 v=102
133560 Off ch=1 n=g#3 v=80
133560 Off ch=1 n=g#2 v=80
133680 On ch=1 n=f#2 v=102
133680 On ch=1 n=f#3 v=102
133800 Off ch=1 n=f#3 v=80
133800 Off ch=1 n=f#2 v=80
133800 On ch=1 n=g2 v=102
133920 Off ch=1 n=g2 v=80
133920 On ch=1 n=g3 v=102
134400 On ch=1 n=f#4 v=102
134880 Off ch=1 n=f#4 v=80
134880 On ch=1 n=f4 v=102
135360 Off ch=1 n=g3 v=80
135360 Off ch=1 n=f4 v=80
135360 On ch=1 n=d#4 v=102
135360 On ch=1 n=g3 v=102
135840 Off ch=1 n=d#4 v=80
135840 On ch=1 n=d4 v=102
136320 Off ch=1 n=d4 v=80
136320 On ch=1 n=d#4 v=102
136800 Off ch=1 n=g3 v=80
136800 Off ch=1 n=d#4 v=80
136800 On ch=1 n=g3 v=102
136800 On ch=1 n=d4 v=102
137280 Off ch=1 n=d4 v=80
137280 On ch=1 n=g#4 v=117
137760 Off ch=1 n=g#4 v=80
137760 On ch=1 n=g4 v=102
138480 Off ch=1 n=g3 v=80
138480 Off ch=1 n=g4 v=80
138480 On ch=1 n=g#4 v=102
138480 On ch=1 n=g#3 v=102
138600 Off ch=1 n=g#3 v=80
138600 Off ch=1 n=g#4 v=80
138720 On ch=1 n=a4 v=102
138720 On ch=1 n=a3 v=102
138840 Off ch=1 n=a3 v=80
138840 Off ch=1 n=a4 v=80
138960 On ch=1 n=a2 v=102
138960 On ch=1 n=a3 v=102
139080 Off ch=1 n=a3 v=80
139080 Off ch=1 n=a2 v=80
139200 On ch=1 n=a#2 v=102
139200 On ch=1 n=a#3 v=102
139320 Off ch=1 n=a#3 v=80
139320 Off ch=1 n=a#2 v=80
139440 On ch=1 n=g#2 v=102
139440 On ch=1 n=g#3 v=102
139560 Off ch=1 n=g#3 v=80
139560 Off ch=1 n=g#2 v=80
139560 On ch=1 n=a2 v=102
139680 Off ch=1 n=a2 v=80
139680 On ch=1 n=a3 v=102
140160 On ch=1 n=g#4 v=102
140640 Off ch=1 n=g#4 v=80
140640 On ch=1 n=g4 v=102
141120 Off ch=1 n=a3 v=80
141120 Off ch=1 n=g4 v=80
141120 On ch=1 n=f4 v=102
141120 On ch=1 n=a3 v=102
141600 Off ch=1 n=f4 v=80
141600 On ch=1 n=e4 v=102
142080 Off ch=1 n=e4 v=80
142080 On ch=1 n=f4 v=102
142560 Off ch=1 n=a3 v=80
142560 Off ch=1 n=f4 v=80
142560 On ch=1 n=a3 v=102
142560 On ch=1 n=e4 v=102
143040 Off ch=1 n=e4 v=80
143040 On ch=1 n=a#4 v=117
143520 Off ch=1 n=a#4 v=80
143520 On ch=1 n=a4 v=102
144240 Off ch=1 n=a3 v=80
144240 Off ch=1 n=a4 v=80
144240 On ch=1 n=a#4 v=102
144240 On ch=1 n=a#3 v=102
144360 Off ch=1 n=a#3 v=80
144360 Off ch=1 n=a#4 v=80
144480 On ch=1 n=b4 v=102
144480 On ch=1 n=b3 v=102
144600 Off ch=1 n=b3 v=80
144600 Off ch=1 n=b4 v=80
144720 On ch=1 n=b3 v=102
144720 On ch=1 n=b2 v=102
144840 Off ch=1 n=b2 v=80
144840 Off ch=1 n=b3 v=80
144960 On ch=1 n=c#3 v=102
144960 On ch=1 n=c#4 v=102
145080 Off ch=1 n=c#4 v=80
145080 Off ch=1 n=c#3 v=80
145200 On ch=1 n=a#3 v=102
145200 On ch=1 n=a#2 v=102
145320 Off ch=1 n=a#2 v=80
145320 Off ch=1 n=a#3 v=80
145440 On ch=1 n=b3 v=102
145440 On ch=1 n=b2 v=102
145680 Off ch=1 n=b2 v=80
145680 Off ch=1 n=b3 v=80
145680 On ch=1 n=g5 v=117
145680 On ch=1 n=e5 v=117
145680 On ch=1 n=a#4 v=117
145800 Off ch=1 n=a#4 v=80
145800 Off ch=1 n=e5 v=80
145800 Off ch=1 n=g5 v=80
145920 On ch=1 n=b4 v=117
145920 On ch=1 n=d#5 v=117
145920 On ch=1 n=f#5 v=117
146040 Off ch=1 n=f#5 v=80
146040 Off ch=1 n=d#5 v=80
146040 Off ch=1 n=b4 v=80
146160 On ch=1 n=b3 v=102
146160 On ch=1 n=b2 v=102
146220 Off ch=1 n=b2 v=80
146220 Off ch=1 n=b3 v=80
146280 On ch=1 n=b2 v=102
146280 On ch=1 n=b3 v=102
146340 Off ch=1 n=b3 v=80
146340 Off ch=1 n=b2 v=80
146400 On ch=1 n=c#3 v=102
146400 On ch=1 n=c#4 v=102
146520 Off ch=1 n=c#4 v=80
146520 Off ch=1 n=c#3 v=80
146640 On ch=1 n=a#3 v=102
146640 On ch=1 n=a#2 v=102
146760 Off ch=1 n=a#2 v=80
146760 Off ch=1 n=a#3 v=80
146880 On ch=1 n=b3 v=102
146880 On ch=1 n=b2 v=102
147120 Off ch=1 n=b2 v=80
147120 Off ch=1 n=b3 v=80
147120 On ch=1 n=b4 v=127
147120 On ch=1 n=d5 v=127
147120 On ch=1 n=f5 v=127
147600 Off ch=1 n=f5 v=80
147600 Off ch=1 n=d5 v=80
147600 Off ch=1 n=b4 v=80
147600 On ch=1 n=a#3 v=102
147600 On ch=1 n=a#2 v=102
147660 Off ch=1 n=a#2 v=80
147660 Off ch=1 n=a#3 v=80
147720 On ch=1 n=a#2 v=102
147720 On ch=1 n=a#3 v=102
147780 Off ch=1 n=a#3 v=80
147780 Off ch=1 n=a#2 v=80
147840 On ch=1 n=c3 v=102
147840 On ch=1 n=c4 v=102
147960 Off ch=1 n=c4 v=80
147960 Off ch=1 n=c3 v=80
148080 On ch=1 n=a3 v=102
148080 On ch=1 n=a2 v=102
148200 Off ch=1 n=a2 v=80
148200 Off ch=1 n=a3 v=80
148320 On ch=1 n=a#3 v=102
148320 On ch=1 n=a#2 v=102
148560 Off ch=1 n=a#2 v=80
148560 Off ch=1 n=a#3 v=80
148560 On ch=1 n=g5 v=117
148560 On ch=1 n=d#5 v=117
148560 On ch=1 n=g4 v=117
148680 Off ch=1 n=g4 v=80
148680 Off ch=1 n=d#5 v=80
148680 Off ch=1 n=g5 v=80
148800 On ch=1 n=g#4 v=117
148800 On ch=1 n=d5 v=117
148800 On ch=1 n=f5 v=117
148920 Off ch=1 n=f5 v=80
148920 Off ch=1 n=d5 v=80
148920 Off ch=1 n=g#4 v=80
149040 On ch=1 n=a2 v=114
149040 On ch=1 n=a3 v=114
149160 Off ch=1 n=a3 v=80
149160 Off ch=1 n=a2 v=80
149280 On ch=1 n=a#3 v=90
149280 On ch=1 n=a#2 v=90
149400 Off ch=1 n=a#2 v=80
149400 Off ch=1 n=a#3 v=80
149520 On ch=1 n=g#3 v=90
149520 On ch=1 n=g#2 v=90
149640 Off ch=1 n=g#2 v=80
149640 Off ch=1 n=g#3 v=80
149760 On ch=1 n=a3 v=90
149760 On ch=1 n=a2 v=90
149970 Off ch=1 n=a2 v=80
149970 Off ch=1 n=a3 v=80
150000 On ch=1 n=c#5 v=102
150000 On ch=1 n=g5 v=102
150120 Off ch=1 n=g5 v=80
150120 Off ch=1 n=c#5 v=80
150240 On ch=1 n=d5 v=78
150240 On ch=1 n=f#5 v=78
150360 Off ch=1 n=f#5 v=80
150360 Off ch=1 n=d5 v=80
150480 On ch=1 n=e5 v=78
150480 On ch=1 n=d5 v=78
150480 On ch=1 n=g#4 v=78
150600 Off ch=1 n=g#4 v=80
150600 Off ch=1 n=d5 v=80
150600 Off ch=1 n=e5 v=80
150720 On ch=1 n=e5 v=78
150720 On ch=1 n=c#5 v=78
150720 On ch=1 n=a4 v=78
150840 Off ch=1 n=a4 v=80
150840 Off ch=1 n=c#5 v=80
150840 Off ch=1 n=e5 v=80
150960 On ch=1 n=a4 v=78
150960 On ch=1 n=a3 v=78
151080 Off ch=1 n=a3 v=80
151080 Off ch=1 n=a4 v=80
151200 On ch=1 n=d4 v=78
151200 On ch=1 n=d3 v=78
151440 Off ch=1 n=d3 v=80
151440 Off ch=1 n=d4 v=80
151440 On ch=1 n=d5 v=84
151440 On ch=1 n=a4 v=84
151440 On ch=1 n=f#4 v=84
151680 Off ch=1 n=f#4 v=80
151680 Off ch=1 n=a4 v=80
151680 Off ch=1 n=d5 v=80
151680 On ch=1 n=f#3 v=87
151920 Off ch=1 n=f#3 v=80
151920 On ch=1 n=f#4 v=90
151920 On ch=1 n=a#4 v=90
151920 On ch=1 n=e5 v=90
152160 Off ch=1 n=e5 v=80
152160 Off ch=1 n=a#4 v=80
152160 Off ch=1 n=f#4 v=80
152160 On ch=1 n=f#2 v=120
152400 Off ch=1 n=f#2 v=80
152400 On ch=1 n=e5 v=96
152400 On ch=1 n=a#4 v=96
152400 On ch=1 n=f#4 v=96
152640 Off ch=1 n=f#4 v=80
152640 Off ch=1 n=a#4 v=80
152640 Off ch=1 n=e5 v=80
152640 On ch=1 n=b3 v=102
152880 Off ch=1 n=b3 v=80
152880 On ch=1 n=f#4 v=102
152880 On ch=1 n=b4 v=102
152880 On ch=1 n=d5 v=102
153120 Off ch=1 n=d5 v=80
153120 Off ch=1 n=b4 v=80
153120 Off ch=1 n=f#4 v=80
153120 On ch=1 n=f4 v=120
153360 On ch=1 n=b4 v=102
153360 On ch=1 n=d5 v=102
153600 Off ch=1 n=d5 v=80
153600 Off ch=1 n=b4 v=80
153600 Off ch=1 n=f4 v=80
153600 On ch=1 n=e4 v=102
153840 On ch=1 n=d5 v=102
153840 On ch=1 n=e5 v=102
154080 Off ch=1 n=e5 v=80
154080 Off ch=1 n=d5 v=80
154080 Off ch=1 n=e4 v=80
154080 On ch=1 n=c#5 v=102
154080 On ch=1 n=a4 v=102
154200 Off ch=1 n=a4 v=80
154200 Off ch=1 n=c#5 v=80
154320 On ch=1 n=a3 v=114
154320 On ch=1 n=a2 v=114
154440 Off ch=1 n=a2 v=80
154440 Off ch=1 n=a3 v=80
154560 On ch=1 n=a#3 v=78
154560 On ch=1 n=a#2 v=78
154680 Off ch=1 n=a#2 v=80
154680 Off ch=1 n=a#3 v=80
154800 On ch=1 n=g#3 v=78
154800 On ch=1 n=g#2 v=78
154920 Off ch=1 n=g#2 v=80
154920 Off ch=1 n=g#3 v=80
155040 On ch=1 n=a2 v=78
155040 On ch=1 n=a3 v=78
155160 Off ch=1 n=a3 v=80
155160 Off ch=1 n=a2 v=80
155280 On ch=1 n=c#5 v=102
155280 On ch=1 n=g5 v=102
155400 Off ch=1 n=g5 v=80
155400 Off ch=1 n=c#5 v=80
155520 On ch=1 n=d5 v=78
155520 On ch=1 n=f#5 v=78
155640 Off ch=1 n=f#5 v=80
155640 Off ch=1 n=d5 v=80
155760 On ch=1 n=g4 v=78
155760 On ch=1 n=e5 v=78
155880 Off ch=1 n=e5 v=80
155880 Off ch=1 n=g4 v=80
156000 On ch=1 n=a4 v=102
156000 On ch=1 n=c#5 v=102
156120 Off ch=1 n=c#5 v=80
156120 Off ch=1 n=a4 v=80
156240 On ch=1 n=a3 v=78
156240 On ch=1 n=a4 v=78
156360 Off ch=1 n=a4 v=80
156360 Off ch=1 n=a3 v=80
156480 On ch=1 n=d4 v=78
156480 On ch=1 n=d3 v=78
156660 Off ch=1 n=d3 v=80
156660 Off ch=1 n=d4 v=80
156720 On ch=1 n=e3 v=78
156720 On ch=1 n=e4 v=78
156900 Off ch=1 n=e4 v=80
156900 Off ch=1 n=e3 v=80
156960 On ch=1 n=a3 v=78
156960 On ch=1 n=a2 v=78
157140 Off ch=1 n=a2 v=80
157140 Off ch=1 n=a3 v=80
157200 On ch=1 n=b3 v=78
157200 On ch=1 n=b2 v=78
157260 Off ch=1 n=b2 v=80
157260 Off ch=1 n=b3 v=80
157320 On ch=1 n=c#3 v=78
157320 On ch=1 n=c#4 v=78
157380 Off ch=1 n=c#4 v=80
157380 Off ch=1 n=c#3 v=80
157440 On ch=1 n=d4 v=78
157440 On ch=1 n=d3 v=78
157620 Off ch=1 n=d3 v=80
157620 Off ch=1 n=d4 v=80
157680 On ch=1 n=g#3 v=81
157680 On ch=1 n=g#2 v=81
157860 Off ch=1 n=g#2 v=80
157860 Off ch=1 n=g#3 v=80
157920 On ch=1 n=a3 v=84
157920 On ch=1 n=a2 v=84
158100 Off ch=1 n=a2 v=80
158100 Off ch=1 n=a3 v=80
158160 On ch=1 n=g3 v=87
158160 On ch=1 n=g2 v=87
158340 Off ch=1 n=g2 v=80
158340 Off ch=1 n=g3 v=80
158400 On ch=1 n=f#3 v=90
158400 On ch=1 n=f#2 v=90
158580 Off ch=1 n=f#2 v=80
158580 Off ch=1 n=f#3 v=80
158640 On ch=1 n=b4 v=93
158640 On ch=1 n=f#4 v=93
158880 Off ch=1 n=f#4 v=80
158880 Off ch=1 n=b4 v=80
158880 On ch=1 n=d#4 v=96
159120 Off ch=1 n=d#4 v=80
159120 On ch=1 n=f#4 v=99
159120 On ch=1 n=b4 v=99
159120 On ch=1 n=f#5 v=99
159360 Off ch=1 n=f#5 v=80
159360 Off ch=1 n=b4 v=80
159360 Off ch=1 n=f#4 v=80
159360 On ch=1 n=b3 v=101
159600 Off ch=1 n=b3 v=80
159600 On ch=1 n=f#4 v=101
159600 On ch=1 n=b4 v=101
159600 On ch=1 n=d#5 v=101
159840 Off ch=1 n=d#5 v=80
159840 Off ch=1 n=b4 v=80
159840 Off ch=1 n=f#4 v=80
159840 On ch=1 n=e4 v=102
160080 Off ch=1 n=e4 v=80
160080 On ch=1 n=g4 v=102
160080 On ch=1 n=b4 v=102
160080 On ch=1 n=e5 v=102
160320 Off ch=1 n=e5 v=80
160320 Off ch=1 n=b4 v=80
160320 Off ch=1 n=g4 v=80
160320 On ch=1 n=c4 v=117
160560 Off ch=1 n=c4 v=80
160560 On ch=1 n=g4 v=102
160560 On ch=1 n=c5 v=102
160560 On ch=1 n=e5 v=102
160800 Off ch=1 n=e5 v=80
160800 Off ch=1 n=c5 v=80
160800 Off ch=1 n=g4 v=80
160800 On ch=1 n=a3 v=117
161040 Off ch=1 n=a3 v=80
161040 On ch=1 n=g4 v=102
161040 On ch=1 n=c5 v=102
161040 On ch=1 n=e5 v=102
161280 Off ch=1 n=e5 v=80
161280 Off ch=1 n=c5 v=80
161280 Off ch=1 n=g4 v=80
161280 On ch=1 n=d5 v=102
161280 On ch=1 n=d4 v=102
161490 Off ch=1 n=d4 v=80
161490 Off ch=1 n=d5 v=80
161520 On ch=1 n=d3 v=114
161520 On ch=1 n=d4 v=114
161640 Off ch=1 n=d4 v=80
161640 Off ch=1 n=d3 v=80
161760 On ch=1 n=d#4 v=78
161760 On ch=1 n=d#3 v=78
161880 Off ch=1 n=d#3 v=80
161880 Off ch=1 n=d#4 v=80
162000 On ch=1 n=c#4 v=78
162000 On ch=1 n=c#3 v=78
162120 Off ch=1 n=c#3 v=80
162120 Off ch=1 n=c#4 v=80
162240 On ch=1 n=d3 v=78
162240 On ch=1 n=d4 v=78
162360 Off ch=1 n=d4 v=80
162360 Off ch=1 n=d3 v=80
162480 On ch=1 n=c6 v=102
162480 On ch=1 n=a5 v=102
162480 On ch=1 n=f#5 v=102
162600 Off ch=1 n=f#5 v=80
162600 Off ch=1 n=a5 v=80
162600 Off ch=1 n=c6 v=80
162720 On ch=1 n=b5 v=78
162720 On ch=1 n=g5 v=78
162840 Off ch=1 n=g5 v=80
162840 Off ch=1 n=b5 v=80
162960 On ch=1 n=a5 v=78
162960 On ch=1 n=g5 v=78
162960 On ch=1 n=c5 v=78
163080 Off ch=1 n=c5 v=80
163080 Off ch=1 n=g5 v=80
163080 Off ch=1 n=a5 v=80
163200 On ch=1 n=a5 v=102
163200 On ch=1 n=f#5 v=102
163200 On ch=1 n=d5 v=78
163320 Off ch=1 n=d5 v=80
163320 Off ch=1 n=f#5 v=80
163320 Off ch=1 n=a5 v=80
163440 On ch=1 n=d5 v=78
163440 On ch=1 n=d4 v=78
163560 Off ch=1 n=d4 v=80
163560 Off ch=1 n=d5 v=80
163680 On ch=1 n=g4 v=78
163680 On ch=1 n=g3 v=78
163860 Off ch=1 n=g3 v=80
163860 Off ch=1 n=g4 v=80
163920 On ch=1 n=a3 v=78
163920 On ch=1 n=a4 v=78
164100 Off ch=1 n=a4 v=80
164100 Off ch=1 n=a3 v=80
164160 On ch=1 n=d4 v=78
164160 On ch=1 n=d3 v=78
164340 Off ch=1 n=d3 v=80
164340 Off ch=1 n=d4 v=80
164400 On ch=1 n=e4 v=78
164400 On ch=1 n=e3 v=78
164460 Off ch=1 n=e3 v=80
164460 Off ch=1 n=e4 v=80
164520 On ch=1 n=f#3 v=78
164520 On ch=1 n=f#4 v=78
164580 Off ch=1 n=f#4 v=80
164580 Off ch=1 n=f#3 v=80
164640 On ch=1 n=g4 v=78
164640 On ch=1 n=g3 v=78
164820 Off ch=1 n=g3 v=80
164820 Off ch=1 n=g4 v=80
164880 On ch=1 n=d#4 v=81
164880 On ch=1 n=d#3 v=81
165060 Off ch=1 n=d#3 v=80
165060 Off ch=1 n=d#4 v=80
165120 On ch=1 n=e4 v=84
165120 On ch=1 n=e3 v=84
165300 Off ch=1 n=e3 v=80
165300 Off ch=1 n=e4 v=80
165360 On ch=1 n=d4 v=87
165360 On ch=1 n=d3 v=87
165540 Off ch=1 n=d3 v=80
165540 Off ch=1 n=d4 v=80
165600 On ch=1 n=c#3 v=98
165600 On ch=1 n=c#4 v=98
165780 Off ch=1 n=c#4 v=80
165780 Off ch=1 n=c#3 v=80
165840 On ch=1 n=b2 v=106
165840 On ch=1 n=b3 v=106
166020 Off ch=1 n=b3 v=80
166020 Off ch=1 n=b2 v=80
166080 On ch=1 n=a2 v=114
166080 On ch=1 n=a3 v=114
166260 Off ch=1 n=a3 v=80
166260 Off ch=1 n=a2 v=80
166560 On ch=1 n=d3 v=114
166560 On ch=1 n=d2 v=114
166800 Off ch=1 n=d2 v=80
166800 Off ch=1 n=d3 v=80
167280 On ch=1 n=a4 v=53
167280 On ch=1 n=c#4 v=53
167640 Off ch=1 n=c#4 v=80
167640 Off ch=1 n=a4 v=80
167760 On ch=1 n=c#4 v=53
167760 On ch=1 n=a4 v=53
168120 Off ch=1 n=a4 v=80
168120 Off ch=1 n=c#4 v=80
168240 On ch=1 n=a4 v=53
168240 On ch=1 n=c#4 v=53
168420 Off ch=1 n=c#4 v=80
168420 Off ch=1 n=a4 v=80
168720 On ch=1 n=a4 v=53
168720 On ch=1 n=d4 v=53
168900 Off ch=1 n=d4 v=80
168900 Off ch=1 n=a4 v=80
168960 On ch=1 n=d4 v=53
168960 On ch=1 n=a4 v=53
169140 Off ch=1 n=a4 v=80
169140 Off ch=1 n=d4 v=80
169200 On ch=1 n=a4 v=53
169200 On ch=1 n=d4 v=53
169380 Off ch=1 n=d4 v=80
169380 Off ch=1 n=a4 v=80
169680 On ch=1 n=g#4 v=53
169680 On ch=1 n=b3 v=53
169920 Off ch=1 n=b3 v=80
169920 Off ch=1 n=g#4 v=80
170160 On ch=1 n=c#4 v=47
170160 On ch=1 n=a4 v=47
170640 Off ch=1 n=a4 v=80
170640 Off ch=1 n=c#4 v=80
170640 On ch=1 n=a4 v=47
170640 On ch=1 n=c#4 v=47
171120 Off ch=1 n=c#4 v=80
171120 Off ch=1 n=a4 v=80
171120 On ch=1 n=a4 v=47
171120 On ch=1 n=c#4 v=47
171360 Off ch=1 n=c#4 v=80
171360 Off ch=1 n=a4 v=80
171600 On ch=1 n=a4 v=53
171600 On ch=1 n=d4 v=53
171840 Off ch=1 n=d4 v=80
171840 Off ch=1 n=a4 v=80
171840 On ch=1 n=a4 v=53
171840 On ch=1 n=d4 v=53
172080 Off ch=1 n=d4 v=80
172080 Off ch=1 n=a4 v=80
172080 On ch=1 n=a4 v=53
172080 On ch=1 n=d4 v=53
172320 Off ch=1 n=d4 v=80
172320 Off ch=1 n=a4 v=80
172560 On ch=1 n=g#4 v=53
172560 On ch=1 n=b3 v=53
172800 Off ch=1 n=b3 v=80
172800 Off ch=1 n=g#4 v=80
173040 On ch=1 n=a4 v=47
173040 On ch=1 n=c#4 v=47
173280 Off ch=1 n=c#4 v=80
173280 Off ch=1 n=a4 v=80
173280 On ch=1 n=a4 v=47
173280 On ch=1 n=c#4 v=47
173520 Off ch=1 n=c#4 v=80
173520 Off ch=1 n=a4 v=80
173520 On ch=1 n=a4 v=47
173520 On ch=1 n=c#4 v=47
173760 Off ch=1 n=c#4 v=80
173760 Off ch=1 n=a4 v=80
174000 On ch=1 n=a4 v=47
174000 On ch=1 n=c#4 v=47
174240 Off ch=1 n=c#4 v=80
174240 Off ch=1 n=a4 v=80
174480 On ch=1 n=a4 v=53
174480 On ch=1 n=d4 v=53
174960 Off ch=1 n=d4 v=80
174960 Off ch=1 n=a4 v=80
174960 On ch=1 n=a4 v=53
174960 On ch=1 n=d4 v=53
175440 Off ch=1 n=d4 v=80
175440 Off ch=1 n=a4 v=80
175440 On ch=1 n=g#3 v=53
175440 On ch=1 n=e4 v=53
175680 Off ch=1 n=e4 v=80
175680 Off ch=1 n=g#3 v=80
175920 On ch=1 n=a3 v=47
175920 On ch=1 n=g4 v=47
176160 Off ch=1 n=g4 v=80
176160 Off ch=1 n=a3 v=80
176160 On ch=1 n=a3 v=47
176160 On ch=1 n=g4 v=47
176400 Off ch=1 n=g4 v=80
176400 Off ch=1 n=a3 v=80
176400 On ch=1 n=a3 v=47
176400 On ch=1 n=g4 v=47
176640 Off ch=1 n=g4 v=80
176640 Off ch=1 n=a3 v=80
176880 On ch=1 n=a3 v=47
176880 On ch=1 n=g4 v=47
177120 Off ch=1 n=g4 v=80
177120 Off ch=1 n=a3 v=80
177360 On ch=1 n=d4 v=47
177360 On ch=1 n=f#4 v=47
177840 Off ch=1 n=f#4 v=80
177840 Off ch=1 n=d4 v=80
177840 On ch=1 n=d4 v=44
177840 On ch=1 n=f#4 v=44
178320 Off ch=1 n=f#4 v=80
178320 Off ch=1 n=d4 v=80
178320 On ch=1 n=f#4 v=41
178320 On ch=1 n=d4 v=41
178560 Off ch=1 n=d4 v=80
178560 Off ch=1 n=f#4 v=80
178800 On ch=1 n=c5 v=53
178800 On ch=1 n=f#4 v=53
179160 Off ch=1 n=f#4 v=80
179160 Off ch=1 n=c5 v=80
179280 On ch=1 n=c5 v=53
179280 On ch=1 n=f#4 v=53
179640 Off ch=1 n=f#4 v=80
179640 Off ch=1 n=c5 v=80
179760 On ch=1 n=c5 v=53
179760 On ch=1 n=f#4 v=53
179940 Off ch=1 n=f#4 v=80
179940 Off ch=1 n=c5 v=80
180240 On ch=1 n=b4 v=53
180240 On ch=1 n=g4 v=53
180420 Off ch=1 n=g4 v=80
180420 Off ch=1 n=b4 v=80
180480 On ch=1 n=b4 v=53
180480 On ch=1 n=g4 v=53
180660 Off ch=1 n=g4 v=80
180660 Off ch=1 n=b4 v=80
180720 On ch=1 n=b4 v=53
180720 On ch=1 n=g4 v=53
180900 Off ch=1 n=g4 v=80
180900 Off ch=1 n=b4 v=80
181200 On ch=1 n=a#4 v=53
181200 On ch=1 n=g4 v=53
181440 Off ch=1 n=g4 v=80
181440 Off ch=1 n=a#4 v=80
181680 On ch=1 n=f#4 v=53
181680 On ch=1 n=c5 v=53
182040 Off ch=1 n=c5 v=80
182040 Off ch=1 n=f#4 v=80
182160 On ch=1 n=c5 v=53
182160 On ch=1 n=f#4 v=53
182520 Off ch=1 n=f#4 v=80
182520 Off ch=1 n=c5 v=80
182640 On ch=1 n=c5 v=53
182640 On ch=1 n=f#4 v=53
182820 Off ch=1 n=f#4 v=80
182820 Off ch=1 n=c5 v=80
183120 On ch=1 n=b4 v=53
183120 On ch=1 n=g4 v=53
183360 Off ch=1 n=g4 v=80
183360 Off ch=1 n=b4 v=80
183360 On ch=1 n=g4 v=53
183360 On ch=1 n=b4 v=53
183600 Off ch=1 n=b4 v=80
183600 Off ch=1 n=g4 v=80
183600 On ch=1 n=b4 v=53
183600 On ch=1 n=g4 v=53
183840 Off ch=1 n=g4 v=80
183840 Off ch=1 n=b4 v=80
184080 On ch=1 n=g4 v=53
184080 On ch=1 n=a#4 v=53
184080 On ch=1 n=c#5 v=53
184320 Off ch=1 n=c#5 v=80
184320 Off ch=1 n=a#4 v=80
184320 Off ch=1 n=g4 v=80
184560 On ch=1 n=f#4 v=47
184560 On ch=1 n=c5 v=47
184800 Off ch=1 n=c5 v=80
184800 Off ch=1 n=f#4 v=80
184800 On ch=1 n=f#4 v=47
184800 On ch=1 n=c5 v=47
185040 Off ch=1 n=c5 v=80
185040 Off ch=1 n=f#4 v=80
185040 On ch=1 n=f#4 v=47
185040 On ch=1 n=c5 v=47
185280 Off ch=1 n=c5 v=80
185280 Off ch=1 n=f#4 v=80
185520 On ch=1 n=f#4 v=47
185520 On ch=1 n=c5 v=47
185760 Off ch=1 n=c5 v=80
185760 Off ch=1 n=f#4 v=80
186000 On ch=1 n=b4 v=47
186000 On ch=1 n=g4 v=47
186480 Off ch=1 n=g4 v=80
186480 Off ch=1 n=b4 v=80
186480 On ch=1 n=b4 v=47
186480 On ch=1 n=g4 v=47
186960 Off ch=1 n=g4 v=80
186960 Off ch=1 n=b4 v=80
186960 On ch=1 n=c#5 v=47
186960 On ch=1 n=a#4 v=47
186960 On ch=1 n=g4 v=47
187200 Off ch=1 n=g4 v=80
187200 Off ch=1 n=a#4 v=80
187200 Off ch=1 n=c#5 v=80
187200 On ch=1 n=d5 v=59
187440 On ch=1 n=b4 v=47
187440 On ch=1 n=d4 v=47
187920 Off ch=1 n=d4 v=80
187920 Off ch=1 n=b4 v=80
187920 On ch=1 n=b4 v=47
187920 On ch=1 n=d4 v=47
188400 Off ch=1 n=d4 v=80
188400 Off ch=1 n=b4 v=80
188400 On ch=1 n=b4 v=47
188400 On ch=1 n=d4 v=47
188640 Off ch=1 n=d4 v=80
188640 Off ch=1 n=d5 v=80
188640 Off ch=1 n=b4 v=80
188640 On ch=1 n=a#4 v=59
188880 On ch=1 n=d5 v=47
188880 On ch=1 n=d4 v=47
189360 Off ch=1 n=d4 v=80
189360 Off ch=1 n=d5 v=80
189360 On ch=1 n=d4 v=47
189360 On ch=1 n=d5 v=47
189840 Off ch=1 n=d5 v=80
189840 Off ch=1 n=d4 v=80
189840 On ch=1 n=d4 v=47
189840 On ch=1 n=d5 v=47
190080 Off ch=1 n=d5 v=80
190080 Off ch=1 n=a#4 v=80
190080 Off ch=1 n=d4 v=80
190080 On ch=1 n=a4 v=65
190320 On ch=1 n=c#4 v=53
190800 Off ch=1 n=c#4 v=80
190800 On ch=1 n=c#4 v=53
191280 Off ch=1 n=c#4 v=80
191280 On ch=1 n=c#4 v=53
191520 Off ch=1 n=a4 v=80
191520 Off ch=1 n=c#4 v=80
191520 On ch=1 n=a4 v=65
191760 On ch=1 n=d4 v=53
192240 Off ch=1 n=d4 v=80
192240 On ch=1 n=d4 v=53
192480 Off ch=1 n=a4 v=80
192480 On ch=1 n=g#4 v=65
192720 Off ch=1 n=d4 v=80
192720 On ch=1 n=b3 v=53
192960 Off ch=1 n=g#4 v=80
192960 Off ch=1 n=b3 v=80
192960 On ch=1 n=g4 v=65
193200 On ch=1 n=c#4 v=53
193680 Off ch=1 n=c#4 v=80
193680 On ch=1 n=c#4 v=53
194160 Off ch=1 n=c#4 v=80
194160 On ch=1 n=c#4 v=53
194400 Off ch=1 n=g4 v=80
194400 Off ch=1 n=c#4 v=80
194400 On ch=1 n=f#4 v=65
194640 On ch=1 n=d4 v=53
195120 Off ch=1 n=d4 v=80
195120 On ch=1 n=d4 v=53
195360 Off ch=1 n=f#4 v=80
195360 On ch=1 n=f4 v=65
195600 Off ch=1 n=d4 v=80
195600 On ch=1 n=g#3 v=53
195840 Off ch=1 n=f4 v=80
195840 Off ch=1 n=g#3 v=80
195840 On ch=1 n=e4 v=65
196080 On ch=1 n=a3 v=53
196560 Off ch=1 n=a3 v=80
196560 On ch=1 n=a3 v=53
196800 Off ch=1 n=e4 v=80
197040 Off ch=1 n=a3 v=80
197040 On ch=1 n=c#4 v=53
197040 On ch=1 n=a4 v=53
197280 Off ch=1 n=c#4 v=80
197520 On ch=1 n=d4 v=53
197760 Off ch=1 n=d4 v=80
197760 On ch=1 n=d4 v=53
198000 Off ch=1 n=d4 v=80
198000 On ch=1 n=d4 v=53
198240 Off ch=1 n=a4 v=80
198240 Off ch=1 n=d4 v=80
198240 On ch=1 n=e4 v=65
198480 On ch=1 n=g#3 v=53
198660 Off ch=1 n=g#3 v=80
198720 Off ch=1 n=e4 v=80
198960 On ch=1 n=g4 v=65
198960 On ch=1 n=a3 v=65
199440 Off ch=1 n=a3 v=80
199440 Off ch=1 n=g4 v=80
199440 On ch=1 n=g4 v=62
199440 On ch=1 n=a3 v=62
199920 Off ch=1 n=a3 v=80
199920 Off ch=1 n=g4 v=80
199920 On ch=1 n=g4 v=59
199920 On ch=1 n=a3 v=59
200400 Off ch=1 n=a3 v=80
200400 Off ch=1 n=g4 v=80
200400 On ch=1 n=f4 v=56
200400 On ch=1 n=a3 v=56
200640 Off ch=1 n=a3 v=80
200640 Off ch=1 n=f4 v=80
200640 On ch=1 n=f4 v=53
200640 On ch=1 n=a3 v=53
200880 Off ch=1 n=a3 v=80
200880 Off ch=1 n=f4 v=80
200880 On ch=1 n=f3 v=65
200940 Off ch=1 n=f3 v=80
201000 On ch=1 n=f3 v=65
201060 Off ch=1 n=f3 v=80
201120 On ch=1 n=g3 v=65
201240 Off ch=1 n=g3 v=80
201360 On ch=1 n=e3 v=65
201480 Off ch=1 n=e3 v=80
201600 On ch=1 n=f3 v=65
202080 On ch=1 n=e4 v=65
202560 Off ch=1 n=e4 v=80
202560 On ch=1 n=d#4 v=65
203040 Off ch=1 n=f3 v=80
203040 Off ch=1 n=d#4 v=80
203040 On ch=1 n=d4 v=65
203040 On ch=1 n=f3 v=65
203520 Off ch=1 n=d4 v=80
203520 On ch=1 n=c4 v=65
204000 Off ch=1 n=c4 v=80
204000 On ch=1 n=d4 v=65
204480 Off ch=1 n=f3 v=80
204480 Off ch=1 n=d4 v=80
204480 On ch=1 n=f3 v=65
204480 On ch=1 n=c4 v=65
204960 Off ch=1 n=c4 v=80
204960 On ch=1 n=g4 v=65
205440 Off ch=1 n=g4 v=80
205440 On ch=1 n=f4 v=65
206160 Off ch=1 n=f3 v=80
206160 Off ch=1 n=f4 v=80
206160 On ch=1 n=a#3 v=65
206280 Off ch=1 n=a#3 v=80
206400 On ch=1 n=d#4 v=65
206400 On ch=1 n=d#3 v=65
206520 Off ch=1 n=d#3 v=80
206520 Off ch=1 n=d#4 v=80
206640 On ch=1 n=c3 v=65
206700 Off ch=1 n=c3 v=80
206760 On ch=1 n=c3 v=65
206820 Off ch=1 n=c3 v=80
206880 On ch=1 n=c#3 v=65
207000 Off ch=1 n=c#3 v=80
207120 On ch=1 n=b2 v=65
207240 Off ch=1 n=b2 v=80
207360 On ch=1 n=c3 v=65
207840 On ch=1 n=b3 v=65
208320 Off ch=1 n=b3 v=80
208320 On ch=1 n=a#3 v=65
208800 Off ch=1 n=c3 v=80
208800 Off ch=1 n=a#3 v=80
208800 On ch=1 n=a3 v=65
208800 On ch=1 n=c3 v=65
209280 Off ch=1 n=a3 v=80
209280 On ch=1 n=g3 v=65
209760 Off ch=1 n=g3 v=80
209760 On ch=1 n=a3 v=65
210240 Off ch=1 n=c3 v=80
210240 Off ch=1 n=a3 v=80
210240 On ch=1 n=c3 v=65
210240 On ch=1 n=g3 v=65
210720 Off ch=1 n=g3 v=80
210720 On ch=1 n=d4 v=65
211200 Off ch=1 n=d4 v=80
211200 On ch=1 n=c4 v=65
211920 Off ch=1 n=c3 v=80
211920 Off ch=1 n=c4 v=80
211920 On ch=1 n=f3 v=65
212040 Off ch=1 n=f3 v=80
212160 On ch=1 n=a#3 v=65
212160 On ch=1 n=a#2 v=65
212280 Off ch=1 n=a#2 v=80
212280 Off ch=1 n=a#3 v=80
212400 On ch=1 n=f#2 v=65
212460 Off ch=1 n=f#2 v=80
212520 On ch=1 n=f#2 v=65
212580 Off ch=1 n=f#2 v=80
212640 On ch=1 n=g#2 v=65
212760 Off ch=1 n=g#2 v=80
212880 On ch=1 n=f2 v=65
213000 Off ch=1 n=f2 v=80
213120 On ch=1 n=f#2 v=65
213300 Off ch=1 n=f#2 v=80
213360 On ch=1 n=f#3 v=65
213420 Off ch=1 n=f#3 v=80
213480 On ch=1 n=f#3 v=65
213540 Off ch=1 n=f#3 v=80
213600 On ch=1 n=g#3 v=65
213720 Off ch=1 n=g#3 v=80
213840 On ch=1 n=f3 v=65
213960 Off ch=1 n=f3 v=80
214080 On ch=1 n=f#3 v=80
214800 Off ch=1 n=f#3 v=80
214800 On ch=1 n=e3 v=65
214980 Off ch=1 n=e3 v=80
215040 On ch=1 n=d3 v=65
215220 Off ch=1 n=d3 v=80
215280 On ch=1 n=g2 v=65
215340 Off ch=1 n=g2 v=80
215400 On ch=1 n=g2 v=65
215460 Off ch=1 n=g2 v=80
215520 On ch=1 n=g#2 v=65
215640 Off ch=1 n=g#2 v=80
215760 On ch=1 n=f#2 v=65
215880 Off ch=1 n=f#2 v=80
216000 On ch=1 n=g2 v=65
216180 Off ch=1 n=g2 v=80
216240 On ch=1 n=g3 v=65
216300 Off ch=1 n=g3 v=80
216360 On ch=1 n=g3 v=65
216420 Off ch=1 n=g3 v=80
216480 On ch=1 n=a3 v=65
216600 Off ch=1 n=a3 v=80
216720 On ch=1 n=f#3 v=65
216840 Off ch=1 n=f#3 v=80
216960 On ch=1 n=g3 v=80
217680 Off ch=1 n=g3 v=80
217680 On ch=1 n=f3 v=65
217860 Off ch=1 n=f3 v=80
217920 On ch=1 n=e3 v=65
218100 Off ch=1 n=e3 v=80
218160 On ch=1 n=a2 v=65
218220 Off ch=1 n=a2 v=80
218280 On ch=1 n=a2 v=65
218340 Off ch=1 n=a2 v=80
218400 On ch=1 n=a#2 v=65
218520 Off ch=1 n=a#2 v=80
218640 On ch=1 n=g#2 v=65
218760 Off ch=1 n=g#2 v=80
218880 On ch=1 n=a2 v=65
219000 Off ch=1 n=a2 v=80
219000 On ch=1 n=b2 v=65
219120 Off ch=1 n=b2 v=80
219120 On ch=1 n=a2 v=65
219240 Off ch=1 n=a2 v=80
219240 On ch=1 n=b2 v=65
219360 Off ch=1 n=b2 v=80
219360 On ch=1 n=a2 v=65
219480 Off ch=1 n=a2 v=80
219480 On ch=1 n=b2 v=65
219600 Off ch=1 n=b2 v=80
219600 On ch=1 n=a2 v=65
219720 Off ch=1 n=a2 v=80
219720 On ch=1 n=b2 v=65
219840 Off ch=1 n=b2 v=80
219840 On ch=1 n=a2 v=65
219960 Off ch=1 n=a2 v=80
219960 On ch=1 n=b2 v=65
220080 Off ch=1 n=b2 v=80
220080 On ch=1 n=a2 v=65
220200 Off ch=1 n=a2 v=80
220200 On ch=1 n=b2 v=65
220320 Off ch=1 n=b2 v=80
220320 On ch=1 n=a2 v=65
220440 On ch=1 n=b2 v=65
220560 Off ch=1 n=a2 v=80
220560 On ch=1 n=a2 v=65
220680 Off ch=1 n=b2 v=80
220680 On ch=1 n=b2 v=65
220800 Off ch=1 n=a2 v=80
220800 On ch=1 n=a2 v=65
220920 Off ch=1 n=b2 v=80
220920 On ch=1 n=b2 v=65
221040 Off ch=1 n=a2 v=80
221040 On ch=1 n=a2 v=65
221160 Off ch=1 n=b2 v=80
221160 On ch=1 n=b2 v=65
221280 Off ch=1 n=a2 v=80
221280 On ch=1 n=a2 v=65
221400 Off ch=1 n=b2 v=80
221400 On ch=1 n=b2 v=65
221520 Off ch=1 n=a2 v=80
221520 On ch=1 n=a2 v=65
221640 Off ch=1 n=b2 v=80
221640 On ch=1 n=b2 v=65
221760 Off ch=1 n=a2 v=80
221760 On ch=1 n=a2 v=72
221880 Off ch=1 n=b2 v=80
221880 On ch=1 n=b2 v=72
222000 Off ch=1 n=a2 v=80
222000 On ch=1 n=a2 v=72
222120 Off ch=1 n=b2 v=80
222120 On ch=1 n=b2 v=72
222240 Off ch=1 n=a2 v=80
222240 On ch=1 n=a2 v=72
222360 Off ch=1 n=b2 v=80
222360 On ch=1 n=b2 v=72
222480 Off ch=1 n=a2 v=80
222480 On ch=1 n=a2 v=72
222600 Off ch=1 n=b2 v=80
222600 On ch=1 n=b2 v=72
222720 Off ch=1 n=a2 v=80
222720 On ch=1 n=a2 v=72
222840 Off ch=1 n=b2 v=80
222840 On ch=1 n=b2 v=72
222960 Off ch=1 n=a2 v=80
222960 On ch=1 n=a2 v=72
223080 Off ch=1 n=b2 v=80
223080 On ch=1 n=b2 v=72
223200 Off ch=1 n=a2 v=80
223200 On ch=1 n=a2 v=79
223320 Off ch=1 n=b2 v=80
223320 On ch=1 n=b2 v=79
223440 Off ch=1 n=a2 v=80
223440 On ch=1 n=a2 v=79
223560 Off ch=1 n=b2 v=80
223560 On ch=1 n=b2 v=79
223680 Off ch=1 n=a2 v=80
223680 On ch=1 n=a2 v=79
223800 Off ch=1 n=b2 v=80
223800 On ch=1 n=b2 v=79
223920 Off ch=1 n=a2 v=80
223920 On ch=1 n=a2 v=79
224040 Off ch=1 n=b2 v=80
224040 On ch=1 n=b2 v=79
224160 Off ch=1 n=a2 v=80
224160 On ch=1 n=a2 v=79
224280 Off ch=1 n=b2 v=80
224280 On ch=1 n=b2 v=79
224400 Off ch=1 n=a2 v=80
224400 On ch=1 n=a2 v=79
224520 Off ch=1 n=b2 v=80
224520 On ch=1 n=b2 v=79
224640 Off ch=1 n=a2 v=80
224640 On ch=1 n=a2 v=86
224760 Off ch=1 n=b2 v=80
224760 On ch=1 n=b2 v=86
224880 Off ch=1 n=a2 v=80
224880 On ch=1 n=a2 v=86
225000 Off ch=1 n=b2 v=80
225000 On ch=1 n=b2 v=86
225120 Off ch=1 n=a2 v=80
225120 On ch=1 n=a2 v=86
225240 Off ch=1 n=b2 v=80
225240 On ch=1 n=b2 v=86
225360 Off ch=1 n=a2 v=80
225360 On ch=1 n=a2 v=86
225480 Off ch=1 n=b2 v=80
225480 On ch=1 n=b2 v=86
225600 Off ch=1 n=a2 v=80
225600 On ch=1 n=a2 v=86
225720 Off ch=1 n=b2 v=80
225720 On ch=1 n=b2 v=86
225840 Off ch=1 n=a2 v=80
225840 On ch=1 n=a2 v=86
225960 Off ch=1 n=b2 v=80
225960 On ch=1 n=b2 v=86
226080 Off ch=1 n=a2 v=80
226080 On ch=1 n=a2 v=93
226200 Off ch=1 n=b2 v=80
226200 On ch=1 n=b2 v=93
226320 Off ch=1 n=a2 v=80
226320 On ch=1 n=a2 v=93
226440 Off ch=1 n=b2 v=80
226440 On ch=1 n=b2 v=93
226560 Off ch=1 n=a2 v=80
226560 On ch=1 n=a2 v=93
226680 Off ch=1 n=b2 v=80
226680 On ch=1 n=b2 v=93
226800 Off ch=1 n=a2 v=80
226800 On ch=1 n=a2 v=93
226920 Off ch=1 n=b2 v=80
226920 On ch=1 n=b2 v=93
227040 Off ch=1 n=a2 v=80
227040 On ch=1 n=a2 v=93
227160 Off ch=1 n=b2 v=80
227160 On ch=1 n=b2 v=93
227280 Off ch=1 n=a2 v=80
227280 On ch=1 n=a2 v=93
227400 Off ch=1 n=b2 v=80
227400 On ch=1 n=b2 v=93
227520 Off ch=1 n=a2 v=80
227520 On ch=1 n=a2 v=100
227640 Off ch=1 n=b2 v=80
227640 On ch=1 n=a3 v=100
227760 Off ch=1 n=a2 v=80
227760 On ch=1 n=a2 v=100
227880 Off ch=1 n=a3 v=80
227880 On ch=1 n=a3 v=100
228000 Off ch=1 n=a2 v=80
228000 On ch=1 n=a2 v=100
228120 Off ch=1 n=a3 v=80
228120 On ch=1 n=a3 v=100
228240 Off ch=1 n=a2 v=80
228240 On ch=1 n=a2 v=100
228360 Off ch=1 n=a3 v=80
228360 On ch=1 n=a3 v=100
228480 Off ch=1 n=a2 v=80
228480 On ch=1 n=a2 v=107
228600 Off ch=1 n=a3 v=80
228600 On ch=1 n=a3 v=107
228720 Off ch=1 n=a2 v=80
228720 On ch=1 n=a2 v=107
228840 Off ch=1 n=a3 v=80
228840 On ch=1 n=a3 v=107
228960 Off ch=1 n=a2 v=80
228960 Off ch=1 n=a3 v=80
228960 On ch=1 n=a2 v=107
229080 Off ch=1 n=a2 v=80
229080 On ch=1 n=a3 v=107
229200 Off ch=1 n=a3 v=80
229200 On ch=1 n=a2 v=107
229320 Off ch=1 n=a2 v=80
229320 On ch=1 n=a3 v=107
229440 Off ch=1 n=a3 v=80
229440 On ch=1 n=a2 v=127
229680 Off ch=1 n=a2 v=80
229680 On ch=1 n=a2 v=114
229680 On ch=1 n=a3 v=114
229800 Off ch=1 n=a3 v=80
229800 Off ch=1 n=a2 v=80
229920 On ch=1 n=a#3 v=90
229920 On ch=1 n=a#2 v=90
230040 Off ch=1 n=a#2 v=80
230040 Off ch=1 n=a#3 v=80
230160 On ch=1 n=g#3 v=90
230160 On ch=1 n=g#2 v=90
230280 Off ch=1 n=g#2 v=80
230280 Off ch=1 n=g#3 v=80
230400 On ch=1 n=a3 v=90
230400 On ch=1 n=a2 v=90
230610 Off ch=1 n=a2 v=80
230610 Off ch=1 n=a3 v=80
230640 On ch=1 n=c#5 v=102
230640 On ch=1 n=g5 v=102
230760 Off ch=1 n=g5 v=80
230760 Off ch=1 n=c#5 v=80
230880 On ch=1 n=d5 v=78
230880 On ch=1 n=f#5 v=78
231000 Off ch=1 n=f#5 v=80
231000 Off ch=1 n=d5 v=80
231120 On ch=1 n=e5 v=78
231120 On ch=1 n=d5 v=78
231120 On ch=1 n=g#4 v=78
231240 Off ch=1 n=g#4 v=80
231240 Off ch=1 n=d5 v=80
231240 Off ch=1 n=e5 v=80
231360 On ch=1 n=e5 v=78
231360 On ch=1 n=c#5 v=78
231360 On ch=1 n=a4 v=78
231480 Off ch=1 n=a4 v=80
231480 Off ch=1 n=c#5 v=80
231480 Off ch=1 n=e5 v=80
231600 On ch=1 n=a4 v=78
231600 On ch=1 n=a3 v=78
231720 Off ch=1 n=a3 v=80
231720 Off ch=1 n=a4 v=80
231840 On ch=1 n=d4 v=78
231840 On ch=1 n=d3 v=78
232080 Off ch=1 n=d3 v=80
232080 Off ch=1 n=d4 v=80
232080 On ch=1 n=d5 v=84
232080 On ch=1 n=a4 v=84
232080 On ch=1 n=f#4 v=84
232320 Off ch=1 n=f#4 v=80
232320 Off ch=1 n=a4 v=80
232320 Off ch=1 n=d5 v=80
232320 On ch=1 n=f#3 v=87
232560 Off ch=1 n=f#3 v=80
232560 On ch=1 n=f#4 v=90
232560 On ch=1 n=a#4 v=90
232560 On ch=1 n=e5 v=90
232800 Off ch=1 n=e5 v=80
232800 Off ch=1 n=a#4 v=80
232800 Off ch=1 n=f#4 v=80
232800 On ch=1 n=f#2 v=120
233040 Off ch=1 n=f#2 v=80
233040 On ch=1 n=e5 v=96
233040 On ch=1 n=a#4 v=96
233040 On ch=1 n=f#4 v=96
233280 Off ch=1 n=f#4 v=80
233280 Off ch=1 n=a#4 v=80
233280 Off ch=1 n=e5 v=80
233280 On ch=1 n=b3 v=102
233520 Off ch=1 n=b3 v=80
233520 On ch=1 n=f#4 v=102
233520 On ch=1 n=b4 v=102
233520 On ch=1 n=d5 v=102
233760 Off ch=1 n=d5 v=80
233760 Off ch=1 n=b4 v=80
233760 Off ch=1 n=f#4 v=80
233760 On ch=1 n=f4 v=120
234000 On ch=1 n=b4 v=102
234000 On ch=1 n=d5 v=102
234240 Off ch=1 n=d5 v=80
234240 Off ch=1 n=b4 v=80
234240 Off ch=1 n=f4 v=80
234240 On ch=1 n=e4 v=102
234480 On ch=1 n=d5 v=102
234480 On ch=1 n=e5 v=102
234720 Off ch=1 n=e5 v=80
234720 Off ch=1 n=d5 v=80
234720 Off ch=1 n=e4 v=80
234720 On ch=1 n=c#5 v=102
234720 On ch=1 n=a4 v=102
234840 Off ch=1 n=a4 v=80
234840 Off ch=1 n=c#5 v=80
234960 On ch=1 n=a3 v=114
234960 On ch=1 n=a2 v=114
235080 Off ch=1 n=a2 v=80
235080 Off ch=1 n=a3 v=80
235200 On ch=1 n=a#3 v=78
235200 On ch=1 n=a#2 v=78
235320 Off ch=1 n=a#2 v=80
235320 Off ch=1 n=a#3 v=80
235440 On ch=1 n=g#3 v=78
235440 On ch=1 n=g#2 v=78
235560 Off ch=1 n=g#2 v=80
235560 Off ch=1 n=g#3 v=80
235680 On ch=1 n=a2 v=78
235680 On ch=1 n=a3 v=78
235800 Off ch=1 n=a3 v=80
235800 Off ch=1 n=a2 v=80
235920 On ch=1 n=c#5 v=102
235920 On ch=1 n=g5 v=102
236040 Off ch=1 n=g5 v=80
236040 Off ch=1 n=c#5 v=80
236160 On ch=1 n=d5 v=78
236160 On ch=1 n=f#5 v=78
236280 Off ch=1 n=f#5 v=80
236280 Off ch=1 n=d5 v=80
236400 On ch=1 n=g4 v=78
236400 On ch=1 n=e5 v=78
236520 Off ch=1 n=e5 v=80
236520 Off ch=1 n=g4 v=80
236640 On ch=1 n=a4 v=102
236640 On ch=1 n=c#5 v=102
236760 Off ch=1 n=c#5 v=80
236760 Off ch=1 n=a4 v=80
236880 On ch=1 n=a3 v=78
236880 On ch=1 n=a4 v=78
237000 Off ch=1 n=a4 v=80
237000 Off ch=1 n=a3 v=80
237120 On ch=1 n=d4 v=78
237120 On ch=1 n=d3 v=78
237300 Off ch=1 n=d3 v=80
237300 Off ch=1 n=d4 v=80
237360 On ch=1 n=e3 v=78
237360 On ch=1 n=e4 v=78
237540 Off ch=1 n=e4 v=80
237540 Off ch=1 n=e3 v=80
237600 On ch=1 n=a3 v=78
237600 On ch=1 n=a2 v=78
237780 Off ch=1 n=a2 v=80
237780 Off ch=1 n=a3 v=80
237840 On ch=1 n=b3 v=78
237840 On ch=1 n=b2 v=78
237900 Off ch=1 n=b2 v=80
237900 Off ch=1 n=b3 v=80
237960 On ch=1 n=c#3 v=78
237960 On ch=1 n=c#4 v=78
238020 Off ch=1 n=c#4 v=80
238020 Off ch=1 n=c#3 v=80
238080 On ch=1 n=d4 v=78
238080 On ch=1 n=d3 v=78
238260 Off ch=1 n=d3 v=80
238260 Off ch=1 n=d4 v=80
238320 On ch=1 n=g#3 v=81
238320 On ch=1 n=g#2 v=81
238500 Off ch=1 n=g#2 v=80
238500 Off ch=1 n=g#3 v=80
238560 On ch=1 n=a3 v=84
238560 On ch=1 n=a2 v=84
238740 Off ch=1 n=a2 v=80
238740 Off ch=1 n=a3 v=80
238800 On ch=1 n=g3 v=87
238800 On ch=1 n=g2 v=87
238980 Off ch=1 n=g2 v=80
238980 Off ch=1 n=g3 v=80
239040 On ch=1 n=f#3 v=90
239040 On ch=1 n=f#2 v=90
239220 Off ch=1 n=f#2 v=80
239220 Off ch=1 n=f#3 v=80
239280 On ch=1 n=b4 v=93
239280 On ch=1 n=f#4 v=93
239520 Off ch=1 n=f#4 v=80
239520 Off ch=1 n=b4 v=80
239520 On ch=1 n=d#4 v=96
239760 Off ch=1 n=d#4 v=80
239760 On ch=1 n=f#4 v=99
239760 On ch=1 n=b4 v=99
239760 On ch=1 n=f#5 v=99
240000 Off ch=1 n=f#5 v=80
240000 Off ch=1 n=b4 v=80
240000 Off ch=1 n=f#4 v=80
240000 On ch=1 n=b3 v=101
240240 Off ch=1 n=b3 v=80
240240 On ch=1 n=f#4 v=101
240240 On ch=1 n=b4 v=101
240240 On ch=1 n=d#5 v=101
240480 Off ch=1 n=d#5 v=80
240480 Off ch=1 n=b4 v=80
240480 Off ch=1 n=f#4 v=80
240480 On ch=1 n=e4 v=102
240720 Off ch=1 n=e4 v=80
240720 On ch=1 n=g4 v=102
240720 On ch=1 n=b4 v=102
240720 On ch=1 n=e5 v=102
240960 Off ch=1 n=e5 v=80
240960 Off ch=1 n=b4 v=80
240960 Off ch=1 n=g4 v=80
240960 On ch=1 n=c4 v=117
241200 Off ch=1 n=c4 v=80
241200 On ch=1 n=g4 v=102
241200 On ch=1 n=c5 v=102
241200 On ch=1 n=e5 v=102
241440 Off ch=1 n=e5 v=80
241440 Off ch=1 n=c5 v=80
241440 Off ch=1 n=g4 v=80
241440 On ch=1 n=a3 v=117
241680 Off ch=1 n=a3 v=80
241680 On ch=1 n=g4 v=102
241680 On ch=1 n=c5 v=102
241680 On ch=1 n=e5 v=102
241920 Off ch=1 n=e5 v=80
241920 Off ch=1 n=c5 v=80
241920 Off ch=1 n=g4 v=80
241920 On ch=1 n=d5 v=102
241920 On ch=1 n=d4 v=102
242130 Off ch=1 n=d4 v=80
242130 Off ch=1 n=d5 v=80
242160 On ch=1 n=d3 v=114
242160 On ch=1 n=d4 v=114
242280 Off ch=1 n=d4 v=80
242280 Off ch=1 n=d3 v=80
242400 On ch=1 n=d#4 v=78
242400 On ch=1 n=d#3 v=78
242520 Off ch=1 n=d#3 v=80
242520 Off ch=1 n=d#4 v=80
242640 On ch=1 n=c#4 v=78
242640 On ch=1 n=c#3 v=78
242760 Off ch=1 n=c#3 v=80
242760 Off ch=1 n=c#4 v=80
242880 On ch=1 n=d3 v=78
242880 On ch=1 n=d4 v=78
243000 Off ch=1 n=d4 v=80
243000 Off ch=1 n=d3 v=80
243120 On ch=1 n=c6 v=102
243120 On ch=1 n=a5 v=102
243120 On ch=1 n=f#5 v=102
243240 Off ch=1 n=f#5 v=80
243240 Off ch=1 n=a5 v=80
243240 Off ch=1 n=c6 v=80
243360 On ch=1 n=b5 v=78
243360 On ch=1 n=g5 v=78
243480 Off ch=1 n=g5 v=80
243480 Off ch=1 n=b5 v=80
243600 On ch=1 n=a5 v=78
243600 On ch=1 n=g5 v=78
243600 On ch=1 n=c5 v=78
243720 Off ch=1 n=c5 v=80
243720 Off ch=1 n=g5 v=80
243720 Off ch=1 n=a5 v=80
243840 On ch=1 n=a5 v=102
243840 On ch=1 n=f#5 v=102
243840 On ch=1 n=d5 v=78
243960 Off ch=1 n=d5 v=80
243960 Off ch=1 n=f#5 v=80
243960 Off ch=1 n=a5 v=80
244080 On ch=1 n=d5 v=78
244080 On ch=1 n=d4 v=78
244200 Off ch=1 n=d4 v=80
244200 Off ch=1 n=d5 v=80
244320 On ch=1 n=g4 v=78
244320 On ch=1 n=g3 v=78
244500 Off ch=1 n=g3 v=80
244500 Off ch=1 n=g4 v=80
244560 On ch=1 n=a3 v=78
244560 On ch=1 n=a4 v=78
244740 Off ch=1 n=a4 v=80
244740 Off ch=1 n=a3 v=80
244800 On ch=1 n=d4 v=78
244800 On ch=1 n=d3 v=78
244980 Off ch=1 n=d3 v=80
244980 Off ch=1 n=d4 v=80
245040 On ch=1 n=e4 v=78
245040 On ch=1 n=e3 v=78
245100 Off ch=1 n=e3 v=80
245100 Off ch=1 n=e4 v=80
245160 On ch=1 n=f#3 v=78
245160 On ch=1 n=f#4 v=78
245220 Off ch=1 n=f#4 v=80
245220 Off ch=1 n=f#3 v=80
245280 On ch=1 n=g4 v=78
245280 On ch=1 n=g3 v=78
245460 Off ch=1 n=g3 v=80
245460 Off ch=1 n=g4 v=80
245520 On ch=1 n=d#4 v=81
245520 On ch=1 n=d#3 v=81
245700 Off ch=1 n=d#3 v=80
245700 Off ch=1 n=d#4 v=80
245760 On ch=1 n=e4 v=84
245760 On ch=1 n=e3 v=84
245940 Off ch=1 n=e3 v=80
245940 Off ch=1 n=e4 v=80
246000 On ch=1 n=d4 v=87
246000 On ch=1 n=d3 v=87
246180 Off ch=1 n=d3 v=80
246180 Off ch=1 n=d4 v=80
246240 On ch=1 n=c#3 v=98
246240 On ch=1 n=c#4 v=98
246420 Off ch=1 n=c#4 v=80
246420 Off ch=1 n=c#3 v=80
246480 On ch=1 n=b2 v=106
246480 On ch=1 n=b3 v=106
246660 Off ch=1 n=b3 v=80
246660 Off ch=1 n=b2 v=80
246720 On ch=1 n=a2 v=114
246720 On ch=1 n=a3 v=114
246900 Off ch=1 n=a3 v=80
246900 Off ch=1 n=a2 v=80
247200 On ch=1 n=d3 v=114
247200 On ch=1 n=d2 v=114
247440 Off ch=1 n=d2 v=80
247440 Off ch=1 n=d3 v=80
247680 On ch=1 n=d4 v=117
247680 On ch=1 n=g3 v=117
247920 Off ch=1 n=g3 v=80
247920 Off ch=1 n=d4 v=80
247920 On ch=1 n=d4 v=102
247920 On ch=1 n=g3 v=102
248040 Off ch=1 n=g3 v=80
248040 Off ch=1 n=d4 v=80
248040 On ch=1 n=d4 v=102
248040 On ch=1 n=g3 v=102
248160 Off ch=1 n=g3 v=80
248160 Off ch=1 n=d4 v=80
248160 On ch=1 n=d4 v=117
248160 On ch=1 n=d3 v=117
248400 Off ch=1 n=d3 v=80
248400 Off ch=1 n=d4 v=80
248400 On ch=1 n=d4 v=102
248400 On ch=1 n=d3 v=102
248520 Off ch=1 n=d3 v=80
248520 Off ch=1 n=d4 v=80
248520 On ch=1 n=d4 v=102
248520 On ch=1 n=d3 v=102
248640 Off ch=1 n=d3 v=80
248640 Off ch=1 n=d4 v=80
248640 On ch=1 n=d4 v=117
248640 On ch=1 n=c4 v=117
248880 Off ch=1 n=c4 v=80
248880 Off ch=1 n=d4 v=80
248880 On ch=1 n=d4 v=102
248880 On ch=1 n=c4 v=102
249000 Off ch=1 n=c4 v=80
249000 Off ch=1 n=d4 v=80
249000 On ch=1 n=d4 v=102
249000 On ch=1 n=c4 v=102
249120 Off ch=1 n=c4 v=80
249120 Off ch=1 n=d4 v=80
249120 On ch=1 n=d4 v=117
249120 On ch=1 n=a#3 v=117
249360 Off ch=1 n=a#3 v=80
249360 Off ch=1 n=d4 v=80
249360 On ch=1 n=d4 v=102
249360 On ch=1 n=a#3 v=102
249480 Off ch=1 n=a#3 v=80
249480 Off ch=1 n=d4 v=80
249480 On ch=1 n=d4 v=102
249480 On ch=1 n=a#3 v=102
249600 Off ch=1 n=a#3 v=80
249600 Off ch=1 n=d4 v=80
249600 On ch=1 n=d4 v=117
249600 On ch=1 n=f#3 v=117
249840 Off ch=1 n=f#3 v=80
249840 Off ch=1 n=d4 v=80
249840 On ch=1 n=d4 v=102
249840 On ch=1 n=f#3 v=102
249960 Off ch=1 n=f#3 v=80
249960 Off ch=1 n=d4 v=80
249960 On ch=1 n=d4 v=102
249960 On ch=1 n=f#3 v=102
250080 Off ch=1 n=f#3 v=80
250080 Off ch=1 n=d4 v=80
250080 On ch=1 n=g3 v=117
250080 On ch=1 n=d4 v=117
250320 Off ch=1 n=d4 v=80
250320 Off ch=1 n=g3 v=80
250320 On ch=1 n=d4 v=102
250320 On ch=1 n=g3 v=102
250440 Off ch=1 n=g3 v=80
250440 Off ch=1 n=d4 v=80
250440 On ch=1 n=d4 v=102
250440 On ch=1 n=g3 v=102
250560 Off ch=1 n=g3 v=80
250560 Off ch=1 n=d4 v=80
250560 On ch=1 n=g3 v=117
250560 On ch=1 n=d4 v=117
250800 Off ch=1 n=d4 v=80
250800 Off ch=1 n=g3 v=80
250800 On ch=1 n=d4 v=102
250800 On ch=1 n=g3 v=102
250920 Off ch=1 n=g3 v=80
250920 Off ch=1 n=d4 v=80
250920 On ch=1 n=d4 v=102
250920 On ch=1 n=g3 v=102
251040 Off ch=1 n=g3 v=80
251040 Off ch=1 n=d4 v=80
251040 On ch=1 n=d4 v=117
251040 On ch=1 n=c3 v=117
251280 Off ch=1 n=c3 v=80
251280 Off ch=1 n=d4 v=80
251280 On ch=1 n=d4 v=102
251280 On ch=1 n=c3 v=102
251400 Off ch=1 n=c3 v=80
251400 Off ch=1 n=d4 v=80
251400 On ch=1 n=d4 v=102
251400 On ch=1 n=c3 v=102
251520 Off ch=1 n=c3 v=80
251520 Off ch=1 n=d4 v=80
251520 On ch=1 n=c4 v=117
251520 On ch=1 n=e4 v=117
251760 Off ch=1 n=e4 v=80
251760 Off ch=1 n=c4 v=80
251760 On ch=1 n=c4 v=102
251760 On ch=1 n=e4 v=102
251880 Off ch=1 n=e4 v=80
251880 Off ch=1 n=c4 v=80
251880 On ch=1 n=c4 v=102
251880 On ch=1 n=e4 v=102
252000 Off ch=1 n=e4 v=80
252000 Off ch=1 n=c4 v=80
252000 On ch=1 n=f4 v=117
252000 On ch=1 n=f3 v=117
252240 Off ch=1 n=f3 v=80
252240 Off ch=1 n=f4 v=80
252240 On ch=1 n=f4 v=102
252240 On ch=1 n=f3 v=102
252360 Off ch=1 n=f3 v=80
252360 Off ch=1 n=f4 v=80
252360 On ch=1 n=f4 v=102
252360 On ch=1 n=f3 v=102
252480 Off ch=1 n=f3 v=80
252480 Off ch=1 n=f4 v=80
252480 On ch=1 n=f4 v=117
252480 On ch=1 n=a#3 v=117
252720 Off ch=1 n=a#3 v=80
252720 Off ch=1 n=f4 v=80
252720 On ch=1 n=f4 v=102
252720 On ch=1 n=a#3 v=102
252840 Off ch=1 n=a#3 v=80
252840 Off ch=1 n=f4 v=80
252840 On ch=1 n=f4 v=102
252840 On ch=1 n=a#3 v=102
252960 Off ch=1 n=a#3 v=80
252960 Off ch=1 n=f4 v=80
252960 On ch=1 n=f4 v=117
252960 On ch=1 n=a3 v=117
253200 Off ch=1 n=a3 v=80
253200 Off ch=1 n=f4 v=80
253200 On ch=1 n=d4 v=127
253200 On ch=1 n=d3 v=127
253320 Off ch=1 n=d3 v=80
253320 Off ch=1 n=d4 v=80
253440 On ch=1 n=g3 v=117
253440 On ch=1 n=d4 v=117
253680 Off ch=1 n=d4 v=80
253680 Off ch=1 n=g3 v=80
253680 On ch=1 n=d4 v=102
253680 On ch=1 n=g3 v=102
253800 Off ch=1 n=g3 v=80
253800 Off ch=1 n=d4 v=80
253800 On ch=1 n=d4 v=102
253800 On ch=1 n=g3 v=102
253920 Off ch=1 n=g3 v=80
253920 Off ch=1 n=d4 v=80
253920 On ch=1 n=d4 v=117
253920 On ch=1 n=d3 v=117
254160 Off ch=1 n=d3 v=80
254160 Off ch=1 n=d4 v=80
254160 On ch=1 n=d4 v=102
254160 On ch=1 n=d3 v=102
254280 Off ch=1 n=d3 v=80
254280 Off ch=1 n=d4 v=80
254280 On ch=1 n=d4 v=102
254280 On ch=1 n=d3 v=102
254400 Off ch=1 n=d3 v=80
254400 Off ch=1 n=d4 v=80
254400 On ch=1 n=d4 v=117
254400 On ch=1 n=c4 v=117
254640 Off ch=1 n=c4 v=80
254640 Off ch=1 n=d4 v=80
254640 On ch=1 n=d4 v=102
254640 On ch=1 n=c4 v=102
254760 Off ch=1 n=c4 v=80
254760 Off ch=1 n=d4 v=80
254760 On ch=1 n=d4 v=102
254760 On ch=1 n=c4 v=102
254880 Off ch=1 n=c4 v=80
254880 Off ch=1 n=d4 v=80
254880 On ch=1 n=d4 v=117
254880 On ch=1 n=a#3 v=117
255120 Off ch=1 n=a#3 v=80
255120 Off ch=1 n=d4 v=80
255120 On ch=1 n=d4 v=102
255120 On ch=1 n=a#3 v=102
255240 Off ch=1 n=a#3 v=80
255240 Off ch=1 n=d4 v=80
255240 On ch=1 n=d4 v=102
255240 On ch=1 n=a#3 v=102
255360 Off ch=1 n=a#3 v=80
255360 Off ch=1 n=d4 v=80
255360 On ch=1 n=d4 v=117
255360 On ch=1 n=f#3 v=117
255600 Off ch=1 n=f#3 v=80
255600 Off ch=1 n=d4 v=80
255600 On ch=1 n=d4 v=102
255600 On ch=1 n=f#3 v=102
255720 Off ch=1 n=f#3 v=80
255720 Off ch=1 n=d4 v=80
255720 On ch=1 n=d4 v=102
255720 On ch=1 n=f#3 v=102
255840 Off ch=1 n=f#3 v=80
255840 Off ch=1 n=d4 v=80
255840 On ch=1 n=g3 v=117
255840 On ch=1 n=d4 v=117
256080 Off ch=1 n=d4 v=80
256080 Off ch=1 n=g3 v=80
256080 On ch=1 n=d4 v=102
256080 On ch=1 n=g3 v=102
256200 Off ch=1 n=g3 v=80
256200 Off ch=1 n=d4 v=80
256200 On ch=1 n=d4 v=102
256200 On ch=1 n=g3 v=102
256320 Off ch=1 n=g3 v=80
256320 Off ch=1 n=d4 v=80
256320 On ch=1 n=g3 v=117
256320 On ch=1 n=d#4 v=117
256560 Off ch=1 n=d#4 v=80
256560 Off ch=1 n=g3 v=80
256560 On ch=1 n=g3 v=102
256560 On ch=1 n=d#4 v=102
256680 Off ch=1 n=d#4 v=80
256680 Off ch=1 n=g3 v=80
256680 On ch=1 n=g3 v=102
256680 On ch=1 n=d#4 v=102
256800 Off ch=1 n=d#4 v=80
256800 Off ch=1 n=g3 v=80
256800 On ch=1 n=d#4 v=127
256800 On ch=1 n=f3 v=127
257040 Off ch=1 n=f3 v=80
257040 Off ch=1 n=d#4 v=80
257040 On ch=1 n=d#4 v=102
257040 On ch=1 n=f3 v=102
257160 Off ch=1 n=f3 v=80
257160 Off ch=1 n=d#4 v=80
257160 On ch=1 n=d#4 v=102
257160 On ch=1 n=f3 v=102
257280 Off ch=1 n=f3 v=80
257280 Off ch=1 n=d#4 v=80
257280 On ch=1 n=a#3 v=117
257280 On ch=1 n=f4 v=117
257520 Off ch=1 n=f4 v=80
257520 Off ch=1 n=a#3 v=80
257520 On ch=1 n=a#3 v=102
257520 On ch=1 n=f4 v=102
257640 Off ch=1 n=f4 v=80
257640 Off ch=1 n=a#3 v=80
257640 On ch=1 n=a#3 v=102
257640 On ch=1 n=f4 v=102
257760 Off ch=1 n=f4 v=80
257760 Off ch=1 n=a#3 v=80
257760 On ch=1 n=d#4 v=117
257760 On ch=1 n=d#3 v=117
258000 Off ch=1 n=d#3 v=80
258000 Off ch=1 n=d#4 v=80
258000 On ch=1 n=d#4 v=102
258000 On ch=1 n=d#3 v=102
258120 Off ch=1 n=d#3 v=80
258120 Off ch=1 n=d#4 v=80
258120 On ch=1 n=d#4 v=102
258120 On ch=1 n=d#3 v=102
258240 Off ch=1 n=d#3 v=80
258240 Off ch=1 n=d#4 v=80
258240 On ch=1 n=d#4 v=117
258240 On ch=1 n=g#3 v=117
258480 Off ch=1 n=g#3 v=80
258480 Off ch=1 n=d#4 v=80
258480 On ch=1 n=d#4 v=102
258480 On ch=1 n=g#3 v=102
258600 Off ch=1 n=g#3 v=80
258600 Off ch=1 n=d#4 v=80
258600 On ch=1 n=d#4 v=102
258600 On ch=1 n=g#3 v=102
258720 Off ch=1 n=g#3 v=80
258720 Off ch=1 n=d#4 v=80
258720 On ch=1 n=g3 v=127
258720 On ch=1 n=d#4 v=127
258960 Off ch=1 n=d#4 v=80
258960 On ch=1 n=d4 v=102
259080 Off ch=1 n=d4 v=80
259200 Off ch=1 n=g3 v=80
259200 On ch=1 n=g3 v=117
259200 On ch=1 n=d4 v=117
259440 Off ch=1 n=d4 v=80
259440 Off ch=1 n=g3 v=80
259440 On ch=1 n=d4 v=102
259440 On ch=1 n=g3 v=102
259560 Off ch=1 n=g3 v=80
259560 Off ch=1 n=d4 v=80
259560 On ch=1 n=d4 v=102
259560 On ch=1 n=g3 v=102
259680 Off ch=1 n=g3 v=80
259680 Off ch=1 n=d4 v=80
259680 On ch=1 n=d4 v=117
259680 On ch=1 n=d3 v=117
259920 Off ch=1 n=d3 v=80
259920 Off ch=1 n=d4 v=80
259920 On ch=1 n=d4 v=102
259920 On ch=1 n=d3 v=102
260040 Off ch=1 n=d3 v=80
260040 Off ch=1 n=d4 v=80
260040 On ch=1 n=d4 v=102
260040 On ch=1 n=d3 v=102
260160 Off ch=1 n=d3 v=80
260160 Off ch=1 n=d4 v=80
260160 On ch=1 n=d4 v=117
260160 On ch=1 n=c4 v=117
260400 Off ch=1 n=c4 v=80
260400 Off ch=1 n=d4 v=80
260400 On ch=1 n=d4 v=102
260400 On ch=1 n=c4 v=102
260520 Off ch=1 n=c4 v=80
260520 Off ch=1 n=d4 v=80
260520 On ch=1 n=d4 v=102
260520 On ch=1 n=c4 v=102
260640 Off ch=1 n=c4 v=80
260640 Off ch=1 n=d4 v=80
260640 On ch=1 n=d4 v=117
260640 On ch=1 n=a#3 v=117
260880 Off ch=1 n=a#3 v=80
260880 Off ch=1 n=d4 v=80
260880 On ch=1 n=d4 v=102
260880 On ch=1 n=a#3 v=102
261000 Off ch=1 n=a#3 v=80
261000 Off ch=1 n=d4 v=80
261000 On ch=1 n=d4 v=102
261000 On ch=1 n=a#3 v=102
261120 Off ch=1 n=a#3 v=80
261120 Off ch=1 n=d4 v=80
261120 On ch=1 n=d4 v=117
261120 On ch=1 n=f#3 v=117
261360 Off ch=1 n=f#3 v=80
261360 Off ch=1 n=d4 v=80
261360 On ch=1 n=d4 v=102
261360 On ch=1 n=f#3 v=102
261480 Off ch=1 n=f#3 v=80
261480 Off ch=1 n=d4 v=80
261480 On ch=1 n=d4 v=102
261480 On ch=1 n=f#3 v=102
261600 Off ch=1 n=f#3 v=80
261600 Off ch=1 n=d4 v=80
261600 On ch=1 n=g3 v=117
261600 On ch=1 n=d4 v=117
261840 Off ch=1 n=d4 v=80
261840 Off ch=1 n=g3 v=80
261840 On ch=1 n=d4 v=102
261840 On ch=1 n=g3 v=102
261960 Off ch=1 n=g3 v=80
261960 Off ch=1 n=d4 v=80
261960 On ch=1 n=d4 v=102
261960 On ch=1 n=g3 v=102
262080 Off ch=1 n=g3 v=80
262080 Off ch=1 n=d4 v=80
262080 On ch=1 n=g3 v=117
262080 On ch=1 n=d4 v=117
262320 Off ch=1 n=d4 v=80
262320 Off ch=1 n=g3 v=80
262320 On ch=1 n=d4 v=102
262320 On ch=1 n=g3 v=102
262440 Off ch=1 n=g3 v=80
262440 Off ch=1 n=d4 v=80
262440 On ch=1 n=d4 v=102
262440 On ch=1 n=g3 v=102
262560 Off ch=1 n=g3 v=80
262560 Off ch=1 n=d4 v=80
262560 On ch=1 n=d4 v=117
262560 On ch=1 n=c3 v=117
262800 Off ch=1 n=c3 v=80
262800 Off ch=1 n=d4 v=80
262800 On ch=1 n=d4 v=102
262800 On ch=1 n=c3 v=102
262920 Off ch=1 n=c3 v=80
262920 Off ch=1 n=d4 v=80
262920 On ch=1 n=d4 v=102
262920 On ch=1 n=c3 v=102
263040 Off ch=1 n=c3 v=80
263040 Off ch=1 n=d4 v=80
263040 On ch=1 n=c4 v=117
263040 On ch=1 n=e4 v=117
263280 Off ch=1 n=e4 v=80
263280 Off ch=1 n=c4 v=80
263280 On ch=1 n=c4 v=102
263280 On ch=1 n=e4 v=102
263400 Off ch=1 n=e4 v=80
263400 Off ch=1 n=c4 v=80
263400 On ch=1 n=c4 v=102
263400 On ch=1 n=e4 v=102
263520 Off ch=1 n=e4 v=80
263520 Off ch=1 n=c4 v=80
263520 On ch=1 n=f4 v=117
263520 On ch=1 n=f3 v=117
263760 Off ch=1 n=f3 v=80
263760 Off ch=1 n=f4 v=80
263760 On ch=1 n=f4 v=102
263760 On ch=1 n=f3 v=102
263880 Off ch=1 n=f3 v=80
263880 Off ch=1 n=f4 v=80
263880 On ch=1 n=f4 v=102
263880 On ch=1 n=f3 v=102
264000 Off ch=1 n=f3 v=80
264000 Off ch=1 n=f4 v=80
264000 On ch=1 n=f4 v=117
264000 On ch=1 n=a#3 v=117
264240 Off ch=1 n=a#3 v=80
264240 Off ch=1 n=f4 v=80
264240 On ch=1 n=f4 v=102
264240 On ch=1 n=a#3 v=102
264360 Off ch=1 n=a#3 v=80
264360 Off ch=1 n=f4 v=80
264360 On ch=1 n=f4 v=102
264360 On ch=1 n=a#3 v=102
264480 Off ch=1 n=a#3 v=80
264480 Off ch=1 n=f4 v=80
264480 On ch=1 n=f4 v=117
264480 On ch=1 n=a3 v=117
264720 Off ch=1 n=a3 v=80
264720 Off ch=1 n=f4 v=80
264720 On ch=1 n=d4 v=127
264720 On ch=1 n=d3 v=127
264840 Off ch=1 n=d3 v=80
264840 Off ch=1 n=d4 v=80
264960 On ch=1 n=g3 v=117
264960 On ch=1 n=d4 v=117
265200 Off ch=1 n=d4 v=80
265200 Off ch=1 n=g3 v=80
265200 On ch=1 n=d4 v=102
265200 On ch=1 n=g3 v=102
265320 Off ch=1 n=g3 v=80
265320 Off ch=1 n=d4 v=80
265320 On ch=1 n=d4 v=102
265320 On ch=1 n=g3 v=102
265440 Off ch=1 n=g3 v=80
265440 Off ch=1 n=d4 v=80
265440 On ch=1 n=d4 v=117
265440 On ch=1 n=d3 v=117
265680 Off ch=1 n=d3 v=80
265680 Off ch=1 n=d4 v=80
265680 On ch=1 n=d4 v=102
265680 On ch=1 n=d3 v=102
265800 Off ch=1 n=d3 v=80
265800 Off ch=1 n=d4 v=80
265800 On ch=1 n=d4 v=102
265800 On ch=1 n=d3 v=102
265920 Off ch=1 n=d3 v=80
265920 Off ch=1 n=d4 v=80
265920 On ch=1 n=d4 v=117
265920 On ch=1 n=c4 v=117
266160 Off ch=1 n=c4 v=80
266160 Off ch=1 n=d4 v=80
266160 On ch=1 n=d4 v=102
266160 On ch=1 n=c4 v=102
266280 Off ch=1 n=c4 v=80
266280 Off ch=1 n=d4 v=80
266280 On ch=1 n=d4 v=102
266280 On ch=1 n=c4 v=102
266400 Off ch=1 n=c4 v=80
266400 Off ch=1 n=d4 v=80
266400 On ch=1 n=d4 v=117
266400 On ch=1 n=a#3 v=117
266640 Off ch=1 n=a#3 v=80
266640 Off ch=1 n=d4 v=80
266640 On ch=1 n=d4 v=102
266640 On ch=1 n=a#3 v=102
266760 Off ch=1 n=a#3 v=80
266760 Off ch=1 n=d4 v=80
266760 On ch=1 n=d4 v=102
266760 On ch=1 n=a#3 v=102
266880 Off ch=1 n=a#3 v=80
266880 Off ch=1 n=d4 v=80
266880 On ch=1 n=d4 v=117
266880 On ch=1 n=f#3 v=117
267120 Off ch=1 n=f#3 v=80
267120 Off ch=1 n=d4 v=80
267120 On ch=1 n=d4 v=102
267120 On ch=1 n=f#3 v=102
267240 Off ch=1 n=f#3 v=80
267240 Off ch=1 n=d4 v=80
267240 On ch=1 n=d4 v=102
267240 On ch=1 n=f#3 v=102
267360 Off ch=1 n=f#3 v=80
267360 Off ch=1 n=d4 v=80
267360 On ch=1 n=g3 v=117
267360 On ch=1 n=d4 v=117
267600 Off ch=1 n=d4 v=80
267600 Off ch=1 n=g3 v=80
267600 On ch=1 n=d4 v=102
267600 On ch=1 n=g3 v=102
267720 Off ch=1 n=g3 v=80
267720 Off ch=1 n=d4 v=80
267720 On ch=1 n=d4 v=102
267720 On ch=1 n=g3 v=102
267840 Off ch=1 n=g3 v=80
267840 Off ch=1 n=d4 v=80
267840 On ch=1 n=g3 v=117
267840 On ch=1 n=d#4 v=117
268080 Off ch=1 n=d#4 v=80
268080 Off ch=1 n=g3 v=80
268080 On ch=1 n=g3 v=102
268080 On ch=1 n=d#4 v=102
268200 Off ch=1 n=d#4 v=80
268200 Off ch=1 n=g3 v=80
268200 On ch=1 n=g3 v=102
268200 On ch=1 n=d#4 v=102
268320 Off ch=1 n=d#4 v=80
268320 Off ch=1 n=g3 v=80
268320 On ch=1 n=d#4 v=127
268320 On ch=1 n=f3 v=127
268560 Off ch=1 n=f3 v=80
268560 Off ch=1 n=d#4 v=80
268560 On ch=1 n=d#4 v=102
268560 On ch=1 n=f3 v=102
268680 Off ch=1 n=f3 v=80
268680 Off ch=1 n=d#4 v=80
268680 On ch=1 n=d#4 v=102
268680 On ch=1 n=f3 v=102
268800 Off ch=1 n=f3 v=80
268800 Off ch=1 n=d#4 v=80
268800 On ch=1 n=a#3 v=117
268800 On ch=1 n=f4 v=117
269040 Off ch=1 n=f4 v=80
269040 Off ch=1 n=a#3 v=80
269040 On ch=1 n=a#3 v=102
269040 On ch=1 n=f4 v=102
269160 Off ch=1 n=f4 v=80
269160 Off ch=1 n=a#3 v=80
269160 On ch=1 n=a#3 v=102
269160 On ch=1 n=f4 v=102
269280 Off ch=1 n=f4 v=80
269280 Off ch=1 n=a#3 v=80
269280 On ch=1 n=d#4 v=117
269280 On ch=1 n=d#3 v=117
269520 Off ch=1 n=d#3 v=80
269520 Off ch=1 n=d#4 v=80
269520 On ch=1 n=d#4 v=102
269520 On ch=1 n=d#3 v=102
269640 Off ch=1 n=d#3 v=80
269640 Off ch=1 n=d#4 v=80
269640 On ch=1 n=d#4 v=102
269640 On ch=1 n=d#3 v=102
269760 Off ch=1 n=d#3 v=80
269760 Off ch=1 n=d#4 v=80
269760 On ch=1 n=d#4 v=117
269760 On ch=1 n=g#3 v=117
270000 Off ch=1 n=g#3 v=80
270000 Off ch=1 n=d#4 v=80
270000 On ch=1 n=d#4 v=102
270000 On ch=1 n=g#3 v=102
270120 Off ch=1 n=g#3 v=80
270120 Off ch=1 n=d#4 v=80
270120 On ch=1 n=d#4 v=102
270120 On ch=1 n=g#3 v=102
270240 Off ch=1 n=g#3 v=80
270240 Off ch=1 n=d#4 v=80
270240 On ch=1 n=d#3 v=127
270240 On ch=1 n=d#4 v=127
270720 Off ch=1 n=d#4 v=80
270720 Off ch=1 n=d#3 v=80
270720 On ch=1 n=c3 v=65
270720 On ch=1 n=c4 v=65
270960 Off ch=1 n=c3 v=80
270960 On ch=1 n=c3 v=65
271080 Off ch=1 n=c3 v=80
271080 On ch=1 n=c3 v=65
271200 Off ch=1 n=c3 v=80
271200 On ch=1 n=c3 v=69
271440 Off ch=1 n=c3 v=80
271440 On ch=1 n=c3 v=69
271560 Off ch=1 n=c3 v=80
271560 On ch=1 n=c3 v=69
271680 Off ch=1 n=c4 v=80
271680 Off ch=1 n=c3 v=80
271680 On ch=1 n=e3 v=73
271680 On ch=1 n=c3 v=73
271920 Off ch=1 n=c3 v=80
271920 On ch=1 n=c3 v=73
272040 Off ch=1 n=c3 v=80
272040 On ch=1 n=c3 v=73
272160 Off ch=1 n=e3 v=80
272160 Off ch=1 n=c3 v=80
272160 On ch=1 n=f3 v=78
272160 On ch=1 n=c3 v=78
272400 Off ch=1 n=c3 v=80
272400 On ch=1 n=c3 v=78
272520 Off ch=1 n=c3 v=80
272520 On ch=1 n=c3 v=78
272640 Off ch=1 n=f3 v=80
272640 Off ch=1 n=c3 v=80
272640 On ch=1 n=g3 v=78
272640 On ch=1 n=c3 v=78
272880 Off ch=1 n=c3 v=80
272880 On ch=1 n=c3 v=78
273000 Off ch=1 n=c3 v=80
273000 On ch=1 n=c3 v=78
273120 Off ch=1 n=g3 v=80
273120 Off ch=1 n=c3 v=80
273120 On ch=1 n=g#3 v=78
273120 On ch=1 n=c3 v=78
273360 Off ch=1 n=c3 v=80
273360 On ch=1 n=c3 v=78
273480 Off ch=1 n=c3 v=80
273480 On ch=1 n=c3 v=78
273600 Off ch=1 n=g#3 v=80
273600 Off ch=1 n=c3 v=80
273600 On ch=1 n=c3 v=78
273600 On ch=1 n=a#3 v=78
273840 Off ch=1 n=c3 v=80
273840 On ch=1 n=c3 v=78
273960 Off ch=1 n=c3 v=80
273960 On ch=1 n=c3 v=78
274080 Off ch=1 n=a#3 v=80
274080 Off ch=1 n=c3 v=80
274080 On ch=1 n=c3 v=82
274080 On ch=1 n=g#3 v=82
274320 Off ch=1 n=c3 v=80
274320 On ch=1 n=c3 v=82
274440 Off ch=1 n=c3 v=80
274440 On ch=1 n=c3 v=82
274560 Off ch=1 n=g#3 v=80
274560 Off ch=1 n=c3 v=80
274560 On ch=1 n=c3 v=86
274560 On ch=1 n=g3 v=86
274800 Off ch=1 n=c3 v=80
274800 On ch=1 n=c3 v=86
274920 Off ch=1 n=c3 v=80
274920 On ch=1 n=c3 v=86
275040 Off ch=1 n=g3 v=80
275040 Off ch=1 n=c3 v=80
275040 On ch=1 n=c3 v=90
275040 On ch=1 n=g#3 v=90
275280 Off ch=1 n=c3 v=80
275280 On ch=1 n=c3 v=90
275400 Off ch=1 n=c3 v=80
275400 On ch=1 n=c3 v=90
275520 Off ch=1 n=g#3 v=80
275520 Off ch=1 n=c3 v=80
275520 On ch=1 n=c3 v=94
275520 On ch=1 n=a#3 v=94
275760 Off ch=1 n=c3 v=80
275760 On ch=1 n=c3 v=94
275880 Off ch=1 n=c3 v=80
275880 On ch=1 n=c3 v=94
276000 Off ch=1 n=a#3 v=80
276000 Off ch=1 n=c3 v=80
276000 On ch=1 n=c3 v=98
276000 On ch=1 n=b3 v=98
276240 Off ch=1 n=c3 v=80
276240 On ch=1 n=c3 v=98
276360 Off ch=1 n=c3 v=80
276360 On ch=1 n=c3 v=98
276480 Off ch=1 n=b3 v=80
276480 Off ch=1 n=c3 v=80
276480 On ch=1 n=c3 v=102
276480 On ch=1 n=c4 v=102
276720 Off ch=1 n=c3 v=80
276720 On ch=1 n=c3 v=102
276840 Off ch=1 n=c3 v=80
276840 On ch=1 n=c3 v=102
276960 Off ch=1 n=c3 v=80
276960 On ch=1 n=c3 v=102
277200 Off ch=1 n=c3 v=80
277200 On ch=1 n=c3 v=102
277320 Off ch=1 n=c3 v=80
277320 On ch=1 n=c3 v=102
277440 Off ch=1 n=c4 v=80
277440 Off ch=1 n=c3 v=80
277440 On ch=1 n=c3 v=105
277440 On ch=1 n=e3 v=105
277680 Off ch=1 n=c3 v=80
277680 On ch=1 n=c3 v=105
277800 Off ch=1 n=c3 v=80
277800 On ch=1 n=c3 v=105
277920 Off ch=1 n=e3 v=80
277920 Off ch=1 n=c3 v=80
277920 On ch=1 n=c3 v=108
277920 On ch=1 n=f3 v=108
278160 Off ch=1 n=c3 v=80
278160 On ch=1 n=c3 v=108
278280 Off ch=1 n=c3 v=80
278280 On ch=1 n=c3 v=108
278400 Off ch=1 n=f3 v=80
278400 Off ch=1 n=c3 v=80
278400 On ch=1 n=c3 v=111
278400 On ch=1 n=g3 v=111
278640 Off ch=1 n=c3 v=80
278640 On ch=1 n=c3 v=111
278760 Off ch=1 n=c3 v=80
278760 On ch=1 n=c3 v=111
278880 Off ch=1 n=g3 v=80
278880 Off ch=1 n=c3 v=80
278880 On ch=1 n=c3 v=114
278880 On ch=1 n=g#3 v=114
279120 Off ch=1 n=c3 v=80
279120 On ch=1 n=c3 v=114
279240 Off ch=1 n=c3 v=80
279240 On ch=1 n=c3 v=114
279360 Off ch=1 n=g#3 v=80
279360 Off ch=1 n=c3 v=80
279360 On ch=1 n=c3 v=114
279360 On ch=1 n=a#3 v=114
279600 Off ch=1 n=c3 v=80
279600 On ch=1 n=c3 v=114
279720 Off ch=1 n=c3 v=80
279720 On ch=1 n=c3 v=114
279840 Off ch=1 n=a#3 v=80
279840 Off ch=1 n=c3 v=80
279840 On ch=1 n=b3 v=114
279840 On ch=1 n=b2 v=114
280080 Off ch=1 n=b2 v=80
280080 On ch=1 n=b2 v=114
280200 Off ch=1 n=b2 v=80
280200 On ch=1 n=b2 v=114
280320 Off ch=1 n=b3 v=80
280320 Off ch=1 n=b2 v=80
280320 On ch=1 n=a#3 v=114
280320 On ch=1 n=a#2 v=114
280560 Off ch=1 n=a#2 v=80
280560 On ch=1 n=a#2 v=114
280680 Off ch=1 n=a#2 v=80
280680 On ch=1 n=a#2 v=114
280800 Off ch=1 n=a#3 v=80
280800 Off ch=1 n=a#2 v=80
280800 On ch=1 n=g#3 v=127
280800 On ch=1 n=g#2 v=127
281040 Off ch=1 n=g#2 v=80
281040 On ch=1 n=g#2 v=114
281160 Off ch=1 n=g#2 v=80
281160 On ch=1 n=g#2 v=114
281280 Off ch=1 n=g#3 v=80
281280 Off ch=1 n=g#2 v=80
281280 On ch=1 n=g3 v=114
281280 On ch=1 n=g2 v=114
281520 Off ch=1 n=g2 v=80
281520 On ch=1 n=g2 v=114
281640 Off ch=1 n=g2 v=80
281640 On ch=1 n=g2 v=114
281760 Off ch=1 n=g3 v=80
281760 Off ch=1 n=g2 v=80
281760 On ch=1 n=c3 v=102
281760 On ch=1 n=g3 v=102
282000 Off ch=1 n=g3 v=80
282000 Off ch=1 n=c3 v=80
282000 On ch=1 n=c3 v=102
282000 On ch=1 n=g3 v=102
282120 Off ch=1 n=g3 v=80
282120 Off ch=1 n=c3 v=80
282120 On ch=1 n=c3 v=102
282120 On ch=1 n=g3 v=102
282240 Off ch=1 n=g3 v=80
282240 Off ch=1 n=c3 v=80
282240 On ch=1 n=f2 v=114
282240 On ch=1 n=c3 v=114
282480 Off ch=1 n=c3 v=80
282480 Off ch=1 n=f2 v=80
282480 On ch=1 n=f2 v=99
282480 On ch=1 n=c3 v=99
282600 Off ch=1 n=c3 v=80
282600 Off ch=1 n=f2 v=80
282600 On ch=1 n=f2 v=99
282600 On ch=1 n=c3 v=99
282720 Off ch=1 n=c3 v=80
282720 Off ch=1 n=f2 v=80
282720 On ch=1 n=c3 v=114
282720 On ch=1 n=f2 v=114
282960 Off ch=1 n=f2 v=80
282960 Off ch=1 n=c3 v=80
282960 On ch=1 n=f2 v=99
282960 On ch=1 n=c3 v=99
283080 Off ch=1 n=c3 v=80
283080 Off ch=1 n=f2 v=80
283080 On ch=1 n=f2 v=99
283080 On ch=1 n=c3 v=99
283200 Off ch=1 n=c3 v=80
283200 Off ch=1 n=f2 v=80
283200 On ch=1 n=c3 v=114
283200 On ch=1 n=f2 v=114
283440 Off ch=1 n=f2 v=80
283440 Off ch=1 n=c3 v=80
283440 On ch=1 n=f2 v=99
283440 On ch=1 n=c3 v=99
283560 Off ch=1 n=c3 v=80
283560 Off ch=1 n=f2 v=80
283560 On ch=1 n=f2 v=99
283560 On ch=1 n=c3 v=99
283680 Off ch=1 n=c3 v=80
283680 Off ch=1 n=f2 v=80
283680 On ch=1 n=c3 v=114
283680 On ch=1 n=f2 v=114
283920 Off ch=1 n=f2 v=80
283920 Off ch=1 n=c3 v=80
283920 On ch=1 n=f2 v=99
283920 On ch=1 n=c3 v=99
284040 Off ch=1 n=c3 v=80
284040 Off ch=1 n=f2 v=80
284040 On ch=1 n=f2 v=99
284040 On ch=1 n=c3 v=99
284160 Off ch=1 n=c3 v=80
284160 Off ch=1 n=f2 v=80
284160 On ch=1 n=c3 v=114
284160 On ch=1 n=f2 v=114
284400 Off ch=1 n=f2 v=80
284400 Off ch=1 n=c3 v=80
284400 On ch=1 n=f2 v=99
284400 On ch=1 n=c3 v=99
284520 Off ch=1 n=c3 v=80
284520 Off ch=1 n=f2 v=80
284520 On ch=1 n=f2 v=99
284520 On ch=1 n=c3 v=99
284640 Off ch=1 n=c3 v=80
284640 Off ch=1 n=f2 v=80
284640 On ch=1 n=c3 v=114
284640 On ch=1 n=f2 v=114
284880 Off ch=1 n=f2 v=80
284880 Off ch=1 n=c3 v=80
284880 On ch=1 n=d3 v=127
284880 On ch=1 n=d2 v=127
285120 Off ch=1 n=d2 v=80
285120 Off ch=1 n=d3 v=80
285120 On ch=1 n=g3 v=117
285120 On ch=1 n=d4 v=117
285360 Off ch=1 n=d4 v=80
285360 Off ch=1 n=g3 v=80
285360 On ch=1 n=d4 v=102
285360 On ch=1 n=g3 v=102
285480 Off ch=1 n=g3 v=80
285480 Off ch=1 n=d4 v=80
285480 On ch=1 n=d4 v=102
285480 On ch=1 n=g3 v=102
285600 Off ch=1 n=g3 v=80
285600 Off ch=1 n=d4 v=80
285600 On ch=1 n=d4 v=117
285600 On ch=1 n=d3 v=117
285840 Off ch=1 n=d3 v=80
285840 Off ch=1 n=d4 v=80
285840 On ch=1 n=d4 v=102
285840 On ch=1 n=d3 v=102
285960 Off ch=1 n=d3 v=80
285960 Off ch=1 n=d4 v=80
285960 On ch=1 n=d4 v=102
285960 On ch=1 n=d3 v=102
286080 Off ch=1 n=d3 v=80
286080 Off ch=1 n=d4 v=80
286080 On ch=1 n=d4 v=117
286080 On ch=1 n=c4 v=117
286320 Off ch=1 n=c4 v=80
286320 Off ch=1 n=d4 v=80
286320 On ch=1 n=d4 v=102
286320 On ch=1 n=c4 v=102
286440 Off ch=1 n=c4 v=80
286440 Off ch=1 n=d4 v=80
286440 On ch=1 n=d4 v=102
286440 On ch=1 n=c4 v=102
286560 Off ch=1 n=c4 v=80
286560 Off ch=1 n=d4 v=80
286560 On ch=1 n=d4 v=117
286560 On ch=1 n=a#3 v=117
286800 Off ch=1 n=a#3 v=80
286800 Off ch=1 n=d4 v=80
286800 On ch=1 n=d4 v=102
286800 On ch=1 n=a#3 v=102
286920 Off ch=1 n=a#3 v=80
286920 Off ch=1 n=d4 v=80
286920 On ch=1 n=d4 v=102
286920 On ch=1 n=a#3 v=102
287040 Off ch=1 n=a#3 v=80
287040 Off ch=1 n=d4 v=80
287040 On ch=1 n=d4 v=117
287040 On ch=1 n=f#3 v=117
287280 Off ch=1 n=f#3 v=80
287280 Off ch=1 n=d4 v=80
287280 On ch=1 n=d4 v=102
287280 On ch=1 n=f#3 v=102
287400 Off ch=1 n=f#3 v=80
287400 Off ch=1 n=d4 v=80
287400 On ch=1 n=d4 v=102
287400 On ch=1 n=f#3 v=102
287520 Off ch=1 n=f#3 v=80
287520 Off ch=1 n=d4 v=80
287520 On ch=1 n=g3 v=117
287520 On ch=1 n=d4 v=117
287760 Off ch=1 n=d4 v=80
287760 Off ch=1 n=g3 v=80
287760 On ch=1 n=d4 v=102
287760 On ch=1 n=g3 v=102
287880 Off ch=1 n=g3 v=80
287880 Off ch=1 n=d4 v=80
287880 On ch=1 n=d4 v=102
287880 On ch=1 n=g3 v=102
288000 Off ch=1 n=g3 v=80
288000 Off ch=1 n=d4 v=80
288000 On ch=1 n=g3 v=117
288000 On ch=1 n=d4 v=117
288240 Off ch=1 n=d4 v=80
288240 Off ch=1 n=g3 v=80
288240 On ch=1 n=d4 v=102
288240 On ch=1 n=g3 v=102
288360 Off ch=1 n=g3 v=80
288360 Off ch=1 n=d4 v=80
288360 On ch=1 n=d4 v=102
288360 On ch=1 n=g3 v=102
288480 Off ch=1 n=g3 v=80
288480 Off ch=1 n=d4 v=80
288480 On ch=1 n=d4 v=117
288480 On ch=1 n=c3 v=117
288720 Off ch=1 n=c3 v=80
288720 Off ch=1 n=d4 v=80
288720 On ch=1 n=d4 v=102
288720 On ch=1 n=c3 v=102
288840 Off ch=1 n=c3 v=80
288840 Off ch=1 n=d4 v=80
288840 On ch=1 n=d4 v=102
288840 On ch=1 n=c3 v=102
288960 Off ch=1 n=c3 v=80
288960 Off ch=1 n=d4 v=80
288960 On ch=1 n=c4 v=117
288960 On ch=1 n=e4 v=117
289200 Off ch=1 n=e4 v=80
289200 Off ch=1 n=c4 v=80
289200 On ch=1 n=c4 v=102
289200 On ch=1 n=e4 v=102
289320 Off ch=1 n=e4 v=80
289320 Off ch=1 n=c4 v=80
289320 On ch=1 n=c4 v=102
289320 On ch=1 n=e4 v=102
289440 Off ch=1 n=e4 v=80
289440 Off ch=1 n=c4 v=80
289440 On ch=1 n=f4 v=117
289440 On ch=1 n=f3 v=117
289680 Off ch=1 n=f3 v=80
289680 Off ch=1 n=f4 v=80
289680 On ch=1 n=f4 v=102
289680 On ch=1 n=f3 v=102
289800 Off ch=1 n=f3 v=80
289800 Off ch=1 n=f4 v=80
289800 On ch=1 n=f4 v=102
289800 On ch=1 n=f3 v=102
289920 Off ch=1 n=f3 v=80
289920 Off ch=1 n=f4 v=80
289920 On ch=1 n=f4 v=117
289920 On ch=1 n=a#3 v=117
290160 Off ch=1 n=a#3 v=80
290160 Off ch=1 n=f4 v=80
290160 On ch=1 n=f4 v=102
290160 On ch=1 n=a#3 v=102
290280 Off ch=1 n=a#3 v=80
290280 Off ch=1 n=f4 v=80
290280 On ch=1 n=f4 v=102
290280 On ch=1 n=a#3 v=102
290400 Off ch=1 n=a#3 v=80
290400 Off ch=1 n=f4 v=80
290400 On ch=1 n=f4 v=117
290400 On ch=1 n=a3 v=117
290640 Off ch=1 n=a3 v=80
290640 Off ch=1 n=f4 v=80
290640 On ch=1 n=d4 v=127
290640 On ch=1 n=d3 v=127
290760 Off ch=1 n=d3 v=80
290760 Off ch=1 n=d4 v=80
290880 On ch=1 n=g3 v=117
290880 On ch=1 n=d4 v=117
291120 Off ch=1 n=d4 v=80
291120 Off ch=1 n=g3 v=80
291120 On ch=1 n=d4 v=102
291120 On ch=1 n=g3 v=102
291240 Off ch=1 n=g3 v=80
291240 Off ch=1 n=d4 v=80
291240 On ch=1 n=d4 v=102
291240 On ch=1 n=g3 v=102
291360 Off ch=1 n=g3 v=80
291360 Off ch=1 n=d4 v=80
291360 On ch=1 n=d4 v=117
291360 On ch=1 n=d3 v=117
291600 Off ch=1 n=d3 v=80
291600 Off ch=1 n=d4 v=80
291600 On ch=1 n=d4 v=102
291600 On ch=1 n=d3 v=102
291720 Off ch=1 n=d3 v=80
291720 Off ch=1 n=d4 v=80
291720 On ch=1 n=d4 v=102
291720 On ch=1 n=d3 v=102
291840 Off ch=1 n=d3 v=80
291840 Off ch=1 n=d4 v=80
291840 On ch=1 n=d4 v=117
291840 On ch=1 n=c4 v=117
292080 Off ch=1 n=c4 v=80
292080 Off ch=1 n=d4 v=80
292080 On ch=1 n=d4 v=102
292080 On ch=1 n=c4 v=102
292200 Off ch=1 n=c4 v=80
292200 Off ch=1 n=d4 v=80
292200 On ch=1 n=d4 v=102
292200 On ch=1 n=c4 v=102
292320 Off ch=1 n=c4 v=80
292320 Off ch=1 n=d4 v=80
292320 On ch=1 n=d4 v=117
292320 On ch=1 n=a#3 v=117
292560 Off ch=1 n=a#3 v=80
292560 Off ch=1 n=d4 v=80
292560 On ch=1 n=d4 v=102
292560 On ch=1 n=a#3 v=102
292680 Off ch=1 n=a#3 v=80
292680 Off ch=1 n=d4 v=80
292680 On ch=1 n=d4 v=102
292680 On ch=1 n=a#3 v=102
292800 Off ch=1 n=a#3 v=80
292800 Off ch=1 n=d4 v=80
292800 On ch=1 n=d4 v=117
292800 On ch=1 n=f#3 v=117
293040 Off ch=1 n=f#3 v=80
293040 Off ch=1 n=d4 v=80
293040 On ch=1 n=d4 v=102
293040 On ch=1 n=f#3 v=102
293160 Off ch=1 n=f#3 v=80
293160 Off ch=1 n=d4 v=80
293160 On ch=1 n=d4 v=102
293160 On ch=1 n=f#3 v=102
293280 Off ch=1 n=f#3 v=80
293280 Off ch=1 n=d4 v=80
293280 On ch=1 n=g3 v=117
293280 On ch=1 n=d4 v=117
293520 Off ch=1 n=d4 v=80
293520 Off ch=1 n=g3 v=80
293520 On ch=1 n=d4 v=102
293520 On ch=1 n=g3 v=102
293640 Off ch=1 n=g3 v=80
293640 Off ch=1 n=d4 v=80
293640 On ch=1 n=d4 v=102
293640 On ch=1 n=g3 v=102
293760 Off ch=1 n=g3 v=80
293760 Off ch=1 n=d4 v=80
293760 On ch=1 n=g3 v=117
293760 On ch=1 n=d#4 v=117
294000 Off ch=1 n=d#4 v=80
294000 Off ch=1 n=g3 v=80
294000 On ch=1 n=g3 v=102
294000 On ch=1 n=d#4 v=102
294120 Off ch=1 n=d#4 v=80
294120 Off ch=1 n=g3 v=80
294120 On ch=1 n=g3 v=102
294120 On ch=1 n=d#4 v=102
294240 Off ch=1 n=d#4 v=80
294240 Off ch=1 n=g3 v=80
294240 On ch=1 n=d#4 v=127
294240 On ch=1 n=f3 v=127
294480 Off ch=1 n=f3 v=80
294480 Off ch=1 n=d#4 v=80
294480 On ch=1 n=d#4 v=102
294480 On ch=1 n=f3 v=102
294600 Off ch=1 n=f3 v=80
294600 Off ch=1 n=d#4 v=80
294600 On ch=1 n=d#4 v=102
294600 On ch=1 n=f3 v=102
294720 Off ch=1 n=f3 v=80
294720 Off ch=1 n=d#4 v=80
294720 On ch=1 n=a#3 v=117
294720 On ch=1 n=f4 v=117
294960 Off ch=1 n=f4 v=80
294960 Off ch=1 n=a#3 v=80
294960 On ch=1 n=a#3 v=102
294960 On ch=1 n=f4 v=102
295080 Off ch=1 n=f4 v=80
295080 Off ch=1 n=a#3 v=80
295080 On ch=1 n=a#3 v=102
295080 On ch=1 n=f4 v=102
295200 Off ch=1 n=f4 v=80
295200 Off ch=1 n=a#3 v=80
295200 On ch=1 n=d#4 v=102
295200 On ch=1 n=d#3 v=102
295380 Off ch=1 n=d#3 v=80
295380 Off ch=1 n=d#4 v=80
295440 On ch=1 n=d#4 v=102
295440 On ch=1 n=g#3 v=102
295620 Off ch=1 n=g#3 v=80
295620 Off ch=1 n=d#4 v=80
295680 On ch=1 n=d#4 v=102
295680 On ch=1 n=d#3 v=102
295860 Off ch=1 n=d#3 v=80
295860 Off ch=1 n=d#4 v=80
295920 On ch=1 n=d3 v=102
295920 On ch=1 n=d4 v=102
296040 Off ch=1 n=d4 v=80
296040 Off ch=1 n=d3 v=80
296160 On ch=1 n=d#4 v=102
296160 On ch=1 n=d#3 v=102
296280 Off ch=1 n=d#3 v=80
296280 Off ch=1 n=d#4 v=80
296400 On ch=1 n=c#4 v=102
296400 On ch=1 n=c#3 v=102
296520 Off ch=1 n=c#3 v=80
296520 Off ch=1 n=c#4 v=80
296640 On ch=1 n=d4 v=102
296640 On ch=1 n=d3 v=102
296880 Off ch=1 n=d3 v=80
296880 Off ch=1 n=d4 v=80
296880 On ch=1 n=f#5 v=102
296880 On ch=1 n=c6 v=102
297000 Off ch=1 n=c6 v=80
297000 Off ch=1 n=f#5 v=80
297120 On ch=1 n=g5 v=78
297120 On ch=1 n=a#5 v=78
297240 Off ch=1 n=a#5 v=80
297240 Off ch=1 n=g5 v=80
297360 On ch=1 n=a5 v=78
297360 On ch=1 n=c5 v=78
297360 On ch=1 n=g5 v=78
297480 Off ch=1 n=g5 v=80
297480 Off ch=1 n=c5 v=80
297480 Off ch=1 n=a5 v=80
297600 On ch=1 n=d5 v=102
297600 On ch=1 n=f#5 v=102
297600 On ch=1 n=a5 v=102
297720 Off ch=1 n=a5 v=80
297720 Off ch=1 n=f#5 v=80
297720 Off ch=1 n=d5 v=80
297840 On ch=1 n=d4 v=78
297840 On ch=1 n=d5 v=78
297960 Off ch=1 n=d5 v=80
297960 Off ch=1 n=d4 v=80
298080 On ch=1 n=g4 v=78
298080 On ch=1 n=g3 v=78
298260 Off ch=1 n=g3 v=80
298260 Off ch=1 n=g4 v=80
298320 On ch=1 n=a3 v=78
298320 On ch=1 n=a4 v=78
298500 Off ch=1 n=a4 v=80
298500 Off ch=1 n=a3 v=80
298560 On ch=1 n=d4 v=78
298560 On ch=1 n=d3 v=78
298740 Off ch=1 n=d3 v=80
298740 Off ch=1 n=d4 v=80
298800 On ch=1 n=a#3 v=102
298800 On ch=1 n=a#2 v=102
298920 Off ch=1 n=a#2 v=80
298920 Off ch=1 n=a#3 v=80
299040 On ch=1 n=c3 v=102
299040 On ch=1 n=c4 v=102
299160 Off ch=1 n=c4 v=80
299160 Off ch=1 n=c3 v=80
299280 On ch=1 n=a3 v=102
299280 On ch=1 n=a2 v=102
299400 Off ch=1 n=a2 v=80
299400 Off ch=1 n=a3 v=80
299520 On ch=1 n=a#3 v=102
299520 On ch=1 n=a#2 v=102
299760 Off ch=1 n=a#2 v=80
299760 Off ch=1 n=a#3 v=80
299760 On ch=1 n=d5 v=102
299760 On ch=1 n=g#4 v=102
299760 On ch=1 n=a#4 v=102
299760 On ch=1 n=f5 v=102
299880 Off ch=1 n=f5 v=80
299880 Off ch=1 n=a#4 v=80
299880 Off ch=1 n=g#4 v=80
299880 Off ch=1 n=d5 v=80
300000 On ch=1 n=g4 v=78
300000 On ch=1 n=d#5 v=78
300120 Off ch=1 n=d#5 v=80
300120 Off ch=1 n=g4 v=80
300240 On ch=1 n=g#4 v=78
300240 On ch=1 n=d#5 v=78
300360 Off ch=1 n=d#5 v=80
300360 Off ch=1 n=g#4 v=80
300480 On ch=1 n=a#4 v=102
300480 On ch=1 n=d5 v=102
300600 Off ch=1 n=d5 v=80
300600 Off ch=1 n=a#4 v=80
300720 On ch=1 n=a#3 v=78
300720 On ch=1 n=a#4 v=78
300840 Off ch=1 n=a#4 v=80
300840 Off ch=1 n=a#3 v=80
300960 On ch=1 n=d#4 v=78
300960 On ch=1 n=d#3 v=78
301140 Off ch=1 n=d#3 v=80
301140 Off ch=1 n=d#4 v=80
301200 On ch=1 n=f3 v=78
301200 On ch=1 n=f4 v=78
301380 Off ch=1 n=f4 v=80
301380 Off ch=1 n=f3 v=80
301440 On ch=1 n=g3 v=78
301440 On ch=1 n=g4 v=78
301620 Off ch=1 n=g4 v=80
301620 Off ch=1 n=g3 v=80
301680 On ch=1 n=g2 v=102
301680 On ch=1 n=g3 v=102
301800 Off ch=1 n=g3 v=80
301800 Off ch=1 n=g2 v=80
301920 On ch=1 n=g#2 v=102
301920 On ch=1 n=g#3 v=102
302040 Off ch=1 n=g#3 v=80
302040 Off ch=1 n=g#2 v=80
302160 On ch=1 n=f#2 v=102
302160 On ch=1 n=f#3 v=102
302280 Off ch=1 n=f#3 v=80
302280 Off ch=1 n=f#2 v=80
302280 On ch=1 n=g2 v=102
302400 Off ch=1 n=g2 v=80
302400 On ch=1 n=g3 v=102
302880 On ch=1 n=f#4 v=102
303360 Off ch=1 n=f#4 v=80
303360 On ch=1 n=f4 v=102
303840 Off ch=1 n=g3 v=80
303840 Off ch=1 n=f4 v=80
303840 On ch=1 n=d#4 v=102
303840 On ch=1 n=g3 v=102
304320 Off ch=1 n=d#4 v=80
304320 On ch=1 n=d4 v=102
304800 Off ch=1 n=d4 v=80
304800 On ch=1 n=d#4 v=102
305280 Off ch=1 n=g3 v=80
305280 Off ch=1 n=d#4 v=80
305280 On ch=1 n=g3 v=102
305280 On ch=1 n=d4 v=102
305760 Off ch=1 n=d4 v=80
305760 On ch=1 n=g#4 v=117
306240 Off ch=1 n=g#4 v=80
306240 On ch=1 n=g4 v=102
306960 Off ch=1 n=g3 v=80
306960 Off ch=1 n=g4 v=80
306960 On ch=1 n=g#4 v=102
306960 On ch=1 n=g#3 v=102
307080 Off ch=1 n=g#3 v=80
307080 Off ch=1 n=g#4 v=80
307200 On ch=1 n=a4 v=102
307200 On ch=1 n=a3 v=102
307320 Off ch=1 n=a3 v=80
307320 Off ch=1 n=a4 v=80
307440 On ch=1 n=a2 v=102
307440 On ch=1 n=a3 v=102
307560 Off ch=1 n=a3 v=80
307560 Off ch=1 n=a2 v=80
307680 On ch=1 n=a#2 v=102
307680 On ch=1 n=a#3 v=102
307800 Off ch=1 n=a#3 v=80
307800 Off ch=1 n=a#2 v=80
307920 On ch=1 n=g#2 v=102
307920 On ch=1 n=g#3 v=102
308040 Off ch=1 n=g#3 v=80
308040 Off ch=1 n=g#2 v=80
308040 On ch=1 n=a2 v=102
308160 Off ch=1 n=a2 v=80
308160 On ch=1 n=a3 v=102
308640 On ch=1 n=g#4 v=102
309120 Off ch=1 n=g#4 v=80
309120 On ch=1 n=g4 v=102
309600 Off ch=1 n=a3 v=80
309600 Off ch=1 n=g4 v=80
309600 On ch=1 n=f4 v=102
309600 On ch=1 n=a3 v=102
310080 Off ch=1 n=f4 v=80
310080 On ch=1 n=e4 v=102
310560 Off ch=1 n=e4 v=80
310560 On ch=1 n=f4 v=102
311040 Off ch=1 n=a3 v=80
311040 Off ch=1 n=f4 v=80
311040 On ch=1 n=a3 v=102
311040 On ch=1 n=e4 v=102
311520 Off ch=1 n=e4 v=80
311520 On ch=1 n=a#4 v=117
312000 Off ch=1 n=a#4 v=80
312000 On ch=1 n=a4 v=102
312720 Off ch=1 n=a3 v=80
312720 Off ch=1 n=a4 v=80
312720 On ch=1 n=a#4 v=102
312720 On ch=1 n=a#3 v=102
312840 Off ch=1 n=a#3 v=80
312840 Off ch=1 n=a#4 v=80
312960 On ch=1 n=b4 v=102
312960 On ch=1 n=b3 v=102
313080 Off ch=1 n=b3 v=80
313080 Off ch=1 n=b4 v=80
313200 On ch=1 n=b3 v=102
313200 On ch=1 n=b2 v=102
313320 Off ch=1 n=b2 v=80
313320 Off ch=1 n=b3 v=80
313440 On ch=1 n=c#3 v=102
313440 On ch=1 n=c#4 v=102
313560 Off ch=1 n=c#4 v=80
313560 Off ch=1 n=c#3 v=80
313680 On ch=1 n=a#3 v=102
313680 On ch=1 n=a#2 v=102
313800 Off ch=1 n=a#2 v=80
313800 Off ch=1 n=a#3 v=80
313920 On ch=1 n=b3 v=102
313920 On ch=1 n=b2 v=102
314160 Off ch=1 n=b2 v=80
314160 Off ch=1 n=b3 v=80
314160 On ch=1 n=g5 v=117
314160 On ch=1 n=e5 v=117
314160 On ch=1 n=a#4 v=117
314280 Off ch=1 n=a#4 v=80
314280 Off ch=1 n=e5 v=80
314280 Off ch=1 n=g5 v=80
314400 On ch=1 n=b4 v=117
314400 On ch=1 n=d#5 v=117
314400 On ch=1 n=f#5 v=117
314520 Off ch=1 n=f#5 v=80
314520 Off ch=1 n=d#5 v=80
314520 Off ch=1 n=b4 v=80
314640 On ch=1 n=b3 v=102
314640 On ch=1 n=b2 v=102
314700 Off ch=1 n=b2 v=80
314700 Off ch=1 n=b3 v=80
314760 On ch=1 n=b2 v=102
314760 On ch=1 n=b3 v=102
314820 Off ch=1 n=b3 v=80
314820 Off ch=1 n=b2 v=80
314880 On ch=1 n=c#3 v=102
314880 On ch=1 n=c#4 v=102
315000 Off ch=1 n=c#4 v=80
315000 Off ch=1 n=c#3 v=80
315120 On ch=1 n=a#3 v=102
315120 On ch=1 n=a#2 v=102
315240 Off ch=1 n=a#2 v=80
315240 Off ch=1 n=a#3 v=80
315360 On ch=1 n=b3 v=102
315360 On ch=1 n=b2 v=102
315600 Off ch=1 n=b2 v=80
315600 Off ch=1 n=b3 v=80
315600 On ch=1 n=b4 v=127
315600 On ch=1 n=d5 v=127
315600 On ch=1 n=f5 v=127
316080 Off ch=1 n=f5 v=80
316080 Off ch=1 n=d5 v=80
316080 Off ch=1 n=b4 v=80
316080 On ch=1 n=a#3 v=102
316080 On ch=1 n=a#2 v=102
316140 Off ch=1 n=a#2 v=80
316140 Off ch=1 n=a#3 v=80
316200 On ch=1 n=a#2 v=102
316200 On ch=1 n=a#3 v=102
316260 Off ch=1 n=a#3 v=80
316260 Off ch=1 n=a#2 v=80
316320 On ch=1 n=c3 v=102
316320 On ch=1 n=c4 v=102
316440 Off ch=1 n=c4 v=80
316440 Off ch=1 n=c3 v=80
316560 On ch=1 n=a3 v=102
316560 On ch=1 n=a2 v=102
316680 Off ch=1 n=a2 v=80
316680 Off ch=1 n=a3 v=80
316800 On ch=1 n=a#3 v=102
316800 On ch=1 n=a#2 v=102
317040 Off ch=1 n=a#2 v=80
317040 Off ch=1 n=a#3 v=80
317040 On ch=1 n=g5 v=117
317040 On ch=1 n=d#5 v=117
317040 On ch=1 n=g4 v=117
317160 Off ch=1 n=g4 v=80
317160 Off ch=1 n=d#5 v=80
317160 Off ch=1 n=g5 v=80
317280 On ch=1 n=g#4 v=117
317280 On ch=1 n=d5 v=117
317280 On ch=1 n=f5 v=117
317400 Off ch=1 n=f5 v=80
317400 Off ch=1 n=d5 v=80
317400 Off ch=1 n=g#4 v=80
317520 On ch=1 n=a2 v=114
317520 On ch=1 n=a3 v=114
317640 Off ch=1 n=a3 v=80
317640 Off ch=1 n=a2 v=80
317760 On ch=1 n=a#3 v=90
317760 On ch=1 n=a#2 v=90
317880 Off ch=1 n=a#2 v=80
317880 Off ch=1 n=a#3 v=80
318000 On ch=1 n=g#3 v=90
318000 On ch=1 n=g#2 v=90
318120 Off ch=1 n=g#2 v=80
318120 Off ch=1 n=g#3 v=80
318240 On ch=1 n=a3 v=90
318240 On ch=1 n=a2 v=90
318450 Off ch=1 n=a2 v=80
318450 Off ch=1 n=a3 v=80
318480 On ch=1 n=c#5 v=102
318480 On ch=1 n=g5 v=102
318600 Off ch=1 n=g5 v=80
318600 Off ch=1 n=c#5 v=80
318720 On ch=1 n=d5 v=78
318720 On ch=1 n=f#5 v=78
318840 Off ch=1 n=f#5 v=80
318840 Off ch=1 n=d5 v=80
318960 On ch=1 n=e5 v=78
318960 On ch=1 n=d5 v=78
318960 On ch=1 n=g#4 v=78
319080 Off ch=1 n=g#4 v=80
319080 Off ch=1 n=d5 v=80
319080 Off ch=1 n=e5 v=80
319200 On ch=1 n=e5 v=78
319200 On ch=1 n=c#5 v=78
319200 On ch=1 n=a4 v=78
319320 Off ch=1 n=a4 v=80
319320 Off ch=1 n=c#5 v=80
319320 Off ch=1 n=e5 v=80
319440 On ch=1 n=a4 v=78
319440 On ch=1 n=a3 v=78
319560 Off ch=1 n=a3 v=80
319560 Off ch=1 n=a4 v=80
319680 On ch=1 n=d4 v=78
319680 On ch=1 n=d3 v=78
319920 Off ch=1 n=d3 v=80
319920 Off ch=1 n=d4 v=80
319920 On ch=1 n=d5 v=84
319920 On ch=1 n=a4 v=84
319920 On ch=1 n=f#4 v=84
320160 Off ch=1 n=f#4 v=80
320160 Off ch=1 n=a4 v=80
320160 Off ch=1 n=d5 v=80
320160 On ch=1 n=f#3 v=87
320400 Off ch=1 n=f#3 v=80
320400 On ch=1 n=f#4 v=90
320400 On ch=1 n=a#4 v=90
320400 On ch=1 n=e5 v=90
320640 Off ch=1 n=e5 v=80
320640 Off ch=1 n=a#4 v=80
320640 Off ch=1 n=f#4 v=80
320640 On ch=1 n=f#2 v=120
320880 Off ch=1 n=f#2 v=80
320880 On ch=1 n=e5 v=96
320880 On ch=1 n=a#4 v=96
320880 On ch=1 n=f#4 v=96
321120 Off ch=1 n=f#4 v=80
321120 Off ch=1 n=a#4 v=80
321120 Off ch=1 n=e5 v=80
321120 On ch=1 n=b3 v=102
321360 Off ch=1 n=b3 v=80
321360 On ch=1 n=f#4 v=102
321360 On ch=1 n=b4 v=102
321360 On ch=1 n=d5 v=102
321600 Off ch=1 n=d5 v=80
321600 Off ch=1 n=b4 v=80
321600 Off ch=1 n=f#4 v=80
321600 On ch=1 n=f4 v=120
321840 On ch=1 n=b4 v=102
321840 On ch=1 n=d5 v=102
322080 Off ch=1 n=d5 v=80
322080 Off ch=1 n=b4 v=80
322080 Off ch=1 n=f4 v=80
322080 On ch=1 n=e4 v=102
322320 On ch=1 n=d5 v=102
322320 On ch=1 n=e5 v=102
322560 Off ch=1 n=e5 v=80
322560 Off ch=1 n=d5 v=80
322560 Off ch=1 n=e4 v=80
322560 On ch=1 n=c#5 v=102
322560 On ch=1 n=a4 v=102
322680 Off ch=1 n=a4 v=80
322680 Off ch=1 n=c#5 v=80
322800 On ch=1 n=a3 v=114
322800 On ch=1 n=a2 v=114
322920 Off ch=1 n=a2 v=80
322920 Off ch=1 n=a3 v=80
323040 On ch=1 n=a#3 v=78
323040 On ch=1 n=a#2 v=78
323160 Off ch=1 n=a#2 v=80
323160 Off ch=1 n=a#3 v=80
323280 On ch=1 n=g#3 v=78
323280 On ch=1 n=g#2 v=78
323400 Off ch=1 n=g#2 v=80
323400 Off ch=1 n=g#3 v=80
323520 On ch=1 n=a2 v=78
323520 On ch=1 n=a3 v=78
323640 Off ch=1 n=a3 v=80
323640 Off ch=1 n=a2 v=80
323760 On ch=1 n=c#5 v=102
323760 On ch=1 n=g5 v=102
323880 Off ch=1 n=g5 v=80
323880 Off ch=1 n=c#5 v=80
324000 On ch=1 n=d5 v=78
324000 On ch=1 n=f#5 v=78
324120 Off ch=1 n=f#5 v=80
324120 Off ch=1 n=d5 v=80
324240 On ch=1 n=g4 v=78
324240 On ch=1 n=e5 v=78
324360 Off ch=1 n=e5 v=80
324360 Off ch=1 n=g4 v=80
324480 On ch=1 n=a4 v=102
324480 On ch=1 n=c#5 v=102
324600 Off ch=1 n=c#5 v=80
324600 Off ch=1 n=a4 v=80
324720 On ch=1 n=a3 v=78
324720 On ch=1 n=a4 v=78
324840 Off ch=1 n=a4 v=80
324840 Off ch=1 n=a3 v=80
324960 On ch=1 n=d4 v=78
324960 On ch=1 n=d3 v=78
325140 Off ch=1 n=d3 v=80
325140 Off ch=1 n=d4 v=80
325200 On ch=1 n=e3 v=78
325200 On ch=1 n=e4 v=78
325380 Off ch=1 n=e4 v=80
325380 Off ch=1 n=e3 v=80
325440 On ch=1 n=a3 v=78
325440 On ch=1 n=a2 v=78
325620 Off ch=1 n=a2 v=80
325620 Off ch=1 n=a3 v=80
325680 On ch=1 n=b3 v=78
325680 On ch=1 n=b2 v=78
325740 Off ch=1 n=b2 v=80
325740 Off ch=1 n=b3 v=80
325800 On ch=1 n=c#3 v=78
325800 On ch=1 n=c#4 v=78
325860 Off ch=1 n=c#4 v=80
325860 Off ch=1 n=c#3 v=80
325920 On ch=1 n=d4 v=78
325920 On ch=1 n=d3 v=78
326100 Off ch=1 n=d3 v=80
326100 Off ch=1 n=d4 v=80
326160 On ch=1 n=g#3 v=81
326160 On ch=1 n=g#2 v=81
326340 Off ch=1 n=g#2 v=80
326340 Off ch=1 n=g#3 v=80
326400 On ch=1 n=a3 v=84
326400 On ch=1 n=a2 v=84
326580 Off ch=1 n=a2 v=80
326580 Off ch=1 n=a3 v=80
326640 On ch=1 n=g3 v=87
326640 On ch=1 n=g2 v=87
326820 Off ch=1 n=g2 v=80
326820 Off ch=1 n=g3 v=80
326880 On ch=1 n=f#3 v=90
326880 On ch=1 n=f#2 v=90
327060 Off ch=1 n=f#2 v=80
327060 Off ch=1 n=f#3 v=80
327120 On ch=1 n=f#2 v=90
327216 Off ch=1 n=f#2 v=80
327216 On ch=1 n=f#3 v=90
327312 Off ch=1 n=f#3 v=80
327312 On ch=1 n=d#4 v=96
327408 Off ch=1 n=d#4 v=80
327408 On ch=1 n=f#4 v=93
327504 Off ch=1 n=f#4 v=80
327504 On ch=1 n=b4 v=99
327600 Off ch=1 n=b4 v=80
327600 On ch=1 n=f#5 v=99
327840 Off ch=1 n=f#5 v=80
327840 On ch=1 n=b3 v=101
328080 Off ch=1 n=b3 v=80
328080 On ch=1 n=f#4 v=101
328080 On ch=1 n=b4 v=101
328080 On ch=1 n=d#5 v=101
328320 Off ch=1 n=d#5 v=80
328320 Off ch=1 n=b4 v=80
328320 Off ch=1 n=f#4 v=80
328320 On ch=1 n=e4 v=102
328560 Off ch=1 n=e4 v=80
328560 On ch=1 n=g4 v=102
328560 On ch=1 n=b4 v=102
328560 On ch=1 n=e5 v=102
328800 Off ch=1 n=e5 v=80
328800 Off ch=1 n=b4 v=80
328800 Off ch=1 n=g4 v=80
328800 On ch=1 n=c4 v=117
329040 Off ch=1 n=c4 v=80
329040 On ch=1 n=g4 v=102
329040 On ch=1 n=c5 v=102
329040 On ch=1 n=e5 v=102
329280 Off ch=1 n=e5 v=80
329280 Off ch=1 n=c5 v=80
329280 Off ch=1 n=g4 v=80
329280 On ch=1 n=a3 v=117
329520 Off ch=1 n=a3 v=80
329520 On ch=1 n=g4 v=102
329520 On ch=1 n=c5 v=102
329520 On ch=1 n=e5 v=102
329760 Off ch=1 n=e5 v=80
329760 Off ch=1 n=c5 v=80
329760 Off ch=1 n=g4 v=80
329760 On ch=1 n=d5 v=102
329760 On ch=1 n=d4 v=102
329970 Off ch=1 n=d4 v=80
329970 Off ch=1 n=d5 v=80
330000 On ch=1 n=d3 v=114
330000 On ch=1 n=d4 v=114
330120 Off ch=1 n=d4 v=80
330120 Off ch=1 n=d3 v=80
330240 On ch=1 n=d#4 v=78
330240 On ch=1 n=d#3 v=78
330360 Off ch=1 n=d#3 v=80
330360 Off ch=1 n=d#4 v=80
330480 On ch=1 n=c#4 v=78
330480 On ch=1 n=c#3 v=78
330600 Off ch=1 n=c#3 v=80
330600 Off ch=1 n=c#4 v=80
330720 On ch=1 n=d3 v=78
330720 On ch=1 n=d4 v=78
330840 Off ch=1 n=d4 v=80
330840 Off ch=1 n=d3 v=80
330960 On ch=1 n=c6 v=102
330960 On ch=1 n=a5 v=102
330960 On ch=1 n=f#5 v=102
331080 Off ch=1 n=f#5 v=80
331080 Off ch=1 n=a5 v=80
331080 Off ch=1 n=c6 v=80
331200 On ch=1 n=b5 v=78
331200 On ch=1 n=g5 v=78
331320 Off ch=1 n=g5 v=80
331320 Off ch=1 n=b5 v=80
331440 On ch=1 n=a5 v=78
331440 On ch=1 n=g5 v=78
331440 On ch=1 n=c5 v=78
331560 Off ch=1 n=c5 v=80
331560 Off ch=1 n=g5 v=80
331560 Off ch=1 n=a5 v=80
331680 On ch=1 n=a5 v=102
331680 On ch=1 n=f#5 v=102
331680 On ch=1 n=d5 v=78
331800 Off ch=1 n=d5 v=80
331800 Off ch=1 n=f#5 v=80
331800 Off ch=1 n=a5 v=80
331920 On ch=1 n=d5 v=78
331920 On ch=1 n=d4 v=78
332040 Off ch=1 n=d4 v=80
332040 Off ch=1 n=d5 v=80
332160 On ch=1 n=g4 v=78
332160 On ch=1 n=g3 v=78
332340 Off ch=1 n=g3 v=80
332340 Off ch=1 n=g4 v=80
332400 On ch=1 n=a3 v=78
332400 On ch=1 n=a4 v=78
332580 Off ch=1 n=a4 v=80
332580 Off ch=1 n=a3 v=80
332640 On ch=1 n=d4 v=78
332640 On ch=1 n=d3 v=78
332820 Off ch=1 n=d3 v=80
332820 Off ch=1 n=d4 v=80
332880 On ch=1 n=e4 v=78
332880 On ch=1 n=e3 v=78
332940 Off ch=1 n=e3 v=80
332940 Off ch=1 n=e4 v=80
333000 On ch=1 n=f#3 v=78
333000 On ch=1 n=f#4 v=78
333060 Off ch=1 n=f#4 v=80
333060 Off ch=1 n=f#3 v=80
333120 On ch=1 n=g4 v=78
333120 On ch=1 n=g3 v=78
333300 Off ch=1 n=g3 v=80
333300 Off ch=1 n=g4 v=80
333360 On ch=1 n=d#4 v=81
333360 On ch=1 n=d#3 v=81
333540 Off ch=1 n=d#3 v=80
333540 Off ch=1 n=d#4 v=80
333600 On ch=1 n=e4 v=84
333600 On ch=1 n=e3 v=84
333780 Off ch=1 n=e3 v=80
333780 Off ch=1 n=e4 v=80
333840 On ch=1 n=d4 v=87
333840 On ch=1 n=d3 v=87
334020 Off ch=1 n=d3 v=80
334020 Off ch=1 n=d4 v=80
334080 On ch=1 n=c#3 v=98
334080 On ch=1 n=c#4 v=98
334260 Off ch=1 n=c#4 v=80
334260 Off ch=1 n=c#3 v=80
334320 On ch=1 n=b2 v=106
334320 On ch=1 n=b3 v=106
334500 Off ch=1 n=b3 v=80
334500 Off ch=1 n=b2 v=80
334560 On ch=1 n=a2 v=114
334560 On ch=1 n=a3 v=114
334740 Off ch=1 n=a3 v=80
334740 Off ch=1 n=a2 v=80
335040 On ch=1 n=d3 v=114
335040 On ch=1 n=d2 v=114
335280 Off ch=1 n=d2 v=80
335280 Off ch=1 n=d3 v=80
335520 On ch=1 n=f#4 v=65
335760 Off ch=1 n=f#4 v=80
335760 On ch=1 n=b3 v=65
336000 Off ch=1 n=b3 v=80
336000 On ch=1 n=b3 v=65
336240 Off ch=1 n=b3 v=80
336240 On ch=1 n=e3 v=65
336480 Off ch=1 n=e3 v=80
336480 On ch=1 n=a3 v=65
336960 Off ch=1 n=a3 v=80
336960 On ch=1 n=d3 v=65
337440 Off ch=1 n=d3 v=80
337440 On ch=1 n=g3 v=65
337920 Off ch=1 n=g3 v=80
337920 On ch=1 n=c#3 v=65
338880 Off ch=1 n=c#3 v=80
338880 On ch=1 n=c#4 v=65
339360 On ch=1 n=c#3 v=65
339840 Off ch=1 n=c#3 v=80
339840 Off ch=1 n=c#4 v=80
339840 On ch=1 n=f#3 v=65
339840 On ch=1 n=c#4 v=65
340320 Off ch=1 n=c#4 v=80
340320 Off ch=1 n=f#3 v=80
340320 On ch=1 n=c#4 v=84
340800 On ch=1 n=f#3 v=78
341280 Off ch=1 n=c#4 v=80
341520 Off ch=1 n=f#3 v=80
341520 On ch=1 n=e3 v=70
341760 Off ch=1 n=e3 v=80
341760 On ch=1 n=e3 v=75
342000 Off ch=1 n=e3 v=80
342000 On ch=1 n=a#3 v=80
342240 Off ch=1 n=a#3 v=80
342240 On ch=1 n=a#3 v=85
342480 Off ch=1 n=a#3 v=80
342480 On ch=1 n=d3 v=90
342720 Off ch=1 n=d3 v=80
342720 On ch=1 n=d3 v=65
342960 On ch=1 n=g#3 v=71
343200 Off ch=1 n=g#3 v=80
343200 On ch=1 n=g#3 v=77
343440 Off ch=1 n=d3 v=80
343440 Off ch=1 n=g#3 v=80
343440 On ch=1 n=a3 v=83
343440 On ch=1 n=c#3 v=83
343680 Off ch=1 n=c#3 v=80
343680 Off ch=1 n=a3 v=80
343680 On ch=1 n=a3 v=90
343680 On ch=1 n=c#3 v=90
343920 Off ch=1 n=c#3 v=80
343920 Off ch=1 n=a3 v=80
343920 On ch=1 n=a#3 v=90
344160 Off ch=1 n=a#3 v=80
344160 On ch=1 n=b3 v=65
344160 On ch=1 n=d3 v=65
344400 Off ch=1 n=b3 v=80
344400 On ch=1 n=c4 v=69
344640 Off ch=1 n=c4 v=80
344640 On ch=1 n=b3 v=73
345120 Off ch=1 n=d3 v=80
345120 Off ch=1 n=b3 v=80
345120 On ch=1 n=c4 v=81
345120 On ch=1 n=d3 v=81
345600 Off ch=1 n=c4 v=80
345600 On ch=1 n=b3 v=90
346080 Off ch=1 n=b3 v=80
346080 On ch=1 n=c4 v=82
346560 Off ch=1 n=c4 v=80
346560 On ch=1 n=b3 v=74
347040 Off ch=1 n=d3 v=80
347040 Off ch=1 n=b3 v=80
347040 On ch=1 n=f#3 v=78
347280 Off ch=1 n=f#3 v=80
347280 On ch=1 n=f3 v=78
347520 Off ch=1 n=f3 v=80
347520 On ch=1 n=e3 v=78
348000 Off ch=1 n=e3 v=80
348000 On ch=1 n=a3 v=78
348480 Off ch=1 n=a3 v=80
348480 On ch=1 n=d3 v=65
348960 Off ch=1 n=d3 v=80
348960 On ch=1 n=g3 v=65
349440 Off ch=1 n=g3 v=80
349440 On ch=1 n=c#3 v=65
350400 Off ch=1 n=c#3 v=80
350400 On ch=1 n=c#4 v=65
350880 On ch=1 n=c#3 v=65
351360 Off ch=1 n=c#3 v=80
351360 Off ch=1 n=c#4 v=80
351360 On ch=1 n=f#3 v=65
351360 On ch=1 n=c#4 v=65
351840 Off ch=1 n=c#4 v=80
351840 Off ch=1 n=f#3 v=80
351840 On ch=1 n=c#4 v=84
352320 On ch=1 n=f#3 v=78
352800 Off ch=1 n=c#4 v=80
353040 Off ch=1 n=f#3 v=80
353040 On ch=1 n=e3 v=70
353280 Off ch=1 n=e3 v=80
353280 On ch=1 n=e3 v=75
353520 Off ch=1 n=e3 v=80
353520 On ch=1 n=a#3 v=80
353760 Off ch=1 n=a#3 v=80
353760 On ch=1 n=a#3 v=85
354000 Off ch=1 n=a#3 v=80
354000 On ch=1 n=d3 v=90
354240 Off ch=1 n=d3 v=80
354240 On ch=1 n=d3 v=65
354480 On ch=1 n=g#3 v=71
354720 Off ch=1 n=g#3 v=80
354720 On ch=1 n=g#3 v=77
354960 Off ch=1 n=d3 v=80
354960 Off ch=1 n=g#3 v=80
354960 On ch=1 n=a3 v=83
354960 On ch=1 n=c#3 v=83
355200 Off ch=1 n=c#3 v=80
355200 Off ch=1 n=a3 v=80
355200 On ch=1 n=a3 v=90
355200 On ch=1 n=c#3 v=90
355440 Off ch=1 n=c#3 v=80
355440 Off ch=1 n=a3 v=80
355440 On ch=1 n=a#3 v=78
355680 Off ch=1 n=a#3 v=80
355680 On ch=1 n=b3 v=65
355680 On ch=1 n=d3 v=65
355920 Off ch=1 n=b3 v=80
355920 On ch=1 n=c4 v=69
356160 Off ch=1 n=c4 v=80
356160 On ch=1 n=b3 v=73
356640 Off ch=1 n=d3 v=80
356640 Off ch=1 n=b3 v=80
356640 On ch=1 n=c4 v=81
356640 On ch=1 n=d3 v=81
357120 Off ch=1 n=c4 v=80
357120 On ch=1 n=b3 v=90
357600 Off ch=1 n=b3 v=80
357600 On ch=1 n=c4 v=82
358080 Off ch=1 n=c4 v=80
358080 On ch=1 n=b3 v=74
358560 Off ch=1 n=d3 v=80
358560 Off ch=1 n=b3 v=80
358560 On ch=1 n=d4 v=84
358560 On ch=1 n=g3 v=84
358800 Off ch=1 n=d4 v=80
358800 On ch=1 n=e4 v=84
359040 Off ch=1 n=e4 v=80
359040 On ch=1 n=d4 v=84
359280 Off ch=1 n=d4 v=80
359280 On ch=1 n=f4 v=84
359460 Off ch=1 n=f4 v=80
359520 Off ch=1 n=g3 v=80
359520 On ch=1 n=f4 v=84
359520 On ch=1 n=g3 v=84
359760 Off ch=1 n=f4 v=80
359760 On ch=1 n=e4 v=84
360000 Off ch=1 n=e4 v=80
360000 On ch=1 n=e4 v=84
360240 Off ch=1 n=e4 v=80
360240 On ch=1 n=f4 v=84
360480 Off ch=1 n=f4 v=80
360480 On ch=1 n=f4 v=84
360720 Off ch=1 n=f4 v=80
360720 On ch=1 n=e4 v=84
360960 Off ch=1 n=g3 v=80
360960 Off ch=1 n=e4 v=80
360960 On ch=1 n=e4 v=84
360960 On ch=1 n=g3 v=84
361200 Off ch=1 n=e4 v=80
361200 On ch=1 n=f4 v=84
361440 Off ch=1 n=f4 v=80
361440 On ch=1 n=e4 v=84
361680 Off ch=1 n=e4 v=80
361680 On ch=1 n=f4 v=84
361920 Off ch=1 n=f4 v=80
361920 On ch=1 n=e4 v=84
362160 Off ch=1 n=e4 v=80
362160 On ch=1 n=g4 v=84
362340 Off ch=1 n=g4 v=80
362400 Off ch=1 n=g3 v=80
362400 On ch=1 n=g4 v=84
362400 On ch=1 n=g3 v=84
362640 Off ch=1 n=g4 v=80
362640 On ch=1 n=f#4 v=84
362880 Off ch=1 n=f#4 v=80
362880 On ch=1 n=f#4 v=84
363120 Off ch=1 n=f#4 v=80
363120 On ch=1 n=g4 v=84
363360 Off ch=1 n=g4 v=80
363360 On ch=1 n=g4 v=84
363600 Off ch=1 n=g4 v=80
363600 On ch=1 n=f#4 v=84
363840 Off ch=1 n=g3 v=80
363840 Off ch=1 n=f#4 v=80
363840 On ch=1 n=f#4 v=84
363840 On ch=1 n=g3 v=84
364080 Off ch=1 n=f#4 v=80
364080 On ch=1 n=a4 v=84
364320 Off ch=1 n=a4 v=80
364320 On ch=1 n=g4 v=84
364560 Off ch=1 n=g3 v=80
364560 Off ch=1 n=g4 v=80
364560 On ch=1 n=a4 v=99
364560 On ch=1 n=f#3 v=99
364800 Off ch=1 n=f#3 v=80
364800 Off ch=1 n=a4 v=80
364800 On ch=1 n=a4 v=84
364800 On ch=1 n=f#3 v=84
365040 Off ch=1 n=f#3 v=80
365040 Off ch=1 n=a4 v=80
365040 On ch=1 n=g3 v=84
365040 On ch=1 n=g4 v=84
365280 Off ch=1 n=g4 v=80
365280 Off ch=1 n=g3 v=80
365280 On ch=1 n=g4 v=84
365280 On ch=1 n=g3 v=84
365520 Off ch=1 n=g3 v=80
365520 Off ch=1 n=g4 v=80
365520 On ch=1 n=a4 v=99
365520 On ch=1 n=f#3 v=99
365760 Off ch=1 n=f#3 v=80
365760 Off ch=1 n=a4 v=80
365760 On ch=1 n=a4 v=84
365760 On ch=1 n=f#3 v=84
366000 Off ch=1 n=f#3 v=80
366000 Off ch=1 n=a4 v=80
366000 On ch=1 n=g4 v=84
366000 On ch=1 n=g3 v=84
366240 Off ch=1 n=g3 v=80
366240 Off ch=1 n=g4 v=80
366240 On ch=1 n=g4 v=80
366240 On ch=1 n=g3 v=80
366480 Off ch=1 n=g3 v=80
366480 Off ch=1 n=g4 v=80
366480 On ch=1 n=d#3 v=95
366480 On ch=1 n=f#4 v=95
366720 Off ch=1 n=f#4 v=80
366720 Off ch=1 n=d#3 v=80
366720 On ch=1 n=f#4 v=80
366720 On ch=1 n=d#3 v=80
366960 Off ch=1 n=d#3 v=80
366960 Off ch=1 n=f#4 v=80
366960 On ch=1 n=e4 v=80
366960 On ch=1 n=e3 v=80
367200 Off ch=1 n=e3 v=80
367200 Off ch=1 n=e4 v=80
367200 On ch=1 n=e4 v=76
367200 On ch=1 n=e3 v=76
367440 Off ch=1 n=e3 v=80
367440 Off ch=1 n=e4 v=80
367440 On ch=1 n=f#4 v=91
367440 On ch=1 n=d#3 v=91
367680 Off ch=1 n=d#3 v=80
367680 Off ch=1 n=f#4 v=80
367680 On ch=1 n=f#4 v=76
367680 On ch=1 n=d#3 v=76
367920 Off ch=1 n=d#3 v=80
367920 Off ch=1 n=f#4 v=80
367920 On ch=1 n=e4 v=76
367920 On ch=1 n=e3 v=76
368160 Off ch=1 n=e3 v=80
368160 Off ch=1 n=e4 v=80
368160 On ch=1 n=e4 v=72
368160 On ch=1 n=e3 v=72
368400 Off ch=1 n=e3 v=80
368400 Off ch=1 n=e4 v=80
368400 On ch=1 n=c#4 v=72
368400 On ch=1 n=f#3 v=72
368640 Off ch=1 n=f#3 v=80
368640 Off ch=1 n=c#4 v=80
368640 On ch=1 n=f#3 v=72
368640 On ch=1 n=c#4 v=72
368880 Off ch=1 n=c#4 v=80
368880 Off ch=1 n=f#3 v=80
368880 On ch=1 n=d4 v=72
368880 On ch=1 n=f3 v=72
369120 Off ch=1 n=f3 v=80
369120 Off ch=1 n=d4 v=80
369120 On ch=1 n=d4 v=68
369120 On ch=1 n=f3 v=68
369360 Off ch=1 n=f3 v=80
369360 Off ch=1 n=d4 v=80
369360 On ch=1 n=c#4 v=68
369360 On ch=1 n=f#3 v=68
369600 Off ch=1 n=f#3 v=80
369600 Off ch=1 n=c#4 v=80
369600 On ch=1 n=c#4 v=68
369600 On ch=1 n=f#3 v=68
369840 Off ch=1 n=f#3 v=80
369840 Off ch=1 n=c#4 v=80
369840 On ch=1 n=f3 v=68
369840 On ch=1 n=d4 v=68
370080 Off ch=1 n=d4 v=80
370080 Off ch=1 n=f3 v=80
370080 On ch=1 n=c#4 v=65
370080 On ch=1 n=f#3 v=65
370320 Off ch=1 n=c#4 v=80
370320 On ch=1 n=d4 v=65
370560 Off ch=1 n=f#3 v=80
370560 Off ch=1 n=d4 v=80
370560 On ch=1 n=d4 v=65
370560 On ch=1 n=e3 v=65
370800 Off ch=1 n=d4 v=80
370800 On ch=1 n=e4 v=65
371040 Off ch=1 n=e3 v=80
371040 Off ch=1 n=e4 v=80
371040 On ch=1 n=a3 v=65
371520 Off ch=1 n=a3 v=80
371520 On ch=1 n=d3 v=65
372000 Off ch=1 n=d3 v=80
372000 On ch=1 n=g3 v=65
372480 Off ch=1 n=g3 v=80
372480 On ch=1 n=c#3 v=65
373440 Off ch=1 n=c#3 v=80
373440 On ch=1 n=c#4 v=75
373920 On ch=1 n=c#3 v=80
374400 Off ch=1 n=c#3 v=80
374400 Off ch=1 n=c#4 v=80
374400 On ch=1 n=f#3 v=84
374400 On ch=1 n=c#4 v=84
374880 Off ch=1 n=c#4 v=80
374880 Off ch=1 n=f#3 v=80
374880 On ch=1 n=c#4 v=84
375360 On ch=1 n=f#3 v=84
375840 Off ch=1 n=c#4 v=80
376080 Off ch=1 n=f#3 v=80
376080 On ch=1 n=e3 v=53
376320 Off ch=1 n=e3 v=80
376320 On ch=1 n=e3 v=53
376560 Off ch=1 n=e3 v=80
376560 On ch=1 n=a#3 v=53
376800 Off ch=1 n=a#3 v=80
376800 On ch=1 n=a#3 v=53
377040 Off ch=1 n=a#3 v=80
377040 On ch=1 n=d3 v=53
377280 Off ch=1 n=d3 v=80
377280 On ch=1 n=d3 v=53
377520 On ch=1 n=g#3 v=50
377760 Off ch=1 n=g#3 v=80
377760 On ch=1 n=g#3 v=47
378000 Off ch=1 n=d3 v=80
378000 Off ch=1 n=g#3 v=80
378000 On ch=1 n=a3 v=44
378000 On ch=1 n=c#3 v=44
378240 Off ch=1 n=c#3 v=80
378240 Off ch=1 n=a3 v=80
378240 On ch=1 n=a3 v=41
378240 On ch=1 n=c#3 v=41
378480 Off ch=1 n=c#3 v=80
378480 Off ch=1 n=a3 v=80
378480 On ch=1 n=b2 v=53
378720 Off ch=1 n=b2 v=80
378720 On ch=1 n=a2 v=53
378960 Off ch=1 n=a2 v=80
378960 On ch=1 n=b2 v=53
379200 Off ch=1 n=b2 v=80
379200 On ch=1 n=a2 v=53
379440 Off ch=1 n=a2 v=80
379440 On ch=1 n=d3 v=53
379680 Off ch=1 n=d3 v=80
379680 On ch=1 n=d3 v=53
379920 Off ch=1 n=d3 v=80
379920 On ch=1 n=c#3 v=53
380160 Off ch=1 n=c#3 v=80
380160 On ch=1 n=c#3 v=65
380400 Off ch=1 n=c#3 v=80
380400 On ch=1 n=d3 v=65
380640 Off ch=1 n=d3 v=80
380640 On ch=1 n=c#3 v=65
380880 Off ch=1 n=c#3 v=80
380880 On ch=1 n=f#3 v=65
381120 Off ch=1 n=f#3 v=80
381120 On ch=1 n=f#3 v=65
381360 Off ch=1 n=f#3 v=80
381360 On ch=1 n=e3 v=65
381600 Off ch=1 n=e3 v=80
381600 On ch=1 n=e3 v=65
381840 Off ch=1 n=e3 v=80
381840 On ch=1 n=f3 v=65
382080 Off ch=1 n=f3 v=80
382080 On ch=1 n=e3 v=65
382320 Off ch=1 n=e3 v=80
382320 On ch=1 n=g#3 v=65
382560 Off ch=1 n=g#3 v=80
382560 On ch=1 n=g#3 v=65
382800 Off ch=1 n=g#3 v=80
382800 On ch=1 n=g3 v=65
383040 Off ch=1 n=g3 v=80
383040 On ch=1 n=e4 v=65
383040 On ch=1 n=g3 v=65
383280 Off ch=1 n=g3 v=80
383280 Off ch=1 n=e4 v=80
383280 On ch=1 n=f4 v=65
383280 On ch=1 n=g#3 v=65
383520 Off ch=1 n=g#3 v=80
383520 Off ch=1 n=f4 v=80
383520 On ch=1 n=e4 v=65
383520 On ch=1 n=g3 v=65
383760 Off ch=1 n=g3 v=80
383760 Off ch=1 n=e4 v=80
383760 On ch=1 n=g#4 v=65
383760 On ch=1 n=b3 v=65
384000 Off ch=1 n=b3 v=80
384000 Off ch=1 n=g#4 v=80
384000 On ch=1 n=g#4 v=65
384000 On ch=1 n=b3 v=65
384240 Off ch=1 n=b3 v=80
384240 Off ch=1 n=g#4 v=80
384240 On ch=1 n=g4 v=65
384240 On ch=1 n=a#3 v=65
384480 Off ch=1 n=a#3 v=80
384480 Off ch=1 n=g4 v=80
384480 On ch=1 n=g#4 v=65
384480 On ch=1 n=b3 v=65
384720 Off ch=1 n=b3 v=80
384720 Off ch=1 n=g#4 v=80
384720 On ch=1 n=a4 v=65
384720 On ch=1 n=c4 v=65
384960 Off ch=1 n=c4 v=80
384960 Off ch=1 n=a4 v=80
384960 On ch=1 n=g#4 v=65
384960 On ch=1 n=b3 v=65
385200 Off ch=1 n=b3 v=80
385200 Off ch=1 n=g#4 v=80
385200 On ch=1 n=f4 v=65
385200 On ch=1 n=c#5 v=65
385440 Off ch=1 n=c#5 v=80
385440 Off ch=1 n=f4 v=80
385440 On ch=1 n=f4 v=65
385440 On ch=1 n=c#5 v=65
385680 Off ch=1 n=c#5 v=80
385680 Off ch=1 n=f4 v=80
385680 On ch=1 n=g#4 v=65
385680 On ch=1 n=b3 v=65
385920 Off ch=1 n=b3 v=80
385920 Off ch=1 n=g#4 v=80
385920 On ch=1 n=b3 v=65
385920 On ch=1 n=g#4 v=65
386160 Off ch=1 n=g#4 v=80
386160 Off ch=1 n=b3 v=80
386160 On ch=1 n=a4 v=65
386160 On ch=1 n=c4 v=65
386400 Off ch=1 n=c4 v=80
386400 Off ch=1 n=a4 v=80
386400 On ch=1 n=g#4 v=65
386400 On ch=1 n=b3 v=65
386640 Off ch=1 n=b3 v=80
386640 Off ch=1 n=g#4 v=80
386640 On ch=1 n=f4 v=65
386640 On ch=1 n=c#5 v=65
386880 Off ch=1 n=c#5 v=80
386880 Off ch=1 n=f4 v=80
386880 On ch=1 n=f4 v=65
386880 On ch=1 n=c#5 v=65
387120 Off ch=1 n=c#5 v=80
387120 Off ch=1 n=f4 v=80
387120 On ch=1 n=g#4 v=65
387120 On ch=1 n=b3 v=65
387360 Off ch=1 n=b3 v=80
387360 Off ch=1 n=g#4 v=80
387360 On ch=1 n=g4 v=65
387360 On ch=1 n=a#3 v=65
387600 Off ch=1 n=a#3 v=80
387600 Off ch=1 n=g4 v=80
387600 On ch=1 n=g#4 v=65
387600 On ch=1 n=b3 v=65
387840 Off ch=1 n=b3 v=80
387840 Off ch=1 n=g#4 v=80
387840 On ch=1 n=g4 v=65
387840 On ch=1 n=a#3 v=65
388080 Off ch=1 n=a#3 v=80
388080 Off ch=1 n=g4 v=80
388080 On ch=1 n=c#5 v=65
388080 On ch=1 n=e4 v=65
388320 Off ch=1 n=e4 v=80
388320 Off ch=1 n=c#5 v=80
388320 On ch=1 n=c#5 v=65
388320 On ch=1 n=e4 v=65
388560 Off ch=1 n=e4 v=80
388560 Off ch=1 n=c#5 v=80
388560 On ch=1 n=g4 v=65
388560 On ch=1 n=a#3 v=65
388800 Off ch=1 n=a#3 v=80
388800 Off ch=1 n=g4 v=80
388800 On ch=1 n=a#3 v=65
388800 On ch=1 n=g4 v=65
389040 Off ch=1 n=g4 v=80
389040 Off ch=1 n=a#3 v=80
389040 On ch=1 n=g#4 v=65
389040 On ch=1 n=b3 v=65
389280 Off ch=1 n=b3 v=80
389280 Off ch=1 n=g#4 v=80
389280 On ch=1 n=g4 v=65
389280 On ch=1 n=a#3 v=65
389520 Off ch=1 n=a#3 v=80
389520 Off ch=1 n=g4 v=80
389520 On ch=1 n=c#5 v=65
389520 On ch=1 n=e4 v=65
389760 Off ch=1 n=e4 v=80
389760 Off ch=1 n=c#5 v=80
389760 On ch=1 n=c#5 v=65
389760 On ch=1 n=e4 v=65
390000 Off ch=1 n=e4 v=80
390000 Off ch=1 n=c#5 v=80
390000 On ch=1 n=g4 v=65
390000 On ch=1 n=a#3 v=65
390240 Off ch=1 n=a#3 v=80
390240 Off ch=1 n=g4 v=80
390240 On ch=1 n=a3 v=65
390240 On ch=1 n=g4 v=65
390480 Off ch=1 n=g4 v=80
390480 Off ch=1 n=a3 v=80
390480 On ch=1 n=g#4 v=65
390480 On ch=1 n=a#3 v=65
390720 Off ch=1 n=a#3 v=80
390720 Off ch=1 n=g#4 v=80
390720 On ch=1 n=g4 v=65
390720 On ch=1 n=a3 v=65
390960 Off ch=1 n=a3 v=80
390960 Off ch=1 n=g4 v=80
390960 On ch=1 n=g#4 v=65
390960 On ch=1 n=a#3 v=65
391200 Off ch=1 n=a#3 v=80
391200 Off ch=1 n=g#4 v=80
391200 On ch=1 n=g4 v=65
391200 On ch=1 n=a3 v=65
391440 Off ch=1 n=a3 v=80
391440 Off ch=1 n=g4 v=80
391440 On ch=1 n=a#3 v=65
391440 On ch=1 n=g#4 v=65
391680 Off ch=1 n=g#4 v=80
391680 Off ch=1 n=a#3 v=80
391680 On ch=1 n=g4 v=65
391680 On ch=1 n=a3 v=65
391860 Off ch=1 n=a3 v=80
391860 Off ch=1 n=g4 v=80
391920 On ch=1 n=f#4 v=65
391920 On ch=1 n=a#3 v=65
392100 Off ch=1 n=a#3 v=80
392100 Off ch=1 n=f#4 v=80
392160 On ch=1 n=a3 v=65
392160 On ch=1 n=g4 v=65
392340 Off ch=1 n=g4 v=80
392340 Off ch=1 n=a3 v=80
392400 On ch=1 n=f#4 v=65
392400 On ch=1 n=a#3 v=65
392580 Off ch=1 n=a#3 v=80
392580 Off ch=1 n=f#4 v=80
392640 On ch=1 n=a3 v=65
392640 On ch=1 n=g4 v=65
392820 Off ch=1 n=g4 v=80
392820 Off ch=1 n=a3 v=80
392880 On ch=1 n=f#4 v=65
392880 On ch=1 n=a#3 v=65
393060 Off ch=1 n=a#3 v=80
393060 Off ch=1 n=f#4 v=80
393120 On ch=1 n=g4 v=65
393120 On ch=1 n=a3 v=65
393360 Off ch=1 n=a3 v=80
393360 Off ch=1 n=g4 v=80
393360 On ch=1 n=g#4 v=65
393360 On ch=1 n=a#3 v=65
393600 Off ch=1 n=a#3 v=80
393600 Off ch=1 n=g#4 v=80
393600 On ch=1 n=g4 v=65
393600 On ch=1 n=a3 v=65
393840 Off ch=1 n=a3 v=80
393840 Off ch=1 n=g4 v=80
393840 On ch=1 n=g#4 v=65
393840 On ch=1 n=a#3 v=65
394080 Off ch=1 n=a#3 v=80
394080 Off ch=1 n=g#4 v=80
394080 On ch=1 n=g4 v=65
394080 On ch=1 n=a3 v=65
394320 Off ch=1 n=a3 v=80
394320 Off ch=1 n=g4 v=80
394320 On ch=1 n=g#4 v=65
394320 On ch=1 n=a#3 v=65
394560 Off ch=1 n=a#3 v=80
394560 Off ch=1 n=g#4 v=80
394560 On ch=1 n=a3 v=65
394560 On ch=1 n=g4 v=65
394740 Off ch=1 n=g4 v=80
394740 Off ch=1 n=a3 v=80
394800 On ch=1 n=f#4 v=65
394800 On ch=1 n=a#3 v=65
394980 Off ch=1 n=a#3 v=80
394980 Off ch=1 n=f#4 v=80
395040 On ch=1 n=a3 v=65
395040 On ch=1 n=g4 v=65
395220 Off ch=1 n=g4 v=80
395220 Off ch=1 n=a3 v=80
395280 On ch=1 n=f#4 v=65
395280 On ch=1 n=a#3 v=65
395460 Off ch=1 n=a#3 v=80
395460 Off ch=1 n=f#4 v=80
395520 On ch=1 n=a3 v=65
395520 On ch=1 n=g4 v=65
395760 Off ch=1 n=g4 v=80
395760 On ch=1 n=g#4 v=65
396000 Off ch=1 n=g#4 v=80
396240 Off ch=1 n=a3 v=80
396240 On ch=1 n=c#4 v=53
396720 Off ch=1 n=c#4 v=80
396720 On ch=1 n=c#4 v=53
397200 Off ch=1 n=c#4 v=80
397200 On ch=1 n=c#4 v=53
397440 Off ch=1 n=c#4 v=80
397680 On ch=1 n=a4 v=53
397680 On ch=1 n=d4 v=53
397920 Off ch=1 n=d4 v=80
397920 Off ch=1 n=a4 v=80
397920 On ch=1 n=d4 v=53
397920 On ch=1 n=a4 v=53
398160 Off ch=1 n=a4 v=80
398160 Off ch=1 n=d4 v=80
398160 On ch=1 n=a4 v=53
398160 On ch=1 n=d4 v=53
398400 Off ch=1 n=d4 v=80
398400 Off ch=1 n=a4 v=80
398640 On ch=1 n=g#4 v=53
398640 On ch=1 n=b3 v=53
398880 Off ch=1 n=b3 v=80
398880 Off ch=1 n=g#4 v=80
399120 On ch=1 n=c#4 v=47
399120 On ch=1 n=a4 v=47
399600 Off ch=1 n=a4 v=80
399600 Off ch=1 n=c#4 v=80
399600 On ch=1 n=a4 v=47
399600 On ch=1 n=c#4 v=47
400080 Off ch=1 n=c#4 v=80
400080 Off ch=1 n=a4 v=80
400080 On ch=1 n=a4 v=47
400080 On ch=1 n=c#4 v=47
400320 Off ch=1 n=c#4 v=80
400320 Off ch=1 n=a4 v=80
400560 On ch=1 n=a4 v=53
400560 On ch=1 n=d4 v=53
400800 Off ch=1 n=d4 v=80
400800 Off ch=1 n=a4 v=80
400800 On ch=1 n=a4 v=53
400800 On ch=1 n=d4 v=53
401040 Off ch=1 n=d4 v=80
401040 Off ch=1 n=a4 v=80
401040 On ch=1 n=a4 v=53
401040 On ch=1 n=d4 v=53
401280 Off ch=1 n=d4 v=80
401280 Off ch=1 n=a4 v=80
401520 On ch=1 n=g#4 v=53
401520 On ch=1 n=b3 v=53
401760 Off ch=1 n=b3 v=80
401760 Off ch=1 n=g#4 v=80
402000 On ch=1 n=a4 v=47
402000 On ch=1 n=c#4 v=47
402480 Off ch=1 n=c#4 v=80
402480 Off ch=1 n=a4 v=80
402480 On ch=1 n=c#4 v=47
402480 On ch=1 n=a4 v=47
402960 Off ch=1 n=a4 v=80
402960 Off ch=1 n=c#4 v=80
402960 On ch=1 n=a4 v=47
402960 On ch=1 n=c#4 v=47
403200 Off ch=1 n=c#4 v=80
403200 Off ch=1 n=a4 v=80
403440 On ch=1 n=d4 v=53
403440 On ch=1 n=a4 v=53
403680 Off ch=1 n=a4 v=80
403680 Off ch=1 n=d4 v=80
403680 On ch=1 n=a4 v=53
403680 On ch=1 n=d4 v=53
403920 Off ch=1 n=d4 v=80
403920 Off ch=1 n=a4 v=80
403920 On ch=1 n=a4 v=53
403920 On ch=1 n=d4 v=53
404160 Off ch=1 n=d4 v=80
404160 Off ch=1 n=a4 v=80
404400 On ch=1 n=g#3 v=53
404400 On ch=1 n=e4 v=53
404640 Off ch=1 n=e4 v=80
404640 Off ch=1 n=g#3 v=80
404880 On ch=1 n=g4 v=47
404880 On ch=1 n=a3 v=47
405360 Off ch=1 n=a3 v=80
405360 Off ch=1 n=g4 v=80
405360 On ch=1 n=a3 v=47
405360 On ch=1 n=g4 v=47
405840 Off ch=1 n=g4 v=80
405840 Off ch=1 n=a3 v=80
405840 On ch=1 n=a3 v=47
405840 On ch=1 n=g4 v=47
406080 Off ch=1 n=g4 v=80
406080 Off ch=1 n=a3 v=80
406320 On ch=1 n=f#4 v=61
406320 On ch=1 n=a3 v=61
406560 Off ch=1 n=a3 v=80
406560 Off ch=1 n=f#4 v=80
406560 On ch=1 n=f#4 v=57
406560 On ch=1 n=a3 v=57
406800 Off ch=1 n=a3 v=80
406800 Off ch=1 n=f#4 v=80
406800 On ch=1 n=d3 v=53
406890 Off ch=1 n=d3 v=80
406920 On ch=1 n=d3 v=53
407010 Off ch=1 n=d3 v=80
407040 On ch=1 n=d#3 v=53
407160 Off ch=1 n=d#3 v=80
407280 On ch=1 n=c#3 v=53
407400 Off ch=1 n=c#3 v=80
407520 On ch=1 n=d3 v=53
407760 Off ch=1 n=d3 v=80
407760 On ch=1 n=c5 v=61
407760 On ch=1 n=f#4 v=61
408000 Off ch=1 n=f#4 v=80
408000 Off ch=1 n=c5 v=80
408000 On ch=1 n=c5 v=57
408000 On ch=1 n=f#4 v=57
408240 Off ch=1 n=f#4 v=80
408240 Off ch=1 n=c5 v=80
408240 On ch=1 n=d3 v=53
408330 Off ch=1 n=d3 v=80
408360 On ch=1 n=d3 v=53
408450 Off ch=1 n=d3 v=80
408480 On ch=1 n=d#3 v=53
408600 Off ch=1 n=d#3 v=80
408720 On ch=1 n=c#3 v=53
408840 Off ch=1 n=c#3 v=80
408960 On ch=1 n=d3 v=53
409200 Off ch=1 n=d3 v=80
409200 On ch=1 n=b4 v=61
409200 On ch=1 n=g4 v=61
409440 Off ch=1 n=g4 v=80
409440 Off ch=1 n=b4 v=80
409440 On ch=1 n=b4 v=57
409440 On ch=1 n=g4 v=57
409680 Off ch=1 n=g4 v=80
409680 Off ch=1 n=b4 v=80
409680 On ch=1 n=d3 v=53
409770 Off ch=1 n=d3 v=80
409800 On ch=1 n=d3 v=53
409890 Off ch=1 n=d3 v=80
409920 On ch=1 n=d#3 v=53
410040 Off ch=1 n=d#3 v=80
410160 On ch=1 n=c#3 v=53
410280 Off ch=1 n=c#3 v=80
410400 On ch=1 n=d3 v=53
410640 Off ch=1 n=d3 v=80
410640 On ch=1 n=f#4 v=61
410640 On ch=1 n=a4 v=61
410880 Off ch=1 n=a4 v=80
410880 Off ch=1 n=f#4 v=80
410880 On ch=1 n=f#4 v=57
410880 On ch=1 n=a4 v=57
411120 Off ch=1 n=a4 v=80
411120 Off ch=1 n=f#4 v=80
411120 On ch=1 n=d3 v=53
411210 Off ch=1 n=d3 v=80
411240 On ch=1 n=d3 v=53
411330 Off ch=1 n=d3 v=80
411360 On ch=1 n=d#3 v=53
411480 Off ch=1 n=d#3 v=80
411600 On ch=1 n=c#3 v=53
411720 Off ch=1 n=c#3 v=80
411840 On ch=1 n=d3 v=53
412080 Off ch=1 n=d3 v=80
412080 On ch=1 n=g4 v=61
412080 On ch=1 n=d5 v=61
412320 Off ch=1 n=d5 v=80
412320 Off ch=1 n=g4 v=80
412320 On ch=1 n=g4 v=57
412320 On ch=1 n=d5 v=57
412560 Off ch=1 n=d5 v=80
412560 Off ch=1 n=g4 v=80
412560 On ch=1 n=d3 v=53
412650 Off ch=1 n=d3 v=80
412680 On ch=1 n=d3 v=53
412770 Off ch=1 n=d3 v=80
412800 On ch=1 n=d#3 v=53
412920 Off ch=1 n=d#3 v=80
413040 On ch=1 n=c3 v=53
413160 Off ch=1 n=c3 v=80
413220 On ch=1 n=c#3 v=65
413280 Off ch=1 n=c#3 v=80
413280 On ch=1 n=a4 v=90
413760 On ch=1 n=c#4 v=72
414240 Off ch=1 n=c#4 v=80
414240 On ch=1 n=e4 v=72
414720 Off ch=1 n=a4 v=80
414720 Off ch=1 n=e4 v=80
414720 On ch=1 n=a4 v=90
415200 On ch=1 n=d4 v=72
415680 Off ch=1 n=d4 v=80
415680 Off ch=1 n=a4 v=80
415680 On ch=1 n=g#4 v=90
415680 On ch=1 n=b3 v=72
416160 Off ch=1 n=b3 v=80
416160 Off ch=1 n=g#4 v=80
416160 On ch=1 n=g4 v=90
416640 On ch=1 n=c#4 v=72
417120 Off ch=1 n=c#4 v=80
417120 On ch=1 n=e4 v=72
417600 Off ch=1 n=g4 v=80
417600 Off ch=1 n=e4 v=80
417600 On ch=1 n=f#4 v=90
418080 On ch=1 n=d4 v=72
418560 Off ch=1 n=d4 v=80
418560 Off ch=1 n=f#4 v=80
418560 On ch=1 n=f4 v=90
418560 On ch=1 n=g#3 v=72
419040 Off ch=1 n=g#3 v=80
419040 Off ch=1 n=f4 v=80
419040 On ch=1 n=e4 v=90
419520 On ch=1 n=a3 v=70
420000 Off ch=1 n=a3 v=80
420000 Off ch=1 n=e4 v=80
420000 On ch=1 n=a4 v=70
420000 On ch=1 n=c#4 v=70
420480 Off ch=1 n=c#4 v=80
420480 On ch=1 n=d4 v=70
420960 Off ch=1 n=d4 v=80
420960 On ch=1 n=f#3 v=65
420960 On ch=1 n=f#2 v=65
421440 Off ch=1 n=f#2 v=80
421440 Off ch=1 n=a4 v=80
421440 Off ch=1 n=f#3 v=80
421440 On ch=1 n=g#2 v=65
421440 On ch=1 n=g#3 v=65
421920 Off ch=1 n=g#3 v=80
421920 Off ch=1 n=g#2 v=80
421920 On ch=1 n=a3 v=65
421920 On ch=1 n=a2 v=65
422400 Off ch=1 n=a2 v=80
422400 On ch=1 n=a2 v=65
422400 On ch=1 n=g4 v=65
422880 Off ch=1 n=g4 v=80
423360 Off ch=1 n=a2 v=80
423840 Off ch=1 n=a3 v=80
424080 On ch=1 n=d3 v=53
424170 Off ch=1 n=d3 v=80
424200 On ch=1 n=d3 v=53
424290 Off ch=1 n=d3 v=80
424320 On ch=1 n=d#3 v=53
424440 Off ch=1 n=d#3 v=80
424560 On ch=1 n=c#3 v=53
424680 Off ch=1 n=c#3 v=80
425520 On ch=1 n=d3 v=50
425610 Off ch=1 n=d3 v=80
425640 On ch=1 n=d3 v=50
425730 Off ch=1 n=d3 v=80
425760 On ch=1 n=d#3 v=50
425880 Off ch=1 n=d#3 v=80
426000 On ch=1 n=c#3 v=50
426120 Off ch=1 n=c#3 v=80
426960 On ch=1 n=d3 v=47
427050 Off ch=1 n=d3 v=80
427080 On ch=1 n=d3 v=47
427170 Off ch=1 n=d3 v=80
427200 On ch=1 n=e3 v=47
427320 Off ch=1 n=e3 v=80
427440 On ch=1 n=c3 v=47
427560 Off ch=1 n=c3 v=80
427680 On ch=1 n=d3 v=44
432000 Off ch=1 n=d3 v=80
432000 Meta TrkEnd
TrkEnd
MTrk
0 Meta TrkName "Pedal"
0 Meta 0x21 00
0 Meta 0x20 00
0 Par ch=1 c=10 v=64
0 PrCh ch=1 p=0
3840 Par ch=1 c=64 v=127
4280 Par ch=1 c=64 v=0
10080 Par ch=1 c=64 v=127
11480 Par ch=1 c=64 v=0
18840 Par ch=1 c=64 v=127
19640 Par ch=1 c=64 v=0
20280 Par ch=1 c=64 v=127
21080 Par ch=1 c=64 v=0
21720 Par ch=1 c=64 v=127
22520 Par ch=1 c=64 v=0
23160 Par ch=1 c=64 v=127
23960 Par ch=1 c=64 v=0
26040 Par ch=1 c=64 v=127
26840 Par ch=1 c=64 v=0
38880 Par ch=1 c=64 v=127
40280 Par ch=1 c=64 v=0
71280 Par ch=1 c=64 v=127
72000 Par ch=1 c=64 v=0
72960 Par ch=1 c=64 v=127
74160 Par ch=1 c=64 v=0
74400 Par ch=1 c=64 v=127
75100 Par ch=1 c=64 v=0
137760 Par ch=1 c=64 v=127
138240 Par ch=1 c=64 v=0
143520 Par ch=1 c=64 v=127
144000 Par ch=1 c=64 v=0
158400 Par ch=1 c=64 v=127
159800 Par ch=1 c=64 v=0
167040 Par ch=1 c=64 v=127
168240 Par ch=1 c=64 v=0
168480 Par ch=1 c=64 v=127
169640 Par ch=1 c=64 v=0
169920 Par ch=1 c=64 v=127
171560 Par ch=1 c=64 v=0
171600 Par ch=1 c=64 v=127
172520 Par ch=1 c=64 v=0
172800 Par ch=1 c=64 v=127
174440 Par ch=1 c=64 v=0
174480 Par ch=1 c=64 v=127
175400 Par ch=1 c=64 v=0
175680 Par ch=1 c=64 v=127
177320 Par ch=1 c=64 v=0
177360 Par ch=1 c=64 v=127
178520 Par ch=1 c=64 v=0
178560 Par ch=1 c=64 v=127
179760 Par ch=1 c=64 v=0
180000 Par ch=1 c=64 v=127
181160 Par ch=1 c=64 v=0
181440 Par ch=1 c=64 v=127
183080 Par ch=1 c=64 v=0
183120 Par ch=1 c=64 v=127
184040 Par ch=1 c=64 v=0
184320 Par ch=1 c=64 v=127
185960 Par ch=1 c=64 v=0
186000 Par ch=1 c=64 v=127
186920 Par ch=1 c=64 v=0
187200 Par ch=1 c=64 v=127
190040 Par ch=1 c=64 v=0
190080 Par ch=1 c=64 v=127
191280 Par ch=1 c=64 v=0
191520 Par ch=1 c=64 v=127
192680 Par ch=1 c=64 v=0
192960 Par ch=1 c=64 v=127
194360 Par ch=1 c=64 v=0
194400 Par ch=1 c=64 v=127
195560 Par ch=1 c=64 v=0
195840 Par ch=1 c=64 v=127
197240 Par ch=1 c=64 v=0
197280 Par ch=1 c=64 v=127
198440 Par ch=1 c=64 v=0
198720 Par ch=1 c=64 v=127
200120 Par ch=1 c=64 v=0
200160 Par ch=1 c=64 v=127
200400 Par ch=1 c=64 v=0
239040 Par ch=1 c=64 v=127
240440 Par ch=1 c=64 v=0
326880 Par ch=1 c=64 v=127
328280 Par ch=1 c=64 v=0
396000 Par ch=1 c=64 v=127
397200 Par ch=1 c=64 v=0
397440 Par ch=1 c=64 v=127
398600 Par ch=1 c=64 v=0
398880 Par ch=1 c=64 v=127
400520 Par ch=1 c=64 v=0
400560 Par ch=1 c=64 v=127
401480 Par ch=1 c=64 v=0
401760 Par ch=1 c=64 v=127
403400 Par ch=1 c=64 v=0
403440 Par ch=1 c=64 v=127
404360 Par ch=1 c=64 v=0
404640 Par ch=1 c=64 v=127
406040 Par ch=1 c=64 v=0
407760 Par ch=1 c=64 v=127
408240 Par ch=1 c=64 v=0
409200 Par ch=1 c=64 v=127
409680 Par ch=1 c=64 v=0
410640 Par ch=1 c=64 v=127
411120 Par ch=1 c=64 v=0
412080 Par ch=1 c=64 v=127
412560 Par ch=1 c=64 v=0
413280 Par ch=1 c=64 v=127
414480 Par ch=1 c=64 v=0
414660 Par ch=1 c=64 v=127
415680 Par ch=1 c=64 v=0
416160 Par ch=1 c=64 v=127
417800 Par ch=1 c=64 v=0
417840 Par ch=1 c=64 v=127
418560 Par ch=1 c=64 v=0
419040 Par ch=1 c=64 v=127
420440 Par ch=1 c=64 v=0
420480 Par ch=1 c=64 v=127
421640 Par ch=1 c=64 v=0
421920 Par ch=1 c=64 v=127
424080 Par ch=1 c=64 v=0
424800 Par ch=1 c=64 v=127
425520 Par ch=1 c=64 v=0
426240 Par ch=1 c=64 v=127
426960 Par ch=1 c=64 v=0
429120 Par ch=1 c=64 v=127
429120 Meta TrkEnd
TrkEnd
