MFile 1 4 480
MTrk
0 Tempo 365853
0 TimeSig 2/4 24 8
0 KeySig 3 major
1920 Tempo 389610
2880 Tempo 416666
3600 Tempo 526315
3840 Tempo 365853
5760 Tempo 447761
6720 Tempo 526315
7200 Tempo 638297
7680 Tempo 526315
10560 Tempo 1111111
11040 Tempo 810810
11520 Tempo 416666
12000 Tempo 365853
13440 Tempo 447761
14400 Tempo 526315
14880 Tempo 714285
15360 Tempo 447761
16320 Tempo 431654
16800 Tempo 389610
17280 Tempo 389610
19200 Tempo 431654
20160 Tempo 483870
22080 Tempo 526315
23040 Tempo 431654
24000 Tempo 416666
28800 Tempo 526315
29760 Tempo 638297
30720 Tempo 465116
31200 Tempo 416666
32160 Tempo 402684
34560 Tempo 447761
35520 Tempo 483870
36480 Tempo 638297
37440 Tempo 810810
38400 Tempo 384615
40320 Tempo 458015
41280 Tempo 566037
42240 Tempo 384615
44160 Tempo 458015
45120 Tempo 566037
46080 Tempo 517241
46440 Tempo 384615
48960 Tempo 441176
49440 Tempo 517241
50400 Tempo 441176
50880 Tempo 476190
51840 Tempo 517241
53760 Tempo 504201
54240 Tempo 431654
55200 Tempo 416666
56160 Tempo 402684
57600 Tempo 447761
58560 Tempo 526315
59520 Tempo 674157
60480 Tempo 810810
61440 Tempo 365853
64320 Tempo 416666
65040 Tempo 526315
65280 Tempo 389610
67200 Tempo 447761
68160 Tempo 526315
68640 Tempo 638297
69120 Tempo 461538
69600 Tempo 375000
75360 Tempo 444444
75840 Tempo 521739
76320 Tempo 375000
76560 Tempo 428571
77280 Tempo 375000
80640 Tempo 363636
84480 Tempo 352941
96000 Tempo 365853
97920 Tempo 352941
102720 Tempo 400000
103680 Tempo 413793
104640 Tempo 428571
105600 Tempo 357142
106560 Tempo 327868
107520 Tempo 310880
108480 Tempo 288461
109440 Tempo 357142
110400 Tempo 303030
111360 Tempo 288461
112800 Tempo 324324
113280 Tempo 333333
115200 Tempo 333333
117120 Tempo 363636
119040 Tempo 375000
120960 Tempo 342857
122880 Tempo 333333
124800 Tempo 363636
125760 Tempo 413793
126720 Tempo 428571
127680 Tempo 480000
128400 Tempo 666666
128640 Tempo 545454
129120 Tempo 461538
129600 Tempo 428571
130560 Tempo 400000
132960 Tempo 428571
133440 Tempo 480000
134400 Tempo 545454
134880 Tempo 428571
136320 Tempo 400000
138720 Tempo 461538
139200 Tempo 545454
140160 Tempo 750000
140640 Tempo 444444
141120 Tempo 413793
141600 Tempo 400000
145440 Tempo 375000
151680 Tempo 363636
154080 Tempo 352941
161280 Tempo 340909
182400 Tempo 342857
184320 Tempo 352941
187200 Tempo 400000
188160 Tempo 413793
189120 Tempo 428571
190080 Tempo 340909
191040 Tempo 314136
192000 Tempo 298507
192960 Tempo 277777
193920 Tempo 340909
194880 Tempo 291262
195840 Tempo 277777
197280 Tempo 310880
197760 Tempo 340909
198720 Tempo 322580
199680 Tempo 314136
201600 Tempo 340909
202560 Tempo 361445
204480 Tempo 372670
205440 Tempo 340909
209280 Tempo 441176
210240 Tempo 397350
210720 Tempo 458015
211200 Tempo 495867
212160 Tempo 631578
212880 Tempo 1090909
213120 Tempo 428571
215040 Tempo 400000
217920 Tempo 461538
218880 Tempo 545454
219360 Tempo 400000
223200 Tempo 444444
223680 Tempo 480000
224640 Tempo 545454
225120 Tempo 400000
226560 Tempo 375000
238560 Tempo 363636
241920 Tempo 352941
245760 Tempo 340909
251040 Tempo 372670
252000 Tempo 441176
252960 Tempo 789473
253440 Tempo 458015
255840 Tempo 517241
256800 Tempo 566037
257760 Tempo 431654
258720 Tempo 389610
261120 Tempo 431654
262080 Tempo 483870
264000 Tempo 526315
264960 Tempo 431654
265920 Tempo 416666
270720 Tempo 526315
271680 Tempo 638297
272640 Tempo 465116
273120 Tempo 416666
274080 Tempo 402684
276480 Tempo 447761
278880 Tempo 377358
280800 Tempo 365853
282720 Tempo 355029
284640 Tempo 344827
286560 Tempo 326086
288480 Tempo 389610
288960 Tempo 416666
289440 Tempo 447761
289920 Tempo 483870
290400 Tempo 1176470
290760 Tempo 416666
294720 Tempo 402684
298560 Tempo 389610
306720 Tempo 377358
309600 Tempo 447761
310080 Tempo 377358
313440 Tempo 431654
313920 Tempo 377358
315360 Tempo 389610
318240 Tempo 416666
319680 Tempo 447761
322080 Tempo 526315
322560 Tempo 550458
323520 Tempo 576923
326400 Tempo 714285
327360 Tempo 1363636
327360 Meta TrkEnd
TrkEnd
MTrk
0 Meta TrkName "Piano R Hand"
0 Meta 0x21 00
0 Meta 0x20 00
0 Par ch=1 c=10 v=64
0 PrCh ch=1 p=0
0 On ch=1 n=e6 v=102
0 On ch=1 n=g5 v=102
480 Off ch=1 n=g5 v=80
480 Off ch=1 n=e6 v=80
480 On ch=1 n=d6 v=65
480 On ch=1 n=f#5 v=65
600 Off ch=1 n=f#5 v=80
600 Off ch=1 n=d6 v=80
720 On ch=1 n=c#6 v=59
720 On ch=1 n=e5 v=59
840 Off ch=1 n=e5 v=80
840 Off ch=1 n=c#6 v=80
960 On ch=1 n=b5 v=53
960 On ch=1 n=d#5 v=53
1080 Off ch=1 n=d#5 v=80
1080 Off ch=1 n=b5 v=80
1170 On ch=1 n=c#6 v=53
1200 Off ch=1 n=c#6 v=80
1200 On ch=1 n=b5 v=53
1200 On ch=1 n=d#5 v=53
1320 Off ch=1 n=d#5 v=80
1320 Off ch=1 n=b5 v=80
1440 On ch=1 n=b5 v=53
1440 On ch=1 n=e5 v=53
1560 Off ch=1 n=e5 v=80
1560 Off ch=1 n=b5 v=80
1680 On ch=1 n=b5 v=53
1680 On ch=1 n=e5 v=53
1800 Off ch=1 n=e5 v=80
1800 Off ch=1 n=b5 v=80
1920 On ch=1 n=e6 v=102
1920 On ch=1 n=g5 v=102
2400 Off ch=1 n=g5 v=80
2400 Off ch=1 n=e6 v=80
2400 On ch=1 n=d6 v=65
2400 On ch=1 n=f#5 v=65
2520 Off ch=1 n=f#5 v=80
2520 Off ch=1 n=d6 v=80
2640 On ch=1 n=c#6 v=59
2640 On ch=1 n=e5 v=59
2760 Off ch=1 n=e5 v=80
2760 Off ch=1 n=c#6 v=80
2880 On ch=1 n=b5 v=53
2880 On ch=1 n=d#5 v=53
3000 Off ch=1 n=d#5 v=80
3000 Off ch=1 n=b5 v=80
3120 On ch=1 n=b5 v=53
3120 On ch=1 n=d5 v=53
3240 Off ch=1 n=d5 v=80
3240 Off ch=1 n=b5 v=80
3360 On ch=1 n=c#5 v=53
3360 On ch=1 n=a5 v=53
3720 Off ch=1 n=a5 v=80
3720 Off ch=1 n=c#5 v=80
3840 On ch=1 n=e6 v=102
3840 On ch=1 n=g5 v=102
4320 Off ch=1 n=g5 v=80
4320 Off ch=1 n=e6 v=80
4320 On ch=1 n=d6 v=65
4320 On ch=1 n=f#5 v=65
4440 Off ch=1 n=f#5 v=80
4440 Off ch=1 n=d6 v=80
4560 On ch=1 n=c#6 v=59
4560 On ch=1 n=e5 v=59
4680 Off ch=1 n=e5 v=80
4680 Off ch=1 n=c#6 v=80
4800 On ch=1 n=b5 v=53
4800 On ch=1 n=d#5 v=53
4920 Off ch=1 n=d#5 v=80
4920 Off ch=1 n=b5 v=80
5010 On ch=1 n=c#6 v=53
5040 Off ch=1 n=c#6 v=80
5040 On ch=1 n=b5 v=53
5040 On ch=1 n=d#5 v=53
5160 Off ch=1 n=d#5 v=80
5160 Off ch=1 n=b5 v=80
5280 On ch=1 n=b5 v=53
5280 On ch=1 n=e5 v=53
5400 Off ch=1 n=e5 v=80
5400 Off ch=1 n=b5 v=80
5520 On ch=1 n=b5 v=53
5520 On ch=1 n=e5 v=53
5640 Off ch=1 n=e5 v=80
5640 Off ch=1 n=b5 v=80
5760 On ch=1 n=e6 v=102
5760 On ch=1 n=g5 v=102
6240 Off ch=1 n=g5 v=80
6240 Off ch=1 n=e6 v=80
6240 On ch=1 n=d6 v=65
6240 On ch=1 n=f#5 v=65
6360 Off ch=1 n=f#5 v=80
6360 Off ch=1 n=d6 v=80
6480 On ch=1 n=c#6 v=59
6480 On ch=1 n=e5 v=59
6600 Off ch=1 n=e5 v=80
6600 Off ch=1 n=c#6 v=80
6720 On ch=1 n=b5 v=53
6720 On ch=1 n=d#5 v=53
6840 Off ch=1 n=d#5 v=80
6840 Off ch=1 n=b5 v=80
6960 On ch=1 n=b5 v=53
6960 On ch=1 n=d5 v=53
7080 Off ch=1 n=d5 v=80
7080 Off ch=1 n=b5 v=80
7200 On ch=1 n=c#5 v=53
7200 On ch=1 n=a5 v=53
7560 Off ch=1 n=a5 v=80
7560 Off ch=1 n=c#5 v=80
7680 On ch=1 n=b6 v=102
7680 On ch=1 n=f#6 v=102
7680 On ch=1 n=b5 v=102
7920 Off ch=1 n=b5 v=80
7920 Off ch=1 n=f#6 v=80
7920 Off ch=1 n=b6 v=80
7920 On ch=1 n=b5 v=102
7920 On ch=1 n=f#6 v=102
7920 On ch=1 n=b6 v=102
8160 Off ch=1 n=b6 v=80
8160 Off ch=1 n=f#6 v=80
8160 Off ch=1 n=b5 v=80
8400 On ch=1 n=b5 v=102
8400 On ch=1 n=f#6 v=102
8400 On ch=1 n=b6 v=102
8640 Off ch=1 n=b6 v=80
8640 Off ch=1 n=f#6 v=80
8640 Off ch=1 n=b5 v=80
8880 On ch=1 n=b6 v=102
8880 On ch=1 n=g#6 v=102
8880 On ch=1 n=b5 v=102
9120 Off ch=1 n=b5 v=80
9120 Off ch=1 n=g#6 v=80
9120 Off ch=1 n=b6 v=80
9120 On ch=1 n=b5 v=102
9120 On ch=1 n=g#6 v=102
9120 On ch=1 n=b6 v=102
9360 Off ch=1 n=b6 v=80
9360 Off ch=1 n=g#6 v=80
9360 Off ch=1 n=b5 v=80
9360 On ch=1 n=b5 v=102
9360 On ch=1 n=g#6 v=102
9360 On ch=1 n=b6 v=102
9600 Off ch=1 n=b6 v=80
9600 Off ch=1 n=g#6 v=80
9600 Off ch=1 n=b5 v=80
9600 On ch=1 n=d7 v=102
9600 On ch=1 n=a6 v=102
9600 On ch=1 n=d6 v=102
9840 Off ch=1 n=d6 v=80
9840 Off ch=1 n=a6 v=80
9840 Off ch=1 n=d7 v=80
9840 On ch=1 n=d6 v=102
9840 On ch=1 n=a6 v=102
9840 On ch=1 n=d7 v=102
10080 Off ch=1 n=d7 v=80
10080 Off ch=1 n=a6 v=80
10080 Off ch=1 n=d6 v=80
10320 On ch=1 n=d6 v=102
10320 On ch=1 n=a6 v=102
10320 On ch=1 n=d7 v=102
10560 Off ch=1 n=d7 v=80
10560 Off ch=1 n=a6 v=80
10560 Off ch=1 n=d6 v=80
10800 On ch=1 n=d7 v=127
10800 On ch=1 n=b6 v=127
10800 On ch=1 n=e6 v=127
10800 On ch=1 n=d6 v=127
11520 Off ch=1 n=d6 v=80
11520 Off ch=1 n=e6 v=80
11520 Off ch=1 n=b6 v=80
11520 Off ch=1 n=d7 v=80
11520 On ch=1 n=e6 v=102
11520 On ch=1 n=g5 v=102
12000 Off ch=1 n=g5 v=80
12000 Off ch=1 n=e6 v=80
12000 On ch=1 n=d6 v=65
12000 On ch=1 n=f#5 v=65
12120 Off ch=1 n=f#5 v=80
12120 Off ch=1 n=d6 v=80
12240 On ch=1 n=c#6 v=59
12240 On ch=1 n=e5 v=59
12360 Off ch=1 n=e5 v=80
12360 Off ch=1 n=c#6 v=80
12480 On ch=1 n=b5 v=53
12480 On ch=1 n=d#5 v=53
12600 Off ch=1 n=d#5 v=80
12600 Off ch=1 n=b5 v=80
12690 On ch=1 n=c#6 v=53
12720 Off ch=1 n=c#6 v=80
12720 On ch=1 n=b5 v=53
12720 On ch=1 n=d#5 v=53
12840 Off ch=1 n=d#5 v=80
12840 Off ch=1 n=b5 v=80
12960 On ch=1 n=b5 v=53
12960 On ch=1 n=e5 v=53
13080 Off ch=1 n=e5 v=80
13080 Off ch=1 n=b5 v=80
13200 On ch=1 n=b5 v=53
13200 On ch=1 n=e5 v=53
13320 Off ch=1 n=e5 v=80
13320 Off ch=1 n=b5 v=80
13440 On ch=1 n=e6 v=102
13440 On ch=1 n=g5 v=102
13920 Off ch=1 n=g5 v=80
13920 Off ch=1 n=e6 v=80
13920 On ch=1 n=d6 v=65
13920 On ch=1 n=f#5 v=65
14040 Off ch=1 n=f#5 v=80
14040 Off ch=1 n=d6 v=80
14160 On ch=1 n=c#6 v=59
14160 On ch=1 n=e5 v=59
14280 Off ch=1 n=e5 v=80
14280 Off ch=1 n=c#6 v=80
14400 On ch=1 n=b5 v=53
14400 On ch=1 n=d#5 v=53
14520 Off ch=1 n=d#5 v=80
14520 Off ch=1 n=b5 v=80
14640 On ch=1 n=b5 v=53
14640 On ch=1 n=d5 v=53
14760 Off ch=1 n=d5 v=80
14760 Off ch=1 n=b5 v=80
14880 On ch=1 n=c#5 v=53
14880 On ch=1 n=a5 v=53
15240 Off ch=1 n=a5 v=80
15240 Off ch=1 n=c#5 v=80
15360 On ch=1 n=f5 v=73
15840 On ch=1 n=d6 v=71
15840 On ch=1 n=a#5 v=71
16320 Off ch=1 n=a#5 v=80
16320 Off ch=1 n=d6 v=80
16320 On ch=1 n=c6 v=77
16320 On ch=1 n=a5 v=77
16800 Off ch=1 n=a5 v=80
16800 Off ch=1 n=f5 v=80
16800 Off ch=1 n=c6 v=80
16800 On ch=1 n=e5 v=83
16800 On ch=1 n=a5 v=83
17040 Off ch=1 n=a5 v=80
17040 On ch=1 n=a#5 v=83
17280 Off ch=1 n=e5 v=80
17280 Off ch=1 n=a#5 v=80
17280 On ch=1 n=g#5 v=90
17280 On ch=1 n=f5 v=90
17520 Off ch=1 n=g#5 v=80
17520 On ch=1 n=a5 v=90
17760 Off ch=1 n=f5 v=80
17760 Off ch=1 n=a5 v=80
17760 On ch=1 n=f#5 v=90
17760 On ch=1 n=f5 v=90
18000 Off ch=1 n=f#5 v=80
18000 On ch=1 n=g5 v=90
18240 Off ch=1 n=f5 v=80
18240 Off ch=1 n=g5 v=80
18240 On ch=1 n=e5 v=90
18240 On ch=1 n=a5 v=90
18480 Off ch=1 n=a5 v=80
18480 On ch=1 n=g5 v=90
18720 Off ch=1 n=e5 v=80
18720 Off ch=1 n=g5 v=80
18720 On ch=1 n=e5 v=90
18720 On ch=1 n=f#5 v=90
18960 Off ch=1 n=f#5 v=80
18960 On ch=1 n=g5 v=90
19200 Off ch=1 n=e5 v=80
19200 Off ch=1 n=g5 v=80
19200 On ch=1 n=f5 v=90
19200 On ch=1 n=d5 v=90
19680 Off ch=1 n=d5 v=80
19680 Off ch=1 n=f5 v=80
19680 On ch=1 n=d5 v=90
19680 On ch=1 n=a#5 v=90
20160 Off ch=1 n=a#5 v=80
20160 Off ch=1 n=d5 v=80
20160 On ch=1 n=a5 v=90
20160 On ch=1 n=c#5 v=90
20640 Off ch=1 n=c#5 v=80
20640 Off ch=1 n=a5 v=80
20640 On ch=1 n=e5 v=90
20640 On ch=1 n=g5 v=90
21120 Off ch=1 n=g5 v=80
21120 Off ch=1 n=e5 v=80
21120 On ch=1 n=f5 v=90
21120 On ch=1 n=d5 v=90
21600 Off ch=1 n=d5 v=80
21600 Off ch=1 n=f5 v=80
21600 On ch=1 n=b4 v=90
21600 On ch=1 n=e5 v=90
21840 Off ch=1 n=e5 v=80
21840 On ch=1 n=d5 v=90
22080 Off ch=1 n=b4 v=80
22080 Off ch=1 n=d5 v=80
22080 On ch=1 n=c5 v=90
22080 On ch=1 n=g4 v=90
23040 Off ch=1 n=g4 v=80
23040 Off ch=1 n=c5 v=80
23040 On ch=1 n=d#5 v=65
23040 On ch=1 n=c5 v=65
23040 On ch=1 n=f#4 v=65
23520 Off ch=1 n=f#4 v=80
23520 Off ch=1 n=c5 v=80
23520 Off ch=1 n=d#5 v=80
23520 On ch=1 n=e5 v=72
23520 On ch=1 n=c#5 v=72
23520 On ch=1 n=g4 v=72
24480 Off ch=1 n=g4 v=80
24480 Off ch=1 n=c#5 v=80
24480 Off ch=1 n=e5 v=80
24480 On ch=1 n=d5 v=78
24480 On ch=1 n=g#4 v=78
24480 On ch=1 n=f5 v=78
24960 Off ch=1 n=g#4 v=80
24960 Off ch=1 n=d5 v=80
24960 On ch=1 n=c5 v=78
24960 On ch=1 n=a4 v=78
25320 On ch=1 n=a#4 v=78
25440 Off ch=1 n=a#4 v=80
25440 Off ch=1 n=a4 v=80
25440 Off ch=1 n=f5 v=80
25440 Off ch=1 n=c5 v=80
25440 On ch=1 n=a5 v=82
25440 On ch=1 n=f5 v=82
25680 Off ch=1 n=f5 v=80
25680 Off ch=1 n=a5 v=80
25680 On ch=1 n=g5 v=86
25680 On ch=1 n=e5 v=86
25920 Off ch=1 n=e5 v=80
25920 Off ch=1 n=g5 v=80
25920 On ch=1 n=f5 v=90
25920 On ch=1 n=d5 v=90
26400 Off ch=1 n=d5 v=80
26400 Off ch=1 n=f5 v=80
26400 On ch=1 n=f#5 v=90
26400 On ch=1 n=d#5 v=90
26400 On ch=1 n=a4 v=90
26880 Off ch=1 n=a4 v=80
26880 Off ch=1 n=d#5 v=80
26880 Off ch=1 n=f#5 v=80
26880 On ch=1 n=g5 v=90
26880 On ch=1 n=d5 v=90
26880 On ch=1 n=g4 v=90
27360 Off ch=1 n=g4 v=80
27360 Off ch=1 n=d5 v=80
27360 Off ch=1 n=g5 v=80
27360 On ch=1 n=g#5 v=98
27360 On ch=1 n=f5 v=98
27360 On ch=1 n=g#4 v=98
28320 Off ch=1 n=g#4 v=80
28320 Off ch=1 n=f5 v=80
28320 Off ch=1 n=g#5 v=80
28320 On ch=1 n=a5 v=90
28320 On ch=1 n=a4 v=90
28320 On ch=1 n=f5 v=90
28800 Off ch=1 n=a4 v=80
28800 Off ch=1 n=a5 v=80
28800 On ch=1 n=b5 v=90
28800 On ch=1 n=b4 v=90
29160 Off ch=1 n=f5 v=80
29160 On ch=1 n=f5 v=90
29160 On ch=1 n=g5 v=90
29280 Off ch=1 n=b5 v=80
29280 Off ch=1 n=b4 v=80
29280 On ch=1 n=f6 v=94
29520 Off ch=1 n=f6 v=80
29520 On ch=1 n=b5 v=98
29760 Off ch=1 n=f5 v=80
29760 Off ch=1 n=g5 v=80
29760 Off ch=1 n=b5 v=80
29760 On ch=1 n=c6 v=102
29760 On ch=1 n=e5 v=102
30240 Off ch=1 n=c6 v=80
30240 On ch=1 n=a#5 v=84
30720 Off ch=1 n=e5 v=80
30720 Off ch=1 n=a#5 v=80
30720 On ch=1 n=f5 v=65
30720 On ch=1 n=a5 v=65
31200 Off ch=1 n=a5 v=80
31200 Off ch=1 n=f5 v=80
31200 On ch=1 n=f5 v=61
31200 On ch=1 n=d6 v=61
31680 Off ch=1 n=d6 v=80
31680 On ch=1 n=c6 v=57
32160 Off ch=1 n=f5 v=80
32160 Off ch=1 n=c6 v=80
32160 On ch=1 n=e5 v=53
32160 On ch=1 n=a5 v=53
32400 Off ch=1 n=a5 v=80
32400 On ch=1 n=a#5 v=53
32640 Off ch=1 n=e5 v=80
32640 Off ch=1 n=a#5 v=80
32640 On ch=1 n=g#5 v=53
32640 On ch=1 n=f5 v=53
32880 Off ch=1 n=g#5 v=80
32880 On ch=1 n=a5 v=53
33120 Off ch=1 n=f5 v=80
33120 Off ch=1 n=a5 v=80
33120 On ch=1 n=f#5 v=53
33120 On ch=1 n=f5 v=53
33360 Off ch=1 n=f#5 v=80
33360 On ch=1 n=g5 v=53
33600 Off ch=1 n=f5 v=80
33600 Off ch=1 n=g5 v=80
33600 On ch=1 n=e5 v=53
33600 On ch=1 n=a5 v=53
33840 Off ch=1 n=a5 v=80
33840 On ch=1 n=g5 v=53
34080 Off ch=1 n=e5 v=80
34080 Off ch=1 n=g5 v=80
34080 On ch=1 n=e5 v=53
34080 On ch=1 n=f#5 v=53
34320 Off ch=1 n=f#5 v=80
34320 On ch=1 n=g5 v=53
34560 Off ch=1 n=e5 v=80
34560 Off ch=1 n=g5 v=80
34560 On ch=1 n=f5 v=53
34560 On ch=1 n=d5 v=53
35040 Off ch=1 n=d5 v=80
35040 Off ch=1 n=f5 v=80
35040 On ch=1 n=d5 v=53
35040 On ch=1 n=a#5 v=53
35520 Off ch=1 n=a#5 v=80
35520 Off ch=1 n=d5 v=80
35520 On ch=1 n=a5 v=53
35520 On ch=1 n=c#5 v=53
36000 Off ch=1 n=c#5 v=80
36000 Off ch=1 n=a5 v=80
36000 On ch=1 n=e5 v=53
36000 On ch=1 n=g5 v=53
36480 Off ch=1 n=g5 v=80
36480 Off ch=1 n=e5 v=80
36480 On ch=1 n=f5 v=53
36480 On ch=1 n=d5 v=53
36960 Off ch=1 n=d5 v=80
36960 Off ch=1 n=f5 v=80
36960 On ch=1 n=e5 v=53
36960 On ch=1 n=c6 v=53
37440 Off ch=1 n=e5 v=80
37440 On ch=1 n=f5 v=53
38400 Off ch=1 n=c6 v=80
38400 Off ch=1 n=f5 v=80
38400 On ch=1 n=c6 v=90
38400 On ch=1 n=g5 v=90
38880 Off ch=1 n=g5 v=80
38880 Off ch=1 n=c6 v=80
38880 On ch=1 n=c6 v=90
38880 On ch=1 n=g5 v=90
39120 Off ch=1 n=g5 v=80
39120 Off ch=1 n=c6 v=80
39120 On ch=1 n=c6 v=90
39120 On ch=1 n=g5 v=90
39360 Off ch=1 n=g5 v=80
39360 Off ch=1 n=c6 v=80
39360 On ch=1 n=d6 v=94
39360 On ch=1 n=a5 v=94
39840 Off ch=1 n=a5 v=80
39840 Off ch=1 n=d6 v=80
39840 On ch=1 n=a5 v=94
39840 On ch=1 n=d6 v=94
40320 Off ch=1 n=d6 v=80
40320 Off ch=1 n=a5 v=80
40320 On ch=1 n=f6 v=98
40320 On ch=1 n=b5 v=98
40800 Off ch=1 n=b5 v=80
40800 Off ch=1 n=f6 v=80
40800 On ch=1 n=f6 v=98
40800 On ch=1 n=b5 v=98
41040 Off ch=1 n=b5 v=80
41040 Off ch=1 n=f6 v=80
41040 On ch=1 n=f6 v=98
41040 On ch=1 n=b5 v=98
41280 Off ch=1 n=b5 v=80
41280 Off ch=1 n=f6 v=80
41280 On ch=1 n=c6 v=112
41280 On ch=1 n=f6 v=112
41640 Off ch=1 n=f6 v=80
41640 On ch=1 n=e6 v=102
41760 Off ch=1 n=e6 v=80
41760 On ch=1 n=e6 v=102
42240 Off ch=1 n=c6 v=80
42240 Off ch=1 n=e6 v=80
42240 On ch=1 n=f6 v=90
42240 On ch=1 n=c6 v=90
42720 Off ch=1 n=c6 v=80
42720 Off ch=1 n=f6 v=80
42720 On ch=1 n=f6 v=90
42720 On ch=1 n=c6 v=90
42960 Off ch=1 n=c6 v=80
42960 Off ch=1 n=f6 v=80
42960 On ch=1 n=f6 v=90
42960 On ch=1 n=c6 v=90
43200 Off ch=1 n=c6 v=80
43200 Off ch=1 n=f6 v=80
43200 On ch=1 n=g6 v=94
43200 On ch=1 n=d6 v=94
43680 Off ch=1 n=d6 v=80
43680 Off ch=1 n=g6 v=80
43680 On ch=1 n=d6 v=94
43680 On ch=1 n=g6 v=94
44160 Off ch=1 n=g6 v=80
44160 Off ch=1 n=d6 v=80
44160 On ch=1 n=a#6 v=98
44160 On ch=1 n=e6 v=98
44640 Off ch=1 n=e6 v=80
44640 Off ch=1 n=a#6 v=80
44640 On ch=1 n=a#6 v=98
44640 On ch=1 n=e6 v=98
44880 Off ch=1 n=e6 v=80
44880 Off ch=1 n=a#6 v=80
44880 On ch=1 n=a#6 v=98
44880 On ch=1 n=e6 v=98
45120 Off ch=1 n=e6 v=80
45120 Off ch=1 n=a#6 v=80
45120 On ch=1 n=f6 v=112
45120 On ch=1 n=a#6 v=112
45480 Off ch=1 n=a#6 v=80
45480 On ch=1 n=a6 v=102
45600 Off ch=1 n=a6 v=80
45600 On ch=1 n=a6 v=102
46080 Off ch=1 n=f6 v=80
46080 Off ch=1 n=a6 v=80
46080 On ch=1 n=a6 v=65
46080 On ch=1 n=f6 v=65
46440 On ch=1 n=f5 v=65
46440 On ch=1 n=a5 v=65
46560 Off ch=1 n=a5 v=80
46560 Off ch=1 n=f5 v=80
46560 Off ch=1 n=f6 v=80
46560 Off ch=1 n=a6 v=80
46560 On ch=1 n=b5 v=65
46560 On ch=1 n=g5 v=65
46800 Off ch=1 n=g5 v=80
46800 Off ch=1 n=b5 v=80
46920 On ch=1 n=c6 v=65
46920 On ch=1 n=a5 v=65
47040 Off ch=1 n=a5 v=80
47040 Off ch=1 n=c6 v=80
47040 On ch=1 n=d6 v=71
47040 On ch=1 n=b5 v=71
47160 Off ch=1 n=b5 v=80
47160 Off ch=1 n=d6 v=80
47280 On ch=1 n=e6 v=71
47280 On ch=1 n=c6 v=71
47400 Off ch=1 n=c6 v=80
47400 Off ch=1 n=e6 v=80
47520 On ch=1 n=f6 v=77
47520 On ch=1 n=d6 v=77
47640 Off ch=1 n=d6 v=80
47640 Off ch=1 n=f6 v=80
47760 On ch=1 n=g6 v=77
47760 On ch=1 n=e6 v=77
47880 Off ch=1 n=e6 v=80
47880 Off ch=1 n=g6 v=80
48000 On ch=1 n=f6 v=83
48000 On ch=1 n=a6 v=83
48360 Off ch=1 n=a6 v=80
48360 Off ch=1 n=f6 v=80
48480 On ch=1 n=a6 v=110
48480 On ch=1 n=f7 v=110
49440 Off ch=1 n=f7 v=80
49440 Off ch=1 n=a6 v=80
49440 On ch=1 n=e7 v=90
49440 On ch=1 n=g6 v=90
49680 Off ch=1 n=g6 v=80
49680 Off ch=1 n=e7 v=80
49680 On ch=1 n=d7 v=90
49680 On ch=1 n=f6 v=90
49920 Off ch=1 n=f6 v=80
49920 Off ch=1 n=d7 v=80
50400 On ch=1 n=c7 v=90
50400 On ch=1 n=c6 v=90
51120 Off ch=1 n=c6 v=80
51120 Off ch=1 n=c7 v=80
51120 On ch=1 n=b6 v=90
51120 On ch=1 n=b5 v=90
51360 Off ch=1 n=b5 v=80
51360 Off ch=1 n=b6 v=80
51360 On ch=1 n=a#6 v=90
51360 On ch=1 n=a#5 v=90
51600 Off ch=1 n=a#5 v=80
51600 Off ch=1 n=a#6 v=80
51600 On ch=1 n=a6 v=90
51600 On ch=1 n=a5 v=90
51840 Off ch=1 n=a5 v=80
51840 Off ch=1 n=a6 v=80
51840 On ch=1 n=g6 v=82
51840 On ch=1 n=g5 v=82
52080 Off ch=1 n=g5 v=80
52080 Off ch=1 n=g6 v=80
52080 On ch=1 n=f6 v=82
52080 On ch=1 n=f5 v=82
52320 Off ch=1 n=f5 v=80
52320 Off ch=1 n=f6 v=80
52320 On ch=1 n=e6 v=74
52320 On ch=1 n=e5 v=74
52560 Off ch=1 n=e5 v=80
52560 Off ch=1 n=e6 v=80
52560 On ch=1 n=d6 v=74
52560 On ch=1 n=d5 v=74
52800 Off ch=1 n=d5 v=80
52800 Off ch=1 n=d6 v=80
52800 On ch=1 n=c5 v=65
52800 On ch=1 n=c6 v=65
53040 Off ch=1 n=c5 v=80
53040 On ch=1 n=d5 v=65
53040 On ch=1 n=a#5 v=65
53160 Off ch=1 n=a#5 v=80
53160 Off ch=1 n=d5 v=80
53280 On ch=1 n=c5 v=65
53280 On ch=1 n=a5 v=65
53400 Off ch=1 n=a5 v=80
53400 Off ch=1 n=c5 v=80
53520 On ch=1 n=g5 v=65
53520 On ch=1 n=a#4 v=65
53640 Off ch=1 n=a#4 v=80
53640 Off ch=1 n=g5 v=80
53760 Off ch=1 n=c6 v=80
53760 On ch=1 n=a4 v=65
53760 On ch=1 n=f5 v=65
54240 Off ch=1 n=f5 v=80
54240 Off ch=1 n=a4 v=80
54240 On ch=1 n=f5 v=71
54240 On ch=1 n=d6 v=71
54720 Off ch=1 n=d6 v=80
54720 On ch=1 n=c6 v=78
55200 Off ch=1 n=f5 v=80
55200 Off ch=1 n=c6 v=80
55200 On ch=1 n=e5 v=78
55200 On ch=1 n=a5 v=78
55440 Off ch=1 n=a5 v=80
55440 On ch=1 n=a#5 v=78
55680 Off ch=1 n=e5 v=80
55680 Off ch=1 n=a#5 v=80
55680 On ch=1 n=g#5 v=78
55680 On ch=1 n=f5 v=78
55920 Off ch=1 n=g#5 v=80
55920 On ch=1 n=a5 v=78
56160 Off ch=1 n=f5 v=80
56160 Off ch=1 n=a5 v=80
56160 On ch=1 n=f#5 v=78
56160 On ch=1 n=f5 v=78
56400 Off ch=1 n=f#5 v=80
56400 On ch=1 n=g5 v=78
56640 Off ch=1 n=f5 v=80
56640 Off ch=1 n=g5 v=80
56640 On ch=1 n=e5 v=78
56640 On ch=1 n=a5 v=78
56880 Off ch=1 n=a5 v=80
56880 On ch=1 n=g5 v=78
57120 Off ch=1 n=e5 v=80
57120 Off ch=1 n=g5 v=80
57120 On ch=1 n=e5 v=78
57120 On ch=1 n=f#5 v=78
57360 Off ch=1 n=f#5 v=80
57360 On ch=1 n=g5 v=78
57600 Off ch=1 n=e5 v=80
57600 Off ch=1 n=g5 v=80
57600 On ch=1 n=f5 v=78
57600 On ch=1 n=d5 v=78
58080 Off ch=1 n=d5 v=80
58080 Off ch=1 n=f5 v=80
58080 On ch=1 n=d5 v=78
58080 On ch=1 n=a#5 v=78
58560 Off ch=1 n=a#5 v=80
58560 Off ch=1 n=d5 v=80
58560 On ch=1 n=a5 v=78
58560 On ch=1 n=c#5 v=78
59040 Off ch=1 n=c#5 v=80
59040 Off ch=1 n=a5 v=80
59040 On ch=1 n=e5 v=78
59040 On ch=1 n=g5 v=78
59520 Off ch=1 n=g5 v=80
59520 Off ch=1 n=e5 v=80
59520 On ch=1 n=f5 v=74
59520 On ch=1 n=d5 v=74
60000 Off ch=1 n=d5 v=80
60000 Off ch=1 n=f5 v=80
60000 On ch=1 n=e5 v=70
60000 On ch=1 n=c6 v=70
60480 Off ch=1 n=e5 v=80
60480 On ch=1 n=f5 v=65
61440 Off ch=1 n=c6 v=80
61440 Off ch=1 n=f5 v=80
61440 On ch=1 n=d#5 v=102
61440 On ch=1 n=c6 v=102
61920 Off ch=1 n=c6 v=80
61920 Off ch=1 n=d#5 v=80
61920 On ch=1 n=a#5 v=65
61920 On ch=1 n=d5 v=65
62040 Off ch=1 n=d5 v=80
62040 Off ch=1 n=a#5 v=80
62160 On ch=1 n=a5 v=59
62160 On ch=1 n=c5 v=59
62280 Off ch=1 n=c5 v=80
62280 Off ch=1 n=a5 v=80
62400 On ch=1 n=g5 v=53
62400 On ch=1 n=b4 v=53
62520 Off ch=1 n=b4 v=80
62520 Off ch=1 n=g5 v=80
62610 On ch=1 n=a5 v=53
62640 Off ch=1 n=a5 v=80
62640 On ch=1 n=g5 v=53
62640 On ch=1 n=b4 v=53
62760 Off ch=1 n=b4 v=80
62760 Off ch=1 n=g5 v=80
62880 On ch=1 n=g5 v=53
62880 On ch=1 n=c5 v=53
63000 Off ch=1 n=c5 v=80
63000 Off ch=1 n=g5 v=80
63120 On ch=1 n=g5 v=53
63120 On ch=1 n=c5 v=53
63240 Off ch=1 n=c5 v=80
63240 Off ch=1 n=g5 v=80
63360 On ch=1 n=c6 v=102
63360 On ch=1 n=d#5 v=102
63840 Off ch=1 n=d#5 v=80
63840 Off ch=1 n=c6 v=80
63840 On ch=1 n=a#5 v=65
63840 On ch=1 n=d5 v=65
63960 Off ch=1 n=d5 v=80
63960 Off ch=1 n=a#5 v=80
64080 On ch=1 n=a5 v=59
64080 On ch=1 n=c5 v=59
64200 Off ch=1 n=c5 v=80
64200 Off ch=1 n=a5 v=80
64320 On ch=1 n=g5 v=53
64320 On ch=1 n=b4 v=53
64440 Off ch=1 n=b4 v=80
64440 Off ch=1 n=g5 v=80
64560 On ch=1 n=g5 v=53
64560 On ch=1 n=a#4 v=53
64680 Off ch=1 n=a#4 v=80
64680 Off ch=1 n=g5 v=80
64800 On ch=1 n=a4 v=53
64800 On ch=1 n=f5 v=53
65160 Off ch=1 n=f5 v=80
65160 Off ch=1 n=a4 v=80
65280 On ch=1 n=c6 v=102
65280 On ch=1 n=d#5 v=102
65760 Off ch=1 n=d#5 v=80
65760 Off ch=1 n=c6 v=80
65760 On ch=1 n=a#5 v=65
65760 On ch=1 n=d5 v=65
65880 Off ch=1 n=d5 v=80
65880 Off ch=1 n=a#5 v=80
66000 On ch=1 n=a5 v=59
66000 On ch=1 n=c5 v=59
66120 Off ch=1 n=c5 v=80
66120 Off ch=1 n=a5 v=80
66240 On ch=1 n=g5 v=53
66240 On ch=1 n=b4 v=53
66360 Off ch=1 n=b4 v=80
66360 Off ch=1 n=g5 v=80
66450 On ch=1 n=a5 v=53
66480 Off ch=1 n=a5 v=80
66480 On ch=1 n=g5 v=53
66480 On ch=1 n=b4 v=53
66600 Off ch=1 n=b4 v=80
66600 Off ch=1 n=g5 v=80
66720 On ch=1 n=g5 v=53
66720 On ch=1 n=c5 v=53
66840 Off ch=1 n=c5 v=80
66840 Off ch=1 n=g5 v=80
66960 On ch=1 n=g5 v=53
66960 On ch=1 n=c5 v=53
67080 Off ch=1 n=c5 v=80
67080 Off ch=1 n=g5 v=80
67200 On ch=1 n=c6 v=102
67200 On ch=1 n=d#5 v=102
67680 Off ch=1 n=d#5 v=80
67680 Off ch=1 n=c6 v=80
67680 On ch=1 n=a#5 v=65
67680 On ch=1 n=d5 v=65
67800 Off ch=1 n=d5 v=80
67800 Off ch=1 n=a#5 v=80
67920 On ch=1 n=a5 v=59
67920 On ch=1 n=c5 v=59
68040 Off ch=1 n=c5 v=80
68040 Off ch=1 n=a5 v=80
68160 On ch=1 n=g5 v=53
68160 On ch=1 n=b4 v=53
68280 Off ch=1 n=b4 v=80
68280 Off ch=1 n=g5 v=80
68400 On ch=1 n=g5 v=53
68400 On ch=1 n=a#4 v=53
68520 Off ch=1 n=a#4 v=80
68520 Off ch=1 n=g5 v=80
68640 On ch=1 n=a4 v=53
68640 On ch=1 n=f5 v=53
69000 Off ch=1 n=f5 v=80
69000 Off ch=1 n=a4 v=80
69120 On ch=1 n=c#5 v=114
69600 On ch=1 n=a#5 v=102
69600 On ch=1 n=f#5 v=102
70080 Off ch=1 n=f#5 v=80
70080 Off ch=1 n=a#5 v=80
70080 Off ch=1 n=c#5 v=80
70080 On ch=1 n=g#5 v=90
70080 On ch=1 n=f5 v=90
70560 Off ch=1 n=f5 v=80
70560 Off ch=1 n=g#5 v=80
70560 On ch=1 n=f#5 v=78
70560 On ch=1 n=a#4 v=78
70800 Off ch=1 n=a#4 v=80
70800 On ch=1 n=c5 v=78
71040 Off ch=1 n=f#5 v=80
71040 Off ch=1 n=c5 v=80
71040 On ch=1 n=c#5 v=114
71040 On ch=1 n=f5 v=114
71520 Off ch=1 n=f5 v=80
71520 On ch=1 n=a#5 v=102
71520 On ch=1 n=f#5 v=102
72000 Off ch=1 n=f#5 v=80
72000 Off ch=1 n=c#5 v=80
72000 Off ch=1 n=a#5 v=80
72000 On ch=1 n=g#5 v=90
72000 On ch=1 n=f5 v=90
72480 Off ch=1 n=f5 v=80
72480 Off ch=1 n=g#5 v=80
72480 On ch=1 n=f#5 v=78
72480 On ch=1 n=a#4 v=78
72720 Off ch=1 n=a#4 v=80
72720 On ch=1 n=c5 v=78
72960 Off ch=1 n=f#5 v=80
72960 Off ch=1 n=c5 v=80
72960 On ch=1 n=c#5 v=114
72960 On ch=1 n=f5 v=114
73920 Off ch=1 n=f5 v=80
73920 Off ch=1 n=c#5 v=80
73920 On ch=1 n=c5 v=90
73920 On ch=1 n=d#5 v=90
74880 Off ch=1 n=d#5 v=80
74880 Off ch=1 n=c5 v=80
74880 On ch=1 n=d#5 v=90
74880 On ch=1 n=c#5 v=90
74880 On ch=1 n=g4 v=90
75840 Off ch=1 n=g4 v=80
75840 Off ch=1 n=c#5 v=80
75840 On ch=1 n=c5 v=90
75840 On ch=1 n=g#4 v=90
76320 Off ch=1 n=g#4 v=80
76320 Off ch=1 n=c5 v=80
76320 On ch=1 n=b4 v=90
76800 Off ch=1 n=d#5 v=80
76800 Off ch=1 n=b4 v=80
76800 On ch=1 n=a#4 v=114
77280 On ch=1 n=g#5 v=102
77280 On ch=1 n=b5 v=102
77760 Off ch=1 n=b5 v=80
77760 Off ch=1 n=g#5 v=80
77760 Off ch=1 n=a#4 v=80
77760 On ch=1 n=a#5 v=90
77760 On ch=1 n=f#5 v=90
78240 Off ch=1 n=f#5 v=80
78240 Off ch=1 n=a#5 v=80
78240 On ch=1 n=g#5 v=78
78240 On ch=1 n=c5 v=78
78480 Off ch=1 n=c5 v=80
78480 On ch=1 n=d5 v=78
78720 Off ch=1 n=g#5 v=80
78720 Off ch=1 n=d5 v=80
78720 On ch=1 n=d#5 v=114
78720 On ch=1 n=f#5 v=114
79200 Off ch=1 n=f#5 v=80
79200 On ch=1 n=g#5 v=102
79200 On ch=1 n=b5 v=102
79680 Off ch=1 n=b5 v=80
79680 Off ch=1 n=d#5 v=80
79680 Off ch=1 n=g#5 v=80
79680 On ch=1 n=a#5 v=90
79680 On ch=1 n=f#5 v=90
80160 Off ch=1 n=f#5 v=80
80160 Off ch=1 n=a#5 v=80
80160 On ch=1 n=g#5 v=78
80160 On ch=1 n=c5 v=78
80400 Off ch=1 n=c5 v=80
80400 On ch=1 n=d5 v=78
80640 Off ch=1 n=g#5 v=80
80640 Off ch=1 n=d5 v=80
80640 On ch=1 n=d#5 v=114
80640 On ch=1 n=f#5 v=114
81600 Off ch=1 n=f#5 v=80
81600 Off ch=1 n=d#5 v=80
81600 On ch=1 n=f5 v=90
81600 On ch=1 n=c#5 v=90
82560 Off ch=1 n=c#5 v=80
82560 Off ch=1 n=f5 v=80
82560 On ch=1 n=d#5 v=65
82560 On ch=1 n=d#4 v=65
82680 Off ch=1 n=d#4 v=80
82680 Off ch=1 n=d#5 v=80
82800 On ch=1 n=f4 v=71
82920 Off ch=1 n=f4 v=80
83040 On ch=1 n=d#5 v=78
83040 On ch=1 n=f#4 v=78
83160 Off ch=1 n=f#4 v=80
83160 Off ch=1 n=d#5 v=80
83280 On ch=1 n=g#4 v=84
83400 Off ch=1 n=g#4 v=80
83520 On ch=1 n=a#4 v=90
83520 On ch=1 n=c#5 v=90
83760 Off ch=1 n=a#4 v=80
83760 On ch=1 n=f#4 v=90
84000 Off ch=1 n=f#4 v=80
84480 Off ch=1 n=c#5 v=80
84480 On ch=1 n=c#5 v=65
84480 On ch=1 n=b4 v=65
84720 Off ch=1 n=b4 v=80
84720 On ch=1 n=g#4 v=71
84960 Off ch=1 n=c#5 v=80
84960 Off ch=1 n=g#4 v=80
84960 On ch=1 n=g#5 v=78
84960 On ch=1 n=c#5 v=78
85080 Off ch=1 n=c#5 v=80
85200 On ch=1 n=c5 v=84
85320 Off ch=1 n=c5 v=80
85440 Off ch=1 n=g#5 v=80
85440 On ch=1 n=a#5 v=90
85440 On ch=1 n=f#5 v=90
85680 Off ch=1 n=f#5 v=80
85680 On ch=1 n=c#5 v=90
85920 Off ch=1 n=c#5 v=80
86400 Off ch=1 n=a#5 v=80
86400 On ch=1 n=d#4 v=65
86400 On ch=1 n=d#5 v=65
86520 Off ch=1 n=d#5 v=80
86520 Off ch=1 n=d#4 v=80
86640 On ch=1 n=f4 v=71
86760 Off ch=1 n=f4 v=80
86880 On ch=1 n=d#5 v=78
86880 On ch=1 n=f#4 v=78
87000 Off ch=1 n=f#4 v=80
87000 Off ch=1 n=d#5 v=80
87120 On ch=1 n=g#4 v=84
87240 Off ch=1 n=g#4 v=80
87360 On ch=1 n=a#4 v=90
87360 On ch=1 n=c#5 v=90
87600 Off ch=1 n=a#4 v=80
87600 On ch=1 n=f#4 v=90
87840 Off ch=1 n=f#4 v=80
88320 Off ch=1 n=c#5 v=80
88320 On ch=1 n=c#5 v=65
88320 On ch=1 n=b4 v=65
88560 Off ch=1 n=b4 v=80
88560 On ch=1 n=g#4 v=71
88800 Off ch=1 n=c#5 v=80
88800 Off ch=1 n=g#4 v=80
88800 On ch=1 n=g#5 v=78
88800 On ch=1 n=c#5 v=78
88920 Off ch=1 n=c#5 v=80
89040 On ch=1 n=c5 v=84
89160 Off ch=1 n=c5 v=80
89280 Off ch=1 n=g#5 v=80
89280 On ch=1 n=a#5 v=90
89280 On ch=1 n=f#5 v=90
89520 Off ch=1 n=f#5 v=80
89520 On ch=1 n=c#5 v=90
89760 Off ch=1 n=c#5 v=80
90240 Off ch=1 n=a#5 v=80
90240 On ch=1 n=d#6 v=90
90240 On ch=1 n=b5 v=78
90480 Off ch=1 n=b5 v=80
90480 On ch=1 n=f#5 v=78
90600 Off ch=1 n=f#5 v=80
90720 On ch=1 n=d#5 v=78
90840 Off ch=1 n=d#5 v=80
90960 On ch=1 n=b4 v=78
91080 Off ch=1 n=b4 v=80
91200 Off ch=1 n=d#6 v=80
91200 On ch=1 n=f6 v=90
91200 On ch=1 n=c#6 v=78
91440 Off ch=1 n=c#6 v=80
91440 On ch=1 n=b5 v=78
91560 Off ch=1 n=b5 v=80
91680 On ch=1 n=f5 v=78
91800 Off ch=1 n=f5 v=80
91920 On ch=1 n=c#5 v=78
92040 Off ch=1 n=c#5 v=80
92160 Off ch=1 n=f6 v=80
92160 On ch=1 n=g#6 v=90
92160 On ch=1 n=c#6 v=78
92400 Off ch=1 n=c#6 v=80
92400 On ch=1 n=a#5 v=78
92520 Off ch=1 n=a#5 v=80
92640 Off ch=1 n=g#6 v=80
92640 On ch=1 n=f#6 v=90
92640 On ch=1 n=f#5 v=78
92760 Off ch=1 n=f#5 v=80
92880 On ch=1 n=c#5 v=78
93000 Off ch=1 n=c#5 v=80
93120 Off ch=1 n=f#6 v=80
93120 On ch=1 n=f6 v=90
93120 On ch=1 n=b5 v=78
93360 Off ch=1 n=b5 v=80
93360 On ch=1 n=f#5 v=78
93480 Off ch=1 n=f#5 v=80
93600 Off ch=1 n=f6 v=80
93600 On ch=1 n=d#6 v=90
93600 On ch=1 n=d#5 v=78
93720 Off ch=1 n=d#5 v=80
93840 On ch=1 n=b4 v=78
93960 Off ch=1 n=b4 v=80
94080 Off ch=1 n=d#6 v=80
94080 On ch=1 n=c#6 v=90
94080 On ch=1 n=a#5 v=78
94320 Off ch=1 n=a#5 v=80
94320 On ch=1 n=f#5 v=78
94440 Off ch=1 n=f#5 v=80
94560 Off ch=1 n=c#6 v=80
94560 On ch=1 n=a#5 v=90
94560 On ch=1 n=c#5 v=78
94680 Off ch=1 n=c#5 v=80
94800 On ch=1 n=a#4 v=78
94920 Off ch=1 n=a#4 v=80
95040 Off ch=1 n=a#5 v=80
95040 On ch=1 n=b5 v=90
95040 On ch=1 n=g#5 v=78
95280 Off ch=1 n=g#5 v=80
95280 On ch=1 n=f5 v=78
95400 Off ch=1 n=f5 v=80
95520 Off ch=1 n=b5 v=80
95520 On ch=1 n=c#6 v=90
95520 On ch=1 n=c#5 v=78
95640 Off ch=1 n=c#5 v=80
95760 On ch=1 n=b4 v=78
95880 Off ch=1 n=b4 v=80
96000 Off ch=1 n=c#6 v=80
96000 On ch=1 n=b5 v=90
96000 On ch=1 n=g#5 v=78
96240 Off ch=1 n=g#5 v=80
96240 On ch=1 n=f5 v=78
96360 Off ch=1 n=f5 v=80
96480 On ch=1 n=c#5 v=78
96600 Off ch=1 n=c#5 v=80
96720 On ch=1 n=b4 v=78
96840 Off ch=1 n=b4 v=80
96960 Off ch=1 n=b5 v=80
96960 On ch=1 n=a#5 v=90
96960 On ch=1 n=f#5 v=78
97200 Off ch=1 n=f#5 v=80
97200 On ch=1 n=c#5 v=78
97320 Off ch=1 n=c#5 v=80
97440 Off ch=1 n=a#5 v=80
97440 On ch=1 n=a#4 v=78
97560 Off ch=1 n=a#4 v=80
97680 On ch=1 n=f#4 v=78
97800 Off ch=1 n=f#4 v=80
97920 On ch=1 n=a#4 v=90
98160 On ch=1 n=a#5 v=65
98160 On ch=1 n=f#5 v=65
98400 Off ch=1 n=f#5 v=80
98400 Off ch=1 n=a#5 v=80
98400 Off ch=1 n=a#4 v=80
98880 On ch=1 n=c5 v=90
99120 On ch=1 n=f#5 v=65
99120 On ch=1 n=g#5 v=65
99360 Off ch=1 n=g#5 v=80
99360 Off ch=1 n=f#5 v=80
99360 Off ch=1 n=c5 v=80
99840 On ch=1 n=d#5 v=90
100080 On ch=1 n=f5 v=65
100080 On ch=1 n=g#5 v=65
100320 Off ch=1 n=g#5 v=80
100320 Off ch=1 n=f5 v=80
100320 Off ch=1 n=d#5 v=80
100800 On ch=1 n=c5 v=90
101040 On ch=1 n=c#5 v=65
101040 On ch=1 n=f#5 v=65
101280 Off ch=1 n=f#5 v=80
101280 Off ch=1 n=c#5 v=80
101280 Off ch=1 n=c5 v=80
101760 On ch=1 n=g#4 v=90
102000 On ch=1 n=c#5 v=65
102000 On ch=1 n=f5 v=65
102240 Off ch=1 n=f5 v=80
102240 Off ch=1 n=c#5 v=80
102240 Off ch=1 n=g#4 v=80
102720 On ch=1 n=f#4 v=90
102960 On ch=1 n=c5 v=65
102960 On ch=1 n=d#5 v=65
103200 Off ch=1 n=d#5 v=80
103200 Off ch=1 n=c5 v=80
103200 Off ch=1 n=f#4 v=80
103680 On ch=1 n=f#4 v=90
103920 On ch=1 n=c5 v=65
103920 On ch=1 n=d#5 v=65
104160 Off ch=1 n=d#5 v=80
104160 Off ch=1 n=c5 v=80
104160 Off ch=1 n=f#4 v=80
104640 On ch=1 n=f4 v=90
104880 On ch=1 n=g#4 v=65
104880 On ch=1 n=c#5 v=65
105120 Off ch=1 n=c#5 v=80
105120 Off ch=1 n=g#4 v=80
105120 Off ch=1 n=f4 v=80
105600 On ch=1 n=a4 v=100
105840 On ch=1 n=c#5 v=90
106080 Off ch=1 n=c#5 v=80
106080 On ch=1 n=f#5 v=90
106200 Off ch=1 n=f#5 v=80
106320 On ch=1 n=a5 v=90
106440 Off ch=1 n=a5 v=80
106560 Off ch=1 n=a4 v=80
106560 On ch=1 n=b4 v=90
106800 On ch=1 n=f#5 v=90
106920 Off ch=1 n=b4 v=80
107040 Off ch=1 n=f#5 v=80
107040 On ch=1 n=c#5 v=90
107280 On ch=1 n=f#5 v=90
107400 Off ch=1 n=c#5 v=80
107520 Off ch=1 n=f#5 v=80
107520 On ch=1 n=e5 v=100
107760 On ch=1 n=f#5 v=90
108000 Off ch=1 n=f#5 v=80
108000 Off ch=1 n=e5 v=80
108000 On ch=1 n=b5 v=98
108120 Off ch=1 n=b5 v=80
108240 On ch=1 n=d6 v=98
108360 Off ch=1 n=d6 v=80
108480 On ch=1 n=e6 v=106
108720 On ch=1 n=f#6 v=106
108960 Off ch=1 n=f#6 v=80
108960 Off ch=1 n=e6 v=80
108960 On ch=1 n=d6 v=114
108960 On ch=1 n=b6 v=114
109080 Off ch=1 n=b6 v=80
109200 On ch=1 n=d7 v=114
109320 Off ch=1 n=d7 v=80
109440 Off ch=1 n=d6 v=80
109440 On ch=1 n=g#4 v=100
109680 On ch=1 n=b4 v=90
109920 Off ch=1 n=b4 v=80
109920 On ch=1 n=d5 v=90
110040 Off ch=1 n=d5 v=80
110160 On ch=1 n=e5 v=90
110280 Off ch=1 n=e5 v=80
110400 Off ch=1 n=g#4 v=80
110400 On ch=1 n=a4 v=90
110640 On ch=1 n=e5 v=90
110760 Off ch=1 n=a4 v=80
110880 Off ch=1 n=e5 v=80
110880 On ch=1 n=b4 v=90
111120 On ch=1 n=e5 v=90
111240 Off ch=1 n=b4 v=80
111360 Off ch=1 n=e5 v=80
111360 On ch=1 n=d5 v=100
111600 On ch=1 n=e5 v=90
111840 Off ch=1 n=e5 v=80
111840 Off ch=1 n=d5 v=80
111840 On ch=1 n=a5 v=98
111960 Off ch=1 n=a5 v=80
112080 On ch=1 n=c#6 v=98
112200 Off ch=1 n=c#6 v=80
112320 On ch=1 n=d6 v=106
112560 On ch=1 n=e6 v=106
112800 Off ch=1 n=e6 v=80
112800 Off ch=1 n=d6 v=80
112800 On ch=1 n=c#6 v=114
112800 On ch=1 n=a6 v=114
112920 Off ch=1 n=a6 v=80
113040 On ch=1 n=c#7 v=114
113160 Off ch=1 n=c#7 v=80
113280 Off ch=1 n=c#6 v=80
113280 On ch=1 n=f#6 v=90
113280 On ch=1 n=d6 v=78
113520 Off ch=1 n=d6 v=80
113520 On ch=1 n=a5 v=78
113640 Off ch=1 n=a5 v=80
113760 On ch=1 n=f#5 v=78
113880 Off ch=1 n=f#5 v=80
114000 On ch=1 n=d5 v=78
114120 Off ch=1 n=d5 v=80
114240 Off ch=1 n=f#6 v=80
114240 On ch=1 n=g#6 v=90
114240 On ch=1 n=e6 v=78
114480 Off ch=1 n=e6 v=80
114480 On ch=1 n=d6 v=78
114600 Off ch=1 n=d6 v=80
114720 On ch=1 n=g#5 v=78
114840 Off ch=1 n=g#5 v=80
114960 On ch=1 n=e5 v=78
115080 Off ch=1 n=e5 v=80
115200 Off ch=1 n=g#6 v=80
115200 On ch=1 n=b6 v=90
115200 On ch=1 n=e6 v=78
115440 Off ch=1 n=e6 v=80
115440 On ch=1 n=c#6 v=78
115560 Off ch=1 n=c#6 v=80
115680 Off ch=1 n=b6 v=80
115680 On ch=1 n=a6 v=90
115680 On ch=1 n=a5 v=78
115800 Off ch=1 n=a5 v=80
115920 On ch=1 n=e5 v=78
116040 Off ch=1 n=e5 v=80
116160 Off ch=1 n=a6 v=80
116160 On ch=1 n=g#6 v=90
116160 On ch=1 n=d6 v=78
116400 Off ch=1 n=d6 v=80
116400 On ch=1 n=a5 v=78
116520 Off ch=1 n=a5 v=80
116640 Off ch=1 n=g#6 v=80
116640 On ch=1 n=f#6 v=90
116640 On ch=1 n=f#5 v=78
116760 Off ch=1 n=f#5 v=80
116880 On ch=1 n=d5 v=78
117000 Off ch=1 n=d5 v=80
117120 Off ch=1 n=f#6 v=80
117120 On ch=1 n=e6 v=90
117120 On ch=1 n=c#6 v=78
117360 Off ch=1 n=c#6 v=80
117360 On ch=1 n=a5 v=78
117480 Off ch=1 n=a5 v=80
117600 Off ch=1 n=e6 v=80
117600 On ch=1 n=c#6 v=90
117600 On ch=1 n=e5 v=78
117720 Off ch=1 n=e5 v=80
117840 On ch=1 n=c#5 v=78
117960 Off ch=1 n=c#5 v=80
118080 Off ch=1 n=c#6 v=80
118080 On ch=1 n=d6 v=90
118080 On ch=1 n=b5 v=78
118320 Off ch=1 n=b5 v=80
118320 On ch=1 n=g#5 v=78
118440 Off ch=1 n=g#5 v=80
118560 Off ch=1 n=d6 v=80
118560 On ch=1 n=e6 v=90
118560 On ch=1 n=e5 v=78
118680 Off ch=1 n=e5 v=80
118800 On ch=1 n=d5 v=78
118920 Off ch=1 n=d5 v=80
119040 Off ch=1 n=e6 v=80
119040 On ch=1 n=d6 v=90
119040 On ch=1 n=b5 v=78
119280 Off ch=1 n=b5 v=80
119280 On ch=1 n=g#5 v=78
119400 Off ch=1 n=g#5 v=80
119520 On ch=1 n=e5 v=78
119640 Off ch=1 n=e5 v=80
119760 On ch=1 n=d5 v=78
119880 Off ch=1 n=d5 v=80
120000 Off ch=1 n=d6 v=80
120000 On ch=1 n=a5 v=78
120000 On ch=1 n=c#6 v=90
120240 Off ch=1 n=a5 v=80
120240 On ch=1 n=e5 v=78
120360 Off ch=1 n=e5 v=80
120480 Off ch=1 n=c#6 v=80
120480 On ch=1 n=c#5 v=78
120600 Off ch=1 n=c#5 v=80
120720 On ch=1 n=a4 v=78
120840 Off ch=1 n=a4 v=80
120960 On ch=1 n=c#5 v=65
121200 On ch=1 n=c#6 v=51
121200 On ch=1 n=a5 v=51
121440 Off ch=1 n=a5 v=80
121440 Off ch=1 n=c#6 v=80
121440 Off ch=1 n=c#5 v=80
121920 On ch=1 n=d#5 v=65
122160 On ch=1 n=a5 v=51
122160 On ch=1 n=b5 v=51
122400 Off ch=1 n=b5 v=80
122400 Off ch=1 n=a5 v=80
122400 Off ch=1 n=d#5 v=80
122880 On ch=1 n=f#5 v=65
123120 On ch=1 n=g#5 v=51
123120 On ch=1 n=b5 v=51
123360 Off ch=1 n=b5 v=80
123360 Off ch=1 n=g#5 v=80
123360 Off ch=1 n=f#5 v=80
123840 On ch=1 n=d#5 v=65
124080 On ch=1 n=e5 v=51
124080 On ch=1 n=a5 v=51
124320 Off ch=1 n=a5 v=80
124320 Off ch=1 n=e5 v=80
124320 Off ch=1 n=d#5 v=80
124800 On ch=1 n=b4 v=65
125040 On ch=1 n=e5 v=51
125040 On ch=1 n=g#5 v=51
125280 Off ch=1 n=g#5 v=80
125280 Off ch=1 n=e5 v=80
125280 Off ch=1 n=b4 v=80
125760 On ch=1 n=a4 v=65
126000 On ch=1 n=d#5 v=51
126000 On ch=1 n=f#5 v=51
126240 Off ch=1 n=f#5 v=80
126240 Off ch=1 n=d#5 v=80
126240 Off ch=1 n=a4 v=80
126720 On ch=1 n=a4 v=65
126960 On ch=1 n=d#5 v=51
126960 On ch=1 n=f#5 v=51
127200 Off ch=1 n=f#5 v=80
127200 Off ch=1 n=d#5 v=80
127200 Off ch=1 n=a4 v=80
127680 On ch=1 n=g#4 v=65
127920 On ch=1 n=b4 v=51
127920 On ch=1 n=e5 v=51
128160 Off ch=1 n=e5 v=80
128160 Off ch=1 n=b4 v=80
128160 Off ch=1 n=g#4 v=80
129120 On ch=1 n=c6 v=65
129120 On ch=1 n=e5 v=65
129240 Off ch=1 n=e5 v=80
129240 Off ch=1 n=c6 v=80
129480 On ch=1 n=d6 v=65
129480 On ch=1 n=g5 v=65
129600 Off ch=1 n=g5 v=80
129600 Off ch=1 n=d6 v=80
129600 On ch=1 n=e6 v=65
129600 On ch=1 n=c6 v=65
130080 Off ch=1 n=c6 v=80
130080 Off ch=1 n=e6 v=80
130080 On ch=1 n=c6 v=65
130080 On ch=1 n=a5 v=65
130440 Off ch=1 n=a5 v=80
130440 On ch=1 n=f5 v=65
130560 Off ch=1 n=c6 v=80
130560 Off ch=1 n=f5 v=80
130560 On ch=1 n=e5 v=65
130560 On ch=1 n=g5 v=65
131040 Off ch=1 n=g5 v=80
131040 Off ch=1 n=e5 v=80
131040 On ch=1 n=b4 v=65
131040 On ch=1 n=f5 v=65
131400 Off ch=1 n=f5 v=80
131400 On ch=1 n=g5 v=65
131520 Off ch=1 n=b4 v=80
131520 Off ch=1 n=g5 v=80
131520 On ch=1 n=e5 v=65
131520 On ch=1 n=c5 v=65
132000 Off ch=1 n=c5 v=80
132000 Off ch=1 n=e5 v=80
132000 On ch=1 n=e5 v=65
132000 On ch=1 n=c6 v=65
132360 Off ch=1 n=c6 v=80
132360 On ch=1 n=d6 v=65
132480 Off ch=1 n=e5 v=80
132480 Off ch=1 n=d6 v=80
132480 On ch=1 n=e6 v=73
132480 On ch=1 n=c6 v=73
132960 Off ch=1 n=c6 v=80
132960 Off ch=1 n=e6 v=80
132960 On ch=1 n=g5 v=81
132960 On ch=1 n=e6 v=81
133320 Off ch=1 n=e6 v=80
133320 On ch=1 n=f#6 v=81
133440 Off ch=1 n=g5 v=80
133440 Off ch=1 n=f#6 v=80
133440 On ch=1 n=g6 v=90
133440 On ch=1 n=b5 v=90
133920 Off ch=1 n=b5 v=80
133920 Off ch=1 n=g6 v=80
133920 On ch=1 n=a5 v=90
133920 On ch=1 n=f#6 v=90
134280 Off ch=1 n=f#6 v=80
134280 On ch=1 n=g6 v=90
134400 Off ch=1 n=a5 v=80
134400 Off ch=1 n=g6 v=80
134400 On ch=1 n=e6 v=90
134400 On ch=1 n=g5 v=90
134880 Off ch=1 n=g5 v=80
134880 Off ch=1 n=e6 v=80
134880 On ch=1 n=e6 v=65
134880 On ch=1 n=g5 v=65
135000 Off ch=1 n=g5 v=80
135000 Off ch=1 n=e6 v=80
135240 On ch=1 n=f#6 v=65
135240 On ch=1 n=b5 v=65
135360 Off ch=1 n=b5 v=80
135360 Off ch=1 n=f#6 v=80
135360 On ch=1 n=e6 v=65
135360 On ch=1 n=g6 v=65
135840 Off ch=1 n=g6 v=80
135840 Off ch=1 n=e6 v=80
135840 On ch=1 n=e6 v=65
135840 On ch=1 n=c6 v=65
136200 Off ch=1 n=c6 v=80
136200 On ch=1 n=a5 v=65
136320 Off ch=1 n=e6 v=80
136320 Off ch=1 n=a5 v=80
136320 On ch=1 n=b5 v=65
136320 On ch=1 n=g5 v=65
136800 Off ch=1 n=g5 v=80
136800 Off ch=1 n=b5 v=80
136800 On ch=1 n=d#5 v=65
136800 On ch=1 n=a5 v=65
137160 Off ch=1 n=a5 v=80
137160 On ch=1 n=b5 v=65
137280 Off ch=1 n=d#5 v=80
137280 Off ch=1 n=b5 v=80
137280 On ch=1 n=e5 v=65
137280 On ch=1 n=g5 v=65
137760 Off ch=1 n=g5 v=80
137760 Off ch=1 n=e5 v=80
137760 On ch=1 n=e6 v=65
137760 On ch=1 n=g5 v=65
138120 Off ch=1 n=e6 v=80
138120 On ch=1 n=f#6 v=65
138240 Off ch=1 n=g5 v=80
138240 Off ch=1 n=f#6 v=80
138240 On ch=1 n=e6 v=65
138240 On ch=1 n=g6 v=65
138720 Off ch=1 n=g6 v=80
138720 Off ch=1 n=e6 v=80
138720 On ch=1 n=b5 v=65
138720 On ch=1 n=g6 v=65
139080 Off ch=1 n=g6 v=80
139080 On ch=1 n=a6 v=65
139200 Off ch=1 n=b5 v=80
139200 Off ch=1 n=a6 v=80
139200 On ch=1 n=b6 v=65
139200 On ch=1 n=d6 v=65
139680 Off ch=1 n=d6 v=80
139680 Off ch=1 n=b6 v=80
139680 On ch=1 n=c6 v=65
139680 On ch=1 n=a6 v=65
140040 Off ch=1 n=a6 v=80
140040 On ch=1 n=b6 v=65
140160 Off ch=1 n=c6 v=80
140160 Off ch=1 n=b6 v=80
140160 On ch=1 n=b5 v=65
140160 On ch=1 n=g6 v=65
140640 Off ch=1 n=g6 v=80
140640 Off ch=1 n=b5 v=80
140640 On ch=1 n=d5 v=80
141120 Off ch=1 n=d5 v=80
141120 On ch=1 n=g5 v=71
141600 Off ch=1 n=g5 v=80
141600 On ch=1 n=a#5 v=77
141600 On ch=1 n=d6 v=77
142080 Off ch=1 n=d6 v=80
142080 On ch=1 n=g6 v=83
142560 Off ch=1 n=a#5 v=80
142560 Off ch=1 n=g6 v=80
142560 On ch=1 n=a5 v=105
142560 On ch=1 n=f6 v=105
143040 Off ch=1 n=a5 v=80
143040 On ch=1 n=d6 v=90
143520 Off ch=1 n=f6 v=80
143520 Off ch=1 n=d6 v=80
143520 On ch=1 n=f6 v=90
143520 On ch=1 n=a6 v=90
144000 Off ch=1 n=a6 v=80
144000 On ch=1 n=d7 v=90
144480 Off ch=1 n=f6 v=80
144480 Off ch=1 n=d7 v=80
144480 On ch=1 n=e6 v=80
144480 On ch=1 n=c7 v=80
144960 Off ch=1 n=c7 v=80
144960 Off ch=1 n=e6 v=80
144960 On ch=1 n=a5 v=71
145440 Off ch=1 n=a5 v=80
145440 On ch=1 n=e6 v=77
145440 On ch=1 n=c6 v=77
145920 Off ch=1 n=e6 v=80
145920 On ch=1 n=a6 v=83
146400 Off ch=1 n=c6 v=80
146400 Off ch=1 n=a6 v=80
146400 On ch=1 n=b5 v=100
146400 On ch=1 n=g#6 v=100
146880 Off ch=1 n=b5 v=80
146880 On ch=1 n=e6 v=98
147360 Off ch=1 n=g#6 v=80
147360 Off ch=1 n=e6 v=80
147360 On ch=1 n=b6 v=106
147360 On ch=1 n=g#6 v=106
147840 Off ch=1 n=b6 v=80
147840 On ch=1 n=e7 v=114
148320 Off ch=1 n=g#6 v=80
148320 Off ch=1 n=e7 v=80
148320 On ch=1 n=e6 v=105
148320 On ch=1 n=d7 v=105
148800 Off ch=1 n=d7 v=80
148800 Off ch=1 n=e6 v=80
148800 On ch=1 n=c7 v=90
148800 On ch=1 n=a6 v=90
149280 Off ch=1 n=a6 v=80
149280 Off ch=1 n=c7 v=80
149280 On ch=1 n=c7 v=105
149280 On ch=1 n=a6 v=105
149280 On ch=1 n=c6 v=105
149760 Off ch=1 n=a6 v=80
149760 Off ch=1 n=c7 v=80
149760 On ch=1 n=a#6 v=90
149760 On ch=1 n=a6 v=90
150240 Off ch=1 n=a6 v=80
150240 Off ch=1 n=c6 v=80
150240 Off ch=1 n=a#6 v=80
150240 On ch=1 n=a#6 v=105
150240 On ch=1 n=g6 v=105
150240 On ch=1 n=a#5 v=105
150720 Off ch=1 n=g6 v=80
150720 Off ch=1 n=a#6 v=80
150720 On ch=1 n=g6 v=96
150720 On ch=1 n=a6 v=96
151200 Off ch=1 n=a6 v=80
151200 Off ch=1 n=a#5 v=80
151200 Off ch=1 n=g6 v=80
151200 On ch=1 n=a6 v=111
151200 On ch=1 n=f6 v=111
151200 On ch=1 n=a5 v=111
151680 Off ch=1 n=f6 v=80
151680 Off ch=1 n=a6 v=80
151680 On ch=1 n=g6 v=102
151680 On ch=1 n=f6 v=102
152160 Off ch=1 n=f6 v=80
152160 Off ch=1 n=a5 v=80
152160 Off ch=1 n=g6 v=80
152160 On ch=1 n=g6 v=102
152160 On ch=1 n=e6 v=102
152160 On ch=1 n=g5 v=102
152640 Off ch=1 n=e6 v=80
152640 Off ch=1 n=g6 v=80
152640 On ch=1 n=f6 v=108
152640 On ch=1 n=e6 v=108
153120 Off ch=1 n=e6 v=80
153120 Off ch=1 n=g5 v=80
153120 Off ch=1 n=f6 v=80
153120 On ch=1 n=f6 v=108
153120 On ch=1 n=d6 v=108
153120 On ch=1 n=f5 v=108
153600 Off ch=1 n=d6 v=80
153600 Off ch=1 n=f6 v=80
153600 On ch=1 n=d#6 v=114
153600 On ch=1 n=d6 v=114
154080 Off ch=1 n=d6 v=80
154080 Off ch=1 n=f5 v=80
154080 Off ch=1 n=d#6 v=80
154080 On ch=1 n=d#6 v=105
154080 On ch=1 n=d6 v=105
154080 On ch=1 n=d#5 v=105
154200 Off ch=1 n=d#5 v=80
154440 On ch=1 n=f5 v=90
154560 Off ch=1 n=f5 v=80
154560 On ch=1 n=g5 v=96
154680 Off ch=1 n=g5 v=80
154920 On ch=1 n=a5 v=96
155040 Off ch=1 n=d6 v=80
155040 Off ch=1 n=d#6 v=80
155040 Off ch=1 n=a5 v=80
155040 On ch=1 n=a#5 v=102
155040 On ch=1 n=d#6 v=102
155160 Off ch=1 n=a#5 v=80
155400 On ch=1 n=c6 v=102
155520 Off ch=1 n=c6 v=80
155520 On ch=1 n=d6 v=108
155760 Off ch=1 n=d#6 v=80
155760 Off ch=1 n=d6 v=80
155880 On ch=1 n=f6 v=108
155880 On ch=1 n=f5 v=108
156000 Off ch=1 n=f5 v=80
156000 Off ch=1 n=f6 v=80
156000 On ch=1 n=d#6 v=127
156000 On ch=1 n=a#5 v=127
156000 On ch=1 n=d#5 v=127
156720 Off ch=1 n=d#5 v=80
156720 Off ch=1 n=a#5 v=80
156720 Off ch=1 n=d#6 v=80
156840 On ch=1 n=f6 v=114
156840 On ch=1 n=f5 v=114
156960 Off ch=1 n=f5 v=80
156960 Off ch=1 n=f6 v=80
156960 On ch=1 n=d#6 v=114
156960 On ch=1 n=a#5 v=114
156960 On ch=1 n=d#5 v=114
157080 Off ch=1 n=d#5 v=80
157080 Off ch=1 n=a#5 v=80
157080 Off ch=1 n=d#6 v=80
157320 On ch=1 n=d6 v=114
157320 On ch=1 n=d5 v=114
157440 Off ch=1 n=d5 v=80
157440 Off ch=1 n=d6 v=80
157440 On ch=1 n=c#6 v=114
157440 On ch=1 n=c#5 v=114
157680 Off ch=1 n=c#5 v=80
157680 Off ch=1 n=c#6 v=80
157920 On ch=1 n=a#5 v=105
157920 On ch=1 n=g5 v=105
157920 On ch=1 n=c#5 v=105
157920 On ch=1 n=c#6 v=105
158880 Off ch=1 n=c#6 v=80
158880 Off ch=1 n=c#5 v=80
158880 Off ch=1 n=g5 v=80
158880 Off ch=1 n=a#5 v=80
158880 On ch=1 n=c#6 v=112
158880 On ch=1 n=a#5 v=112
158880 On ch=1 n=g5 v=112
158880 On ch=1 n=c#5 v=112
159840 Off ch=1 n=c#5 v=80
159840 Off ch=1 n=g5 v=80
159840 Off ch=1 n=a#5 v=80
159840 Off ch=1 n=c#6 v=80
159840 On ch=1 n=c#6 v=119
159840 On ch=1 n=a5 v=119
159840 On ch=1 n=g5 v=119
159840 On ch=1 n=c#5 v=119
160800 Off ch=1 n=c#5 v=80
160800 Off ch=1 n=g5 v=80
160800 Off ch=1 n=a5 v=80
160800 Off ch=1 n=c#6 v=80
160800 On ch=1 n=c#5 v=127
160800 On ch=1 n=g5 v=127
160800 On ch=1 n=a5 v=127
160800 On ch=1 n=c#6 v=127
161760 Off ch=1 n=c#6 v=80
161760 Off ch=1 n=a5 v=80
161760 Off ch=1 n=g5 v=80
161760 Off ch=1 n=c#5 v=80
161760 On ch=1 n=d6 v=127
161760 On ch=1 n=a#5 v=127
161760 On ch=1 n=g5 v=127
162240 Off ch=1 n=g5 v=80
162240 Off ch=1 n=a#5 v=80
162240 On ch=1 n=a5 v=114
162240 On ch=1 n=f5 v=114
162720 Off ch=1 n=f5 v=80
162720 Off ch=1 n=d6 v=80
162720 Off ch=1 n=a5 v=80
162720 On ch=1 n=g5 v=127
162720 On ch=1 n=e5 v=127
162720 On ch=1 n=b4 v=127
162960 Off ch=1 n=b4 v=80
162960 On ch=1 n=c#5 v=114
163680 Off ch=1 n=e5 v=80
163680 Off ch=1 n=g5 v=80
163680 Off ch=1 n=c#5 v=80
163680 On ch=1 n=g5 v=127
163680 On ch=1 n=a#5 v=127
163680 On ch=1 n=d6 v=127
164160 Off ch=1 n=a#5 v=80
164160 Off ch=1 n=g5 v=80
164160 On ch=1 n=a5 v=114
164160 On ch=1 n=f5 v=114
164640 Off ch=1 n=f5 v=80
164640 Off ch=1 n=d6 v=80
164640 Off ch=1 n=a5 v=80
164640 On ch=1 n=b4 v=127
164640 On ch=1 n=g5 v=127
164640 On ch=1 n=e5 v=127
164880 Off ch=1 n=b4 v=80
164880 On ch=1 n=c#5 v=114
165120 Off ch=1 n=g5 v=80
165120 Off ch=1 n=e5 v=80
165120 Off ch=1 n=c#5 v=80
165120 On ch=1 n=f5 v=114
165120 On ch=1 n=d5 v=114
166080 Off ch=1 n=d5 v=80
166080 Off ch=1 n=f5 v=80
166080 On ch=1 n=c5 v=90
166080 On ch=1 n=e5 v=90
167040 Off ch=1 n=e5 v=80
167040 Off ch=1 n=c5 v=80
167040 On ch=1 n=d4 v=65
167040 On ch=1 n=d5 v=65
167160 Off ch=1 n=d4 v=80
167280 Off ch=1 n=d5 v=80
167280 On ch=1 n=e4 v=71
167400 Off ch=1 n=e4 v=80
167520 On ch=1 n=f4 v=78
167520 On ch=1 n=d5 v=78
167640 Off ch=1 n=f4 v=80
167760 Off ch=1 n=d5 v=80
167760 On ch=1 n=g4 v=84
167880 Off ch=1 n=g4 v=80
168000 On ch=1 n=c5 v=90
168000 On ch=1 n=a4 v=90
168240 Off ch=1 n=a4 v=80
168240 On ch=1 n=f4 v=90
168480 Off ch=1 n=f4 v=80
168960 Off ch=1 n=c5 v=80
168960 On ch=1 n=c5 v=65
168960 On ch=1 n=a#4 v=65
169200 Off ch=1 n=a#4 v=80
169200 On ch=1 n=g4 v=71
169440 Off ch=1 n=c5 v=80
169440 Off ch=1 n=g4 v=80
169440 On ch=1 n=e5 v=78
169440 On ch=1 n=g5 v=78
169560 Off ch=1 n=e5 v=80
169680 On ch=1 n=c5 v=84
169800 Off ch=1 n=c5 v=80
169920 Off ch=1 n=g5 v=80
169920 On ch=1 n=a5 v=90
169920 On ch=1 n=f5 v=90
170160 Off ch=1 n=f5 v=80
170160 On ch=1 n=c5 v=90
170400 Off ch=1 n=c5 v=80
170880 Off ch=1 n=a5 v=80
170880 On ch=1 n=d4 v=65
170880 On ch=1 n=d5 v=65
171000 Off ch=1 n=d4 v=80
171120 Off ch=1 n=d5 v=80
171120 On ch=1 n=e4 v=71
171240 Off ch=1 n=e4 v=80
171360 On ch=1 n=f4 v=78
171360 On ch=1 n=d5 v=78
171480 Off ch=1 n=f4 v=80
171600 Off ch=1 n=d5 v=80
171600 On ch=1 n=g4 v=84
171720 Off ch=1 n=g4 v=80
171840 On ch=1 n=c5 v=90
171840 On ch=1 n=a4 v=90
172080 Off ch=1 n=a4 v=80
172080 On ch=1 n=f4 v=90
172320 Off ch=1 n=f4 v=80
172800 Off ch=1 n=c5 v=80
172800 On ch=1 n=a#4 v=65
172800 On ch=1 n=c5 v=65
173040 Off ch=1 n=a#4 v=80
173040 On ch=1 n=g4 v=71
173280 Off ch=1 n=c5 v=80
173280 Off ch=1 n=g4 v=80
173280 On ch=1 n=e5 v=78
173280 On ch=1 n=g5 v=78
173400 Off ch=1 n=e5 v=80
173520 On ch=1 n=c5 v=84
173640 Off ch=1 n=c5 v=80
173760 Off ch=1 n=g5 v=80
173760 On ch=1 n=f5 v=90
173760 On ch=1 n=a5 v=90
174000 Off ch=1 n=f5 v=80
174000 On ch=1 n=c5 v=90
174240 Off ch=1 n=c5 v=80
174720 Off ch=1 n=a5 v=80
174720 On ch=1 n=a#5 v=78
174720 On ch=1 n=d6 v=90
174960 Off ch=1 n=a#5 v=80
174960 On ch=1 n=f5 v=78
175080 Off ch=1 n=f5 v=80
175200 On ch=1 n=d5 v=78
175320 Off ch=1 n=d5 v=80
175440 On ch=1 n=a#4 v=78
175560 Off ch=1 n=a#4 v=80
175680 Off ch=1 n=d6 v=80
175680 On ch=1 n=e6 v=90
175680 On ch=1 n=c6 v=78
175920 Off ch=1 n=c6 v=80
175920 On ch=1 n=a#5 v=78
176040 Off ch=1 n=a#5 v=80
176160 On ch=1 n=e5 v=78
176280 Off ch=1 n=e5 v=80
176400 On ch=1 n=c5 v=78
176520 Off ch=1 n=c5 v=80
176640 Off ch=1 n=e6 v=80
176640 On ch=1 n=g6 v=90
176640 On ch=1 n=c6 v=78
176880 Off ch=1 n=c6 v=80
176880 On ch=1 n=a5 v=78
177000 Off ch=1 n=a5 v=80
177120 Off ch=1 n=g6 v=80
177120 On ch=1 n=f6 v=90
177120 On ch=1 n=f5 v=78
177240 Off ch=1 n=f5 v=80
177360 On ch=1 n=c5 v=78
177480 Off ch=1 n=c5 v=80
177600 Off ch=1 n=f6 v=80
177600 On ch=1 n=e6 v=90
177600 On ch=1 n=a#5 v=78
177840 Off ch=1 n=a#5 v=80
177840 On ch=1 n=f5 v=78
177960 Off ch=1 n=f5 v=80
178080 Off ch=1 n=e6 v=80
178080 On ch=1 n=d6 v=90
178080 On ch=1 n=d5 v=78
178200 Off ch=1 n=d5 v=80
178320 On ch=1 n=a#4 v=78
178440 Off ch=1 n=a#4 v=80
178560 Off ch=1 n=d6 v=80
178560 On ch=1 n=c6 v=90
178560 On ch=1 n=a5 v=78
178800 Off ch=1 n=a5 v=80
178800 On ch=1 n=f5 v=78
178920 Off ch=1 n=f5 v=80
179040 Off ch=1 n=c6 v=80
179040 On ch=1 n=a5 v=90
179040 On ch=1 n=c5 v=78
179160 Off ch=1 n=c5 v=80
179280 On ch=1 n=a4 v=78
179400 Off ch=1 n=a4 v=80
179520 Off ch=1 n=a5 v=80
179520 On ch=1 n=a#5 v=90
179520 On ch=1 n=g5 v=78
179760 Off ch=1 n=g5 v=80
179760 On ch=1 n=e5 v=78
179880 Off ch=1 n=e5 v=80
180000 Off ch=1 n=a#5 v=80
180000 On ch=1 n=c6 v=90
180000 On ch=1 n=c5 v=78
180120 Off ch=1 n=c5 v=80
180240 On ch=1 n=a#4 v=78
180360 Off ch=1 n=a#4 v=80
180480 Off ch=1 n=c6 v=80
180480 On ch=1 n=a#5 v=90
180480 On ch=1 n=g5 v=78
180720 Off ch=1 n=g5 v=80
180720 On ch=1 n=e5 v=78
180840 Off ch=1 n=e5 v=80
180960 On ch=1 n=c5 v=78
181080 Off ch=1 n=c5 v=80
181200 On ch=1 n=a#4 v=78
181320 Off ch=1 n=a#4 v=80
181440 Off ch=1 n=a#5 v=80
181440 On ch=1 n=a5 v=90
181440 On ch=1 n=f5 v=78
181680 Off ch=1 n=f5 v=80
181680 On ch=1 n=c5 v=78
181920 Off ch=1 n=a5 v=80
181920 Off ch=1 n=c5 v=80
181920 On ch=1 n=a4 v=78
182160 Off ch=1 n=a4 v=80
182160 On ch=1 n=f4 v=78
182400 Off ch=1 n=f4 v=80
182400 On ch=1 n=a4 v=65
182640 On ch=1 n=a5 v=53
182640 On ch=1 n=f5 v=53
182880 Off ch=1 n=f5 v=80
182880 Off ch=1 n=a5 v=80
182880 Off ch=1 n=a4 v=80
183360 On ch=1 n=b4 v=65
183600 On ch=1 n=f5 v=53
183600 On ch=1 n=g5 v=53
183840 Off ch=1 n=g5 v=80
183840 Off ch=1 n=f5 v=80
183840 Off ch=1 n=b4 v=80
184320 On ch=1 n=d5 v=65
184560 On ch=1 n=e5 v=53
184560 On ch=1 n=g5 v=53
184800 Off ch=1 n=g5 v=80
184800 Off ch=1 n=e5 v=80
184800 Off ch=1 n=d5 v=80
185280 On ch=1 n=b4 v=65
185520 On ch=1 n=c5 v=53
185520 On ch=1 n=f5 v=53
185760 Off ch=1 n=f5 v=80
185760 Off ch=1 n=c5 v=80
185760 Off ch=1 n=b4 v=80
186240 On ch=1 n=g4 v=65
186480 On ch=1 n=c5 v=53
186480 On ch=1 n=e5 v=53
186720 Off ch=1 n=e5 v=80
186720 Off ch=1 n=c5 v=80
186720 Off ch=1 n=g4 v=80
187200 On ch=1 n=f4 v=65
187440 On ch=1 n=b4 v=53
187440 On ch=1 n=d5 v=53
187680 Off ch=1 n=d5 v=80
187680 Off ch=1 n=b4 v=80
187680 Off ch=1 n=f4 v=80
188160 On ch=1 n=f4 v=65
188400 On ch=1 n=b4 v=53
188400 On ch=1 n=d5 v=53
188640 Off ch=1 n=d5 v=80
188640 Off ch=1 n=b4 v=80
188640 Off ch=1 n=f4 v=80
189120 On ch=1 n=e4 v=65
189360 On ch=1 n=g4 v=53
189360 On ch=1 n=c5 v=53
189600 Off ch=1 n=c5 v=80
189600 Off ch=1 n=g4 v=80
189600 Off ch=1 n=e4 v=80
190080 On ch=1 n=g#4 v=100
190320 On ch=1 n=c5 v=90
190560 Off ch=1 n=c5 v=80
190560 On ch=1 n=f5 v=90
190680 Off ch=1 n=f5 v=80
190800 On ch=1 n=g#5 v=90
190920 Off ch=1 n=g#5 v=80
191040 Off ch=1 n=g#4 v=80
191040 On ch=1 n=a#4 v=90
191280 On ch=1 n=f5 v=90
191400 Off ch=1 n=a#4 v=80
191520 Off ch=1 n=f5 v=80
191520 On ch=1 n=c5 v=90
191760 On ch=1 n=f5 v=90
191880 Off ch=1 n=c5 v=80
192000 Off ch=1 n=f5 v=80
192000 On ch=1 n=d#5 v=100
192240 On ch=1 n=f5 v=90
192480 Off ch=1 n=f5 v=80
192480 Off ch=1 n=d#5 v=80
192480 On ch=1 n=a#5 v=98
192600 Off ch=1 n=a#5 v=80
192720 On ch=1 n=c#6 v=98
192840 Off ch=1 n=c#6 v=80
192960 On ch=1 n=d#6 v=106
193200 On ch=1 n=f6 v=106
193440 Off ch=1 n=f6 v=80
193440 Off ch=1 n=d#6 v=80
193440 On ch=1 n=c#6 v=114
193440 On ch=1 n=a#6 v=114
193560 Off ch=1 n=a#6 v=80
193680 On ch=1 n=c#7 v=114
193800 Off ch=1 n=c#7 v=80
193920 Off ch=1 n=c#6 v=80
193920 On ch=1 n=g4 v=100
194160 On ch=1 n=a#4 v=90
194400 Off ch=1 n=a#4 v=80
194400 On ch=1 n=c#5 v=90
194520 Off ch=1 n=c#5 v=80
194640 On ch=1 n=d#5 v=90
194760 Off ch=1 n=d#5 v=80
194880 Off ch=1 n=g4 v=80
194880 On ch=1 n=g#4 v=90
195120 On ch=1 n=d#5 v=90
195240 Off ch=1 n=g#4 v=80
195360 Off ch=1 n=d#5 v=80
195360 On ch=1 n=a#4 v=90
195600 On ch=1 n=d#5 v=90
195720 Off ch=1 n=a#4 v=80
195840 Off ch=1 n=d#5 v=80
195840 On ch=1 n=c#5 v=100
196080 On ch=1 n=d#5 v=90
196320 Off ch=1 n=d#5 v=80
196320 Off ch=1 n=c#5 v=80
196320 On ch=1 n=g#5 v=98
196440 Off ch=1 n=g#5 v=80
196560 On ch=1 n=c6 v=98
196680 Off ch=1 n=c6 v=80
196800 On ch=1 n=c#6 v=106
197040 On ch=1 n=d#6 v=106
197280 Off ch=1 n=d#6 v=80
197280 Off ch=1 n=c#6 v=80
197280 On ch=1 n=c6 v=114
197280 On ch=1 n=g#6 v=114
197400 Off ch=1 n=g#6 v=80
197520 On ch=1 n=c7 v=114
197640 Off ch=1 n=c7 v=80
197760 Off ch=1 n=c6 v=80
197760 On ch=1 n=c#6 v=78
197760 On ch=1 n=f6 v=90
198000 Off ch=1 n=c#6 v=80
198000 On ch=1 n=g#5 v=78
198120 Off ch=1 n=g#5 v=80
198240 On ch=1 n=f5 v=78
198360 Off ch=1 n=f5 v=80
198480 On ch=1 n=c#5 v=78
198600 Off ch=1 n=c#5 v=80
198720 Off ch=1 n=f6 v=80
198720 On ch=1 n=g6 v=90
198720 On ch=1 n=d#6 v=78
198960 Off ch=1 n=d#6 v=80
198960 On ch=1 n=c#6 v=78
199080 Off ch=1 n=c#6 v=80
199200 On ch=1 n=g5 v=78
199320 Off ch=1 n=g5 v=80
199440 On ch=1 n=d#5 v=78
199560 Off ch=1 n=d#5 v=80
199680 Off ch=1 n=g6 v=80
199680 On ch=1 n=a#6 v=90
199680 On ch=1 n=d#6 v=78
199920 Off ch=1 n=d#6 v=80
199920 On ch=1 n=c6 v=78
200040 Off ch=1 n=c6 v=80
200160 Off ch=1 n=a#6 v=80
200160 On ch=1 n=g#6 v=90
200160 On ch=1 n=g#5 v=78
200280 Off ch=1 n=g#5 v=80
200400 On ch=1 n=d#5 v=78
200520 Off ch=1 n=d#5 v=80
200640 Off ch=1 n=g#6 v=80
200640 On ch=1 n=g6 v=90
200640 On ch=1 n=c#6 v=78
200880 Off ch=1 n=c#6 v=80
200880 On ch=1 n=g#5 v=78
201000 Off ch=1 n=g#5 v=80
201120 Off ch=1 n=g6 v=80
201120 On ch=1 n=f6 v=90
201120 On ch=1 n=f5 v=78
201240 Off ch=1 n=f5 v=80
201360 On ch=1 n=c#5 v=78
201480 Off ch=1 n=c#5 v=80
201600 Off ch=1 n=f6 v=80
201600 On ch=1 n=d#6 v=90
201600 On ch=1 n=c6 v=78
201840 Off ch=1 n=c6 v=80
201840 On ch=1 n=g#5 v=78
201960 Off ch=1 n=g#5 v=80
202080 Off ch=1 n=d#6 v=80
202080 On ch=1 n=c6 v=90
202080 On ch=1 n=d#5 v=78
202200 Off ch=1 n=d#5 v=80
202320 On ch=1 n=c5 v=78
202440 Off ch=1 n=c5 v=80
202560 Off ch=1 n=c6 v=80
202560 On ch=1 n=c#6 v=90
202560 On ch=1 n=a#5 v=78
202800 Off ch=1 n=a#5 v=80
202800 On ch=1 n=g5 v=78
202920 Off ch=1 n=g5 v=80
203040 Off ch=1 n=c#6 v=80
203040 On ch=1 n=d#6 v=90
203040 On ch=1 n=d#5 v=78
203160 Off ch=1 n=d#5 v=80
203280 On ch=1 n=c#5 v=78
203400 Off ch=1 n=c#5 v=80
203520 Off ch=1 n=d#6 v=80
203520 On ch=1 n=c#6 v=90
203520 On ch=1 n=a#5 v=78
203760 Off ch=1 n=a#5 v=80
203760 On ch=1 n=g5 v=78
203880 Off ch=1 n=g5 v=80
204000 On ch=1 n=d#5 v=78
204120 Off ch=1 n=d#5 v=80
204240 On ch=1 n=c#5 v=78
204360 Off ch=1 n=c#5 v=80
204480 Off ch=1 n=c#6 v=80
204480 On ch=1 n=g#5 v=78
204480 On ch=1 n=c6 v=90
204720 Off ch=1 n=g#5 v=80
204720 On ch=1 n=d#5 v=78
204960 Off ch=1 n=c6 v=80
204960 Off ch=1 n=d#5 v=80
204960 On ch=1 n=c5 v=78
205200 Off ch=1 n=c5 v=80
205200 On ch=1 n=g#4 v=78
205440 Off ch=1 n=g#4 v=80
205440 On ch=1 n=c5 v=65
205680 On ch=1 n=c6 v=51
205680 On ch=1 n=g#5 v=51
205920 Off ch=1 n=g#5 v=80
205920 Off ch=1 n=c6 v=80
205920 Off ch=1 n=c5 v=80
206400 On ch=1 n=d5 v=65
206640 On ch=1 n=g#5 v=51
206640 On ch=1 n=a#5 v=51
206880 Off ch=1 n=a#5 v=80
206880 Off ch=1 n=g#5 v=80
206880 Off ch=1 n=d5 v=80
207360 On ch=1 n=f5 v=65
207600 On ch=1 n=g5 v=51
207600 On ch=1 n=a#5 v=51
207840 Off ch=1 n=a#5 v=80
207840 Off ch=1 n=g5 v=80
207840 Off ch=1 n=f5 v=80
208320 On ch=1 n=d5 v=65
208560 On ch=1 n=d#5 v=51
208560 On ch=1 n=g#5 v=51
208800 Off ch=1 n=g#5 v=80
208800 Off ch=1 n=d#5 v=80
208800 Off ch=1 n=d5 v=80
209280 On ch=1 n=a#4 v=65
209520 On ch=1 n=d#5 v=51
209520 On ch=1 n=g5 v=51
209760 Off ch=1 n=g5 v=80
209760 Off ch=1 n=d#5 v=80
209760 Off ch=1 n=a#4 v=80
210240 On ch=1 n=g#4 v=65
210480 On ch=1 n=d5 v=51
210480 On ch=1 n=f5 v=51
210720 Off ch=1 n=f5 v=80
210720 Off ch=1 n=d5 v=80
210720 Off ch=1 n=g#4 v=80
211200 On ch=1 n=g#4 v=65
211440 On ch=1 n=d5 v=51
211440 On ch=1 n=f5 v=51
211680 Off ch=1 n=f5 v=80
211680 Off ch=1 n=d5 v=80
211680 Off ch=1 n=g#4 v=80
212160 On ch=1 n=g4 v=65
212400 On ch=1 n=a#4 v=51
212400 On ch=1 n=d#5 v=51
212640 Off ch=1 n=d#5 v=80
212640 Off ch=1 n=a#4 v=80
212640 Off ch=1 n=g4 v=80
213600 On ch=1 n=b5 v=65
213600 On ch=1 n=d#5 v=65
213720 Off ch=1 n=d#5 v=80
213720 Off ch=1 n=b5 v=80
213960 On ch=1 n=c#6 v=65
213960 On ch=1 n=f#5 v=65
214080 Off ch=1 n=f#5 v=80
214080 Off ch=1 n=c#6 v=80
214080 On ch=1 n=d#6 v=65
214080 On ch=1 n=b5 v=65
214560 Off ch=1 n=b5 v=80
214560 Off ch=1 n=d#6 v=80
214560 On ch=1 n=b5 v=65
214560 On ch=1 n=g#5 v=65
214920 Off ch=1 n=g#5 v=80
214920 On ch=1 n=e5 v=65
215040 Off ch=1 n=b5 v=80
215040 Off ch=1 n=e5 v=80
215040 On ch=1 n=d#5 v=65
215040 On ch=1 n=f#5 v=65
215520 Off ch=1 n=f#5 v=80
215520 Off ch=1 n=d#5 v=80
215520 On ch=1 n=a#4 v=65
215520 On ch=1 n=e5 v=65
215880 Off ch=1 n=e5 v=80
215880 On ch=1 n=f#5 v=65
216000 Off ch=1 n=a#4 v=80
216000 Off ch=1 n=f#5 v=80
216000 On ch=1 n=d#5 v=65
216000 On ch=1 n=b4 v=65
216480 Off ch=1 n=b4 v=80
216480 Off ch=1 n=d#5 v=80
216480 On ch=1 n=d#5 v=65
216480 On ch=1 n=b5 v=65
216840 Off ch=1 n=b5 v=80
216840 On ch=1 n=c#6 v=65
216960 Off ch=1 n=d#5 v=80
216960 Off ch=1 n=c#6 v=80
216960 On ch=1 n=d#6 v=73
216960 On ch=1 n=b5 v=73
217440 Off ch=1 n=b5 v=80
217440 Off ch=1 n=d#6 v=80
217440 On ch=1 n=f#5 v=81
217440 On ch=1 n=d#6 v=81
217800 Off ch=1 n=d#6 v=80
217800 On ch=1 n=f6 v=81
217920 Off ch=1 n=f#5 v=80
217920 Off ch=1 n=f6 v=80
217920 On ch=1 n=f#6 v=90
217920 On ch=1 n=a#5 v=90
218400 Off ch=1 n=a#5 v=80
218400 Off ch=1 n=f#6 v=80
218400 On ch=1 n=g#5 v=90
218400 On ch=1 n=f6 v=90
218760 Off ch=1 n=f6 v=80
218760 On ch=1 n=f#6 v=90
218880 Off ch=1 n=g#5 v=80
218880 Off ch=1 n=f#6 v=80
218880 On ch=1 n=d#6 v=90
218880 On ch=1 n=f#5 v=90
219360 Off ch=1 n=f#5 v=80
219360 Off ch=1 n=d#6 v=80
219360 On ch=1 n=d#6 v=65
219360 On ch=1 n=f#5 v=65
219720 Off ch=1 n=f#5 v=80
219720 Off ch=1 n=d#6 v=80
219720 On ch=1 n=f6 v=65
219720 On ch=1 n=a#5 v=65
219840 Off ch=1 n=a#5 v=80
219840 Off ch=1 n=f6 v=80
219840 On ch=1 n=f#6 v=65
219840 On ch=1 n=d#6 v=65
220320 Off ch=1 n=d#6 v=80
220320 Off ch=1 n=f#6 v=80
220320 On ch=1 n=d#6 v=65
220320 On ch=1 n=b5 v=65
220680 Off ch=1 n=b5 v=80
220680 On ch=1 n=g#5 v=65
220800 Off ch=1 n=d#6 v=80
220800 Off ch=1 n=g#5 v=80
220800 On ch=1 n=a#5 v=65
220800 On ch=1 n=f#5 v=65
221280 Off ch=1 n=f#5 v=80
221280 Off ch=1 n=a#5 v=80
221280 On ch=1 n=d5 v=65
221280 On ch=1 n=g#5 v=65
221640 Off ch=1 n=g#5 v=80
221640 On ch=1 n=a#5 v=65
221760 Off ch=1 n=d5 v=80
221760 Off ch=1 n=a#5 v=80
221760 On ch=1 n=d#5 v=65
221760 On ch=1 n=f#5 v=65
222240 Off ch=1 n=f#5 v=80
222240 Off ch=1 n=d#5 v=80
222240 On ch=1 n=d#6 v=65
222240 On ch=1 n=f#5 v=65
222600 Off ch=1 n=d#6 v=80
222600 On ch=1 n=f6 v=65
222720 Off ch=1 n=f#5 v=80
222720 Off ch=1 n=f6 v=80
222720 On ch=1 n=d#6 v=65
222720 On ch=1 n=f#6 v=65
223200 Off ch=1 n=f#6 v=80
223200 Off ch=1 n=d#6 v=80
223200 On ch=1 n=a#5 v=65
223200 On ch=1 n=f#6 v=65
223560 Off ch=1 n=f#6 v=80
223560 On ch=1 n=g#6 v=65
223680 Off ch=1 n=a#5 v=80
223680 Off ch=1 n=g#6 v=80
223680 On ch=1 n=a#6 v=65
223680 On ch=1 n=c#6 v=65
224160 Off ch=1 n=c#6 v=80
224160 Off ch=1 n=a#6 v=80
224160 On ch=1 n=b5 v=65
224160 On ch=1 n=g#6 v=65
224520 Off ch=1 n=g#6 v=80
224520 On ch=1 n=a#6 v=65
224640 Off ch=1 n=b5 v=80
224640 Off ch=1 n=a#6 v=80
224640 On ch=1 n=a#5 v=65
224640 On ch=1 n=f#6 v=65
225120 Off ch=1 n=f#6 v=80
225120 Off ch=1 n=a#5 v=80
225120 On ch=1 n=c#5 v=80
225600 Off ch=1 n=c#5 v=80
225600 On ch=1 n=f#5 v=71
226080 Off ch=1 n=f#5 v=80
226080 On ch=1 n=a5 v=77
226080 On ch=1 n=c#6 v=77
226560 Off ch=1 n=c#6 v=80
226560 On ch=1 n=f#6 v=83
227040 Off ch=1 n=a5 v=80
227040 Off ch=1 n=f#6 v=80
227040 On ch=1 n=g#5 v=105
227040 On ch=1 n=e6 v=105
227520 Off ch=1 n=g#5 v=80
227520 On ch=1 n=c#6 v=90
228000 Off ch=1 n=e6 v=80
228000 Off ch=1 n=c#6 v=80
228000 On ch=1 n=e6 v=90
228000 On ch=1 n=g#6 v=90
228480 Off ch=1 n=g#6 v=80
228480 On ch=1 n=c#7 v=90
228960 Off ch=1 n=e6 v=80
228960 Off ch=1 n=c#7 v=80
228960 On ch=1 n=d#6 v=80
228960 On ch=1 n=b6 v=80
229440 Off ch=1 n=b6 v=80
229440 Off ch=1 n=d#6 v=80
229440 On ch=1 n=g#5 v=71
229920 Off ch=1 n=g#5 v=80
229920 On ch=1 n=d#6 v=77
229920 On ch=1 n=b5 v=77
230400 Off ch=1 n=d#6 v=80
230400 On ch=1 n=g#6 v=83
230880 Off ch=1 n=b5 v=80
230880 Off ch=1 n=g#6 v=80
230880 On ch=1 n=a#5 v=100
230880 On ch=1 n=g6 v=100
231360 Off ch=1 n=a#5 v=80
231360 On ch=1 n=d#6 v=98
231840 Off ch=1 n=g6 v=80
231840 Off ch=1 n=d#6 v=80
231840 On ch=1 n=a#6 v=106
231840 On ch=1 n=g6 v=106
232320 Off ch=1 n=a#6 v=80
232320 On ch=1 n=d#7 v=114
232800 Off ch=1 n=g6 v=80
232800 Off ch=1 n=d#7 v=80
232800 On ch=1 n=d#6 v=105
232800 On ch=1 n=c#7 v=105
233280 Off ch=1 n=c#7 v=80
233280 Off ch=1 n=d#6 v=80
233280 On ch=1 n=b6 v=90
233280 On ch=1 n=g#6 v=90
233760 Off ch=1 n=g#6 v=80
233760 Off ch=1 n=b6 v=80
233760 On ch=1 n=b6 v=105
233760 On ch=1 n=g#6 v=105
233760 On ch=1 n=b5 v=105
234240 Off ch=1 n=g#6 v=80
234240 Off ch=1 n=b6 v=80
234240 On ch=1 n=a6 v=90
234240 On ch=1 n=g#6 v=90
234720 Off ch=1 n=g#6 v=80
234720 Off ch=1 n=b5 v=80
234720 Off ch=1 n=a6 v=80
234720 On ch=1 n=a6 v=105
234720 On ch=1 n=f#6 v=105
234720 On ch=1 n=a5 v=105
235200 Off ch=1 n=f#6 v=80
235200 Off ch=1 n=a6 v=80
235200 On ch=1 n=f#6 v=96
235200 On ch=1 n=g#6 v=96
235680 Off ch=1 n=g#6 v=80
235680 Off ch=1 n=a5 v=80
235680 Off ch=1 n=f#6 v=80
235680 On ch=1 n=g#6 v=111
235680 On ch=1 n=e6 v=111
235680 On ch=1 n=g#5 v=111
236160 Off ch=1 n=e6 v=80
236160 Off ch=1 n=g#6 v=80
236160 On ch=1 n=f#6 v=102
236160 On ch=1 n=e6 v=102
236640 Off ch=1 n=e6 v=80
236640 Off ch=1 n=g#5 v=80
236640 Off ch=1 n=f#6 v=80
236640 On ch=1 n=f#6 v=102
236640 On ch=1 n=d#6 v=102
236640 On ch=1 n=f#5 v=102
237120 Off ch=1 n=d#6 v=80
237120 Off ch=1 n=f#6 v=80
237120 On ch=1 n=e6 v=108
237120 On ch=1 n=d#6 v=108
237600 Off ch=1 n=d#6 v=80
237600 Off ch=1 n=f#5 v=80
237600 Off ch=1 n=e6 v=80
237600 On ch=1 n=e6 v=108
237600 On ch=1 n=c#6 v=108
237600 On ch=1 n=e5 v=108
238080 Off ch=1 n=c#6 v=80
238080 Off ch=1 n=e6 v=80
238080 On ch=1 n=c#6 v=114
238080 On ch=1 n=d6 v=114
238560 Off ch=1 n=d6 v=80
238560 Off ch=1 n=e5 v=80
238560 Off ch=1 n=c#6 v=80
238560 On ch=1 n=d6 v=105
238560 On ch=1 n=c#6 v=105
238560 On ch=1 n=d5 v=105
238680 Off ch=1 n=d5 v=80
238920 On ch=1 n=e5 v=90
239040 Off ch=1 n=e5 v=80
239040 On ch=1 n=f#5 v=96
239160 Off ch=1 n=f#5 v=80
239400 On ch=1 n=g#5 v=96
239520 Off ch=1 n=c#6 v=80
239520 Off ch=1 n=d6 v=80
239520 Off ch=1 n=g#5 v=80
239520 On ch=1 n=a5 v=102
239520 On ch=1 n=d6 v=102
239640 Off ch=1 n=a5 v=80
239880 On ch=1 n=b5 v=102
240000 Off ch=1 n=b5 v=80
240000 On ch=1 n=c#6 v=108
240240 Off ch=1 n=d6 v=80
240240 Off ch=1 n=c#6 v=80
240360 On ch=1 n=e6 v=108
240360 On ch=1 n=e5 v=108
240480 Off ch=1 n=e5 v=80
240480 Off ch=1 n=e6 v=80
240480 On ch=1 n=d6 v=127
240480 On ch=1 n=a5 v=127
240480 On ch=1 n=d5 v=127
241200 Off ch=1 n=d5 v=80
241200 Off ch=1 n=a5 v=80
241200 Off ch=1 n=d6 v=80
241320 On ch=1 n=e6 v=114
241320 On ch=1 n=e5 v=114
241440 Off ch=1 n=e5 v=80
241440 Off ch=1 n=e6 v=80
241440 On ch=1 n=d6 v=114
241440 On ch=1 n=a5 v=114
241440 On ch=1 n=d5 v=114
241560 Off ch=1 n=d5 v=80
241560 Off ch=1 n=a5 v=80
241560 Off ch=1 n=d6 v=80
241800 On ch=1 n=c#6 v=114
241800 On ch=1 n=c#5 v=114
241920 Off ch=1 n=c#5 v=80
241920 Off ch=1 n=c#6 v=80
241920 On ch=1 n=c6 v=114
241920 On ch=1 n=c5 v=114
242160 Off ch=1 n=c5 v=80
242160 Off ch=1 n=c6 v=80
242400 On ch=1 n=a5 v=105
242400 On ch=1 n=f#5 v=105
242400 On ch=1 n=c5 v=105
242400 On ch=1 n=c6 v=105
243360 Off ch=1 n=c6 v=80
243360 Off ch=1 n=c5 v=80
243360 Off ch=1 n=f#5 v=80
243360 Off ch=1 n=a5 v=80
243360 On ch=1 n=c5 v=112
243360 On ch=1 n=f#5 v=112
243360 On ch=1 n=a5 v=112
243360 On ch=1 n=c6 v=112
244320 Off ch=1 n=c6 v=80
244320 Off ch=1 n=a5 v=80
244320 Off ch=1 n=f#5 v=80
244320 Off ch=1 n=c5 v=80
244320 On ch=1 n=c6 v=119
244320 On ch=1 n=g#5 v=119
244320 On ch=1 n=f#5 v=119
244320 On ch=1 n=c5 v=119
245280 Off ch=1 n=c5 v=80
245280 Off ch=1 n=f#5 v=80
245280 Off ch=1 n=g#5 v=80
245280 Off ch=1 n=c6 v=80
245280 On ch=1 n=c5 v=127
245280 On ch=1 n=f#5 v=127
245280 On ch=1 n=g#5 v=127
245280 On ch=1 n=c6 v=127
246240 Off ch=1 n=c6 v=80
246240 Off ch=1 n=g#5 v=80
246240 Off ch=1 n=f#5 v=80
246240 Off ch=1 n=c5 v=80
246240 On ch=1 n=c#6 v=127
246240 On ch=1 n=a5 v=127
246240 On ch=1 n=f#5 v=127
246720 Off ch=1 n=f#5 v=80
246720 Off ch=1 n=a5 v=80
246720 On ch=1 n=g#5 v=114
246720 On ch=1 n=e5 v=114
247200 Off ch=1 n=e5 v=80
247200 Off ch=1 n=c#6 v=80
247200 Off ch=1 n=g#5 v=80
247200 On ch=1 n=f#5 v=127
247200 On ch=1 n=d#5 v=127
247200 On ch=1 n=a#4 v=127
247440 Off ch=1 n=a#4 v=80
247440 On ch=1 n=c5 v=114
248160 Off ch=1 n=d#5 v=80
248160 Off ch=1 n=f#5 v=80
248160 Off ch=1 n=c5 v=80
248160 On ch=1 n=f#5 v=127
248160 On ch=1 n=a5 v=127
248160 On ch=1 n=c#6 v=127
248640 Off ch=1 n=a5 v=80
248640 Off ch=1 n=f#5 v=80
248640 On ch=1 n=g#5 v=114
248640 On ch=1 n=e5 v=114
249120 Off ch=1 n=e5 v=80
249120 Off ch=1 n=c#6 v=80
249120 Off ch=1 n=g#5 v=80
249120 On ch=1 n=a#4 v=127
249120 On ch=1 n=d#5 v=127
249120 On ch=1 n=f#5 v=127
249360 Off ch=1 n=a#4 v=80
249360 On ch=1 n=c5 v=114
250080 Off ch=1 n=d#5 v=80
250080 Off ch=1 n=f#5 v=80
250080 Off ch=1 n=c5 v=80
250080 On ch=1 n=e5 v=114
250080 On ch=1 n=c#5 v=114
251040 Off ch=1 n=c#5 v=80
251040 Off ch=1 n=e5 v=80
251040 On ch=1 n=c#5 v=102
251040 On ch=1 n=e5 v=102
252000 Off ch=1 n=e5 v=80
252000 Off ch=1 n=c#5 v=80
252000 On ch=1 n=c#5 v=90
252000 On ch=1 n=e5 v=90
252960 Off ch=1 n=e5 v=80
252960 Off ch=1 n=c#5 v=80
252960 On ch=1 n=e5 v=78
252960 On ch=1 n=c#5 v=78
253440 Off ch=1 n=c#5 v=80
253440 Off ch=1 n=e5 v=80
255840 On ch=1 n=d6 v=90
255840 On ch=1 n=f#5 v=90
255840 On ch=1 n=g#5 v=90
256800 Off ch=1 n=f#5 v=80
256800 Off ch=1 n=d6 v=80
256800 On ch=1 n=c#6 v=82
256800 On ch=1 n=e5 v=82
257040 Off ch=1 n=e5 v=80
257040 Off ch=1 n=c#6 v=80
257040 On ch=1 n=b5 v=74
257040 On ch=1 n=d5 v=74
257280 Off ch=1 n=d5 v=80
257280 Off ch=1 n=g#5 v=80
257280 Off ch=1 n=b5 v=80
257280 On ch=1 n=a5 v=65
257280 On ch=1 n=c#5 v=65
257760 Off ch=1 n=c#5 v=80
257760 Off ch=1 n=a5 v=80
257760 On ch=1 n=f#6 v=90
257760 On ch=1 n=d6 v=90
257760 On ch=1 n=a5 v=90
258240 Off ch=1 n=d6 v=80
258240 Off ch=1 n=f#6 v=80
258240 On ch=1 n=e6 v=82
258240 On ch=1 n=c#6 v=82
258720 Off ch=1 n=c#6 v=80
258720 Off ch=1 n=a5 v=80
258720 Off ch=1 n=e6 v=80
258720 On ch=1 n=g#5 v=74
258720 On ch=1 n=c#6 v=74
258960 Off ch=1 n=c#6 v=80
258960 On ch=1 n=d6 v=74
259200 Off ch=1 n=g#5 v=80
259200 Off ch=1 n=d6 v=80
259200 On ch=1 n=c6 v=65
259200 On ch=1 n=a5 v=65
259440 Off ch=1 n=c6 v=80
259440 On ch=1 n=c#6 v=65
259680 Off ch=1 n=a5 v=80
259680 Off ch=1 n=c#6 v=80
259680 On ch=1 n=a#5 v=65
259680 On ch=1 n=a5 v=65
259920 Off ch=1 n=a#5 v=80
259920 On ch=1 n=b5 v=65
260160 Off ch=1 n=a5 v=80
260160 Off ch=1 n=b5 v=80
260160 On ch=1 n=g#5 v=65
260160 On ch=1 n=c#6 v=65
260400 Off ch=1 n=c#6 v=80
260400 On ch=1 n=b5 v=65
260640 Off ch=1 n=g#5 v=80
260640 Off ch=1 n=b5 v=80
260640 On ch=1 n=g#5 v=65
260640 On ch=1 n=a#5 v=65
260880 Off ch=1 n=a#5 v=80
260880 On ch=1 n=b5 v=65
261120 Off ch=1 n=g#5 v=80
261120 Off ch=1 n=b5 v=80
261120 On ch=1 n=a5 v=65
261120 On ch=1 n=f#5 v=65
261600 Off ch=1 n=f#5 v=80
261600 Off ch=1 n=a5 v=80
261600 On ch=1 n=f#5 v=65
261600 On ch=1 n=d6 v=65
262080 Off ch=1 n=d6 v=80
262080 Off ch=1 n=f#5 v=80
262080 On ch=1 n=c#6 v=65
262080 On ch=1 n=f5 v=65
262560 Off ch=1 n=f5 v=80
262560 Off ch=1 n=c#6 v=80
262560 On ch=1 n=g#5 v=65
262560 On ch=1 n=b5 v=65
263040 Off ch=1 n=b5 v=80
263040 Off ch=1 n=g#5 v=80
263040 On ch=1 n=a5 v=65
263040 On ch=1 n=f#5 v=65
263520 Off ch=1 n=f#5 v=80
263520 Off ch=1 n=a5 v=80
263520 On ch=1 n=d#5 v=65
263520 On ch=1 n=g#5 v=65
263760 Off ch=1 n=g#5 v=80
263760 On ch=1 n=f#5 v=65
264000 Off ch=1 n=d#5 v=80
264000 Off ch=1 n=f#5 v=80
264000 On ch=1 n=e5 v=65
264000 On ch=1 n=b4 v=65
264960 Off ch=1 n=b4 v=80
264960 Off ch=1 n=e5 v=80
264960 On ch=1 n=a#4 v=65
264960 On ch=1 n=e5 v=65
264960 On ch=1 n=g5 v=65
265440 Off ch=1 n=g5 v=80
265440 Off ch=1 n=e5 v=80
265440 Off ch=1 n=a#4 v=80
265440 On ch=1 n=g#5 v=72
265440 On ch=1 n=f5 v=72
265440 On ch=1 n=b4 v=72
266400 Off ch=1 n=b4 v=80
266400 Off ch=1 n=f5 v=80
266400 Off ch=1 n=g#5 v=80
266400 On ch=1 n=f#5 v=78
266400 On ch=1 n=c5 v=78
266400 On ch=1 n=a5 v=78
266880 Off ch=1 n=c5 v=80
266880 Off ch=1 n=f#5 v=80
266880 On ch=1 n=e5 v=78
266880 On ch=1 n=c#5 v=78
267240 On ch=1 n=d5 v=78
267360 Off ch=1 n=d5 v=80
267360 Off ch=1 n=c#5 v=80
267360 Off ch=1 n=a5 v=80
267360 Off ch=1 n=e5 v=80
267360 On ch=1 n=c#6 v=82
267360 On ch=1 n=a5 v=82
267600 Off ch=1 n=a5 v=80
267600 Off ch=1 n=c#6 v=80
267600 On ch=1 n=b5 v=86
267600 On ch=1 n=g#5 v=86
267840 Off ch=1 n=g#5 v=80
267840 Off ch=1 n=b5 v=80
267840 On ch=1 n=a5 v=90
267840 On ch=1 n=f#5 v=90
268320 Off ch=1 n=f#5 v=80
268320 Off ch=1 n=a5 v=80
268320 On ch=1 n=a#5 v=90
268320 On ch=1 n=g5 v=90
268320 On ch=1 n=c#5 v=90
268800 Off ch=1 n=c#5 v=80
268800 Off ch=1 n=g5 v=80
268800 Off ch=1 n=a#5 v=80
268800 On ch=1 n=b5 v=90
268800 On ch=1 n=f#5 v=90
268800 On ch=1 n=b4 v=90
269280 Off ch=1 n=b4 v=80
269280 Off ch=1 n=f#5 v=80
269280 Off ch=1 n=b5 v=80
269280 On ch=1 n=c6 v=98
269280 On ch=1 n=a5 v=98
269280 On ch=1 n=c5 v=98
270240 Off ch=1 n=c5 v=80
270240 Off ch=1 n=a5 v=80
270240 Off ch=1 n=c6 v=80
270240 On ch=1 n=c#6 v=90
270240 On ch=1 n=c#5 v=90
270240 On ch=1 n=a5 v=90
270720 Off ch=1 n=c#5 v=80
270720 Off ch=1 n=c#6 v=80
270720 On ch=1 n=d#6 v=90
270720 On ch=1 n=d#5 v=90
271080 Off ch=1 n=a5 v=80
271080 On ch=1 n=a5 v=90
271080 On ch=1 n=b5 v=90
271200 Off ch=1 n=d#6 v=80
271200 Off ch=1 n=d#5 v=80
271200 On ch=1 n=a6 v=94
271440 Off ch=1 n=a6 v=80
271440 On ch=1 n=d#6 v=98
271680 Off ch=1 n=a5 v=80
271680 Off ch=1 n=b5 v=80
271680 Off ch=1 n=d#6 v=80
271680 On ch=1 n=e6 v=102
271680 On ch=1 n=g#5 v=102
272160 Off ch=1 n=e6 v=80
272160 On ch=1 n=d6 v=84
272640 Off ch=1 n=g#5 v=80
272640 Off ch=1 n=d6 v=80
272640 On ch=1 n=a5 v=65
272640 On ch=1 n=c#6 v=65
273120 Off ch=1 n=c#6 v=80
273120 Off ch=1 n=a5 v=80
273120 On ch=1 n=a5 v=61
273120 On ch=1 n=f#6 v=61
273600 Off ch=1 n=f#6 v=80
273600 On ch=1 n=e6 v=57
274080 Off ch=1 n=a5 v=80
274080 Off ch=1 n=e6 v=80
274080 On ch=1 n=g#5 v=53
274080 On ch=1 n=c#6 v=53
274320 Off ch=1 n=c#6 v=80
274320 On ch=1 n=d6 v=53
274560 Off ch=1 n=g#5 v=80
274560 Off ch=1 n=d6 v=80
274560 On ch=1 n=c6 v=53
274560 On ch=1 n=a5 v=53
274800 Off ch=1 n=c6 v=80
274800 On ch=1 n=c#6 v=53
275040 Off ch=1 n=a5 v=80
275040 Off ch=1 n=c#6 v=80
275040 On ch=1 n=a#5 v=53
275040 On ch=1 n=a5 v=53
275280 Off ch=1 n=a#5 v=80
275280 On ch=1 n=b5 v=53
275520 Off ch=1 n=a5 v=80
275520 Off ch=1 n=b5 v=80
275520 On ch=1 n=g#5 v=53
275520 On ch=1 n=c#6 v=53
275760 Off ch=1 n=c#6 v=80
275760 On ch=1 n=b5 v=53
276000 Off ch=1 n=g#5 v=80
276000 Off ch=1 n=b5 v=80
276000 On ch=1 n=g#5 v=53
276000 On ch=1 n=a#5 v=53
276240 Off ch=1 n=a#5 v=80
276240 On ch=1 n=b5 v=53
276480 Off ch=1 n=g#5 v=80
276480 Off ch=1 n=b5 v=80
276480 On ch=1 n=a5 v=53
276480 On ch=1 n=f#5 v=53
276960 Off ch=1 n=f#5 v=80
276960 Off ch=1 n=a5 v=80
276960 On ch=1 n=f#5 v=53
276960 On ch=1 n=d6 v=53
277440 Off ch=1 n=d6 v=80
277440 Off ch=1 n=f#5 v=80
277440 On ch=1 n=c#6 v=53
277440 On ch=1 n=f5 v=53
277920 Off ch=1 n=f5 v=80
277920 Off ch=1 n=c#6 v=80
277920 On ch=1 n=g#5 v=53
277920 On ch=1 n=b5 v=53
278400 Off ch=1 n=b5 v=80
278400 Off ch=1 n=g#5 v=80
278400 On ch=1 n=a5 v=53
278400 On ch=1 n=f#5 v=53
278880 Off ch=1 n=f#5 v=80
278880 Off ch=1 n=a5 v=80
278880 On ch=1 n=f#5 v=53
278880 On ch=1 n=d6 v=53
279360 Off ch=1 n=d6 v=80
279360 Off ch=1 n=f#5 v=80
279360 On ch=1 n=f5 v=57
279360 On ch=1 n=c#6 v=57
279840 Off ch=1 n=c#6 v=80
279840 Off ch=1 n=f5 v=80
279840 On ch=1 n=g#5 v=57
279840 On ch=1 n=b5 v=57
280320 Off ch=1 n=b5 v=80
280320 Off ch=1 n=g#5 v=80
280320 On ch=1 n=a5 v=62
280320 On ch=1 n=f#5 v=62
280800 Off ch=1 n=f#5 v=80
280800 Off ch=1 n=a5 v=80
280800 On ch=1 n=f#6 v=62
280800 On ch=1 n=a5 v=62
281280 Off ch=1 n=a5 v=80
281280 Off ch=1 n=f#6 v=80
281280 On ch=1 n=e6 v=66
281280 On ch=1 n=g#5 v=66
281760 Off ch=1 n=g#5 v=80
281760 Off ch=1 n=e6 v=80
281760 On ch=1 n=d6 v=66
281760 On ch=1 n=b5 v=66
282240 Off ch=1 n=b5 v=80
282240 Off ch=1 n=d6 v=80
282240 On ch=1 n=c#6 v=71
282240 On ch=1 n=a5 v=71
282720 Off ch=1 n=a5 v=80
282720 Off ch=1 n=c#6 v=80
282720 On ch=1 n=a6 v=71
282720 On ch=1 n=c#6 v=71
283200 Off ch=1 n=c#6 v=80
283200 Off ch=1 n=a6 v=80
283200 On ch=1 n=g#6 v=75
283200 On ch=1 n=c6 v=75
283680 Off ch=1 n=c6 v=80
283680 Off ch=1 n=g#6 v=80
283680 On ch=1 n=a6 v=75
283680 On ch=1 n=b5 v=75
283920 Off ch=1 n=a6 v=80
283920 On ch=1 n=g#6 v=75
284160 Off ch=1 n=b5 v=80
284160 Off ch=1 n=g#6 v=80
284160 On ch=1 n=c#6 v=80
284160 On ch=1 n=a#5 v=80
284640 Off ch=1 n=a#5 v=80
284640 Off ch=1 n=c#6 v=80
284640 On ch=1 n=a5 v=80
284640 On ch=1 n=f#6 v=80
285120 Off ch=1 n=f#6 v=80
285120 Off ch=1 n=a5 v=80
285120 On ch=1 n=g#5 v=84
285120 On ch=1 n=b5 v=84
285600 Off ch=1 n=b5 v=80
285600 Off ch=1 n=g#5 v=80
285600 On ch=1 n=g5 v=84
285600 On ch=1 n=f#6 v=84
285840 Off ch=1 n=f#6 v=80
285840 On ch=1 n=e6 v=84
286080 Off ch=1 n=g5 v=80
286080 Off ch=1 n=e6 v=80
286080 On ch=1 n=f#5 v=90
286080 On ch=1 n=a5 v=90
286560 Off ch=1 n=a5 v=80
286560 Off ch=1 n=f#5 v=80
286560 On ch=1 n=f5 v=90
286560 On ch=1 n=d6 v=90
287040 Off ch=1 n=d6 v=80
287040 Off ch=1 n=f5 v=80
287040 On ch=1 n=c#6 v=90
287040 On ch=1 n=e5 v=90
287520 Off ch=1 n=e5 v=80
287520 Off ch=1 n=c#6 v=80
287520 On ch=1 n=d5 v=90
287520 On ch=1 n=f#5 v=90
287520 On ch=1 n=b5 v=90
287760 Off ch=1 n=f#5 v=80
287760 On ch=1 n=f5 v=90
288000 Off ch=1 n=d5 v=80
288000 Off ch=1 n=b5 v=80
288000 Off ch=1 n=f5 v=80
288000 On ch=1 n=a5 v=90
288000 On ch=1 n=e5 v=90
288000 On ch=1 n=c#5 v=90
288480 Off ch=1 n=c#5 v=80
288480 Off ch=1 n=e5 v=80
288480 Off ch=1 n=a5 v=80
288480 On ch=1 n=a5 v=102
288480 On ch=1 n=d#5 v=102
288480 On ch=1 n=b4 v=102
288720 Off ch=1 n=b4 v=80
288720 Off ch=1 n=d#5 v=80
288720 Off ch=1 n=a5 v=80
288960 On ch=1 n=a5 v=114
288960 On ch=1 n=d#5 v=114
288960 On ch=1 n=b4 v=114
289200 Off ch=1 n=b4 v=80
289200 Off ch=1 n=d#5 v=80
289200 Off ch=1 n=a5 v=80
289440 On ch=1 n=a5 v=102
289440 On ch=1 n=d#5 v=102
289440 On ch=1 n=b4 v=102
289680 Off ch=1 n=b4 v=80
289680 Off ch=1 n=d#5 v=80
289680 Off ch=1 n=a5 v=80
289920 On ch=1 n=c#6 v=90
289920 On ch=1 n=a5 v=90
289920 On ch=1 n=c#5 v=90
290400 Off ch=1 n=c#5 v=80
290400 Off ch=1 n=a5 v=80
290400 Off ch=1 n=c#6 v=80
290400 On ch=1 n=b5 v=117
290400 On ch=1 n=g#5 v=117
290400 On ch=1 n=e5 v=117
290400 On ch=1 n=d5 v=117
290880 Off ch=1 n=d5 v=80
290880 Off ch=1 n=e5 v=80
290880 Off ch=1 n=g#5 v=80
290880 Off ch=1 n=b5 v=80
290880 On ch=1 n=a5 v=114
290880 On ch=1 n=c#5 v=114
291360 Off ch=1 n=c#5 v=80
291360 Off ch=1 n=a5 v=80
291360 On ch=1 n=a5 v=78
291360 On ch=1 n=c#5 v=78
291480 Off ch=1 n=c#5 v=80
291480 Off ch=1 n=a5 v=80
291720 On ch=1 n=b5 v=78
291720 On ch=1 n=e5 v=78
291840 Off ch=1 n=e5 v=80
291840 Off ch=1 n=b5 v=80
291840 On ch=1 n=c#6 v=86
291840 On ch=1 n=a5 v=86
291960 Off ch=1 n=a5 v=80
291960 Off ch=1 n=c#6 v=80
292080 On ch=1 n=d6 v=86
292080 On ch=1 n=b5 v=86
292200 Off ch=1 n=b5 v=80
292200 Off ch=1 n=d6 v=80
292320 On ch=1 n=e6 v=94
292320 On ch=1 n=c#6 v=94
292440 Off ch=1 n=c#6 v=80
292440 Off ch=1 n=e6 v=80
292560 On ch=1 n=f#6 v=94
292560 On ch=1 n=d6 v=94
292680 Off ch=1 n=d6 v=80
292680 Off ch=1 n=f#6 v=80
292800 On ch=1 n=e6 v=102
292800 On ch=1 n=d6 v=102
293040 Off ch=1 n=d6 v=80
293040 Off ch=1 n=e6 v=80
293280 On ch=1 n=d7 v=117
293280 On ch=1 n=f#6 v=117
294240 Off ch=1 n=f#6 v=80
294240 Off ch=1 n=d7 v=80
294240 On ch=1 n=c#7 v=127
294240 On ch=1 n=e6 v=127
294480 Off ch=1 n=e6 v=80
294480 Off ch=1 n=c#7 v=80
294480 On ch=1 n=b6 v=127
294480 On ch=1 n=d6 v=127
294720 Off ch=1 n=d6 v=80
294720 Off ch=1 n=b6 v=80
295200 On ch=1 n=a6 v=117
295200 On ch=1 n=c#6 v=117
296160 Off ch=1 n=c#6 v=80
296160 Off ch=1 n=a6 v=80
296160 On ch=1 n=g#6 v=102
296160 On ch=1 n=b5 v=102
296400 Off ch=1 n=b5 v=80
296400 Off ch=1 n=g#6 v=80
296400 On ch=1 n=f#6 v=102
296400 On ch=1 n=a5 v=102
296640 Off ch=1 n=a5 v=80
296640 Off ch=1 n=f#6 v=80
297120 On ch=1 n=c#6 v=117
297120 On ch=1 n=a5 v=117
297120 On ch=1 n=e6 v=117
298080 Off ch=1 n=e6 v=80
298080 Off ch=1 n=a5 v=80
298080 Off ch=1 n=c#6 v=80
298080 On ch=1 n=e6 v=117
298080 On ch=1 n=b5 v=117
298080 On ch=1 n=g#5 v=117
299040 Off ch=1 n=g#5 v=80
299040 Off ch=1 n=b5 v=80
299040 Off ch=1 n=e6 v=80
299040 On ch=1 n=c#5 v=78
299040 On ch=1 n=a5 v=78
299160 Off ch=1 n=a5 v=80
299160 Off ch=1 n=c#5 v=80
299400 On ch=1 n=b5 v=78
299400 On ch=1 n=e5 v=78
299520 Off ch=1 n=e5 v=80
299520 Off ch=1 n=b5 v=80
299520 On ch=1 n=c#6 v=86
299520 On ch=1 n=a5 v=86
299640 Off ch=1 n=a5 v=80
299640 Off ch=1 n=c#6 v=80
299760 On ch=1 n=d6 v=86
299760 On ch=1 n=b5 v=86
299880 Off ch=1 n=b5 v=80
299880 Off ch=1 n=d6 v=80
300000 On ch=1 n=e6 v=94
300000 On ch=1 n=c#6 v=94
300120 Off ch=1 n=c#6 v=80
300120 Off ch=1 n=e6 v=80
300240 On ch=1 n=f#6 v=94
300240 On ch=1 n=d6 v=94
300360 Off ch=1 n=d6 v=80
300360 Off ch=1 n=f#6 v=80
300480 On ch=1 n=e6 v=102
300480 On ch=1 n=d6 v=102
300720 Off ch=1 n=d6 v=80
300720 Off ch=1 n=e6 v=80
300960 On ch=1 n=d7 v=117
300960 On ch=1 n=f#6 v=117
301920 Off ch=1 n=f#6 v=80
301920 Off ch=1 n=d7 v=80
301920 On ch=1 n=c#7 v=127
301920 On ch=1 n=e6 v=127
302160 Off ch=1 n=e6 v=80
302160 Off ch=1 n=c#7 v=80
302160 On ch=1 n=b6 v=127
302160 On ch=1 n=d6 v=127
302400 Off ch=1 n=d6 v=80
302400 Off ch=1 n=b6 v=80
302880 On ch=1 n=a6 v=117
302880 On ch=1 n=c#6 v=117
303840 Off ch=1 n=c#6 v=80
303840 Off ch=1 n=a6 v=80
303840 On ch=1 n=g#6 v=102
303840 On ch=1 n=b5 v=102
304080 Off ch=1 n=b5 v=80
304080 Off ch=1 n=g#6 v=80
304080 On ch=1 n=f#6 v=102
304080 On ch=1 n=a5 v=102
304320 Off ch=1 n=a5 v=80
304320 Off ch=1 n=f#6 v=80
304800 On ch=1 n=c#6 v=117
304800 On ch=1 n=a5 v=117
304800 On ch=1 n=e6 v=117
305760 Off ch=1 n=e6 v=80
305760 Off ch=1 n=a5 v=80
305760 Off ch=1 n=c#6 v=80
305760 On ch=1 n=e6 v=117
305760 On ch=1 n=b5 v=117
305760 On ch=1 n=g#5 v=117
306720 Off ch=1 n=g#5 v=80
306720 Off ch=1 n=b5 v=80
306720 Off ch=1 n=e6 v=80
306720 On ch=1 n=a5 v=78
306720 On ch=1 n=c#5 v=78
307080 Off ch=1 n=c#5 v=80
307080 Off ch=1 n=a5 v=80
307080 On ch=1 n=b5 v=78
307080 On ch=1 n=e5 v=78
307200 Off ch=1 n=e5 v=80
307200 Off ch=1 n=b5 v=80
307200 On ch=1 n=c#6 v=86
307200 On ch=1 n=a5 v=86
307680 Off ch=1 n=a5 v=80
307680 Off ch=1 n=c#6 v=80
307680 On ch=1 n=a5 v=94
307680 On ch=1 n=c#6 v=94
308040 Off ch=1 n=c#6 v=80
308040 On ch=1 n=d#6 v=94
308160 Off ch=1 n=d#6 v=80
308160 On ch=1 n=e6 v=102
308640 Off ch=1 n=a5 v=80
308640 Off ch=1 n=e6 v=80
308640 On ch=1 n=e6 v=117
308640 On ch=1 n=c#6 v=117
308640 On ch=1 n=a5 v=117
309600 Off ch=1 n=a5 v=80
309600 Off ch=1 n=c#6 v=80
309600 Off ch=1 n=e6 v=80
309600 On ch=1 n=d6 v=117
309600 On ch=1 n=f#6 v=117
309840 Off ch=1 n=f#6 v=80
309840 On ch=1 n=g#6 v=102
310080 Off ch=1 n=d6 v=80
310080 Off ch=1 n=g#6 v=80
310080 On ch=1 n=a6 v=102
310080 On ch=1 n=c#6 v=102
310320 Off ch=1 n=c#6 v=80
310320 Off ch=1 n=a6 v=80
310440 On ch=1 n=a5 v=102
310440 On ch=1 n=c#5 v=102
310560 Off ch=1 n=c#5 v=80
310560 Off ch=1 n=a5 v=80
310560 On ch=1 n=c#5 v=78
310560 On ch=1 n=a5 v=78
310920 Off ch=1 n=a5 v=80
310920 Off ch=1 n=c#5 v=80
310920 On ch=1 n=b5 v=78
310920 On ch=1 n=e5 v=78
311040 Off ch=1 n=e5 v=80
311040 Off ch=1 n=b5 v=80
311040 On ch=1 n=c#6 v=86
311040 On ch=1 n=a5 v=86
311520 Off ch=1 n=a5 v=80
311520 Off ch=1 n=c#6 v=80
311520 On ch=1 n=a5 v=94
311520 On ch=1 n=c#6 v=94
311880 Off ch=1 n=c#6 v=80
311880 On ch=1 n=d#6 v=94
312000 Off ch=1 n=d#6 v=80
312000 On ch=1 n=e6 v=102
312480 Off ch=1 n=a5 v=80
312480 Off ch=1 n=e6 v=80
312480 On ch=1 n=e6 v=117
312480 On ch=1 n=c#6 v=117
312480 On ch=1 n=a5 v=117
313440 Off ch=1 n=a5 v=80
313440 Off ch=1 n=c#6 v=80
313440 Off ch=1 n=e6 v=80
313440 On ch=1 n=d6 v=117
313440 On ch=1 n=f#6 v=117
313680 Off ch=1 n=f#6 v=80
313680 On ch=1 n=g#6 v=102
313920 Off ch=1 n=d6 v=80
313920 Off ch=1 n=g#6 v=80
313920 On ch=1 n=c#6 v=102
313920 On ch=1 n=a6 v=102
314400 Off ch=1 n=a6 v=80
314400 Off ch=1 n=c#6 v=80
314400 On ch=1 n=a6 v=120
314400 On ch=1 n=f#6 v=120
314400 On ch=1 n=d6 v=120
314880 Off ch=1 n=d6 v=80
314880 Off ch=1 n=f#6 v=80
314880 On ch=1 n=e6 v=102
314880 On ch=1 n=c#6 v=102
315360 Off ch=1 n=c#6 v=80
315360 Off ch=1 n=a6 v=80
315360 Off ch=1 n=e6 v=80
315360 On ch=1 n=d6 v=97
315360 On ch=1 n=f#6 v=97
315600 Off ch=1 n=f#6 v=80
315600 On ch=1 n=g#6 v=97
315840 Off ch=1 n=d6 v=80
315840 Off ch=1 n=g#6 v=80
315840 On ch=1 n=a6 v=92
315840 On ch=1 n=c#6 v=92
316320 Off ch=1 n=c#6 v=80
316320 Off ch=1 n=a6 v=80
316320 On ch=1 n=e6 v=87
316320 On ch=1 n=b5 v=87
316560 Off ch=1 n=b5 v=80
316560 On ch=1 n=c#6 v=87
316800 Off ch=1 n=e6 v=80
316800 Off ch=1 n=c#6 v=80
316800 On ch=1 n=d6 v=82
316800 On ch=1 n=a5 v=82
317280 Off ch=1 n=a5 v=80
317280 Off ch=1 n=d6 v=80
317280 On ch=1 n=d6 v=77
317280 On ch=1 n=g5 v=78
317520 Off ch=1 n=g5 v=80
317520 On ch=1 n=g#5 v=78
317760 Off ch=1 n=d6 v=80
317760 Off ch=1 n=g#5 v=80
317760 On ch=1 n=c#6 v=78
317760 On ch=1 n=a5 v=78
318240 Off ch=1 n=a5 v=80
318240 Off ch=1 n=c#6 v=80
318240 On ch=1 n=a5 v=98
318240 On ch=1 n=f#5 v=98
318720 Off ch=1 n=f#5 v=80
318720 On ch=1 n=e5 v=78
319200 Off ch=1 n=a5 v=80
319200 Off ch=1 n=e5 v=80
319200 On ch=1 n=d5 v=78
319200 On ch=1 n=f#5 v=78
319440 Off ch=1 n=f#5 v=80
319440 On ch=1 n=g#5 v=78
319680 Off ch=1 n=d5 v=80
319680 Off ch=1 n=g#5 v=80
319680 On ch=1 n=a5 v=74
319680 On ch=1 n=c#5 v=74
320160 Off ch=1 n=c#5 v=80
320160 Off ch=1 n=a5 v=80
320160 On ch=1 n=e5 v=74
320160 On ch=1 n=b4 v=74
320400 Off ch=1 n=b4 v=80
320400 On ch=1 n=c#5 v=74
320640 Off ch=1 n=e5 v=80
320640 Off ch=1 n=c#5 v=80
320640 On ch=1 n=d5 v=70
320640 On ch=1 n=a4 v=70
321120 Off ch=1 n=a4 v=80
321120 Off ch=1 n=d5 v=80
321120 On ch=1 n=d5 v=70
321120 On ch=1 n=g4 v=70
321360 Off ch=1 n=g4 v=80
321360 On ch=1 n=g#4 v=70
321600 Off ch=1 n=d5 v=80
321600 Off ch=1 n=g#4 v=80
321600 On ch=1 n=c#5 v=65
321600 On ch=1 n=a4 v=65
322080 Off ch=1 n=a4 v=80
322080 Off ch=1 n=c#5 v=80
322560 On ch=1 n=e6 v=85
322560 On ch=1 n=a5 v=85
323520 Off ch=1 n=a5 v=80
323520 Off ch=1 n=e6 v=80
323520 On ch=1 n=a5 v=85
323520 On ch=1 n=d5 v=85
324480 Off ch=1 n=d5 v=80
324480 Off ch=1 n=a5 v=80
324480 On ch=1 n=d5 v=85
324480 On ch=1 n=g4 v=71
324960 Off ch=1 n=g4 v=80
324960 On ch=1 n=g#4 v=74
325440 Off ch=1 n=d5 v=80
325440 Off ch=1 n=g#4 v=80
325440 On ch=1 n=d5 v=78
325440 On ch=1 n=e4 v=78
325440 On ch=1 n=b4 v=78
326400 Off ch=1 n=e4 v=80
326400 On ch=1 n=f#4 v=72
326880 Off ch=1 n=f#4 v=80
326880 On ch=1 n=g#4 v=66
327360 Off ch=1 n=d5 v=80
327360 Off ch=1 n=b4 v=80
327360 Off ch=1 n=g#4 v=80
327360 On ch=1 n=b4 v=60
327360 On ch=1 n=c#5 v=60
327840 Off ch=1 n=c#5 v=80
327840 Off ch=1 n=b4 v=80
327840 On ch=1 n=a4 v=53
328320 Off ch=1 n=a4 v=80
328320 Meta TrkEnd
TrkEnd
MTrk
0 Meta TrkName "Piano L Hand"
0 Meta 0x21 00
0 Meta 0x20 00
0 Par ch=1 c=10 v=64
0 PrCh ch=1 p=0
0 On ch=1 n=a4 v=102
0 On ch=1 n=c#4 v=102
480 Off ch=1 n=c#4 v=80
480 Off ch=1 n=a4 v=80
480 On ch=1 n=a4 v=65
480 On ch=1 n=d4 v=65
600 Off ch=1 n=d4 v=80
600 Off ch=1 n=a4 v=80
720 On ch=1 n=a4 v=59
720 On ch=1 n=e4 v=59
840 Off ch=1 n=e4 v=80
840 Off ch=1 n=a4 v=80
960 On ch=1 n=a4 v=53
960 On ch=1 n=f#4 v=53
1080 Off ch=1 n=f#4 v=80
1080 Off ch=1 n=a4 v=80
1200 On ch=1 n=a4 v=53
1200 On ch=1 n=b3 v=53
1320 Off ch=1 n=b3 v=80
1320 Off ch=1 n=a4 v=80
1440 On ch=1 n=e4 v=53
1440 On ch=1 n=g#4 v=53
1560 Off ch=1 n=g#4 v=80
1560 Off ch=1 n=e4 v=80
1680 On ch=1 n=g#4 v=53
1680 On ch=1 n=d4 v=53
1800 Off ch=1 n=d4 v=80
1800 Off ch=1 n=g#4 v=80
1920 On ch=1 n=a4 v=102
1920 On ch=1 n=c#4 v=102
2400 Off ch=1 n=c#4 v=80
2400 Off ch=1 n=a4 v=80
2400 On ch=1 n=a4 v=65
2400 On ch=1 n=d4 v=65
2520 Off ch=1 n=d4 v=80
2520 Off ch=1 n=a4 v=80
2640 On ch=1 n=a4 v=59
2640 On ch=1 n=e4 v=59
2760 Off ch=1 n=e4 v=80
2760 Off ch=1 n=a4 v=80
2880 On ch=1 n=a4 v=53
2880 On ch=1 n=f#4 v=53
3000 Off ch=1 n=f#4 v=80
3000 Off ch=1 n=a4 v=80
3120 On ch=1 n=g#4 v=53
3120 On ch=1 n=e4 v=53
3240 Off ch=1 n=e4 v=80
3240 Off ch=1 n=g#4 v=80
3360 On ch=1 n=a4 v=53
3360 On ch=1 n=a3 v=53
3720 Off ch=1 n=a3 v=80
3720 Off ch=1 n=a4 v=80
3840 On ch=1 n=a4 v=102
3840 On ch=1 n=c#4 v=102
4320 Off ch=1 n=c#4 v=80
4320 Off ch=1 n=a4 v=80
4320 On ch=1 n=a4 v=65
4320 On ch=1 n=d4 v=65
4440 Off ch=1 n=d4 v=80
4440 Off ch=1 n=a4 v=80
4560 On ch=1 n=a4 v=59
4560 On ch=1 n=e4 v=59
4680 Off ch=1 n=e4 v=80
4680 Off ch=1 n=a4 v=80
4800 On ch=1 n=a4 v=53
4800 On ch=1 n=f#4 v=53
4920 Off ch=1 n=f#4 v=80
4920 Off ch=1 n=a4 v=80
5040 On ch=1 n=a4 v=53
5040 On ch=1 n=b3 v=53
5160 Off ch=1 n=b3 v=80
5160 Off ch=1 n=a4 v=80
5280 On ch=1 n=e4 v=53
5280 On ch=1 n=g#4 v=53
5400 Off ch=1 n=g#4 v=80
5400 Off ch=1 n=e4 v=80
5520 On ch=1 n=g#4 v=53
5520 On ch=1 n=d4 v=53
5640 Off ch=1 n=d4 v=80
5640 Off ch=1 n=g#4 v=80
5760 On ch=1 n=a4 v=102
5760 On ch=1 n=c#4 v=102
6240 Off ch=1 n=c#4 v=80
6240 Off ch=1 n=a4 v=80
6240 On ch=1 n=a4 v=65
6240 On ch=1 n=d4 v=65
6360 Off ch=1 n=d4 v=80
6360 Off ch=1 n=a4 v=80
6480 On ch=1 n=a4 v=59
6480 On ch=1 n=e4 v=59
6600 Off ch=1 n=e4 v=80
6600 Off ch=1 n=a4 v=80
6720 On ch=1 n=a4 v=53
6720 On ch=1 n=f#4 v=53
6840 Off ch=1 n=f#4 v=80
6840 Off ch=1 n=a4 v=80
6960 On ch=1 n=g#4 v=53
6960 On ch=1 n=e4 v=53
7080 Off ch=1 n=e4 v=80
7080 Off ch=1 n=g#4 v=80
7200 On ch=1 n=a4 v=53
7200 On ch=1 n=a3 v=53
7560 Off ch=1 n=a3 v=80
7560 Off ch=1 n=a4 v=80
7680 On ch=1 n=d#4 v=102
7680 On ch=1 n=f#4 v=102
7680 On ch=1 n=b4 v=102
7680 On ch=1 n=f#5 v=102
7920 Off ch=1 n=f#5 v=80
7920 Off ch=1 n=b4 v=80
7920 Off ch=1 n=f#4 v=80
7920 Off ch=1 n=d#4 v=80
7920 On ch=1 n=d#4 v=102
7920 On ch=1 n=f#4 v=102
7920 On ch=1 n=b4 v=102
7920 On ch=1 n=f#5 v=102
8160 Off ch=1 n=f#5 v=80
8160 Off ch=1 n=b4 v=80
8160 Off ch=1 n=f#4 v=80
8160 Off ch=1 n=d#4 v=80
8400 On ch=1 n=d#4 v=102
8400 On ch=1 n=f#4 v=102
8400 On ch=1 n=b4 v=102
8400 On ch=1 n=f#5 v=102
8640 Off ch=1 n=f#5 v=80
8640 Off ch=1 n=b4 v=80
8640 Off ch=1 n=f#4 v=80
8640 Off ch=1 n=d#4 v=80
8880 On ch=1 n=g#4 v=102
8880 On ch=1 n=e4 v=102
8880 On ch=1 n=b4 v=102
8880 On ch=1 n=g#5 v=102
9120 Off ch=1 n=g#5 v=80
9120 Off ch=1 n=b4 v=80
9120 Off ch=1 n=e4 v=80
9120 Off ch=1 n=g#4 v=80
9120 On ch=1 n=g#5 v=102
9120 On ch=1 n=b4 v=102
9120 On ch=1 n=g#4 v=102
9120 On ch=1 n=e4 v=102
9600 Off ch=1 n=e4 v=80
9600 Off ch=1 n=g#4 v=80
9600 Off ch=1 n=b4 v=80
9600 Off ch=1 n=g#5 v=80
9600 On ch=1 n=a4 v=102
9600 On ch=1 n=f#4 v=102
9600 On ch=1 n=d5 v=102
9600 On ch=1 n=a5 v=102
9840 Off ch=1 n=a5 v=80
9840 Off ch=1 n=d5 v=80
9840 Off ch=1 n=f#4 v=80
9840 Off ch=1 n=a4 v=80
9840 On ch=1 n=a4 v=102
9840 On ch=1 n=f#4 v=102
9840 On ch=1 n=d5 v=102
9840 On ch=1 n=a5 v=102
10080 Off ch=1 n=a5 v=80
10080 Off ch=1 n=d5 v=80
10080 Off ch=1 n=f#4 v=80
10080 Off ch=1 n=a4 v=80
10320 On ch=1 n=a4 v=102
10320 On ch=1 n=f#4 v=102
10320 On ch=1 n=d5 v=102
10320 On ch=1 n=a5 v=102
10560 Off ch=1 n=a5 v=80
10560 Off ch=1 n=d5 v=80
10560 Off ch=1 n=f#4 v=80
10560 Off ch=1 n=a4 v=80
10740 On ch=1 n=g#4 v=127
10755 On ch=1 n=b4 v=127
10770 On ch=1 n=e5 v=127
10800 On ch=1 n=b5 v=127
11520 Off ch=1 n=b5 v=80
11520 Off ch=1 n=e5 v=80
11520 Off ch=1 n=b4 v=80
11520 Off ch=1 n=g#4 v=80
11520 On ch=1 n=a4 v=102
11520 On ch=1 n=c#4 v=102
12000 Off ch=1 n=c#4 v=80
12000 Off ch=1 n=a4 v=80
12000 On ch=1 n=a4 v=65
12000 On ch=1 n=d4 v=65
12120 Off ch=1 n=d4 v=80
12120 Off ch=1 n=a4 v=80
12240 On ch=1 n=a4 v=59
12240 On ch=1 n=e4 v=59
12360 Off ch=1 n=e4 v=80
12360 Off ch=1 n=a4 v=80
12480 On ch=1 n=a4 v=53
12480 On ch=1 n=f#4 v=53
12600 Off ch=1 n=f#4 v=80
12600 Off ch=1 n=a4 v=80
12720 On ch=1 n=a4 v=53
12720 On ch=1 n=b3 v=53
12840 Off ch=1 n=b3 v=80
12840 Off ch=1 n=a4 v=80
12960 On ch=1 n=e4 v=53
12960 On ch=1 n=g#4 v=53
13080 Off ch=1 n=g#4 v=80
13080 Off ch=1 n=e4 v=80
13200 On ch=1 n=g#4 v=53
13200 On ch=1 n=d4 v=53
13320 Off ch=1 n=d4 v=80
13320 Off ch=1 n=g#4 v=80
13440 On ch=1 n=a4 v=102
13440 On ch=1 n=c#4 v=102
13920 Off ch=1 n=c#4 v=80
13920 Off ch=1 n=a4 v=80
13920 On ch=1 n=a4 v=65
13920 On ch=1 n=d4 v=65
14040 Off ch=1 n=d4 v=80
14040 Off ch=1 n=a4 v=80
14160 On ch=1 n=a4 v=59
14160 On ch=1 n=e4 v=59
14280 Off ch=1 n=e4 v=80
14280 Off ch=1 n=a4 v=80
14400 On ch=1 n=a4 v=53
14400 On ch=1 n=f#4 v=53
14520 Off ch=1 n=f#4 v=80
14520 Off ch=1 n=a4 v=80
14640 On ch=1 n=g#4 v=53
14640 On ch=1 n=e4 v=53
14760 Off ch=1 n=e4 v=80
14760 Off ch=1 n=g#4 v=80
14880 On ch=1 n=a4 v=53
14880 On ch=1 n=a3 v=53
15240 Off ch=1 n=a3 v=80
15240 Off ch=1 n=a4 v=80
15300 On ch=1 n=f3 v=65
15420 Off ch=1 n=f3 v=80
15420 On ch=1 n=f4 v=65
15840 Off ch=1 n=f4 v=80
15840 On ch=1 n=a#4 v=71
15840 On ch=1 n=d5 v=71
16320 Off ch=1 n=d5 v=80
16320 Off ch=1 n=a#4 v=80
16320 On ch=1 n=c5 v=77
16320 On ch=1 n=a4 v=77
16800 Off ch=1 n=a4 v=80
16800 Off ch=1 n=c5 v=80
16800 On ch=1 n=c5 v=83
16800 On ch=1 n=g4 v=83
17280 Off ch=1 n=g4 v=80
17280 On ch=1 n=f4 v=90
17760 Off ch=1 n=c5 v=80
17760 Off ch=1 n=f4 v=80
17760 On ch=1 n=b4 v=90
17760 On ch=1 n=d4 v=90
18240 Off ch=1 n=d4 v=80
18240 Off ch=1 n=b4 v=80
18240 On ch=1 n=c5 v=90
18240 On ch=1 n=c4 v=90
18720 Off ch=1 n=c4 v=80
18720 Off ch=1 n=c5 v=80
18720 On ch=1 n=a#4 v=90
18720 On ch=1 n=c#4 v=90
19200 Off ch=1 n=c#4 v=80
19200 Off ch=1 n=a#4 v=80
19200 On ch=1 n=a4 v=90
19200 On ch=1 n=d4 v=90
19680 Off ch=1 n=d4 v=80
19680 Off ch=1 n=a4 v=80
19680 On ch=1 n=g3 v=90
19680 On ch=1 n=g4 v=90
19920 Off ch=1 n=g4 v=80
19920 On ch=1 n=f4 v=90
20160 Off ch=1 n=g3 v=80
20160 Off ch=1 n=f4 v=80
20160 On ch=1 n=a3 v=90
20160 On ch=1 n=e4 v=90
20640 Off ch=1 n=e4 v=80
20640 Off ch=1 n=a3 v=80
20640 On ch=1 n=a4 v=90
20640 On ch=1 n=c#4 v=90
21120 Off ch=1 n=c#4 v=80
21120 On ch=1 n=d4 v=90
21600 Off ch=1 n=a4 v=80
21600 Off ch=1 n=d4 v=80
21600 On ch=1 n=g3 v=90
21600 On ch=1 n=g4 v=90
21840 Off ch=1 n=g4 v=80
21840 On ch=1 n=f4 v=90
22080 Off ch=1 n=g3 v=80
22080 Off ch=1 n=f4 v=80
22080 On ch=1 n=e4 v=82
22080 On ch=1 n=c4 v=82
22560 Off ch=1 n=c4 v=80
22560 Off ch=1 n=e4 v=80
22560 On ch=1 n=a#3 v=74
22560 On ch=1 n=a#2 v=74
23040 Off ch=1 n=a#2 v=80
23040 Off ch=1 n=a#3 v=80
23040 On ch=1 n=a3 v=65
23040 On ch=1 n=a2 v=65
24000 Off ch=1 n=a2 v=80
24000 Off ch=1 n=a3 v=80
24000 On ch=1 n=a#3 v=78
24000 On ch=1 n=a#2 v=78
24480 Off ch=1 n=a#2 v=80
24480 Off ch=1 n=a#3 v=80
24480 On ch=1 n=b3 v=81
24480 On ch=1 n=b2 v=81
24960 Off ch=1 n=b2 v=80
24960 Off ch=1 n=b3 v=80
24960 On ch=1 n=c3 v=84
24960 On ch=1 n=c4 v=84
25440 Off ch=1 n=c4 v=80
25440 Off ch=1 n=c3 v=80
25440 On ch=1 n=c#3 v=87
25440 On ch=1 n=c#4 v=87
25920 Off ch=1 n=c#4 v=80
25920 Off ch=1 n=c#3 v=80
25920 On ch=1 n=d3 v=90
25920 On ch=1 n=d4 v=90
26400 Off ch=1 n=d4 v=80
26400 Off ch=1 n=d3 v=80
26400 On ch=1 n=c3 v=90
26400 On ch=1 n=c4 v=90
26880 Off ch=1 n=c4 v=80
26880 Off ch=1 n=c3 v=80
26880 On ch=1 n=a#3 v=90
26880 On ch=1 n=a#2 v=90
27840 Off ch=1 n=a#2 v=80
27840 Off ch=1 n=a#3 v=80
27840 On ch=1 n=b3 v=90
27840 On ch=1 n=b2 v=90
28320 Off ch=1 n=b2 v=80
28320 Off ch=1 n=b3 v=80
28320 On ch=1 n=c3 v=90
28320 On ch=1 n=c4 v=90
28800 Off ch=1 n=c4 v=80
28800 Off ch=1 n=c3 v=80
28800 On ch=1 n=d3 v=90
28800 On ch=1 n=d4 v=90
29280 Off ch=1 n=d4 v=80
29280 On ch=1 n=g3 v=90
29280 On ch=1 n=g2 v=90
29760 Off ch=1 n=g2 v=80
29760 Off ch=1 n=d3 v=80
29760 On ch=1 n=c3 v=102
30240 Off ch=1 n=g3 v=80
30240 Off ch=1 n=c3 v=80
30240 On ch=1 n=f3 v=84
30240 On ch=1 n=f2 v=84
31200 On ch=1 n=a#4 v=61
31200 On ch=1 n=d5 v=61
31680 Off ch=1 n=d5 v=80
31680 Off ch=1 n=a#4 v=80
31680 On ch=1 n=a4 v=57
31680 On ch=1 n=c5 v=57
32160 Off ch=1 n=c5 v=80
32160 Off ch=1 n=f2 v=80
32160 Off ch=1 n=f3 v=80
32160 Off ch=1 n=a4 v=80
32160 On ch=1 n=c5 v=53
32160 On ch=1 n=g4 v=53
32640 Off ch=1 n=g4 v=80
32640 On ch=1 n=f4 v=53
33120 Off ch=1 n=c5 v=80
33120 Off ch=1 n=f4 v=80
33120 On ch=1 n=b4 v=53
33120 On ch=1 n=d4 v=53
33600 Off ch=1 n=d4 v=80
33600 Off ch=1 n=b4 v=80
33600 On ch=1 n=c5 v=53
33600 On ch=1 n=c4 v=53
34080 Off ch=1 n=c4 v=80
34080 Off ch=1 n=c5 v=80
34080 On ch=1 n=a#4 v=53
34080 On ch=1 n=c#4 v=53
34560 Off ch=1 n=c#4 v=80
34560 Off ch=1 n=a#4 v=80
34560 On ch=1 n=a4 v=53
34560 On ch=1 n=d4 v=53
35040 Off ch=1 n=d4 v=80
35040 Off ch=1 n=a4 v=80
35040 On ch=1 n=g3 v=53
35040 On ch=1 n=g4 v=53
35280 Off ch=1 n=g4 v=80
35280 On ch=1 n=f4 v=53
35520 Off ch=1 n=g3 v=80
35520 Off ch=1 n=f4 v=80
35520 On ch=1 n=a3 v=53
35520 On ch=1 n=e4 v=53
36000 Off ch=1 n=e4 v=80
36000 Off ch=1 n=a3 v=80
36000 On ch=1 n=a4 v=53
36000 On ch=1 n=c#4 v=53
36480 Off ch=1 n=c#4 v=80
36480 On ch=1 n=d4 v=53
36960 Off ch=1 n=a4 v=80
36960 Off ch=1 n=d4 v=80
36960 On ch=1 n=a#4 v=53
36960 On ch=1 n=c4 v=53
37440 On ch=1 n=f3 v=53
37920 Off ch=1 n=f3 v=80
37920 Off ch=1 n=c4 v=80
37920 Off ch=1 n=a#4 v=80
37920 On ch=1 n=a4 v=53
38400 Off ch=1 n=a4 v=80
38400 On ch=1 n=e4 v=90
38400 On ch=1 n=c5 v=90
38880 Off ch=1 n=c5 v=80
38880 Off ch=1 n=e4 v=80
38880 On ch=1 n=e4 v=90
38880 On ch=1 n=c5 v=90
39120 Off ch=1 n=c5 v=80
39120 Off ch=1 n=e4 v=80
39120 On ch=1 n=e4 v=90
39120 On ch=1 n=c5 v=90
39360 Off ch=1 n=c5 v=80
39360 Off ch=1 n=e4 v=80
39360 On ch=1 n=f4 v=94
39360 On ch=1 n=c5 v=94
39360 On ch=1 n=c5 v=94
39360 On ch=1 n=d5 v=94
39360 On ch=1 n=d5 v=94
39840 Off ch=1 n=d5 v=80
39840 Off ch=1 n=d5 v=80
39840 Off ch=1 n=c5 v=80
39840 Off ch=1 n=c5 v=80
39840 Off ch=1 n=f4 v=80
39840 On ch=1 n=f4 v=94
39840 On ch=1 n=c5 v=94
39840 On ch=1 n=c5 v=94
39840 On ch=1 n=d5 v=94
39840 On ch=1 n=d5 v=94
40320 Off ch=1 n=d5 v=80
40320 Off ch=1 n=d5 v=80
40320 Off ch=1 n=c5 v=80
40320 Off ch=1 n=c5 v=80
40320 Off ch=1 n=f4 v=80
40320 On ch=1 n=g#4 v=98
40320 On ch=1 n=f5 v=98
40320 On ch=1 n=d5 v=98
40800 Off ch=1 n=d5 v=80
40800 Off ch=1 n=f5 v=80
40800 Off ch=1 n=g#4 v=80
40800 On ch=1 n=g#4 v=98
40800 On ch=1 n=f5 v=98
40800 On ch=1 n=d5 v=98
41040 Off ch=1 n=d5 v=80
41040 Off ch=1 n=f5 v=80
41040 Off ch=1 n=g#4 v=80
41040 On ch=1 n=g#4 v=98
41040 On ch=1 n=f5 v=98
41040 On ch=1 n=d5 v=98
41280 Off ch=1 n=d5 v=80
41280 Off ch=1 n=f5 v=80
41280 Off ch=1 n=g#4 v=80
41280 On ch=1 n=f5 v=112
41280 On ch=1 n=a4 v=112
41280 On ch=1 n=c5 v=112
41640 Off ch=1 n=f5 v=80
41640 On ch=1 n=e5 v=102
41760 Off ch=1 n=e5 v=80
41760 On ch=1 n=e5 v=102
42240 Off ch=1 n=a4 v=80
42240 Off ch=1 n=c5 v=80
42240 Off ch=1 n=e5 v=80
42240 On ch=1 n=a4 v=90
42240 On ch=1 n=f5 v=90
42720 Off ch=1 n=f5 v=80
42720 Off ch=1 n=a4 v=80
42720 On ch=1 n=a4 v=90
42720 On ch=1 n=f5 v=90
42960 Off ch=1 n=f5 v=80
42960 Off ch=1 n=a4 v=80
42960 On ch=1 n=a4 v=90
42960 On ch=1 n=f5 v=90
43200 Off ch=1 n=f5 v=80
43200 Off ch=1 n=a4 v=80
43200 On ch=1 n=a#4 v=94
43200 On ch=1 n=f5 v=94
43200 On ch=1 n=f5 v=94
43200 On ch=1 n=g5 v=94
43200 On ch=1 n=g5 v=94
43680 Off ch=1 n=g5 v=80
43680 Off ch=1 n=g5 v=80
43680 Off ch=1 n=f5 v=80
43680 Off ch=1 n=f5 v=80
43680 Off ch=1 n=a#4 v=80
43680 On ch=1 n=a#4 v=94
43680 On ch=1 n=f5 v=94
43680 On ch=1 n=f5 v=94
43680 On ch=1 n=g5 v=94
43680 On ch=1 n=g5 v=94
44160 Off ch=1 n=g5 v=80
44160 Off ch=1 n=g5 v=80
44160 Off ch=1 n=f5 v=80
44160 Off ch=1 n=f5 v=80
44160 Off ch=1 n=a#4 v=80
44160 On ch=1 n=c#5 v=98
44160 On ch=1 n=a#5 v=98
44160 On ch=1 n=g5 v=98
44640 Off ch=1 n=g5 v=80
44640 Off ch=1 n=a#5 v=80
44640 Off ch=1 n=c#5 v=80
44640 On ch=1 n=c#5 v=98
44640 On ch=1 n=a#5 v=98
44640 On ch=1 n=g5 v=98
44880 Off ch=1 n=g5 v=80
44880 Off ch=1 n=a#5 v=80
44880 Off ch=1 n=c#5 v=80
44880 On ch=1 n=c#5 v=98
44880 On ch=1 n=a#5 v=98
44880 On ch=1 n=g5 v=98
45120 Off ch=1 n=g5 v=80
45120 Off ch=1 n=a#5 v=80
45120 Off ch=1 n=c#5 v=80
45120 On ch=1 n=a#5 v=112
45120 On ch=1 n=d5 v=112
45120 On ch=1 n=f5 v=112
45480 Off ch=1 n=a#5 v=80
45480 On ch=1 n=a5 v=102
45600 Off ch=1 n=a5 v=80
45600 On ch=1 n=a5 v=102
46080 Off ch=1 n=d5 v=80
46080 Off ch=1 n=f5 v=80
46080 Off ch=1 n=a5 v=80
46080 On ch=1 n=g3 v=65
46320 Off ch=1 n=g3 v=80
46440 On ch=1 n=f4 v=65
46560 On ch=1 n=g4 v=65
46560 On ch=1 n=b4 v=65
46560 On ch=1 n=d5 v=65
47040 Off ch=1 n=d5 v=80
47040 Off ch=1 n=b4 v=80
47040 Off ch=1 n=g4 v=80
47040 Off ch=1 n=f4 v=80
47040 On ch=1 n=g3 v=71
47280 Off ch=1 n=g3 v=80
47400 On ch=1 n=f4 v=71
47520 On ch=1 n=g4 v=77
47520 On ch=1 n=b4 v=77
47520 On ch=1 n=d5 v=77
48000 Off ch=1 n=d5 v=80
48000 Off ch=1 n=b4 v=80
48000 Off ch=1 n=g4 v=80
48000 Off ch=1 n=f4 v=80
48000 On ch=1 n=g3 v=83
48240 Off ch=1 n=g3 v=80
48360 On ch=1 n=f4 v=83
48480 On ch=1 n=g4 v=90
48480 On ch=1 n=b4 v=90
48480 On ch=1 n=d5 v=90
48960 Off ch=1 n=d5 v=80
48960 Off ch=1 n=b4 v=80
48960 Off ch=1 n=g4 v=80
48960 Off ch=1 n=f4 v=80
48960 On ch=1 n=g3 v=90
49200 Off ch=1 n=g3 v=80
49320 On ch=1 n=f4 v=90
49440 On ch=1 n=g4 v=90
49440 On ch=1 n=b4 v=90
49440 On ch=1 n=d5 v=90
49920 Off ch=1 n=d5 v=80
49920 Off ch=1 n=b4 v=80
49920 Off ch=1 n=g4 v=80
49920 Off ch=1 n=f4 v=80
49920 On ch=1 n=c3 v=90
50400 Off ch=1 n=c3 v=80
50400 On ch=1 n=e4 v=90
50400 On ch=1 n=c4 v=90
50640 Off ch=1 n=c4 v=80
50640 Off ch=1 n=e4 v=80
50760 On ch=1 n=f4 v=90
50760 On ch=1 n=d4 v=90
50880 Off ch=1 n=d4 v=80
50880 Off ch=1 n=f4 v=80
50880 On ch=1 n=g4 v=90
50880 On ch=1 n=e4 v=90
51000 Off ch=1 n=e4 v=80
51000 Off ch=1 n=g4 v=80
51120 On ch=1 n=a4 v=90
51120 On ch=1 n=f4 v=90
51240 Off ch=1 n=f4 v=80
51240 Off ch=1 n=a4 v=80
51360 On ch=1 n=a#4 v=90
51360 On ch=1 n=g4 v=90
51480 Off ch=1 n=g4 v=80
51480 Off ch=1 n=a#4 v=80
51600 On ch=1 n=c5 v=90
51600 On ch=1 n=a4 v=90
51720 Off ch=1 n=a4 v=80
51720 Off ch=1 n=c5 v=80
51840 On ch=1 n=d5 v=82
51840 On ch=1 n=a#4 v=82
52080 Off ch=1 n=a#4 v=80
52080 Off ch=1 n=d5 v=80
52320 On ch=1 n=c5 v=84
52320 On ch=1 n=c6 v=84
52800 Off ch=1 n=c5 v=80
53280 Off ch=1 n=c6 v=80
53280 On ch=1 n=c3 v=65
53280 On ch=1 n=c4 v=65
53760 Off ch=1 n=c4 v=80
53760 Off ch=1 n=c3 v=80
53760 On ch=1 n=f3 v=65
53760 On ch=1 n=f2 v=65
54240 Off ch=1 n=f2 v=80
54240 Off ch=1 n=f3 v=80
54240 On ch=1 n=d5 v=71
54240 On ch=1 n=a#4 v=71
54720 Off ch=1 n=a#4 v=80
54720 Off ch=1 n=d5 v=80
54720 On ch=1 n=a4 v=78
54720 On ch=1 n=c5 v=78
55200 Off ch=1 n=c5 v=80
55200 Off ch=1 n=a4 v=80
55200 On ch=1 n=c5 v=78
55200 On ch=1 n=g4 v=78
55680 Off ch=1 n=g4 v=80
55680 On ch=1 n=f4 v=78
56160 Off ch=1 n=c5 v=80
56160 Off ch=1 n=f4 v=80
56160 On ch=1 n=b4 v=78
56160 On ch=1 n=d4 v=78
56640 Off ch=1 n=d4 v=80
56640 Off ch=1 n=b4 v=80
56640 On ch=1 n=c5 v=78
56640 On ch=1 n=c4 v=78
57120 Off ch=1 n=c4 v=80
57120 Off ch=1 n=c5 v=80
57120 On ch=1 n=a#4 v=78
57120 On ch=1 n=c#4 v=78
57600 Off ch=1 n=c#4 v=80
57600 Off ch=1 n=a#4 v=80
57600 On ch=1 n=a4 v=78
57600 On ch=1 n=d4 v=78
58080 Off ch=1 n=d4 v=80
58080 Off ch=1 n=a4 v=80
58080 On ch=1 n=g3 v=78
58080 On ch=1 n=g4 v=78
58320 Off ch=1 n=g4 v=80
58320 On ch=1 n=f4 v=78
58560 Off ch=1 n=g3 v=80
58560 Off ch=1 n=f4 v=80
58560 On ch=1 n=a3 v=78
58560 On ch=1 n=e4 v=78
59040 Off ch=1 n=e4 v=80
59040 Off ch=1 n=a3 v=80
59040 On ch=1 n=a4 v=78
59040 On ch=1 n=c#4 v=78
59520 Off ch=1 n=c#4 v=80
59520 On ch=1 n=d4 v=74
60000 Off ch=1 n=a4 v=80
60000 Off ch=1 n=d4 v=80
60000 On ch=1 n=a#4 v=70
60000 On ch=1 n=c4 v=70
60480 On ch=1 n=f3 v=65
60960 Off ch=1 n=f3 v=80
60960 Off ch=1 n=c4 v=80
60960 Off ch=1 n=a#4 v=80
60960 On ch=1 n=a4 v=65
61440 Off ch=1 n=a4 v=80
61440 On ch=1 n=a3 v=102
61440 On ch=1 n=f4 v=102
61920 Off ch=1 n=f4 v=80
61920 Off ch=1 n=a3 v=80
61920 On ch=1 n=f4 v=65
61920 On ch=1 n=a#3 v=65
62040 Off ch=1 n=a#3 v=80
62040 Off ch=1 n=f4 v=80
62160 On ch=1 n=f4 v=59
62160 On ch=1 n=c4 v=59
62280 Off ch=1 n=c4 v=80
62280 Off ch=1 n=f4 v=80
62400 On ch=1 n=f4 v=53
62400 On ch=1 n=d4 v=53
62520 Off ch=1 n=d4 v=80
62520 Off ch=1 n=f4 v=80
62640 On ch=1 n=f4 v=53
62640 On ch=1 n=g3 v=53
62760 Off ch=1 n=g3 v=80
62760 Off ch=1 n=f4 v=80
62880 On ch=1 n=e4 v=53
62880 On ch=1 n=c4 v=53
63000 Off ch=1 n=c4 v=80
63000 Off ch=1 n=e4 v=80
63120 On ch=1 n=e4 v=53
63120 On ch=1 n=a#3 v=53
63240 Off ch=1 n=a#3 v=80
63240 Off ch=1 n=e4 v=80
63360 On ch=1 n=f4 v=102
63360 On ch=1 n=a3 v=102
63840 Off ch=1 n=a3 v=80
63840 Off ch=1 n=f4 v=80
63840 On ch=1 n=f4 v=65
63840 On ch=1 n=a#3 v=65
63960 Off ch=1 n=a#3 v=80
63960 Off ch=1 n=f4 v=80
64080 On ch=1 n=f4 v=59
64080 On ch=1 n=c4 v=59
64200 Off ch=1 n=c4 v=80
64200 Off ch=1 n=f4 v=80
64320 On ch=1 n=f4 v=53
64320 On ch=1 n=d4 v=53
64440 Off ch=1 n=d4 v=80
64440 Off ch=1 n=f4 v=80
64560 On ch=1 n=e4 v=53
64560 On ch=1 n=c4 v=53
64680 Off ch=1 n=c4 v=80
64680 Off ch=1 n=e4 v=80
64800 On ch=1 n=f4 v=53
64800 On ch=1 n=f3 v=53
65160 Off ch=1 n=f3 v=80
65160 Off ch=1 n=f4 v=80
65280 On ch=1 n=f4 v=102
65280 On ch=1 n=a3 v=102
65760 Off ch=1 n=a3 v=80
65760 Off ch=1 n=f4 v=80
65760 On ch=1 n=f4 v=65
65760 On ch=1 n=a#3 v=65
65880 Off ch=1 n=a#3 v=80
65880 Off ch=1 n=f4 v=80
66000 On ch=1 n=f4 v=59
66000 On ch=1 n=c4 v=59
66120 Off ch=1 n=c4 v=80
66120 Off ch=1 n=f4 v=80
66240 On ch=1 n=f4 v=53
66240 On ch=1 n=d4 v=53
66360 Off ch=1 n=d4 v=80
66360 Off ch=1 n=f4 v=80
66480 On ch=1 n=f4 v=53
66480 On ch=1 n=g3 v=53
66600 Off ch=1 n=g3 v=80
66600 Off ch=1 n=f4 v=80
66720 On ch=1 n=e4 v=53
66720 On ch=1 n=c4 v=53
66840 Off ch=1 n=c4 v=80
66840 Off ch=1 n=e4 v=80
66960 On ch=1 n=e4 v=53
66960 On ch=1 n=a#3 v=53
67080 Off ch=1 n=a#3 v=80
67080 Off ch=1 n=e4 v=80
67200 On ch=1 n=f4 v=102
67200 On ch=1 n=a3 v=102
67680 Off ch=1 n=a3 v=80
67680 Off ch=1 n=f4 v=80
67680 On ch=1 n=f4 v=65
67680 On ch=1 n=a#3 v=65
67800 Off ch=1 n=a#3 v=80
67800 Off ch=1 n=f4 v=80
67920 On ch=1 n=f4 v=59
67920 On ch=1 n=c4 v=59
68040 Off ch=1 n=c4 v=80
68040 Off ch=1 n=f4 v=80
68160 On ch=1 n=f4 v=53
68160 On ch=1 n=d4 v=53
68280 Off ch=1 n=d4 v=80
68280 Off ch=1 n=f4 v=80
68400 On ch=1 n=e4 v=53
68400 On ch=1 n=c4 v=53
68520 Off ch=1 n=c4 v=80
68520 Off ch=1 n=e4 v=80
68640 On ch=1 n=f4 v=53
68640 On ch=1 n=f3 v=53
69000 Off ch=1 n=f3 v=80
69000 Off ch=1 n=f4 v=80
69060 On ch=1 n=c#3 v=65
69180 Off ch=1 n=c#3 v=80
69180 On ch=1 n=c#4 v=114
69600 Off ch=1 n=c#4 v=80
69600 On ch=1 n=a#4 v=102
69600 On ch=1 n=f#4 v=102
70080 Off ch=1 n=f#4 v=80
70080 Off ch=1 n=a#4 v=80
70080 On ch=1 n=f4 v=90
70080 On ch=1 n=g#4 v=90
70560 Off ch=1 n=g#4 v=80
70560 Off ch=1 n=f4 v=80
70560 On ch=1 n=g#2 v=78
70560 On ch=1 n=g#3 v=78
71040 Off ch=1 n=g#2 v=80
71040 On ch=1 n=c#3 v=114
71520 Off ch=1 n=g#3 v=80
71520 Off ch=1 n=c#3 v=80
71520 On ch=1 n=f#4 v=102
71520 On ch=1 n=a#4 v=102
72000 Off ch=1 n=a#4 v=80
72000 Off ch=1 n=f#4 v=80
72000 On ch=1 n=f4 v=90
72000 On ch=1 n=g#4 v=90
72480 Off ch=1 n=g#4 v=80
72480 Off ch=1 n=f4 v=80
72480 On ch=1 n=g#3 v=78
72480 On ch=1 n=g#2 v=78
72960 Off ch=1 n=g#2 v=80
72960 On ch=1 n=c#3 v=78
73200 Off ch=1 n=c#3 v=80
73200 On ch=1 n=d#3 v=83
73440 Off ch=1 n=g#3 v=80
73440 Off ch=1 n=d#3 v=80
73440 On ch=1 n=f3 v=88
73680 Off ch=1 n=f3 v=80
73680 On ch=1 n=g3 v=93
73920 Off ch=1 n=g3 v=80
73920 On ch=1 n=a#3 v=98
73980 Off ch=1 n=a#3 v=80
73980 On ch=1 n=g#3 v=102
74160 Off ch=1 n=g#3 v=80
74160 On ch=1 n=g3 v=102
74400 Off ch=1 n=g3 v=80
74400 On ch=1 n=g#3 v=102
74640 Off ch=1 n=g#3 v=80
74640 On ch=1 n=d#3 v=102
74880 Off ch=1 n=d#3 v=80
74880 On ch=1 n=d#3 v=102
75120 On ch=1 n=c#4 v=102
75360 Off ch=1 n=c#4 v=80
75360 On ch=1 n=c4 v=102
75600 Off ch=1 n=c4 v=80
75600 On ch=1 n=a#3 v=102
75840 Off ch=1 n=d#3 v=80
75840 Off ch=1 n=a#3 v=80
75840 On ch=1 n=g#3 v=102
76320 On ch=1 n=b3 v=108
76680 Off ch=1 n=b3 v=80
76680 Off ch=1 n=g#3 v=80
76740 On ch=1 n=a#2 v=65
76860 Off ch=1 n=a#2 v=80
76860 On ch=1 n=a#3 v=114
77280 Off ch=1 n=a#3 v=80
77280 On ch=1 n=g#4 v=102
77280 On ch=1 n=b4 v=102
77760 Off ch=1 n=b4 v=80
77760 Off ch=1 n=g#4 v=80
77760 On ch=1 n=a#4 v=90
77760 On ch=1 n=f#4 v=90
78240 Off ch=1 n=f#4 v=80
78240 Off ch=1 n=a#4 v=80
78240 On ch=1 n=a#2 v=78
78240 On ch=1 n=a#3 v=78
78720 Off ch=1 n=a#2 v=80
78720 On ch=1 n=d#3 v=114
79200 Off ch=1 n=a#3 v=80
79200 Off ch=1 n=d#3 v=80
79200 On ch=1 n=b4 v=102
79200 On ch=1 n=g#4 v=102
79680 Off ch=1 n=g#4 v=80
79680 Off ch=1 n=b4 v=80
79680 On ch=1 n=a#4 v=90
79680 On ch=1 n=f#4 v=90
80160 Off ch=1 n=f#4 v=80
80160 Off ch=1 n=a#4 v=80
80160 On ch=1 n=a#2 v=78
80160 On ch=1 n=a#3 v=78
80640 Off ch=1 n=a#2 v=80
80640 On ch=1 n=d#3 v=78
80880 Off ch=1 n=d#3 v=80
80880 On ch=1 n=f3 v=83
81120 Off ch=1 n=a#3 v=80
81120 Off ch=1 n=f3 v=80
81120 On ch=1 n=f#3 v=88
81360 Off ch=1 n=f#3 v=80
81360 On ch=1 n=g#3 v=93
81600 Off ch=1 n=g#3 v=80
81600 On ch=1 n=c4 v=98
81660 Off ch=1 n=c4 v=80
81660 On ch=1 n=a#3 v=102
81840 Off ch=1 n=a#3 v=80
81840 On ch=1 n=a3 v=102
82080 Off ch=1 n=a3 v=80
82080 On ch=1 n=a#3 v=102
82320 Off ch=1 n=a#3 v=80
82320 On ch=1 n=a#2 v=102
82560 Off ch=1 n=a#2 v=80
82560 On ch=1 n=b3 v=65
82560 On ch=1 n=b2 v=65
82680 Off ch=1 n=b2 v=80
82680 Off ch=1 n=b3 v=80
83040 On ch=1 n=b2 v=78
83040 On ch=1 n=b3 v=78
83160 Off ch=1 n=b3 v=80
83160 Off ch=1 n=b2 v=80
83520 On ch=1 n=f#3 v=90
83520 On ch=1 n=f#2 v=90
83640 Off ch=1 n=f#2 v=80
83640 Off ch=1 n=f#3 v=80
84000 On ch=1 n=c#4 v=90
84120 Off ch=1 n=c#4 v=80
84240 On ch=1 n=a#3 v=90
84360 Off ch=1 n=a#3 v=80
84480 On ch=1 n=c#3 v=65
84600 Off ch=1 n=c#3 v=80
84960 On ch=1 n=f4 v=65
85080 Off ch=1 n=f4 v=80
85200 On ch=1 n=c#4 v=65
85320 Off ch=1 n=c#4 v=80
85440 On ch=1 n=f#3 v=65
85560 Off ch=1 n=f#3 v=80
85920 On ch=1 n=a#4 v=65
86040 Off ch=1 n=a#4 v=80
86160 On ch=1 n=f#4 v=65
86280 Off ch=1 n=f#4 v=80
86400 On ch=1 n=b2 v=65
86400 On ch=1 n=b3 v=65
86520 Off ch=1 n=b3 v=80
86520 Off ch=1 n=b2 v=80
86880 On ch=1 n=b2 v=78
86880 On ch=1 n=b3 v=78
87000 Off ch=1 n=b3 v=80
87000 Off ch=1 n=b2 v=80
87360 On ch=1 n=f#3 v=90
87360 On ch=1 n=f#2 v=90
87480 Off ch=1 n=f#2 v=80
87480 Off ch=1 n=f#3 v=80
87840 On ch=1 n=c#4 v=90
87960 Off ch=1 n=c#4 v=80
88080 On ch=1 n=a#3 v=90
88200 Off ch=1 n=a#3 v=80
88320 On ch=1 n=c#3 v=65
88440 Off ch=1 n=c#3 v=80
88800 On ch=1 n=f4 v=65
88920 Off ch=1 n=f4 v=80
89040 On ch=1 n=c#4 v=65
89160 Off ch=1 n=c#4 v=80
89280 On ch=1 n=f#3 v=65
89400 Off ch=1 n=f#3 v=80
89760 On ch=1 n=a#4 v=65
89880 Off ch=1 n=a#4 v=80
90000 On ch=1 n=f#4 v=65
90120 Off ch=1 n=f#4 v=80
90240 On ch=1 n=b3 v=90
90480 Off ch=1 n=b3 v=80
91200 On ch=1 n=g#3 v=90
91440 Off ch=1 n=g#3 v=80
92160 On ch=1 n=a#3 v=90
92400 Off ch=1 n=a#3 v=80
93120 On ch=1 n=b3 v=90
93360 Off ch=1 n=b3 v=80
94080 On ch=1 n=c#4 v=90
94320 Off ch=1 n=c#4 v=80
95040 On ch=1 n=c#4 v=90
95280 Off ch=1 n=c#4 v=80
96000 On ch=1 n=f#3 v=90
96240 Off ch=1 n=f#3 v=80
97920 On ch=1 n=d#3 v=90
98160 Off ch=1 n=d#3 v=80
98400 On ch=1 n=a#4 v=90
98640 Off ch=1 n=a#4 v=80
98640 On ch=1 n=f#4 v=65
98640 On ch=1 n=d#4 v=65
98760 Off ch=1 n=d#4 v=80
98760 Off ch=1 n=f#4 v=80
98880 On ch=1 n=g#3 v=90
99120 Off ch=1 n=g#3 v=80
99360 On ch=1 n=c5 v=90
99600 Off ch=1 n=c5 v=80
99600 On ch=1 n=d#4 v=65
99600 On ch=1 n=g#4 v=65
99720 Off ch=1 n=g#4 v=80
99720 Off ch=1 n=d#4 v=80
99840 On ch=1 n=c#3 v=90
100080 Off ch=1 n=c#3 v=80
100320 On ch=1 n=c#5 v=90
100560 On ch=1 n=g#4 v=65
100560 On ch=1 n=f4 v=65
100680 Off ch=1 n=f4 v=80
100680 Off ch=1 n=g#4 v=80
100800 Off ch=1 n=c#5 v=80
100800 On ch=1 n=f#3 v=90
101040 Off ch=1 n=f#3 v=80
101280 On ch=1 n=a#4 v=90
101520 On ch=1 n=f#4 v=65
101520 On ch=1 n=c#4 v=65
101640 Off ch=1 n=c#4 v=80
101640 Off ch=1 n=f#4 v=80
101760 Off ch=1 n=a#4 v=80
101760 On ch=1 n=g#3 v=90
102000 Off ch=1 n=g#3 v=80
102240 On ch=1 n=f4 v=90
102480 On ch=1 n=g#3 v=65
102480 On ch=1 n=c#4 v=65
102600 Off ch=1 n=c#4 v=80
102600 Off ch=1 n=g#3 v=80
102720 Off ch=1 n=f4 v=80
102720 On ch=1 n=g#2 v=90
102960 Off ch=1 n=g#2 v=80
103200 On ch=1 n=g#4 v=90
103440 On ch=1 n=g#3 v=65
103440 On ch=1 n=c4 v=65
103560 Off ch=1 n=c4 v=80
103560 Off ch=1 n=g#3 v=80
103680 Off ch=1 n=g#4 v=80
103680 On ch=1 n=c#3 v=90
103920 Off ch=1 n=c#3 v=80
104160 On ch=1 n=f#4 v=90
104400 On ch=1 n=g#3 v=65
104400 On ch=1 n=c4 v=65
104520 Off ch=1 n=c4 v=80
104520 Off ch=1 n=g#3 v=80
104640 Off ch=1 n=f#4 v=80
105120 On ch=1 n=f4 v=90
105360 On ch=1 n=g#3 v=65
105360 On ch=1 n=c#4 v=65
105480 Off ch=1 n=c#4 v=80
105480 Off ch=1 n=g#3 v=80
105600 Off ch=1 n=f4 v=80
105600 On ch=1 n=f#4 v=100
105600 On ch=1 n=f#3 v=100
106560 Off ch=1 n=f#4 v=80
106560 On ch=1 n=g#4 v=90
106800 Off ch=1 n=g#4 v=80
107040 On ch=1 n=a4 v=90
107280 Off ch=1 n=a4 v=80
107520 Off ch=1 n=f#3 v=80
107520 On ch=1 n=b2 v=90
108000 Off ch=1 n=b2 v=80
108000 On ch=1 n=d5 v=90
108480 Off ch=1 n=d5 v=80
108480 On ch=1 n=c#5 v=90
108960 Off ch=1 n=c#5 v=80
108960 On ch=1 n=b4 v=90
109440 Off ch=1 n=b4 v=80
109440 On ch=1 n=e4 v=100
109440 On ch=1 n=e3 v=100
110400 Off ch=1 n=e4 v=80
110400 On ch=1 n=f#4 v=90
110640 Off ch=1 n=f#4 v=80
110880 On ch=1 n=g#4 v=90
111120 Off ch=1 n=g#4 v=80
111360 Off ch=1 n=e3 v=80
111360 On ch=1 n=a2 v=90
111840 Off ch=1 n=a2 v=80
111840 On ch=1 n=c#5 v=90
112320 Off ch=1 n=c#5 v=80
112320 On ch=1 n=b4 v=90
112800 Off ch=1 n=b4 v=80
112800 On ch=1 n=a4 v=90
113280 Off ch=1 n=a4 v=80
113280 On ch=1 n=d4 v=90
113520 Off ch=1 n=d4 v=80
114240 On ch=1 n=b3 v=90
114480 Off ch=1 n=b3 v=80
115200 On ch=1 n=c#4 v=90
115440 Off ch=1 n=c#4 v=80
116160 On ch=1 n=d4 v=90
116400 Off ch=1 n=d4 v=80
117120 On ch=1 n=e4 v=90
117360 Off ch=1 n=e4 v=80
118080 On ch=1 n=e4 v=90
118320 Off ch=1 n=e4 v=80
119040 On ch=1 n=a3 v=90
119280 Off ch=1 n=a3 v=80
120960 On ch=1 n=f#3 v=65
121200 Off ch=1 n=f#3 v=80
121440 On ch=1 n=c#5 v=65
121680 Off ch=1 n=c#5 v=80
121680 On ch=1 n=f#4 v=51
121680 On ch=1 n=a4 v=51
121800 Off ch=1 n=a4 v=80
121800 Off ch=1 n=f#4 v=80
121920 On ch=1 n=b3 v=65
122160 Off ch=1 n=b3 v=80
122400 On ch=1 n=d#5 v=65
122640 Off ch=1 n=d#5 v=80
122640 On ch=1 n=f#4 v=51
122640 On ch=1 n=b4 v=51
122760 Off ch=1 n=b4 v=80
122760 Off ch=1 n=f#4 v=80
122880 On ch=1 n=e3 v=65
123120 Off ch=1 n=e3 v=80
123360 On ch=1 n=e5 v=65
123600 On ch=1 n=g#4 v=51
123600 On ch=1 n=b4 v=51
123720 Off ch=1 n=b4 v=80
123720 Off ch=1 n=g#4 v=80
123840 Off ch=1 n=e5 v=80
123840 On ch=1 n=a3 v=65
124080 Off ch=1 n=a3 v=80
124320 On ch=1 n=c#5 v=65
124560 On ch=1 n=a4 v=51
124560 On ch=1 n=e4 v=51
124680 Off ch=1 n=e4 v=80
124680 Off ch=1 n=a4 v=80
124800 Off ch=1 n=c#5 v=80
124800 On ch=1 n=b3 v=65
125040 Off ch=1 n=b3 v=80
125280 On ch=1 n=g#4 v=65
125520 On ch=1 n=b3 v=51
125520 On ch=1 n=e4 v=51
125640 Off ch=1 n=e4 v=80
125640 Off ch=1 n=b3 v=80
125760 Off ch=1 n=g#4 v=80
125760 On ch=1 n=b2 v=65
126000 Off ch=1 n=b2 v=80
126240 On ch=1 n=b4 v=65
126480 On ch=1 n=b3 v=51
126480 On ch=1 n=d#4 v=51
126600 Off ch=1 n=d#4 v=80
126600 Off ch=1 n=b3 v=80
126720 Off ch=1 n=b4 v=80
126720 On ch=1 n=e3 v=65
126960 Off ch=1 n=e3 v=80
127200 On ch=1 n=a4 v=65
127440 On ch=1 n=b3 v=51
127440 On ch=1 n=d#4 v=51
127560 Off ch=1 n=d#4 v=80
127560 Off ch=1 n=b3 v=80
127680 Off ch=1 n=a4 v=80
128160 On ch=1 n=g#4 v=65
128400 On ch=1 n=b3 v=51
128400 On ch=1 n=e4 v=51
128520 Off ch=1 n=e4 v=80
128520 Off ch=1 n=b3 v=80
128640 Off ch=1 n=g#4 v=80
128640 On ch=1 n=c3 v=53
128880 Off ch=1 n=c3 v=80
129000 On ch=1 n=c4 v=53
129120 Off ch=1 n=c4 v=80
129120 On ch=1 n=g4 v=53
129840 Off ch=1 n=g4 v=80
129960 On ch=1 n=c4 v=53
130080 Off ch=1 n=c4 v=80
130080 On ch=1 n=c5 v=53
130560 Off ch=1 n=c5 v=80
130560 On ch=1 n=c3 v=53
130800 Off ch=1 n=c3 v=80
130920 On ch=1 n=c4 v=53
131040 Off ch=1 n=c4 v=80
131040 On ch=1 n=g4 v=53
131760 Off ch=1 n=g4 v=80
131880 On ch=1 n=c4 v=53
132000 Off ch=1 n=c4 v=80
132000 On ch=1 n=c5 v=53
132480 Off ch=1 n=c5 v=80
132480 On ch=1 n=c3 v=73
132720 Off ch=1 n=c3 v=80
132840 On ch=1 n=c4 v=73
132960 Off ch=1 n=c4 v=80
132960 On ch=1 n=a#4 v=81
133440 Off ch=1 n=a#4 v=80
133440 On ch=1 n=b3 v=90
133440 On ch=1 n=b4 v=90
133920 Off ch=1 n=b4 v=80
133920 Off ch=1 n=b3 v=80
133920 On ch=1 n=b3 v=100
133920 On ch=1 n=b2 v=100
134400 Off ch=1 n=b2 v=80
134400 On ch=1 n=e3 v=65
134640 Off ch=1 n=b3 v=80
134640 Off ch=1 n=e3 v=80
134760 On ch=1 n=e4 v=65
134880 Off ch=1 n=e4 v=80
134880 On ch=1 n=b4 v=65
135600 Off ch=1 n=b4 v=80
135720 On ch=1 n=e4 v=53
135840 Off ch=1 n=e4 v=80
135840 On ch=1 n=e5 v=53
136320 Off ch=1 n=e5 v=80
136320 On ch=1 n=e3 v=53
136560 Off ch=1 n=e3 v=80
136680 On ch=1 n=e4 v=53
136800 Off ch=1 n=e4 v=80
136800 On ch=1 n=b4 v=53
137520 Off ch=1 n=b4 v=80
137640 On ch=1 n=e4 v=53
137760 Off ch=1 n=e4 v=80
137760 On ch=1 n=e5 v=53
138240 Off ch=1 n=e5 v=80
138240 On ch=1 n=e3 v=73
138480 Off ch=1 n=e3 v=80
138600 On ch=1 n=e4 v=73
138720 Off ch=1 n=e4 v=80
138720 On ch=1 n=c#5 v=81
139200 Off ch=1 n=c#5 v=80
139200 On ch=1 n=d4 v=90
139200 On ch=1 n=d5 v=90
139680 Off ch=1 n=d5 v=80
139680 Off ch=1 n=d4 v=80
139680 On ch=1 n=d3 v=90
139680 On ch=1 n=d4 v=90
140160 Off ch=1 n=d3 v=80
140160 On ch=1 n=g3 v=90
140400 Off ch=1 n=d4 v=80
140400 Off ch=1 n=g3 v=80
140520 On ch=1 n=d4 v=65
140640 Off ch=1 n=d4 v=80
140640 On ch=1 n=d5 v=65
141360 Off ch=1 n=d5 v=80
141480 On ch=1 n=g4 v=71
141600 Off ch=1 n=g4 v=80
141600 On ch=1 n=d5 v=77
142080 Off ch=1 n=d5 v=80
142080 On ch=1 n=d3 v=83
142320 Off ch=1 n=d3 v=80
142440 On ch=1 n=d4 v=83
142560 Off ch=1 n=d4 v=80
142560 On ch=1 n=d5 v=90
143280 Off ch=1 n=d5 v=80
143400 On ch=1 n=a4 v=90
143520 Off ch=1 n=a4 v=80
143520 On ch=1 n=a5 v=90
144000 Off ch=1 n=a5 v=80
144000 On ch=1 n=a3 v=83
144240 Off ch=1 n=a3 v=80
144360 On ch=1 n=e4 v=83
144480 Off ch=1 n=e4 v=80
144480 On ch=1 n=e5 v=80
145200 Off ch=1 n=e5 v=80
145320 On ch=1 n=a4 v=71
145440 Off ch=1 n=a4 v=80
145440 On ch=1 n=e5 v=77
145920 Off ch=1 n=e5 v=80
145920 On ch=1 n=e3 v=83
146160 Off ch=1 n=e3 v=80
146280 On ch=1 n=e4 v=83
146400 Off ch=1 n=e4 v=80
146400 On ch=1 n=e5 v=90
147120 Off ch=1 n=e5 v=80
147240 On ch=1 n=b4 v=98
147360 Off ch=1 n=b4 v=80
147360 On ch=1 n=b5 v=106
147840 Off ch=1 n=b5 v=80
147840 On ch=1 n=f#3 v=114
148080 Off ch=1 n=f#3 v=80
148200 On ch=1 n=g#3 v=114
148320 Off ch=1 n=g#3 v=80
148320 On ch=1 n=e4 v=105
148800 On ch=1 n=a3 v=90
149040 Off ch=1 n=a3 v=80
149040 Off ch=1 n=e4 v=80
149160 On ch=1 n=a4 v=90
149280 Off ch=1 n=a4 v=80
149280 On ch=1 n=a5 v=105
149760 Off ch=1 n=a5 v=80
149760 On ch=1 n=d3 v=90
150000 Off ch=1 n=d3 v=80
150120 On ch=1 n=e3 v=90
150240 Off ch=1 n=e3 v=80
150240 On ch=1 n=c4 v=90
150720 On ch=1 n=f3 v=96
150960 Off ch=1 n=f3 v=80
150960 Off ch=1 n=c4 v=80
151080 On ch=1 n=f4 v=96
151200 Off ch=1 n=f4 v=80
151200 On ch=1 n=f5 v=111
151680 Off ch=1 n=f5 v=80
151680 On ch=1 n=b2 v=102
151920 Off ch=1 n=b2 v=80
152040 On ch=1 n=c#3 v=102
152160 Off ch=1 n=c#3 v=80
152160 On ch=1 n=a3 v=102
152640 On ch=1 n=d3 v=108
152880 Off ch=1 n=d3 v=80
152880 Off ch=1 n=a3 v=80
153000 On ch=1 n=d4 v=108
153120 Off ch=1 n=d4 v=80
153120 On ch=1 n=d5 v=123
153600 Off ch=1 n=d5 v=80
153600 On ch=1 n=g2 v=114
153840 Off ch=1 n=g2 v=80
153960 On ch=1 n=g3 v=114
154080 On ch=1 n=d#4 v=105
154800 Off ch=1 n=d#4 v=80
154800 Off ch=1 n=g3 v=80
154920 On ch=1 n=g3 v=96
155040 Off ch=1 n=g3 v=80
155040 On ch=1 n=d#4 v=102
155040 On ch=1 n=a#4 v=102
155760 Off ch=1 n=a#4 v=80
155760 Off ch=1 n=d#4 v=80
155880 On ch=1 n=g2 v=108
156000 Off ch=1 n=g2 v=80
156000 On ch=1 n=g3 v=127
156720 Off ch=1 n=g3 v=80
156840 On ch=1 n=g3 v=114
156960 Off ch=1 n=g3 v=80
156960 On ch=1 n=d#4 v=127
156960 On ch=1 n=a#4 v=127
157440 Off ch=1 n=a#4 v=80
157440 Off ch=1 n=d#4 v=80
157920 On ch=1 n=a2 v=90
157920 On ch=1 n=a3 v=90
158040 Off ch=1 n=a3 v=80
158040 Off ch=1 n=a2 v=80
158280 On ch=1 n=b3 v=90
158400 Off ch=1 n=b3 v=80
158400 On ch=1 n=c#4 v=96
158520 Off ch=1 n=c#4 v=80
158760 On ch=1 n=d4 v=96
158880 Off ch=1 n=d4 v=80
158880 On ch=1 n=e4 v=102
159000 Off ch=1 n=e4 v=80
159240 On ch=1 n=f4 v=102
159360 Off ch=1 n=f4 v=80
159360 On ch=1 n=g4 v=108
159480 Off ch=1 n=g4 v=80
159720 On ch=1 n=g#4 v=108
159840 Off ch=1 n=g#4 v=80
159840 On ch=1 n=a4 v=127
160320 Off ch=1 n=a4 v=80
160320 On ch=1 n=a2 v=114
160800 Off ch=1 n=a2 v=80
160800 On ch=1 n=a4 v=127
161280 Off ch=1 n=a4 v=80
161280 On ch=1 n=d3 v=114
161760 Off ch=1 n=d3 v=80
161760 On ch=1 n=d5 v=127
161760 On ch=1 n=a#4 v=127
161760 On ch=1 n=g4 v=127
162240 Off ch=1 n=g4 v=80
162240 Off ch=1 n=a#4 v=80
162240 On ch=1 n=a4 v=114
162240 On ch=1 n=f4 v=114
162720 Off ch=1 n=f4 v=80
162720 Off ch=1 n=d5 v=80
162720 Off ch=1 n=a4 v=80
162720 On ch=1 n=a3 v=127
162720 On ch=1 n=a2 v=127
163200 Off ch=1 n=a2 v=80
163200 On ch=1 n=d3 v=127
163680 Off ch=1 n=a3 v=80
163680 Off ch=1 n=d3 v=80
163680 On ch=1 n=g4 v=127
163680 On ch=1 n=a#4 v=127
163680 On ch=1 n=d5 v=127
164160 Off ch=1 n=a#4 v=80
164160 Off ch=1 n=g4 v=80
164160 On ch=1 n=a4 v=114
164160 On ch=1 n=f4 v=114
164640 Off ch=1 n=f4 v=80
164640 Off ch=1 n=d5 v=80
164640 Off ch=1 n=a4 v=80
164640 On ch=1 n=a2 v=127
164640 On ch=1 n=a3 v=127
165120 Off ch=1 n=a3 v=80
165120 Off ch=1 n=a2 v=80
165120 On ch=1 n=d3 v=78
165360 Off ch=1 n=d3 v=80
165360 On ch=1 n=e3 v=83
165600 Off ch=1 n=e3 v=80
165600 On ch=1 n=f3 v=88
165840 Off ch=1 n=f3 v=80
165840 On ch=1 n=g3 v=93
166080 Off ch=1 n=g3 v=80
166080 On ch=1 n=b3 v=98
166140 Off ch=1 n=b3 v=80
166140 On ch=1 n=a3 v=102
166320 Off ch=1 n=a3 v=80
166320 On ch=1 n=g#3 v=102
166560 Off ch=1 n=g#3 v=80
166560 On ch=1 n=a3 v=102
166800 Off ch=1 n=a3 v=80
166800 On ch=1 n=a2 v=102
167040 Off ch=1 n=a2 v=80
167040 On ch=1 n=a#2 v=65
167040 On ch=1 n=a#3 v=65
167160 Off ch=1 n=a#3 v=80
167160 Off ch=1 n=a#2 v=80
167520 On ch=1 n=a#2 v=78
167520 On ch=1 n=a#3 v=78
167640 Off ch=1 n=a#3 v=80
167640 Off ch=1 n=a#2 v=80
168000 On ch=1 n=f3 v=90
168000 On ch=1 n=f2 v=90
168120 Off ch=1 n=f2 v=80
168120 Off ch=1 n=f3 v=80
168480 On ch=1 n=c4 v=90
168600 Off ch=1 n=c4 v=80
168720 On ch=1 n=a3 v=90
168840 Off ch=1 n=a3 v=80
168960 On ch=1 n=c3 v=65
169080 Off ch=1 n=c3 v=80
169440 On ch=1 n=e4 v=65
169560 Off ch=1 n=e4 v=80
169680 On ch=1 n=c4 v=65
169800 Off ch=1 n=c4 v=80
169920 On ch=1 n=f3 v=65
170040 Off ch=1 n=f3 v=80
170400 On ch=1 n=a4 v=65
170520 Off ch=1 n=a4 v=80
170640 On ch=1 n=f4 v=65
170760 Off ch=1 n=f4 v=80
170880 On ch=1 n=a#2 v=65
170880 On ch=1 n=a#3 v=65
171000 Off ch=1 n=a#3 v=80
171000 Off ch=1 n=a#2 v=80
171360 On ch=1 n=a#2 v=78
171360 On ch=1 n=a#3 v=78
171480 Off ch=1 n=a#3 v=80
171480 Off ch=1 n=a#2 v=80
171840 On ch=1 n=f3 v=90
171840 On ch=1 n=f2 v=90
171960 Off ch=1 n=f2 v=80
171960 Off ch=1 n=f3 v=80
172320 On ch=1 n=c4 v=90
172440 Off ch=1 n=c4 v=80
172560 On ch=1 n=a3 v=90
172680 Off ch=1 n=a3 v=80
172800 On ch=1 n=c3 v=65
172920 Off ch=1 n=c3 v=80
173280 On ch=1 n=e4 v=65
173400 Off ch=1 n=e4 v=80
173520 On ch=1 n=c4 v=65
173640 Off ch=1 n=c4 v=80
173760 On ch=1 n=f3 v=65
173880 Off ch=1 n=f3 v=80
174240 On ch=1 n=a4 v=65
174360 Off ch=1 n=a4 v=80
174480 On ch=1 n=f4 v=65
174600 Off ch=1 n=f4 v=80
174720 On ch=1 n=a#3 v=90
174960 Off ch=1 n=a#3 v=80
175680 On ch=1 n=g3 v=90
175920 Off ch=1 n=g3 v=80
176640 On ch=1 n=a3 v=90
176880 Off ch=1 n=a3 v=80
177600 On ch=1 n=a#3 v=90
177840 Off ch=1 n=a#3 v=80
178560 On ch=1 n=c4 v=90
178800 Off ch=1 n=c4 v=80
179520 On ch=1 n=c4 v=90
179760 Off ch=1 n=c4 v=80
180480 On ch=1 n=f3 v=90
180720 Off ch=1 n=f3 v=80
182400 On ch=1 n=d3 v=65
182640 Off ch=1 n=d3 v=80
182880 On ch=1 n=a4 v=65
183120 Off ch=1 n=a4 v=80
183120 On ch=1 n=f4 v=53
183120 On ch=1 n=d4 v=53
183240 Off ch=1 n=d4 v=80
183240 Off ch=1 n=f4 v=80
183360 On ch=1 n=g3 v=65
183600 Off ch=1 n=g3 v=80
183840 On ch=1 n=b4 v=65
184080 Off ch=1 n=b4 v=80
184080 On ch=1 n=d4 v=53
184080 On ch=1 n=g4 v=53
184200 Off ch=1 n=g4 v=80
184200 Off ch=1 n=d4 v=80
184320 On ch=1 n=c3 v=65
184560 Off ch=1 n=c3 v=80
184800 On ch=1 n=c5 v=65
185040 On ch=1 n=g4 v=53
185040 On ch=1 n=e4 v=53
185160 Off ch=1 n=e4 v=80
185160 Off ch=1 n=g4 v=80
185280 Off ch=1 n=c5 v=80
185280 On ch=1 n=f3 v=65
185520 Off ch=1 n=f3 v=80
185760 On ch=1 n=a4 v=65
186000 On ch=1 n=f4 v=53
186000 On ch=1 n=c4 v=53
186120 Off ch=1 n=c4 v=80
186120 Off ch=1 n=f4 v=80
186240 Off ch=1 n=a4 v=80
186240 On ch=1 n=g3 v=65
186480 Off ch=1 n=g3 v=80
186720 On ch=1 n=e4 v=65
186960 On ch=1 n=g3 v=53
186960 On ch=1 n=c4 v=53
187080 Off ch=1 n=c4 v=80
187080 Off ch=1 n=g3 v=80
187200 Off ch=1 n=e4 v=80
187200 On ch=1 n=g2 v=65
187440 Off ch=1 n=g2 v=80
187680 On ch=1 n=g4 v=65
187920 On ch=1 n=g3 v=53
187920 On ch=1 n=b3 v=53
188040 Off ch=1 n=b3 v=80
188040 Off ch=1 n=g3 v=80
188160 Off ch=1 n=g4 v=80
188160 On ch=1 n=c3 v=65
188400 Off ch=1 n=c3 v=80
188640 On ch=1 n=f4 v=65
188880 On ch=1 n=g3 v=53
188880 On ch=1 n=b3 v=53
189000 Off ch=1 n=b3 v=80
189000 Off ch=1 n=g3 v=80
189120 Off ch=1 n=f4 v=80
189600 On ch=1 n=e4 v=65
189840 On ch=1 n=g3 v=53
189840 On ch=1 n=c4 v=53
189960 Off ch=1 n=c4 v=80
189960 Off ch=1 n=g3 v=80
190080 Off ch=1 n=e4 v=80
190080 On ch=1 n=f3 v=100
190080 On ch=1 n=f4 v=100
191040 Off ch=1 n=f4 v=80
191040 On ch=1 n=g4 v=90
191280 Off ch=1 n=g4 v=80
191520 On ch=1 n=g#4 v=90
191760 Off ch=1 n=g#4 v=80
192000 Off ch=1 n=f3 v=80
192000 On ch=1 n=a#2 v=90
192480 Off ch=1 n=a#2 v=80
192480 On ch=1 n=c#5 v=90
192960 Off ch=1 n=c#5 v=80
192960 On ch=1 n=c5 v=90
193440 Off ch=1 n=c5 v=80
193440 On ch=1 n=a#4 v=90
193920 Off ch=1 n=a#4 v=80
193920 On ch=1 n=d#4 v=100
193920 On ch=1 n=d#3 v=100
194880 Off ch=1 n=d#4 v=80
194880 On ch=1 n=f4 v=90
195120 Off ch=1 n=f4 v=80
195360 On ch=1 n=g4 v=90
195600 Off ch=1 n=g4 v=80
195840 Off ch=1 n=d#3 v=80
195840 On ch=1 n=g#2 v=90
196320 Off ch=1 n=g#2 v=80
196320 On ch=1 n=c5 v=90
196800 Off ch=1 n=c5 v=80
196800 On ch=1 n=a#4 v=90
197280 Off ch=1 n=a#4 v=80
197280 On ch=1 n=g#4 v=90
197760 Off ch=1 n=g#4 v=80
197760 On ch=1 n=c#4 v=90
198000 Off ch=1 n=c#4 v=80
198720 On ch=1 n=a#3 v=90
198960 Off ch=1 n=a#3 v=80
199680 On ch=1 n=c4 v=90
199920 Off ch=1 n=c4 v=80
200640 On ch=1 n=c#4 v=90
200880 Off ch=1 n=c#4 v=80
201600 On ch=1 n=d#4 v=90
201840 Off ch=1 n=d#4 v=80
202560 On ch=1 n=d#4 v=90
202800 Off ch=1 n=d#4 v=80
203520 On ch=1 n=g#3 v=90
203760 Off ch=1 n=g#3 v=80
205440 On ch=1 n=f3 v=65
205680 Off ch=1 n=f3 v=80
205920 On ch=1 n=c5 v=65
206160 Off ch=1 n=c5 v=80
206160 On ch=1 n=f4 v=51
206160 On ch=1 n=g#4 v=51
206280 Off ch=1 n=g#4 v=80
206280 Off ch=1 n=f4 v=80
206400 On ch=1 n=a#3 v=65
206640 Off ch=1 n=a#3 v=80
206880 On ch=1 n=d5 v=65
207120 Off ch=1 n=d5 v=80
207120 On ch=1 n=f4 v=51
207120 On ch=1 n=a#4 v=51
207240 Off ch=1 n=a#4 v=80
207240 Off ch=1 n=f4 v=80
207360 On ch=1 n=d#3 v=65
207600 Off ch=1 n=d#3 v=80
207840 On ch=1 n=d#5 v=65
208080 On ch=1 n=g4 v=51
208080 On ch=1 n=a#4 v=51
208200 Off ch=1 n=a#4 v=80
208200 Off ch=1 n=g4 v=80
208320 Off ch=1 n=d#5 v=80
208320 On ch=1 n=g#3 v=65
208560 Off ch=1 n=g#3 v=80
208800 On ch=1 n=c5 v=65
209040 On ch=1 n=g#4 v=51
209040 On ch=1 n=d#4 v=51
209160 Off ch=1 n=d#4 v=80
209160 Off ch=1 n=g#4 v=80
209280 Off ch=1 n=c5 v=80
209280 On ch=1 n=a#3 v=65
209520 Off ch=1 n=a#3 v=80
209760 On ch=1 n=g4 v=65
210000 On ch=1 n=a#3 v=51
210000 On ch=1 n=d#4 v=51
210120 Off ch=1 n=d#4 v=80
210120 Off ch=1 n=a#3 v=80
210240 Off ch=1 n=g4 v=80
210240 On ch=1 n=a#2 v=65
210480 Off ch=1 n=a#2 v=80
210720 On ch=1 n=a#4 v=65
210960 On ch=1 n=a#3 v=51
210960 On ch=1 n=d4 v=51
211080 Off ch=1 n=d4 v=80
211080 Off ch=1 n=a#3 v=80
211200 Off ch=1 n=a#4 v=80
211200 On ch=1 n=d#3 v=65
211440 Off ch=1 n=d#3 v=80
211680 On ch=1 n=g#4 v=65
211920 On ch=1 n=a#3 v=51
211920 On ch=1 n=d4 v=51
212040 Off ch=1 n=d4 v=80
212040 Off ch=1 n=a#3 v=80
212160 Off ch=1 n=g#4 v=80
212640 On ch=1 n=g4 v=65
212880 On ch=1 n=a#3 v=51
212880 On ch=1 n=d#4 v=51
213000 Off ch=1 n=d#4 v=80
213000 Off ch=1 n=a#3 v=80
213120 Off ch=1 n=g4 v=80
213120 On ch=1 n=b2 v=53
213360 Off ch=1 n=b2 v=80
213480 On ch=1 n=b3 v=53
213600 Off ch=1 n=b3 v=80
213600 On ch=1 n=f#4 v=53
214320 Off ch=1 n=f#4 v=80
214440 On ch=1 n=b3 v=53
214560 Off ch=1 n=b3 v=80
214560 On ch=1 n=b4 v=53
215040 Off ch=1 n=b4 v=80
215040 On ch=1 n=b2 v=53
215280 Off ch=1 n=b2 v=80
215400 On ch=1 n=b3 v=53
215520 Off ch=1 n=b3 v=80
215520 On ch=1 n=f#4 v=53
216240 Off ch=1 n=f#4 v=80
216360 On ch=1 n=b3 v=53
216480 Off ch=1 n=b3 v=80
216480 On ch=1 n=b4 v=53
216960 Off ch=1 n=b4 v=80
216960 On ch=1 n=b2 v=73
217200 Off ch=1 n=b2 v=80
217320 On ch=1 n=b3 v=73
217440 Off ch=1 n=b3 v=80
217440 On ch=1 n=a4 v=81
217920 Off ch=1 n=a4 v=80
217920 On ch=1 n=a#3 v=90
217920 On ch=1 n=a#4 v=90
218400 Off ch=1 n=a#4 v=80
218400 Off ch=1 n=a#3 v=80
218400 On ch=1 n=a#3 v=100
218400 On ch=1 n=a#2 v=100
218880 Off ch=1 n=a#2 v=80
218880 On ch=1 n=d#3 v=65
219120 Off ch=1 n=a#3 v=80
219120 Off ch=1 n=d#3 v=80
219240 On ch=1 n=d#4 v=65
219360 Off ch=1 n=d#4 v=80
219360 On ch=1 n=a#4 v=65
220080 Off ch=1 n=a#4 v=80
220200 On ch=1 n=d#4 v=53
220320 Off ch=1 n=d#4 v=80
220320 On ch=1 n=d#5 v=53
220800 Off ch=1 n=d#5 v=80
220800 On ch=1 n=d#3 v=53
221040 Off ch=1 n=d#3 v=80
221160 On ch=1 n=d#4 v=53
221280 Off ch=1 n=d#4 v=80
221280 On ch=1 n=a#4 v=53
222000 Off ch=1 n=a#4 v=80
222120 On ch=1 n=d#4 v=53
222240 Off ch=1 n=d#4 v=80
222240 On ch=1 n=d#5 v=53
222720 Off ch=1 n=d#5 v=80
222720 On ch=1 n=d#3 v=73
222960 Off ch=1 n=d#3 v=80
223080 On ch=1 n=d#4 v=73
223200 Off ch=1 n=d#4 v=80
223200 On ch=1 n=c5 v=81
223680 Off ch=1 n=c5 v=80
223680 On ch=1 n=c#4 v=90
223680 On ch=1 n=c#5 v=90
224160 Off ch=1 n=c#5 v=80
224160 Off ch=1 n=c#4 v=80
224160 On ch=1 n=c#3 v=90
224160 On ch=1 n=c#4 v=90
224640 Off ch=1 n=c#3 v=80
224640 On ch=1 n=f#3 v=90
224880 Off ch=1 n=c#4 v=80
224880 Off ch=1 n=f#3 v=80
225000 On ch=1 n=c#4 v=65
225120 Off ch=1 n=c#4 v=80
225120 On ch=1 n=c#5 v=65
225840 Off ch=1 n=c#5 v=80
225960 On ch=1 n=f#4 v=71
226080 Off ch=1 n=f#4 v=80
226080 On ch=1 n=c#5 v=77
226560 Off ch=1 n=c#5 v=80
226560 On ch=1 n=c#3 v=83
226800 Off ch=1 n=c#3 v=80
226920 On ch=1 n=c#4 v=83
227040 Off ch=1 n=c#4 v=80
227040 On ch=1 n=c#5 v=90
227760 Off ch=1 n=c#5 v=80
227880 On ch=1 n=g#4 v=90
228000 Off ch=1 n=g#4 v=80
228000 On ch=1 n=g#5 v=90
228480 Off ch=1 n=g#5 v=80
228480 On ch=1 n=g#3 v=83
228720 Off ch=1 n=g#3 v=80
228840 On ch=1 n=d#4 v=83
228960 Off ch=1 n=d#4 v=80
228960 On ch=1 n=d#5 v=80
229680 Off ch=1 n=d#5 v=80
229800 On ch=1 n=g#4 v=71
229920 Off ch=1 n=g#4 v=80
229920 On ch=1 n=d#5 v=77
230400 Off ch=1 n=d#5 v=80
230400 On ch=1 n=d#3 v=83
230640 Off ch=1 n=d#3 v=80
230760 On ch=1 n=d#4 v=83
230880 Off ch=1 n=d#4 v=80
230880 On ch=1 n=d#5 v=90
231600 Off ch=1 n=d#5 v=80
231720 On ch=1 n=a#4 v=98
231840 Off ch=1 n=a#4 v=80
231840 On ch=1 n=a#5 v=106
232320 Off ch=1 n=a#5 v=80
232320 On ch=1 n=f3 v=114
232560 Off ch=1 n=f3 v=80
232680 On ch=1 n=g3 v=114
232800 Off ch=1 n=g3 v=80
232800 On ch=1 n=d#4 v=105
233280 On ch=1 n=g#3 v=90
233520 Off ch=1 n=g#3 v=80
233520 Off ch=1 n=d#4 v=80
233640 On ch=1 n=g#4 v=90
233760 Off ch=1 n=g#4 v=80
233760 On ch=1 n=g#5 v=105
234240 Off ch=1 n=g#5 v=80
234240 On ch=1 n=c#3 v=90
234480 Off ch=1 n=c#3 v=80
234600 On ch=1 n=d#3 v=90
234720 Off ch=1 n=d#3 v=80
234720 On ch=1 n=b3 v=90
235200 On ch=1 n=e3 v=96
235440 Off ch=1 n=e3 v=80
235440 Off ch=1 n=b3 v=80
235560 On ch=1 n=e4 v=96
235680 Off ch=1 n=e4 v=80
235680 On ch=1 n=e5 v=111
236160 Off ch=1 n=e5 v=80
236160 On ch=1 n=a#2 v=102
236400 Off ch=1 n=a#2 v=80
236520 On ch=1 n=c3 v=102
236640 Off ch=1 n=c3 v=80
236640 On ch=1 n=g#3 v=102
237120 On ch=1 n=c#3 v=108
237360 Off ch=1 n=c#3 v=80
237360 Off ch=1 n=g#3 v=80
237480 On ch=1 n=c#4 v=108
237600 Off ch=1 n=c#4 v=80
237600 On ch=1 n=c#5 v=123
238080 Off ch=1 n=c#5 v=80
238080 On ch=1 n=f#2 v=114
238320 Off ch=1 n=f#2 v=80
238440 On ch=1 n=f#3 v=114
238560 On ch=1 n=d4 v=105
239280 Off ch=1 n=d4 v=80
239280 Off ch=1 n=f#3 v=80
239400 On ch=1 n=f#3 v=96
239520 Off ch=1 n=f#3 v=80
239520 On ch=1 n=d4 v=102
239520 On ch=1 n=a4 v=102
240240 Off ch=1 n=a4 v=80
240240 Off ch=1 n=d4 v=80
240360 On ch=1 n=f#2 v=108
240480 Off ch=1 n=f#2 v=80
240480 On ch=1 n=f#3 v=127
241200 Off ch=1 n=f#3 v=80
241320 On ch=1 n=f#3 v=114
241440 Off ch=1 n=f#3 v=80
241440 On ch=1 n=d4 v=127
241440 On ch=1 n=a4 v=127
241920 Off ch=1 n=a4 v=80
241920 Off ch=1 n=d4 v=80
242400 On ch=1 n=g#3 v=90
242400 On ch=1 n=g#2 v=90
242520 Off ch=1 n=g#2 v=80
242520 Off ch=1 n=g#3 v=80
242760 On ch=1 n=a#3 v=90
242880 Off ch=1 n=a#3 v=80
242880 On ch=1 n=c4 v=96
243000 Off ch=1 n=c4 v=80
243240 On ch=1 n=c#4 v=96
243360 Off ch=1 n=c#4 v=80
243360 On ch=1 n=d#4 v=102
243480 Off ch=1 n=d#4 v=80
243720 On ch=1 n=e4 v=102
243840 Off ch=1 n=e4 v=80
243840 On ch=1 n=f#4 v=108
243960 Off ch=1 n=f#4 v=80
244200 On ch=1 n=g4 v=108
244320 Off ch=1 n=g4 v=80
244320 On ch=1 n=g#4 v=127
244800 Off ch=1 n=g#4 v=80
244800 On ch=1 n=g#2 v=114
245280 Off ch=1 n=g#2 v=80
245280 On ch=1 n=g#4 v=127
245760 Off ch=1 n=g#4 v=80
245760 On ch=1 n=c#3 v=114
246240 Off ch=1 n=c#3 v=80
246240 On ch=1 n=c#5 v=127
246240 On ch=1 n=a4 v=127
246240 On ch=1 n=f#4 v=127
246720 Off ch=1 n=f#4 v=80
246720 Off ch=1 n=a4 v=80
246720 On ch=1 n=g#4 v=114
246720 On ch=1 n=e4 v=114
247200 Off ch=1 n=e4 v=80
247200 Off ch=1 n=c#5 v=80
247200 Off ch=1 n=g#4 v=80
247200 On ch=1 n=g#3 v=127
247200 On ch=1 n=g#2 v=127
247680 Off ch=1 n=g#2 v=80
247680 On ch=1 n=c#3 v=127
248160 Off ch=1 n=g#3 v=80
248160 Off ch=1 n=c#3 v=80
248160 On ch=1 n=f#4 v=127
248160 On ch=1 n=a4 v=127
248160 On ch=1 n=c#5 v=127
248640 Off ch=1 n=a4 v=80
248640 Off ch=1 n=f#4 v=80
248640 On ch=1 n=g#4 v=114
248640 On ch=1 n=e4 v=114
249120 Off ch=1 n=e4 v=80
249120 Off ch=1 n=c#5 v=80
249120 Off ch=1 n=g#4 v=80
249120 On ch=1 n=g#2 v=127
249120 On ch=1 n=g#3 v=127
249600 Off ch=1 n=g#2 v=80
249600 On ch=1 n=c#3 v=127
250080 Off ch=1 n=g#3 v=80
250080 Off ch=1 n=c#3 v=80
250080 On ch=1 n=g#4 v=114
250080 On ch=1 n=c#4 v=114
251040 Off ch=1 n=c#4 v=80
251040 Off ch=1 n=g#4 v=80
251040 On ch=1 n=c#4 v=102
251040 On ch=1 n=g#4 v=102
252000 Off ch=1 n=g#4 v=80
252000 Off ch=1 n=c#4 v=80
252000 On ch=1 n=c#4 v=90
252000 On ch=1 n=g#4 v=90
252960 Off ch=1 n=g#4 v=80
252960 Off ch=1 n=c#4 v=80
252960 On ch=1 n=g#4 v=78
252960 On ch=1 n=c#4 v=78
253440 Off ch=1 n=c#4 v=80
253440 Off ch=1 n=g#4 v=80
253440 On ch=1 n=e3 v=65
253920 Off ch=1 n=e3 v=80
253920 On ch=1 n=g#4 v=71
253920 On ch=1 n=e4 v=71
254160 Off ch=1 n=e4 v=80
254160 Off ch=1 n=g#4 v=80
254280 On ch=1 n=a4 v=71
254280 On ch=1 n=f#4 v=71
254400 Off ch=1 n=f#4 v=80
254400 Off ch=1 n=a4 v=80
254400 On ch=1 n=b4 v=77
254400 On ch=1 n=g#4 v=77
254520 Off ch=1 n=g#4 v=80
254520 Off ch=1 n=b4 v=80
254640 On ch=1 n=c#5 v=77
254640 On ch=1 n=a4 v=77
254760 Off ch=1 n=a4 v=80
254760 Off ch=1 n=c#5 v=80
254880 On ch=1 n=d5 v=83
254880 On ch=1 n=b4 v=83
255000 Off ch=1 n=b4 v=80
255000 Off ch=1 n=d5 v=80
255120 On ch=1 n=e5 v=83
255120 On ch=1 n=c#5 v=83
255240 Off ch=1 n=c#5 v=80
255240 Off ch=1 n=e5 v=80
255360 On ch=1 n=f#5 v=90
255360 On ch=1 n=d5 v=90
255600 Off ch=1 n=d5 v=80
255600 Off ch=1 n=f#5 v=80
256320 On ch=1 n=e3 v=90
257280 Off ch=1 n=e3 v=80
257280 On ch=1 n=a3 v=65
257280 On ch=1 n=a2 v=65
257760 Off ch=1 n=a2 v=80
257760 Off ch=1 n=a3 v=80
257760 On ch=1 n=d5 v=90
257760 On ch=1 n=f#5 v=90
258240 Off ch=1 n=f#5 v=80
258240 Off ch=1 n=d5 v=80
258240 On ch=1 n=e5 v=82
258240 On ch=1 n=c#5 v=82
258720 Off ch=1 n=c#5 v=80
258720 Off ch=1 n=e5 v=80
258720 On ch=1 n=e5 v=74
258720 On ch=1 n=b4 v=74
259200 Off ch=1 n=b4 v=80
259200 On ch=1 n=a4 v=65
259680 Off ch=1 n=e5 v=80
259680 Off ch=1 n=a4 v=80
259680 On ch=1 n=d#5 v=65
259680 On ch=1 n=f#4 v=65
260160 Off ch=1 n=f#4 v=80
260160 Off ch=1 n=d#5 v=80
260160 On ch=1 n=e5 v=65
260160 On ch=1 n=e4 v=65
260640 Off ch=1 n=e4 v=80
260640 Off ch=1 n=e5 v=80
260640 On ch=1 n=d5 v=65
260640 On ch=1 n=f4 v=65
261120 Off ch=1 n=f4 v=80
261120 Off ch=1 n=d5 v=80
261120 On ch=1 n=c#5 v=65
261120 On ch=1 n=f#4 v=65
261600 Off ch=1 n=f#4 v=80
261600 Off ch=1 n=c#5 v=80
261600 On ch=1 n=b3 v=65
261600 On ch=1 n=b4 v=65
261840 Off ch=1 n=b4 v=80
261840 On ch=1 n=a4 v=65
262080 Off ch=1 n=b3 v=80
262080 Off ch=1 n=a4 v=80
262080 On ch=1 n=c#4 v=65
262080 On ch=1 n=g#4 v=65
262560 Off ch=1 n=g#4 v=80
262560 Off ch=1 n=c#4 v=80
262560 On ch=1 n=c#5 v=65
262560 On ch=1 n=f4 v=65
263040 Off ch=1 n=f4 v=80
263040 On ch=1 n=f#4 v=65
263520 Off ch=1 n=c#5 v=80
263520 Off ch=1 n=f#4 v=80
263520 On ch=1 n=b3 v=65
263520 On ch=1 n=b4 v=65
263760 Off ch=1 n=b4 v=80
263760 On ch=1 n=a4 v=65
264000 Off ch=1 n=b3 v=80
264000 Off ch=1 n=a4 v=80
264000 On ch=1 n=g#4 v=65
264000 On ch=1 n=e4 v=65
264480 Off ch=1 n=e4 v=80
264480 Off ch=1 n=g#4 v=80
264480 On ch=1 n=d4 v=65
264480 On ch=1 n=d3 v=65
264960 Off ch=1 n=d3 v=80
264960 Off ch=1 n=d4 v=80
264960 On ch=1 n=c#4 v=65
264960 On ch=1 n=c#3 v=65
265920 Off ch=1 n=c#3 v=80
265920 Off ch=1 n=c#4 v=80
265920 On ch=1 n=d4 v=78
265920 On ch=1 n=d3 v=78
266400 Off ch=1 n=d3 v=80
266400 Off ch=1 n=d4 v=80
266400 On ch=1 n=d#4 v=81
266400 On ch=1 n=d#3 v=81
266880 Off ch=1 n=d#3 v=80
266880 Off ch=1 n=d#4 v=80
266880 On ch=1 n=e3 v=84
266880 On ch=1 n=e4 v=84
267360 Off ch=1 n=e4 v=80
267360 Off ch=1 n=e3 v=80
267360 On ch=1 n=f3 v=87
267360 On ch=1 n=f4 v=87
267840 Off ch=1 n=f4 v=80
267840 Off ch=1 n=f3 v=80
267840 On ch=1 n=f#3 v=90
267840 On ch=1 n=f#4 v=90
268320 Off ch=1 n=f#4 v=80
268320 Off ch=1 n=f#3 v=80
268320 On ch=1 n=e3 v=90
268320 On ch=1 n=e4 v=90
268800 Off ch=1 n=e4 v=80
268800 Off ch=1 n=e3 v=80
268800 On ch=1 n=d4 v=90
268800 On ch=1 n=d3 v=90
269760 Off ch=1 n=d3 v=80
269760 Off ch=1 n=d4 v=80
269760 On ch=1 n=d#4 v=90
269760 On ch=1 n=d#3 v=90
270240 Off ch=1 n=d#3 v=80
270240 Off ch=1 n=d#4 v=80
270240 On ch=1 n=e3 v=90
270240 On ch=1 n=e4 v=90
270720 Off ch=1 n=e4 v=80
270720 Off ch=1 n=e3 v=80
270720 On ch=1 n=f#3 v=90
270720 On ch=1 n=f#4 v=90
271200 Off ch=1 n=f#4 v=80
271200 On ch=1 n=b3 v=90
271200 On ch=1 n=b2 v=90
271680 Off ch=1 n=b2 v=80
271680 Off ch=1 n=f#3 v=80
271680 On ch=1 n=e3 v=102
272160 Off ch=1 n=b3 v=80
272160 On ch=1 n=a3 v=84
272160 On ch=1 n=a2 v=84
273120 Off ch=1 n=a2 v=80
273120 Off ch=1 n=e3 v=80
273120 Off ch=1 n=a3 v=80
273120 On ch=1 n=d5 v=61
273120 On ch=1 n=f#5 v=61
273600 Off ch=1 n=f#5 v=80
273600 Off ch=1 n=d5 v=80
273600 On ch=1 n=c#5 v=57
273600 On ch=1 n=e5 v=57
274080 Off ch=1 n=e5 v=80
274080 Off ch=1 n=c#5 v=80
274080 On ch=1 n=e5 v=53
274080 On ch=1 n=b4 v=53
274560 Off ch=1 n=b4 v=80
274560 On ch=1 n=a4 v=53
275040 Off ch=1 n=e5 v=80
275040 Off ch=1 n=a4 v=80
275040 On ch=1 n=d#5 v=53
275040 On ch=1 n=f#4 v=53
275520 Off ch=1 n=f#4 v=80
275520 Off ch=1 n=d#5 v=80
275520 On ch=1 n=e5 v=53
275520 On ch=1 n=e4 v=53
276000 Off ch=1 n=e4 v=80
276000 Off ch=1 n=e5 v=80
276000 On ch=1 n=d5 v=53
276000 On ch=1 n=f4 v=53
276480 Off ch=1 n=f4 v=80
276480 Off ch=1 n=d5 v=80
276480 On ch=1 n=c#5 v=53
276480 On ch=1 n=f#4 v=53
276960 Off ch=1 n=f#4 v=80
276960 Off ch=1 n=c#5 v=80
276960 On ch=1 n=b3 v=53
276960 On ch=1 n=b4 v=53
277200 Off ch=1 n=b4 v=80
277200 On ch=1 n=a4 v=53
277440 Off ch=1 n=b3 v=80
277440 Off ch=1 n=a4 v=80
277440 On ch=1 n=c#4 v=53
277440 On ch=1 n=g#4 v=53
277920 Off ch=1 n=g#4 v=80
277920 Off ch=1 n=c#4 v=80
277920 On ch=1 n=f4 v=53
277920 On ch=1 n=c#5 v=53
278400 Off ch=1 n=f4 v=80
278400 On ch=1 n=f#4 v=53
278880 Off ch=1 n=c#5 v=80
278880 Off ch=1 n=f#4 v=80
278880 On ch=1 n=b4 v=53
278880 On ch=1 n=b3 v=53
279120 Off ch=1 n=b4 v=80
279120 On ch=1 n=a4 v=53
279360 Off ch=1 n=b3 v=80
279360 Off ch=1 n=a4 v=80
279360 On ch=1 n=g#4 v=57
279360 On ch=1 n=c#4 v=57
279840 Off ch=1 n=c#4 v=80
279840 Off ch=1 n=g#4 v=80
279840 On ch=1 n=c#5 v=57
279840 On ch=1 n=f4 v=57
280320 Off ch=1 n=f4 v=80
280320 On ch=1 n=f#4 v=62
280800 Off ch=1 n=c#5 v=80
280800 Off ch=1 n=f#4 v=80
280800 On ch=1 n=d4 v=62
280800 On ch=1 n=d5 v=62
281040 Off ch=1 n=d5 v=80
281040 On ch=1 n=c#5 v=62
281280 Off ch=1 n=d4 v=80
281280 Off ch=1 n=c#5 v=80
281280 On ch=1 n=e4 v=66
281280 On ch=1 n=b4 v=66
281760 Off ch=1 n=b4 v=80
281760 Off ch=1 n=e4 v=80
281760 On ch=1 n=e5 v=66
281760 On ch=1 n=g#4 v=66
282240 Off ch=1 n=g#4 v=80
282240 On ch=1 n=a4 v=71
282720 Off ch=1 n=e5 v=80
282720 Off ch=1 n=a4 v=80
282720 On ch=1 n=f#4 v=71
282720 On ch=1 n=f#5 v=71
282960 Off ch=1 n=f#5 v=80
282960 On ch=1 n=e5 v=71
283200 Off ch=1 n=f#4 v=80
283200 Off ch=1 n=e5 v=80
283200 On ch=1 n=d#5 v=75
283200 On ch=1 n=g#4 v=75
283680 Off ch=1 n=g#4 v=80
283680 Off ch=1 n=d#5 v=80
283680 On ch=1 n=f4 v=75
283680 On ch=1 n=d5 v=75
284160 Off ch=1 n=d5 v=80
284160 Off ch=1 n=f4 v=80
284160 On ch=1 n=f#4 v=80
284160 On ch=1 n=c#5 v=80
284640 Off ch=1 n=c#5 v=80
284640 Off ch=1 n=f#4 v=80
284640 On ch=1 n=d#4 v=80
284640 On ch=1 n=c#5 v=80
284880 Off ch=1 n=c#5 v=80
284880 On ch=1 n=c5 v=80
285120 Off ch=1 n=d#4 v=80
285120 Off ch=1 n=c5 v=80
285120 On ch=1 n=b4 v=84
285120 On ch=1 n=e4 v=84
285600 Off ch=1 n=e4 v=80
285600 Off ch=1 n=b4 v=80
285600 On ch=1 n=a#4 v=84
285600 On ch=1 n=c#4 v=84
286080 Off ch=1 n=c#4 v=80
286080 Off ch=1 n=a#4 v=80
286080 On ch=1 n=d4 v=90
286080 On ch=1 n=a4 v=90
286560 Off ch=1 n=a4 v=80
286560 Off ch=1 n=d4 v=80
286560 On ch=1 n=a4 v=90
286560 On ch=1 n=b3 v=90
286800 Off ch=1 n=a4 v=80
286800 On ch=1 n=g#4 v=90
287040 Off ch=1 n=b3 v=80
287040 Off ch=1 n=g#4 v=80
287040 On ch=1 n=a4 v=90
287040 On ch=1 n=c#4 v=90
287520 Off ch=1 n=c#4 v=80
287520 Off ch=1 n=a4 v=80
287520 On ch=1 n=a4 v=90
287520 On ch=1 n=d4 v=90
288000 Off ch=1 n=d4 v=80
288000 Off ch=1 n=a4 v=80
288000 On ch=1 n=e4 v=90
288000 On ch=1 n=a4 v=90
288480 Off ch=1 n=a4 v=80
288480 Off ch=1 n=e4 v=80
288480 On ch=1 n=a4 v=102
288480 On ch=1 n=f#4 v=102
288720 Off ch=1 n=f#4 v=80
288720 Off ch=1 n=a4 v=80
288960 On ch=1 n=a4 v=114
288960 On ch=1 n=f#4 v=114
289200 Off ch=1 n=f#4 v=80
289200 Off ch=1 n=a4 v=80
289440 On ch=1 n=a4 v=102
289440 On ch=1 n=f#4 v=102
289680 Off ch=1 n=f#4 v=80
289680 Off ch=1 n=a4 v=80
289920 On ch=1 n=a4 v=90
289920 On ch=1 n=e4 v=90
290400 Off ch=1 n=e4 v=80
290400 Off ch=1 n=a4 v=80
290400 On ch=1 n=e4 v=117
290400 On ch=1 n=e3 v=117
290760 On ch=1 n=a2 v=114
290880 Off ch=1 n=e3 v=80
290880 Off ch=1 n=e4 v=80
291120 Off ch=1 n=a2 v=80
291240 On ch=1 n=e4 v=114
291360 Off ch=1 n=e4 v=80
291360 On ch=1 n=a4 v=78
291360 On ch=1 n=e5 v=78
291840 Off ch=1 n=e5 v=80
291840 Off ch=1 n=a4 v=80
291840 On ch=1 n=a3 v=86
292080 Off ch=1 n=a3 v=80
292200 On ch=1 n=e4 v=86
292320 On ch=1 n=a4 v=94
292320 On ch=1 n=e5 v=94
292800 Off ch=1 n=e5 v=80
292800 Off ch=1 n=a4 v=80
292800 Off ch=1 n=e4 v=80
292800 On ch=1 n=a3 v=102
293040 Off ch=1 n=a3 v=80
293160 On ch=1 n=e4 v=102
293160 On ch=1 n=g#4 v=102
293280 On ch=1 n=e5 v=110
293400 Off ch=1 n=g#4 v=80
293400 Off ch=1 n=e4 v=80
293520 On ch=1 n=a4 v=110
293520 On ch=1 n=f#4 v=110
293640 Off ch=1 n=f#4 v=80
293640 Off ch=1 n=a4 v=80
293760 On ch=1 n=g4 v=118
293760 On ch=1 n=a#4 v=118
293880 Off ch=1 n=a#4 v=80
293880 Off ch=1 n=g4 v=80
294000 On ch=1 n=g#4 v=118
294000 On ch=1 n=b4 v=118
294120 Off ch=1 n=b4 v=80
294120 Off ch=1 n=g#4 v=80
294180 On ch=1 n=a4 v=127
294180 On ch=1 n=c#5 v=127
294240 Off ch=1 n=e5 v=80
294240 On ch=1 n=e5 v=127
294360 Off ch=1 n=a4 v=80
294360 Off ch=1 n=c#5 v=80
294480 On ch=1 n=d5 v=127
294480 On ch=1 n=b4 v=127
294600 Off ch=1 n=b4 v=80
294600 Off ch=1 n=d5 v=80
294720 Off ch=1 n=e5 v=80
294720 On ch=1 n=a3 v=102
294960 Off ch=1 n=a3 v=80
295080 On ch=1 n=e4 v=102
295200 On ch=1 n=a4 v=117
295200 On ch=1 n=e5 v=117
295680 Off ch=1 n=e5 v=80
295680 Off ch=1 n=a4 v=80
295680 Off ch=1 n=e4 v=80
295680 On ch=1 n=b2 v=102
295920 Off ch=1 n=b2 v=80
296040 On ch=1 n=f#4 v=102
296160 On ch=1 n=a4 v=117
296160 On ch=1 n=d#5 v=117
296640 Off ch=1 n=d#5 v=80
296640 Off ch=1 n=a4 v=80
296640 Off ch=1 n=f#4 v=80
296640 On ch=1 n=e3 v=102
296880 Off ch=1 n=e3 v=80
297000 On ch=1 n=e4 v=102
297120 On ch=1 n=e5 v=117
297120 On ch=1 n=c#5 v=117
297600 Off ch=1 n=c#5 v=80
297600 Off ch=1 n=e5 v=80
297600 Off ch=1 n=e4 v=80
297600 On ch=1 n=e3 v=102
297840 Off ch=1 n=e3 v=80
297960 On ch=1 n=e4 v=102
298080 On ch=1 n=e5 v=117
298080 On ch=1 n=d5 v=117
298560 Off ch=1 n=d5 v=80
298560 Off ch=1 n=e5 v=80
298560 Off ch=1 n=e4 v=80
298560 On ch=1 n=a3 v=102
298800 Off ch=1 n=a3 v=80
298920 On ch=1 n=e4 v=102
299040 On ch=1 n=a4 v=102
299040 On ch=1 n=e5 v=102
299520 Off ch=1 n=e5 v=80
299520 Off ch=1 n=a4 v=80
299520 Off ch=1 n=e4 v=80
299520 On ch=1 n=a3 v=86
299760 Off ch=1 n=a3 v=80
299880 On ch=1 n=e4 v=86
300000 On ch=1 n=a4 v=94
300000 On ch=1 n=e5 v=94
300480 Off ch=1 n=e5 v=80
300480 Off ch=1 n=a4 v=80
300480 Off ch=1 n=e4 v=80
300480 On ch=1 n=a3 v=102
300720 Off ch=1 n=a3 v=80
300840 On ch=1 n=e4 v=102
300840 On ch=1 n=g#4 v=102
300960 On ch=1 n=e5 v=110
301080 Off ch=1 n=g#4 v=80
301080 Off ch=1 n=e4 v=80
301200 On ch=1 n=a4 v=110
301200 On ch=1 n=f#4 v=110
301320 Off ch=1 n=f#4 v=80
301320 Off ch=1 n=a4 v=80
301440 On ch=1 n=g4 v=118
301440 On ch=1 n=a#4 v=118
301560 Off ch=1 n=a#4 v=80
301560 Off ch=1 n=g4 v=80
301680 On ch=1 n=g#4 v=118
301680 On ch=1 n=b4 v=118
301800 Off ch=1 n=b4 v=80
301800 Off ch=1 n=g#4 v=80
301860 On ch=1 n=a4 v=127
301860 On ch=1 n=c#5 v=127
301920 Off ch=1 n=e5 v=80
301920 On ch=1 n=e5 v=127
302040 Off ch=1 n=a4 v=80
302040 Off ch=1 n=c#5 v=80
302160 On ch=1 n=d5 v=127
302160 On ch=1 n=b4 v=127
302280 Off ch=1 n=b4 v=80
302280 Off ch=1 n=d5 v=80
302400 Off ch=1 n=e5 v=80
302400 On ch=1 n=a3 v=102
302640 Off ch=1 n=a3 v=80
302760 On ch=1 n=e4 v=102
302880 On ch=1 n=a4 v=117
302880 On ch=1 n=e5 v=117
303360 Off ch=1 n=e5 v=80
303360 Off ch=1 n=a4 v=80
303360 Off ch=1 n=e4 v=80
303360 On ch=1 n=b2 v=102
303600 Off ch=1 n=b2 v=80
303720 On ch=1 n=f#4 v=102
303840 On ch=1 n=a4 v=117
303840 On ch=1 n=d#5 v=117
304320 Off ch=1 n=d#5 v=80
304320 Off ch=1 n=a4 v=80
304320 Off ch=1 n=f#4 v=80
304320 On ch=1 n=e3 v=102
304560 Off ch=1 n=e3 v=80
304680 On ch=1 n=e4 v=102
304800 On ch=1 n=e5 v=117
304800 On ch=1 n=c#5 v=117
305280 Off ch=1 n=c#5 v=80
305280 Off ch=1 n=e5 v=80
305280 Off ch=1 n=e4 v=80
305280 On ch=1 n=e3 v=102
305520 Off ch=1 n=e3 v=80
305640 On ch=1 n=e4 v=102
305760 On ch=1 n=e5 v=117
305760 On ch=1 n=d5 v=117
306240 Off ch=1 n=d5 v=80
306240 Off ch=1 n=e5 v=80
306240 Off ch=1 n=e4 v=80
306240 On ch=1 n=a3 v=102
306480 Off ch=1 n=a3 v=80
306600 On ch=1 n=e4 v=102
306720 On ch=1 n=a4 v=102
306720 On ch=1 n=e5 v=102
307200 Off ch=1 n=e5 v=80
307200 Off ch=1 n=a4 v=80
307200 Off ch=1 n=e4 v=80
307200 On ch=1 n=f#3 v=86
307440 Off ch=1 n=f#3 v=80
307560 On ch=1 n=f#4 v=86
307680 On ch=1 n=c#5 v=94
307680 On ch=1 n=d#5 v=94
308160 Off ch=1 n=d#5 v=80
308160 Off ch=1 n=c#5 v=80
308160 Off ch=1 n=f#4 v=80
308160 On ch=1 n=e3 v=102
308400 Off ch=1 n=e3 v=80
308520 On ch=1 n=e4 v=102
308640 On ch=1 n=e5 v=117
308640 On ch=1 n=c#5 v=117
309120 Off ch=1 n=c#5 v=80
309120 Off ch=1 n=e5 v=80
309120 Off ch=1 n=e4 v=80
309120 On ch=1 n=e3 v=102
309360 Off ch=1 n=e3 v=80
309480 On ch=1 n=e4 v=102
309600 On ch=1 n=b4 v=117
309600 On ch=1 n=e5 v=117
309600 On ch=1 n=d5 v=117
310080 Off ch=1 n=d5 v=80
310080 Off ch=1 n=e5 v=80
310080 Off ch=1 n=b4 v=80
310080 Off ch=1 n=e4 v=80
310080 On ch=1 n=a3 v=102
310320 Off ch=1 n=a3 v=80
310440 On ch=1 n=e4 v=102
310560 On ch=1 n=a4 v=93
310560 On ch=1 n=e5 v=93
311040 Off ch=1 n=e5 v=80
311040 Off ch=1 n=a4 v=80
311040 Off ch=1 n=e4 v=80
311040 On ch=1 n=f#3 v=86
311280 Off ch=1 n=f#3 v=80
311400 On ch=1 n=f#4 v=86
311520 On ch=1 n=c#5 v=109
311520 On ch=1 n=d#5 v=109
312000 Off ch=1 n=d#5 v=80
312000 Off ch=1 n=c#5 v=80
312000 Off ch=1 n=f#4 v=80
312000 On ch=1 n=e3 v=102
312240 Off ch=1 n=e3 v=80
312360 On ch=1 n=e4 v=102
312480 On ch=1 n=e5 v=117
312480 On ch=1 n=c#5 v=117
312960 Off ch=1 n=c#5 v=80
312960 Off ch=1 n=e5 v=80
312960 Off ch=1 n=e4 v=80
312960 On ch=1 n=e3 v=118
313200 Off ch=1 n=e3 v=80
313320 On ch=1 n=e4 v=118
313440 On ch=1 n=b4 v=127
313440 On ch=1 n=e5 v=127
313440 On ch=1 n=d5 v=127
313920 Off ch=1 n=d5 v=80
313920 Off ch=1 n=e5 v=80
313920 Off ch=1 n=b4 v=80
313920 Off ch=1 n=e4 v=80
313920 On ch=1 n=a3 v=127
314400 Off ch=1 n=a3 v=80
314400 On ch=1 n=f#5 v=120
314400 On ch=1 n=a5 v=120
314400 On ch=1 n=d5 v=120
314880 Off ch=1 n=d5 v=80
314880 Off ch=1 n=f#5 v=80
314880 On ch=1 n=e5 v=102
314880 On ch=1 n=c#5 v=102
315360 Off ch=1 n=c#5 v=80
315360 Off ch=1 n=a5 v=80
315360 Off ch=1 n=e5 v=80
315360 On ch=1 n=b4 v=97
315360 On ch=1 n=e5 v=97
315840 Off ch=1 n=b4 v=80
315840 On ch=1 n=a4 v=92
316320 Off ch=1 n=e5 v=80
316320 Off ch=1 n=a4 v=80
316320 On ch=1 n=g4 v=87
316320 On ch=1 n=c#5 v=87
316800 Off ch=1 n=c#5 v=80
316800 Off ch=1 n=g4 v=80
316800 On ch=1 n=d5 v=82
316800 On ch=1 n=f#4 v=82
317280 Off ch=1 n=f#4 v=80
317280 Off ch=1 n=d5 v=80
317280 On ch=1 n=b4 v=78
317280 On ch=1 n=f4 v=78
317760 Off ch=1 n=f4 v=80
317760 Off ch=1 n=b4 v=80
317760 On ch=1 n=a4 v=78
317760 On ch=1 n=e4 v=78
318240 Off ch=1 n=e4 v=80
318240 Off ch=1 n=a4 v=80
318240 On ch=1 n=d4 v=98
318240 On ch=1 n=a4 v=98
318240 On ch=1 n=a3 v=98
318720 Off ch=1 n=d4 v=80
318720 On ch=1 n=c#4 v=78
319200 Off ch=1 n=a4 v=80
319200 Off ch=1 n=a3 v=80
319200 Off ch=1 n=c#4 v=80
319200 On ch=1 n=b3 v=78
319200 On ch=1 n=e4 v=78
319680 Off ch=1 n=b3 v=80
319680 On ch=1 n=a3 v=74
320160 Off ch=1 n=e4 v=80
320160 Off ch=1 n=a3 v=80
320160 On ch=1 n=g3 v=74
320160 On ch=1 n=c#4 v=74
320640 Off ch=1 n=c#4 v=80
320640 Off ch=1 n=g3 v=80
320640 On ch=1 n=f#3 v=70
320640 On ch=1 n=d4 v=70
321120 Off ch=1 n=d4 v=80
321120 Off ch=1 n=f#3 v=80
321120 On ch=1 n=b3 v=70
321120 On ch=1 n=f3 v=70
321600 Off ch=1 n=f3 v=80
321600 Off ch=1 n=b3 v=80
321600 On ch=1 n=a3 v=65
321600 On ch=1 n=e3 v=65
321600 On ch=1 n=a2 v=65
322080 Off ch=1 n=a2 v=80
322080 Off ch=1 n=e3 v=80
322080 Off ch=1 n=a3 v=80
322080 On ch=1 n=f#4 v=65
322080 On ch=1 n=d4 v=65
322560 Off ch=1 n=d4 v=80
322560 Off ch=1 n=f#4 v=80
322560 On ch=1 n=e4 v=65
322560 On ch=1 n=c#4 v=65
323040 Off ch=1 n=c#4 v=80
323040 Off ch=1 n=e4 v=80
323040 On ch=1 n=d#4 v=65
323040 On ch=1 n=c4 v=65
323520 Off ch=1 n=c4 v=80
323520 Off ch=1 n=d#4 v=80
323520 On ch=1 n=e4 v=65
323520 On ch=1 n=b3 v=65
324000 Off ch=1 n=e4 v=80
324000 On ch=1 n=f#4 v=68
324480 Off ch=1 n=f#4 v=80
325440 On ch=1 n=e3 v=53
325440 On ch=1 n=a2 v=53
326400 Off ch=1 n=b3 v=80
327840 Off ch=1 n=e3 v=80
327840 Off ch=1 n=a2 v=80
327840 Meta TrkEnd
TrkEnd
MTrk
0 Meta TrkName "Pedal"
0 Meta 0x21 00
0 Meta 0x20 00
0 Par ch=1 c=10 v=64
0 PrCh ch=1 p=0
7680 Par ch=1 c=64 v=127
8760 Par ch=1 c=64 v=0
8880 Par ch=1 c=64 v=127
9560 Par ch=1 c=64 v=0
9600 Par ch=1 c=64 v=127
10790 Par ch=1 c=64 v=0
15300 Par ch=1 c=64 v=127
16800 Par ch=1 c=64 v=0
30720 Par ch=1 c=64 v=127
32160 Par ch=1 c=64 v=0
37440 Par ch=1 c=64 v=127
38360 Par ch=1 c=64 v=0
46080 Par ch=1 c=64 v=127
48240 Par ch=1 c=64 v=0
48480 Par ch=1 c=64 v=127
49880 Par ch=1 c=64 v=0
49920 Par ch=1 c=64 v=127
50840 Par ch=1 c=64 v=0
50880 Par ch=1 c=64 v=127
51800 Par ch=1 c=64 v=0
51840 Par ch=1 c=64 v=127
53720 Par ch=1 c=64 v=0
53760 Par ch=1 c=64 v=127
54200 Par ch=1 c=64 v=0
54240 Par ch=1 c=64 v=127
55640 Par ch=1 c=64 v=0
60480 Par ch=1 c=64 v=127
61400 Par ch=1 c=64 v=0
69000 Par ch=1 c=64 v=127
70560 Par ch=1 c=64 v=0
71040 Par ch=1 c=64 v=127
72480 Par ch=1 c=64 v=0
76680 Par ch=1 c=64 v=127
78240 Par ch=1 c=64 v=0
78720 Par ch=1 c=64 v=127
80160 Par ch=1 c=64 v=0
83520 Par ch=1 c=64 v=127
84440 Par ch=1 c=64 v=0
84480 Par ch=1 c=64 v=127
85400 Par ch=1 c=64 v=0
85440 Par ch=1 c=64 v=127
86360 Par ch=1 c=64 v=0
87360 Par ch=1 c=64 v=127
88280 Par ch=1 c=64 v=0
88320 Par ch=1 c=64 v=127
89240 Par ch=1 c=64 v=0
89280 Par ch=1 c=64 v=127
90200 Par ch=1 c=64 v=0
90240 Par ch=1 c=64 v=127
91160 Par ch=1 c=64 v=0
91200 Par ch=1 c=64 v=127
92120 Par ch=1 c=64 v=0
92160 Par ch=1 c=64 v=127
94040 Par ch=1 c=64 v=0
94080 Par ch=1 c=64 v=127
95960 Par ch=1 c=64 v=0
96000 Par ch=1 c=64 v=127
96920 Par ch=1 c=64 v=0
97920 Par ch=1 c=64 v=127
99800 Par ch=1 c=64 v=0
99840 Par ch=1 c=64 v=127
101720 Par ch=1 c=64 v=0
101760 Par ch=1 c=64 v=127
103640 Par ch=1 c=64 v=0
103680 Par ch=1 c=64 v=127
104630 Par ch=1 c=64 v=0
104640 Par ch=1 c=64 v=127
105560 Par ch=1 c=64 v=0
105600 Par ch=1 c=64 v=127
107480 Par ch=1 c=64 v=0
107520 Par ch=1 c=64 v=127
109400 Par ch=1 c=64 v=0
109440 Par ch=1 c=64 v=127
111320 Par ch=1 c=64 v=0
111360 Par ch=1 c=64 v=127
113240 Par ch=1 c=64 v=0
113280 Par ch=1 c=64 v=127
114200 Par ch=1 c=64 v=0
114240 Par ch=1 c=64 v=127
115160 Par ch=1 c=64 v=0
115200 Par ch=1 c=64 v=127
117080 Par ch=1 c=64 v=0
117120 Par ch=1 c=64 v=127
119000 Par ch=1 c=64 v=0
119040 Par ch=1 c=64 v=127
119960 Par ch=1 c=64 v=0
120960 Par ch=1 c=64 v=127
122840 Par ch=1 c=64 v=0
122880 Par ch=1 c=64 v=127
124760 Par ch=1 c=64 v=0
124800 Par ch=1 c=64 v=127
126680 Par ch=1 c=64 v=0
126720 Par ch=1 c=64 v=127
127675 Par ch=1 c=64 v=0
127680 Par ch=1 c=64 v=127
128600 Par ch=1 c=64 v=0
128640 Par ch=1 c=64 v=127
130520 Par ch=1 c=64 v=0
130560 Par ch=1 c=64 v=127
132920 Par ch=1 c=64 v=0
133440 Par ch=1 c=64 v=127
134360 Par ch=1 c=64 v=0
134640 Par ch=1 c=64 v=127
136280 Par ch=1 c=64 v=0
136320 Par ch=1 c=64 v=127
138680 Par ch=1 c=64 v=0
139200 Par ch=1 c=64 v=127
140120 Par ch=1 c=64 v=0
140160 Par ch=1 c=64 v=127
142040 Par ch=1 c=64 v=0
142080 Par ch=1 c=64 v=127
143960 Par ch=1 c=64 v=0
144000 Par ch=1 c=64 v=127
145880 Par ch=1 c=64 v=0
145920 Par ch=1 c=64 v=127
147800 Par ch=1 c=64 v=0
148320 Par ch=1 c=64 v=127
149720 Par ch=1 c=64 v=0
150240 Par ch=1 c=64 v=127
151640 Par ch=1 c=64 v=0
152160 Par ch=1 c=64 v=127
153560 Par ch=1 c=64 v=0
154080 Par ch=1 c=64 v=127
155960 Par ch=1 c=64 v=0
168000 Par ch=1 c=64 v=127
168920 Par ch=1 c=64 v=0
168960 Par ch=1 c=64 v=127
169880 Par ch=1 c=64 v=0
169920 Par ch=1 c=64 v=127
170840 Par ch=1 c=64 v=0
171840 Par ch=1 c=64 v=127
172760 Par ch=1 c=64 v=0
172800 Par ch=1 c=64 v=127
173720 Par ch=1 c=64 v=0
173760 Par ch=1 c=64 v=127
174680 Par ch=1 c=64 v=0
174720 Par ch=1 c=64 v=127
175640 Par ch=1 c=64 v=0
175680 Par ch=1 c=64 v=127
176600 Par ch=1 c=64 v=0
176640 Par ch=1 c=64 v=127
178520 Par ch=1 c=64 v=0
178560 Par ch=1 c=64 v=127
180440 Par ch=1 c=64 v=0
180480 Par ch=1 c=64 v=127
181400 Par ch=1 c=64 v=0
182400 Par ch=1 c=64 v=127
184280 Par ch=1 c=64 v=0
184320 Par ch=1 c=64 v=127
186200 Par ch=1 c=64 v=0
186240 Par ch=1 c=64 v=127
188120 Par ch=1 c=64 v=0
188160 Par ch=1 c=64 v=127
189110 Par ch=1 c=64 v=0
189120 Par ch=1 c=64 v=127
190040 Par ch=1 c=64 v=0
190080 Par ch=1 c=64 v=127
191960 Par ch=1 c=64 v=0
192000 Par ch=1 c=64 v=127
193880 Par ch=1 c=64 v=0
193920 Par ch=1 c=64 v=127
195800 Par ch=1 c=64 v=0
195840 Par ch=1 c=64 v=127
197720 Par ch=1 c=64 v=0
197760 Par ch=1 c=64 v=127
198680 Par ch=1 c=64 v=0
198720 Par ch=1 c=64 v=127
199640 Par ch=1 c=64 v=0
199680 Par ch=1 c=64 v=127
201560 Par ch=1 c=64 v=0
201600 Par ch=1 c=64 v=127
203480 Par ch=1 c=64 v=0
203520 Par ch=1 c=64 v=127
204440 Par ch=1 c=64 v=0
205440 Par ch=1 c=64 v=127
207320 Par ch=1 c=64 v=0
207360 Par ch=1 c=64 v=127
209240 Par ch=1 c=64 v=0
209280 Par ch=1 c=64 v=127
211160 Par ch=1 c=64 v=0
211200 Par ch=1 c=64 v=127
212155 Par ch=1 c=64 v=0
212160 Par ch=1 c=64 v=127
213080 Par ch=1 c=64 v=0
213120 Par ch=1 c=64 v=127
215000 Par ch=1 c=64 v=0
217920 Par ch=1 c=64 v=127
218840 Par ch=1 c=64 v=0
219120 Par ch=1 c=64 v=127
220760 Par ch=1 c=64 v=0
223680 Par ch=1 c=64 v=127
224600 Par ch=1 c=64 v=0
224640 Par ch=1 c=64 v=127
226520 Par ch=1 c=64 v=0
226560 Par ch=1 c=64 v=127
228440 Par ch=1 c=64 v=0
228480 Par ch=1 c=64 v=127
230360 Par ch=1 c=64 v=0
230400 Par ch=1 c=64 v=127
232280 Par ch=1 c=64 v=0
232800 Par ch=1 c=64 v=127
234200 Par ch=1 c=64 v=0
234720 Par ch=1 c=64 v=127
236120 Par ch=1 c=64 v=0
236640 Par ch=1 c=64 v=127
238040 Par ch=1 c=64 v=0
238560 Par ch=1 c=64 v=127
239520 Par ch=1 c=64 v=0
253440 Par ch=1 c=64 v=127
255320 Par ch=1 c=64 v=0
255360 Par ch=1 c=64 v=127
257240 Par ch=1 c=64 v=0
272640 Par ch=1 c=64 v=127
274080 Par ch=1 c=64 v=0
279360 Par ch=1 c=64 v=127
280280 Par ch=1 c=64 v=0
290760 Par ch=1 c=64 v=127
292760 Par ch=1 c=64 v=0
292800 Par ch=1 c=64 v=127
294480 Par ch=1 c=64 v=0
294720 Par ch=1 c=64 v=127
296600 Par ch=1 c=64 v=0
296640 Par ch=1 c=64 v=127
298520 Par ch=1 c=64 v=0
298560 Par ch=1 c=64 v=127
300440 Par ch=1 c=64 v=0
300480 Par ch=1 c=64 v=127
302160 Par ch=1 c=64 v=0
302400 Par ch=1 c=64 v=127
304280 Par ch=1 c=64 v=0
304320 Par ch=1 c=64 v=127
306200 Par ch=1 c=64 v=0
306720 Par ch=1 c=64 v=127
308120 Par ch=1 c=64 v=0
308160 Par ch=1 c=64 v=127
309080 Par ch=1 c=64 v=0
309120 Par ch=1 c=64 v=127
310420 Par ch=1 c=64 v=0
310560 Par ch=1 c=64 v=127
311960 Par ch=1 c=64 v=0
312000 Par ch=1 c=64 v=127
313920 Par ch=1 c=64 v=0
325440 Par ch=1 c=64 v=127
327320 Par ch=1 c=64 v=0
327320 Meta TrkEnd
TrkEnd
