MFile 1 4 480
MTrk
0 Tempo 194805
0 TimeSig 3/4 24 8
0 KeySig 0 major
2880 Tempo 172413
18720 Tempo 185758
20160 Tempo 194805
21120 Tempo 212014
21600 Tempo 223880
23040 Tempo 263157
23520 Tempo 188679
25920 Tempo 172413
37920 Tempo 167597
41760 Tempo 198019
43200 Tempo 237154
44160 Tempo 246913
44640 Tempo 319148
46080 Tempo 508474
46560 Tempo 232558
47520 Tempo 215827
48480 Tempo 172413
55200 Tempo 172413
56640 Tempo 182926
58080 Tempo 208333
60000 Tempo 172413
68160 Tempo 182926
69600 Tempo 241935
70560 Tempo 215827
71520 Tempo 172413
81120 Tempo 208333
83040 Tempo 172413
92160 Tempo 201342
93600 Tempo 172413
101280 Tempo 167597
104640 Tempo 172413
115680 Tempo 223880
116640 Tempo 208333
117600 Tempo 172413
133920 Tempo 198019
135360 Tempo 198019
136320 Tempo 246913
136800 Tempo 275229
138240 Tempo 508474
138720 Tempo 252100
139680 Tempo 172413
146880 Tempo 167597
149280 Tempo 177514
150240 Tempo 188679
151200 Tempo 172413
159840 Tempo 204778
161760 Tempo 223880
162720 Tempo 208333
163680 Tempo 194805
165600 Tempo 172413
180000 Tempo 198019
181440 Tempo 237154
182400 Tempo 246913
182880 Tempo 368098
184320 Tempo 722891
184800 Tempo 357142
185280 Tempo 252100
186240 Tempo 182926
189120 Tempo 177514
190080 Tempo 194805
191040 Tempo 232558
192000 Tempo 177514
196800 Tempo 223880
197760 Tempo 177514
201600 Tempo 266666
202560 Tempo 201342
204000 Tempo 188679
205440 Tempo 194805
210240 Tempo 172413
211680 Tempo 177514
226080 Tempo 198019
227520 Tempo 237154
228480 Tempo 246913
228960 Tempo 508474
230400 Tempo 1132075
230880 Tempo 612244
231840 Tempo 300000
234720 Tempo 255319
236160 Tempo 279069
239040 Tempo 260869
240480 Tempo 279069
243360 Tempo 300000
246240 Tempo 255319
247680 Tempo 272727
250560 Tempo 285714
252000 Tempo 315789
253440 Tempo 333333
253920 Tempo 461538
254640 Tempo 666666
254880 Tempo 300000
255840 Tempo 285714
256320 Tempo 266666
257760 Tempo 260869
259200 Tempo 272727
266400 Tempo 285714
269280 Tempo 255319
270720 Tempo 279069
275040 Tempo 315789
276480 Tempo 375000
277440 Tempo 600000
277680 Tempo 279069
278640 Tempo 266666
280800 Tempo 279069
282240 Tempo 279069
285120 Tempo 285714
285840 Tempo 279069
286560 Tempo 315789
288000 Tempo 285714
290160 Tempo 285714
290880 Tempo 266666
291840 Tempo 279069
293760 Tempo 300000
296640 Tempo 324324
298080 Tempo 363636
300000 Tempo 413793
300480 Tempo 705882
300720 Tempo 1500000
300960 Tempo 300000
303840 Tempo 266666
305280 Tempo 279069
308160 Tempo 260869
309600 Tempo 279069
315360 Tempo 255319
316800 Tempo 324324
317760 Tempo 363636
319200 Tempo 387096
319680 Tempo 400000
320400 Tempo 461538
321120 Tempo 545454
322560 Tempo 1090909
323520 Tempo 263157
324000 Tempo 194805
325440 Tempo 172413
326880 Tempo 177514
341280 Tempo 198019
342720 Tempo 237154
343680 Tempo 246913
344160 Tempo 508474
345600 Tempo 1395348
346080 Tempo 288461
347520 Tempo 182926
351360 Tempo 194805
353280 Tempo 177514
358080 Tempo 194805
359040 Tempo 177514
362880 Tempo 266666
363840 Tempo 201342
365280 Tempo 188679
366720 Tempo 194805
371520 Tempo 182926
383040 Tempo 188679
383520 Tempo 177514
384960 Tempo 172413
386400 Tempo 188679
387360 Tempo 212014
388800 Tempo 257510
389760 Tempo 269058
390240 Tempo 451127
391680 Tempo 952380
391680 Meta TrkEnd
TrkEnd
MTrk
0 Meta TrkName "Piano Right Hand"
0 Meta 0x21 00
0 Meta 0x20 00
0 Par ch=1 c=10 v=64
0 PrCh ch=1 p=0
960 On ch=1 n=b3 v=102
960 On ch=1 n=b4 v=102
1320 Off ch=1 n=b4 v=80
1320 Off ch=1 n=b3 v=80
1440 On ch=1 n=e5 v=102
1440 On ch=1 n=e4 v=102
1800 Off ch=1 n=e4 v=80
1800 Off ch=1 n=e5 v=80
1920 On ch=1 n=g#5 v=102
1920 On ch=1 n=g#4 v=102
2280 Off ch=1 n=g#4 v=80
2280 Off ch=1 n=g#5 v=80
2400 On ch=1 n=c#6 v=102
2400 On ch=1 n=c#5 v=102
2760 Off ch=1 n=c#5 v=80
2760 Off ch=1 n=c#6 v=80
2880 On ch=1 n=b4 v=102
2880 On ch=1 n=b5 v=102
3240 Off ch=1 n=b5 v=80
3240 Off ch=1 n=b4 v=80
3360 On ch=1 n=f#4 v=106
3360 On ch=1 n=f#5 v=106
3720 Off ch=1 n=f#5 v=80
3720 Off ch=1 n=f#4 v=80
3840 On ch=1 n=g#4 v=110
3840 On ch=1 n=g#5 v=110
4200 Off ch=1 n=g#5 v=80
4200 Off ch=1 n=g#4 v=80
4320 On ch=1 n=a4 v=114
4320 On ch=1 n=a5 v=114
4680 Off ch=1 n=a5 v=80
4680 Off ch=1 n=a4 v=80
4800 On ch=1 n=c#5 v=118
4800 On ch=1 n=c#6 v=118
5160 Off ch=1 n=c#6 v=80
5160 Off ch=1 n=c#5 v=80
5280 On ch=1 n=e6 v=122
5280 On ch=1 n=e5 v=122
5640 Off ch=1 n=e5 v=80
5640 Off ch=1 n=e6 v=80
5760 On ch=1 n=a6 v=102
5760 On ch=1 n=a5 v=102
6720 Off ch=1 n=a5 v=80
6720 Off ch=1 n=a6 v=80
6720 On ch=1 n=g#6 v=102
6720 On ch=1 n=d6 v=102
6720 On ch=1 n=g#5 v=102
7200 Off ch=1 n=g#5 v=80
7200 Off ch=1 n=d6 v=80
7200 Off ch=1 n=g#6 v=80
7200 On ch=1 n=g#6 v=127
7200 On ch=1 n=g#5 v=127
7200 On ch=1 n=c#6 v=127
8640 Off ch=1 n=g#5 v=80
8640 Off ch=1 n=g#6 v=80
8640 On ch=1 n=f#6 v=102
8640 On ch=1 n=f#5 v=102
9600 Off ch=1 n=f#5 v=80
9600 Off ch=1 n=c#6 v=80
9600 Off ch=1 n=f#6 v=80
9600 On ch=1 n=e6 v=102
9600 On ch=1 n=c#6 v=102
9600 On ch=1 n=e5 v=102
10080 Off ch=1 n=e5 v=80
10080 Off ch=1 n=c#6 v=80
10080 Off ch=1 n=e6 v=80
10080 On ch=1 n=b5 v=90
10080 On ch=1 n=d#6 v=90
10080 On ch=1 n=d#5 v=90
11040 Off ch=1 n=d#6 v=80
11040 Off ch=1 n=b5 v=80
11040 On ch=1 n=c#6 v=93
11040 On ch=1 n=a5 v=93
12000 Off ch=1 n=a5 v=80
12000 Off ch=1 n=c#6 v=80
12000 On ch=1 n=g#5 v=96
12000 On ch=1 n=b5 v=96
12360 Off ch=1 n=b5 v=80
12360 Off ch=1 n=g#5 v=80
12480 Off ch=1 n=d#5 v=80
12480 On ch=1 n=a5 v=99
12480 On ch=1 n=f#5 v=99
12480 On ch=1 n=a4 v=99
12840 Off ch=1 n=a4 v=80
12840 Off ch=1 n=f#5 v=80
12840 Off ch=1 n=a5 v=80
12960 On ch=1 n=g#4 v=102
12960 On ch=1 n=g#5 v=102
13320 Off ch=1 n=g#5 v=80
13320 Off ch=1 n=g#4 v=80
13440 On ch=1 n=b4 v=102
13440 On ch=1 n=b5 v=102
13800 Off ch=1 n=b5 v=80
13800 Off ch=1 n=b4 v=80
13920 On ch=1 n=f#6 v=102
13920 On ch=1 n=f#5 v=102
14280 Off ch=1 n=f#5 v=80
14280 Off ch=1 n=f#6 v=80
14400 On ch=1 n=e5 v=102
14400 On ch=1 n=e6 v=102
14760 Off ch=1 n=e6 v=80
14760 Off ch=1 n=e5 v=80
14880 On ch=1 n=f#5 v=90
14880 On ch=1 n=f#4 v=90
15120 Off ch=1 n=f#4 v=80
15120 Off ch=1 n=f#5 v=80
15360 On ch=1 n=g#5 v=90
15360 On ch=1 n=g#4 v=90
15600 Off ch=1 n=g#4 v=80
15600 Off ch=1 n=g#5 v=80
15840 On ch=1 n=a5 v=90
15840 On ch=1 n=a4 v=90
16080 Off ch=1 n=a4 v=80
16080 Off ch=1 n=a5 v=80
16320 On ch=1 n=e5 v=78
16320 On ch=1 n=e4 v=78
16560 Off ch=1 n=e4 v=80
16560 Off ch=1 n=e5 v=80
16800 On ch=1 n=f#5 v=78
16800 On ch=1 n=f#4 v=78
17040 Off ch=1 n=f#4 v=80
17040 Off ch=1 n=f#5 v=80
17280 On ch=1 n=g5 v=78
17280 On ch=1 n=g4 v=78
17520 Off ch=1 n=g4 v=80
17520 Off ch=1 n=g5 v=80
17760 On ch=1 n=d5 v=78
17760 On ch=1 n=d4 v=78
18000 Off ch=1 n=d4 v=80
18000 Off ch=1 n=d5 v=80
18240 On ch=1 n=e5 v=78
18240 On ch=1 n=e4 v=78
18480 Off ch=1 n=e4 v=80
18480 Off ch=1 n=e5 v=80
18720 On ch=1 n=f5 v=85
18720 On ch=1 n=f4 v=85
19080 Off ch=1 n=f4 v=80
19080 Off ch=1 n=f5 v=80
19200 On ch=1 n=a4 v=92
19200 On ch=1 n=a5 v=92
19560 Off ch=1 n=a5 v=80
19560 Off ch=1 n=a4 v=80
19680 On ch=1 n=c6 v=99
19680 On ch=1 n=c5 v=99
20040 Off ch=1 n=c5 v=80
20040 Off ch=1 n=c6 v=80
20160 On ch=1 n=f5 v=106
20160 On ch=1 n=f6 v=106
20520 Off ch=1 n=f6 v=80
20520 Off ch=1 n=f5 v=80
20640 On ch=1 n=a6 v=113
20640 On ch=1 n=a5 v=113
21000 Off ch=1 n=a5 v=80
21000 Off ch=1 n=a6 v=80
21120 On ch=1 n=c6 v=120
21120 On ch=1 n=c7 v=120
21480 Off ch=1 n=c7 v=80
21480 Off ch=1 n=c6 v=80
21600 On ch=1 n=f#6 v=127
21600 On ch=1 n=d#6 v=127
21600 On ch=1 n=b5 v=127
21600 On ch=1 n=a5 v=127
21600 On ch=1 n=b6 v=127
23040 Off ch=1 n=a5 v=80
23040 Off ch=1 n=b5 v=80
23040 Off ch=1 n=d#6 v=80
23040 Off ch=1 n=f#6 v=80
23040 On ch=1 n=e6 v=102
23040 On ch=1 n=g#5 v=102
23520 Off ch=1 n=g#5 v=80
23520 Off ch=1 n=b6 v=80
23520 Off ch=1 n=e6 v=80
24000 On ch=1 n=b4 v=102
24000 On ch=1 n=b3 v=102
24360 Off ch=1 n=b3 v=80
24360 Off ch=1 n=b4 v=80
24480 On ch=1 n=e5 v=102
24480 On ch=1 n=e4 v=102
24840 Off ch=1 n=e4 v=80
24840 Off ch=1 n=e5 v=80
24960 On ch=1 n=g#5 v=102
24960 On ch=1 n=g#4 v=102
25320 Off ch=1 n=g#4 v=80
25320 Off ch=1 n=g#5 v=80
25440 On ch=1 n=c#6 v=102
25440 On ch=1 n=c#5 v=102
25800 Off ch=1 n=c#5 v=80
25800 Off ch=1 n=c#6 v=80
25920 On ch=1 n=b4 v=102
25920 On ch=1 n=b5 v=102
26280 Off ch=1 n=b5 v=80
26280 Off ch=1 n=b4 v=80
26400 On ch=1 n=f#5 v=106
26400 On ch=1 n=f#4 v=106
26760 Off ch=1 n=f#4 v=80
26760 Off ch=1 n=f#5 v=80
26880 On ch=1 n=g#5 v=110
26880 On ch=1 n=g#4 v=110
27240 Off ch=1 n=g#4 v=80
27240 Off ch=1 n=g#5 v=80
27360 On ch=1 n=a5 v=114
27360 On ch=1 n=a4 v=114
27720 Off ch=1 n=a4 v=80
27720 Off ch=1 n=a5 v=80
27840 On ch=1 n=c#5 v=118
27840 On ch=1 n=c#6 v=118
28200 Off ch=1 n=c#6 v=80
28200 Off ch=1 n=c#5 v=80
28320 On ch=1 n=e6 v=122
28320 On ch=1 n=e5 v=122
28680 Off ch=1 n=e5 v=80
28680 Off ch=1 n=e6 v=80
28800 On ch=1 n=a6 v=102
28800 On ch=1 n=a5 v=102
29760 Off ch=1 n=a5 v=80
29760 Off ch=1 n=a6 v=80
29760 On ch=1 n=g#6 v=102
29760 On ch=1 n=d6 v=102
29760 On ch=1 n=g#5 v=102
30240 Off ch=1 n=g#5 v=80
30240 Off ch=1 n=d6 v=80
30240 Off ch=1 n=g#6 v=80
30240 On ch=1 n=g#6 v=127
30240 On ch=1 n=g#5 v=127
30240 On ch=1 n=c#6 v=127
31680 Off ch=1 n=g#5 v=80
31680 Off ch=1 n=g#6 v=80
31680 On ch=1 n=f#6 v=102
31680 On ch=1 n=f#5 v=102
32640 Off ch=1 n=f#5 v=80
32640 Off ch=1 n=c#6 v=80
32640 Off ch=1 n=f#6 v=80
32640 On ch=1 n=e6 v=102
32640 On ch=1 n=c#6 v=102
32640 On ch=1 n=e5 v=102
33120 Off ch=1 n=e5 v=80
33120 Off ch=1 n=c#6 v=80
33120 Off ch=1 n=e6 v=80
33120 On ch=1 n=b5 v=90
33120 On ch=1 n=d#6 v=90
33120 On ch=1 n=d#5 v=90
34080 Off ch=1 n=d#6 v=80
34080 Off ch=1 n=b5 v=80
34080 On ch=1 n=c#6 v=93
34080 On ch=1 n=a5 v=93
35040 Off ch=1 n=a5 v=80
35040 Off ch=1 n=c#6 v=80
35040 On ch=1 n=g#5 v=96
35040 On ch=1 n=b5 v=96
35400 Off ch=1 n=b5 v=80
35400 Off ch=1 n=g#5 v=80
35520 Off ch=1 n=d#5 v=80
35520 On ch=1 n=a5 v=99
35520 On ch=1 n=f#5 v=99
35520 On ch=1 n=a4 v=99
35880 Off ch=1 n=a4 v=80
35880 Off ch=1 n=f#5 v=80
35880 Off ch=1 n=a5 v=80
36000 On ch=1 n=g#4 v=102
36000 On ch=1 n=g#5 v=102
36360 Off ch=1 n=g#5 v=80
36360 Off ch=1 n=g#4 v=80
36480 On ch=1 n=b4 v=102
36480 On ch=1 n=b5 v=102
36840 Off ch=1 n=b5 v=80
36840 Off ch=1 n=b4 v=80
36960 On ch=1 n=f#6 v=102
36960 On ch=1 n=f#5 v=102
37320 Off ch=1 n=f#5 v=80
37320 Off ch=1 n=f#6 v=80
37440 On ch=1 n=e5 v=102
37440 On ch=1 n=e6 v=102
37800 Off ch=1 n=e6 v=80
37800 Off ch=1 n=e5 v=80
37920 On ch=1 n=f#5 v=90
37920 On ch=1 n=f#4 v=90
38160 Off ch=1 n=f#4 v=80
38160 Off ch=1 n=f#5 v=80
38400 On ch=1 n=g#5 v=90
38400 On ch=1 n=g#4 v=90
38640 Off ch=1 n=g#4 v=80
38640 Off ch=1 n=g#5 v=80
38880 On ch=1 n=a5 v=90
38880 On ch=1 n=a4 v=90
39120 Off ch=1 n=a4 v=80
39120 Off ch=1 n=a5 v=80
39360 On ch=1 n=e5 v=78
39360 On ch=1 n=e4 v=78
39600 Off ch=1 n=e4 v=80
39600 Off ch=1 n=e5 v=80
39840 On ch=1 n=f#5 v=78
39840 On ch=1 n=f#4 v=78
40080 Off ch=1 n=f#4 v=80
40080 Off ch=1 n=f#5 v=80
40320 On ch=1 n=g5 v=78
40320 On ch=1 n=g4 v=78
40560 Off ch=1 n=g4 v=80
40560 Off ch=1 n=g5 v=80
40800 On ch=1 n=d5 v=78
40800 On ch=1 n=d4 v=78
41040 Off ch=1 n=d4 v=80
41040 Off ch=1 n=d5 v=80
41280 On ch=1 n=e5 v=78
41280 On ch=1 n=e4 v=78
41520 Off ch=1 n=e4 v=80
41520 Off ch=1 n=e5 v=80
41760 On ch=1 n=f5 v=85
41760 On ch=1 n=f4 v=85
42120 Off ch=1 n=f4 v=80
42120 Off ch=1 n=f5 v=80
42240 On ch=1 n=a4 v=92
42240 On ch=1 n=a5 v=92
42600 Off ch=1 n=a5 v=80
42600 Off ch=1 n=a4 v=80
42720 On ch=1 n=c6 v=99
42720 On ch=1 n=c5 v=99
43080 Off ch=1 n=c5 v=80
43080 Off ch=1 n=c6 v=80
43200 On ch=1 n=f5 v=106
43200 On ch=1 n=f6 v=106
43560 Off ch=1 n=f6 v=80
43560 Off ch=1 n=f5 v=80
43680 On ch=1 n=a6 v=113
43680 On ch=1 n=a5 v=113
44040 Off ch=1 n=a5 v=80
44040 Off ch=1 n=a6 v=80
44160 On ch=1 n=c6 v=120
44160 On ch=1 n=c7 v=120
44520 Off ch=1 n=c7 v=80
44520 Off ch=1 n=c6 v=80
44640 On ch=1 n=f#6 v=127
44640 On ch=1 n=d#6 v=127
44640 On ch=1 n=b5 v=127
44640 On ch=1 n=a5 v=127
44640 On ch=1 n=b6 v=127
46080 Off ch=1 n=a5 v=80
46080 Off ch=1 n=b5 v=80
46080 Off ch=1 n=d#6 v=80
46080 Off ch=1 n=f#6 v=80
46080 On ch=1 n=e6 v=78
46080 On ch=1 n=g#5 v=78
46560 Off ch=1 n=g#5 v=80
46560 Off ch=1 n=b6 v=80
46560 Off ch=1 n=e6 v=80
49920 On ch=1 n=g4 v=85
50400 Off ch=1 n=g4 v=80
50400 On ch=1 n=c5 v=90
50880 Off ch=1 n=c5 v=80
50880 On ch=1 n=e5 v=90
51360 Off ch=1 n=e5 v=80
51360 On ch=1 n=a5 v=90
51840 Off ch=1 n=a5 v=80
51840 On ch=1 n=g5 v=84
52320 Off ch=1 n=g5 v=80
52320 On ch=1 n=d5 v=78
52800 Off ch=1 n=d5 v=80
52800 On ch=1 n=f#5 v=72
52800 On ch=1 n=d#5 v=72
53280 Off ch=1 n=d#5 v=80
53280 Off ch=1 n=f#5 v=80
53280 On ch=1 n=f5 v=65
53280 On ch=1 n=b4 v=65
53280 On ch=1 n=g5 v=65
53760 Off ch=1 n=g5 v=80
53760 Off ch=1 n=b4 v=80
53760 Off ch=1 n=f5 v=80
53760 On ch=1 n=b5 v=71
54240 Off ch=1 n=b5 v=80
54240 On ch=1 n=e6 v=77
54720 Off ch=1 n=e6 v=80
54720 On ch=1 n=d6 v=83
55200 Off ch=1 n=d6 v=80
55200 On ch=1 n=a5 v=90
55200 On ch=1 n=f5 v=90
55680 Off ch=1 n=a5 v=80
55680 On ch=1 n=b5 v=90
56160 Off ch=1 n=b5 v=80
56160 On ch=1 n=c6 v=90
56640 Off ch=1 n=f5 v=80
56640 Off ch=1 n=c6 v=80
56640 On ch=1 n=e5 v=90
56640 On ch=1 n=c5 v=90
57120 Off ch=1 n=e5 v=80
57120 On ch=1 n=f5 v=85
57600 Off ch=1 n=c5 v=80
57600 Off ch=1 n=f5 v=80
57600 On ch=1 n=b4 v=80
57600 On ch=1 n=g5 v=80
58080 Off ch=1 n=g5 v=80
58080 Off ch=1 n=b4 v=80
58080 On ch=1 n=c5 v=75
58080 On ch=1 n=a4 v=75
58560 Off ch=1 n=c5 v=80
58560 On ch=1 n=d5 v=70
59040 Off ch=1 n=a4 v=80
59040 Off ch=1 n=d5 v=80
59040 On ch=1 n=e5 v=65
59040 On ch=1 n=g4 v=65
59520 Off ch=1 n=g4 v=80
59520 Off ch=1 n=e5 v=80
61440 On ch=1 n=g4 v=85
61920 Off ch=1 n=g4 v=80
61920 On ch=1 n=c5 v=90
62400 Off ch=1 n=c5 v=80
62400 On ch=1 n=e5 v=90
62880 Off ch=1 n=e5 v=80
62880 On ch=1 n=a5 v=90
63360 Off ch=1 n=a5 v=80
63360 On ch=1 n=g5 v=84
63840 Off ch=1 n=g5 v=80
63840 On ch=1 n=d5 v=78
64320 Off ch=1 n=d5 v=80
64320 On ch=1 n=f#5 v=70
64320 On ch=1 n=d#5 v=70
64800 Off ch=1 n=d#5 v=80
64800 Off ch=1 n=f#5 v=80
64800 On ch=1 n=g5 v=75
64800 On ch=1 n=d5 v=75
65280 Off ch=1 n=d5 v=80
65280 Off ch=1 n=g5 v=80
65280 On ch=1 n=b5 v=80
65760 Off ch=1 n=b5 v=80
65760 On ch=1 n=e6 v=85
66240 Off ch=1 n=e6 v=80
66240 On ch=1 n=d6 v=90
66720 Off ch=1 n=d6 v=80
66720 On ch=1 n=a5 v=90
66720 On ch=1 n=e5 v=90
67200 Off ch=1 n=a5 v=80
67200 On ch=1 n=b5 v=90
67680 Off ch=1 n=b5 v=80
67680 On ch=1 n=c6 v=90
68160 Off ch=1 n=e5 v=80
68160 Off ch=1 n=c6 v=80
68160 On ch=1 n=e5 v=85
68160 On ch=1 n=c5 v=85
68640 Off ch=1 n=e5 v=80
68640 On ch=1 n=f#5 v=80
69120 Off ch=1 n=f#5 v=80
69120 On ch=1 n=g5 v=75
69600 Off ch=1 n=c5 v=80
69600 On ch=1 n=b4 v=70
70080 Off ch=1 n=g5 v=80
70080 Off ch=1 n=b4 v=80
72960 On ch=1 n=g4 v=85
73440 Off ch=1 n=g4 v=80
73440 On ch=1 n=c5 v=90
73920 Off ch=1 n=c5 v=80
73920 On ch=1 n=e5 v=90
74400 Off ch=1 n=e5 v=80
74400 On ch=1 n=a5 v=90
74880 Off ch=1 n=a5 v=80
74880 On ch=1 n=g5 v=84
75360 Off ch=1 n=g5 v=80
75360 On ch=1 n=d5 v=78
75840 Off ch=1 n=d5 v=80
75840 On ch=1 n=f#5 v=72
75840 On ch=1 n=d#5 v=72
76320 Off ch=1 n=d#5 v=80
76320 Off ch=1 n=f#5 v=80
76320 On ch=1 n=f5 v=65
76320 On ch=1 n=b4 v=65
76320 On ch=1 n=g5 v=65
76800 Off ch=1 n=g5 v=80
76800 Off ch=1 n=b4 v=80
76800 Off ch=1 n=f5 v=80
76800 On ch=1 n=b5 v=71
77280 Off ch=1 n=b5 v=80
77280 On ch=1 n=e6 v=77
77760 Off ch=1 n=e6 v=80
77760 On ch=1 n=d6 v=83
78240 Off ch=1 n=d6 v=80
78240 On ch=1 n=a5 v=90
78240 On ch=1 n=f5 v=90
78720 Off ch=1 n=a5 v=80
78720 On ch=1 n=b5 v=90
79200 Off ch=1 n=b5 v=80
79200 On ch=1 n=c6 v=90
79680 Off ch=1 n=f5 v=80
79680 Off ch=1 n=c6 v=80
79680 On ch=1 n=e5 v=90
79680 On ch=1 n=c5 v=90
80160 Off ch=1 n=e5 v=80
80160 On ch=1 n=f5 v=85
80640 Off ch=1 n=c5 v=80
80640 Off ch=1 n=f5 v=80
80640 On ch=1 n=b4 v=80
80640 On ch=1 n=g5 v=80
81120 Off ch=1 n=g5 v=80
81120 Off ch=1 n=b4 v=80
81120 On ch=1 n=c5 v=75
81120 On ch=1 n=a4 v=75
81600 Off ch=1 n=c5 v=80
81600 On ch=1 n=d5 v=70
82080 Off ch=1 n=a4 v=80
82080 Off ch=1 n=d5 v=80
82080 On ch=1 n=e5 v=65
82080 On ch=1 n=g4 v=65
82560 Off ch=1 n=g4 v=80
82560 Off ch=1 n=e5 v=80
84480 On ch=1 n=g4 v=85
84960 Off ch=1 n=g4 v=80
84960 On ch=1 n=c5 v=90
85440 Off ch=1 n=c5 v=80
85440 On ch=1 n=e5 v=90
85920 Off ch=1 n=e5 v=80
85920 On ch=1 n=a5 v=90
86400 Off ch=1 n=a5 v=80
86400 On ch=1 n=g5 v=84
86880 Off ch=1 n=g5 v=80
86880 On ch=1 n=d5 v=78
87360 Off ch=1 n=d5 v=80
87360 On ch=1 n=f#5 v=70
87360 On ch=1 n=d#5 v=70
87840 Off ch=1 n=d#5 v=80
87840 Off ch=1 n=f#5 v=80
87840 On ch=1 n=g5 v=75
87840 On ch=1 n=d5 v=75
88320 Off ch=1 n=d5 v=80
88320 Off ch=1 n=g5 v=80
88320 On ch=1 n=b5 v=80
88800 Off ch=1 n=b5 v=80
88800 On ch=1 n=e6 v=85
89280 Off ch=1 n=e6 v=80
89280 On ch=1 n=d6 v=90
89760 Off ch=1 n=d6 v=80
89760 On ch=1 n=a5 v=90
89760 On ch=1 n=e5 v=90
90240 Off ch=1 n=a5 v=80
90240 On ch=1 n=b5 v=90
90720 Off ch=1 n=b5 v=80
90720 On ch=1 n=c6 v=90
91200 Off ch=1 n=e5 v=80
91200 Off ch=1 n=c6 v=80
91200 On ch=1 n=e5 v=85
91200 On ch=1 n=c5 v=85
91680 Off ch=1 n=e5 v=80
91680 On ch=1 n=f#5 v=80
92160 Off ch=1 n=f#5 v=80
92160 On ch=1 n=g5 v=75
92640 Off ch=1 n=c5 v=80
92640 On ch=1 n=b4 v=70
93120 Off ch=1 n=g5 v=80
93120 Off ch=1 n=b4 v=80
93120 On ch=1 n=g5 v=65
93600 Off ch=1 n=g5 v=80
93600 On ch=1 n=g#5 v=120
93600 On ch=1 n=c5 v=120
94080 Off ch=1 n=g#5 v=80
94080 On ch=1 n=c6 v=90
94560 Off ch=1 n=c5 v=80
94560 Off ch=1 n=c6 v=80
94560 On ch=1 n=g6 v=90
95040 Off ch=1 n=g6 v=80
95040 On ch=1 n=f6 v=90
95520 Off ch=1 n=f6 v=80
95520 On ch=1 n=c6 v=90
95520 On ch=1 n=g#5 v=90
96000 Off ch=1 n=c6 v=80
96000 On ch=1 n=d#6 v=90
96480 Off ch=1 n=d#6 v=80
96480 On ch=1 n=d6 v=90
96960 Off ch=1 n=g#5 v=80
96960 Off ch=1 n=d6 v=80
96960 On ch=1 n=g#5 v=90
96960 On ch=1 n=f5 v=90
97440 Off ch=1 n=f5 v=80
97440 Off ch=1 n=g#5 v=80
97440 On ch=1 n=c6 v=90
97440 On ch=1 n=d#5 v=90
97920 Off ch=1 n=d#5 v=80
97920 Off ch=1 n=c6 v=80
97920 On ch=1 n=b5 v=90
97920 On ch=1 n=d5 v=90
98400 Off ch=1 n=d5 v=80
98400 Off ch=1 n=b5 v=80
100320 On ch=1 n=g4 v=102
100800 Off ch=1 n=g4 v=80
100800 On ch=1 n=g#4 v=102
101280 On ch=1 n=c5 v=105
101760 Off ch=1 n=c5 v=80
101760 On ch=1 n=g5 v=108
102240 Off ch=1 n=g5 v=80
102240 On ch=1 n=f5 v=111
102720 Off ch=1 n=g#4 v=80
102720 On ch=1 n=g#4 v=114
103200 Off ch=1 n=f5 v=80
103200 Off ch=1 n=g#4 v=80
103200 On ch=1 n=a4 v=114
103200 On ch=1 n=d#5 v=114
103680 Off ch=1 n=d#5 v=80
103680 On ch=1 n=d5 v=114
104160 Off ch=1 n=a4 v=80
104160 On ch=1 n=g4 v=114
104640 Off ch=1 n=d5 v=80
104640 Off ch=1 n=g4 v=80
104640 On ch=1 n=c5 v=102
104640 On ch=1 n=a#4 v=102
104640 On ch=1 n=e4 v=102
104880 Off ch=1 n=e4 v=80
104880 Off ch=1 n=a#4 v=80
104880 Off ch=1 n=c5 v=80
105120 On ch=1 n=f5 v=127
105120 On ch=1 n=f4 v=127
105600 Off ch=1 n=f4 v=80
105600 On ch=1 n=g#4 v=102
106080 Off ch=1 n=g#4 v=80
106080 On ch=1 n=c#5 v=105
106560 Off ch=1 n=c#5 v=80
106560 On ch=1 n=c5 v=108
107040 Off ch=1 n=f5 v=80
107040 Off ch=1 n=c5 v=80
107040 On ch=1 n=f4 v=111
107520 Off ch=1 n=f4 v=80
107520 On ch=1 n=g5 v=114
107520 On ch=1 n=g4 v=114
107760 Off ch=1 n=g4 v=80
107760 Off ch=1 n=g5 v=80
108000 On ch=1 n=g#5 v=127
108000 On ch=1 n=g#4 v=127
108480 Off ch=1 n=g#4 v=80
108480 On ch=1 n=c5 v=102
108960 Off ch=1 n=c5 v=80
108960 On ch=1 n=f5 v=105
109440 Off ch=1 n=f5 v=80
109440 On ch=1 n=d#5 v=108
109920 Off ch=1 n=g#5 v=80
109920 Off ch=1 n=d#5 v=80
109920 On ch=1 n=g#4 v=111
110400 Off ch=1 n=g#4 v=80
110400 On ch=1 n=b4 v=114
110400 On ch=1 n=b5 v=114
110640 Off ch=1 n=b5 v=80
110640 Off ch=1 n=b4 v=80
110880 On ch=1 n=c6 v=127
110880 On ch=1 n=c5 v=127
111360 Off ch=1 n=c5 v=80
111360 On ch=1 n=d#5 v=90
111840 Off ch=1 n=c6 v=80
111840 Off ch=1 n=d#5 v=80
111840 On ch=1 n=b5 v=90
111840 On ch=1 n=g#5 v=90
112080 Off ch=1 n=g#5 v=80
112080 Off ch=1 n=b5 v=80
112320 On ch=1 n=c6 v=90
112320 On ch=1 n=g5 v=90
112800 Off ch=1 n=g5 v=80
112800 On ch=1 n=c5 v=94
113280 Off ch=1 n=c6 v=80
113280 Off ch=1 n=c5 v=80
113280 On ch=1 n=f5 v=98
113280 On ch=1 n=d6 v=98
113760 Off ch=1 n=d6 v=80
113760 Off ch=1 n=f5 v=80
113760 On ch=1 n=d#6 v=102
113760 On ch=1 n=d#5 v=102
114240 Off ch=1 n=d#5 v=80
114240 Off ch=1 n=d#6 v=80
114240 On ch=1 n=c5 v=106
114720 Off ch=1 n=c5 v=80
114720 On ch=1 n=f5 v=110
114720 On ch=1 n=f6 v=110
115200 Off ch=1 n=f6 v=80
115200 Off ch=1 n=f5 v=80
115200 On ch=1 n=g6 v=114
115200 On ch=1 n=g5 v=114
115680 Off ch=1 n=g5 v=80
115680 Off ch=1 n=g6 v=80
115680 On ch=1 n=b4 v=127
116160 Off ch=1 n=b4 v=80
119040 On ch=1 n=g4 v=85
119520 Off ch=1 n=g4 v=80
119520 On ch=1 n=c5 v=90
120000 Off ch=1 n=c5 v=80
120000 On ch=1 n=e5 v=90
120480 Off ch=1 n=e5 v=80
120480 On ch=1 n=a5 v=90
120960 Off ch=1 n=a5 v=80
120960 On ch=1 n=g5 v=84
121440 Off ch=1 n=g5 v=80
121440 On ch=1 n=d5 v=78
121920 Off ch=1 n=d5 v=80
121920 On ch=1 n=c#5 v=72
121920 On ch=1 n=e5 v=72
122400 Off ch=1 n=e5 v=80
122400 Off ch=1 n=c#5 v=80
122400 On ch=1 n=f5 v=76
122400 On ch=1 n=c5 v=76
122880 Off ch=1 n=f5 v=80
122880 On ch=1 n=a5 v=80
123360 Off ch=1 n=c5 v=80
123360 Off ch=1 n=a5 v=80
123360 On ch=1 n=d6 v=85
123840 Off ch=1 n=d6 v=80
123840 On ch=1 n=c6 v=90
124320 Off ch=1 n=c6 v=80
124320 On ch=1 n=f5 v=90
124800 Off ch=1 n=f5 v=80
124800 On ch=1 n=f#5 v=90
124800 On ch=1 n=c6 v=90
125280 Off ch=1 n=c6 v=80
125280 Off ch=1 n=f#5 v=80
125280 On ch=1 n=b5 v=90
125280 On ch=1 n=g5 v=90
125760 Off ch=1 n=g5 v=80
125760 Off ch=1 n=b5 v=80
125760 On ch=1 n=d6 v=90
125760 On ch=1 n=d5 v=90
126240 Off ch=1 n=d5 v=80
126240 Off ch=1 n=d6 v=80
126240 On ch=1 n=a5 v=90
126240 On ch=1 n=a6 v=90
126720 Off ch=1 n=a6 v=80
126720 Off ch=1 n=a5 v=80
126720 On ch=1 n=g6 v=90
126720 On ch=1 n=g5 v=90
127200 Off ch=1 n=g5 v=80
127200 Off ch=1 n=g6 v=80
127200 On ch=1 n=c6 v=90
127200 On ch=1 n=c5 v=90
127680 Off ch=1 n=c5 v=80
127680 Off ch=1 n=c6 v=80
127680 On ch=1 n=d6 v=90
127680 On ch=1 n=d5 v=90
128160 Off ch=1 n=d5 v=80
128160 Off ch=1 n=d6 v=80
128160 On ch=1 n=e5 v=102
128160 On ch=1 n=e6 v=102
128640 Off ch=1 n=e6 v=80
128640 Off ch=1 n=e5 v=80
128640 On ch=1 n=g5 v=102
128640 On ch=1 n=g6 v=102
129120 Off ch=1 n=g6 v=80
129120 Off ch=1 n=g5 v=80
129120 On ch=1 n=d6 v=102
129120 On ch=1 n=d7 v=102
129600 Off ch=1 n=d7 v=80
129600 Off ch=1 n=d6 v=80
129600 On ch=1 n=c6 v=102
129600 On ch=1 n=c7 v=102
130080 Off ch=1 n=c7 v=80
130080 Off ch=1 n=c6 v=80
130080 On ch=1 n=d5 v=102
130080 On ch=1 n=d6 v=102
130560 Off ch=1 n=d6 v=80
130560 Off ch=1 n=d5 v=80
130560 On ch=1 n=e5 v=102
130560 On ch=1 n=e6 v=102
131040 Off ch=1 n=e6 v=80
131040 Off ch=1 n=e5 v=80
131040 On ch=1 n=f5 v=115
131040 On ch=1 n=f6 v=115
131520 Off ch=1 n=f6 v=80
131520 Off ch=1 n=f5 v=80
131520 On ch=1 n=b4 v=102
131520 On ch=1 n=b5 v=102
132000 Off ch=1 n=b5 v=80
132000 Off ch=1 n=b4 v=80
132000 On ch=1 n=d#5 v=102
132000 On ch=1 n=d#6 v=102
132480 Off ch=1 n=d#6 v=80
132480 Off ch=1 n=d#5 v=80
132480 On ch=1 n=e5 v=115
132480 On ch=1 n=e6 v=115
132960 Off ch=1 n=e6 v=80
132960 Off ch=1 n=e5 v=80
132960 On ch=1 n=a4 v=102
132960 On ch=1 n=a5 v=102
133440 Off ch=1 n=a5 v=80
133440 Off ch=1 n=a4 v=80
133440 On ch=1 n=c#5 v=102
133440 On ch=1 n=c#6 v=102
133680 Off ch=1 n=c#6 v=80
133680 Off ch=1 n=c#5 v=80
133920 On ch=1 n=d5 v=127
133920 On ch=1 n=d6 v=127
134160 Off ch=1 n=d6 v=80
134160 Off ch=1 n=d5 v=80
134400 On ch=1 n=f5 v=106
134400 On ch=1 n=f6 v=106
134640 Off ch=1 n=f6 v=80
134640 Off ch=1 n=f5 v=80
134880 On ch=1 n=a5 v=110
134880 On ch=1 n=a6 v=110
135120 Off ch=1 n=a6 v=80
135120 Off ch=1 n=a5 v=80
135360 On ch=1 n=d6 v=114
135360 On ch=1 n=d7 v=114
135600 Off ch=1 n=d7 v=80
135600 Off ch=1 n=d6 v=80
135840 On ch=1 n=f6 v=118
135840 On ch=1 n=f7 v=118
136080 Off ch=1 n=f7 v=80
136080 Off ch=1 n=f6 v=80
136320 On ch=1 n=a6 v=122
136320 On ch=1 n=a7 v=122
136560 Off ch=1 n=a7 v=80
136560 Off ch=1 n=a6 v=80
136800 On ch=1 n=g7 v=127
136800 On ch=1 n=d7 v=127
136800 On ch=1 n=g6 v=127
136800 On ch=1 n=f6 v=127
138240 Off ch=1 n=f6 v=80
138240 Off ch=1 n=g6 v=80
138240 Off ch=1 n=d7 v=80
138240 On ch=1 n=c7 v=90
138240 On ch=1 n=e6 v=90
138720 Off ch=1 n=e6 v=80
138720 Off ch=1 n=g7 v=80
138720 Off ch=1 n=c7 v=80
139200 On ch=1 n=g5 v=65
139680 Off ch=1 n=g5 v=80
139680 On ch=1 n=g#5 v=120
139680 On ch=1 n=c5 v=120
140160 Off ch=1 n=g#5 v=80
140160 On ch=1 n=c6 v=90
140640 Off ch=1 n=c5 v=80
140640 Off ch=1 n=c6 v=80
140640 On ch=1 n=g6 v=90
141120 Off ch=1 n=g6 v=80
141120 On ch=1 n=f6 v=90
141600 Off ch=1 n=f6 v=80
141600 On ch=1 n=c6 v=90
141600 On ch=1 n=g#5 v=90
142080 Off ch=1 n=c6 v=80
142080 On ch=1 n=d#6 v=90
142560 Off ch=1 n=d#6 v=80
142560 On ch=1 n=d6 v=90
143040 Off ch=1 n=g#5 v=80
143040 Off ch=1 n=d6 v=80
143040 On ch=1 n=g#5 v=90
143040 On ch=1 n=f5 v=90
143520 Off ch=1 n=f5 v=80
143520 Off ch=1 n=g#5 v=80
143520 On ch=1 n=c6 v=90
143520 On ch=1 n=d#5 v=90
144000 Off ch=1 n=d#5 v=80
144000 Off ch=1 n=c6 v=80
144000 On ch=1 n=b5 v=90
144000 On ch=1 n=d5 v=90
144480 Off ch=1 n=d5 v=80
144480 Off ch=1 n=b5 v=80
146400 On ch=1 n=g4 v=78
146880 Off ch=1 n=g4 v=80
146880 On ch=1 n=g#4 v=78
147360 On ch=1 n=c5 v=78
147840 Off ch=1 n=c5 v=80
147840 On ch=1 n=g5 v=78
148320 Off ch=1 n=g5 v=80
148320 On ch=1 n=f5 v=78
148800 Off ch=1 n=g#4 v=80
148800 On ch=1 n=g#4 v=78
149280 Off ch=1 n=f5 v=80
149280 Off ch=1 n=g#4 v=80
149280 On ch=1 n=d#5 v=78
149280 On ch=1 n=a4 v=78
149520 Off ch=1 n=a4 v=80
149520 Off ch=1 n=d#5 v=80
149760 On ch=1 n=d5 v=78
150240 Off ch=1 n=d5 v=80
150240 On ch=1 n=g4 v=78
150720 Off ch=1 n=g4 v=80
150720 On ch=1 n=c5 v=102
150720 On ch=1 n=a#4 v=102
150720 On ch=1 n=e4 v=102
150960 Off ch=1 n=e4 v=80
150960 Off ch=1 n=a#4 v=80
150960 Off ch=1 n=c5 v=80
151200 On ch=1 n=f5 v=127
151200 On ch=1 n=f4 v=127
151680 Off ch=1 n=f4 v=80
151680 On ch=1 n=g#4 v=102
152160 Off ch=1 n=g#4 v=80
152160 On ch=1 n=c#5 v=105
152640 Off ch=1 n=c#5 v=80
152640 On ch=1 n=c5 v=108
153120 Off ch=1 n=f5 v=80
153120 Off ch=1 n=c5 v=80
153120 On ch=1 n=f4 v=111
153600 Off ch=1 n=f4 v=80
153600 On ch=1 n=g5 v=114
153600 On ch=1 n=g4 v=114
153840 Off ch=1 n=g4 v=80
153840 Off ch=1 n=g5 v=80
154080 On ch=1 n=g#5 v=127
154080 On ch=1 n=g#4 v=127
154560 Off ch=1 n=g#4 v=80
154560 On ch=1 n=c5 v=102
155040 Off ch=1 n=c5 v=80
155040 On ch=1 n=f5 v=105
155520 Off ch=1 n=f5 v=80
155520 On ch=1 n=d#5 v=108
156000 Off ch=1 n=g#5 v=80
156000 Off ch=1 n=d#5 v=80
156000 On ch=1 n=g#4 v=111
156480 Off ch=1 n=g#4 v=80
156480 On ch=1 n=b4 v=114
156480 On ch=1 n=b5 v=114
156720 Off ch=1 n=b5 v=80
156720 Off ch=1 n=b4 v=80
156960 On ch=1 n=c6 v=127
156960 On ch=1 n=c5 v=127
157440 Off ch=1 n=c5 v=80
157440 On ch=1 n=d#5 v=90
157920 Off ch=1 n=c6 v=80
157920 Off ch=1 n=d#5 v=80
157920 On ch=1 n=b5 v=90
157920 On ch=1 n=g#5 v=90
158160 Off ch=1 n=g#5 v=80
158160 Off ch=1 n=b5 v=80
158400 On ch=1 n=c6 v=90
158400 On ch=1 n=g5 v=90
158880 Off ch=1 n=g5 v=80
158880 On ch=1 n=c5 v=94
159360 Off ch=1 n=c6 v=80
159360 Off ch=1 n=c5 v=80
159360 On ch=1 n=f5 v=98
159360 On ch=1 n=d6 v=98
159840 Off ch=1 n=d6 v=80
159840 Off ch=1 n=f5 v=80
159840 On ch=1 n=d#6 v=102
159840 On ch=1 n=d#5 v=102
160320 Off ch=1 n=d#5 v=80
160320 Off ch=1 n=d#6 v=80
160320 On ch=1 n=c5 v=106
160800 Off ch=1 n=c5 v=80
160800 On ch=1 n=f5 v=110
160800 On ch=1 n=f6 v=110
161280 Off ch=1 n=f6 v=80
161280 Off ch=1 n=f5 v=80
161280 On ch=1 n=g6 v=114
161280 On ch=1 n=g5 v=114
161760 Off ch=1 n=g5 v=80
161760 Off ch=1 n=g6 v=80
161760 On ch=1 n=b4 v=127
162240 Off ch=1 n=b4 v=80
165120 On ch=1 n=g4 v=85
165600 Off ch=1 n=g4 v=80
165600 On ch=1 n=c5 v=90
166080 Off ch=1 n=c5 v=80
166080 On ch=1 n=e5 v=90
166560 Off ch=1 n=e5 v=80
166560 On ch=1 n=a5 v=90
167040 Off ch=1 n=a5 v=80
167040 On ch=1 n=g5 v=84
167520 Off ch=1 n=g5 v=80
167520 On ch=1 n=d5 v=78
168000 Off ch=1 n=d5 v=80
168000 On ch=1 n=c#5 v=72
168000 On ch=1 n=e5 v=72
168480 Off ch=1 n=e5 v=80
168480 Off ch=1 n=c#5 v=80
168480 On ch=1 n=f5 v=76
168480 On ch=1 n=c5 v=76
168960 Off ch=1 n=f5 v=80
168960 On ch=1 n=a5 v=80
169440 Off ch=1 n=c5 v=80
169440 Off ch=1 n=a5 v=80
169440 On ch=1 n=d6 v=85
169920 Off ch=1 n=d6 v=80
169920 On ch=1 n=c6 v=90
170400 Off ch=1 n=c6 v=80
170400 On ch=1 n=f5 v=90
170880 Off ch=1 n=f5 v=80
170880 On ch=1 n=f#5 v=90
170880 On ch=1 n=c6 v=90
171360 Off ch=1 n=c6 v=80
171360 Off ch=1 n=f#5 v=80
171360 On ch=1 n=b5 v=90
171360 On ch=1 n=g5 v=90
171840 Off ch=1 n=g5 v=80
171840 Off ch=1 n=b5 v=80
171840 On ch=1 n=d6 v=90
171840 On ch=1 n=d5 v=90
172320 Off ch=1 n=d5 v=80
172320 Off ch=1 n=d6 v=80
172320 On ch=1 n=a5 v=90
172320 On ch=1 n=a6 v=90
172800 Off ch=1 n=a6 v=80
172800 Off ch=1 n=a5 v=80
172800 On ch=1 n=g6 v=90
172800 On ch=1 n=g5 v=90
173280 Off ch=1 n=g5 v=80
173280 Off ch=1 n=g6 v=80
173280 On ch=1 n=c6 v=90
173280 On ch=1 n=c5 v=90
173760 Off ch=1 n=c5 v=80
173760 Off ch=1 n=c6 v=80
173760 On ch=1 n=d6 v=90
173760 On ch=1 n=d5 v=90
174240 Off ch=1 n=d5 v=80
174240 Off ch=1 n=d6 v=80
174240 On ch=1 n=e5 v=102
174240 On ch=1 n=e6 v=102
174720 Off ch=1 n=e6 v=80
174720 Off ch=1 n=e5 v=80
174720 On ch=1 n=g5 v=102
174720 On ch=1 n=g6 v=102
175200 Off ch=1 n=g6 v=80
175200 Off ch=1 n=g5 v=80
175200 On ch=1 n=d6 v=102
175200 On ch=1 n=d7 v=102
175680 Off ch=1 n=d7 v=80
175680 Off ch=1 n=d6 v=80
175680 On ch=1 n=c6 v=102
175680 On ch=1 n=c7 v=102
176160 Off ch=1 n=c7 v=80
176160 Off ch=1 n=c6 v=80
176160 On ch=1 n=d5 v=102
176160 On ch=1 n=d6 v=102
176640 Off ch=1 n=d6 v=80
176640 Off ch=1 n=d5 v=80
176640 On ch=1 n=e5 v=102
176640 On ch=1 n=e6 v=102
177120 Off ch=1 n=e6 v=80
177120 Off ch=1 n=e5 v=80
177120 On ch=1 n=f5 v=115
177120 On ch=1 n=f6 v=115
177600 Off ch=1 n=f6 v=80
177600 Off ch=1 n=f5 v=80
177600 On ch=1 n=b4 v=102
177600 On ch=1 n=b5 v=102
178080 Off ch=1 n=b5 v=80
178080 Off ch=1 n=b4 v=80
178080 On ch=1 n=d#5 v=102
178080 On ch=1 n=d#6 v=102
178560 Off ch=1 n=d#6 v=80
178560 Off ch=1 n=d#5 v=80
178560 On ch=1 n=e5 v=115
178560 On ch=1 n=e6 v=115
179040 Off ch=1 n=e6 v=80
179040 Off ch=1 n=e5 v=80
179040 On ch=1 n=a4 v=102
179040 On ch=1 n=a5 v=102
179520 Off ch=1 n=a5 v=80
179520 Off ch=1 n=a4 v=80
179520 On ch=1 n=c#5 v=102
179520 On ch=1 n=c#6 v=102
179760 Off ch=1 n=c#6 v=80
179760 Off ch=1 n=c#5 v=80
180000 On ch=1 n=d5 v=127
180000 On ch=1 n=d6 v=127
180240 Off ch=1 n=d6 v=80
180240 Off ch=1 n=d5 v=80
180480 On ch=1 n=f5 v=106
180480 On ch=1 n=f6 v=106
180720 Off ch=1 n=f6 v=80
180720 Off ch=1 n=f5 v=80
180960 On ch=1 n=a5 v=110
180960 On ch=1 n=a6 v=110
181200 Off ch=1 n=a6 v=80
181200 Off ch=1 n=a5 v=80
181440 On ch=1 n=d6 v=114
181440 On ch=1 n=d7 v=114
181680 Off ch=1 n=d7 v=80
181680 Off ch=1 n=d6 v=80
181920 On ch=1 n=f6 v=118
181920 On ch=1 n=f7 v=118
182160 Off ch=1 n=f7 v=80
182160 Off ch=1 n=f6 v=80
182400 On ch=1 n=a6 v=122
182400 On ch=1 n=a7 v=122
182640 Off ch=1 n=a7 v=80
182640 Off ch=1 n=a6 v=80
182880 On ch=1 n=g7 v=127
182880 On ch=1 n=d7 v=127
182880 On ch=1 n=g6 v=127
182880 On ch=1 n=f6 v=127
184320 Off ch=1 n=f6 v=80
184320 Off ch=1 n=g6 v=80
184320 Off ch=1 n=d7 v=80
184320 On ch=1 n=e6 v=78
184320 On ch=1 n=c7 v=78
184800 Off ch=1 n=c7 v=80
184800 Off ch=1 n=g7 v=80
184800 Off ch=1 n=e6 v=80
185280 On ch=1 n=c5 v=65
185280 On ch=1 n=a4 v=65
185280 On ch=1 n=f4 v=65
186240 Off ch=1 n=f4 v=80
186240 Off ch=1 n=a4 v=80
186240 On ch=1 n=e4 v=65
186240 On ch=1 n=g4 v=65
186720 Off ch=1 n=g4 v=80
186720 Off ch=1 n=e4 v=80
186720 On ch=1 n=d#4 v=65
186720 On ch=1 n=f#4 v=65
187200 Off ch=1 n=f#4 v=80
187200 Off ch=1 n=d#4 v=80
187200 On ch=1 n=g4 v=65
187200 On ch=1 n=e4 v=65
187680 Off ch=1 n=e4 v=80
187680 Off ch=1 n=g4 v=80
187680 On ch=1 n=f4 v=65
187680 On ch=1 n=a4 v=65
188160 Off ch=1 n=a4 v=80
188160 Off ch=1 n=c5 v=80
188160 Off ch=1 n=f4 v=80
188160 On ch=1 n=c5 v=65
188160 On ch=1 n=a#4 v=65
188160 On ch=1 n=g4 v=65
189120 Off ch=1 n=g4 v=80
189120 Off ch=1 n=a#4 v=80
189120 Off ch=1 n=c5 v=80
189120 On ch=1 n=a4 v=73
189120 On ch=1 n=f4 v=73
189360 Off ch=1 n=f4 v=80
189360 Off ch=1 n=a4 v=80
189600 On ch=1 n=c5 v=80
189600 On ch=1 n=a4 v=80
189840 Off ch=1 n=a4 v=80
189840 Off ch=1 n=c5 v=80
190080 On ch=1 n=c5 v=90
190080 On ch=1 n=a5 v=90
191040 Off ch=1 n=a5 v=80
191040 Off ch=1 n=c5 v=80
191040 On ch=1 n=f5 v=65
191040 On ch=1 n=c5 v=65
191040 On ch=1 n=a4 v=65
192000 Off ch=1 n=a4 v=80
192000 Off ch=1 n=c5 v=80
192000 Off ch=1 n=f5 v=80
192000 On ch=1 n=e4 v=65
192000 On ch=1 n=g4 v=65
192000 On ch=1 n=c5 v=65
192480 Off ch=1 n=g4 v=80
192480 Off ch=1 n=e4 v=80
192480 On ch=1 n=d#4 v=65
192480 On ch=1 n=f#4 v=65
192960 Off ch=1 n=f#4 v=80
192960 Off ch=1 n=d#4 v=80
192960 On ch=1 n=g4 v=65
192960 On ch=1 n=e4 v=65
193440 Off ch=1 n=e4 v=80
193440 Off ch=1 n=g4 v=80
193440 On ch=1 n=f4 v=65
193440 On ch=1 n=a4 v=65
193920 Off ch=1 n=a4 v=80
193920 Off ch=1 n=c5 v=80
193920 Off ch=1 n=f4 v=80
193920 On ch=1 n=c5 v=65
193920 On ch=1 n=a#4 v=65
193920 On ch=1 n=g4 v=65
194880 Off ch=1 n=g4 v=80
194880 Off ch=1 n=a#4 v=80
194880 Off ch=1 n=c5 v=80
194880 On ch=1 n=a4 v=65
194880 On ch=1 n=f4 v=65
195120 Off ch=1 n=f4 v=80
195120 Off ch=1 n=a4 v=80
195360 On ch=1 n=c4 v=65
195360 On ch=1 n=f4 v=65
195600 Off ch=1 n=f4 v=80
195600 Off ch=1 n=c4 v=80
195840 On ch=1 n=a3 v=65
195840 On ch=1 n=c4 v=65
196320 Off ch=1 n=c4 v=80
196320 Off ch=1 n=a3 v=80
196800 On ch=1 n=f4 v=65
196800 On ch=1 n=a4 v=65
196800 On ch=1 n=c5 v=65
197760 Off ch=1 n=a4 v=80
197760 Off ch=1 n=f4 v=80
197760 On ch=1 n=g4 v=65
197760 On ch=1 n=e4 v=65
198240 Off ch=1 n=e4 v=80
198240 Off ch=1 n=g4 v=80
198240 On ch=1 n=d#4 v=65
198240 On ch=1 n=f#4 v=65
198720 Off ch=1 n=f#4 v=80
198720 Off ch=1 n=d#4 v=80
198720 On ch=1 n=g4 v=65
198720 On ch=1 n=e4 v=65
199200 Off ch=1 n=e4 v=80
199200 Off ch=1 n=g4 v=80
199200 On ch=1 n=f4 v=65
199200 On ch=1 n=a4 v=65
199680 Off ch=1 n=a4 v=80
199680 Off ch=1 n=c5 v=80
199680 Off ch=1 n=f4 v=80
199680 On ch=1 n=c5 v=65
199680 On ch=1 n=a#4 v=65
199680 On ch=1 n=g4 v=65
200640 Off ch=1 n=g4 v=80
200640 Off ch=1 n=a#4 v=80
200640 Off ch=1 n=c5 v=80
200640 On ch=1 n=a4 v=73
200640 On ch=1 n=f4 v=73
200880 Off ch=1 n=f4 v=80
200880 Off ch=1 n=a4 v=80
201120 On ch=1 n=c5 v=80
201120 On ch=1 n=a4 v=80
201360 Off ch=1 n=a4 v=80
201360 Off ch=1 n=c5 v=80
201600 On ch=1 n=c5 v=90
201600 On ch=1 n=a5 v=90
202560 Off ch=1 n=a5 v=80
202560 Off ch=1 n=c5 v=80
202560 On ch=1 n=a5 v=90
202560 On ch=1 n=f#5 v=90
202560 On ch=1 n=d#5 v=90
202560 On ch=1 n=b4 v=90
202560 On ch=1 n=a4 v=90
202920 Off ch=1 n=a4 v=80
202920 Off ch=1 n=b4 v=80
202920 Off ch=1 n=d#5 v=80
202920 Off ch=1 n=f#5 v=80
202920 Off ch=1 n=a5 v=80
203040 On ch=1 n=a5 v=95
203040 On ch=1 n=f#5 v=95
203040 On ch=1 n=d#5 v=95
203040 On ch=1 n=b4 v=95
203040 On ch=1 n=a4 v=95
203760 Off ch=1 n=a4 v=80
203760 Off ch=1 n=b4 v=80
203760 Off ch=1 n=d#5 v=80
203760 Off ch=1 n=f#5 v=80
203760 Off ch=1 n=a5 v=80
204000 On ch=1 n=f#5 v=100
204000 On ch=1 n=d#5 v=100
204000 On ch=1 n=b4 v=100
204000 On ch=1 n=a4 v=100
204000 On ch=1 n=a#5 v=100
204360 Off ch=1 n=a#5 v=80
204360 Off ch=1 n=a4 v=80
204360 Off ch=1 n=b4 v=80
204360 Off ch=1 n=d#5 v=80
204360 Off ch=1 n=f#5 v=80
204480 On ch=1 n=f#5 v=105
204480 On ch=1 n=d#5 v=105
204480 On ch=1 n=b4 v=105
204480 On ch=1 n=a4 v=105
204480 On ch=1 n=a#5 v=105
205200 Off ch=1 n=a#5 v=80
205200 Off ch=1 n=a4 v=80
205200 Off ch=1 n=b4 v=80
205200 Off ch=1 n=d#5 v=80
205200 Off ch=1 n=f#5 v=80
205440 On ch=1 n=d#5 v=110
205440 On ch=1 n=b4 v=110
205440 On ch=1 n=a4 v=110
205440 On ch=1 n=b5 v=110
205440 On ch=1 n=f#5 v=110
205800 Off ch=1 n=f#5 v=80
205800 Off ch=1 n=b5 v=80
205800 Off ch=1 n=a4 v=80
205800 Off ch=1 n=b4 v=80
205800 Off ch=1 n=d#5 v=80
205920 On ch=1 n=f#5 v=115
205920 On ch=1 n=d#5 v=115
205920 On ch=1 n=b4 v=115
205920 On ch=1 n=a4 v=115
205920 On ch=1 n=b5 v=115
207840 Off ch=1 n=b5 v=80
207840 Off ch=1 n=a4 v=80
207840 Off ch=1 n=b4 v=80
207840 Off ch=1 n=d#5 v=80
207840 Off ch=1 n=f#5 v=80
208800 On ch=1 n=e5 v=115
208800 On ch=1 n=e4 v=115
209280 On ch=1 n=g#5 v=102
209280 On ch=1 n=g#4 v=102
209640 Off ch=1 n=g#4 v=80
209640 Off ch=1 n=g#5 v=80
209760 On ch=1 n=c#6 v=102
209760 On ch=1 n=c#5 v=102
210120 Off ch=1 n=c#5 v=80
210120 Off ch=1 n=c#6 v=80
210240 Off ch=1 n=e4 v=80
210240 Off ch=1 n=e5 v=80
210240 On ch=1 n=b4 v=102
210240 On ch=1 n=b5 v=102
210600 Off ch=1 n=b5 v=80
210600 Off ch=1 n=b4 v=80
210720 On ch=1 n=f#5 v=106
210720 On ch=1 n=f#4 v=106
211080 Off ch=1 n=f#4 v=80
211080 Off ch=1 n=f#5 v=80
211200 On ch=1 n=g#5 v=110
211200 On ch=1 n=g#4 v=110
211560 Off ch=1 n=g#4 v=80
211560 Off ch=1 n=g#5 v=80
211680 On ch=1 n=a5 v=114
211680 On ch=1 n=a4 v=114
212040 Off ch=1 n=a4 v=80
212040 Off ch=1 n=a5 v=80
212160 On ch=1 n=c#5 v=118
212160 On ch=1 n=c#6 v=118
212520 Off ch=1 n=c#6 v=80
212520 Off ch=1 n=c#5 v=80
212640 On ch=1 n=e6 v=122
212640 On ch=1 n=e5 v=122
213000 Off ch=1 n=e5 v=80
213000 Off ch=1 n=e6 v=80
213120 On ch=1 n=a6 v=102
213120 On ch=1 n=a5 v=102
214080 Off ch=1 n=a5 v=80
214080 Off ch=1 n=a6 v=80
214080 On ch=1 n=g#6 v=102
214080 On ch=1 n=d6 v=102
214080 On ch=1 n=g#5 v=102
214560 Off ch=1 n=g#5 v=80
214560 Off ch=1 n=d6 v=80
214560 Off ch=1 n=g#6 v=80
214560 On ch=1 n=g#6 v=127
214560 On ch=1 n=g#5 v=127
214560 On ch=1 n=c#6 v=127
216000 Off ch=1 n=g#5 v=80
216000 Off ch=1 n=g#6 v=80
216000 On ch=1 n=f#6 v=102
216000 On ch=1 n=f#5 v=102
216960 Off ch=1 n=f#5 v=80
216960 Off ch=1 n=c#6 v=80
216960 Off ch=1 n=f#6 v=80
216960 On ch=1 n=e6 v=102
216960 On ch=1 n=c#6 v=102
216960 On ch=1 n=e5 v=102
217440 Off ch=1 n=e5 v=80
217440 Off ch=1 n=c#6 v=80
217440 Off ch=1 n=e6 v=80
217440 On ch=1 n=b5 v=90
217440 On ch=1 n=d#6 v=90
217440 On ch=1 n=d#5 v=90
218400 Off ch=1 n=d#6 v=80
218400 Off ch=1 n=b5 v=80
218400 On ch=1 n=c#6 v=93
218400 On ch=1 n=a5 v=93
219360 Off ch=1 n=a5 v=80
219360 Off ch=1 n=c#6 v=80
219360 On ch=1 n=g#5 v=96
219360 On ch=1 n=b5 v=96
219720 Off ch=1 n=b5 v=80
219720 Off ch=1 n=g#5 v=80
219840 Off ch=1 n=d#5 v=80
219840 On ch=1 n=a5 v=99
219840 On ch=1 n=f#5 v=99
219840 On ch=1 n=a4 v=99
220200 Off ch=1 n=a4 v=80
220200 Off ch=1 n=f#5 v=80
220200 Off ch=1 n=a5 v=80
220320 On ch=1 n=g#4 v=102
220320 On ch=1 n=g#5 v=102
220680 Off ch=1 n=g#5 v=80
220680 Off ch=1 n=g#4 v=80
220800 On ch=1 n=b4 v=102
220800 On ch=1 n=b5 v=102
221160 Off ch=1 n=b5 v=80
221160 Off ch=1 n=b4 v=80
221280 On ch=1 n=f#6 v=102
221280 On ch=1 n=f#5 v=102
221640 Off ch=1 n=f#5 v=80
221640 Off ch=1 n=f#6 v=80
221760 On ch=1 n=e5 v=102
221760 On ch=1 n=e6 v=102
222120 Off ch=1 n=e6 v=80
222120 Off ch=1 n=e5 v=80
222240 On ch=1 n=f#5 v=90
222240 On ch=1 n=f#4 v=90
222480 Off ch=1 n=f#4 v=80
222480 Off ch=1 n=f#5 v=80
222720 On ch=1 n=g#5 v=90
222720 On ch=1 n=g#4 v=90
222960 Off ch=1 n=g#4 v=80
222960 Off ch=1 n=g#5 v=80
223200 On ch=1 n=a5 v=90
223200 On ch=1 n=a4 v=90
223440 Off ch=1 n=a4 v=80
223440 Off ch=1 n=a5 v=80
223680 On ch=1 n=c#5 v=90
223680 On ch=1 n=c#6 v=90
223920 Off ch=1 n=c#6 v=80
223920 Off ch=1 n=c#5 v=80
224160 On ch=1 n=f#6 v=90
224160 On ch=1 n=f#5 v=90
224400 Off ch=1 n=f#5 v=80
224400 Off ch=1 n=f#6 v=80
224640 On ch=1 n=e6 v=90
224640 On ch=1 n=e5 v=90
224880 Off ch=1 n=e5 v=80
224880 Off ch=1 n=e6 v=80
225120 On ch=1 n=a5 v=90
225120 On ch=1 n=a4 v=90
225360 Off ch=1 n=a4 v=80
225360 Off ch=1 n=a5 v=80
225600 On ch=1 n=a#5 v=90
225600 On ch=1 n=a#4 v=90
225840 Off ch=1 n=a#4 v=80
225840 Off ch=1 n=a#5 v=80
226080 On ch=1 n=b5 v=90
226080 On ch=1 n=b4 v=90
226440 Off ch=1 n=b4 v=80
226440 Off ch=1 n=b5 v=80
226560 On ch=1 n=e6 v=92
226560 On ch=1 n=e5 v=92
226920 Off ch=1 n=e5 v=80
226920 Off ch=1 n=e6 v=80
227040 On ch=1 n=g#6 v=99
227040 On ch=1 n=g#5 v=99
227400 Off ch=1 n=g#5 v=80
227400 Off ch=1 n=g#6 v=80
227520 On ch=1 n=b6 v=106
227520 On ch=1 n=b5 v=106
227880 Off ch=1 n=b5 v=80
227880 Off ch=1 n=b6 v=80
228000 On ch=1 n=e7 v=113
228000 On ch=1 n=e6 v=113
228360 Off ch=1 n=e6 v=80
228360 Off ch=1 n=e7 v=80
228480 On ch=1 n=g#7 v=120
228480 On ch=1 n=g#6 v=120
228840 Off ch=1 n=g#6 v=80
228840 Off ch=1 n=g#7 v=80
228960 On ch=1 n=b7 v=127
228960 On ch=1 n=f#7 v=127
228960 On ch=1 n=d#7 v=127
228960 On ch=1 n=b6 v=127
228960 On ch=1 n=a6 v=127
230400 Off ch=1 n=a6 v=80
230400 Off ch=1 n=b6 v=80
230400 Off ch=1 n=d#7 v=80
230400 Off ch=1 n=f#7 v=80
230400 On ch=1 n=g#6 v=78
230400 On ch=1 n=e7 v=78
230880 Off ch=1 n=e7 v=80
230880 Off ch=1 n=b7 v=80
230880 Off ch=1 n=g#6 v=80
231840 On ch=1 n=e6 v=78
233280 Off ch=1 n=e6 v=80
233280 On ch=1 n=f#6 v=78
234720 Off ch=1 n=f#6 v=80
234720 On ch=1 n=d6 v=78
235200 Off ch=1 n=d6 v=80
235200 On ch=1 n=c#6 v=78
235680 Off ch=1 n=c#6 v=80
236160 On ch=1 n=e6 v=78
237120 Off ch=1 n=e6 v=80
237600 On ch=1 n=c#6 v=78
238560 Off ch=1 n=c#6 v=80
238800 On ch=1 n=a5 v=78
238920 Off ch=1 n=a5 v=80
238920 On ch=1 n=b5 v=78
239040 Off ch=1 n=b5 v=80
239040 On ch=1 n=a5 v=78
239520 Off ch=1 n=a5 v=80
239520 On ch=1 n=g#5 v=78
240000 Off ch=1 n=g#5 v=80
240480 On ch=1 n=b5 v=78
241920 Off ch=1 n=b5 v=80
241920 On ch=1 n=b5 v=78
243360 Off ch=1 n=b5 v=80
243360 On ch=1 n=e6 v=78
244800 Off ch=1 n=e6 v=80
244800 On ch=1 n=f#6 v=78
246240 Off ch=1 n=f#6 v=80
246240 On ch=1 n=f#6 v=78
246720 Off ch=1 n=f#6 v=80
246720 On ch=1 n=e6 v=78
247200 Off ch=1 n=e6 v=80
247680 On ch=1 n=g#6 v=84
249120 Off ch=1 n=g#6 v=80
249120 On ch=1 n=a6 v=90
250080 Off ch=1 n=a6 v=80
250080 On ch=1 n=g#6 v=90
250320 On ch=1 n=f#5 v=90
250560 Off ch=1 n=f#5 v=80
250560 Off ch=1 n=g#6 v=80
250560 On ch=1 n=f#6 v=90
251520 Off ch=1 n=f#6 v=80
251520 On ch=1 n=f6 v=84
251760 On ch=1 n=g#5 v=80
252000 Off ch=1 n=g#5 v=80
252000 Off ch=1 n=f6 v=80
252000 On ch=1 n=f6 v=78
253440 Off ch=1 n=f6 v=80
253440 On ch=1 n=f#6 v=78
254880 Off ch=1 n=f#6 v=80
254880 On ch=1 n=e6 v=78
256320 Off ch=1 n=e6 v=80
256320 On ch=1 n=f#6 v=78
257760 Off ch=1 n=f#6 v=80
257760 On ch=1 n=d6 v=78
258240 Off ch=1 n=d6 v=80
258240 On ch=1 n=c#6 v=78
258720 Off ch=1 n=c#6 v=80
259200 On ch=1 n=e6 v=78
260160 Off ch=1 n=e6 v=80
260640 On ch=1 n=c#6 v=78
261600 Off ch=1 n=c#6 v=80
261840 On ch=1 n=a5 v=78
261960 Off ch=1 n=a5 v=80
261960 On ch=1 n=b5 v=78
262080 Off ch=1 n=b5 v=80
262080 On ch=1 n=a5 v=78
262560 Off ch=1 n=a5 v=80
262560 On ch=1 n=g#5 v=78
263040 Off ch=1 n=g#5 v=80
263520 On ch=1 n=b5 v=78
264960 Off ch=1 n=b5 v=80
264960 On ch=1 n=b5 v=78
266400 Off ch=1 n=b5 v=80
266400 On ch=1 n=e6 v=78
267840 Off ch=1 n=e6 v=80
267840 On ch=1 n=f#6 v=78
269280 Off ch=1 n=f#6 v=80
269280 On ch=1 n=f#6 v=78
269760 Off ch=1 n=f#6 v=80
269760 On ch=1 n=e6 v=78
270240 Off ch=1 n=e6 v=80
270720 On ch=1 n=g#6 v=84
272160 Off ch=1 n=g#6 v=80
272160 On ch=1 n=a6 v=90
273120 Off ch=1 n=a6 v=80
273120 On ch=1 n=g#6 v=90
273360 On ch=1 n=f#5 v=90
273600 Off ch=1 n=f#5 v=80
273600 Off ch=1 n=g#6 v=80
273600 On ch=1 n=f#6 v=90
274560 Off ch=1 n=f#6 v=80
274560 On ch=1 n=f6 v=84
274800 On ch=1 n=g#5 v=80
275040 Off ch=1 n=g#5 v=80
275040 Off ch=1 n=f6 v=80
275040 On ch=1 n=f6 v=78
276480 Off ch=1 n=f6 v=80
276480 On ch=1 n=f#6 v=78
277680 On ch=1 n=f#5 v=90
277920 Off ch=1 n=f#6 v=80
279360 Off ch=1 n=f#5 v=80
279360 On ch=1 n=f5 v=90
280320 Off ch=1 n=f5 v=80
280320 On ch=1 n=f#5 v=90
280800 Off ch=1 n=f#5 v=80
280800 On ch=1 n=a5 v=90
282240 Off ch=1 n=a5 v=80
282240 On ch=1 n=g5 v=90
282240 On ch=1 n=g6 v=90
283200 Off ch=1 n=g6 v=80
283200 Off ch=1 n=g5 v=80
283200 On ch=1 n=f#5 v=90
283680 Off ch=1 n=f#5 v=80
283680 On ch=1 n=f5 v=90
285120 Off ch=1 n=f5 v=80
285120 On ch=1 n=e5 v=90
286080 Off ch=1 n=e5 v=80
286080 On ch=1 n=f5 v=90
286560 Off ch=1 n=f5 v=80
286560 On ch=1 n=g#5 v=90
288000 Off ch=1 n=g#5 v=80
288000 On ch=1 n=f#5 v=90
289440 Off ch=1 n=f#5 v=80
289440 On ch=1 n=a3 v=90
290880 Off ch=1 n=a3 v=80
290880 On ch=1 n=g#3 v=90
291840 Off ch=1 n=g#3 v=80
291840 On ch=1 n=a3 v=90
292320 Off ch=1 n=a3 v=80
292320 On ch=1 n=b3 v=90
293760 Off ch=1 n=b3 v=80
293760 On ch=1 n=c4 v=90
295200 Off ch=1 n=c4 v=80
295200 On ch=1 n=c#4 v=90
296640 Off ch=1 n=c#4 v=80
296640 On ch=1 n=c#3 v=90
298080 Off ch=1 n=c#3 v=80
298080 On ch=1 n=f#3 v=90
298560 Off ch=1 n=f#3 v=80
299520 On ch=1 n=e3 v=78
300000 Off ch=1 n=e3 v=80
300960 On ch=1 n=e6 v=78
302400 Off ch=1 n=e6 v=80
302400 On ch=1 n=f#6 v=78
303840 Off ch=1 n=f#6 v=80
303840 On ch=1 n=d6 v=78
304320 Off ch=1 n=d6 v=80
304320 On ch=1 n=c#6 v=78
304800 Off ch=1 n=c#6 v=80
305280 On ch=1 n=e6 v=78
306240 Off ch=1 n=e6 v=80
306720 On ch=1 n=c#6 v=78
307680 Off ch=1 n=c#6 v=80
307920 On ch=1 n=a5 v=78
308040 Off ch=1 n=a5 v=80
308040 On ch=1 n=b5 v=78
308160 Off ch=1 n=b5 v=80
308160 On ch=1 n=a5 v=78
308640 Off ch=1 n=a5 v=80
308640 On ch=1 n=g#5 v=78
309120 Off ch=1 n=g#5 v=80
309600 On ch=1 n=b5 v=78
311040 Off ch=1 n=b5 v=80
311040 On ch=1 n=b5 v=78
312480 Off ch=1 n=b5 v=80
312480 On ch=1 n=e6 v=78
313920 Off ch=1 n=e6 v=80
313920 On ch=1 n=f#6 v=78
315360 Off ch=1 n=f#6 v=80
315360 On ch=1 n=f#6 v=78
315840 Off ch=1 n=f#6 v=80
315840 On ch=1 n=e6 v=78
316320 Off ch=1 n=e6 v=80
316800 On ch=1 n=g#6 v=84
318240 Off ch=1 n=g#6 v=80
318240 On ch=1 n=a6 v=90
319680 Off ch=1 n=a6 v=80
319680 On ch=1 n=b6 v=90
320400 Off ch=1 n=b6 v=80
320400 On ch=1 n=a6 v=90
320640 Off ch=1 n=a6 v=80
320640 On ch=1 n=f#6 v=90
320880 Off ch=1 n=f#6 v=80
320880 On ch=1 n=b5 v=90
321120 Off ch=1 n=b5 v=80
321120 On ch=1 n=e6 v=90
321360 Off ch=1 n=e6 v=80
321360 On ch=1 n=d6 v=90
321600 Off ch=1 n=d6 v=80
321600 On ch=1 n=b5 v=90
321840 Off ch=1 n=b5 v=80
321840 On ch=1 n=g#5 v=84
322080 Off ch=1 n=g#5 v=80
322080 On ch=1 n=e5 v=84
322320 Off ch=1 n=e5 v=80
322320 On ch=1 n=d5 v=84
322560 Off ch=1 n=d5 v=80
322560 On ch=1 n=e5 v=78
322560 On ch=1 n=c#5 v=78
322560 On ch=1 n=a5 v=78
323040 Off ch=1 n=a5 v=80
323040 Off ch=1 n=c#5 v=80
323040 Off ch=1 n=e5 v=80
324000 On ch=1 n=e4 v=115
324000 On ch=1 n=e5 v=115
324480 On ch=1 n=g#5 v=102
324480 On ch=1 n=g#4 v=102
324840 Off ch=1 n=g#4 v=80
324840 Off ch=1 n=g#5 v=80
324960 On ch=1 n=c#6 v=102
324960 On ch=1 n=c#5 v=102
325320 Off ch=1 n=c#5 v=80
325320 Off ch=1 n=c#6 v=80
325440 Off ch=1 n=e5 v=80
325440 Off ch=1 n=e4 v=80
325440 On ch=1 n=b4 v=102
325440 On ch=1 n=b5 v=102
325800 Off ch=1 n=b5 v=80
325800 Off ch=1 n=b4 v=80
325920 On ch=1 n=f#5 v=106
325920 On ch=1 n=f#4 v=106
326280 Off ch=1 n=f#4 v=80
326280 Off ch=1 n=f#5 v=80
326400 On ch=1 n=g#5 v=110
326400 On ch=1 n=g#4 v=110
326760 Off ch=1 n=g#4 v=80
326760 Off ch=1 n=g#5 v=80
326880 On ch=1 n=a5 v=114
326880 On ch=1 n=a4 v=114
327240 Off ch=1 n=a4 v=80
327240 Off ch=1 n=a5 v=80
327360 On ch=1 n=c#5 v=118
327360 On ch=1 n=c#6 v=118
327720 Off ch=1 n=c#6 v=80
327720 Off ch=1 n=c#5 v=80
327840 On ch=1 n=e6 v=122
327840 On ch=1 n=e5 v=122
328200 Off ch=1 n=e5 v=80
328200 Off ch=1 n=e6 v=80
328320 On ch=1 n=a6 v=102
328320 On ch=1 n=a5 v=102
329280 Off ch=1 n=a5 v=80
329280 Off ch=1 n=a6 v=80
329280 On ch=1 n=g#6 v=102
329280 On ch=1 n=d6 v=102
329280 On ch=1 n=g#5 v=102
329760 Off ch=1 n=g#5 v=80
329760 Off ch=1 n=d6 v=80
329760 Off ch=1 n=g#6 v=80
329760 On ch=1 n=g#6 v=127
329760 On ch=1 n=g#5 v=127
329760 On ch=1 n=c#6 v=127
331200 Off ch=1 n=g#5 v=80
331200 Off ch=1 n=g#6 v=80
331200 On ch=1 n=f#6 v=102
331200 On ch=1 n=f#5 v=102
332160 Off ch=1 n=f#5 v=80
332160 Off ch=1 n=c#6 v=80
332160 Off ch=1 n=f#6 v=80
332160 On ch=1 n=e6 v=102
332160 On ch=1 n=c#6 v=102
332160 On ch=1 n=e5 v=102
332640 Off ch=1 n=e5 v=80
332640 Off ch=1 n=c#6 v=80
332640 Off ch=1 n=e6 v=80
332640 On ch=1 n=b5 v=90
332640 On ch=1 n=d#6 v=90
332640 On ch=1 n=d#5 v=90
333600 Off ch=1 n=d#6 v=80
333600 Off ch=1 n=b5 v=80
333600 On ch=1 n=c#6 v=93
333600 On ch=1 n=a5 v=93
334560 Off ch=1 n=a5 v=80
334560 Off ch=1 n=c#6 v=80
334560 On ch=1 n=g#5 v=96
334560 On ch=1 n=b5 v=96
334920 Off ch=1 n=b5 v=80
334920 Off ch=1 n=g#5 v=80
335040 Off ch=1 n=d#5 v=80
335040 On ch=1 n=a5 v=99
335040 On ch=1 n=f#5 v=99
335040 On ch=1 n=a4 v=99
335400 Off ch=1 n=a4 v=80
335400 Off ch=1 n=f#5 v=80
335400 Off ch=1 n=a5 v=80
335520 On ch=1 n=g#4 v=102
335520 On ch=1 n=g#5 v=102
335880 Off ch=1 n=g#5 v=80
335880 Off ch=1 n=g#4 v=80
336000 On ch=1 n=b4 v=102
336000 On ch=1 n=b5 v=102
336360 Off ch=1 n=b5 v=80
336360 Off ch=1 n=b4 v=80
336480 On ch=1 n=f#6 v=102
336480 On ch=1 n=f#5 v=102
336840 Off ch=1 n=f#5 v=80
336840 Off ch=1 n=f#6 v=80
336960 On ch=1 n=e5 v=102
336960 On ch=1 n=e6 v=102
337320 Off ch=1 n=e6 v=80
337320 Off ch=1 n=e5 v=80
337440 On ch=1 n=f#5 v=90
337440 On ch=1 n=f#4 v=90
337680 Off ch=1 n=f#4 v=80
337680 Off ch=1 n=f#5 v=80
337920 On ch=1 n=g#5 v=90
337920 On ch=1 n=g#4 v=90
338160 Off ch=1 n=g#4 v=80
338160 Off ch=1 n=g#5 v=80
338400 On ch=1 n=a5 v=90
338400 On ch=1 n=a4 v=90
338640 Off ch=1 n=a4 v=80
338640 Off ch=1 n=a5 v=80
338880 On ch=1 n=c#5 v=90
338880 On ch=1 n=c#6 v=90
339120 Off ch=1 n=c#6 v=80
339120 Off ch=1 n=c#5 v=80
339360 On ch=1 n=f#6 v=90
339360 On ch=1 n=f#5 v=90
339600 Off ch=1 n=f#5 v=80
339600 Off ch=1 n=f#6 v=80
339840 On ch=1 n=e6 v=90
339840 On ch=1 n=e5 v=90
340080 Off ch=1 n=e5 v=80
340080 Off ch=1 n=e6 v=80
340320 On ch=1 n=a5 v=90
340320 On ch=1 n=a4 v=90
340560 Off ch=1 n=a4 v=80
340560 Off ch=1 n=a5 v=80
340800 On ch=1 n=a#5 v=90
340800 On ch=1 n=a#4 v=90
341040 Off ch=1 n=a#4 v=80
341040 Off ch=1 n=a#5 v=80
341280 On ch=1 n=b5 v=90
341280 On ch=1 n=b4 v=90
341640 Off ch=1 n=b4 v=80
341640 Off ch=1 n=b5 v=80
341760 On ch=1 n=e6 v=92
341760 On ch=1 n=e5 v=92
342120 Off ch=1 n=e5 v=80
342120 Off ch=1 n=e6 v=80
342240 On ch=1 n=g#6 v=99
342240 On ch=1 n=g#5 v=99
342600 Off ch=1 n=g#5 v=80
342600 Off ch=1 n=g#6 v=80
342720 On ch=1 n=b6 v=106
342720 On ch=1 n=b5 v=106
343080 Off ch=1 n=b5 v=80
343080 Off ch=1 n=b6 v=80
343200 On ch=1 n=e7 v=113
343200 On ch=1 n=e6 v=113
343560 Off ch=1 n=e6 v=80
343560 Off ch=1 n=e7 v=80
343680 On ch=1 n=g#7 v=120
343680 On ch=1 n=g#6 v=120
344040 Off ch=1 n=g#6 v=80
344040 Off ch=1 n=g#7 v=80
344160 On ch=1 n=b7 v=127
344160 On ch=1 n=f#7 v=127
344160 On ch=1 n=d#7 v=127
344160 On ch=1 n=b6 v=127
344160 On ch=1 n=a6 v=127
345600 Off ch=1 n=a6 v=80
345600 Off ch=1 n=b6 v=80
345600 Off ch=1 n=d#7 v=80
345600 Off ch=1 n=f#7 v=80
345600 On ch=1 n=g#6 v=78
345600 On ch=1 n=e7 v=78
346080 Off ch=1 n=e7 v=80
346080 Off ch=1 n=b7 v=80
346080 Off ch=1 n=g#6 v=80
346560 On ch=1 n=e5 v=53
346560 On ch=1 n=c5 v=53
346560 On ch=1 n=g5 v=53
347520 Off ch=1 n=c5 v=80
347520 Off ch=1 n=e5 v=80
347520 On ch=1 n=b4 v=53
347520 On ch=1 n=d5 v=53
348000 Off ch=1 n=d5 v=80
348000 Off ch=1 n=b4 v=80
348000 On ch=1 n=a#4 v=53
348000 On ch=1 n=c#5 v=53
348480 Off ch=1 n=c#5 v=80
348480 Off ch=1 n=a#4 v=80
348480 On ch=1 n=d5 v=53
348480 On ch=1 n=b4 v=53
348960 Off ch=1 n=b4 v=80
348960 Off ch=1 n=d5 v=80
348960 On ch=1 n=c5 v=53
348960 On ch=1 n=e5 v=53
349440 Off ch=1 n=e5 v=80
349440 Off ch=1 n=g5 v=80
349440 Off ch=1 n=c5 v=80
349440 On ch=1 n=g5 v=53
349440 On ch=1 n=f5 v=53
349440 On ch=1 n=d5 v=53
350400 Off ch=1 n=d5 v=80
350400 Off ch=1 n=f5 v=80
350400 Off ch=1 n=g5 v=80
350400 On ch=1 n=e5 v=61
350400 On ch=1 n=c5 v=61
350640 Off ch=1 n=c5 v=80
350640 Off ch=1 n=e5 v=80
350880 On ch=1 n=g5 v=69
350880 On ch=1 n=e5 v=69
351120 Off ch=1 n=e5 v=80
351120 Off ch=1 n=g5 v=80
351360 On ch=1 n=g5 v=78
351360 On ch=1 n=e6 v=78
352320 Off ch=1 n=e6 v=80
352320 Off ch=1 n=g5 v=80
352320 On ch=1 n=c6 v=53
352320 On ch=1 n=g5 v=53
352320 On ch=1 n=e5 v=53
353280 Off ch=1 n=e5 v=80
353280 Off ch=1 n=g5 v=80
353280 Off ch=1 n=c6 v=80
353280 On ch=1 n=b4 v=53
353280 On ch=1 n=d5 v=53
353280 On ch=1 n=g5 v=53
353760 Off ch=1 n=d5 v=80
353760 Off ch=1 n=b4 v=80
353760 On ch=1 n=a#4 v=53
353760 On ch=1 n=c#5 v=53
354240 Off ch=1 n=c#5 v=80
354240 Off ch=1 n=a#4 v=80
354240 On ch=1 n=d5 v=53
354240 On ch=1 n=b4 v=53
354720 Off ch=1 n=b4 v=80
354720 Off ch=1 n=d5 v=80
354720 On ch=1 n=c5 v=53
354720 On ch=1 n=e5 v=53
355200 Off ch=1 n=e5 v=80
355200 Off ch=1 n=g5 v=80
355200 Off ch=1 n=c5 v=80
355200 On ch=1 n=g5 v=53
355200 On ch=1 n=f5 v=53
355200 On ch=1 n=d5 v=53
356160 Off ch=1 n=d5 v=80
356160 Off ch=1 n=f5 v=80
356160 Off ch=1 n=g5 v=80
356160 On ch=1 n=e5 v=61
356160 On ch=1 n=c5 v=61
356400 Off ch=1 n=c5 v=80
356400 Off ch=1 n=e5 v=80
356640 On ch=1 n=g4 v=69
356640 On ch=1 n=c5 v=69
356880 Off ch=1 n=c5 v=80
356880 Off ch=1 n=g4 v=80
357120 On ch=1 n=e4 v=78
357120 On ch=1 n=g4 v=78
357600 Off ch=1 n=g4 v=80
357600 Off ch=1 n=e4 v=80
358080 On ch=1 n=c5 v=53
358080 On ch=1 n=e5 v=53
358080 On ch=1 n=g5 v=53
359040 Off ch=1 n=e5 v=80
359040 Off ch=1 n=c5 v=80
359040 On ch=1 n=d5 v=53
359040 On ch=1 n=b4 v=53
359520 Off ch=1 n=b4 v=80
359520 Off ch=1 n=d5 v=80
359520 On ch=1 n=a#4 v=53
359520 On ch=1 n=c#5 v=53
360000 Off ch=1 n=c#5 v=80
360000 Off ch=1 n=a#4 v=80
360000 On ch=1 n=d5 v=53
360000 On ch=1 n=b4 v=53
360480 Off ch=1 n=b4 v=80
360480 Off ch=1 n=d5 v=80
360480 On ch=1 n=c5 v=53
360480 On ch=1 n=e5 v=53
360960 Off ch=1 n=e5 v=80
360960 Off ch=1 n=g5 v=80
360960 Off ch=1 n=c5 v=80
360960 On ch=1 n=g5 v=53
360960 On ch=1 n=f5 v=53
360960 On ch=1 n=d5 v=53
361920 Off ch=1 n=d5 v=80
361920 Off ch=1 n=f5 v=80
361920 Off ch=1 n=g5 v=80
361920 On ch=1 n=e5 v=61
361920 On ch=1 n=c5 v=61
362160 Off ch=1 n=c5 v=80
362160 Off ch=1 n=e5 v=80
362400 On ch=1 n=g5 v=69
362400 On ch=1 n=e5 v=69
362640 Off ch=1 n=e5 v=80
362640 Off ch=1 n=g5 v=80
362880 On ch=1 n=g5 v=78
362880 On ch=1 n=e6 v=78
363840 Off ch=1 n=e6 v=80
363840 Off ch=1 n=g5 v=80
363840 On ch=1 n=e6 v=90
363840 On ch=1 n=c#6 v=90
363840 On ch=1 n=a#5 v=90
363840 On ch=1 n=e5 v=90
364200 Off ch=1 n=e5 v=80
364200 Off ch=1 n=a#5 v=80
364200 Off ch=1 n=c#6 v=80
364200 Off ch=1 n=e6 v=80
364320 On ch=1 n=e6 v=95
364320 On ch=1 n=c#6 v=95
364320 On ch=1 n=a#5 v=95
364320 On ch=1 n=e5 v=95
365040 Off ch=1 n=e5 v=80
365040 Off ch=1 n=a#5 v=80
365040 Off ch=1 n=c#6 v=80
365040 Off ch=1 n=e6 v=80
365280 On ch=1 n=c#6 v=100
365280 On ch=1 n=a#5 v=100
365280 On ch=1 n=e5 v=100
365280 On ch=1 n=f6 v=100
365640 Off ch=1 n=f6 v=80
365640 Off ch=1 n=e5 v=80
365640 Off ch=1 n=a#5 v=80
365640 Off ch=1 n=c#6 v=80
365760 On ch=1 n=c#6 v=105
365760 On ch=1 n=a#5 v=105
365760 On ch=1 n=e5 v=105
365760 On ch=1 n=f6 v=105
366480 Off ch=1 n=f6 v=80
366480 Off ch=1 n=e5 v=80
366480 Off ch=1 n=a#5 v=80
366480 Off ch=1 n=c#6 v=80
366720 On ch=1 n=a#5 v=110
366720 On ch=1 n=e5 v=110
366720 On ch=1 n=f#6 v=110
366720 On ch=1 n=c#6 v=110
367080 Off ch=1 n=c#6 v=80
367080 Off ch=1 n=f#6 v=80
367080 Off ch=1 n=e5 v=80
367080 Off ch=1 n=a#5 v=80
367200 On ch=1 n=f#6 v=115
367200 On ch=1 n=a5 v=115
367200 On ch=1 n=b5 v=115
367200 On ch=1 n=d#5 v=115
369120 Off ch=1 n=d#5 v=80
369120 Off ch=1 n=b5 v=80
369120 Off ch=1 n=a5 v=80
369120 Off ch=1 n=f#6 v=80
370080 On ch=1 n=e4 v=102
370080 On ch=1 n=e5 v=102
370440 Off ch=1 n=e5 v=80
370440 Off ch=1 n=e4 v=80
370560 On ch=1 n=g#5 v=102
370560 On ch=1 n=g#4 v=102
370920 Off ch=1 n=g#4 v=80
370920 Off ch=1 n=g#5 v=80
371040 On ch=1 n=c#6 v=102
371040 On ch=1 n=c#5 v=102
371400 Off ch=1 n=c#5 v=80
371400 Off ch=1 n=c#6 v=80
371520 On ch=1 n=b4 v=102
371520 On ch=1 n=b5 v=102
371880 Off ch=1 n=b5 v=80
371880 Off ch=1 n=b4 v=80
372000 On ch=1 n=f#5 v=106
372000 On ch=1 n=f#4 v=106
372360 Off ch=1 n=f#4 v=80
372360 Off ch=1 n=f#5 v=80
372480 On ch=1 n=g#5 v=110
372480 On ch=1 n=g#4 v=110
372840 Off ch=1 n=g#4 v=80
372840 Off ch=1 n=g#5 v=80
372960 On ch=1 n=a5 v=114
372960 On ch=1 n=a4 v=114
373320 Off ch=1 n=a4 v=80
373320 Off ch=1 n=a5 v=80
373440 On ch=1 n=c#5 v=118
373440 On ch=1 n=c#6 v=118
373800 Off ch=1 n=c#6 v=80
373800 Off ch=1 n=c#5 v=80
373920 On ch=1 n=e6 v=122
373920 On ch=1 n=e5 v=122
374280 Off ch=1 n=e5 v=80
374280 Off ch=1 n=e6 v=80
374400 On ch=1 n=a6 v=102
374400 On ch=1 n=a5 v=102
375360 Off ch=1 n=a5 v=80
375360 Off ch=1 n=a6 v=80
375360 On ch=1 n=g#6 v=102
375360 On ch=1 n=d6 v=102
375360 On ch=1 n=g#5 v=102
375840 Off ch=1 n=g#5 v=80
375840 Off ch=1 n=d6 v=80
375840 Off ch=1 n=g#6 v=80
375840 On ch=1 n=g#6 v=127
375840 On ch=1 n=g#5 v=127
375840 On ch=1 n=c#6 v=127
377280 Off ch=1 n=g#5 v=80
377280 Off ch=1 n=g#6 v=80
377280 On ch=1 n=f#6 v=102
377280 On ch=1 n=f#5 v=102
378240 Off ch=1 n=f#5 v=80
378240 Off ch=1 n=c#6 v=80
378240 Off ch=1 n=f#6 v=80
378240 On ch=1 n=e6 v=102
378240 On ch=1 n=c#6 v=102
378240 On ch=1 n=e5 v=102
378720 Off ch=1 n=e5 v=80
378720 Off ch=1 n=c#6 v=80
378720 Off ch=1 n=e6 v=80
378720 On ch=1 n=b5 v=90
378720 On ch=1 n=d#6 v=90
378720 On ch=1 n=d#5 v=90
379680 Off ch=1 n=d#6 v=80
379680 Off ch=1 n=b5 v=80
379680 On ch=1 n=c#6 v=93
379680 On ch=1 n=a5 v=93
380640 Off ch=1 n=a5 v=80
380640 Off ch=1 n=c#6 v=80
380640 On ch=1 n=g#5 v=96
380640 On ch=1 n=b5 v=96
381000 Off ch=1 n=b5 v=80
381000 Off ch=1 n=g#5 v=80
381120 Off ch=1 n=d#5 v=80
381120 On ch=1 n=a5 v=99
381120 On ch=1 n=f#5 v=99
381120 On ch=1 n=a4 v=99
381480 Off ch=1 n=a4 v=80
381480 Off ch=1 n=f#5 v=80
381480 Off ch=1 n=a5 v=80
381600 On ch=1 n=g#4 v=102
381600 On ch=1 n=g#5 v=102
381960 Off ch=1 n=g#5 v=80
381960 Off ch=1 n=g#4 v=80
382080 On ch=1 n=b4 v=102
382080 On ch=1 n=b5 v=102
382440 Off ch=1 n=b5 v=80
382440 Off ch=1 n=b4 v=80
382560 On ch=1 n=f#6 v=102
382560 On ch=1 n=f#5 v=102
382920 Off ch=1 n=f#5 v=80
382920 Off ch=1 n=f#6 v=80
383040 On ch=1 n=e5 v=102
383040 On ch=1 n=e6 v=102
383400 Off ch=1 n=e6 v=80
383400 Off ch=1 n=e5 v=80
383520 On ch=1 n=f#4 v=102
383520 On ch=1 n=f#5 v=102
383760 Off ch=1 n=f#5 v=80
383760 Off ch=1 n=f#4 v=80
384000 On ch=1 n=g#5 v=102
384000 On ch=1 n=g#4 v=102
384240 Off ch=1 n=g#4 v=80
384240 Off ch=1 n=g#5 v=80
384480 On ch=1 n=a5 v=102
384480 On ch=1 n=a4 v=102
384720 Off ch=1 n=a4 v=80
384720 Off ch=1 n=a5 v=80
384960 On ch=1 n=e4 v=114
384960 On ch=1 n=e5 v=114
385200 Off ch=1 n=e5 v=80
385200 Off ch=1 n=e4 v=80
385440 On ch=1 n=f#5 v=114
385440 On ch=1 n=f#4 v=114
385680 Off ch=1 n=f#4 v=80
385680 Off ch=1 n=f#5 v=80
385920 On ch=1 n=g5 v=114
385920 On ch=1 n=g4 v=114
386160 Off ch=1 n=g4 v=80
386160 Off ch=1 n=g5 v=80
386400 On ch=1 n=d4 v=102
386400 On ch=1 n=d5 v=102
386640 Off ch=1 n=d5 v=80
386640 Off ch=1 n=d4 v=80
386880 On ch=1 n=e5 v=102
386880 On ch=1 n=e4 v=102
387120 Off ch=1 n=e4 v=80
387120 Off ch=1 n=e5 v=80
387360 On ch=1 n=f5 v=85
387360 On ch=1 n=f4 v=85
387720 Off ch=1 n=f4 v=80
387720 Off ch=1 n=f5 v=80
387840 On ch=1 n=a4 v=92
387840 On ch=1 n=a5 v=92
388200 Off ch=1 n=a5 v=80
388200 Off ch=1 n=a4 v=80
388320 On ch=1 n=c6 v=99
388320 On ch=1 n=c5 v=99
388680 Off ch=1 n=c5 v=80
388680 Off ch=1 n=c6 v=80
388800 On ch=1 n=f5 v=106
388800 On ch=1 n=f6 v=106
389160 Off ch=1 n=f6 v=80
389160 Off ch=1 n=f5 v=80
389280 On ch=1 n=a6 v=113
389280 On ch=1 n=a5 v=113
389640 Off ch=1 n=a5 v=80
389640 Off ch=1 n=a6 v=80
389760 On ch=1 n=c6 v=120
389760 On ch=1 n=c7 v=120
390120 Off ch=1 n=c7 v=80
390120 Off ch=1 n=c6 v=80
390240 On ch=1 n=f#6 v=127
390240 On ch=1 n=d#6 v=127
390240 On ch=1 n=b5 v=127
390240 On ch=1 n=a5 v=127
390240 On ch=1 n=b6 v=127
391680 Off ch=1 n=a5 v=80
391680 Off ch=1 n=b5 v=80
391680 Off ch=1 n=d#6 v=80
391680 Off ch=1 n=f#6 v=80
391680 On ch=1 n=e6 v=65
391680 On ch=1 n=g#5 v=65
392160 Off ch=1 n=g#5 v=80
392160 Off ch=1 n=b6 v=80
392160 Off ch=1 n=e6 v=80
392160 Meta TrkEnd
TrkEnd
MTrk
0 Meta TrkName "Piano Left Hand"
0 Meta 0x21 00
0 Meta 0x20 00
0 Par ch=1 c=10 v=64
0 PrCh ch=1 p=0
2760 On ch=1 n=d#3 v=102
2880 On ch=1 n=f#4 v=102
3360 Off ch=1 n=f#4 v=80
3360 Off ch=1 n=d#3 v=80
3720 On ch=1 n=d3 v=102
3840 On ch=1 n=f4 v=102
4320 Off ch=1 n=f4 v=80
4320 Off ch=1 n=d3 v=80
4320 On ch=1 n=c#3 v=120
4560 Off ch=1 n=c#3 v=80
4560 On ch=1 n=e4 v=102
6240 Off ch=1 n=e4 v=80
6240 On ch=1 n=b2 v=102
6720 On ch=1 n=d4 v=102
7200 Off ch=1 n=d4 v=80
7200 Off ch=1 n=b2 v=80
7200 On ch=1 n=a3 v=127
7200 On ch=1 n=a2 v=127
7680 Off ch=1 n=a2 v=80
7680 Off ch=1 n=a3 v=80
7680 On ch=1 n=c#4 v=102
7920 Off ch=1 n=c#4 v=80
8160 On ch=1 n=f4 v=102
8400 Off ch=1 n=f4 v=80
8640 On ch=1 n=f#4 v=102
9000 Off ch=1 n=f#4 v=80
9120 On ch=1 n=f#3 v=102
9480 Off ch=1 n=f#3 v=80
9600 On ch=1 n=a#3 v=102
9960 Off ch=1 n=a#3 v=80
10080 On ch=1 n=b3 v=102
10440 Off ch=1 n=b3 v=80
10560 On ch=1 n=d#4 v=102
10920 Off ch=1 n=d#4 v=80
11040 On ch=1 n=f#4 v=102
11400 Off ch=1 n=f#4 v=80
11520 On ch=1 n=b4 v=127
12480 Off ch=1 n=b4 v=80
12480 On ch=1 n=b3 v=102
12480 On ch=1 n=b2 v=102
12960 Off ch=1 n=b2 v=80
12960 Off ch=1 n=b3 v=80
12960 On ch=1 n=e3 v=115
12960 On ch=1 n=e4 v=115
15360 Off ch=1 n=e4 v=80
15360 Off ch=1 n=e3 v=80
15360 On ch=1 n=d3 v=102
15360 On ch=1 n=d4 v=102
15840 Off ch=1 n=d4 v=80
15840 Off ch=1 n=d3 v=80
15840 On ch=1 n=c#4 v=90
15840 On ch=1 n=c#3 v=90
16800 Off ch=1 n=c#3 v=80
16800 Off ch=1 n=c#4 v=80
16800 On ch=1 n=c3 v=90
16800 On ch=1 n=c4 v=90
17280 Off ch=1 n=c4 v=80
17280 Off ch=1 n=c3 v=80
17280 On ch=1 n=b3 v=90
17280 On ch=1 n=b2 v=90
18240 Off ch=1 n=b2 v=80
18240 Off ch=1 n=b3 v=80
18240 On ch=1 n=a#3 v=90
18240 On ch=1 n=a#2 v=90
18720 Off ch=1 n=a#2 v=80
18720 Off ch=1 n=a#3 v=80
18720 On ch=1 n=a2 v=115
18720 On ch=1 n=a3 v=115
21120 Off ch=1 n=a3 v=80
21120 Off ch=1 n=a2 v=80
21120 On ch=1 n=f3 v=102
21120 On ch=1 n=f2 v=102
21600 Off ch=1 n=f2 v=80
21600 Off ch=1 n=f3 v=80
21600 On ch=1 n=b3 v=127
21600 On ch=1 n=b2 v=127
23040 Off ch=1 n=b3 v=80
23040 On ch=1 n=e3 v=102
23040 On ch=1 n=e2 v=102
23520 Off ch=1 n=e2 v=80
23520 Off ch=1 n=b2 v=80
23520 Off ch=1 n=e3 v=80
25800 On ch=1 n=d#3 v=102
25920 On ch=1 n=f#4 v=102
26400 Off ch=1 n=f#4 v=80
26400 Off ch=1 n=d#3 v=80
26760 On ch=1 n=d3 v=102
26880 On ch=1 n=f4 v=102
27360 Off ch=1 n=f4 v=80
27360 Off ch=1 n=d3 v=80
27360 On ch=1 n=c#3 v=120
27520 Off ch=1 n=c#3 v=80
27520 On ch=1 n=e4 v=102
29280 Off ch=1 n=e4 v=80
29280 On ch=1 n=b2 v=102
29760 On ch=1 n=d4 v=102
30240 Off ch=1 n=d4 v=80
30240 Off ch=1 n=b2 v=80
30240 On ch=1 n=a3 v=127
30240 On ch=1 n=a2 v=127
30720 Off ch=1 n=a2 v=80
30720 Off ch=1 n=a3 v=80
30720 On ch=1 n=c#4 v=102
30960 Off ch=1 n=c#4 v=80
31200 On ch=1 n=f4 v=102
31440 Off ch=1 n=f4 v=80
31680 On ch=1 n=f#4 v=102
32040 Off ch=1 n=f#4 v=80
32160 On ch=1 n=f#3 v=102
32520 Off ch=1 n=f#3 v=80
32640 On ch=1 n=a#3 v=102
33000 Off ch=1 n=a#3 v=80
33120 On ch=1 n=b3 v=102
33480 Off ch=1 n=b3 v=80
33600 On ch=1 n=d#4 v=102
33960 Off ch=1 n=d#4 v=80
34080 On ch=1 n=f#4 v=102
34440 Off ch=1 n=f#4 v=80
34560 On ch=1 n=b4 v=127
35520 Off ch=1 n=b4 v=80
35520 On ch=1 n=b3 v=102
35520 On ch=1 n=b2 v=102
36000 Off ch=1 n=b2 v=80
36000 Off ch=1 n=b3 v=80
36000 On ch=1 n=e3 v=115
36000 On ch=1 n=e4 v=115
38400 Off ch=1 n=e4 v=80
38400 Off ch=1 n=e3 v=80
38400 On ch=1 n=d3 v=102
38400 On ch=1 n=d4 v=102
38880 Off ch=1 n=d4 v=80
38880 Off ch=1 n=d3 v=80
38880 On ch=1 n=c#4 v=90
38880 On ch=1 n=c#3 v=90
39840 Off ch=1 n=c#3 v=80
39840 Off ch=1 n=c#4 v=80
39840 On ch=1 n=c3 v=90
39840 On ch=1 n=c4 v=90
40320 Off ch=1 n=c4 v=80
40320 Off ch=1 n=c3 v=80
40320 On ch=1 n=b3 v=90
40320 On ch=1 n=b2 v=90
41280 Off ch=1 n=b2 v=80
41280 Off ch=1 n=b3 v=80
41280 On ch=1 n=a#3 v=90
41280 On ch=1 n=a#2 v=90
41760 Off ch=1 n=a#2 v=80
41760 Off ch=1 n=a#3 v=80
41760 On ch=1 n=a2 v=115
41760 On ch=1 n=a3 v=115
44160 Off ch=1 n=a3 v=80
44160 Off ch=1 n=a2 v=80
44160 On ch=1 n=f3 v=102
44160 On ch=1 n=f2 v=102
44640 Off ch=1 n=f2 v=80
44640 Off ch=1 n=f3 v=80
44640 On ch=1 n=b3 v=127
44640 On ch=1 n=b2 v=127
46080 Off ch=1 n=b3 v=80
46080 On ch=1 n=e3 v=78
46080 On ch=1 n=e2 v=78
46560 Off ch=1 n=e2 v=80
46560 Off ch=1 n=b2 v=80
46560 Off ch=1 n=e3 v=80
47040 On ch=1 n=g3 v=65
47520 Off ch=1 n=g3 v=80
47520 On ch=1 n=c3 v=65
47640 On ch=1 n=c4 v=65
47680 Off ch=1 n=c3 v=80
48000 Off ch=1 n=c4 v=80
48000 On ch=1 n=e4 v=69
48480 Off ch=1 n=e4 v=80
48480 On ch=1 n=a4 v=73
48960 Off ch=1 n=a4 v=80
48960 On ch=1 n=g4 v=77
49440 Off ch=1 n=g4 v=80
49440 On ch=1 n=d4 v=81
49920 Off ch=1 n=d4 v=80
49920 On ch=1 n=e4 v=85
50400 Off ch=1 n=e4 v=80
50400 On ch=1 n=c4 v=90
51840 Off ch=1 n=c4 v=80
51840 On ch=1 n=b3 v=84
52800 Off ch=1 n=b3 v=80
52800 On ch=1 n=a3 v=72
53280 Off ch=1 n=a3 v=80
53280 On ch=1 n=c3 v=78
53280 On ch=1 n=g3 v=78
56640 Off ch=1 n=g3 v=80
56640 Off ch=1 n=c3 v=80
58560 On ch=1 n=g3 v=65
59040 Off ch=1 n=g3 v=80
59040 On ch=1 n=c3 v=65
59160 On ch=1 n=c4 v=65
59200 Off ch=1 n=c3 v=80
59520 Off ch=1 n=c4 v=80
59520 On ch=1 n=e4 v=69
60000 Off ch=1 n=e4 v=80
60000 On ch=1 n=a4 v=73
60480 Off ch=1 n=a4 v=80
60480 On ch=1 n=g4 v=77
60960 Off ch=1 n=g4 v=80
60960 On ch=1 n=d4 v=81
61440 Off ch=1 n=d4 v=80
61440 On ch=1 n=e4 v=85
61920 Off ch=1 n=e4 v=80
61920 On ch=1 n=c4 v=90
63360 Off ch=1 n=c4 v=80
63360 On ch=1 n=b3 v=84
64320 Off ch=1 n=b3 v=80
64320 On ch=1 n=a3 v=72
64800 Off ch=1 n=a3 v=80
64800 On ch=1 n=b2 v=75
64800 On ch=1 n=g3 v=75
66240 Off ch=1 n=b2 v=80
66240 On ch=1 n=c3 v=90
66720 Off ch=1 n=g3 v=80
66720 On ch=1 n=c4 v=90
67680 Off ch=1 n=c3 v=80
67680 On ch=1 n=d3 v=90
68160 Off ch=1 n=c4 v=80
68160 On ch=1 n=d4 v=85
69120 Off ch=1 n=d3 v=80
69120 On ch=1 n=g3 v=75
70080 Off ch=1 n=d4 v=80
70080 Off ch=1 n=g3 v=80
70080 On ch=1 n=g3 v=65
70560 Off ch=1 n=g3 v=80
70560 On ch=1 n=c3 v=65
70680 On ch=1 n=c4 v=65
70720 Off ch=1 n=c3 v=80
71040 Off ch=1 n=c4 v=80
71040 On ch=1 n=e4 v=69
71520 Off ch=1 n=e4 v=80
71520 On ch=1 n=a4 v=73
72000 Off ch=1 n=a4 v=80
72000 On ch=1 n=g4 v=77
72480 Off ch=1 n=g4 v=80
72480 On ch=1 n=d4 v=81
72960 Off ch=1 n=d4 v=80
72960 On ch=1 n=e4 v=85
73440 Off ch=1 n=e4 v=80
73440 On ch=1 n=c4 v=90
74880 Off ch=1 n=c4 v=80
74880 On ch=1 n=b3 v=84
75840 Off ch=1 n=b3 v=80
75840 On ch=1 n=a3 v=72
76320 Off ch=1 n=a3 v=80
76320 On ch=1 n=g3 v=78
76320 On ch=1 n=c3 v=78
79680 Off ch=1 n=c3 v=80
79680 Off ch=1 n=g3 v=80
81600 On ch=1 n=g3 v=65
82080 Off ch=1 n=g3 v=80
82080 On ch=1 n=c3 v=65
82200 On ch=1 n=c4 v=65
82240 Off ch=1 n=c3 v=80
82560 Off ch=1 n=c4 v=80
82560 On ch=1 n=e4 v=69
83040 Off ch=1 n=e4 v=80
83040 On ch=1 n=a4 v=73
83520 Off ch=1 n=a4 v=80
83520 On ch=1 n=g4 v=77
84000 Off ch=1 n=g4 v=80
84000 On ch=1 n=d4 v=81
84480 Off ch=1 n=d4 v=80
84480 On ch=1 n=e4 v=85
84960 Off ch=1 n=e4 v=80
84960 On ch=1 n=c4 v=90
86400 Off ch=1 n=c4 v=80
86400 On ch=1 n=b3 v=84
87360 Off ch=1 n=b3 v=80
87360 On ch=1 n=a3 v=72
87840 Off ch=1 n=a3 v=80
87840 On ch=1 n=b2 v=75
87840 On ch=1 n=g3 v=75
89280 Off ch=1 n=b2 v=80
89280 On ch=1 n=c3 v=90
89760 Off ch=1 n=g3 v=80
89760 On ch=1 n=c4 v=90
90720 Off ch=1 n=c3 v=80
90720 On ch=1 n=d3 v=90
91200 Off ch=1 n=c4 v=80
91200 On ch=1 n=d4 v=85
92160 Off ch=1 n=d3 v=80
92160 On ch=1 n=g3 v=75
93120 Off ch=1 n=d4 v=80
93120 Off ch=1 n=g3 v=80
93600 On ch=1 n=g3 v=120
93600 On ch=1 n=g2 v=120
94560 On ch=1 n=g4 v=90
95040 Off ch=1 n=g4 v=80
95040 On ch=1 n=g#4 v=90
95520 Off ch=1 n=g#4 v=80
95520 On ch=1 n=c5 v=90
96000 Off ch=1 n=c5 v=80
96000 On ch=1 n=g5 v=90
96480 Off ch=1 n=g2 v=80
96480 Off ch=1 n=g3 v=80
96480 Off ch=1 n=g5 v=80
96480 On ch=1 n=f5 v=90
96960 Off ch=1 n=f5 v=80
96960 On ch=1 n=f4 v=90
97440 Off ch=1 n=f4 v=80
97440 On ch=1 n=f#4 v=90
98400 Off ch=1 n=f#4 v=80
98400 On ch=1 n=g4 v=90
98880 Off ch=1 n=g4 v=80
98880 On ch=1 n=g3 v=102
99360 Off ch=1 n=g3 v=80
99360 On ch=1 n=g#3 v=102
99840 Off ch=1 n=g#3 v=80
99840 On ch=1 n=c4 v=105
100320 Off ch=1 n=c4 v=80
100320 On ch=1 n=g4 v=108
100800 Off ch=1 n=g4 v=80
100800 On ch=1 n=f4 v=111
101280 Off ch=1 n=f4 v=80
101280 On ch=1 n=c4 v=114
101760 Off ch=1 n=c4 v=80
101760 On ch=1 n=d#4 v=114
102240 Off ch=1 n=d#4 v=80
102240 On ch=1 n=d4 v=114
102720 On ch=1 n=f3 v=114
103200 Off ch=1 n=f3 v=80
103200 Off ch=1 n=d4 v=80
103200 On ch=1 n=f#3 v=114
103200 On ch=1 n=c4 v=114
103680 Off ch=1 n=f#3 v=80
103680 On ch=1 n=g3 v=114
104160 Off ch=1 n=c4 v=80
104160 On ch=1 n=b3 v=114
104640 Off ch=1 n=g3 v=80
104640 Off ch=1 n=b3 v=80
104640 On ch=1 n=c4 v=102
104640 On ch=1 n=c3 v=102
104880 Off ch=1 n=c3 v=80
104880 Off ch=1 n=c4 v=80
105120 On ch=1 n=f3 v=127
105120 On ch=1 n=f2 v=127
106560 Off ch=1 n=f2 v=80
106560 Off ch=1 n=f3 v=80
106560 On ch=1 n=f3 v=108
106560 On ch=1 n=f2 v=108
106800 Off ch=1 n=f2 v=80
106800 Off ch=1 n=f3 v=80
107520 On ch=1 n=d#3 v=114
107520 On ch=1 n=d#4 v=114
107760 Off ch=1 n=d#4 v=80
107760 Off ch=1 n=d#3 v=80
108000 On ch=1 n=g#3 v=127
108000 On ch=1 n=g#2 v=127
109440 Off ch=1 n=g#2 v=80
109440 Off ch=1 n=g#3 v=80
109440 On ch=1 n=g#3 v=108
109440 On ch=1 n=g#2 v=108
109680 Off ch=1 n=g#2 v=80
109680 Off ch=1 n=g#3 v=80
110400 On ch=1 n=g3 v=114
110400 On ch=1 n=g4 v=114
110640 Off ch=1 n=g4 v=80
110640 Off ch=1 n=g3 v=80
110880 On ch=1 n=c4 v=127
110880 On ch=1 n=c3 v=127
111840 Off ch=1 n=c3 v=80
111840 Off ch=1 n=c4 v=80
111840 On ch=1 n=f4 v=90
111840 On ch=1 n=f3 v=90
112080 Off ch=1 n=f3 v=80
112080 Off ch=1 n=f4 v=80
112320 On ch=1 n=d#4 v=90
112320 On ch=1 n=d#3 v=90
113280 Off ch=1 n=d#3 v=80
113280 Off ch=1 n=d#4 v=80
113280 On ch=1 n=d4 v=98
113280 On ch=1 n=d3 v=98
113760 Off ch=1 n=d3 v=80
113760 Off ch=1 n=d4 v=80
113760 On ch=1 n=c4 v=102
113760 On ch=1 n=c3 v=102
114720 Off ch=1 n=c3 v=80
114720 Off ch=1 n=c4 v=80
114720 On ch=1 n=g#3 v=110
114720 On ch=1 n=g#2 v=110
115200 Off ch=1 n=g#2 v=80
115200 Off ch=1 n=g#3 v=80
115200 On ch=1 n=g3 v=127
115200 On ch=1 n=g2 v=127
116080 Off ch=1 n=g2 v=80
116080 Off ch=1 n=g3 v=80
116160 On ch=1 n=g3 v=102
116640 Off ch=1 n=g3 v=80
116640 On ch=1 n=c3 v=65
116760 On ch=1 n=c4 v=65
116800 Off ch=1 n=c3 v=80
117120 Off ch=1 n=c4 v=80
117120 On ch=1 n=e4 v=69
117600 Off ch=1 n=e4 v=80
117600 On ch=1 n=a4 v=73
118080 Off ch=1 n=a4 v=80
118080 On ch=1 n=g4 v=77
118560 Off ch=1 n=g4 v=80
118560 On ch=1 n=d4 v=81
119040 Off ch=1 n=d4 v=80
119040 On ch=1 n=e4 v=85
119520 Off ch=1 n=e4 v=80
119520 On ch=1 n=c4 v=90
120960 Off ch=1 n=c4 v=80
120960 On ch=1 n=b3 v=90
121920 Off ch=1 n=b3 v=80
121920 On ch=1 n=a#3 v=90
121920 On ch=1 n=a#4 v=90
122400 Off ch=1 n=a#4 v=80
122400 Off ch=1 n=a#3 v=80
122400 On ch=1 n=a4 v=90
122400 On ch=1 n=a3 v=90
124800 Off ch=1 n=a3 v=80
124800 Off ch=1 n=a4 v=80
124800 On ch=1 n=g#4 v=90
124800 On ch=1 n=g#3 v=90
125280 Off ch=1 n=g#3 v=80
125280 Off ch=1 n=g#4 v=80
125280 On ch=1 n=g4 v=90
125280 On ch=1 n=g3 v=90
126240 Off ch=1 n=g3 v=80
126240 Off ch=1 n=g4 v=80
126240 On ch=1 n=f4 v=90
126240 On ch=1 n=f3 v=90
126720 Off ch=1 n=f3 v=80
126720 Off ch=1 n=f4 v=80
126720 On ch=1 n=e4 v=90
126720 On ch=1 n=e3 v=90
127680 Off ch=1 n=e3 v=80
127680 Off ch=1 n=e4 v=80
127680 On ch=1 n=d4 v=90
127680 On ch=1 n=d3 v=90
128160 Off ch=1 n=d3 v=80
128160 Off ch=1 n=d4 v=80
128160 On ch=1 n=c3 v=115
128160 On ch=1 n=c4 v=115
130560 Off ch=1 n=c4 v=80
130560 Off ch=1 n=c3 v=80
130560 On ch=1 n=a#2 v=102
130560 On ch=1 n=a#3 v=102
131040 Off ch=1 n=a#3 v=80
131040 Off ch=1 n=a#2 v=80
131040 On ch=1 n=a3 v=102
131040 On ch=1 n=a2 v=102
132000 Off ch=1 n=a2 v=80
132000 Off ch=1 n=a3 v=80
132000 On ch=1 n=b3 v=102
132000 On ch=1 n=b2 v=102
132480 Off ch=1 n=b2 v=80
132480 Off ch=1 n=b3 v=80
132480 On ch=1 n=g2 v=102
132480 On ch=1 n=g3 v=102
133440 Off ch=1 n=g3 v=80
133440 Off ch=1 n=g2 v=80
133440 On ch=1 n=a3 v=102
133440 On ch=1 n=a2 v=102
133920 Off ch=1 n=a2 v=80
133920 Off ch=1 n=a3 v=80
133920 On ch=1 n=f3 v=120
133920 On ch=1 n=f2 v=120
135840 Off ch=1 n=f2 v=80
135840 Off ch=1 n=f3 v=80
136320 On ch=1 n=f3 v=122
136320 On ch=1 n=d4 v=122
136320 On ch=1 n=a4 v=122
136800 Off ch=1 n=a4 v=80
136800 Off ch=1 n=d4 v=80
136800 Off ch=1 n=f3 v=80
136800 On ch=1 n=g3 v=127
136800 On ch=1 n=d4 v=127
136800 On ch=1 n=b4 v=127
138240 Off ch=1 n=b4 v=80
138240 Off ch=1 n=d4 v=80
138240 Off ch=1 n=g3 v=80
138240 On ch=1 n=e4 v=90
138240 On ch=1 n=c4 v=90
138240 On ch=1 n=c5 v=90
138720 Off ch=1 n=c5 v=80
138720 Off ch=1 n=c4 v=80
138720 Off ch=1 n=e4 v=80
139680 On ch=1 n=g2 v=120
139680 On ch=1 n=g3 v=120
140640 On ch=1 n=g4 v=90
141120 Off ch=1 n=g4 v=80
141120 On ch=1 n=g#4 v=90
141600 Off ch=1 n=g#4 v=80
141600 On ch=1 n=c5 v=90
142080 Off ch=1 n=c5 v=80
142080 On ch=1 n=g5 v=90
142560 Off ch=1 n=g3 v=80
142560 Off ch=1 n=g2 v=80
142560 Off ch=1 n=g5 v=80
142560 On ch=1 n=f5 v=90
143040 Off ch=1 n=f5 v=80
143040 On ch=1 n=f4 v=90
143520 Off ch=1 n=f4 v=80
143520 On ch=1 n=f#4 v=90
144480 Off ch=1 n=f#4 v=80
144480 On ch=1 n=g4 v=90
144960 Off ch=1 n=g4 v=80
144960 On ch=1 n=g3 v=78
145440 Off ch=1 n=g3 v=80
145440 On ch=1 n=g#3 v=78
145920 Off ch=1 n=g#3 v=80
145920 On ch=1 n=c4 v=78
146400 Off ch=1 n=c4 v=80
146400 On ch=1 n=g4 v=78
146880 Off ch=1 n=g4 v=80
146880 On ch=1 n=f4 v=78
147360 Off ch=1 n=f4 v=80
147360 On ch=1 n=c4 v=78
147840 Off ch=1 n=c4 v=80
147840 On ch=1 n=d#4 v=78
148320 Off ch=1 n=d#4 v=80
148320 On ch=1 n=d4 v=78
148800 On ch=1 n=f3 v=78
149280 Off ch=1 n=f3 v=80
149280 Off ch=1 n=d4 v=80
149280 On ch=1 n=f#3 v=78
149280 On ch=1 n=c4 v=78
149520 Off ch=1 n=c4 v=80
149520 Off ch=1 n=f#3 v=80
149760 On ch=1 n=g3 v=78
149760 On ch=1 n=c4 v=78
150240 Off ch=1 n=c4 v=80
150240 Off ch=1 n=g3 v=80
150240 On ch=1 n=b3 v=78
150720 Off ch=1 n=b3 v=80
150720 On ch=1 n=c4 v=102
150720 On ch=1 n=c3 v=102
150960 Off ch=1 n=c3 v=80
150960 Off ch=1 n=c4 v=80
151200 On ch=1 n=f3 v=127
151200 On ch=1 n=f2 v=127
152640 Off ch=1 n=f2 v=80
152640 Off ch=1 n=f3 v=80
152640 On ch=1 n=f3 v=108
152640 On ch=1 n=f2 v=108
152880 Off ch=1 n=f2 v=80
152880 Off ch=1 n=f3 v=80
153600 On ch=1 n=d#3 v=114
153600 On ch=1 n=d#4 v=114
153840 Off ch=1 n=d#4 v=80
153840 Off ch=1 n=d#3 v=80
154080 On ch=1 n=g#3 v=127
154080 On ch=1 n=g#2 v=127
155520 Off ch=1 n=g#2 v=80
155520 Off ch=1 n=g#3 v=80
155520 On ch=1 n=g#3 v=108
155520 On ch=1 n=g#2 v=108
155760 Off ch=1 n=g#2 v=80
155760 Off ch=1 n=g#3 v=80
156480 On ch=1 n=g3 v=114
156480 On ch=1 n=g4 v=114
156720 Off ch=1 n=g4 v=80
156720 Off ch=1 n=g3 v=80
156960 On ch=1 n=c4 v=127
156960 On ch=1 n=c3 v=127
157920 Off ch=1 n=c3 v=80
157920 Off ch=1 n=c4 v=80
157920 On ch=1 n=f4 v=90
157920 On ch=1 n=f3 v=90
158160 Off ch=1 n=f3 v=80
158160 Off ch=1 n=f4 v=80
158400 On ch=1 n=d#4 v=90
158400 On ch=1 n=d#3 v=90
159360 Off ch=1 n=d#3 v=80
159360 Off ch=1 n=d#4 v=80
159360 On ch=1 n=d4 v=98
159360 On ch=1 n=d3 v=98
159840 Off ch=1 n=d3 v=80
159840 Off ch=1 n=d4 v=80
159840 On ch=1 n=c4 v=102
159840 On ch=1 n=c3 v=102
160800 Off ch=1 n=c3 v=80
160800 Off ch=1 n=c4 v=80
160800 On ch=1 n=g#3 v=110
160800 On ch=1 n=g#2 v=110
161280 Off ch=1 n=g#2 v=80
161280 Off ch=1 n=g#3 v=80
161280 On ch=1 n=g2 v=127
161280 On ch=1 n=g3 v=127
162160 Off ch=1 n=g3 v=80
162160 Off ch=1 n=g2 v=80
162240 On ch=1 n=g3 v=102
162720 Off ch=1 n=g3 v=80
162720 On ch=1 n=c3 v=65
162840 On ch=1 n=c4 v=65
162880 Off ch=1 n=c3 v=80
163200 Off ch=1 n=c4 v=80
163200 On ch=1 n=e4 v=69
163680 Off ch=1 n=e4 v=80
163680 On ch=1 n=a4 v=73
164160 Off ch=1 n=a4 v=80
164160 On ch=1 n=g4 v=77
164640 Off ch=1 n=g4 v=80
164640 On ch=1 n=d4 v=81
165120 Off ch=1 n=d4 v=80
165120 On ch=1 n=e4 v=85
165600 Off ch=1 n=e4 v=80
165600 On ch=1 n=c4 v=90
167040 Off ch=1 n=c4 v=80
167040 On ch=1 n=b3 v=90
168000 Off ch=1 n=b3 v=80
168000 On ch=1 n=a#3 v=90
168000 On ch=1 n=a#4 v=90
168480 Off ch=1 n=a#4 v=80
168480 Off ch=1 n=a#3 v=80
168480 On ch=1 n=a4 v=90
168480 On ch=1 n=a3 v=90
170880 Off ch=1 n=a3 v=80
170880 Off ch=1 n=a4 v=80
170880 On ch=1 n=g#4 v=90
170880 On ch=1 n=g#3 v=90
171360 Off ch=1 n=g#3 v=80
171360 Off ch=1 n=g#4 v=80
171360 On ch=1 n=g4 v=90
171360 On ch=1 n=g3 v=90
172320 Off ch=1 n=g3 v=80
172320 Off ch=1 n=g4 v=80
172320 On ch=1 n=f4 v=90
172320 On ch=1 n=f3 v=90
172800 Off ch=1 n=f3 v=80
172800 Off ch=1 n=f4 v=80
172800 On ch=1 n=e4 v=90
172800 On ch=1 n=e3 v=90
173760 Off ch=1 n=e3 v=80
173760 Off ch=1 n=e4 v=80
173760 On ch=1 n=d4 v=90
173760 On ch=1 n=d3 v=90
174240 Off ch=1 n=d3 v=80
174240 Off ch=1 n=d4 v=80
174240 On ch=1 n=c3 v=115
174240 On ch=1 n=c4 v=115
176640 Off ch=1 n=c4 v=80
176640 Off ch=1 n=c3 v=80
176640 On ch=1 n=a#2 v=102
176640 On ch=1 n=a#3 v=102
177120 Off ch=1 n=a#3 v=80
177120 Off ch=1 n=a#2 v=80
177120 On ch=1 n=a3 v=102
177120 On ch=1 n=a2 v=102
178080 Off ch=1 n=a2 v=80
178080 Off ch=1 n=a3 v=80
178080 On ch=1 n=b3 v=102
178080 On ch=1 n=b2 v=102
178560 Off ch=1 n=b2 v=80
178560 Off ch=1 n=b3 v=80
178560 On ch=1 n=g2 v=102
178560 On ch=1 n=g3 v=102
179520 Off ch=1 n=g3 v=80
179520 Off ch=1 n=g2 v=80
179520 On ch=1 n=a3 v=102
179520 On ch=1 n=a2 v=102
180000 Off ch=1 n=a2 v=80
180000 Off ch=1 n=a3 v=80
180000 On ch=1 n=f3 v=120
180000 On ch=1 n=f2 v=120
181920 Off ch=1 n=f2 v=80
181920 Off ch=1 n=f3 v=80
182400 On ch=1 n=f3 v=122
182400 On ch=1 n=d4 v=122
182400 On ch=1 n=a4 v=122
182880 Off ch=1 n=a4 v=80
182880 Off ch=1 n=d4 v=80
182880 Off ch=1 n=f3 v=80
182880 On ch=1 n=g3 v=127
182880 On ch=1 n=d4 v=127
182880 On ch=1 n=b4 v=127
184320 Off ch=1 n=b4 v=80
184320 Off ch=1 n=d4 v=80
184320 Off ch=1 n=g3 v=80
184320 On ch=1 n=e4 v=78
184320 On ch=1 n=c4 v=78
184320 On ch=1 n=c5 v=78
184800 Off ch=1 n=c5 v=80
184800 Off ch=1 n=c4 v=80
184800 Off ch=1 n=e4 v=80
185280 On ch=1 n=f3 v=41
185280 On ch=1 n=c4 v=41
185760 Off ch=1 n=c4 v=80
185760 Off ch=1 n=f3 v=80
185760 On ch=1 n=f3 v=53
185760 On ch=1 n=c4 v=53
188160 Off ch=1 n=c4 v=80
188160 Off ch=1 n=f3 v=80
188160 On ch=1 n=f3 v=41
188160 On ch=1 n=c4 v=41
188640 Off ch=1 n=c4 v=80
188640 Off ch=1 n=f3 v=80
188640 On ch=1 n=c4 v=53
188640 On ch=1 n=f3 v=53
191040 Off ch=1 n=f3 v=80
191040 Off ch=1 n=c4 v=80
191040 On ch=1 n=f3 v=41
191040 On ch=1 n=c4 v=41
191520 Off ch=1 n=c4 v=80
191520 Off ch=1 n=f3 v=80
191520 On ch=1 n=f3 v=53
191520 On ch=1 n=c4 v=53
193920 Off ch=1 n=c4 v=80
193920 Off ch=1 n=f3 v=80
193920 On ch=1 n=f3 v=41
193920 On ch=1 n=c4 v=41
194400 Off ch=1 n=c4 v=80
194400 Off ch=1 n=f3 v=80
194400 On ch=1 n=f3 v=53
194400 On ch=1 n=c4 v=53
195360 Off ch=1 n=c4 v=80
195360 Off ch=1 n=f3 v=80
196800 On ch=1 n=f3 v=65
196800 On ch=1 n=c4 v=65
197280 Off ch=1 n=c4 v=80
197280 Off ch=1 n=f3 v=80
197280 On ch=1 n=c4 v=65
197280 On ch=1 n=f3 v=65
199680 Off ch=1 n=f3 v=80
199680 Off ch=1 n=c4 v=80
199680 On ch=1 n=c4 v=65
199680 On ch=1 n=f3 v=65
200160 Off ch=1 n=f3 v=80
200160 Off ch=1 n=c4 v=80
200160 On ch=1 n=c4 v=65
200160 On ch=1 n=f3 v=65
202560 Off ch=1 n=f3 v=80
202560 Off ch=1 n=c4 v=80
202560 On ch=1 n=b3 v=90
202560 On ch=1 n=b2 v=90
202920 Off ch=1 n=b2 v=80
202920 Off ch=1 n=b3 v=80
203040 On ch=1 n=b3 v=95
203040 On ch=1 n=b2 v=95
203760 Off ch=1 n=b2 v=80
203760 Off ch=1 n=b3 v=80
204000 On ch=1 n=b2 v=100
204000 On ch=1 n=b3 v=100
204360 Off ch=1 n=b3 v=80
204360 Off ch=1 n=b2 v=80
204480 On ch=1 n=b2 v=105
204480 On ch=1 n=b3 v=105
205200 Off ch=1 n=b3 v=80
205200 Off ch=1 n=b2 v=80
205440 On ch=1 n=f#3 v=102
205440 On ch=1 n=f#2 v=102
205800 Off ch=1 n=f#2 v=80
205800 Off ch=1 n=f#3 v=80
205920 On ch=1 n=b3 v=102
205920 On ch=1 n=b2 v=102
206280 Off ch=1 n=b2 v=80
206280 Off ch=1 n=b3 v=80
206400 On ch=1 n=d#4 v=104
206400 On ch=1 n=d#3 v=104
206760 Off ch=1 n=d#3 v=80
206760 Off ch=1 n=d#4 v=80
206880 On ch=1 n=g#4 v=104
206880 On ch=1 n=g#3 v=104
207240 Off ch=1 n=g#3 v=80
207240 Off ch=1 n=g#4 v=80
207360 On ch=1 n=f#4 v=106
207360 On ch=1 n=f#3 v=106
207720 Off ch=1 n=f#3 v=80
207720 Off ch=1 n=f#4 v=80
207840 On ch=1 n=c#4 v=106
207840 On ch=1 n=c#3 v=106
208200 Off ch=1 n=c#3 v=80
208200 Off ch=1 n=c#4 v=80
208320 On ch=1 n=d#4 v=108
208320 On ch=1 n=d#3 v=108
208680 Off ch=1 n=d#3 v=80
208680 Off ch=1 n=d#4 v=80
210240 On ch=1 n=f#4 v=102
210240 On ch=1 n=d#3 v=102
210720 Off ch=1 n=d#3 v=80
210720 Off ch=1 n=f#4 v=80
211200 On ch=1 n=f4 v=102
211200 On ch=1 n=d3 v=102
211680 Off ch=1 n=d3 v=80
211680 Off ch=1 n=f4 v=80
211680 On ch=1 n=e4 v=102
211680 On ch=1 n=c#3 v=120
213600 Off ch=1 n=c#3 v=80
213600 Off ch=1 n=e4 v=80
213600 On ch=1 n=b2 v=102
214080 On ch=1 n=d4 v=102
214560 Off ch=1 n=d4 v=80
214560 Off ch=1 n=b2 v=80
214560 On ch=1 n=a2 v=127
214560 On ch=1 n=a3 v=127
215040 Off ch=1 n=a3 v=80
215040 Off ch=1 n=a2 v=80
215040 On ch=1 n=c#4 v=102
215280 Off ch=1 n=c#4 v=80
215520 On ch=1 n=f4 v=102
215760 Off ch=1 n=f4 v=80
216000 On ch=1 n=f#4 v=102
216360 Off ch=1 n=f#4 v=80
216480 On ch=1 n=f#3 v=102
216840 Off ch=1 n=f#3 v=80
216960 On ch=1 n=a#3 v=102
217320 Off ch=1 n=a#3 v=80
217440 On ch=1 n=b3 v=102
217800 Off ch=1 n=b3 v=80
217920 On ch=1 n=d#4 v=102
218280 Off ch=1 n=d#4 v=80
218400 On ch=1 n=f#4 v=102
218760 Off ch=1 n=f#4 v=80
218880 On ch=1 n=b4 v=127
219840 Off ch=1 n=b4 v=80
219840 On ch=1 n=b3 v=102
219840 On ch=1 n=b2 v=102
220320 Off ch=1 n=b2 v=80
220320 Off ch=1 n=b3 v=80
220320 On ch=1 n=e3 v=115
220320 On ch=1 n=e4 v=115
222720 Off ch=1 n=e4 v=80
222720 Off ch=1 n=e3 v=80
222720 On ch=1 n=d3 v=102
222720 On ch=1 n=f4 v=102
223200 Off ch=1 n=f4 v=80
223200 Off ch=1 n=d3 v=80
223200 On ch=1 n=c#3 v=102
223200 On ch=1 n=e4 v=102
225600 Off ch=1 n=e4 v=80
225600 Off ch=1 n=c#3 v=80
225600 On ch=1 n=e4 v=102
225600 On ch=1 n=c3 v=102
226080 Off ch=1 n=c3 v=80
226080 Off ch=1 n=e4 v=80
226080 On ch=1 n=b2 v=115
226560 Off ch=1 n=b2 v=80
227040 On ch=1 n=g#4 v=99
227400 Off ch=1 n=g#4 v=80
227520 On ch=1 n=b4 v=106
227880 Off ch=1 n=b4 v=80
228000 On ch=1 n=e5 v=113
228360 Off ch=1 n=e5 v=80
228480 On ch=1 n=g#5 v=120
228840 Off ch=1 n=g#5 v=80
228960 On ch=1 n=a5 v=127
228960 On ch=1 n=b5 v=127
228960 On ch=1 n=f#5 v=127
228960 On ch=1 n=d#5 v=127
228960 On ch=1 n=b4 v=127
229920 Off ch=1 n=b4 v=80
229920 Off ch=1 n=d#5 v=80
229920 Off ch=1 n=f#5 v=80
229920 Off ch=1 n=b5 v=80
229920 Off ch=1 n=a5 v=80
229920 On ch=1 n=b3 v=78
229920 On ch=1 n=b2 v=78
230400 Off ch=1 n=b2 v=80
230400 On ch=1 n=e3 v=78
230880 Off ch=1 n=b3 v=80
230880 Off ch=1 n=e3 v=80
231840 On ch=1 n=a3 v=53
232080 Off ch=1 n=a3 v=80
232080 On ch=1 n=a4 v=53
232320 Off ch=1 n=a4 v=80
232320 On ch=1 n=c#5 v=53
232560 Off ch=1 n=c#5 v=80
232560 On ch=1 n=a5 v=53
232800 Off ch=1 n=a5 v=80
232800 On ch=1 n=c#6 v=53
233040 Off ch=1 n=c#6 v=80
233040 On ch=1 n=e5 v=53
233280 Off ch=1 n=e5 v=80
233280 On ch=1 n=f#3 v=53
233520 Off ch=1 n=f#3 v=80
233520 On ch=1 n=f#4 v=53
233760 Off ch=1 n=f#4 v=80
233760 On ch=1 n=a#4 v=53
234000 Off ch=1 n=a#4 v=80
234000 On ch=1 n=f#5 v=53
234240 Off ch=1 n=f#5 v=80
234240 On ch=1 n=c#6 v=53
234480 Off ch=1 n=c#6 v=80
234480 On ch=1 n=e5 v=53
234720 Off ch=1 n=e5 v=80
234720 On ch=1 n=b3 v=53
234960 Off ch=1 n=b3 v=80
234960 On ch=1 n=f#4 v=53
235200 Off ch=1 n=f#4 v=80
235200 On ch=1 n=b4 v=53
235440 Off ch=1 n=b4 v=80
235440 On ch=1 n=f#5 v=53
235680 Off ch=1 n=f#5 v=80
235680 On ch=1 n=b5 v=53
235920 Off ch=1 n=b5 v=80
235920 On ch=1 n=d5 v=53
236160 Off ch=1 n=d5 v=80
236160 On ch=1 n=e3 v=53
236400 Off ch=1 n=e3 v=80
236400 On ch=1 n=e4 v=53
236640 Off ch=1 n=e4 v=80
236640 On ch=1 n=g#4 v=53
236880 Off ch=1 n=g#4 v=80
236880 On ch=1 n=e5 v=53
237120 Off ch=1 n=e5 v=80
237120 On ch=1 n=b5 v=53
237360 Off ch=1 n=b5 v=80
237360 On ch=1 n=d5 v=53
237600 Off ch=1 n=d5 v=80
237600 On ch=1 n=a3 v=53
237840 Off ch=1 n=a3 v=80
237840 On ch=1 n=a4 v=53
238080 Off ch=1 n=a4 v=80
238080 On ch=1 n=c#5 v=53
238320 Off ch=1 n=c#5 v=80
238320 On ch=1 n=e5 v=53
238560 Off ch=1 n=e5 v=80
238560 On ch=1 n=a5 v=53
238800 Off ch=1 n=a5 v=80
238800 On ch=1 n=c#5 v=53
239040 Off ch=1 n=c#5 v=80
239040 On ch=1 n=b2 v=53
239280 Off ch=1 n=b2 v=80
239280 On ch=1 n=b3 v=53
239520 Off ch=1 n=b3 v=80
239520 On ch=1 n=d#4 v=53
239760 Off ch=1 n=d#4 v=80
239760 On ch=1 n=a4 v=53
240000 Off ch=1 n=a4 v=80
240000 On ch=1 n=a5 v=53
240240 Off ch=1 n=a5 v=80
240240 On ch=1 n=b4 v=53
240480 Off ch=1 n=b4 v=80
240480 On ch=1 n=e3 v=53
240720 Off ch=1 n=e3 v=80
240720 On ch=1 n=e4 v=50
240960 Off ch=1 n=e4 v=80
240960 On ch=1 n=g#4 v=48
241200 Off ch=1 n=g#4 v=80
241200 On ch=1 n=d5 v=46
241440 Off ch=1 n=d5 v=80
241440 On ch=1 n=e5 v=44
241680 Off ch=1 n=e5 v=80
241680 On ch=1 n=b4 v=40
241920 Off ch=1 n=b4 v=80
241920 On ch=1 n=e3 v=53
242160 Off ch=1 n=e3 v=80
242160 On ch=1 n=e4 v=50
242400 Off ch=1 n=e4 v=80
242400 On ch=1 n=g#4 v=47
242640 Off ch=1 n=g#4 v=80
242640 On ch=1 n=d5 v=45
242880 Off ch=1 n=d5 v=80
242880 On ch=1 n=e5 v=43
243120 Off ch=1 n=e5 v=80
243120 On ch=1 n=b4 v=40
243360 Off ch=1 n=b4 v=80
243360 On ch=1 n=a3 v=53
243600 Off ch=1 n=a3 v=80
243600 On ch=1 n=a4 v=53
243840 Off ch=1 n=a4 v=80
243840 On ch=1 n=c#5 v=53
244080 Off ch=1 n=c#5 v=80
244080 On ch=1 n=a5 v=53
244320 Off ch=1 n=a5 v=80
244320 On ch=1 n=c#6 v=53
244560 Off ch=1 n=c#6 v=80
244560 On ch=1 n=e5 v=53
244800 Off ch=1 n=e5 v=80
244800 On ch=1 n=f#3 v=53
245040 Off ch=1 n=f#3 v=80
245040 On ch=1 n=f#4 v=53
245280 Off ch=1 n=f#4 v=80
245280 On ch=1 n=a#4 v=53
245520 Off ch=1 n=a#4 v=80
245520 On ch=1 n=f#5 v=53
245760 Off ch=1 n=f#5 v=80
245760 On ch=1 n=c#6 v=53
246000 Off ch=1 n=c#6 v=80
246000 On ch=1 n=e5 v=53
246240 Off ch=1 n=e5 v=80
246240 On ch=1 n=b3 v=53
246480 Off ch=1 n=b3 v=80
246480 On ch=1 n=b4 v=53
246720 Off ch=1 n=b4 v=80
246720 On ch=1 n=d5 v=53
246960 Off ch=1 n=d5 v=80
246960 On ch=1 n=b5 v=53
247200 Off ch=1 n=b5 v=80
247200 On ch=1 n=d6 v=53
247440 On ch=1 n=f#5 v=53
247680 Off ch=1 n=f#5 v=80
247680 Off ch=1 n=d6 v=80
247680 On ch=1 n=a#3 v=53
247920 Off ch=1 n=a#3 v=80
247920 On ch=1 n=a#4 v=53
248160 Off ch=1 n=a#4 v=80
248160 On ch=1 n=d5 v=53
248400 Off ch=1 n=d5 v=80
248400 On ch=1 n=f5 v=53
248640 Off ch=1 n=f5 v=80
248640 On ch=1 n=d6 v=53
248880 Off ch=1 n=d6 v=80
248880 On ch=1 n=g#5 v=53
249120 Off ch=1 n=g#5 v=80
249120 On ch=1 n=a3 v=53
249360 Off ch=1 n=a3 v=80
249360 On ch=1 n=a4 v=53
249600 Off ch=1 n=a4 v=80
249600 On ch=1 n=c#5 v=53
249840 Off ch=1 n=c#5 v=80
249840 On ch=1 n=f#5 v=53
250080 Off ch=1 n=f#5 v=80
250080 On ch=1 n=b3 v=53
250320 Off ch=1 n=b3 v=80
250320 On ch=1 n=d5 v=53
250560 Off ch=1 n=d5 v=80
250560 On ch=1 n=c#4 v=53
250800 Off ch=1 n=c#4 v=80
250800 On ch=1 n=a4 v=53
251040 Off ch=1 n=a4 v=80
251040 On ch=1 n=c#5 v=53
251280 Off ch=1 n=c#5 v=80
251280 On ch=1 n=f#5 v=53
251520 Off ch=1 n=f#5 v=80
251520 On ch=1 n=c#4 v=53
251760 Off ch=1 n=c#4 v=80
251760 On ch=1 n=b4 v=53
252000 Off ch=1 n=b4 v=80
252000 On ch=1 n=c#4 v=53
252240 Off ch=1 n=c#4 v=80
252240 On ch=1 n=b4 v=53
252480 Off ch=1 n=b4 v=80
252480 On ch=1 n=c#5 v=53
252720 Off ch=1 n=c#5 v=80
252720 On ch=1 n=f5 v=53
252960 Off ch=1 n=f5 v=80
252960 On ch=1 n=c#6 v=53
253200 Off ch=1 n=c#6 v=80
253200 On ch=1 n=g#5 v=53
253440 Off ch=1 n=g#5 v=80
253440 On ch=1 n=f#3 v=53
253680 Off ch=1 n=f#3 v=80
253680 On ch=1 n=c#4 v=53
253920 Off ch=1 n=c#4 v=80
253920 On ch=1 n=a4 v=53
254160 Off ch=1 n=a4 v=80
254160 On ch=1 n=c#5 v=53
254400 Off ch=1 n=c#5 v=80
254400 On ch=1 n=c#6 v=53
254640 Off ch=1 n=c#6 v=80
254640 On ch=1 n=f#5 v=53
254880 Off ch=1 n=f#5 v=80
254880 On ch=1 n=a3 v=53
255120 Off ch=1 n=a3 v=80
255120 On ch=1 n=a4 v=53
255360 Off ch=1 n=a4 v=80
255360 On ch=1 n=c#5 v=53
255600 Off ch=1 n=c#5 v=80
255600 On ch=1 n=a5 v=53
255840 Off ch=1 n=a5 v=80
255840 On ch=1 n=c#6 v=53
256080 Off ch=1 n=c#6 v=80
256080 On ch=1 n=e5 v=53
256320 Off ch=1 n=e5 v=80
256320 On ch=1 n=f#3 v=53
256560 Off ch=1 n=f#3 v=80
256560 On ch=1 n=f#4 v=53
256800 Off ch=1 n=f#4 v=80
256800 On ch=1 n=a#4 v=53
257040 Off ch=1 n=a#4 v=80
257040 On ch=1 n=f#5 v=53
257280 Off ch=1 n=f#5 v=80
257280 On ch=1 n=c#6 v=53
257520 Off ch=1 n=c#6 v=80
257520 On ch=1 n=e5 v=53
257760 Off ch=1 n=e5 v=80
257760 On ch=1 n=b3 v=53
258000 Off ch=1 n=b3 v=80
258000 On ch=1 n=f#4 v=53
258240 Off ch=1 n=f#4 v=80
258240 On ch=1 n=b4 v=53
258480 Off ch=1 n=b4 v=80
258480 On ch=1 n=f#5 v=53
258720 Off ch=1 n=f#5 v=80
258720 On ch=1 n=b5 v=53
258960 Off ch=1 n=b5 v=80
258960 On ch=1 n=d5 v=53
259200 Off ch=1 n=d5 v=80
259200 On ch=1 n=e3 v=53
259440 Off ch=1 n=e3 v=80
259440 On ch=1 n=e4 v=53
259680 Off ch=1 n=e4 v=80
259680 On ch=1 n=g#4 v=53
259920 Off ch=1 n=g#4 v=80
259920 On ch=1 n=e5 v=53
260160 Off ch=1 n=e5 v=80
260160 On ch=1 n=b5 v=53
260400 Off ch=1 n=b5 v=80
260400 On ch=1 n=d5 v=53
260640 Off ch=1 n=d5 v=80
260640 On ch=1 n=a3 v=53
260880 Off ch=1 n=a3 v=80
260880 On ch=1 n=a4 v=53
261120 Off ch=1 n=a4 v=80
261120 On ch=1 n=c#5 v=53
261360 Off ch=1 n=c#5 v=80
261360 On ch=1 n=e5 v=53
261600 Off ch=1 n=e5 v=80
261600 On ch=1 n=a5 v=53
261840 Off ch=1 n=a5 v=80
261840 On ch=1 n=c#5 v=53
262080 Off ch=1 n=c#5 v=80
262080 On ch=1 n=b2 v=53
262320 Off ch=1 n=b2 v=80
262320 On ch=1 n=b3 v=53
262560 Off ch=1 n=b3 v=80
262560 On ch=1 n=d#4 v=53
262800 Off ch=1 n=d#4 v=80
262800 On ch=1 n=a4 v=53
263040 Off ch=1 n=a4 v=80
263040 On ch=1 n=a5 v=53
263280 Off ch=1 n=a5 v=80
263280 On ch=1 n=b4 v=53
263520 Off ch=1 n=b4 v=80
263520 On ch=1 n=e3 v=53
263760 Off ch=1 n=e3 v=80
263760 On ch=1 n=e4 v=50
264000 Off ch=1 n=e4 v=80
264000 On ch=1 n=g#4 v=48
264240 Off ch=1 n=g#4 v=80
264240 On ch=1 n=d5 v=46
264480 Off ch=1 n=d5 v=80
264480 On ch=1 n=e5 v=44
264720 Off ch=1 n=e5 v=80
264720 On ch=1 n=b4 v=40
264960 Off ch=1 n=b4 v=80
264960 On ch=1 n=e3 v=53
265200 Off ch=1 n=e3 v=80
265200 On ch=1 n=e4 v=50
265440 Off ch=1 n=e4 v=80
265440 On ch=1 n=g#4 v=47
265680 Off ch=1 n=g#4 v=80
265680 On ch=1 n=d5 v=45
265920 Off ch=1 n=d5 v=80
265920 On ch=1 n=e5 v=43
266160 Off ch=1 n=e5 v=80
266160 On ch=1 n=b4 v=40
266400 Off ch=1 n=b4 v=80
266400 On ch=1 n=a3 v=53
266640 Off ch=1 n=a3 v=80
266640 On ch=1 n=a4 v=53
266880 Off ch=1 n=a4 v=80
266880 On ch=1 n=c#5 v=53
267120 Off ch=1 n=c#5 v=80
267120 On ch=1 n=a5 v=53
267360 Off ch=1 n=a5 v=80
267360 On ch=1 n=c#6 v=53
267600 Off ch=1 n=c#6 v=80
267600 On ch=1 n=e5 v=53
267840 Off ch=1 n=e5 v=80
267840 On ch=1 n=f#3 v=53
268080 Off ch=1 n=f#3 v=80
268080 On ch=1 n=f#4 v=53
268320 Off ch=1 n=f#4 v=80
268320 On ch=1 n=a#4 v=53
268560 Off ch=1 n=a#4 v=80
268560 On ch=1 n=f#5 v=53
268800 Off ch=1 n=f#5 v=80
268800 On ch=1 n=c#6 v=53
269040 Off ch=1 n=c#6 v=80
269040 On ch=1 n=e5 v=53
269280 Off ch=1 n=e5 v=80
269280 On ch=1 n=b3 v=53
269520 Off ch=1 n=b3 v=80
269520 On ch=1 n=b4 v=53
269760 Off ch=1 n=b4 v=80
269760 On ch=1 n=d5 v=53
270000 Off ch=1 n=d5 v=80
270000 On ch=1 n=b5 v=53
270240 Off ch=1 n=b5 v=80
270240 On ch=1 n=d6 v=53
270480 On ch=1 n=f#5 v=53
270720 Off ch=1 n=f#5 v=80
270720 Off ch=1 n=d6 v=80
270720 On ch=1 n=a#3 v=53
270960 Off ch=1 n=a#3 v=80
270960 On ch=1 n=a#4 v=53
271200 Off ch=1 n=a#4 v=80
271200 On ch=1 n=d5 v=53
271440 Off ch=1 n=d5 v=80
271440 On ch=1 n=f5 v=53
271680 Off ch=1 n=f5 v=80
271680 On ch=1 n=d6 v=53
271920 Off ch=1 n=d6 v=80
271920 On ch=1 n=g#5 v=53
272160 Off ch=1 n=g#5 v=80
272160 On ch=1 n=a3 v=53
272400 Off ch=1 n=a3 v=80
272400 On ch=1 n=a4 v=53
272640 Off ch=1 n=a4 v=80
272640 On ch=1 n=c#5 v=53
272880 Off ch=1 n=c#5 v=80
272880 On ch=1 n=f#5 v=53
273120 Off ch=1 n=f#5 v=80
273120 On ch=1 n=b3 v=53
273360 Off ch=1 n=b3 v=80
273360 On ch=1 n=d5 v=53
273600 Off ch=1 n=d5 v=80
273600 On ch=1 n=c#4 v=53
273840 Off ch=1 n=c#4 v=80
273840 On ch=1 n=a4 v=53
274080 Off ch=1 n=a4 v=80
274080 On ch=1 n=c#5 v=53
274320 Off ch=1 n=c#5 v=80
274320 On ch=1 n=f#5 v=53
274560 Off ch=1 n=f#5 v=80
274560 On ch=1 n=c#4 v=53
274800 Off ch=1 n=c#4 v=80
274800 On ch=1 n=b4 v=53
275040 Off ch=1 n=b4 v=80
275040 On ch=1 n=c#4 v=53
275280 Off ch=1 n=c#4 v=80
275280 On ch=1 n=b4 v=53
275520 Off ch=1 n=b4 v=80
275520 On ch=1 n=c#5 v=53
275760 Off ch=1 n=c#5 v=80
275760 On ch=1 n=f5 v=53
276000 Off ch=1 n=f5 v=80
276000 On ch=1 n=c#6 v=53
276240 Off ch=1 n=c#6 v=80
276240 On ch=1 n=g#5 v=53
276480 Off ch=1 n=g#5 v=80
276480 On ch=1 n=f#3 v=53
276720 Off ch=1 n=f#3 v=80
276720 On ch=1 n=c#4 v=53
276960 Off ch=1 n=c#4 v=80
276960 On ch=1 n=a4 v=53
277200 Off ch=1 n=a4 v=80
277200 On ch=1 n=c#5 v=53
277440 Off ch=1 n=c#5 v=80
277440 On ch=1 n=c#6 v=53
277680 Off ch=1 n=c#6 v=80
277680 On ch=1 n=f#5 v=53
277920 Off ch=1 n=f#5 v=80
277920 On ch=1 n=d4 v=53
278160 Off ch=1 n=d4 v=80
278160 On ch=1 n=d5 v=53
278400 Off ch=1 n=d5 v=80
278400 On ch=1 n=a5 v=53
278640 Off ch=1 n=a5 v=80
278640 On ch=1 n=c6 v=53
278880 Off ch=1 n=c6 v=80
278880 On ch=1 n=f#6 v=53
279120 Off ch=1 n=f#6 v=80
279120 On ch=1 n=c6 v=53
279360 Off ch=1 n=c6 v=80
279360 On ch=1 n=d4 v=53
279600 Off ch=1 n=d4 v=80
279600 On ch=1 n=d5 v=53
279840 Off ch=1 n=d5 v=80
279840 On ch=1 n=a5 v=53
280080 Off ch=1 n=a5 v=80
280080 On ch=1 n=c6 v=53
280320 Off ch=1 n=c6 v=80
280320 On ch=1 n=f#6 v=53
280560 Off ch=1 n=f#6 v=80
280560 On ch=1 n=c6 v=53
280800 Off ch=1 n=c6 v=80
280800 On ch=1 n=g4 v=53
281040 Off ch=1 n=g4 v=80
281040 On ch=1 n=g5 v=53
281280 Off ch=1 n=g5 v=80
281280 On ch=1 n=b5 v=53
281520 Off ch=1 n=b5 v=80
281520 On ch=1 n=d6 v=53
281760 Off ch=1 n=d6 v=80
281760 On ch=1 n=a6 v=53
282000 Off ch=1 n=a6 v=80
282000 On ch=1 n=d6 v=53
282240 Off ch=1 n=d6 v=80
282240 On ch=1 n=g4 v=53
282480 Off ch=1 n=g4 v=80
282480 On ch=1 n=d5 v=53
282720 Off ch=1 n=d5 v=80
282720 On ch=1 n=b5 v=53
282960 Off ch=1 n=b5 v=80
282960 On ch=1 n=d6 v=53
283200 Off ch=1 n=d6 v=80
283200 On ch=1 n=f#6 v=53
283440 Off ch=1 n=f#6 v=80
283440 On ch=1 n=d6 v=53
283680 Off ch=1 n=d6 v=80
283680 On ch=1 n=c#4 v=53
283920 Off ch=1 n=c#4 v=80
283920 On ch=1 n=c#5 v=53
284160 Off ch=1 n=c#5 v=80
284160 On ch=1 n=g#5 v=53
284400 Off ch=1 n=g#5 v=80
284400 On ch=1 n=b5 v=53
284640 Off ch=1 n=b5 v=80
284640 On ch=1 n=f6 v=53
284880 Off ch=1 n=f6 v=80
284880 On ch=1 n=b5 v=53
285120 Off ch=1 n=b5 v=80
285120 On ch=1 n=c#4 v=53
285360 Off ch=1 n=c#4 v=80
285360 On ch=1 n=c#5 v=53
285600 Off ch=1 n=c#5 v=80
285600 On ch=1 n=g#5 v=53
285840 Off ch=1 n=g#5 v=80
285840 On ch=1 n=b5 v=53
286080 Off ch=1 n=b5 v=80
286080 On ch=1 n=f6 v=53
286320 Off ch=1 n=f6 v=80
286320 On ch=1 n=b5 v=53
286560 Off ch=1 n=b5 v=80
286560 On ch=1 n=f#4 v=53
286800 Off ch=1 n=f#4 v=80
286800 On ch=1 n=f5 v=53
287040 Off ch=1 n=f5 v=80
287040 On ch=1 n=b5 v=53
287280 Off ch=1 n=b5 v=80
287280 On ch=1 n=d6 v=53
287520 Off ch=1 n=d6 v=80
287520 On ch=1 n=g#6 v=53
287760 Off ch=1 n=g#6 v=80
287760 On ch=1 n=d6 v=53
288000 Off ch=1 n=d6 v=80
288000 On ch=1 n=f#4 v=53
288240 Off ch=1 n=f#4 v=80
288240 On ch=1 n=c#5 v=53
288480 Off ch=1 n=c#5 v=80
288480 On ch=1 n=a5 v=53
288720 Off ch=1 n=a5 v=80
288720 On ch=1 n=c#6 v=53
288960 Off ch=1 n=c#6 v=80
288960 On ch=1 n=f#6 v=53
289200 Off ch=1 n=f#6 v=80
289200 On ch=1 n=c#6 v=53
289440 Off ch=1 n=c#6 v=80
289680 On ch=1 n=c#4 v=53
289920 Off ch=1 n=c#4 v=80
289920 On ch=1 n=f#4 v=53
290160 Off ch=1 n=f#4 v=80
290160 On ch=1 n=a4 v=53
290400 Off ch=1 n=a4 v=80
290400 On ch=1 n=c#5 v=53
290640 Off ch=1 n=c#5 v=80
290640 On ch=1 n=f#4 v=53
290880 Off ch=1 n=f#4 v=80
291120 On ch=1 n=c#4 v=53
291360 Off ch=1 n=c#4 v=80
291360 On ch=1 n=f#4 v=53
291600 Off ch=1 n=f#4 v=80
291600 On ch=1 n=a4 v=53
291840 Off ch=1 n=a4 v=80
291840 On ch=1 n=c#5 v=53
292080 Off ch=1 n=c#5 v=80
292080 On ch=1 n=f#4 v=53
292320 Off ch=1 n=f#4 v=80
292560 On ch=1 n=f#4 v=53
292800 Off ch=1 n=f#4 v=80
292800 On ch=1 n=b4 v=53
293040 Off ch=1 n=b4 v=80
293040 On ch=1 n=d5 v=53
293280 Off ch=1 n=d5 v=80
293280 On ch=1 n=f#5 v=53
293520 Off ch=1 n=f#5 v=80
293520 On ch=1 n=b4 v=53
293760 Off ch=1 n=b4 v=80
294000 On ch=1 n=f#4 v=53
294240 Off ch=1 n=f#4 v=80
294240 On ch=1 n=a4 v=53
294480 Off ch=1 n=a4 v=80
294480 On ch=1 n=d#5 v=53
294720 Off ch=1 n=d#5 v=80
294720 On ch=1 n=f#5 v=53
294960 Off ch=1 n=f#5 v=80
294960 On ch=1 n=a4 v=53
295200 Off ch=1 n=a4 v=80
295440 On ch=1 n=f#4 v=53
295680 Off ch=1 n=f#4 v=80
295680 On ch=1 n=a4 v=53
295920 Off ch=1 n=a4 v=80
295920 On ch=1 n=c#5 v=53
296160 Off ch=1 n=c#5 v=80
296160 On ch=1 n=a5 v=53
296400 Off ch=1 n=a5 v=80
296400 On ch=1 n=a4 v=53
296640 Off ch=1 n=a4 v=80
296880 On ch=1 n=c#4 v=53
297120 Off ch=1 n=c#4 v=80
297120 On ch=1 n=f4 v=53
297360 Off ch=1 n=f4 v=80
297360 On ch=1 n=g#4 v=53
297600 Off ch=1 n=g#4 v=80
297600 On ch=1 n=g#5 v=53
297840 Off ch=1 n=g#5 v=80
297840 On ch=1 n=b4 v=53
298080 Off ch=1 n=b4 v=80
298320 On ch=1 n=c#4 v=53
298560 Off ch=1 n=c#4 v=80
298560 On ch=1 n=f#4 v=53
298800 Off ch=1 n=f#4 v=80
298800 On ch=1 n=c#5 v=53
299040 Off ch=1 n=c#5 v=80
299040 On ch=1 n=f#5 v=53
299280 Off ch=1 n=f#5 v=80
299280 On ch=1 n=a4 v=53
299520 Off ch=1 n=a4 v=80
299760 On ch=1 n=e4 v=53
300000 Off ch=1 n=e4 v=80
300000 On ch=1 n=g#4 v=53
300240 Off ch=1 n=g#4 v=80
300240 On ch=1 n=d5 v=53
300480 Off ch=1 n=d5 v=80
300480 On ch=1 n=b5 v=53
300720 Off ch=1 n=b5 v=80
300720 On ch=1 n=e5 v=53
300960 Off ch=1 n=e5 v=80
300960 On ch=1 n=a3 v=53
301200 Off ch=1 n=a3 v=80
301200 On ch=1 n=a4 v=53
301440 Off ch=1 n=a4 v=80
301440 On ch=1 n=c#5 v=53
301680 Off ch=1 n=c#5 v=80
301680 On ch=1 n=a5 v=53
301920 Off ch=1 n=a5 v=80
301920 On ch=1 n=c#6 v=53
302160 Off ch=1 n=c#6 v=80
302160 On ch=1 n=e5 v=53
302400 Off ch=1 n=e5 v=80
302400 On ch=1 n=f#3 v=53
302640 Off ch=1 n=f#3 v=80
302640 On ch=1 n=f#4 v=53
302880 Off ch=1 n=f#4 v=80
302880 On ch=1 n=a#4 v=53
303120 Off ch=1 n=a#4 v=80
303120 On ch=1 n=f#5 v=53
303360 Off ch=1 n=f#5 v=80
303360 On ch=1 n=c#6 v=53
303600 Off ch=1 n=c#6 v=80
303600 On ch=1 n=e5 v=53
303840 Off ch=1 n=e5 v=80
303840 On ch=1 n=b3 v=53
304080 Off ch=1 n=b3 v=80
304080 On ch=1 n=f#4 v=53
304320 Off ch=1 n=f#4 v=80
304320 On ch=1 n=b4 v=53
304560 Off ch=1 n=b4 v=80
304560 On ch=1 n=f#5 v=53
304800 Off ch=1 n=f#5 v=80
304800 On ch=1 n=b5 v=53
305040 Off ch=1 n=b5 v=80
305040 On ch=1 n=d5 v=53
305280 Off ch=1 n=d5 v=80
305280 On ch=1 n=e3 v=53
305520 Off ch=1 n=e3 v=80
305520 On ch=1 n=e4 v=53
305760 Off ch=1 n=e4 v=80
305760 On ch=1 n=g#4 v=53
306000 Off ch=1 n=g#4 v=80
306000 On ch=1 n=e5 v=53
306240 Off ch=1 n=e5 v=80
306240 On ch=1 n=b5 v=53
306480 Off ch=1 n=b5 v=80
306480 On ch=1 n=d5 v=53
306720 Off ch=1 n=d5 v=80
306720 On ch=1 n=a3 v=53
306960 Off ch=1 n=a3 v=80
306960 On ch=1 n=a4 v=53
307200 Off ch=1 n=a4 v=80
307200 On ch=1 n=c#5 v=53
307440 Off ch=1 n=c#5 v=80
307440 On ch=1 n=e5 v=53
307680 Off ch=1 n=e5 v=80
307680 On ch=1 n=a5 v=53
307920 Off ch=1 n=a5 v=80
307920 On ch=1 n=c#5 v=53
308160 Off ch=1 n=c#5 v=80
308160 On ch=1 n=b2 v=53
308400 Off ch=1 n=b2 v=80
308400 On ch=1 n=b3 v=53
308640 Off ch=1 n=b3 v=80
308640 On ch=1 n=d#4 v=53
308880 Off ch=1 n=d#4 v=80
308880 On ch=1 n=a4 v=53
309120 Off ch=1 n=a4 v=80
309120 On ch=1 n=a5 v=53
309360 Off ch=1 n=a5 v=80
309360 On ch=1 n=b4 v=53
309600 Off ch=1 n=b4 v=80
309600 On ch=1 n=e3 v=53
309840 Off ch=1 n=e3 v=80
309840 On ch=1 n=e4 v=50
310080 Off ch=1 n=e4 v=80
310080 On ch=1 n=g#4 v=48
310320 Off ch=1 n=g#4 v=80
310320 On ch=1 n=d5 v=46
310560 Off ch=1 n=d5 v=80
310560 On ch=1 n=e5 v=44
310800 Off ch=1 n=e5 v=80
310800 On ch=1 n=b4 v=40
311040 Off ch=1 n=b4 v=80
311040 On ch=1 n=e3 v=53
311280 Off ch=1 n=e3 v=80
311280 On ch=1 n=e4 v=50
311520 Off ch=1 n=e4 v=80
311520 On ch=1 n=g#4 v=47
311760 Off ch=1 n=g#4 v=80
311760 On ch=1 n=d5 v=45
312000 Off ch=1 n=d5 v=80
312000 On ch=1 n=e5 v=43
312240 Off ch=1 n=e5 v=80
312240 On ch=1 n=b4 v=40
312480 Off ch=1 n=b4 v=80
312480 On ch=1 n=a3 v=53
312720 Off ch=1 n=a3 v=80
312720 On ch=1 n=a4 v=53
312960 Off ch=1 n=a4 v=80
312960 On ch=1 n=c#5 v=53
313200 Off ch=1 n=c#5 v=80
313200 On ch=1 n=a5 v=53
313440 Off ch=1 n=a5 v=80
313440 On ch=1 n=c#6 v=53
313680 Off ch=1 n=c#6 v=80
313680 On ch=1 n=e5 v=53
313920 Off ch=1 n=e5 v=80
313920 On ch=1 n=f#3 v=53
314160 Off ch=1 n=f#3 v=80
314160 On ch=1 n=f#4 v=53
314400 Off ch=1 n=f#4 v=80
314400 On ch=1 n=a#4 v=53
314640 Off ch=1 n=a#4 v=80
314640 On ch=1 n=f#5 v=53
314880 Off ch=1 n=f#5 v=80
314880 On ch=1 n=c#6 v=53
315120 Off ch=1 n=c#6 v=80
315120 On ch=1 n=e5 v=53
315360 Off ch=1 n=e5 v=80
315360 On ch=1 n=b3 v=53
315600 Off ch=1 n=b3 v=80
315600 On ch=1 n=b4 v=53
315840 Off ch=1 n=b4 v=80
315840 On ch=1 n=d5 v=53
316080 Off ch=1 n=d5 v=80
316080 On ch=1 n=b5 v=53
316320 Off ch=1 n=b5 v=80
316320 On ch=1 n=d6 v=53
316560 On ch=1 n=f#5 v=53
316800 Off ch=1 n=f#5 v=80
316800 Off ch=1 n=d6 v=80
316800 On ch=1 n=a#3 v=53
317040 Off ch=1 n=a#3 v=80
317040 On ch=1 n=a#4 v=53
317280 Off ch=1 n=a#4 v=80
317280 On ch=1 n=d5 v=53
317520 Off ch=1 n=d5 v=80
317520 On ch=1 n=f5 v=53
317760 Off ch=1 n=f5 v=80
317760 On ch=1 n=d6 v=53
318000 Off ch=1 n=d6 v=80
318000 On ch=1 n=g#5 v=53
318240 Off ch=1 n=g#5 v=80
318240 On ch=1 n=c#4 v=53
318480 Off ch=1 n=c#4 v=80
318480 On ch=1 n=c#5 v=53
318720 Off ch=1 n=c#5 v=80
318720 On ch=1 n=f5 v=53
318960 Off ch=1 n=f5 v=80
318960 On ch=1 n=g#5 v=65
319200 Off ch=1 n=g#5 v=80
319200 On ch=1 n=f6 v=65
319440 Off ch=1 n=f6 v=80
319440 On ch=1 n=a5 v=65
319680 Off ch=1 n=a5 v=80
319680 On ch=1 n=d4 v=65
319920 Off ch=1 n=d4 v=80
319920 On ch=1 n=d5 v=65
320160 Off ch=1 n=d5 v=80
320160 On ch=1 n=f#5 v=65
320400 Off ch=1 n=f#5 v=80
320400 On ch=1 n=a5 v=65
320640 Off ch=1 n=a5 v=80
321120 On ch=1 n=e4 v=65
321600 Off ch=1 n=e4 v=80
323040 On ch=1 n=e4 v=47
323040 On ch=1 n=a3 v=47
323520 Off ch=1 n=a3 v=80
323520 Off ch=1 n=e4 v=80
323520 On ch=1 n=b3 v=102
323520 On ch=1 n=b2 v=102
324000 Off ch=1 n=b2 v=80
324000 Off ch=1 n=b3 v=80
325440 On ch=1 n=d#3 v=102
325440 On ch=1 n=f#4 v=102
325920 Off ch=1 n=f#4 v=80
325920 Off ch=1 n=d#3 v=80
326400 On ch=1 n=f4 v=102
326400 On ch=1 n=d3 v=102
326880 Off ch=1 n=d3 v=80
326880 Off ch=1 n=f4 v=80
326880 On ch=1 n=e4 v=102
326880 On ch=1 n=c#3 v=120
328800 Off ch=1 n=c#3 v=80
328800 Off ch=1 n=e4 v=80
328800 On ch=1 n=b2 v=102
329280 On ch=1 n=d4 v=102
329760 Off ch=1 n=d4 v=80
329760 Off ch=1 n=b2 v=80
329760 On ch=1 n=a2 v=127
329760 On ch=1 n=a3 v=127
330240 Off ch=1 n=a3 v=80
330240 Off ch=1 n=a2 v=80
330240 On ch=1 n=c#4 v=102
330480 Off ch=1 n=c#4 v=80
330720 On ch=1 n=f4 v=102
330960 Off ch=1 n=f4 v=80
331200 On ch=1 n=f#4 v=102
331560 Off ch=1 n=f#4 v=80
331680 On ch=1 n=f#3 v=102
332040 Off ch=1 n=f#3 v=80
332160 On ch=1 n=a#3 v=102
332520 Off ch=1 n=a#3 v=80
332640 On ch=1 n=b3 v=102
333000 Off ch=1 n=b3 v=80
333120 On ch=1 n=d#4 v=102
333480 Off ch=1 n=d#4 v=80
333600 On ch=1 n=f#4 v=102
333960 Off ch=1 n=f#4 v=80
334080 On ch=1 n=b4 v=127
335040 Off ch=1 n=b4 v=80
335040 On ch=1 n=b3 v=102
335040 On ch=1 n=b2 v=102
335520 Off ch=1 n=b2 v=80
335520 Off ch=1 n=b3 v=80
335520 On ch=1 n=e3 v=115
335520 On ch=1 n=e4 v=115
337920 Off ch=1 n=e4 v=80
337920 Off ch=1 n=e3 v=80
337920 On ch=1 n=d3 v=102
337920 On ch=1 n=f4 v=102
338400 Off ch=1 n=f4 v=80
338400 Off ch=1 n=d3 v=80
338400 On ch=1 n=c#3 v=102
338400 On ch=1 n=e4 v=102
340800 Off ch=1 n=e4 v=80
340800 Off ch=1 n=c#3 v=80
340800 On ch=1 n=e4 v=102
340800 On ch=1 n=c3 v=102
341280 Off ch=1 n=c3 v=80
341280 Off ch=1 n=e4 v=80
341280 On ch=1 n=b2 v=115
341760 Off ch=1 n=b2 v=80
342240 On ch=1 n=g#4 v=99
342600 Off ch=1 n=g#4 v=80
342720 On ch=1 n=b4 v=106
343080 Off ch=1 n=b4 v=80
343200 On ch=1 n=e5 v=113
343560 Off ch=1 n=e5 v=80
343680 On ch=1 n=g#5 v=120
344040 Off ch=1 n=g#5 v=80
344160 On ch=1 n=a5 v=127
344160 On ch=1 n=b5 v=127
344160 On ch=1 n=f#5 v=127
344160 On ch=1 n=d#5 v=127
344160 On ch=1 n=b4 v=127
345120 Off ch=1 n=b4 v=80
345120 Off ch=1 n=d#5 v=80
345120 Off ch=1 n=f#5 v=80
345120 Off ch=1 n=b5 v=80
345120 Off ch=1 n=a5 v=80
345120 On ch=1 n=b3 v=78
345120 On ch=1 n=b2 v=78
345600 Off ch=1 n=b2 v=80
345600 On ch=1 n=e3 v=78
346080 Off ch=1 n=b3 v=80
346080 Off ch=1 n=e3 v=80
346560 On ch=1 n=c4 v=29
346560 On ch=1 n=g4 v=29
347040 Off ch=1 n=g4 v=80
347040 Off ch=1 n=c4 v=80
347040 On ch=1 n=c4 v=41
347040 On ch=1 n=g4 v=41
349440 Off ch=1 n=g4 v=80
349440 Off ch=1 n=c4 v=80
349440 On ch=1 n=c4 v=29
349440 On ch=1 n=g4 v=29
349920 Off ch=1 n=g4 v=80
349920 Off ch=1 n=c4 v=80
349920 On ch=1 n=g4 v=41
349920 On ch=1 n=c4 v=41
352320 Off ch=1 n=c4 v=80
352320 Off ch=1 n=g4 v=80
352320 On ch=1 n=c4 v=29
352320 On ch=1 n=g4 v=29
352800 Off ch=1 n=g4 v=80
352800 Off ch=1 n=c4 v=80
352800 On ch=1 n=c4 v=41
352800 On ch=1 n=g4 v=41
355200 Off ch=1 n=g4 v=80
355200 Off ch=1 n=c4 v=80
355200 On ch=1 n=c4 v=29
355200 On ch=1 n=g4 v=29
355680 Off ch=1 n=g4 v=80
355680 Off ch=1 n=c4 v=80
355680 On ch=1 n=c4 v=41
355680 On ch=1 n=g4 v=41
356640 Off ch=1 n=g4 v=80
356640 Off ch=1 n=c4 v=80
358080 On ch=1 n=c4 v=29
358080 On ch=1 n=g4 v=29
358560 Off ch=1 n=g4 v=80
358560 Off ch=1 n=c4 v=80
358560 On ch=1 n=g4 v=41
358560 On ch=1 n=c4 v=41
360960 Off ch=1 n=c4 v=80
360960 Off ch=1 n=g4 v=80
360960 On ch=1 n=g4 v=29
360960 On ch=1 n=c4 v=29
361440 Off ch=1 n=c4 v=80
361440 Off ch=1 n=g4 v=80
361440 On ch=1 n=g4 v=41
361440 On ch=1 n=c4 v=41
363840 Off ch=1 n=c4 v=80
363840 Off ch=1 n=g4 v=80
363840 On ch=1 n=f#4 v=90
363840 On ch=1 n=f#3 v=90
364200 Off ch=1 n=f#3 v=80
364200 Off ch=1 n=f#4 v=80
364320 On ch=1 n=f#4 v=95
364320 On ch=1 n=f#3 v=95
365040 Off ch=1 n=f#3 v=80
365040 Off ch=1 n=f#4 v=80
365280 On ch=1 n=f#3 v=100
365280 On ch=1 n=f#4 v=100
365640 Off ch=1 n=f#4 v=80
365640 Off ch=1 n=f#3 v=80
365760 On ch=1 n=f#3 v=105
365760 On ch=1 n=f#4 v=105
366480 Off ch=1 n=f#4 v=80
366480 Off ch=1 n=f#3 v=80
366720 On ch=1 n=f#3 v=102
366720 On ch=1 n=f#2 v=102
367080 Off ch=1 n=f#2 v=80
367080 Off ch=1 n=f#3 v=80
367200 On ch=1 n=b3 v=102
367200 On ch=1 n=b2 v=102
367560 Off ch=1 n=b2 v=80
367560 Off ch=1 n=b3 v=80
367680 On ch=1 n=d#4 v=104
367680 On ch=1 n=d#3 v=104
368040 Off ch=1 n=d#3 v=80
368040 Off ch=1 n=d#4 v=80
368160 On ch=1 n=g#4 v=104
368160 On ch=1 n=g#3 v=104
368520 Off ch=1 n=g#3 v=80
368520 Off ch=1 n=g#4 v=80
368640 On ch=1 n=f#4 v=106
368640 On ch=1 n=f#3 v=106
369000 Off ch=1 n=f#3 v=80
369000 Off ch=1 n=f#4 v=80
369120 On ch=1 n=c#4 v=106
369120 On ch=1 n=c#3 v=106
369480 Off ch=1 n=c#3 v=80
369480 Off ch=1 n=c#4 v=80
369600 On ch=1 n=d#4 v=108
369600 On ch=1 n=d#3 v=108
369960 Off ch=1 n=d#3 v=80
369960 Off ch=1 n=d#4 v=80
371400 On ch=1 n=d#3 v=102
371520 On ch=1 n=f#4 v=102
372000 Off ch=1 n=f#4 v=80
372000 Off ch=1 n=d#3 v=80
372360 On ch=1 n=d3 v=102
372480 On ch=1 n=f4 v=102
372960 Off ch=1 n=f4 v=80
372960 Off ch=1 n=d3 v=80
372960 On ch=1 n=c#3 v=120
373120 Off ch=1 n=c#3 v=80
373120 On ch=1 n=e4 v=102
374880 Off ch=1 n=e4 v=80
374880 On ch=1 n=b2 v=102
375360 On ch=1 n=d4 v=102
375840 Off ch=1 n=d4 v=80
375840 Off ch=1 n=b2 v=80
375840 On ch=1 n=a3 v=127
375840 On ch=1 n=a2 v=127
376320 Off ch=1 n=a2 v=80
376320 Off ch=1 n=a3 v=80
376320 On ch=1 n=c#4 v=102
376560 Off ch=1 n=c#4 v=80
376800 On ch=1 n=f4 v=102
377040 Off ch=1 n=f4 v=80
377280 On ch=1 n=f#4 v=102
377640 Off ch=1 n=f#4 v=80
377760 On ch=1 n=f#3 v=102
378120 Off ch=1 n=f#3 v=80
378240 On ch=1 n=a#3 v=102
378600 Off ch=1 n=a#3 v=80
378720 On ch=1 n=b3 v=102
379080 Off ch=1 n=b3 v=80
379200 On ch=1 n=d#4 v=102
379560 Off ch=1 n=d#4 v=80
379680 On ch=1 n=f#4 v=102
380040 Off ch=1 n=f#4 v=80
380160 On ch=1 n=b4 v=127
381120 Off ch=1 n=b4 v=80
381120 On ch=1 n=b3 v=102
381120 On ch=1 n=b2 v=102
381600 Off ch=1 n=b2 v=80
381600 Off ch=1 n=b3 v=80
381600 On ch=1 n=e3 v=115
381600 On ch=1 n=e4 v=115
384000 Off ch=1 n=e4 v=80
384000 Off ch=1 n=e3 v=80
384000 On ch=1 n=d3 v=102
384000 On ch=1 n=d4 v=102
384480 Off ch=1 n=d4 v=80
384480 Off ch=1 n=d3 v=80
384480 On ch=1 n=c#4 v=90
384480 On ch=1 n=c#3 v=90
385440 Off ch=1 n=c#3 v=80
385440 Off ch=1 n=c#4 v=80
385440 On ch=1 n=c3 v=90
385440 On ch=1 n=c4 v=90
385920 Off ch=1 n=c4 v=80
385920 Off ch=1 n=c3 v=80
385920 On ch=1 n=b3 v=90
385920 On ch=1 n=b2 v=90
386880 Off ch=1 n=b2 v=80
386880 Off ch=1 n=b3 v=80
386880 On ch=1 n=a#3 v=90
386880 On ch=1 n=a#2 v=90
387360 Off ch=1 n=a#2 v=80
387360 Off ch=1 n=a#3 v=80
387360 On ch=1 n=a2 v=115
387360 On ch=1 n=a3 v=115
389760 Off ch=1 n=a3 v=80
389760 Off ch=1 n=a2 v=80
389760 On ch=1 n=f3 v=102
389760 On ch=1 n=f2 v=102
390240 Off ch=1 n=f2 v=80
390240 Off ch=1 n=f3 v=80
390240 On ch=1 n=b3 v=127
390240 On ch=1 n=b2 v=127
391680 Off ch=1 n=b3 v=80
391680 On ch=1 n=e2 v=65
391680 On ch=1 n=e3 v=65
392160 Off ch=1 n=e3 v=80
392160 Off ch=1 n=b2 v=80
392160 Off ch=1 n=e2 v=80
392160 Meta TrkEnd
TrkEnd
MTrk
0 Meta TrkName "Pedal"
0 Meta 0x21 00
0 Meta 0x20 00
0 Par ch=1 c=10 v=64
0 PrCh ch=1 p=0
960 Par ch=1 c=64 v=127
4080 Par ch=1 c=64 v=0
4320 Par ch=1 c=64 v=127
7080 Par ch=1 c=64 v=0
7200 Par ch=1 c=64 v=127
8520 Par ch=1 c=64 v=0
10080 Par ch=1 c=64 v=127
12840 Par ch=1 c=64 v=0
12960 Par ch=1 c=64 v=127
15720 Par ch=1 c=64 v=0
18720 Par ch=1 c=64 v=127
21480 Par ch=1 c=64 v=0
24000 Par ch=1 c=64 v=127
27120 Par ch=1 c=64 v=0
27360 Par ch=1 c=64 v=127
30120 Par ch=1 c=64 v=0
30240 Par ch=1 c=64 v=127
31560 Par ch=1 c=64 v=0
33120 Par ch=1 c=64 v=127
35880 Par ch=1 c=64 v=0
36000 Par ch=1 c=64 v=127
38760 Par ch=1 c=64 v=0
41760 Par ch=1 c=64 v=127
44639 Par ch=1 c=64 v=0
47520 Par ch=1 c=64 v=127
50280 Par ch=1 c=64 v=0
50400 Par ch=1 c=64 v=127
51760 Par ch=1 c=64 v=0
53280 Par ch=1 c=64 v=127
56520 Par ch=1 c=64 v=0
59040 Par ch=1 c=64 v=127
61800 Par ch=1 c=64 v=0
61920 Par ch=1 c=64 v=127
64240 Par ch=1 c=64 v=0
64800 Par ch=1 c=64 v=127
68040 Par ch=1 c=64 v=0
70560 Par ch=1 c=64 v=127
73320 Par ch=1 c=64 v=0
73440 Par ch=1 c=64 v=127
75760 Par ch=1 c=64 v=0
76320 Par ch=1 c=64 v=127
79560 Par ch=1 c=64 v=0
82080 Par ch=1 c=64 v=127
84840 Par ch=1 c=64 v=0
84960 Par ch=1 c=64 v=127
87280 Par ch=1 c=64 v=0
87840 Par ch=1 c=64 v=127
91080 Par ch=1 c=64 v=0
93600 Par ch=1 c=64 v=127
96360 Par ch=1 c=64 v=0
99360 Par ch=1 c=64 v=127
102120 Par ch=1 c=64 v=0
105120 Par ch=1 c=64 v=127
107400 Par ch=1 c=64 v=0
108000 Par ch=1 c=64 v=127
110280 Par ch=1 c=64 v=0
110880 Par ch=1 c=64 v=127
112240 Par ch=1 c=64 v=0
112320 Par ch=1 c=64 v=127
113680 Par ch=1 c=64 v=0
113760 Par ch=1 c=64 v=127
115120 Par ch=1 c=64 v=0
116640 Par ch=1 c=64 v=127
119400 Par ch=1 c=64 v=0
119520 Par ch=1 c=64 v=127
122280 Par ch=1 c=64 v=0
122400 Par ch=1 c=64 v=127
125160 Par ch=1 c=64 v=0
125280 Par ch=1 c=64 v=127
126600 Par ch=1 c=64 v=0
128160 Par ch=1 c=64 v=127
130920 Par ch=1 c=64 v=0
133920 Par ch=1 c=64 v=127
136680 Par ch=1 c=64 v=0
136800 Par ch=1 c=64 v=127
138360 Par ch=1 c=64 v=0
139680 Par ch=1 c=64 v=127
142440 Par ch=1 c=64 v=0
145440 Par ch=1 c=64 v=127
148200 Par ch=1 c=64 v=0
151200 Par ch=1 c=64 v=127
153480 Par ch=1 c=64 v=0
154080 Par ch=1 c=64 v=127
156360 Par ch=1 c=64 v=0
156960 Par ch=1 c=64 v=127
158320 Par ch=1 c=64 v=0
158400 Par ch=1 c=64 v=127
159760 Par ch=1 c=64 v=0
159840 Par ch=1 c=64 v=127
161200 Par ch=1 c=64 v=0
162720 Par ch=1 c=64 v=127
165480 Par ch=1 c=64 v=0
165600 Par ch=1 c=64 v=127
168360 Par ch=1 c=64 v=0
168480 Par ch=1 c=64 v=127
171240 Par ch=1 c=64 v=0
171360 Par ch=1 c=64 v=127
172680 Par ch=1 c=64 v=0
174240 Par ch=1 c=64 v=127
177000 Par ch=1 c=64 v=0
180000 Par ch=1 c=64 v=127
182760 Par ch=1 c=64 v=0
182880 Par ch=1 c=64 v=127
184440 Par ch=1 c=64 v=0
202560 Par ch=1 c=64 v=127
205200 Par ch=1 c=64 v=0
205920 Par ch=1 c=64 v=127
207240 Par ch=1 c=64 v=0
208800 Par ch=1 c=64 v=127
211440 Par ch=1 c=64 v=0
211680 Par ch=1 c=64 v=127
214440 Par ch=1 c=64 v=0
214560 Par ch=1 c=64 v=127
215880 Par ch=1 c=64 v=0
217440 Par ch=1 c=64 v=127
220200 Par ch=1 c=64 v=0
220320 Par ch=1 c=64 v=127
223080 Par ch=1 c=64 v=0
223200 Par ch=1 c=64 v=127
225960 Par ch=1 c=64 v=0
226080 Par ch=1 c=64 v=127
228959 Par ch=1 c=64 v=0
231840 Par ch=1 c=64 v=127
237599 Par ch=1 c=64 v=0
237600 Par ch=1 c=64 v=127
243359 Par ch=1 c=64 v=0
243360 Par ch=1 c=64 v=127
249119 Par ch=1 c=64 v=0
249120 Par ch=1 c=64 v=127
254879 Par ch=1 c=64 v=0
254880 Par ch=1 c=64 v=127
260639 Par ch=1 c=64 v=0
260640 Par ch=1 c=64 v=127
266399 Par ch=1 c=64 v=0
266400 Par ch=1 c=64 v=127
272159 Par ch=1 c=64 v=0
272160 Par ch=1 c=64 v=127
283679 Par ch=1 c=64 v=0
283680 Par ch=1 c=64 v=127
289439 Par ch=1 c=64 v=0
289440 Par ch=1 c=64 v=127
290800 Par ch=1 c=64 v=0
290880 Par ch=1 c=64 v=127
292240 Par ch=1 c=64 v=0
292320 Par ch=1 c=64 v=127
293680 Par ch=1 c=64 v=0
293760 Par ch=1 c=64 v=127
295120 Par ch=1 c=64 v=0
295200 Par ch=1 c=64 v=127
296560 Par ch=1 c=64 v=0
296640 Par ch=1 c=64 v=127
298000 Par ch=1 c=64 v=0
298080 Par ch=1 c=64 v=127
299440 Par ch=1 c=64 v=0
299520 Par ch=1 c=64 v=127
300880 Par ch=1 c=64 v=0
300960 Par ch=1 c=64 v=127
306719 Par ch=1 c=64 v=0
306720 Par ch=1 c=64 v=127
312479 Par ch=1 c=64 v=0
312480 Par ch=1 c=64 v=127
318239 Par ch=1 c=64 v=0
318240 Par ch=1 c=64 v=127
319600 Par ch=1 c=64 v=0
319680 Par ch=1 c=64 v=127
322480 Par ch=1 c=64 v=0
324000 Par ch=1 c=64 v=127
326640 Par ch=1 c=64 v=0
326880 Par ch=1 c=64 v=127
329640 Par ch=1 c=64 v=0
329760 Par ch=1 c=64 v=127
331080 Par ch=1 c=64 v=0
332640 Par ch=1 c=64 v=127
335400 Par ch=1 c=64 v=0
335520 Par ch=1 c=64 v=127
338280 Par ch=1 c=64 v=0
338400 Par ch=1 c=64 v=127
341160 Par ch=1 c=64 v=0
341280 Par ch=1 c=64 v=127
344159 Par ch=1 c=64 v=0
370080 Par ch=1 c=64 v=127
372720 Par ch=1 c=64 v=0
372960 Par ch=1 c=64 v=127
375720 Par ch=1 c=64 v=0
375840 Par ch=1 c=64 v=127
377160 Par ch=1 c=64 v=0
378720 Par ch=1 c=64 v=127
381480 Par ch=1 c=64 v=0
381600 Par ch=1 c=64 v=127
384360 Par ch=1 c=64 v=0
387360 Par ch=1 c=64 v=127
390239 Par ch=1 c=64 v=0
390239 Meta TrkEnd
TrkEnd
