MFile 0 1 480
MTrk
0 SMPTE 96 0 0 0 0
0 TimeSig 4/4 24 8
0 KeySig 0 major
0 Tempo 500000
0 Par ch=1 c=64 v=127
0 On ch=1 n=a#4 v=47
32 On ch=1 n=f#4 v=32
434 On ch=1 n=c#5 v=29
452 On ch=1 n=c#4 v=7
622 Off ch=1 n=c#4 v=64
672 Off ch=1 n=c#5 v=64
770 On ch=1 n=a#5 v=26
834 On ch=1 n=f#3 v=12
982 Off ch=1 n=a#5 v=64
1062 Off ch=1 n=f#4 v=64
1062 On ch=1 n=c#5 v=22
1076 On ch=1 n=c#4 v=15
1156 Off ch=1 n=a#4 v=64
1182 Off ch=1 n=c#4 v=64
1310 On ch=1 n=g#4 v=56
1322 Off ch=1 n=c#5 v=64
1332 On ch=1 n=f4 v=59
1572 On ch=1 n=c#5 v=47
1580 Off ch=1 n=f4 v=64
1586 On ch=1 n=c#4 v=28
1642 Off ch=1 n=g#4 v=64
1682 Off ch=1 n=c#4 v=64
1734 Off ch=1 n=c#5 v=64
1886 On ch=1 n=b4 v=68
1898 On ch=1 n=g#4 v=39
2048 Par ch=1 c=64 v=0
2190 Off ch=1 n=f#3 v=64
2192 On ch=1 n=c#5 v=44
2216 Par ch=1 c=64 v=127
2236 On ch=1 n=c#4 v=26
2306 Off ch=1 n=c#4 v=64
2382 Off ch=1 n=c#5 v=64
2410 Off ch=1 n=g#4 v=64
2458 Off ch=1 n=b4 v=64
2520 On ch=1 n=f#3 v=20
2520 On ch=1 n=b5 v=41
2702 Off ch=1 n=b5 v=64
2790 On ch=1 n=c#5 v=30
2858 On ch=1 n=c#4 v=17
2960 Off ch=1 n=c#5 v=64
2986 Off ch=1 n=c#4 v=64
3090 On ch=1 n=a#4 v=36
3108 On ch=1 n=f#4 v=29
3262 Par ch=1 c=64 v=0
3400 Par ch=1 c=64 v=127
3414 Off ch=1 n=f#4 v=64
3434 On ch=1 n=c#5 v=22
3458 On ch=1 n=c#4 v=15
3552 Off ch=1 n=a#4 v=64
3576 Off ch=1 n=f#3 v=64
3579 Off ch=1 n=c#4 v=64
3586 Off ch=1 n=c#5 v=64
3736 On ch=1 n=f#4 v=70
3758 On ch=1 n=d#4 v=22
4060 On ch=1 n=c#5 v=25
4098 On ch=1 n=c#4 v=12
4194 Off ch=1 n=c#4 v=64
4254 Off ch=1 n=f#4 v=64
4300 Off ch=1 n=c#5 v=64
4308 Off ch=1 n=d#4 v=64
4362 On ch=1 n=f#5 v=17
4382 On ch=1 n=f#3 v=18
4686 Off ch=1 n=f#5 v=64
4700 On ch=1 n=c#4 v=17
4708 On ch=1 n=c#5 v=30
4804 Off ch=1 n=c#5 v=64
4810 Off ch=1 n=c#4 v=64
4956 On ch=1 n=f#4 v=55
4972 On ch=1 n=d#4 v=31
5016 Off ch=1 n=f#4 v=64
5070 Off ch=1 n=d#4 v=64
5200 On ch=1 n=g#4 v=45
5234 On ch=1 n=f4 v=53
5320 Par ch=1 c=64 v=0
5582 Par ch=1 c=64 v=127
5618 Off ch=1 n=f4 v=64
5646 On ch=1 n=c#5 v=32
5650 On ch=1 n=c#4 v=16
5660 Off ch=1 n=f#3 v=64
5762 Off ch=1 n=g#4 v=64
5804 Off ch=1 n=c#4 v=64
5972 On ch=1 n=a#4 v=37
5998 On ch=1 n=f#4 v=28
6026 Off ch=1 n=c#5 v=64
6196 Par ch=1 c=64 v=0
6304 On ch=1 n=c#5 v=33
6328 On ch=1 n=c#4 v=19
6434 Off ch=1 n=c#4 v=64
6458 Par ch=1 c=64 v=127
6588 Off ch=1 n=c#5 v=64
6600 Off ch=1 n=f#4 v=64
6614 On ch=1 n=a#5 v=30
6642 Off ch=1 n=a#4 v=64
6658 On ch=1 n=f#3 v=20
6750 Off ch=1 n=f#3 v=64
6956 Off ch=1 n=a#5 v=64
7022 On ch=1 n=c#5 v=23
7025 On ch=1 n=c#4 v=15
7218 Off ch=1 n=c#4 v=64
7302 Off ch=1 n=c#5 v=64
7740 On ch=1 n=c#5 v=15
7742 On ch=1 n=c#4 v=11
7928 Off ch=1 n=c#4 v=64
7982 Off ch=1 n=c#5 v=64
8264 On ch=1 n=c#5 v=72
8280 On ch=1 n=a#4 v=20
8638 On ch=1 n=f#5 v=23
8640 On ch=1 n=c#4 v=19
8646 Off ch=1 n=a#4 v=64
8744 Off ch=1 n=c#4 v=64
8908 Off ch=1 n=f#5 v=64
8930 On ch=1 n=c#6 v=38
8934 On ch=1 n=f#3 v=27
9186 Off ch=1 n=c#6 v=64
9218 On ch=1 n=c#4 v=29
9221 On ch=1 n=f#5 v=30
9288 Off ch=1 n=c#5 v=64
9302 Off ch=1 n=f#5 v=64
9316 Off ch=1 n=c#4 v=64
9468 On ch=1 n=g#4 v=46
9470 On ch=1 n=b4 v=71
9622 Par ch=1 c=64 v=0
9746 Par ch=1 c=64 v=127
9758 On ch=1 n=c#4 v=36
9761 On ch=1 n=f#5 v=38
9766 Off ch=1 n=b4 v=64
9818 Off ch=1 n=f#3 v=64
9834 Off ch=1 n=c#4 v=64
9878 Off ch=1 n=g#4 v=64
9902 Off ch=1 n=f#5 v=64
10014 On ch=1 n=d#5 v=69
10036 On ch=1 n=b4 v=61
10100 Par ch=1 c=64 v=0
10284 Par ch=1 c=64 v=127
10322 On ch=1 n=f#5 v=30
10325 On ch=1 n=c#4 v=36
10342 Off ch=1 n=b4 v=64
10420 Off ch=1 n=c#4 v=64
10422 Off ch=1 n=d#5 v=64
10564 Off ch=1 n=f#5 v=64
10572 On ch=1 n=f#3 v=32
10580 On ch=1 n=d#6 v=47
10784 Off ch=1 n=d#6 v=64
10846 Off ch=1 n=f#3 v=64
10854 On ch=1 n=f#5 v=34
10862 On ch=1 n=c#4 v=30
10998 Off ch=1 n=f#5 v=64
11096 On ch=1 n=c#5 v=61
11110 On ch=1 n=a#4 v=33
11178 Off ch=1 n=c#4 v=64
11268 Par ch=1 c=64 v=0
11390 Par ch=1 c=64 v=127
11396 On ch=1 n=f#5 v=27
11399 Off ch=1 n=a#4 v=64
11428 On ch=1 n=c#4 v=29
11516 Off ch=1 n=c#5 v=64
11518 Off ch=1 n=c#4 v=64
11572 Off ch=1 n=f#5 v=64
11724 On ch=1 n=f#4 v=61
11748 On ch=1 n=d#4 v=33
11974 Par ch=1 c=64 v=0
12068 On ch=1 n=c#4 v=28
12071 On ch=1 n=c#5 v=37
12128 Par ch=1 c=64 v=127
12216 Off ch=1 n=f#4 v=64
12262 Off ch=1 n=c#4 v=64
12322 Off ch=1 n=d#4 v=64
12358 On ch=1 n=f#3 v=21
12370 Off ch=1 n=c#5 v=64
12370 On ch=1 n=f#5 v=33
12588 Off ch=1 n=f#3 v=64
12622 Off ch=1 n=f#5 v=64
12628 On ch=1 n=c#4 v=24
12630 On ch=1 n=c#5 v=36
12726 Off ch=1 n=c#4 v=64
12726 Off ch=1 n=c#5 v=64
12798 On ch=1 n=f#4 v=52
12810 On ch=1 n=d#4 v=27
12984 Off ch=1 n=d#4 v=64
13108 On ch=1 n=g#4 v=40
13128 On ch=1 n=f4 v=53
13130 Off ch=1 n=f#4 v=64
13188 Par ch=1 c=64 v=0
13434 Par ch=1 c=64 v=127
13468 Off ch=1 n=f4 v=64
13494 On ch=1 n=c#5 v=35
13510 On ch=1 n=c#4 v=18
13540 Off ch=1 n=g#4 v=64
13628 Off ch=1 n=c#4 v=64
13688 Off ch=1 n=c#5 v=64
13788 On ch=1 n=a#4 v=36
13814 On ch=1 n=f#4 v=32
13900 Par ch=1 c=64 v=0
14120 On ch=1 n=c#5 v=33
14120 On ch=1 n=c#4 v=26
14156 Par ch=1 c=64 v=127
14226 Off ch=1 n=c#4 v=64
14276 Off ch=1 n=a#4 v=64
14334 Off ch=1 n=f#4 v=64
14424 Off ch=1 n=c#5 v=64
14440 On ch=1 n=a#5 v=18
14448 On ch=1 n=f#3 v=23
14688 Off ch=1 n=f#3 v=64
14842 On ch=1 n=c#5 v=22
14862 Off ch=1 n=a#5 v=64
14864 On ch=1 n=c#4 v=12
15218 Off ch=1 n=c#4 v=64
15274 Off ch=1 n=c#5 v=64
15612 On ch=1 n=c#4 v=12
15626 On ch=1 n=c#5 v=13
15792 Off ch=1 n=c#4 v=64
15928 Off ch=1 n=c#5 v=64
16250 On ch=1 n=a#4 v=38
16266 On ch=1 n=g4 v=34
16322 Par ch=1 c=64 v=0
16522 Par ch=1 c=64 v=127
16644 On ch=1 n=c#5 v=26
16690 Off ch=1 n=g4 v=64
16794 Off ch=1 n=a#4 v=64
16962 Off ch=1 n=c#5 v=64
16970 On ch=1 n=d#3 v=26
16976 On ch=1 n=a#5 v=19
17046 Off ch=1 n=d#3 v=64
17188 Off ch=1 n=a#5 v=64
17250 On ch=1 n=c#5 v=32
17253 On ch=1 n=d#4 v=29
17368 Off ch=1 n=d#4 v=64
17378 Off ch=1 n=c#5 v=64
17484 On ch=1 n=c#5 v=67
17498 On ch=1 n=a#4 v=38
17786 On ch=1 n=d#5 v=41
17828 On ch=1 n=d#4 v=18
17942 Off ch=1 n=d#5 v=64
17950 Off ch=1 n=d#4 v=64
18148 On ch=1 n=c#6 v=46
18170 On ch=1 n=g#3 v=34
18384 Off ch=1 n=c#6 v=64
18416 Off ch=1 n=a#4 v=64
18456 On ch=1 n=d#5 v=42
18504 On ch=1 n=d#4 v=26
18554 Off ch=1 n=c#5 v=64
18638 Off ch=1 n=d#5 v=64
18642 Off ch=1 n=d#4 v=64
18686 On ch=1 n=b4 v=65
18706 On ch=1 n=g#4 v=38
18810 Par ch=1 c=64 v=0
18950 Par ch=1 c=64 v=127
18978 On ch=1 n=d#5 v=41
19012 On ch=1 n=c4 v=20
19024 Off ch=1 n=b4 v=64
19024 Off ch=1 n=g#4 v=64
19210 Off ch=1 n=d#5 v=64
19236 On ch=1 n=a#4 v=53
19266 On ch=1 n=f#4 v=48
19304 Off ch=1 n=c4 v=64
19538 On ch=1 n=d#5 v=44
19628 On ch=1 n=d#4 v=10
19632 Off ch=1 n=a#4 v=64
19648 Off ch=1 n=f#4 v=64
19712 Off ch=1 n=d#4 v=64
19784 On ch=1 n=g#4 v=60
19814 On ch=1 n=f4 v=71
19816 Off ch=1 n=d#5 v=64
19918 Par ch=1 c=64 v=0
20072 Off ch=1 n=g#3 v=64
20074 On ch=1 n=c#5 v=43
20116 On ch=1 n=c#4 v=26
20116 Par ch=1 c=64 v=127
20152 Off ch=1 n=f4 v=64
20180 Off ch=1 n=c#4 v=64
20322 On ch=1 n=g#5 v=49
20334 On ch=1 n=c#3 v=51
20339 Off ch=1 n=c#5 v=64
20358 Off ch=1 n=g#4 v=64
20388 Off ch=1 n=c#3 v=64
20580 On ch=1 n=c#5 v=48
20582 On ch=1 n=c#4 v=41
20620 Off ch=1 n=g#5 v=64
20682 Off ch=1 n=c#4 v=64
20824 On ch=1 n=b4 v=80
20844 On ch=1 n=g#4 v=49
20882 Off ch=1 n=c#5 v=64
21098 On ch=1 n=c#5 v=52
21122 On ch=1 n=c#4 v=31
21372 Off ch=1 n=c#4 v=64
21384 Off ch=1 n=c#5 v=64
21384 On ch=1 n=b5 v=56
21398 On ch=1 n=f#3 v=38
21408 Par ch=1 c=64 v=0
21562 Par ch=1 c=64 v=127
21594 Off ch=1 n=g#4 v=64
21628 Off ch=1 n=b5 v=64
21646 On ch=1 n=c#5 v=57
21656 Off ch=1 n=b4 v=64
21676 On ch=1 n=c#4 v=37
21768 Off ch=1 n=c#4 v=64
21822 Off ch=1 n=c#5 v=64
21924 On ch=1 n=a#4 v=51
21942 On ch=1 n=f#4 v=62
22160 Par ch=1 c=64 v=0
22192 On ch=1 n=c#5 v=47
22214 On ch=1 n=c#4 v=36
22268 Par ch=1 c=64 v=127
22310 Off ch=1 n=a#4 v=64
22330 Off ch=1 n=f#4 v=64
22414 On ch=1 n=g#4 v=73
22428 Off ch=1 n=c#4 v=64
22440 On ch=1 n=f4 v=79
22492 Off ch=1 n=c#5 v=64
22560 Par ch=1 c=64 v=0
22662 On ch=1 n=a#3 v=24
22670 On ch=1 n=d5 v=48
22682 Par ch=1 c=64 v=127
22704 Off ch=1 n=f4 v=64
22746 Off ch=1 n=f#3 v=64
22774 Off ch=1 n=g#4 v=64
22878 Off ch=1 n=a#3 v=64
22892 On ch=1 n=d#4 v=44
22892 On ch=1 n=f#4 v=83
22944 Off ch=1 n=d5 v=64
23068 Par ch=1 c=64 v=0
23168 On ch=1 n=d#5 v=42
23180 On ch=1 n=a#3 v=29
23298 Par ch=1 c=64 v=127
23352 Off ch=1 n=a#3 v=64
23426 On ch=1 n=f#5 v=38
23426 On ch=1 n=d#3 v=29
23429 Off ch=1 n=d#5 v=64
23620 Off ch=1 n=d#3 v=64
23658 Off ch=1 n=d#4 v=64
23678 On ch=1 n=d#5 v=52
23690 On ch=1 n=a#3 v=28
23730 Off ch=1 n=f#5 v=64
23738 Off ch=1 n=f#4 v=64
23764 Off ch=1 n=a#3 v=64
23856 Off ch=1 n=d#5 v=64
23938 On ch=1 n=g#4 v=63
23950 On ch=1 n=f#4 v=43
24004 Par ch=1 c=64 v=0
24204 Par ch=1 c=64 v=127
24222 On ch=1 n=d#5 v=44
24232 On ch=1 n=g#3 v=24
24262 Off ch=1 n=f#4 v=64
24474 Off ch=1 n=g#3 v=64
24502 On ch=1 n=g#5 v=35
24534 Off ch=1 n=d#5 v=64
24542 On ch=1 n=c3 v=27
24756 Off ch=1 n=c3 v=64
24780 On ch=1 n=d#5 v=39
24780 On ch=1 n=g#3 v=41
24812 Off ch=1 n=g#4 v=64
24816 Off ch=1 n=g#5 v=64
24852 Off ch=1 n=g#3 v=64
24902 Off ch=1 n=d#5 v=64
25030 On ch=1 n=g#4 v=57
25048 On ch=1 n=f4 v=70
25048 Par ch=1 c=64 v=0
25182 Off ch=1 n=f4 v=64
25200 Par ch=1 c=64 v=127
25310 On ch=1 n=c#5 v=42
25313 On ch=1 n=c#3 v=44
25372 Off ch=1 n=c#3 v=64
25396 Off ch=1 n=g#4 v=64
25526 On ch=1 n=a#4 v=54
25532 On ch=1 n=e4 v=63
25592 Off ch=1 n=c#5 v=64
25724 Par ch=1 c=64 v=0
25784 On ch=1 n=g3 v=37
25792 On ch=1 n=a#5 v=38
25860 Off ch=1 n=e4 v=64
25864 Par ch=1 c=64 v=127
25886 Off ch=1 n=g3 v=64
25916 Off ch=1 n=a#4 v=64
25928 Off ch=1 n=a#5 v=64
26026 On ch=1 n=g#4 v=61
26034 On ch=1 n=f4 v=64
26172 Par ch=1 c=64 v=0
26306 On ch=1 n=c#5 v=39
26308 On ch=1 n=c#4 v=30
26420 Par ch=1 c=64 v=127
26498 Off ch=1 n=c#4 v=64
26548 Off ch=1 n=c#5 v=64
26550 On ch=1 n=g#5 v=50
26582 On ch=1 n=g#3 v=25
26626 Off ch=1 n=f4 v=64
26790 Off ch=1 n=g#3 v=64
26818 Off ch=1 n=g#5 v=64
26828 On ch=1 n=c#5 v=41
26832 On ch=1 n=c#4 v=22
26872 Off ch=1 n=g#4 v=64
26936 Off ch=1 n=c#4 v=64
27072 On ch=1 n=f#4 v=55
27080 On ch=1 n=d#4 v=32
27098 Off ch=1 n=c#5 v=64
27124 Par ch=1 c=64 v=0
27358 On ch=1 n=c5 v=36
27372 On ch=1 n=g#3 v=35
27432 Par ch=1 c=64 v=127
27462 Off ch=1 n=g#3 v=64
27606 Off ch=1 n=f#4 v=64
27632 Off ch=1 n=c5 v=64
27654 On ch=1 n=g#5 v=47
27710 Off ch=1 n=d#4 v=64
27710 On ch=1 n=c#3 v=29
27902 Off ch=1 n=g#5 v=64
27950 On ch=1 n=c5 v=43
27976 On ch=1 n=g#3 v=27
27994 Off ch=1 n=c#3 v=64
28252 Off ch=1 n=c5 v=64
28264 Off ch=1 n=g#3 v=64
28282 On ch=1 n=c#4 v=24
28285 On ch=1 n=f4 v=62
28306 Par ch=1 c=64 v=0
28536 Par ch=1 c=64 v=127
28604 Off ch=1 n=f4 v=64
28606 On ch=1 n=c#5 v=35
28624 On ch=1 n=g#3 v=25
28844 Off ch=1 n=c#4 v=64
28894 Off ch=1 n=g#3 v=64
28980 On ch=1 n=g#5 v=20
28994 Off ch=1 n=c#5 v=64
29034 On ch=1 n=c#3 v=23
29142 Off ch=1 n=c#3 v=64
29292 Off ch=1 n=g#5 v=64
29428 On ch=1 n=c#5 v=33
29580 Off ch=1 n=c#5 v=64
30090 On ch=1 n=a#4 v=54
30114 On ch=1 n=f#4 v=28
30212 Par ch=1 c=64 v=0
30488 Par ch=1 c=64 v=127
30526 On ch=1 n=c#4 v=17
30536 On ch=1 n=c#5 v=31
30692 Off ch=1 n=c#4 v=64
30756 Off ch=1 n=f#4 v=64
30786 Off ch=1 n=a#4 v=64
30874 On ch=1 n=a#5 v=24
30886 On ch=1 n=f#3 v=25
30900 Off ch=1 n=c#5 v=64
31140 Off ch=1 n=a#5 v=64
31186 On ch=1 n=c#4 v=30
31189 On ch=1 n=c#5 v=36
31402 Off ch=1 n=c#4 v=64
31460 On ch=1 n=g#4 v=46
31492 On ch=1 n=f4 v=59
31496 Off ch=1 n=c#5 v=64
31702 Par ch=1 c=64 v=0
31808 On ch=1 n=c#5 v=40
31820 On ch=1 n=c#4 v=29
31840 Par ch=1 c=64 v=127
31854 Off ch=1 n=f4 v=64
31896 Off ch=1 n=g#4 v=64
31952 Off ch=1 n=c#4 v=64
32068 On ch=1 n=b4 v=68
32090 On ch=1 n=g#4 v=35
32128 Off ch=1 n=c#5 v=64
32224 Par ch=1 c=64 v=0
32410 Par ch=1 c=64 v=127
32410 On ch=1 n=c#5 v=54
32434 Off ch=1 n=f#3 v=64
32434 On ch=1 n=c#4 v=24
32538 Off ch=1 n=c#4 v=64
32640 Off ch=1 n=c#5 v=64
32668 Off ch=1 n=g#4 v=64
32722 On ch=1 n=b5 v=59
32752 On ch=1 n=f#3 v=29
32772 Off ch=1 n=b4 v=64
32950 Off ch=1 n=b5 v=64
32994 On ch=1 n=c#5 v=53
33022 On ch=1 n=c#4 v=29
33124 Off ch=1 n=c#4 v=64
33166 Off ch=1 n=c#5 v=64
33244 On ch=1 n=a#4 v=58
33274 On ch=1 n=f#4 v=41
33422 Par ch=1 c=64 v=0
33562 Off ch=1 n=f#4 v=64
33562 Par ch=1 c=64 v=127
33574 On ch=1 n=c#5 v=43
33576 On ch=1 n=c#4 v=26
33688 Off ch=1 n=a#4 v=64
33744 Off ch=1 n=c#4 v=64
33754 Off ch=1 n=c#5 v=64
33862 On ch=1 n=f#4 v=72
33886 On ch=1 n=d#4 v=33
33976 Par ch=1 c=64 v=0
34168 Off ch=1 n=f#3 v=64
34176 Par ch=1 c=64 v=127
34210 On ch=1 n=c#5 v=44
34216 On ch=1 n=c#4 v=19
34334 Off ch=1 n=c#4 v=64
34356 Off ch=1 n=f#4 v=64
34470 Off ch=1 n=d#4 v=64
34514 On ch=1 n=f#3 v=29
34517 On ch=1 n=f#5 v=30
34550 Off ch=1 n=c#5 v=64
34860 Off ch=1 n=f#5 v=64
34868 On ch=1 n=c#4 v=21
35026 Off ch=1 n=c#4 v=64
35082 On ch=1 n=f#4 v=48
35096 On ch=1 n=d#4 v=24
35208 Off ch=1 n=d#4 v=64
35366 On ch=1 n=g#4 v=39
35384 On ch=1 n=f4 v=55
35414 Off ch=1 n=f#4 v=64
35434 Par ch=1 c=64 v=0
35712 Par ch=1 c=64 v=127
35744 Off ch=1 n=f4 v=64
35832 On ch=1 n=c#5 v=33
35842 On ch=1 n=c#4 v=18
35944 Off ch=1 n=g#4 v=64
36058 Off ch=1 n=c#4 v=64
36064 Off ch=1 n=f#3 v=64
36166 On ch=1 n=a#4 v=31
36182 On ch=1 n=f#4 v=29
36208 Off ch=1 n=c#5 v=64
36250 Par ch=1 c=64 v=0
36524 On ch=1 n=c#5 v=36
36540 On ch=1 n=c#4 v=21
36558 Par ch=1 c=64 v=127
36728 Off ch=1 n=f#4 v=64
36732 Off ch=1 n=c#4 v=64
36792 Off ch=1 n=c#5 v=64
36860 On ch=1 n=a#5 v=22
36876 On ch=1 n=f#3 v=21
37180 Off ch=1 n=a#4 v=64
37194 Off ch=1 n=f#3 v=64
37246 On ch=1 n=c#5 v=24
37266 On ch=1 n=c#4 v=13
37540 Off ch=1 n=a#5 v=64
37608 Off ch=1 n=c#4 v=64
37612 Off ch=1 n=c#5 v=64
37856 On ch=1 n=c#5 v=30
37862 On ch=1 n=c#4 v=17
37964 Off ch=1 n=c#5 v=64
37967 Off ch=1 n=c#4 v=64
38178 On ch=1 n=c#5 v=72
38194 On ch=1 n=a#4 v=29
38460 Off ch=1 n=a#4 v=64
38518 On ch=1 n=c#4 v=24
38522 On ch=1 n=f#5 v=24
38726 Off ch=1 n=c#4 v=64
38794 Off ch=1 n=f#5 v=64
38804 On ch=1 n=c#6 v=36
38826 On ch=1 n=f#3 v=23
39078 Off ch=1 n=c#6 v=64
39086 On ch=1 n=f#5 v=26
39100 On ch=1 n=c#4 v=26
39184 Off ch=1 n=c#5 v=64
39260 Off ch=1 n=f#5 v=64
39286 Off ch=1 n=c#4 v=64
39346 On ch=1 n=b4 v=73
39352 On ch=1 n=g#4 v=37
39462 Par ch=1 c=64 v=0
39584 Par ch=1 c=64 v=127
39632 Off ch=1 n=b4 v=64
39640 On ch=1 n=f#5 v=33
39660 On ch=1 n=c#4 v=30
39700 Off ch=1 n=f#3 v=64
39732 Off ch=1 n=c#4 v=64
39748 Off ch=1 n=g#4 v=64
39790 Off ch=1 n=f#5 v=64
39884 On ch=1 n=d#5 v=75
39914 On ch=1 n=b4 v=54
39968 Par ch=1 c=64 v=0
40138 Par ch=1 c=64 v=127
40204 On ch=1 n=f#5 v=33
40207 On ch=1 n=c#4 v=31
40214 Off ch=1 n=b4 v=64
40302 Off ch=1 n=d#5 v=64
40320 Off ch=1 n=c#4 v=64
40472 Off ch=1 n=f#5 v=64
40482 On ch=1 n=d#6 v=56
40485 On ch=1 n=f#3 v=34
40720 Off ch=1 n=d#6 v=64
40740 Off ch=1 n=f#3 v=64
40790 On ch=1 n=f#5 v=41
40793 On ch=1 n=c#4 v=30
41016 On ch=1 n=c#5 v=62
41018 Off ch=1 n=f#5 v=64
41024 On ch=1 n=a#4 v=33
41042 Off ch=1 n=c#4 v=64
41224 Off ch=1 n=a#4 v=64
41296 On ch=1 n=f#5 v=29
41302 On ch=1 n=c#4 v=34
41352 Off ch=1 n=c#5 v=64
41416 Off ch=1 n=c#4 v=64
41428 Off ch=1 n=f#5 v=64
41554 On ch=1 n=f#4 v=82
41584 On ch=1 n=d#4 v=36
41674 Par ch=1 c=64 v=0
41864 On ch=1 n=c#4 v=30
41868 On ch=1 n=c#5 v=52
41936 Par ch=1 c=64 v=127
42048 Off ch=1 n=f#4 v=64
42110 Off ch=1 n=c#4 v=64
42118 Off ch=1 n=d#4 v=64
42174 On ch=1 n=f#3 v=27
42180 On ch=1 n=f#5 v=44
42222 Off ch=1 n=c#5 v=64
42494 On ch=1 n=c#4 v=28
42497 On ch=1 n=c#5 v=38
42514 Off ch=1 n=f#5 v=64
42630 Off ch=1 n=c#4 v=64
42686 Off ch=1 n=c#5 v=64
42694 On ch=1 n=f#4 v=61
42708 On ch=1 n=d#4 v=34
42818 Off ch=1 n=d#4 v=64
42890 Off ch=1 n=f#4 v=64
42940 On ch=1 n=g#4 v=48
42960 On ch=1 n=f4 v=49
43012 Par ch=1 c=64 v=0
43300 Off ch=1 n=f4 v=64
43318 Par ch=1 c=64 v=127
43348 On ch=1 n=c#5 v=38
43354 On ch=1 n=c#4 v=21
43472 Off ch=1 n=g#4 v=64
43568 Off ch=1 n=c#4 v=64
43622 Off ch=1 n=c#5 v=64
43634 Off ch=1 n=f#3 v=64
43689 On ch=1 n=a#4 v=37
43693 On ch=1 n=f#4 v=31
43748 Par ch=1 c=64 v=0
44024 Par ch=1 c=64 v=127
44034 On ch=1 n=c#5 v=32
44039 On ch=1 n=c#4 v=26
44162 Off ch=1 n=c#4 v=64
44198 Off ch=1 n=c#5 v=64
44336 On ch=1 n=a#5 v=22
44362 On ch=1 n=f#3 v=24
44624 Off ch=1 n=f#3 v=64
44676 Off ch=1 n=a#5 v=64
44726 On ch=1 n=c#5 v=21
44738 On ch=1 n=c#4 v=10
44988 Off ch=1 n=c#4 v=64
45114 Off ch=1 n=c#5 v=64
45412 On ch=1 n=c#5 v=29
45420 On ch=1 n=c#4 v=18
45530 Off ch=1 n=a#4 v=64
45630 Off ch=1 n=c#4 v=64
45648 Off ch=1 n=f#4 v=64
45658 Off ch=1 n=c#5 v=64
45762 On ch=1 n=a#4 v=56
45782 On ch=1 n=g4 v=43
45808 Par ch=1 c=64 v=0
46084 Par ch=1 c=64 v=127
46204 On ch=1 n=c#5 v=34
46222 On ch=1 n=d#4 v=29
46288 Off ch=1 n=g4 v=64
46296 Off ch=1 n=d#4 v=64
46446 Off ch=1 n=a#4 v=64
46504 On ch=1 n=a#5 v=32
46518 Off ch=1 n=c#5 v=64
46521 On ch=1 n=d#3 v=42
46654 Off ch=1 n=d#3 v=64
46808 On ch=1 n=c#5 v=43
46808 On ch=1 n=d#4 v=43
46814 Off ch=1 n=a#5 v=64
46940 Off ch=1 n=c#5 v=64
46956 Off ch=1 n=d#4 v=64
47080 On ch=1 n=c#5 v=81
47094 On ch=1 n=a#4 v=48
47370 On ch=1 n=d#5 v=50
47408 On ch=1 n=d#4 v=18
47510 Off ch=1 n=d#5 v=64
47598 Off ch=1 n=d#4 v=64
47634 On ch=1 n=c#6 v=51
47640 On ch=1 n=g#3 v=42
47698 Par ch=1 c=64 v=0
47882 Par ch=1 c=64 v=127
47914 On ch=1 n=d#5 v=48
47924 Off ch=1 n=c#6 v=64
47942 Off ch=1 n=a#4 v=64
47950 On ch=1 n=d#4 v=33
48070 Off ch=1 n=c#5 v=64
48082 Off ch=1 n=d#5 v=64
48170 On ch=1 n=b4 v=78
48186 On ch=1 n=g#4 v=42
48212 Off ch=1 n=d#4 v=64
48358 Par ch=1 c=64 v=0
48454 On ch=1 n=d#5 v=47
48480 Par ch=1 c=64 v=127
48482 On ch=1 n=d#4 v=41
48526 Off ch=1 n=g#4 v=64
48536 Off ch=1 n=b4 v=64
48662 Off ch=1 n=d#5 v=64
48676 On ch=1 n=a#4 v=59
48680 On ch=1 n=f#4 v=71
48760 Off ch=1 n=d#4 v=64
48818 Par ch=1 c=64 v=0
48960 On ch=1 n=d#5 v=55
48988 Par ch=1 c=64 v=127
49004 On ch=1 n=c4 v=27
49108 Off ch=1 n=a#4 v=64
49126 Off ch=1 n=c4 v=64
49160 Off ch=1 n=g#3 v=64
49172 Off ch=1 n=d#5 v=64
49236 Off ch=1 n=f#4 v=64
49292 On ch=1 n=g#4 v=59
49308 On ch=1 n=f4 v=83
49450 Par ch=1 c=64 v=0
49654 On ch=1 n=c#5 v=52
49670 On ch=1 n=c#4 v=39
49694 Par ch=1 c=64 v=127
49698 Off ch=1 n=f4 v=64
49750 Off ch=1 n=c#4 v=64
49928 On ch=1 n=g#5 v=48
49928 On ch=1 n=c#3 v=49
49948 Off ch=1 n=c#5 v=64
49988 Off ch=1 n=c#3 v=64
50144 Off ch=1 n=g#4 v=64
50174 On ch=1 n=c#5 v=51
50182 On ch=1 n=c#4 v=39
50240 Off ch=1 n=g#5 v=64
50298 Off ch=1 n=c#4 v=64
50324 Off ch=1 n=c#5 v=64
50468 On ch=1 n=b4 v=81
50494 On ch=1 n=g#4 v=53
50772 On ch=1 n=c#5 v=56
50790 On ch=1 n=c#4 v=34
51110 On ch=1 n=b5 v=64
51126 Off ch=1 n=c#4 v=64
51136 On ch=1 n=f#3 v=36
51139 Off ch=1 n=c#5 v=64
51170 Par ch=1 c=64 v=0
51324 Par ch=1 c=64 v=127
51390 Off ch=1 n=b5 v=64
51402 Off ch=1 n=g#4 v=64
51422 On ch=1 n=c#5 v=55
51425 Off ch=1 n=b4 v=64
51456 On ch=1 n=c#4 v=32
51540 Off ch=1 n=c#4 v=64
51632 Off ch=1 n=c#5 v=64
51656 On ch=1 n=a#4 v=60
51676 On ch=1 n=f#4 v=55
51830 Par ch=1 c=64 v=0
51942 On ch=1 n=c#5 v=46
51980 On ch=1 n=c#4 v=32
51983 Par ch=1 c=64 v=127
52060 Off ch=1 n=a#4 v=64
52084 Off ch=1 n=f#4 v=64
52154 Off ch=1 n=c#4 v=64
52172 On ch=1 n=g#4 v=67
52192 On ch=1 n=f4 v=55
52242 Off ch=1 n=c#5 v=64
52338 Par ch=1 c=64 v=0
52416 Off ch=1 n=f4 v=64
52460 On ch=1 n=d5 v=50
52462 Par ch=1 c=64 v=127
52476 On ch=1 n=a#3 v=20
52482 Off ch=1 n=f#3 v=64
52584 Off ch=1 n=a#3 v=64
52586 Off ch=1 n=g#4 v=64
52710 On ch=1 n=f#4 v=78
52726 On ch=1 n=d#4 v=34
52752 Off ch=1 n=d5 v=64
53022 On ch=1 n=a#3 v=30
53026 On ch=1 n=d#5 v=50
53106 Par ch=1 c=64 v=0
53266 Off ch=1 n=a#3 v=64
53274 Par ch=1 c=64 v=127
53280 On ch=1 n=f#5 v=47
53285 On ch=1 n=d#3 v=51
53326 Off ch=1 n=d#5 v=64
53462 Off ch=1 n=d#3 v=64
53546 On ch=1 n=d#5 v=58
53554 On ch=1 n=a#3 v=33
53558 Off ch=1 n=d#4 v=64
53560 Off ch=1 n=f#4 v=64
53616 Off ch=1 n=f#5 v=64
53632 Off ch=1 n=a#3 v=64
53698 Off ch=1 n=d#5 v=64
53810 On ch=1 n=g#4 v=66
53832 On ch=1 n=f#4 v=68
53952 Par ch=1 c=64 v=0
54130 On ch=1 n=d#5 v=56
54136 Par ch=1 c=64 v=127
54152 On ch=1 n=g#3 v=41
54186 Off ch=1 n=f#4 v=64
54402 Off ch=1 n=g#3 v=64
54440 On ch=1 n=g#5 v=48
54458 On ch=1 n=c3 v=35
54480 Off ch=1 n=d#5 v=64
54730 Off ch=1 n=c3 v=64
54764 On ch=1 n=g#3 v=35
54776 On ch=1 n=d#5 v=56
54816 Off ch=1 n=g#4 v=64
54918 Off ch=1 n=g#3 v=64
54936 Off ch=1 n=g#5 v=64
55036 On ch=1 n=f4 v=65
55042 On ch=1 n=g#4 v=62
55076 Off ch=1 n=d#5 v=64
55102 Par ch=1 c=64 v=0
55218 Off ch=1 n=f4 v=64
55242 Par ch=1 c=64 v=127
55326 On ch=1 n=c#5 v=55
55346 On ch=1 n=c#3 v=48
55424 Off ch=1 n=g#4 v=64
55454 Off ch=1 n=c#3 v=64
55574 On ch=1 n=a#4 v=55
55582 On ch=1 n=e4 v=65
55658 Off ch=1 n=c#5 v=64
55854 On ch=1 n=a#5 v=46
55884 On ch=1 n=g3 v=32
55887 Par ch=1 c=64 v=0
56014 Off ch=1 n=e4 v=64
56026 Par ch=1 c=64 v=127
56042 Off ch=1 n=a#4 v=64
56054 Off ch=1 n=a#5 v=64
56066 Off ch=1 n=g3 v=64
56142 On ch=1 n=g#4 v=62
56158 On ch=1 n=f4 v=59
56316 Par ch=1 c=64 v=0
56456 On ch=1 n=c#5 v=51
56470 On ch=1 n=c#4 v=29
56532 Par ch=1 c=64 v=127
56644 Off ch=1 n=f4 v=64
56682 Off ch=1 n=c#4 v=64
56704 On ch=1 n=g#5 v=47
56710 Off ch=1 n=c#5 v=64
56734 On ch=1 n=g#3 v=34
56946 Off ch=1 n=g#3 v=64
56974 On ch=1 n=c#4 v=29
56980 On ch=1 n=c#5 v=44
56986 Off ch=1 n=g#5 v=64
57028 Off ch=1 n=g#4 v=64
57058 Off ch=1 n=c#4 v=64
57166 Off ch=1 n=c#5 v=64
57222 On ch=1 n=f#4 v=67
57236 On ch=1 n=d#4 v=33
57332 Par ch=1 c=64 v=0
57518 On ch=1 n=g#3 v=38
57536 On ch=1 n=c5 v=43
57638 Par ch=1 c=64 v=127
57834 Off ch=1 n=g#3 v=64
57868 Off ch=1 n=c5 v=64
57868 Par ch=1 c=64 v=0
57871 On ch=1 n=g#5 v=36
57902 On ch=1 n=c#3 v=28
58070 Par ch=1 c=64 v=127
58158 Off ch=1 n=g#5 v=64
58200 Off ch=1 n=d#4 v=64
58214 On ch=1 n=g#3 v=22
58240 On ch=1 n=c5 v=23
58336 Off ch=1 n=c#3 v=64
58373 Off ch=1 n=f#4 v=64
58456 Off ch=1 n=g#3 v=64
58480 Off ch=1 n=c5 v=64
58562 On ch=1 n=f4 v=54
58570 On ch=1 n=c#4 v=20
58622 Par ch=1 c=64 v=0
58822 Par ch=1 c=64 v=127
58866 On ch=1 n=c#5 v=36
58876 Off ch=1 n=f4 v=64
58880 On ch=1 n=g#3 v=22
59120 Off ch=1 n=g#3 v=64
59158 Off ch=1 n=c#4 v=64
59202 On ch=1 n=g#5 v=10
59206 Off ch=1 n=c#5 v=64
59244 On ch=1 n=c#3 v=21
59362 Off ch=1 n=c#3 v=64
59516 Off ch=1 n=g#5 v=64
59670 On ch=1 n=c#5 v=29
59776 Off ch=1 n=c#5 v=64
60354 On ch=1 n=b5 v=77
60378 On ch=1 n=g#2 v=20
60380 On ch=1 n=g#5 v=31
60384 On ch=1 n=g#3 v=25
60528 Par ch=1 c=64 v=0
60754 On ch=1 n=d#5 v=38
61040 Off ch=1 n=d#5 v=64
61050 Par ch=1 c=64 v=127
61068 On ch=1 n=b4 v=34
61146 Off ch=1 n=g#5 v=64
61220 Off ch=1 n=b4 v=64
61292 Off ch=1 n=g#2 v=64
61334 On ch=1 n=d#5 v=51
61340 Off ch=1 n=g#3 v=64
61386 Off ch=1 n=d#5 v=64
61574 On ch=1 n=a#3 v=25
61582 On ch=1 n=a#5 v=61
61602 On ch=1 n=a#2 v=25
61602 On ch=1 n=g#5 v=34
61718 Off ch=1 n=b5 v=64
61742 Par ch=1 c=64 v=0
61870 On ch=1 n=f5 v=34
61988 Off ch=1 n=g#5 v=64
62154 On ch=1 n=d5 v=44
62186 Off ch=1 n=f5 v=64
62264 Par ch=1 c=64 v=127
62338 Off ch=1 n=a#3 v=64
62380 Off ch=1 n=d5 v=64
62402 On ch=1 n=g#5 v=43
62459 Off ch=1 n=a#5 v=64
62542 Off ch=1 n=a#2 v=64
62666 On ch=1 n=a#5 v=71
62680 On ch=1 n=f#2 v=44
62692 On ch=1 n=f#5 v=37
62702 On ch=1 n=f#3 v=17
62730 Off ch=1 n=g#5 v=64
62922 On ch=1 n=d#5 v=48
62940 Par ch=1 c=64 v=0
62986 Off ch=1 n=f#5 v=64
62998 Off ch=1 n=f#3 v=64
63062 Par ch=1 c=64 v=127
63100 Off ch=1 n=d#5 v=64
63164 On ch=1 n=g#5 v=83
63176 On ch=1 n=g#3 v=39
63179 On ch=1 n=g#2 v=47
63186 On ch=1 n=f5 v=48
63196 Off ch=1 n=f#2 v=64
63256 Off ch=1 n=a#5 v=64
63370 Par ch=1 c=64 v=0
63454 On ch=1 n=b4 v=49
63459 Off ch=1 n=f5 v=64
63488 Off ch=1 n=g#3 v=64
63508 Par ch=1 c=64 v=127
63510 Off ch=1 n=g#5 v=64
63606 Off ch=1 n=g#2 v=64
63648 On ch=1 n=f#5 v=69
63650 On ch=1 n=a#2 v=45
63652 On ch=1 n=a#3 v=40
63672 On ch=1 n=d#5 v=50
63700 Off ch=1 n=b4 v=64
63830 Par ch=1 c=64 v=0
63932 On ch=1 n=a#4 v=36
64132 Off ch=1 n=a#4 v=64
64154 Par ch=1 c=64 v=127
64180 On ch=1 n=f#4 v=47
64300 Off ch=1 n=d#5 v=64
64364 Off ch=1 n=a#3 v=64
64366 Off ch=1 n=f#4 v=64
64426 On ch=1 n=a#4 v=39
64530 Off ch=1 n=f#5 v=64
64668 Off ch=1 n=a#2 v=64
64670 On ch=1 n=f5 v=70
64680 On ch=1 n=g#3 v=38
64686 On ch=1 n=d5 v=46
64688 On ch=1 n=g#2 v=33
64718 Off ch=1 n=a#4 v=64
64798 Par ch=1 c=64 v=0
64928 On ch=1 n=a#4 v=41
65188 On ch=1 n=f4 v=79
65218 Off ch=1 n=a#4 v=64
65336 Par ch=1 c=64 v=127
65454 On ch=1 n=a#4 v=48
65496 Off ch=1 n=d5 v=64
65502 Off ch=1 n=f4 v=64
65522 Off ch=1 n=g#3 v=64
65694 On ch=1 n=d#5 v=78
65700 On ch=1 n=f#2 v=44
65703 Off ch=1 n=g#2 v=64
65703 On ch=1 n=f#3 v=34
65734 Off ch=1 n=a#4 v=64
65814 Par ch=1 c=64 v=0
65894 Off ch=1 n=f5 v=64
65948 On ch=1 n=a#4 v=43
66042 Par ch=1 c=64 v=127
66156 Off ch=1 n=f#3 v=64
66194 On ch=1 n=f2 v=58
66194 On ch=1 n=f3 v=53
66202 Off ch=1 n=f#2 v=64
66320 Par ch=1 c=64 v=0
66462 Off ch=1 n=f3 v=64
66498 Off ch=1 n=a#4 v=64
66510 On ch=1 n=g#4 v=48
66520 Par ch=1 c=64 v=127
66640 Off ch=1 n=d#5 v=64
66712 Off ch=1 n=g#4 v=64
66714 Off ch=1 n=f2 v=64
66910 On ch=1 n=d#2 v=55
66950 On ch=1 n=d#3 v=18
66994 On ch=1 n=a5 v=44
67004 On ch=1 n=f#5 v=30
67104 Par ch=1 c=64 v=0
67322 On ch=1 n=c#5 v=48
67564 Par ch=1 c=64 v=127
67640 Off ch=1 n=c#5 v=64
67643 On ch=1 n=a4 v=35
67800 Off ch=1 n=f#5 v=64
67810 Off ch=1 n=a4 v=64
67896 Off ch=1 n=d#2 v=64
67924 On ch=1 n=c#5 v=43
67940 Off ch=1 n=d#3 v=64
67950 Off ch=1 n=a5 v=64
68250 On ch=1 n=g#2 v=25
68253 On ch=1 n=g#5 v=39
68257 On ch=1 n=g#3 v=24
68257 On ch=1 n=f#5 v=31
68300 Off ch=1 n=c#5 v=64
68332 Par ch=1 c=64 v=0
68548 On ch=1 n=d#5 v=33
68740 Off ch=1 n=f#5 v=64
68794 Par ch=1 c=64 v=127
68834 On ch=1 n=c5 v=38
68882 Off ch=1 n=d#5 v=64
68982 Off ch=1 n=g#3 v=64
69024 Off ch=1 n=c5 v=64
69088 On ch=1 n=f#5 v=33
69102 Off ch=1 n=g#2 v=64
69114 Off ch=1 n=g#5 v=64
69354 On ch=1 n=g#5 v=58
69359 Off ch=1 n=f#5 v=64
69376 On ch=1 n=e2 v=28
69376 On ch=1 n=e5 v=35
69434 On ch=1 n=e3 v=2
69470 Par ch=1 c=64 v=0
69572 Off ch=1 n=e3 v=64
69582 On ch=1 n=c#5 v=21
69636 Off ch=1 n=e5 v=64
69654 Par ch=1 c=64 v=127
69680 Off ch=1 n=e2 v=64
69772 Off ch=1 n=c#5 v=64
69848 On ch=1 n=f#5 v=58
69853 On ch=1 n=f#3 v=22
69864 On ch=1 n=f#2 v=31
69876 On ch=1 n=d#5 v=34
69940 Off ch=1 n=g#5 v=64
69946 Par ch=1 c=64 v=0
70100 Par ch=1 c=64 v=127
70126 On ch=1 n=a4 v=40
70129 Off ch=1 n=d#5 v=64
70156 Off ch=1 n=f#5 v=64
70156 Off ch=1 n=f#3 v=64
70159 Off ch=1 n=f#2 v=64
70358 On ch=1 n=g#3 v=35
70358 On ch=1 n=c#5 v=41
70368 On ch=1 n=e5 v=71
70371 On ch=1 n=g#2 v=25
70386 Off ch=1 n=a4 v=64
70452 Par ch=1 c=64 v=0
70626 On ch=1 n=g#4 v=43
70746 Par ch=1 c=64 v=127
70780 Off ch=1 n=g#4 v=64
70838 Off ch=1 n=c#5 v=64
70896 Off ch=1 n=e5 v=64
70982 On ch=1 n=e4 v=10
71040 Off ch=1 n=g#3 v=64
71084 Off ch=1 n=e4 v=64
71210 On ch=1 n=g#4 v=26
71236 Off ch=1 n=g#2 v=64
71442 Off ch=1 n=g#4 v=64
71492 On ch=1 n=d#5 v=47
71502 On ch=1 n=f#2 v=20
71506 On ch=1 n=f#3 v=20
71520 On ch=1 n=c5 v=23
71560 Par ch=1 c=64 v=0
71776 On ch=1 n=g#4 v=32
71880 Off ch=1 n=c5 v=64
71882 Par ch=1 c=64 v=127
71956 Off ch=1 n=g#4 v=64
72110 On ch=1 n=d#4 v=12
72194 Off ch=1 n=f#3 v=64
72294 Off ch=1 n=d#4 v=64
72358 Off ch=1 n=f#2 v=64
72432 On ch=1 n=g#4 v=22
72668 Off ch=1 n=g#4 v=64
72782 On ch=1 n=c#5 v=36
72818 On ch=1 n=e2 v=17
72828 On ch=1 n=e3 v=21
72866 Par ch=1 c=64 v=0
72934 Off ch=1 n=d#5 v=64
73118 On ch=1 n=g#4 v=28
73134 Off ch=1 n=e3 v=64
73142 Par ch=1 c=64 v=127
73360 On ch=1 n=d#2 v=36
73368 On ch=1 n=d#3 v=16
73414 Off ch=1 n=e2 v=64
73448 Par ch=1 c=64 v=0
73574 Off ch=1 n=g#4 v=64
73634 Par ch=1 c=64 v=127
73674 Off ch=1 n=d#3 v=64
73674 On ch=1 n=f#4 v=37
73736 Off ch=1 n=c#5 v=64
73912 Off ch=1 n=d#2 v=64
74110 On ch=1 n=c#5 v=58
74138 On ch=1 n=c#2 v=22
74170 On ch=1 n=c#3 v=20
74178 Off ch=1 n=f#4 v=64
74278 Par ch=1 c=64 v=0
74422 On ch=1 n=g#4 v=28
74694 On ch=1 n=e4 v=48
74716 Off ch=1 n=g#4 v=64
74906 Off ch=1 n=e4 v=64
74924 Par ch=1 c=64 v=127
74950 On ch=1 n=g#4 v=46
74994 Off ch=1 n=c#3 v=64
75196 Off ch=1 n=g#4 v=64
75198 On ch=1 n=e5 v=70
75244 Off ch=1 n=c#2 v=64
75276 Off ch=1 n=c#5 v=64
75450 On ch=1 n=c#5 v=43
75714 On ch=1 n=a4 v=41
75718 On ch=1 n=f#2 v=40
75726 On ch=1 n=f#3 v=29
75728 Off ch=1 n=c#5 v=64
75892 Par ch=1 c=64 v=0
75984 On ch=1 n=c#5 v=47
76154 Par ch=1 c=64 v=127
76262 On ch=1 n=d#5 v=63
76292 Off ch=1 n=c#5 v=64
76296 Off ch=1 n=e5 v=64
76434 Off ch=1 n=a4 v=64
76472 Off ch=1 n=f#2 v=64
76484 On ch=1 n=c#5 v=50
76492 Off ch=1 n=f#3 v=64
76722 Off ch=1 n=c#5 v=64
76732 On ch=1 n=f#5 v=52
76742 On ch=1 n=c5 v=42
76756 On ch=1 n=a2 v=36
76762 On ch=1 n=a3 v=19
76826 Off ch=1 n=d#5 v=64
76876 Par ch=1 c=64 v=0
76994 On ch=1 n=c#5 v=42
77106 Par ch=1 c=64 v=127
77146 Off ch=1 n=c5 v=64
77270 On ch=1 n=f5 v=47
77334 Off ch=1 n=f#5 v=64
77382 Off ch=1 n=c#5 v=64
77382 Par ch=1 c=64 v=0
77552 Par ch=1 c=64 v=127
77592 Off ch=1 n=a3 v=64
77600 On ch=1 n=d5 v=27
77628 Off ch=1 n=a2 v=64
77808 On ch=1 n=g#2 v=48
77812 On ch=1 n=g#3 v=45
77856 On ch=1 n=b4 v=34
77858 Off ch=1 n=d5 v=64
77982 Par ch=1 c=64 v=0
78098 On ch=1 n=d5 v=53
78120 Par ch=1 c=64 v=127
78134 Off ch=1 n=g#2 v=64
78174 Off ch=1 n=g#3 v=64
78188 Off ch=1 n=f5 v=64
78336 On ch=1 n=b3 v=47
78342 On ch=1 n=g#5 v=73
78350 On ch=1 n=b2 v=49
78428 Off ch=1 n=b4 v=64
78492 Off ch=1 n=d5 v=64
78594 On ch=1 n=f5 v=62
78596 Par ch=1 c=64 v=0
78658 Par ch=1 c=64 v=127
78688 Off ch=1 n=b3 v=64
78690 Off ch=1 n=b2 v=64
78814 On ch=1 n=a3 v=59
78822 On ch=1 n=a2 v=59
78830 On ch=1 n=c5 v=53
78870 Off ch=1 n=f5 v=64
78980 Par ch=1 c=64 v=0
79072 On ch=1 n=d#5 v=62
79164 Par ch=1 c=64 v=127
79254 Off ch=1 n=d#5 v=64
79294 On ch=1 n=f#5 v=71
79364 Par ch=1 c=64 v=0
79402 Off ch=1 n=g#5 v=64
79502 Par ch=1 c=64 v=127
79510 Off ch=1 n=a2 v=64
79556 On ch=1 n=d#5 v=55
79562 Off ch=1 n=c5 v=64
79592 Off ch=1 n=a3 v=64
79710 Off ch=1 n=d#5 v=64
79746 On ch=1 n=a5 v=67
79762 On ch=1 n=d5 v=55
79768 On ch=1 n=c4 v=50
79778 On ch=1 n=c3 v=46
79848 Off ch=1 n=f#5 v=64
79948 Par ch=1 c=64 v=0
79994 On ch=1 n=d#5 v=66
80088 Par ch=1 c=64 v=127
80192 Off ch=1 n=d#5 v=64
80208 On ch=1 n=g#5 v=79
80318 Par ch=1 c=64 v=0
80360 Off ch=1 n=a5 v=64
80456 Par ch=1 c=64 v=127
80470 On ch=1 n=f5 v=58
80482 Off ch=1 n=d5 v=64
80532 Off ch=1 n=c4 v=64
80566 Off ch=1 n=c3 v=64
80656 Off ch=1 n=f5 v=64
80684 On ch=1 n=d5 v=68
80687 On ch=1 n=b3 v=71
80687 On ch=1 n=b2 v=85
80794 Par ch=1 c=64 v=0
80924 On ch=1 n=f5 v=73
80948 Par ch=1 c=64 v=127
80972 Off ch=1 n=b2 v=64
81012 Off ch=1 n=b3 v=64
81136 On ch=1 n=b5 v=97
81136 On ch=1 n=d4 v=87
81142 On ch=1 n=d3 v=82
81164 Off ch=1 n=g#5 v=64
81196 Off ch=1 n=f5 v=64
81240 Par ch=1 c=64 v=0
81364 On ch=1 n=g#5 v=76
81394 Par ch=1 c=64 v=127
81424 Off ch=1 n=d5 v=64
81474 Off ch=1 n=d4 v=64
81572 Off ch=1 n=d3 v=64
81588 On ch=1 n=c#4 v=86
81594 On ch=1 n=e5 v=78
81596 On ch=1 n=c#3 v=79
81700 Par ch=1 c=64 v=0
81808 On ch=1 n=g5 v=76
81818 Off ch=1 n=g#5 v=64
81930 Par ch=1 c=64 v=127
82050 On ch=1 n=a#5 v=85
82088 Off ch=1 n=g5 v=64
82142 Off ch=1 n=b5 v=64
82146 Par ch=1 c=64 v=0
82328 On ch=1 n=g5 v=76
82330 Par ch=1 c=64 v=127
82340 Off ch=1 n=e5 v=64
82438 Off ch=1 n=c#3 v=64
82440 Off ch=1 n=c#4 v=64
82606 On ch=1 n=c#6 v=86
82620 On ch=1 n=f#5 v=41
82628 On ch=1 n=e3 v=91
82630 On ch=1 n=e4 v=78
82636 Off ch=1 n=g5 v=64
82682 Off ch=1 n=a#5 v=64
82902 On ch=1 n=g5 v=64
82962 Off ch=1 n=f#5 v=64
83046 Off ch=1 n=e3 v=64
83106 Off ch=1 n=g5 v=64
83182 On ch=1 n=d3 v=86
83462 On ch=1 n=g5 v=79
83528 Par ch=1 c=64 v=0
83702 Off ch=1 n=e4 v=64
83728 Par ch=1 c=64 v=127
83830 On ch=1 n=b5 v=91
83862 On ch=1 n=d4 v=59
83908 Off ch=1 n=c#6 v=64
83974 Par ch=1 c=64 v=0
84114 Par ch=1 c=64 v=127
84190 On ch=1 n=d5 v=57
84193 Off ch=1 n=b5 v=64
84214 Off ch=1 n=g5 v=64
84442 On ch=1 n=g5 v=81
84520 Off ch=1 n=d5 v=64
84694 On ch=1 n=b4 v=50
84700 Off ch=1 n=g5 v=64
84904 On ch=1 n=d5 v=84
84942 Off ch=1 n=b4 v=64
85142 On ch=1 n=g4 v=57
85208 Off ch=1 n=d4 v=64
85360 On ch=1 n=b4 v=83
85392 Off ch=1 n=d5 v=64
85424 Off ch=1 n=g4 v=64
85592 On ch=1 n=d4 v=46
85598 On ch=1 n=c#4 v=72
85700 Off ch=1 n=b4 v=64
85752 Off ch=1 n=c#4 v=64
85846 On ch=1 n=g4 v=78
85858 On ch=1 n=b3 v=65
85976 Off ch=1 n=d4 v=64
86048 Par ch=1 c=64 v=0
86142 On ch=1 n=f#4 v=83
86145 On ch=1 n=a3 v=65
86172 Par ch=1 c=64 v=127
86188 Off ch=1 n=b3 v=64
86234 Off ch=1 n=g4 v=64
86498 On ch=1 n=f4 v=94
86522 On ch=1 n=g#3 v=55
86540 Par ch=1 c=64 v=0
86545 Off ch=1 n=a3 v=64
86674 Off ch=1 n=f#4 v=64
86830 On ch=1 n=d4 v=70
86986 Par ch=1 c=64 v=127
87010 Off ch=1 n=f4 v=64
87134 On ch=1 n=b3 v=67
87138 Off ch=1 n=g#3 v=64
87140 Par ch=1 c=64 v=0
87338 Par ch=1 c=64 v=127
87436 On ch=1 n=g#3 v=64
87524 Off ch=1 n=b3 v=64
87564 Off ch=1 n=d3 v=64
87708 On ch=1 n=f3 v=64
87708 Par ch=1 c=64 v=0
87782 Off ch=1 n=g#3 v=64
87834 Off ch=1 n=d4 v=64
87878 Par ch=1 c=64 v=127
87984 On ch=1 n=d3 v=52
88000 Par ch=1 c=64 v=0
88046 Off ch=1 n=f3 v=64
88200 Par ch=1 c=64 v=127
88294 On ch=1 n=d#3 v=40
88344 Off ch=1 n=d3 v=64
88368 Par ch=1 c=64 v=0
88552 Par ch=1 c=64 v=127
88596 On ch=1 n=f#3 v=35
88660 Par ch=1 c=64 v=0
88690 Off ch=1 n=d#3 v=64
88814 Par ch=1 c=64 v=127
88956 Off ch=1 n=f#3 v=64
88956 On ch=1 n=c4 v=27
88984 Par ch=1 c=64 v=0
89138 Par ch=1 c=64 v=127
89328 Off ch=1 n=c4 v=64
89354 On ch=1 n=d#4 v=21
89398 Par ch=1 c=64 v=0
89568 Par ch=1 c=64 v=127
89752 On ch=1 n=f#4 v=29
89838 Off ch=1 n=d#4 v=64
89952 Par ch=1 c=64 v=0
90058 Par ch=1 c=64 v=127
90224 Off ch=1 n=f#4 v=64
90274 On ch=1 n=a4 v=13
90320 Par ch=1 c=64 v=0
90488 Par ch=1 c=64 v=127
90640 Off ch=1 n=a4 v=64
90994 On ch=1 n=a#4 v=37
91013 On ch=1 n=f#4 v=24
91288 Par ch=1 c=64 v=0
91442 On ch=1 n=c#5 v=25
91442 On ch=1 n=c#4 v=14
91442 Par ch=1 c=64 v=127
91532 Off ch=1 n=c#4 v=64
91548 Off ch=1 n=f#4 v=64
91610 Off ch=1 n=c#5 v=64
91878 On ch=1 n=a#5 v=18
91888 On ch=1 n=c#3 v=15
91972 Off ch=1 n=c#3 v=64
92078 Off ch=1 n=a#5 v=64
92222 Off ch=1 n=a#4 v=64
92228 On ch=1 n=c#5 v=26
92236 On ch=1 n=c#4 v=13
92326 Off ch=1 n=c#4 v=64
92340 Off ch=1 n=c#5 v=64
92478 On ch=1 n=g#4 v=40
92498 On ch=1 n=f4 v=44
92624 Par ch=1 c=64 v=0
92732 Par ch=1 c=64 v=127
92740 Off ch=1 n=f4 v=64
92774 On ch=1 n=c#5 v=38
92806 On ch=1 n=c#4 v=25
92814 Off ch=1 n=g#4 v=64
92876 Off ch=1 n=c#4 v=64
93094 Off ch=1 n=c#5 v=64
93100 On ch=1 n=b4 v=60
93122 On ch=1 n=g#4 v=34
93254 Par ch=1 c=64 v=0
93380 Off ch=1 n=g#4 v=64
93392 Par ch=1 c=64 v=127
93402 On ch=1 n=c#5 v=40
93428 On ch=1 n=c#4 v=17
93498 Off ch=1 n=c#4 v=64
93522 Off ch=1 n=c#5 v=64
93624 Off ch=1 n=b4 v=64
93654 On ch=1 n=b5 v=44
93668 On ch=1 n=c#3 v=35
93740 Off ch=1 n=c#3 v=64
93780 Off ch=1 n=b5 v=64
93890 On ch=1 n=c#5 v=47
93940 On ch=1 n=c#4 v=31
94008 Off ch=1 n=c#4 v=64
94016 Off ch=1 n=c#5 v=64
94130 On ch=1 n=a#4 v=47
94164 On ch=1 n=f#4 v=41
94238 Par ch=1 c=64 v=0
94376 Par ch=1 c=64 v=127
94398 Off ch=1 n=f#4 v=64
94416 On ch=1 n=c#4 v=25
94432 On ch=1 n=c#5 v=31
94494 Off ch=1 n=c#4 v=64
94508 Off ch=1 n=a#4 v=64
94570 Off ch=1 n=c#5 v=64
94698 On ch=1 n=f#4 v=56
94716 On ch=1 n=d#4 v=19
94822 Par ch=1 c=64 v=0
94960 Par ch=1 c=64 v=127
94980 On ch=1 n=c#4 v=26
95008 On ch=1 n=c#5 v=32
95054 Off ch=1 n=c#4 v=64
95116 Off ch=1 n=d#4 v=64
95118 Off ch=1 n=c#5 v=64
95262 On ch=1 n=c#3 v=29
95288 Off ch=1 n=f#4 v=64
95332 On ch=1 n=f#5 v=26
95408 Off ch=1 n=c#3 v=64
95530 Off ch=1 n=f#5 v=64
95580 On ch=1 n=c#4 v=28
95608 On ch=1 n=c#5 v=31
95654 Off ch=1 n=c#4 v=64
95726 Off ch=1 n=c#5 v=64
95766 On ch=1 n=f#4 v=33
95772 On ch=1 n=d#4 v=35
95954 Off ch=1 n=d#4 v=64
96026 Off ch=1 n=f#4 v=64
96056 On ch=1 n=g#4 v=34
96092 On ch=1 n=f4 v=51
96158 Par ch=1 c=64 v=0
96404 Par ch=1 c=64 v=127
96450 Off ch=1 n=f4 v=64
96466 On ch=1 n=c#5 v=38
96484 On ch=1 n=c#4 v=18
96506 Off ch=1 n=g#4 v=64
96582 Off ch=1 n=c#4 v=64
96698 Off ch=1 n=c#5 v=64
96790 On ch=1 n=a#4 v=30
96802 On ch=1 n=f#4 v=29
96912 Par ch=1 c=64 v=0
97136 On ch=1 n=c#5 v=26
97144 On ch=1 n=c#4 v=9
97174 Par ch=1 c=64 v=127
97232 Off ch=1 n=f#4 v=64
97264 Off ch=1 n=c#4 v=64
97270 Off ch=1 n=a#4 v=64
97428 Off ch=1 n=c#5 v=64
97462 On ch=1 n=f#3 v=21
97490 On ch=1 n=a#5 v=21
97574 Off ch=1 n=f#3 v=64
97798 Off ch=1 n=a#5 v=64
97840 On ch=1 n=c#4 v=14
97850 On ch=1 n=c#5 v=28
98038 Off ch=1 n=c#4 v=64
98146 Off ch=1 n=c#5 v=64
98424 On ch=1 n=c#5 v=31
98446 On ch=1 n=c#4 v=12
98578 Off ch=1 n=c#4 v=64
98592 Off ch=1 n=c#5 v=64
98728 On ch=1 n=c#5 v=74
98734 On ch=1 n=a#4 v=27
98958 Off ch=1 n=a#4 v=64
99070 On ch=1 n=c#4 v=23
99070 On ch=1 n=f#5 v=22
99152 Off ch=1 n=c#4 v=64
99170 Off ch=1 n=c#5 v=64
99332 On ch=1 n=c#6 v=47
99338 On ch=1 n=f#3 v=23
99358 Off ch=1 n=f#5 v=64
99504 Off ch=1 n=c#6 v=64
99602 Off ch=1 n=f#3 v=64
99605 On ch=1 n=f#5 v=41
99648 On ch=1 n=c#4 v=23
99674 Off ch=1 n=f#5 v=64
99720 Off ch=1 n=c#4 v=64
99840 On ch=1 n=b4 v=72
99846 On ch=1 n=g#4 v=34
99984 Par ch=1 c=64 v=0
100092 Par ch=1 c=64 v=127
100098 Off ch=1 n=b4 v=64
100122 On ch=1 n=c#4 v=30
100136 On ch=1 n=f#5 v=36
100190 Off ch=1 n=c#4 v=64
100224 Off ch=1 n=g#4 v=64
100262 Off ch=1 n=f#5 v=64
100354 On ch=1 n=d#5 v=76
100374 On ch=1 n=b4 v=42
100446 Par ch=1 c=64 v=0
100600 Par ch=1 c=64 v=127
100608 Off ch=1 n=b4 v=64
100638 On ch=1 n=f#5 v=29
100666 On ch=1 n=c#4 v=25
100696 Off ch=1 n=d#5 v=64
100728 Off ch=1 n=c#4 v=64
100882 On ch=1 n=d#6 v=49
100884 Off ch=1 n=f#5 v=64
100890 On ch=1 n=f#3 v=33
100960 Off ch=1 n=f#3 v=64
101040 Off ch=1 n=d#6 v=64
101152 On ch=1 n=f#5 v=27
101160 On ch=1 n=c#4 v=19
101220 Off ch=1 n=f#5 v=64
101244 Off ch=1 n=c#4 v=64
101364 On ch=1 n=c#5 v=64
101382 On ch=1 n=a#4 v=36
101444 Par ch=1 c=64 v=0
101582 Par ch=1 c=64 v=127
101620 Off ch=1 n=a#4 v=64
101666 On ch=1 n=c#4 v=22
101678 On ch=1 n=f#5 v=26
101714 Off ch=1 n=c#5 v=64
101764 Off ch=1 n=c#4 v=64
101808 Off ch=1 n=f#5 v=64
101980 On ch=1 n=f#4 v=63
102012 On ch=1 n=d#4 v=27
102120 Par ch=1 c=64 v=0
102274 Par ch=1 c=64 v=127
102282 On ch=1 n=c#4 v=26
102324 On ch=1 n=c#5 v=30
102384 Off ch=1 n=f#4 v=64
102416 Off ch=1 n=d#4 v=64
102438 Off ch=1 n=c#4 v=64
102572 On ch=1 n=f#3 v=25
102575 Off ch=1 n=c#5 v=64
102604 On ch=1 n=f#5 v=25
102760 Off ch=1 n=f#3 v=64
102830 Off ch=1 n=f#5 v=64
102874 On ch=1 n=c#4 v=21
102878 On ch=1 n=c#5 v=29
102952 Off ch=1 n=c#4 v=64
102970 Off ch=1 n=c#5 v=64
103028 On ch=1 n=f#4 v=41
103062 On ch=1 n=d#4 v=30
103196 Off ch=1 n=d#4 v=64
103352 On ch=1 n=g#4 v=35
103370 Off ch=1 n=f#4 v=64
103392 On ch=1 n=f4 v=47
103440 Par ch=1 c=64 v=0
103656 Par ch=1 c=64 v=127
103732 Off ch=1 n=f4 v=64
103768 On ch=1 n=c#4 v=10
103774 On ch=1 n=c#5 v=32
103824 Off ch=1 n=g#4 v=64
103926 Off ch=1 n=c#4 v=64
103976 Off ch=1 n=c#5 v=64
104046 On ch=1 n=a#4 v=27
104052 On ch=1 n=f#4 v=29
104102 Par ch=1 c=64 v=0
104356 On ch=1 n=c#5 v=32
104370 On ch=1 n=c#4 v=22
104378 Par ch=1 c=64 v=127
104474 Off ch=1 n=c#4 v=64
104508 Off ch=1 n=c#5 v=64
104684 On ch=1 n=a#5 v=23
104700 On ch=1 n=f#3 v=15
105032 Off ch=1 n=f#3 v=64
105110 Off ch=1 n=a#5 v=64
105134 On ch=1 n=c#5 v=19
105164 On ch=1 n=c#4 v=11
105494 Off ch=1 n=c#5 v=64
105618 Off ch=1 n=c#4 v=64
106022 Par ch=1 c=64 v=0
106024 On ch=1 n=d5 v=19
106027 On ch=1 n=d4 v=14
106268 Par ch=1 c=64 v=127
106308 Off ch=1 n=a#4 v=64
106358 Off ch=1 n=d4 v=64
106388 Off ch=1 n=d5 v=64
106472 Off ch=1 n=f#4 v=64
106694 On ch=1 n=a#4 v=31
106714 On ch=1 n=g4 v=26
106760 Par ch=1 c=64 v=0
106930 Par ch=1 c=64 v=127
107100 On ch=1 n=d#5 v=25
107104 On ch=1 n=d#4 v=14
107146 Off ch=1 n=g4 v=64
107182 Off ch=1 n=d#4 v=64
107354 Off ch=1 n=a#4 v=64
107384 On ch=1 n=d#3 v=24
107400 On ch=1 n=a#5 v=18
107403 Off ch=1 n=d#5 v=64
107484 Off ch=1 n=d#3 v=64
107664 On ch=1 n=d#4 v=41
107684 On ch=1 n=d#5 v=32
107752 Off ch=1 n=a#5 v=64
107814 Off ch=1 n=d#4 v=64
107872 Off ch=1 n=d#5 v=64
107992 On ch=1 n=c#5 v=60
108002 On ch=1 n=a#4 v=31
108354 On ch=1 n=d#5 v=37
108532 Off ch=1 n=d#5 v=64
108646 On ch=1 n=g#3 v=30
108654 On ch=1 n=c#6 v=35
108680 Par ch=1 c=64 v=0
108820 Par ch=1 c=64 v=127
108858 Off ch=1 n=a#4 v=64
108876 Off ch=1 n=c#6 v=64
108934 On ch=1 n=d#5 v=37
108958 On ch=1 n=d#4 v=24
109028 Off ch=1 n=c#5 v=64
109042 Off ch=1 n=d#4 v=64
109068 Off ch=1 n=d#5 v=64
109150 On ch=1 n=b4 v=66
109170 On ch=1 n=g#4 v=33
109312 Par ch=1 c=64 v=0
109402 Par ch=1 c=64 v=127
109432 Off ch=1 n=g#4 v=64
109432 On ch=1 n=d#5 v=57
109438 Off ch=1 n=b4 v=64
109442 On ch=1 n=d#4 v=41
109562 Off ch=1 n=d#5 v=64
109598 Off ch=1 n=d#4 v=64
109660 On ch=1 n=g#4 v=70
109666 Off ch=1 n=g#3 v=64
109696 On ch=1 n=b3 v=37
109820 Off ch=1 n=g#4 v=64
109940 On ch=1 n=g#4 v=42
109943 On ch=1 n=b4 v=79
109984 Off ch=1 n=b3 v=64
110062 Off ch=1 n=g#4 v=64
110080 Off ch=1 n=b4 v=64
110208 On ch=1 n=c#5 v=83
110222 On ch=1 n=a#4 v=53
110278 Par ch=1 c=64 v=0
110450 On ch=1 n=f#5 v=48
110478 Par ch=1 c=64 v=127
110480 On ch=1 n=c#4 v=24
110552 Off ch=1 n=a#4 v=64
110676 Off ch=1 n=f#5 v=64
110678 On ch=1 n=c#6 v=61
110700 On ch=1 n=f#3 v=49
110702 Off ch=1 n=c#4 v=64
110778 Off ch=1 n=c#5 v=64
110848 Off ch=1 n=f#3 v=64
110908 On ch=1 n=c#4 v=52
110908 On ch=1 n=f#5 v=64
110956 Off ch=1 n=c#4 v=64
110968 Off ch=1 n=c#6 v=64
111128 On ch=1 n=e5 v=93
111134 On ch=1 n=c#5 v=70
111182 Off ch=1 n=f#5 v=64
111230 Par ch=1 c=64 v=0
111386 Par ch=1 c=64 v=127
111392 On ch=1 n=f#5 v=62
111410 On ch=1 n=f#4 v=48
111462 Off ch=1 n=c#5 v=64
111524 Off ch=1 n=f#4 v=64
111598 Off ch=1 n=f#5 v=64
111712 On ch=1 n=e6 v=58
111732 On ch=1 n=b3 v=44
111820 Off ch=1 n=e5 v=64
111962 Off ch=1 n=e6 v=64
111982 On ch=1 n=f#5 v=42
111992 On ch=1 n=f#4 v=54
112110 Off ch=1 n=f#5 v=64
112156 Off ch=1 n=f#4 v=64
112190 On ch=1 n=d#5 v=84
112226 On ch=1 n=b4 v=50
112292 Par ch=1 c=64 v=0
112430 Par ch=1 c=64 v=127
112436 Off ch=1 n=b3 v=64
112444 On ch=1 n=f#5 v=55
112454 Off ch=1 n=b4 v=64
112466 On ch=1 n=f#4 v=52
112504 Off ch=1 n=d#5 v=64
112588 Off ch=1 n=f#5 v=64
112682 On ch=1 n=f#5 v=79
112706 On ch=1 n=d#5 v=73
112898 Off ch=1 n=d#5 v=64
112946 On ch=1 n=a5 v=62
112982 On ch=1 n=a4 v=43
113176 On ch=1 n=f#6 v=75
113192 Off ch=1 n=a4 v=64
113212 On ch=1 n=c4 v=55
113244 Par ch=1 c=64 v=0
113246 Off ch=1 n=a5 v=64
113276 Off ch=1 n=f#4 v=64
113398 Par ch=1 c=64 v=127
113416 On ch=1 n=a5 v=72
113434 On ch=1 n=a4 v=62
113442 Off ch=1 n=c4 v=64
113446 Off ch=1 n=f#6 v=64
113452 Off ch=1 n=f#5 v=64
113504 Off ch=1 n=a4 v=64
113536 Off ch=1 n=a5 v=64
113664 On ch=1 n=f#5 v=90
113670 On ch=1 n=d#5 v=67
113894 Off ch=1 n=d#5 v=64
113932 On ch=1 n=a5 v=76
113956 On ch=1 n=a4 v=52
114034 Off ch=1 n=f#5 v=64
114206 Off ch=1 n=a5 v=64
114208 Off ch=1 n=a4 v=64
114228 On ch=1 n=f#6 v=73
114268 On ch=1 n=c4 v=37
114416 Off ch=1 n=c4 v=64
114452 Off ch=1 n=f#6 v=64
114538 On ch=1 n=a5 v=74
114556 On ch=1 n=a4 v=62
114592 Off ch=1 n=a5 v=64
114602 Off ch=1 n=a4 v=64
114778 On ch=1 n=f#5 v=91
114780 On ch=1 n=d#5 v=84
114858 Off ch=1 n=d#5 v=64
114970 Off ch=1 n=f#5 v=64
115174 On ch=1 n=a5 v=78
115190 On ch=1 n=f#5 v=58
115780 Par ch=1 c=64 v=0
117462 On ch=1 n=f6 v=68
117874 On ch=1 n=f#6 v=80
117916 Par ch=1 c=64 v=127
117990 Off ch=1 n=f6 v=64
118054 Par ch=1 c=64 v=0
118208 On ch=1 n=g#6 v=75
118222 Par ch=1 c=64 v=127
118288 Off ch=1 n=f#6 v=64
118330 Par ch=1 c=64 v=0
118544 Par ch=1 c=64 v=127
118576 On ch=1 n=a6 v=51
118642 Off ch=1 n=g#6 v=64
118654 Par ch=1 c=64 v=0
118928 Par ch=1 c=64 v=127
119008 On ch=1 n=d6 v=44
119090 Off ch=1 n=a6 v=64
119130 Par ch=1 c=64 v=0
119390 Par ch=1 c=64 v=127
119482 On ch=1 n=c#6 v=47
119552 Off ch=1 n=d6 v=64
119636 Par ch=1 c=64 v=0
119806 Par ch=1 c=64 v=127
119842 On ch=1 n=f5 v=48
119902 Off ch=1 n=f#5 v=64
119958 Par ch=1 c=64 v=0
120096 Par ch=1 c=64 v=127
120158 On ch=1 n=f#5 v=59
120170 On ch=1 n=c6 v=53
120234 Off ch=1 n=f5 v=64
120294 Off ch=1 n=a5 v=64
120304 Off ch=1 n=c#6 v=64
120312 Par ch=1 c=64 v=0
120472 On ch=1 n=g#5 v=75
120482 Par ch=1 c=64 v=127
120608 Off ch=1 n=f#5 v=64
120636 Par ch=1 c=64 v=0
120774 Par ch=1 c=64 v=127
120822 On ch=1 n=a5 v=54
120888 Off ch=1 n=g#5 v=64
120988 Par ch=1 c=64 v=0
121126 Par ch=1 c=64 v=127
121136 On ch=1 n=d5 v=57
121234 Par ch=1 c=64 v=0
121356 Par ch=1 c=64 v=127
121420 Off ch=1 n=a5 v=64
121542 Off ch=1 n=c6 v=64
121542 Par ch=1 c=64 v=0
121550 On ch=1 n=c#6 v=36
121550 On ch=1 n=c#5 v=64
121554 Off ch=1 n=d5 v=64
121680 Par ch=1 c=64 v=127
121696 Off ch=1 n=c#6 v=64
121904 Off ch=1 n=c#5 v=64
121982 On ch=1 n=f4 v=88
122074 On ch=1 n=c5 v=42
122126 Par ch=1 c=64 v=0
122176 On ch=1 n=d#5 v=53
122240 Off ch=1 n=c5 v=64
122280 Par ch=1 c=64 v=127
122280 On ch=1 n=f#5 v=36
122372 On ch=1 n=f#4 v=74
122440 Off ch=1 n=f4 v=64
122502 On ch=1 n=d#6 v=61
122704 On ch=1 n=g#4 v=74
123012 Off ch=1 n=f#4 v=64
123058 On ch=1 n=a4 v=56
123080 Off ch=1 n=g#4 v=64
123156 Par ch=1 c=64 v=0
123292 Par ch=1 c=64 v=127
123314 Off ch=1 n=d#6 v=64
123428 Off ch=1 n=d#5 v=64
123434 Off ch=1 n=f#5 v=64
123524 On ch=1 n=c4 v=61
123552 Off ch=1 n=a4 v=64
123634 Off ch=1 n=c4 v=64
123932 On ch=1 n=a#5 v=72
123942 On ch=1 n=c#5 v=43
123944 On ch=1 n=c#4 v=34
123946 On ch=1 n=f#4 v=42
124246 Par ch=1 c=64 v=0
124400 Par ch=1 c=64 v=127
124412 Off ch=1 n=c#5 v=64
124466 Off ch=1 n=f#4 v=64
124590 On ch=1 n=g#5 v=69
124596 On ch=1 n=b3 v=38
124600 On ch=1 n=c#5 v=41
124624 On ch=1 n=f4 v=68
124676 Off ch=1 n=c#4 v=64
124706 Off ch=1 n=a#5 v=64
125086 On ch=1 n=c#6 v=61
125162 Off ch=1 n=g#5 v=64
125336 Par ch=1 c=64 v=0
125490 Par ch=1 c=64 v=127
125514 Off ch=1 n=f4 v=64
125534 Off ch=1 n=c#5 v=64
125537 Off ch=1 n=c#6 v=64
125698 Off ch=1 n=b3 v=64
125748 On ch=1 n=c#6 v=57
125756 On ch=1 n=a#3 v=36
125756 On ch=1 n=e4 v=24
125758 On ch=1 n=c#5 v=34
125758 On ch=1 n=g5 v=30
125764 On ch=1 n=e5 v=24
126090 Par ch=1 c=64 v=0
126750 Par ch=1 c=64 v=127
127084 On ch=1 n=c4 v=36
127288 Par ch=1 c=64 v=0
127364 Par ch=1 c=64 v=127
127366 Off ch=1 n=e4 v=64
127392 Off ch=1 n=a#3 v=64
127458 On ch=1 n=c#4 v=31
127540 Off ch=1 n=c4 v=64
127612 Par ch=1 c=64 v=0
127748 Par ch=1 c=64 v=127
127786 On ch=1 n=d#4 v=39
127848 Off ch=1 n=c#4 v=64
127902 Par ch=1 c=64 v=0
128056 Par ch=1 c=64 v=127
128116 On ch=1 n=e4 v=47
128124 Off ch=1 n=d#4 v=64
128176 Off ch=1 n=c#5 v=64
128178 Off ch=1 n=e5 v=64
128194 Par ch=1 c=64 v=0
128274 Off ch=1 n=g5 v=64
128332 Par ch=1 c=64 v=127
128412 Off ch=1 n=c#6 v=64
128442 On ch=1 n=a3 v=48
128670 Par ch=1 c=64 v=0
128778 Par ch=1 c=64 v=127
128782 Off ch=1 n=e4 v=64
128874 On ch=1 n=g#3 v=54
128930 Off ch=1 n=a3 v=64
129040 Par ch=1 c=64 v=0
129194 Par ch=1 c=64 v=127
129224 On ch=1 n=c5 v=49
129392 Par ch=1 c=64 v=0
129500 Par ch=1 c=64 v=127
129580 On ch=1 n=c#5 v=53
129630 On ch=1 n=g3 v=45
129670 Off ch=1 n=c5 v=64
129676 Off ch=1 n=g#3 v=64
129778 Par ch=1 c=64 v=0
129874 On ch=1 n=d#5 v=62
129916 Par ch=1 c=64 v=127
129948 Off ch=1 n=c#5 v=64
130024 Par ch=1 c=64 v=0
130162 Par ch=1 c=64 v=127
130190 On ch=1 n=e5 v=62
130242 Off ch=1 n=d#5 v=64
130314 Par ch=1 c=64 v=0
130438 Par ch=1 c=64 v=127
130506 On ch=1 n=a4 v=60
130576 Off ch=1 n=e5 v=64
130592 Par ch=1 c=64 v=0
130698 Par ch=1 c=64 v=127
130798 Off ch=1 n=a4 v=64
130838 On ch=1 n=g#3 v=50
130840 On ch=1 n=g#4 v=57
130862 Off ch=1 n=g3 v=64
131124 On ch=1 n=c6 v=71
131144 Par ch=1 c=64 v=0
131298 Par ch=1 c=64 v=127
131426 Off ch=1 n=g#4 v=64
131494 On ch=1 n=c#6 v=66
131522 On ch=1 n=g4 v=54
131542 Off ch=1 n=g#3 v=64
131542 On ch=1 n=a3 v=29
131596 Off ch=1 n=c6 v=64
131668 Par ch=1 c=64 v=0
131798 On ch=1 n=d#6 v=68
131820 Par ch=1 c=64 v=127
131892 Off ch=1 n=c#6 v=64
131944 Par ch=1 c=64 v=0
132066 Par ch=1 c=64 v=127
132120 On ch=1 n=e6 v=62
132180 Off ch=1 n=d#6 v=64
132282 Par ch=1 c=64 v=0
132388 Par ch=1 c=64 v=127
132490 Off ch=1 n=a3 v=64
132493 On ch=1 n=g5 v=54
132562 Off ch=1 n=e6 v=64
132846 On ch=1 n=f#5 v=40
132876 On ch=1 n=f#4 v=38
132888 Off ch=1 n=g4 v=64
132894 On ch=1 n=c#4 v=25
132904 On ch=1 n=a#3 v=19
132906 Off ch=1 n=g5 v=64
132942 Par ch=1 c=64 v=0
133158 Par ch=1 c=64 v=127
133194 On ch=1 n=a#5 v=59
133222 On ch=1 n=a#4 v=38
133282 Off ch=1 n=a#3 v=64
133296 Off ch=1 n=c#4 v=64
133334 Off ch=1 n=f#4 v=64
133362 Off ch=1 n=f#5 v=64
133536 On ch=1 n=c#6 v=80
133548 On ch=1 n=c#5 v=71
133554 Off ch=1 n=a#4 v=64
133650 Off ch=1 n=a#5 v=64
133840 Off ch=1 n=c#5 v=64
133864 On ch=1 n=f#5 v=58
133916 Off ch=1 n=f#5 v=64
133954 On ch=1 n=f#6 v=83
134004 Off ch=1 n=c#6 v=64
134082 On ch=1 n=b3 v=43
134156 Par ch=1 c=64 v=0
134228 On ch=1 n=f#4 v=63
134250 On ch=1 n=f#5 v=46
134284 Off ch=1 n=b3 v=64
134302 Off ch=1 n=f#4 v=64
134310 Par ch=1 c=64 v=127
134346 Off ch=1 n=f#6 v=64
134440 On ch=1 n=f6 v=81
134450 On ch=1 n=f5 v=63
134912 On ch=1 n=d#6 v=73
134924 On ch=1 n=d#5 v=74
134978 Off ch=1 n=f5 v=64
135022 Off ch=1 n=f6 v=64
135168 Off ch=1 n=f#5 v=64
135266 On ch=1 n=c#5 v=75
135272 On ch=1 n=c#6 v=77
135294 Off ch=1 n=d#5 v=64
135326 Off ch=1 n=d#6 v=64
135408 Off ch=1 n=c#6 v=64
135516 Off ch=1 n=c#5 v=64
135550 On ch=1 n=b5 v=89
135560 On ch=1 n=b4 v=67
135714 Off ch=1 n=b5 v=64
135717 Off ch=1 n=b4 v=64
135744 On ch=1 n=a#4 v=57
135770 On ch=1 n=a#5 v=58
135788 On ch=1 n=d4 v=38
135830 On ch=1 n=b5 v=61
135834 Off ch=1 n=a#4 v=64
135836 Off ch=1 n=a#5 v=64
135862 On ch=1 n=b4 v=71
135892 On ch=1 n=a#5 v=82
135908 On ch=1 n=f5 v=34
135916 On ch=1 n=a#4 v=51
135920 Off ch=1 n=b4 v=64
135950 Off ch=1 n=b5 v=64
136016 Par ch=1 c=64 v=0
136184 Par ch=1 c=64 v=127
136218 On ch=1 n=g#5 v=79
136228 On ch=1 n=g#4 v=69
136254 Off ch=1 n=a#4 v=64
136266 Off ch=1 n=d4 v=64
136284 Off ch=1 n=f5 v=64
136330 Off ch=1 n=a#5 v=64
136552 On ch=1 n=f#5 v=73
136555 On ch=1 n=f#4 v=60
136568 Off ch=1 n=g#4 v=64
136580 On ch=1 n=d#4 v=41
136596 Off ch=1 n=g#5 v=64
136630 Par ch=1 c=64 v=0
136784 Par ch=1 c=64 v=127
136812 Off ch=1 n=d#4 v=64
136844 Off ch=1 n=f#5 v=64
136844 Off ch=1 n=f#4 v=64
136950 On ch=1 n=f#6 v=90
136988 On ch=1 n=f#5 v=57
137164 Off ch=1 n=f#5 v=64
137186 Off ch=1 n=f#6 v=64
137331 On ch=1 n=f6 v=87
137342 On ch=1 n=g#5 v=45
137342 On ch=1 n=f5 v=67
137348 On ch=1 n=c#5 v=32
137348 On ch=1 n=f4 v=31
137430 Par ch=1 c=64 v=0
137598 Off ch=1 n=f4 v=64
137598 Par ch=1 c=64 v=127
137610 Off ch=1 n=c#5 v=64
137690 Off ch=1 n=g#5 v=64
137718 On ch=1 n=d#6 v=83
137736 On ch=1 n=d#5 v=71
137739 On ch=1 n=b5 v=56
137752 Off ch=1 n=f5 v=64
137778 Off ch=1 n=f6 v=64
137808 Off ch=1 n=b5 v=64
137862 Off ch=1 n=d#5 v=64
138135 On ch=1 n=f#4 v=38
138142 On ch=1 n=c#5 v=52
138142 On ch=1 n=c#6 v=73
138152 On ch=1 n=a#5 v=39
138222 Off ch=1 n=d#6 v=64
138336 Par ch=1 c=64 v=0
138458 Par ch=1 c=64 v=127
138524 Off ch=1 n=a#5 v=64
138546 Off ch=1 n=f#4 v=64
138566 Off ch=1 n=c#5 v=64
138622 On ch=1 n=f#6 v=75
138652 On ch=1 n=a5 v=29
138662 On ch=1 n=c5 v=40
138662 On ch=1 n=d#4 v=33
138704 Par ch=1 c=64 v=0
138706 Off ch=1 n=c#6 v=64
138888 Par ch=1 c=64 v=127
138940 Off ch=1 n=f#6 v=64
138948 Off ch=1 n=a5 v=64
139004 Off ch=1 n=c5 v=64
139168 Off ch=1 n=d#4 v=64
139198 On ch=1 n=a#5 v=68
139208 On ch=1 n=f#5 v=37
139214 On ch=1 n=c#5 v=55
139220 On ch=1 n=c#4 v=35
139642 On ch=1 n=c5 v=63
139662 Off ch=1 n=c#5 v=64
140042 On ch=1 n=c#5 v=67
140124 Off ch=1 n=c5 v=64
140196 Par ch=1 c=64 v=0
140318 Par ch=1 c=64 v=127
140428 On ch=1 n=d5 v=67
140518 Off ch=1 n=c#5 v=64
140532 Par ch=1 c=64 v=0
140588 Off ch=1 n=f#5 v=64
140656 Par ch=1 c=64 v=127
140928 On ch=1 n=g#5 v=47
140952 On ch=1 n=d#5 v=45
140958 On ch=1 n=f5 v=30
140960 On ch=1 n=b4 v=26
140966 Off ch=1 n=d5 v=64
141024 Par ch=1 c=64 v=0
141082 Off ch=1 n=a#5 v=64
141300 Par ch=1 c=64 v=127
141314 Off ch=1 n=b4 v=64
141578 On ch=1 n=b4 v=47
141652 Off ch=1 n=f5 v=64
141810 Off ch=1 n=d#5 v=64
141850 Off ch=1 n=g#5 v=64
142046 On ch=1 n=f#5 v=40
142062 On ch=1 n=a#4 v=28
142074 On ch=1 n=c#5 v=32
142162 Off ch=1 n=b4 v=64
142176 Par ch=1 c=64 v=0
142422 Par ch=1 c=64 v=127
142478 On ch=1 n=c4 v=41
142488 Off ch=1 n=c#4 v=64
142684 Par ch=1 c=64 v=0
142884 Par ch=1 c=64 v=127
142902 On ch=1 n=c#4 v=50
143026 Off ch=1 n=c4 v=64
143084 Par ch=1 c=64 v=0
143252 Par ch=1 c=64 v=127
143300 On ch=1 n=d4 v=43
143360 Off ch=1 n=c#4 v=64
143374 Par ch=1 c=64 v=0
143436 Off ch=1 n=a#4 v=64
143468 Off ch=1 n=c#5 v=64
143530 Par ch=1 c=64 v=127
143724 On ch=1 n=g#4 v=27
143724 On ch=1 n=f5 v=33
143736 On ch=1 n=d#4 v=46
143804 Off ch=1 n=f#5 v=64
143808 Off ch=1 n=d4 v=64
143928 Par ch=1 c=64 v=0
144098 Par ch=1 c=64 v=127
144214 On ch=1 n=b3 v=48
144284 Off ch=1 n=d#4 v=64
144436 Par ch=1 c=64 v=0
144520 Off ch=1 n=g#4 v=64
144558 Par ch=1 c=64 v=127
144762 On ch=1 n=f#5 v=41
144774 Off ch=1 n=b3 v=64
144784 On ch=1 n=f#4 v=24
144790 On ch=1 n=a#3 v=37
144804 Par ch=1 c=64 v=0
144812 On ch=1 n=c#5 v=25
144820 Off ch=1 n=f5 v=64
144974 Off ch=1 n=f#4 v=64
145004 Par ch=1 c=64 v=127
145072 Off ch=1 n=c#5 v=64
145108 Off ch=1 n=f#5 v=64
145450 Off ch=1 n=a#3 v=64
145458 On ch=1 n=d#6 v=50
145467 On ch=1 n=a3 v=34
145468 On ch=1 n=c6 v=23
145470 On ch=1 n=f#5 v=13
145710 Par ch=1 c=64 v=0
145910 Par ch=1 c=64 v=127
146274 Off ch=1 n=a3 v=64
146274 On ch=1 n=g#3 v=37
146708 Par ch=1 c=64 v=0
146940 Par ch=1 c=64 v=127
147184 Off ch=1 n=c6 v=64
147404 Off ch=1 n=f#5 v=64
147782 Off ch=1 n=g#3 v=64
147828 On ch=1 n=b5 v=29
147836 On ch=1 n=c#3 v=20
147852 On ch=1 n=f5 v=16
148046 Par ch=1 c=64 v=0
148784 Par ch=1 c=64 v=127
149896 On ch=1 n=c#6 v=19
149948 Off ch=1 n=d#6 v=64
150014 Par ch=1 c=64 v=0
150166 Par ch=1 c=64 v=127
150248 Off ch=1 n=f5 v=64
150296 Off ch=1 n=b5 v=64
150310 Off ch=1 n=c#3 v=64
150348 Off ch=1 n=c#6 v=64
151030 On ch=1 n=a#4 v=20
151038 On ch=1 n=f#4 v=23
151038 On ch=1 n=f#5 v=17
151258 Par ch=1 c=64 v=0
151472 Par ch=1 c=64 v=127
151604 On ch=1 n=c#4 v=18
151632 On ch=1 n=c#5 v=20
151780 Off ch=1 n=c#4 v=64
151864 Off ch=1 n=c#5 v=64
151998 On ch=1 n=f#3 v=20
152202 Off ch=1 n=f#4 v=64
152294 Off ch=1 n=f#3 v=64
152326 On ch=1 n=c#5 v=23
152340 On ch=1 n=c#4 v=14
152436 Off ch=1 n=c#4 v=64
152462 Off ch=1 n=a#4 v=64
152510 Off ch=1 n=c#5 v=64
152618 On ch=1 n=g#4 v=36
152642 On ch=1 n=f4 v=18
152702 Par ch=1 c=64 v=0
152872 Off ch=1 n=f4 v=64
152872 Par ch=1 c=64 v=127
152950 On ch=1 n=c#5 v=29
152976 On ch=1 n=c#4 v=14
153040 Off ch=1 n=g#4 v=64
153092 Off ch=1 n=c#4 v=64
153150 Off ch=1 n=c#5 v=64
153264 On ch=1 n=b4 v=50
153272 On ch=1 n=g#4 v=24
153316 Par ch=1 c=64 v=0
153546 Par ch=1 c=64 v=127
153592 On ch=1 n=c#4 v=18
153606 On ch=1 n=c#5 v=30
153726 Off ch=1 n=c#4 v=64
153800 Off ch=1 n=c#5 v=64
153832 Off ch=1 n=g#4 v=64
153946 On ch=1 n=f#3 v=19
154260 On ch=1 n=c#5 v=23
154278 On ch=1 n=c#4 v=14
154284 Off ch=1 n=b4 v=64
154514 Off ch=1 n=c#5 v=64
154526 Off ch=1 n=c#4 v=64
154618 On ch=1 n=a#4 v=23
154638 On ch=1 n=f#4 v=27
154668 Par ch=1 c=64 v=0
154868 Par ch=1 c=64 v=127
154944 Off ch=1 n=f#4 v=64
154990 On ch=1 n=c#5 v=23
154990 On ch=1 n=c#4 v=9
155086 Off ch=1 n=a#4 v=64
155170 Off ch=1 n=c#4 v=64
155184 Off ch=1 n=c#5 v=64
155354 On ch=1 n=f#4 v=35
155378 On ch=1 n=d#4 v=17
155468 Par ch=1 c=64 v=0
155538 Off ch=1 n=f#3 v=64
155652 Par ch=1 c=64 v=127
155726 On ch=1 n=c#4 v=20
155754 On ch=1 n=c#5 v=19
155868 Off ch=1 n=c#4 v=64
155978 Off ch=1 n=c#5 v=64
156078 On ch=1 n=f#3 v=25
156150 Off ch=1 n=d#4 v=64
156354 Off ch=1 n=f#4 v=64
156402 On ch=1 n=c#5 v=29
156404 On ch=1 n=c#4 v=23
156502 Off ch=1 n=c#4 v=64
156508 Off ch=1 n=c#5 v=64
156658 Off ch=1 n=f#5 v=64
156681 On ch=1 n=f#4 v=32
156698 On ch=1 n=d#4 v=20
156818 Off ch=1 n=d#4 v=64
156998 On ch=1 n=g#4 v=38
157004 Off ch=1 n=f#4 v=64
157036 On ch=1 n=f4 v=43
157096 Par ch=1 c=64 v=0
157324 Off ch=1 n=f4 v=64
157342 Par ch=1 c=64 v=127
157432 On ch=1 n=c#4 v=21
157435 On ch=1 n=c#5 v=34
157514 Off ch=1 n=g#4 v=64
157562 Off ch=1 n=c#4 v=64
157652 Off ch=1 n=c#5 v=64
157880 On ch=1 n=a#4 v=31
157900 On ch=1 n=f#4 v=22
158018 Par ch=1 c=64 v=0
158298 Off ch=1 n=f#3 v=64
158312 On ch=1 n=c#4 v=16
158324 On ch=1 n=c#5 v=24
158402 Par ch=1 c=64 v=127
158498 Off ch=1 n=c#4 v=64
158513 Off ch=1 n=f#4 v=64
158560 Off ch=1 n=c#5 v=64
158672 On ch=1 n=f#3 v=26
158948 Off ch=1 n=a#4 v=64
158974 Off ch=1 n=f#3 v=64
159014 On ch=1 n=c#5 v=23
159022 On ch=1 n=c#4 v=17
159114 Off ch=1 n=c#4 v=64
159292 On ch=1 n=f#5 v=34
159312 On ch=1 n=f#4 v=38
159327 On ch=1 n=d#4 v=13
159357 Off ch=1 n=c#5 v=64
159376 Off ch=1 n=f#4 v=64
159430 Off ch=1 n=d#4 v=64
159602 On ch=1 n=g#5 v=40
159632 On ch=1 n=g#4 v=27
159644 On ch=1 n=f4 v=22
159710 Off ch=1 n=f#5 v=64
159738 Par ch=1 c=64 v=0
159870 Off ch=1 n=f4 v=64
159938 Par ch=1 c=64 v=127
160006 On ch=1 n=c#5 v=30
160030 On ch=1 n=c#4 v=14
160040 Off ch=1 n=g#4 v=64
160178 Off ch=1 n=g#5 v=64
160188 Off ch=1 n=c#5 v=64
160198 Off ch=1 n=c#4 v=64
160374 On ch=1 n=a#5 v=50
160396 On ch=1 n=a#4 v=23
160399 On ch=1 n=f#4 v=25
160492 Par ch=1 c=64 v=0
160708 Par ch=1 c=64 v=127
160756 On ch=1 n=c#5 v=30
160766 On ch=1 n=c#4 v=11
160868 Off ch=1 n=c#4 v=64
160920 Off ch=1 n=f#4 v=64
160922 Off ch=1 n=c#5 v=64
161154 On ch=1 n=f#3 v=21
161414 Off ch=1 n=f#3 v=64
161442 Off ch=1 n=a#5 v=64
161504 Off ch=1 n=a#4 v=64
161596 On ch=1 n=c#5 v=15
161598 On ch=1 n=c#4 v=11
161702 Off ch=1 n=c#5 v=64
161799 Off ch=1 n=c#4 v=64
162016 On ch=1 n=f#5 v=25
162036 On ch=1 n=f#4 v=25
162064 On ch=1 n=d#4 v=5
162120 Off ch=1 n=f#4 v=64
162186 Off ch=1 n=d#4 v=64
162392 On ch=1 n=g#5 v=22
162408 On ch=1 n=g#4 v=21
162438 On ch=1 n=f4 v=26
162534 Off ch=1 n=f#5 v=64
162566 Par ch=1 c=64 v=0
162580 On ch=1 n=f#3 v=2
162720 Par ch=1 c=64 v=127
162764 Off ch=1 n=f4 v=64
162860 Off ch=1 n=g#4 v=64
162912 Off ch=1 n=f#3 v=64
162934 On ch=1 n=c#4 v=6
162936 On ch=1 n=c#5 v=10
163086 Off ch=1 n=c#5 v=64
163104 Off ch=1 n=g#5 v=64
163158 Off ch=1 n=c#4 v=64
163474 On ch=1 n=f#3 v=2
163592 On ch=1 n=a#5 v=31
163616 On ch=1 n=a#4 v=11
163619 On ch=1 n=f#4 v=9
163918 Par ch=1 c=64 v=0
164042 Par ch=1 c=64 v=127
164398 On ch=1 n=c#5 v=14
164430 On ch=1 n=c#4 v=14
164652 Off ch=1 n=c#4 v=64
164716 Off ch=1 n=c#5 v=64
165104 On ch=1 n=c#5 v=21
165118 On ch=1 n=c#4 v=11
165316 Off ch=1 n=c#5 v=64
165350 Off ch=1 n=c#4 v=64
165746 On ch=1 n=c#4 v=9
165748 On ch=1 n=c#5 v=18
165912 Off ch=1 n=c#5 v=64
165952 Off ch=1 n=c#4 v=64
166460 On ch=1 n=c#5 v=13
166468 On ch=1 n=c#4 v=12
166694 Off ch=1 n=c#5 v=64
166704 Off ch=1 n=c#4 v=64
167260 On ch=1 n=c#5 v=15
167282 On ch=1 n=c#4 v=9
167544 Off ch=1 n=c#5 v=64
167556 Off ch=1 n=c#4 v=64
168878 On ch=1 n=c#5 v=8
168914 On ch=1 n=c#4 v=8
169076 Off ch=1 n=c#4 v=64
169136 Off ch=1 n=c#5 v=64
170906 Off ch=1 n=a#4 v=64
170916 Off ch=1 n=f#3 v=64
171006 Off ch=1 n=a#5 v=64
171046 Off ch=1 n=f#4 v=64
172032 Par ch=1 c=64 v=0
172800 Par ch=1 c=64 v=0
172800 Meta TrkEnd
TrkEnd
