MFile 1 3 480
MTrk
0 TimeSig 4/4 24 8
0 KeySig 0 major
0 Tempo 500000
43680 Tempo 535714
43925 Tempo 512821
44640 Tempo 504202
45470 Tempo 495868
65950 Tempo 495868
66075 Tempo 504202
66200 Tempo 504202
66325 Tempo 517241
66455 Tempo 517241
66580 Tempo 521739
66705 Tempo 521739
66835 Tempo 495868
67200 Tempo 495868
75270 Tempo 535714
76325 Tempo 495868
84000 Tempo 500000
84435 Tempo 500000
84485 Tempo 504202
84535 Tempo 508475
84585 Tempo 512821
84636 Tempo 517241
84686 Tempo 521739
84736 Tempo 526316
84787 Tempo 530973
84837 Tempo 535714
84887 Tempo 540541
84938 Tempo 545455
84988 Tempo 550459
85038 Tempo 555556
85090 Tempo 560748
85091 Tempo 500000
115690 Tempo 444444
131041 Tempo 472441
230056 Tempo 483871
230486 Tempo 472441
237121 Tempo 512821
292326 Tempo 535714
378721 Tempo 437956
473281 Tempo 472441
679201 Tempo 451128
706106 Tempo 461538
708366 Tempo 451128
725281 Tempo 428571
772321 Tempo 521739
851041 Tempo 480000
938881 Tempo 461538
958966 Tempo 472441
967201 Tempo 461538
973116 Tempo 472441
976756 Tempo 461538
981431 Tempo 472441
983446 Tempo 483871
986176 Tempo 472441
1005316 Tempo 413793
1061476 Tempo 428571
1070401 Tempo 422535
1074976 Tempo 444444
1079586 Tempo 422535
1084216 Tempo 437956
1088141 Tempo 454545
1089486 Tempo 437956
1093436 Tempo 454545
1094841 Tempo 437956
1098836 Tempo 451128
1100161 Tempo 437956
1104146 Tempo 451128
1105616 Tempo 419580
1112776 Tempo 431655
1117391 Tempo 431655
1122546 Tempo 444444
1133281 Tempo 472441
1188001 Tempo 454545
1198861 Tempo 472441
1198991 Tempo 465116
1199121 Tempo 465116
1201346 Tempo 451128
1205826 Tempo 441176
1214716 Tempo 422535
1224046 Tempo 422535
1224277 Tempo 425532
1224508 Tempo 428571
1224740 Tempo 431655
1224971 Tempo 434783
1225203 Tempo 437956
1225435 Tempo 441176
1225666 Tempo 444444
1225897 Tempo 447761
1226128 Tempo 451128
1226361 Tempo 454545
1226362 Tempo 454545
1232161 Tempo 461538
1268161 Tempo 472441
1470240 Tempo 437956
1487001 Tempo 444444
1489796 Tempo 444444
1489847 Tempo 447761
1489900 Tempo 451128
1489951 Tempo 454545
1490003 Tempo 458015
1490055 Tempo 461538
1490107 Tempo 465116
1490158 Tempo 468750
1490211 Tempo 472441
1490212 Tempo 437956
1491130 Tempo 444444
1521830 Tempo 454545
1542240 Tempo 465116
1551475 Tempo 444444
1602720 Tempo 451128
1615930 Tempo 437956
1617485 Tempo 444444
1624745 Tempo 451128
1630515 Tempo 461538
1652305 Tempo 444444
1656290 Tempo 454545
1671350 Tempo 461538
1697080 Tempo 444444
1697080 Meta TrkEnd
TrkEnd
MTrk
0 SeqSpec 43 00 01 00
0 Meta 0x21 00
0 PrCh ch=1 p=0
0 Par ch=1 c=7 v=127
480 Par ch=1 c=91 v=127
815 On ch=1 n=d#5 v=83
815 On ch=1 n=d#6 v=92
825 On ch=1 n=g#5 v=77
830 On ch=1 n=c5 v=73
830 On ch=1 n=g#4 v=58
835 On ch=1 n=c4 v=69
855 Par ch=1 c=64 v=24
870 Par ch=1 c=64 v=40
875 On ch=1 n=c4 v=0
890 Par ch=1 c=64 v=56
900 On ch=1 n=d#5 v=0
905 Par ch=1 c=64 v=72
910 On ch=1 n=c5 v=0
925 Par ch=1 c=64 v=104
930 On ch=1 n=g#4 v=0
940 Par ch=1 c=64 v=127
960 On ch=1 n=g#5 v=0
985 On ch=1 n=d#6 v=0
1060 On ch=1 n=f6 v=103
1065 On ch=1 n=g#5 v=77
1065 On ch=1 n=f5 v=86
1085 On ch=1 n=g#4 v=71
1085 On ch=1 n=c#5 v=72
1090 On ch=1 n=c#4 v=65
1140 Par ch=1 c=64 v=104
1155 Par ch=1 c=64 v=88
1175 Par ch=1 c=64 v=72
1190 Par ch=1 c=64 v=40
1210 Par ch=1 c=64 v=0
2130 On ch=1 n=f6 v=0
2150 Par ch=1 c=64 v=40
2165 Par ch=1 c=64 v=72
2185 On ch=1 n=f5 v=0
2185 Par ch=1 c=64 v=88
2195 On ch=1 n=g#5 v=0
2200 On ch=1 n=g#4 v=0
2200 Par ch=1 c=64 v=127
2215 On ch=1 n=c#4 v=0
2220 On ch=1 n=c#5 v=0
2505 On ch=1 n=d#6 v=91
2505 On ch=1 n=d#5 v=85
2510 On ch=1 n=g#4 v=68
2515 On ch=1 n=c5 v=68
2520 On ch=1 n=g#5 v=60
2530 On ch=1 n=c4 v=58
2545 On ch=1 n=c5 v=0
2560 On ch=1 n=g#5 v=0
2565 On ch=1 n=c4 v=0
2565 On ch=1 n=g#4 v=0
2570 On ch=1 n=d#5 v=0
2580 On ch=1 n=d#6 v=0
2640 On ch=1 n=g#5 v=82
2645 On ch=1 n=f6 v=105
2650 On ch=1 n=f5 v=87
2660 On ch=1 n=c#5 v=81
2665 On ch=1 n=c#4 v=74
2665 On ch=1 n=g#4 v=65
2735 Par ch=1 c=64 v=88
2755 Par ch=1 c=64 v=56
2770 Par ch=1 c=64 v=0
3640 Par ch=1 c=64 v=24
3655 On ch=1 n=f6 v=0
3660 Par ch=1 c=64 v=40
3675 On ch=1 n=g#5 v=0
3675 Par ch=1 c=64 v=56
3690 On ch=1 n=f5 v=0
3695 On ch=1 n=c#4 v=0
3695 Par ch=1 c=64 v=72
3730 On ch=1 n=c#5 v=0
3735 On ch=1 n=g#4 v=0
3745 Par ch=1 c=64 v=88
3765 Par ch=1 c=64 v=104
3780 Par ch=1 c=64 v=127
3935 On ch=1 n=c4 v=73
3935 On ch=1 n=g#5 v=69
3935 On ch=1 n=d#6 v=93
3935 On ch=1 n=c5 v=66
3935 On ch=1 n=d#5 v=86
3935 On ch=1 n=g#4 v=70
3965 On ch=1 n=g#5 v=0
3965 On ch=1 n=c4 v=0
3980 On ch=1 n=c5 v=0
4010 On ch=1 n=d#5 v=0
4015 On ch=1 n=g#4 v=0
4030 On ch=1 n=d#6 v=0
4065 Par ch=1 c=64 v=56
4085 Par ch=1 c=64 v=0
4095 On ch=1 n=f6 v=105
4095 On ch=1 n=g#5 v=81
4095 On ch=1 n=f5 v=88
4100 On ch=1 n=c#5 v=83
4105 On ch=1 n=c#4 v=82
4105 On ch=1 n=g#4 v=69
4185 On ch=1 n=g#4 v=0
4185 On ch=1 n=c#4 v=0
4190 On ch=1 n=c#5 v=0
4190 Par ch=1 c=64 v=72
4210 On ch=1 n=f5 v=0
4210 Par ch=1 c=64 v=127
4215 On ch=1 n=f6 v=0
4220 On ch=1 n=g#5 v=0
4440 On ch=1 n=g#4 v=76
4455 On ch=1 n=c5 v=60
4455 On ch=1 n=d#5 v=79
4460 On ch=1 n=d#6 v=85
4465 On ch=1 n=g#5 v=65
4485 On ch=1 n=c5 v=0
4495 On ch=1 n=g#5 v=0
4505 On ch=1 n=d#5 v=0
4505 On ch=1 n=g#4 v=0
4515 On ch=1 n=d#6 v=0
4530 Par ch=1 c=64 v=56
4545 Par ch=1 c=64 v=0
4550 On ch=1 n=g#5 v=68
4555 On ch=1 n=g#4 v=67
4560 On ch=1 n=f6 v=102
4560 On ch=1 n=f5 v=89
4565 On ch=1 n=c#5 v=76
4565 On ch=1 n=c#4 v=71
4650 On ch=1 n=c#4 v=0
4650 On ch=1 n=c#5 v=0
4650 On ch=1 n=f5 v=0
4650 On ch=1 n=g#4 v=0
4650 Par ch=1 c=64 v=72
4660 On ch=1 n=g#5 v=0
4670 Par ch=1 c=64 v=127
4715 On ch=1 n=f6 v=0
4985 On ch=1 n=g6 v=103
4995 On ch=1 n=g5 v=89
4995 On ch=1 n=a#5 v=84
5000 On ch=1 n=d#6 v=75
5005 On ch=1 n=d#5 v=85
5005 Par ch=1 c=64 v=40
5015 On ch=1 n=c#4 v=67
5015 On ch=1 n=d#4 v=67
5025 Par ch=1 c=64 v=0
5090 On ch=1 n=c#4 v=0
5115 On ch=1 n=a#5 v=0
5120 On ch=1 n=d#4 v=0
5120 On ch=1 n=g5 v=0
5130 Par ch=1 c=64 v=88
5150 Par ch=1 c=64 v=127
5155 On ch=1 n=d#5 v=0
5175 On ch=1 n=g6 v=0
5225 On ch=1 n=d#6 v=0
5360 On ch=1 n=c4 v=70
5380 Par ch=1 c=64 v=72
5390 On ch=1 n=c4 v=0
5390 On ch=1 n=d#4 v=73
5400 Par ch=1 c=64 v=0
5435 On ch=1 n=g#6 v=97
5440 On ch=1 n=d#6 v=85
5445 On ch=1 n=g#5 v=85
5455 On ch=1 n=c6 v=88
5465 On ch=1 n=d#5 v=74
5485 Par ch=1 c=64 v=56
5495 On ch=1 n=d#4 v=0
5505 Par ch=1 c=64 v=127
5510 On ch=1 n=d#5 v=0
5555 On ch=1 n=c6 v=0
5590 On ch=1 n=g#5 v=0
5615 On ch=1 n=g#6 v=0
5635 On ch=1 n=d#6 v=0
5760 On ch=1 n=g6 v=88
5765 On ch=1 n=g5 v=77
5770 On ch=1 n=d#6 v=68
5770 On ch=1 n=c6 v=76
5790 On ch=1 n=g6 v=0
5800 On ch=1 n=g5 v=0
5805 On ch=1 n=c6 v=0
5805 On ch=1 n=d#6 v=0
5860 On ch=1 n=g#6 v=96
5860 On ch=1 n=d#6 v=82
5860 On ch=1 n=g#5 v=88
5870 On ch=1 n=c6 v=81
5900 On ch=1 n=c6 v=0
5940 On ch=1 n=g#5 v=0
5970 On ch=1 n=d#6 v=0
5975 On ch=1 n=g#6 v=0
6160 Par ch=1 c=64 v=104
6180 Par ch=1 c=64 v=72
6200 Par ch=1 c=64 v=24
6205 On ch=1 n=a#3 v=68
6215 Par ch=1 c=64 v=0
6265 On ch=1 n=d#4 v=73
6290 On ch=1 n=a#6 v=96
6295 On ch=1 n=a#3 v=0
6295 On ch=1 n=a#5 v=92
6295 On ch=1 n=d#6 v=84
6300 On ch=1 n=g6 v=87
6320 On ch=1 n=c#5 v=78
6340 Par ch=1 c=64 v=88
6355 Par ch=1 c=64 v=127
6370 On ch=1 n=c#5 v=0
6375 On ch=1 n=a#5 v=0
6375 On ch=1 n=d#4 v=0
6390 On ch=1 n=d#6 v=0
6400 On ch=1 n=g6 v=0
6420 On ch=1 n=a#6 v=0
6615 On ch=1 n=g#3 v=65
6625 Par ch=1 c=64 v=88
6640 Par ch=1 c=64 v=24
6660 Par ch=1 c=64 v=0
6695 On ch=1 n=g#3 v=0
6695 On ch=1 n=d#4 v=67
6715 On ch=1 n=c7 v=102
6720 On ch=1 n=d#6 v=86
6720 On ch=1 n=g#6 v=82
6720 On ch=1 n=c6 v=92
6740 On ch=1 n=c5 v=79
6765 Par ch=1 c=64 v=104
6780 On ch=1 n=c5 v=0
6780 On ch=1 n=d#4 v=0
6780 Par ch=1 c=64 v=127
6795 On ch=1 n=c6 v=0
6830 On ch=1 n=d#6 v=0
6840 On ch=1 n=c7 v=0
6945 On ch=1 n=g#6 v=0
7055 On ch=1 n=a#6 v=87
7060 On ch=1 n=a#5 v=92
7065 On ch=1 n=d#6 v=82
7065 On ch=1 n=g#6 v=76
7095 On ch=1 n=g#6 v=0
7095 On ch=1 n=d#6 v=0
7095 On ch=1 n=a#5 v=0
7125 On ch=1 n=a#6 v=0
7175 On ch=1 n=c7 v=109
7185 On ch=1 n=c6 v=102
7190 On ch=1 n=d#6 v=80
7190 On ch=1 n=g#6 v=74
7220 On ch=1 n=g#6 v=0
7220 On ch=1 n=d#6 v=0
7225 On ch=1 n=c6 v=0
7325 On ch=1 n=c7 v=0
7495 On ch=1 n=f3 v=74
7495 Par ch=1 c=64 v=72
7510 Par ch=1 c=64 v=0
7550 On ch=1 n=a#3 v=71
7570 On ch=1 n=f3 v=0
7605 On ch=1 n=d7 v=103
7610 On ch=1 n=g#6 v=88
7610 On ch=1 n=d6 v=102
7615 On ch=1 n=f6 v=93
7615 On ch=1 n=a#6 v=73
7615 Par ch=1 c=64 v=72
7625 On ch=1 n=g#4 v=79
7635 Par ch=1 c=64 v=127
7650 On ch=1 n=a#6 v=0
7665 On ch=1 n=d6 v=0
7675 On ch=1 n=f6 v=0
7675 On ch=1 n=a#3 v=0
7680 On ch=1 n=g#4 v=0
7680 On ch=1 n=g#6 v=0
7710 On ch=1 n=d7 v=0
7975 On ch=1 n=d#3 v=70
7975 Par ch=1 c=64 v=88
7990 Par ch=1 c=64 v=0
8030 On ch=1 n=a#3 v=57
8065 On ch=1 n=d#3 v=0
8085 On ch=1 n=d#7 v=108
8090 On ch=1 n=d#6 v=102
8090 On ch=1 n=a#6 v=87
8095 On ch=1 n=g6 v=94
8100 Par ch=1 c=64 v=127
8105 On ch=1 n=g4 v=87
8140 On ch=1 n=a#3 v=0
8165 On ch=1 n=d#6 v=0
8170 On ch=1 n=g4 v=0
8180 On ch=1 n=g6 v=0
8215 On ch=1 n=d#7 v=0
8225 On ch=1 n=a#6 v=0
8500 On ch=1 n=d7 v=92
8510 On ch=1 n=a#6 v=71
8515 On ch=1 n=g6 v=79
8515 On ch=1 n=d6 v=80
8540 On ch=1 n=d#3 v=64
8545 On ch=1 n=d6 v=0
8565 On ch=1 n=d7 v=0
8580 Par ch=1 c=64 v=0
8590 On ch=1 n=a#6 v=0
8590 On ch=1 n=a#3 v=65
8595 On ch=1 n=g6 v=0
8615 On ch=1 n=d#3 v=0
8640 On ch=1 n=d#7 v=102
8640 On ch=1 n=a#6 v=82
8640 On ch=1 n=d#6 v=92
8645 On ch=1 n=g6 v=96
8665 On ch=1 n=g4 v=82
8665 Par ch=1 c=64 v=88
8685 Par ch=1 c=64 v=127
8700 On ch=1 n=a#3 v=0
8705 On ch=1 n=d#6 v=0
8720 On ch=1 n=g4 v=0
8720 On ch=1 n=g6 v=0
8735 On ch=1 n=a#6 v=0
8745 On ch=1 n=d#7 v=0
9555 Par ch=1 c=64 v=40
9570 Par ch=1 c=64 v=0
9695 Par ch=1 c=64 v=56
9710 Par ch=1 c=64 v=127
9780 On ch=1 n=d#6 v=100
9780 On ch=1 n=d#5 v=90
9780 On ch=1 n=g#5 v=84
9785 On ch=1 n=c4 v=81
9785 On ch=1 n=g#4 v=75
9795 On ch=1 n=c5 v=78
9840 On ch=1 n=c5 v=0
9845 On ch=1 n=c4 v=0
9850 On ch=1 n=d#5 v=0
9855 On ch=1 n=g#4 v=0
9860 On ch=1 n=g#5 v=0
9915 On ch=1 n=d#6 v=0
10010 On ch=1 n=f6 v=105
10015 On ch=1 n=g#5 v=81
10020 On ch=1 n=f5 v=85
10030 On ch=1 n=g#4 v=74
10030 On ch=1 n=c#4 v=80
10035 On ch=1 n=c#5 v=77
10105 Par ch=1 c=64 v=72
10120 Par ch=1 c=64 v=0
11130 Par ch=1 c=64 v=40
11150 Par ch=1 c=64 v=88
11170 Par ch=1 c=64 v=127
11175 On ch=1 n=f6 v=0
11200 On ch=1 n=g#5 v=0
11210 On ch=1 n=f5 v=0
11225 On ch=1 n=c#5 v=0
11225 On ch=1 n=c#4 v=0
11225 On ch=1 n=g#4 v=0
11460 On ch=1 n=g#4 v=67
11460 On ch=1 n=c5 v=69
11465 On ch=1 n=d#5 v=80
11470 On ch=1 n=d#6 v=90
11475 On ch=1 n=g#5 v=67
11475 On ch=1 n=c4 v=35
11490 On ch=1 n=c5 v=0
11495 On ch=1 n=g#4 v=0
11500 On ch=1 n=d#6 v=0
11505 On ch=1 n=g#5 v=0
11510 On ch=1 n=c4 v=0
11510 On ch=1 n=d#5 v=0
11575 On ch=1 n=g#5 v=77
11575 On ch=1 n=f6 v=110
11580 On ch=1 n=f5 v=96
11595 On ch=1 n=c#5 v=80
11595 On ch=1 n=g#4 v=79
11600 On ch=1 n=c#4 v=71
11635 On ch=1 n=f5 v=0
11645 On ch=1 n=g#5 v=0
11685 Par ch=1 c=64 v=88
11700 Par ch=1 c=64 v=40
11710 On ch=1 n=g#5 v=37
11715 On ch=1 n=f5 v=31
11720 Par ch=1 c=64 v=0
12445 Par ch=1 c=64 v=24
12460 Par ch=1 c=64 v=40
12485 Par ch=1 c=64 v=56
12500 Par ch=1 c=64 v=72
12520 Par ch=1 c=64 v=104
12530 On ch=1 n=f6 v=0
12535 Par ch=1 c=64 v=127
12550 On ch=1 n=f5 v=0
12605 On ch=1 n=c#4 v=0
12605 On ch=1 n=g#4 v=0
12610 On ch=1 n=c#5 v=0
12690 On ch=1 n=g#5 v=0
12825 On ch=1 n=d#6 v=89
12825 On ch=1 n=d#5 v=92
12825 On ch=1 n=g#4 v=76
12830 On ch=1 n=c5 v=76
12830 On ch=1 n=g#5 v=73
12835 On ch=1 n=c4 v=76
12865 On ch=1 n=c4 v=0
12865 On ch=1 n=c5 v=0
12875 On ch=1 n=d#5 v=0
12895 On ch=1 n=g#4 v=0
12910 On ch=1 n=g#5 v=0
12915 On ch=1 n=d#6 v=0
12960 On ch=1 n=g#5 v=71
12960 Par ch=1 c=64 v=88
12965 On ch=1 n=f6 v=107
12970 On ch=1 n=f5 v=88
12980 Par ch=1 c=64 v=0
12985 On ch=1 n=c#5 v=80
12985 On ch=1 n=g#4 v=65
12990 On ch=1 n=c#4 v=81
13080 On ch=1 n=c#4 v=0
13085 Par ch=1 c=64 v=40
13095 On ch=1 n=g#4 v=0
13100 On ch=1 n=c#5 v=0
13105 Par ch=1 c=64 v=104
13120 Par ch=1 c=64 v=127
13125 On ch=1 n=f5 v=0
13130 On ch=1 n=f6 v=0
13200 On ch=1 n=g#5 v=0
13330 On ch=1 n=g#4 v=80
13330 On ch=1 n=d#6 v=82
13335 On ch=1 n=d#5 v=72
13335 On ch=1 n=g#5 v=69
13340 On ch=1 n=c5 v=70
13340 On ch=1 n=c4 v=77
13360 On ch=1 n=d#5 v=0
13365 On ch=1 n=g#5 v=0
13370 On ch=1 n=c4 v=0
13370 On ch=1 n=c5 v=0
13380 On ch=1 n=d#6 v=0
13390 On ch=1 n=g#4 v=0
13390 Par ch=1 c=64 v=104
13405 Par ch=1 c=64 v=0
13420 On ch=1 n=g#5 v=78
13425 On ch=1 n=f6 v=109
13425 On ch=1 n=f5 v=93
13445 On ch=1 n=g#4 v=73
13455 On ch=1 n=c#5 v=82
13455 On ch=1 n=c#4 v=83
13495 On ch=1 n=f5 v=0
13495 Par ch=1 c=64 v=40
13505 On ch=1 n=c#4 v=0
13505 On ch=1 n=c#5 v=0
13505 On ch=1 n=g#5 v=0
13515 On ch=1 n=g#4 v=0
13515 Par ch=1 c=64 v=104
13530 Par ch=1 c=64 v=127
13560 On ch=1 n=f6 v=0
13850 Par ch=1 c=64 v=88
13855 On ch=1 n=g6 v=105
13860 On ch=1 n=g5 v=96
13865 On ch=1 n=a#5 v=82
13870 On ch=1 n=d#6 v=82
13870 On ch=1 n=d#5 v=88
13870 Par ch=1 c=64 v=0
13875 On ch=1 n=d#4 v=78
13880 On ch=1 n=c#4 v=69
13950 On ch=1 n=d#4 v=0
13950 On ch=1 n=d#5 v=0
13955 On ch=1 n=a#5 v=0
13960 On ch=1 n=c#4 v=0
13975 On ch=1 n=g5 v=0
13975 Par ch=1 c=64 v=104
13990 Par ch=1 c=64 v=127
14005 On ch=1 n=g6 v=0
14070 On ch=1 n=d#6 v=0
14175 On ch=1 n=c4 v=70
14230 On ch=1 n=d#4 v=67
14245 On ch=1 n=c4 v=0
14260 Par ch=1 c=64 v=24
14275 Par ch=1 c=64 v=0
14290 On ch=1 n=g#6 v=103
14300 On ch=1 n=g#5 v=87
14305 On ch=1 n=d#6 v=77
14310 On ch=1 n=c6 v=88
14320 On ch=1 n=d#5 v=81
14340 On ch=1 n=c6 v=0
14345 Par ch=1 c=64 v=56
14365 Par ch=1 c=64 v=127
14385 On ch=1 n=d#5 v=0
14400 On ch=1 n=d#4 v=0
14485 On ch=1 n=d#6 v=0
14485 On ch=1 n=g#5 v=0
14485 On ch=1 n=g#6 v=0
14605 On ch=1 n=g6 v=93
14605 On ch=1 n=d#6 v=71
14610 On ch=1 n=g5 v=74
14615 On ch=1 n=c6 v=74
14630 On ch=1 n=g6 v=0
14640 On ch=1 n=g5 v=0
14645 On ch=1 n=c6 v=0
14660 On ch=1 n=d#6 v=0
14705 On ch=1 n=g#6 v=102
14710 On ch=1 n=g#5 v=95
14710 On ch=1 n=d#6 v=85
14720 On ch=1 n=c6 v=81
14750 On ch=1 n=c6 v=0
14775 On ch=1 n=g#5 v=0
14800 On ch=1 n=d#6 v=0
14825 On ch=1 n=g#6 v=0
15015 On ch=1 n=a#3 v=67
15020 Par ch=1 c=64 v=56
15040 Par ch=1 c=64 v=0
15080 On ch=1 n=d#4 v=76
15115 On ch=1 n=a#3 v=0
15120 On ch=1 n=a#6 v=95
15125 On ch=1 n=a#5 v=93
15130 On ch=1 n=g6 v=90
15130 On ch=1 n=d#6 v=85
15145 Par ch=1 c=64 v=40
15150 On ch=1 n=c#5 v=75
15165 Par ch=1 c=64 v=127
15200 On ch=1 n=c#5 v=0
15200 On ch=1 n=d#4 v=0
15205 On ch=1 n=a#5 v=0
15235 On ch=1 n=g6 v=0
15240 On ch=1 n=d#6 v=0
15255 On ch=1 n=a#6 v=0
15435 On ch=1 n=g#3 v=58
15485 Par ch=1 c=64 v=56
15500 Par ch=1 c=64 v=0
15505 On ch=1 n=d#4 v=71
15525 On ch=1 n=g#3 v=0
15535 On ch=1 n=c7 v=103
15540 On ch=1 n=d#6 v=95
15545 On ch=1 n=c6 v=102
15545 On ch=1 n=g#6 v=90
15570 On ch=1 n=c5 v=77
15590 Par ch=1 c=64 v=104
15600 On ch=1 n=d#4 v=0
15610 On ch=1 n=c5 v=0
15610 Par ch=1 c=64 v=127
15670 On ch=1 n=c6 v=0
15670 On ch=1 n=c7 v=0
15690 On ch=1 n=d#6 v=0
15720 On ch=1 n=g#6 v=0
15845 On ch=1 n=a#5 v=90
15850 On ch=1 n=a#6 v=73
15850 On ch=1 n=d#6 v=79
15855 On ch=1 n=g#6 v=67
15880 On ch=1 n=d#6 v=0
15880 On ch=1 n=a#6 v=0
15885 On ch=1 n=g#6 v=0
15890 On ch=1 n=a#5 v=0
15950 On ch=1 n=d#6 v=86
15950 On ch=1 n=g#6 v=79
15950 On ch=1 n=c6 v=109
15955 On ch=1 n=c7 v=105
16010 On ch=1 n=d#6 v=0
16035 On ch=1 n=c6 v=0
16085 On ch=1 n=g#6 v=0
16095 On ch=1 n=c7 v=0
16285 On ch=1 n=f3 v=65
16285 Par ch=1 c=64 v=104
16300 Par ch=1 c=64 v=0
16345 On ch=1 n=a#3 v=71
16365 On ch=1 n=f3 v=0
16365 On ch=1 n=d7 v=107
16370 On ch=1 n=g#6 v=92
16375 On ch=1 n=d6 v=103
16380 On ch=1 n=a#6 v=81
16380 On ch=1 n=f6 v=92
16410 On ch=1 n=g#4 v=78
16425 Par ch=1 c=64 v=127
16455 On ch=1 n=g#4 v=0
16455 On ch=1 n=a#3 v=0
16465 On ch=1 n=d6 v=0
16475 On ch=1 n=f6 v=0
16505 On ch=1 n=a#6 v=0
16505 On ch=1 n=d7 v=0
16510 On ch=1 n=g#6 v=0
16720 On ch=1 n=d#3 v=72
16725 Par ch=1 c=64 v=104
16745 Par ch=1 c=64 v=0
16770 On ch=1 n=a#3 v=59
16795 On ch=1 n=d#3 v=0
16825 On ch=1 n=d#7 v=106
16830 On ch=1 n=d#6 v=99
16830 On ch=1 n=a#6 v=88
16835 On ch=1 n=g6 v=96
16850 On ch=1 n=g4 v=82
16850 Par ch=1 c=64 v=72
16870 Par ch=1 c=64 v=127
16890 On ch=1 n=a#3 v=0
16910 On ch=1 n=g4 v=0
16970 On ch=1 n=g6 v=0
16975 On ch=1 n=d#6 v=0
16995 On ch=1 n=d#7 v=0
17015 On ch=1 n=a#6 v=0
17230 On ch=1 n=d7 v=89
17230 On ch=1 n=a#6 v=73
17230 On ch=1 n=g6 v=81
17235 On ch=1 n=d6 v=80
17260 On ch=1 n=d6 v=0
17270 On ch=1 n=d#3 v=65
17275 On ch=1 n=a#3 v=53
17295 On ch=1 n=d7 v=0
17310 On ch=1 n=g6 v=0
17310 On ch=1 n=a#6 v=0
17310 Par ch=1 c=64 v=88
17330 Par ch=1 c=64 v=0
17345 On ch=1 n=d#3 v=0
17360 On ch=1 n=a#6 v=89
17360 On ch=1 n=d#7 v=103
17360 On ch=1 n=g6 v=93
17365 On ch=1 n=d#6 v=97
17390 On ch=1 n=g4 v=77
17420 Par ch=1 c=64 v=127
17425 On ch=1 n=d#6 v=0
17430 On ch=1 n=a#3 v=0
17435 On ch=1 n=g4 v=0
17445 On ch=1 n=g6 v=0
17450 On ch=1 n=a#6 v=0
17465 On ch=1 n=d#7 v=0
18415 Par ch=1 c=64 v=88
18430 Par ch=1 c=64 v=0
18575 On ch=1 n=d#6 v=91
18620 On ch=1 n=d#5 v=72
18625 Par ch=1 c=64 v=40
18645 Par ch=1 c=64 v=88
18655 On ch=1 n=d#5 v=0
18660 Par ch=1 c=64 v=127
18700 On ch=1 n=d#6 v=0
18775 On ch=1 n=e6 v=96
18785 On ch=1 n=e5 v=72
18840 Par ch=1 c=64 v=88
18855 Par ch=1 c=64 v=24
18875 Par ch=1 c=64 v=0
19000 Par ch=1 c=64 v=40
19015 Par ch=1 c=64 v=104
19035 Par ch=1 c=64 v=127
19280 On ch=1 n=a#5 v=48
19285 On ch=1 n=d#4 v=51
19295 On ch=1 n=c#5 v=40
19295 On ch=1 n=g5 v=47
19300 On ch=1 n=a#4 v=42
19300 Par ch=1 c=64 v=104
19320 Par ch=1 c=64 v=24
19335 Par ch=1 c=64 v=0
19460 Par ch=1 c=64 v=88
19475 Par ch=1 c=64 v=127
19515 On ch=1 n=g5 v=0
19560 On ch=1 n=a#5 v=0
19565 On ch=1 n=e6 v=0
19575 On ch=1 n=d#4 v=0
19595 On ch=1 n=e5 v=0
19950 On ch=1 n=c#5 v=0
20060 On ch=1 n=a#4 v=0
20105 On ch=1 n=d#5 v=63
20105 On ch=1 n=d#6 v=83
20180 On ch=1 n=d#5 v=0
20220 On ch=1 n=d#6 v=0
20225 On ch=1 n=e6 v=90
20245 On ch=1 n=e5 v=77
20295 Par ch=1 c=64 v=56
20310 Par ch=1 c=64 v=0
20440 Par ch=1 c=64 v=72
20455 Par ch=1 c=64 v=127
20725 On ch=1 n=a#5 v=43
20725 On ch=1 n=d#4 v=42
20730 On ch=1 n=g5 v=39
20730 On ch=1 n=c#5 v=31
20735 On ch=1 n=a#4 v=28
20845 Par ch=1 c=64 v=88
20865 Par ch=1 c=64 v=24
20880 Par ch=1 c=64 v=0
20970 Par ch=1 c=64 v=56
20985 Par ch=1 c=64 v=127
21010 On ch=1 n=d#4 v=0
21010 On ch=1 n=e5 v=0
21295 On ch=1 n=c#5 v=0
21315 On ch=1 n=e6 v=0
21350 On ch=1 n=g5 v=0
21360 On ch=1 n=a#5 v=0
21385 On ch=1 n=a#4 v=0
21440 On ch=1 n=d#5 v=58
21445 On ch=1 n=d#6 v=80
21510 On ch=1 n=d#5 v=0
21535 On ch=1 n=d#6 v=0
21580 On ch=1 n=e6 v=99
21590 Par ch=1 c=64 v=88
21600 On ch=1 n=c#5 v=47
21600 On ch=1 n=e5 v=63
21605 On ch=1 n=c#6 v=58
21610 Par ch=1 c=64 v=0
21630 On ch=1 n=e4 v=41
21715 On ch=1 n=c#6 v=0
21715 Par ch=1 c=64 v=88
21720 On ch=1 n=e6 v=0
21730 On ch=1 n=e5 v=0
21735 On ch=1 n=e4 v=0
21735 On ch=1 n=c#5 v=0
21735 Par ch=1 c=64 v=127
22020 On ch=1 n=d#6 v=86
22020 On ch=1 n=b5 v=68
22020 On ch=1 n=d#5 v=54
22020 On ch=1 n=d#4 v=63
22055 On ch=1 n=b4 v=56
22070 Par ch=1 c=64 v=56
22085 Par ch=1 c=64 v=0
22110 On ch=1 n=d#5 v=0
22120 On ch=1 n=b4 v=0
22130 On ch=1 n=d#4 v=0
22130 On ch=1 n=b5 v=0
22160 Par ch=1 c=64 v=24
22175 Par ch=1 c=64 v=88
22195 Par ch=1 c=64 v=127
22350 On ch=1 n=d#6 v=0
22465 On ch=1 n=c#6 v=85
22485 On ch=1 n=c#5 v=44
22490 On ch=1 n=c#4 v=49
22490 On ch=1 n=a#4 v=43
22495 On ch=1 n=a#5 v=44
22500 Par ch=1 c=64 v=104
22510 Par ch=1 c=64 v=24
22535 Par ch=1 c=64 v=0
22605 Par ch=1 c=64 v=40
22620 On ch=1 n=c#5 v=0
22620 Par ch=1 c=64 v=127
22630 On ch=1 n=a#4 v=0
22630 On ch=1 n=c#4 v=0
22645 On ch=1 n=c#6 v=0
22675 On ch=1 n=a#5 v=0
22905 On ch=1 n=c#6 v=84
22905 On ch=1 n=c#4 v=56
22905 On ch=1 n=c#5 v=47
22920 On ch=1 n=a#4 v=44
22925 On ch=1 n=a#5 v=46
22960 Par ch=1 c=64 v=72
22975 Par ch=1 c=64 v=0
23030 Par ch=1 c=64 v=24
23040 On ch=1 n=a#5 v=0
23045 Par ch=1 c=64 v=88
23060 On ch=1 n=a#4 v=0
23065 Par ch=1 c=64 v=127
23080 On ch=1 n=c#5 v=0
23080 On ch=1 n=c#4 v=0
23290 On ch=1 n=c#6 v=0
23380 On ch=1 n=b5 v=75
23390 On ch=1 n=g#5 v=53
23395 On ch=1 n=b3 v=57
23395 On ch=1 n=g#4 v=55
23400 On ch=1 n=b4 v=49
23525 Par ch=1 c=64 v=56
23545 Par ch=1 c=64 v=0
23830 Par ch=1 c=64 v=104
23845 Par ch=1 c=64 v=127
23855 On ch=1 n=b4 v=0
23890 On ch=1 n=g#4 v=0
23900 On ch=1 n=b3 v=0
23905 On ch=1 n=b5 v=0
23910 On ch=1 n=g#5 v=0
24175 On ch=1 n=f#6 v=96
24175 On ch=1 n=f#5 v=88
24180 On ch=1 n=d#6 v=77
24185 On ch=1 n=b5 v=82
24190 On ch=1 n=b3 v=87
24190 On ch=1 n=b2 v=70
24225 On ch=1 n=b2 v=0
24245 On ch=1 n=f#5 v=0
24250 On ch=1 n=b3 v=0
24260 On ch=1 n=b5 v=0
24275 On ch=1 n=d#6 v=0
24290 On ch=1 n=f#6 v=0
24420 On ch=1 n=g#6 v=100
24430 On ch=1 n=g#5 v=87
24435 On ch=1 n=e6 v=84
24435 On ch=1 n=b5 v=86
24445 On ch=1 n=e4 v=79
24445 On ch=1 n=e3 v=70
24485 Par ch=1 c=64 v=88
24505 Par ch=1 c=64 v=0
25445 Par ch=1 c=64 v=40
25460 Par ch=1 c=64 v=127
25490 On ch=1 n=e4 v=0
25500 On ch=1 n=e3 v=0
25500 On ch=1 n=g#6 v=0
25505 On ch=1 n=b5 v=0
25510 On ch=1 n=e6 v=0
25555 On ch=1 n=g#5 v=0
25815 On ch=1 n=f#6 v=85
25820 On ch=1 n=f#5 v=82
25825 On ch=1 n=b5 v=76
25830 On ch=1 n=b2 v=72
25835 On ch=1 n=b3 v=77
25860 On ch=1 n=b3 v=0
25860 On ch=1 n=b2 v=0
25860 On ch=1 n=b5 v=0
25860 On ch=1 n=e6 v=52
25870 On ch=1 n=f#5 v=0
25880 On ch=1 n=f#6 v=0
25890 On ch=1 n=e6 v=0
25935 On ch=1 n=g#6 v=103
25940 On ch=1 n=g#5 v=93
25940 On ch=1 n=e6 v=88
25945 On ch=1 n=b5 v=88
25965 On ch=1 n=e4 v=92
25975 On ch=1 n=e3 v=82
26030 Par ch=1 c=64 v=56
26045 Par ch=1 c=64 v=0
26510 Par ch=1 c=64 v=24
26525 On ch=1 n=e4 v=0
26525 Par ch=1 c=64 v=72
26545 Par ch=1 c=64 v=104
26560 Par ch=1 c=64 v=127
26770 On ch=1 n=g#6 v=0
26785 On ch=1 n=e3 v=0
26795 On ch=1 n=b5 v=0
26820 On ch=1 n=e6 v=0
26845 On ch=1 n=g#5 v=0
27092 On ch=1 n=b2 v=77
27092 On ch=1 n=b5 v=78
27092 On ch=1 n=f#6 v=90
27092 On ch=1 n=d#6 v=79
27092 On ch=1 n=f#5 v=89
27092 On ch=1 n=b3 v=82
27127 On ch=1 n=b3 v=0
27127 On ch=1 n=b2 v=0
27152 On ch=1 n=f#5 v=0
27197 On ch=1 n=d#6 v=0
27207 On ch=1 n=f#6 v=0
27217 On ch=1 n=b5 v=0
27250 On ch=1 n=g#6 v=93
27255 Par ch=1 c=64 v=56
27260 On ch=1 n=e6 v=87
27260 On ch=1 n=g#5 v=83
27260 On ch=1 n=b5 v=87
27275 Par ch=1 c=64 v=0
27285 On ch=1 n=e4 v=78
27295 On ch=1 n=e3 v=60
27335 On ch=1 n=e3 v=0
27350 On ch=1 n=e4 v=0
27360 Par ch=1 c=64 v=88
27380 Par ch=1 c=64 v=127
27400 On ch=1 n=g#6 v=0
27405 On ch=1 n=e6 v=0
27435 On ch=1 n=g#5 v=0
27500 On ch=1 n=b5 v=0
27590 On ch=1 n=f#6 v=84
27600 On ch=1 n=f#5 v=78
27620 On ch=1 n=f#4 v=88
27620 On ch=1 n=b5 v=49
27620 On ch=1 n=f#3 v=80
27650 On ch=1 n=f#5 v=0
27655 On ch=1 n=b5 v=0
27655 On ch=1 n=f#6 v=0
27670 On ch=1 n=f#4 v=0
27675 On ch=1 n=f#3 v=0
27715 On ch=1 n=e6 v=105
27715 On ch=1 n=e5 v=94
27715 Par ch=1 c=64 v=24
27720 On ch=1 n=b5 v=90
27735 Par ch=1 c=64 v=0
27755 On ch=1 n=g#4 v=81
27770 On ch=1 n=g#3 v=46
27775 On ch=1 n=e5 v=0
27790 Par ch=1 c=64 v=56
27800 On ch=1 n=b5 v=0
27805 On ch=1 n=g#3 v=0
27805 Par ch=1 c=64 v=127
27810 On ch=1 n=g#4 v=0
27825 On ch=1 n=e6 v=0
28105 Par ch=1 c=64 v=104
28125 Par ch=1 c=64 v=24
28145 On ch=1 n=d#6 v=93
28145 Par ch=1 c=64 v=0
28155 On ch=1 n=d#5 v=91
28160 On ch=1 n=b5 v=88
28165 On ch=1 n=b4 v=86
28165 On ch=1 n=b3 v=84
28230 On ch=1 n=b3 v=0
28230 Par ch=1 c=64 v=72
28245 On ch=1 n=b4 v=0
28250 Par ch=1 c=64 v=127
28275 On ch=1 n=d#5 v=0
28280 On ch=1 n=b5 v=0
28310 On ch=1 n=d#6 v=0
28570 Par ch=1 c=64 v=104
28585 Par ch=1 c=64 v=24
28605 Par ch=1 c=64 v=0
28610 On ch=1 n=d6 v=97
28610 On ch=1 n=a#4 v=83
28610 On ch=1 n=a#5 v=81
28615 On ch=1 n=d5 v=90
28620 On ch=1 n=a#3 v=68
28625 On ch=1 n=g#3 v=62
28660 On ch=1 n=g#3 v=0
28675 Par ch=1 c=64 v=56
28690 On ch=1 n=d5 v=0
28695 On ch=1 n=a#3 v=0
28695 On ch=1 n=a#4 v=0
28695 Par ch=1 c=64 v=127
28755 On ch=1 n=d6 v=0
28760 On ch=1 n=a#5 v=0
28900 On ch=1 n=g3 v=62
28965 On ch=1 n=a#3 v=71
28995 On ch=1 n=g3 v=0
28995 Par ch=1 c=64 v=72
29010 Par ch=1 c=64 v=0
29070 On ch=1 n=d#6 v=96
29075 On ch=1 n=a#5 v=85
29075 On ch=1 n=d#5 v=93
29090 On ch=1 n=a#4 v=85
29120 Par ch=1 c=64 v=104
29135 Par ch=1 c=64 v=127
29155 On ch=1 n=a#4 v=0
29160 On ch=1 n=d#5 v=0
29160 On ch=1 n=a#3 v=0
29190 On ch=1 n=d#6 v=0
29200 On ch=1 n=a#5 v=0
29700 Par ch=1 c=64 v=40
29725 Par ch=1 c=64 v=0
29790 On ch=1 n=d#5 v=91
29795 On ch=1 n=d#6 v=95
29795 On ch=1 n=g#5 v=85
29800 On ch=1 n=c5 v=84
29800 On ch=1 n=g#4 v=77
29810 On ch=1 n=c4 v=84
29810 Par ch=1 c=64 v=127
29840 On ch=1 n=c4 v=0
29860 On ch=1 n=d#5 v=0
29870 On ch=1 n=g#4 v=0
29870 On ch=1 n=c5 v=0
29895 On ch=1 n=d#6 v=0
29975 On ch=1 n=g#5 v=0
30005 Par ch=1 c=64 v=72
30025 Par ch=1 c=64 v=0
30035 On ch=1 n=f6 v=110
30035 On ch=1 n=g#5 v=80
30040 On ch=1 n=f5 v=94
30045 On ch=1 n=c#5 v=89
30045 On ch=1 n=g#4 v=81
30050 On ch=1 n=c#4 v=79
30150 Par ch=1 c=64 v=127
30155 On ch=1 n=c#5 v=0
30160 On ch=1 n=g#4 v=0
30160 On ch=1 n=f6 v=0
30170 On ch=1 n=c#4 v=0
30170 On ch=1 n=f5 v=0
30180 On ch=1 n=g#5 v=0
30535 On ch=1 n=c#5 v=96
30550 On ch=1 n=f4 v=86
30550 On ch=1 n=g#4 v=77
30560 On ch=1 n=c#4 v=87
30565 On ch=1 n=c#3 v=81
30565 On ch=1 n=g#3 v=74
30595 Par ch=1 c=64 v=40
30610 Par ch=1 c=64 v=0
30735 Par ch=1 c=64 v=127
30865 On ch=1 n=f4 v=0
30885 On ch=1 n=g#4 v=0
30910 On ch=1 n=c#3 v=0
30930 On ch=1 n=c#4 v=0
30940 On ch=1 n=c#5 v=0
30945 On ch=1 n=g#3 v=0
31425 On ch=1 n=d#5 v=77
31430 On ch=1 n=d#6 v=88
31430 On ch=1 n=g#4 v=83
31435 On ch=1 n=g#5 v=73
31440 On ch=1 n=c5 v=82
31445 On ch=1 n=c4 v=74
31455 On ch=1 n=d#5 v=0
31475 On ch=1 n=c4 v=0
31475 On ch=1 n=c5 v=0
31475 On ch=1 n=g#5 v=0
31475 On ch=1 n=d#6 v=0
31490 On ch=1 n=g#4 v=0
31535 Par ch=1 c=64 v=72
31550 On ch=1 n=g#5 v=93
31550 On ch=1 n=f6 v=104
31550 On ch=1 n=f5 v=103
31550 Par ch=1 c=64 v=0
31565 On ch=1 n=c#5 v=92
31570 On ch=1 n=c#4 v=87
31570 On ch=1 n=g#4 v=76
31610 On ch=1 n=c#4 v=0
31615 On ch=1 n=g#4 v=0
31615 On ch=1 n=c#5 v=0
31620 On ch=1 n=g#5 v=0
31640 Par ch=1 c=64 v=127
31650 On ch=1 n=f5 v=0
31665 On ch=1 n=f6 v=0
32075 On ch=1 n=c#5 v=97
32085 On ch=1 n=g#4 v=83
32085 On ch=1 n=f4 v=89
32095 On ch=1 n=g#3 v=83
32095 On ch=1 n=c#4 v=87
32095 On ch=1 n=c#3 v=80
32155 Par ch=1 c=64 v=104
32170 Par ch=1 c=64 v=0
32280 Par ch=1 c=64 v=127
32300 On ch=1 n=f4 v=0
32335 On ch=1 n=c#3 v=0
32335 On ch=1 n=g#4 v=0
32345 On ch=1 n=c#4 v=0
32365 On ch=1 n=g#3 v=0
32385 On ch=1 n=c#5 v=0
32930 On ch=1 n=g#4 v=76
32930 On ch=1 n=d#5 v=84
32930 On ch=1 n=c5 v=82
32935 On ch=1 n=g#5 v=73
32935 On ch=1 n=d#6 v=89
32945 On ch=1 n=c4 v=70
32965 On ch=1 n=d#5 v=0
32970 On ch=1 n=c4 v=0
32970 On ch=1 n=c5 v=0
32985 On ch=1 n=d#6 v=0
32990 On ch=1 n=g#4 v=0
32995 On ch=1 n=g#5 v=0
33070 On ch=1 n=g#5 v=85
33070 On ch=1 n=f5 v=93
33070 On ch=1 n=f6 v=95
33085 On ch=1 n=c#5 v=89
33085 On ch=1 n=g#4 v=84
33090 On ch=1 n=c#4 v=86
33095 Par ch=1 c=64 v=88
33115 Par ch=1 c=64 v=0
33165 On ch=1 n=c#4 v=0
33165 On ch=1 n=g#4 v=0
33170 On ch=1 n=c#5 v=0
33185 Par ch=1 c=64 v=104
33205 Par ch=1 c=64 v=127
33210 On ch=1 n=f5 v=0
33215 On ch=1 n=f6 v=0
33320 On ch=1 n=g#5 v=0
33440 On ch=1 n=d#6 v=94
33440 On ch=1 n=g#4 v=80
33445 On ch=1 n=d#5 v=81
33455 On ch=1 n=g#5 v=74
33460 On ch=1 n=c5 v=71
33475 On ch=1 n=d#5 v=0
33485 On ch=1 n=g#5 v=0
33490 On ch=1 n=c5 v=0
33490 On ch=1 n=d#6 v=0
33510 On ch=1 n=g#4 v=0
33555 On ch=1 n=g#5 v=84
33555 On ch=1 n=f5 v=94
33555 On ch=1 n=f6 v=109
33560 On ch=1 n=g#4 v=71
33560 Par ch=1 c=64 v=0
33575 On ch=1 n=c#4 v=77
33575 On ch=1 n=c#5 v=82
33630 On ch=1 n=c#4 v=0
33635 On ch=1 n=c#5 v=0
33645 On ch=1 n=g#4 v=0
33645 On ch=1 n=f5 v=0
33645 Par ch=1 c=64 v=88
33660 On ch=1 n=g#5 v=0
33665 Par ch=1 c=64 v=127
33730 On ch=1 n=f6 v=0
33955 On ch=1 n=d#4 v=65
33955 On ch=1 n=c#4 v=65
33985 Par ch=1 c=64 v=88
34000 On ch=1 n=g6 v=103
34000 Par ch=1 c=64 v=0
34015 On ch=1 n=g5 v=94
34015 On ch=1 n=a#5 v=87
34015 On ch=1 n=d#6 v=83
34030 On ch=1 n=d#5 v=90
34045 On ch=1 n=c#4 v=0
34060 On ch=1 n=g#4 v=51
34070 Par ch=1 c=64 v=40
34080 On ch=1 n=d#4 v=0
34090 On ch=1 n=g#4 v=0
34090 On ch=1 n=d#5 v=0
34090 Par ch=1 c=64 v=127
34135 On ch=1 n=a#5 v=0
34135 On ch=1 n=g5 v=0
34160 On ch=1 n=g6 v=0
34265 On ch=1 n=d#6 v=0
34345 On ch=1 n=c4 v=75
34390 On ch=1 n=d#4 v=67
34410 Par ch=1 c=64 v=104
34430 Par ch=1 c=64 v=0
34435 On ch=1 n=c4 v=0
34455 On ch=1 n=g#6 v=102
34470 On ch=1 n=d#6 v=84
34470 On ch=1 n=g#5 v=87
34480 On ch=1 n=d#5 v=85
34480 On ch=1 n=c6 v=89
34500 Par ch=1 c=64 v=56
34505 On ch=1 n=d#4 v=0
34515 Par ch=1 c=64 v=127
34530 On ch=1 n=d#5 v=0
34625 On ch=1 n=g#5 v=0
34630 On ch=1 n=c6 v=0
34670 On ch=1 n=g#6 v=0
34685 On ch=1 n=d#6 v=0
34785 On ch=1 n=g6 v=97
34795 On ch=1 n=d#6 v=69
34800 On ch=1 n=g5 v=65
34800 On ch=1 n=c6 v=74
34830 On ch=1 n=g5 v=0
34835 On ch=1 n=g6 v=0
34840 On ch=1 n=c6 v=0
34850 On ch=1 n=d#6 v=0
34895 On ch=1 n=g#6 v=107
34895 On ch=1 n=g#5 v=91
34900 On ch=1 n=d#6 v=89
34905 On ch=1 n=c6 v=93
34975 On ch=1 n=c6 v=0
34975 On ch=1 n=g#5 v=0
35000 On ch=1 n=d#6 v=0
35000 On ch=1 n=g#6 v=0
35315 Par ch=1 c=64 v=104
35335 Par ch=1 c=64 v=0
35350 On ch=1 n=d#6 v=95
35350 On ch=1 n=d#5 v=90
35355 On ch=1 n=g#5 v=83
35375 On ch=1 n=c4 v=84
35390 On ch=1 n=c3 v=75
35475 Par ch=1 c=64 v=104
35490 On ch=1 n=d#5 v=0
35490 Par ch=1 c=64 v=127
35515 On ch=1 n=c3 v=0
35520 On ch=1 n=g#5 v=0
35535 On ch=1 n=d#6 v=0
35550 On ch=1 n=c4 v=0
35795 Par ch=1 c=64 v=40
35800 On ch=1 n=f6 v=99
35810 On ch=1 n=f5 v=92
35810 On ch=1 n=g#5 v=86
35810 Par ch=1 c=64 v=0
35815 On ch=1 n=c#4 v=92
35820 On ch=1 n=c#3 v=73
35885 On ch=1 n=c#4 v=0
35885 Par ch=1 c=64 v=40
35900 Par ch=1 c=64 v=127
35905 On ch=1 n=c#3 v=0
35905 On ch=1 n=f6 v=0
35915 On ch=1 n=f5 v=0
35960 On ch=1 n=g#5 v=0
36140 On ch=1 n=c4 v=74
36145 On ch=1 n=c3 v=66
36150 On ch=1 n=d#5 v=87
36150 On ch=1 n=d#6 v=78
36155 On ch=1 n=g#5 v=73
36170 On ch=1 n=c4 v=0
36175 On ch=1 n=c3 v=0
36200 On ch=1 n=g#5 v=0
36205 On ch=1 n=d#6 v=0
36205 On ch=1 n=d#5 v=0
36240 Par ch=1 c=64 v=40
36255 Par ch=1 c=64 v=0
36265 On ch=1 n=d#5 v=85
36265 On ch=1 n=c#6 v=92
36265 On ch=1 n=g#5 v=79
36270 On ch=1 n=a#3 v=92
36275 On ch=1 n=a#2 v=81
36310 Par ch=1 c=64 v=40
36320 On ch=1 n=a#2 v=0
36320 On ch=1 n=a#3 v=0
36330 Par ch=1 c=64 v=127
36355 On ch=1 n=c#6 v=0
36360 On ch=1 n=d#5 v=0
36375 On ch=1 n=g#5 v=0
36505 Par ch=1 c=64 v=104
36525 Par ch=1 c=64 v=72
36540 Par ch=1 c=64 v=24
36560 Par ch=1 c=64 v=0
36705 On ch=1 n=c#6 v=90
36705 On ch=1 n=a#4 v=83
36705 On ch=1 n=g5 v=85
36735 On ch=1 n=d#4 v=93
36735 On ch=1 n=d#3 v=70
36755 Par ch=1 c=64 v=88
36770 Par ch=1 c=64 v=127
36790 On ch=1 n=a#4 v=0
36795 On ch=1 n=d#4 v=0
36810 On ch=1 n=d#3 v=0
36825 On ch=1 n=g5 v=0
36860 On ch=1 n=c#6 v=0
37090 Par ch=1 c=64 v=104
37110 Par ch=1 c=64 v=40
37125 Par ch=1 c=64 v=0
37175 On ch=1 n=c6 v=92
37180 On ch=1 n=c5 v=92
37180 On ch=1 n=g#5 v=76
37185 On ch=1 n=g#3 v=76
37190 On ch=1 n=g#2 v=73
37230 Par ch=1 c=64 v=72
37240 On ch=1 n=c5 v=0
37250 Par ch=1 c=64 v=127
37260 On ch=1 n=g#3 v=0
37265 On ch=1 n=g#2 v=0
37270 On ch=1 n=c6 v=0
37300 On ch=1 n=g#5 v=0
37500 On ch=1 n=a#3 v=82
37500 On ch=1 n=c#6 v=83
37500 On ch=1 n=c#5 v=77
37500 On ch=1 n=a#2 v=68
37515 On ch=1 n=g#5 v=55
37530 On ch=1 n=a#3 v=0
37535 On ch=1 n=a#2 v=0
37545 On ch=1 n=g#5 v=0
37550 On ch=1 n=c#5 v=0
37550 On ch=1 n=c#6 v=0
37590 Par ch=1 c=64 v=24
37605 Par ch=1 c=64 v=0
37615 On ch=1 n=d#6 v=95
37620 On ch=1 n=d#5 v=92
37620 On ch=1 n=g#5 v=69
37640 On ch=1 n=c#6 v=39
37645 Par ch=1 c=64 v=24
37650 On ch=1 n=c4 v=81
37655 Par ch=1 c=64 v=72
37660 On ch=1 n=c3 v=65
37670 On ch=1 n=c#6 v=0
37675 Par ch=1 c=64 v=127
37680 On ch=1 n=c4 v=0
37690 On ch=1 n=c3 v=0
37690 On ch=1 n=g#5 v=0
37690 On ch=1 n=d#5 v=0
37730 On ch=1 n=d#6 v=0
37960 Par ch=1 c=64 v=88
37980 Par ch=1 c=64 v=40
37995 Par ch=1 c=64 v=0
38075 On ch=1 n=d#5 v=97
38075 On ch=1 n=d#6 v=99
38085 On ch=1 n=g#5 v=82
38090 On ch=1 n=c4 v=84
38095 On ch=1 n=c5 v=74
38095 On ch=1 n=g#4 v=71
38140 Par ch=1 c=64 v=40
38155 Par ch=1 c=64 v=104
38175 On ch=1 n=c4 v=0
38175 Par ch=1 c=64 v=127
38190 On ch=1 n=c5 v=0
38210 On ch=1 n=d#5 v=0
38250 On ch=1 n=g#4 v=0
38260 On ch=1 n=g#5 v=0
38275 On ch=1 n=d#6 v=0
38475 Par ch=1 c=64 v=88
38490 Par ch=1 c=64 v=0
38530 On ch=1 n=f6 v=100
38535 On ch=1 n=f5 v=96
38535 On ch=1 n=c#4 v=80
38535 On ch=1 n=c#5 v=81
38535 On ch=1 n=g#5 v=86
38535 On ch=1 n=g#4 v=73
38585 Par ch=1 c=64 v=40
38600 On ch=1 n=c#5 v=0
38600 Par ch=1 c=64 v=127
38610 On ch=1 n=c#4 v=0
38620 On ch=1 n=g#4 v=0
38670 On ch=1 n=f5 v=0
38680 On ch=1 n=f6 v=0
38735 On ch=1 n=g#5 v=0
38850 On ch=1 n=g#4 v=80
38865 On ch=1 n=d#5 v=88
38865 On ch=1 n=d#6 v=94
38865 On ch=1 n=c4 v=72
38865 On ch=1 n=c5 v=60
38870 On ch=1 n=g#5 v=67
38895 On ch=1 n=c5 v=0
38895 On ch=1 n=c4 v=0
38900 On ch=1 n=g#5 v=0
38915 On ch=1 n=d#5 v=0
38920 On ch=1 n=d#6 v=0
38920 On ch=1 n=g#4 v=0
38955 Par ch=1 c=64 v=56
38975 On ch=1 n=g#4 v=76
38975 Par ch=1 c=64 v=0
38980 On ch=1 n=f5 v=97
38980 On ch=1 n=f6 v=107
38980 On ch=1 n=g#5 v=83
38985 On ch=1 n=c#5 v=77
38985 On ch=1 n=c#4 v=69
39020 On ch=1 n=c#4 v=0
39025 Par ch=1 c=64 v=24
39040 On ch=1 n=c#5 v=0
39045 Par ch=1 c=64 v=88
39050 On ch=1 n=g#5 v=0
39050 On ch=1 n=g#4 v=0
39060 Par ch=1 c=64 v=127
39070 On ch=1 n=f5 v=0
39115 On ch=1 n=f6 v=0
39305 On ch=1 n=c#4 v=65
39315 On ch=1 n=d#4 v=80
39325 Par ch=1 c=64 v=104
39345 Par ch=1 c=64 v=0
39405 On ch=1 n=c#4 v=0
39420 On ch=1 n=g6 v=103
39430 On ch=1 n=g5 v=93
39430 On ch=1 n=a#5 v=85
39430 On ch=1 n=d#6 v=83
39430 On ch=1 n=d#5 v=100
39445 On ch=1 n=g#4 v=54
39455 Par ch=1 c=64 v=88
39470 Par ch=1 c=64 v=127
39490 On ch=1 n=d#5 v=0
39500 On ch=1 n=g#4 v=0
39500 On ch=1 n=d#4 v=0
39505 On ch=1 n=g5 v=0
39520 On ch=1 n=a#5 v=0
39550 On ch=1 n=d#6 v=0
39550 On ch=1 n=g6 v=0
39740 On ch=1 n=c4 v=79
39775 On ch=1 n=d#4 v=74
39810 Par ch=1 c=64 v=24
39820 On ch=1 n=c4 v=0
39825 Par ch=1 c=64 v=0
39890 On ch=1 n=d#5 v=92
39895 On ch=1 n=g#6 v=105
39905 On ch=1 n=d#4 v=0
39905 On ch=1 n=g#5 v=89
39905 On ch=1 n=d#6 v=85
39915 On ch=1 n=c6 v=86
39915 Par ch=1 c=64 v=127
39920 On ch=1 n=g#4 v=54
39940 On ch=1 n=d#5 v=0
39945 On ch=1 n=g#4 v=0
40055 On ch=1 n=c6 v=0
40080 On ch=1 n=g#5 v=0
40100 On ch=1 n=g#6 v=0
40135 On ch=1 n=d#6 v=0
40230 On ch=1 n=g6 v=97
40240 On ch=1 n=g5 v=72
40240 On ch=1 n=d#6 v=65
40250 On ch=1 n=c6 v=77
40280 On ch=1 n=c6 v=0
40280 On ch=1 n=g5 v=0
40290 On ch=1 n=g6 v=0
40305 On ch=1 n=d#6 v=0
40350 On ch=1 n=g#6 v=107
40350 On ch=1 n=d#6 v=83
40355 On ch=1 n=g#5 v=88
40360 On ch=1 n=c6 v=84
40425 On ch=1 n=c6 v=0
40425 On ch=1 n=g#5 v=0
40440 On ch=1 n=d#6 v=0
40460 On ch=1 n=g#6 v=0
40750 Par ch=1 c=64 v=88
40765 Par ch=1 c=64 v=0
40790 On ch=1 n=d#5 v=95
40795 On ch=1 n=d#6 v=96
40800 On ch=1 n=g#5 v=84
40815 On ch=1 n=c4 v=100
40820 On ch=1 n=c3 v=83
40890 Par ch=1 c=64 v=88
40910 Par ch=1 c=64 v=127
40915 On ch=1 n=d#5 v=0
40935 On ch=1 n=c3 v=0
40945 On ch=1 n=g#5 v=0
40985 On ch=1 n=c4 v=0
41090 On ch=1 n=d#6 v=0
41230 Par ch=1 c=64 v=104
41235 On ch=1 n=f6 v=97
41240 On ch=1 n=f5 v=90
41240 On ch=1 n=g#5 v=86
41245 On ch=1 n=c#4 v=96
41245 Par ch=1 c=64 v=0
41250 On ch=1 n=c#3 v=82
41320 On ch=1 n=c#4 v=0
41335 On ch=1 n=c#3 v=0
41335 Par ch=1 c=64 v=56
41345 On ch=1 n=f6 v=0
41350 Par ch=1 c=64 v=127
41370 On ch=1 n=f5 v=0
41400 On ch=1 n=g#5 v=0
41590 On ch=1 n=d#5 v=83
41595 On ch=1 n=d#6 v=90
41600 On ch=1 n=c4 v=65
41600 On ch=1 n=g#5 v=71
41600 On ch=1 n=c3 v=43
41620 Par ch=1 c=64 v=104
41625 On ch=1 n=c4 v=0
41630 On ch=1 n=g#5 v=0
41635 Par ch=1 c=64 v=0
41640 On ch=1 n=c3 v=0
41640 On ch=1 n=d#6 v=0
41645 On ch=1 n=d#5 v=0
41670 Par ch=1 c=64 v=40
41690 Par ch=1 c=64 v=104
41700 On ch=1 n=a#3 v=93
41705 On ch=1 n=d#5 v=86
41705 On ch=1 n=a#2 v=85
41705 On ch=1 n=c#6 v=96
41705 Par ch=1 c=64 v=127
41715 On ch=1 n=g#5 v=81
41750 On ch=1 n=a#2 v=0
41750 On ch=1 n=a#3 v=0
41800 On ch=1 n=c#6 v=0
41800 On ch=1 n=d#5 v=0
41820 On ch=1 n=g#5 v=0
41905 Par ch=1 c=64 v=88
41920 Par ch=1 c=64 v=40
41940 Par ch=1 c=64 v=0
42165 On ch=1 n=c#6 v=95
42165 On ch=1 n=a#4 v=86
42170 On ch=1 n=g5 v=86
42185 On ch=1 n=d#4 v=99
42185 On ch=1 n=d#3 v=73
42185 Par ch=1 c=64 v=40
42205 Par ch=1 c=64 v=127
42245 On ch=1 n=d#4 v=0
42255 On ch=1 n=d#3 v=0
42275 On ch=1 n=a#4 v=0
42340 On ch=1 n=g5 v=0
42420 On ch=1 n=c#6 v=0
42435 Par ch=1 c=64 v=24
42455 On ch=1 n=g#2 v=77
42455 Par ch=1 c=64 v=0
42500 On ch=1 n=g#3 v=85
42525 Par ch=1 c=64 v=72
42540 On ch=1 n=g#2 v=0
42540 Par ch=1 c=64 v=127
42560 On ch=1 n=g#3 v=0
42725 On ch=1 n=c6 v=103
42730 On ch=1 n=g#5 v=83
42730 On ch=1 n=c5 v=96
42750 On ch=1 n=g#4 v=94
42755 Par ch=1 c=64 v=104
42775 Par ch=1 c=64 v=0
42795 On ch=1 n=g#4 v=0
42825 Par ch=1 c=64 v=24
42845 Par ch=1 c=64 v=104
42860 On ch=1 n=c5 v=0
42860 Par ch=1 c=64 v=127
42915 On ch=1 n=g#5 v=0
42960 On ch=1 n=c6 v=0
43570 Par ch=1 c=64 v=88
43590 Par ch=1 c=64 v=56
43610 Par ch=1 c=64 v=24
43625 Par ch=1 c=64 v=0
43680 On ch=1 n=d#6 v=82
43680 On ch=1 n=d#5 v=82
43680 On ch=1 n=d#4 v=79
43680 On ch=1 n=d#3 v=60
43680 Par ch=1 c=64 v=120
43690 On ch=1 n=d#3 v=0
43695 On ch=1 n=d#5 v=0
43700 On ch=1 n=d#4 v=0
43715 On ch=1 n=d#6 v=0
43925 On ch=1 n=d#6 v=100
43925 On ch=1 n=d#3 v=68
43925 On ch=1 n=d#4 v=80
43925 On ch=1 n=d#5 v=90
43950 On ch=1 n=d#3 v=0
43965 On ch=1 n=d#5 v=0
43965 On ch=1 n=d#4 v=0
43980 On ch=1 n=d#6 v=0
44170 On ch=1 n=d#7 v=95
44170 On ch=1 n=d#6 v=91
44180 On ch=1 n=d#5 v=77
44195 On ch=1 n=d#4 v=62
44220 On ch=1 n=d#6 v=0
44250 On ch=1 n=d#4 v=0
44250 On ch=1 n=d#5 v=0
44260 On ch=1 n=d#7 v=0
44440 On ch=1 n=d#7 v=95
44445 On ch=1 n=d#6 v=89
44445 On ch=1 n=d#5 v=64
44450 On ch=1 n=d#4 v=61
44505 On ch=1 n=d#4 v=0
44505 On ch=1 n=d#6 v=0
44565 On ch=1 n=d#5 v=0
44575 On ch=1 n=d#7 v=0
44700 On ch=1 n=d#5 v=72
44705 On ch=1 n=d#7 v=97
44705 On ch=1 n=d#6 v=85
44755 On ch=1 n=d#6 v=0
44780 On ch=1 n=d#5 v=0
44785 On ch=1 n=d#7 v=0
44830 On ch=1 n=f7 v=92
44835 On ch=1 n=f5 v=56
44840 On ch=1 n=f6 v=81
44880 On ch=1 n=f6 v=0
44895 On ch=1 n=f7 v=0
44900 On ch=1 n=f5 v=0
44960 On ch=1 n=d#7 v=81
44960 On ch=1 n=d#5 v=55
44960 On ch=1 n=d#6 v=82
45005 On ch=1 n=d#6 v=0
45015 On ch=1 n=d#7 v=0
45040 On ch=1 n=d#5 v=0
45075 On ch=1 n=c5 v=62
45085 On ch=1 n=c7 v=82
45095 On ch=1 n=c6 v=70
45115 On ch=1 n=c6 v=0
45115 On ch=1 n=c7 v=0
45210 On ch=1 n=g#6 v=85
45215 On ch=1 n=g#4 v=60
45220 On ch=1 n=g#5 v=80
45225 On ch=1 n=c5 v=0
45255 On ch=1 n=g#5 v=0
45265 On ch=1 n=g#4 v=0
45265 On ch=1 n=g#6 v=0
45470 On ch=1 n=d#4 v=71
45550 On ch=1 n=d#4 v=0
45580 Par ch=1 c=64 v=104
45595 Par ch=1 c=64 v=88
45600 On ch=1 n=f4 v=61
45610 Par ch=1 c=64 v=72
45620 Par ch=1 c=64 v=56
45635 Par ch=1 c=64 v=40
45650 Par ch=1 c=64 v=24
45665 Par ch=1 c=64 v=0
45670 On ch=1 n=f4 v=0
45720 On ch=1 n=d#4 v=62
45745 On ch=1 n=d#5 v=67
45810 On ch=1 n=d#4 v=0
45840 On ch=1 n=d#5 v=0
45860 On ch=1 n=f5 v=67
45860 On ch=1 n=c4 v=64
45940 On ch=1 n=f5 v=0
45970 On ch=1 n=g#3 v=62
45975 On ch=1 n=c4 v=0
45975 On ch=1 n=d#5 v=64
46020 On ch=1 n=g#3 v=0
46065 On ch=1 n=d#5 v=0
46105 On ch=1 n=c5 v=74
46230 On ch=1 n=c5 v=0
46240 On ch=1 n=g#4 v=72
46260 On ch=1 n=g#3 v=46
46270 On ch=1 n=g#2 v=35
46270 Par ch=1 c=64 v=24
46285 Par ch=1 c=64 v=72
46295 On ch=1 n=g#2 v=0
46295 On ch=1 n=g#3 v=0
46295 On ch=1 n=g#4 v=0
46300 Par ch=1 c=64 v=127
46510 On ch=1 n=d#6 v=74
46515 On ch=1 n=c5 v=58
46525 On ch=1 n=d#4 v=46
46525 On ch=1 n=g#4 v=40
46545 On ch=1 n=c5 v=0
46555 On ch=1 n=g#4 v=0
46560 On ch=1 n=d#4 v=0
46590 On ch=1 n=d#6 v=0
46635 On ch=1 n=f6 v=70
46690 On ch=1 n=f6 v=0
46695 Par ch=1 c=64 v=104
46720 Par ch=1 c=64 v=88
46735 On ch=1 n=g#3 v=51
46735 Par ch=1 c=64 v=72
46750 On ch=1 n=d#6 v=69
46760 Par ch=1 c=64 v=56
46790 Par ch=1 c=64 v=40
46800 On ch=1 n=g#3 v=0
46815 Par ch=1 c=64 v=24
46840 On ch=1 n=d#6 v=0
46880 On ch=1 n=c6 v=73
46895 Par ch=1 c=64 v=0
47010 On ch=1 n=c6 v=0
47015 On ch=1 n=g#5 v=74
47030 On ch=1 n=c#5 v=69
47055 On ch=1 n=g#4 v=48
47060 On ch=1 n=f4 v=53
47075 On ch=1 n=c#5 v=0
47075 Par ch=1 c=64 v=56
47080 On ch=1 n=g#4 v=0
47085 On ch=1 n=f4 v=0
47085 Par ch=1 c=64 v=104
47100 Par ch=1 c=64 v=127
47145 On ch=1 n=g#5 v=0
47290 On ch=1 n=g#3 v=51
47295 On ch=1 n=g#6 v=69
47335 On ch=1 n=g#3 v=0
47375 On ch=1 n=g#6 v=0
47415 On ch=1 n=a#6 v=73
47480 On ch=1 n=a#6 v=0
47525 On ch=1 n=g#6 v=77
47525 On ch=1 n=c#5 v=42
47555 On ch=1 n=c#5 v=0
47610 On ch=1 n=g#6 v=0
47615 Par ch=1 c=64 v=104
47635 On ch=1 n=f6 v=76
47645 Par ch=1 c=64 v=88
47655 Par ch=1 c=64 v=72
47670 Par ch=1 c=64 v=56
47685 Par ch=1 c=64 v=24
47700 Par ch=1 c=64 v=0
47740 On ch=1 n=f6 v=0
47770 On ch=1 n=d6 v=88
47785 On ch=1 n=g#3 v=42
47805 Par ch=1 c=64 v=40
47820 On ch=1 n=d6 v=0
47820 Par ch=1 c=64 v=104
47835 On ch=1 n=g#3 v=0
47835 Par ch=1 c=64 v=127
48040 On ch=1 n=d#6 v=74
48040 On ch=1 n=c5 v=52
48055 On ch=1 n=d#4 v=39
48055 On ch=1 n=g#4 v=40
48070 On ch=1 n=c5 v=0
48080 On ch=1 n=g#4 v=0
48100 On ch=1 n=d#4 v=0
48115 On ch=1 n=d#6 v=0
48155 On ch=1 n=f6 v=81
48230 On ch=1 n=f6 v=0
48240 On ch=1 n=d#6 v=72
48250 On ch=1 n=g#3 v=55
48350 On ch=1 n=c6 v=74
48370 On ch=1 n=d#6 v=0
48400 On ch=1 n=c6 v=0
48405 On ch=1 n=g#3 v=0
48455 Par ch=1 c=64 v=56
48465 On ch=1 n=c6 v=66
48470 Par ch=1 c=64 v=0
48495 On ch=1 n=d#4 v=56
48520 On ch=1 n=g#5 v=67
48535 On ch=1 n=c6 v=0
48590 On ch=1 n=d#4 v=0
48590 Par ch=1 c=64 v=40
48595 On ch=1 n=g#5 v=0
48605 Par ch=1 c=64 v=56
48615 Par ch=1 c=64 v=88
48635 On ch=1 n=f4 v=53
48685 Par ch=1 c=64 v=72
48705 On ch=1 n=f4 v=0
48715 Par ch=1 c=64 v=56
48730 Par ch=1 c=64 v=40
48750 On ch=1 n=d#4 v=52
48755 On ch=1 n=d#5 v=71
48755 Par ch=1 c=64 v=24
48780 Par ch=1 c=64 v=0
48840 On ch=1 n=d#5 v=0
48840 On ch=1 n=d#4 v=0
48870 On ch=1 n=f5 v=79
48885 On ch=1 n=c4 v=63
48945 On ch=1 n=f5 v=0
48990 On ch=1 n=c4 v=0
48990 On ch=1 n=d#5 v=71
49005 On ch=1 n=g#3 v=46
49035 On ch=1 n=g#3 v=0
49080 On ch=1 n=d#5 v=0
49115 On ch=1 n=c5 v=75
49220 On ch=1 n=c5 v=0
49245 On ch=1 n=g#4 v=73
49265 On ch=1 n=g#3 v=46
49270 On ch=1 n=g#2 v=42
49280 Par ch=1 c=64 v=40
49290 On ch=1 n=g#2 v=0
49290 On ch=1 n=g#3 v=0
49295 On ch=1 n=g#4 v=0
49300 Par ch=1 c=64 v=72
49310 Par ch=1 c=64 v=104
49325 Par ch=1 c=64 v=127
49525 On ch=1 n=d#6 v=77
49540 On ch=1 n=g#4 v=47
49545 On ch=1 n=c5 v=54
49555 On ch=1 n=d#4 v=39
49565 On ch=1 n=g#4 v=0
49570 On ch=1 n=c5 v=0
49585 On ch=1 n=d#4 v=0
49595 Par ch=1 c=64 v=104
49600 On ch=1 n=d#6 v=0
49635 On ch=1 n=f6 v=85
49710 On ch=1 n=f6 v=0
49735 On ch=1 n=d#6 v=74
49745 Par ch=1 c=64 v=88
49765 On ch=1 n=g#3 v=58
49820 On ch=1 n=g#3 v=0
49850 On ch=1 n=c6 v=87
49855 On ch=1 n=d#6 v=0
49890 On ch=1 n=c6 v=0
49905 Par ch=1 c=64 v=72
49960 Par ch=1 c=64 v=24
49965 On ch=1 n=c6 v=76
49975 Par ch=1 c=64 v=0
50020 On ch=1 n=c#5 v=43
50030 On ch=1 n=a5 v=80
50030 On ch=1 n=d#4 v=38
50035 On ch=1 n=f#4 v=43
50040 On ch=1 n=c6 v=0
50070 On ch=1 n=d#4 v=0
50090 On ch=1 n=c#5 v=0
50095 Par ch=1 c=64 v=40
50110 Par ch=1 c=64 v=72
50115 On ch=1 n=f#4 v=0
50125 Par ch=1 c=64 v=88
50135 Par ch=1 c=64 v=104
50190 On ch=1 n=a5 v=0
50190 Par ch=1 c=64 v=127
50305 On ch=1 n=g#3 v=43
50315 On ch=1 n=a#5 v=72
50335 On ch=1 n=g#3 v=0
50390 On ch=1 n=a#5 v=0
50425 On ch=1 n=c6 v=77
50450 Par ch=1 c=64 v=88
50465 Par ch=1 c=64 v=56
50475 Par ch=1 c=64 v=0
50500 On ch=1 n=c6 v=0
50535 On ch=1 n=a#5 v=61
50555 Par ch=1 c=64 v=24
50560 On ch=1 n=g4 v=49
50560 On ch=1 n=c#5 v=34
50570 On ch=1 n=d#4 v=35
50570 Par ch=1 c=64 v=56
50585 On ch=1 n=c#5 v=0
50585 On ch=1 n=g4 v=0
50585 Par ch=1 c=64 v=88
50600 On ch=1 n=d#4 v=0
50600 Par ch=1 c=64 v=104
50615 Par ch=1 c=64 v=127
50635 On ch=1 n=a#5 v=0
50660 On ch=1 n=g5 v=72
50695 On ch=1 n=g5 v=0
50760 On ch=1 n=g5 v=70
50775 Par ch=1 c=64 v=72
50785 Par ch=1 c=64 v=24
50800 Par ch=1 c=64 v=0
50835 On ch=1 n=d5 v=74
50835 On ch=1 n=g#3 v=48
50850 On ch=1 n=g5 v=0
50900 On ch=1 n=g#3 v=0
50910 Par ch=1 c=64 v=40
50925 Par ch=1 c=64 v=72
50940 Par ch=1 c=64 v=88
50950 Par ch=1 c=64 v=104
50965 Par ch=1 c=64 v=127
51015 On ch=1 n=d5 v=0
51030 Par ch=1 c=64 v=56
51045 Par ch=1 c=64 v=0
51100 Par ch=1 c=64 v=24
51110 On ch=1 n=d#5 v=68
51115 On ch=1 n=c5 v=54
51115 Par ch=1 c=64 v=56
51120 On ch=1 n=d#4 v=45
51120 On ch=1 n=g#4 v=35
51125 Par ch=1 c=64 v=88
51140 On ch=1 n=c5 v=0
51140 Par ch=1 c=64 v=104
51150 On ch=1 n=g#4 v=0
51150 On ch=1 n=d#4 v=0
51155 Par ch=1 c=64 v=127
51190 On ch=1 n=d#5 v=0
51220 On ch=1 n=f5 v=76
51295 On ch=1 n=f5 v=0
51345 On ch=1 n=d#5 v=64
51345 Par ch=1 c=64 v=104
51360 On ch=1 n=g#3 v=47
51400 Par ch=1 c=64 v=88
51425 On ch=1 n=d#5 v=0
51440 On ch=1 n=g#3 v=0
51440 Par ch=1 c=64 v=72
51470 On ch=1 n=c5 v=78
51515 On ch=1 n=c5 v=0
51560 Par ch=1 c=64 v=40
51565 On ch=1 n=c5 v=76
51575 Par ch=1 c=64 v=24
51590 Par ch=1 c=64 v=0
51605 On ch=1 n=d#4 v=53
51620 On ch=1 n=g#4 v=65
51635 On ch=1 n=c5 v=0
51695 On ch=1 n=d#4 v=0
51710 On ch=1 n=g#4 v=0
51710 Par ch=1 c=64 v=40
51725 Par ch=1 c=64 v=88
51735 Par ch=1 c=64 v=127
51745 On ch=1 n=f4 v=56
51825 On ch=1 n=f4 v=0
51870 On ch=1 n=d#4 v=60
51875 Par ch=1 c=64 v=72
51880 On ch=1 n=d#5 v=72
51885 Par ch=1 c=64 v=0
51950 On ch=1 n=d#4 v=0
51980 Par ch=1 c=64 v=24
51985 On ch=1 n=d#5 v=0
51990 On ch=1 n=c4 v=70
51990 On ch=1 n=f5 v=73
51995 Par ch=1 c=64 v=40
52010 Par ch=1 c=64 v=56
52020 Par ch=1 c=64 v=72
52055 On ch=1 n=f5 v=0
52090 Par ch=1 c=64 v=56
52095 On ch=1 n=c4 v=0
52095 On ch=1 n=d#5 v=76
52100 On ch=1 n=g#3 v=60
52145 On ch=1 n=g#3 v=0
52145 Par ch=1 c=64 v=40
52185 Par ch=1 c=64 v=24
52190 On ch=1 n=d#5 v=0
52225 Par ch=1 c=64 v=0
52230 On ch=1 n=c5 v=82
52350 On ch=1 n=c5 v=0
52365 On ch=1 n=g#4 v=82
52410 On ch=1 n=g#2 v=51
52420 On ch=1 n=g#4 v=0
52430 Par ch=1 c=64 v=40
52440 Par ch=1 c=64 v=72
52455 Par ch=1 c=64 v=88
52470 Par ch=1 c=64 v=104
52480 Par ch=1 c=64 v=127
52485 On ch=1 n=g#2 v=0
52640 On ch=1 n=d#6 v=76
52670 On ch=1 n=d#5 v=46
52675 On ch=1 n=c5 v=48
52675 On ch=1 n=g#4 v=39
52700 On ch=1 n=g#4 v=0
52700 On ch=1 n=c5 v=0
52700 On ch=1 n=d#5 v=0
52715 On ch=1 n=d#6 v=0
52750 On ch=1 n=f6 v=82
52820 On ch=1 n=f6 v=0
52860 On ch=1 n=d#6 v=85
52960 On ch=1 n=d#6 v=0
52980 On ch=1 n=c6 v=86
53065 Par ch=1 c=64 v=88
53080 Par ch=1 c=64 v=40
53095 Par ch=1 c=64 v=0
53110 On ch=1 n=c6 v=0
53120 On ch=1 n=g#5 v=83
53130 On ch=1 n=c#5 v=58
53140 On ch=1 n=g#4 v=55
53145 On ch=1 n=f4 v=56
53170 On ch=1 n=f4 v=0
53180 On ch=1 n=c#5 v=0
53185 On ch=1 n=g#4 v=0
53190 Par ch=1 c=64 v=56
53200 Par ch=1 c=64 v=127
53225 On ch=1 n=g#5 v=0
53375 On ch=1 n=g#3 v=51
53390 On ch=1 n=g#6 v=73
53420 On ch=1 n=g#3 v=0
53470 On ch=1 n=g#6 v=0
53500 On ch=1 n=a#6 v=73
53570 On ch=1 n=a#6 v=0
53620 On ch=1 n=g#6 v=73
53625 On ch=1 n=c#5 v=52
53640 On ch=1 n=g#4 v=42
53650 On ch=1 n=c#5 v=0
53650 On ch=1 n=f4 v=42
53665 On ch=1 n=g#4 v=0
53675 On ch=1 n=f4 v=0
53700 On ch=1 n=g#6 v=0
53700 Par ch=1 c=64 v=104
53715 Par ch=1 c=64 v=88
53730 Par ch=1 c=64 v=72
53735 On ch=1 n=f6 v=82
53745 Par ch=1 c=64 v=56
53760 Par ch=1 c=64 v=40
53770 Par ch=1 c=64 v=24
53785 Par ch=1 c=64 v=0
53850 On ch=1 n=f6 v=0
53880 On ch=1 n=d6 v=84
53880 On ch=1 n=g#3 v=58
53905 Par ch=1 c=64 v=24
53920 Par ch=1 c=64 v=88
53935 Par ch=1 c=64 v=127
53940 On ch=1 n=g#3 v=0
53940 On ch=1 n=d6 v=0
54140 On ch=1 n=d#6 v=73
54150 On ch=1 n=c5 v=50
54155 On ch=1 n=d#4 v=42
54180 On ch=1 n=c5 v=0
54190 On ch=1 n=d#4 v=0
54220 On ch=1 n=d#6 v=0
54255 On ch=1 n=f6 v=76
54340 On ch=1 n=f6 v=0
54365 On ch=1 n=d#6 v=65
54365 On ch=1 n=g#3 v=45
54480 On ch=1 n=d#6 v=0
54500 On ch=1 n=c6 v=66
54515 Par ch=1 c=64 v=72
54520 On ch=1 n=g#3 v=0
54530 Par ch=1 c=64 v=24
54545 Par ch=1 c=64 v=0
54560 On ch=1 n=c6 v=0
54580 On ch=1 n=c6 v=76
54600 On ch=1 n=d#4 v=55
54635 On ch=1 n=g#5 v=65
54650 Par ch=1 c=64 v=40
54655 On ch=1 n=c6 v=0
54665 Par ch=1 c=64 v=88
54680 Par ch=1 c=64 v=104
54700 On ch=1 n=g#5 v=0
54700 On ch=1 n=d#4 v=0
54750 On ch=1 n=f4 v=47
54785 Par ch=1 c=64 v=88
54815 On ch=1 n=f4 v=0
54830 Par ch=1 c=64 v=40
54845 Par ch=1 c=64 v=0
54865 On ch=1 n=d#4 v=50
54865 On ch=1 n=d#5 v=70
54935 Par ch=1 c=64 v=24
54950 On ch=1 n=d#5 v=0
54950 On ch=1 n=d#4 v=0
54950 Par ch=1 c=64 v=40
54965 Par ch=1 c=64 v=56
54975 On ch=1 n=f5 v=74
54990 On ch=1 n=c4 v=66
55050 On ch=1 n=f5 v=0
55070 Par ch=1 c=64 v=40
55095 On ch=1 n=c4 v=0
55095 On ch=1 n=d#5 v=67
55105 On ch=1 n=g#3 v=51
55130 On ch=1 n=g#3 v=0
55155 Par ch=1 c=64 v=0
55185 On ch=1 n=d#5 v=0
55215 On ch=1 n=c5 v=73
55330 On ch=1 n=c5 v=0
55355 On ch=1 n=g#4 v=65
55365 On ch=1 n=g#2 v=56
55370 On ch=1 n=g#3 v=48
55370 Par ch=1 c=64 v=24
55385 Par ch=1 c=64 v=72
55395 On ch=1 n=g#4 v=0
55395 Par ch=1 c=64 v=104
55405 On ch=1 n=g#2 v=0
55410 On ch=1 n=g#3 v=0
55410 Par ch=1 c=64 v=127
55610 On ch=1 n=d#6 v=73
55630 Par ch=1 c=64 v=88
55635 On ch=1 n=c5 v=55
55640 On ch=1 n=g#4 v=38
55645 On ch=1 n=d#4 v=44
55665 On ch=1 n=g#4 v=0
55665 On ch=1 n=c5 v=0
55685 On ch=1 n=d#4 v=0
55700 On ch=1 n=d#6 v=0
55725 On ch=1 n=f6 v=81
55780 Par ch=1 c=64 v=72
55810 On ch=1 n=f6 v=0
55820 Par ch=1 c=64 v=56
55825 On ch=1 n=d#6 v=50
55835 On ch=1 n=g#3 v=51
55910 On ch=1 n=g#3 v=0
55930 On ch=1 n=c6 v=79
55955 On ch=1 n=d#6 v=0
55965 Par ch=1 c=64 v=40
55980 Par ch=1 c=64 v=24
55985 On ch=1 n=c6 v=0
55995 Par ch=1 c=64 v=0
56045 On ch=1 n=c6 v=75
56110 On ch=1 n=a5 v=73
56120 On ch=1 n=d#4 v=57
56120 On ch=1 n=c#5 v=45
56140 On ch=1 n=c6 v=0
56160 Par ch=1 c=64 v=40
56170 Par ch=1 c=64 v=72
56185 Par ch=1 c=64 v=88
56190 On ch=1 n=c#5 v=0
56195 On ch=1 n=a5 v=0
56205 On ch=1 n=d#4 v=0
56225 Par ch=1 c=64 v=104
56320 Par ch=1 c=64 v=88
56355 On ch=1 n=g#3 v=52
56365 On ch=1 n=a#5 v=74
56415 On ch=1 n=g#3 v=0
56415 Par ch=1 c=64 v=72
56445 On ch=1 n=a#5 v=0
56470 Par ch=1 c=64 v=56
56485 Par ch=1 c=64 v=40
56490 On ch=1 n=c6 v=76
56495 Par ch=1 c=64 v=24
56510 Par ch=1 c=64 v=0
56555 On ch=1 n=c6 v=0
56600 On ch=1 n=a#5 v=70
56625 On ch=1 n=c#5 v=39
56630 On ch=1 n=d#4 v=51
56635 On ch=1 n=g4 v=41
56645 Par ch=1 c=64 v=40
56650 On ch=1 n=c#5 v=0
56660 Par ch=1 c=64 v=56
56665 On ch=1 n=g4 v=0
56665 On ch=1 n=d#4 v=0
56670 Par ch=1 c=64 v=72
56705 On ch=1 n=a#5 v=0
56715 On ch=1 n=g5 v=73
56770 On ch=1 n=g5 v=0
56835 Par ch=1 c=64 v=24
56840 On ch=1 n=g5 v=66
56850 Par ch=1 c=64 v=0
56865 On ch=1 n=d5 v=64
56875 On ch=1 n=g#3 v=50
56935 On ch=1 n=g#3 v=0
56945 On ch=1 n=g5 v=0
56970 Par ch=1 c=64 v=40
56985 Par ch=1 c=64 v=72
57000 On ch=1 n=d5 v=0
57000 Par ch=1 c=64 v=104
57010 Par ch=1 c=64 v=127
57080 Par ch=1 c=64 v=88
57095 Par ch=1 c=64 v=72
57105 Par ch=1 c=64 v=56
57125 On ch=1 n=d#5 v=75
57125 On ch=1 n=c5 v=56
57130 On ch=1 n=g#4 v=44
57130 On ch=1 n=d#4 v=48
57145 Par ch=1 c=64 v=88
57155 On ch=1 n=c5 v=0
57160 On ch=1 n=g#4 v=0
57180 On ch=1 n=d#4 v=0
57200 On ch=1 n=d#5 v=0
57200 Par ch=1 c=64 v=104
57230 On ch=1 n=f5 v=82
57280 Par ch=1 c=64 v=88
57315 On ch=1 n=f5 v=0
57340 On ch=1 n=g#3 v=51
57340 On ch=1 n=d#5 v=69
57430 On ch=1 n=d#5 v=0
57455 On ch=1 n=g#3 v=0
57470 On ch=1 n=c5 v=68
57540 Par ch=1 c=64 v=72
57550 On ch=1 n=c5 v=0
57555 Par ch=1 c=64 v=56
57565 Par ch=1 c=64 v=40
57580 Par ch=1 c=64 v=0
57600 On ch=1 n=c#4 v=70
57600 On ch=1 n=c#5 v=94
57665 On ch=1 n=c#4 v=0
57670 On ch=1 n=c#5 v=0
57675 Par ch=1 c=64 v=40
57690 Par ch=1 c=64 v=88
57705 Par ch=1 c=64 v=127
57880 Par ch=1 c=64 v=88
57885 On ch=1 n=c#7 v=92
57885 On ch=1 n=c#6 v=83
57890 Par ch=1 c=64 v=0
57910 On ch=1 n=c#4 v=59
57910 On ch=1 n=c#5 v=52
57950 On ch=1 n=c#6 v=0
57960 Par ch=1 c=64 v=24
57975 Par ch=1 c=64 v=72
57980 On ch=1 n=c#4 v=0
57985 Par ch=1 c=64 v=127
57995 On ch=1 n=c#5 v=0
58005 On ch=1 n=c#7 v=0
58125 Par ch=1 c=64 v=104
58135 On ch=1 n=c#7 v=95
58135 Par ch=1 c=64 v=56
58140 On ch=1 n=c#6 v=85
58150 Par ch=1 c=64 v=0
58160 On ch=1 n=c#4 v=71
58160 On ch=1 n=c#5 v=58
58190 Par ch=1 c=64 v=56
58200 On ch=1 n=c#6 v=0
58205 Par ch=1 c=64 v=88
58215 Par ch=1 c=64 v=127
58235 On ch=1 n=c#4 v=0
58250 On ch=1 n=c#5 v=0
58265 On ch=1 n=c#7 v=0
58395 On ch=1 n=c#5 v=64
58400 On ch=1 n=c#7 v=102
58405 On ch=1 n=c#6 v=83
58440 On ch=1 n=c#5 v=0
58455 On ch=1 n=c#6 v=0
58485 On ch=1 n=c#7 v=0
58515 On ch=1 n=d#7 v=82
58525 On ch=1 n=d#5 v=67
58575 On ch=1 n=d#5 v=0
58585 On ch=1 n=d#7 v=0
58645 On ch=1 n=c#5 v=69
58650 On ch=1 n=c#7 v=80
58700 On ch=1 n=c#7 v=0
58720 On ch=1 n=c#5 v=0
58750 On ch=1 n=g#6 v=80
58750 On ch=1 n=g#4 v=63
58850 On ch=1 n=g#6 v=0
58890 On ch=1 n=f4 v=69
58890 On ch=1 n=f6 v=81
58905 On ch=1 n=g#4 v=0
58935 On ch=1 n=f6 v=0
58935 On ch=1 n=f4 v=0
59140 Par ch=1 c=64 v=24
59155 Par ch=1 c=64 v=0
59160 On ch=1 n=d6 v=86
59165 On ch=1 n=a#2 v=67
59165 On ch=1 n=g#5 v=62
59170 On ch=1 n=d5 v=68
59170 On ch=1 n=f5 v=63
59175 On ch=1 n=b3 v=68
59210 On ch=1 n=a#2 v=0
59250 Par ch=1 c=64 v=56
59255 On ch=1 n=b3 v=0
59260 Par ch=1 c=64 v=127
59310 On ch=1 n=c4 v=82
59405 On ch=1 n=c4 v=0
59410 On ch=1 n=d4 v=75
59495 Par ch=1 c=64 v=104
59505 Par ch=1 c=64 v=88
59510 On ch=1 n=d4 v=0
59520 Par ch=1 c=64 v=72
59530 On ch=1 n=d#4 v=71
59530 Par ch=1 c=64 v=56
59545 Par ch=1 c=64 v=40
59560 Par ch=1 c=64 v=24
59575 Par ch=1 c=64 v=0
59650 On ch=1 n=d#4 v=0
59670 On ch=1 n=f4 v=73
59780 On ch=1 n=g4 v=82
59810 On ch=1 n=f4 v=0
59895 On ch=1 n=g4 v=0
59905 On ch=1 n=g#4 v=75
60020 On ch=1 n=g#4 v=0
60030 On ch=1 n=g4 v=74
60130 On ch=1 n=g4 v=0
60155 On ch=1 n=f4 v=72
60200 Par ch=1 c=64 v=24
60210 Par ch=1 c=64 v=40
60235 Par ch=1 c=64 v=56
60250 On ch=1 n=f4 v=0
60270 On ch=1 n=d#4 v=71
60290 Par ch=1 c=64 v=72
60360 On ch=1 n=d#4 v=0
60410 On ch=1 n=d4 v=61
60505 On ch=1 n=d4 v=0
60520 On ch=1 n=c4 v=77
60615 On ch=1 n=c4 v=0
60630 Par ch=1 c=64 v=24
60645 On ch=1 n=b3 v=76
60645 Par ch=1 c=64 v=0
60700 Par ch=1 c=64 v=24
60715 Par ch=1 c=64 v=56
60725 Par ch=1 c=64 v=72
60730 On ch=1 n=b3 v=0
60730 On ch=1 n=d5 v=0
60740 Par ch=1 c=64 v=88
60755 On ch=1 n=g#5 v=0
60755 Par ch=1 c=64 v=104
60765 On ch=1 n=f5 v=0
60770 On ch=1 n=c4 v=71
60810 On ch=1 n=d6 v=0
60870 On ch=1 n=c4 v=0
60875 Par ch=1 c=64 v=72
60890 Par ch=1 c=64 v=24
60895 On ch=1 n=d6 v=79
60900 On ch=1 n=a#3 v=62
60900 Par ch=1 c=64 v=0
60905 On ch=1 n=d5 v=63
60905 On ch=1 n=g#5 v=56
60910 On ch=1 n=f5 v=55
60945 Par ch=1 c=64 v=24
60955 Par ch=1 c=64 v=56
60970 Par ch=1 c=64 v=88
60975 On ch=1 n=d5 v=0
60975 On ch=1 n=a#3 v=0
60985 On ch=1 n=f5 v=0
60985 Par ch=1 c=64 v=127
61005 On ch=1 n=g#5 v=0
61005 On ch=1 n=g#3 v=62
61010 On ch=1 n=d6 v=0
61120 Par ch=1 c=64 v=88
61125 On ch=1 n=g#3 v=0
61125 On ch=1 n=d6 v=89
61125 On ch=1 n=g3 v=69
61130 On ch=1 n=d5 v=76
61130 On ch=1 n=g#5 v=70
61130 Par ch=1 c=64 v=40
61140 On ch=1 n=f5 v=64
61145 Par ch=1 c=64 v=24
61165 On ch=1 n=f5 v=0
61185 Par ch=1 c=64 v=72
61190 On ch=1 n=d5 v=0
61200 Par ch=1 c=64 v=88
61215 On ch=1 n=d6 v=0
61215 Par ch=1 c=64 v=127
61240 On ch=1 n=g#5 v=0
61250 On ch=1 n=f3 v=74
61260 On ch=1 n=g3 v=0
61290 On ch=1 n=f3 v=0
61375 Par ch=1 c=64 v=104
61385 On ch=1 n=d#6 v=88
61390 On ch=1 n=d#5 v=69
61390 Par ch=1 c=64 v=40
61395 On ch=1 n=g5 v=71
61405 Par ch=1 c=64 v=0
61415 On ch=1 n=d#4 v=64
61415 On ch=1 n=d#3 v=67
61470 Par ch=1 c=64 v=24
61480 On ch=1 n=g5 v=0
61485 Par ch=1 c=64 v=88
61490 On ch=1 n=d#3 v=0
61495 On ch=1 n=d#5 v=0
61500 On ch=1 n=d#4 v=0
61500 Par ch=1 c=64 v=127
61505 On ch=1 n=d#6 v=0
61650 Par ch=1 c=64 v=104
61660 On ch=1 n=d5 v=80
61660 Par ch=1 c=64 v=24
61675 On ch=1 n=d4 v=63
61675 Par ch=1 c=64 v=0
61680 On ch=1 n=d3 v=56
61715 On ch=1 n=d3 v=0
61720 On ch=1 n=d4 v=0
61745 Par ch=1 c=64 v=40
61755 Par ch=1 c=64 v=88
61770 Par ch=1 c=64 v=127
61865 Par ch=1 c=64 v=72
61870 On ch=1 n=d5 v=0
61875 Par ch=1 c=64 v=0
61910 On ch=1 n=c#5 v=84
61930 On ch=1 n=c#3 v=57
61930 On ch=1 n=c#4 v=57
61945 Par ch=1 c=64 v=24
61960 Par ch=1 c=64 v=72
61970 On ch=1 n=c#4 v=0
61975 On ch=1 n=c#3 v=0
61975 Par ch=1 c=64 v=127
61990 On ch=1 n=c#5 v=0
62135 Par ch=1 c=64 v=72
62150 Par ch=1 c=64 v=0
62165 On ch=1 n=c#5 v=87
62190 On ch=1 n=c#3 v=59
62190 On ch=1 n=c#4 v=60
62215 On ch=1 n=c#4 v=0
62215 On ch=1 n=c#3 v=0
62215 Par ch=1 c=64 v=40
62225 On ch=1 n=c#5 v=0
62230 Par ch=1 c=64 v=88
62245 Par ch=1 c=64 v=127
62450 On ch=1 n=c#7 v=95
62455 On ch=1 n=c#6 v=92
62460 On ch=1 n=c#5 v=72
62470 On ch=1 n=c#4 v=73
62510 On ch=1 n=c#6 v=0
62515 On ch=1 n=c#5 v=0
62520 On ch=1 n=c#4 v=0
62575 On ch=1 n=c#7 v=0
62690 On ch=1 n=c#7 v=95
62700 On ch=1 n=c#6 v=92
62710 On ch=1 n=c#5 v=77
62715 On ch=1 n=c#4 v=82
62770 On ch=1 n=c#6 v=0
62775 On ch=1 n=c#4 v=0
62785 On ch=1 n=c#5 v=0
62820 On ch=1 n=c#7 v=0
62955 On ch=1 n=c#7 v=89
62955 On ch=1 n=c#6 v=91
62960 On ch=1 n=c#5 v=77
62965 On ch=1 n=c#4 v=65
62995 On ch=1 n=c#4 v=0
63005 On ch=1 n=c#5 v=0
63010 On ch=1 n=c#6 v=0
63040 On ch=1 n=c#7 v=0
63070 On ch=1 n=d#7 v=86
63080 On ch=1 n=d#5 v=78
63145 On ch=1 n=d#5 v=0
63145 On ch=1 n=d#7 v=0
63195 On ch=1 n=c#7 v=82
63200 On ch=1 n=c#5 v=62
63260 On ch=1 n=c#7 v=0
63290 On ch=1 n=c#5 v=0
63300 On ch=1 n=g#4 v=65
63310 On ch=1 n=g#6 v=79
63405 On ch=1 n=g#6 v=0
63425 On ch=1 n=f6 v=75
63430 On ch=1 n=f4 v=71
63450 On ch=1 n=g#4 v=0
63455 On ch=1 n=f6 v=0
63470 On ch=1 n=f4 v=0
63630 Par ch=1 c=64 v=72
63640 Par ch=1 c=64 v=0
63680 On ch=1 n=d6 v=83
63685 On ch=1 n=a#2 v=67
63685 On ch=1 n=g#5 v=60
63690 On ch=1 n=d5 v=62
63695 On ch=1 n=f5 v=57
63700 On ch=1 n=b3 v=53
63730 On ch=1 n=a#2 v=0
63750 Par ch=1 c=64 v=56
63765 Par ch=1 c=64 v=127
63770 On ch=1 n=b3 v=0
63820 On ch=1 n=c4 v=81
63930 On ch=1 n=c4 v=0
63930 On ch=1 n=d4 v=75
64025 On ch=1 n=d4 v=0
64040 On ch=1 n=d#4 v=85
64155 On ch=1 n=d#4 v=0
64165 On ch=1 n=f4 v=79
64240 Par ch=1 c=64 v=104
64285 On ch=1 n=g4 v=92
64290 Par ch=1 c=64 v=88
64320 On ch=1 n=f4 v=0
64335 Par ch=1 c=64 v=72
64375 Par ch=1 c=64 v=56
64400 Par ch=1 c=64 v=24
64410 On ch=1 n=g#4 v=80
64415 Par ch=1 c=64 v=0
64430 On ch=1 n=g4 v=0
64535 On ch=1 n=g#4 v=0
64535 On ch=1 n=g4 v=74
64635 On ch=1 n=g4 v=0
64660 On ch=1 n=f4 v=80
64670 Par ch=1 c=64 v=24
64765 Par ch=1 c=64 v=40
64780 On ch=1 n=f4 v=0
64780 On ch=1 n=d#4 v=73
64805 Par ch=1 c=64 v=56
64880 On ch=1 n=d#4 v=0
64910 On ch=1 n=d4 v=74
64970 Par ch=1 c=64 v=40
64995 On ch=1 n=d4 v=0
65020 On ch=1 n=c4 v=72
65050 Par ch=1 c=64 v=72
65105 Par ch=1 c=64 v=24
65110 On ch=1 n=c4 v=0
65140 On ch=1 n=b3 v=66
65160 Par ch=1 c=64 v=40
65175 Par ch=1 c=64 v=72
65185 Par ch=1 c=64 v=88
65200 Par ch=1 c=64 v=104
65215 Par ch=1 c=64 v=127
65230 On ch=1 n=b3 v=0
65240 On ch=1 n=d5 v=0
65250 On ch=1 n=f5 v=0
65265 On ch=1 n=c4 v=73
65270 On ch=1 n=g#5 v=0
65270 On ch=1 n=d6 v=0
65375 On ch=1 n=c4 v=0
65390 Par ch=1 c=64 v=104
65405 Par ch=1 c=64 v=72
65410 On ch=1 n=d6 v=83
65410 On ch=1 n=g#5 v=58
65410 On ch=1 n=a#3 v=58
65415 On ch=1 n=d5 v=62
65415 Par ch=1 c=64 v=40
65420 On ch=1 n=f5 v=53
65470 Par ch=1 c=64 v=72
65485 Par ch=1 c=64 v=104
65500 Par ch=1 c=64 v=127
65505 On ch=1 n=a#3 v=0
65510 On ch=1 n=d5 v=0
65515 On ch=1 n=g#3 v=59
65535 On ch=1 n=f5 v=0
65540 On ch=1 n=g#5 v=0
65545 On ch=1 n=d6 v=0
65635 On ch=1 n=g#3 v=0
65645 Par ch=1 c=64 v=72
65660 Par ch=1 c=64 v=40
65665 On ch=1 n=d6 v=81
65670 On ch=1 n=g3 v=59
65670 On ch=1 n=g#5 v=58
65675 On ch=1 n=d5 v=57
65675 On ch=1 n=f5 v=51
65675 Par ch=1 c=64 v=0
65730 On ch=1 n=f5 v=0
65730 On ch=1 n=d5 v=0
65730 Par ch=1 c=64 v=56
65740 Par ch=1 c=64 v=88
65755 Par ch=1 c=64 v=127
65760 On ch=1 n=d6 v=0
65765 On ch=1 n=g3 v=0
65770 On ch=1 n=g#5 v=0
65805 On ch=1 n=f3 v=60
65930 On ch=1 n=f3 v=0
65935 Par ch=1 c=64 v=88
65945 Par ch=1 c=64 v=56
65950 On ch=1 n=d#6 v=74
65960 On ch=1 n=d#5 v=53
65960 Par ch=1 c=64 v=0
65970 On ch=1 n=d#3 v=46
65975 On ch=1 n=g5 v=60
66055 Par ch=1 c=64 v=72
66065 Par ch=1 c=64 v=127
66125 On ch=1 n=d#5 v=0
66190 On ch=1 n=g5 v=0
66195 On ch=1 n=d#6 v=0
66210 On ch=1 n=d#3 v=0
66230 Par ch=1 c=64 v=72
66245 Par ch=1 c=64 v=24
66250 On ch=1 n=g#5 v=65
66250 On ch=1 n=f3 v=53
66260 Par ch=1 c=64 v=0
66265 On ch=1 n=d5 v=52
66310 Par ch=1 c=64 v=40
66315 On ch=1 n=d5 v=0
66325 Par ch=1 c=64 v=88
66340 Par ch=1 c=64 v=127
66510 On ch=1 n=g#5 v=0
66515 On ch=1 n=f3 v=0
66530 Par ch=1 c=64 v=104
66540 On ch=1 n=a#5 v=69
66545 On ch=1 n=c#5 v=53
66545 Par ch=1 c=64 v=40
66555 Par ch=1 c=64 v=0
66570 On ch=1 n=g3 v=48
66625 Par ch=1 c=64 v=56
66635 On ch=1 n=g3 v=0
66640 Par ch=1 c=64 v=127
66665 On ch=1 n=a#5 v=0
66670 On ch=1 n=c#5 v=0
66815 Par ch=1 c=64 v=72
66830 Par ch=1 c=64 v=0
66835 On ch=1 n=g#5 v=67
66850 On ch=1 n=g#2 v=62
66855 On ch=1 n=c5 v=56
66855 On ch=1 n=g#3 v=49
66895 Par ch=1 c=64 v=56
66905 On ch=1 n=g#3 v=0
66905 On ch=1 n=c5 v=0
66910 Par ch=1 c=64 v=104
66925 On ch=1 n=g#5 v=0
66925 Par ch=1 c=64 v=127
66950 On ch=1 n=g#2 v=0
67125 Par ch=1 c=64 v=72
67140 On ch=1 n=g#6 v=80
67140 Par ch=1 c=64 v=40
67155 On ch=1 n=c5 v=60
67155 Par ch=1 c=64 v=24
67160 On ch=1 n=g#4 v=45
67160 On ch=1 n=d#6 v=46
67170 On ch=1 n=d#4 v=39
67180 Par ch=1 c=64 v=56
67195 Par ch=1 c=64 v=104
67205 Par ch=1 c=64 v=127
67240 On ch=1 n=c5 v=0
67245 On ch=1 n=g#4 v=0
67270 On ch=1 n=d#4 v=0
67280 On ch=1 n=d#6 v=0
67400 On ch=1 n=d#4 v=43
67400 On ch=1 n=c5 v=46
67400 On ch=1 n=g#4 v=34
67420 On ch=1 n=g#6 v=0
67435 On ch=1 n=g#4 v=0
67435 On ch=1 n=c5 v=0
67450 On ch=1 n=d#4 v=0
67505 On ch=1 n=g#6 v=77
67505 Par ch=1 c=64 v=88
67520 Par ch=1 c=64 v=72
67535 Par ch=1 c=64 v=40
67545 Par ch=1 c=64 v=0
67575 On ch=1 n=g#6 v=0
67625 Par ch=1 c=64 v=56
67630 On ch=1 n=g#6 v=74
67640 Par ch=1 c=64 v=104
67645 On ch=1 n=d#6 v=60
67650 On ch=1 n=c5 v=42
67655 Par ch=1 c=64 v=127
67665 On ch=1 n=d#4 v=27
67675 On ch=1 n=d#6 v=0
67680 On ch=1 n=c5 v=0
67690 On ch=1 n=d#4 v=0
67720 On ch=1 n=g#6 v=0
67745 On ch=1 n=a#6 v=73
67820 On ch=1 n=a#6 v=0
67865 On ch=1 n=g#6 v=80
67875 On ch=1 n=g#3 v=51
67925 On ch=1 n=g#3 v=0
67945 On ch=1 n=g#6 v=0
67975 On ch=1 n=d#6 v=73
68080 On ch=1 n=d#6 v=0
68090 On ch=1 n=c6 v=81
68110 On ch=1 n=c5 v=56
68115 On ch=1 n=g#4 v=37
68125 On ch=1 n=d#4 v=34
68140 On ch=1 n=c5 v=0
68145 On ch=1 n=g#4 v=0
68150 On ch=1 n=c6 v=0
68155 On ch=1 n=d#4 v=0
68220 On ch=1 n=g#5 v=71
68225 Par ch=1 c=64 v=104
68250 Par ch=1 c=64 v=88
68265 Par ch=1 c=64 v=56
68270 On ch=1 n=g#5 v=0
68280 Par ch=1 c=64 v=24
68290 Par ch=1 c=64 v=0
68350 On ch=1 n=g#5 v=77
68365 On ch=1 n=a#3 v=57
68385 Par ch=1 c=64 v=24
68400 On ch=1 n=g#5 v=0
68400 Par ch=1 c=64 v=72
68415 On ch=1 n=a#5 v=69
68415 Par ch=1 c=64 v=127
68455 On ch=1 n=a#3 v=0
68480 On ch=1 n=g#5 v=72
68485 On ch=1 n=a#5 v=0
68550 Par ch=1 c=64 v=88
68560 Par ch=1 c=64 v=40
68575 Par ch=1 c=64 v=0
68615 On ch=1 n=g#5 v=0
68615 On ch=1 n=g5 v=79
68620 On ch=1 n=c#5 v=52
68630 On ch=1 n=g4 v=58
68630 Par ch=1 c=64 v=72
68640 On ch=1 n=d#4 v=40
68645 Par ch=1 c=64 v=127
68655 On ch=1 n=g4 v=0
68670 On ch=1 n=d#4 v=0
68675 On ch=1 n=c#5 v=0
68765 Par ch=1 c=64 v=104
68780 Par ch=1 c=64 v=56
68795 Par ch=1 c=64 v=24
68805 Par ch=1 c=64 v=0
68860 On ch=1 n=g5 v=0
68870 On ch=1 n=f#5 v=78
68885 On ch=1 n=c#5 v=44
68890 On ch=1 n=d#4 v=48
68890 Par ch=1 c=64 v=24
68900 On ch=1 n=f#4 v=31
68900 Par ch=1 c=64 v=56
68915 On ch=1 n=d#4 v=0
68915 On ch=1 n=c#5 v=0
68915 Par ch=1 c=64 v=88
68925 On ch=1 n=f#4 v=0
68930 Par ch=1 c=64 v=104
68935 On ch=1 n=f#5 v=0
69025 Par ch=1 c=64 v=72
69040 Par ch=1 c=64 v=24
69050 Par ch=1 c=64 v=0
69130 On ch=1 n=f#5 v=83
69145 Par ch=1 c=64 v=56
69160 On ch=1 n=c#5 v=42
69160 Par ch=1 c=64 v=104
69165 On ch=1 n=d#4 v=46
69170 On ch=1 n=f#4 v=44
69175 Par ch=1 c=64 v=127
69195 On ch=1 n=f#4 v=0
69195 On ch=1 n=c#5 v=0
69205 On ch=1 n=d#4 v=0
69210 On ch=1 n=f#5 v=0
69390 On ch=1 n=f#5 v=74
69410 On ch=1 n=a#3 v=56
69485 On ch=1 n=a#3 v=0
69485 On ch=1 n=f#5 v=0
69640 On ch=1 n=f#5 v=72
69645 On ch=1 n=c#5 v=44
69660 On ch=1 n=d#4 v=47
69665 On ch=1 n=f#4 v=42
69680 On ch=1 n=c#5 v=0
69690 On ch=1 n=f#4 v=0
69695 On ch=1 n=d#4 v=0
69710 On ch=1 n=f#5 v=0
69880 Par ch=1 c=64 v=104
69890 On ch=1 n=f#5 v=70
69890 Par ch=1 c=64 v=40
69905 Par ch=1 c=64 v=0
69910 On ch=1 n=a#3 v=61
69945 Par ch=1 c=64 v=24
69955 On ch=1 n=f#5 v=0
69960 Par ch=1 c=64 v=72
69975 Par ch=1 c=64 v=127
69995 On ch=1 n=a#3 v=0
70155 On ch=1 n=f#6 v=92
70165 On ch=1 n=c#6 v=76
70175 On ch=1 n=c#5 v=42
70185 On ch=1 n=f#4 v=38
70190 On ch=1 n=d#4 v=39
70220 On ch=1 n=c#6 v=0
70265 On ch=1 n=d#4 v=0
70270 On ch=1 n=f#4 v=0
70270 On ch=1 n=c#5 v=0
70430 On ch=1 n=c#5 v=32
70430 On ch=1 n=d#4 v=44
70445 On ch=1 n=f#6 v=0
70445 On ch=1 n=f#4 v=26
70475 On ch=1 n=f#4 v=0
70490 On ch=1 n=c#5 v=0
70495 On ch=1 n=d#4 v=0
70525 On ch=1 n=f#6 v=85
70545 On ch=1 n=c#6 v=63
70570 On ch=1 n=c#6 v=0
70600 On ch=1 n=f#6 v=0
70655 On ch=1 n=f#6 v=81
70670 On ch=1 n=c#5 v=52
70670 On ch=1 n=c#6 v=70
70680 On ch=1 n=d#4 v=45
70690 On ch=1 n=f#4 v=30
70715 On ch=1 n=c#6 v=0
70725 On ch=1 n=d#4 v=0
70735 On ch=1 n=f#6 v=0
70745 On ch=1 n=c#5 v=0
70770 On ch=1 n=g#6 v=81
70830 On ch=1 n=f#4 v=0
70850 On ch=1 n=g#6 v=0
70890 On ch=1 n=f#6 v=82
70890 On ch=1 n=a#3 v=54
70980 On ch=1 n=a#3 v=0
70980 On ch=1 n=f#6 v=0
71015 On ch=1 n=c#6 v=78
71105 On ch=1 n=c#6 v=0
71125 On ch=1 n=c#5 v=36
71135 On ch=1 n=d#4 v=33
71135 On ch=1 n=a#5 v=72
71145 On ch=1 n=f#4 v=27
71210 On ch=1 n=f#4 v=0
71220 On ch=1 n=d#4 v=0
71230 On ch=1 n=c#5 v=0
71240 On ch=1 n=a#5 v=0
71245 On ch=1 n=f#5 v=71
71305 On ch=1 n=f#5 v=0
71315 Par ch=1 c=64 v=104
71330 Par ch=1 c=64 v=40
71345 Par ch=1 c=64 v=0
71380 On ch=1 n=f#5 v=61
71390 On ch=1 n=c4 v=64
71425 On ch=1 n=f#5 v=0
71440 Par ch=1 c=64 v=24
71450 Par ch=1 c=64 v=72
71455 On ch=1 n=g#5 v=64
71460 On ch=1 n=c4 v=0
71465 Par ch=1 c=64 v=127
71510 On ch=1 n=g#5 v=0
71510 On ch=1 n=f#5 v=73
71530 Par ch=1 c=64 v=104
71545 Par ch=1 c=64 v=56
71560 Par ch=1 c=64 v=0
71610 On ch=1 n=d#5 v=55
71615 On ch=1 n=f#5 v=0
71625 On ch=1 n=f5 v=80
71635 On ch=1 n=a4 v=44
71635 On ch=1 n=f4 v=37
71640 Par ch=1 c=64 v=24
71655 Par ch=1 c=64 v=40
71665 On ch=1 n=a4 v=0
71670 On ch=1 n=f4 v=0
71670 On ch=1 n=d#5 v=0
71670 Par ch=1 c=64 v=56
71690 On ch=1 n=f5 v=0
71710 Par ch=1 c=64 v=40
71720 Par ch=1 c=64 v=0
71805 Par ch=1 c=64 v=24
71815 Par ch=1 c=64 v=56
71830 Par ch=1 c=64 v=104
71845 Par ch=1 c=64 v=127
71870 On ch=1 n=f5 v=78
71885 On ch=1 n=d#5 v=35
71885 On ch=1 n=f4 v=46
71905 On ch=1 n=a4 v=34
71940 On ch=1 n=a4 v=0
71950 On ch=1 n=f5 v=0
71960 On ch=1 n=d#5 v=0
71965 On ch=1 n=f4 v=0
72125 On ch=1 n=f5 v=82
72135 On ch=1 n=d#5 v=38
72155 On ch=1 n=a4 v=44
72190 On ch=1 n=f5 v=0
72205 On ch=1 n=d#5 v=0
72250 On ch=1 n=a4 v=0
72375 On ch=1 n=f5 v=86
72375 Par ch=1 c=64 v=56
72385 Par ch=1 c=64 v=0
72390 On ch=1 n=c4 v=65
72410 On ch=1 n=c4 v=0
72425 Par ch=1 c=64 v=72
72440 Par ch=1 c=64 v=127
72475 On ch=1 n=f5 v=0
72575 Par ch=1 c=64 v=104
72590 Par ch=1 c=64 v=56
72605 Par ch=1 c=64 v=0
72635 On ch=1 n=f6 v=90
72640 On ch=1 n=f5 v=74
72640 On ch=1 n=d#5 v=51
72655 On ch=1 n=a4 v=44
72660 Par ch=1 c=64 v=56
72665 On ch=1 n=f4 v=43
72670 Par ch=1 c=64 v=104
72680 On ch=1 n=a4 v=0
72685 Par ch=1 c=64 v=127
72690 On ch=1 n=d#5 v=0
72695 On ch=1 n=f4 v=0
72695 On ch=1 n=f5 v=0
72710 On ch=1 n=f6 v=0
72900 Par ch=1 c=64 v=72
72915 Par ch=1 c=64 v=0
72925 On ch=1 n=f6 v=85
72925 On ch=1 n=a#3 v=58
72930 On ch=1 n=f5 v=66
72930 On ch=1 n=a#4 v=39
72950 On ch=1 n=f5 v=0
72970 Par ch=1 c=64 v=40
72980 On ch=1 n=a#3 v=0
72985 On ch=1 n=f6 v=0
72985 Par ch=1 c=64 v=104
72995 On ch=1 n=a#4 v=0
72995 Par ch=1 c=64 v=127
73195 On ch=1 n=a#6 v=81
73195 On ch=1 n=c#5 v=46
73195 On ch=1 n=a#4 v=46
73200 On ch=1 n=a#5 v=75
73225 On ch=1 n=c#5 v=0
73250 On ch=1 n=a#4 v=0
73255 On ch=1 n=a#5 v=0
73280 On ch=1 n=a#6 v=0
73460 On ch=1 n=a#6 v=78
73470 On ch=1 n=a#5 v=67
73480 On ch=1 n=g#3 v=64
73485 On ch=1 n=g#4 v=61
73485 Par ch=1 c=64 v=40
73495 Par ch=1 c=64 v=0
73535 On ch=1 n=g#3 v=0
73545 On ch=1 n=g#4 v=0
73555 Par ch=1 c=64 v=56
73565 Par ch=1 c=64 v=127
73740 On ch=1 n=c#5 v=55
73755 On ch=1 n=a#4 v=33
73770 On ch=1 n=c#5 v=0
73780 On ch=1 n=a#4 v=0
73785 On ch=1 n=a#5 v=0
73795 On ch=1 n=a#6 v=0
73860 On ch=1 n=a6 v=82
73865 On ch=1 n=a5 v=75
73900 On ch=1 n=a5 v=0
73910 On ch=1 n=a6 v=0
73985 Par ch=1 c=64 v=88
73990 On ch=1 n=a#6 v=84
73990 On ch=1 n=a#5 v=83
74000 Par ch=1 c=64 v=40
74005 On ch=1 n=g3 v=65
74015 On ch=1 n=g4 v=56
74015 Par ch=1 c=64 v=24
74025 Par ch=1 c=64 v=72
74040 On ch=1 n=a#5 v=0
74040 Par ch=1 c=64 v=127
74055 On ch=1 n=g3 v=0
74055 On ch=1 n=a#6 v=0
74075 On ch=1 n=g4 v=0
74110 On ch=1 n=c7 v=94
74115 On ch=1 n=c6 v=86
74145 On ch=1 n=c6 v=0
74155 On ch=1 n=c7 v=0
74235 On ch=1 n=c#7 v=90
74245 On ch=1 n=c#6 v=88
74245 On ch=1 n=c#5 v=65
74245 Par ch=1 c=64 v=72
74250 On ch=1 n=a#4 v=62
74275 On ch=1 n=c#5 v=0
74285 Par ch=1 c=64 v=127
74290 On ch=1 n=a#4 v=0
74445 Par ch=1 c=64 v=56
74460 Par ch=1 c=64 v=40
74470 On ch=1 n=c#7 v=0
74470 On ch=1 n=f#4 v=65
74475 On ch=1 n=c#6 v=0
74475 On ch=1 n=f#3 v=66
74475 Par ch=1 c=64 v=88
74485 Par ch=1 c=64 v=127
74510 On ch=1 n=f#3 v=0
74515 On ch=1 n=f#4 v=0
74605 On ch=1 n=a6 v=87
74605 On ch=1 n=a5 v=73
74645 On ch=1 n=a5 v=0
74655 On ch=1 n=a6 v=0
74720 On ch=1 n=c#5 v=68
74725 On ch=1 n=a#4 v=67
74730 On ch=1 n=a#5 v=86
74730 On ch=1 n=a#6 v=88
74745 On ch=1 n=c#5 v=0
74755 On ch=1 n=a#4 v=0
74775 On ch=1 n=a#5 v=0
74800 On ch=1 n=a#6 v=0
74860 On ch=1 n=c7 v=100
74860 On ch=1 n=c6 v=97
74895 On ch=1 n=c7 v=0
74900 On ch=1 n=c6 v=0
74975 On ch=1 n=c#7 v=96
74980 On ch=1 n=c#6 v=97
74990 On ch=1 n=f4 v=74
74990 On ch=1 n=f3 v=73
74990 Par ch=1 c=64 v=104
75005 Par ch=1 c=64 v=24
75015 On ch=1 n=f3 v=0
75015 Par ch=1 c=64 v=0
75025 On ch=1 n=c#6 v=0
75045 On ch=1 n=f4 v=0
75055 On ch=1 n=c#7 v=0
75055 Par ch=1 c=64 v=72
75070 Par ch=1 c=64 v=127
75260 On ch=1 n=a#4 v=62
75260 On ch=1 n=c#5 v=59
75270 On ch=1 n=a#7 v=106
75275 On ch=1 n=a#6 v=96
75290 Par ch=1 c=64 v=72
75300 Par ch=1 c=64 v=0
75310 On ch=1 n=c#5 v=0
75315 On ch=1 n=a#4 v=0
75355 Par ch=1 c=64 v=72
75370 Par ch=1 c=64 v=127
75450 Par ch=1 c=64 v=56
75465 Par ch=1 c=64 v=0
75480 Par ch=1 c=64 v=24
75490 Par ch=1 c=64 v=56
75505 On ch=1 n=e3 v=73
75505 Par ch=1 c=64 v=127
75540 On ch=1 n=e4 v=66
75560 On ch=1 n=e3 v=0
75600 On ch=1 n=e4 v=0
75600 On ch=1 n=a#7 v=0
75630 On ch=1 n=a#6 v=0
75765 On ch=1 n=g#7 v=93
75770 On ch=1 n=g#6 v=85
75770 On ch=1 n=a#4 v=54
75770 On ch=1 n=c#5 v=55
75800 On ch=1 n=c#5 v=0
75815 On ch=1 n=a#4 v=0
75840 On ch=1 n=g#6 v=0
75880 On ch=1 n=g#7 v=0
76020 Par ch=1 c=64 v=72
76035 On ch=1 n=g7 v=85
76035 Par ch=1 c=64 v=0
76040 On ch=1 n=d#3 v=61
76040 On ch=1 n=g6 v=68
76055 On ch=1 n=d#4 v=58
76085 On ch=1 n=g7 v=0
76085 Par ch=1 c=64 v=40
76090 On ch=1 n=d#4 v=0
76090 On ch=1 n=d#3 v=0
76100 Par ch=1 c=64 v=88
76105 On ch=1 n=g6 v=0
76115 Par ch=1 c=64 v=127
76280 Par ch=1 c=64 v=56
76290 Par ch=1 c=64 v=24
76305 Par ch=1 c=64 v=40
76320 Par ch=1 c=64 v=72
76325 On ch=1 n=a#6 v=71
76325 On ch=1 n=a#4 v=43
76325 On ch=1 n=c#5 v=40
76325 On ch=1 n=a#5 v=64
76330 Par ch=1 c=64 v=104
76345 Par ch=1 c=64 v=127
76350 On ch=1 n=c#5 v=0
76360 On ch=1 n=a#4 v=0
76380 On ch=1 n=a#5 v=0
76390 On ch=1 n=a#6 v=0
76575 Par ch=1 c=64 v=72
76585 On ch=1 n=a#6 v=75
76590 On ch=1 n=a#5 v=64
76590 Par ch=1 c=64 v=0
76595 On ch=1 n=g#4 v=54
76595 On ch=1 n=g#3 v=56
76645 Par ch=1 c=64 v=40
76650 On ch=1 n=g#4 v=0
76655 Par ch=1 c=64 v=88
76660 On ch=1 n=g#3 v=0
76670 Par ch=1 c=64 v=127
76840 On ch=1 n=c#5 v=55
76840 On ch=1 n=a#4 v=52
76870 On ch=1 n=c#5 v=0
76880 On ch=1 n=a#4 v=0
76890 On ch=1 n=a#5 v=0
76890 On ch=1 n=a#6 v=0
76950 On ch=1 n=a6 v=81
76960 On ch=1 n=a5 v=68
76990 On ch=1 n=a5 v=0
77005 On ch=1 n=a6 v=0
77075 Par ch=1 c=64 v=88
77080 On ch=1 n=a#6 v=77
77080 On ch=1 n=a#5 v=73
77090 Par ch=1 c=64 v=40
77105 Par ch=1 c=64 v=24
77110 On ch=1 n=g4 v=56
77115 On ch=1 n=g3 v=61
77120 Par ch=1 c=64 v=40
77130 On ch=1 n=a#5 v=0
77130 Par ch=1 c=64 v=88
77145 Par ch=1 c=64 v=127
77150 On ch=1 n=a#6 v=0
77165 On ch=1 n=g4 v=0
77170 On ch=1 n=g3 v=0
77205 On ch=1 n=c7 v=89
77205 On ch=1 n=c6 v=80
77230 On ch=1 n=c6 v=0
77245 On ch=1 n=c7 v=0
77310 Par ch=1 c=64 v=72
77320 Par ch=1 c=64 v=40
77330 On ch=1 n=c#7 v=84
77340 On ch=1 n=c#6 v=85
77345 On ch=1 n=a#4 v=61
77345 On ch=1 n=c#5 v=62
77350 Par ch=1 c=64 v=88
77360 Par ch=1 c=64 v=127
77390 On ch=1 n=c#5 v=0
77395 On ch=1 n=a#4 v=0
77545 On ch=1 n=c#7 v=0
77550 Par ch=1 c=64 v=72
77560 On ch=1 n=c#6 v=0
77565 Par ch=1 c=64 v=56
77580 On ch=1 n=f#3 v=67
77580 Par ch=1 c=64 v=88
77585 On ch=1 n=f#4 v=75
77595 Par ch=1 c=64 v=127
77625 On ch=1 n=f#4 v=0
77625 On ch=1 n=f#3 v=0
77700 On ch=1 n=a6 v=77
77710 On ch=1 n=a5 v=60
77735 On ch=1 n=a5 v=0
77760 On ch=1 n=a6 v=0
77815 On ch=1 n=c#5 v=71
77820 On ch=1 n=a#5 v=78
77825 On ch=1 n=a#6 v=84
77825 On ch=1 n=a#4 v=64
77850 On ch=1 n=a#4 v=0
77860 On ch=1 n=c#5 v=0
77865 On ch=1 n=a#5 v=0
77885 On ch=1 n=a#6 v=0
77935 On ch=1 n=c7 v=99
77940 On ch=1 n=c6 v=89
77975 On ch=1 n=c6 v=0
77990 On ch=1 n=c7 v=0
78065 On ch=1 n=c#7 v=95
78070 On ch=1 n=c#6 v=91
78080 On ch=1 n=f4 v=71
78080 Par ch=1 c=64 v=40
78085 On ch=1 n=f3 v=66
78095 Par ch=1 c=64 v=0
78110 On ch=1 n=f3 v=0
78115 On ch=1 n=c#6 v=0
78135 On ch=1 n=c#7 v=0
78135 Par ch=1 c=64 v=56
78140 On ch=1 n=f4 v=0
78150 Par ch=1 c=64 v=127
78355 On ch=1 n=a#7 v=105
78355 On ch=1 n=a#6 v=88
78360 On ch=1 n=c#5 v=60
78360 On ch=1 n=a#4 v=59
78380 Par ch=1 c=64 v=104
78395 Par ch=1 c=64 v=24
78405 On ch=1 n=c#5 v=0
78405 Par ch=1 c=64 v=0
78415 On ch=1 n=a#4 v=0
78420 Par ch=1 c=64 v=40
78435 Par ch=1 c=64 v=88
78445 Par ch=1 c=64 v=127
78555 Par ch=1 c=64 v=56
78570 Par ch=1 c=64 v=0
78580 Par ch=1 c=64 v=24
78595 Par ch=1 c=64 v=72
78605 On ch=1 n=e3 v=63
78610 Par ch=1 c=64 v=127
78635 On ch=1 n=e4 v=61
78670 On ch=1 n=e3 v=0
78690 On ch=1 n=e4 v=0
78710 On ch=1 n=a#7 v=0
78740 On ch=1 n=a#6 v=0
78840 Par ch=1 c=64 v=104
78855 On ch=1 n=g#7 v=100
78855 On ch=1 n=c#5 v=55
78855 Par ch=1 c=64 v=72
78860 On ch=1 n=g#6 v=87
78860 On ch=1 n=a#4 v=56
78880 Par ch=1 c=64 v=104
78885 On ch=1 n=c#5 v=0
78895 Par ch=1 c=64 v=127
78900 On ch=1 n=a#4 v=0
79070 Par ch=1 c=64 v=88
79085 Par ch=1 c=64 v=24
79100 Par ch=1 c=64 v=0
79110 Par ch=1 c=64 v=24
79120 On ch=1 n=d#3 v=61
79125 Par ch=1 c=64 v=56
79140 Par ch=1 c=64 v=127
79175 On ch=1 n=d#3 v=0
79250 On ch=1 n=g#7 v=0
79265 On ch=1 n=g#6 v=0
79355 Par ch=1 c=64 v=88
79365 On ch=1 n=g7 v=89
79370 On ch=1 n=g6 v=76
79370 On ch=1 n=g4 v=57
79370 Par ch=1 c=64 v=24
79375 On ch=1 n=a#3 v=50
79385 Par ch=1 c=64 v=0
79395 Par ch=1 c=64 v=40
79410 Par ch=1 c=64 v=72
79425 On ch=1 n=g4 v=0
79425 Par ch=1 c=64 v=127
79435 On ch=1 n=a#3 v=0
79570 Par ch=1 c=64 v=104
79585 Par ch=1 c=64 v=56
79600 Par ch=1 c=64 v=40
79610 On ch=1 n=d#3 v=64
79610 Par ch=1 c=64 v=72
79625 Par ch=1 c=64 v=127
79690 On ch=1 n=d#3 v=0
79745 On ch=1 n=g6 v=0
79745 On ch=1 n=g7 v=0
79855 On ch=1 n=f7 v=99
79860 On ch=1 n=f6 v=86
79860 On ch=1 n=g#4 v=53
79870 Par ch=1 c=64 v=56
79885 Par ch=1 c=64 v=24
79890 On ch=1 n=b3 v=33
79895 Par ch=1 c=64 v=40
79910 Par ch=1 c=64 v=72
79920 On ch=1 n=g#4 v=0
79925 Par ch=1 c=64 v=127
79940 On ch=1 n=b3 v=0
80060 Par ch=1 c=64 v=104
80075 Par ch=1 c=64 v=56
80090 Par ch=1 c=64 v=40
80100 Par ch=1 c=64 v=72
80115 Par ch=1 c=64 v=104
80120 On ch=1 n=d#3 v=59
80130 Par ch=1 c=64 v=127
80170 On ch=1 n=d#3 v=0
80170 On ch=1 n=f7 v=0
80200 On ch=1 n=f6 v=0
80380 On ch=1 n=d#7 v=85
80385 On ch=1 n=d#6 v=80
80385 On ch=1 n=c4 v=64
80385 Par ch=1 c=64 v=72
80390 On ch=1 n=a4 v=54
80400 On ch=1 n=f#4 v=42
80400 Par ch=1 c=64 v=24
80425 On ch=1 n=f#4 v=0
80425 On ch=1 n=a4 v=0
80440 Par ch=1 c=64 v=104
80450 On ch=1 n=c4 v=0
80455 Par ch=1 c=64 v=127
80600 Par ch=1 c=64 v=72
80615 Par ch=1 c=64 v=40
80630 Par ch=1 c=64 v=56
80640 On ch=1 n=d#3 v=55
80645 Par ch=1 c=64 v=88
80660 Par ch=1 c=64 v=127
80675 On ch=1 n=d#3 v=0
80725 On ch=1 n=d#7 v=0
80750 On ch=1 n=d#6 v=0
80885 Par ch=1 c=64 v=56
80890 On ch=1 n=c#7 v=80
80895 On ch=1 n=c#6 v=64
80895 Par ch=1 c=64 v=0
80910 On ch=1 n=a#4 v=43
80910 On ch=1 n=g4 v=55
80915 On ch=1 n=c#4 v=51
80940 On ch=1 n=g4 v=0
80955 Par ch=1 c=64 v=40
80960 On ch=1 n=a#4 v=0
80970 Par ch=1 c=64 v=104
80980 On ch=1 n=c#4 v=0
80985 Par ch=1 c=64 v=127
81050 Par ch=1 c=64 v=104
81065 Par ch=1 c=64 v=56
81075 Par ch=1 c=64 v=40
81105 Par ch=1 c=64 v=88
81120 Par ch=1 c=64 v=127
81160 On ch=1 n=d#3 v=62
81205 On ch=1 n=d#3 v=0
81240 On ch=1 n=c#6 v=0
81240 On ch=1 n=c#7 v=0
81405 On ch=1 n=c7 v=78
81405 Par ch=1 c=64 v=88
81415 Par ch=1 c=64 v=24
81420 On ch=1 n=c6 v=63
81425 On ch=1 n=c5 v=51
81430 On ch=1 n=d#4 v=45
81430 On ch=1 n=a4 v=37
81430 On ch=1 n=f#4 v=43
81430 Par ch=1 c=64 v=0
81455 On ch=1 n=c5 v=0
81455 Par ch=1 c=64 v=56
81460 On ch=1 n=a4 v=0
81465 On ch=1 n=f#4 v=0
81470 Par ch=1 c=64 v=104
81485 On ch=1 n=d#4 v=0
81485 Par ch=1 c=64 v=127
81630 On ch=1 n=c6 v=0
81665 On ch=1 n=d#3 v=61
81710 On ch=1 n=d#3 v=0
81815 On ch=1 n=c7 v=0
81890 Par ch=1 c=64 v=88
81905 Par ch=1 c=64 v=40
81915 Par ch=1 c=64 v=0
81920 On ch=1 n=a#6 v=72
81930 On ch=1 n=a#5 v=61
81935 On ch=1 n=c#5 v=51
81945 On ch=1 n=d#4 v=50
81950 On ch=1 n=g4 v=54
81960 Par ch=1 c=64 v=88
81975 On ch=1 n=g4 v=0
81975 On ch=1 n=c#5 v=0
81975 Par ch=1 c=64 v=127
82000 On ch=1 n=d#4 v=0
82005 On ch=1 n=a#5 v=0
82025 On ch=1 n=a#6 v=0
82135 Par ch=1 c=64 v=104
82150 Par ch=1 c=64 v=40
82160 Par ch=1 c=64 v=0
82200 On ch=1 n=g#5 v=65
82210 On ch=1 n=g#3 v=57
82255 Par ch=1 c=64 v=40
82270 Par ch=1 c=64 v=104
82285 Par ch=1 c=64 v=127
82305 On ch=1 n=g#3 v=0
82335 On ch=1 n=g#5 v=0
82435 Par ch=1 c=64 v=56
82445 Par ch=1 c=64 v=0
82460 On ch=1 n=g#6 v=77
82480 On ch=1 n=g#4 v=43
82485 On ch=1 n=d#6 v=49
82485 On ch=1 n=c5 v=47
82485 On ch=1 n=d#4 v=48
82515 Par ch=1 c=64 v=24
82525 Par ch=1 c=64 v=88
82540 Par ch=1 c=64 v=127
82545 On ch=1 n=c5 v=0
82555 On ch=1 n=d#4 v=0
82565 On ch=1 n=d#6 v=0
82565 On ch=1 n=g#4 v=0
82650 Par ch=1 c=64 v=56
82665 Par ch=1 c=64 v=0
82705 On ch=1 n=g#6 v=0
82705 Par ch=1 c=64 v=40
82720 On ch=1 n=c5 v=45
82720 On ch=1 n=g#4 v=33
82720 Par ch=1 c=64 v=72
82725 On ch=1 n=d#4 v=32
82730 Par ch=1 c=64 v=104
82745 Par ch=1 c=64 v=127
82755 On ch=1 n=c5 v=0
82760 On ch=1 n=g#4 v=0
82770 On ch=1 n=d#4 v=0
82815 On ch=1 n=g#6 v=73
82830 On ch=1 n=d#6 v=44
82855 On ch=1 n=d#6 v=0
82865 Par ch=1 c=64 v=104
82880 On ch=1 n=g#6 v=0
82880 Par ch=1 c=64 v=40
82895 Par ch=1 c=64 v=0
82940 On ch=1 n=g#6 v=72
82940 On ch=1 n=d#6 v=60
82950 On ch=1 n=d#4 v=46
82950 On ch=1 n=c5 v=51
82950 Par ch=1 c=64 v=56
82960 On ch=1 n=g#4 v=27
82960 Par ch=1 c=64 v=104
82975 Par ch=1 c=64 v=127
82980 On ch=1 n=c5 v=0
82990 On ch=1 n=g#4 v=0
82995 On ch=1 n=d#4 v=0
83015 On ch=1 n=d#6 v=0
83020 On ch=1 n=g#6 v=0
83060 On ch=1 n=a#6 v=67
83130 On ch=1 n=a#6 v=0
83175 On ch=1 n=g#3 v=49
83175 On ch=1 n=g#6 v=73
83230 On ch=1 n=g#3 v=0
83255 On ch=1 n=g#6 v=0
83285 On ch=1 n=d#6 v=75
83390 On ch=1 n=d#6 v=0
83400 On ch=1 n=c6 v=76
83430 On ch=1 n=c5 v=53
83445 On ch=1 n=d#4 v=32
83450 On ch=1 n=g#4 v=25
83460 On ch=1 n=c5 v=0
83470 On ch=1 n=g#4 v=0
83475 On ch=1 n=d#4 v=0
83475 On ch=1 n=c6 v=0
83520 On ch=1 n=g#5 v=76
83570 On ch=1 n=g#5 v=0
83600 Par ch=1 c=64 v=88
83615 Par ch=1 c=64 v=40
83625 Par ch=1 c=64 v=0
83645 On ch=1 n=g#5 v=72
83660 On ch=1 n=a#3 v=54
83695 On ch=1 n=g#5 v=0
83710 On ch=1 n=a#5 v=71
83720 On ch=1 n=a#3 v=0
83720 Par ch=1 c=64 v=40
83735 Par ch=1 c=64 v=104
83745 Par ch=1 c=64 v=127
83755 On ch=1 n=g#5 v=62
83770 On ch=1 n=a#5 v=0
83815 Par ch=1 c=64 v=104
83830 Par ch=1 c=64 v=40
83840 Par ch=1 c=64 v=0
83905 On ch=1 n=g#5 v=0
83910 On ch=1 n=g5 v=72
83920 On ch=1 n=c#5 v=42
83945 On ch=1 n=d#4 v=27
83950 On ch=1 n=c#5 v=0
83975 On ch=1 n=d#4 v=0
83985 On ch=1 n=g5 v=0
84170 On ch=1 n=g5 v=78
84170 On ch=1 n=c#5 v=37
84170 Par ch=1 c=64 v=56
84180 Par ch=1 c=64 v=88
84185 On ch=1 n=d#4 v=45
84185 On ch=1 n=g4 v=47
84195 Par ch=1 c=64 v=127
84220 On ch=1 n=g4 v=0
84235 On ch=1 n=c#5 v=0
84240 On ch=1 n=g5 v=0
84260 On ch=1 n=d#4 v=0
84410 On ch=1 n=g5 v=81
84410 On ch=1 n=c#5 v=37
84415 On ch=1 n=d#4 v=40
84435 On ch=1 n=g4 v=50
84465 On ch=1 n=g4 v=0
84475 On ch=1 n=c#5 v=0
84540 On ch=1 n=d#4 v=0
84655 Par ch=1 c=64 v=88
84670 Par ch=1 c=64 v=40
84675 On ch=1 n=a#3 v=51
84685 On ch=1 n=g6 v=80
84685 Par ch=1 c=64 v=0
84725 Par ch=1 c=64 v=72
84735 On ch=1 n=g5 v=0
84740 Par ch=1 c=64 v=127
84760 On ch=1 n=a#3 v=0
84965 On ch=1 n=c#5 v=46
84975 On ch=1 n=d#4 v=42
84980 On ch=1 n=g4 v=34
85000 On ch=1 n=c#5 v=0
85005 On ch=1 n=g4 v=0
85010 On ch=1 n=d#4 v=0
85025 On ch=1 n=g6 v=0
85090 On ch=1 n=g5 v=70
85155 On ch=1 n=g5 v=0
85170 Par ch=1 c=64 v=104
85185 Par ch=1 c=64 v=40
85200 Par ch=1 c=64 v=0
85240 On ch=1 n=g5 v=67
85255 On ch=1 n=b3 v=53
85285 On ch=1 n=b3 v=0
85295 Par ch=1 c=64 v=72
85310 Par ch=1 c=64 v=127
85495 On ch=1 n=g4 v=54
85500 On ch=1 n=d5 v=35
85520 On ch=1 n=d5 v=0
85520 On ch=1 n=g4 v=0
85645 On ch=1 n=g5 v=0
85680 On ch=1 n=g6 v=72
85725 On ch=1 n=b3 v=55
85740 On ch=1 n=g5 v=71
85740 Par ch=1 c=64 v=88
85745 On ch=1 n=g6 v=0
85750 On ch=1 n=b3 v=0
85755 Par ch=1 c=64 v=56
85765 Par ch=1 c=64 v=24
85780 Par ch=1 c=64 v=0
85820 On ch=1 n=g5 v=0
85895 On ch=1 n=g6 v=84
85970 On ch=1 n=g6 v=0
85970 On ch=1 n=g#5 v=74
85995 On ch=1 n=c4 v=63
86020 On ch=1 n=c4 v=0
86025 Par ch=1 c=64 v=56
86040 Par ch=1 c=64 v=88
86055 Par ch=1 c=64 v=127
86220 On ch=1 n=d#5 v=47
86225 On ch=1 n=g4 v=60
86265 On ch=1 n=d#5 v=0
86295 On ch=1 n=g4 v=0
86325 On ch=1 n=g#5 v=0
86355 On ch=1 n=g6 v=79
86430 On ch=1 n=g#5 v=78
86440 On ch=1 n=c4 v=66
86445 Par ch=1 c=64 v=88
86455 On ch=1 n=g6 v=0
86460 Par ch=1 c=64 v=56
86465 On ch=1 n=c4 v=0
86475 Par ch=1 c=64 v=40
86485 Par ch=1 c=64 v=24
86500 Par ch=1 c=64 v=0
86530 On ch=1 n=g#5 v=0
86610 On ch=1 n=g6 v=74
86660 On ch=1 n=a5 v=74
86675 On ch=1 n=c#4 v=54
86690 On ch=1 n=g6 v=0
86690 Par ch=1 c=64 v=24
86745 On ch=1 n=c#4 v=0
86755 Par ch=1 c=64 v=56
86770 Par ch=1 c=64 v=72
86785 Par ch=1 c=64 v=88
86790 On ch=1 n=a5 v=0
86795 Par ch=1 c=64 v=104
86810 Par ch=1 c=64 v=127
86840 On ch=1 n=g6 v=80
86875 On ch=1 n=e5 v=71
86910 On ch=1 n=a#5 v=76
86920 On ch=1 n=e5 v=0
86935 On ch=1 n=g6 v=0
87000 Par ch=1 c=64 v=72
87005 On ch=1 n=a#5 v=0
87015 Par ch=1 c=64 v=24
87030 Par ch=1 c=64 v=0
87065 On ch=1 n=d4 v=67
87070 Par ch=1 c=64 v=56
87075 On ch=1 n=g6 v=82
87085 On ch=1 n=d4 v=0
87085 Par ch=1 c=64 v=88
87095 Par ch=1 c=64 v=127
87135 Par ch=1 c=64 v=72
87150 On ch=1 n=b5 v=80
87150 Par ch=1 c=64 v=40
87165 On ch=1 n=f5 v=62
87165 Par ch=1 c=64 v=0
87170 On ch=1 n=g6 v=0
87205 Par ch=1 c=64 v=40
87210 On ch=1 n=f5 v=0
87220 Par ch=1 c=64 v=72
87230 Par ch=1 c=64 v=104
87245 Par ch=1 c=64 v=127
87265 On ch=1 n=b5 v=0
87300 On ch=1 n=g6 v=80
87300 Par ch=1 c=64 v=72
87315 Par ch=1 c=64 v=40
87325 Par ch=1 c=64 v=0
87390 On ch=1 n=d#4 v=62
87395 On ch=1 n=d6 v=82
87430 On ch=1 n=g6 v=0
87460 On ch=1 n=d#4 v=0
87460 Par ch=1 c=64 v=24
87475 Par ch=1 c=64 v=56
87490 Par ch=1 c=64 v=88
87545 Par ch=1 c=64 v=0
87610 Par ch=1 c=64 v=24
87625 Par ch=1 c=64 v=72
87640 Par ch=1 c=64 v=104
87645 On ch=1 n=g5 v=54
87650 On ch=1 n=c5 v=59
87655 Par ch=1 c=64 v=127
87675 On ch=1 n=c5 v=0
87675 On ch=1 n=g5 v=0
87885 On ch=1 n=c6 v=70
87885 On ch=1 n=d#4 v=56
87885 Par ch=1 c=64 v=104
87895 Par ch=1 c=64 v=88
87910 On ch=1 n=d6 v=0
87910 Par ch=1 c=64 v=72
87925 Par ch=1 c=64 v=56
87935 Par ch=1 c=64 v=24
87950 On ch=1 n=d#4 v=0
87950 On ch=1 n=c6 v=0
87950 Par ch=1 c=64 v=0
88135 On ch=1 n=c6 v=77
88160 Par ch=1 c=64 v=24
88170 On ch=1 n=e4 v=49
88175 Par ch=1 c=64 v=72
88185 Par ch=1 c=64 v=127
88205 On ch=1 n=e4 v=0
88390 On ch=1 n=g5 v=36
88395 On ch=1 n=c5 v=45
88425 On ch=1 n=g5 v=0
88455 On ch=1 n=c5 v=0
88510 On ch=1 n=c6 v=0
88525 On ch=1 n=c7 v=81
88525 Par ch=1 c=64 v=104
88555 Par ch=1 c=64 v=88
88565 Par ch=1 c=64 v=56
88580 Par ch=1 c=64 v=40
88590 Par ch=1 c=64 v=0
88605 On ch=1 n=c6 v=82
88610 On ch=1 n=e4 v=59
88620 On ch=1 n=c7 v=0
88630 On ch=1 n=e4 v=0
88675 On ch=1 n=c6 v=0
88785 On ch=1 n=c7 v=74
88850 On ch=1 n=c#6 v=78
88855 On ch=1 n=c7 v=0
88865 Par ch=1 c=64 v=40
88880 On ch=1 n=f4 v=46
88880 Par ch=1 c=64 v=88
88890 Par ch=1 c=64 v=104
88905 Par ch=1 c=64 v=127
88910 On ch=1 n=f4 v=0
89070 Par ch=1 c=64 v=104
89090 On ch=1 n=g#5 v=28
89095 On ch=1 n=c5 v=50
89110 Par ch=1 c=64 v=88
89165 On ch=1 n=g#5 v=0
89205 On ch=1 n=c#6 v=0
89220 On ch=1 n=c7 v=81
89230 Par ch=1 c=64 v=72
89245 Par ch=1 c=64 v=56
89255 Par ch=1 c=64 v=40
89270 Par ch=1 c=64 v=0
89290 On ch=1 n=c5 v=0
89290 On ch=1 n=c#6 v=73
89295 On ch=1 n=f4 v=34
89300 On ch=1 n=c7 v=0
89330 On ch=1 n=f4 v=0
89390 On ch=1 n=c#6 v=0
89455 On ch=1 n=c7 v=81
89515 On ch=1 n=d6 v=74
89535 On ch=1 n=c7 v=0
89585 On ch=1 n=f#4 v=34
89645 On ch=1 n=d6 v=0
89665 On ch=1 n=f#4 v=0
89685 On ch=1 n=c7 v=82
89745 On ch=1 n=d#6 v=77
89750 On ch=1 n=c5 v=53
89755 On ch=1 n=a5 v=50
89760 On ch=1 n=c7 v=0
89785 On ch=1 n=c5 v=0
89790 On ch=1 n=a5 v=0
89860 On ch=1 n=d#6 v=0
89910 On ch=1 n=c7 v=85
89935 On ch=1 n=g4 v=63
89960 On ch=1 n=g4 v=0
89975 On ch=1 n=e6 v=79
89995 On ch=1 n=c7 v=0
90075 On ch=1 n=e6 v=0
90125 On ch=1 n=c7 v=86
90195 On ch=1 n=g#4 v=61
90205 On ch=1 n=c7 v=0
90220 On ch=1 n=g6 v=92
90260 On ch=1 n=g#4 v=0
90275 Par ch=1 c=64 v=56
90290 Par ch=1 c=64 v=72
90300 Par ch=1 c=64 v=88
90315 Par ch=1 c=64 v=104
90460 On ch=1 n=c6 v=50
90470 On ch=1 n=f5 v=42
90490 On ch=1 n=c6 v=0
90500 On ch=1 n=f5 v=0
90675 On ch=1 n=f6 v=72
90685 On ch=1 n=g6 v=0
90685 On ch=1 n=g#4 v=46
90720 On ch=1 n=g#4 v=0
90720 Par ch=1 c=64 v=72
90735 Par ch=1 c=64 v=40
90745 On ch=1 n=f6 v=0
90750 Par ch=1 c=64 v=24
90760 Par ch=1 c=64 v=0
90920 On ch=1 n=f6 v=79
90950 On ch=1 n=a4 v=53
90955 Par ch=1 c=64 v=40
90965 Par ch=1 c=64 v=88
90975 On ch=1 n=a4 v=0
90980 Par ch=1 c=64 v=127
91010 On ch=1 n=f6 v=0
91185 On ch=1 n=f7 v=89
91200 On ch=1 n=c7 v=68
91210 On ch=1 n=f5 v=43
91215 On ch=1 n=d#5 v=30
91220 On ch=1 n=c5 v=39
91225 On ch=1 n=c6 v=25
91235 On ch=1 n=c7 v=0
91260 On ch=1 n=c5 v=0
91265 On ch=1 n=c6 v=0
91280 On ch=1 n=d#5 v=0
91285 On ch=1 n=f5 v=0
91420 On ch=1 n=f7 v=0
91460 On ch=1 n=c5 v=36
91460 On ch=1 n=f5 v=33
91465 On ch=1 n=d#5 v=23
91470 On ch=1 n=c6 v=24
91510 On ch=1 n=c6 v=0
91510 On ch=1 n=d#5 v=0
91510 On ch=1 n=f5 v=0
91510 On ch=1 n=c5 v=0
91565 On ch=1 n=f7 v=77
91565 On ch=1 n=c7 v=66
91595 On ch=1 n=c7 v=0
91605 Par ch=1 c=64 v=88
91615 On ch=1 n=f7 v=0
91615 Par ch=1 c=64 v=40
91630 Par ch=1 c=64 v=0
91670 On ch=1 n=f7 v=78
91685 On ch=1 n=c6 v=42
91690 On ch=1 n=c7 v=68
91690 On ch=1 n=c5 v=31
91695 On ch=1 n=f5 v=38
91695 On ch=1 n=d#5 v=36
91700 Par ch=1 c=64 v=56
91710 Par ch=1 c=64 v=127
91715 On ch=1 n=c7 v=0
91720 On ch=1 n=c5 v=0
91725 On ch=1 n=c6 v=0
91730 On ch=1 n=f5 v=0
91760 On ch=1 n=f7 v=0
91780 On ch=1 n=d#5 v=0
91790 On ch=1 n=g7 v=81
91865 On ch=1 n=g7 v=0
91890 Par ch=1 c=64 v=104
91905 On ch=1 n=a4 v=59
91910 On ch=1 n=f7 v=78
91930 On ch=1 n=a4 v=0
91990 On ch=1 n=f7 v=0
92010 On ch=1 n=c7 v=79
92110 On ch=1 n=c7 v=0
92120 On ch=1 n=a6 v=66
92135 On ch=1 n=c6 v=41
92140 On ch=1 n=d#5 v=30
92165 On ch=1 n=c6 v=0
92180 On ch=1 n=a6 v=0
92190 On ch=1 n=d#5 v=0
92200 Par ch=1 c=64 v=88
92215 Par ch=1 c=64 v=72
92225 Par ch=1 c=64 v=24
92235 On ch=1 n=f6 v=81
92240 Par ch=1 c=64 v=0
92305 On ch=1 n=f6 v=0
92355 On ch=1 n=a#6 v=73
92365 On ch=1 n=g#4 v=50
92405 Par ch=1 c=64 v=72
92415 Par ch=1 c=64 v=127
92445 On ch=1 n=a#6 v=0
92465 On ch=1 n=g#4 v=0
92470 On ch=1 n=c7 v=74
92540 On ch=1 n=c7 v=0
92585 On ch=1 n=a#6 v=71
92605 On ch=1 n=a#5 v=40
92630 On ch=1 n=d5 v=42
92640 On ch=1 n=f5 v=36
92685 On ch=1 n=f5 v=0
92685 On ch=1 n=a#6 v=0
92705 On ch=1 n=f6 v=76
92730 On ch=1 n=a#5 v=0
92760 On ch=1 n=d5 v=0
92795 On ch=1 n=f6 v=0
92810 On ch=1 n=d6 v=65
92820 On ch=1 n=g#4 v=46
92870 On ch=1 n=d6 v=0
92885 On ch=1 n=g#4 v=0
92925 On ch=1 n=a#5 v=73
92975 Par ch=1 c=64 v=104
92985 Par ch=1 c=64 v=56
93000 On ch=1 n=a#5 v=0
93000 Par ch=1 c=64 v=0
93040 On ch=1 n=d#6 v=75
93060 On ch=1 n=g4 v=51
93125 On ch=1 n=d#6 v=0
93150 Par ch=1 c=64 v=88
93155 On ch=1 n=f6 v=75
93165 Par ch=1 c=64 v=127
93225 On ch=1 n=f6 v=0
93230 On ch=1 n=g4 v=0
93270 On ch=1 n=d#6 v=73
93280 On ch=1 n=a#4 v=36
93280 On ch=1 n=d#5 v=42
93360 On ch=1 n=d#6 v=0
93380 On ch=1 n=a#5 v=69
93470 On ch=1 n=d#5 v=0
93475 On ch=1 n=a#5 v=0
93485 On ch=1 n=a#4 v=0
93485 On ch=1 n=g4 v=59
93490 On ch=1 n=g5 v=68
93510 On ch=1 n=g4 v=0
93555 On ch=1 n=g5 v=0
93600 On ch=1 n=d#5 v=70
93635 Par ch=1 c=64 v=104
93650 Par ch=1 c=64 v=56
93665 On ch=1 n=d#5 v=0
93665 Par ch=1 c=64 v=0
93740 On ch=1 n=f5 v=76
93740 On ch=1 n=a3 v=60
93745 Par ch=1 c=64 v=104
93815 On ch=1 n=f5 v=0
93820 On ch=1 n=a3 v=0
93825 Par ch=1 c=64 v=127
94015 On ch=1 n=f6 v=82
94025 On ch=1 n=c6 v=53
94030 On ch=1 n=c4 v=45
94030 Par ch=1 c=64 v=104
94035 On ch=1 n=f4 v=42
94040 On ch=1 n=d#4 v=37
94045 Par ch=1 c=64 v=0
94050 On ch=1 n=c5 v=24
94065 On ch=1 n=c6 v=0
94110 On ch=1 n=c5 v=0
94110 Par ch=1 c=64 v=56
94115 On ch=1 n=c4 v=0
94120 On ch=1 n=d#4 v=0
94125 Par ch=1 c=64 v=127
94130 On ch=1 n=f4 v=0
94250 On ch=1 n=f6 v=0
94260 On ch=1 n=c5 v=37
94265 On ch=1 n=c4 v=35
94270 On ch=1 n=d#4 v=32
94270 On ch=1 n=f4 v=33
94325 On ch=1 n=c5 v=0
94335 On ch=1 n=c4 v=0
94340 On ch=1 n=d#4 v=0
94345 On ch=1 n=f4 v=0
94375 On ch=1 n=f6 v=80
94390 On ch=1 n=c6 v=54
94420 On ch=1 n=c6 v=0
94425 Par ch=1 c=64 v=72
94435 On ch=1 n=f6 v=0
94435 Par ch=1 c=64 v=0
94480 On ch=1 n=c5 v=45
94485 On ch=1 n=f6 v=76
94485 On ch=1 n=c4 v=38
94485 On ch=1 n=d#4 v=48
94490 On ch=1 n=f4 v=45
94520 On ch=1 n=c4 v=0
94520 Par ch=1 c=64 v=24
94530 Par ch=1 c=64 v=88
94535 On ch=1 n=c5 v=0
94540 On ch=1 n=f4 v=0
94545 Par ch=1 c=64 v=127
94570 On ch=1 n=f6 v=0
94605 On ch=1 n=g6 v=76
94665 Par ch=1 c=64 v=40
94670 On ch=1 n=g6 v=0
94675 On ch=1 n=d#4 v=0
94680 Par ch=1 c=64 v=0
94710 On ch=1 n=a3 v=66
94715 On ch=1 n=f6 v=80
94750 Par ch=1 c=64 v=56
94765 On ch=1 n=a3 v=0
94765 Par ch=1 c=64 v=104
94775 Par ch=1 c=64 v=127
94795 On ch=1 n=f6 v=0
94820 On ch=1 n=c6 v=80
94870 Par ch=1 c=64 v=88
94885 Par ch=1 c=64 v=0
94920 On ch=1 n=c6 v=0
94935 On ch=1 n=a5 v=68
94945 On ch=1 n=c5 v=48
94955 On ch=1 n=c4 v=46
94960 On ch=1 n=d#4 v=29
94965 Par ch=1 c=64 v=56
94970 On ch=1 n=f4 v=25
94980 On ch=1 n=c5 v=0
94980 Par ch=1 c=64 v=72
94985 On ch=1 n=c4 v=0
94990 On ch=1 n=a5 v=0
94990 Par ch=1 c=64 v=104
94995 On ch=1 n=d#4 v=0
95005 On ch=1 n=f4 v=0
95005 Par ch=1 c=64 v=127
95050 On ch=1 n=f5 v=73
95100 Par ch=1 c=64 v=104
95115 Par ch=1 c=64 v=40
95125 On ch=1 n=f5 v=0
95130 Par ch=1 c=64 v=0
95175 On ch=1 n=a#5 v=71
95185 On ch=1 n=g#3 v=64
95250 Par ch=1 c=64 v=56
95265 On ch=1 n=a#5 v=0
95265 Par ch=1 c=64 v=127
95280 On ch=1 n=g#3 v=0
95285 On ch=1 n=c6 v=75
95355 On ch=1 n=c6 v=0
95390 On ch=1 n=a#5 v=68
95405 On ch=1 n=a#4 v=34
95450 On ch=1 n=f4 v=25
95490 On ch=1 n=a#5 v=0
95510 On ch=1 n=a#4 v=0
95510 On ch=1 n=f5 v=69
95605 On ch=1 n=f5 v=0
95620 On ch=1 n=g#3 v=52
95625 On ch=1 n=d5 v=62
95630 On ch=1 n=f4 v=0
95685 On ch=1 n=d5 v=0
95690 On ch=1 n=g#3 v=0
95735 On ch=1 n=a#4 v=64
95765 Par ch=1 c=64 v=88
95780 Par ch=1 c=64 v=56
95795 Par ch=1 c=64 v=0
95810 On ch=1 n=a#4 v=0
95860 On ch=1 n=d#5 v=69
95870 On ch=1 n=g3 v=58
95900 Par ch=1 c=64 v=56
95915 Par ch=1 c=64 v=104
95930 Par ch=1 c=64 v=127
95945 On ch=1 n=d#5 v=0
95975 On ch=1 n=f5 v=64
96005 On ch=1 n=g3 v=0
96035 On ch=1 n=f5 v=0
96085 On ch=1 n=d#5 v=65
96090 On ch=1 n=a#3 v=44
96100 On ch=1 n=d#4 v=44
96180 On ch=1 n=d#5 v=0
96185 On ch=1 n=d#4 v=0
96195 On ch=1 n=a#4 v=60
96275 On ch=1 n=a#3 v=0
96290 On ch=1 n=a#4 v=0
96300 On ch=1 n=g3 v=56
96305 On ch=1 n=g4 v=73
96330 On ch=1 n=g3 v=0
96370 On ch=1 n=g4 v=0
96425 On ch=1 n=d#4 v=78
96445 Par ch=1 c=64 v=104
96455 Par ch=1 c=64 v=72
96470 Par ch=1 c=64 v=24
96485 Par ch=1 c=64 v=0
96505 On ch=1 n=d#4 v=0
96550 On ch=1 n=c4 v=71
96555 On ch=1 n=g#2 v=53
96555 On ch=1 n=g#3 v=56
96615 On ch=1 n=c4 v=0
96640 On ch=1 n=g#2 v=0
96665 On ch=1 n=d#4 v=68
96680 On ch=1 n=g#3 v=0
96740 On ch=1 n=d#4 v=0
96775 On ch=1 n=a3 v=64
96775 On ch=1 n=a2 v=55
96780 On ch=1 n=f4 v=67
96855 On ch=1 n=f4 v=0
96855 On ch=1 n=a3 v=0
96870 On ch=1 n=a2 v=0
96880 On ch=1 n=f#4 v=75
96945 On ch=1 n=f#4 v=0
96985 On ch=1 n=d#5 v=73
96995 On ch=1 n=a#3 v=51
97005 On ch=1 n=a#2 v=45
97070 On ch=1 n=d#5 v=0
97105 On ch=1 n=g4 v=65
97120 On ch=1 n=a#2 v=0
97130 On ch=1 n=a#3 v=0
97155 On ch=1 n=g4 v=0
97215 On ch=1 n=a#4 v=62
97215 On ch=1 n=b2 v=62
97220 On ch=1 n=b3 v=62
97285 On ch=1 n=b2 v=0
97295 On ch=1 n=b3 v=0
97330 On ch=1 n=g#4 v=69
97375 On ch=1 n=a#4 v=0
97425 On ch=1 n=c4 v=60
97435 On ch=1 n=c3 v=47
97440 On ch=1 n=g4 v=74
97460 On ch=1 n=g#4 v=0
97490 On ch=1 n=c3 v=0
97500 On ch=1 n=c4 v=0
97525 On ch=1 n=g4 v=0
97540 On ch=1 n=g#4 v=78
97630 On ch=1 n=g#4 v=0
97655 On ch=1 n=f#4 v=71
97660 On ch=1 n=d#4 v=61
97660 On ch=1 n=d#3 v=51
97700 On ch=1 n=d#4 v=0
97710 On ch=1 n=d#3 v=0
97750 On ch=1 n=f#4 v=0
97765 On ch=1 n=g#4 v=70
97835 On ch=1 n=g#4 v=0
97875 On ch=1 n=c#4 v=56
97875 On ch=1 n=f4 v=69
97890 On ch=1 n=c#3 v=32
97920 On ch=1 n=c#3 v=0
97955 On ch=1 n=c#4 v=0
97965 On ch=1 n=f4 v=0
97975 On ch=1 n=g#4 v=69
98085 On ch=1 n=g#4 v=0
98085 On ch=1 n=a#4 v=64
98100 On ch=1 n=d4 v=58
98100 On ch=1 n=d3 v=60
98150 On ch=1 n=a#4 v=0
98165 On ch=1 n=d3 v=0
98170 On ch=1 n=d4 v=0
98200 On ch=1 n=b4 v=75
98280 On ch=1 n=b4 v=0
98300 On ch=1 n=g#5 v=74
98315 On ch=1 n=d#4 v=45
98320 On ch=1 n=d#3 v=43
98395 On ch=1 n=g#5 v=0
98400 On ch=1 n=c5 v=76
98425 On ch=1 n=d#4 v=0
98435 On ch=1 n=d#3 v=0
98495 On ch=1 n=c5 v=0
98505 On ch=1 n=d#5 v=78
98510 On ch=1 n=e3 v=62
98515 On ch=1 n=e4 v=62
98575 On ch=1 n=e3 v=0
98580 On ch=1 n=e4 v=0
98610 On ch=1 n=c#5 v=77
98640 On ch=1 n=d#5 v=0
98720 On ch=1 n=c#5 v=0
98720 On ch=1 n=c5 v=83
98725 On ch=1 n=f3 v=54
98730 On ch=1 n=f4 v=52
98755 On ch=1 n=f3 v=0
98770 On ch=1 n=f4 v=0
98830 On ch=1 n=c5 v=0
98830 On ch=1 n=c#5 v=73
98900 On ch=1 n=c#5 v=0
98935 On ch=1 n=b4 v=70
98935 On ch=1 n=g#4 v=54
98940 On ch=1 n=g#3 v=51
99000 On ch=1 n=g#3 v=0
99005 On ch=1 n=g#4 v=0
99045 On ch=1 n=b4 v=0
99050 On ch=1 n=d5 v=70
99105 On ch=1 n=d5 v=0
99170 On ch=1 n=g3 v=66
99230 Par ch=1 c=64 v=24
99245 Par ch=1 c=64 v=40
99255 Par ch=1 c=64 v=56
99270 Par ch=1 c=64 v=72
99275 On ch=1 n=a#4 v=64
99370 On ch=1 n=a#4 v=0
99370 On ch=1 n=g3 v=0
99385 On ch=1 n=d#4 v=51
99390 On ch=1 n=f5 v=66
99460 On ch=1 n=f5 v=0
99490 On ch=1 n=a#5 v=73
99570 On ch=1 n=a#5 v=0
99600 On ch=1 n=d#3 v=43
99615 On ch=1 n=d#5 v=67
99655 On ch=1 n=d#4 v=0
99680 On ch=1 n=d#5 v=0
99710 On ch=1 n=c#5 v=70
99775 On ch=1 n=c#5 v=0
99785 Par ch=1 c=64 v=0
99795 On ch=1 n=d#3 v=0
99820 On ch=1 n=g#3 v=70
99905 Par ch=1 c=64 v=24
99920 Par ch=1 c=64 v=56
99935 On ch=1 n=c5 v=72
99935 Par ch=1 c=64 v=88
99950 Par ch=1 c=64 v=104
100035 On ch=1 n=c5 v=0
100040 On ch=1 n=d#5 v=72
100050 On ch=1 n=g#3 v=0
100055 On ch=1 n=d#4 v=60
100150 On ch=1 n=g#5 v=64
100155 On ch=1 n=d#5 v=0
100200 On ch=1 n=g#5 v=0
100240 On ch=1 n=d#3 v=40
100265 On ch=1 n=c6 v=79
100320 On ch=1 n=c6 v=0
100350 On ch=1 n=d#4 v=0
100365 On ch=1 n=d#6 v=83
100380 Par ch=1 c=64 v=88
100420 Par ch=1 c=64 v=56
100435 Par ch=1 c=64 v=40
100445 On ch=1 n=d#3 v=0
100450 Par ch=1 c=64 v=0
100455 On ch=1 n=d#6 v=0
100490 On ch=1 n=c4 v=73
100495 On ch=1 n=f6 v=85
100570 Par ch=1 c=64 v=40
100575 On ch=1 n=f6 v=0
100585 Par ch=1 c=64 v=88
100600 On ch=1 n=d#6 v=75
100600 Par ch=1 c=64 v=127
100685 On ch=1 n=c4 v=0
100700 On ch=1 n=d#6 v=0
100715 On ch=1 n=c6 v=73
100715 On ch=1 n=d#4 v=55
100795 On ch=1 n=c6 v=0
100820 On ch=1 n=d#4 v=0
100830 On ch=1 n=g#5 v=70
100885 On ch=1 n=d#3 v=42
100910 On ch=1 n=g#5 v=0
100940 On ch=1 n=f5 v=65
101020 On ch=1 n=f5 v=0
101025 On ch=1 n=d#5 v=65
101070 Par ch=1 c=64 v=88
101085 Par ch=1 c=64 v=56
101100 On ch=1 n=d#5 v=0
101100 Par ch=1 c=64 v=0
101145 On ch=1 n=b3 v=71
101145 On ch=1 n=d5 v=77
101165 On ch=1 n=d#3 v=0
101180 Par ch=1 c=64 v=24
101195 Par ch=1 c=64 v=72
101210 Par ch=1 c=64 v=127
101225 On ch=1 n=d5 v=0
101245 On ch=1 n=f5 v=70
101350 On ch=1 n=g#5 v=64
101355 On ch=1 n=f5 v=0
101375 On ch=1 n=b3 v=0
101375 On ch=1 n=d#4 v=58
101405 On ch=1 n=g#5 v=0
101480 On ch=1 n=d6 v=82
101540 On ch=1 n=d6 v=0
101575 On ch=1 n=g#3 v=50
101585 On ch=1 n=f6 v=84
101675 On ch=1 n=f6 v=0
101695 On ch=1 n=g#6 v=77
101760 On ch=1 n=d#4 v=0
101765 On ch=1 n=g#6 v=0
101765 Par ch=1 c=64 v=104
101775 On ch=1 n=g#3 v=0
101780 Par ch=1 c=64 v=88
101790 Par ch=1 c=64 v=72
101805 Par ch=1 c=64 v=24
101810 On ch=1 n=g3 v=71
101820 Par ch=1 c=64 v=0
101910 On ch=1 n=a#5 v=67
101930 Par ch=1 c=64 v=40
101940 Par ch=1 c=64 v=88
101955 Par ch=1 c=64 v=127
101990 On ch=1 n=a#5 v=0
102015 On ch=1 n=f6 v=80
102020 On ch=1 n=g3 v=0
102030 On ch=1 n=d#4 v=56
102090 On ch=1 n=f6 v=0
102120 On ch=1 n=a#6 v=77
102200 On ch=1 n=a#6 v=0
102230 On ch=1 n=d#3 v=49
102235 On ch=1 n=d#6 v=77
102310 On ch=1 n=d#6 v=0
102335 On ch=1 n=d#4 v=0
102335 On ch=1 n=c#6 v=73
102375 Par ch=1 c=64 v=104
102385 On ch=1 n=d#3 v=0
102400 On ch=1 n=c#6 v=0
102400 Par ch=1 c=64 v=72
102415 Par ch=1 c=64 v=40
102430 Par ch=1 c=64 v=0
102435 On ch=1 n=g#3 v=69
102565 On ch=1 n=c6 v=71
102580 Par ch=1 c=64 v=56
102590 Par ch=1 c=64 v=88
102605 Par ch=1 c=64 v=104
102620 Par ch=1 c=64 v=127
102655 On ch=1 n=d#6 v=77
102660 On ch=1 n=g#3 v=0
102675 On ch=1 n=c6 v=0
102680 On ch=1 n=d#4 v=59
102770 On ch=1 n=g#6 v=71
102775 On ch=1 n=d#6 v=0
102815 On ch=1 n=g#6 v=0
102850 On ch=1 n=d#3 v=49
102880 On ch=1 n=c7 v=82
102890 On ch=1 n=d#4 v=0
102925 On ch=1 n=c7 v=0
102975 On ch=1 n=d#7 v=86
103065 On ch=1 n=d#7 v=0
103065 Par ch=1 c=64 v=104
103070 On ch=1 n=d#3 v=0
103080 Par ch=1 c=64 v=56
103090 On ch=1 n=c4 v=87
103095 Par ch=1 c=64 v=0
103105 On ch=1 n=f7 v=79
103175 On ch=1 n=f7 v=0
103190 Par ch=1 c=64 v=40
103200 Par ch=1 c=64 v=88
103205 On ch=1 n=d#7 v=68
103215 Par ch=1 c=64 v=127
103310 On ch=1 n=d#7 v=0
103310 On ch=1 n=c4 v=0
103315 On ch=1 n=c7 v=68
103330 On ch=1 n=d#4 v=52
103405 On ch=1 n=c7 v=0
103440 On ch=1 n=g#6 v=64
103500 On ch=1 n=g#6 v=0
103530 On ch=1 n=f6 v=68
103540 On ch=1 n=d#3 v=44
103610 On ch=1 n=f6 v=0
103625 On ch=1 n=d#4 v=0
103635 On ch=1 n=d#6 v=64
103705 Par ch=1 c=64 v=104
103720 On ch=1 n=d#6 v=0
103720 Par ch=1 c=64 v=88
103730 Par ch=1 c=64 v=40
103745 On ch=1 n=b3 v=71
103745 Par ch=1 c=64 v=0
103765 On ch=1 n=d6 v=74
103825 On ch=1 n=d#3 v=0
103840 Par ch=1 c=64 v=40
103850 On ch=1 n=d6 v=0
103855 Par ch=1 c=64 v=104
103865 Par ch=1 c=64 v=127
103865 On ch=1 n=f6 v=79
103960 On ch=1 n=f6 v=0
103960 On ch=1 n=g#6 v=67
104000 On ch=1 n=b3 v=0
104005 On ch=1 n=d#4 v=61
104080 On ch=1 n=d7 v=71
104105 On ch=1 n=g#6 v=0
104110 On ch=1 n=d7 v=0
104175 On ch=1 n=g#3 v=52
104195 On ch=1 n=f7 v=71
104255 On ch=1 n=f7 v=0
104290 On ch=1 n=g#7 v=83
104345 On ch=1 n=g#7 v=0
104350 On ch=1 n=g#3 v=0
104350 On ch=1 n=d#4 v=0
104370 Par ch=1 c=64 v=104
104380 Par ch=1 c=64 v=56
104395 On ch=1 n=g3 v=76
104395 Par ch=1 c=64 v=0
104450 On ch=1 n=g3 v=0
104475 Par ch=1 c=64 v=40
104490 Par ch=1 c=64 v=104
104505 On ch=1 n=a#6 v=71
104505 Par ch=1 c=64 v=127
104590 On ch=1 n=a#6 v=0
104610 On ch=1 n=f7 v=82
104620 On ch=1 n=a#4 v=55
104625 On ch=1 n=d#4 v=63
104680 On ch=1 n=d#4 v=0
104680 On ch=1 n=a#4 v=0
104690 On ch=1 n=f7 v=0
104720 On ch=1 n=a#7 v=78
104800 On ch=1 n=a#7 v=0
104800 Par ch=1 c=64 v=88
104815 Par ch=1 c=64 v=40
104830 Par ch=1 c=64 v=0
104835 On ch=1 n=c#7 v=77
104845 On ch=1 n=a3 v=68
104880 Par ch=1 c=64 v=40
104895 On ch=1 n=a3 v=0
104895 Par ch=1 c=64 v=88
104900 On ch=1 n=c#7 v=0
104910 Par ch=1 c=64 v=127
104935 On ch=1 n=c7 v=86
104990 Par ch=1 c=64 v=88
105005 Par ch=1 c=64 v=24
105020 Par ch=1 c=64 v=0
105030 On ch=1 n=c7 v=0
105050 On ch=1 n=f#7 v=83
105050 On ch=1 n=c5 v=66
105060 On ch=1 n=d#4 v=56
105060 On ch=1 n=f#4 v=50
105060 Par ch=1 c=64 v=24
105075 Par ch=1 c=64 v=56
105080 On ch=1 n=c5 v=0
105085 Par ch=1 c=64 v=104
105095 On ch=1 n=f#4 v=0
105100 Par ch=1 c=64 v=127
105115 On ch=1 n=d#4 v=0
105140 On ch=1 n=f#7 v=0
105155 On ch=1 n=c8 v=88
105180 Par ch=1 c=64 v=104
105195 Par ch=1 c=64 v=72
105210 Par ch=1 c=64 v=0
105240 On ch=1 n=c8 v=0
105265 On ch=1 n=a#3 v=68
105270 On ch=1 n=d#7 v=83
105290 Par ch=1 c=64 v=40
105300 Par ch=1 c=64 v=72
105305 On ch=1 n=a#3 v=0
105315 Par ch=1 c=64 v=104
105330 Par ch=1 c=64 v=127
105355 On ch=1 n=d#7 v=0
105370 On ch=1 n=d7 v=89
105440 Par ch=1 c=64 v=88
105450 Par ch=1 c=64 v=40
105465 Par ch=1 c=64 v=0
105485 On ch=1 n=g#7 v=88
105485 On ch=1 n=d5 v=69
105490 On ch=1 n=g#4 v=55
105500 On ch=1 n=f4 v=53
105505 On ch=1 n=d7 v=0
105505 Par ch=1 c=64 v=40
105520 Par ch=1 c=64 v=88
105530 On ch=1 n=f4 v=0
105535 Par ch=1 c=64 v=127
105540 On ch=1 n=d5 v=0
105550 On ch=1 n=g#4 v=0
105570 On ch=1 n=g#7 v=0
105585 On ch=1 n=d8 v=87
105655 Par ch=1 c=64 v=88
105660 On ch=1 n=d8 v=0
105670 Par ch=1 c=64 v=40
105685 Par ch=1 c=64 v=0
105695 On ch=1 n=f7 v=90
105710 On ch=1 n=c4 v=53
105735 Par ch=1 c=64 v=56
105750 Par ch=1 c=64 v=88
105765 On ch=1 n=c4 v=0
105765 Par ch=1 c=64 v=127
105770 On ch=1 n=f7 v=0
105795 On ch=1 n=d#7 v=82
105845 Par ch=1 c=64 v=72
105860 Par ch=1 c=64 v=0
105870 On ch=1 n=d#7 v=0
105905 On ch=1 n=d#5 v=60
105905 On ch=1 n=a7 v=84
105910 On ch=1 n=a4 v=54
105925 On ch=1 n=f#4 v=51
105925 Par ch=1 c=64 v=56
105940 On ch=1 n=a4 v=0
105940 Par ch=1 c=64 v=104
105955 Par ch=1 c=64 v=127
105970 On ch=1 n=d#5 v=0
105980 On ch=1 n=a7 v=0
106005 On ch=1 n=d#8 v=83
106065 On ch=1 n=f#4 v=0
106075 Par ch=1 c=64 v=72
106085 On ch=1 n=d#8 v=0
106090 Par ch=1 c=64 v=24
106095 On ch=1 n=d4 v=69
106105 Par ch=1 c=64 v=0
106120 On ch=1 n=g7 v=88
106130 Par ch=1 c=64 v=40
106145 Par ch=1 c=64 v=72
106155 Par ch=1 c=64 v=104
106160 On ch=1 n=d4 v=0
106170 Par ch=1 c=64 v=127
106180 On ch=1 n=g7 v=0
106210 On ch=1 n=f7 v=88
106280 Par ch=1 c=64 v=72
106295 Par ch=1 c=64 v=0
106325 On ch=1 n=b7 v=94
106335 On ch=1 n=b4 v=56
106340 On ch=1 n=g#4 v=55
106340 On ch=1 n=f5 v=59
106350 Par ch=1 c=64 v=24
106360 Par ch=1 c=64 v=72
106375 Par ch=1 c=64 v=104
106390 On ch=1 n=f5 v=0
106390 Par ch=1 c=64 v=127
106405 On ch=1 n=b7 v=0
106430 On ch=1 n=f8 v=93
106435 On ch=1 n=g#4 v=0
106470 On ch=1 n=f7 v=0
106500 On ch=1 n=b4 v=0
106510 Par ch=1 c=64 v=88
106525 Par ch=1 c=64 v=40
106535 Par ch=1 c=64 v=0
106550 On ch=1 n=d#4 v=83
106590 Par ch=1 c=64 v=56
106605 Par ch=1 c=64 v=88
106620 Par ch=1 c=64 v=127
106635 On ch=1 n=d#4 v=0
106715 Par ch=1 c=64 v=104
106720 On ch=1 n=f8 v=0
106725 Par ch=1 c=64 v=56
106740 Par ch=1 c=64 v=0
106790 On ch=1 n=d#8 v=86
106805 On ch=1 n=g#5 v=60
106810 On ch=1 n=c5 v=62
106810 Par ch=1 c=64 v=40
106815 On ch=1 n=g#4 v=50
106820 Par ch=1 c=64 v=88
106835 Par ch=1 c=64 v=127
106875 On ch=1 n=d#8 v=0
106885 On ch=1 n=g#5 v=0
106900 On ch=1 n=f8 v=86
106930 On ch=1 n=g#4 v=0
106945 On ch=1 n=c5 v=0
106970 On ch=1 n=f8 v=0
106985 Par ch=1 c=64 v=104
106995 On ch=1 n=f4 v=65
107000 On ch=1 n=d#8 v=84
107000 Par ch=1 c=64 v=72
107050 Par ch=1 c=64 v=104
107075 On ch=1 n=f4 v=0
107080 Par ch=1 c=64 v=127
107100 On ch=1 n=d#8 v=0
107100 On ch=1 n=c8 v=80
107160 Par ch=1 c=64 v=56
107175 Par ch=1 c=64 v=0
107215 On ch=1 n=g#7 v=89
107220 On ch=1 n=c8 v=0
107240 On ch=1 n=g#4 v=51
107240 On ch=1 n=c5 v=59
107240 On ch=1 n=g#5 v=59
107255 Par ch=1 c=64 v=56
107270 Par ch=1 c=64 v=104
107280 On ch=1 n=g#7 v=0
107285 Par ch=1 c=64 v=127
107365 On ch=1 n=g#5 v=0
107375 On ch=1 n=g#4 v=0
107405 On ch=1 n=c5 v=0
107460 On ch=1 n=d#7 v=85
107460 On ch=1 n=f#4 v=60
107460 Par ch=1 c=64 v=72
107470 Par ch=1 c=64 v=40
107485 Par ch=1 c=64 v=0
107535 On ch=1 n=f#4 v=0
107535 On ch=1 n=d#7 v=0
107540 Par ch=1 c=64 v=40
107555 Par ch=1 c=64 v=56
107560 On ch=1 n=f7 v=92
107570 Par ch=1 c=64 v=88
107620 Par ch=1 c=64 v=40
107635 Par ch=1 c=64 v=0
107640 On ch=1 n=f7 v=0
107665 On ch=1 n=d#7 v=85
107685 On ch=1 n=g#5 v=47
107690 On ch=1 n=c5 v=51
107690 On ch=1 n=g#4 v=48
107745 Par ch=1 c=64 v=40
107755 Par ch=1 c=64 v=72
107760 On ch=1 n=g#5 v=0
107770 On ch=1 n=d#7 v=0
107770 On ch=1 n=c7 v=83
107770 Par ch=1 c=64 v=88
107810 Par ch=1 c=64 v=40
107820 On ch=1 n=c5 v=0
107825 Par ch=1 c=64 v=0
107860 On ch=1 n=g#4 v=0
107895 On ch=1 n=g#6 v=86
107895 On ch=1 n=d#4 v=68
107900 On ch=1 n=c7 v=0
107920 Par ch=1 c=64 v=56
107935 Par ch=1 c=64 v=127
107945 On ch=1 n=g#6 v=0
107950 On ch=1 n=d#4 v=0
108125 On ch=1 n=d#6 v=78
108130 On ch=1 n=g#5 v=47
108130 On ch=1 n=c5 v=55
108135 On ch=1 n=g#4 v=39
108170 On ch=1 n=c5 v=0
108195 On ch=1 n=d#6 v=0
108210 On ch=1 n=g#5 v=0
108220 On ch=1 n=f6 v=87
108265 On ch=1 n=g#4 v=0
108290 On ch=1 n=f6 v=0
108300 Par ch=1 c=64 v=40
108315 Par ch=1 c=64 v=0
108320 On ch=1 n=d#6 v=85
108325 On ch=1 n=f4 v=56
108395 Par ch=1 c=64 v=24
108400 On ch=1 n=f4 v=0
108410 Par ch=1 c=64 v=56
108425 On ch=1 n=d#6 v=0
108425 On ch=1 n=c6 v=86
108450 Par ch=1 c=64 v=0
108525 On ch=1 n=c6 v=0
108540 On ch=1 n=g#4 v=58
108545 On ch=1 n=c5 v=67
108545 On ch=1 n=g#5 v=78
108545 Par ch=1 c=64 v=40
108560 Par ch=1 c=64 v=88
108570 Par ch=1 c=64 v=127
108600 On ch=1 n=g#5 v=0
108605 On ch=1 n=c5 v=0
108710 On ch=1 n=g#4 v=0
108745 Par ch=1 c=64 v=104
108760 Par ch=1 c=64 v=72
108775 Par ch=1 c=64 v=56
108780 On ch=1 n=d#5 v=68
108780 On ch=1 n=f#4 v=46
108815 Par ch=1 c=64 v=72
108825 Par ch=1 c=64 v=88
108855 On ch=1 n=d#5 v=0
108855 Par ch=1 c=64 v=104
108875 On ch=1 n=f5 v=75
108880 On ch=1 n=f#4 v=0
108955 On ch=1 n=f5 v=0
108965 On ch=1 n=g#4 v=52
108985 On ch=1 n=d#5 v=78
109065 On ch=1 n=d#5 v=0
109075 On ch=1 n=g#4 v=0
109085 On ch=1 n=c5 v=82
109100 Par ch=1 c=64 v=127
109150 Par ch=1 c=64 v=88
109165 On ch=1 n=c5 v=0
109170 Par ch=1 c=64 v=56
109180 Par ch=1 c=64 v=0
109210 On ch=1 n=d#5 v=78
109230 On ch=1 n=f4 v=58
109270 On ch=1 n=d#5 v=0
109275 Par ch=1 c=64 v=56
109290 Par ch=1 c=64 v=88
109305 Par ch=1 c=64 v=127
109385 On ch=1 n=f4 v=0
109440 Par ch=1 c=64 v=104
109450 Par ch=1 c=64 v=56
109455 On ch=1 n=c#6 v=79
109465 Par ch=1 c=64 v=0
109470 On ch=1 n=g#4 v=57
109485 On ch=1 n=f5 v=40
109505 Par ch=1 c=64 v=72
109520 Par ch=1 c=64 v=88
109530 On ch=1 n=c#6 v=0
109535 Par ch=1 c=64 v=127
109560 On ch=1 n=d#6 v=77
109600 On ch=1 n=f5 v=0
109635 On ch=1 n=d#6 v=0
109660 On ch=1 n=f4 v=62
109670 On ch=1 n=c#6 v=69
109680 On ch=1 n=g#4 v=0
109720 On ch=1 n=f4 v=0
109755 On ch=1 n=c#6 v=0
109770 On ch=1 n=c#5 v=62
109805 Par ch=1 c=64 v=88
109820 Par ch=1 c=64 v=56
109835 On ch=1 n=c#5 v=0
109835 Par ch=1 c=64 v=0
109900 On ch=1 n=a#5 v=80
109915 On ch=1 n=e4 v=58
109925 Par ch=1 c=64 v=56
109940 Par ch=1 c=64 v=104
109945 On ch=1 n=a#5 v=0
109955 Par ch=1 c=64 v=127
110095 On ch=1 n=e4 v=0
110135 On ch=1 n=g#6 v=86
110135 On ch=1 n=g#4 v=48
110150 On ch=1 n=e5 v=49
110205 On ch=1 n=g#6 v=0
110240 On ch=1 n=a#6 v=79
110320 On ch=1 n=a#6 v=0
110335 On ch=1 n=e4 v=67
110355 On ch=1 n=g#6 v=73
110380 On ch=1 n=g#4 v=0
110410 On ch=1 n=e4 v=0
110430 On ch=1 n=e5 v=0
110440 On ch=1 n=g#6 v=0
110455 On ch=1 n=g#5 v=82
110495 Par ch=1 c=64 v=104
110510 Par ch=1 c=64 v=72
110520 Par ch=1 c=64 v=24
110530 On ch=1 n=g#5 v=0
110535 Par ch=1 c=64 v=0
110580 On ch=1 n=f6 v=96
110595 On ch=1 n=d#4 v=67
110630 Par ch=1 c=64 v=40
110635 On ch=1 n=f6 v=0
110645 Par ch=1 c=64 v=127
110785 On ch=1 n=d#4 v=0
110835 On ch=1 n=d#7 v=90
110850 On ch=1 n=g#4 v=53
110850 On ch=1 n=d#5 v=55
110905 On ch=1 n=d#7 v=0
110955 On ch=1 n=f7 v=94
111015 On ch=1 n=d#5 v=0
111025 On ch=1 n=f7 v=0
111075 On ch=1 n=d#7 v=86
111090 On ch=1 n=g#4 v=0
111100 On ch=1 n=d#4 v=68
111145 On ch=1 n=d#7 v=0
111165 On ch=1 n=d#4 v=0
111165 On ch=1 n=d#6 v=86
111240 On ch=1 n=d#6 v=0
111300 On ch=1 n=g6 v=93
111310 Par ch=1 c=64 v=56
111325 Par ch=1 c=64 v=0
111345 On ch=1 n=d4 v=74
111395 On ch=1 n=d4 v=0
111400 On ch=1 n=g6 v=0
111405 Par ch=1 c=64 v=88
111415 Par ch=1 c=64 v=127
111585 On ch=1 n=f7 v=94
111595 On ch=1 n=f5 v=52
111600 On ch=1 n=b4 v=53
111605 On ch=1 n=g#4 v=38
111655 On ch=1 n=f5 v=0
111675 On ch=1 n=f7 v=0
111705 On ch=1 n=g7 v=93
111790 On ch=1 n=g#4 v=0
111795 On ch=1 n=g7 v=0
111845 On ch=1 n=f7 v=92
111870 On ch=1 n=d4 v=64
111895 On ch=1 n=b4 v=0
111935 On ch=1 n=d4 v=0
111940 On ch=1 n=f7 v=0
111975 On ch=1 n=f6 v=82
112030 On ch=1 n=f6 v=0
112135 Par ch=1 c=64 v=56
112150 Par ch=1 c=64 v=0
112155 On ch=1 n=d#3 v=92
112220 On ch=1 n=d#3 v=0
112230 Par ch=1 c=64 v=88
112245 Par ch=1 c=64 v=127
112440 On ch=1 n=g7 v=102
112445 On ch=1 n=g5 v=70
112445 On ch=1 n=a#6 v=77
112445 On ch=1 n=c#7 v=79
112445 On ch=1 n=c#5 v=64
112445 On ch=1 n=g6 v=85
112445 Par ch=1 c=64 v=72
112455 On ch=1 n=g#4 v=49
112460 On ch=1 n=a#4 v=49
112460 Par ch=1 c=64 v=127
112560 On ch=1 n=g6 v=0
112580 On ch=1 n=g7 v=0
112585 On ch=1 n=g5 v=0
112700 On ch=1 n=c#7 v=0
112705 On ch=1 n=a#6 v=0
112720 On ch=1 n=f7 v=103
112720 On ch=1 n=f6 v=90
112735 On ch=1 n=f5 v=68
112745 On ch=1 n=a#6 v=44
112765 On ch=1 n=c#5 v=0
112780 On ch=1 n=a#6 v=0
112825 On ch=1 n=f6 v=0
112840 On ch=1 n=f7 v=0
112980 On ch=1 n=f5 v=0
112980 On ch=1 n=d#7 v=99
112990 On ch=1 n=d#6 v=88
112995 On ch=1 n=d#5 v=69
113065 On ch=1 n=a#4 v=0
113075 On ch=1 n=d#6 v=0
113105 On ch=1 n=d#7 v=0
113225 On ch=1 n=d#5 v=0
113235 On ch=1 n=c#7 v=95
113240 On ch=1 n=c#6 v=85
113250 On ch=1 n=c#5 v=61
113375 On ch=1 n=c#7 v=0
113390 On ch=1 n=c#5 v=0
113390 On ch=1 n=c#6 v=0
113505 On ch=1 n=c7 v=94
113510 On ch=1 n=c6 v=75
113510 On ch=1 n=c5 v=71
113595 On ch=1 n=c6 v=0
113630 On ch=1 n=c7 v=0
113725 On ch=1 n=c5 v=0
113760 On ch=1 n=a#6 v=89
113765 On ch=1 n=a#5 v=73
113790 On ch=1 n=a#4 v=54
113845 On ch=1 n=a#5 v=0
113950 On ch=1 n=a#6 v=0
114035 On ch=1 n=c7 v=99
114035 On ch=1 n=c6 v=87
114055 On ch=1 n=c5 v=71
114100 On ch=1 n=a#4 v=0
114105 On ch=1 n=c6 v=0
114160 On ch=1 n=c7 v=0
114310 On ch=1 n=c#7 v=96
114315 On ch=1 n=c#6 v=90
114330 On ch=1 n=c#5 v=71
114340 On ch=1 n=c5 v=0
114365 On ch=1 n=g#4 v=0
114375 On ch=1 n=c#6 v=0
114380 On ch=1 n=c#5 v=0
114430 On ch=1 n=c#7 v=0
114635 On ch=1 n=d#7 v=103
114635 On ch=1 n=d#6 v=93
114635 Par ch=1 c=64 v=40
114650 On ch=1 n=g4 v=73
114650 Par ch=1 c=64 v=0
114660 On ch=1 n=d#4 v=65
114660 On ch=1 n=d#5 v=64
114715 On ch=1 n=d#6 v=0
114720 On ch=1 n=d#7 v=0
114730 Par ch=1 c=64 v=56
114745 Par ch=1 c=64 v=127
114975 On ch=1 n=f6 v=94
114975 On ch=1 n=f5 v=83
114990 On ch=1 n=g4 v=0
115015 On ch=1 n=f4 v=58
115030 On ch=1 n=f5 v=0
115065 On ch=1 n=f6 v=0
115315 On ch=1 n=g6 v=97
115315 On ch=1 n=g5 v=87
115340 On ch=1 n=g4 v=60
115350 On ch=1 n=f4 v=0
115370 On ch=1 n=g5 v=0
115375 On ch=1 n=g4 v=0
115380 On ch=1 n=d#5 v=0
115395 On ch=1 n=d#4 v=0
115410 On ch=1 n=g6 v=0
115580 Par ch=1 c=64 v=72
115595 Par ch=1 c=64 v=0
115690 On ch=1 n=g#6 v=91
115690 On ch=1 n=g#5 v=71
115690 On ch=1 n=g#3 v=67
115720 Par ch=1 c=64 v=56
115740 Par ch=1 c=64 v=127
115755 On ch=1 n=g#3 v=0
115770 On ch=1 n=g#5 v=0
115855 On ch=1 n=g#6 v=0
115895 On ch=1 n=d#6 v=82
115910 On ch=1 n=d#4 v=63
115910 On ch=1 n=g#4 v=53
115910 On ch=1 n=c5 v=60
115940 On ch=1 n=c5 v=0
115940 On ch=1 n=g#4 v=0
115950 On ch=1 n=d#4 v=0
115985 On ch=1 n=d#6 v=0
116010 Par ch=1 c=64 v=88
116065 On ch=1 n=g#3 v=58
116075 Par ch=1 c=64 v=127
116095 On ch=1 n=g#3 v=0
116240 On ch=1 n=f6 v=83
116250 On ch=1 n=c5 v=64
116260 On ch=1 n=d#4 v=59
116260 On ch=1 n=g#4 v=39
116280 On ch=1 n=c5 v=0
116285 On ch=1 n=g#4 v=0
116295 On ch=1 n=d#4 v=0
116415 On ch=1 n=g#3 v=57
116445 On ch=1 n=g#3 v=0
116515 On ch=1 n=f6 v=0
116575 On ch=1 n=g6 v=86
116580 On ch=1 n=c5 v=69
116580 On ch=1 n=d#4 v=70
116615 On ch=1 n=c5 v=0
116650 On ch=1 n=d#4 v=0
116680 Par ch=1 c=64 v=104
116695 Par ch=1 c=64 v=40
116710 Par ch=1 c=64 v=0
116750 On ch=1 n=g#3 v=73
116810 On ch=1 n=g#3 v=0
116810 Par ch=1 c=64 v=40
116820 Par ch=1 c=64 v=88
116840 Par ch=1 c=64 v=127
116870 On ch=1 n=g6 v=0
116925 On ch=1 n=g#6 v=89
116935 On ch=1 n=d#4 v=57
116940 On ch=1 n=c#5 v=57
116945 On ch=1 n=g4 v=66
116975 On ch=1 n=g4 v=0
116990 On ch=1 n=c#5 v=0
117000 On ch=1 n=d#4 v=0
117095 On ch=1 n=g#3 v=68
117135 On ch=1 n=g#6 v=0
117155 On ch=1 n=g#3 v=0
117275 On ch=1 n=a#6 v=84
117280 On ch=1 n=g4 v=63
117280 On ch=1 n=d#4 v=54
117280 On ch=1 n=c#5 v=43
117305 On ch=1 n=g4 v=0
117315 On ch=1 n=c#5 v=0
117340 On ch=1 n=d#4 v=0
117420 On ch=1 n=g#3 v=64
117470 On ch=1 n=g#3 v=0
117550 On ch=1 n=a#6 v=0
117600 On ch=1 n=d#4 v=56
117600 On ch=1 n=c#5 v=58
117610 On ch=1 n=g4 v=62
117610 On ch=1 n=c7 v=92
117635 On ch=1 n=g4 v=0
117650 On ch=1 n=c#5 v=0
117675 On ch=1 n=d#4 v=0
117720 Par ch=1 c=64 v=72
117735 Par ch=1 c=64 v=0
117755 On ch=1 n=g#3 v=75
117810 On ch=1 n=g#3 v=0
117920 On ch=1 n=c7 v=0
117925 Par ch=1 c=64 v=40
117930 On ch=1 n=a#6 v=79
117930 On ch=1 n=c5 v=72
117940 On ch=1 n=d#4 v=62
117940 On ch=1 n=g#4 v=44
117945 Par ch=1 c=64 v=104
117955 Par ch=1 c=64 v=127
117960 On ch=1 n=c5 v=0
117970 On ch=1 n=g#4 v=0
117985 On ch=1 n=d#4 v=0
118085 On ch=1 n=g#3 v=67
118140 On ch=1 n=g#3 v=0
118230 On ch=1 n=a#6 v=0
118245 On ch=1 n=g#6 v=82
118255 On ch=1 n=c5 v=70
118270 On ch=1 n=d#4 v=56
118285 On ch=1 n=c5 v=0
118295 On ch=1 n=d#4 v=0
118335 On ch=1 n=g#6 v=0
118410 On ch=1 n=g#3 v=60
118445 On ch=1 n=g#3 v=0
118570 On ch=1 n=f6 v=90
118575 On ch=1 n=c5 v=73
118575 On ch=1 n=d#4 v=65
118605 On ch=1 n=c5 v=0
118630 On ch=1 n=d#4 v=0
118695 Par ch=1 c=64 v=56
118710 Par ch=1 c=64 v=0
118740 On ch=1 n=g#3 v=67
118795 On ch=1 n=g#3 v=0
118805 Par ch=1 c=64 v=56
118820 Par ch=1 c=64 v=127
118855 On ch=1 n=f6 v=0
118900 On ch=1 n=d#6 v=85
118920 On ch=1 n=c#5 v=51
118925 On ch=1 n=d#4 v=50
118940 On ch=1 n=g4 v=40
118970 On ch=1 n=g4 v=0
118980 On ch=1 n=d#4 v=0
118980 On ch=1 n=c#5 v=0
119010 On ch=1 n=d#6 v=0
119065 On ch=1 n=d6 v=96
119070 On ch=1 n=g#3 v=73
119135 On ch=1 n=g#3 v=0
119150 On ch=1 n=d6 v=0
119220 On ch=1 n=d#6 v=89
119230 On ch=1 n=c#5 v=59
119230 On ch=1 n=d#4 v=64
119245 On ch=1 n=g4 v=53
119260 On ch=1 n=c#5 v=0
119275 On ch=1 n=g4 v=0
119295 On ch=1 n=d#4 v=0
119325 On ch=1 n=d#6 v=0
119385 On ch=1 n=g6 v=93
119390 On ch=1 n=g#3 v=69
119440 On ch=1 n=g#3 v=0
119485 On ch=1 n=g6 v=0
119545 On ch=1 n=f6 v=99
119555 On ch=1 n=d#4 v=61
119555 On ch=1 n=c#5 v=51
119565 On ch=1 n=g4 v=49
119585 On ch=1 n=c#5 v=0
119595 On ch=1 n=g4 v=0
119615 On ch=1 n=d#4 v=0
119640 On ch=1 n=f6 v=0
119690 On ch=1 n=c#6 v=90
119710 On ch=1 n=g#3 v=73
119765 On ch=1 n=g#3 v=0
119795 On ch=1 n=c#6 v=0
119825 Par ch=1 c=64 v=40
119845 Par ch=1 c=64 v=0
119880 On ch=1 n=c6 v=93
119890 On ch=1 n=c5 v=73
119895 On ch=1 n=g#4 v=57
119900 On ch=1 n=d#4 v=64
119925 On ch=1 n=g#4 v=0
119925 On ch=1 n=c5 v=0
119940 On ch=1 n=d#4 v=0
119955 Par ch=1 c=64 v=88
119970 Par ch=1 c=64 v=127
119980 On ch=1 n=c6 v=0
120065 On ch=1 n=g#3 v=71
120070 On ch=1 n=d#6 v=79
120080 On ch=1 n=d#5 v=67
120130 On ch=1 n=g#3 v=0
120150 On ch=1 n=d#5 v=0
120190 On ch=1 n=d#6 v=0
120240 On ch=1 n=c5 v=59
120245 On ch=1 n=d#4 v=55
120270 On ch=1 n=d#4 v=0
120270 On ch=1 n=c5 v=0
120400 On ch=1 n=g#3 v=67
120400 On ch=1 n=f6 v=96
120410 On ch=1 n=f5 v=81
120460 On ch=1 n=g#3 v=0
120480 On ch=1 n=f5 v=0
120535 On ch=1 n=f6 v=0
120560 On ch=1 n=c5 v=72
120565 On ch=1 n=d#4 v=64
120575 On ch=1 n=g#4 v=28
120585 On ch=1 n=c5 v=0
120595 On ch=1 n=d#4 v=0
120605 On ch=1 n=g#4 v=0
120715 On ch=1 n=g6 v=96
120720 On ch=1 n=g5 v=82
120810 On ch=1 n=g5 v=0
120820 Par ch=1 c=64 v=104
120835 Par ch=1 c=64 v=40
120850 Par ch=1 c=64 v=0
120895 On ch=1 n=d#4 v=58
120905 On ch=1 n=c#5 v=55
120910 On ch=1 n=g4 v=59
120940 On ch=1 n=g4 v=0
120945 On ch=1 n=g6 v=0
120945 Par ch=1 c=64 v=72
120955 On ch=1 n=c#5 v=0
120960 On ch=1 n=d#4 v=0
120965 Par ch=1 c=64 v=127
121040 Par ch=1 c=64 v=72
121055 On ch=1 n=g#3 v=76
121060 On ch=1 n=g#6 v=92
121060 Par ch=1 c=64 v=24
121070 On ch=1 n=g#5 v=84
121075 Par ch=1 c=64 v=0
121090 Par ch=1 c=64 v=24
121105 Par ch=1 c=64 v=56
121120 On ch=1 n=g#3 v=0
121120 Par ch=1 c=64 v=88
121135 Par ch=1 c=64 v=127
121155 On ch=1 n=g#5 v=0
121210 On ch=1 n=g#6 v=0
121220 On ch=1 n=d#4 v=63
121220 On ch=1 n=c#5 v=56
121235 On ch=1 n=g4 v=57
121260 On ch=1 n=g4 v=0
121260 On ch=1 n=c#5 v=0
121290 On ch=1 n=d#4 v=0
121385 On ch=1 n=a#6 v=87
121390 On ch=1 n=a#5 v=81
121390 On ch=1 n=g#3 v=70
121450 On ch=1 n=g#3 v=0
121465 On ch=1 n=a#5 v=0
121550 On ch=1 n=d#4 v=61
121550 On ch=1 n=c#5 v=59
121560 On ch=1 n=g4 v=59
121585 On ch=1 n=g4 v=0
121585 On ch=1 n=c#5 v=0
121600 On ch=1 n=a#6 v=0
121610 On ch=1 n=d#4 v=0
121705 On ch=1 n=c7 v=90
121710 On ch=1 n=c6 v=82
121715 On ch=1 n=g#3 v=65
121780 On ch=1 n=g#3 v=0
121810 Par ch=1 c=64 v=104
121825 Par ch=1 c=64 v=40
121840 Par ch=1 c=64 v=0
121875 On ch=1 n=c5 v=78
121880 On ch=1 n=c7 v=0
121880 On ch=1 n=g#4 v=56
121885 On ch=1 n=d#4 v=62
121890 On ch=1 n=c6 v=0
121905 On ch=1 n=g#4 v=0
121905 On ch=1 n=c5 v=0
121915 On ch=1 n=d#4 v=0
121935 Par ch=1 c=64 v=56
121950 Par ch=1 c=64 v=127
122000 Par ch=1 c=64 v=104
122015 Par ch=1 c=64 v=72
122030 On ch=1 n=a#6 v=81
122040 On ch=1 n=g#3 v=68
122045 On ch=1 n=a#5 v=70
122060 Par ch=1 c=64 v=88
122080 Par ch=1 c=64 v=127
122095 On ch=1 n=g#3 v=0
122160 On ch=1 n=a#5 v=0
122190 On ch=1 n=c5 v=71
122210 On ch=1 n=d#4 v=48
122220 On ch=1 n=c5 v=0
122235 On ch=1 n=d#4 v=0
122255 On ch=1 n=a#6 v=0
122350 On ch=1 n=g#6 v=87
122350 On ch=1 n=g#3 v=69
122355 On ch=1 n=g#5 v=78
122410 On ch=1 n=g#3 v=0
122425 On ch=1 n=g#5 v=0
122450 On ch=1 n=g#6 v=0
122505 On ch=1 n=c5 v=71
122515 On ch=1 n=d#4 v=55
122530 On ch=1 n=c5 v=0
122545 On ch=1 n=d#4 v=0
122655 On ch=1 n=f6 v=88
122660 On ch=1 n=g#3 v=59
122670 On ch=1 n=f5 v=66
122700 On ch=1 n=g5 v=30
122725 On ch=1 n=g#3 v=0
122730 On ch=1 n=g5 v=0
122760 On ch=1 n=f5 v=0
122760 On ch=1 n=f6 v=0
122765 Par ch=1 c=64 v=88
122785 Par ch=1 c=64 v=24
122800 Par ch=1 c=64 v=0
122815 On ch=1 n=d#4 v=58
122830 On ch=1 n=c#5 v=50
122835 On ch=1 n=g4 v=59
122860 On ch=1 n=g4 v=0
122860 On ch=1 n=c#5 v=0
122865 Par ch=1 c=64 v=24
122880 Par ch=1 c=64 v=72
122885 On ch=1 n=d#4 v=0
122895 Par ch=1 c=64 v=127
122980 On ch=1 n=d#5 v=77
122980 On ch=1 n=d#6 v=85
123005 On ch=1 n=g#3 v=47
123040 On ch=1 n=g#3 v=0
123050 On ch=1 n=d#5 v=0
123060 On ch=1 n=d#6 v=0
123135 On ch=1 n=c#5 v=52
123140 On ch=1 n=d6 v=86
123140 On ch=1 n=d#4 v=55
123150 On ch=1 n=d5 v=78
123165 On ch=1 n=c#5 v=0
123170 On ch=1 n=d#4 v=0
123175 On ch=1 n=d5 v=0
123190 On ch=1 n=d6 v=0
123280 On ch=1 n=d#5 v=78
123285 On ch=1 n=d#6 v=84
123290 On ch=1 n=g#3 v=71
123335 On ch=1 n=d#5 v=0
123350 On ch=1 n=g#3 v=0
123365 On ch=1 n=d#6 v=0
123450 On ch=1 n=c#5 v=47
123450 On ch=1 n=g6 v=90
123455 On ch=1 n=g5 v=73
123475 On ch=1 n=c#5 v=0
123485 On ch=1 n=g5 v=0
123505 On ch=1 n=g6 v=0
123595 On ch=1 n=g#3 v=73
123610 On ch=1 n=f6 v=91
123610 On ch=1 n=f5 v=79
123650 On ch=1 n=f5 v=0
123660 On ch=1 n=g#3 v=0
123665 On ch=1 n=f6 v=0
123770 On ch=1 n=c#6 v=84
123770 On ch=1 n=c#5 v=68
123795 On ch=1 n=c#5 v=0
123825 On ch=1 n=c#6 v=0
123900 Par ch=1 c=64 v=104
123915 Par ch=1 c=64 v=40
123930 On ch=1 n=c5 v=78
123930 On ch=1 n=c6 v=86
123935 Par ch=1 c=64 v=0
123965 On ch=1 n=g#3 v=61
123990 On ch=1 n=c5 v=0
124010 On ch=1 n=g#3 v=0
124015 Par ch=1 c=64 v=72
124030 Par ch=1 c=64 v=127
124050 On ch=1 n=c6 v=0
124130 On ch=1 n=d#6 v=92
124140 On ch=1 n=d#5 v=85
124140 On ch=1 n=c5 v=70
124140 On ch=1 n=d#4 v=70
124145 On ch=1 n=g#4 v=49
124165 On ch=1 n=c5 v=0
124170 On ch=1 n=d#4 v=0
124175 On ch=1 n=g#4 v=0
124185 On ch=1 n=d#5 v=0
124220 On ch=1 n=d#6 v=0
124435 On ch=1 n=g#6 v=90
124440 On ch=1 n=g#5 v=83
124450 On ch=1 n=c5 v=68
124455 On ch=1 n=d#4 v=67
124460 On ch=1 n=g#4 v=38
124480 On ch=1 n=c5 v=0
124485 On ch=1 n=d#4 v=0
124490 On ch=1 n=g#4 v=0
124495 On ch=1 n=g#5 v=0
124535 On ch=1 n=g#6 v=0
124590 On ch=1 n=g#3 v=73
124650 On ch=1 n=g#3 v=0
124720 Par ch=1 c=64 v=72
124735 Par ch=1 c=64 v=0
124740 On ch=1 n=a#6 v=87
124750 On ch=1 n=a#5 v=82
124755 On ch=1 n=c5 v=74
124765 On ch=1 n=d#4 v=61
124765 On ch=1 n=g#4 v=44
124780 On ch=1 n=c5 v=0
124795 On ch=1 n=g#4 v=0
124795 On ch=1 n=d#4 v=0
124795 Par ch=1 c=64 v=24
124805 On ch=1 n=a#5 v=0
124815 Par ch=1 c=64 v=72
124830 Par ch=1 c=64 v=127
124880 On ch=1 n=a#6 v=0
124895 On ch=1 n=g#3 v=71
124960 On ch=1 n=g#3 v=0
125055 On ch=1 n=c7 v=100
125055 On ch=1 n=c6 v=93
125065 On ch=1 n=c5 v=77
125070 On ch=1 n=d#4 v=69
125080 On ch=1 n=g#4 v=37
125095 On ch=1 n=c5 v=0
125110 On ch=1 n=g#4 v=0
125110 On ch=1 n=c6 v=0
125120 On ch=1 n=d#4 v=0
125145 On ch=1 n=c7 v=0
125210 On ch=1 n=g#3 v=76
125280 On ch=1 n=g#3 v=0
125355 On ch=1 n=d#7 v=93
125360 On ch=1 n=d#6 v=85
125375 On ch=1 n=c5 v=78
125385 On ch=1 n=d#4 v=67
125390 On ch=1 n=g#4 v=45
125410 On ch=1 n=c5 v=0
125415 On ch=1 n=g#4 v=0
125415 On ch=1 n=d#6 v=0
125420 On ch=1 n=d#4 v=0
125455 On ch=1 n=d#7 v=0
125520 On ch=1 n=g#3 v=71
125575 On ch=1 n=g#3 v=0
125660 On ch=1 n=g#7 v=96
125660 On ch=1 n=g#6 v=93
125680 On ch=1 n=c5 v=83
125680 On ch=1 n=d#4 v=74
125685 On ch=1 n=g#4 v=56
125705 On ch=1 n=c5 v=0
125710 On ch=1 n=g#4 v=0
125730 On ch=1 n=g#6 v=0
125735 On ch=1 n=d#4 v=0
125770 On ch=1 n=g#7 v=0
125815 On ch=1 n=g#3 v=80
125870 On ch=1 n=g#3 v=0
125960 On ch=1 n=a#7 v=95
125965 On ch=1 n=a#6 v=91
125970 On ch=1 n=c5 v=82
125970 On ch=1 n=d#4 v=77
125975 On ch=1 n=g#4 v=57
126000 On ch=1 n=c5 v=0
126005 On ch=1 n=g#4 v=0
126020 On ch=1 n=d#4 v=0
126030 On ch=1 n=a#6 v=0
126105 On ch=1 n=g#3 v=78
126160 On ch=1 n=g#3 v=0
126180 On ch=1 n=a#7 v=0
126235 Par ch=1 c=64 v=88
126250 Par ch=1 c=64 v=0
126280 On ch=1 n=c7 v=93
126280 On ch=1 n=d#4 v=82
126285 On ch=1 n=c8 v=105
126285 On ch=1 n=g#4 v=70
126285 On ch=1 n=c5 v=81
126315 Par ch=1 c=64 v=40
126320 On ch=1 n=c5 v=0
126330 On ch=1 n=g#4 v=0
126330 On ch=1 n=d#4 v=0
126330 Par ch=1 c=64 v=127
126345 On ch=1 n=c7 v=0
126365 On ch=1 n=c8 v=0
126715 Par ch=1 c=64 v=104
126730 Par ch=1 c=64 v=88
126745 Par ch=1 c=64 v=56
126760 Par ch=1 c=64 v=24
126780 Par ch=1 c=64 v=0
126905 Par ch=1 c=64 v=24
126920 Par ch=1 c=64 v=72
126940 Par ch=1 c=64 v=104
126955 Par ch=1 c=64 v=127
127005 On ch=1 n=g#5 v=96
127010 On ch=1 n=d#5 v=90
127020 On ch=1 n=c5 v=81
127020 On ch=1 n=g#4 v=75
127075 On ch=1 n=d#5 v=0
127080 On ch=1 n=c5 v=0
127090 On ch=1 n=g#4 v=0
127125 On ch=1 n=g#5 v=0
127320 Par ch=1 c=64 v=104
127340 Par ch=1 c=64 v=24
127355 Par ch=1 c=64 v=0
127390 On ch=1 n=g#4 v=71
127390 On ch=1 n=d#5 v=74
127390 On ch=1 n=g#5 v=96
127400 On ch=1 n=c5 v=89
127415 Par ch=1 c=64 v=72
127430 On ch=1 n=d#5 v=0
127435 Par ch=1 c=64 v=127
127440 On ch=1 n=g#4 v=0
127450 On ch=1 n=c5 v=0
127495 On ch=1 n=g#5 v=0
127685 On ch=1 n=g#2 v=83
127735 On ch=1 n=g#2 v=0
128015 On ch=1 n=g#6 v=103
128025 On ch=1 n=g#5 v=85
128030 On ch=1 n=c6 v=94
128035 On ch=1 n=g#4 v=77
128040 On ch=1 n=d#5 v=81
128080 On ch=1 n=g#5 v=0
128090 On ch=1 n=d#5 v=0
128090 On ch=1 n=g#4 v=0
128090 On ch=1 n=c6 v=0
128130 On ch=1 n=g#6 v=0
129235 Par ch=1 c=64 v=104
129255 Par ch=1 c=64 v=72
129270 Par ch=1 c=64 v=0
131041 Par ch=1 c=64 v=24
131061 Par ch=1 c=64 v=40
131081 Par ch=1 c=64 v=72
131101 Par ch=1 c=64 v=88
131121 Par ch=1 c=64 v=104
131141 Par ch=1 c=64 v=127
131171 On ch=1 n=g5 v=62
131186 On ch=1 n=g4 v=49
131201 On ch=1 n=a#3 v=44
131291 On ch=1 n=g5 v=0
131321 On ch=1 n=g4 v=0
131391 On ch=1 n=a#3 v=0
131681 On ch=1 n=f#5 v=63
131681 Par ch=1 c=64 v=88
131696 On ch=1 n=f#4 v=46
131701 Par ch=1 c=64 v=24
131721 On ch=1 n=a3 v=49
131721 Par ch=1 c=64 v=0
131731 On ch=1 n=d#3 v=37
131801 Par ch=1 c=64 v=72
131816 On ch=1 n=f#4 v=0
131816 Par ch=1 c=64 v=127
131861 On ch=1 n=f#5 v=0
132016 On ch=1 n=a3 v=0
132196 On ch=1 n=c6 v=70
132206 On ch=1 n=c5 v=55
132221 On ch=1 n=d#4 v=49
132321 On ch=1 n=c6 v=0
132361 On ch=1 n=c5 v=0
132626 On ch=1 n=d#4 v=0
132696 On ch=1 n=a5 v=67
132711 On ch=1 n=a4 v=41
132716 On ch=1 n=c4 v=49
132826 On ch=1 n=a5 v=0
132836 On ch=1 n=a4 v=0
132996 On ch=1 n=c4 v=0
133206 On ch=1 n=g#5 v=55
133226 On ch=1 n=g#4 v=42
133231 On ch=1 n=b3 v=42
133311 Par ch=1 c=64 v=88
133326 Par ch=1 c=64 v=0
133446 Par ch=1 c=64 v=72
133466 Par ch=1 c=64 v=127
133476 On ch=1 n=g#4 v=0
133496 On ch=1 n=g#5 v=0
133501 On ch=1 n=b3 v=0
133521 On ch=1 n=d#3 v=0
133746 On ch=1 n=g5 v=58
133771 On ch=1 n=g4 v=40
133771 On ch=1 n=d#3 v=45
133771 Par ch=1 c=64 v=104
133791 Par ch=1 c=64 v=40
133796 On ch=1 n=a#3 v=37
133811 Par ch=1 c=64 v=0
133911 Par ch=1 c=64 v=56
133926 Par ch=1 c=64 v=127
133966 On ch=1 n=g5 v=0
133986 On ch=1 n=d#3 v=0
134011 On ch=1 n=a#3 v=0
134181 On ch=1 n=g4 v=0
134231 On ch=1 n=d#5 v=78
134246 On ch=1 n=d#4 v=69
134376 On ch=1 n=d#4 v=0
134411 On ch=1 n=d#5 v=0
134471 On ch=1 n=c5 v=74
134471 On ch=1 n=c4 v=66
134616 On ch=1 n=c4 v=0
134701 On ch=1 n=c5 v=0
134736 On ch=1 n=a#4 v=73
134756 On ch=1 n=a#3 v=55
134781 Par ch=1 c=64 v=104
134801 Par ch=1 c=64 v=24
134821 Par ch=1 c=64 v=0
134916 Par ch=1 c=64 v=40
134936 Par ch=1 c=64 v=104
134946 On ch=1 n=a#3 v=0
134956 Par ch=1 c=64 v=127
134976 On ch=1 n=a#4 v=0
135366 On ch=1 n=a#5 v=61
135391 On ch=1 n=a#4 v=38
135401 Par ch=1 c=64 v=88
135406 On ch=1 n=g3 v=47
135421 Par ch=1 c=64 v=24
135441 Par ch=1 c=64 v=0
135536 Par ch=1 c=64 v=72
135556 Par ch=1 c=64 v=127
135646 On ch=1 n=a#4 v=0
135661 On ch=1 n=a#5 v=0
135681 On ch=1 n=g3 v=0
135896 On ch=1 n=a5 v=72
135906 On ch=1 n=f#3 v=50
135911 On ch=1 n=a4 v=48
135931 On ch=1 n=d#3 v=45
135941 Par ch=1 c=64 v=104
135961 Par ch=1 c=64 v=0
136066 On ch=1 n=a4 v=0
136076 Par ch=1 c=64 v=127
136116 On ch=1 n=a5 v=0
136416 On ch=1 n=d#6 v=84
136421 On ch=1 n=d#5 v=63
136446 On ch=1 n=c4 v=54
136456 On ch=1 n=f#3 v=0
136621 On ch=1 n=d#5 v=0
136626 On ch=1 n=d#6 v=0
136856 On ch=1 n=c4 v=0
136911 On ch=1 n=c6 v=78
136921 On ch=1 n=c5 v=62
136956 On ch=1 n=a3 v=52
137041 On ch=1 n=c6 v=0
137091 On ch=1 n=c5 v=0
137331 On ch=1 n=a3 v=0
137381 On ch=1 n=b5 v=70
137396 On ch=1 n=b4 v=54
137416 On ch=1 n=g#3 v=52
137451 Par ch=1 c=64 v=104
137471 Par ch=1 c=64 v=24
137491 Par ch=1 c=64 v=0
137551 On ch=1 n=b5 v=0
137566 On ch=1 n=b4 v=0
137571 Par ch=1 c=64 v=40
137586 Par ch=1 c=64 v=104
137596 On ch=1 n=g#3 v=0
137606 Par ch=1 c=64 v=127
137681 On ch=1 n=d#3 v=0
137881 On ch=1 n=a#5 v=64
137911 On ch=1 n=a#4 v=39
137931 On ch=1 n=d#3 v=34
137936 Par ch=1 c=64 v=88
137941 On ch=1 n=g3 v=36
137956 Par ch=1 c=64 v=24
137976 Par ch=1 c=64 v=0
138091 Par ch=1 c=64 v=88
138111 Par ch=1 c=64 v=127
138141 On ch=1 n=a#5 v=0
138166 On ch=1 n=g3 v=0
138191 On ch=1 n=d#3 v=0
138326 On ch=1 n=a#4 v=0
138401 On ch=1 n=d#5 v=83
138416 On ch=1 n=d#4 v=71
138526 On ch=1 n=d#4 v=0
138581 On ch=1 n=d#5 v=0
138631 On ch=1 n=c5 v=78
138651 On ch=1 n=c4 v=66
138771 On ch=1 n=c4 v=0
138856 On ch=1 n=c5 v=0
138886 On ch=1 n=a#4 v=75
138926 On ch=1 n=a#3 v=59
138961 Par ch=1 c=64 v=88
138981 Par ch=1 c=64 v=0
139136 Par ch=1 c=64 v=88
139156 Par ch=1 c=64 v=127
139166 On ch=1 n=a#4 v=0
139171 On ch=1 n=a#3 v=0
139551 On ch=1 n=g5 v=59
139581 Par ch=1 c=64 v=88
139586 On ch=1 n=g4 v=38
139586 On ch=1 n=a#3 v=29
139601 Par ch=1 c=64 v=24
139621 Par ch=1 c=64 v=0
139796 Par ch=1 c=64 v=56
139806 On ch=1 n=g5 v=0
139816 On ch=1 n=g4 v=0
139816 Par ch=1 c=64 v=127
139911 On ch=1 n=a#3 v=0
140071 On ch=1 n=f#5 v=58
140091 On ch=1 n=f#4 v=40
140101 On ch=1 n=a3 v=42
140111 On ch=1 n=d#3 v=29
140126 Par ch=1 c=64 v=40
140146 Par ch=1 c=64 v=0
140261 Par ch=1 c=64 v=88
140276 On ch=1 n=f#4 v=0
140281 Par ch=1 c=64 v=127
140316 On ch=1 n=f#5 v=0
140561 On ch=1 n=a3 v=0
140586 On ch=1 n=c6 v=75
140601 On ch=1 n=d#4 v=44
140606 On ch=1 n=c5 v=60
140731 On ch=1 n=c6 v=0
140771 On ch=1 n=c5 v=0
141031 On ch=1 n=d#4 v=0
141076 On ch=1 n=a5 v=70
141096 On ch=1 n=a4 v=48
141121 On ch=1 n=c4 v=48
141231 On ch=1 n=a4 v=0
141241 On ch=1 n=a5 v=0
141436 On ch=1 n=c4 v=0
141571 On ch=1 n=g#5 v=58
141596 On ch=1 n=g#4 v=45
141601 On ch=1 n=b3 v=48
141656 Par ch=1 c=64 v=24
141671 Par ch=1 c=64 v=0
141811 Par ch=1 c=64 v=88
141826 On ch=1 n=g#4 v=0
141826 Par ch=1 c=64 v=127
141836 On ch=1 n=g#5 v=0
141901 On ch=1 n=b3 v=0
142011 On ch=1 n=d#3 v=0
142081 Par ch=1 c=64 v=88
142101 On ch=1 n=g5 v=62
142101 Par ch=1 c=64 v=0
142126 On ch=1 n=g4 v=42
142146 On ch=1 n=d#3 v=34
142176 On ch=1 n=a#3 v=43
142216 Par ch=1 c=64 v=56
142236 Par ch=1 c=64 v=127
142356 On ch=1 n=g5 v=0
142426 On ch=1 n=a#3 v=0
142551 On ch=1 n=g4 v=0
142601 On ch=1 n=d#5 v=77
142611 On ch=1 n=d#4 v=76
142761 On ch=1 n=d#4 v=0
142791 On ch=1 n=d#5 v=0
142831 On ch=1 n=c5 v=75
142851 On ch=1 n=c4 v=69
143016 On ch=1 n=c4 v=0
143066 On ch=1 n=c5 v=0
143086 On ch=1 n=a#4 v=75
143111 On ch=1 n=a#3 v=56
143166 Par ch=1 c=64 v=56
143181 Par ch=1 c=64 v=0
143316 Par ch=1 c=64 v=40
143336 Par ch=1 c=64 v=104
143356 Par ch=1 c=64 v=127
143361 On ch=1 n=a#3 v=0
143361 On ch=1 n=a#4 v=0
143666 On ch=1 n=a#5 v=62
143666 Par ch=1 c=64 v=40
143686 Par ch=1 c=64 v=0
143691 On ch=1 n=a#4 v=37
143696 On ch=1 n=g3 v=49
143801 Par ch=1 c=64 v=40
143821 Par ch=1 c=64 v=104
143841 Par ch=1 c=64 v=127
143851 On ch=1 n=d#3 v=0
143901 On ch=1 n=g3 v=0
143911 On ch=1 n=a#5 v=0
143916 On ch=1 n=a#4 v=0
144151 On ch=1 n=a5 v=66
144156 On ch=1 n=f#3 v=53
144161 On ch=1 n=d#3 v=48
144176 On ch=1 n=a4 v=43
144191 Par ch=1 c=64 v=88
144206 Par ch=1 c=64 v=0
144346 On ch=1 n=a4 v=0
144366 Par ch=1 c=64 v=56
144386 On ch=1 n=a5 v=0
144386 Par ch=1 c=64 v=127
144666 On ch=1 n=d#6 v=75
144671 On ch=1 n=c4 v=57
144681 On ch=1 n=d#5 v=55
144721 On ch=1 n=f#3 v=0
144836 On ch=1 n=d#6 v=0
144851 On ch=1 n=d#5 v=0
145031 On ch=1 n=c4 v=0
145156 On ch=1 n=c6 v=75
145176 On ch=1 n=c5 v=60
145186 On ch=1 n=a3 v=58
145326 On ch=1 n=c6 v=0
145341 On ch=1 n=c5 v=0
145591 On ch=1 n=a3 v=0
145636 On ch=1 n=b5 v=69
145651 On ch=1 n=b4 v=53
145671 On ch=1 n=g#3 v=44
145736 Par ch=1 c=64 v=56
145761 Par ch=1 c=64 v=0
145826 On ch=1 n=b4 v=0
145831 On ch=1 n=b5 v=0
145856 Par ch=1 c=64 v=24
145876 Par ch=1 c=64 v=88
145891 On ch=1 n=g#3 v=0
145896 Par ch=1 c=64 v=127
145986 On ch=1 n=d#3 v=0
146146 On ch=1 n=a#5 v=60
146171 On ch=1 n=a#4 v=38
146186 On ch=1 n=d#3 v=31
146191 On ch=1 n=g3 v=42
146201 Par ch=1 c=64 v=88
146226 Par ch=1 c=64 v=24
146246 Par ch=1 c=64 v=0
146321 Par ch=1 c=64 v=24
146341 Par ch=1 c=64 v=88
146361 Par ch=1 c=64 v=127
146431 On ch=1 n=a#5 v=0
146446 On ch=1 n=g3 v=0
146576 On ch=1 n=a#4 v=0
146606 On ch=1 n=d#5 v=76
146621 On ch=1 n=d#4 v=62
146786 On ch=1 n=d#4 v=0
146811 On ch=1 n=d#5 v=0
146861 On ch=1 n=c5 v=74
146866 On ch=1 n=c4 v=69
147041 On ch=1 n=c4 v=0
147106 On ch=1 n=c5 v=0
147141 On ch=1 n=a#4 v=64
147181 On ch=1 n=a#3 v=52
147211 Par ch=1 c=64 v=88
147231 Par ch=1 c=64 v=0
147366 Par ch=1 c=64 v=40
147386 Par ch=1 c=64 v=127
147411 On ch=1 n=a#3 v=0
147416 On ch=1 n=a#4 v=0
147421 On ch=1 n=d#3 v=0
147846 On ch=1 n=a#6 v=77
147856 On ch=1 n=a#5 v=56
147876 On ch=1 n=d#6 v=56
147886 On ch=1 n=g3 v=48
147901 On ch=1 n=g2 v=37
147926 Par ch=1 c=64 v=104
147946 Par ch=1 c=64 v=24
147966 Par ch=1 c=64 v=0
148061 Par ch=1 c=64 v=88
148086 Par ch=1 c=64 v=127
148101 On ch=1 n=g2 v=0
148101 On ch=1 n=a#5 v=0
148111 On ch=1 n=g3 v=0
148116 On ch=1 n=d#6 v=0
148166 On ch=1 n=a#6 v=0
148476 On ch=1 n=c7 v=75
148486 On ch=1 n=d#6 v=55
148486 On ch=1 n=c6 v=58
148526 On ch=1 n=g#3 v=32
148526 On ch=1 n=g#2 v=39
148566 Par ch=1 c=64 v=56
148586 Par ch=1 c=64 v=0
148666 On ch=1 n=c7 v=0
148681 Par ch=1 c=64 v=72
148701 Par ch=1 c=64 v=127
148731 On ch=1 n=g#2 v=0
148731 On ch=1 n=g#3 v=0
148736 On ch=1 n=c6 v=0
148736 On ch=1 n=d#6 v=0
149081 On ch=1 n=f6 v=73
149101 On ch=1 n=f5 v=36
149106 On ch=1 n=d6 v=57
149126 On ch=1 n=a#2 v=37
149131 On ch=1 n=a#3 v=33
149246 Par ch=1 c=64 v=88
149261 Par ch=1 c=64 v=24
149281 Par ch=1 c=64 v=0
149476 Par ch=1 c=64 v=24
149496 Par ch=1 c=64 v=72
149516 Par ch=1 c=64 v=127
149666 On ch=1 n=f5 v=0
149676 On ch=1 n=f6 v=0
149736 On ch=1 n=d6 v=0
149751 On ch=1 n=a#2 v=0
149766 On ch=1 n=a#3 v=0
150116 On ch=1 n=g6 v=75
150131 On ch=1 n=g5 v=57
150141 On ch=1 n=d6 v=61
150151 On ch=1 n=b3 v=51
150151 On ch=1 n=b2 v=49
150156 Par ch=1 c=64 v=56
150176 Par ch=1 c=64 v=0
150251 Par ch=1 c=64 v=24
150271 Par ch=1 c=64 v=88
150291 Par ch=1 c=64 v=127
150306 On ch=1 n=b2 v=0
150326 On ch=1 n=b3 v=0
150366 On ch=1 n=d6 v=0
150371 On ch=1 n=g6 v=0
150391 On ch=1 n=g5 v=0
150671 On ch=1 n=c4 v=45
150671 On ch=1 n=c6 v=64
150671 On ch=1 n=d#6 v=72
150676 On ch=1 n=g5 v=42
150696 Par ch=1 c=64 v=72
150706 On ch=1 n=c3 v=42
150716 Par ch=1 c=64 v=0
150811 Par ch=1 c=64 v=24
150831 Par ch=1 c=64 v=88
150836 On ch=1 n=c6 v=0
150851 On ch=1 n=c3 v=0
150851 Par ch=1 c=64 v=127
150856 On ch=1 n=c4 v=0
150861 On ch=1 n=g5 v=0
150876 On ch=1 n=d#6 v=0
151206 On ch=1 n=d#5 v=78
151231 On ch=1 n=a5 v=65
151251 On ch=1 n=f4 v=48
151256 Par ch=1 c=64 v=40
151266 On ch=1 n=f3 v=40
151276 Par ch=1 c=64 v=0
151376 Par ch=1 c=64 v=72
151396 Par ch=1 c=64 v=127
151471 On ch=1 n=a5 v=0
151476 On ch=1 n=c5 v=82
151511 On ch=1 n=d#5 v=0
151616 On ch=1 n=c5 v=0
151686 On ch=1 n=f4 v=0
151756 On ch=1 n=f3 v=0
151806 On ch=1 n=a#4 v=71
151811 On ch=1 n=f4 v=11
151841 On ch=1 n=a#3 v=43
151851 On ch=1 n=d5 v=60
151861 On ch=1 n=a#5 v=50
151896 Par ch=1 c=64 v=104
151916 Par ch=1 c=64 v=24
151936 Par ch=1 c=64 v=0
152071 Par ch=1 c=64 v=56
152076 On ch=1 n=f4 v=0
152091 On ch=1 n=d5 v=0
152091 Par ch=1 c=64 v=127
152096 On ch=1 n=a#4 v=0
152111 On ch=1 n=a#3 v=0
152141 On ch=1 n=a#5 v=0
152486 On ch=1 n=a#6 v=73
152506 On ch=1 n=a#5 v=44
152511 On ch=1 n=d#6 v=58
152531 On ch=1 n=g3 v=51
152541 On ch=1 n=g2 v=38
152556 Par ch=1 c=64 v=56
152576 Par ch=1 c=64 v=0
152671 Par ch=1 c=64 v=56
152691 Par ch=1 c=64 v=127
152721 On ch=1 n=d#6 v=0
152726 On ch=1 n=a#5 v=0
152741 On ch=1 n=g2 v=0
152756 On ch=1 n=g3 v=0
152786 On ch=1 n=a#6 v=0
153036 On ch=1 n=c7 v=77
153051 On ch=1 n=d#6 v=54
153056 On ch=1 n=c6 v=55
153061 On ch=1 n=g#3 v=39
153061 Par ch=1 c=64 v=104
153071 On ch=1 n=g#2 v=45
153076 Par ch=1 c=64 v=40
153096 Par ch=1 c=64 v=0
153176 On ch=1 n=c7 v=0
153176 Par ch=1 c=64 v=40
153191 Par ch=1 c=64 v=104
153211 Par ch=1 c=64 v=127
153231 On ch=1 n=g#2 v=0
153241 On ch=1 n=d#6 v=0
153251 On ch=1 n=g#3 v=0
153256 On ch=1 n=c6 v=0
153631 On ch=1 n=f6 v=74
153646 On ch=1 n=f5 v=51
153651 On ch=1 n=d6 v=59
153651 On ch=1 n=a#3 v=46
153656 On ch=1 n=a#2 v=39
153796 Par ch=1 c=64 v=56
153816 Par ch=1 c=64 v=0
154006 Par ch=1 c=64 v=40
154026 Par ch=1 c=64 v=104
154046 Par ch=1 c=64 v=127
154251 On ch=1 n=f5 v=0
154276 On ch=1 n=f6 v=0
154306 On ch=1 n=a#2 v=0
154326 On ch=1 n=a#3 v=0
154346 On ch=1 n=d6 v=0
154601 On ch=1 n=g6 v=79
154626 On ch=1 n=g5 v=58
154631 On ch=1 n=d6 v=63
154661 On ch=1 n=b3 v=42
154666 On ch=1 n=b2 v=43
154686 Par ch=1 c=64 v=56
154706 Par ch=1 c=64 v=0
154781 Par ch=1 c=64 v=56
154801 Par ch=1 c=64 v=127
154841 On ch=1 n=b2 v=0
154861 On ch=1 n=d6 v=0
154881 On ch=1 n=b3 v=0
154921 On ch=1 n=g5 v=0
154946 On ch=1 n=g6 v=0
155166 On ch=1 n=g5 v=53
155166 On ch=1 n=c4 v=47
155166 On ch=1 n=c6 v=59
155166 On ch=1 n=d#6 v=71
155216 On ch=1 n=c3 v=41
155226 Par ch=1 c=64 v=40
155246 Par ch=1 c=64 v=0
155326 On ch=1 n=c6 v=0
155346 Par ch=1 c=64 v=72
155361 Par ch=1 c=64 v=127
155381 On ch=1 n=c3 v=0
155381 On ch=1 n=d#6 v=0
155381 On ch=1 n=c4 v=0
155391 On ch=1 n=g5 v=0
155756 On ch=1 n=d#5 v=68
155766 On ch=1 n=a5 v=66
155771 Par ch=1 c=64 v=104
155791 On ch=1 n=d4 v=39
155791 Par ch=1 c=64 v=24
155796 On ch=1 n=d3 v=33
155811 Par ch=1 c=64 v=0
155821 On ch=1 n=d5 v=25
155866 On ch=1 n=d5 v=0
155886 On ch=1 n=d#5 v=0
155906 Par ch=1 c=64 v=56
155926 Par ch=1 c=64 v=127
156036 On ch=1 n=c5 v=80
156191 On ch=1 n=c5 v=0
156236 On ch=1 n=a5 v=0
156281 On ch=1 n=d4 v=0
156306 On ch=1 n=d3 v=0
156391 On ch=1 n=a#4 v=64
156451 On ch=1 n=g3 v=40
156466 On ch=1 n=g5 v=39
156466 On ch=1 n=d4 v=38
156481 On ch=1 n=d5 v=19
156506 Par ch=1 c=64 v=56
156526 Par ch=1 c=64 v=0
156671 On ch=1 n=d5 v=0
156676 On ch=1 n=d4 v=0
156681 Par ch=1 c=64 v=56
156691 On ch=1 n=a#4 v=0
156701 On ch=1 n=g3 v=0
156701 Par ch=1 c=64 v=104
156721 On ch=1 n=g5 v=0
156721 Par ch=1 c=64 v=127
157101 On ch=1 n=a#6 v=74
157111 On ch=1 n=a#5 v=50
157121 On ch=1 n=d#6 v=54
157146 Par ch=1 c=64 v=88
157151 On ch=1 n=g3 v=44
157166 On ch=1 n=g2 v=41
157166 Par ch=1 c=64 v=0
157281 Par ch=1 c=64 v=56
157301 Par ch=1 c=64 v=127
157321 On ch=1 n=a#5 v=0
157331 On ch=1 n=d#6 v=0
157346 On ch=1 n=g2 v=0
157346 On ch=1 n=g3 v=0
157391 On ch=1 n=a#6 v=0
157661 On ch=1 n=c7 v=78
157671 On ch=1 n=d#6 v=58
157681 On ch=1 n=c6 v=63
157701 On ch=1 n=g#2 v=43
157711 On ch=1 n=g#3 v=34
157726 Par ch=1 c=64 v=88
157746 Par ch=1 c=64 v=24
157766 Par ch=1 c=64 v=0
157821 Par ch=1 c=64 v=72
157831 On ch=1 n=c7 v=0
157841 Par ch=1 c=64 v=127
157901 On ch=1 n=d#6 v=0
157916 On ch=1 n=c6 v=0
157961 On ch=1 n=g#2 v=0
157981 On ch=1 n=g#3 v=0
158331 On ch=1 n=f6 v=68
158341 On ch=1 n=f5 v=49
158356 On ch=1 n=d6 v=59
158371 On ch=1 n=a#3 v=35
158371 On ch=1 n=a#2 v=32
158541 Par ch=1 c=64 v=88
158561 Par ch=1 c=64 v=24
158576 Par ch=1 c=64 v=0
158711 Par ch=1 c=64 v=72
158731 Par ch=1 c=64 v=127
158956 On ch=1 n=f5 v=0
158976 On ch=1 n=f6 v=0
159026 On ch=1 n=d6 v=0
159086 On ch=1 n=a#2 v=0
159101 On ch=1 n=a#3 v=0
159401 On ch=1 n=g6 v=64
159411 Par ch=1 c=64 v=104
159421 On ch=1 n=g5 v=44
159426 On ch=1 n=d6 v=58
159431 Par ch=1 c=64 v=40
159436 On ch=1 n=b3 v=45
159436 On ch=1 n=b2 v=46
159451 Par ch=1 c=64 v=0
159546 Par ch=1 c=64 v=56
159566 Par ch=1 c=64 v=127
159601 On ch=1 n=b2 v=0
159636 On ch=1 n=b3 v=0
159636 On ch=1 n=d6 v=0
159661 On ch=1 n=g6 v=0
159711 On ch=1 n=g5 v=0
159951 On ch=1 n=d#6 v=65
159981 On ch=1 n=c6 v=55
159981 On ch=1 n=g5 v=42
159986 On ch=1 n=c4 v=49
159991 Par ch=1 c=64 v=72
160001 On ch=1 n=c3 v=42
160011 Par ch=1 c=64 v=0
160106 Par ch=1 c=64 v=56
160126 Par ch=1 c=64 v=127
160131 On ch=1 n=c6 v=0
160136 On ch=1 n=d#6 v=0
160141 On ch=1 n=c3 v=0
160166 On ch=1 n=c4 v=0
160166 On ch=1 n=g5 v=0
160496 On ch=1 n=d#5 v=76
160516 On ch=1 n=a5 v=72
160536 On ch=1 n=f4 v=51
160546 On ch=1 n=f3 v=39
160551 Par ch=1 c=64 v=40
160571 Par ch=1 c=64 v=0
160666 Par ch=1 c=64 v=40
160686 Par ch=1 c=64 v=104
160711 Par ch=1 c=64 v=127
160766 On ch=1 n=a5 v=0
160771 On ch=1 n=c5 v=79
160806 On ch=1 n=d#5 v=0
160896 On ch=1 n=c5 v=0
161041 On ch=1 n=f3 v=0
161121 On ch=1 n=a#4 v=69
161146 On ch=1 n=a#3 v=44
161156 On ch=1 n=d5 v=59
161161 On ch=1 n=a#5 v=44
161191 Par ch=1 c=64 v=88
161211 Par ch=1 c=64 v=0
161366 Par ch=1 c=64 v=88
161386 Par ch=1 c=64 v=127
161391 On ch=1 n=d5 v=0
161391 On ch=1 n=f4 v=0
161396 On ch=1 n=a#4 v=0
161416 On ch=1 n=a#3 v=0
161446 On ch=1 n=a#5 v=0
161741 On ch=1 n=a#6 v=74
161746 On ch=1 n=a#5 v=48
161756 On ch=1 n=d#6 v=55
161771 Par ch=1 c=64 v=104
161791 Par ch=1 c=64 v=40
161801 On ch=1 n=g3 v=44
161806 On ch=1 n=g2 v=39
161811 Par ch=1 c=64 v=0
161891 Par ch=1 c=64 v=56
161906 Par ch=1 c=64 v=127
161966 On ch=1 n=a#5 v=0
161976 On ch=1 n=d#6 v=0
161981 On ch=1 n=g2 v=0
161981 On ch=1 n=g3 v=0
162031 On ch=1 n=a#6 v=0
162271 On ch=1 n=c7 v=80
162286 On ch=1 n=d#6 v=61
162291 On ch=1 n=c6 v=59
162296 Par ch=1 c=64 v=104
162311 On ch=1 n=g#3 v=36
162316 On ch=1 n=g#2 v=42
162316 Par ch=1 c=64 v=24
162336 Par ch=1 c=64 v=0
162411 Par ch=1 c=64 v=40
162431 Par ch=1 c=64 v=127
162441 On ch=1 n=c7 v=0
162496 On ch=1 n=g#2 v=0
162516 On ch=1 n=g#3 v=0
162516 On ch=1 n=d#6 v=0
162521 On ch=1 n=c6 v=0
162891 On ch=1 n=f6 v=76
162921 On ch=1 n=f5 v=44
162926 On ch=1 n=d6 v=50
162931 On ch=1 n=a#2 v=34
162941 On ch=1 n=a#3 v=30
163131 Par ch=1 c=64 v=88
163146 Par ch=1 c=64 v=0
163321 Par ch=1 c=64 v=72
163341 Par ch=1 c=64 v=127
163471 On ch=1 n=f5 v=0
163471 On ch=1 n=f6 v=0
163561 On ch=1 n=d6 v=0
163616 On ch=1 n=a#2 v=0
163651 On ch=1 n=a#3 v=0
163911 On ch=1 n=g6 v=70
163921 On ch=1 n=g5 v=54
163936 On ch=1 n=d6 v=59
163956 On ch=1 n=b3 v=41
163961 On ch=1 n=b2 v=44
163961 Par ch=1 c=64 v=88
163981 Par ch=1 c=64 v=0
164096 Par ch=1 c=64 v=56
164116 Par ch=1 c=64 v=127
164161 On ch=1 n=b2 v=0
164166 On ch=1 n=d6 v=0
164206 On ch=1 n=b3 v=0
164231 On ch=1 n=g5 v=0
164246 On ch=1 n=g6 v=0
164451 On ch=1 n=d#6 v=67
164456 On ch=1 n=g5 v=45
164456 On ch=1 n=c4 v=51
164456 On ch=1 n=c6 v=54
164506 Par ch=1 c=64 v=88
164511 On ch=1 n=c3 v=39
164521 Par ch=1 c=64 v=0
164591 On ch=1 n=c6 v=0
164621 Par ch=1 c=64 v=40
164641 On ch=1 n=g5 v=0
164641 Par ch=1 c=64 v=88
164646 On ch=1 n=d#6 v=0
164661 On ch=1 n=c4 v=0
164661 Par ch=1 c=64 v=127
164671 On ch=1 n=c3 v=0
165021 On ch=1 n=d#5 v=74
165036 On ch=1 n=f#5 v=56
165036 On ch=1 n=a5 v=71
165051 On ch=1 n=d4 v=55
165066 Par ch=1 c=64 v=56
165076 On ch=1 n=d3 v=37
165086 Par ch=1 c=64 v=0
165181 Par ch=1 c=64 v=24
165201 Par ch=1 c=64 v=104
165221 Par ch=1 c=64 v=127
165271 On ch=1 n=f#5 v=0
165311 On ch=1 n=d#5 v=0
165326 On ch=1 n=c5 v=77
165426 On ch=1 n=a5 v=0
165466 On ch=1 n=c5 v=0
165481 On ch=1 n=d3 v=0
165716 On ch=1 n=a#4 v=66
165766 On ch=1 n=g3 v=40
165766 On ch=1 n=g5 v=47
165776 On ch=1 n=d5 v=40
165821 Par ch=1 c=64 v=104
165841 Par ch=1 c=64 v=56
165861 Par ch=1 c=64 v=0
166091 Par ch=1 c=64 v=40
166111 Par ch=1 c=64 v=104
166131 Par ch=1 c=64 v=127
166141 On ch=1 n=d5 v=0
166146 On ch=1 n=g5 v=0
166166 On ch=1 n=d4 v=0
166181 On ch=1 n=g3 v=0
166181 On ch=1 n=a#4 v=0
166536 On ch=1 n=g5 v=63
166551 On ch=1 n=g4 v=53
166576 On ch=1 n=a#3 v=37
166616 Par ch=1 c=64 v=56
166636 Par ch=1 c=64 v=0
166731 Par ch=1 c=64 v=24
166751 Par ch=1 c=64 v=88
166771 Par ch=1 c=64 v=127
166781 On ch=1 n=g4 v=0
166796 On ch=1 n=g5 v=0
166926 On ch=1 n=a#3 v=0
167111 On ch=1 n=f#5 v=63
167126 On ch=1 n=f#4 v=48
167141 On ch=1 n=a3 v=52
167156 On ch=1 n=d#3 v=37
167156 Par ch=1 c=64 v=104
167176 Par ch=1 c=64 v=24
167196 Par ch=1 c=64 v=0
167271 Par ch=1 c=64 v=56
167286 On ch=1 n=f#4 v=0
167291 Par ch=1 c=64 v=127
167321 On ch=1 n=f#5 v=0
167621 On ch=1 n=c6 v=73
167641 On ch=1 n=c5 v=60
167646 On ch=1 n=d#4 v=52
167661 On ch=1 n=a3 v=0
167731 On ch=1 n=c6 v=0
167761 On ch=1 n=c5 v=0
168136 On ch=1 n=c4 v=54
168136 On ch=1 n=a5 v=74
168136 On ch=1 n=a4 v=56
168156 On ch=1 n=d#4 v=0
168241 On ch=1 n=a4 v=0
168241 On ch=1 n=a5 v=0
168401 On ch=1 n=c4 v=0
168576 On ch=1 n=d#3 v=0
168626 On ch=1 n=g#5 v=67
168626 Par ch=1 c=64 v=72
168631 On ch=1 n=g#4 v=49
168636 On ch=1 n=b3 v=49
168651 Par ch=1 c=64 v=24
168666 Par ch=1 c=64 v=0
168746 Par ch=1 c=64 v=24
168766 Par ch=1 c=64 v=88
168786 Par ch=1 c=64 v=127
168811 On ch=1 n=g#4 v=0
168831 On ch=1 n=g#5 v=0
168891 On ch=1 n=b3 v=0
169141 On ch=1 n=g5 v=63
169166 On ch=1 n=g4 v=47
169171 On ch=1 n=a#3 v=44
169171 On ch=1 n=d#3 v=32
169251 Par ch=1 c=64 v=72
169266 Par ch=1 c=64 v=0
169386 Par ch=1 c=64 v=24
169406 Par ch=1 c=64 v=88
169421 Par ch=1 c=64 v=127
169501 On ch=1 n=g5 v=0
169631 On ch=1 n=a#3 v=0
169641 On ch=1 n=d#5 v=79
169666 On ch=1 n=d#4 v=60
169851 On ch=1 n=d#5 v=0
169891 On ch=1 n=c5 v=75
169926 On ch=1 n=c4 v=69
169931 On ch=1 n=d#4 v=0
170121 On ch=1 n=c4 v=0
170151 On ch=1 n=c5 v=0
170151 On ch=1 n=a#4 v=76
170161 On ch=1 n=g4 v=0
170176 On ch=1 n=a#3 v=54
170236 Par ch=1 c=64 v=88
170256 Par ch=1 c=64 v=0
170411 Par ch=1 c=64 v=72
170431 Par ch=1 c=64 v=127
170441 On ch=1 n=a#3 v=0
170446 On ch=1 n=a#4 v=0
170776 On ch=1 n=a#5 v=67
170801 On ch=1 n=a#4 v=39
170801 On ch=1 n=g3 v=56
170811 On ch=1 n=d#3 v=0
170816 Par ch=1 c=64 v=88
170836 Par ch=1 c=64 v=24
170856 Par ch=1 c=64 v=0
170951 Par ch=1 c=64 v=56
170971 Par ch=1 c=64 v=127
171036 On ch=1 n=a#4 v=0
171046 On ch=1 n=g3 v=0
171051 On ch=1 n=a#5 v=0
171296 On ch=1 n=a5 v=73
171306 On ch=1 n=a4 v=52
171316 On ch=1 n=f#3 v=42
171341 On ch=1 n=d#3 v=34
171361 Par ch=1 c=64 v=72
171376 Par ch=1 c=64 v=0
171481 On ch=1 n=a4 v=0
171496 Par ch=1 c=64 v=88
171516 Par ch=1 c=64 v=127
171531 On ch=1 n=a5 v=0
171801 On ch=1 n=d#6 v=81
171821 On ch=1 n=d#5 v=58
171836 On ch=1 n=c4 v=58
171906 On ch=1 n=f#3 v=0
172001 On ch=1 n=d#6 v=0
172036 On ch=1 n=d#5 v=0
172241 On ch=1 n=c4 v=0
172286 On ch=1 n=c6 v=82
172311 On ch=1 n=c5 v=65
172336 On ch=1 n=a3 v=60
172466 On ch=1 n=c6 v=0
172496 On ch=1 n=c5 v=0
172756 On ch=1 n=a3 v=0
172766 On ch=1 n=b5 v=76
172781 On ch=1 n=b4 v=59
172796 On ch=1 n=g#3 v=50
172851 Par ch=1 c=64 v=88
172866 Par ch=1 c=64 v=24
172886 Par ch=1 c=64 v=0
172946 Par ch=1 c=64 v=24
172966 Par ch=1 c=64 v=88
172976 On ch=1 n=b5 v=0
172986 On ch=1 n=b4 v=0
172986 Par ch=1 c=64 v=127
173061 On ch=1 n=g#3 v=0
173091 On ch=1 n=d#3 v=0
173266 On ch=1 n=a#5 v=70
173286 On ch=1 n=a#4 v=47
173301 On ch=1 n=g3 v=60
173331 On ch=1 n=d#3 v=31
173351 Par ch=1 c=64 v=104
173376 Par ch=1 c=64 v=40
173396 Par ch=1 c=64 v=0
173511 Par ch=1 c=64 v=56
173526 Par ch=1 c=64 v=127
173571 On ch=1 n=a#5 v=0
173641 On ch=1 n=g3 v=0
173706 On ch=1 n=a#4 v=0
173741 On ch=1 n=d#5 v=80
173756 On ch=1 n=d#4 v=61
173946 On ch=1 n=d#4 v=0
173961 On ch=1 n=d#5 v=0
173986 On ch=1 n=c5 v=78
174016 On ch=1 n=c4 v=68
174211 On ch=1 n=c4 v=0
174266 On ch=1 n=c5 v=0
174266 On ch=1 n=a#4 v=73
174281 On ch=1 n=a#3 v=56
174341 Par ch=1 c=64 v=88
174361 Par ch=1 c=64 v=0
174476 Par ch=1 c=64 v=40
174496 Par ch=1 c=64 v=127
174556 On ch=1 n=a#4 v=0
174571 On ch=1 n=a#3 v=0
174631 On ch=1 n=d#3 v=0
174796 On ch=1 n=g5 v=82
174811 On ch=1 n=g4 v=66
174821 On ch=1 n=a#3 v=58
174846 Par ch=1 c=64 v=72
174866 Par ch=1 c=64 v=0
174941 Par ch=1 c=64 v=24
174961 Par ch=1 c=64 v=88
174981 Par ch=1 c=64 v=127
175006 On ch=1 n=g4 v=0
175016 On ch=1 n=g5 v=0
175121 On ch=1 n=a#3 v=0
175296 On ch=1 n=f#5 v=85
175306 On ch=1 n=f#4 v=71
175316 On ch=1 n=a3 v=61
175336 On ch=1 n=d#3 v=37
175351 Par ch=1 c=64 v=56
175366 Par ch=1 c=64 v=0
175426 Par ch=1 c=64 v=24
175446 Par ch=1 c=64 v=88
175461 On ch=1 n=f#4 v=0
175466 Par ch=1 c=64 v=127
175506 On ch=1 n=f#5 v=0
175796 On ch=1 n=c6 v=87
175801 On ch=1 n=c5 v=74
175811 On ch=1 n=a3 v=0
175811 On ch=1 n=d#4 v=56
175906 On ch=1 n=c5 v=0
175906 On ch=1 n=c6 v=0
176221 On ch=1 n=d#4 v=0
176261 On ch=1 n=a5 v=86
176271 On ch=1 n=a4 v=67
176281 On ch=1 n=c4 v=65
176356 On ch=1 n=a4 v=0
176376 On ch=1 n=a5 v=0
176571 On ch=1 n=c4 v=0
176751 On ch=1 n=g#5 v=81
176756 On ch=1 n=g#4 v=76
176761 On ch=1 n=b3 v=64
176851 On ch=1 n=g#4 v=0
176866 On ch=1 n=d#3 v=0
176881 On ch=1 n=g#5 v=0
176901 On ch=1 n=b3 v=0
177221 On ch=1 n=g5 v=85
177226 On ch=1 n=g4 v=81
177226 Par ch=1 c=64 v=104
177231 On ch=1 n=a#3 v=73
177236 On ch=1 n=d#3 v=53
177246 Par ch=1 c=64 v=24
177266 Par ch=1 c=64 v=0
177381 Par ch=1 c=64 v=40
177401 Par ch=1 c=64 v=127
177611 On ch=1 n=g5 v=0
177631 On ch=1 n=a#3 v=0
177701 On ch=1 n=d#4 v=67
177701 On ch=1 n=d#5 v=78
177871 On ch=1 n=d#4 v=0
177891 On ch=1 n=d#5 v=0
177911 On ch=1 n=g4 v=0
177931 On ch=1 n=c5 v=87
177966 On ch=1 n=c4 v=67
178146 On ch=1 n=c4 v=0
178166 On ch=1 n=c5 v=0
178191 On ch=1 n=a#4 v=83
178201 On ch=1 n=a#3 v=64
178216 Par ch=1 c=64 v=56
178231 Par ch=1 c=64 v=0
178331 On ch=1 n=a#4 v=0
178331 Par ch=1 c=64 v=56
178351 Par ch=1 c=64 v=127
178366 On ch=1 n=a#3 v=0
178661 Par ch=1 c=64 v=88
178666 On ch=1 n=a#5 v=89
178681 On ch=1 n=a#4 v=77
178681 Par ch=1 c=64 v=0
178686 On ch=1 n=g3 v=65
178776 Par ch=1 c=64 v=40
178781 On ch=1 n=d#3 v=0
178796 Par ch=1 c=64 v=127
178816 On ch=1 n=a#4 v=0
178841 On ch=1 n=g3 v=0
178851 On ch=1 n=a#5 v=0
179146 On ch=1 n=a5 v=94
179156 On ch=1 n=a4 v=78
179161 On ch=1 n=f#3 v=61
179196 On ch=1 n=d#3 v=46
179201 Par ch=1 c=64 v=24
179221 Par ch=1 c=64 v=0
179276 Par ch=1 c=64 v=40
179291 On ch=1 n=a4 v=0
179296 Par ch=1 c=64 v=127
179351 On ch=1 n=a5 v=0
179626 On ch=1 n=d#6 v=96
179626 On ch=1 n=d#5 v=84
179651 On ch=1 n=c4 v=70
179771 On ch=1 n=f#3 v=0
179776 On ch=1 n=d#5 v=0
179781 On ch=1 n=d#6 v=0
180061 On ch=1 n=c4 v=0
180106 On ch=1 n=c6 v=96
180111 On ch=1 n=c5 v=82
180141 On ch=1 n=a3 v=64
180221 On ch=1 n=c5 v=0
180231 On ch=1 n=c6 v=0
180501 On ch=1 n=a3 v=0
180551 On ch=1 n=b5 v=92
180561 On ch=1 n=b4 v=72
180561 On ch=1 n=g#3 v=59
180661 On ch=1 n=b4 v=0
180676 On ch=1 n=b5 v=0
180686 On ch=1 n=d#3 v=0
180751 On ch=1 n=g#3 v=0
181036 On ch=1 n=a#5 v=87
181051 On ch=1 n=a#4 v=77
181061 On ch=1 n=g3 v=68
181061 Par ch=1 c=64 v=104
181081 On ch=1 n=d#3 v=55
181081 Par ch=1 c=64 v=0
181216 Par ch=1 c=64 v=88
181231 Par ch=1 c=64 v=127
181291 On ch=1 n=a#5 v=0
181456 On ch=1 n=a#4 v=0
181471 On ch=1 n=g3 v=0
181501 On ch=1 n=d#5 v=89
181506 On ch=1 n=d#4 v=64
181651 On ch=1 n=d#4 v=0
181686 On ch=1 n=d#5 v=0
181721 On ch=1 n=c4 v=78
181726 On ch=1 n=c5 v=93
181901 On ch=1 n=c4 v=0
181951 On ch=1 n=c5 v=0
181971 Par ch=1 c=64 v=24
181976 On ch=1 n=a#4 v=87
181986 On ch=1 n=a#3 v=77
181991 Par ch=1 c=64 v=0
182066 On ch=1 n=d#3 v=0
182081 On ch=1 n=a#3 v=0
182086 Par ch=1 c=64 v=104
182091 On ch=1 n=a#4 v=0
182106 Par ch=1 c=64 v=127
182261 Par ch=1 c=64 v=104
182276 Par ch=1 c=64 v=56
182296 Par ch=1 c=64 v=0
182411 On ch=1 n=f5 v=88
182411 On ch=1 n=a#4 v=67
182421 On ch=1 n=d5 v=73
182426 On ch=1 n=a#3 v=84
182426 On ch=1 n=f4 v=69
182431 On ch=1 n=a#2 v=77
182461 On ch=1 n=f4 v=0
182481 On ch=1 n=a#3 v=0
182491 On ch=1 n=a#2 v=0
182506 On ch=1 n=f5 v=0
182536 On ch=1 n=a#4 v=0
182541 On ch=1 n=d5 v=0
182626 On ch=1 n=f#5 v=85
182631 On ch=1 n=d5 v=72
182631 On ch=1 n=f#4 v=83
182631 On ch=1 n=a#4 v=65
182641 On ch=1 n=a#3 v=86
182641 On ch=1 n=a#2 v=81
182706 On ch=1 n=f#4 v=0
182711 On ch=1 n=a#3 v=0
182711 On ch=1 n=a#4 v=0
182716 On ch=1 n=a#2 v=0
182721 On ch=1 n=d5 v=0
182781 On ch=1 n=f#5 v=0
182886 On ch=1 n=a#4 v=75
182891 On ch=1 n=g5 v=93
182891 On ch=1 n=g4 v=89
182891 On ch=1 n=d#3 v=77
182896 On ch=1 n=a#3 v=80
182901 On ch=1 n=d#5 v=72
182961 On ch=1 n=a#3 v=0
182961 On ch=1 n=g4 v=0
182961 Par ch=1 c=64 v=56
182976 Par ch=1 c=64 v=127
182981 On ch=1 n=d#3 v=0
182991 On ch=1 n=a#4 v=0
183011 On ch=1 n=g5 v=0
183021 On ch=1 n=d#5 v=0
183326 On ch=1 n=d#6 v=87
183336 On ch=1 n=d#5 v=81
183356 On ch=1 n=d#4 v=69
183406 On ch=1 n=d#5 v=0
183431 On ch=1 n=d#4 v=0
183431 On ch=1 n=d#6 v=0
183521 Par ch=1 c=64 v=72
183536 Par ch=1 c=64 v=40
183541 On ch=1 n=c6 v=97
183551 On ch=1 n=c4 v=82
183556 On ch=1 n=c5 v=82
183556 Par ch=1 c=64 v=0
183601 On ch=1 n=c5 v=0
183626 On ch=1 n=c6 v=0
183636 On ch=1 n=c4 v=0
183781 On ch=1 n=a#4 v=87
183781 On ch=1 n=a#3 v=78
183781 On ch=1 n=a#5 v=86
183791 Par ch=1 c=64 v=40
183811 Par ch=1 c=64 v=104
183831 Par ch=1 c=64 v=127
183841 On ch=1 n=a#4 v=0
183851 On ch=1 n=a#3 v=0
183876 On ch=1 n=a#5 v=0
184101 Par ch=1 c=64 v=104
184116 Par ch=1 c=64 v=40
184141 Par ch=1 c=64 v=0
184196 On ch=1 n=f6 v=93
184206 On ch=1 n=f5 v=74
184211 On ch=1 n=d6 v=78
184211 On ch=1 n=a#5 v=65
184231 On ch=1 n=a#4 v=78
184236 On ch=1 n=a#3 v=79
184276 On ch=1 n=f5 v=0
184301 On ch=1 n=a#3 v=0
184301 On ch=1 n=a#4 v=0
184306 On ch=1 n=f6 v=0
184316 On ch=1 n=a#5 v=0
184346 On ch=1 n=d6 v=0
184421 On ch=1 n=f#5 v=84
184421 On ch=1 n=f#6 v=91
184421 On ch=1 n=d6 v=77
184421 On ch=1 n=a#4 v=80
184421 On ch=1 n=a#3 v=81
184421 On ch=1 n=a#5 v=73
184491 On ch=1 n=a#3 v=0
184496 On ch=1 n=a#4 v=0
184496 On ch=1 n=f#5 v=0
184501 On ch=1 n=d6 v=0
184511 On ch=1 n=a#5 v=0
184556 On ch=1 n=f#6 v=0
184661 On ch=1 n=a#5 v=85
184671 On ch=1 n=g6 v=99
184671 On ch=1 n=g5 v=90
184676 On ch=1 n=d#6 v=77
184681 On ch=1 n=a#4 v=79
184681 On ch=1 n=d#4 v=80
184736 On ch=1 n=g5 v=0
184746 On ch=1 n=d#4 v=0
184746 On ch=1 n=a#4 v=0
184756 On ch=1 n=a#5 v=0
184761 Par ch=1 c=64 v=104
184781 Par ch=1 c=64 v=127
184791 On ch=1 n=d#6 v=0
184796 On ch=1 n=g6 v=0
185096 On ch=1 n=d#7 v=88
185106 On ch=1 n=d#6 v=90
185116 On ch=1 n=d#5 v=64
185176 On ch=1 n=d#6 v=0
185181 On ch=1 n=d#7 v=0
185211 On ch=1 n=d#5 v=0
185306 On ch=1 n=c7 v=94
185311 On ch=1 n=c6 v=88
185311 On ch=1 n=c5 v=67
185351 On ch=1 n=c6 v=0
185371 On ch=1 n=c7 v=0
185396 On ch=1 n=c5 v=0
185456 Par ch=1 c=64 v=72
185476 Par ch=1 c=64 v=0
185526 On ch=1 n=a#4 v=62
185536 On ch=1 n=a#6 v=93
185541 On ch=1 n=a#5 v=93
185556 Par ch=1 c=64 v=56
185571 Par ch=1 c=64 v=127
185596 On ch=1 n=a#5 v=0
185601 On ch=1 n=a#6 v=0
185601 On ch=1 n=a#4 v=0
185941 On ch=1 n=g6 v=93
185956 On ch=1 n=g5 v=82
185961 On ch=1 n=g4 v=67
185991 On ch=1 n=g5 v=0
186011 On ch=1 n=g6 v=0
186021 On ch=1 n=g4 v=0
186151 On ch=1 n=d#6 v=93
186156 On ch=1 n=d#5 v=90
186171 On ch=1 n=d#4 v=67
186201 On ch=1 n=d#4 v=0
186221 On ch=1 n=d#5 v=0
186221 On ch=1 n=d#6 v=0
186346 Par ch=1 c=64 v=104
186366 Par ch=1 c=64 v=40
186386 Par ch=1 c=64 v=0
186396 On ch=1 n=c6 v=90
186406 On ch=1 n=c5 v=89
186406 On ch=1 n=c4 v=79
186446 Par ch=1 c=64 v=40
186456 On ch=1 n=c5 v=0
186456 On ch=1 n=c6 v=0
186466 Par ch=1 c=64 v=104
186486 On ch=1 n=c4 v=0
186486 Par ch=1 c=64 v=127
186826 On ch=1 n=a#5 v=88
186826 On ch=1 n=a#4 v=71
186866 On ch=1 n=a#3 v=70
186901 On ch=1 n=a#4 v=0
186911 On ch=1 n=a#5 v=0
186931 On ch=1 n=a#3 v=0
187041 On ch=1 n=g5 v=85
187041 On ch=1 n=g4 v=70
187041 On ch=1 n=g3 v=66
187071 On ch=1 n=g5 v=0
187081 On ch=1 n=g3 v=0
187081 On ch=1 n=g4 v=0
187256 Par ch=1 c=64 v=56
187276 On ch=1 n=d#5 v=85
187281 On ch=1 n=d#4 v=91
187281 Par ch=1 c=64 v=0
187286 On ch=1 n=d#3 v=53
187356 Par ch=1 c=64 v=56
187376 On ch=1 n=d#5 v=0
187376 Par ch=1 c=64 v=104
187381 On ch=1 n=d#4 v=0
187386 On ch=1 n=d#3 v=0
187396 Par ch=1 c=64 v=127
187721 Par ch=1 c=64 v=104
187741 Par ch=1 c=64 v=40
187746 On ch=1 n=d5 v=97
187756 On ch=1 n=d4 v=92
187761 On ch=1 n=a#4 v=71
187761 Par ch=1 c=64 v=0
187766 On ch=1 n=g#4 v=62
187786 On ch=1 n=a#3 v=67
187786 On ch=1 n=a#2 v=70
187871 On ch=1 n=d4 v=0
187876 Par ch=1 c=64 v=72
187896 Par ch=1 c=64 v=127
187906 On ch=1 n=a#3 v=0
187911 On ch=1 n=a#2 v=0
187916 On ch=1 n=g#4 v=0
187946 On ch=1 n=a#4 v=0
187946 On ch=1 n=d5 v=0
188276 On ch=1 n=g#5 v=91
188291 On ch=1 n=g#4 v=70
188296 On ch=1 n=d5 v=75
188306 On ch=1 n=a#4 v=58
188321 On ch=1 n=a#3 v=60
188321 On ch=1 n=d#3 v=54
188401 Par ch=1 c=64 v=72
188421 Par ch=1 c=64 v=0
188886 Par ch=1 c=64 v=40
188906 Par ch=1 c=64 v=72
188926 Par ch=1 c=64 v=104
188941 Par ch=1 c=64 v=127
189116 Par ch=1 c=64 v=104
189136 Par ch=1 c=64 v=72
189156 Par ch=1 c=64 v=40
189211 Par ch=1 c=64 v=88
189236 Par ch=1 c=64 v=104
189251 Par ch=1 c=64 v=127
189866 On ch=1 n=d5 v=0
189941 On ch=1 n=g#4 v=0
189961 On ch=1 n=a#4 v=0
190011 On ch=1 n=g#5 v=0
190231 On ch=1 n=g5 v=58
190251 On ch=1 n=g4 v=41
190261 On ch=1 n=a#4 v=30
190271 On ch=1 n=d#5 v=33
190396 Par ch=1 c=64 v=104
190416 Par ch=1 c=64 v=72
190431 Par ch=1 c=64 v=24
190451 Par ch=1 c=64 v=0
190781 On ch=1 n=g4 v=0
190781 Par ch=1 c=64 v=40
190801 Par ch=1 c=64 v=72
190821 Par ch=1 c=64 v=127
190841 On ch=1 n=a#4 v=0
190881 On ch=1 n=d#5 v=0
190886 On ch=1 n=a#3 v=0
190921 On ch=1 n=g5 v=0
190921 On ch=1 n=d#3 v=0
191496 Par ch=1 c=64 v=104
191516 Par ch=1 c=64 v=24
191536 Par ch=1 c=64 v=0
191671 Par ch=1 c=64 v=24
191691 Par ch=1 c=64 v=72
191711 Par ch=1 c=64 v=127
191811 On ch=1 n=a#6 v=62
191836 On ch=1 n=a#5 v=40
191841 On ch=1 n=d#6 v=56
191856 On ch=1 n=g3 v=31
191876 On ch=1 n=g2 v=30
191961 On ch=1 n=a#5 v=0
191971 On ch=1 n=g2 v=0
191981 On ch=1 n=g3 v=0
191986 On ch=1 n=d#6 v=0
192006 On ch=1 n=a#6 v=0
192366 On ch=1 n=c7 v=75
192381 On ch=1 n=d#6 v=52
192381 On ch=1 n=c6 v=52
192391 On ch=1 n=g#3 v=33
192401 On ch=1 n=g#2 v=37
192406 Par ch=1 c=64 v=72
192426 Par ch=1 c=64 v=0
192506 Par ch=1 c=64 v=40
192511 On ch=1 n=c7 v=0
192526 Par ch=1 c=64 v=104
192536 On ch=1 n=g#2 v=0
192546 Par ch=1 c=64 v=127
192556 On ch=1 n=g#3 v=0
192566 On ch=1 n=c6 v=0
192566 On ch=1 n=d#6 v=0
192976 On ch=1 n=f6 v=68
192981 On ch=1 n=f5 v=42
192991 On ch=1 n=d6 v=58
192991 On ch=1 n=a#3 v=37
192996 On ch=1 n=a#2 v=39
193161 Par ch=1 c=64 v=88
193181 Par ch=1 c=64 v=24
193201 Par ch=1 c=64 v=0
193321 Par ch=1 c=64 v=72
193336 Par ch=1 c=64 v=127
193536 On ch=1 n=f5 v=0
193576 On ch=1 n=f6 v=0
193611 On ch=1 n=d6 v=0
193641 On ch=1 n=a#2 v=0
193701 On ch=1 n=a#3 v=0
193986 On ch=1 n=g6 v=69
193991 On ch=1 n=g5 v=58
193996 On ch=1 n=d6 v=60
194016 On ch=1 n=b3 v=51
194041 On ch=1 n=b2 v=42
194056 Par ch=1 c=64 v=88
194071 Par ch=1 c=64 v=0
194171 On ch=1 n=b2 v=0
194171 Par ch=1 c=64 v=24
194191 Par ch=1 c=64 v=88
194196 On ch=1 n=d6 v=0
194201 On ch=1 n=b3 v=0
194211 Par ch=1 c=64 v=127
194251 On ch=1 n=g5 v=0
194261 On ch=1 n=g6 v=0
194541 On ch=1 n=d#6 v=69
194566 On ch=1 n=c6 v=61
194571 On ch=1 n=g5 v=47
194576 Par ch=1 c=64 v=104
194581 On ch=1 n=c4 v=54
194596 Par ch=1 c=64 v=40
194601 On ch=1 n=c3 v=37
194616 Par ch=1 c=64 v=0
194681 On ch=1 n=c3 v=0
194691 On ch=1 n=c6 v=0
194691 Par ch=1 c=64 v=56
194711 On ch=1 n=d#6 v=0
194711 Par ch=1 c=64 v=127
194721 On ch=1 n=c4 v=0
194726 On ch=1 n=g5 v=0
195076 On ch=1 n=d#5 v=73
195106 On ch=1 n=a5 v=68
195111 On ch=1 n=f4 v=47
195116 On ch=1 n=f3 v=45
195116 Par ch=1 c=64 v=72
195136 Par ch=1 c=64 v=0
195256 Par ch=1 c=64 v=72
195276 Par ch=1 c=64 v=127
195326 On ch=1 n=a5 v=0
195331 On ch=1 n=c5 v=75
195351 On ch=1 n=d#5 v=0
195446 On ch=1 n=c5 v=0
195476 On ch=1 n=f4 v=0
195486 On ch=1 n=f3 v=0
195646 On ch=1 n=a#4 v=67
195681 On ch=1 n=d5 v=63
195691 On ch=1 n=a#5 v=54
195696 On ch=1 n=a#3 v=43
195706 On ch=1 n=f4 v=36
195736 Par ch=1 c=64 v=72
195756 Par ch=1 c=64 v=0
195866 On ch=1 n=f4 v=0
195876 Par ch=1 c=64 v=88
195881 On ch=1 n=d5 v=0
195881 On ch=1 n=a#4 v=0
195896 Par ch=1 c=64 v=127
195911 On ch=1 n=a#3 v=0
195941 On ch=1 n=a#5 v=0
196351 On ch=1 n=a#6 v=77
196361 Par ch=1 c=64 v=104
196366 On ch=1 n=a#5 v=51
196371 On ch=1 n=d#6 v=60
196376 Par ch=1 c=64 v=24
196386 On ch=1 n=g3 v=40
196396 On ch=1 n=g2 v=39
196396 Par ch=1 c=64 v=0
196531 Par ch=1 c=64 v=72
196551 Par ch=1 c=64 v=127
196586 On ch=1 n=a#5 v=0
196606 On ch=1 n=d#6 v=0
196631 On ch=1 n=g3 v=0
196641 On ch=1 n=a#6 v=0
196656 On ch=1 n=g2 v=0
196916 On ch=1 n=c7 v=79
196936 On ch=1 n=c6 v=55
196941 On ch=1 n=d#6 v=61
196941 On ch=1 n=g#3 v=36
196961 On ch=1 n=g#2 v=38
196996 Par ch=1 c=64 v=56
197016 Par ch=1 c=64 v=0
197096 Par ch=1 c=64 v=56
197111 On ch=1 n=c7 v=0
197111 Par ch=1 c=64 v=127
197186 On ch=1 n=g#2 v=0
197186 On ch=1 n=c6 v=0
197191 On ch=1 n=d#6 v=0
197196 On ch=1 n=g#3 v=0
197556 On ch=1 n=f6 v=70
197571 On ch=1 n=f5 v=42
197576 On ch=1 n=d6 v=55
197601 On ch=1 n=a#2 v=34
197606 On ch=1 n=a#3 v=28
197771 Par ch=1 c=64 v=56
197791 Par ch=1 c=64 v=0
197926 Par ch=1 c=64 v=24
197946 Par ch=1 c=64 v=88
197966 Par ch=1 c=64 v=127
198181 On ch=1 n=f6 v=0
198186 On ch=1 n=f5 v=0
198256 On ch=1 n=d6 v=0
198271 On ch=1 n=a#3 v=0
198271 On ch=1 n=a#2 v=0
198581 On ch=1 n=g6 v=70
198596 On ch=1 n=d6 v=54
198596 On ch=1 n=g5 v=56
198626 Par ch=1 c=64 v=104
198631 On ch=1 n=b3 v=46
198631 On ch=1 n=b2 v=44
198646 Par ch=1 c=64 v=40
198661 Par ch=1 c=64 v=0
198761 Par ch=1 c=64 v=72
198776 Par ch=1 c=64 v=127
198791 On ch=1 n=b2 v=0
198826 On ch=1 n=d6 v=0
198831 On ch=1 n=b3 v=0
198846 On ch=1 n=g6 v=0
198871 On ch=1 n=g5 v=0
199121 On ch=1 n=d#6 v=72
199146 On ch=1 n=c6 v=68
199146 Par ch=1 c=64 v=104
199151 On ch=1 n=g5 v=47
199161 On ch=1 n=c4 v=42
199166 On ch=1 n=c3 v=44
199166 Par ch=1 c=64 v=40
199186 Par ch=1 c=64 v=0
199261 Par ch=1 c=64 v=56
199271 On ch=1 n=c6 v=0
199281 On ch=1 n=d#6 v=0
199281 Par ch=1 c=64 v=104
199301 On ch=1 n=c3 v=0
199301 Par ch=1 c=64 v=127
199311 On ch=1 n=g5 v=0
199316 On ch=1 n=c4 v=0
199671 On ch=1 n=d#5 v=78
199691 Par ch=1 c=64 v=104
199696 On ch=1 n=f#5 v=55
199706 On ch=1 n=d4 v=41
199706 Par ch=1 c=64 v=40
199711 On ch=1 n=a5 v=57
199716 On ch=1 n=d3 v=39
199726 Par ch=1 c=64 v=0
199821 Par ch=1 c=64 v=56
199841 Par ch=1 c=64 v=127
199921 On ch=1 n=f#5 v=0
199946 On ch=1 n=c5 v=73
199951 On ch=1 n=d#5 v=0
200031 On ch=1 n=d4 v=0
200056 On ch=1 n=a5 v=0
200066 On ch=1 n=c5 v=0
200156 On ch=1 n=d3 v=0
200276 On ch=1 n=a#4 v=65
200336 On ch=1 n=d4 v=40
200336 On ch=1 n=g3 v=37
200356 On ch=1 n=d5 v=32
200356 On ch=1 n=g5 v=47
200386 Par ch=1 c=64 v=72
200406 Par ch=1 c=64 v=0
200561 On ch=1 n=d4 v=0
200561 Par ch=1 c=64 v=24
200566 On ch=1 n=d5 v=0
200581 On ch=1 n=a#4 v=0
200581 Par ch=1 c=64 v=88
200601 On ch=1 n=g3 v=0
200601 Par ch=1 c=64 v=127
200616 On ch=1 n=g5 v=0
200956 On ch=1 n=a#6 v=76
200966 On ch=1 n=a#5 v=57
200981 On ch=1 n=d#6 v=55
201001 On ch=1 n=g3 v=49
201006 Par ch=1 c=64 v=40
201011 On ch=1 n=g2 v=41
201026 Par ch=1 c=64 v=0
201101 Par ch=1 c=64 v=40
201121 Par ch=1 c=64 v=104
201141 Par ch=1 c=64 v=127
201161 On ch=1 n=g2 v=0
201166 On ch=1 n=a#5 v=0
201176 On ch=1 n=g3 v=0
201176 On ch=1 n=d#6 v=0
201241 On ch=1 n=a#6 v=0
201531 On ch=1 n=c7 v=75
201536 On ch=1 n=d#6 v=56
201546 On ch=1 n=c6 v=62
201566 On ch=1 n=g#3 v=38
201566 Par ch=1 c=64 v=56
201571 On ch=1 n=g#2 v=39
201586 Par ch=1 c=64 v=0
201661 Par ch=1 c=64 v=56
201681 On ch=1 n=c7 v=0
201681 Par ch=1 c=64 v=127
201731 On ch=1 n=d#6 v=0
201741 On ch=1 n=c6 v=0
201751 On ch=1 n=g#2 v=0
201766 On ch=1 n=g#3 v=0
202111 On ch=1 n=f6 v=71
202126 On ch=1 n=f5 v=48
202136 On ch=1 n=d6 v=58
202141 On ch=1 n=a#3 v=45
202146 On ch=1 n=a#2 v=44
202281 Par ch=1 c=64 v=104
202301 Par ch=1 c=64 v=56
202326 Par ch=1 c=64 v=0
202476 Par ch=1 c=64 v=56
202496 Par ch=1 c=64 v=127
202716 On ch=1 n=f5 v=0
202756 On ch=1 n=d6 v=0
202801 On ch=1 n=f6 v=0
202831 On ch=1 n=a#3 v=0
202871 On ch=1 n=a#2 v=0
203131 On ch=1 n=g6 v=69
203131 On ch=1 n=g5 v=60
203151 On ch=1 n=d6 v=57
203151 Par ch=1 c=64 v=72
203161 On ch=1 n=b3 v=45
203171 On ch=1 n=b2 v=44
203171 Par ch=1 c=64 v=0
203291 Par ch=1 c=64 v=72
203311 Par ch=1 c=64 v=127
203351 On ch=1 n=b2 v=0
203376 On ch=1 n=g6 v=0
203401 On ch=1 n=b3 v=0
203401 On ch=1 n=d6 v=0
203436 On ch=1 n=g5 v=0
203671 On ch=1 n=d#6 v=67
203701 On ch=1 n=c6 v=56
203711 On ch=1 n=g5 v=37
203721 On ch=1 n=c4 v=54
203731 Par ch=1 c=64 v=88
203741 On ch=1 n=c3 v=41
203756 Par ch=1 c=64 v=0
203851 Par ch=1 c=64 v=40
203871 Par ch=1 c=64 v=104
203876 On ch=1 n=c3 v=0
203881 On ch=1 n=c6 v=0
203891 On ch=1 n=d#6 v=0
203891 Par ch=1 c=64 v=127
203906 On ch=1 n=c4 v=0
203926 On ch=1 n=g5 v=0
204221 On ch=1 n=d#5 v=76
204246 On ch=1 n=a5 v=70
204261 On ch=1 n=f4 v=48
204261 Par ch=1 c=64 v=88
204266 On ch=1 n=f3 v=43
204281 Par ch=1 c=64 v=24
204296 Par ch=1 c=64 v=0
204396 Par ch=1 c=64 v=88
204411 Par ch=1 c=64 v=127
204476 On ch=1 n=a5 v=0
204476 On ch=1 n=d#5 v=0
204476 On ch=1 n=c5 v=82
204616 On ch=1 n=c5 v=0
204661 On ch=1 n=f4 v=0
204776 On ch=1 n=f3 v=0
204796 On ch=1 n=a#4 v=71
204846 On ch=1 n=d5 v=54
204846 On ch=1 n=a#3 v=45
204866 On ch=1 n=f4 v=33
204871 On ch=1 n=a#5 v=27
204916 Par ch=1 c=64 v=88
204936 Par ch=1 c=64 v=0
205071 Par ch=1 c=64 v=72
205081 On ch=1 n=f4 v=0
205091 Par ch=1 c=64 v=127
205096 On ch=1 n=d5 v=0
205096 On ch=1 n=a#4 v=0
205141 On ch=1 n=a#3 v=0
205146 On ch=1 n=a#5 v=0
205471 On ch=1 n=a#6 v=86
205486 On ch=1 n=a#5 v=61
205486 On ch=1 n=d#6 v=71
205496 Par ch=1 c=64 v=104
205516 On ch=1 n=g3 v=51
205516 On ch=1 n=g2 v=46
205521 Par ch=1 c=64 v=24
205536 Par ch=1 c=64 v=0
205636 Par ch=1 c=64 v=104
205656 Par ch=1 c=64 v=127
205701 On ch=1 n=g2 v=0
205711 On ch=1 n=g3 v=0
205726 On ch=1 n=a#5 v=0
205746 On ch=1 n=d#6 v=0
205816 On ch=1 n=a#6 v=0
206026 On ch=1 n=c7 v=90
206041 On ch=1 n=d#6 v=71
206046 On ch=1 n=c6 v=71
206056 Par ch=1 c=64 v=40
206066 On ch=1 n=g#3 v=51
206066 On ch=1 n=g#2 v=51
206081 Par ch=1 c=64 v=0
206156 Par ch=1 c=64 v=40
206176 Par ch=1 c=64 v=127
206191 On ch=1 n=c7 v=0
206241 On ch=1 n=g#2 v=0
206246 On ch=1 n=d#6 v=0
206256 On ch=1 n=g#3 v=0
206261 On ch=1 n=c6 v=0
206606 On ch=1 n=f6 v=84
206631 On ch=1 n=f5 v=53
206641 On ch=1 n=d6 v=60
206651 On ch=1 n=a#3 v=40
206656 On ch=1 n=a#2 v=44
206756 Par ch=1 c=64 v=88
206776 Par ch=1 c=64 v=0
206946 Par ch=1 c=64 v=88
206966 Par ch=1 c=64 v=127
207181 On ch=1 n=f5 v=0
207211 On ch=1 n=f6 v=0
207246 On ch=1 n=d6 v=0
207271 On ch=1 n=a#2 v=0
207376 On ch=1 n=a#3 v=0
207636 On ch=1 n=g6 v=74
207651 On ch=1 n=g5 v=55
207666 On ch=1 n=d6 v=56
207691 On ch=1 n=b3 v=35
207691 On ch=1 n=b2 v=38
207706 Par ch=1 c=64 v=56
207726 Par ch=1 c=64 v=0
207821 Par ch=1 c=64 v=56
207841 Par ch=1 c=64 v=127
207901 On ch=1 n=b2 v=0
207921 On ch=1 n=b3 v=0
207921 On ch=1 n=d6 v=0
207926 On ch=1 n=g6 v=0
207971 On ch=1 n=g5 v=0
208191 On ch=1 n=d#6 v=70
208211 On ch=1 n=g5 v=56
208216 On ch=1 n=c6 v=65
208231 On ch=1 n=c4 v=56
208246 Par ch=1 c=64 v=88
208256 On ch=1 n=c3 v=38
208266 Par ch=1 c=64 v=0
208361 Par ch=1 c=64 v=40
208376 On ch=1 n=c6 v=0
208381 Par ch=1 c=64 v=104
208386 On ch=1 n=d#6 v=0
208406 On ch=1 n=c3 v=0
208406 Par ch=1 c=64 v=127
208411 On ch=1 n=g5 v=0
208456 On ch=1 n=c4 v=0
208761 On ch=1 n=d#5 v=71
208781 On ch=1 n=a5 v=68
208786 On ch=1 n=f#5 v=50
208786 Par ch=1 c=64 v=88
208796 On ch=1 n=d4 v=55
208806 On ch=1 n=d3 v=42
208811 Par ch=1 c=64 v=0
208926 Par ch=1 c=64 v=72
208946 Par ch=1 c=64 v=127
208951 On ch=1 n=f#5 v=0
209031 On ch=1 n=d#5 v=0
209056 On ch=1 n=c5 v=65
209146 On ch=1 n=a5 v=0
209191 On ch=1 n=c5 v=0
209271 On ch=1 n=d3 v=0
209296 On ch=1 n=d4 v=0
209476 On ch=1 n=a#4 v=53
209521 On ch=1 n=g5 v=48
209526 On ch=1 n=d4 v=47
209526 On ch=1 n=d5 v=40
209531 On ch=1 n=g3 v=39
209641 Par ch=1 c=64 v=72
209661 Par ch=1 c=64 v=0
209836 Par ch=1 c=64 v=88
209856 Par ch=1 c=64 v=127
209886 On ch=1 n=d5 v=0
209896 On ch=1 n=g5 v=0
209916 On ch=1 n=d4 v=0
209921 On ch=1 n=g3 v=0
209936 On ch=1 n=a#4 v=0
210281 On ch=1 n=g5 v=63
210286 On ch=1 n=g4 v=59
210311 On ch=1 n=a#3 v=46
210361 Par ch=1 c=64 v=88
210376 Par ch=1 c=64 v=0
210516 Par ch=1 c=64 v=72
210521 On ch=1 n=g5 v=0
210526 On ch=1 n=g4 v=0
210531 Par ch=1 c=64 v=127
210656 On ch=1 n=a#3 v=0
210851 On ch=1 n=f#5 v=65
210856 On ch=1 n=f#4 v=55
210876 On ch=1 n=a3 v=56
210896 On ch=1 n=d#3 v=38
210901 Par ch=1 c=64 v=40
210921 Par ch=1 c=64 v=0
211016 Par ch=1 c=64 v=56
211031 On ch=1 n=f#4 v=0
211036 Par ch=1 c=64 v=127
211081 On ch=1 n=f#5 v=0
211361 On ch=1 n=a3 v=0
211381 On ch=1 n=c6 v=78
211391 On ch=1 n=c5 v=64
211396 On ch=1 n=d#4 v=48
211501 On ch=1 n=c6 v=0
211516 On ch=1 n=c5 v=0
211826 On ch=1 n=d#4 v=0
211896 On ch=1 n=a5 v=77
211911 On ch=1 n=a4 v=56
211926 On ch=1 n=c4 v=52
212021 On ch=1 n=a4 v=0
212021 On ch=1 n=a5 v=0
212231 On ch=1 n=c4 v=0
212381 On ch=1 n=g#5 v=68
212396 On ch=1 n=g#4 v=54
212406 On ch=1 n=b3 v=53
212526 On ch=1 n=g#4 v=0
212546 On ch=1 n=g#5 v=0
212551 On ch=1 n=b3 v=0
212581 On ch=1 n=d#3 v=0
212891 On ch=1 n=g5 v=72
212911 On ch=1 n=g4 v=59
212911 On ch=1 n=a#3 v=56
212916 On ch=1 n=d#3 v=42
212931 Par ch=1 c=64 v=88
212951 Par ch=1 c=64 v=0
213066 Par ch=1 c=64 v=40
213086 Par ch=1 c=64 v=104
213111 Par ch=1 c=64 v=127
213216 On ch=1 n=g5 v=0
213271 On ch=1 n=a#3 v=0
213366 On ch=1 n=d#5 v=71
213381 On ch=1 n=d#4 v=53
213541 On ch=1 n=g4 v=0
213546 On ch=1 n=d#4 v=0
213551 On ch=1 n=d#5 v=0
213616 On ch=1 n=c5 v=80
213636 On ch=1 n=c4 v=65
213786 On ch=1 n=c4 v=0
213856 On ch=1 n=c5 v=0
213876 On ch=1 n=a#4 v=74
213896 On ch=1 n=a#3 v=57
213941 Par ch=1 c=64 v=24
213961 Par ch=1 c=64 v=0
214076 Par ch=1 c=64 v=72
214096 On ch=1 n=a#3 v=0
214096 On ch=1 n=a#4 v=0
214096 Par ch=1 c=64 v=127
214386 On ch=1 n=d#3 v=0
214391 On ch=1 n=a#5 v=77
214411 On ch=1 n=a#4 v=55
214411 On ch=1 n=g3 v=59
214441 Par ch=1 c=64 v=56
214461 Par ch=1 c=64 v=0
214541 Par ch=1 c=64 v=40
214561 Par ch=1 c=64 v=127
214636 On ch=1 n=a#4 v=0
214651 On ch=1 n=g3 v=0
214651 On ch=1 n=a#5 v=0
214891 On ch=1 n=a5 v=86
214906 On ch=1 n=f#3 v=44
214911 On ch=1 n=a4 v=59
214926 On ch=1 n=d#3 v=39
214986 Par ch=1 c=64 v=72
215006 Par ch=1 c=64 v=0
215066 On ch=1 n=a4 v=0
215101 Par ch=1 c=64 v=72
215121 Par ch=1 c=64 v=127
215136 On ch=1 n=a5 v=0
215401 On ch=1 n=d#6 v=91
215406 On ch=1 n=f#3 v=0
215411 On ch=1 n=d#5 v=71
215416 On ch=1 n=c4 v=52
215571 On ch=1 n=d#6 v=0
215591 On ch=1 n=d#5 v=0
215806 On ch=1 n=c4 v=0
215871 On ch=1 n=c6 v=84
215886 On ch=1 n=c5 v=66
215921 On ch=1 n=a3 v=45
216016 On ch=1 n=c6 v=0
216046 On ch=1 n=c5 v=0
216296 On ch=1 n=a3 v=0
216356 On ch=1 n=b5 v=81
216366 On ch=1 n=b4 v=71
216381 On ch=1 n=g#3 v=47
216471 On ch=1 n=b4 v=0
216481 On ch=1 n=b5 v=0
216551 On ch=1 n=g#3 v=0
216566 On ch=1 n=d#3 v=0
216851 On ch=1 n=a#5 v=82
216871 On ch=1 n=a#4 v=69
216896 On ch=1 n=g3 v=59
216906 Par ch=1 c=64 v=24
216921 Par ch=1 c=64 v=0
216926 On ch=1 n=d#3 v=36
217036 Par ch=1 c=64 v=40
217056 Par ch=1 c=64 v=127
217071 On ch=1 n=a#5 v=0
217146 On ch=1 n=g3 v=0
217271 On ch=1 n=a#4 v=0
217336 On ch=1 n=d#5 v=81
217356 On ch=1 n=d#4 v=62
217501 On ch=1 n=d#4 v=0
217521 On ch=1 n=d#5 v=0
217571 On ch=1 n=c5 v=84
217596 On ch=1 n=c4 v=66
217771 On ch=1 n=c4 v=0
217816 On ch=1 n=c5 v=0
217831 On ch=1 n=a#4 v=84
217836 On ch=1 n=a#3 v=60
217911 Par ch=1 c=64 v=88
217931 Par ch=1 c=64 v=0
218006 Par ch=1 c=64 v=56
218026 Par ch=1 c=64 v=127
218066 On ch=1 n=a#4 v=0
218086 On ch=1 n=a#3 v=0
218116 On ch=1 n=d#3 v=0
218316 On ch=1 n=g5 v=87
218321 On ch=1 n=g4 v=83
218341 On ch=1 n=a#3 v=69
218466 On ch=1 n=g4 v=0
218466 On ch=1 n=g5 v=0
218551 On ch=1 n=a#3 v=0
218801 Par ch=1 c=64 v=88
218811 On ch=1 n=f#5 v=83
218821 On ch=1 n=f#4 v=75
218821 Par ch=1 c=64 v=0
218831 On ch=1 n=a3 v=63
218856 On ch=1 n=d#3 v=35
218916 Par ch=1 c=64 v=56
218926 On ch=1 n=f#4 v=0
218936 Par ch=1 c=64 v=127
218971 On ch=1 n=f#5 v=0
219201 On ch=1 n=a3 v=0
219276 On ch=1 n=c6 v=93
219281 On ch=1 n=c5 v=80
219296 On ch=1 n=d#4 v=68
219396 On ch=1 n=c6 v=0
219401 On ch=1 n=c5 v=0
219676 On ch=1 n=d#4 v=0
219756 On ch=1 n=a5 v=89
219761 On ch=1 n=a4 v=76
219771 On ch=1 n=c4 v=64
219856 On ch=1 n=a4 v=0
219881 On ch=1 n=a5 v=0
220096 On ch=1 n=c4 v=0
220211 On ch=1 n=g#5 v=80
220221 On ch=1 n=g#4 v=75
220236 On ch=1 n=b3 v=66
220306 On ch=1 n=d#3 v=0
220351 On ch=1 n=g#4 v=0
220356 On ch=1 n=b3 v=0
220376 On ch=1 n=g#5 v=0
220676 On ch=1 n=g5 v=88
220681 Par ch=1 c=64 v=40
220691 On ch=1 n=g4 v=80
220701 On ch=1 n=a#3 v=69
220701 Par ch=1 c=64 v=0
220716 On ch=1 n=d#3 v=53
220831 Par ch=1 c=64 v=88
220851 Par ch=1 c=64 v=127
220956 On ch=1 n=g5 v=0
221006 On ch=1 n=a#3 v=0
221151 On ch=1 n=d#5 v=79
221166 On ch=1 n=d#4 v=67
221316 On ch=1 n=d#4 v=0
221316 On ch=1 n=g4 v=0
221341 On ch=1 n=d#5 v=0
221376 On ch=1 n=c5 v=86
221396 On ch=1 n=c4 v=72
221571 On ch=1 n=c4 v=0
221601 On ch=1 n=c5 v=0
221616 On ch=1 n=a#4 v=83
221621 On ch=1 n=a#3 v=65
221646 Par ch=1 c=64 v=104
221666 Par ch=1 c=64 v=56
221686 Par ch=1 c=64 v=40
221706 Par ch=1 c=64 v=56
221726 Par ch=1 c=64 v=88
221746 Par ch=1 c=64 v=127
221771 On ch=1 n=a#4 v=0
221796 On ch=1 n=a#3 v=0
222076 Par ch=1 c=64 v=72
222081 On ch=1 n=a#5 v=89
222091 On ch=1 n=a#4 v=79
222091 Par ch=1 c=64 v=0
222106 On ch=1 n=g3 v=70
222191 Par ch=1 c=64 v=40
222201 On ch=1 n=d#3 v=0
222206 Par ch=1 c=64 v=104
222226 Par ch=1 c=64 v=127
222241 On ch=1 n=g3 v=0
222256 On ch=1 n=a#4 v=0
222286 On ch=1 n=a#5 v=0
222556 On ch=1 n=a5 v=97
222566 On ch=1 n=a4 v=79
222576 On ch=1 n=f#3 v=63
222586 On ch=1 n=d#3 v=55
222596 Par ch=1 c=64 v=72
222616 Par ch=1 c=64 v=0
222706 On ch=1 n=a4 v=0
222731 Par ch=1 c=64 v=104
222751 Par ch=1 c=64 v=127
222761 On ch=1 n=a5 v=0
223036 On ch=1 n=d#6 v=92
223041 On ch=1 n=d#5 v=84
223051 On ch=1 n=c4 v=71
223116 On ch=1 n=f#3 v=0
223191 On ch=1 n=d#5 v=0
223191 On ch=1 n=d#6 v=0
223451 On ch=1 n=c4 v=0
223486 On ch=1 n=c6 v=94
223491 On ch=1 n=c5 v=84
223516 On ch=1 n=a3 v=70
223646 On ch=1 n=c6 v=0
223656 On ch=1 n=c5 v=0
223856 On ch=1 n=a3 v=0
223951 On ch=1 n=b5 v=90
223956 On ch=1 n=g#3 v=57
223956 On ch=1 n=b4 v=78
224041 On ch=1 n=b4 v=0
224056 On ch=1 n=b5 v=0
224061 On ch=1 n=d#3 v=0
224086 On ch=1 n=g#3 v=0
224426 On ch=1 n=a#5 v=87
224436 Par ch=1 c=64 v=72
224441 On ch=1 n=a#4 v=80
224446 On ch=1 n=g3 v=70
224456 Par ch=1 c=64 v=0
224466 On ch=1 n=d#3 v=50
224591 Par ch=1 c=64 v=104
224611 Par ch=1 c=64 v=127
224676 On ch=1 n=a#5 v=0
224826 On ch=1 n=a#4 v=0
224856 On ch=1 n=g3 v=0
224886 On ch=1 n=d#5 v=81
224896 On ch=1 n=d#4 v=72
225026 On ch=1 n=d#4 v=0
225076 On ch=1 n=d#5 v=0
225106 On ch=1 n=c5 v=80
225106 On ch=1 n=c4 v=73
225306 On ch=1 n=c4 v=0
225321 On ch=1 n=c5 v=0
225326 Par ch=1 c=64 v=56
225341 On ch=1 n=a#4 v=82
225346 On ch=1 n=a#3 v=73
225346 Par ch=1 c=64 v=0
225421 On ch=1 n=d#3 v=0
225436 On ch=1 n=a#3 v=0
225441 Par ch=1 c=64 v=88
225461 On ch=1 n=a#4 v=0
225461 Par ch=1 c=64 v=127
225596 Par ch=1 c=64 v=104
225616 Par ch=1 c=64 v=56
225636 Par ch=1 c=64 v=0
225781 On ch=1 n=f5 v=85
225786 On ch=1 n=d5 v=78
225786 On ch=1 n=a#4 v=67
225786 On ch=1 n=f4 v=79
225796 On ch=1 n=a#3 v=81
225806 On ch=1 n=a#2 v=72
225826 On ch=1 n=f4 v=0
225841 On ch=1 n=a#2 v=0
225851 On ch=1 n=a#3 v=0
225851 On ch=1 n=f5 v=0
225891 On ch=1 n=a#4 v=0
225896 On ch=1 n=d5 v=0
225986 On ch=1 n=f#5 v=82
225986 On ch=1 n=d5 v=68
225991 On ch=1 n=f#4 v=76
225991 On ch=1 n=a#4 v=60
226001 On ch=1 n=a#3 v=84
226006 On ch=1 n=a#2 v=79
226051 On ch=1 n=f#4 v=0
226056 On ch=1 n=a#3 v=0
226066 On ch=1 n=a#2 v=0
226071 On ch=1 n=a#4 v=0
226076 On ch=1 n=d5 v=0
226126 On ch=1 n=f#5 v=0
226236 On ch=1 n=a#4 v=72
226236 On ch=1 n=g5 v=94
226241 On ch=1 n=g4 v=89
226241 On ch=1 n=a#3 v=86
226246 On ch=1 n=d#3 v=71
226251 On ch=1 n=d#5 v=64
226301 On ch=1 n=a#3 v=0
226301 On ch=1 n=g4 v=0
226316 On ch=1 n=d#3 v=0
226321 On ch=1 n=a#4 v=0
226336 Par ch=1 c=64 v=88
226351 On ch=1 n=d#5 v=0
226351 Par ch=1 c=64 v=127
226356 On ch=1 n=g5 v=0
226671 On ch=1 n=d#6 v=83
226681 On ch=1 n=d#5 v=82
226696 On ch=1 n=d#4 v=71
226701 Par ch=1 c=64 v=88
226721 Par ch=1 c=64 v=40
226741 Par ch=1 c=64 v=0
226746 On ch=1 n=d#5 v=0
226761 On ch=1 n=d#6 v=0
226766 On ch=1 n=d#4 v=0
226876 On ch=1 n=c6 v=99
226881 On ch=1 n=c5 v=87
226891 On ch=1 n=c4 v=81
226936 On ch=1 n=c5 v=0
226941 On ch=1 n=c6 v=0
226976 On ch=1 n=c4 v=0
227086 Par ch=1 c=64 v=40
227106 On ch=1 n=a#4 v=88
227106 On ch=1 n=a#3 v=74
227106 Par ch=1 c=64 v=127
227111 On ch=1 n=a#5 v=79
227161 On ch=1 n=a#4 v=0
227171 On ch=1 n=a#3 v=0
227186 On ch=1 n=a#5 v=0
227476 Par ch=1 c=64 v=88
227496 Par ch=1 c=64 v=56
227511 On ch=1 n=f6 v=92
227516 Par ch=1 c=64 v=0
227521 On ch=1 n=f5 v=77
227526 On ch=1 n=d6 v=77
227526 On ch=1 n=a#5 v=69
227546 On ch=1 n=a#4 v=77
227551 On ch=1 n=a#3 v=77
227586 On ch=1 n=a#3 v=0
227586 On ch=1 n=f5 v=0
227606 On ch=1 n=f6 v=0
227611 On ch=1 n=a#4 v=0
227616 On ch=1 n=a#5 v=0
227641 On ch=1 n=d6 v=0
227721 On ch=1 n=f#6 v=90
227726 On ch=1 n=f#5 v=88
227726 On ch=1 n=d6 v=74
227736 On ch=1 n=a#5 v=71
227746 On ch=1 n=a#4 v=77
227746 On ch=1 n=a#3 v=80
227771 On ch=1 n=a#5 v=0
227791 On ch=1 n=f#5 v=0
227811 On ch=1 n=a#3 v=0
227811 On ch=1 n=a#4 v=0
227811 On ch=1 n=d6 v=0
227861 On ch=1 n=f#6 v=0
227961 On ch=1 n=a#5 v=88
227966 On ch=1 n=g6 v=103
227971 On ch=1 n=g5 v=92
227976 On ch=1 n=a#4 v=80
227976 On ch=1 n=d#6 v=74
227976 On ch=1 n=d#4 v=78
228036 On ch=1 n=d#4 v=0
228041 On ch=1 n=a#4 v=0
228041 On ch=1 n=g5 v=0
228051 On ch=1 n=a#5 v=0
228056 Par ch=1 c=64 v=104
228071 On ch=1 n=d#6 v=0
228076 Par ch=1 c=64 v=127
228091 On ch=1 n=g6 v=0
228411 On ch=1 n=d#7 v=91
228416 On ch=1 n=d#6 v=92
228421 On ch=1 n=d#5 v=67
228486 On ch=1 n=d#6 v=0
228496 On ch=1 n=d#7 v=0
228511 On ch=1 n=d#5 v=0
228601 Par ch=1 c=64 v=104
228611 On ch=1 n=c5 v=73
228616 On ch=1 n=c7 v=96
228621 On ch=1 n=c6 v=90
228621 Par ch=1 c=64 v=72
228636 Par ch=1 c=64 v=56
228656 Par ch=1 c=64 v=40
228671 On ch=1 n=c6 v=0
228671 On ch=1 n=c7 v=0
228676 Par ch=1 c=64 v=24
228696 Par ch=1 c=64 v=0
228706 On ch=1 n=c5 v=0
228826 On ch=1 n=a#4 v=65
228841 On ch=1 n=a#5 v=93
228846 On ch=1 n=a#6 v=90
228851 Par ch=1 c=64 v=72
228871 Par ch=1 c=64 v=127
228891 On ch=1 n=a#6 v=0
228896 On ch=1 n=a#5 v=0
228896 On ch=1 n=a#4 v=0
229221 On ch=1 n=g6 v=90
229231 On ch=1 n=g5 v=83
229246 On ch=1 n=g4 v=69
229296 On ch=1 n=g6 v=0
229306 On ch=1 n=g4 v=0
229306 On ch=1 n=g5 v=0
229431 On ch=1 n=d#6 v=90
229436 On ch=1 n=d#5 v=87
229446 On ch=1 n=d#4 v=60
229496 On ch=1 n=d#4 v=0
229496 On ch=1 n=d#5 v=0
229506 On ch=1 n=d#6 v=0
229626 Par ch=1 c=64 v=88
229646 Par ch=1 c=64 v=0
229666 On ch=1 n=c6 v=94
229671 On ch=1 n=c5 v=86
229671 On ch=1 n=c4 v=75
229716 On ch=1 n=c5 v=0
229726 On ch=1 n=c6 v=0
229741 Par ch=1 c=64 v=72
229756 On ch=1 n=c4 v=0
229761 Par ch=1 c=64 v=127
230056 On ch=1 n=a#5 v=88
230061 On ch=1 n=a#4 v=76
230076 On ch=1 n=a#3 v=62
230136 On ch=1 n=a#4 v=0
230141 On ch=1 n=a#5 v=0
230151 On ch=1 n=a#3 v=0
230256 On ch=1 n=g3 v=62
230266 On ch=1 n=g5 v=84
230271 On ch=1 n=g4 v=65
230301 On ch=1 n=g5 v=0
230306 On ch=1 n=g4 v=0
230386 On ch=1 n=g3 v=0
230401 Par ch=1 c=64 v=56
230421 Par ch=1 c=64 v=0
230471 On ch=1 n=d#3 v=73
230476 On ch=1 n=d#5 v=86
230476 Par ch=1 c=64 v=24
230486 On ch=1 n=d#4 v=82
230496 Par ch=1 c=64 v=72
230516 Par ch=1 c=64 v=127
230521 On ch=1 n=d#4 v=0
230541 On ch=1 n=d#3 v=0
230556 On ch=1 n=d#5 v=0
230786 Par ch=1 c=64 v=88
230806 Par ch=1 c=64 v=40
230826 Par ch=1 c=64 v=0
230941 On ch=1 n=d5 v=94
230951 On ch=1 n=d4 v=92
230951 On ch=1 n=a#4 v=72
230956 On ch=1 n=g#4 v=65
230971 On ch=1 n=a#3 v=80
230971 On ch=1 n=a#2 v=71
230981 Par ch=1 c=64 v=56
231001 Par ch=1 c=64 v=127
231026 On ch=1 n=d4 v=0
231036 On ch=1 n=a#2 v=0
231036 On ch=1 n=a#3 v=0
231071 On ch=1 n=g#4 v=0
231081 On ch=1 n=d5 v=0
231096 On ch=1 n=a#4 v=0
231491 On ch=1 n=g#5 v=89
231501 On ch=1 n=g#4 v=81
231506 On ch=1 n=d5 v=83
231506 On ch=1 n=a#4 v=68
231521 On ch=1 n=d#3 v=62
231526 On ch=1 n=a#3 v=73
231561 Par ch=1 c=64 v=104
231581 Par ch=1 c=64 v=24
231601 Par ch=1 c=64 v=0
232081 Par ch=1 c=64 v=40
232101 Par ch=1 c=64 v=72
232121 Par ch=1 c=64 v=88
232141 Par ch=1 c=64 v=104
232396 Par ch=1 c=64 v=56
232416 Par ch=1 c=64 v=0
232511 Par ch=1 c=64 v=24
232531 Par ch=1 c=64 v=72
232546 Par ch=1 c=64 v=127
233101 On ch=1 n=d5 v=0
233111 On ch=1 n=g#4 v=0
233221 On ch=1 n=g#5 v=0
233331 On ch=1 n=a#4 v=0
233501 On ch=1 n=g5 v=66
233521 On ch=1 n=a#4 v=38
233521 On ch=1 n=g4 v=51
233526 On ch=1 n=d#5 v=48
233631 Par ch=1 c=64 v=72
233651 Par ch=1 c=64 v=24
233676 Par ch=1 c=64 v=0
233921 Par ch=1 c=64 v=40
233941 Par ch=1 c=64 v=104
233961 Par ch=1 c=64 v=127
234006 On ch=1 n=g4 v=0
234021 On ch=1 n=g5 v=0
234021 On ch=1 n=a#3 v=0
234036 On ch=1 n=a#4 v=0
234046 On ch=1 n=d#3 v=0
234066 On ch=1 n=d#5 v=0
234871 Par ch=1 c=64 v=104
234891 Par ch=1 c=64 v=88
234931 Par ch=1 c=64 v=72
234951 Par ch=1 c=64 v=56
234986 Par ch=1 c=64 v=40
235006 Par ch=1 c=64 v=24
235046 Par ch=1 c=64 v=0
237121 On ch=1 n=a5 v=61
237171 On ch=1 n=f3 v=53
237191 On ch=1 n=d#6 v=73
237201 On ch=1 n=f3 v=0
237216 On ch=1 n=a5 v=0
237271 On ch=1 n=d#6 v=0
237471 On ch=1 n=c6 v=68
237476 On ch=1 n=d#5 v=43
237486 On ch=1 n=f4 v=51
237496 On ch=1 n=a4 v=41
237506 Par ch=1 c=64 v=72
237526 On ch=1 n=f4 v=0
237526 Par ch=1 c=64 v=127
237536 On ch=1 n=a4 v=0
237606 On ch=1 n=c6 v=0
237841 On ch=1 n=b5 v=62
237886 Par ch=1 c=64 v=88
237906 Par ch=1 c=64 v=40
237911 On ch=1 n=c6 v=85
237926 On ch=1 n=b5 v=0
237926 On ch=1 n=a4 v=52
237926 On ch=1 n=f4 v=49
237926 Par ch=1 c=64 v=0
237956 On ch=1 n=a4 v=0
237961 On ch=1 n=f4 v=0
238011 On ch=1 n=c6 v=0
238141 On ch=1 n=d6 v=84
238141 On ch=1 n=f4 v=70
238156 On ch=1 n=a4 v=49
238186 On ch=1 n=a4 v=0
238201 On ch=1 n=f4 v=0
238206 On ch=1 n=d#5 v=0
238231 On ch=1 n=d6 v=0
238336 On ch=1 n=d#6 v=78
238346 On ch=1 n=a4 v=64
238351 On ch=1 n=f4 v=62
238386 On ch=1 n=f4 v=0
238386 On ch=1 n=a4 v=0
238401 On ch=1 n=d#6 v=0
238461 On ch=1 n=d#6 v=83
238541 On ch=1 n=d#6 v=0
238636 On ch=1 n=g7 v=99
238656 On ch=1 n=f3 v=62
238671 Par ch=1 c=64 v=40
238691 On ch=1 n=f3 v=0
238691 Par ch=1 c=64 v=88
238696 On ch=1 n=g7 v=0
238706 Par ch=1 c=64 v=127
238971 Par ch=1 c=64 v=88
238981 On ch=1 n=c6 v=73
238986 Par ch=1 c=64 v=0
238996 On ch=1 n=f4 v=41
239001 On ch=1 n=a4 v=42
239006 On ch=1 n=d#5 v=39
239106 Par ch=1 c=64 v=72
239126 Par ch=1 c=64 v=127
239176 On ch=1 n=a4 v=0
239181 On ch=1 n=f4 v=0
239226 On ch=1 n=c6 v=0
239311 On ch=1 n=b5 v=60
239371 Par ch=1 c=64 v=88
239376 On ch=1 n=c6 v=85
239386 Par ch=1 c=64 v=40
239401 On ch=1 n=b5 v=0
239406 Par ch=1 c=64 v=0
239411 On ch=1 n=a4 v=44
239421 On ch=1 n=f4 v=35
239441 On ch=1 n=d#5 v=0
239451 On ch=1 n=a4 v=0
239456 On ch=1 n=f4 v=0
239486 On ch=1 n=c6 v=0
239611 On ch=1 n=d6 v=82
239611 On ch=1 n=d#5 v=54
239616 On ch=1 n=f4 v=56
239626 On ch=1 n=a4 v=46
239661 On ch=1 n=a4 v=0
239666 On ch=1 n=f4 v=0
239676 On ch=1 n=d#5 v=0
239696 On ch=1 n=d6 v=0
239801 On ch=1 n=d#6 v=80
239801 On ch=1 n=f4 v=58
239811 On ch=1 n=a4 v=49
239836 On ch=1 n=f4 v=0
239846 On ch=1 n=a4 v=0
239881 On ch=1 n=d#6 v=0
239941 On ch=1 n=d#6 v=73
240021 On ch=1 n=d#6 v=0
240071 On ch=1 n=a#6 v=79
240086 On ch=1 n=a#3 v=50
240101 On ch=1 n=a#6 v=0
240121 Par ch=1 c=64 v=56
240136 Par ch=1 c=64 v=104
240156 Par ch=1 c=64 v=127
240161 On ch=1 n=a#3 v=0
240361 Par ch=1 c=64 v=88
240381 Par ch=1 c=64 v=72
240396 On ch=1 n=a#5 v=69
240396 Par ch=1 c=64 v=24
240406 On ch=1 n=d5 v=55
240416 On ch=1 n=a#4 v=37
240416 Par ch=1 c=64 v=0
240431 On ch=1 n=f4 v=44
240536 Par ch=1 c=64 v=72
240556 Par ch=1 c=64 v=104
240576 Par ch=1 c=64 v=127
240606 On ch=1 n=f4 v=0
240606 On ch=1 n=a#4 v=0
240606 On ch=1 n=a#5 v=0
240726 On ch=1 n=a5 v=68
240761 Par ch=1 c=64 v=88
240786 On ch=1 n=a#4 v=37
240786 On ch=1 n=a#5 v=72
240786 Par ch=1 c=64 v=40
240791 On ch=1 n=f4 v=47
240796 On ch=1 n=a5 v=0
240796 Par ch=1 c=64 v=0
240831 On ch=1 n=f4 v=0
240836 On ch=1 n=a#4 v=0
240906 On ch=1 n=a#5 v=0
240971 On ch=1 n=c6 v=70
241031 On ch=1 n=f4 v=72
241031 On ch=1 n=a#4 v=47
241071 On ch=1 n=f4 v=0
241076 On ch=1 n=d5 v=0
241081 On ch=1 n=a#4 v=0
241186 On ch=1 n=d6 v=75
241186 On ch=1 n=f4 v=50
241186 On ch=1 n=a#4 v=53
241216 On ch=1 n=d6 v=0
241221 On ch=1 n=c6 v=0
241286 On ch=1 n=f4 v=0
241301 On ch=1 n=d6 v=87
241381 On ch=1 n=d6 v=0
241431 On ch=1 n=f7 v=99
241436 On ch=1 n=a#4 v=0
241441 On ch=1 n=a#3 v=64
241446 Par ch=1 c=64 v=56
241456 On ch=1 n=f7 v=0
241466 Par ch=1 c=64 v=72
241481 Par ch=1 c=64 v=88
241491 On ch=1 n=a#3 v=0
241571 Par ch=1 c=64 v=72
241586 Par ch=1 c=64 v=56
241601 Par ch=1 c=64 v=24
241621 Par ch=1 c=64 v=0
241686 On ch=1 n=f5 v=86
241711 On ch=1 n=f4 v=82
241731 On ch=1 n=f3 v=46
241746 Par ch=1 c=64 v=72
241761 Par ch=1 c=64 v=127
241766 On ch=1 n=f3 v=0
241781 On ch=1 n=f4 v=0
241896 On ch=1 n=f5 v=0
241996 On ch=1 n=d#4 v=78
242001 On ch=1 n=d#5 v=81
242001 On ch=1 n=d#3 v=71
242021 Par ch=1 c=64 v=104
242041 On ch=1 n=d#3 v=0
242041 On ch=1 n=d#4 v=0
242041 Par ch=1 c=64 v=72
242056 Par ch=1 c=64 v=24
242076 Par ch=1 c=64 v=0
242081 On ch=1 n=d#5 v=0
242086 On ch=1 n=d5 v=100
242111 On ch=1 n=d4 v=85
242131 On ch=1 n=d3 v=63
242141 On ch=1 n=d4 v=0
242161 On ch=1 n=d3 v=0
242201 On ch=1 n=d5 v=0
242346 On ch=1 n=c5 v=92
242346 On ch=1 n=c4 v=83
242371 On ch=1 n=c3 v=65
242401 On ch=1 n=c3 v=0
242406 On ch=1 n=c4 v=0
242531 On ch=1 n=c5 v=0
242586 On ch=1 n=a#4 v=83
242596 On ch=1 n=a#3 v=69
242606 On ch=1 n=a#2 v=58
242616 Par ch=1 c=64 v=56
242631 On ch=1 n=a#2 v=0
242631 On ch=1 n=a#3 v=0
242631 Par ch=1 c=64 v=72
242646 On ch=1 n=a#4 v=0
242736 Par ch=1 c=64 v=40
242756 Par ch=1 c=64 v=24
242791 Par ch=1 c=64 v=0
242931 On ch=1 n=a6 v=66
242961 On ch=1 n=f3 v=60
243016 On ch=1 n=a6 v=0
243026 On ch=1 n=d#7 v=81
243051 Par ch=1 c=64 v=40
243056 On ch=1 n=f3 v=0
243066 Par ch=1 c=64 v=56
243086 Par ch=1 c=64 v=72
243101 Par ch=1 c=64 v=88
243121 Par ch=1 c=64 v=104
243126 On ch=1 n=d#7 v=0
243136 Par ch=1 c=64 v=127
243241 Par ch=1 c=64 v=88
243256 Par ch=1 c=64 v=56
243276 Par ch=1 c=64 v=24
243296 Par ch=1 c=64 v=0
243306 On ch=1 n=c7 v=68
243321 On ch=1 n=d#6 v=36
243326 On ch=1 n=a5 v=39
243326 On ch=1 n=f5 v=39
243416 Par ch=1 c=64 v=56
243436 Par ch=1 c=64 v=104
243451 Par ch=1 c=64 v=127
243571 On ch=1 n=f5 v=0
243571 On ch=1 n=a5 v=0
243601 On ch=1 n=c7 v=0
243621 On ch=1 n=b6 v=71
243676 Par ch=1 c=64 v=104
243696 Par ch=1 c=64 v=56
243711 Par ch=1 c=64 v=24
243716 On ch=1 n=b6 v=0
243716 On ch=1 n=c7 v=83
243731 Par ch=1 c=64 v=0
243736 On ch=1 n=f5 v=49
243741 On ch=1 n=a5 v=47
243786 On ch=1 n=a5 v=0
243791 On ch=1 n=f5 v=0
243831 On ch=1 n=c7 v=0
243941 On ch=1 n=d7 v=82
243966 On ch=1 n=a5 v=37
243966 On ch=1 n=f5 v=45
244006 On ch=1 n=a5 v=0
244011 On ch=1 n=f5 v=0
244046 On ch=1 n=d7 v=0
244131 On ch=1 n=d#7 v=75
244136 On ch=1 n=d#6 v=0
244141 On ch=1 n=a5 v=55
244141 On ch=1 n=f5 v=45
244146 Par ch=1 c=64 v=40
244166 Par ch=1 c=64 v=72
244171 On ch=1 n=a5 v=0
244186 On ch=1 n=f5 v=0
244186 Par ch=1 c=64 v=104
244201 On ch=1 n=d#7 v=0
244256 On ch=1 n=d#7 v=88
244256 Par ch=1 c=64 v=127
244346 On ch=1 n=d#7 v=0
244356 Par ch=1 c=64 v=88
244376 Par ch=1 c=64 v=40
244391 Par ch=1 c=64 v=0
244436 On ch=1 n=g8 v=88
244456 On ch=1 n=f4 v=56
244456 On ch=1 n=c5 v=55
244481 Par ch=1 c=64 v=56
244486 On ch=1 n=g8 v=0
244491 On ch=1 n=f4 v=0
244496 Par ch=1 c=64 v=127
244556 On ch=1 n=c5 v=0
244796 On ch=1 n=c7 v=78
244796 Par ch=1 c=64 v=72
244811 On ch=1 n=d#6 v=46
244811 Par ch=1 c=64 v=0
244816 On ch=1 n=a5 v=49
244826 On ch=1 n=f5 v=39
244901 Par ch=1 c=64 v=24
244916 Par ch=1 c=64 v=104
244931 Par ch=1 c=64 v=127
245011 On ch=1 n=f5 v=0
245016 On ch=1 n=a5 v=0
245051 On ch=1 n=c7 v=0
245091 On ch=1 n=b6 v=68
245161 Par ch=1 c=64 v=104
245171 On ch=1 n=c7 v=82
245176 Par ch=1 c=64 v=56
245191 On ch=1 n=b6 v=0
245191 On ch=1 n=f5 v=47
245196 On ch=1 n=a5 v=49
245196 Par ch=1 c=64 v=24
245211 Par ch=1 c=64 v=0
245241 On ch=1 n=a5 v=0
245241 On ch=1 n=d#6 v=0
245256 On ch=1 n=f5 v=0
245291 On ch=1 n=c7 v=0
245391 On ch=1 n=d7 v=83
245401 On ch=1 n=d#6 v=57
245411 On ch=1 n=f5 v=58
245416 On ch=1 n=a5 v=55
245461 On ch=1 n=a5 v=0
245466 On ch=1 n=d#6 v=0
245476 On ch=1 n=f5 v=0
245491 On ch=1 n=d7 v=0
245586 On ch=1 n=d#7 v=76
245601 On ch=1 n=a5 v=53
245611 On ch=1 n=f5 v=41
245651 On ch=1 n=f5 v=0
245656 On ch=1 n=a5 v=0
245681 On ch=1 n=d#7 v=0
245731 On ch=1 n=d#7 v=79
245811 On ch=1 n=d#7 v=0
245846 On ch=1 n=a#7 v=82
245856 Par ch=1 c=64 v=24
245861 On ch=1 n=a#4 v=48
245876 Par ch=1 c=64 v=72
245891 Par ch=1 c=64 v=104
245906 On ch=1 n=a#4 v=0
245911 On ch=1 n=a#7 v=0
245911 Par ch=1 c=64 v=127
246051 Par ch=1 c=64 v=104
246156 On ch=1 n=a#6 v=63
246156 Par ch=1 c=64 v=56
246171 On ch=1 n=d6 v=57
246171 Par ch=1 c=64 v=0
246191 On ch=1 n=a#5 v=35
246206 On ch=1 n=f5 v=34
246311 Par ch=1 c=64 v=72
246326 Par ch=1 c=64 v=127
246381 On ch=1 n=a#5 v=0
246391 On ch=1 n=f5 v=0
246391 On ch=1 n=a#6 v=0
246461 On ch=1 n=a6 v=75
246521 Par ch=1 c=64 v=88
246536 On ch=1 n=a#6 v=70
246536 Par ch=1 c=64 v=56
246556 On ch=1 n=a#5 v=46
246556 Par ch=1 c=64 v=24
246561 On ch=1 n=f5 v=53
246571 On ch=1 n=a6 v=0
246576 Par ch=1 c=64 v=0
246606 On ch=1 n=f5 v=0
246621 On ch=1 n=a#5 v=0
246651 On ch=1 n=a#6 v=0
246666 On ch=1 n=d6 v=0
246751 On ch=1 n=c7 v=82
246771 On ch=1 n=a#5 v=60
246776 On ch=1 n=f5 v=62
246776 On ch=1 n=d6 v=33
246821 On ch=1 n=d6 v=0
246821 On ch=1 n=f5 v=0
246836 On ch=1 n=a#5 v=0
246921 On ch=1 n=c7 v=0
246956 On ch=1 n=d7 v=85
246966 On ch=1 n=a#5 v=46
246966 On ch=1 n=f5 v=50
247011 On ch=1 n=d7 v=0
247021 On ch=1 n=f5 v=0
247086 On ch=1 n=d7 v=93
247161 On ch=1 n=d7 v=0
247206 On ch=1 n=a#4 v=57
247206 On ch=1 n=f8 v=100
247206 On ch=1 n=f5 v=65
247216 Par ch=1 c=64 v=40
247231 On ch=1 n=a#5 v=0
247236 On ch=1 n=f8 v=0
247236 Par ch=1 c=64 v=72
247251 Par ch=1 c=64 v=104
247256 On ch=1 n=a#4 v=0
247266 On ch=1 n=f5 v=0
247271 Par ch=1 c=64 v=127
247391 Par ch=1 c=64 v=104
247406 Par ch=1 c=64 v=72
247426 Par ch=1 c=64 v=24
247441 Par ch=1 c=64 v=0
247481 On ch=1 n=f6 v=94
247506 On ch=1 n=f5 v=82
247516 On ch=1 n=f4 v=68
247566 Par ch=1 c=64 v=56
247581 Par ch=1 c=64 v=127
247586 On ch=1 n=f4 v=0
247606 On ch=1 n=f5 v=0
247701 On ch=1 n=f6 v=0
247776 On ch=1 n=d#5 v=78
247786 On ch=1 n=d#4 v=83
247796 On ch=1 n=d#6 v=87
247821 On ch=1 n=d#4 v=0
247831 On ch=1 n=d#5 v=0
247841 Par ch=1 c=64 v=88
247861 On ch=1 n=d#6 v=0
247861 Par ch=1 c=64 v=40
247881 Par ch=1 c=64 v=0
247886 On ch=1 n=d6 v=93
247896 On ch=1 n=d5 v=82
247916 On ch=1 n=d4 v=74
247946 On ch=1 n=d4 v=0
247956 On ch=1 n=d5 v=0
247986 On ch=1 n=d6 v=0
248126 On ch=1 n=c6 v=89
248126 On ch=1 n=c4 v=65
248136 On ch=1 n=c5 v=76
248196 On ch=1 n=c5 v=0
248196 On ch=1 n=c4 v=0
248281 On ch=1 n=c6 v=0
248366 On ch=1 n=a#5 v=91
248381 On ch=1 n=a#4 v=73
248381 On ch=1 n=a#3 v=64
248436 On ch=1 n=a#5 v=0
248446 On ch=1 n=a#4 v=0
248456 On ch=1 n=a#3 v=0
248661 On ch=1 n=d#7 v=79
248736 Par ch=1 c=64 v=24
248746 On ch=1 n=a#3 v=50
248751 On ch=1 n=a#2 v=61
248751 Par ch=1 c=64 v=72
248756 On ch=1 n=d#7 v=0
248761 On ch=1 n=g7 v=103
248771 Par ch=1 c=64 v=127
248786 On ch=1 n=a#2 v=0
248786 On ch=1 n=a#3 v=0
248816 On ch=1 n=g7 v=0
249046 Par ch=1 c=64 v=56
249051 On ch=1 n=a#6 v=93
249056 On ch=1 n=g6 v=90
249056 On ch=1 n=a#5 v=84
249061 On ch=1 n=a#4 v=64
249061 On ch=1 n=d#5 v=74
249061 Par ch=1 c=64 v=0
249086 On ch=1 n=d#4 v=60
249111 On ch=1 n=a#5 v=0
249141 On ch=1 n=d#4 v=0
249151 Par ch=1 c=64 v=88
249156 On ch=1 n=a#4 v=0
249171 Par ch=1 c=64 v=127
249191 On ch=1 n=d#5 v=0
249201 On ch=1 n=a#6 v=0
249276 On ch=1 n=g6 v=0
249361 On ch=1 n=a6 v=86
249366 On ch=1 n=g#6 v=28
249376 On ch=1 n=d#5 v=75
249376 On ch=1 n=a4 v=74
249391 On ch=1 n=a6 v=0
249396 On ch=1 n=g#6 v=0
249396 Par ch=1 c=64 v=104
249401 On ch=1 n=a4 v=0
249411 Par ch=1 c=64 v=56
249426 On ch=1 n=d#5 v=0
249431 Par ch=1 c=64 v=24
249446 Par ch=1 c=64 v=0
249451 On ch=1 n=a#6 v=90
249451 On ch=1 n=a#5 v=89
249481 On ch=1 n=d#5 v=72
249486 On ch=1 n=d#4 v=74
249496 On ch=1 n=a#4 v=62
249526 On ch=1 n=a#5 v=0
249556 On ch=1 n=a#4 v=0
249556 On ch=1 n=d#5 v=0
249571 On ch=1 n=d#4 v=0
249631 On ch=1 n=a#6 v=0
249686 On ch=1 n=d#5 v=72
249686 On ch=1 n=d#4 v=64
249686 On ch=1 n=c7 v=100
249691 On ch=1 n=c6 v=86
249691 On ch=1 n=a#4 v=60
249756 On ch=1 n=c6 v=0
249756 On ch=1 n=d#4 v=0
249786 On ch=1 n=a#4 v=0
249786 On ch=1 n=c7 v=0
249801 On ch=1 n=d#5 v=0
249901 On ch=1 n=c#7 v=88
249906 On ch=1 n=c#6 v=93
249906 On ch=1 n=e5 v=79
249906 On ch=1 n=a#4 v=62
249916 On ch=1 n=a#6 v=64
249931 On ch=1 n=e4 v=51
249951 On ch=1 n=a#6 v=0
249961 On ch=1 n=e4 v=0
249966 On ch=1 n=c#6 v=0
249981 On ch=1 n=a#4 v=0
249981 On ch=1 n=e5 v=0
250046 On ch=1 n=c#7 v=0
250106 On ch=1 n=d6 v=82
250116 On ch=1 n=a#4 v=64
250126 On ch=1 n=d7 v=93
250126 On ch=1 n=f5 v=78
250141 On ch=1 n=a#6 v=33
250151 On ch=1 n=f5 v=0
250151 On ch=1 n=f4 v=56
250161 Par ch=1 c=64 v=24
250171 On ch=1 n=a#6 v=0
250171 On ch=1 n=d6 v=0
250176 On ch=1 n=a#4 v=0
250181 Par ch=1 c=64 v=72
250186 On ch=1 n=f4 v=0
250196 Par ch=1 c=64 v=127
250216 On ch=1 n=f7 v=99
250231 On ch=1 n=d7 v=0
250261 On ch=1 n=f7 v=0
250301 Par ch=1 c=64 v=72
250316 Par ch=1 c=64 v=0
250401 On ch=1 n=f5 v=93
250416 On ch=1 n=f4 v=82
250416 On ch=1 n=f3 v=77
250441 Par ch=1 c=64 v=40
250461 Par ch=1 c=64 v=104
250471 On ch=1 n=f5 v=0
250476 Par ch=1 c=64 v=127
250486 On ch=1 n=f4 v=0
250496 On ch=1 n=f3 v=0
250706 On ch=1 n=d#4 v=83
250706 On ch=1 n=d#3 v=75
250716 On ch=1 n=d#5 v=78
250751 On ch=1 n=d#4 v=0
250766 On ch=1 n=d#3 v=0
250776 Par ch=1 c=64 v=72
250791 Par ch=1 c=64 v=24
250796 On ch=1 n=d#5 v=0
250811 On ch=1 n=d5 v=90
250811 Par ch=1 c=64 v=0
250826 On ch=1 n=d4 v=85
250836 On ch=1 n=d3 v=78
250866 On ch=1 n=d3 v=0
250876 On ch=1 n=d4 v=0
250921 On ch=1 n=d5 v=0
251061 On ch=1 n=c5 v=86
251066 On ch=1 n=c4 v=80
251091 On ch=1 n=c3 v=59
251111 On ch=1 n=c4 v=0
251121 On ch=1 n=c3 v=0
251191 On ch=1 n=c5 v=0
251281 On ch=1 n=a#4 v=85
251301 On ch=1 n=a#3 v=89
251311 On ch=1 n=a#2 v=82
251336 On ch=1 n=a#4 v=0
251356 On ch=1 n=a#3 v=0
251361 On ch=1 n=a#2 v=0
251536 On ch=1 n=d#7 v=77
251601 On ch=1 n=a#2 v=53
251606 On ch=1 n=a#3 v=85
251631 On ch=1 n=g7 v=103
251636 On ch=1 n=a#2 v=0
251636 On ch=1 n=d#7 v=0
251646 Par ch=1 c=64 v=40
251651 On ch=1 n=a#3 v=0
251661 Par ch=1 c=64 v=104
251681 Par ch=1 c=64 v=127
251691 On ch=1 n=g7 v=0
251886 Par ch=1 c=64 v=88
251906 Par ch=1 c=64 v=0
251911 On ch=1 n=a#6 v=88
251911 On ch=1 n=a#4 v=71
251916 On ch=1 n=a#5 v=82
251916 On ch=1 n=g6 v=85
251916 On ch=1 n=d#5 v=64
251946 On ch=1 n=d#4 v=51
251976 On ch=1 n=d#4 v=0
251981 On ch=1 n=d#5 v=0
251991 Par ch=1 c=64 v=40
251996 On ch=1 n=a#5 v=0
252011 On ch=1 n=a#4 v=0
252011 Par ch=1 c=64 v=104
252031 Par ch=1 c=64 v=127
252056 On ch=1 n=a#6 v=0
252116 On ch=1 n=g6 v=0
252206 On ch=1 n=a6 v=84
252206 On ch=1 n=f#6 v=60
252206 On ch=1 n=a5 v=60
252231 On ch=1 n=a4 v=67
252231 On ch=1 n=d#5 v=72
252256 Par ch=1 c=64 v=88
252261 On ch=1 n=a4 v=0
252261 On ch=1 n=a5 v=0
252261 On ch=1 n=f#6 v=0
252266 On ch=1 n=a6 v=0
252266 On ch=1 n=d#4 v=35
252271 On ch=1 n=d#5 v=0
252276 Par ch=1 c=64 v=40
252286 Par ch=1 c=64 v=0
252291 On ch=1 n=d#4 v=0
252311 On ch=1 n=a#6 v=97
252311 On ch=1 n=a#5 v=87
252311 On ch=1 n=g6 v=65
252326 On ch=1 n=d#5 v=72
252326 On ch=1 n=d#4 v=63
252336 On ch=1 n=a#4 v=71
252366 On ch=1 n=g6 v=0
252366 On ch=1 n=a#5 v=0
252396 On ch=1 n=d#5 v=0
252401 On ch=1 n=d#4 v=0
252411 On ch=1 n=a#4 v=0
252461 On ch=1 n=a#6 v=0
252531 On ch=1 n=d#4 v=69
252536 On ch=1 n=c7 v=102
252536 On ch=1 n=d#5 v=70
252536 On ch=1 n=a#4 v=57
252536 On ch=1 n=g6 v=65
252541 On ch=1 n=c6 v=88
252591 On ch=1 n=g6 v=0
252601 On ch=1 n=c6 v=0
252616 On ch=1 n=d#4 v=0
252631 On ch=1 n=a#4 v=0
252631 On ch=1 n=d#5 v=0
252631 On ch=1 n=c7 v=0
252746 On ch=1 n=a#4 v=72
252746 On ch=1 n=c#7 v=90
252746 On ch=1 n=e5 v=80
252756 On ch=1 n=c#6 v=92
252756 On ch=1 n=e4 v=66
252766 On ch=1 n=a#6 v=63
252786 On ch=1 n=e4 v=0
252796 On ch=1 n=a#6 v=0
252811 On ch=1 n=c#6 v=0
252821 On ch=1 n=e5 v=0
252851 On ch=1 n=c#7 v=0
252861 On ch=1 n=a#4 v=0
252961 On ch=1 n=d6 v=74
252961 On ch=1 n=d7 v=85
252961 On ch=1 n=a#4 v=62
252961 On ch=1 n=a#6 v=65
252966 On ch=1 n=f5 v=81
252976 On ch=1 n=f4 v=74
252996 On ch=1 n=f5 v=0
253016 On ch=1 n=a#6 v=0
253021 Par ch=1 c=64 v=56
253026 On ch=1 n=a#4 v=0
253036 On ch=1 n=d6 v=0
253036 Par ch=1 c=64 v=104
253041 On ch=1 n=f4 v=0
253056 Par ch=1 c=64 v=127
253081 On ch=1 n=f7 v=100
253091 On ch=1 n=d7 v=0
253126 On ch=1 n=f7 v=0
253141 Par ch=1 c=64 v=104
253161 Par ch=1 c=64 v=72
253176 Par ch=1 c=64 v=0
253276 On ch=1 n=f5 v=96
253281 On ch=1 n=f4 v=82
253286 On ch=1 n=f3 v=70
253301 Par ch=1 c=64 v=88
253321 Par ch=1 c=64 v=127
253346 On ch=1 n=f4 v=0
253356 On ch=1 n=f5 v=0
253361 On ch=1 n=f3 v=0
253581 On ch=1 n=d#4 v=77
253586 On ch=1 n=d#5 v=75
253586 On ch=1 n=d#3 v=69
253616 On ch=1 n=d#3 v=0
253616 On ch=1 n=d#4 v=0
253651 Par ch=1 c=64 v=104
253666 Par ch=1 c=64 v=56
253681 On ch=1 n=d#5 v=0
253686 On ch=1 n=d5 v=83
253686 Par ch=1 c=64 v=24
253696 On ch=1 n=d4 v=82
253701 Par ch=1 c=64 v=0
253711 On ch=1 n=d3 v=68
253741 On ch=1 n=d3 v=0
253746 On ch=1 n=d4 v=0
253781 On ch=1 n=d5 v=0
253941 On ch=1 n=c5 v=75
253946 On ch=1 n=c4 v=76
253966 On ch=1 n=c3 v=48
253986 On ch=1 n=c4 v=0
254001 On ch=1 n=c3 v=0
254046 On ch=1 n=c5 v=0
254171 On ch=1 n=a#4 v=74
254191 On ch=1 n=a#3 v=79
254201 On ch=1 n=a#2 v=72
254226 On ch=1 n=a#4 v=0
254251 On ch=1 n=a#3 v=0
254261 On ch=1 n=a#2 v=0
254461 On ch=1 n=g6 v=81
254481 On ch=1 n=a#2 v=46
254486 On ch=1 n=a#3 v=47
254511 On ch=1 n=a#2 v=0
254531 On ch=1 n=a#3 v=0
254541 Par ch=1 c=64 v=24
254556 On ch=1 n=g6 v=0
254556 Par ch=1 c=64 v=72
254561 On ch=1 n=a#6 v=80
254576 Par ch=1 c=64 v=104
254591 Par ch=1 c=64 v=127
254631 On ch=1 n=a#6 v=0
254796 Par ch=1 c=64 v=104
254816 Par ch=1 c=64 v=56
254821 On ch=1 n=d#6 v=74
254836 Par ch=1 c=64 v=0
254846 On ch=1 n=a#4 v=42
254851 On ch=1 n=g4 v=51
254856 On ch=1 n=d#5 v=40
254921 On ch=1 n=d#6 v=0
254956 On ch=1 n=g4 v=0
254956 Par ch=1 c=64 v=40
254966 On ch=1 n=d#5 v=0
254976 Par ch=1 c=64 v=104
254991 Par ch=1 c=64 v=127
254996 On ch=1 n=a#4 v=0
255166 Par ch=1 c=64 v=104
255186 Par ch=1 c=64 v=88
255201 Par ch=1 c=64 v=56
255206 On ch=1 n=c6 v=72
255216 Par ch=1 c=64 v=0
255316 On ch=1 n=c6 v=0
255326 On ch=1 n=a#5 v=71
255351 On ch=1 n=a#2 v=65
255356 On ch=1 n=a#3 v=67
255401 On ch=1 n=a#2 v=0
255411 On ch=1 n=a#3 v=0
255411 On ch=1 n=a#5 v=0
255446 Par ch=1 c=64 v=56
255461 Par ch=1 c=64 v=104
255471 On ch=1 n=d6 v=88
255481 Par ch=1 c=64 v=127
255551 On ch=1 n=d6 v=0
255566 Par ch=1 c=64 v=104
255586 Par ch=1 c=64 v=56
255601 Par ch=1 c=64 v=24
255616 Par ch=1 c=64 v=0
255706 On ch=1 n=g5 v=81
255711 On ch=1 n=d5 v=58
255711 On ch=1 n=f4 v=55
255721 On ch=1 n=a#4 v=45
255776 Par ch=1 c=64 v=56
255786 On ch=1 n=d5 v=0
255796 On ch=1 n=f4 v=0
255796 Par ch=1 c=64 v=88
255811 On ch=1 n=a#4 v=0
255811 Par ch=1 c=64 v=127
255971 On ch=1 n=g5 v=0
256061 On ch=1 n=f5 v=58
256101 On ch=1 n=f5 v=0
256126 Par ch=1 c=64 v=88
256141 Par ch=1 c=64 v=24
256161 Par ch=1 c=64 v=0
256186 On ch=1 n=e5 v=70
256231 On ch=1 n=g2 v=63
256241 On ch=1 n=g3 v=59
256261 On ch=1 n=g2 v=0
256266 Par ch=1 c=64 v=72
256276 On ch=1 n=e5 v=0
256281 Par ch=1 c=64 v=127
256286 On ch=1 n=a#5 v=75
256301 On ch=1 n=g3 v=0
256351 Par ch=1 c=64 v=88
256361 On ch=1 n=a#5 v=0
256371 Par ch=1 c=64 v=56
256386 Par ch=1 c=64 v=24
256406 Par ch=1 c=64 v=0
256596 On ch=1 n=a5 v=67
256601 On ch=1 n=c#5 v=47
256616 On ch=1 n=e4 v=57
256681 Par ch=1 c=64 v=56
256696 On ch=1 n=e4 v=0
256701 On ch=1 n=c#5 v=0
256701 Par ch=1 c=64 v=104
256716 Par ch=1 c=64 v=127
256916 On ch=1 n=a5 v=0
257016 On ch=1 n=g5 v=62
257081 On ch=1 n=g5 v=0
257141 On ch=1 n=f#5 v=62
257151 Par ch=1 c=64 v=72
257171 Par ch=1 c=64 v=0
257251 On ch=1 n=a3 v=48
257256 On ch=1 n=a2 v=42
257266 On ch=1 n=d#6 v=75
257271 On ch=1 n=f#5 v=0
257291 Par ch=1 c=64 v=24
257296 On ch=1 n=a2 v=0
257311 Par ch=1 c=64 v=88
257326 Par ch=1 c=64 v=127
257341 On ch=1 n=a3 v=0
257361 On ch=1 n=d#6 v=0
257396 Par ch=1 c=64 v=104
257416 Par ch=1 c=64 v=72
257431 Par ch=1 c=64 v=40
257451 Par ch=1 c=64 v=24
257466 Par ch=1 c=64 v=0
257651 On ch=1 n=d6 v=63
257686 On ch=1 n=c5 v=45
257686 On ch=1 n=f#4 v=34
257706 On ch=1 n=d#4 v=30
257886 On ch=1 n=c5 v=0
257901 Par ch=1 c=64 v=40
257921 Par ch=1 c=64 v=72
257936 On ch=1 n=d#4 v=0
257936 On ch=1 n=f#4 v=0
257936 Par ch=1 c=64 v=104
258001 On ch=1 n=d6 v=0
258006 Par ch=1 c=64 v=127
258131 On ch=1 n=c6 v=63
258221 On ch=1 n=c6 v=0
258356 Par ch=1 c=64 v=72
258361 On ch=1 n=a5 v=58
258371 Par ch=1 c=64 v=0
258441 On ch=1 n=f3 v=48
258456 On ch=1 n=a5 v=0
258471 On ch=1 n=d#6 v=74
258496 On ch=1 n=f3 v=0
258496 Par ch=1 c=64 v=24
258511 Par ch=1 c=64 v=56
258551 On ch=1 n=d#6 v=0
258581 Par ch=1 c=64 v=24
258596 Par ch=1 c=64 v=0
258806 On ch=1 n=d#5 v=43
258816 On ch=1 n=c6 v=68
258831 On ch=1 n=a4 v=43
258831 On ch=1 n=f4 v=47
258861 Par ch=1 c=64 v=40
258876 Par ch=1 c=64 v=88
258896 Par ch=1 c=64 v=127
258901 On ch=1 n=a4 v=0
258911 On ch=1 n=f4 v=0
259051 On ch=1 n=c6 v=0
259161 On ch=1 n=b5 v=54
259226 Par ch=1 c=64 v=104
259231 On ch=1 n=c6 v=82
259241 On ch=1 n=b5 v=0
259246 Par ch=1 c=64 v=56
259261 Par ch=1 c=64 v=0
259266 On ch=1 n=f4 v=48
259281 On ch=1 n=a4 v=33
259301 On ch=1 n=f4 v=0
259316 On ch=1 n=a4 v=0
259336 On ch=1 n=c6 v=0
259491 On ch=1 n=d6 v=78
259491 On ch=1 n=f4 v=64
259501 On ch=1 n=a4 v=48
259541 On ch=1 n=a4 v=0
259551 On ch=1 n=f4 v=0
259571 On ch=1 n=d#5 v=0
259606 On ch=1 n=d6 v=0
259706 On ch=1 n=d#6 v=79
259711 On ch=1 n=a4 v=51
259746 On ch=1 n=a4 v=0
259761 On ch=1 n=d#6 v=0
259836 On ch=1 n=d#6 v=87
259896 On ch=1 n=d#6 v=0
260011 On ch=1 n=g7 v=96
260041 On ch=1 n=f3 v=52
260066 On ch=1 n=g7 v=0
260066 Par ch=1 c=64 v=56
260081 Par ch=1 c=64 v=104
260086 On ch=1 n=f3 v=0
260096 Par ch=1 c=64 v=127
260361 Par ch=1 c=64 v=104
260376 Par ch=1 c=64 v=56
260396 Par ch=1 c=64 v=0
260401 On ch=1 n=c6 v=74
260401 On ch=1 n=d#5 v=45
260411 On ch=1 n=a4 v=49
260416 On ch=1 n=f4 v=45
260466 Par ch=1 c=64 v=24
260481 Par ch=1 c=64 v=88
260501 Par ch=1 c=64 v=127
260516 On ch=1 n=a4 v=0
260526 On ch=1 n=f4 v=0
260611 On ch=1 n=c6 v=0
260706 On ch=1 n=b5 v=66
260781 On ch=1 n=c6 v=82
260781 Par ch=1 c=64 v=72
260791 On ch=1 n=b5 v=0
260796 Par ch=1 c=64 v=40
260811 On ch=1 n=f4 v=53
260816 On ch=1 n=a4 v=44
260816 Par ch=1 c=64 v=0
260851 On ch=1 n=a4 v=0
260851 On ch=1 n=f4 v=0
260856 On ch=1 n=d#5 v=0
260896 On ch=1 n=c6 v=0
261006 On ch=1 n=d6 v=84
261016 On ch=1 n=d#5 v=61
261021 On ch=1 n=f4 v=63
261026 On ch=1 n=a4 v=52
261061 On ch=1 n=a4 v=0
261061 On ch=1 n=f4 v=0
261071 On ch=1 n=d#5 v=0
261096 On ch=1 n=d6 v=0
261206 On ch=1 n=d#6 v=79
261216 On ch=1 n=f4 v=60
261216 On ch=1 n=a4 v=54
261241 On ch=1 n=f4 v=0
261251 On ch=1 n=a4 v=0
261281 On ch=1 n=d#6 v=0
261356 On ch=1 n=d#6 v=74
261421 On ch=1 n=d#6 v=0
261461 On ch=1 n=a#6 v=81
261461 On ch=1 n=a#3 v=60
261501 On ch=1 n=a#3 v=0
261511 Par ch=1 c=64 v=56
261516 On ch=1 n=a#6 v=0
261526 Par ch=1 c=64 v=88
261546 Par ch=1 c=64 v=127
261651 Par ch=1 c=64 v=88
261666 Par ch=1 c=64 v=72
261686 Par ch=1 c=64 v=56
261701 Par ch=1 c=64 v=24
261721 Par ch=1 c=64 v=0
261771 On ch=1 n=a#5 v=73
261781 On ch=1 n=d5 v=53
261791 On ch=1 n=a#4 v=35
261806 On ch=1 n=f4 v=52
261841 Par ch=1 c=64 v=40
261856 Par ch=1 c=64 v=104
261876 Par ch=1 c=64 v=127
261976 On ch=1 n=a#5 v=0
262001 On ch=1 n=a#4 v=0
262006 On ch=1 n=f4 v=0
262081 On ch=1 n=a5 v=72
262121 Par ch=1 c=64 v=104
262136 Par ch=1 c=64 v=56
262146 On ch=1 n=a#5 v=70
262151 On ch=1 n=a#4 v=51
262156 Par ch=1 c=64 v=24
262161 On ch=1 n=a5 v=0
262161 On ch=1 n=f4 v=62
262171 Par ch=1 c=64 v=0
262196 On ch=1 n=f4 v=0
262221 On ch=1 n=a#4 v=0
262236 On ch=1 n=d5 v=0
262261 On ch=1 n=a#5 v=0
262356 On ch=1 n=c6 v=87
262376 On ch=1 n=a#4 v=57
262376 On ch=1 n=d5 v=55
262381 On ch=1 n=f4 v=68
262421 On ch=1 n=d5 v=0
262426 On ch=1 n=f4 v=0
262441 On ch=1 n=a#4 v=0
262516 On ch=1 n=c6 v=0
262551 On ch=1 n=d6 v=88
262566 On ch=1 n=a#4 v=50
262621 On ch=1 n=d6 v=0
262691 On ch=1 n=d6 v=96
262751 On ch=1 n=d6 v=0
262796 On ch=1 n=a#3 v=60
262806 On ch=1 n=f7 v=100
262821 On ch=1 n=a#3 v=0
262821 On ch=1 n=a#4 v=0
262821 Par ch=1 c=64 v=56
262836 Par ch=1 c=64 v=88
262851 Par ch=1 c=64 v=104
262856 On ch=1 n=f7 v=0
262941 Par ch=1 c=64 v=88
262956 Par ch=1 c=64 v=72
262976 Par ch=1 c=64 v=40
262991 Par ch=1 c=64 v=0
263046 On ch=1 n=f5 v=103
263086 On ch=1 n=f4 v=87
263096 On ch=1 n=f3 v=75
263111 Par ch=1 c=64 v=40
263131 Par ch=1 c=64 v=104
263151 Par ch=1 c=64 v=127
263156 On ch=1 n=f4 v=0
263176 On ch=1 n=f3 v=0
263281 On ch=1 n=f5 v=0
263361 On ch=1 n=d#5 v=85
263366 On ch=1 n=d#4 v=87
263366 On ch=1 n=d#3 v=76
263391 Par ch=1 c=64 v=88
263411 On ch=1 n=d#4 v=0
263411 Par ch=1 c=64 v=56
263421 On ch=1 n=d#3 v=0
263426 Par ch=1 c=64 v=0
263436 On ch=1 n=d#5 v=0
263456 On ch=1 n=d5 v=100
263476 On ch=1 n=d4 v=96
263486 On ch=1 n=d3 v=84
263516 On ch=1 n=d3 v=0
263536 On ch=1 n=d4 v=0
263556 On ch=1 n=d5 v=0
263706 On ch=1 n=c5 v=94
263706 On ch=1 n=c4 v=89
263721 On ch=1 n=c3 v=77
263751 On ch=1 n=c3 v=0
263761 On ch=1 n=c4 v=0
263861 On ch=1 n=c5 v=0
263931 On ch=1 n=a#4 v=82
263941 On ch=1 n=a#3 v=81
263951 On ch=1 n=a#2 v=58
263951 Par ch=1 c=64 v=24
263966 Par ch=1 c=64 v=40
263971 On ch=1 n=a#3 v=0
263976 On ch=1 n=a#2 v=0
263986 On ch=1 n=a#4 v=0
264076 Par ch=1 c=64 v=24
264091 Par ch=1 c=64 v=0
264231 On ch=1 n=a6 v=66
264266 On ch=1 n=f3 v=59
264276 On ch=1 n=f4 v=63
264301 On ch=1 n=f3 v=0
264301 On ch=1 n=d#7 v=86
264301 Par ch=1 c=64 v=24
264316 Par ch=1 c=64 v=56
264321 On ch=1 n=a6 v=0
264331 On ch=1 n=f4 v=0
264386 Par ch=1 c=64 v=88
264411 On ch=1 n=d#7 v=0
264421 Par ch=1 c=64 v=104
264561 Par ch=1 c=64 v=72
264581 Par ch=1 c=64 v=40
264596 Par ch=1 c=64 v=0
264616 On ch=1 n=c7 v=78
264621 On ch=1 n=d#6 v=50
264631 On ch=1 n=a5 v=58
264636 On ch=1 n=f5 v=56
264736 Par ch=1 c=64 v=40
264751 Par ch=1 c=64 v=104
264766 Par ch=1 c=64 v=127
264896 On ch=1 n=c7 v=0
264901 On ch=1 n=f5 v=0
264906 On ch=1 n=a5 v=0
264936 On ch=1 n=b6 v=71
265016 Par ch=1 c=64 v=72
265021 On ch=1 n=c7 v=85
265031 Par ch=1 c=64 v=24
265046 On ch=1 n=b6 v=0
265046 On ch=1 n=f5 v=63
265046 On ch=1 n=a5 v=60
265051 Par ch=1 c=64 v=0
265096 On ch=1 n=a5 v=0
265111 On ch=1 n=f5 v=0
265131 On ch=1 n=c7 v=0
265246 On ch=1 n=d7 v=76
265251 On ch=1 n=f5 v=59
265261 On ch=1 n=a5 v=58
265296 On ch=1 n=a5 v=0
265296 On ch=1 n=f5 v=0
265311 On ch=1 n=d#6 v=0
265331 On ch=1 n=d7 v=0
265421 On ch=1 n=d#7 v=84
265431 On ch=1 n=a5 v=58
265431 On ch=1 n=f5 v=45
265431 Par ch=1 c=64 v=24
265451 Par ch=1 c=64 v=72
265461 On ch=1 n=a5 v=0
265466 Par ch=1 c=64 v=104
265486 Par ch=1 c=64 v=127
265491 On ch=1 n=f5 v=0
265496 On ch=1 n=d#7 v=0
265556 On ch=1 n=d#7 v=89
265631 On ch=1 n=d#7 v=0
265641 Par ch=1 c=64 v=88
265661 Par ch=1 c=64 v=56
265676 Par ch=1 c=64 v=0
265731 On ch=1 n=g8 v=99
265756 On ch=1 n=c5 v=53
265776 On ch=1 n=f4 v=55
265781 On ch=1 n=g8 v=0
265801 Par ch=1 c=64 v=72
265811 On ch=1 n=f4 v=0
265816 Par ch=1 c=64 v=127
265831 On ch=1 n=c5 v=0
266111 Par ch=1 c=64 v=104
266116 On ch=1 n=c7 v=81
266126 On ch=1 n=d#6 v=44
266126 Par ch=1 c=64 v=40
266136 On ch=1 n=a5 v=45
266141 On ch=1 n=f5 v=49
266146 Par ch=1 c=64 v=0
266236 Par ch=1 c=64 v=56
266251 Par ch=1 c=64 v=127
266326 On ch=1 n=f5 v=0
266331 On ch=1 n=a5 v=0
266386 On ch=1 n=c7 v=0
266431 On ch=1 n=b6 v=73
266496 Par ch=1 c=64 v=104
266516 On ch=1 n=c7 v=83
266516 Par ch=1 c=64 v=72
266521 On ch=1 n=f5 v=55
266526 Par ch=1 c=64 v=24
266531 On ch=1 n=a5 v=49
266546 On ch=1 n=b6 v=0
266551 Par ch=1 c=64 v=0
266571 On ch=1 n=a5 v=0
266581 On ch=1 n=f5 v=0
266646 On ch=1 n=c7 v=0
266746 On ch=1 n=d7 v=88
266756 On ch=1 n=f5 v=64
266766 On ch=1 n=a5 v=51
266801 On ch=1 n=a5 v=0
266806 On ch=1 n=f5 v=0
266851 On ch=1 n=d7 v=0
266951 On ch=1 n=d#6 v=0
266951 On ch=1 n=d#7 v=80
266961 On ch=1 n=a5 v=62
266976 On ch=1 n=f5 v=39
267006 On ch=1 n=a5 v=0
267011 On ch=1 n=f5 v=0
267021 On ch=1 n=d#7 v=0
267081 On ch=1 n=d#7 v=85
267161 On ch=1 n=d#7 v=0
267201 On ch=1 n=a#7 v=88
267211 Par ch=1 c=64 v=56
267216 On ch=1 n=a#4 v=46
267226 Par ch=1 c=64 v=104
267246 Par ch=1 c=64 v=127
267256 On ch=1 n=a#4 v=0
267271 On ch=1 n=a#7 v=0
267506 Par ch=1 c=64 v=72
267511 On ch=1 n=a#6 v=77
267526 Par ch=1 c=64 v=0
267541 On ch=1 n=a#5 v=45
267546 On ch=1 n=f5 v=54
267551 On ch=1 n=d6 v=42
267596 On ch=1 n=d6 v=0
267631 On ch=1 n=f5 v=0
267631 Par ch=1 c=64 v=72
267646 Par ch=1 c=64 v=127
267656 On ch=1 n=a#5 v=0
267736 On ch=1 n=a#6 v=0
267846 On ch=1 n=a6 v=80
267891 On ch=1 n=a#5 v=49
267891 Par ch=1 c=64 v=104
267906 On ch=1 n=f5 v=52
267906 Par ch=1 c=64 v=72
267926 Par ch=1 c=64 v=40
267941 On ch=1 n=a#6 v=78
267941 Par ch=1 c=64 v=0
267946 On ch=1 n=f5 v=0
267946 On ch=1 n=a6 v=0
267966 On ch=1 n=a#5 v=0
268051 On ch=1 n=a#6 v=0
268131 On ch=1 n=c7 v=71
268151 On ch=1 n=a#5 v=61
268156 On ch=1 n=f5 v=63
268201 On ch=1 n=f5 v=0
268221 On ch=1 n=a#5 v=0
268326 On ch=1 n=d7 v=84
268346 On ch=1 n=a#5 v=62
268371 On ch=1 n=f5 v=49
268381 On ch=1 n=d7 v=0
268381 Par ch=1 c=64 v=40
268386 On ch=1 n=c7 v=0
268396 Par ch=1 c=64 v=72
268411 On ch=1 n=f5 v=0
268411 Par ch=1 c=64 v=88
268431 Par ch=1 c=64 v=104
268466 On ch=1 n=d7 v=97
268516 Par ch=1 c=64 v=24
268536 Par ch=1 c=64 v=0
268546 On ch=1 n=d7 v=0
268581 On ch=1 n=f8 v=103
268581 On ch=1 n=a#4 v=61
268581 On ch=1 n=f5 v=65
268606 Par ch=1 c=64 v=24
268621 On ch=1 n=f8 v=0
268621 On ch=1 n=a#5 v=0
268621 Par ch=1 c=64 v=72
268641 On ch=1 n=f5 v=0
268641 Par ch=1 c=64 v=127
268646 On ch=1 n=a#4 v=0
268811 Par ch=1 c=64 v=56
268831 Par ch=1 c=64 v=0
268851 On ch=1 n=f6 v=105
268871 On ch=1 n=f5 v=79
268891 On ch=1 n=f4 v=77
268936 Par ch=1 c=64 v=56
268951 Par ch=1 c=64 v=127
268961 On ch=1 n=f4 v=0
268961 On ch=1 n=f5 v=0
269071 On ch=1 n=f6 v=0
269141 On ch=1 n=d#5 v=77
269151 On ch=1 n=d#4 v=81
269151 On ch=1 n=d#6 v=87
269176 On ch=1 n=d#4 v=0
269191 On ch=1 n=d#5 v=0
269196 Par ch=1 c=64 v=72
269216 Par ch=1 c=64 v=24
269231 On ch=1 n=d#6 v=0
269231 Par ch=1 c=64 v=0
269246 On ch=1 n=d6 v=103
269251 On ch=1 n=d5 v=88
269276 On ch=1 n=d4 v=81
269306 On ch=1 n=d4 v=0
269306 On ch=1 n=d5 v=0
269371 On ch=1 n=d6 v=0
269486 On ch=1 n=c5 v=90
269491 On ch=1 n=c6 v=97
269506 On ch=1 n=c4 v=82
269536 On ch=1 n=c4 v=0
269546 On ch=1 n=c5 v=0
269641 On ch=1 n=c6 v=0
269736 Par ch=1 c=64 v=24
269751 On ch=1 n=a#5 v=93
269756 On ch=1 n=a#4 v=86
269756 Par ch=1 c=64 v=72
269766 On ch=1 n=a#3 v=81
269771 Par ch=1 c=64 v=127
269801 On ch=1 n=a#3 v=0
269811 On ch=1 n=a#4 v=0
269826 On ch=1 n=a#5 v=0
269946 Par ch=1 c=64 v=104
269966 Par ch=1 c=64 v=88
270001 Par ch=1 c=64 v=72
270011 Par ch=1 c=64 v=40
270016 On ch=1 n=d#7 v=84
270036 Par ch=1 c=64 v=0
270096 On ch=1 n=d#7 v=0
270111 On ch=1 n=a#3 v=99
270111 On ch=1 n=a#2 v=93
270121 On ch=1 n=g7 v=98
270156 On ch=1 n=a#3 v=0
270156 Par ch=1 c=64 v=56
270166 On ch=1 n=a#2 v=0
270171 Par ch=1 c=64 v=127
270181 On ch=1 n=g7 v=0
270401 Par ch=1 c=64 v=72
270416 On ch=1 n=a#6 v=91
270416 Par ch=1 c=64 v=0
270421 On ch=1 n=a#4 v=67
270426 On ch=1 n=g6 v=90
270426 On ch=1 n=d#5 v=74
270436 On ch=1 n=a#5 v=65
270441 On ch=1 n=d#4 v=62
270466 On ch=1 n=a#5 v=0
270491 On ch=1 n=d#5 v=0
270506 On ch=1 n=g6 v=0
270506 Par ch=1 c=64 v=40
270516 On ch=1 n=a#4 v=0
270521 Par ch=1 c=64 v=88
270541 Par ch=1 c=64 v=127
270546 On ch=1 n=d#4 v=0
270551 On ch=1 n=a#6 v=0
270721 On ch=1 n=a6 v=74
270721 On ch=1 n=a4 v=75
270721 On ch=1 n=f#6 v=57
270741 On ch=1 n=d#5 v=67
270751 On ch=1 n=f#6 v=0
270751 On ch=1 n=a6 v=0
270751 Par ch=1 c=64 v=104
270761 On ch=1 n=a4 v=0
270766 On ch=1 n=d#5 v=0
270766 Par ch=1 c=64 v=56
270786 Par ch=1 c=64 v=24
270801 Par ch=1 c=64 v=0
270806 On ch=1 n=a#6 v=97
270806 On ch=1 n=a#5 v=90
270806 On ch=1 n=g6 v=60
270816 On ch=1 n=d#4 v=60
270831 On ch=1 n=d#5 v=60
270836 On ch=1 n=a#4 v=71
270866 On ch=1 n=g6 v=0
270881 On ch=1 n=a#5 v=0
270921 On ch=1 n=d#4 v=0
270926 On ch=1 n=d#5 v=0
270931 On ch=1 n=a#4 v=0
270976 On ch=1 n=a#6 v=0
271031 On ch=1 n=d#5 v=73
271031 On ch=1 n=d#4 v=70
271041 On ch=1 n=a#4 v=62
271041 On ch=1 n=c7 v=96
271041 On ch=1 n=g6 v=60
271051 On ch=1 n=c6 v=82
271096 On ch=1 n=c6 v=0
271101 On ch=1 n=g6 v=0
271111 On ch=1 n=d#4 v=0
271131 On ch=1 n=c7 v=0
271131 On ch=1 n=d#5 v=0
271141 On ch=1 n=a#4 v=0
271246 On ch=1 n=a#4 v=70
271251 On ch=1 n=e5 v=76
271256 On ch=1 n=c#7 v=86
271256 On ch=1 n=g6 v=60
271261 On ch=1 n=c#6 v=86
271276 On ch=1 n=e4 v=28
271316 On ch=1 n=e4 v=0
271316 On ch=1 n=c#6 v=0
271316 On ch=1 n=g6 v=0
271326 On ch=1 n=e5 v=0
271346 On ch=1 n=a#4 v=0
271366 On ch=1 n=c#7 v=0
271461 On ch=1 n=d6 v=85
271471 On ch=1 n=a#4 v=71
271476 On ch=1 n=d7 v=82
271481 On ch=1 n=f5 v=81
271486 On ch=1 n=f4 v=77
271486 On ch=1 n=a#6 v=54
271516 Par ch=1 c=64 v=40
271521 On ch=1 n=d6 v=0
271531 On ch=1 n=f5 v=0
271531 On ch=1 n=a#4 v=0
271536 Par ch=1 c=64 v=88
271551 Par ch=1 c=64 v=127
271556 On ch=1 n=a#6 v=0
271556 On ch=1 n=f4 v=0
271576 On ch=1 n=f7 v=92
271586 On ch=1 n=d7 v=0
271626 On ch=1 n=f7 v=0
271711 Par ch=1 c=64 v=104
271726 Par ch=1 c=64 v=40
271741 Par ch=1 c=64 v=0
271756 On ch=1 n=f5 v=103
271776 On ch=1 n=f4 v=87
271791 On ch=1 n=f3 v=71
271826 Par ch=1 c=64 v=56
271851 Par ch=1 c=64 v=127
271856 On ch=1 n=f5 v=0
271861 On ch=1 n=f4 v=0
271871 On ch=1 n=f3 v=0
272071 On ch=1 n=d#4 v=87
272071 On ch=1 n=d#5 v=85
272071 On ch=1 n=d#3 v=72
272111 Par ch=1 c=64 v=104
272121 On ch=1 n=d#4 v=0
272126 On ch=1 n=d#3 v=0
272131 Par ch=1 c=64 v=56
272141 Par ch=1 c=64 v=0
272151 On ch=1 n=d#5 v=0
272181 On ch=1 n=d5 v=90
272186 On ch=1 n=d4 v=90
272196 On ch=1 n=d3 v=81
272236 On ch=1 n=d4 v=0
272251 On ch=1 n=d3 v=0
272296 On ch=1 n=d5 v=0
272411 On ch=1 n=c5 v=85
272421 On ch=1 n=c4 v=92
272436 On ch=1 n=c3 v=78
272466 On ch=1 n=c3 v=0
272476 On ch=1 n=c4 v=0
272571 On ch=1 n=c5 v=0
272626 On ch=1 n=a#4 v=83
272631 Par ch=1 c=64 v=24
272651 Par ch=1 c=64 v=56
272656 On ch=1 n=a#3 v=89
272661 On ch=1 n=a#2 v=91
272666 Par ch=1 c=64 v=88
272681 On ch=1 n=a#4 v=0
272686 Par ch=1 c=64 v=104
272701 On ch=1 n=a#3 v=0
272721 On ch=1 n=a#2 v=0
272771 Par ch=1 c=64 v=88
272791 Par ch=1 c=64 v=72
272806 Par ch=1 c=64 v=56
272826 Par ch=1 c=64 v=40
272841 Par ch=1 c=64 v=24
272856 Par ch=1 c=64 v=0
272861 On ch=1 n=d#7 v=73
272946 On ch=1 n=d#7 v=0
272946 On ch=1 n=a#2 v=67
272961 On ch=1 n=a#3 v=80
272971 On ch=1 n=g7 v=99
272996 Par ch=1 c=64 v=72
273001 On ch=1 n=a#3 v=0
273001 On ch=1 n=a#2 v=0
273016 On ch=1 n=g7 v=0
273016 Par ch=1 c=64 v=127
273226 Par ch=1 c=64 v=72
273241 Par ch=1 c=64 v=0
273256 On ch=1 n=a#6 v=89
273266 On ch=1 n=g6 v=87
273266 On ch=1 n=a#5 v=77
273266 On ch=1 n=a#4 v=71
273271 On ch=1 n=d#5 v=73
273281 On ch=1 n=d#4 v=70
273331 On ch=1 n=a#5 v=0
273346 Par ch=1 c=64 v=40
273366 Par ch=1 c=64 v=127
273381 On ch=1 n=a#4 v=0
273391 On ch=1 n=d#5 v=0
273411 On ch=1 n=d#4 v=0
273421 On ch=1 n=a#6 v=0
273466 On ch=1 n=g6 v=60
273466 On ch=1 n=g6 v=60
273466 On ch=1 n=g6 v=60
273481 On ch=1 n=g6 v=0
273526 On ch=1 n=g6 v=0
273526 On ch=1 n=g6 v=0
273526 On ch=1 n=g6 v=0
273561 On ch=1 n=a6 v=87
273566 On ch=1 n=a4 v=78
273566 On ch=1 n=f#6 v=62
273571 On ch=1 n=a5 v=46
273576 On ch=1 n=d#5 v=75
273591 On ch=1 n=a6 v=0
273596 On ch=1 n=f#6 v=0
273596 On ch=1 n=a4 v=0
273606 On ch=1 n=d#5 v=0
273606 On ch=1 n=a5 v=0
273606 Par ch=1 c=64 v=72
273626 Par ch=1 c=64 v=24
273646 Par ch=1 c=64 v=0
273666 On ch=1 n=a#6 v=95
273666 On ch=1 n=a#5 v=91
273676 On ch=1 n=d#4 v=83
273686 On ch=1 n=d#5 v=78
273686 On ch=1 n=a#4 v=72
273726 On ch=1 n=a#5 v=0
273766 On ch=1 n=d#5 v=0
273771 On ch=1 n=a#4 v=0
273786 On ch=1 n=d#4 v=0
273821 On ch=1 n=a#6 v=0
273876 On ch=1 n=d#4 v=64
273881 On ch=1 n=d#5 v=80
273881 On ch=1 n=c7 v=102
273881 On ch=1 n=g6 v=65
273886 On ch=1 n=a#4 v=56
273891 On ch=1 n=c6 v=81
273921 On ch=1 n=c6 v=0
273941 On ch=1 n=g6 v=0
273961 On ch=1 n=d#4 v=0
273971 On ch=1 n=c7 v=0
273986 On ch=1 n=a#4 v=0
273991 On ch=1 n=d#5 v=0
274076 On ch=1 n=a#4 v=60
274091 On ch=1 n=e5 v=74
274091 On ch=1 n=c#7 v=86
274091 On ch=1 n=g6 v=65
274096 On ch=1 n=e4 v=68
274096 On ch=1 n=c#6 v=90
274126 On ch=1 n=e4 v=0
274146 On ch=1 n=c#6 v=0
274146 On ch=1 n=e5 v=0
274151 On ch=1 n=g6 v=0
274181 On ch=1 n=a#4 v=0
274201 On ch=1 n=c#7 v=0
274281 On ch=1 n=d6 v=84
274296 On ch=1 n=d7 v=78
274301 On ch=1 n=a#4 v=65
274311 On ch=1 n=f5 v=79
274316 On ch=1 n=f4 v=69
274341 On ch=1 n=f5 v=0
274341 On ch=1 n=d6 v=0
274361 On ch=1 n=a#4 v=0
274361 Par ch=1 c=64 v=40
274376 Par ch=1 c=64 v=88
274381 On ch=1 n=f4 v=0
274391 On ch=1 n=f7 v=100
274391 Par ch=1 c=64 v=127
274411 On ch=1 n=d7 v=0
274441 On ch=1 n=f7 v=0
274566 Par ch=1 c=64 v=72
274586 Par ch=1 c=64 v=0
274616 On ch=1 n=f5 v=83
274621 On ch=1 n=f4 v=89
274626 On ch=1 n=f3 v=75
274686 On ch=1 n=f4 v=0
274691 Par ch=1 c=64 v=88
274706 Par ch=1 c=64 v=127
274711 On ch=1 n=f3 v=0
274831 On ch=1 n=f5 v=0
274906 On ch=1 n=d#4 v=82
274911 On ch=1 n=d#3 v=71
274921 On ch=1 n=d#5 v=71
274951 On ch=1 n=d#4 v=0
274966 Par ch=1 c=64 v=88
274971 On ch=1 n=d#3 v=0
274986 Par ch=1 c=64 v=40
274996 On ch=1 n=d#5 v=0
275001 Par ch=1 c=64 v=0
275021 On ch=1 n=d5 v=90
275031 On ch=1 n=d4 v=87
275046 On ch=1 n=d3 v=74
275071 On ch=1 n=d3 v=0
275086 On ch=1 n=d4 v=0
275121 On ch=1 n=d5 v=0
275261 On ch=1 n=c4 v=90
275261 On ch=1 n=c5 v=85
275271 On ch=1 n=c3 v=80
275301 On ch=1 n=c3 v=0
275321 On ch=1 n=c4 v=0
275386 On ch=1 n=c5 v=0
275491 On ch=1 n=a#4 v=74
275516 On ch=1 n=a#3 v=77
275521 On ch=1 n=a#2 v=76
275536 On ch=1 n=a#4 v=0
275546 Par ch=1 c=64 v=24
275556 On ch=1 n=a#2 v=0
275571 On ch=1 n=a#3 v=0
275631 Par ch=1 c=64 v=0
275786 On ch=1 n=g6 v=76
275806 On ch=1 n=a#2 v=57
275821 On ch=1 n=a#3 v=52
275846 On ch=1 n=a#2 v=0
275856 On ch=1 n=a#3 v=0
275856 Par ch=1 c=64 v=56
275866 On ch=1 n=g6 v=0
275871 Par ch=1 c=64 v=88
275881 On ch=1 n=a#6 v=77
275891 Par ch=1 c=64 v=127
275951 On ch=1 n=a#6 v=0
276121 Par ch=1 c=64 v=88
276136 On ch=1 n=d#6 v=70
276136 Par ch=1 c=64 v=40
276156 Par ch=1 c=64 v=0
276166 On ch=1 n=g4 v=51
276176 On ch=1 n=a#4 v=40
276176 On ch=1 n=d#5 v=43
276241 On ch=1 n=d#6 v=0
276291 On ch=1 n=g4 v=0
276291 Par ch=1 c=64 v=72
276301 On ch=1 n=d#5 v=0
276311 Par ch=1 c=64 v=127
276331 On ch=1 n=a#4 v=0
276466 Par ch=1 c=64 v=104
276486 Par ch=1 c=64 v=88
276501 Par ch=1 c=64 v=40
276521 On ch=1 n=c6 v=64
276521 Par ch=1 c=64 v=0
276601 On ch=1 n=c6 v=0
276681 On ch=1 n=a#5 v=73
276716 On ch=1 n=a#3 v=53
276721 On ch=1 n=a#2 v=47
276731 Par ch=1 c=64 v=56
276746 Par ch=1 c=64 v=72
276751 On ch=1 n=a#2 v=0
276751 On ch=1 n=a#3 v=0
276766 Par ch=1 c=64 v=88
276771 On ch=1 n=a#5 v=0
276781 On ch=1 n=d6 v=82
276781 Par ch=1 c=64 v=104
276836 Par ch=1 c=64 v=56
276851 On ch=1 n=d6 v=0
276851 Par ch=1 c=64 v=24
276866 Par ch=1 c=64 v=0
277031 On ch=1 n=f4 v=53
277036 On ch=1 n=g5 v=70
277036 On ch=1 n=d5 v=53
277046 On ch=1 n=a#4 v=46
277076 Par ch=1 c=64 v=40
277096 Par ch=1 c=64 v=88
277111 Par ch=1 c=64 v=127
277116 On ch=1 n=f4 v=0
277121 On ch=1 n=d5 v=0
277146 On ch=1 n=a#4 v=0
277306 On ch=1 n=g5 v=0
277391 Par ch=1 c=64 v=104
277406 On ch=1 n=f5 v=62
277411 Par ch=1 c=64 v=72
277426 Par ch=1 c=64 v=40
277441 Par ch=1 c=64 v=0
277486 On ch=1 n=f5 v=0
277516 On ch=1 n=e5 v=76
277571 On ch=1 n=g2 v=59
277591 On ch=1 n=g3 v=52
277601 On ch=1 n=g2 v=0
277601 Par ch=1 c=64 v=24
277611 On ch=1 n=e5 v=0
277616 On ch=1 n=a#5 v=75
277641 On ch=1 n=g3 v=0
277671 Par ch=1 c=64 v=0
277696 On ch=1 n=a#5 v=0
277926 On ch=1 n=a5 v=75
277956 On ch=1 n=c#5 v=46
277966 On ch=1 n=e4 v=56
278001 Par ch=1 c=64 v=56
278011 On ch=1 n=e4 v=0
278021 Par ch=1 c=64 v=104
278031 On ch=1 n=c#5 v=0
278036 Par ch=1 c=64 v=127
278226 On ch=1 n=a5 v=0
278351 Par ch=1 c=64 v=104
278366 Par ch=1 c=64 v=88
278371 On ch=1 n=g5 v=58
278386 Par ch=1 c=64 v=56
278401 Par ch=1 c=64 v=0
278456 On ch=1 n=g5 v=0
278456 On ch=1 n=f#5 v=60
278566 On ch=1 n=a2 v=44
278571 On ch=1 n=a3 v=53
278576 On ch=1 n=d#6 v=77
278576 Par ch=1 c=64 v=24
278586 On ch=1 n=f#5 v=0
278596 Par ch=1 c=64 v=56
278606 On ch=1 n=a2 v=0
278636 On ch=1 n=a3 v=0
278656 On ch=1 n=d#6 v=0
278666 Par ch=1 c=64 v=24
278681 Par ch=1 c=64 v=0
278966 On ch=1 n=d6 v=59
279001 On ch=1 n=c5 v=40
279021 On ch=1 n=f#4 v=27
279026 On ch=1 n=d#4 v=38
279241 On ch=1 n=c5 v=0
279256 Par ch=1 c=64 v=24
279276 Par ch=1 c=64 v=56
279281 On ch=1 n=d#4 v=0
279291 On ch=1 n=f#4 v=0
279291 Par ch=1 c=64 v=88
279311 Par ch=1 c=64 v=104
279326 Par ch=1 c=64 v=127
279391 On ch=1 n=d6 v=0
279566 On ch=1 n=c6 v=59
279656 On ch=1 n=c6 v=0
279796 On ch=1 n=a5 v=51
279796 Par ch=1 c=64 v=104
279816 Par ch=1 c=64 v=40
279831 Par ch=1 c=64 v=0
279866 On ch=1 n=f3 v=32
279921 On ch=1 n=a5 v=0
279926 On ch=1 n=d#6 v=69
279936 Par ch=1 c=64 v=88
279951 Par ch=1 c=64 v=127
279981 On ch=1 n=f3 v=0
280031 On ch=1 n=d#6 v=0
280076 Par ch=1 c=64 v=72
280091 Par ch=1 c=64 v=0
280326 On ch=1 n=c6 v=70
280326 On ch=1 n=d#5 v=33
280331 On ch=1 n=f4 v=43
280341 On ch=1 n=a4 v=31
280391 Par ch=1 c=64 v=24
280406 Par ch=1 c=64 v=72
280426 Par ch=1 c=64 v=127
280511 On ch=1 n=a4 v=0
280621 On ch=1 n=f4 v=0
280621 On ch=1 n=c6 v=0
280701 On ch=1 n=b5 v=62
280796 On ch=1 n=c6 v=83
280816 On ch=1 n=b5 v=0
280821 On ch=1 n=a4 v=53
280826 On ch=1 n=f4 v=54
280826 Par ch=1 c=64 v=56
280841 Par ch=1 c=64 v=0
280856 On ch=1 n=a4 v=0
280866 On ch=1 n=f4 v=0
280911 On ch=1 n=c6 v=0
280946 On ch=1 n=d#5 v=0
281016 On ch=1 n=d#5 v=51
281026 On ch=1 n=d6 v=76
281041 On ch=1 n=f4 v=65
281046 On ch=1 n=a4 v=52
281086 On ch=1 n=a4 v=0
281086 On ch=1 n=f4 v=0
281101 On ch=1 n=d#5 v=0
281126 On ch=1 n=d6 v=0
281211 On ch=1 n=d#5 v=57
281216 On ch=1 n=a4 v=60
281231 On ch=1 n=f4 v=41
281236 On ch=1 n=d#6 v=62
281241 Par ch=1 c=64 v=56
281261 On ch=1 n=a4 v=0
281261 Par ch=1 c=64 v=88
281271 On ch=1 n=f4 v=0
281276 Par ch=1 c=64 v=127
281281 On ch=1 n=d#5 v=0
281316 On ch=1 n=d#6 v=0
281426 On ch=1 n=d#6 v=85
281451 Par ch=1 c=64 v=104
281471 Par ch=1 c=64 v=72
281486 Par ch=1 c=64 v=24
281496 On ch=1 n=d#6 v=0
281506 Par ch=1 c=64 v=0
281561 On ch=1 n=f3 v=63
281571 On ch=1 n=g7 v=97
281586 On ch=1 n=f3 v=0
281586 Par ch=1 c=64 v=40
281601 Par ch=1 c=64 v=104
281621 Par ch=1 c=64 v=127
281626 On ch=1 n=g7 v=0
281896 Par ch=1 c=64 v=88
281916 Par ch=1 c=64 v=40
281931 On ch=1 n=c6 v=84
281931 Par ch=1 c=64 v=0
281941 On ch=1 n=d#5 v=55
281956 On ch=1 n=a4 v=43
281961 On ch=1 n=f4 v=42
282036 Par ch=1 c=64 v=88
282056 Par ch=1 c=64 v=127
282106 On ch=1 n=a4 v=0
282126 On ch=1 n=f4 v=0
282191 On ch=1 n=c6 v=0
282251 On ch=1 n=b5 v=66
282316 Par ch=1 c=64 v=104
282331 On ch=1 n=f4 v=60
282331 On ch=1 n=a4 v=51
282331 On ch=1 n=c6 v=86
282331 Par ch=1 c=64 v=56
282351 Par ch=1 c=64 v=24
282366 On ch=1 n=b5 v=0
282366 Par ch=1 c=64 v=0
282381 On ch=1 n=f4 v=0
282386 On ch=1 n=a4 v=0
282436 On ch=1 n=d#5 v=0
282466 On ch=1 n=c6 v=0
282556 On ch=1 n=d6 v=87
282561 On ch=1 n=d#5 v=53
282566 On ch=1 n=f4 v=74
282566 On ch=1 n=a4 v=63
282606 On ch=1 n=f4 v=0
282611 On ch=1 n=a4 v=0
282616 On ch=1 n=d#5 v=0
282651 On ch=1 n=d6 v=0
282761 On ch=1 n=d#6 v=84
282766 On ch=1 n=a4 v=62
282766 On ch=1 n=f4 v=64
282796 On ch=1 n=f4 v=0
282816 On ch=1 n=a4 v=0
282851 On ch=1 n=d#6 v=0
282921 On ch=1 n=d#6 v=73
283001 On ch=1 n=d#6 v=0
283041 On ch=1 n=a#3 v=55
283051 On ch=1 n=a#6 v=82
283051 Par ch=1 c=64 v=24
283066 Par ch=1 c=64 v=72
283086 Par ch=1 c=64 v=104
283101 On ch=1 n=a#6 v=0
283101 Par ch=1 c=64 v=127
283126 On ch=1 n=a#3 v=0
283361 Par ch=1 c=64 v=72
283371 On ch=1 n=a#5 v=71
283376 On ch=1 n=d5 v=54
283381 Par ch=1 c=64 v=0
283401 On ch=1 n=a#4 v=37
283411 On ch=1 n=f4 v=55
283486 Par ch=1 c=64 v=24
283501 Par ch=1 c=64 v=88
283521 Par ch=1 c=64 v=127
283551 On ch=1 n=f4 v=0
283551 On ch=1 n=a#5 v=0
283581 On ch=1 n=a#4 v=0
283666 On ch=1 n=a5 v=80
283726 On ch=1 n=a#4 v=50
283726 Par ch=1 c=64 v=104
283741 On ch=1 n=a#5 v=77
283741 On ch=1 n=f4 v=59
283746 Par ch=1 c=64 v=72
283761 Par ch=1 c=64 v=40
283771 On ch=1 n=a5 v=0
283776 On ch=1 n=f4 v=0
283781 Par ch=1 c=64 v=0
283796 On ch=1 n=a#4 v=0
283836 On ch=1 n=d5 v=0
283851 On ch=1 n=a#5 v=0
283941 On ch=1 n=c6 v=76
283966 On ch=1 n=f4 v=70
283966 On ch=1 n=a#4 v=51
283971 On ch=1 n=d5 v=67
284006 On ch=1 n=d5 v=0
284021 On ch=1 n=a#4 v=0
284026 On ch=1 n=f4 v=0
284096 On ch=1 n=c6 v=0
284151 On ch=1 n=d6 v=89
284156 On ch=1 n=a#4 v=55
284161 On ch=1 n=f4 v=59
284196 On ch=1 n=f4 v=0
284226 On ch=1 n=d6 v=0
284296 On ch=1 n=d6 v=97
284351 On ch=1 n=d6 v=0
284381 On ch=1 n=a#3 v=67
284406 On ch=1 n=f7 v=99
284406 Par ch=1 c=64 v=40
284426 On ch=1 n=a#4 v=0
284426 Par ch=1 c=64 v=88
284441 On ch=1 n=f7 v=0
284441 On ch=1 n=a#3 v=0
284441 Par ch=1 c=64 v=127
284601 Par ch=1 c=64 v=72
284616 Par ch=1 c=64 v=0
284641 On ch=1 n=f5 v=103
284666 On ch=1 n=f4 v=84
284676 On ch=1 n=f3 v=74
284721 Par ch=1 c=64 v=72
284736 On ch=1 n=f4 v=0
284741 Par ch=1 c=64 v=127
284746 On ch=1 n=f3 v=0
284746 On ch=1 n=f5 v=0
284931 On ch=1 n=d#4 v=85
284936 On ch=1 n=d#3 v=77
284941 On ch=1 n=d#5 v=82
284981 On ch=1 n=d#4 v=0
284981 Par ch=1 c=64 v=104
284986 On ch=1 n=d#3 v=0
285001 Par ch=1 c=64 v=56
285006 On ch=1 n=d#5 v=0
285016 Par ch=1 c=64 v=0
285031 On ch=1 n=d5 v=99
285046 On ch=1 n=d4 v=96
285056 On ch=1 n=d3 v=82
285091 On ch=1 n=d3 v=0
285096 On ch=1 n=d4 v=0
285141 On ch=1 n=d5 v=0
285271 On ch=1 n=c4 v=89
285276 On ch=1 n=c5 v=92
285286 On ch=1 n=c3 v=80
285316 On ch=1 n=c3 v=0
285326 On ch=1 n=c4 v=0
285401 On ch=1 n=c5 v=0
285516 On ch=1 n=a#3 v=83
285516 On ch=1 n=a#4 v=85
285526 On ch=1 n=a#2 v=73
285526 Par ch=1 c=64 v=24
285541 Par ch=1 c=64 v=56
285556 On ch=1 n=a#2 v=0
285561 Par ch=1 c=64 v=72
285566 On ch=1 n=a#3 v=0
285576 On ch=1 n=a#4 v=0
285611 Par ch=1 c=64 v=40
285626 Par ch=1 c=64 v=24
285646 Par ch=1 c=64 v=0
285816 On ch=1 n=a6 v=74
285881 On ch=1 n=f3 v=56
285896 On ch=1 n=f4 v=56
285901 On ch=1 n=a6 v=0
285901 On ch=1 n=d#7 v=87
285906 Par ch=1 c=64 v=56
285911 On ch=1 n=f3 v=0
285921 Par ch=1 c=64 v=104
285941 On ch=1 n=f4 v=0
285941 Par ch=1 c=64 v=127
285986 On ch=1 n=d#7 v=0
286116 Par ch=1 c=64 v=88
286131 Par ch=1 c=64 v=40
286151 Par ch=1 c=64 v=0
286201 On ch=1 n=c7 v=74
286201 On ch=1 n=d#6 v=60
286221 On ch=1 n=a5 v=57
286221 On ch=1 n=f5 v=60
286236 Par ch=1 c=64 v=24
286256 Par ch=1 c=64 v=72
286271 Par ch=1 c=64 v=127
286351 On ch=1 n=f5 v=0
286366 On ch=1 n=a5 v=0
286451 On ch=1 n=c7 v=0
286501 On ch=1 n=b6 v=74
286551 Par ch=1 c=64 v=104
286571 Par ch=1 c=64 v=56
286586 Par ch=1 c=64 v=24
286591 On ch=1 n=c7 v=87
286596 On ch=1 n=f5 v=44
286596 On ch=1 n=a5 v=43
286606 Par ch=1 c=64 v=0
286636 On ch=1 n=b6 v=0
286641 On ch=1 n=a5 v=0
286646 On ch=1 n=f5 v=0
286701 On ch=1 n=d#6 v=0
286721 On ch=1 n=c7 v=0
286801 On ch=1 n=d#6 v=60
286801 On ch=1 n=d7 v=86
286816 On ch=1 n=f5 v=64
286831 On ch=1 n=a5 v=46
286866 On ch=1 n=a5 v=0
286871 On ch=1 n=f5 v=0
286876 On ch=1 n=d#6 v=0
286921 On ch=1 n=d7 v=0
286986 Par ch=1 c=64 v=24
287001 On ch=1 n=a5 v=60
287006 On ch=1 n=d#7 v=83
287006 Par ch=1 c=64 v=56
287021 Par ch=1 c=64 v=88
287031 On ch=1 n=a5 v=0
287041 Par ch=1 c=64 v=127
287076 On ch=1 n=d#7 v=0
287166 On ch=1 n=d#7 v=82
287251 Par ch=1 c=64 v=88
287256 On ch=1 n=d#7 v=0
287266 Par ch=1 c=64 v=24
287286 Par ch=1 c=64 v=0
287291 On ch=1 n=g8 v=95
287306 On ch=1 n=f4 v=69
287306 On ch=1 n=c5 v=65
287341 On ch=1 n=f4 v=0
287351 On ch=1 n=g8 v=0
287351 Par ch=1 c=64 v=40
287366 On ch=1 n=c5 v=0
287371 Par ch=1 c=64 v=104
287386 Par ch=1 c=64 v=127
287596 Par ch=1 c=64 v=88
287611 On ch=1 n=c7 v=83
287616 Par ch=1 c=64 v=24
287631 On ch=1 n=d#6 v=50
287631 Par ch=1 c=64 v=0
287636 On ch=1 n=f5 v=56
287641 On ch=1 n=a5 v=48
287721 Par ch=1 c=64 v=56
287736 Par ch=1 c=64 v=127
287796 On ch=1 n=f5 v=0
287801 On ch=1 n=a5 v=0
287881 On ch=1 n=c7 v=0
287901 On ch=1 n=b6 v=78
287961 Par ch=1 c=64 v=104
287981 Par ch=1 c=64 v=72
287986 On ch=1 n=a5 v=53
287986 On ch=1 n=f5 v=54
287991 On ch=1 n=c7 v=82
288001 Par ch=1 c=64 v=24
288016 Par ch=1 c=64 v=0
288031 On ch=1 n=b6 v=0
288036 On ch=1 n=f5 v=0
288036 On ch=1 n=a5 v=0
288131 On ch=1 n=c7 v=0
288201 On ch=1 n=d7 v=90
288216 On ch=1 n=f5 v=72
288231 On ch=1 n=a5 v=57
288266 On ch=1 n=a5 v=0
288291 On ch=1 n=f5 v=0
288316 On ch=1 n=d7 v=0
288396 On ch=1 n=d#6 v=0
288406 On ch=1 n=d#7 v=85
288416 On ch=1 n=a5 v=53
288416 Par ch=1 c=64 v=24
288421 On ch=1 n=f5 v=54
288436 Par ch=1 c=64 v=40
288451 Par ch=1 c=64 v=56
288456 On ch=1 n=f5 v=0
288471 Par ch=1 c=64 v=72
288476 On ch=1 n=d#7 v=0
288506 On ch=1 n=a5 v=0
288541 On ch=1 n=d#7 v=77
288556 Par ch=1 c=64 v=24
288576 Par ch=1 c=64 v=0
288611 On ch=1 n=d#7 v=0
288646 On ch=1 n=a#7 v=90
288676 On ch=1 n=a#4 v=55
288681 Par ch=1 c=64 v=24
288696 Par ch=1 c=64 v=88
288711 Par ch=1 c=64 v=127
288716 On ch=1 n=a#7 v=0
288741 On ch=1 n=a#4 v=0
288906 Par ch=1 c=64 v=104
288921 Par ch=1 c=64 v=88
288941 Par ch=1 c=64 v=40
288956 Par ch=1 c=64 v=0
288961 On ch=1 n=a#6 v=73
288981 On ch=1 n=d6 v=53
288991 On ch=1 n=a#5 v=45
288996 On ch=1 n=f5 v=59
289061 Par ch=1 c=64 v=24
289081 Par ch=1 c=64 v=88
289096 Par ch=1 c=64 v=127
289171 On ch=1 n=f5 v=0
289171 On ch=1 n=a#5 v=0
289176 On ch=1 n=a#6 v=0
289261 On ch=1 n=a6 v=75
289326 Par ch=1 c=64 v=104
289336 On ch=1 n=a#5 v=55
289341 On ch=1 n=f5 v=64
289341 On ch=1 n=a#6 v=77
289341 Par ch=1 c=64 v=56
289356 Par ch=1 c=64 v=24
289371 On ch=1 n=d6 v=0
289376 Par ch=1 c=64 v=0
289381 On ch=1 n=a6 v=0
289406 On ch=1 n=a#5 v=0
289416 On ch=1 n=f5 v=0
289471 On ch=1 n=a#6 v=0
289546 On ch=1 n=c7 v=72
289571 On ch=1 n=f5 v=68
289571 On ch=1 n=a#5 v=56
289596 On ch=1 n=d6 v=38
289631 On ch=1 n=d6 v=0
289631 On ch=1 n=a#5 v=0
289651 On ch=1 n=f5 v=0
289696 On ch=1 n=c7 v=0
289751 On ch=1 n=d7 v=89
289756 On ch=1 n=a#5 v=56
289761 On ch=1 n=f5 v=59
289796 Par ch=1 c=64 v=24
289811 Par ch=1 c=64 v=40
289831 On ch=1 n=d7 v=0
289906 On ch=1 n=d7 v=97
289936 Par ch=1 c=64 v=0
289961 On ch=1 n=d7 v=0
290016 On ch=1 n=a#4 v=63
290016 On ch=1 n=f8 v=100
290016 On ch=1 n=f5 v=65
290021 Par ch=1 c=64 v=24
290036 On ch=1 n=a#5 v=0
290036 Par ch=1 c=64 v=72
290041 On ch=1 n=f5 v=0
290046 On ch=1 n=f8 v=0
290056 Par ch=1 c=64 v=127
290076 On ch=1 n=f5 v=0
290076 On ch=1 n=a#4 v=0
290246 Par ch=1 c=64 v=40
290266 Par ch=1 c=64 v=0
290271 On ch=1 n=f6 v=94
290301 On ch=1 n=f5 v=87
290311 On ch=1 n=f4 v=83
290351 Par ch=1 c=64 v=40
290371 Par ch=1 c=64 v=104
290386 Par ch=1 c=64 v=127
290391 On ch=1 n=f5 v=0
290396 On ch=1 n=f4 v=0
290486 On ch=1 n=f6 v=0
290591 On ch=1 n=d#5 v=86
290596 On ch=1 n=d#4 v=87
290596 On ch=1 n=d#6 v=91
290631 Par ch=1 c=64 v=88
290636 On ch=1 n=d#5 v=0
290646 On ch=1 n=d#4 v=0
290651 Par ch=1 c=64 v=40
290661 On ch=1 n=d#6 v=0
290666 Par ch=1 c=64 v=0
290701 On ch=1 n=d6 v=105
290706 On ch=1 n=d5 v=92
290716 On ch=1 n=d4 v=83
290761 On ch=1 n=d5 v=0
290786 On ch=1 n=d4 v=0
290826 On ch=1 n=d6 v=0
290981 Par ch=1 c=64 v=24
290986 On ch=1 n=c5 v=93
290986 On ch=1 n=c6 v=99
290996 Par ch=1 c=64 v=56
291006 On ch=1 n=c4 v=78
291016 Par ch=1 c=64 v=104
291031 On ch=1 n=c4 v=0
291031 Par ch=1 c=64 v=127
291046 On ch=1 n=c5 v=0
291116 Par ch=1 c=64 v=104
291131 On ch=1 n=c6 v=0
291136 Par ch=1 c=64 v=72
291151 Par ch=1 c=64 v=24
291171 Par ch=1 c=64 v=0
291291 On ch=1 n=a#5 v=91
291301 On ch=1 n=a#4 v=85
291306 On ch=1 n=a#3 v=85
291356 On ch=1 n=a#3 v=0
291356 On ch=1 n=a#4 v=0
291361 Par ch=1 c=64 v=72
291381 Par ch=1 c=64 v=127
291411 On ch=1 n=a#5 v=0
291766 Par ch=1 c=64 v=104
291801 Par ch=1 c=64 v=88
291836 Par ch=1 c=64 v=72
291851 Par ch=1 c=64 v=56
291866 Par ch=1 c=64 v=40
291886 Par ch=1 c=64 v=24
291906 Par ch=1 c=64 v=0
292321 Par ch=1 c=64 v=104
292326 On ch=1 n=f#3 v=69
292331 On ch=1 n=f#4 v=85
292336 Par ch=1 c=64 v=127
292386 On ch=1 n=f#4 v=0
292386 On ch=1 n=f#3 v=0
292671 On ch=1 n=d#5 v=67
292676 On ch=1 n=c5 v=63
292701 On ch=1 n=a4 v=45
292741 On ch=1 n=a4 v=0
292781 On ch=1 n=c5 v=0
292821 On ch=1 n=a6 v=87
292821 On ch=1 n=a5 v=82
292826 On ch=1 n=d#5 v=0
292871 On ch=1 n=a5 v=0
292906 On ch=1 n=a6 v=0
293046 On ch=1 n=d#7 v=91
293046 On ch=1 n=d#5 v=56
293051 On ch=1 n=d#6 v=93
293056 On ch=1 n=a4 v=58
293061 On ch=1 n=c5 v=53
293091 On ch=1 n=c5 v=0
293091 On ch=1 n=d#6 v=0
293101 On ch=1 n=d#7 v=0
293106 On ch=1 n=d#5 v=0
293111 On ch=1 n=a4 v=0
293366 On ch=1 n=b6 v=89
293366 On ch=1 n=b5 v=77
293396 On ch=1 n=b5 v=0
293396 On ch=1 n=b6 v=0
293481 On ch=1 n=c7 v=96
293486 On ch=1 n=c6 v=91
293486 Par ch=1 c=64 v=88
293501 On ch=1 n=f3 v=69
293506 Par ch=1 c=64 v=0
293516 On ch=1 n=f4 v=57
293561 On ch=1 n=f3 v=0
293586 On ch=1 n=f4 v=0
293601 Par ch=1 c=64 v=127
293751 On ch=1 n=c6 v=0
293826 On ch=1 n=d#5 v=60
293831 On ch=1 n=c5 v=63
293841 On ch=1 n=a4 v=57
293901 On ch=1 n=c7 v=0
293916 On ch=1 n=c5 v=0
293941 On ch=1 n=d#5 v=0
293946 On ch=1 n=a4 v=0
293976 On ch=1 n=d6 v=85
293981 On ch=1 n=d7 v=94
294036 On ch=1 n=d6 v=0
294051 On ch=1 n=d7 v=0
294126 On ch=1 n=d#5 v=51
294136 On ch=1 n=d#7 v=86
294136 On ch=1 n=d#6 v=87
294146 On ch=1 n=c5 v=49
294151 On ch=1 n=a4 v=43
294176 On ch=1 n=c5 v=0
294181 On ch=1 n=d#5 v=0
294186 On ch=1 n=a4 v=0
294201 On ch=1 n=d#6 v=0
294206 On ch=1 n=d#7 v=0
294281 On ch=1 n=e7 v=100
294281 On ch=1 n=e6 v=93
294336 On ch=1 n=e6 v=0
294346 On ch=1 n=e7 v=0
294446 On ch=1 n=f7 v=102
294446 On ch=1 n=f6 v=99
294446 Par ch=1 c=64 v=56
294461 Par ch=1 c=64 v=0
294466 On ch=1 n=d#3 v=70
294466 On ch=1 n=d#4 v=72
294526 On ch=1 n=d#4 v=0
294526 Par ch=1 c=64 v=24
294536 On ch=1 n=d#3 v=0
294541 Par ch=1 c=64 v=127
294731 On ch=1 n=f6 v=0
294731 On ch=1 n=f5 v=70
294731 On ch=1 n=a4 v=63
294731 On ch=1 n=c5 v=58
294771 On ch=1 n=f7 v=0
294821 On ch=1 n=c5 v=0
294826 On ch=1 n=f5 v=0
294841 On ch=1 n=a4 v=0
294876 On ch=1 n=g7 v=99
294881 On ch=1 n=g6 v=86
294936 On ch=1 n=g6 v=0
294946 On ch=1 n=g7 v=0
295016 On ch=1 n=c5 v=68
295016 On ch=1 n=f5 v=62
295031 On ch=1 n=g#6 v=87
295036 On ch=1 n=g#7 v=90
295036 On ch=1 n=a4 v=52
295056 On ch=1 n=f5 v=0
295071 On ch=1 n=c5 v=0
295081 On ch=1 n=a4 v=0
295096 On ch=1 n=g#6 v=0
295101 On ch=1 n=g#7 v=0
295186 On ch=1 n=a7 v=109
295186 On ch=1 n=a6 v=92
295236 On ch=1 n=a6 v=0
295261 On ch=1 n=a7 v=0
295381 On ch=1 n=c8 v=100
295391 On ch=1 n=c7 v=86
295431 On ch=1 n=d3 v=66
295436 Par ch=1 c=64 v=40
295446 On ch=1 n=d4 v=71
295451 Par ch=1 c=64 v=0
295486 On ch=1 n=d3 v=0
295521 On ch=1 n=d4 v=0
295546 Par ch=1 c=64 v=127
295746 On ch=1 n=c8 v=0
295766 On ch=1 n=a#4 v=42
295776 On ch=1 n=f5 v=53
295781 On ch=1 n=c7 v=0
295781 On ch=1 n=f4 v=52
295851 On ch=1 n=f4 v=0
295856 On ch=1 n=f5 v=0
295861 On ch=1 n=a#4 v=0
295961 On ch=1 n=a#7 v=78
295966 On ch=1 n=a#6 v=67
296046 On ch=1 n=a#6 v=0
296051 On ch=1 n=a#7 v=0
296131 On ch=1 n=a7 v=85
296131 On ch=1 n=f5 v=44
296131 On ch=1 n=a#4 v=40
296141 On ch=1 n=a6 v=70
296146 On ch=1 n=f4 v=45
296166 On ch=1 n=f5 v=0
296201 On ch=1 n=a#4 v=0
296206 On ch=1 n=a6 v=0
296206 On ch=1 n=a7 v=0
296216 On ch=1 n=f4 v=0
296306 On ch=1 n=g7 v=85
296311 On ch=1 n=g6 v=73
296361 On ch=1 n=g7 v=0
296371 On ch=1 n=g6 v=0
296506 Par ch=1 c=64 v=72
296521 Par ch=1 c=64 v=0
296536 On ch=1 n=c3 v=65
296541 On ch=1 n=c4 v=75
296571 On ch=1 n=c3 v=0
296601 Par ch=1 c=64 v=40
296616 On ch=1 n=c4 v=0
296616 Par ch=1 c=64 v=127
296856 On ch=1 n=d#5 v=62
296871 On ch=1 n=f4 v=45
296881 On ch=1 n=a4 v=45
296916 On ch=1 n=f4 v=0
296921 On ch=1 n=a4 v=0
296981 On ch=1 n=a5 v=71
296986 On ch=1 n=a6 v=82
296991 On ch=1 n=d#5 v=0
297026 On ch=1 n=a5 v=0
297056 On ch=1 n=a6 v=0
297156 On ch=1 n=d#7 v=85
297166 On ch=1 n=d#5 v=56
297171 On ch=1 n=d#6 v=74
297181 On ch=1 n=a4 v=53
297186 On ch=1 n=f4 v=44
297206 On ch=1 n=d#6 v=0
297206 On ch=1 n=d#5 v=0
297211 On ch=1 n=a4 v=0
297211 On ch=1 n=d#7 v=0
297231 On ch=1 n=f4 v=0
297451 On ch=1 n=b6 v=92
297451 On ch=1 n=b5 v=80
297486 On ch=1 n=b5 v=0
297491 On ch=1 n=b6 v=0
297526 Par ch=1 c=64 v=104
297546 Par ch=1 c=64 v=0
297556 On ch=1 n=c7 v=94
297561 On ch=1 n=c6 v=90
297566 On ch=1 n=a#2 v=70
297576 On ch=1 n=a#3 v=69
297621 On ch=1 n=a#3 v=0
297621 On ch=1 n=a#2 v=0
297641 Par ch=1 c=64 v=104
297656 Par ch=1 c=64 v=127
297771 On ch=1 n=c6 v=0
297896 On ch=1 n=d#5 v=64
297911 On ch=1 n=d#4 v=51
297926 On ch=1 n=g4 v=48
297956 On ch=1 n=g4 v=0
297986 On ch=1 n=d#5 v=0
297986 On ch=1 n=c7 v=0
298001 On ch=1 n=d#4 v=0
298046 On ch=1 n=d7 v=87
298046 On ch=1 n=d6 v=81
298106 On ch=1 n=d6 v=0
298111 On ch=1 n=d7 v=0
298186 On ch=1 n=d#5 v=60
298191 On ch=1 n=d#6 v=79
298191 On ch=1 n=d#7 v=85
298191 On ch=1 n=d#4 v=53
298196 On ch=1 n=g4 v=55
298221 On ch=1 n=g4 v=0
298221 On ch=1 n=d#5 v=0
298256 On ch=1 n=d#4 v=0
298256 On ch=1 n=d#6 v=0
298266 On ch=1 n=d#7 v=0
298341 On ch=1 n=e7 v=100
298346 On ch=1 n=e6 v=90
298401 On ch=1 n=e6 v=0
298411 On ch=1 n=e7 v=0
298526 On ch=1 n=f7 v=97
298531 On ch=1 n=f6 v=92
298536 Par ch=1 c=64 v=72
298541 On ch=1 n=a2 v=66
298551 Par ch=1 c=64 v=0
298566 On ch=1 n=a3 v=66
298591 On ch=1 n=a2 v=0
298631 On ch=1 n=a3 v=0
298646 Par ch=1 c=64 v=88
298661 Par ch=1 c=64 v=127
298876 On ch=1 n=d#5 v=65
298881 On ch=1 n=f6 v=0
298906 On ch=1 n=d#4 v=42
298906 On ch=1 n=f4 v=38
298916 On ch=1 n=f7 v=0
298961 On ch=1 n=d#4 v=0
298996 On ch=1 n=d#5 v=0
299006 On ch=1 n=f4 v=0
299026 On ch=1 n=f#6 v=72
299031 On ch=1 n=f#7 v=78
299101 On ch=1 n=f#6 v=0
299131 On ch=1 n=f#7 v=0
299196 On ch=1 n=d#5 v=45
299201 On ch=1 n=g7 v=86
299206 On ch=1 n=d#4 v=40
299206 On ch=1 n=g6 v=74
299216 On ch=1 n=f4 v=41
299256 On ch=1 n=f4 v=0
299256 On ch=1 n=g6 v=0
299256 On ch=1 n=g7 v=0
299266 On ch=1 n=d#5 v=0
299301 On ch=1 n=d#4 v=0
299371 On ch=1 n=d#7 v=80
299376 On ch=1 n=d#6 v=79
299436 On ch=1 n=d#6 v=0
299446 On ch=1 n=d#7 v=0
299576 Par ch=1 c=64 v=88
299581 On ch=1 n=c#6 v=74
299581 On ch=1 n=c#7 v=73
299591 Par ch=1 c=64 v=0
299621 On ch=1 n=a#2 v=48
299631 On ch=1 n=a#3 v=43
299661 On ch=1 n=a#2 v=0
299686 On ch=1 n=a#3 v=0
299686 Par ch=1 c=64 v=56
299701 Par ch=1 c=64 v=127
299836 On ch=1 n=c#7 v=0
299871 On ch=1 n=c#6 v=0
299976 On ch=1 n=d7 v=67
299991 On ch=1 n=d6 v=56
300006 On ch=1 n=d5 v=54
300006 On ch=1 n=f4 v=43
300021 On ch=1 n=d4 v=40
300021 Par ch=1 c=64 v=72
300036 Par ch=1 c=64 v=0
300066 On ch=1 n=d6 v=0
300066 Par ch=1 c=64 v=24
300076 On ch=1 n=d4 v=0
300086 On ch=1 n=d7 v=0
300086 Par ch=1 c=64 v=72
300101 Par ch=1 c=64 v=127
300111 On ch=1 n=d5 v=0
300131 On ch=1 n=f4 v=0
300386 On ch=1 n=d5 v=53
300391 On ch=1 n=f4 v=44
300406 On ch=1 n=d4 v=41
300461 On ch=1 n=d5 v=0
300496 On ch=1 n=d4 v=0
300496 On ch=1 n=f4 v=0
300816 On ch=1 n=f#3 v=81
300816 On ch=1 n=f#4 v=89
300821 Par ch=1 c=64 v=104
300836 Par ch=1 c=64 v=24
300851 Par ch=1 c=64 v=0
300911 On ch=1 n=f#3 v=0
300916 Par ch=1 c=64 v=40
300931 Par ch=1 c=64 v=127
300941 On ch=1 n=f#4 v=0
301171 On ch=1 n=d#5 v=71
301176 On ch=1 n=c5 v=63
301211 On ch=1 n=c5 v=0
301211 On ch=1 n=a4 v=30
301256 On ch=1 n=a4 v=0
301291 On ch=1 n=d#5 v=0
301326 On ch=1 n=a6 v=87
301331 On ch=1 n=a5 v=81
301381 On ch=1 n=a5 v=0
301401 On ch=1 n=a6 v=0
301511 On ch=1 n=d#7 v=92
301516 On ch=1 n=d#6 v=88
301516 On ch=1 n=d#5 v=58
301531 On ch=1 n=a4 v=55
301541 On ch=1 n=c5 v=49
301561 On ch=1 n=d#6 v=0
301566 On ch=1 n=c5 v=0
301566 On ch=1 n=a4 v=0
301566 On ch=1 n=d#7 v=0
301581 On ch=1 n=d#5 v=0
301846 On ch=1 n=b6 v=86
301846 On ch=1 n=b5 v=75
301871 On ch=1 n=b6 v=0
301876 On ch=1 n=b5 v=0
301936 Par ch=1 c=64 v=104
301946 On ch=1 n=c7 v=90
301956 On ch=1 n=c6 v=80
301956 Par ch=1 c=64 v=0
301961 On ch=1 n=f3 v=70
301971 On ch=1 n=f4 v=63
302006 On ch=1 n=f3 v=0
302031 Par ch=1 c=64 v=56
302041 On ch=1 n=f4 v=0
302051 Par ch=1 c=64 v=127
302191 On ch=1 n=c6 v=0
302256 On ch=1 n=d#5 v=57
302271 On ch=1 n=c5 v=61
302291 On ch=1 n=a4 v=44
302311 On ch=1 n=c5 v=0
302326 On ch=1 n=c7 v=0
302336 On ch=1 n=a4 v=0
302371 On ch=1 n=d#5 v=0
302406 On ch=1 n=d7 v=92
302406 On ch=1 n=d6 v=79
302461 On ch=1 n=d7 v=0
302466 On ch=1 n=d6 v=0
302541 On ch=1 n=d#5 v=44
302561 On ch=1 n=d#6 v=85
302561 On ch=1 n=d#7 v=86
302561 On ch=1 n=a4 v=47
302586 On ch=1 n=d#5 v=0
302596 On ch=1 n=a4 v=0
302616 On ch=1 n=d#6 v=0
302626 On ch=1 n=d#7 v=0
302691 On ch=1 n=e7 v=100
302701 On ch=1 n=e6 v=94
302751 On ch=1 n=e6 v=0
302761 On ch=1 n=e7 v=0
302846 On ch=1 n=f7 v=102
302846 Par ch=1 c=64 v=104
302851 On ch=1 n=f6 v=94
302866 On ch=1 n=d#3 v=62
302866 On ch=1 n=d#4 v=82
302866 Par ch=1 c=64 v=0
302906 On ch=1 n=d#3 v=0
302921 On ch=1 n=d#4 v=0
302926 Par ch=1 c=64 v=104
302941 Par ch=1 c=64 v=127
303026 On ch=1 n=a#4 v=29
303061 On ch=1 n=a#4 v=0
303126 On ch=1 n=f6 v=0
303136 On ch=1 n=f5 v=72
303141 On ch=1 n=a4 v=62
303146 On ch=1 n=c5 v=56
303161 On ch=1 n=f7 v=0
303201 On ch=1 n=c5 v=0
303211 On ch=1 n=a4 v=0
303211 On ch=1 n=f5 v=0
303256 On ch=1 n=g7 v=94
303261 On ch=1 n=g6 v=83
303316 On ch=1 n=g6 v=0
303326 On ch=1 n=g7 v=0
303391 On ch=1 n=f5 v=63
303396 On ch=1 n=c5 v=67
303406 On ch=1 n=g#6 v=86
303411 On ch=1 n=g#7 v=91
303411 On ch=1 n=a4 v=46
303426 On ch=1 n=f5 v=0
303446 On ch=1 n=c5 v=0
303461 On ch=1 n=a4 v=0
303481 On ch=1 n=g#6 v=0
303486 On ch=1 n=g#7 v=0
303561 On ch=1 n=a7 v=103
303561 On ch=1 n=a6 v=92
303626 On ch=1 n=a6 v=0
303646 On ch=1 n=a7 v=0
303786 On ch=1 n=c7 v=82
303786 On ch=1 n=d3 v=56
303786 On ch=1 n=d4 v=51
303786 On ch=1 n=c8 v=93
303836 Par ch=1 c=64 v=72
303851 On ch=1 n=d3 v=0
303856 Par ch=1 c=64 v=0
303891 On ch=1 n=d4 v=0
303936 Par ch=1 c=64 v=72
303951 Par ch=1 c=64 v=127
304076 On ch=1 n=c8 v=0
304116 On ch=1 n=c7 v=0
304166 On ch=1 n=a#4 v=47
304176 On ch=1 n=f5 v=54
304241 On ch=1 n=f5 v=0
304256 On ch=1 n=a#4 v=0
304336 On ch=1 n=a#7 v=69
304341 On ch=1 n=a#6 v=57
304436 On ch=1 n=a#6 v=0
304436 On ch=1 n=a#7 v=0
304516 On ch=1 n=a#4 v=40
304521 On ch=1 n=f5 v=37
304526 On ch=1 n=a7 v=82
304536 On ch=1 n=a6 v=61
304571 On ch=1 n=f5 v=0
304586 On ch=1 n=a6 v=0
304586 On ch=1 n=a7 v=0
304611 On ch=1 n=a#4 v=0
304711 On ch=1 n=g7 v=77
304711 On ch=1 n=g6 v=73
304756 On ch=1 n=g7 v=0
304766 On ch=1 n=g6 v=0
304941 Par ch=1 c=64 v=24
304951 On ch=1 n=c3 v=60
304956 On ch=1 n=c4 v=68
304956 Par ch=1 c=64 v=0
304981 On ch=1 n=c3 v=0
305006 Par ch=1 c=64 v=24
305021 Par ch=1 c=64 v=104
305036 On ch=1 n=c4 v=0
305036 Par ch=1 c=64 v=127
305276 On ch=1 n=d#5 v=61
305281 On ch=1 n=f4 v=55
305316 On ch=1 n=a4 v=30
305351 On ch=1 n=f4 v=0
305366 On ch=1 n=a4 v=0
305396 On ch=1 n=d#5 v=0
305421 On ch=1 n=a5 v=75
305426 On ch=1 n=a6 v=84
305481 On ch=1 n=a5 v=0
305501 On ch=1 n=a6 v=0
305586 On ch=1 n=d#5 v=50
305606 On ch=1 n=a4 v=54
305606 On ch=1 n=d#7 v=85
305606 On ch=1 n=d#6 v=77
305626 On ch=1 n=f4 v=28
305636 On ch=1 n=a4 v=0
305636 On ch=1 n=d#5 v=0
305651 On ch=1 n=d#7 v=0
305656 On ch=1 n=d#6 v=0
305671 On ch=1 n=f4 v=0
305886 On ch=1 n=b5 v=80
305886 On ch=1 n=b6 v=85
305916 On ch=1 n=b6 v=0
305926 On ch=1 n=b5 v=0
305976 Par ch=1 c=64 v=56
305986 On ch=1 n=a#2 v=60
305986 On ch=1 n=c6 v=84
305991 On ch=1 n=c7 v=87
305996 On ch=1 n=a#3 v=60
305996 Par ch=1 c=64 v=0
306036 On ch=1 n=a#2 v=0
306041 On ch=1 n=a#3 v=0
306061 Par ch=1 c=64 v=56
306076 Par ch=1 c=64 v=127
306216 On ch=1 n=c6 v=0
306316 On ch=1 n=d#5 v=69
306326 On ch=1 n=g4 v=60
306331 On ch=1 n=d#4 v=51
306356 On ch=1 n=g4 v=0
306366 On ch=1 n=d#4 v=0
306386 On ch=1 n=c7 v=0
306401 On ch=1 n=d#5 v=0
306461 On ch=1 n=d7 v=88
306461 On ch=1 n=d6 v=82
306521 On ch=1 n=d6 v=0
306531 On ch=1 n=d7 v=0
306591 On ch=1 n=d#5 v=61
306601 On ch=1 n=d#4 v=53
306606 On ch=1 n=g4 v=57
306611 On ch=1 n=d#7 v=83
306611 On ch=1 n=d#6 v=80
306631 On ch=1 n=g4 v=0
306636 On ch=1 n=d#5 v=0
306666 On ch=1 n=d#4 v=0
306671 On ch=1 n=d#6 v=0
306681 On ch=1 n=d#7 v=0
306751 On ch=1 n=e7 v=97
306756 On ch=1 n=e6 v=90
306806 On ch=1 n=e6 v=0
306826 On ch=1 n=e7 v=0
306931 On ch=1 n=f7 v=94
306936 On ch=1 n=f6 v=89
306936 Par ch=1 c=64 v=104
306951 On ch=1 n=a2 v=59
306951 Par ch=1 c=64 v=0
306971 On ch=1 n=a3 v=62
306981 On ch=1 n=a2 v=0
307026 On ch=1 n=a3 v=0
307051 Par ch=1 c=64 v=104
307066 Par ch=1 c=64 v=127
307251 On ch=1 n=f6 v=0
307271 On ch=1 n=d#5 v=67
307301 On ch=1 n=d#4 v=29
307316 On ch=1 n=f7 v=0
307316 On ch=1 n=f4 v=30
307346 On ch=1 n=d#4 v=0
307371 On ch=1 n=f4 v=0
307396 On ch=1 n=d#5 v=0
307416 On ch=1 n=f#6 v=75
307421 On ch=1 n=f#7 v=79
307491 On ch=1 n=f#6 v=0
307516 On ch=1 n=f#7 v=0
307581 On ch=1 n=d#5 v=51
307586 On ch=1 n=g7 v=87
307586 On ch=1 n=d#4 v=52
307591 On ch=1 n=g6 v=78
307601 On ch=1 n=f4 v=52
307631 On ch=1 n=f4 v=0
307641 On ch=1 n=g6 v=0
307641 On ch=1 n=g7 v=0
307651 On ch=1 n=d#5 v=0
307681 On ch=1 n=d#4 v=0
307746 On ch=1 n=d#7 v=85
307756 On ch=1 n=d#6 v=71
307811 On ch=1 n=d#6 v=0
307826 On ch=1 n=d#7 v=0
307926 Par ch=1 c=64 v=56
307946 Par ch=1 c=64 v=0
307956 On ch=1 n=c#7 v=75
307956 On ch=1 n=c#6 v=76
307996 On ch=1 n=a#2 v=60
308001 On ch=1 n=a#3 v=40
308041 Par ch=1 c=64 v=72
308056 Par ch=1 c=64 v=127
308061 On ch=1 n=a#3 v=0
308061 On ch=1 n=a#2 v=0
308146 On ch=1 n=c#7 v=0
308161 On ch=1 n=c#6 v=0
308346 On ch=1 n=d7 v=66
308361 On ch=1 n=d6 v=52
308386 On ch=1 n=f4 v=49
308391 On ch=1 n=d4 v=45
308391 On ch=1 n=d5 v=42
308406 Par ch=1 c=64 v=104
308421 Par ch=1 c=64 v=0
308501 On ch=1 n=d4 v=0
308501 On ch=1 n=d6 v=0
308501 Par ch=1 c=64 v=40
308506 On ch=1 n=d7 v=0
308516 On ch=1 n=d5 v=0
308521 Par ch=1 c=64 v=127
308526 On ch=1 n=f4 v=0
308776 On ch=1 n=d5 v=36
308786 On ch=1 n=d4 v=42
308786 On ch=1 n=f4 v=26
308856 On ch=1 n=d5 v=0
308886 On ch=1 n=f4 v=0
308891 On ch=1 n=d4 v=0
309321 On ch=1 n=d5 v=60
309331 On ch=1 n=a4 v=44
309351 Par ch=1 c=64 v=72
309361 On ch=1 n=c5 v=36
309366 Par ch=1 c=64 v=0
309471 On ch=1 n=a4 v=0
309476 Par ch=1 c=64 v=56
309491 Par ch=1 c=64 v=127
309531 On ch=1 n=d4 v=36
309626 On ch=1 n=d5 v=0
309651 On ch=1 n=d4 v=0
309696 On ch=1 n=f#3 v=36
309796 On ch=1 n=f#3 v=0
309846 On ch=1 n=d4 v=46
309951 On ch=1 n=d4 v=0
309956 On ch=1 n=c5 v=0
309991 On ch=1 n=d6 v=82
310001 On ch=1 n=a4 v=48
310116 On ch=1 n=a4 v=0
310116 On ch=1 n=d6 v=0
310166 On ch=1 n=d4 v=55
310291 On ch=1 n=d4 v=0
310336 On ch=1 n=a#4 v=46
310356 On ch=1 n=c6 v=82
310371 Par ch=1 c=64 v=56
310381 On ch=1 n=d5 v=45
310386 Par ch=1 c=64 v=0
310466 Par ch=1 c=64 v=40
310486 Par ch=1 c=64 v=127
310491 On ch=1 n=a#4 v=0
310501 On ch=1 n=d4 v=58
310621 On ch=1 n=d4 v=0
310671 On ch=1 n=g3 v=44
310726 On ch=1 n=g3 v=0
310766 On ch=1 n=c6 v=0
310851 On ch=1 n=a#5 v=70
310861 On ch=1 n=d4 v=46
310921 On ch=1 n=d5 v=0
310961 On ch=1 n=d4 v=0
311011 On ch=1 n=a5 v=82
311011 On ch=1 n=a#4 v=26
311041 On ch=1 n=a#5 v=0
311116 On ch=1 n=a5 v=0
311131 On ch=1 n=d4 v=48
311151 On ch=1 n=a#4 v=0
311156 On ch=1 n=g5 v=80
311171 On ch=1 n=d4 v=0
311241 On ch=1 n=g5 v=0
311346 On ch=1 n=g5 v=74
311366 On ch=1 n=d5 v=47
311371 On ch=1 n=f5 v=55
311376 Par ch=1 c=64 v=56
311391 Par ch=1 c=64 v=0
311476 On ch=1 n=d5 v=0
311491 On ch=1 n=g4 v=61
311491 Par ch=1 c=64 v=88
311506 Par ch=1 c=64 v=127
311616 On ch=1 n=g4 v=0
311636 On ch=1 n=g5 v=0
311676 On ch=1 n=b3 v=41
311701 On ch=1 n=f5 v=0
311741 On ch=1 n=b3 v=0
311796 On ch=1 n=g4 v=53
311921 On ch=1 n=g4 v=0
311956 On ch=1 n=g6 v=81
311966 On ch=1 n=d5 v=44
312066 On ch=1 n=d5 v=0
312081 On ch=1 n=g6 v=0
312116 On ch=1 n=g4 v=55
312271 On ch=1 n=g4 v=0
312296 On ch=1 n=f6 v=70
312296 On ch=1 n=d#5 v=61
312311 On ch=1 n=g5 v=47
312336 Par ch=1 c=64 v=104
312351 Par ch=1 c=64 v=24
312371 Par ch=1 c=64 v=0
312431 Par ch=1 c=64 v=88
312436 On ch=1 n=d#5 v=0
312446 Par ch=1 c=64 v=127
312451 On ch=1 n=g4 v=55
312591 On ch=1 n=g4 v=0
312636 On ch=1 n=c4 v=51
312676 On ch=1 n=f6 v=0
312726 On ch=1 n=c4 v=0
312771 On ch=1 n=d#6 v=74
312806 On ch=1 n=g4 v=55
312901 On ch=1 n=g5 v=0
312906 On ch=1 n=g4 v=0
312906 On ch=1 n=d#6 v=0
312931 On ch=1 n=d6 v=76
312946 On ch=1 n=d#5 v=31
313041 On ch=1 n=d6 v=0
313086 On ch=1 n=c6 v=83
313091 On ch=1 n=d#5 v=0
313176 On ch=1 n=c6 v=0
313276 On ch=1 n=d6 v=74
313286 On ch=1 n=a5 v=50
313286 On ch=1 n=c6 v=59
313311 Par ch=1 c=64 v=40
313326 Par ch=1 c=64 v=0
313371 On ch=1 n=a5 v=0
313406 Par ch=1 c=64 v=72
313421 Par ch=1 c=64 v=127
313446 On ch=1 n=d5 v=52
313546 On ch=1 n=d6 v=0
313576 On ch=1 n=d5 v=0
313611 On ch=1 n=c6 v=0
313616 On ch=1 n=f#4 v=46
313701 On ch=1 n=f#4 v=0
313751 On ch=1 n=d5 v=50
313881 On ch=1 n=d5 v=0
313906 On ch=1 n=d7 v=82
313936 On ch=1 n=a5 v=44
314041 On ch=1 n=d7 v=0
314056 On ch=1 n=a5 v=0
314101 On ch=1 n=d5 v=45
314236 On ch=1 n=d5 v=0
314256 On ch=1 n=c7 v=74
314271 On ch=1 n=a#5 v=46
314286 On ch=1 n=d6 v=53
314301 Par ch=1 c=64 v=88
314316 Par ch=1 c=64 v=0
314371 On ch=1 n=a#5 v=0
314396 Par ch=1 c=64 v=88
314411 On ch=1 n=d5 v=52
314411 Par ch=1 c=64 v=127
314536 On ch=1 n=d5 v=0
314541 On ch=1 n=c7 v=0
314616 On ch=1 n=g4 v=35
314661 On ch=1 n=g4 v=0
314766 On ch=1 n=d5 v=43
314766 On ch=1 n=a#6 v=68
314836 On ch=1 n=d5 v=0
314876 On ch=1 n=a#6 v=0
314921 On ch=1 n=a#5 v=33
314936 On ch=1 n=a6 v=69
315036 On ch=1 n=d6 v=0
315051 On ch=1 n=a#5 v=0
315076 On ch=1 n=a6 v=0
315091 On ch=1 n=g6 v=71
315091 On ch=1 n=d5 v=36
315126 On ch=1 n=d5 v=0
315141 On ch=1 n=g6 v=0
315306 On ch=1 n=a5 v=69
315316 On ch=1 n=e5 v=40
315326 On ch=1 n=g5 v=40
315326 Par ch=1 c=64 v=72
315341 Par ch=1 c=64 v=0
315421 On ch=1 n=e5 v=0
315421 Par ch=1 c=64 v=40
315436 Par ch=1 c=64 v=127
315476 On ch=1 n=a4 v=40
315501 On ch=1 n=a5 v=0
315586 On ch=1 n=g5 v=0
315596 On ch=1 n=a4 v=0
315646 On ch=1 n=c#4 v=42
315716 On ch=1 n=c#4 v=0
315781 On ch=1 n=a4 v=45
315886 On ch=1 n=a4 v=0
315946 On ch=1 n=e5 v=41
315966 On ch=1 n=a6 v=70
316051 On ch=1 n=a6 v=0
316071 On ch=1 n=e5 v=0
316136 On ch=1 n=a4 v=48
316251 On ch=1 n=a4 v=0
316321 On ch=1 n=d5 v=63
316326 Par ch=1 c=64 v=40
316331 On ch=1 n=c5 v=59
316341 On ch=1 n=f#5 v=47
316346 Par ch=1 c=64 v=0
316421 Par ch=1 c=64 v=104
316431 On ch=1 n=f#5 v=0
316441 Par ch=1 c=64 v=127
316451 On ch=1 n=c5 v=0
316476 On ch=1 n=d5 v=0
316491 On ch=1 n=a4 v=42
316591 On ch=1 n=a4 v=0
316636 On ch=1 n=d4 v=57
316731 On ch=1 n=d4 v=0
316821 On ch=1 n=a4 v=51
316931 On ch=1 n=a4 v=0
317016 On ch=1 n=f#5 v=44
317036 On ch=1 n=d6 v=60
317126 On ch=1 n=d6 v=0
317166 On ch=1 n=f#5 v=0
317226 On ch=1 n=a4 v=45
317266 On ch=1 n=a4 v=0
317521 On ch=1 n=a4 v=41
317526 On ch=1 n=d5 v=64
317571 On ch=1 n=c5 v=34
317571 Par ch=1 c=64 v=104
317591 Par ch=1 c=64 v=24
317606 Par ch=1 c=64 v=0
317671 On ch=1 n=a4 v=0
317686 Par ch=1 c=64 v=56
317701 Par ch=1 c=64 v=127
317711 On ch=1 n=d4 v=53
317796 On ch=1 n=d5 v=0
317836 On ch=1 n=d4 v=0
317866 On ch=1 n=f#3 v=45
317886 On ch=1 n=c5 v=0
317986 On ch=1 n=f#3 v=0
318016 On ch=1 n=d4 v=50
318146 On ch=1 n=d4 v=0
318161 On ch=1 n=d6 v=74
318186 On ch=1 n=a4 v=52
318321 On ch=1 n=a4 v=0
318346 On ch=1 n=d4 v=63
318466 On ch=1 n=d6 v=0
318501 On ch=1 n=d4 v=0
318511 On ch=1 n=c6 v=86
318516 On ch=1 n=a#4 v=46
318526 On ch=1 n=d5 v=55
318596 Par ch=1 c=64 v=88
318611 Par ch=1 c=64 v=0
318651 On ch=1 n=a#4 v=0
318681 On ch=1 n=d4 v=51
318706 Par ch=1 c=64 v=40
318726 Par ch=1 c=64 v=127
318796 On ch=1 n=d4 v=0
318841 On ch=1 n=g3 v=62
318891 On ch=1 n=d5 v=0
318931 On ch=1 n=g3 v=0
318946 On ch=1 n=c6 v=0
318991 On ch=1 n=a#5 v=71
319011 On ch=1 n=d4 v=62
319111 On ch=1 n=a#5 v=0
319116 On ch=1 n=d4 v=0
319146 On ch=1 n=a5 v=86
319156 On ch=1 n=a#4 v=42
319261 On ch=1 n=a5 v=0
319296 On ch=1 n=g5 v=83
319311 On ch=1 n=d4 v=51
319346 On ch=1 n=d4 v=0
319346 On ch=1 n=a#4 v=0
319376 On ch=1 n=g5 v=0
319521 On ch=1 n=g5 v=79
319546 On ch=1 n=f5 v=49
319556 On ch=1 n=d5 v=48
319556 Par ch=1 c=64 v=88
319571 Par ch=1 c=64 v=0
319666 On ch=1 n=d5 v=0
319701 On ch=1 n=g4 v=56
319746 Par ch=1 c=64 v=127
319816 On ch=1 n=g4 v=0
319851 On ch=1 n=g5 v=0
319871 On ch=1 n=b3 v=36
319876 On ch=1 n=f5 v=0
319966 On ch=1 n=b3 v=0
320001 On ch=1 n=g4 v=48
320101 On ch=1 n=g4 v=0
320136 On ch=1 n=g6 v=82
320161 On ch=1 n=d5 v=42
320256 On ch=1 n=d5 v=0
320286 On ch=1 n=g6 v=0
320306 On ch=1 n=g4 v=62
320486 On ch=1 n=g4 v=0
320486 On ch=1 n=f6 v=80
320501 On ch=1 n=d#5 v=57
320506 On ch=1 n=g5 v=48
320546 Par ch=1 c=64 v=24
320561 Par ch=1 c=64 v=0
320626 Par ch=1 c=64 v=40
320641 On ch=1 n=d#5 v=0
320641 Par ch=1 c=64 v=127
320651 On ch=1 n=g4 v=60
320766 On ch=1 n=g4 v=0
320836 On ch=1 n=c4 v=56
320881 On ch=1 n=f6 v=0
320926 On ch=1 n=c4 v=0
320986 On ch=1 n=d#6 v=78
321011 On ch=1 n=g4 v=54
321136 On ch=1 n=g4 v=0
321141 On ch=1 n=d6 v=82
321181 On ch=1 n=d#6 v=0
321181 On ch=1 n=d#5 v=40
321216 On ch=1 n=g5 v=0
321256 On ch=1 n=d6 v=0
321311 On ch=1 n=c6 v=82
321331 On ch=1 n=d#5 v=0
321401 On ch=1 n=c6 v=0
321511 On ch=1 n=d6 v=78
321521 On ch=1 n=c6 v=60
321531 On ch=1 n=a5 v=46
321536 Par ch=1 c=64 v=24
321551 Par ch=1 c=64 v=0
321616 On ch=1 n=a5 v=0
321646 Par ch=1 c=64 v=88
321666 Par ch=1 c=64 v=127
321681 On ch=1 n=d5 v=49
321776 On ch=1 n=d6 v=0
321801 On ch=1 n=d5 v=0
321856 On ch=1 n=f#4 v=36
321861 On ch=1 n=c6 v=0
321976 On ch=1 n=f#4 v=0
322001 On ch=1 n=d5 v=42
322131 On ch=1 n=d5 v=0
322146 On ch=1 n=d7 v=81
322181 On ch=1 n=a5 v=47
322276 On ch=1 n=a5 v=0
322306 On ch=1 n=d7 v=0
322346 On ch=1 n=d5 v=44
322506 On ch=1 n=d5 v=0
322531 On ch=1 n=c7 v=77
322546 On ch=1 n=a#5 v=32
322551 On ch=1 n=d6 v=59
322591 Par ch=1 c=64 v=56
322606 Par ch=1 c=64 v=0
322641 On ch=1 n=a#5 v=0
322686 Par ch=1 c=64 v=72
322696 On ch=1 n=d5 v=54
322701 Par ch=1 c=64 v=127
322826 On ch=1 n=d5 v=0
322886 On ch=1 n=g4 v=47
322936 On ch=1 n=c7 v=0
322941 On ch=1 n=g4 v=0
323056 On ch=1 n=d5 v=52
323066 On ch=1 n=a#6 v=69
323161 On ch=1 n=d5 v=0
323201 On ch=1 n=a#6 v=0
323236 On ch=1 n=a#5 v=33
323251 On ch=1 n=a6 v=60
323326 On ch=1 n=d6 v=0
323371 On ch=1 n=a6 v=0
323381 On ch=1 n=a#5 v=0
323396 On ch=1 n=d5 v=46
323401 On ch=1 n=g6 v=68
323426 On ch=1 n=d5 v=0
323441 On ch=1 n=g6 v=0
323631 On ch=1 n=a5 v=67
323646 On ch=1 n=g5 v=38
323671 On ch=1 n=e5 v=33
323676 Par ch=1 c=64 v=40
323691 Par ch=1 c=64 v=0
323746 On ch=1 n=e5 v=0
323771 Par ch=1 c=64 v=72
323786 Par ch=1 c=64 v=127
323811 On ch=1 n=a5 v=0
323816 On ch=1 n=a4 v=41
323901 On ch=1 n=a4 v=0
323901 On ch=1 n=g5 v=0
323946 On ch=1 n=c#4 v=44
324041 On ch=1 n=c#4 v=0
324106 On ch=1 n=a4 v=44
324221 On ch=1 n=a4 v=0
324261 On ch=1 n=a6 v=70
324261 On ch=1 n=e5 v=52
324361 On ch=1 n=e5 v=0
324361 On ch=1 n=a6 v=0
324446 On ch=1 n=a4 v=42
324536 On ch=1 n=a4 v=0
324646 On ch=1 n=f#5 v=51
324651 On ch=1 n=d5 v=50
324651 Par ch=1 c=64 v=56
324666 Par ch=1 c=64 v=0
324671 On ch=1 n=c5 v=39
324746 Par ch=1 c=64 v=88
324761 On ch=1 n=f#5 v=0
324761 Par ch=1 c=64 v=127
324811 On ch=1 n=a4 v=44
324831 On ch=1 n=c5 v=0
324836 On ch=1 n=d5 v=0
324946 On ch=1 n=a4 v=0
324991 On ch=1 n=d4 v=53
325096 On ch=1 n=d4 v=0
325201 On ch=1 n=a4 v=44
325326 On ch=1 n=a4 v=0
325366 On ch=1 n=d6 v=62
325381 On ch=1 n=f#5 v=43
325466 On ch=1 n=d6 v=0
325496 On ch=1 n=f#5 v=0
325561 On ch=1 n=a4 v=47
325686 On ch=1 n=a4 v=0
325836 On ch=1 n=f#4 v=61
325896 Par ch=1 c=64 v=104
325911 Par ch=1 c=64 v=24
325926 Par ch=1 c=64 v=0
326006 Par ch=1 c=64 v=40
326021 Par ch=1 c=64 v=104
326041 Par ch=1 c=64 v=127
326166 On ch=1 n=d#5 v=46
326176 On ch=1 n=a4 v=53
326186 On ch=1 n=f#4 v=0
326211 On ch=1 n=a4 v=0
326226 On ch=1 n=d#5 v=0
326296 On ch=1 n=c5 v=70
326356 On ch=1 n=c5 v=0
326511 On ch=1 n=d#6 v=80
326531 On ch=1 n=f3 v=59
326551 Par ch=1 c=64 v=56
326566 On ch=1 n=f3 v=0
326566 Par ch=1 c=64 v=0
326601 Par ch=1 c=64 v=56
326616 On ch=1 n=d#6 v=0
326616 Par ch=1 c=64 v=104
326631 Par ch=1 c=64 v=127
326791 On ch=1 n=b5 v=66
326871 On ch=1 n=b5 v=0
326901 Par ch=1 c=64 v=104
326906 On ch=1 n=c6 v=82
326916 Par ch=1 c=64 v=0
326941 On ch=1 n=f4 v=52
327046 Par ch=1 c=64 v=72
327061 Par ch=1 c=64 v=127
327231 On ch=1 n=d#5 v=65
327256 On ch=1 n=a4 v=46
327296 On ch=1 n=a4 v=0
327326 On ch=1 n=c6 v=0
327386 On ch=1 n=d6 v=81
327426 On ch=1 n=d#5 v=0
327506 On ch=1 n=d6 v=0
327526 On ch=1 n=d#6 v=85
327546 On ch=1 n=e5 v=71
327551 On ch=1 n=a4 v=1
327636 On ch=1 n=d#6 v=0
327641 On ch=1 n=f4 v=0
327666 On ch=1 n=e6 v=90
327731 On ch=1 n=a4 v=0
327746 On ch=1 n=e5 v=0
327841 On ch=1 n=e6 v=0
327841 On ch=1 n=f6 v=87
327861 On ch=1 n=d#4 v=70
327876 Par ch=1 c=64 v=104
327891 Par ch=1 c=64 v=24
327911 Par ch=1 c=64 v=0
327991 Par ch=1 c=64 v=104
328006 Par ch=1 c=64 v=127
328081 On ch=1 n=d#4 v=0
328151 On ch=1 n=f5 v=56
328161 On ch=1 n=c5 v=42
328166 On ch=1 n=a4 v=33
328261 On ch=1 n=f6 v=0
328286 On ch=1 n=a4 v=0
328286 On ch=1 n=g6 v=88
328291 On ch=1 n=f5 v=0
328306 On ch=1 n=c5 v=0
328411 On ch=1 n=g6 v=0
328436 On ch=1 n=g#6 v=87
328451 On ch=1 n=f5 v=58
328466 On ch=1 n=a4 v=49
328471 On ch=1 n=c5 v=29
328481 On ch=1 n=f5 v=0
328501 On ch=1 n=c5 v=0
328506 On ch=1 n=a4 v=0
328551 On ch=1 n=g#6 v=0
328601 On ch=1 n=a6 v=97
328726 On ch=1 n=a6 v=0
328791 On ch=1 n=d4 v=58
328886 Par ch=1 c=64 v=24
328901 Par ch=1 c=64 v=0
328911 On ch=1 n=c7 v=83
329011 On ch=1 n=d4 v=0
329026 Par ch=1 c=64 v=127
329221 On ch=1 n=a#4 v=46
329226 On ch=1 n=f5 v=49
329306 On ch=1 n=a#4 v=0
329316 On ch=1 n=f5 v=0
329326 On ch=1 n=c7 v=0
329386 On ch=1 n=a#6 v=64
329501 On ch=1 n=a#6 v=0
329556 On ch=1 n=a#4 v=43
329561 On ch=1 n=a6 v=64
329571 On ch=1 n=f5 v=35
329611 On ch=1 n=f5 v=0
329636 On ch=1 n=a#4 v=0
329681 On ch=1 n=a6 v=0
329726 On ch=1 n=g6 v=65
329776 On ch=1 n=g6 v=0
329906 Par ch=1 c=64 v=56
329921 Par ch=1 c=64 v=0
329936 On ch=1 n=c4 v=67
330001 Par ch=1 c=64 v=40
330016 Par ch=1 c=64 v=127
330021 On ch=1 n=c4 v=0
330246 On ch=1 n=d#5 v=39
330251 On ch=1 n=f4 v=42
330261 On ch=1 n=a4 v=37
330306 On ch=1 n=f4 v=0
330311 On ch=1 n=a4 v=0
330336 On ch=1 n=d#5 v=0
330376 On ch=1 n=a5 v=70
330486 On ch=1 n=a5 v=0
330536 On ch=1 n=d#6 v=79
330536 On ch=1 n=d#5 v=43
330551 On ch=1 n=a4 v=47
330571 On ch=1 n=f4 v=42
330581 On ch=1 n=a4 v=0
330581 On ch=1 n=d#5 v=0
330611 On ch=1 n=f4 v=0
330626 On ch=1 n=d#6 v=0
330816 On ch=1 n=b5 v=62
330881 Par ch=1 c=64 v=104
330886 On ch=1 n=b5 v=0
330896 Par ch=1 c=64 v=24
330906 On ch=1 n=a#3 v=60
330906 On ch=1 n=c6 v=84
330911 Par ch=1 c=64 v=0
330971 On ch=1 n=a#3 v=0
331006 Par ch=1 c=64 v=104
331026 Par ch=1 c=64 v=127
331211 On ch=1 n=d#5 v=53
331221 On ch=1 n=d#4 v=48
331236 On ch=1 n=g4 v=52
331266 On ch=1 n=g4 v=0
331281 On ch=1 n=d#4 v=0
331301 On ch=1 n=d#5 v=0
331306 On ch=1 n=c6 v=0
331376 On ch=1 n=d6 v=85
331486 On ch=1 n=d6 v=0
331506 On ch=1 n=d#5 v=44
331516 On ch=1 n=d#6 v=79
331526 On ch=1 n=g4 v=40
331531 On ch=1 n=d#4 v=40
331541 On ch=1 n=d#5 v=0
331561 On ch=1 n=g4 v=0
331566 On ch=1 n=d#4 v=0
331606 On ch=1 n=d#6 v=0
331646 On ch=1 n=e6 v=86
331806 On ch=1 n=e6 v=0
331821 Par ch=1 c=64 v=72
331831 On ch=1 n=f6 v=84
331836 On ch=1 n=a3 v=64
331836 Par ch=1 c=64 v=0
331921 On ch=1 n=a3 v=0
331931 Par ch=1 c=64 v=88
331951 On ch=1 n=f6 v=0
331951 Par ch=1 c=64 v=127
331986 On ch=1 n=f#6 v=86
332116 On ch=1 n=f#6 v=0
332141 On ch=1 n=d#5 v=57
332146 On ch=1 n=g6 v=88
332161 On ch=1 n=d#4 v=40
332171 On ch=1 n=f4 v=42
332221 On ch=1 n=f4 v=0
332231 On ch=1 n=d#4 v=0
332241 On ch=1 n=d#5 v=0
332246 On ch=1 n=g6 v=0
332306 On ch=1 n=f#6 v=84
332386 On ch=1 n=f#6 v=0
332461 On ch=1 n=d#5 v=43
332466 On ch=1 n=d#4 v=51
332476 On ch=1 n=f6 v=82
332511 On ch=1 n=d#5 v=0
332546 On ch=1 n=d#4 v=0
332571 On ch=1 n=f6 v=0
332621 On ch=1 n=d#6 v=77
332736 On ch=1 n=d#6 v=0
332811 On ch=1 n=c#6 v=71
332811 Par ch=1 c=64 v=72
332821 On ch=1 n=a#3 v=52
332831 Par ch=1 c=64 v=0
332926 Par ch=1 c=64 v=72
332936 On ch=1 n=a#3 v=0
332941 Par ch=1 c=64 v=127
333081 On ch=1 n=c#6 v=0
333196 On ch=1 n=d6 v=64
333216 On ch=1 n=d5 v=52
333231 On ch=1 n=f4 v=45
333236 On ch=1 n=d4 v=33
333246 Par ch=1 c=64 v=104
333261 Par ch=1 c=64 v=24
333276 Par ch=1 c=64 v=0
333321 On ch=1 n=d5 v=0
333326 Par ch=1 c=64 v=104
333341 Par ch=1 c=64 v=127
333366 On ch=1 n=d4 v=0
333371 On ch=1 n=f4 v=0
333426 On ch=1 n=d6 v=0
333606 On ch=1 n=d5 v=52
333611 On ch=1 n=d4 v=42
333616 On ch=1 n=f4 v=52
333681 On ch=1 n=d5 v=0
333706 On ch=1 n=d4 v=0
333716 On ch=1 n=f4 v=0
333981 On ch=1 n=f#3 v=81
333986 On ch=1 n=f#4 v=90
334011 Par ch=1 c=64 v=24
334026 Par ch=1 c=64 v=0
334051 On ch=1 n=f#4 v=0
334051 On ch=1 n=f#3 v=0
334076 Par ch=1 c=64 v=72
334091 Par ch=1 c=64 v=127
334276 On ch=1 n=d#5 v=69
334291 On ch=1 n=c5 v=68
334306 On ch=1 n=a4 v=50
334321 On ch=1 n=c5 v=0
334346 On ch=1 n=a4 v=0
334426 On ch=1 n=d#5 v=0
334441 On ch=1 n=a6 v=93
334441 On ch=1 n=a5 v=81
334501 On ch=1 n=a5 v=0
334521 On ch=1 n=a6 v=0
334611 On ch=1 n=d#5 v=63
334621 On ch=1 n=d#7 v=95
334626 On ch=1 n=d#6 v=90
334631 On ch=1 n=a4 v=59
334636 On ch=1 n=c5 v=45
334666 On ch=1 n=c5 v=0
334666 On ch=1 n=a4 v=0
334671 On ch=1 n=d#6 v=0
334671 On ch=1 n=d#5 v=0
334676 On ch=1 n=d#7 v=0
334916 On ch=1 n=b5 v=83
334921 On ch=1 n=b6 v=94
334956 On ch=1 n=b5 v=0
334961 On ch=1 n=b6 v=0
335016 On ch=1 n=f3 v=68
335016 On ch=1 n=c7 v=95
335016 Par ch=1 c=64 v=56
335021 On ch=1 n=c6 v=75
335031 On ch=1 n=f4 v=66
335031 Par ch=1 c=64 v=0
335066 On ch=1 n=f3 v=0
335096 Par ch=1 c=64 v=56
335106 On ch=1 n=f4 v=0
335111 Par ch=1 c=64 v=127
335286 On ch=1 n=c6 v=0
335326 On ch=1 n=d#5 v=69
335331 On ch=1 n=c5 v=70
335341 On ch=1 n=a4 v=61
335361 On ch=1 n=c7 v=0
335416 On ch=1 n=c5 v=0
335441 On ch=1 n=a4 v=0
335451 On ch=1 n=d#5 v=0
335486 On ch=1 n=d7 v=94
335491 On ch=1 n=d6 v=84
335546 On ch=1 n=d6 v=0
335561 On ch=1 n=d7 v=0
335636 On ch=1 n=d#5 v=56
335641 On ch=1 n=d#7 v=89
335641 On ch=1 n=c5 v=61
335641 On ch=1 n=d#6 v=88
335646 On ch=1 n=a4 v=57
335666 On ch=1 n=c5 v=0
335676 On ch=1 n=a4 v=0
335681 On ch=1 n=d#5 v=0
335696 On ch=1 n=d#6 v=0
335716 On ch=1 n=d#7 v=0
335781 On ch=1 n=e7 v=103
335786 On ch=1 n=e6 v=97
335836 On ch=1 n=e6 v=0
335851 On ch=1 n=e7 v=0
335941 On ch=1 n=f7 v=102
335946 On ch=1 n=f6 v=100
335956 On ch=1 n=d#3 v=65
335961 On ch=1 n=d#4 v=81
335961 Par ch=1 c=64 v=104
335976 Par ch=1 c=64 v=0
336011 On ch=1 n=d#3 v=0
336021 On ch=1 n=d#4 v=0
336041 Par ch=1 c=64 v=88
336056 Par ch=1 c=64 v=127
336226 On ch=1 n=f6 v=0
336246 On ch=1 n=f5 v=68
336251 On ch=1 n=c5 v=63
336256 On ch=1 n=a4 v=64
336281 On ch=1 n=f7 v=0
336331 On ch=1 n=f5 v=0
336341 On ch=1 n=c5 v=0
336346 On ch=1 n=a4 v=0
336376 On ch=1 n=g7 v=93
336381 On ch=1 n=g6 v=82
336436 On ch=1 n=g6 v=0
336451 On ch=1 n=g7 v=0
336516 On ch=1 n=c5 v=71
336516 On ch=1 n=f5 v=64
336531 On ch=1 n=g#6 v=89
336531 On ch=1 n=g#7 v=93
336536 On ch=1 n=a4 v=59
336546 On ch=1 n=f5 v=0
336561 On ch=1 n=c5 v=0
336566 On ch=1 n=a4 v=0
336591 On ch=1 n=g#6 v=0
336601 On ch=1 n=g#7 v=0
336676 On ch=1 n=a7 v=112
336686 On ch=1 n=a6 v=94
336731 On ch=1 n=a6 v=0
336756 On ch=1 n=a7 v=0
336871 On ch=1 n=c8 v=97
336881 On ch=1 n=c7 v=89
336886 Par ch=1 c=64 v=104
336901 On ch=1 n=d3 v=74
336901 Par ch=1 c=64 v=0
336911 On ch=1 n=d4 v=72
336981 On ch=1 n=d4 v=0
336981 On ch=1 n=d3 v=0
336996 Par ch=1 c=64 v=127
337206 On ch=1 n=c8 v=0
337236 On ch=1 n=c7 v=0
337236 On ch=1 n=f5 v=60
337241 On ch=1 n=a#4 v=43
337251 On ch=1 n=f4 v=41
337301 On ch=1 n=f4 v=0
337316 On ch=1 n=a#4 v=0
337316 On ch=1 n=f5 v=0
337396 On ch=1 n=a#7 v=77
337406 On ch=1 n=a#6 v=70
337491 On ch=1 n=a#6 v=0
337501 On ch=1 n=a#7 v=0
337561 On ch=1 n=a#4 v=45
337566 On ch=1 n=a7 v=88
337576 On ch=1 n=f5 v=31
337576 On ch=1 n=a6 v=73
337596 On ch=1 n=f4 v=28
337606 On ch=1 n=f5 v=0
337631 On ch=1 n=a#4 v=0
337636 On ch=1 n=f4 v=0
337641 On ch=1 n=a6 v=0
337646 On ch=1 n=a7 v=0
337741 On ch=1 n=g7 v=89
337746 On ch=1 n=g6 v=78
337806 On ch=1 n=g6 v=0
337826 On ch=1 n=g7 v=0
337946 On ch=1 n=f#7 v=85
337951 On ch=1 n=f#6 v=81
337961 On ch=1 n=d#3 v=53
337966 On ch=1 n=d#4 v=58
337971 Par ch=1 c=64 v=72
337986 Par ch=1 c=64 v=0
338026 On ch=1 n=d#3 v=0
338031 On ch=1 n=d#4 v=0
338071 Par ch=1 c=64 v=127
338241 On ch=1 n=f#6 v=0
338246 On ch=1 n=f#7 v=0
338271 On ch=1 n=f#5 v=61
338276 On ch=1 n=a#4 v=54
338276 On ch=1 n=d#4 v=54
338336 On ch=1 n=d#4 v=0
338376 On ch=1 n=a#4 v=0
338386 On ch=1 n=f#5 v=0
338421 On ch=1 n=f7 v=79
338426 On ch=1 n=f6 v=72
338496 On ch=1 n=f6 v=0
338501 On ch=1 n=f7 v=0
338576 On ch=1 n=f#5 v=49
338581 On ch=1 n=a#4 v=54
338601 On ch=1 n=d#4 v=43
338606 On ch=1 n=f#5 v=0
338616 On ch=1 n=d#7 v=67
338616 On ch=1 n=d#6 v=71
338646 On ch=1 n=a#4 v=0
338656 On ch=1 n=d#6 v=0
338671 On ch=1 n=d#4 v=0
338686 On ch=1 n=d#7 v=0
338771 On ch=1 n=c#7 v=77
338776 On ch=1 n=c#6 v=74
338871 On ch=1 n=c#6 v=0
338896 On ch=1 n=c3 v=64
338911 On ch=1 n=c#7 v=0
338916 Par ch=1 c=64 v=40
338931 Par ch=1 c=64 v=0
338961 On ch=1 n=c3 v=0
338996 Par ch=1 c=64 v=56
339011 Par ch=1 c=64 v=127
339026 On ch=1 n=c7 v=82
339036 On ch=1 n=c6 v=70
339056 On ch=1 n=e4 v=51
339091 On ch=1 n=e4 v=0
339241 On ch=1 n=c7 v=0
339276 On ch=1 n=c6 v=0
339346 On ch=1 n=c4 v=60
339376 On ch=1 n=c4 v=0
339511 On ch=1 n=a#6 v=62
339526 On ch=1 n=a#5 v=51
339591 On ch=1 n=a#5 v=0
339606 On ch=1 n=a#6 v=0
339661 On ch=1 n=e5 v=33
339671 On ch=1 n=g4 v=43
339676 On ch=1 n=a#4 v=26
339686 On ch=1 n=a6 v=79
339691 On ch=1 n=e5 v=0
339701 On ch=1 n=a5 v=56
339711 On ch=1 n=a#4 v=0
339716 On ch=1 n=g4 v=0
339746 On ch=1 n=a5 v=0
339756 On ch=1 n=a6 v=0
339861 On ch=1 n=g6 v=82
339871 On ch=1 n=g5 v=64
339926 On ch=1 n=g5 v=0
339926 On ch=1 n=g6 v=0
340066 Par ch=1 c=64 v=104
340081 Par ch=1 c=64 v=24
340086 On ch=1 n=f6 v=81
340096 On ch=1 n=f5 v=65
340096 On ch=1 n=f3 v=57
340096 Par ch=1 c=64 v=0
340166 On ch=1 n=f3 v=0
340191 Par ch=1 c=64 v=104
340206 Par ch=1 c=64 v=127
340361 On ch=1 n=f5 v=0
340446 On ch=1 n=f4 v=48
340606 On ch=1 n=g5 v=67
340706 On ch=1 n=g5 v=0
340831 Par ch=1 c=64 v=104
340836 On ch=1 n=f5 v=59
340846 On ch=1 n=d#5 v=35
340846 Par ch=1 c=64 v=40
340856 On ch=1 n=a4 v=42
340866 Par ch=1 c=64 v=0
340911 Par ch=1 c=64 v=24
340926 Par ch=1 c=64 v=88
340946 Par ch=1 c=64 v=127
340961 On ch=1 n=a4 v=0
340966 On ch=1 n=d#5 v=0
341001 On ch=1 n=f4 v=0
341046 On ch=1 n=d6 v=64
341281 Par ch=1 c=64 v=40
341296 On ch=1 n=a#5 v=55
341296 On ch=1 n=a#3 v=51
341296 Par ch=1 c=64 v=0
341391 On ch=1 n=a#3 v=0
341391 Par ch=1 c=64 v=104
341406 Par ch=1 c=64 v=127
341491 On ch=1 n=f5 v=0
341506 On ch=1 n=f6 v=0
341521 On ch=1 n=d6 v=0
341536 On ch=1 n=a#5 v=0
341776 On ch=1 n=d5 v=31
341786 On ch=1 n=f4 v=36
341786 On ch=1 n=a#4 v=23
341966 On ch=1 n=f4 v=0
341976 On ch=1 n=d5 v=0
342016 On ch=1 n=a#4 v=0
342776 On ch=1 n=d5 v=63
342791 On ch=1 n=a4 v=33
342811 Par ch=1 c=64 v=72
342826 On ch=1 n=c5 v=26
342826 Par ch=1 c=64 v=0
342926 On ch=1 n=a4 v=0
342926 Par ch=1 c=64 v=88
342941 Par ch=1 c=64 v=127
343006 On ch=1 n=d4 v=31
343071 On ch=1 n=d5 v=0
343106 On ch=1 n=d4 v=0
343131 On ch=1 n=c5 v=0
343141 On ch=1 n=f#3 v=37
343241 On ch=1 n=f#3 v=0
343321 On ch=1 n=d4 v=36
343431 On ch=1 n=d4 v=0
343486 On ch=1 n=d6 v=69
343486 On ch=1 n=a4 v=45
343641 On ch=1 n=a4 v=0
343676 On ch=1 n=d4 v=45
343786 On ch=1 n=d6 v=0
343791 On ch=1 n=d4 v=0
343831 On ch=1 n=a#4 v=38
343841 On ch=1 n=c6 v=79
343866 On ch=1 n=d5 v=42
343916 Par ch=1 c=64 v=104
343931 Par ch=1 c=64 v=24
343946 Par ch=1 c=64 v=0
343956 On ch=1 n=a#4 v=0
344001 On ch=1 n=d4 v=45
344011 Par ch=1 c=64 v=40
344026 Par ch=1 c=64 v=127
344121 On ch=1 n=d4 v=0
344171 On ch=1 n=g3 v=48
344261 On ch=1 n=g3 v=0
344281 On ch=1 n=c6 v=0
344291 On ch=1 n=d5 v=0
344331 On ch=1 n=a#5 v=67
344356 On ch=1 n=d4 v=53
344441 On ch=1 n=d4 v=0
344446 On ch=1 n=a#5 v=0
344501 On ch=1 n=a5 v=79
344501 On ch=1 n=a#4 v=26
344606 On ch=1 n=a5 v=0
344646 On ch=1 n=g5 v=79
344676 On ch=1 n=a#4 v=0
344731 On ch=1 n=g5 v=0
344836 On ch=1 n=g5 v=83
344861 On ch=1 n=d5 v=55
344866 On ch=1 n=f5 v=46
344871 Par ch=1 c=64 v=88
344886 Par ch=1 c=64 v=0
344956 On ch=1 n=d5 v=0
344981 Par ch=1 c=64 v=88
345001 Par ch=1 c=64 v=127
345011 On ch=1 n=g4 v=44
345111 On ch=1 n=g4 v=0
345176 On ch=1 n=b3 v=39
345226 On ch=1 n=g5 v=0
345251 On ch=1 n=b3 v=0
345311 On ch=1 n=g4 v=44
345411 On ch=1 n=g4 v=0
345451 On ch=1 n=d5 v=50
345476 On ch=1 n=g6 v=86
345566 On ch=1 n=d5 v=0
345641 On ch=1 n=g4 v=47
345681 On ch=1 n=g6 v=0
345796 On ch=1 n=g4 v=0
345821 On ch=1 n=f6 v=81
345821 On ch=1 n=d#5 v=46
345861 Par ch=1 c=64 v=104
345881 Par ch=1 c=64 v=0
345966 On ch=1 n=d#5 v=0
345966 On ch=1 n=g4 v=58
345976 Par ch=1 c=64 v=88
345986 On ch=1 n=f5 v=0
345991 Par ch=1 c=64 v=127
346116 On ch=1 n=g4 v=0
346151 On ch=1 n=c4 v=48
346236 On ch=1 n=c4 v=0
346301 On ch=1 n=f6 v=0
346336 On ch=1 n=d#6 v=72
346346 On ch=1 n=g4 v=48
346426 On ch=1 n=g4 v=0
346461 On ch=1 n=d#6 v=0
346476 On ch=1 n=d#5 v=35
346491 On ch=1 n=d6 v=84
346611 On ch=1 n=d6 v=0
346641 On ch=1 n=c6 v=84
346661 On ch=1 n=d#5 v=0
346746 On ch=1 n=c6 v=0
346866 On ch=1 n=d6 v=80
346891 On ch=1 n=c6 v=53
346896 On ch=1 n=a5 v=52
346901 Par ch=1 c=64 v=104
346916 Par ch=1 c=64 v=24
346931 Par ch=1 c=64 v=0
347011 Par ch=1 c=64 v=72
347021 On ch=1 n=a5 v=0
347031 Par ch=1 c=64 v=127
347061 On ch=1 n=d5 v=48
347146 On ch=1 n=d6 v=0
347176 On ch=1 n=d5 v=0
347206 On ch=1 n=f#4 v=49
347286 On ch=1 n=c6 v=0
347301 On ch=1 n=f#4 v=0
347346 On ch=1 n=d5 v=51
347471 On ch=1 n=d5 v=0
347486 On ch=1 n=d7 v=82
347531 On ch=1 n=a5 v=42
347626 On ch=1 n=a5 v=0
347656 On ch=1 n=d7 v=0
347661 On ch=1 n=d5 v=56
347841 On ch=1 n=d5 v=0
347861 On ch=1 n=a#5 v=54
347881 On ch=1 n=c7 v=76
347906 On ch=1 n=d6 v=46
347926 Par ch=1 c=64 v=56
347941 Par ch=1 c=64 v=0
348006 On ch=1 n=a#5 v=0
348021 On ch=1 n=d5 v=58
348021 Par ch=1 c=64 v=56
348036 Par ch=1 c=64 v=127
348166 On ch=1 n=d5 v=0
348211 On ch=1 n=c7 v=0
348211 On ch=1 n=g4 v=41
348266 On ch=1 n=g4 v=0
348356 On ch=1 n=a#6 v=68
348376 On ch=1 n=d5 v=45
348476 On ch=1 n=d5 v=0
348496 On ch=1 n=a#6 v=0
348526 On ch=1 n=a#5 v=37
348536 On ch=1 n=a6 v=63
348676 On ch=1 n=a#5 v=0
348686 On ch=1 n=g6 v=70
348686 On ch=1 n=d5 v=41
348691 On ch=1 n=d6 v=0
348696 On ch=1 n=a6 v=0
348721 On ch=1 n=d5 v=0
348726 On ch=1 n=g6 v=0
348901 On ch=1 n=a5 v=72
348926 On ch=1 n=g5 v=33
348931 On ch=1 n=e5 v=38
348961 Par ch=1 c=64 v=40
348976 Par ch=1 c=64 v=0
349031 On ch=1 n=e5 v=0
349056 Par ch=1 c=64 v=56
349076 Par ch=1 c=64 v=127
349086 On ch=1 n=a4 v=40
349111 On ch=1 n=a5 v=0
349181 On ch=1 n=a4 v=0
349246 On ch=1 n=c#4 v=42
349271 On ch=1 n=g5 v=0
349346 On ch=1 n=c#4 v=0
349401 On ch=1 n=a4 v=39
349496 On ch=1 n=a4 v=0
349561 On ch=1 n=e5 v=29
349576 On ch=1 n=a6 v=73
349671 On ch=1 n=e5 v=0
349676 On ch=1 n=a6 v=0
349731 On ch=1 n=a4 v=45
349851 On ch=1 n=a4 v=0
349931 On ch=1 n=d5 v=58
349946 On ch=1 n=f#5 v=36
349951 Par ch=1 c=64 v=104
349961 On ch=1 n=c5 v=33
349966 Par ch=1 c=64 v=40
349981 Par ch=1 c=64 v=0
350041 On ch=1 n=f#5 v=0
350066 Par ch=1 c=64 v=127
350086 On ch=1 n=a4 v=48
350126 On ch=1 n=c5 v=0
350136 On ch=1 n=d5 v=0
350211 On ch=1 n=a4 v=0
350246 On ch=1 n=d4 v=53
350366 On ch=1 n=d4 v=0
350451 On ch=1 n=a4 v=36
350586 On ch=1 n=a4 v=0
350606 On ch=1 n=d6 v=62
350646 On ch=1 n=f#5 v=38
350756 On ch=1 n=d6 v=0
350796 On ch=1 n=f#5 v=0
350846 On ch=1 n=a4 v=30
350876 On ch=1 n=a4 v=0
351096 On ch=1 n=d5 v=64
351111 On ch=1 n=a4 v=44
351131 On ch=1 n=c5 v=44
351181 Par ch=1 c=64 v=104
351196 Par ch=1 c=64 v=40
351211 Par ch=1 c=64 v=0
351261 On ch=1 n=a4 v=0
351296 Par ch=1 c=64 v=56
351301 On ch=1 n=d4 v=44
351311 Par ch=1 c=64 v=127
351431 On ch=1 n=d4 v=0
351431 On ch=1 n=d5 v=0
351476 On ch=1 n=f#3 v=45
351536 On ch=1 n=c5 v=0
351616 On ch=1 n=f#3 v=0
351641 On ch=1 n=d4 v=49
351771 On ch=1 n=d6 v=70
351786 On ch=1 n=d4 v=0
351801 On ch=1 n=a4 v=58
351891 On ch=1 n=d6 v=0
351926 On ch=1 n=a4 v=0
351946 On ch=1 n=d4 v=65
352106 On ch=1 n=d4 v=0
352131 On ch=1 n=a#4 v=56
352151 On ch=1 n=c6 v=82
352171 Par ch=1 c=64 v=72
352181 On ch=1 n=d5 v=45
352186 Par ch=1 c=64 v=0
352221 On ch=1 n=d5 v=0
352271 On ch=1 n=d5 v=18
352276 On ch=1 n=a#4 v=0
352301 On ch=1 n=d4 v=61
352301 Par ch=1 c=64 v=104
352316 Par ch=1 c=64 v=127
352421 On ch=1 n=d4 v=0
352491 On ch=1 n=g3 v=33
352561 On ch=1 n=g3 v=0
352626 On ch=1 n=d4 v=60
352631 On ch=1 n=c6 v=0
352636 On ch=1 n=a#5 v=74
352716 On ch=1 n=d5 v=0
352746 On ch=1 n=d4 v=0
352786 On ch=1 n=a#4 v=43
352791 On ch=1 n=a5 v=83
352816 On ch=1 n=a#5 v=0
352911 On ch=1 n=a5 v=0
352921 On ch=1 n=d4 v=64
352936 On ch=1 n=g5 v=78
352946 On ch=1 n=a#4 v=0
352956 On ch=1 n=d4 v=0
353036 On ch=1 n=g5 v=0
353126 On ch=1 n=g5 v=76
353136 On ch=1 n=d5 v=73
353161 On ch=1 n=f5 v=49
353161 Par ch=1 c=64 v=40
353176 Par ch=1 c=64 v=0
353256 On ch=1 n=d5 v=0
353256 Par ch=1 c=64 v=88
353276 Par ch=1 c=64 v=127
353301 On ch=1 n=g4 v=64
353441 On ch=1 n=g4 v=0
353451 On ch=1 n=g5 v=0
353481 On ch=1 n=b3 v=63
353531 On ch=1 n=f5 v=0
353581 On ch=1 n=b3 v=0
353641 On ch=1 n=g4 v=55
353781 On ch=1 n=g4 v=0
353831 On ch=1 n=g6 v=82
353831 On ch=1 n=d5 v=51
353911 On ch=1 n=d5 v=0
353971 On ch=1 n=g6 v=0
353981 On ch=1 n=g4 v=58
354146 On ch=1 n=g4 v=0
354171 On ch=1 n=d#5 v=51
354176 On ch=1 n=f6 v=77
354191 On ch=1 n=g5 v=54
354201 Par ch=1 c=64 v=88
354216 Par ch=1 c=64 v=0
354296 On ch=1 n=d#5 v=0
354296 Par ch=1 c=64 v=40
354311 Par ch=1 c=64 v=104
354326 On ch=1 n=g4 v=54
354326 Par ch=1 c=64 v=127
354466 On ch=1 n=g4 v=0
354511 On ch=1 n=c4 v=52
354616 On ch=1 n=c4 v=0
354616 On ch=1 n=f6 v=0
354666 On ch=1 n=g5 v=0
354666 On ch=1 n=d#6 v=67
354676 On ch=1 n=g4 v=56
354786 On ch=1 n=g4 v=0
354821 On ch=1 n=d#6 v=0
354841 On ch=1 n=d#5 v=41
354851 On ch=1 n=d6 v=66
354981 On ch=1 n=d6 v=0
355001 On ch=1 n=g4 v=46
355006 On ch=1 n=d#5 v=0
355011 On ch=1 n=c6 v=75
355031 On ch=1 n=g4 v=0
355106 On ch=1 n=c6 v=0
355236 On ch=1 n=d6 v=79
355246 On ch=1 n=a5 v=50
355256 On ch=1 n=c6 v=52
355301 Par ch=1 c=64 v=40
355316 Par ch=1 c=64 v=0
355356 On ch=1 n=a5 v=0
355396 Par ch=1 c=64 v=127
355406 On ch=1 n=d5 v=47
355496 On ch=1 n=c6 v=0
355516 On ch=1 n=d5 v=0
355536 On ch=1 n=d6 v=0
355561 On ch=1 n=f#4 v=38
355676 On ch=1 n=f#4 v=0
355721 On ch=1 n=d5 v=35
355826 On ch=1 n=d5 v=0
355841 On ch=1 n=d7 v=84
355876 On ch=1 n=a5 v=44
355961 On ch=1 n=a5 v=0
355976 On ch=1 n=d7 v=0
356026 On ch=1 n=d5 v=55
356206 On ch=1 n=d5 v=0
356231 On ch=1 n=c7 v=78
356236 On ch=1 n=a#5 v=39
356261 On ch=1 n=d6 v=53
356311 Par ch=1 c=64 v=72
356326 Par ch=1 c=64 v=0
356336 On ch=1 n=a#5 v=0
356391 On ch=1 n=d5 v=42
356406 Par ch=1 c=64 v=56
356421 Par ch=1 c=64 v=127
356521 On ch=1 n=d5 v=0
356571 On ch=1 n=g4 v=41
356631 On ch=1 n=c7 v=0
356666 On ch=1 n=g4 v=0
356756 On ch=1 n=a#6 v=68
356771 On ch=1 n=d5 v=44
356871 On ch=1 n=a#6 v=0
356881 On ch=1 n=d5 v=0
356926 On ch=1 n=a#5 v=41
356931 On ch=1 n=a6 v=67
357031 On ch=1 n=d6 v=0
357051 On ch=1 n=a6 v=0
357071 On ch=1 n=a#5 v=0
357076 On ch=1 n=d5 v=49
357091 On ch=1 n=g6 v=64
357111 On ch=1 n=d5 v=0
357131 On ch=1 n=g6 v=0
357326 On ch=1 n=g5 v=42
357326 On ch=1 n=a5 v=59
357341 On ch=1 n=e5 v=42
357346 Par ch=1 c=64 v=56
357361 Par ch=1 c=64 v=0
357446 On ch=1 n=e5 v=0
357446 Par ch=1 c=64 v=72
357461 Par ch=1 c=64 v=127
357491 On ch=1 n=g5 v=0
357521 On ch=1 n=a4 v=45
357636 On ch=1 n=a4 v=0
357636 On ch=1 n=a5 v=0
357691 On ch=1 n=c#4 v=42
357796 On ch=1 n=c#4 v=0
357826 On ch=1 n=a4 v=42
357921 On ch=1 n=a4 v=0
357986 On ch=1 n=e5 v=34
358036 On ch=1 n=a6 v=72
358076 On ch=1 n=e5 v=0
358131 On ch=1 n=a6 v=0
358211 On ch=1 n=a4 v=30
358331 On ch=1 n=a4 v=0
358421 On ch=1 n=d5 v=62
358431 Par ch=1 c=64 v=56
358436 On ch=1 n=c5 v=47
358441 On ch=1 n=f#5 v=39
358446 Par ch=1 c=64 v=0
358531 Par ch=1 c=64 v=72
358541 Par ch=1 c=64 v=127
358551 On ch=1 n=f#5 v=0
358566 On ch=1 n=c5 v=0
358586 On ch=1 n=d5 v=0
358601 On ch=1 n=a4 v=36
358731 On ch=1 n=a4 v=0
358781 On ch=1 n=d4 v=46
358881 On ch=1 n=d4 v=0
358981 On ch=1 n=a4 v=42
359131 On ch=1 n=a4 v=0
359186 On ch=1 n=f#5 v=40
359191 On ch=1 n=d6 v=52
359311 On ch=1 n=f#5 v=0
359381 On ch=1 n=a4 v=47
359491 On ch=1 n=d6 v=0
359496 On ch=1 n=a4 v=0
359651 On ch=1 n=f#4 v=60
359726 Par ch=1 c=64 v=104
359741 Par ch=1 c=64 v=24
359761 Par ch=1 c=64 v=0
359821 Par ch=1 c=64 v=56
359841 Par ch=1 c=64 v=127
360006 On ch=1 n=d#5 v=35
360011 On ch=1 n=f#4 v=0
360036 On ch=1 n=a4 v=40
360151 On ch=1 n=a4 v=0
360151 On ch=1 n=c5 v=67
360166 On ch=1 n=d#5 v=0
360211 On ch=1 n=c5 v=0
360366 On ch=1 n=d#6 v=81
360381 Par ch=1 c=64 v=40
360396 Par ch=1 c=64 v=0
360426 On ch=1 n=f3 v=56
360446 Par ch=1 c=64 v=56
360461 Par ch=1 c=64 v=127
360501 On ch=1 n=f3 v=0
360511 On ch=1 n=d#6 v=0
360721 On ch=1 n=b5 v=67
360811 On ch=1 n=b5 v=0
360811 Par ch=1 c=64 v=40
360816 On ch=1 n=c6 v=82
360826 Par ch=1 c=64 v=0
360831 On ch=1 n=f4 v=54
360941 Par ch=1 c=64 v=40
360956 Par ch=1 c=64 v=127
361156 On ch=1 n=d#5 v=54
361171 On ch=1 n=a4 v=43
361181 On ch=1 n=f4 v=0
361236 On ch=1 n=a4 v=0
361246 On ch=1 n=d#5 v=0
361261 On ch=1 n=c6 v=0
361306 On ch=1 n=d6 v=79
361411 On ch=1 n=d#5 v=25
361431 On ch=1 n=d6 v=0
361461 On ch=1 n=d#5 v=0
361466 On ch=1 n=d#6 v=69
361486 On ch=1 n=e5 v=48
361566 On ch=1 n=e5 v=0
361586 On ch=1 n=d#6 v=0
361606 On ch=1 n=e6 v=84
361781 On ch=1 n=f6 v=94
361791 On ch=1 n=e6 v=0
361806 On ch=1 n=d#4 v=54
361821 Par ch=1 c=64 v=24
361836 Par ch=1 c=64 v=0
361931 Par ch=1 c=64 v=104
361946 Par ch=1 c=64 v=127
361981 On ch=1 n=d#4 v=0
362081 On ch=1 n=f5 v=56
362086 On ch=1 n=c5 v=44
362126 On ch=1 n=a4 v=31
362131 On ch=1 n=c5 v=0
362161 On ch=1 n=f6 v=0
362176 On ch=1 n=a4 v=0
362176 On ch=1 n=f5 v=0
362216 On ch=1 n=g6 v=85
362331 On ch=1 n=g6 v=0
362371 On ch=1 n=g#6 v=84
362371 On ch=1 n=f5 v=45
362396 On ch=1 n=a4 v=38
362406 On ch=1 n=f5 v=0
362436 On ch=1 n=a4 v=0
362471 On ch=1 n=g#6 v=0
362526 On ch=1 n=a6 v=96
362656 On ch=1 n=a6 v=0
362751 On ch=1 n=d4 v=58
362801 On ch=1 n=c7 v=87
362806 Par ch=1 c=64 v=72
362821 Par ch=1 c=64 v=0
362926 On ch=1 n=d4 v=0
362936 Par ch=1 c=64 v=56
362951 Par ch=1 c=64 v=127
363121 On ch=1 n=a#4 v=40
363126 On ch=1 n=f5 v=47
363191 On ch=1 n=c7 v=0
363221 On ch=1 n=a#4 v=0
363241 On ch=1 n=f5 v=0
363291 On ch=1 n=a#6 v=73
363386 On ch=1 n=a#6 v=0
363471 On ch=1 n=a#4 v=39
363476 On ch=1 n=a6 v=66
363541 On ch=1 n=a#4 v=0
363581 On ch=1 n=a6 v=0
363646 On ch=1 n=g6 v=63
363686 On ch=1 n=g6 v=0
363831 Par ch=1 c=64 v=72
363846 Par ch=1 c=64 v=0
363871 On ch=1 n=c4 v=62
363926 Par ch=1 c=64 v=40
363936 On ch=1 n=c4 v=0
363941 Par ch=1 c=64 v=127
364191 On ch=1 n=d#5 v=43
364206 On ch=1 n=a4 v=45
364261 On ch=1 n=a4 v=0
364281 On ch=1 n=d#5 v=0
364356 On ch=1 n=a5 v=69
364451 On ch=1 n=a5 v=0
364496 On ch=1 n=d#6 v=81
364501 On ch=1 n=d#5 v=44
364541 On ch=1 n=d#5 v=0
364546 On ch=1 n=f4 v=45
364571 On ch=1 n=d#6 v=0
364576 On ch=1 n=f4 v=0
364786 On ch=1 n=b5 v=70
364856 Par ch=1 c=64 v=104
364866 On ch=1 n=b5 v=0
364871 Par ch=1 c=64 v=0
364881 On ch=1 n=a#3 v=58
364891 On ch=1 n=c6 v=84
364951 On ch=1 n=a#3 v=0
364981 Par ch=1 c=64 v=72
364996 Par ch=1 c=64 v=127
365191 On ch=1 n=d#5 v=44
365216 On ch=1 n=g4 v=49
365216 On ch=1 n=d#4 v=39
365251 On ch=1 n=g4 v=0
365281 On ch=1 n=c6 v=0
365296 On ch=1 n=d#5 v=0
365306 On ch=1 n=d#4 v=0
365356 On ch=1 n=d6 v=80
365476 On ch=1 n=d6 v=0
365496 On ch=1 n=d#5 v=40
365496 On ch=1 n=d#6 v=82
365511 On ch=1 n=d#4 v=46
365531 On ch=1 n=d#5 v=0
365556 On ch=1 n=d#4 v=0
365591 On ch=1 n=d#6 v=0
365626 On ch=1 n=e6 v=86
365781 Par ch=1 c=64 v=104
365796 On ch=1 n=f6 v=90
365796 Par ch=1 c=64 v=0
365801 On ch=1 n=a3 v=69
365826 On ch=1 n=e6 v=0
365866 On ch=1 n=a3 v=0
365876 Par ch=1 c=64 v=56
365891 Par ch=1 c=64 v=127
365921 On ch=1 n=f6 v=0
365951 On ch=1 n=f#6 v=84
366076 On ch=1 n=f#6 v=0
366101 On ch=1 n=d#5 v=52
366121 On ch=1 n=f4 v=55
366121 On ch=1 n=g6 v=80
366136 On ch=1 n=d#4 v=37
366196 On ch=1 n=f4 v=0
366201 On ch=1 n=d#5 v=0
366221 On ch=1 n=g6 v=0
366246 On ch=1 n=d#4 v=0
366266 On ch=1 n=f#6 v=80
366361 On ch=1 n=f#6 v=0
366431 On ch=1 n=d#5 v=40
366431 On ch=1 n=f6 v=82
366436 On ch=1 n=d#4 v=47
366471 On ch=1 n=d#5 v=0
366511 On ch=1 n=d#4 v=0
366531 On ch=1 n=f6 v=0
366586 On ch=1 n=d#6 v=80
366691 On ch=1 n=d#6 v=0
366771 Par ch=1 c=64 v=88
366776 On ch=1 n=c#6 v=73
366786 Par ch=1 c=64 v=0
366796 On ch=1 n=a#3 v=54
366891 On ch=1 n=a#3 v=0
366896 Par ch=1 c=64 v=72
366916 Par ch=1 c=64 v=127
367011 On ch=1 n=c#6 v=0
367141 On ch=1 n=d6 v=61
367156 On ch=1 n=d5 v=46
367166 On ch=1 n=d4 v=44
367166 On ch=1 n=f4 v=41
367186 Par ch=1 c=64 v=40
367201 Par ch=1 c=64 v=0
367266 Par ch=1 c=64 v=40
367271 On ch=1 n=d4 v=0
367281 Par ch=1 c=64 v=127
367296 On ch=1 n=d5 v=0
367296 On ch=1 n=d6 v=0
367301 On ch=1 n=f4 v=0
367501 On ch=1 n=d5 v=59
367511 On ch=1 n=f4 v=51
367521 On ch=1 n=d4 v=46
367571 On ch=1 n=d4 v=0
367576 On ch=1 n=d5 v=0
367596 On ch=1 n=f4 v=0
367881 On ch=1 n=f#3 v=84
367881 On ch=1 n=f#4 v=85
367886 Par ch=1 c=64 v=104
367906 Par ch=1 c=64 v=24
367921 Par ch=1 c=64 v=0
367951 On ch=1 n=f#3 v=0
367971 Par ch=1 c=64 v=72
367986 On ch=1 n=f#4 v=0
367986 Par ch=1 c=64 v=127
368231 On ch=1 n=d#5 v=59
368236 On ch=1 n=c5 v=60
368361 On ch=1 n=a6 v=88
368366 On ch=1 n=a5 v=74
368401 On ch=1 n=d#5 v=0
368406 On ch=1 n=c5 v=0
368411 On ch=1 n=a5 v=0
368446 On ch=1 n=a6 v=0
368546 On ch=1 n=d#7 v=91
368546 On ch=1 n=d#5 v=57
368546 On ch=1 n=d#6 v=93
368561 On ch=1 n=a4 v=59
368566 On ch=1 n=c5 v=41
368591 On ch=1 n=d#6 v=0
368591 On ch=1 n=d#5 v=0
368596 On ch=1 n=a4 v=0
368601 On ch=1 n=c5 v=0
368601 On ch=1 n=d#7 v=0
368851 On ch=1 n=b6 v=90
368851 On ch=1 n=b5 v=79
368881 On ch=1 n=b5 v=0
368881 On ch=1 n=b6 v=0
368956 On ch=1 n=c7 v=97
368956 On ch=1 n=c6 v=92
368956 Par ch=1 c=64 v=72
368961 On ch=1 n=f3 v=68
368976 On ch=1 n=f4 v=66
368976 Par ch=1 c=64 v=0
369006 On ch=1 n=f3 v=0
369036 Par ch=1 c=64 v=72
369041 On ch=1 n=f4 v=0
369056 Par ch=1 c=64 v=127
369166 On ch=1 n=c6 v=0
369276 On ch=1 n=d#5 v=60
369291 On ch=1 n=c5 v=59
369296 On ch=1 n=a4 v=54
369326 On ch=1 n=c7 v=0
369336 On ch=1 n=c5 v=0
369371 On ch=1 n=d#5 v=0
369381 On ch=1 n=a4 v=0
369421 On ch=1 n=d7 v=90
369426 On ch=1 n=d6 v=80
369466 On ch=1 n=d6 v=0
369476 On ch=1 n=d7 v=0
369561 On ch=1 n=d#5 v=56
369566 On ch=1 n=d#6 v=88
369566 On ch=1 n=d#7 v=87
369581 On ch=1 n=a4 v=55
369586 On ch=1 n=c5 v=41
369606 On ch=1 n=a4 v=0
369606 On ch=1 n=d#5 v=0
369621 On ch=1 n=c5 v=0
369621 On ch=1 n=d#6 v=0
369636 On ch=1 n=d#7 v=0
369711 On ch=1 n=e7 v=103
369716 On ch=1 n=e6 v=96
369761 On ch=1 n=e6 v=0
369781 On ch=1 n=e7 v=0
369866 On ch=1 n=f7 v=102
369866 On ch=1 n=f6 v=96
369871 Par ch=1 c=64 v=72
369876 On ch=1 n=d#3 v=61
369881 On ch=1 n=d#4 v=77
369886 Par ch=1 c=64 v=0
369931 On ch=1 n=d#3 v=0
369941 On ch=1 n=d#4 v=0
369951 Par ch=1 c=64 v=104
369966 Par ch=1 c=64 v=127
370151 On ch=1 n=f6 v=0
370156 On ch=1 n=f5 v=72
370161 On ch=1 n=c5 v=66
370166 On ch=1 n=a4 v=61
370191 On ch=1 n=f7 v=0
370236 On ch=1 n=c5 v=0
370241 On ch=1 n=a4 v=0
370246 On ch=1 n=f5 v=0
370296 On ch=1 n=g7 v=90
370301 On ch=1 n=g6 v=83
370356 On ch=1 n=g6 v=0
370366 On ch=1 n=g7 v=0
370416 On ch=1 n=f5 v=62
370416 On ch=1 n=c5 v=68
370431 On ch=1 n=a4 v=54
370441 On ch=1 n=f5 v=0
370441 On ch=1 n=g#7 v=92
370441 On ch=1 n=g#6 v=83
370456 On ch=1 n=c5 v=0
370471 On ch=1 n=a4 v=0
370501 On ch=1 n=g#6 v=0
370516 On ch=1 n=g#7 v=0
370591 On ch=1 n=a7 v=109
370591 On ch=1 n=a6 v=93
370641 On ch=1 n=a6 v=0
370676 On ch=1 n=a7 v=0
370811 On ch=1 n=d3 v=57
370816 On ch=1 n=c8 v=94
370821 On ch=1 n=c7 v=87
370826 Par ch=1 c=64 v=104
370836 On ch=1 n=d4 v=43
370841 Par ch=1 c=64 v=0
370886 On ch=1 n=d3 v=0
370921 Par ch=1 c=64 v=88
370926 On ch=1 n=d4 v=0
370936 Par ch=1 c=64 v=127
371151 On ch=1 n=c8 v=0
371166 On ch=1 n=c7 v=0
371176 On ch=1 n=a#4 v=40
371181 On ch=1 n=f5 v=44
371261 On ch=1 n=f5 v=0
371266 On ch=1 n=a#4 v=0
371346 On ch=1 n=a#7 v=90
371351 On ch=1 n=a#6 v=74
371436 On ch=1 n=a#6 v=0
371446 On ch=1 n=a#7 v=0
371506 On ch=1 n=a#4 v=50
371516 On ch=1 n=a7 v=86
371531 On ch=1 n=a6 v=70
371531 On ch=1 n=f4 v=47
371566 On ch=1 n=f4 v=0
371566 On ch=1 n=a#4 v=0
371591 On ch=1 n=a7 v=0
371596 On ch=1 n=a6 v=0
371691 On ch=1 n=g7 v=74
371691 On ch=1 n=g6 v=66
371756 On ch=1 n=g6 v=0
371766 On ch=1 n=g7 v=0
371896 On ch=1 n=f#7 v=90
371896 On ch=1 n=f#6 v=81
371906 On ch=1 n=d#3 v=58
371906 On ch=1 n=d#4 v=59
371931 Par ch=1 c=64 v=24
371946 Par ch=1 c=64 v=0
371971 On ch=1 n=d#3 v=0
371981 On ch=1 n=d#4 v=0
372011 Par ch=1 c=64 v=127
372171 On ch=1 n=f#6 v=0
372191 On ch=1 n=f#7 v=0
372211 On ch=1 n=d#4 v=40
372221 On ch=1 n=a#4 v=55
372231 On ch=1 n=f#5 v=46
372311 On ch=1 n=d#4 v=0
372326 On ch=1 n=a#4 v=0
372336 On ch=1 n=f#5 v=0
372371 On ch=1 n=f7 v=84
372376 On ch=1 n=f6 v=78
372441 On ch=1 n=f6 v=0
372456 On ch=1 n=f7 v=0
372516 On ch=1 n=a#4 v=56
372531 On ch=1 n=f#5 v=30
372536 On ch=1 n=d#4 v=57
372551 On ch=1 n=d#7 v=79
372561 On ch=1 n=f#5 v=0
372561 On ch=1 n=d#6 v=71
372586 On ch=1 n=a#4 v=0
372606 On ch=1 n=d#4 v=0
372621 On ch=1 n=d#6 v=0
372641 On ch=1 n=d#7 v=0
372716 On ch=1 n=c#7 v=85
372726 On ch=1 n=c#6 v=76
372821 On ch=1 n=c#6 v=0
372846 On ch=1 n=c3 v=61
372856 Par ch=1 c=64 v=24
372871 Par ch=1 c=64 v=0
372881 On ch=1 n=c#7 v=0
372911 On ch=1 n=c3 v=0
372966 On ch=1 n=c7 v=82
372966 On ch=1 n=e4 v=61
372966 Par ch=1 c=64 v=127
372981 On ch=1 n=c6 v=52
373021 On ch=1 n=e4 v=0
373191 On ch=1 n=c7 v=0
373236 On ch=1 n=c6 v=0
373286 On ch=1 n=c4 v=62
373356 On ch=1 n=c4 v=0
373466 On ch=1 n=a#6 v=65
373481 On ch=1 n=a#5 v=57
373551 On ch=1 n=a#5 v=0
373556 On ch=1 n=a#6 v=0
373651 On ch=1 n=e5 v=55
373651 On ch=1 n=a6 v=78
373666 On ch=1 n=a#4 v=34
373671 On ch=1 n=g4 v=38
373671 On ch=1 n=a5 v=61
373696 On ch=1 n=e5 v=0
373711 On ch=1 n=a#4 v=0
373721 On ch=1 n=a5 v=0
373726 On ch=1 n=g4 v=0
373736 On ch=1 n=a6 v=0
373841 On ch=1 n=g6 v=83
373851 On ch=1 n=g5 v=65
373901 On ch=1 n=g5 v=0
373911 On ch=1 n=g6 v=0
374066 On ch=1 n=f6 v=81
374071 Par ch=1 c=64 v=104
374076 On ch=1 n=f5 v=62
374086 Par ch=1 c=64 v=0
374101 On ch=1 n=f3 v=59
374136 On ch=1 n=f3 v=0
374196 Par ch=1 c=64 v=104
374216 Par ch=1 c=64 v=127
374336 On ch=1 n=f5 v=0
374446 On ch=1 n=f4 v=58
374636 On ch=1 n=g5 v=66
374741 On ch=1 n=g5 v=0
374896 On ch=1 n=f5 v=60
374911 On ch=1 n=d#5 v=43
374926 On ch=1 n=a4 v=44
374931 Par ch=1 c=64 v=24
374946 Par ch=1 c=64 v=0
375026 Par ch=1 c=64 v=104
375031 On ch=1 n=a4 v=0
375036 On ch=1 n=d#5 v=0
375046 Par ch=1 c=64 v=127
375071 On ch=1 n=f4 v=0
375141 On ch=1 n=d6 v=74
375476 On ch=1 n=a#5 v=65
375521 On ch=1 n=a#3 v=44
375541 Par ch=1 c=64 v=104
375556 Par ch=1 c=64 v=24
375571 Par ch=1 c=64 v=0
375666 Par ch=1 c=64 v=72
375686 Par ch=1 c=64 v=127
375696 On ch=1 n=a#3 v=0
376146 On ch=1 n=d5 v=30
376151 On ch=1 n=f4 v=33
376161 On ch=1 n=a#4 v=26
376161 Par ch=1 c=64 v=72
376181 Par ch=1 c=64 v=0
376241 Par ch=1 c=64 v=72
376256 Par ch=1 c=64 v=127
376351 Par ch=1 c=64 v=104
376371 Par ch=1 c=64 v=40
376421 Par ch=1 c=64 v=127
376501 On ch=1 n=f4 v=0
376506 On ch=1 n=f6 v=0
376511 On ch=1 n=d5 v=0
376511 On ch=1 n=f5 v=0
376526 On ch=1 n=d6 v=0
376531 On ch=1 n=a#4 v=0
376541 On ch=1 n=a#5 v=0
377326 Par ch=1 c=64 v=104
377346 Par ch=1 c=64 v=72
377361 Par ch=1 c=64 v=40
377376 Par ch=1 c=64 v=0
378721 On ch=1 n=a#5 v=56
378756 On ch=1 n=d#5 v=35
378781 On ch=1 n=g4 v=38
379141 On ch=1 n=a#5 v=0
379176 On ch=1 n=c6 v=60
379431 On ch=1 n=c6 v=0
379466 On ch=1 n=a#5 v=64
379741 On ch=1 n=a#5 v=0
379761 On ch=1 n=a5 v=64
380041 On ch=1 n=a#5 v=73
380051 On ch=1 n=a5 v=0
380396 On ch=1 n=a#5 v=0
380411 On ch=1 n=d#6 v=67
380771 On ch=1 n=g4 v=0
380771 On ch=1 n=b5 v=63
380776 On ch=1 n=d#6 v=0
380946 On ch=1 n=d#5 v=0
381146 On ch=1 n=b5 v=0
381226 On ch=1 n=c6 v=67
381266 On ch=1 n=g#4 v=38
381266 On ch=1 n=d#5 v=40
381361 Par ch=1 c=64 v=72
381381 Par ch=1 c=64 v=0
381516 Par ch=1 c=64 v=24
381536 Par ch=1 c=64 v=104
381556 On ch=1 n=c6 v=0
381556 Par ch=1 c=64 v=127
381586 On ch=1 n=d6 v=74
381806 On ch=1 n=d6 v=0
381831 On ch=1 n=c6 v=74
382076 On ch=1 n=c6 v=0
382101 On ch=1 n=b5 v=68
382255 On ch=1 n=a4 v=48
382321 On ch=1 n=b5 v=0
382371 On ch=1 n=c6 v=70
382531 On ch=1 n=g#4 v=0
382791 On ch=1 n=g6 v=74
382791 Par ch=1 c=64 v=72
382811 On ch=1 n=c6 v=0
382811 Par ch=1 c=64 v=0
383026 Par ch=1 c=64 v=72
383046 Par ch=1 c=64 v=127
383206 On ch=1 n=g6 v=0
383246 On ch=1 n=f6 v=64
383275 On ch=1 n=a4 v=0
383361 On ch=1 n=f6 v=0
383731 On ch=1 n=g#5 v=60
383801 On ch=1 n=a#4 v=47
383841 Par ch=1 c=64 v=104
383856 Par ch=1 c=64 v=40
383876 Par ch=1 c=64 v=0
384031 Par ch=1 c=64 v=40
384051 Par ch=1 c=64 v=104
384071 Par ch=1 c=64 v=127
384141 On ch=1 n=g#5 v=0
384161 On ch=1 n=a#5 v=62
384336 On ch=1 n=a#5 v=0
384446 On ch=1 n=g#5 v=57
384691 On ch=1 n=g#5 v=0
384731 On ch=1 n=g5 v=57
384961 On ch=1 n=d5 v=50
385031 On ch=1 n=d#5 v=0
385071 On ch=1 n=g5 v=0
385086 On ch=1 n=g#5 v=64
385196 Par ch=1 c=64 v=104
385216 Par ch=1 c=64 v=24
385231 Par ch=1 c=64 v=0
385311 Par ch=1 c=64 v=56
385331 Par ch=1 c=64 v=127
385451 On ch=1 n=g#5 v=0
385471 On ch=1 n=c6 v=67
385846 On ch=1 n=c6 v=0
385861 On ch=1 n=a#5 v=64
386231 On ch=1 n=d5 v=0
386261 On ch=1 n=a#5 v=0
386281 On ch=1 n=g#5 v=57
386326 On ch=1 n=d#5 v=45
386416 Par ch=1 c=64 v=88
386431 Par ch=1 c=64 v=40
386451 Par ch=1 c=64 v=0
386606 Par ch=1 c=64 v=56
386626 Par ch=1 c=64 v=104
386646 Par ch=1 c=64 v=127
386931 On ch=1 n=g#5 v=0
386931 On ch=1 n=g5 v=56
387016 Par ch=1 c=64 v=56
387031 Par ch=1 c=64 v=0
387131 Par ch=1 c=64 v=24
387151 Par ch=1 c=64 v=72
387171 Par ch=1 c=64 v=127
387551 On ch=1 n=g5 v=0
387576 On ch=1 n=f5 v=48
387576 Par ch=1 c=64 v=72
387596 Par ch=1 c=64 v=24
387611 Par ch=1 c=64 v=0
387711 Par ch=1 c=64 v=24
387731 Par ch=1 c=64 v=72
387751 Par ch=1 c=64 v=127
387906 On ch=1 n=d#5 v=0
388291 On ch=1 n=f5 v=0
388311 On ch=1 n=d#5 v=39
388406 Par ch=1 c=64 v=88
388426 Par ch=1 c=64 v=40
388446 Par ch=1 c=64 v=0
388561 Par ch=1 c=64 v=56
388581 Par ch=1 c=64 v=104
388601 Par ch=1 c=64 v=127
388656 On ch=1 n=d#5 v=0
388696 On ch=1 n=a#4 v=0
389136 On ch=1 n=a#5 v=58
389156 On ch=1 n=d#5 v=33
389186 On ch=1 n=g4 v=34
389241 Par ch=1 c=64 v=88
389256 Par ch=1 c=64 v=24
389276 Par ch=1 c=64 v=0
389376 Par ch=1 c=64 v=24
389396 Par ch=1 c=64 v=88
389416 Par ch=1 c=64 v=127
389471 On ch=1 n=a#5 v=0
389501 On ch=1 n=c6 v=71
389731 On ch=1 n=c6 v=0
389746 On ch=1 n=a#5 v=68
389981 On ch=1 n=a#5 v=0
390001 On ch=1 n=a5 v=64
390281 On ch=1 n=a#5 v=67
390326 On ch=1 n=a5 v=0
390541 On ch=1 n=a#5 v=0
390551 On ch=1 n=d#6 v=64
390751 On ch=1 n=f5 v=70
390756 On ch=1 n=d#5 v=0
390781 On ch=1 n=g4 v=0
390931 On ch=1 n=b5 v=53
390936 On ch=1 n=d#6 v=0
391186 On ch=1 n=b5 v=0
391376 On ch=1 n=g#4 v=47
391376 On ch=1 n=c6 v=63
391601 Par ch=1 c=64 v=88
391621 Par ch=1 c=64 v=40
391641 Par ch=1 c=64 v=0
391716 On ch=1 n=c6 v=0
391731 On ch=1 n=d6 v=66
391776 Par ch=1 c=64 v=40
391796 Par ch=1 c=64 v=104
391816 Par ch=1 c=64 v=127
391976 On ch=1 n=d6 v=0
392011 On ch=1 n=c6 v=73
392216 On ch=1 n=g#4 v=0
392261 On ch=1 n=c6 v=0
392326 On ch=1 n=b5 v=57
392485 On ch=1 n=a4 v=48
392485 On ch=1 n=d#5 v=60
392556 On ch=1 n=b5 v=0
392616 On ch=1 n=f5 v=0
392641 On ch=1 n=c6 v=54
392766 Par ch=1 c=64 v=104
392781 Par ch=1 c=64 v=40
392801 Par ch=1 c=64 v=0
392936 Par ch=1 c=64 v=104
392956 Par ch=1 c=64 v=127
392966 On ch=1 n=g6 v=66
393005 On ch=1 n=a4 v=0
393266 On ch=1 n=g6 v=0
393306 On ch=1 n=c6 v=0
393311 On ch=1 n=f6 v=71
393411 On ch=1 n=f6 v=0
393731 On ch=1 n=g#5 v=61
393736 On ch=1 n=a#4 v=42
393886 Par ch=1 c=64 v=104
393906 Par ch=1 c=64 v=40
393926 Par ch=1 c=64 v=0
394061 Par ch=1 c=64 v=72
394081 Par ch=1 c=64 v=127
394130 On ch=1 n=a#5 v=57
394146 On ch=1 n=g#5 v=0
394385 On ch=1 n=a#5 v=0
394441 On ch=1 n=g#5 v=60
394691 On ch=1 n=g#5 v=0
394701 On ch=1 n=g5 v=61
394850 On ch=1 n=d#5 v=0
394921 On ch=1 n=d5 v=59
395041 On ch=1 n=g5 v=0
395051 On ch=1 n=g#5 v=58
395126 Par ch=1 c=64 v=72
395146 Par ch=1 c=64 v=0
395281 Par ch=1 c=64 v=88
395301 Par ch=1 c=64 v=127
395401 On ch=1 n=g#5 v=0
395446 On ch=1 n=c6 v=56
395836 On ch=1 n=c6 v=0
395846 On ch=1 n=a#5 v=60
396331 On ch=1 n=a#5 v=0
396356 On ch=1 n=g#5 v=55
396376 On ch=1 n=d#5 v=56
396381 On ch=1 n=d5 v=0
396541 Par ch=1 c=64 v=88
396561 Par ch=1 c=64 v=0
396731 Par ch=1 c=64 v=72
396751 Par ch=1 c=64 v=127
396981 On ch=1 n=g#5 v=0
396981 On ch=1 n=g5 v=52
397041 Par ch=1 c=64 v=72
397061 Par ch=1 c=64 v=0
397156 Par ch=1 c=64 v=72
397176 Par ch=1 c=64 v=127
397571 On ch=1 n=g5 v=0
397596 On ch=1 n=f5 v=39
397681 Par ch=1 c=64 v=56
397701 Par ch=1 c=64 v=0
397721 On ch=1 n=d#5 v=0
397756 Par ch=1 c=64 v=24
397776 Par ch=1 c=64 v=88
397796 Par ch=1 c=64 v=127
398251 On ch=1 n=f5 v=0
398261 On ch=1 n=d#5 v=44
398376 Par ch=1 c=64 v=56
398396 Par ch=1 c=64 v=0
398496 Par ch=1 c=64 v=24
398516 Par ch=1 c=64 v=88
398531 Par ch=1 c=64 v=127
398571 On ch=1 n=d#5 v=0
398571 On ch=1 n=a#4 v=0
399251 On ch=1 n=a#5 v=52
399276 On ch=1 n=f5 v=34
399281 On ch=1 n=d5 v=40
399366 Par ch=1 c=64 v=88
399381 Par ch=1 c=64 v=40
399401 Par ch=1 c=64 v=0
399501 Par ch=1 c=64 v=40
399521 Par ch=1 c=64 v=104
399541 Par ch=1 c=64 v=127
399586 On ch=1 n=a#5 v=0
399626 On ch=1 n=c6 v=60
399856 On ch=1 n=c6 v=0
399876 On ch=1 n=a#5 v=63
400126 On ch=1 n=a5 v=70
400146 On ch=1 n=a#5 v=0
400336 On ch=1 n=a#5 v=83
400366 On ch=1 n=a5 v=0
400681 On ch=1 n=a#5 v=0
400701 On ch=1 n=g6 v=76
400706 On ch=1 n=d5 v=0
400756 On ch=1 n=c#5 v=42
400856 Par ch=1 c=64 v=104
400876 Par ch=1 c=64 v=40
400896 Par ch=1 c=64 v=0
401011 Par ch=1 c=64 v=40
401031 Par ch=1 c=64 v=104
401051 Par ch=1 c=64 v=127
401176 On ch=1 n=g6 v=0
401201 On ch=1 n=f6 v=78
401611 On ch=1 n=f6 v=0
401631 On ch=1 n=a#5 v=71
401856 On ch=1 n=f5 v=0
401871 On ch=1 n=a#5 v=0
401941 On ch=1 n=c#5 v=0
402181 On ch=1 n=a5 v=61
402201 On ch=1 n=f5 v=43
402216 On ch=1 n=c5 v=42
402326 Par ch=1 c=64 v=104
402346 Par ch=1 c=64 v=40
402366 Par ch=1 c=64 v=0
402465 On ch=1 n=a#5 v=64
402481 Par ch=1 c=64 v=56
402501 Par ch=1 c=64 v=127
402516 On ch=1 n=a5 v=0
402660 On ch=1 n=a#5 v=0
402721 On ch=1 n=a5 v=81
402926 On ch=1 n=a5 v=0
403001 On ch=1 n=g#5 v=68
403171 On ch=1 n=g#5 v=0
403201 On ch=1 n=a5 v=89
403456 On ch=1 n=c5 v=0
403486 On ch=1 n=a5 v=0
403501 On ch=1 n=b4 v=40
403616 On ch=1 n=g6 v=73
403661 Par ch=1 c=64 v=104
403686 Par ch=1 c=64 v=40
403701 Par ch=1 c=64 v=0
403876 Par ch=1 c=64 v=127
404041 On ch=1 n=g6 v=0
404086 On ch=1 n=f6 v=70
404471 On ch=1 n=f6 v=0
404476 On ch=1 n=g#5 v=61
404616 On ch=1 n=g#5 v=0
404646 On ch=1 n=b4 v=0
404991 On ch=1 n=c5 v=49
405001 On ch=1 n=g5 v=49
405056 Par ch=1 c=64 v=104
405076 Par ch=1 c=64 v=24
405096 Par ch=1 c=64 v=0
405211 Par ch=1 c=64 v=88
405231 Par ch=1 c=64 v=127
405307 On ch=1 n=g#5 v=65
405391 On ch=1 n=g5 v=0
405527 On ch=1 n=g#5 v=0
405606 On ch=1 n=g5 v=72
405811 On ch=1 n=g5 v=0
405826 On ch=1 n=f#5 v=57
406031 On ch=1 n=f5 v=0
406056 On ch=1 n=d#5 v=65
406121 On ch=1 n=f#5 v=0
406161 On ch=1 n=g5 v=59
406286 On ch=1 n=c5 v=0
406551 On ch=1 n=f6 v=75
406646 Par ch=1 c=64 v=88
406666 Par ch=1 c=64 v=56
406686 Par ch=1 c=64 v=24
406701 Par ch=1 c=64 v=40
406721 Par ch=1 c=64 v=72
406741 Par ch=1 c=64 v=127
406821 On ch=1 n=g5 v=0
406926 On ch=1 n=d#5 v=0
406931 On ch=1 n=d#6 v=61
406946 On ch=1 n=f6 v=0
407035 On ch=1 n=c#5 v=43
407035 On ch=1 n=a#4 v=40
407071 Par ch=1 c=64 v=72
407091 Par ch=1 c=64 v=0
407206 Par ch=1 c=64 v=72
407226 Par ch=1 c=64 v=127
407361 On ch=1 n=d#6 v=0
407371 On ch=1 n=f#5 v=63
407521 On ch=1 n=f#5 v=0
407575 On ch=1 n=a#4 v=0
407655 On ch=1 n=c#5 v=0
407926 On ch=1 n=f5 v=63
407946 On ch=1 n=c5 v=52
407951 On ch=1 n=a4 v=44
408041 Par ch=1 c=64 v=104
408061 Par ch=1 c=64 v=24
408076 Par ch=1 c=64 v=0
408191 Par ch=1 c=64 v=40
408211 On ch=1 n=f5 v=0
408211 Par ch=1 c=64 v=104
408231 Par ch=1 c=64 v=127
408256 On ch=1 n=g5 v=69
408436 On ch=1 n=g5 v=0
408491 On ch=1 n=f5 v=70
408676 On ch=1 n=c5 v=0
408696 On ch=1 n=f5 v=0
408756 On ch=1 n=e5 v=69
408921 On ch=1 n=e5 v=0
408946 On ch=1 n=c#5 v=61
409086 On ch=1 n=f5 v=68
409176 On ch=1 n=f5 v=0
409276 On ch=1 n=f5 v=64
409301 On ch=1 n=c#5 v=0
409441 On ch=1 n=a4 v=0
409616 On ch=1 n=d5 v=57
409621 On ch=1 n=g#4 v=39
409691 On ch=1 n=f5 v=0
409781 On ch=1 n=c6 v=66
409801 Par ch=1 c=64 v=56
409816 Par ch=1 c=64 v=0
410016 Par ch=1 c=64 v=72
410031 Par ch=1 c=64 v=127
410541 On ch=1 n=c6 v=0
410581 On ch=1 n=a#5 v=48
410651 Par ch=1 c=64 v=72
410671 Par ch=1 c=64 v=0
410886 Par ch=1 c=64 v=56
410906 Par ch=1 c=64 v=104
410926 Par ch=1 c=64 v=127
411006 On ch=1 n=a#5 v=0
411011 On ch=1 n=d5 v=0
411061 On ch=1 n=g#4 v=0
411546 On ch=1 n=d#5 v=42
411556 On ch=1 n=a#5 v=57
411591 On ch=1 n=g4 v=40
411621 Par ch=1 c=64 v=88
411641 Par ch=1 c=64 v=40
411656 Par ch=1 c=64 v=0
411771 Par ch=1 c=64 v=88
411791 Par ch=1 c=64 v=127
411871 On ch=1 n=a#5 v=0
411921 On ch=1 n=c6 v=62
412156 On ch=1 n=c6 v=0
412171 On ch=1 n=a#5 v=65
412421 On ch=1 n=a#5 v=0
412451 On ch=1 n=a5 v=64
412736 On ch=1 n=a5 v=0
412741 On ch=1 n=a#5 v=69
413016 On ch=1 n=a#5 v=0
413041 On ch=1 n=d#6 v=65
413271 On ch=1 n=f5 v=66
413331 On ch=1 n=d#5 v=0
413361 On ch=1 n=g4 v=0
413401 On ch=1 n=b5 v=68
413411 On ch=1 n=d#6 v=0
413776 On ch=1 n=b5 v=0
413821 On ch=1 n=c6 v=66
413826 On ch=1 n=g#4 v=44
413961 Par ch=1 c=64 v=104
413981 Par ch=1 c=64 v=40
414001 Par ch=1 c=64 v=0
414116 Par ch=1 c=64 v=40
414136 Par ch=1 c=64 v=127
414141 On ch=1 n=c6 v=0
414147 On ch=1 n=d6 v=75
414362 On ch=1 n=d6 v=0
414426 On ch=1 n=c6 v=74
414551 On ch=1 n=g#4 v=0
414671 On ch=1 n=c6 v=0
414696 On ch=1 n=b5 v=68
414916 On ch=1 n=b5 v=0
414936 On ch=1 n=d#5 v=61
414986 On ch=1 n=a4 v=40
415021 On ch=1 n=f5 v=0
415041 On ch=1 n=c6 v=66
415046 Par ch=1 c=64 v=72
415066 Par ch=1 c=64 v=0
415166 Par ch=1 c=64 v=40
415186 Par ch=1 c=64 v=127
415336 On ch=1 n=g6 v=72
415626 On ch=1 n=d5 v=72
415641 On ch=1 n=d#5 v=0
415676 On ch=1 n=g6 v=0
415686 On ch=1 n=a4 v=0
415726 On ch=1 n=c6 v=0
415761 On ch=1 n=f6 v=68
415851 On ch=1 n=f6 v=0
416036 On ch=1 n=d5 v=0
416181 On ch=1 n=c5 v=66
416191 On ch=1 n=a#4 v=43
416221 On ch=1 n=g#5 v=46
416346 Par ch=1 c=64 v=72
416366 Par ch=1 c=64 v=0
416536 Par ch=1 c=64 v=72
416556 Par ch=1 c=64 v=127
416566 On ch=1 n=a#5 v=55
416571 On ch=1 n=g#5 v=0
416816 On ch=1 n=a#5 v=0
416861 On ch=1 n=g#5 v=54
417131 On ch=1 n=g#5 v=0
417146 On ch=1 n=g5 v=56
417361 On ch=1 n=c5 v=0
417361 On ch=1 n=d5 v=56
417486 On ch=1 n=g5 v=0
417501 On ch=1 n=g#5 v=57
417606 Par ch=1 c=64 v=88
417621 Par ch=1 c=64 v=24
417641 Par ch=1 c=64 v=0
417756 Par ch=1 c=64 v=40
417776 Par ch=1 c=64 v=88
417796 Par ch=1 c=64 v=127
417896 On ch=1 n=g#5 v=0
417911 On ch=1 n=c6 v=64
417951 Par ch=1 c=64 v=88
417971 Par ch=1 c=64 v=0
418086 Par ch=1 c=64 v=72
418106 Par ch=1 c=64 v=127
418296 On ch=1 n=c6 v=0
418326 On ch=1 n=a#5 v=60
418376 Par ch=1 c=64 v=72
418396 Par ch=1 c=64 v=24
418416 Par ch=1 c=64 v=0
418436 Par ch=1 c=64 v=24
418451 Par ch=1 c=64 v=56
418476 Par ch=1 c=64 v=104
418496 Par ch=1 c=64 v=127
418736 On ch=1 n=a#5 v=0
418766 On ch=1 n=d5 v=0
418766 On ch=1 n=g#5 v=46
418796 On ch=1 n=d#5 v=47
418881 Par ch=1 c=64 v=72
418901 Par ch=1 c=64 v=0
419036 Par ch=1 c=64 v=56
419056 Par ch=1 c=64 v=127
419396 On ch=1 n=g#5 v=0
419396 On ch=1 n=g5 v=44
419461 Par ch=1 c=64 v=104
419481 Par ch=1 c=64 v=56
419501 Par ch=1 c=64 v=0
419576 Par ch=1 c=64 v=40
419596 Par ch=1 c=64 v=104
419616 Par ch=1 c=64 v=127
419756 On ch=1 n=d#5 v=0
420011 On ch=1 n=g5 v=0
420026 On ch=1 n=f5 v=46
420176 Par ch=1 c=64 v=72
420196 Par ch=1 c=64 v=40
420256 Par ch=1 c=64 v=88
420276 Par ch=1 c=64 v=127
420456 On ch=1 n=a#4 v=0
420726 On ch=1 n=f5 v=0
420746 On ch=1 n=d#5 v=43
420896 Par ch=1 c=64 v=40
420916 Par ch=1 c=64 v=0
420991 Par ch=1 c=64 v=72
421011 Par ch=1 c=64 v=127
421066 On ch=1 n=d#5 v=0
421416 Par ch=1 c=64 v=56
421436 Par ch=1 c=64 v=0
421446 On ch=1 n=d4 v=36
421496 Par ch=1 c=64 v=127
421586 On ch=1 n=d4 v=0
421616 On ch=1 n=a#4 v=39
421836 On ch=1 n=a#4 v=0
421931 On ch=1 n=f5 v=41
421976 On ch=1 n=a#6 v=70
421976 On ch=1 n=f6 v=71
422001 On ch=1 n=f5 v=0
422006 On ch=1 n=a#5 v=47
422076 On ch=1 n=a#5 v=0
422306 On ch=1 n=f6 v=0
422371 On ch=1 n=a#6 v=0
422395 On ch=1 n=c7 v=80
422395 On ch=1 n=c6 v=65
422490 On ch=1 n=c6 v=0
422550 On ch=1 n=c7 v=0
422700 On ch=1 n=a#5 v=62
422700 On ch=1 n=a#6 v=76
422795 On ch=1 n=a#5 v=0
422850 On ch=1 n=a#6 v=0
422936 On ch=1 n=a6 v=85
422946 On ch=1 n=a5 v=65
422991 On ch=1 n=a5 v=0
423041 On ch=1 n=a6 v=0
423141 On ch=1 n=a#6 v=87
423151 On ch=1 n=a#5 v=73
423161 Par ch=1 c=64 v=40
423176 Par ch=1 c=64 v=0
423231 On ch=1 n=a#5 v=0
423256 Par ch=1 c=64 v=88
423276 Par ch=1 c=64 v=127
423281 On ch=1 n=a#6 v=0
423366 On ch=1 n=c#4 v=54
423456 On ch=1 n=a#4 v=53
423501 On ch=1 n=c#4 v=0
423586 On ch=1 n=a#4 v=0
423656 On ch=1 n=g7 v=89
423666 On ch=1 n=f5 v=52
423676 On ch=1 n=g6 v=58
423681 On ch=1 n=a#6 v=55
423746 On ch=1 n=f5 v=0
423916 On ch=1 n=g6 v=0
423921 On ch=1 n=g7 v=0
424171 On ch=1 n=f7 v=78
424181 On ch=1 n=f6 v=64
424236 On ch=1 n=a#6 v=0
424256 On ch=1 n=f7 v=0
424276 On ch=1 n=f6 v=0
424691 On ch=1 n=a#6 v=74
424701 On ch=1 n=a#5 v=59
424826 Par ch=1 c=64 v=56
424846 Par ch=1 c=64 v=0
424861 On ch=1 n=c4 v=56
424921 Par ch=1 c=64 v=56
424931 On ch=1 n=c4 v=0
424931 On ch=1 n=f4 v=34
424941 Par ch=1 c=64 v=127
425011 On ch=1 n=a4 v=48
425026 On ch=1 n=f4 v=0
425026 On ch=1 n=a#5 v=0
425036 On ch=1 n=a#6 v=0
425081 On ch=1 n=a4 v=0
425111 On ch=1 n=c5 v=47
425166 On ch=1 n=c5 v=0
425311 On ch=1 n=f5 v=35
425321 On ch=1 n=a6 v=74
425336 On ch=1 n=a5 v=55
425371 On ch=1 n=f6 v=42
425386 On ch=1 n=f5 v=0
425491 On ch=1 n=a5 v=0
425581 On ch=1 n=a6 v=0
425596 On ch=1 n=f6 v=0
425736 On ch=1 n=a#5 v=52
425736 On ch=1 n=a#6 v=78
425856 On ch=1 n=a#5 v=0
425881 On ch=1 n=a#6 v=0
426047 On ch=1 n=a5 v=72
426047 On ch=1 n=a6 v=84
426122 On ch=1 n=a5 v=0
426172 On ch=1 n=a6 v=0
426286 On ch=1 n=g#6 v=83
426301 On ch=1 n=g#5 v=62
426396 On ch=1 n=g#5 v=0
426451 On ch=1 n=g#6 v=0
426501 On ch=1 n=a6 v=88
426501 On ch=1 n=a5 v=79
426511 Par ch=1 c=64 v=40
426531 Par ch=1 c=64 v=0
426561 On ch=1 n=b3 v=62
426571 On ch=1 n=a5 v=0
426586 Par ch=1 c=64 v=56
426606 Par ch=1 c=64 v=127
426616 On ch=1 n=b3 v=0
426616 On ch=1 n=a6 v=0
426651 On ch=1 n=f4 v=55
426771 On ch=1 n=f4 v=0
426816 On ch=1 n=d5 v=59
426861 On ch=1 n=d5 v=0
426976 On ch=1 n=g7 v=93
426991 On ch=1 n=g6 v=65
427006 On ch=1 n=d7 v=49
427061 On ch=1 n=d7 v=0
427146 On ch=1 n=d7 v=15
427231 On ch=1 n=g6 v=0
427236 On ch=1 n=g7 v=0
427426 On ch=1 n=d7 v=0
427446 On ch=1 n=f7 v=87
427461 On ch=1 n=f6 v=74
427531 On ch=1 n=f7 v=0
427541 On ch=1 n=f6 v=0
427966 On ch=1 n=g#6 v=72
427981 On ch=1 n=g#5 v=56
428196 Par ch=1 c=64 v=40
428216 Par ch=1 c=64 v=0
428236 On ch=1 n=c4 v=61
428271 Par ch=1 c=64 v=72
428281 On ch=1 n=c4 v=0
428291 Par ch=1 c=64 v=127
428346 On ch=1 n=d#4 v=44
428371 On ch=1 n=g#5 v=0
428371 On ch=1 n=g#6 v=0
428576 On ch=1 n=g6 v=82
428581 On ch=1 n=d#5 v=37
428591 On ch=1 n=g5 v=62
428626 On ch=1 n=d#6 v=43
428691 On ch=1 n=g5 v=0
428746 On ch=1 n=g6 v=0
428826 On ch=1 n=d#6 v=0
428931 On ch=1 n=g#6 v=82
428936 On ch=1 n=g#5 v=61
429036 On ch=1 n=g#5 v=0
429056 On ch=1 n=d#5 v=0
429071 On ch=1 n=g#6 v=0
429091 On ch=1 n=d#4 v=0
429196 On ch=1 n=g6 v=86
429201 On ch=1 n=g5 v=70
429276 On ch=1 n=g5 v=0
429306 On ch=1 n=g6 v=0
429466 On ch=1 n=f#6 v=77
429486 On ch=1 n=f#5 v=57
429566 On ch=1 n=f#5 v=0
429626 On ch=1 n=f#6 v=0
429696 On ch=1 n=g6 v=93
429701 On ch=1 n=g5 v=74
429706 Par ch=1 c=64 v=104
429726 Par ch=1 c=64 v=40
429741 Par ch=1 c=64 v=0
429771 On ch=1 n=g5 v=0
429801 Par ch=1 c=64 v=72
429821 On ch=1 n=g6 v=0
429821 Par ch=1 c=64 v=127
429871 On ch=1 n=a#3 v=44
430046 On ch=1 n=a#3 v=0
430076 On ch=1 n=d#4 v=35
430156 On ch=1 n=f7 v=89
430166 On ch=1 n=f6 v=74
430181 On ch=1 n=a#6 v=56
430356 On ch=1 n=f6 v=0
430451 On ch=1 n=f7 v=0
430576 On ch=1 n=a#6 v=0
430631 On ch=1 n=d#7 v=79
430661 On ch=1 n=d#6 v=67
430751 On ch=1 n=d#7 v=0
430756 On ch=1 n=d#6 v=0
430911 On ch=1 n=c#5 v=58
431096 On ch=1 n=c#5 v=0
431126 On ch=1 n=f#6 v=77
431126 On ch=1 n=f#5 v=65
431236 On ch=1 n=d#4 v=0
431386 On ch=1 n=f#5 v=0
431401 On ch=1 n=f#6 v=0
431506 On ch=1 n=a3 v=46
431601 Par ch=1 c=64 v=72
431621 Par ch=1 c=64 v=0
431626 On ch=1 n=a3 v=0
431656 On ch=1 n=f6 v=74
431661 On ch=1 n=f5 v=51
431681 On ch=1 n=d#4 v=44
431686 On ch=1 n=c6 v=59
431701 Par ch=1 c=64 v=40
431721 Par ch=1 c=64 v=127
431821 On ch=1 n=f5 v=0
431831 On ch=1 n=c5 v=45
431841 On ch=1 n=d#4 v=0
431856 On ch=1 n=f6 v=0
431926 On ch=1 n=c5 v=0
432018 On ch=1 n=g6 v=77
432018 On ch=1 n=g5 v=62
432036 On ch=1 n=c6 v=0
432113 On ch=1 n=g5 v=0
432133 On ch=1 n=g6 v=0
432346 On ch=1 n=f6 v=82
432356 On ch=1 n=f5 v=64
432436 On ch=1 n=f5 v=0
432436 On ch=1 n=f6 v=0
432581 On ch=1 n=e6 v=80
432586 On ch=1 n=e5 v=62
432631 On ch=1 n=e5 v=0
432661 On ch=1 n=e6 v=0
432821 On ch=1 n=f6 v=78
432826 On ch=1 n=f5 v=63
432841 Par ch=1 c=64 v=104
432861 Par ch=1 c=64 v=0
432911 On ch=1 n=f5 v=0
432941 Par ch=1 c=64 v=56
432946 On ch=1 n=g#3 v=48
432956 Par ch=1 c=64 v=127
432966 On ch=1 n=f6 v=0
433066 On ch=1 n=g#3 v=0
433106 On ch=1 n=d4 v=39
433256 On ch=1 n=d4 v=0
433401 On ch=1 n=c7 v=78
433431 On ch=1 n=c6 v=41
433436 On ch=1 n=f6 v=43
433441 On ch=1 n=d6 v=33
433681 On ch=1 n=a#4 v=33
433716 On ch=1 n=d6 v=0
433726 On ch=1 n=c6 v=0
433871 On ch=1 n=c7 v=0
433921 On ch=1 n=a#4 v=0
434066 On ch=1 n=f6 v=0
434221 On ch=1 n=a#6 v=61
434231 On ch=1 n=a#5 v=45
434606 Par ch=1 c=64 v=56
434621 Par ch=1 c=64 v=0
434691 On ch=1 n=g3 v=55
434721 Par ch=1 c=64 v=104
434741 Par ch=1 c=64 v=127
434801 On ch=1 n=g3 v=0
434836 On ch=1 n=a#6 v=0
434871 On ch=1 n=a#5 v=0
434881 On ch=1 n=d#4 v=52
435001 On ch=1 n=d#4 v=0
435036 On ch=1 n=a#4 v=23
435141 On ch=1 n=a#4 v=0
435251 On ch=1 n=a#6 v=62
435251 On ch=1 n=a#5 v=47
435281 On ch=1 n=d#6 v=49
435286 On ch=1 n=d#5 v=51
435336 On ch=1 n=d#6 v=0
435376 On ch=1 n=a#5 v=0
435381 On ch=1 n=d#5 v=0
435646 On ch=1 n=a#6 v=0
435672 On ch=1 n=c6 v=66
435672 On ch=1 n=c7 v=82
435772 On ch=1 n=c6 v=0
435842 On ch=1 n=c7 v=0
436031 On ch=1 n=a#6 v=77
436041 On ch=1 n=a#5 v=71
436116 On ch=1 n=a#5 v=0
436176 On ch=1 n=a#6 v=0
436266 On ch=1 n=a6 v=84
436276 On ch=1 n=a5 v=64
436316 On ch=1 n=a5 v=0
436376 On ch=1 n=a6 v=0
436481 Par ch=1 c=64 v=56
436491 On ch=1 n=a#6 v=86
436491 On ch=1 n=a#5 v=76
436501 Par ch=1 c=64 v=0
436551 On ch=1 n=g3 v=41
436566 On ch=1 n=a#5 v=0
436576 Par ch=1 c=64 v=104
436596 On ch=1 n=g3 v=0
436596 Par ch=1 c=64 v=127
436626 On ch=1 n=a#6 v=0
436626 On ch=1 n=d#4 v=60
436726 On ch=1 n=d#4 v=0
436806 On ch=1 n=b4 v=62
436921 On ch=1 n=b4 v=0
437021 On ch=1 n=d#5 v=46
437026 On ch=1 n=d#7 v=85
437056 On ch=1 n=d#6 v=53
437061 On ch=1 n=b6 v=60
437111 On ch=1 n=b6 v=0
437136 On ch=1 n=d#5 v=0
437181 On ch=1 n=d#7 v=0
437201 On ch=1 n=d#6 v=0
437506 On ch=1 n=b6 v=82
437521 On ch=1 n=b5 v=59
437641 Par ch=1 c=64 v=40
437661 Par ch=1 c=64 v=0
437681 On ch=1 n=g#3 v=55
437711 On ch=1 n=b5 v=0
437721 Par ch=1 c=64 v=56
437741 Par ch=1 c=64 v=127
437746 On ch=1 n=g#3 v=0
437761 On ch=1 n=b6 v=0
437766 On ch=1 n=d#4 v=61
437886 On ch=1 n=d#4 v=0
437941 On ch=1 n=c5 v=51
437991 On ch=1 n=c7 v=84
438011 On ch=1 n=g6 v=58
438016 On ch=1 n=c6 v=55
438056 On ch=1 n=d#5 v=68
438061 On ch=1 n=c5 v=0
438111 On ch=1 n=c6 v=0
438136 On ch=1 n=d#5 v=0
438321 On ch=1 n=c7 v=0
438341 On ch=1 n=g6 v=0
438376 On ch=1 n=d7 v=85
438386 On ch=1 n=d6 v=72
438511 On ch=1 n=d6 v=0
438516 On ch=1 n=d7 v=0
438666 On ch=1 n=c7 v=90
438671 On ch=1 n=c6 v=82
438741 On ch=1 n=c6 v=0
438766 On ch=1 n=c7 v=0
438896 On ch=1 n=b6 v=92
438906 On ch=1 n=b5 v=74
438971 On ch=1 n=b5 v=0
438996 On ch=1 n=b6 v=0
439126 On ch=1 n=c7 v=87
439141 On ch=1 n=c6 v=80
439176 Par ch=1 c=64 v=104
439196 Par ch=1 c=64 v=24
439211 On ch=1 n=c6 v=0
439211 Par ch=1 c=64 v=0
439246 On ch=1 n=a3 v=62
439251 Par ch=1 c=64 v=24
439261 On ch=1 n=c7 v=0
439271 Par ch=1 c=64 v=127
439286 On ch=1 n=a3 v=0
439296 On ch=1 n=f4 v=52
439381 On ch=1 n=f4 v=0
439406 On ch=1 n=c5 v=58
439491 On ch=1 n=c5 v=0
439591 On ch=1 n=f5 v=48
439691 On ch=1 n=g7 v=89
439696 On ch=1 n=f5 v=0
439706 On ch=1 n=g6 v=68
439711 On ch=1 n=c7 v=65
439856 On ch=1 n=g6 v=0
439921 On ch=1 n=g7 v=0
440166 On ch=1 n=c7 v=0
440201 On ch=1 n=f7 v=82
440211 On ch=1 n=f6 v=69
440286 On ch=1 n=f7 v=0
440306 On ch=1 n=f6 v=0
440631 On ch=1 n=a#3 v=56
440646 Par ch=1 c=64 v=88
440666 Par ch=1 c=64 v=0
440721 On ch=1 n=d#4 v=38
440721 Par ch=1 c=64 v=40
440731 On ch=1 n=a#3 v=0
440741 On ch=1 n=g#6 v=77
440741 Par ch=1 c=64 v=127
440751 On ch=1 n=g#5 v=55
440756 On ch=1 n=d#6 v=60
440836 On ch=1 n=d#4 v=0
440861 On ch=1 n=c5 v=55
440911 On ch=1 n=g#5 v=0
440956 On ch=1 n=c5 v=0
441021 On ch=1 n=f5 v=46
441066 On ch=1 n=g#6 v=0
441101 On ch=1 n=f5 v=0
441182 On ch=1 n=a#5 v=57
441182 On ch=1 n=a#6 v=72
441206 On ch=1 n=d#6 v=0
441287 On ch=1 n=a#5 v=0
441372 On ch=1 n=a#6 v=0
441511 On ch=1 n=g#6 v=69
441516 On ch=1 n=g#5 v=53
441631 On ch=1 n=g#5 v=0
441651 On ch=1 n=g#6 v=0
441756 On ch=1 n=g6 v=77
441771 On ch=1 n=g5 v=56
441831 On ch=1 n=g5 v=0
441866 On ch=1 n=g6 v=0
442026 On ch=1 n=g#6 v=80
442026 On ch=1 n=g#5 v=64
442096 Par ch=1 c=64 v=88
442116 On ch=1 n=g#5 v=0
442116 Par ch=1 c=64 v=24
442136 Par ch=1 c=64 v=0
442176 On ch=1 n=a#3 v=55
442176 Par ch=1 c=64 v=24
442196 Par ch=1 c=64 v=104
442211 Par ch=1 c=64 v=127
442231 On ch=1 n=g#6 v=0
442261 On ch=1 n=a#3 v=0
442291 On ch=1 n=d4 v=45
442361 On ch=1 n=d4 v=0
442376 On ch=1 n=g#4 v=51
442486 On ch=1 n=g#4 v=0
442571 On ch=1 n=d5 v=43
442601 On ch=1 n=c7 v=72
442611 On ch=1 n=d5 v=0
442621 On ch=1 n=d6 v=41
442626 On ch=1 n=c6 v=42
442636 On ch=1 n=f6 v=53
442806 On ch=1 n=c6 v=0
442811 On ch=1 n=d6 v=0
442916 On ch=1 n=c7 v=0
443186 On ch=1 n=f6 v=0
443226 On ch=1 n=a#6 v=63
443231 On ch=1 n=a#5 v=57
443361 On ch=1 n=a#6 v=0
443431 On ch=1 n=a#5 v=0
443626 On ch=1 n=d#3 v=53
443666 Par ch=1 c=64 v=56
443686 Par ch=1 c=64 v=0
443741 Par ch=1 c=64 v=88
443761 Par ch=1 c=64 v=127
443766 On ch=1 n=d#3 v=0
443791 On ch=1 n=a#3 v=40
443871 On ch=1 n=g#6 v=69
443886 On ch=1 n=g#5 v=43
443896 On ch=1 n=a#5 v=44
443906 On ch=1 n=a#3 v=0
443911 On ch=1 n=d#6 v=40
443921 On ch=1 n=d#4 v=59
444051 On ch=1 n=d#4 v=0
444116 On ch=1 n=a#4 v=47
444151 On ch=1 n=a#4 v=0
444216 On ch=1 n=g#5 v=0
444301 On ch=1 n=g#6 v=0
444446 On ch=1 n=d#6 v=0
444501 On ch=1 n=a#5 v=0
444561 On ch=1 n=g6 v=69
444561 On ch=1 n=g5 v=53
444841 On ch=1 n=g6 v=0
444921 On ch=1 n=g5 v=0
445256 On ch=1 n=f6 v=66
445291 On ch=1 n=f5 v=34
445511 On ch=1 n=f5 v=0
445781 On ch=1 n=f6 v=0
445936 On ch=1 n=d#6 v=43
445966 On ch=1 n=d#5 v=27
446161 On ch=1 n=d#5 v=0
446226 On ch=1 n=d#6 v=0
446936 On ch=1 n=a#5 v=54
446961 On ch=1 n=f5 v=31
446981 On ch=1 n=d5 v=26
447071 Par ch=1 c=64 v=88
447091 Par ch=1 c=64 v=0
447231 Par ch=1 c=64 v=24
447246 Par ch=1 c=64 v=104
447266 Par ch=1 c=64 v=127
447292 On ch=1 n=c6 v=66
447301 On ch=1 n=a#5 v=0
447507 On ch=1 n=c6 v=0
447596 On ch=1 n=a#5 v=68
447811 On ch=1 n=a5 v=78
447821 On ch=1 n=a#5 v=0
448011 On ch=1 n=a#5 v=82
448036 On ch=1 n=a5 v=0
448341 On ch=1 n=d5 v=0
448376 On ch=1 n=a#5 v=0
448446 On ch=1 n=c#5 v=28
448461 On ch=1 n=g6 v=76
448601 Par ch=1 c=64 v=88
448621 Par ch=1 c=64 v=0
448756 Par ch=1 c=64 v=56
448776 Par ch=1 c=64 v=127
448986 On ch=1 n=g6 v=0
449001 On ch=1 n=f6 v=70
449371 On ch=1 n=f6 v=0
449416 On ch=1 n=a#5 v=67
449566 On ch=1 n=a#5 v=0
449641 On ch=1 n=c#5 v=0
449656 On ch=1 n=f5 v=0
449961 On ch=1 n=a5 v=60
449976 On ch=1 n=f5 v=46
449991 On ch=1 n=c5 v=40
450111 Par ch=1 c=64 v=104
450131 Par ch=1 c=64 v=24
450151 Par ch=1 c=64 v=0
450266 Par ch=1 c=64 v=72
450271 On ch=1 n=a5 v=0
450283 On ch=1 n=a#5 v=61
450286 Par ch=1 c=64 v=127
450478 On ch=1 n=a#5 v=0
450571 On ch=1 n=a5 v=74
450771 On ch=1 n=a5 v=0
450796 On ch=1 n=g#5 v=64
450981 On ch=1 n=g#5 v=0
451016 On ch=1 n=a5 v=85
451281 On ch=1 n=c5 v=0
451301 On ch=1 n=b4 v=42
451341 On ch=1 n=a5 v=0
451476 On ch=1 n=g6 v=76
451521 Par ch=1 c=64 v=104
451546 Par ch=1 c=64 v=40
451566 Par ch=1 c=64 v=0
451721 Par ch=1 c=64 v=88
451741 Par ch=1 c=64 v=127
451896 On ch=1 n=g6 v=0
451936 On ch=1 n=f6 v=70
452351 On ch=1 n=f6 v=0
452366 On ch=1 n=g#5 v=65
452556 On ch=1 n=g#5 v=0
452571 On ch=1 n=b4 v=0
452851 On ch=1 n=c5 v=46
452861 On ch=1 n=g5 v=61
452961 Par ch=1 c=64 v=88
452981 Par ch=1 c=64 v=0
453111 Par ch=1 c=64 v=72
453131 Par ch=1 c=64 v=127
453201 On ch=1 n=g#5 v=58
453221 On ch=1 n=g5 v=0
453426 On ch=1 n=g#5 v=0
453506 On ch=1 n=g5 v=66
453706 On ch=1 n=d#5 v=62
453791 On ch=1 n=g5 v=0
453801 On ch=1 n=f#5 v=53
453896 On ch=1 n=f5 v=0
454006 On ch=1 n=f#5 v=0
454036 On ch=1 n=g5 v=74
454096 On ch=1 n=c5 v=0
454376 On ch=1 n=g5 v=0
454396 On ch=1 n=f6 v=77
454651 On ch=1 n=d#5 v=0
454651 On ch=1 n=c#5 v=50
454671 On ch=1 n=a#4 v=39
454796 Par ch=1 c=64 v=72
454816 Par ch=1 c=64 v=0
454856 On ch=1 n=d#6 v=73
454896 On ch=1 n=f6 v=0
454951 Par ch=1 c=64 v=72
454971 Par ch=1 c=64 v=127
455281 On ch=1 n=d#6 v=0
455291 On ch=1 n=f#5 v=63
455426 On ch=1 n=a#4 v=0
455441 On ch=1 n=c#5 v=0
455471 On ch=1 n=f#5 v=0
455826 On ch=1 n=f5 v=58
455831 On ch=1 n=c5 v=48
455831 On ch=1 n=a4 v=30
455981 Par ch=1 c=64 v=40
455996 Par ch=1 c=64 v=0
456096 Par ch=1 c=64 v=40
456116 Par ch=1 c=64 v=104
456131 Par ch=1 c=64 v=127
456151 On ch=1 n=f5 v=0
456200 On ch=1 n=g5 v=58
456405 On ch=1 n=g5 v=0
456496 On ch=1 n=f5 v=68
456701 On ch=1 n=f5 v=0
456726 On ch=1 n=e5 v=70
456861 On ch=1 n=c5 v=0
456861 On ch=1 n=c#5 v=57
456891 On ch=1 n=e5 v=0
457006 On ch=1 n=f5 v=71
457101 On ch=1 n=f5 v=0
457171 On ch=1 n=f5 v=69
457276 On ch=1 n=f5 v=0
457396 On ch=1 n=a4 v=0
457401 On ch=1 n=c#5 v=0
457411 On ch=1 n=d5 v=55
457426 On ch=1 n=g#4 v=40
457606 Par ch=1 c=64 v=104
457621 On ch=1 n=c6 v=71
457621 Par ch=1 c=64 v=40
457641 Par ch=1 c=64 v=0
457696 On ch=1 n=f5 v=21
457876 Par ch=1 c=64 v=88
457896 Par ch=1 c=64 v=127
458386 On ch=1 n=c6 v=0
458396 On ch=1 n=a#5 v=49
458536 Par ch=1 c=64 v=88
458551 Par ch=1 c=64 v=24
458571 Par ch=1 c=64 v=0
458691 Par ch=1 c=64 v=88
458711 Par ch=1 c=64 v=127
458831 On ch=1 n=f5 v=0
458906 On ch=1 n=a#5 v=0
458956 On ch=1 n=d5 v=0
458976 On ch=1 n=g#4 v=0
459391 On ch=1 n=d#5 v=34
459396 On ch=1 n=a#5 v=54
459411 On ch=1 n=g4 v=39
459481 Par ch=1 c=64 v=56
459501 Par ch=1 c=64 v=0
459596 Par ch=1 c=64 v=24
459616 Par ch=1 c=64 v=88
459641 Par ch=1 c=64 v=127
459716 On ch=1 n=a#5 v=0
459760 On ch=1 n=c6 v=69
459970 On ch=1 n=c6 v=0
460031 On ch=1 n=a#5 v=67
460276 On ch=1 n=a#5 v=0
460286 On ch=1 n=a5 v=64
460536 On ch=1 n=a5 v=0
460551 On ch=1 n=a#5 v=62
460851 On ch=1 n=d#6 v=65
460886 On ch=1 n=a#5 v=0
461031 On ch=1 n=d#5 v=0
461036 On ch=1 n=f5 v=73
461046 On ch=1 n=g4 v=0
461191 On ch=1 n=b5 v=61
461246 On ch=1 n=d#6 v=0
461486 On ch=1 n=f5 v=0
461496 On ch=1 n=b5 v=0
461616 On ch=1 n=c6 v=57
461641 On ch=1 n=g#4 v=47
461826 Par ch=1 c=64 v=104
461846 Par ch=1 c=64 v=40
461866 Par ch=1 c=64 v=0
461926 On ch=1 n=c6 v=0
461981 On ch=1 n=d6 v=67
461981 Par ch=1 c=64 v=104
461996 Par ch=1 c=64 v=127
462211 On ch=1 n=d6 v=0
462246 On ch=1 n=c6 v=68
462296 On ch=1 n=g#4 v=0
462526 On ch=1 n=c6 v=0
462556 On ch=1 n=b5 v=53
462761 On ch=1 n=b5 v=0
462816 On ch=1 n=c6 v=58
462871 On ch=1 n=d#5 v=67
462916 On ch=1 n=a4 v=45
462966 Par ch=1 c=64 v=40
462986 Par ch=1 c=64 v=0
463066 Par ch=1 c=64 v=56
463086 Par ch=1 c=64 v=127
463186 On ch=1 n=g6 v=71
463476 On ch=1 n=d5 v=64
463516 On ch=1 n=c6 v=0
463541 On ch=1 n=g6 v=0
463551 On ch=1 n=d#5 v=0
463661 On ch=1 n=f6 v=70
463686 On ch=1 n=a4 v=0
463766 On ch=1 n=f6 v=0
464016 On ch=1 n=d5 v=0
464101 On ch=1 n=c5 v=63
464111 On ch=1 n=a#4 v=50
464201 On ch=1 n=g#5 v=46
464266 Par ch=1 c=64 v=88
464286 Par ch=1 c=64 v=24
464301 Par ch=1 c=64 v=0
464421 Par ch=1 c=64 v=40
464441 Par ch=1 c=64 v=104
464461 Par ch=1 c=64 v=127
464496 On ch=1 n=a#5 v=55
464501 On ch=1 n=g#5 v=0
464736 On ch=1 n=a#5 v=0
464791 On ch=1 n=g#5 v=55
465066 On ch=1 n=g#5 v=0
465101 On ch=1 n=g5 v=50
465381 On ch=1 n=g5 v=0
465391 On ch=1 n=g#5 v=51
465416 On ch=1 n=c5 v=0
465476 On ch=1 n=d5 v=59
465681 Par ch=1 c=64 v=88
465696 Par ch=1 c=64 v=0
465836 Par ch=1 c=64 v=88
465856 Par ch=1 c=64 v=127
465866 On ch=1 n=g#5 v=0
465911 On ch=1 n=c6 v=58
466426 On ch=1 n=c6 v=0
466441 On ch=1 n=a#5 v=57
466916 On ch=1 n=d5 v=0
466991 On ch=1 n=a#5 v=0
467016 On ch=1 n=g#5 v=40
467046 On ch=1 n=d#5 v=50
467151 Par ch=1 c=64 v=104
467171 Par ch=1 c=64 v=40
467186 Par ch=1 c=64 v=0
467346 Par ch=1 c=64 v=88
467361 Par ch=1 c=64 v=127
467731 On ch=1 n=g#5 v=0
467751 On ch=1 n=g5 v=53
467906 Par ch=1 c=64 v=72
467926 Par ch=1 c=64 v=0
468021 Par ch=1 c=64 v=24
468041 Par ch=1 c=64 v=88
468061 Par ch=1 c=64 v=127
468456 On ch=1 n=g5 v=0
468541 On ch=1 n=f5 v=39
468631 On ch=1 n=d#5 v=0
468676 Par ch=1 c=64 v=104
468696 Par ch=1 c=64 v=40
468721 Par ch=1 c=64 v=0
468796 Par ch=1 c=64 v=56
468816 Par ch=1 c=64 v=127
469486 On ch=1 n=f5 v=0
469516 On ch=1 n=d#5 v=40
469686 Par ch=1 c=64 v=104
469706 Par ch=1 c=64 v=56
469721 Par ch=1 c=64 v=0
469841 Par ch=1 c=64 v=24
469861 Par ch=1 c=64 v=88
469881 Par ch=1 c=64 v=127
469991 On ch=1 n=d#5 v=0
469996 On ch=1 n=a#4 v=0
470556 Par ch=1 c=64 v=104
470576 Par ch=1 c=64 v=72
470596 Par ch=1 c=64 v=40
470616 Par ch=1 c=64 v=24
470631 Par ch=1 c=64 v=0
473281 Par ch=1 c=64 v=72
473301 Par ch=1 c=64 v=127
473341 On ch=1 n=d4 v=70
473366 On ch=1 n=a5 v=78
473376 On ch=1 n=d4 v=0
473481 On ch=1 n=a5 v=0
473491 On ch=1 n=d#6 v=87
473596 On ch=1 n=d#6 v=0
473631 On ch=1 n=c6 v=94
473656 On ch=1 n=a5 v=61
473671 On ch=1 n=d#5 v=54
473706 On ch=1 n=c6 v=0
473741 On ch=1 n=d#5 v=0
473741 On ch=1 n=a5 v=0
473756 On ch=1 n=b5 v=84
473846 On ch=1 n=b5 v=0
473866 On ch=1 n=c6 v=102
473896 On ch=1 n=d#5 v=49
473901 On ch=1 n=a5 v=52
473906 On ch=1 n=c5 v=53
473916 On ch=1 n=f#5 v=50
473941 On ch=1 n=c6 v=0
473956 On ch=1 n=f#5 v=0
473961 On ch=1 n=a5 v=0
473971 On ch=1 n=c5 v=0
473981 On ch=1 n=d#5 v=0
473981 On ch=1 n=a6 v=89
474066 On ch=1 n=a6 v=0
474111 On ch=1 n=g6 v=94
474136 On ch=1 n=a5 v=63
474136 On ch=1 n=c5 v=54
474136 On ch=1 n=d#5 v=47
474141 On ch=1 n=f#5 v=42
474201 On ch=1 n=f#5 v=0
474216 On ch=1 n=c5 v=0
474216 On ch=1 n=a5 v=0
474226 On ch=1 n=d#5 v=0
474361 On ch=1 n=g6 v=0
474416 On ch=1 n=f#6 v=96
474466 On ch=1 n=a5 v=50
474466 On ch=1 n=d#5 v=33
474471 On ch=1 n=c5 v=37
474491 On ch=1 n=f#5 v=28
474506 On ch=1 n=f#6 v=0
474526 On ch=1 n=c5 v=0
474531 On ch=1 n=f#5 v=0
474546 On ch=1 n=a5 v=0
474556 On ch=1 n=d#5 v=0
474706 On ch=1 n=d#6 v=77
474716 On ch=1 n=a5 v=66
474731 On ch=1 n=f#5 v=40
474731 On ch=1 n=c5 v=47
474746 On ch=1 n=a5 v=0
474746 On ch=1 n=d#5 v=39
474761 On ch=1 n=f#5 v=0
474771 On ch=1 n=c5 v=0
474776 On ch=1 n=d#5 v=0
474831 On ch=1 n=d#6 v=0
475006 Par ch=1 c=64 v=88
475026 Par ch=1 c=64 v=0
475031 On ch=1 n=a5 v=84
475051 On ch=1 n=d4 v=72
475091 On ch=1 n=d4 v=0
475111 Par ch=1 c=64 v=72
475131 On ch=1 n=a5 v=0
475131 Par ch=1 c=64 v=127
475176 On ch=1 n=d#6 v=87
475271 On ch=1 n=d#6 v=0
475316 On ch=1 n=c6 v=97
475336 On ch=1 n=a5 v=53
475341 On ch=1 n=d#5 v=44
475341 On ch=1 n=c5 v=48
475346 On ch=1 n=f#5 v=39
475391 On ch=1 n=c5 v=0
475391 On ch=1 n=c6 v=0
475411 On ch=1 n=f#5 v=0
475411 On ch=1 n=d#5 v=0
475421 On ch=1 n=a5 v=0
475436 On ch=1 n=b5 v=87
475561 On ch=1 n=c6 v=103
475576 On ch=1 n=b5 v=0
475576 On ch=1 n=d#5 v=46
475581 On ch=1 n=c5 v=59
475586 On ch=1 n=f#5 v=43
475591 On ch=1 n=a5 v=55
475636 On ch=1 n=c5 v=0
475651 On ch=1 n=c6 v=0
475661 On ch=1 n=f#5 v=0
475666 On ch=1 n=a5 v=0
475676 On ch=1 n=d#5 v=0
475696 On ch=1 n=a6 v=92
475816 On ch=1 n=g6 v=95
475836 On ch=1 n=a6 v=0
475846 On ch=1 n=d#5 v=45
475851 On ch=1 n=a5 v=60
475851 On ch=1 n=f#5 v=44
475856 On ch=1 n=c5 v=52
475916 On ch=1 n=c5 v=0
475931 On ch=1 n=a5 v=0
475936 On ch=1 n=f#5 v=0
475946 On ch=1 n=d#5 v=0
476066 On ch=1 n=g6 v=0
476091 On ch=1 n=f#6 v=91
476131 On ch=1 n=d#5 v=40
476136 On ch=1 n=a5 v=53
476136 On ch=1 n=f#5 v=44
476146 On ch=1 n=c5 v=42
476161 On ch=1 n=f#6 v=0
476201 On ch=1 n=c5 v=0
476201 On ch=1 n=a5 v=0
476221 On ch=1 n=f#5 v=0
476231 On ch=1 n=d#5 v=0
476261 On ch=1 n=c7 v=97
476371 On ch=1 n=f#5 v=56
476376 On ch=1 n=a5 v=59
476381 On ch=1 n=c5 v=37
476396 On ch=1 n=c8 v=105
476406 On ch=1 n=a5 v=0
476416 On ch=1 n=f#5 v=0
476421 On ch=1 n=c5 v=0
476641 Par ch=1 c=64 v=56
476661 Par ch=1 c=64 v=0
476671 On ch=1 n=d4 v=82
476731 On ch=1 n=d4 v=0
476761 On ch=1 n=c8 v=0
476766 Par ch=1 c=64 v=104
476781 On ch=1 n=c7 v=0
476781 Par ch=1 c=64 v=127
476806 On ch=1 n=a#7 v=88
476936 On ch=1 n=a#7 v=0
476946 On ch=1 n=g7 v=93
476956 On ch=1 n=a#4 v=46
476961 On ch=1 n=d5 v=60
476961 On ch=1 n=g5 v=61
477031 On ch=1 n=g5 v=0
477031 On ch=1 n=d5 v=0
477036 On ch=1 n=a#4 v=0
477076 On ch=1 n=d7 v=93
477081 On ch=1 n=g7 v=0
477141 On ch=1 n=d7 v=0
477216 On ch=1 n=c7 v=97
477241 On ch=1 n=a#4 v=38
477241 On ch=1 n=d5 v=59
477246 On ch=1 n=g5 v=54
477331 On ch=1 n=d5 v=0
477346 On ch=1 n=g5 v=0
477356 On ch=1 n=a#4 v=0
477486 On ch=1 n=a#4 v=35
477496 On ch=1 n=g5 v=59
477496 On ch=1 n=d5 v=48
477531 On ch=1 n=c7 v=0
477546 On ch=1 n=d5 v=0
477571 On ch=1 n=g5 v=0
477571 On ch=1 n=a#4 v=0
477596 On ch=1 n=a#6 v=78
477706 On ch=1 n=a#6 v=0
477731 On ch=1 n=g6 v=88
477746 On ch=1 n=d5 v=63
477746 On ch=1 n=g5 v=60
477746 On ch=1 n=a#4 v=48
477776 On ch=1 n=d5 v=0
477781 On ch=1 n=g5 v=0
477816 On ch=1 n=a#4 v=0
477831 On ch=1 n=g6 v=0
477861 On ch=1 n=d6 v=77
477921 On ch=1 n=d6 v=0
477996 On ch=1 n=c6 v=92
478011 On ch=1 n=e4 v=56
478086 On ch=1 n=e4 v=0
478091 On ch=1 n=c6 v=0
478131 On ch=1 n=a#5 v=80
478221 Par ch=1 c=64 v=104
478241 Par ch=1 c=64 v=24
478246 On ch=1 n=a#5 v=0
478256 Par ch=1 c=64 v=0
478281 On ch=1 n=a5 v=83
478291 On ch=1 n=f4 v=66
478361 Par ch=1 c=64 v=40
478381 On ch=1 n=a5 v=0
478381 Par ch=1 c=64 v=88
478401 Par ch=1 c=64 v=127
478406 On ch=1 n=d#6 v=84
478471 Par ch=1 c=64 v=88
478486 Par ch=1 c=64 v=0
478516 On ch=1 n=d#6 v=0
478561 On ch=1 n=c6 v=82
478571 On ch=1 n=d#5 v=36
478571 On ch=1 n=f5 v=34
478591 On ch=1 n=a4 v=33
478591 Par ch=1 c=64 v=40
478611 Par ch=1 c=64 v=88
478626 Par ch=1 c=64 v=104
478646 On ch=1 n=f5 v=0
478646 On ch=1 n=c6 v=0
478651 Par ch=1 c=64 v=127
478671 On ch=1 n=a4 v=0
478671 On ch=1 n=d#5 v=0
478681 On ch=1 n=b5 v=81
478771 Par ch=1 c=64 v=88
478776 On ch=1 n=b5 v=0
478791 Par ch=1 c=64 v=24
478806 Par ch=1 c=64 v=0
478831 On ch=1 n=c6 v=87
478861 On ch=1 n=d#5 v=31
478861 On ch=1 n=f5 v=22
478896 Par ch=1 c=64 v=40
478901 On ch=1 n=c6 v=0
478911 Par ch=1 c=64 v=72
478931 Par ch=1 c=64 v=104
478946 On ch=1 n=f5 v=0
478951 On ch=1 n=d#5 v=0
478951 Par ch=1 c=64 v=127
478976 On ch=1 n=a6 v=61
479081 On ch=1 n=a6 v=0
479151 On ch=1 n=g6 v=79
479161 Par ch=1 c=64 v=72
479171 On ch=1 n=f5 v=37
479171 On ch=1 n=d#5 v=38
479181 Par ch=1 c=64 v=0
479191 On ch=1 n=a4 v=24
479271 Par ch=1 c=64 v=56
479276 On ch=1 n=f5 v=0
479286 On ch=1 n=d#5 v=0
479286 Par ch=1 c=64 v=104
479306 On ch=1 n=a4 v=0
479306 Par ch=1 c=64 v=127
479461 On ch=1 n=g6 v=0
479501 On ch=1 n=f6 v=70
479531 On ch=1 n=d#5 v=43
479536 Par ch=1 c=64 v=88
479556 On ch=1 n=a4 v=37
479556 Par ch=1 c=64 v=24
479571 Par ch=1 c=64 v=0
479606 Par ch=1 c=64 v=40
479626 Par ch=1 c=64 v=88
479636 On ch=1 n=d#5 v=0
479641 Par ch=1 c=64 v=127
479671 On ch=1 n=a4 v=0
479921 On ch=1 n=f5 v=49
479931 On ch=1 n=d#5 v=32
480006 On ch=1 n=d#5 v=0
480041 On ch=1 n=f4 v=0
480296 On ch=1 n=f5 v=0
480316 Par ch=1 c=64 v=56
480336 Par ch=1 c=64 v=0
480366 On ch=1 n=f3 v=62
480371 Par ch=1 c=64 v=56
480386 Par ch=1 c=64 v=127
480466 On ch=1 n=f3 v=0
480516 On ch=1 n=f6 v=0
480576 On ch=1 n=g6 v=74
480586 On ch=1 n=g5 v=58
480646 On ch=1 n=g5 v=0
480656 On ch=1 n=g6 v=0
480786 On ch=1 n=a6 v=83
480796 On ch=1 n=a5 v=69
480821 On ch=1 n=d#5 v=52
480836 On ch=1 n=a4 v=56
480846 On ch=1 n=a5 v=0
480866 On ch=1 n=a6 v=0
480886 On ch=1 n=a4 v=0
480901 On ch=1 n=d#5 v=0
480961 On ch=1 n=a#5 v=86
480966 On ch=1 n=a#6 v=89
481026 On ch=1 n=a#5 v=0
481071 On ch=1 n=a#6 v=0
481146 On ch=1 n=d#5 v=58
481151 On ch=1 n=a4 v=59
481151 On ch=1 n=c7 v=96
481156 On ch=1 n=c6 v=90
481201 On ch=1 n=a4 v=0
481211 On ch=1 n=d#5 v=0
481216 On ch=1 n=c6 v=0
481216 On ch=1 n=c7 v=0
481321 On ch=1 n=d7 v=99
481326 On ch=1 n=d6 v=87
481386 On ch=1 n=d6 v=0
481461 On ch=1 n=d7 v=0
481561 On ch=1 n=d#7 v=102
481566 On ch=1 n=d#6 v=75
481611 Par ch=1 c=64 v=72
481616 On ch=1 n=f#3 v=49
481631 Par ch=1 c=64 v=0
481721 On ch=1 n=f#3 v=0
481736 Par ch=1 c=64 v=127
481791 On ch=1 n=d#6 v=0
481851 On ch=1 n=d#7 v=0
482006 On ch=1 n=d#5 v=42
482031 On ch=1 n=a4 v=42
482081 On ch=1 n=a4 v=0
482111 On ch=1 n=d#5 v=0
482401 On ch=1 n=d#5 v=40
482401 On ch=1 n=c5 v=41
482411 On ch=1 n=a5 v=89
482416 On ch=1 n=a4 v=41
482446 On ch=1 n=d#5 v=0
482451 On ch=1 n=c5 v=0
482461 On ch=1 n=a4 v=0
482766 Par ch=1 c=64 v=88
482786 On ch=1 n=d3 v=85
482786 Par ch=1 c=64 v=0
482856 On ch=1 n=d3 v=0
482871 Par ch=1 c=64 v=127
482981 On ch=1 n=d#6 v=83
483006 On ch=1 n=a5 v=0
483101 On ch=1 n=d#6 v=0
483146 On ch=1 n=c6 v=92
483161 On ch=1 n=a5 v=53
483161 On ch=1 n=d#5 v=48
483161 On ch=1 n=c5 v=57
483171 On ch=1 n=f#5 v=43
483201 On ch=1 n=c5 v=0
483221 On ch=1 n=c6 v=0
483246 On ch=1 n=a5 v=0
483256 On ch=1 n=f#5 v=0
483256 On ch=1 n=d#5 v=0
483271 On ch=1 n=b5 v=82
483356 On ch=1 n=b5 v=0
483401 On ch=1 n=c6 v=97
483411 On ch=1 n=d#5 v=49
483426 On ch=1 n=c5 v=53
483431 On ch=1 n=a5 v=48
483431 On ch=1 n=f#5 v=33
483476 On ch=1 n=f#5 v=0
483476 On ch=1 n=c6 v=0
483486 On ch=1 n=c5 v=0
483496 On ch=1 n=a5 v=0
483501 On ch=1 n=d#5 v=0
483526 On ch=1 n=a6 v=92
483626 On ch=1 n=a6 v=0
483646 On ch=1 n=g6 v=93
483666 On ch=1 n=c5 v=68
483666 On ch=1 n=d#5 v=55
483671 On ch=1 n=a5 v=70
483681 On ch=1 n=f#5 v=43
483691 Par ch=1 c=64 v=104
483706 Par ch=1 c=64 v=88
483721 Par ch=1 c=64 v=127
483731 On ch=1 n=f#5 v=0
483756 On ch=1 n=a5 v=0
483756 On ch=1 n=c5 v=0
483781 On ch=1 n=d#5 v=0
483916 On ch=1 n=g6 v=0
483946 On ch=1 n=f#6 v=92
483991 On ch=1 n=d#5 v=39
484001 On ch=1 n=a5 v=51
484011 On ch=1 n=c5 v=33
484026 On ch=1 n=f#5 v=37
484031 On ch=1 n=f#6 v=0
484066 On ch=1 n=f#5 v=0
484071 On ch=1 n=c5 v=0
484081 On ch=1 n=a5 v=0
484101 On ch=1 n=d#5 v=0
484256 On ch=1 n=d#5 v=58
484256 On ch=1 n=f#5 v=56
484271 On ch=1 n=a5 v=52
484271 On ch=1 n=d#6 v=84
484286 On ch=1 n=c5 v=36
484291 On ch=1 n=f#5 v=0
484301 On ch=1 n=a5 v=0
484321 On ch=1 n=c5 v=0
484321 On ch=1 n=d#5 v=0
484361 On ch=1 n=d#6 v=0
484541 Par ch=1 c=64 v=88
484551 On ch=1 n=a5 v=84
484556 On ch=1 n=a4 v=50
484556 Par ch=1 c=64 v=0
484561 On ch=1 n=d4 v=63
484591 On ch=1 n=d4 v=0
484591 On ch=1 n=a4 v=0
484611 Par ch=1 c=64 v=24
484631 Par ch=1 c=64 v=88
484651 On ch=1 n=a5 v=0
484651 Par ch=1 c=64 v=127
484676 On ch=1 n=d#6 v=89
484781 On ch=1 n=d#6 v=0
484816 On ch=1 n=c6 v=96
484836 On ch=1 n=a5 v=58
484836 On ch=1 n=d#5 v=55
484846 On ch=1 n=f#5 v=39
484846 On ch=1 n=c5 v=44
484886 On ch=1 n=c5 v=0
484886 On ch=1 n=c6 v=0
484901 On ch=1 n=f#5 v=0
484916 On ch=1 n=d#5 v=0
484926 On ch=1 n=a5 v=0
484926 On ch=1 n=b5 v=90
485046 On ch=1 n=c6 v=94
485051 On ch=1 n=b5 v=0
485066 On ch=1 n=d#5 v=52
485081 On ch=1 n=a5 v=57
485086 On ch=1 n=f#5 v=39
485116 On ch=1 n=c5 v=21
485146 On ch=1 n=f#5 v=0
485151 On ch=1 n=c5 v=0
485156 On ch=1 n=d#5 v=0
485166 On ch=1 n=c6 v=0
485176 On ch=1 n=a5 v=0
485176 On ch=1 n=a6 v=84
485301 On ch=1 n=g6 v=87
485316 On ch=1 n=a6 v=0
485321 On ch=1 n=d#5 v=52
485326 On ch=1 n=a5 v=67
485326 On ch=1 n=c5 v=59
485331 On ch=1 n=f#5 v=44
485391 On ch=1 n=f#5 v=0
485401 On ch=1 n=a5 v=0
485406 On ch=1 n=c5 v=0
485411 On ch=1 n=d#5 v=0
485561 On ch=1 n=g6 v=0
485566 On ch=1 n=f#6 v=92
485606 On ch=1 n=d#5 v=45
485616 On ch=1 n=c5 v=55
485616 On ch=1 n=a5 v=58
485616 On ch=1 n=f#5 v=36
485641 On ch=1 n=f#6 v=0
485676 On ch=1 n=f#5 v=0
485681 On ch=1 n=a5 v=0
485696 On ch=1 n=c5 v=0
485711 On ch=1 n=d#5 v=0
485751 On ch=1 n=c7 v=97
485846 On ch=1 n=a5 v=52
485856 On ch=1 n=c5 v=39
485861 On ch=1 n=d#5 v=26
485881 On ch=1 n=a5 v=0
485886 On ch=1 n=c8 v=102
485891 On ch=1 n=c5 v=0
485896 On ch=1 n=d#5 v=0
486141 On ch=1 n=d4 v=86
486141 Par ch=1 c=64 v=40
486156 Par ch=1 c=64 v=0
486211 On ch=1 n=d4 v=0
486226 Par ch=1 c=64 v=72
486236 On ch=1 n=c8 v=0
486246 Par ch=1 c=64 v=127
486291 On ch=1 n=c7 v=0
486301 On ch=1 n=a#7 v=85
486431 On ch=1 n=a#7 v=0
486446 On ch=1 n=g7 v=90
486466 On ch=1 n=a#4 v=57
486471 On ch=1 n=d5 v=67
486471 On ch=1 n=g5 v=64
486541 On ch=1 n=g5 v=0
486541 On ch=1 n=d5 v=0
486556 On ch=1 n=a#4 v=0
486591 On ch=1 n=g7 v=0
486591 On ch=1 n=d7 v=89
486646 On ch=1 n=d7 v=0
486716 On ch=1 n=c7 v=100
486736 On ch=1 n=a#4 v=42
486741 On ch=1 n=d5 v=59
486746 On ch=1 n=g5 v=54
486846 On ch=1 n=g5 v=0
486846 On ch=1 n=d5 v=0
486866 On ch=1 n=a#4 v=0
487001 On ch=1 n=d4 v=69
487051 On ch=1 n=c7 v=0
487086 On ch=1 n=d4 v=0
487106 On ch=1 n=a#6 v=80
487241 On ch=1 n=d5 v=68
487241 On ch=1 n=a#4 v=50
487241 On ch=1 n=g6 v=86
487246 On ch=1 n=g5 v=64
487271 On ch=1 n=d5 v=0
487276 On ch=1 n=g5 v=0
487281 On ch=1 n=a#6 v=0
487316 On ch=1 n=a#4 v=0
487361 On ch=1 n=g6 v=0
487366 On ch=1 n=d6 v=80
487446 On ch=1 n=d6 v=0
487516 On ch=1 n=e4 v=59
487521 On ch=1 n=c6 v=87
487581 On ch=1 n=e4 v=0
487591 On ch=1 n=c6 v=0
487631 On ch=1 n=a#5 v=80
487751 On ch=1 n=a#5 v=0
487771 Par ch=1 c=64 v=56
487786 On ch=1 n=a5 v=84
487791 Par ch=1 c=64 v=0
487806 On ch=1 n=f4 v=68
487881 Par ch=1 c=64 v=40
487896 Par ch=1 c=64 v=88
487916 On ch=1 n=a5 v=0
487916 Par ch=1 c=64 v=127
487921 On ch=1 n=d#6 v=83
488021 Par ch=1 c=64 v=104
488046 On ch=1 n=d#6 v=0
488066 On ch=1 n=c6 v=87
488076 On ch=1 n=d#5 v=33
488076 Par ch=1 c=64 v=127
488101 On ch=1 n=a4 v=34
488156 On ch=1 n=c6 v=0
488166 On ch=1 n=a4 v=0
488166 On ch=1 n=d#5 v=0
488191 On ch=1 n=b5 v=81
488291 On ch=1 n=b5 v=0
488336 On ch=1 n=c6 v=85
488351 On ch=1 n=d#5 v=44
488381 On ch=1 n=a4 v=25
488401 On ch=1 n=c6 v=0
488436 On ch=1 n=a4 v=0
488436 On ch=1 n=d#5 v=0
488461 On ch=1 n=a6 v=82
488571 On ch=1 n=a6 v=0
488636 On ch=1 n=g6 v=78
488661 Par ch=1 c=64 v=56
488671 On ch=1 n=d#5 v=34
488676 On ch=1 n=f5 v=24
488676 Par ch=1 c=64 v=0
488786 On ch=1 n=d#5 v=0
488786 Par ch=1 c=64 v=56
488791 On ch=1 n=f5 v=0
488806 Par ch=1 c=64 v=127
488976 On ch=1 n=g6 v=0
489001 On ch=1 n=f6 v=74
489006 On ch=1 n=d#5 v=45
489046 On ch=1 n=a4 v=24
489051 Par ch=1 c=64 v=88
489066 Par ch=1 c=64 v=0
489126 On ch=1 n=d#5 v=0
489141 On ch=1 n=a4 v=0
489156 Par ch=1 c=64 v=56
489176 Par ch=1 c=64 v=127
489416 On ch=1 n=d#5 v=48
489426 On ch=1 n=f5 v=75
489426 On ch=1 n=a4 v=45
489491 On ch=1 n=d#5 v=0
489501 On ch=1 n=a4 v=0
489546 On ch=1 n=f4 v=0
489796 On ch=1 n=f5 v=0
489831 Par ch=1 c=64 v=104
489846 On ch=1 n=f3 v=63
489851 Par ch=1 c=64 v=56
489866 Par ch=1 c=64 v=72
489886 Par ch=1 c=64 v=127
489896 On ch=1 n=f3 v=0
489966 On ch=1 n=f6 v=0
490031 On ch=1 n=g6 v=82
490041 On ch=1 n=g5 v=63
490101 On ch=1 n=g5 v=0
490116 On ch=1 n=g6 v=0
490246 On ch=1 n=a6 v=88
490251 On ch=1 n=a5 v=73
490256 On ch=1 n=a4 v=48
490261 On ch=1 n=c5 v=49
490266 On ch=1 n=f4 v=50
490301 On ch=1 n=a5 v=0
490306 On ch=1 n=c5 v=0
490311 On ch=1 n=a6 v=0
490321 On ch=1 n=a4 v=0
490341 On ch=1 n=f4 v=0
490426 On ch=1 n=a#5 v=77
490426 On ch=1 n=a#6 v=85
490496 On ch=1 n=a#5 v=0
490521 On ch=1 n=a#6 v=0
490606 On ch=1 n=c7 v=97
490611 On ch=1 n=c6 v=89
490616 On ch=1 n=a4 v=53
490621 On ch=1 n=d#4 v=55
490621 On ch=1 n=c5 v=50
490651 On ch=1 n=a4 v=0
490656 On ch=1 n=c5 v=0
490656 On ch=1 n=c7 v=0
490661 On ch=1 n=c6 v=0
490691 On ch=1 n=d#4 v=0
490761 On ch=1 n=d7 v=102
490766 On ch=1 n=d6 v=92
490826 On ch=1 n=d6 v=0
490901 On ch=1 n=d7 v=0
491006 On ch=1 n=d#7 v=91
491011 On ch=1 n=d#6 v=83
491041 Par ch=1 c=64 v=88
491046 On ch=1 n=f#3 v=61
491061 Par ch=1 c=64 v=0
491151 On ch=1 n=f#3 v=0
491161 Par ch=1 c=64 v=104
491181 Par ch=1 c=64 v=127
491266 On ch=1 n=d#7 v=0
491326 On ch=1 n=d#6 v=0
491411 On ch=1 n=d7 v=82
491421 On ch=1 n=d6 v=70
491431 On ch=1 n=a4 v=38
491436 On ch=1 n=d4 v=53
491436 On ch=1 n=c5 v=40
491496 On ch=1 n=c5 v=0
491496 On ch=1 n=a4 v=0
491536 On ch=1 n=d6 v=0
491541 On ch=1 n=d4 v=0
491551 On ch=1 n=d7 v=0
491751 On ch=1 n=c7 v=87
491756 On ch=1 n=c6 v=77
491786 On ch=1 n=d4 v=50
491786 On ch=1 n=c5 v=42
491786 On ch=1 n=a4 v=44
491826 On ch=1 n=a4 v=0
491831 On ch=1 n=c5 v=0
491841 On ch=1 n=c6 v=0
491861 On ch=1 n=d4 v=0
491861 On ch=1 n=c7 v=0
492096 On ch=1 n=a#6 v=79
492111 On ch=1 n=a#5 v=62
492141 Par ch=1 c=64 v=72
492146 On ch=1 n=g3 v=62
492161 Par ch=1 c=64 v=0
492211 On ch=1 n=g3 v=0
492246 Par ch=1 c=64 v=56
492266 Par ch=1 c=64 v=127
492431 On ch=1 n=a#5 v=0
492436 On ch=1 n=a#6 v=0
492471 On ch=1 n=d4 v=46
492486 On ch=1 n=g4 v=46
492486 On ch=1 n=a#4 v=22
492541 On ch=1 n=d4 v=0
492551 On ch=1 n=a#4 v=0
492566 On ch=1 n=g4 v=0
492611 On ch=1 n=a6 v=75
492631 On ch=1 n=a5 v=63
492671 On ch=1 n=a5 v=0
492686 On ch=1 n=a6 v=0
492751 On ch=1 n=a#4 v=45
492776 On ch=1 n=d4 v=43
492781 On ch=1 n=g6 v=85
492786 On ch=1 n=g4 v=27
492796 On ch=1 n=g5 v=59
492806 On ch=1 n=a#4 v=0
492816 On ch=1 n=g4 v=0
492826 On ch=1 n=d4 v=0
492876 On ch=1 n=g6 v=0
492891 On ch=1 n=g5 v=0
493161 On ch=1 n=f6 v=77
493171 Par ch=1 c=64 v=24
493181 On ch=1 n=f5 v=56
493186 On ch=1 n=d3 v=55
493186 Par ch=1 c=64 v=0
493266 On ch=1 n=d3 v=0
493276 Par ch=1 c=64 v=56
493296 Par ch=1 c=64 v=127
493541 On ch=1 n=f4 v=60
493546 On ch=1 n=d4 v=52
493546 On ch=1 n=a4 v=51
493616 On ch=1 n=f5 v=0
493771 On ch=1 n=f4 v=0
493781 On ch=1 n=d4 v=0
493866 On ch=1 n=a4 v=0
493886 On ch=1 n=f6 v=0
493966 On ch=1 n=f#6 v=83
493991 On ch=1 n=f#5 v=54
494021 On ch=1 n=f#4 v=48
494021 On ch=1 n=a4 v=49
494041 Par ch=1 c=64 v=72
494061 Par ch=1 c=64 v=0
494146 Par ch=1 c=64 v=56
494156 On ch=1 n=a4 v=0
494156 On ch=1 n=f#4 v=0
494166 Par ch=1 c=64 v=127
494181 On ch=1 n=f#5 v=0
494271 On ch=1 n=f#6 v=0
494536 On ch=1 n=d3 v=78
494536 Par ch=1 c=64 v=24
494551 On ch=1 n=a5 v=90
494556 Par ch=1 c=64 v=0
494611 On ch=1 n=d3 v=0
494626 Par ch=1 c=64 v=104
494646 Par ch=1 c=64 v=127
494686 On ch=1 n=a5 v=0
494711 On ch=1 n=d#6 v=87
494821 On ch=1 n=d#6 v=0
494851 On ch=1 n=c6 v=92
494896 On ch=1 n=f#5 v=37
494901 On ch=1 n=c5 v=45
494916 On ch=1 n=d#5 v=34
494921 On ch=1 n=a5 v=29
494926 On ch=1 n=c6 v=0
494951 On ch=1 n=c5 v=0
494971 On ch=1 n=d#5 v=0
494981 On ch=1 n=a5 v=0
494986 On ch=1 n=f#5 v=0
494996 On ch=1 n=b5 v=87
495106 On ch=1 n=c6 v=102
495136 On ch=1 n=b5 v=0
495136 On ch=1 n=d#5 v=46
495146 On ch=1 n=a5 v=59
495146 On ch=1 n=c5 v=52
495151 On ch=1 n=f#5 v=32
495191 On ch=1 n=c5 v=0
495196 On ch=1 n=f#5 v=0
495201 On ch=1 n=a5 v=0
495201 On ch=1 n=c6 v=0
495221 On ch=1 n=d#5 v=0
495236 On ch=1 n=a6 v=90
495356 On ch=1 n=g6 v=89
495391 On ch=1 n=a6 v=0
495391 On ch=1 n=c5 v=64
495391 Par ch=1 c=64 v=88
495396 On ch=1 n=a5 v=69
495396 On ch=1 n=d#5 v=46
495401 On ch=1 n=f#5 v=43
495441 Par ch=1 c=64 v=127
495456 On ch=1 n=f#5 v=0
495461 On ch=1 n=a5 v=0
495466 On ch=1 n=c5 v=0
495481 On ch=1 n=d#5 v=0
495596 On ch=1 n=g6 v=0
495626 On ch=1 n=f#6 v=93
495681 On ch=1 n=c5 v=51
495686 On ch=1 n=f#5 v=42
495686 On ch=1 n=d#5 v=43
495691 On ch=1 n=a5 v=53
495716 On ch=1 n=f#6 v=0
495741 On ch=1 n=a5 v=0
495761 On ch=1 n=f#5 v=0
495761 On ch=1 n=c5 v=0
495776 On ch=1 n=d#5 v=0
495926 On ch=1 n=d#6 v=80
495926 On ch=1 n=f#5 v=56
495931 On ch=1 n=d#5 v=46
495961 On ch=1 n=f#5 v=0
495971 On ch=1 n=d#5 v=0
496066 On ch=1 n=d#6 v=0
496226 On ch=1 n=a5 v=88
496226 Par ch=1 c=64 v=88
496236 On ch=1 n=a4 v=69
496241 Par ch=1 c=64 v=24
496246 On ch=1 n=d4 v=70
496261 Par ch=1 c=64 v=0
496276 On ch=1 n=a4 v=0
496281 On ch=1 n=d4 v=0
496281 Par ch=1 c=64 v=24
496296 Par ch=1 c=64 v=72
496311 Par ch=1 c=64 v=127
496341 On ch=1 n=a5 v=0
496361 On ch=1 n=d#6 v=90
496466 On ch=1 n=d#6 v=0
496486 On ch=1 n=f#5 v=48
496491 On ch=1 n=a5 v=50
496496 On ch=1 n=d#5 v=40
496501 On ch=1 n=c6 v=96
496511 On ch=1 n=c5 v=48
496556 On ch=1 n=c5 v=0
496581 On ch=1 n=f#5 v=0
496591 On ch=1 n=c6 v=0
496591 On ch=1 n=d#5 v=0
496606 On ch=1 n=a5 v=0
496616 On ch=1 n=b5 v=92
496731 On ch=1 n=c6 v=99
496741 On ch=1 n=b5 v=0
496751 On ch=1 n=d#5 v=52
496756 On ch=1 n=a5 v=64
496756 On ch=1 n=f#5 v=50
496756 On ch=1 n=c5 v=60
496826 On ch=1 n=f#5 v=0
496836 On ch=1 n=a5 v=0
496836 On ch=1 n=d#5 v=0
496841 On ch=1 n=c5 v=0
496851 On ch=1 n=a6 v=92
496856 On ch=1 n=c6 v=0
496966 On ch=1 n=g6 v=83
496991 On ch=1 n=c5 v=66
496996 On ch=1 n=f#5 v=53
496996 On ch=1 n=d#5 v=50
497001 On ch=1 n=a6 v=0
497001 On ch=1 n=a5 v=64
497071 On ch=1 n=a5 v=0
497071 On ch=1 n=f#5 v=0
497086 On ch=1 n=c5 v=0
497091 On ch=1 n=d#5 v=0
497221 On ch=1 n=g6 v=0
497231 On ch=1 n=f#6 v=93
497261 On ch=1 n=a5 v=78
497261 On ch=1 n=f#5 v=63
497261 On ch=1 n=d#5 v=53
497266 On ch=1 n=c5 v=57
497306 On ch=1 n=c5 v=0
497306 On ch=1 n=f#6 v=0
497321 On ch=1 n=f#5 v=0
497321 On ch=1 n=a5 v=0
497346 On ch=1 n=d#5 v=0
497436 On ch=1 n=c7 v=85
497506 On ch=1 n=a5 v=49
497511 On ch=1 n=f#5 v=43
497511 On ch=1 n=d#5 v=47
497526 On ch=1 n=c5 v=33
497536 On ch=1 n=f#5 v=0
497536 On ch=1 n=a5 v=0
497546 On ch=1 n=d#5 v=0
497546 On ch=1 n=c8 v=110
497561 On ch=1 n=c5 v=0
497771 Par ch=1 c=64 v=104
497786 Par ch=1 c=64 v=0
497796 On ch=1 n=d4 v=89
497856 On ch=1 n=d4 v=0
497876 Par ch=1 c=64 v=56
497896 Par ch=1 c=64 v=127
497916 On ch=1 n=c8 v=0
497926 On ch=1 n=c7 v=0
497961 On ch=1 n=a#7 v=85
498106 On ch=1 n=g7 v=90
498126 On ch=1 n=a#4 v=57
498126 On ch=1 n=d5 v=67
498136 On ch=1 n=g5 v=61
498201 On ch=1 n=g5 v=0
498206 On ch=1 n=d5 v=0
498216 On ch=1 n=a#4 v=0
498216 On ch=1 n=a#7 v=0
498226 On ch=1 n=d7 v=82
498236 On ch=1 n=g7 v=0
498286 On ch=1 n=d7 v=0
498356 On ch=1 n=c7 v=97
498371 On ch=1 n=a#4 v=44
498376 On ch=1 n=d5 v=62
498376 On ch=1 n=g5 v=63
498456 On ch=1 n=g5 v=0
498461 On ch=1 n=d5 v=0
498471 On ch=1 n=a#4 v=0
498601 On ch=1 n=a#4 v=55
498606 On ch=1 n=d5 v=59
498611 On ch=1 n=g5 v=63
498681 On ch=1 n=c7 v=0
498691 On ch=1 n=d5 v=0
498701 On ch=1 n=g5 v=0
498726 On ch=1 n=a#6 v=82
498746 On ch=1 n=a#4 v=0
498846 On ch=1 n=a#6 v=0
498846 On ch=1 n=a#4 v=50
498856 On ch=1 n=g5 v=66
498856 On ch=1 n=d5 v=65
498861 On ch=1 n=g6 v=88
498886 On ch=1 n=g5 v=0
498891 On ch=1 n=d5 v=0
498926 On ch=1 n=a#4 v=0
498966 On ch=1 n=g6 v=0
498986 On ch=1 n=d6 v=82
499061 On ch=1 n=d6 v=0
499121 On ch=1 n=c6 v=90
499131 On ch=1 n=e4 v=68
499201 On ch=1 n=e4 v=0
499201 On ch=1 n=c6 v=0
499246 On ch=1 n=a#5 v=77
499351 On ch=1 n=a#5 v=0
499351 Par ch=1 c=64 v=56
499366 Par ch=1 c=64 v=0
499391 On ch=1 n=a5 v=83
499401 On ch=1 n=f4 v=63
499476 Par ch=1 c=64 v=56
499491 Par ch=1 c=64 v=127
499496 On ch=1 n=a5 v=0
499521 On ch=1 n=d#6 v=83
499601 Par ch=1 c=64 v=72
499616 Par ch=1 c=64 v=24
499631 On ch=1 n=d#6 v=0
499671 On ch=1 n=d#5 v=38
499671 Par ch=1 c=64 v=56
499676 On ch=1 n=f5 v=42
499681 On ch=1 n=c6 v=80
499691 Par ch=1 c=64 v=88
499701 On ch=1 n=a4 v=44
499706 Par ch=1 c=64 v=127
499731 On ch=1 n=f5 v=0
499741 On ch=1 n=c6 v=0
499756 On ch=1 n=a4 v=0
499756 On ch=1 n=d#5 v=0
499806 On ch=1 n=b5 v=82
499846 Par ch=1 c=64 v=56
499866 Par ch=1 c=64 v=0
499901 On ch=1 n=b5 v=0
499941 On ch=1 n=c6 v=86
499946 On ch=1 n=f5 v=57
499951 On ch=1 n=d#5 v=48
499951 Par ch=1 c=64 v=88
499956 On ch=1 n=a4 v=40
499971 Par ch=1 c=64 v=127
499986 On ch=1 n=f5 v=0
499996 On ch=1 n=a4 v=0
499996 On ch=1 n=d#5 v=0
500011 On ch=1 n=c6 v=0
500036 On ch=1 n=f4 v=0
500071 On ch=1 n=a6 v=82
500191 On ch=1 n=a6 v=0
500246 On ch=1 n=g6 v=75
500256 Par ch=1 c=64 v=88
500271 Par ch=1 c=64 v=0
500276 On ch=1 n=a#3 v=58
500366 On ch=1 n=a#3 v=0
500381 Par ch=1 c=64 v=127
500596 On ch=1 n=g6 v=0
500606 On ch=1 n=f6 v=80
500631 On ch=1 n=f4 v=50
500631 On ch=1 n=a#4 v=30
500631 Par ch=1 c=64 v=40
500636 On ch=1 n=d5 v=41
500646 Par ch=1 c=64 v=0
500681 Par ch=1 c=64 v=40
500701 Par ch=1 c=64 v=104
500716 On ch=1 n=d5 v=0
500716 Par ch=1 c=64 v=127
500731 On ch=1 n=a#4 v=0
500736 On ch=1 n=f4 v=0
500776 On ch=1 n=f6 v=0
500986 On ch=1 n=d5 v=53
500986 On ch=1 n=a#4 v=33
500991 On ch=1 n=f4 v=49
501026 On ch=1 n=d5 v=0
501036 On ch=1 n=a#4 v=0
501046 On ch=1 n=f4 v=0
501266 Par ch=1 c=64 v=104
501286 Par ch=1 c=64 v=24
501296 On ch=1 n=d#5 v=63
501296 On ch=1 n=d#4 v=61
501301 Par ch=1 c=64 v=0
501356 Par ch=1 c=64 v=40
501376 Par ch=1 c=64 v=88
501391 On ch=1 n=d#5 v=0
501391 Par ch=1 c=64 v=127
501416 On ch=1 n=d#4 v=0
501441 On ch=1 n=f5 v=70
501466 On ch=1 n=f4 v=59
501536 On ch=1 n=f4 v=0
501556 On ch=1 n=f5 v=0
501586 Par ch=1 c=64 v=104
501606 Par ch=1 c=64 v=24
501616 On ch=1 n=d#6 v=78
501621 On ch=1 n=f#4 v=67
501621 Par ch=1 c=64 v=0
501626 On ch=1 n=a#3 v=59
501626 On ch=1 n=f#5 v=64
501676 Par ch=1 c=64 v=40
501691 Par ch=1 c=64 v=88
501696 On ch=1 n=f#5 v=0
501706 On ch=1 n=f#4 v=0
501711 Par ch=1 c=64 v=127
501741 On ch=1 n=d#6 v=0
501761 On ch=1 n=g4 v=63
501761 On ch=1 n=g5 v=79
501786 On ch=1 n=a#3 v=0
501846 On ch=1 n=g5 v=0
501846 On ch=1 n=g4 v=0
501886 On ch=1 n=g#4 v=50
501891 On ch=1 n=g#5 v=60
501966 On ch=1 n=g#4 v=0
501976 On ch=1 n=g#5 v=0
502011 On ch=1 n=d6 v=81
502031 On ch=1 n=a4 v=53
502071 On ch=1 n=a4 v=0
502116 On ch=1 n=d6 v=0
502156 Par ch=1 c=64 v=88
502171 Par ch=1 c=64 v=0
502191 On ch=1 n=c6 v=83
502201 On ch=1 n=a5 v=60
502211 On ch=1 n=a#3 v=60
502231 On ch=1 n=a5 v=0
502281 Par ch=1 c=64 v=72
502286 On ch=1 n=a#3 v=0
502296 Par ch=1 c=64 v=127
502486 On ch=1 n=c6 v=0
502521 On ch=1 n=a#5 v=62
502526 Par ch=1 c=64 v=88
502541 On ch=1 n=f4 v=53
502546 Par ch=1 c=64 v=0
502556 On ch=1 n=d5 v=36
502556 On ch=1 n=a#4 v=31
502616 Par ch=1 c=64 v=56
502631 On ch=1 n=d5 v=0
502636 Par ch=1 c=64 v=127
502641 On ch=1 n=f4 v=0
502656 On ch=1 n=a#4 v=0
502826 On ch=1 n=a#5 v=0
502856 On ch=1 n=a#4 v=42
502866 On ch=1 n=d5 v=24
502891 On ch=1 n=a#4 v=0
502896 On ch=1 n=d5 v=0
503096 Par ch=1 c=64 v=88
503116 Par ch=1 c=64 v=0
503131 On ch=1 n=a5 v=75
503131 On ch=1 n=a#3 v=62
503186 Par ch=1 c=64 v=40
503201 On ch=1 n=a#3 v=0
503206 Par ch=1 c=64 v=127
503221 On ch=1 n=a5 v=0
503261 On ch=1 n=d#6 v=79
503361 On ch=1 n=d#6 v=0
503396 On ch=1 n=c6 v=84
503401 On ch=1 n=d#5 v=43
503416 On ch=1 n=a4 v=42
503456 On ch=1 n=a4 v=0
503461 On ch=1 n=c6 v=0
503476 On ch=1 n=d#5 v=0
503521 On ch=1 n=b5 v=78
503611 On ch=1 n=b5 v=0
503636 On ch=1 n=c6 v=87
503656 On ch=1 n=d#5 v=48
503656 On ch=1 n=a4 v=56
503676 On ch=1 n=f4 v=36
503691 On ch=1 n=a4 v=0
503696 On ch=1 n=d#5 v=0
503716 On ch=1 n=c6 v=0
503721 On ch=1 n=f4 v=0
503771 On ch=1 n=a6 v=83
503886 On ch=1 n=a6 v=0
503921 On ch=1 n=g6 v=76
503951 Par ch=1 c=64 v=24
503966 Par ch=1 c=64 v=0
503971 On ch=1 n=a#3 v=61
504046 On ch=1 n=a#3 v=0
504071 Par ch=1 c=64 v=104
504091 Par ch=1 c=64 v=127
504251 On ch=1 n=f6 v=88
504266 On ch=1 n=g6 v=0
504291 On ch=1 n=d5 v=41
504291 On ch=1 n=a#4 v=34
504301 On ch=1 n=f4 v=37
504341 On ch=1 n=d5 v=0
504346 On ch=1 n=f6 v=0
504351 On ch=1 n=a#4 v=0
504356 On ch=1 n=f4 v=0
504531 On ch=1 n=d5 v=58
504536 On ch=1 n=f4 v=52
504536 On ch=1 n=a#4 v=37
504566 On ch=1 n=d5 v=0
504576 On ch=1 n=a#4 v=0
504586 On ch=1 n=f4 v=0
504766 Par ch=1 c=64 v=24
504786 Par ch=1 c=64 v=0
504796 On ch=1 n=d#5 v=68
504801 On ch=1 n=d#4 v=65
504856 Par ch=1 c=64 v=40
504871 Par ch=1 c=64 v=88
504876 On ch=1 n=d#4 v=0
504881 On ch=1 n=d#5 v=0
504891 Par ch=1 c=64 v=127
504926 On ch=1 n=f5 v=70
504936 On ch=1 n=f4 v=60
505001 On ch=1 n=f4 v=0
505016 Par ch=1 c=64 v=88
505031 On ch=1 n=f5 v=0
505031 Par ch=1 c=64 v=0
505071 On ch=1 n=d#6 v=80
505091 On ch=1 n=f#5 v=62
505091 On ch=1 n=f#4 v=64
505101 On ch=1 n=a#3 v=46
505121 Par ch=1 c=64 v=56
505141 Par ch=1 c=64 v=127
505156 On ch=1 n=f#5 v=0
505171 On ch=1 n=f#4 v=0
505196 On ch=1 n=a#3 v=0
505216 On ch=1 n=g5 v=76
505216 On ch=1 n=g4 v=63
505226 On ch=1 n=d#6 v=0
505301 On ch=1 n=g4 v=0
505316 On ch=1 n=g5 v=0
505331 On ch=1 n=g#4 v=53
505361 On ch=1 n=g#5 v=56
505426 On ch=1 n=g#4 v=0
505456 On ch=1 n=g#5 v=0
505491 On ch=1 n=d6 v=74
505501 On ch=1 n=a4 v=46
505501 On ch=1 n=d4 v=41
505561 On ch=1 n=d4 v=0
505561 On ch=1 n=a4 v=0
505596 On ch=1 n=d6 v=0
505656 Par ch=1 c=64 v=56
505671 Par ch=1 c=64 v=0
505676 On ch=1 n=c6 v=77
505691 On ch=1 n=g3 v=62
505706 On ch=1 n=a5 v=33
505751 On ch=1 n=a5 v=0
505751 On ch=1 n=g3 v=0
505776 Par ch=1 c=64 v=72
505796 Par ch=1 c=64 v=127
506001 On ch=1 n=c6 v=0
506011 On ch=1 n=a#5 v=67
506011 Par ch=1 c=64 v=56
506026 Par ch=1 c=64 v=0
506031 On ch=1 n=d4 v=46
506036 On ch=1 n=a#4 v=52
506081 Par ch=1 c=64 v=40
506096 Par ch=1 c=64 v=88
506116 Par ch=1 c=64 v=127
506136 On ch=1 n=d4 v=0
506156 On ch=1 n=a#4 v=0
506331 On ch=1 n=a#4 v=49
506346 On ch=1 n=a#5 v=0
506361 On ch=1 n=d4 v=42
506401 On ch=1 n=d4 v=0
506406 On ch=1 n=a#4 v=0
506631 Par ch=1 c=64 v=88
506646 Par ch=1 c=64 v=0
506676 On ch=1 n=d#5 v=58
506696 On ch=1 n=c4 v=63
506736 Par ch=1 c=64 v=40
506751 Par ch=1 c=64 v=104
506761 On ch=1 n=d#5 v=0
506771 Par ch=1 c=64 v=127
506821 On ch=1 n=f5 v=63
506901 On ch=1 n=f5 v=0
506931 Par ch=1 c=64 v=104
506951 Par ch=1 c=64 v=56
506961 On ch=1 n=d#6 v=81
506971 On ch=1 n=c5 v=57
506981 On ch=1 n=f#5 v=61
506986 Par ch=1 c=64 v=88
507001 Par ch=1 c=64 v=127
507046 On ch=1 n=f#5 v=0
507101 On ch=1 n=d#6 v=0
507121 On ch=1 n=g5 v=66
507236 On ch=1 n=c4 v=0
507251 On ch=1 n=g4 v=55
507266 On ch=1 n=g#5 v=62
507276 On ch=1 n=g5 v=0
507396 On ch=1 n=g#5 v=0
507396 On ch=1 n=d6 v=87
507491 On ch=1 n=c5 v=0
507526 On ch=1 n=g4 v=0
507546 On ch=1 n=d6 v=0
507586 Par ch=1 c=64 v=56
507591 On ch=1 n=d4 v=48
507601 On ch=1 n=c6 v=89
507606 Par ch=1 c=64 v=0
507696 Par ch=1 c=64 v=56
507716 Par ch=1 c=64 v=127
507761 On ch=1 n=c6 v=0
507761 On ch=1 n=g#5 v=69
507856 On ch=1 n=g#5 v=0
507891 Par ch=1 c=64 v=104
507906 Par ch=1 c=64 v=0
507916 On ch=1 n=b5 v=77
507921 On ch=1 n=b4 v=45
507951 On ch=1 n=g5 v=54
507996 Par ch=1 c=64 v=72
508001 On ch=1 n=g5 v=0
508016 Par ch=1 c=64 v=127
508046 On ch=1 n=b5 v=0
508066 On ch=1 n=f5 v=70
508146 On ch=1 n=f5 v=0
508171 On ch=1 n=b4 v=0
508206 On ch=1 n=d#5 v=53
508216 On ch=1 n=d4 v=0
508226 On ch=1 n=g4 v=44
508296 On ch=1 n=d#5 v=0
508346 On ch=1 n=d5 v=60
508441 On ch=1 n=d5 v=0
508441 Par ch=1 c=64 v=40
508456 Par ch=1 c=64 v=0
508486 On ch=1 n=g4 v=0
508496 On ch=1 n=d#5 v=65
508506 On ch=1 n=c4 v=54
508526 Par ch=1 c=64 v=40
508546 Par ch=1 c=64 v=104
508566 Par ch=1 c=64 v=127
508576 On ch=1 n=d#5 v=0
508626 On ch=1 n=f5 v=82
508726 On ch=1 n=f5 v=0
508771 On ch=1 n=d#6 v=86
508786 On ch=1 n=c5 v=59
508796 On ch=1 n=f#5 v=62
508846 On ch=1 n=c4 v=0
508901 On ch=1 n=f#5 v=0
508926 On ch=1 n=g5 v=69
508976 On ch=1 n=d#6 v=0
509041 On ch=1 n=g4 v=40
509046 On ch=1 n=g#5 v=72
509061 On ch=1 n=g5 v=0
509181 On ch=1 n=d6 v=85
509191 On ch=1 n=g#5 v=0
509191 On ch=1 n=g4 v=0
509266 On ch=1 n=c5 v=0
509291 On ch=1 n=d6 v=0
509326 Par ch=1 c=64 v=72
509341 On ch=1 n=a#4 v=54
509346 Par ch=1 c=64 v=0
509351 On ch=1 n=c6 v=88
509356 On ch=1 n=d4 v=53
509361 On ch=1 n=g#5 v=49
509436 Par ch=1 c=64 v=40
509451 Par ch=1 c=64 v=104
509466 On ch=1 n=d4 v=0
509471 On ch=1 n=a#4 v=0
509471 Par ch=1 c=64 v=127
509501 On ch=1 n=c5 v=79
509566 On ch=1 n=g#5 v=0
509611 On ch=1 n=c5 v=0
509621 On ch=1 n=c6 v=0
509651 On ch=1 n=d5 v=59
509656 On ch=1 n=a#5 v=81
509676 On ch=1 n=g#5 v=48
509716 On ch=1 n=g#5 v=0
509761 On ch=1 n=d5 v=0
509801 On ch=1 n=d#5 v=67
509906 On ch=1 n=d#5 v=0
509916 On ch=1 n=a#5 v=0
509931 On ch=1 n=f5 v=82
509996 On ch=1 n=f5 v=0
510056 On ch=1 n=f#5 v=69
510156 On ch=1 n=f#5 v=0
510211 On ch=1 n=g5 v=89
510236 Par ch=1 c=64 v=104
510251 Par ch=1 c=64 v=24
510261 On ch=1 n=d#4 v=61
510271 Par ch=1 c=64 v=0
510341 Par ch=1 c=64 v=72
510351 On ch=1 n=d#4 v=0
510356 On ch=1 n=g#5 v=79
510356 Par ch=1 c=64 v=127
510366 On ch=1 n=g5 v=0
510446 On ch=1 n=g#5 v=0
510521 On ch=1 n=g6 v=100
510521 On ch=1 n=g5 v=58
510526 On ch=1 n=a5 v=81
510596 On ch=1 n=a5 v=0
510661 On ch=1 n=a#5 v=69
510741 On ch=1 n=g6 v=0
510766 On ch=1 n=a#5 v=0
510791 On ch=1 n=a4 v=60
510806 On ch=1 n=g5 v=0
510806 On ch=1 n=b5 v=78
510846 On ch=1 n=a4 v=0
510906 On ch=1 n=b5 v=0
510946 On ch=1 n=a6 v=93
511056 On ch=1 n=a6 v=0
511106 On ch=1 n=g6 v=94
511116 On ch=1 n=d6 v=81
511121 On ch=1 n=d4 v=70
511121 Par ch=1 c=64 v=104
511141 Par ch=1 c=64 v=0
511186 On ch=1 n=d6 v=0
511246 Par ch=1 c=64 v=88
511251 On ch=1 n=a4 v=63
511266 On ch=1 n=d4 v=0
511266 Par ch=1 c=64 v=127
511321 On ch=1 n=a4 v=0
511381 On ch=1 n=d5 v=66
511466 On ch=1 n=d5 v=0
511526 On ch=1 n=f#5 v=70
511656 On ch=1 n=a5 v=70
511666 On ch=1 n=f#6 v=95
511706 On ch=1 n=g6 v=0
511751 On ch=1 n=f#6 v=0
511771 On ch=1 n=a5 v=0
511801 On ch=1 n=f#5 v=0
511811 On ch=1 n=d6 v=55
511871 On ch=1 n=d6 v=0
511971 On ch=1 n=g6 v=99
511971 On ch=1 n=d#4 v=53
511976 Par ch=1 c=64 v=56
511991 Par ch=1 c=64 v=0
512031 On ch=1 n=d#4 v=0
512046 Par ch=1 c=64 v=127
512066 On ch=1 n=g6 v=0
512101 On ch=1 n=g#6 v=93
512181 On ch=1 n=g#6 v=0
512241 On ch=1 n=a6 v=90
512246 On ch=1 n=g6 v=74
512266 On ch=1 n=g7 v=93
512311 On ch=1 n=a6 v=0
512336 On ch=1 n=g7 v=0
512396 On ch=1 n=a#6 v=86
512401 On ch=1 n=g7 v=70
512476 On ch=1 n=a#6 v=0
512516 On ch=1 n=g7 v=0
512541 On ch=1 n=c7 v=68
512546 On ch=1 n=a5 v=81
512551 On ch=1 n=b6 v=74
512571 On ch=1 n=g6 v=0
512606 On ch=1 n=b6 v=0
512606 On ch=1 n=a5 v=0
512616 On ch=1 n=c7 v=0
512671 On ch=1 n=a7 v=105
512776 On ch=1 n=a7 v=0
512831 On ch=1 n=g7 v=99
512836 On ch=1 n=d7 v=88
512856 On ch=1 n=d5 v=77
512861 Par ch=1 c=64 v=56
512881 Par ch=1 c=64 v=0
512891 On ch=1 n=d7 v=0
512966 Par ch=1 c=64 v=104
512981 On ch=1 n=a5 v=73
512986 Par ch=1 c=64 v=127
512996 On ch=1 n=d5 v=0
513086 On ch=1 n=a5 v=0
513131 On ch=1 n=d6 v=84
513231 On ch=1 n=d6 v=0
513286 On ch=1 n=f#6 v=84
513406 On ch=1 n=g7 v=0
513451 On ch=1 n=f#7 v=95
513451 On ch=1 n=a6 v=72
513551 On ch=1 n=f#7 v=0
513596 On ch=1 n=a6 v=0
513641 On ch=1 n=d7 v=86
513671 On ch=1 n=d7 v=0
513701 On ch=1 n=f#6 v=0
514011 On ch=1 n=a5 v=102
514011 Par ch=1 c=64 v=40
514036 Par ch=1 c=64 v=0
514061 On ch=1 n=d3 v=80
514096 On ch=1 n=d3 v=0
514106 Par ch=1 c=64 v=72
514121 Par ch=1 c=64 v=127
514151 On ch=1 n=a5 v=0
514196 On ch=1 n=d#6 v=89
514301 On ch=1 n=d#6 v=0
514351 On ch=1 n=c6 v=103
514381 On ch=1 n=f#5 v=40
514386 On ch=1 n=a5 v=64
514391 On ch=1 n=d#5 v=34
514411 On ch=1 n=f#5 v=0
514441 On ch=1 n=c6 v=0
514466 On ch=1 n=a5 v=0
514476 On ch=1 n=b5 v=92
514481 On ch=1 n=d#5 v=0
514591 On ch=1 n=c6 v=100
514606 On ch=1 n=b5 v=0
514621 On ch=1 n=a5 v=64
514621 On ch=1 n=d#5 v=46
514646 On ch=1 n=c5 v=35
514646 On ch=1 n=f#5 v=31
514681 On ch=1 n=f#5 v=0
514686 On ch=1 n=c5 v=0
514696 On ch=1 n=a5 v=0
514701 On ch=1 n=d#5 v=0
514721 On ch=1 n=c6 v=0
514721 On ch=1 n=a6 v=92
514846 On ch=1 n=g6 v=85
514851 On ch=1 n=d#5 v=60
514856 On ch=1 n=a5 v=78
514861 On ch=1 n=c5 v=62
514871 On ch=1 n=f#5 v=43
514881 On ch=1 n=a6 v=0
514901 On ch=1 n=f#5 v=0
514901 On ch=1 n=c5 v=0
514921 On ch=1 n=d#5 v=0
514926 On ch=1 n=a5 v=0
515076 On ch=1 n=g6 v=0
515111 On ch=1 n=f#6 v=96
515141 On ch=1 n=a5 v=74
515141 On ch=1 n=f#5 v=54
515141 On ch=1 n=d#5 v=56
515151 On ch=1 n=c5 v=53
515191 On ch=1 n=c5 v=0
515196 On ch=1 n=f#5 v=0
515196 On ch=1 n=a5 v=0
515196 On ch=1 n=f#6 v=0
515216 On ch=1 n=d#5 v=0
515376 On ch=1 n=d#5 v=57
515376 On ch=1 n=a5 v=66
515381 On ch=1 n=f#5 v=42
515391 On ch=1 n=d#6 v=79
515406 On ch=1 n=a5 v=0
515416 On ch=1 n=f#5 v=0
515436 On ch=1 n=d#5 v=0
515606 On ch=1 n=d#6 v=0
515646 On ch=1 n=a4 v=83
515646 On ch=1 n=d4 v=84
515651 Par ch=1 c=64 v=40
515661 On ch=1 n=a5 v=86
515666 Par ch=1 c=64 v=0
515701 On ch=1 n=a4 v=0
515711 On ch=1 n=d4 v=0
515716 Par ch=1 c=64 v=88
515741 Par ch=1 c=64 v=127
515791 On ch=1 n=d#6 v=87
515796 On ch=1 n=a5 v=0
515906 On ch=1 n=d#5 v=56
515906 On ch=1 n=f#5 v=54
515911 On ch=1 n=d#6 v=0
515911 On ch=1 n=a5 v=59
515916 On ch=1 n=c6 v=97
515926 On ch=1 n=c5 v=56
515961 On ch=1 n=c5 v=0
515986 On ch=1 n=f#5 v=0
516001 On ch=1 n=a5 v=0
516006 On ch=1 n=d#5 v=0
516011 On ch=1 n=c6 v=0
516021 On ch=1 n=b5 v=89
516131 On ch=1 n=c6 v=94
516146 On ch=1 n=b5 v=0
516181 On ch=1 n=d#5 v=55
516186 On ch=1 n=a5 v=70
516191 On ch=1 n=f#5 v=40
516196 On ch=1 n=c5 v=50
516211 On ch=1 n=c6 v=0
516231 On ch=1 n=f#5 v=0
516236 On ch=1 n=c5 v=0
516251 On ch=1 n=a5 v=0
516251 On ch=1 n=a6 v=89
516261 On ch=1 n=d#5 v=0
516371 On ch=1 n=g6 v=90
516396 On ch=1 n=a6 v=0
516411 On ch=1 n=a5 v=78
516411 On ch=1 n=f#5 v=56
516411 On ch=1 n=d#5 v=56
516416 On ch=1 n=c5 v=57
516456 On ch=1 n=c5 v=0
516471 On ch=1 n=f#5 v=0
516481 On ch=1 n=a5 v=0
516486 On ch=1 n=d#5 v=0
516621 On ch=1 n=g6 v=0
516641 On ch=1 n=f#6 v=92
516666 On ch=1 n=f#5 v=60
516666 On ch=1 n=a5 v=74
516666 On ch=1 n=d#5 v=58
516676 On ch=1 n=c5 v=58
516731 On ch=1 n=f#5 v=0
516736 On ch=1 n=a5 v=0
516736 On ch=1 n=f#6 v=0
516751 On ch=1 n=c5 v=0
516756 On ch=1 n=d#5 v=0
516891 On ch=1 n=d#6 v=81
516891 On ch=1 n=d#5 v=64
516896 On ch=1 n=a5 v=70
516896 On ch=1 n=f#5 v=47
516906 On ch=1 n=c5 v=56
516926 On ch=1 n=f#5 v=0
516926 On ch=1 n=a5 v=0
516931 On ch=1 n=c5 v=0
516946 On ch=1 n=d#5 v=0
516991 On ch=1 n=d#6 v=0
517141 Par ch=1 c=64 v=88
517161 Par ch=1 c=64 v=0
517166 On ch=1 n=a5 v=93
517166 On ch=1 n=a4 v=70
517181 On ch=1 n=d4 v=68
517206 On ch=1 n=a4 v=0
517211 On ch=1 n=d4 v=0
517231 Par ch=1 c=64 v=72
517246 Par ch=1 c=64 v=127
517256 On ch=1 n=a5 v=0
517286 On ch=1 n=d#6 v=95
517426 On ch=1 n=f#5 v=44
517426 On ch=1 n=d#5 v=39
517431 On ch=1 n=a5 v=57
517451 On ch=1 n=c5 v=42
517486 On ch=1 n=a5 v=0
517491 On ch=1 n=c5 v=0
517491 On ch=1 n=f#5 v=0
517501 On ch=1 n=d#5 v=0
517641 On ch=1 n=d#5 v=56
517651 On ch=1 n=a5 v=69
517656 On ch=1 n=c5 v=59
517656 On ch=1 n=f#5 v=40
517696 On ch=1 n=f#5 v=0
517696 On ch=1 n=c5 v=0
517701 On ch=1 n=a5 v=0
517716 On ch=1 n=d#5 v=0
517816 On ch=1 n=d#6 v=0
517866 On ch=1 n=c6 v=99
517876 On ch=1 n=a5 v=73
517881 On ch=1 n=f#5 v=53
517881 On ch=1 n=d#5 v=48
517896 On ch=1 n=c5 v=49
517921 On ch=1 n=f#5 v=0
517931 On ch=1 n=c5 v=0
517931 On ch=1 n=a5 v=0
517941 On ch=1 n=d#5 v=0
517971 On ch=1 n=c6 v=0
517976 On ch=1 n=b5 v=89
518101 On ch=1 n=d#5 v=59
518106 On ch=1 n=a5 v=78
518106 On ch=1 n=f#5 v=58
518111 On ch=1 n=c5 v=63
518131 On ch=1 n=b5 v=0
518146 On ch=1 n=c5 v=0
518146 On ch=1 n=f#5 v=0
518146 On ch=1 n=a5 v=0
518171 On ch=1 n=d#5 v=0
518311 On ch=1 n=d#5 v=59
518321 On ch=1 n=a5 v=73
518321 On ch=1 n=f#5 v=43
518331 On ch=1 n=c5 v=52
518356 On ch=1 n=a5 v=0
518361 On ch=1 n=f#5 v=0
518376 On ch=1 n=c5 v=0
518381 On ch=1 n=d#5 v=0
518526 On ch=1 n=c6 v=90
518541 On ch=1 n=d#5 v=49
518546 On ch=1 n=a5 v=74
518546 On ch=1 n=f#5 v=46
518561 On ch=1 n=c5 v=49
518581 On ch=1 n=f#5 v=0
518581 On ch=1 n=a5 v=0
518591 On ch=1 n=d#5 v=0
518596 On ch=1 n=c5 v=0
518631 On ch=1 n=c6 v=0
518646 On ch=1 n=a6 v=102
518751 On ch=1 n=a5 v=80
518751 On ch=1 n=d#5 v=54
518756 On ch=1 n=c5 v=72
518761 On ch=1 n=f#5 v=50
518791 On ch=1 n=f#5 v=0
518806 On ch=1 n=c5 v=0
518806 On ch=1 n=d#5 v=0
518816 On ch=1 n=a5 v=0
518941 On ch=1 n=a5 v=74
518946 On ch=1 n=d#5 v=44
518951 On ch=1 n=c5 v=60
518951 On ch=1 n=f#5 v=37
518976 On ch=1 n=a5 v=0
518981 On ch=1 n=f#5 v=0
518981 On ch=1 n=c5 v=0
518986 On ch=1 n=d#5 v=0
518996 On ch=1 n=a6 v=0
519156 On ch=1 n=g6 v=100
519181 On ch=1 n=a5 v=82
519181 On ch=1 n=d#5 v=56
519186 On ch=1 n=c5 v=75
519186 On ch=1 n=f#5 v=55
519216 On ch=1 n=f#5 v=0
519231 On ch=1 n=c5 v=0
519231 On ch=1 n=d#5 v=0
519231 On ch=1 n=a5 v=0
519271 On ch=1 n=f#6 v=102
519306 On ch=1 n=g6 v=0
519401 On ch=1 n=f#5 v=57
519401 On ch=1 n=d#5 v=56
519401 On ch=1 n=a5 v=75
519406 On ch=1 n=c5 v=62
519426 On ch=1 n=f#6 v=0
519446 On ch=1 n=c5 v=0
519451 On ch=1 n=a5 v=0
519451 On ch=1 n=f#5 v=0
519466 On ch=1 n=d#5 v=0
519596 On ch=1 n=d#5 v=67
519601 On ch=1 n=a5 v=69
519601 On ch=1 n=f#5 v=38
519601 On ch=1 n=c5 v=55
519626 On ch=1 n=d#5 v=0
519631 On ch=1 n=a5 v=0
519636 On ch=1 n=f#5 v=0
519661 On ch=1 n=c5 v=0
519841 Par ch=1 c=64 v=104
519846 On ch=1 n=a5 v=100
519846 On ch=1 n=a6 v=102
519856 On ch=1 n=a4 v=71
519861 On ch=1 n=d4 v=76
519861 Par ch=1 c=64 v=0
519891 On ch=1 n=a4 v=0
519901 On ch=1 n=d4 v=0
519921 On ch=1 n=a5 v=0
519931 Par ch=1 c=64 v=56
519946 Par ch=1 c=64 v=127
519976 On ch=1 n=a6 v=0
520061 On ch=1 n=f#5 v=65
520066 On ch=1 n=a5 v=69
520071 On ch=1 n=d#5 v=57
520091 On ch=1 n=c5 v=40
520096 On ch=1 n=a5 v=0
520106 On ch=1 n=d#5 v=0
520106 On ch=1 n=f#5 v=0
520131 On ch=1 n=c5 v=0
520251 On ch=1 n=d#7 v=105
520256 On ch=1 n=d#6 v=100
520261 On ch=1 n=d#5 v=69
520271 On ch=1 n=f#5 v=56
520271 On ch=1 n=a5 v=73
520276 On ch=1 n=c5 v=66
520301 On ch=1 n=c5 v=0
520301 On ch=1 n=f#5 v=0
520306 On ch=1 n=a5 v=0
520326 On ch=1 n=d#5 v=0
520336 On ch=1 n=d#6 v=0
520376 On ch=1 n=d#7 v=0
520446 On ch=1 n=d#5 v=58
520451 On ch=1 n=f#5 v=57
520456 On ch=1 n=a5 v=74
520471 On ch=1 n=c5 v=42
520476 On ch=1 n=f#5 v=0
520486 On ch=1 n=a5 v=0
520491 On ch=1 n=d#5 v=0
520506 On ch=1 n=c5 v=0
520626 On ch=1 n=c7 v=103
520626 On ch=1 n=c6 v=96
520641 On ch=1 n=d#5 v=57
520646 On ch=1 n=a5 v=77
520646 On ch=1 n=f#5 v=52
520651 On ch=1 n=c5 v=52
520676 On ch=1 n=a5 v=0
520681 On ch=1 n=f#5 v=0
520686 On ch=1 n=c5 v=0
520696 On ch=1 n=d#5 v=0
520721 On ch=1 n=c6 v=0
520761 On ch=1 n=c7 v=0
520806 On ch=1 n=a5 v=79
520811 On ch=1 n=f#5 v=46
520811 On ch=1 n=d#5 v=46
520821 On ch=1 n=c5 v=53
520831 On ch=1 n=a5 v=0
520836 On ch=1 n=f#5 v=0
520846 On ch=1 n=d#5 v=0
520851 On ch=1 n=c5 v=0
520966 On ch=1 n=b6 v=100
520966 On ch=1 n=b5 v=89
520976 On ch=1 n=a5 v=81
520976 On ch=1 n=f#5 v=55
520981 On ch=1 n=c5 v=63
520981 On ch=1 n=d#5 v=44
521006 On ch=1 n=f#5 v=0
521006 On ch=1 n=a5 v=0
521016 On ch=1 n=d#5 v=0
521016 On ch=1 n=c5 v=0
521031 On ch=1 n=b5 v=0
521066 On ch=1 n=b6 v=0
521136 On ch=1 n=d#5 v=54
521141 On ch=1 n=a5 v=76
521146 On ch=1 n=f#5 v=44
521146 On ch=1 n=c5 v=54
521171 On ch=1 n=a5 v=0
521171 On ch=1 n=d#5 v=0
521176 On ch=1 n=c5 v=0
521176 On ch=1 n=f#5 v=0
521286 On ch=1 n=c7 v=103
521286 On ch=1 n=c6 v=97
521301 On ch=1 n=a5 v=82
521301 On ch=1 n=d#5 v=56
521306 On ch=1 n=c5 v=68
521311 On ch=1 n=f#5 v=50
521331 On ch=1 n=a5 v=0
521336 On ch=1 n=f#5 v=0
521336 On ch=1 n=c5 v=0
521341 On ch=1 n=d#5 v=0
521341 On ch=1 n=c6 v=0
521381 On ch=1 n=c7 v=0
521461 On ch=1 n=d#5 v=60
521466 On ch=1 n=a5 v=82
521471 On ch=1 n=c5 v=61
521471 On ch=1 n=f#5 v=47
521491 On ch=1 n=a5 v=0
521501 On ch=1 n=f#5 v=0
521501 On ch=1 n=c5 v=0
521506 On ch=1 n=d#5 v=0
521611 On ch=1 n=a7 v=112
521616 On ch=1 n=a6 v=96
521636 On ch=1 n=a5 v=92
521636 On ch=1 n=d#5 v=73
521646 On ch=1 n=c5 v=74
521646 On ch=1 n=f#5 v=64
521671 On ch=1 n=f#5 v=0
521671 On ch=1 n=a5 v=0
521676 On ch=1 n=c5 v=0
521681 On ch=1 n=d#5 v=0
521681 On ch=1 n=a6 v=0
521696 On ch=1 n=a7 v=0
521791 On ch=1 n=a5 v=93
521791 On ch=1 n=d#5 v=69
521796 On ch=1 n=f#5 v=61
521801 On ch=1 n=c5 v=70
521826 On ch=1 n=f#5 v=0
521826 On ch=1 n=a5 v=0
521831 On ch=1 n=c5 v=0
521836 On ch=1 n=d#5 v=0
521951 On ch=1 n=g7 v=109
521956 On ch=1 n=g6 v=105
521961 On ch=1 n=d#5 v=71
521966 On ch=1 n=a5 v=92
521966 On ch=1 n=f#5 v=69
521971 On ch=1 n=c5 v=74
521991 On ch=1 n=a5 v=0
521996 On ch=1 n=f#5 v=0
522001 On ch=1 n=c5 v=0
522016 On ch=1 n=d#5 v=0
522021 On ch=1 n=g6 v=0
522031 On ch=1 n=g7 v=0
522111 On ch=1 n=a5 v=90
522111 On ch=1 n=f#5 v=63
522116 On ch=1 n=d#5 v=64
522121 On ch=1 n=c5 v=70
522146 On ch=1 n=a5 v=0
522151 On ch=1 n=c5 v=0
522161 On ch=1 n=f#5 v=0
522171 On ch=1 n=d#5 v=0
522281 On ch=1 n=f#7 v=106
522286 On ch=1 n=f#6 v=102
522291 On ch=1 n=d#5 v=67
522291 On ch=1 n=a5 v=88
522301 On ch=1 n=f#5 v=60
522301 On ch=1 n=c5 v=72
522326 On ch=1 n=a5 v=0
522331 On ch=1 n=c5 v=0
522331 On ch=1 n=f#5 v=0
522341 On ch=1 n=f#6 v=0
522351 On ch=1 n=d#5 v=0
522366 On ch=1 n=f#7 v=0
522466 On ch=1 n=d#5 v=61
522471 On ch=1 n=a5 v=78
522471 On ch=1 n=f#5 v=56
522471 On ch=1 n=c5 v=55
522496 On ch=1 n=d#5 v=0
522501 On ch=1 n=f#5 v=0
522501 On ch=1 n=a5 v=0
522531 On ch=1 n=c5 v=0
523091 Par ch=1 c=64 v=104
523111 Par ch=1 c=64 v=88
523126 Par ch=1 c=64 v=56
523146 Par ch=1 c=64 v=40
523161 Par ch=1 c=64 v=0
525121 On ch=1 n=f7 v=84
525211 On ch=1 n=f7 v=0
525216 On ch=1 n=c#7 v=86
525271 Par ch=1 c=64 v=56
525281 On ch=1 n=f6 v=24
525286 Par ch=1 c=64 v=88
525306 Par ch=1 c=64 v=127
525321 On ch=1 n=c#7 v=0
525476 On ch=1 n=f6 v=0
525516 On ch=1 n=d7 v=84
525601 On ch=1 n=d7 v=0
525601 On ch=1 n=a6 v=72
525601 Par ch=1 c=64 v=72
525616 Par ch=1 c=64 v=0
525621 On ch=1 n=f#4 v=60
525656 On ch=1 n=d6 v=39
525726 Par ch=1 c=64 v=40
525741 Par ch=1 c=64 v=88
525751 On ch=1 n=a6 v=0
525761 Par ch=1 c=64 v=127
525836 On ch=1 n=d6 v=0
525906 On ch=1 n=a#6 v=77
525986 Par ch=1 c=64 v=104
525991 On ch=1 n=a#6 v=0
525991 On ch=1 n=f#4 v=0
525996 On ch=1 n=f#6 v=76
526001 On ch=1 n=d#4 v=54
526006 Par ch=1 c=64 v=24
526016 Par ch=1 c=64 v=0
526021 On ch=1 n=a#5 v=56
526031 On ch=1 n=g4 v=58
526101 On ch=1 n=f#6 v=0
526126 Par ch=1 c=64 v=56
526141 Par ch=1 c=64 v=88
526161 Par ch=1 c=64 v=127
526171 On ch=1 n=a#5 v=0
526306 On ch=1 n=g6 v=76
526386 On ch=1 n=g6 v=0
526386 Par ch=1 c=64 v=72
526396 On ch=1 n=g4 v=0
526401 Par ch=1 c=64 v=0
526406 On ch=1 n=d6 v=71
526421 On ch=1 n=a#4 v=57
526431 On ch=1 n=d#4 v=0
526446 On ch=1 n=g5 v=38
526526 Par ch=1 c=64 v=24
526541 Par ch=1 c=64 v=56
526561 Par ch=1 c=64 v=88
526576 On ch=1 n=d6 v=0
526576 Par ch=1 c=64 v=104
526596 Par ch=1 c=64 v=127
526646 On ch=1 n=g5 v=0
526706 On ch=1 n=d#6 v=67
526776 On ch=1 n=d#6 v=0
526821 Par ch=1 c=64 v=88
526836 On ch=1 n=b5 v=68
526841 Par ch=1 c=64 v=40
526856 Par ch=1 c=64 v=0
526871 On ch=1 n=a#4 v=0
526871 On ch=1 n=f4 v=40
526876 On ch=1 n=d#5 v=40
526881 On ch=1 n=a4 v=52
526966 On ch=1 n=b5 v=0
526981 On ch=1 n=d#5 v=0
526981 Par ch=1 c=64 v=40
526996 Par ch=1 c=64 v=88
527016 Par ch=1 c=64 v=104
527031 Par ch=1 c=64 v=127
527231 On ch=1 n=c6 v=62
527266 On ch=1 n=c6 v=0
527341 Par ch=1 c=64 v=104
527351 On ch=1 n=a#5 v=58
527356 On ch=1 n=a4 v=0
527361 Par ch=1 c=64 v=88
527376 On ch=1 n=a#4 v=49
527381 On ch=1 n=d5 v=47
527381 Par ch=1 c=64 v=56
527396 Par ch=1 c=64 v=0
527406 On ch=1 n=f4 v=0
527571 Par ch=1 c=64 v=40
527586 Par ch=1 c=64 v=104
527606 Par ch=1 c=64 v=127
527626 On ch=1 n=a#4 v=0
527911 On ch=1 n=d5 v=0
527956 On ch=1 n=a#3 v=45
527956 Par ch=1 c=64 v=104
527971 Par ch=1 c=64 v=56
527991 Par ch=1 c=64 v=24
528041 Par ch=1 c=64 v=72
528061 Par ch=1 c=64 v=127
528071 On ch=1 n=a#3 v=0
528081 On ch=1 n=a#5 v=0
528651 Par ch=1 c=64 v=104
528671 Par ch=1 c=64 v=88
528686 Par ch=1 c=64 v=72
528706 Par ch=1 c=64 v=56
528721 Par ch=1 c=64 v=40
528741 Par ch=1 c=64 v=0
528901 On ch=1 n=f3 v=56
528941 On ch=1 n=f3 v=0
528946 Par ch=1 c=64 v=56
528966 Par ch=1 c=64 v=127
529141 Par ch=1 c=64 v=104
529156 Par ch=1 c=64 v=56
529176 Par ch=1 c=64 v=0
529211 On ch=1 n=a5 v=74
529296 On ch=1 n=d#5 v=77
529301 On ch=1 n=a5 v=0
529321 On ch=1 n=a4 v=56
529371 On ch=1 n=d#5 v=0
529606 On ch=1 n=c6 v=77
529671 On ch=1 n=c4 v=60
529691 On ch=1 n=c6 v=0
529691 On ch=1 n=b5 v=83
529721 On ch=1 n=a4 v=0
529746 On ch=1 n=c4 v=0
529946 On ch=1 n=b5 v=0
529996 On ch=1 n=d6 v=75
530081 On ch=1 n=c6 v=94
530086 On ch=1 n=f3 v=61
530111 On ch=1 n=d6 v=0
530116 On ch=1 n=f3 v=0
530136 On ch=1 n=c6 v=0
530151 Par ch=1 c=64 v=56
530166 Par ch=1 c=64 v=104
530186 Par ch=1 c=64 v=127
530411 On ch=1 n=g7 v=92
530431 On ch=1 n=g6 v=64
530436 On ch=1 n=g5 v=60
530441 On ch=1 n=g7 v=0
530456 On ch=1 n=g6 v=0
530466 Par ch=1 c=64 v=104
530481 Par ch=1 c=64 v=40
530496 Par ch=1 c=64 v=0
530521 On ch=1 n=f7 v=107
530521 On ch=1 n=f6 v=105
530541 On ch=1 n=f5 v=74
530546 On ch=1 n=g5 v=0
530621 Par ch=1 c=64 v=56
530636 Par ch=1 c=64 v=127
530651 On ch=1 n=f5 v=0
531001 On ch=1 n=f4 v=52
531006 On ch=1 n=a4 v=48
531041 On ch=1 n=f7 v=0
531056 On ch=1 n=f4 v=0
531071 On ch=1 n=f6 v=0
531091 On ch=1 n=a4 v=0
531386 Par ch=1 c=64 v=104
531406 Par ch=1 c=64 v=40
531421 Par ch=1 c=64 v=0
531466 On ch=1 n=a#3 v=62
531541 Par ch=1 c=64 v=40
531561 Par ch=1 c=64 v=88
531581 On ch=1 n=a#3 v=0
531581 Par ch=1 c=64 v=104
531596 Par ch=1 c=64 v=127
531736 Par ch=1 c=64 v=88
531746 On ch=1 n=e5 v=64
531751 Par ch=1 c=64 v=56
531771 Par ch=1 c=64 v=0
531821 On ch=1 n=f5 v=83
531831 On ch=1 n=e5 v=0
531831 On ch=1 n=d5 v=66
532101 On ch=1 n=f5 v=0
532111 On ch=1 n=a#5 v=65
532156 On ch=1 n=a#5 v=0
532206 On ch=1 n=f4 v=58
532206 On ch=1 n=d6 v=92
532326 On ch=1 n=d5 v=0
532426 On ch=1 n=d6 v=0
532471 On ch=1 n=f6 v=82
532551 On ch=1 n=f4 v=0
532566 On ch=1 n=f6 v=0
532581 On ch=1 n=a#3 v=55
532586 On ch=1 n=d7 v=93
532626 Par ch=1 c=64 v=40
532641 Par ch=1 c=64 v=88
532661 Par ch=1 c=64 v=127
532671 On ch=1 n=a#3 v=0
532776 On ch=1 n=d7 v=0
532891 On ch=1 n=c7 v=78
532901 Par ch=1 c=64 v=104
532921 Par ch=1 c=64 v=56
532941 Par ch=1 c=64 v=0
532986 On ch=1 n=a#6 v=82
533011 On ch=1 n=c7 v=0
533011 On ch=1 n=g4 v=47
533021 On ch=1 n=d#5 v=40
533021 On ch=1 n=a#4 v=38
533046 On ch=1 n=g4 v=0
533061 Par ch=1 c=64 v=40
533076 On ch=1 n=a#4 v=0
533076 On ch=1 n=d#5 v=0
533076 On ch=1 n=a#6 v=0
533076 Par ch=1 c=64 v=88
533096 Par ch=1 c=64 v=127
533346 On ch=1 n=g6 v=68
533446 Par ch=1 c=64 v=88
533456 On ch=1 n=g6 v=0
533461 Par ch=1 c=64 v=56
533471 On ch=1 n=f6 v=74
533476 Par ch=1 c=64 v=0
533496 On ch=1 n=f5 v=46
533511 On ch=1 n=a4 v=33
533516 On ch=1 n=c5 v=41
533636 Par ch=1 c=64 v=24
533651 Par ch=1 c=64 v=88
533671 On ch=1 n=f5 v=0
533671 Par ch=1 c=64 v=127
533681 On ch=1 n=c5 v=0
533686 On ch=1 n=a4 v=0
533791 On ch=1 n=f6 v=0
533881 Par ch=1 c=64 v=104
533896 Par ch=1 c=64 v=24
533916 Par ch=1 c=64 v=0
533946 On ch=1 n=a#3 v=60
534001 Par ch=1 c=64 v=56
534021 Par ch=1 c=64 v=104
534036 Par ch=1 c=64 v=127
534041 On ch=1 n=a#3 v=0
534231 Par ch=1 c=64 v=88
534246 Par ch=1 c=64 v=40
534261 On ch=1 n=d6 v=75
534261 Par ch=1 c=64 v=0
534336 On ch=1 n=d5 v=66
534341 On ch=1 n=g#5 v=77
534346 On ch=1 n=d6 v=0
534386 Par ch=1 c=64 v=40
534401 Par ch=1 c=64 v=72
534416 On ch=1 n=g#5 v=0
534421 Par ch=1 c=64 v=88
534491 Par ch=1 c=64 v=104
534596 Par ch=1 c=64 v=40
534611 Par ch=1 c=64 v=0
534646 On ch=1 n=f6 v=77
534726 On ch=1 n=f6 v=0
534726 On ch=1 n=e6 v=93
534731 On ch=1 n=f4 v=58
534731 Par ch=1 c=64 v=24
534751 Par ch=1 c=64 v=40
534761 On ch=1 n=d5 v=0
534766 Par ch=1 c=64 v=72
534801 On ch=1 n=f4 v=0
534836 Par ch=1 c=64 v=88
534856 Par ch=1 c=64 v=104
534891 Par ch=1 c=64 v=127
534966 On ch=1 n=e6 v=0
535021 On ch=1 n=g6 v=80
535026 Par ch=1 c=64 v=56
535046 Par ch=1 c=64 v=0
535101 On ch=1 n=a#3 v=71
535111 On ch=1 n=f6 v=102
535146 On ch=1 n=g6 v=0
535151 Par ch=1 c=64 v=24
535161 On ch=1 n=f6 v=0
535161 On ch=1 n=a#3 v=0
535171 Par ch=1 c=64 v=88
535186 Par ch=1 c=64 v=127
535446 On ch=1 n=c8 v=88
535446 On ch=1 n=c7 v=70
535471 On ch=1 n=c6 v=64
535486 On ch=1 n=c8 v=0
535516 On ch=1 n=c7 v=0
535516 Par ch=1 c=64 v=72
535536 Par ch=1 c=64 v=0
535541 On ch=1 n=a#7 v=96
535546 On ch=1 n=a#6 v=96
535571 On ch=1 n=a#5 v=77
535581 On ch=1 n=c6 v=0
535641 Par ch=1 c=64 v=40
535656 Par ch=1 c=64 v=127
535691 On ch=1 n=a#5 v=0
535881 On ch=1 n=a#6 v=0
535886 On ch=1 n=a#7 v=0
535961 On ch=1 n=a#4 v=46
535981 On ch=1 n=d5 v=51
536056 On ch=1 n=d5 v=0
536101 On ch=1 n=a#4 v=0
536336 Par ch=1 c=64 v=56
536356 Par ch=1 c=64 v=0
536406 On ch=1 n=d#4 v=63
536456 Par ch=1 c=64 v=24
536476 Par ch=1 c=64 v=72
536491 On ch=1 n=d#4 v=0
536491 Par ch=1 c=64 v=104
536511 Par ch=1 c=64 v=127
536666 Par ch=1 c=64 v=104
536681 Par ch=1 c=64 v=56
536691 On ch=1 n=a5 v=53
536701 Par ch=1 c=64 v=0
536761 On ch=1 n=a#5 v=85
536766 On ch=1 n=a5 v=0
536766 On ch=1 n=g5 v=61
536826 Par ch=1 c=64 v=40
536841 Par ch=1 c=64 v=88
536861 Par ch=1 c=64 v=104
536876 Par ch=1 c=64 v=127
537041 On ch=1 n=a#5 v=0
537056 On ch=1 n=d#6 v=68
537106 On ch=1 n=d#6 v=0
537151 On ch=1 n=a#4 v=56
537156 On ch=1 n=g6 v=93
537176 On ch=1 n=g5 v=0
537216 On ch=1 n=a#4 v=0
537291 On ch=1 n=g6 v=0
537406 On ch=1 n=a#6 v=73
537471 Par ch=1 c=64 v=72
537481 On ch=1 n=a#6 v=0
537486 Par ch=1 c=64 v=24
537506 Par ch=1 c=64 v=0
537536 On ch=1 n=g7 v=100
537546 On ch=1 n=b6 v=89
537546 On ch=1 n=g6 v=82
537546 On ch=1 n=g4 v=53
537546 On ch=1 n=d4 v=68
537581 On ch=1 n=d4 v=0
537586 On ch=1 n=g4 v=0
537591 On ch=1 n=g6 v=0
537591 On ch=1 n=b6 v=0
537591 Par ch=1 c=64 v=40
537611 Par ch=1 c=64 v=104
537626 Par ch=1 c=64 v=127
537646 On ch=1 n=g7 v=0
537861 On ch=1 n=g#7 v=90
537871 On ch=1 n=g#5 v=74
537876 On ch=1 n=g#6 v=50
537891 On ch=1 n=g#7 v=0
537906 On ch=1 n=g#6 v=0
537921 Par ch=1 c=64 v=88
537931 On ch=1 n=g#5 v=0
537936 Par ch=1 c=64 v=24
537956 On ch=1 n=g7 v=92
537961 On ch=1 n=g6 v=92
537961 Par ch=1 c=64 v=0
537996 On ch=1 n=g5 v=85
538026 Par ch=1 c=64 v=24
538046 Par ch=1 c=64 v=88
538061 Par ch=1 c=64 v=127
538081 On ch=1 n=g5 v=0
538406 On ch=1 n=b4 v=56
538416 On ch=1 n=g4 v=46
538451 On ch=1 n=b4 v=0
538466 On ch=1 n=g4 v=0
538471 On ch=1 n=g7 v=0
538501 On ch=1 n=g6 v=0
538741 Par ch=1 c=64 v=88
538756 Par ch=1 c=64 v=0
538811 On ch=1 n=c4 v=61
538846 On ch=1 n=c4 v=0
538866 Par ch=1 c=64 v=24
538881 Par ch=1 c=64 v=72
538901 Par ch=1 c=64 v=127
539071 Par ch=1 c=64 v=88
539091 Par ch=1 c=64 v=24
539106 Par ch=1 c=64 v=0
539141 On ch=1 n=g5 v=69
539191 Par ch=1 c=64 v=56
539211 On ch=1 n=d#5 v=50
539211 Par ch=1 c=64 v=127
539231 On ch=1 n=c6 v=78
539246 On ch=1 n=g5 v=0
539436 On ch=1 n=c6 v=0
539476 On ch=1 n=d#6 v=70
539516 On ch=1 n=d#6 v=0
539531 On ch=1 n=g4 v=56
539561 On ch=1 n=g6 v=92
539566 On ch=1 n=g4 v=0
539581 On ch=1 n=d#5 v=0
539751 On ch=1 n=g6 v=0
539836 On ch=1 n=c7 v=76
539856 Par ch=1 c=64 v=88
539876 Par ch=1 c=64 v=24
539891 Par ch=1 c=64 v=0
539906 On ch=1 n=c7 v=0
539916 On ch=1 n=a#3 v=65
539936 On ch=1 n=d#7 v=91
539961 Par ch=1 c=64 v=40
539966 On ch=1 n=a#3 v=0
539981 Par ch=1 c=64 v=88
539996 Par ch=1 c=64 v=127
540066 On ch=1 n=d#7 v=0
540221 On ch=1 n=g7 v=90
540236 On ch=1 n=g6 v=67
540241 On ch=1 n=g5 v=54
540241 On ch=1 n=g4 v=70
540256 Par ch=1 c=64 v=88
540266 On ch=1 n=g6 v=0
540271 On ch=1 n=g7 v=0
540276 On ch=1 n=g5 v=0
540276 Par ch=1 c=64 v=24
540291 Par ch=1 c=64 v=0
540311 On ch=1 n=g4 v=0
540336 On ch=1 n=f#7 v=97
540341 On ch=1 n=f#6 v=100
540346 On ch=1 n=f#5 v=77
540356 On ch=1 n=f#4 v=76
540396 Par ch=1 c=64 v=72
540411 Par ch=1 c=64 v=127
540421 On ch=1 n=f#4 v=0
540421 On ch=1 n=f#5 v=0
540826 On ch=1 n=a#4 v=65
540851 On ch=1 n=a#3 v=60
540916 On ch=1 n=a#4 v=0
540926 On ch=1 n=f#7 v=0
540951 On ch=1 n=a#3 v=0
540951 On ch=1 n=f#6 v=0
541201 Par ch=1 c=64 v=72
541216 Par ch=1 c=64 v=0
541256 On ch=1 n=a3 v=64
541256 On ch=1 n=a4 v=62
541306 On ch=1 n=a3 v=0
541321 Par ch=1 c=64 v=56
541336 Par ch=1 c=64 v=127
541356 On ch=1 n=a4 v=0
541546 On ch=1 n=f5 v=65
541546 Par ch=1 c=64 v=88
541566 Par ch=1 c=64 v=24
541581 Par ch=1 c=64 v=0
541621 On ch=1 n=d#5 v=60
541636 On ch=1 n=c6 v=77
541646 On ch=1 n=f5 v=0
541666 Par ch=1 c=64 v=40
541686 Par ch=1 c=64 v=104
541706 Par ch=1 c=64 v=127
541876 On ch=1 n=c6 v=0
541881 On ch=1 n=d#6 v=60
541931 On ch=1 n=d#6 v=0
541966 On ch=1 n=f4 v=55
541981 On ch=1 n=d#5 v=0
541996 On ch=1 n=f6 v=86
542006 On ch=1 n=f4 v=0
542106 On ch=1 n=f6 v=0
542261 On ch=1 n=c7 v=83
542296 Par ch=1 c=64 v=88
542316 Par ch=1 c=64 v=24
542331 Par ch=1 c=64 v=0
542336 On ch=1 n=c7 v=0
542346 On ch=1 n=a#3 v=67
542366 On ch=1 n=d#7 v=96
542396 On ch=1 n=a#3 v=0
542401 Par ch=1 c=64 v=40
542421 Par ch=1 c=64 v=104
542436 Par ch=1 c=64 v=127
542491 On ch=1 n=d#7 v=0
542641 On ch=1 n=g7 v=86
542646 On ch=1 n=g6 v=81
542666 On ch=1 n=g4 v=50
542671 On ch=1 n=g7 v=0
542676 On ch=1 n=g6 v=0
542701 On ch=1 n=g4 v=0
542701 Par ch=1 c=64 v=104
542716 Par ch=1 c=64 v=56
542731 Par ch=1 c=64 v=0
542746 On ch=1 n=f#7 v=95
542756 On ch=1 n=f#6 v=96
542766 On ch=1 n=f#5 v=81
542766 On ch=1 n=f#4 v=81
542871 Par ch=1 c=64 v=88
542891 Par ch=1 c=64 v=127
542916 On ch=1 n=f#5 v=0
542956 On ch=1 n=f#4 v=0
543261 On ch=1 n=a#4 v=55
543281 On ch=1 n=a#3 v=42
543306 On ch=1 n=f#7 v=0
543336 On ch=1 n=f#6 v=0
543456 On ch=1 n=a#3 v=0
543461 On ch=1 n=a#4 v=0
543641 Par ch=1 c=64 v=88
543656 Par ch=1 c=64 v=0
543666 On ch=1 n=a3 v=63
543666 On ch=1 n=a4 v=40
543761 Par ch=1 c=64 v=56
543776 Par ch=1 c=64 v=127
543801 On ch=1 n=a3 v=0
543841 On ch=1 n=a4 v=0
543936 Par ch=1 c=64 v=104
543941 On ch=1 n=f5 v=63
543951 Par ch=1 c=64 v=40
543971 Par ch=1 c=64 v=0
544041 Par ch=1 c=64 v=40
544046 On ch=1 n=c6 v=79
544046 On ch=1 n=d#5 v=55
544056 Par ch=1 c=64 v=104
544076 Par ch=1 c=64 v=127
544086 On ch=1 n=f5 v=0
544291 On ch=1 n=c6 v=0
544296 On ch=1 n=d#6 v=65
544336 On ch=1 n=d#6 v=0
544411 On ch=1 n=f6 v=84
544416 On ch=1 n=f4 v=49
544516 On ch=1 n=d#5 v=0
544616 On ch=1 n=c7 v=84
544756 On ch=1 n=c7 v=0
544776 On ch=1 n=f4 v=0
544801 On ch=1 n=f7 v=89
544806 On ch=1 n=a#3 v=54
544826 Par ch=1 c=64 v=88
544841 Par ch=1 c=64 v=24
544861 Par ch=1 c=64 v=0
544946 Par ch=1 c=64 v=40
544961 On ch=1 n=f7 v=0
544961 Par ch=1 c=64 v=127
544971 On ch=1 n=d#7 v=78
545016 On ch=1 n=a#3 v=0
545046 On ch=1 n=f6 v=0
545146 On ch=1 n=a#6 v=74
545176 On ch=1 n=d#7 v=0
545186 On ch=1 n=d#5 v=49
545326 On ch=1 n=a#6 v=0
545326 On ch=1 n=f6 v=82
545396 On ch=1 n=f6 v=0
545481 On ch=1 n=d#5 v=0
545501 On ch=1 n=d#6 v=72
545531 On ch=1 n=f4 v=46
545606 On ch=1 n=d#6 v=0
545661 On ch=1 n=a#5 v=72
545706 On ch=1 n=f4 v=0
545836 On ch=1 n=a#5 v=0
545856 On ch=1 n=d#6 v=80
545876 On ch=1 n=b3 v=54
545886 Par ch=1 c=64 v=56
545906 Par ch=1 c=64 v=0
546011 Par ch=1 c=64 v=88
546016 On ch=1 n=d#6 v=0
546026 Par ch=1 c=64 v=127
546041 On ch=1 n=f5 v=73
546066 On ch=1 n=b3 v=0
546196 On ch=1 n=f5 v=0
546216 On ch=1 n=g#5 v=71
546266 On ch=1 n=d#5 v=57
546386 On ch=1 n=d#6 v=68
546426 On ch=1 n=g#5 v=0
546476 On ch=1 n=d#6 v=0
546561 On ch=1 n=f6 v=87
546566 On ch=1 n=f4 v=51
546666 On ch=1 n=d#5 v=0
546726 On ch=1 n=g#6 v=89
546741 On ch=1 n=f4 v=0
546886 On ch=1 n=g#6 v=0
546921 On ch=1 n=f7 v=90
546931 On ch=1 n=c4 v=58
546966 Par ch=1 c=64 v=88
546986 Par ch=1 c=64 v=0
547091 On ch=1 n=f7 v=0
547091 Par ch=1 c=64 v=104
547106 Par ch=1 c=64 v=127
547126 On ch=1 n=d#7 v=84
547151 On ch=1 n=c4 v=0
547171 On ch=1 n=f6 v=0
547301 On ch=1 n=d#7 v=0
547311 On ch=1 n=d#5 v=48
547321 On ch=1 n=a6 v=64
547461 On ch=1 n=a6 v=0
547501 On ch=1 n=f6 v=71
547561 On ch=1 n=f6 v=0
547681 On ch=1 n=f4 v=47
547691 On ch=1 n=d#5 v=0
547691 On ch=1 n=d#6 v=65
547726 On ch=1 n=f4 v=0
547786 On ch=1 n=d#6 v=0
547856 On ch=1 n=a5 v=62
547951 On ch=1 n=a5 v=0
548031 Par ch=1 c=64 v=104
548046 Par ch=1 c=64 v=40
548066 Par ch=1 c=64 v=0
548086 On ch=1 n=f3 v=59
548171 Par ch=1 c=64 v=24
548186 On ch=1 n=f3 v=0
548186 Par ch=1 c=64 v=72
548206 Par ch=1 c=64 v=127
548381 Par ch=1 c=64 v=56
548391 On ch=1 n=a5 v=67
548396 Par ch=1 c=64 v=0
548461 On ch=1 n=a4 v=55
548466 On ch=1 n=a5 v=0
548471 On ch=1 n=d#5 v=79
548551 On ch=1 n=d#5 v=0
548641 Par ch=1 c=64 v=24
548781 On ch=1 n=c6 v=73
548781 Par ch=1 c=64 v=0
548841 On ch=1 n=c4 v=63
548871 On ch=1 n=b5 v=86
548876 On ch=1 n=c6 v=0
548896 On ch=1 n=a4 v=0
548926 On ch=1 n=c4 v=0
549086 On ch=1 n=b5 v=0
549171 On ch=1 n=d6 v=60
549241 On ch=1 n=c6 v=97
549266 On ch=1 n=f3 v=49
549276 On ch=1 n=d6 v=0
549286 On ch=1 n=c6 v=0
549286 Par ch=1 c=64 v=24
549301 On ch=1 n=f3 v=0
549301 Par ch=1 c=64 v=72
549321 Par ch=1 c=64 v=127
549571 On ch=1 n=g7 v=80
549581 On ch=1 n=g6 v=58
549591 On ch=1 n=g5 v=56
549601 On ch=1 n=g7 v=0
549616 On ch=1 n=g6 v=0
549651 Par ch=1 c=64 v=72
549661 On ch=1 n=f7 v=107
549666 On ch=1 n=f6 v=112
549666 Par ch=1 c=64 v=0
549671 On ch=1 n=f5 v=77
549691 On ch=1 n=g5 v=0
549771 Par ch=1 c=64 v=72
549786 On ch=1 n=f5 v=0
549791 Par ch=1 c=64 v=127
550101 On ch=1 n=a4 v=55
550106 On ch=1 n=f4 v=52
550156 On ch=1 n=f4 v=0
550166 On ch=1 n=a4 v=0
550181 On ch=1 n=f7 v=0
550231 On ch=1 n=f6 v=0
550436 Par ch=1 c=64 v=104
550451 Par ch=1 c=64 v=40
550471 Par ch=1 c=64 v=0
550501 On ch=1 n=a#3 v=58
550591 Par ch=1 c=64 v=24
550606 On ch=1 n=a#3 v=0
550611 Par ch=1 c=64 v=40
550791 On ch=1 n=e5 v=57
550821 Par ch=1 c=64 v=0
550851 On ch=1 n=d5 v=66
550856 On ch=1 n=f5 v=80
550871 On ch=1 n=e5 v=0
551141 On ch=1 n=f5 v=0
551141 On ch=1 n=a#5 v=67
551196 On ch=1 n=a#5 v=0
551246 On ch=1 n=f4 v=55
551256 On ch=1 n=d6 v=90
551351 On ch=1 n=d5 v=0
551471 On ch=1 n=d6 v=0
551516 On ch=1 n=f6 v=80
551616 On ch=1 n=f6 v=0
551616 On ch=1 n=f4 v=0
551631 On ch=1 n=d7 v=89
551641 On ch=1 n=a#3 v=54
551691 Par ch=1 c=64 v=40
551706 On ch=1 n=a#3 v=0
551706 Par ch=1 c=64 v=88
551726 Par ch=1 c=64 v=127
551851 On ch=1 n=d7 v=0
551966 On ch=1 n=c7 v=78
552006 Par ch=1 c=64 v=72
552021 Par ch=1 c=64 v=24
552041 Par ch=1 c=64 v=0
552051 On ch=1 n=a#6 v=77
552066 On ch=1 n=a#4 v=39
552076 On ch=1 n=c7 v=0
552076 On ch=1 n=d#5 v=44
552081 On ch=1 n=g4 v=53
552121 On ch=1 n=g4 v=0
552126 Par ch=1 c=64 v=40
552141 Par ch=1 c=64 v=88
552161 Par ch=1 c=64 v=127
552166 On ch=1 n=a#6 v=0
552171 On ch=1 n=d#5 v=0
552171 On ch=1 n=a#4 v=0
552391 On ch=1 n=g6 v=70
552491 On ch=1 n=g6 v=0
552491 Par ch=1 c=64 v=104
552511 On ch=1 n=f6 v=73
552511 Par ch=1 c=64 v=72
552526 Par ch=1 c=64 v=24
552536 On ch=1 n=a4 v=38
552536 On ch=1 n=f5 v=37
552546 On ch=1 n=c5 v=44
552546 Par ch=1 c=64 v=0
552686 Par ch=1 c=64 v=40
552701 Par ch=1 c=64 v=104
552716 On ch=1 n=f5 v=0
552716 Par ch=1 c=64 v=127
552726 On ch=1 n=c5 v=0
552741 On ch=1 n=a4 v=0
552786 On ch=1 n=f6 v=0
552961 Par ch=1 c=64 v=72
552981 Par ch=1 c=64 v=0
553031 On ch=1 n=a#3 v=58
553086 Par ch=1 c=64 v=56
553101 Par ch=1 c=64 v=127
553191 On ch=1 n=a#3 v=0
553261 Par ch=1 c=64 v=104
553276 Par ch=1 c=64 v=40
553296 Par ch=1 c=64 v=0
553326 On ch=1 n=d6 v=68
553396 On ch=1 n=d6 v=0
553396 Par ch=1 c=64 v=56
553406 On ch=1 n=g#5 v=79
553416 On ch=1 n=d5 v=64
553416 Par ch=1 c=64 v=88
553431 Par ch=1 c=64 v=127
553486 On ch=1 n=g#5 v=0
553501 Par ch=1 c=64 v=56
553521 Par ch=1 c=64 v=24
553536 Par ch=1 c=64 v=0
553626 Par ch=1 c=64 v=40
553641 Par ch=1 c=64 v=56
553661 Par ch=1 c=64 v=88
553711 On ch=1 n=f6 v=84
553746 Par ch=1 c=64 v=0
553801 On ch=1 n=f6 v=0
553806 On ch=1 n=e6 v=93
553826 On ch=1 n=f4 v=55
553851 On ch=1 n=d5 v=0
553851 Par ch=1 c=64 v=24
553871 Par ch=1 c=64 v=72
553881 On ch=1 n=f4 v=0
553886 Par ch=1 c=64 v=104
553901 Par ch=1 c=64 v=127
554016 On ch=1 n=e6 v=0
554096 Par ch=1 c=64 v=72
554101 On ch=1 n=g6 v=72
554116 Par ch=1 c=64 v=0
554181 On ch=1 n=a#3 v=68
554186 On ch=1 n=f6 v=102
554226 On ch=1 n=g6 v=0
554231 On ch=1 n=a#3 v=0
554236 Par ch=1 c=64 v=72
554251 Par ch=1 c=64 v=127
554261 On ch=1 n=f6 v=0
554511 On ch=1 n=c8 v=92
554531 On ch=1 n=c6 v=73
554536 On ch=1 n=c7 v=51
554566 On ch=1 n=c8 v=0
554571 On ch=1 n=c7 v=0
554601 Par ch=1 c=64 v=88
554616 On ch=1 n=a#7 v=97
554621 Par ch=1 c=64 v=0
554626 On ch=1 n=a#6 v=96
554651 On ch=1 n=a#5 v=75
554656 On ch=1 n=c6 v=0
554741 Par ch=1 c=64 v=104
554756 On ch=1 n=a#5 v=0
554756 Par ch=1 c=64 v=127
555046 On ch=1 n=a#7 v=0
555046 On ch=1 n=a#4 v=44
555066 On ch=1 n=d5 v=49
555101 On ch=1 n=a#6 v=0
555111 On ch=1 n=d5 v=0
555171 On ch=1 n=a#4 v=0
555421 Par ch=1 c=64 v=40
555436 Par ch=1 c=64 v=0
555466 On ch=1 n=d#4 v=58
555526 Par ch=1 c=64 v=56
555541 Par ch=1 c=64 v=127
555591 On ch=1 n=d#4 v=0
555756 Par ch=1 c=64 v=40
555766 On ch=1 n=a5 v=68
555766 Par ch=1 c=64 v=0
555876 On ch=1 n=a#5 v=75
555876 On ch=1 n=g5 v=63
555876 Par ch=1 c=64 v=40
555881 On ch=1 n=a5 v=0
555891 Par ch=1 c=64 v=72
555906 Par ch=1 c=64 v=104
555976 Par ch=1 c=64 v=72
555996 Par ch=1 c=64 v=56
556011 Par ch=1 c=64 v=40
556046 Par ch=1 c=64 v=24
556066 Par ch=1 c=64 v=0
556131 On ch=1 n=d#6 v=65
556136 On ch=1 n=a#5 v=0
556136 Par ch=1 c=64 v=56
556151 Par ch=1 c=64 v=72
556166 Par ch=1 c=64 v=104
556181 On ch=1 n=d#6 v=0
556186 On ch=1 n=a#4 v=54
556186 Par ch=1 c=64 v=127
556241 On ch=1 n=g6 v=88
556281 On ch=1 n=a#4 v=0
556306 On ch=1 n=g5 v=0
556431 On ch=1 n=g6 v=0
556471 On ch=1 n=a#6 v=78
556536 Par ch=1 c=64 v=72
556551 Par ch=1 c=64 v=0
556556 On ch=1 n=a#6 v=0
556601 On ch=1 n=g7 v=100
556611 On ch=1 n=b6 v=94
556616 On ch=1 n=g6 v=81
556616 On ch=1 n=g4 v=54
556626 On ch=1 n=d4 v=64
556646 On ch=1 n=g6 v=0
556651 On ch=1 n=b4 v=52
556656 On ch=1 n=g4 v=0
556656 Par ch=1 c=64 v=88
556661 On ch=1 n=d4 v=0
556676 Par ch=1 c=64 v=127
556691 On ch=1 n=b4 v=0
556691 On ch=1 n=b6 v=0
556721 On ch=1 n=g7 v=0
556906 On ch=1 n=g#7 v=89
556911 On ch=1 n=g#6 v=63
556916 On ch=1 n=g#5 v=77
556941 On ch=1 n=g#6 v=0
556941 On ch=1 n=g#7 v=0
556981 On ch=1 n=g#5 v=0
556991 Par ch=1 c=64 v=72
557006 On ch=1 n=g7 v=103
557006 Par ch=1 c=64 v=0
557011 On ch=1 n=g6 v=100
557041 On ch=1 n=g5 v=85
557111 Par ch=1 c=64 v=56
557126 On ch=1 n=g5 v=0
557131 Par ch=1 c=64 v=127
557436 On ch=1 n=b4 v=58
557441 On ch=1 n=g4 v=49
557491 On ch=1 n=b4 v=0
557521 On ch=1 n=g4 v=0
557541 On ch=1 n=g7 v=0
557576 On ch=1 n=g6 v=0
557771 Par ch=1 c=64 v=72
557791 Par ch=1 c=64 v=0
557841 On ch=1 n=c4 v=67
557896 Par ch=1 c=64 v=24
557911 Par ch=1 c=64 v=72
557931 On ch=1 n=c4 v=0
557931 Par ch=1 c=64 v=104
557946 Par ch=1 c=64 v=127
558111 On ch=1 n=g5 v=68
558121 Par ch=1 c=64 v=56
558141 Par ch=1 c=64 v=0
558201 On ch=1 n=d#5 v=55
558216 On ch=1 n=c6 v=86
558231 On ch=1 n=g5 v=0
558261 Par ch=1 c=64 v=56
558276 Par ch=1 c=64 v=88
558296 Par ch=1 c=64 v=104
558311 Par ch=1 c=64 v=127
558466 On ch=1 n=c6 v=0
558466 On ch=1 n=d#6 v=69
558506 On ch=1 n=d#6 v=0
558546 On ch=1 n=g4 v=44
558561 On ch=1 n=d#5 v=0
558581 On ch=1 n=g4 v=0
558586 On ch=1 n=g6 v=92
558781 On ch=1 n=g6 v=0
558831 On ch=1 n=c7 v=82
558856 Par ch=1 c=64 v=72
558871 Par ch=1 c=64 v=0
558906 On ch=1 n=c7 v=0
558926 On ch=1 n=a#3 v=65
558946 On ch=1 n=d#7 v=96
558976 Par ch=1 c=64 v=56
558981 On ch=1 n=a#3 v=0
558991 Par ch=1 c=64 v=104
559011 Par ch=1 c=64 v=127
559071 On ch=1 n=d#7 v=0
559236 On ch=1 n=g7 v=100
559236 On ch=1 n=g4 v=70
559241 On ch=1 n=g6 v=87
559246 On ch=1 n=g5 v=45
559271 On ch=1 n=g4 v=0
559276 On ch=1 n=g6 v=0
559281 On ch=1 n=g5 v=0
559281 On ch=1 n=g7 v=0
559306 Par ch=1 c=64 v=104
559326 Par ch=1 c=64 v=24
559341 Par ch=1 c=64 v=0
559346 On ch=1 n=f#7 v=99
559361 On ch=1 n=f#6 v=103
559366 On ch=1 n=f#5 v=69
559371 On ch=1 n=f#4 v=73
559481 Par ch=1 c=64 v=72
559496 Par ch=1 c=64 v=127
559561 On ch=1 n=f#5 v=0
559596 On ch=1 n=f#4 v=0
559801 On ch=1 n=f#6 v=0
559806 On ch=1 n=f#7 v=0
559831 On ch=1 n=a#4 v=50
559836 On ch=1 n=a#3 v=57
560031 On ch=1 n=a#3 v=0
560046 On ch=1 n=a#4 v=0
560176 Par ch=1 c=64 v=104
560196 Par ch=1 c=64 v=40
560211 Par ch=1 c=64 v=0
560236 On ch=1 n=a3 v=60
560236 On ch=1 n=a4 v=50
560301 On ch=1 n=a3 v=0
560316 Par ch=1 c=64 v=56
560331 Par ch=1 c=64 v=104
560351 Par ch=1 c=64 v=127
560356 On ch=1 n=a4 v=0
560511 Par ch=1 c=64 v=88
560526 Par ch=1 c=64 v=24
560536 On ch=1 n=f5 v=69
560546 Par ch=1 c=64 v=0
560606 On ch=1 n=d#5 v=56
560631 Par ch=1 c=64 v=24
560646 On ch=1 n=c6 v=74
560646 Par ch=1 c=64 v=72
560666 Par ch=1 c=64 v=104
560671 On ch=1 n=f5 v=0
560681 Par ch=1 c=64 v=127
560856 Par ch=1 c=64 v=104
560871 On ch=1 n=c6 v=0
560871 On ch=1 n=d#6 v=69
560876 Par ch=1 c=64 v=56
560891 Par ch=1 c=64 v=0
560931 On ch=1 n=d#6 v=0
560961 On ch=1 n=f4 v=56
560961 Par ch=1 c=64 v=56
560976 On ch=1 n=d#5 v=0
560981 Par ch=1 c=64 v=104
560991 On ch=1 n=f6 v=90
560996 Par ch=1 c=64 v=127
561006 On ch=1 n=f4 v=0
561091 On ch=1 n=f6 v=0
561251 On ch=1 n=c7 v=79
561311 Par ch=1 c=64 v=88
561331 On ch=1 n=c7 v=0
561331 Par ch=1 c=64 v=24
561346 Par ch=1 c=64 v=0
561356 On ch=1 n=a#3 v=68
561361 On ch=1 n=d#7 v=97
561396 Par ch=1 c=64 v=24
561406 On ch=1 n=a#3 v=0
561416 Par ch=1 c=64 v=72
561431 Par ch=1 c=64 v=127
561486 On ch=1 n=d#7 v=0
561636 On ch=1 n=g7 v=99
561646 On ch=1 n=g6 v=83
561651 On ch=1 n=g4 v=62
561656 On ch=1 n=g5 v=59
561681 On ch=1 n=g4 v=0
561681 On ch=1 n=g6 v=0
561681 On ch=1 n=g7 v=0
561686 On ch=1 n=g5 v=0
561711 Par ch=1 c=64 v=40
561731 Par ch=1 c=64 v=0
561751 On ch=1 n=f#7 v=99
561756 On ch=1 n=f#6 v=99
561771 On ch=1 n=f#5 v=83
561771 On ch=1 n=f#4 v=80
561836 On ch=1 n=f#5 v=0
561851 Par ch=1 c=64 v=104
561866 Par ch=1 c=64 v=127
561901 On ch=1 n=f#4 v=0
562186 On ch=1 n=a#4 v=64
562216 On ch=1 n=a#3 v=36
562281 On ch=1 n=f#7 v=0
562301 On ch=1 n=f#6 v=0
562371 On ch=1 n=a#3 v=0
562381 On ch=1 n=a#4 v=0
562566 Par ch=1 c=64 v=72
562586 Par ch=1 c=64 v=0
562601 On ch=1 n=a3 v=69
562601 On ch=1 n=a4 v=64
562686 Par ch=1 c=64 v=56
562701 On ch=1 n=a3 v=0
562706 Par ch=1 c=64 v=104
562721 Par ch=1 c=64 v=127
562756 On ch=1 n=a4 v=0
562881 On ch=1 n=f5 v=63
562896 Par ch=1 c=64 v=88
562916 Par ch=1 c=64 v=24
562931 Par ch=1 c=64 v=0
562966 On ch=1 n=d#5 v=65
562966 On ch=1 n=c6 v=80
563021 Par ch=1 c=64 v=56
563031 On ch=1 n=f5 v=0
563036 Par ch=1 c=64 v=104
563056 Par ch=1 c=64 v=127
563171 On ch=1 n=d#6 v=65
563181 On ch=1 n=c6 v=0
563231 On ch=1 n=d#6 v=0
563306 On ch=1 n=f6 v=92
563326 On ch=1 n=f4 v=45
563356 On ch=1 n=d#5 v=0
563531 On ch=1 n=c7 v=84
563641 On ch=1 n=c7 v=0
563661 On ch=1 n=f4 v=0
563676 On ch=1 n=f7 v=94
563681 Par ch=1 c=64 v=72
563696 On ch=1 n=a#3 v=56
563696 Par ch=1 c=64 v=0
563801 Par ch=1 c=64 v=56
563821 Par ch=1 c=64 v=104
563836 On ch=1 n=f7 v=0
563841 Par ch=1 c=64 v=127
563851 On ch=1 n=a#3 v=0
563871 On ch=1 n=d#7 v=81
563916 On ch=1 n=f6 v=0
564056 On ch=1 n=a#6 v=75
564061 On ch=1 n=d#5 v=49
564071 On ch=1 n=d#7 v=0
564231 On ch=1 n=f6 v=76
564241 On ch=1 n=a#6 v=0
564301 On ch=1 n=f6 v=0
564391 On ch=1 n=f4 v=42
564411 On ch=1 n=d#6 v=73
564421 On ch=1 n=d#5 v=0
564526 On ch=1 n=d#6 v=0
564571 On ch=1 n=a#5 v=69
564631 On ch=1 n=f4 v=0
564736 On ch=1 n=a#5 v=0
564781 On ch=1 n=d#6 v=77
564786 On ch=1 n=b3 v=59
564831 Par ch=1 c=64 v=104
564851 Par ch=1 c=64 v=40
564866 Par ch=1 c=64 v=0
564936 On ch=1 n=d#6 v=0
564966 On ch=1 n=f5 v=75
564971 Par ch=1 c=64 v=72
564986 On ch=1 n=b3 v=0
564986 Par ch=1 c=64 v=127
565036 On ch=1 n=f5 v=0
565141 On ch=1 n=g#5 v=76
565171 On ch=1 n=d#5 v=62
565326 On ch=1 n=d#6 v=79
565351 On ch=1 n=g#5 v=0
565401 On ch=1 n=d#6 v=0
565451 On ch=1 n=f4 v=49
565476 On ch=1 n=f6 v=93
565521 On ch=1 n=d#5 v=0
565626 On ch=1 n=f4 v=0
565631 On ch=1 n=g#6 v=92
565801 On ch=1 n=g#6 v=0
565821 On ch=1 n=c4 v=45
565836 On ch=1 n=f7 v=85
565896 Par ch=1 c=64 v=56
565911 Par ch=1 c=64 v=0
565956 On ch=1 n=f6 v=0
565991 On ch=1 n=f7 v=0
566001 Par ch=1 c=64 v=72
566016 Par ch=1 c=64 v=127
566026 On ch=1 n=d#7 v=77
566061 On ch=1 n=c4 v=0
566206 On ch=1 n=a6 v=71
566226 On ch=1 n=d#5 v=44
566256 On ch=1 n=d#7 v=0
566376 On ch=1 n=a6 v=0
566401 On ch=1 n=f6 v=69
566481 On ch=1 n=f6 v=0
566551 On ch=1 n=f4 v=41
566561 On ch=1 n=d#5 v=0
566606 On ch=1 n=d#6 v=54
566646 On ch=1 n=f4 v=0
566706 On ch=1 n=d#6 v=0
566766 On ch=1 n=a5 v=59
566866 On ch=1 n=a5 v=0
566941 Par ch=1 c=64 v=88
566956 Par ch=1 c=64 v=24
566976 Par ch=1 c=64 v=0
566996 On ch=1 n=f3 v=57
567061 Par ch=1 c=64 v=24
567076 Par ch=1 c=64 v=88
567096 Par ch=1 c=64 v=127
567106 On ch=1 n=f3 v=0
567291 On ch=1 n=a5 v=64
567326 Par ch=1 c=64 v=88
567341 Par ch=1 c=64 v=0
567366 On ch=1 n=a5 v=0
567376 On ch=1 n=d#5 v=75
567381 On ch=1 n=a4 v=49
567391 On ch=1 n=c5 v=44
567446 On ch=1 n=d#5 v=0
567446 Par ch=1 c=64 v=24
567461 Par ch=1 c=64 v=72
567481 Par ch=1 c=64 v=104
567496 Par ch=1 c=64 v=127
567651 On ch=1 n=c6 v=65
567671 Par ch=1 c=64 v=72
567691 Par ch=1 c=64 v=0
567741 On ch=1 n=b5 v=81
567746 On ch=1 n=c6 v=0
567766 On ch=1 n=g#4 v=56
567796 Par ch=1 c=64 v=40
567806 On ch=1 n=a4 v=0
567811 Par ch=1 c=64 v=88
567826 Par ch=1 c=64 v=127
567841 On ch=1 n=c5 v=0
567851 On ch=1 n=g#4 v=0
567991 On ch=1 n=b5 v=0
568006 On ch=1 n=d6 v=74
568076 On ch=1 n=d6 v=0
568151 On ch=1 n=c6 v=73
568176 Par ch=1 c=64 v=88
568196 Par ch=1 c=64 v=24
568211 Par ch=1 c=64 v=0
568226 On ch=1 n=c3 v=55
568266 Par ch=1 c=64 v=24
568281 Par ch=1 c=64 v=88
568301 Par ch=1 c=64 v=127
568311 On ch=1 n=c3 v=0
568366 On ch=1 n=c6 v=0
568391 On ch=1 n=g#6 v=83
568496 On ch=1 n=g#6 v=0
568561 On ch=1 n=g4 v=57
568566 On ch=1 n=g6 v=86
568581 On ch=1 n=c5 v=48
568746 On ch=1 n=d#6 v=78
568916 On ch=1 n=g6 v=0
568921 On ch=1 n=c6 v=74
568926 On ch=1 n=d#6 v=0
568936 On ch=1 n=c4 v=48
568961 On ch=1 n=c5 v=0
568961 On ch=1 n=g4 v=0
569006 On ch=1 n=c6 v=0
569016 On ch=1 n=c4 v=0
569106 On ch=1 n=g5 v=82
569206 On ch=1 n=g5 v=0
569291 On ch=1 n=a#5 v=72
569341 On ch=1 n=f3 v=52
569346 Par ch=1 c=64 v=40
569361 Par ch=1 c=64 v=0
569451 Par ch=1 c=64 v=24
569466 Par ch=1 c=64 v=88
569476 On ch=1 n=a#5 v=0
569486 On ch=1 n=g#5 v=77
569486 Par ch=1 c=64 v=127
569491 On ch=1 n=f3 v=0
569636 On ch=1 n=g#5 v=0
569661 Par ch=1 c=64 v=104
569676 Par ch=1 c=64 v=40
569681 On ch=1 n=f5 v=72
569691 Par ch=1 c=64 v=0
569701 On ch=1 n=g#4 v=60
569766 Par ch=1 c=64 v=56
569781 Par ch=1 c=64 v=104
569801 Par ch=1 c=64 v=127
569811 On ch=1 n=f5 v=0
569856 On ch=1 n=d5 v=70
570016 On ch=1 n=d5 v=0
570051 On ch=1 n=c6 v=82
570066 On ch=1 n=g4 v=66
570086 On ch=1 n=g#4 v=0
570136 On ch=1 n=g4 v=0
570176 On ch=1 n=c6 v=0
570226 On ch=1 n=b5 v=73
570426 On ch=1 n=f5 v=73
570431 On ch=1 n=b5 v=0
570441 Par ch=1 c=64 v=56
570461 On ch=1 n=g3 v=55
570461 Par ch=1 c=64 v=0
570566 Par ch=1 c=64 v=40
570581 Par ch=1 c=64 v=88
570591 On ch=1 n=f5 v=0
570601 Par ch=1 c=64 v=127
570616 On ch=1 n=d5 v=73
570686 Par ch=1 c=64 v=56
570706 Par ch=1 c=64 v=0
570791 Par ch=1 c=64 v=24
570811 On ch=1 n=c4 v=50
570811 On ch=1 n=d6 v=70
570811 Par ch=1 c=64 v=72
570826 Par ch=1 c=64 v=104
570846 On ch=1 n=g3 v=0
570846 Par ch=1 c=64 v=127
570851 On ch=1 n=d5 v=0
570966 On ch=1 n=d6 v=0
571016 On ch=1 n=c6 v=70
571191 On ch=1 n=c6 v=0
571211 Par ch=1 c=64 v=104
571216 On ch=1 n=g5 v=57
571226 Par ch=1 c=64 v=56
571246 Par ch=1 c=64 v=0
571256 On ch=1 n=c3 v=46
571296 On ch=1 n=c4 v=0
571331 On ch=1 n=c3 v=0
571346 Par ch=1 c=64 v=56
571366 Par ch=1 c=64 v=104
571386 Par ch=1 c=64 v=127
571406 On ch=1 n=g5 v=0
571451 On ch=1 n=d#5 v=56
571526 On ch=1 n=d#5 v=0
571631 Par ch=1 c=64 v=104
571646 Par ch=1 c=64 v=40
571661 Par ch=1 c=64 v=0
571711 On ch=1 n=c4 v=62
571751 On ch=1 n=c4 v=0
571751 Par ch=1 c=64 v=24
571766 Par ch=1 c=64 v=72
571786 Par ch=1 c=64 v=127
571946 On ch=1 n=d#6 v=71
571996 Par ch=1 c=64 v=104
572011 Par ch=1 c=64 v=56
572031 On ch=1 n=d#6 v=0
572031 Par ch=1 c=64 v=0
572051 On ch=1 n=a5 v=86
572076 On ch=1 n=c5 v=56
572076 On ch=1 n=g5 v=52
572136 Par ch=1 c=64 v=56
572141 On ch=1 n=a5 v=0
572151 Par ch=1 c=64 v=104
572166 Par ch=1 c=64 v=127
572341 Par ch=1 c=64 v=104
572356 On ch=1 n=g6 v=84
572361 Par ch=1 c=64 v=56
572376 Par ch=1 c=64 v=0
572446 Par ch=1 c=64 v=56
572456 On ch=1 n=g6 v=0
572461 On ch=1 n=f#6 v=95
572466 On ch=1 n=a4 v=38
572466 Par ch=1 c=64 v=104
572476 On ch=1 n=g5 v=0
572481 Par ch=1 c=64 v=127
572501 On ch=1 n=c5 v=0
572536 On ch=1 n=a4 v=0
572661 On ch=1 n=f#6 v=0
572691 On ch=1 n=a6 v=80
572766 On ch=1 n=a6 v=0
572831 Par ch=1 c=64 v=72
572846 Par ch=1 c=64 v=0
572866 On ch=1 n=g6 v=87
572896 On ch=1 n=g3 v=53
572936 Par ch=1 c=64 v=40
572951 Par ch=1 c=64 v=127
572961 On ch=1 n=g3 v=0
573026 On ch=1 n=g6 v=0
573061 On ch=1 n=d#7 v=85
573166 On ch=1 n=d#7 v=0
573231 On ch=1 n=d7 v=87
573266 On ch=1 n=g5 v=54
573281 On ch=1 n=a#4 v=39
573416 On ch=1 n=a#6 v=72
573576 On ch=1 n=d7 v=0
573591 On ch=1 n=g6 v=79
573596 On ch=1 n=a#6 v=0
573596 On ch=1 n=g4 v=49
573616 On ch=1 n=g5 v=0
573676 On ch=1 n=g6 v=0
573676 On ch=1 n=a#4 v=0
573686 On ch=1 n=g4 v=0
573781 On ch=1 n=d6 v=87
573871 On ch=1 n=d6 v=0
573966 On ch=1 n=f6 v=87
573981 Par ch=1 c=64 v=104
574001 On ch=1 n=c4 v=56
574001 Par ch=1 c=64 v=24
574016 Par ch=1 c=64 v=0
574081 On ch=1 n=c4 v=0
574101 Par ch=1 c=64 v=40
574121 Par ch=1 c=64 v=104
574126 On ch=1 n=f6 v=0
574136 Par ch=1 c=64 v=127
574156 On ch=1 n=d#6 v=83
574316 On ch=1 n=d#6 v=0
574351 On ch=1 n=c6 v=81
574351 On ch=1 n=d#5 v=49
574491 On ch=1 n=c6 v=0
574526 On ch=1 n=a5 v=74
574706 On ch=1 n=d5 v=56
574711 On ch=1 n=a5 v=0
574721 On ch=1 n=g6 v=84
574741 On ch=1 n=d5 v=0
574746 On ch=1 n=d#5 v=0
574856 On ch=1 n=g6 v=0
574911 On ch=1 n=f#6 v=76
575096 Par ch=1 c=64 v=72
575101 On ch=1 n=f#6 v=0
575111 On ch=1 n=c6 v=76
575111 Par ch=1 c=64 v=0
575141 On ch=1 n=d4 v=51
575216 Par ch=1 c=64 v=56
575236 Par ch=1 c=64 v=127
575271 On ch=1 n=c6 v=0
575301 On ch=1 n=a5 v=70
575446 Par ch=1 c=64 v=56
575451 On ch=1 n=a5 v=0
575461 Par ch=1 c=64 v=0
575496 On ch=1 n=d4 v=0
575536 On ch=1 n=a6 v=78
575556 On ch=1 n=e4 v=52
575581 Par ch=1 c=64 v=56
575601 Par ch=1 c=64 v=127
575646 On ch=1 n=e4 v=0
575701 On ch=1 n=a6 v=0
575786 On ch=1 n=g6 v=73
575946 On ch=1 n=g6 v=0
576031 On ch=1 n=c#6 v=58
576056 Par ch=1 c=64 v=104
576061 On ch=1 n=g5 v=30
576066 On ch=1 n=a#4 v=25
576066 On ch=1 n=c#5 v=26
576071 Par ch=1 c=64 v=24
576091 Par ch=1 c=64 v=0
576211 Par ch=1 c=64 v=24
576216 On ch=1 n=g5 v=0
576231 Par ch=1 c=64 v=88
576246 Par ch=1 c=64 v=127
576276 On ch=1 n=c#5 v=0
576291 On ch=1 n=a#4 v=0
576346 On ch=1 n=c#6 v=0
576356 On ch=1 n=a#5 v=49
576426 On ch=1 n=a#5 v=0
576631 Par ch=1 c=64 v=88
576646 Par ch=1 c=64 v=0
576656 On ch=1 n=f3 v=58
576736 Par ch=1 c=64 v=24
576751 Par ch=1 c=64 v=88
576771 Par ch=1 c=64 v=127
576781 On ch=1 n=f3 v=0
576926 Par ch=1 c=64 v=104
576941 Par ch=1 c=64 v=56
576956 On ch=1 n=a5 v=66
576961 Par ch=1 c=64 v=0
577051 On ch=1 n=a5 v=0
577051 On ch=1 n=d#5 v=76
577056 On ch=1 n=a4 v=59
577101 Par ch=1 c=64 v=40
577121 On ch=1 n=d#5 v=0
577121 Par ch=1 c=64 v=56
577186 Par ch=1 c=64 v=40
577221 Par ch=1 c=64 v=24
577341 Par ch=1 c=64 v=0
577371 On ch=1 n=c6 v=71
577441 On ch=1 n=c4 v=61
577456 On ch=1 n=c6 v=0
577456 On ch=1 n=b5 v=82
577536 On ch=1 n=a4 v=0
577571 On ch=1 n=c4 v=0
577681 On ch=1 n=b5 v=0
577776 On ch=1 n=d6 v=63
577856 On ch=1 n=c6 v=92
577876 On ch=1 n=f3 v=53
577891 On ch=1 n=d6 v=0
577901 Par ch=1 c=64 v=40
577911 On ch=1 n=f3 v=0
577911 On ch=1 n=c6 v=0
577921 Par ch=1 c=64 v=88
577936 Par ch=1 c=64 v=127
578186 On ch=1 n=g7 v=89
578196 On ch=1 n=g6 v=69
578216 On ch=1 n=g7 v=0
578226 On ch=1 n=g6 v=0
578226 On ch=1 n=g5 v=59
578236 Par ch=1 c=64 v=56
578251 Par ch=1 c=64 v=0
578286 On ch=1 n=f7 v=105
578291 On ch=1 n=f6 v=107
578321 On ch=1 n=f5 v=61
578326 On ch=1 n=g5 v=0
578356 Par ch=1 c=64 v=56
578371 Par ch=1 c=64 v=127
578401 On ch=1 n=f5 v=0
578721 On ch=1 n=a4 v=55
578721 On ch=1 n=f4 v=49
578766 On ch=1 n=f4 v=0
578776 On ch=1 n=f7 v=0
578786 On ch=1 n=a4 v=0
578831 On ch=1 n=f6 v=0
579071 Par ch=1 c=64 v=88
579086 Par ch=1 c=64 v=0
579131 On ch=1 n=a#3 v=58
579211 Par ch=1 c=64 v=24
579226 Par ch=1 c=64 v=56
579246 Par ch=1 c=64 v=88
579261 Par ch=1 c=64 v=104
579266 On ch=1 n=a#3 v=0
579401 Par ch=1 c=64 v=72
579416 Par ch=1 c=64 v=24
579421 On ch=1 n=e5 v=62
579436 Par ch=1 c=64 v=0
579496 On ch=1 n=f5 v=81
579496 On ch=1 n=d5 v=62
579516 On ch=1 n=e5 v=0
579696 Par ch=1 c=64 v=40
579786 On ch=1 n=a#5 v=65
579791 On ch=1 n=f5 v=0
579841 On ch=1 n=a#5 v=0
579871 Par ch=1 c=64 v=24
579891 On ch=1 n=d6 v=93
579896 On ch=1 n=f4 v=50
580056 On ch=1 n=d5 v=0
580101 On ch=1 n=d6 v=0
580146 On ch=1 n=f6 v=81
580186 Par ch=1 c=64 v=0
580261 On ch=1 n=f6 v=0
580271 On ch=1 n=f4 v=0
580271 On ch=1 n=d7 v=92
580296 On ch=1 n=a#3 v=58
580306 Par ch=1 c=64 v=56
580326 Par ch=1 c=64 v=104
580341 Par ch=1 c=64 v=127
580351 On ch=1 n=a#3 v=0
580496 On ch=1 n=d7 v=0
580581 On ch=1 n=c7 v=74
580601 Par ch=1 c=64 v=104
580621 Par ch=1 c=64 v=56
580641 Par ch=1 c=64 v=0
580671 On ch=1 n=a#6 v=80
580691 On ch=1 n=a#4 v=47
580701 On ch=1 n=c7 v=0
580701 On ch=1 n=d#5 v=44
580711 On ch=1 n=g4 v=54
580726 Par ch=1 c=64 v=24
580741 On ch=1 n=g4 v=0
580741 Par ch=1 c=64 v=72
580756 On ch=1 n=a#6 v=0
580761 Par ch=1 c=64 v=127
580766 On ch=1 n=d#5 v=0
580781 On ch=1 n=a#4 v=0
581021 On ch=1 n=g6 v=70
581056 Par ch=1 c=64 v=88
581076 Par ch=1 c=64 v=40
581091 Par ch=1 c=64 v=0
581131 On ch=1 n=c5 v=40
581141 On ch=1 n=g6 v=0
581141 On ch=1 n=f5 v=40
581141 On ch=1 n=f6 v=71
581141 On ch=1 n=a4 v=40
581251 Par ch=1 c=64 v=88
581266 Par ch=1 c=64 v=127
581306 On ch=1 n=f5 v=0
581306 On ch=1 n=c5 v=0
581336 On ch=1 n=a4 v=0
581386 On ch=1 n=f6 v=0
581546 Par ch=1 c=64 v=72
581561 Par ch=1 c=64 v=0
581611 On ch=1 n=a#3 v=51
581666 Par ch=1 c=64 v=56
581686 Par ch=1 c=64 v=127
581786 On ch=1 n=a#3 v=0
581841 Par ch=1 c=64 v=104
581856 Par ch=1 c=64 v=40
581876 Par ch=1 c=64 v=0
581886 On ch=1 n=d6 v=72
581961 Par ch=1 c=64 v=56
581966 On ch=1 n=g#5 v=81
581976 On ch=1 n=d5 v=60
581981 Par ch=1 c=64 v=88
581996 On ch=1 n=d6 v=0
581996 Par ch=1 c=64 v=127
582056 On ch=1 n=g#5 v=0
582206 Par ch=1 c=64 v=104
582226 Par ch=1 c=64 v=88
582241 Par ch=1 c=64 v=72
582261 Par ch=1 c=64 v=24
582271 On ch=1 n=f6 v=69
582276 Par ch=1 c=64 v=0
582346 On ch=1 n=e6 v=93
582356 On ch=1 n=f4 v=60
582361 On ch=1 n=f6 v=0
582381 Par ch=1 c=64 v=56
582396 On ch=1 n=d5 v=0
582401 Par ch=1 c=64 v=104
582416 Par ch=1 c=64 v=127
582436 On ch=1 n=f4 v=0
582576 On ch=1 n=e6 v=0
582606 Par ch=1 c=64 v=88
582621 On ch=1 n=g6 v=74
582626 Par ch=1 c=64 v=56
582641 Par ch=1 c=64 v=0
582716 On ch=1 n=f6 v=99
582731 On ch=1 n=a#3 v=67
582756 On ch=1 n=g6 v=0
582766 On ch=1 n=f6 v=0
582766 Par ch=1 c=64 v=40
582781 Par ch=1 c=64 v=104
582786 On ch=1 n=a#3 v=0
582801 Par ch=1 c=64 v=127
583041 On ch=1 n=c8 v=88
583041 On ch=1 n=c7 v=70
583071 On ch=1 n=c6 v=73
583081 On ch=1 n=c8 v=0
583096 Par ch=1 c=64 v=72
583111 On ch=1 n=c7 v=0
583111 Par ch=1 c=64 v=0
583136 On ch=1 n=a#7 v=99
583141 On ch=1 n=a#6 v=100
583181 On ch=1 n=a#5 v=64
583201 On ch=1 n=c6 v=0
583201 Par ch=1 c=64 v=56
583216 Par ch=1 c=64 v=127
583246 On ch=1 n=a#5 v=0
583471 On ch=1 n=a#6 v=0
583476 On ch=1 n=a#7 v=0
583556 On ch=1 n=a#4 v=48
583571 On ch=1 n=d5 v=52
583601 On ch=1 n=d5 v=0
583646 On ch=1 n=a#4 v=0
583896 Par ch=1 c=64 v=104
583916 Par ch=1 c=64 v=40
583931 Par ch=1 c=64 v=0
583961 On ch=1 n=d#4 v=62
584021 Par ch=1 c=64 v=24
584036 Par ch=1 c=64 v=72
584056 On ch=1 n=d#4 v=0
584056 Par ch=1 c=64 v=127
584246 Par ch=1 c=64 v=72
584251 On ch=1 n=a5 v=63
584266 Par ch=1 c=64 v=0
584301 On ch=1 n=g5 v=63
584321 On ch=1 n=a#5 v=85
584346 On ch=1 n=a5 v=0
584386 Par ch=1 c=64 v=56
584401 Par ch=1 c=64 v=104
584421 Par ch=1 c=64 v=127
584596 On ch=1 n=d#6 v=69
584606 On ch=1 n=a#5 v=0
584651 On ch=1 n=d#6 v=0
584691 On ch=1 n=a#4 v=47
584711 On ch=1 n=g5 v=0
584711 On ch=1 n=g6 v=93
584726 On ch=1 n=a#4 v=0
584901 On ch=1 n=g6 v=0
584946 On ch=1 n=a#6 v=73
585016 Par ch=1 c=64 v=104
585031 Par ch=1 c=64 v=56
585041 On ch=1 n=a#6 v=0
585046 Par ch=1 c=64 v=0
585086 On ch=1 n=g7 v=102
585091 On ch=1 n=g6 v=80
585091 On ch=1 n=b6 v=92
585101 On ch=1 n=g4 v=62
585111 On ch=1 n=d4 v=62
585141 On ch=1 n=d4 v=0
585141 On ch=1 n=g4 v=0
585151 Par ch=1 c=64 v=72
585161 On ch=1 n=g6 v=0
585171 Par ch=1 c=64 v=127
585181 On ch=1 n=b6 v=0
585201 On ch=1 n=g7 v=0
585381 On ch=1 n=g#7 v=91
585386 On ch=1 n=g#6 v=90
585391 On ch=1 n=g#5 v=80
585416 On ch=1 n=g#6 v=0
585416 On ch=1 n=g#7 v=0
585436 On ch=1 n=g6 v=24
585451 On ch=1 n=g#5 v=0
585466 On ch=1 n=g6 v=0
585486 Par ch=1 c=64 v=88
585496 On ch=1 n=g6 v=99
585496 On ch=1 n=g7 v=110
585501 Par ch=1 c=64 v=24
585521 Par ch=1 c=64 v=0
585526 On ch=1 n=g5 v=83
585606 Par ch=1 c=64 v=72
585621 On ch=1 n=g5 v=0
585621 Par ch=1 c=64 v=127
585926 On ch=1 n=g4 v=52
585931 On ch=1 n=b4 v=46
585971 On ch=1 n=b4 v=0
585976 On ch=1 n=g7 v=0
585986 On ch=1 n=g4 v=0
586001 On ch=1 n=g6 v=0
586251 Par ch=1 c=64 v=72
586271 Par ch=1 c=64 v=0
586321 On ch=1 n=c4 v=61
586406 Par ch=1 c=64 v=56
586416 On ch=1 n=c4 v=0
586426 Par ch=1 c=64 v=88
586441 Par ch=1 c=64 v=127
586566 Par ch=1 c=64 v=104
586581 Par ch=1 c=64 v=56
586596 Par ch=1 c=64 v=0
586611 On ch=1 n=g5 v=64
586676 On ch=1 n=d#5 v=65
586711 On ch=1 n=c6 v=82
586716 On ch=1 n=g5 v=0
586756 Par ch=1 c=64 v=56
586771 Par ch=1 c=64 v=88
586791 Par ch=1 c=64 v=104
586806 Par ch=1 c=64 v=127
586956 On ch=1 n=c6 v=0
586961 On ch=1 n=d#6 v=72
587011 On ch=1 n=d#6 v=0
587036 On ch=1 n=g4 v=63
587066 On ch=1 n=g4 v=0
587066 On ch=1 n=d#5 v=0
587081 On ch=1 n=g6 v=88
587181 On ch=1 n=g6 v=0
587306 On ch=1 n=c7 v=85
587346 Par ch=1 c=64 v=88
587366 Par ch=1 c=64 v=24
587386 On ch=1 n=c7 v=0
587386 Par ch=1 c=64 v=0
587421 On ch=1 n=a#3 v=61
587431 On ch=1 n=d#7 v=93
587456 On ch=1 n=a#3 v=0
587471 Par ch=1 c=64 v=40
587486 Par ch=1 c=64 v=104
587506 Par ch=1 c=64 v=127
587551 On ch=1 n=d#7 v=0
587716 On ch=1 n=g7 v=89
587716 On ch=1 n=g6 v=89
587721 On ch=1 n=g5 v=64
587726 On ch=1 n=g4 v=58
587751 On ch=1 n=g4 v=0
587751 On ch=1 n=g5 v=0
587751 On ch=1 n=g6 v=0
587756 On ch=1 n=g7 v=0
587786 Par ch=1 c=64 v=104
587801 Par ch=1 c=64 v=0
587816 On ch=1 n=f#7 v=95
587831 On ch=1 n=f#6 v=96
587836 On ch=1 n=f#5 v=80
587841 On ch=1 n=f#4 v=73
587906 Par ch=1 c=64 v=72
587926 Par ch=1 c=64 v=127
587936 On ch=1 n=f#4 v=0
587946 On ch=1 n=f#5 v=0
588291 On ch=1 n=a#4 v=59
588306 On ch=1 n=a#3 v=53
588376 On ch=1 n=a#3 v=0
588386 On ch=1 n=f#7 v=0
588401 On ch=1 n=f#6 v=0
588456 On ch=1 n=a#4 v=0
588641 Par ch=1 c=64 v=72
588656 Par ch=1 c=64 v=0
588691 On ch=1 n=a3 v=62
588701 On ch=1 n=a4 v=57
588761 Par ch=1 c=64 v=24
588766 On ch=1 n=a3 v=0
588781 On ch=1 n=a4 v=0
588781 Par ch=1 c=64 v=56
588796 Par ch=1 c=64 v=104
588811 Par ch=1 c=64 v=127
588936 Par ch=1 c=64 v=104
588951 Par ch=1 c=64 v=40
588971 On ch=1 n=f5 v=63
588971 Par ch=1 c=64 v=0
589056 On ch=1 n=d#5 v=56
589066 On ch=1 n=c6 v=71
589086 On ch=1 n=f5 v=0
589106 Par ch=1 c=64 v=24
589126 Par ch=1 c=64 v=56
589141 Par ch=1 c=64 v=72
589161 Par ch=1 c=64 v=88
589181 Par ch=1 c=64 v=104
589251 Par ch=1 c=64 v=127
589291 On ch=1 n=c6 v=0
589311 On ch=1 n=d#6 v=61
589336 Par ch=1 c=64 v=104
589361 On ch=1 n=d#6 v=0
589421 On ch=1 n=f4 v=58
589431 On ch=1 n=d#5 v=0
589446 On ch=1 n=f6 v=68
589461 On ch=1 n=f4 v=0
589526 On ch=1 n=f6 v=0
589656 On ch=1 n=c7 v=80
589686 Par ch=1 c=64 v=88
589701 Par ch=1 c=64 v=40
589721 Par ch=1 c=64 v=0
589736 On ch=1 n=c7 v=0
589791 On ch=1 n=d#7 v=89
589811 On ch=1 n=a#3 v=44
589821 Par ch=1 c=64 v=40
589836 On ch=1 n=a#3 v=0
589841 Par ch=1 c=64 v=88
589861 Par ch=1 c=64 v=127
589891 On ch=1 n=d#7 v=0
590071 On ch=1 n=g7 v=87
590076 On ch=1 n=g6 v=86
590076 On ch=1 n=g4 v=71
590081 On ch=1 n=g5 v=59
590101 On ch=1 n=g7 v=0
590106 On ch=1 n=g6 v=0
590111 On ch=1 n=g5 v=0
590111 On ch=1 n=g4 v=0
590121 Par ch=1 c=64 v=88
590136 Par ch=1 c=64 v=0
590166 On ch=1 n=f#7 v=99
590181 On ch=1 n=f#6 v=105
590206 On ch=1 n=f#5 v=65
590211 On ch=1 n=f#4 v=70
590236 On ch=1 n=f#5 v=0
590241 On ch=1 n=f#4 v=0
590241 Par ch=1 c=64 v=72
590261 Par ch=1 c=64 v=127
590606 On ch=1 n=a#4 v=67
590631 On ch=1 n=a#3 v=43
590661 On ch=1 n=f#7 v=0
590681 On ch=1 n=f#6 v=0
590801 On ch=1 n=a#3 v=0
590806 On ch=1 n=a#4 v=0
590976 Par ch=1 c=64 v=88
590991 Par ch=1 c=64 v=24
591011 Par ch=1 c=64 v=0
591031 On ch=1 n=a3 v=68
591031 On ch=1 n=a4 v=63
591111 Par ch=1 c=64 v=56
591131 Par ch=1 c=64 v=104
591141 On ch=1 n=a3 v=0
591146 Par ch=1 c=64 v=127
591186 On ch=1 n=a4 v=0
591296 On ch=1 n=f5 v=70
591306 Par ch=1 c=64 v=56
591321 Par ch=1 c=64 v=0
591386 On ch=1 n=d#5 v=64
591391 On ch=1 n=c6 v=81
591426 Par ch=1 c=64 v=40
591446 Par ch=1 c=64 v=72
591451 On ch=1 n=f5 v=0
591461 Par ch=1 c=64 v=104
591481 Par ch=1 c=64 v=127
591626 On ch=1 n=d#6 v=79
591631 On ch=1 n=c6 v=0
591681 On ch=1 n=d#6 v=0
591751 On ch=1 n=f4 v=57
591761 On ch=1 n=f6 v=74
591866 On ch=1 n=d#5 v=0
591976 On ch=1 n=c7 v=71
592076 On ch=1 n=f6 v=0
592096 On ch=1 n=c7 v=0
592116 On ch=1 n=d#7 v=89
592116 On ch=1 n=a#3 v=54
592126 Par ch=1 c=64 v=72
592141 Par ch=1 c=64 v=0
592146 On ch=1 n=f4 v=0
592226 On ch=1 n=a#3 v=0
592246 Par ch=1 c=64 v=40
592261 Par ch=1 c=64 v=88
592281 Par ch=1 c=64 v=127
592371 On ch=1 n=d#7 v=0
592421 On ch=1 n=f7 v=84
592486 Par ch=1 c=64 v=104
592506 On ch=1 n=c#7 v=84
592506 Par ch=1 c=64 v=56
592521 On ch=1 n=d5 v=52
592526 Par ch=1 c=64 v=0
592531 On ch=1 n=f7 v=0
592531 On ch=1 n=f6 v=69
592576 Par ch=1 c=64 v=40
592596 Par ch=1 c=64 v=88
592611 Par ch=1 c=64 v=127
592631 On ch=1 n=c#7 v=0
592776 On ch=1 n=f6 v=0
592811 On ch=1 n=d7 v=74
592901 On ch=1 n=d7 v=0
592906 On ch=1 n=a6 v=77
592911 On ch=1 n=f#4 v=63
592911 Par ch=1 c=64 v=88
592926 Par ch=1 c=64 v=24
592941 Par ch=1 c=64 v=0
592996 On ch=1 n=d5 v=0
592996 On ch=1 n=d6 v=12
593031 Par ch=1 c=64 v=56
593046 Par ch=1 c=64 v=88
593066 Par ch=1 c=64 v=127
593141 On ch=1 n=a6 v=0
593191 On ch=1 n=d6 v=0
593216 On ch=1 n=a#6 v=71
593281 On ch=1 n=f#4 v=0
593311 Par ch=1 c=64 v=104
593321 On ch=1 n=g4 v=68
593326 On ch=1 n=a#6 v=0
593326 Par ch=1 c=64 v=24
593331 On ch=1 n=d#4 v=47
593341 On ch=1 n=f#6 v=70
593346 Par ch=1 c=64 v=0
593386 On ch=1 n=a#5 v=49
593446 On ch=1 n=f#6 v=0
593451 Par ch=1 c=64 v=40
593466 Par ch=1 c=64 v=72
593486 Par ch=1 c=64 v=127
593546 On ch=1 n=a#5 v=0
593641 On ch=1 n=g6 v=72
593711 Par ch=1 c=64 v=88
593726 On ch=1 n=g6 v=0
593726 Par ch=1 c=64 v=24
593731 On ch=1 n=g4 v=0
593741 On ch=1 n=d#4 v=0
593741 On ch=1 n=a#4 v=72
593746 On ch=1 n=d6 v=62
593746 Par ch=1 c=64 v=0
593751 On ch=1 n=g5 v=50
593851 Par ch=1 c=64 v=40
593866 Par ch=1 c=64 v=72
593886 Par ch=1 c=64 v=104
593901 Par ch=1 c=64 v=127
593906 On ch=1 n=g5 v=0
593971 On ch=1 n=d6 v=0
594011 On ch=1 n=d#6 v=62
594091 On ch=1 n=d#6 v=0
594091 Par ch=1 c=64 v=104
594111 Par ch=1 c=64 v=56
594126 Par ch=1 c=64 v=0
594146 On ch=1 n=a4 v=67
594156 On ch=1 n=a#4 v=0
594166 On ch=1 n=b5 v=63
594171 On ch=1 n=f4 v=49
594176 On ch=1 n=d#5 v=48
594251 Par ch=1 c=64 v=24
594266 Par ch=1 c=64 v=72
594286 Par ch=1 c=64 v=88
594296 On ch=1 n=b5 v=0
594301 Par ch=1 c=64 v=127
594341 On ch=1 n=d#5 v=0
594436 On ch=1 n=c6 v=65
594461 Par ch=1 c=64 v=88
594476 Par ch=1 c=64 v=56
594491 Par ch=1 c=64 v=24
594511 Par ch=1 c=64 v=0
594516 On ch=1 n=c6 v=0
594536 On ch=1 n=a4 v=0
594551 On ch=1 n=a#4 v=57
594576 On ch=1 n=d5 v=55
594581 On ch=1 n=a#5 v=61
594601 On ch=1 n=f4 v=0
594651 Par ch=1 c=64 v=88
594656 On ch=1 n=d5 v=0
594671 Par ch=1 c=64 v=127
594676 On ch=1 n=a#4 v=0
594716 On ch=1 n=a#5 v=0
594981 Par ch=1 c=64 v=104
594996 Par ch=1 c=64 v=40
595016 Par ch=1 c=64 v=0
595036 On ch=1 n=a#6 v=65
595051 On ch=1 n=a#5 v=50
595076 On ch=1 n=a#3 v=35
595081 On ch=1 n=a#2 v=37
595086 Par ch=1 c=64 v=24
595106 Par ch=1 c=64 v=72
595121 Par ch=1 c=64 v=127
595166 On ch=1 n=a#6 v=0
595171 On ch=1 n=a#3 v=0
595186 On ch=1 n=a#2 v=0
595186 On ch=1 n=a#5 v=0
595581 On ch=1 n=d#5 v=65
595836 Par ch=1 c=64 v=104
595851 Par ch=1 c=64 v=72
595871 Par ch=1 c=64 v=0
595991 On ch=1 n=f3 v=51
596011 Par ch=1 c=64 v=72
596026 Par ch=1 c=64 v=127
596031 On ch=1 n=f3 v=0
596276 On ch=1 n=d#5 v=0
596306 Par ch=1 c=64 v=72
596311 On ch=1 n=a5 v=72
596326 Par ch=1 c=64 v=0
596376 On ch=1 n=a4 v=49
596396 On ch=1 n=c5 v=50
596401 On ch=1 n=a5 v=0
596401 On ch=1 n=d#5 v=79
596411 Par ch=1 c=64 v=24
596431 Par ch=1 c=64 v=72
596446 Par ch=1 c=64 v=127
596471 On ch=1 n=d#5 v=0
596681 On ch=1 n=c6 v=64
596726 Par ch=1 c=64 v=72
596741 Par ch=1 c=64 v=0
596756 On ch=1 n=c6 v=0
596776 On ch=1 n=b5 v=87
596801 On ch=1 n=g#4 v=58
596831 On ch=1 n=a4 v=0
596856 On ch=1 n=c5 v=0
596881 On ch=1 n=g#4 v=0
596881 Par ch=1 c=64 v=40
596901 Par ch=1 c=64 v=88
596916 Par ch=1 c=64 v=127
597036 On ch=1 n=b5 v=0
597046 On ch=1 n=d6 v=82
597106 On ch=1 n=d6 v=0
597196 Par ch=1 c=64 v=104
597206 On ch=1 n=c6 v=78
597216 Par ch=1 c=64 v=40
597231 Par ch=1 c=64 v=0
597251 On ch=1 n=c3 v=58
597311 On ch=1 n=c3 v=0
597316 Par ch=1 c=64 v=40
597336 Par ch=1 c=64 v=104
597351 Par ch=1 c=64 v=127
597406 On ch=1 n=c6 v=0
597426 On ch=1 n=g#6 v=82
597541 On ch=1 n=g#6 v=0
597611 On ch=1 n=g6 v=86
597621 On ch=1 n=g4 v=56
597631 On ch=1 n=c5 v=54
597796 On ch=1 n=d#6 v=77
597946 On ch=1 n=g6 v=0
597966 On ch=1 n=d#4 v=68
597971 On ch=1 n=c6 v=82
597976 On ch=1 n=d#6 v=0
598011 On ch=1 n=g4 v=0
598056 On ch=1 n=c5 v=0
598071 On ch=1 n=c6 v=0
598096 On ch=1 n=d#4 v=0
598161 On ch=1 n=g5 v=74
598231 On ch=1 n=g5 v=0
598346 On ch=1 n=a#5 v=77
598361 Par ch=1 c=64 v=88
598381 Par ch=1 c=64 v=0
598391 On ch=1 n=f3 v=57
598501 On ch=1 n=a#5 v=0
598501 Par ch=1 c=64 v=40
598511 On ch=1 n=f3 v=0
598521 Par ch=1 c=64 v=88
598531 On ch=1 n=g#5 v=83
598536 Par ch=1 c=64 v=127
598676 Par ch=1 c=64 v=104
598686 On ch=1 n=g#5 v=0
598696 Par ch=1 c=64 v=40
598711 Par ch=1 c=64 v=0
598716 On ch=1 n=f5 v=80
598726 On ch=1 n=g#4 v=58
598801 Par ch=1 c=64 v=40
598816 Par ch=1 c=64 v=72
598831 Par ch=1 c=64 v=104
598851 Par ch=1 c=64 v=127
598861 On ch=1 n=f5 v=0
598886 On ch=1 n=d5 v=79
598976 Par ch=1 c=64 v=40
598991 Par ch=1 c=64 v=0
599076 On ch=1 n=c6 v=89
599086 On ch=1 n=g4 v=59
599131 Par ch=1 c=64 v=40
599136 On ch=1 n=g4 v=0
599141 On ch=1 n=g#4 v=0
599146 Par ch=1 c=64 v=72
599166 Par ch=1 c=64 v=88
599181 Par ch=1 c=64 v=127
599191 On ch=1 n=d5 v=0
599221 On ch=1 n=c6 v=0
599261 On ch=1 n=b5 v=77
599411 Par ch=1 c=64 v=88
599426 Par ch=1 c=64 v=0
599446 On ch=1 n=b5 v=0
599451 On ch=1 n=f5 v=75
599491 On ch=1 n=g3 v=42
599581 Par ch=1 c=64 v=56
599601 Par ch=1 c=64 v=72
599616 On ch=1 n=f5 v=0
599616 Par ch=1 c=64 v=56
599636 Par ch=1 c=64 v=24
599641 On ch=1 n=d5 v=76
599651 Par ch=1 c=64 v=0
599756 Par ch=1 c=64 v=24
599776 Par ch=1 c=64 v=72
599791 Par ch=1 c=64 v=88
599811 Par ch=1 c=64 v=104
599816 On ch=1 n=c4 v=52
599826 On ch=1 n=d5 v=0
599836 On ch=1 n=g3 v=0
599836 On ch=1 n=d6 v=77
599916 Par ch=1 c=64 v=24
599931 Par ch=1 c=64 v=0
600001 On ch=1 n=d6 v=0
600041 On ch=1 n=c6 v=70
600056 Par ch=1 c=64 v=40
600071 Par ch=1 c=64 v=72
600086 Par ch=1 c=64 v=104
600151 On ch=1 n=c4 v=0
600176 Par ch=1 c=64 v=40
600196 Par ch=1 c=64 v=0
600206 On ch=1 n=c6 v=0
600241 On ch=1 n=g5 v=55
600251 On ch=1 n=c3 v=40
600296 On ch=1 n=c3 v=0
600296 Par ch=1 c=64 v=40
600316 Par ch=1 c=64 v=88
600331 Par ch=1 c=64 v=127
600446 On ch=1 n=g5 v=0
600466 On ch=1 n=d#5 v=53
600521 On ch=1 n=d#5 v=0
600646 Par ch=1 c=64 v=88
600666 Par ch=1 c=64 v=0
600711 On ch=1 n=c4 v=64
600771 Par ch=1 c=64 v=40
600786 Par ch=1 c=64 v=104
600796 On ch=1 n=c4 v=0
600801 Par ch=1 c=64 v=127
600981 On ch=1 n=d#6 v=71
601046 Par ch=1 c=64 v=88
601066 Par ch=1 c=64 v=24
601071 On ch=1 n=d#6 v=0
601071 On ch=1 n=a5 v=84
601081 On ch=1 n=c5 v=64
601081 On ch=1 n=g5 v=58
601081 Par ch=1 c=64 v=0
601166 On ch=1 n=a5 v=0
601171 Par ch=1 c=64 v=24
601186 Par ch=1 c=64 v=88
601206 Par ch=1 c=64 v=127
601356 On ch=1 n=g6 v=82
601361 Par ch=1 c=64 v=88
601381 Par ch=1 c=64 v=24
601396 Par ch=1 c=64 v=0
601461 On ch=1 n=g6 v=0
601461 On ch=1 n=f#6 v=91
601466 On ch=1 n=a4 v=38
601466 Par ch=1 c=64 v=24
601481 On ch=1 n=g5 v=0
601481 Par ch=1 c=64 v=72
601501 Par ch=1 c=64 v=127
601511 On ch=1 n=c5 v=0
601541 On ch=1 n=a4 v=0
601666 On ch=1 n=f#6 v=0
601676 On ch=1 n=a6 v=85
601756 On ch=1 n=a6 v=0
601816 Par ch=1 c=64 v=56
601831 Par ch=1 c=64 v=0
601861 On ch=1 n=g3 v=58
601866 On ch=1 n=g6 v=89
601921 Par ch=1 c=64 v=40
601936 Par ch=1 c=64 v=104
601956 Par ch=1 c=64 v=127
601961 On ch=1 n=g3 v=0
602021 On ch=1 n=g6 v=0
602061 On ch=1 n=d#7 v=84
602161 On ch=1 n=d#7 v=0
602231 On ch=1 n=d7 v=86
602281 On ch=1 n=g5 v=34
602286 On ch=1 n=a#4 v=35
602401 On ch=1 n=a#6 v=77
602536 On ch=1 n=d7 v=0
602561 On ch=1 n=g6 v=77
602571 On ch=1 n=a#6 v=0
602606 On ch=1 n=g5 v=0
602606 On ch=1 n=g4 v=33
602651 On ch=1 n=g6 v=0
602656 On ch=1 n=g4 v=0
602661 On ch=1 n=a#4 v=0
602736 On ch=1 n=d6 v=85
602866 On ch=1 n=d6 v=0
602931 On ch=1 n=f6 v=82
602946 Par ch=1 c=64 v=56
602961 Par ch=1 c=64 v=0
602976 On ch=1 n=c4 v=58
603051 On ch=1 n=c4 v=0
603051 Par ch=1 c=64 v=24
603071 Par ch=1 c=64 v=88
603086 Par ch=1 c=64 v=127
603101 On ch=1 n=f6 v=0
603121 On ch=1 n=d#6 v=79
603266 On ch=1 n=d#6 v=0
603306 On ch=1 n=c6 v=79
603311 On ch=1 n=d#5 v=44
603436 On ch=1 n=c6 v=0
603481 On ch=1 n=a5 v=74
603666 On ch=1 n=a5 v=0
603676 On ch=1 n=d5 v=61
603681 On ch=1 n=g6 v=80
603711 On ch=1 n=d5 v=0
603721 On ch=1 n=d#5 v=0
603806 On ch=1 n=g6 v=0
603861 On ch=1 n=f#6 v=73
603941 Par ch=1 c=64 v=104
603961 Par ch=1 c=64 v=56
603976 Par ch=1 c=64 v=0
604046 Par ch=1 c=64 v=40
604061 On ch=1 n=c6 v=75
604061 Par ch=1 c=64 v=72
604066 On ch=1 n=f#6 v=0
604076 On ch=1 n=d4 v=47
604081 Par ch=1 c=64 v=104
604096 Par ch=1 c=64 v=127
604186 Par ch=1 c=64 v=40
604201 Par ch=1 c=64 v=0
604216 On ch=1 n=c6 v=0
604251 On ch=1 n=a5 v=79
604306 Par ch=1 c=64 v=56
604326 Par ch=1 c=64 v=127
604436 On ch=1 n=d4 v=0
604451 On ch=1 n=a5 v=0
604466 Par ch=1 c=64 v=56
604481 On ch=1 n=a6 v=77
604481 Par ch=1 c=64 v=0
604501 On ch=1 n=e4 v=53
604586 Par ch=1 c=64 v=40
604606 Par ch=1 c=64 v=104
604616 On ch=1 n=e4 v=0
604621 Par ch=1 c=64 v=127
604646 On ch=1 n=a6 v=0
604726 On ch=1 n=g6 v=68
604896 On ch=1 n=g6 v=0
604961 On ch=1 n=c#6 v=61
604966 Par ch=1 c=64 v=40
604976 On ch=1 n=c#5 v=34
604981 On ch=1 n=g5 v=29
604986 On ch=1 n=a#4 v=32
604986 Par ch=1 c=64 v=0
605091 Par ch=1 c=64 v=72
605096 On ch=1 n=g5 v=0
605106 Par ch=1 c=64 v=127
605146 On ch=1 n=c#5 v=0
605161 On ch=1 n=a#4 v=0
605231 On ch=1 n=c#6 v=0
605246 On ch=1 n=a#5 v=50
605326 On ch=1 n=a#5 v=0
605491 Par ch=1 c=64 v=88
605506 Par ch=1 c=64 v=0
605536 On ch=1 n=f3 v=44
605651 Par ch=1 c=64 v=72
605666 Par ch=1 c=64 v=127
605731 On ch=1 n=f3 v=0
605806 Par ch=1 c=64 v=72
605821 Par ch=1 c=64 v=0
605841 On ch=1 n=a5 v=68
605926 On ch=1 n=a4 v=53
605931 On ch=1 n=a5 v=0
605931 On ch=1 n=d#5 v=77
606006 On ch=1 n=d#5 v=0
606236 On ch=1 n=c6 v=54
606311 On ch=1 n=c6 v=0
606311 On ch=1 n=c4 v=67
606321 On ch=1 n=b5 v=78
606391 On ch=1 n=a4 v=0
606411 On ch=1 n=c4 v=0
606566 On ch=1 n=b5 v=0
606616 On ch=1 n=d6 v=68
606716 On ch=1 n=c6 v=88
606731 On ch=1 n=f3 v=64
606751 On ch=1 n=d6 v=0
606766 On ch=1 n=f3 v=0
606771 On ch=1 n=c6 v=0
606781 Par ch=1 c=64 v=56
606801 Par ch=1 c=64 v=104
606816 Par ch=1 c=64 v=127
607041 On ch=1 n=g7 v=80
607046 On ch=1 n=g5 v=65
607066 On ch=1 n=g6 v=24
607071 On ch=1 n=g7 v=0
607076 Par ch=1 c=64 v=88
607096 On ch=1 n=g6 v=0
607096 Par ch=1 c=64 v=24
607111 Par ch=1 c=64 v=0
607116 On ch=1 n=f7 v=102
607121 On ch=1 n=f6 v=100
607146 On ch=1 n=f5 v=67
607151 On ch=1 n=g5 v=0
607216 Par ch=1 c=64 v=72
607221 On ch=1 n=f5 v=0
607231 Par ch=1 c=64 v=127
607551 On ch=1 n=f4 v=53
607556 On ch=1 n=a4 v=46
607596 On ch=1 n=f4 v=0
607611 On ch=1 n=a4 v=0
607616 On ch=1 n=f7 v=0
607646 On ch=1 n=f6 v=0
607881 Par ch=1 c=64 v=88
607896 Par ch=1 c=64 v=40
607916 Par ch=1 c=64 v=0
607951 On ch=1 n=a#3 v=62
608051 Par ch=1 c=64 v=40
608071 On ch=1 n=a#3 v=0
608071 Par ch=1 c=64 v=72
608246 On ch=1 n=e5 v=64
608246 Par ch=1 c=64 v=24
608261 Par ch=1 c=64 v=0
608301 On ch=1 n=d5 v=62
608321 On ch=1 n=f5 v=81
608341 On ch=1 n=e5 v=0
608601 On ch=1 n=f5 v=0
608601 On ch=1 n=a#5 v=69
608656 On ch=1 n=a#5 v=0
608676 On ch=1 n=f4 v=60
608701 On ch=1 n=d6 v=90
608791 On ch=1 n=d5 v=0
608941 On ch=1 n=d6 v=0
608956 On ch=1 n=f6 v=83
609066 On ch=1 n=f4 v=0
609076 On ch=1 n=f6 v=0
609076 On ch=1 n=a#3 v=53
609081 On ch=1 n=d7 v=88
609116 Par ch=1 c=64 v=24
609136 Par ch=1 c=64 v=72
609141 On ch=1 n=a#3 v=0
609151 Par ch=1 c=64 v=104
609171 Par ch=1 c=64 v=127
609326 On ch=1 n=d7 v=0
609396 On ch=1 n=c7 v=84
609396 Par ch=1 c=64 v=104
609416 Par ch=1 c=64 v=56
609431 Par ch=1 c=64 v=0
609501 On ch=1 n=a#6 v=77
609506 On ch=1 n=g4 v=51
609516 On ch=1 n=a#4 v=43
609521 On ch=1 n=d#5 v=45
609536 On ch=1 n=c7 v=0
609536 Par ch=1 c=64 v=24
609551 Par ch=1 c=64 v=56
609561 On ch=1 n=g4 v=0
609571 Par ch=1 c=64 v=88
609586 On ch=1 n=d#5 v=0
609586 Par ch=1 c=64 v=127
609596 On ch=1 n=a#4 v=0
609616 On ch=1 n=a#6 v=0
609826 On ch=1 n=g6 v=68
609901 Par ch=1 c=64 v=104
609921 Par ch=1 c=64 v=88
609936 Par ch=1 c=64 v=56
609946 On ch=1 n=g6 v=0
609951 Par ch=1 c=64 v=0
609961 On ch=1 n=f6 v=70
609986 On ch=1 n=c5 v=38
609996 On ch=1 n=a4 v=42
609996 On ch=1 n=f5 v=48
610111 Par ch=1 c=64 v=40
610126 Par ch=1 c=64 v=88
610146 Par ch=1 c=64 v=127
610151 On ch=1 n=f5 v=0
610161 On ch=1 n=c5 v=0
610176 On ch=1 n=a4 v=0
610231 On ch=1 n=f6 v=0
610371 Par ch=1 c=64 v=88
610391 Par ch=1 c=64 v=24
610406 Par ch=1 c=64 v=0
610451 On ch=1 n=a#3 v=57
610456 Par ch=1 c=64 v=24
610476 Par ch=1 c=64 v=56
610496 Par ch=1 c=64 v=127
610581 On ch=1 n=a#3 v=0
610686 Par ch=1 c=64 v=56
610706 Par ch=1 c=64 v=0
610721 On ch=1 n=d6 v=73
610806 On ch=1 n=g#5 v=77
610806 Par ch=1 c=64 v=56
610816 On ch=1 n=d5 v=66
610826 Par ch=1 c=64 v=104
610831 On ch=1 n=d6 v=0
610841 Par ch=1 c=64 v=127
610896 On ch=1 n=g#5 v=0
611036 Par ch=1 c=64 v=104
611051 Par ch=1 c=64 v=88
611066 Par ch=1 c=64 v=56
611076 On ch=1 n=f6 v=85
611086 Par ch=1 c=64 v=0
611166 On ch=1 n=f6 v=0
611171 On ch=1 n=e6 v=92
611216 On ch=1 n=d5 v=0
611216 On ch=1 n=f4 v=40
611246 Par ch=1 c=64 v=40
611251 On ch=1 n=f4 v=0
611261 Par ch=1 c=64 v=56
611276 Par ch=1 c=64 v=72
611401 Par ch=1 c=64 v=40
611416 Par ch=1 c=64 v=0
611426 On ch=1 n=e6 v=0
611456 On ch=1 n=g6 v=72
611531 On ch=1 n=f6 v=97
611541 On ch=1 n=a#3 v=62
611556 Par ch=1 c=64 v=40
611576 On ch=1 n=a#3 v=0
611576 On ch=1 n=g6 v=0
611576 Par ch=1 c=64 v=104
611586 On ch=1 n=f6 v=0
611591 Par ch=1 c=64 v=127
611856 On ch=1 n=c8 v=93
611876 On ch=1 n=c7 v=64
611881 On ch=1 n=c6 v=77
611901 On ch=1 n=c8 v=0
611906 On ch=1 n=c7 v=0
611906 Par ch=1 c=64 v=72
611926 Par ch=1 c=64 v=0
611951 On ch=1 n=a#7 v=97
611961 On ch=1 n=a#6 v=96
611991 On ch=1 n=a#5 v=73
612016 On ch=1 n=c6 v=0
612026 Par ch=1 c=64 v=88
612046 Par ch=1 c=64 v=127
612076 On ch=1 n=a#5 v=0
612401 On ch=1 n=a#4 v=37
612401 On ch=1 n=d5 v=55
612441 On ch=1 n=d5 v=0
612481 On ch=1 n=a#7 v=0
612491 On ch=1 n=a#4 v=0
612496 On ch=1 n=a#6 v=0
612721 Par ch=1 c=64 v=72
612741 Par ch=1 c=64 v=0
612786 On ch=1 n=d#4 v=60
612846 Par ch=1 c=64 v=40
612866 Par ch=1 c=64 v=88
612881 On ch=1 n=d#4 v=0
612881 Par ch=1 c=64 v=127
613036 Par ch=1 c=64 v=88
613056 Par ch=1 c=64 v=40
613061 On ch=1 n=a5 v=63
613071 Par ch=1 c=64 v=0
613121 On ch=1 n=g5 v=58
613136 On ch=1 n=a#5 v=81
613156 On ch=1 n=a5 v=0
613181 Par ch=1 c=64 v=24
613196 Par ch=1 c=64 v=56
613216 Par ch=1 c=64 v=88
613231 Par ch=1 c=64 v=127
613416 On ch=1 n=d#6 v=67
613421 On ch=1 n=a#5 v=0
613441 Par ch=1 c=64 v=104
613471 On ch=1 n=d#6 v=0
613501 On ch=1 n=a#4 v=56
613526 On ch=1 n=g6 v=99
613531 On ch=1 n=g5 v=0
613556 On ch=1 n=a#4 v=0
613561 Par ch=1 c=64 v=127
613651 On ch=1 n=g6 v=0
613741 On ch=1 n=a#6 v=77
613821 Par ch=1 c=64 v=88
613841 On ch=1 n=a#6 v=0
613841 Par ch=1 c=64 v=24
613856 Par ch=1 c=64 v=0
613891 On ch=1 n=g7 v=99
613896 On ch=1 n=g6 v=83
613901 On ch=1 n=b6 v=92
613901 On ch=1 n=g4 v=67
613921 On ch=1 n=d4 v=61
613941 On ch=1 n=b4 v=32
613941 Par ch=1 c=64 v=24
613951 On ch=1 n=d4 v=0
613961 Par ch=1 c=64 v=104
613971 On ch=1 n=g4 v=0
613976 On ch=1 n=g6 v=0
613976 Par ch=1 c=64 v=127
613981 On ch=1 n=b4 v=0
613991 On ch=1 n=b6 v=0
614011 On ch=1 n=g7 v=0
614176 On ch=1 n=g#7 v=95
614176 On ch=1 n=g#6 v=92
614201 On ch=1 n=g#5 v=80
614206 On ch=1 n=g#7 v=0
614211 On ch=1 n=g#6 v=0
614256 On ch=1 n=g#5 v=0
614276 Par ch=1 c=64 v=56
614291 On ch=1 n=g7 v=103
614291 On ch=1 n=g6 v=96
614291 Par ch=1 c=64 v=0
614321 On ch=1 n=g5 v=81
614381 Par ch=1 c=64 v=24
614386 On ch=1 n=g5 v=0
614396 Par ch=1 c=64 v=88
614416 Par ch=1 c=64 v=127
614731 On ch=1 n=b4 v=56
614751 On ch=1 n=g4 v=41
614786 On ch=1 n=b4 v=0
614791 On ch=1 n=g7 v=0
614806 On ch=1 n=g4 v=0
614826 On ch=1 n=g6 v=0
615061 Par ch=1 c=64 v=88
615076 Par ch=1 c=64 v=0
615131 On ch=1 n=c4 v=72
615201 Par ch=1 c=64 v=40
615216 On ch=1 n=c4 v=0
615221 Par ch=1 c=64 v=72
615231 Par ch=1 c=64 v=104
615251 Par ch=1 c=64 v=127
615391 Par ch=1 c=64 v=56
615401 On ch=1 n=g5 v=66
615411 Par ch=1 c=64 v=0
615481 On ch=1 n=d#5 v=64
615481 On ch=1 n=c6 v=82
615516 On ch=1 n=g5 v=0
615531 Par ch=1 c=64 v=40
615546 Par ch=1 c=64 v=72
615566 Par ch=1 c=64 v=104
615581 Par ch=1 c=64 v=127
615736 On ch=1 n=d#5 v=0
615736 On ch=1 n=d#6 v=77
615746 On ch=1 n=c6 v=0
615791 On ch=1 n=d#6 v=0
615821 On ch=1 n=g4 v=60
615851 On ch=1 n=g4 v=0
615856 On ch=1 n=g6 v=94
615991 On ch=1 n=g6 v=0
616071 On ch=1 n=c7 v=87
616126 Par ch=1 c=64 v=88
616141 Par ch=1 c=64 v=0
616151 On ch=1 n=c7 v=0
616186 On ch=1 n=a#3 v=72
616191 On ch=1 n=d#7 v=95
616246 On ch=1 n=a#3 v=0
616246 Par ch=1 c=64 v=56
616261 Par ch=1 c=64 v=104
616281 Par ch=1 c=64 v=127
616321 On ch=1 n=d#7 v=0
616466 On ch=1 n=g5 v=63
616471 On ch=1 n=g7 v=90
616476 On ch=1 n=g4 v=74
616481 On ch=1 n=g6 v=83
616496 On ch=1 n=g5 v=0
616501 On ch=1 n=g4 v=0
616506 On ch=1 n=g6 v=0
616531 On ch=1 n=g7 v=0
616541 Par ch=1 c=64 v=88
616561 Par ch=1 c=64 v=0
616576 On ch=1 n=f#7 v=95
616596 On ch=1 n=f#6 v=99
616601 On ch=1 n=f#5 v=85
616606 On ch=1 n=f#4 v=80
616656 On ch=1 n=f#5 v=0
616661 On ch=1 n=f#4 v=0
616666 Par ch=1 c=64 v=104
616681 Par ch=1 c=64 v=127
617071 On ch=1 n=a#4 v=62
617076 On ch=1 n=a#3 v=61
617091 On ch=1 n=f#7 v=0
617106 On ch=1 n=f#6 v=0
617336 On ch=1 n=a#4 v=0
617391 On ch=1 n=a#3 v=0
617431 Par ch=1 c=64 v=88
617446 Par ch=1 c=64 v=0
617461 On ch=1 n=a4 v=52
617461 On ch=1 n=a3 v=48
617546 On ch=1 n=a3 v=0
617571 Par ch=1 c=64 v=56
617576 On ch=1 n=a4 v=0
617586 Par ch=1 c=64 v=104
617606 Par ch=1 c=64 v=127
617706 Par ch=1 c=64 v=72
617711 On ch=1 n=f5 v=64
617726 Par ch=1 c=64 v=0
617806 On ch=1 n=d#5 v=67
617836 On ch=1 n=c6 v=75
617846 On ch=1 n=f5 v=0
617851 Par ch=1 c=64 v=56
617866 Par ch=1 c=64 v=88
617886 Par ch=1 c=64 v=127
618041 On ch=1 n=c6 v=0
618046 On ch=1 n=d#6 v=67
618056 Par ch=1 c=64 v=104
618076 Par ch=1 c=64 v=88
618091 Par ch=1 c=64 v=72
618101 On ch=1 n=d#6 v=0
618151 On ch=1 n=f4 v=46
618166 On ch=1 n=d#5 v=0
618176 On ch=1 n=f6 v=78
618181 Par ch=1 c=64 v=88
618186 On ch=1 n=f4 v=0
618216 Par ch=1 c=64 v=104
618231 Par ch=1 c=64 v=127
618271 On ch=1 n=f6 v=0
618386 On ch=1 n=c7 v=71
618426 Par ch=1 c=64 v=72
618441 Par ch=1 c=64 v=0
618461 On ch=1 n=c7 v=0
618491 On ch=1 n=a#3 v=63
618511 On ch=1 n=d#7 v=95
618531 Par ch=1 c=64 v=24
618546 Par ch=1 c=64 v=72
618556 On ch=1 n=a#3 v=0
618561 Par ch=1 c=64 v=127
618631 On ch=1 n=d#7 v=0
618781 On ch=1 n=g7 v=84
618786 On ch=1 n=g6 v=87
618796 On ch=1 n=g5 v=62
618806 On ch=1 n=g4 v=54
618816 On ch=1 n=g7 v=0
618821 On ch=1 n=g6 v=0
618826 On ch=1 n=g5 v=0
618826 Par ch=1 c=64 v=104
618836 On ch=1 n=g4 v=0
618841 Par ch=1 c=64 v=24
618861 Par ch=1 c=64 v=0
618891 On ch=1 n=f#7 v=99
618901 On ch=1 n=f#6 v=106
618916 On ch=1 n=f#5 v=81
618936 On ch=1 n=f#4 v=42
618946 Par ch=1 c=64 v=40
618961 Par ch=1 c=64 v=127
618971 On ch=1 n=f#4 v=0
618981 On ch=1 n=f#5 v=0
619301 On ch=1 n=a#4 v=68
619311 On ch=1 n=a#3 v=64
619356 On ch=1 n=f#7 v=0
619376 On ch=1 n=f#6 v=0
619396 On ch=1 n=a#4 v=0
619486 On ch=1 n=a#3 v=0
619646 Par ch=1 c=64 v=72
619661 Par ch=1 c=64 v=0
619691 On ch=1 n=a3 v=62
619701 On ch=1 n=a4 v=55
619761 On ch=1 n=a3 v=0
619766 Par ch=1 c=64 v=40
619781 Par ch=1 c=64 v=88
619796 Par ch=1 c=64 v=127
619801 On ch=1 n=a4 v=0
619941 On ch=1 n=f5 v=64
619976 Par ch=1 c=64 v=104
619991 Par ch=1 c=64 v=40
620011 Par ch=1 c=64 v=0
620036 On ch=1 n=c6 v=81
620051 On ch=1 n=d#5 v=67
620086 On ch=1 n=f5 v=0
620116 Par ch=1 c=64 v=24
620131 Par ch=1 c=64 v=72
620151 Par ch=1 c=64 v=104
620166 Par ch=1 c=64 v=127
620296 On ch=1 n=d#6 v=70
620306 On ch=1 n=c6 v=0
620346 On ch=1 n=d#6 v=0
620411 On ch=1 n=f4 v=53
620411 On ch=1 n=f6 v=89
620521 On ch=1 n=d#5 v=0
620536 On ch=1 n=f6 v=0
620676 On ch=1 n=c7 v=69
620741 Par ch=1 c=64 v=56
620761 On ch=1 n=c7 v=0
620761 Par ch=1 c=64 v=0
620766 On ch=1 n=d#7 v=88
620771 On ch=1 n=f4 v=0
620786 On ch=1 n=a#3 v=62
620791 On ch=1 n=f6 v=2
620856 On ch=1 n=f6 v=0
620866 Par ch=1 c=64 v=56
620881 Par ch=1 c=64 v=104
620901 Par ch=1 c=64 v=127
620936 On ch=1 n=a#3 v=0
621026 On ch=1 n=d#7 v=0
621081 On ch=1 n=f7 v=78
621141 Par ch=1 c=64 v=104
621161 Par ch=1 c=64 v=24
621166 On ch=1 n=c#7 v=90
621181 On ch=1 n=f7 v=0
621181 Par ch=1 c=64 v=0
621186 On ch=1 n=d5 v=68
621196 On ch=1 n=f6 v=57
621246 Par ch=1 c=64 v=24
621266 Par ch=1 c=64 v=72
621281 Par ch=1 c=64 v=104
621301 On ch=1 n=c#7 v=0
621301 Par ch=1 c=64 v=127
621441 On ch=1 n=f6 v=0
621471 On ch=1 n=d7 v=81
621541 Par ch=1 c=64 v=72
621551 On ch=1 n=a6 v=75
621556 On ch=1 n=f#4 v=70
621561 On ch=1 n=d7 v=0
621561 Par ch=1 c=64 v=0
621566 On ch=1 n=d6 v=49
621601 On ch=1 n=d5 v=0
621651 Par ch=1 c=64 v=24
621666 Par ch=1 c=64 v=56
621681 Par ch=1 c=64 v=88
621701 Par ch=1 c=64 v=127
621736 On ch=1 n=d6 v=0
621796 On ch=1 n=a6 v=0
621866 On ch=1 n=a#6 v=65
621931 On ch=1 n=f#4 v=0
621966 On ch=1 n=g4 v=73
621971 On ch=1 n=a#6 v=0
621971 Par ch=1 c=64 v=72
621976 On ch=1 n=d#4 v=48
621976 On ch=1 n=f#6 v=75
621976 On ch=1 n=a#5 v=43
621996 Par ch=1 c=64 v=0
622096 On ch=1 n=a#5 v=0
622101 Par ch=1 c=64 v=24
622121 On ch=1 n=f#6 v=0
622121 Par ch=1 c=64 v=56
622136 Par ch=1 c=64 v=104
622156 Par ch=1 c=64 v=127
622306 On ch=1 n=g6 v=65
622331 On ch=1 n=d#4 v=0
622376 On ch=1 n=g4 v=0
622376 Par ch=1 c=64 v=104
622386 On ch=1 n=g6 v=0
622401 Par ch=1 c=64 v=40
622411 On ch=1 n=a#4 v=75
622416 Par ch=1 c=64 v=0
622436 On ch=1 n=d6 v=66
622446 On ch=1 n=g5 v=48
622521 Par ch=1 c=64 v=40
622536 Par ch=1 c=64 v=72
622556 Par ch=1 c=64 v=104
622571 Par ch=1 c=64 v=127
622591 On ch=1 n=g5 v=0
622646 On ch=1 n=d6 v=0
622711 On ch=1 n=d#6 v=58
622791 On ch=1 n=d#6 v=0
622876 On ch=1 n=a#4 v=0
622881 On ch=1 n=a4 v=70
622881 On ch=1 n=b5 v=58
622891 On ch=1 n=d#5 v=30
622906 On ch=1 n=f4 v=46
622906 Par ch=1 c=64 v=88
622921 Par ch=1 c=64 v=24
622936 Par ch=1 c=64 v=0
623061 Par ch=1 c=64 v=40
623066 On ch=1 n=b5 v=0
623076 On ch=1 n=d#5 v=0
623076 Par ch=1 c=64 v=88
623096 Par ch=1 c=64 v=127
623201 On ch=1 n=c6 v=63
623276 On ch=1 n=a4 v=0
623286 On ch=1 n=c6 v=0
623286 Par ch=1 c=64 v=104
623306 Par ch=1 c=64 v=72
623321 Par ch=1 c=64 v=24
623336 On ch=1 n=f4 v=0
623341 On ch=1 n=a#4 v=58
623341 On ch=1 n=d5 v=48
623341 On ch=1 n=a#5 v=55
623341 Par ch=1 c=64 v=0
623526 Par ch=1 c=64 v=127
623536 On ch=1 n=d5 v=0
623586 On ch=1 n=a#4 v=0
623631 On ch=1 n=a#5 v=0
623931 On ch=1 n=a#6 v=83
623931 On ch=1 n=a#3 v=57
623931 On ch=1 n=a#2 v=64
623931 On ch=1 n=a#5 v=63
623986 On ch=1 n=a#3 v=0
623991 On ch=1 n=a#2 v=0
624001 On ch=1 n=a#5 v=0
624021 On ch=1 n=a#6 v=0
624891 Par ch=1 c=64 v=104
624906 Par ch=1 c=64 v=72
624926 Par ch=1 c=64 v=56
624946 Par ch=1 c=64 v=40
624961 Par ch=1 c=64 v=24
624976 Par ch=1 c=64 v=0
625921 Par ch=1 c=64 v=40
625941 Par ch=1 c=64 v=72
625961 Par ch=1 c=64 v=104
625976 Par ch=1 c=64 v=127
626211 On ch=1 n=f#6 v=68
626231 On ch=1 n=f#5 v=39
626516 On ch=1 n=f#6 v=0
626541 On ch=1 n=f#5 v=0
626721 On ch=1 n=g6 v=73
626736 On ch=1 n=g5 v=49
626751 Par ch=1 c=64 v=104
626756 On ch=1 n=d#3 v=47
626771 Par ch=1 c=64 v=40
626786 Par ch=1 c=64 v=0
626841 Par ch=1 c=64 v=24
626851 On ch=1 n=g5 v=0
626861 Par ch=1 c=64 v=72
626881 Par ch=1 c=64 v=127
626896 On ch=1 n=d#3 v=0
626906 On ch=1 n=g6 v=0
627221 On ch=1 n=a#6 v=77
627231 On ch=1 n=g4 v=56
627241 On ch=1 n=a#5 v=55
627386 On ch=1 n=g4 v=0
627406 On ch=1 n=a#5 v=0
627441 On ch=1 n=a#6 v=0
627721 On ch=1 n=a6 v=77
627736 On ch=1 n=a5 v=55
627741 On ch=1 n=d#6 v=53
627751 On ch=1 n=f4 v=47
627761 On ch=1 n=f3 v=47
627761 Par ch=1 c=64 v=40
627781 Par ch=1 c=64 v=0
627871 Par ch=1 c=64 v=72
627881 On ch=1 n=f4 v=0
627891 On ch=1 n=a5 v=0
627891 Par ch=1 c=64 v=127
627916 On ch=1 n=f3 v=0
627931 On ch=1 n=d#6 v=0
627936 On ch=1 n=a6 v=0
628306 On ch=1 n=a#6 v=65
628326 On ch=1 n=a#5 v=41
628341 On ch=1 n=d6 v=53
628341 On ch=1 n=a#3 v=40
628346 On ch=1 n=a#2 v=46
628371 Par ch=1 c=64 v=40
628386 Par ch=1 c=64 v=0
628466 On ch=1 n=d6 v=0
628491 On ch=1 n=a#5 v=0
628501 Par ch=1 c=64 v=104
628516 Par ch=1 c=64 v=127
628531 On ch=1 n=a#6 v=0
628561 On ch=1 n=a#2 v=0
628581 On ch=1 n=a#3 v=0
628791 On ch=1 n=f7 v=82
628886 On ch=1 n=c#7 v=70
628901 On ch=1 n=f7 v=0
628911 On ch=1 n=f6 v=52
628976 On ch=1 n=f6 v=0
628976 On ch=1 n=c#7 v=0
629236 On ch=1 n=d7 v=68
629321 On ch=1 n=d7 v=0
629321 On ch=1 n=a6 v=70
629321 Par ch=1 c=64 v=104
629341 On ch=1 n=f#4 v=54
629346 Par ch=1 c=64 v=40
629361 Par ch=1 c=64 v=0
629386 On ch=1 n=d6 v=42
629416 Par ch=1 c=64 v=24
629436 Par ch=1 c=64 v=72
629456 Par ch=1 c=64 v=127
629561 On ch=1 n=a6 v=0
629611 On ch=1 n=d6 v=0
629681 On ch=1 n=a#6 v=69
629711 On ch=1 n=f#4 v=0
629761 On ch=1 n=g4 v=58
629771 Par ch=1 c=64 v=40
629786 Par ch=1 c=64 v=0
629791 On ch=1 n=f#6 v=67
629801 On ch=1 n=a#6 v=0
629811 On ch=1 n=d#4 v=46
629846 On ch=1 n=a#5 v=42
629876 Par ch=1 c=64 v=72
629891 On ch=1 n=f#6 v=0
629896 Par ch=1 c=64 v=127
629921 On ch=1 n=a#5 v=0
630136 On ch=1 n=g6 v=66
630216 On ch=1 n=g6 v=0
630221 On ch=1 n=d6 v=70
630226 Par ch=1 c=64 v=88
630246 Par ch=1 c=64 v=24
630266 Par ch=1 c=64 v=0
630276 On ch=1 n=a#4 v=49
630296 On ch=1 n=g5 v=40
630351 On ch=1 n=g4 v=0
630356 Par ch=1 c=64 v=56
630376 Par ch=1 c=64 v=127
630471 On ch=1 n=d6 v=0
630471 On ch=1 n=d#4 v=0
630501 On ch=1 n=g5 v=0
630601 On ch=1 n=d#6 v=49
630636 On ch=1 n=d#6 v=0
630726 Par ch=1 c=64 v=104
630741 On ch=1 n=b5 v=59
630741 Par ch=1 c=64 v=24
630756 On ch=1 n=a#4 v=0
630756 On ch=1 n=d#5 v=42
630756 On ch=1 n=f4 v=40
630756 On ch=1 n=a4 v=50
630761 Par ch=1 c=64 v=0
630871 Par ch=1 c=64 v=40
630891 Par ch=1 c=64 v=88
630906 Par ch=1 c=64 v=127
630911 On ch=1 n=b5 v=0
630936 On ch=1 n=d#5 v=0
631141 On ch=1 n=c6 v=57
631186 Par ch=1 c=64 v=72
631201 Par ch=1 c=64 v=0
631216 On ch=1 n=c6 v=0
631281 On ch=1 n=a#5 v=50
631296 On ch=1 n=a#4 v=40
631301 On ch=1 n=d5 v=37
631371 On ch=1 n=a4 v=0
631386 Par ch=1 c=64 v=40
631406 Par ch=1 c=64 v=88
631421 Par ch=1 c=64 v=127
631456 Par ch=1 c=64 v=104
631461 On ch=1 n=f4 v=0
631476 Par ch=1 c=64 v=40
631496 Par ch=1 c=64 v=0
631606 Par ch=1 c=64 v=56
631626 Par ch=1 c=64 v=127
631696 On ch=1 n=d5 v=0
631776 On ch=1 n=a#5 v=0
631821 On ch=1 n=a#3 v=37
631946 On ch=1 n=a#3 v=0
632001 On ch=1 n=a#4 v=0
632446 On ch=1 n=d6 v=68
632476 On ch=1 n=g#5 v=32
632486 On ch=1 n=d5 v=42
632491 Par ch=1 c=64 v=40
632511 On ch=1 n=a#4 v=23
632511 Par ch=1 c=64 v=0
632621 Par ch=1 c=64 v=72
632636 Par ch=1 c=64 v=127
632641 On ch=1 n=d6 v=0
632741 On ch=1 n=a#4 v=0
632971 On ch=1 n=d6 v=75
632986 On ch=1 n=a4 v=26
632986 Par ch=1 c=64 v=104
633006 Par ch=1 c=64 v=40
633026 Par ch=1 c=64 v=0
633116 Par ch=1 c=64 v=40
633136 Par ch=1 c=64 v=104
633151 On ch=1 n=d6 v=0
633151 Par ch=1 c=64 v=127
633171 On ch=1 n=d5 v=0
633191 On ch=1 n=g#5 v=0
633316 On ch=1 n=d6 v=69
633426 On ch=1 n=d6 v=0
633441 On ch=1 n=f6 v=83
633481 On ch=1 n=a5 v=40
633486 Par ch=1 c=64 v=88
633496 On ch=1 n=d5 v=31
633501 Par ch=1 c=64 v=24
633521 Par ch=1 c=64 v=0
633631 Par ch=1 c=64 v=88
633646 Par ch=1 c=64 v=127
633711 On ch=1 n=a5 v=0
633806 On ch=1 n=d5 v=0
633986 On ch=1 n=f6 v=0
634016 On ch=1 n=e6 v=62
634056 On ch=1 n=g5 v=35
634066 On ch=1 n=c#5 v=27
634146 Par ch=1 c=64 v=40
634166 Par ch=1 c=64 v=0
634296 Par ch=1 c=64 v=88
634311 Par ch=1 c=64 v=127
634351 On ch=1 n=g5 v=0
634486 On ch=1 n=c#5 v=0
634556 On ch=1 n=e6 v=0
634651 On ch=1 n=d6 v=55
634691 On ch=1 n=f5 v=38
634691 On ch=1 n=d5 v=34
634751 Par ch=1 c=64 v=40
634771 Par ch=1 c=64 v=0
634881 On ch=1 n=d6 v=0
634881 Par ch=1 c=64 v=40
634901 Par ch=1 c=64 v=127
635026 On ch=1 n=a4 v=0
635036 On ch=1 n=d5 v=0
635036 On ch=1 n=f5 v=0
635186 On ch=1 n=a7 v=81
635276 On ch=1 n=e7 v=82
635281 On ch=1 n=a7 v=0
635321 On ch=1 n=a6 v=36
635361 On ch=1 n=e7 v=0
635436 On ch=1 n=a6 v=0
635661 On ch=1 n=f7 v=73
635711 Par ch=1 c=64 v=88
635721 On ch=1 n=c#7 v=77
635726 Par ch=1 c=64 v=24
635741 On ch=1 n=f6 v=41
635746 Par ch=1 c=64 v=0
635751 On ch=1 n=f7 v=0
635771 On ch=1 n=d5 v=49
635771 On ch=1 n=g#4 v=39
635821 Par ch=1 c=64 v=72
635826 On ch=1 n=c#7 v=0
635836 Par ch=1 c=64 v=127
635936 On ch=1 n=f6 v=0
636086 On ch=1 n=g#4 v=0
636096 On ch=1 n=d7 v=71
636181 On ch=1 n=d7 v=0
636181 On ch=1 n=g#6 v=71
636196 On ch=1 n=a4 v=48
636201 On ch=1 n=d6 v=52
636206 Par ch=1 c=64 v=72
636226 Par ch=1 c=64 v=0
636301 On ch=1 n=g#6 v=0
636316 Par ch=1 c=64 v=24
636336 Par ch=1 c=64 v=88
636356 Par ch=1 c=64 v=127
636441 On ch=1 n=d6 v=0
636536 On ch=1 n=a6 v=66
636621 On ch=1 n=a6 v=0
636631 On ch=1 n=e6 v=65
636631 Par ch=1 c=64 v=88
636646 Par ch=1 c=64 v=24
636651 On ch=1 n=f5 v=64
636666 Par ch=1 c=64 v=0
636686 On ch=1 n=a5 v=45
636741 Par ch=1 c=64 v=56
636761 Par ch=1 c=64 v=104
636776 Par ch=1 c=64 v=127
636806 On ch=1 n=e6 v=0
636966 On ch=1 n=a5 v=0
637011 On ch=1 n=f5 v=0
637021 On ch=1 n=f6 v=63
637076 On ch=1 n=f6 v=0
637146 On ch=1 n=d5 v=0
637166 On ch=1 n=g5 v=41
637166 On ch=1 n=b5 v=53
637166 On ch=1 n=e5 v=61
637181 Par ch=1 c=64 v=104
637201 Par ch=1 c=64 v=40
637221 Par ch=1 c=64 v=0
637331 Par ch=1 c=64 v=56
637346 Par ch=1 c=64 v=127
637491 On ch=1 n=b5 v=0
637516 On ch=1 n=g5 v=0
637596 On ch=1 n=c#6 v=56
637711 On ch=1 n=c#6 v=0
637716 On ch=1 n=e5 v=0
637756 On ch=1 n=d6 v=55
637766 On ch=1 n=d5 v=57
637766 On ch=1 n=f5 v=41
637791 Par ch=1 c=64 v=56
637806 Par ch=1 c=64 v=0
637916 Par ch=1 c=64 v=40
637936 Par ch=1 c=64 v=104
637956 Par ch=1 c=64 v=127
637981 On ch=1 n=a4 v=0
638246 Par ch=1 c=64 v=88
638266 Par ch=1 c=64 v=24
638286 Par ch=1 c=64 v=0
638311 On ch=1 n=d4 v=46
638341 Par ch=1 c=64 v=24
638361 Par ch=1 c=64 v=72
638376 Par ch=1 c=64 v=127
638396 On ch=1 n=f5 v=0
638426 On ch=1 n=d4 v=0
638441 On ch=1 n=d6 v=0
638456 On ch=1 n=d5 v=0
638971 On ch=1 n=a#5 v=61
638986 On ch=1 n=d5 v=48
638986 On ch=1 n=g#5 v=43
639006 On ch=1 n=a#4 v=31
639076 Par ch=1 c=64 v=56
639096 Par ch=1 c=64 v=0
639226 Par ch=1 c=64 v=88
639241 Par ch=1 c=64 v=127
639256 On ch=1 n=d5 v=0
639291 On ch=1 n=g#5 v=0
639306 On ch=1 n=a#5 v=0
639596 On ch=1 n=a#5 v=65
639631 On ch=1 n=g5 v=43
639656 On ch=1 n=d#5 v=41
639666 On ch=1 n=d#4 v=48
639666 Par ch=1 c=64 v=40
639686 Par ch=1 c=64 v=0
639756 Par ch=1 c=64 v=40
639776 Par ch=1 c=64 v=127
639811 On ch=1 n=g5 v=0
639861 On ch=1 n=d#4 v=0
639876 On ch=1 n=d#5 v=0
639876 On ch=1 n=a#5 v=0
639891 On ch=1 n=a#4 v=0
640131 On ch=1 n=g6 v=82
640146 On ch=1 n=g5 v=56
640346 On ch=1 n=g5 v=0
640581 On ch=1 n=g6 v=0
640626 On ch=1 n=f6 v=76
640641 On ch=1 n=f5 v=47
640656 Par ch=1 c=64 v=104
640666 On ch=1 n=b4 v=41
640666 On ch=1 n=g4 v=43
640676 Par ch=1 c=64 v=40
640696 Par ch=1 c=64 v=0
640741 On ch=1 n=b4 v=0
640751 Par ch=1 c=64 v=24
640766 On ch=1 n=f5 v=0
640766 Par ch=1 c=64 v=88
640771 On ch=1 n=g4 v=0
640786 Par ch=1 c=64 v=127
641026 On ch=1 n=c4 v=48
641061 On ch=1 n=g4 v=44
641156 On ch=1 n=f6 v=0
641156 On ch=1 n=d#6 v=74
641196 On ch=1 n=d#5 v=51
641211 Par ch=1 c=64 v=104
641226 Par ch=1 c=64 v=24
641246 Par ch=1 c=64 v=0
641356 Par ch=1 c=64 v=104
641376 Par ch=1 c=64 v=127
641446 On ch=1 n=d#6 v=0
641511 On ch=1 n=d#5 v=0
641636 On ch=1 n=d6 v=73
641646 On ch=1 n=d5 v=56
641706 Par ch=1 c=64 v=72
641726 Par ch=1 c=64 v=40
641746 Par ch=1 c=64 v=56
641761 Par ch=1 c=64 v=104
641781 Par ch=1 c=64 v=127
641791 On ch=1 n=c4 v=0
641801 On ch=1 n=d5 v=0
641851 On ch=1 n=g4 v=0
642001 On ch=1 n=d6 v=0
642096 On ch=1 n=c6 v=72
642131 On ch=1 n=c5 v=43
642131 On ch=1 n=d#4 v=43
642141 On ch=1 n=g4 v=40
642151 Par ch=1 c=64 v=88
642166 Par ch=1 c=64 v=0
642246 On ch=1 n=g4 v=0
642276 On ch=1 n=d#4 v=0
642276 Par ch=1 c=64 v=72
642296 On ch=1 n=c6 v=0
642296 Par ch=1 c=64 v=127
642506 On ch=1 n=c5 v=0
642596 On ch=1 n=d6 v=69
642601 On ch=1 n=f4 v=48
642606 Par ch=1 c=64 v=104
642626 Par ch=1 c=64 v=40
642646 Par ch=1 c=64 v=0
642791 Par ch=1 c=64 v=72
642811 Par ch=1 c=64 v=127
643066 On ch=1 n=d5 v=60
643091 On ch=1 n=a#4 v=44
643176 On ch=1 n=f4 v=0
643276 On ch=1 n=d5 v=0
643426 On ch=1 n=a#4 v=0
643456 On ch=1 n=d6 v=0
643556 On ch=1 n=d#5 v=67
643566 On ch=1 n=c6 v=69
643586 On ch=1 n=f#4 v=42
643601 On ch=1 n=a4 v=46
643621 Par ch=1 c=64 v=88
643641 Par ch=1 c=64 v=0
643751 Par ch=1 c=64 v=56
643766 Par ch=1 c=64 v=127
643926 On ch=1 n=f#4 v=0
643956 On ch=1 n=a4 v=0
644096 On ch=1 n=a#5 v=55
644141 On ch=1 n=g4 v=40
644146 On ch=1 n=c6 v=0
644226 Par ch=1 c=64 v=72
644246 Par ch=1 c=64 v=0
644356 Par ch=1 c=64 v=40
644371 Par ch=1 c=64 v=104
644391 Par ch=1 c=64 v=127
644471 On ch=1 n=d#5 v=0
644701 On ch=1 n=d5 v=42
644706 On ch=1 n=a#4 v=23
644741 Par ch=1 c=64 v=40
644761 Par ch=1 c=64 v=0
644851 Par ch=1 c=64 v=72
644871 Par ch=1 c=64 v=127
644951 On ch=1 n=d5 v=0
644956 On ch=1 n=g4 v=0
644966 On ch=1 n=a#4 v=0
644966 On ch=1 n=a#5 v=0
645321 On ch=1 n=a#5 v=65
645336 On ch=1 n=g#5 v=45
645346 On ch=1 n=d5 v=44
645356 On ch=1 n=a#4 v=31
645366 Par ch=1 c=64 v=40
645386 Par ch=1 c=64 v=0
645461 Par ch=1 c=64 v=24
645481 Par ch=1 c=64 v=88
645496 On ch=1 n=d5 v=0
645496 Par ch=1 c=64 v=127
645531 On ch=1 n=g#5 v=0
645581 On ch=1 n=a#5 v=0
645816 On ch=1 n=a#5 v=64
645841 On ch=1 n=g5 v=59
645846 On ch=1 n=d#4 v=47
645846 On ch=1 n=d#5 v=29
645846 Par ch=1 c=64 v=72
645866 Par ch=1 c=64 v=24
645886 On ch=1 n=g5 v=0
645886 Par ch=1 c=64 v=0
645921 Par ch=1 c=64 v=56
645941 On ch=1 n=a#5 v=0
645941 Par ch=1 c=64 v=127
645966 On ch=1 n=d#4 v=0
645981 On ch=1 n=d#5 v=0
645996 On ch=1 n=a#4 v=0
646211 On ch=1 n=a5 v=62
646266 Par ch=1 c=64 v=88
646286 On ch=1 n=g5 v=64
646291 Par ch=1 c=64 v=40
646306 Par ch=1 c=64 v=24
646316 On ch=1 n=a5 v=0
646316 On ch=1 n=a6 v=79
646326 Par ch=1 c=64 v=56
646346 Par ch=1 c=64 v=104
646361 Par ch=1 c=64 v=127
646396 On ch=1 n=a6 v=0
646431 On ch=1 n=g5 v=0
646661 On ch=1 n=b5 v=55
646731 Par ch=1 c=64 v=72
646746 Par ch=1 c=64 v=0
646751 On ch=1 n=f5 v=60
646766 On ch=1 n=b6 v=79
646771 On ch=1 n=b4 v=44
646786 On ch=1 n=b5 v=0
646786 On ch=1 n=g4 v=46
646806 Par ch=1 c=64 v=104
646821 Par ch=1 c=64 v=127
646826 On ch=1 n=b4 v=0
646841 On ch=1 n=f5 v=0
646851 On ch=1 n=b6 v=0
646886 On ch=1 n=g4 v=0
647116 On ch=1 n=c6 v=69
647156 On ch=1 n=c4 v=48
647171 Par ch=1 c=64 v=104
647191 Par ch=1 c=64 v=0
647211 On ch=1 n=g4 v=49
647246 On ch=1 n=c7 v=87
647251 On ch=1 n=c6 v=0
647281 On ch=1 n=d#5 v=62
647281 Par ch=1 c=64 v=40
647301 Par ch=1 c=64 v=127
647341 On ch=1 n=c7 v=0
647501 On ch=1 n=d#5 v=0
647576 On ch=1 n=c4 v=0
647601 On ch=1 n=d6 v=66
647676 On ch=1 n=d5 v=65
647686 Par ch=1 c=64 v=72
647706 On ch=1 n=d7 v=82
647706 Par ch=1 c=64 v=40
647721 On ch=1 n=d6 v=0
647721 Par ch=1 c=64 v=56
647741 Par ch=1 c=64 v=104
647761 Par ch=1 c=64 v=127
647821 On ch=1 n=d7 v=0
647901 On ch=1 n=d5 v=0
648036 On ch=1 n=d#6 v=83
648146 Par ch=1 c=64 v=88
648166 On ch=1 n=d#7 v=82
648166 On ch=1 n=d#4 v=58
648166 Par ch=1 c=64 v=24
648171 On ch=1 n=c5 v=59
648181 Par ch=1 c=64 v=0
648196 On ch=1 n=d#6 v=0
648211 On ch=1 n=g4 v=0
648241 Par ch=1 c=64 v=72
648256 Par ch=1 c=64 v=127
648261 On ch=1 n=d#7 v=0
648306 On ch=1 n=d#4 v=0
648481 On ch=1 n=d6 v=70
648561 On ch=1 n=c5 v=0
648631 On ch=1 n=d7 v=83
648641 Par ch=1 c=64 v=40
648646 On ch=1 n=d4 v=52
648661 Par ch=1 c=64 v=0
648811 Par ch=1 c=64 v=72
648826 Par ch=1 c=64 v=127
649121 On ch=1 n=a#4 v=37
649136 On ch=1 n=g4 v=53
649226 On ch=1 n=d7 v=0
649271 On ch=1 n=g4 v=0
649276 On ch=1 n=d6 v=0
649386 On ch=1 n=a#4 v=0
649606 On ch=1 n=c7 v=79
649626 On ch=1 n=c6 v=51
649641 On ch=1 n=f#4 v=35
649656 On ch=1 n=a4 v=42
649711 Par ch=1 c=64 v=40
649726 Par ch=1 c=64 v=0
649801 Par ch=1 c=64 v=24
649821 On ch=1 n=f#4 v=0
649821 Par ch=1 c=64 v=104
649836 Par ch=1 c=64 v=127
649876 On ch=1 n=c7 v=0
649916 On ch=1 n=c6 v=0
649966 On ch=1 n=a4 v=0
650156 On ch=1 n=b6 v=68
650161 On ch=1 n=b5 v=49
650166 On ch=1 n=g#4 v=37
650191 On ch=1 n=f4 v=34
650261 Par ch=1 c=64 v=88
650276 Par ch=1 c=64 v=24
650301 Par ch=1 c=64 v=0
650356 Par ch=1 c=64 v=56
650366 On ch=1 n=b5 v=0
650371 Par ch=1 c=64 v=127
650646 On ch=1 n=g#4 v=0
650651 On ch=1 n=b6 v=0
650736 On ch=1 n=a#4 v=40
650741 On ch=1 n=a#6 v=54
650761 On ch=1 n=a#5 v=43
650816 Par ch=1 c=64 v=72
650831 Par ch=1 c=64 v=0
650926 Par ch=1 c=64 v=72
650941 Par ch=1 c=64 v=127
650956 On ch=1 n=a#5 v=0
650961 On ch=1 n=a#6 v=0
651006 On ch=1 n=f4 v=0
651216 On ch=1 n=d4 v=0
651376 On ch=1 n=a#4 v=0
651446 On ch=1 n=f#6 v=69
651456 On ch=1 n=f#5 v=43
651506 On ch=1 n=f#4 v=28
651511 Par ch=1 c=64 v=56
651531 Par ch=1 c=64 v=0
651586 Par ch=1 c=64 v=24
651601 Par ch=1 c=64 v=88
651621 Par ch=1 c=64 v=127
651656 On ch=1 n=f#4 v=0
651756 On ch=1 n=f#5 v=0
651826 On ch=1 n=f#6 v=0
651991 On ch=1 n=g6 v=76
652001 On ch=1 n=g5 v=56
652031 On ch=1 n=d#3 v=50
652061 Par ch=1 c=64 v=56
652081 Par ch=1 c=64 v=0
652156 Par ch=1 c=64 v=104
652176 Par ch=1 c=64 v=127
652181 On ch=1 n=g5 v=0
652221 On ch=1 n=d#3 v=0
652226 On ch=1 n=g6 v=0
652491 On ch=1 n=a#6 v=84
652506 On ch=1 n=g4 v=60
652506 On ch=1 n=a#5 v=64
652621 On ch=1 n=g4 v=0
652706 On ch=1 n=a#5 v=0
652766 On ch=1 n=a#6 v=0
652996 On ch=1 n=a6 v=81
653016 On ch=1 n=a5 v=51
653016 On ch=1 n=d#6 v=56
653041 On ch=1 n=f4 v=55
653041 Par ch=1 c=64 v=88
653056 On ch=1 n=f3 v=48
653056 Par ch=1 c=64 v=0
653166 Par ch=1 c=64 v=88
653181 On ch=1 n=f4 v=0
653186 On ch=1 n=a5 v=0
653186 Par ch=1 c=64 v=127
653201 On ch=1 n=f3 v=0
653236 On ch=1 n=d#6 v=0
653236 On ch=1 n=a6 v=0
653571 On ch=1 n=a#6 v=70
653591 On ch=1 n=a#5 v=39
653606 On ch=1 n=d6 v=58
653606 On ch=1 n=a#3 v=41
653611 Par ch=1 c=64 v=104
653626 On ch=1 n=a#2 v=48
653626 Par ch=1 c=64 v=0
653711 On ch=1 n=d6 v=0
653721 Par ch=1 c=64 v=40
653731 On ch=1 n=a#5 v=0
653736 On ch=1 n=a#2 v=0
653736 Par ch=1 c=64 v=127
653741 On ch=1 n=a#3 v=0
653766 On ch=1 n=a#6 v=0
654101 On ch=1 n=f7 v=66
654191 On ch=1 n=c#7 v=78
654201 On ch=1 n=f7 v=0
654226 On ch=1 n=f6 v=54
654276 On ch=1 n=f6 v=0
654276 On ch=1 n=c#7 v=0
654551 On ch=1 n=d7 v=65
654626 On ch=1 n=a6 v=72
654636 On ch=1 n=d7 v=0
654641 Par ch=1 c=64 v=88
654656 Par ch=1 c=64 v=24
654661 On ch=1 n=f#4 v=52
654676 Par ch=1 c=64 v=0
654711 On ch=1 n=d6 v=43
654711 Par ch=1 c=64 v=24
654731 Par ch=1 c=64 v=88
654751 Par ch=1 c=64 v=127
654871 On ch=1 n=a6 v=0
654926 On ch=1 n=d6 v=0
654981 On ch=1 n=a#6 v=57
655086 On ch=1 n=f#4 v=0
655086 On ch=1 n=f#6 v=69
655096 On ch=1 n=a#6 v=0
655096 On ch=1 n=g4 v=69
655096 Par ch=1 c=64 v=104
655106 On ch=1 n=d#4 v=53
655116 Par ch=1 c=64 v=40
655136 Par ch=1 c=64 v=0
655161 On ch=1 n=a#5 v=43
655191 On ch=1 n=f#6 v=0
655206 Par ch=1 c=64 v=72
655226 Par ch=1 c=64 v=127
655251 On ch=1 n=a#5 v=0
655451 On ch=1 n=g6 v=64
655536 On ch=1 n=g6 v=0
655556 On ch=1 n=a#4 v=61
655556 Par ch=1 c=64 v=40
655571 On ch=1 n=d6 v=56
655576 Par ch=1 c=64 v=0
655581 On ch=1 n=g4 v=0
655631 On ch=1 n=g5 v=41
655691 Par ch=1 c=64 v=88
655706 Par ch=1 c=64 v=127
655776 On ch=1 n=d6 v=0
655801 On ch=1 n=d#4 v=0
655861 On ch=1 n=g5 v=0
655921 On ch=1 n=d#6 v=49
655971 On ch=1 n=d#6 v=0
656061 On ch=1 n=a4 v=60
656081 On ch=1 n=b5 v=55
656081 On ch=1 n=f4 v=49
656086 On ch=1 n=a#4 v=0
656091 On ch=1 n=d#5 v=41
656091 Par ch=1 c=64 v=88
656111 Par ch=1 c=64 v=0
656196 On ch=1 n=b5 v=0
656221 Par ch=1 c=64 v=40
656241 Par ch=1 c=64 v=127
656251 On ch=1 n=d#5 v=0
656471 On ch=1 n=c6 v=48
656516 Par ch=1 c=64 v=104
656531 Par ch=1 c=64 v=24
656546 On ch=1 n=c6 v=0
656551 Par ch=1 c=64 v=0
656616 On ch=1 n=a#4 v=55
656616 On ch=1 n=a#5 v=46
656636 On ch=1 n=d5 v=45
656681 Par ch=1 c=64 v=88
656691 On ch=1 n=a4 v=0
656701 Par ch=1 c=64 v=127
656856 On ch=1 n=f4 v=0
657126 Par ch=1 c=64 v=88
657141 Par ch=1 c=64 v=0
657196 On ch=1 n=a#3 v=44
657271 Par ch=1 c=64 v=40
657286 Par ch=1 c=64 v=127
657301 On ch=1 n=d5 v=0
657366 On ch=1 n=a#3 v=0
657386 On ch=1 n=a#5 v=0
657406 On ch=1 n=a#4 v=0
657871 On ch=1 n=d6 v=68
657891 On ch=1 n=g#5 v=39
657906 On ch=1 n=a#4 v=41
657916 On ch=1 n=d5 v=36
657936 Par ch=1 c=64 v=88
657951 Par ch=1 c=64 v=24
657971 Par ch=1 c=64 v=0
658041 Par ch=1 c=64 v=56
658061 Par ch=1 c=64 v=127
658076 On ch=1 n=d6 v=0
658206 On ch=1 n=a#4 v=0
658396 On ch=1 n=d6 v=78
658396 On ch=1 n=a4 v=41
658431 Par ch=1 c=64 v=56
658451 Par ch=1 c=64 v=0
658541 Par ch=1 c=64 v=40
658551 On ch=1 n=d6 v=0
658561 Par ch=1 c=64 v=127
658626 On ch=1 n=d5 v=0
658671 On ch=1 n=g#5 v=0
658756 On ch=1 n=d6 v=77
658871 On ch=1 n=d6 v=0
658881 On ch=1 n=f6 v=87
658901 On ch=1 n=a5 v=53
658921 On ch=1 n=d5 v=43
658946 Par ch=1 c=64 v=104
658961 Par ch=1 c=64 v=0
659071 Par ch=1 c=64 v=56
659091 Par ch=1 c=64 v=127
659121 On ch=1 n=a5 v=0
659211 On ch=1 n=d5 v=0
659446 On ch=1 n=f6 v=0
659446 On ch=1 n=e6 v=74
659471 On ch=1 n=g5 v=43
659481 On ch=1 n=c#5 v=44
659551 Par ch=1 c=64 v=88
659571 Par ch=1 c=64 v=0
659681 Par ch=1 c=64 v=56
659701 Par ch=1 c=64 v=127
659711 On ch=1 n=g5 v=0
659836 On ch=1 n=c#5 v=0
660001 On ch=1 n=e6 v=0
660046 On ch=1 n=d6 v=55
660076 On ch=1 n=d5 v=40
660086 On ch=1 n=f5 v=42
660136 Par ch=1 c=64 v=40
660161 Par ch=1 c=64 v=0
660231 On ch=1 n=d6 v=0
660271 Par ch=1 c=64 v=56
660286 Par ch=1 c=64 v=127
660556 On ch=1 n=a7 v=81
660641 On ch=1 n=a7 v=0
660656 On ch=1 n=a4 v=0
660661 On ch=1 n=d5 v=0
660666 On ch=1 n=e7 v=70
660686 On ch=1 n=f5 v=0
660691 On ch=1 n=a6 v=56
660736 On ch=1 n=e7 v=0
660771 On ch=1 n=a6 v=0
661041 On ch=1 n=f7 v=65
661121 On ch=1 n=c#7 v=73
661131 On ch=1 n=f7 v=0
661146 On ch=1 n=f6 v=60
661151 Par ch=1 c=64 v=72
661166 On ch=1 n=g#4 v=40
661171 Par ch=1 c=64 v=24
661176 On ch=1 n=d5 v=48
661191 Par ch=1 c=64 v=0
661211 On ch=1 n=c#7 v=0
661246 Par ch=1 c=64 v=72
661256 On ch=1 n=f6 v=0
661261 Par ch=1 c=64 v=127
661476 On ch=1 n=d7 v=64
661506 On ch=1 n=g#4 v=0
661566 On ch=1 n=g#6 v=71
661571 On ch=1 n=d7 v=0
661591 On ch=1 n=d6 v=52
661596 Par ch=1 c=64 v=88
661611 On ch=1 n=a4 v=56
661611 Par ch=1 c=64 v=0
661681 On ch=1 n=g#6 v=0
661706 Par ch=1 c=64 v=40
661721 Par ch=1 c=64 v=127
661801 On ch=1 n=d6 v=0
661916 On ch=1 n=a6 v=66
662001 On ch=1 n=a6 v=0
662026 On ch=1 n=e6 v=73
662036 Par ch=1 c=64 v=40
662056 Par ch=1 c=64 v=0
662061 On ch=1 n=f5 v=56
662146 Par ch=1 c=64 v=72
662166 Par ch=1 c=64 v=127
662176 On ch=1 n=e6 v=0
662371 On ch=1 n=f5 v=0
662396 On ch=1 n=f6 v=61
662481 On ch=1 n=f6 v=0
662501 On ch=1 n=d5 v=0
662556 On ch=1 n=b5 v=56
662556 On ch=1 n=g5 v=39
662556 On ch=1 n=e5 v=55
662586 Par ch=1 c=64 v=88
662606 Par ch=1 c=64 v=0
662751 Par ch=1 c=64 v=127
662896 On ch=1 n=b5 v=0
662951 On ch=1 n=g5 v=0
663046 On ch=1 n=c#6 v=63
663101 On ch=1 n=c#6 v=0
663146 On ch=1 n=e5 v=0
663191 On ch=1 n=d6 v=59
663206 On ch=1 n=f5 v=35
663226 On ch=1 n=d5 v=39
663231 Par ch=1 c=64 v=104
663246 Par ch=1 c=64 v=24
663266 Par ch=1 c=64 v=0
663361 Par ch=1 c=64 v=24
663371 On ch=1 n=a5 v=1
663381 Par ch=1 c=64 v=104
663396 Par ch=1 c=64 v=127
663431 On ch=1 n=a4 v=0
663671 Par ch=1 c=64 v=104
663691 Par ch=1 c=64 v=24
663711 Par ch=1 c=64 v=0
663756 On ch=1 n=d4 v=52
663766 Par ch=1 c=64 v=24
663786 Par ch=1 c=64 v=88
663801 Par ch=1 c=64 v=127
663821 On ch=1 n=a5 v=0
663836 On ch=1 n=f5 v=0
663861 On ch=1 n=d4 v=0
663886 On ch=1 n=d6 v=0
663901 On ch=1 n=d5 v=0
664401 On ch=1 n=a#5 v=69
664426 On ch=1 n=g#5 v=44
664446 On ch=1 n=d5 v=41
664461 On ch=1 n=a#4 v=28
664501 Par ch=1 c=64 v=104
664516 Par ch=1 c=64 v=24
664536 Par ch=1 c=64 v=0
664611 Par ch=1 c=64 v=40
664626 Par ch=1 c=64 v=127
664696 On ch=1 n=d5 v=0
664711 On ch=1 n=g#5 v=0
664741 On ch=1 n=a#5 v=0
665026 On ch=1 n=a#5 v=64
665066 On ch=1 n=d#4 v=50
665086 On ch=1 n=g5 v=40
665106 On ch=1 n=d#5 v=43
665126 Par ch=1 c=64 v=56
665146 Par ch=1 c=64 v=0
665236 Par ch=1 c=64 v=88
665256 Par ch=1 c=64 v=127
665261 On ch=1 n=g5 v=0
665286 On ch=1 n=d#4 v=0
665321 On ch=1 n=d#5 v=0
665321 On ch=1 n=a#5 v=0
665351 On ch=1 n=a#4 v=0
665571 On ch=1 n=g6 v=80
665601 On ch=1 n=g5 v=51
665776 On ch=1 n=g5 v=0
666006 On ch=1 n=g6 v=0
666056 On ch=1 n=f6 v=86
666081 On ch=1 n=f5 v=42
666081 On ch=1 n=b4 v=41
666101 On ch=1 n=g4 v=46
666101 Par ch=1 c=64 v=72
666121 Par ch=1 c=64 v=0
666176 On ch=1 n=b4 v=0
666191 On ch=1 n=f5 v=0
666191 Par ch=1 c=64 v=56
666211 Par ch=1 c=64 v=127
666216 On ch=1 n=g4 v=0
666461 On ch=1 n=c4 v=48
666541 On ch=1 n=g4 v=44
666586 On ch=1 n=d#6 v=80
666621 On ch=1 n=d#5 v=50
666626 On ch=1 n=f6 v=0
666651 Par ch=1 c=64 v=88
666671 Par ch=1 c=64 v=0
666766 Par ch=1 c=64 v=40
666781 Par ch=1 c=64 v=127
666846 On ch=1 n=d#6 v=0
666896 On ch=1 n=d#5 v=0
667046 On ch=1 n=c4 v=0
667046 On ch=1 n=d6 v=81
667076 On ch=1 n=d5 v=46
667221 On ch=1 n=d5 v=0
667346 On ch=1 n=g4 v=0
667506 On ch=1 n=d6 v=0
667526 On ch=1 n=g4 v=45
667526 On ch=1 n=c5 v=45
667526 On ch=1 n=d#4 v=51
667526 On ch=1 n=c6 v=82
667571 Par ch=1 c=64 v=72
667591 Par ch=1 c=64 v=0
667631 On ch=1 n=g4 v=0
667691 On ch=1 n=d#4 v=0
667701 Par ch=1 c=64 v=104
667721 Par ch=1 c=64 v=127
667791 On ch=1 n=c6 v=0
667951 On ch=1 n=c5 v=0
668041 On ch=1 n=d6 v=74
668071 On ch=1 n=f4 v=52
668161 Par ch=1 c=64 v=40
668181 Par ch=1 c=64 v=0
668311 Par ch=1 c=64 v=72
668326 Par ch=1 c=64 v=127
668531 On ch=1 n=d5 v=57
668556 On ch=1 n=a#4 v=46
668611 On ch=1 n=f4 v=0
668731 On ch=1 n=d5 v=0
668886 On ch=1 n=a#4 v=0
668891 On ch=1 n=d6 v=0
669016 On ch=1 n=c6 v=68
669026 On ch=1 n=d#5 v=62
669051 On ch=1 n=f#4 v=48
669066 On ch=1 n=a4 v=47
669081 Par ch=1 c=64 v=104
669101 Par ch=1 c=64 v=24
669116 Par ch=1 c=64 v=0
669211 Par ch=1 c=64 v=40
669231 Par ch=1 c=64 v=104
669246 Par ch=1 c=64 v=127
669461 On ch=1 n=f#4 v=0
669506 On ch=1 n=a4 v=0
669571 On ch=1 n=a#5 v=57
669606 On ch=1 n=c6 v=0
669621 On ch=1 n=g4 v=42
669686 Par ch=1 c=64 v=56
669706 Par ch=1 c=64 v=0
669801 Par ch=1 c=64 v=40
669816 Par ch=1 c=64 v=104
669836 Par ch=1 c=64 v=127
669976 On ch=1 n=d#5 v=0
670176 On ch=1 n=d5 v=42
670181 On ch=1 n=a#4 v=37
670241 Par ch=1 c=64 v=88
670256 Par ch=1 c=64 v=0
670351 Par ch=1 c=64 v=40
670371 Par ch=1 c=64 v=104
670386 Par ch=1 c=64 v=127
670436 On ch=1 n=a#4 v=0
670441 On ch=1 n=a#5 v=0
670446 On ch=1 n=d5 v=0
670446 On ch=1 n=g4 v=0
670796 On ch=1 n=a#5 v=60
670816 On ch=1 n=g#5 v=39
670821 On ch=1 n=d5 v=44
670826 On ch=1 n=a#4 v=65
670866 Par ch=1 c=64 v=88
670881 Par ch=1 c=64 v=0
670956 Par ch=1 c=64 v=24
670976 On ch=1 n=d5 v=0
670976 On ch=1 n=g#5 v=0
670976 Par ch=1 c=64 v=72
670996 Par ch=1 c=64 v=127
671021 On ch=1 n=a#5 v=0
671051 On ch=1 n=a#4 v=0
671301 On ch=1 n=a#5 v=61
671301 On ch=1 n=a#4 v=70
671326 Par ch=1 c=64 v=104
671341 On ch=1 n=d#5 v=39
671341 Par ch=1 c=64 v=40
671346 On ch=1 n=g5 v=40
671351 On ch=1 n=d#4 v=48
671361 Par ch=1 c=64 v=0
671386 On ch=1 n=g5 v=0
671416 Par ch=1 c=64 v=88
671436 On ch=1 n=a#4 v=0
671436 On ch=1 n=a#5 v=0
671436 Par ch=1 c=64 v=127
671466 On ch=1 n=d#4 v=0
671471 On ch=1 n=d#5 v=0
671681 On ch=1 n=a5 v=66
671746 Par ch=1 c=64 v=56
671766 On ch=1 n=g5 v=75
671771 Par ch=1 c=64 v=0
671781 On ch=1 n=a5 v=0
671786 On ch=1 n=a6 v=75
671786 Par ch=1 c=64 v=24
671801 Par ch=1 c=64 v=72
671821 Par ch=1 c=64 v=127
671861 On ch=1 n=a6 v=0
671886 On ch=1 n=g5 v=0
672136 On ch=1 n=b5 v=56
672206 Par ch=1 c=64 v=88
672226 Par ch=1 c=64 v=24
672246 On ch=1 n=b5 v=0
672246 On ch=1 n=b6 v=81
672246 On ch=1 n=f5 v=73
672246 Par ch=1 c=64 v=0
672281 On ch=1 n=g4 v=39
672281 Par ch=1 c=64 v=40
672296 On ch=1 n=b4 v=36
672296 Par ch=1 c=64 v=104
672321 On ch=1 n=b6 v=0
672321 Par ch=1 c=64 v=127
672336 On ch=1 n=f5 v=0
672341 On ch=1 n=b4 v=0
672376 On ch=1 n=g4 v=0
672601 On ch=1 n=c6 v=68
672661 On ch=1 n=c4 v=51
672666 Par ch=1 c=64 v=72
672686 Par ch=1 c=64 v=0
672701 On ch=1 n=c6 v=0
672701 On ch=1 n=g4 v=47
672711 On ch=1 n=c7 v=82
672761 Par ch=1 c=64 v=40
672776 On ch=1 n=d#5 v=70
672781 Par ch=1 c=64 v=127
672796 On ch=1 n=c7 v=0
673061 On ch=1 n=d#5 v=0
673066 On ch=1 n=d6 v=64
673171 On ch=1 n=d6 v=0
673176 On ch=1 n=d7 v=82
673201 On ch=1 n=d5 v=68
673201 Par ch=1 c=64 v=56
673221 Par ch=1 c=64 v=0
673266 On ch=1 n=d7 v=0
673276 Par ch=1 c=64 v=56
673296 Par ch=1 c=64 v=127
673371 On ch=1 n=c4 v=0
673376 On ch=1 n=d5 v=0
673436 On ch=1 n=g4 v=0
673536 On ch=1 n=d#6 v=67
673686 On ch=1 n=d#7 v=77
673691 On ch=1 n=c5 v=65
673701 On ch=1 n=d#4 v=42
673701 Par ch=1 c=64 v=56
673716 On ch=1 n=d#6 v=0
673716 Par ch=1 c=64 v=0
673771 On ch=1 n=d#7 v=0
673771 Par ch=1 c=64 v=56
673791 Par ch=1 c=64 v=127
673841 On ch=1 n=d#4 v=0
674061 On ch=1 n=d6 v=60
674131 On ch=1 n=c5 v=0
674216 On ch=1 n=d7 v=74
674216 Par ch=1 c=64 v=72
674231 Par ch=1 c=64 v=0
674241 On ch=1 n=d4 v=47
674376 Par ch=1 c=64 v=88
674396 Par ch=1 c=64 v=127
674761 On ch=1 n=a#4 v=40
674766 On ch=1 n=g4 v=42
674786 On ch=1 n=d7 v=0
675026 On ch=1 n=a#4 v=0
675051 On ch=1 n=g4 v=0
675241 On ch=1 n=d6 v=0
675306 On ch=1 n=f#6 v=62
675311 On ch=1 n=c5 v=44
675316 On ch=1 n=a4 v=36
675406 Par ch=1 c=64 v=104
675426 Par ch=1 c=64 v=0
675536 On ch=1 n=c5 v=0
675536 Par ch=1 c=64 v=72
675556 Par ch=1 c=64 v=127
675591 On ch=1 n=a4 v=0
675886 On ch=1 n=f#6 v=0
675941 On ch=1 n=g6 v=58
675966 On ch=1 n=a#4 v=31
675986 On ch=1 n=g4 v=34
675996 Par ch=1 c=64 v=24
676016 Par ch=1 c=64 v=0
676126 Par ch=1 c=64 v=88
676146 Par ch=1 c=64 v=127
676206 On ch=1 n=g4 v=0
676246 On ch=1 n=d4 v=0
676296 On ch=1 n=a#4 v=0
676676 On ch=1 n=g3 v=46
676751 On ch=1 n=g3 v=0
676996 On ch=1 n=g6 v=0
677561 Par ch=1 c=64 v=104
677581 Par ch=1 c=64 v=72
677596 Par ch=1 c=64 v=56
677616 Par ch=1 c=64 v=24
677631 Par ch=1 c=64 v=0
679201 On ch=1 n=f3 v=60
679201 Par ch=1 c=64 v=40
679216 Par ch=1 c=64 v=104
679221 On ch=1 n=f3 v=0
679226 On ch=1 n=c4 v=53
679226 Par ch=1 c=64 v=127
679251 On ch=1 n=c4 v=0
679346 On ch=1 n=a5 v=75
679356 On ch=1 n=c5 v=82
679361 On ch=1 n=f4 v=62
679436 On ch=1 n=a5 v=0
679461 On ch=1 n=d#6 v=73
679531 On ch=1 n=d#6 v=0
679571 On ch=1 n=c6 v=79
679646 On ch=1 n=c5 v=0
679651 On ch=1 n=c6 v=0
679676 On ch=1 n=b5 v=72
679756 Par ch=1 c=64 v=88
679766 On ch=1 n=b5 v=0
679771 Par ch=1 c=64 v=56
679781 Par ch=1 c=64 v=40
679786 On ch=1 n=a#5 v=71
679791 Par ch=1 c=64 v=24
679801 On ch=1 n=d5 v=53
679801 On ch=1 n=a#4 v=42
679801 Par ch=1 c=64 v=0
679806 On ch=1 n=f4 v=0
679851 On ch=1 n=d5 v=0
679886 On ch=1 n=a#5 v=0
679891 On ch=1 n=a#4 v=0
679901 On ch=1 n=d6 v=78
679991 On ch=1 n=d6 v=0
680016 On ch=1 n=f5 v=68
680031 On ch=1 n=a#4 v=40
680046 On ch=1 n=d4 v=48
680121 On ch=1 n=f5 v=0
680126 On ch=1 n=a#5 v=72
680211 On ch=1 n=a#5 v=0
680216 On ch=1 n=d4 v=0
680241 On ch=1 n=f#5 v=69
680261 On ch=1 n=d#4 v=48
680341 On ch=1 n=f#5 v=0
680351 On ch=1 n=a#5 v=69
680446 On ch=1 n=a#5 v=0
680471 On ch=1 n=g5 v=71
680476 On ch=1 n=d#4 v=0
680486 On ch=1 n=e4 v=57
680531 On ch=1 n=e4 v=0
680561 On ch=1 n=g5 v=0
680576 On ch=1 n=c6 v=76
680661 On ch=1 n=c6 v=0
680696 On ch=1 n=f5 v=68
680721 On ch=1 n=a4 v=46
680721 On ch=1 n=f4 v=42
680726 On ch=1 n=a#4 v=0
680806 Par ch=1 c=64 v=24
680811 On ch=1 n=c6 v=78
680816 On ch=1 n=f5 v=0
680816 Par ch=1 c=64 v=56
680831 Par ch=1 c=64 v=72
680841 Par ch=1 c=64 v=88
680876 On ch=1 n=c6 v=0
680876 On ch=1 n=a4 v=0
680886 Par ch=1 c=64 v=104
680896 On ch=1 n=f4 v=0
680921 Par ch=1 c=64 v=127
680931 On ch=1 n=d#5 v=60
680961 On ch=1 n=d#5 v=0
681036 On ch=1 n=c6 v=86
681061 On ch=1 n=f3 v=56
681061 On ch=1 n=c4 v=55
681111 On ch=1 n=c4 v=0
681111 On ch=1 n=f3 v=0
681121 On ch=1 n=c6 v=0
681161 On ch=1 n=a5 v=82
681171 Par ch=1 c=64 v=104
681181 Par ch=1 c=64 v=56
681191 Par ch=1 c=64 v=24
681196 On ch=1 n=c5 v=82
681201 On ch=1 n=f4 v=61
681201 Par ch=1 c=64 v=0
681256 On ch=1 n=a5 v=0
681266 On ch=1 n=d#6 v=79
681356 On ch=1 n=d#6 v=0
681386 On ch=1 n=c6 v=82
681396 Par ch=1 c=64 v=24
681476 On ch=1 n=c6 v=0
681491 On ch=1 n=b5 v=76
681521 On ch=1 n=c5 v=0
681541 Par ch=1 c=64 v=0
681581 On ch=1 n=b5 v=0
681606 On ch=1 n=a#5 v=70
681621 On ch=1 n=a#4 v=39
681626 On ch=1 n=d5 v=49
681636 On ch=1 n=f4 v=0
681676 Par ch=1 c=64 v=24
681681 On ch=1 n=d5 v=0
681691 Par ch=1 c=64 v=40
681701 On ch=1 n=a#5 v=0
681716 On ch=1 n=a#4 v=0
681716 On ch=1 n=d6 v=80
681721 Par ch=1 c=64 v=56
681736 Par ch=1 c=64 v=72
681791 Par ch=1 c=64 v=0
681796 On ch=1 n=d6 v=0
681831 On ch=1 n=f5 v=66
681836 On ch=1 n=a#4 v=38
681856 On ch=1 n=d4 v=40
681891 Par ch=1 c=64 v=24
681916 Par ch=1 c=64 v=40
681926 On ch=1 n=f5 v=0
681941 On ch=1 n=a#5 v=75
681951 Par ch=1 c=64 v=56
681991 On ch=1 n=d4 v=0
682016 Par ch=1 c=64 v=0
682031 On ch=1 n=a#5 v=0
682056 On ch=1 n=f#5 v=67
682076 On ch=1 n=d#4 v=45
682151 On ch=1 n=f#5 v=0
682151 Par ch=1 c=64 v=24
682161 Par ch=1 c=64 v=40
682171 On ch=1 n=a#5 v=69
682211 Par ch=1 c=64 v=56
682256 On ch=1 n=a#5 v=0
682266 Par ch=1 c=64 v=0
682286 On ch=1 n=g5 v=70
682301 On ch=1 n=d#4 v=0
682306 On ch=1 n=e4 v=55
682366 On ch=1 n=e4 v=0
682371 On ch=1 n=g5 v=0
682376 Par ch=1 c=64 v=24
682391 Par ch=1 c=64 v=40
682396 On ch=1 n=c6 v=76
682436 Par ch=1 c=64 v=56
682471 On ch=1 n=c6 v=0
682521 On ch=1 n=f5 v=69
682536 Par ch=1 c=64 v=0
682546 On ch=1 n=a#4 v=0
682546 On ch=1 n=a4 v=51
682546 On ch=1 n=f4 v=52
682671 Par ch=1 c=64 v=24
682681 Par ch=1 c=64 v=56
682696 Par ch=1 c=64 v=72
682706 Par ch=1 c=64 v=104
682711 On ch=1 n=a4 v=0
682716 Par ch=1 c=64 v=127
682721 On ch=1 n=f4 v=0
682811 On ch=1 n=f5 v=0
682876 Par ch=1 c=64 v=72
682886 Par ch=1 c=64 v=0
682941 On ch=1 n=c4 v=58
682946 On ch=1 n=f3 v=47
682966 Par ch=1 c=64 v=24
682971 On ch=1 n=f3 v=0
682971 On ch=1 n=c4 v=0
682976 Par ch=1 c=64 v=56
682986 Par ch=1 c=64 v=88
683001 Par ch=1 c=64 v=104
683011 Par ch=1 c=64 v=127
683076 On ch=1 n=a5 v=70
683081 On ch=1 n=c5 v=77
683091 On ch=1 n=f4 v=56
683111 Par ch=1 c=64 v=104
683116 On ch=1 n=c5 v=0
683126 Par ch=1 c=64 v=72
683151 On ch=1 n=a5 v=0
683176 On ch=1 n=d#6 v=67
683236 On ch=1 n=d#6 v=0
683296 On ch=1 n=c6 v=73
683361 On ch=1 n=c6 v=0
683396 On ch=1 n=b5 v=73
683451 Par ch=1 c=64 v=56
683461 Par ch=1 c=64 v=0
683476 On ch=1 n=b5 v=0
683506 On ch=1 n=a#5 v=65
683511 On ch=1 n=f4 v=0
683511 On ch=1 n=d5 v=53
683521 On ch=1 n=a#4 v=42
683556 Par ch=1 c=64 v=24
683566 Par ch=1 c=64 v=40
683571 On ch=1 n=d5 v=0
683576 Par ch=1 c=64 v=56
683596 On ch=1 n=a#4 v=0
683596 On ch=1 n=a#5 v=0
683621 On ch=1 n=d6 v=70
683621 Par ch=1 c=64 v=72
683676 Par ch=1 c=64 v=24
683691 On ch=1 n=d6 v=0
683691 Par ch=1 c=64 v=0
683731 On ch=1 n=f5 v=66
683731 On ch=1 n=a#4 v=43
683741 On ch=1 n=d4 v=60
683831 On ch=1 n=f5 v=0
683841 On ch=1 n=a#5 v=72
683916 On ch=1 n=d4 v=0
683931 On ch=1 n=a#5 v=0
683951 On ch=1 n=f#5 v=65
683971 On ch=1 n=d#4 v=48
684041 On ch=1 n=f#5 v=0
684061 On ch=1 n=a#5 v=65
684151 On ch=1 n=a#5 v=0
684161 On ch=1 n=d#4 v=0
684181 On ch=1 n=g5 v=71
684186 On ch=1 n=e4 v=57
684251 On ch=1 n=e4 v=0
684266 On ch=1 n=g5 v=0
684286 On ch=1 n=c6 v=73
684361 On ch=1 n=c6 v=0
684396 On ch=1 n=f5 v=70
684406 On ch=1 n=a4 v=50
684411 On ch=1 n=f4 v=53
684436 On ch=1 n=a#4 v=0
684481 Par ch=1 c=64 v=24
684491 Par ch=1 c=64 v=40
684501 Par ch=1 c=64 v=72
684506 On ch=1 n=f5 v=0
684511 On ch=1 n=c6 v=70
684526 Par ch=1 c=64 v=88
684546 On ch=1 n=a4 v=0
684556 Par ch=1 c=64 v=104
684561 On ch=1 n=f4 v=0
684571 On ch=1 n=c6 v=0
684616 On ch=1 n=d#5 v=56
684706 On ch=1 n=d#5 v=0
684731 On ch=1 n=c6 v=76
684736 On ch=1 n=f3 v=57
684736 On ch=1 n=c4 v=55
684776 On ch=1 n=f3 v=0
684781 On ch=1 n=c4 v=0
684806 On ch=1 n=c6 v=0
684831 Par ch=1 c=64 v=88
684851 Par ch=1 c=64 v=72
684856 On ch=1 n=a5 v=79
684861 Par ch=1 c=64 v=24
684866 On ch=1 n=c5 v=67
684871 On ch=1 n=f4 v=62
684876 Par ch=1 c=64 v=0
684956 On ch=1 n=a5 v=0
684966 On ch=1 n=d#6 v=75
684986 Par ch=1 c=64 v=40
685011 Par ch=1 c=64 v=56
685021 Par ch=1 c=64 v=72
685031 On ch=1 n=d#6 v=0
685076 On ch=1 n=c6 v=75
685151 On ch=1 n=c6 v=0
685151 On ch=1 n=c5 v=0
685181 On ch=1 n=b5 v=72
685246 Par ch=1 c=64 v=24
685261 On ch=1 n=b5 v=0
685261 Par ch=1 c=64 v=0
685286 On ch=1 n=a#5 v=70
685301 On ch=1 n=d5 v=58
685301 On ch=1 n=a#4 v=39
685306 On ch=1 n=f4 v=0
685351 On ch=1 n=d5 v=0
685361 Par ch=1 c=64 v=40
685366 On ch=1 n=a#4 v=0
685371 On ch=1 n=a#5 v=0
685371 Par ch=1 c=64 v=72
685381 Par ch=1 c=64 v=88
685396 On ch=1 n=d6 v=71
685461 On ch=1 n=d6 v=0
685486 Par ch=1 c=64 v=24
685496 Par ch=1 c=64 v=0
685511 On ch=1 n=f5 v=64
685516 On ch=1 n=a#4 v=44
685536 On ch=1 n=d4 v=47
685596 On ch=1 n=f5 v=0
685616 On ch=1 n=a#5 v=69
685621 Par ch=1 c=64 v=24
685676 Par ch=1 c=64 v=0
685686 On ch=1 n=d4 v=0
685701 On ch=1 n=a#5 v=0
685736 On ch=1 n=f#5 v=69
685741 On ch=1 n=d#4 v=50
685811 Par ch=1 c=64 v=24
685821 On ch=1 n=f#5 v=0
685836 On ch=1 n=a#5 v=68
685856 Par ch=1 c=64 v=40
685911 Par ch=1 c=64 v=0
685921 On ch=1 n=a#5 v=0
685951 On ch=1 n=d#4 v=0
685956 On ch=1 n=g5 v=66
685971 On ch=1 n=e4 v=53
686016 Par ch=1 c=64 v=24
686026 Par ch=1 c=64 v=40
686036 On ch=1 n=e4 v=0
686046 On ch=1 n=g5 v=0
686051 Par ch=1 c=64 v=56
686066 On ch=1 n=c6 v=71
686126 On ch=1 n=c6 v=0
686191 On ch=1 n=a#4 v=0
686191 On ch=1 n=f5 v=66
686196 Par ch=1 c=64 v=40
686201 On ch=1 n=a4 v=49
686211 On ch=1 n=f4 v=52
686211 Par ch=1 c=64 v=24
686221 Par ch=1 c=64 v=0
686376 Par ch=1 c=64 v=24
686386 Par ch=1 c=64 v=40
686401 Par ch=1 c=64 v=56
686421 Par ch=1 c=64 v=72
686446 On ch=1 n=f5 v=0
686451 On ch=1 n=a4 v=0
686461 On ch=1 n=f4 v=0
686466 Par ch=1 c=64 v=88
686546 Par ch=1 c=64 v=56
686556 Par ch=1 c=64 v=40
686571 Par ch=1 c=64 v=0
686696 On ch=1 n=a#4 v=33
686696 On ch=1 n=d5 v=38
686706 On ch=1 n=f5 v=55
686786 Par ch=1 c=64 v=40
686806 Par ch=1 c=64 v=56
686816 On ch=1 n=d6 v=64
686836 On ch=1 n=d5 v=0
686841 On ch=1 n=f5 v=0
686851 Par ch=1 c=64 v=72
686876 Par ch=1 c=64 v=40
686881 On ch=1 n=d6 v=0
686886 Par ch=1 c=64 v=0
686906 On ch=1 n=a#4 v=0
686916 On ch=1 n=f#5 v=62
686921 On ch=1 n=c5 v=51
686946 On ch=1 n=a4 v=33
686966 Par ch=1 c=64 v=24
686976 Par ch=1 c=64 v=40
686986 Par ch=1 c=64 v=56
687011 On ch=1 n=f#5 v=0
687011 Par ch=1 c=64 v=72
687031 On ch=1 n=d6 v=72
687106 On ch=1 n=a4 v=0
687111 On ch=1 n=d6 v=0
687111 Par ch=1 c=64 v=24
687121 Par ch=1 c=64 v=0
687146 On ch=1 n=g5 v=68
687146 On ch=1 n=a#4 v=37
687156 On ch=1 n=g4 v=37
687161 On ch=1 n=c5 v=0
687201 Par ch=1 c=64 v=24
687226 Par ch=1 c=64 v=40
687231 On ch=1 n=g5 v=0
687236 Par ch=1 c=64 v=56
687251 On ch=1 n=d6 v=70
687281 Par ch=1 c=64 v=72
687326 Par ch=1 c=64 v=24
687331 On ch=1 n=d6 v=0
687336 Par ch=1 c=64 v=0
687351 On ch=1 n=a#4 v=0
687361 On ch=1 n=g4 v=0
687371 On ch=1 n=g#5 v=67
687376 On ch=1 n=b4 v=41
687376 On ch=1 n=f4 v=40
687416 Par ch=1 c=64 v=40
687426 Par ch=1 c=64 v=56
687436 On ch=1 n=f4 v=0
687441 On ch=1 n=b4 v=0
687441 Par ch=1 c=64 v=72
687461 Par ch=1 c=64 v=88
687476 On ch=1 n=d6 v=73
687481 On ch=1 n=g#5 v=0
687496 Par ch=1 c=64 v=104
687551 Par ch=1 c=64 v=40
687561 On ch=1 n=d6 v=0
687566 Par ch=1 c=64 v=0
687596 On ch=1 n=g5 v=69
687601 On ch=1 n=c5 v=53
687601 On ch=1 n=d#4 v=48
687641 Par ch=1 c=64 v=40
687656 Par ch=1 c=64 v=56
687666 Par ch=1 c=64 v=72
687676 Par ch=1 c=64 v=88
687701 On ch=1 n=g5 v=0
687701 On ch=1 n=c6 v=79
687721 Par ch=1 c=64 v=104
687756 Par ch=1 c=64 v=56
687761 On ch=1 n=d#4 v=0
687766 Par ch=1 c=64 v=24
687776 Par ch=1 c=64 v=0
687791 On ch=1 n=c5 v=0
687801 On ch=1 n=c6 v=0
687806 On ch=1 n=b4 v=62
687811 On ch=1 n=f5 v=75
687836 Par ch=1 c=64 v=40
687846 Par ch=1 c=64 v=56
687856 On ch=1 n=b4 v=0
687856 Par ch=1 c=64 v=72
687871 Par ch=1 c=64 v=88
687916 On ch=1 n=f5 v=0
687916 Par ch=1 c=64 v=104
687926 On ch=1 n=d6 v=79
687946 Par ch=1 c=64 v=127
687986 On ch=1 n=d6 v=0
687991 Par ch=1 c=64 v=72
688006 Par ch=1 c=64 v=24
688016 Par ch=1 c=64 v=0
688041 On ch=1 n=d#5 v=78
688046 On ch=1 n=c5 v=66
688051 On ch=1 n=c4 v=68
688071 Par ch=1 c=64 v=40
688081 Par ch=1 c=64 v=72
688096 On ch=1 n=c5 v=0
688096 Par ch=1 c=64 v=104
688106 Par ch=1 c=64 v=127
688121 On ch=1 n=c4 v=0
688151 On ch=1 n=d#6 v=80
688156 On ch=1 n=d#5 v=0
688206 Par ch=1 c=64 v=88
688221 Par ch=1 c=64 v=40
688231 Par ch=1 c=64 v=0
688241 On ch=1 n=d#6 v=0
688261 On ch=1 n=e5 v=83
688266 On ch=1 n=a#3 v=63
688276 Par ch=1 c=64 v=24
688286 Par ch=1 c=64 v=40
688296 Par ch=1 c=64 v=72
688321 Par ch=1 c=64 v=88
688351 On ch=1 n=e5 v=0
688351 Par ch=1 c=64 v=104
688366 On ch=1 n=e6 v=90
688436 On ch=1 n=e6 v=0
688436 Par ch=1 c=64 v=40
688446 Par ch=1 c=64 v=0
688456 On ch=1 n=a#3 v=0
688486 On ch=1 n=f6 v=93
688491 On ch=1 n=d#6 v=69
688496 On ch=1 n=f5 v=65
688496 On ch=1 n=a3 v=73
688501 On ch=1 n=c6 v=69
688606 On ch=1 n=d#4 v=77
688611 On ch=1 n=a3 v=0
688691 On ch=1 n=d#4 v=0
688726 On ch=1 n=c4 v=77
688766 On ch=1 n=c6 v=0
688771 On ch=1 n=f5 v=0
688786 On ch=1 n=d#6 v=0
688786 On ch=1 n=f6 v=0
688821 On ch=1 n=b3 v=81
688846 On ch=1 n=c4 v=0
688931 On ch=1 n=a#3 v=75
688941 On ch=1 n=f6 v=96
688951 On ch=1 n=f5 v=76
688956 On ch=1 n=b3 v=0
688956 On ch=1 n=d6 v=79
689026 On ch=1 n=a#3 v=0
689056 On ch=1 n=a3 v=82
689156 On ch=1 n=a3 v=0
689176 On ch=1 n=g3 v=73
689231 On ch=1 n=f5 v=0
689246 On ch=1 n=f6 v=0
689256 On ch=1 n=g3 v=0
689266 On ch=1 n=f3 v=83
689276 On ch=1 n=d6 v=0
689371 On ch=1 n=d#3 v=78
689376 On ch=1 n=f3 v=0
689381 On ch=1 n=g6 v=100
689381 On ch=1 n=a#5 v=80
689386 On ch=1 n=g5 v=82
689421 On ch=1 n=g5 v=0
689421 On ch=1 n=a#5 v=0
689436 On ch=1 n=g6 v=0
689456 On ch=1 n=d#3 v=0
689481 On ch=1 n=d#4 v=78
689571 On ch=1 n=d#4 v=0
689611 On ch=1 n=f5 v=74
689611 On ch=1 n=a5 v=74
689611 On ch=1 n=f6 v=96
689611 On ch=1 n=f3 v=61
689656 On ch=1 n=a5 v=0
689661 On ch=1 n=f5 v=0
689681 On ch=1 n=f3 v=0
689686 On ch=1 n=f6 v=0
689711 On ch=1 n=f4 v=68
689846 On ch=1 n=d6 v=96
689856 On ch=1 n=a#5 v=64
689856 On ch=1 n=f5 v=68
689861 On ch=1 n=a#3 v=62
689946 Par ch=1 c=64 v=24
689956 Par ch=1 c=64 v=56
689971 Par ch=1 c=64 v=88
689981 Par ch=1 c=64 v=104
689991 Par ch=1 c=64 v=127
690021 On ch=1 n=f5 v=0
690041 On ch=1 n=a#5 v=0
690046 On ch=1 n=f4 v=0
690056 On ch=1 n=a#3 v=0
690056 On ch=1 n=d6 v=0
690171 Par ch=1 c=64 v=104
690186 Par ch=1 c=64 v=72
690196 Par ch=1 c=64 v=40
690206 Par ch=1 c=64 v=24
690216 Par ch=1 c=64 v=0
690301 On ch=1 n=f5 v=68
690311 On ch=1 n=d5 v=27
690311 On ch=1 n=a#4 v=34
690426 On ch=1 n=d6 v=74
690446 On ch=1 n=d5 v=0
690451 On ch=1 n=f5 v=0
690511 On ch=1 n=d6 v=0
690526 On ch=1 n=a#4 v=0
690531 On ch=1 n=c5 v=42
690531 On ch=1 n=a4 v=57
690536 On ch=1 n=f#5 v=59
690631 On ch=1 n=f#5 v=0
690646 On ch=1 n=d6 v=69
690726 On ch=1 n=d6 v=0
690726 On ch=1 n=a4 v=0
690751 On ch=1 n=g4 v=47
690761 On ch=1 n=g5 v=66
690766 On ch=1 n=a#4 v=42
690796 On ch=1 n=c5 v=0
690846 On ch=1 n=g5 v=0
690866 On ch=1 n=d6 v=71
690951 On ch=1 n=d6 v=0
690951 On ch=1 n=g4 v=0
690976 On ch=1 n=f4 v=41
690981 On ch=1 n=g#5 v=64
690986 On ch=1 n=b4 v=51
690996 Par ch=1 c=64 v=24
691011 Par ch=1 c=64 v=40
691021 Par ch=1 c=64 v=56
691026 On ch=1 n=a#4 v=0
691041 Par ch=1 c=64 v=72
691056 Par ch=1 c=64 v=88
691081 On ch=1 n=b4 v=0
691081 On ch=1 n=g#5 v=0
691086 On ch=1 n=d6 v=73
691096 On ch=1 n=f4 v=0
691101 Par ch=1 c=64 v=104
691181 On ch=1 n=d6 v=0
691181 Par ch=1 c=64 v=56
691191 Par ch=1 c=64 v=24
691201 Par ch=1 c=64 v=0
691206 On ch=1 n=c5 v=55
691211 On ch=1 n=g5 v=70
691216 On ch=1 n=d#4 v=45
691256 Par ch=1 c=64 v=24
691271 Par ch=1 c=64 v=40
691281 Par ch=1 c=64 v=56
691291 Par ch=1 c=64 v=72
691301 On ch=1 n=g5 v=0
691321 On ch=1 n=c6 v=74
691336 Par ch=1 c=64 v=88
691381 Par ch=1 c=64 v=40
691396 On ch=1 n=d#4 v=0
691396 Par ch=1 c=64 v=0
691416 On ch=1 n=c6 v=0
691426 On ch=1 n=d4 v=36
691431 On ch=1 n=b4 v=64
691431 On ch=1 n=f5 v=70
691451 On ch=1 n=c5 v=0
691461 Par ch=1 c=64 v=24
691471 Par ch=1 c=64 v=40
691486 Par ch=1 c=64 v=72
691506 Par ch=1 c=64 v=88
691516 Par ch=1 c=64 v=104
691526 On ch=1 n=b4 v=0
691531 On ch=1 n=d4 v=0
691541 On ch=1 n=f5 v=0
691546 On ch=1 n=d6 v=75
691561 Par ch=1 c=64 v=127
691606 On ch=1 n=d6 v=0
691621 Par ch=1 c=64 v=56
691631 Par ch=1 c=64 v=0
691656 On ch=1 n=d#5 v=78
691666 On ch=1 n=c5 v=64
691676 On ch=1 n=c4 v=69
691696 Par ch=1 c=64 v=40
691711 Par ch=1 c=64 v=72
691721 Par ch=1 c=64 v=88
691726 On ch=1 n=c5 v=0
691731 Par ch=1 c=64 v=104
691746 Par ch=1 c=64 v=127
691766 On ch=1 n=c4 v=0
691766 On ch=1 n=d#5 v=0
691771 On ch=1 n=d#6 v=77
691846 Par ch=1 c=64 v=104
691856 Par ch=1 c=64 v=56
691866 On ch=1 n=d#6 v=0
691871 Par ch=1 c=64 v=0
691876 On ch=1 n=e5 v=79
691881 On ch=1 n=a#3 v=63
691926 Par ch=1 c=64 v=24
691936 Par ch=1 c=64 v=56
691946 Par ch=1 c=64 v=72
691956 Par ch=1 c=64 v=88
691966 On ch=1 n=e5 v=0
691976 On ch=1 n=e6 v=89
691981 Par ch=1 c=64 v=104
692046 On ch=1 n=e6 v=0
692056 On ch=1 n=a#3 v=0
692061 Par ch=1 c=64 v=72
692071 Par ch=1 c=64 v=40
692081 Par ch=1 c=64 v=0
692101 On ch=1 n=f6 v=96
692106 On ch=1 n=f5 v=76
692111 On ch=1 n=d#6 v=69
692111 On ch=1 n=c6 v=75
692116 On ch=1 n=a3 v=75
692186 Par ch=1 c=64 v=56
692196 Par ch=1 c=64 v=88
692206 Par ch=1 c=64 v=127
692211 On ch=1 n=a3 v=0
692216 On ch=1 n=d#4 v=74
692286 On ch=1 n=d#4 v=0
692346 On ch=1 n=c4 v=68
692396 Par ch=1 c=64 v=104
692406 On ch=1 n=c4 v=0
692431 Par ch=1 c=64 v=88
692436 On ch=1 n=b3 v=82
692456 On ch=1 n=f6 v=0
692466 On ch=1 n=c6 v=0
692466 On ch=1 n=d#6 v=0
692466 Par ch=1 c=64 v=56
692471 On ch=1 n=f5 v=0
692491 Par ch=1 c=64 v=40
692501 Par ch=1 c=64 v=24
692511 Par ch=1 c=64 v=0
692556 On ch=1 n=d6 v=82
692556 On ch=1 n=f5 v=84
692556 On ch=1 n=a#3 v=72
692556 On ch=1 n=f6 v=103
692576 On ch=1 n=b3 v=0
692636 On ch=1 n=a#3 v=0
692666 On ch=1 n=a3 v=85
692741 On ch=1 n=a3 v=0
692776 On ch=1 n=g3 v=74
692836 On ch=1 n=f5 v=0
692846 On ch=1 n=g3 v=0
692846 On ch=1 n=f6 v=0
692871 On ch=1 n=f3 v=78
692921 On ch=1 n=d6 v=0
692986 On ch=1 n=d#3 v=71
692991 On ch=1 n=g6 v=100
692996 On ch=1 n=f3 v=0
692996 On ch=1 n=g5 v=79
692996 On ch=1 n=a#5 v=76
693056 On ch=1 n=a#5 v=0
693076 On ch=1 n=g6 v=0
693081 On ch=1 n=g5 v=0
693086 On ch=1 n=d#3 v=0
693106 On ch=1 n=d#4 v=78
693191 On ch=1 n=d#4 v=0
693226 On ch=1 n=f6 v=96
693231 On ch=1 n=f5 v=76
693231 On ch=1 n=f3 v=66
693236 On ch=1 n=a5 v=79
693291 On ch=1 n=a5 v=0
693306 On ch=1 n=f5 v=0
693316 On ch=1 n=f3 v=0
693321 On ch=1 n=f6 v=0
693336 On ch=1 n=f4 v=70
693471 On ch=1 n=d6 v=90
693481 On ch=1 n=a#5 v=65
693481 On ch=1 n=a#3 v=76
693481 On ch=1 n=f5 v=64
693586 Par ch=1 c=64 v=40
693596 Par ch=1 c=64 v=88
693606 Par ch=1 c=64 v=127
693676 On ch=1 n=f4 v=0
693696 On ch=1 n=f5 v=0
693701 On ch=1 n=a#3 v=0
693706 On ch=1 n=a#5 v=0
693721 On ch=1 n=d6 v=0
693866 Par ch=1 c=64 v=104
693881 Par ch=1 c=64 v=88
693891 Par ch=1 c=64 v=56
693901 Par ch=1 c=64 v=24
693911 Par ch=1 c=64 v=0
693966 On ch=1 n=a#4 v=79
694001 Par ch=1 c=64 v=40
694016 Par ch=1 c=64 v=88
694026 Par ch=1 c=64 v=127
694071 On ch=1 n=a#3 v=69
694086 On ch=1 n=a#4 v=0
694116 On ch=1 n=a#3 v=0
694196 On ch=1 n=a#5 v=59
694211 On ch=1 n=d5 v=53
694241 On ch=1 n=d5 v=0
694276 On ch=1 n=a#5 v=0
694316 On ch=1 n=a#4 v=67
694376 On ch=1 n=a#4 v=0
694386 Par ch=1 c=64 v=104
694401 Par ch=1 c=64 v=72
694411 Par ch=1 c=64 v=24
694421 On ch=1 n=c5 v=79
694421 Par ch=1 c=64 v=0
694491 Par ch=1 c=64 v=40
694501 Par ch=1 c=64 v=88
694511 Par ch=1 c=64 v=104
694521 Par ch=1 c=64 v=127
694531 On ch=1 n=c4 v=68
694546 On ch=1 n=c5 v=0
694551 On ch=1 n=c4 v=0
694646 On ch=1 n=a#5 v=64
694656 On ch=1 n=d#5 v=48
694721 On ch=1 n=d#5 v=0
694731 On ch=1 n=a#5 v=0
694751 On ch=1 n=a#4 v=65
694801 On ch=1 n=a#4 v=0
694826 Par ch=1 c=64 v=72
694841 Par ch=1 c=64 v=24
694851 Par ch=1 c=64 v=0
694876 On ch=1 n=c#5 v=80
694916 Par ch=1 c=64 v=56
694931 Par ch=1 c=64 v=104
694941 Par ch=1 c=64 v=127
694976 On ch=1 n=c#4 v=67
694996 On ch=1 n=c#5 v=0
695006 On ch=1 n=c#4 v=0
695096 On ch=1 n=a#5 v=65
695101 On ch=1 n=e5 v=65
695156 On ch=1 n=e5 v=0
695196 On ch=1 n=a#5 v=0
695211 On ch=1 n=a#4 v=70
695271 On ch=1 n=a#4 v=0
695281 Par ch=1 c=64 v=104
695291 Par ch=1 c=64 v=72
695301 Par ch=1 c=64 v=24
695311 On ch=1 n=d5 v=82
695311 Par ch=1 c=64 v=0
695381 Par ch=1 c=64 v=24
695391 Par ch=1 c=64 v=72
695406 Par ch=1 c=64 v=104
695411 On ch=1 n=d5 v=0
695416 Par ch=1 c=64 v=127
695426 On ch=1 n=d4 v=81
695466 On ch=1 n=d4 v=0
695546 On ch=1 n=a#5 v=77
695551 On ch=1 n=g#5 v=64
695551 On ch=1 n=f5 v=74
695606 On ch=1 n=f5 v=0
695621 On ch=1 n=g#5 v=0
695631 On ch=1 n=a#5 v=0
695646 On ch=1 n=a#4 v=77
695696 On ch=1 n=a#4 v=0
695731 Par ch=1 c=64 v=72
695741 Par ch=1 c=64 v=24
695756 Par ch=1 c=64 v=0
695766 On ch=1 n=d#5 v=85
695811 Par ch=1 c=64 v=24
695821 Par ch=1 c=64 v=56
695831 Par ch=1 c=64 v=104
695846 Par ch=1 c=64 v=127
695871 On ch=1 n=d#4 v=73
695891 On ch=1 n=d#5 v=0
695916 On ch=1 n=d#4 v=0
695996 On ch=1 n=a#5 v=79
696011 On ch=1 n=g5 v=65
696071 On ch=1 n=g5 v=0
696081 On ch=1 n=a#5 v=0
696101 On ch=1 n=a#4 v=77
696146 On ch=1 n=a#4 v=0
696151 Par ch=1 c=64 v=72
696161 Par ch=1 c=64 v=0
696206 On ch=1 n=e5 v=89
696231 Par ch=1 c=64 v=24
696241 Par ch=1 c=64 v=72
696251 Par ch=1 c=64 v=104
696261 On ch=1 n=e5 v=0
696261 Par ch=1 c=64 v=127
696326 On ch=1 n=c4 v=82
696346 On ch=1 n=c4 v=0
696431 On ch=1 n=c6 v=86
696441 On ch=1 n=g5 v=66
696501 On ch=1 n=c6 v=0
696511 On ch=1 n=g5 v=0
696536 On ch=1 n=a#4 v=77
696586 On ch=1 n=a#4 v=0
696611 Par ch=1 c=64 v=72
696626 Par ch=1 c=64 v=0
696651 On ch=1 n=f5 v=79
696701 Par ch=1 c=64 v=24
696716 Par ch=1 c=64 v=56
696726 Par ch=1 c=64 v=88
696736 Par ch=1 c=64 v=104
696746 On ch=1 n=f5 v=0
696746 On ch=1 n=f4 v=73
696751 Par ch=1 c=64 v=127
696791 On ch=1 n=f4 v=0
696796 Par ch=1 c=64 v=56
696806 Par ch=1 c=64 v=0
696861 Par ch=1 c=64 v=24
696866 On ch=1 n=c6 v=88
696871 Par ch=1 c=64 v=72
696876 On ch=1 n=f5 v=74
696876 On ch=1 n=f4 v=82
696881 On ch=1 n=a5 v=64
696881 Par ch=1 c=64 v=88
696896 Par ch=1 c=64 v=104
696906 Par ch=1 c=64 v=127
696931 On ch=1 n=f4 v=0
696941 On ch=1 n=f5 v=0
696951 On ch=1 n=a5 v=0
696976 On ch=1 n=c6 v=0
696976 On ch=1 n=d#5 v=73
696991 On ch=1 n=f3 v=58
697011 On ch=1 n=f3 v=0
697056 On ch=1 n=d#5 v=0
697056 Par ch=1 c=64 v=104
697086 Par ch=1 c=64 v=88
697101 Par ch=1 c=64 v=72
697111 On ch=1 n=a#5 v=82
697121 On ch=1 n=a#3 v=80
697121 On ch=1 n=d5 v=73
697121 Par ch=1 c=64 v=56
697131 Par ch=1 c=64 v=40
697146 Par ch=1 c=64 v=24
697156 Par ch=1 c=64 v=0
697291 Par ch=1 c=64 v=24
697301 Par ch=1 c=64 v=88
697316 Par ch=1 c=64 v=127
697366 On ch=1 n=d5 v=0
697366 On ch=1 n=a#3 v=0
697391 On ch=1 n=a#5 v=0
697491 Par ch=1 c=64 v=104
697506 Par ch=1 c=64 v=88
697516 Par ch=1 c=64 v=56
697526 Par ch=1 c=64 v=24
697541 Par ch=1 c=64 v=0
697576 On ch=1 n=a#4 v=85
697631 Par ch=1 c=64 v=24
697641 Par ch=1 c=64 v=56
697651 Par ch=1 c=64 v=88
697661 Par ch=1 c=64 v=127
697691 On ch=1 n=a#3 v=68
697711 On ch=1 n=a#4 v=0
697731 On ch=1 n=a#3 v=0
697806 On ch=1 n=a#5 v=63
697816 On ch=1 n=d5 v=64
697876 On ch=1 n=d5 v=0
697911 On ch=1 n=a#5 v=0
697921 On ch=1 n=a#4 v=69
697986 On ch=1 n=a#4 v=0
698001 Par ch=1 c=64 v=72
698011 Par ch=1 c=64 v=24
698026 Par ch=1 c=64 v=0
698031 On ch=1 n=c5 v=84
698091 Par ch=1 c=64 v=24
698101 Par ch=1 c=64 v=72
698116 Par ch=1 c=64 v=104
698126 Par ch=1 c=64 v=127
698141 On ch=1 n=c5 v=0
698141 On ch=1 n=c4 v=70
698161 On ch=1 n=c4 v=0
698256 On ch=1 n=a#5 v=65
698261 On ch=1 n=d#5 v=58
698331 On ch=1 n=d#5 v=0
698346 On ch=1 n=a#5 v=0
698361 On ch=1 n=a#4 v=69
698411 On ch=1 n=a#4 v=0
698456 Par ch=1 c=64 v=88
698466 Par ch=1 c=64 v=24
698476 On ch=1 n=c#5 v=78
698476 Par ch=1 c=64 v=0
698546 Par ch=1 c=64 v=56
698556 Par ch=1 c=64 v=104
698566 Par ch=1 c=64 v=127
698591 On ch=1 n=c#5 v=0
698591 On ch=1 n=c#4 v=68
698611 On ch=1 n=c#4 v=0
698706 On ch=1 n=a#5 v=67
698716 On ch=1 n=e5 v=61
698741 On ch=1 n=e5 v=0
698791 On ch=1 n=a#5 v=0
698821 On ch=1 n=a#4 v=69
698891 On ch=1 n=a#4 v=0
698906 Par ch=1 c=64 v=88
698916 Par ch=1 c=64 v=40
698926 Par ch=1 c=64 v=0
698931 On ch=1 n=d5 v=79
698996 Par ch=1 c=64 v=56
699006 Par ch=1 c=64 v=104
699021 Par ch=1 c=64 v=127
699026 On ch=1 n=d5 v=0
699051 On ch=1 n=d4 v=70
699076 On ch=1 n=d4 v=0
699161 On ch=1 n=a#5 v=62
699166 On ch=1 n=g#5 v=48
699171 On ch=1 n=f5 v=59
699201 On ch=1 n=f5 v=0
699236 On ch=1 n=g#5 v=0
699241 On ch=1 n=a#5 v=0
699261 On ch=1 n=a#4 v=71
699316 On ch=1 n=a#4 v=0
699346 Par ch=1 c=64 v=72
699356 Par ch=1 c=64 v=0
699381 On ch=1 n=d#5 v=87
699436 Par ch=1 c=64 v=40
699446 Par ch=1 c=64 v=88
699461 Par ch=1 c=64 v=104
699471 Par ch=1 c=64 v=127
699481 On ch=1 n=d#4 v=73
699486 On ch=1 n=d#5 v=0
699526 On ch=1 n=d#4 v=0
699571 Par ch=1 c=64 v=88
699586 Par ch=1 c=64 v=40
699596 Par ch=1 c=64 v=24
699611 On ch=1 n=a#5 v=69
699626 On ch=1 n=g5 v=57
699641 Par ch=1 c=64 v=56
699651 Par ch=1 c=64 v=72
699661 Par ch=1 c=64 v=88
699676 On ch=1 n=g5 v=0
699691 On ch=1 n=a#5 v=0
699706 On ch=1 n=a#4 v=71
699706 Par ch=1 c=64 v=104
699761 On ch=1 n=a#4 v=0
699766 Par ch=1 c=64 v=56
699776 Par ch=1 c=64 v=0
699821 On ch=1 n=e5 v=82
699841 Par ch=1 c=64 v=24
699856 Par ch=1 c=64 v=72
699866 Par ch=1 c=64 v=104
699876 Par ch=1 c=64 v=127
699881 On ch=1 n=e5 v=0
699941 On ch=1 n=c4 v=76
699986 On ch=1 n=c4 v=0
700051 On ch=1 n=c6 v=81
700061 On ch=1 n=g5 v=65
700121 On ch=1 n=c6 v=0
700126 On ch=1 n=g5 v=0
700151 On ch=1 n=a#4 v=75
700191 On ch=1 n=a#4 v=0
700216 Par ch=1 c=64 v=104
700226 Par ch=1 c=64 v=72
700236 Par ch=1 c=64 v=0
700271 On ch=1 n=f5 v=82
700331 Par ch=1 c=64 v=56
700341 Par ch=1 c=64 v=127
700361 On ch=1 n=f5 v=0
700371 On ch=1 n=f4 v=79
700411 On ch=1 n=f4 v=0
700421 Par ch=1 c=64 v=104
700431 Par ch=1 c=64 v=40
700441 Par ch=1 c=64 v=0
700486 On ch=1 n=c6 v=87
700491 On ch=1 n=f5 v=68
700496 On ch=1 n=f4 v=82
700501 On ch=1 n=a5 v=59
700511 Par ch=1 c=64 v=40
700521 Par ch=1 c=64 v=72
700531 Par ch=1 c=64 v=88
700556 On ch=1 n=f5 v=0
700571 On ch=1 n=a5 v=0
700586 On ch=1 n=c6 v=0
700586 On ch=1 n=d#5 v=70
700601 On ch=1 n=f3 v=62
700611 Par ch=1 c=64 v=104
700626 On ch=1 n=f4 v=0
700646 On ch=1 n=f3 v=0
700666 On ch=1 n=d#5 v=0
700726 On ch=1 n=a#5 v=85
700726 Par ch=1 c=64 v=72
700731 On ch=1 n=a#3 v=76
700736 On ch=1 n=d5 v=74
700736 Par ch=1 c=64 v=56
700746 Par ch=1 c=64 v=24
700761 Par ch=1 c=64 v=0
700871 Par ch=1 c=64 v=72
700881 Par ch=1 c=64 v=127
700886 On ch=1 n=d5 v=0
700956 On ch=1 n=a#5 v=0
700966 On ch=1 n=a#3 v=0
701116 Par ch=1 c=64 v=88
701131 Par ch=1 c=64 v=72
701141 Par ch=1 c=64 v=40
701156 Par ch=1 c=64 v=0
701241 On ch=1 n=a5 v=83
701246 On ch=1 n=d#5 v=69
701266 Par ch=1 c=64 v=56
701276 Par ch=1 c=64 v=104
701291 Par ch=1 c=64 v=127
701296 On ch=1 n=a5 v=0
701336 On ch=1 n=d#5 v=0
701376 On ch=1 n=f4 v=60
701396 On ch=1 n=f4 v=0
701476 On ch=1 n=a5 v=66
701541 On ch=1 n=a5 v=0
701586 On ch=1 n=d#6 v=69
701641 Par ch=1 c=64 v=88
701651 Par ch=1 c=64 v=40
701661 Par ch=1 c=64 v=0
701666 On ch=1 n=d#6 v=0
701696 On ch=1 n=g#5 v=70
701706 On ch=1 n=d5 v=65
701741 Par ch=1 c=64 v=56
701751 Par ch=1 c=64 v=88
701761 On ch=1 n=g#5 v=0
701766 Par ch=1 c=64 v=104
701776 Par ch=1 c=64 v=127
701786 On ch=1 n=d5 v=0
701836 On ch=1 n=f4 v=47
701861 On ch=1 n=f4 v=0
701931 On ch=1 n=c6 v=68
701991 On ch=1 n=c6 v=0
702026 On ch=1 n=b5 v=73
702081 Par ch=1 c=64 v=72
702086 On ch=1 n=b5 v=0
702091 Par ch=1 c=64 v=24
702101 Par ch=1 c=64 v=0
702136 On ch=1 n=g5 v=70
702141 On ch=1 n=c#5 v=63
702171 Par ch=1 c=64 v=40
702181 Par ch=1 c=64 v=88
702186 On ch=1 n=g5 v=0
702191 Par ch=1 c=64 v=104
702201 On ch=1 n=c#5 v=0
702201 Par ch=1 c=64 v=127
702261 On ch=1 n=f4 v=51
702286 On ch=1 n=f4 v=0
702366 On ch=1 n=a#5 v=58
702426 On ch=1 n=a#5 v=0
702471 On ch=1 n=e6 v=74
702496 Par ch=1 c=64 v=88
702511 Par ch=1 c=64 v=24
702521 On ch=1 n=e6 v=0
702521 Par ch=1 c=64 v=0
702571 On ch=1 n=c5 v=64
702571 On ch=1 n=f5 v=63
702576 Par ch=1 c=64 v=24
702586 Par ch=1 c=64 v=72
702601 Par ch=1 c=64 v=104
702611 Par ch=1 c=64 v=127
702681 On ch=1 n=f5 v=0
702686 On ch=1 n=c5 v=0
702686 On ch=1 n=f4 v=65
702736 On ch=1 n=f4 v=0
702776 On ch=1 n=g6 v=73
702791 On ch=1 n=a5 v=53
702826 On ch=1 n=a5 v=0
702841 On ch=1 n=g6 v=0
702891 On ch=1 n=f6 v=75
702946 On ch=1 n=f6 v=0
702961 Par ch=1 c=64 v=24
702971 Par ch=1 c=64 v=0
703011 On ch=1 n=f#5 v=71
703021 On ch=1 n=c5 v=71
703026 Par ch=1 c=64 v=24
703041 Par ch=1 c=64 v=72
703051 Par ch=1 c=64 v=127
703066 On ch=1 n=c5 v=0
703071 On ch=1 n=f#5 v=0
703126 On ch=1 n=d4 v=71
703171 On ch=1 n=d4 v=0
703241 On ch=1 n=g6 v=82
703256 On ch=1 n=a5 v=56
703296 On ch=1 n=a5 v=0
703321 On ch=1 n=g6 v=0
703356 On ch=1 n=f#6 v=78
703431 On ch=1 n=f#6 v=0
703436 Par ch=1 c=64 v=56
703446 Par ch=1 c=64 v=0
703461 On ch=1 n=b4 v=64
703461 On ch=1 n=f5 v=67
703526 Par ch=1 c=64 v=56
703536 Par ch=1 c=64 v=127
703561 On ch=1 n=f5 v=0
703571 On ch=1 n=g4 v=78
703581 On ch=1 n=b4 v=0
703616 On ch=1 n=g4 v=0
703681 On ch=1 n=a6 v=75
703696 On ch=1 n=b5 v=58
703756 On ch=1 n=b5 v=0
703756 On ch=1 n=a6 v=0
703806 On ch=1 n=g6 v=82
703851 Par ch=1 c=64 v=88
703861 On ch=1 n=g6 v=0
703861 Par ch=1 c=64 v=0
703911 On ch=1 n=e5 v=73
703916 On ch=1 n=a#4 v=62
703946 Par ch=1 c=64 v=40
703956 On ch=1 n=e5 v=0
703956 Par ch=1 c=64 v=104
703966 Par ch=1 c=64 v=127
704001 On ch=1 n=a#4 v=0
704031 On ch=1 n=c4 v=81
704056 On ch=1 n=c4 v=0
704146 On ch=1 n=f6 v=81
704146 On ch=1 n=g5 v=66
704196 On ch=1 n=g5 v=0
704221 On ch=1 n=f6 v=0
704251 On ch=1 n=e6 v=84
704316 On ch=1 n=e6 v=0
704316 Par ch=1 c=64 v=72
704326 Par ch=1 c=64 v=0
704366 On ch=1 n=d#5 v=76
704376 On ch=1 n=a4 v=68
704431 Par ch=1 c=64 v=88
704441 Par ch=1 c=64 v=127
704481 On ch=1 n=f4 v=71
704491 On ch=1 n=a4 v=0
704576 Par ch=1 c=64 v=56
704586 Par ch=1 c=64 v=0
704596 On ch=1 n=a4 v=21
704606 On ch=1 n=g6 v=82
704616 On ch=1 n=c6 v=76
704621 On ch=1 n=f4 v=0
704631 On ch=1 n=a4 v=0
704641 On ch=1 n=d#5 v=0
704656 Par ch=1 c=64 v=72
704666 Par ch=1 c=64 v=127
704676 On ch=1 n=c6 v=0
704686 On ch=1 n=g6 v=0
704726 On ch=1 n=f6 v=78
704776 On ch=1 n=f6 v=0
704801 Par ch=1 c=64 v=72
704811 Par ch=1 c=64 v=0
704846 On ch=1 n=c5 v=84
704881 Par ch=1 c=64 v=24
704891 Par ch=1 c=64 v=72
704901 Par ch=1 c=64 v=104
704906 On ch=1 n=c5 v=0
704916 Par ch=1 c=64 v=127
704961 On ch=1 n=a#3 v=68
704981 On ch=1 n=a#3 v=0
705081 On ch=1 n=a#5 v=63
705096 On ch=1 n=d5 v=63
705126 On ch=1 n=d5 v=0
705171 On ch=1 n=a#5 v=0
705191 On ch=1 n=a#4 v=74
705261 On ch=1 n=a#4 v=0
705276 Par ch=1 c=64 v=88
705286 Par ch=1 c=64 v=0
705306 On ch=1 n=c5 v=82
705366 Par ch=1 c=64 v=40
705381 Par ch=1 c=64 v=88
705391 Par ch=1 c=64 v=127
705411 On ch=1 n=c4 v=74
705431 On ch=1 n=c4 v=0
705441 On ch=1 n=c5 v=0
705541 On ch=1 n=a#5 v=64
705551 On ch=1 n=d#5 v=56
705611 On ch=1 n=d#5 v=0
705621 On ch=1 n=a#5 v=0
705646 On ch=1 n=a#4 v=79
705701 On ch=1 n=a#4 v=0
705731 Par ch=1 c=64 v=72
705741 Par ch=1 c=64 v=0
705771 On ch=1 n=c5 v=88
705821 Par ch=1 c=64 v=56
705831 Par ch=1 c=64 v=127
705856 On ch=1 n=c#4 v=70
705871 On ch=1 n=c5 v=0
705896 On ch=1 n=c#4 v=0
706006 On ch=1 n=a#5 v=56
706021 On ch=1 n=e5 v=55
706071 On ch=1 n=e5 v=0
706091 On ch=1 n=a#5 v=0
706106 On ch=1 n=a#4 v=65
706171 On ch=1 n=a#4 v=0
706191 Par ch=1 c=64 v=104
706201 Par ch=1 c=64 v=40
706206 On ch=1 n=c5 v=88
706216 Par ch=1 c=64 v=0
706281 Par ch=1 c=64 v=40
706291 Par ch=1 c=64 v=104
706301 Par ch=1 c=64 v=127
706311 On ch=1 n=c5 v=0
706321 On ch=1 n=d4 v=74
706341 On ch=1 n=d4 v=0
706441 On ch=1 n=a#5 v=59
706456 On ch=1 n=g#5 v=43
706461 On ch=1 n=f5 v=48
706486 On ch=1 n=f5 v=0
706521 On ch=1 n=g#5 v=0
706521 On ch=1 n=a#5 v=0
706541 On ch=1 n=a#4 v=77
706611 On ch=1 n=a#4 v=0
706646 Par ch=1 c=64 v=56
706656 On ch=1 n=c5 v=85
706656 Par ch=1 c=64 v=0
706721 Par ch=1 c=64 v=24
706736 Par ch=1 c=64 v=88
706746 Par ch=1 c=64 v=127
706761 On ch=1 n=d#4 v=75
706776 On ch=1 n=c5 v=0
706801 On ch=1 n=d#4 v=0
706891 On ch=1 n=a#5 v=71
706901 On ch=1 n=g5 v=62
706966 On ch=1 n=g5 v=0
706976 On ch=1 n=a#5 v=0
706991 On ch=1 n=a#4 v=77
707056 On ch=1 n=a#4 v=0
707061 Par ch=1 c=64 v=104
707071 Par ch=1 c=64 v=40
707086 Par ch=1 c=64 v=0
707101 On ch=1 n=d5 v=89
707166 Par ch=1 c=64 v=40
707171 Par ch=1 c=64 v=104
707186 Par ch=1 c=64 v=127
707206 On ch=1 n=e4 v=74
707221 On ch=1 n=d5 v=0
707231 On ch=1 n=e4 v=0
707326 On ch=1 n=c6 v=77
707331 On ch=1 n=g5 v=63
707391 On ch=1 n=g5 v=0
707391 On ch=1 n=c6 v=0
707411 On ch=1 n=a#4 v=78
707466 On ch=1 n=a#4 v=0
707481 Par ch=1 c=64 v=40
707491 Par ch=1 c=64 v=0
707531 On ch=1 n=f5 v=83
707571 Par ch=1 c=64 v=72
707581 Par ch=1 c=64 v=127
707631 On ch=1 n=f4 v=70
707636 On ch=1 n=f5 v=0
707671 On ch=1 n=f4 v=0
707681 Par ch=1 c=64 v=104
707696 Par ch=1 c=64 v=56
707706 Par ch=1 c=64 v=0
707751 On ch=1 n=c6 v=84
707756 On ch=1 n=f5 v=67
707756 On ch=1 n=f4 v=84
707761 On ch=1 n=a5 v=60
707771 Par ch=1 c=64 v=40
707786 Par ch=1 c=64 v=88
707796 Par ch=1 c=64 v=127
707811 On ch=1 n=f5 v=0
707821 On ch=1 n=a5 v=0
707841 On ch=1 n=d#5 v=69
707846 On ch=1 n=f4 v=0
707861 On ch=1 n=f3 v=69
707881 On ch=1 n=c6 v=0
707921 On ch=1 n=f3 v=0
707921 On ch=1 n=d#5 v=0
707986 On ch=1 n=a#5 v=86
707996 On ch=1 n=a#3 v=78
708001 On ch=1 n=d5 v=70
708001 Par ch=1 c=64 v=104
708011 Par ch=1 c=64 v=56
708021 Par ch=1 c=64 v=0
708136 Par ch=1 c=64 v=56
708141 On ch=1 n=d5 v=0
708146 Par ch=1 c=64 v=127
708236 On ch=1 n=a#5 v=0
708251 On ch=1 n=a#3 v=0
708316 Par ch=1 c=64 v=88
708326 Par ch=1 c=64 v=0
708366 On ch=1 n=f3 v=70
708366 On ch=1 n=c4 v=55
708396 On ch=1 n=f3 v=0
708406 Par ch=1 c=64 v=56
708411 On ch=1 n=c4 v=0
708416 Par ch=1 c=64 v=104
708431 Par ch=1 c=64 v=127
708506 On ch=1 n=a5 v=82
708506 On ch=1 n=c5 v=81
708516 On ch=1 n=f4 v=54
708541 Par ch=1 c=64 v=104
708551 Par ch=1 c=64 v=24
708566 Par ch=1 c=64 v=0
708596 On ch=1 n=a5 v=0
708621 On ch=1 n=d#6 v=73
708631 Par ch=1 c=64 v=72
708641 Par ch=1 c=64 v=104
708656 Par ch=1 c=64 v=127
708696 On ch=1 n=d#6 v=0
708711 Par ch=1 c=64 v=88
708741 On ch=1 n=c6 v=74
708776 Par ch=1 c=64 v=56
708786 On ch=1 n=c5 v=0
708786 Par ch=1 c=64 v=40
708801 Par ch=1 c=64 v=24
708816 On ch=1 n=c6 v=0
708826 Par ch=1 c=64 v=0
708846 On ch=1 n=b5 v=64
708926 On ch=1 n=b5 v=0
708956 On ch=1 n=a#5 v=64
708966 On ch=1 n=a#4 v=51
708966 On ch=1 n=d5 v=47
708981 On ch=1 n=f4 v=0
708996 On ch=1 n=d5 v=0
709021 On ch=1 n=a#4 v=0
709046 On ch=1 n=a#5 v=0
709071 On ch=1 n=d6 v=72
709151 On ch=1 n=d6 v=0
709186 On ch=1 n=f5 v=60
709191 On ch=1 n=a#4 v=46
709201 On ch=1 n=d4 v=55
709291 On ch=1 n=f5 v=0
709296 On ch=1 n=a#5 v=65
709361 On ch=1 n=d4 v=0
709386 On ch=1 n=a#5 v=0
709416 On ch=1 n=f#5 v=67
709421 On ch=1 n=d#4 v=58
709506 On ch=1 n=f#5 v=0
709521 On ch=1 n=a#5 v=68
709616 On ch=1 n=a#5 v=0
709641 On ch=1 n=d#4 v=0
709641 On ch=1 n=g5 v=69
709651 On ch=1 n=e4 v=60
709721 On ch=1 n=e4 v=0
709726 On ch=1 n=g5 v=0
709756 On ch=1 n=c6 v=70
709831 On ch=1 n=c6 v=0
709871 On ch=1 n=f5 v=68
709886 On ch=1 n=a4 v=56
709886 On ch=1 n=f4 v=46
709916 On ch=1 n=a#4 v=0
709931 Par ch=1 c=64 v=40
709936 On ch=1 n=a4 v=0
709941 Par ch=1 c=64 v=72
709951 Par ch=1 c=64 v=88
709961 On ch=1 n=f4 v=0
709961 On ch=1 n=f5 v=0
709966 Par ch=1 c=64 v=104
709976 Par ch=1 c=64 v=127
709986 On ch=1 n=c6 v=70
710046 On ch=1 n=c6 v=0
710096 On ch=1 n=d#5 v=64
710181 On ch=1 n=f3 v=62
710191 On ch=1 n=d#5 v=0
710211 On ch=1 n=f3 v=0
710211 On ch=1 n=c6 v=80
710296 On ch=1 n=c6 v=0
710341 On ch=1 n=a5 v=77
710341 On ch=1 n=f4 v=68
710341 On ch=1 n=c5 v=83
710391 Par ch=1 c=64 v=72
710406 Par ch=1 c=64 v=0
710441 On ch=1 n=a5 v=0
710456 On ch=1 n=d#6 v=71
710496 Par ch=1 c=64 v=24
710506 Par ch=1 c=64 v=56
710521 Par ch=1 c=64 v=88
710531 Par ch=1 c=64 v=104
710536 On ch=1 n=d#6 v=0
710586 On ch=1 n=c6 v=69
710661 On ch=1 n=c6 v=0
710671 On ch=1 n=c5 v=0
710686 Par ch=1 c=64 v=88
710691 On ch=1 n=b5 v=63
710721 Par ch=1 c=64 v=72
710731 Par ch=1 c=64 v=40
710746 Par ch=1 c=64 v=24
710756 Par ch=1 c=64 v=0
710761 On ch=1 n=b5 v=0
710796 On ch=1 n=a#5 v=72
710816 On ch=1 n=d5 v=55
710816 On ch=1 n=a#4 v=50
710821 On ch=1 n=f4 v=0
710846 On ch=1 n=d5 v=0
710881 On ch=1 n=a#4 v=0
710896 On ch=1 n=a#5 v=0
710921 On ch=1 n=d6 v=74
711011 On ch=1 n=d6 v=0
711036 On ch=1 n=f5 v=68
711036 On ch=1 n=a#4 v=43
711051 On ch=1 n=d4 v=49
711131 On ch=1 n=f5 v=0
711146 On ch=1 n=a#5 v=70
711196 On ch=1 n=d4 v=0
711231 On ch=1 n=a#5 v=0
711261 On ch=1 n=f#5 v=68
711271 On ch=1 n=d#4 v=60
711351 On ch=1 n=f#5 v=0
711371 On ch=1 n=a#5 v=67
711466 On ch=1 n=a#5 v=0
711486 On ch=1 n=d#4 v=0
711486 On ch=1 n=g5 v=68
711501 On ch=1 n=e4 v=61
711561 On ch=1 n=e4 v=0
711561 On ch=1 n=g5 v=0
711596 On ch=1 n=c6 v=71
711661 On ch=1 n=c6 v=0
711726 On ch=1 n=f5 v=63
711736 On ch=1 n=a#4 v=0
711741 On ch=1 n=a4 v=56
711741 On ch=1 n=f4 v=52
711876 Par ch=1 c=64 v=24
711886 Par ch=1 c=64 v=56
711896 Par ch=1 c=64 v=104
711906 Par ch=1 c=64 v=127
711936 On ch=1 n=a4 v=0
711951 On ch=1 n=f4 v=0
712006 On ch=1 n=f5 v=0
712076 Par ch=1 c=64 v=88
712091 Par ch=1 c=64 v=0
712136 On ch=1 n=c4 v=58
712136 On ch=1 n=f3 v=49
712156 On ch=1 n=f3 v=0
712156 On ch=1 n=c4 v=0
712156 Par ch=1 c=64 v=40
712166 Par ch=1 c=64 v=72
712181 Par ch=1 c=64 v=127
712256 On ch=1 n=a5 v=74
712271 On ch=1 n=c5 v=70
712271 On ch=1 n=f4 v=52
712281 Par ch=1 c=64 v=88
712291 Par ch=1 c=64 v=40
712301 Par ch=1 c=64 v=0
712331 On ch=1 n=a5 v=0
712351 Par ch=1 c=64 v=40
712361 On ch=1 n=d#6 v=64
712361 Par ch=1 c=64 v=72
712371 Par ch=1 c=64 v=88
712431 On ch=1 n=d#6 v=0
712486 On ch=1 n=c6 v=72
712546 On ch=1 n=c6 v=0
712551 Par ch=1 c=64 v=72
712571 On ch=1 n=c5 v=0
712591 On ch=1 n=b5 v=71
712596 Par ch=1 c=64 v=56
712611 Par ch=1 c=64 v=40
712621 Par ch=1 c=64 v=24
712631 Par ch=1 c=64 v=0
712666 On ch=1 n=b5 v=0
712696 On ch=1 n=a#5 v=69
712711 On ch=1 n=d5 v=48
712716 On ch=1 n=a#4 v=45
712736 On ch=1 n=f4 v=0
712766 On ch=1 n=d5 v=0
712781 On ch=1 n=a#4 v=0
712791 On ch=1 n=a#5 v=0
712816 On ch=1 n=d6 v=75
712896 On ch=1 n=d6 v=0
712931 On ch=1 n=f5 v=66
712936 On ch=1 n=a#4 v=43
712941 On ch=1 n=d4 v=54
713026 On ch=1 n=f5 v=0
713046 On ch=1 n=a#5 v=70
713121 On ch=1 n=d4 v=0
713136 On ch=1 n=a#5 v=0
713161 On ch=1 n=f#5 v=65
713171 On ch=1 n=d#4 v=53
713241 On ch=1 n=f#5 v=0
713266 On ch=1 n=a#5 v=67
713351 On ch=1 n=a#5 v=0
713381 On ch=1 n=g5 v=70
713391 On ch=1 n=d#4 v=0
713401 On ch=1 n=e4 v=59
713421 Par ch=1 c=64 v=24
713431 Par ch=1 c=64 v=40
713446 Par ch=1 c=64 v=56
713456 Par ch=1 c=64 v=72
713461 On ch=1 n=e4 v=0
713461 On ch=1 n=g5 v=0
713466 Par ch=1 c=64 v=88
713496 On ch=1 n=c6 v=72
713511 Par ch=1 c=64 v=104
713556 Par ch=1 c=64 v=72
713566 On ch=1 n=c6 v=0
713566 Par ch=1 c=64 v=40
713581 Par ch=1 c=64 v=0
713611 On ch=1 n=f5 v=70
713621 On ch=1 n=a4 v=61
713626 On ch=1 n=f4 v=57
713641 On ch=1 n=a#4 v=0
713671 Par ch=1 c=64 v=24
713681 Par ch=1 c=64 v=56
713691 Par ch=1 c=64 v=88
713706 On ch=1 n=f5 v=0
713706 Par ch=1 c=64 v=104
713716 Par ch=1 c=64 v=127
713731 On ch=1 n=c6 v=70
713746 On ch=1 n=a4 v=0
713761 On ch=1 n=f4 v=0
713796 On ch=1 n=c6 v=0
713861 On ch=1 n=d#5 v=56
713926 On ch=1 n=d#5 v=0
713956 On ch=1 n=c6 v=80
713976 On ch=1 n=f3 v=41
713976 On ch=1 n=c4 v=55
713996 On ch=1 n=f3 v=0
714021 On ch=1 n=c4 v=0
714041 On ch=1 n=c6 v=0
714081 On ch=1 n=a5 v=79
714096 On ch=1 n=c5 v=74
714106 On ch=1 n=f4 v=60
714111 Par ch=1 c=64 v=72
714121 Par ch=1 c=64 v=40
714131 Par ch=1 c=64 v=0
714136 On ch=1 n=f4 v=0
714166 On ch=1 n=f4 v=14
714186 On ch=1 n=a5 v=0
714196 On ch=1 n=d#6 v=74
714226 Par ch=1 c=64 v=40
714236 Par ch=1 c=64 v=72
714246 Par ch=1 c=64 v=88
714256 Par ch=1 c=64 v=104
714271 Par ch=1 c=64 v=127
714276 On ch=1 n=d#6 v=0
714316 On ch=1 n=c6 v=80
714381 On ch=1 n=c5 v=0
714391 On ch=1 n=c6 v=0
714421 On ch=1 n=b5 v=71
714471 Par ch=1 c=64 v=104
714496 On ch=1 n=b5 v=0
714496 Par ch=1 c=64 v=72
714506 Par ch=1 c=64 v=0
714526 On ch=1 n=a#5 v=71
714541 On ch=1 n=d5 v=58
714541 On ch=1 n=a#4 v=50
714551 On ch=1 n=f4 v=0
714581 On ch=1 n=d5 v=0
714586 Par ch=1 c=64 v=40
714596 Par ch=1 c=64 v=72
714606 On ch=1 n=a#4 v=0
714606 Par ch=1 c=64 v=88
714621 On ch=1 n=a#5 v=0
714621 Par ch=1 c=64 v=104
714646 On ch=1 n=d6 v=73
714721 On ch=1 n=d6 v=0
714721 Par ch=1 c=64 v=0
714756 On ch=1 n=f5 v=64
714766 On ch=1 n=a#4 v=43
714776 On ch=1 n=d4 v=45
714791 Par ch=1 c=64 v=24
714801 Par ch=1 c=64 v=56
714811 Par ch=1 c=64 v=72
714851 On ch=1 n=f5 v=0
714871 On ch=1 n=a#5 v=69
714926 On ch=1 n=d4 v=0
714936 Par ch=1 c=64 v=24
714946 Par ch=1 c=64 v=0
714951 On ch=1 n=a#5 v=0
714986 On ch=1 n=f#5 v=69
714996 On ch=1 n=d#4 v=54
715036 Par ch=1 c=64 v=24
715051 Par ch=1 c=64 v=56
715061 Par ch=1 c=64 v=72
715071 On ch=1 n=f#5 v=0
715071 Par ch=1 c=64 v=88
715096 On ch=1 n=a#5 v=65
715161 Par ch=1 c=64 v=0
715181 On ch=1 n=a#5 v=0
715211 On ch=1 n=g5 v=70
715216 On ch=1 n=d#4 v=0
715221 On ch=1 n=e4 v=64
715266 Par ch=1 c=64 v=24
715276 Par ch=1 c=64 v=56
715286 On ch=1 n=e4 v=0
715286 Par ch=1 c=64 v=88
715291 On ch=1 n=g5 v=0
715296 Par ch=1 c=64 v=104
715311 Par ch=1 c=64 v=127
715316 On ch=1 n=c6 v=72
715386 On ch=1 n=c6 v=0
715426 On ch=1 n=a#4 v=0
715431 Par ch=1 c=64 v=104
715441 Par ch=1 c=64 v=88
715446 On ch=1 n=f5 v=70
715456 Par ch=1 c=64 v=72
715461 On ch=1 n=a4 v=54
715466 On ch=1 n=f4 v=48
715466 Par ch=1 c=64 v=56
715476 Par ch=1 c=64 v=24
715491 Par ch=1 c=64 v=0
715636 Par ch=1 c=64 v=24
715646 Par ch=1 c=64 v=56
715656 Par ch=1 c=64 v=72
715671 Par ch=1 c=64 v=88
715706 Par ch=1 c=64 v=104
715751 On ch=1 n=a4 v=0
715761 On ch=1 n=f4 v=0
715761 Par ch=1 c=64 v=72
715766 On ch=1 n=f5 v=0
715771 Par ch=1 c=64 v=56
715781 Par ch=1 c=64 v=40
715791 Par ch=1 c=64 v=24
715806 Par ch=1 c=64 v=0
715946 On ch=1 n=f5 v=63
715946 On ch=1 n=a#4 v=34
715956 On ch=1 n=d5 v=44
716061 On ch=1 n=d6 v=64
716091 On ch=1 n=d5 v=0
716116 On ch=1 n=f5 v=0
716151 On ch=1 n=d6 v=0
716161 On ch=1 n=a#4 v=0
716171 On ch=1 n=c5 v=51
716176 On ch=1 n=f#5 v=61
716176 On ch=1 n=a4 v=44
716276 On ch=1 n=f#5 v=0
716296 On ch=1 n=d6 v=68
716376 On ch=1 n=d6 v=0
716376 On ch=1 n=a4 v=0
716406 Par ch=1 c=64 v=40
716411 On ch=1 n=g5 v=68
716411 On ch=1 n=g4 v=49
716416 On ch=1 n=a#4 v=40
716416 Par ch=1 c=64 v=56
716426 On ch=1 n=c5 v=0
716436 Par ch=1 c=64 v=72
716451 Par ch=1 c=64 v=88
716491 On ch=1 n=g5 v=0
716496 Par ch=1 c=64 v=104
716506 Par ch=1 c=64 v=127
716521 On ch=1 n=d6 v=71
716571 On ch=1 n=g4 v=0
716576 Par ch=1 c=64 v=104
716586 Par ch=1 c=64 v=56
716596 Par ch=1 c=64 v=24
716601 On ch=1 n=d6 v=0
716606 Par ch=1 c=64 v=0
716611 On ch=1 n=a#4 v=0
716636 On ch=1 n=g#5 v=69
716636 On ch=1 n=f4 v=52
716641 On ch=1 n=b4 v=56
716666 Par ch=1 c=64 v=24
716676 Par ch=1 c=64 v=40
716686 Par ch=1 c=64 v=72
716691 On ch=1 n=f4 v=0
716696 Par ch=1 c=64 v=88
716711 On ch=1 n=b4 v=0
716721 Par ch=1 c=64 v=104
716726 On ch=1 n=g#5 v=0
716741 On ch=1 n=d6 v=77
716766 Par ch=1 c=64 v=127
716801 Par ch=1 c=64 v=88
716811 Par ch=1 c=64 v=40
716821 Par ch=1 c=64 v=0
716826 On ch=1 n=d6 v=0
716856 On ch=1 n=g5 v=76
716866 On ch=1 n=d#4 v=62
716866 On ch=1 n=c5 v=59
716891 Par ch=1 c=64 v=24
716901 Par ch=1 c=64 v=40
716911 Par ch=1 c=64 v=72
716926 Par ch=1 c=64 v=88
716936 Par ch=1 c=64 v=104
716951 On ch=1 n=g5 v=0
716956 Par ch=1 c=64 v=127
716961 On ch=1 n=c5 v=0
716966 On ch=1 n=c6 v=83
717001 On ch=1 n=d#4 v=0
717036 Par ch=1 c=64 v=72
717046 Par ch=1 c=64 v=24
717061 Par ch=1 c=64 v=0
717066 On ch=1 n=c6 v=0
717081 On ch=1 n=f5 v=79
717081 On ch=1 n=d4 v=53
717086 On ch=1 n=b4 v=49
717106 Par ch=1 c=64 v=40
717116 Par ch=1 c=64 v=72
717136 On ch=1 n=d4 v=0
717141 Par ch=1 c=64 v=88
717151 Par ch=1 c=64 v=104
717171 On ch=1 n=b4 v=0
717171 Par ch=1 c=64 v=127
717191 On ch=1 n=d6 v=82
717206 On ch=1 n=f5 v=0
717251 Par ch=1 c=64 v=88
717261 Par ch=1 c=64 v=40
717271 On ch=1 n=d6 v=0
717276 Par ch=1 c=64 v=0
717311 On ch=1 n=c5 v=66
717316 On ch=1 n=d#5 v=87
717326 On ch=1 n=c4 v=67
717331 Par ch=1 c=64 v=40
717341 Par ch=1 c=64 v=72
717351 Par ch=1 c=64 v=88
717356 On ch=1 n=c5 v=0
717366 Par ch=1 c=64 v=104
717376 Par ch=1 c=64 v=127
717381 On ch=1 n=c4 v=0
717426 On ch=1 n=d#6 v=87
717466 On ch=1 n=d#5 v=0
717476 Par ch=1 c=64 v=104
717491 Par ch=1 c=64 v=72
717501 Par ch=1 c=64 v=24
717511 Par ch=1 c=64 v=0
717516 On ch=1 n=d#6 v=0
717541 On ch=1 n=e5 v=90
717541 On ch=1 n=a#3 v=69
717556 Par ch=1 c=64 v=56
717566 Par ch=1 c=64 v=88
717581 Par ch=1 c=64 v=104
717626 Par ch=1 c=64 v=127
717631 On ch=1 n=e5 v=0
717646 On ch=1 n=e6 v=94
717681 Par ch=1 c=64 v=104
717691 Par ch=1 c=64 v=88
717696 On ch=1 n=a#3 v=0
717706 Par ch=1 c=64 v=56
717716 On ch=1 n=e6 v=0
717716 Par ch=1 c=64 v=24
717726 Par ch=1 c=64 v=0
717771 On ch=1 n=f6 v=100
717776 On ch=1 n=d#6 v=77
717776 On ch=1 n=f5 v=86
717776 On ch=1 n=c6 v=82
717781 On ch=1 n=a3 v=82
717841 Par ch=1 c=64 v=72
717851 Par ch=1 c=64 v=127
717886 On ch=1 n=d#4 v=76
717896 On ch=1 n=a3 v=0
717941 Par ch=1 c=64 v=104
717966 Par ch=1 c=64 v=88
717976 On ch=1 n=d#4 v=0
717986 Par ch=1 c=64 v=56
717996 Par ch=1 c=64 v=40
718011 On ch=1 n=c4 v=84
718011 Par ch=1 c=64 v=0
718096 On ch=1 n=c4 v=0
718106 On ch=1 n=b3 v=89
718141 On ch=1 n=c6 v=0
718141 On ch=1 n=f5 v=0
718146 On ch=1 n=f6 v=0
718161 On ch=1 n=d#6 v=0
718221 On ch=1 n=a#3 v=77
718226 On ch=1 n=f6 v=107
718231 On ch=1 n=f5 v=89
718236 On ch=1 n=d6 v=84
718251 On ch=1 n=b3 v=0
718306 On ch=1 n=a#3 v=0
718341 On ch=1 n=a3 v=84
718426 On ch=1 n=a3 v=0
718466 On ch=1 n=g3 v=81
718506 On ch=1 n=f5 v=0
718511 On ch=1 n=f6 v=0
718541 On ch=1 n=g3 v=0
718566 On ch=1 n=f3 v=82
718581 On ch=1 n=d6 v=0
718671 On ch=1 n=d#3 v=77
718676 On ch=1 n=g6 v=103
718681 On ch=1 n=a#5 v=80
718686 On ch=1 n=g5 v=83
718696 On ch=1 n=f3 v=0
718726 On ch=1 n=a#5 v=0
718731 On ch=1 n=g5 v=0
718741 On ch=1 n=g6 v=0
718761 On ch=1 n=d#3 v=0
718786 On ch=1 n=d#4 v=77
718891 On ch=1 n=d#4 v=0
718911 On ch=1 n=f6 v=97
718916 On ch=1 n=f3 v=66
718921 On ch=1 n=f5 v=80
718921 On ch=1 n=a5 v=79
718966 On ch=1 n=a5 v=0
718966 On ch=1 n=f5 v=0
718986 On ch=1 n=f6 v=0
719001 On ch=1 n=f3 v=0
719036 On ch=1 n=f4 v=68
719126 On ch=1 n=f4 v=0
719161 On ch=1 n=d6 v=96
719171 On ch=1 n=f5 v=81
719171 On ch=1 n=a#5 v=70
719176 On ch=1 n=a#3 v=69
719181 On ch=1 n=f4 v=28
719286 Par ch=1 c=64 v=40
719296 Par ch=1 c=64 v=72
719306 Par ch=1 c=64 v=127
719366 On ch=1 n=f4 v=0
719376 On ch=1 n=f5 v=0
719381 On ch=1 n=a#3 v=0
719401 On ch=1 n=a#5 v=0
719426 On ch=1 n=d6 v=0
719521 Par ch=1 c=64 v=104
719536 Par ch=1 c=64 v=72
719546 Par ch=1 c=64 v=40
719556 Par ch=1 c=64 v=0
719646 On ch=1 n=f5 v=59
719651 On ch=1 n=d5 v=52
719651 On ch=1 n=a#4 v=34
719746 On ch=1 n=f5 v=0
719766 On ch=1 n=d6 v=65
719781 On ch=1 n=d5 v=0
719856 On ch=1 n=d6 v=0
719856 On ch=1 n=a#4 v=0
719866 On ch=1 n=c5 v=57
719876 On ch=1 n=a4 v=52
719886 On ch=1 n=f#5 v=57
719966 On ch=1 n=f#5 v=0
719991 On ch=1 n=d6 v=74
720056 On ch=1 n=a4 v=0
720081 On ch=1 n=d6 v=0
720101 On ch=1 n=g4 v=53
720106 On ch=1 n=g5 v=73
720116 On ch=1 n=a#4 v=40
720136 On ch=1 n=c5 v=0
720191 On ch=1 n=g5 v=0
720216 On ch=1 n=d6 v=70
720306 On ch=1 n=d6 v=0
720306 On ch=1 n=g4 v=0
720331 On ch=1 n=f4 v=52
720336 On ch=1 n=g#5 v=63
720336 On ch=1 n=b4 v=58
720336 Par ch=1 c=64 v=24
720346 Par ch=1 c=64 v=40
720351 On ch=1 n=a#4 v=0
720356 Par ch=1 c=64 v=72
720371 Par ch=1 c=64 v=88
720391 Par ch=1 c=64 v=104
720396 On ch=1 n=f4 v=0
720406 Par ch=1 c=64 v=127
720421 On ch=1 n=b4 v=0
720431 On ch=1 n=g#5 v=0
720441 On ch=1 n=d6 v=72
720496 Par ch=1 c=64 v=104
720506 Par ch=1 c=64 v=72
720516 Par ch=1 c=64 v=40
720526 Par ch=1 c=64 v=0
720531 On ch=1 n=d6 v=0
720561 On ch=1 n=d#4 v=62
720561 On ch=1 n=g5 v=71
720566 On ch=1 n=c5 v=55
720616 Par ch=1 c=64 v=24
720626 Par ch=1 c=64 v=56
720641 Par ch=1 c=64 v=72
720651 On ch=1 n=g5 v=0
720651 Par ch=1 c=64 v=88
720676 On ch=1 n=c6 v=77
720676 Par ch=1 c=64 v=104
720716 On ch=1 n=d#4 v=0
720741 Par ch=1 c=64 v=56
720756 Par ch=1 c=64 v=24
720766 On ch=1 n=a#4 v=32
720766 Par ch=1 c=64 v=0
720781 On ch=1 n=c6 v=0
720786 On ch=1 n=d4 v=36
720786 On ch=1 n=f5 v=73
720791 On ch=1 n=a#4 v=0
720796 On ch=1 n=b4 v=74
720801 Par ch=1 c=64 v=40
720811 Par ch=1 c=64 v=56
720821 On ch=1 n=c5 v=0
720821 Par ch=1 c=64 v=72
720831 Par ch=1 c=64 v=88
720846 On ch=1 n=d4 v=0
720846 Par ch=1 c=64 v=104
720851 On ch=1 n=b4 v=0
720886 Par ch=1 c=64 v=127
720901 On ch=1 n=f5 v=0
720901 On ch=1 n=d6 v=75
720971 On ch=1 n=d6 v=0
720981 Par ch=1 c=64 v=72
720991 Par ch=1 c=64 v=24
721001 Par ch=1 c=64 v=0
721016 On ch=1 n=d#5 v=83
721026 On ch=1 n=c5 v=70
721036 On ch=1 n=c4 v=62
721046 Par ch=1 c=64 v=40
721061 Par ch=1 c=64 v=72
721071 Par ch=1 c=64 v=88
721081 Par ch=1 c=64 v=104
721086 On ch=1 n=c5 v=0
721091 Par ch=1 c=64 v=127
721111 On ch=1 n=c4 v=0
721126 On ch=1 n=d#5 v=0
721136 On ch=1 n=d#6 v=82
721196 Par ch=1 c=64 v=88
721206 Par ch=1 c=64 v=40
721216 Par ch=1 c=64 v=0
721226 On ch=1 n=d#6 v=0
721236 On ch=1 n=a#3 v=67
721246 On ch=1 n=e5 v=83
721271 Par ch=1 c=64 v=24
721286 Par ch=1 c=64 v=56
721296 Par ch=1 c=64 v=72
721306 On ch=1 n=b3 v=29
721306 Par ch=1 c=64 v=88
721336 On ch=1 n=a#3 v=0
721341 On ch=1 n=e5 v=0
721341 Par ch=1 c=64 v=104
721361 On ch=1 n=e6 v=92
721411 On ch=1 n=b3 v=0
721426 On ch=1 n=e6 v=0
721431 Par ch=1 c=64 v=72
721441 Par ch=1 c=64 v=56
721456 Par ch=1 c=64 v=0
721481 On ch=1 n=f6 v=99
721486 On ch=1 n=a3 v=82
721486 On ch=1 n=d#6 v=73
721486 On ch=1 n=f5 v=79
721491 On ch=1 n=c6 v=73
721576 Par ch=1 c=64 v=40
721586 On ch=1 n=a3 v=0
721591 Par ch=1 c=64 v=88
721596 On ch=1 n=d#4 v=84
721601 Par ch=1 c=64 v=104
721636 Par ch=1 c=64 v=88
721646 Par ch=1 c=64 v=72
721656 Par ch=1 c=64 v=56
721671 On ch=1 n=d#4 v=0
721671 Par ch=1 c=64 v=40
721681 Par ch=1 c=64 v=24
721701 Par ch=1 c=64 v=0
721716 On ch=1 n=c4 v=84
721796 On ch=1 n=c4 v=0
721816 On ch=1 n=b3 v=87
721846 On ch=1 n=f5 v=0
721856 On ch=1 n=c6 v=0
721856 On ch=1 n=d#6 v=0
721861 On ch=1 n=f6 v=0
721931 On ch=1 n=a#3 v=76
721946 On ch=1 n=f6 v=107
721951 On ch=1 n=f5 v=88
721951 On ch=1 n=d6 v=86
721966 On ch=1 n=b3 v=0
722026 On ch=1 n=a#3 v=0
722051 On ch=1 n=a3 v=93
722141 On ch=1 n=a3 v=0
722191 On ch=1 n=g3 v=87
722236 On ch=1 n=f5 v=0
722236 On ch=1 n=f6 v=0
722251 On ch=1 n=g3 v=0
722281 On ch=1 n=d6 v=0
722296 On ch=1 n=f3 v=89
722396 On ch=1 n=f3 v=0
722431 On ch=1 n=d#3 v=80
722436 On ch=1 n=g6 v=109
722441 On ch=1 n=g5 v=87
722441 On ch=1 n=a#5 v=82
722541 On ch=1 n=a#5 v=0
722546 On ch=1 n=d#3 v=0
722551 On ch=1 n=g6 v=0
722566 On ch=1 n=d#4 v=84
722571 On ch=1 n=g5 v=0
722661 On ch=1 n=d#4 v=0
722711 On ch=1 n=f6 v=103
722711 On ch=1 n=f3 v=77
722721 On ch=1 n=f5 v=81
722721 On ch=1 n=a5 v=81
722766 Par ch=1 c=64 v=56
722776 Par ch=1 c=64 v=88
722801 On ch=1 n=a5 v=0
722816 On ch=1 n=f3 v=0
722831 On ch=1 n=f5 v=0
722831 On ch=1 n=f6 v=0
722846 On ch=1 n=f4 v=82
722866 Par ch=1 c=64 v=104
722921 Par ch=1 c=64 v=88
722936 Par ch=1 c=64 v=72
722946 Par ch=1 c=64 v=56
722956 Par ch=1 c=64 v=40
722966 Par ch=1 c=64 v=24
722981 Par ch=1 c=64 v=0
723036 On ch=1 n=d6 v=99
723046 On ch=1 n=f5 v=75
723046 On ch=1 n=a#5 v=68
723051 On ch=1 n=a#3 v=79
723181 Par ch=1 c=64 v=104
723196 Par ch=1 c=64 v=127
723236 On ch=1 n=f5 v=0
723241 On ch=1 n=f4 v=0
723246 On ch=1 n=a#3 v=0
723246 On ch=1 n=a#5 v=0
723251 On ch=1 n=d6 v=0
723576 Par ch=1 c=64 v=104
723586 Par ch=1 c=64 v=72
723601 Par ch=1 c=64 v=56
723611 Par ch=1 c=64 v=40
723636 Par ch=1 c=64 v=24
723646 Par ch=1 c=64 v=0
725281 On ch=1 n=g#5 v=38
725316 On ch=1 n=a#3 v=57
725346 On ch=1 n=a#3 v=0
725346 On ch=1 n=c6 v=68
725351 On ch=1 n=g#5 v=0
725381 On ch=1 n=c6 v=0
725591 On ch=1 n=b5 v=46
725631 On ch=1 n=b5 v=0
725636 On ch=1 n=c6 v=81
725636 On ch=1 n=f5 v=60
725671 On ch=1 n=c5 v=25
725671 On ch=1 n=g#4 v=50
725676 On ch=1 n=f5 v=0
725686 On ch=1 n=c6 v=0
725701 On ch=1 n=c5 v=0
725736 On ch=1 n=g#4 v=0
725886 On ch=1 n=c6 v=64
725926 On ch=1 n=c5 v=53
725931 On ch=1 n=g#4 v=46
725941 On ch=1 n=f5 v=80
725946 On ch=1 n=g#6 v=71
725966 On ch=1 n=c5 v=0
725971 On ch=1 n=c6 v=0
725981 On ch=1 n=f5 v=0
725986 On ch=1 n=g#4 v=0
726006 On ch=1 n=g#6 v=0
726206 On ch=1 n=a#3 v=70
726216 On ch=1 n=g#6 v=76
726271 On ch=1 n=a#3 v=0
726321 On ch=1 n=g#6 v=0
726491 On ch=1 n=d6 v=70
726491 On ch=1 n=b5 v=55
726496 On ch=1 n=g#4 v=48
726496 On ch=1 n=d5 v=42
726531 On ch=1 n=g#4 v=0
726541 On ch=1 n=d5 v=0
726556 On ch=1 n=b5 v=0
726561 On ch=1 n=d6 v=0
726746 On ch=1 n=f6 v=85
726746 On ch=1 n=d5 v=64
726746 On ch=1 n=a#4 v=57
726751 On ch=1 n=a#5 v=65
726761 Par ch=1 c=64 v=72
726776 On ch=1 n=a#4 v=0
726776 On ch=1 n=d5 v=0
726776 Par ch=1 c=64 v=127
726946 On ch=1 n=f6 v=0
726991 On ch=1 n=a#3 v=64
726991 Par ch=1 c=64 v=88
726996 On ch=1 n=d#6 v=74
727011 Par ch=1 c=64 v=24
727026 Par ch=1 c=64 v=0
727046 On ch=1 n=a#3 v=0
727046 On ch=1 n=a#5 v=0
727086 On ch=1 n=d#6 v=0
727251 On ch=1 n=d#5 v=57
727266 On ch=1 n=a#5 v=58
727266 On ch=1 n=a#4 v=40
727276 On ch=1 n=g5 v=36
727301 On ch=1 n=a#4 v=0
727306 On ch=1 n=d#5 v=0
727321 On ch=1 n=g5 v=0
727361 On ch=1 n=a#5 v=0
727476 Par ch=1 c=64 v=40
727491 Par ch=1 c=64 v=127
727501 On ch=1 n=f#5 v=65
727501 On ch=1 n=d#5 v=57
727506 On ch=1 n=c6 v=80
727516 On ch=1 n=a4 v=63
727551 On ch=1 n=a4 v=0
727566 On ch=1 n=d#5 v=0
727591 On ch=1 n=f#5 v=0
727646 On ch=1 n=c6 v=0
727746 On ch=1 n=a#3 v=65
727746 Par ch=1 c=64 v=72
727761 On ch=1 n=a#5 v=65
727766 Par ch=1 c=64 v=24
727786 On ch=1 n=g5 v=56
727786 Par ch=1 c=64 v=0
727816 On ch=1 n=a#3 v=0
727831 On ch=1 n=g5 v=0
727881 On ch=1 n=a#5 v=0
727986 On ch=1 n=d#5 v=71
728001 On ch=1 n=g5 v=68
728066 On ch=1 n=d#5 v=0
728096 On ch=1 n=g5 v=0
728266 On ch=1 n=c6 v=73
728266 On ch=1 n=e5 v=56
728276 On ch=1 n=c5 v=55
728286 On ch=1 n=g5 v=24
728291 On ch=1 n=a#4 v=31
728301 On ch=1 n=e5 v=0
728311 On ch=1 n=c5 v=0
728316 On ch=1 n=g5 v=0
728326 On ch=1 n=a#4 v=0
728326 Par ch=1 c=64 v=56
728346 On ch=1 n=c6 v=0
728346 Par ch=1 c=64 v=127
728481 On ch=1 n=g#5 v=60
728496 On ch=1 n=a#3 v=62
728501 Par ch=1 c=64 v=104
728521 Par ch=1 c=64 v=56
728526 On ch=1 n=c6 v=64
728541 Par ch=1 c=64 v=0
728551 On ch=1 n=g#5 v=0
728561 On ch=1 n=a#3 v=0
728576 On ch=1 n=c6 v=0
728711 On ch=1 n=b5 v=55
728746 On ch=1 n=b5 v=0
728751 On ch=1 n=c6 v=75
728761 On ch=1 n=f5 v=61
728771 On ch=1 n=c5 v=48
728806 On ch=1 n=f5 v=0
728816 On ch=1 n=c5 v=0
728831 On ch=1 n=c6 v=0
728951 On ch=1 n=c6 v=59
728981 On ch=1 n=c5 v=64
728991 On ch=1 n=f5 v=56
728996 On ch=1 n=g#4 v=51
728996 On ch=1 n=g#6 v=79
729016 On ch=1 n=c5 v=0
729026 On ch=1 n=c6 v=0
729031 On ch=1 n=g#4 v=0
729031 On ch=1 n=f5 v=0
729061 On ch=1 n=g#6 v=0
729236 On ch=1 n=g#6 v=81
729251 On ch=1 n=a#3 v=51
729286 On ch=1 n=a#3 v=0
729331 On ch=1 n=g#6 v=0
729481 On ch=1 n=d5 v=64
729481 On ch=1 n=d6 v=74
729481 On ch=1 n=b5 v=58
729486 On ch=1 n=g#4 v=56
729516 On ch=1 n=d5 v=0
729521 On ch=1 n=g#4 v=0
729546 On ch=1 n=b5 v=0
729561 On ch=1 n=d6 v=0
729736 On ch=1 n=f6 v=87
729741 Par ch=1 c=64 v=72
729746 On ch=1 n=d5 v=70
729746 On ch=1 n=a#4 v=62
729746 On ch=1 n=a#5 v=62
729761 Par ch=1 c=64 v=127
729781 On ch=1 n=a#4 v=0
729781 On ch=1 n=d5 v=0
729946 On ch=1 n=f6 v=0
729971 On ch=1 n=d#6 v=69
729976 On ch=1 n=a#3 v=62
729976 Par ch=1 c=64 v=88
729991 Par ch=1 c=64 v=24
730006 On ch=1 n=a#3 v=0
730011 Par ch=1 c=64 v=0
730026 On ch=1 n=a#5 v=0
730046 On ch=1 n=d#6 v=0
730191 On ch=1 n=d#5 v=69
730211 On ch=1 n=a#4 v=45
730226 On ch=1 n=a#5 v=56
730246 On ch=1 n=a#4 v=0
730256 On ch=1 n=d#5 v=0
730291 On ch=1 n=a#5 v=0
730421 Par ch=1 c=64 v=24
730441 Par ch=1 c=64 v=104
730446 On ch=1 n=d#5 v=56
730446 On ch=1 n=f#5 v=62
730456 On ch=1 n=c6 v=76
730456 Par ch=1 c=64 v=127
730466 On ch=1 n=a4 v=60
730496 On ch=1 n=a4 v=0
730521 On ch=1 n=d#5 v=0
730541 On ch=1 n=f#5 v=0
730586 On ch=1 n=c6 v=0
730681 On ch=1 n=a#3 v=69
730686 On ch=1 n=a#5 v=62
730686 Par ch=1 c=64 v=88
730701 On ch=1 n=g5 v=55
730711 Par ch=1 c=64 v=24
730726 Par ch=1 c=64 v=0
730741 On ch=1 n=a#3 v=0
730751 On ch=1 n=g5 v=0
730791 On ch=1 n=a#5 v=0
730936 On ch=1 n=d#5 v=45
730946 On ch=1 n=g5 v=64
730956 On ch=1 n=a#4 v=43
730986 On ch=1 n=g5 v=0
730986 On ch=1 n=d#5 v=0
730991 On ch=1 n=a#4 v=0
731116 Par ch=1 c=64 v=40
731136 Par ch=1 c=64 v=88
731156 Par ch=1 c=64 v=104
731206 On ch=1 n=d#6 v=75
731216 On ch=1 n=a#4 v=51
731231 On ch=1 n=g5 v=45
731231 On ch=1 n=d#5 v=35
731266 On ch=1 n=d#5 v=0
731271 On ch=1 n=g5 v=0
731271 Par ch=1 c=64 v=127
731276 On ch=1 n=a#4 v=0
731331 On ch=1 n=d#6 v=0
731441 On ch=1 n=g#5 v=50
731486 Par ch=1 c=64 v=104
731501 On ch=1 n=a#3 v=61
731501 Par ch=1 c=64 v=56
731516 On ch=1 n=c6 v=78
731521 Par ch=1 c=64 v=24
731536 On ch=1 n=g#5 v=0
731541 On ch=1 n=a#3 v=0
731541 Par ch=1 c=64 v=0
731561 On ch=1 n=c6 v=0
731796 On ch=1 n=b5 v=59
731816 On ch=1 n=c6 v=88
731831 On ch=1 n=f5 v=57
731841 On ch=1 n=b5 v=0
731841 On ch=1 n=g#4 v=42
731846 On ch=1 n=c5 v=47
731876 On ch=1 n=g#4 v=0
731876 On ch=1 n=f5 v=0
731881 On ch=1 n=c5 v=0
731896 On ch=1 n=c6 v=0
732046 On ch=1 n=c6 v=62
732096 On ch=1 n=g#4 v=61
732111 On ch=1 n=c5 v=61
732116 On ch=1 n=f5 v=76
732116 On ch=1 n=g#6 v=75
732141 On ch=1 n=c5 v=0
732141 On ch=1 n=c6 v=0
732151 On ch=1 n=f5 v=0
732181 On ch=1 n=g#6 v=0
732181 On ch=1 n=g#4 v=0
732361 On ch=1 n=a#3 v=75
732366 On ch=1 n=g#6 v=79
732406 On ch=1 n=a#3 v=0
732461 On ch=1 n=g#6 v=0
732611 On ch=1 n=d6 v=69
732611 On ch=1 n=b5 v=58
732616 On ch=1 n=g#4 v=58
732621 On ch=1 n=d5 v=60
732651 On ch=1 n=d5 v=0
732651 On ch=1 n=g#4 v=0
732676 On ch=1 n=b5 v=0
732696 On ch=1 n=d6 v=0
732861 On ch=1 n=f6 v=89
732866 On ch=1 n=a#5 v=70
732876 Par ch=1 c=64 v=104
732881 On ch=1 n=d5 v=71
732886 On ch=1 n=a#4 v=59
732896 Par ch=1 c=64 v=127
732916 On ch=1 n=a#4 v=0
732916 On ch=1 n=d5 v=0
733071 On ch=1 n=f6 v=0
733121 On ch=1 n=d#6 v=69
733131 On ch=1 n=a#3 v=71
733131 Par ch=1 c=64 v=104
733151 Par ch=1 c=64 v=40
733171 On ch=1 n=a#3 v=0
733171 On ch=1 n=a#5 v=0
733171 Par ch=1 c=64 v=0
733196 On ch=1 n=d#6 v=0
733346 On ch=1 n=d#5 v=65
733356 On ch=1 n=a#5 v=63
733366 On ch=1 n=g5 v=41
733396 On ch=1 n=d#5 v=0
733406 On ch=1 n=g5 v=0
733436 On ch=1 n=a#5 v=0
733556 Par ch=1 c=64 v=56
733576 Par ch=1 c=64 v=127
733581 On ch=1 n=f#5 v=70
733581 On ch=1 n=c6 v=80
733586 On ch=1 n=d#5 v=60
733606 On ch=1 n=a4 v=54
733646 On ch=1 n=a4 v=0
733656 On ch=1 n=d#5 v=0
733676 On ch=1 n=f#5 v=0
733731 On ch=1 n=c6 v=0
733811 On ch=1 n=a#3 v=73
733816 On ch=1 n=a#5 v=69
733826 Par ch=1 c=64 v=72
733831 On ch=1 n=g5 v=53
733846 Par ch=1 c=64 v=24
733866 Par ch=1 c=64 v=0
733871 On ch=1 n=g5 v=0
733871 On ch=1 n=a#3 v=0
733916 On ch=1 n=a#5 v=0
734036 On ch=1 n=d#5 v=58
734041 On ch=1 n=g5 v=66
734051 On ch=1 n=a#4 v=55
734096 On ch=1 n=a#4 v=0
734111 On ch=1 n=d#5 v=0
734136 On ch=1 n=g5 v=0
734256 Par ch=1 c=64 v=40
734271 Par ch=1 c=64 v=104
734281 On ch=1 n=e5 v=56
734286 On ch=1 n=c6 v=70
734291 Par ch=1 c=64 v=127
734296 On ch=1 n=c5 v=63
734301 On ch=1 n=a#4 v=49
734316 On ch=1 n=e5 v=0
734331 On ch=1 n=c5 v=0
734351 On ch=1 n=a#4 v=0
734356 On ch=1 n=c6 v=0
734486 On ch=1 n=g#5 v=68
734506 Par ch=1 c=64 v=72
734516 On ch=1 n=a#3 v=63
734526 Par ch=1 c=64 v=24
734536 On ch=1 n=c6 v=67
734546 Par ch=1 c=64 v=0
734551 On ch=1 n=a#3 v=0
734561 On ch=1 n=g#5 v=0
734571 On ch=1 n=c6 v=0
734746 On ch=1 n=b5 v=63
734776 On ch=1 n=c6 v=75
734781 On ch=1 n=b5 v=0
734796 On ch=1 n=f5 v=42
734816 On ch=1 n=g#4 v=26
734826 On ch=1 n=c6 v=0
734841 On ch=1 n=f5 v=0
734851 On ch=1 n=g#4 v=0
734986 On ch=1 n=c6 v=62
735016 On ch=1 n=g#4 v=60
735016 On ch=1 n=c5 v=58
735026 On ch=1 n=g#6 v=79
735036 On ch=1 n=f5 v=76
735051 On ch=1 n=c5 v=0
735056 On ch=1 n=c6 v=0
735071 On ch=1 n=f5 v=0
735091 On ch=1 n=g#4 v=0
735096 On ch=1 n=g#6 v=0
735256 On ch=1 n=a#3 v=65
735261 On ch=1 n=g#6 v=77
735311 On ch=1 n=a#3 v=0
735351 On ch=1 n=g#6 v=0
735511 On ch=1 n=d6 v=68
735511 On ch=1 n=b5 v=58
735516 On ch=1 n=d5 v=62
735516 On ch=1 n=g#4 v=59
735546 On ch=1 n=g#4 v=0
735546 On ch=1 n=d5 v=0
735576 On ch=1 n=b5 v=0
735591 On ch=1 n=d6 v=0
735756 On ch=1 n=f6 v=92
735761 On ch=1 n=a#5 v=71
735761 Par ch=1 c=64 v=104
735771 On ch=1 n=a#4 v=70
735771 On ch=1 n=d5 v=78
735781 Par ch=1 c=64 v=127
735796 On ch=1 n=g#4 v=28
735806 On ch=1 n=d5 v=0
735826 On ch=1 n=a#4 v=0
735831 On ch=1 n=g#4 v=0
735966 On ch=1 n=f6 v=0
736001 On ch=1 n=d#6 v=69
736006 On ch=1 n=a#3 v=71
736016 Par ch=1 c=64 v=88
736036 Par ch=1 c=64 v=24
736046 On ch=1 n=a#3 v=0
736056 On ch=1 n=a#5 v=0
736056 Par ch=1 c=64 v=0
736091 On ch=1 n=d#6 v=0
736241 On ch=1 n=d#5 v=62
736251 On ch=1 n=a#5 v=65
736261 On ch=1 n=a#4 v=36
736301 On ch=1 n=a#4 v=0
736301 On ch=1 n=d#5 v=0
736331 On ch=1 n=a#5 v=0
736441 Par ch=1 c=64 v=56
736461 Par ch=1 c=64 v=127
736466 On ch=1 n=c6 v=85
736466 On ch=1 n=d#5 v=64
736471 On ch=1 n=f#5 v=64
736486 On ch=1 n=a4 v=62
736516 On ch=1 n=a4 v=0
736521 On ch=1 n=d#5 v=0
736586 On ch=1 n=f#5 v=0
736606 On ch=1 n=c6 v=0
736696 Par ch=1 c=64 v=88
736701 On ch=1 n=a#3 v=64
736706 On ch=1 n=a#5 v=63
736716 Par ch=1 c=64 v=40
736731 On ch=1 n=g5 v=52
736731 Par ch=1 c=64 v=0
736751 On ch=1 n=a#3 v=0
736771 On ch=1 n=g5 v=0
736801 On ch=1 n=a#5 v=0
736961 On ch=1 n=d#5 v=46
736966 On ch=1 n=g5 v=67
736966 On ch=1 n=a#4 v=54
736996 On ch=1 n=d#5 v=0
737001 On ch=1 n=g5 v=0
737036 On ch=1 n=a#4 v=0
737141 Par ch=1 c=64 v=40
737161 Par ch=1 c=64 v=88
737181 Par ch=1 c=64 v=104
737246 On ch=1 n=d#6 v=62
737256 On ch=1 n=g5 v=56
737256 On ch=1 n=a#4 v=49
737256 On ch=1 n=d#5 v=47
737276 Par ch=1 c=64 v=72
737296 On ch=1 n=g5 v=0
737306 On ch=1 n=d#5 v=0
737306 On ch=1 n=a#4 v=0
737336 On ch=1 n=d#6 v=0
737336 Par ch=1 c=64 v=127
737491 Par ch=1 c=64 v=104
737506 Par ch=1 c=64 v=72
737526 On ch=1 n=g#5 v=43
737531 Par ch=1 c=64 v=40
737546 Par ch=1 c=64 v=0
737556 On ch=1 n=a#3 v=61
737586 On ch=1 n=c6 v=69
737601 On ch=1 n=g#5 v=0
737616 On ch=1 n=c6 v=0
737626 On ch=1 n=a#3 v=0
737871 On ch=1 n=b5 v=57
737891 On ch=1 n=c6 v=84
737896 On ch=1 n=f5 v=55
737906 On ch=1 n=c5 v=51
737911 On ch=1 n=b5 v=0
737911 On ch=1 n=g#4 v=38
737946 On ch=1 n=f5 v=0
737951 On ch=1 n=c5 v=0
737961 On ch=1 n=g#4 v=0
737961 On ch=1 n=c6 v=0
738121 On ch=1 n=c6 v=62
738186 On ch=1 n=g#4 v=52
738191 On ch=1 n=c5 v=55
738196 On ch=1 n=g#6 v=79
738206 On ch=1 n=f5 v=34
738221 On ch=1 n=c6 v=0
738226 On ch=1 n=c5 v=0
738241 On ch=1 n=f5 v=0
738261 On ch=1 n=g#4 v=0
738281 On ch=1 n=g#6 v=0
738436 On ch=1 n=a#3 v=73
738471 On ch=1 n=g#6 v=67
738496 On ch=1 n=a#3 v=0
738551 On ch=1 n=g#6 v=0
738706 On ch=1 n=f5 v=70
738706 On ch=1 n=c5 v=70
738706 On ch=1 n=c6 v=92
738711 On ch=1 n=g#4 v=63
738736 On ch=1 n=f5 v=0
738741 On ch=1 n=c5 v=0
738776 On ch=1 n=g#4 v=0
738826 On ch=1 n=c6 v=0
738931 On ch=1 n=a#3 v=69
738941 On ch=1 n=c7 v=97
738961 On ch=1 n=a#3 v=0
738961 Par ch=1 c=64 v=56
738981 Par ch=1 c=64 v=104
739001 Par ch=1 c=64 v=127
739111 On ch=1 n=c7 v=0
739191 On ch=1 n=g#6 v=84
739191 On ch=1 n=c5 v=68
739191 On ch=1 n=f5 v=64
739201 On ch=1 n=g#4 v=60
739221 On ch=1 n=c5 v=0
739226 On ch=1 n=f5 v=0
739266 On ch=1 n=g#4 v=0
739391 On ch=1 n=g#6 v=0
739426 On ch=1 n=c6 v=90
739461 On ch=1 n=a#3 v=56
739506 On ch=1 n=c6 v=0
739526 On ch=1 n=a#3 v=0
739696 On ch=1 n=c5 v=41
739701 On ch=1 n=f5 v=68
739701 On ch=1 n=g#4 v=65
739716 On ch=1 n=f7 v=105
739726 On ch=1 n=f6 v=93
739756 On ch=1 n=c5 v=0
739761 On ch=1 n=f5 v=0
739766 On ch=1 n=g#4 v=0
739791 On ch=1 n=f6 v=0
739791 On ch=1 n=f7 v=0
739991 Par ch=1 c=64 v=88
740011 Par ch=1 c=64 v=0
740026 On ch=1 n=b4 v=65
740036 On ch=1 n=d#7 v=103
740046 On ch=1 n=g#6 v=87
740046 On ch=1 n=d#6 v=91
740046 On ch=1 n=b3 v=71
740061 On ch=1 n=b4 v=0
740101 On ch=1 n=b3 v=0
740106 Par ch=1 c=64 v=88
740126 Par ch=1 c=64 v=127
740341 On ch=1 n=a#3 v=69
740351 On ch=1 n=a#2 v=59
740391 On ch=1 n=a#3 v=0
740396 On ch=1 n=d#6 v=0
740401 On ch=1 n=d#7 v=0
740411 On ch=1 n=a#2 v=0
740411 On ch=1 n=g#6 v=0
740646 On ch=1 n=d7 v=74
740656 On ch=1 n=d6 v=68
740656 On ch=1 n=a#4 v=69
740671 On ch=1 n=a#3 v=59
740686 On ch=1 n=d7 v=0
740711 On ch=1 n=d6 v=0
740726 On ch=1 n=a#4 v=0
740771 On ch=1 n=a#3 v=0
740981 On ch=1 n=g#5 v=48
740981 Par ch=1 c=64 v=88
741001 Par ch=1 c=64 v=40
741016 On ch=1 n=b3 v=61
741016 Par ch=1 c=64 v=0
741046 On ch=1 n=d6 v=55
741051 On ch=1 n=b3 v=0
741066 On ch=1 n=g#5 v=0
741081 On ch=1 n=d6 v=0
741296 On ch=1 n=g#5 v=63
741336 On ch=1 n=d6 v=68
741336 On ch=1 n=g#4 v=52
741351 On ch=1 n=e5 v=49
741356 On ch=1 n=g#5 v=0
741356 On ch=1 n=b4 v=40
741376 On ch=1 n=d6 v=0
741381 On ch=1 n=g#4 v=0
741386 On ch=1 n=e5 v=0
741396 On ch=1 n=b4 v=0
741551 On ch=1 n=g#5 v=55
741571 On ch=1 n=d6 v=60
741601 On ch=1 n=b4 v=58
741606 On ch=1 n=e5 v=60
741606 On ch=1 n=g#4 v=56
741621 On ch=1 n=g#5 v=0
741636 On ch=1 n=b4 v=0
741636 On ch=1 n=g#6 v=78
741641 On ch=1 n=e5 v=0
741641 On ch=1 n=d6 v=0
741661 On ch=1 n=g#4 v=0
741706 On ch=1 n=g#6 v=0
741891 On ch=1 n=b3 v=70
741901 On ch=1 n=g#6 v=82
741921 On ch=1 n=b3 v=0
741976 On ch=1 n=g#6 v=0
742146 On ch=1 n=g#5 v=63
742156 On ch=1 n=b4 v=60
742156 On ch=1 n=e5 v=58
742161 On ch=1 n=g#4 v=48
742186 On ch=1 n=b4 v=0
742196 On ch=1 n=e5 v=0
742206 On ch=1 n=g#5 v=0
742216 On ch=1 n=g#4 v=0
742386 On ch=1 n=b6 v=94
742411 On ch=1 n=b3 v=60
742471 On ch=1 n=b3 v=0
742516 On ch=1 n=b6 v=0
742641 On ch=1 n=e5 v=74
742646 On ch=1 n=g#6 v=87
742646 Par ch=1 c=64 v=56
742661 On ch=1 n=g#4 v=49
742666 Par ch=1 c=64 v=104
742681 On ch=1 n=b4 v=26
742681 Par ch=1 c=64 v=127
742701 On ch=1 n=e5 v=0
742716 On ch=1 n=b4 v=0
742726 On ch=1 n=g#4 v=0
742821 On ch=1 n=g#6 v=0
742861 On ch=1 n=g#5 v=82
742876 On ch=1 n=b3 v=81
742911 On ch=1 n=b3 v=0
742926 On ch=1 n=g#5 v=0
743091 Par ch=1 c=64 v=88
743106 Par ch=1 c=64 v=56
743126 Par ch=1 c=64 v=40
743146 On ch=1 n=e7 v=103
743151 On ch=1 n=b4 v=63
743151 On ch=1 n=e5 v=64
743151 Par ch=1 c=64 v=72
743156 On ch=1 n=g#4 v=55
743156 On ch=1 n=e6 v=87
743171 Par ch=1 c=64 v=104
743181 On ch=1 n=e5 v=0
743186 On ch=1 n=b4 v=0
743191 Par ch=1 c=64 v=127
743216 On ch=1 n=g#4 v=0
743231 On ch=1 n=e6 v=0
743266 On ch=1 n=e7 v=0
743476 Par ch=1 c=64 v=40
743491 On ch=1 n=d#7 v=102
743491 On ch=1 n=b2 v=68
743496 Par ch=1 c=64 v=0
743501 On ch=1 n=b3 v=61
743501 On ch=1 n=d#6 v=88
743506 On ch=1 n=g#6 v=86
743526 On ch=1 n=b2 v=0
743556 Par ch=1 c=64 v=24
743561 On ch=1 n=b3 v=0
743571 Par ch=1 c=64 v=88
743596 Par ch=1 c=64 v=127
743836 On ch=1 n=f4 v=63
743851 On ch=1 n=d#6 v=0
743866 On ch=1 n=f4 v=0
743896 On ch=1 n=d#7 v=0
744036 On ch=1 n=g#6 v=0
744156 Par ch=1 c=64 v=72
744166 On ch=1 n=d7 v=74
744176 On ch=1 n=d6 v=58
744176 Par ch=1 c=64 v=24
744181 On ch=1 n=a#3 v=62
744181 On ch=1 n=a#2 v=56
744196 Par ch=1 c=64 v=0
744216 Par ch=1 c=64 v=40
744221 On ch=1 n=a#3 v=0
744221 On ch=1 n=d7 v=0
744226 On ch=1 n=d6 v=0
744231 On ch=1 n=a#2 v=0
744231 Par ch=1 c=64 v=72
744251 Par ch=1 c=64 v=127
744476 On ch=1 n=g#5 v=50
744526 Par ch=1 c=64 v=104
744546 On ch=1 n=a#2 v=59
744546 On ch=1 n=a#3 v=57
744546 Par ch=1 c=64 v=72
744551 On ch=1 n=c6 v=64
744566 On ch=1 n=g#5 v=0
744566 Par ch=1 c=64 v=40
744581 On ch=1 n=c6 v=0
744581 Par ch=1 c=64 v=0
744591 On ch=1 n=a#2 v=0
744601 On ch=1 n=a#3 v=0
744911 On ch=1 n=b5 v=55
744941 On ch=1 n=c6 v=81
744946 On ch=1 n=g#4 v=45
744951 On ch=1 n=b5 v=0
744951 On ch=1 n=f5 v=41
744951 On ch=1 n=c5 v=50
744986 On ch=1 n=g#4 v=0
744996 On ch=1 n=f5 v=0
745011 On ch=1 n=c6 v=0
745016 On ch=1 n=c5 v=0
745261 On ch=1 n=c6 v=61
745296 On ch=1 n=g#4 v=62
745301 On ch=1 n=g#6 v=71
745311 On ch=1 n=f5 v=43
745311 On ch=1 n=c5 v=50
745336 On ch=1 n=c6 v=0
745351 On ch=1 n=f5 v=0
745366 On ch=1 n=g#6 v=0
745371 On ch=1 n=g#4 v=0
745376 On ch=1 n=c5 v=0
745626 On ch=1 n=a#3 v=74
745636 On ch=1 n=g#6 v=75
745686 On ch=1 n=a#3 v=0
745726 On ch=1 n=g#6 v=0
745931 On ch=1 n=d6 v=68
745931 On ch=1 n=b5 v=50
745931 On ch=1 n=d5 v=48
745931 On ch=1 n=g#4 v=51
745986 On ch=1 n=d6 v=0
745996 On ch=1 n=g#4 v=0
745996 On ch=1 n=d5 v=0
745996 On ch=1 n=b5 v=0
746191 On ch=1 n=f6 v=87
746196 On ch=1 n=a#5 v=72
746196 On ch=1 n=a#4 v=65
746206 On ch=1 n=d5 v=63
746206 Par ch=1 c=64 v=40
746226 Par ch=1 c=64 v=104
746236 On ch=1 n=d5 v=0
746236 On ch=1 n=a#4 v=0
746246 Par ch=1 c=64 v=127
746381 On ch=1 n=f6 v=0
746436 On ch=1 n=a#3 v=69
746441 Par ch=1 c=64 v=72
746456 On ch=1 n=d#6 v=70
746461 Par ch=1 c=64 v=24
746481 On ch=1 n=a#3 v=0
746481 Par ch=1 c=64 v=0
746521 On ch=1 n=a#5 v=0
746526 On ch=1 n=d#6 v=0
746676 On ch=1 n=d#5 v=60
746691 On ch=1 n=a#4 v=46
746696 On ch=1 n=a#5 v=67
746716 On ch=1 n=g5 v=30
746731 On ch=1 n=a#4 v=0
746736 On ch=1 n=d#5 v=0
746756 On ch=1 n=g5 v=0
746801 On ch=1 n=a#5 v=0
746906 Par ch=1 c=64 v=56
746921 On ch=1 n=d#5 v=62
746926 On ch=1 n=c6 v=81
746926 Par ch=1 c=64 v=127
746931 On ch=1 n=f#5 v=71
746946 On ch=1 n=a4 v=57
746976 On ch=1 n=a4 v=0
746981 On ch=1 n=d#5 v=0
747016 On ch=1 n=f#5 v=0
747056 On ch=1 n=c6 v=0
747136 Par ch=1 c=64 v=72
747151 On ch=1 n=a#5 v=64
747156 On ch=1 n=a#3 v=73
747156 Par ch=1 c=64 v=24
747176 Par ch=1 c=64 v=0
747186 On ch=1 n=g5 v=51
747191 On ch=1 n=a#3 v=0
747221 On ch=1 n=g5 v=0
747251 On ch=1 n=a#5 v=0
747376 On ch=1 n=d#5 v=46
747381 On ch=1 n=g5 v=62
747381 On ch=1 n=a#4 v=60
747436 On ch=1 n=d#5 v=0
747476 On ch=1 n=a#4 v=0
747476 On ch=1 n=g5 v=0
747566 Par ch=1 c=64 v=40
747586 On ch=1 n=e5 v=64
747586 Par ch=1 c=64 v=104
747596 On ch=1 n=c6 v=77
747601 Par ch=1 c=64 v=127
747611 On ch=1 n=a#4 v=42
747621 On ch=1 n=e5 v=0
747636 On ch=1 n=c5 v=43
747666 On ch=1 n=a#4 v=0
747671 On ch=1 n=c5 v=0
747676 On ch=1 n=c6 v=0
747811 On ch=1 n=g#5 v=60
747836 On ch=1 n=c6 v=73
747836 On ch=1 n=a#3 v=59
747836 Par ch=1 c=64 v=88
747856 Par ch=1 c=64 v=40
747861 On ch=1 n=g#5 v=0
747876 On ch=1 n=c6 v=0
747876 Par ch=1 c=64 v=0
747901 On ch=1 n=a#3 v=0
747986 On ch=1 n=b5 v=53
748021 On ch=1 n=b5 v=0
748041 On ch=1 n=c6 v=77
748051 On ch=1 n=c5 v=68
748056 On ch=1 n=f5 v=61
748076 On ch=1 n=g#4 v=44
748101 On ch=1 n=f5 v=0
748111 On ch=1 n=g#4 v=0
748126 On ch=1 n=c5 v=0
748126 On ch=1 n=c6 v=0
748261 On ch=1 n=c6 v=74
748261 On ch=1 n=g#6 v=74
748276 On ch=1 n=g#4 v=58
748281 On ch=1 n=c5 v=55
748291 On ch=1 n=f5 v=43
748311 On ch=1 n=c5 v=0
748311 On ch=1 n=c6 v=0
748336 On ch=1 n=f5 v=0
748341 On ch=1 n=g#6 v=0
748346 On ch=1 n=g#4 v=0
748476 On ch=1 n=g#6 v=79
748476 On ch=1 n=a#3 v=79
748506 On ch=1 n=a#3 v=0
748566 On ch=1 n=g#6 v=0
748681 On ch=1 n=d6 v=75
748681 On ch=1 n=b5 v=58
748696 On ch=1 n=d5 v=66
748701 On ch=1 n=g#4 v=57
748731 On ch=1 n=g#4 v=0
748731 On ch=1 n=d5 v=0
748746 On ch=1 n=b5 v=0
748766 On ch=1 n=d6 v=0
748896 On ch=1 n=f6 v=96
748901 Par ch=1 c=64 v=40
748906 On ch=1 n=a#4 v=70
748911 On ch=1 n=d5 v=79
748911 On ch=1 n=a#5 v=76
748921 Par ch=1 c=64 v=127
748951 On ch=1 n=d5 v=0
748971 On ch=1 n=a#4 v=0
749041 On ch=1 n=f6 v=0
749111 On ch=1 n=a#3 v=76
749116 Par ch=1 c=64 v=104
749131 On ch=1 n=d#6 v=71
749136 On ch=1 n=g5 v=56
749136 Par ch=1 c=64 v=40
749156 On ch=1 n=a#3 v=0
749156 Par ch=1 c=64 v=0
749176 On ch=1 n=g5 v=0
749176 On ch=1 n=a#5 v=0
749206 On ch=1 n=d#6 v=0
749331 On ch=1 n=d#5 v=64
749341 On ch=1 n=a#5 v=68
749341 On ch=1 n=a#4 v=49
749371 On ch=1 n=d#5 v=0
749376 On ch=1 n=a#4 v=0
749466 On ch=1 n=a#5 v=0
749501 Par ch=1 c=64 v=40
749521 Par ch=1 c=64 v=127
749546 On ch=1 n=f#5 v=67
749546 On ch=1 n=d#5 v=58
749551 On ch=1 n=a4 v=66
749551 On ch=1 n=c6 v=72
749586 On ch=1 n=a4 v=0
749591 On ch=1 n=d#5 v=0
749621 On ch=1 n=f#5 v=0
749651 On ch=1 n=c6 v=0
749736 Par ch=1 c=64 v=104
749751 Par ch=1 c=64 v=56
749761 On ch=1 n=a#5 v=60
749766 On ch=1 n=a#3 v=67
749771 Par ch=1 c=64 v=0
749786 On ch=1 n=g5 v=45
749801 On ch=1 n=a#3 v=0
749831 On ch=1 n=g5 v=0
749871 On ch=1 n=a#5 v=0
749991 On ch=1 n=d#5 v=65
750006 On ch=1 n=g5 v=64
750021 On ch=1 n=a#4 v=34
750036 On ch=1 n=g5 v=0
750061 On ch=1 n=d#5 v=0
750066 On ch=1 n=a#4 v=0
750196 Par ch=1 c=64 v=56
750216 Par ch=1 c=64 v=104
750236 Par ch=1 c=64 v=127
750271 On ch=1 n=a#4 v=48
750281 On ch=1 n=d#5 v=53
750281 On ch=1 n=d#6 v=64
750296 On ch=1 n=g5 v=42
750316 On ch=1 n=d#5 v=0
750316 On ch=1 n=a#4 v=0
750341 On ch=1 n=g5 v=0
750381 On ch=1 n=d#6 v=0
750431 Par ch=1 c=64 v=88
750451 Par ch=1 c=64 v=56
750466 Par ch=1 c=64 v=0
750511 On ch=1 n=g#5 v=49
750561 On ch=1 n=a#3 v=67
750576 On ch=1 n=c6 v=78
750591 On ch=1 n=g#5 v=0
750626 On ch=1 n=a#3 v=0
750631 On ch=1 n=c6 v=0
750831 On ch=1 n=b5 v=59
750836 On ch=1 n=c5 v=59
750846 On ch=1 n=c6 v=85
750846 On ch=1 n=f5 v=51
750846 On ch=1 n=g#4 v=49
750901 On ch=1 n=f5 v=0
750911 On ch=1 n=b5 v=0
750921 On ch=1 n=c5 v=0
750926 On ch=1 n=g#4 v=0
750956 On ch=1 n=c6 v=0
751086 On ch=1 n=c6 v=60
751096 On ch=1 n=f5 v=63
751096 On ch=1 n=g#4 v=57
751096 On ch=1 n=c5 v=66
751106 On ch=1 n=g#6 v=80
751126 On ch=1 n=c5 v=0
751131 On ch=1 n=f5 v=0
751136 On ch=1 n=c6 v=0
751176 On ch=1 n=g#4 v=0
751201 On ch=1 n=g#6 v=0
751321 On ch=1 n=a#3 v=77
751321 Par ch=1 c=64 v=24
751341 On ch=1 n=g#6 v=85
751341 Par ch=1 c=64 v=72
751361 Par ch=1 c=64 v=127
751376 On ch=1 n=a#3 v=0
751456 On ch=1 n=g#6 v=0
751556 On ch=1 n=f5 v=58
751556 On ch=1 n=c5 v=63
751566 On ch=1 n=g#4 v=55
751571 On ch=1 n=c6 v=93
751591 On ch=1 n=f5 v=0
751596 On ch=1 n=c5 v=0
751636 On ch=1 n=g#4 v=0
751686 On ch=1 n=c6 v=0
751786 On ch=1 n=a#3 v=72
751791 On ch=1 n=c7 v=103
751816 On ch=1 n=a#3 v=0
751956 On ch=1 n=c7 v=0
752016 On ch=1 n=f5 v=63
752016 On ch=1 n=c5 v=69
752026 On ch=1 n=g#6 v=87
752026 On ch=1 n=g#4 v=63
752056 On ch=1 n=c5 v=0
752056 On ch=1 n=f5 v=0
752101 On ch=1 n=g#4 v=0
752221 On ch=1 n=g#6 v=0
752251 On ch=1 n=c6 v=96
752251 On ch=1 n=a#3 v=73
752286 On ch=1 n=a#3 v=0
752336 On ch=1 n=c6 v=0
752496 On ch=1 n=c5 v=51
752516 On ch=1 n=f5 v=68
752531 On ch=1 n=f7 v=103
752541 On ch=1 n=f6 v=82
752551 On ch=1 n=f5 v=0
752566 On ch=1 n=g#4 v=33
752571 On ch=1 n=c5 v=0
752601 On ch=1 n=g#4 v=0
752611 On ch=1 n=f6 v=0
752636 On ch=1 n=f7 v=0
752731 On ch=1 n=a#3 v=34
752776 On ch=1 n=a#3 v=0
752821 Par ch=1 c=64 v=104
752841 Par ch=1 c=64 v=0
752856 On ch=1 n=d#7 v=106
752861 On ch=1 n=d#6 v=99
752861 On ch=1 n=b4 v=70
752866 On ch=1 n=g#6 v=87
752866 On ch=1 n=b3 v=74
752896 On ch=1 n=b4 v=0
752931 On ch=1 n=b3 v=0
752956 Par ch=1 c=64 v=88
752976 Par ch=1 c=64 v=127
753146 On ch=1 n=a#2 v=60
753151 On ch=1 n=a#3 v=56
753216 On ch=1 n=a#3 v=0
753216 On ch=1 n=a#2 v=0
753221 On ch=1 n=d#6 v=0
753241 On ch=1 n=d#7 v=0
753306 On ch=1 n=g#6 v=0
753446 On ch=1 n=d7 v=77
753446 On ch=1 n=a#3 v=68
753456 On ch=1 n=d6 v=69
753476 On ch=1 n=d7 v=0
753501 On ch=1 n=d6 v=0
753601 On ch=1 n=a#3 v=0
753691 Par ch=1 c=64 v=56
753711 Par ch=1 c=64 v=0
753731 On ch=1 n=g#5 v=58
753761 On ch=1 n=b3 v=64
753791 On ch=1 n=b3 v=0
753796 On ch=1 n=d6 v=59
753806 Par ch=1 c=64 v=24
753816 On ch=1 n=g#5 v=0
753826 Par ch=1 c=64 v=56
753836 On ch=1 n=d6 v=0
753906 Par ch=1 c=64 v=0
754041 On ch=1 n=g#5 v=54
754076 On ch=1 n=g#4 v=56
754086 On ch=1 n=d6 v=73
754091 On ch=1 n=b4 v=52
754091 On ch=1 n=e5 v=52
754116 On ch=1 n=g#5 v=0
754131 On ch=1 n=b4 v=0
754136 On ch=1 n=e5 v=0
754161 On ch=1 n=g#4 v=0
754166 On ch=1 n=d6 v=0
754336 On ch=1 n=g#4 v=56
754336 On ch=1 n=b4 v=55
754341 On ch=1 n=g#6 v=84
754341 On ch=1 n=e5 v=60
754371 On ch=1 n=b4 v=0
754381 On ch=1 n=e5 v=0
754401 On ch=1 n=g#4 v=0
754436 On ch=1 n=g#6 v=0
754556 On ch=1 n=b3 v=72
754591 On ch=1 n=g#6 v=86
754631 On ch=1 n=b3 v=0
754711 On ch=1 n=g#6 v=0
754816 On ch=1 n=e5 v=66
754821 On ch=1 n=g#4 v=52
754836 On ch=1 n=g#5 v=67
754846 On ch=1 n=e5 v=0
754856 On ch=1 n=b4 v=26
754886 On ch=1 n=b4 v=0
754896 On ch=1 n=g#4 v=0
754901 On ch=1 n=g#5 v=0
755006 Par ch=1 c=64 v=24
755026 Par ch=1 c=64 v=40
755041 On ch=1 n=b3 v=77
755046 Par ch=1 c=64 v=88
755061 On ch=1 n=b6 v=93
755066 Par ch=1 c=64 v=127
755071 On ch=1 n=b3 v=0
755186 On ch=1 n=b6 v=0
755286 On ch=1 n=g#4 v=64
755296 On ch=1 n=g#6 v=91
755296 On ch=1 n=e5 v=62
755331 On ch=1 n=e5 v=0
755366 On ch=1 n=g#4 v=0
755461 On ch=1 n=g#6 v=0
755511 On ch=1 n=b3 v=80
755511 On ch=1 n=g#5 v=80
755546 On ch=1 n=b3 v=0
755581 On ch=1 n=g#5 v=0
755671 On ch=1 n=d#7 v=48
755706 On ch=1 n=d#7 v=0
755776 On ch=1 n=b4 v=57
755776 On ch=1 n=e5 v=55
755791 On ch=1 n=e7 v=109
755796 On ch=1 n=e6 v=97
755811 On ch=1 n=e5 v=0
755811 On ch=1 n=g#4 v=64
755831 On ch=1 n=b4 v=0
755846 On ch=1 n=g#4 v=0
755851 On ch=1 n=e6 v=0
755896 On ch=1 n=e7 v=0
756091 Par ch=1 c=64 v=88
756111 Par ch=1 c=64 v=0
756131 On ch=1 n=b2 v=72
756136 On ch=1 n=d#7 v=105
756151 On ch=1 n=g#6 v=88
756151 On ch=1 n=d#6 v=91
756151 On ch=1 n=b3 v=70
756176 On ch=1 n=b2 v=0
756186 On ch=1 n=b3 v=0
756211 Par ch=1 c=64 v=40
756226 Par ch=1 c=64 v=127
756426 On ch=1 n=d#6 v=0
756466 On ch=1 n=f4 v=69
756471 On ch=1 n=d#7 v=0
756481 On ch=1 n=f3 v=58
756501 On ch=1 n=f4 v=0
756521 On ch=1 n=f3 v=0
756556 On ch=1 n=g#6 v=0
756801 On ch=1 n=d7 v=79
756816 On ch=1 n=g#6 v=56
756816 On ch=1 n=a#3 v=64
756816 On ch=1 n=a#2 v=58
756821 On ch=1 n=d6 v=56
756856 On ch=1 n=a#3 v=0
756861 On ch=1 n=d6 v=0
756871 On ch=1 n=d7 v=0
756876 On ch=1 n=a#2 v=0
756901 On ch=1 n=g#6 v=0
757166 On ch=1 n=g#5 v=53
757216 Par ch=1 c=64 v=72
757236 Par ch=1 c=64 v=0
757271 On ch=1 n=c6 v=72
757291 On ch=1 n=g#5 v=0
757291 On ch=1 n=a#2 v=57
757301 On ch=1 n=a#3 v=53
757311 Par ch=1 c=64 v=40
757321 On ch=1 n=c6 v=0
757331 Par ch=1 c=64 v=127
757361 On ch=1 n=a#2 v=0
757366 On ch=1 n=a#3 v=0
757466 Par ch=1 c=64 v=56
757486 Par ch=1 c=64 v=0
757666 On ch=1 n=b5 v=51
757701 On ch=1 n=c6 v=80
757721 On ch=1 n=b5 v=0
757721 On ch=1 n=f5 v=59
757726 On ch=1 n=c5 v=43
757731 On ch=1 n=g#4 v=47
757761 On ch=1 n=f5 v=0
757766 On ch=1 n=g#4 v=0
757766 On ch=1 n=c5 v=0
757786 On ch=1 n=c6 v=0
758051 On ch=1 n=c6 v=72
758111 On ch=1 n=g#4 v=56
758111 On ch=1 n=g#6 v=71
758111 On ch=1 n=f5 v=52
758126 On ch=1 n=c5 v=29
758136 On ch=1 n=c6 v=0
758151 On ch=1 n=f5 v=0
758161 On ch=1 n=c5 v=0
758166 On ch=1 n=g#6 v=0
758176 On ch=1 n=g#4 v=0
758436 On ch=1 n=a#3 v=71
758451 On ch=1 n=g#6 v=77
758491 On ch=1 n=a#3 v=0
758521 On ch=1 n=g#6 v=0
758756 On ch=1 n=g#4 v=58
758771 On ch=1 n=d6 v=70
758771 On ch=1 n=d5 v=51
758771 On ch=1 n=b5 v=58
758791 On ch=1 n=g#4 v=0
758811 On ch=1 n=d5 v=0
758836 On ch=1 n=b5 v=0
758841 On ch=1 n=d6 v=0
759066 On ch=1 n=f6 v=85
759071 On ch=1 n=a#4 v=62
759071 On ch=1 n=a#5 v=64
759071 Par ch=1 c=64 v=104
759076 On ch=1 n=d5 v=50
759091 Par ch=1 c=64 v=127
759101 On ch=1 n=a#4 v=0
759121 On ch=1 n=d5 v=0
759156 On ch=1 n=a#5 v=0
759211 On ch=1 n=f6 v=0
759306 Par ch=1 c=64 v=72
759326 Par ch=1 c=64 v=0
759336 On ch=1 n=a#3 v=72
759351 On ch=1 n=d#6 v=61
759396 On ch=1 n=a#3 v=0
759431 On ch=1 n=d#6 v=0
759576 On ch=1 n=d#5 v=62
759591 On ch=1 n=a#5 v=63
759636 On ch=1 n=d#5 v=0
759716 On ch=1 n=a#5 v=0
759826 On ch=1 n=d#5 v=55
759831 Par ch=1 c=64 v=104
759836 On ch=1 n=c6 v=82
759836 On ch=1 n=a4 v=62
759841 On ch=1 n=f#5 v=62
759851 Par ch=1 c=64 v=127
759876 On ch=1 n=a4 v=0
759901 On ch=1 n=d#5 v=0
759916 On ch=1 n=f#5 v=0
759966 On ch=1 n=c6 v=0
760071 On ch=1 n=a#3 v=69
760076 On ch=1 n=d#5 v=56
760076 On ch=1 n=a#5 v=64
760081 Par ch=1 c=64 v=56
760096 Par ch=1 c=64 v=0
760106 On ch=1 n=g5 v=53
760126 On ch=1 n=a#3 v=0
760131 On ch=1 n=d#5 v=0
760146 On ch=1 n=g5 v=0
760181 On ch=1 n=a#5 v=0
760316 On ch=1 n=g5 v=66
760316 On ch=1 n=a#4 v=58
760316 On ch=1 n=d#5 v=64
760361 On ch=1 n=g5 v=0
760366 On ch=1 n=d#5 v=0
760391 On ch=1 n=a#4 v=0
760526 Par ch=1 c=64 v=88
760541 On ch=1 n=d#6 v=73
760546 On ch=1 n=g5 v=63
760546 Par ch=1 c=64 v=127
760551 On ch=1 n=a#4 v=56
760556 On ch=1 n=d#5 v=57
760581 On ch=1 n=g5 v=0
760586 On ch=1 n=d#5 v=0
760601 On ch=1 n=a#4 v=0
760661 On ch=1 n=d#6 v=0
760761 On ch=1 n=g#5 v=61
760761 Par ch=1 c=64 v=56
760771 Par ch=1 c=64 v=0
760831 On ch=1 n=g#5 v=0
760831 On ch=1 n=c6 v=76
760831 On ch=1 n=a#3 v=50
760871 On ch=1 n=c6 v=0
760896 On ch=1 n=a#3 v=0
761016 On ch=1 n=b5 v=66
761021 On ch=1 n=c5 v=64
761036 On ch=1 n=c6 v=90
761036 On ch=1 n=g#4 v=58
761036 On ch=1 n=f5 v=54
761056 On ch=1 n=b5 v=0
761076 On ch=1 n=f5 v=0
761091 On ch=1 n=c5 v=0
761106 On ch=1 n=g#4 v=0
761116 On ch=1 n=c6 v=0
761221 On ch=1 n=c6 v=71
761261 On ch=1 n=g#4 v=65
761276 On ch=1 n=f5 v=46
761281 On ch=1 n=c5 v=45
761286 On ch=1 n=g#6 v=79
761316 On ch=1 n=c6 v=0
761321 On ch=1 n=f5 v=0
761326 On ch=1 n=c5 v=0
761331 On ch=1 n=g#4 v=0
761371 On ch=1 n=g#6 v=0
761506 On ch=1 n=a#3 v=65
761511 On ch=1 n=g#6 v=82
761566 On ch=1 n=a#3 v=0
761616 On ch=1 n=g#6 v=0
761736 On ch=1 n=g#4 v=70
761736 On ch=1 n=d6 v=74
761736 On ch=1 n=b5 v=60
761741 On ch=1 n=d5 v=70
761771 On ch=1 n=d5 v=0
761771 On ch=1 n=g#4 v=0
761801 On ch=1 n=b5 v=0
761816 On ch=1 n=d6 v=0
761976 On ch=1 n=f6 v=96
761976 Par ch=1 c=64 v=56
761981 On ch=1 n=a#5 v=78
761991 On ch=1 n=d5 v=78
761991 On ch=1 n=a#4 v=70
761996 Par ch=1 c=64 v=127
762021 On ch=1 n=d5 v=0
762026 On ch=1 n=a#4 v=0
762141 On ch=1 n=f6 v=0
762191 On ch=1 n=a#5 v=0
762206 On ch=1 n=a#3 v=78
762221 On ch=1 n=d#6 v=71
762226 Par ch=1 c=64 v=56
762246 Par ch=1 c=64 v=0
762271 On ch=1 n=a#3 v=0
762301 On ch=1 n=d#6 v=0
762426 On ch=1 n=d#5 v=64
762431 On ch=1 n=a#5 v=70
762446 On ch=1 n=a#4 v=48
762446 On ch=1 n=g5 v=41
762481 On ch=1 n=a#4 v=0
762486 On ch=1 n=g5 v=0
762486 On ch=1 n=d#5 v=0
762571 On ch=1 n=a#5 v=0
762616 Par ch=1 c=64 v=40
762631 Par ch=1 c=64 v=127
762651 On ch=1 n=d#5 v=58
762651 On ch=1 n=f#5 v=70
762656 On ch=1 n=c6 v=82
762661 On ch=1 n=a4 v=64
762696 On ch=1 n=a4 v=0
762701 On ch=1 n=d#5 v=0
762741 On ch=1 n=f#5 v=0
762776 On ch=1 n=c6 v=0
762866 Par ch=1 c=64 v=56
762886 On ch=1 n=a#5 v=65
762886 On ch=1 n=a#3 v=64
762886 Par ch=1 c=64 v=0
762916 On ch=1 n=g5 v=47
762951 On ch=1 n=a#3 v=0
762956 On ch=1 n=g5 v=0
762996 On ch=1 n=a#5 v=0
763111 On ch=1 n=g5 v=65
763121 On ch=1 n=d#5 v=27
763126 On ch=1 n=a#4 v=54
763146 On ch=1 n=g5 v=0
763176 On ch=1 n=d#5 v=0
763181 On ch=1 n=a#4 v=0
763311 Par ch=1 c=64 v=40
763331 Par ch=1 c=64 v=88
763351 Par ch=1 c=64 v=127
763376 On ch=1 n=a#4 v=54
763376 On ch=1 n=d#5 v=56
763376 On ch=1 n=d#6 v=67
763401 On ch=1 n=g5 v=35
763421 On ch=1 n=a#4 v=0
763426 On ch=1 n=d#5 v=0
763446 On ch=1 n=g5 v=0
763461 On ch=1 n=d#6 v=0
763561 Par ch=1 c=64 v=88
763581 Par ch=1 c=64 v=0
763606 On ch=1 n=a#3 v=57
763676 On ch=1 n=a#3 v=0
763696 Par ch=1 c=64 v=56
763716 Par ch=1 c=64 v=127
763841 On ch=1 n=a#5 v=76
763846 On ch=1 n=d#5 v=57
763851 On ch=1 n=a#4 v=55
763861 On ch=1 n=g5 v=53
763901 On ch=1 n=g5 v=0
763911 On ch=1 n=d#5 v=0
763936 On ch=1 n=a#4 v=0
763976 On ch=1 n=a#5 v=0
764066 Par ch=1 c=64 v=56
764086 Par ch=1 c=64 v=0
764121 On ch=1 n=d#6 v=88
764136 On ch=1 n=d#5 v=49
764136 On ch=1 n=f#5 v=66
764141 On ch=1 n=a4 v=55
764161 Par ch=1 c=64 v=40
764176 On ch=1 n=a4 v=0
764181 Par ch=1 c=64 v=127
764191 On ch=1 n=d#5 v=0
764301 Par ch=1 c=64 v=72
764321 Par ch=1 c=64 v=0
764336 On ch=1 n=f#5 v=0
764351 On ch=1 n=a#3 v=70
764376 Par ch=1 c=64 v=24
764396 Par ch=1 c=64 v=72
764416 Par ch=1 c=64 v=127
764421 On ch=1 n=a#3 v=0
764491 On ch=1 n=d#6 v=0
764531 Par ch=1 c=64 v=88
764551 Par ch=1 c=64 v=24
764571 Par ch=1 c=64 v=0
764586 Par ch=1 c=64 v=24
764591 On ch=1 n=a#5 v=82
764606 On ch=1 n=d#5 v=50
764606 On ch=1 n=g5 v=60
764606 Par ch=1 c=64 v=56
764616 On ch=1 n=a#4 v=42
764626 Par ch=1 c=64 v=104
764636 On ch=1 n=g5 v=0
764646 Par ch=1 c=64 v=127
764651 On ch=1 n=d#5 v=0
764661 On ch=1 n=a#4 v=0
764706 On ch=1 n=a#5 v=0
764821 Par ch=1 c=64 v=72
764841 Par ch=1 c=64 v=0
764876 On ch=1 n=d#5 v=57
764881 On ch=1 n=d#6 v=85
764891 On ch=1 n=a4 v=62
764896 On ch=1 n=f#5 v=62
764906 On ch=1 n=c6 v=64
764921 On ch=1 n=a4 v=0
764921 Par ch=1 c=64 v=56
764936 Par ch=1 c=64 v=127
764941 On ch=1 n=c6 v=0
764951 On ch=1 n=d#5 v=0
765031 Par ch=1 c=64 v=88
765051 Par ch=1 c=64 v=0
765111 On ch=1 n=a#3 v=61
765116 Par ch=1 c=64 v=72
765131 Par ch=1 c=64 v=127
765176 On ch=1 n=a#3 v=0
765226 On ch=1 n=f#5 v=0
765281 On ch=1 n=d#6 v=0
765306 Par ch=1 c=64 v=104
765326 Par ch=1 c=64 v=24
765346 On ch=1 n=a#5 v=77
765346 Par ch=1 c=64 v=0
765356 On ch=1 n=d#5 v=56
765361 On ch=1 n=g5 v=58
765366 Par ch=1 c=64 v=40
765371 On ch=1 n=a#4 v=42
765381 Par ch=1 c=64 v=72
765401 On ch=1 n=g5 v=0
765401 Par ch=1 c=64 v=127
765411 On ch=1 n=a#4 v=0
765411 On ch=1 n=d#5 v=0
765461 On ch=1 n=a#5 v=0
765506 On ch=1 n=a#5 v=67
765536 Par ch=1 c=64 v=0
765571 On ch=1 n=a#5 v=0
765601 On ch=1 n=a#4 v=68
765601 On ch=1 n=c6 v=83
765601 On ch=1 n=g5 v=70
765606 On ch=1 n=d#5 v=65
765666 On ch=1 n=d#5 v=0
765676 On ch=1 n=a#4 v=0
765676 Par ch=1 c=64 v=104
765696 Par ch=1 c=64 v=127
765716 On ch=1 n=g5 v=0
765736 On ch=1 n=c6 v=0
765846 On ch=1 n=a#3 v=64
765916 On ch=1 n=a#3 v=0
766041 Par ch=1 c=64 v=104
766061 Par ch=1 c=64 v=24
766076 On ch=1 n=g5 v=72
766076 On ch=1 n=d6 v=85
766081 Par ch=1 c=64 v=0
766086 On ch=1 n=d#5 v=67
766096 On ch=1 n=a#4 v=50
766121 Par ch=1 c=64 v=24
766136 On ch=1 n=a#4 v=0
766141 Par ch=1 c=64 v=56
766146 On ch=1 n=g5 v=0
766151 On ch=1 n=d#5 v=0
766161 Par ch=1 c=64 v=104
766176 Par ch=1 c=64 v=127
766181 On ch=1 n=d6 v=0
766271 On ch=1 n=g5 v=67
766271 On ch=1 n=d6 v=65
766296 Par ch=1 c=64 v=56
766316 On ch=1 n=d#5 v=65
766316 Par ch=1 c=64 v=0
766326 On ch=1 n=a#4 v=58
766356 On ch=1 n=d#6 v=85
766361 On ch=1 n=d#5 v=0
766376 On ch=1 n=a#4 v=0
766391 On ch=1 n=g5 v=0
766391 Par ch=1 c=64 v=40
766401 On ch=1 n=d6 v=0
766411 Par ch=1 c=64 v=104
766431 Par ch=1 c=64 v=127
766481 On ch=1 n=d#6 v=0
766546 Par ch=1 c=64 v=104
766561 On ch=1 n=a#3 v=65
766566 Par ch=1 c=64 v=24
766586 Par ch=1 c=64 v=0
766606 Par ch=1 c=64 v=40
766626 On ch=1 n=a#3 v=0
766626 Par ch=1 c=64 v=72
766641 Par ch=1 c=64 v=127
766796 Par ch=1 c=64 v=56
766816 Par ch=1 c=64 v=0
766821 On ch=1 n=f6 v=92
766826 On ch=1 n=g#5 v=61
766836 Par ch=1 c=64 v=24
766856 On ch=1 n=d5 v=58
766856 On ch=1 n=a#4 v=53
766856 Par ch=1 c=64 v=40
766876 Par ch=1 c=64 v=88
766886 On ch=1 n=d5 v=0
766891 On ch=1 n=g#5 v=0
766896 Par ch=1 c=64 v=127
766946 On ch=1 n=f6 v=0
766951 On ch=1 n=a#4 v=0
767071 Par ch=1 c=64 v=104
767091 Par ch=1 c=64 v=24
767101 On ch=1 n=a#6 v=85
767106 Par ch=1 c=64 v=0
767116 On ch=1 n=a#4 v=51
767116 On ch=1 n=a#5 v=57
767121 On ch=1 n=e6 v=68
767136 On ch=1 n=c#5 v=32
767146 Par ch=1 c=64 v=40
767161 On ch=1 n=e6 v=0
767161 On ch=1 n=g4 v=26
767166 Par ch=1 c=64 v=88
767176 On ch=1 n=c#5 v=0
767176 On ch=1 n=a#4 v=0
767186 Par ch=1 c=64 v=127
767191 On ch=1 n=g4 v=0
767191 On ch=1 n=a#5 v=0
767341 On ch=1 n=a#3 v=67
767341 Par ch=1 c=64 v=40
767361 Par ch=1 c=64 v=0
767381 On ch=1 n=a#3 v=0
767416 Par ch=1 c=64 v=56
767436 Par ch=1 c=64 v=104
767456 Par ch=1 c=64 v=127
767486 On ch=1 n=a#6 v=0
767571 Par ch=1 c=64 v=104
767591 Par ch=1 c=64 v=40
767601 On ch=1 n=f6 v=89
767611 On ch=1 n=g#5 v=53
767611 Par ch=1 c=64 v=24
767626 On ch=1 n=a#4 v=44
767631 Par ch=1 c=64 v=40
767636 On ch=1 n=d5 v=53
767651 Par ch=1 c=64 v=72
767671 On ch=1 n=g#5 v=0
767671 Par ch=1 c=64 v=127
767686 On ch=1 n=d5 v=0
767736 On ch=1 n=a#4 v=0
767766 On ch=1 n=f6 v=0
767881 Par ch=1 c=64 v=56
767891 On ch=1 n=a#6 v=73
767901 Par ch=1 c=64 v=0
767906 On ch=1 n=a#5 v=51
767916 On ch=1 n=c#5 v=43
767926 On ch=1 n=g4 v=52
767926 On ch=1 n=a#4 v=34
767926 On ch=1 n=e6 v=58
767961 On ch=1 n=g4 v=0
767961 Par ch=1 c=64 v=72
767966 On ch=1 n=e6 v=0
767966 On ch=1 n=a#4 v=0
767971 On ch=1 n=c#5 v=0
767981 Par ch=1 c=64 v=127
767991 On ch=1 n=a#5 v=0
768051 On ch=1 n=a#6 v=0
768166 On ch=1 n=a#3 v=71
768171 Par ch=1 c=64 v=56
768191 Par ch=1 c=64 v=0
768211 Par ch=1 c=64 v=24
768231 On ch=1 n=a#3 v=0
768231 Par ch=1 c=64 v=56
768251 Par ch=1 c=64 v=104
768271 Par ch=1 c=64 v=127
768441 On ch=1 n=f6 v=82
768446 Par ch=1 c=64 v=72
768451 On ch=1 n=g#5 v=46
768456 On ch=1 n=a#4 v=42
768466 On ch=1 n=d5 v=52
768466 Par ch=1 c=64 v=24
768481 Par ch=1 c=64 v=40
768501 On ch=1 n=g#5 v=0
768501 Par ch=1 c=64 v=72
768516 On ch=1 n=d5 v=0
768521 Par ch=1 c=64 v=127
768536 On ch=1 n=a#4 v=0
768551 On ch=1 n=f6 v=0
768676 On ch=1 n=g#5 v=57
768686 On ch=1 n=f6 v=76
768696 Par ch=1 c=64 v=104
768716 Par ch=1 c=64 v=40
768731 On ch=1 n=a#4 v=46
768736 Par ch=1 c=64 v=0
768741 On ch=1 n=d5 v=55
768776 On ch=1 n=g6 v=85
768781 On ch=1 n=d5 v=0
768806 On ch=1 n=a#4 v=0
768811 On ch=1 n=f6 v=0
768811 Par ch=1 c=64 v=72
768816 On ch=1 n=g#5 v=0
768831 Par ch=1 c=64 v=127
768876 On ch=1 n=g6 v=0
769041 On ch=1 n=a#3 v=62
769116 On ch=1 n=a#3 v=0
769381 On ch=1 n=g#6 v=82
769391 On ch=1 n=a#4 v=43
769396 On ch=1 n=g#5 v=59
769426 On ch=1 n=d5 v=38
769461 On ch=1 n=g#5 v=0
769471 On ch=1 n=d5 v=0
769481 On ch=1 n=a#4 v=0
769506 On ch=1 n=g#6 v=0
769776 On ch=1 n=g#6 v=70
769781 On ch=1 n=d5 v=43
769791 On ch=1 n=g#5 v=39
769791 On ch=1 n=a#4 v=30
769916 On ch=1 n=d5 v=0
769921 On ch=1 n=g#6 v=0
769946 On ch=1 n=c6 v=70
769971 On ch=1 n=c5 v=45
770071 Par ch=1 c=64 v=72
770091 Par ch=1 c=64 v=0
770206 On ch=1 n=g#5 v=0
770206 Par ch=1 c=64 v=56
770221 On ch=1 n=c6 v=0
770226 On ch=1 n=c5 v=0
770226 Par ch=1 c=64 v=127
770251 On ch=1 n=a#4 v=0
770766 Par ch=1 c=64 v=104
770786 Par ch=1 c=64 v=88
770806 Par ch=1 c=64 v=72
770826 Par ch=1 c=64 v=40
770846 Par ch=1 c=64 v=0
772321 Par ch=1 c=64 v=56
772336 Par ch=1 c=64 v=104
772351 Par ch=1 c=64 v=127
772371 On ch=1 n=g#5 v=73
772686 On ch=1 n=g#5 v=0
772721 On ch=1 n=c6 v=67
772751 On ch=1 n=c6 v=0
772821 On ch=1 n=c6 v=90
772846 Par ch=1 c=64 v=72
772861 On ch=1 n=f3 v=61
772861 Par ch=1 c=64 v=0
772901 On ch=1 n=f3 v=0
772911 Par ch=1 c=64 v=24
772926 Par ch=1 c=64 v=88
772946 Par ch=1 c=64 v=127
773211 On ch=1 n=d5 v=47
773216 On ch=1 n=g#4 v=40
773221 On ch=1 n=b4 v=40
773261 On ch=1 n=b4 v=0
773261 On ch=1 n=d5 v=0
773291 On ch=1 n=g#4 v=0
773381 On ch=1 n=b5 v=83
773386 On ch=1 n=c6 v=0
773566 On ch=1 n=b5 v=0
773586 On ch=1 n=g5 v=87
773871 On ch=1 n=d6 v=81
773931 On ch=1 n=d6 v=0
773981 On ch=1 n=d6 v=99
773991 On ch=1 n=d#3 v=58
773996 Par ch=1 c=64 v=24
774011 Par ch=1 c=64 v=0
774061 On ch=1 n=d#3 v=0
774096 Par ch=1 c=64 v=56
774116 Par ch=1 c=64 v=127
774346 On ch=1 n=g4 v=56
774351 On ch=1 n=c5 v=54
774381 On ch=1 n=c5 v=0
774381 On ch=1 n=g4 v=0
774456 On ch=1 n=d6 v=0
774476 On ch=1 n=g5 v=0
774516 On ch=1 n=c6 v=88
774676 On ch=1 n=c6 v=0
774721 On ch=1 n=f5 v=87
774986 On ch=1 n=d#6 v=85
775041 On ch=1 n=d#6 v=0
775091 On ch=1 n=d#6 v=88
775101 Par ch=1 c=64 v=88
775116 Par ch=1 c=64 v=0
775126 On ch=1 n=d3 v=57
775161 On ch=1 n=d3 v=0
775216 Par ch=1 c=64 v=56
775231 Par ch=1 c=64 v=127
775441 On ch=1 n=b4 v=57
775446 On ch=1 n=f4 v=53
775456 On ch=1 n=f5 v=0
775456 On ch=1 n=g#4 v=30
775476 On ch=1 n=b4 v=0
775491 On ch=1 n=g#4 v=0
775491 On ch=1 n=f4 v=0
775516 On ch=1 n=d#6 v=0
775606 On ch=1 n=d6 v=86
775766 On ch=1 n=d6 v=0
775806 On ch=1 n=d#5 v=91
775881 On ch=1 n=d#5 v=0
776066 On ch=1 n=f6 v=89
776126 On ch=1 n=f6 v=0
776146 Par ch=1 c=64 v=104
776166 On ch=1 n=f6 v=102
776166 Par ch=1 c=64 v=0
776171 On ch=1 n=c3 v=56
776201 On ch=1 n=c3 v=0
776271 Par ch=1 c=64 v=104
776286 Par ch=1 c=64 v=127
776501 On ch=1 n=g4 v=60
776501 On ch=1 n=d#4 v=60
776506 On ch=1 n=c5 v=66
776536 On ch=1 n=g4 v=0
776541 On ch=1 n=c5 v=0
776546 On ch=1 n=d#4 v=0
776671 On ch=1 n=d#6 v=88
776686 On ch=1 n=f6 v=0
776851 On ch=1 n=d#6 v=0
776866 On ch=1 n=d6 v=94
777156 On ch=1 n=a#6 v=86
777156 On ch=1 n=f6 v=65
777206 On ch=1 n=a#6 v=0
777211 On ch=1 n=f6 v=0
777211 On ch=1 n=d6 v=0
777251 Par ch=1 c=64 v=104
777261 On ch=1 n=a#6 v=93
777266 Par ch=1 c=64 v=0
777271 On ch=1 n=d6 v=83
777281 On ch=1 n=f6 v=74
777301 On ch=1 n=f3 v=58
777311 On ch=1 n=f6 v=0
777336 On ch=1 n=f3 v=0
777371 Par ch=1 c=64 v=104
777386 Par ch=1 c=64 v=127
777591 On ch=1 n=a#6 v=0
777621 On ch=1 n=g#4 v=48
777626 On ch=1 n=d5 v=57
777636 On ch=1 n=f4 v=46
777671 On ch=1 n=f4 v=0
777676 On ch=1 n=d5 v=0
777736 On ch=1 n=g#4 v=0
777781 On ch=1 n=d6 v=0
777786 On ch=1 n=g#6 v=91
777951 On ch=1 n=g#6 v=0
777981 On ch=1 n=c6 v=94
778186 On ch=1 n=c6 v=0
778241 On ch=1 n=g#6 v=91
778241 On ch=1 n=d#6 v=65
778296 On ch=1 n=d#6 v=0
778296 On ch=1 n=g#6 v=0
778351 On ch=1 n=g#6 v=87
778351 Par ch=1 c=64 v=104
778366 On ch=1 n=c6 v=74
778366 On ch=1 n=d#6 v=73
778371 Par ch=1 c=64 v=0
778381 On ch=1 n=g3 v=60
778426 On ch=1 n=g3 v=0
778456 Par ch=1 c=64 v=56
778471 Par ch=1 c=64 v=127
778596 On ch=1 n=d#6 v=0
778601 On ch=1 n=c6 v=0
778656 On ch=1 n=g#6 v=0
778726 On ch=1 n=g4 v=59
778736 On ch=1 n=c5 v=58
778796 On ch=1 n=c5 v=0
778796 On ch=1 n=g4 v=0
778901 On ch=1 n=g6 v=87
779041 On ch=1 n=g6 v=0
779101 On ch=1 n=b5 v=89
779316 On ch=1 n=b5 v=0
779376 On ch=1 n=g6 v=89
779376 On ch=1 n=d6 v=65
779431 On ch=1 n=d6 v=0
779441 On ch=1 n=g6 v=0
779486 On ch=1 n=g6 v=96
779496 On ch=1 n=b5 v=71
779506 On ch=1 n=d6 v=73
779506 Par ch=1 c=64 v=56
779511 On ch=1 n=g3 v=64
779521 Par ch=1 c=64 v=0
779536 On ch=1 n=d6 v=0
779571 On ch=1 n=g3 v=0
779606 Par ch=1 c=64 v=104
779626 Par ch=1 c=64 v=127
779766 On ch=1 n=g6 v=0
779881 On ch=1 n=b4 v=55
779891 On ch=1 n=g4 v=47
779921 On ch=1 n=b4 v=0
779936 On ch=1 n=g4 v=0
780016 On ch=1 n=b5 v=0
780056 On ch=1 n=f6 v=81
780196 On ch=1 n=f6 v=0
780271 On ch=1 n=f5 v=81
780586 On ch=1 n=d#6 v=79
780586 On ch=1 n=g#5 v=60
780631 On ch=1 n=f5 v=0
780651 On ch=1 n=d#6 v=0
780661 On ch=1 n=g#5 v=0
780711 On ch=1 n=d#6 v=72
780721 On ch=1 n=f5 v=59
780721 On ch=1 n=g#5 v=59
780741 On ch=1 n=g2 v=47
780741 Par ch=1 c=64 v=56
780756 Par ch=1 c=64 v=0
780771 On ch=1 n=g2 v=0
780846 Par ch=1 c=64 v=72
780861 Par ch=1 c=64 v=127
781136 On ch=1 n=f4 v=51
781136 On ch=1 n=b4 v=44
781176 On ch=1 n=b4 v=0
781176 On ch=1 n=f4 v=0
781271 On ch=1 n=d#6 v=0
781296 On ch=1 n=g#5 v=0
781351 On ch=1 n=f5 v=0
781371 On ch=1 n=d6 v=70
781416 On ch=1 n=d6 v=0
781691 On ch=1 n=g#6 v=89
781691 Par ch=1 c=64 v=56
781696 On ch=1 n=g#5 v=73
781706 Par ch=1 c=64 v=0
781756 Par ch=1 c=64 v=56
781776 Par ch=1 c=64 v=127
781811 On ch=1 n=g#5 v=0
781821 On ch=1 n=g#6 v=0
782106 On ch=1 n=c7 v=93
782106 On ch=1 n=c6 v=83
782151 On ch=1 n=c6 v=0
782156 On ch=1 n=c7 v=0
782216 On ch=1 n=c7 v=90
782221 On ch=1 n=c6 v=86
782231 Par ch=1 c=64 v=88
782251 On ch=1 n=f3 v=66
782251 Par ch=1 c=64 v=0
782271 On ch=1 n=f4 v=63
782296 On ch=1 n=f3 v=0
782301 Par ch=1 c=64 v=72
782316 Par ch=1 c=64 v=127
782341 On ch=1 n=f4 v=0
782456 On ch=1 n=c7 v=0
782506 On ch=1 n=c6 v=0
782591 On ch=1 n=b4 v=54
782596 On ch=1 n=d5 v=56
782601 On ch=1 n=g#4 v=36
782636 On ch=1 n=d5 v=0
782646 On ch=1 n=b4 v=0
782666 On ch=1 n=g#4 v=0
782766 On ch=1 n=b6 v=93
782766 On ch=1 n=b5 v=82
782836 On ch=1 n=b5 v=0
782841 On ch=1 n=b6 v=0
782996 On ch=1 n=g6 v=96
783001 On ch=1 n=g5 v=84
783051 On ch=1 n=g5 v=0
783051 On ch=1 n=g6 v=0
783321 On ch=1 n=d6 v=82
783326 On ch=1 n=d7 v=96
783351 On ch=1 n=d7 v=0
783361 On ch=1 n=d6 v=0
783416 On ch=1 n=d#3 v=65
783421 On ch=1 n=d7 v=96
783426 On ch=1 n=d6 v=90
783426 On ch=1 n=d#4 v=70
783436 Par ch=1 c=64 v=56
783451 Par ch=1 c=64 v=0
783476 On ch=1 n=d#3 v=0
783486 On ch=1 n=d#4 v=0
783501 Par ch=1 c=64 v=88
783521 Par ch=1 c=64 v=127
783661 On ch=1 n=d7 v=0
783701 On ch=1 n=d6 v=0
783771 On ch=1 n=c5 v=64
783771 On ch=1 n=g4 v=62
783806 On ch=1 n=g4 v=0
783806 On ch=1 n=c5 v=0
783911 On ch=1 n=c7 v=87
783921 On ch=1 n=c6 v=86
783976 On ch=1 n=c6 v=0
783976 On ch=1 n=c7 v=0
784111 On ch=1 n=f6 v=100
784111 On ch=1 n=f5 v=85
784136 On ch=1 n=f5 v=0
784166 On ch=1 n=f6 v=0
784371 On ch=1 n=d#6 v=85
784371 On ch=1 n=d#7 v=72
784396 On ch=1 n=d#6 v=0
784401 On ch=1 n=d#7 v=0
784451 On ch=1 n=d#7 v=88
784456 On ch=1 n=d#6 v=92
784481 On ch=1 n=d3 v=68
784486 On ch=1 n=d4 v=74
784486 Par ch=1 c=64 v=40
784506 Par ch=1 c=64 v=0
784511 On ch=1 n=d3 v=0
784556 On ch=1 n=d4 v=0
784556 Par ch=1 c=64 v=72
784571 Par ch=1 c=64 v=127
784631 On ch=1 n=d#7 v=0
784686 On ch=1 n=d#6 v=0
784786 On ch=1 n=b4 v=71
784791 On ch=1 n=f4 v=65
784796 On ch=1 n=g#4 v=54
784831 On ch=1 n=g#4 v=0
784836 On ch=1 n=f4 v=0
784841 On ch=1 n=b4 v=0
784961 On ch=1 n=d7 v=96
784961 On ch=1 n=d6 v=92
785011 On ch=1 n=d6 v=0
785011 On ch=1 n=d7 v=0
785166 On ch=1 n=d#5 v=89
785171 On ch=1 n=d#6 v=92
785201 On ch=1 n=d#6 v=0
785216 On ch=1 n=d#5 v=0
785481 On ch=1 n=f6 v=97
785481 On ch=1 n=f7 v=102
785536 On ch=1 n=f7 v=0
785536 On ch=1 n=f6 v=0
785566 On ch=1 n=c3 v=69
785566 On ch=1 n=c4 v=70
785586 On ch=1 n=f7 v=103
785596 On ch=1 n=f6 v=100
785606 Par ch=1 c=64 v=56
785621 Par ch=1 c=64 v=0
785636 On ch=1 n=c3 v=0
785646 On ch=1 n=c4 v=0
785676 Par ch=1 c=64 v=72
785691 Par ch=1 c=64 v=127
785851 On ch=1 n=f7 v=0
785911 On ch=1 n=f6 v=0
785936 On ch=1 n=c5 v=79
785936 On ch=1 n=d#4 v=71
785936 On ch=1 n=g4 v=60
785981 On ch=1 n=g4 v=0
785986 On ch=1 n=d#4 v=0
785991 On ch=1 n=c5 v=0
786091 On ch=1 n=d#7 v=92
786096 On ch=1 n=d#6 v=91
786171 On ch=1 n=d#6 v=0
786191 On ch=1 n=d#7 v=0
786296 On ch=1 n=d6 v=88
786301 On ch=1 n=d7 v=100
786346 On ch=1 n=d6 v=0
786376 On ch=1 n=d7 v=0
786601 On ch=1 n=a#7 v=84
786606 On ch=1 n=a#6 v=87
786636 On ch=1 n=a#7 v=0
786641 On ch=1 n=a#6 v=0
786696 On ch=1 n=a#6 v=92
786701 On ch=1 n=a#7 v=103
786721 On ch=1 n=f3 v=70
786721 On ch=1 n=f4 v=70
786726 Par ch=1 c=64 v=40
786741 Par ch=1 c=64 v=0
786786 On ch=1 n=f3 v=0
786791 On ch=1 n=f4 v=0
786806 Par ch=1 c=64 v=104
786826 Par ch=1 c=64 v=127
787041 On ch=1 n=a#7 v=0
787061 On ch=1 n=g#4 v=54
787061 On ch=1 n=f4 v=63
787066 On ch=1 n=d5 v=65
787096 On ch=1 n=f4 v=0
787096 On ch=1 n=a#6 v=0
787121 On ch=1 n=d5 v=0
787131 On ch=1 n=g#4 v=0
787216 On ch=1 n=g#7 v=93
787221 On ch=1 n=g#6 v=86
787281 On ch=1 n=g#6 v=0
787281 On ch=1 n=g#7 v=0
787421 On ch=1 n=c6 v=96
787426 On ch=1 n=c7 v=100
787461 On ch=1 n=c6 v=0
787471 On ch=1 n=c7 v=0
787736 On ch=1 n=g#6 v=97
787736 On ch=1 n=g#7 v=99
787771 On ch=1 n=g#7 v=0
787786 On ch=1 n=g#6 v=0
787821 On ch=1 n=g3 v=67
787821 On ch=1 n=g4 v=74
787841 On ch=1 n=g#7 v=105
787841 On ch=1 n=g#6 v=85
787841 Par ch=1 c=64 v=40
787861 Par ch=1 c=64 v=0
787881 On ch=1 n=g3 v=0
787901 On ch=1 n=g4 v=0
787926 Par ch=1 c=64 v=104
787946 Par ch=1 c=64 v=127
788116 On ch=1 n=g#6 v=0
788151 On ch=1 n=g#7 v=0
788161 On ch=1 n=g4 v=64
788166 On ch=1 n=c5 v=69
788166 On ch=1 n=d#4 v=53
788206 On ch=1 n=d#4 v=0
788206 On ch=1 n=c5 v=0
788216 On ch=1 n=g4 v=0
788331 On ch=1 n=g7 v=89
788336 On ch=1 n=g6 v=82
788386 On ch=1 n=g7 v=0
788396 On ch=1 n=g6 v=0
788536 On ch=1 n=b6 v=93
788546 On ch=1 n=b5 v=72
788571 On ch=1 n=b5 v=0
788601 On ch=1 n=b6 v=0
788856 On ch=1 n=d#7 v=89
788861 On ch=1 n=d#6 v=84
788911 On ch=1 n=d#6 v=0
788916 On ch=1 n=d#7 v=0
788986 On ch=1 n=d#7 v=78
788996 On ch=1 n=d#6 v=73
789011 Par ch=1 c=64 v=24
789026 On ch=1 n=g2 v=64
789031 Par ch=1 c=64 v=0
789041 On ch=1 n=g3 v=68
789096 On ch=1 n=g2 v=0
789126 On ch=1 n=g3 v=0
789131 Par ch=1 c=64 v=127
789291 On ch=1 n=d#6 v=0
789311 On ch=1 n=d#7 v=0
789386 On ch=1 n=d5 v=59
789386 On ch=1 n=f4 v=47
789396 On ch=1 n=b4 v=49
789436 On ch=1 n=b4 v=0
789436 On ch=1 n=f4 v=0
789451 On ch=1 n=d5 v=0
789566 On ch=1 n=d7 v=83
789576 On ch=1 n=d6 v=72
789626 On ch=1 n=d7 v=0
789646 On ch=1 n=d6 v=0
789851 On ch=1 n=g5 v=74
789851 On ch=1 n=g6 v=84
789911 On ch=1 n=g5 v=0
789936 On ch=1 n=g6 v=0
790206 On ch=1 n=d7 v=81
790216 On ch=1 n=d6 v=69
790256 On ch=1 n=d6 v=0
790266 On ch=1 n=d7 v=0
790336 On ch=1 n=d7 v=84
790341 On ch=1 n=d6 v=71
790351 Par ch=1 c=64 v=104
790361 On ch=1 n=c3 v=49
790366 Par ch=1 c=64 v=0
790371 On ch=1 n=c4 v=47
790416 On ch=1 n=c3 v=0
790461 On ch=1 n=c4 v=0
790471 Par ch=1 c=64 v=127
790591 On ch=1 n=d7 v=0
790646 On ch=1 n=d6 v=0
790771 On ch=1 n=d#4 v=50
790771 On ch=1 n=c5 v=52
790836 On ch=1 n=c5 v=0
790841 On ch=1 n=d#4 v=0
790981 On ch=1 n=c7 v=68
791001 On ch=1 n=c6 v=56
791056 On ch=1 n=c7 v=0
791066 On ch=1 n=c6 v=0
791411 On ch=1 n=g#5 v=60
791486 Par ch=1 c=64 v=104
791506 Par ch=1 c=64 v=0
791606 Par ch=1 c=64 v=56
791621 Par ch=1 c=64 v=127
791806 On ch=1 n=c6 v=62
791861 On ch=1 n=c6 v=0
791886 On ch=1 n=g#5 v=0
791916 On ch=1 n=g#5 v=20
791931 On ch=1 n=c6 v=76
791966 On ch=1 n=d3 v=52
791976 Par ch=1 c=64 v=56
791996 Par ch=1 c=64 v=0
792006 On ch=1 n=d3 v=0
792011 Par ch=1 c=64 v=24
792031 Par ch=1 c=64 v=88
792046 Par ch=1 c=64 v=127
792346 On ch=1 n=f4 v=39
792351 On ch=1 n=d4 v=49
792386 On ch=1 n=d4 v=0
792386 On ch=1 n=f4 v=0
792466 On ch=1 n=c6 v=0
792516 On ch=1 n=g#5 v=0
792516 On ch=1 n=a#5 v=65
792696 On ch=1 n=a#5 v=0
792721 On ch=1 n=f5 v=85
792811 On ch=1 n=f5 v=0
793031 On ch=1 n=g#6 v=85
793076 On ch=1 n=g#6 v=0
793136 On ch=1 n=g#6 v=77
793156 On ch=1 n=d#3 v=54
793181 Par ch=1 c=64 v=40
793196 Par ch=1 c=64 v=0
793231 Par ch=1 c=64 v=40
793246 On ch=1 n=d#3 v=0
793251 Par ch=1 c=64 v=104
793266 Par ch=1 c=64 v=127
793516 On ch=1 n=f4 v=52
793536 On ch=1 n=d#4 v=46
793556 On ch=1 n=f4 v=0
793566 On ch=1 n=d#4 v=0
793686 On ch=1 n=c6 v=79
793691 On ch=1 n=g#6 v=0
793886 On ch=1 n=c6 v=0
793906 On ch=1 n=g#5 v=82
794181 On ch=1 n=c6 v=74
794236 On ch=1 n=c6 v=0
794296 On ch=1 n=c6 v=89
794316 Par ch=1 c=64 v=72
794326 On ch=1 n=d3 v=52
794331 Par ch=1 c=64 v=0
794366 On ch=1 n=d3 v=0
794401 Par ch=1 c=64 v=72
794421 Par ch=1 c=64 v=127
794626 On ch=1 n=g#5 v=0
794636 On ch=1 n=d4 v=54
794646 On ch=1 n=f4 v=39
794671 On ch=1 n=d4 v=0
794686 On ch=1 n=f4 v=0
794826 On ch=1 n=c6 v=0
794826 On ch=1 n=a#5 v=67
795006 On ch=1 n=f5 v=88
795026 On ch=1 n=a#5 v=0
795086 On ch=1 n=f5 v=0
795296 On ch=1 n=g#6 v=96
795356 On ch=1 n=g#6 v=0
795396 On ch=1 n=g#6 v=90
795401 On ch=1 n=d#3 v=53
795401 Par ch=1 c=64 v=104
795416 Par ch=1 c=64 v=0
795486 On ch=1 n=d#3 v=0
795501 Par ch=1 c=64 v=104
795521 Par ch=1 c=64 v=127
795581 On ch=1 n=g#6 v=0
795771 On ch=1 n=d#4 v=49
795776 On ch=1 n=f4 v=49
795811 On ch=1 n=f4 v=0
795811 On ch=1 n=d#4 v=0
795926 On ch=1 n=c6 v=81
796101 On ch=1 n=c6 v=0
796121 On ch=1 n=g#5 v=84
796391 On ch=1 n=c6 v=82
796446 On ch=1 n=c6 v=0
796496 On ch=1 n=c6 v=89
796501 Par ch=1 c=64 v=88
796521 Par ch=1 c=64 v=0
796531 On ch=1 n=d3 v=55
796566 On ch=1 n=d3 v=0
796606 Par ch=1 c=64 v=56
796621 Par ch=1 c=64 v=127
796791 On ch=1 n=g#5 v=0
796836 On ch=1 n=d4 v=60
796841 On ch=1 n=f4 v=42
796871 On ch=1 n=d4 v=0
796881 On ch=1 n=f4 v=0
796996 On ch=1 n=c6 v=0
797001 On ch=1 n=a#5 v=80
797181 On ch=1 n=a#5 v=0
797201 On ch=1 n=f5 v=87
797286 On ch=1 n=f5 v=0
797476 On ch=1 n=g#6 v=96
797521 On ch=1 n=g#6 v=0
797581 On ch=1 n=g#6 v=88
797586 Par ch=1 c=64 v=88
797601 On ch=1 n=c#3 v=58
797606 Par ch=1 c=64 v=0
797676 On ch=1 n=c#3 v=0
797691 Par ch=1 c=64 v=88
797706 Par ch=1 c=64 v=127
797816 On ch=1 n=g#6 v=0
797936 On ch=1 n=c#4 v=58
797941 On ch=1 n=e4 v=63
797971 On ch=1 n=e4 v=0
797996 On ch=1 n=c#4 v=0
798086 On ch=1 n=g#5 v=81
798246 On ch=1 n=g#5 v=0
798261 On ch=1 n=e5 v=93
798341 On ch=1 n=e5 v=0
798551 On ch=1 n=g#6 v=95
798606 On ch=1 n=g#6 v=0
798651 On ch=1 n=g#6 v=89
798671 Par ch=1 c=64 v=88
798691 On ch=1 n=c3 v=60
798691 Par ch=1 c=64 v=0
798726 On ch=1 n=c3 v=0
798771 Par ch=1 c=64 v=104
798791 Par ch=1 c=64 v=127
798831 On ch=1 n=g#6 v=0
799001 On ch=1 n=d#4 v=72
799006 On ch=1 n=c4 v=68
799036 On ch=1 n=c4 v=0
799061 On ch=1 n=d#4 v=0
799191 On ch=1 n=g#5 v=75
799386 On ch=1 n=g#5 v=0
799396 On ch=1 n=d#5 v=86
799461 On ch=1 n=d#5 v=0
799681 On ch=1 n=g#6 v=85
799751 On ch=1 n=g#6 v=0
799816 On ch=1 n=g#6 v=80
799841 Par ch=1 c=64 v=104
799856 Par ch=1 c=64 v=0
799861 On ch=1 n=b2 v=58
799931 On ch=1 n=b2 v=0
799941 Par ch=1 c=64 v=56
799961 Par ch=1 c=64 v=127
800021 On ch=1 n=g#6 v=0
800246 On ch=1 n=b3 v=59
800246 On ch=1 n=d4 v=51
800281 On ch=1 n=b3 v=0
800296 On ch=1 n=d4 v=0
800481 On ch=1 n=g#5 v=71
800746 On ch=1 n=d5 v=78
800751 On ch=1 n=g#5 v=0
800806 Par ch=1 c=64 v=88
800826 Par ch=1 c=64 v=72
800841 Par ch=1 c=64 v=104
800856 Par ch=1 c=64 v=127
801186 On ch=1 n=c6 v=77
801256 On ch=1 n=c6 v=0
801366 On ch=1 n=c6 v=71
801416 Par ch=1 c=64 v=40
801431 On ch=1 n=f3 v=47
801436 Par ch=1 c=64 v=0
801521 On ch=1 n=f3 v=0
801521 Par ch=1 c=64 v=56
801536 Par ch=1 c=64 v=127
801666 On ch=1 n=d5 v=0
801811 On ch=1 n=g#4 v=35
801816 On ch=1 n=d5 v=35
801836 On ch=1 n=b4 v=27
801886 On ch=1 n=b4 v=0
801886 On ch=1 n=d5 v=0
801911 On ch=1 n=g#4 v=0
802001 On ch=1 n=c6 v=0
802021 On ch=1 n=b5 v=70
802241 On ch=1 n=b5 v=0
802261 On ch=1 n=g5 v=83
802351 Par ch=1 c=64 v=88
802366 Par ch=1 c=64 v=24
802381 Par ch=1 c=64 v=40
802401 Par ch=1 c=64 v=88
802416 Par ch=1 c=64 v=127
802586 On ch=1 n=d6 v=74
802641 On ch=1 n=d6 v=0
802706 On ch=1 n=d6 v=83
802726 On ch=1 n=d#3 v=52
802741 Par ch=1 c=64 v=56
802756 Par ch=1 c=64 v=0
802801 On ch=1 n=d#3 v=0
802821 Par ch=1 c=64 v=127
803091 On ch=1 n=g4 v=53
803091 On ch=1 n=c5 v=54
803131 On ch=1 n=c5 v=0
803136 On ch=1 n=g4 v=0
803196 On ch=1 n=d6 v=0
803226 On ch=1 n=g5 v=0
803266 On ch=1 n=c6 v=85
803406 On ch=1 n=c6 v=0
803451 On ch=1 n=f5 v=87
803726 On ch=1 n=d#6 v=85
803786 On ch=1 n=d#6 v=0
803831 On ch=1 n=d#6 v=89
803841 Par ch=1 c=64 v=72
803856 Par ch=1 c=64 v=0
803866 On ch=1 n=d3 v=59
803891 On ch=1 n=d3 v=0
803941 Par ch=1 c=64 v=104
803961 Par ch=1 c=64 v=127
804186 On ch=1 n=b4 v=58
804191 On ch=1 n=f4 v=51
804201 On ch=1 n=g#4 v=38
804231 On ch=1 n=g#4 v=0
804231 On ch=1 n=f4 v=0
804231 On ch=1 n=b4 v=0
804256 On ch=1 n=d#6 v=0
804286 On ch=1 n=f5 v=0
804341 On ch=1 n=d6 v=86
804486 On ch=1 n=d6 v=0
804531 On ch=1 n=d#5 v=87
804621 On ch=1 n=d#5 v=0
804791 On ch=1 n=f6 v=87
804846 On ch=1 n=f6 v=0
804886 On ch=1 n=f6 v=103
804891 Par ch=1 c=64 v=88
804896 On ch=1 n=c3 v=66
804906 Par ch=1 c=64 v=0
804956 On ch=1 n=c3 v=0
804976 Par ch=1 c=64 v=40
804991 Par ch=1 c=64 v=127
805256 On ch=1 n=c5 v=66
805256 On ch=1 n=g4 v=62
805266 On ch=1 n=d#4 v=48
805296 On ch=1 n=d#4 v=0
805306 On ch=1 n=g4 v=0
805306 On ch=1 n=c5 v=0
805426 On ch=1 n=d#6 v=88
805461 On ch=1 n=f6 v=0
805616 On ch=1 n=d#6 v=0
805626 On ch=1 n=d6 v=82
805891 On ch=1 n=a#6 v=84
805891 On ch=1 n=f6 v=60
805946 On ch=1 n=f6 v=0
805946 On ch=1 n=a#6 v=0
805996 On ch=1 n=a#6 v=90
806021 On ch=1 n=f6 v=68
806026 On ch=1 n=d6 v=56
806026 Par ch=1 c=64 v=24
806036 On ch=1 n=f3 v=63
806046 Par ch=1 c=64 v=0
806051 On ch=1 n=f6 v=0
806051 On ch=1 n=d6 v=0
806071 On ch=1 n=f3 v=0
806131 Par ch=1 c=64 v=127
806321 On ch=1 n=a#6 v=0
806361 On ch=1 n=f4 v=54
806361 On ch=1 n=g#4 v=48
806371 On ch=1 n=d5 v=59
806401 On ch=1 n=f4 v=0
806416 On ch=1 n=d5 v=0
806446 On ch=1 n=g#4 v=0
806516 On ch=1 n=d6 v=0
806531 On ch=1 n=g#6 v=92
806686 On ch=1 n=g#6 v=0
806741 On ch=1 n=c6 v=97
806911 On ch=1 n=c6 v=0
806991 On ch=1 n=g#6 v=90
806991 On ch=1 n=d#6 v=60
807041 On ch=1 n=g#6 v=0
807046 On ch=1 n=d#6 v=0
807101 On ch=1 n=g#6 v=91
807106 On ch=1 n=g3 v=64
807111 On ch=1 n=c6 v=92
807111 Par ch=1 c=64 v=56
807121 On ch=1 n=d#6 v=75
807126 Par ch=1 c=64 v=0
807161 On ch=1 n=g3 v=0
807186 On ch=1 n=c6 v=0
807196 Par ch=1 c=64 v=72
807216 Par ch=1 c=64 v=127
807411 On ch=1 n=g#6 v=0
807461 On ch=1 n=g4 v=64
807466 On ch=1 n=c5 v=62
807526 On ch=1 n=c5 v=0
807536 On ch=1 n=g4 v=0
807541 On ch=1 n=d#6 v=0
807646 On ch=1 n=g6 v=93
807796 On ch=1 n=g6 v=0
807841 On ch=1 n=b5 v=93
808061 On ch=1 n=b5 v=0
808131 On ch=1 n=g6 v=93
808131 On ch=1 n=d6 v=60
808186 On ch=1 n=d6 v=0
808201 On ch=1 n=g6 v=0
808246 On ch=1 n=g6 v=96
808261 Par ch=1 c=64 v=72
808266 On ch=1 n=b5 v=72
808271 On ch=1 n=d6 v=74
808281 Par ch=1 c=64 v=0
808286 On ch=1 n=g3 v=58
808301 On ch=1 n=d6 v=0
808331 On ch=1 n=g3 v=0
808346 Par ch=1 c=64 v=72
808366 Par ch=1 c=64 v=127
808376 On ch=1 n=d6 v=22
808486 On ch=1 n=g6 v=0
808631 On ch=1 n=b4 v=55
808641 On ch=1 n=g4 v=56
808676 On ch=1 n=g4 v=0
808681 On ch=1 n=b4 v=0
808796 On ch=1 n=d6 v=0
808796 On ch=1 n=b5 v=0
808836 On ch=1 n=f6 v=82
808956 On ch=1 n=f6 v=0
809061 On ch=1 n=f5 v=77
809276 On ch=1 n=f5 v=0
809371 On ch=1 n=d#6 v=78
809371 On ch=1 n=g#5 v=55
809426 On ch=1 n=g#5 v=0
809441 On ch=1 n=d#6 v=0
809511 On ch=1 n=d#6 v=81
809536 On ch=1 n=f5 v=58
809536 On ch=1 n=g#5 v=43
809551 Par ch=1 c=64 v=104
809561 On ch=1 n=g2 v=48
809571 On ch=1 n=g3 v=37
809571 Par ch=1 c=64 v=0
809596 On ch=1 n=g2 v=0
809651 Par ch=1 c=64 v=72
809656 On ch=1 n=g3 v=0
809671 Par ch=1 c=64 v=127
809936 On ch=1 n=g#5 v=0
809981 On ch=1 n=b4 v=51
809986 On ch=1 n=f4 v=48
810041 On ch=1 n=f4 v=0
810046 On ch=1 n=b4 v=0
810121 On ch=1 n=d#6 v=0
810221 On ch=1 n=d6 v=71
810246 On ch=1 n=f5 v=0
810291 On ch=1 n=d6 v=0
810541 On ch=1 n=g#6 v=99
810541 On ch=1 n=g#5 v=83
810571 Par ch=1 c=64 v=72
810586 Par ch=1 c=64 v=0
810601 Par ch=1 c=64 v=24
810621 Par ch=1 c=64 v=88
810636 Par ch=1 c=64 v=127
810671 On ch=1 n=g#5 v=0
810691 On ch=1 n=g#6 v=0
810991 On ch=1 n=c7 v=87
810996 On ch=1 n=c6 v=81
811036 On ch=1 n=c6 v=0
811046 On ch=1 n=c7 v=0
811106 On ch=1 n=c7 v=93
811111 On ch=1 n=c6 v=97
811126 Par ch=1 c=64 v=56
811146 On ch=1 n=f3 v=66
811146 Par ch=1 c=64 v=0
811166 On ch=1 n=f4 v=50
811186 On ch=1 n=f3 v=0
811226 Par ch=1 c=64 v=127
811236 On ch=1 n=f4 v=0
811346 On ch=1 n=c7 v=0
811411 On ch=1 n=c6 v=0
811496 On ch=1 n=d5 v=61
811501 On ch=1 n=g#4 v=45
811501 On ch=1 n=b4 v=54
811546 On ch=1 n=d5 v=0
811556 On ch=1 n=b4 v=0
811576 On ch=1 n=g#4 v=0
811651 On ch=1 n=b6 v=96
811656 On ch=1 n=b5 v=84
811721 On ch=1 n=b5 v=0
811721 On ch=1 n=b6 v=0
811856 On ch=1 n=g5 v=90
811861 On ch=1 n=g6 v=102
811911 On ch=1 n=g5 v=0
811926 On ch=1 n=g6 v=0
812181 On ch=1 n=d7 v=96
812181 On ch=1 n=d6 v=89
812231 On ch=1 n=d6 v=0
812241 On ch=1 n=d7 v=0
812286 On ch=1 n=d7 v=103
812286 On ch=1 n=d6 v=103
812291 On ch=1 n=d#3 v=62
812296 Par ch=1 c=64 v=24
812306 On ch=1 n=d#4 v=68
812316 Par ch=1 c=64 v=0
812351 On ch=1 n=d#3 v=0
812361 On ch=1 n=d#4 v=0
812381 Par ch=1 c=64 v=127
812481 On ch=1 n=d7 v=0
812541 On ch=1 n=d6 v=0
812631 On ch=1 n=g4 v=74
812631 On ch=1 n=c5 v=72
812676 On ch=1 n=c5 v=0
812696 On ch=1 n=g4 v=0
812781 On ch=1 n=c7 v=90
812786 On ch=1 n=c6 v=92
812846 On ch=1 n=c6 v=0
812851 On ch=1 n=c7 v=0
812971 On ch=1 n=f5 v=93
812976 On ch=1 n=f6 v=109
813021 On ch=1 n=f6 v=0
813031 On ch=1 n=f5 v=0
813276 On ch=1 n=d#7 v=95
813276 On ch=1 n=d#6 v=95
813321 On ch=1 n=d#7 v=0
813326 On ch=1 n=d#6 v=0
813346 Par ch=1 c=64 v=88
813361 On ch=1 n=d#7 v=100
813361 On ch=1 n=d#6 v=100
813366 Par ch=1 c=64 v=0
813371 On ch=1 n=d3 v=66
813381 On ch=1 n=d4 v=66
813406 On ch=1 n=d3 v=0
813431 Par ch=1 c=64 v=104
813451 On ch=1 n=d4 v=0
813451 Par ch=1 c=64 v=127
813531 On ch=1 n=d#7 v=0
813561 On ch=1 n=d7 v=42
813601 On ch=1 n=d7 v=0
813606 On ch=1 n=d#6 v=0
813686 On ch=1 n=b4 v=75
813691 On ch=1 n=f4 v=68
813691 On ch=1 n=g#4 v=60
813746 On ch=1 n=b4 v=0
813751 On ch=1 n=g#4 v=0
813761 On ch=1 n=f4 v=0
813851 On ch=1 n=d6 v=92
813851 On ch=1 n=d7 v=93
813901 On ch=1 n=d7 v=0
813906 On ch=1 n=d6 v=0
814041 On ch=1 n=d#5 v=93
814041 On ch=1 n=d#6 v=97
814091 On ch=1 n=d#6 v=0
814091 On ch=1 n=d#5 v=0
814326 On ch=1 n=f7 v=107
814326 On ch=1 n=f6 v=103
814366 On ch=1 n=f7 v=0
814376 On ch=1 n=f6 v=0
814421 On ch=1 n=f7 v=84
814426 On ch=1 n=f6 v=93
814431 Par ch=1 c=64 v=88
814441 On ch=1 n=c3 v=60
814441 On ch=1 n=c4 v=79
814446 Par ch=1 c=64 v=0
814466 On ch=1 n=c3 v=0
814501 On ch=1 n=c4 v=0
814501 Par ch=1 c=64 v=72
814516 Par ch=1 c=64 v=127
814586 On ch=1 n=f7 v=0
814676 On ch=1 n=f6 v=0
814771 On ch=1 n=c5 v=82
814776 On ch=1 n=g4 v=72
814776 On ch=1 n=d#4 v=65
814831 On ch=1 n=c5 v=0
814836 On ch=1 n=d#4 v=0
814841 On ch=1 n=g4 v=0
814951 On ch=1 n=d#7 v=95
814951 On ch=1 n=d#6 v=95
815026 On ch=1 n=d#6 v=0
815076 On ch=1 n=d#7 v=0
815191 On ch=1 n=d6 v=93
815191 On ch=1 n=d7 v=99
815256 On ch=1 n=d6 v=0
815286 On ch=1 n=d7 v=0
815526 On ch=1 n=a#7 v=99
815526 On ch=1 n=a#6 v=97
815566 On ch=1 n=a#7 v=0
815571 On ch=1 n=a#6 v=0
815636 On ch=1 n=a#7 v=93
815636 On ch=1 n=a#6 v=86
815636 Par ch=1 c=64 v=24
815641 On ch=1 n=f3 v=60
815656 On ch=1 n=f4 v=66
815656 Par ch=1 c=64 v=0
815676 On ch=1 n=f3 v=0
815721 On ch=1 n=f4 v=0
815721 Par ch=1 c=64 v=56
815736 Par ch=1 c=64 v=127
815901 On ch=1 n=a#7 v=0
815951 On ch=1 n=a#6 v=0
815976 On ch=1 n=f4 v=64
815976 On ch=1 n=g#4 v=58
815981 On ch=1 n=d5 v=70
816026 On ch=1 n=f4 v=0
816031 On ch=1 n=d5 v=0
816061 On ch=1 n=g#4 v=0
816136 On ch=1 n=g#7 v=95
816141 On ch=1 n=g#6 v=88
816201 On ch=1 n=g#6 v=0
816201 On ch=1 n=g#7 v=0
816331 On ch=1 n=c7 v=99
816331 On ch=1 n=c6 v=96
816371 On ch=1 n=c6 v=0
816381 On ch=1 n=c7 v=0
816581 On ch=1 n=g#7 v=88
816586 On ch=1 n=g#6 v=79
816616 On ch=1 n=g#6 v=0
816616 On ch=1 n=g#7 v=0
816676 On ch=1 n=g#7 v=98
816676 On ch=1 n=g#6 v=90
816701 On ch=1 n=g3 v=70
816706 Par ch=1 c=64 v=104
816711 On ch=1 n=g4 v=62
816721 Par ch=1 c=64 v=0
816736 On ch=1 n=g3 v=0
816781 On ch=1 n=g4 v=0
816806 Par ch=1 c=64 v=127
816931 On ch=1 n=g#6 v=0
816956 On ch=1 n=g#7 v=0
817036 On ch=1 n=c5 v=75
817036 On ch=1 n=g4 v=66
817036 On ch=1 n=d#4 v=61
817096 On ch=1 n=g4 v=0
817096 On ch=1 n=c5 v=0
817101 On ch=1 n=d#4 v=0
817186 On ch=1 n=g6 v=85
817186 On ch=1 n=g7 v=93
817241 On ch=1 n=g7 v=0
817251 On ch=1 n=g6 v=0
817396 On ch=1 n=b6 v=97
817396 On ch=1 n=b5 v=87
817436 On ch=1 n=b5 v=0
817451 On ch=1 n=b6 v=0
817721 On ch=1 n=d#6 v=91
817721 On ch=1 n=d#7 v=93
817766 On ch=1 n=d#7 v=0
817771 On ch=1 n=d#6 v=0
817841 On ch=1 n=d#7 v=89
817841 On ch=1 n=d#6 v=84
817876 Par ch=1 c=64 v=24
817881 On ch=1 n=g2 v=51
817886 On ch=1 n=g3 v=63
817891 Par ch=1 c=64 v=0
817911 On ch=1 n=g2 v=0
817956 On ch=1 n=g3 v=0
817976 Par ch=1 c=64 v=127
818146 On ch=1 n=d#6 v=0
818176 On ch=1 n=d#7 v=0
818246 On ch=1 n=f4 v=63
818251 On ch=1 n=d5 v=66
818266 On ch=1 n=b4 v=57
818296 On ch=1 n=b4 v=0
818296 On ch=1 n=f4 v=0
818321 On ch=1 n=d5 v=0
818411 On ch=1 n=d7 v=88
818421 On ch=1 n=d6 v=83
818491 On ch=1 n=d6 v=0
818491 On ch=1 n=d7 v=0
818656 On ch=1 n=g6 v=90
818656 On ch=1 n=g5 v=79
818696 On ch=1 n=g5 v=0
818716 On ch=1 n=g6 v=0
818991 On ch=1 n=d7 v=88
819001 On ch=1 n=d6 v=83
819041 On ch=1 n=d6 v=0
819056 On ch=1 n=d7 v=0
819106 On ch=1 n=d7 v=92
819111 On ch=1 n=d6 v=76
819126 Par ch=1 c=64 v=104
819136 On ch=1 n=c3 v=59
819146 On ch=1 n=c4 v=63
819146 Par ch=1 c=64 v=0
819166 On ch=1 n=c3 v=0
819221 On ch=1 n=c4 v=0
819231 Par ch=1 c=64 v=56
819246 Par ch=1 c=64 v=127
819371 On ch=1 n=d7 v=0
819451 On ch=1 n=d6 v=0
819536 On ch=1 n=g4 v=50
819536 On ch=1 n=c5 v=51
819551 On ch=1 n=d#4 v=36
819616 On ch=1 n=g4 v=0
819621 On ch=1 n=d#4 v=0
819621 On ch=1 n=c5 v=0
819776 On ch=1 n=c7 v=70
819796 On ch=1 n=c6 v=56
819846 On ch=1 n=c7 v=0
819891 On ch=1 n=c6 v=0
820176 On ch=1 n=g#5 v=70
820226 Par ch=1 c=64 v=88
820246 Par ch=1 c=64 v=0
820366 Par ch=1 c=64 v=127
820586 On ch=1 n=c6 v=63
820656 On ch=1 n=c6 v=0
820731 On ch=1 n=c6 v=70
820786 On ch=1 n=d3 v=49
820791 Par ch=1 c=64 v=40
820806 Par ch=1 c=64 v=0
820821 Par ch=1 c=64 v=24
820831 On ch=1 n=d3 v=0
820841 Par ch=1 c=64 v=88
820856 Par ch=1 c=64 v=127
821146 On ch=1 n=d4 v=36
821161 On ch=1 n=f4 v=43
821191 On ch=1 n=d4 v=0
821201 On ch=1 n=f4 v=0
821286 On ch=1 n=c6 v=0
821326 On ch=1 n=a#5 v=61
821386 On ch=1 n=g#5 v=0
821516 On ch=1 n=a#5 v=0
821541 On ch=1 n=f5 v=57
821641 On ch=1 n=f5 v=0
821841 On ch=1 n=g#6 v=85
821911 On ch=1 n=g#6 v=0
821951 On ch=1 n=g#6 v=83
821991 On ch=1 n=d#3 v=48
821991 Par ch=1 c=64 v=88
822011 Par ch=1 c=64 v=0
822076 On ch=1 n=d#3 v=0
822076 Par ch=1 c=64 v=24
822091 Par ch=1 c=64 v=127
822336 On ch=1 n=f4 v=45
822346 On ch=1 n=d#4 v=40
822376 On ch=1 n=d#4 v=0
822376 On ch=1 n=f4 v=0
822506 On ch=1 n=c6 v=78
822516 On ch=1 n=g#6 v=0
822686 On ch=1 n=c6 v=0
822706 On ch=1 n=g#5 v=83
822986 On ch=1 n=c6 v=79
823051 On ch=1 n=c6 v=0
823101 On ch=1 n=c6 v=88
823141 Par ch=1 c=64 v=72
823161 Par ch=1 c=64 v=0
823181 On ch=1 n=d3 v=46
823221 On ch=1 n=d3 v=0
823246 Par ch=1 c=64 v=40
823261 Par ch=1 c=64 v=127
823461 On ch=1 n=f4 v=59
823466 On ch=1 n=d4 v=62
823496 On ch=1 n=d4 v=0
823496 On ch=1 n=f4 v=0
823496 On ch=1 n=g#5 v=0
823651 On ch=1 n=c6 v=0
823661 On ch=1 n=a#5 v=71
823851 On ch=1 n=f5 v=84
823856 On ch=1 n=a#5 v=0
823941 On ch=1 n=f5 v=0
824141 On ch=1 n=g#6 v=92
824196 On ch=1 n=g#6 v=0
824236 On ch=1 n=g#6 v=91
824261 Par ch=1 c=64 v=104
824276 On ch=1 n=d#3 v=55
824281 Par ch=1 c=64 v=24
824296 Par ch=1 c=64 v=0
824371 On ch=1 n=d#3 v=0
824381 Par ch=1 c=64 v=104
824396 Par ch=1 c=64 v=127
824611 On ch=1 n=f4 v=61
824616 On ch=1 n=d#4 v=54
824646 On ch=1 n=d#4 v=0
824646 On ch=1 n=f4 v=0
824786 On ch=1 n=c6 v=83
824806 On ch=1 n=g#6 v=0
824946 On ch=1 n=c6 v=0
824966 On ch=1 n=g#5 v=81
825221 On ch=1 n=c6 v=78
825286 On ch=1 n=c6 v=0
825336 On ch=1 n=c6 v=94
825366 On ch=1 n=d3 v=64
825366 Par ch=1 c=64 v=56
825381 Par ch=1 c=64 v=0
825431 On ch=1 n=d3 v=0
825466 Par ch=1 c=64 v=56
825481 Par ch=1 c=64 v=127
825656 On ch=1 n=g#5 v=0
825681 On ch=1 n=d4 v=60
825686 On ch=1 n=f4 v=53
825721 On ch=1 n=f4 v=0
825736 On ch=1 n=d4 v=0
825851 On ch=1 n=c6 v=0
825861 On ch=1 n=a#5 v=82
826051 On ch=1 n=a#5 v=0
826051 On ch=1 n=f5 v=90
826146 On ch=1 n=f5 v=0
826341 On ch=1 n=g#6 v=92
826391 On ch=1 n=g#6 v=0
826441 On ch=1 n=g#6 v=79
826461 On ch=1 n=c#3 v=49
826466 Par ch=1 c=64 v=104
826481 Par ch=1 c=64 v=24
826496 Par ch=1 c=64 v=0
826551 On ch=1 n=c#3 v=0
826586 Par ch=1 c=64 v=127
826666 On ch=1 n=g#6 v=0
826796 On ch=1 n=e4 v=62
826796 On ch=1 n=c#4 v=48
826831 On ch=1 n=c#4 v=0
826831 On ch=1 n=e4 v=0
826951 On ch=1 n=g#5 v=81
827116 On ch=1 n=g#5 v=0
827141 On ch=1 n=e5 v=97
827231 On ch=1 n=e5 v=0
827441 On ch=1 n=g#6 v=95
827501 On ch=1 n=g#6 v=0
827551 On ch=1 n=g#6 v=89
827581 On ch=1 n=c3 v=63
827581 Par ch=1 c=64 v=24
827601 Par ch=1 c=64 v=0
827641 On ch=1 n=c3 v=0
827666 Par ch=1 c=64 v=88
827686 Par ch=1 c=64 v=127
827721 On ch=1 n=g#6 v=0
827896 On ch=1 n=d#4 v=68
827901 On ch=1 n=c4 v=66
827941 On ch=1 n=c4 v=0
827951 On ch=1 n=d#4 v=0
828076 On ch=1 n=g#5 v=79
828281 On ch=1 n=g#5 v=0
828286 On ch=1 n=d#5 v=90
828361 On ch=1 n=d#5 v=0
828596 On ch=1 n=g#6 v=92
828656 On ch=1 n=g#6 v=0
828721 On ch=1 n=g#6 v=85
828751 Par ch=1 c=64 v=56
828771 On ch=1 n=b2 v=55
828771 Par ch=1 c=64 v=0
828851 On ch=1 n=b2 v=0
828856 Par ch=1 c=64 v=72
828871 Par ch=1 c=64 v=127
828926 On ch=1 n=g#6 v=0
829121 On ch=1 n=d4 v=66
829146 On ch=1 n=b3 v=41
829176 On ch=1 n=b3 v=0
829191 On ch=1 n=d4 v=0
829341 On ch=1 n=g#5 v=73
829576 On ch=1 n=d5 v=76
829666 Par ch=1 c=64 v=24
829686 Par ch=1 c=64 v=0
829716 Par ch=1 c=64 v=24
829736 Par ch=1 c=64 v=104
829751 Par ch=1 c=64 v=127
829981 On ch=1 n=c6 v=85
830071 On ch=1 n=c6 v=0
830146 On ch=1 n=c6 v=71
830226 Par ch=1 c=64 v=56
830231 On ch=1 n=f3 v=31
830246 Par ch=1 c=64 v=0
830271 On ch=1 n=f3 v=0
830331 Par ch=1 c=64 v=88
830346 Par ch=1 c=64 v=127
830451 On ch=1 n=d5 v=0
830591 On ch=1 n=d5 v=59
830601 On ch=1 n=g#4 v=39
830601 On ch=1 n=b4 v=43
830606 On ch=1 n=g#5 v=0
830641 On ch=1 n=b4 v=0
830671 On ch=1 n=g#4 v=0
830671 On ch=1 n=d5 v=0
830816 On ch=1 n=c6 v=0
830821 On ch=1 n=b5 v=80
831056 On ch=1 n=b5 v=0
831061 On ch=1 n=g5 v=83
831361 On ch=1 n=d6 v=84
831421 On ch=1 n=d6 v=0
831471 On ch=1 n=d6 v=89
831496 Par ch=1 c=64 v=72
831511 On ch=1 n=d#3 v=56
831511 Par ch=1 c=64 v=0
831586 On ch=1 n=d#3 v=0
831601 Par ch=1 c=64 v=56
831616 Par ch=1 c=64 v=127
831856 On ch=1 n=g4 v=52
831861 On ch=1 n=c5 v=57
831896 On ch=1 n=c5 v=0
831901 On ch=1 n=g4 v=0
831991 On ch=1 n=g5 v=0
832006 On ch=1 n=d6 v=0
832006 On ch=1 n=c6 v=86
832191 On ch=1 n=c6 v=0
832201 On ch=1 n=f5 v=88
832471 On ch=1 n=d#6 v=85
832531 On ch=1 n=d#6 v=0
832581 Par ch=1 c=64 v=104
832586 On ch=1 n=d#6 v=86
832601 Par ch=1 c=64 v=0
832621 On ch=1 n=d3 v=56
832651 On ch=1 n=d3 v=0
832701 Par ch=1 c=64 v=72
832716 Par ch=1 c=64 v=127
832921 On ch=1 n=b4 v=67
832921 On ch=1 n=g#4 v=51
832926 On ch=1 n=f4 v=53
832961 On ch=1 n=f4 v=0
832966 On ch=1 n=g#4 v=0
832966 On ch=1 n=b4 v=0
832976 On ch=1 n=d#6 v=0
833001 On ch=1 n=f5 v=0
833086 On ch=1 n=d6 v=87
833231 On ch=1 n=d6 v=0
833281 On ch=1 n=d#5 v=91
833366 On ch=1 n=d#5 v=0
833546 On ch=1 n=f6 v=93
833596 On ch=1 n=f6 v=0
833646 On ch=1 n=f6 v=102
833651 Par ch=1 c=64 v=72
833666 On ch=1 n=c3 v=65
833666 Par ch=1 c=64 v=0
833706 On ch=1 n=c3 v=0
833751 Par ch=1 c=64 v=72
833771 Par ch=1 c=64 v=127
833981 On ch=1 n=d#4 v=61
833986 On ch=1 n=g4 v=63
833986 On ch=1 n=c5 v=68
834026 On ch=1 n=g4 v=0
834031 On ch=1 n=c5 v=0
834036 On ch=1 n=d#4 v=0
834156 On ch=1 n=d#6 v=92
834171 On ch=1 n=f6 v=0
834321 On ch=1 n=d#6 v=0
834346 On ch=1 n=d6 v=97
834626 On ch=1 n=a#6 v=87
834626 On ch=1 n=f6 v=70
834671 On ch=1 n=d6 v=0
834676 On ch=1 n=a#6 v=0
834706 On ch=1 n=f6 v=0
834716 Par ch=1 c=64 v=88
834731 On ch=1 n=a#6 v=92
834731 Par ch=1 c=64 v=0
834741 On ch=1 n=d6 v=82
834751 On ch=1 n=f6 v=84
834766 On ch=1 n=f3 v=66
834816 On ch=1 n=f3 v=0
834856 Par ch=1 c=64 v=127
834946 On ch=1 n=f6 v=0
835046 On ch=1 n=a#6 v=0
835091 On ch=1 n=d5 v=62
835091 On ch=1 n=g#4 v=49
835106 On ch=1 n=f4 v=37
835131 On ch=1 n=d5 v=0
835141 On ch=1 n=f4 v=0
835171 On ch=1 n=g#4 v=0
835251 On ch=1 n=g#6 v=91
835331 On ch=1 n=d6 v=0
835396 On ch=1 n=g#6 v=0
835451 On ch=1 n=c6 v=94
835596 On ch=1 n=c6 v=0
835711 On ch=1 n=g#6 v=82
835711 On ch=1 n=d#6 v=70
835756 On ch=1 n=g#6 v=0
835791 On ch=1 n=d#6 v=0
835801 Par ch=1 c=64 v=88
835806 On ch=1 n=g#6 v=99
835806 On ch=1 n=g3 v=64
835821 On ch=1 n=c6 v=93
835821 Par ch=1 c=64 v=0
835826 On ch=1 n=d#6 v=77
835841 On ch=1 n=g3 v=0
835886 Par ch=1 c=64 v=72
835906 Par ch=1 c=64 v=127
836071 On ch=1 n=g#6 v=0
836151 On ch=1 n=g4 v=66
836151 On ch=1 n=c5 v=64
836201 On ch=1 n=d#6 v=0
836206 On ch=1 n=c5 v=0
836216 On ch=1 n=g4 v=0
836266 On ch=1 n=c6 v=0
836321 On ch=1 n=g6 v=93
836446 On ch=1 n=g6 v=0
836516 On ch=1 n=b5 v=90
836661 On ch=1 n=b5 v=0
836776 On ch=1 n=g6 v=88
836776 On ch=1 n=d6 v=70
836831 On ch=1 n=g6 v=0
836836 On ch=1 n=d6 v=0
836881 On ch=1 n=g6 v=96
836896 On ch=1 n=b5 v=87
836901 On ch=1 n=d6 v=84
836906 Par ch=1 c=64 v=24
836911 On ch=1 n=g3 v=64
836921 Par ch=1 c=64 v=0
836941 On ch=1 n=g3 v=0
836991 Par ch=1 c=64 v=72
837006 Par ch=1 c=64 v=127
837081 On ch=1 n=b5 v=0
837086 On ch=1 n=d6 v=0
837121 On ch=1 n=g6 v=0
837241 On ch=1 n=g4 v=64
837246 On ch=1 n=b4 v=65
837291 On ch=1 n=b4 v=0
837301 On ch=1 n=g4 v=0
837411 On ch=1 n=f6 v=84
837521 On ch=1 n=f6 v=0
837626 On ch=1 n=f5 v=88
837821 On ch=1 n=f5 v=0
837936 On ch=1 n=d#6 v=88
837936 On ch=1 n=g#5 v=65
837996 On ch=1 n=g#5 v=0
838001 On ch=1 n=d#6 v=0
838071 On ch=1 n=d#6 v=86
838081 On ch=1 n=g#5 v=73
838086 On ch=1 n=f5 v=76
838111 On ch=1 n=g2 v=63
838126 Par ch=1 c=64 v=0
838186 On ch=1 n=g2 v=0
838211 Par ch=1 c=64 v=56
838226 Par ch=1 c=64 v=127
838486 On ch=1 n=d#6 v=0
838511 On ch=1 n=b4 v=67
838511 On ch=1 n=f4 v=70
838576 On ch=1 n=f4 v=0
838576 On ch=1 n=b4 v=0
838641 On ch=1 n=f5 v=0
838686 On ch=1 n=g#5 v=0
838731 On ch=1 n=d6 v=92
838801 On ch=1 n=d6 v=0
839066 On ch=1 n=g#5 v=90
839071 On ch=1 n=g#6 v=106
839071 Par ch=1 c=64 v=104
839091 Par ch=1 c=64 v=0
839131 On ch=1 n=g#5 v=0
839141 Par ch=1 c=64 v=56
839156 Par ch=1 c=64 v=127
839161 On ch=1 n=g#6 v=0
839496 On ch=1 n=c7 v=94
839501 On ch=1 n=c6 v=92
839541 On ch=1 n=c6 v=0
839551 On ch=1 n=c7 v=0
839606 On ch=1 n=c7 v=105
839611 On ch=1 n=c6 v=97
839616 Par ch=1 c=64 v=88
839631 Par ch=1 c=64 v=0
839676 On ch=1 n=f3 v=72
839681 Par ch=1 c=64 v=72
839691 On ch=1 n=f4 v=62
839701 Par ch=1 c=64 v=127
839731 On ch=1 n=f3 v=0
839761 On ch=1 n=f4 v=0
839841 On ch=1 n=c7 v=0
839926 On ch=1 n=c6 v=0
840006 On ch=1 n=g#4 v=54
840006 On ch=1 n=d5 v=67
840011 On ch=1 n=b4 v=59
840051 On ch=1 n=b4 v=0
840066 On ch=1 n=d5 v=0
840081 On ch=1 n=g#4 v=0
840156 On ch=1 n=b6 v=92
840161 On ch=1 n=b5 v=85
840226 On ch=1 n=b5 v=0
840226 On ch=1 n=b6 v=0
840346 On ch=1 n=g5 v=94
840346 On ch=1 n=g6 v=109
840386 On ch=1 n=g5 v=0
840391 On ch=1 n=g6 v=0
840581 On ch=1 n=d6 v=94
840586 On ch=1 n=d7 v=96
840616 On ch=1 n=d7 v=0
840621 On ch=1 n=d6 v=0
840686 On ch=1 n=d7 v=103
840691 On ch=1 n=d6 v=110
840701 On ch=1 n=d#3 v=65
840701 Par ch=1 c=64 v=24
840716 On ch=1 n=d#4 v=70
840716 Par ch=1 c=64 v=0
840756 On ch=1 n=d#3 v=0
840771 On ch=1 n=d#4 v=0
840771 Par ch=1 c=64 v=104
840786 Par ch=1 c=64 v=127
840936 On ch=1 n=d6 v=0
840936 On ch=1 n=d7 v=0
841026 On ch=1 n=g4 v=74
841031 On ch=1 n=c5 v=74
841066 On ch=1 n=c5 v=0
841081 On ch=1 n=g4 v=0
841176 On ch=1 n=c7 v=92
841181 On ch=1 n=c6 v=89
841231 On ch=1 n=c7 v=0
841236 On ch=1 n=c6 v=0
841361 On ch=1 n=f5 v=93
841366 On ch=1 n=f6 v=107
841406 On ch=1 n=f5 v=0
841416 On ch=1 n=f6 v=0
841631 On ch=1 n=d#6 v=90
841636 On ch=1 n=d#7 v=78
841661 On ch=1 n=d#7 v=0
841661 On ch=1 n=d#6 v=0
841716 Par ch=1 c=64 v=104
841721 On ch=1 n=d#6 v=103
841721 On ch=1 n=d#7 v=18
841731 Par ch=1 c=64 v=0
841751 On ch=1 n=d3 v=69
841761 On ch=1 n=d4 v=76
841781 On ch=1 n=d3 v=0
841821 On ch=1 n=d4 v=0
841821 Par ch=1 c=64 v=127
841941 On ch=1 n=d#6 v=0
841961 On ch=1 n=d#7 v=0
842041 On ch=1 n=b4 v=76
842051 On ch=1 n=f4 v=67
842051 On ch=1 n=g#4 v=51
842081 On ch=1 n=g#4 v=0
842091 On ch=1 n=f4 v=0
842101 On ch=1 n=b4 v=0
842186 On ch=1 n=d7 v=96
842186 On ch=1 n=d6 v=92
842236 On ch=1 n=d6 v=0
842246 On ch=1 n=d7 v=0
842366 On ch=1 n=d#5 v=96
842371 On ch=1 n=d#6 v=102
842406 On ch=1 n=d#5 v=0
842421 On ch=1 n=d#6 v=0
842601 On ch=1 n=f6 v=93
842606 On ch=1 n=f7 v=92
842631 On ch=1 n=f6 v=0
842636 On ch=1 n=f7 v=0
842696 On ch=1 n=f7 v=82
842701 On ch=1 n=f6 v=109
842716 On ch=1 n=c3 v=67
842716 Par ch=1 c=64 v=72
842731 On ch=1 n=c4 v=78
842736 Par ch=1 c=64 v=0
842746 On ch=1 n=c3 v=0
842786 On ch=1 n=c4 v=0
842801 Par ch=1 c=64 v=127
842901 On ch=1 n=f7 v=0
842976 On ch=1 n=f6 v=0
843036 On ch=1 n=d#4 v=67
843041 On ch=1 n=g4 v=70
843046 On ch=1 n=c5 v=82
843086 On ch=1 n=d#4 v=0
843091 On ch=1 n=c5 v=0
843106 On ch=1 n=g4 v=0
843196 On ch=1 n=d#7 v=92
843196 On ch=1 n=d#6 v=97
843276 On ch=1 n=d#6 v=0
843291 On ch=1 n=d#7 v=0
843391 On ch=1 n=d6 v=90
843391 On ch=1 n=d7 v=102
843436 On ch=1 n=d6 v=0
843466 On ch=1 n=d7 v=0
843671 On ch=1 n=a#7 v=78
843676 On ch=1 n=a#6 v=89
843701 On ch=1 n=a#7 v=0
843711 On ch=1 n=a#6 v=0
843781 On ch=1 n=a#7 v=103
843786 On ch=1 n=a#6 v=99
843801 Par ch=1 c=64 v=88
843811 On ch=1 n=f3 v=69
843821 Par ch=1 c=64 v=0
843826 On ch=1 n=f4 v=74
843856 On ch=1 n=f3 v=0
843886 On ch=1 n=f4 v=0
843906 Par ch=1 c=64 v=127
844036 On ch=1 n=a#7 v=0
844116 On ch=1 n=a#6 v=0
844141 On ch=1 n=d5 v=71
844146 On ch=1 n=g#4 v=62
844151 On ch=1 n=f4 v=59
844191 On ch=1 n=f4 v=0
844211 On ch=1 n=d5 v=0
844226 On ch=1 n=g#4 v=0
844306 On ch=1 n=g#7 v=97
844311 On ch=1 n=g#6 v=92
844361 On ch=1 n=g#7 v=0
844366 On ch=1 n=g#6 v=0
844496 On ch=1 n=c6 v=97
844496 On ch=1 n=c7 v=102
844526 On ch=1 n=c6 v=0
844551 On ch=1 n=c7 v=0
844756 On ch=1 n=g#6 v=99
844761 On ch=1 n=g#7 v=97
844801 On ch=1 n=g#7 v=0
844801 On ch=1 n=g#6 v=0
844866 On ch=1 n=g#7 v=95
844871 On ch=1 n=g#6 v=99
844886 Par ch=1 c=64 v=88
844891 On ch=1 n=g3 v=72
844906 On ch=1 n=g4 v=66
844906 Par ch=1 c=64 v=0
844941 On ch=1 n=g3 v=0
844981 On ch=1 n=g4 v=0
844986 Par ch=1 c=64 v=104
845006 Par ch=1 c=64 v=127
845176 On ch=1 n=g#6 v=0
845201 On ch=1 n=g#7 v=0
845236 On ch=1 n=g4 v=72
845241 On ch=1 n=c5 v=80
845246 On ch=1 n=d#4 v=64
845301 On ch=1 n=c5 v=0
845306 On ch=1 n=d#4 v=0
845316 On ch=1 n=g4 v=0
845421 On ch=1 n=g7 v=94
845421 On ch=1 n=g6 v=88
845486 On ch=1 n=g7 v=0
845491 On ch=1 n=g6 v=0
845646 On ch=1 n=b6 v=97
845651 On ch=1 n=b5 v=88
845691 On ch=1 n=b6 v=0
845696 On ch=1 n=b5 v=0
846001 On ch=1 n=d#7 v=91
846001 On ch=1 n=d#6 v=93
846051 On ch=1 n=d#6 v=0
846056 On ch=1 n=d#7 v=0
846131 On ch=1 n=d#7 v=92
846141 On ch=1 n=d#6 v=96
846161 On ch=1 n=g2 v=70
846176 On ch=1 n=g3 v=73
846176 Par ch=1 c=64 v=0
846196 On ch=1 n=g2 v=0
846236 On ch=1 n=g3 v=0
846276 Par ch=1 c=64 v=127
846546 On ch=1 n=d#6 v=0
846576 On ch=1 n=f4 v=69
846586 On ch=1 n=d#7 v=0
846586 On ch=1 n=d5 v=72
846586 On ch=1 n=b4 v=66
846646 On ch=1 n=b4 v=0
846646 On ch=1 n=f4 v=0
846651 On ch=1 n=d5 v=0
846791 On ch=1 n=d7 v=87
846796 On ch=1 n=d6 v=85
846866 On ch=1 n=d7 v=0
846871 On ch=1 n=d6 v=0
847076 On ch=1 n=g5 v=86
847081 On ch=1 n=g6 v=92
847141 On ch=1 n=g5 v=0
847176 On ch=1 n=g6 v=0
847486 On ch=1 n=d7 v=88
847491 On ch=1 n=d6 v=84
847541 On ch=1 n=d7 v=0
847546 On ch=1 n=d6 v=0
847626 On ch=1 n=d7 v=93
847631 On ch=1 n=d6 v=88
847686 On ch=1 n=c3 v=70
847691 On ch=1 n=c4 v=77
847716 Par ch=1 c=64 v=56
847736 Par ch=1 c=64 v=0
847801 On ch=1 n=c3 v=0
847821 Par ch=1 c=64 v=72
847836 On ch=1 n=c4 v=0
847836 Par ch=1 c=64 v=127
848196 On ch=1 n=d#4 v=65
848196 On ch=1 n=c5 v=80
848256 On ch=1 n=d#4 v=0
848266 On ch=1 n=c5 v=0
848306 On ch=1 n=d7 v=0
848336 On ch=1 n=d6 v=0
848526 On ch=1 n=c7 v=83
848541 On ch=1 n=c6 v=79
848601 On ch=1 n=c6 v=0
848621 On ch=1 n=c7 v=0
849261 Par ch=1 c=64 v=104
849276 Par ch=1 c=64 v=72
849291 Par ch=1 c=64 v=40
849311 Par ch=1 c=64 v=0
851041 Par ch=1 c=64 v=24
851061 Par ch=1 c=64 v=56
851081 Par ch=1 c=64 v=88
851101 Par ch=1 c=64 v=104
851116 Par ch=1 c=64 v=127
851391 On ch=1 n=g#3 v=39
851701 On ch=1 n=g#3 v=0
851721 On ch=1 n=d#4 v=56
851901 On ch=1 n=d#4 v=0
851951 On ch=1 n=g#4 v=53
852171 On ch=1 n=g#4 v=0
852191 On ch=1 n=c5 v=63
852356 On ch=1 n=c5 v=0
852436 On ch=1 n=d#5 v=62
852606 On ch=1 n=d#5 v=0
852666 On ch=1 n=g#5 v=60
852881 On ch=1 n=g#5 v=0
852921 On ch=1 n=c6 v=65
853136 On ch=1 n=c6 v=0
853136 On ch=1 n=g#5 v=49
853396 On ch=1 n=d#5 v=48
853396 On ch=1 n=d#6 v=84
853421 On ch=1 n=g#5 v=0
853521 On ch=1 n=d#5 v=0
853701 On ch=1 n=c5 v=45
853846 On ch=1 n=c5 v=0
853936 On ch=1 n=g#4 v=42
853956 On ch=1 n=d#6 v=0
854256 On ch=1 n=d#6 v=75
854281 On ch=1 n=g#4 v=0
854296 On ch=1 n=d#4 v=47
854366 On ch=1 n=d#4 v=0
854426 On ch=1 n=d#6 v=0
854706 On ch=1 n=d#6 v=69
854751 On ch=1 n=f#3 v=57
854776 Par ch=1 c=64 v=104
854796 Par ch=1 c=64 v=0
854931 Par ch=1 c=64 v=88
854951 Par ch=1 c=64 v=127
854976 On ch=1 n=d#4 v=48
855016 On ch=1 n=f#3 v=0
855221 On ch=1 n=f#4 v=53
855231 On ch=1 n=d#4 v=0
855286 On ch=1 n=f#4 v=0
855406 On ch=1 n=d#6 v=0
855421 On ch=1 n=f6 v=79
855451 On ch=1 n=a#4 v=44
855676 On ch=1 n=a#4 v=0
855691 On ch=1 n=d#5 v=48
855701 On ch=1 n=d#6 v=76
855706 On ch=1 n=f6 v=0
855846 On ch=1 n=d#5 v=0
855936 On ch=1 n=f#5 v=46
856141 On ch=1 n=f#5 v=0
856161 On ch=1 n=a#5 v=50
856346 On ch=1 n=d#6 v=0
856401 On ch=1 n=f#5 v=43
856416 On ch=1 n=a#5 v=0
856616 On ch=1 n=f#5 v=0
856626 On ch=1 n=d#6 v=81
856626 On ch=1 n=d#5 v=53
856856 On ch=1 n=a#4 v=39
856886 On ch=1 n=d#5 v=0
856941 On ch=1 n=a#4 v=0
857096 On ch=1 n=f6 v=86
857131 On ch=1 n=f#4 v=46
857141 On ch=1 n=d#6 v=0
857326 On ch=1 n=f#4 v=0
857341 On ch=1 n=d#4 v=53
857521 On ch=1 n=f6 v=0
857646 On ch=1 n=f#6 v=77
857671 On ch=1 n=d#4 v=0
857716 On ch=1 n=f3 v=58
857761 Par ch=1 c=64 v=40
857776 Par ch=1 c=64 v=0
857896 Par ch=1 c=64 v=88
857916 Par ch=1 c=64 v=127
857951 On ch=1 n=d#4 v=48
858086 On ch=1 n=f3 v=0
858096 On ch=1 n=f#6 v=0
858186 On ch=1 n=f6 v=83
858206 On ch=1 n=d#4 v=0
858206 On ch=1 n=f4 v=65
858251 On ch=1 n=f4 v=0
858436 On ch=1 n=a4 v=50
858606 On ch=1 n=a4 v=0
858666 On ch=1 n=f6 v=0
858676 On ch=1 n=d#6 v=77
858676 On ch=1 n=c5 v=51
858816 On ch=1 n=c5 v=0
858881 On ch=1 n=d#5 v=55
859106 On ch=1 n=d#5 v=0
859111 On ch=1 n=c#6 v=76
859126 On ch=1 n=d#6 v=0
859126 On ch=1 n=f5 v=54
859326 On ch=1 n=f5 v=0
859326 On ch=1 n=d#5 v=49
859541 On ch=1 n=d#5 v=0
859576 On ch=1 n=c5 v=53
859591 On ch=1 n=d#6 v=73
859611 On ch=1 n=c#6 v=0
859791 On ch=1 n=c5 v=0
859806 On ch=1 n=a4 v=47
860046 On ch=1 n=c6 v=68
860056 On ch=1 n=d#6 v=0
860056 On ch=1 n=f4 v=44
860066 On ch=1 n=a4 v=0
860146 On ch=1 n=f4 v=0
860336 On ch=1 n=d#4 v=44
860516 On ch=1 n=d#4 v=0
860631 On ch=1 n=c6 v=0
860636 On ch=1 n=c#6 v=64
860681 On ch=1 n=a#3 v=54
860741 Par ch=1 c=64 v=24
860761 Par ch=1 c=64 v=0
860956 Par ch=1 c=64 v=72
860971 Par ch=1 c=64 v=127
860981 On ch=1 n=a#3 v=0
860991 On ch=1 n=f4 v=56
861166 On ch=1 n=f4 v=0
861206 On ch=1 n=a#4 v=51
861431 On ch=1 n=c#5 v=49
861616 On ch=1 n=c#6 v=0
861656 On ch=1 n=f5 v=49
861881 On ch=1 n=a#5 v=48
862096 On ch=1 n=c#6 v=54
862106 On ch=1 n=a#5 v=0
862251 On ch=1 n=f5 v=0
862291 On ch=1 n=c#5 v=0
862311 On ch=1 n=c#6 v=0
862316 On ch=1 n=a#4 v=0
862321 On ch=1 n=a#5 v=62
862511 On ch=1 n=a#5 v=0
862576 On ch=1 n=f6 v=88
862601 On ch=1 n=f5 v=48
862821 On ch=1 n=c#5 v=46
862966 On ch=1 n=f5 v=0
863036 On ch=1 n=c#5 v=0
863041 On ch=1 n=f6 v=0
863041 On ch=1 n=a#4 v=56
863316 On ch=1 n=f6 v=90
863336 On ch=1 n=f4 v=66
863391 On ch=1 n=a#4 v=0
863436 On ch=1 n=f4 v=0
863451 On ch=1 n=f6 v=0
863741 On ch=1 n=f6 v=86
863786 On ch=1 n=g#3 v=57
863816 Par ch=1 c=64 v=88
863836 Par ch=1 c=64 v=0
863991 Par ch=1 c=64 v=127
864041 On ch=1 n=f4 v=54
864046 On ch=1 n=g#3 v=0
864246 On ch=1 n=f4 v=0
864251 On ch=1 n=g#4 v=61
864311 On ch=1 n=g#4 v=0
864421 On ch=1 n=f6 v=0
864441 On ch=1 n=g6 v=88
864471 On ch=1 n=c5 v=68
864661 On ch=1 n=c5 v=0
864701 On ch=1 n=f5 v=49
864711 On ch=1 n=f6 v=86
864716 On ch=1 n=g6 v=0
864866 On ch=1 n=f5 v=0
864921 On ch=1 n=g#5 v=56
865116 On ch=1 n=g#5 v=0
865166 On ch=1 n=c6 v=66
865366 On ch=1 n=g#5 v=54
865376 On ch=1 n=c6 v=0
865396 On ch=1 n=f6 v=0
865576 On ch=1 n=g#5 v=0
865586 On ch=1 n=f6 v=88
865591 On ch=1 n=f5 v=53
865851 On ch=1 n=f5 v=0
865851 On ch=1 n=c5 v=43
865891 On ch=1 n=c5 v=0
866031 On ch=1 n=f6 v=0
866046 On ch=1 n=g6 v=93
866076 On ch=1 n=g#4 v=46
866256 On ch=1 n=g#4 v=0
866271 On ch=1 n=f4 v=60
866306 On ch=1 n=f4 v=0
866451 On ch=1 n=g6 v=0
866586 On ch=1 n=g#6 v=88
866666 On ch=1 n=f3 v=60
866686 Par ch=1 c=64 v=56
866701 Par ch=1 c=64 v=0
866821 Par ch=1 c=64 v=104
866836 Par ch=1 c=64 v=127
866886 On ch=1 n=c#4 v=44
866941 On ch=1 n=f3 v=0
866986 On ch=1 n=g#6 v=0
867066 On ch=1 n=c#4 v=0
867106 On ch=1 n=f4 v=54
867106 On ch=1 n=g6 v=82
867251 On ch=1 n=f4 v=0
867321 On ch=1 n=g#4 v=61
867556 On ch=1 n=g6 v=0
867561 On ch=1 n=f6 v=86
867566 On ch=1 n=c#5 v=50
867726 On ch=1 n=g#4 v=0
867766 On ch=1 n=c#5 v=0
867766 On ch=1 n=f5 v=58
867811 On ch=1 n=f5 v=0
868051 On ch=1 n=d#6 v=76
868056 On ch=1 n=f6 v=0
868081 On ch=1 n=g3 v=65
868156 Par ch=1 c=64 v=40
868176 Par ch=1 c=64 v=0
868271 Par ch=1 c=64 v=104
868281 On ch=1 n=a#3 v=49
868291 Par ch=1 c=64 v=127
868311 On ch=1 n=g3 v=0
868426 On ch=1 n=d#6 v=0
868446 On ch=1 n=g6 v=67
868516 On ch=1 n=a#3 v=0
868516 On ch=1 n=f6 v=88
868526 On ch=1 n=g6 v=0
868541 On ch=1 n=d#4 v=54
868721 On ch=1 n=d#4 v=0
868726 On ch=1 n=g4 v=64
868856 On ch=1 n=g4 v=0
868951 On ch=1 n=f6 v=0
868986 On ch=1 n=c#6 v=75
869006 On ch=1 n=a#4 v=46
869261 On ch=1 n=d#5 v=56
869306 On ch=1 n=d#5 v=0
869326 On ch=1 n=a#4 v=0
869561 On ch=1 n=c#6 v=0
869601 On ch=1 n=c6 v=63
869656 On ch=1 n=g#3 v=57
869721 Par ch=1 c=64 v=40
869741 Par ch=1 c=64 v=0
869861 Par ch=1 c=64 v=88
869881 Par ch=1 c=64 v=127
869891 On ch=1 n=g#3 v=0
869901 On ch=1 n=d#4 v=49
869936 On ch=1 n=c6 v=0
870051 On ch=1 n=d#4 v=0
870116 On ch=1 n=g#4 v=37
870311 On ch=1 n=g#4 v=0
870346 On ch=1 n=c5 v=37
870521 On ch=1 n=c5 v=0
870586 On ch=1 n=d#5 v=56
870721 On ch=1 n=d#5 v=0
870786 On ch=1 n=g#5 v=51
871001 On ch=1 n=g#5 v=0
871041 On ch=1 n=c6 v=59
871241 On ch=1 n=c6 v=0
871271 On ch=1 n=g#5 v=43
871536 On ch=1 n=d#6 v=78
871536 On ch=1 n=d#5 v=42
871541 On ch=1 n=g#5 v=0
871631 On ch=1 n=d#5 v=0
871771 On ch=1 n=c5 v=53
871941 On ch=1 n=c5 v=0
871956 On ch=1 n=d#6 v=0
872021 On ch=1 n=c6 v=76
872026 On ch=1 n=g#4 v=39
872211 On ch=1 n=g#4 v=0
872241 On ch=1 n=d#4 v=50
872336 On ch=1 n=d#4 v=0
872636 On ch=1 n=c6 v=0
872636 On ch=1 n=a#5 v=60
872676 On ch=1 n=g3 v=50
872726 Par ch=1 c=64 v=104
872746 Par ch=1 c=64 v=40
872766 Par ch=1 c=64 v=0
872896 On ch=1 n=g3 v=0
872896 Par ch=1 c=64 v=127
872911 On ch=1 n=c#4 v=46
873086 On ch=1 n=c#4 v=0
873131 On ch=1 n=e4 v=54
873286 On ch=1 n=e4 v=0
873351 On ch=1 n=a4 v=50
873591 On ch=1 n=a#5 v=0
873591 On ch=1 n=a5 v=76
873591 On ch=1 n=a#4 v=52
873631 On ch=1 n=a4 v=0
873806 On ch=1 n=c#5 v=54
874026 On ch=1 n=c#5 v=0
874051 On ch=1 n=e5 v=66
874266 On ch=1 n=c#5 v=52
874301 On ch=1 n=e5 v=0
874481 On ch=1 n=c#5 v=0
874491 On ch=1 n=a#4 v=47
874506 On ch=1 n=a#5 v=73
874511 On ch=1 n=a5 v=0
874611 On ch=1 n=a#4 v=0
874716 On ch=1 n=a#4 v=0
874746 On ch=1 n=g4 v=46
874966 On ch=1 n=a#5 v=0
874981 On ch=1 n=c6 v=86
874996 On ch=1 n=e4 v=60
875001 On ch=1 n=g4 v=0
875041 On ch=1 n=e4 v=0
875221 On ch=1 n=c#4 v=49
875351 On ch=1 n=c#4 v=0
875551 On ch=1 n=c6 v=0
875556 On ch=1 n=c#6 v=78
875611 On ch=1 n=f#3 v=60
875666 Par ch=1 c=64 v=56
875686 Par ch=1 c=64 v=0
875821 Par ch=1 c=64 v=72
875841 Par ch=1 c=64 v=127
875851 On ch=1 n=f#3 v=0
875866 On ch=1 n=c#4 v=56
876051 On ch=1 n=c#4 v=0
876101 On ch=1 n=e4 v=66
876221 On ch=1 n=e4 v=0
876296 On ch=1 n=f#4 v=55
876416 On ch=1 n=f#4 v=0
876561 On ch=1 n=a#4 v=60
876781 On ch=1 n=e5 v=61
876806 On ch=1 n=a#4 v=0
876821 On ch=1 n=e5 v=0
877096 On ch=1 n=f3 v=70
877141 Par ch=1 c=64 v=104
877156 Par ch=1 c=64 v=40
877176 Par ch=1 c=64 v=0
877291 Par ch=1 c=64 v=88
877311 Par ch=1 c=64 v=127
877341 On ch=1 n=c#4 v=62
877426 On ch=1 n=f3 v=0
877566 On ch=1 n=c#4 v=0
877586 On ch=1 n=f6 v=88
877586 On ch=1 n=f4 v=60
877636 On ch=1 n=c#6 v=0
877746 On ch=1 n=f4 v=0
877851 On ch=1 n=a#4 v=30
878061 On ch=1 n=f6 v=0
878076 On ch=1 n=c#6 v=82
878076 On ch=1 n=c#5 v=46
878316 On ch=1 n=f5 v=63
878361 On ch=1 n=c#5 v=0
878366 On ch=1 n=f5 v=0
878401 On ch=1 n=a#4 v=0
878691 On ch=1 n=c6 v=89
878696 On ch=1 n=c#6 v=0
878736 On ch=1 n=e3 v=62
878761 Par ch=1 c=64 v=40
878781 Par ch=1 c=64 v=0
878901 Par ch=1 c=64 v=104
878921 Par ch=1 c=64 v=127
879166 On ch=1 n=c#7 v=93
879196 On ch=1 n=c4 v=64
879311 On ch=1 n=e3 v=0
879351 On ch=1 n=c#7 v=0
879441 On ch=1 n=c4 v=0
879471 On ch=1 n=e4 v=58
879501 On ch=1 n=c7 v=92
879506 On ch=1 n=e4 v=0
879666 On ch=1 n=c7 v=0
879776 On ch=1 n=b6 v=89
879776 On ch=1 n=g4 v=66
879941 On ch=1 n=b6 v=0
879956 On ch=1 n=g4 v=0
880001 On ch=1 n=a#4 v=48
880021 On ch=1 n=a#6 v=80
880196 On ch=1 n=c6 v=0
880201 On ch=1 n=a#6 v=0
880226 On ch=1 n=g6 v=82
880256 On ch=1 n=c5 v=63
880261 On ch=1 n=a#4 v=0
880446 On ch=1 n=g6 v=0
880451 On ch=1 n=c5 v=0
880476 On ch=1 n=e6 v=82
880496 On ch=1 n=e5 v=60
880691 On ch=1 n=e5 v=0
880706 On ch=1 n=e6 v=0
880736 On ch=1 n=c6 v=82
880756 On ch=1 n=g5 v=60
880821 On ch=1 n=g5 v=0
880911 On ch=1 n=c6 v=0
881081 On ch=1 n=d#6 v=74
881086 On ch=1 n=d#5 v=48
881126 Par ch=1 c=64 v=104
881146 Par ch=1 c=64 v=56
881166 Par ch=1 c=64 v=40
881181 Par ch=1 c=64 v=72
881201 Par ch=1 c=64 v=127
881386 On ch=1 n=d#5 v=0
881396 On ch=1 n=d#6 v=0
881396 On ch=1 n=c#6 v=77
881406 On ch=1 n=c#5 v=44
881511 On ch=1 n=c#6 v=0
881526 On ch=1 n=c#5 v=0
881666 On ch=1 n=c5 v=47
881676 On ch=1 n=c6 v=76
881821 On ch=1 n=c5 v=0
881861 On ch=1 n=c6 v=0
881916 On ch=1 n=a#5 v=65
881916 On ch=1 n=a#4 v=50
881961 On ch=1 n=a#4 v=0
882186 On ch=1 n=a#5 v=0
882241 On ch=1 n=g#5 v=58
882271 On ch=1 n=f3 v=48
882291 Par ch=1 c=64 v=40
882311 Par ch=1 c=64 v=0
882446 Par ch=1 c=64 v=127
882506 On ch=1 n=g#5 v=0
882511 On ch=1 n=c4 v=53
882541 On ch=1 n=f3 v=0
882661 On ch=1 n=c4 v=0
882721 On ch=1 n=f4 v=44
882866 On ch=1 n=f4 v=0
882956 On ch=1 n=g#4 v=40
883176 On ch=1 n=g#4 v=0
883206 On ch=1 n=c5 v=61
883356 On ch=1 n=c5 v=0
883421 On ch=1 n=f5 v=47
883591 On ch=1 n=f5 v=0
883666 On ch=1 n=g#5 v=54
883786 On ch=1 n=g#5 v=0
883871 On ch=1 n=f5 v=42
884026 On ch=1 n=f5 v=0
884141 On ch=1 n=g5 v=66
884166 On ch=1 n=c5 v=49
884346 On ch=1 n=c5 v=0
884371 On ch=1 n=g#4 v=43
884456 On ch=1 n=g#4 v=0
884646 On ch=1 n=f4 v=36
884656 On ch=1 n=g#5 v=74
884681 On ch=1 n=g5 v=0
884891 On ch=1 n=f4 v=0
884891 On ch=1 n=c4 v=53
885061 On ch=1 n=c4 v=0
885226 On ch=1 n=g#5 v=0
885331 On ch=1 n=a5 v=62
885386 On ch=1 n=e3 v=52
885406 Par ch=1 c=64 v=72
885426 Par ch=1 c=64 v=0
885561 Par ch=1 c=64 v=127
885601 On ch=1 n=e3 v=0
885626 On ch=1 n=a3 v=56
885776 On ch=1 n=a3 v=0
885841 On ch=1 n=c#4 v=54
886021 On ch=1 n=c#4 v=0
886061 On ch=1 n=g4 v=42
886171 On ch=1 n=g4 v=0
886301 On ch=1 n=a4 v=45
886436 On ch=1 n=a4 v=0
886526 On ch=1 n=c#5 v=49
886726 On ch=1 n=c#5 v=0
886766 On ch=1 n=g5 v=60
886961 On ch=1 n=g5 v=0
886986 On ch=1 n=c#5 v=48
887166 On ch=1 n=a5 v=0
887221 On ch=1 n=g#5 v=67
887246 On ch=1 n=a4 v=44
887261 On ch=1 n=c#5 v=0
887316 On ch=1 n=a4 v=0
887511 On ch=1 n=g4 v=37
887641 On ch=1 n=g4 v=0
887701 On ch=1 n=g#5 v=0
887726 On ch=1 n=a5 v=74
887726 On ch=1 n=c#4 v=42
887946 On ch=1 n=a3 v=51
887966 On ch=1 n=c#4 v=0
888031 On ch=1 n=a3 v=0
888276 On ch=1 n=a5 v=0
888286 On ch=1 n=a#5 v=65
888346 On ch=1 n=d#3 v=44
888366 Par ch=1 c=64 v=56
888391 Par ch=1 c=64 v=0
888506 Par ch=1 c=64 v=72
888521 Par ch=1 c=64 v=127
888536 On ch=1 n=d#3 v=0
888576 On ch=1 n=a#3 v=50
888721 On ch=1 n=a#3 v=0
888821 On ch=1 n=d#4 v=53
889016 On ch=1 n=d#4 v=0
889061 On ch=1 n=g#4 v=52
889321 On ch=1 n=g#4 v=0
889321 On ch=1 n=a#4 v=53
889506 On ch=1 n=a#4 v=0
889586 On ch=1 n=c#5 v=65
889711 On ch=1 n=c#5 v=0
889916 On ch=1 n=a#5 v=0
889926 On ch=1 n=d#6 v=67
889946 On ch=1 n=g#5 v=43
890096 On ch=1 n=g#5 v=0
890191 On ch=1 n=g5 v=56
890396 On ch=1 n=g5 v=0
890421 Par ch=1 c=64 v=72
890451 On ch=1 n=d#5 v=48
890476 Par ch=1 c=64 v=127
890646 On ch=1 n=d#5 v=0
890686 On ch=1 n=b4 v=46
890956 On ch=1 n=d#6 v=0
890961 On ch=1 n=b4 v=0
890991 On ch=1 n=b5 v=64
891016 On ch=1 n=g4 v=32
891056 On ch=1 n=g4 v=0
891271 On ch=1 n=d#4 v=46
891531 On ch=1 n=b5 v=0
891586 On ch=1 n=d#4 v=0
891586 On ch=1 n=c6 v=68
891626 On ch=1 n=g#3 v=49
891641 Par ch=1 c=64 v=56
891661 Par ch=1 c=64 v=0
891796 Par ch=1 c=64 v=88
891816 Par ch=1 c=64 v=127
891881 On ch=1 n=g#3 v=0
891886 On ch=1 n=d#4 v=43
892061 On ch=1 n=d#4 v=0
892116 On ch=1 n=g#4 v=37
892311 On ch=1 n=g#4 v=0
892361 On ch=1 n=c5 v=55
892516 On ch=1 n=c6 v=0
892531 On ch=1 n=c5 v=0
892596 On ch=1 n=d#5 v=49
892771 On ch=1 n=d#5 v=0
892826 On ch=1 n=g#5 v=44
893086 On ch=1 n=g#5 v=0
893116 On ch=1 n=c6 v=54
893361 On ch=1 n=g#5 v=40
893386 On ch=1 n=c6 v=0
893691 On ch=1 n=d#6 v=71
893691 On ch=1 n=d#5 v=46
893721 On ch=1 n=g#5 v=0
893836 On ch=1 n=d#5 v=0
894016 On ch=1 n=c5 v=39
894156 On ch=1 n=c5 v=0
894231 On ch=1 n=d#6 v=0
894321 On ch=1 n=g#4 v=34
894586 On ch=1 n=g#4 v=0
894646 On ch=1 n=d#6 v=63
894651 On ch=1 n=d#4 v=45
894736 On ch=1 n=d#4 v=0
894791 On ch=1 n=d#6 v=0
895111 On ch=1 n=d#6 v=62
895166 On ch=1 n=f#3 v=38
895186 Par ch=1 c=64 v=72
895201 Par ch=1 c=64 v=0
895336 Par ch=1 c=64 v=127
895386 On ch=1 n=d#4 v=47
895441 On ch=1 n=f#3 v=0
895631 On ch=1 n=f#4 v=53
895641 On ch=1 n=d#4 v=0
895706 On ch=1 n=f#4 v=0
895831 On ch=1 n=d#6 v=0
895856 On ch=1 n=f6 v=73
895896 On ch=1 n=a#4 v=33
896076 On ch=1 n=a#4 v=0
896126 On ch=1 n=f6 v=0
896146 On ch=1 n=d#5 v=43
896151 On ch=1 n=d#6 v=64
896301 On ch=1 n=d#5 v=0
896371 On ch=1 n=f#5 v=42
896576 On ch=1 n=f#5 v=0
896616 On ch=1 n=a#5 v=49
896841 On ch=1 n=f#5 v=43
896846 On ch=1 n=d#6 v=0
896861 On ch=1 n=a#5 v=0
897071 On ch=1 n=f#5 v=0
897086 On ch=1 n=d#6 v=75
897091 On ch=1 n=d#5 v=47
897311 On ch=1 n=a#4 v=38
897331 On ch=1 n=d#5 v=0
897406 On ch=1 n=a#4 v=0
897566 On ch=1 n=f6 v=82
897606 On ch=1 n=d#6 v=0
897761 On ch=1 n=f#4 v=38
897846 On ch=1 n=f6 v=0
897871 On ch=1 n=f#4 v=0
898101 On ch=1 n=f#6 v=75
898186 On ch=1 n=f3 v=58
898186 Par ch=1 c=64 v=72
898201 Par ch=1 c=64 v=0
898321 Par ch=1 c=64 v=72
898341 Par ch=1 c=64 v=127
898386 On ch=1 n=d#4 v=48
898421 On ch=1 n=f#6 v=0
898496 On ch=1 n=f3 v=0
898601 On ch=1 n=d#4 v=0
898621 On ch=1 n=f6 v=82
898631 On ch=1 n=f4 v=55
898666 On ch=1 n=f4 v=0
898851 On ch=1 n=a4 v=53
899046 On ch=1 n=a4 v=0
899086 On ch=1 n=f6 v=0
899086 On ch=1 n=c5 v=48
899101 On ch=1 n=d#6 v=75
899261 On ch=1 n=c5 v=0
899321 On ch=1 n=d#5 v=54
899441 On ch=1 n=d#5 v=0
899521 On ch=1 n=d#6 v=0
899556 On ch=1 n=c#6 v=74
899561 On ch=1 n=f5 v=53
899736 On ch=1 n=f5 v=0
899771 On ch=1 n=d#5 v=48
900006 On ch=1 n=d#5 v=0
900026 On ch=1 n=c#6 v=0
900036 On ch=1 n=d#6 v=71
900041 On ch=1 n=c5 v=48
900256 On ch=1 n=a4 v=46
900271 On ch=1 n=c5 v=0
900301 On ch=1 n=a4 v=0
900491 On ch=1 n=c6 v=71
900521 On ch=1 n=d#6 v=0
900531 On ch=1 n=f4 v=34
900751 On ch=1 n=f4 v=0
900751 On ch=1 n=d#4 v=52
900931 On ch=1 n=d#4 v=0
901081 On ch=1 n=c#6 v=65
901096 On ch=1 n=c6 v=0
901136 On ch=1 n=a#3 v=56
901166 Par ch=1 c=64 v=88
901186 Par ch=1 c=64 v=0
901341 Par ch=1 c=64 v=104
901361 Par ch=1 c=64 v=127
901381 On ch=1 n=a#3 v=0
901406 On ch=1 n=f4 v=54
901591 On ch=1 n=f4 v=0
901621 On ch=1 n=a#4 v=52
901846 On ch=1 n=c#5 v=49
902066 On ch=1 n=c#6 v=0
902066 On ch=1 n=f5 v=54
902296 On ch=1 n=a#5 v=48
902516 On ch=1 n=a#5 v=0
902521 On ch=1 n=c#6 v=46
902656 On ch=1 n=f5 v=0
902686 On ch=1 n=c#5 v=0
902721 On ch=1 n=c#6 v=0
902726 On ch=1 n=a#4 v=0
902746 On ch=1 n=a#5 v=59
902931 On ch=1 n=a#5 v=0
903006 On ch=1 n=f6 v=92
903051 On ch=1 n=c#5 v=51
903226 On ch=1 n=c#5 v=0
903241 On ch=1 n=a#4 v=53
903441 On ch=1 n=f6 v=0
903536 On ch=1 n=f4 v=58
903566 On ch=1 n=a#4 v=0
903581 On ch=1 n=f4 v=0
903761 On ch=1 n=f6 v=94
903796 On ch=1 n=c#4 v=55
903901 On ch=1 n=c#4 v=0
903966 On ch=1 n=f6 v=0
904146 On ch=1 n=f6 v=90
904196 On ch=1 n=g#3 v=58
904266 Par ch=1 c=64 v=56
904286 Par ch=1 c=64 v=0
904421 Par ch=1 c=64 v=127
904451 On ch=1 n=f4 v=59
904456 On ch=1 n=g#3 v=0
904671 On ch=1 n=f4 v=0
904671 On ch=1 n=g#4 v=60
904736 On ch=1 n=g#4 v=0
904836 On ch=1 n=f6 v=0
904876 On ch=1 n=g6 v=87
904916 On ch=1 n=c5 v=63
905096 On ch=1 n=c5 v=0
905116 On ch=1 n=g6 v=0
905126 On ch=1 n=f5 v=60
905126 On ch=1 n=f6 v=87
905291 On ch=1 n=f5 v=0
905336 On ch=1 n=g#5 v=55
905546 On ch=1 n=g#5 v=0
905586 On ch=1 n=c6 v=70
905786 On ch=1 n=g#5 v=59
905806 On ch=1 n=c6 v=0
905841 On ch=1 n=f6 v=0
906006 On ch=1 n=g#5 v=0
906016 On ch=1 n=f5 v=58
906031 On ch=1 n=f6 v=96
906276 On ch=1 n=c5 v=47
906291 On ch=1 n=f5 v=0
906316 On ch=1 n=c5 v=0
906451 On ch=1 n=f6 v=0
906486 On ch=1 n=g6 v=93
906491 On ch=1 n=g#4 v=52
906686 On ch=1 n=g#4 v=0
906706 On ch=1 n=f4 v=59
906761 On ch=1 n=f4 v=0
906966 On ch=1 n=g6 v=0
907061 On ch=1 n=g#6 v=88
907121 On ch=1 n=f3 v=66
907151 Par ch=1 c=64 v=40
907166 Par ch=1 c=64 v=0
907286 Par ch=1 c=64 v=127
907371 On ch=1 n=c#4 v=46
907396 On ch=1 n=f3 v=0
907451 On ch=1 n=g#6 v=0
907576 On ch=1 n=c#4 v=0
907591 On ch=1 n=g6 v=84
907606 On ch=1 n=f4 v=60
907731 On ch=1 n=f4 v=0
907826 On ch=1 n=g#4 v=57
907976 On ch=1 n=g6 v=0
908016 On ch=1 n=f6 v=84
908031 On ch=1 n=c#5 v=48
908206 On ch=1 n=c#5 v=0
908206 On ch=1 n=g#4 v=0
908231 On ch=1 n=f5 v=58
908266 On ch=1 n=f5 v=0
908481 On ch=1 n=f6 v=0
908491 On ch=1 n=d#6 v=75
908531 On ch=1 n=g3 v=64
908561 Par ch=1 c=64 v=72
908581 Par ch=1 c=64 v=0
908696 Par ch=1 c=64 v=72
908716 Par ch=1 c=64 v=127
908761 On ch=1 n=a#3 v=44
908776 On ch=1 n=g3 v=0
908876 On ch=1 n=d#6 v=0
908906 On ch=1 n=g6 v=61
908986 On ch=1 n=f6 v=85
909016 On ch=1 n=a#3 v=0
909016 On ch=1 n=d#4 v=55
909021 On ch=1 n=g6 v=0
909206 On ch=1 n=d#4 v=0
909231 On ch=1 n=g4 v=53
909356 On ch=1 n=g4 v=0
909441 On ch=1 n=f6 v=0
909466 On ch=1 n=c#6 v=77
909486 On ch=1 n=a#4 v=45
909741 On ch=1 n=d#5 v=50
909776 On ch=1 n=a#4 v=0
909796 On ch=1 n=d#5 v=0
910006 On ch=1 n=c#6 v=0
910071 On ch=1 n=c6 v=67
910126 On ch=1 n=g#3 v=51
910186 Par ch=1 c=64 v=104
910206 Par ch=1 c=64 v=24
910226 Par ch=1 c=64 v=0
910356 On ch=1 n=g#3 v=0
910361 On ch=1 n=d#4 v=53
910361 Par ch=1 c=64 v=127
910526 On ch=1 n=d#4 v=0
910576 On ch=1 n=g#4 v=37
910761 On ch=1 n=g#4 v=0
910796 On ch=1 n=c5 v=49
910946 On ch=1 n=c5 v=0
911036 On ch=1 n=d#5 v=55
911201 On ch=1 n=d#5 v=0
911241 On ch=1 n=c6 v=0
911256 On ch=1 n=g#5 v=56
911456 On ch=1 n=g#5 v=0
911521 On ch=1 n=c6 v=56
911731 On ch=1 n=c6 v=0
911751 On ch=1 n=g#5 v=49
912046 On ch=1 n=d#6 v=81
912066 On ch=1 n=g#5 v=0
912066 On ch=1 n=d#5 v=48
912166 On ch=1 n=d#5 v=0
912306 On ch=1 n=c5 v=60
912426 On ch=1 n=c5 v=0
912481 On ch=1 n=d#6 v=0
912516 On ch=1 n=c6 v=83
912561 On ch=1 n=g#4 v=36
912721 On ch=1 n=g#4 v=0
912736 On ch=1 n=d#4 v=55
912776 On ch=1 n=d#4 v=0
913136 On ch=1 n=c6 v=0
913146 On ch=1 n=a#5 v=64
913181 On ch=1 n=g3 v=58
913266 Par ch=1 c=64 v=104
913286 Par ch=1 c=64 v=24
913306 Par ch=1 c=64 v=0
913446 On ch=1 n=c#4 v=49
913451 On ch=1 n=g3 v=0
913461 Par ch=1 c=64 v=127
913616 On ch=1 n=c#4 v=0
913686 On ch=1 n=e4 v=51
913826 On ch=1 n=e4 v=0
913886 On ch=1 n=a4 v=44
914086 On ch=1 n=a#5 v=0
914116 On ch=1 n=a5 v=68
914126 On ch=1 n=a4 v=0
914126 On ch=1 n=a#4 v=40
914256 On ch=1 n=a#4 v=0
914331 On ch=1 n=c#5 v=45
914541 On ch=1 n=c#5 v=0
914586 On ch=1 n=e5 v=59
914771 On ch=1 n=a5 v=0
914816 On ch=1 n=c#5 v=51
914846 On ch=1 n=e5 v=0
915036 On ch=1 n=c#5 v=0
915051 On ch=1 n=a#4 v=43
915066 On ch=1 n=a#5 v=68
915276 On ch=1 n=a#4 v=0
915296 On ch=1 n=g4 v=60
915521 On ch=1 n=a#5 v=0
915546 On ch=1 n=c6 v=84
915556 On ch=1 n=e4 v=55
915566 On ch=1 n=g4 v=0
915596 On ch=1 n=e4 v=0
915791 On ch=1 n=c#4 v=58
916111 On ch=1 n=c#4 v=0
916111 On ch=1 n=c#6 v=77
916151 On ch=1 n=c6 v=0
916161 On ch=1 n=f#3 v=60
916191 Par ch=1 c=64 v=88
916211 Par ch=1 c=64 v=24
916226 Par ch=1 c=64 v=0
916346 Par ch=1 c=64 v=56
916351 On ch=1 n=f#3 v=0
916366 Par ch=1 c=64 v=127
916371 On ch=1 n=c#4 v=59
916556 On ch=1 n=c#4 v=0
916616 On ch=1 n=e4 v=64
916761 On ch=1 n=e4 v=0
916836 On ch=1 n=f#4 v=58
916931 On ch=1 n=f#4 v=0
917091 On ch=1 n=a#4 v=62
917286 On ch=1 n=a#4 v=0
917306 On ch=1 n=e5 v=69
917341 On ch=1 n=e5 v=0
917606 On ch=1 n=f3 v=78
917681 Par ch=1 c=64 v=56
917701 Par ch=1 c=64 v=0
917816 Par ch=1 c=64 v=72
917836 Par ch=1 c=64 v=127
917871 On ch=1 n=c#4 v=47
917946 On ch=1 n=f3 v=0
918106 On ch=1 n=c#4 v=0
918126 On ch=1 n=f6 v=89
918126 On ch=1 n=f4 v=59
918131 On ch=1 n=c#6 v=0
918251 On ch=1 n=f4 v=0
918351 On ch=1 n=a#4 v=68
918626 On ch=1 n=c#5 v=49
918641 On ch=1 n=c#6 v=86
918661 On ch=1 n=f6 v=0
918891 On ch=1 n=f5 v=62
918901 On ch=1 n=c#5 v=0
918931 On ch=1 n=f5 v=0
918946 On ch=1 n=a#4 v=0
919276 On ch=1 n=c#6 v=0
919276 On ch=1 n=c6 v=88
919311 On ch=1 n=e3 v=64
919346 Par ch=1 c=64 v=88
919366 Par ch=1 c=64 v=0
919501 Par ch=1 c=64 v=127
919726 On ch=1 n=c#7 v=95
919766 On ch=1 n=c4 v=59
919891 On ch=1 n=e3 v=0
919896 On ch=1 n=c#7 v=0
920091 On ch=1 n=c4 v=0
920091 On ch=1 n=c7 v=94
920111 On ch=1 n=e4 v=70
920151 On ch=1 n=e4 v=0
920246 On ch=1 n=c7 v=0
920396 On ch=1 n=b6 v=94
920406 On ch=1 n=g4 v=56
920551 On ch=1 n=b6 v=0
920556 On ch=1 n=g4 v=0
920641 On ch=1 n=a#4 v=46
920651 On ch=1 n=a#6 v=84
920706 On ch=1 n=c6 v=0
920831 On ch=1 n=a#6 v=0
920871 On ch=1 n=g6 v=83
920906 On ch=1 n=a#4 v=0
920911 On ch=1 n=c5 v=59
921086 On ch=1 n=g6 v=0
921111 On ch=1 n=e6 v=84
921126 On ch=1 n=c5 v=0
921156 On ch=1 n=e5 v=59
921301 On ch=1 n=e5 v=0
921381 On ch=1 n=e6 v=0
921381 On ch=1 n=c6 v=86
921391 On ch=1 n=g5 v=48
921441 On ch=1 n=g5 v=0
921576 On ch=1 n=c6 v=0
921726 On ch=1 n=d#6 v=77
921746 On ch=1 n=d#5 v=49
921786 Par ch=1 c=64 v=88
921846 Par ch=1 c=64 v=127
922036 On ch=1 n=d#5 v=0
922056 On ch=1 n=d#6 v=0
922061 On ch=1 n=c#6 v=73
922061 On ch=1 n=c#5 v=44
922166 On ch=1 n=c#6 v=0
922206 On ch=1 n=c#5 v=0
922346 On ch=1 n=c6 v=68
922346 On ch=1 n=c5 v=55
922346 Par ch=1 c=64 v=56
922366 Par ch=1 c=64 v=24
922386 Par ch=1 c=64 v=40
922406 Par ch=1 c=64 v=88
922426 Par ch=1 c=64 v=127
922571 On ch=1 n=c5 v=0
922571 On ch=1 n=c6 v=0
922616 On ch=1 n=a#5 v=62
922616 On ch=1 n=a#4 v=39
922701 On ch=1 n=a#4 v=0
922961 On ch=1 n=a#5 v=0
922966 On ch=1 n=g#5 v=56
923011 On ch=1 n=f3 v=40
923081 Par ch=1 c=64 v=24
923101 Par ch=1 c=64 v=0
923221 Par ch=1 c=64 v=72
923236 Par ch=1 c=64 v=127
923256 On ch=1 n=c4 v=49
923286 On ch=1 n=f3 v=0
923406 On ch=1 n=c4 v=0
923466 On ch=1 n=f4 v=36
923621 On ch=1 n=f4 v=0
923711 On ch=1 n=g#4 v=37
923921 On ch=1 n=g#4 v=0
923951 On ch=1 n=c5 v=52
924181 On ch=1 n=c5 v=0
924236 On ch=1 n=f5 v=38
924431 On ch=1 n=g#5 v=0
924501 On ch=1 n=g#5 v=43
924606 On ch=1 n=f5 v=0
924730 On ch=1 n=f5 v=33
924856 On ch=1 n=g#5 v=0
924915 On ch=1 n=f5 v=0
924951 On ch=1 n=g5 v=62
924976 On ch=1 n=c5 v=49
925216 On ch=1 n=c5 v=0
925221 On ch=1 n=g#4 v=44
925291 On ch=1 n=g#4 v=0
925446 On ch=1 n=g5 v=0
925461 On ch=1 n=g#5 v=69
925481 On ch=1 n=f4 v=43
925626 On ch=1 n=f4 v=0
925706 On ch=1 n=c4 v=47
925776 On ch=1 n=g#5 v=0
925811 On ch=1 n=c4 v=0
926091 On ch=1 n=a5 v=68
926141 Par ch=1 c=64 v=104
926161 On ch=1 n=e3 v=51
926161 Par ch=1 c=64 v=40
926181 Par ch=1 c=64 v=0
926316 Par ch=1 c=64 v=72
926336 Par ch=1 c=64 v=127
926371 On ch=1 n=e3 v=0
926396 On ch=1 n=a3 v=55
926556 On ch=1 n=a3 v=0
926611 On ch=1 n=c#4 v=48
926801 On ch=1 n=c#4 v=0
926851 On ch=1 n=g4 v=58
926961 On ch=1 n=g4 v=0
927081 On ch=1 n=a4 v=55
927211 On ch=1 n=a4 v=0
927301 On ch=1 n=c#5 v=50
927491 On ch=1 n=a5 v=0
927546 On ch=1 n=c#5 v=0
927581 On ch=1 n=g5 v=61
927776 On ch=1 n=g5 v=0
927816 On ch=1 n=c#5 v=43
928086 On ch=1 n=g#5 v=60
928111 On ch=1 n=a4 v=45
928121 On ch=1 n=c#5 v=0
928166 On ch=1 n=a4 v=0
928363 On ch=1 n=g4 v=45
928418 On ch=1 n=g4 v=0
928571 On ch=1 n=g#5 v=0
928606 On ch=1 n=c#4 v=40
928641 On ch=1 n=a5 v=67
928871 On ch=1 n=a3 v=53
928936 On ch=1 n=c#4 v=0
928981 On ch=1 n=a3 v=0
929221 On ch=1 n=a5 v=0
929256 On ch=1 n=a#5 v=61
929301 Par ch=1 c=64 v=104
929316 Par ch=1 c=64 v=24
929321 On ch=1 n=d#3 v=43
929336 Par ch=1 c=64 v=0
929451 Par ch=1 c=64 v=104
929471 Par ch=1 c=64 v=127
929546 On ch=1 n=d#3 v=0
929566 On ch=1 n=a#3 v=55
929726 On ch=1 n=a#3 v=0
929831 On ch=1 n=d#4 v=58
930061 On ch=1 n=d#4 v=0
930093 On ch=1 n=g#4 v=46
930371 On ch=1 n=a#4 v=43
930418 On ch=1 n=g#4 v=0
930611 On ch=1 n=a#4 v=0
930651 On ch=1 n=c#5 v=65
930746 On ch=1 n=c#5 v=0
930946 On ch=1 n=a#5 v=0
931026 On ch=1 n=g#5 v=49
931031 On ch=1 n=d#6 v=66
931161 On ch=1 n=g#5 v=0
931321 On ch=1 n=g5 v=60
931636 On ch=1 n=d#5 v=44
931656 Par ch=1 c=64 v=88
931676 Par ch=1 c=64 v=56
931701 Par ch=1 c=64 v=72
931721 Par ch=1 c=64 v=127
931881 On ch=1 n=d#5 v=0
931931 On ch=1 n=b4 v=42
931936 On ch=1 n=g5 v=0
932211 On ch=1 n=d#6 v=0
932216 On ch=1 n=b4 v=0
932266 On ch=1 n=b5 v=56
932271 On ch=1 n=g4 v=38
932341 On ch=1 n=g4 v=0
932706 On ch=1 n=d#4 v=42
932941 On ch=1 n=d#4 v=0
933126 On ch=1 n=b5 v=0
933171 On ch=1 n=c6 v=60
933206 On ch=1 n=g#3 v=42
933226 Par ch=1 c=64 v=104
933246 Par ch=1 c=64 v=24
933266 Par ch=1 c=64 v=0
933401 Par ch=1 c=64 v=88
933421 Par ch=1 c=64 v=127
933491 On ch=1 n=g#3 v=0
933511 On ch=1 n=d#4 v=33
933686 On ch=1 n=d#4 v=0
933746 On ch=1 n=g#4 v=35
933976 On ch=1 n=g#4 v=0
934031 On ch=1 n=c5 v=52
934166 On ch=1 n=c6 v=0
934216 On ch=1 n=c5 v=0
934326 On ch=1 n=d#5 v=37
934681 On ch=1 n=g#5 v=35
935246 On ch=1 n=c6 v=52
935381 On ch=1 n=d#5 v=0
935416 On ch=1 n=g#5 v=0
935446 On ch=1 n=c6 v=0
937331 Par ch=1 c=64 v=104
937371 Par ch=1 c=64 v=88
937406 Par ch=1 c=64 v=72
937426 Par ch=1 c=64 v=56
937466 Par ch=1 c=64 v=40
937506 Par ch=1 c=64 v=24
937546 Par ch=1 c=64 v=0
938881 Par ch=1 c=64 v=24
938901 Par ch=1 c=64 v=72
938911 On ch=1 n=g#6 v=95
938916 On ch=1 n=g#5 v=83
938916 Par ch=1 c=64 v=104
938931 Par ch=1 c=64 v=127
938936 On ch=1 n=f3 v=70
939001 On ch=1 n=g#5 v=0
939006 On ch=1 n=f3 v=0
939011 On ch=1 n=g#6 v=0
939186 On ch=1 n=g#4 v=60
939336 On ch=1 n=g#4 v=0
939401 On ch=1 n=c6 v=90
939411 On ch=1 n=c5 v=74
939431 On ch=1 n=c4 v=63
939466 On ch=1 n=c4 v=0
939486 On ch=1 n=c5 v=0
939496 On ch=1 n=c6 v=0
939596 Par ch=1 c=64 v=72
939611 Par ch=1 c=64 v=0
939651 On ch=1 n=b4 v=82
939656 On ch=1 n=b5 v=90
939676 On ch=1 n=f3 v=48
939711 On ch=1 n=b4 v=0
939711 Par ch=1 c=64 v=88
939731 On ch=1 n=b5 v=0
939731 Par ch=1 c=64 v=127
939771 On ch=1 n=f3 v=0
939886 On ch=1 n=d6 v=94
939891 On ch=1 n=d5 v=82
939906 On ch=1 n=g4 v=45
939926 On ch=1 n=d5 v=0
939946 On ch=1 n=d6 v=0
940006 On ch=1 n=g4 v=0
940121 On ch=1 n=f#5 v=91
940126 On ch=1 n=f#6 v=89
940126 On ch=1 n=b3 v=62
940181 On ch=1 n=b3 v=0
940186 On ch=1 n=f#5 v=0
940231 On ch=1 n=f#6 v=0
940356 Par ch=1 c=64 v=0
940401 On ch=1 n=g6 v=94
940406 On ch=1 n=g5 v=84
940426 On ch=1 n=e3 v=59
940466 On ch=1 n=e3 v=0
940471 On ch=1 n=g5 v=0
940476 On ch=1 n=g6 v=0
940491 Par ch=1 c=64 v=127
940646 On ch=1 n=g4 v=72
940781 On ch=1 n=a#5 v=77
940781 On ch=1 n=a#4 v=71
940811 On ch=1 n=a#4 v=0
940811 On ch=1 n=a#5 v=0
940856 On ch=1 n=c4 v=66
940881 On ch=1 n=a#4 v=79
940881 On ch=1 n=a#5 v=89
940886 On ch=1 n=c4 v=0
940901 On ch=1 n=g4 v=0
940901 Par ch=1 c=64 v=88
940916 Par ch=1 c=64 v=56
940931 Par ch=1 c=64 v=24
940941 On ch=1 n=a#4 v=0
940951 Par ch=1 c=64 v=0
940956 On ch=1 n=a#5 v=0
941141 On ch=1 n=a#5 v=91
941141 On ch=1 n=a#4 v=79
941171 On ch=1 n=f3 v=59
941171 Par ch=1 c=64 v=56
941186 Par ch=1 c=64 v=104
941206 Par ch=1 c=64 v=127
941226 On ch=1 n=a#4 v=0
941261 On ch=1 n=a#5 v=0
941376 Par ch=1 c=64 v=88
941391 Par ch=1 c=64 v=24
941401 On ch=1 n=g#5 v=87
941401 On ch=1 n=g#4 v=80
941406 Par ch=1 c=64 v=0
941421 On ch=1 n=f4 v=58
941486 On ch=1 n=g#4 v=0
941496 Par ch=1 c=64 v=56
941511 Par ch=1 c=64 v=127
941551 On ch=1 n=g#5 v=0
941641 On ch=1 n=f4 v=0
941661 On ch=1 n=c4 v=60
941681 On ch=1 n=f3 v=0
941691 On ch=1 n=c4 v=0
941866 Par ch=1 c=64 v=72
941886 Par ch=1 c=64 v=0
941916 On ch=1 n=f6 v=100
941921 On ch=1 n=f5 v=89
941931 On ch=1 n=g#2 v=72
941986 Par ch=1 c=64 v=88
941996 On ch=1 n=g#2 v=0
941996 On ch=1 n=f5 v=0
942001 On ch=1 n=f6 v=0
942001 Par ch=1 c=64 v=127
942166 On ch=1 n=c4 v=64
942271 On ch=1 n=c4 v=0
942391 On ch=1 n=f5 v=82
942391 On ch=1 n=f3 v=58
942396 On ch=1 n=f4 v=81
942431 On ch=1 n=f3 v=0
942466 On ch=1 n=f4 v=0
942481 On ch=1 n=f5 v=0
942576 Par ch=1 c=64 v=104
942596 Par ch=1 c=64 v=24
942611 Par ch=1 c=64 v=0
942641 On ch=1 n=f#5 v=86
942641 On ch=1 n=f#4 v=81
942666 On ch=1 n=a#2 v=66
942696 Par ch=1 c=64 v=40
942716 Par ch=1 c=64 v=127
942766 On ch=1 n=a#2 v=0
942796 On ch=1 n=f#5 v=0
942801 On ch=1 n=f#4 v=0
942871 On ch=1 n=g4 v=82
942871 On ch=1 n=g5 v=90
942886 On ch=1 n=c#4 v=65
942926 On ch=1 n=g4 v=0
942951 On ch=1 n=g5 v=0
943126 On ch=1 n=f#6 v=90
943126 On ch=1 n=f#5 v=92
943131 On ch=1 n=f3 v=62
943186 On ch=1 n=f3 v=0
943186 On ch=1 n=f#5 v=0
943196 On ch=1 n=c#4 v=0
943306 On ch=1 n=f#6 v=0
943341 Par ch=1 c=64 v=40
943356 Par ch=1 c=64 v=0
943391 On ch=1 n=g6 v=97
943396 On ch=1 n=g5 v=86
943426 On ch=1 n=b2 v=70
943456 Par ch=1 c=64 v=72
943466 On ch=1 n=g5 v=0
943471 On ch=1 n=b2 v=0
943476 On ch=1 n=g6 v=0
943476 Par ch=1 c=64 v=127
943631 On ch=1 n=d4 v=60
943771 On ch=1 n=g5 v=86
943776 On ch=1 n=g4 v=74
943796 On ch=1 n=g5 v=0
943806 On ch=1 n=g4 v=0
943856 On ch=1 n=f3 v=59
943866 On ch=1 n=g5 v=84
943871 On ch=1 n=g4 v=68
943881 On ch=1 n=d4 v=0
943886 On ch=1 n=f3 v=0
943941 On ch=1 n=g4 v=0
943981 On ch=1 n=g5 v=0
944086 Par ch=1 c=64 v=88
944106 Par ch=1 c=64 v=0
944111 On ch=1 n=g#5 v=86
944111 On ch=1 n=g#4 v=85
944146 On ch=1 n=c3 v=64
944181 On ch=1 n=c3 v=0
944206 Par ch=1 c=64 v=104
944221 Par ch=1 c=64 v=127
944256 On ch=1 n=g#4 v=0
944281 On ch=1 n=g#5 v=0
944336 On ch=1 n=a4 v=78
944341 On ch=1 n=a5 v=90
944356 On ch=1 n=d#4 v=69
944391 On ch=1 n=a4 v=0
944421 On ch=1 n=a5 v=0
944596 On ch=1 n=d#4 v=0
944596 On ch=1 n=g#6 v=90
944601 On ch=1 n=g#5 v=93
944606 On ch=1 n=f3 v=65
944656 On ch=1 n=g#5 v=0
944706 On ch=1 n=f3 v=0
944781 On ch=1 n=g#6 v=0
944831 Par ch=1 c=64 v=56
944851 Par ch=1 c=64 v=0
944856 On ch=1 n=a6 v=97
944861 On ch=1 n=a5 v=90
944871 On ch=1 n=c#3 v=72
944936 On ch=1 n=a5 v=0
944941 On ch=1 n=c#3 v=0
944951 On ch=1 n=a6 v=0
944951 Par ch=1 c=64 v=127
945106 On ch=1 n=e4 v=64
945336 On ch=1 n=a5 v=90
945341 On ch=1 n=f3 v=63
945346 On ch=1 n=a4 v=77
945351 On ch=1 n=e4 v=0
945381 On ch=1 n=f3 v=0
945546 Par ch=1 c=64 v=56
945561 Par ch=1 c=64 v=0
945601 On ch=1 n=d3 v=73
945636 On ch=1 n=a4 v=0
945651 On ch=1 n=a5 v=0
945661 Par ch=1 c=64 v=127
945671 On ch=1 n=d3 v=0
945816 On ch=1 n=a#4 v=71
945826 On ch=1 n=a#5 v=87
945841 On ch=1 n=f4 v=66
945866 On ch=1 n=a#4 v=0
945901 On ch=1 n=a#5 v=0
946066 On ch=1 n=f4 v=0
946076 On ch=1 n=f3 v=60
946081 On ch=1 n=a#6 v=89
946081 On ch=1 n=a#5 v=97
946121 On ch=1 n=f3 v=0
946141 On ch=1 n=a#5 v=0
946281 On ch=1 n=a#6 v=0
946326 Par ch=1 c=64 v=24
946341 Par ch=1 c=64 v=0
946351 On ch=1 n=b6 v=102
946356 On ch=1 n=b5 v=88
946361 On ch=1 n=c#3 v=73
946426 Par ch=1 c=64 v=56
946431 On ch=1 n=b5 v=0
946441 On ch=1 n=b6 v=0
946441 Par ch=1 c=64 v=127
946476 On ch=1 n=c#3 v=0
946596 On ch=1 n=f4 v=69
946746 On ch=1 n=b5 v=88
946751 On ch=1 n=b4 v=76
946776 On ch=1 n=b5 v=0
946781 On ch=1 n=b4 v=0
946811 On ch=1 n=g3 v=63
946821 On ch=1 n=f4 v=0
946851 On ch=1 n=b4 v=80
946851 On ch=1 n=b5 v=90
946921 On ch=1 n=b4 v=0
946941 On ch=1 n=b5 v=0
946951 Par ch=1 c=64 v=72
946961 On ch=1 n=g3 v=0
946966 Par ch=1 c=64 v=0
947096 On ch=1 n=b5 v=99
947101 On ch=1 n=b4 v=90
947111 On ch=1 n=c3 v=61
947121 Par ch=1 c=64 v=40
947136 Par ch=1 c=64 v=104
947156 Par ch=1 c=64 v=127
947176 On ch=1 n=b4 v=0
947206 On ch=1 n=c3 v=0
947226 On ch=1 n=b5 v=0
947366 On ch=1 n=c6 v=87
947366 On ch=1 n=e4 v=63
947376 On ch=1 n=c5 v=78
947376 Par ch=1 c=64 v=56
947391 Par ch=1 c=64 v=0
947491 Par ch=1 c=64 v=40
947511 Par ch=1 c=64 v=127
947546 On ch=1 n=e4 v=0
947586 On ch=1 n=g3 v=65
947616 On ch=1 n=g3 v=0
947691 On ch=1 n=c5 v=0
947886 On ch=1 n=g#4 v=25
947901 Par ch=1 c=64 v=88
947916 Par ch=1 c=64 v=0
947926 On ch=1 n=g#4 v=0
947941 On ch=1 n=c4 v=56
948051 Par ch=1 c=64 v=72
948071 Par ch=1 c=64 v=127
948106 On ch=1 n=c6 v=0
948166 On ch=1 n=c5 v=56
948351 On ch=1 n=c4 v=0
948396 On ch=1 n=c6 v=70
948411 On ch=1 n=a#4 v=27
948421 On ch=1 n=g4 v=41
948516 On ch=1 n=c5 v=0
948556 On ch=1 n=g4 v=0
948631 Par ch=1 c=64 v=104
948636 On ch=1 n=c4 v=62
948646 Par ch=1 c=64 v=40
948661 Par ch=1 c=64 v=0
948681 On ch=1 n=a#4 v=0
948691 On ch=1 n=c4 v=0
948711 Par ch=1 c=64 v=40
948731 Par ch=1 c=64 v=88
948746 Par ch=1 c=64 v=127
948866 On ch=1 n=c#5 v=71
949021 On ch=1 n=c#5 v=0
949076 On ch=1 n=c#6 v=73
949091 On ch=1 n=c6 v=0
949091 On ch=1 n=a#4 v=33
949101 On ch=1 n=g4 v=47
949231 On ch=1 n=g4 v=0
949271 Par ch=1 c=64 v=72
949291 Par ch=1 c=64 v=0
949316 On ch=1 n=c4 v=62
949341 Par ch=1 c=64 v=40
949356 On ch=1 n=c4 v=0
949356 On ch=1 n=a#4 v=0
949356 Par ch=1 c=64 v=104
949376 Par ch=1 c=64 v=127
949501 On ch=1 n=c#6 v=0
949526 On ch=1 n=d5 v=77
949691 On ch=1 n=d5 v=0
949756 On ch=1 n=d6 v=77
949756 On ch=1 n=a#4 v=36
949776 On ch=1 n=g4 v=33
949931 On ch=1 n=g4 v=0
949931 Par ch=1 c=64 v=72
949951 Par ch=1 c=64 v=24
949966 Par ch=1 c=64 v=0
949976 On ch=1 n=c4 v=67
949986 Par ch=1 c=64 v=24
950001 Par ch=1 c=64 v=72
950021 On ch=1 n=c4 v=0
950021 Par ch=1 c=64 v=127
950036 On ch=1 n=a#4 v=0
950191 On ch=1 n=g5 v=65
950386 On ch=1 n=d6 v=0
950396 On ch=1 n=c#5 v=58
950401 On ch=1 n=g5 v=0
950406 On ch=1 n=a#4 v=57
950431 On ch=1 n=g6 v=82
950446 On ch=1 n=c#5 v=0
950461 On ch=1 n=a#4 v=0
950596 Par ch=1 c=64 v=88
950611 Par ch=1 c=64 v=24
950631 Par ch=1 c=64 v=0
950661 Par ch=1 c=64 v=56
950666 On ch=1 n=c4 v=62
950681 Par ch=1 c=64 v=127
950706 On ch=1 n=c4 v=0
950771 On ch=1 n=g6 v=0
950876 On ch=1 n=c6 v=78
950926 On ch=1 n=c6 v=0
951106 On ch=1 n=c5 v=47
951121 On ch=1 n=c7 v=95
951126 On ch=1 n=a4 v=47
951156 On ch=1 n=c5 v=0
951176 On ch=1 n=a4 v=0
951341 Par ch=1 c=64 v=88
951356 Par ch=1 c=64 v=24
951366 On ch=1 n=c4 v=58
951376 Par ch=1 c=64 v=0
951406 Par ch=1 c=64 v=40
951416 On ch=1 n=c4 v=0
951426 Par ch=1 c=64 v=88
951441 Par ch=1 c=64 v=127
951571 On ch=1 n=f5 v=59
951776 On ch=1 n=f6 v=84
951781 On ch=1 n=c7 v=0
951786 On ch=1 n=f5 v=0
951791 On ch=1 n=b4 v=52
951791 On ch=1 n=g#4 v=46
951821 On ch=1 n=b4 v=0
951836 On ch=1 n=g#4 v=0
951986 Par ch=1 c=64 v=104
952001 Par ch=1 c=64 v=56
952016 Par ch=1 c=64 v=24
952041 On ch=1 n=c4 v=63
952071 On ch=1 n=c4 v=0
952071 Par ch=1 c=64 v=127
952171 On ch=1 n=f6 v=0
952261 On ch=1 n=f5 v=64
952421 On ch=1 n=f5 v=0
952486 On ch=1 n=c5 v=58
952496 On ch=1 n=f6 v=82
952516 On ch=1 n=c5 v=0
952521 On ch=1 n=g4 v=52
952556 On ch=1 n=g4 v=0
952741 On ch=1 n=c4 v=59
952746 Par ch=1 c=64 v=56
952766 Par ch=1 c=64 v=0
952781 On ch=1 n=c4 v=0
952796 Par ch=1 c=64 v=24
952811 Par ch=1 c=64 v=88
952831 Par ch=1 c=64 v=127
952971 On ch=1 n=e5 v=46
953126 On ch=1 n=e5 v=0
953166 On ch=1 n=e6 v=74
953181 On ch=1 n=f6 v=0
953186 On ch=1 n=g4 v=61
953201 On ch=1 n=c5 v=48
953226 On ch=1 n=g4 v=0
953236 On ch=1 n=c5 v=0
953241 On ch=1 n=e6 v=0
953441 Par ch=1 c=64 v=56
953456 On ch=1 n=c4 v=63
953461 Par ch=1 c=64 v=0
953491 Par ch=1 c=64 v=40
953511 Par ch=1 c=64 v=88
953526 Par ch=1 c=64 v=127
953541 On ch=1 n=c4 v=0
953656 On ch=1 n=c5 v=57
953816 On ch=1 n=c5 v=0
953881 On ch=1 n=c7 v=87
953886 On ch=1 n=c6 v=79
953906 On ch=1 n=a#4 v=37
953911 On ch=1 n=g4 v=46
954086 On ch=1 n=g4 v=0
954101 Par ch=1 c=64 v=56
954116 Par ch=1 c=64 v=0
954146 On ch=1 n=c4 v=58
954171 Par ch=1 c=64 v=88
954176 On ch=1 n=c4 v=0
954186 Par ch=1 c=64 v=127
954211 On ch=1 n=a#4 v=0
954241 On ch=1 n=c6 v=0
954326 On ch=1 n=c#5 v=85
954371 On ch=1 n=c7 v=0
954536 On ch=1 n=c#5 v=0
954561 On ch=1 n=a#4 v=36
954566 On ch=1 n=c#7 v=91
954571 On ch=1 n=c#6 v=79
954571 On ch=1 n=g4 v=51
954736 On ch=1 n=g4 v=0
954751 On ch=1 n=a#4 v=0
954766 Par ch=1 c=64 v=88
954781 Par ch=1 c=64 v=24
954796 Par ch=1 c=64 v=0
954801 On ch=1 n=c4 v=63
954831 Par ch=1 c=64 v=56
954841 On ch=1 n=c4 v=0
954846 Par ch=1 c=64 v=127
954876 On ch=1 n=c#6 v=0
954941 On ch=1 n=c#7 v=0
954991 On ch=1 n=d5 v=92
955226 On ch=1 n=d7 v=94
955226 On ch=1 n=g4 v=51
955231 On ch=1 n=d5 v=0
955231 On ch=1 n=a#4 v=43
955236 On ch=1 n=d6 v=86
955271 Par ch=1 c=64 v=88
955291 Par ch=1 c=64 v=40
955306 Par ch=1 c=64 v=0
955321 Par ch=1 c=64 v=40
955336 Par ch=1 c=64 v=88
955356 Par ch=1 c=64 v=127
955416 On ch=1 n=d6 v=0
955446 On ch=1 n=g4 v=0
955476 On ch=1 n=c4 v=34
955501 On ch=1 n=c4 v=0
955511 On ch=1 n=a#4 v=0
955531 On ch=1 n=d7 v=0
955666 On ch=1 n=g5 v=84
955861 On ch=1 n=c#5 v=45
955876 On ch=1 n=a#4 v=42
955881 On ch=1 n=g5 v=0
955891 On ch=1 n=c#5 v=0
955891 On ch=1 n=g7 v=100
955896 On ch=1 n=g6 v=88
955901 On ch=1 n=a#4 v=0
956051 Par ch=1 c=64 v=88
956066 Par ch=1 c=64 v=24
956086 Par ch=1 c=64 v=0
956131 On ch=1 n=c4 v=72
956136 Par ch=1 c=64 v=72
956151 Par ch=1 c=64 v=127
956156 On ch=1 n=c4 v=0
956156 On ch=1 n=g6 v=0
956211 On ch=1 n=g7 v=0
956336 On ch=1 n=c6 v=86
956391 On ch=1 n=c6 v=0
956606 On ch=1 n=c8 v=93
956606 On ch=1 n=a4 v=50
956606 On ch=1 n=c7 v=77
956606 On ch=1 n=c5 v=70
956646 On ch=1 n=a4 v=0
956651 On ch=1 n=c5 v=0
956846 Par ch=1 c=64 v=88
956866 Par ch=1 c=64 v=24
956881 Par ch=1 c=64 v=0
956896 On ch=1 n=c4 v=51
956896 Par ch=1 c=64 v=40
956911 On ch=1 n=c8 v=0
956916 Par ch=1 c=64 v=88
956926 On ch=1 n=c4 v=0
956936 Par ch=1 c=64 v=127
956941 On ch=1 n=c7 v=0
957071 On ch=1 n=f5 v=65
957266 On ch=1 n=f5 v=0
957286 On ch=1 n=f7 v=87
957286 On ch=1 n=b4 v=45
957291 On ch=1 n=g#4 v=45
957296 On ch=1 n=f6 v=79
957321 On ch=1 n=b4 v=0
957351 On ch=1 n=g#4 v=0
957511 Par ch=1 c=64 v=104
957526 Par ch=1 c=64 v=56
957541 Par ch=1 c=64 v=24
957561 On ch=1 n=c4 v=61
957561 Par ch=1 c=64 v=40
957576 Par ch=1 c=64 v=104
957591 On ch=1 n=c4 v=0
957596 Par ch=1 c=64 v=127
957756 On ch=1 n=f5 v=64
957821 On ch=1 n=f6 v=0
957876 On ch=1 n=f7 v=0
957971 On ch=1 n=f5 v=0
957981 On ch=1 n=c5 v=56
957986 On ch=1 n=f7 v=88
957996 On ch=1 n=f6 v=72
958006 On ch=1 n=g4 v=55
958011 On ch=1 n=c5 v=0
958051 On ch=1 n=g4 v=0
958241 On ch=1 n=c4 v=64
958241 Par ch=1 c=64 v=72
958256 Par ch=1 c=64 v=40
958291 Par ch=1 c=64 v=88
958306 Par ch=1 c=64 v=127
958331 On ch=1 n=c4 v=0
958411 On ch=1 n=f6 v=0
958421 On ch=1 n=f7 v=0
958486 On ch=1 n=e5 v=64
958631 On ch=1 n=e5 v=0
958741 On ch=1 n=e7 v=75
958751 On ch=1 n=e6 v=64
958761 On ch=1 n=g4 v=47
958781 On ch=1 n=c5 v=45
958811 On ch=1 n=e7 v=0
958816 On ch=1 n=c5 v=0
958826 On ch=1 n=g4 v=0
958826 On ch=1 n=e6 v=0
959136 On ch=1 n=g#6 v=96
959136 Par ch=1 c=64 v=72
959141 On ch=1 n=g#5 v=81
959151 Par ch=1 c=64 v=0
959161 On ch=1 n=f3 v=55
959241 On ch=1 n=f3 v=0
959256 Par ch=1 c=64 v=127
959296 On ch=1 n=g#6 v=0
959301 On ch=1 n=g#5 v=0
959381 On ch=1 n=g#4 v=64
959521 On ch=1 n=g#4 v=0
959611 On ch=1 n=c6 v=93
959611 On ch=1 n=c4 v=63
959616 On ch=1 n=c5 v=81
959676 On ch=1 n=c5 v=0
959696 On ch=1 n=c6 v=0
959701 On ch=1 n=c4 v=0
959811 Par ch=1 c=64 v=56
959831 Par ch=1 c=64 v=0
959845 On ch=1 n=b5 v=93
959845 On ch=1 n=b4 v=84
959866 On ch=1 n=f3 v=53
959881 Par ch=1 c=64 v=40
959900 On ch=1 n=b4 v=0
959901 Par ch=1 c=64 v=127
959915 On ch=1 n=b5 v=0
959956 On ch=1 n=f3 v=0
960061 On ch=1 n=d6 v=100
960066 On ch=1 n=d5 v=89
960066 On ch=1 n=g4 v=56
960106 On ch=1 n=d5 v=0
960106 On ch=1 n=d6 v=0
960186 On ch=1 n=g4 v=0
960276 On ch=1 n=b3 v=62
960286 On ch=1 n=f#6 v=91
960286 On ch=1 n=f#5 v=92
960306 On ch=1 n=b3 v=0
960341 On ch=1 n=f#5 v=0
960381 On ch=1 n=f#6 v=0
960526 Par ch=1 c=64 v=24
960541 Par ch=1 c=64 v=0
960571 On ch=1 n=g6 v=95
960576 On ch=1 n=g5 v=86
960576 On ch=1 n=e3 v=67
960621 On ch=1 n=e3 v=0
960641 Par ch=1 c=64 v=127
960671 On ch=1 n=g6 v=0
960676 On ch=1 n=g5 v=0
960791 On ch=1 n=g4 v=54
960936 On ch=1 n=a#4 v=74
960941 On ch=1 n=a#5 v=78
960971 On ch=1 n=a#5 v=0
960971 On ch=1 n=c4 v=62
960981 On ch=1 n=g4 v=0
960986 On ch=1 n=a#4 v=0
961011 On ch=1 n=c4 v=0
961016 Par ch=1 c=64 v=72
961036 Par ch=1 c=64 v=24
961041 On ch=1 n=a#4 v=77
961041 On ch=1 n=a#5 v=85
961051 Par ch=1 c=64 v=0
961116 On ch=1 n=a#4 v=0
961131 On ch=1 n=a#5 v=0
961276 On ch=1 n=a#5 v=92
961276 On ch=1 n=a#4 v=88
961306 On ch=1 n=f3 v=64
961321 Par ch=1 c=64 v=56
961341 Par ch=1 c=64 v=104
961351 On ch=1 n=a#4 v=0
961356 Par ch=1 c=64 v=127
961391 On ch=1 n=a#5 v=0
961476 Par ch=1 c=64 v=88
961491 Par ch=1 c=64 v=40
961521 On ch=1 n=g#4 v=79
961526 On ch=1 n=g#5 v=85
961546 On ch=1 n=f4 v=65
961546 Par ch=1 c=64 v=104
961561 Par ch=1 c=64 v=127
961581 On ch=1 n=g#4 v=0
961626 On ch=1 n=g#5 v=0
961706 On ch=1 n=f4 v=0
961746 On ch=1 n=c4 v=74
961756 On ch=1 n=f3 v=0
961776 On ch=1 n=c4 v=0
961936 Par ch=1 c=64 v=72
961951 Par ch=1 c=64 v=0
962001 On ch=1 n=f6 v=97
962011 On ch=1 n=f5 v=86
962051 Par ch=1 c=64 v=88
962056 On ch=1 n=g#2 v=62
962071 Par ch=1 c=64 v=127
962086 On ch=1 n=f5 v=0
962086 On ch=1 n=f6 v=0
962141 On ch=1 n=g#2 v=0
962236 On ch=1 n=c4 v=81
962416 On ch=1 n=c4 v=0
962481 On ch=1 n=f5 v=94
962486 On ch=1 n=f4 v=87
962486 On ch=1 n=f3 v=63
962516 On ch=1 n=f3 v=0
962561 On ch=1 n=f4 v=0
962581 On ch=1 n=f5 v=0
962731 Par ch=1 c=64 v=24
962736 On ch=1 n=f#4 v=96
962736 On ch=1 n=f#5 v=95
962746 On ch=1 n=a#2 v=62
962746 Par ch=1 c=64 v=0
962831 Par ch=1 c=64 v=56
962846 Par ch=1 c=64 v=127
962886 On ch=1 n=a#2 v=0
962931 On ch=1 n=f#5 v=0
962966 On ch=1 n=a#4 v=84
962971 On ch=1 n=c#4 v=69
962986 On ch=1 n=f#4 v=0
963036 On ch=1 n=a#4 v=0
963206 On ch=1 n=f#3 v=64
963221 On ch=1 n=c#6 v=96
963221 On ch=1 n=c#5 v=97
963221 On ch=1 n=c#3 v=70
963236 On ch=1 n=c#4 v=0
963271 On ch=1 n=c#3 v=0
963271 On ch=1 n=c#5 v=0
963311 On ch=1 n=c#6 v=0
963391 Par ch=1 c=64 v=88
963406 Par ch=1 c=64 v=24
963426 Par ch=1 c=64 v=0
963461 On ch=1 n=f#3 v=0
963506 On ch=1 n=c6 v=96
963506 On ch=1 n=c3 v=73
963511 On ch=1 n=c5 v=89
963526 Par ch=1 c=64 v=104
963546 Par ch=1 c=64 v=127
963566 On ch=1 n=c3 v=0
963571 On ch=1 n=c5 v=0
963576 On ch=1 n=c6 v=0
963696 Par ch=1 c=64 v=72
963711 Par ch=1 c=64 v=24
963731 Par ch=1 c=64 v=0
963926 On ch=1 n=e5 v=87
963926 On ch=1 n=e4 v=88
963931 On ch=1 n=a#4 v=63
963936 On ch=1 n=c4 v=78
963946 On ch=1 n=c3 v=56
963956 On ch=1 n=e4 v=0
963956 On ch=1 n=e5 v=0
963961 On ch=1 n=a#4 v=0
963966 On ch=1 n=c4 v=0
963976 On ch=1 n=c3 v=0
964011 On ch=1 n=e5 v=85
964016 On ch=1 n=e4 v=97
964016 On ch=1 n=a#4 v=64
964041 On ch=1 n=c4 v=85
964041 On ch=1 n=c3 v=68
964111 On ch=1 n=c3 v=0
964111 On ch=1 n=c4 v=0
964111 On ch=1 n=e4 v=0
964116 On ch=1 n=a#4 v=0
964151 On ch=1 n=e5 v=0
964331 On ch=1 n=f5 v=97
964331 On ch=1 n=g#4 v=86
964336 On ch=1 n=f4 v=97
964336 On ch=1 n=f3 v=80
964336 On ch=1 n=c4 v=83
964381 On ch=1 n=c4 v=0
964391 On ch=1 n=f3 v=0
964426 Par ch=1 c=64 v=127
964576 Par ch=1 c=64 v=88
964596 Par ch=1 c=64 v=0
964666 On ch=1 n=f2 v=87
964676 Par ch=1 c=64 v=56
964696 Par ch=1 c=64 v=127
964731 On ch=1 n=f2 v=0
964736 On ch=1 n=f4 v=0
964736 On ch=1 n=g#4 v=0
964741 On ch=1 n=f5 v=0
965236 Par ch=1 c=64 v=104
965256 Par ch=1 c=64 v=88
965271 Par ch=1 c=64 v=56
965291 Par ch=1 c=64 v=40
965306 Par ch=1 c=64 v=24
965321 Par ch=1 c=64 v=0
967201 On ch=1 n=g#3 v=53
967206 On ch=1 n=g#6 v=74
967211 On ch=1 n=g#5 v=60
967216 Par ch=1 c=64 v=56
967231 Par ch=1 c=64 v=127
967261 On ch=1 n=g#3 v=0
967266 On ch=1 n=g#5 v=0
967356 On ch=1 n=g#5 v=65
967416 On ch=1 n=g#5 v=0
967441 On ch=1 n=g#6 v=0
967506 On ch=1 n=d#4 v=58
967511 On ch=1 n=c5 v=54
967511 On ch=1 n=c6 v=72
967516 On ch=1 n=c7 v=87
967521 On ch=1 n=g#4 v=34
967521 Par ch=1 c=64 v=104
967536 Par ch=1 c=64 v=88
967551 On ch=1 n=g#4 v=0
967551 On ch=1 n=c6 v=0
967551 On ch=1 n=c5 v=0
967566 On ch=1 n=d#4 v=0
967571 Par ch=1 c=64 v=72
967586 Par ch=1 c=64 v=56
967616 Par ch=1 c=64 v=40
967631 Par ch=1 c=64 v=24
967661 On ch=1 n=c6 v=76
967666 On ch=1 n=d#4 v=38
967676 On ch=1 n=c5 v=43
967691 On ch=1 n=c6 v=0
967696 Par ch=1 c=64 v=0
967711 On ch=1 n=c5 v=0
967716 On ch=1 n=d#4 v=0
967751 On ch=1 n=c7 v=0
967806 On ch=1 n=b6 v=82
967806 On ch=1 n=b5 v=73
967816 On ch=1 n=g#4 v=34
967821 On ch=1 n=b4 v=58
967831 On ch=1 n=d4 v=58
967841 Par ch=1 c=64 v=24
967856 Par ch=1 c=64 v=56
967861 On ch=1 n=b5 v=0
967871 On ch=1 n=d4 v=0
967871 Par ch=1 c=64 v=72
967881 On ch=1 n=g#4 v=0
967886 Par ch=1 c=64 v=88
967896 On ch=1 n=b4 v=0
967916 On ch=1 n=b6 v=0
967946 On ch=1 n=b5 v=68
968001 Par ch=1 c=64 v=72
968011 On ch=1 n=b5 v=0
968031 Par ch=1 c=64 v=56
968046 Par ch=1 c=64 v=40
968096 Par ch=1 c=64 v=24
968101 On ch=1 n=c7 v=85
968106 On ch=1 n=c6 v=74
968111 On ch=1 n=g#4 v=40
968111 On ch=1 n=d#4 v=51
968121 On ch=1 n=c5 v=33
968141 On ch=1 n=g#4 v=0
968141 On ch=1 n=c6 v=0
968146 On ch=1 n=d#4 v=0
968151 On ch=1 n=c5 v=0
968161 Par ch=1 c=64 v=0
968241 On ch=1 n=c6 v=72
968286 On ch=1 n=c7 v=0
968306 On ch=1 n=c6 v=0
968396 On ch=1 n=g#3 v=64
968401 Par ch=1 c=64 v=56
968411 On ch=1 n=g#5 v=69
968411 On ch=1 n=g#6 v=81
968416 Par ch=1 c=64 v=104
968431 Par ch=1 c=64 v=127
968441 On ch=1 n=g#3 v=0
968461 On ch=1 n=g#5 v=0
968566 On ch=1 n=g#5 v=61
968611 On ch=1 n=g#5 v=0
968696 On ch=1 n=d#4 v=58
968696 On ch=1 n=c5 v=63
968701 On ch=1 n=g#5 v=56
968701 On ch=1 n=g#4 v=37
968721 On ch=1 n=c5 v=0
968731 On ch=1 n=g#4 v=0
968731 On ch=1 n=d#4 v=0
968761 On ch=1 n=g#5 v=0
968766 Par ch=1 c=64 v=104
968831 On ch=1 n=g#5 v=58
968841 On ch=1 n=c5 v=64
968841 On ch=1 n=d#4 v=54
968841 On ch=1 n=g#4 v=47
968871 On ch=1 n=d#4 v=0
968871 On ch=1 n=c5 v=0
968876 On ch=1 n=g#4 v=0
968896 On ch=1 n=g#5 v=0
968926 Par ch=1 c=64 v=24
968941 Par ch=1 c=64 v=0
968981 On ch=1 n=g#5 v=52
968986 On ch=1 n=b4 v=59
968991 On ch=1 n=g#4 v=49
969006 On ch=1 n=d4 v=51
969021 Par ch=1 c=64 v=24
969036 Par ch=1 c=64 v=56
969041 On ch=1 n=g#5 v=0
969046 On ch=1 n=d4 v=0
969046 On ch=1 n=g#4 v=0
969051 Par ch=1 c=64 v=72
969061 On ch=1 n=b4 v=0
969071 Par ch=1 c=64 v=88
969121 On ch=1 n=g#5 v=59
969181 Par ch=1 c=64 v=56
969191 On ch=1 n=g#5 v=0
969196 Par ch=1 c=64 v=24
969216 Par ch=1 c=64 v=0
969236 On ch=1 n=g#6 v=0
969261 Par ch=1 c=64 v=40
969276 Par ch=1 c=64 v=56
969281 On ch=1 n=g6 v=81
969286 On ch=1 n=g5 v=64
969291 On ch=1 n=g4 v=52
969291 On ch=1 n=d#4 v=53
969291 On ch=1 n=c5 v=49
969296 Par ch=1 c=64 v=72
969311 Par ch=1 c=64 v=88
969321 On ch=1 n=c5 v=0
969321 On ch=1 n=g4 v=0
969331 On ch=1 n=g5 v=0
969351 On ch=1 n=d#4 v=0
969426 On ch=1 n=g5 v=59
969436 Par ch=1 c=64 v=104
969486 On ch=1 n=g5 v=0
969486 On ch=1 n=g6 v=0
969501 Par ch=1 c=64 v=56
969516 Par ch=1 c=64 v=24
969536 Par ch=1 c=64 v=0
969576 On ch=1 n=g#3 v=58
969581 On ch=1 n=f6 v=83
969591 On ch=1 n=f5 v=66
969631 Par ch=1 c=64 v=24
969641 On ch=1 n=f5 v=0
969641 On ch=1 n=g#3 v=0
969646 Par ch=1 c=64 v=72
969661 Par ch=1 c=64 v=104
969676 Par ch=1 c=64 v=127
969736 On ch=1 n=f5 v=60
969786 On ch=1 n=f5 v=0
969806 Par ch=1 c=64 v=88
969821 On ch=1 n=f6 v=0
969821 Par ch=1 c=64 v=56
969836 Par ch=1 c=64 v=40
969876 On ch=1 n=g4 v=52
969881 On ch=1 n=c#5 v=34
969886 On ch=1 n=g6 v=87
969886 On ch=1 n=g5 v=63
969886 Par ch=1 c=64 v=72
969891 On ch=1 n=g#4 v=29
969916 On ch=1 n=c#5 v=0
969916 Par ch=1 c=64 v=88
969926 On ch=1 n=g#4 v=0
969926 On ch=1 n=g4 v=0
969936 On ch=1 n=g5 v=0
970016 On ch=1 n=g5 v=59
970016 On ch=1 n=g4 v=52
970021 On ch=1 n=c#5 v=44
970036 On ch=1 n=g#4 v=43
970046 Par ch=1 c=64 v=104
970066 On ch=1 n=g#4 v=0
970066 On ch=1 n=c#5 v=0
970076 On ch=1 n=g5 v=0
970086 On ch=1 n=g4 v=0
970106 Par ch=1 c=64 v=72
970126 Par ch=1 c=64 v=24
970131 On ch=1 n=g6 v=0
970141 Par ch=1 c=64 v=0
970171 On ch=1 n=g#5 v=74
970176 On ch=1 n=c#5 v=46
970186 On ch=1 n=g#6 v=85
970196 On ch=1 n=g4 v=44
970211 On ch=1 n=f4 v=44
970221 Par ch=1 c=64 v=24
970236 Par ch=1 c=64 v=56
970241 On ch=1 n=g#5 v=0
970246 On ch=1 n=g4 v=0
970251 On ch=1 n=f4 v=0
970251 Par ch=1 c=64 v=88
970271 Par ch=1 c=64 v=104
970291 On ch=1 n=g#6 v=0
970306 On ch=1 n=c#5 v=0
970331 On ch=1 n=g#5 v=71
970381 Par ch=1 c=64 v=56
970386 On ch=1 n=g#5 v=0
970396 Par ch=1 c=64 v=0
970461 On ch=1 n=c#5 v=49
970471 On ch=1 n=g4 v=59
970471 On ch=1 n=e4 v=53
970476 On ch=1 n=a#5 v=71
970476 On ch=1 n=a#6 v=77
970476 Par ch=1 c=64 v=24
970491 Par ch=1 c=64 v=56
970496 On ch=1 n=g4 v=0
970506 Par ch=1 c=64 v=72
970511 On ch=1 n=c#5 v=0
970521 Par ch=1 c=64 v=88
970531 On ch=1 n=a#5 v=0
970541 Par ch=1 c=64 v=104
970546 On ch=1 n=e4 v=0
970616 On ch=1 n=a#5 v=68
970691 On ch=1 n=a#5 v=0
970701 Par ch=1 c=64 v=40
970716 Par ch=1 c=64 v=0
970731 On ch=1 n=a#6 v=0
970776 On ch=1 n=c6 v=77
970776 On ch=1 n=c7 v=87
970776 On ch=1 n=g#3 v=58
970831 Par ch=1 c=64 v=40
970836 On ch=1 n=c6 v=0
970846 Par ch=1 c=64 v=72
970851 On ch=1 n=g#3 v=0
970861 Par ch=1 c=64 v=104
970876 Par ch=1 c=64 v=127
970941 On ch=1 n=c6 v=70
970991 On ch=1 n=c6 v=0
971066 On ch=1 n=d#4 v=52
971076 On ch=1 n=c5 v=54
971076 On ch=1 n=g#4 v=36
971086 On ch=1 n=c6 v=61
971101 Par ch=1 c=64 v=104
971106 On ch=1 n=g#4 v=0
971106 On ch=1 n=c5 v=0
971116 On ch=1 n=d#4 v=0
971121 On ch=1 n=c6 v=0
971206 On ch=1 n=d#4 v=44
971206 On ch=1 n=c6 v=66
971216 On ch=1 n=c5 v=44
971226 On ch=1 n=g#4 v=37
971251 On ch=1 n=g#4 v=0
971251 On ch=1 n=c5 v=0
971266 On ch=1 n=c6 v=0
971266 On ch=1 n=d#4 v=0
971291 Par ch=1 c=64 v=56
971311 Par ch=1 c=64 v=0
971356 On ch=1 n=c6 v=64
971361 On ch=1 n=g#4 v=51
971366 On ch=1 n=b4 v=47
971371 On ch=1 n=d4 v=51
971411 On ch=1 n=b4 v=0
971416 On ch=1 n=d4 v=0
971416 On ch=1 n=c6 v=0
971421 On ch=1 n=g#4 v=0
971421 Par ch=1 c=64 v=40
971436 Par ch=1 c=64 v=72
971451 Par ch=1 c=64 v=88
971501 On ch=1 n=c6 v=62
971501 Par ch=1 c=64 v=104
971566 On ch=1 n=c6 v=0
971626 Par ch=1 c=64 v=88
971651 On ch=1 n=c6 v=64
971661 On ch=1 n=g#4 v=48
971671 On ch=1 n=c5 v=53
971671 On ch=1 n=d#4 v=46
971696 On ch=1 n=g#4 v=0
971701 On ch=1 n=c5 v=0
971706 On ch=1 n=d#4 v=0
971711 On ch=1 n=c6 v=0
971786 On ch=1 n=c6 v=67
971816 On ch=1 n=c7 v=0
971846 On ch=1 n=c6 v=0
971881 Par ch=1 c=64 v=0
971946 On ch=1 n=g#6 v=77
971946 On ch=1 n=g#3 v=55
971946 On ch=1 n=g#5 v=76
971981 Par ch=1 c=64 v=24
971996 On ch=1 n=g#5 v=0
971996 Par ch=1 c=64 v=72
972011 Par ch=1 c=64 v=127
972016 On ch=1 n=g#3 v=0
972031 On ch=1 n=g#6 v=0
972091 On ch=1 n=g#5 v=67
972131 On ch=1 n=g#5 v=0
972226 On ch=1 n=c7 v=89
972231 On ch=1 n=c6 v=75
972241 On ch=1 n=c5 v=53
972246 On ch=1 n=d#4 v=47
972251 On ch=1 n=g#4 v=31
972276 On ch=1 n=c5 v=0
972276 On ch=1 n=c6 v=0
972286 On ch=1 n=g#4 v=0
972286 On ch=1 n=d#4 v=0
972371 On ch=1 n=c6 v=68
972386 On ch=1 n=d#4 v=40
972401 On ch=1 n=c5 v=47
972401 On ch=1 n=g#4 v=32
972431 On ch=1 n=c6 v=0
972436 On ch=1 n=g#4 v=0
972436 On ch=1 n=c5 v=0
972451 On ch=1 n=d#4 v=0
972481 On ch=1 n=c7 v=0
972491 Par ch=1 c=64 v=72
972506 Par ch=1 c=64 v=40
972516 On ch=1 n=b6 v=85
972521 On ch=1 n=b5 v=71
972521 Par ch=1 c=64 v=0
972551 On ch=1 n=b4 v=53
972551 On ch=1 n=g#4 v=39
972571 On ch=1 n=d4 v=44
972571 Par ch=1 c=64 v=40
972576 On ch=1 n=b5 v=0
972586 Par ch=1 c=64 v=72
972601 Par ch=1 c=64 v=104
972611 On ch=1 n=g#4 v=0
972611 On ch=1 n=b4 v=0
972616 On ch=1 n=d4 v=0
972616 Par ch=1 c=64 v=127
972631 On ch=1 n=b6 v=0
972666 On ch=1 n=b5 v=59
972726 On ch=1 n=b5 v=0
972811 On ch=1 n=c7 v=87
972811 On ch=1 n=g#4 v=51
972811 On ch=1 n=d#4 v=63
972811 Par ch=1 c=64 v=104
972816 On ch=1 n=c6 v=78
972821 On ch=1 n=c5 v=51
972841 On ch=1 n=g#4 v=0
972851 On ch=1 n=c5 v=0
972866 On ch=1 n=c6 v=0
972866 On ch=1 n=d#4 v=0
972926 On ch=1 n=c6 v=76
972956 Par ch=1 c=64 v=127
972981 On ch=1 n=c6 v=0
973011 On ch=1 n=c7 v=0
973036 Par ch=1 c=64 v=88
973051 Par ch=1 c=64 v=40
973066 Par ch=1 c=64 v=0
973116 On ch=1 n=g#6 v=85
973116 On ch=1 n=g#7 v=100
973131 On ch=1 n=f3 v=66
973161 Par ch=1 c=64 v=40
973171 On ch=1 n=g#6 v=0
973176 Par ch=1 c=64 v=104
973196 Par ch=1 c=64 v=127
973216 On ch=1 n=f3 v=0
973261 On ch=1 n=g#6 v=62
973326 On ch=1 n=g#6 v=0
973406 On ch=1 n=g#6 v=60
973406 On ch=1 n=g#4 v=39
973411 On ch=1 n=c5 v=47
973416 On ch=1 n=f4 v=41
973441 On ch=1 n=c5 v=0
973441 On ch=1 n=g#4 v=0
973451 On ch=1 n=f4 v=0
973466 On ch=1 n=g#6 v=0
973536 On ch=1 n=g#6 v=62
973536 On ch=1 n=f4 v=38
973541 On ch=1 n=g#4 v=43
973551 On ch=1 n=c5 v=41
973586 On ch=1 n=c5 v=0
973586 On ch=1 n=g#4 v=0
973591 On ch=1 n=f4 v=0
973601 On ch=1 n=g#6 v=0
973626 Par ch=1 c=64 v=88
973641 Par ch=1 c=64 v=56
973656 Par ch=1 c=64 v=0
973676 On ch=1 n=g#6 v=61
973676 On ch=1 n=g#4 v=57
973696 On ch=1 n=e4 v=63
973696 On ch=1 n=c5 v=60
973721 Par ch=1 c=64 v=40
973736 Par ch=1 c=64 v=88
973746 On ch=1 n=g#6 v=0
973751 Par ch=1 c=64 v=127
973766 On ch=1 n=c5 v=0
973766 On ch=1 n=e4 v=0
973766 On ch=1 n=g#4 v=0
973811 On ch=1 n=g#6 v=60
973901 On ch=1 n=g#6 v=0
973911 Par ch=1 c=64 v=104
973921 On ch=1 n=g#7 v=0
973931 Par ch=1 c=64 v=56
973946 Par ch=1 c=64 v=0
973966 On ch=1 n=g7 v=83
973971 On ch=1 n=g#4 v=60
973976 On ch=1 n=g6 v=69
973981 On ch=1 n=c5 v=62
973986 On ch=1 n=f4 v=62
973991 Par ch=1 c=64 v=24
974006 Par ch=1 c=64 v=72
974016 On ch=1 n=c5 v=0
974021 On ch=1 n=g6 v=0
974026 On ch=1 n=f4 v=0
974026 Par ch=1 c=64 v=104
974031 On ch=1 n=g#4 v=0
974041 Par ch=1 c=64 v=127
974111 On ch=1 n=g6 v=69
974171 On ch=1 n=g6 v=0
974171 On ch=1 n=g7 v=0
974231 Par ch=1 c=64 v=88
974246 Par ch=1 c=64 v=0
974256 On ch=1 n=a#3 v=68
974256 On ch=1 n=f7 v=84
974271 On ch=1 n=f6 v=74
974321 On ch=1 n=a#3 v=0
974326 On ch=1 n=f6 v=0
974326 Par ch=1 c=64 v=24
974346 Par ch=1 c=64 v=88
974361 Par ch=1 c=64 v=127
974411 On ch=1 n=f6 v=63
974461 On ch=1 n=f6 v=0
974496 On ch=1 n=f7 v=0
974546 On ch=1 n=g#4 v=54
974551 On ch=1 n=g7 v=89
974551 On ch=1 n=d5 v=56
974561 On ch=1 n=a#4 v=37
974566 On ch=1 n=g6 v=62
974591 On ch=1 n=d5 v=0
974596 On ch=1 n=g6 v=0
974596 On ch=1 n=a#4 v=0
974616 On ch=1 n=g#4 v=0
974686 On ch=1 n=g#4 v=42
974691 On ch=1 n=g6 v=71
974711 On ch=1 n=d5 v=55
974741 On ch=1 n=d5 v=0
974746 On ch=1 n=g6 v=0
974776 On ch=1 n=g#4 v=0
974796 On ch=1 n=g7 v=0
974821 Par ch=1 c=64 v=88
974841 On ch=1 n=g#7 v=88
974841 On ch=1 n=g#6 v=75
974841 Par ch=1 c=64 v=56
974846 On ch=1 n=g4 v=59
974856 On ch=1 n=d5 v=55
974861 On ch=1 n=a#4 v=30
974886 Par ch=1 c=64 v=127
974901 On ch=1 n=g#6 v=0
974931 On ch=1 n=g4 v=0
974941 On ch=1 n=d5 v=0
974951 On ch=1 n=a#4 v=0
974981 On ch=1 n=g#6 v=65
975036 On ch=1 n=g#6 v=0
975081 Par ch=1 c=64 v=104
975096 On ch=1 n=g#7 v=0
975096 Par ch=1 c=64 v=56
975126 On ch=1 n=d5 v=63
975126 Par ch=1 c=64 v=72
975131 On ch=1 n=a#7 v=77
975131 On ch=1 n=a#4 v=47
975131 On ch=1 n=a#6 v=74
975141 On ch=1 n=f4 v=53
975141 Par ch=1 c=64 v=104
975161 Par ch=1 c=64 v=127
975166 On ch=1 n=d5 v=0
975191 On ch=1 n=f4 v=0
975191 On ch=1 n=a#4 v=0
975196 On ch=1 n=a#6 v=0
975261 On ch=1 n=a#6 v=59
975326 On ch=1 n=a#6 v=0
975331 On ch=1 n=a#7 v=0
975401 Par ch=1 c=64 v=104
975416 Par ch=1 c=64 v=24
975431 Par ch=1 c=64 v=0
975436 On ch=1 n=d#3 v=61
975436 On ch=1 n=a#7 v=89
975446 On ch=1 n=a#6 v=83
975496 On ch=1 n=d#3 v=0
975496 Par ch=1 c=64 v=56
975506 On ch=1 n=a#6 v=0
975511 Par ch=1 c=64 v=127
975596 On ch=1 n=a#6 v=68
975671 On ch=1 n=a#6 v=0
975736 On ch=1 n=c#5 v=50
975741 On ch=1 n=a#6 v=48
975751 On ch=1 n=g4 v=48
975761 On ch=1 n=d#4 v=33
975781 On ch=1 n=g4 v=0
975796 On ch=1 n=d#4 v=0
975796 On ch=1 n=c#5 v=0
975806 On ch=1 n=a#6 v=0
975881 On ch=1 n=a#6 v=56
975901 On ch=1 n=c#5 v=61
975916 On ch=1 n=g4 v=55
975916 On ch=1 n=d#4 v=37
975936 On ch=1 n=a#7 v=0
975946 On ch=1 n=g4 v=0
975946 On ch=1 n=a#6 v=0
975951 On ch=1 n=d#4 v=0
975966 On ch=1 n=c#5 v=0
976066 On ch=1 n=d#7 v=69
976076 On ch=1 n=d#6 v=70
976101 On ch=1 n=c5 v=60
976101 Par ch=1 c=64 v=88
976111 On ch=1 n=g4 v=45
976116 Par ch=1 c=64 v=24
976126 On ch=1 n=d#4 v=32
976136 On ch=1 n=d#6 v=0
976136 Par ch=1 c=64 v=0
976166 Par ch=1 c=64 v=40
976181 Par ch=1 c=64 v=88
976186 On ch=1 n=c5 v=0
976196 On ch=1 n=g4 v=0
976196 Par ch=1 c=64 v=127
976231 On ch=1 n=d#4 v=0
976231 On ch=1 n=d#6 v=53
976296 On ch=1 n=d#6 v=0
976401 On ch=1 n=d#6 v=57
976411 On ch=1 n=a#4 v=39
976421 On ch=1 n=d#4 v=32
976436 On ch=1 n=g4 v=30
976466 On ch=1 n=g4 v=0
976466 On ch=1 n=d#6 v=0
976486 On ch=1 n=a#4 v=0
976501 On ch=1 n=d#4 v=0
976566 On ch=1 n=d#7 v=0
976566 On ch=1 n=d#6 v=61
976626 On ch=1 n=d#6 v=0
976726 Par ch=1 c=64 v=104
976741 Par ch=1 c=64 v=24
976756 On ch=1 n=g#6 v=77
976756 On ch=1 n=g#5 v=67
976756 Par ch=1 c=64 v=0
976786 On ch=1 n=g#3 v=56
976816 On ch=1 n=g#5 v=0
976821 Par ch=1 c=64 v=24
976836 Par ch=1 c=64 v=88
976851 Par ch=1 c=64 v=127
976861 On ch=1 n=g#3 v=0
976906 On ch=1 n=g#5 v=62
976956 On ch=1 n=g#5 v=0
976981 On ch=1 n=g#6 v=0
977071 On ch=1 n=c7 v=88
977076 On ch=1 n=c6 v=70
977086 On ch=1 n=c5 v=53
977086 On ch=1 n=g#4 v=42
977091 On ch=1 n=d#4 v=44
977111 On ch=1 n=c6 v=0
977121 On ch=1 n=g#4 v=0
977121 On ch=1 n=c5 v=0
977131 On ch=1 n=d#4 v=0
977226 On ch=1 n=c6 v=64
977236 On ch=1 n=d#4 v=42
977246 On ch=1 n=c5 v=44
977266 On ch=1 n=c6 v=0
977266 On ch=1 n=g#4 v=23
977271 On ch=1 n=d#4 v=0
977286 On ch=1 n=c5 v=0
977291 On ch=1 n=g#4 v=0
977316 On ch=1 n=c7 v=0
977361 Par ch=1 c=64 v=72
977366 On ch=1 n=b6 v=82
977376 On ch=1 n=b5 v=66
977381 Par ch=1 c=64 v=0
977386 On ch=1 n=g#4 v=37
977401 On ch=1 n=d4 v=49
977401 On ch=1 n=b4 v=45
977426 Par ch=1 c=64 v=56
977436 On ch=1 n=b5 v=0
977446 On ch=1 n=b4 v=0
977446 Par ch=1 c=64 v=104
977456 Par ch=1 c=64 v=127
977461 On ch=1 n=d4 v=0
977466 On ch=1 n=g#4 v=0
977511 On ch=1 n=b5 v=48
977566 On ch=1 n=b5 v=0
977641 On ch=1 n=b6 v=0
977656 On ch=1 n=c7 v=83
977661 On ch=1 n=c6 v=66
977661 On ch=1 n=g#4 v=47
977671 On ch=1 n=d#4 v=46
977671 On ch=1 n=c5 v=46
977691 On ch=1 n=g#4 v=0
977701 On ch=1 n=c5 v=0
977701 On ch=1 n=d#4 v=0
977706 On ch=1 n=c6 v=0
977806 On ch=1 n=c6 v=68
977836 On ch=1 n=c7 v=0
977856 On ch=1 n=c6 v=0
977891 Par ch=1 c=64 v=104
977906 Par ch=1 c=64 v=40
977921 Par ch=1 c=64 v=0
977951 On ch=1 n=g#3 v=58
977961 On ch=1 n=g#5 v=76
977961 On ch=1 n=g#6 v=85
977986 Par ch=1 c=64 v=40
978001 Par ch=1 c=64 v=104
978011 On ch=1 n=g#5 v=0
978021 Par ch=1 c=64 v=127
978056 On ch=1 n=g#3 v=0
978101 On ch=1 n=g#5 v=62
978161 On ch=1 n=g#5 v=0
978236 On ch=1 n=c5 v=62
978246 On ch=1 n=d#4 v=53
978246 On ch=1 n=g#4 v=44
978246 On ch=1 n=g#5 v=60
978271 On ch=1 n=c5 v=0
978281 On ch=1 n=g#4 v=0
978286 On ch=1 n=d#4 v=0
978301 On ch=1 n=g#5 v=0
978376 On ch=1 n=g#5 v=61
978376 On ch=1 n=d#4 v=49
978386 On ch=1 n=g#4 v=46
978386 On ch=1 n=c5 v=52
978411 On ch=1 n=g#4 v=0
978416 On ch=1 n=c5 v=0
978431 On ch=1 n=d#4 v=0
978441 On ch=1 n=g#5 v=0
978496 Par ch=1 c=64 v=56
978511 Par ch=1 c=64 v=0
978516 On ch=1 n=g#5 v=64
978531 On ch=1 n=g#4 v=54
978541 On ch=1 n=b4 v=55
978541 On ch=1 n=d4 v=59
978576 Par ch=1 c=64 v=24
978581 On ch=1 n=b4 v=0
978586 On ch=1 n=d4 v=0
978586 On ch=1 n=g#5 v=0
978591 On ch=1 n=g#4 v=0
978596 Par ch=1 c=64 v=56
978606 Par ch=1 c=64 v=88
978626 Par ch=1 c=64 v=127
978656 On ch=1 n=g#5 v=54
978746 On ch=1 n=g#5 v=0
978766 On ch=1 n=g#6 v=0
978771 Par ch=1 c=64 v=88
978786 Par ch=1 c=64 v=24
978801 Par ch=1 c=64 v=0
978816 On ch=1 n=g6 v=78
978816 On ch=1 n=g5 v=68
978831 On ch=1 n=g4 v=60
978831 On ch=1 n=d#4 v=59
978831 Par ch=1 c=64 v=24
978836 On ch=1 n=c5 v=53
978851 Par ch=1 c=64 v=72
978866 On ch=1 n=g4 v=0
978866 Par ch=1 c=64 v=104
978871 On ch=1 n=c5 v=0
978871 On ch=1 n=g5 v=0
978881 Par ch=1 c=64 v=127
978896 On ch=1 n=d#4 v=0
978966 On ch=1 n=g5 v=51
979016 On ch=1 n=g5 v=0
979026 On ch=1 n=g6 v=0
979076 Par ch=1 c=64 v=40
979091 Par ch=1 c=64 v=0
979106 On ch=1 n=g#3 v=61
979111 On ch=1 n=f6 v=83
979121 On ch=1 n=f5 v=64
979151 Par ch=1 c=64 v=56
979171 On ch=1 n=f5 v=0
979171 Par ch=1 c=64 v=104
979176 On ch=1 n=g#3 v=0
979186 Par ch=1 c=64 v=127
979256 On ch=1 n=f5 v=54
979311 On ch=1 n=f5 v=0
979336 On ch=1 n=f6 v=0
979396 On ch=1 n=c#5 v=54
979396 On ch=1 n=g#4 v=50
979406 On ch=1 n=g4 v=64
979411 On ch=1 n=g6 v=88
979416 On ch=1 n=g5 v=58
979441 On ch=1 n=g4 v=0
979451 On ch=1 n=g5 v=0
979451 On ch=1 n=c#5 v=0
979456 On ch=1 n=g#4 v=0
979536 On ch=1 n=g4 v=59
979536 On ch=1 n=g5 v=59
979546 On ch=1 n=c#5 v=54
979566 On ch=1 n=g#4 v=43
979591 On ch=1 n=c#5 v=0
979591 On ch=1 n=g5 v=0
979596 On ch=1 n=g#4 v=0
979616 On ch=1 n=g4 v=0
979641 On ch=1 n=g6 v=0
979666 Par ch=1 c=64 v=56
979681 Par ch=1 c=64 v=0
979696 On ch=1 n=c#5 v=53
979696 On ch=1 n=f4 v=74
979706 On ch=1 n=g#5 v=59
979711 On ch=1 n=g#6 v=81
979726 Par ch=1 c=64 v=24
979741 Par ch=1 c=64 v=56
979756 On ch=1 n=g#5 v=0
979756 Par ch=1 c=64 v=88
979776 Par ch=1 c=64 v=127
979786 On ch=1 n=g#6 v=0
979786 On ch=1 n=f4 v=0
979831 On ch=1 n=g#5 v=54
979861 On ch=1 n=c#5 v=0
979901 On ch=1 n=g#5 v=0
979951 Par ch=1 c=64 v=56
979966 Par ch=1 c=64 v=0
979981 On ch=1 n=c#5 v=52
979991 On ch=1 n=e4 v=60
979991 On ch=1 n=g4 v=58
979996 On ch=1 n=a#6 v=73
979996 On ch=1 n=a#5 v=67
980036 On ch=1 n=g4 v=0
980046 Par ch=1 c=64 v=24
980056 On ch=1 n=a#5 v=0
980056 On ch=1 n=c#5 v=0
980061 Par ch=1 c=64 v=88
980071 On ch=1 n=e4 v=0
980081 Par ch=1 c=64 v=127
980141 On ch=1 n=a#5 v=60
980206 On ch=1 n=a#5 v=0
980231 On ch=1 n=a#6 v=0
980271 Par ch=1 c=64 v=40
980286 Par ch=1 c=64 v=0
980296 On ch=1 n=c7 v=84
980301 On ch=1 n=c6 v=72
980301 On ch=1 n=g#3 v=55
980361 On ch=1 n=c6 v=0
980381 On ch=1 n=g#3 v=0
980381 Par ch=1 c=64 v=72
980401 Par ch=1 c=64 v=127
980456 On ch=1 n=c6 v=66
980491 On ch=1 n=c6 v=0
980571 On ch=1 n=d#4 v=61
980581 On ch=1 n=c5 v=58
980591 On ch=1 n=g#4 v=34
980601 On ch=1 n=c6 v=64
980611 On ch=1 n=c5 v=0
980616 On ch=1 n=g#4 v=0
980636 On ch=1 n=c6 v=0
980636 On ch=1 n=d#4 v=0
980716 On ch=1 n=d#4 v=35
980726 On ch=1 n=c5 v=51
980726 On ch=1 n=c6 v=59
980736 On ch=1 n=g#4 v=31
980761 On ch=1 n=c5 v=0
980766 On ch=1 n=g#4 v=0
980766 On ch=1 n=d#4 v=0
980771 On ch=1 n=c6 v=0
980831 Par ch=1 c=64 v=72
980846 Par ch=1 c=64 v=0
980861 On ch=1 n=c6 v=63
980871 On ch=1 n=b4 v=51
980876 On ch=1 n=g#4 v=34
980881 On ch=1 n=d4 v=42
980911 Par ch=1 c=64 v=40
980916 On ch=1 n=b4 v=0
980916 On ch=1 n=c6 v=0
980921 On ch=1 n=g#4 v=0
980926 Par ch=1 c=64 v=88
980941 Par ch=1 c=64 v=127
980951 On ch=1 n=d4 v=0
980996 On ch=1 n=c6 v=64
981061 On ch=1 n=c6 v=0
981156 On ch=1 n=c6 v=59
981156 On ch=1 n=g#4 v=40
981166 On ch=1 n=c5 v=39
981166 On ch=1 n=d#4 v=44
981191 On ch=1 n=g#4 v=0
981196 On ch=1 n=c5 v=0
981196 On ch=1 n=c6 v=0
981216 On ch=1 n=d#4 v=0
981286 On ch=1 n=c6 v=60
981301 On ch=1 n=c7 v=0
981321 On ch=1 n=c6 v=0
981376 Par ch=1 c=64 v=56
981391 Par ch=1 c=64 v=0
981431 On ch=1 n=g#5 v=76
981431 On ch=1 n=g#6 v=76
981441 On ch=1 n=g#3 v=48
981451 Par ch=1 c=64 v=56
981471 Par ch=1 c=64 v=104
981481 On ch=1 n=g#5 v=0
981486 Par ch=1 c=64 v=127
981506 On ch=1 n=g#6 v=0
981516 On ch=1 n=g#3 v=0
981566 On ch=1 n=g#5 v=57
981616 On ch=1 n=g#5 v=0
981701 On ch=1 n=d#4 v=53
981706 On ch=1 n=c7 v=93
981706 On ch=1 n=c6 v=81
981706 On ch=1 n=c5 v=56
981751 On ch=1 n=c5 v=0
981751 On ch=1 n=c6 v=0
981766 On ch=1 n=d#4 v=0
981856 On ch=1 n=c6 v=70
981861 On ch=1 n=d#4 v=49
981861 On ch=1 n=g#4 v=39
981866 On ch=1 n=c5 v=54
981886 On ch=1 n=c6 v=0
981901 On ch=1 n=c5 v=0
981901 On ch=1 n=g#4 v=0
981901 On ch=1 n=d#4 v=0
981946 On ch=1 n=c7 v=0
981986 On ch=1 n=b6 v=82
981996 On ch=1 n=b5 v=70
982021 On ch=1 n=d4 v=60
982021 On ch=1 n=g#4 v=39
982031 On ch=1 n=b4 v=42
982051 On ch=1 n=b5 v=0
982076 On ch=1 n=b4 v=0
982086 On ch=1 n=d4 v=0
982086 On ch=1 n=b6 v=0
982091 On ch=1 n=g#4 v=0
982131 On ch=1 n=b5 v=56
982191 On ch=1 n=b5 v=0
982271 On ch=1 n=c7 v=84
982271 On ch=1 n=g#4 v=60
982276 On ch=1 n=c6 v=79
982286 On ch=1 n=d#4 v=57
982291 On ch=1 n=c5 v=40
982306 On ch=1 n=g#4 v=0
982321 On ch=1 n=c5 v=0
982326 On ch=1 n=c6 v=0
982331 On ch=1 n=d#4 v=0
982366 On ch=1 n=c7 v=0
982396 On ch=1 n=c6 v=72
982451 On ch=1 n=c6 v=0
982526 Par ch=1 c=64 v=56
982541 Par ch=1 c=64 v=0
982581 On ch=1 n=g#7 v=102
982581 On ch=1 n=g#6 v=90
982601 On ch=1 n=f3 v=59
982636 On ch=1 n=f3 v=0
982636 On ch=1 n=g#6 v=0
982636 Par ch=1 c=64 v=88
982651 Par ch=1 c=64 v=127
982656 On ch=1 n=g#7 v=0
982736 On ch=1 n=g#6 v=78
982796 On ch=1 n=g#6 v=0
982876 On ch=1 n=g#4 v=43
982876 On ch=1 n=f4 v=53
982881 On ch=1 n=g#6 v=64
982881 On ch=1 n=c5 v=43
982911 On ch=1 n=g#4 v=0
982916 On ch=1 n=c5 v=0
982916 On ch=1 n=f4 v=0
982941 On ch=1 n=g#6 v=0
983011 On ch=1 n=g#6 v=61
983011 On ch=1 n=g#4 v=44
983021 On ch=1 n=f4 v=36
983026 On ch=1 n=c5 v=32
983051 On ch=1 n=g#4 v=0
983056 On ch=1 n=f4 v=0
983061 On ch=1 n=c5 v=0
983071 On ch=1 n=g#6 v=0
983151 On ch=1 n=g#4 v=40
983151 On ch=1 n=g#6 v=62
983161 On ch=1 n=e4 v=48
983166 On ch=1 n=c5 v=31
983206 On ch=1 n=e4 v=0
983211 On ch=1 n=g#6 v=0
983216 On ch=1 n=c5 v=0
983226 On ch=1 n=g#4 v=0
983286 On ch=1 n=g#6 v=56
983361 On ch=1 n=g#6 v=0
983421 On ch=1 n=g7 v=79
983426 On ch=1 n=f4 v=59
983426 On ch=1 n=c5 v=50
983441 On ch=1 n=g#4 v=26
983446 On ch=1 n=g6 v=63
983466 On ch=1 n=c5 v=0
983466 On ch=1 n=f4 v=0
983471 On ch=1 n=g#4 v=0
983476 On ch=1 n=g6 v=0
983566 On ch=1 n=g6 v=60
983616 On ch=1 n=g7 v=0
983631 On ch=1 n=g6 v=0
983676 Par ch=1 c=64 v=104
983691 Par ch=1 c=64 v=24
983696 On ch=1 n=a#3 v=56
983706 Par ch=1 c=64 v=0
983711 On ch=1 n=f7 v=82
983721 On ch=1 n=f6 v=70
983736 Par ch=1 c=64 v=24
983756 On ch=1 n=a#3 v=0
983756 Par ch=1 c=64 v=72
983771 On ch=1 n=f6 v=0
983771 Par ch=1 c=64 v=127
983816 On ch=1 n=f7 v=0
983866 On ch=1 n=f6 v=59
983901 On ch=1 n=f6 v=0
983986 On ch=1 n=g#4 v=55
983991 On ch=1 n=g7 v=88
983996 On ch=1 n=d5 v=56
984001 On ch=1 n=g6 v=66
984021 On ch=1 n=a#4 v=23
984041 On ch=1 n=d5 v=0
984046 On ch=1 n=g6 v=0
984061 On ch=1 n=a#4 v=0
984101 On ch=1 n=g#4 v=0
984116 On ch=1 n=g6 v=69
984176 On ch=1 n=g6 v=0
984211 On ch=1 n=g7 v=0
984246 On ch=1 n=d5 v=52
984246 On ch=1 n=g4 v=56
984251 On ch=1 n=a#4 v=35
984256 On ch=1 n=g#7 v=92
984256 On ch=1 n=g#6 v=84
984311 On ch=1 n=g#6 v=0
984326 On ch=1 n=d5 v=0
984331 On ch=1 n=g4 v=0
984346 On ch=1 n=g#7 v=0
984371 On ch=1 n=a#4 v=0
984396 On ch=1 n=g#6 v=69
984456 On ch=1 n=g#6 v=0
984556 On ch=1 n=a#6 v=81
984556 On ch=1 n=a#7 v=86
984556 On ch=1 n=a#4 v=38
984561 On ch=1 n=d5 v=45
984571 On ch=1 n=f4 v=54
984596 On ch=1 n=d5 v=0
984601 On ch=1 n=a#4 v=0
984621 On ch=1 n=f4 v=0
984621 On ch=1 n=a#6 v=0
984651 On ch=1 n=a#7 v=0
984706 On ch=1 n=a#6 v=64
984771 On ch=1 n=a#6 v=0
984811 Par ch=1 c=64 v=104
984826 Par ch=1 c=64 v=24
984841 Par ch=1 c=64 v=0
984856 On ch=1 n=d#3 v=56
984856 On ch=1 n=a#7 v=87
984861 On ch=1 n=a#6 v=81
984896 On ch=1 n=d#3 v=0
984921 On ch=1 n=a#6 v=0
984921 Par ch=1 c=64 v=40
984941 Par ch=1 c=64 v=104
984956 Par ch=1 c=64 v=127
985016 On ch=1 n=a#6 v=64
985081 On ch=1 n=a#6 v=0
985156 On ch=1 n=c#5 v=57
985161 On ch=1 n=a#6 v=56
985171 On ch=1 n=g4 v=48
985171 On ch=1 n=d#4 v=37
985201 On ch=1 n=g4 v=0
985206 On ch=1 n=d#4 v=0
985206 On ch=1 n=c#5 v=0
985226 On ch=1 n=a#6 v=0
985286 On ch=1 n=a#6 v=57
985301 On ch=1 n=c#5 v=60
985321 On ch=1 n=g4 v=47
985326 On ch=1 n=d#4 v=36
985336 On ch=1 n=a#7 v=0
985356 On ch=1 n=g4 v=0
985356 On ch=1 n=c#5 v=0
985356 On ch=1 n=a#6 v=0
985361 On ch=1 n=d#4 v=0
985471 On ch=1 n=d#7 v=64
985481 On ch=1 n=d#6 v=62
985481 Par ch=1 c=64 v=56
985496 Par ch=1 c=64 v=0
985501 On ch=1 n=c5 v=56
985501 On ch=1 n=g4 v=46
985506 On ch=1 n=d#4 v=39
985531 On ch=1 n=d#6 v=0
985546 Par ch=1 c=64 v=88
985561 Par ch=1 c=64 v=127
985571 On ch=1 n=c5 v=0
985586 On ch=1 n=g4 v=0
985621 On ch=1 n=d#4 v=0
985621 On ch=1 n=d#6 v=53
985691 On ch=1 n=d#6 v=0
985796 On ch=1 n=d#6 v=58
985806 On ch=1 n=a#4 v=39
985816 On ch=1 n=g4 v=42
985816 On ch=1 n=d#4 v=29
985856 On ch=1 n=g4 v=0
985861 On ch=1 n=d#6 v=0
985871 On ch=1 n=a#4 v=0
985911 On ch=1 n=d#4 v=0
985966 On ch=1 n=d#6 v=61
985976 On ch=1 n=d#7 v=0
986031 On ch=1 n=d#6 v=0
986151 Par ch=1 c=64 v=104
986166 Par ch=1 c=64 v=24
986176 On ch=1 n=g#6 v=71
986176 On ch=1 n=g#5 v=61
986186 Par ch=1 c=64 v=0
986196 On ch=1 n=g#3 v=52
986231 On ch=1 n=g#5 v=0
986246 Par ch=1 c=64 v=72
986266 Par ch=1 c=64 v=127
986286 On ch=1 n=g#3 v=0
986306 On ch=1 n=g#6 v=0
986326 On ch=1 n=g#5 v=54
986381 On ch=1 n=g#5 v=0
986486 On ch=1 n=b6 v=77
986486 On ch=1 n=d#4 v=59
986491 On ch=1 n=b5 v=59
986496 On ch=1 n=b4 v=45
986496 On ch=1 n=g#4 v=38
986521 On ch=1 n=b5 v=0
986526 On ch=1 n=g#4 v=0
986531 On ch=1 n=b4 v=0
986556 On ch=1 n=b6 v=0
986561 On ch=1 n=d#4 v=0
986626 On ch=1 n=b5 v=53
986651 On ch=1 n=d#4 v=40
986651 On ch=1 n=g#4 v=27
986661 On ch=1 n=b4 v=36
986676 On ch=1 n=b5 v=0
986686 On ch=1 n=g#4 v=0
986686 On ch=1 n=d#4 v=0
986701 On ch=1 n=b4 v=0
986776 On ch=1 n=a#6 v=79
986776 On ch=1 n=a#5 v=68
986781 On ch=1 n=b4 v=41
986806 On ch=1 n=d4 v=44
986816 On ch=1 n=g#4 v=27
986831 On ch=1 n=a#5 v=0
986861 On ch=1 n=g#4 v=0
986871 On ch=1 n=b4 v=0
986911 On ch=1 n=a#5 v=58
986981 On ch=1 n=d4 v=0
987011 On ch=1 n=a#5 v=0
987076 On ch=1 n=a#6 v=0
987076 On ch=1 n=b6 v=85
987086 On ch=1 n=b5 v=64
987091 On ch=1 n=g#4 v=45
987101 On ch=1 n=b4 v=55
987121 On ch=1 n=d#4 v=48
987131 On ch=1 n=b5 v=0
987136 On ch=1 n=b4 v=0
987146 On ch=1 n=g#4 v=0
987161 On ch=1 n=d#4 v=0
987216 On ch=1 n=b5 v=66
987271 On ch=1 n=b5 v=0
987296 On ch=1 n=b6 v=0
987351 Par ch=1 c=64 v=104
987366 Par ch=1 c=64 v=24
987381 Par ch=1 c=64 v=0
987396 On ch=1 n=c#7 v=92
987396 On ch=1 n=c#6 v=78
987406 On ch=1 n=e3 v=67
987441 On ch=1 n=c#6 v=0
987446 Par ch=1 c=64 v=24
987461 Par ch=1 c=64 v=88
987476 On ch=1 n=c#7 v=0
987476 Par ch=1 c=64 v=127
987511 On ch=1 n=e3 v=0
987536 On ch=1 n=c#6 v=71
987601 On ch=1 n=c#6 v=0
987691 On ch=1 n=c#6 v=61
987706 On ch=1 n=g#4 v=42
987716 On ch=1 n=c#5 v=33
987741 On ch=1 n=c#5 v=0
987741 On ch=1 n=g#4 v=0
987751 On ch=1 n=c#6 v=0
987821 On ch=1 n=c#6 v=64
987836 On ch=1 n=c#5 v=44
987836 On ch=1 n=e4 v=51
987846 On ch=1 n=g#4 v=39
987876 On ch=1 n=g#4 v=0
987876 On ch=1 n=e4 v=0
987881 On ch=1 n=c#5 v=0
987891 On ch=1 n=c#6 v=0
987971 On ch=1 n=c#6 v=64
987986 On ch=1 n=g4 v=59
987986 On ch=1 n=c#5 v=39
988011 On ch=1 n=e4 v=22
988036 On ch=1 n=c#6 v=0
988046 On ch=1 n=e4 v=0
988051 On ch=1 n=c#5 v=0
988066 On ch=1 n=g4 v=0
988111 On ch=1 n=c#6 v=61
988186 On ch=1 n=c#6 v=0
988256 On ch=1 n=b6 v=82
988266 On ch=1 n=c#5 v=53
988271 On ch=1 n=g#4 v=44
988271 On ch=1 n=b5 v=63
988281 On ch=1 n=e4 v=45
988296 On ch=1 n=c#5 v=0
988301 On ch=1 n=b5 v=0
988301 On ch=1 n=g#4 v=0
988316 On ch=1 n=e4 v=0
988401 On ch=1 n=b5 v=62
988461 On ch=1 n=b5 v=0
988501 On ch=1 n=b6 v=0
988516 Par ch=1 c=64 v=104
988531 Par ch=1 c=64 v=24
988541 On ch=1 n=a#6 v=77
988541 On ch=1 n=a#5 v=73
988546 Par ch=1 c=64 v=0
988556 On ch=1 n=f#3 v=65
988591 On ch=1 n=a#5 v=0
988596 Par ch=1 c=64 v=40
988616 Par ch=1 c=64 v=88
988631 Par ch=1 c=64 v=127
988636 On ch=1 n=a#6 v=0
988676 On ch=1 n=f#3 v=0
988691 On ch=1 n=a#5 v=68
988741 On ch=1 n=a#5 v=0
988811 On ch=1 n=c#5 v=36
988811 On ch=1 n=a#4 v=46
988831 On ch=1 n=c#6 v=76
988831 On ch=1 n=c#7 v=83
988886 On ch=1 n=c#6 v=0
988886 On ch=1 n=a#4 v=0
988901 On ch=1 n=c#5 v=0
988961 On ch=1 n=c#6 v=69
989031 On ch=1 n=c#6 v=0
989061 On ch=1 n=c#7 v=0
989086 On ch=1 n=e4 v=51
989086 On ch=1 n=c#5 v=33
989091 On ch=1 n=c7 v=87
989096 On ch=1 n=c6 v=80
989116 On ch=1 n=a4 v=38
989151 On ch=1 n=c6 v=0
989166 On ch=1 n=a4 v=0
989181 On ch=1 n=c#5 v=0
989181 On ch=1 n=e4 v=0
989236 On ch=1 n=c6 v=74
989291 On ch=1 n=c6 v=0
989326 On ch=1 n=c7 v=0
989381 On ch=1 n=c#7 v=87
989391 On ch=1 n=c#5 v=60
989391 On ch=1 n=c#6 v=79
989391 On ch=1 n=a#4 v=56
989406 On ch=1 n=e4 v=49
989426 On ch=1 n=c#5 v=0
989436 On ch=1 n=e4 v=0
989436 On ch=1 n=a#4 v=0
989436 On ch=1 n=c#6 v=0
989471 On ch=1 n=c#7 v=0
989521 On ch=1 n=c#6 v=70
989576 On ch=1 n=c#6 v=0
989621 Par ch=1 c=64 v=104
989636 Par ch=1 c=64 v=24
989651 Par ch=1 c=64 v=0
989671 On ch=1 n=d#7 v=89
989671 On ch=1 n=d#6 v=86
989676 On ch=1 n=g3 v=71
989706 On ch=1 n=g3 v=0
989731 Par ch=1 c=64 v=72
989741 On ch=1 n=d#6 v=0
989746 Par ch=1 c=64 v=127
989831 On ch=1 n=d#6 v=72
989896 On ch=1 n=d#6 v=0
989966 On ch=1 n=c#5 v=63
989971 On ch=1 n=d#4 v=61
989981 On ch=1 n=d#6 v=60
989981 On ch=1 n=a#4 v=35
990001 On ch=1 n=c#5 v=0
990006 On ch=1 n=a#4 v=0
990011 On ch=1 n=d#4 v=0
990031 On ch=1 n=d#6 v=0
990101 On ch=1 n=c#5 v=65
990101 On ch=1 n=d#6 v=65
990106 On ch=1 n=d#4 v=53
990111 On ch=1 n=a#4 v=45
990141 On ch=1 n=a#4 v=0
990146 On ch=1 n=d#4 v=0
990156 On ch=1 n=c#5 v=0
990161 On ch=1 n=d#6 v=0
990246 On ch=1 n=c5 v=65
990251 On ch=1 n=d#6 v=65
990251 On ch=1 n=a#4 v=42
990256 On ch=1 n=d#4 v=46
990306 On ch=1 n=a#4 v=0
990311 On ch=1 n=d#6 v=0
990326 On ch=1 n=c5 v=0
990356 On ch=1 n=d#4 v=0
990391 On ch=1 n=d#6 v=60
990456 On ch=1 n=d#6 v=0
990481 On ch=1 n=d#7 v=0
990526 On ch=1 n=a#4 v=53
990531 On ch=1 n=c#5 v=51
990541 On ch=1 n=d#4 v=53
990541 On ch=1 n=c#7 v=73
990551 On ch=1 n=c#6 v=67
990561 On ch=1 n=c#5 v=0
990561 On ch=1 n=a#4 v=0
990586 On ch=1 n=d#4 v=0
990606 On ch=1 n=c#6 v=0
990681 On ch=1 n=c#6 v=67
990751 On ch=1 n=c#6 v=0
990756 On ch=1 n=c#7 v=0
990786 Par ch=1 c=64 v=104
990801 Par ch=1 c=64 v=40
990816 On ch=1 n=c7 v=81
990821 Par ch=1 c=64 v=0
990831 On ch=1 n=g#3 v=57
990831 On ch=1 n=c6 v=71
990881 On ch=1 n=c6 v=0
990881 Par ch=1 c=64 v=24
990896 On ch=1 n=g#3 v=0
990896 Par ch=1 c=64 v=88
990916 Par ch=1 c=64 v=127
990971 On ch=1 n=c6 v=71
991016 On ch=1 n=c7 v=0
991026 On ch=1 n=c6 v=0
991116 On ch=1 n=g#6 v=82
991121 On ch=1 n=g#5 v=75
991126 On ch=1 n=c5 v=46
991126 On ch=1 n=d#4 v=44
991161 On ch=1 n=d#4 v=0
991161 On ch=1 n=c5 v=0
991171 On ch=1 n=g#5 v=0
991251 On ch=1 n=g#5 v=61
991286 On ch=1 n=d#4 v=53
991296 On ch=1 n=c5 v=36
991331 On ch=1 n=g#5 v=0
991336 On ch=1 n=c5 v=0
991351 On ch=1 n=d#4 v=0
991356 On ch=1 n=g#6 v=0
991401 On ch=1 n=g6 v=84
991416 On ch=1 n=g5 v=68
991426 Par ch=1 c=64 v=72
991441 Par ch=1 c=64 v=40
991446 On ch=1 n=e4 v=58
991446 On ch=1 n=c5 v=26
991451 On ch=1 n=g5 v=0
991481 On ch=1 n=e4 v=0
991486 On ch=1 n=c5 v=0
991486 Par ch=1 c=64 v=104
991506 Par ch=1 c=64 v=127
991546 On ch=1 n=g5 v=59
991611 On ch=1 n=g5 v=0
991616 On ch=1 n=g6 v=0
991696 On ch=1 n=f6 v=87
991701 On ch=1 n=c5 v=62
991711 On ch=1 n=f4 v=61
991711 On ch=1 n=f5 v=57
991731 On ch=1 n=c5 v=0
991741 On ch=1 n=f5 v=0
991746 On ch=1 n=f4 v=0
991836 On ch=1 n=f5 v=67
991896 On ch=1 n=f5 v=0
991896 On ch=1 n=f6 v=0
991986 Par ch=1 c=64 v=24
992001 On ch=1 n=d#6 v=93
992001 On ch=1 n=d#5 v=79
992001 Par ch=1 c=64 v=0
992006 On ch=1 n=a#2 v=70
992066 On ch=1 n=d#5 v=0
992076 On ch=1 n=a#2 v=0
992081 Par ch=1 c=64 v=56
992096 Par ch=1 c=64 v=127
992101 On ch=1 n=d#6 v=0
992146 On ch=1 n=d#6 v=61
992156 On ch=1 n=d#5 v=56
992216 On ch=1 n=d#5 v=0
992306 On ch=1 n=d#5 v=56
992306 On ch=1 n=a#4 v=39
992306 On ch=1 n=f4 v=55
992341 On ch=1 n=f4 v=0
992341 On ch=1 n=a#4 v=0
992366 On ch=1 n=d#5 v=0
992431 On ch=1 n=d#5 v=55
992436 On ch=1 n=a#4 v=39
992471 On ch=1 n=a#4 v=0
992496 On ch=1 n=d#5 v=0
992576 Par ch=1 c=64 v=56
992581 On ch=1 n=d#5 v=56
992591 Par ch=1 c=64 v=24
992601 On ch=1 n=f4 v=49
992611 On ch=1 n=a4 v=41
992621 Par ch=1 c=64 v=56
992636 Par ch=1 c=64 v=88
992641 On ch=1 n=d#5 v=0
992646 On ch=1 n=f4 v=0
992651 On ch=1 n=a4 v=0
992651 Par ch=1 c=64 v=127
992716 On ch=1 n=d#5 v=51
992781 On ch=1 n=d#5 v=0
992811 On ch=1 n=d#6 v=0
992876 On ch=1 n=a#4 v=49
992891 On ch=1 n=c#6 v=70
992896 On ch=1 n=f4 v=46
992911 On ch=1 n=a#4 v=0
992911 On ch=1 n=c#5 v=35
992926 On ch=1 n=f4 v=0
992941 On ch=1 n=c#5 v=0
993036 On ch=1 n=c#5 v=56
993096 On ch=1 n=c#5 v=0
993101 On ch=1 n=c#6 v=0
993151 Par ch=1 c=64 v=40
993166 Par ch=1 c=64 v=0
993181 On ch=1 n=a#5 v=67
993181 On ch=1 n=d#3 v=54
993191 On ch=1 n=a#4 v=49
993246 On ch=1 n=a#4 v=0
993246 Par ch=1 c=64 v=72
993251 On ch=1 n=d#3 v=0
993261 Par ch=1 c=64 v=127
993331 On ch=1 n=a#4 v=55
993391 On ch=1 n=a#4 v=0
993476 On ch=1 n=d#4 v=64
993476 On ch=1 n=g#4 v=55
993481 On ch=1 n=a#4 v=50
993516 On ch=1 n=d#4 v=0
993521 On ch=1 n=g#4 v=0
993541 On ch=1 n=a#4 v=0
993611 On ch=1 n=a#4 v=48
993621 On ch=1 n=g#4 v=54
993626 On ch=1 n=d#4 v=58
993656 On ch=1 n=d#4 v=0
993656 On ch=1 n=g#4 v=0
993671 On ch=1 n=a#4 v=0
993696 On ch=1 n=a#5 v=0
993741 Par ch=1 c=64 v=72
993756 Par ch=1 c=64 v=24
993771 Par ch=1 c=64 v=0
993776 On ch=1 n=d#6 v=73
993776 On ch=1 n=d#4 v=49
993776 On ch=1 n=d#5 v=59
993796 On ch=1 n=g4 v=51
993806 Par ch=1 c=64 v=40
993821 Par ch=1 c=64 v=88
993831 On ch=1 n=d#5 v=0
993836 On ch=1 n=g4 v=0
993836 Par ch=1 c=64 v=127
993866 On ch=1 n=d#4 v=0
993916 On ch=1 n=d#5 v=46
993976 On ch=1 n=d#5 v=0
994066 On ch=1 n=f4 v=58
994071 On ch=1 n=d#5 v=58
994071 On ch=1 n=d#4 v=54
994101 On ch=1 n=d#4 v=0
994101 On ch=1 n=f4 v=0
994116 On ch=1 n=d#5 v=0
994191 On ch=1 n=d#6 v=0
994206 On ch=1 n=d#5 v=60
994251 On ch=1 n=d#5 v=0
994316 Par ch=1 c=64 v=88
994331 Par ch=1 c=64 v=24
994351 Par ch=1 c=64 v=0
994361 On ch=1 n=c6 v=79
994366 On ch=1 n=c5 v=66
994381 On ch=1 n=g#2 v=67
994411 Par ch=1 c=64 v=56
994421 On ch=1 n=c5 v=0
994426 Par ch=1 c=64 v=104
994436 On ch=1 n=g#2 v=0
994446 Par ch=1 c=64 v=127
994531 On ch=1 n=c5 v=62
994571 On ch=1 n=c5 v=0
994656 On ch=1 n=d#4 v=57
994676 On ch=1 n=c5 v=52
994696 On ch=1 n=d#4 v=0
994711 On ch=1 n=c5 v=0
994791 On ch=1 n=g#3 v=58
994806 On ch=1 n=d#4 v=53
994816 On ch=1 n=c5 v=53
994831 On ch=1 n=c6 v=0
994851 On ch=1 n=d#4 v=0
994866 On ch=1 n=c5 v=0
994866 On ch=1 n=g#3 v=0
994986 On ch=1 n=b5 v=67
994991 Par ch=1 c=64 v=56
994996 On ch=1 n=b4 v=42
995001 On ch=1 n=g3 v=52
995001 On ch=1 n=d#4 v=37
995006 Par ch=1 c=64 v=0
995041 On ch=1 n=b4 v=0
995066 Par ch=1 c=64 v=24
995081 On ch=1 n=b5 v=0
995086 Par ch=1 c=64 v=72
995096 On ch=1 n=d#4 v=0
995101 Par ch=1 c=64 v=127
995146 On ch=1 n=g3 v=0
995151 On ch=1 n=b4 v=54
995211 On ch=1 n=b4 v=0
995316 On ch=1 n=b4 v=53
995326 On ch=1 n=d#4 v=51
995326 On ch=1 n=g#3 v=40
995366 On ch=1 n=d#4 v=0
995371 On ch=1 n=b4 v=0
995376 On ch=1 n=g#3 v=0
995476 On ch=1 n=b4 v=49
995511 On ch=1 n=b4 v=0
995706 Par ch=1 c=64 v=88
995721 On ch=1 n=g#5 v=53
995726 On ch=1 n=g#6 v=64
995726 Par ch=1 c=64 v=24
995741 Par ch=1 c=64 v=0
995751 On ch=1 n=g#5 v=0
995751 On ch=1 n=g#3 v=54
995801 Par ch=1 c=64 v=56
995821 Par ch=1 c=64 v=127
995831 On ch=1 n=g#3 v=0
995841 On ch=1 n=g#6 v=0
995876 On ch=1 n=g#5 v=67
995936 On ch=1 n=g#5 v=0
996036 On ch=1 n=d#4 v=53
996036 On ch=1 n=b4 v=55
996036 On ch=1 n=g#4 v=45
996041 On ch=1 n=b6 v=82
996051 On ch=1 n=b5 v=61
996076 On ch=1 n=b5 v=0
996076 On ch=1 n=b4 v=0
996086 On ch=1 n=g#4 v=0
996116 On ch=1 n=d#4 v=0
996176 On ch=1 n=b5 v=62
996191 On ch=1 n=d#4 v=45
996211 On ch=1 n=b4 v=44
996216 On ch=1 n=g#4 v=27
996236 On ch=1 n=b5 v=0
996246 On ch=1 n=g#4 v=0
996246 On ch=1 n=b4 v=0
996266 On ch=1 n=d#4 v=0
996286 On ch=1 n=b6 v=0
996331 On ch=1 n=a#5 v=72
996336 On ch=1 n=a#6 v=80
996346 On ch=1 n=b4 v=54
996346 On ch=1 n=g#4 v=43
996351 On ch=1 n=d4 v=60
996386 On ch=1 n=d4 v=0
996391 On ch=1 n=a#5 v=0
996396 On ch=1 n=b4 v=0
996406 On ch=1 n=g#4 v=0
996431 On ch=1 n=a#6 v=0
996476 On ch=1 n=a#5 v=64
996566 On ch=1 n=a#5 v=0
996631 On ch=1 n=b6 v=88
996641 On ch=1 n=g#4 v=67
996646 On ch=1 n=b5 v=63
996656 On ch=1 n=b4 v=53
996666 On ch=1 n=d#4 v=48
996686 On ch=1 n=b4 v=0
996686 On ch=1 n=b5 v=0
996691 On ch=1 n=g#4 v=0
996696 On ch=1 n=d#4 v=0
996766 On ch=1 n=b5 v=70
996826 On ch=1 n=b5 v=0
996846 On ch=1 n=b6 v=0
996891 Par ch=1 c=64 v=104
996906 Par ch=1 c=64 v=40
996921 Par ch=1 c=64 v=0
996946 On ch=1 n=c#7 v=91
996946 On ch=1 n=c#6 v=78
996961 On ch=1 n=e3 v=58
997001 Par ch=1 c=64 v=40
997006 On ch=1 n=c#6 v=0
997016 Par ch=1 c=64 v=127
997031 On ch=1 n=e3 v=0
997096 On ch=1 n=c#6 v=76
997156 On ch=1 n=c#6 v=0
997241 On ch=1 n=c#6 v=67
997251 On ch=1 n=c#5 v=47
997256 On ch=1 n=g#4 v=46
997286 On ch=1 n=e4 v=36
997291 On ch=1 n=g#4 v=0
997301 On ch=1 n=c#5 v=0
997301 On ch=1 n=c#6 v=0
997316 On ch=1 n=e4 v=0
997376 On ch=1 n=c#6 v=68
997376 On ch=1 n=c#5 v=50
997381 On ch=1 n=e4 v=62
997411 On ch=1 n=e4 v=0
997431 On ch=1 n=c#5 v=0
997431 On ch=1 n=c#6 v=0
997506 On ch=1 n=c#6 v=67
997516 On ch=1 n=g4 v=63
997516 On ch=1 n=c#5 v=42
997521 On ch=1 n=e4 v=47
997566 On ch=1 n=e4 v=0
997571 On ch=1 n=c#6 v=0
997591 On ch=1 n=g4 v=0
997601 On ch=1 n=c#5 v=0
997646 On ch=1 n=c#6 v=68
997721 On ch=1 n=c#6 v=0
997741 On ch=1 n=c#7 v=0
997791 On ch=1 n=b6 v=86
997801 On ch=1 n=c#5 v=58
997801 On ch=1 n=b5 v=70
997806 On ch=1 n=g#4 v=50
997816 On ch=1 n=e4 v=53
997831 On ch=1 n=c#5 v=0
997836 On ch=1 n=g#4 v=0
997836 On ch=1 n=b5 v=0
997846 On ch=1 n=e4 v=0
997936 On ch=1 n=b5 v=69
997996 On ch=1 n=b5 v=0
998026 On ch=1 n=b6 v=0
998056 Par ch=1 c=64 v=72
998071 Par ch=1 c=64 v=0
998081 On ch=1 n=a#6 v=80
998081 On ch=1 n=a#5 v=73
998086 On ch=1 n=f#3 v=63
998136 On ch=1 n=a#5 v=0
998136 Par ch=1 c=64 v=24
998141 On ch=1 n=f#3 v=0
998151 Par ch=1 c=64 v=88
998166 Par ch=1 c=64 v=127
998181 On ch=1 n=a#6 v=0
998226 On ch=1 n=a#5 v=60
998281 On ch=1 n=a#5 v=0
998361 On ch=1 n=c#5 v=57
998366 On ch=1 n=e4 v=63
998371 On ch=1 n=c#6 v=73
998371 On ch=1 n=a#4 v=49
998371 On ch=1 n=c#7 v=78
998396 On ch=1 n=a#4 v=0
998396 On ch=1 n=e4 v=0
998406 On ch=1 n=c#5 v=0
998426 On ch=1 n=c#6 v=0
998491 On ch=1 n=c#5 v=57
998491 On ch=1 n=e4 v=56
998501 On ch=1 n=c#6 v=64
998501 On ch=1 n=a#4 v=49
998521 On ch=1 n=e4 v=0
998531 On ch=1 n=a#4 v=0
998536 On ch=1 n=c#5 v=0
998561 On ch=1 n=c#6 v=0
998611 On ch=1 n=c#7 v=0
998641 On ch=1 n=c7 v=84
998646 On ch=1 n=c6 v=77
998646 On ch=1 n=c#5 v=62
998651 On ch=1 n=a4 v=66
998651 On ch=1 n=e4 v=56
998701 On ch=1 n=c6 v=0
998731 On ch=1 n=e4 v=0
998731 On ch=1 n=a4 v=0
998741 On ch=1 n=c#5 v=0
998791 On ch=1 n=c6 v=69
998841 On ch=1 n=c6 v=0
998886 On ch=1 n=c7 v=0
998926 On ch=1 n=c#5 v=61
998931 On ch=1 n=a#4 v=51
998936 On ch=1 n=c#7 v=85
998941 On ch=1 n=c#6 v=73
998951 On ch=1 n=e4 v=46
998966 On ch=1 n=a#4 v=0
998971 On ch=1 n=c#5 v=0
998981 On ch=1 n=e4 v=0
998986 On ch=1 n=c#6 v=0
999026 On ch=1 n=c#7 v=0
999066 On ch=1 n=c#6 v=70
999126 On ch=1 n=c#6 v=0
999176 Par ch=1 c=64 v=88
999191 Par ch=1 c=64 v=24
999206 Par ch=1 c=64 v=0
999221 On ch=1 n=d#6 v=88
999221 On ch=1 n=d#7 v=90
999231 On ch=1 n=g3 v=75
999281 On ch=1 n=d#6 v=0
999286 Par ch=1 c=64 v=88
999301 Par ch=1 c=64 v=127
999351 On ch=1 n=g3 v=0
999376 On ch=1 n=d#6 v=71
999431 On ch=1 n=d#6 v=0
999496 On ch=1 n=c#5 v=60
999511 On ch=1 n=d#4 v=47
999516 On ch=1 n=d#6 v=70
999536 On ch=1 n=d#4 v=0
999546 On ch=1 n=c#5 v=0
999571 On ch=1 n=d#6 v=0
999626 On ch=1 n=c#5 v=64
999631 On ch=1 n=d#4 v=62
999641 On ch=1 n=d#6 v=67
999666 On ch=1 n=d#4 v=0
999666 On ch=1 n=c#5 v=0
999706 On ch=1 n=d#6 v=0
999781 On ch=1 n=d#6 v=67
999786 On ch=1 n=a#4 v=53
999791 On ch=1 n=c5 v=68
999791 On ch=1 n=d#4 v=62
999826 On ch=1 n=a#4 v=0
999841 On ch=1 n=d#6 v=0
999851 On ch=1 n=c5 v=0
999876 On ch=1 n=d#4 v=0
999916 On ch=1 n=d#6 v=71
999981 On ch=1 n=d#6 v=0
1000001 On ch=1 n=d#7 v=0
1000066 On ch=1 n=c#7 v=76
1000076 On ch=1 n=a#4 v=50
1000081 On ch=1 n=c#6 v=71
1000081 On ch=1 n=c#5 v=50
1000081 On ch=1 n=d#4 v=57
1000106 On ch=1 n=a#4 v=0
1000111 On ch=1 n=c#5 v=0
1000136 On ch=1 n=c#6 v=0
1000146 On ch=1 n=d#4 v=0
1000211 On ch=1 n=c#6 v=67
1000266 On ch=1 n=c#6 v=0
1000266 On ch=1 n=c#7 v=0
1000311 Par ch=1 c=64 v=72
1000326 Par ch=1 c=64 v=0
1000351 On ch=1 n=c7 v=80
1000361 On ch=1 n=c6 v=73
1000366 On ch=1 n=g#3 v=67
1000391 Par ch=1 c=64 v=40
1000396 On ch=1 n=c6 v=0
1000401 Par ch=1 c=64 v=104
1000421 Par ch=1 c=64 v=127
1000436 On ch=1 n=g#3 v=0
1000506 On ch=1 n=c6 v=74
1000546 On ch=1 n=c6 v=0
1000561 On ch=1 n=c7 v=0
1000626 On ch=1 n=d#4 v=70
1000631 On ch=1 n=c5 v=65
1000656 On ch=1 n=g#6 v=83
1000656 On ch=1 n=g#5 v=67
1000661 On ch=1 n=c5 v=0
1000686 On ch=1 n=d#4 v=0
1000696 On ch=1 n=g#5 v=0
1000766 On ch=1 n=d#4 v=52
1000776 On ch=1 n=g#5 v=60
1000781 On ch=1 n=c5 v=59
1000816 On ch=1 n=c5 v=0
1000846 On ch=1 n=d#4 v=0
1000851 On ch=1 n=g#5 v=0
1000886 On ch=1 n=g#6 v=0
1000916 On ch=1 n=g6 v=81
1000931 Par ch=1 c=64 v=88
1000936 On ch=1 n=g5 v=68
1000946 On ch=1 n=e4 v=63
1000946 On ch=1 n=c5 v=38
1000946 Par ch=1 c=64 v=40
1000986 On ch=1 n=g5 v=0
1000996 Par ch=1 c=64 v=104
1001011 On ch=1 n=c5 v=0
1001011 On ch=1 n=e4 v=0
1001011 Par ch=1 c=64 v=127
1001071 On ch=1 n=g5 v=67
1001126 On ch=1 n=g5 v=0
1001136 On ch=1 n=g6 v=0
1001216 On ch=1 n=f4 v=68
1001216 On ch=1 n=c5 v=54
1001221 On ch=1 n=f6 v=92
1001231 On ch=1 n=f5 v=68
1001246 On ch=1 n=c5 v=0
1001246 On ch=1 n=f4 v=0
1001261 On ch=1 n=f5 v=0
1001356 On ch=1 n=f5 v=69
1001416 On ch=1 n=f5 v=0
1001421 On ch=1 n=f6 v=0
1001491 Par ch=1 c=64 v=56
1001506 Par ch=1 c=64 v=0
1001511 On ch=1 n=a#2 v=65
1001521 On ch=1 n=d#6 v=90
1001521 On ch=1 n=d#5 v=79
1001571 On ch=1 n=a#2 v=0
1001581 On ch=1 n=d#5 v=0
1001586 Par ch=1 c=64 v=56
1001606 Par ch=1 c=64 v=127
1001666 On ch=1 n=d#5 v=64
1001736 On ch=1 n=d#5 v=0
1001806 On ch=1 n=a#4 v=46
1001816 On ch=1 n=f4 v=56
1001821 On ch=1 n=d#5 v=62
1001846 On ch=1 n=f4 v=0
1001846 On ch=1 n=a#4 v=0
1001881 On ch=1 n=d#5 v=0
1001946 On ch=1 n=d#5 v=60
1001951 On ch=1 n=a#4 v=34
1001971 On ch=1 n=f4 v=27
1001986 On ch=1 n=a#4 v=0
1002001 On ch=1 n=f4 v=0
1002011 On ch=1 n=d#5 v=0
1002051 Par ch=1 c=64 v=104
1002066 Par ch=1 c=64 v=56
1002081 Par ch=1 c=64 v=0
1002096 On ch=1 n=d#5 v=57
1002101 On ch=1 n=a4 v=54
1002116 On ch=1 n=f4 v=44
1002131 Par ch=1 c=64 v=24
1002146 Par ch=1 c=64 v=72
1002151 On ch=1 n=f4 v=0
1002151 On ch=1 n=a4 v=0
1002151 On ch=1 n=d#5 v=0
1002161 Par ch=1 c=64 v=104
1002176 Par ch=1 c=64 v=127
1002231 On ch=1 n=d#5 v=56
1002296 On ch=1 n=d#5 v=0
1002311 On ch=1 n=d#6 v=0
1002381 On ch=1 n=a#4 v=43
1002391 On ch=1 n=c#6 v=71
1002401 On ch=1 n=c#5 v=55
1002401 On ch=1 n=f4 v=50
1002431 On ch=1 n=f4 v=0
1002446 On ch=1 n=a#4 v=0
1002456 On ch=1 n=c#5 v=0
1002531 On ch=1 n=c#5 v=55
1002596 On ch=1 n=c#5 v=0
1002606 On ch=1 n=c#6 v=0
1002641 Par ch=1 c=64 v=56
1002656 Par ch=1 c=64 v=0
1002681 On ch=1 n=a#5 v=61
1002681 On ch=1 n=d#3 v=64
1002691 On ch=1 n=a#4 v=53
1002736 Par ch=1 c=64 v=56
1002741 On ch=1 n=d#3 v=0
1002746 On ch=1 n=a#4 v=0
1002756 Par ch=1 c=64 v=104
1002771 Par ch=1 c=64 v=127
1002826 On ch=1 n=a#4 v=56
1002891 On ch=1 n=a#4 v=0
1002981 On ch=1 n=g#4 v=53
1002981 On ch=1 n=a#4 v=53
1003011 On ch=1 n=g#4 v=0
1003036 On ch=1 n=a#4 v=0
1003111 On ch=1 n=d#4 v=60
1003111 On ch=1 n=a#4 v=50
1003116 On ch=1 n=g#4 v=49
1003146 On ch=1 n=g#4 v=0
1003156 On ch=1 n=a#4 v=0
1003161 On ch=1 n=d#4 v=0
1003186 On ch=1 n=a#5 v=0
1003246 Par ch=1 c=64 v=72
1003266 Par ch=1 c=64 v=0
1003276 On ch=1 n=d#5 v=57
1003281 On ch=1 n=d#6 v=78
1003281 On ch=1 n=g4 v=59
1003281 On ch=1 n=d#4 v=54
1003311 Par ch=1 c=64 v=40
1003326 On ch=1 n=d#5 v=0
1003326 Par ch=1 c=64 v=72
1003346 Par ch=1 c=64 v=127
1003356 On ch=1 n=g4 v=0
1003366 On ch=1 n=d#4 v=0
1003411 On ch=1 n=d#5 v=57
1003471 On ch=1 n=d#5 v=0
1003561 On ch=1 n=d#4 v=65
1003566 On ch=1 n=d#5 v=59
1003571 On ch=1 n=f4 v=60
1003596 On ch=1 n=f4 v=0
1003611 On ch=1 n=d#4 v=0
1003616 On ch=1 n=d#5 v=0
1003691 On ch=1 n=d#5 v=58
1003746 On ch=1 n=d#6 v=0
1003751 On ch=1 n=d#5 v=0
1003826 Par ch=1 c=64 v=40
1003836 Par ch=1 c=64 v=0
1003871 On ch=1 n=c6 v=81
1003876 On ch=1 n=g#2 v=59
1003886 On ch=1 n=c5 v=62
1003921 Par ch=1 c=64 v=40
1003926 On ch=1 n=c5 v=0
1003936 On ch=1 n=g#2 v=0
1003936 Par ch=1 c=64 v=88
1003951 Par ch=1 c=64 v=127
1004026 On ch=1 n=c5 v=63
1004086 On ch=1 n=c5 v=0
1004171 On ch=1 n=d#4 v=53
1004171 On ch=1 n=g#3 v=54
1004186 On ch=1 n=c5 v=55
1004201 On ch=1 n=d#4 v=0
1004206 On ch=1 n=g#3 v=0
1004231 On ch=1 n=c5 v=0
1004311 On ch=1 n=d#4 v=60
1004316 On ch=1 n=c5 v=56
1004321 On ch=1 n=g#3 v=50
1004371 On ch=1 n=d#4 v=0
1004381 On ch=1 n=g#3 v=0
1004411 On ch=1 n=c5 v=0
1004426 On ch=1 n=c6 v=0
1004496 Par ch=1 c=64 v=88
1004511 On ch=1 n=b5 v=70
1004511 On ch=1 n=g3 v=58
1004511 Par ch=1 c=64 v=0
1004516 On ch=1 n=b4 v=51
1004516 On ch=1 n=d#4 v=48
1004571 On ch=1 n=b4 v=0
1004606 On ch=1 n=b5 v=0
1004606 Par ch=1 c=64 v=56
1004621 On ch=1 n=d#4 v=0
1004621 On ch=1 n=g3 v=0
1004621 Par ch=1 c=64 v=104
1004636 Par ch=1 c=64 v=127
1004656 On ch=1 n=b4 v=53
1004746 On ch=1 n=b4 v=0
1004826 On ch=1 n=b4 v=51
1004841 On ch=1 n=g#3 v=45
1004876 Par ch=1 c=64 v=72
1004891 Par ch=1 c=64 v=0
1004896 On ch=1 n=b4 v=0
1004916 On ch=1 n=g#3 v=0
1004941 Par ch=1 c=64 v=56
1004956 Par ch=1 c=64 v=104
1004971 Par ch=1 c=64 v=127
1004986 On ch=1 n=b4 v=53
1005036 On ch=1 n=b4 v=0
1005296 Par ch=1 c=64 v=24
1005306 On ch=1 n=b2 v=44
1005311 Par ch=1 c=64 v=56
1005316 On ch=1 n=b5 v=73
1005326 On ch=1 n=b3 v=26
1005331 Par ch=1 c=64 v=104
1005341 On ch=1 n=b2 v=0
1005346 Par ch=1 c=64 v=127
1005371 On ch=1 n=b3 v=0
1005531 On ch=1 n=b5 v=0
1005536 On ch=1 n=b4 v=45
1005536 On ch=1 n=f#4 v=39
1005546 On ch=1 n=f#5 v=49
1005556 On ch=1 n=d#5 v=32
1005656 On ch=1 n=d#5 v=0
1005666 On ch=1 n=f#5 v=0
1005701 On ch=1 n=d#6 v=81
1005856 On ch=1 n=f#5 v=49
1005866 On ch=1 n=d#6 v=0
1005871 On ch=1 n=d#5 v=31
1005961 On ch=1 n=d#5 v=0
1005981 On ch=1 n=f#5 v=0
1006006 On ch=1 n=d6 v=80
1006126 On ch=1 n=d6 v=0
1006176 On ch=1 n=f#5 v=50
1006176 On ch=1 n=d#5 v=38
1006281 On ch=1 n=d#5 v=0
1006296 On ch=1 n=f#5 v=0
1006336 On ch=1 n=d#6 v=80
1006491 On ch=1 n=b4 v=0
1006496 On ch=1 n=f#5 v=47
1006506 On ch=1 n=d#5 v=30
1006516 On ch=1 n=d#6 v=0
1006551 On ch=1 n=f#4 v=0
1006636 Par ch=1 c=64 v=88
1006641 On ch=1 n=d#5 v=0
1006656 Par ch=1 c=64 v=40
1006666 On ch=1 n=f#5 v=0
1006671 On ch=1 n=b3 v=54
1006671 Par ch=1 c=64 v=0
1006681 On ch=1 n=b5 v=70
1006776 Par ch=1 c=64 v=40
1006796 Par ch=1 c=64 v=72
1006806 On ch=1 n=b3 v=0
1006811 Par ch=1 c=64 v=127
1006841 On ch=1 n=f#4 v=40
1006846 On ch=1 n=f#5 v=44
1006846 On ch=1 n=d#5 v=42
1006961 On ch=1 n=f#4 v=0
1007011 On ch=1 n=d#4 v=58
1007021 On ch=1 n=d#5 v=0
1007041 On ch=1 n=f#5 v=0
1007131 On ch=1 n=d#4 v=0
1007171 On ch=1 n=f#4 v=39
1007196 On ch=1 n=f#5 v=47
1007201 On ch=1 n=d#5 v=39
1007291 On ch=1 n=f#4 v=0
1007336 On ch=1 n=d4 v=66
1007346 On ch=1 n=d#5 v=0
1007356 On ch=1 n=f#5 v=0
1007476 On ch=1 n=d4 v=0
1007501 On ch=1 n=f#4 v=38
1007501 On ch=1 n=f#5 v=38
1007501 On ch=1 n=b4 v=34
1007516 On ch=1 n=b5 v=0
1007516 On ch=1 n=d#5 v=27
1007591 On ch=1 n=b4 v=0
1007621 On ch=1 n=f#4 v=0
1007636 On ch=1 n=d#5 v=0
1007656 On ch=1 n=f#5 v=0
1007666 On ch=1 n=d#4 v=57
1007671 On ch=1 n=a#5 v=77
1007806 On ch=1 n=d#4 v=0
1007826 On ch=1 n=f#4 v=45
1007831 On ch=1 n=f#5 v=46
1007836 On ch=1 n=d#5 v=32
1007836 On ch=1 n=b4 v=33
1007921 On ch=1 n=a#5 v=0
1007926 On ch=1 n=b4 v=0
1007931 On ch=1 n=f#4 v=0
1007946 On ch=1 n=d#5 v=0
1007981 Par ch=1 c=64 v=104
1007991 On ch=1 n=f#5 v=0
1007996 Par ch=1 c=64 v=72
1008016 Par ch=1 c=64 v=24
1008031 On ch=1 n=g#5 v=74
1008031 Par ch=1 c=64 v=0
1008041 On ch=1 n=b3 v=55
1008151 Par ch=1 c=64 v=40
1008171 Par ch=1 c=64 v=88
1008191 Par ch=1 c=64 v=127
1008211 On ch=1 n=g#4 v=39
1008216 On ch=1 n=e5 v=56
1008231 On ch=1 n=b4 v=17
1008331 On ch=1 n=e5 v=0
1008331 On ch=1 n=g#5 v=0
1008356 On ch=1 n=b4 v=0
1008366 On ch=1 n=g#4 v=0
1008366 On ch=1 n=a#5 v=74
1008521 On ch=1 n=e5 v=68
1008566 On ch=1 n=g#4 v=49
1008581 On ch=1 n=a#5 v=0
1008601 On ch=1 n=b4 v=31
1008636 On ch=1 n=e5 v=0
1008671 On ch=1 n=b4 v=0
1008686 On ch=1 n=b5 v=82
1008711 On ch=1 n=g#4 v=0
1008836 On ch=1 n=b3 v=0
1008836 On ch=1 n=e5 v=68
1008841 On ch=1 n=g#4 v=33
1008866 On ch=1 n=b4 v=33
1008901 On ch=1 n=g#4 v=0
1008926 On ch=1 n=b4 v=0
1008981 On ch=1 n=b5 v=0
1008991 On ch=1 n=e5 v=0
1009006 Par ch=1 c=64 v=88
1009021 On ch=1 n=c#6 v=86
1009026 Par ch=1 c=64 v=56
1009041 On ch=1 n=a#3 v=65
1009041 Par ch=1 c=64 v=0
1009141 On ch=1 n=a#3 v=0
1009166 Par ch=1 c=64 v=56
1009181 Par ch=1 c=64 v=104
1009201 On ch=1 n=e5 v=47
1009201 Par ch=1 c=64 v=127
1009206 On ch=1 n=f#4 v=46
1009216 On ch=1 n=c#5 v=30
1009271 On ch=1 n=c#6 v=0
1009286 On ch=1 n=c#5 v=0
1009301 On ch=1 n=e5 v=0
1009306 On ch=1 n=f#4 v=0
1009386 On ch=1 n=d#6 v=82
1009401 On ch=1 n=b3 v=60
1009406 Par ch=1 c=64 v=104
1009426 Par ch=1 c=64 v=56
1009446 Par ch=1 c=64 v=0
1009541 On ch=1 n=b3 v=0
1009556 On ch=1 n=f#4 v=32
1009566 On ch=1 n=d#5 v=35
1009566 Par ch=1 c=64 v=40
1009576 On ch=1 n=f#5 v=38
1009586 On ch=1 n=b4 v=35
1009586 Par ch=1 c=64 v=88
1009601 Par ch=1 c=64 v=127
1009656 On ch=1 n=b4 v=0
1009661 On ch=1 n=f#4 v=0
1009676 On ch=1 n=f#5 v=0
1009711 On ch=1 n=d#5 v=0
1009736 On ch=1 n=c#4 v=62
1009871 On ch=1 n=c#4 v=0
1009896 On ch=1 n=f#4 v=42
1009896 On ch=1 n=d#5 v=40
1009901 On ch=1 n=f#5 v=45
1009916 On ch=1 n=b4 v=37
1009991 On ch=1 n=b4 v=0
1009991 On ch=1 n=f#4 v=0
1010046 On ch=1 n=f#5 v=0
1010066 On ch=1 n=d#4 v=63
1010071 On ch=1 n=d#5 v=0
1010186 On ch=1 n=d#4 v=0
1010221 On ch=1 n=f#4 v=43
1010226 On ch=1 n=d#5 v=30
1010236 On ch=1 n=f#5 v=36
1010241 On ch=1 n=b4 v=35
1010316 On ch=1 n=b4 v=0
1010336 On ch=1 n=f#4 v=0
1010386 On ch=1 n=e4 v=70
1010411 On ch=1 n=d#5 v=0
1010426 On ch=1 n=f#5 v=0
1010526 Par ch=1 c=64 v=104
1010536 On ch=1 n=d#5 v=38
1010556 On ch=1 n=f#5 v=40
1010556 On ch=1 n=b4 v=46
1010626 On ch=1 n=e4 v=0
1010671 On ch=1 n=b4 v=0
1010676 On ch=1 n=d#6 v=0
1010706 On ch=1 n=d#5 v=0
1010721 On ch=1 n=f#5 v=0
1010736 Par ch=1 c=64 v=72
1010746 On ch=1 n=f#4 v=68
1010751 On ch=1 n=b5 v=68
1010751 Par ch=1 c=64 v=40
1010771 Par ch=1 c=64 v=0
1010911 Par ch=1 c=64 v=24
1010916 On ch=1 n=b4 v=52
1010921 On ch=1 n=d#5 v=33
1010926 Par ch=1 c=64 v=72
1010931 On ch=1 n=f#5 v=39
1010941 Par ch=1 c=64 v=127
1011056 On ch=1 n=d#5 v=0
1011056 On ch=1 n=b5 v=0
1011081 On ch=1 n=f#5 v=0
1011101 On ch=1 n=d#6 v=84
1011141 On ch=1 n=b4 v=0
1011256 On ch=1 n=d#5 v=37
1011271 On ch=1 n=f#5 v=50
1011301 On ch=1 n=b4 v=48
1011306 On ch=1 n=d#6 v=0
1011376 On ch=1 n=d#5 v=0
1011401 On ch=1 n=f#5 v=0
1011431 On ch=1 n=d6 v=87
1011441 On ch=1 n=b4 v=0
1011581 On ch=1 n=d6 v=0
1011591 On ch=1 n=f#5 v=57
1011591 On ch=1 n=d#5 v=46
1011641 On ch=1 n=b4 v=54
1011686 On ch=1 n=b4 v=0
1011716 On ch=1 n=d#5 v=0
1011736 On ch=1 n=f#5 v=0
1011756 On ch=1 n=d#6 v=87
1011906 On ch=1 n=d#5 v=51
1011926 On ch=1 n=f#5 v=63
1011936 On ch=1 n=f#4 v=0
1011941 On ch=1 n=b4 v=39
1011966 On ch=1 n=d#5 v=0
1011976 On ch=1 n=f#5 v=0
1011986 On ch=1 n=b4 v=0
1011996 On ch=1 n=d#6 v=0
1012131 Par ch=1 c=64 v=104
1012141 On ch=1 n=b6 v=92
1012146 Par ch=1 c=64 v=72
1012161 On ch=1 n=b3 v=55
1012166 Par ch=1 c=64 v=40
1012181 Par ch=1 c=64 v=0
1012301 Par ch=1 c=64 v=40
1012311 On ch=1 n=d#6 v=57
1012311 On ch=1 n=b5 v=45
1012321 On ch=1 n=b3 v=0
1012321 Par ch=1 c=64 v=104
1012331 On ch=1 n=b4 v=29
1012336 On ch=1 n=g#4 v=43
1012336 Par ch=1 c=64 v=127
1012411 On ch=1 n=b4 v=0
1012431 On ch=1 n=b5 v=0
1012461 On ch=1 n=g#4 v=0
1012466 On ch=1 n=d#6 v=0
1012486 On ch=1 n=d#4 v=57
1012606 On ch=1 n=d#4 v=0
1012646 On ch=1 n=g#4 v=45
1012651 On ch=1 n=d#6 v=51
1012661 On ch=1 n=b5 v=38
1012666 On ch=1 n=b4 v=26
1012746 On ch=1 n=b4 v=0
1012761 On ch=1 n=g#4 v=0
1012811 On ch=1 n=d4 v=67
1012816 On ch=1 n=b5 v=0
1012856 On ch=1 n=d#6 v=0
1012931 On ch=1 n=d4 v=0
1012956 On ch=1 n=g#4 v=51
1012986 On ch=1 n=b5 v=50
1012986 On ch=1 n=b4 v=24
1012991 On ch=1 n=d#6 v=51
1013026 On ch=1 n=b6 v=0
1013036 On ch=1 n=b4 v=0
1013096 On ch=1 n=b5 v=0
1013131 On ch=1 n=d#6 v=0
1013136 On ch=1 n=g#4 v=0
1013146 On ch=1 n=a#6 v=87
1013151 On ch=1 n=d#4 v=56
1013301 On ch=1 n=d#4 v=0
1013301 On ch=1 n=b5 v=57
1013306 On ch=1 n=b4 v=60
1013306 On ch=1 n=d#6 v=55
1013341 On ch=1 n=b4 v=0
1013386 On ch=1 n=b5 v=0
1013411 On ch=1 n=a#6 v=0
1013456 On ch=1 n=d#6 v=0
1013526 On ch=1 n=g#6 v=85
1013541 Par ch=1 c=64 v=104
1013556 Par ch=1 c=64 v=72
1013576 Par ch=1 c=64 v=40
1013586 On ch=1 n=b4 v=50
1013596 Par ch=1 c=64 v=0
1013716 Par ch=1 c=64 v=72
1013721 On ch=1 n=g#5 v=53
1013721 On ch=1 n=c#6 v=39
1013736 On ch=1 n=f5 v=51
1013736 Par ch=1 c=64 v=127
1013746 On ch=1 n=f6 v=65
1013781 On ch=1 n=c#5 v=23
1013831 On ch=1 n=f5 v=0
1013831 On ch=1 n=g#5 v=0
1013851 On ch=1 n=c#6 v=0
1013851 On ch=1 n=g#6 v=0
1013856 On ch=1 n=c#5 v=0
1013866 On ch=1 n=f6 v=0
1013881 On ch=1 n=a#6 v=86
1014031 On ch=1 n=c#6 v=50
1014041 On ch=1 n=f6 v=72
1014066 On ch=1 n=a#6 v=0
1014066 On ch=1 n=g#5 v=34
1014101 On ch=1 n=f5 v=27
1014106 On ch=1 n=c#5 v=37
1014151 On ch=1 n=f5 v=0
1014161 On ch=1 n=c#6 v=0
1014181 On ch=1 n=g#5 v=0
1014186 On ch=1 n=f6 v=0
1014201 On ch=1 n=c#5 v=0
1014206 On ch=1 n=b6 v=90
1014341 On ch=1 n=b6 v=0
1014361 On ch=1 n=f6 v=70
1014361 On ch=1 n=c#6 v=54
1014366 On ch=1 n=g#5 v=46
1014381 On ch=1 n=c#5 v=38
1014391 On ch=1 n=f5 v=38
1014411 On ch=1 n=b4 v=0
1014441 On ch=1 n=f5 v=0
1014476 On ch=1 n=c#6 v=0
1014496 On ch=1 n=f6 v=0
1014516 On ch=1 n=g#5 v=0
1014521 On ch=1 n=c#5 v=0
1014531 On ch=1 n=c7 v=93
1014536 Par ch=1 c=64 v=88
1014551 Par ch=1 c=64 v=56
1014571 Par ch=1 c=64 v=40
1014576 On ch=1 n=b4 v=64
1014656 Par ch=1 c=64 v=88
1014676 Par ch=1 c=64 v=104
1014686 On ch=1 n=c7 v=0
1014691 On ch=1 n=b4 v=0
1014696 On ch=1 n=f6 v=69
1014696 On ch=1 n=c#6 v=48
1014696 Par ch=1 c=64 v=127
1014721 On ch=1 n=g#5 v=32
1014736 On ch=1 n=c#5 v=30
1014756 On ch=1 n=f5 v=19
1014791 On ch=1 n=f5 v=0
1014791 On ch=1 n=f6 v=0
1014816 On ch=1 n=c#6 v=0
1014831 On ch=1 n=c#5 v=0
1014841 On ch=1 n=g#5 v=0
1014866 Par ch=1 c=64 v=88
1014876 On ch=1 n=c#7 v=86
1014886 Par ch=1 c=64 v=40
1014901 Par ch=1 c=64 v=0
1014911 On ch=1 n=a#4 v=60
1015006 Par ch=1 c=64 v=56
1015021 Par ch=1 c=64 v=104
1015041 On ch=1 n=a#4 v=0
1015041 On ch=1 n=f#6 v=64
1015041 On ch=1 n=c#6 v=49
1015041 Par ch=1 c=64 v=127
1015061 On ch=1 n=f#5 v=50
1015086 On ch=1 n=a#5 v=31
1015176 On ch=1 n=a#5 v=0
1015191 On ch=1 n=f#5 v=0
1015191 On ch=1 n=c#6 v=0
1015221 On ch=1 n=f#6 v=0
1015226 On ch=1 n=b4 v=64
1015366 On ch=1 n=f#6 v=56
1015376 On ch=1 n=b4 v=0
1015376 On ch=1 n=f#5 v=38
1015381 On ch=1 n=c#6 v=35
1015391 On ch=1 n=a#5 v=28
1015501 On ch=1 n=a#5 v=0
1015501 On ch=1 n=f#5 v=0
1015521 On ch=1 n=c#6 v=0
1015541 On ch=1 n=c#5 v=63
1015556 On ch=1 n=f#6 v=0
1015676 On ch=1 n=c#5 v=0
1015701 On ch=1 n=f#6 v=48
1015701 On ch=1 n=c#6 v=39
1015706 On ch=1 n=a#5 v=42
1015711 On ch=1 n=f#5 v=44
1015791 On ch=1 n=c#7 v=0
1015816 On ch=1 n=f#5 v=0
1015816 On ch=1 n=c#6 v=0
1015826 On ch=1 n=a#5 v=0
1015841 On ch=1 n=f#6 v=0
1015861 Par ch=1 c=64 v=104
1015871 On ch=1 n=b6 v=81
1015881 On ch=1 n=d5 v=64
1015956 On ch=1 n=a#6 v=6
1015986 On ch=1 n=b6 v=0
1016016 On ch=1 n=a#6 v=0
1016026 On ch=1 n=d5 v=0
1016031 On ch=1 n=g#5 v=39
1016036 On ch=1 n=b5 v=51
1016041 On ch=1 n=f6 v=68
1016051 On ch=1 n=f5 v=46
1016086 On ch=1 n=b5 v=0
1016096 On ch=1 n=f5 v=0
1016131 On ch=1 n=g#5 v=0
1016151 On ch=1 n=f6 v=0
1016191 Par ch=1 c=64 v=56
1016201 On ch=1 n=a#6 v=84
1016211 Par ch=1 c=64 v=0
1016236 On ch=1 n=d#5 v=60
1016331 Par ch=1 c=64 v=40
1016351 Par ch=1 c=64 v=104
1016361 On ch=1 n=f#5 v=50
1016366 Par ch=1 c=64 v=127
1016376 On ch=1 n=f#6 v=67
1016386 On ch=1 n=a#5 v=46
1016436 On ch=1 n=a#6 v=0
1016491 On ch=1 n=a#5 v=0
1016506 On ch=1 n=f#5 v=0
1016526 On ch=1 n=f#6 v=0
1016541 On ch=1 n=c7 v=87
1016686 On ch=1 n=c6 v=53
1016691 On ch=1 n=c7 v=0
1016701 On ch=1 n=f#6 v=69
1016711 On ch=1 n=f#5 v=52
1016751 On ch=1 n=c6 v=0
1016821 On ch=1 n=f#5 v=0
1016841 On ch=1 n=f#6 v=0
1016856 On ch=1 n=c#7 v=86
1017021 On ch=1 n=c#7 v=0
1017026 On ch=1 n=f#6 v=68
1017026 On ch=1 n=c#6 v=69
1017036 On ch=1 n=f#5 v=56
1017081 On ch=1 n=c#6 v=0
1017166 On ch=1 n=d#5 v=0
1017171 Par ch=1 c=64 v=88
1017176 On ch=1 n=f#6 v=0
1017186 Par ch=1 c=64 v=40
1017201 On ch=1 n=d7 v=91
1017206 On ch=1 n=f#5 v=0
1017206 Par ch=1 c=64 v=0
1017221 On ch=1 n=c#5 v=57
1017291 Par ch=1 c=64 v=24
1017306 Par ch=1 c=64 v=56
1017326 Par ch=1 c=64 v=104
1017341 Par ch=1 c=64 v=127
1017356 On ch=1 n=d6 v=63
1017366 On ch=1 n=f#6 v=61
1017371 On ch=1 n=d7 v=0
1017381 On ch=1 n=a#5 v=37
1017386 On ch=1 n=c#5 v=0
1017386 On ch=1 n=f#5 v=40
1017426 On ch=1 n=d6 v=0
1017491 On ch=1 n=f#6 v=0
1017511 On ch=1 n=a#5 v=0
1017516 On ch=1 n=f#5 v=0
1017531 Par ch=1 c=64 v=72
1017541 On ch=1 n=d#7 v=96
1017551 Par ch=1 c=64 v=0
1017571 On ch=1 n=c5 v=63
1017656 Par ch=1 c=64 v=40
1017676 Par ch=1 c=64 v=88
1017691 Par ch=1 c=64 v=127
1017711 On ch=1 n=d#6 v=54
1017716 On ch=1 n=f#6 v=62
1017721 On ch=1 n=f#5 v=48
1017726 On ch=1 n=c5 v=0
1017746 On ch=1 n=d#5 v=49
1017781 On ch=1 n=d#7 v=0
1017786 On ch=1 n=d#5 v=0
1017806 On ch=1 n=f#5 v=0
1017856 On ch=1 n=d#6 v=0
1017866 On ch=1 n=f#6 v=0
1017881 Par ch=1 c=64 v=104
1017886 On ch=1 n=g#6 v=87
1017901 Par ch=1 c=64 v=40
1017916 Par ch=1 c=64 v=0
1017921 On ch=1 n=b4 v=54
1018021 Par ch=1 c=64 v=40
1018041 Par ch=1 c=64 v=104
1018046 On ch=1 n=b4 v=0
1018056 Par ch=1 c=64 v=127
1018061 On ch=1 n=c#6 v=36
1018076 On ch=1 n=g#5 v=40
1018081 On ch=1 n=f5 v=46
1018086 On ch=1 n=f6 v=59
1018126 On ch=1 n=f5 v=0
1018161 On ch=1 n=g#5 v=0
1018186 On ch=1 n=f6 v=0
1018196 On ch=1 n=c#6 v=0
1018231 Par ch=1 c=64 v=104
1018236 On ch=1 n=c#7 v=82
1018251 Par ch=1 c=64 v=56
1018266 On ch=1 n=a#4 v=52
1018266 Par ch=1 c=64 v=0
1018291 On ch=1 n=g#6 v=0
1018371 Par ch=1 c=64 v=56
1018391 Par ch=1 c=64 v=104
1018406 Par ch=1 c=64 v=127
1018411 On ch=1 n=f#5 v=44
1018411 On ch=1 n=f#6 v=53
1018421 On ch=1 n=a#4 v=0
1018421 On ch=1 n=c#6 v=36
1018446 On ch=1 n=a#5 v=31
1018511 On ch=1 n=c#7 v=0
1018526 On ch=1 n=c#6 v=0
1018536 On ch=1 n=a#5 v=0
1018536 On ch=1 n=f#5 v=0
1018561 On ch=1 n=f#6 v=0
1018561 Par ch=1 c=64 v=88
1018576 On ch=1 n=b6 v=83
1018581 Par ch=1 c=64 v=24
1018586 On ch=1 n=b4 v=57
1018596 Par ch=1 c=64 v=0
1018686 Par ch=1 c=64 v=40
1018701 Par ch=1 c=64 v=88
1018721 Par ch=1 c=64 v=127
1018741 On ch=1 n=c#6 v=36
1018741 On ch=1 n=f#5 v=37
1018751 On ch=1 n=f#6 v=53
1018756 On ch=1 n=a#5 v=26
1018766 On ch=1 n=b4 v=0
1018791 On ch=1 n=b6 v=0
1018821 On ch=1 n=a#5 v=0
1018841 On ch=1 n=f#5 v=0
1018876 On ch=1 n=c#6 v=0
1018891 On ch=1 n=f#6 v=0
1018911 On ch=1 n=g#6 v=86
1018911 Par ch=1 c=64 v=56
1018926 On ch=1 n=c#5 v=49
1018931 Par ch=1 c=64 v=0
1019051 Par ch=1 c=64 v=40
1019066 Par ch=1 c=64 v=88
1019081 On ch=1 n=f#5 v=46
1019086 On ch=1 n=g#5 v=38
1019086 Par ch=1 c=64 v=127
1019091 On ch=1 n=f#6 v=52
1019091 On ch=1 n=c#6 v=37
1019216 On ch=1 n=g#6 v=0
1019236 On ch=1 n=c#6 v=0
1019251 On ch=1 n=f#6 v=0
1019261 On ch=1 n=f#5 v=0
1019266 On ch=1 n=a6 v=81
1019316 On ch=1 n=g#5 v=0
1019436 On ch=1 n=c#6 v=36
1019446 On ch=1 n=f#5 v=49
1019456 On ch=1 n=a5 v=55
1019461 On ch=1 n=f#6 v=46
1019481 On ch=1 n=c#5 v=0
1019571 On ch=1 n=a5 v=0
1019586 On ch=1 n=f#5 v=0
1019596 On ch=1 n=f#6 v=0
1019601 On ch=1 n=c#6 v=0
1019601 On ch=1 n=a6 v=0
1019611 On ch=1 n=a#6 v=78
1019626 Par ch=1 c=64 v=104
1019631 On ch=1 n=c#5 v=57
1019646 Par ch=1 c=64 v=56
1019661 Par ch=1 c=64 v=0
1019781 Par ch=1 c=64 v=24
1019801 Par ch=1 c=64 v=72
1019811 On ch=1 n=c#6 v=29
1019816 Par ch=1 c=64 v=104
1019821 On ch=1 n=f6 v=47
1019836 Par ch=1 c=64 v=127
1019841 On ch=1 n=a#5 v=31
1019846 On ch=1 n=f5 v=36
1019921 Par ch=1 c=64 v=88
1019941 On ch=1 n=a#6 v=0
1019941 Par ch=1 c=64 v=40
1019956 Par ch=1 c=64 v=0
1019961 On ch=1 n=f6 v=0
1019971 On ch=1 n=c#6 v=0
1019981 On ch=1 n=a#5 v=0
1019981 On ch=1 n=g#6 v=75
1020011 On ch=1 n=f5 v=0
1020026 Par ch=1 c=64 v=24
1020046 Par ch=1 c=64 v=72
1020061 Par ch=1 c=64 v=127
1020161 On ch=1 n=g#5 v=45
1020171 On ch=1 n=f6 v=53
1020176 On ch=1 n=c#6 v=31
1020211 On ch=1 n=g#5 v=0
1020211 On ch=1 n=g#6 v=0
1020216 On ch=1 n=c#5 v=0
1020221 On ch=1 n=f6 v=0
1020231 On ch=1 n=c#6 v=0
1020366 On ch=1 n=f#6 v=71
1020376 Par ch=1 c=64 v=88
1020381 On ch=1 n=f#4 v=57
1020396 Par ch=1 c=64 v=40
1020411 Par ch=1 c=64 v=0
1020516 Par ch=1 c=64 v=56
1020531 On ch=1 n=a#5 v=39
1020531 Par ch=1 c=64 v=104
1020541 On ch=1 n=c#6 v=44
1020546 On ch=1 n=f#4 v=0
1020551 On ch=1 n=c#5 v=36
1020551 Par ch=1 c=64 v=127
1020556 On ch=1 n=f#5 v=31
1020666 On ch=1 n=c#5 v=0
1020676 On ch=1 n=f#5 v=0
1020676 On ch=1 n=a#5 v=0
1020711 On ch=1 n=a#4 v=57
1020731 On ch=1 n=c#6 v=0
1020846 On ch=1 n=a#4 v=0
1020881 On ch=1 n=c#5 v=46
1020891 On ch=1 n=f#5 v=30
1020891 On ch=1 n=c#6 v=38
1020906 On ch=1 n=a#5 v=27
1020996 On ch=1 n=c#5 v=0
1021016 On ch=1 n=f#5 v=0
1021036 On ch=1 n=a#5 v=0
1021051 On ch=1 n=a4 v=60
1021061 On ch=1 n=c#6 v=0
1021216 On ch=1 n=f#5 v=34
1021226 On ch=1 n=a4 v=0
1021236 On ch=1 n=c#5 v=42
1021251 On ch=1 n=a#5 v=26
1021251 On ch=1 n=c#6 v=38
1021326 On ch=1 n=a#5 v=0
1021336 On ch=1 n=f#5 v=0
1021341 On ch=1 n=c#6 v=0
1021346 On ch=1 n=c#5 v=0
1021386 On ch=1 n=a#4 v=50
1021496 On ch=1 n=a#5 v=28
1021516 On ch=1 n=c#6 v=39
1021571 On ch=1 n=f#5 v=43
1021581 On ch=1 n=f#6 v=0
1021601 On ch=1 n=a#4 v=0
1021631 On ch=1 n=a#5 v=0
1021731 On ch=1 n=c#6 v=0
1021746 On ch=1 n=f#5 v=0
1021811 On ch=1 n=e6 v=80
1021856 On ch=1 n=f#4 v=51
1021876 Par ch=1 c=64 v=104
1021891 Par ch=1 c=64 v=72
1021911 Par ch=1 c=64 v=24
1021926 Par ch=1 c=64 v=0
1022006 On ch=1 n=a#5 v=34
1022021 On ch=1 n=c#6 v=43
1022031 On ch=1 n=c#5 v=36
1022036 On ch=1 n=f#5 v=30
1022046 Par ch=1 c=64 v=56
1022066 Par ch=1 c=64 v=104
1022086 Par ch=1 c=64 v=127
1022091 On ch=1 n=e6 v=0
1022146 On ch=1 n=a#5 v=0
1022166 On ch=1 n=c#6 v=0
1022201 On ch=1 n=a#6 v=85
1022281 On ch=1 n=f#5 v=0
1022281 On ch=1 n=c#5 v=0
1022356 On ch=1 n=a#5 v=45
1022366 On ch=1 n=c#6 v=59
1022416 On ch=1 n=a#6 v=0
1022431 On ch=1 n=f#5 v=39
1022456 On ch=1 n=c#5 v=29
1022496 On ch=1 n=c#5 v=0
1022496 On ch=1 n=a#5 v=0
1022516 On ch=1 n=f#5 v=0
1022526 On ch=1 n=c#6 v=0
1022546 On ch=1 n=a6 v=82
1022706 On ch=1 n=a#5 v=42
1022711 On ch=1 n=a6 v=0
1022711 On ch=1 n=c#6 v=55
1022731 On ch=1 n=f#5 v=36
1022741 On ch=1 n=c#5 v=42
1022821 On ch=1 n=f#5 v=0
1022831 On ch=1 n=c#5 v=0
1022856 On ch=1 n=a#5 v=0
1022876 On ch=1 n=c#6 v=0
1022876 On ch=1 n=a#6 v=79
1023041 On ch=1 n=f#4 v=0
1023041 On ch=1 n=f#5 v=22
1023046 On ch=1 n=a#5 v=42
1023056 On ch=1 n=c#5 v=32
1023066 On ch=1 n=c#6 v=44
1023101 On ch=1 n=c#5 v=0
1023101 On ch=1 n=a#6 v=0
1023131 On ch=1 n=f#5 v=0
1023196 On ch=1 n=a#5 v=0
1023211 On ch=1 n=c#6 v=0
1023236 Par ch=1 c=64 v=88
1023241 On ch=1 n=a#6 v=72
1023251 Par ch=1 c=64 v=40
1023271 Par ch=1 c=64 v=0
1023276 On ch=1 n=f4 v=57
1023376 On ch=1 n=f4 v=0
1023376 Par ch=1 c=64 v=40
1023391 Par ch=1 c=64 v=104
1023411 Par ch=1 c=64 v=127
1023416 On ch=1 n=d5 v=54
1023426 On ch=1 n=a#5 v=36
1023446 On ch=1 n=f5 v=17
1023446 On ch=1 n=d6 v=51
1023501 On ch=1 n=f5 v=0
1023501 On ch=1 n=d5 v=0
1023551 On ch=1 n=d6 v=0
1023556 On ch=1 n=a#5 v=0
1023586 On ch=1 n=g#4 v=44
1023711 On ch=1 n=g#4 v=0
1023746 On ch=1 n=d5 v=45
1023761 On ch=1 n=a#5 v=40
1023766 On ch=1 n=f5 v=35
1023796 On ch=1 n=d6 v=42
1023851 On ch=1 n=f5 v=0
1023876 On ch=1 n=d5 v=0
1023891 On ch=1 n=a#5 v=0
1023896 On ch=1 n=a#6 v=0
1023911 On ch=1 n=d6 v=0
1023936 On ch=1 n=g4 v=63
1023941 On ch=1 n=f6 v=79
1024086 On ch=1 n=g4 v=0
1024096 On ch=1 n=d5 v=51
1024116 On ch=1 n=a#5 v=28
1024116 On ch=1 n=f5 v=31
1024141 On ch=1 n=d6 v=41
1024166 On ch=1 n=f6 v=0
1024176 On ch=1 n=f5 v=0
1024196 On ch=1 n=d5 v=0
1024201 On ch=1 n=d6 v=0
1024201 On ch=1 n=a#5 v=0
1024266 On ch=1 n=g#4 v=60
1024436 On ch=1 n=a#5 v=36
1024461 On ch=1 n=g#4 v=0
1024471 On ch=1 n=f5 v=34
1024481 On ch=1 n=d5 v=35
1024511 On ch=1 n=f5 v=0
1024521 On ch=1 n=d5 v=0
1024571 On ch=1 n=a#5 v=0
1024701 On ch=1 n=d6 v=69
1024711 On ch=1 n=e4 v=56
1024716 Par ch=1 c=64 v=104
1024736 Par ch=1 c=64 v=56
1024751 Par ch=1 c=64 v=0
1024866 On ch=1 n=b4 v=47
1024871 Par ch=1 c=64 v=72
1024881 On ch=1 n=e5 v=41
1024881 On ch=1 n=g#5 v=34
1024891 On ch=1 n=d6 v=0
1024891 Par ch=1 c=64 v=127
1024901 On ch=1 n=b5 v=49
1024996 On ch=1 n=g#5 v=0
1025001 On ch=1 n=b5 v=0
1025046 On ch=1 n=e5 v=0
1025051 On ch=1 n=g#6 v=84
1025071 On ch=1 n=b4 v=0
1025221 On ch=1 n=g#5 v=35
1025236 On ch=1 n=b5 v=53
1025256 On ch=1 n=g#6 v=0
1025261 On ch=1 n=e5 v=30
1025281 On ch=1 n=b4 v=33
1025321 On ch=1 n=g#5 v=0
1025331 On ch=1 n=e5 v=0
1025336 On ch=1 n=b4 v=0
1025356 On ch=1 n=b5 v=0
1025396 On ch=1 n=g6 v=82
1025541 On ch=1 n=g6 v=0
1025541 On ch=1 n=g#5 v=44
1025576 On ch=1 n=b5 v=47
1025601 On ch=1 n=b4 v=39
1025621 On ch=1 n=e5 v=21
1025656 On ch=1 n=e5 v=0
1025666 On ch=1 n=b4 v=0
1025676 On ch=1 n=g#5 v=0
1025686 On ch=1 n=b5 v=0
1025711 On ch=1 n=g#6 v=85
1025876 On ch=1 n=g#5 v=44
1025891 On ch=1 n=b4 v=41
1025896 On ch=1 n=e4 v=0
1025906 On ch=1 n=b5 v=53
1025911 On ch=1 n=g#6 v=0
1026001 On ch=1 n=b4 v=0
1026036 On ch=1 n=b5 v=0
1026051 On ch=1 n=g#5 v=0
1026101 On ch=1 n=g#6 v=77
1026111 Par ch=1 c=64 v=104
1026126 Par ch=1 c=64 v=56
1026136 On ch=1 n=d#4 v=62
1026146 Par ch=1 c=64 v=0
1026251 Par ch=1 c=64 v=40
1026266 Par ch=1 c=64 v=104
1026281 On ch=1 n=d#4 v=0
1026286 Par ch=1 c=64 v=127
1026296 On ch=1 n=g#5 v=33
1026316 On ch=1 n=c6 v=47
1026326 On ch=1 n=c5 v=46
1026411 On ch=1 n=c5 v=0
1026446 On ch=1 n=c6 v=0
1026446 On ch=1 n=g#5 v=0
1026471 On ch=1 n=f#4 v=55
1026626 On ch=1 n=f#4 v=0
1026636 On ch=1 n=d#5 v=25
1026651 On ch=1 n=g#5 v=35
1026671 On ch=1 n=c6 v=55
1026671 On ch=1 n=c5 v=31
1026721 On ch=1 n=g#6 v=0
1026741 On ch=1 n=c5 v=0
1026766 On ch=1 n=d#5 v=0
1026791 On ch=1 n=g#5 v=0
1026801 On ch=1 n=c6 v=0
1026801 On ch=1 n=f4 v=72
1026816 On ch=1 n=d#6 v=72
1026981 On ch=1 n=d#5 v=35
1026986 On ch=1 n=g#5 v=33
1026996 On ch=1 n=c6 v=54
1026996 On ch=1 n=c5 v=53
1027041 On ch=1 n=c5 v=0
1027076 On ch=1 n=c6 v=0
1027081 On ch=1 n=g#5 v=0
1027081 On ch=1 n=d#5 v=0
1027136 On ch=1 n=f4 v=0
1027136 On ch=1 n=f#4 v=72
1027286 On ch=1 n=d#6 v=0
1027311 On ch=1 n=g#5 v=25
1027316 On ch=1 n=c6 v=35
1027321 On ch=1 n=d#5 v=43
1027351 On ch=1 n=f#4 v=0
1027361 On ch=1 n=c6 v=0
1027441 On ch=1 n=d#5 v=0
1027456 On ch=1 n=g#5 v=0
1027561 On ch=1 n=d4 v=64
1027566 On ch=1 n=c6 v=66
1027576 Par ch=1 c=64 v=88
1027591 Par ch=1 c=64 v=56
1027611 Par ch=1 c=64 v=0
1027751 On ch=1 n=a4 v=51
1027751 Par ch=1 c=64 v=72
1027756 On ch=1 n=d5 v=39
1027766 Par ch=1 c=64 v=127
1027776 On ch=1 n=c6 v=0
1027776 On ch=1 n=f#5 v=42
1027786 On ch=1 n=a5 v=52
1027821 On ch=1 n=d5 v=0
1027906 On ch=1 n=f#5 v=0
1027921 On ch=1 n=a5 v=0
1027941 On ch=1 n=f#6 v=80
1027961 On ch=1 n=a4 v=0
1028111 On ch=1 n=f#5 v=40
1028116 On ch=1 n=a5 v=62
1028136 On ch=1 n=a4 v=44
1028141 On ch=1 n=f#6 v=0
1028146 On ch=1 n=d5 v=35
1028226 On ch=1 n=d5 v=0
1028231 On ch=1 n=f#5 v=0
1028261 On ch=1 n=f6 v=86
1028266 On ch=1 n=a4 v=0
1028286 On ch=1 n=a5 v=0
1028431 On ch=1 n=f#5 v=48
1028441 On ch=1 n=f6 v=0
1028446 On ch=1 n=a5 v=63
1028521 On ch=1 n=a4 v=37
1028571 On ch=1 n=f#5 v=0
1028576 On ch=1 n=a4 v=0
1028591 On ch=1 n=a5 v=0
1028601 On ch=1 n=f#6 v=86
1028766 On ch=1 n=f#5 v=35
1028771 On ch=1 n=d4 v=0
1028781 On ch=1 n=a5 v=40
1028816 On ch=1 n=f#6 v=0
1028901 On ch=1 n=f#5 v=0
1028911 On ch=1 n=a5 v=0
1028916 Par ch=1 c=64 v=88
1028936 Par ch=1 c=64 v=24
1028951 On ch=1 n=f#6 v=76
1028951 Par ch=1 c=64 v=0
1028956 On ch=1 n=c#4 v=57
1029056 Par ch=1 c=64 v=40
1029076 Par ch=1 c=64 v=88
1029091 Par ch=1 c=64 v=127
1029106 On ch=1 n=c#4 v=0
1029126 On ch=1 n=a#4 v=37
1029131 On ch=1 n=a#5 v=53
1029136 On ch=1 n=f#5 v=34
1029151 On ch=1 n=c#5 v=28
1029246 On ch=1 n=c#5 v=0
1029246 On ch=1 n=a#4 v=0
1029286 On ch=1 n=f#5 v=0
1029291 On ch=1 n=f#4 v=56
1029301 On ch=1 n=a#5 v=0
1029426 On ch=1 n=f#4 v=0
1029451 On ch=1 n=a#4 v=40
1029456 On ch=1 n=c#5 v=34
1029471 On ch=1 n=a#5 v=50
1029481 On ch=1 n=f#5 v=33
1029541 On ch=1 n=f#6 v=0
1029606 On ch=1 n=a#4 v=0
1029616 On ch=1 n=c#5 v=0
1029621 On ch=1 n=f#5 v=0
1029636 On ch=1 n=a#5 v=0
1029636 On ch=1 n=c#6 v=71
1029646 On ch=1 n=f4 v=56
1029801 On ch=1 n=f4 v=0
1029801 On ch=1 n=c#5 v=27
1029806 On ch=1 n=a#4 v=34
1029811 On ch=1 n=f#5 v=31
1029831 On ch=1 n=a#5 v=44
1029866 On ch=1 n=c#6 v=0
1029931 On ch=1 n=f#5 v=0
1029931 On ch=1 n=c#5 v=0
1029941 On ch=1 n=a#4 v=0
1029951 On ch=1 n=a#5 v=0
1029961 On ch=1 n=f#4 v=56
1030121 On ch=1 n=f#5 v=42
1030126 On ch=1 n=c#5 v=37
1030126 On ch=1 n=a#5 v=52
1030141 On ch=1 n=f#4 v=0
1030231 On ch=1 n=f#5 v=0
1030261 On ch=1 n=c#5 v=0
1030261 Par ch=1 c=64 v=72
1030276 Par ch=1 c=64 v=40
1030281 On ch=1 n=a#5 v=0
1030291 Par ch=1 c=64 v=0
1030306 On ch=1 n=c#6 v=77
1030306 On ch=1 n=c#4 v=62
1030381 Par ch=1 c=64 v=24
1030401 Par ch=1 c=64 v=56
1030416 Par ch=1 c=64 v=104
1030436 Par ch=1 c=64 v=127
1030451 On ch=1 n=c#4 v=0
1030466 On ch=1 n=c#6 v=0
1030476 On ch=1 n=f5 v=45
1030476 On ch=1 n=b5 v=59
1030481 On ch=1 n=c#5 v=26
1030481 On ch=1 n=g#4 v=36
1030586 On ch=1 n=g#4 v=0
1030596 On ch=1 n=b5 v=0
1030596 On ch=1 n=f5 v=0
1030601 On ch=1 n=c#5 v=0
1030621 On ch=1 n=d6 v=85
1030641 On ch=1 n=d4 v=63
1030741 On ch=1 n=d4 v=0
1030786 On ch=1 n=g#4 v=51
1030791 On ch=1 n=d5 v=56
1030796 On ch=1 n=d6 v=0
1030796 On ch=1 n=f5 v=44
1030806 On ch=1 n=b5 v=60
1030866 On ch=1 n=d5 v=0
1030866 On ch=1 n=g#4 v=0
1030921 On ch=1 n=f5 v=0
1030961 On ch=1 n=d#6 v=84
1030976 On ch=1 n=b5 v=0
1030976 Par ch=1 c=64 v=88
1030991 Par ch=1 c=64 v=24
1030996 On ch=1 n=d#4 v=72
1031006 Par ch=1 c=64 v=0
1031096 Par ch=1 c=64 v=56
1031116 Par ch=1 c=64 v=104
1031131 Par ch=1 c=64 v=127
1031151 On ch=1 n=f5 v=26
1031166 On ch=1 n=d#5 v=43
1031171 On ch=1 n=b5 v=39
1031176 On ch=1 n=d#4 v=0
1031196 On ch=1 n=g#4 v=29
1031241 On ch=1 n=d#5 v=0
1031296 On ch=1 n=f5 v=0
1031306 On ch=1 n=g#4 v=0
1031316 On ch=1 n=d#6 v=0
1031351 On ch=1 n=c#6 v=65
1031356 Par ch=1 c=64 v=72
1031361 On ch=1 n=c#4 v=57
1031371 On ch=1 n=b5 v=0
1031376 Par ch=1 c=64 v=24
1031396 Par ch=1 c=64 v=0
1031446 Par ch=1 c=64 v=40
1031461 Par ch=1 c=64 v=72
1031471 On ch=1 n=c#4 v=0
1031481 Par ch=1 c=64 v=104
1031501 Par ch=1 c=64 v=127
1031506 On ch=1 n=g#4 v=43
1031511 On ch=1 n=f5 v=46
1031521 On ch=1 n=c#5 v=27
1031526 On ch=1 n=c#6 v=0
1031546 On ch=1 n=b5 v=39
1031581 On ch=1 n=c#5 v=0
1031591 On ch=1 n=f5 v=0
1031591 On ch=1 n=g#4 v=0
1031671 On ch=1 n=b5 v=0
1031706 Par ch=1 c=64 v=88
1031711 On ch=1 n=c#6 v=69
1031726 On ch=1 n=c#4 v=58
1031726 Par ch=1 c=64 v=40
1031741 Par ch=1 c=64 v=0
1031846 Par ch=1 c=64 v=40
1031861 Par ch=1 c=64 v=88
1031881 On ch=1 n=c#5 v=40
1031881 Par ch=1 c=64 v=127
1031886 On ch=1 n=c#4 v=0
1031906 On ch=1 n=f#5 v=28
1031906 On ch=1 n=a#5 v=44
1031986 On ch=1 n=c#5 v=0
1032011 On ch=1 n=a#5 v=0
1032021 On ch=1 n=f#5 v=0
1032051 On ch=1 n=f#4 v=48
1032171 On ch=1 n=f#4 v=0
1032201 On ch=1 n=c#5 v=40
1032206 On ch=1 n=f#5 v=39
1032211 On ch=1 n=a#5 v=48
1032211 On ch=1 n=a#4 v=42
1032331 On ch=1 n=a#4 v=0
1032341 On ch=1 n=c#5 v=0
1032366 On ch=1 n=f#5 v=0
1032371 On ch=1 n=a#5 v=0
1032381 On ch=1 n=f4 v=66
1032536 On ch=1 n=c#5 v=53
1032566 On ch=1 n=f4 v=0
1032576 On ch=1 n=f#5 v=33
1032581 On ch=1 n=a#5 v=43
1032666 On ch=1 n=c#5 v=0
1032686 On ch=1 n=a#5 v=0
1032686 On ch=1 n=f#5 v=0
1032701 On ch=1 n=f#4 v=56
1032866 On ch=1 n=f#4 v=0
1032881 On ch=1 n=c#5 v=46
1032886 On ch=1 n=a#5 v=42
1032886 On ch=1 n=f#5 v=31
1032956 On ch=1 n=c#6 v=0
1033011 On ch=1 n=f#5 v=0
1033021 On ch=1 n=c#5 v=0
1033076 On ch=1 n=a#5 v=0
1033146 On ch=1 n=c6 v=75
1033186 On ch=1 n=d4 v=63
1033191 Par ch=1 c=64 v=88
1033206 Par ch=1 c=64 v=40
1033226 Par ch=1 c=64 v=0
1033361 Par ch=1 c=64 v=72
1033371 On ch=1 n=a5 v=48
1033371 On ch=1 n=f#5 v=34
1033381 On ch=1 n=c6 v=0
1033381 Par ch=1 c=64 v=127
1033386 On ch=1 n=d5 v=39
1033386 On ch=1 n=a4 v=37
1033481 On ch=1 n=d5 v=0
1033501 On ch=1 n=f#5 v=0
1033521 On ch=1 n=a5 v=0
1033556 On ch=1 n=f#6 v=86
1033561 On ch=1 n=a4 v=0
1033726 On ch=1 n=f#5 v=37
1033731 On ch=1 n=a5 v=62
1033741 On ch=1 n=f#6 v=0
1033751 On ch=1 n=a4 v=45
1033751 On ch=1 n=d5 v=39
1033811 On ch=1 n=d5 v=0
1033821 On ch=1 n=a4 v=0
1033841 On ch=1 n=f#5 v=0
1033866 On ch=1 n=a5 v=0
1033891 On ch=1 n=f6 v=93
1034056 On ch=1 n=f6 v=0
1034061 On ch=1 n=f#5 v=42
1034076 On ch=1 n=a5 v=59
1034101 On ch=1 n=a4 v=44
1034101 On ch=1 n=d5 v=31
1034161 On ch=1 n=f#5 v=0
1034166 On ch=1 n=d5 v=0
1034196 On ch=1 n=a4 v=0
1034201 On ch=1 n=a5 v=0
1034221 On ch=1 n=f#6 v=87
1034386 On ch=1 n=f#5 v=34
1034406 On ch=1 n=d4 v=0
1034406 On ch=1 n=a5 v=41
1034431 On ch=1 n=a4 v=33
1034451 On ch=1 n=f#6 v=0
1034491 On ch=1 n=a4 v=0
1034541 On ch=1 n=a5 v=0
1034541 On ch=1 n=f#5 v=0
1034611 On ch=1 n=f#6 v=73
1034621 Par ch=1 c=64 v=104
1034636 Par ch=1 c=64 v=56
1034646 On ch=1 n=c#4 v=59
1034651 Par ch=1 c=64 v=24
1034671 Par ch=1 c=64 v=0
1034776 On ch=1 n=c#4 v=0
1034796 Par ch=1 c=64 v=56
1034806 On ch=1 n=a#4 v=43
1034811 On ch=1 n=a#5 v=44
1034811 Par ch=1 c=64 v=127
1034816 On ch=1 n=f#5 v=38
1034906 On ch=1 n=a#4 v=0
1034956 On ch=1 n=f#5 v=0
1034971 On ch=1 n=a#5 v=0
1034976 On ch=1 n=f#4 v=54
1035086 On ch=1 n=f#4 v=0
1035121 On ch=1 n=a#4 v=39
1035141 On ch=1 n=c#5 v=30
1035176 On ch=1 n=a#5 v=48
1035181 On ch=1 n=f#5 v=33
1035226 On ch=1 n=f#6 v=0
1035281 On ch=1 n=a#4 v=0
1035301 On ch=1 n=f#5 v=0
1035301 On ch=1 n=c#5 v=0
1035326 On ch=1 n=a#5 v=0
1035326 On ch=1 n=f4 v=54
1035341 On ch=1 n=c#6 v=69
1035481 On ch=1 n=f4 v=0
1035491 On ch=1 n=c#5 v=36
1035491 On ch=1 n=a#4 v=37
1035511 On ch=1 n=f#5 v=34
1035531 On ch=1 n=a#5 v=38
1035566 On ch=1 n=c#6 v=0
1035596 On ch=1 n=a#4 v=0
1035621 On ch=1 n=c#5 v=0
1035656 On ch=1 n=f#5 v=0
1035661 On ch=1 n=f#4 v=57
1035676 On ch=1 n=a#5 v=0
1035816 On ch=1 n=c#5 v=38
1035826 On ch=1 n=f#4 v=0
1035851 On ch=1 n=a#5 v=47
1035856 On ch=1 n=f#5 v=36
1035961 On ch=1 n=f#5 v=0
1035971 On ch=1 n=c#5 v=0
1035981 Par ch=1 c=64 v=88
1035996 Par ch=1 c=64 v=24
1036016 Par ch=1 c=64 v=0
1036021 On ch=1 n=a#5 v=0
1036021 On ch=1 n=c#4 v=60
1036031 On ch=1 n=c#6 v=72
1036101 Par ch=1 c=64 v=24
1036116 Par ch=1 c=64 v=72
1036136 Par ch=1 c=64 v=104
1036151 Par ch=1 c=64 v=127
1036181 On ch=1 n=c#6 v=0
1036181 On ch=1 n=c#5 v=35
1036191 On ch=1 n=g#4 v=44
1036196 On ch=1 n=c#4 v=0
1036196 On ch=1 n=f5 v=54
1036201 On ch=1 n=b5 v=64
1036276 On ch=1 n=g#4 v=0
1036291 On ch=1 n=c#5 v=0
1036316 On ch=1 n=f5 v=0
1036341 On ch=1 n=b5 v=0
1036356 On ch=1 n=d6 v=87
1036521 On ch=1 n=b5 v=65
1036521 On ch=1 n=f5 v=53
1036526 On ch=1 n=d6 v=0
1036531 On ch=1 n=d5 v=68
1036536 On ch=1 n=g#4 v=59
1036606 On ch=1 n=d5 v=0
1036621 On ch=1 n=g#4 v=0
1036646 On ch=1 n=f5 v=0
1036686 On ch=1 n=d#6 v=88
1036691 On ch=1 n=b5 v=0
1036856 On ch=1 n=f5 v=46
1036876 On ch=1 n=b5 v=48
1036896 On ch=1 n=d#5 v=61
1036901 On ch=1 n=g#4 v=59
1036996 On ch=1 n=g#4 v=0
1037006 On ch=1 n=d#5 v=0
1037036 On ch=1 n=b5 v=0
1037051 On ch=1 n=c#6 v=68
1037056 On ch=1 n=f5 v=0
1037126 On ch=1 n=d#6 v=0
1037221 On ch=1 n=c#5 v=48
1037226 On ch=1 n=g#4 v=53
1037231 On ch=1 n=f5 v=42
1037246 On ch=1 n=c#6 v=0
1037256 On ch=1 n=b5 v=50
1037266 On ch=1 n=c#5 v=0
1037271 On ch=1 n=g#4 v=0
1037311 On ch=1 n=f5 v=0
1037386 On ch=1 n=b5 v=0
1037426 Par ch=1 c=64 v=104
1037436 On ch=1 n=f#3 v=64
1037441 Par ch=1 c=64 v=56
1037446 On ch=1 n=c#6 v=63
1037461 Par ch=1 c=64 v=0
1037501 On ch=1 n=f#3 v=0
1037581 Par ch=1 c=64 v=72
1037596 Par ch=1 c=64 v=127
1037626 On ch=1 n=a#4 v=40
1037631 On ch=1 n=a#5 v=52
1037641 On ch=1 n=f#5 v=30
1037676 On ch=1 n=a#4 v=0
1037761 On ch=1 n=a#5 v=0
1037781 On ch=1 n=c#4 v=60
1037796 On ch=1 n=f#5 v=0
1037906 On ch=1 n=c#4 v=0
1037941 On ch=1 n=a#4 v=34
1037961 On ch=1 n=a#5 v=44
1037966 On ch=1 n=f#5 v=36
1037981 On ch=1 n=f#4 v=34
1038031 On ch=1 n=f#4 v=0
1038061 On ch=1 n=a#4 v=0
1038116 On ch=1 n=f#5 v=0
1038121 On ch=1 n=c4 v=68
1038136 On ch=1 n=a#5 v=0
1038211 On ch=1 n=c4 v=0
1038291 On ch=1 n=a#4 v=35
1038306 On ch=1 n=f#4 v=37
1038326 On ch=1 n=a#5 v=46
1038326 On ch=1 n=f#5 v=33
1038386 On ch=1 n=f#4 v=0
1038386 On ch=1 n=a#4 v=0
1038416 On ch=1 n=f#5 v=0
1038436 On ch=1 n=a#5 v=0
1038466 On ch=1 n=c#4 v=58
1038606 On ch=1 n=c#4 v=0
1038631 On ch=1 n=a#5 v=44
1038636 On ch=1 n=a#4 v=31
1038646 On ch=1 n=f#5 v=34
1038651 On ch=1 n=f#4 v=33
1038681 On ch=1 n=f#4 v=0
1038686 On ch=1 n=a#4 v=0
1038721 On ch=1 n=a#5 v=0
1038731 On ch=1 n=c#6 v=0
1038761 On ch=1 n=f#5 v=0
1038856 Par ch=1 c=64 v=88
1038871 Par ch=1 c=64 v=40
1038876 On ch=1 n=a#5 v=67
1038881 On ch=1 n=f#3 v=57
1038891 Par ch=1 c=64 v=0
1038991 On ch=1 n=f#3 v=0
1039011 Par ch=1 c=64 v=56
1039031 Par ch=1 c=64 v=104
1039046 Par ch=1 c=64 v=127
1039071 On ch=1 n=g5 v=48
1039076 On ch=1 n=e5 v=40
1039086 On ch=1 n=c#4 v=40
1039086 On ch=1 n=a#4 v=34
1039191 On ch=1 n=e5 v=0
1039216 On ch=1 n=a#5 v=0
1039226 On ch=1 n=c#4 v=0
1039226 On ch=1 n=g5 v=0
1039236 On ch=1 n=c#6 v=77
1039261 On ch=1 n=a#4 v=0
1039411 On ch=1 n=g5 v=46
1039416 On ch=1 n=e5 v=52
1039426 On ch=1 n=a#4 v=41
1039426 On ch=1 n=c#4 v=46
1039506 On ch=1 n=c#4 v=0
1039506 On ch=1 n=c#6 v=0
1039511 On ch=1 n=e5 v=0
1039541 On ch=1 n=a#4 v=0
1039561 On ch=1 n=g5 v=0
1039586 On ch=1 n=c6 v=82
1039751 On ch=1 n=e5 v=58
1039751 On ch=1 n=g5 v=50
1039756 On ch=1 n=a#4 v=40
1039756 On ch=1 n=c#4 v=43
1039816 On ch=1 n=g5 v=0
1039821 On ch=1 n=c#4 v=0
1039821 On ch=1 n=a#4 v=0
1039906 On ch=1 n=c6 v=0
1039916 On ch=1 n=e5 v=0
1039921 On ch=1 n=c#6 v=76
1040091 On ch=1 n=a#4 v=26
1040126 On ch=1 n=e5 v=50
1040126 On ch=1 n=g5 v=50
1040126 On ch=1 n=c#4 v=50
1040161 On ch=1 n=a#4 v=0
1040191 On ch=1 n=c#4 v=0
1040191 On ch=1 n=g5 v=0
1040216 On ch=1 n=c#6 v=0
1040251 Par ch=1 c=64 v=104
1040266 Par ch=1 c=64 v=56
1040281 On ch=1 n=e5 v=0
1040286 Par ch=1 c=64 v=0
1040301 On ch=1 n=f#3 v=58
1040311 On ch=1 n=b5 v=68
1040386 On ch=1 n=f#3 v=0
1040386 Par ch=1 c=64 v=24
1040406 Par ch=1 c=64 v=72
1040426 Par ch=1 c=64 v=127
1040476 On ch=1 n=a#4 v=53
1040476 On ch=1 n=c#4 v=51
1040481 On ch=1 n=e5 v=51
1040581 On ch=1 n=a#4 v=0
1040586 On ch=1 n=c#4 v=0
1040596 On ch=1 n=e5 v=0
1040646 On ch=1 n=c4 v=64
1040766 On ch=1 n=c4 v=0
1040801 On ch=1 n=e5 v=55
1040801 On ch=1 n=a#4 v=45
1040891 On ch=1 n=e5 v=0
1040906 On ch=1 n=a#4 v=0
1040996 On ch=1 n=c4 v=65
1041021 On ch=1 n=a#5 v=73
1041031 On ch=1 n=b5 v=0
1041111 On ch=1 n=c4 v=0
1041161 On ch=1 n=a#4 v=46
1041181 On ch=1 n=e5 v=52
1041181 On ch=1 n=c#4 v=49
1041246 On ch=1 n=c#4 v=0
1041251 On ch=1 n=a#4 v=0
1041261 On ch=1 n=e5 v=0
1041346 On ch=1 n=c4 v=64
1041456 On ch=1 n=c4 v=0
1041461 On ch=1 n=a#5 v=0
1041486 On ch=1 n=a#4 v=51
1041496 On ch=1 n=e5 v=51
1041521 On ch=1 n=c#4 v=44
1041561 On ch=1 n=c#4 v=0
1041561 On ch=1 n=a#4 v=0
1041581 On ch=1 n=e5 v=0
1041641 Par ch=1 c=64 v=88
1041661 Par ch=1 c=64 v=40
1041681 Par ch=1 c=64 v=0
1041686 On ch=1 n=f#3 v=59
1041686 On ch=1 n=a#5 v=74
1041761 On ch=1 n=f#3 v=0
1041786 Par ch=1 c=64 v=40
1041801 Par ch=1 c=64 v=88
1041821 Par ch=1 c=64 v=127
1041846 On ch=1 n=c#4 v=29
1041876 On ch=1 n=a#4 v=19
1041876 On ch=1 n=e5 v=46
1041986 On ch=1 n=e5 v=0
1042021 On ch=1 n=a#4 v=0
1042036 On ch=1 n=c#6 v=71
1042156 On ch=1 n=c#4 v=0
1042211 On ch=1 n=e5 v=58
1042231 On ch=1 n=c#6 v=0
1042236 On ch=1 n=a#4 v=43
1042241 On ch=1 n=c#4 v=14
1042316 On ch=1 n=e5 v=0
1042341 On ch=1 n=a#5 v=0
1042381 On ch=1 n=a#4 v=0
1042391 On ch=1 n=c6 v=74
1042546 On ch=1 n=e5 v=53
1042601 On ch=1 n=a#4 v=37
1042656 On ch=1 n=a#4 v=0
1042716 On ch=1 n=e5 v=0
1042731 On ch=1 n=c#6 v=71
1042736 On ch=1 n=c6 v=0
1042911 On ch=1 n=a#4 v=44
1042931 On ch=1 n=c#4 v=0
1042931 On ch=1 n=e5 v=53
1043006 On ch=1 n=a#4 v=0
1043021 On ch=1 n=c#6 v=0
1043061 On ch=1 n=e5 v=0
1043126 Par ch=1 c=64 v=104
1043131 On ch=1 n=c6 v=68
1043141 Par ch=1 c=64 v=56
1043151 On ch=1 n=g3 v=46
1043161 Par ch=1 c=64 v=0
1043236 On ch=1 n=g3 v=0
1043281 Par ch=1 c=64 v=56
1043301 Par ch=1 c=64 v=127
1043321 On ch=1 n=d#5 v=44
1043326 On ch=1 n=a#4 v=34
1043396 On ch=1 n=a#4 v=0
1043446 On ch=1 n=c6 v=0
1043451 On ch=1 n=d#5 v=0
1043511 On ch=1 n=a#5 v=61
1043681 On ch=1 n=a#5 v=0
1043701 On ch=1 n=d#5 v=39
1043711 On ch=1 n=a#4 v=37
1043796 On ch=1 n=a#4 v=0
1043846 On ch=1 n=d#5 v=0
1043926 On ch=1 n=d#6 v=64
1043946 Par ch=1 c=64 v=88
1043951 On ch=1 n=a#3 v=47
1043956 On ch=1 n=g#5 v=48
1043961 Par ch=1 c=64 v=0
1044086 Par ch=1 c=64 v=72
1044101 Par ch=1 c=64 v=127
1044111 On ch=1 n=d#6 v=0
1044116 On ch=1 n=g#5 v=0
1044141 On ch=1 n=a#4 v=34
1044156 On ch=1 n=c#5 v=42
1044306 On ch=1 n=c#5 v=0
1044406 On ch=1 n=g5 v=58
1044416 Par ch=1 c=64 v=104
1044431 Par ch=1 c=64 v=24
1044451 Par ch=1 c=64 v=0
1044511 On ch=1 n=a#4 v=0
1044511 On ch=1 n=d#4 v=37
1044521 Par ch=1 c=64 v=56
1044536 Par ch=1 c=64 v=127
1044626 On ch=1 n=c#5 v=40
1044706 On ch=1 n=d#4 v=0
1044711 On ch=1 n=a#3 v=0
1044736 On ch=1 n=c#5 v=0
1044741 On ch=1 n=a#4 v=23
1044746 On ch=1 n=g5 v=0
1044786 On ch=1 n=a#4 v=0
1044971 Par ch=1 c=64 v=56
1044991 Par ch=1 c=64 v=0
1044996 On ch=1 n=g#5 v=58
1045021 On ch=1 n=c5 v=56
1045051 On ch=1 n=c5 v=0
1045051 On ch=1 n=g#3 v=43
1045076 Par ch=1 c=64 v=56
1045096 Par ch=1 c=64 v=127
1045101 On ch=1 n=g#3 v=0
1045111 On ch=1 n=g#5 v=0
1045386 On ch=1 n=c7 v=76
1045391 On ch=1 n=c6 v=68
1045401 On ch=1 n=c5 v=51
1045406 On ch=1 n=g#4 v=32
1045406 On ch=1 n=d#4 v=30
1045436 On ch=1 n=c5 v=0
1045441 On ch=1 n=g#4 v=0
1045451 On ch=1 n=d#4 v=0
1045456 On ch=1 n=c6 v=0
1045546 On ch=1 n=d#4 v=47
1045551 On ch=1 n=c6 v=64
1045571 On ch=1 n=g#4 v=31
1045606 On ch=1 n=g#4 v=0
1045606 On ch=1 n=c6 v=0
1045611 On ch=1 n=d#4 v=0
1045631 On ch=1 n=c7 v=0
1045651 Par ch=1 c=64 v=88
1045671 Par ch=1 c=64 v=0
1045716 On ch=1 n=b6 v=70
1045731 On ch=1 n=b5 v=62
1045751 On ch=1 n=d4 v=44
1045751 On ch=1 n=b4 v=42
1045766 On ch=1 n=g#4 v=19
1045786 On ch=1 n=b5 v=0
1045816 On ch=1 n=g#4 v=0
1045831 On ch=1 n=b4 v=0
1045886 On ch=1 n=b5 v=64
1045906 On ch=1 n=d4 v=0
1045956 On ch=1 n=b5 v=0
1046021 On ch=1 n=b6 v=0
1046056 On ch=1 n=c7 v=82
1046066 On ch=1 n=c6 v=74
1046066 On ch=1 n=g#4 v=51
1046076 On ch=1 n=d#4 v=54
1046076 On ch=1 n=c5 v=44
1046101 On ch=1 n=g#4 v=0
1046111 On ch=1 n=c5 v=0
1046116 On ch=1 n=d#4 v=0
1046126 On ch=1 n=c6 v=0
1046206 On ch=1 n=c6 v=70
1046221 On ch=1 n=c7 v=0
1046276 On ch=1 n=c6 v=0
1046396 On ch=1 n=g#6 v=79
1046401 On ch=1 n=g#5 v=69
1046401 On ch=1 n=g#3 v=60
1046421 Par ch=1 c=64 v=56
1046436 Par ch=1 c=64 v=127
1046466 On ch=1 n=g#5 v=0
1046471 On ch=1 n=g#3 v=0
1046506 On ch=1 n=g#6 v=0
1046571 On ch=1 n=g#5 v=64
1046646 On ch=1 n=g#5 v=0
1046726 On ch=1 n=d#4 v=53
1046726 On ch=1 n=g#4 v=45
1046736 On ch=1 n=g#5 v=57
1046736 On ch=1 n=c5 v=47
1046736 Par ch=1 c=64 v=104
1046751 Par ch=1 c=64 v=88
1046771 On ch=1 n=c5 v=0
1046771 On ch=1 n=g#4 v=0
1046771 Par ch=1 c=64 v=72
1046781 On ch=1 n=d#4 v=0
1046786 Par ch=1 c=64 v=56
1046806 On ch=1 n=g#5 v=0
1046821 Par ch=1 c=64 v=40
1046836 Par ch=1 c=64 v=24
1046856 Par ch=1 c=64 v=0
1046886 On ch=1 n=g#5 v=59
1046896 On ch=1 n=d#4 v=44
1046901 On ch=1 n=g#4 v=38
1046916 On ch=1 n=c5 v=31
1046941 On ch=1 n=g#4 v=0
1046941 On ch=1 n=d#4 v=0
1046951 On ch=1 n=c5 v=0
1046961 On ch=1 n=g#5 v=0
1047051 On ch=1 n=g#5 v=60
1047071 On ch=1 n=g#4 v=40
1047076 On ch=1 n=d4 v=56
1047081 Par ch=1 c=64 v=56
1047086 On ch=1 n=b4 v=32
1047101 Par ch=1 c=64 v=88
1047116 Par ch=1 c=64 v=104
1047126 On ch=1 n=g#5 v=0
1047136 On ch=1 n=d4 v=0
1047141 On ch=1 n=b4 v=0
1047146 On ch=1 n=g#4 v=0
1047186 Par ch=1 c=64 v=127
1047211 On ch=1 n=g#5 v=55
1047306 On ch=1 n=g#5 v=0
1047326 Par ch=1 c=64 v=104
1047346 Par ch=1 c=64 v=88
1047361 Par ch=1 c=64 v=72
1047381 Par ch=1 c=64 v=56
1047386 On ch=1 n=g6 v=82
1047396 On ch=1 n=g5 v=60
1047396 Par ch=1 c=64 v=40
1047411 On ch=1 n=c5 v=51
1047411 On ch=1 n=g4 v=52
1047411 Par ch=1 c=64 v=24
1047421 On ch=1 n=d#4 v=48
1047431 Par ch=1 c=64 v=0
1047446 On ch=1 n=g4 v=0
1047446 On ch=1 n=c5 v=0
1047456 On ch=1 n=d#4 v=0
1047456 On ch=1 n=g5 v=0
1047556 On ch=1 n=g5 v=56
1047591 On ch=1 n=g6 v=0
1047616 On ch=1 n=g5 v=0
1047726 On ch=1 n=f6 v=88
1047726 Par ch=1 c=64 v=40
1047731 On ch=1 n=g#3 v=55
1047736 On ch=1 n=f5 v=71
1047746 Par ch=1 c=64 v=104
1047761 Par ch=1 c=64 v=127
1047771 On ch=1 n=g#3 v=0
1047791 On ch=1 n=f5 v=0
1047856 On ch=1 n=f6 v=0
1047891 On ch=1 n=f5 v=62
1047956 On ch=1 n=f5 v=0
1048061 On ch=1 n=g6 v=85
1048066 On ch=1 n=g5 v=62
1048066 On ch=1 n=g#4 v=46
1048066 On ch=1 n=c#5 v=39
1048116 On ch=1 n=g5 v=0
1048141 On ch=1 n=c#5 v=0
1048146 On ch=1 n=g#4 v=0
1048216 On ch=1 n=g5 v=59
1048271 On ch=1 n=c#5 v=27
1048281 On ch=1 n=g5 v=0
1048321 On ch=1 n=c#5 v=0
1048331 On ch=1 n=g6 v=0
1048356 Par ch=1 c=64 v=56
1048371 Par ch=1 c=64 v=0
1048396 On ch=1 n=g#5 v=63
1048396 On ch=1 n=g#6 v=84
1048416 On ch=1 n=c#5 v=37
1048461 On ch=1 n=g#5 v=0
1048461 Par ch=1 c=64 v=40
1048466 On ch=1 n=f4 v=40
1048476 Par ch=1 c=64 v=88
1048496 Par ch=1 c=64 v=127
1048506 On ch=1 n=f4 v=0
1048531 On ch=1 n=g#6 v=0
1048561 On ch=1 n=g#5 v=73
1048571 On ch=1 n=g#6 v=55
1048631 On ch=1 n=g#5 v=0
1048641 On ch=1 n=c#5 v=0
1048651 Par ch=1 c=64 v=72
1048666 Par ch=1 c=64 v=24
1048686 Par ch=1 c=64 v=0
1048701 On ch=1 n=g#6 v=0
1048741 On ch=1 n=a#6 v=78
1048746 On ch=1 n=a#5 v=70
1048766 On ch=1 n=c#5 v=40
1048776 Par ch=1 c=64 v=40
1048781 On ch=1 n=g4 v=40
1048781 On ch=1 n=e4 v=51
1048791 Par ch=1 c=64 v=72
1048811 On ch=1 n=a#5 v=0
1048811 Par ch=1 c=64 v=104
1048821 On ch=1 n=g4 v=0
1048831 On ch=1 n=c#5 v=0
1048866 On ch=1 n=e4 v=0
1048896 Par ch=1 c=64 v=88
1048901 On ch=1 n=a#5 v=67
1048911 Par ch=1 c=64 v=72
1048931 Par ch=1 c=64 v=24
1048946 Par ch=1 c=64 v=0
1048981 On ch=1 n=a#5 v=0
1049016 On ch=1 n=a#6 v=0
1049076 On ch=1 n=c7 v=82
1049081 On ch=1 n=g#3 v=64
1049086 On ch=1 n=c6 v=70
1049106 Par ch=1 c=64 v=88
1049121 Par ch=1 c=64 v=127
1049151 On ch=1 n=c6 v=0
1049151 On ch=1 n=g#3 v=0
1049271 On ch=1 n=c6 v=72
1049326 On ch=1 n=c6 v=0
1049386 Par ch=1 c=64 v=104
1049416 On ch=1 n=d#4 v=57
1049416 On ch=1 n=c5 v=56
1049416 Par ch=1 c=64 v=88
1049436 On ch=1 n=c6 v=66
1049456 Par ch=1 c=64 v=72
1049461 On ch=1 n=c5 v=0
1049461 On ch=1 n=d#4 v=0
1049471 Par ch=1 c=64 v=56
1049486 On ch=1 n=c6 v=0
1049486 Par ch=1 c=64 v=40
1049506 Par ch=1 c=64 v=24
1049526 Par ch=1 c=64 v=0
1049571 On ch=1 n=c5 v=54
1049571 On ch=1 n=d#4 v=34
1049576 On ch=1 n=c6 v=68
1049586 On ch=1 n=g#4 v=45
1049611 On ch=1 n=c5 v=0
1049616 On ch=1 n=g#4 v=0
1049616 On ch=1 n=d#4 v=0
1049646 On ch=1 n=c6 v=0
1049751 On ch=1 n=c6 v=66
1049761 On ch=1 n=d4 v=59
1049766 On ch=1 n=b4 v=42
1049766 On ch=1 n=g#4 v=38
1049786 Par ch=1 c=64 v=40
1049796 On ch=1 n=d4 v=0
1049801 Par ch=1 c=64 v=72
1049811 On ch=1 n=g#4 v=0
1049811 On ch=1 n=b4 v=0
1049811 On ch=1 n=c6 v=0
1049816 Par ch=1 c=64 v=88
1049836 Par ch=1 c=64 v=104
1049906 Par ch=1 c=64 v=127
1049911 On ch=1 n=c6 v=66
1049981 On ch=1 n=c6 v=0
1050071 On ch=1 n=c6 v=63
1050096 On ch=1 n=g#4 v=49
1050101 On ch=1 n=c5 v=44
1050111 On ch=1 n=d#4 v=43
1050126 On ch=1 n=g#4 v=0
1050131 On ch=1 n=c6 v=0
1050136 On ch=1 n=c5 v=0
1050141 On ch=1 n=d#4 v=0
1050236 On ch=1 n=c6 v=69
1050271 On ch=1 n=c7 v=0
1050301 On ch=1 n=c6 v=0
1050326 Par ch=1 c=64 v=56
1050346 Par ch=1 c=64 v=0
1050401 On ch=1 n=g#6 v=81
1050406 On ch=1 n=g#3 v=56
1050406 On ch=1 n=g#5 v=78
1050466 On ch=1 n=g#5 v=0
1050466 Par ch=1 c=64 v=72
1050481 Par ch=1 c=64 v=127
1050491 On ch=1 n=g#3 v=0
1050566 On ch=1 n=g#5 v=59
1050616 On ch=1 n=g#5 v=0
1050671 On ch=1 n=g#6 v=0
1050736 On ch=1 n=d#4 v=55
1050736 On ch=1 n=c7 v=84
1050746 On ch=1 n=c6 v=63
1050746 On ch=1 n=c5 v=38
1050746 On ch=1 n=g#4 v=35
1050781 On ch=1 n=g#4 v=0
1050781 On ch=1 n=c6 v=0
1050791 On ch=1 n=c5 v=0
1050801 On ch=1 n=d#4 v=0
1050906 On ch=1 n=c6 v=74
1050906 On ch=1 n=d#4 v=40
1050921 On ch=1 n=c5 v=39
1050926 On ch=1 n=g#4 v=25
1050961 On ch=1 n=g#4 v=0
1050961 On ch=1 n=c5 v=0
1050966 On ch=1 n=c6 v=0
1050971 On ch=1 n=d#4 v=0
1051006 Par ch=1 c=64 v=56
1051021 On ch=1 n=c7 v=0
1051021 Par ch=1 c=64 v=0
1051066 On ch=1 n=b6 v=81
1051071 On ch=1 n=b5 v=67
1051096 On ch=1 n=b4 v=52
1051096 On ch=1 n=d4 v=46
1051106 On ch=1 n=g#4 v=45
1051141 On ch=1 n=b5 v=0
1051146 Par ch=1 c=64 v=56
1051161 Par ch=1 c=64 v=104
1051166 On ch=1 n=g#4 v=0
1051181 Par ch=1 c=64 v=127
1051196 On ch=1 n=d4 v=0
1051196 On ch=1 n=b4 v=0
1051196 On ch=1 n=b6 v=0
1051231 On ch=1 n=b6 v=61
1051241 On ch=1 n=b5 v=54
1051291 On ch=1 n=b5 v=0
1051356 On ch=1 n=b6 v=0
1051401 On ch=1 n=g#4 v=55
1051401 On ch=1 n=c7 v=88
1051401 On ch=1 n=d#4 v=62
1051411 On ch=1 n=c6 v=75
1051416 On ch=1 n=c5 v=42
1051436 On ch=1 n=g#4 v=0
1051451 On ch=1 n=c5 v=0
1051466 On ch=1 n=c6 v=0
1051466 On ch=1 n=d#4 v=0
1051526 On ch=1 n=c6 v=77
1051591 On ch=1 n=c6 v=0
1051626 On ch=1 n=c7 v=0
1051666 Par ch=1 c=64 v=72
1051686 Par ch=1 c=64 v=0
1051751 On ch=1 n=g#7 v=97
1051756 On ch=1 n=g#6 v=95
1051776 On ch=1 n=f3 v=49
1051806 Par ch=1 c=64 v=72
1051811 On ch=1 n=f3 v=0
1051816 On ch=1 n=g#6 v=0
1051821 Par ch=1 c=64 v=127
1051851 On ch=1 n=g#7 v=0
1051936 On ch=1 n=g#6 v=71
1052006 On ch=1 n=g#6 v=0
1052071 On ch=1 n=c5 v=58
1052081 On ch=1 n=f4 v=44
1052081 On ch=1 n=g#4 v=33
1052091 On ch=1 n=g#6 v=57
1052101 On ch=1 n=c5 v=0
1052116 On ch=1 n=g#4 v=0
1052126 On ch=1 n=f4 v=0
1052161 On ch=1 n=g#6 v=0
1052241 On ch=1 n=g#4 v=43
1052241 On ch=1 n=f4 v=40
1052241 On ch=1 n=g#6 v=56
1052246 On ch=1 n=c5 v=46
1052286 On ch=1 n=c5 v=0
1052291 On ch=1 n=f4 v=0
1052301 On ch=1 n=g#4 v=0
1052316 On ch=1 n=g#6 v=0
1052351 Par ch=1 c=64 v=72
1052366 Par ch=1 c=64 v=24
1052386 Par ch=1 c=64 v=0
1052416 On ch=1 n=g#6 v=62
1052416 On ch=1 n=g#4 v=43
1052436 On ch=1 n=e4 v=50
1052436 Par ch=1 c=64 v=40
1052441 On ch=1 n=c5 v=36
1052451 Par ch=1 c=64 v=72
1052471 Par ch=1 c=64 v=127
1052491 On ch=1 n=g#6 v=0
1052496 On ch=1 n=c5 v=0
1052501 On ch=1 n=g#4 v=0
1052551 On ch=1 n=e4 v=0
1052581 On ch=1 n=g#6 v=64
1052611 Par ch=1 c=64 v=88
1052626 Par ch=1 c=64 v=72
1052646 Par ch=1 c=64 v=56
1052671 On ch=1 n=g#6 v=0
1052711 Par ch=1 c=64 v=72
1052731 Par ch=1 c=64 v=88
1052751 On ch=1 n=g7 v=83
1052756 On ch=1 n=g#4 v=42
1052761 On ch=1 n=g6 v=68
1052766 On ch=1 n=f4 v=53
1052771 On ch=1 n=c5 v=32
1052806 On ch=1 n=c5 v=0
1052806 On ch=1 n=f4 v=0
1052806 On ch=1 n=g#4 v=0
1052821 On ch=1 n=g6 v=0
1052836 Par ch=1 c=64 v=104
1052856 Par ch=1 c=64 v=127
1052911 On ch=1 n=g6 v=66
1052976 On ch=1 n=g6 v=0
1052976 On ch=1 n=g7 v=0
1053011 Par ch=1 c=64 v=72
1053026 Par ch=1 c=64 v=0
1053081 On ch=1 n=a#3 v=70
1053091 On ch=1 n=f7 v=89
1053096 On ch=1 n=f6 v=82
1053131 Par ch=1 c=64 v=72
1053146 On ch=1 n=a#3 v=0
1053151 Par ch=1 c=64 v=127
1053161 On ch=1 n=f6 v=0
1053211 On ch=1 n=f7 v=0
1053261 On ch=1 n=f6 v=69
1053306 On ch=1 n=f6 v=0
1053421 On ch=1 n=g7 v=90
1053421 On ch=1 n=g#4 v=49
1053426 On ch=1 n=d5 v=54
1053426 On ch=1 n=g6 v=73
1053446 On ch=1 n=a#4 v=25
1053471 On ch=1 n=d5 v=0
1053481 On ch=1 n=a#4 v=0
1053486 On ch=1 n=g6 v=0
1053506 On ch=1 n=g#4 v=0
1053586 On ch=1 n=g6 v=70
1053591 On ch=1 n=g#4 v=38
1053611 On ch=1 n=d5 v=44
1053616 On ch=1 n=a#4 v=28
1053646 On ch=1 n=g6 v=0
1053656 On ch=1 n=d5 v=0
1053666 On ch=1 n=a#4 v=0
1053681 On ch=1 n=g#4 v=0
1053701 On ch=1 n=g7 v=0
1053741 Par ch=1 c=64 v=56
1053756 On ch=1 n=g#7 v=88
1053756 On ch=1 n=g#6 v=79
1053761 Par ch=1 c=64 v=0
1053781 On ch=1 n=g4 v=58
1053796 On ch=1 n=d5 v=45
1053796 On ch=1 n=a#4 v=30
1053826 On ch=1 n=g#6 v=0
1053846 Par ch=1 c=64 v=40
1053861 On ch=1 n=d5 v=0
1053866 Par ch=1 c=64 v=88
1053881 Par ch=1 c=64 v=127
1053886 On ch=1 n=g#7 v=0
1053896 On ch=1 n=g4 v=0
1053906 On ch=1 n=a#4 v=0
1053931 On ch=1 n=g#6 v=71
1054001 On ch=1 n=g#6 v=0
1054111 On ch=1 n=a#7 v=84
1054111 On ch=1 n=a#6 v=78
1054111 On ch=1 n=a#4 v=44
1054116 On ch=1 n=d5 v=53
1054116 On ch=1 n=f4 v=60
1054156 On ch=1 n=d5 v=0
1054171 On ch=1 n=a#4 v=0
1054181 On ch=1 n=f4 v=0
1054181 On ch=1 n=a#6 v=0
1054286 On ch=1 n=a#6 v=73
1054356 On ch=1 n=a#6 v=0
1054371 On ch=1 n=a#7 v=0
1054441 Par ch=1 c=64 v=104
1054456 Par ch=1 c=64 v=24
1054476 Par ch=1 c=64 v=0
1054481 On ch=1 n=d#3 v=76
1054481 On ch=1 n=a#7 v=86
1054491 On ch=1 n=a#6 v=77
1054531 On ch=1 n=d#3 v=0
1054556 On ch=1 n=a#6 v=0
1054561 Par ch=1 c=64 v=40
1054581 Par ch=1 c=64 v=127
1054671 On ch=1 n=a#6 v=69
1054751 On ch=1 n=a#6 v=0
1054846 On ch=1 n=c#5 v=54
1054851 On ch=1 n=a#6 v=56
1054856 On ch=1 n=g4 v=54
1054861 On ch=1 n=d#4 v=38
1054891 On ch=1 n=g4 v=0
1054896 On ch=1 n=d#4 v=0
1054901 On ch=1 n=c#5 v=0
1054921 On ch=1 n=a#6 v=0
1055021 On ch=1 n=a#6 v=63
1055031 On ch=1 n=c#5 v=38
1055036 On ch=1 n=g4 v=44
1055061 On ch=1 n=d#4 v=18
1055076 On ch=1 n=g4 v=0
1055076 On ch=1 n=c#5 v=0
1055076 On ch=1 n=a#7 v=0
1055086 On ch=1 n=a#6 v=0
1055091 On ch=1 n=d#4 v=0
1055206 Par ch=1 c=64 v=104
1055226 Par ch=1 c=64 v=72
1055231 On ch=1 n=d#7 v=64
1055241 Par ch=1 c=64 v=40
1055246 On ch=1 n=d#6 v=53
1055251 On ch=1 n=c5 v=59
1055261 On ch=1 n=g4 v=41
1055261 Par ch=1 c=64 v=56
1055271 On ch=1 n=d#4 v=36
1055276 Par ch=1 c=64 v=88
1055286 On ch=1 n=d#6 v=0
1055296 Par ch=1 c=64 v=127
1055336 On ch=1 n=c5 v=0
1055351 On ch=1 n=g4 v=0
1055401 On ch=1 n=d#6 v=61
1055451 On ch=1 n=d#4 v=0
1055476 On ch=1 n=d#6 v=0
1055601 On ch=1 n=d#6 v=57
1055611 On ch=1 n=a#4 v=40
1055616 On ch=1 n=g4 v=46
1055621 On ch=1 n=d#4 v=32
1055651 On ch=1 n=g4 v=0
1055656 On ch=1 n=a#4 v=0
1055666 On ch=1 n=d#6 v=0
1055691 On ch=1 n=d#4 v=0
1055776 On ch=1 n=d#6 v=64
1055796 On ch=1 n=d#7 v=0
1055836 On ch=1 n=d#6 v=0
1055976 Par ch=1 c=64 v=88
1055991 Par ch=1 c=64 v=0
1056021 On ch=1 n=g#6 v=74
1056026 On ch=1 n=g#5 v=55
1056036 On ch=1 n=g#3 v=49
1056081 On ch=1 n=g#5 v=0
1056081 Par ch=1 c=64 v=24
1056096 Par ch=1 c=64 v=88
1056111 On ch=1 n=g#3 v=0
1056116 Par ch=1 c=64 v=127
1056181 On ch=1 n=g#5 v=57
1056236 On ch=1 n=g#5 v=0
1056251 On ch=1 n=g#6 v=0
1056356 On ch=1 n=b6 v=82
1056361 On ch=1 n=d#4 v=65
1056371 On ch=1 n=b5 v=55
1056371 On ch=1 n=b4 v=58
1056401 On ch=1 n=b5 v=0
1056411 On ch=1 n=b4 v=0
1056451 On ch=1 n=d#4 v=0
1056471 On ch=1 n=b6 v=0
1056501 On ch=1 n=b6 v=22
1056521 On ch=1 n=b5 v=64
1056576 On ch=1 n=d#4 v=22
1056581 On ch=1 n=b5 v=0
1056606 On ch=1 n=d#4 v=0
1056631 On ch=1 n=b6 v=0
1056701 On ch=1 n=a#6 v=82
1056711 On ch=1 n=a#5 v=67
1056731 On ch=1 n=d4 v=49
1056731 On ch=1 n=b4 v=38
1056736 On ch=1 n=g#4 v=34
1056756 On ch=1 n=a#5 v=0
1056801 On ch=1 n=a#6 v=0
1056811 On ch=1 n=b4 v=0
1056826 On ch=1 n=g#4 v=0
1056871 On ch=1 n=a#5 v=57
1056876 On ch=1 n=d4 v=0
1056941 On ch=1 n=a#5 v=0
1057046 On ch=1 n=b6 v=84
1057056 On ch=1 n=b5 v=70
1057056 On ch=1 n=g#4 v=37
1057066 On ch=1 n=d#4 v=47
1057091 On ch=1 n=g#4 v=0
1057101 On ch=1 n=d#4 v=0
1057111 On ch=1 n=b5 v=0
1057186 On ch=1 n=b5 v=60
1057241 On ch=1 n=b5 v=0
1057271 On ch=1 n=b6 v=0
1057336 Par ch=1 c=64 v=88
1057351 Par ch=1 c=64 v=0
1057401 On ch=1 n=d#7 v=84
1057401 On ch=1 n=d#6 v=81
1057416 On ch=1 n=e3 v=67
1057451 On ch=1 n=d#6 v=0
1057456 Par ch=1 c=64 v=40
1057476 Par ch=1 c=64 v=127
1057496 On ch=1 n=e3 v=0
1057566 On ch=1 n=d#6 v=73
1057651 On ch=1 n=d#6 v=0
1057671 On ch=1 n=d#7 v=0
1057761 On ch=1 n=c#7 v=80
1057771 On ch=1 n=c#6 v=67
1057786 On ch=1 n=g#4 v=40
1057796 On ch=1 n=e4 v=49
1057796 On ch=1 n=c#5 v=32
1057831 On ch=1 n=c#5 v=0
1057831 On ch=1 n=g#4 v=0
1057831 On ch=1 n=c#6 v=0
1057841 On ch=1 n=e4 v=0
1057926 On ch=1 n=c#6 v=65
1057956 On ch=1 n=c#5 v=42
1057966 On ch=1 n=e4 v=32
1058001 On ch=1 n=c#6 v=0
1058006 On ch=1 n=c#5 v=0
1058011 On ch=1 n=e4 v=0
1058101 On ch=1 n=c#6 v=61
1058121 On ch=1 n=g4 v=50
1058126 On ch=1 n=c#5 v=38
1058131 On ch=1 n=e4 v=38
1058166 On ch=1 n=g4 v=0
1058171 On ch=1 n=c#6 v=0
1058186 On ch=1 n=e4 v=0
1058191 On ch=1 n=c#5 v=0
1058246 On ch=1 n=c#6 v=57
1058326 On ch=1 n=c#6 v=0
1058376 On ch=1 n=c#7 v=0
1058436 On ch=1 n=b6 v=86
1058446 On ch=1 n=b5 v=68
1058456 On ch=1 n=c#5 v=43
1058456 On ch=1 n=g#4 v=38
1058466 On ch=1 n=e4 v=44
1058481 On ch=1 n=b5 v=0
1058511 On ch=1 n=g#4 v=0
1058526 On ch=1 n=e4 v=0
1058526 On ch=1 n=c#5 v=0
1058616 On ch=1 n=b5 v=59
1058656 On ch=1 n=b5 v=0
1058696 On ch=1 n=b6 v=0
1058781 On ch=1 n=a#6 v=83
1058781 On ch=1 n=a#5 v=73
1058781 Par ch=1 c=64 v=104
1058796 On ch=1 n=f#3 v=70
1058801 Par ch=1 c=64 v=40
1058816 Par ch=1 c=64 v=0
1058841 On ch=1 n=a#5 v=0
1058856 On ch=1 n=f#3 v=0
1058896 On ch=1 n=a#6 v=0
1058906 Par ch=1 c=64 v=40
1058921 Par ch=1 c=64 v=104
1058936 Par ch=1 c=64 v=127
1058951 On ch=1 n=a#5 v=62
1059006 On ch=1 n=a#5 v=0
1059106 On ch=1 n=c#5 v=42
1059116 On ch=1 n=a#4 v=42
1059116 On ch=1 n=c#6 v=71
1059121 On ch=1 n=c#7 v=79
1059151 On ch=1 n=a#4 v=0
1059171 On ch=1 n=c#5 v=0
1059181 On ch=1 n=c#6 v=0
1059271 On ch=1 n=c#6 v=73
1059276 On ch=1 n=c#5 v=47
1059286 On ch=1 n=a#4 v=40
1059336 On ch=1 n=c#5 v=0
1059346 On ch=1 n=c#6 v=0
1059361 On ch=1 n=a#4 v=0
1059371 On ch=1 n=c#7 v=0
1059426 On ch=1 n=c7 v=89
1059436 On ch=1 n=c6 v=81
1059446 On ch=1 n=a4 v=44
1059481 On ch=1 n=c6 v=0
1059481 On ch=1 n=e4 v=33
1059486 On ch=1 n=c#5 v=27
1059531 On ch=1 n=c#5 v=0
1059541 On ch=1 n=e4 v=0
1059541 On ch=1 n=a4 v=0
1059601 On ch=1 n=c6 v=73
1059666 On ch=1 n=c6 v=0
1059696 On ch=1 n=c7 v=0
1059761 On ch=1 n=a#4 v=53
1059766 On ch=1 n=c#5 v=54
1059771 On ch=1 n=e4 v=42
1059771 On ch=1 n=c#7 v=87
1059781 On ch=1 n=c#6 v=80
1059826 On ch=1 n=c#5 v=0
1059831 On ch=1 n=e4 v=0
1059831 On ch=1 n=a#4 v=0
1059841 On ch=1 n=c#6 v=0
1059886 On ch=1 n=c#7 v=0
1059941 On ch=1 n=c#6 v=71
1059991 On ch=1 n=c#6 v=0
1060091 Par ch=1 c=64 v=72
1060111 Par ch=1 c=64 v=0
1060121 On ch=1 n=g3 v=74
1060131 On ch=1 n=d#7 v=90
1060141 On ch=1 n=d#6 v=83
1060196 On ch=1 n=g3 v=0
1060206 On ch=1 n=d#6 v=0
1060211 Par ch=1 c=64 v=56
1060231 Par ch=1 c=64 v=127
1060311 On ch=1 n=d#6 v=72
1060376 On ch=1 n=d#6 v=0
1060461 On ch=1 n=c#5 v=53
1060466 On ch=1 n=d#4 v=55
1060471 On ch=1 n=a#4 v=42
1060481 On ch=1 n=d#6 v=65
1060501 On ch=1 n=c#5 v=0
1060506 On ch=1 n=a#4 v=0
1060516 On ch=1 n=d#4 v=0
1060546 On ch=1 n=d#6 v=0
1060626 On ch=1 n=c#5 v=55
1060626 On ch=1 n=d#6 v=64
1060636 On ch=1 n=d#4 v=45
1060661 On ch=1 n=c#5 v=0
1060671 On ch=1 n=d#4 v=0
1060701 On ch=1 n=d#6 v=0
1060801 On ch=1 n=d#6 v=65
1060816 On ch=1 n=a#4 v=40
1060816 On ch=1 n=c5 v=56
1060821 On ch=1 n=d#4 v=43
1060861 On ch=1 n=a#4 v=0
1060866 On ch=1 n=d#6 v=0
1060871 On ch=1 n=c5 v=0
1060921 On ch=1 n=d#4 v=0
1060961 On ch=1 n=d#6 v=60
1061031 On ch=1 n=d#6 v=0
1061051 On ch=1 n=d#7 v=0
1061136 On ch=1 n=a#4 v=46
1061136 On ch=1 n=c#7 v=79
1061141 On ch=1 n=c#5 v=45
1061141 On ch=1 n=d#4 v=56
1061146 On ch=1 n=c#6 v=69
1061161 On ch=1 n=a#4 v=0
1061176 On ch=1 n=c#5 v=0
1061206 On ch=1 n=d#4 v=0
1061211 On ch=1 n=c#6 v=0
1061276 On ch=1 n=c#7 v=0
1061306 On ch=1 n=c#6 v=64
1061386 On ch=1 n=c#6 v=0
1061416 Par ch=1 c=64 v=56
1061436 Par ch=1 c=64 v=0
1061476 On ch=1 n=g#3 v=71
1061476 On ch=1 n=c7 v=79
1061491 On ch=1 n=c6 v=65
1061521 Par ch=1 c=64 v=72
1061531 On ch=1 n=c6 v=0
1061536 Par ch=1 c=64 v=127
1061556 On ch=1 n=g#3 v=0
1061641 On ch=1 n=c6 v=75
1061696 On ch=1 n=c7 v=0
1061701 On ch=1 n=c6 v=0
1061816 On ch=1 n=d#4 v=61
1061821 On ch=1 n=g#6 v=77
1061821 On ch=1 n=c5 v=56
1061821 On ch=1 n=g#5 v=71
1061846 On ch=1 n=d#4 v=0
1061856 On ch=1 n=c5 v=0
1061871 On ch=1 n=g#5 v=0
1061971 On ch=1 n=g#5 v=69
1061981 On ch=1 n=d#4 v=55
1061991 On ch=1 n=c5 v=47
1062036 On ch=1 n=c5 v=0
1062051 On ch=1 n=g#5 v=0
1062056 On ch=1 n=d#4 v=0
1062081 On ch=1 n=g#6 v=0
1062151 On ch=1 n=g6 v=86
1062151 Par ch=1 c=64 v=88
1062156 On ch=1 n=g5 v=68
1062166 Par ch=1 c=64 v=0
1062181 On ch=1 n=e4 v=59
1062181 On ch=1 n=c5 v=31
1062206 On ch=1 n=g5 v=0
1062236 Par ch=1 c=64 v=40
1062251 Par ch=1 c=64 v=104
1062261 On ch=1 n=c5 v=0
1062261 On ch=1 n=e4 v=0
1062271 Par ch=1 c=64 v=127
1062321 On ch=1 n=g5 v=66
1062361 On ch=1 n=g5 v=0
1062386 On ch=1 n=g6 v=0
1062481 On ch=1 n=c5 v=55
1062486 On ch=1 n=f6 v=83
1062486 On ch=1 n=f4 v=68
1062496 On ch=1 n=f5 v=58
1062516 On ch=1 n=c5 v=0
1062526 On ch=1 n=f4 v=0
1062536 On ch=1 n=f5 v=0
1062616 On ch=1 n=f6 v=0
1062636 On ch=1 n=f5 v=60
1062706 On ch=1 n=f5 v=0
1062811 Par ch=1 c=64 v=72
1062831 Par ch=1 c=64 v=0
1062851 On ch=1 n=d#6 v=79
1062851 On ch=1 n=a#3 v=72
1062856 On ch=1 n=d#5 v=67
1062916 Par ch=1 c=64 v=56
1062921 On ch=1 n=d#5 v=0
1062931 Par ch=1 c=64 v=127
1062951 On ch=1 n=a#3 v=0
1062971 On ch=1 n=d#6 v=0
1063016 On ch=1 n=d#5 v=61
1063101 On ch=1 n=d#5 v=0
1063171 On ch=1 n=a#4 v=40
1063181 On ch=1 n=d#5 v=57
1063186 On ch=1 n=f4 v=50
1063226 On ch=1 n=f4 v=0
1063236 On ch=1 n=a#4 v=0
1063251 On ch=1 n=d#5 v=0
1063336 On ch=1 n=d#5 v=57
1063346 On ch=1 n=a#4 v=50
1063361 On ch=1 n=f4 v=54
1063391 On ch=1 n=f4 v=0
1063396 On ch=1 n=a#4 v=0
1063401 On ch=1 n=d#5 v=0
1063506 On ch=1 n=d#5 v=52
1063521 On ch=1 n=a4 v=44
1063526 On ch=1 n=f4 v=60
1063556 On ch=1 n=d#5 v=0
1063561 On ch=1 n=f4 v=0
1063576 On ch=1 n=a4 v=0
1063666 On ch=1 n=d#5 v=54
1063741 On ch=1 n=d#5 v=0
1063846 On ch=1 n=c#6 v=69
1063851 On ch=1 n=a#4 v=42
1063856 On ch=1 n=f4 v=54
1063861 On ch=1 n=c#5 v=54
1063891 On ch=1 n=f4 v=0
1063891 On ch=1 n=a#4 v=0
1063916 On ch=1 n=c#5 v=0
1064021 On ch=1 n=c#5 v=61
1064096 On ch=1 n=c#5 v=0
1064101 On ch=1 n=c#6 v=0
1064171 Par ch=1 c=64 v=56
1064186 Par ch=1 c=64 v=0
1064206 On ch=1 n=d#3 v=64
1064211 On ch=1 n=a#5 v=59
1064231 On ch=1 n=a#4 v=47
1064291 On ch=1 n=a#4 v=0
1064291 Par ch=1 c=64 v=24
1064306 On ch=1 n=d#3 v=0
1064311 Par ch=1 c=64 v=88
1064326 Par ch=1 c=64 v=127
1064346 On ch=1 n=a#5 v=0
1064391 On ch=1 n=a#4 v=50
1064461 On ch=1 n=a#4 v=0
1064536 On ch=1 n=d#4 v=53
1064546 On ch=1 n=g#4 v=32
1064571 On ch=1 n=a#4 v=56
1064586 On ch=1 n=g#4 v=0
1064596 On ch=1 n=d#4 v=0
1064641 On ch=1 n=a#4 v=0
1064736 On ch=1 n=a#4 v=44
1064741 On ch=1 n=g#4 v=38
1064746 On ch=1 n=d#4 v=38
1064781 On ch=1 n=d#4 v=0
1064781 On ch=1 n=g#4 v=0
1064781 On ch=1 n=a#4 v=0
1064921 Par ch=1 c=64 v=72
1064941 On ch=1 n=d#5 v=55
1064941 On ch=1 n=d#6 v=73
1064941 Par ch=1 c=64 v=0
1064951 On ch=1 n=d#4 v=51
1064961 On ch=1 n=g4 v=52
1065006 On ch=1 n=d#5 v=0
1065006 Par ch=1 c=64 v=24
1065026 Par ch=1 c=64 v=72
1065041 Par ch=1 c=64 v=127
1065066 On ch=1 n=g4 v=0
1065106 On ch=1 n=d#5 v=58
1065156 On ch=1 n=d#4 v=0
1065186 On ch=1 n=d#5 v=0
1065296 On ch=1 n=d#5 v=54
1065301 On ch=1 n=d#4 v=49
1065321 On ch=1 n=f4 v=46
1065361 On ch=1 n=f4 v=0
1065371 On ch=1 n=d#5 v=0
1065376 On ch=1 n=d#4 v=0
1065451 On ch=1 n=d#6 v=0
1065476 On ch=1 n=d#5 v=64
1065551 On ch=1 n=d#5 v=0
1065671 Par ch=1 c=64 v=104
1065686 Par ch=1 c=64 v=24
1065706 Par ch=1 c=64 v=0
1065711 On ch=1 n=c6 v=65
1065711 On ch=1 n=c5 v=56
1065716 On ch=1 n=g#2 v=54
1065781 On ch=1 n=c5 v=0
1065791 On ch=1 n=g#2 v=0
1065791 Par ch=1 c=64 v=24
1065811 Par ch=1 c=64 v=88
1065826 Par ch=1 c=64 v=127
1065901 On ch=1 n=c5 v=60
1065971 On ch=1 n=c5 v=0
1066081 On ch=1 n=d#4 v=49
1066086 On ch=1 n=g#3 v=44
1066091 On ch=1 n=c5 v=54
1066126 On ch=1 n=d#4 v=0
1066131 On ch=1 n=g#3 v=0
1066161 On ch=1 n=c5 v=0
1066276 On ch=1 n=c5 v=53
1066286 On ch=1 n=d#4 v=48
1066291 On ch=1 n=g#3 v=43
1066346 On ch=1 n=c5 v=0
1066351 On ch=1 n=d#4 v=0
1066356 On ch=1 n=g#3 v=0
1066486 On ch=1 n=c5 v=51
1066486 Par ch=1 c=64 v=56
1066506 On ch=1 n=d#4 v=43
1066506 Par ch=1 c=64 v=0
1066521 On ch=1 n=g3 v=49
1066576 On ch=1 n=c5 v=0
1066611 Par ch=1 c=64 v=24
1066626 On ch=1 n=d#4 v=0
1066631 Par ch=1 c=64 v=88
1066641 On ch=1 n=g3 v=0
1066646 Par ch=1 c=64 v=127
1066696 On ch=1 n=c5 v=46
1066786 On ch=1 n=c5 v=0
1066926 Par ch=1 c=64 v=88
1066941 On ch=1 n=c5 v=44
1066946 On ch=1 n=d#4 v=34
1066946 On ch=1 n=g#3 v=37
1066946 Par ch=1 c=64 v=24
1066961 Par ch=1 c=64 v=0
1067041 On ch=1 n=c5 v=0
1067046 Par ch=1 c=64 v=72
1067061 On ch=1 n=g#3 v=0
1067061 On ch=1 n=d#4 v=0
1067066 Par ch=1 c=64 v=127
1067176 On ch=1 n=c5 v=50
1067241 On ch=1 n=c5 v=0
1067296 On ch=1 n=c6 v=0
1067586 Par ch=1 c=64 v=104
1067606 Par ch=1 c=64 v=72
1067621 Par ch=1 c=64 v=40
1067641 Par ch=1 c=64 v=0
1070401 On ch=1 n=g#6 v=80
1070411 On ch=1 n=f4 v=62
1070481 On ch=1 n=f4 v=0
1070511 On ch=1 n=g#6 v=0
1070546 On ch=1 n=c6 v=87
1070551 On ch=1 n=c5 v=66
1070626 On ch=1 n=c5 v=0
1070661 On ch=1 n=c6 v=0
1070681 On ch=1 n=b5 v=77
1070691 On ch=1 n=f5 v=52
1070771 On ch=1 n=f5 v=0
1070786 On ch=1 n=b5 v=0
1070811 On ch=1 n=c6 v=86
1070816 On ch=1 n=g#5 v=43
1070906 On ch=1 n=g#5 v=0
1070921 On ch=1 n=c6 v=0
1070956 On ch=1 n=b5 v=82
1070956 On ch=1 n=g5 v=49
1071001 On ch=1 n=g5 v=0
1071066 On ch=1 n=b5 v=0
1071091 On ch=1 n=d6 v=83
1071096 On ch=1 n=d5 v=67
1071191 On ch=1 n=d6 v=0
1071196 On ch=1 n=d5 v=0
1071226 On ch=1 n=b4 v=61
1071236 On ch=1 n=g6 v=87
1071331 On ch=1 n=g6 v=0
1071361 On ch=1 n=b4 v=0
1071371 On ch=1 n=f6 v=86
1071376 On ch=1 n=g4 v=62
1071396 On ch=1 n=g4 v=0
1071471 On ch=1 n=f6 v=0
1071521 On ch=1 n=e6 v=82
1071541 On ch=1 n=c4 v=70
1071616 On ch=1 n=e6 v=0
1071621 On ch=1 n=c4 v=0
1071661 On ch=1 n=c#6 v=79
1071676 On ch=1 n=g4 v=66
1071746 On ch=1 n=c#6 v=0
1071751 On ch=1 n=g4 v=0
1071806 On ch=1 n=g6 v=83
1071811 On ch=1 n=c5 v=62
1071816 On ch=1 n=c6 v=76
1071891 On ch=1 n=g6 v=0
1071901 On ch=1 n=c5 v=0
1071921 On ch=1 n=c6 v=0
1071951 On ch=1 n=a#5 v=71
1071961 On ch=1 n=e5 v=46
1072016 On ch=1 n=e5 v=0
1072026 On ch=1 n=a#5 v=0
1072111 On ch=1 n=a#5 v=71
1072111 On ch=1 n=f6 v=89
1072111 On ch=1 n=f5 v=64
1072181 On ch=1 n=a#5 v=0
1072246 On ch=1 n=f5 v=0
1072251 On ch=1 n=g#5 v=67
1072256 On ch=1 n=c5 v=60
1072336 On ch=1 n=g#5 v=0
1072371 On ch=1 n=c5 v=0
1072396 On ch=1 n=g5 v=69
1072401 On ch=1 n=a#4 v=46
1072506 On ch=1 n=g5 v=0
1072506 On ch=1 n=f6 v=0
1072521 On ch=1 n=a#4 v=0
1072541 On ch=1 n=f5 v=67
1072541 On ch=1 n=g#4 v=46
1072586 On ch=1 n=f5 v=0
1072606 On ch=1 n=g#4 v=0
1072716 On ch=1 n=g#6 v=88
1072721 On ch=1 n=f4 v=64
1072836 On ch=1 n=g#6 v=0
1072846 On ch=1 n=c6 v=86
1072861 On ch=1 n=c5 v=55
1072866 On ch=1 n=f4 v=0
1072946 On ch=1 n=c5 v=0
1072951 On ch=1 n=c6 v=0
1072996 On ch=1 n=b5 v=74
1073011 On ch=1 n=f5 v=54
1073081 On ch=1 n=b5 v=0
1073091 On ch=1 n=f5 v=0
1073131 On ch=1 n=c6 v=84
1073131 On ch=1 n=g#5 v=50
1073221 On ch=1 n=g#5 v=0
1073231 On ch=1 n=c6 v=0
1073276 On ch=1 n=b5 v=81
1073286 On ch=1 n=g5 v=48
1073371 On ch=1 n=g5 v=0
1073391 On ch=1 n=b5 v=0
1073411 On ch=1 n=d6 v=81
1073421 On ch=1 n=d5 v=63
1073496 On ch=1 n=d5 v=0
1073506 On ch=1 n=d6 v=0
1073561 On ch=1 n=g6 v=81
1073561 On ch=1 n=b4 v=55
1073646 On ch=1 n=g6 v=0
1073671 On ch=1 n=b4 v=0
1073691 On ch=1 n=f6 v=83
1073696 On ch=1 n=g4 v=60
1073721 On ch=1 n=g4 v=0
1073796 On ch=1 n=f6 v=0
1073841 On ch=1 n=e6 v=83
1073856 On ch=1 n=c4 v=70
1073941 On ch=1 n=c4 v=0
1073946 On ch=1 n=e6 v=0
1073976 On ch=1 n=c#6 v=70
1073996 On ch=1 n=g4 v=53
1074076 On ch=1 n=g4 v=0
1074091 On ch=1 n=c#6 v=0
1074126 On ch=1 n=g6 v=84
1074131 On ch=1 n=c5 v=60
1074136 On ch=1 n=c6 v=74
1074201 On ch=1 n=c6 v=0
1074221 On ch=1 n=c5 v=0
1074231 On ch=1 n=g6 v=0
1074266 On ch=1 n=a#5 v=71
1074271 On ch=1 n=e5 v=44
1074341 On ch=1 n=a#5 v=0
1074346 On ch=1 n=e5 v=0
1074411 On ch=1 n=f6 v=87
1074416 On ch=1 n=a#5 v=77
1074421 On ch=1 n=f5 v=60
1074481 On ch=1 n=a#5 v=0
1074556 On ch=1 n=g#5 v=63
1074571 On ch=1 n=f5 v=0
1074626 On ch=1 n=g#5 v=0
1074651 On ch=1 n=f6 v=0
1074701 On ch=1 n=g5 v=66
1074726 On ch=1 n=f6 v=8
1074761 On ch=1 n=f6 v=0
1074821 On ch=1 n=g5 v=0
1074841 On ch=1 n=f5 v=68
1074891 On ch=1 n=f5 v=0
1074976 On ch=1 n=d#5 v=74
1075076 On ch=1 n=d#5 v=0
1075121 On ch=1 n=g4 v=70
1075216 On ch=1 n=g4 v=0
1075281 On ch=1 n=f#4 v=69
1075281 On ch=1 n=g6 v=99
1075286 On ch=1 n=d#6 v=75
1075286 On ch=1 n=g5 v=78
1075291 On ch=1 n=c6 v=82
1075376 On ch=1 n=f#4 v=0
1075416 On ch=1 n=g5 v=0
1075421 On ch=1 n=g4 v=86
1075431 On ch=1 n=c6 v=0
1075446 On ch=1 n=d#6 v=0
1075471 On ch=1 n=g6 v=0
1075486 On ch=1 n=g4 v=0
1075561 On ch=1 n=f#4 v=82
1075581 On ch=1 n=c4 v=76
1075656 On ch=1 n=c4 v=0
1075661 On ch=1 n=f#4 v=0
1075701 On ch=1 n=a4 v=80
1075801 On ch=1 n=a4 v=0
1075846 On ch=1 n=a6 v=97
1075851 On ch=1 n=d5 v=79
1075856 On ch=1 n=a5 v=87
1075856 On ch=1 n=c6 v=87
1075856 On ch=1 n=d6 v=75
1075861 On ch=1 n=f#6 v=64
1075941 On ch=1 n=d6 v=0
1075946 On ch=1 n=d5 v=0
1075971 On ch=1 n=c6 v=0
1075976 On ch=1 n=f#6 v=0
1075981 On ch=1 n=c5 v=80
1075986 On ch=1 n=a5 v=0
1076026 On ch=1 n=c5 v=0
1076046 On ch=1 n=a6 v=0
1076126 On ch=1 n=b4 v=81
1076141 On ch=1 n=c4 v=76
1076216 On ch=1 n=b4 v=0
1076276 On ch=1 n=g#4 v=74
1076381 On ch=1 n=g#4 v=0
1076411 On ch=1 n=b6 v=99
1076421 On ch=1 n=b5 v=84
1076421 On ch=1 n=d6 v=83
1076426 On ch=1 n=g4 v=78
1076426 On ch=1 n=g6 v=80
1076426 On ch=1 n=f6 v=79
1076516 On ch=1 n=g4 v=0
1076531 On ch=1 n=f6 v=0
1076541 On ch=1 n=d6 v=0
1076551 On ch=1 n=b5 v=0
1076551 On ch=1 n=f4 v=79
1076566 On ch=1 n=g6 v=0
1076571 On ch=1 n=c4 v=0
1076601 On ch=1 n=f4 v=0
1076616 On ch=1 n=b6 v=0
1076696 On ch=1 n=f4 v=82
1076711 On ch=1 n=c4 v=75
1076816 On ch=1 n=f4 v=0
1076841 On ch=1 n=d#4 v=80
1076946 On ch=1 n=c4 v=0
1076971 On ch=1 n=d#4 v=0
1076976 On ch=1 n=c7 v=103
1076981 On ch=1 n=d4 v=83
1076986 On ch=1 n=d#6 v=61
1076986 On ch=1 n=c6 v=67
1076991 On ch=1 n=g6 v=70
1077106 On ch=1 n=g6 v=0
1077116 On ch=1 n=d#6 v=0
1077126 On ch=1 n=c7 v=0
1077126 On ch=1 n=c4 v=73
1077141 On ch=1 n=d4 v=0
1077156 On ch=1 n=c4 v=0
1077156 On ch=1 n=c6 v=0
1077281 On ch=1 n=d#5 v=83
1077371 On ch=1 n=d#5 v=0
1077416 On ch=1 n=g4 v=75
1077521 On ch=1 n=g4 v=0
1077561 On ch=1 n=g6 v=97
1077566 On ch=1 n=d#6 v=71
1077566 On ch=1 n=f#4 v=65
1077571 On ch=1 n=g5 v=68
1077576 On ch=1 n=c6 v=73
1077676 On ch=1 n=d#6 v=0
1077686 On ch=1 n=g5 v=0
1077686 On ch=1 n=f#4 v=0
1077691 On ch=1 n=c6 v=0
1077691 On ch=1 n=g4 v=74
1077741 On ch=1 n=g6 v=0
1077746 On ch=1 n=g4 v=0
1077826 On ch=1 n=f#4 v=79
1077851 On ch=1 n=c4 v=80
1077916 On ch=1 n=c4 v=0
1077936 On ch=1 n=f#4 v=0
1077971 On ch=1 n=a4 v=82
1078076 On ch=1 n=a4 v=0
1078111 On ch=1 n=a6 v=97
1078116 On ch=1 n=a5 v=71
1078121 On ch=1 n=c6 v=70
1078121 On ch=1 n=d5 v=72
1078121 On ch=1 n=f#6 v=57
1078126 On ch=1 n=d6 v=62
1078226 On ch=1 n=d6 v=0
1078226 On ch=1 n=d5 v=0
1078251 On ch=1 n=c5 v=83
1078291 On ch=1 n=f#6 v=0
1078296 On ch=1 n=c6 v=0
1078311 On ch=1 n=c5 v=0
1078321 On ch=1 n=a5 v=0
1078366 On ch=1 n=a6 v=0
1078401 On ch=1 n=b4 v=86
1078416 On ch=1 n=c4 v=77
1078506 On ch=1 n=b4 v=0
1078556 On ch=1 n=g#4 v=73
1078676 On ch=1 n=g#4 v=0
1078686 On ch=1 n=b6 v=98
1078691 On ch=1 n=b5 v=68
1078696 On ch=1 n=g6 v=72
1078696 On ch=1 n=d6 v=66
1078701 On ch=1 n=f6 v=61
1078701 On ch=1 n=g4 v=74
1078801 On ch=1 n=f6 v=0
1078811 On ch=1 n=g4 v=0
1078831 On ch=1 n=f4 v=81
1078836 On ch=1 n=d6 v=0
1078846 On ch=1 n=b5 v=0
1078856 On ch=1 n=g6 v=0
1078876 On ch=1 n=c4 v=0
1078881 On ch=1 n=f4 v=0
1078906 On ch=1 n=b6 v=0
1078981 On ch=1 n=f4 v=86
1078996 On ch=1 n=c4 v=77
1079086 On ch=1 n=f4 v=0
1079121 On ch=1 n=d#4 v=75
1079196 On ch=1 n=c4 v=0
1079256 On ch=1 n=d#4 v=0
1079266 On ch=1 n=d4 v=82
1079271 On ch=1 n=c7 v=103
1079276 On ch=1 n=d#6 v=61
1079281 On ch=1 n=g6 v=68
1079281 On ch=1 n=c6 v=63
1079396 On ch=1 n=g6 v=0
1079411 On ch=1 n=c7 v=0
1079411 On ch=1 n=c4 v=65
1079416 On ch=1 n=d#6 v=0
1079416 On ch=1 n=d4 v=0
1079431 On ch=1 n=c4 v=0
1079446 On ch=1 n=c6 v=0
1079586 On ch=1 n=g#6 v=76
1079596 On ch=1 n=f4 v=47
1079636 On ch=1 n=f4 v=0
1079686 On ch=1 n=g#6 v=0
1079721 On ch=1 n=c6 v=84
1079731 On ch=1 n=c5 v=62
1079826 On ch=1 n=c5 v=0
1079836 On ch=1 n=c6 v=0
1079861 On ch=1 n=b5 v=76
1079871 On ch=1 n=f5 v=53
1079966 On ch=1 n=f5 v=0
1079966 On ch=1 n=b5 v=0
1079991 On ch=1 n=c6 v=85
1080001 On ch=1 n=g#5 v=57
1080056 On ch=1 n=g#5 v=0
1080106 On ch=1 n=c6 v=0
1080141 On ch=1 n=b5 v=81
1080166 On ch=1 n=g5 v=47
1080236 On ch=1 n=g5 v=0
1080251 On ch=1 n=b5 v=0
1080276 On ch=1 n=d6 v=81
1080286 On ch=1 n=d5 v=60
1080366 On ch=1 n=d5 v=0
1080371 On ch=1 n=d6 v=0
1080421 On ch=1 n=b4 v=60
1080431 On ch=1 n=g6 v=83
1080526 On ch=1 n=g6 v=0
1080556 On ch=1 n=b4 v=0
1080571 On ch=1 n=g4 v=60
1080571 On ch=1 n=f6 v=83
1080591 On ch=1 n=g4 v=0
1080676 On ch=1 n=f6 v=0
1080716 On ch=1 n=e6 v=87
1080736 On ch=1 n=c4 v=65
1080806 On ch=1 n=c4 v=0
1080826 On ch=1 n=e6 v=0
1080866 On ch=1 n=c#6 v=55
1080876 On ch=1 n=g4 v=51
1080936 On ch=1 n=c#6 v=0
1080951 On ch=1 n=g4 v=0
1081006 On ch=1 n=g6 v=84
1081016 On ch=1 n=c5 v=59
1081021 On ch=1 n=c6 v=83
1081101 On ch=1 n=c6 v=0
1081106 On ch=1 n=c5 v=0
1081116 On ch=1 n=g6 v=0
1081146 On ch=1 n=a#5 v=56
1081171 On ch=1 n=e5 v=28
1081206 On ch=1 n=e5 v=0
1081206 On ch=1 n=a#5 v=0
1081301 On ch=1 n=f6 v=88
1081301 On ch=1 n=f5 v=66
1081306 On ch=1 n=a#5 v=72
1081376 On ch=1 n=a#5 v=0
1081441 On ch=1 n=f5 v=0
1081446 On ch=1 n=g#5 v=61
1081451 On ch=1 n=c5 v=63
1081526 On ch=1 n=g#5 v=0
1081561 On ch=1 n=c5 v=0
1081586 On ch=1 n=a#4 v=49
1081586 On ch=1 n=g5 v=58
1081686 On ch=1 n=g5 v=0
1081696 On ch=1 n=f6 v=0
1081701 On ch=1 n=a#4 v=0
1081721 On ch=1 n=f5 v=68
1081721 On ch=1 n=g#4 v=55
1081766 On ch=1 n=f5 v=0
1081786 On ch=1 n=g#4 v=0
1081876 On ch=1 n=g#6 v=85
1081891 On ch=1 n=f4 v=66
1081996 On ch=1 n=g#6 v=0
1082016 On ch=1 n=c6 v=86
1082031 On ch=1 n=c5 v=64
1082036 On ch=1 n=f4 v=0
1082126 On ch=1 n=c5 v=0
1082136 On ch=1 n=c6 v=0
1082161 On ch=1 n=b5 v=75
1082181 On ch=1 n=f5 v=52
1082266 On ch=1 n=b5 v=0
1082271 On ch=1 n=f5 v=0
1082301 On ch=1 n=c6 v=81
1082301 On ch=1 n=g#5 v=50
1082371 On ch=1 n=g#5 v=0
1082401 On ch=1 n=c6 v=0
1082446 On ch=1 n=b5 v=79
1082471 On ch=1 n=g5 v=50
1082541 On ch=1 n=g5 v=0
1082546 On ch=1 n=b5 v=0
1082586 On ch=1 n=d6 v=82
1082586 On ch=1 n=d5 v=68
1082671 On ch=1 n=d5 v=0
1082681 On ch=1 n=d6 v=0
1082721 On ch=1 n=b4 v=58
1082726 On ch=1 n=g6 v=85
1082826 On ch=1 n=g6 v=0
1082846 On ch=1 n=b4 v=0
1082866 On ch=1 n=g4 v=53
1082866 On ch=1 n=f6 v=87
1082891 On ch=1 n=g4 v=0
1082971 On ch=1 n=f6 v=0
1083011 On ch=1 n=e6 v=88
1083011 On ch=1 n=c4 v=68
1083106 On ch=1 n=e6 v=0
1083141 On ch=1 n=c#6 v=71
1083161 On ch=1 n=g4 v=58
1083166 On ch=1 n=c4 v=0
1083251 On ch=1 n=c#6 v=0
1083256 On ch=1 n=g4 v=0
1083291 On ch=1 n=g6 v=86
1083301 On ch=1 n=c6 v=80
1083306 On ch=1 n=c5 v=62
1083366 On ch=1 n=c6 v=0
1083401 On ch=1 n=c5 v=0
1083406 On ch=1 n=g6 v=0
1083441 On ch=1 n=e5 v=62
1083441 On ch=1 n=a#5 v=68
1083481 On ch=1 n=a#5 v=0
1083516 On ch=1 n=e5 v=0
1083586 On ch=1 n=f6 v=90
1083591 On ch=1 n=a#5 v=77
1083596 On ch=1 n=f5 v=68
1083651 On ch=1 n=a#5 v=0
1083726 On ch=1 n=g#5 v=60
1083811 On ch=1 n=g#5 v=0
1083876 On ch=1 n=g5 v=65
1083891 On ch=1 n=f5 v=0
1083991 On ch=1 n=g5 v=0
1084031 On ch=1 n=f5 v=59
1084061 On ch=1 n=f6 v=0
1084121 On ch=1 n=f5 v=0
1084216 On ch=1 n=a#4 v=32
1084221 On ch=1 n=c#4 v=33
1084256 Par ch=1 c=64 v=24
1084271 Par ch=1 c=64 v=56
1084286 Par ch=1 c=64 v=88
1084301 Par ch=1 c=64 v=127
1084366 On ch=1 n=g#4 v=50
1084371 On ch=1 n=a#4 v=0
1084476 On ch=1 n=g#4 v=0
1084496 On ch=1 n=c#4 v=0
1084541 On ch=1 n=f#4 v=42
1084546 On ch=1 n=a#5 v=71
1084641 On ch=1 n=f#4 v=0
1084661 On ch=1 n=a#5 v=0
1084691 On ch=1 n=g#5 v=72
1084696 On ch=1 n=f4 v=58
1084811 On ch=1 n=f4 v=0
1084836 Par ch=1 c=64 v=88
1084851 Par ch=1 c=64 v=40
1084856 On ch=1 n=g#5 v=0
1084861 On ch=1 n=f#5 v=75
1084866 Par ch=1 c=64 v=0
1084876 On ch=1 n=d#4 v=44
1084886 On ch=1 n=g#3 v=47
1084966 Par ch=1 c=64 v=40
1084986 Par ch=1 c=64 v=72
1085001 On ch=1 n=f#5 v=0
1085001 Par ch=1 c=64 v=88
1085006 On ch=1 n=g#3 v=0
1085011 On ch=1 n=f5 v=82
1085011 Par ch=1 c=64 v=104
1085016 On ch=1 n=d#4 v=0
1085046 On ch=1 n=f4 v=54
1085126 On ch=1 n=f5 v=0
1085171 On ch=1 n=d#5 v=77
1085176 On ch=1 n=f#4 v=51
1085201 On ch=1 n=f4 v=0
1085286 On ch=1 n=d#5 v=0
1085301 On ch=1 n=f#4 v=0
1085316 On ch=1 n=f5 v=79
1085341 On ch=1 n=g#4 v=49
1085456 On ch=1 n=g#4 v=0
1085481 On ch=1 n=f5 v=0
1085491 Par ch=1 c=64 v=88
1085496 On ch=1 n=f#4 v=53
1085501 On ch=1 n=c#5 v=79
1085506 Par ch=1 c=64 v=72
1085516 Par ch=1 c=64 v=24
1085531 Par ch=1 c=64 v=0
1085551 On ch=1 n=c#4 v=39
1085646 On ch=1 n=f#4 v=0
1085666 On ch=1 n=c#4 v=0
1085666 Par ch=1 c=64 v=40
1085681 On ch=1 n=f4 v=46
1085681 Par ch=1 c=64 v=72
1085696 Par ch=1 c=64 v=127
1085781 On ch=1 n=f4 v=0
1085831 On ch=1 n=d#4 v=51
1085846 On ch=1 n=c#5 v=0
1085926 On ch=1 n=d#4 v=0
1085976 On ch=1 n=c#4 v=49
1086136 On ch=1 n=c#4 v=0
1086176 On ch=1 n=d#5 v=77
1086186 On ch=1 n=a#4 v=53
1086186 Par ch=1 c=64 v=88
1086201 On ch=1 n=c4 v=50
1086201 Par ch=1 c=64 v=56
1086216 Par ch=1 c=64 v=0
1086301 On ch=1 n=a#4 v=0
1086366 On ch=1 n=g#4 v=61
1086366 Par ch=1 c=64 v=40
1086381 Par ch=1 c=64 v=88
1086396 Par ch=1 c=64 v=127
1086486 On ch=1 n=g#4 v=0
1086521 On ch=1 n=g4 v=55
1086606 On ch=1 n=g4 v=0
1086651 On ch=1 n=d#5 v=0
1086666 On ch=1 n=f#4 v=70
1086736 On ch=1 n=f#4 v=0
1086826 On ch=1 n=c4 v=0
1086826 Par ch=1 c=64 v=72
1086831 On ch=1 n=f5 v=80
1086836 On ch=1 n=c#4 v=56
1086836 Par ch=1 c=64 v=0
1086841 On ch=1 n=f4 v=54
1086941 Par ch=1 c=64 v=40
1086951 On ch=1 n=c#4 v=0
1086956 Par ch=1 c=64 v=72
1086971 Par ch=1 c=64 v=127
1086991 On ch=1 n=d#5 v=61
1087006 On ch=1 n=c4 v=45
1087021 On ch=1 n=f4 v=0
1087131 On ch=1 n=c4 v=0
1087146 On ch=1 n=c#5 v=67
1087151 On ch=1 n=d#5 v=0
1087166 On ch=1 n=a#3 v=57
1087171 On ch=1 n=f5 v=0
1087271 On ch=1 n=a#3 v=0
1087281 On ch=1 n=c#5 v=0
1087296 On ch=1 n=c5 v=86
1087311 On ch=1 n=g#3 v=46
1087356 On ch=1 n=c5 v=0
1087476 Par ch=1 c=64 v=104
1087481 On ch=1 n=g#3 v=0
1087491 Par ch=1 c=64 v=40
1087496 On ch=1 n=a#5 v=82
1087506 Par ch=1 c=64 v=0
1087511 On ch=1 n=a#4 v=56
1087521 On ch=1 n=f#3 v=48
1087596 Par ch=1 c=64 v=40
1087611 Par ch=1 c=64 v=104
1087626 Par ch=1 c=64 v=127
1087646 On ch=1 n=g#5 v=76
1087686 On ch=1 n=a#4 v=0
1087701 On ch=1 n=a#5 v=0
1087781 On ch=1 n=g#5 v=0
1087806 On ch=1 n=f#5 v=77
1087816 On ch=1 n=f#3 v=0
1087916 On ch=1 n=f#5 v=0
1087951 On ch=1 n=f5 v=81
1088006 On ch=1 n=f5 v=0
1088116 Par ch=1 c=64 v=72
1088131 Par ch=1 c=64 v=0
1088141 On ch=1 n=d#6 v=85
1088156 On ch=1 n=f#5 v=65
1088166 On ch=1 n=c3 v=58
1088201 Par ch=1 c=64 v=40
1088216 On ch=1 n=f#5 v=0
1088221 Par ch=1 c=64 v=127
1088296 On ch=1 n=d#6 v=0
1088346 On ch=1 n=c#6 v=82
1088351 On ch=1 n=c#3 v=55
1088361 On ch=1 n=f5 v=76
1088376 On ch=1 n=c3 v=0
1088416 On ch=1 n=f5 v=0
1088456 On ch=1 n=c#6 v=0
1088506 On ch=1 n=c6 v=90
1088511 On ch=1 n=d#5 v=70
1088521 On ch=1 n=d#3 v=47
1088571 On ch=1 n=c#3 v=0
1088576 On ch=1 n=d#5 v=0
1088586 On ch=1 n=c6 v=0
1088631 Par ch=1 c=64 v=104
1088651 Par ch=1 c=64 v=88
1088656 On ch=1 n=a#5 v=77
1088661 On ch=1 n=d#3 v=0
1088661 On ch=1 n=c#5 v=67
1088661 Par ch=1 c=64 v=104
1088671 On ch=1 n=e3 v=60
1088681 Par ch=1 c=64 v=127
1088721 On ch=1 n=e3 v=0
1088731 On ch=1 n=c#5 v=0
1088766 On ch=1 n=a#5 v=0
1088786 Par ch=1 c=64 v=56
1088801 Par ch=1 c=64 v=24
1088811 Par ch=1 c=64 v=0
1088816 On ch=1 n=g#5 v=77
1088816 On ch=1 n=f3 v=60
1088826 On ch=1 n=c5 v=65
1088856 Par ch=1 c=64 v=56
1088871 On ch=1 n=c5 v=0
1088871 Par ch=1 c=64 v=88
1088886 Par ch=1 c=64 v=104
1088901 Par ch=1 c=64 v=127
1088916 On ch=1 n=g#5 v=0
1088936 On ch=1 n=f3 v=0
1088961 On ch=1 n=f#3 v=52
1088961 On ch=1 n=f#5 v=73
1088971 On ch=1 n=a#4 v=54
1089016 On ch=1 n=f#5 v=0
1089056 On ch=1 n=a#4 v=0
1089081 Par ch=1 c=64 v=56
1089096 Par ch=1 c=64 v=0
1089101 On ch=1 n=f#3 v=0
1089121 On ch=1 n=f5 v=77
1089121 On ch=1 n=g#3 v=54
1089136 On ch=1 n=g#4 v=43
1089171 Par ch=1 c=64 v=24
1089181 On ch=1 n=g#4 v=0
1089186 Par ch=1 c=64 v=56
1089201 Par ch=1 c=64 v=104
1089216 Par ch=1 c=64 v=127
1089246 On ch=1 n=f5 v=0
1089266 On ch=1 n=g#3 v=0
1089271 On ch=1 n=c4 v=69
1089281 On ch=1 n=d#5 v=70
1089286 On ch=1 n=f#4 v=55
1089301 On ch=1 n=c4 v=0
1089341 On ch=1 n=f#4 v=0
1089436 On ch=1 n=d#5 v=0
1089486 On ch=1 n=c#4 v=51
1089486 On ch=1 n=c#5 v=71
1089496 Par ch=1 c=64 v=104
1089511 Par ch=1 c=64 v=72
1089521 On ch=1 n=a#4 v=31
1089526 Par ch=1 c=64 v=24
1089541 Par ch=1 c=64 v=0
1089656 On ch=1 n=g#4 v=57
1089666 On ch=1 n=a#4 v=0
1089676 Par ch=1 c=64 v=24
1089691 Par ch=1 c=64 v=56
1089706 Par ch=1 c=64 v=104
1089721 Par ch=1 c=64 v=127
1089781 On ch=1 n=g#4 v=0
1089791 Par ch=1 c=64 v=72
1089806 Par ch=1 c=64 v=24
1089821 Par ch=1 c=64 v=0
1089831 On ch=1 n=f#4 v=51
1089851 On ch=1 n=a#5 v=73
1089866 Par ch=1 c=64 v=40
1089881 Par ch=1 c=64 v=72
1089896 Par ch=1 c=64 v=127
1089906 On ch=1 n=c#5 v=0
1089921 On ch=1 n=c#4 v=0
1089951 On ch=1 n=f#4 v=0
1089986 On ch=1 n=g#5 v=75
1089991 On ch=1 n=a#5 v=0
1089996 On ch=1 n=f4 v=61
1090101 On ch=1 n=f4 v=0
1090106 Par ch=1 c=64 v=104
1090121 Par ch=1 c=64 v=40
1090136 Par ch=1 c=64 v=0
1090146 On ch=1 n=g#5 v=0
1090151 On ch=1 n=f#5 v=69
1090161 On ch=1 n=d#4 v=55
1090161 On ch=1 n=g#3 v=50
1090251 Par ch=1 c=64 v=24
1090266 Par ch=1 c=64 v=56
1090286 On ch=1 n=g#3 v=0
1090286 Par ch=1 c=64 v=88
1090291 On ch=1 n=d#4 v=0
1090296 On ch=1 n=f#5 v=0
1090296 Par ch=1 c=64 v=104
1090311 On ch=1 n=f5 v=79
1090331 On ch=1 n=f4 v=55
1090401 Par ch=1 c=64 v=72
1090456 On ch=1 n=f5 v=0
1090471 On ch=1 n=f#4 v=54
1090476 On ch=1 n=f4 v=0
1090476 On ch=1 n=d#5 v=69
1090551 Par ch=1 c=64 v=88
1090581 On ch=1 n=d#5 v=0
1090596 On ch=1 n=f#4 v=0
1090626 On ch=1 n=f5 v=74
1090636 On ch=1 n=g#4 v=43
1090656 Par ch=1 c=64 v=104
1090761 On ch=1 n=g#4 v=0
1090761 Par ch=1 c=64 v=72
1090776 Par ch=1 c=64 v=40
1090786 Par ch=1 c=64 v=0
1090791 On ch=1 n=f5 v=0
1090801 On ch=1 n=c#5 v=65
1090801 On ch=1 n=f#4 v=48
1090836 On ch=1 n=c#4 v=49
1090941 On ch=1 n=f#4 v=0
1090966 On ch=1 n=f4 v=62
1090966 Par ch=1 c=64 v=24
1090976 On ch=1 n=c#4 v=0
1090981 Par ch=1 c=64 v=56
1090996 Par ch=1 c=64 v=88
1091011 Par ch=1 c=64 v=104
1091026 Par ch=1 c=64 v=127
1091111 On ch=1 n=f4 v=0
1091121 On ch=1 n=c#5 v=0
1091126 On ch=1 n=d#4 v=55
1091216 On ch=1 n=d#4 v=0
1091271 On ch=1 n=c#4 v=53
1091391 On ch=1 n=c#4 v=0
1091411 Par ch=1 c=64 v=104
1091426 Par ch=1 c=64 v=88
1091441 On ch=1 n=d#5 v=78
1091441 Par ch=1 c=64 v=72
1091451 On ch=1 n=a#4 v=58
1091456 Par ch=1 c=64 v=56
1091471 Par ch=1 c=64 v=0
1091481 On ch=1 n=c4 v=47
1091561 On ch=1 n=a#4 v=0
1091606 Par ch=1 c=64 v=40
1091621 Par ch=1 c=64 v=88
1091636 On ch=1 n=g#4 v=53
1091636 Par ch=1 c=64 v=127
1091741 On ch=1 n=g#4 v=0
1091796 On ch=1 n=g4 v=50
1091866 On ch=1 n=g4 v=0
1091891 On ch=1 n=d#5 v=0
1091936 On ch=1 n=f#4 v=56
1091996 On ch=1 n=f#4 v=0
1092081 On ch=1 n=c4 v=0
1092091 Par ch=1 c=64 v=72
1092096 On ch=1 n=f5 v=81
1092106 On ch=1 n=c#4 v=58
1092106 Par ch=1 c=64 v=0
1092111 On ch=1 n=f4 v=57
1092201 On ch=1 n=f4 v=0
1092211 Par ch=1 c=64 v=56
1092221 On ch=1 n=c#4 v=0
1092226 Par ch=1 c=64 v=104
1092241 Par ch=1 c=64 v=127
1092256 On ch=1 n=d#5 v=60
1092271 On ch=1 n=c4 v=63
1092386 On ch=1 n=c4 v=0
1092386 On ch=1 n=f5 v=0
1092411 On ch=1 n=c#5 v=65
1092436 On ch=1 n=d#5 v=0
1092436 On ch=1 n=a#3 v=48
1092526 On ch=1 n=a#3 v=0
1092531 On ch=1 n=c#5 v=0
1092561 On ch=1 n=c5 v=80
1092566 On ch=1 n=g#3 v=48
1092666 On ch=1 n=c5 v=0
1092726 On ch=1 n=g#3 v=0
1092731 Par ch=1 c=64 v=104
1092741 On ch=1 n=g5 v=86
1092746 Par ch=1 c=64 v=40
1092761 On ch=1 n=b4 v=65
1092761 Par ch=1 c=64 v=0
1092776 On ch=1 n=g3 v=53
1092786 On ch=1 n=d4 v=49
1092866 Par ch=1 c=64 v=56
1092881 Par ch=1 c=64 v=127
1092906 On ch=1 n=f5 v=82
1092946 On ch=1 n=g3 v=0
1092976 On ch=1 n=b4 v=0
1093016 On ch=1 n=g5 v=0
1093026 On ch=1 n=d4 v=0
1093066 On ch=1 n=e5 v=82
1093071 On ch=1 n=f5 v=0
1093201 On ch=1 n=e5 v=0
1093206 On ch=1 n=d5 v=87
1093271 On ch=1 n=c3 v=43
1093276 On ch=1 n=d5 v=0
1093401 On ch=1 n=e4 v=40
1093431 Par ch=1 c=64 v=104
1093436 On ch=1 n=c6 v=93
1093441 On ch=1 n=c5 v=70
1093446 Par ch=1 c=64 v=40
1093461 Par ch=1 c=64 v=0
1093531 Par ch=1 c=64 v=24
1093551 Par ch=1 c=64 v=88
1093561 Par ch=1 c=64 v=127
1093571 On ch=1 n=c5 v=0
1093596 On ch=1 n=a#5 v=77
1093626 On ch=1 n=c3 v=0
1093641 On ch=1 n=c6 v=0
1093651 On ch=1 n=e4 v=0
1093741 On ch=1 n=g#5 v=75
1093776 On ch=1 n=a#5 v=0
1093866 On ch=1 n=g#5 v=0
1093891 On ch=1 n=g5 v=77
1093941 On ch=1 n=g5 v=0
1094076 On ch=1 n=f5 v=78
1094076 On ch=1 n=c4 v=44
1094076 On ch=1 n=f4 v=40
1094081 On ch=1 n=a#4 v=71
1094086 On ch=1 n=f3 v=42
1094101 Par ch=1 c=64 v=104
1094111 Par ch=1 c=64 v=40
1094126 Par ch=1 c=64 v=0
1094211 On ch=1 n=a#4 v=0
1094216 Par ch=1 c=64 v=56
1094231 On ch=1 n=g#4 v=69
1094231 Par ch=1 c=64 v=104
1094246 Par ch=1 c=64 v=127
1094291 On ch=1 n=f4 v=0
1094341 On ch=1 n=g#4 v=0
1094421 On ch=1 n=g4 v=66
1094426 Par ch=1 c=64 v=88
1094441 Par ch=1 c=64 v=0
1094531 Par ch=1 c=64 v=24
1094546 Par ch=1 c=64 v=72
1094556 On ch=1 n=g4 v=0
1094556 On ch=1 n=f3 v=0
1094556 Par ch=1 c=64 v=104
1094566 On ch=1 n=c4 v=0
1094571 Par ch=1 c=64 v=127
1094621 On ch=1 n=f4 v=68
1094686 On ch=1 n=f4 v=0
1094841 On ch=1 n=a#4 v=58
1094841 Par ch=1 c=64 v=104
1094851 On ch=1 n=c#4 v=51
1094856 Par ch=1 c=64 v=56
1094871 Par ch=1 c=64 v=0
1094951 On ch=1 n=f5 v=0
1095021 Par ch=1 c=64 v=40
1095036 Par ch=1 c=64 v=88
1095046 On ch=1 n=g#4 v=48
1095051 Par ch=1 c=64 v=127
1095061 On ch=1 n=a#4 v=0
1095181 On ch=1 n=g#4 v=0
1095181 Par ch=1 c=64 v=104
1095196 Par ch=1 c=64 v=56
1095211 Par ch=1 c=64 v=0
1095226 On ch=1 n=a#5 v=73
1095226 On ch=1 n=f#4 v=55
1095271 Par ch=1 c=64 v=24
1095286 Par ch=1 c=64 v=72
1095301 Par ch=1 c=64 v=104
1095316 Par ch=1 c=64 v=127
1095341 On ch=1 n=a#5 v=0
1095341 On ch=1 n=c#4 v=0
1095346 On ch=1 n=f#4 v=0
1095376 On ch=1 n=g#5 v=69
1095381 On ch=1 n=f4 v=66
1095501 On ch=1 n=f4 v=0
1095526 On ch=1 n=g#5 v=0
1095526 Par ch=1 c=64 v=56
1095536 Par ch=1 c=64 v=0
1095541 On ch=1 n=f#5 v=67
1095546 On ch=1 n=d#4 v=58
1095671 Par ch=1 c=64 v=24
1095676 On ch=1 n=f#5 v=0
1095686 Par ch=1 c=64 v=56
1095691 On ch=1 n=d#4 v=0
1095691 On ch=1 n=f5 v=76
1095701 Par ch=1 c=64 v=88
1095706 On ch=1 n=f4 v=60
1095731 Par ch=1 c=64 v=104
1095776 Par ch=1 c=64 v=127
1095801 On ch=1 n=f5 v=0
1095851 On ch=1 n=d#5 v=69
1095856 On ch=1 n=f#4 v=54
1095881 On ch=1 n=f4 v=0
1095966 On ch=1 n=f#4 v=0
1095966 On ch=1 n=d#5 v=0
1096001 On ch=1 n=f5 v=70
1096006 On ch=1 n=g#4 v=50
1096116 Par ch=1 c=64 v=88
1096121 On ch=1 n=g#4 v=0
1096131 Par ch=1 c=64 v=72
1096136 On ch=1 n=f5 v=0
1096146 Par ch=1 c=64 v=56
1096161 Par ch=1 c=64 v=0
1096171 On ch=1 n=f#4 v=47
1096186 On ch=1 n=c#5 v=63
1096191 On ch=1 n=c#4 v=49
1096311 On ch=1 n=f#4 v=0
1096341 On ch=1 n=c#4 v=0
1096346 On ch=1 n=f4 v=59
1096371 Par ch=1 c=64 v=40
1096386 Par ch=1 c=64 v=72
1096401 Par ch=1 c=64 v=88
1096431 Par ch=1 c=64 v=104
1096476 Par ch=1 c=64 v=127
1096486 On ch=1 n=f4 v=0
1096511 On ch=1 n=d#4 v=53
1096541 On ch=1 n=c#5 v=0
1096626 On ch=1 n=d#4 v=0
1096661 On ch=1 n=c#4 v=51
1096796 On ch=1 n=c#4 v=0
1096836 On ch=1 n=d#5 v=69
1096846 On ch=1 n=a#4 v=51
1096866 On ch=1 n=c4 v=51
1096876 Par ch=1 c=64 v=72
1096891 Par ch=1 c=64 v=24
1096906 Par ch=1 c=64 v=0
1096961 On ch=1 n=a#4 v=0
1097006 Par ch=1 c=64 v=24
1097011 On ch=1 n=g#4 v=59
1097021 Par ch=1 c=64 v=72
1097036 Par ch=1 c=64 v=127
1097111 On ch=1 n=g#4 v=0
1097161 On ch=1 n=g4 v=61
1097251 On ch=1 n=g4 v=0
1097296 On ch=1 n=d#5 v=0
1097316 On ch=1 n=f#4 v=65
1097386 On ch=1 n=f#4 v=0
1097476 On ch=1 n=c4 v=0
1097481 On ch=1 n=c#4 v=62
1097486 On ch=1 n=f5 v=82
1097486 Par ch=1 c=64 v=72
1097491 On ch=1 n=f4 v=66
1097496 Par ch=1 c=64 v=0
1097571 On ch=1 n=f4 v=0
1097586 Par ch=1 c=64 v=24
1097601 On ch=1 n=c#4 v=0
1097601 Par ch=1 c=64 v=72
1097616 Par ch=1 c=64 v=104
1097631 Par ch=1 c=64 v=127
1097641 On ch=1 n=d#5 v=67
1097651 On ch=1 n=c4 v=63
1097791 On ch=1 n=c4 v=0
1097791 On ch=1 n=f5 v=0
1097801 On ch=1 n=c#5 v=67
1097821 On ch=1 n=d#5 v=0
1097826 On ch=1 n=a#3 v=46
1097921 On ch=1 n=a#3 v=0
1097931 On ch=1 n=c#5 v=0
1097966 On ch=1 n=c5 v=74
1097966 On ch=1 n=g#3 v=49
1098021 On ch=1 n=c5 v=0
1098131 On ch=1 n=g#3 v=0
1098151 Par ch=1 c=64 v=104
1098156 On ch=1 n=a#5 v=78
1098161 On ch=1 n=a#4 v=61
1098166 Par ch=1 c=64 v=56
1098171 On ch=1 n=f#3 v=49
1098176 Par ch=1 c=64 v=0
1098286 Par ch=1 c=64 v=24
1098301 Par ch=1 c=64 v=88
1098311 On ch=1 n=g#5 v=71
1098316 Par ch=1 c=64 v=127
1098356 On ch=1 n=a#5 v=0
1098406 On ch=1 n=a#4 v=0
1098471 On ch=1 n=g#5 v=0
1098481 On ch=1 n=f#3 v=0
1098486 On ch=1 n=f#5 v=77
1098631 On ch=1 n=f#5 v=0
1098631 On ch=1 n=f5 v=90
1098696 On ch=1 n=f5 v=0
1098801 Par ch=1 c=64 v=104
1098816 Par ch=1 c=64 v=40
1098831 Par ch=1 c=64 v=0
1098836 On ch=1 n=d#6 v=88
1098851 On ch=1 n=f#5 v=68
1098861 On ch=1 n=c3 v=64
1098906 On ch=1 n=f#5 v=0
1098911 Par ch=1 c=64 v=40
1098921 Par ch=1 c=64 v=104
1098936 Par ch=1 c=64 v=127
1098976 On ch=1 n=d#6 v=0
1099041 On ch=1 n=c#6 v=85
1099051 On ch=1 n=f5 v=72
1099056 On ch=1 n=c#3 v=55
1099071 On ch=1 n=c3 v=0
1099111 On ch=1 n=f5 v=0
1099141 On ch=1 n=c#6 v=0
1099201 On ch=1 n=c6 v=90
1099211 On ch=1 n=d#5 v=67
1099216 On ch=1 n=d#3 v=53
1099251 On ch=1 n=c#3 v=0
1099271 On ch=1 n=d#5 v=0
1099286 On ch=1 n=c6 v=0
1099311 Par ch=1 c=64 v=72
1099326 Par ch=1 c=64 v=24
1099336 Par ch=1 c=64 v=0
1099346 On ch=1 n=d#3 v=0
1099346 On ch=1 n=a#5 v=77
1099351 Par ch=1 c=64 v=24
1099361 On ch=1 n=c#5 v=57
1099361 On ch=1 n=e3 v=44
1099371 Par ch=1 c=64 v=40
1099381 Par ch=1 c=64 v=72
1099396 Par ch=1 c=64 v=127
1099436 On ch=1 n=c#5 v=0
1099461 On ch=1 n=a#5 v=0
1099471 Par ch=1 c=64 v=72
1099486 Par ch=1 c=64 v=24
1099501 On ch=1 n=g#5 v=76
1099501 Par ch=1 c=64 v=0
1099506 On ch=1 n=f3 v=56
1099516 Par ch=1 c=64 v=24
1099521 On ch=1 n=c5 v=63
1099531 On ch=1 n=e3 v=0
1099531 Par ch=1 c=64 v=40
1099546 Par ch=1 c=64 v=72
1099551 On ch=1 n=c5 v=0
1099561 Par ch=1 c=64 v=104
1099576 Par ch=1 c=64 v=127
1099601 On ch=1 n=g#5 v=0
1099621 Par ch=1 c=64 v=40
1099636 Par ch=1 c=64 v=0
1099641 On ch=1 n=f3 v=0
1099651 On ch=1 n=f#5 v=75
1099661 On ch=1 n=f#3 v=57
1099676 On ch=1 n=a#4 v=38
1099696 Par ch=1 c=64 v=40
1099711 Par ch=1 c=64 v=88
1099726 On ch=1 n=f#5 v=0
1099726 Par ch=1 c=64 v=104
1099741 On ch=1 n=a#4 v=0
1099741 Par ch=1 c=64 v=127
1099781 Par ch=1 c=64 v=40
1099796 Par ch=1 c=64 v=0
1099801 On ch=1 n=f#3 v=0
1099816 On ch=1 n=f5 v=73
1099826 On ch=1 n=g#3 v=65
1099841 On ch=1 n=g#4 v=54
1099856 Par ch=1 c=64 v=24
1099871 Par ch=1 c=64 v=56
1099876 On ch=1 n=g#4 v=0
1099886 Par ch=1 c=64 v=88
1099901 Par ch=1 c=64 v=127
1099931 On ch=1 n=f5 v=0
1099971 On ch=1 n=d#5 v=74
1099971 On ch=1 n=c4 v=69
1099976 On ch=1 n=g#3 v=0
1100026 On ch=1 n=c4 v=0
1100136 On ch=1 n=d#5 v=0
1100141 Par ch=1 c=64 v=104
1100156 Par ch=1 c=64 v=72
1100161 On ch=1 n=c#5 v=75
1100171 Par ch=1 c=64 v=24
1100186 On ch=1 n=c#4 v=59
1100186 Par ch=1 c=64 v=0
1100191 On ch=1 n=a#4 v=42
1100321 Par ch=1 c=64 v=40
1100326 On ch=1 n=g#4 v=60
1100331 On ch=1 n=a#4 v=0
1100336 Par ch=1 c=64 v=88
1100346 Par ch=1 c=64 v=104
1100361 Par ch=1 c=64 v=127
1100436 Par ch=1 c=64 v=40
1100441 On ch=1 n=g#4 v=0
1100451 Par ch=1 c=64 v=0
1100486 On ch=1 n=f#4 v=55
1100491 On ch=1 n=a#5 v=70
1100556 On ch=1 n=c#5 v=0
1100571 Par ch=1 c=64 v=56
1100586 Par ch=1 c=64 v=88
1100591 On ch=1 n=c#4 v=0
1100601 Par ch=1 c=64 v=104
1100616 Par ch=1 c=64 v=127
1100621 On ch=1 n=f#4 v=0
1100646 On ch=1 n=f4 v=60
1100646 On ch=1 n=g#5 v=75
1100671 On ch=1 n=a#5 v=0
1100741 On ch=1 n=f4 v=0
1100776 Par ch=1 c=64 v=72
1100791 On ch=1 n=g#5 v=0
1100791 Par ch=1 c=64 v=24
1100806 On ch=1 n=d#4 v=57
1100806 On ch=1 n=f#5 v=69
1100806 Par ch=1 c=64 v=0
1100826 On ch=1 n=g#3 v=37
1100926 Par ch=1 c=64 v=40
1100936 On ch=1 n=f#5 v=0
1100941 Par ch=1 c=64 v=72
1100946 On ch=1 n=d#4 v=0
1100956 On ch=1 n=g#3 v=0
1100956 Par ch=1 c=64 v=88
1100961 On ch=1 n=f5 v=74
1100971 Par ch=1 c=64 v=104
1100976 On ch=1 n=f4 v=60
1101031 Par ch=1 c=64 v=127
1101091 On ch=1 n=f5 v=0
1101111 On ch=1 n=d#5 v=65
1101121 On ch=1 n=f#4 v=55
1101141 On ch=1 n=f4 v=0
1101191 On ch=1 n=d#5 v=0
1101276 On ch=1 n=f#4 v=0
1101276 On ch=1 n=f5 v=68
1101296 On ch=1 n=g#4 v=50
1101406 On ch=1 n=g#4 v=0
1101431 On ch=1 n=f5 v=0
1101431 Par ch=1 c=64 v=88
1101446 Par ch=1 c=64 v=72
1101461 On ch=1 n=c#5 v=62
1101461 On ch=1 n=f#4 v=55
1101461 Par ch=1 c=64 v=24
1101476 Par ch=1 c=64 v=0
1101491 On ch=1 n=c#4 v=44
1101606 On ch=1 n=f#4 v=0
1101626 Par ch=1 c=64 v=40
1101631 On ch=1 n=c#4 v=0
1101631 On ch=1 n=f4 v=69
1101636 Par ch=1 c=64 v=72
1101651 Par ch=1 c=64 v=88
1101666 Par ch=1 c=64 v=104
1101716 Par ch=1 c=64 v=127
1101761 On ch=1 n=f4 v=0
1101796 On ch=1 n=d#4 v=54
1101821 On ch=1 n=c#5 v=0
1101891 On ch=1 n=d#4 v=0
1101936 On ch=1 n=c#4 v=57
1102061 On ch=1 n=c#4 v=0
1102116 Par ch=1 c=64 v=88
1102126 On ch=1 n=d#5 v=74
1102131 Par ch=1 c=64 v=72
1102136 On ch=1 n=a#4 v=55
1102146 Par ch=1 c=64 v=56
1102161 Par ch=1 c=64 v=0
1102166 On ch=1 n=c4 v=41
1102241 On ch=1 n=a#4 v=0
1102291 Par ch=1 c=64 v=56
1102306 On ch=1 n=g#4 v=57
1102306 Par ch=1 c=64 v=88
1102321 Par ch=1 c=64 v=127
1102411 On ch=1 n=g#4 v=0
1102476 On ch=1 n=g4 v=48
1102556 On ch=1 n=g4 v=0
1102586 On ch=1 n=d#5 v=0
1102616 On ch=1 n=f#4 v=62
1102681 On ch=1 n=f#4 v=0
1102766 Par ch=1 c=64 v=72
1102781 On ch=1 n=c4 v=0
1102781 On ch=1 n=f5 v=82
1102781 Par ch=1 c=64 v=24
1102786 On ch=1 n=c#4 v=64
1102791 On ch=1 n=f4 v=64
1102796 Par ch=1 c=64 v=0
1102886 Par ch=1 c=64 v=56
1102901 Par ch=1 c=64 v=104
1102906 On ch=1 n=c#4 v=0
1102916 Par ch=1 c=64 v=127
1102946 On ch=1 n=d#5 v=60
1102961 On ch=1 n=c4 v=63
1103006 On ch=1 n=f4 v=0
1103086 On ch=1 n=c4 v=0
1103096 On ch=1 n=d#5 v=0
1103111 On ch=1 n=c#5 v=57
1103116 On ch=1 n=a#3 v=53
1103136 On ch=1 n=f5 v=0
1103226 On ch=1 n=c#5 v=0
1103231 On ch=1 n=a#3 v=0
1103276 On ch=1 n=g#3 v=44
1103286 On ch=1 n=c5 v=72
1103371 On ch=1 n=c5 v=0
1103431 On ch=1 n=g#3 v=0
1103446 On ch=1 n=g5 v=84
1103451 Par ch=1 c=64 v=88
1103461 On ch=1 n=b4 v=66
1103466 Par ch=1 c=64 v=40
1103471 On ch=1 n=d4 v=57
1103476 On ch=1 n=g3 v=58
1103476 Par ch=1 c=64 v=0
1103586 Par ch=1 c=64 v=40
1103601 Par ch=1 c=64 v=104
1103606 On ch=1 n=f5 v=80
1103616 Par ch=1 c=64 v=127
1103621 On ch=1 n=g3 v=0
1103676 On ch=1 n=d4 v=0
1103706 On ch=1 n=b4 v=0
1103756 On ch=1 n=g5 v=0
1103776 On ch=1 n=e5 v=84
1103781 On ch=1 n=f5 v=0
1103921 On ch=1 n=e5 v=0
1103921 On ch=1 n=d5 v=84
1103971 On ch=1 n=c3 v=48
1103996 On ch=1 n=d5 v=0
1104126 On ch=1 n=e4 v=46
1104146 On ch=1 n=c6 v=94
1104156 On ch=1 n=c5 v=68
1104161 Par ch=1 c=64 v=88
1104176 Par ch=1 c=64 v=40
1104191 Par ch=1 c=64 v=0
1104286 On ch=1 n=c5 v=0
1104296 Par ch=1 c=64 v=40
1104311 On ch=1 n=a#5 v=78
1104311 Par ch=1 c=64 v=127
1104386 On ch=1 n=c6 v=0
1104441 On ch=1 n=c3 v=0
1104456 On ch=1 n=g#5 v=76
1104471 On ch=1 n=a#5 v=0
1104511 On ch=1 n=e4 v=0
1104596 On ch=1 n=g#5 v=0
1104631 On ch=1 n=g5 v=77
1104686 On ch=1 n=g5 v=0
1104801 Par ch=1 c=64 v=88
1104816 Par ch=1 c=64 v=40
1104826 On ch=1 n=a#4 v=73
1104826 On ch=1 n=f5 v=75
1104831 On ch=1 n=f4 v=47
1104831 Par ch=1 c=64 v=0
1104846 On ch=1 n=c4 v=51
1104866 On ch=1 n=f3 v=39
1104901 Par ch=1 c=64 v=24
1104916 Par ch=1 c=64 v=72
1104936 Par ch=1 c=64 v=127
1104946 On ch=1 n=a#4 v=0
1104991 On ch=1 n=g#4 v=65
1105021 On ch=1 n=f4 v=0
1105131 On ch=1 n=g#4 v=0
1105141 Par ch=1 c=64 v=88
1105156 Par ch=1 c=64 v=24
1105171 Par ch=1 c=64 v=0
1105181 On ch=1 n=g4 v=66
1105246 Par ch=1 c=64 v=24
1105261 Par ch=1 c=64 v=72
1105276 On ch=1 n=g4 v=0
1105276 Par ch=1 c=64 v=127
1105396 On ch=1 n=f#4 v=55
1105396 Par ch=1 c=64 v=72
1105411 Par ch=1 c=64 v=24
1105426 Par ch=1 c=64 v=0
1105531 On ch=1 n=f#4 v=0
1105541 On ch=1 n=c4 v=0
1105551 On ch=1 n=f3 v=0
1105571 On ch=1 n=f5 v=0
1105633 On ch=1 n=f4 v=66
1105633 On ch=1 n=g#6 v=86
1105668 On ch=1 n=f4 v=0
1105763 On ch=1 n=g#6 v=0
1105786 On ch=1 n=c6 v=83
1105791 On ch=1 n=c5 v=59
1105876 On ch=1 n=c5 v=0
1105901 On ch=1 n=c6 v=0
1105936 On ch=1 n=b5 v=73
1105946 On ch=1 n=f5 v=49
1106016 On ch=1 n=f5 v=0
1106041 On ch=1 n=b5 v=0
1106076 On ch=1 n=c6 v=84
1106076 On ch=1 n=g#5 v=52
1106136 On ch=1 n=g#5 v=0
1106171 On ch=1 n=c6 v=0
1106226 On ch=1 n=b5 v=83
1106236 On ch=1 n=g5 v=66
1106266 On ch=1 n=f#6 v=32
1106301 On ch=1 n=f#6 v=0
1106311 On ch=1 n=g5 v=0
1106326 On ch=1 n=b5 v=0
1106376 On ch=1 n=d6 v=85
1106386 On ch=1 n=d5 v=67
1106471 On ch=1 n=d6 v=0
1106476 On ch=1 n=d5 v=0
1106526 On ch=1 n=g6 v=85
1106526 On ch=1 n=b4 v=61
1106621 On ch=1 n=g6 v=0
1106656 On ch=1 n=b4 v=0
1106666 On ch=1 n=f6 v=87
1106671 On ch=1 n=g4 v=64
1106696 On ch=1 n=g4 v=0
1106776 On ch=1 n=f6 v=0
1106816 On ch=1 n=e6 v=87
1106831 On ch=1 n=c4 v=75
1106906 On ch=1 n=c4 v=0
1106931 On ch=1 n=e6 v=0
1106971 On ch=1 n=c#6 v=72
1106981 On ch=1 n=g4 v=59
1107061 On ch=1 n=g4 v=0
1107091 On ch=1 n=c#6 v=0
1107116 On ch=1 n=g6 v=84
1107121 On ch=1 n=c5 v=63
1107131 On ch=1 n=c6 v=70
1107201 On ch=1 n=c6 v=0
1107226 On ch=1 n=c5 v=0
1107261 On ch=1 n=g6 v=0
1107261 On ch=1 n=a#5 v=77
1107276 On ch=1 n=e5 v=35
1107326 On ch=1 n=e5 v=0
1107341 On ch=1 n=a#5 v=0
1107411 On ch=1 n=f6 v=83
1107426 On ch=1 n=a#5 v=77
1107431 On ch=1 n=f5 v=70
1107506 On ch=1 n=a#5 v=0
1107546 On ch=1 n=f5 v=0
1107576 On ch=1 n=g#5 v=67
1107581 On ch=1 n=c5 v=61
1107656 On ch=1 n=g#5 v=0
1107681 On ch=1 n=c5 v=0
1107716 On ch=1 n=a#4 v=55
1107721 On ch=1 n=g5 v=59
1107821 On ch=1 n=f6 v=0
1107856 On ch=1 n=g5 v=0
1107856 On ch=1 n=g#4 v=60
1107861 On ch=1 n=a#4 v=0
1107866 On ch=1 n=f5 v=70
1107901 On ch=1 n=f5 v=0
1107961 On ch=1 n=g#4 v=0
1108026 On ch=1 n=g#6 v=92
1108036 On ch=1 n=f4 v=68
1108141 On ch=1 n=g#6 v=0
1108171 On ch=1 n=c6 v=86
1108186 On ch=1 n=c5 v=64
1108221 On ch=1 n=f4 v=0
1108281 On ch=1 n=c5 v=0
1108296 On ch=1 n=c6 v=0
1108321 On ch=1 n=b5 v=79
1108326 On ch=1 n=f5 v=59
1108416 On ch=1 n=f5 v=0
1108421 On ch=1 n=b5 v=0
1108456 On ch=1 n=c6 v=89
1108456 On ch=1 n=g#5 v=60
1108511 On ch=1 n=g#5 v=0
1108546 On ch=1 n=c6 v=0
1108606 On ch=1 n=b5 v=88
1108616 On ch=1 n=g5 v=70
1108701 On ch=1 n=g5 v=0
1108721 On ch=1 n=b5 v=0
1108746 On ch=1 n=d5 v=67
1108746 On ch=1 n=d6 v=86
1108836 On ch=1 n=d5 v=0
1108846 On ch=1 n=d6 v=0
1108896 On ch=1 n=b4 v=62
1108901 On ch=1 n=g6 v=83
1108991 On ch=1 n=g6 v=0
1109016 On ch=1 n=b4 v=0
1109031 On ch=1 n=g4 v=68
1109036 On ch=1 n=f6 v=87
1109056 On ch=1 n=g4 v=0
1109151 On ch=1 n=f6 v=0
1109186 On ch=1 n=e6 v=86
1109196 On ch=1 n=c4 v=76
1109271 On ch=1 n=c4 v=0
1109306 On ch=1 n=e6 v=0
1109336 On ch=1 n=c#6 v=77
1109346 On ch=1 n=g4 v=64
1109426 On ch=1 n=g4 v=0
1109466 On ch=1 n=c#6 v=0
1109491 On ch=1 n=g6 v=84
1109491 On ch=1 n=c5 v=62
1109501 On ch=1 n=c6 v=74
1109571 On ch=1 n=c6 v=0
1109596 On ch=1 n=c5 v=0
1109636 On ch=1 n=g6 v=0
1109641 On ch=1 n=a#5 v=75
1109641 On ch=1 n=e5 v=47
1109686 On ch=1 n=e5 v=0
1109716 On ch=1 n=a#5 v=0
1109791 On ch=1 n=f6 v=87
1109806 On ch=1 n=a#5 v=75
1109811 On ch=1 n=f5 v=68
1109876 On ch=1 n=a#5 v=0
1109951 On ch=1 n=g#5 v=67
1109961 On ch=1 n=f5 v=0
1109966 On ch=1 n=c5 v=51
1110026 On ch=1 n=g#5 v=0
1110071 On ch=1 n=c5 v=0
1110071 On ch=1 n=f6 v=0
1110091 On ch=1 n=a#4 v=52
1110096 On ch=1 n=g5 v=66
1110231 On ch=1 n=g5 v=0
1110231 On ch=1 n=g#4 v=61
1110241 On ch=1 n=f5 v=76
1110256 On ch=1 n=a#4 v=0
1110306 On ch=1 n=f5 v=0
1110306 On ch=1 n=g#4 v=0
1110391 On ch=1 n=d#5 v=79
1110491 On ch=1 n=d#5 v=0
1110536 On ch=1 n=g4 v=82
1110681 On ch=1 n=g6 v=90
1110686 On ch=1 n=d#6 v=67
1110686 On ch=1 n=g5 v=67
1110691 On ch=1 n=g4 v=0
1110691 On ch=1 n=f#4 v=76
1110691 On ch=1 n=c6 v=71
1110816 On ch=1 n=f#4 v=0
1110821 On ch=1 n=g4 v=74
1110876 On ch=1 n=g5 v=0
1110876 On ch=1 n=d#6 v=0
1110916 On ch=1 n=g4 v=0
1110921 On ch=1 n=c6 v=0
1110966 On ch=1 n=f#4 v=79
1110986 On ch=1 n=c4 v=87
1110996 On ch=1 n=g6 v=0
1111061 On ch=1 n=c4 v=0
1111086 On ch=1 n=f#4 v=0
1111126 On ch=1 n=a4 v=87
1111236 On ch=1 n=a4 v=0
1111271 On ch=1 n=a6 v=93
1111271 On ch=1 n=d5 v=82
1111276 On ch=1 n=c6 v=78
1111281 On ch=1 n=a5 v=72
1111281 On ch=1 n=f#6 v=64
1111286 On ch=1 n=d6 v=65
1111391 On ch=1 n=d5 v=0
1111411 On ch=1 n=c5 v=87
1111441 On ch=1 n=d6 v=0
1111481 On ch=1 n=c5 v=0
1111486 On ch=1 n=a5 v=0
1111501 On ch=1 n=c6 v=0
1111526 On ch=1 n=f#6 v=0
1111576 On ch=1 n=b4 v=89
1111586 On ch=1 n=c4 v=84
1111676 On ch=1 n=b4 v=0
1111696 On ch=1 n=a6 v=0
1111726 On ch=1 n=g#4 v=88
1111796 On ch=1 n=c4 v=0
1111826 On ch=1 n=g#4 v=0
1111871 On ch=1 n=b6 v=95
1111871 On ch=1 n=g4 v=85
1111881 On ch=1 n=d6 v=80
1111881 On ch=1 n=g6 v=78
1111881 On ch=1 n=b5 v=78
1111881 On ch=1 n=f6 v=74
1111971 On ch=1 n=g4 v=0
1112016 On ch=1 n=f4 v=88
1112086 On ch=1 n=f4 v=0
1112086 On ch=1 n=f6 v=0
1112086 On ch=1 n=d6 v=0
1112091 On ch=1 n=b5 v=0
1112126 On ch=1 n=g6 v=0
1112146 On ch=1 n=b6 v=0
1112176 On ch=1 n=f4 v=94
1112181 On ch=1 n=c4 v=92
1112261 On ch=1 n=f4 v=0
1112321 On ch=1 n=d#4 v=88
1112361 On ch=1 n=c4 v=0
1112461 On ch=1 n=d#4 v=0
1112466 On ch=1 n=c7 v=99
1112471 On ch=1 n=d4 v=86
1112476 On ch=1 n=d#6 v=69
1112476 On ch=1 n=g6 v=74
1112486 On ch=1 n=c6 v=66
1112611 On ch=1 n=c4 v=88
1112636 On ch=1 n=d4 v=0
1112676 On ch=1 n=c4 v=0
1112686 On ch=1 n=c7 v=0
1112696 On ch=1 n=g6 v=0
1112701 On ch=1 n=d#6 v=0
1112746 On ch=1 n=c6 v=0
1112776 On ch=1 n=d#5 v=85
1112851 On ch=1 n=d#5 v=0
1112911 On ch=1 n=g4 v=81
1113016 On ch=1 n=g4 v=0
1113061 On ch=1 n=g6 v=92
1113061 On ch=1 n=d#6 v=68
1113066 On ch=1 n=g5 v=70
1113071 On ch=1 n=f#4 v=67
1113071 On ch=1 n=c6 v=74
1113176 On ch=1 n=f#4 v=0
1113206 On ch=1 n=g4 v=84
1113271 On ch=1 n=g4 v=0
1113296 On ch=1 n=d#6 v=0
1113301 On ch=1 n=g5 v=0
1113321 On ch=1 n=c6 v=0
1113341 On ch=1 n=g6 v=0
1113351 On ch=1 n=f#4 v=79
1113366 On ch=1 n=c4 v=86
1113426 On ch=1 n=c4 v=0
1113431 On ch=1 n=f#4 v=0
1113506 On ch=1 n=a4 v=88
1113586 On ch=1 n=a4 v=0
1113646 On ch=1 n=d5 v=80
1113651 On ch=1 n=a6 v=94
1113651 On ch=1 n=c6 v=80
1113656 On ch=1 n=a5 v=73
1113656 On ch=1 n=f#6 v=67
1113666 On ch=1 n=d6 v=64
1113776 On ch=1 n=d5 v=0
1113786 On ch=1 n=c5 v=85
1113851 On ch=1 n=c5 v=0
1113876 On ch=1 n=d6 v=0
1113936 On ch=1 n=a5 v=0
1113941 On ch=1 n=c6 v=0
1113941 On ch=1 n=b4 v=87
1113956 On ch=1 n=f#6 v=0
1113956 On ch=1 n=c4 v=86
1114006 On ch=1 n=a6 v=0
1114036 On ch=1 n=b4 v=0
1114091 On ch=1 n=g#4 v=85
1114206 On ch=1 n=g#4 v=0
1114231 On ch=1 n=b6 v=96
1114241 On ch=1 n=g4 v=81
1114246 On ch=1 n=d6 v=71
1114251 On ch=1 n=b5 v=64
1114251 On ch=1 n=g6 v=70
1114256 On ch=1 n=f6 v=64
1114341 On ch=1 n=g4 v=0
1114341 On ch=1 n=c4 v=0
1114381 On ch=1 n=f4 v=83
1114416 On ch=1 n=f6 v=0
1114431 On ch=1 n=d6 v=0
1114436 On ch=1 n=f4 v=0
1114456 On ch=1 n=b5 v=0
1114486 On ch=1 n=g6 v=0
1114536 On ch=1 n=f4 v=92
1114541 On ch=1 n=b6 v=0
1114551 On ch=1 n=c4 v=75
1114626 On ch=1 n=f4 v=0
1114676 On ch=1 n=d#4 v=80
1114761 On ch=1 n=c4 v=0
1114836 On ch=1 n=d#4 v=0
1114836 On ch=1 n=c7 v=100
1114836 On ch=1 n=d4 v=87
1114846 On ch=1 n=d#6 v=64
1114851 On ch=1 n=c6 v=66
1114851 On ch=1 n=g6 v=67
1114961 On ch=1 n=g6 v=0
1114966 On ch=1 n=c7 v=0
1114976 On ch=1 n=d#6 v=0
1114981 On ch=1 n=c4 v=82
1114991 On ch=1 n=d4 v=0
1115006 On ch=1 n=c4 v=0
1115016 On ch=1 n=c6 v=0
1115126 On ch=1 n=g#6 v=85
1115141 On ch=1 n=f4 v=72
1115231 On ch=1 n=f4 v=0
1115231 On ch=1 n=g#6 v=0
1115281 On ch=1 n=c6 v=86
1115286 On ch=1 n=c5 v=66
1115376 On ch=1 n=c5 v=0
1115386 On ch=1 n=c6 v=0
1115421 On ch=1 n=f5 v=65
1115426 On ch=1 n=b5 v=73
1115516 On ch=1 n=f5 v=0
1115526 On ch=1 n=b5 v=0
1115551 On ch=1 n=g#5 v=65
1115556 On ch=1 n=c6 v=87
1115611 On ch=1 n=g#5 v=0
1115646 On ch=1 n=c6 v=0
1115701 On ch=1 n=g5 v=74
1115701 On ch=1 n=b5 v=86
1115786 On ch=1 n=g5 v=0
1115816 On ch=1 n=b5 v=0
1115836 On ch=1 n=d6 v=86
1115846 On ch=1 n=d5 v=67
1115931 On ch=1 n=d6 v=0
1115941 On ch=1 n=d5 v=0
1115981 On ch=1 n=b4 v=63
1115981 On ch=1 n=g6 v=82
1116081 On ch=1 n=g6 v=0
1116106 On ch=1 n=b4 v=0
1116116 On ch=1 n=g4 v=72
1116131 On ch=1 n=f6 v=82
1116161 On ch=1 n=g4 v=0
1116231 On ch=1 n=f6 v=0
1116276 On ch=1 n=e6 v=85
1116281 On ch=1 n=c4 v=81
1116371 On ch=1 n=e6 v=0
1116381 On ch=1 n=c4 v=0
1116411 On ch=1 n=c#6 v=74
1116426 On ch=1 n=g4 v=63
1116511 On ch=1 n=g4 v=0
1116541 On ch=1 n=c#6 v=0
1116561 On ch=1 n=c5 v=63
1116561 On ch=1 n=g6 v=84
1116576 On ch=1 n=c6 v=74
1116646 On ch=1 n=c6 v=0
1116691 On ch=1 n=g6 v=0
1116696 On ch=1 n=c5 v=0
1116706 On ch=1 n=a#5 v=79
1116716 On ch=1 n=e5 v=58
1116771 On ch=1 n=e5 v=0
1116786 On ch=1 n=a#5 v=0
1116861 On ch=1 n=f6 v=88
1116871 On ch=1 n=f5 v=74
1116876 On ch=1 n=a#5 v=73
1116936 On ch=1 n=a#5 v=0
1116981 On ch=1 n=f5 v=0
1117016 On ch=1 n=g#5 v=65
1117016 On ch=1 n=c5 v=60
1117111 On ch=1 n=g#5 v=0
1117116 On ch=1 n=c5 v=0
1117151 On ch=1 n=a#4 v=53
1117161 On ch=1 n=g5 v=64
1117201 On ch=1 n=f6 v=0
1117251 On ch=1 n=g5 v=0
1117291 On ch=1 n=a#4 v=0
1117296 On ch=1 n=f5 v=74
1117296 On ch=1 n=g#4 v=57
1117351 On ch=1 n=f5 v=0
1117391 On ch=1 n=g#4 v=0
1117446 On ch=1 n=g#6 v=80
1117466 On ch=1 n=f4 v=66
1117571 On ch=1 n=g#6 v=0
1117591 On ch=1 n=c6 v=85
1117596 On ch=1 n=c5 v=63
1117626 On ch=1 n=f4 v=0
1117696 On ch=1 n=c5 v=0
1117706 On ch=1 n=c6 v=0
1117736 On ch=1 n=b5 v=81
1117736 On ch=1 n=f5 v=63
1117836 On ch=1 n=f5 v=0
1117841 On ch=1 n=b5 v=0
1117866 On ch=1 n=g#5 v=67
1117881 On ch=1 n=c6 v=88
1117936 On ch=1 n=g#5 v=0
1117971 On ch=1 n=c6 v=0
1118026 On ch=1 n=b5 v=84
1118031 On ch=1 n=g5 v=74
1118126 On ch=1 n=g5 v=0
1118136 On ch=1 n=b5 v=0
1118166 On ch=1 n=d6 v=86
1118171 On ch=1 n=d5 v=68
1118266 On ch=1 n=d6 v=0
1118271 On ch=1 n=d5 v=0
1118296 On ch=1 n=b4 v=61
1118306 On ch=1 n=g6 v=83
1118416 On ch=1 n=g6 v=0
1118451 On ch=1 n=b4 v=0
1118451 On ch=1 n=g4 v=72
1118456 On ch=1 n=f6 v=82
1118481 On ch=1 n=g4 v=0
1118571 On ch=1 n=f6 v=0
1118606 On ch=1 n=e6 v=84
1118616 On ch=1 n=c4 v=74
1118701 On ch=1 n=c4 v=0
1118706 On ch=1 n=e6 v=0
1118746 On ch=1 n=c#6 v=77
1118756 On ch=1 n=g4 v=65
1118836 On ch=1 n=g4 v=0
1118866 On ch=1 n=c#6 v=0
1118891 On ch=1 n=g6 v=83
1118891 On ch=1 n=c5 v=65
1118906 On ch=1 n=c6 v=72
1118971 On ch=1 n=c6 v=0
1119001 On ch=1 n=g6 v=0
1119036 On ch=1 n=c5 v=0
1119041 On ch=1 n=a#5 v=80
1119041 On ch=1 n=e5 v=52
1119096 On ch=1 n=e5 v=0
1119121 On ch=1 n=a#5 v=0
1119186 On ch=1 n=f6 v=87
1119196 On ch=1 n=f5 v=71
1119201 On ch=1 n=a#5 v=64
1119271 On ch=1 n=a#5 v=0
1119316 On ch=1 n=f5 v=0
1119351 On ch=1 n=c5 v=66
1119356 On ch=1 n=g#5 v=67
1119426 On ch=1 n=g#5 v=0
1119441 On ch=1 n=c5 v=0
1119481 On ch=1 n=a#4 v=49
1119486 On ch=1 n=f6 v=0
1119486 On ch=1 n=g5 v=62
1119596 On ch=1 n=g5 v=0
1119616 On ch=1 n=g#4 v=60
1119626 On ch=1 n=a#4 v=0
1119626 On ch=1 n=f5 v=71
1119676 On ch=1 n=g#4 v=0
1119701 On ch=1 n=f5 v=0
1119786 On ch=1 n=c4 v=70
1119791 On ch=1 n=e6 v=82
1119941 On ch=1 n=e6 v=0
1119946 On ch=1 n=c4 v=0
1119946 On ch=1 n=c#6 v=72
1119946 On ch=1 n=g4 v=62
1120041 On ch=1 n=g4 v=0
1120066 On ch=1 n=c#6 v=0
1120091 On ch=1 n=c5 v=62
1120091 On ch=1 n=g6 v=79
1120106 On ch=1 n=c6 v=69
1120191 On ch=1 n=c6 v=0
1120236 On ch=1 n=g6 v=0
1120236 On ch=1 n=c5 v=0
1120236 On ch=1 n=e5 v=60
1120251 On ch=1 n=a#5 v=65
1120291 On ch=1 n=e5 v=0
1120336 On ch=1 n=a#5 v=0
1120406 On ch=1 n=f6 v=79
1120421 On ch=1 n=f5 v=64
1120421 On ch=1 n=a#5 v=59
1120471 On ch=1 n=a#5 v=0
1120536 On ch=1 n=f5 v=0
1120581 On ch=1 n=c5 v=66
1120581 On ch=1 n=g#5 v=65
1120666 On ch=1 n=g#5 v=0
1120711 On ch=1 n=c5 v=0
1120731 On ch=1 n=g5 v=37
1120736 On ch=1 n=a#4 v=40
1120826 On ch=1 n=f6 v=0
1120861 On ch=1 n=g5 v=0
1120881 On ch=1 n=g#4 v=59
1120886 On ch=1 n=f5 v=69
1120901 On ch=1 n=a#4 v=0
1120941 On ch=1 n=g#4 v=0
1120976 On ch=1 n=f5 v=0
1121066 On ch=1 n=c4 v=68
1121071 On ch=1 n=e6 v=82
1121256 On ch=1 n=c#6 v=62
1121261 On ch=1 n=g4 v=56
1121266 On ch=1 n=e6 v=0
1121321 On ch=1 n=c4 v=0
1121386 On ch=1 n=g4 v=0
1121386 On ch=1 n=c#6 v=0
1121416 On ch=1 n=g6 v=74
1121426 On ch=1 n=c6 v=66
1121426 On ch=1 n=c5 v=61
1121551 On ch=1 n=c6 v=0
1121596 On ch=1 n=a#5 v=59
1121606 On ch=1 n=e5 v=63
1121641 On ch=1 n=e5 v=0
1121641 On ch=1 n=c5 v=0
1121651 On ch=1 n=g6 v=0
1121691 On ch=1 n=a#5 v=0
1121796 On ch=1 n=e6 v=80
1121826 On ch=1 n=c4 v=69
1121911 Par ch=1 c=64 v=24
1121931 Par ch=1 c=64 v=40
1121946 Par ch=1 c=64 v=56
1121961 Par ch=1 c=64 v=72
1121986 On ch=1 n=e6 v=0
1121986 On ch=1 n=c#6 v=62
1122006 Par ch=1 c=64 v=88
1122016 On ch=1 n=c4 v=0
1122026 On ch=1 n=g4 v=51
1122036 Par ch=1 c=64 v=104
1122106 Par ch=1 c=64 v=127
1122131 On ch=1 n=g4 v=0
1122141 On ch=1 n=c#6 v=0
1122166 Par ch=1 c=64 v=72
1122181 On ch=1 n=g6 v=74
1122181 Par ch=1 c=64 v=24
1122196 On ch=1 n=c5 v=58
1122196 On ch=1 n=c6 v=55
1122196 Par ch=1 c=64 v=0
1122261 Par ch=1 c=64 v=24
1122276 Par ch=1 c=64 v=56
1122281 On ch=1 n=c6 v=0
1122291 Par ch=1 c=64 v=72
1122311 Par ch=1 c=64 v=88
1122321 Par ch=1 c=64 v=104
1122346 On ch=1 n=g6 v=0
1122361 On ch=1 n=c5 v=0
1122371 Par ch=1 c=64 v=127
1122411 On ch=1 n=a#5 v=54
1122421 On ch=1 n=e5 v=57
1122481 On ch=1 n=e5 v=0
1122486 On ch=1 n=a#5 v=0
1122716 On ch=1 n=g6 v=74
1122736 Par ch=1 c=64 v=88
1122751 Par ch=1 c=64 v=56
1122766 Par ch=1 c=64 v=24
1122776 On ch=1 n=c4 v=41
1122786 Par ch=1 c=64 v=0
1122896 Par ch=1 c=64 v=56
1122911 Par ch=1 c=64 v=104
1122926 Par ch=1 c=64 v=127
1122936 On ch=1 n=g6 v=0
1122946 On ch=1 n=e6 v=64
1122986 On ch=1 n=g4 v=44
1123001 On ch=1 n=c4 v=0
1123056 On ch=1 n=e6 v=0
1123091 On ch=1 n=g4 v=0
1123141 On ch=1 n=a6 v=89
1123156 On ch=1 n=c6 v=72
1123166 On ch=1 n=c5 v=55
1123256 On ch=1 n=a6 v=0
1123291 On ch=1 n=c5 v=0
1123326 On ch=1 n=e5 v=53
1123331 On ch=1 n=a#5 v=53
1123376 On ch=1 n=c6 v=0
1123411 On ch=1 n=a#5 v=0
1123421 On ch=1 n=e5 v=0
1123516 On ch=1 n=g6 v=82
1123521 On ch=1 n=a5 v=67
1123546 On ch=1 n=f5 v=37
1123546 Par ch=1 c=64 v=88
1123561 Par ch=1 c=64 v=40
1123576 Par ch=1 c=64 v=0
1123671 On ch=1 n=a5 v=0
1123671 Par ch=1 c=64 v=40
1123686 Par ch=1 c=64 v=88
1123701 Par ch=1 c=64 v=127
1123706 On ch=1 n=g6 v=0
1123721 On ch=1 n=f6 v=76
1123726 On ch=1 n=c5 v=59
1123876 Par ch=1 c=64 v=104
1123881 On ch=1 n=c5 v=0
1123891 Par ch=1 c=64 v=56
1123906 Par ch=1 c=64 v=0
1123926 On ch=1 n=a5 v=51
1123926 On ch=1 n=a4 v=41
1123986 Par ch=1 c=64 v=56
1124001 Par ch=1 c=64 v=104
1124011 On ch=1 n=f5 v=0
1124016 Par ch=1 c=64 v=127
1124071 On ch=1 n=a5 v=0
1124086 On ch=1 n=f6 v=0
1124106 On ch=1 n=c6 v=68
1124116 On ch=1 n=a4 v=0
1124141 On ch=1 n=f4 v=39
1124171 On ch=1 n=f4 v=0
1124241 On ch=1 n=c6 v=0
1124351 On ch=1 n=f6 v=81
1124366 On ch=1 n=g5 v=53
1124391 On ch=1 n=a3 v=65
1124396 Par ch=1 c=64 v=104
1124411 Par ch=1 c=64 v=72
1124431 Par ch=1 c=64 v=0
1124556 On ch=1 n=f6 v=0
1124556 Par ch=1 c=64 v=40
1124561 On ch=1 n=e6 v=92
1124571 Par ch=1 c=64 v=88
1124581 On ch=1 n=a3 v=0
1124586 Par ch=1 c=64 v=127
1124596 On ch=1 n=e4 v=51
1124696 On ch=1 n=e4 v=0
1124731 On ch=1 n=e6 v=0
1124746 On ch=1 n=a4 v=51
1124751 On ch=1 n=g6 v=89
1124861 On ch=1 n=a4 v=0
1124891 On ch=1 n=g6 v=0
1124926 On ch=1 n=c#5 v=41
1124931 On ch=1 n=c#6 v=84
1124986 On ch=1 n=g5 v=0
1125021 On ch=1 n=c#5 v=0
1125036 On ch=1 n=c#6 v=0
1125151 On ch=1 n=e6 v=85
1125156 On ch=1 n=d5 v=50
1125171 On ch=1 n=f5 v=50
1125186 Par ch=1 c=64 v=72
1125206 Par ch=1 c=64 v=0
1125346 Par ch=1 c=64 v=24
1125361 Par ch=1 c=64 v=40
1125371 On ch=1 n=e6 v=0
1125371 On ch=1 n=d6 v=77
1125376 On ch=1 n=a4 v=56
1125381 Par ch=1 c=64 v=24
1125396 Par ch=1 c=64 v=0
1125411 On ch=1 n=f5 v=0
1125521 Par ch=1 c=64 v=72
1125536 Par ch=1 c=64 v=127
1125566 On ch=1 n=a4 v=0
1125591 On ch=1 n=f5 v=45
1125611 On ch=1 n=f4 v=41
1125626 On ch=1 n=d5 v=0
1125766 On ch=1 n=d6 v=0
1125801 On ch=1 n=f4 v=0
1125811 On ch=1 n=a5 v=70
1125826 On ch=1 n=d4 v=38
1125836 On ch=1 n=f5 v=0
1125876 On ch=1 n=a5 v=0
1125886 On ch=1 n=d4 v=0
1126126 On ch=1 n=c6 v=69
1126146 On ch=1 n=d5 v=38
1126171 On ch=1 n=g3 v=54
1126201 Par ch=1 c=64 v=40
1126216 Par ch=1 c=64 v=0
1126346 Par ch=1 c=64 v=72
1126361 On ch=1 n=a#5 v=77
1126361 Par ch=1 c=64 v=127
1126366 On ch=1 n=c6 v=0
1126371 On ch=1 n=d4 v=55
1126436 On ch=1 n=g3 v=0
1126531 On ch=1 n=d4 v=0
1126586 On ch=1 n=a#5 v=0
1126591 On ch=1 n=d6 v=83
1126591 On ch=1 n=g4 v=55
1126731 On ch=1 n=d6 v=0
1126751 On ch=1 n=g4 v=0
1126821 On ch=1 n=f#5 v=74
1126826 On ch=1 n=a4 v=42
1126866 Par ch=1 c=64 v=104
1126881 Par ch=1 c=64 v=24
1126896 Par ch=1 c=64 v=0
1126946 Par ch=1 c=64 v=40
1126961 Par ch=1 c=64 v=104
1126976 Par ch=1 c=64 v=127
1127081 On ch=1 n=a4 v=0
1127096 On ch=1 n=f#5 v=0
1127121 On ch=1 n=a5 v=69
1127146 On ch=1 n=c5 v=52
1127181 Par ch=1 c=64 v=88
1127196 Par ch=1 c=64 v=0
1127326 Par ch=1 c=64 v=40
1127341 Par ch=1 c=64 v=88
1127356 Par ch=1 c=64 v=127
1127406 On ch=1 n=c5 v=0
1127416 On ch=1 n=a5 v=0
1127416 On ch=1 n=a#4 v=44
1127421 On ch=1 n=g5 v=63
1127436 Par ch=1 c=64 v=72
1127451 Par ch=1 c=64 v=0
1127561 Par ch=1 c=64 v=40
1127576 Par ch=1 c=64 v=72
1127596 Par ch=1 c=64 v=104
1127611 Par ch=1 c=64 v=127
1127711 On ch=1 n=g5 v=0
1127746 On ch=1 n=a#4 v=0
1127786 On ch=1 n=a#5 v=54
1127816 Par ch=1 c=64 v=104
1127826 On ch=1 n=g4 v=37
1127831 Par ch=1 c=64 v=88
1127846 Par ch=1 c=64 v=72
1127861 Par ch=1 c=64 v=56
1127881 Par ch=1 c=64 v=24
1127896 Par ch=1 c=64 v=0
1128176 On ch=1 n=d5 v=0
1128196 Par ch=1 c=64 v=24
1128201 On ch=1 n=g4 v=0
1128211 Par ch=1 c=64 v=56
1128221 On ch=1 n=a#5 v=0
1128226 Par ch=1 c=64 v=72
1128241 Par ch=1 c=64 v=88
1128276 Par ch=1 c=64 v=104
1128306 Par ch=1 c=64 v=127
1128621 Par ch=1 c=64 v=104
1128636 Par ch=1 c=64 v=88
1128651 Par ch=1 c=64 v=72
1128671 Par ch=1 c=64 v=56
1128686 Par ch=1 c=64 v=40
1128701 Par ch=1 c=64 v=24
1128716 Par ch=1 c=64 v=0
1128906 Par ch=1 c=64 v=24
1128921 Par ch=1 c=64 v=40
1128936 Par ch=1 c=64 v=56
1128951 Par ch=1 c=64 v=72
1128971 Par ch=1 c=64 v=88
1128986 Par ch=1 c=64 v=104
1129001 Par ch=1 c=64 v=127
1129186 On ch=1 n=e5 v=56
1129201 On ch=1 n=a#4 v=39
1129206 Par ch=1 c=64 v=88
1129211 On ch=1 n=g4 v=34
1129211 On ch=1 n=c3 v=38
1129216 On ch=1 n=c4 v=38
1129221 Par ch=1 c=64 v=24
1129236 Par ch=1 c=64 v=0
1129301 Par ch=1 c=64 v=56
1129316 Par ch=1 c=64 v=104
1129331 Par ch=1 c=64 v=127
1129356 On ch=1 n=c4 v=0
1129391 On ch=1 n=c3 v=0
1129391 On ch=1 n=e5 v=0
1129401 On ch=1 n=g4 v=0
1129411 On ch=1 n=a#4 v=0
1129886 On ch=1 n=a4 v=42
1129886 On ch=1 n=f5 v=47
1129891 On ch=1 n=f4 v=38
1129911 On ch=1 n=f2 v=31
1129921 On ch=1 n=f3 v=31
1129951 Par ch=1 c=64 v=88
1129966 Par ch=1 c=64 v=40
1129981 Par ch=1 c=64 v=0
1130076 Par ch=1 c=64 v=40
1130091 On ch=1 n=f3 v=0
1130091 On ch=1 n=f2 v=0
1130091 Par ch=1 c=64 v=104
1130106 Par ch=1 c=64 v=127
1130141 On ch=1 n=f4 v=0
1130146 On ch=1 n=a4 v=0
1130151 On ch=1 n=f5 v=0
1130661 Par ch=1 c=64 v=104
1130726 Par ch=1 c=64 v=88
1130771 Par ch=1 c=64 v=72
1130806 Par ch=1 c=64 v=56
1130836 Par ch=1 c=64 v=40
1130866 Par ch=1 c=64 v=24
1130881 Par ch=1 c=64 v=0
1133281 On ch=1 n=g#6 v=72
1133421 On ch=1 n=g#6 v=0
1133431 On ch=1 n=c6 v=67
1133626 On ch=1 n=g#3 v=51
1133671 Par ch=1 c=64 v=24
1133691 Par ch=1 c=64 v=56
1133711 Par ch=1 c=64 v=88
1133721 On ch=1 n=g#3 v=0
1133731 Par ch=1 c=64 v=104
1133751 Par ch=1 c=64 v=127
1133846 Par ch=1 c=64 v=88
1133866 Par ch=1 c=64 v=56
1133886 Par ch=1 c=64 v=0
1134131 On ch=1 n=c5 v=47
1134131 On ch=1 n=d#4 v=46
1134136 On ch=1 n=g#4 v=37
1134201 On ch=1 n=c5 v=0
1134211 On ch=1 n=g#4 v=0
1134221 On ch=1 n=d#4 v=0
1134496 On ch=1 n=c6 v=0
1134496 On ch=1 n=b5 v=69
1134506 On ch=1 n=g#3 v=52
1134506 Par ch=1 c=64 v=40
1134526 Par ch=1 c=64 v=104
1134546 Par ch=1 c=64 v=127
1134556 On ch=1 n=g#3 v=0
1134641 Par ch=1 c=64 v=104
1134661 On ch=1 n=b5 v=0
1134661 On ch=1 n=f6 v=78
1134661 Par ch=1 c=64 v=72
1134676 Par ch=1 c=64 v=40
1134696 Par ch=1 c=64 v=0
1134861 On ch=1 n=g#4 v=35
1134891 On ch=1 n=d5 v=41
1134891 On ch=1 n=f4 v=32
1134931 On ch=1 n=f4 v=0
1134931 On ch=1 n=g#4 v=0
1134941 On ch=1 n=d5 v=0
1135281 On ch=1 n=f4 v=45
1135291 On ch=1 n=g#4 v=42
1135296 On ch=1 n=d5 v=42
1135346 On ch=1 n=d5 v=0
1135371 On ch=1 n=g#4 v=0
1135371 On ch=1 n=f4 v=0
1135376 Par ch=1 c=64 v=40
1135396 Par ch=1 c=64 v=56
1135436 Par ch=1 c=64 v=72
1135456 Par ch=1 c=64 v=88
1135571 Par ch=1 c=64 v=0
1135646 On ch=1 n=d#6 v=73
1135646 On ch=1 n=g#3 v=61
1135686 Par ch=1 c=64 v=24
1135701 On ch=1 n=f6 v=0
1135706 Par ch=1 c=64 v=72
1135716 On ch=1 n=g#3 v=0
1135726 Par ch=1 c=64 v=127
1135781 On ch=1 n=d#6 v=0
1135791 On ch=1 n=a5 v=69
1135801 Par ch=1 c=64 v=104
1135821 Par ch=1 c=64 v=72
1135841 Par ch=1 c=64 v=40
1135861 Par ch=1 c=64 v=0
1135966 On ch=1 n=c#5 v=49
1135971 On ch=1 n=d#4 v=50
1135981 On ch=1 n=g4 v=56
1136006 On ch=1 n=d#4 v=0
1136016 On ch=1 n=g4 v=0
1136036 On ch=1 n=c#5 v=0
1136381 On ch=1 n=a#5 v=73
1136401 On ch=1 n=d#4 v=53
1136401 On ch=1 n=c#5 v=40
1136401 Par ch=1 c=64 v=56
1136406 On ch=1 n=g4 v=53
1136421 On ch=1 n=a5 v=0
1136421 Par ch=1 c=64 v=72
1136441 Par ch=1 c=64 v=104
1136446 On ch=1 n=g4 v=0
1136466 On ch=1 n=c#5 v=0
1136501 On ch=1 n=d#4 v=0
1136651 Par ch=1 c=64 v=24
1136676 Par ch=1 c=64 v=0
1136711 On ch=1 n=a#5 v=0
1136726 On ch=1 n=g#3 v=62
1136746 On ch=1 n=c6 v=74
1136791 Par ch=1 c=64 v=24
1136801 On ch=1 n=g#3 v=0
1136811 Par ch=1 c=64 v=56
1136846 On ch=1 n=c6 v=0
1136886 On ch=1 n=g5 v=66
1136886 Par ch=1 c=64 v=40
1136906 Par ch=1 c=64 v=24
1136926 Par ch=1 c=64 v=0
1137051 On ch=1 n=d#4 v=54
1137051 On ch=1 n=c5 v=59
1137071 On ch=1 n=g#4 v=45
1137116 On ch=1 n=g#4 v=0
1137131 On ch=1 n=c5 v=0
1137131 On ch=1 n=d#4 v=0
1137416 On ch=1 n=g#5 v=73
1137421 On ch=1 n=g5 v=0
1137436 On ch=1 n=g#4 v=56
1137446 On ch=1 n=d#4 v=52
1137446 Par ch=1 c=64 v=24
1137456 On ch=1 n=c5 v=41
1137466 Par ch=1 c=64 v=56
1137471 On ch=1 n=g#4 v=0
1137481 On ch=1 n=d#4 v=0
1137486 Par ch=1 c=64 v=72
1137496 On ch=1 n=c5 v=0
1137506 Par ch=1 c=64 v=88
1137661 Par ch=1 c=64 v=56
1137681 Par ch=1 c=64 v=0
1137751 On ch=1 n=g#5 v=0
1137761 On ch=1 n=a#5 v=70
1137786 On ch=1 n=f3 v=63
1137836 On ch=1 n=f3 v=0
1137856 Par ch=1 c=64 v=40
1137876 Par ch=1 c=64 v=72
1137891 On ch=1 n=a#5 v=0
1137901 On ch=1 n=d5 v=66
1137951 Par ch=1 c=64 v=0
1138086 On ch=1 n=g#4 v=50
1138091 On ch=1 n=a#3 v=49
1138091 Par ch=1 c=64 v=40
1138106 Par ch=1 c=64 v=88
1138126 Par ch=1 c=64 v=127
1138171 On ch=1 n=g#4 v=0
1138181 On ch=1 n=a#3 v=0
1138241 Par ch=1 c=64 v=104
1138421 On ch=1 n=c6 v=85
1138436 On ch=1 n=a#3 v=65
1138441 On ch=1 n=g#4 v=52
1138471 On ch=1 n=g#4 v=0
1138491 On ch=1 n=a#3 v=0
1138511 Par ch=1 c=64 v=127
1138621 On ch=1 n=c6 v=0
1138671 Par ch=1 c=64 v=72
1138686 Par ch=1 c=64 v=0
1138736 On ch=1 n=d5 v=0
1138746 On ch=1 n=a#2 v=54
1138746 On ch=1 n=d6 v=86
1138806 On ch=1 n=a#2 v=0
1138821 Par ch=1 c=64 v=56
1138841 Par ch=1 c=64 v=104
1138861 Par ch=1 c=64 v=127
1138886 On ch=1 n=d6 v=0
1138891 On ch=1 n=d5 v=57
1138896 On ch=1 n=g#5 v=62
1138936 Par ch=1 c=64 v=88
1138956 Par ch=1 c=64 v=40
1138976 Par ch=1 c=64 v=24
1138996 Par ch=1 c=64 v=40
1139016 Par ch=1 c=64 v=56
1139026 On ch=1 n=a#3 v=57
1139031 On ch=1 n=d5 v=0
1139036 On ch=1 n=g#4 v=45
1139036 Par ch=1 c=64 v=104
1139056 Par ch=1 c=64 v=127
1139101 On ch=1 n=g#4 v=0
1139116 On ch=1 n=a#3 v=0
1139371 On ch=1 n=d#6 v=82
1139381 On ch=1 n=a#3 v=58
1139381 On ch=1 n=g#4 v=41
1139401 On ch=1 n=g#5 v=0
1139421 On ch=1 n=g#4 v=0
1139421 On ch=1 n=a#3 v=0
1139471 On ch=1 n=d#6 v=0
1139636 Par ch=1 c=64 v=72
1139656 Par ch=1 c=64 v=0
1139701 On ch=1 n=a#3 v=59
1139711 On ch=1 n=f6 v=87
1139731 Par ch=1 c=64 v=24
1139751 Par ch=1 c=64 v=88
1139771 Par ch=1 c=64 v=127
1139776 On ch=1 n=a#3 v=0
1139801 On ch=1 n=f6 v=0
1139901 On ch=1 n=g#5 v=62
1139906 On ch=1 n=d5 v=55
1139951 On ch=1 n=d5 v=0
1139996 On ch=1 n=g#5 v=0
1140031 On ch=1 n=g#4 v=55
1140041 On ch=1 n=f4 v=61
1140076 On ch=1 n=f4 v=0
1140081 On ch=1 n=g#4 v=0
1140391 On ch=1 n=g6 v=84
1140411 On ch=1 n=a#2 v=51
1140476 On ch=1 n=g6 v=0
1140516 On ch=1 n=a#2 v=0
1140661 Par ch=1 c=64 v=72
1140681 Par ch=1 c=64 v=0
1140751 On ch=1 n=d#6 v=76
1140751 On ch=1 n=d#3 v=53
1140776 Par ch=1 c=64 v=24
1140796 On ch=1 n=d#3 v=0
1140796 Par ch=1 c=64 v=72
1140816 Par ch=1 c=64 v=127
1140911 On ch=1 n=d#6 v=0
1140966 On ch=1 n=g5 v=53
1140966 On ch=1 n=d#5 v=48
1141081 On ch=1 n=g5 v=0
1141101 On ch=1 n=d#5 v=0
1141171 On ch=1 n=d5 v=63
1141186 On ch=1 n=g4 v=51
1141191 On ch=1 n=d#4 v=44
1141321 Par ch=1 c=64 v=72
1141336 Par ch=1 c=64 v=0
1141476 Par ch=1 c=64 v=24
1141496 Par ch=1 c=64 v=72
1141516 Par ch=1 c=64 v=127
1141526 On ch=1 n=g4 v=0
1141541 On ch=1 n=d#4 v=0
1141626 On ch=1 n=d5 v=0
1141636 On ch=1 n=c#5 v=55
1141651 Par ch=1 c=64 v=88
1141671 Par ch=1 c=64 v=24
1141686 Par ch=1 c=64 v=0
1141766 Par ch=1 c=64 v=24
1141786 Par ch=1 c=64 v=56
1141801 On ch=1 n=c#5 v=0
1141801 Par ch=1 c=64 v=104
1141821 Par ch=1 c=64 v=127
1142191 On ch=1 n=g#6 v=71
1142191 Par ch=1 c=64 v=88
1142211 Par ch=1 c=64 v=24
1142231 Par ch=1 c=64 v=0
1142371 On ch=1 n=g#6 v=0
1142376 On ch=1 n=c6 v=70
1142386 Par ch=1 c=64 v=40
1142406 Par ch=1 c=64 v=88
1142426 Par ch=1 c=64 v=127
1142501 Par ch=1 c=64 v=40
1142521 Par ch=1 c=64 v=0
1142596 On ch=1 n=g#3 v=53
1142656 On ch=1 n=g#3 v=0
1142656 Par ch=1 c=64 v=56
1142676 Par ch=1 c=64 v=104
1142696 Par ch=1 c=64 v=127
1142751 Par ch=1 c=64 v=72
1142771 Par ch=1 c=64 v=24
1142791 Par ch=1 c=64 v=0
1143081 Par ch=1 c=64 v=24
1143101 On ch=1 n=c5 v=43
1143101 Par ch=1 c=64 v=56
1143106 On ch=1 n=d#4 v=49
1143106 On ch=1 n=g#4 v=40
1143121 Par ch=1 c=64 v=72
1143141 Par ch=1 c=64 v=88
1143156 On ch=1 n=g#4 v=0
1143166 On ch=1 n=c5 v=0
1143176 Par ch=1 c=64 v=104
1143186 On ch=1 n=d#4 v=0
1143196 Par ch=1 c=64 v=127
1143311 Par ch=1 c=64 v=104
1143336 Par ch=1 c=64 v=72
1143356 Par ch=1 c=64 v=24
1143376 Par ch=1 c=64 v=0
1143476 On ch=1 n=g#3 v=48
1143481 On ch=1 n=b5 v=70
1143486 On ch=1 n=c6 v=0
1143491 Par ch=1 c=64 v=40
1143511 Par ch=1 c=64 v=104
1143516 On ch=1 n=g#3 v=0
1143531 Par ch=1 c=64 v=127
1143641 Par ch=1 c=64 v=104
1143661 On ch=1 n=b5 v=0
1143661 On ch=1 n=f6 v=77
1143661 Par ch=1 c=64 v=72
1143681 Par ch=1 c=64 v=40
1143701 Par ch=1 c=64 v=0
1143846 On ch=1 n=g#4 v=38
1143856 On ch=1 n=f4 v=37
1143861 On ch=1 n=d5 v=43
1143901 On ch=1 n=g#4 v=0
1143906 On ch=1 n=f4 v=0
1143911 On ch=1 n=d5 v=0
1144316 On ch=1 n=g#4 v=40
1144326 On ch=1 n=d5 v=47
1144331 On ch=1 n=f4 v=52
1144341 Par ch=1 c=64 v=40
1144361 Par ch=1 c=64 v=72
1144381 Par ch=1 c=64 v=104
1144386 On ch=1 n=d5 v=0
1144401 Par ch=1 c=64 v=127
1144406 On ch=1 n=g#4 v=0
1144416 On ch=1 n=f4 v=0
1144591 Par ch=1 c=64 v=88
1144611 Par ch=1 c=64 v=24
1144631 Par ch=1 c=64 v=0
1144671 On ch=1 n=d#6 v=68
1144671 On ch=1 n=g#3 v=57
1144706 Par ch=1 c=64 v=24
1144716 On ch=1 n=f6 v=0
1144726 Par ch=1 c=64 v=72
1144751 Par ch=1 c=64 v=127
1144761 On ch=1 n=g#3 v=0
1144816 On ch=1 n=d#6 v=0
1144826 Par ch=1 c=64 v=104
1144841 On ch=1 n=a5 v=74
1144846 Par ch=1 c=64 v=88
1144866 Par ch=1 c=64 v=56
1144886 Par ch=1 c=64 v=24
1144901 Par ch=1 c=64 v=0
1145011 On ch=1 n=d#4 v=47
1145021 On ch=1 n=g4 v=47
1145031 On ch=1 n=c#5 v=23
1145061 On ch=1 n=g4 v=0
1145061 On ch=1 n=d#4 v=0
1145076 On ch=1 n=c#5 v=0
1145346 Par ch=1 c=64 v=24
1145361 On ch=1 n=a#5 v=69
1145371 Par ch=1 c=64 v=56
1145381 On ch=1 n=a5 v=0
1145381 On ch=1 n=c#5 v=46
1145386 Par ch=1 c=64 v=88
1145391 On ch=1 n=d#4 v=46
1145401 On ch=1 n=g4 v=42
1145406 Par ch=1 c=64 v=104
1145426 Par ch=1 c=64 v=127
1145441 On ch=1 n=g4 v=0
1145451 On ch=1 n=c#5 v=0
1145491 On ch=1 n=d#4 v=0
1145616 Par ch=1 c=64 v=56
1145636 Par ch=1 c=64 v=0
1145696 On ch=1 n=a#5 v=0
1145711 On ch=1 n=g#3 v=63
1145731 On ch=1 n=c6 v=71
1145756 Par ch=1 c=64 v=24
1145776 Par ch=1 c=64 v=56
1145796 Par ch=1 c=64 v=88
1145806 On ch=1 n=g#3 v=0
1145846 On ch=1 n=c6 v=0
1145871 Par ch=1 c=64 v=40
1145881 On ch=1 n=g5 v=70
1145891 Par ch=1 c=64 v=0
1146046 On ch=1 n=d#4 v=45
1146046 On ch=1 n=c5 v=56
1146051 On ch=1 n=g#4 v=43
1146106 On ch=1 n=d#4 v=0
1146111 On ch=1 n=g#4 v=0
1146111 On ch=1 n=c5 v=0
1146386 On ch=1 n=g5 v=0
1146401 On ch=1 n=g#5 v=76
1146411 Par ch=1 c=64 v=56
1146421 On ch=1 n=d#4 v=59
1146426 On ch=1 n=c5 v=60
1146431 Par ch=1 c=64 v=72
1146451 Par ch=1 c=64 v=88
1146456 On ch=1 n=c5 v=0
1146491 On ch=1 n=d#4 v=0
1146606 Par ch=1 c=64 v=56
1146626 Par ch=1 c=64 v=24
1146646 Par ch=1 c=64 v=0
1146736 On ch=1 n=g#5 v=0
1146746 On ch=1 n=a#5 v=68
1146771 On ch=1 n=f3 v=60
1146781 Par ch=1 c=64 v=40
1146801 Par ch=1 c=64 v=72
1146806 On ch=1 n=f3 v=0
1146821 Par ch=1 c=64 v=88
1146871 On ch=1 n=a#5 v=0
1146876 Par ch=1 c=64 v=40
1146881 On ch=1 n=d5 v=66
1146896 Par ch=1 c=64 v=0
1147051 Par ch=1 c=64 v=56
1147061 On ch=1 n=g#4 v=49
1147071 On ch=1 n=a#3 v=49
1147071 Par ch=1 c=64 v=88
1147086 Par ch=1 c=64 v=127
1147141 On ch=1 n=g#4 v=0
1147146 On ch=1 n=a#3 v=0
1147206 Par ch=1 c=64 v=88
1147226 Par ch=1 c=64 v=72
1147306 Par ch=1 c=64 v=56
1147391 On ch=1 n=c6 v=86
1147401 Par ch=1 c=64 v=72
1147406 On ch=1 n=a#3 v=67
1147406 On ch=1 n=g#4 v=47
1147421 Par ch=1 c=64 v=88
1147441 On ch=1 n=g#4 v=0
1147466 On ch=1 n=a#3 v=0
1147476 Par ch=1 c=64 v=104
1147596 On ch=1 n=c6 v=0
1147616 Par ch=1 c=64 v=24
1147636 Par ch=1 c=64 v=0
1147706 On ch=1 n=a#2 v=57
1147711 On ch=1 n=d6 v=87
1147751 On ch=1 n=d5 v=0
1147766 On ch=1 n=a#2 v=0
1147786 Par ch=1 c=64 v=72
1147806 Par ch=1 c=64 v=104
1147826 Par ch=1 c=64 v=127
1147831 On ch=1 n=d6 v=0
1147856 On ch=1 n=d5 v=57
1147866 On ch=1 n=g#5 v=63
1147901 Par ch=1 c=64 v=104
1147921 Par ch=1 c=64 v=40
1147941 Par ch=1 c=64 v=0
1148001 On ch=1 n=a#3 v=60
1148006 On ch=1 n=g#4 v=52
1148016 Par ch=1 c=64 v=24
1148041 On ch=1 n=d5 v=0
1148041 Par ch=1 c=64 v=72
1148061 Par ch=1 c=64 v=104
1148081 On ch=1 n=g#4 v=0
1148081 On ch=1 n=a#3 v=0
1148081 Par ch=1 c=64 v=127
1148326 On ch=1 n=g#5 v=0
1148346 On ch=1 n=d#6 v=83
1148361 On ch=1 n=g#4 v=56
1148366 On ch=1 n=a#3 v=64
1148396 On ch=1 n=g#4 v=0
1148406 On ch=1 n=a#3 v=0
1148451 On ch=1 n=d#6 v=0
1148601 Par ch=1 c=64 v=56
1148621 Par ch=1 c=64 v=0
1148681 On ch=1 n=a#3 v=55
1148686 On ch=1 n=f6 v=85
1148716 Par ch=1 c=64 v=40
1148736 Par ch=1 c=64 v=104
1148756 On ch=1 n=a#3 v=0
1148756 Par ch=1 c=64 v=127
1148776 On ch=1 n=f6 v=0
1148861 On ch=1 n=g#5 v=58
1148861 On ch=1 n=d5 v=56
1148916 On ch=1 n=d5 v=0
1148996 On ch=1 n=g#5 v=0
1149001 On ch=1 n=g#4 v=55
1149016 On ch=1 n=f4 v=64
1149051 On ch=1 n=f4 v=0
1149076 On ch=1 n=g#4 v=0
1149351 On ch=1 n=g6 v=82
1149366 On ch=1 n=a#2 v=56
1149431 On ch=1 n=g6 v=0
1149466 On ch=1 n=a#2 v=0
1149606 Par ch=1 c=64 v=56
1149626 Par ch=1 c=64 v=0
1149696 On ch=1 n=d#3 v=57
1149706 On ch=1 n=d#6 v=79
1149726 Par ch=1 c=64 v=40
1149741 Par ch=1 c=64 v=88
1149756 On ch=1 n=d#3 v=0
1149761 Par ch=1 c=64 v=127
1149836 On ch=1 n=d#6 v=0
1149916 On ch=1 n=g5 v=62
1149921 On ch=1 n=d#5 v=39
1150006 On ch=1 n=g5 v=0
1150016 On ch=1 n=d#5 v=0
1150136 On ch=1 n=d5 v=53
1150146 On ch=1 n=g4 v=51
1150156 On ch=1 n=d#4 v=45
1150191 Par ch=1 c=64 v=88
1150211 Par ch=1 c=64 v=24
1150226 Par ch=1 c=64 v=0
1150321 On ch=1 n=g4 v=0
1150321 Par ch=1 c=64 v=56
1150336 On ch=1 n=d#4 v=0
1150341 Par ch=1 c=64 v=127
1150536 On ch=1 n=d5 v=0
1150571 On ch=1 n=c#5 v=60
1150646 On ch=1 n=c#5 v=0
1150966 Par ch=1 c=64 v=104
1150981 Par ch=1 c=64 v=40
1151001 Par ch=1 c=64 v=0
1151101 On ch=1 n=d#7 v=96
1151101 On ch=1 n=d#6 v=87
1151121 On ch=1 n=d#3 v=63
1151126 On ch=1 n=d#4 v=67
1151136 Par ch=1 c=64 v=56
1151156 Par ch=1 c=64 v=127
1151196 On ch=1 n=d#4 v=0
1151196 On ch=1 n=d#3 v=0
1151261 On ch=1 n=d#6 v=0
1151261 On ch=1 n=d#7 v=0
1151501 On ch=1 n=d#7 v=88
1151511 On ch=1 n=d#5 v=42
1151511 On ch=1 n=d#6 v=81
1151516 On ch=1 n=a#4 v=37
1151526 On ch=1 n=g4 v=49
1151566 On ch=1 n=g4 v=0
1151571 On ch=1 n=d#6 v=0
1151571 On ch=1 n=d#7 v=0
1151596 On ch=1 n=a#4 v=0
1151606 On ch=1 n=d#5 v=0
1151666 On ch=1 n=d#7 v=92
1151676 On ch=1 n=d#6 v=91
1151736 On ch=1 n=d#6 v=0
1151746 On ch=1 n=d#7 v=0
1151821 On ch=1 n=a#4 v=64
1151821 On ch=1 n=g5 v=65
1151831 On ch=1 n=d#7 v=88
1151831 On ch=1 n=d#5 v=46
1151836 On ch=1 n=d#6 v=87
1151856 On ch=1 n=g5 v=0
1151866 On ch=1 n=d#5 v=0
1151891 On ch=1 n=a#4 v=0
1151896 On ch=1 n=d#6 v=0
1151901 On ch=1 n=d#7 v=0
1151981 On ch=1 n=d#7 v=85
1151986 On ch=1 n=d#6 v=89
1152056 On ch=1 n=d#6 v=0
1152061 On ch=1 n=d#7 v=0
1152126 Par ch=1 c=64 v=88
1152146 On ch=1 n=d#7 v=92
1152146 Par ch=1 c=64 v=0
1152156 On ch=1 n=d#6 v=95
1152176 On ch=1 n=f3 v=69
1152176 On ch=1 n=f4 v=71
1152206 On ch=1 n=f3 v=0
1152256 On ch=1 n=f4 v=0
1152261 Par ch=1 c=64 v=72
1152281 Par ch=1 c=64 v=127
1152296 On ch=1 n=d#7 v=0
1152326 On ch=1 n=d#6 v=0
1152506 On ch=1 n=c#7 v=84
1152511 On ch=1 n=c#6 v=77
1152516 On ch=1 n=g#4 v=46
1152526 On ch=1 n=f4 v=59
1152536 On ch=1 n=c#5 v=47
1152571 On ch=1 n=c#6 v=0
1152576 On ch=1 n=f4 v=0
1152576 On ch=1 n=c#7 v=0
1152581 On ch=1 n=c#5 v=0
1152601 On ch=1 n=g#4 v=0
1152656 On ch=1 n=c7 v=96
1152666 On ch=1 n=c6 v=85
1152701 On ch=1 n=c6 v=0
1152716 On ch=1 n=c7 v=0
1152801 On ch=1 n=f5 v=49
1152806 On ch=1 n=c#5 v=44
1152816 On ch=1 n=g#4 v=43
1152816 On ch=1 n=a#6 v=83
1152826 On ch=1 n=a#5 v=74
1152841 On ch=1 n=c#5 v=0
1152841 On ch=1 n=f5 v=0
1152856 On ch=1 n=g#4 v=0
1152866 On ch=1 n=a#5 v=0
1152886 On ch=1 n=a#6 v=0
1152971 On ch=1 n=g#6 v=79
1152981 On ch=1 n=g#5 v=77
1153056 On ch=1 n=g#5 v=0
1153081 On ch=1 n=g#6 v=0
1153136 Par ch=1 c=64 v=40
1153151 Par ch=1 c=64 v=0
1153171 On ch=1 n=g6 v=90
1153171 On ch=1 n=g5 v=81
1153201 On ch=1 n=g3 v=64
1153216 On ch=1 n=g4 v=52
1153236 On ch=1 n=g3 v=0
1153281 On ch=1 n=g5 v=0
1153286 Par ch=1 c=64 v=56
1153306 On ch=1 n=g4 v=0
1153306 Par ch=1 c=64 v=127
1153401 On ch=1 n=g6 v=0
1153556 On ch=1 n=g5 v=71
1153561 On ch=1 n=g6 v=85
1153566 On ch=1 n=d4 v=56
1153571 On ch=1 n=f4 v=54
1153616 On ch=1 n=d4 v=0
1153621 On ch=1 n=f4 v=0
1153631 On ch=1 n=g5 v=0
1153636 On ch=1 n=g6 v=0
1153726 On ch=1 n=g5 v=66
1153731 On ch=1 n=g6 v=80
1153796 On ch=1 n=g6 v=0
1153796 On ch=1 n=g5 v=0
1153896 On ch=1 n=g6 v=78
1153896 On ch=1 n=g5 v=64
1153941 On ch=1 n=b4 v=50
1153941 On ch=1 n=d5 v=56
1153966 On ch=1 n=g5 v=0
1153966 On ch=1 n=g6 v=0
1153996 On ch=1 n=d5 v=0
1153996 On ch=1 n=b4 v=0
1154061 On ch=1 n=g6 v=80
1154061 On ch=1 n=g5 v=67
1154151 On ch=1 n=g5 v=0
1154161 On ch=1 n=g6 v=0
1154256 On ch=1 n=g6 v=75
1154256 Par ch=1 c=64 v=104
1154261 On ch=1 n=g5 v=63
1154276 Par ch=1 c=64 v=24
1154296 Par ch=1 c=64 v=0
1154346 On ch=1 n=c3 v=50
1154366 On ch=1 n=c4 v=45
1154406 On ch=1 n=c4 v=0
1154411 Par ch=1 c=64 v=72
1154421 On ch=1 n=c3 v=0
1154426 On ch=1 n=g5 v=0
1154426 Par ch=1 c=64 v=127
1154576 On ch=1 n=g6 v=0
1154661 On ch=1 n=f6 v=72
1154671 On ch=1 n=d#4 v=58
1154671 On ch=1 n=c4 v=55
1154726 On ch=1 n=c4 v=0
1154756 On ch=1 n=d#4 v=0
1154781 On ch=1 n=f6 v=0
1154811 On ch=1 n=d#6 v=73
1154951 On ch=1 n=d#6 v=0
1154966 On ch=1 n=d6 v=74
1154981 On ch=1 n=c5 v=45
1154981 On ch=1 n=g4 v=46
1155031 On ch=1 n=g4 v=0
1155036 On ch=1 n=c5 v=0
1155106 On ch=1 n=d6 v=0
1155131 On ch=1 n=c6 v=73
1155226 On ch=1 n=c6 v=0
1155311 On ch=1 n=c6 v=74
1155321 Par ch=1 c=64 v=72
1155331 On ch=1 n=g#4 v=58
1155341 Par ch=1 c=64 v=0
1155466 On ch=1 n=c6 v=0
1155476 Par ch=1 c=64 v=24
1155486 On ch=1 n=d#6 v=65
1155496 Par ch=1 c=64 v=72
1155516 Par ch=1 c=64 v=104
1155536 Par ch=1 c=64 v=127
1155581 On ch=1 n=d#6 v=0
1155641 On ch=1 n=d#6 v=65
1155686 On ch=1 n=g#4 v=0
1155691 On ch=1 n=c5 v=49
1155711 On ch=1 n=f#5 v=29
1155711 On ch=1 n=d#5 v=25
1155736 On ch=1 n=d#6 v=0
1155811 On ch=1 n=d#6 v=65
1155906 On ch=1 n=d#6 v=0
1155941 Par ch=1 c=64 v=72
1155961 Par ch=1 c=64 v=0
1155981 On ch=1 n=d#6 v=68
1155991 On ch=1 n=c5 v=0
1156006 On ch=1 n=a4 v=64
1156036 On ch=1 n=d#5 v=0
1156086 On ch=1 n=d#6 v=0
1156096 Par ch=1 c=64 v=40
1156116 Par ch=1 c=64 v=72
1156136 On ch=1 n=d#6 v=73
1156136 Par ch=1 c=64 v=104
1156151 Par ch=1 c=64 v=127
1156231 On ch=1 n=a4 v=0
1156246 On ch=1 n=d#6 v=0
1156331 On ch=1 n=d#6 v=61
1156346 On ch=1 n=a#4 v=64
1156406 Par ch=1 c=64 v=88
1156426 Par ch=1 c=64 v=24
1156436 On ch=1 n=f#5 v=0
1156446 Par ch=1 c=64 v=0
1156601 Par ch=1 c=64 v=24
1156621 Par ch=1 c=64 v=56
1156641 Par ch=1 c=64 v=88
1156716 Par ch=1 c=64 v=0
1156736 On ch=1 n=c#6 v=59
1156751 On ch=1 n=f5 v=51
1156751 On ch=1 n=c#5 v=46
1156791 On ch=1 n=d#6 v=0
1156851 Par ch=1 c=64 v=24
1156861 On ch=1 n=c#6 v=0
1156871 Par ch=1 c=64 v=56
1156886 On ch=1 n=c#5 v=0
1156886 On ch=1 n=f5 v=0
1156891 Par ch=1 c=64 v=72
1156901 On ch=1 n=c6 v=74
1156911 Par ch=1 c=64 v=88
1157026 On ch=1 n=c6 v=0
1157026 Par ch=1 c=64 v=104
1157076 On ch=1 n=a#5 v=56
1157081 Par ch=1 c=64 v=127
1157106 On ch=1 n=c#5 v=33
1157126 On ch=1 n=f5 v=25
1157136 On ch=1 n=a#4 v=0
1157186 On ch=1 n=a#5 v=0
1157241 On ch=1 n=g#5 v=65
1157331 On ch=1 n=c#5 v=0
1157361 On ch=1 n=g#5 v=0
1157411 Par ch=1 c=64 v=104
1157431 On ch=1 n=g5 v=67
1157431 On ch=1 n=b4 v=59
1157431 Par ch=1 c=64 v=40
1157451 Par ch=1 c=64 v=0
1157476 On ch=1 n=f5 v=0
1157586 Par ch=1 c=64 v=24
1157606 Par ch=1 c=64 v=56
1157626 Par ch=1 c=64 v=88
1157646 Par ch=1 c=64 v=127
1157656 On ch=1 n=g5 v=0
1157796 On ch=1 n=g5 v=66
1157796 On ch=1 n=f5 v=40
1157801 On ch=1 n=d5 v=44
1157876 On ch=1 n=g5 v=0
1157966 On ch=1 n=d5 v=0
1157966 On ch=1 n=g5 v=70
1157971 On ch=1 n=f5 v=0
1158061 On ch=1 n=g5 v=0
1158131 On ch=1 n=g5 v=66
1158171 On ch=1 n=d5 v=41
1158196 On ch=1 n=f5 v=33
1158241 On ch=1 n=g5 v=0
1158251 On ch=1 n=b4 v=0
1158266 On ch=1 n=f5 v=0
1158286 On ch=1 n=d5 v=0
1158321 On ch=1 n=g5 v=64
1158406 On ch=1 n=g5 v=0
1158481 Par ch=1 c=64 v=88
1158496 On ch=1 n=g5 v=49
1158496 Par ch=1 c=64 v=40
1158516 Par ch=1 c=64 v=0
1158531 On ch=1 n=f5 v=52
1158536 On ch=1 n=c5 v=46
1158651 Par ch=1 c=64 v=40
1158671 Par ch=1 c=64 v=56
1158691 Par ch=1 c=64 v=88
1158711 Par ch=1 c=64 v=104
1158721 On ch=1 n=c6 v=67
1158726 On ch=1 n=g5 v=0
1158816 On ch=1 n=f5 v=0
1158971 On ch=1 n=e5 v=49
1158981 Par ch=1 c=64 v=88
1159021 Par ch=1 c=64 v=72
1159041 Par ch=1 c=64 v=24
1159061 Par ch=1 c=64 v=0
1159231 Par ch=1 c=64 v=40
1159251 Par ch=1 c=64 v=72
1159271 Par ch=1 c=64 v=88
1159291 Par ch=1 c=64 v=104
1159371 Par ch=1 c=64 v=56
1159386 Par ch=1 c=64 v=0
1159391 On ch=1 n=e5 v=0
1159411 On ch=1 n=d#5 v=46
1159541 Par ch=1 c=64 v=24
1159561 Par ch=1 c=64 v=56
1159581 Par ch=1 c=64 v=104
1159601 Par ch=1 c=64 v=127
1159696 On ch=1 n=c6 v=0
1159776 Par ch=1 c=64 v=104
1159796 Par ch=1 c=64 v=40
1159811 Par ch=1 c=64 v=0
1159861 On ch=1 n=g#6 v=73
1159931 Par ch=1 c=64 v=40
1159941 On ch=1 n=c5 v=0
1159946 On ch=1 n=d#5 v=0
1159946 Par ch=1 c=64 v=88
1159971 Par ch=1 c=64 v=127
1159986 On ch=1 n=g#6 v=0
1160051 On ch=1 n=c6 v=72
1160161 Par ch=1 c=64 v=104
1160181 Par ch=1 c=64 v=24
1160201 Par ch=1 c=64 v=0
1160251 On ch=1 n=g#3 v=54
1160296 Par ch=1 c=64 v=40
1160316 Par ch=1 c=64 v=104
1160336 Par ch=1 c=64 v=127
1160341 On ch=1 n=g#3 v=0
1160451 Par ch=1 c=64 v=72
1160471 Par ch=1 c=64 v=0
1160626 Par ch=1 c=64 v=24
1160646 Par ch=1 c=64 v=56
1160666 Par ch=1 c=64 v=72
1160686 Par ch=1 c=64 v=88
1160696 On ch=1 n=c5 v=42
1160706 On ch=1 n=d#4 v=44
1160706 Par ch=1 c=64 v=104
1160721 On ch=1 n=g#4 v=25
1160756 On ch=1 n=c5 v=0
1160761 On ch=1 n=g#4 v=0
1160761 Par ch=1 c=64 v=127
1160791 On ch=1 n=d#4 v=0
1160896 Par ch=1 c=64 v=72
1160916 Par ch=1 c=64 v=40
1160936 Par ch=1 c=64 v=0
1161061 On ch=1 n=g#3 v=52
1161061 On ch=1 n=b5 v=79
1161066 On ch=1 n=c6 v=0
1161071 Par ch=1 c=64 v=72
1161091 Par ch=1 c=64 v=127
1161101 On ch=1 n=g#3 v=0
1161226 On ch=1 n=b5 v=0
1161226 Par ch=1 c=64 v=104
1161246 Par ch=1 c=64 v=56
1161251 On ch=1 n=g6 v=82
1161266 Par ch=1 c=64 v=24
1161286 Par ch=1 c=64 v=0
1161401 On ch=1 n=g#4 v=43
1161411 On ch=1 n=d5 v=48
1161411 On ch=1 n=f4 v=45
1161451 On ch=1 n=f4 v=0
1161471 On ch=1 n=d5 v=0
1161481 On ch=1 n=g#4 v=0
1161731 Par ch=1 c=64 v=40
1161751 Par ch=1 c=64 v=72
1161766 On ch=1 n=f6 v=85
1161766 Par ch=1 c=64 v=88
1161771 On ch=1 n=g6 v=0
1161781 On ch=1 n=f4 v=55
1161786 On ch=1 n=d5 v=48
1161786 On ch=1 n=g#4 v=39
1161786 Par ch=1 c=64 v=104
1161831 On ch=1 n=d5 v=0
1161836 On ch=1 n=f4 v=0
1161841 On ch=1 n=g#4 v=0
1161926 Par ch=1 c=64 v=88
1161946 Par ch=1 c=64 v=56
1161966 Par ch=1 c=64 v=24
1161986 Par ch=1 c=64 v=0
1162116 On ch=1 n=f6 v=0
1162116 Par ch=1 c=64 v=40
1162121 On ch=1 n=g#3 v=60
1162126 On ch=1 n=d#6 v=76
1162136 Par ch=1 c=64 v=104
1162156 Par ch=1 c=64 v=127
1162181 On ch=1 n=g#3 v=0
1162251 On ch=1 n=d#6 v=0
1162251 Par ch=1 c=64 v=104
1162276 On ch=1 n=a5 v=76
1162276 Par ch=1 c=64 v=72
1162291 Par ch=1 c=64 v=40
1162311 Par ch=1 c=64 v=0
1162426 On ch=1 n=g4 v=51
1162426 On ch=1 n=d#4 v=42
1162436 On ch=1 n=c#5 v=27
1162466 On ch=1 n=d#4 v=0
1162466 On ch=1 n=g4 v=0
1162481 On ch=1 n=c#5 v=0
1162766 On ch=1 n=a#5 v=74
1162771 On ch=1 n=a5 v=0
1162776 Par ch=1 c=64 v=40
1162796 On ch=1 n=c#5 v=49
1162796 On ch=1 n=d#4 v=55
1162796 Par ch=1 c=64 v=56
1162816 On ch=1 n=g4 v=38
1162831 On ch=1 n=c#5 v=0
1162856 On ch=1 n=g4 v=0
1162856 On ch=1 n=d#4 v=0
1162911 Par ch=1 c=64 v=24
1162931 Par ch=1 c=64 v=0
1163106 On ch=1 n=g#3 v=67
1163131 On ch=1 n=c6 v=82
1163146 Par ch=1 c=64 v=24
1163161 On ch=1 n=a#5 v=0
1163166 Par ch=1 c=64 v=72
1163181 On ch=1 n=g#3 v=0
1163181 Par ch=1 c=64 v=104
1163246 On ch=1 n=c6 v=0
1163261 Par ch=1 c=64 v=72
1163281 Par ch=1 c=64 v=40
1163286 On ch=1 n=g5 v=74
1163296 Par ch=1 c=64 v=24
1163316 Par ch=1 c=64 v=0
1163441 On ch=1 n=c5 v=61
1163441 On ch=1 n=g#4 v=46
1163441 On ch=1 n=d#4 v=47
1163491 On ch=1 n=c5 v=0
1163501 On ch=1 n=g#4 v=0
1163521 On ch=1 n=d#4 v=0
1163791 On ch=1 n=g#5 v=82
1163791 On ch=1 n=d#4 v=65
1163806 On ch=1 n=g#4 v=51
1163811 On ch=1 n=c5 v=56
1163816 On ch=1 n=g5 v=0
1163836 On ch=1 n=g#4 v=0
1163856 On ch=1 n=c5 v=0
1163861 On ch=1 n=d#4 v=0
1163896 On ch=1 n=g#5 v=0
1164131 Par ch=1 c=64 v=56
1164141 On ch=1 n=c#6 v=96
1164151 On ch=1 n=g#4 v=61
1164151 Par ch=1 c=64 v=104
1164156 On ch=1 n=c#5 v=78
1164156 On ch=1 n=f5 v=68
1164161 On ch=1 n=g#5 v=62
1164166 On ch=1 n=f4 v=59
1164171 Par ch=1 c=64 v=127
1164196 On ch=1 n=g#5 v=0
1164206 On ch=1 n=f4 v=0
1164221 On ch=1 n=c#5 v=0
1164221 On ch=1 n=g#4 v=0
1164236 On ch=1 n=f5 v=0
1164246 Par ch=1 c=64 v=104
1164261 On ch=1 n=c#6 v=0
1164271 Par ch=1 c=64 v=88
1164286 Par ch=1 c=64 v=72
1164306 Par ch=1 c=64 v=56
1164326 Par ch=1 c=64 v=40
1164346 Par ch=1 c=64 v=0
1164461 On ch=1 n=g#4 v=71
1164466 On ch=1 n=f5 v=78
1164471 On ch=1 n=c#6 v=89
1164471 On ch=1 n=c#5 v=89
1164471 On ch=1 n=f4 v=68
1164481 On ch=1 n=g#5 v=69
1164506 On ch=1 n=f4 v=0
1164516 On ch=1 n=g#5 v=0
1164516 On ch=1 n=f5 v=0
1164526 On ch=1 n=c#5 v=0
1164531 On ch=1 n=c#6 v=0
1164531 On ch=1 n=g#4 v=0
1164626 On ch=1 n=c#6 v=86
1164636 On ch=1 n=c#5 v=85
1164636 On ch=1 n=g#5 v=74
1164636 On ch=1 n=g#4 v=67
1164636 On ch=1 n=f5 v=80
1164641 On ch=1 n=f4 v=74
1164671 On ch=1 n=f4 v=0
1164671 On ch=1 n=f5 v=0
1164686 On ch=1 n=g#4 v=0
1164686 On ch=1 n=c#5 v=0
1164686 On ch=1 n=c#6 v=0
1164691 On ch=1 n=g#5 v=0
1164771 On ch=1 n=c#6 v=80
1164771 On ch=1 n=c#5 v=81
1164786 On ch=1 n=g#4 v=58
1164786 On ch=1 n=f5 v=63
1164786 On ch=1 n=g#5 v=58
1164791 On ch=1 n=f4 v=59
1164816 On ch=1 n=g#5 v=0
1164816 On ch=1 n=g#4 v=0
1164821 On ch=1 n=f5 v=0
1164826 On ch=1 n=f4 v=0
1164831 On ch=1 n=c#5 v=0
1164841 On ch=1 n=c#6 v=0
1164906 On ch=1 n=f5 v=62
1164911 On ch=1 n=g#4 v=61
1164911 On ch=1 n=c#5 v=74
1164911 On ch=1 n=c#6 v=76
1164916 On ch=1 n=f4 v=47
1164946 On ch=1 n=f5 v=0
1164946 On ch=1 n=g#5 v=38
1164956 On ch=1 n=f4 v=0
1164956 On ch=1 n=g#4 v=0
1164981 On ch=1 n=g#5 v=0
1164986 On ch=1 n=c#5 v=0
1165001 On ch=1 n=c#6 v=0
1165081 On ch=1 n=d6 v=102
1165081 On ch=1 n=e5 v=94
1165081 On ch=1 n=g#5 v=81
1165086 On ch=1 n=d5 v=93
1165101 On ch=1 n=g#4 v=75
1165101 On ch=1 n=e4 v=72
1165101 Par ch=1 c=64 v=40
1165121 Par ch=1 c=64 v=88
1165131 On ch=1 n=e5 v=0
1165141 Par ch=1 c=64 v=127
1165146 On ch=1 n=e4 v=0
1165146 On ch=1 n=g#4 v=0
1165146 On ch=1 n=d5 v=0
1165166 On ch=1 n=g#5 v=0
1165186 On ch=1 n=d6 v=0
1165236 Par ch=1 c=64 v=88
1165256 Par ch=1 c=64 v=56
1165276 Par ch=1 c=64 v=24
1165296 Par ch=1 c=64 v=0
1165406 On ch=1 n=f6 v=100
1165411 On ch=1 n=f5 v=89
1165411 On ch=1 n=g#5 v=82
1165426 On ch=1 n=f4 v=78
1165431 On ch=1 n=b4 v=77
1165431 On ch=1 n=b3 v=61
1165431 Par ch=1 c=64 v=40
1165446 Par ch=1 c=64 v=72
1165466 On ch=1 n=f5 v=0
1165471 On ch=1 n=b3 v=0
1165471 On ch=1 n=b4 v=0
1165481 On ch=1 n=f4 v=0
1165486 On ch=1 n=g#5 v=0
1165516 On ch=1 n=f6 v=0
1165546 Par ch=1 c=64 v=24
1165561 Par ch=1 c=64 v=0
1165736 On ch=1 n=g#6 v=95
1165736 On ch=1 n=a#4 v=71
1165741 On ch=1 n=d6 v=92
1165746 On ch=1 n=f4 v=80
1165746 On ch=1 n=a#3 v=73
1165746 On ch=1 n=g#5 v=89
1165761 Par ch=1 c=64 v=56
1165776 On ch=1 n=f4 v=0
1165776 Par ch=1 c=64 v=127
1165796 On ch=1 n=a#4 v=0
1165806 On ch=1 n=a#3 v=0
1165821 On ch=1 n=d6 v=0
1165836 On ch=1 n=g#5 v=0
1165871 On ch=1 n=g#6 v=0
1165876 Par ch=1 c=64 v=104
1165896 Par ch=1 c=64 v=88
1165911 Par ch=1 c=64 v=56
1165931 Par ch=1 c=64 v=0
1166066 On ch=1 n=g5 v=90
1166066 On ch=1 n=d#6 v=86
1166071 On ch=1 n=g6 v=95
1166076 On ch=1 n=d#4 v=90
1166081 On ch=1 n=a#3 v=75
1166081 On ch=1 n=d#3 v=72
1166091 Par ch=1 c=64 v=40
1166111 On ch=1 n=a#3 v=0
1166111 Par ch=1 c=64 v=104
1166126 On ch=1 n=g5 v=0
1166126 Par ch=1 c=64 v=127
1166136 On ch=1 n=d#4 v=0
1166151 On ch=1 n=d#3 v=0
1166156 On ch=1 n=d#6 v=0
1166161 On ch=1 n=g6 v=0
1166261 Par ch=1 c=64 v=88
1166281 Par ch=1 c=64 v=40
1166301 Par ch=1 c=64 v=0
1166416 On ch=1 n=a#5 v=93
1166416 On ch=1 n=a#6 v=93
1166426 On ch=1 n=d#6 v=81
1166426 On ch=1 n=c#4 v=85
1166431 On ch=1 n=c#3 v=69
1166441 Par ch=1 c=64 v=40
1166456 Par ch=1 c=64 v=127
1166481 On ch=1 n=c#4 v=0
1166481 On ch=1 n=a#5 v=0
1166496 On ch=1 n=c#3 v=0
1166506 On ch=1 n=d#6 v=0
1166531 On ch=1 n=a#6 v=0
1166591 Par ch=1 c=64 v=88
1166611 Par ch=1 c=64 v=40
1166631 Par ch=1 c=64 v=0
1166756 On ch=1 n=c#7 v=93
1166761 On ch=1 n=c#6 v=97
1166766 On ch=1 n=d#6 v=85
1166771 On ch=1 n=a#6 v=71
1166771 On ch=1 n=g6 v=83
1166771 On ch=1 n=d#3 v=79
1166771 On ch=1 n=a#3 v=91
1166776 On ch=1 n=a#2 v=72
1166786 Par ch=1 c=64 v=88
1166806 Par ch=1 c=64 v=127
1166831 On ch=1 n=a#3 v=0
1166841 On ch=1 n=d#3 v=0
1166846 On ch=1 n=a#2 v=0
1166861 On ch=1 n=g6 v=0
1166876 On ch=1 n=d#6 v=0
1166881 On ch=1 n=a#6 v=0
1166881 On ch=1 n=c#6 v=0
1166911 On ch=1 n=c#7 v=0
1166941 Par ch=1 c=64 v=88
1166956 Par ch=1 c=64 v=56
1166981 Par ch=1 c=64 v=0
1167141 On ch=1 n=c7 v=100
1167146 On ch=1 n=d#6 v=89
1167151 On ch=1 n=g#6 v=85
1167151 On ch=1 n=c6 v=99
1167156 On ch=1 n=g#3 v=81
1167156 On ch=1 n=g#2 v=77
1167156 On ch=1 n=d#3 v=74
1167191 Par ch=1 c=64 v=56
1167211 On ch=1 n=g#3 v=0
1167211 Par ch=1 c=64 v=127
1167216 On ch=1 n=g#2 v=0
1167226 On ch=1 n=d#3 v=0
1167236 On ch=1 n=c6 v=0
1167256 On ch=1 n=d#6 v=0
1167271 On ch=1 n=g#6 v=0
1167276 On ch=1 n=c7 v=0
1168006 Par ch=1 c=64 v=104
1168026 Par ch=1 c=64 v=40
1168046 Par ch=1 c=64 v=0
1168331 On ch=1 n=d#7 v=102
1168331 On ch=1 n=d#6 v=93
1168331 On ch=1 n=d#3 v=69
1168341 On ch=1 n=d#4 v=88
1168356 Par ch=1 c=64 v=127
1168396 On ch=1 n=d#4 v=0
1168396 On ch=1 n=d#3 v=0
1168461 On ch=1 n=d#6 v=0
1168496 On ch=1 n=d#7 v=0
1168711 On ch=1 n=d#7 v=86
1168711 On ch=1 n=a#4 v=45
1168711 On ch=1 n=d#5 v=53
1168721 On ch=1 n=d#6 v=82
1168741 On ch=1 n=g4 v=58
1168776 On ch=1 n=g4 v=0
1168781 On ch=1 n=d#6 v=0
1168781 On ch=1 n=d#7 v=0
1168796 On ch=1 n=d#5 v=0
1168806 On ch=1 n=a#4 v=0
1168876 On ch=1 n=d#7 v=87
1168881 On ch=1 n=d#6 v=87
1168951 On ch=1 n=d#6 v=0
1168956 On ch=1 n=d#7 v=0
1169021 On ch=1 n=g5 v=68
1169021 On ch=1 n=d#5 v=57
1169026 On ch=1 n=a#4 v=58
1169046 On ch=1 n=d#6 v=88
1169046 On ch=1 n=d#7 v=87
1169051 On ch=1 n=g5 v=0
1169061 On ch=1 n=d#5 v=0
1169096 On ch=1 n=a#4 v=0
1169111 On ch=1 n=d#6 v=0
1169116 On ch=1 n=d#7 v=0
1169196 On ch=1 n=d#7 v=87
1169201 On ch=1 n=d#6 v=93
1169281 On ch=1 n=d#6 v=0
1169291 On ch=1 n=d#7 v=0
1169341 Par ch=1 c=64 v=24
1169361 Par ch=1 c=64 v=0
1169371 On ch=1 n=d#7 v=88
1169376 On ch=1 n=f3 v=74
1169376 On ch=1 n=d#6 v=91
1169391 On ch=1 n=f4 v=86
1169411 On ch=1 n=f3 v=0
1169456 On ch=1 n=f4 v=0
1169461 Par ch=1 c=64 v=88
1169476 Par ch=1 c=64 v=127
1169531 On ch=1 n=d#6 v=0
1169556 On ch=1 n=d#7 v=0
1169706 On ch=1 n=c#7 v=85
1169716 On ch=1 n=c#6 v=80
1169731 On ch=1 n=g#4 v=51
1169746 On ch=1 n=c#5 v=44
1169761 On ch=1 n=f4 v=43
1169781 On ch=1 n=c#6 v=0
1169791 On ch=1 n=c#7 v=0
1169801 On ch=1 n=f4 v=0
1169811 On ch=1 n=c#5 v=0
1169831 On ch=1 n=g#4 v=0
1169871 On ch=1 n=c7 v=94
1169886 On ch=1 n=c6 v=84
1169921 On ch=1 n=c6 v=0
1169936 On ch=1 n=c7 v=0
1170031 On ch=1 n=a#6 v=83
1170036 On ch=1 n=a#5 v=83
1170036 On ch=1 n=g#4 v=60
1170041 On ch=1 n=f5 v=36
1170081 On ch=1 n=f5 v=0
1170086 On ch=1 n=g#4 v=0
1170086 On ch=1 n=a#5 v=0
1170091 On ch=1 n=a#6 v=0
1170191 On ch=1 n=g#6 v=85
1170191 On ch=1 n=g#5 v=84
1170261 On ch=1 n=g#5 v=0
1170301 On ch=1 n=g#6 v=0
1170351 Par ch=1 c=64 v=40
1170371 Par ch=1 c=64 v=0
1170381 On ch=1 n=g6 v=92
1170391 On ch=1 n=g5 v=74
1170411 On ch=1 n=g3 v=61
1170426 On ch=1 n=g4 v=48
1170471 On ch=1 n=g5 v=0
1170476 On ch=1 n=g4 v=0
1170491 On ch=1 n=g3 v=0
1170506 Par ch=1 c=64 v=88
1170521 Par ch=1 c=64 v=127
1170596 On ch=1 n=g6 v=0
1170751 On ch=1 n=f4 v=58
1170761 On ch=1 n=g6 v=82
1170761 On ch=1 n=d4 v=52
1170771 On ch=1 n=g5 v=62
1170806 On ch=1 n=d4 v=0
1170806 On ch=1 n=f4 v=0
1170821 On ch=1 n=g5 v=0
1170841 On ch=1 n=g6 v=0
1170926 On ch=1 n=g6 v=81
1170931 On ch=1 n=g5 v=70
1170996 On ch=1 n=g5 v=0
1170996 On ch=1 n=g6 v=0
1171101 On ch=1 n=b4 v=67
1171101 On ch=1 n=d5 v=56
1171116 On ch=1 n=g6 v=85
1171116 On ch=1 n=g5 v=68
1171151 On ch=1 n=b4 v=0
1171156 On ch=1 n=d5 v=0
1171171 On ch=1 n=g5 v=0
1171186 On ch=1 n=g6 v=0
1171281 On ch=1 n=g6 v=82
1171281 On ch=1 n=g5 v=68
1171351 On ch=1 n=g5 v=0
1171356 On ch=1 n=g6 v=0
1171451 Par ch=1 c=64 v=104
1171471 On ch=1 n=g6 v=84
1171476 Par ch=1 c=64 v=0
1171491 On ch=1 n=g5 v=56
1171496 On ch=1 n=c3 v=66
1171516 On ch=1 n=c4 v=59
1171561 On ch=1 n=c3 v=0
1171601 On ch=1 n=c4 v=0
1171611 Par ch=1 c=64 v=72
1171626 Par ch=1 c=64 v=127
1171661 On ch=1 n=g5 v=0
1171766 On ch=1 n=g6 v=0
1171851 On ch=1 n=f6 v=76
1171881 On ch=1 n=d#4 v=50
1171881 On ch=1 n=c4 v=53
1171946 On ch=1 n=d#4 v=0
1171961 On ch=1 n=f6 v=0
1171991 On ch=1 n=c4 v=0
1172006 On ch=1 n=d#6 v=77
1172126 On ch=1 n=d#6 v=0
1172171 On ch=1 n=d6 v=74
1172196 On ch=1 n=c5 v=47
1172201 On ch=1 n=g4 v=50
1172261 On ch=1 n=g4 v=0
1172261 On ch=1 n=c5 v=0
1172291 On ch=1 n=d6 v=0
1172326 On ch=1 n=c6 v=74
1172431 On ch=1 n=c6 v=0
1172506 On ch=1 n=c6 v=71
1172521 On ch=1 n=g#4 v=65
1172521 Par ch=1 c=64 v=88
1172541 Par ch=1 c=64 v=24
1172556 Par ch=1 c=64 v=0
1172671 On ch=1 n=c6 v=0
1172691 On ch=1 n=d#6 v=70
1172691 Par ch=1 c=64 v=40
1172711 Par ch=1 c=64 v=88
1172731 Par ch=1 c=64 v=104
1172751 Par ch=1 c=64 v=127
1172781 On ch=1 n=d#6 v=0
1172861 On ch=1 n=d#6 v=65
1172891 On ch=1 n=d#5 v=34
1172901 On ch=1 n=c5 v=49
1172906 On ch=1 n=f#5 v=25
1172911 On ch=1 n=g#4 v=0
1172946 On ch=1 n=d#6 v=0
1173021 On ch=1 n=d#6 v=65
1173106 On ch=1 n=d#6 v=0
1173156 Par ch=1 c=64 v=88
1173176 Par ch=1 c=64 v=24
1173186 On ch=1 n=a4 v=70
1173186 On ch=1 n=d#6 v=68
1173196 On ch=1 n=c5 v=0
1173196 Par ch=1 c=64 v=0
1173211 On ch=1 n=d#5 v=0
1173276 On ch=1 n=d#6 v=0
1173276 Par ch=1 c=64 v=24
1173291 Par ch=1 c=64 v=72
1173311 Par ch=1 c=64 v=104
1173331 Par ch=1 c=64 v=127
1173351 On ch=1 n=d#6 v=68
1173406 On ch=1 n=a4 v=0
1173446 On ch=1 n=d#6 v=0
1173516 On ch=1 n=d#6 v=62
1173526 On ch=1 n=a#4 v=67
1173546 Par ch=1 c=64 v=104
1173566 Par ch=1 c=64 v=72
1173586 Par ch=1 c=64 v=0
1173611 On ch=1 n=f#5 v=0
1173741 Par ch=1 c=64 v=24
1173756 Par ch=1 c=64 v=56
1173776 Par ch=1 c=64 v=72
1173796 Par ch=1 c=64 v=88
1173856 Par ch=1 c=64 v=0
1173866 On ch=1 n=d#6 v=0
1173906 On ch=1 n=c#5 v=48
1173906 On ch=1 n=c#6 v=65
1173916 On ch=1 n=f5 v=48
1173971 Par ch=1 c=64 v=24
1173991 Par ch=1 c=64 v=56
1174011 Par ch=1 c=64 v=88
1174026 On ch=1 n=c#6 v=0
1174031 Par ch=1 c=64 v=104
1174046 On ch=1 n=c#5 v=0
1174051 Par ch=1 c=64 v=127
1174066 On ch=1 n=c6 v=78
1174091 On ch=1 n=f5 v=0
1174186 On ch=1 n=c6 v=0
1174186 Par ch=1 c=64 v=56
1174206 Par ch=1 c=64 v=24
1174221 Par ch=1 c=64 v=0
1174226 On ch=1 n=a#5 v=62
1174246 On ch=1 n=c#5 v=39
1174246 On ch=1 n=f5 v=43
1174261 Par ch=1 c=64 v=40
1174281 Par ch=1 c=64 v=56
1174301 Par ch=1 c=64 v=88
1174321 Par ch=1 c=64 v=104
1174341 Par ch=1 c=64 v=127
1174346 On ch=1 n=a#5 v=0
1174361 On ch=1 n=a#4 v=0
1174401 On ch=1 n=g#5 v=64
1174496 On ch=1 n=c#5 v=0
1174516 On ch=1 n=g#5 v=0
1174571 Par ch=1 c=64 v=104
1174591 Par ch=1 c=64 v=56
1174596 On ch=1 n=g5 v=65
1174611 On ch=1 n=b4 v=54
1174611 Par ch=1 c=64 v=0
1174696 On ch=1 n=f5 v=0
1174786 Par ch=1 c=64 v=24
1174806 On ch=1 n=g5 v=0
1174806 Par ch=1 c=64 v=72
1174826 Par ch=1 c=64 v=104
1174841 Par ch=1 c=64 v=127
1174941 Par ch=1 c=64 v=88
1174956 Par ch=1 c=64 v=24
1174976 On ch=1 n=g5 v=68
1174976 Par ch=1 c=64 v=0
1174986 On ch=1 n=f5 v=37
1174991 On ch=1 n=d5 v=45
1175036 Par ch=1 c=64 v=24
1175051 On ch=1 n=g5 v=0
1175056 Par ch=1 c=64 v=56
1175076 Par ch=1 c=64 v=88
1175096 Par ch=1 c=64 v=127
1175126 On ch=1 n=d5 v=0
1175131 On ch=1 n=f5 v=0
1175131 On ch=1 n=g5 v=64
1175231 On ch=1 n=g5 v=0
1175311 On ch=1 n=g5 v=61
1175326 On ch=1 n=d5 v=41
1175331 On ch=1 n=f5 v=41
1175401 On ch=1 n=g5 v=0
1175426 On ch=1 n=b4 v=0
1175491 On ch=1 n=g5 v=63
1175501 On ch=1 n=f5 v=0
1175516 On ch=1 n=d5 v=0
1175581 On ch=1 n=g5 v=0
1175671 On ch=1 n=g5 v=45
1175696 On ch=1 n=c5 v=62
1175696 Par ch=1 c=64 v=56
1175711 On ch=1 n=f5 v=49
1175716 Par ch=1 c=64 v=0
1175831 Par ch=1 c=64 v=24
1175851 Par ch=1 c=64 v=56
1175871 On ch=1 n=c6 v=71
1175871 Par ch=1 c=64 v=88
1175881 On ch=1 n=g5 v=0
1175886 Par ch=1 c=64 v=127
1175981 On ch=1 n=f5 v=0
1176061 Par ch=1 c=64 v=104
1176101 Par ch=1 c=64 v=88
1176121 Par ch=1 c=64 v=56
1176126 On ch=1 n=e5 v=54
1176141 Par ch=1 c=64 v=0
1176316 Par ch=1 c=64 v=24
1176331 Par ch=1 c=64 v=40
1176351 Par ch=1 c=64 v=56
1176371 Par ch=1 c=64 v=72
1176391 Par ch=1 c=64 v=88
1176491 Par ch=1 c=64 v=56
1176506 Par ch=1 c=64 v=0
1176581 On ch=1 n=d#5 v=42
1176591 On ch=1 n=e5 v=0
1176681 Par ch=1 c=64 v=56
1176701 Par ch=1 c=64 v=88
1176721 Par ch=1 c=64 v=104
1176741 Par ch=1 c=64 v=127
1176811 On ch=1 n=c6 v=0
1176846 On ch=1 n=d#5 v=0
1176956 Par ch=1 c=64 v=72
1176971 Par ch=1 c=64 v=0
1176981 On ch=1 n=d#5 v=17
1177041 On ch=1 n=g#6 v=77
1177086 Par ch=1 c=64 v=24
1177106 Par ch=1 c=64 v=72
1177126 On ch=1 n=c5 v=0
1177126 Par ch=1 c=64 v=127
1177141 On ch=1 n=d#5 v=0
1177171 On ch=1 n=g#6 v=0
1177266 On ch=1 n=c6 v=74
1177381 Par ch=1 c=64 v=104
1177396 Par ch=1 c=64 v=24
1177416 Par ch=1 c=64 v=0
1177456 On ch=1 n=g#3 v=59
1177516 Par ch=1 c=64 v=56
1177536 On ch=1 n=g#3 v=0
1177536 Par ch=1 c=64 v=127
1177651 Par ch=1 c=64 v=104
1177671 Par ch=1 c=64 v=56
1177691 Par ch=1 c=64 v=0
1177906 On ch=1 n=c5 v=49
1177911 On ch=1 n=g#4 v=40
1177921 On ch=1 n=d#4 v=46
1177971 On ch=1 n=c5 v=0
1177991 On ch=1 n=g#4 v=0
1177996 Par ch=1 c=64 v=40
1178011 On ch=1 n=d#4 v=0
1178016 Par ch=1 c=64 v=88
1178036 Par ch=1 c=64 v=127
1178156 Par ch=1 c=64 v=104
1178171 Par ch=1 c=64 v=24
1178191 Par ch=1 c=64 v=0
1178271 On ch=1 n=g#3 v=53
1178286 On ch=1 n=b5 v=75
1178291 Par ch=1 c=64 v=56
1178306 On ch=1 n=c6 v=0
1178306 Par ch=1 c=64 v=127
1178316 On ch=1 n=g#3 v=0
1178426 Par ch=1 c=64 v=104
1178446 On ch=1 n=b5 v=0
1178446 Par ch=1 c=64 v=72
1178461 On ch=1 n=g6 v=82
1178461 Par ch=1 c=64 v=40
1178481 Par ch=1 c=64 v=0
1178621 On ch=1 n=g#4 v=46
1178641 On ch=1 n=f4 v=54
1178641 On ch=1 n=d5 v=45
1178681 On ch=1 n=f4 v=0
1178691 On ch=1 n=d5 v=0
1178706 On ch=1 n=g#4 v=0
1179096 On ch=1 n=g6 v=0
1179101 Par ch=1 c=64 v=40
1179106 On ch=1 n=g#4 v=40
1179111 On ch=1 n=f6 v=77
1179116 On ch=1 n=f4 v=48
1179116 On ch=1 n=d5 v=44
1179121 Par ch=1 c=64 v=88
1179141 Par ch=1 c=64 v=127
1179171 On ch=1 n=d5 v=0
1179201 On ch=1 n=f4 v=0
1179201 On ch=1 n=g#4 v=0
1179316 Par ch=1 c=64 v=104
1179336 Par ch=1 c=64 v=40
1179356 Par ch=1 c=64 v=0
1179446 On ch=1 n=f6 v=0
1179451 On ch=1 n=d#6 v=77
1179456 On ch=1 n=g#3 v=55
1179471 Par ch=1 c=64 v=72
1179491 Par ch=1 c=64 v=127
1179516 On ch=1 n=g#3 v=0
1179591 On ch=1 n=d#6 v=0
1179606 On ch=1 n=a5 v=71
1179606 Par ch=1 c=64 v=104
1179626 Par ch=1 c=64 v=72
1179646 Par ch=1 c=64 v=24
1179666 Par ch=1 c=64 v=0
1179776 On ch=1 n=g4 v=57
1179776 On ch=1 n=d#4 v=47
1179776 On ch=1 n=c#5 v=39
1179821 On ch=1 n=g4 v=0
1179846 On ch=1 n=c#5 v=0
1179856 On ch=1 n=d#4 v=0
1180091 Par ch=1 c=64 v=40
1180111 Par ch=1 c=64 v=72
1180116 On ch=1 n=a5 v=0
1180116 On ch=1 n=a#5 v=75
1180116 On ch=1 n=c#5 v=56
1180121 On ch=1 n=g4 v=60
1180131 On ch=1 n=d#4 v=59
1180131 Par ch=1 c=64 v=104
1180146 Par ch=1 c=64 v=127
1180156 On ch=1 n=g4 v=0
1180166 Par ch=1 c=64 v=104
1180186 On ch=1 n=c#5 v=0
1180186 Par ch=1 c=64 v=72
1180206 On ch=1 n=d#4 v=0
1180206 Par ch=1 c=64 v=40
1180226 Par ch=1 c=64 v=24
1180286 Par ch=1 c=64 v=56
1180301 Par ch=1 c=64 v=72
1180321 Par ch=1 c=64 v=88
1180341 Par ch=1 c=64 v=104
1180401 Par ch=1 c=64 v=72
1180421 Par ch=1 c=64 v=0
1180466 On ch=1 n=g#3 v=67
1180491 On ch=1 n=c6 v=79
1180526 On ch=1 n=a#5 v=0
1180536 On ch=1 n=g#3 v=0
1180556 Par ch=1 c=64 v=24
1180576 Par ch=1 c=64 v=40
1180591 Par ch=1 c=64 v=56
1180601 On ch=1 n=c6 v=0
1180641 On ch=1 n=g5 v=75
1180671 Par ch=1 c=64 v=0
1180806 On ch=1 n=d#4 v=51
1180811 On ch=1 n=g#4 v=40
1180816 On ch=1 n=c5 v=49
1180826 Par ch=1 c=64 v=24
1180846 Par ch=1 c=64 v=56
1180866 On ch=1 n=c5 v=0
1180881 On ch=1 n=g#4 v=0
1180926 On ch=1 n=d#4 v=0
1180981 Par ch=1 c=64 v=40
1181001 Par ch=1 c=64 v=24
1181021 Par ch=1 c=64 v=0
1181126 On ch=1 n=g5 v=0
1181126 On ch=1 n=g#5 v=83
1181141 On ch=1 n=d#4 v=67
1181156 On ch=1 n=g#4 v=49
1181156 Par ch=1 c=64 v=24
1181161 On ch=1 n=c5 v=53
1181176 Par ch=1 c=64 v=72
1181191 Par ch=1 c=64 v=104
1181201 On ch=1 n=g#4 v=0
1181206 On ch=1 n=c5 v=0
1181211 On ch=1 n=d#4 v=0
1181211 Par ch=1 c=64 v=127
1181251 On ch=1 n=g#5 v=0
1181346 Par ch=1 c=64 v=56
1181371 Par ch=1 c=64 v=0
1181491 On ch=1 n=c#6 v=93
1181496 On ch=1 n=g#4 v=71
1181501 On ch=1 n=f5 v=74
1181501 On ch=1 n=c#5 v=77
1181501 On ch=1 n=f4 v=69
1181501 On ch=1 n=g#5 v=76
1181506 Par ch=1 c=64 v=56
1181521 Par ch=1 c=64 v=104
1181541 On ch=1 n=f4 v=0
1181541 Par ch=1 c=64 v=127
1181566 On ch=1 n=g#4 v=0
1181571 On ch=1 n=c#5 v=0
1181576 On ch=1 n=f5 v=0
1181601 On ch=1 n=g#5 v=0
1181621 On ch=1 n=c#6 v=0
1181661 Par ch=1 c=64 v=104
1181776 Par ch=1 c=64 v=72
1181796 Par ch=1 c=64 v=40
1181811 Par ch=1 c=64 v=24
1181821 On ch=1 n=g#4 v=69
1181826 On ch=1 n=c#6 v=88
1181826 On ch=1 n=f5 v=74
1181831 On ch=1 n=c#5 v=84
1181836 On ch=1 n=g#5 v=69
1181836 Par ch=1 c=64 v=0
1181846 On ch=1 n=f4 v=55
1181866 On ch=1 n=f5 v=0
1181876 On ch=1 n=f4 v=0
1181876 On ch=1 n=g#5 v=0
1181881 On ch=1 n=g#4 v=0
1181886 On ch=1 n=c#5 v=0
1181891 On ch=1 n=c#6 v=0
1181971 On ch=1 n=c#6 v=83
1181976 On ch=1 n=f5 v=74
1181981 On ch=1 n=c#5 v=84
1181981 On ch=1 n=g#4 v=61
1181981 On ch=1 n=f4 v=59
1181986 On ch=1 n=g#5 v=71
1182016 On ch=1 n=f4 v=0
1182021 On ch=1 n=f5 v=0
1182031 On ch=1 n=g#5 v=0
1182031 On ch=1 n=g#4 v=0
1182036 On ch=1 n=c#5 v=0
1182051 On ch=1 n=c#6 v=0
1182121 On ch=1 n=c#6 v=74
1182121 On ch=1 n=c#5 v=77
1182131 On ch=1 n=f5 v=72
1182136 On ch=1 n=g#4 v=56
1182141 On ch=1 n=f4 v=68
1182151 On ch=1 n=g#5 v=40
1182171 On ch=1 n=f4 v=0
1182171 On ch=1 n=f5 v=0
1182181 On ch=1 n=g#5 v=0
1182181 On ch=1 n=g#4 v=0
1182186 On ch=1 n=c#5 v=0
1182201 On ch=1 n=c#6 v=0
1182266 On ch=1 n=c#6 v=82
1182271 On ch=1 n=c#5 v=72
1182271 On ch=1 n=f5 v=70
1182276 On ch=1 n=g#4 v=57
1182286 On ch=1 n=f4 v=61
1182301 On ch=1 n=g#5 v=65
1182306 On ch=1 n=f5 v=0
1182326 On ch=1 n=g#4 v=0
1182336 On ch=1 n=c#5 v=0
1182351 On ch=1 n=f4 v=0
1182366 On ch=1 n=g#5 v=0
1182366 On ch=1 n=c#6 v=0
1182441 On ch=1 n=d6 v=102
1182446 On ch=1 n=e5 v=100
1182446 On ch=1 n=g#4 v=66
1182451 On ch=1 n=g#5 v=80
1182456 On ch=1 n=d5 v=92
1182471 On ch=1 n=e4 v=70
1182491 Par ch=1 c=64 v=56
1182501 On ch=1 n=e4 v=0
1182501 On ch=1 n=g#4 v=0
1182501 On ch=1 n=e5 v=0
1182511 On ch=1 n=d5 v=0
1182511 Par ch=1 c=64 v=127
1182526 On ch=1 n=g#5 v=0
1182556 On ch=1 n=d6 v=0
1182626 Par ch=1 c=64 v=104
1182646 Par ch=1 c=64 v=72
1182666 Par ch=1 c=64 v=40
1182686 Par ch=1 c=64 v=0
1182791 On ch=1 n=f6 v=100
1182796 On ch=1 n=g#5 v=78
1182796 On ch=1 n=f5 v=85
1182801 On ch=1 n=d6 v=80
1182811 On ch=1 n=b3 v=78
1182811 On ch=1 n=f4 v=84
1182816 On ch=1 n=b4 v=80
1182841 Par ch=1 c=64 v=56
1182856 On ch=1 n=f5 v=0
1182861 Par ch=1 c=64 v=104
1182871 On ch=1 n=b4 v=0
1182871 On ch=1 n=g#5 v=0
1182881 On ch=1 n=f4 v=0
1182881 On ch=1 n=b3 v=0
1182881 On ch=1 n=d6 v=0
1182881 Par ch=1 c=64 v=127
1182901 On ch=1 n=f6 v=0
1182936 Par ch=1 c=64 v=104
1182956 Par ch=1 c=64 v=72
1182976 Par ch=1 c=64 v=24
1182996 Par ch=1 c=64 v=0
1183126 On ch=1 n=g#6 v=99
1183126 On ch=1 n=a#4 v=75
1183131 On ch=1 n=a#5 v=85
1183131 On ch=1 n=f4 v=79
1183136 On ch=1 n=d6 v=93
1183136 On ch=1 n=a#3 v=73
1183136 On ch=1 n=g#5 v=87
1183151 Par ch=1 c=64 v=24
1183166 On ch=1 n=f4 v=0
1183171 Par ch=1 c=64 v=72
1183191 On ch=1 n=a#4 v=0
1183191 Par ch=1 c=64 v=127
1183201 On ch=1 n=a#3 v=0
1183206 On ch=1 n=g#5 v=0
1183216 On ch=1 n=a#5 v=0
1183221 On ch=1 n=d6 v=0
1183271 On ch=1 n=g#6 v=0
1183306 Par ch=1 c=64 v=104
1183326 Par ch=1 c=64 v=72
1183341 Par ch=1 c=64 v=0
1183471 On ch=1 n=g6 v=102
1183471 On ch=1 n=d#4 v=90
1183471 On ch=1 n=d#6 v=88
1183476 On ch=1 n=a#5 v=85
1183476 On ch=1 n=g5 v=94
1183476 On ch=1 n=d#3 v=71
1183481 On ch=1 n=a#3 v=71
1183501 Par ch=1 c=64 v=40
1183516 On ch=1 n=a#3 v=0
1183516 Par ch=1 c=64 v=104
1183531 On ch=1 n=d#4 v=0
1183536 On ch=1 n=g5 v=0
1183536 On ch=1 n=a#5 v=0
1183541 Par ch=1 c=64 v=127
1183546 On ch=1 n=d#3 v=0
1183576 On ch=1 n=d#6 v=0
1183576 On ch=1 n=g6 v=0
1183691 Par ch=1 c=64 v=72
1183711 Par ch=1 c=64 v=0
1183811 On ch=1 n=a#6 v=92
1183811 On ch=1 n=a#5 v=97
1183811 On ch=1 n=g6 v=94
1183821 On ch=1 n=d#6 v=83
1183821 On ch=1 n=c#4 v=89
1183821 On ch=1 n=c#3 v=72
1183846 Par ch=1 c=64 v=56
1183866 Par ch=1 c=64 v=127
1183876 On ch=1 n=a#5 v=0
1183886 On ch=1 n=c#3 v=0
1183886 On ch=1 n=c#4 v=0
1183891 On ch=1 n=d#6 v=0
1183931 On ch=1 n=a#6 v=0
1183936 On ch=1 n=g6 v=0
1184006 Par ch=1 c=64 v=88
1184021 Par ch=1 c=64 v=40
1184041 Par ch=1 c=64 v=0
1184156 On ch=1 n=c#7 v=95
1184166 On ch=1 n=c#6 v=97
1184166 On ch=1 n=d#6 v=87
1184166 On ch=1 n=d#3 v=81
1184166 On ch=1 n=g6 v=59
1184166 On ch=1 n=a#3 v=92
1184166 On ch=1 n=a#2 v=76
1184166 On ch=1 n=a#6 v=79
1184201 On ch=1 n=g6 v=0
1184216 Par ch=1 c=64 v=104
1184221 On ch=1 n=a#3 v=0
1184221 On ch=1 n=d#3 v=0
1184236 Par ch=1 c=64 v=127
1184241 On ch=1 n=a#2 v=0
1184271 On ch=1 n=d#6 v=0
1184271 On ch=1 n=c#6 v=0
1184281 On ch=1 n=a#6 v=0
1184311 On ch=1 n=c#7 v=0
1184391 Par ch=1 c=64 v=72
1184406 Par ch=1 c=64 v=24
1184426 Par ch=1 c=64 v=0
1184576 On ch=1 n=c7 v=102
1184576 On ch=1 n=g#3 v=88
1184576 On ch=1 n=d#6 v=87
1184581 On ch=1 n=d#3 v=79
1184581 On ch=1 n=g#2 v=70
1184581 On ch=1 n=c6 v=97
1184581 On ch=1 n=g#6 v=83
1184641 Par ch=1 c=64 v=127
1184721 On ch=1 n=g#2 v=0
1184726 On ch=1 n=c6 v=0
1184731 On ch=1 n=d#3 v=0
1184731 On ch=1 n=c7 v=0
1184741 On ch=1 n=g#6 v=0
1184741 On ch=1 n=g#3 v=0
1184746 On ch=1 n=d#6 v=0
1185436 Par ch=1 c=64 v=104
1185456 Par ch=1 c=64 v=88
1185476 Par ch=1 c=64 v=56
1185496 Par ch=1 c=64 v=0
1188001 On ch=1 n=f4 v=67
1188026 On ch=1 n=f4 v=0
1188136 On ch=1 n=g#7 v=85
1188146 On ch=1 n=g#5 v=61
1188146 On ch=1 n=c6 v=64
1188171 On ch=1 n=c6 v=0
1188171 On ch=1 n=g#5 v=0
1188251 On ch=1 n=g#7 v=0
1188276 On ch=1 n=g#4 v=57
1188281 On ch=1 n=g#6 v=73
1188301 On ch=1 n=g#4 v=0
1188351 On ch=1 n=g#6 v=0
1188401 On ch=1 n=g#5 v=60
1188406 On ch=1 n=c6 v=57
1188411 On ch=1 n=f7 v=83
1188431 On ch=1 n=c6 v=0
1188436 On ch=1 n=g#5 v=0
1188496 On ch=1 n=f7 v=0
1188541 On ch=1 n=f6 v=68
1188541 On ch=1 n=a#4 v=53
1188591 On ch=1 n=a#4 v=0
1188596 On ch=1 n=f6 v=0
1188666 On ch=1 n=c#7 v=89
1188671 On ch=1 n=a#5 v=54
1188676 On ch=1 n=f5 v=54
1188711 On ch=1 n=f5 v=0
1188716 On ch=1 n=a#5 v=0
1188751 On ch=1 n=c#7 v=0
1188791 On ch=1 n=c#6 v=60
1188821 On ch=1 n=c#5 v=46
1188826 On ch=1 n=c#6 v=0
1188856 On ch=1 n=c#5 v=0
1188936 On ch=1 n=f7 v=87
1188941 On ch=1 n=a#5 v=47
1188946 On ch=1 n=f5 v=50
1188966 On ch=1 n=f5 v=0
1188976 On ch=1 n=a#5 v=0
1189046 On ch=1 n=f7 v=0
1189081 On ch=1 n=f6 v=72
1189081 On ch=1 n=d#4 v=69
1189116 On ch=1 n=d#4 v=0
1189126 On ch=1 n=f6 v=0
1189221 On ch=1 n=g7 v=87
1189231 On ch=1 n=a#5 v=58
1189236 On ch=1 n=d#5 v=53
1189261 On ch=1 n=d#5 v=0
1189271 On ch=1 n=a#5 v=0
1189311 On ch=1 n=g7 v=0
1189361 On ch=1 n=g6 v=66
1189371 On ch=1 n=g4 v=59
1189391 On ch=1 n=g4 v=0
1189416 On ch=1 n=g6 v=0
1189496 On ch=1 n=d#7 v=85
1189506 On ch=1 n=a#5 v=50
1189511 On ch=1 n=d#5 v=46
1189536 On ch=1 n=d#5 v=0
1189541 On ch=1 n=a#5 v=0
1189596 On ch=1 n=d#7 v=0
1189626 On ch=1 n=d#6 v=68
1189636 On ch=1 n=g#4 v=57
1189686 On ch=1 n=g#4 v=0
1189706 On ch=1 n=d#6 v=0
1189766 On ch=1 n=c7 v=82
1189771 On ch=1 n=g#5 v=51
1189781 On ch=1 n=d#5 v=42
1189811 On ch=1 n=d#5 v=0
1189831 On ch=1 n=g#5 v=0
1189871 On ch=1 n=c7 v=0
1189901 On ch=1 n=c6 v=75
1189921 On ch=1 n=c5 v=47
1189946 On ch=1 n=c6 v=0
1189961 On ch=1 n=c5 v=0
1190036 On ch=1 n=g#5 v=57
1190041 On ch=1 n=d#7 v=85
1190051 On ch=1 n=d#5 v=36
1190071 On ch=1 n=d#5 v=0
1190071 On ch=1 n=g#5 v=0
1190136 On ch=1 n=d#7 v=0
1190176 On ch=1 n=d#6 v=83
1190176 On ch=1 n=c#4 v=64
1190211 On ch=1 n=c#4 v=0
1190236 On ch=1 n=d#6 v=0
1190316 On ch=1 n=f7 v=86
1190321 On ch=1 n=c#5 v=51
1190321 On ch=1 n=f5 v=52
1190356 On ch=1 n=c#5 v=0
1190361 On ch=1 n=f5 v=0
1190406 On ch=1 n=f7 v=0
1190446 On ch=1 n=f6 v=72
1190456 On ch=1 n=f4 v=59
1190481 On ch=1 n=f4 v=0
1190506 On ch=1 n=f6 v=0
1190576 On ch=1 n=c#7 v=85
1190591 On ch=1 n=c#5 v=55
1190596 On ch=1 n=f5 v=46
1190636 On ch=1 n=f5 v=0
1190646 On ch=1 n=c#5 v=0
1190681 On ch=1 n=c#7 v=0
1190706 On ch=1 n=c#6 v=68
1190721 On ch=1 n=g4 v=64
1190766 On ch=1 n=g4 v=0
1190771 On ch=1 n=c#6 v=0
1190851 On ch=1 n=a#6 v=78
1190851 On ch=1 n=c#5 v=55
1190851 On ch=1 n=f5 v=60
1190881 On ch=1 n=c#5 v=0
1190886 On ch=1 n=f5 v=0
1190946 On ch=1 n=a#6 v=0
1190981 On ch=1 n=a#5 v=71
1190991 On ch=1 n=c4 v=69
1191011 On ch=1 n=c4 v=0
1191036 On ch=1 n=a#5 v=0
1191121 On ch=1 n=c7 v=85
1191131 On ch=1 n=e5 v=57
1191161 On ch=1 n=e5 v=0
1191206 On ch=1 n=c7 v=0
1191256 On ch=1 n=c6 v=70
1191271 On ch=1 n=f4 v=63
1191316 On ch=1 n=f4 v=0
1191316 On ch=1 n=c6 v=0
1191391 On ch=1 n=g#6 v=78
1191391 On ch=1 n=c5 v=65
1191396 On ch=1 n=f5 v=60
1191426 On ch=1 n=c5 v=0
1191436 On ch=1 n=f5 v=0
1191486 On ch=1 n=g#6 v=0
1191521 On ch=1 n=g#5 v=64
1191531 On ch=1 n=c4 v=68
1191551 On ch=1 n=c4 v=0
1191556 On ch=1 n=g#5 v=0
1191656 On ch=1 n=c7 v=82
1191666 On ch=1 n=f5 v=55
1191666 On ch=1 n=c5 v=63
1191691 On ch=1 n=c5 v=0
1191701 On ch=1 n=f5 v=0
1191741 On ch=1 n=c7 v=0
1191786 On ch=1 n=c6 v=62
1191806 On ch=1 n=g4 v=60
1191826 On ch=1 n=g4 v=0
1191851 On ch=1 n=c6 v=0
1191926 On ch=1 n=g6 v=74
1191936 On ch=1 n=e5 v=54
1191941 On ch=1 n=c5 v=47
1191966 Par ch=1 c=64 v=40
1191971 On ch=1 n=e5 v=0
1191976 Par ch=1 c=64 v=56
1191981 On ch=1 n=c5 v=0
1191986 Par ch=1 c=64 v=88
1192026 On ch=1 n=g6 v=0
1192046 On ch=1 n=g5 v=60
1192046 On ch=1 n=c4 v=50
1192061 Par ch=1 c=64 v=56
1192081 Par ch=1 c=64 v=40
1192086 On ch=1 n=g6 v=37
1192091 On ch=1 n=g5 v=0
1192101 On ch=1 n=c4 v=0
1192106 Par ch=1 c=64 v=24
1192111 On ch=1 n=g6 v=0
1192131 Par ch=1 c=64 v=0
1192191 On ch=1 n=c7 v=81
1192196 On ch=1 n=e5 v=36
1192196 On ch=1 n=c5 v=41
1192246 On ch=1 n=e5 v=0
1192256 On ch=1 n=c5 v=0
1192326 On ch=1 n=c6 v=63
1192341 On ch=1 n=f4 v=53
1192351 On ch=1 n=c6 v=0
1192366 On ch=1 n=f4 v=0
1192391 On ch=1 n=c7 v=0
1192486 On ch=1 n=g#7 v=92
1192496 On ch=1 n=g#5 v=58
1192501 On ch=1 n=c6 v=61
1192516 On ch=1 n=g#5 v=0
1192531 On ch=1 n=c6 v=0
1192571 On ch=1 n=g#7 v=0
1192626 On ch=1 n=g#6 v=71
1192631 On ch=1 n=g#4 v=59
1192661 On ch=1 n=g#4 v=0
1192701 On ch=1 n=g#6 v=0
1192761 On ch=1 n=f7 v=83
1192761 On ch=1 n=c6 v=62
1192761 On ch=1 n=g#5 v=58
1192791 On ch=1 n=g#5 v=0
1192796 On ch=1 n=c6 v=0
1192846 On ch=1 n=f7 v=0
1192896 On ch=1 n=f6 v=64
1192896 On ch=1 n=a#4 v=56
1192936 On ch=1 n=f6 v=0
1192951 On ch=1 n=a#4 v=0
1193026 On ch=1 n=c#7 v=80
1193031 On ch=1 n=a#5 v=46
1193036 On ch=1 n=f5 v=56
1193061 On ch=1 n=f5 v=0
1193076 On ch=1 n=a#5 v=0
1193111 On ch=1 n=c#7 v=0
1193151 On ch=1 n=c#6 v=54
1193166 On ch=1 n=c#5 v=46
1193186 On ch=1 n=c#6 v=0
1193236 On ch=1 n=c#5 v=0
1193291 On ch=1 n=a#5 v=49
1193296 On ch=1 n=f7 v=82
1193301 On ch=1 n=f5 v=55
1193326 On ch=1 n=f5 v=0
1193336 On ch=1 n=a#5 v=0
1193396 On ch=1 n=f7 v=0
1193436 On ch=1 n=f6 v=71
1193441 On ch=1 n=d#4 v=60
1193466 On ch=1 n=d#4 v=0
1193481 On ch=1 n=f6 v=0
1193576 On ch=1 n=g7 v=85
1193586 On ch=1 n=a#5 v=53
1193596 On ch=1 n=d#5 v=43
1193616 On ch=1 n=d#5 v=0
1193631 On ch=1 n=a#5 v=0
1193666 On ch=1 n=g7 v=0
1193716 On ch=1 n=g6 v=62
1193726 On ch=1 n=g4 v=59
1193746 On ch=1 n=g4 v=0
1193751 On ch=1 n=g6 v=0
1193856 On ch=1 n=d#7 v=80
1193866 On ch=1 n=a#5 v=47
1193871 On ch=1 n=d#5 v=50
1193896 On ch=1 n=d#5 v=0
1193906 On ch=1 n=a#5 v=0
1193946 On ch=1 n=d#7 v=0
1193986 On ch=1 n=d#6 v=65
1193991 On ch=1 n=g#4 v=58
1194046 On ch=1 n=g#4 v=0
1194056 On ch=1 n=d#6 v=0
1194121 On ch=1 n=c7 v=81
1194131 On ch=1 n=g#5 v=54
1194141 On ch=1 n=d#5 v=43
1194166 On ch=1 n=d#5 v=0
1194186 On ch=1 n=g#5 v=0
1194221 On ch=1 n=c7 v=0
1194256 On ch=1 n=c6 v=66
1194281 On ch=1 n=c5 v=51
1194296 On ch=1 n=c6 v=0
1194316 On ch=1 n=c5 v=0
1194396 On ch=1 n=g#5 v=54
1194401 On ch=1 n=d#7 v=85
1194406 On ch=1 n=d#5 v=38
1194426 On ch=1 n=g#5 v=0
1194431 On ch=1 n=d#5 v=0
1194491 On ch=1 n=d#7 v=0
1194531 On ch=1 n=c#4 v=69
1194536 On ch=1 n=d#6 v=82
1194571 On ch=1 n=c#4 v=0
1194591 On ch=1 n=d#6 v=0
1194671 On ch=1 n=f7 v=86
1194676 On ch=1 n=f5 v=64
1194676 On ch=1 n=c#5 v=61
1194716 On ch=1 n=c#5 v=0
1194726 On ch=1 n=f5 v=0
1194756 On ch=1 n=f7 v=0
1194811 On ch=1 n=f6 v=56
1194811 On ch=1 n=f4 v=64
1194836 On ch=1 n=f4 v=0
1194841 On ch=1 n=f6 v=0
1194941 On ch=1 n=c#7 v=78
1194946 On ch=1 n=c#5 v=69
1194951 On ch=1 n=f5 v=62
1195006 On ch=1 n=f5 v=0
1195006 On ch=1 n=c#5 v=0
1195041 On ch=1 n=c#7 v=0
1195076 On ch=1 n=c#6 v=61
1195076 On ch=1 n=g4 v=71
1195136 On ch=1 n=c#6 v=0
1195141 On ch=1 n=g4 v=0
1195216 On ch=1 n=c#5 v=67
1195221 On ch=1 n=a#6 v=73
1195221 On ch=1 n=f5 v=64
1195251 On ch=1 n=f5 v=0
1195256 On ch=1 n=c#5 v=0
1195311 On ch=1 n=a#6 v=0
1195346 On ch=1 n=a#5 v=64
1195371 On ch=1 n=c4 v=47
1195396 On ch=1 n=a#5 v=0
1195421 On ch=1 n=c4 v=0
1195486 On ch=1 n=c7 v=80
1195496 On ch=1 n=e5 v=61
1195496 On ch=1 n=c5 v=63
1195521 On ch=1 n=c5 v=0
1195526 On ch=1 n=e5 v=0
1195566 On ch=1 n=c7 v=0
1195621 On ch=1 n=c6 v=64
1195636 On ch=1 n=f4 v=59
1195661 On ch=1 n=f4 v=0
1195681 On ch=1 n=c6 v=0
1195766 On ch=1 n=g#6 v=74
1195766 On ch=1 n=c5 v=65
1195771 On ch=1 n=f5 v=51
1195796 On ch=1 n=f5 v=0
1195796 On ch=1 n=c5 v=0
1195851 On ch=1 n=g#6 v=0
1195901 On ch=1 n=g#5 v=62
1195906 On ch=1 n=c4 v=73
1195941 On ch=1 n=g#5 v=0
1195951 On ch=1 n=c4 v=0
1196036 On ch=1 n=c7 v=77
1196041 On ch=1 n=c5 v=69
1196046 On ch=1 n=f5 v=48
1196076 On ch=1 n=f5 v=0
1196091 On ch=1 n=c5 v=0
1196116 On ch=1 n=c7 v=0
1196166 On ch=1 n=c6 v=59
1196176 On ch=1 n=g4 v=56
1196206 On ch=1 n=g4 v=0
1196226 On ch=1 n=c6 v=0
1196311 On ch=1 n=g6 v=70
1196311 On ch=1 n=e5 v=51
1196311 On ch=1 n=c5 v=52
1196311 Par ch=1 c=64 v=40
1196326 Par ch=1 c=64 v=56
1196336 On ch=1 n=c5 v=0
1196336 Par ch=1 c=64 v=72
1196341 On ch=1 n=e5 v=0
1196406 On ch=1 n=g6 v=0
1196436 On ch=1 n=g5 v=56
1196441 Par ch=1 c=64 v=88
1196446 On ch=1 n=c4 v=68
1196471 On ch=1 n=g5 v=0
1196491 On ch=1 n=c4 v=0
1196561 Par ch=1 c=64 v=104
1196586 On ch=1 n=e5 v=55
1196591 On ch=1 n=c5 v=60
1196596 Par ch=1 c=64 v=127
1196601 On ch=1 n=c7 v=68
1196616 On ch=1 n=c5 v=0
1196616 On ch=1 n=e5 v=0
1196686 On ch=1 n=c7 v=0
1196751 On ch=1 n=g#3 v=53
1196756 On ch=1 n=c6 v=58
1196781 Par ch=1 c=64 v=88
1196796 Par ch=1 c=64 v=0
1196826 On ch=1 n=g#3 v=0
1196876 Par ch=1 c=64 v=56
1196891 Par ch=1 c=64 v=127
1196911 On ch=1 n=c6 v=0
1196916 On ch=1 n=c7 v=74
1196921 On ch=1 n=c5 v=44
1196931 On ch=1 n=g#4 v=34
1196956 On ch=1 n=g#4 v=0
1196956 On ch=1 n=c5 v=0
1196966 On ch=1 n=c7 v=0
1197056 On ch=1 n=d#4 v=52
1197071 On ch=1 n=g#5 v=50
1197141 On ch=1 n=g#5 v=0
1197151 On ch=1 n=d#4 v=0
1197201 On ch=1 n=g#6 v=71
1197201 On ch=1 n=g#4 v=44
1197206 On ch=1 n=c5 v=42
1197226 On ch=1 n=g#4 v=0
1197231 On ch=1 n=c5 v=0
1197271 On ch=1 n=g#6 v=0
1197331 On ch=1 n=c6 v=69
1197331 On ch=1 n=g#3 v=56
1197386 On ch=1 n=g#3 v=0
1197436 On ch=1 n=c6 v=0
1197441 Par ch=1 c=64 v=72
1197456 Par ch=1 c=64 v=0
1197476 On ch=1 n=c7 v=77
1197481 On ch=1 n=c5 v=52
1197486 On ch=1 n=g#4 v=48
1197516 Par ch=1 c=64 v=56
1197526 Par ch=1 c=64 v=127
1197531 On ch=1 n=g#4 v=0
1197541 On ch=1 n=c5 v=0
1197556 On ch=1 n=c7 v=0
1197596 On ch=1 n=c6 v=70
1197616 On ch=1 n=e4 v=62
1197671 On ch=1 n=c6 v=0
1197691 On ch=1 n=e4 v=0
1197751 On ch=1 n=g6 v=75
1197751 On ch=1 n=g#4 v=47
1197756 On ch=1 n=c5 v=46
1197781 On ch=1 n=c5 v=0
1197781 On ch=1 n=g#4 v=0
1197861 On ch=1 n=g6 v=0
1197886 On ch=1 n=g5 v=57
1197886 On ch=1 n=g#3 v=55
1197926 On ch=1 n=g5 v=0
1197931 On ch=1 n=g#3 v=0
1198011 Par ch=1 c=64 v=88
1198021 Par ch=1 c=64 v=40
1198026 On ch=1 n=c5 v=58
1198026 On ch=1 n=c7 v=80
1198031 Par ch=1 c=64 v=0
1198036 On ch=1 n=g#4 v=51
1198066 On ch=1 n=g#4 v=0
1198081 Par ch=1 c=64 v=40
1198086 On ch=1 n=c5 v=0
1198091 Par ch=1 c=64 v=104
1198101 Par ch=1 c=64 v=127
1198126 On ch=1 n=c7 v=0
1198166 On ch=1 n=c6 v=68
1198171 On ch=1 n=f4 v=58
1198231 On ch=1 n=c6 v=0
1198251 On ch=1 n=f4 v=0
1198301 On ch=1 n=g#4 v=55
1198306 On ch=1 n=f6 v=76
1198306 On ch=1 n=c5 v=52
1198331 On ch=1 n=c5 v=0
1198346 On ch=1 n=g#4 v=0
1198421 On ch=1 n=f6 v=0
1198431 On ch=1 n=f5 v=66
1198431 On ch=1 n=g#3 v=65
1198476 On ch=1 n=g#3 v=0
1198476 On ch=1 n=f5 v=0
1198576 Par ch=1 c=64 v=88
1198581 On ch=1 n=c5 v=54
1198586 On ch=1 n=c7 v=86
1198586 On ch=1 n=a4 v=57
1198586 Par ch=1 c=64 v=24
1198596 Par ch=1 c=64 v=0
1198616 On ch=1 n=a4 v=0
1198641 On ch=1 n=c5 v=0
1198656 Par ch=1 c=64 v=72
1198666 Par ch=1 c=64 v=127
1198676 On ch=1 n=c7 v=0
1198716 On ch=1 n=c6 v=60
1198726 On ch=1 n=f4 v=55
1198786 On ch=1 n=c6 v=0
1198801 On ch=1 n=f4 v=0
1198856 On ch=1 n=a4 v=59
1198861 On ch=1 n=d#6 v=71
1198861 On ch=1 n=c5 v=49
1198886 On ch=1 n=c5 v=0
1198896 On ch=1 n=a4 v=0
1198936 On ch=1 n=d#6 v=0
1198991 On ch=1 n=g#3 v=58
1199021 On ch=1 n=g#3 v=0
1199121 On ch=1 n=c#5 v=59
1199121 On ch=1 n=c#7 v=88
1199136 On ch=1 n=a#4 v=44
1199141 Par ch=1 c=64 v=88
1199151 Par ch=1 c=64 v=0
1199171 On ch=1 n=a#4 v=0
1199191 On ch=1 n=c#5 v=0
1199221 Par ch=1 c=64 v=88
1199231 On ch=1 n=c#7 v=0
1199236 Par ch=1 c=64 v=127
1199261 On ch=1 n=c#6 v=65
1199281 On ch=1 n=f4 v=56
1199301 On ch=1 n=c#6 v=0
1199361 On ch=1 n=f4 v=0
1199406 On ch=1 n=f6 v=82
1199406 On ch=1 n=a#4 v=47
1199406 On ch=1 n=c#5 v=44
1199436 On ch=1 n=a#4 v=0
1199441 On ch=1 n=c#5 v=0
1199506 On ch=1 n=f6 v=0
1199531 On ch=1 n=f5 v=69
1199541 On ch=1 n=g#3 v=59
1199556 On ch=1 n=f6 v=28
1199576 On ch=1 n=f5 v=0
1199586 On ch=1 n=g#3 v=0
1199601 On ch=1 n=f6 v=0
1199671 On ch=1 n=c#5 v=60
1199671 Par ch=1 c=64 v=72
1199681 On ch=1 n=c#7 v=86
1199681 Par ch=1 c=64 v=0
1199686 On ch=1 n=a#4 v=44
1199716 On ch=1 n=a#4 v=0
1199731 On ch=1 n=c#5 v=0
1199741 Par ch=1 c=64 v=40
1199751 Par ch=1 c=64 v=104
1199766 Par ch=1 c=64 v=127
1199786 On ch=1 n=c#7 v=0
1199816 On ch=1 n=c#6 v=71
1199826 On ch=1 n=f#4 v=58
1199901 On ch=1 n=c#6 v=0
1199911 On ch=1 n=f#4 v=0
1199961 On ch=1 n=e6 v=79
1199961 On ch=1 n=a#4 v=45
1199961 On ch=1 n=c#5 v=46
1199991 On ch=1 n=a#4 v=0
1200001 On ch=1 n=c#5 v=0
1200021 On ch=1 n=e6 v=0
1200091 On ch=1 n=e5 v=71
1200106 On ch=1 n=g#3 v=51
1200126 On ch=1 n=g#3 v=0
1200131 On ch=1 n=e5 v=0
1200236 On ch=1 n=c#7 v=85
1200236 On ch=1 n=c#5 v=60
1200236 Par ch=1 c=64 v=72
1200246 Par ch=1 c=64 v=0
1200251 On ch=1 n=a#4 v=40
1200316 On ch=1 n=c#5 v=0
1200316 Par ch=1 c=64 v=24
1200321 On ch=1 n=c#7 v=0
1200326 On ch=1 n=a#4 v=0
1200331 Par ch=1 c=64 v=104
1200341 Par ch=1 c=64 v=127
1200361 On ch=1 n=c#6 v=67
1200391 On ch=1 n=g4 v=60
1200446 On ch=1 n=c#6 v=0
1200461 On ch=1 n=g4 v=0
1200506 On ch=1 n=d#6 v=74
1200511 On ch=1 n=a#4 v=49
1200511 On ch=1 n=c#5 v=47
1200541 On ch=1 n=a#4 v=0
1200551 On ch=1 n=c#5 v=0
1200586 On ch=1 n=d#6 v=0
1200626 On ch=1 n=d#5 v=65
1200651 On ch=1 n=d#5 v=0
1200651 On ch=1 n=g#3 v=57
1200681 On ch=1 n=g#3 v=0
1200786 On ch=1 n=c7 v=83
1200786 On ch=1 n=c#5 v=55
1200796 On ch=1 n=a#4 v=49
1200811 Par ch=1 c=64 v=72
1200826 Par ch=1 c=64 v=0
1200866 On ch=1 n=c#5 v=0
1200891 On ch=1 n=a#4 v=0
1200906 Par ch=1 c=64 v=56
1200921 Par ch=1 c=64 v=127
1200931 On ch=1 n=c6 v=60
1200936 On ch=1 n=g#4 v=47
1200946 On ch=1 n=c7 v=0
1200996 On ch=1 n=c6 v=0
1201011 On ch=1 n=g#4 v=0
1201066 On ch=1 n=a#6 v=73
1201071 On ch=1 n=a#4 v=46
1201071 On ch=1 n=c#5 v=45
1201096 On ch=1 n=a#4 v=0
1201131 On ch=1 n=c#5 v=0
1201166 On ch=1 n=a#6 v=0
1201201 On ch=1 n=a#5 v=55
1201201 On ch=1 n=g#3 v=55
1201256 On ch=1 n=g#3 v=0
1201256 On ch=1 n=a#5 v=0
1201331 Par ch=1 c=64 v=56
1201341 Par ch=1 c=64 v=0
1201346 On ch=1 n=c7 v=81
1201346 On ch=1 n=c5 v=54
1201346 On ch=1 n=g#4 v=51
1201406 On ch=1 n=g#4 v=0
1201416 On ch=1 n=c5 v=0
1201416 Par ch=1 c=64 v=40
1201426 Par ch=1 c=64 v=104
1201436 Par ch=1 c=64 v=127
1201446 On ch=1 n=c7 v=0
1201486 On ch=1 n=d#4 v=62
1201491 On ch=1 n=c6 v=58
1201556 On ch=1 n=c6 v=0
1201576 On ch=1 n=d#4 v=0
1201631 On ch=1 n=g#6 v=77
1201631 On ch=1 n=g#4 v=56
1201636 On ch=1 n=c5 v=56
1201661 On ch=1 n=c5 v=0
1201681 On ch=1 n=g#4 v=0
1201731 On ch=1 n=g#6 v=0
1201756 On ch=1 n=g#5 v=57
1201776 On ch=1 n=g#3 v=42
1201791 On ch=1 n=g#5 v=0
1201796 On ch=1 n=g#3 v=0
1201886 Par ch=1 c=64 v=88
1201896 Par ch=1 c=64 v=40
1201906 On ch=1 n=c5 v=51
1201911 Par ch=1 c=64 v=0
1201916 On ch=1 n=c7 v=82
1201926 On ch=1 n=g#4 v=39
1201966 Par ch=1 c=64 v=40
1201981 Par ch=1 c=64 v=104
1201986 On ch=1 n=c5 v=0
1201991 Par ch=1 c=64 v=127
1202006 On ch=1 n=g#4 v=0
1202011 On ch=1 n=c7 v=0
1202046 On ch=1 n=c6 v=71
1202056 On ch=1 n=e4 v=59
1202116 On ch=1 n=c6 v=0
1202136 On ch=1 n=e4 v=0
1202191 On ch=1 n=g#4 v=61
1202201 On ch=1 n=g6 v=79
1202201 On ch=1 n=c5 v=42
1202231 On ch=1 n=c5 v=0
1202246 On ch=1 n=g#4 v=0
1202316 On ch=1 n=g6 v=0
1202331 On ch=1 n=g#3 v=63
1202336 On ch=1 n=g5 v=70
1202376 On ch=1 n=g5 v=0
1202376 On ch=1 n=g#3 v=0
1202451 Par ch=1 c=64 v=72
1202461 Par ch=1 c=64 v=0
1202476 On ch=1 n=c5 v=59
1202476 On ch=1 n=c7 v=84
1202481 On ch=1 n=g#4 v=55
1202516 On ch=1 n=g#4 v=0
1202521 Par ch=1 c=64 v=56
1202531 On ch=1 n=c5 v=0
1202531 Par ch=1 c=64 v=127
1202566 On ch=1 n=c7 v=0
1202606 On ch=1 n=c6 v=74
1202611 On ch=1 n=f4 v=60
1202671 On ch=1 n=c6 v=0
1202686 On ch=1 n=f4 v=0
1202746 On ch=1 n=g#4 v=56
1202756 On ch=1 n=c5 v=52
1202756 On ch=1 n=f6 v=78
1202781 On ch=1 n=c5 v=0
1202796 On ch=1 n=g#4 v=0
1202861 On ch=1 n=f6 v=0
1202886 On ch=1 n=f5 v=69
1202886 On ch=1 n=g#3 v=62
1202921 On ch=1 n=f5 v=0
1202926 On ch=1 n=g#3 v=0
1203026 On ch=1 n=c5 v=60
1203026 On ch=1 n=c7 v=88
1203026 Par ch=1 c=64 v=72
1203036 On ch=1 n=a4 v=61
1203041 Par ch=1 c=64 v=0
1203061 On ch=1 n=a4 v=0
1203096 On ch=1 n=c5 v=0
1203111 Par ch=1 c=64 v=88
1203116 On ch=1 n=c7 v=0
1203121 Par ch=1 c=64 v=127
1203161 On ch=1 n=c6 v=67
1203171 On ch=1 n=f4 v=52
1203231 On ch=1 n=c6 v=0
1203251 On ch=1 n=f4 v=0
1203301 On ch=1 n=a4 v=60
1203311 On ch=1 n=d#6 v=72
1203316 On ch=1 n=c5 v=47
1203331 On ch=1 n=a4 v=0
1203341 On ch=1 n=c5 v=0
1203401 On ch=1 n=d#6 v=0
1203446 On ch=1 n=g#3 v=67
1203446 On ch=1 n=d#5 v=58
1203486 On ch=1 n=g#3 v=0
1203501 On ch=1 n=d#5 v=0
1203581 On ch=1 n=c#5 v=71
1203591 On ch=1 n=c#7 v=80
1203591 On ch=1 n=a#4 v=60
1203606 Par ch=1 c=64 v=104
1203616 Par ch=1 c=64 v=40
1203631 Par ch=1 c=64 v=0
1203676 On ch=1 n=c#5 v=0
1203696 On ch=1 n=a#4 v=0
1203701 Par ch=1 c=64 v=56
1203711 Par ch=1 c=64 v=127
1203716 On ch=1 n=c#7 v=0
1203726 On ch=1 n=f4 v=59
1203731 On ch=1 n=c#6 v=69
1203791 On ch=1 n=c#6 v=0
1203811 On ch=1 n=f4 v=0
1203866 On ch=1 n=a#4 v=48
1203871 On ch=1 n=c#5 v=46
1203876 On ch=1 n=f6 v=84
1203901 On ch=1 n=a#4 v=0
1203916 On ch=1 n=c#5 v=0
1203986 On ch=1 n=f6 v=0
1204001 On ch=1 n=g#3 v=63
1204011 On ch=1 n=f5 v=71
1204046 On ch=1 n=f5 v=0
1204051 On ch=1 n=g#3 v=0
1204146 On ch=1 n=c#5 v=64
1204146 Par ch=1 c=64 v=56
1204156 On ch=1 n=c#7 v=84
1204161 On ch=1 n=a#4 v=54
1204161 Par ch=1 c=64 v=0
1204191 On ch=1 n=a#4 v=0
1204206 On ch=1 n=c#5 v=0
1204231 Par ch=1 c=64 v=88
1204241 Par ch=1 c=64 v=127
1204256 On ch=1 n=c#7 v=0
1204286 On ch=1 n=c#6 v=69
1204291 On ch=1 n=f#4 v=57
1204361 On ch=1 n=c#6 v=0
1204381 On ch=1 n=f#4 v=0
1204431 On ch=1 n=e6 v=82
1204431 On ch=1 n=a#4 v=50
1204431 On ch=1 n=c#5 v=51
1204471 On ch=1 n=a#4 v=0
1204481 On ch=1 n=c#5 v=0
1204501 On ch=1 n=e6 v=0
1204571 On ch=1 n=e5 v=66
1204571 On ch=1 n=g#3 v=61
1204601 On ch=1 n=e5 v=0
1204616 On ch=1 n=g#3 v=0
1204711 On ch=1 n=c#7 v=82
1204711 On ch=1 n=c#5 v=62
1204711 Par ch=1 c=64 v=104
1204726 On ch=1 n=a#4 v=44
1204726 Par ch=1 c=64 v=40
1204736 Par ch=1 c=64 v=0
1204751 On ch=1 n=a#4 v=0
1204776 On ch=1 n=c#5 v=0
1204806 Par ch=1 c=64 v=88
1204811 On ch=1 n=c#7 v=0
1204821 Par ch=1 c=64 v=127
1204841 On ch=1 n=c#6 v=63
1204861 On ch=1 n=g4 v=61
1204916 On ch=1 n=c#6 v=0
1204926 On ch=1 n=g4 v=0
1204986 On ch=1 n=a#4 v=54
1204991 On ch=1 n=c#5 v=49
1204991 On ch=1 n=d#6 v=71
1205031 On ch=1 n=c#5 v=0
1205031 On ch=1 n=a#4 v=0
1205066 On ch=1 n=d#6 v=0
1205106 On ch=1 n=d#5 v=64
1205121 On ch=1 n=g#3 v=64
1205136 On ch=1 n=d#5 v=0
1205151 On ch=1 n=g#3 v=0
1205256 On ch=1 n=c#5 v=60
1205266 Par ch=1 c=64 v=88
1205271 On ch=1 n=c7 v=76
1205271 On ch=1 n=a#4 v=51
1205281 Par ch=1 c=64 v=24
1205291 Par ch=1 c=64 v=0
1205326 On ch=1 n=c#5 v=0
1205351 On ch=1 n=a#4 v=0
1205371 Par ch=1 c=64 v=56
1205386 Par ch=1 c=64 v=104
1205396 On ch=1 n=c7 v=0
1205396 Par ch=1 c=64 v=127
1205406 On ch=1 n=c6 v=67
1205411 On ch=1 n=g#4 v=52
1205491 On ch=1 n=c6 v=0
1205506 On ch=1 n=g#4 v=0
1205551 On ch=1 n=c#5 v=46
1205551 On ch=1 n=a#4 v=43
1205556 On ch=1 n=a#6 v=71
1205576 On ch=1 n=a#4 v=0
1205601 On ch=1 n=c#5 v=0
1205621 Par ch=1 c=64 v=104
1205631 Par ch=1 c=64 v=40
1205646 Par ch=1 c=64 v=0
1205651 On ch=1 n=a#6 v=0
1205686 On ch=1 n=a#5 v=69
1205691 On ch=1 n=g#3 v=44
1205711 On ch=1 n=g#3 v=0
1205716 Par ch=1 c=64 v=40
1205726 Par ch=1 c=64 v=72
1205736 Par ch=1 c=64 v=88
1205741 On ch=1 n=a#5 v=0
1205776 Par ch=1 c=64 v=56
1205786 Par ch=1 c=64 v=24
1205796 Par ch=1 c=64 v=0
1205826 On ch=1 n=c5 v=56
1205826 On ch=1 n=c7 v=82
1205826 On ch=1 n=g#4 v=49
1205856 Par ch=1 c=64 v=40
1205881 On ch=1 n=g#4 v=0
1205891 On ch=1 n=c5 v=0
1205901 Par ch=1 c=64 v=0
1205911 On ch=1 n=c7 v=0
1205961 On ch=1 n=c6 v=72
1205971 On ch=1 n=c4 v=66
1205971 Par ch=1 c=64 v=24
1206026 On ch=1 n=c4 v=0
1206031 Par ch=1 c=64 v=0
1206041 On ch=1 n=c6 v=0
1206106 On ch=1 n=g#6 v=81
1206111 On ch=1 n=g#4 v=47
1206116 On ch=1 n=c5 v=37
1206116 Par ch=1 c=64 v=24
1206151 On ch=1 n=c5 v=0
1206166 On ch=1 n=g#4 v=0
1206186 Par ch=1 c=64 v=0
1206211 On ch=1 n=g#6 v=0
1206231 Par ch=1 c=64 v=24
1206246 Par ch=1 c=64 v=40
1206251 On ch=1 n=g#5 v=65
1206256 On ch=1 n=d#4 v=55
1206256 Par ch=1 c=64 v=56
1206316 Par ch=1 c=64 v=0
1206326 On ch=1 n=d#4 v=0
1206341 On ch=1 n=g#5 v=0
1206376 Par ch=1 c=64 v=40
1206391 On ch=1 n=g6 v=78
1206391 On ch=1 n=a#4 v=46
1206396 On ch=1 n=g4 v=62
1206421 On ch=1 n=g4 v=0
1206436 Par ch=1 c=64 v=0
1206461 On ch=1 n=a#4 v=0
1206521 On ch=1 n=g5 v=69
1206526 Par ch=1 c=64 v=40
1206536 On ch=1 n=e4 v=63
1206566 On ch=1 n=g5 v=0
1206576 Par ch=1 c=64 v=0
1206586 On ch=1 n=g6 v=0
1206606 On ch=1 n=e4 v=0
1206646 Par ch=1 c=64 v=40
1206656 Par ch=1 c=64 v=56
1206666 On ch=1 n=c#5 v=58
1206671 Par ch=1 c=64 v=72
1206681 On ch=1 n=a#6 v=79
1206681 On ch=1 n=a#4 v=39
1206681 Par ch=1 c=64 v=88
1206741 On ch=1 n=a#4 v=0
1206751 Par ch=1 c=64 v=0
1206756 On ch=1 n=c#5 v=0
1206786 On ch=1 n=a#6 v=0
1206811 On ch=1 n=f4 v=62
1206816 On ch=1 n=a#5 v=71
1206821 Par ch=1 c=64 v=24
1206836 Par ch=1 c=64 v=72
1206846 Par ch=1 c=64 v=88
1206881 Par ch=1 c=64 v=0
1206911 On ch=1 n=a#5 v=0
1206931 On ch=1 n=f4 v=0
1206951 On ch=1 n=g#6 v=77
1206956 On ch=1 n=c5 v=54
1206956 On ch=1 n=g#4 v=48
1206976 Par ch=1 c=64 v=56
1206981 On ch=1 n=c5 v=0
1206986 Par ch=1 c=64 v=88
1206991 On ch=1 n=g#4 v=0
1207001 Par ch=1 c=64 v=72
1207011 Par ch=1 c=64 v=24
1207021 Par ch=1 c=64 v=0
1207066 On ch=1 n=g#6 v=0
1207086 On ch=1 n=a#3 v=65
1207091 On ch=1 n=g#5 v=69
1207106 Par ch=1 c=64 v=40
1207136 On ch=1 n=a#3 v=0
1207141 Par ch=1 c=64 v=0
1207186 On ch=1 n=g#5 v=0
1207221 On ch=1 n=c#5 v=55
1207226 On ch=1 n=g6 v=80
1207231 On ch=1 n=a#4 v=42
1207231 Par ch=1 c=64 v=24
1207261 On ch=1 n=a#4 v=0
1207276 On ch=1 n=c#5 v=0
1207291 Par ch=1 c=64 v=0
1207316 On ch=1 n=g6 v=0
1207336 Par ch=1 c=64 v=24
1207346 Par ch=1 c=64 v=40
1207356 On ch=1 n=g5 v=60
1207361 On ch=1 n=c4 v=66
1207361 Par ch=1 c=64 v=72
1207381 On ch=1 n=c4 v=0
1207416 Par ch=1 c=64 v=40
1207421 On ch=1 n=g5 v=0
1207431 Par ch=1 c=64 v=24
1207446 Par ch=1 c=64 v=0
1207456 Par ch=1 c=64 v=24
1207466 Par ch=1 c=64 v=40
1207481 Par ch=1 c=64 v=56
1207486 On ch=1 n=f6 v=86
1207491 On ch=1 n=g#4 v=48
1207491 On ch=1 n=c5 v=50
1207491 Par ch=1 c=64 v=72
1207536 Par ch=1 c=64 v=0
1207541 On ch=1 n=g#4 v=0
1207546 On ch=1 n=c5 v=0
1207591 On ch=1 n=f6 v=0
1207596 Par ch=1 c=64 v=24
1207611 Par ch=1 c=64 v=40
1207621 Par ch=1 c=64 v=56
1207626 On ch=1 n=f5 v=59
1207631 Par ch=1 c=64 v=72
1207641 On ch=1 n=c4 v=39
1207666 Par ch=1 c=64 v=24
1207681 Par ch=1 c=64 v=0
1207691 On ch=1 n=c4 v=0
1207701 On ch=1 n=f5 v=0
1207751 Par ch=1 c=64 v=24
1207761 On ch=1 n=e6 v=77
1207761 Par ch=1 c=64 v=56
1207766 On ch=1 n=a#4 v=46
1207776 On ch=1 n=g4 v=52
1207796 On ch=1 n=g4 v=0
1207796 Par ch=1 c=64 v=0
1207826 On ch=1 n=a#4 v=0
1207881 Par ch=1 c=64 v=40
1207891 On ch=1 n=e5 v=72
1207891 Par ch=1 c=64 v=72
1207901 Par ch=1 c=64 v=88
1207906 On ch=1 n=g#3 v=62
1207916 Par ch=1 c=64 v=104
1207926 Par ch=1 c=64 v=127
1207936 On ch=1 n=e5 v=0
1207966 On ch=1 n=g#3 v=0
1207966 On ch=1 n=e6 v=0
1207996 Par ch=1 c=64 v=72
1208011 Par ch=1 c=64 v=0
1208041 On ch=1 n=c7 v=88
1208056 On ch=1 n=c5 v=61
1208056 Par ch=1 c=64 v=40
1208066 On ch=1 n=g#4 v=46
1208066 Par ch=1 c=64 v=72
1208081 Par ch=1 c=64 v=104
1208091 On ch=1 n=g#4 v=0
1208091 On ch=1 n=c5 v=0
1208091 Par ch=1 c=64 v=127
1208111 On ch=1 n=c7 v=0
1208141 Par ch=1 c=64 v=72
1208151 Par ch=1 c=64 v=40
1208161 Par ch=1 c=64 v=0
1208171 On ch=1 n=c6 v=64
1208191 On ch=1 n=c4 v=68
1208211 Par ch=1 c=64 v=24
1208236 On ch=1 n=c4 v=0
1208241 On ch=1 n=c6 v=0
1208246 Par ch=1 c=64 v=0
1208321 On ch=1 n=g#6 v=82
1208326 On ch=1 n=c5 v=55
1208331 On ch=1 n=g#4 v=47
1208366 On ch=1 n=g#4 v=0
1208371 On ch=1 n=c5 v=0
1208416 On ch=1 n=g#6 v=0
1208456 Par ch=1 c=64 v=24
1208461 On ch=1 n=d#4 v=56
1208461 On ch=1 n=g#5 v=69
1208466 Par ch=1 c=64 v=56
1208526 On ch=1 n=d#4 v=0
1208526 Par ch=1 c=64 v=0
1208536 On ch=1 n=g#5 v=0
1208576 Par ch=1 c=64 v=24
1208586 Par ch=1 c=64 v=56
1208591 On ch=1 n=g6 v=82
1208596 Par ch=1 c=64 v=72
1208601 On ch=1 n=a#4 v=37
1208606 On ch=1 n=g4 v=58
1208611 Par ch=1 c=64 v=88
1208646 Par ch=1 c=64 v=40
1208651 On ch=1 n=g4 v=0
1208656 Par ch=1 c=64 v=0
1208671 On ch=1 n=a#4 v=0
1208706 Par ch=1 c=64 v=24
1208711 On ch=1 n=g6 v=0
1208716 Par ch=1 c=64 v=40
1208721 On ch=1 n=g5 v=65
1208726 Par ch=1 c=64 v=72
1208741 On ch=1 n=g6 v=16
1208741 On ch=1 n=e4 v=59
1208761 Par ch=1 c=64 v=24
1208766 On ch=1 n=g5 v=0
1208776 Par ch=1 c=64 v=0
1208786 On ch=1 n=g6 v=0
1208801 On ch=1 n=e4 v=0
1208836 Par ch=1 c=64 v=40
1208846 Par ch=1 c=64 v=72
1208856 Par ch=1 c=64 v=88
1208861 On ch=1 n=c#5 v=53
1208871 On ch=1 n=a#6 v=80
1208871 On ch=1 n=a#4 v=43
1208916 Par ch=1 c=64 v=56
1208926 Par ch=1 c=64 v=24
1208931 On ch=1 n=c#5 v=0
1208936 On ch=1 n=a#4 v=0
1208941 Par ch=1 c=64 v=0
1208971 On ch=1 n=a#6 v=0
1209001 On ch=1 n=f4 v=59
1209001 On ch=1 n=a#5 v=67
1209001 Par ch=1 c=64 v=40
1209011 Par ch=1 c=64 v=72
1209046 Par ch=1 c=64 v=24
1209056 Par ch=1 c=64 v=0
1209076 On ch=1 n=a#5 v=0
1209111 On ch=1 n=f4 v=0
1209116 Par ch=1 c=64 v=40
1209131 On ch=1 n=g#6 v=78
1209131 Par ch=1 c=64 v=72
1209136 On ch=1 n=g#4 v=51
1209141 On ch=1 n=c5 v=54
1209141 Par ch=1 c=64 v=88
1209171 On ch=1 n=c5 v=0
1209176 Par ch=1 c=64 v=56
1209181 On ch=1 n=g#4 v=0
1209186 Par ch=1 c=64 v=0
1209241 On ch=1 n=g#6 v=0
1209256 Par ch=1 c=64 v=24
1209271 Par ch=1 c=64 v=56
1209276 On ch=1 n=g#5 v=67
1209276 On ch=1 n=a#3 v=64
1209281 Par ch=1 c=64 v=72
1209316 Par ch=1 c=64 v=24
1209321 On ch=1 n=a#3 v=0
1209326 Par ch=1 c=64 v=0
1209356 On ch=1 n=g#5 v=0
1209401 Par ch=1 c=64 v=40
1209411 Par ch=1 c=64 v=72
1209416 On ch=1 n=g6 v=80
1209421 On ch=1 n=c#5 v=58
1209421 On ch=1 n=a#4 v=50
1209421 Par ch=1 c=64 v=88
1209456 On ch=1 n=a#4 v=0
1209461 On ch=1 n=c#5 v=0
1209471 Par ch=1 c=64 v=0
1209511 On ch=1 n=g6 v=0
1209541 Par ch=1 c=64 v=40
1209551 On ch=1 n=c4 v=64
1209551 On ch=1 n=g5 v=66
1209551 Par ch=1 c=64 v=56
1209566 Par ch=1 c=64 v=72
1209601 Par ch=1 c=64 v=24
1209611 On ch=1 n=c4 v=0
1209611 Par ch=1 c=64 v=0
1209641 On ch=1 n=g5 v=0
1209671 Par ch=1 c=64 v=40
1209681 Par ch=1 c=64 v=72
1209686 On ch=1 n=f6 v=78
1209691 On ch=1 n=c5 v=60
1209691 On ch=1 n=g#4 v=50
1209696 Par ch=1 c=64 v=88
1209716 On ch=1 n=g#4 v=0
1209726 On ch=1 n=c5 v=0
1209741 Par ch=1 c=64 v=56
1209751 Par ch=1 c=64 v=0
1209786 On ch=1 n=f6 v=0
1209811 Par ch=1 c=64 v=24
1209821 On ch=1 n=f5 v=62
1209821 Par ch=1 c=64 v=56
1209831 On ch=1 n=c4 v=55
1209836 Par ch=1 c=64 v=88
1209861 On ch=1 n=c4 v=0
1209871 Par ch=1 c=64 v=56
1209881 Par ch=1 c=64 v=0
1209921 On ch=1 n=f5 v=0
1209951 Par ch=1 c=64 v=24
1209961 On ch=1 n=e6 v=77
1209966 Par ch=1 c=64 v=56
1209971 On ch=1 n=a#4 v=39
1209976 On ch=1 n=g4 v=44
1209976 Par ch=1 c=64 v=72
1210001 On ch=1 n=g4 v=0
1210006 On ch=1 n=a#4 v=0
1210011 Par ch=1 c=64 v=0
1210096 Par ch=1 c=64 v=24
1210101 On ch=1 n=e5 v=73
1210106 Par ch=1 c=64 v=40
1210116 Par ch=1 c=64 v=56
1210131 On ch=1 n=f3 v=50
1210146 On ch=1 n=e5 v=0
1210151 Par ch=1 c=64 v=40
1210166 Par ch=1 c=64 v=24
1210176 On ch=1 n=f3 v=0
1210181 On ch=1 n=e6 v=0
1210191 Par ch=1 c=64 v=0
1210251 On ch=1 n=g#6 v=78
1210256 On ch=1 n=c5 v=53
1210261 On ch=1 n=g#4 v=46
1210261 Par ch=1 c=64 v=24
1210281 On ch=1 n=g#4 v=0
1210281 On ch=1 n=c5 v=0
1210306 Par ch=1 c=64 v=0
1210351 On ch=1 n=g#6 v=0
1210356 Par ch=1 c=64 v=24
1210366 Par ch=1 c=64 v=56
1210376 Par ch=1 c=64 v=72
1210386 On ch=1 n=g#3 v=64
1210391 On ch=1 n=g#5 v=71
1210391 Par ch=1 c=64 v=88
1210401 Par ch=1 c=64 v=104
1210426 On ch=1 n=g#3 v=0
1210446 Par ch=1 c=64 v=72
1210461 On ch=1 n=g#5 v=0
1210461 Par ch=1 c=64 v=40
1210471 Par ch=1 c=64 v=0
1210521 Par ch=1 c=64 v=24
1210526 On ch=1 n=g#4 v=55
1210526 On ch=1 n=f6 v=82
1210526 On ch=1 n=c5 v=55
1210531 Par ch=1 c=64 v=40
1210541 Par ch=1 c=64 v=72
1210556 On ch=1 n=c5 v=0
1210556 On ch=1 n=g#4 v=0
1210556 Par ch=1 c=64 v=88
1210591 Par ch=1 c=64 v=40
1210601 Par ch=1 c=64 v=0
1210611 On ch=1 n=f6 v=0
1210661 On ch=1 n=f5 v=67
1210666 On ch=1 n=a#3 v=57
1210671 Par ch=1 c=64 v=40
1210686 Par ch=1 c=64 v=72
1210726 On ch=1 n=a#3 v=0
1210731 On ch=1 n=f5 v=0
1210731 Par ch=1 c=64 v=40
1210741 Par ch=1 c=64 v=0
1210796 On ch=1 n=c#6 v=78
1210801 Par ch=1 c=64 v=40
1210806 On ch=1 n=a#4 v=34
1210806 On ch=1 n=f4 v=56
1210816 Par ch=1 c=64 v=72
1210826 Par ch=1 c=64 v=88
1210836 On ch=1 n=f4 v=0
1210856 On ch=1 n=a#4 v=0
1210861 Par ch=1 c=64 v=0
1210896 On ch=1 n=c#6 v=0
1210921 Par ch=1 c=64 v=24
1210931 On ch=1 n=c#5 v=58
1210931 Par ch=1 c=64 v=56
1210941 Par ch=1 c=64 v=88
1210946 On ch=1 n=c#4 v=50
1210956 On ch=1 n=c#5 v=0
1210956 Par ch=1 c=64 v=104
1210991 Par ch=1 c=64 v=72
1211001 Par ch=1 c=64 v=40
1211011 Par ch=1 c=64 v=0
1211041 On ch=1 n=c#4 v=0
1211061 Par ch=1 c=64 v=40
1211071 On ch=1 n=f6 v=78
1211071 Par ch=1 c=64 v=72
1211081 On ch=1 n=a#4 v=38
1211081 On ch=1 n=f4 v=55
1211086 Par ch=1 c=64 v=88
1211096 Par ch=1 c=64 v=104
1211101 On ch=1 n=f4 v=0
1211111 On ch=1 n=a#4 v=0
1211131 Par ch=1 c=64 v=24
1211141 Par ch=1 c=64 v=0
1211191 On ch=1 n=f6 v=0
1211211 On ch=1 n=f5 v=73
1211211 On ch=1 n=d#3 v=55
1211211 Par ch=1 c=64 v=24
1211226 Par ch=1 c=64 v=72
1211236 Par ch=1 c=64 v=88
1211266 On ch=1 n=d#3 v=0
1211266 On ch=1 n=f5 v=0
1211281 Par ch=1 c=64 v=0
1211351 On ch=1 n=a#4 v=65
1211356 On ch=1 n=g6 v=82
1211361 On ch=1 n=d#4 v=67
1211381 Par ch=1 c=64 v=72
1211391 Par ch=1 c=64 v=127
1211406 On ch=1 n=d#4 v=0
1211406 On ch=1 n=a#4 v=0
1211436 Par ch=1 c=64 v=24
1211451 On ch=1 n=g6 v=0
1211451 Par ch=1 c=64 v=0
1211491 On ch=1 n=g5 v=66
1211496 On ch=1 n=g3 v=57
1211506 Par ch=1 c=64 v=40
1211521 Par ch=1 c=64 v=72
1211531 Par ch=1 c=64 v=88
1211536 On ch=1 n=g3 v=0
1211546 Par ch=1 c=64 v=72
1211556 On ch=1 n=g5 v=0
1211556 Par ch=1 c=64 v=0
1211631 On ch=1 n=d#6 v=79
1211631 On ch=1 n=a#4 v=56
1211641 On ch=1 n=d#4 v=57
1211641 Par ch=1 c=64 v=56
1211651 Par ch=1 c=64 v=88
1211661 On ch=1 n=d#4 v=0
1211681 On ch=1 n=a#4 v=0
1211711 Par ch=1 c=64 v=0
1211716 On ch=1 n=d#6 v=0
1211766 On ch=1 n=g#3 v=59
1211766 On ch=1 n=d#5 v=61
1211766 Par ch=1 c=64 v=40
1211781 Par ch=1 c=64 v=72
1211791 Par ch=1 c=64 v=104
1211801 Par ch=1 c=64 v=127
1211826 On ch=1 n=g#3 v=0
1211836 On ch=1 n=d#5 v=0
1211841 Par ch=1 c=64 v=40
1211851 Par ch=1 c=64 v=0
1211901 On ch=1 n=g#4 v=53
1211901 On ch=1 n=c6 v=78
1211911 On ch=1 n=d#4 v=50
1211911 Par ch=1 c=64 v=40
1211921 Par ch=1 c=64 v=72
1211956 On ch=1 n=g#4 v=0
1211956 Par ch=1 c=64 v=0
1211966 On ch=1 n=d#4 v=0
1212001 On ch=1 n=c6 v=0
1212026 Par ch=1 c=64 v=24
1212041 On ch=1 n=c5 v=62
1212041 On ch=1 n=c4 v=56
1212041 Par ch=1 c=64 v=56
1212051 Par ch=1 c=64 v=72
1212061 Par ch=1 c=64 v=56
1212071 On ch=1 n=c5 v=0
1212076 Par ch=1 c=64 v=24
1212086 Par ch=1 c=64 v=0
1212111 On ch=1 n=c4 v=0
1212156 Par ch=1 c=64 v=24
1212171 Par ch=1 c=64 v=56
1212176 On ch=1 n=g#4 v=58
1212181 On ch=1 n=d#4 v=53
1212181 Par ch=1 c=64 v=88
1212186 On ch=1 n=d#6 v=81
1212191 Par ch=1 c=64 v=104
1212201 On ch=1 n=g#4 v=0
1212206 On ch=1 n=d#4 v=0
1212241 Par ch=1 c=64 v=24
1212251 Par ch=1 c=64 v=0
1212266 On ch=1 n=d#6 v=0
1212306 On ch=1 n=c#3 v=70
1212316 On ch=1 n=d#5 v=59
1212321 Par ch=1 c=64 v=24
1212331 Par ch=1 c=64 v=56
1212346 Par ch=1 c=64 v=88
1212351 On ch=1 n=c#3 v=0
1212356 Par ch=1 c=64 v=104
1212371 Par ch=1 c=64 v=127
1212381 On ch=1 n=d#5 v=0
1212401 Par ch=1 c=64 v=56
1212416 Par ch=1 c=64 v=0
1212461 On ch=1 n=f6 v=79
1212461 On ch=1 n=c#4 v=65
1212461 Par ch=1 c=64 v=24
1212466 On ch=1 n=f4 v=56
1212476 Par ch=1 c=64 v=40
1212486 Par ch=1 c=64 v=56
1212491 On ch=1 n=f4 v=0
1212496 On ch=1 n=c#4 v=0
1212501 Par ch=1 c=64 v=72
1212511 Par ch=1 c=64 v=88
1212546 On ch=1 n=f6 v=0
1212546 Par ch=1 c=64 v=24
1212556 Par ch=1 c=64 v=0
1212596 On ch=1 n=f5 v=63
1212606 On ch=1 n=f3 v=61
1212636 On ch=1 n=f3 v=0
1212641 Par ch=1 c=64 v=24
1212651 Par ch=1 c=64 v=0
1212661 On ch=1 n=f5 v=0
1212731 On ch=1 n=c#6 v=74
1212746 On ch=1 n=c#4 v=60
1212751 On ch=1 n=f4 v=53
1212756 Par ch=1 c=64 v=40
1212771 Par ch=1 c=64 v=56
1212781 On ch=1 n=f4 v=0
1212791 On ch=1 n=c#4 v=0
1212826 Par ch=1 c=64 v=0
1212851 On ch=1 n=c#6 v=0
1212881 On ch=1 n=c#5 v=62
1212886 On ch=1 n=g3 v=70
1212941 On ch=1 n=g3 v=0
1212951 On ch=1 n=c#5 v=0
1213021 On ch=1 n=a#5 v=69
1213026 On ch=1 n=c#4 v=62
1213026 On ch=1 n=f4 v=63
1213051 On ch=1 n=f4 v=0
1213051 On ch=1 n=c#4 v=0
1213051 Par ch=1 c=64 v=24
1213066 Par ch=1 c=64 v=0
1213111 On ch=1 n=a#5 v=0
1213171 Par ch=1 c=64 v=40
1213176 On ch=1 n=a#4 v=67
1213181 On ch=1 n=c3 v=45
1213181 Par ch=1 c=64 v=56
1213231 Par ch=1 c=64 v=0
1213236 On ch=1 n=a#4 v=0
1213241 On ch=1 n=c3 v=0
1213301 Par ch=1 c=64 v=40
1213306 On ch=1 n=c4 v=60
1213306 On ch=1 n=e4 v=49
1213306 On ch=1 n=c6 v=79
1213311 Par ch=1 c=64 v=56
1213321 Par ch=1 c=64 v=72
1213326 On ch=1 n=c4 v=0
1213336 On ch=1 n=e4 v=0
1213356 Par ch=1 c=64 v=88
1213391 On ch=1 n=c6 v=0
1213406 Par ch=1 c=64 v=72
1213416 Par ch=1 c=64 v=88
1213441 On ch=1 n=f3 v=60
1213441 On ch=1 n=c5 v=67
1213466 Par ch=1 c=64 v=104
1213501 Par ch=1 c=64 v=56
1213511 Par ch=1 c=64 v=0
1213516 On ch=1 n=c5 v=0
1213516 On ch=1 n=f3 v=0
1213586 On ch=1 n=c4 v=70
1213591 On ch=1 n=g#5 v=69
1213596 On ch=1 n=f4 v=45
1213596 Par ch=1 c=64 v=24
1213606 On ch=1 n=c4 v=0
1213611 Par ch=1 c=64 v=40
1213621 On ch=1 n=f4 v=0
1213631 Par ch=1 c=64 v=0
1213676 On ch=1 n=g#5 v=0
1213691 Par ch=1 c=64 v=40
1213706 Par ch=1 c=64 v=56
1213711 On ch=1 n=g#4 v=63
1213716 Par ch=1 c=64 v=72
1213726 On ch=1 n=c3 v=62
1213726 Par ch=1 c=64 v=88
1213741 Par ch=1 c=64 v=104
1213746 On ch=1 n=c3 v=0
1213751 Par ch=1 c=64 v=127
1213761 On ch=1 n=g#4 v=0
1213821 Par ch=1 c=64 v=56
1213831 Par ch=1 c=64 v=24
1213846 Par ch=1 c=64 v=0
1213856 On ch=1 n=c6 v=81
1213861 On ch=1 n=f4 v=58
1213861 On ch=1 n=c4 v=58
1213886 On ch=1 n=c4 v=0
1213891 On ch=1 n=f4 v=0
1213891 Par ch=1 c=64 v=24
1213926 Par ch=1 c=64 v=0
1213931 On ch=1 n=c6 v=0
1213986 On ch=1 n=g3 v=60
1213986 On ch=1 n=c5 v=66
1213996 Par ch=1 c=64 v=24
1214011 Par ch=1 c=64 v=40
1214046 Par ch=1 c=64 v=0
1214056 On ch=1 n=g3 v=0
1214066 On ch=1 n=c5 v=0
1214116 On ch=1 n=g5 v=74
1214121 On ch=1 n=c4 v=63
1214126 On ch=1 n=e4 v=47
1214126 Par ch=1 c=64 v=24
1214141 Par ch=1 c=64 v=56
1214146 On ch=1 n=c4 v=0
1214151 On ch=1 n=e4 v=0
1214151 Par ch=1 c=64 v=72
1214246 Par ch=1 c=64 v=88
1214251 On ch=1 n=g4 v=64
1214261 On ch=1 n=c3 v=62
1214286 On ch=1 n=c3 v=0
1214291 On ch=1 n=g4 v=0
1214306 Par ch=1 c=64 v=104
1214316 On ch=1 n=g5 v=0
1214351 Par ch=1 c=64 v=72
1214361 Par ch=1 c=64 v=40
1214376 Par ch=1 c=64 v=0
1214411 On ch=1 n=e4 v=41
1214411 On ch=1 n=c4 v=48
1214411 On ch=1 n=c6 v=70
1214441 On ch=1 n=c4 v=0
1214441 On ch=1 n=e4 v=0
1214446 Par ch=1 c=64 v=40
1214456 Par ch=1 c=64 v=56
1214471 Par ch=1 c=64 v=72
1214501 On ch=1 n=c6 v=0
1214516 Par ch=1 c=64 v=0
1214556 On ch=1 n=f3 v=66
1214581 On ch=1 n=f3 v=0
1214716 On ch=1 n=g#6 v=86
1214721 On ch=1 n=f4 v=61
1214721 On ch=1 n=g#4 v=54
1214741 On ch=1 n=f4 v=0
1214766 On ch=1 n=g#4 v=0
1214816 On ch=1 n=g#6 v=0
1214861 On ch=1 n=g#5 v=71
1214871 On ch=1 n=c4 v=66
1214891 On ch=1 n=c4 v=0
1214916 On ch=1 n=g#5 v=0
1215011 On ch=1 n=c6 v=83
1215016 On ch=1 n=g#4 v=46
1215016 On ch=1 n=f4 v=58
1215046 On ch=1 n=f4 v=0
1215066 On ch=1 n=g#4 v=0
1215116 On ch=1 n=c6 v=0
1215151 On ch=1 n=c5 v=69
1215166 On ch=1 n=d4 v=61
1215221 On ch=1 n=d4 v=0
1215246 On ch=1 n=c5 v=0
1215301 On ch=1 n=b5 v=80
1215306 On ch=1 n=g#4 v=51
1215311 On ch=1 n=f4 v=48
1215336 On ch=1 n=f4 v=0
1215366 On ch=1 n=g#4 v=0
1215416 On ch=1 n=b5 v=0
1215446 On ch=1 n=b4 v=70
1215451 On ch=1 n=b3 v=66
1215496 On ch=1 n=b4 v=0
1215516 On ch=1 n=b3 v=0
1215586 On ch=1 n=g4 v=62
1215591 On ch=1 n=d4 v=63
1215601 On ch=1 n=d6 v=81
1215611 On ch=1 n=d4 v=0
1215611 On ch=1 n=g4 v=0
1215736 On ch=1 n=d6 v=0
1215736 On ch=1 n=d5 v=70
1215756 On ch=1 n=e3 v=71
1215786 On ch=1 n=d5 v=0
1215806 On ch=1 n=e3 v=0
1215901 On ch=1 n=g4 v=67
1215906 On ch=1 n=g6 v=89
1215906 On ch=1 n=e4 v=66
1215956 On ch=1 n=g4 v=0
1215961 On ch=1 n=e4 v=0
1216006 On ch=1 n=g6 v=0
1216046 On ch=1 n=g5 v=70
1216051 On ch=1 n=b3 v=63
1216101 On ch=1 n=g5 v=0
1216106 On ch=1 n=b3 v=0
1216201 On ch=1 n=b5 v=81
1216206 On ch=1 n=e4 v=60
1216211 On ch=1 n=g4 v=54
1216256 On ch=1 n=g4 v=0
1216256 On ch=1 n=e4 v=0
1216301 On ch=1 n=b5 v=0
1216356 On ch=1 n=b4 v=59
1216366 On ch=1 n=c4 v=56
1216401 On ch=1 n=c4 v=0
1216411 On ch=1 n=b4 v=0
1216496 On ch=1 n=a#5 v=77
1216496 On ch=1 n=g4 v=59
1216496 On ch=1 n=e4 v=65
1216511 On ch=1 n=e4 v=0
1216526 On ch=1 n=g4 v=0
1216586 On ch=1 n=a#5 v=0
1216641 On ch=1 n=e3 v=63
1216641 On ch=1 n=a#4 v=67
1216686 On ch=1 n=e3 v=0
1216696 On ch=1 n=a#4 v=0
1216791 On ch=1 n=c6 v=85
1216796 On ch=1 n=c4 v=59
1216806 On ch=1 n=g4 v=24
1216831 On ch=1 n=g4 v=0
1216831 On ch=1 n=c4 v=0
1216871 On ch=1 n=c6 v=0
1216936 On ch=1 n=f3 v=53
1216936 On ch=1 n=c5 v=66
1216986 On ch=1 n=f3 v=0
1217006 On ch=1 n=c5 v=0
1217076 On ch=1 n=g#5 v=75
1217081 On ch=1 n=f4 v=51
1217091 On ch=1 n=c4 v=52
1217121 On ch=1 n=f4 v=0
1217136 On ch=1 n=c4 v=0
1217171 On ch=1 n=g#5 v=0
1217216 On ch=1 n=g#4 v=57
1217216 On ch=1 n=g#3 v=52
1217266 On ch=1 n=g#4 v=0
1217291 On ch=1 n=g#3 v=0
1217361 On ch=1 n=c6 v=90
1217361 On ch=1 n=c4 v=68
1217366 On ch=1 n=f4 v=65
1217396 On ch=1 n=f4 v=0
1217396 On ch=1 n=c4 v=0
1217486 On ch=1 n=c6 v=0
1217511 On ch=1 n=a#2 v=79
1217511 On ch=1 n=c5 v=79
1217551 On ch=1 n=a#2 v=0
1217571 On ch=1 n=c5 v=0
1217671 On ch=1 n=c#6 v=94
1217676 On ch=1 n=c#4 v=64
1217681 On ch=1 n=f4 v=55
1217716 On ch=1 n=f4 v=0
1217716 On ch=1 n=c#4 v=0
1217786 On ch=1 n=c#6 v=0
1217816 On ch=1 n=c#5 v=68
1217821 On ch=1 n=g3 v=64
1217866 On ch=1 n=g3 v=0
1217891 On ch=1 n=c#5 v=0
1217966 On ch=1 n=c#4 v=64
1217971 On ch=1 n=a#5 v=78
1217971 On ch=1 n=f4 v=57
1217996 On ch=1 n=f4 v=0
1218006 On ch=1 n=c#4 v=0
1218081 On ch=1 n=a#5 v=0
1218126 On ch=1 n=a#4 v=61
1218131 On ch=1 n=c3 v=48
1218181 On ch=1 n=c3 v=0
1218211 On ch=1 n=a#4 v=0
1218261 On ch=1 n=g#5 v=71
1218261 On ch=1 n=c4 v=63
1218261 On ch=1 n=f4 v=54
1218291 On ch=1 n=f4 v=0
1218311 On ch=1 n=c4 v=0
1218366 On ch=1 n=g#5 v=0
1218396 On ch=1 n=g#4 v=65
1218401 On ch=1 n=g#3 v=55
1218436 On ch=1 n=g#4 v=0
1218466 On ch=1 n=g#3 v=0
1218546 On ch=1 n=f4 v=58
1218546 On ch=1 n=c4 v=54
1218551 On ch=1 n=c6 v=77
1218566 On ch=1 n=c4 v=0
1218571 On ch=1 n=f4 v=0
1218646 On ch=1 n=c6 v=0
1218706 On ch=1 n=c5 v=63
1218706 On ch=1 n=c3 v=60
1218756 On ch=1 n=c3 v=0
1218766 On ch=1 n=c5 v=0
1218841 On ch=1 n=e4 v=54
1218846 On ch=1 n=c4 v=57
1218851 On ch=1 n=a#5 v=67
1218871 On ch=1 n=c4 v=0
1218876 On ch=1 n=e4 v=0
1218951 On ch=1 n=a#5 v=0
1218991 On ch=1 n=a#4 v=60
1218991 On ch=1 n=g3 v=52
1219036 On ch=1 n=g3 v=0
1219041 On ch=1 n=a#4 v=0
1219131 On ch=1 n=c6 v=75
1219131 On ch=1 n=c4 v=59
1219131 On ch=1 n=e4 v=49
1219161 On ch=1 n=c4 v=0
1219176 On ch=1 n=e4 v=0
1219211 On ch=1 n=c6 v=0
1219286 On ch=1 n=c5 v=61
1219286 On ch=1 n=f3 v=56
1219326 On ch=1 n=f3 v=0
1219361 On ch=1 n=c5 v=0
1219426 On ch=1 n=g#5 v=70
1219426 On ch=1 n=f4 v=50
1219426 On ch=1 n=c4 v=64
1219466 On ch=1 n=f4 v=0
1219476 On ch=1 n=c4 v=0
1219526 On ch=1 n=g#5 v=0
1219561 On ch=1 n=g#4 v=53
1219581 On ch=1 n=g#3 v=50
1219601 On ch=1 n=g#4 v=0
1219641 On ch=1 n=g#3 v=0
1219716 On ch=1 n=c6 v=78
1219716 On ch=1 n=c4 v=67
1219721 On ch=1 n=f4 v=57
1219756 On ch=1 n=f4 v=0
1219761 On ch=1 n=c4 v=0
1219826 On ch=1 n=c6 v=0
1219866 On ch=1 n=c5 v=74
1219876 On ch=1 n=a#2 v=71
1219906 On ch=1 n=a#2 v=0
1219916 On ch=1 n=c5 v=0
1220016 On ch=1 n=c#6 v=95
1220026 On ch=1 n=c#4 v=69
1220031 On ch=1 n=f4 v=58
1220056 On ch=1 n=f4 v=0
1220071 On ch=1 n=c#4 v=0
1220141 On ch=1 n=c#6 v=0
1220156 On ch=1 n=c#5 v=64
1220161 On ch=1 n=g3 v=64
1220186 On ch=1 n=g3 v=0
1220226 On ch=1 n=c#5 v=0
1220301 On ch=1 n=f4 v=65
1220301 On ch=1 n=a#5 v=75
1220306 On ch=1 n=c#4 v=57
1220331 On ch=1 n=c#4 v=0
1220336 On ch=1 n=f4 v=0
1220421 On ch=1 n=a#5 v=0
1220446 On ch=1 n=c3 v=70
1220456 On ch=1 n=a#4 v=65
1220471 On ch=1 n=c3 v=0
1220536 On ch=1 n=a#4 v=0
1220596 On ch=1 n=c4 v=69
1220596 On ch=1 n=f4 v=52
1220601 On ch=1 n=g#5 v=69
1220626 On ch=1 n=f4 v=0
1220641 On ch=1 n=c4 v=0
1220696 On ch=1 n=g#5 v=0
1220741 On ch=1 n=g#4 v=49
1220751 On ch=1 n=g#3 v=54
1220756 On ch=1 n=g#4 v=0
1220831 On ch=1 n=g#3 v=0
1220881 On ch=1 n=c6 v=79
1220881 On ch=1 n=c4 v=64
1220886 On ch=1 n=f4 v=54
1220906 On ch=1 n=c4 v=0
1220911 On ch=1 n=f4 v=0
1220986 On ch=1 n=c6 v=0
1221026 On ch=1 n=c3 v=47
1221046 On ch=1 n=c5 v=55
1221076 On ch=1 n=c3 v=0
1221101 On ch=1 n=c5 v=0
1221181 On ch=1 n=c4 v=67
1221181 On ch=1 n=e4 v=51
1221186 On ch=1 n=a#5 v=70
1221216 On ch=1 n=e4 v=0
1221216 On ch=1 n=c4 v=0
1221276 On ch=1 n=a#5 v=0
1221331 On ch=1 n=g3 v=55
1221331 On ch=1 n=a#4 v=61
1221381 On ch=1 n=a#4 v=0
1221406 On ch=1 n=g3 v=0
1221471 On ch=1 n=c4 v=53
1221471 On ch=1 n=c6 v=73
1221476 On ch=1 n=e4 v=50
1221501 On ch=1 n=c4 v=0
1221531 On ch=1 n=e4 v=0
1221551 On ch=1 n=c6 v=0
1221616 On ch=1 n=c5 v=52
1221616 On ch=1 n=f3 v=53
1221691 On ch=1 n=c5 v=0
1221701 On ch=1 n=f3 v=0
1221751 On ch=1 n=g#5 v=67
1221751 On ch=1 n=c4 v=61
1221761 On ch=1 n=f4 v=45
1221771 On ch=1 n=c4 v=0
1221831 On ch=1 n=f4 v=0
1221856 On ch=1 n=g#5 v=0
1221886 On ch=1 n=c#4 v=64
1221896 On ch=1 n=g#4 v=49
1221926 On ch=1 n=g#4 v=0
1222001 On ch=1 n=c#4 v=0
1222031 On ch=1 n=c#6 v=80
1222046 On ch=1 n=g#4 v=50
1222051 On ch=1 n=f4 v=49
1222091 On ch=1 n=c#6 v=0
1222146 On ch=1 n=g#4 v=0
1222151 On ch=1 n=f4 v=0
1222166 On ch=1 n=c#5 v=61
1222196 On ch=1 n=c4 v=55
1222231 On ch=1 n=c#5 v=0
1222286 On ch=1 n=c4 v=0
1222321 On ch=1 n=g#4 v=44
1222326 On ch=1 n=c6 v=77
1222331 On ch=1 n=f4 v=56
1222376 On ch=1 n=c6 v=0
1222436 On ch=1 n=f4 v=0
1222436 On ch=1 n=g#4 v=0
1222466 On ch=1 n=c5 v=63
1222476 On ch=1 n=b3 v=57
1222536 On ch=1 n=c5 v=0
1222566 On ch=1 n=b3 v=0
1222601 On ch=1 n=b5 v=74
1222611 On ch=1 n=g#4 v=43
1222621 On ch=1 n=f4 v=50
1222691 On ch=1 n=f4 v=0
1222706 On ch=1 n=b5 v=0
1222716 On ch=1 n=g#4 v=0
1222746 On ch=1 n=b4 v=62
1222761 On ch=1 n=c4 v=59
1222816 On ch=1 n=b4 v=0
1222861 On ch=1 n=c4 v=0
1222901 On ch=1 n=c6 v=81
1222911 On ch=1 n=g#4 v=32
1222916 On ch=1 n=f4 v=56
1222986 On ch=1 n=f4 v=0
1223006 On ch=1 n=c6 v=0
1223016 On ch=1 n=g#4 v=0
1223051 On ch=1 n=b3 v=58
1223051 On ch=1 n=c5 v=60
1223121 On ch=1 n=b3 v=0
1223131 On ch=1 n=c5 v=0
1223191 On ch=1 n=g#4 v=38
1223191 On ch=1 n=a#5 v=69
1223196 On ch=1 n=f4 v=57
1223271 On ch=1 n=g#4 v=0
1223281 On ch=1 n=f4 v=0
1223331 On ch=1 n=a#3 v=60
1223341 On ch=1 n=a#4 v=57
1223406 On ch=1 n=a#5 v=0
1223431 On ch=1 n=a#4 v=0
1223446 On ch=1 n=a#3 v=0
1223476 On ch=1 n=g#5 v=73
1223481 On ch=1 n=f4 v=59
1223481 On ch=1 n=g#4 v=42
1223526 On ch=1 n=g#4 v=0
1223556 On ch=1 n=f4 v=0
1223591 On ch=1 n=g#5 v=0
1223616 On ch=1 n=g#3 v=61
1223626 On ch=1 n=g#4 v=67
1223691 On ch=1 n=g#4 v=0
1223701 On ch=1 n=g#3 v=0
1223756 On ch=1 n=g5 v=75
1223761 On ch=1 n=g#4 v=47
1223761 On ch=1 n=f4 v=61
1223831 On ch=1 n=g#4 v=0
1223836 On ch=1 n=f4 v=0
1223871 On ch=1 n=g5 v=0
1223901 On ch=1 n=g4 v=71
1223901 On ch=1 n=g3 v=66
1223956 On ch=1 n=g3 v=0
1223991 On ch=1 n=g4 v=0
1224046 On ch=1 n=f4 v=66
1224051 On ch=1 n=f5 v=78
1224056 On ch=1 n=g#4 v=47
1224066 On ch=1 n=f4 v=0
1224106 On ch=1 n=g#4 v=0
1224166 On ch=1 n=f5 v=0
1224176 On ch=1 n=f3 v=66
1224196 On ch=1 n=f4 v=72
1224241 On ch=1 n=f3 v=0
1224251 On ch=1 n=f4 v=0
1224336 On ch=1 n=g#4 v=64
1224336 On ch=1 n=f5 v=82
1224341 On ch=1 n=c#4 v=65
1224391 On ch=1 n=c#4 v=0
1224406 On ch=1 n=g#4 v=0
1224461 On ch=1 n=f5 v=0
1224471 On ch=1 n=f3 v=59
1224481 On ch=1 n=c#5 v=73
1224536 On ch=1 n=f3 v=0
1224601 On ch=1 n=c#5 v=0
1224626 On ch=1 n=g#4 v=56
1224626 On ch=1 n=f5 v=76
1224626 On ch=1 n=c4 v=70
1224686 On ch=1 n=g#4 v=0
1224691 On ch=1 n=c4 v=0
1224731 On ch=1 n=f5 v=0
1224771 On ch=1 n=c5 v=78
1224771 On ch=1 n=f3 v=50
1224841 On ch=1 n=f3 v=0
1224886 On ch=1 n=c5 v=0
1224906 On ch=1 n=f5 v=73
1224916 On ch=1 n=g#4 v=56
1224921 On ch=1 n=b3 v=65
1224981 On ch=1 n=g#4 v=0
1224986 On ch=1 n=b3 v=0
1225016 On ch=1 n=f5 v=0
1225046 On ch=1 n=b4 v=81
1225061 On ch=1 n=f3 v=58
1225126 On ch=1 n=f3 v=0
1225196 On ch=1 n=b4 v=0
1225196 On ch=1 n=f5 v=77
1225206 On ch=1 n=g#4 v=53
1225226 On ch=1 n=c4 v=55
1225251 On ch=1 n=c4 v=0
1225271 On ch=1 n=g#4 v=0
1225306 On ch=1 n=f5 v=0
1225341 On ch=1 n=c5 v=81
1225356 On ch=1 n=f3 v=50
1225416 On ch=1 n=f3 v=0
1225476 On ch=1 n=f5 v=73
1225486 On ch=1 n=g#4 v=53
1225496 On ch=1 n=c5 v=0
1225496 On ch=1 n=a#3 v=54
1225551 On ch=1 n=g#4 v=0
1225576 On ch=1 n=a#3 v=0
1225581 On ch=1 n=f5 v=0
1225631 On ch=1 n=a#4 v=80
1225646 On ch=1 n=f3 v=44
1225686 On ch=1 n=f3 v=0
1225766 On ch=1 n=f5 v=72
1225771 On ch=1 n=a#4 v=0
1225781 On ch=1 n=g#4 v=59
1225791 On ch=1 n=g#3 v=49
1225841 On ch=1 n=g#4 v=0
1225861 On ch=1 n=g#3 v=0
1225876 On ch=1 n=f5 v=0
1225911 On ch=1 n=g#4 v=75
1225926 On ch=1 n=f3 v=49
1225991 On ch=1 n=f3 v=0
1226021 On ch=1 n=g#4 v=0
1226046 On ch=1 n=f5 v=71
1226071 On ch=1 n=g#4 v=53
1226076 On ch=1 n=g#3 v=49
1226136 On ch=1 n=g#4 v=0
1226166 On ch=1 n=g#3 v=0
1226201 On ch=1 n=g4 v=72
1226216 On ch=1 n=f3 v=59
1226281 On ch=1 n=g4 v=0
1226291 On ch=1 n=f3 v=0
1226316 On ch=1 n=f5 v=0
1226361 On ch=1 n=f4 v=75
1226361 On ch=1 n=g#4 v=80
1226376 On ch=1 n=f3 v=67
1226706 Par ch=1 c=64 v=40
1226721 Par ch=1 c=64 v=56
1226731 Par ch=1 c=64 v=88
1226746 Par ch=1 c=64 v=104
1226756 Par ch=1 c=64 v=127
1226901 On ch=1 n=g#4 v=0
1226911 On ch=1 n=f4 v=0
1226916 On ch=1 n=f3 v=0
1227081 On ch=1 n=g#4 v=85
1227096 On ch=1 n=f4 v=67
1227101 On ch=1 n=f3 v=58
1227101 On ch=1 n=c4 v=68
1227121 On ch=1 n=f4 v=0
1227166 Par ch=1 c=64 v=104
1227181 Par ch=1 c=64 v=72
1227191 Par ch=1 c=64 v=40
1227201 Par ch=1 c=64 v=0
1227321 Par ch=1 c=64 v=72
1227336 Par ch=1 c=64 v=127
1227421 On ch=1 n=f3 v=0
1227436 On ch=1 n=c4 v=0
1227471 On ch=1 n=g#4 v=0
1227811 On ch=1 n=g#4 v=89
1227821 On ch=1 n=f3 v=58
1227821 On ch=1 n=c4 v=66
1227826 On ch=1 n=f4 v=63
1227851 On ch=1 n=f4 v=0
1227876 Par ch=1 c=64 v=88
1227886 Par ch=1 c=64 v=0
1227931 On ch=1 n=f4 v=22
1227991 Par ch=1 c=64 v=88
1228006 Par ch=1 c=64 v=127
1228051 On ch=1 n=f4 v=0
1228051 On ch=1 n=f3 v=0
1228066 On ch=1 n=c4 v=0
1228101 On ch=1 n=g#4 v=0
1228561 On ch=1 n=g#4 v=91
1228581 On ch=1 n=f4 v=64
1228586 On ch=1 n=c4 v=70
1228586 On ch=1 n=f3 v=62
1228601 On ch=1 n=f4 v=0
1228641 Par ch=1 c=64 v=88
1228651 Par ch=1 c=64 v=0
1228661 On ch=1 n=f4 v=24
1228746 Par ch=1 c=64 v=40
1228756 Par ch=1 c=64 v=127
1228786 On ch=1 n=f4 v=0
1228821 On ch=1 n=f3 v=0
1228831 On ch=1 n=c4 v=0
1228836 On ch=1 n=g#4 v=0
1229611 On ch=1 n=g6 v=66
1229616 On ch=1 n=d#4 v=50
1229616 On ch=1 n=g5 v=47
1229621 On ch=1 n=c#6 v=46
1229621 On ch=1 n=a#5 v=40
1229626 On ch=1 n=d#5 v=30
1229626 On ch=1 n=d#6 v=50
1229626 On ch=1 n=a#4 v=35
1229631 On ch=1 n=c#5 v=39
1229666 Par ch=1 c=64 v=104
1229676 Par ch=1 c=64 v=40
1229691 Par ch=1 c=64 v=0
1229986 Par ch=1 c=64 v=72
1229996 Par ch=1 c=64 v=127
1230166 On ch=1 n=c#5 v=0
1230171 On ch=1 n=d#4 v=0
1230186 On ch=1 n=d#5 v=0
1230191 On ch=1 n=a#4 v=0
1230196 On ch=1 n=g6 v=0
1230206 On ch=1 n=d#6 v=0
1230206 On ch=1 n=a#5 v=0
1230211 On ch=1 n=c#6 v=0
1230211 On ch=1 n=g5 v=0
1231256 Par ch=1 c=64 v=104
1231266 Par ch=1 c=64 v=56
1231281 Par ch=1 c=64 v=0
1232161 On ch=1 n=g#6 v=68
1232321 On ch=1 n=g#6 v=0
1232346 On ch=1 n=c6 v=72
1232506 On ch=1 n=g#3 v=48
1232526 Par ch=1 c=64 v=24
1232541 Par ch=1 c=64 v=72
1232561 Par ch=1 c=64 v=104
1232581 Par ch=1 c=64 v=127
1232601 On ch=1 n=g#3 v=0
1232641 Par ch=1 c=64 v=88
1232661 Par ch=1 c=64 v=56
1232681 Par ch=1 c=64 v=0
1232981 On ch=1 n=c5 v=46
1232996 On ch=1 n=g#4 v=42
1233006 On ch=1 n=d#4 v=32
1233061 On ch=1 n=c5 v=0
1233071 On ch=1 n=g#4 v=0
1233086 On ch=1 n=d#4 v=0
1233356 On ch=1 n=b5 v=68
1233356 Par ch=1 c=64 v=56
1233361 On ch=1 n=c6 v=0
1233361 On ch=1 n=g#3 v=48
1233376 Par ch=1 c=64 v=104
1233391 Par ch=1 c=64 v=127
1233406 On ch=1 n=g#3 v=0
1233471 Par ch=1 c=64 v=104
1233491 Par ch=1 c=64 v=72
1233511 Par ch=1 c=64 v=56
1233531 Par ch=1 c=64 v=24
1233551 Par ch=1 c=64 v=0
1233556 On ch=1 n=b5 v=0
1233556 On ch=1 n=f6 v=81
1233756 On ch=1 n=d5 v=36
1233761 On ch=1 n=f4 v=41
1233781 On ch=1 n=g#4 v=22
1233806 On ch=1 n=f4 v=0
1233821 On ch=1 n=g#4 v=0
1233831 On ch=1 n=d5 v=0
1234161 On ch=1 n=g#4 v=45
1234181 On ch=1 n=f4 v=46
1234181 On ch=1 n=d5 v=47
1234231 On ch=1 n=d5 v=0
1234256 On ch=1 n=g#4 v=0
1234276 On ch=1 n=f4 v=0
1234516 Par ch=1 c=64 v=56
1234536 Par ch=1 c=64 v=104
1234541 On ch=1 n=d#6 v=75
1234541 On ch=1 n=g#3 v=58
1234556 Par ch=1 c=64 v=127
1234571 On ch=1 n=f6 v=0
1234591 On ch=1 n=g#3 v=0
1234656 Par ch=1 c=64 v=88
1234671 Par ch=1 c=64 v=72
1234691 On ch=1 n=d#6 v=0
1234691 Par ch=1 c=64 v=56
1234711 On ch=1 n=a5 v=72
1234711 Par ch=1 c=64 v=24
1234731 Par ch=1 c=64 v=0
1234881 On ch=1 n=c#5 v=47
1234886 On ch=1 n=g4 v=47
1234886 On ch=1 n=d#4 v=49
1234931 On ch=1 n=g4 v=0
1234946 On ch=1 n=d#4 v=0
1234946 On ch=1 n=c#5 v=0
1235236 On ch=1 n=a#5 v=76
1235261 On ch=1 n=c#5 v=49
1235266 On ch=1 n=a5 v=0
1235266 On ch=1 n=d#4 v=54
1235266 On ch=1 n=g4 v=48
1235306 On ch=1 n=g4 v=0
1235331 On ch=1 n=c#5 v=0
1235361 On ch=1 n=d#4 v=0
1235576 On ch=1 n=g#3 v=58
1235591 On ch=1 n=c6 v=74
1235596 On ch=1 n=a#5 v=0
1235641 On ch=1 n=g#3 v=0
1235711 On ch=1 n=c6 v=0
1235731 On ch=1 n=g5 v=69
1235881 On ch=1 n=d#4 v=41
1235896 On ch=1 n=g#4 v=36
1235916 On ch=1 n=c5 v=45
1235961 On ch=1 n=d#4 v=0
1235976 On ch=1 n=g#4 v=0
1235986 On ch=1 n=c5 v=0
1236156 On ch=1 n=g5 v=0
1236191 On ch=1 n=g#5 v=73
1236216 On ch=1 n=c5 v=64
1236216 On ch=1 n=d#4 v=62
1236216 On ch=1 n=g#4 v=51
1236246 On ch=1 n=c5 v=0
1236251 On ch=1 n=g#4 v=0
1236276 On ch=1 n=d#4 v=0
1236501 On ch=1 n=g#5 v=0
1236521 On ch=1 n=a#5 v=77
1236531 On ch=1 n=f3 v=64
1236571 On ch=1 n=f3 v=0
1236681 On ch=1 n=d5 v=62
1236796 On ch=1 n=a#5 v=0
1236811 On ch=1 n=g#4 v=55
1236821 On ch=1 n=a#3 v=58
1236841 Par ch=1 c=64 v=24
1236861 Par ch=1 c=64 v=56
1236881 Par ch=1 c=64 v=72
1236906 On ch=1 n=g#4 v=0
1236921 On ch=1 n=a#3 v=0
1236941 Par ch=1 c=64 v=40
1236961 Par ch=1 c=64 v=0
1237136 On ch=1 n=c6 v=89
1237141 On ch=1 n=g#4 v=58
1237151 On ch=1 n=a#3 v=62
1237151 Par ch=1 c=64 v=40
1237171 Par ch=1 c=64 v=72
1237176 On ch=1 n=g#4 v=0
1237186 On ch=1 n=a#3 v=0
1237191 Par ch=1 c=64 v=88
1237211 Par ch=1 c=64 v=104
1237266 Par ch=1 c=64 v=127
1237346 On ch=1 n=c6 v=0
1237366 Par ch=1 c=64 v=40
1237386 Par ch=1 c=64 v=0
1237416 On ch=1 n=d5 v=0
1237436 On ch=1 n=d6 v=87
1237436 On ch=1 n=a#2 v=58
1237491 On ch=1 n=a#2 v=0
1237521 Par ch=1 c=64 v=72
1237541 Par ch=1 c=64 v=127
1237581 On ch=1 n=d6 v=0
1237601 On ch=1 n=d5 v=58
1237601 On ch=1 n=g#5 v=60
1237721 On ch=1 n=g#4 v=60
1237726 On ch=1 n=d5 v=0
1237736 On ch=1 n=a#3 v=57
1237796 On ch=1 n=g#4 v=0
1237811 On ch=1 n=a#3 v=0
1238026 On ch=1 n=d#6 v=91
1238046 On ch=1 n=a#3 v=64
1238056 On ch=1 n=g#4 v=45
1238081 On ch=1 n=g#5 v=0
1238086 On ch=1 n=g#4 v=0
1238111 On ch=1 n=a#3 v=0
1238136 On ch=1 n=d#6 v=0
1238296 Par ch=1 c=64 v=88
1238311 Par ch=1 c=64 v=24
1238336 Par ch=1 c=64 v=0
1238361 On ch=1 n=a#2 v=48
1238371 On ch=1 n=f6 v=86
1238431 Par ch=1 c=64 v=40
1238441 On ch=1 n=a#2 v=0
1238451 Par ch=1 c=64 v=104
1238456 On ch=1 n=f6 v=0
1238466 Par ch=1 c=64 v=127
1238531 On ch=1 n=d5 v=66
1238531 On ch=1 n=g#5 v=57
1238611 On ch=1 n=d5 v=0
1238656 On ch=1 n=g#5 v=0
1238701 On ch=1 n=g#4 v=57
1238711 On ch=1 n=f4 v=64
1238741 On ch=1 n=f4 v=0
1238766 On ch=1 n=g#4 v=0
1239026 On ch=1 n=a#2 v=58
1239041 On ch=1 n=g6 v=80
1239111 On ch=1 n=g6 v=0
1239136 On ch=1 n=a#2 v=0
1239281 Par ch=1 c=64 v=88
1239301 Par ch=1 c=64 v=40
1239321 Par ch=1 c=64 v=0
1239376 On ch=1 n=d#3 v=58
1239386 On ch=1 n=d#6 v=76
1239436 Par ch=1 c=64 v=40
1239456 Par ch=1 c=64 v=104
1239466 On ch=1 n=d#3 v=0
1239476 Par ch=1 c=64 v=127
1239561 On ch=1 n=d#6 v=0
1239591 On ch=1 n=g5 v=54
1239621 On ch=1 n=d#5 v=46
1239666 On ch=1 n=g5 v=0
1239731 On ch=1 n=d#5 v=0
1239806 On ch=1 n=d5 v=47
1239831 On ch=1 n=d#4 v=39
1239836 On ch=1 n=g4 v=41
1239961 Par ch=1 c=64 v=72
1239981 Par ch=1 c=64 v=0
1240116 Par ch=1 c=64 v=24
1240136 Par ch=1 c=64 v=72
1240146 On ch=1 n=g4 v=0
1240151 Par ch=1 c=64 v=104
1240171 On ch=1 n=d#4 v=0
1240171 Par ch=1 c=64 v=127
1240291 Par ch=1 c=64 v=88
1240301 On ch=1 n=c#5 v=43
1240311 Par ch=1 c=64 v=56
1240316 On ch=1 n=d5 v=0
1240326 Par ch=1 c=64 v=24
1240346 Par ch=1 c=64 v=0
1240366 Par ch=1 c=64 v=24
1240386 Par ch=1 c=64 v=56
1240406 Par ch=1 c=64 v=88
1240426 Par ch=1 c=64 v=104
1240446 Par ch=1 c=64 v=127
1240451 On ch=1 n=c#5 v=0
1240616 Par ch=1 c=64 v=104
1240636 Par ch=1 c=64 v=88
1240656 Par ch=1 c=64 v=72
1240696 Par ch=1 c=64 v=56
1240716 Par ch=1 c=64 v=40
1240791 Par ch=1 c=64 v=24
1240811 Par ch=1 c=64 v=0
1240836 On ch=1 n=g#6 v=69
1241006 On ch=1 n=g#6 v=0
1241011 On ch=1 n=c6 v=66
1241201 On ch=1 n=g#3 v=49
1241201 Par ch=1 c=64 v=24
1241256 Par ch=1 c=64 v=0
1241286 On ch=1 n=g#3 v=0
1241641 On ch=1 n=c5 v=58
1241666 On ch=1 n=g#4 v=28
1241671 On ch=1 n=d#4 v=27
1241691 On ch=1 n=c5 v=0
1241711 On ch=1 n=g#4 v=0
1241721 On ch=1 n=d#4 v=0
1241856 Par ch=1 c=64 v=40
1241876 Par ch=1 c=64 v=72
1241896 Par ch=1 c=64 v=104
1241916 Par ch=1 c=64 v=127
1241991 Par ch=1 c=64 v=104
1242011 On ch=1 n=c6 v=0
1242011 On ch=1 n=b5 v=70
1242011 Par ch=1 c=64 v=88
1242016 On ch=1 n=g#3 v=60
1242031 Par ch=1 c=64 v=56
1242051 Par ch=1 c=64 v=40
1242066 On ch=1 n=g#3 v=0
1242071 Par ch=1 c=64 v=24
1242091 Par ch=1 c=64 v=0
1242201 On ch=1 n=b5 v=0
1242206 On ch=1 n=f6 v=74
1242386 On ch=1 n=f4 v=52
1242396 On ch=1 n=d5 v=46
1242411 On ch=1 n=g#4 v=33
1242446 On ch=1 n=f4 v=0
1242456 On ch=1 n=g#4 v=0
1242486 On ch=1 n=d5 v=0
1242776 On ch=1 n=g#4 v=36
1242781 On ch=1 n=d5 v=57
1242796 On ch=1 n=f4 v=48
1242836 On ch=1 n=d5 v=0
1242856 On ch=1 n=f4 v=0
1242866 On ch=1 n=g#4 v=0
1243011 On ch=1 n=f6 v=0
1243096 Par ch=1 c=64 v=56
1243106 On ch=1 n=d#6 v=77
1243116 Par ch=1 c=64 v=104
1243126 On ch=1 n=g#3 v=58
1243136 Par ch=1 c=64 v=127
1243211 On ch=1 n=g#3 v=0
1243246 On ch=1 n=d#6 v=0
1243251 On ch=1 n=a5 v=68
1243291 Par ch=1 c=64 v=104
1243311 Par ch=1 c=64 v=72
1243331 Par ch=1 c=64 v=40
1243346 Par ch=1 c=64 v=24
1243366 Par ch=1 c=64 v=0
1243436 On ch=1 n=c#5 v=53
1243436 On ch=1 n=d#4 v=61
1243441 On ch=1 n=g4 v=59
1243481 On ch=1 n=g4 v=0
1243501 On ch=1 n=c#5 v=0
1243506 On ch=1 n=d#4 v=0
1243761 On ch=1 n=a#5 v=74
1243786 On ch=1 n=a5 v=0
1243786 On ch=1 n=c#5 v=53
1243796 On ch=1 n=g4 v=47
1243796 On ch=1 n=d#4 v=51
1243821 On ch=1 n=c#5 v=0
1243831 On ch=1 n=g4 v=0
1243876 On ch=1 n=d#4 v=0
1244086 Par ch=1 c=64 v=24
1244091 On ch=1 n=a#5 v=0
1244091 On ch=1 n=g#3 v=68
1244106 On ch=1 n=c6 v=83
1244106 Par ch=1 c=64 v=72
1244121 Par ch=1 c=64 v=104
1244141 Par ch=1 c=64 v=127
1244176 On ch=1 n=g#3 v=0
1244201 Par ch=1 c=64 v=88
1244221 Par ch=1 c=64 v=72
1244241 On ch=1 n=c6 v=0
1244241 Par ch=1 c=64 v=40
1244256 On ch=1 n=g5 v=71
1244256 Par ch=1 c=64 v=24
1244276 Par ch=1 c=64 v=0
1244406 On ch=1 n=d#4 v=54
1244416 On ch=1 n=c5 v=55
1244421 On ch=1 n=g#4 v=43
1244491 On ch=1 n=c5 v=0
1244496 On ch=1 n=d#4 v=0
1244521 On ch=1 n=g#4 v=0
1244686 On ch=1 n=g5 v=0
1244731 On ch=1 n=g#5 v=73
1244741 On ch=1 n=g#4 v=62
1244746 On ch=1 n=c5 v=64
1244756 On ch=1 n=d#4 v=52
1244781 On ch=1 n=c5 v=0
1244786 On ch=1 n=g#4 v=0
1244796 On ch=1 n=d#4 v=0
1245026 On ch=1 n=g#5 v=0
1245041 On ch=1 n=a#5 v=78
1245071 On ch=1 n=f3 v=62
1245091 Par ch=1 c=64 v=24
1245111 Par ch=1 c=64 v=72
1245131 On ch=1 n=f3 v=0
1245131 Par ch=1 c=64 v=104
1245151 Par ch=1 c=64 v=127
1245201 On ch=1 n=d5 v=67
1245206 Par ch=1 c=64 v=88
1245226 Par ch=1 c=64 v=40
1245246 Par ch=1 c=64 v=0
1245291 On ch=1 n=a#5 v=0
1245346 On ch=1 n=g#4 v=57
1245351 On ch=1 n=a#3 v=60
1245381 Par ch=1 c=64 v=24
1245401 Par ch=1 c=64 v=72
1245421 On ch=1 n=g#4 v=0
1245421 Par ch=1 c=64 v=104
1245436 Par ch=1 c=64 v=127
1245441 On ch=1 n=a#3 v=0
1245666 On ch=1 n=c6 v=88
1245676 On ch=1 n=a#3 v=65
1245681 On ch=1 n=g#4 v=48
1245711 On ch=1 n=g#4 v=0
1245741 On ch=1 n=a#3 v=0
1245756 On ch=1 n=d5 v=0
1245846 On ch=1 n=c6 v=0
1245921 Par ch=1 c=64 v=40
1245941 Par ch=1 c=64 v=0
1245981 On ch=1 n=d6 v=92
1245996 On ch=1 n=a#2 v=56
1246061 Par ch=1 c=64 v=56
1246071 On ch=1 n=a#2 v=0
1246081 Par ch=1 c=64 v=127
1246116 On ch=1 n=d6 v=0
1246146 On ch=1 n=g#5 v=58
1246151 On ch=1 n=d5 v=60
1246231 On ch=1 n=d5 v=0
1246301 On ch=1 n=g#4 v=60
1246311 On ch=1 n=f4 v=60
1246366 On ch=1 n=f4 v=0
1246411 On ch=1 n=g#4 v=0
1246546 On ch=1 n=g#5 v=0
1246571 On ch=1 n=d#6 v=87
1246591 On ch=1 n=g#4 v=53
1246616 On ch=1 n=a#3 v=48
1246641 On ch=1 n=g#4 v=0
1246661 On ch=1 n=a#3 v=0
1246691 On ch=1 n=d#6 v=0
1246851 Par ch=1 c=64 v=72
1246871 Par ch=1 c=64 v=0
1246906 On ch=1 n=a#3 v=67
1246911 On ch=1 n=f6 v=94
1246971 Par ch=1 c=64 v=40
1246976 On ch=1 n=a#3 v=0
1246991 Par ch=1 c=64 v=88
1247006 On ch=1 n=f6 v=0
1247006 Par ch=1 c=64 v=127
1247081 On ch=1 n=g#5 v=62
1247086 On ch=1 n=d5 v=67
1247161 On ch=1 n=d5 v=0
1247221 On ch=1 n=g#5 v=0
1247241 On ch=1 n=g#4 v=56
1247256 On ch=1 n=f4 v=59
1247286 On ch=1 n=a#3 v=46
1247291 On ch=1 n=f4 v=0
1247316 On ch=1 n=g#4 v=0
1247321 On ch=1 n=a#3 v=0
1247551 On ch=1 n=g6 v=87
1247556 On ch=1 n=a#2 v=62
1247651 On ch=1 n=g6 v=0
1247656 On ch=1 n=a#2 v=0
1247801 Par ch=1 c=64 v=88
1247821 Par ch=1 c=64 v=24
1247841 Par ch=1 c=64 v=0
1247906 On ch=1 n=d#6 v=84
1247906 On ch=1 n=d#3 v=45
1247921 Par ch=1 c=64 v=40
1247936 Par ch=1 c=64 v=88
1247956 Par ch=1 c=64 v=127
1248021 On ch=1 n=d#3 v=0
1248086 On ch=1 n=d#6 v=0
1248106 On ch=1 n=g5 v=62
1248116 On ch=1 n=d#5 v=46
1248211 On ch=1 n=g5 v=0
1248216 On ch=1 n=d#5 v=0
1248316 On ch=1 n=d5 v=49
1248331 On ch=1 n=d#4 v=52
1248336 On ch=1 n=g4 v=48
1248401 Par ch=1 c=64 v=72
1248421 Par ch=1 c=64 v=0
1248516 Par ch=1 c=64 v=56
1248531 On ch=1 n=g4 v=0
1248536 Par ch=1 c=64 v=127
1248546 On ch=1 n=d#4 v=0
1248756 On ch=1 n=c#5 v=55
1248796 On ch=1 n=d5 v=0
1248836 On ch=1 n=c#5 v=0
1249271 Par ch=1 c=64 v=56
1249291 On ch=1 n=d#7 v=99
1249296 On ch=1 n=d#6 v=86
1249296 Par ch=1 c=64 v=0
1249301 On ch=1 n=d#3 v=73
1249301 On ch=1 n=d#4 v=70
1249376 On ch=1 n=d#3 v=0
1249381 On ch=1 n=d#4 v=0
1249411 Par ch=1 c=64 v=88
1249426 Par ch=1 c=64 v=127
1249446 On ch=1 n=d#6 v=0
1249466 On ch=1 n=d#7 v=0
1249691 On ch=1 n=d#7 v=89
1249696 On ch=1 n=d#6 v=84
1249706 On ch=1 n=d#5 v=59
1249716 On ch=1 n=a#4 v=34
1249736 On ch=1 n=g4 v=59
1249756 On ch=1 n=d#6 v=0
1249761 On ch=1 n=d#7 v=0
1249776 On ch=1 n=g4 v=0
1249801 On ch=1 n=a#4 v=0
1249816 On ch=1 n=d#5 v=0
1249856 On ch=1 n=d#7 v=96
1249861 On ch=1 n=d#6 v=96
1249921 On ch=1 n=d#6 v=0
1249931 On ch=1 n=d#7 v=0
1249986 On ch=1 n=g5 v=65
1249991 On ch=1 n=d#5 v=57
1249991 On ch=1 n=a#4 v=55
1250016 On ch=1 n=d#7 v=91
1250021 On ch=1 n=d#5 v=0
1250021 On ch=1 n=g5 v=0
1250021 On ch=1 n=d#6 v=96
1250056 On ch=1 n=a#4 v=0
1250076 On ch=1 n=d#6 v=0
1250081 On ch=1 n=d#7 v=0
1250171 On ch=1 n=d#7 v=91
1250176 On ch=1 n=d#6 v=97
1250236 On ch=1 n=d#6 v=0
1250246 On ch=1 n=d#7 v=0
1250301 Par ch=1 c=64 v=72
1250321 Par ch=1 c=64 v=0
1250331 On ch=1 n=f3 v=72
1250331 On ch=1 n=d#7 v=91
1250346 On ch=1 n=d#6 v=97
1250356 On ch=1 n=f4 v=70
1250396 On ch=1 n=f3 v=0
1250431 On ch=1 n=f4 v=0
1250436 Par ch=1 c=64 v=88
1250456 Par ch=1 c=64 v=127
1250496 On ch=1 n=d#7 v=0
1250521 On ch=1 n=d#6 v=0
1250666 On ch=1 n=c#7 v=85
1250671 On ch=1 n=c#6 v=85
1250701 On ch=1 n=g#4 v=39
1250701 On ch=1 n=c#5 v=43
1250726 On ch=1 n=f4 v=44
1250731 On ch=1 n=c#6 v=0
1250751 On ch=1 n=c#7 v=0
1250771 On ch=1 n=c#5 v=0
1250781 On ch=1 n=f4 v=0
1250781 On ch=1 n=g#4 v=0
1250811 On ch=1 n=c7 v=90
1250821 On ch=1 n=c6 v=87
1250861 On ch=1 n=c6 v=0
1250891 On ch=1 n=c7 v=0
1250956 On ch=1 n=g#4 v=68
1250966 On ch=1 n=f5 v=47
1250971 On ch=1 n=a#6 v=81
1250976 On ch=1 n=c#5 v=32
1250986 On ch=1 n=a#5 v=80
1251006 On ch=1 n=c#5 v=0
1251006 On ch=1 n=f5 v=0
1251026 On ch=1 n=a#5 v=0
1251031 On ch=1 n=g#4 v=0
1251046 On ch=1 n=a#6 v=0
1251126 On ch=1 n=g#6 v=92
1251131 On ch=1 n=g#5 v=84
1251226 On ch=1 n=g#5 v=0
1251246 On ch=1 n=g#6 v=0
1251286 Par ch=1 c=64 v=56
1251306 Par ch=1 c=64 v=0
1251321 On ch=1 n=g6 v=90
1251326 On ch=1 n=g5 v=70
1251361 On ch=1 n=g4 v=57
1251371 On ch=1 n=g3 v=64
1251406 On ch=1 n=g3 v=0
1251441 Par ch=1 c=64 v=56
1251461 On ch=1 n=g5 v=0
1251461 Par ch=1 c=64 v=127
1251466 On ch=1 n=g4 v=0
1251511 On ch=1 n=g6 v=0
1251676 On ch=1 n=g6 v=82
1251681 On ch=1 n=g5 v=66
1251681 On ch=1 n=f4 v=59
1251701 On ch=1 n=d4 v=43
1251731 On ch=1 n=g5 v=0
1251746 On ch=1 n=g6 v=0
1251756 On ch=1 n=f4 v=0
1251796 On ch=1 n=d4 v=0
1251836 On ch=1 n=g6 v=87
1251841 On ch=1 n=g5 v=74
1251911 On ch=1 n=g5 v=0
1251911 On ch=1 n=g6 v=0
1252006 On ch=1 n=d5 v=48
1252006 On ch=1 n=b4 v=60
1252011 On ch=1 n=g6 v=81
1252021 On ch=1 n=g5 v=64
1252066 On ch=1 n=b4 v=0
1252066 On ch=1 n=d5 v=0
1252081 On ch=1 n=g5 v=0
1252086 On ch=1 n=g6 v=0
1252166 On ch=1 n=g6 v=87
1252186 On ch=1 n=g5 v=70
1252236 On ch=1 n=g5 v=0
1252271 On ch=1 n=g6 v=0
1252351 Par ch=1 c=64 v=104
1252361 On ch=1 n=g6 v=80
1252371 Par ch=1 c=64 v=24
1252391 On ch=1 n=g5 v=64
1252391 Par ch=1 c=64 v=0
1252411 On ch=1 n=c3 v=54
1252416 On ch=1 n=c4 v=54
1252486 On ch=1 n=g5 v=0
1252526 On ch=1 n=c4 v=0
1252526 Par ch=1 c=64 v=88
1252531 On ch=1 n=c3 v=0
1252546 Par ch=1 c=64 v=127
1252686 On ch=1 n=g6 v=0
1252741 On ch=1 n=f6 v=77
1252756 On ch=1 n=c5 v=40
1252796 On ch=1 n=d#4 v=34
1252846 On ch=1 n=d#4 v=0
1252861 On ch=1 n=c5 v=0
1252876 On ch=1 n=f6 v=0
1252891 On ch=1 n=d#6 v=71
1253051 On ch=1 n=c5 v=64
1253056 On ch=1 n=d#6 v=0
1253056 On ch=1 n=d6 v=76
1253066 On ch=1 n=d#5 v=53
1253091 On ch=1 n=c5 v=0
1253141 On ch=1 n=d#5 v=0
1253191 On ch=1 n=d6 v=0
1253201 On ch=1 n=c6 v=77
1253386 On ch=1 n=c6 v=0
1253396 On ch=1 n=g#4 v=67
1253396 On ch=1 n=c6 v=67
1253421 Par ch=1 c=64 v=56
1253436 Par ch=1 c=64 v=0
1253466 On ch=1 n=c6 v=0
1253556 On ch=1 n=d#6 v=69
1253576 Par ch=1 c=64 v=56
1253591 Par ch=1 c=64 v=104
1253611 Par ch=1 c=64 v=127
1253636 On ch=1 n=d#6 v=0
1253711 On ch=1 n=d#6 v=67
1253731 On ch=1 n=d#5 v=44
1253741 On ch=1 n=g#4 v=0
1253751 On ch=1 n=c5 v=43
1253766 On ch=1 n=f#5 v=25
1253796 On ch=1 n=d#6 v=0
1253866 On ch=1 n=d#6 v=71
1253961 On ch=1 n=d#6 v=0
1254001 Par ch=1 c=64 v=56
1254016 On ch=1 n=c5 v=0
1254016 Par ch=1 c=64 v=0
1254031 On ch=1 n=d#6 v=71
1254036 On ch=1 n=a4 v=64
1254041 On ch=1 n=d#5 v=0
1254126 On ch=1 n=d#6 v=0
1254136 Par ch=1 c=64 v=24
1254151 Par ch=1 c=64 v=56
1254171 Par ch=1 c=64 v=88
1254191 On ch=1 n=d#6 v=71
1254191 Par ch=1 c=64 v=104
1254211 Par ch=1 c=64 v=127
1254256 On ch=1 n=a4 v=0
1254291 On ch=1 n=d#6 v=0
1254346 On ch=1 n=a#4 v=61
1254346 Par ch=1 c=64 v=104
1254356 On ch=1 n=d#6 v=71
1254366 Par ch=1 c=64 v=56
1254386 Par ch=1 c=64 v=0
1254431 On ch=1 n=f#5 v=0
1254561 Par ch=1 c=64 v=24
1254581 Par ch=1 c=64 v=56
1254601 Par ch=1 c=64 v=72
1254681 On ch=1 n=d#6 v=0
1254696 Par ch=1 c=64 v=0
1254731 On ch=1 n=c#6 v=68
1254751 On ch=1 n=c#5 v=36
1254756 On ch=1 n=f5 v=41
1254841 On ch=1 n=c#6 v=0
1254851 Par ch=1 c=64 v=56
1254871 On ch=1 n=f5 v=0
1254871 Par ch=1 c=64 v=72
1254891 On ch=1 n=c6 v=78
1254891 Par ch=1 c=64 v=88
1254906 On ch=1 n=c#5 v=0
1254911 Par ch=1 c=64 v=104
1255021 On ch=1 n=c6 v=0
1255041 On ch=1 n=a#5 v=63
1255071 On ch=1 n=c#5 v=35
1255081 Par ch=1 c=64 v=127
1255096 On ch=1 n=f5 v=29
1255136 On ch=1 n=a#4 v=0
1255186 On ch=1 n=a#5 v=0
1255191 On ch=1 n=g#5 v=69
1255296 On ch=1 n=g#5 v=0
1255361 On ch=1 n=c#5 v=0
1255376 On ch=1 n=f5 v=0
1255376 On ch=1 n=g5 v=74
1255376 Par ch=1 c=64 v=56
1255396 Par ch=1 c=64 v=0
1255411 On ch=1 n=b4 v=47
1255546 Par ch=1 c=64 v=24
1255566 Par ch=1 c=64 v=56
1255576 On ch=1 n=g5 v=0
1255586 Par ch=1 c=64 v=88
1255606 Par ch=1 c=64 v=127
1255736 On ch=1 n=g5 v=69
1255751 On ch=1 n=f5 v=42
1255756 On ch=1 n=d5 v=42
1255801 On ch=1 n=g5 v=0
1255881 On ch=1 n=f5 v=0
1255881 On ch=1 n=g5 v=69
1255911 On ch=1 n=d5 v=0
1255936 Par ch=1 c=64 v=104
1255981 On ch=1 n=g5 v=0
1256051 On ch=1 n=g5 v=68
1256086 On ch=1 n=d5 v=40
1256096 On ch=1 n=f5 v=41
1256131 On ch=1 n=b4 v=0
1256151 On ch=1 n=g5 v=0
1256191 On ch=1 n=d5 v=0
1256201 On ch=1 n=f5 v=0
1256221 On ch=1 n=g5 v=68
1256301 On ch=1 n=g5 v=0
1256326 Par ch=1 c=64 v=127
1256406 On ch=1 n=g5 v=67
1256421 Par ch=1 c=64 v=88
1256431 On ch=1 n=f5 v=47
1256441 Par ch=1 c=64 v=40
1256446 On ch=1 n=c5 v=45
1256456 Par ch=1 c=64 v=0
1256601 On ch=1 n=c6 v=65
1256611 On ch=1 n=g5 v=0
1256616 Par ch=1 c=64 v=24
1256636 Par ch=1 c=64 v=56
1256651 Par ch=1 c=64 v=72
1256661 On ch=1 n=f5 v=0
1256671 Par ch=1 c=64 v=88
1256801 On ch=1 n=e5 v=59
1256811 Par ch=1 c=64 v=72
1256846 Par ch=1 c=64 v=40
1256866 Par ch=1 c=64 v=0
1257041 Par ch=1 c=64 v=24
1257061 Par ch=1 c=64 v=40
1257081 Par ch=1 c=64 v=56
1257101 Par ch=1 c=64 v=72
1257231 On ch=1 n=e5 v=0
1257251 Par ch=1 c=64 v=0
1257256 On ch=1 n=d#5 v=46
1257426 Par ch=1 c=64 v=40
1257446 Par ch=1 c=64 v=72
1257466 On ch=1 n=c6 v=0
1257466 Par ch=1 c=64 v=104
1257486 Par ch=1 c=64 v=127
1257546 On ch=1 n=c5 v=0
1257591 On ch=1 n=d#5 v=0
1257756 On ch=1 n=g#6 v=71
1257901 On ch=1 n=g#6 v=0
1257936 On ch=1 n=c6 v=73
1258046 Par ch=1 c=64 v=88
1258066 Par ch=1 c=64 v=40
1258086 Par ch=1 c=64 v=0
1258096 On ch=1 n=g#3 v=47
1258186 On ch=1 n=g#3 v=0
1258221 Par ch=1 c=64 v=24
1258241 Par ch=1 c=64 v=72
1258261 Par ch=1 c=64 v=127
1258356 Par ch=1 c=64 v=56
1258376 Par ch=1 c=64 v=0
1258476 Par ch=1 c=64 v=40
1258491 Par ch=1 c=64 v=72
1258511 Par ch=1 c=64 v=104
1258531 Par ch=1 c=64 v=127
1258561 On ch=1 n=c5 v=57
1258586 On ch=1 n=g#4 v=37
1258591 On ch=1 n=d#4 v=35
1258631 On ch=1 n=g#4 v=0
1258636 On ch=1 n=c5 v=0
1258646 On ch=1 n=d#4 v=0
1258781 Par ch=1 c=64 v=104
1258801 Par ch=1 c=64 v=72
1258821 Par ch=1 c=64 v=40
1258841 Par ch=1 c=64 v=0
1258921 On ch=1 n=c6 v=0
1258936 On ch=1 n=b5 v=73
1258951 On ch=1 n=g#3 v=42
1258956 Par ch=1 c=64 v=40
1258976 Par ch=1 c=64 v=88
1258996 Par ch=1 c=64 v=127
1259021 On ch=1 n=g#3 v=0
1259081 On ch=1 n=b5 v=0
1259106 On ch=1 n=g6 v=78
1259111 Par ch=1 c=64 v=88
1259131 Par ch=1 c=64 v=56
1259151 Par ch=1 c=64 v=24
1259171 Par ch=1 c=64 v=0
1259301 On ch=1 n=g#4 v=46
1259321 On ch=1 n=d5 v=43
1259321 On ch=1 n=f4 v=42
1259371 On ch=1 n=d5 v=0
1259381 On ch=1 n=f4 v=0
1259386 On ch=1 n=g#4 v=0
1259716 On ch=1 n=g6 v=0
1259731 On ch=1 n=f6 v=75
1259741 On ch=1 n=d5 v=51
1259751 Par ch=1 c=64 v=24
1259756 On ch=1 n=g#4 v=29
1259766 On ch=1 n=f4 v=27
1259771 Par ch=1 c=64 v=56
1259781 On ch=1 n=d5 v=0
1259786 Par ch=1 c=64 v=72
1259806 On ch=1 n=g#4 v=0
1259811 Par ch=1 c=64 v=88
1259821 On ch=1 n=f4 v=0
1259966 Par ch=1 c=64 v=24
1259981 Par ch=1 c=64 v=0
1260036 On ch=1 n=f6 v=0
1260071 On ch=1 n=g#3 v=55
1260076 On ch=1 n=d#6 v=71
1260101 Par ch=1 c=64 v=40
1260121 Par ch=1 c=64 v=56
1260136 Par ch=1 c=64 v=72
1260146 On ch=1 n=g#3 v=0
1260196 Par ch=1 c=64 v=40
1260216 Par ch=1 c=64 v=24
1260221 On ch=1 n=d#6 v=0
1260236 Par ch=1 c=64 v=0
1260256 On ch=1 n=a5 v=75
1260386 On ch=1 n=c#5 v=46
1260391 On ch=1 n=g4 v=52
1260396 On ch=1 n=d#4 v=53
1260431 On ch=1 n=g4 v=0
1260461 On ch=1 n=d#4 v=0
1260481 On ch=1 n=c#5 v=0
1260711 On ch=1 n=c#5 v=55
1260726 On ch=1 n=a#5 v=78
1260726 On ch=1 n=g4 v=59
1260736 On ch=1 n=d#4 v=60
1260761 On ch=1 n=g4 v=0
1260766 On ch=1 n=a5 v=0
1260791 On ch=1 n=c#5 v=0
1260811 On ch=1 n=d#4 v=0
1260991 On ch=1 n=a#5 v=0
1261036 On ch=1 n=c6 v=80
1261041 On ch=1 n=g#3 v=57
1261066 Par ch=1 c=64 v=24
1261086 Par ch=1 c=64 v=56
1261111 On ch=1 n=g#3 v=0
1261156 On ch=1 n=c6 v=0
1261166 Par ch=1 c=64 v=24
1261181 Par ch=1 c=64 v=0
1261206 On ch=1 n=g5 v=77
1261351 On ch=1 n=d#4 v=61
1261356 On ch=1 n=g#4 v=58
1261361 On ch=1 n=c5 v=63
1261441 On ch=1 n=c5 v=0
1261441 On ch=1 n=g#4 v=0
1261441 On ch=1 n=d#4 v=0
1261616 On ch=1 n=g5 v=0
1261661 On ch=1 n=g#5 v=83
1261671 On ch=1 n=g#4 v=65
1261671 On ch=1 n=d#4 v=68
1261691 On ch=1 n=c5 v=58
1261701 On ch=1 n=d#4 v=0
1261731 On ch=1 n=c5 v=0
1261746 On ch=1 n=g#4 v=0
1261776 On ch=1 n=g#5 v=0
1262016 Par ch=1 c=64 v=24
1262021 On ch=1 n=c#6 v=97
1262026 On ch=1 n=g#4 v=71
1262031 On ch=1 n=c#5 v=85
1262036 On ch=1 n=g#5 v=70
1262036 Par ch=1 c=64 v=88
1262041 On ch=1 n=f5 v=68
1262046 On ch=1 n=f4 v=63
1262056 Par ch=1 c=64 v=127
1262076 On ch=1 n=f5 v=0
1262086 On ch=1 n=f4 v=0
1262091 On ch=1 n=c#5 v=0
1262096 On ch=1 n=g#4 v=0
1262116 On ch=1 n=g#5 v=0
1262136 On ch=1 n=c#6 v=0
1262336 On ch=1 n=g#4 v=72
1262336 On ch=1 n=f5 v=77
1262351 On ch=1 n=c#6 v=86
1262351 On ch=1 n=c#5 v=92
1262351 On ch=1 n=f4 v=54
1262371 On ch=1 n=f5 v=0
1262376 On ch=1 n=g#5 v=43
1262386 On ch=1 n=f4 v=0
1262396 On ch=1 n=g#4 v=0
1262406 On ch=1 n=g#5 v=0
1262406 On ch=1 n=c#5 v=0
1262406 On ch=1 n=c#6 v=0
1262426 Par ch=1 c=64 v=104
1262441 Par ch=1 c=64 v=88
1262481 Par ch=1 c=64 v=72
1262486 On ch=1 n=c#6 v=90
1262486 On ch=1 n=c#5 v=86
1262501 On ch=1 n=g#4 v=62
1262501 On ch=1 n=f5 v=80
1262501 On ch=1 n=g#5 v=54
1262506 On ch=1 n=f4 v=63
1262521 Par ch=1 c=64 v=56
1262531 On ch=1 n=g#4 v=0
1262536 On ch=1 n=f4 v=0
1262536 On ch=1 n=g#5 v=0
1262536 On ch=1 n=f5 v=0
1262541 Par ch=1 c=64 v=40
1262551 On ch=1 n=c#5 v=0
1262561 On ch=1 n=c#6 v=0
1262561 Par ch=1 c=64 v=24
1262581 Par ch=1 c=64 v=0
1262636 On ch=1 n=c#6 v=83
1262636 On ch=1 n=c#5 v=82
1262651 On ch=1 n=f5 v=86
1262651 On ch=1 n=g#4 v=71
1262666 On ch=1 n=f4 v=49
1262681 On ch=1 n=g#4 v=0
1262681 On ch=1 n=f5 v=0
1262696 On ch=1 n=c#5 v=0
1262701 On ch=1 n=f4 v=0
1262711 On ch=1 n=c#6 v=0
1262786 On ch=1 n=c#6 v=80
1262791 On ch=1 n=g#4 v=69
1262796 On ch=1 n=c#5 v=81
1262796 On ch=1 n=f5 v=74
1262801 On ch=1 n=f4 v=52
1262826 On ch=1 n=f5 v=0
1262836 On ch=1 n=f4 v=0
1262851 On ch=1 n=c#5 v=0
1262866 On ch=1 n=g#4 v=0
1262871 On ch=1 n=c#6 v=0
1262961 On ch=1 n=d6 v=103
1262961 On ch=1 n=e5 v=100
1262966 On ch=1 n=g#5 v=76
1262971 On ch=1 n=d5 v=96
1262981 On ch=1 n=e4 v=84
1263016 On ch=1 n=e4 v=0
1263036 On ch=1 n=d5 v=0
1263036 On ch=1 n=g#5 v=0
1263046 On ch=1 n=e5 v=0
1263076 On ch=1 n=d6 v=0
1263296 On ch=1 n=f6 v=94
1263296 On ch=1 n=g#5 v=85
1263306 On ch=1 n=f5 v=84
1263306 On ch=1 n=d6 v=79
1263316 On ch=1 n=b4 v=74
1263316 On ch=1 n=f4 v=70
1263321 On ch=1 n=b3 v=69
1263336 Par ch=1 c=64 v=24
1263361 On ch=1 n=b3 v=0
1263361 On ch=1 n=f4 v=0
1263361 On ch=1 n=f5 v=0
1263371 On ch=1 n=g#5 v=0
1263376 On ch=1 n=b4 v=0
1263381 On ch=1 n=d6 v=0
1263406 On ch=1 n=f6 v=0
1263431 Par ch=1 c=64 v=0
1263626 On ch=1 n=a#4 v=70
1263626 On ch=1 n=g#6 v=97
1263631 On ch=1 n=g#5 v=95
1263636 On ch=1 n=a#5 v=85
1263636 On ch=1 n=f4 v=69
1263641 On ch=1 n=d6 v=89
1263641 On ch=1 n=a#3 v=64
1263646 Par ch=1 c=64 v=56
1263666 Par ch=1 c=64 v=104
1263671 On ch=1 n=f4 v=0
1263681 Par ch=1 c=64 v=127
1263686 On ch=1 n=a#4 v=0
1263706 On ch=1 n=a#3 v=0
1263721 On ch=1 n=d6 v=0
1263726 On ch=1 n=a#5 v=0
1263731 On ch=1 n=g#5 v=0
1263776 On ch=1 n=g#6 v=0
1263776 Par ch=1 c=64 v=72
1263801 Par ch=1 c=64 v=24
1263816 Par ch=1 c=64 v=0
1263956 On ch=1 n=g6 v=105
1263956 On ch=1 n=a#5 v=83
1263961 On ch=1 n=g5 v=93
1263961 On ch=1 n=d#6 v=86
1263961 On ch=1 n=d#4 v=85
1263961 On ch=1 n=a#3 v=82
1263971 On ch=1 n=d#3 v=69
1263976 Par ch=1 c=64 v=24
1263991 Par ch=1 c=64 v=72
1264011 On ch=1 n=g5 v=0
1264011 On ch=1 n=a#5 v=0
1264011 Par ch=1 c=64 v=127
1264021 On ch=1 n=d#4 v=0
1264026 On ch=1 n=a#3 v=0
1264036 On ch=1 n=d#3 v=0
1264041 On ch=1 n=d#6 v=0
1264061 On ch=1 n=g6 v=0
1264091 Par ch=1 c=64 v=104
1264106 Par ch=1 c=64 v=88
1264131 Par ch=1 c=64 v=56
1264151 Par ch=1 c=64 v=24
1264166 Par ch=1 c=64 v=0
1264281 On ch=1 n=a#6 v=93
1264291 On ch=1 n=a#5 v=99
1264291 On ch=1 n=d#6 v=88
1264296 On ch=1 n=g6 v=90
1264296 On ch=1 n=c#4 v=90
1264301 On ch=1 n=c#3 v=74
1264321 Par ch=1 c=64 v=104
1264341 Par ch=1 c=64 v=127
1264351 On ch=1 n=a#5 v=0
1264356 On ch=1 n=c#4 v=0
1264366 On ch=1 n=c#3 v=0
1264371 On ch=1 n=d#6 v=0
1264401 On ch=1 n=g6 v=0
1264401 On ch=1 n=a#6 v=0
1264456 Par ch=1 c=64 v=88
1264476 Par ch=1 c=64 v=40
1264491 On ch=1 n=a#3 v=48
1264496 Par ch=1 c=64 v=0
1264521 On ch=1 n=a#3 v=0
1264631 On ch=1 n=c#7 v=98
1264631 On ch=1 n=c#6 v=96
1264636 On ch=1 n=d#6 v=86
1264636 On ch=1 n=a#6 v=77
1264646 On ch=1 n=a#3 v=91
1264656 On ch=1 n=a#2 v=78
1264661 On ch=1 n=d#3 v=71
1264686 Par ch=1 c=64 v=88
1264706 On ch=1 n=a#3 v=0
1264706 Par ch=1 c=64 v=127
1264711 On ch=1 n=d#3 v=0
1264721 On ch=1 n=a#2 v=0
1264741 On ch=1 n=d#6 v=0
1264751 On ch=1 n=c#6 v=0
1264761 On ch=1 n=a#6 v=0
1264786 On ch=1 n=c#7 v=0
1264826 Par ch=1 c=64 v=104
1264846 Par ch=1 c=64 v=72
1264866 Par ch=1 c=64 v=40
1264886 Par ch=1 c=64 v=0
1265021 On ch=1 n=c7 v=105
1265021 On ch=1 n=c6 v=100
1265026 On ch=1 n=d#6 v=87
1265026 On ch=1 n=g#6 v=85
1265031 On ch=1 n=g#3 v=84
1265036 On ch=1 n=d#3 v=77
1265036 On ch=1 n=g#2 v=80
1265076 Par ch=1 c=64 v=104
1265096 On ch=1 n=d#3 v=0
1265096 On ch=1 n=g#3 v=0
1265096 Par ch=1 c=64 v=127
1265101 On ch=1 n=g#2 v=0
1265126 On ch=1 n=c6 v=0
1265131 On ch=1 n=d#6 v=0
1265146 On ch=1 n=g#6 v=0
1265161 On ch=1 n=c7 v=0
1265756 Par ch=1 c=64 v=104
1265776 Par ch=1 c=64 v=88
1265816 Par ch=1 c=64 v=72
1265831 Par ch=1 c=64 v=56
1265851 Par ch=1 c=64 v=40
1265871 Par ch=1 c=64 v=24
1265891 Par ch=1 c=64 v=0
1268161 Par ch=1 c=64 v=24
1268181 Par ch=1 c=64 v=56
1268196 Par ch=1 c=64 v=104
1268216 Par ch=1 c=64 v=127
1268506 On ch=1 n=g#5 v=46
1268531 On ch=1 n=f4 v=38
1268656 On ch=1 n=f4 v=0
1268821 On ch=1 n=g#5 v=0
1268831 On ch=1 n=c6 v=67
1268921 On ch=1 n=c6 v=0
1269121 On ch=1 n=g#5 v=32
1269151 On ch=1 n=f5 v=32
1269201 On ch=1 n=f5 v=0
1269201 On ch=1 n=g#5 v=0
1269361 On ch=1 n=c6 v=74
1269621 On ch=1 n=c6 v=0
1269651 On ch=1 n=b5 v=70
1269696 On ch=1 n=g#4 v=42
1269726 Par ch=1 c=64 v=88
1269746 Par ch=1 c=64 v=0
1269846 Par ch=1 c=64 v=40
1269861 Par ch=1 c=64 v=104
1269881 Par ch=1 c=64 v=127
1269941 On ch=1 n=c6 v=83
1269951 On ch=1 n=b5 v=0
1270021 On ch=1 n=c6 v=0
1270086 On ch=1 n=g#4 v=0
1270226 On ch=1 n=f5 v=41
1270236 On ch=1 n=g#5 v=34
1270326 On ch=1 n=f5 v=0
1270331 On ch=1 n=g#5 v=0
1270461 On ch=1 n=c6 v=75
1270546 On ch=1 n=c6 v=0
1270766 On ch=1 n=c6 v=79
1270811 Par ch=1 c=64 v=56
1270816 On ch=1 n=c5 v=54
1270831 Par ch=1 c=64 v=0
1270931 Par ch=1 c=64 v=40
1270946 Par ch=1 c=64 v=104
1270966 Par ch=1 c=64 v=127
1271066 On ch=1 n=g#6 v=77
1271071 On ch=1 n=c6 v=0
1271371 On ch=1 n=c5 v=0
1271391 On ch=1 n=a#5 v=30
1271396 On ch=1 n=e5 v=40
1271666 On ch=1 n=g6 v=67
1271671 On ch=1 n=g#6 v=0
1271976 On ch=1 n=e5 v=0
1272011 On ch=1 n=g6 v=0
1272011 On ch=1 n=f6 v=63
1272036 On ch=1 n=c#5 v=34
1272091 Par ch=1 c=64 v=104
1272111 Par ch=1 c=64 v=56
1272126 Par ch=1 c=64 v=0
1272141 On ch=1 n=a#5 v=0
1272266 Par ch=1 c=64 v=56
1272281 Par ch=1 c=64 v=127
1272311 On ch=1 n=f6 v=0
1272581 On ch=1 n=c#5 v=0
1272591 On ch=1 n=g#5 v=35
1272606 On ch=1 n=f5 v=33
1272716 On ch=1 n=g#5 v=0
1272721 On ch=1 n=f5 v=0
1272856 On ch=1 n=f6 v=77
1273146 On ch=1 n=f6 v=0
1273166 On ch=1 n=b5 v=66
1273191 Par ch=1 c=64 v=88
1273206 On ch=1 n=d5 v=48
1273211 Par ch=1 c=64 v=0
1273311 Par ch=1 c=64 v=24
1273331 Par ch=1 c=64 v=88
1273351 Par ch=1 c=64 v=127
1273471 On ch=1 n=f6 v=77
1273621 On ch=1 n=f6 v=0
1273631 On ch=1 n=b5 v=0
1273731 On ch=1 n=d5 v=0
1273746 On ch=1 n=g#5 v=46
1273751 On ch=1 n=f5 v=45
1273816 On ch=1 n=f5 v=0
1273846 On ch=1 n=g#5 v=0
1273981 On ch=1 n=f6 v=80
1274246 On ch=1 n=f6 v=0
1274266 On ch=1 n=c6 v=77
1274316 On ch=1 n=d#5 v=32
1274316 Par ch=1 c=64 v=88
1274336 Par ch=1 c=64 v=0
1274471 Par ch=1 c=64 v=56
1274491 Par ch=1 c=64 v=127
1274541 On ch=1 n=d#6 v=80
1274586 On ch=1 n=c6 v=0
1274651 On ch=1 n=d#6 v=0
1274811 On ch=1 n=g#5 v=49
1274901 On ch=1 n=d#5 v=0
1274996 On ch=1 n=g#5 v=0
1275071 On ch=1 n=d#6 v=83
1275211 On ch=1 n=d#6 v=0
1275381 On ch=1 n=d#6 v=83
1275421 On ch=1 n=d#5 v=49
1275421 Par ch=1 c=64 v=104
1275441 Par ch=1 c=64 v=24
1275456 Par ch=1 c=64 v=0
1275556 Par ch=1 c=64 v=56
1275576 Par ch=1 c=64 v=127
1275691 On ch=1 n=d#7 v=77
1275701 On ch=1 n=c7 v=74
1276066 On ch=1 n=c#6 v=31
1276081 On ch=1 n=g5 v=38
1276301 On ch=1 n=c7 v=0
1276346 On ch=1 n=a#6 v=63
1276411 On ch=1 n=g5 v=0
1276476 On ch=1 n=c#6 v=0
1276496 On ch=1 n=a#6 v=0
1276731 On ch=1 n=g#6 v=49
1276736 Par ch=1 c=64 v=72
1276756 Par ch=1 c=64 v=0
1276761 On ch=1 n=g#5 v=30
1276766 On ch=1 n=c6 v=46
1276871 Par ch=1 c=64 v=56
1276891 Par ch=1 c=64 v=127
1276906 On ch=1 n=c6 v=0
1276941 On ch=1 n=g#5 v=0
1276956 On ch=1 n=d#5 v=0
1277361 On ch=1 n=d#7 v=0
1277376 On ch=1 n=g#4 v=39
1277411 On ch=1 n=d#6 v=0
1277446 On ch=1 n=g#6 v=0
1277511 On ch=1 n=g#4 v=0
1278156 On ch=1 n=g#5 v=48
1278171 Par ch=1 c=64 v=88
1278186 Par ch=1 c=64 v=24
1278201 On ch=1 n=f4 v=46
1278206 Par ch=1 c=64 v=0
1278301 Par ch=1 c=64 v=24
1278326 Par ch=1 c=64 v=88
1278341 Par ch=1 c=64 v=127
1278346 On ch=1 n=f4 v=0
1278461 On ch=1 n=g#5 v=0
1278496 On ch=1 n=c6 v=72
1278626 On ch=1 n=c6 v=0
1278761 On ch=1 n=g#5 v=38
1278776 On ch=1 n=f5 v=44
1278831 On ch=1 n=f5 v=0
1278856 On ch=1 n=g#5 v=0
1279016 On ch=1 n=c6 v=75
1279266 On ch=1 n=c6 v=0
1279296 On ch=1 n=b5 v=62
1279296 On ch=1 n=g#4 v=44
1279351 Par ch=1 c=64 v=56
1279371 Par ch=1 c=64 v=0
1279466 Par ch=1 c=64 v=24
1279486 Par ch=1 c=64 v=104
1279506 Par ch=1 c=64 v=127
1279581 On ch=1 n=b5 v=0
1279581 On ch=1 n=c6 v=76
1279706 On ch=1 n=c6 v=0
1279801 On ch=1 n=g#4 v=0
1279856 On ch=1 n=g#5 v=40
1279871 On ch=1 n=f5 v=47
1279981 On ch=1 n=g#5 v=0
1279991 On ch=1 n=f5 v=0
1280116 On ch=1 n=c6 v=70
1280236 On ch=1 n=c6 v=0
1280386 On ch=1 n=c6 v=61
1280396 On ch=1 n=c5 v=65
1280476 Par ch=1 c=64 v=72
1280491 Par ch=1 c=64 v=0
1280606 Par ch=1 c=64 v=72
1280626 Par ch=1 c=64 v=127
1280696 On ch=1 n=g#6 v=67
1280961 On ch=1 n=c5 v=0
1280976 On ch=1 n=e5 v=54
1280981 On ch=1 n=a#5 v=38
1281236 On ch=1 n=g6 v=70
1281266 On ch=1 n=c6 v=0
1281301 On ch=1 n=g#6 v=0
1281441 On ch=1 n=e5 v=0
1281536 On ch=1 n=f6 v=68
1281561 On ch=1 n=g6 v=0
1281566 On ch=1 n=c#5 v=35
1281636 Par ch=1 c=64 v=104
1281656 Par ch=1 c=64 v=72
1281671 Par ch=1 c=64 v=40
1281691 Par ch=1 c=64 v=0
1281781 On ch=1 n=a#5 v=0
1281906 Par ch=1 c=64 v=24
1281926 Par ch=1 c=64 v=72
1281946 Par ch=1 c=64 v=127
1282091 On ch=1 n=f6 v=0
1282186 On ch=1 n=c#5 v=0
1282201 On ch=1 n=f5 v=33
1282206 On ch=1 n=g#5 v=29
1282276 On ch=1 n=f5 v=0
1282296 On ch=1 n=g#5 v=0
1282446 On ch=1 n=f6 v=74
1282711 On ch=1 n=f6 v=0
1282746 On ch=1 n=b5 v=56
1282786 On ch=1 n=d5 v=36
1282796 Par ch=1 c=64 v=104
1282816 Par ch=1 c=64 v=24
1282836 Par ch=1 c=64 v=0
1282931 Par ch=1 c=64 v=40
1282951 Par ch=1 c=64 v=127
1283046 On ch=1 n=f6 v=70
1283156 On ch=1 n=b5 v=0
1283191 On ch=1 n=f6 v=0
1283321 On ch=1 n=g#5 v=47
1283326 On ch=1 n=f5 v=48
1283336 On ch=1 n=d5 v=0
1283421 On ch=1 n=g#5 v=0
1283436 On ch=1 n=f5 v=0
1283571 On ch=1 n=f6 v=76
1283841 On ch=1 n=f6 v=0
1283861 On ch=1 n=c6 v=74
1283901 On ch=1 n=d#5 v=33
1283921 Par ch=1 c=64 v=40
1283936 Par ch=1 c=64 v=0
1284056 Par ch=1 c=64 v=56
1284076 Par ch=1 c=64 v=127
1284141 On ch=1 n=d#6 v=75
1284176 On ch=1 n=c6 v=0
1284251 On ch=1 n=d#6 v=0
1284421 On ch=1 n=g#5 v=46
1284486 On ch=1 n=d#5 v=0
1284526 On ch=1 n=g#5 v=0
1284691 On ch=1 n=d#6 v=67
1284796 On ch=1 n=d#6 v=0
1284996 On ch=1 n=d#6 v=70
1285026 On ch=1 n=d#5 v=42
1285061 Par ch=1 c=64 v=88
1285081 Par ch=1 c=64 v=0
1285196 Par ch=1 c=64 v=24
1285216 Par ch=1 c=64 v=104
1285236 Par ch=1 c=64 v=127
1285331 On ch=1 n=d#7 v=73
1285341 On ch=1 n=c7 v=69
1285676 On ch=1 n=c#6 v=39
1285706 On ch=1 n=g5 v=36
1285921 On ch=1 n=c7 v=0
1286006 On ch=1 n=a#6 v=59
1286066 On ch=1 n=c#6 v=0
1286106 On ch=1 n=g5 v=0
1286126 On ch=1 n=a#6 v=0
1286396 Par ch=1 c=64 v=104
1286401 On ch=1 n=g#6 v=53
1286416 Par ch=1 c=64 v=40
1286436 Par ch=1 c=64 v=0
1286456 On ch=1 n=g#5 v=32
1286461 On ch=1 n=c6 v=36
1286531 Par ch=1 c=64 v=24
1286551 Par ch=1 c=64 v=104
1286571 Par ch=1 c=64 v=127
1286586 On ch=1 n=c6 v=0
1286616 On ch=1 n=g#5 v=0
1286626 On ch=1 n=d#5 v=0
1287111 On ch=1 n=g#4 v=38
1287221 On ch=1 n=d#6 v=0
1287291 On ch=1 n=d#7 v=0
1287316 On ch=1 n=g#4 v=0
1287346 On ch=1 n=g#6 v=0
1287951 On ch=1 n=g#6 v=54
1287976 On ch=1 n=g#3 v=39
1288006 Par ch=1 c=64 v=56
1288021 Par ch=1 c=64 v=0
1288121 Par ch=1 c=64 v=88
1288141 Par ch=1 c=64 v=127
1288181 On ch=1 n=g#3 v=0
1288461 On ch=1 n=g#7 v=75
1288836 On ch=1 n=d#4 v=35
1288856 On ch=1 n=c5 v=25
1288926 On ch=1 n=g#7 v=0
1288931 On ch=1 n=c5 v=0
1288931 On ch=1 n=g#6 v=0
1288996 On ch=1 n=d#4 v=0
1289156 On ch=1 n=g#7 v=85
1289176 On ch=1 n=g#6 v=64
1289251 On ch=1 n=g#6 v=0
1289281 On ch=1 n=g#7 v=0
1289511 On ch=1 n=g#7 v=82
1289521 On ch=1 n=g#6 v=55
1289541 On ch=1 n=a#3 v=44
1289556 Par ch=1 c=64 v=72
1289571 Par ch=1 c=64 v=0
1289651 Par ch=1 c=64 v=72
1289671 Par ch=1 c=64 v=127
1289736 On ch=1 n=g#6 v=0
1289736 On ch=1 n=g#7 v=0
1289756 On ch=1 n=a#3 v=0
1289831 On ch=1 n=g7 v=78
1289846 On ch=1 n=g6 v=60
1290016 On ch=1 n=g6 v=0
1290051 On ch=1 n=g7 v=0
1290136 On ch=1 n=c#5 v=37
1290141 On ch=1 n=d#4 v=42
1290216 On ch=1 n=c#5 v=0
1290221 On ch=1 n=d#4 v=0
1290391 On ch=1 n=g7 v=89
1290406 On ch=1 n=g6 v=67
1290486 On ch=1 n=g6 v=0
1290521 On ch=1 n=g7 v=0
1290676 On ch=1 n=g7 v=83
1290676 Par ch=1 c=64 v=104
1290681 On ch=1 n=g6 v=63
1290696 Par ch=1 c=64 v=24
1290716 Par ch=1 c=64 v=0
1290731 On ch=1 n=b3 v=48
1290771 Par ch=1 c=64 v=56
1290791 Par ch=1 c=64 v=127
1290831 On ch=1 n=g6 v=0
1290831 On ch=1 n=g7 v=0
1290841 On ch=1 n=b3 v=0
1290976 On ch=1 n=f7 v=82
1290981 On ch=1 n=f6 v=71
1291161 On ch=1 n=f6 v=0
1291226 On ch=1 n=f7 v=0
1291251 On ch=1 n=d5 v=49
1291251 On ch=1 n=d4 v=45
1291296 On ch=1 n=d5 v=0
1291306 On ch=1 n=d4 v=0
1291476 On ch=1 n=f7 v=89
1291481 On ch=1 n=f6 v=74
1291571 On ch=1 n=f6 v=0
1291591 On ch=1 n=f7 v=0
1291741 Par ch=1 c=64 v=88
1291751 On ch=1 n=f7 v=90
1291751 On ch=1 n=f6 v=80
1291756 Par ch=1 c=64 v=0
1291786 On ch=1 n=c4 v=56
1291836 On ch=1 n=c4 v=0
1291836 Par ch=1 c=64 v=24
1291856 Par ch=1 c=64 v=104
1291876 On ch=1 n=f6 v=0
1291876 Par ch=1 c=64 v=127
1291906 On ch=1 n=f7 v=0
1292026 On ch=1 n=d#7 v=82
1292041 On ch=1 n=d#6 v=71
1292216 On ch=1 n=d#7 v=0
1292261 On ch=1 n=d#5 v=45
1292266 On ch=1 n=d#4 v=54
1292311 On ch=1 n=d#6 v=0
1292316 On ch=1 n=d#4 v=0
1292336 On ch=1 n=d#5 v=0
1292511 On ch=1 n=d#7 v=82
1292521 On ch=1 n=d#6 v=70
1292621 On ch=1 n=d#6 v=0
1292621 On ch=1 n=d#7 v=0
1292771 On ch=1 n=d#7 v=82
1292781 On ch=1 n=d#6 v=65
1292786 Par ch=1 c=64 v=72
1292806 Par ch=1 c=64 v=0
1292836 On ch=1 n=f4 v=46
1292896 On ch=1 n=d#6 v=0
1292921 Par ch=1 c=64 v=127
1292966 On ch=1 n=d#7 v=0
1293011 On ch=1 n=f4 v=0
1293026 On ch=1 n=c#7 v=85
1293041 On ch=1 n=c#6 v=67
1293176 On ch=1 n=c#6 v=0
1293211 On ch=1 n=c#7 v=0
1293271 On ch=1 n=g#5 v=55
1293281 On ch=1 n=c#5 v=51
1293331 On ch=1 n=g#5 v=0
1293351 On ch=1 n=c#5 v=0
1293511 On ch=1 n=c#7 v=89
1293516 On ch=1 n=c#6 v=74
1293606 On ch=1 n=c#6 v=0
1293616 On ch=1 n=c#7 v=0
1293756 On ch=1 n=c#7 v=83
1293771 On ch=1 n=c#6 v=65
1293796 Par ch=1 c=64 v=56
1293801 On ch=1 n=f#4 v=54
1293811 Par ch=1 c=64 v=0
1293911 Par ch=1 c=64 v=104
1293916 On ch=1 n=c#6 v=0
1293926 On ch=1 n=c#7 v=0
1293931 Par ch=1 c=64 v=127
1293986 On ch=1 n=f#4 v=0
1294011 On ch=1 n=c7 v=89
1294021 On ch=1 n=c6 v=74
1294151 On ch=1 n=c6 v=0
1294186 On ch=1 n=c7 v=0
1294261 On ch=1 n=d#5 v=48
1294271 On ch=1 n=a5 v=56
1294341 On ch=1 n=a5 v=0
1294361 On ch=1 n=d#5 v=0
1294516 On ch=1 n=c7 v=84
1294526 On ch=1 n=c6 v=73
1294606 On ch=1 n=c6 v=0
1294631 On ch=1 n=c7 v=0
1294766 On ch=1 n=c7 v=81
1294791 On ch=1 n=c6 v=52
1294801 Par ch=1 c=64 v=72
1294806 On ch=1 n=g4 v=55
1294821 Par ch=1 c=64 v=0
1294911 On ch=1 n=c6 v=0
1294916 Par ch=1 c=64 v=88
1294936 Par ch=1 c=64 v=127
1294951 On ch=1 n=c7 v=0
1295046 On ch=1 n=b6 v=81
1295061 On ch=1 n=b5 v=56
1295226 On ch=1 n=b5 v=0
1295331 On ch=1 n=g5 v=43
1295346 On ch=1 n=d5 v=44
1295411 On ch=1 n=g5 v=0
1295411 On ch=1 n=g4 v=0
1295431 On ch=1 n=d5 v=0
1295446 On ch=1 n=b6 v=0
1295591 On ch=1 n=c7 v=82
1295606 On ch=1 n=c6 v=66
1295691 On ch=1 n=c6 v=0
1295691 On ch=1 n=c7 v=0
1295916 On ch=1 n=b6 v=75
1295926 On ch=1 n=b5 v=58
1295941 Par ch=1 c=64 v=40
1295961 Par ch=1 c=64 v=0
1295966 On ch=1 n=c4 v=51
1296056 Par ch=1 c=64 v=104
1296066 On ch=1 n=b5 v=0
1296081 Par ch=1 c=64 v=127
1296121 On ch=1 n=c4 v=0
1296166 On ch=1 n=b6 v=0
1296266 On ch=1 n=a#6 v=68
1296281 On ch=1 n=a#5 v=50
1296501 Par ch=1 c=64 v=104
1296546 Par ch=1 c=64 v=127
1296641 On ch=1 n=c5 v=34
1296666 On ch=1 n=e5 v=29
1296671 On ch=1 n=a#5 v=0
1296826 On ch=1 n=e5 v=0
1296826 On ch=1 n=c5 v=0
1296836 On ch=1 n=a#6 v=0
1297016 On ch=1 n=c7 v=62
1297041 On ch=1 n=c6 v=47
1297106 On ch=1 n=c7 v=0
1297111 On ch=1 n=c6 v=0
1297511 On ch=1 n=g#5 v=51
1297526 On ch=1 n=f4 v=56
1297551 Par ch=1 c=64 v=104
1297571 Par ch=1 c=64 v=40
1297591 Par ch=1 c=64 v=0
1297686 Par ch=1 c=64 v=88
1297706 Par ch=1 c=64 v=127
1297771 On ch=1 n=f4 v=0
1297831 On ch=1 n=g#5 v=0
1297871 On ch=1 n=c6 v=64
1297971 On ch=1 n=c6 v=0
1298196 On ch=1 n=g#5 v=34
1298221 On ch=1 n=f5 v=36
1298271 On ch=1 n=f5 v=0
1298296 On ch=1 n=g#5 v=0
1298456 On ch=1 n=c6 v=61
1298686 On ch=1 n=c6 v=0
1298706 On ch=1 n=g#4 v=55
1298741 On ch=1 n=b5 v=63
1298806 Par ch=1 c=64 v=56
1298826 Par ch=1 c=64 v=0
1298926 Par ch=1 c=64 v=40
1298946 Par ch=1 c=64 v=127
1299021 On ch=1 n=c6 v=66
1299031 On ch=1 n=b5 v=0
1299106 On ch=1 n=c6 v=0
1299271 On ch=1 n=g#4 v=0
1299281 On ch=1 n=f5 v=46
1299296 On ch=1 n=g#5 v=31
1299496 On ch=1 n=f5 v=0
1299531 On ch=1 n=c6 v=67
1299636 On ch=1 n=c6 v=0
1299761 On ch=1 n=g#5 v=0
1299826 On ch=1 n=c5 v=66
1299826 On ch=1 n=c6 v=59
1299911 Par ch=1 c=64 v=56
1299931 Par ch=1 c=64 v=0
1300046 Par ch=1 c=64 v=88
1300066 Par ch=1 c=64 v=127
1300111 On ch=1 n=g#6 v=59
1300401 On ch=1 n=a#5 v=38
1300426 On ch=1 n=e5 v=44
1300511 On ch=1 n=c5 v=0
1300616 On ch=1 n=c6 v=0
1300641 On ch=1 n=g#6 v=0
1300661 On ch=1 n=g6 v=64
1300951 On ch=1 n=e5 v=0
1300956 On ch=1 n=g6 v=0
1300956 On ch=1 n=f6 v=66
1300996 On ch=1 n=c#5 v=42
1301041 On ch=1 n=a#5 v=0
1301111 Par ch=1 c=64 v=56
1301131 Par ch=1 c=64 v=0
1301286 Par ch=1 c=64 v=104
1301306 Par ch=1 c=64 v=127
1301321 On ch=1 n=f6 v=0
1301606 On ch=1 n=g#5 v=30
1301621 On ch=1 n=f5 v=38
1301711 On ch=1 n=c#5 v=0
1301841 On ch=1 n=f6 v=70
1302106 On ch=1 n=g#5 v=0
1302146 On ch=1 n=f6 v=0
1302146 On ch=1 n=f5 v=0
1302161 On ch=1 n=d5 v=60
1302181 On ch=1 n=b5 v=52
1302231 Par ch=1 c=64 v=88
1302256 Par ch=1 c=64 v=0
1302391 Par ch=1 c=64 v=88
1302411 Par ch=1 c=64 v=127
1302466 On ch=1 n=f6 v=70
1302651 On ch=1 n=f6 v=0
1302666 On ch=1 n=b5 v=0
1302736 On ch=1 n=f5 v=56
1302736 On ch=1 n=g#5 v=50
1302766 On ch=1 n=d5 v=0
1302996 On ch=1 n=f6 v=70
1303016 On ch=1 n=f5 v=0
1303096 On ch=1 n=g#5 v=0
1303266 On ch=1 n=f6 v=0
1303281 On ch=1 n=c6 v=66
1303311 On ch=1 n=d#5 v=43
1303376 Par ch=1 c=64 v=56
1303396 Par ch=1 c=64 v=0
1303511 Par ch=1 c=64 v=24
1303531 Par ch=1 c=64 v=104
1303551 Par ch=1 c=64 v=127
1303571 On ch=1 n=d#6 v=69
1303616 On ch=1 n=c6 v=0
1303771 On ch=1 n=d#6 v=0
1303906 On ch=1 n=g#5 v=44
1304051 On ch=1 n=d#5 v=0
1304171 On ch=1 n=d#6 v=73
1304311 On ch=1 n=d#6 v=0
1304486 On ch=1 n=g#5 v=0
1304501 On ch=1 n=d#6 v=77
1304521 On ch=1 n=d#5 v=40
1304576 Par ch=1 c=64 v=88
1304596 Par ch=1 c=64 v=0
1304716 Par ch=1 c=64 v=72
1304731 Par ch=1 c=64 v=127
1304836 On ch=1 n=c7 v=70
1304856 On ch=1 n=d#7 v=54
1305201 On ch=1 n=g5 v=39
1305201 On ch=1 n=c#6 v=33
1305466 On ch=1 n=c7 v=0
1305526 On ch=1 n=a#6 v=54
1305541 On ch=1 n=g5 v=0
1305561 On ch=1 n=c#6 v=0
1305686 On ch=1 n=a#6 v=0
1305981 On ch=1 n=g#6 v=47
1306011 Par ch=1 c=64 v=72
1306026 Par ch=1 c=64 v=0
1306041 On ch=1 n=c6 v=33
1306056 On ch=1 n=g#5 v=26
1306146 Par ch=1 c=64 v=72
1306166 Par ch=1 c=64 v=127
1306176 On ch=1 n=c6 v=0
1306211 On ch=1 n=g#5 v=0
1306226 On ch=1 n=d#5 v=0
1306676 On ch=1 n=g#4 v=35
1306776 On ch=1 n=d#6 v=0
1306891 On ch=1 n=g#6 v=0
1306911 On ch=1 n=d#7 v=0
1306916 On ch=1 n=g#4 v=0
1307601 On ch=1 n=g#6 v=45
1307651 On ch=1 n=g#3 v=35
1307656 Par ch=1 c=64 v=104
1307676 Par ch=1 c=64 v=24
1307696 Par ch=1 c=64 v=0
1307771 Par ch=1 c=64 v=40
1307791 Par ch=1 c=64 v=127
1307851 On ch=1 n=g#3 v=0
1308091 On ch=1 n=g#7 v=73
1308496 On ch=1 n=c5 v=37
1308516 On ch=1 n=d#4 v=34
1308531 On ch=1 n=g#7 v=0
1308581 On ch=1 n=g#6 v=0
1308621 On ch=1 n=c5 v=0
1308686 On ch=1 n=d#4 v=0
1308856 On ch=1 n=g#7 v=76
1308876 On ch=1 n=g#6 v=53
1308966 On ch=1 n=g#6 v=0
1308986 On ch=1 n=g#7 v=0
1309226 On ch=1 n=g#7 v=79
1309241 On ch=1 n=g#6 v=60
1309241 On ch=1 n=a#3 v=42
1309261 Par ch=1 c=64 v=56
1309281 Par ch=1 c=64 v=0
1309356 Par ch=1 c=64 v=72
1309376 Par ch=1 c=64 v=127
1309456 On ch=1 n=g#7 v=0
1309461 On ch=1 n=g#6 v=0
1309491 On ch=1 n=a#3 v=0
1309571 On ch=1 n=g7 v=79
1309581 On ch=1 n=g6 v=66
1309786 On ch=1 n=g6 v=0
1309811 On ch=1 n=g7 v=0
1309866 On ch=1 n=c#5 v=38
1309876 On ch=1 n=d#4 v=46
1309941 On ch=1 n=c#5 v=0
1309966 On ch=1 n=d#4 v=0
1310141 On ch=1 n=g7 v=82
1310156 On ch=1 n=g6 v=63
1310251 On ch=1 n=g6 v=0
1310271 On ch=1 n=g7 v=0
1310426 Par ch=1 c=64 v=88
1310441 On ch=1 n=g7 v=82
1310446 Par ch=1 c=64 v=40
1310456 On ch=1 n=g6 v=53
1310466 On ch=1 n=b3 v=58
1310466 Par ch=1 c=64 v=24
1310481 Par ch=1 c=64 v=40
1310501 Par ch=1 c=64 v=88
1310521 Par ch=1 c=64 v=127
1310566 On ch=1 n=b3 v=0
1310586 On ch=1 n=g6 v=0
1310586 On ch=1 n=g7 v=0
1310741 On ch=1 n=f7 v=83
1310756 On ch=1 n=f6 v=66
1310956 On ch=1 n=f6 v=0
1310981 On ch=1 n=f7 v=0
1311006 On ch=1 n=d5 v=49
1311016 On ch=1 n=d4 v=45
1311076 On ch=1 n=d4 v=0
1311086 On ch=1 n=d5 v=0
1311246 On ch=1 n=f7 v=89
1311261 On ch=1 n=f6 v=67
1311316 On ch=1 n=f6 v=0
1311366 On ch=1 n=f7 v=0
1311521 On ch=1 n=f7 v=87
1311526 On ch=1 n=f6 v=73
1311531 Par ch=1 c=64 v=72
1311546 On ch=1 n=c4 v=53
1311546 Par ch=1 c=64 v=0
1311606 Par ch=1 c=64 v=56
1311626 Par ch=1 c=64 v=127
1311631 On ch=1 n=f6 v=0
1311706 On ch=1 n=f7 v=0
1311756 On ch=1 n=c4 v=0
1311806 On ch=1 n=d#7 v=85
1311821 On ch=1 n=d#6 v=68
1311981 On ch=1 n=d#7 v=0
1311986 On ch=1 n=d#6 v=0
1312061 On ch=1 n=d#4 v=55
1312071 On ch=1 n=d#5 v=45
1312121 On ch=1 n=d#5 v=0
1312156 On ch=1 n=d#4 v=0
1312306 On ch=1 n=d#7 v=86
1312316 On ch=1 n=d#6 v=74
1312401 On ch=1 n=d#6 v=0
1312411 On ch=1 n=d#7 v=0
1312571 On ch=1 n=d#7 v=81
1312576 On ch=1 n=d#6 v=65
1312591 Par ch=1 c=64 v=56
1312611 Par ch=1 c=64 v=0
1312616 On ch=1 n=f4 v=54
1312711 Par ch=1 c=64 v=104
1312721 On ch=1 n=d#6 v=0
1312731 Par ch=1 c=64 v=127
1312786 On ch=1 n=d#7 v=0
1312801 On ch=1 n=f4 v=0
1312841 On ch=1 n=c#7 v=81
1312856 On ch=1 n=c#6 v=56
1312981 On ch=1 n=c#6 v=0
1313031 On ch=1 n=c#7 v=0
1313101 On ch=1 n=g#5 v=49
1313101 On ch=1 n=c#5 v=47
1313151 On ch=1 n=c#5 v=0
1313156 On ch=1 n=g#5 v=0
1313346 On ch=1 n=c#7 v=82
1313361 On ch=1 n=c#6 v=69
1313451 On ch=1 n=c#6 v=0
1313461 On ch=1 n=c#7 v=0
1313606 On ch=1 n=c#7 v=83
1313621 On ch=1 n=c#6 v=65
1313641 Par ch=1 c=64 v=24
1313661 Par ch=1 c=64 v=0
1313681 On ch=1 n=f#4 v=49
1313756 Par ch=1 c=64 v=127
1313796 On ch=1 n=c#6 v=0
1313811 On ch=1 n=c#7 v=0
1313861 On ch=1 n=f#4 v=0
1313866 On ch=1 n=c7 v=84
1313881 On ch=1 n=c6 v=69
1314026 On ch=1 n=c6 v=0
1314081 On ch=1 n=c7 v=0
1314126 On ch=1 n=a5 v=59
1314146 On ch=1 n=d#5 v=38
1314211 On ch=1 n=a5 v=0
1314226 On ch=1 n=d#5 v=0
1314381 On ch=1 n=c7 v=83
1314386 On ch=1 n=c6 v=74
1314461 On ch=1 n=c6 v=0
1314496 On ch=1 n=c7 v=0
1314626 Par ch=1 c=64 v=88
1314641 On ch=1 n=c7 v=83
1314646 Par ch=1 c=64 v=0
1314656 On ch=1 n=c6 v=66
1314691 On ch=1 n=g4 v=52
1314746 Par ch=1 c=64 v=127
1314766 On ch=1 n=c6 v=0
1314841 On ch=1 n=c7 v=0
1314926 On ch=1 n=b6 v=73
1314936 On ch=1 n=b5 v=51
1314996 Par ch=1 c=64 v=88
1315011 Par ch=1 c=64 v=0
1315111 Par ch=1 c=64 v=104
1315131 Par ch=1 c=64 v=127
1315186 On ch=1 n=b5 v=0
1315211 On ch=1 n=g5 v=48
1315241 On ch=1 n=d5 v=42
1315286 On ch=1 n=g5 v=0
1315301 On ch=1 n=d5 v=0
1315336 On ch=1 n=g4 v=0
1315401 On ch=1 n=b6 v=0
1315481 On ch=1 n=c7 v=68
1315496 On ch=1 n=c6 v=60
1315576 On ch=1 n=c7 v=0
1315586 On ch=1 n=c6 v=0
1315786 On ch=1 n=b6 v=65
1315806 On ch=1 n=b5 v=36
1315826 Par ch=1 c=64 v=24
1315836 On ch=1 n=c4 v=44
1315846 Par ch=1 c=64 v=0
1315926 Par ch=1 c=64 v=104
1315946 Par ch=1 c=64 v=127
1315966 On ch=1 n=b5 v=0
1316021 On ch=1 n=c4 v=0
1316096 On ch=1 n=b6 v=0
1316166 On ch=1 n=a#6 v=60
1316181 On ch=1 n=a#5 v=44
1316471 On ch=1 n=a#5 v=0
1316581 On ch=1 n=c5 v=43
1316581 On ch=1 n=e5 v=30
1316641 On ch=1 n=a#6 v=0
1316741 On ch=1 n=e5 v=0
1316746 On ch=1 n=c5 v=0
1316961 On ch=1 n=c7 v=62
1316981 On ch=1 n=c6 v=43
1317051 On ch=1 n=c7 v=0
1317081 On ch=1 n=c6 v=0
1317446 On ch=1 n=g#5 v=54
1317531 On ch=1 n=f4 v=32
1317531 Par ch=1 c=64 v=40
1317551 Par ch=1 c=64 v=0
1317646 Par ch=1 c=64 v=104
1317666 Par ch=1 c=64 v=127
1317726 On ch=1 n=f4 v=0
1317841 On ch=1 n=c6 v=67
1317856 On ch=1 n=g#5 v=0
1317931 On ch=1 n=c6 v=0
1318121 On ch=1 n=g#5 v=44
1318136 On ch=1 n=f5 v=49
1318181 On ch=1 n=f5 v=0
1318226 On ch=1 n=g#5 v=0
1318371 On ch=1 n=c6 v=74
1318621 On ch=1 n=c6 v=0
1318646 On ch=1 n=b5 v=67
1318731 On ch=1 n=g#4 v=42
1318731 Par ch=1 c=64 v=104
1318751 Par ch=1 c=64 v=40
1318771 Par ch=1 c=64 v=0
1318886 Par ch=1 c=64 v=40
1318906 Par ch=1 c=64 v=127
1318956 On ch=1 n=c6 v=77
1319006 On ch=1 n=b5 v=0
1319111 On ch=1 n=c6 v=0
1319256 On ch=1 n=f5 v=39
1319256 On ch=1 n=g#5 v=31
1319286 On ch=1 n=g#4 v=0
1319406 On ch=1 n=f5 v=0
1319436 On ch=1 n=g#5 v=0
1319491 On ch=1 n=c6 v=81
1319596 On ch=1 n=c6 v=0
1319766 On ch=1 n=c6 v=76
1319796 Par ch=1 c=64 v=72
1319816 On ch=1 n=c5 v=40
1319816 Par ch=1 c=64 v=0
1319911 Par ch=1 c=64 v=40
1319931 Par ch=1 c=64 v=127
1320041 On ch=1 n=c6 v=0
1320061 On ch=1 n=g#6 v=79
1320341 On ch=1 n=c5 v=0
1320361 On ch=1 n=a#5 v=34
1320376 On ch=1 n=e5 v=43
1320636 On ch=1 n=g#6 v=0
1320676 On ch=1 n=g6 v=74
1320691 On ch=1 n=e5 v=0
1320986 On ch=1 n=a#5 v=0
1320996 On ch=1 n=g6 v=0
1321021 On ch=1 n=f6 v=62
1321066 On ch=1 n=c#5 v=34
1321111 Par ch=1 c=64 v=72
1321131 Par ch=1 c=64 v=0
1321306 Par ch=1 c=64 v=104
1321326 On ch=1 n=f6 v=0
1321326 Par ch=1 c=64 v=127
1321641 On ch=1 n=g#5 v=35
1321646 On ch=1 n=f5 v=33
1321651 On ch=1 n=c#5 v=0
1321781 On ch=1 n=f5 v=0
1321781 On ch=1 n=g#5 v=0
1321896 On ch=1 n=f6 v=74
1322146 On ch=1 n=f6 v=0
1322201 On ch=1 n=b5 v=60
1322236 On ch=1 n=d5 v=33
1322256 Par ch=1 c=64 v=72
1322276 Par ch=1 c=64 v=0
1322391 Par ch=1 c=64 v=56
1322411 Par ch=1 c=64 v=127
1322486 On ch=1 n=f6 v=73
1322561 On ch=1 n=b5 v=0
1322596 On ch=1 n=f6 v=0
1322761 On ch=1 n=d5 v=0
1322771 On ch=1 n=g#5 v=48
1322781 On ch=1 n=f5 v=40
1322886 On ch=1 n=g#5 v=0
1322896 On ch=1 n=f5 v=0
1323006 On ch=1 n=f6 v=74
1323266 On ch=1 n=f6 v=0
1323306 On ch=1 n=c6 v=71
1323341 On ch=1 n=d#5 v=35
1323381 Par ch=1 c=64 v=72
1323396 Par ch=1 c=64 v=0
1323556 Par ch=1 c=64 v=88
1323571 Par ch=1 c=64 v=127
1323591 On ch=1 n=d#6 v=71
1323656 On ch=1 n=c6 v=0
1323796 On ch=1 n=d#6 v=0
1323921 On ch=1 n=g#5 v=47
1324116 On ch=1 n=d#5 v=0
1324181 On ch=1 n=d#6 v=71
1324291 On ch=1 n=d#6 v=0
1324341 On ch=1 n=g#5 v=0
1324506 On ch=1 n=d#6 v=71
1324541 On ch=1 n=d#5 v=39
1324541 Par ch=1 c=64 v=104
1324561 Par ch=1 c=64 v=40
1324581 Par ch=1 c=64 v=0
1324676 Par ch=1 c=64 v=72
1324696 Par ch=1 c=64 v=127
1324891 On ch=1 n=d#7 v=65
1324896 On ch=1 n=c7 v=69
1325296 On ch=1 n=g5 v=40
1325301 On ch=1 n=c#6 v=34
1325541 On ch=1 n=c7 v=0
1325626 On ch=1 n=a#6 v=54
1325691 On ch=1 n=g5 v=0
1325791 On ch=1 n=c#6 v=0
1325826 On ch=1 n=a#6 v=0
1326106 On ch=1 n=g#6 v=48
1326126 Par ch=1 c=64 v=104
1326136 On ch=1 n=g#5 v=25
1326146 Par ch=1 c=64 v=56
1326156 On ch=1 n=c6 v=34
1326166 Par ch=1 c=64 v=0
1326301 Par ch=1 c=64 v=56
1326321 Par ch=1 c=64 v=127
1326391 On ch=1 n=c6 v=0
1326411 On ch=1 n=g#5 v=0
1326431 On ch=1 n=d#5 v=0
1326966 On ch=1 n=g#4 v=35
1327001 Par ch=1 c=64 v=88
1327016 Par ch=1 c=64 v=56
1327076 Par ch=1 c=64 v=127
1327226 On ch=1 n=g#4 v=0
1327271 On ch=1 n=d#7 v=0
1327306 On ch=1 n=g#6 v=0
1327306 On ch=1 n=d#6 v=0
1327891 Par ch=1 c=64 v=104
1327911 Par ch=1 c=64 v=88
1327931 Par ch=1 c=64 v=72
1327946 Par ch=1 c=64 v=56
1327966 Par ch=1 c=64 v=40
1327986 Par ch=1 c=64 v=24
1328026 Par ch=1 c=64 v=0
1329121 Par ch=1 c=64 v=40
1329141 Par ch=1 c=64 v=56
1329161 Par ch=1 c=64 v=72
1329181 Par ch=1 c=64 v=88
1329241 Par ch=1 c=64 v=104
1329296 Par ch=1 c=64 v=72
1329316 Par ch=1 c=64 v=40
1329336 Par ch=1 c=64 v=24
1329416 Par ch=1 c=64 v=104
1329431 Par ch=1 c=64 v=127
1329561 On ch=1 n=c#4 v=40
1329791 On ch=1 n=g#4 v=25
1329801 On ch=1 n=c#4 v=0
1329821 On ch=1 n=g#6 v=78
1329851 On ch=1 n=g#4 v=0
1329856 On ch=1 n=g#5 v=47
1330031 On ch=1 n=g#5 v=0
1330031 On ch=1 n=g#6 v=0
1330276 On ch=1 n=f#5 v=49
1330301 On ch=1 n=d#5 v=34
1330306 On ch=1 n=g#4 v=31
1330351 On ch=1 n=d#5 v=0
1330391 On ch=1 n=f#5 v=0
1330406 On ch=1 n=g#4 v=0
1330636 On ch=1 n=c6 v=82
1330646 On ch=1 n=f#5 v=39
1330656 On ch=1 n=g#4 v=36
1330661 On ch=1 n=c5 v=62
1330696 On ch=1 n=d#5 v=25
1330746 On ch=1 n=d#5 v=0
1330761 On ch=1 n=g#4 v=0
1330771 On ch=1 n=f#5 v=0
1331011 On ch=1 n=f#5 v=43
1331026 On ch=1 n=d#5 v=34
1331036 On ch=1 n=g#4 v=34
1331046 On ch=1 n=c5 v=0
1331116 On ch=1 n=d#5 v=0
1331131 On ch=1 n=g#4 v=0
1331151 On ch=1 n=f#5 v=0
1331246 On ch=1 n=c6 v=0
1331361 On ch=1 n=b5 v=73
1331371 On ch=1 n=b4 v=59
1331381 On ch=1 n=f#5 v=34
1331406 On ch=1 n=g#4 v=27
1331426 On ch=1 n=d#5 v=23
1331466 On ch=1 n=g#4 v=0
1331481 On ch=1 n=d#5 v=0
1331496 On ch=1 n=f#5 v=0
1331511 On ch=1 n=b4 v=0
1331726 On ch=1 n=f#5 v=50
1331766 On ch=1 n=g#4 v=26
1331771 On ch=1 n=f#5 v=0
1331816 On ch=1 n=g#4 v=0
1331826 On ch=1 n=b5 v=0
1331931 On ch=1 n=c6 v=82
1331941 On ch=1 n=c5 v=58
1331976 On ch=1 n=c5 v=0
1332011 On ch=1 n=c6 v=0
1332126 Par ch=1 c=64 v=88
1332136 On ch=1 n=c#6 v=79
1332141 On ch=1 n=c#5 v=43
1332146 Par ch=1 c=64 v=0
1332171 On ch=1 n=c#4 v=50
1332291 On ch=1 n=c#5 v=0
1332306 On ch=1 n=c#4 v=0
1332356 Par ch=1 c=64 v=88
1332376 Par ch=1 c=64 v=127
1332531 On ch=1 n=g#5 v=50
1332556 On ch=1 n=c#5 v=28
1332561 On ch=1 n=f5 v=38
1332566 On ch=1 n=g#4 v=33
1332621 On ch=1 n=f5 v=0
1332646 On ch=1 n=c#5 v=0
1332656 On ch=1 n=g#4 v=0
1332816 On ch=1 n=g#5 v=0
1332876 On ch=1 n=g5 v=62
1332876 Par ch=1 c=64 v=88
1332886 On ch=1 n=g4 v=50
1332891 On ch=1 n=e5 v=42
1332901 On ch=1 n=c#6 v=0
1332901 Par ch=1 c=64 v=40
1332911 On ch=1 n=c#5 v=23
1332941 On ch=1 n=g4 v=0
1332941 Par ch=1 c=64 v=56
1332956 Par ch=1 c=64 v=88
1332976 On ch=1 n=e5 v=0
1332976 Par ch=1 c=64 v=127
1332996 On ch=1 n=c#5 v=0
1333151 Par ch=1 c=64 v=104
1333161 On ch=1 n=g5 v=0
1333171 Par ch=1 c=64 v=40
1333191 On ch=1 n=g#5 v=65
1333191 Par ch=1 c=64 v=0
1333221 On ch=1 n=c#5 v=47
1333236 On ch=1 n=f5 v=41
1333236 On ch=1 n=g#4 v=38
1333266 Par ch=1 c=64 v=56
1333286 On ch=1 n=g#5 v=0
1333286 Par ch=1 c=64 v=104
1333296 On ch=1 n=f5 v=0
1333306 On ch=1 n=g#4 v=0
1333306 Par ch=1 c=64 v=127
1333331 On ch=1 n=c#5 v=0
1333421 Par ch=1 c=64 v=104
1333441 Par ch=1 c=64 v=56
1333456 On ch=1 n=g#5 v=55
1333461 Par ch=1 c=64 v=0
1333501 Par ch=1 c=64 v=24
1333521 Par ch=1 c=64 v=56
1333541 Par ch=1 c=64 v=72
1333556 Par ch=1 c=64 v=56
1333561 On ch=1 n=g#5 v=0
1333561 On ch=1 n=f#5 v=44
1333576 On ch=1 n=c#6 v=55
1333576 Par ch=1 c=64 v=24
1333586 On ch=1 n=a#4 v=42
1333596 On ch=1 n=c#5 v=31
1333596 Par ch=1 c=64 v=0
1333646 On ch=1 n=c#5 v=0
1333686 On ch=1 n=c#6 v=0
1333686 On ch=1 n=f#5 v=0
1333696 Par ch=1 c=64 v=40
1333701 On ch=1 n=a#4 v=0
1333711 Par ch=1 c=64 v=104
1333731 Par ch=1 c=64 v=127
1333976 On ch=1 n=g#5 v=48
1334001 On ch=1 n=c#5 v=33
1334001 On ch=1 n=f5 v=46
1334016 On ch=1 n=g#4 v=34
1334056 On ch=1 n=f5 v=0
1334071 On ch=1 n=g#5 v=0
1334081 On ch=1 n=c#5 v=0
1334116 On ch=1 n=g#4 v=0
1334411 Par ch=1 c=64 v=56
1334431 Par ch=1 c=64 v=0
1334446 On ch=1 n=c7 v=102
1334456 On ch=1 n=c6 v=90
1334466 On ch=1 n=f#3 v=62
1334471 On ch=1 n=f#4 v=57
1334501 On ch=1 n=f#3 v=0
1334546 On ch=1 n=f#4 v=0
1334546 Par ch=1 c=64 v=88
1334566 Par ch=1 c=64 v=127
1334811 On ch=1 n=c6 v=0
1334816 On ch=1 n=e4 v=61
1334831 On ch=1 n=c5 v=56
1334831 On ch=1 n=a#4 v=35
1334901 On ch=1 n=e4 v=0
1334911 On ch=1 n=c5 v=0
1334956 On ch=1 n=a#4 v=0
1334976 On ch=1 n=c7 v=0
1335156 On ch=1 n=a#4 v=54
1335166 On ch=1 n=c5 v=63
1335171 On ch=1 n=e4 v=50
1335196 On ch=1 n=c5 v=0
1335221 On ch=1 n=e4 v=0
1335226 On ch=1 n=a#4 v=0
1335496 Par ch=1 c=64 v=104
1335506 On ch=1 n=f7 v=103
1335511 Par ch=1 c=64 v=24
1335521 On ch=1 n=f6 v=86
1335531 Par ch=1 c=64 v=0
1335561 On ch=1 n=f4 v=64
1335561 On ch=1 n=f3 v=58
1335621 On ch=1 n=f3 v=0
1335671 On ch=1 n=f4 v=0
1335671 Par ch=1 c=64 v=72
1335686 Par ch=1 c=64 v=127
1335826 On ch=1 n=f7 v=0
1335851 On ch=1 n=f6 v=0
1335891 On ch=1 n=f4 v=58
1335891 On ch=1 n=c5 v=61
1335891 On ch=1 n=a4 v=54
1335936 On ch=1 n=f4 v=0
1335961 On ch=1 n=a4 v=0
1335981 On ch=1 n=c5 v=0
1336056 On ch=1 n=d#7 v=87
1336066 On ch=1 n=d#6 v=78
1336126 On ch=1 n=d#6 v=0
1336136 On ch=1 n=d#7 v=0
1336231 On ch=1 n=c5 v=59
1336236 On ch=1 n=a4 v=55
1336236 On ch=1 n=f4 v=59
1336251 On ch=1 n=c7 v=94
1336256 On ch=1 n=c6 v=87
1336266 On ch=1 n=c5 v=0
1336276 On ch=1 n=a4 v=0
1336291 On ch=1 n=c6 v=0
1336296 On ch=1 n=f4 v=0
1336321 On ch=1 n=c7 v=0
1336406 On ch=1 n=c#6 v=86
1336411 On ch=1 n=c#7 v=90
1336481 On ch=1 n=c#6 v=0
1336491 On ch=1 n=c#7 v=0
1336636 On ch=1 n=a#6 v=88
1336636 On ch=1 n=a#5 v=79
1336636 Par ch=1 c=64 v=56
1336656 Par ch=1 c=64 v=0
1336686 On ch=1 n=a#2 v=67
1336701 On ch=1 n=a#3 v=55
1336766 On ch=1 n=a#2 v=0
1336781 On ch=1 n=a#3 v=0
1336811 Par ch=1 c=64 v=56
1336831 Par ch=1 c=64 v=127
1337051 On ch=1 n=f4 v=54
1337051 On ch=1 n=a#4 v=37
1337056 On ch=1 n=c#5 v=42
1337121 On ch=1 n=f4 v=0
1337151 On ch=1 n=a#4 v=0
1337156 On ch=1 n=c#5 v=0
1337381 On ch=1 n=f4 v=53
1337381 On ch=1 n=c#5 v=36
1337381 On ch=1 n=a#4 v=38
1337446 On ch=1 n=f4 v=0
1337491 On ch=1 n=a#4 v=0
1337491 On ch=1 n=c#5 v=0
1337711 On ch=1 n=c#5 v=51
1337716 On ch=1 n=a#4 v=40
1337731 On ch=1 n=f4 v=52
1337811 On ch=1 n=f4 v=0
1337821 On ch=1 n=a#4 v=0
1337836 On ch=1 n=c#5 v=0
1338091 On ch=1 n=c#5 v=35
1338111 On ch=1 n=f4 v=38
1338111 On ch=1 n=a#4 v=25
1338186 On ch=1 n=f4 v=0
1338211 On ch=1 n=a#4 v=0
1338226 On ch=1 n=c#5 v=0
1338526 On ch=1 n=c#5 v=23
1338531 On ch=1 n=f4 v=32
1338536 On ch=1 n=a#4 v=27
1338606 On ch=1 n=f4 v=0
1338621 On ch=1 n=a#4 v=0
1338621 On ch=1 n=c#5 v=0
1338656 On ch=1 n=a#6 v=0
1338661 On ch=1 n=a#5 v=0
1338986 On ch=1 n=a#6 v=76
1339006 On ch=1 n=a#5 v=56
1339021 Par ch=1 c=64 v=72
1339036 Par ch=1 c=64 v=0
1339046 On ch=1 n=c#4 v=48
1339056 On ch=1 n=g#4 v=37
1339136 On ch=1 n=c#4 v=0
1339141 On ch=1 n=g#4 v=0
1339171 Par ch=1 c=64 v=88
1339191 Par ch=1 c=64 v=127
1339346 On ch=1 n=a#6 v=0
1339371 On ch=1 n=a#5 v=0
1339441 On ch=1 n=f#5 v=36
1339446 On ch=1 n=g#4 v=39
1339446 On ch=1 n=c5 v=49
1339521 On ch=1 n=c5 v=0
1339521 On ch=1 n=g#4 v=0
1339541 On ch=1 n=f#5 v=0
1339766 On ch=1 n=d#6 v=79
1339791 On ch=1 n=d#5 v=53
1339801 On ch=1 n=f#5 v=26
1339806 On ch=1 n=g#4 v=31
1339811 On ch=1 n=c5 v=44
1339871 On ch=1 n=c5 v=0
1339896 On ch=1 n=g#4 v=0
1339906 On ch=1 n=f#5 v=0
1340006 On ch=1 n=d#5 v=0
1340051 On ch=1 n=d#6 v=0
1340116 On ch=1 n=f#5 v=36
1340116 On ch=1 n=g#4 v=36
1340136 On ch=1 n=c5 v=49
1340186 On ch=1 n=c5 v=0
1340221 On ch=1 n=g#4 v=0
1340231 On ch=1 n=f#5 v=0
1340421 On ch=1 n=d6 v=79
1340431 On ch=1 n=d5 v=60
1340446 On ch=1 n=g#4 v=36
1340451 On ch=1 n=f#5 v=27
1340471 On ch=1 n=c5 v=44
1340531 On ch=1 n=c5 v=0
1340531 On ch=1 n=d5 v=0
1340551 On ch=1 n=f#5 v=0
1340551 On ch=1 n=g#4 v=0
1340601 On ch=1 n=d6 v=0
1340756 On ch=1 n=f#5 v=47
1340766 On ch=1 n=g#4 v=40
1340771 On ch=1 n=c5 v=51
1340796 On ch=1 n=f#5 v=0
1340811 On ch=1 n=c5 v=0
1340871 On ch=1 n=g#4 v=0
1340916 On ch=1 n=d#6 v=71
1340916 On ch=1 n=d#5 v=58
1340971 On ch=1 n=d#5 v=0
1341086 On ch=1 n=d#6 v=0
1341111 On ch=1 n=f5 v=65
1341186 Par ch=1 c=64 v=72
1341206 Par ch=1 c=64 v=0
1341216 On ch=1 n=f5 v=0
1341231 On ch=1 n=f6 v=70
1341246 On ch=1 n=c#4 v=53
1341326 On ch=1 n=f6 v=0
1341341 Par ch=1 c=64 v=88
1341361 Par ch=1 c=64 v=127
1341371 On ch=1 n=c#4 v=0
1341401 On ch=1 n=g#6 v=77
1341401 On ch=1 n=g#5 v=54
1341741 On ch=1 n=f5 v=42
1341751 On ch=1 n=g#5 v=0
1341756 On ch=1 n=g#4 v=33
1341771 On ch=1 n=c#5 v=29
1341776 On ch=1 n=g#5 v=32
1341806 On ch=1 n=g#6 v=0
1341821 On ch=1 n=c#5 v=0
1341831 On ch=1 n=f5 v=0
1341861 On ch=1 n=g#4 v=0
1341881 On ch=1 n=g#5 v=0
1342081 On ch=1 n=g4 v=52
1342086 On ch=1 n=g5 v=55
1342086 On ch=1 n=e5 v=43
1342111 On ch=1 n=c#5 v=23
1342161 On ch=1 n=e5 v=0
1342166 On ch=1 n=c#5 v=0
1342186 On ch=1 n=g4 v=0
1342336 On ch=1 n=g5 v=0
1342401 On ch=1 n=g#5 v=62
1342411 On ch=1 n=f5 v=53
1342411 On ch=1 n=g#4 v=42
1342421 On ch=1 n=c#5 v=35
1342486 On ch=1 n=g#5 v=0
1342491 On ch=1 n=f5 v=0
1342501 On ch=1 n=c#5 v=0
1342501 On ch=1 n=g#4 v=0
1342641 On ch=1 n=g#5 v=58
1342716 Par ch=1 c=64 v=104
1342736 Par ch=1 c=64 v=0
1342746 On ch=1 n=f#5 v=50
1342756 On ch=1 n=g#5 v=0
1342756 On ch=1 n=c#6 v=62
1342756 On ch=1 n=a#4 v=45
1342776 On ch=1 n=c#5 v=36
1342811 On ch=1 n=c#5 v=0
1342821 On ch=1 n=f#5 v=0
1342831 On ch=1 n=c#6 v=0
1342846 On ch=1 n=a#4 v=0
1342851 Par ch=1 c=64 v=56
1342871 Par ch=1 c=64 v=127
1343181 On ch=1 n=g#5 v=55
1343196 On ch=1 n=f5 v=54
1343211 On ch=1 n=c#5 v=32
1343216 On ch=1 n=g#4 v=35
1343246 On ch=1 n=c#5 v=0
1343251 On ch=1 n=f5 v=0
1343266 On ch=1 n=g#5 v=0
1343301 On ch=1 n=g#4 v=0
1343591 Par ch=1 c=64 v=88
1343611 Par ch=1 c=64 v=0
1343626 On ch=1 n=c7 v=103
1343631 On ch=1 n=c6 v=92
1343641 On ch=1 n=f#3 v=53
1343646 On ch=1 n=f#4 v=61
1343691 On ch=1 n=f#3 v=0
1343726 On ch=1 n=f#4 v=0
1343726 Par ch=1 c=64 v=40
1343746 Par ch=1 c=64 v=127
1343981 On ch=1 n=e4 v=62
1343986 On ch=1 n=c5 v=63
1343991 On ch=1 n=a#4 v=42
1344026 On ch=1 n=c6 v=0
1344081 On ch=1 n=e4 v=0
1344091 On ch=1 n=c5 v=0
1344101 On ch=1 n=a#4 v=0
1344151 On ch=1 n=c7 v=0
1344316 On ch=1 n=e4 v=63
1344321 On ch=1 n=c5 v=74
1344326 On ch=1 n=a#4 v=46
1344371 On ch=1 n=a#4 v=0
1344371 On ch=1 n=c5 v=0
1344386 On ch=1 n=e4 v=0
1344691 Par ch=1 c=64 v=56
1344696 On ch=1 n=f7 v=109
1344696 On ch=1 n=f6 v=94
1344711 Par ch=1 c=64 v=0
1344716 On ch=1 n=f3 v=64
1344721 On ch=1 n=f4 v=73
1344771 On ch=1 n=f3 v=0
1344806 Par ch=1 c=64 v=40
1344826 On ch=1 n=f4 v=0
1344826 Par ch=1 c=64 v=127
1344986 On ch=1 n=f7 v=0
1345021 On ch=1 n=f6 v=0
1345041 On ch=1 n=f4 v=69
1345041 On ch=1 n=c5 v=74
1345046 On ch=1 n=a4 v=66
1345116 On ch=1 n=f4 v=0
1345121 On ch=1 n=c5 v=0
1345131 On ch=1 n=a4 v=0
1345211 On ch=1 n=d#7 v=88
1345216 On ch=1 n=d#6 v=89
1345286 On ch=1 n=d#6 v=0
1345291 On ch=1 n=d#7 v=0
1345376 On ch=1 n=f4 v=64
1345381 On ch=1 n=c5 v=52
1345386 On ch=1 n=a4 v=43
1345401 On ch=1 n=c7 v=93
1345406 On ch=1 n=c6 v=86
1345416 On ch=1 n=c5 v=0
1345421 On ch=1 n=a4 v=0
1345436 On ch=1 n=f4 v=0
1345441 On ch=1 n=c6 v=0
1345471 On ch=1 n=c7 v=0
1345566 On ch=1 n=c#6 v=93
1345566 On ch=1 n=c#7 v=96
1345631 On ch=1 n=c#7 v=0
1345631 On ch=1 n=c#6 v=0
1345796 On ch=1 n=a#6 v=87
1345796 Par ch=1 c=64 v=56
1345801 On ch=1 n=a#5 v=80
1345816 Par ch=1 c=64 v=0
1345826 On ch=1 n=a#2 v=56
1345846 On ch=1 n=a#3 v=57
1345921 On ch=1 n=a#2 v=0
1345936 On ch=1 n=a#3 v=0
1345971 Par ch=1 c=64 v=88
1345991 Par ch=1 c=64 v=127
1346211 On ch=1 n=c#5 v=36
1346221 On ch=1 n=f4 v=48
1346221 On ch=1 n=a#4 v=35
1346266 On ch=1 n=f4 v=0
1346271 On ch=1 n=a#4 v=0
1346301 On ch=1 n=c#5 v=0
1346526 On ch=1 n=c#5 v=45
1346526 On ch=1 n=f4 v=62
1346536 On ch=1 n=a#4 v=36
1346631 On ch=1 n=a#4 v=0
1346631 On ch=1 n=f4 v=0
1346636 On ch=1 n=c#5 v=0
1346861 On ch=1 n=c#5 v=54
1346876 On ch=1 n=f4 v=55
1346891 On ch=1 n=a#4 v=31
1346936 On ch=1 n=a#4 v=0
1346981 On ch=1 n=f4 v=0
1346981 On ch=1 n=c#5 v=0
1347241 On ch=1 n=c#5 v=34
1347256 On ch=1 n=f4 v=36
1347271 On ch=1 n=a#4 v=27
1347336 On ch=1 n=a#4 v=0
1347376 On ch=1 n=c#5 v=0
1347396 On ch=1 n=f4 v=0
1347441 On ch=1 n=a#5 v=0
1347506 On ch=1 n=a#6 v=0
1347661 On ch=1 n=f4 v=47
1347666 On ch=1 n=c#5 v=29
1347766 On ch=1 n=c#5 v=0
1347771 On ch=1 n=f4 v=0
1348171 On ch=1 n=c#7 v=88
1348201 On ch=1 n=c#6 v=60
1348216 On ch=1 n=a#3 v=44
1348216 Par ch=1 c=64 v=56
1348236 Par ch=1 c=64 v=0
1348351 On ch=1 n=a#3 v=0
1348371 Par ch=1 c=64 v=104
1348391 Par ch=1 c=64 v=127
1348641 On ch=1 n=c#7 v=0
1348646 On ch=1 n=c#4 v=49
1348646 On ch=1 n=c#5 v=40
1348666 On ch=1 n=c#6 v=0
1348666 On ch=1 n=f#4 v=40
1348736 On ch=1 n=c#4 v=0
1348741 On ch=1 n=f#4 v=0
1348746 On ch=1 n=c#5 v=0
1348966 On ch=1 n=a#6 v=86
1348986 On ch=1 n=a#5 v=64
1348991 On ch=1 n=c#5 v=43
1349006 On ch=1 n=c#4 v=37
1349011 On ch=1 n=f#4 v=31
1349061 On ch=1 n=f#4 v=0
1349081 On ch=1 n=c#4 v=0
1349096 On ch=1 n=c#5 v=0
1349266 On ch=1 n=a#6 v=0
1349296 On ch=1 n=a#5 v=0
1349336 On ch=1 n=c#5 v=51
1349346 On ch=1 n=c#4 v=38
1349351 On ch=1 n=f#4 v=38
1349406 On ch=1 n=f#4 v=0
1349436 On ch=1 n=c#4 v=0
1349441 On ch=1 n=c#5 v=0
1349631 On ch=1 n=f#6 v=82
1349646 On ch=1 n=f#5 v=58
1349676 On ch=1 n=c#5 v=32
1349681 On ch=1 n=c#4 v=29
1349681 On ch=1 n=f#4 v=28
1349751 On ch=1 n=f#4 v=0
1349776 On ch=1 n=c#5 v=0
1349781 On ch=1 n=c#4 v=0
1349791 On ch=1 n=f#5 v=0
1349796 On ch=1 n=f#6 v=0
1349991 On ch=1 n=c#5 v=51
1349991 On ch=1 n=c#4 v=46
1350011 On ch=1 n=f#4 v=34
1350051 On ch=1 n=f#4 v=0
1350056 On ch=1 n=c#5 v=0
1350066 On ch=1 n=c#4 v=0
1350141 On ch=1 n=f6 v=79
1350151 On ch=1 n=f5 v=64
1350196 On ch=1 n=f5 v=0
1350216 On ch=1 n=f6 v=0
1350311 Par ch=1 c=64 v=56
1350331 Par ch=1 c=64 v=0
1350336 On ch=1 n=e6 v=79
1350336 On ch=1 n=e5 v=70
1350386 On ch=1 n=c4 v=64
1350421 On ch=1 n=c4 v=0
1350486 Par ch=1 c=64 v=88
1350506 On ch=1 n=e5 v=0
1350506 Par ch=1 c=64 v=127
1350626 On ch=1 n=e6 v=0
1350726 On ch=1 n=g5 v=55
1350751 On ch=1 n=e5 v=40
1350751 On ch=1 n=g4 v=48
1350766 On ch=1 n=c5 v=39
1350801 On ch=1 n=g4 v=0
1350811 On ch=1 n=e5 v=0
1350821 On ch=1 n=c5 v=0
1350866 On ch=1 n=g5 v=0
1351046 Par ch=1 c=64 v=72
1351066 On ch=1 n=f#4 v=50
1351066 Par ch=1 c=64 v=24
1351071 On ch=1 n=f#5 v=54
1351076 On ch=1 n=d#5 v=42
1351086 On ch=1 n=c5 v=44
1351101 Par ch=1 c=64 v=40
1351121 Par ch=1 c=64 v=72
1351136 On ch=1 n=c5 v=0
1351141 Par ch=1 c=64 v=127
1351161 On ch=1 n=f#4 v=0
1351176 On ch=1 n=d#5 v=0
1351231 On ch=1 n=f#5 v=0
1351336 Par ch=1 c=64 v=104
1351356 Par ch=1 c=64 v=24
1351371 Par ch=1 c=64 v=0
1351391 On ch=1 n=g5 v=59
1351416 On ch=1 n=e5 v=54
1351421 On ch=1 n=c5 v=48
1351421 On ch=1 n=g4 v=44
1351446 On ch=1 n=g5 v=0
1351451 Par ch=1 c=64 v=56
1351466 On ch=1 n=g4 v=0
1351471 Par ch=1 c=64 v=104
1351481 On ch=1 n=c5 v=0
1351481 On ch=1 n=e5 v=0
1351491 Par ch=1 c=64 v=127
1351586 On ch=1 n=g5 v=67
1351701 On ch=1 n=g5 v=0
1351711 On ch=1 n=g6 v=70
1351721 Par ch=1 c=64 v=40
1351741 Par ch=1 c=64 v=0
1351746 On ch=1 n=f5 v=54
1351761 On ch=1 n=c5 v=38
1351771 On ch=1 n=a4 v=39
1351806 On ch=1 n=g6 v=0
1351816 On ch=1 n=a4 v=0
1351816 On ch=1 n=c5 v=0
1351821 Par ch=1 c=64 v=40
1351826 On ch=1 n=f5 v=0
1351836 Par ch=1 c=64 v=127
1352136 On ch=1 n=g5 v=56
1352141 On ch=1 n=e5 v=44
1352151 On ch=1 n=g4 v=27
1352161 On ch=1 n=c5 v=38
1352221 On ch=1 n=c5 v=0
1352221 On ch=1 n=e5 v=0
1352261 On ch=1 n=g4 v=0
1352291 On ch=1 n=g5 v=0
1352556 Par ch=1 c=64 v=104
1352576 Par ch=1 c=64 v=0
1352596 On ch=1 n=g6 v=100
1352596 On ch=1 n=g5 v=83
1352606 On ch=1 n=g3 v=75
1352626 On ch=1 n=g4 v=62
1352671 Par ch=1 c=64 v=72
1352676 On ch=1 n=g3 v=0
1352691 Par ch=1 c=64 v=127
1352696 On ch=1 n=g5 v=0
1352706 On ch=1 n=g4 v=0
1352756 On ch=1 n=g6 v=0
1352941 On ch=1 n=g4 v=59
1352946 On ch=1 n=d5 v=59
1352946 On ch=1 n=b4 v=56
1353006 On ch=1 n=b4 v=0
1353016 On ch=1 n=g4 v=0
1353021 On ch=1 n=d5 v=0
1353086 On ch=1 n=b6 v=97
1353091 On ch=1 n=b5 v=80
1353151 On ch=1 n=b5 v=0
1353156 On ch=1 n=b6 v=0
1353216 On ch=1 n=b4 v=62
1353226 On ch=1 n=g4 v=70
1353246 On ch=1 n=d7 v=105
1353251 On ch=1 n=b4 v=0
1353251 On ch=1 n=d6 v=93
1353261 On ch=1 n=g4 v=0
1353316 On ch=1 n=d6 v=0
1353321 On ch=1 n=d7 v=0
1353406 Par ch=1 c=64 v=104
1353426 Par ch=1 c=64 v=40
1353446 Par ch=1 c=64 v=0
1353591 On ch=1 n=e7 v=105
1353596 On ch=1 n=e6 v=94
1353596 On ch=1 n=c3 v=68
1353601 On ch=1 n=c4 v=75
1353601 Par ch=1 c=64 v=56
1353621 On ch=1 n=c3 v=0
1353621 Par ch=1 c=64 v=127
1353676 On ch=1 n=c4 v=0
1353811 On ch=1 n=e6 v=0
1353926 On ch=1 n=c5 v=68
1353936 On ch=1 n=e5 v=52
1353936 On ch=1 n=g4 v=61
1353951 On ch=1 n=e7 v=0
1353991 On ch=1 n=e5 v=0
1353996 On ch=1 n=g4 v=0
1353996 On ch=1 n=c5 v=0
1354041 On ch=1 n=f7 v=97
1354051 On ch=1 n=f6 v=92
1354106 On ch=1 n=f6 v=0
1354121 On ch=1 n=f7 v=0
1354171 On ch=1 n=e5 v=68
1354181 On ch=1 n=g4 v=73
1354181 On ch=1 n=c5 v=64
1354186 On ch=1 n=g7 v=109
1354191 On ch=1 n=g6 v=97
1354206 On ch=1 n=e5 v=0
1354216 On ch=1 n=c5 v=0
1354231 On ch=1 n=g4 v=0
1354271 On ch=1 n=g6 v=0
1354311 On ch=1 n=g7 v=0
1354396 Par ch=1 c=64 v=72
1354416 Par ch=1 c=64 v=0
1354531 On ch=1 n=a7 v=114
1354531 On ch=1 n=f3 v=63
1354531 On ch=1 n=a6 v=94
1354551 On ch=1 n=f4 v=64
1354561 On ch=1 n=f3 v=0
1354571 Par ch=1 c=64 v=56
1354591 Par ch=1 c=64 v=127
1354601 On ch=1 n=f4 v=0
1354816 On ch=1 n=a6 v=0
1354851 On ch=1 n=c5 v=71
1354856 On ch=1 n=a4 v=66
1354861 On ch=1 n=f4 v=62
1354886 On ch=1 n=c5 v=0
1354901 On ch=1 n=a4 v=0
1354916 On ch=1 n=f4 v=0
1354936 On ch=1 n=a7 v=0
1355071 Par ch=1 c=64 v=88
1355091 Par ch=1 c=64 v=24
1355111 Par ch=1 c=64 v=0
1355191 On ch=1 n=b7 v=107
1355196 On ch=1 n=b6 v=92
1355201 On ch=1 n=g4 v=82
1355211 On ch=1 n=g3 v=73
1355226 Par ch=1 c=64 v=72
1355246 Par ch=1 c=64 v=127
1355266 On ch=1 n=g4 v=0
1355281 On ch=1 n=g3 v=0
1355291 On ch=1 n=b6 v=0
1355306 On ch=1 n=b7 v=0
1355576 Par ch=1 c=64 v=40
1355596 On ch=1 n=c8 v=109
1355596 Par ch=1 c=64 v=0
1355606 On ch=1 n=c7 v=94
1355611 On ch=1 n=c3 v=67
1355626 On ch=1 n=c4 v=75
1355691 On ch=1 n=c3 v=0
1355706 On ch=1 n=c4 v=0
1355711 Par ch=1 c=64 v=72
1355731 Par ch=1 c=64 v=127
1355791 On ch=1 n=c8 v=0
1355796 On ch=1 n=c7 v=0
1356041 On ch=1 n=c#8 v=102
1356056 On ch=1 n=c#7 v=92
1356061 Par ch=1 c=64 v=72
1356081 Par ch=1 c=64 v=0
1356086 On ch=1 n=f3 v=75
1356091 On ch=1 n=f4 v=74
1356171 On ch=1 n=f3 v=0
1356211 On ch=1 n=f4 v=0
1356276 Par ch=1 c=64 v=127
1356571 On ch=1 n=d#5 v=65
1356576 On ch=1 n=c#7 v=0
1356576 On ch=1 n=c#8 v=0
1356576 On ch=1 n=f4 v=59
1356586 On ch=1 n=a4 v=54
1356626 On ch=1 n=a4 v=0
1356651 On ch=1 n=d#5 v=0
1356661 On ch=1 n=f4 v=0
1356751 On ch=1 n=c8 v=100
1356761 On ch=1 n=c7 v=82
1356826 On ch=1 n=c7 v=0
1356836 On ch=1 n=c8 v=0
1356976 On ch=1 n=a#7 v=85
1356986 On ch=1 n=a#6 v=77
1357021 On ch=1 n=a#3 v=75
1357051 Par ch=1 c=64 v=104
1357066 Par ch=1 c=64 v=0
1357196 On ch=1 n=a#3 v=0
1357261 Par ch=1 c=64 v=127
1357431 On ch=1 n=a#7 v=0
1357436 On ch=1 n=a#6 v=0
1357506 On ch=1 n=c#5 v=38
1357511 On ch=1 n=a#4 v=39
1357511 On ch=1 n=f4 v=43
1357581 On ch=1 n=c#5 v=0
1357591 On ch=1 n=a#4 v=0
1357596 On ch=1 n=f4 v=0
1357761 On ch=1 n=f7 v=93
1357771 On ch=1 n=f6 v=81
1357811 On ch=1 n=f4 v=58
1357811 On ch=1 n=c#5 v=37
1357851 On ch=1 n=a#4 v=23
1357876 On ch=1 n=f4 v=0
1357901 On ch=1 n=a#4 v=0
1357911 On ch=1 n=c#5 v=0
1358011 On ch=1 n=f7 v=0
1358046 On ch=1 n=f6 v=0
1358106 On ch=1 n=c#5 v=57
1358111 On ch=1 n=f4 v=63
1358116 On ch=1 n=a#4 v=44
1358161 On ch=1 n=f4 v=0
1358226 On ch=1 n=a#4 v=0
1358236 On ch=1 n=c#5 v=0
1358401 On ch=1 n=c#7 v=92
1358416 On ch=1 n=c#6 v=74
1358436 On ch=1 n=c#5 v=39
1358441 On ch=1 n=f4 v=54
1358451 On ch=1 n=a#4 v=37
1358521 On ch=1 n=a#4 v=0
1358526 On ch=1 n=f4 v=0
1358531 On ch=1 n=c#5 v=0
1358691 On ch=1 n=c#6 v=0
1358691 On ch=1 n=c#7 v=0
1358746 On ch=1 n=c#5 v=50
1358751 On ch=1 n=a#4 v=40
1358756 On ch=1 n=f4 v=49
1358796 On ch=1 n=f4 v=0
1358796 On ch=1 n=a#4 v=0
1358806 On ch=1 n=c#5 v=0
1358916 On ch=1 n=a#6 v=85
1358936 On ch=1 n=a#5 v=61
1359001 On ch=1 n=a#5 v=0
1359031 On ch=1 n=a#6 v=0
1359136 On ch=1 n=g#6 v=80
1359156 On ch=1 n=g#5 v=55
1359186 On ch=1 n=b3 v=65
1359196 Par ch=1 c=64 v=104
1359216 Par ch=1 c=64 v=0
1359351 Par ch=1 c=64 v=72
1359371 Par ch=1 c=64 v=127
1359396 On ch=1 n=b3 v=0
1359486 On ch=1 n=g#5 v=0
1359551 On ch=1 n=c#6 v=56
1359561 On ch=1 n=f5 v=41
1359566 On ch=1 n=c#5 v=32
1359581 On ch=1 n=g#4 v=38
1359636 On ch=1 n=f5 v=0
1359661 On ch=1 n=c#5 v=0
1359701 On ch=1 n=g#4 v=0
1359781 On ch=1 n=c#6 v=0
1359856 On ch=1 n=c6 v=70
1359866 On ch=1 n=g4 v=52
1359871 On ch=1 n=e5 v=44
1359901 On ch=1 n=c#5 v=25
1359956 On ch=1 n=c#5 v=0
1359956 On ch=1 n=e5 v=0
1359976 On ch=1 n=g4 v=0
1360111 On ch=1 n=c6 v=0
1360116 On ch=1 n=g#6 v=0
1360166 On ch=1 n=c#6 v=64
1360186 On ch=1 n=f5 v=54
1360196 On ch=1 n=g#4 v=38
1360201 On ch=1 n=c#5 v=33
1360246 On ch=1 n=c#6 v=0
1360266 On ch=1 n=f5 v=0
1360276 On ch=1 n=g#4 v=0
1360316 On ch=1 n=c#5 v=0
1360361 On ch=1 n=c#6 v=73
1360511 Par ch=1 c=64 v=24
1360516 On ch=1 n=g#5 v=48
1360526 On ch=1 n=c#7 v=69
1360531 Par ch=1 c=64 v=0
1360551 On ch=1 n=b4 v=44
1360561 On ch=1 n=c#6 v=0
1360621 On ch=1 n=g#5 v=0
1360631 Par ch=1 c=64 v=56
1360646 On ch=1 n=b4 v=0
1360651 Par ch=1 c=64 v=127
1360866 On ch=1 n=c#7 v=0
1360936 On ch=1 n=f5 v=51
1360941 On ch=1 n=c#5 v=34
1360946 On ch=1 n=c#6 v=51
1360956 On ch=1 n=g#4 v=34
1361016 On ch=1 n=f5 v=0
1361031 On ch=1 n=c#5 v=0
1361056 On ch=1 n=g#4 v=0
1361071 On ch=1 n=c#6 v=0
1361366 Par ch=1 c=64 v=56
1361386 Par ch=1 c=64 v=0
1361391 On ch=1 n=c7 v=100
1361396 On ch=1 n=c6 v=90
1361406 On ch=1 n=c4 v=74
1361416 On ch=1 n=c5 v=63
1361441 On ch=1 n=c4 v=0
1361481 Par ch=1 c=64 v=56
1361501 Par ch=1 c=64 v=127
1361511 On ch=1 n=c5 v=0
1361511 On ch=1 n=c6 v=0
1361566 On ch=1 n=c7 v=0
1361736 On ch=1 n=e5 v=51
1361741 On ch=1 n=c5 v=46
1361741 On ch=1 n=a#4 v=39
1361751 On ch=1 n=g4 v=45
1361796 On ch=1 n=g4 v=0
1361806 On ch=1 n=c5 v=0
1361821 On ch=1 n=e5 v=0
1361836 On ch=1 n=a#4 v=0
1361881 On ch=1 n=e7 v=92
1361886 On ch=1 n=e6 v=81
1361936 On ch=1 n=e6 v=0
1361941 On ch=1 n=e7 v=0
1361991 On ch=1 n=e5 v=79
1361991 On ch=1 n=a#4 v=57
1362001 On ch=1 n=c5 v=55
1362021 On ch=1 n=g4 v=51
1362041 On ch=1 n=c5 v=0
1362051 On ch=1 n=g4 v=0
1362051 On ch=1 n=e5 v=0
1362051 On ch=1 n=g7 v=100
1362051 On ch=1 n=g6 v=92
1362076 On ch=1 n=a#4 v=0
1362116 On ch=1 n=g6 v=0
1362121 On ch=1 n=g7 v=0
1362336 Par ch=1 c=64 v=104
1362351 Par ch=1 c=64 v=0
1362376 On ch=1 n=g#7 v=102
1362386 On ch=1 n=g#6 v=102
1362391 On ch=1 n=f3 v=82
1362466 On ch=1 n=f3 v=0
1362471 On ch=1 n=g#6 v=0
1362491 Par ch=1 c=64 v=127
1362536 On ch=1 n=g#7 v=0
1362726 On ch=1 n=g#4 v=53
1362731 On ch=1 n=c5 v=66
1362731 On ch=1 n=f5 v=59
1362781 On ch=1 n=f5 v=0
1362796 On ch=1 n=c5 v=0
1362836 On ch=1 n=g#4 v=0
1362856 On ch=1 n=a#7 v=87
1362861 On ch=1 n=a#6 v=74
1362921 On ch=1 n=a#6 v=0
1362931 On ch=1 n=a#7 v=0
1362991 On ch=1 n=c5 v=74
1363001 On ch=1 n=f5 v=66
1363006 On ch=1 n=g#4 v=56
1363011 On ch=1 n=c8 v=103
1363016 On ch=1 n=c7 v=90
1363031 On ch=1 n=f5 v=0
1363036 On ch=1 n=c5 v=0
1363071 On ch=1 n=g#4 v=0
1363086 On ch=1 n=c7 v=0
1363091 On ch=1 n=c8 v=0
1363131 Par ch=1 c=64 v=104
1363146 Par ch=1 c=64 v=88
1363166 Par ch=1 c=64 v=72
1363186 Par ch=1 c=64 v=40
1363206 Par ch=1 c=64 v=0
1363361 On ch=1 n=a#3 v=72
1363361 On ch=1 n=c#8 v=90
1363366 On ch=1 n=a#4 v=80
1363376 On ch=1 n=c#7 v=88
1363381 Par ch=1 c=64 v=40
1363401 Par ch=1 c=64 v=104
1363421 Par ch=1 c=64 v=127
1363426 On ch=1 n=a#4 v=0
1363426 On ch=1 n=a#3 v=0
1363441 On ch=1 n=c#7 v=0
1363441 On ch=1 n=c#8 v=0
1363706 On ch=1 n=c#5 v=71
1363706 On ch=1 n=c#4 v=72
1363741 On ch=1 n=c#4 v=0
1363766 Par ch=1 c=64 v=104
1363776 On ch=1 n=c#5 v=0
1363786 Par ch=1 c=64 v=56
1363806 Par ch=1 c=64 v=24
1363826 Par ch=1 c=64 v=0
1364046 On ch=1 n=e6 v=89
1364061 On ch=1 n=e5 v=78
1364061 On ch=1 n=a#5 v=64
1364061 Par ch=1 c=64 v=56
1364071 On ch=1 n=c6 v=70
1364076 On ch=1 n=c5 v=62
1364076 On ch=1 n=c4 v=68
1364076 Par ch=1 c=64 v=127
1364106 On ch=1 n=c5 v=0
1364106 On ch=1 n=c6 v=0
1364131 On ch=1 n=a#5 v=0
1364131 On ch=1 n=e5 v=0
1364141 On ch=1 n=c4 v=0
1364171 On ch=1 n=e6 v=0
1364291 Par ch=1 c=64 v=104
1364311 Par ch=1 c=64 v=72
1364331 Par ch=1 c=64 v=24
1364351 Par ch=1 c=64 v=0
1364446 On ch=1 n=f6 v=86
1364461 On ch=1 n=f5 v=65
1364466 On ch=1 n=g#5 v=59
1364466 On ch=1 n=f3 v=54
1364471 On ch=1 n=c6 v=67
1364501 On ch=1 n=f3 v=0
1364501 On ch=1 n=f4 v=42
1364506 Par ch=1 c=64 v=104
1364526 On ch=1 n=f5 v=0
1364526 Par ch=1 c=64 v=127
1364536 On ch=1 n=f4 v=0
1364541 On ch=1 n=g#5 v=0
1364551 On ch=1 n=c6 v=0
1364561 On ch=1 n=f6 v=0
1364911 On ch=1 n=g#4 v=32
1364911 On ch=1 n=c5 v=43
1364931 On ch=1 n=f4 v=31
1364951 Par ch=1 c=64 v=56
1364971 Par ch=1 c=64 v=0
1365046 Par ch=1 c=64 v=40
1365066 Par ch=1 c=64 v=104
1365086 Par ch=1 c=64 v=127
1365091 On ch=1 n=f4 v=0
1365116 On ch=1 n=c5 v=0
1365121 On ch=1 n=g#4 v=0
1365296 On ch=1 n=g#5 v=77
1365781 On ch=1 n=c#4 v=49
1365901 Par ch=1 c=64 v=56
1365916 Par ch=1 c=64 v=0
1365981 On ch=1 n=g#6 v=81
1366026 On ch=1 n=g#4 v=44
1366071 Par ch=1 c=64 v=127
1366086 On ch=1 n=c#4 v=0
1366116 On ch=1 n=g#4 v=0
1366366 On ch=1 n=g#6 v=0
1366416 On ch=1 n=g#5 v=0
1366466 On ch=1 n=f#5 v=33
1366476 On ch=1 n=g#4 v=27
1366496 On ch=1 n=d#5 v=32
1366551 On ch=1 n=d#5 v=0
1366581 On ch=1 n=g#4 v=0
1366641 On ch=1 n=f#5 v=0
1366816 On ch=1 n=c6 v=82
1366821 On ch=1 n=f#5 v=36
1366831 On ch=1 n=g#4 v=32
1366836 On ch=1 n=c5 v=51
1366856 On ch=1 n=d#5 v=33
1366921 On ch=1 n=d#5 v=0
1366946 On ch=1 n=g#4 v=0
1366956 On ch=1 n=f#5 v=0
1367151 On ch=1 n=c5 v=0
1367151 On ch=1 n=f#5 v=45
1367156 On ch=1 n=g#4 v=43
1367171 On ch=1 n=d#5 v=35
1367266 On ch=1 n=g#4 v=0
1367271 On ch=1 n=d#5 v=0
1367281 On ch=1 n=f#5 v=0
1367321 On ch=1 n=c6 v=0
1367486 On ch=1 n=b5 v=74
1367491 On ch=1 n=f#5 v=58
1367506 On ch=1 n=b4 v=53
1367511 On ch=1 n=g#4 v=45
1367521 On ch=1 n=d#5 v=39
1367611 On ch=1 n=b4 v=0
1367621 On ch=1 n=g#4 v=0
1367646 On ch=1 n=d#5 v=0
1367646 On ch=1 n=f#5 v=0
1367856 On ch=1 n=f#5 v=65
1367876 On ch=1 n=d#5 v=40
1367876 On ch=1 n=g#4 v=38
1367916 On ch=1 n=d#5 v=0
1367931 On ch=1 n=f#5 v=0
1367951 On ch=1 n=b5 v=0
1367966 On ch=1 n=g#4 v=0
1368041 On ch=1 n=c6 v=84
1368046 On ch=1 n=c5 v=68
1368091 On ch=1 n=c5 v=0
1368111 On ch=1 n=c6 v=0
1368261 Par ch=1 c=64 v=104
1368266 On ch=1 n=c#6 v=83
1368271 On ch=1 n=c#5 v=55
1368281 Par ch=1 c=64 v=0
1368321 On ch=1 n=c#4 v=58
1368401 On ch=1 n=c#5 v=0
1368426 On ch=1 n=c#4 v=0
1368436 Par ch=1 c=64 v=56
1368451 Par ch=1 c=64 v=127
1368671 On ch=1 n=g#5 v=51
1368691 On ch=1 n=g#4 v=45
1368696 On ch=1 n=f5 v=47
1368701 On ch=1 n=c#5 v=31
1368751 On ch=1 n=f5 v=0
1368766 On ch=1 n=c#5 v=0
1368811 On ch=1 n=g#4 v=0
1368866 On ch=1 n=g#5 v=0
1368981 Par ch=1 c=64 v=88
1368991 On ch=1 n=g5 v=62
1368996 Par ch=1 c=64 v=24
1369006 On ch=1 n=g4 v=56
1369016 Par ch=1 c=64 v=0
1369021 On ch=1 n=e5 v=42
1369076 On ch=1 n=e5 v=0
1369076 Par ch=1 c=64 v=56
1369096 Par ch=1 c=64 v=104
1369111 Par ch=1 c=64 v=127
1369146 On ch=1 n=g4 v=0
1369181 On ch=1 n=c#6 v=0
1369201 On ch=1 n=g5 v=0
1369266 Par ch=1 c=64 v=40
1369286 Par ch=1 c=64 v=0
1369311 On ch=1 n=g#5 v=52
1369316 On ch=1 n=f5 v=51
1369326 On ch=1 n=c#5 v=40
1369326 On ch=1 n=g#4 v=42
1369346 Par ch=1 c=64 v=24
1369366 Par ch=1 c=64 v=72
1369381 Par ch=1 c=64 v=127
1369406 On ch=1 n=f5 v=0
1369416 On ch=1 n=c#5 v=0
1369416 On ch=1 n=g#5 v=0
1369426 On ch=1 n=g#4 v=0
1369501 Par ch=1 c=64 v=72
1369511 On ch=1 n=g#5 v=54
1369521 Par ch=1 c=64 v=0
1369616 Par ch=1 c=64 v=40
1369621 On ch=1 n=g#5 v=0
1369636 On ch=1 n=f#5 v=38
1369636 Par ch=1 c=64 v=104
1369641 On ch=1 n=c#6 v=53
1369651 On ch=1 n=a#4 v=35
1369656 Par ch=1 c=64 v=127
1369736 On ch=1 n=c#6 v=0
1369771 On ch=1 n=a#4 v=0
1369776 On ch=1 n=f#5 v=0
1370056 On ch=1 n=g#5 v=44
1370066 On ch=1 n=f5 v=49
1370081 On ch=1 n=c#5 v=30
1370086 On ch=1 n=g#4 v=35
1370116 On ch=1 n=f5 v=0
1370126 On ch=1 n=c#5 v=0
1370151 On ch=1 n=g#5 v=0
1370171 On ch=1 n=g#4 v=0
1370411 Par ch=1 c=64 v=88
1370431 Par ch=1 c=64 v=0
1370506 On ch=1 n=c7 v=103
1370511 On ch=1 n=c6 v=94
1370516 On ch=1 n=f#3 v=65
1370516 On ch=1 n=f#4 v=69
1370566 Par ch=1 c=64 v=88
1370571 On ch=1 n=f#3 v=0
1370581 On ch=1 n=f#4 v=0
1370586 Par ch=1 c=64 v=127
1370866 On ch=1 n=c6 v=0
1370871 On ch=1 n=e4 v=63
1370876 On ch=1 n=c5 v=60
1370881 On ch=1 n=a#4 v=42
1370976 On ch=1 n=c5 v=0
1370976 On ch=1 n=e4 v=0
1370981 On ch=1 n=c7 v=0
1370986 On ch=1 n=a#4 v=0
1371206 On ch=1 n=c5 v=74
1371206 On ch=1 n=e4 v=66
1371211 On ch=1 n=a#4 v=55
1371236 On ch=1 n=c5 v=0
1371256 On ch=1 n=a#4 v=0
1371281 On ch=1 n=e4 v=0
1371536 Par ch=1 c=64 v=56
1371551 Par ch=1 c=64 v=0
1371566 On ch=1 n=f7 v=107
1371566 On ch=1 n=f6 v=96
1371571 On ch=1 n=f3 v=75
1371581 On ch=1 n=f4 v=71
1371641 On ch=1 n=f3 v=0
1371671 On ch=1 n=f4 v=0
1371686 Par ch=1 c=64 v=88
1371706 Par ch=1 c=64 v=127
1371861 On ch=1 n=f7 v=0
1371891 On ch=1 n=f6 v=0
1371921 On ch=1 n=f4 v=63
1371926 On ch=1 n=c5 v=68
1371926 On ch=1 n=a4 v=63
1371981 On ch=1 n=f4 v=0
1372001 On ch=1 n=c5 v=0
1372006 On ch=1 n=a4 v=0
1372076 On ch=1 n=d#7 v=95
1372086 On ch=1 n=d#6 v=82
1372151 On ch=1 n=d#6 v=0
1372151 On ch=1 n=d#7 v=0
1372236 On ch=1 n=c5 v=60
1372236 On ch=1 n=a4 v=59
1372241 On ch=1 n=f4 v=66
1372266 On ch=1 n=c7 v=97
1372271 On ch=1 n=c5 v=0
1372276 On ch=1 n=a4 v=0
1372276 On ch=1 n=c6 v=90
1372301 On ch=1 n=f4 v=0
1372306 On ch=1 n=c6 v=0
1372326 On ch=1 n=c7 v=0
1372426 On ch=1 n=c#6 v=89
1372426 On ch=1 n=c#7 v=89
1372496 On ch=1 n=c#7 v=0
1372496 On ch=1 n=c#6 v=0
1372636 Par ch=1 c=64 v=24
1372641 On ch=1 n=a#6 v=87
1372641 On ch=1 n=a#5 v=84
1372656 Par ch=1 c=64 v=0
1372671 On ch=1 n=a#2 v=60
1372681 On ch=1 n=a#3 v=56
1372746 On ch=1 n=a#2 v=0
1372756 On ch=1 n=a#3 v=0
1372771 Par ch=1 c=64 v=56
1372791 Par ch=1 c=64 v=127
1373016 On ch=1 n=c#5 v=45
1373016 On ch=1 n=a#4 v=44
1373051 On ch=1 n=f4 v=36
1373101 On ch=1 n=a#4 v=0
1373106 On ch=1 n=f4 v=0
1373106 On ch=1 n=c#5 v=0
1373336 On ch=1 n=c#5 v=42
1373346 On ch=1 n=f4 v=53
1373346 On ch=1 n=a#4 v=35
1373416 On ch=1 n=a#4 v=0
1373421 On ch=1 n=f4 v=0
1373436 On ch=1 n=c#5 v=0
1373676 On ch=1 n=c#5 v=39
1373686 On ch=1 n=f4 v=52
1373686 On ch=1 n=a#4 v=28
1373746 On ch=1 n=a#4 v=0
1373781 On ch=1 n=c#5 v=0
1373786 On ch=1 n=f4 v=0
1374026 On ch=1 n=c#5 v=37
1374036 On ch=1 n=f4 v=51
1374036 On ch=1 n=a#4 v=31
1374101 On ch=1 n=a#4 v=0
1374126 On ch=1 n=f4 v=0
1374131 On ch=1 n=c#5 v=0
1374416 On ch=1 n=c#5 v=33
1374451 On ch=1 n=f4 v=27
1374466 On ch=1 n=a#4 v=22
1374506 On ch=1 n=f4 v=0
1374516 On ch=1 n=a#4 v=0
1374516 On ch=1 n=c#5 v=0
1374586 On ch=1 n=a#5 v=0
1374591 On ch=1 n=a#6 v=0
1374976 On ch=1 n=a#6 v=71
1374991 On ch=1 n=a#5 v=51
1375026 On ch=1 n=c#4 v=47
1375041 Par ch=1 c=64 v=40
1375051 On ch=1 n=g#4 v=39
1375061 Par ch=1 c=64 v=0
1375146 On ch=1 n=c#4 v=0
1375166 On ch=1 n=g#4 v=0
1375176 Par ch=1 c=64 v=104
1375196 Par ch=1 c=64 v=127
1375301 On ch=1 n=a#6 v=0
1375331 On ch=1 n=a#5 v=0
1375431 On ch=1 n=f#5 v=46
1375441 On ch=1 n=c5 v=48
1375461 On ch=1 n=g#4 v=26
1375516 On ch=1 n=g#4 v=0
1375526 On ch=1 n=c5 v=0
1375551 On ch=1 n=f#5 v=0
1375751 On ch=1 n=d#6 v=79
1375761 On ch=1 n=d#5 v=53
1375776 On ch=1 n=f#5 v=49
1375796 On ch=1 n=c5 v=43
1375801 On ch=1 n=g#4 v=31
1375866 On ch=1 n=c5 v=0
1375876 On ch=1 n=g#4 v=0
1375886 On ch=1 n=f#5 v=0
1376036 On ch=1 n=d#5 v=0
1376076 On ch=1 n=d#6 v=0
1376081 On ch=1 n=f#5 v=55
1376101 On ch=1 n=c5 v=54
1376106 On ch=1 n=g#4 v=46
1376206 On ch=1 n=c5 v=0
1376221 On ch=1 n=g#4 v=0
1376226 On ch=1 n=f#5 v=0
1376381 On ch=1 n=d6 v=84
1376386 On ch=1 n=d5 v=63
1376416 On ch=1 n=f#5 v=36
1376426 On ch=1 n=g#4 v=35
1376441 On ch=1 n=c5 v=40
1376496 On ch=1 n=c5 v=0
1376511 On ch=1 n=f#5 v=0
1376511 On ch=1 n=d5 v=0
1376521 On ch=1 n=g#4 v=0
1376656 On ch=1 n=d6 v=0
1376706 On ch=1 n=f#5 v=54
1376726 On ch=1 n=g#4 v=46
1376736 On ch=1 n=c5 v=48
1376751 On ch=1 n=f#5 v=0
1376771 On ch=1 n=c5 v=0
1376806 On ch=1 n=g#4 v=0
1376871 On ch=1 n=d#5 v=49
1376876 On ch=1 n=d#6 v=70
1376911 On ch=1 n=d#5 v=0
1377006 On ch=1 n=d#6 v=0
1377041 On ch=1 n=f5 v=73
1377146 On ch=1 n=f5 v=0
1377146 Par ch=1 c=64 v=56
1377151 On ch=1 n=f6 v=74
1377171 Par ch=1 c=64 v=0
1377191 On ch=1 n=c#4 v=56
1377221 On ch=1 n=f6 v=0
1377286 Par ch=1 c=64 v=127
1377311 On ch=1 n=c#4 v=0
1377316 On ch=1 n=g#5 v=34
1377326 On ch=1 n=g#6 v=77
1377461 On ch=1 n=g#5 v=0
1377651 On ch=1 n=f5 v=49
1377661 On ch=1 n=g#4 v=36
1377666 On ch=1 n=c#5 v=35
1377676 On ch=1 n=g#5 v=42
1377691 On ch=1 n=g#6 v=0
1377721 On ch=1 n=c#5 v=0
1377731 On ch=1 n=f5 v=0
1377771 On ch=1 n=g#4 v=0
1377796 On ch=1 n=g#5 v=0
1378016 On ch=1 n=g5 v=57
1378026 On ch=1 n=g4 v=44
1378031 On ch=1 n=e5 v=40
1378071 On ch=1 n=c#5 v=25
1378111 On ch=1 n=e5 v=0
1378116 On ch=1 n=c#5 v=0
1378136 On ch=1 n=g4 v=0
1378281 On ch=1 n=g5 v=0
1378346 On ch=1 n=f5 v=59
1378356 On ch=1 n=g#4 v=47
1378356 On ch=1 n=g#5 v=44
1378356 On ch=1 n=c#5 v=44
1378426 On ch=1 n=g#5 v=0
1378436 On ch=1 n=f5 v=0
1378446 On ch=1 n=c#5 v=0
1378446 On ch=1 n=g#4 v=0
1378516 On ch=1 n=g#5 v=65
1378621 On ch=1 n=g#5 v=0
1378696 On ch=1 n=f#5 v=61
1378701 On ch=1 n=c#6 v=47
1378716 On ch=1 n=a#4 v=44
1378726 On ch=1 n=c#5 v=42
1378756 Par ch=1 c=64 v=72
1378776 Par ch=1 c=64 v=0
1378846 On ch=1 n=c#5 v=0
1378856 On ch=1 n=f#5 v=0
1378876 Par ch=1 c=64 v=72
1378891 Par ch=1 c=64 v=127
1378921 On ch=1 n=a#4 v=0
1379131 On ch=1 n=f5 v=59
1379136 On ch=1 n=g#5 v=44
1379141 On ch=1 n=c#5 v=38
1379146 On ch=1 n=g#4 v=42
1379221 On ch=1 n=c#6 v=0
1379226 On ch=1 n=g#5 v=0
1379226 On ch=1 n=f5 v=0
1379236 On ch=1 n=c#5 v=0
1379271 On ch=1 n=g#4 v=0
1379571 Par ch=1 c=64 v=72
1379591 Par ch=1 c=64 v=0
1379601 On ch=1 n=c7 v=96
1379611 On ch=1 n=c6 v=85
1379626 On ch=1 n=f#4 v=71
1379626 On ch=1 n=f#3 v=64
1379681 On ch=1 n=f#3 v=0
1379691 On ch=1 n=f#4 v=0
1379706 Par ch=1 c=64 v=88
1379726 Par ch=1 c=64 v=127
1379946 On ch=1 n=c6 v=0
1379981 On ch=1 n=c5 v=65
1379991 On ch=1 n=e4 v=52
1379991 On ch=1 n=a#4 v=43
1380061 On ch=1 n=e4 v=0
1380076 On ch=1 n=c5 v=0
1380081 On ch=1 n=c7 v=0
1380096 On ch=1 n=a#4 v=0
1380316 On ch=1 n=a#4 v=58
1380326 On ch=1 n=c5 v=66
1380331 On ch=1 n=e4 v=62
1380361 On ch=1 n=c5 v=0
1380386 On ch=1 n=a#4 v=0
1380406 On ch=1 n=e4 v=0
1380656 Par ch=1 c=64 v=104
1380676 On ch=1 n=f7 v=100
1380676 Par ch=1 c=64 v=24
1380686 On ch=1 n=f6 v=89
1380696 Par ch=1 c=64 v=0
1380701 On ch=1 n=f3 v=69
1380711 On ch=1 n=f4 v=81
1380761 On ch=1 n=f3 v=0
1380791 Par ch=1 c=64 v=88
1380801 On ch=1 n=f4 v=0
1380811 Par ch=1 c=64 v=127
1380936 On ch=1 n=f7 v=0
1380976 On ch=1 n=f6 v=0
1381026 On ch=1 n=c5 v=72
1381026 On ch=1 n=f4 v=66
1381026 On ch=1 n=a4 v=62
1381121 On ch=1 n=f4 v=0
1381126 On ch=1 n=a4 v=0
1381126 On ch=1 n=c5 v=0
1381201 On ch=1 n=d#7 v=90
1381206 On ch=1 n=d#6 v=88
1381271 On ch=1 n=d#6 v=0
1381276 On ch=1 n=d#7 v=0
1381351 On ch=1 n=c5 v=72
1381351 On ch=1 n=a4 v=64
1381356 On ch=1 n=f4 v=64
1381391 On ch=1 n=c5 v=0
1381391 On ch=1 n=c7 v=92
1381401 On ch=1 n=c6 v=85
1381406 On ch=1 n=a4 v=0
1381431 On ch=1 n=c6 v=0
1381436 On ch=1 n=f4 v=0
1381456 On ch=1 n=c7 v=0
1381536 On ch=1 n=c#7 v=91
1381541 On ch=1 n=c#6 v=95
1381606 On ch=1 n=c#6 v=0
1381611 On ch=1 n=c#7 v=0
1381721 Par ch=1 c=64 v=40
1381736 Par ch=1 c=64 v=0
1381746 On ch=1 n=a#6 v=85
1381756 On ch=1 n=a#5 v=83
1381771 On ch=1 n=a#2 v=64
1381776 On ch=1 n=a#3 v=62
1381831 On ch=1 n=a#2 v=0
1381841 On ch=1 n=a#3 v=0
1381876 Par ch=1 c=64 v=104
1381896 Par ch=1 c=64 v=127
1382121 On ch=1 n=c#5 v=53
1382131 On ch=1 n=f4 v=59
1382156 On ch=1 n=a#4 v=32
1382201 On ch=1 n=a#4 v=0
1382216 On ch=1 n=f4 v=0
1382221 On ch=1 n=c#5 v=0
1382451 On ch=1 n=f4 v=56
1382451 On ch=1 n=c#5 v=39
1382456 On ch=1 n=a#4 v=33
1382531 On ch=1 n=a#5 v=0
1382551 On ch=1 n=f4 v=0
1382561 On ch=1 n=a#4 v=0
1382566 On ch=1 n=c#5 v=0
1382571 On ch=1 n=a#6 v=0
1382781 On ch=1 n=c#5 v=43
1382801 On ch=1 n=f4 v=44
1382801 On ch=1 n=a#4 v=28
1382866 On ch=1 n=a#4 v=0
1382866 On ch=1 n=f4 v=0
1382896 On ch=1 n=c#5 v=0
1383136 On ch=1 n=c#5 v=27
1383146 On ch=1 n=f4 v=37
1383146 On ch=1 n=a#4 v=25
1383221 On ch=1 n=a#4 v=0
1383246 On ch=1 n=c#5 v=0
1383271 On ch=1 n=f4 v=0
1383531 On ch=1 n=f4 v=50
1383536 On ch=1 n=c#5 v=35
1383556 On ch=1 n=a#4 v=28
1383621 On ch=1 n=c#5 v=0
1383626 On ch=1 n=a#4 v=0
1383641 On ch=1 n=f4 v=0
1384066 On ch=1 n=c#7 v=85
1384081 On ch=1 n=c#6 v=64
1384106 On ch=1 n=a#3 v=48
1384121 Par ch=1 c=64 v=72
1384141 Par ch=1 c=64 v=0
1384226 On ch=1 n=a#3 v=0
1384241 Par ch=1 c=64 v=40
1384256 Par ch=1 c=64 v=127
1384411 On ch=1 n=c#7 v=0
1384426 On ch=1 n=c#6 v=0
1384486 On ch=1 n=c#5 v=35
1384501 On ch=1 n=c#4 v=38
1384506 On ch=1 n=f#4 v=35
1384576 On ch=1 n=f#4 v=0
1384581 On ch=1 n=c#4 v=0
1384586 On ch=1 n=c#5 v=0
1384786 On ch=1 n=a#6 v=80
1384806 On ch=1 n=a#5 v=61
1384816 On ch=1 n=c#5 v=36
1384826 On ch=1 n=c#4 v=30
1384831 On ch=1 n=f#4 v=33
1384906 On ch=1 n=c#4 v=0
1384911 On ch=1 n=f#4 v=0
1384926 On ch=1 n=c#5 v=0
1385031 On ch=1 n=a#6 v=0
1385071 On ch=1 n=a#5 v=0
1385141 On ch=1 n=c#5 v=47
1385151 On ch=1 n=c#4 v=37
1385166 On ch=1 n=f#4 v=34
1385216 On ch=1 n=f#4 v=0
1385241 On ch=1 n=c#4 v=0
1385261 On ch=1 n=c#5 v=0
1385456 On ch=1 n=f#6 v=77
1385471 On ch=1 n=f#5 v=62
1385481 On ch=1 n=c#5 v=32
1385486 On ch=1 n=c#4 v=32
1385501 On ch=1 n=f#4 v=28
1385596 On ch=1 n=c#5 v=0
1385601 On ch=1 n=f#4 v=0
1385601 On ch=1 n=c#4 v=0
1385646 On ch=1 n=f#6 v=0
1385651 On ch=1 n=f#5 v=0
1385816 On ch=1 n=c#5 v=38
1385836 On ch=1 n=c#4 v=33
1385841 On ch=1 n=f#4 v=35
1385881 On ch=1 n=c#4 v=0
1385896 On ch=1 n=f#4 v=0
1385901 On ch=1 n=c#5 v=0
1385971 On ch=1 n=f6 v=83
1385981 On ch=1 n=f5 v=65
1386046 On ch=1 n=f5 v=0
1386061 On ch=1 n=f6 v=0
1386156 Par ch=1 c=64 v=88
1386176 Par ch=1 c=64 v=0
1386181 On ch=1 n=e5 v=72
1386181 On ch=1 n=e6 v=74
1386221 On ch=1 n=c4 v=56
1386271 On ch=1 n=c4 v=0
1386311 Par ch=1 c=64 v=72
1386331 Par ch=1 c=64 v=127
1386436 On ch=1 n=e5 v=0
1386566 On ch=1 n=g4 v=58
1386571 On ch=1 n=g5 v=59
1386571 On ch=1 n=e5 v=45
1386581 On ch=1 n=c5 v=58
1386586 On ch=1 n=e6 v=0
1386631 On ch=1 n=g4 v=0
1386641 On ch=1 n=c5 v=0
1386646 On ch=1 n=e5 v=0
1386786 On ch=1 n=g5 v=0
1386871 Par ch=1 c=64 v=104
1386891 On ch=1 n=f#4 v=47
1386891 Par ch=1 c=64 v=40
1386906 On ch=1 n=d#5 v=48
1386906 Par ch=1 c=64 v=0
1386916 On ch=1 n=f#5 v=65
1386926 On ch=1 n=c5 v=45
1386971 Par ch=1 c=64 v=56
1386991 On ch=1 n=c5 v=0
1386991 On ch=1 n=f#4 v=0
1386991 Par ch=1 c=64 v=104
1387006 Par ch=1 c=64 v=127
1387056 On ch=1 n=d#5 v=0
1387121 On ch=1 n=f#5 v=0
1387201 Par ch=1 c=64 v=40
1387221 Par ch=1 c=64 v=0
1387246 On ch=1 n=g5 v=64
1387266 On ch=1 n=e5 v=52
1387271 On ch=1 n=g4 v=49
1387271 On ch=1 n=c5 v=47
1387296 Par ch=1 c=64 v=56
1387316 On ch=1 n=g5 v=0
1387321 Par ch=1 c=64 v=104
1387326 On ch=1 n=g4 v=0
1387336 On ch=1 n=c5 v=0
1387336 Par ch=1 c=64 v=127
1387341 On ch=1 n=e5 v=0
1387436 On ch=1 n=g5 v=60
1387551 Par ch=1 c=64 v=104
1387571 Par ch=1 c=64 v=24
1387581 On ch=1 n=g5 v=0
1387586 On ch=1 n=g6 v=78
1387591 Par ch=1 c=64 v=0
1387601 On ch=1 n=f5 v=53
1387611 On ch=1 n=c5 v=40
1387636 On ch=1 n=a4 v=39
1387671 On ch=1 n=g6 v=0
1387686 Par ch=1 c=64 v=56
1387691 On ch=1 n=a4 v=0
1387696 On ch=1 n=f5 v=0
1387706 Par ch=1 c=64 v=127
1387716 On ch=1 n=c5 v=0
1387986 On ch=1 n=g4 v=47
1387986 On ch=1 n=e5 v=53
1387996 On ch=1 n=c5 v=52
1388001 On ch=1 n=g5 v=63
1388066 On ch=1 n=c5 v=0
1388066 On ch=1 n=e5 v=0
1388101 On ch=1 n=g4 v=0
1388121 On ch=1 n=g5 v=0
1388366 Par ch=1 c=64 v=104
1388381 Par ch=1 c=64 v=0
1388401 On ch=1 n=g6 v=99
1388401 On ch=1 n=g5 v=87
1388426 On ch=1 n=g3 v=64
1388441 On ch=1 n=g4 v=63
1388461 On ch=1 n=g3 v=0
1388481 Par ch=1 c=64 v=40
1388491 On ch=1 n=g5 v=0
1388496 Par ch=1 c=64 v=127
1388516 On ch=1 n=g4 v=0
1388541 On ch=1 n=g6 v=0
1388736 On ch=1 n=d5 v=63
1388736 On ch=1 n=b4 v=62
1388741 On ch=1 n=g4 v=61
1388786 On ch=1 n=g4 v=0
1388806 On ch=1 n=b4 v=0
1388811 On ch=1 n=d5 v=0
1388876 On ch=1 n=b6 v=94
1388881 On ch=1 n=b5 v=78
1388931 On ch=1 n=b6 v=0
1388941 On ch=1 n=b5 v=0
1389026 On ch=1 n=b4 v=78
1389026 On ch=1 n=d5 v=79
1389036 On ch=1 n=g4 v=66
1389036 On ch=1 n=d7 v=99
1389041 On ch=1 n=d6 v=93
1389066 On ch=1 n=d5 v=0
1389091 On ch=1 n=b4 v=0
1389096 On ch=1 n=d6 v=0
1389111 On ch=1 n=g4 v=0
1389116 On ch=1 n=d7 v=0
1389291 Par ch=1 c=64 v=72
1389311 Par ch=1 c=64 v=0
1389381 On ch=1 n=e7 v=107
1389381 On ch=1 n=e6 v=100
1389396 On ch=1 n=c3 v=68
1389411 On ch=1 n=c4 v=74
1389426 On ch=1 n=c3 v=0
1389446 Par ch=1 c=64 v=88
1389466 Par ch=1 c=64 v=127
1389471 On ch=1 n=c4 v=0
1389626 On ch=1 n=e6 v=0
1389716 On ch=1 n=g4 v=65
1389721 On ch=1 n=e5 v=58
1389726 On ch=1 n=c5 v=58
1389751 On ch=1 n=e7 v=0
1389786 On ch=1 n=c5 v=0
1389801 On ch=1 n=g4 v=0
1389806 On ch=1 n=e5 v=0
1389846 On ch=1 n=f7 v=97
1389851 On ch=1 n=f6 v=92
1389906 On ch=1 n=f6 v=0
1389921 On ch=1 n=f7 v=0
1389971 Par ch=1 c=64 v=104
1389981 On ch=1 n=e5 v=72
1389991 On ch=1 n=g4 v=78
1389991 On ch=1 n=c5 v=67
1389991 Par ch=1 c=64 v=72
1389996 On ch=1 n=g7 v=107
1390001 On ch=1 n=g6 v=99
1390011 Par ch=1 c=64 v=56
1390016 On ch=1 n=e5 v=0
1390021 On ch=1 n=c5 v=0
1390021 On ch=1 n=g4 v=0
1390026 Par ch=1 c=64 v=24
1390046 Par ch=1 c=64 v=0
1390076 On ch=1 n=g6 v=0
1390111 On ch=1 n=g7 v=0
1390326 On ch=1 n=f3 v=64
1390336 On ch=1 n=a7 v=109
1390341 On ch=1 n=a6 v=93
1390346 On ch=1 n=f4 v=58
1390356 Par ch=1 c=64 v=72
1390361 On ch=1 n=f3 v=0
1390376 Par ch=1 c=64 v=127
1390391 On ch=1 n=f4 v=0
1390641 On ch=1 n=a6 v=0
1390661 On ch=1 n=c5 v=74
1390661 On ch=1 n=a4 v=65
1390671 On ch=1 n=f4 v=65
1390696 On ch=1 n=c5 v=0
1390711 On ch=1 n=a4 v=0
1390736 On ch=1 n=f4 v=0
1390901 On ch=1 n=a7 v=0
1390941 Par ch=1 c=64 v=88
1390956 Par ch=1 c=64 v=0
1390981 On ch=1 n=b7 v=102
1390991 On ch=1 n=b6 v=93
1390996 On ch=1 n=g4 v=82
1391001 On ch=1 n=g3 v=68
1391051 Par ch=1 c=64 v=56
1391066 On ch=1 n=g4 v=0
1391071 On ch=1 n=g3 v=0
1391076 Par ch=1 c=64 v=127
1391086 On ch=1 n=b6 v=0
1391116 On ch=1 n=b7 v=0
1391306 Par ch=1 c=64 v=56
1391326 Par ch=1 c=64 v=0
1391351 On ch=1 n=c3 v=72
1391356 On ch=1 n=c8 v=109
1391361 On ch=1 n=c7 v=99
1391366 On ch=1 n=c4 v=70
1391416 On ch=1 n=c4 v=0
1391416 On ch=1 n=c3 v=0
1391441 Par ch=1 c=64 v=88
1391461 Par ch=1 c=64 v=127
1391516 On ch=1 n=c7 v=0
1391521 On ch=1 n=c8 v=0
1391781 On ch=1 n=c#8 v=105
1391791 On ch=1 n=c#7 v=92
1391811 Par ch=1 c=64 v=56
1391816 On ch=1 n=f3 v=74
1391831 On ch=1 n=f4 v=60
1391831 Par ch=1 c=64 v=0
1391921 On ch=1 n=f3 v=0
1391951 On ch=1 n=f4 v=0
1392006 Par ch=1 c=64 v=127
1392241 On ch=1 n=d#5 v=72
1392246 On ch=1 n=f4 v=64
1392261 On ch=1 n=a4 v=56
1392266 On ch=1 n=c#8 v=0
1392271 On ch=1 n=c#7 v=0
1392291 On ch=1 n=f4 v=0
1392296 On ch=1 n=a4 v=0
1392321 On ch=1 n=d#5 v=0
1392431 On ch=1 n=c8 v=102
1392441 On ch=1 n=c7 v=83
1392546 On ch=1 n=c7 v=0
1392576 On ch=1 n=c8 v=0
1392691 On ch=1 n=a#7 v=91
1392706 On ch=1 n=a#6 v=72
1392746 On ch=1 n=a#3 v=71
1392796 Par ch=1 c=64 v=24
1392816 Par ch=1 c=64 v=0
1392926 On ch=1 n=a#3 v=0
1392971 Par ch=1 c=64 v=127
1393086 On ch=1 n=a#6 v=0
1393086 On ch=1 n=a#7 v=0
1393221 On ch=1 n=c#5 v=46
1393226 On ch=1 n=a#4 v=38
1393236 On ch=1 n=f4 v=56
1393301 On ch=1 n=c#5 v=0
1393306 On ch=1 n=a#4 v=0
1393326 On ch=1 n=f4 v=0
1393471 On ch=1 n=f7 v=87
1393481 On ch=1 n=f6 v=73
1393521 On ch=1 n=c#5 v=44
1393526 On ch=1 n=f4 v=51
1393541 On ch=1 n=a#4 v=33
1393606 On ch=1 n=a#4 v=0
1393616 On ch=1 n=f4 v=0
1393616 On ch=1 n=c#5 v=0
1393751 On ch=1 n=f7 v=0
1393796 On ch=1 n=f6 v=0
1393821 On ch=1 n=f4 v=58
1393831 On ch=1 n=c#5 v=42
1393836 On ch=1 n=a#4 v=38
1393921 On ch=1 n=f4 v=0
1393926 On ch=1 n=a#4 v=0
1393926 On ch=1 n=c#5 v=0
1394101 On ch=1 n=c#7 v=85
1394116 On ch=1 n=c#6 v=69
1394141 On ch=1 n=f4 v=52
1394141 On ch=1 n=a#4 v=34
1394141 On ch=1 n=c#5 v=37
1394251 On ch=1 n=c#5 v=0
1394251 On ch=1 n=a#4 v=0
1394251 On ch=1 n=f4 v=0
1394426 On ch=1 n=c#7 v=0
1394466 On ch=1 n=a#4 v=48
1394476 On ch=1 n=c#5 v=45
1394481 On ch=1 n=c#6 v=0
1394481 On ch=1 n=f4 v=51
1394546 On ch=1 n=f4 v=0
1394551 On ch=1 n=c#5 v=0
1394556 On ch=1 n=a#4 v=0
1394621 On ch=1 n=a#6 v=79
1394631 On ch=1 n=a#5 v=67
1394706 On ch=1 n=a#5 v=0
1394751 On ch=1 n=a#6 v=0
1394836 On ch=1 n=g#6 v=81
1394846 On ch=1 n=g#5 v=62
1394881 On ch=1 n=b3 v=68
1394891 Par ch=1 c=64 v=40
1394911 Par ch=1 c=64 v=0
1395046 Par ch=1 c=64 v=127
1395106 On ch=1 n=b3 v=0
1395146 On ch=1 n=g#5 v=0
1395241 On ch=1 n=c#6 v=58
1395261 On ch=1 n=c#5 v=36
1395261 On ch=1 n=f5 v=45
1395276 On ch=1 n=g#4 v=36
1395331 On ch=1 n=f5 v=0
1395346 On ch=1 n=c#5 v=0
1395391 On ch=1 n=g#4 v=0
1395476 On ch=1 n=c#6 v=0
1395571 On ch=1 n=c6 v=70
1395581 On ch=1 n=g4 v=54
1395591 On ch=1 n=e5 v=44
1395591 On ch=1 n=c#5 v=28
1395626 Par ch=1 c=64 v=88
1395646 Par ch=1 c=64 v=104
1395666 Par ch=1 c=64 v=127
1395676 On ch=1 n=e5 v=0
1395701 On ch=1 n=c#5 v=0
1395706 On ch=1 n=g4 v=0
1395811 On ch=1 n=c6 v=0
1395856 Par ch=1 c=64 v=40
1395876 On ch=1 n=g#6 v=0
1395876 Par ch=1 c=64 v=0
1395881 On ch=1 n=c#6 v=69
1395906 On ch=1 n=f5 v=56
1395916 On ch=1 n=g#4 v=43
1395921 On ch=1 n=c#5 v=38
1395936 Par ch=1 c=64 v=56
1395956 Par ch=1 c=64 v=104
1395971 On ch=1 n=c#6 v=0
1395976 Par ch=1 c=64 v=127
1396006 On ch=1 n=g#4 v=0
1396006 On ch=1 n=f5 v=0
1396046 On ch=1 n=c#5 v=0
1396086 On ch=1 n=c#6 v=72
1396186 Par ch=1 c=64 v=24
1396206 Par ch=1 c=64 v=0
1396216 On ch=1 n=g#5 v=45
1396221 On ch=1 n=c#6 v=0
1396221 On ch=1 n=c#7 v=71
1396241 On ch=1 n=b4 v=45
1396301 On ch=1 n=b4 v=0
1396301 Par ch=1 c=64 v=104
1396321 On ch=1 n=g#5 v=0
1396321 Par ch=1 c=64 v=127
1396451 On ch=1 n=c#7 v=0
1396601 On ch=1 n=c#6 v=58
1396606 On ch=1 n=f5 v=52
1396611 On ch=1 n=c#5 v=37
1396626 On ch=1 n=g#4 v=37
1396671 On ch=1 n=f5 v=0
1396686 On ch=1 n=c#5 v=0
1396706 On ch=1 n=g#4 v=0
1396716 On ch=1 n=c#6 v=0
1396981 Par ch=1 c=64 v=40
1396986 On ch=1 n=c7 v=93
1396991 On ch=1 n=c6 v=92
1397001 Par ch=1 c=64 v=0
1397016 On ch=1 n=c4 v=69
1397046 On ch=1 n=c5 v=29
1397051 On ch=1 n=c4 v=0
1397076 Par ch=1 c=64 v=56
1397096 Par ch=1 c=64 v=127
1397136 On ch=1 n=c5 v=0
1397136 On ch=1 n=c6 v=0
1397181 On ch=1 n=c7 v=0
1397331 On ch=1 n=e5 v=56
1397331 On ch=1 n=c5 v=54
1397346 On ch=1 n=g4 v=43
1397361 On ch=1 n=a#4 v=27
1397391 On ch=1 n=g4 v=0
1397396 On ch=1 n=e5 v=0
1397401 On ch=1 n=a#4 v=0
1397406 On ch=1 n=c5 v=0
1397461 On ch=1 n=e7 v=94
1397466 On ch=1 n=e6 v=83
1397531 On ch=1 n=e6 v=0
1397536 On ch=1 n=e7 v=0
1397601 On ch=1 n=a#4 v=60
1397601 On ch=1 n=e5 v=74
1397611 On ch=1 n=c5 v=62
1397616 On ch=1 n=g4 v=59
1397616 On ch=1 n=g7 v=103
1397621 On ch=1 n=g6 v=94
1397636 On ch=1 n=e5 v=0
1397646 On ch=1 n=c5 v=0
1397666 On ch=1 n=g4 v=0
1397671 On ch=1 n=a#4 v=0
1397681 On ch=1 n=g6 v=0
1397701 On ch=1 n=g7 v=0
1397911 Par ch=1 c=64 v=104
1397931 Par ch=1 c=64 v=24
1397951 Par ch=1 c=64 v=0
1397961 On ch=1 n=g#7 v=105
1397961 On ch=1 n=g#6 v=105
1397971 On ch=1 n=f3 v=73
1397996 On ch=1 n=f4 v=68
1398031 On ch=1 n=f3 v=0
1398046 Par ch=1 c=64 v=56
1398051 On ch=1 n=g#6 v=0
1398066 Par ch=1 c=64 v=127
1398071 On ch=1 n=f4 v=0
1398126 On ch=1 n=g#7 v=0
1398301 On ch=1 n=g#4 v=56
1398306 On ch=1 n=f5 v=66
1398311 On ch=1 n=c5 v=63
1398366 On ch=1 n=f5 v=0
1398371 On ch=1 n=c5 v=0
1398406 On ch=1 n=g#4 v=0
1398456 On ch=1 n=a#7 v=86
1398456 On ch=1 n=a#6 v=78
1398521 On ch=1 n=a#6 v=0
1398531 On ch=1 n=a#7 v=0
1398571 On ch=1 n=c5 v=70
1398576 On ch=1 n=f5 v=69
1398581 On ch=1 n=g#4 v=56
1398611 On ch=1 n=f5 v=0
1398611 On ch=1 n=c8 v=103
1398616 On ch=1 n=c7 v=94
1398621 On ch=1 n=c5 v=0
1398656 On ch=1 n=g#4 v=0
1398666 Par ch=1 c=64 v=88
1398676 On ch=1 n=c7 v=0
1398686 Par ch=1 c=64 v=56
1398696 On ch=1 n=c8 v=0
1398706 Par ch=1 c=64 v=40
1398726 Par ch=1 c=64 v=0
1398951 On ch=1 n=c#8 v=95
1398951 On ch=1 n=a#3 v=69
1398956 On ch=1 n=c#7 v=90
1398966 On ch=1 n=a#4 v=80
1398976 Par ch=1 c=64 v=127
1399021 On ch=1 n=a#3 v=0
1399026 On ch=1 n=a#4 v=0
1399031 On ch=1 n=c#7 v=0
1399036 On ch=1 n=c#8 v=0
1399296 On ch=1 n=c#5 v=77
1399301 On ch=1 n=c#4 v=71
1399326 Par ch=1 c=64 v=104
1399336 On ch=1 n=c#4 v=0
1399346 Par ch=1 c=64 v=56
1399366 On ch=1 n=c#5 v=0
1399366 Par ch=1 c=64 v=24
1399386 Par ch=1 c=64 v=0
1399636 On ch=1 n=e6 v=84
1399636 Par ch=1 c=64 v=56
1399651 On ch=1 n=e5 v=76
1399651 On ch=1 n=c5 v=71
1399651 On ch=1 n=a#5 v=61
1399651 Par ch=1 c=64 v=127
1399656 On ch=1 n=c4 v=68
1399666 On ch=1 n=c6 v=74
1399681 On ch=1 n=c5 v=0
1399721 On ch=1 n=c6 v=0
1399721 On ch=1 n=e5 v=0
1399726 On ch=1 n=c4 v=0
1399726 On ch=1 n=a#5 v=0
1399756 On ch=1 n=e6 v=0
1400001 Par ch=1 c=64 v=56
1400021 Par ch=1 c=64 v=0
1400041 On ch=1 n=f6 v=89
1400051 On ch=1 n=f5 v=73
1400051 On ch=1 n=g#5 v=60
1400056 On ch=1 n=f3 v=62
1400056 On ch=1 n=c6 v=67
1400071 On ch=1 n=f4 v=55
1400091 On ch=1 n=f3 v=0
1400136 On ch=1 n=f5 v=0
1400136 Par ch=1 c=64 v=72
1400146 On ch=1 n=f4 v=0
1400156 Par ch=1 c=64 v=127
1400181 On ch=1 n=g#5 v=0
1400196 On ch=1 n=c6 v=0
1400206 On ch=1 n=f6 v=0
1400471 On ch=1 n=c5 v=50
1400476 On ch=1 n=g#4 v=38
1400481 On ch=1 n=f4 v=48
1400571 On ch=1 n=c5 v=0
1400576 On ch=1 n=f4 v=0
1400586 On ch=1 n=g#4 v=0
1400951 Par ch=1 c=64 v=56
1400971 On ch=1 n=c6 v=69
1400971 Par ch=1 c=64 v=0
1401106 Par ch=1 c=64 v=56
1401126 Par ch=1 c=64 v=127
1401416 Par ch=1 c=64 v=88
1401436 Par ch=1 c=64 v=0
1401531 On ch=1 n=c7 v=76
1401551 On ch=1 n=f3 v=44
1401591 Par ch=1 c=64 v=72
1401596 On ch=1 n=f3 v=0
1401611 Par ch=1 c=64 v=127
1401931 On ch=1 n=d#5 v=36
1401951 On ch=1 n=f5 v=31
1402006 On ch=1 n=d#5 v=0
1402016 On ch=1 n=c6 v=0
1402021 On ch=1 n=f5 v=0
1402176 On ch=1 n=c7 v=0
1402306 On ch=1 n=d#5 v=37
1402316 On ch=1 n=f5 v=49
1402341 On ch=1 n=d#5 v=0
1402351 On ch=1 n=f5 v=0
1402656 Par ch=1 c=64 v=40
1402666 On ch=1 n=f7 v=90
1402676 Par ch=1 c=64 v=0
1402681 On ch=1 n=f6 v=78
1402696 On ch=1 n=a3 v=61
1402741 On ch=1 n=a3 v=0
1402771 Par ch=1 c=64 v=72
1402791 Par ch=1 c=64 v=127
1402916 On ch=1 n=f7 v=0
1402926 On ch=1 n=f6 v=0
1403071 On ch=1 n=d#5 v=42
1403071 On ch=1 n=f5 v=45
1403111 On ch=1 n=d#5 v=0
1403126 On ch=1 n=f5 v=0
1403206 On ch=1 n=d#7 v=75
1403226 On ch=1 n=d#6 v=65
1403291 On ch=1 n=d#6 v=0
1403296 On ch=1 n=d#7 v=0
1403381 On ch=1 n=d#5 v=55
1403396 On ch=1 n=c6 v=55
1403396 On ch=1 n=c7 v=66
1403396 On ch=1 n=f5 v=51
1403426 On ch=1 n=c7 v=0
1403436 On ch=1 n=c6 v=0
1403436 On ch=1 n=d#5 v=0
1403441 On ch=1 n=f5 v=0
1403546 On ch=1 n=d7 v=77
1403551 On ch=1 n=d6 v=82
1403616 On ch=1 n=d6 v=0
1403616 On ch=1 n=d7 v=0
1403741 Par ch=1 c=64 v=40
1403756 On ch=1 n=a#6 v=77
1403761 Par ch=1 c=64 v=0
1403766 On ch=1 n=a#5 v=62
1403766 On ch=1 n=a#3 v=61
1403831 On ch=1 n=a#3 v=0
1403876 Par ch=1 c=64 v=104
1403891 Par ch=1 c=64 v=127
1404136 On ch=1 n=d5 v=56
1404146 On ch=1 n=f5 v=48
1404166 On ch=1 n=a#4 v=29
1404221 On ch=1 n=a#4 v=0
1404221 On ch=1 n=f5 v=0
1404226 On ch=1 n=d5 v=0
1404491 On ch=1 n=f5 v=54
1404501 On ch=1 n=a#4 v=36
1404501 On ch=1 n=d5 v=37
1404526 On ch=1 n=f5 v=0
1404546 On ch=1 n=d5 v=0
1404571 On ch=1 n=a#4 v=0
1404586 On ch=1 n=a#5 v=0
1404596 On ch=1 n=a#6 v=0
1404821 Par ch=1 c=64 v=88
1404836 On ch=1 n=a6 v=84
1404841 Par ch=1 c=64 v=0
1404851 On ch=1 n=a5 v=72
1404871 On ch=1 n=b3 v=64
1404911 On ch=1 n=b3 v=0
1404961 Par ch=1 c=64 v=40
1404981 Par ch=1 c=64 v=104
1405001 Par ch=1 c=64 v=127
1405216 On ch=1 n=d5 v=65
1405226 On ch=1 n=f5 v=55
1405226 On ch=1 n=a4 v=45
1405281 On ch=1 n=a4 v=0
1405316 On ch=1 n=a5 v=0
1405341 On ch=1 n=a6 v=0
1405536 On ch=1 n=g#4 v=61
1405536 On ch=1 n=g#6 v=80
1405556 On ch=1 n=g#5 v=61
1405646 On ch=1 n=f5 v=0
1405651 On ch=1 n=d5 v=0
1405666 On ch=1 n=g#4 v=0
1405691 On ch=1 n=g#5 v=0
1405736 On ch=1 n=g#6 v=0
1405911 Par ch=1 c=64 v=88
1405931 On ch=1 n=g6 v=83
1405931 Par ch=1 c=64 v=0
1405951 On ch=1 n=g5 v=56
1405961 On ch=1 n=c4 v=72
1406011 On ch=1 n=c4 v=0
1406061 Par ch=1 c=64 v=127
1406301 On ch=1 n=g4 v=48
1406306 On ch=1 n=c5 v=48
1406306 On ch=1 n=e5 v=44
1406351 On ch=1 n=g4 v=0
1406356 On ch=1 n=c5 v=0
1406361 On ch=1 n=e5 v=0
1406366 On ch=1 n=g5 v=0
1406506 On ch=1 n=g6 v=0
1406661 On ch=1 n=e5 v=46
1406666 On ch=1 n=g4 v=46
1406671 On ch=1 n=c5 v=45
1406711 On ch=1 n=g4 v=0
1406711 On ch=1 n=e5 v=0
1406721 On ch=1 n=c5 v=0
1407001 On ch=1 n=c7 v=83
1407021 On ch=1 n=c6 v=67
1407026 On ch=1 n=e4 v=71
1407071 Par ch=1 c=64 v=88
1407091 Par ch=1 c=64 v=0
1407221 Par ch=1 c=64 v=88
1407241 Par ch=1 c=64 v=127
1407251 On ch=1 n=c7 v=0
1407271 On ch=1 n=c6 v=0
1407346 On ch=1 n=e4 v=0
1407371 On ch=1 n=a#4 v=44
1407386 On ch=1 n=c5 v=51
1407431 On ch=1 n=c5 v=0
1407461 On ch=1 n=a#4 v=0
1407521 On ch=1 n=a#6 v=82
1407521 On ch=1 n=a#5 v=65
1407581 On ch=1 n=a#5 v=0
1407601 On ch=1 n=a#6 v=0
1407686 On ch=1 n=a#4 v=54
1407706 On ch=1 n=g6 v=81
1407716 On ch=1 n=g5 v=68
1407721 On ch=1 n=c5 v=47
1407746 On ch=1 n=g6 v=0
1407751 On ch=1 n=g5 v=0
1407766 On ch=1 n=c5 v=0
1407851 On ch=1 n=a6 v=83
1407861 On ch=1 n=a5 v=71
1407891 On ch=1 n=a6 v=0
1407891 On ch=1 n=a#4 v=0
1407901 On ch=1 n=a5 v=0
1408066 On ch=1 n=f6 v=82
1408066 On ch=1 n=f5 v=62
1408071 On ch=1 n=f4 v=62
1408076 Par ch=1 c=64 v=72
1408096 Par ch=1 c=64 v=24
1408116 Par ch=1 c=64 v=0
1408366 Par ch=1 c=64 v=40
1408386 Par ch=1 c=64 v=88
1408406 Par ch=1 c=64 v=127
1408416 On ch=1 n=a4 v=41
1408416 On ch=1 n=c5 v=44
1408491 On ch=1 n=c5 v=0
1408506 On ch=1 n=a4 v=0
1408551 On ch=1 n=f4 v=0
1408686 On ch=1 n=f5 v=0
1408706 On ch=1 n=f6 v=0
1408746 On ch=1 n=a4 v=54
1408746 On ch=1 n=c5 v=52
1408841 On ch=1 n=a4 v=0
1408846 On ch=1 n=c5 v=0
1409116 On ch=1 n=d#6 v=70
1409131 On ch=1 n=d#5 v=44
1409161 Par ch=1 c=64 v=88
1409181 On ch=1 n=a4 v=40
1409181 Par ch=1 c=64 v=0
1409311 On ch=1 n=d#5 v=0
1409316 Par ch=1 c=64 v=88
1409336 Par ch=1 c=64 v=127
1409366 On ch=1 n=d#6 v=0
1409491 On ch=1 n=f5 v=43
1409491 On ch=1 n=c5 v=41
1409601 On ch=1 n=f5 v=0
1409616 On ch=1 n=c5 v=0
1409661 On ch=1 n=a4 v=0
1409861 On ch=1 n=f5 v=45
1409871 On ch=1 n=a4 v=36
1409916 On ch=1 n=f5 v=0
1409946 On ch=1 n=a4 v=0
1410336 On ch=1 n=c4 v=78
1410336 On ch=1 n=c3 v=63
1410361 Par ch=1 c=64 v=72
1410381 Par ch=1 c=64 v=0
1410496 Par ch=1 c=64 v=88
1410516 Par ch=1 c=64 v=127
1410716 On ch=1 n=a4 v=60
1410801 On ch=1 n=a4 v=0
1410986 On ch=1 n=c3 v=0
1411031 On ch=1 n=c4 v=0
1411046 On ch=1 n=c6 v=55
1411051 On ch=1 n=a5 v=46
1411061 On ch=1 n=f5 v=42
1411201 On ch=1 n=c6 v=0
1411366 On ch=1 n=a5 v=0
1411376 On ch=1 n=f4 v=87
1411386 Par ch=1 c=64 v=88
1411391 On ch=1 n=f3 v=67
1411406 Par ch=1 c=64 v=0
1411506 Par ch=1 c=64 v=72
1411526 Par ch=1 c=64 v=127
1411586 On ch=1 n=f5 v=0
1411726 On ch=1 n=a4 v=60
1411761 On ch=1 n=f4 v=0
1411796 On ch=1 n=f3 v=0
1411811 On ch=1 n=a4 v=0
1411896 On ch=1 n=d#4 v=81
1411906 On ch=1 n=d#3 v=62
1411936 On ch=1 n=d#3 v=0
1411961 On ch=1 n=d#4 v=0
1412086 On ch=1 n=c4 v=72
1412096 On ch=1 n=c6 v=64
1412106 On ch=1 n=f5 v=50
1412106 On ch=1 n=c3 v=38
1412111 On ch=1 n=a5 v=44
1412131 On ch=1 n=c4 v=0
1412151 On ch=1 n=c3 v=0
1412196 On ch=1 n=c6 v=0
1412201 On ch=1 n=a5 v=0
1412241 Par ch=1 c=64 v=104
1412246 On ch=1 n=c#4 v=82
1412251 On ch=1 n=c#3 v=68
1412261 Par ch=1 c=64 v=88
1412281 Par ch=1 c=64 v=56
1412296 Par ch=1 c=64 v=40
1412306 On ch=1 n=c#3 v=0
1412306 On ch=1 n=c#4 v=0
1412316 Par ch=1 c=64 v=24
1412336 Par ch=1 c=64 v=0
1412451 On ch=1 n=a#3 v=86
1412456 On ch=1 n=a#2 v=70
1412571 Par ch=1 c=64 v=24
1412591 Par ch=1 c=64 v=72
1412611 Par ch=1 c=64 v=127
1412681 On ch=1 n=f5 v=0
1412811 On ch=1 n=a#4 v=67
1412931 On ch=1 n=a#4 v=0
1413146 On ch=1 n=c#6 v=55
1413156 On ch=1 n=f5 v=59
1413161 On ch=1 n=a#5 v=46
1413201 On ch=1 n=f5 v=0
1413221 On ch=1 n=c#6 v=0
1413231 On ch=1 n=a#2 v=0
1413231 On ch=1 n=a#3 v=0
1413236 On ch=1 n=a#5 v=0
1413496 On ch=1 n=g#3 v=87
1413506 On ch=1 n=g#2 v=69
1413616 Par ch=1 c=64 v=40
1413636 Par ch=1 c=64 v=0
1413731 Par ch=1 c=64 v=40
1413751 Par ch=1 c=64 v=104
1413771 Par ch=1 c=64 v=127
1413851 On ch=1 n=a#4 v=64
1413991 On ch=1 n=a#4 v=0
1414001 On ch=1 n=g#3 v=0
1414006 On ch=1 n=g#2 v=0
1414206 On ch=1 n=c#6 v=53
1414221 On ch=1 n=a#5 v=48
1414231 On ch=1 n=e5 v=51
1414296 On ch=1 n=e5 v=0
1414341 On ch=1 n=c#6 v=0
1414356 On ch=1 n=a#5 v=0
1414556 On ch=1 n=f#2 v=64
1414566 On ch=1 n=f#3 v=81
1414566 Par ch=1 c=64 v=56
1414581 Par ch=1 c=64 v=0
1414681 Par ch=1 c=64 v=72
1414696 Par ch=1 c=64 v=127
1414881 On ch=1 n=f#2 v=0
1414901 On ch=1 n=f#3 v=0
1414931 On ch=1 n=a#4 v=59
1415016 On ch=1 n=a#4 v=0
1415276 On ch=1 n=c#6 v=65
1415286 On ch=1 n=a4 v=70
1415291 On ch=1 n=d#5 v=57
1415301 On ch=1 n=a3 v=68
1415321 On ch=1 n=a4 v=0
1415371 On ch=1 n=a3 v=0
1415441 On ch=1 n=c#6 v=0
1415661 On ch=1 n=g#3 v=82
1415666 On ch=1 n=g#2 v=71
1415671 Par ch=1 c=64 v=56
1415686 Par ch=1 c=64 v=0
1415806 Par ch=1 c=64 v=56
1415821 Par ch=1 c=64 v=127
1415896 On ch=1 n=d#5 v=0
1416041 On ch=1 n=c5 v=71
1416076 On ch=1 n=g#3 v=0
1416086 On ch=1 n=g#2 v=0
1416146 On ch=1 n=c5 v=0
1416211 On ch=1 n=f#3 v=73
1416221 On ch=1 n=f#2 v=61
1416276 On ch=1 n=f#3 v=0
1416286 On ch=1 n=f#2 v=0
1416311 Par ch=1 c=64 v=104
1416326 Par ch=1 c=64 v=24
1416346 Par ch=1 c=64 v=0
1416396 On ch=1 n=d#5 v=55
1416396 On ch=1 n=c6 v=71
1416396 On ch=1 n=d#2 v=77
1416396 On ch=1 n=d#3 v=79
1416421 Par ch=1 c=64 v=72
1416441 Par ch=1 c=64 v=127
1416451 On ch=1 n=d#3 v=0
1416456 On ch=1 n=d#2 v=0
1416506 On ch=1 n=d#5 v=0
1416586 On ch=1 n=c6 v=0
1416591 On ch=1 n=f3 v=81
1416596 On ch=1 n=f2 v=66
1416631 On ch=1 n=f2 v=0
1416656 On ch=1 n=f3 v=0
1416836 On ch=1 n=c#3 v=82
1416841 On ch=1 n=c#2 v=72
1416851 Par ch=1 c=64 v=72
1416871 Par ch=1 c=64 v=0
1417041 On ch=1 n=c#2 v=0
1417061 Par ch=1 c=64 v=127
1417066 On ch=1 n=c#3 v=0
1417326 On ch=1 n=c#6 v=77
1417336 On ch=1 n=g#4 v=34
1417346 On ch=1 n=f5 v=63
1417351 On ch=1 n=c#4 v=29
1417446 On ch=1 n=g#4 v=0
1417461 On ch=1 n=c#4 v=0
1417476 On ch=1 n=f5 v=0
1417576 On ch=1 n=c#6 v=0
1417681 On ch=1 n=d#6 v=86
1417701 On ch=1 n=f5 v=64
1417716 On ch=1 n=c#4 v=51
1417721 On ch=1 n=g#4 v=44
1417776 On ch=1 n=g#4 v=0
1417791 On ch=1 n=c#4 v=0
1417806 On ch=1 n=f5 v=0
1417961 On ch=1 n=d#6 v=0
1418006 On ch=1 n=f6 v=94
1418016 On ch=1 n=f5 v=69
1418036 On ch=1 n=c#4 v=60
1418036 On ch=1 n=g#4 v=58
1418101 On ch=1 n=g#4 v=0
1418106 On ch=1 n=f5 v=0
1418121 On ch=1 n=c#4 v=0
1418191 On ch=1 n=f6 v=0
1418336 On ch=1 n=f#6 v=87
1418361 On ch=1 n=f5 v=67
1418361 On ch=1 n=g#4 v=61
1418371 On ch=1 n=c#4 v=60
1418411 On ch=1 n=f5 v=0
1418441 On ch=1 n=g#4 v=0
1418461 On ch=1 n=c#4 v=0
1418581 On ch=1 n=f#6 v=0
1418621 On ch=1 n=f5 v=70
1418671 On ch=1 n=g#4 v=61
1418696 On ch=1 n=c#4 v=47
1418721 On ch=1 n=g6 v=92
1418726 On ch=1 n=f5 v=0
1418736 On ch=1 n=c#4 v=0
1418736 On ch=1 n=g#4 v=0
1418821 On ch=1 n=g6 v=0
1419056 On ch=1 n=c#3 v=48
1419061 On ch=1 n=f#5 v=74
1419171 Par ch=1 c=64 v=88
1419186 On ch=1 n=g#6 v=92
1419191 Par ch=1 c=64 v=24
1419206 On ch=1 n=g#3 v=29
1419211 Par ch=1 c=64 v=0
1419311 On ch=1 n=c#3 v=0
1419326 On ch=1 n=g#3 v=0
1419326 Par ch=1 c=64 v=40
1419346 Par ch=1 c=64 v=127
1419411 On ch=1 n=f#5 v=0
1419516 On ch=1 n=g#6 v=0
1419651 On ch=1 n=f#5 v=48
1419656 On ch=1 n=g#4 v=49
1419691 On ch=1 n=d#5 v=25
1419746 On ch=1 n=d#5 v=0
1419746 On ch=1 n=g#4 v=0
1419766 On ch=1 n=f#5 v=0
1419976 On ch=1 n=c6 v=83
1419981 On ch=1 n=f#5 v=34
1420006 On ch=1 n=c5 v=62
1420011 On ch=1 n=g#4 v=33
1420021 On ch=1 n=d#5 v=27
1420086 On ch=1 n=d#5 v=0
1420096 On ch=1 n=g#4 v=0
1420116 On ch=1 n=f#5 v=0
1420311 On ch=1 n=c5 v=0
1420311 On ch=1 n=f#5 v=58
1420321 On ch=1 n=g#4 v=46
1420326 On ch=1 n=d#5 v=39
1420381 On ch=1 n=d#5 v=0
1420381 On ch=1 n=g#4 v=0
1420441 On ch=1 n=f#5 v=0
1420501 On ch=1 n=c6 v=0
1420626 On ch=1 n=b5 v=75
1420636 On ch=1 n=b4 v=57
1420646 On ch=1 n=f#5 v=38
1420651 On ch=1 n=g#4 v=37
1420676 On ch=1 n=d#5 v=26
1420746 On ch=1 n=d#5 v=0
1420771 On ch=1 n=g#4 v=0
1420771 On ch=1 n=f#5 v=0
1420771 On ch=1 n=b4 v=0
1420976 On ch=1 n=f#5 v=60
1420991 On ch=1 n=g#4 v=46
1420991 On ch=1 n=d#5 v=44
1421036 On ch=1 n=d#5 v=0
1421041 On ch=1 n=f#5 v=0
1421056 On ch=1 n=b5 v=0
1421066 On ch=1 n=g#4 v=0
1421156 On ch=1 n=c6 v=87
1421166 On ch=1 n=c5 v=68
1421206 On ch=1 n=c5 v=0
1421231 On ch=1 n=c6 v=0
1421351 On ch=1 n=c#6 v=85
1421356 On ch=1 n=c#5 v=55
1421361 Par ch=1 c=64 v=40
1421381 Par ch=1 c=64 v=0
1421396 On ch=1 n=c#4 v=56
1421436 On ch=1 n=c#5 v=0
1421491 On ch=1 n=c#4 v=0
1421516 Par ch=1 c=64 v=56
1421536 Par ch=1 c=64 v=127
1421736 On ch=1 n=g#5 v=62
1421756 On ch=1 n=f5 v=52
1421756 On ch=1 n=g#4 v=49
1421756 On ch=1 n=c#5 v=42
1421851 On ch=1 n=f5 v=0
1421871 On ch=1 n=c#5 v=0
1421906 On ch=1 n=g#4 v=0
1422041 On ch=1 n=g#5 v=0
1422076 Par ch=1 c=64 v=88
1422091 On ch=1 n=g5 v=55
1422096 Par ch=1 c=64 v=24
1422101 On ch=1 n=e5 v=52
1422101 On ch=1 n=g4 v=52
1422111 On ch=1 n=c#5 v=34
1422116 Par ch=1 c=64 v=0
1422136 Par ch=1 c=64 v=24
1422156 Par ch=1 c=64 v=56
1422176 Par ch=1 c=64 v=104
1422196 On ch=1 n=e5 v=0
1422196 Par ch=1 c=64 v=127
1422211 On ch=1 n=c#5 v=0
1422211 On ch=1 n=g4 v=0
1422326 On ch=1 n=g5 v=0
1422406 Par ch=1 c=64 v=72
1422421 On ch=1 n=c#6 v=0
1422426 Par ch=1 c=64 v=0
1422431 On ch=1 n=g#5 v=60
1422431 On ch=1 n=c#5 v=45
1422436 On ch=1 n=g#4 v=44
1422436 On ch=1 n=f5 v=44
1422486 Par ch=1 c=64 v=24
1422506 Par ch=1 c=64 v=72
1422516 On ch=1 n=f5 v=0
1422526 Par ch=1 c=64 v=127
1422546 On ch=1 n=g#4 v=0
1422546 On ch=1 n=c#5 v=0
1422551 On ch=1 n=g#5 v=0
1422621 On ch=1 n=g#5 v=64
1422746 On ch=1 n=g#5 v=0
1422771 On ch=1 n=c#6 v=58
1422776 On ch=1 n=f#5 v=40
1422796 Par ch=1 c=64 v=104
1422806 On ch=1 n=a#4 v=31
1422816 On ch=1 n=c#5 v=25
1422816 Par ch=1 c=64 v=24
1422836 Par ch=1 c=64 v=0
1422951 Par ch=1 c=64 v=104
1422956 On ch=1 n=f#5 v=0
1422971 On ch=1 n=c#5 v=0
1422971 On ch=1 n=a#4 v=0
1422971 Par ch=1 c=64 v=127
1423176 On ch=1 n=c#5 v=36
1423181 On ch=1 n=g#5 v=53
1423181 On ch=1 n=f5 v=52
1423196 On ch=1 n=g#4 v=39
1423231 On ch=1 n=c#6 v=0
1423241 On ch=1 n=f5 v=0
1423261 On ch=1 n=g#5 v=0
1423261 On ch=1 n=c#5 v=0
1423296 On ch=1 n=g#4 v=0
1423591 Par ch=1 c=64 v=104
1423606 Par ch=1 c=64 v=24
1423621 On ch=1 n=c7 v=102
1423626 On ch=1 n=c6 v=92
1423626 Par ch=1 c=64 v=0
1423636 On ch=1 n=f#3 v=68
1423646 On ch=1 n=f#4 v=71
1423701 On ch=1 n=f#4 v=0
1423706 On ch=1 n=f#3 v=0
1423726 Par ch=1 c=64 v=72
1423741 Par ch=1 c=64 v=127
1424011 On ch=1 n=c5 v=81
1424011 On ch=1 n=e4 v=55
1424026 On ch=1 n=a#4 v=59
1424061 On ch=1 n=c6 v=0
1424071 On ch=1 n=e4 v=0
1424106 On ch=1 n=a#4 v=0
1424131 On ch=1 n=c5 v=0
1424181 On ch=1 n=c7 v=0
1424356 On ch=1 n=e4 v=61
1424356 On ch=1 n=c5 v=74
1424356 On ch=1 n=a#4 v=53
1424426 On ch=1 n=c5 v=0
1424426 On ch=1 n=e4 v=0
1424431 On ch=1 n=a#4 v=0
1424701 On ch=1 n=f7 v=107
1424706 On ch=1 n=f6 v=93
1424726 On ch=1 n=f3 v=68
1424731 Par ch=1 c=64 v=40
1424741 On ch=1 n=f4 v=71
1424751 Par ch=1 c=64 v=0
1424801 On ch=1 n=f3 v=0
1424836 On ch=1 n=f4 v=0
1424846 Par ch=1 c=64 v=56
1424866 Par ch=1 c=64 v=127
1425046 On ch=1 n=f7 v=0
1425066 On ch=1 n=f6 v=0
1425066 On ch=1 n=c5 v=68
1425071 On ch=1 n=f4 v=61
1425071 On ch=1 n=a4 v=54
1425136 On ch=1 n=a4 v=0
1425146 On ch=1 n=c5 v=0
1425156 On ch=1 n=f4 v=0
1425221 On ch=1 n=d#7 v=85
1425236 On ch=1 n=d#6 v=84
1425301 On ch=1 n=d#6 v=0
1425311 On ch=1 n=d#7 v=0
1425381 On ch=1 n=a4 v=62
1425391 On ch=1 n=c5 v=58
1425401 On ch=1 n=f4 v=53
1425416 On ch=1 n=c7 v=89
1425421 On ch=1 n=c6 v=83
1425426 On ch=1 n=c5 v=0
1425431 On ch=1 n=a4 v=0
1425446 On ch=1 n=f4 v=0
1425456 On ch=1 n=c6 v=0
1425481 On ch=1 n=c7 v=0
1425566 On ch=1 n=c#7 v=92
1425571 On ch=1 n=c#6 v=91
1425641 On ch=1 n=c#6 v=0
1425646 On ch=1 n=c#7 v=0
1425736 Par ch=1 c=64 v=24
1425756 Par ch=1 c=64 v=0
1425776 On ch=1 n=a#6 v=81
1425786 On ch=1 n=a#5 v=81
1425791 On ch=1 n=a#2 v=63
1425806 On ch=1 n=a#3 v=68
1425841 On ch=1 n=a#5 v=0
1425856 On ch=1 n=a#2 v=0
1425856 Par ch=1 c=64 v=104
1425866 On ch=1 n=a#3 v=0
1425876 Par ch=1 c=64 v=127
1425881 On ch=1 n=a#6 v=0
1426181 On ch=1 n=c#5 v=42
1426186 On ch=1 n=a#4 v=33
1426196 On ch=1 n=f4 v=47
1426231 On ch=1 n=a#4 v=0
1426261 On ch=1 n=c#5 v=0
1426276 On ch=1 n=f4 v=0
1426506 On ch=1 n=c#5 v=65
1426511 On ch=1 n=a#4 v=51
1426541 On ch=1 n=f4 v=40
1426556 On ch=1 n=a#4 v=0
1426576 On ch=1 n=c#5 v=0
1426581 On ch=1 n=f4 v=0
1426881 Par ch=1 c=64 v=104
1426901 On ch=1 n=g#4 v=68
1426901 Par ch=1 c=64 v=0
1426921 On ch=1 n=g#3 v=70
1426976 On ch=1 n=g#3 v=0
1426981 On ch=1 n=g#4 v=0
1426996 Par ch=1 c=64 v=56
1427016 Par ch=1 c=64 v=127
1427301 On ch=1 n=f5 v=57
1427306 On ch=1 n=c#5 v=39
1427316 On ch=1 n=g#4 v=26
1427391 On ch=1 n=c#5 v=0
1427391 On ch=1 n=f5 v=0
1427441 On ch=1 n=g#4 v=0
1427696 On ch=1 n=f5 v=62
1427716 On ch=1 n=c#5 v=43
1427716 On ch=1 n=g#4 v=40
1427741 On ch=1 n=f5 v=0
1427751 On ch=1 n=c#5 v=0
1427791 On ch=1 n=g#4 v=0
1428121 On ch=1 n=a#6 v=96
1428126 On ch=1 n=a#5 v=83
1428136 Par ch=1 c=64 v=40
1428156 On ch=1 n=g3 v=64
1428161 Par ch=1 c=64 v=0
1428166 On ch=1 n=g4 v=62
1428201 On ch=1 n=g3 v=0
1428256 On ch=1 n=g4 v=0
1428276 Par ch=1 c=64 v=127
1428391 On ch=1 n=a#6 v=0
1428396 On ch=1 n=a#5 v=0
1428506 On ch=1 n=c#5 v=64
1428516 On ch=1 n=a#4 v=48
1428531 On ch=1 n=d#4 v=56
1428561 On ch=1 n=a#4 v=0
1428561 Par ch=1 c=64 v=104
1428586 On ch=1 n=c#5 v=0
1428586 Par ch=1 c=64 v=56
1428601 On ch=1 n=d#4 v=0
1428601 Par ch=1 c=64 v=24
1428621 Par ch=1 c=64 v=0
1428856 On ch=1 n=c#5 v=62
1428861 On ch=1 n=d#6 v=89
1428871 On ch=1 n=d#5 v=77
1428876 On ch=1 n=a#4 v=38
1428876 On ch=1 n=d#4 v=50
1428896 On ch=1 n=c#5 v=0
1428896 Par ch=1 c=64 v=56
1428911 On ch=1 n=a#4 v=0
1428911 Par ch=1 c=64 v=104
1428931 Par ch=1 c=64 v=127
1428946 On ch=1 n=d#4 v=0
1429046 Par ch=1 c=64 v=56
1429071 Par ch=1 c=64 v=0
1429146 Par ch=1 c=64 v=40
1429166 Par ch=1 c=64 v=127
1429211 On ch=1 n=f#4 v=57
1429216 On ch=1 n=f#3 v=46
1429251 On ch=1 n=f#3 v=0
1429261 On ch=1 n=f#4 v=0
1429276 On ch=1 n=d#5 v=0
1429296 On ch=1 n=d#6 v=0
1429476 Par ch=1 c=64 v=72
1429496 Par ch=1 c=64 v=0
1429541 On ch=1 n=d6 v=90
1429546 On ch=1 n=d5 v=79
1429561 On ch=1 n=d#4 v=62
1429566 On ch=1 n=g#4 v=54
1429571 On ch=1 n=c5 v=64
1429626 On ch=1 n=c5 v=0
1429631 Par ch=1 c=64 v=56
1429646 On ch=1 n=g#4 v=0
1429651 Par ch=1 c=64 v=127
1429661 On ch=1 n=d#4 v=0
1429691 On ch=1 n=d5 v=0
1429771 On ch=1 n=d6 v=0
1429876 On ch=1 n=g#4 v=62
1429881 On ch=1 n=d#4 v=62
1429881 On ch=1 n=c5 v=68
1429911 On ch=1 n=c5 v=0
1429911 On ch=1 n=g#4 v=0
1429951 On ch=1 n=d#4 v=0
1430046 On ch=1 n=d#6 v=82
1430046 On ch=1 n=d#5 v=62
1430091 On ch=1 n=d#5 v=0
1430116 Par ch=1 c=64 v=56
1430126 On ch=1 n=d#6 v=0
1430136 Par ch=1 c=64 v=0
1430191 On ch=1 n=g#6 v=89
1430201 On ch=1 n=g#5 v=77
1430226 On ch=1 n=f3 v=64
1430231 Par ch=1 c=64 v=72
1430251 On ch=1 n=g#5 v=0
1430251 On ch=1 n=g#6 v=0
1430251 Par ch=1 c=64 v=127
1430271 On ch=1 n=f3 v=0
1430276 On ch=1 n=f4 v=24
1430321 On ch=1 n=f4 v=0
1430421 Par ch=1 c=64 v=104
1430441 Par ch=1 c=64 v=72
1430461 Par ch=1 c=64 v=56
1430481 Par ch=1 c=64 v=24
1430501 Par ch=1 c=64 v=0
1430556 On ch=1 n=g#4 v=64
1430566 On ch=1 n=f4 v=67
1430606 On ch=1 n=f4 v=0
1430626 On ch=1 n=g#4 v=0
1430876 On ch=1 n=f4 v=59
1430876 On ch=1 n=g#4 v=44
1430881 On ch=1 n=c#6 v=84
1430891 On ch=1 n=c#5 v=73
1430906 Par ch=1 c=64 v=56
1430916 On ch=1 n=f4 v=0
1430921 On ch=1 n=g#4 v=0
1430926 Par ch=1 c=64 v=104
1430951 Par ch=1 c=64 v=127
1431081 Par ch=1 c=64 v=72
1431101 Par ch=1 c=64 v=0
1431181 Par ch=1 c=64 v=72
1431196 Par ch=1 c=64 v=127
1431211 On ch=1 n=e3 v=66
1431231 On ch=1 n=e4 v=71
1431271 On ch=1 n=c#5 v=0
1431281 On ch=1 n=e3 v=0
1431286 On ch=1 n=c#6 v=0
1431311 On ch=1 n=e4 v=0
1431531 Par ch=1 c=64 v=72
1431546 Par ch=1 c=64 v=0
1431571 On ch=1 n=c6 v=87
1431586 On ch=1 n=c5 v=72
1431596 On ch=1 n=g#4 v=55
1431601 On ch=1 n=e4 v=65
1431636 On ch=1 n=e4 v=0
1431661 Par ch=1 c=64 v=72
1431676 On ch=1 n=g#4 v=0
1431681 Par ch=1 c=64 v=127
1431691 On ch=1 n=c5 v=0
1431731 On ch=1 n=c6 v=0
1431876 On ch=1 n=e4 v=67
1431876 On ch=1 n=g#4 v=54
1431916 On ch=1 n=e4 v=0
1431931 On ch=1 n=g#4 v=0
1432051 On ch=1 n=c#5 v=65
1432051 Par ch=1 c=64 v=104
1432056 On ch=1 n=c#6 v=80
1432071 Par ch=1 c=64 v=88
1432106 On ch=1 n=c#5 v=0
1432111 Par ch=1 c=64 v=56
1432121 On ch=1 n=c#6 v=0
1432126 Par ch=1 c=64 v=0
1432216 On ch=1 n=f#6 v=86
1432216 On ch=1 n=f#5 v=81
1432226 On ch=1 n=d#3 v=65
1432241 On ch=1 n=d#4 v=60
1432246 Par ch=1 c=64 v=72
1432261 Par ch=1 c=64 v=127
1432276 On ch=1 n=f#6 v=0
1432281 On ch=1 n=f#5 v=0
1432286 On ch=1 n=d#4 v=0
1432306 On ch=1 n=d#3 v=0
1432476 Par ch=1 c=64 v=88
1432496 Par ch=1 c=64 v=40
1432516 Par ch=1 c=64 v=0
1432551 On ch=1 n=f#4 v=64
1432581 On ch=1 n=d#4 v=28
1432616 On ch=1 n=d#4 v=0
1432621 On ch=1 n=f#4 v=0
1432891 On ch=1 n=f#4 v=53
1432891 On ch=1 n=d#4 v=65
1432906 Par ch=1 c=64 v=24
1432911 On ch=1 n=a#5 v=77
1432916 On ch=1 n=a#4 v=64
1432921 On ch=1 n=d#4 v=0
1432921 On ch=1 n=f#4 v=0
1432921 Par ch=1 c=64 v=72
1432941 Par ch=1 c=64 v=104
1432961 Par ch=1 c=64 v=127
1433056 Par ch=1 c=64 v=104
1433076 Par ch=1 c=64 v=56
1433096 Par ch=1 c=64 v=0
1433211 Par ch=1 c=64 v=56
1433231 Par ch=1 c=64 v=127
1433241 On ch=1 n=g#3 v=79
1433251 On ch=1 n=g#2 v=62
1433256 On ch=1 n=a#4 v=0
1433301 On ch=1 n=g#2 v=0
1433306 On ch=1 n=g#3 v=0
1433321 On ch=1 n=a#5 v=0
1433521 Par ch=1 c=64 v=104
1433541 Par ch=1 c=64 v=56
1433561 Par ch=1 c=64 v=0
1433591 On ch=1 n=b5 v=80
1433601 On ch=1 n=b4 v=66
1433606 On ch=1 n=f#4 v=45
1433611 On ch=1 n=d#4 v=48
1433656 On ch=1 n=d#4 v=0
1433656 Par ch=1 c=64 v=40
1433666 On ch=1 n=f#4 v=0
1433676 Par ch=1 c=64 v=104
1433696 Par ch=1 c=64 v=127
1433801 On ch=1 n=b4 v=0
1433891 On ch=1 n=f#4 v=68
1433901 On ch=1 n=b5 v=0
1433916 On ch=1 n=d#4 v=39
1433946 On ch=1 n=d#4 v=0
1433956 On ch=1 n=f#4 v=0
1434066 On ch=1 n=c6 v=82
1434071 On ch=1 n=c5 v=64
1434081 Par ch=1 c=64 v=104
1434101 Par ch=1 c=64 v=72
1434111 On ch=1 n=c5 v=0
1434121 Par ch=1 c=64 v=40
1434141 On ch=1 n=c6 v=0
1434141 Par ch=1 c=64 v=0
1434236 On ch=1 n=c#5 v=62
1434241 On ch=1 n=c#6 v=82
1434241 Par ch=1 c=64 v=56
1434251 On ch=1 n=c#3 v=57
1434261 On ch=1 n=c#4 v=57
1434261 Par ch=1 c=64 v=127
1434286 On ch=1 n=c#5 v=0
1434301 On ch=1 n=c#4 v=0
1434306 On ch=1 n=c#3 v=0
1434311 On ch=1 n=c#6 v=0
1434451 Par ch=1 c=64 v=88
1434471 Par ch=1 c=64 v=72
1434491 Par ch=1 c=64 v=56
1434511 Par ch=1 c=64 v=24
1434546 Par ch=1 c=64 v=0
1434611 On ch=1 n=g#4 v=54
1434616 On ch=1 n=f5 v=65
1434631 On ch=1 n=f4 v=62
1434671 On ch=1 n=f4 v=0
1434701 On ch=1 n=f5 v=0
1434711 On ch=1 n=g#4 v=0
1434916 Par ch=1 c=64 v=40
1434921 On ch=1 n=g#4 v=65
1434936 On ch=1 n=c#7 v=96
1434936 On ch=1 n=f5 v=48
1434936 Par ch=1 c=64 v=88
1434941 On ch=1 n=f4 v=59
1434946 On ch=1 n=c#6 v=85
1434956 Par ch=1 c=64 v=127
1434976 On ch=1 n=f5 v=0
1434981 On ch=1 n=f4 v=0
1434996 On ch=1 n=g#4 v=0
1435206 Par ch=1 c=64 v=104
1435226 Par ch=1 c=64 v=24
1435246 Par ch=1 c=64 v=0
1435286 On ch=1 n=g#3 v=55
1435291 On ch=1 n=c#7 v=0
1435291 On ch=1 n=g#4 v=75
1435306 On ch=1 n=c#6 v=0
1435306 Par ch=1 c=64 v=40
1435316 On ch=1 n=g#3 v=0
1435326 Par ch=1 c=64 v=88
1435346 Par ch=1 c=64 v=127
1435356 On ch=1 n=g#4 v=0
1435616 Par ch=1 c=64 v=72
1435636 On ch=1 n=g6 v=93
1435636 Par ch=1 c=64 v=0
1435646 On ch=1 n=g5 v=83
1435656 On ch=1 n=f4 v=65
1435656 On ch=1 n=c#5 v=60
1435671 On ch=1 n=g#4 v=43
1435671 Par ch=1 c=64 v=24
1435691 Par ch=1 c=64 v=72
1435711 Par ch=1 c=64 v=127
1435716 On ch=1 n=g#4 v=0
1435716 On ch=1 n=g5 v=0
1435751 On ch=1 n=c#5 v=0
1435756 On ch=1 n=f4 v=0
1435781 On ch=1 n=g6 v=0
1435921 On ch=1 n=c#5 v=61
1435926 On ch=1 n=g#4 v=53
1435941 On ch=1 n=e4 v=55
1435976 On ch=1 n=e4 v=0
1435976 On ch=1 n=c#5 v=0
1435996 On ch=1 n=g#4 v=0
1436131 On ch=1 n=g#6 v=84
1436131 On ch=1 n=g#5 v=64
1436191 On ch=1 n=g#5 v=0
1436221 On ch=1 n=g#6 v=0
1436291 On ch=1 n=c6 v=46
1436291 On ch=1 n=c7 v=80
1436311 Par ch=1 c=64 v=40
1436331 On ch=1 n=c6 v=0
1436336 Par ch=1 c=64 v=0
1436361 On ch=1 n=c7 v=0
1436371 On ch=1 n=g3 v=62
1436381 On ch=1 n=a#6 v=87
1436391 On ch=1 n=a#5 v=89
1436396 On ch=1 n=g4 v=54
1436411 On ch=1 n=g3 v=0
1436426 Par ch=1 c=64 v=88
1436446 On ch=1 n=g4 v=0
1436451 On ch=1 n=a#5 v=0
1436451 Par ch=1 c=64 v=127
1436461 On ch=1 n=a#6 v=0
1436606 Par ch=1 c=64 v=104
1436621 Par ch=1 c=64 v=72
1436641 Par ch=1 c=64 v=56
1436661 Par ch=1 c=64 v=40
1436681 Par ch=1 c=64 v=24
1436701 Par ch=1 c=64 v=0
1436731 On ch=1 n=c#5 v=69
1436731 On ch=1 n=d#4 v=62
1436746 On ch=1 n=a#4 v=47
1436781 On ch=1 n=a#4 v=0
1436806 On ch=1 n=c#5 v=0
1436816 On ch=1 n=d#4 v=0
1437066 Par ch=1 c=64 v=40
1437086 Par ch=1 c=64 v=88
1437091 On ch=1 n=c#5 v=60
1437101 On ch=1 n=d#6 v=88
1437106 On ch=1 n=d#4 v=62
1437106 On ch=1 n=a#4 v=45
1437106 Par ch=1 c=64 v=127
1437111 On ch=1 n=d#5 v=73
1437121 On ch=1 n=c#5 v=0
1437136 On ch=1 n=a#4 v=0
1437146 On ch=1 n=d#4 v=0
1437261 Par ch=1 c=64 v=88
1437281 Par ch=1 c=64 v=0
1437376 Par ch=1 c=64 v=40
1437396 Par ch=1 c=64 v=127
1437411 On ch=1 n=f#4 v=63
1437416 On ch=1 n=f#3 v=57
1437451 On ch=1 n=f#3 v=0
1437481 On ch=1 n=f#4 v=0
1437526 On ch=1 n=d#5 v=0
1437546 On ch=1 n=d#6 v=0
1437706 Par ch=1 c=64 v=104
1437726 Par ch=1 c=64 v=24
1437746 Par ch=1 c=64 v=0
1437751 On ch=1 n=d6 v=89
1437761 On ch=1 n=d5 v=79
1437771 On ch=1 n=a4 v=62
1437776 On ch=1 n=c5 v=68
1437801 On ch=1 n=d#4 v=45
1437841 Par ch=1 c=64 v=88
1437861 On ch=1 n=d#4 v=0
1437861 Par ch=1 c=64 v=127
1437891 On ch=1 n=c5 v=0
1437921 On ch=1 n=a4 v=0
1437976 On ch=1 n=d5 v=0
1438106 On ch=1 n=g#4 v=64
1438111 On ch=1 n=d6 v=0
1438121 On ch=1 n=d#4 v=60
1438126 On ch=1 n=c5 v=66
1438156 On ch=1 n=c5 v=0
1438161 On ch=1 n=g#4 v=0
1438171 On ch=1 n=d#4 v=0
1438281 On ch=1 n=d#5 v=71
1438281 On ch=1 n=d#6 v=86
1438336 On ch=1 n=d#5 v=0
1438366 Par ch=1 c=64 v=72
1438376 On ch=1 n=d#6 v=0
1438386 Par ch=1 c=64 v=0
1438451 On ch=1 n=g#6 v=89
1438456 On ch=1 n=g#5 v=82
1438461 On ch=1 n=f3 v=68
1438476 On ch=1 n=f4 v=69
1438481 Par ch=1 c=64 v=56
1438501 Par ch=1 c=64 v=127
1438506 On ch=1 n=f3 v=0
1438506 On ch=1 n=g#5 v=0
1438506 On ch=1 n=g#6 v=0
1438556 On ch=1 n=f4 v=0
1438676 Par ch=1 c=64 v=88
1438691 Par ch=1 c=64 v=72
1438716 Par ch=1 c=64 v=40
1438736 Par ch=1 c=64 v=24
1438756 Par ch=1 c=64 v=0
1438776 On ch=1 n=f4 v=67
1438781 On ch=1 n=g#4 v=57
1438836 On ch=1 n=g#4 v=0
1438836 On ch=1 n=f4 v=0
1439101 On ch=1 n=g#4 v=56
1439116 On ch=1 n=c#6 v=80
1439116 On ch=1 n=f4 v=55
1439121 On ch=1 n=c#5 v=69
1439121 Par ch=1 c=64 v=88
1439141 Par ch=1 c=64 v=127
1439146 On ch=1 n=f4 v=0
1439151 On ch=1 n=g#4 v=0
1439331 Par ch=1 c=64 v=72
1439351 Par ch=1 c=64 v=0
1439446 On ch=1 n=e3 v=65
1439451 Par ch=1 c=64 v=40
1439471 Par ch=1 c=64 v=127
1439476 On ch=1 n=e4 v=65
1439491 On ch=1 n=e3 v=0
1439516 On ch=1 n=c#6 v=0
1439526 On ch=1 n=e4 v=0
1439531 On ch=1 n=c#5 v=0
1439681 Par ch=1 c=64 v=104
1439701 Par ch=1 c=64 v=40
1439721 Par ch=1 c=64 v=0
1439771 On ch=1 n=c6 v=87
1439781 On ch=1 n=c5 v=78
1439791 On ch=1 n=g#4 v=54
1439801 On ch=1 n=e4 v=61
1439836 On ch=1 n=e4 v=0
1439856 Par ch=1 c=64 v=88
1439871 On ch=1 n=g#4 v=0
1439876 Par ch=1 c=64 v=127
1439946 On ch=1 n=c5 v=0
1439966 On ch=1 n=c6 v=0
1440081 On ch=1 n=e4 v=69
1440086 On ch=1 n=g#4 v=50
1440116 On ch=1 n=e4 v=0
1440136 On ch=1 n=g#4 v=0
1440236 On ch=1 n=c#5 v=72
1440241 On ch=1 n=c#6 v=83
1440296 On ch=1 n=c#5 v=0
1440301 On ch=1 n=c#6 v=0
1440321 Par ch=1 c=64 v=104
1440341 Par ch=1 c=64 v=40
1440361 Par ch=1 c=64 v=0
1440406 On ch=1 n=f#5 v=81
1440411 On ch=1 n=f#6 v=88
1440421 On ch=1 n=d#3 v=61
1440446 On ch=1 n=d#4 v=59
1440456 Par ch=1 c=64 v=56
1440461 On ch=1 n=f#6 v=0
1440461 On ch=1 n=f#5 v=0
1440476 Par ch=1 c=64 v=127
1440491 On ch=1 n=d#4 v=0
1440506 On ch=1 n=d#3 v=0
1440671 Par ch=1 c=64 v=104
1440691 Par ch=1 c=64 v=72
1440711 Par ch=1 c=64 v=40
1440726 Par ch=1 c=64 v=0
1440746 On ch=1 n=f#4 v=55
1440746 On ch=1 n=d#4 v=57
1440826 On ch=1 n=d#4 v=0
1440826 On ch=1 n=f#4 v=0
1441076 Par ch=1 c=64 v=24
1441086 On ch=1 n=d#4 v=71
1441096 On ch=1 n=a#5 v=79
1441096 On ch=1 n=f#4 v=49
1441096 On ch=1 n=a#4 v=65
1441096 Par ch=1 c=64 v=72
1441116 Par ch=1 c=64 v=127
1441121 On ch=1 n=d#4 v=0
1441126 On ch=1 n=f#4 v=0
1441251 Par ch=1 c=64 v=104
1441271 Par ch=1 c=64 v=56
1441291 Par ch=1 c=64 v=0
1441406 Par ch=1 c=64 v=72
1441426 On ch=1 n=a#4 v=0
1441426 Par ch=1 c=64 v=127
1441431 On ch=1 n=g#3 v=80
1441436 On ch=1 n=g#2 v=62
1441466 On ch=1 n=g#2 v=0
1441496 On ch=1 n=g#3 v=0
1441506 On ch=1 n=a#5 v=0
1441736 Par ch=1 c=64 v=72
1441756 Par ch=1 c=64 v=24
1441771 On ch=1 n=b5 v=77
1441771 Par ch=1 c=64 v=0
1441786 On ch=1 n=d#4 v=55
1441786 On ch=1 n=b4 v=56
1441786 On ch=1 n=f#4 v=40
1441856 On ch=1 n=d#4 v=0
1441871 On ch=1 n=f#4 v=0
1441871 Par ch=1 c=64 v=40
1441891 Par ch=1 c=64 v=88
1441911 Par ch=1 c=64 v=127
1441991 On ch=1 n=b4 v=0
1442096 On ch=1 n=d#4 v=71
1442106 On ch=1 n=f#4 v=43
1442121 On ch=1 n=b5 v=0
1442136 On ch=1 n=f#4 v=0
1442136 On ch=1 n=d#4 v=0
1442261 On ch=1 n=c6 v=82
1442271 On ch=1 n=c5 v=60
1442306 On ch=1 n=c5 v=0
1442341 On ch=1 n=c6 v=0
1442416 Par ch=1 c=64 v=72
1442431 Par ch=1 c=64 v=0
1442446 On ch=1 n=c#6 v=77
1442446 On ch=1 n=c#5 v=65
1442486 On ch=1 n=c#3 v=54
1442571 On ch=1 n=c#5 v=0
1442586 On ch=1 n=c#3 v=0
1442606 Par ch=1 c=64 v=88
1442621 On ch=1 n=c#6 v=0
1442626 Par ch=1 c=64 v=127
1442856 On ch=1 n=c#6 v=64
1442861 Par ch=1 c=64 v=104
1442871 On ch=1 n=f5 v=57
1442871 On ch=1 n=c#4 v=40
1442881 On ch=1 n=g#4 v=25
1442881 Par ch=1 c=64 v=24
1442896 Par ch=1 c=64 v=0
1442976 Par ch=1 c=64 v=72
1442986 On ch=1 n=g#4 v=0
1442986 On ch=1 n=c#4 v=0
1442996 Par ch=1 c=64 v=127
1443021 On ch=1 n=f5 v=0
1443076 On ch=1 n=c#6 v=0
1443196 On ch=1 n=d#6 v=77
1443216 On ch=1 n=f5 v=60
1443216 On ch=1 n=g#4 v=34
1443226 On ch=1 n=c#4 v=35
1443316 On ch=1 n=g#4 v=0
1443336 On ch=1 n=c#4 v=0
1443361 On ch=1 n=f5 v=0
1443476 On ch=1 n=d#6 v=0
1443526 On ch=1 n=f6 v=88
1443536 On ch=1 n=f5 v=69
1443551 On ch=1 n=g#4 v=49
1443566 On ch=1 n=c#4 v=46
1443631 On ch=1 n=f5 v=0
1443641 On ch=1 n=g#4 v=0
1443656 On ch=1 n=c#4 v=0
1443716 On ch=1 n=f6 v=0
1443861 On ch=1 n=f#6 v=89
1443876 On ch=1 n=f5 v=79
1443876 On ch=1 n=g#4 v=42
1443886 On ch=1 n=c#4 v=37
1443956 On ch=1 n=f5 v=0
1443961 On ch=1 n=c#4 v=0
1443971 On ch=1 n=g#4 v=0
1444126 On ch=1 n=f#6 v=0
1444196 On ch=1 n=g6 v=85
1444196 On ch=1 n=a#4 v=52
1444231 On ch=1 n=c#4 v=40
1444271 On ch=1 n=c#4 v=0
1444376 On ch=1 n=a#4 v=0
1444376 On ch=1 n=g6 v=0
1444451 On ch=1 n=f5 v=65
1444471 On ch=1 n=c#4 v=49
1444661 Par ch=1 c=64 v=104
1444681 Par ch=1 c=64 v=40
1444686 On ch=1 n=g#6 v=91
1444696 Par ch=1 c=64 v=0
1444706 On ch=1 n=b4 v=65
1444816 On ch=1 n=f5 v=0
1444816 Par ch=1 c=64 v=88
1444836 Par ch=1 c=64 v=127
1444906 On ch=1 n=c#4 v=0
1445006 On ch=1 n=g#6 v=0
1445376 On ch=1 n=b4 v=0
1445431 On ch=1 n=c#6 v=69
1445431 On ch=1 n=f5 v=18
1445466 On ch=1 n=c#4 v=35
1445551 On ch=1 n=c#4 v=0
1445771 On ch=1 n=c#4 v=47
1445861 On ch=1 n=c#4 v=0
1445901 On ch=1 n=c#6 v=0
1446076 On ch=1 n=c6 v=79
1446091 On ch=1 n=c#4 v=44
1446196 On ch=1 n=c#4 v=0
1446411 On ch=1 n=c#4 v=49
1446506 On ch=1 n=c#4 v=0
1446531 On ch=1 n=c6 v=0
1446581 On ch=1 n=c#6 v=78
1446591 On ch=1 n=f5 v=0
1446686 On ch=1 n=c#6 v=0
1446821 On ch=1 n=f#6 v=80
1446841 On ch=1 n=f#5 v=47
1446851 On ch=1 n=a#4 v=34
1446851 On ch=1 n=c#4 v=37
1446886 Par ch=1 c=64 v=72
1446906 Par ch=1 c=64 v=0
1447006 On ch=1 n=a#4 v=0
1447021 On ch=1 n=c#4 v=0
1447021 Par ch=1 c=64 v=56
1447041 Par ch=1 c=64 v=127
1447066 On ch=1 n=f#6 v=0
1447071 On ch=1 n=f#5 v=0
1447186 On ch=1 n=f#6 v=77
1447201 On ch=1 n=f#5 v=59
1447216 On ch=1 n=a4 v=49
1447221 On ch=1 n=c#4 v=40
1447311 On ch=1 n=a4 v=0
1447366 On ch=1 n=c#4 v=0
1447386 On ch=1 n=f#5 v=0
1447396 On ch=1 n=f#6 v=0
1447531 On ch=1 n=f6 v=85
1447536 On ch=1 n=a#4 v=47
1447551 On ch=1 n=f#5 v=53
1447551 On ch=1 n=c#4 v=46
1447671 On ch=1 n=c#4 v=0
1447696 On ch=1 n=a#4 v=0
1447706 On ch=1 n=f#5 v=0
1447716 On ch=1 n=f6 v=0
1447866 On ch=1 n=d#6 v=80
1447886 On ch=1 n=c5 v=74
1447886 On ch=1 n=c#4 v=64
1447886 On ch=1 n=f#5 v=47
1447981 On ch=1 n=c5 v=0
1448036 On ch=1 n=f#5 v=0
1448041 On ch=1 n=c#4 v=0
1448116 On ch=1 n=d#6 v=0
1448196 On ch=1 n=c#6 v=73
1448211 On ch=1 n=c#5 v=69
1448216 On ch=1 n=c#4 v=64
1448216 On ch=1 n=f#5 v=36
1448301 On ch=1 n=f#5 v=0
1448311 On ch=1 n=c#6 v=0
1448341 On ch=1 n=c#4 v=0
1448341 On ch=1 n=c#5 v=0
1448536 On ch=1 n=c6 v=83
1448546 On ch=1 n=f#5 v=61
1448551 On ch=1 n=d#5 v=69
1448576 On ch=1 n=c#4 v=47
1448646 On ch=1 n=f#5 v=0
1448656 On ch=1 n=c6 v=0
1448661 On ch=1 n=c#4 v=0
1448671 On ch=1 n=d#5 v=0
1448951 On ch=1 n=e5 v=66
1448951 On ch=1 n=a#5 v=70
1448976 On ch=1 n=g5 v=55
1449021 On ch=1 n=c#4 v=44
1449036 Par ch=1 c=64 v=40
1449056 Par ch=1 c=64 v=0
1449201 On ch=1 n=c#4 v=0
1449211 Par ch=1 c=64 v=127
1449346 On ch=1 n=g5 v=0
1449361 On ch=1 n=c#4 v=33
1449436 On ch=1 n=e5 v=0
1449451 On ch=1 n=a#5 v=0
1449491 On ch=1 n=c#4 v=0
1449681 On ch=1 n=g#5 v=63
1449696 On ch=1 n=f#5 v=46
1449701 On ch=1 n=c5 v=61
1449701 On ch=1 n=d#5 v=44
1449716 On ch=1 n=c#4 v=44
1449731 Par ch=1 c=64 v=88
1449751 Par ch=1 c=64 v=0
1449881 On ch=1 n=c#4 v=0
1449886 Par ch=1 c=64 v=72
1449906 Par ch=1 c=64 v=127
1450071 On ch=1 n=c#4 v=39
1450176 On ch=1 n=c#4 v=0
1450221 On ch=1 n=d#5 v=0
1450221 On ch=1 n=f#5 v=0
1450236 On ch=1 n=c5 v=0
1450236 On ch=1 n=g#5 v=0
1450361 On ch=1 n=g#5 v=67
1450366 On ch=1 n=d#5 v=58
1450391 On ch=1 n=c#4 v=34
1450511 On ch=1 n=c#4 v=0
1450701 On ch=1 n=c#4 v=58
1450801 On ch=1 n=c#4 v=0
1450801 On ch=1 n=d#5 v=0
1450901 On ch=1 n=g#5 v=0
1450901 On ch=1 n=c5 v=64
1450931 On ch=1 n=c5 v=0
1451081 On ch=1 n=g#4 v=39
1451086 On ch=1 n=g#5 v=70
1451091 On ch=1 n=c#4 v=41
1451106 Par ch=1 c=64 v=24
1451111 On ch=1 n=f5 v=60
1451126 Par ch=1 c=64 v=0
1451221 On ch=1 n=g#4 v=0
1451221 Par ch=1 c=64 v=127
1451241 On ch=1 n=c#4 v=0
1451296 On ch=1 n=g#5 v=0
1451301 On ch=1 n=f5 v=0
1451436 Par ch=1 c=64 v=104
1451441 On ch=1 n=c#6 v=69
1451446 On ch=1 n=c#4 v=45
1451456 On ch=1 n=f5 v=53
1451456 Par ch=1 c=64 v=0
1451461 On ch=1 n=c#5 v=33
1451551 Par ch=1 c=64 v=104
1451556 On ch=1 n=c#5 v=0
1451571 Par ch=1 c=64 v=127
1451581 On ch=1 n=f5 v=0
1451591 On ch=1 n=c#4 v=0
1451676 On ch=1 n=c#6 v=0
1451761 On ch=1 n=d#6 v=85
1451776 On ch=1 n=g#4 v=43
1451776 On ch=1 n=c#4 v=37
1451781 On ch=1 n=f5 v=68
1451861 On ch=1 n=g#4 v=0
1451871 On ch=1 n=f5 v=0
1451891 On ch=1 n=c#4 v=0
1452001 On ch=1 n=d#6 v=0
1452091 On ch=1 n=g#4 v=44
1452091 On ch=1 n=f6 v=87
1452101 On ch=1 n=f5 v=69
1452101 On ch=1 n=c#4 v=39
1452196 On ch=1 n=f5 v=0
1452211 On ch=1 n=g#4 v=0
1452216 On ch=1 n=c#4 v=0
1452271 On ch=1 n=f6 v=0
1452436 On ch=1 n=f#6 v=85
1452446 On ch=1 n=c#4 v=56
1452456 On ch=1 n=a#4 v=48
1452461 On ch=1 n=f5 v=66
1452531 On ch=1 n=f5 v=0
1452571 On ch=1 n=c#4 v=0
1452606 On ch=1 n=a#4 v=0
1452721 On ch=1 n=f#6 v=0
1452791 On ch=1 n=g6 v=92
1452816 On ch=1 n=c#4 v=58
1452821 On ch=1 n=b4 v=60
1452906 On ch=1 n=b4 v=0
1452916 On ch=1 n=c#4 v=0
1452971 On ch=1 n=g6 v=0
1453071 On ch=1 n=f5 v=70
1453091 On ch=1 n=c#4 v=50
1453121 Par ch=1 c=64 v=88
1453141 Par ch=1 c=64 v=0
1453236 Par ch=1 c=64 v=56
1453256 Par ch=1 c=64 v=127
1453306 On ch=1 n=f5 v=0
1453331 On ch=1 n=g#6 v=85
1453341 On ch=1 n=b4 v=59
1453461 On ch=1 n=c#4 v=0
1453551 On ch=1 n=g#6 v=0
1453711 On ch=1 n=c#4 v=33
1453736 On ch=1 n=f5 v=43
1453816 On ch=1 n=c#4 v=0
1453826 On ch=1 n=f5 v=0
1453951 On ch=1 n=b4 v=0
1454031 On ch=1 n=c#6 v=71
1454061 On ch=1 n=f5 v=45
1454061 On ch=1 n=b4 v=42
1454071 On ch=1 n=c#4 v=33
1454176 On ch=1 n=c#4 v=0
1454176 On ch=1 n=b4 v=0
1454386 On ch=1 n=b4 v=44
1454401 On ch=1 n=c#4 v=29
1454491 On ch=1 n=c#4 v=0
1454546 On ch=1 n=c#6 v=0
1454711 On ch=1 n=c6 v=80
1454721 On ch=1 n=c#4 v=45
1454816 On ch=1 n=c#4 v=0
1455041 On ch=1 n=c#4 v=55
1455131 On ch=1 n=c#4 v=0
1455151 On ch=1 n=b4 v=0
1455156 On ch=1 n=f5 v=0
1455181 On ch=1 n=c6 v=0
1455211 On ch=1 n=c#6 v=79
1455331 On ch=1 n=c#6 v=0
1455406 On ch=1 n=f#6 v=78
1455421 On ch=1 n=f#5 v=57
1455426 Par ch=1 c=64 v=56
1455431 On ch=1 n=a#4 v=45
1455441 On ch=1 n=c#4 v=44
1455446 Par ch=1 c=64 v=0
1455581 Par ch=1 c=64 v=88
1455586 On ch=1 n=c#4 v=0
1455601 Par ch=1 c=64 v=127
1455621 On ch=1 n=a#4 v=0
1455621 On ch=1 n=f#5 v=0
1455641 On ch=1 n=f#6 v=0
1455761 On ch=1 n=f#6 v=74
1455781 On ch=1 n=f#5 v=57
1455791 On ch=1 n=a4 v=45
1455801 On ch=1 n=c#4 v=30
1455876 On ch=1 n=a4 v=0
1455926 On ch=1 n=c#4 v=0
1455926 On ch=1 n=f#6 v=0
1455931 On ch=1 n=f#5 v=0
1456091 On ch=1 n=f6 v=84
1456111 On ch=1 n=f#5 v=50
1456116 On ch=1 n=c#4 v=54
1456121 On ch=1 n=a#4 v=49
1456256 On ch=1 n=f#5 v=0
1456261 On ch=1 n=f6 v=0
1456266 On ch=1 n=c#4 v=0
1456271 On ch=1 n=a#4 v=0
1456431 On ch=1 n=d#6 v=78
1456451 On ch=1 n=c#4 v=59
1456451 On ch=1 n=f#5 v=49
1456456 On ch=1 n=c5 v=70
1456571 On ch=1 n=c5 v=0
1456616 On ch=1 n=f#5 v=0
1456631 On ch=1 n=c#4 v=0
1456691 On ch=1 n=d#6 v=0
1456786 On ch=1 n=c#6 v=70
1456796 On ch=1 n=c#5 v=60
1456796 On ch=1 n=f#5 v=45
1456806 On ch=1 n=c#4 v=53
1456886 On ch=1 n=c#6 v=0
1456916 On ch=1 n=c#4 v=0
1456926 On ch=1 n=c#5 v=0
1456981 On ch=1 n=f#5 v=0
1457121 On ch=1 n=c6 v=79
1457126 On ch=1 n=f#5 v=49
1457131 On ch=1 n=d#5 v=59
1457141 On ch=1 n=c#4 v=46
1457216 On ch=1 n=f#5 v=0
1457236 On ch=1 n=c6 v=0
1457246 On ch=1 n=d#5 v=0
1457256 On ch=1 n=c#4 v=0
1457531 On ch=1 n=a#5 v=71
1457561 On ch=1 n=e5 v=54
1457571 On ch=1 n=g5 v=54
1457591 On ch=1 n=c#4 v=43
1457631 Par ch=1 c=64 v=72
1457651 Par ch=1 c=64 v=0
1457761 On ch=1 n=c#4 v=0
1457791 Par ch=1 c=64 v=88
1457811 Par ch=1 c=64 v=127
1457931 On ch=1 n=c#4 v=33
1457946 On ch=1 n=g5 v=0
1458006 On ch=1 n=a#5 v=0
1458021 On ch=1 n=e5 v=0
1458051 On ch=1 n=c#4 v=0
1458266 On ch=1 n=g#5 v=58
1458276 On ch=1 n=f#5 v=50
1458286 On ch=1 n=c5 v=52
1458286 On ch=1 n=d#5 v=43
1458291 Par ch=1 c=64 v=72
1458301 On ch=1 n=c#4 v=39
1458311 Par ch=1 c=64 v=0
1458426 Par ch=1 c=64 v=24
1458446 Par ch=1 c=64 v=88
1458456 On ch=1 n=c#4 v=0
1458466 Par ch=1 c=64 v=127
1458656 On ch=1 n=c#4 v=34
1458736 On ch=1 n=c5 v=0
1458741 On ch=1 n=c#4 v=0
1458741 On ch=1 n=d#5 v=0
1458761 On ch=1 n=f#5 v=0
1458771 On ch=1 n=g#5 v=0
1458966 On ch=1 n=g#5 v=62
1458971 On ch=1 n=f#5 v=51
1458981 On ch=1 n=d#5 v=48
1458986 On ch=1 n=c#4 v=27
1458991 On ch=1 n=c5 v=44
1459101 On ch=1 n=c#4 v=0
1459116 On ch=1 n=c5 v=0
1459261 On ch=1 n=f#5 v=0
1459286 On ch=1 n=c#4 v=54
1459361 On ch=1 n=d#5 v=0
1459401 On ch=1 n=c#4 v=0
1459481 On ch=1 n=c5 v=60
1459526 On ch=1 n=g#5 v=0
1459546 On ch=1 n=c5 v=0
1459661 On ch=1 n=g#5 v=62
1459681 On ch=1 n=f5 v=55
1459686 Par ch=1 c=64 v=56
1459696 On ch=1 n=c#5 v=49
1459706 On ch=1 n=c#4 v=39
1459706 Par ch=1 c=64 v=0
1459836 On ch=1 n=c#4 v=0
1459861 Par ch=1 c=64 v=40
1459881 Par ch=1 c=64 v=104
1459901 Par ch=1 c=64 v=127
1460036 On ch=1 n=c#4 v=44
1460076 On ch=1 n=f5 v=0
1460101 On ch=1 n=g#5 v=0
1460126 On ch=1 n=c#4 v=0
1460131 On ch=1 n=c#5 v=0
1460361 On ch=1 n=g#5 v=64
1460361 Par ch=1 c=64 v=56
1460376 On ch=1 n=d#5 v=46
1460381 Par ch=1 c=64 v=0
1460386 On ch=1 n=c5 v=47
1460401 On ch=1 n=c#4 v=27
1460481 Par ch=1 c=64 v=72
1460491 On ch=1 n=c#4 v=0
1460501 Par ch=1 c=64 v=127
1460731 On ch=1 n=c#4 v=51
1460831 On ch=1 n=c#4 v=0
1460851 On ch=1 n=g#5 v=0
1460871 On ch=1 n=c5 v=0
1460886 On ch=1 n=d#5 v=0
1461081 On ch=1 n=g#5 v=60
1461081 Par ch=1 c=64 v=104
1461101 On ch=1 n=d#5 v=38
1461101 Par ch=1 c=64 v=24
1461116 On ch=1 n=c5 v=51
1461121 On ch=1 n=c#4 v=42
1461121 Par ch=1 c=64 v=0
1461176 Par ch=1 c=64 v=40
1461196 Par ch=1 c=64 v=104
1461206 On ch=1 n=c#4 v=0
1461216 Par ch=1 c=64 v=127
1461386 On ch=1 n=d#5 v=0
1461416 On ch=1 n=c5 v=0
1461421 On ch=1 n=c#4 v=51
1461491 On ch=1 n=c#4 v=0
1461536 On ch=1 n=g#5 v=0
1461601 On ch=1 n=c5 v=59
1461606 On ch=1 n=g#4 v=40
1461646 On ch=1 n=g#4 v=0
1461671 On ch=1 n=c5 v=0
1461806 On ch=1 n=g#5 v=64
1461816 Par ch=1 c=64 v=56
1461831 On ch=1 n=c#4 v=63
1461836 On ch=1 n=f5 v=61
1461836 Par ch=1 c=64 v=0
1461951 Par ch=1 c=64 v=40
1461971 Par ch=1 c=64 v=104
1461991 Par ch=1 c=64 v=127
1462011 On ch=1 n=c#4 v=0
1462181 On ch=1 n=f5 v=0
1462186 On ch=1 n=c#5 v=38
1462206 On ch=1 n=c#4 v=36
1462231 On ch=1 n=c#5 v=0
1462251 On ch=1 n=c#4 v=0
1462261 On ch=1 n=g#5 v=0
1462491 On ch=1 n=g#5 v=60
1462496 Par ch=1 c=64 v=104
1462516 On ch=1 n=c#4 v=50
1462516 On ch=1 n=d#5 v=39
1462516 Par ch=1 c=64 v=40
1462526 On ch=1 n=c5 v=51
1462536 Par ch=1 c=64 v=0
1462631 Par ch=1 c=64 v=72
1462641 On ch=1 n=c#4 v=0
1462646 Par ch=1 c=64 v=127
1462866 On ch=1 n=c#4 v=47
1462951 On ch=1 n=d#5 v=0
1462961 On ch=1 n=c#4 v=0
1462981 On ch=1 n=c5 v=0
1463016 On ch=1 n=g#5 v=0
1463221 On ch=1 n=g#5 v=63
1463236 On ch=1 n=d#5 v=45
1463251 On ch=1 n=c5 v=49
1463261 On ch=1 n=c#4 v=31
1463356 On ch=1 n=c#4 v=0
1463506 On ch=1 n=d#5 v=0
1463526 On ch=1 n=c5 v=0
1463561 On ch=1 n=c#4 v=43
1463616 On ch=1 n=c#4 v=0
1463706 On ch=1 n=g#5 v=0
1463741 On ch=1 n=c5 v=59
1463791 On ch=1 n=c#4 v=42
1463821 On ch=1 n=c5 v=0
1463871 On ch=1 n=c#4 v=0
1463971 On ch=1 n=g#5 v=58
1463991 On ch=1 n=f5 v=53
1464021 On ch=1 n=c#5 v=35
1464026 On ch=1 n=c#4 v=36
1464026 Par ch=1 c=64 v=88
1464041 Par ch=1 c=64 v=24
1464066 Par ch=1 c=64 v=0
1464221 Par ch=1 c=64 v=72
1464236 Par ch=1 c=64 v=127
1464386 On ch=1 n=c#5 v=0
1464436 On ch=1 n=f5 v=0
1464481 On ch=1 n=g#5 v=0
1464556 On ch=1 n=c5 v=49
1464561 On ch=1 n=g#4 v=30
1464611 On ch=1 n=g#4 v=0
1464611 On ch=1 n=c5 v=0
1464686 Par ch=1 c=64 v=104
1464701 Par ch=1 c=64 v=56
1464721 Par ch=1 c=64 v=0
1464726 On ch=1 n=g#5 v=56
1464741 On ch=1 n=f5 v=54
1464741 On ch=1 n=c#5 v=31
1464816 Par ch=1 c=64 v=72
1464836 Par ch=1 c=64 v=127
1464866 On ch=1 n=f5 v=0
1464901 On ch=1 n=g#5 v=0
1464911 On ch=1 n=c#5 v=0
1464931 On ch=1 n=c5 v=50
1464956 On ch=1 n=g#4 v=25
1464996 On ch=1 n=c5 v=0
1465016 On ch=1 n=g#4 v=0
1465106 On ch=1 n=g#5 v=55
1465126 On ch=1 n=c#5 v=32
1465136 On ch=1 n=f5 v=37
1465201 On ch=1 n=f5 v=0
1465261 On ch=1 n=g#5 v=0
1465266 On ch=1 n=c#5 v=0
1465306 On ch=1 n=c5 v=58
1465341 On ch=1 n=g#4 v=29
1465401 On ch=1 n=c5 v=0
1465416 On ch=1 n=g#4 v=0
1465516 On ch=1 n=g#5 v=51
1465546 On ch=1 n=c#5 v=29
1465546 On ch=1 n=f5 v=34
1465611 On ch=1 n=f5 v=0
1465681 On ch=1 n=c#5 v=0
1465681 On ch=1 n=g#5 v=0
1465746 On ch=1 n=c5 v=56
1465781 On ch=1 n=g#4 v=33
1465836 On ch=1 n=c5 v=0
1465976 On ch=1 n=g#4 v=0
1466001 On ch=1 n=g#5 v=44
1466036 On ch=1 n=c#5 v=33
1466046 On ch=1 n=f5 v=42
1466156 Par ch=1 c=64 v=104
1466176 Par ch=1 c=64 v=40
1466191 Par ch=1 c=64 v=0
1466271 On ch=1 n=f5 v=0
1466271 Par ch=1 c=64 v=24
1466291 Par ch=1 c=64 v=88
1466311 Par ch=1 c=64 v=127
1466326 On ch=1 n=e5 v=43
1466376 On ch=1 n=c#5 v=0
1466391 On ch=1 n=g#4 v=29
1466441 On ch=1 n=e5 v=0
1466446 On ch=1 n=g#4 v=0
1466571 On ch=1 n=g#5 v=0
1466576 On ch=1 n=c#4 v=0
1466941 On ch=1 n=c#6 v=48
1466961 On ch=1 n=f5 v=40
1466971 On ch=1 n=g#5 v=34
1467001 On ch=1 n=c#3 v=37
1467046 Par ch=1 c=64 v=88
1467066 Par ch=1 c=64 v=24
1467086 Par ch=1 c=64 v=0
1467201 Par ch=1 c=64 v=104
1467221 Par ch=1 c=64 v=127
1467316 On ch=1 n=c#3 v=0
1467406 On ch=1 n=c#6 v=0
1467421 On ch=1 n=f5 v=0
1467466 On ch=1 n=g#5 v=0
1468556 Par ch=1 c=64 v=104
1468576 Par ch=1 c=64 v=88
1468651 Par ch=1 c=64 v=72
1468711 Par ch=1 c=64 v=40
1468751 Par ch=1 c=64 v=24
1468771 Par ch=1 c=64 v=0
1470241 On ch=1 n=g#2 v=51
1470241 On ch=1 n=g#3 v=60
1470241 On ch=1 n=c4 v=76
1470331 On ch=1 n=g#2 v=0
1470356 On ch=1 n=d#4 v=79
1470361 On ch=1 n=c4 v=0
1470386 On ch=1 n=g#3 v=0
1470436 On ch=1 n=d#4 v=0
1470476 On ch=1 n=a2 v=52
1470476 On ch=1 n=a3 v=62
1470481 On ch=1 n=f4 v=74
1470591 On ch=1 n=a3 v=0
1470596 On ch=1 n=a2 v=0
1470596 On ch=1 n=f#4 v=82
1470631 On ch=1 n=f4 v=0
1470696 On ch=1 n=f#4 v=0
1470721 On ch=1 n=d#5 v=77
1470736 On ch=1 n=a#3 v=54
1470736 On ch=1 n=a#2 v=54
1470846 On ch=1 n=g4 v=81
1470851 On ch=1 n=a#2 v=0
1470851 On ch=1 n=d#5 v=0
1470896 On ch=1 n=a#3 v=0
1470941 On ch=1 n=g4 v=0
1470961 On ch=1 n=a#4 v=79
1470976 On ch=1 n=b3 v=68
1470976 On ch=1 n=b2 v=63
1471066 On ch=1 n=b2 v=0
1471081 On ch=1 n=g#4 v=79
1471106 On ch=1 n=b3 v=0
1471106 On ch=1 n=a#4 v=0
1471201 On ch=1 n=g4 v=86
1471216 On ch=1 n=c4 v=70
1471226 On ch=1 n=c3 v=45
1471241 On ch=1 n=g#4 v=0
1471266 On ch=1 n=c3 v=0
1471296 On ch=1 n=c4 v=0
1471306 On ch=1 n=g4 v=0
1471326 On ch=1 n=g#4 v=77
1471441 On ch=1 n=g#4 v=0
1471446 On ch=1 n=d#4 v=60
1471451 On ch=1 n=f#4 v=73
1471461 On ch=1 n=d#3 v=39
1471521 On ch=1 n=d#4 v=0
1471541 On ch=1 n=d#3 v=0
1471566 On ch=1 n=g#4 v=74
1471576 On ch=1 n=f#4 v=0
1471656 On ch=1 n=g#4 v=0
1471686 On ch=1 n=c#3 v=54
1471686 On ch=1 n=c#4 v=60
1471686 On ch=1 n=f4 v=77
1471756 On ch=1 n=c#3 v=0
1471776 On ch=1 n=c#4 v=0
1471801 On ch=1 n=g#4 v=77
1471836 On ch=1 n=f4 v=0
1471916 On ch=1 n=a#4 v=76
1471921 On ch=1 n=d4 v=66
1471926 On ch=1 n=d3 v=58
1471946 On ch=1 n=g#4 v=0
1471966 On ch=1 n=d3 v=0
1471986 On ch=1 n=a#4 v=0
1472001 On ch=1 n=d4 v=0
1472031 On ch=1 n=b4 v=78
1472151 On ch=1 n=g#5 v=77
1472151 On ch=1 n=d#4 v=65
1472156 On ch=1 n=d#3 v=56
1472211 On ch=1 n=b4 v=0
1472261 On ch=1 n=c5 v=73
1472271 On ch=1 n=g#5 v=0
1472291 On ch=1 n=d#3 v=0
1472306 On ch=1 n=d#4 v=0
1472356 On ch=1 n=c5 v=0
1472376 On ch=1 n=d#5 v=85
1472396 On ch=1 n=e3 v=69
1472396 On ch=1 n=e4 v=76
1472471 On ch=1 n=e3 v=0
1472491 On ch=1 n=c#5 v=85
1472511 On ch=1 n=e4 v=0
1472536 On ch=1 n=d#5 v=0
1472611 On ch=1 n=c5 v=79
1472626 On ch=1 n=c#5 v=0
1472626 On ch=1 n=f4 v=61
1472636 On ch=1 n=f3 v=53
1472666 On ch=1 n=f3 v=0
1472706 On ch=1 n=f4 v=0
1472721 On ch=1 n=c#5 v=80
1472751 On ch=1 n=c5 v=0
1472826 On ch=1 n=c#5 v=0
1472846 On ch=1 n=b4 v=80
1472851 On ch=1 n=g#4 v=65
1472861 On ch=1 n=g#3 v=39
1472956 On ch=1 n=g#3 v=0
1472966 On ch=1 n=g#4 v=0
1472966 On ch=1 n=d5 v=77
1472981 On ch=1 n=b4 v=0
1473026 On ch=1 n=d5 v=0
1473081 On ch=1 n=g3 v=89
1473201 On ch=1 n=a#4 v=72
1473316 On ch=1 n=a#4 v=0
1473316 On ch=1 n=f5 v=71
1473321 On ch=1 n=g3 v=0
1473321 On ch=1 n=d#4 v=55
1473416 On ch=1 n=f5 v=0
1473436 On ch=1 n=a#5 v=70
1473526 Par ch=1 c=64 v=24
1473531 On ch=1 n=a#5 v=0
1473536 On ch=1 n=d#3 v=61
1473541 Par ch=1 c=64 v=40
1473551 On ch=1 n=d#5 v=69
1473551 Par ch=1 c=64 v=56
1473571 Par ch=1 c=64 v=72
1473646 On ch=1 n=d#5 v=0
1473661 On ch=1 n=c#5 v=74
1473731 On ch=1 n=d#4 v=0
1473746 Par ch=1 c=64 v=56
1473756 On ch=1 n=c#5 v=0
1473756 On ch=1 n=d#3 v=0
1473756 Par ch=1 c=64 v=24
1473771 On ch=1 n=g#3 v=86
1473771 Par ch=1 c=64 v=0
1473886 On ch=1 n=c5 v=76
1473996 On ch=1 n=d#5 v=69
1474006 Par ch=1 c=64 v=24
1474021 Par ch=1 c=64 v=56
1474036 On ch=1 n=c5 v=0
1474036 On ch=1 n=d#4 v=54
1474036 Par ch=1 c=64 v=72
1474046 On ch=1 n=g#3 v=0
1474051 Par ch=1 c=64 v=88
1474061 Par ch=1 c=64 v=104
1474076 Par ch=1 c=64 v=127
1474126 On ch=1 n=g#5 v=68
1474146 On ch=1 n=d#5 v=0
1474191 On ch=1 n=g#5 v=0
1474221 On ch=1 n=d#3 v=53
1474246 On ch=1 n=c6 v=81
1474306 On ch=1 n=c6 v=0
1474346 On ch=1 n=d#6 v=81
1474401 On ch=1 n=d#4 v=0
1474426 Par ch=1 c=64 v=88
1474441 On ch=1 n=d#3 v=0
1474441 Par ch=1 c=64 v=56
1474456 On ch=1 n=d#6 v=0
1474456 Par ch=1 c=64 v=0
1474476 On ch=1 n=c4 v=90
1474491 On ch=1 n=f6 v=81
1474556 Par ch=1 c=64 v=40
1474571 Par ch=1 c=64 v=72
1474576 On ch=1 n=f6 v=0
1474586 Par ch=1 c=64 v=104
1474601 On ch=1 n=d#6 v=67
1474601 Par ch=1 c=64 v=127
1474711 On ch=1 n=c4 v=0
1474716 On ch=1 n=d#6 v=0
1474726 On ch=1 n=c6 v=66
1474741 On ch=1 n=d#4 v=60
1474831 On ch=1 n=c6 v=0
1474846 On ch=1 n=g#5 v=60
1474896 On ch=1 n=d#4 v=0
1474936 On ch=1 n=g#5 v=0
1474951 On ch=1 n=f5 v=74
1474951 On ch=1 n=d#3 v=52
1475051 On ch=1 n=f5 v=0
1475066 On ch=1 n=d#5 v=69
1475151 Par ch=1 c=64 v=104
1475156 On ch=1 n=d#5 v=0
1475166 Par ch=1 c=64 v=88
1475181 Par ch=1 c=64 v=40
1475186 On ch=1 n=b3 v=82
1475191 On ch=1 n=d#3 v=0
1475196 Par ch=1 c=64 v=0
1475201 On ch=1 n=d5 v=76
1475311 Par ch=1 c=64 v=40
1475326 On ch=1 n=f5 v=70
1475326 Par ch=1 c=64 v=88
1475336 On ch=1 n=d5 v=0
1475341 Par ch=1 c=64 v=127
1475436 On ch=1 n=b3 v=0
1475441 On ch=1 n=d#4 v=64
1475451 On ch=1 n=g#5 v=69
1475461 On ch=1 n=f5 v=0
1475511 On ch=1 n=g#5 v=0
1475581 On ch=1 n=d6 v=84
1475666 On ch=1 n=g#3 v=48
1475671 On ch=1 n=d6 v=0
1475691 On ch=1 n=f6 v=87
1475801 On ch=1 n=f6 v=0
1475801 On ch=1 n=g#6 v=82
1475876 On ch=1 n=g#3 v=0
1475876 On ch=1 n=d#4 v=0
1475881 On ch=1 n=g#6 v=0
1475881 Par ch=1 c=64 v=104
1475891 Par ch=1 c=64 v=72
1475911 Par ch=1 c=64 v=24
1475916 On ch=1 n=g3 v=85
1475921 Par ch=1 c=64 v=0
1476031 On ch=1 n=a#5 v=77
1476041 Par ch=1 c=64 v=24
1476056 Par ch=1 c=64 v=72
1476066 Par ch=1 c=64 v=104
1476081 Par ch=1 c=64 v=127
1476121 On ch=1 n=g3 v=0
1476136 On ch=1 n=a#5 v=0
1476136 On ch=1 n=f6 v=83
1476146 On ch=1 n=d#4 v=67
1476216 On ch=1 n=f6 v=0
1476246 On ch=1 n=a#6 v=83
1476326 On ch=1 n=d#4 v=0
1476346 On ch=1 n=a#6 v=0
1476361 On ch=1 n=d#3 v=64
1476361 On ch=1 n=d#6 v=80
1476451 On ch=1 n=d#6 v=0
1476471 On ch=1 n=c#6 v=80
1476506 Par ch=1 c=64 v=104
1476541 On ch=1 n=d#3 v=0
1476546 Par ch=1 c=64 v=72
1476551 On ch=1 n=c#6 v=0
1476561 Par ch=1 c=64 v=40
1476576 Par ch=1 c=64 v=0
1476586 On ch=1 n=g#3 v=86
1476691 On ch=1 n=c6 v=72
1476706 Par ch=1 c=64 v=56
1476721 Par ch=1 c=64 v=88
1476736 Par ch=1 c=64 v=127
1476796 On ch=1 n=d#6 v=77
1476816 On ch=1 n=g#3 v=0
1476826 On ch=1 n=d#4 v=62
1476836 On ch=1 n=c6 v=0
1476911 On ch=1 n=g#6 v=74
1476936 On ch=1 n=d#6 v=0
1476976 On ch=1 n=g#6 v=0
1476996 On ch=1 n=d#4 v=0
1477016 On ch=1 n=d#3 v=65
1477031 On ch=1 n=c7 v=74
1477086 On ch=1 n=c7 v=0
1477131 On ch=1 n=d#7 v=85
1477186 Par ch=1 c=64 v=104
1477201 Par ch=1 c=64 v=88
1477206 On ch=1 n=d#3 v=0
1477216 Par ch=1 c=64 v=56
1477231 On ch=1 n=d#7 v=0
1477231 Par ch=1 c=64 v=0
1477256 On ch=1 n=c4 v=87
1477266 On ch=1 n=f7 v=86
1477331 Par ch=1 c=64 v=40
1477346 Par ch=1 c=64 v=72
1477351 On ch=1 n=f7 v=0
1477361 Par ch=1 c=64 v=104
1477376 On ch=1 n=d#7 v=80
1477376 Par ch=1 c=64 v=127
1477486 On ch=1 n=c7 v=76
1477491 On ch=1 n=c4 v=0
1477496 On ch=1 n=d#7 v=0
1477521 On ch=1 n=d#4 v=70
1477601 On ch=1 n=c7 v=0
1477606 On ch=1 n=g#6 v=75
1477691 On ch=1 n=d#4 v=0
1477701 On ch=1 n=g#6 v=0
1477721 On ch=1 n=f6 v=74
1477741 On ch=1 n=d#3 v=60
1477811 On ch=1 n=f6 v=0
1477831 On ch=1 n=d#6 v=71
1477886 Par ch=1 c=64 v=88
1477901 Par ch=1 c=64 v=40
1477911 Par ch=1 c=64 v=0
1477921 On ch=1 n=d#6 v=0
1477946 On ch=1 n=d#3 v=0
1477951 On ch=1 n=b3 v=80
1477951 On ch=1 n=d6 v=77
1478016 Par ch=1 c=64 v=24
1478026 Par ch=1 c=64 v=88
1478041 Par ch=1 c=64 v=127
1478071 On ch=1 n=f6 v=82
1478106 On ch=1 n=d6 v=0
1478166 On ch=1 n=b3 v=0
1478181 On ch=1 n=f6 v=0
1478181 On ch=1 n=g#6 v=84
1478191 On ch=1 n=d#4 v=72
1478231 On ch=1 n=g#6 v=0
1478301 On ch=1 n=d7 v=85
1478376 On ch=1 n=d7 v=0
1478411 On ch=1 n=f7 v=86
1478416 On ch=1 n=g#3 v=64
1478426 On ch=1 n=d#4 v=0
1478511 On ch=1 n=f7 v=0
1478516 On ch=1 n=g#7 v=87
1478566 Par ch=1 c=64 v=88
1478581 Par ch=1 c=64 v=40
1478586 On ch=1 n=g#7 v=0
1478596 On ch=1 n=g#3 v=0
1478596 Par ch=1 c=64 v=0
1478641 On ch=1 n=g3 v=83
1478706 On ch=1 n=g3 v=0
1478711 Par ch=1 c=64 v=56
1478726 Par ch=1 c=64 v=88
1478741 Par ch=1 c=64 v=127
1478756 On ch=1 n=a#6 v=65
1478861 On ch=1 n=a#6 v=0
1478861 On ch=1 n=f7 v=82
1478881 On ch=1 n=a#4 v=60
1478881 On ch=1 n=d#4 v=71
1478931 Par ch=1 c=64 v=104
1478951 On ch=1 n=d#4 v=0
1478951 On ch=1 n=f7 v=0
1478986 On ch=1 n=a#7 v=71
1479006 On ch=1 n=a#4 v=0
1479016 Par ch=1 c=64 v=88
1479031 Par ch=1 c=64 v=56
1479046 Par ch=1 c=64 v=0
1479076 On ch=1 n=a#7 v=0
1479096 On ch=1 n=c#7 v=77
1479101 On ch=1 n=a3 v=73
1479161 On ch=1 n=a3 v=0
1479161 Par ch=1 c=64 v=24
1479176 On ch=1 n=c#7 v=0
1479176 Par ch=1 c=64 v=40
1479191 Par ch=1 c=64 v=56
1479206 On ch=1 n=c7 v=82
1479206 Par ch=1 c=64 v=72
1479276 Par ch=1 c=64 v=56
1479321 On ch=1 n=f#7 v=85
1479326 On ch=1 n=c5 v=70
1479341 On ch=1 n=f#4 v=50
1479346 On ch=1 n=d#4 v=51
1479351 On ch=1 n=c7 v=0
1479351 Par ch=1 c=64 v=72
1479366 Par ch=1 c=64 v=88
1479386 On ch=1 n=c5 v=0
1479411 On ch=1 n=f#7 v=0
1479421 On ch=1 n=d#4 v=0
1479436 On ch=1 n=c8 v=96
1479441 On ch=1 n=f#4 v=0
1479466 Par ch=1 c=64 v=56
1479481 Par ch=1 c=64 v=0
1479531 On ch=1 n=c8 v=0
1479551 On ch=1 n=b3 v=75
1479551 On ch=1 n=d#7 v=88
1479596 Par ch=1 c=64 v=24
1479611 Par ch=1 c=64 v=56
1479626 On ch=1 n=b3 v=0
1479626 Par ch=1 c=64 v=72
1479641 On ch=1 n=d#7 v=0
1479661 On ch=1 n=d7 v=85
1479701 Par ch=1 c=64 v=24
1479716 Par ch=1 c=64 v=0
1479776 On ch=1 n=g#7 v=95
1479776 On ch=1 n=d5 v=78
1479786 On ch=1 n=f4 v=72
1479786 On ch=1 n=g#4 v=64
1479801 Par ch=1 c=64 v=24
1479811 On ch=1 n=d7 v=0
1479816 Par ch=1 c=64 v=56
1479831 Par ch=1 c=64 v=72
1479861 On ch=1 n=f4 v=0
1479861 On ch=1 n=d5 v=0
1479861 On ch=1 n=g#7 v=0
1479881 On ch=1 n=d8 v=94
1479896 On ch=1 n=g#4 v=0
1479946 Par ch=1 c=64 v=0
1479966 On ch=1 n=d8 v=0
1480001 On ch=1 n=c4 v=74
1480006 On ch=1 n=f7 v=99
1480061 Par ch=1 c=64 v=40
1480066 On ch=1 n=c4 v=0
1480076 Par ch=1 c=64 v=56
1480111 On ch=1 n=f7 v=0
1480116 On ch=1 n=d#7 v=94
1480136 Par ch=1 c=64 v=40
1480151 Par ch=1 c=64 v=24
1480166 Par ch=1 c=64 v=0
1480196 On ch=1 n=d#7 v=0
1480226 On ch=1 n=d#5 v=69
1480226 On ch=1 n=a7 v=104
1480231 On ch=1 n=a4 v=66
1480241 On ch=1 n=f#4 v=69
1480251 Par ch=1 c=64 v=40
1480266 Par ch=1 c=64 v=56
1480291 On ch=1 n=d#5 v=0
1480296 On ch=1 n=a7 v=0
1480341 On ch=1 n=d#8 v=89
1480346 On ch=1 n=a4 v=0
1480396 Par ch=1 c=64 v=0
1480411 On ch=1 n=f#4 v=0
1480426 On ch=1 n=d#8 v=0
1480446 On ch=1 n=d4 v=76
1480461 On ch=1 n=g7 v=96
1480516 On ch=1 n=d4 v=0
1480516 Par ch=1 c=64 v=24
1480531 Par ch=1 c=64 v=56
1480541 On ch=1 n=g7 v=0
1480566 On ch=1 n=f7 v=96
1480616 Par ch=1 c=64 v=0
1480671 On ch=1 n=f7 v=0
1480676 On ch=1 n=b7 v=103
1480676 On ch=1 n=f5 v=72
1480676 On ch=1 n=b4 v=67
1480676 On ch=1 n=g#4 v=65
1480701 Par ch=1 c=64 v=24
1480716 Par ch=1 c=64 v=56
1480731 Par ch=1 c=64 v=72
1480746 On ch=1 n=f5 v=0
1480746 Par ch=1 c=64 v=88
1480776 On ch=1 n=b4 v=0
1480781 On ch=1 n=b7 v=0
1480786 Par ch=1 c=64 v=104
1480796 On ch=1 n=f8 v=99
1480856 On ch=1 n=f8 v=0
1480876 On ch=1 n=g#4 v=0
1480876 Par ch=1 c=64 v=56
1480891 Par ch=1 c=64 v=24
1480906 Par ch=1 c=64 v=0
1480926 On ch=1 n=d#4 v=93
1481006 Par ch=1 c=64 v=40
1481021 Par ch=1 c=64 v=88
1481036 Par ch=1 c=64 v=104
1481051 Par ch=1 c=64 v=127
1481126 On ch=1 n=d#4 v=0
1481181 On ch=1 n=d#8 v=85
1481201 On ch=1 n=d#5 v=43
1481201 On ch=1 n=c5 v=56
1481206 On ch=1 n=g#4 v=39
1481291 On ch=1 n=f8 v=86
1481311 On ch=1 n=d#8 v=0
1481341 On ch=1 n=c5 v=0
1481346 On ch=1 n=d#5 v=0
1481351 On ch=1 n=g#4 v=0
1481356 Par ch=1 c=64 v=104
1481386 On ch=1 n=f8 v=0
1481401 On ch=1 n=f4 v=76
1481401 On ch=1 n=d#8 v=81
1481516 On ch=1 n=c8 v=83
1481531 On ch=1 n=d#8 v=0
1481576 Par ch=1 c=64 v=40
1481591 Par ch=1 c=64 v=0
1481611 On ch=1 n=f4 v=0
1481641 On ch=1 n=g#7 v=87
1481641 On ch=1 n=g#4 v=48
1481646 On ch=1 n=c8 v=0
1481646 On ch=1 n=c5 v=65
1481646 On ch=1 n=f5 v=64
1481691 Par ch=1 c=64 v=24
1481706 Par ch=1 c=64 v=56
1481711 On ch=1 n=g#7 v=0
1481721 Par ch=1 c=64 v=88
1481736 Par ch=1 c=64 v=104
1481811 On ch=1 n=c5 v=0
1481826 On ch=1 n=f5 v=0
1481881 On ch=1 n=g#4 v=0
1481891 On ch=1 n=f#4 v=65
1481896 On ch=1 n=d#7 v=85
1481991 On ch=1 n=d#7 v=0
1482001 On ch=1 n=f7 v=93
1482061 On ch=1 n=f#4 v=0
1482106 On ch=1 n=f7 v=0
1482106 On ch=1 n=g#4 v=50
1482111 On ch=1 n=f#5 v=63
1482111 On ch=1 n=d#7 v=85
1482126 On ch=1 n=c5 v=62
1482181 On ch=1 n=g#4 v=0
1482201 On ch=1 n=f#5 v=0
1482211 On ch=1 n=c7 v=87
1482226 On ch=1 n=d#7 v=0
1482256 Par ch=1 c=64 v=88
1482296 On ch=1 n=c5 v=0
1482301 Par ch=1 c=64 v=24
1482316 Par ch=1 c=64 v=0
1482346 On ch=1 n=g#6 v=79
1482356 On ch=1 n=c7 v=0
1482356 On ch=1 n=d#4 v=81
1482406 On ch=1 n=g#6 v=0
1482416 Par ch=1 c=64 v=24
1482431 Par ch=1 c=64 v=72
1482446 Par ch=1 c=64 v=88
1482461 Par ch=1 c=64 v=104
1482506 Par ch=1 c=64 v=127
1482546 On ch=1 n=d#4 v=0
1482591 On ch=1 n=d#6 v=82
1482606 On ch=1 n=d#5 v=55
1482611 On ch=1 n=c5 v=62
1482616 On ch=1 n=g#4 v=47
1482621 Par ch=1 c=64 v=104
1482686 On ch=1 n=d#6 v=0
1482706 On ch=1 n=f6 v=84
1482736 On ch=1 n=c5 v=0
1482741 On ch=1 n=g#4 v=0
1482751 On ch=1 n=d#5 v=0
1482791 On ch=1 n=f6 v=0
1482791 Par ch=1 c=64 v=88
1482811 On ch=1 n=f4 v=78
1482811 On ch=1 n=d#6 v=81
1482926 On ch=1 n=c6 v=86
1482951 On ch=1 n=d#6 v=0
1482971 Par ch=1 c=64 v=56
1482981 Par ch=1 c=64 v=24
1482996 Par ch=1 c=64 v=0
1483011 On ch=1 n=f4 v=0
1483046 On ch=1 n=f5 v=58
1483046 On ch=1 n=c5 v=64
1483051 On ch=1 n=g#5 v=77
1483051 On ch=1 n=g#4 v=45
1483056 On ch=1 n=c6 v=0
1483086 Par ch=1 c=64 v=40
1483101 Par ch=1 c=64 v=56
1483106 On ch=1 n=f5 v=0
1483116 Par ch=1 c=64 v=72
1483121 On ch=1 n=g#5 v=0
1483126 Par ch=1 c=64 v=88
1483146 On ch=1 n=c5 v=0
1483231 On ch=1 n=g#4 v=0
1483261 Par ch=1 c=64 v=40
1483276 Par ch=1 c=64 v=0
1483301 On ch=1 n=d#5 v=77
1483311 On ch=1 n=f#4 v=67
1483386 On ch=1 n=d#5 v=0
1483391 Par ch=1 c=64 v=40
1483406 On ch=1 n=f5 v=78
1483406 Par ch=1 c=64 v=56
1483421 Par ch=1 c=64 v=72
1483461 Par ch=1 c=64 v=88
1483491 On ch=1 n=f#4 v=0
1483506 On ch=1 n=f5 v=0
1483526 On ch=1 n=d#5 v=75
1483541 On ch=1 n=g#4 v=69
1483616 On ch=1 n=d#5 v=0
1483631 On ch=1 n=c5 v=76
1483711 On ch=1 n=g#4 v=0
1483711 Par ch=1 c=64 v=40
1483726 Par ch=1 c=64 v=0
1483751 On ch=1 n=c5 v=0
1483761 On ch=1 n=d#5 v=86
1483771 On ch=1 n=f4 v=72
1483831 On ch=1 n=d#5 v=0
1483856 Par ch=1 c=64 v=56
1483871 Par ch=1 c=64 v=88
1483886 Par ch=1 c=64 v=127
1483991 On ch=1 n=f4 v=0
1484026 On ch=1 n=c#6 v=81
1484031 On ch=1 n=f5 v=59
1484041 On ch=1 n=g#4 v=42
1484101 On ch=1 n=c#6 v=0
1484131 On ch=1 n=d#6 v=78
1484191 On ch=1 n=f5 v=0
1484241 On ch=1 n=c#6 v=80
1484251 On ch=1 n=d#6 v=0
1484276 On ch=1 n=f4 v=69
1484281 On ch=1 n=g#4 v=0
1484336 On ch=1 n=c#6 v=0
1484346 On ch=1 n=f4 v=0
1484366 On ch=1 n=c#5 v=77
1484406 Par ch=1 c=64 v=72
1484421 Par ch=1 c=64 v=40
1484436 Par ch=1 c=64 v=0
1484466 On ch=1 n=c#5 v=0
1484496 On ch=1 n=a#5 v=83
1484511 On ch=1 n=e4 v=70
1484551 Par ch=1 c=64 v=72
1484561 On ch=1 n=a#5 v=0
1484566 Par ch=1 c=64 v=127
1484721 On ch=1 n=e4 v=0
1484756 On ch=1 n=g#6 v=87
1484766 On ch=1 n=g#4 v=47
1484781 On ch=1 n=e5 v=53
1484836 On ch=1 n=g#6 v=0
1484876 On ch=1 n=a#6 v=83
1484941 On ch=1 n=e5 v=0
1484961 On ch=1 n=a#6 v=0
1485001 On ch=1 n=g#6 v=87
1485001 On ch=1 n=e4 v=58
1485011 On ch=1 n=g#4 v=0
1485066 On ch=1 n=e4 v=0
1485096 On ch=1 n=g#6 v=0
1485131 On ch=1 n=g#5 v=81
1485176 Par ch=1 c=64 v=104
1485191 Par ch=1 c=64 v=72
1485206 Par ch=1 c=64 v=24
1485216 On ch=1 n=g#5 v=0
1485221 Par ch=1 c=64 v=0
1485256 On ch=1 n=f6 v=91
1485276 On ch=1 n=d#4 v=75
1485336 Par ch=1 c=64 v=40
1485351 Par ch=1 c=64 v=104
1485366 On ch=1 n=f6 v=0
1485366 Par ch=1 c=64 v=127
1485491 On ch=1 n=d#4 v=0
1485531 On ch=1 n=d#7 v=91
1485531 On ch=1 n=g#4 v=60
1485531 On ch=1 n=d#5 v=54
1485616 On ch=1 n=d#7 v=0
1485646 On ch=1 n=f7 v=94
1485736 On ch=1 n=f7 v=0
1485776 On ch=1 n=d#7 v=90
1485791 On ch=1 n=d#4 v=72
1485821 On ch=1 n=g#4 v=0
1485841 On ch=1 n=d#5 v=0
1485866 On ch=1 n=d#7 v=0
1485886 On ch=1 n=d#4 v=0
1485896 On ch=1 n=d#6 v=85
1485976 On ch=1 n=d#6 v=0
1486021 Par ch=1 c=64 v=104
1486036 Par ch=1 c=64 v=40
1486041 On ch=1 n=g6 v=95
1486051 Par ch=1 c=64 v=0
1486076 On ch=1 n=d4 v=74
1486151 Par ch=1 c=64 v=88
1486161 On ch=1 n=g6 v=0
1486166 Par ch=1 c=64 v=127
1486181 On ch=1 n=d4 v=0
1486351 On ch=1 n=f7 v=100
1486351 On ch=1 n=f5 v=62
1486356 On ch=1 n=b4 v=60
1486356 On ch=1 n=g#4 v=49
1486426 On ch=1 n=f5 v=0
1486456 On ch=1 n=f7 v=0
1486476 On ch=1 n=g7 v=96
1486576 On ch=1 n=g7 v=0
1486601 On ch=1 n=b4 v=0
1486626 On ch=1 n=f7 v=92
1486641 On ch=1 n=g#4 v=0
1486661 On ch=1 n=d4 v=70
1486726 On ch=1 n=d4 v=0
1486766 On ch=1 n=f7 v=0
1486791 On ch=1 n=f6 v=93
1486861 On ch=1 n=f6 v=0
1486936 Par ch=1 c=64 v=104
1486946 Par ch=1 c=64 v=24
1486961 Par ch=1 c=64 v=0
1487001 On ch=1 n=d#3 v=94
1487126 Par ch=1 c=64 v=88
1487136 Par ch=1 c=64 v=127
1487166 On ch=1 n=d#3 v=0
1487376 On ch=1 n=g7 v=110
1487386 On ch=1 n=c#7 v=83
1487386 On ch=1 n=a#6 v=78
1487391 On ch=1 n=g6 v=86
1487396 On ch=1 n=g#4 v=67
1487396 On ch=1 n=a#4 v=60
1487396 On ch=1 n=g5 v=75
1487406 On ch=1 n=c#5 v=62
1487586 On ch=1 n=g5 v=0
1487586 On ch=1 n=g6 v=0
1487586 On ch=1 n=g7 v=0
1487696 On ch=1 n=f7 v=106
1487701 On ch=1 n=c#7 v=0
1487711 On ch=1 n=f6 v=90
1487716 On ch=1 n=c#5 v=0
1487716 On ch=1 n=f5 v=73
1487746 On ch=1 n=a#6 v=0
1487771 On ch=1 n=a#4 v=0
1487831 On ch=1 n=f7 v=0
1487841 On ch=1 n=f6 v=0
1487986 On ch=1 n=f5 v=0
1487996 On ch=1 n=d#7 v=100
1488006 On ch=1 n=d#6 v=81
1488011 On ch=1 n=d#5 v=78
1488161 On ch=1 n=d#6 v=0
1488206 On ch=1 n=d#7 v=0
1488271 On ch=1 n=d#5 v=0
1488286 On ch=1 n=c#7 v=96
1488296 On ch=1 n=c#6 v=84
1488296 On ch=1 n=c#5 v=61
1488456 On ch=1 n=c#6 v=0
1488471 On ch=1 n=c#5 v=0
1488476 On ch=1 n=c#7 v=0
1488551 On ch=1 n=c7 v=95
1488566 On ch=1 n=c6 v=80
1488576 On ch=1 n=c5 v=68
1488646 On ch=1 n=c6 v=0
1488731 On ch=1 n=c7 v=0
1488821 On ch=1 n=c5 v=0
1488841 On ch=1 n=a#6 v=94
1488851 On ch=1 n=a#4 v=62
1488851 On ch=1 n=a#5 v=81
1488921 On ch=1 n=a#5 v=0
1489086 On ch=1 n=a#6 v=0
1489126 On ch=1 n=c7 v=102
1489131 On ch=1 n=c6 v=87
1489146 On ch=1 n=c5 v=60
1489191 On ch=1 n=c6 v=0
1489216 On ch=1 n=a#4 v=0
1489316 On ch=1 n=c7 v=0
1489441 On ch=1 n=c#7 v=95
1489451 On ch=1 n=c#5 v=70
1489451 On ch=1 n=c#6 v=92
1489481 On ch=1 n=c5 v=0
1489506 On ch=1 n=g#4 v=0
1489536 On ch=1 n=c#6 v=0
1489551 On ch=1 n=c#5 v=0
1489611 On ch=1 n=c#7 v=0
1489796 On ch=1 n=d#7 v=103
1489801 On ch=1 n=d#6 v=88
1489811 Par ch=1 c=64 v=104
1489816 On ch=1 n=d#5 v=69
1489821 On ch=1 n=d#4 v=69
1489826 On ch=1 n=g4 v=69
1489826 Par ch=1 c=64 v=0
1489926 Par ch=1 c=64 v=72
1489936 On ch=1 n=d#7 v=0
1489941 Par ch=1 c=64 v=127
1489946 On ch=1 n=d#6 v=0
1490136 On ch=1 n=g4 v=0
1490156 On ch=1 n=f6 v=99
1490166 On ch=1 n=f5 v=82
1490171 On ch=1 n=f4 v=72
1490241 On ch=1 n=f5 v=0
1490481 On ch=1 n=f6 v=0
1490526 On ch=1 n=f4 v=0
1490566 On ch=1 n=g6 v=93
1490576 On ch=1 n=g5 v=74
1490591 On ch=1 n=g4 v=62
1490611 Par ch=1 c=64 v=56
1490626 Par ch=1 c=64 v=0
1490726 Par ch=1 c=64 v=88
1490741 On ch=1 n=g5 v=0
1490741 Par ch=1 c=64 v=127
1490776 On ch=1 n=g6 v=0
1490776 On ch=1 n=d#4 v=0
1490781 On ch=1 n=g4 v=0
1490786 On ch=1 n=d#5 v=0
1491016 Par ch=1 c=64 v=72
1491031 Par ch=1 c=64 v=24
1491046 Par ch=1 c=64 v=0
1491130 On ch=1 n=g#6 v=97
1491130 On ch=1 n=g#5 v=85
1491140 On ch=1 n=c6 v=89
1491145 On ch=1 n=g#3 v=78
1491150 On ch=1 n=g#2 v=71
1491170 Par ch=1 c=64 v=40
1491185 On ch=1 n=g#2 v=0
1491190 Par ch=1 c=64 v=88
1491195 On ch=1 n=g#5 v=0
1491210 On ch=1 n=g#3 v=0
1491210 On ch=1 n=c6 v=0
1491210 Par ch=1 c=64 v=127
1491240 On ch=1 n=g#6 v=0
1491570 On ch=1 n=d#6 v=82
1491570 On ch=1 n=c7 v=88
1491580 On ch=1 n=c6 v=80
1491595 Par ch=1 c=64 v=104
1491600 On ch=1 n=d#5 v=65
1491610 On ch=1 n=d#4 v=62
1491615 Par ch=1 c=64 v=88
1491635 On ch=1 n=c6 v=0
1491635 On ch=1 n=c7 v=0
1491635 Par ch=1 c=64 v=56
1491650 On ch=1 n=d#5 v=0
1491655 On ch=1 n=d#6 v=0
1491655 Par ch=1 c=64 v=40
1491675 On ch=1 n=d#4 v=0
1491675 Par ch=1 c=64 v=24
1491690 Par ch=1 c=64 v=0
1491770 On ch=1 n=b6 v=97
1491775 On ch=1 n=b5 v=81
1491785 On ch=1 n=d6 v=82
1491785 On ch=1 n=d5 v=73
1491795 On ch=1 n=d#4 v=65
1491815 On ch=1 n=d6 v=0
1491835 On ch=1 n=b5 v=0
1491855 On ch=1 n=d#4 v=0
1491855 On ch=1 n=d5 v=0
1491865 On ch=1 n=b6 v=0
1491975 On ch=1 n=d#5 v=82
1491980 On ch=1 n=c7 v=99
1491985 On ch=1 n=c6 v=89
1491985 On ch=1 n=d#6 v=88
1491985 On ch=1 n=d#4 v=64
1492035 On ch=1 n=d#4 v=0
1492050 On ch=1 n=d#5 v=0
1492055 On ch=1 n=c6 v=0
1492120 On ch=1 n=c7 v=0
1492125 On ch=1 n=d#6 v=0
1492405 On ch=1 n=c#7 v=99
1492410 On ch=1 n=c#6 v=92
1492410 On ch=1 n=f6 v=99
1492425 On ch=1 n=f5 v=84
1492425 On ch=1 n=c#5 v=75
1492430 On ch=1 n=g#4 v=71
1492485 Par ch=1 c=64 v=40
1492505 Par ch=1 c=64 v=88
1492525 Par ch=1 c=64 v=127
1492530 On ch=1 n=f6 v=0
1492540 On ch=1 n=c#6 v=0
1492560 On ch=1 n=f5 v=0
1492590 On ch=1 n=c#7 v=0
1492615 On ch=1 n=g#4 v=0
1492640 On ch=1 n=c#5 v=0
1492700 Par ch=1 c=64 v=88
1492720 Par ch=1 c=64 v=72
1492735 Par ch=1 c=64 v=56
1492760 Par ch=1 c=64 v=40
1492780 Par ch=1 c=64 v=24
1492795 Par ch=1 c=64 v=0
1492830 On ch=1 n=c7 v=93
1492835 On ch=1 n=d#6 v=81
1492840 On ch=1 n=c6 v=77
1492845 On ch=1 n=c5 v=74
1492850 On ch=1 n=g#4 v=55
1492855 On ch=1 n=d#5 v=60
1492875 On ch=1 n=c6 v=0
1492905 On ch=1 n=d#6 v=0
1492910 On ch=1 n=d#5 v=0
1492910 On ch=1 n=c7 v=0
1492925 On ch=1 n=c5 v=0
1492940 On ch=1 n=g#4 v=0
1493015 On ch=1 n=a#6 v=85
1493025 On ch=1 n=a#5 v=82
1493035 On ch=1 n=c#5 v=67
1493035 On ch=1 n=c#6 v=75
1493035 On ch=1 n=g#4 v=49
1493070 On ch=1 n=c#6 v=0
1493090 On ch=1 n=a#5 v=0
1493125 On ch=1 n=g#4 v=0
1493125 On ch=1 n=a#6 v=0
1493140 On ch=1 n=c#5 v=0
1493245 On ch=1 n=g#6 v=91
1493250 On ch=1 n=g#5 v=76
1493255 On ch=1 n=c5 v=75
1493255 On ch=1 n=g#4 v=55
1493260 On ch=1 n=c6 v=75
1493325 On ch=1 n=c5 v=0
1493335 On ch=1 n=g#5 v=0
1493350 On ch=1 n=g#4 v=0
1493360 On ch=1 n=c6 v=0
1493400 On ch=1 n=g#6 v=0
1493665 On ch=1 n=g#6 v=95
1493670 On ch=1 n=g#5 v=83
1493670 On ch=1 n=d#4 v=100
1493675 On ch=1 n=d#3 v=79
1493680 On ch=1 n=c6 v=92
1493725 Par ch=1 c=64 v=56
1493730 On ch=1 n=d#3 v=0
1493735 On ch=1 n=d#4 v=0
1493745 Par ch=1 c=64 v=88
1493755 On ch=1 n=c6 v=0
1493765 Par ch=1 c=64 v=127
1493800 On ch=1 n=g#5 v=0
1493845 On ch=1 n=g#6 v=0
1494055 Par ch=1 c=64 v=104
1494080 Par ch=1 c=64 v=72
1494090 On ch=1 n=g5 v=70
1494090 On ch=1 n=a#5 v=68
1494095 On ch=1 n=g6 v=89
1494095 Par ch=1 c=64 v=56
1494105 On ch=1 n=d#5 v=75
1494110 On ch=1 n=d#4 v=71
1494115 Par ch=1 c=64 v=24
1494130 Par ch=1 c=64 v=0
1494145 On ch=1 n=d#4 v=0
1494155 On ch=1 n=d#5 v=0
1494155 On ch=1 n=g5 v=0
1494165 On ch=1 n=a#5 v=0
1494185 On ch=1 n=g6 v=0
1494280 On ch=1 n=f5 v=82
1494280 On ch=1 n=g#5 v=69
1494280 On ch=1 n=d#4 v=77
1494280 On ch=1 n=f6 v=91
1494315 On ch=1 n=d#5 v=74
1494335 On ch=1 n=g#5 v=0
1494345 On ch=1 n=d#4 v=0
1494350 On ch=1 n=f5 v=0
1494375 On ch=1 n=d#5 v=0
1494375 On ch=1 n=f6 v=0
1494510 On ch=1 n=d#6 v=88
1494515 On ch=1 n=d#5 v=73
1494520 On ch=1 n=g5 v=79
1494520 On ch=1 n=d#4 v=79
1494620 On ch=1 n=d#4 v=0
1494660 On ch=1 n=g5 v=0
1494680 On ch=1 n=d#6 v=0
1494745 On ch=1 n=d#5 v=0
1494925 On ch=1 n=d#6 v=92
1494925 On ch=1 n=d#5 v=85
1494930 On ch=1 n=g5 v=82
1494950 On ch=1 n=d#4 v=80
1494960 Par ch=1 c=64 v=24
1494980 Par ch=1 c=64 v=72
1495000 Par ch=1 c=64 v=88
1495005 On ch=1 n=g5 v=0
1495020 Par ch=1 c=64 v=104
1495025 On ch=1 n=d#5 v=0
1495040 On ch=1 n=d#4 v=0
1495055 On ch=1 n=d#6 v=0
1495135 Par ch=1 c=64 v=88
1495155 Par ch=1 c=64 v=72
1495175 Par ch=1 c=64 v=56
1495195 Par ch=1 c=64 v=40
1495215 Par ch=1 c=64 v=24
1495250 Par ch=1 c=64 v=0
1495350 On ch=1 n=g#5 v=73
1495355 On ch=1 n=f6 v=90
1495355 On ch=1 n=f5 v=76
1495380 On ch=1 n=d#4 v=75
1495380 On ch=1 n=d5 v=70
1495415 On ch=1 n=f5 v=0
1495415 On ch=1 n=g#5 v=0
1495420 On ch=1 n=d5 v=0
1495430 On ch=1 n=f6 v=0
1495445 On ch=1 n=d#4 v=0
1495550 On ch=1 n=g6 v=99
1495550 On ch=1 n=g5 v=87
1495550 On ch=1 n=a#5 v=78
1495550 On ch=1 n=d#4 v=60
1495550 On ch=1 n=c#5 v=73
1495585 On ch=1 n=d#4 v=0
1495605 On ch=1 n=a#5 v=0
1495610 On ch=1 n=c#5 v=0
1495615 On ch=1 n=g5 v=0
1495615 On ch=1 n=g6 v=0
1495740 On ch=1 n=g#6 v=96
1495745 On ch=1 n=g#5 v=74
1495745 On ch=1 n=c5 v=77
1495750 On ch=1 n=d#4 v=75
1495765 On ch=1 n=c6 v=73
1495790 On ch=1 n=c5 v=0
1495805 On ch=1 n=g#5 v=0
1495815 On ch=1 n=c6 v=0
1495815 On ch=1 n=d#4 v=0
1495840 On ch=1 n=g#6 v=0
1495940 On ch=1 n=a#6 v=92
1495940 On ch=1 n=a#4 v=72
1495945 On ch=1 n=a#5 v=91
1495945 On ch=1 n=c#4 v=60
1495950 On ch=1 n=c#6 v=84
1495975 On ch=1 n=c#4 v=0
1495980 On ch=1 n=a#4 v=0
1496015 On ch=1 n=a#5 v=0
1496020 On ch=1 n=c#6 v=0
1496055 On ch=1 n=a#6 v=0
1496185 On ch=1 n=g#6 v=102
1496190 On ch=1 n=g#5 v=89
1496190 On ch=1 n=g#3 v=85
1496190 On ch=1 n=c6 v=98
1496195 On ch=1 n=g#2 v=69
1496235 On ch=1 n=g#2 v=0
1496240 Par ch=1 c=64 v=72
1496245 On ch=1 n=g#3 v=0
1496260 Par ch=1 c=64 v=104
1496270 On ch=1 n=c6 v=0
1496275 On ch=1 n=g#5 v=0
1496280 Par ch=1 c=64 v=127
1496320 On ch=1 n=g#6 v=0
1496570 Par ch=1 c=64 v=104
1496590 Par ch=1 c=64 v=88
1496600 On ch=1 n=c7 v=96
1496600 On ch=1 n=d#6 v=83
1496610 On ch=1 n=c6 v=78
1496610 Par ch=1 c=64 v=56
1496625 On ch=1 n=d#5 v=65
1496625 Par ch=1 c=64 v=24
1496640 On ch=1 n=d#4 v=60
1496645 On ch=1 n=c6 v=0
1496645 Par ch=1 c=64 v=0
1496675 On ch=1 n=d#4 v=0
1496685 On ch=1 n=d#5 v=0
1496685 On ch=1 n=d#6 v=0
1496685 On ch=1 n=c7 v=0
1496795 On ch=1 n=b6 v=96
1496805 On ch=1 n=b5 v=76
1496810 On ch=1 n=d6 v=80
1496815 On ch=1 n=d#4 v=73
1496815 On ch=1 n=d5 v=69
1496840 On ch=1 n=d6 v=0
1496845 On ch=1 n=b5 v=0
1496850 On ch=1 n=d5 v=0
1496875 On ch=1 n=b6 v=0
1496890 On ch=1 n=d#4 v=0
1497005 On ch=1 n=c7 v=97
1497005 On ch=1 n=d#5 v=77
1497005 On ch=1 n=d#6 v=81
1497005 On ch=1 n=d#4 v=71
1497010 On ch=1 n=c6 v=92
1497065 On ch=1 n=d#4 v=0
1497085 On ch=1 n=d#5 v=0
1497095 On ch=1 n=c6 v=0
1497130 On ch=1 n=d#6 v=0
1497170 On ch=1 n=c7 v=0
1497435 On ch=1 n=c#7 v=97
1497445 On ch=1 n=c#6 v=88
1497450 On ch=1 n=f6 v=96
1497455 On ch=1 n=g#4 v=68
1497455 On ch=1 n=c#5 v=70
1497460 On ch=1 n=f5 v=76
1497480 Par ch=1 c=64 v=24
1497500 Par ch=1 c=64 v=72
1497520 Par ch=1 c=64 v=104
1497540 Par ch=1 c=64 v=127
1497585 On ch=1 n=f6 v=0
1497590 On ch=1 n=f5 v=0
1497620 On ch=1 n=c#6 v=0
1497635 On ch=1 n=g#4 v=0
1497655 On ch=1 n=c#5 v=0
1497735 On ch=1 n=c#7 v=0
1497790 Par ch=1 c=64 v=104
1497830 Par ch=1 c=64 v=88
1497850 Par ch=1 c=64 v=56
1497860 On ch=1 n=c7 v=87
1497860 On ch=1 n=d#6 v=79
1497865 Par ch=1 c=64 v=40
1497870 On ch=1 n=c6 v=70
1497880 On ch=1 n=d#5 v=60
1497880 On ch=1 n=g#4 v=54
1497885 On ch=1 n=c5 v=64
1497885 Par ch=1 c=64 v=24
1497905 On ch=1 n=c6 v=0
1497905 Par ch=1 c=64 v=0
1497925 On ch=1 n=c5 v=0
1497935 On ch=1 n=c7 v=0
1497945 On ch=1 n=d#5 v=0
1497950 On ch=1 n=d#6 v=0
1497965 On ch=1 n=g#4 v=0
1498050 On ch=1 n=a#6 v=84
1498060 On ch=1 n=a#5 v=71
1498065 On ch=1 n=c#6 v=83
1498065 On ch=1 n=c#5 v=63
1498070 On ch=1 n=g#4 v=57
1498070 On ch=1 n=a#4 v=59
1498115 On ch=1 n=a#4 v=0
1498115 On ch=1 n=a#5 v=0
1498130 On ch=1 n=g#4 v=0
1498130 On ch=1 n=c#6 v=0
1498145 On ch=1 n=c#5 v=0
1498150 On ch=1 n=a#6 v=0
1498265 On ch=1 n=g#6 v=89
1498265 On ch=1 n=g#5 v=73
1498265 On ch=1 n=g#4 v=49
1498275 On ch=1 n=c6 v=82
1498275 On ch=1 n=c5 v=74
1498310 On ch=1 n=c5 v=0
1498365 On ch=1 n=g#4 v=0
1498375 On ch=1 n=c6 v=0
1498380 On ch=1 n=g#5 v=0
1498405 On ch=1 n=g#6 v=0
1498695 On ch=1 n=g#6 v=91
1498700 On ch=1 n=g#5 v=80
1498705 On ch=1 n=c3 v=87
1498710 On ch=1 n=c6 v=93
1498710 On ch=1 n=c4 v=107
1498740 Par ch=1 c=64 v=56
1498760 On ch=1 n=c3 v=0
1498760 Par ch=1 c=64 v=104
1498775 Par ch=1 c=64 v=127
1498785 On ch=1 n=c4 v=0
1498805 On ch=1 n=c6 v=0
1498825 On ch=1 n=g#5 v=0
1498900 On ch=1 n=g#6 v=0
1499030 Par ch=1 c=64 v=104
1499050 Par ch=1 c=64 v=88
1499090 Par ch=1 c=64 v=56
1499110 Par ch=1 c=64 v=40
1499125 On ch=1 n=g6 v=78
1499125 On ch=1 n=a#5 v=64
1499125 Par ch=1 c=64 v=24
1499140 On ch=1 n=g5 v=60
1499145 Par ch=1 c=64 v=0
1499155 On ch=1 n=c5 v=78
1499160 On ch=1 n=c4 v=76
1499185 On ch=1 n=g5 v=0
1499195 On ch=1 n=c4 v=0
1499200 On ch=1 n=c5 v=0
1499205 On ch=1 n=g6 v=0
1499210 On ch=1 n=a#5 v=0
1499325 On ch=1 n=f6 v=88
1499325 On ch=1 n=g#5 v=73
1499325 On ch=1 n=f5 v=71
1499350 On ch=1 n=c5 v=71
1499365 On ch=1 n=c4 v=63
1499380 On ch=1 n=f5 v=0
1499390 On ch=1 n=c5 v=0
1499390 On ch=1 n=g#5 v=0
1499395 On ch=1 n=f6 v=0
1499400 On ch=1 n=c4 v=0
1499520 On ch=1 n=e6 v=90
1499520 On ch=1 n=e5 v=80
1499520 On ch=1 n=g5 v=60
1499540 On ch=1 n=c5 v=74
1499540 On ch=1 n=c4 v=74
1499580 On ch=1 n=g5 v=0
1499580 On ch=1 n=e5 v=0
1499590 On ch=1 n=c4 v=0
1499590 On ch=1 n=c5 v=0
1499605 On ch=1 n=e6 v=0
1499720 On ch=1 n=c5 v=79
1499725 On ch=1 n=a#5 v=85
1499725 On ch=1 n=g6 v=90
1499725 On ch=1 n=c4 v=76
1499730 On ch=1 n=g5 v=81
1499750 On ch=1 n=c5 v=0
1499780 On ch=1 n=g5 v=0
1499785 On ch=1 n=c4 v=0
1499790 On ch=1 n=a#5 v=0
1499800 On ch=1 n=g6 v=0
1499955 On ch=1 n=f6 v=97
1499955 On ch=1 n=f5 v=82
1499955 On ch=1 n=g#5 v=81
1499970 On ch=1 n=f4 v=75
1499975 On ch=1 n=f3 v=74
1500000 Par ch=1 c=64 v=40
1500010 On ch=1 n=f3 v=0
1500020 Par ch=1 c=64 v=88
1500035 On ch=1 n=f4 v=0
1500035 Par ch=1 c=64 v=127
1500320 On ch=1 n=f5 v=0
1500340 On ch=1 n=g#5 v=0
1500365 On ch=1 n=c5 v=83
1500380 On ch=1 n=f6 v=0
1500385 On ch=1 n=c4 v=82
1500405 Par ch=1 c=64 v=104
1500425 Par ch=1 c=64 v=88
1500445 Par ch=1 c=64 v=72
1500450 On ch=1 n=c5 v=0
1500455 On ch=1 n=c4 v=0
1500485 Par ch=1 c=64 v=56
1500500 Par ch=1 c=64 v=40
1500520 Par ch=1 c=64 v=24
1500540 Par ch=1 c=64 v=0
1500575 On ch=1 n=b4 v=85
1500585 On ch=1 n=b3 v=79
1500660 On ch=1 n=b3 v=0
1500675 On ch=1 n=b4 v=0
1500810 On ch=1 n=g#6 v=96
1500820 On ch=1 n=g#5 v=85
1500825 On ch=1 n=c6 v=94
1500850 On ch=1 n=c5 v=84
1500860 On ch=1 n=c4 v=74
1500915 On ch=1 n=c5 v=0
1500950 On ch=1 n=c4 v=0
1500950 On ch=1 n=c6 v=0
1500955 On ch=1 n=g#5 v=0
1500965 Par ch=1 c=64 v=24
1500995 On ch=1 n=g#6 v=0
1501045 Par ch=1 c=64 v=0
1501250 On ch=1 n=g#5 v=89
1501250 On ch=1 n=g#6 v=99
1501260 On ch=1 n=c6 v=96
1501265 On ch=1 n=g#3 v=84
1501280 On ch=1 n=g#2 v=83
1501325 On ch=1 n=c6 v=0
1501330 On ch=1 n=g#2 v=0
1501330 On ch=1 n=g#3 v=0
1501330 On ch=1 n=g#5 v=0
1501335 Par ch=1 c=64 v=72
1501355 Par ch=1 c=64 v=127
1501400 On ch=1 n=g#6 v=0
1501645 Par ch=1 c=64 v=104
1501660 Par ch=1 c=64 v=72
1501675 On ch=1 n=d#6 v=85
1501680 On ch=1 n=c7 v=92
1501680 Par ch=1 c=64 v=56
1501690 On ch=1 n=c6 v=85
1501700 On ch=1 n=d#5 v=71
1501700 Par ch=1 c=64 v=24
1501710 On ch=1 n=d#4 v=68
1501720 Par ch=1 c=64 v=0
1501740 On ch=1 n=c6 v=0
1501745 On ch=1 n=d#5 v=0
1501750 On ch=1 n=c7 v=0
1501765 On ch=1 n=d#6 v=0
1501775 On ch=1 n=d#4 v=0
1501875 On ch=1 n=b6 v=100
1501875 On ch=1 n=d6 v=87
1501875 On ch=1 n=b5 v=80
1501885 On ch=1 n=d5 v=72
1501895 On ch=1 n=d#4 v=76
1501925 On ch=1 n=d5 v=0
1501930 On ch=1 n=b5 v=0
1501940 On ch=1 n=d6 v=0
1501955 On ch=1 n=d#4 v=0
1501975 On ch=1 n=b6 v=0
1502080 On ch=1 n=d#5 v=77
1502085 On ch=1 n=d#4 v=73
1502090 On ch=1 n=c7 v=96
1502095 On ch=1 n=d#6 v=85
1502095 On ch=1 n=c6 v=84
1502155 On ch=1 n=d#4 v=0
1502165 On ch=1 n=d#5 v=0
1502185 On ch=1 n=c6 v=0
1502235 On ch=1 n=d#6 v=0
1502260 On ch=1 n=c7 v=0
1502505 On ch=1 n=c#7 v=96
1502510 On ch=1 n=c#6 v=90
1502515 On ch=1 n=f6 v=96
1502525 On ch=1 n=f5 v=84
1502525 On ch=1 n=g#4 v=71
1502530 On ch=1 n=c#5 v=75
1502570 Par ch=1 c=64 v=24
1502590 Par ch=1 c=64 v=88
1502610 Par ch=1 c=64 v=127
1502640 On ch=1 n=f6 v=0
1502660 On ch=1 n=f5 v=0
1502680 On ch=1 n=c#6 v=0
1502690 On ch=1 n=g#4 v=0
1502725 On ch=1 n=c#7 v=0
1502735 On ch=1 n=c#5 v=0
1502845 Par ch=1 c=64 v=104
1502865 Par ch=1 c=64 v=88
1502885 Par ch=1 c=64 v=72
1502905 Par ch=1 c=64 v=56
1502910 On ch=1 n=c7 v=92
1502920 On ch=1 n=d#6 v=79
1502920 On ch=1 n=c6 v=82
1502920 Par ch=1 c=64 v=40
1502935 On ch=1 n=c5 v=69
1502940 On ch=1 n=d#5 v=56
1502940 On ch=1 n=g#4 v=52
1502945 Par ch=1 c=64 v=0
1502960 On ch=1 n=c6 v=0
1502980 On ch=1 n=c5 v=0
1502985 On ch=1 n=c7 v=0
1502990 On ch=1 n=d#6 v=0
1503005 On ch=1 n=d#5 v=0
1503030 On ch=1 n=g#4 v=0
1503105 On ch=1 n=a#6 v=83
1503105 On ch=1 n=g#4 v=47
1503115 On ch=1 n=a#5 v=78
1503120 On ch=1 n=c#6 v=81
1503125 On ch=1 n=c#5 v=60
1503150 On ch=1 n=a#4 v=32
1503180 On ch=1 n=a#5 v=0
1503185 On ch=1 n=c#6 v=0
1503205 On ch=1 n=a#4 v=0
1503205 On ch=1 n=c#5 v=0
1503215 On ch=1 n=g#4 v=0
1503220 On ch=1 n=a#6 v=0
1503315 On ch=1 n=g#6 v=87
1503320 On ch=1 n=g#5 v=75
1503335 On ch=1 n=c6 v=88
1503335 On ch=1 n=c5 v=72
1503335 On ch=1 n=g#4 v=59
1503385 On ch=1 n=c5 v=0
1503430 On ch=1 n=g#4 v=0
1503445 On ch=1 n=c6 v=0
1503485 On ch=1 n=g#5 v=0
1503495 On ch=1 n=g#6 v=0
1503745 On ch=1 n=g#6 v=91
1503750 On ch=1 n=g#5 v=85
1503760 On ch=1 n=c6 v=90
1503760 On ch=1 n=d#3 v=82
1503760 On ch=1 n=d#4 v=106
1503815 Par ch=1 c=64 v=56
1503820 On ch=1 n=d#4 v=0
1503820 On ch=1 n=d#3 v=0
1503835 Par ch=1 c=64 v=104
1503850 On ch=1 n=c6 v=0
1503850 Par ch=1 c=64 v=127
1503895 On ch=1 n=g#5 v=0
1503945 On ch=1 n=g#6 v=0
1504120 Par ch=1 c=64 v=104
1504145 Par ch=1 c=64 v=88
1504160 On ch=1 n=g6 v=91
1504160 Par ch=1 c=64 v=72
1504170 On ch=1 n=a#5 v=70
1504175 On ch=1 n=g5 v=62
1504185 Par ch=1 c=64 v=56
1504190 On ch=1 n=d#4 v=73
1504190 On ch=1 n=d#5 v=73
1504200 Par ch=1 c=64 v=24
1504210 On ch=1 n=g5 v=0
1504220 Par ch=1 c=64 v=0
1504225 On ch=1 n=d#4 v=0
1504235 On ch=1 n=a#5 v=0
1504235 On ch=1 n=g6 v=0
1504245 On ch=1 n=d#5 v=0
1504350 On ch=1 n=f6 v=92
1504355 On ch=1 n=f5 v=77
1504360 On ch=1 n=g#5 v=68
1504375 On ch=1 n=d#5 v=75
1504375 On ch=1 n=d#4 v=78
1504430 On ch=1 n=f5 v=0
1504440 On ch=1 n=d#4 v=0
1504440 On ch=1 n=d#5 v=0
1504440 On ch=1 n=g#5 v=0
1504450 On ch=1 n=f6 v=0
1504580 On ch=1 n=d#6 v=85
1504585 On ch=1 n=d#5 v=78
1504585 On ch=1 n=d#4 v=83
1504595 On ch=1 n=g5 v=76
1504680 On ch=1 n=d#4 v=0
1504680 On ch=1 n=d#5 v=0
1504735 On ch=1 n=g5 v=0
1504775 On ch=1 n=d#6 v=0
1505005 On ch=1 n=d#6 v=95
1505005 On ch=1 n=d#5 v=87
1505010 On ch=1 n=g5 v=85
1505025 On ch=1 n=d#4 v=81
1505055 Par ch=1 c=64 v=24
1505075 Par ch=1 c=64 v=72
1505090 On ch=1 n=g5 v=0
1505095 Par ch=1 c=64 v=104
1505105 On ch=1 n=d#5 v=0
1505110 Par ch=1 c=64 v=127
1505115 On ch=1 n=d#4 v=0
1505130 On ch=1 n=d#6 v=0
1505385 Par ch=1 c=64 v=104
1505405 Par ch=1 c=64 v=88
1505420 On ch=1 n=g#5 v=76
1505420 On ch=1 n=f6 v=88
1505420 On ch=1 n=f5 v=74
1505440 On ch=1 n=d5 v=68
1505440 On ch=1 n=d#4 v=64
1505440 Par ch=1 c=64 v=56
1505460 Par ch=1 c=64 v=40
1505470 On ch=1 n=f5 v=0
1505475 On ch=1 n=d5 v=0
1505480 On ch=1 n=g#5 v=0
1505480 Par ch=1 c=64 v=24
1505485 On ch=1 n=f6 v=0
1505500 Par ch=1 c=64 v=0
1505515 On ch=1 n=d#4 v=0
1505615 On ch=1 n=g6 v=96
1505615 On ch=1 n=g5 v=83
1505620 On ch=1 n=a#5 v=78
1505620 On ch=1 n=c#5 v=65
1505645 On ch=1 n=d#4 v=48
1505670 On ch=1 n=c#5 v=0
1505675 On ch=1 n=d#4 v=0
1505675 On ch=1 n=g5 v=0
1505675 On ch=1 n=g6 v=0
1505685 On ch=1 n=a#5 v=0
1505810 On ch=1 n=d#4 v=71
1505815 On ch=1 n=g#6 v=89
1505815 On ch=1 n=c5 v=70
1505820 On ch=1 n=g#5 v=76
1505850 On ch=1 n=c5 v=0
1505850 On ch=1 n=c6 v=48
1505855 On ch=1 n=b5 v=37
1505885 On ch=1 n=g#5 v=0
1505885 On ch=1 n=d#4 v=0
1505890 On ch=1 n=c6 v=0
1505895 On ch=1 n=b5 v=0
1505915 On ch=1 n=g#6 v=0
1506000 On ch=1 n=a#4 v=65
1506010 On ch=1 n=a#6 v=92
1506015 On ch=1 n=a#5 v=90
1506020 On ch=1 n=c#4 v=51
1506020 On ch=1 n=c#6 v=80
1506040 On ch=1 n=a#4 v=0
1506050 On ch=1 n=c#4 v=0
1506095 On ch=1 n=c#6 v=0
1506095 On ch=1 n=a#5 v=0
1506130 On ch=1 n=a#6 v=0
1506260 On ch=1 n=g#6 v=97
1506265 On ch=1 n=g#5 v=85
1506265 On ch=1 n=c6 v=90
1506275 On ch=1 n=g#3 v=90
1506280 On ch=1 n=g#2 v=95
1506315 On ch=1 n=g#2 v=0
1506330 On ch=1 n=g#3 v=0
1506335 On ch=1 n=c6 v=0
1506335 Par ch=1 c=64 v=40
1506340 On ch=1 n=g#5 v=0
1506350 Par ch=1 c=64 v=88
1506370 Par ch=1 c=64 v=127
1506380 On ch=1 n=g#6 v=0
1506675 On ch=1 n=d#6 v=81
1506675 On ch=1 n=c7 v=89
1506680 On ch=1 n=c6 v=82
1506690 On ch=1 n=d#5 v=74
1506695 On ch=1 n=d#4 v=69
1506740 Par ch=1 c=64 v=104
1506750 On ch=1 n=c6 v=0
1506750 On ch=1 n=c7 v=0
1506760 On ch=1 n=d#5 v=0
1506760 Par ch=1 c=64 v=72
1506765 On ch=1 n=d#6 v=0
1506770 On ch=1 n=d#4 v=0
1506780 Par ch=1 c=64 v=56
1506795 Par ch=1 c=64 v=24
1506815 Par ch=1 c=64 v=0
1506865 On ch=1 n=b6 v=94
1506870 On ch=1 n=d6 v=84
1506875 On ch=1 n=b5 v=74
1506880 On ch=1 n=d5 v=83
1506885 On ch=1 n=d#4 v=85
1506915 On ch=1 n=b5 v=0
1506935 On ch=1 n=d6 v=0
1506945 On ch=1 n=d#4 v=0
1506955 On ch=1 n=d5 v=0
1506960 On ch=1 n=b6 v=0
1507085 On ch=1 n=c7 v=99
1507085 On ch=1 n=c6 v=96
1507090 On ch=1 n=d#6 v=84
1507095 On ch=1 n=d#5 v=77
1507100 On ch=1 n=d#4 v=77
1507145 Par ch=1 c=64 v=24
1507150 On ch=1 n=d#4 v=0
1507170 On ch=1 n=d#5 v=0
1507210 On ch=1 n=c6 v=0
1507245 On ch=1 n=c7 v=0
1507245 Par ch=1 c=64 v=0
1507260 On ch=1 n=d#6 v=0
1507520 On ch=1 n=c#7 v=97
1507525 On ch=1 n=c#6 v=92
1507530 On ch=1 n=f6 v=96
1507540 On ch=1 n=g#4 v=72
1507545 On ch=1 n=f5 v=86
1507545 On ch=1 n=c#5 v=75
1507575 Par ch=1 c=64 v=40
1507590 Par ch=1 c=64 v=88
1507610 Par ch=1 c=64 v=104
1507630 Par ch=1 c=64 v=127
1507680 On ch=1 n=f6 v=0
1507690 On ch=1 n=f5 v=0
1507720 On ch=1 n=c#6 v=0
1507745 On ch=1 n=c#5 v=0
1507760 On ch=1 n=g#4 v=0
1507775 On ch=1 n=c#7 v=0
1507825 Par ch=1 c=64 v=104
1507880 Par ch=1 c=64 v=72
1507920 Par ch=1 c=64 v=56
1507925 On ch=1 n=c7 v=93
1507930 On ch=1 n=c6 v=82
1507935 On ch=1 n=d#6 v=80
1507940 Par ch=1 c=64 v=40
1507950 On ch=1 n=g#4 v=54
1507955 On ch=1 n=d#5 v=56
1507960 On ch=1 n=c5 v=63
1507960 Par ch=1 c=64 v=24
1507980 Par ch=1 c=64 v=0
1507990 On ch=1 n=c7 v=0
1507995 On ch=1 n=c5 v=0
1508000 On ch=1 n=c6 v=0
1508010 On ch=1 n=d#5 v=0
1508015 On ch=1 n=d#6 v=0
1508035 On ch=1 n=g#4 v=0
1508115 On ch=1 n=a#6 v=84
1508125 On ch=1 n=a#5 v=80
1508135 On ch=1 n=c#6 v=77
1508140 On ch=1 n=c#5 v=61
1508140 On ch=1 n=g#4 v=43
1508170 On ch=1 n=a#4 v=32
1508195 On ch=1 n=a#5 v=0
1508205 On ch=1 n=c#6 v=0
1508215 On ch=1 n=a#4 v=0
1508225 On ch=1 n=c#5 v=0
1508225 On ch=1 n=a#6 v=0
1508240 On ch=1 n=g#4 v=0
1508330 On ch=1 n=g#6 v=90
1508330 On ch=1 n=g#4 v=36
1508340 On ch=1 n=g#5 v=77
1508340 On ch=1 n=c5 v=76
1508345 On ch=1 n=c6 v=89
1508385 Par ch=1 c=64 v=24
1508400 On ch=1 n=c5 v=0
1508425 On ch=1 n=g#4 v=0
1508480 On ch=1 n=c6 v=0
1508505 On ch=1 n=g#5 v=0
1508505 On ch=1 n=g#6 v=0
1508505 Par ch=1 c=64 v=0
1508770 On ch=1 n=c3 v=93
1508770 On ch=1 n=g#6 v=89
1508775 On ch=1 n=g#5 v=79
1508775 On ch=1 n=c4 v=107
1508785 On ch=1 n=c6 v=89
1508830 Par ch=1 c=64 v=24
1508840 On ch=1 n=c3 v=0
1508850 Par ch=1 c=64 v=72
1508870 On ch=1 n=c4 v=0
1508870 Par ch=1 c=64 v=127
1508885 On ch=1 n=c6 v=0
1508905 On ch=1 n=g#5 v=0
1508975 On ch=1 n=g#6 v=0
1509105 Par ch=1 c=64 v=104
1509140 Par ch=1 c=64 v=88
1509160 Par ch=1 c=64 v=72
1509180 Par ch=1 c=64 v=40
1509190 On ch=1 n=g6 v=85
1509190 On ch=1 n=a#5 v=70
1509200 On ch=1 n=g5 v=63
1509200 Par ch=1 c=64 v=24
1509220 Par ch=1 c=64 v=0
1509225 On ch=1 n=c5 v=74
1509230 On ch=1 n=c4 v=74
1509255 On ch=1 n=g5 v=0
1509260 On ch=1 n=c4 v=0
1509265 On ch=1 n=c5 v=0
1509275 On ch=1 n=a#5 v=0
1509275 On ch=1 n=g6 v=0
1509400 On ch=1 n=f6 v=87
1509400 On ch=1 n=f5 v=75
1509400 On ch=1 n=g#5 v=72
1509415 On ch=1 n=c5 v=74
1509415 On ch=1 n=c4 v=70
1509450 On ch=1 n=c4 v=0
1509450 On ch=1 n=c5 v=0
1509450 On ch=1 n=f5 v=0
1509465 On ch=1 n=g#5 v=0
1509470 On ch=1 n=f6 v=0
1509595 On ch=1 n=e6 v=90
1509595 On ch=1 n=c5 v=77
1509595 On ch=1 n=c4 v=76
1509595 On ch=1 n=e5 v=77
1509595 On ch=1 n=g5 v=60
1509645 On ch=1 n=e5 v=0
1509655 On ch=1 n=g5 v=0
1509660 On ch=1 n=e6 v=0
1509665 On ch=1 n=c4 v=0
1509665 On ch=1 n=c5 v=0
1509795 On ch=1 n=g6 v=91
1509795 On ch=1 n=g5 v=82
1509795 On ch=1 n=c4 v=70
1509795 On ch=1 n=a#5 v=85
1509795 On ch=1 n=c5 v=74
1509825 On ch=1 n=c5 v=0
1509850 On ch=1 n=c4 v=0
1509850 On ch=1 n=g5 v=0
1509855 On ch=1 n=a#5 v=0
1509870 On ch=1 n=g6 v=0
1510035 On ch=1 n=f6 v=100
1510035 On ch=1 n=f5 v=90
1510040 On ch=1 n=g#5 v=89
1510075 On ch=1 n=f3 v=69
1510080 On ch=1 n=f4 v=69
1510090 Par ch=1 c=64 v=56
1510110 On ch=1 n=f3 v=0
1510110 Par ch=1 c=64 v=104
1510130 Par ch=1 c=64 v=127
1510165 On ch=1 n=f4 v=0
1510400 On ch=1 n=f5 v=0
1510435 On ch=1 n=g#5 v=0
1510435 On ch=1 n=c5 v=83
1510445 On ch=1 n=c4 v=80
1510470 On ch=1 n=f6 v=0
1510480 Par ch=1 c=64 v=104
1510495 Par ch=1 c=64 v=88
1510505 On ch=1 n=c5 v=0
1510515 On ch=1 n=c4 v=0
1510515 Par ch=1 c=64 v=56
1510535 Par ch=1 c=64 v=40
1510555 Par ch=1 c=64 v=24
1510575 Par ch=1 c=64 v=0
1510650 On ch=1 n=b4 v=82
1510660 On ch=1 n=b3 v=80
1510725 On ch=1 n=b3 v=0
1510730 On ch=1 n=b4 v=0
1510860 On ch=1 n=g#6 v=90
1510865 On ch=1 n=g#5 v=82
1510875 On ch=1 n=c6 v=92
1510880 On ch=1 n=c5 v=80
1510890 On ch=1 n=c4 v=78
1510950 On ch=1 n=c4 v=0
1510970 On ch=1 n=c5 v=0
1511005 On ch=1 n=c6 v=0
1511005 On ch=1 n=g#5 v=0
1511060 On ch=1 n=g#6 v=0
1511285 On ch=1 n=g#6 v=96
1511290 On ch=1 n=g#5 v=95
1511295 On ch=1 n=d#6 v=85
1511305 On ch=1 n=f5 v=82
1511320 On ch=1 n=f4 v=74
1511330 Par ch=1 c=64 v=40
1511350 Par ch=1 c=64 v=104
1511370 On ch=1 n=f5 v=0
1511370 Par ch=1 c=64 v=127
1511390 On ch=1 n=f4 v=0
1511400 On ch=1 n=g#5 v=0
1511435 On ch=1 n=d#6 v=0
1511465 Par ch=1 c=64 v=104
1511475 On ch=1 n=g#6 v=0
1511485 Par ch=1 c=64 v=56
1511505 Par ch=1 c=64 v=0
1511710 On ch=1 n=g#6 v=93
1511720 On ch=1 n=g#5 v=89
1511720 On ch=1 n=d#6 v=87
1511725 On ch=1 n=c5 v=84
1511725 On ch=1 n=c4 v=84
1511735 Par ch=1 c=64 v=56
1511755 Par ch=1 c=64 v=104
1511775 Par ch=1 c=64 v=127
1511820 On ch=1 n=c4 v=0
1511830 On ch=1 n=g#5 v=0
1511855 On ch=1 n=c5 v=0
1511870 Par ch=1 c=64 v=104
1511885 On ch=1 n=d#6 v=0
1511885 On ch=1 n=g#6 v=0
1511890 Par ch=1 c=64 v=88
1511910 Par ch=1 c=64 v=72
1511930 Par ch=1 c=64 v=40
1511950 Par ch=1 c=64 v=0
1512155 On ch=1 n=a#6 v=89
1512165 On ch=1 n=g#5 v=83
1512165 On ch=1 n=f6 v=93
1512175 On ch=1 n=d5 v=81
1512180 On ch=1 n=d4 v=74
1512200 Par ch=1 c=64 v=56
1512220 Par ch=1 c=64 v=88
1512240 Par ch=1 c=64 v=127
1512265 On ch=1 n=d4 v=0
1512285 On ch=1 n=g#5 v=0
1512305 On ch=1 n=d5 v=0
1512320 On ch=1 n=f6 v=0
1512330 On ch=1 n=a#6 v=0
1512375 Par ch=1 c=64 v=104
1512395 Par ch=1 c=64 v=56
1512415 Par ch=1 c=64 v=0
1512590 On ch=1 n=g#6 v=90
1512590 On ch=1 n=d#5 v=72
1512595 On ch=1 n=g#5 v=90
1512600 On ch=1 n=d#6 v=84
1512600 On ch=1 n=d#4 v=73
1512610 Par ch=1 c=64 v=40
1512630 Par ch=1 c=64 v=72
1512645 Par ch=1 c=64 v=127
1512670 On ch=1 n=d#5 v=0
1512680 On ch=1 n=d#4 v=0
1512730 On ch=1 n=g#5 v=0
1512770 On ch=1 n=d#6 v=0
1512795 On ch=1 n=g#6 v=0
1512900 Par ch=1 c=64 v=72
1512920 Par ch=1 c=64 v=24
1512935 Par ch=1 c=64 v=0
1513010 On ch=1 n=g6 v=90
1513020 On ch=1 n=g5 v=83
1513020 On ch=1 n=d#4 v=84
1513025 On ch=1 n=d#3 v=71
1513075 Par ch=1 c=64 v=24
1513085 On ch=1 n=d#3 v=0
1513085 On ch=1 n=d#4 v=0
1513085 On ch=1 n=g5 v=0
1513095 Par ch=1 c=64 v=72
1513100 On ch=1 n=g6 v=0
1513110 Par ch=1 c=64 v=104
1513130 Par ch=1 c=64 v=127
1513205 On ch=1 n=f6 v=90
1513215 On ch=1 n=f5 v=82
1513225 Par ch=1 c=64 v=104
1513245 Par ch=1 c=64 v=88
1513265 Par ch=1 c=64 v=56
1513285 On ch=1 n=f5 v=0
1513285 Par ch=1 c=64 v=0
1513290 On ch=1 n=f6 v=0
1513430 On ch=1 n=d#6 v=89
1513435 On ch=1 n=d#5 v=77
1513440 On ch=1 n=g4 v=81
1513445 Par ch=1 c=64 v=24
1513450 On ch=1 n=g3 v=66
1513460 Par ch=1 c=64 v=56
1513480 Par ch=1 c=64 v=72
1513500 Par ch=1 c=64 v=88
1513520 On ch=1 n=g4 v=0
1513545 On ch=1 n=g3 v=0
1513545 On ch=1 n=d#5 v=0
1513560 On ch=1 n=d#6 v=0
1513560 Par ch=1 c=64 v=56
1513575 Par ch=1 c=64 v=24
1513595 Par ch=1 c=64 v=0
1513845 On ch=1 n=c#6 v=96
1513845 On ch=1 n=c#5 v=85
1513845 Par ch=1 c=64 v=24
1513860 On ch=1 n=g#5 v=72
1513865 On ch=1 n=f4 v=80
1513865 Par ch=1 c=64 v=72
1513875 On ch=1 n=f3 v=57
1513890 Par ch=1 c=64 v=127
1513915 On ch=1 n=f4 v=0
1513920 On ch=1 n=f3 v=0
1513940 On ch=1 n=c#5 v=0
1513990 On ch=1 n=g#5 v=0
1514005 On ch=1 n=c#6 v=0
1514040 Par ch=1 c=64 v=104
1514060 Par ch=1 c=64 v=72
1514080 Par ch=1 c=64 v=56
1514100 Par ch=1 c=64 v=24
1514120 Par ch=1 c=64 v=0
1514290 On ch=1 n=c#6 v=87
1514290 On ch=1 n=a#2 v=69
1514290 On ch=1 n=c#5 v=85
1514290 On ch=1 n=a#3 v=83
1514300 On ch=1 n=g#5 v=70
1514315 Par ch=1 c=64 v=24
1514330 Par ch=1 c=64 v=72
1514350 Par ch=1 c=64 v=104
1514360 On ch=1 n=a#3 v=0
1514360 On ch=1 n=a#2 v=0
1514370 Par ch=1 c=64 v=127
1514395 On ch=1 n=c#5 v=0
1514405 On ch=1 n=g#5 v=0
1514470 Par ch=1 c=64 v=104
1514475 On ch=1 n=c#6 v=0
1514490 Par ch=1 c=64 v=88
1514505 Par ch=1 c=64 v=72
1514525 Par ch=1 c=64 v=40
1514545 Par ch=1 c=64 v=24
1514565 Par ch=1 c=64 v=0
1514720 On ch=1 n=d#6 v=91
1514730 On ch=1 n=c#5 v=83
1514735 On ch=1 n=d#4 v=84
1514735 On ch=1 n=d#3 v=67
1514740 On ch=1 n=a#5 v=75
1514780 Par ch=1 c=64 v=56
1514795 Par ch=1 c=64 v=88
1514815 On ch=1 n=d#4 v=0
1514815 Par ch=1 c=64 v=127
1514830 On ch=1 n=d#3 v=0
1514845 On ch=1 n=c#5 v=0
1514890 On ch=1 n=d#6 v=0
1514935 Par ch=1 c=64 v=104
1514955 Par ch=1 c=64 v=88
1514970 On ch=1 n=a#5 v=0
1514970 Par ch=1 c=64 v=72
1514990 Par ch=1 c=64 v=56
1515010 Par ch=1 c=64 v=40
1515030 Par ch=1 c=64 v=0
1515160 On ch=1 n=c#6 v=86
1515165 On ch=1 n=g#4 v=78
1515165 On ch=1 n=c#5 v=81
1515170 On ch=1 n=g#5 v=69
1515170 On ch=1 n=g#3 v=63
1515185 Par ch=1 c=64 v=40
1515205 Par ch=1 c=64 v=88
1515220 Par ch=1 c=64 v=104
1515230 On ch=1 n=g#4 v=0
1515235 On ch=1 n=c#5 v=0
1515250 On ch=1 n=g#3 v=0
1515270 On ch=1 n=g#5 v=0
1515280 On ch=1 n=c#6 v=0
1515365 On ch=1 n=c6 v=96
1515365 On ch=1 n=c5 v=88
1515435 Par ch=1 c=64 v=88
1515440 On ch=1 n=c5 v=0
1515455 On ch=1 n=c6 v=0
1515455 Par ch=1 c=64 v=56
1515475 Par ch=1 c=64 v=0
1515565 On ch=1 n=a#5 v=85
1515575 On ch=1 n=a#4 v=70
1515575 On ch=1 n=c4 v=76
1515580 On ch=1 n=d#5 v=75
1515595 On ch=1 n=c3 v=47
1515610 Par ch=1 c=64 v=40
1515615 On ch=1 n=c4 v=0
1515630 Par ch=1 c=64 v=72
1515635 On ch=1 n=c3 v=0
1515640 On ch=1 n=a#4 v=0
1515655 On ch=1 n=a#5 v=0
1515670 On ch=1 n=d#5 v=0
1515705 Par ch=1 c=64 v=40
1515725 Par ch=1 c=64 v=0
1515750 On ch=1 n=g#4 v=78
1515755 On ch=1 n=g#5 v=83
1515820 On ch=1 n=g#4 v=0
1515885 On ch=1 n=g#5 v=0
1515975 On ch=1 n=a#5 v=83
1515980 On ch=1 n=d#3 v=68
1515980 On ch=1 n=d#4 v=85
1515980 On ch=1 n=g5 v=73
1515980 On ch=1 n=a#4 v=69
1515985 On ch=1 n=d#5 v=62
1516015 Par ch=1 c=64 v=40
1516035 Par ch=1 c=64 v=72
1516045 On ch=1 n=d#4 v=0
1516050 On ch=1 n=d#3 v=0
1516055 On ch=1 n=a#4 v=0
1516055 Par ch=1 c=64 v=104
1516070 On ch=1 n=d#5 v=0
1516075 On ch=1 n=g5 v=0
1516075 Par ch=1 c=64 v=127
1516105 On ch=1 n=a#5 v=0
1516170 Par ch=1 c=64 v=104
1516190 Par ch=1 c=64 v=88
1516230 Par ch=1 c=64 v=72
1516270 Par ch=1 c=64 v=56
1516290 Par ch=1 c=64 v=40
1516310 Par ch=1 c=64 v=0
1516405 On ch=1 n=g#5 v=87
1516415 On ch=1 n=g#4 v=82
1516420 On ch=1 n=d#5 v=78
1516430 On ch=1 n=f4 v=74
1516435 On ch=1 n=f3 v=70
1516480 Par ch=1 c=64 v=40
1516495 On ch=1 n=g#4 v=0
1516500 On ch=1 n=f4 v=0
1516500 Par ch=1 c=64 v=72
1516515 On ch=1 n=f3 v=0
1516520 Par ch=1 c=64 v=104
1516530 On ch=1 n=d#5 v=0
1516540 Par ch=1 c=64 v=127
1516550 On ch=1 n=g#5 v=0
1516695 Par ch=1 c=64 v=104
1516715 Par ch=1 c=64 v=88
1516735 Par ch=1 c=64 v=56
1516755 Par ch=1 c=64 v=24
1516775 Par ch=1 c=64 v=0
1516850 On ch=1 n=g#4 v=87
1516855 On ch=1 n=g#5 v=85
1516860 On ch=1 n=c4 v=86
1516860 On ch=1 n=c3 v=70
1516865 On ch=1 n=d#5 v=71
1516910 Par ch=1 c=64 v=24
1516920 On ch=1 n=c3 v=0
1516930 Par ch=1 c=64 v=72
1516940 On ch=1 n=c4 v=0
1516945 Par ch=1 c=64 v=127
1516950 On ch=1 n=g#4 v=0
1516960 On ch=1 n=d#5 v=0
1517025 On ch=1 n=g#5 v=0
1517025 Par ch=1 c=64 v=104
1517045 Par ch=1 c=64 v=88
1517060 Par ch=1 c=64 v=56
1517080 Par ch=1 c=64 v=40
1517100 Par ch=1 c=64 v=0
1517280 On ch=1 n=a#5 v=85
1517290 On ch=1 n=g#4 v=76
1517295 On ch=1 n=f5 v=82
1517295 On ch=1 n=d4 v=85
1517305 On ch=1 n=d3 v=72
1517315 Par ch=1 c=64 v=24
1517335 Par ch=1 c=64 v=88
1517355 Par ch=1 c=64 v=127
1517370 On ch=1 n=d3 v=0
1517375 On ch=1 n=d4 v=0
1517385 On ch=1 n=g#4 v=0
1517435 On ch=1 n=a#5 v=0
1517440 On ch=1 n=f5 v=0
1517490 Par ch=1 c=64 v=88
1517510 Par ch=1 c=64 v=72
1517525 Par ch=1 c=64 v=56
1517545 Par ch=1 c=64 v=40
1517565 Par ch=1 c=64 v=24
1517590 Par ch=1 c=64 v=0
1517720 On ch=1 n=g#5 v=86
1517725 On ch=1 n=g#4 v=85
1517725 On ch=1 n=d#5 v=80
1517730 On ch=1 n=d#4 v=82
1517740 On ch=1 n=d#3 v=65
1517760 Par ch=1 c=64 v=40
1517780 Par ch=1 c=64 v=88
1517790 On ch=1 n=d#4 v=0
1517800 Par ch=1 c=64 v=127
1517810 On ch=1 n=d#3 v=0
1517825 On ch=1 n=g#4 v=0
1517850 On ch=1 n=d#5 v=0
1517905 On ch=1 n=g#5 v=0
1518050 Par ch=1 c=64 v=72
1518070 Par ch=1 c=64 v=0
1518130 On ch=1 n=g5 v=84
1518135 On ch=1 n=d#3 v=73
1518135 On ch=1 n=d#5 v=54
1518140 On ch=1 n=g4 v=82
1518155 On ch=1 n=d#2 v=52
1518185 On ch=1 n=d#2 v=0
1518185 Par ch=1 c=64 v=40
1518190 On ch=1 n=g4 v=0
1518195 On ch=1 n=d#5 v=0
1518200 On ch=1 n=g5 v=0
1518205 On ch=1 n=d#3 v=0
1518205 Par ch=1 c=64 v=104
1518225 Par ch=1 c=64 v=127
1518305 Par ch=1 c=64 v=104
1518320 On ch=1 n=f5 v=85
1518320 Par ch=1 c=64 v=88
1518325 On ch=1 n=f4 v=84
1518340 Par ch=1 c=64 v=72
1518360 Par ch=1 c=64 v=56
1518380 Par ch=1 c=64 v=40
1518395 On ch=1 n=f4 v=0
1518400 Par ch=1 c=64 v=24
1518405 On ch=1 n=f5 v=0
1518420 Par ch=1 c=64 v=0
1518530 On ch=1 n=d#5 v=85
1518535 On ch=1 n=d#4 v=84
1518540 On ch=1 n=g3 v=82
1518550 On ch=1 n=g2 v=68
1518555 Par ch=1 c=64 v=72
1518575 Par ch=1 c=64 v=127
1518585 On ch=1 n=g2 v=0
1518615 On ch=1 n=d#4 v=0
1518620 On ch=1 n=g3 v=0
1518640 On ch=1 n=d#5 v=0
1518650 Par ch=1 c=64 v=104
1518670 Par ch=1 c=64 v=88
1518690 Par ch=1 c=64 v=56
1518710 Par ch=1 c=64 v=24
1518730 Par ch=1 c=64 v=0
1518965 On ch=1 n=d#5 v=77
1518965 On ch=1 n=d#4 v=74
1518985 On ch=1 n=f#4 v=60
1518990 On ch=1 n=b3 v=71
1519000 On ch=1 n=b4 v=56
1519000 Par ch=1 c=64 v=40
1519020 Par ch=1 c=64 v=88
1519040 Par ch=1 c=64 v=127
1519045 On ch=1 n=b4 v=0
1519065 On ch=1 n=d#4 v=0
1519080 On ch=1 n=f#4 v=0
1519095 On ch=1 n=b3 v=0
1519145 On ch=1 n=d#5 v=0
1519415 On ch=1 n=d#5 v=85
1519420 On ch=1 n=b2 v=81
1519425 On ch=1 n=d#4 v=81
1519430 On ch=1 n=f#4 v=69
1519440 On ch=1 n=b4 v=70
1519445 Par ch=1 c=64 v=104
1519465 Par ch=1 c=64 v=24
1519485 Par ch=1 c=64 v=0
1519560 On ch=1 n=f#4 v=0
1519560 On ch=1 n=d#4 v=0
1519560 Par ch=1 c=64 v=24
1519565 On ch=1 n=b4 v=0
1519580 Par ch=1 c=64 v=72
1519600 Par ch=1 c=64 v=127
1519625 On ch=1 n=d#5 v=0
1519630 On ch=1 n=b2 v=0
1519860 On ch=1 n=d#5 v=88
1519865 On ch=1 n=d#3 v=86
1519865 On ch=1 n=d#4 v=84
1519875 On ch=1 n=f#4 v=72
1519875 Par ch=1 c=64 v=88
1519885 On ch=1 n=b4 v=67
1519895 Par ch=1 c=64 v=0
1519990 Par ch=1 c=64 v=40
1520010 Par ch=1 c=64 v=127
1520015 On ch=1 n=b4 v=0
1520025 On ch=1 n=d#4 v=0
1520065 On ch=1 n=f#4 v=0
1520075 On ch=1 n=d#5 v=0
1520095 On ch=1 n=d#3 v=0
1520335 On ch=1 n=c#5 v=87
1520340 On ch=1 n=c#4 v=85
1520345 On ch=1 n=a#4 v=73
1520355 On ch=1 n=f#3 v=85
1520360 Par ch=1 c=64 v=72
1520375 Par ch=1 c=64 v=0
1520550 Par ch=1 c=64 v=88
1520570 Par ch=1 c=64 v=127
1520685 Par ch=1 c=64 v=40
1520705 Par ch=1 c=64 v=0
1520800 Par ch=1 c=64 v=24
1520820 On ch=1 n=f#2 v=82
1520820 Par ch=1 c=64 v=104
1520840 Par ch=1 c=64 v=127
1520925 On ch=1 n=c#4 v=0
1520930 On ch=1 n=f#2 v=0
1520960 On ch=1 n=c#5 v=0
1520980 On ch=1 n=f#3 v=0
1520990 On ch=1 n=a#4 v=0
1521305 Par ch=1 c=64 v=56
1521320 On ch=1 n=d#5 v=90
1521325 On ch=1 n=d#4 v=93
1521325 Par ch=1 c=64 v=0
1521335 On ch=1 n=a#4 v=68
1521350 On ch=1 n=c#5 v=65
1521355 On ch=1 n=g3 v=97
1521355 On ch=1 n=g2 v=83
1521410 On ch=1 n=d#4 v=0
1521420 Par ch=1 c=64 v=56
1521440 On ch=1 n=g2 v=0
1521440 On ch=1 n=g3 v=0
1521440 Par ch=1 c=64 v=127
1521455 On ch=1 n=c#5 v=0
1521460 On ch=1 n=a#4 v=0
1521500 On ch=1 n=d#5 v=0
1521710 Par ch=1 c=64 v=88
1521730 Par ch=1 c=64 v=24
1521750 Par ch=1 c=64 v=0
1521830 On ch=1 n=g#6 v=96
1521835 On ch=1 n=g#5 v=80
1521840 On ch=1 n=c6 v=96
1521860 On ch=1 n=g#3 v=79
1521860 On ch=1 n=g#2 v=64
1521885 Par ch=1 c=64 v=72
1521900 On ch=1 n=g#2 v=0
1521900 On ch=1 n=g#5 v=0
1521905 On ch=1 n=c6 v=0
1521905 Par ch=1 c=64 v=127
1521920 On ch=1 n=g#3 v=0
1521965 On ch=1 n=g#6 v=0
1522250 On ch=1 n=c7 v=92
1522250 On ch=1 n=d#6 v=84
1522260 On ch=1 n=c6 v=80
1522280 On ch=1 n=d#5 v=73
1522295 On ch=1 n=d#4 v=61
1522295 Par ch=1 c=64 v=104
1522300 On ch=1 n=c6 v=0
1522315 Par ch=1 c=64 v=72
1522330 On ch=1 n=d#6 v=0
1522330 On ch=1 n=c7 v=0
1522330 Par ch=1 c=64 v=40
1522350 On ch=1 n=d#5 v=0
1522350 Par ch=1 c=64 v=24
1522360 On ch=1 n=d#4 v=0
1522370 Par ch=1 c=64 v=0
1522450 On ch=1 n=b6 v=90
1522455 On ch=1 n=b5 v=74
1522480 On ch=1 n=d6 v=70
1522480 On ch=1 n=d5 v=71
1522490 On ch=1 n=d#4 v=64
1522510 On ch=1 n=d6 v=0
1522510 On ch=1 n=b5 v=0
1522530 On ch=1 n=d5 v=0
1522545 On ch=1 n=b6 v=0
1522555 On ch=1 n=d#4 v=0
1522650 On ch=1 n=c7 v=93
1522655 On ch=1 n=d#6 v=90
1522660 On ch=1 n=c6 v=84
1522665 On ch=1 n=d#4 v=60
1522665 On ch=1 n=d#5 v=75
1522720 On ch=1 n=d#4 v=0
1522735 On ch=1 n=d#5 v=0
1522735 On ch=1 n=c6 v=0
1522800 On ch=1 n=d#6 v=0
1522810 On ch=1 n=c7 v=0
1523080 On ch=1 n=c#7 v=92
1523090 On ch=1 n=c#6 v=91
1523090 On ch=1 n=f6 v=97
1523100 On ch=1 n=g#4 v=72
1523100 On ch=1 n=f5 v=85
1523105 On ch=1 n=c#5 v=77
1523145 Par ch=1 c=64 v=88
1523165 Par ch=1 c=64 v=127
1523205 On ch=1 n=f6 v=0
1523240 On ch=1 n=f5 v=0
1523240 On ch=1 n=c#6 v=0
1523305 On ch=1 n=g#4 v=0
1523305 On ch=1 n=c#7 v=0
1523325 On ch=1 n=c#5 v=0
1523480 On ch=1 n=c7 v=83
1523485 On ch=1 n=c6 v=73
1523490 On ch=1 n=d#6 v=75
1523510 On ch=1 n=g#4 v=57
1523515 On ch=1 n=c5 v=70
1523520 On ch=1 n=d#5 v=57
1523525 Par ch=1 c=64 v=104
1523530 On ch=1 n=c6 v=0
1523550 On ch=1 n=c7 v=0
1523555 On ch=1 n=d#5 v=0
1523555 Par ch=1 c=64 v=72
1523565 On ch=1 n=c5 v=0
1523565 On ch=1 n=d#6 v=0
1523570 Par ch=1 c=64 v=56
1523590 On ch=1 n=g#4 v=0
1523590 Par ch=1 c=64 v=40
1523610 Par ch=1 c=64 v=24
1523630 Par ch=1 c=64 v=0
1523665 On ch=1 n=a#6 v=84
1523680 On ch=1 n=a#5 v=73
1523680 On ch=1 n=c#6 v=75
1523685 On ch=1 n=c#5 v=67
1523685 On ch=1 n=g#4 v=35
1523705 On ch=1 n=a#4 v=43
1523730 On ch=1 n=a#5 v=0
1523750 On ch=1 n=c#6 v=0
1523775 On ch=1 n=c#5 v=0
1523780 On ch=1 n=g#4 v=0
1523780 On ch=1 n=a#6 v=0
1523790 On ch=1 n=a#4 v=0
1523885 On ch=1 n=g#6 v=83
1523895 On ch=1 n=g#5 v=65
1523900 On ch=1 n=c5 v=77
1523900 On ch=1 n=c6 v=79
1523905 On ch=1 n=g#4 v=46
1523935 On ch=1 n=c6 v=0
1523955 On ch=1 n=c5 v=0
1523990 On ch=1 n=g#4 v=0
1523990 On ch=1 n=g#5 v=0
1524055 On ch=1 n=g#6 v=0
1524300 On ch=1 n=g#6 v=88
1524315 On ch=1 n=d#4 v=106
1524315 On ch=1 n=g#5 v=78
1524320 On ch=1 n=d#3 v=90
1524320 On ch=1 n=c6 v=88
1524365 Par ch=1 c=64 v=72
1524370 On ch=1 n=d#3 v=0
1524375 On ch=1 n=d#4 v=0
1524385 Par ch=1 c=64 v=127
1524405 On ch=1 n=c6 v=0
1524410 On ch=1 n=g#5 v=0
1524505 On ch=1 n=g#6 v=0
1524725 On ch=1 n=g6 v=83
1524725 On ch=1 n=a#5 v=72
1524735 On ch=1 n=g5 v=60
1524750 On ch=1 n=d#4 v=69
1524755 On ch=1 n=d#5 v=63
1524755 Par ch=1 c=64 v=88
1524775 On ch=1 n=g5 v=0
1524775 Par ch=1 c=64 v=56
1524785 On ch=1 n=d#4 v=0
1524790 On ch=1 n=d#5 v=0
1524790 On ch=1 n=a#5 v=0
1524795 On ch=1 n=g6 v=0
1524795 Par ch=1 c=64 v=24
1524810 Par ch=1 c=64 v=0
1524915 On ch=1 n=f6 v=87
1524920 On ch=1 n=f5 v=74
1524920 On ch=1 n=g#5 v=73
1524930 On ch=1 n=d#4 v=71
1524930 On ch=1 n=d#5 v=69
1524970 On ch=1 n=f5 v=0
1524990 On ch=1 n=d#5 v=0
1524990 On ch=1 n=f6 v=0
1524995 On ch=1 n=d#4 v=0
1525015 On ch=1 n=g#5 v=0
1525125 On ch=1 n=d#5 v=82
1525130 On ch=1 n=d#4 v=74
1525130 On ch=1 n=d#6 v=80
1525135 On ch=1 n=g5 v=74
1525205 On ch=1 n=d#5 v=0
1525240 On ch=1 n=d#4 v=0
1525245 On ch=1 n=g5 v=0
1525345 On ch=1 n=d#6 v=0
1525545 On ch=1 n=d#6 v=95
1525545 On ch=1 n=d#5 v=95
1525555 On ch=1 n=g5 v=87
1525570 On ch=1 n=d#4 v=81
1525625 On ch=1 n=g5 v=0
1525625 Par ch=1 c=64 v=72
1525640 On ch=1 n=d#5 v=0
1525645 Par ch=1 c=64 v=127
1525665 On ch=1 n=d#4 v=0
1525685 On ch=1 n=d#6 v=0
1525955 Par ch=1 c=64 v=104
1525975 On ch=1 n=f6 v=90
1525975 On ch=1 n=f5 v=78
1525975 On ch=1 n=g#5 v=77
1525975 Par ch=1 c=64 v=88
1525990 On ch=1 n=d#4 v=67
1525990 On ch=1 n=d5 v=68
1525990 Par ch=1 c=64 v=72
1526010 Par ch=1 c=64 v=40
1526025 On ch=1 n=f5 v=0
1526030 Par ch=1 c=64 v=24
1526035 On ch=1 n=d5 v=0
1526035 On ch=1 n=g#5 v=0
1526040 On ch=1 n=f6 v=0
1526050 Par ch=1 c=64 v=0
1526060 On ch=1 n=d#4 v=0
1526165 On ch=1 n=g6 v=93
1526165 On ch=1 n=g5 v=86
1526165 On ch=1 n=a#5 v=82
1526175 On ch=1 n=c#5 v=73
1526190 On ch=1 n=d#4 v=60
1526225 On ch=1 n=d#4 v=0
1526225 On ch=1 n=g6 v=0
1526230 On ch=1 n=a#5 v=0
1526230 On ch=1 n=g5 v=0
1526235 On ch=1 n=c#5 v=0
1526355 On ch=1 n=g#6 v=89
1526355 On ch=1 n=g#5 v=80
1526360 On ch=1 n=c5 v=79
1526365 On ch=1 n=c6 v=71
1526370 On ch=1 n=d#4 v=73
1526400 On ch=1 n=c5 v=0
1526415 On ch=1 n=c6 v=0
1526415 On ch=1 n=g#5 v=0
1526435 On ch=1 n=d#4 v=0
1526445 On ch=1 n=g#6 v=0
1526550 On ch=1 n=a#4 v=78
1526550 On ch=1 n=a#6 v=92
1526555 On ch=1 n=a#5 v=92
1526555 On ch=1 n=c#4 v=76
1526560 On ch=1 n=c#6 v=84
1526590 On ch=1 n=c#4 v=0
1526610 On ch=1 n=a#4 v=0
1526620 On ch=1 n=a#5 v=0
1526645 On ch=1 n=c#6 v=0
1526655 On ch=1 n=a#6 v=0
1526805 On ch=1 n=g#5 v=87
1526810 On ch=1 n=c6 v=100
1526810 On ch=1 n=g#6 v=96
1526825 On ch=1 n=g#2 v=85
1526825 On ch=1 n=g#3 v=92
1526855 On ch=1 n=g#2 v=0
1526865 On ch=1 n=g#3 v=0
1526880 On ch=1 n=g#5 v=0
1526885 On ch=1 n=c6 v=0
1526885 Par ch=1 c=64 v=88
1526905 Par ch=1 c=64 v=127
1526925 On ch=1 n=g#6 v=0
1527220 On ch=1 n=d#6 v=80
1527220 On ch=1 n=c7 v=86
1527235 On ch=1 n=d#4 v=75
1527240 On ch=1 n=d#5 v=77
1527240 On ch=1 n=c6 v=65
1527270 On ch=1 n=c6 v=0
1527290 On ch=1 n=c7 v=0
1527305 On ch=1 n=d#5 v=0
1527305 On ch=1 n=d#6 v=0
1527310 Par ch=1 c=64 v=88
1527315 On ch=1 n=d#4 v=0
1527330 Par ch=1 c=64 v=72
1527350 Par ch=1 c=64 v=40
1527370 Par ch=1 c=64 v=24
1527385 Par ch=1 c=64 v=0
1527420 On ch=1 n=b5 v=74
1527425 On ch=1 n=b6 v=84
1527425 On ch=1 n=d5 v=73
1527425 On ch=1 n=d6 v=75
1527425 On ch=1 n=d#4 v=84
1527470 On ch=1 n=b5 v=0
1527475 On ch=1 n=d6 v=0
1527475 On ch=1 n=d5 v=0
1527485 On ch=1 n=b6 v=0
1527495 On ch=1 n=d#4 v=0
1527635 On ch=1 n=c6 v=92
1527640 On ch=1 n=c7 v=94
1527640 On ch=1 n=d#6 v=81
1527645 On ch=1 n=d#5 v=83
1527660 On ch=1 n=d#4 v=68
1527695 On ch=1 n=d#4 v=0
1527710 On ch=1 n=c6 v=0
1527715 On ch=1 n=d#5 v=0
1527745 On ch=1 n=d#6 v=0
1527770 On ch=1 n=c7 v=0
1528060 On ch=1 n=c#7 v=97
1528070 On ch=1 n=c#6 v=91
1528075 On ch=1 n=f6 v=99
1528085 On ch=1 n=g#4 v=73
1528095 On ch=1 n=f5 v=85
1528095 On ch=1 n=c#5 v=77
1528160 Par ch=1 c=64 v=56
1528175 Par ch=1 c=64 v=127
1528210 On ch=1 n=f6 v=0
1528215 On ch=1 n=f5 v=0
1528250 On ch=1 n=c#6 v=0
1528285 On ch=1 n=c#5 v=0
1528295 On ch=1 n=g#4 v=0
1528310 On ch=1 n=c#7 v=0
1528480 On ch=1 n=c6 v=73
1528480 On ch=1 n=c7 v=89
1528495 On ch=1 n=c5 v=68
1528500 On ch=1 n=g#4 v=62
1528510 Par ch=1 c=64 v=104
1528515 On ch=1 n=d#5 v=69
1528525 On ch=1 n=d#6 v=69
1528525 Par ch=1 c=64 v=88
1528535 On ch=1 n=c6 v=0
1528545 On ch=1 n=c7 v=0
1528545 Par ch=1 c=64 v=72
1528550 On ch=1 n=d#5 v=0
1528550 On ch=1 n=g#4 v=0
1528550 On ch=1 n=c5 v=0
1528560 On ch=1 n=d#6 v=0
1528565 Par ch=1 c=64 v=40
1528585 Par ch=1 c=64 v=24
1528605 Par ch=1 c=64 v=0
1528675 On ch=1 n=c#6 v=75
1528675 On ch=1 n=a#4 v=57
1528675 On ch=1 n=a#5 v=78
1528675 On ch=1 n=g#4 v=43
1528675 On ch=1 n=c#5 v=65
1528675 On ch=1 n=a#6 v=86
1528730 On ch=1 n=a#5 v=0
1528745 On ch=1 n=a#4 v=0
1528745 On ch=1 n=c#6 v=0
1528765 On ch=1 n=c#5 v=0
1528775 On ch=1 n=a#6 v=0
1528780 On ch=1 n=g#4 v=0
1528875 On ch=1 n=c5 v=76
1528875 On ch=1 n=g#4 v=58
1528875 On ch=1 n=g#5 v=77
1528875 On ch=1 n=g#6 v=87
1528885 On ch=1 n=c6 v=70
1528955 On ch=1 n=c5 v=0
1528970 On ch=1 n=g#4 v=0
1528975 On ch=1 n=c6 v=0
1528985 On ch=1 n=g#5 v=0
1529025 On ch=1 n=g#6 v=0
1529305 On ch=1 n=g#6 v=91
1529310 On ch=1 n=g#5 v=85
1529310 On ch=1 n=c3 v=86
1529310 On ch=1 n=c6 v=94
1529315 On ch=1 n=c4 v=95
1529340 Par ch=1 c=64 v=40
1529360 On ch=1 n=c3 v=0
1529360 Par ch=1 c=64 v=88
1529380 Par ch=1 c=64 v=127
1529390 On ch=1 n=c4 v=0
1529420 On ch=1 n=c6 v=0
1529445 On ch=1 n=g#5 v=0
1529495 On ch=1 n=g#6 v=0
1529690 Par ch=1 c=64 v=104
1529710 On ch=1 n=g6 v=81
1529710 Par ch=1 c=64 v=88
1529715 On ch=1 n=a#5 v=68
1529720 On ch=1 n=g5 v=64
1529725 Par ch=1 c=64 v=72
1529740 On ch=1 n=c4 v=74
1529740 On ch=1 n=c5 v=74
1529745 Par ch=1 c=64 v=56
1529765 Par ch=1 c=64 v=40
1529775 On ch=1 n=c4 v=0
1529775 On ch=1 n=g5 v=0
1529785 On ch=1 n=c5 v=0
1529785 On ch=1 n=a#5 v=0
1529785 On ch=1 n=g6 v=0
1529785 Par ch=1 c=64 v=24
1529805 Par ch=1 c=64 v=0
1529900 On ch=1 n=f6 v=90
1529905 On ch=1 n=g#5 v=73
1529905 On ch=1 n=f5 v=79
1529930 On ch=1 n=c5 v=74
1529935 On ch=1 n=c4 v=60
1529965 On ch=1 n=c5 v=0
1529965 On ch=1 n=f5 v=0
1529970 On ch=1 n=g#5 v=0
1529970 On ch=1 n=f6 v=0
1529975 On ch=1 n=c4 v=0
1530110 On ch=1 n=e6 v=93
1530115 On ch=1 n=e5 v=83
1530125 On ch=1 n=c5 v=78
1530130 On ch=1 n=c4 v=49
1530155 On ch=1 n=e5 v=0
1530165 On ch=1 n=c5 v=0
1530175 On ch=1 n=e6 v=0
1530180 On ch=1 n=c4 v=0
1530310 On ch=1 n=a#5 v=89
1530310 On ch=1 n=g6 v=93
1530310 On ch=1 n=g5 v=85
1530310 On ch=1 n=c5 v=81
1530310 On ch=1 n=c4 v=66
1530360 On ch=1 n=c4 v=0
1530360 On ch=1 n=c5 v=0
1530365 On ch=1 n=g5 v=0
1530365 On ch=1 n=a#5 v=0
1530375 On ch=1 n=g6 v=0
1530550 On ch=1 n=f5 v=92
1530550 On ch=1 n=f6 v=100
1530550 On ch=1 n=g#5 v=88
1530560 On ch=1 n=f4 v=80
1530565 On ch=1 n=f3 v=75
1530580 Par ch=1 c=64 v=24
1530600 On ch=1 n=f3 v=0
1530600 Par ch=1 c=64 v=88
1530615 Par ch=1 c=64 v=127
1530635 On ch=1 n=f4 v=0
1530865 On ch=1 n=f5 v=0
1530905 On ch=1 n=g#5 v=0
1530930 On ch=1 n=f6 v=0
1530945 On ch=1 n=c5 v=81
1530960 On ch=1 n=c4 v=72
1530985 Par ch=1 c=64 v=104
1531005 Par ch=1 c=64 v=88
1531020 On ch=1 n=c5 v=0
1531025 On ch=1 n=c4 v=0
1531025 Par ch=1 c=64 v=56
1531045 Par ch=1 c=64 v=40
1531065 Par ch=1 c=64 v=24
1531080 Par ch=1 c=64 v=0
1531150 On ch=1 n=b4 v=76
1531160 On ch=1 n=b3 v=64
1531200 On ch=1 n=b3 v=0
1531220 On ch=1 n=b4 v=0
1531360 On ch=1 n=g#6 v=91
1531370 On ch=1 n=g#5 v=80
1531375 On ch=1 n=c6 v=89
1531385 On ch=1 n=c5 v=81
1531390 On ch=1 n=c4 v=77
1531435 On ch=1 n=c4 v=0
1531455 On ch=1 n=g#5 v=0
1531460 On ch=1 n=c6 v=0
1531470 On ch=1 n=c5 v=0
1531545 On ch=1 n=g#6 v=0
1531790 On ch=1 n=g#6 v=92
1531790 On ch=1 n=g#5 v=89
1531800 On ch=1 n=d#6 v=83
1531805 On ch=1 n=f5 v=82
1531815 On ch=1 n=f4 v=77
1531820 Par ch=1 c=64 v=24
1531840 Par ch=1 c=64 v=56
1531855 Par ch=1 c=64 v=88
1531875 On ch=1 n=f5 v=0
1531880 On ch=1 n=g#5 v=0
1531890 On ch=1 n=d#6 v=0
1531895 On ch=1 n=f4 v=0
1531920 On ch=1 n=g#6 v=0
1531935 Par ch=1 c=64 v=24
1531955 Par ch=1 c=64 v=0
1532235 On ch=1 n=g#6 v=90
1532235 On ch=1 n=c5 v=87
1532235 On ch=1 n=g#5 v=86
1532235 On ch=1 n=d#6 v=85
1532245 On ch=1 n=c4 v=82
1532245 Par ch=1 c=64 v=24
1532265 Par ch=1 c=64 v=72
1532285 Par ch=1 c=64 v=104
1532295 On ch=1 n=c4 v=0
1532305 On ch=1 n=c5 v=0
1532305 Par ch=1 c=64 v=127
1532315 On ch=1 n=g#5 v=0
1532350 On ch=1 n=d#6 v=0
1532360 Par ch=1 c=64 v=88
1532365 On ch=1 n=g#6 v=0
1532380 Par ch=1 c=64 v=56
1532400 Par ch=1 c=64 v=0
1532650 On ch=1 n=a#6 v=85
1532655 On ch=1 n=g#5 v=82
1532660 On ch=1 n=f6 v=89
1532680 On ch=1 n=d4 v=77
1532680 On ch=1 n=d5 v=82
1532710 Par ch=1 c=64 v=40
1532730 Par ch=1 c=64 v=72
1532745 On ch=1 n=d4 v=0
1532750 Par ch=1 c=64 v=88
1532755 On ch=1 n=d5 v=0
1532760 On ch=1 n=g#5 v=0
1532795 On ch=1 n=f6 v=0
1532795 On ch=1 n=a#6 v=0
1532845 Par ch=1 c=64 v=56
1532865 Par ch=1 c=64 v=24
1532885 Par ch=1 c=64 v=0
1533100 On ch=1 n=g#6 v=90
1533105 On ch=1 n=d#5 v=77
1533105 On ch=1 n=d#6 v=81
1533110 On ch=1 n=g#5 v=87
1533115 On ch=1 n=d#4 v=73
1533170 On ch=1 n=d#5 v=0
1533175 Par ch=1 c=64 v=24
1533195 On ch=1 n=d#4 v=0
1533195 Par ch=1 c=64 v=56
1533215 Par ch=1 c=64 v=72
1533230 Par ch=1 c=64 v=88
1533235 On ch=1 n=d#6 v=0
1533275 On ch=1 n=g#5 v=0
1533310 Par ch=1 c=64 v=104
1533330 On ch=1 n=g#6 v=0
1533445 Par ch=1 c=64 v=72
1533465 Par ch=1 c=64 v=56
1533485 Par ch=1 c=64 v=40
1533505 On ch=1 n=g6 v=85
1533510 On ch=1 n=d#4 v=85
1533510 On ch=1 n=g5 v=77
1533515 On ch=1 n=d#3 v=62
1533550 On ch=1 n=d#3 v=0
1533580 On ch=1 n=g5 v=0
1533580 On ch=1 n=d#4 v=0
1533580 On ch=1 n=g6 v=0
1533580 Par ch=1 c=64 v=24
1533600 Par ch=1 c=64 v=0
1533710 On ch=1 n=f6 v=90
1533710 On ch=1 n=f5 v=82
1533775 On ch=1 n=f5 v=0
1533775 On ch=1 n=f6 v=0
1533915 On ch=1 n=d#6 v=88
1533915 On ch=1 n=g4 v=84
1533925 On ch=1 n=g3 v=71
1533925 Par ch=1 c=64 v=40
1533930 On ch=1 n=d#5 v=76
1533945 Par ch=1 c=64 v=56
1533965 Par ch=1 c=64 v=72
1533985 On ch=1 n=g4 v=0
1534000 On ch=1 n=d#5 v=0
1534000 On ch=1 n=g3 v=0
1534015 On ch=1 n=d#6 v=0
1534040 Par ch=1 c=64 v=40
1534060 Par ch=1 c=64 v=0
1534350 On ch=1 n=c#6 v=91
1534355 On ch=1 n=f4 v=72
1534355 On ch=1 n=c#5 v=86
1534365 On ch=1 n=g#5 v=69
1534370 On ch=1 n=f3 v=58
1534370 Par ch=1 c=64 v=40
1534390 On ch=1 n=f4 v=0
1534390 Par ch=1 c=64 v=72
1534405 On ch=1 n=g#5 v=0
1534405 Par ch=1 c=64 v=88
1534415 On ch=1 n=f3 v=0
1534430 On ch=1 n=c#5 v=0
1534495 On ch=1 n=c#6 v=0
1534565 Par ch=1 c=64 v=72
1534585 Par ch=1 c=64 v=56
1534605 Par ch=1 c=64 v=40
1534625 Par ch=1 c=64 v=24
1534640 Par ch=1 c=64 v=0
1534780 On ch=1 n=a#2 v=74
1534785 On ch=1 n=c#5 v=87
1534785 On ch=1 n=c#6 v=91
1534785 On ch=1 n=a#3 v=84
1534790 On ch=1 n=g#5 v=81
1534815 Par ch=1 c=64 v=24
1534835 Par ch=1 c=64 v=72
1534855 On ch=1 n=a#3 v=0
1534855 On ch=1 n=a#2 v=0
1534855 Par ch=1 c=64 v=88
1534860 On ch=1 n=c#5 v=0
1534875 Par ch=1 c=64 v=104
1534910 On ch=1 n=g#5 v=0
1534945 On ch=1 n=c#6 v=0
1534950 Par ch=1 c=64 v=88
1534990 Par ch=1 c=64 v=72
1535010 Par ch=1 c=64 v=56
1535030 Par ch=1 c=64 v=24
1535050 Par ch=1 c=64 v=0
1535215 On ch=1 n=d#6 v=88
1535220 On ch=1 n=c#5 v=85
1535225 On ch=1 n=a#5 v=77
1535225 On ch=1 n=d#3 v=67
1535230 On ch=1 n=d#4 v=89
1535240 Par ch=1 c=64 v=24
1535260 Par ch=1 c=64 v=72
1535280 Par ch=1 c=64 v=88
1535290 On ch=1 n=d#4 v=0
1535300 Par ch=1 c=64 v=104
1535305 On ch=1 n=d#3 v=0
1535320 On ch=1 n=c#5 v=0
1535360 On ch=1 n=d#6 v=0
1535400 On ch=1 n=a#5 v=0
1535400 Par ch=1 c=64 v=88
1535455 Par ch=1 c=64 v=72
1535475 Par ch=1 c=64 v=56
1535495 Par ch=1 c=64 v=0
1535630 On ch=1 n=c#5 v=83
1535630 On ch=1 n=c#6 v=84
1535630 On ch=1 n=g#4 v=80
1535630 On ch=1 n=g#5 v=69
1535640 On ch=1 n=g#3 v=65
1535650 Par ch=1 c=64 v=24
1535665 Par ch=1 c=64 v=72
1535685 Par ch=1 c=64 v=88
1535695 On ch=1 n=g#4 v=0
1535700 On ch=1 n=g#3 v=0
1535705 Par ch=1 c=64 v=104
1535710 On ch=1 n=c#5 v=0
1535720 On ch=1 n=c#6 v=0
1535730 On ch=1 n=g#5 v=0
1535825 On ch=1 n=c6 v=92
1535825 Par ch=1 c=64 v=88
1535830 On ch=1 n=c5 v=89
1535845 Par ch=1 c=64 v=72
1535865 Par ch=1 c=64 v=56
1535880 Par ch=1 c=64 v=24
1535885 On ch=1 n=c6 v=0
1535895 On ch=1 n=c5 v=0
1535900 Par ch=1 c=64 v=0
1536015 Par ch=1 c=64 v=24
1536030 On ch=1 n=a#5 v=85
1536030 On ch=1 n=a#4 v=80
1536035 On ch=1 n=c4 v=82
1536035 On ch=1 n=d#5 v=77
1536040 Par ch=1 c=64 v=72
1536045 On ch=1 n=c3 v=61
1536055 Par ch=1 c=64 v=104
1536070 On ch=1 n=c4 v=0
1536080 On ch=1 n=c3 v=0
1536090 On ch=1 n=a#4 v=0
1536110 On ch=1 n=a#5 v=0
1536125 On ch=1 n=d#5 v=0
1536150 Par ch=1 c=64 v=56
1536170 Par ch=1 c=64 v=40
1536190 Par ch=1 c=64 v=0
1536215 On ch=1 n=g#4 v=87
1536215 On ch=1 n=g#5 v=85
1536305 On ch=1 n=g#4 v=0
1536350 On ch=1 n=g#5 v=0
1536425 On ch=1 n=a#5 v=87
1536425 On ch=1 n=a#4 v=77
1536425 On ch=1 n=d#3 v=67
1536430 On ch=1 n=d#4 v=88
1536430 On ch=1 n=d#5 v=69
1536430 On ch=1 n=g5 v=76
1536445 Par ch=1 c=64 v=40
1536465 Par ch=1 c=64 v=88
1536480 Par ch=1 c=64 v=127
1536505 On ch=1 n=d#4 v=0
1536510 On ch=1 n=d#3 v=0
1536520 On ch=1 n=d#5 v=0
1536520 On ch=1 n=a#4 v=0
1536540 On ch=1 n=g5 v=0
1536580 Par ch=1 c=64 v=104
1536585 On ch=1 n=a#5 v=0
1536595 Par ch=1 c=64 v=88
1536635 Par ch=1 c=64 v=72
1536655 Par ch=1 c=64 v=56
1536675 Par ch=1 c=64 v=24
1536695 Par ch=1 c=64 v=0
1536850 On ch=1 n=g#5 v=88
1536855 On ch=1 n=g#4 v=86
1536860 On ch=1 n=f4 v=84
1536860 On ch=1 n=d#5 v=78
1536870 On ch=1 n=f3 v=72
1536890 Par ch=1 c=64 v=40
1536910 Par ch=1 c=64 v=88
1536925 On ch=1 n=f4 v=0
1536930 On ch=1 n=f3 v=0
1536930 Par ch=1 c=64 v=127
1536935 On ch=1 n=g#4 v=0
1536945 On ch=1 n=d#5 v=0
1537000 On ch=1 n=g#5 v=0
1537040 Par ch=1 c=64 v=104
1537060 Par ch=1 c=64 v=88
1537080 Par ch=1 c=64 v=72
1537100 Par ch=1 c=64 v=56
1537125 Par ch=1 c=64 v=24
1537140 Par ch=1 c=64 v=0
1537290 On ch=1 n=g#5 v=86
1537290 On ch=1 n=g#4 v=87
1537295 On ch=1 n=d#5 v=77
1537300 On ch=1 n=c4 v=88
1537305 On ch=1 n=c3 v=74
1537335 Par ch=1 c=64 v=56
1537340 On ch=1 n=c3 v=0
1537350 On ch=1 n=c4 v=0
1537355 Par ch=1 c=64 v=88
1537365 On ch=1 n=g#4 v=0
1537375 Par ch=1 c=64 v=127
1537380 On ch=1 n=d#5 v=0
1537425 On ch=1 n=g#5 v=0
1537545 Par ch=1 c=64 v=104
1537585 Par ch=1 c=64 v=88
1537605 Par ch=1 c=64 v=56
1537625 Par ch=1 c=64 v=24
1537645 Par ch=1 c=64 v=0
1537720 On ch=1 n=a#5 v=83
1537725 On ch=1 n=g#4 v=82
1537730 On ch=1 n=f5 v=81
1537740 On ch=1 n=d4 v=89
1537750 On ch=1 n=d3 v=74
1537800 On ch=1 n=d3 v=0
1537800 Par ch=1 c=64 v=56
1537820 Par ch=1 c=64 v=88
1537825 On ch=1 n=g#4 v=0
1537830 On ch=1 n=d4 v=0
1537840 Par ch=1 c=64 v=127
1537850 On ch=1 n=a#5 v=0
1537860 On ch=1 n=f5 v=0
1537955 Par ch=1 c=64 v=104
1537990 Par ch=1 c=64 v=88
1538010 Par ch=1 c=64 v=72
1538030 Par ch=1 c=64 v=40
1538050 Par ch=1 c=64 v=0
1538150 On ch=1 n=g#5 v=87
1538150 On ch=1 n=g#4 v=89
1538155 On ch=1 n=d#5 v=79
1538155 On ch=1 n=d#4 v=83
1538165 On ch=1 n=d#3 v=68
1538205 Par ch=1 c=64 v=56
1538215 On ch=1 n=d#4 v=0
1538225 Par ch=1 c=64 v=104
1538245 On ch=1 n=d#3 v=0
1538245 Par ch=1 c=64 v=127
1538265 On ch=1 n=g#4 v=0
1538290 On ch=1 n=d#5 v=0
1538305 On ch=1 n=g#5 v=0
1538495 Par ch=1 c=64 v=72
1538515 Par ch=1 c=64 v=0
1538560 On ch=1 n=g5 v=82
1538565 On ch=1 n=d#3 v=93
1538570 On ch=1 n=d#5 v=51
1538575 On ch=1 n=d#2 v=85
1538575 On ch=1 n=g4 v=61
1538605 On ch=1 n=d#5 v=0
1538610 On ch=1 n=g4 v=0
1538615 Par ch=1 c=64 v=24
1538630 On ch=1 n=d#3 v=0
1538630 On ch=1 n=g5 v=0
1538630 Par ch=1 c=64 v=72
1538635 On ch=1 n=d#2 v=0
1538650 Par ch=1 c=64 v=104
1538670 Par ch=1 c=64 v=127
1538755 On ch=1 n=f5 v=87
1538760 On ch=1 n=f4 v=84
1538830 On ch=1 n=f4 v=0
1538845 On ch=1 n=f5 v=0
1538900 Par ch=1 c=64 v=72
1538920 Par ch=1 c=64 v=0
1538975 On ch=1 n=d#5 v=81
1538975 On ch=1 n=d#4 v=84
1538985 On ch=1 n=g3 v=87
1538995 On ch=1 n=g2 v=69
1539020 Par ch=1 c=64 v=40
1539025 On ch=1 n=g2 v=0
1539040 Par ch=1 c=64 v=88
1539050 On ch=1 n=d#4 v=0
1539060 On ch=1 n=g3 v=0
1539060 Par ch=1 c=64 v=127
1539080 On ch=1 n=d#5 v=0
1539270 Par ch=1 c=64 v=104
1539290 Par ch=1 c=64 v=88
1539310 Par ch=1 c=64 v=56
1539330 Par ch=1 c=64 v=0
1539420 On ch=1 n=d#4 v=67
1539420 On ch=1 n=d#5 v=76
1539430 On ch=1 n=f#4 v=53
1539435 On ch=1 n=b3 v=63
1539445 On ch=1 n=b4 v=58
1539540 Par ch=1 c=64 v=40
1539560 Par ch=1 c=64 v=88
1539580 Par ch=1 c=64 v=127
1539590 On ch=1 n=b4 v=0
1539590 On ch=1 n=f#4 v=0
1539590 On ch=1 n=d#4 v=0
1539620 On ch=1 n=b3 v=0
1539630 On ch=1 n=d#5 v=0
1539865 On ch=1 n=d#5 v=85
1539875 On ch=1 n=d#4 v=80
1539875 On ch=1 n=b2 v=76
1539885 On ch=1 n=f#4 v=64
1539890 On ch=1 n=b4 v=64
1539910 Par ch=1 c=64 v=104
1539930 Par ch=1 c=64 v=24
1539950 Par ch=1 c=64 v=0
1540010 On ch=1 n=d#4 v=0
1540015 On ch=1 n=f#4 v=0
1540020 On ch=1 n=b4 v=0
1540025 Par ch=1 c=64 v=24
1540045 Par ch=1 c=64 v=72
1540065 Par ch=1 c=64 v=127
1540085 On ch=1 n=d#5 v=0
1540110 On ch=1 n=b2 v=0
1540315 On ch=1 n=d#5 v=86
1540320 On ch=1 n=d#3 v=90
1540325 On ch=1 n=f#4 v=77
1540325 On ch=1 n=d#4 v=85
1540340 On ch=1 n=b4 v=70
1540355 Par ch=1 c=64 v=56
1540375 Par ch=1 c=64 v=0
1540470 Par ch=1 c=64 v=56
1540490 On ch=1 n=b4 v=0
1540490 Par ch=1 c=64 v=127
1540500 On ch=1 n=d#4 v=0
1540525 On ch=1 n=d#5 v=0
1540575 On ch=1 n=d#3 v=0
1540675 On ch=1 n=f#4 v=0
1540755 On ch=1 n=c#5 v=86
1540760 On ch=1 n=c#4 v=86
1540770 On ch=1 n=f#4 v=74
1540770 On ch=1 n=a#4 v=69
1540775 On ch=1 n=f#3 v=87
1540785 Par ch=1 c=64 v=56
1540800 Par ch=1 c=64 v=0
1540935 Par ch=1 c=64 v=56
1540955 Par ch=1 c=64 v=127
1541130 Par ch=1 c=64 v=40
1541150 Par ch=1 c=64 v=0
1541250 On ch=1 n=f#2 v=85
1541265 Par ch=1 c=64 v=72
1541285 Par ch=1 c=64 v=127
1541340 On ch=1 n=f#4 v=0
1541340 On ch=1 n=c#4 v=0
1541360 On ch=1 n=f#2 v=0
1541390 On ch=1 n=c#5 v=0
1541405 On ch=1 n=a#4 v=0
1541460 On ch=1 n=f#3 v=0
1541710 Par ch=1 c=64 v=40
1541720 On ch=1 n=d#4 v=93
1541725 On ch=1 n=d#5 v=88
1541730 Par ch=1 c=64 v=0
1541740 On ch=1 n=a#4 v=65
1541745 On ch=1 n=g4 v=76
1541750 On ch=1 n=c#5 v=56
1541760 On ch=1 n=g3 v=99
1541760 On ch=1 n=g2 v=79
1541780 On ch=1 n=g4 v=0
1541785 On ch=1 n=c#5 v=0
1541800 On ch=1 n=d#4 v=0
1541830 On ch=1 n=g2 v=0
1541830 Par ch=1 c=64 v=88
1541845 On ch=1 n=g3 v=0
1541845 Par ch=1 c=64 v=127
1541850 On ch=1 n=a#4 v=0
1541895 On ch=1 n=d#5 v=0
1542120 Par ch=1 c=64 v=104
1542135 Par ch=1 c=64 v=56
1542155 Par ch=1 c=64 v=0
1542240 On ch=1 n=g#6 v=97
1542245 On ch=1 n=g#5 v=86
1542245 On ch=1 n=c6 v=99
1542265 On ch=1 n=g#3 v=85
1542275 On ch=1 n=g#2 v=73
1542310 On ch=1 n=g#5 v=0
1542310 Par ch=1 c=64 v=88
1542325 On ch=1 n=g#2 v=0
1542325 On ch=1 n=g#3 v=0
1542330 Par ch=1 c=64 v=127
1542335 On ch=1 n=c6 v=0
1542380 On ch=1 n=g#6 v=0
1542650 On ch=1 n=c7 v=93
1542650 On ch=1 n=d#6 v=85
1542665 On ch=1 n=d#5 v=69
1542670 On ch=1 n=c6 v=72
1542685 On ch=1 n=d#4 v=55
1542700 On ch=1 n=c6 v=0
1542725 On ch=1 n=d#4 v=0
1542725 On ch=1 n=c7 v=0
1542730 On ch=1 n=d#6 v=0
1542735 On ch=1 n=d#5 v=0
1542755 Par ch=1 c=64 v=88
1542775 Par ch=1 c=64 v=56
1542795 Par ch=1 c=64 v=24
1542815 Par ch=1 c=64 v=0
1542840 On ch=1 n=d#4 v=65
1542840 On ch=1 n=b5 v=73
1542840 On ch=1 n=d5 v=74
1542840 On ch=1 n=b6 v=94
1542855 On ch=1 n=d6 v=71
1542885 On ch=1 n=b5 v=0
1542890 On ch=1 n=d6 v=0
1542905 On ch=1 n=d5 v=0
1542905 On ch=1 n=d#4 v=0
1542925 On ch=1 n=b6 v=0
1543040 On ch=1 n=c6 v=88
1543040 On ch=1 n=d#5 v=77
1543040 On ch=1 n=d#4 v=74
1543040 On ch=1 n=d#6 v=90
1543040 On ch=1 n=c7 v=96
1543065 Par ch=1 c=64 v=24
1543090 Par ch=1 c=64 v=40
1543105 Par ch=1 c=64 v=56
1543110 On ch=1 n=d#4 v=0
1543110 On ch=1 n=c6 v=0
1543120 On ch=1 n=d#5 v=0
1543200 On ch=1 n=c7 v=0
1543200 On ch=1 n=d#6 v=0
1543205 Par ch=1 c=64 v=40
1543220 Par ch=1 c=64 v=24
1543240 Par ch=1 c=64 v=0
1543455 On ch=1 n=c#7 v=92
1543465 On ch=1 n=c#6 v=93
1543470 On ch=1 n=f6 v=100
1543485 On ch=1 n=f5 v=86
1543485 On ch=1 n=g#4 v=73
1543485 On ch=1 n=c#5 v=74
1543510 Par ch=1 c=64 v=40
1543530 Par ch=1 c=64 v=88
1543550 Par ch=1 c=64 v=127
1543590 On ch=1 n=f6 v=0
1543605 On ch=1 n=g#4 v=0
1543605 On ch=1 n=f5 v=0
1543620 On ch=1 n=c#6 v=0
1543685 On ch=1 n=c#5 v=0
1543685 On ch=1 n=c#7 v=0
1543870 On ch=1 n=c7 v=85
1543870 On ch=1 n=d#6 v=79
1543870 On ch=1 n=c6 v=78
1543885 On ch=1 n=c5 v=76
1543890 On ch=1 n=g#4 v=46
1543910 On ch=1 n=c6 v=0
1543910 On ch=1 n=d#5 v=30
1543920 Par ch=1 c=64 v=88
1543935 On ch=1 n=g#4 v=0
1543940 On ch=1 n=d#6 v=0
1543940 On ch=1 n=c7 v=0
1543940 Par ch=1 c=64 v=72
1543945 On ch=1 n=d#5 v=0
1543960 On ch=1 n=c5 v=0
1543960 Par ch=1 c=64 v=56
1543975 Par ch=1 c=64 v=40
1544000 Par ch=1 c=64 v=24
1544015 Par ch=1 c=64 v=0
1544050 On ch=1 n=a#6 v=80
1544060 On ch=1 n=c#6 v=83
1544060 On ch=1 n=a#5 v=79
1544065 On ch=1 n=c#5 v=62
1544080 On ch=1 n=g#4 v=44
1544095 On ch=1 n=a#4 v=35
1544115 On ch=1 n=a#5 v=0
1544130 On ch=1 n=a#4 v=0
1544130 On ch=1 n=c#6 v=0
1544130 On ch=1 n=a#6 v=0
1544155 On ch=1 n=c#5 v=0
1544170 On ch=1 n=g#4 v=0
1544250 On ch=1 n=g#6 v=84
1544250 On ch=1 n=g#4 v=39
1544260 On ch=1 n=c5 v=82
1544260 On ch=1 n=c6 v=90
1544260 On ch=1 n=g#5 v=75
1544315 On ch=1 n=c5 v=0
1544345 On ch=1 n=g#4 v=0
1544365 On ch=1 n=c6 v=0
1544400 On ch=1 n=g#5 v=0
1544445 On ch=1 n=g#6 v=0
1544660 On ch=1 n=g#6 v=89
1544665 On ch=1 n=g#5 v=85
1544670 On ch=1 n=d#3 v=85
1544670 On ch=1 n=d#4 v=100
1544675 On ch=1 n=c6 v=94
1544695 Par ch=1 c=64 v=40
1544710 Par ch=1 c=64 v=104
1544725 On ch=1 n=d#3 v=0
1544730 On ch=1 n=d#4 v=0
1544735 Par ch=1 c=64 v=127
1544745 On ch=1 n=c6 v=0
1544775 On ch=1 n=g#5 v=0
1544830 On ch=1 n=g#6 v=0
1545060 On ch=1 n=g6 v=84
1545060 On ch=1 n=a#5 v=69
1545060 Par ch=1 c=64 v=104
1545070 On ch=1 n=g5 v=67
1545075 On ch=1 n=d#5 v=76
1545075 On ch=1 n=d#4 v=71
1545080 Par ch=1 c=64 v=88
1545100 Par ch=1 c=64 v=56
1545115 On ch=1 n=d#4 v=0
1545115 On ch=1 n=g5 v=0
1545120 Par ch=1 c=64 v=40
1545125 On ch=1 n=a#5 v=0
1545125 On ch=1 n=g6 v=0
1545135 On ch=1 n=d#5 v=0
1545140 Par ch=1 c=64 v=24
1545160 Par ch=1 c=64 v=0
1545245 On ch=1 n=f6 v=90
1545250 On ch=1 n=f5 v=78
1545255 On ch=1 n=g#5 v=72
1545260 On ch=1 n=d#5 v=78
1545265 On ch=1 n=d#4 v=73
1545310 On ch=1 n=f5 v=0
1545325 On ch=1 n=d#4 v=0
1545325 On ch=1 n=d#5 v=0
1545325 On ch=1 n=g#5 v=0
1545325 On ch=1 n=f6 v=0
1545455 On ch=1 n=d#6 v=82
1545460 On ch=1 n=d#5 v=87
1545470 On ch=1 n=d#4 v=85
1545475 On ch=1 n=g5 v=77
1545540 On ch=1 n=d#5 v=0
1545555 On ch=1 n=d#4 v=0
1545570 On ch=1 n=g5 v=0
1545655 On ch=1 n=d#6 v=0
1545855 On ch=1 n=d#5 v=90
1545855 On ch=1 n=d#6 v=90
1545860 On ch=1 n=g5 v=84
1545885 On ch=1 n=d#4 v=81
1545895 Par ch=1 c=64 v=56
1545915 Par ch=1 c=64 v=104
1545935 On ch=1 n=g5 v=0
1545935 Par ch=1 c=64 v=127
1545965 On ch=1 n=d#5 v=0
1545985 On ch=1 n=d#6 v=0
1545990 On ch=1 n=d#4 v=0
1546255 On ch=1 n=f6 v=93
1546255 On ch=1 n=g#5 v=77
1546260 On ch=1 n=f5 v=78
1546265 Par ch=1 c=64 v=104
1546275 On ch=1 n=d5 v=74
1546275 On ch=1 n=d#4 v=69
1546285 Par ch=1 c=64 v=88
1546305 On ch=1 n=f5 v=0
1546305 Par ch=1 c=64 v=72
1546315 On ch=1 n=g#5 v=0
1546320 On ch=1 n=d5 v=0
1546320 On ch=1 n=f6 v=0
1546320 Par ch=1 c=64 v=40
1546340 On ch=1 n=d#4 v=0
1546340 Par ch=1 c=64 v=24
1546360 Par ch=1 c=64 v=0
1546445 On ch=1 n=g6 v=99
1546445 On ch=1 n=g5 v=87
1546445 On ch=1 n=a#5 v=85
1546455 On ch=1 n=c#5 v=75
1546465 On ch=1 n=d#4 v=61
1546490 On ch=1 n=c#5 v=0
1546505 On ch=1 n=a#5 v=0
1546505 On ch=1 n=g5 v=0
1546505 On ch=1 n=g6 v=0
1546510 On ch=1 n=d#4 v=0
1546635 On ch=1 n=g#6 v=94
1546635 On ch=1 n=c5 v=77
1546640 On ch=1 n=g#5 v=77
1546645 On ch=1 n=d#4 v=73
1546650 On ch=1 n=c6 v=70
1546680 On ch=1 n=c5 v=0
1546685 On ch=1 n=c6 v=0
1546695 On ch=1 n=d#4 v=0
1546700 On ch=1 n=g#5 v=0
1546725 On ch=1 n=g#6 v=0
1546815 On ch=1 n=a#4 v=75
1546825 On ch=1 n=c#4 v=68
1546835 On ch=1 n=a#5 v=91
1546835 On ch=1 n=a#6 v=94
1546840 On ch=1 n=c#6 v=82
1546860 On ch=1 n=c#4 v=0
1546875 On ch=1 n=a#4 v=0
1546905 On ch=1 n=a#5 v=0
1546920 On ch=1 n=c#6 v=0
1546925 On ch=1 n=a#6 v=0
1547070 On ch=1 n=g#6 v=95
1547070 On ch=1 n=g#5 v=90
1547075 On ch=1 n=c6 v=100
1547095 On ch=1 n=g#3 v=82
1547100 Par ch=1 c=64 v=40
1547115 On ch=1 n=g#2 v=78
1547115 Par ch=1 c=64 v=104
1547130 On ch=1 n=g#3 v=0
1547135 On ch=1 n=c6 v=0
1547135 Par ch=1 c=64 v=127
1547140 On ch=1 n=g#5 v=0
1547165 On ch=1 n=g#2 v=0
1547200 On ch=1 n=g#6 v=0
1547470 On ch=1 n=d#6 v=81
1547475 On ch=1 n=c7 v=89
1547480 On ch=1 n=c6 v=82
1547495 On ch=1 n=d#4 v=73
1547495 On ch=1 n=d#5 v=73
1547530 On ch=1 n=c6 v=0
1547535 On ch=1 n=c7 v=0
1547545 Par ch=1 c=64 v=104
1547555 On ch=1 n=d#5 v=0
1547555 On ch=1 n=d#6 v=0
1547560 Par ch=1 c=64 v=88
1547570 On ch=1 n=d#4 v=0
1547580 Par ch=1 c=64 v=56
1547600 Par ch=1 c=64 v=40
1547640 Par ch=1 c=64 v=24
1547660 On ch=1 n=b6 v=90
1547660 Par ch=1 c=64 v=0
1547670 On ch=1 n=d#4 v=76
1547675 On ch=1 n=b5 v=65
1547680 On ch=1 n=d5 v=80
1547680 On ch=1 n=d6 v=79
1547715 On ch=1 n=d6 v=0
1547715 On ch=1 n=b5 v=0
1547720 On ch=1 n=d5 v=0
1547750 On ch=1 n=b6 v=0
1547760 On ch=1 n=d#4 v=0
1547870 On ch=1 n=d#5 v=85
1547870 On ch=1 n=c7 v=96
1547870 On ch=1 n=c6 v=92
1547870 On ch=1 n=d#6 v=91
1547870 On ch=1 n=d#4 v=72
1547890 Par ch=1 c=64 v=24
1547905 On ch=1 n=d#4 v=0
1547910 Par ch=1 c=64 v=40
1547940 On ch=1 n=c6 v=0
1547940 On ch=1 n=d#5 v=0
1547975 On ch=1 n=d#6 v=0
1547995 On ch=1 n=c7 v=0
1548045 Par ch=1 c=64 v=0
1548255 On ch=1 n=c#7 v=90
1548260 On ch=1 n=c#6 v=92
1548270 On ch=1 n=f6 v=96
1548275 On ch=1 n=f5 v=79
1548275 On ch=1 n=g#4 v=65
1548285 On ch=1 n=c#5 v=65
1548295 Par ch=1 c=64 v=24
1548315 Par ch=1 c=64 v=88
1548335 Par ch=1 c=64 v=127
1548365 On ch=1 n=f5 v=0
1548365 On ch=1 n=f6 v=0
1548400 On ch=1 n=c#5 v=0
1548415 On ch=1 n=g#4 v=0
1548430 On ch=1 n=c#6 v=0
1548455 On ch=1 n=c#7 v=0
1548640 On ch=1 n=c#5 v=63
1548645 On ch=1 n=c7 v=84
1548645 On ch=1 n=d#6 v=73
1548650 On ch=1 n=c6 v=73
1548660 On ch=1 n=d#5 v=52
1548660 On ch=1 n=g#4 v=48
1548665 Par ch=1 c=64 v=104
1548685 Par ch=1 c=64 v=88
1548695 On ch=1 n=c6 v=0
1548705 Par ch=1 c=64 v=72
1548710 On ch=1 n=d#5 v=0
1548715 On ch=1 n=c7 v=0
1548720 Par ch=1 c=64 v=56
1548730 On ch=1 n=d#6 v=0
1548730 On ch=1 n=c#5 v=0
1548735 On ch=1 n=g#4 v=0
1548740 Par ch=1 c=64 v=40
1548760 Par ch=1 c=64 v=24
1548780 Par ch=1 c=64 v=0
1548825 On ch=1 n=b6 v=92
1548830 On ch=1 n=d6 v=84
1548830 On ch=1 n=b5 v=71
1548835 On ch=1 n=g#4 v=35
1548845 On ch=1 n=d5 v=64
1548845 On ch=1 n=b4 v=56
1548875 On ch=1 n=b5 v=0
1548880 On ch=1 n=d5 v=0
1548885 On ch=1 n=b4 v=0
1548895 On ch=1 n=d6 v=0
1548895 On ch=1 n=b6 v=0
1548900 On ch=1 n=g#4 v=0
1549015 On ch=1 n=b6 v=89
1549020 On ch=1 n=b5 v=71
1549020 On ch=1 n=d6 v=82
1549035 On ch=1 n=d5 v=64
1549035 On ch=1 n=b4 v=54
1549035 On ch=1 n=g#4 v=45
1549035 Par ch=1 c=64 v=24
1549055 Par ch=1 c=64 v=72
1549070 Par ch=1 c=64 v=88
1549090 Par ch=1 c=64 v=104
1549110 On ch=1 n=b5 v=0
1549130 On ch=1 n=d6 v=0
1549135 On ch=1 n=b4 v=0
1549140 On ch=1 n=d5 v=0
1549160 On ch=1 n=g#4 v=0
1549170 On ch=1 n=b6 v=0
1549170 Par ch=1 c=64 v=56
1549185 Par ch=1 c=64 v=24
1549205 Par ch=1 c=64 v=0
1549400 On ch=1 n=c#7 v=83
1549400 On ch=1 n=f5 v=70
1549400 Par ch=1 c=64 v=24
1549405 On ch=1 n=c#6 v=76
1549410 On ch=1 n=f6 v=88
1549420 On ch=1 n=c#5 v=53
1549420 On ch=1 n=g#4 v=45
1549420 Par ch=1 c=64 v=88
1549440 Par ch=1 c=64 v=127
1549480 On ch=1 n=f6 v=0
1549490 On ch=1 n=f5 v=0
1549500 On ch=1 n=c#6 v=0
1549515 On ch=1 n=c#5 v=0
1549520 On ch=1 n=g#4 v=0
1549550 On ch=1 n=c#7 v=0
1549735 On ch=1 n=d#5 v=48
1549740 On ch=1 n=c7 v=85
1549745 On ch=1 n=c#5 v=54
1549745 On ch=1 n=d#6 v=74
1549745 On ch=1 n=g#4 v=37
1549750 On ch=1 n=c6 v=68
1549750 Par ch=1 c=64 v=88
1549770 Par ch=1 c=64 v=72
1549785 On ch=1 n=c6 v=0
1549790 Par ch=1 c=64 v=56
1549805 On ch=1 n=d#5 v=0
1549810 Par ch=1 c=64 v=40
1549815 On ch=1 n=g#4 v=0
1549815 On ch=1 n=d#6 v=0
1549820 On ch=1 n=c#5 v=0
1549820 On ch=1 n=c7 v=0
1549830 Par ch=1 c=64 v=24
1549850 Par ch=1 c=64 v=0
1549915 On ch=1 n=b6 v=89
1549920 On ch=1 n=b5 v=73
1549920 On ch=1 n=d5 v=66
1549920 On ch=1 n=d6 v=82
1549920 On ch=1 n=g#4 v=34
1549930 On ch=1 n=b4 v=48
1549960 On ch=1 n=d6 v=0
1549960 On ch=1 n=b5 v=0
1549965 On ch=1 n=b4 v=0
1549965 On ch=1 n=d5 v=0
1549980 On ch=1 n=g#4 v=0
1549985 On ch=1 n=b6 v=0
1550100 On ch=1 n=b6 v=90
1550105 On ch=1 n=d6 v=77
1550105 On ch=1 n=b5 v=68
1550115 On ch=1 n=d5 v=60
1550115 On ch=1 n=g#4 v=46
1550125 On ch=1 n=b4 v=47
1550155 Par ch=1 c=64 v=56
1550175 On ch=1 n=b4 v=0
1550180 Par ch=1 c=64 v=88
1550195 Par ch=1 c=64 v=127
1550215 On ch=1 n=d5 v=0
1550230 On ch=1 n=d6 v=0
1550235 On ch=1 n=b5 v=0
1550255 On ch=1 n=g#4 v=0
1550255 On ch=1 n=b6 v=0
1550275 Par ch=1 c=64 v=88
1550410 Par ch=1 c=64 v=104
1550465 Par ch=1 c=64 v=24
1550480 On ch=1 n=b6 v=87
1550485 On ch=1 n=d6 v=74
1550485 On ch=1 n=b5 v=61
1550485 Par ch=1 c=64 v=0
1550500 On ch=1 n=d5 v=51
1550515 On ch=1 n=b4 v=52
1550530 On ch=1 n=g#4 v=45
1550555 On ch=1 n=b4 v=0
1550580 Par ch=1 c=64 v=40
1550585 On ch=1 n=g#4 v=0
1550585 On ch=1 n=d5 v=0
1550600 Par ch=1 c=64 v=88
1550625 Par ch=1 c=64 v=127
1550885 On ch=1 n=b5 v=0
1550895 On ch=1 n=d6 v=0
1550925 On ch=1 n=b6 v=0
1550930 On ch=1 n=g#3 v=63
1551005 On ch=1 n=g#3 v=0
1551155 On ch=1 n=b6 v=82
1551155 On ch=1 n=b4 v=51
1551160 On ch=1 n=b5 v=68
1551165 On ch=1 n=d6 v=73
1551165 On ch=1 n=d5 v=48
1551165 On ch=1 n=g#4 v=37
1551205 On ch=1 n=d6 v=0
1551210 On ch=1 n=g#4 v=0
1551210 On ch=1 n=d5 v=0
1551210 On ch=1 n=b4 v=0
1551225 On ch=1 n=b5 v=0
1551225 On ch=1 n=b6 v=0
1551440 Par ch=1 c=64 v=56
1551445 On ch=1 n=g#4 v=67
1551455 On ch=1 n=d5 v=58
1551460 Par ch=1 c=64 v=127
1551475 On ch=1 n=b6 v=79
1551480 On ch=1 n=b5 v=68
1551480 On ch=1 n=d6 v=70
1551485 On ch=1 n=d5 v=0
1551515 On ch=1 n=g#4 v=0
1551520 On ch=1 n=d6 v=0
1551540 On ch=1 n=b5 v=0
1551560 On ch=1 n=b6 v=0
1551760 On ch=1 n=g3 v=68
1551800 On ch=1 n=g3 v=0
1551815 Par ch=1 c=64 v=88
1551835 Par ch=1 c=64 v=72
1551870 Par ch=1 c=64 v=56
1551890 Par ch=1 c=64 v=40
1551900 On ch=1 n=b6 v=84
1551900 On ch=1 n=b5 v=72
1551905 On ch=1 n=d6 v=75
1551930 On ch=1 n=b6 v=0
1551930 Par ch=1 c=64 v=24
1551935 On ch=1 n=d6 v=0
1551940 On ch=1 n=b5 v=0
1551965 Par ch=1 c=64 v=0
1552010 On ch=1 n=b5 v=66
1552010 On ch=1 n=b6 v=77
1552015 On ch=1 n=d5 v=24
1552020 On ch=1 n=d6 v=65
1552045 On ch=1 n=d5 v=0
1552055 On ch=1 n=d6 v=0
1552080 On ch=1 n=b5 v=0
1552085 On ch=1 n=b6 v=0
1552255 On ch=1 n=g#4 v=71
1552265 Par ch=1 c=64 v=24
1552270 On ch=1 n=d5 v=51
1552280 On ch=1 n=b6 v=83
1552280 On ch=1 n=b5 v=71
1552280 Par ch=1 c=64 v=72
1552290 On ch=1 n=d6 v=66
1552300 Par ch=1 c=64 v=127
1552305 On ch=1 n=d5 v=0
1552320 On ch=1 n=d6 v=0
1552320 On ch=1 n=g#4 v=0
1552325 On ch=1 n=b5 v=0
1552355 On ch=1 n=b6 v=0
1552530 On ch=1 n=g3 v=68
1552535 On ch=1 n=d#6 v=68
1552540 On ch=1 n=c7 v=81
1552540 On ch=1 n=c6 v=67
1552560 On ch=1 n=g3 v=0
1552565 Par ch=1 c=64 v=104
1552580 On ch=1 n=c6 v=0
1552580 Par ch=1 c=64 v=72
1552605 On ch=1 n=c7 v=0
1552605 On ch=1 n=d#6 v=0
1552620 Par ch=1 c=64 v=56
1552640 Par ch=1 c=64 v=40
1552695 Par ch=1 c=64 v=24
1552775 On ch=1 n=g#4 v=60
1552785 On ch=1 n=d5 v=49
1552790 On ch=1 n=b4 v=52
1552795 On ch=1 n=d7 v=86
1552795 On ch=1 n=d6 v=74
1552800 On ch=1 n=f6 v=75
1552830 On ch=1 n=b4 v=0
1552835 On ch=1 n=f6 v=0
1552835 On ch=1 n=d5 v=0
1552855 On ch=1 n=d6 v=0
1552855 On ch=1 n=g#4 v=0
1552865 On ch=1 n=d7 v=0
1552865 Par ch=1 c=64 v=0
1553020 On ch=1 n=g#4 v=75
1553030 Par ch=1 c=64 v=56
1553035 On ch=1 n=d5 v=52
1553045 On ch=1 n=d7 v=90
1553050 On ch=1 n=d6 v=81
1553050 Par ch=1 c=64 v=104
1553055 On ch=1 n=g#4 v=0
1553070 On ch=1 n=d5 v=0
1553070 On ch=1 n=f6 v=60
1553070 Par ch=1 c=64 v=127
1553100 On ch=1 n=f6 v=0
1553105 On ch=1 n=d6 v=0
1553110 On ch=1 n=d7 v=0
1553290 On ch=1 n=g3 v=63
1553300 On ch=1 n=d#7 v=84
1553315 On ch=1 n=d#6 v=70
1553315 On ch=1 n=g6 v=83
1553315 Par ch=1 c=64 v=104
1553320 On ch=1 n=g3 v=0
1553330 Par ch=1 c=64 v=72
1553345 On ch=1 n=g6 v=0
1553350 Par ch=1 c=64 v=56
1553370 On ch=1 n=d#6 v=0
1553370 Par ch=1 c=64 v=40
1553390 On ch=1 n=d#7 v=0
1553405 Par ch=1 c=64 v=24
1553555 On ch=1 n=c7 v=90
1553560 On ch=1 n=c6 v=74
1553565 On ch=1 n=d#6 v=67
1553570 On ch=1 n=g4 v=54
1553590 On ch=1 n=c5 v=42
1553590 On ch=1 n=d#5 v=31
1553610 On ch=1 n=g4 v=0
1553615 On ch=1 n=c6 v=0
1553620 On ch=1 n=d#6 v=0
1553625 On ch=1 n=d#5 v=0
1553625 On ch=1 n=c7 v=0
1553630 On ch=1 n=c5 v=0
1553630 Par ch=1 c=64 v=0
1553790 On ch=1 n=d#5 v=48
1553800 Par ch=1 c=64 v=72
1553810 On ch=1 n=g4 v=40
1553815 On ch=1 n=c5 v=35
1553820 On ch=1 n=d#6 v=73
1553820 On ch=1 n=c7 v=81
1553820 On ch=1 n=c6 v=75
1553820 Par ch=1 c=64 v=127
1553830 On ch=1 n=d#5 v=0
1553845 On ch=1 n=c5 v=0
1553845 On ch=1 n=g4 v=0
1553855 On ch=1 n=c6 v=0
1553875 On ch=1 n=d#6 v=0
1553900 On ch=1 n=c7 v=0
1554055 On ch=1 n=g3 v=68
1554100 Par ch=1 c=64 v=88
1554120 Par ch=1 c=64 v=72
1554125 On ch=1 n=g3 v=0
1554135 Par ch=1 c=64 v=56
1554175 Par ch=1 c=64 v=40
1554195 Par ch=1 c=64 v=24
1554295 On ch=1 n=b4 v=66
1554300 On ch=1 n=g#4 v=44
1554305 On ch=1 n=d5 v=63
1554310 On ch=1 n=d7 v=86
1554315 On ch=1 n=b6 v=79
1554315 On ch=1 n=d6 v=79
1554345 On ch=1 n=d5 v=0
1554365 On ch=1 n=b4 v=0
1554370 On ch=1 n=g#4 v=0
1554385 On ch=1 n=d6 v=0
1554395 On ch=1 n=b6 v=0
1554400 Par ch=1 c=64 v=0
1554415 On ch=1 n=d7 v=0
1554530 Par ch=1 c=64 v=24
1554550 On ch=1 n=g#4 v=73
1554550 Par ch=1 c=64 v=88
1554555 On ch=1 n=d5 v=66
1554560 On ch=1 n=d7 v=86
1554570 On ch=1 n=d6 v=81
1554570 On ch=1 n=b6 v=84
1554570 Par ch=1 c=64 v=127
1554590 On ch=1 n=d5 v=0
1554615 On ch=1 n=g#4 v=0
1554745 On ch=1 n=d6 v=0
1554775 On ch=1 n=b6 v=0
1554775 On ch=1 n=d7 v=0
1554790 On ch=1 n=g3 v=73
1554845 On ch=1 n=g3 v=0
1554885 Par ch=1 c=64 v=88
1554920 On ch=1 n=d7 v=86
1554925 Par ch=1 c=64 v=72
1554930 On ch=1 n=d6 v=80
1554930 On ch=1 n=b6 v=77
1554945 Par ch=1 c=64 v=56
1554960 On ch=1 n=b6 v=0
1554960 On ch=1 n=d6 v=0
1554975 On ch=1 n=d7 v=0
1554980 Par ch=1 c=64 v=40
1555015 On ch=1 n=d5 v=78
1555015 On ch=1 n=g#4 v=67
1555015 On ch=1 n=b4 v=74
1555025 On ch=1 n=d7 v=90
1555030 On ch=1 n=b6 v=74
1555030 On ch=1 n=d6 v=79
1555055 On ch=1 n=b4 v=0
1555055 Par ch=1 c=64 v=24
1555060 On ch=1 n=d5 v=0
1555080 On ch=1 n=g#4 v=0
1555100 On ch=1 n=d6 v=0
1555120 On ch=1 n=b6 v=0
1555130 Par ch=1 c=64 v=0
1555145 On ch=1 n=d7 v=0
1555260 On ch=1 n=d7 v=89
1555260 Par ch=1 c=64 v=40
1555265 On ch=1 n=g#4 v=77
1555275 On ch=1 n=d5 v=63
1555275 On ch=1 n=d6 v=80
1555275 Par ch=1 c=64 v=104
1555295 On ch=1 n=b4 v=47
1555295 Par ch=1 c=64 v=127
1555300 On ch=1 n=b6 v=39
1555305 On ch=1 n=d5 v=0
1555310 On ch=1 n=d6 v=0
1555325 On ch=1 n=b4 v=0
1555330 On ch=1 n=g#4 v=0
1555335 On ch=1 n=b6 v=0
1555360 On ch=1 n=d7 v=0
1555505 On ch=1 n=g3 v=74
1555515 On ch=1 n=c7 v=86
1555515 On ch=1 n=d#7 v=88
1555520 On ch=1 n=d#6 v=89
1555545 On ch=1 n=g3 v=0
1555590 On ch=1 n=d#6 v=0
1555600 On ch=1 n=c7 v=0
1555615 Par ch=1 c=64 v=104
1555635 Par ch=1 c=64 v=88
1555655 On ch=1 n=d#7 v=0
1555670 Par ch=1 c=64 v=72
1555710 Par ch=1 c=64 v=56
1555750 On ch=1 n=f7 v=97
1555750 On ch=1 n=d7 v=85
1555750 On ch=1 n=b4 v=65
1555750 On ch=1 n=g#4 v=55
1555755 On ch=1 n=f6 v=92
1555760 On ch=1 n=d5 v=62
1555785 Par ch=1 c=64 v=40
1555800 On ch=1 n=d5 v=0
1555800 On ch=1 n=b4 v=0
1555815 On ch=1 n=g#4 v=0
1555825 On ch=1 n=d7 v=0
1555830 On ch=1 n=f6 v=0
1555840 Par ch=1 c=64 v=24
1555860 Par ch=1 c=64 v=0
1555870 On ch=1 n=f7 v=0
1555980 On ch=1 n=g#4 v=78
1555990 On ch=1 n=f7 v=98
1555990 On ch=1 n=d7 v=96
1555990 On ch=1 n=d5 v=74
1555990 Par ch=1 c=64 v=40
1555995 On ch=1 n=f6 v=100
1556000 On ch=1 n=b4 v=49
1556010 Par ch=1 c=64 v=104
1556025 On ch=1 n=d5 v=0
1556025 Par ch=1 c=64 v=127
1556035 On ch=1 n=b4 v=0
1556045 On ch=1 n=g#4 v=0
1556055 On ch=1 n=f6 v=0
1556075 On ch=1 n=d7 v=0
1556110 On ch=1 n=f7 v=0
1556235 On ch=1 n=g7 v=100
1556235 On ch=1 n=g3 v=68
1556240 On ch=1 n=g6 v=99
1556240 On ch=1 n=d#7 v=83
1556270 On ch=1 n=g3 v=0
1556290 On ch=1 n=g7 v=0
1556300 On ch=1 n=d#7 v=0
1556300 On ch=1 n=g6 v=0
1556310 Par ch=1 c=64 v=104
1556330 Par ch=1 c=64 v=88
1556345 Par ch=1 c=64 v=72
1556365 Par ch=1 c=64 v=56
1556405 Par ch=1 c=64 v=40
1556440 Par ch=1 c=64 v=24
1556480 On ch=1 n=d#7 v=94
1556490 On ch=1 n=c7 v=69
1556495 On ch=1 n=d#6 v=71
1556510 On ch=1 n=g4 v=54
1556510 On ch=1 n=c5 v=55
1556510 On ch=1 n=d#5 v=60
1556515 Par ch=1 c=64 v=0
1556555 On ch=1 n=g4 v=0
1556560 On ch=1 n=c5 v=0
1556570 On ch=1 n=d#5 v=0
1556570 On ch=1 n=d#6 v=0
1556575 On ch=1 n=c7 v=0
1556605 On ch=1 n=d#7 v=0
1556730 On ch=1 n=d#5 v=60
1556735 On ch=1 n=g4 v=60
1556740 On ch=1 n=c5 v=52
1556740 Par ch=1 c=64 v=56
1556750 On ch=1 n=d#7 v=90
1556755 On ch=1 n=c7 v=79
1556760 On ch=1 n=d#6 v=71
1556760 Par ch=1 c=64 v=127
1556770 On ch=1 n=g4 v=0
1556775 On ch=1 n=c5 v=0
1556780 On ch=1 n=d#5 v=0
1556815 On ch=1 n=d#6 v=0
1556835 On ch=1 n=c7 v=0
1556855 On ch=1 n=d#7 v=0
1556990 On ch=1 n=g3 v=69
1557025 On ch=1 n=g3 v=0
1557115 Par ch=1 c=64 v=104
1557135 Par ch=1 c=64 v=88
1557170 Par ch=1 c=64 v=72
1557190 Par ch=1 c=64 v=56
1557225 Par ch=1 c=64 v=40
1557235 On ch=1 n=d#7 v=84
1557240 On ch=1 n=g#6 v=76
1557240 On ch=1 n=d#6 v=76
1557245 On ch=1 n=c5 v=69
1557245 On ch=1 n=d#5 v=60
1557245 On ch=1 n=f4 v=55
1557300 Par ch=1 c=64 v=24
1557305 On ch=1 n=f4 v=0
1557305 On ch=1 n=d#5 v=0
1557310 On ch=1 n=d#6 v=0
1557315 On ch=1 n=g#6 v=0
1557340 On ch=1 n=c5 v=0
1557345 On ch=1 n=d#7 v=0
1557355 Par ch=1 c=64 v=0
1557495 On ch=1 n=d#5 v=71
1557505 On ch=1 n=d#7 v=95
1557505 On ch=1 n=f4 v=66
1557510 On ch=1 n=d#6 v=91
1557515 On ch=1 n=g#6 v=80
1557515 On ch=1 n=g#4 v=54
1557525 Par ch=1 c=64 v=56
1557545 Par ch=1 c=64 v=127
1557550 On ch=1 n=g#6 v=0
1557555 On ch=1 n=g#4 v=0
1557565 On ch=1 n=d#5 v=0
1557585 On ch=1 n=f4 v=0
1557660 On ch=1 n=d#7 v=0
1557690 On ch=1 n=d#6 v=0
1557735 On ch=1 n=g3 v=70
1557770 On ch=1 n=g3 v=0
1557870 On ch=1 n=d7 v=90
1557880 On ch=1 n=d6 v=80
1557885 Par ch=1 c=64 v=104
1557915 On ch=1 n=d6 v=0
1557920 Par ch=1 c=64 v=88
1557935 Par ch=1 c=64 v=72
1557940 On ch=1 n=d7 v=0
1557975 Par ch=1 c=64 v=56
1557980 On ch=1 n=d5 v=62
1557980 On ch=1 n=g#4 v=60
1557980 On ch=1 n=f4 v=55
1557985 On ch=1 n=d7 v=88
1557990 On ch=1 n=g#6 v=74
1557995 On ch=1 n=d6 v=74
1558015 On ch=1 n=d5 v=0
1558040 On ch=1 n=f4 v=0
1558050 Par ch=1 c=64 v=40
1558065 On ch=1 n=g#4 v=0
1558075 On ch=1 n=d6 v=0
1558100 On ch=1 n=g#6 v=0
1558105 Par ch=1 c=64 v=0
1558110 On ch=1 n=d7 v=0
1558230 On ch=1 n=d7 v=89
1558235 On ch=1 n=d5 v=69
1558235 On ch=1 n=d#4 v=65
1558240 On ch=1 n=g6 v=88
1558240 Par ch=1 c=64 v=24
1558245 On ch=1 n=d6 v=77
1558245 On ch=1 n=g4 v=64
1558255 Par ch=1 c=64 v=88
1558275 Par ch=1 c=64 v=127
1558305 On ch=1 n=d5 v=0
1558320 On ch=1 n=g4 v=0
1558320 On ch=1 n=d#4 v=0
1558335 On ch=1 n=d6 v=0
1558345 On ch=1 n=g6 v=0
1558360 On ch=1 n=d7 v=0
1558470 On ch=1 n=g3 v=69
1558510 On ch=1 n=g3 v=0
1558590 On ch=1 n=c7 v=84
1558590 On ch=1 n=c6 v=84
1558590 Par ch=1 c=64 v=104
1558610 Par ch=1 c=64 v=88
1558625 On ch=1 n=c6 v=0
1558635 On ch=1 n=c7 v=0
1558650 Par ch=1 c=64 v=72
1558670 Par ch=1 c=64 v=56
1558705 On ch=1 n=c7 v=84
1558705 Par ch=1 c=64 v=40
1558710 On ch=1 n=c5 v=53
1558710 On ch=1 n=g6 v=85
1558710 On ch=1 n=g4 v=51
1558710 On ch=1 n=c6 v=83
1558720 On ch=1 n=d#4 v=51
1558765 On ch=1 n=c5 v=0
1558780 Par ch=1 c=64 v=24
1558785 On ch=1 n=c6 v=0
1558785 On ch=1 n=g4 v=0
1558795 On ch=1 n=d#4 v=0
1558795 On ch=1 n=g6 v=0
1558795 Par ch=1 c=64 v=0
1558810 On ch=1 n=c7 v=0
1558945 On ch=1 n=f4 v=71
1558950 On ch=1 n=c5 v=69
1558960 On ch=1 n=c7 v=92
1558965 On ch=1 n=d4 v=67
1558965 On ch=1 n=c6 v=84
1558970 On ch=1 n=f6 v=85
1558970 Par ch=1 c=64 v=88
1558985 Par ch=1 c=64 v=127
1558995 On ch=1 n=c5 v=0
1559015 On ch=1 n=f4 v=0
1559040 On ch=1 n=d4 v=0
1559085 On ch=1 n=c6 v=0
1559095 On ch=1 n=f6 v=0
1559110 On ch=1 n=c7 v=0
1559185 On ch=1 n=g3 v=72
1559270 On ch=1 n=g3 v=0
1559285 Par ch=1 c=64 v=104
1559305 Par ch=1 c=64 v=88
1559310 On ch=1 n=a#5 v=73
1559315 On ch=1 n=a#6 v=80
1559325 Par ch=1 c=64 v=72
1559340 Par ch=1 c=64 v=56
1559360 Par ch=1 c=64 v=40
1559365 On ch=1 n=a#5 v=0
1559370 On ch=1 n=a#6 v=0
1559400 Par ch=1 c=64 v=24
1559415 On ch=1 n=a#4 v=49
1559415 On ch=1 n=a#5 v=71
1559415 On ch=1 n=a#6 v=84
1559420 On ch=1 n=f4 v=59
1559425 On ch=1 n=f6 v=71
1559430 On ch=1 n=d4 v=60
1559475 Par ch=1 c=64 v=0
1559485 On ch=1 n=f4 v=0
1559485 On ch=1 n=a#4 v=0
1559490 On ch=1 n=d4 v=0
1559515 On ch=1 n=f6 v=0
1559515 On ch=1 n=a#5 v=0
1559545 On ch=1 n=a#6 v=0
1559685 On ch=1 n=a#6 v=87
1559690 On ch=1 n=a#4 v=53
1559690 On ch=1 n=a#5 v=78
1559700 On ch=1 n=d#6 v=77
1559700 On ch=1 n=c4 v=60
1559715 Par ch=1 c=64 v=72
1559720 On ch=1 n=d#4 v=52
1559735 Par ch=1 c=64 v=127
1559805 On ch=1 n=c4 v=0
1559820 On ch=1 n=a#4 v=0
1559885 On ch=1 n=d#4 v=0
1559935 On ch=1 n=a#6 v=0
1559935 On ch=1 n=g3 v=70
1560000 On ch=1 n=a#5 v=0
1560015 Par ch=1 c=64 v=104
1560020 On ch=1 n=g3 v=0
1560025 On ch=1 n=d#6 v=0
1560035 Par ch=1 c=64 v=72
1560050 Par ch=1 c=64 v=56
1560070 Par ch=1 c=64 v=40
1560090 Par ch=1 c=64 v=24
1560110 Par ch=1 c=64 v=0
1560180 On ch=1 n=a#6 v=85
1560190 On ch=1 n=a#5 v=77
1560195 On ch=1 n=d#6 v=79
1560195 On ch=1 n=a#4 v=61
1560195 On ch=1 n=d#4 v=55
1560195 On ch=1 n=c4 v=55
1560220 On ch=1 n=d#4 v=50
1560250 On ch=1 n=a#4 v=0
1560255 On ch=1 n=c4 v=0
1560255 On ch=1 n=d#4 v=0
1560255 On ch=1 n=a#5 v=0
1560265 On ch=1 n=d#6 v=0
1560270 On ch=1 n=d#4 v=0
1560280 On ch=1 n=a#6 v=0
1560430 Par ch=1 c=64 v=24
1560440 On ch=1 n=a#6 v=84
1560445 On ch=1 n=a#4 v=57
1560450 Par ch=1 c=64 v=88
1560455 On ch=1 n=a#5 v=76
1560460 On ch=1 n=d#6 v=72
1560465 Par ch=1 c=64 v=127
1560475 On ch=1 n=c4 v=54
1560475 On ch=1 n=d#4 v=52
1560525 On ch=1 n=a#4 v=0
1560545 On ch=1 n=c4 v=0
1560590 On ch=1 n=a#6 v=0
1560595 On ch=1 n=a#5 v=0
1560635 On ch=1 n=d#6 v=0
1560685 On ch=1 n=g3 v=71
1560695 On ch=1 n=d#4 v=0
1560725 On ch=1 n=g3 v=0
1560785 Par ch=1 c=64 v=104
1560790 On ch=1 n=g#6 v=83
1560795 On ch=1 n=g#5 v=65
1560800 Par ch=1 c=64 v=88
1560820 Par ch=1 c=64 v=72
1560840 On ch=1 n=g#5 v=0
1560840 Par ch=1 c=64 v=56
1560850 On ch=1 n=g#6 v=0
1560860 Par ch=1 c=64 v=40
1560880 Par ch=1 c=64 v=24
1560895 Par ch=1 c=64 v=0
1560905 On ch=1 n=g#6 v=84
1560910 On ch=1 n=g#5 v=69
1560920 On ch=1 n=d#4 v=56
1560930 On ch=1 n=g#4 v=39
1560930 On ch=1 n=d#6 v=61
1560935 On ch=1 n=c4 v=52
1560960 On ch=1 n=d#4 v=0
1560965 On ch=1 n=g#4 v=0
1560970 On ch=1 n=d#6 v=0
1560975 On ch=1 n=c4 v=0
1560990 On ch=1 n=g#5 v=0
1561010 On ch=1 n=g#6 v=0
1561160 On ch=1 n=g#4 v=54
1561175 On ch=1 n=g#6 v=83
1561175 On ch=1 n=b3 v=60
1561175 Par ch=1 c=64 v=56
1561180 On ch=1 n=d6 v=77
1561185 On ch=1 n=g#5 v=59
1561190 On ch=1 n=d4 v=52
1561195 Par ch=1 c=64 v=127
1561235 On ch=1 n=d4 v=0
1561275 On ch=1 n=b3 v=0
1561290 On ch=1 n=g#5 v=0
1561290 On ch=1 n=g#4 v=0
1561310 On ch=1 n=d6 v=0
1561315 On ch=1 n=g#6 v=0
1561380 On ch=1 n=g3 v=66
1561495 On ch=1 n=g3 v=0
1561495 Par ch=1 c=64 v=104
1561515 Par ch=1 c=64 v=88
1561520 On ch=1 n=g6 v=82
1561525 On ch=1 n=g5 v=65
1561530 On ch=1 n=d6 v=70
1561550 On ch=1 n=g6 v=0
1561550 Par ch=1 c=64 v=72
1561560 On ch=1 n=d6 v=0
1561565 On ch=1 n=g5 v=0
1561570 Par ch=1 c=64 v=56
1561590 Par ch=1 c=64 v=40
1561625 Par ch=1 c=64 v=24
1561630 On ch=1 n=g6 v=85
1561635 On ch=1 n=d6 v=71
1561635 On ch=1 n=g5 v=60
1561640 On ch=1 n=b3 v=59
1561645 On ch=1 n=g4 v=56
1561655 On ch=1 n=d4 v=46
1561665 Par ch=1 c=64 v=0
1561685 On ch=1 n=g4 v=0
1561685 On ch=1 n=b3 v=0
1561695 On ch=1 n=d4 v=0
1561700 On ch=1 n=d6 v=0
1561720 On ch=1 n=g5 v=0
1561740 On ch=1 n=g6 v=0
1561890 Par ch=1 c=64 v=24
1561895 On ch=1 n=g6 v=86
1561895 On ch=1 n=g4 v=65
1561895 On ch=1 n=c4 v=64
1561900 On ch=1 n=g5 v=70
1561910 On ch=1 n=c6 v=73
1561910 On ch=1 n=g#3 v=54
1561910 Par ch=1 c=64 v=104
1561925 Par ch=1 c=64 v=127
1561960 On ch=1 n=g#3 v=0
1561990 On ch=1 n=g4 v=0
1562010 On ch=1 n=g6 v=0
1562015 On ch=1 n=c6 v=0
1562015 On ch=1 n=g5 v=0
1562050 On ch=1 n=c4 v=0
1562120 On ch=1 n=g#3 v=67
1562185 On ch=1 n=g#3 v=0
1562240 On ch=1 n=f#6 v=88
1562240 On ch=1 n=f#5 v=74
1562285 Par ch=1 c=64 v=104
1562300 On ch=1 n=f#5 v=0
1562300 Par ch=1 c=64 v=72
1562310 On ch=1 n=f#6 v=0
1562320 Par ch=1 c=64 v=56
1562340 Par ch=1 c=64 v=40
1562355 On ch=1 n=f#6 v=75
1562355 Par ch=1 c=64 v=24
1562365 On ch=1 n=f#5 v=57
1562370 On ch=1 n=f#4 v=65
1562370 On ch=1 n=g#3 v=38
1562390 On ch=1 n=c4 v=48
1562395 On ch=1 n=d#6 v=42
1562395 Par ch=1 c=64 v=0
1562425 On ch=1 n=c4 v=0
1562430 On ch=1 n=d#6 v=0
1562430 On ch=1 n=g#3 v=0
1562430 On ch=1 n=f#4 v=0
1562450 On ch=1 n=f#5 v=0
1562500 On ch=1 n=f#6 v=0
1562615 Par ch=1 c=64 v=40
1562625 On ch=1 n=f#6 v=73
1562625 On ch=1 n=f#4 v=52
1562630 On ch=1 n=f#5 v=67
1562635 On ch=1 n=d#6 v=60
1562640 Par ch=1 c=64 v=127
1562650 On ch=1 n=c6 v=64
1562655 On ch=1 n=c4 v=44
1562690 On ch=1 n=c6 v=0
1562700 On ch=1 n=c4 v=0
1562780 On ch=1 n=f#4 v=0
1562785 On ch=1 n=d#6 v=0
1562830 On ch=1 n=f#5 v=0
1562830 On ch=1 n=f#6 v=0
1562880 On ch=1 n=g3 v=66
1562910 On ch=1 n=g3 v=0
1562995 Par ch=1 c=64 v=88
1563015 Par ch=1 c=64 v=72
1563030 Par ch=1 c=64 v=56
1563050 Par ch=1 c=64 v=40
1563065 Par ch=1 c=64 v=24
1563090 Par ch=1 c=64 v=0
1563150 On ch=1 n=b4 v=64
1563155 On ch=1 n=g5 v=74
1563165 On ch=1 n=d5 v=40
1563170 On ch=1 n=f5 v=55
1563210 On ch=1 n=d5 v=0
1563225 On ch=1 n=f5 v=0
1563225 On ch=1 n=b4 v=0
1563235 On ch=1 n=g5 v=0
1563455 On ch=1 n=g5 v=72
1563455 On ch=1 n=d5 v=50
1563460 Par ch=1 c=64 v=72
1563465 On ch=1 n=b4 v=46
1563465 On ch=1 n=f5 v=52
1563480 Par ch=1 c=64 v=127
1563500 On ch=1 n=b4 v=0
1563515 On ch=1 n=d5 v=0
1563650 On ch=1 n=f5 v=0
1563695 On ch=1 n=g3 v=65
1563710 On ch=1 n=g5 v=0
1563740 Par ch=1 c=64 v=104
1563760 Par ch=1 c=64 v=72
1563770 On ch=1 n=g3 v=0
1563780 Par ch=1 c=64 v=40
1563800 Par ch=1 c=64 v=24
1563815 Par ch=1 c=64 v=0
1563935 On ch=1 n=g5 v=70
1563935 On ch=1 n=f5 v=59
1563935 On ch=1 n=d5 v=64
1563935 On ch=1 n=b4 v=76
1563980 On ch=1 n=d5 v=0
1563995 On ch=1 n=b4 v=0
1564010 On ch=1 n=f5 v=0
1564025 On ch=1 n=g5 v=0
1564185 On ch=1 n=g5 v=79
1564190 On ch=1 n=d5 v=53
1564190 On ch=1 n=f5 v=63
1564190 On ch=1 n=b4 v=57
1564195 Par ch=1 c=64 v=56
1564210 Par ch=1 c=64 v=104
1564225 On ch=1 n=b4 v=0
1564225 On ch=1 n=d5 v=0
1564230 Par ch=1 c=64 v=127
1564365 On ch=1 n=f5 v=0
1564370 On ch=1 n=g5 v=0
1564420 On ch=1 n=g3 v=76
1564435 Par ch=1 c=64 v=88
1564455 Par ch=1 c=64 v=40
1564470 On ch=1 n=g3 v=0
1564475 Par ch=1 c=64 v=24
1564490 Par ch=1 c=64 v=0
1564545 On ch=1 n=a5 v=77
1564620 On ch=1 n=a5 v=0
1564655 On ch=1 n=b5 v=81
1564660 On ch=1 n=g4 v=73
1564665 On ch=1 n=d5 v=60
1564665 On ch=1 n=f5 v=58
1564695 On ch=1 n=g4 v=0
1564700 On ch=1 n=d5 v=0
1564715 On ch=1 n=f5 v=0
1564740 On ch=1 n=b5 v=0
1564905 Par ch=1 c=64 v=72
1564910 On ch=1 n=b5 v=92
1564910 On ch=1 n=g4 v=75
1564910 On ch=1 n=e5 v=73
1564920 On ch=1 n=c5 v=53
1564925 Par ch=1 c=64 v=127
1564950 On ch=1 n=g4 v=0
1564960 On ch=1 n=c5 v=0
1565125 On ch=1 n=b5 v=0
1565155 On ch=1 n=c6 v=85
1565155 On ch=1 n=g3 v=70
1565185 On ch=1 n=g3 v=0
1565185 Par ch=1 c=64 v=88
1565200 Par ch=1 c=64 v=56
1565210 On ch=1 n=e5 v=0
1565220 Par ch=1 c=64 v=40
1565240 Par ch=1 c=64 v=0
1565260 On ch=1 n=c6 v=0
1565395 On ch=1 n=g5 v=81
1565395 On ch=1 n=c4 v=50
1565400 On ch=1 n=c5 v=68
1565405 On ch=1 n=e5 v=64
1565430 On ch=1 n=c5 v=0
1565455 On ch=1 n=c4 v=0
1565465 On ch=1 n=e5 v=0
1565470 On ch=1 n=g5 v=0
1565615 Par ch=1 c=64 v=40
1565630 Par ch=1 c=64 v=104
1565640 On ch=1 n=c5 v=70
1565650 On ch=1 n=c4 v=69
1565650 Par ch=1 c=64 v=127
1565655 On ch=1 n=g5 v=79
1565660 On ch=1 n=e5 v=66
1565680 On ch=1 n=c5 v=0
1565690 On ch=1 n=c4 v=0
1565885 On ch=1 n=g3 v=75
1565890 On ch=1 n=e5 v=0
1565935 Par ch=1 c=64 v=104
1565950 On ch=1 n=g5 v=0
1565950 Par ch=1 c=64 v=88
1565955 On ch=1 n=g3 v=0
1565970 Par ch=1 c=64 v=56
1565990 Par ch=1 c=64 v=40
1566010 Par ch=1 c=64 v=24
1566045 Par ch=1 c=64 v=0
1566125 On ch=1 n=g#5 v=91
1566125 On ch=1 n=d#5 v=73
1566130 On ch=1 n=d#4 v=76
1566130 On ch=1 n=c5 v=70
1566165 On ch=1 n=c5 v=0
1566185 On ch=1 n=d#4 v=0
1566195 On ch=1 n=d#5 v=0
1566225 On ch=1 n=g#5 v=0
1566390 On ch=1 n=d#4 v=83
1566395 On ch=1 n=c5 v=75
1566395 On ch=1 n=g#5 v=90
1566395 On ch=1 n=d#5 v=75
1566400 Par ch=1 c=64 v=40
1566420 Par ch=1 c=64 v=104
1566425 On ch=1 n=c5 v=0
1566440 Par ch=1 c=64 v=127
1566460 On ch=1 n=d#4 v=0
1566605 On ch=1 n=g#5 v=0
1566605 On ch=1 n=f#3 v=73
1566610 On ch=1 n=d#5 v=0
1566685 On ch=1 n=f#3 v=0
1566775 Par ch=1 c=64 v=104
1566795 Par ch=1 c=64 v=72
1566815 Par ch=1 c=64 v=56
1566830 Par ch=1 c=64 v=40
1566845 On ch=1 n=g#5 v=83
1566845 On ch=1 n=d#5 v=80
1566850 Par ch=1 c=64 v=24
1566855 On ch=1 n=d#4 v=82
1566855 On ch=1 n=c5 v=80
1566890 On ch=1 n=c5 v=0
1566890 Par ch=1 c=64 v=0
1566900 On ch=1 n=d#4 v=0
1566930 On ch=1 n=d#5 v=0
1566960 On ch=1 n=g#5 v=0
1567095 On ch=1 n=g#5 v=87
1567095 Par ch=1 c=64 v=72
1567100 On ch=1 n=d#5 v=71
1567105 On ch=1 n=d#4 v=85
1567110 On ch=1 n=c5 v=77
1567115 Par ch=1 c=64 v=127
1567140 On ch=1 n=c5 v=0
1567170 On ch=1 n=d#4 v=0
1567290 On ch=1 n=g#5 v=0
1567300 On ch=1 n=d#5 v=0
1567330 On ch=1 n=f#3 v=74
1567380 Par ch=1 c=64 v=104
1567395 Par ch=1 c=64 v=72
1567405 On ch=1 n=f#3 v=0
1567410 Par ch=1 c=64 v=56
1567430 Par ch=1 c=64 v=24
1567450 On ch=1 n=a#5 v=82
1567450 Par ch=1 c=64 v=0
1567565 On ch=1 n=c6 v=96
1567570 On ch=1 n=g#4 v=80
1567570 On ch=1 n=d#5 v=80
1567580 On ch=1 n=g#3 v=53
1567590 On ch=1 n=a#5 v=0
1567620 On ch=1 n=g#3 v=0
1567630 On ch=1 n=g#4 v=0
1567645 On ch=1 n=d#5 v=0
1567690 On ch=1 n=c6 v=0
1567810 On ch=1 n=c6 v=96
1567810 On ch=1 n=c#5 v=78
1567825 On ch=1 n=g#4 v=81
1567830 On ch=1 n=g#3 v=75
1567845 Par ch=1 c=64 v=88
1567860 Par ch=1 c=64 v=127
1567900 On ch=1 n=g#4 v=0
1567910 On ch=1 n=g#3 v=0
1567975 On ch=1 n=c6 v=0
1567995 On ch=1 n=c#5 v=0
1568055 On ch=1 n=c#6 v=91
1568055 On ch=1 n=f3 v=75
1568105 Par ch=1 c=64 v=88
1568125 Par ch=1 c=64 v=56
1568130 On ch=1 n=f3 v=0
1568145 Par ch=1 c=64 v=24
1568160 Par ch=1 c=64 v=0
1568175 On ch=1 n=c#6 v=0
1568275 On ch=1 n=g#5 v=89
1568285 On ch=1 n=c#5 v=67
1568290 On ch=1 n=c#4 v=81
1568295 On ch=1 n=g#4 v=72
1568345 On ch=1 n=c#5 v=0
1568350 On ch=1 n=g#4 v=0
1568360 On ch=1 n=c#4 v=0
1568385 On ch=1 n=g#5 v=0
1568535 On ch=1 n=g#5 v=90
1568540 On ch=1 n=c#5 v=77
1568540 On ch=1 n=g#4 v=72
1568545 On ch=1 n=c#4 v=81
1568555 Par ch=1 c=64 v=56
1568575 Par ch=1 c=64 v=127
1568635 On ch=1 n=g#4 v=0
1568715 On ch=1 n=c#4 v=0
1568750 On ch=1 n=c#5 v=0
1568785 On ch=1 n=f3 v=76
1568855 Par ch=1 c=64 v=104
1568860 On ch=1 n=f3 v=0
1568875 Par ch=1 c=64 v=72
1568890 Par ch=1 c=64 v=40
1568895 On ch=1 n=g#5 v=0
1568910 Par ch=1 c=64 v=24
1568950 Par ch=1 c=64 v=0
1569025 On ch=1 n=a#5 v=88
1569030 On ch=1 n=g#5 v=78
1569030 On ch=1 n=d5 v=80
1569035 On ch=1 n=g#4 v=79
1569035 On ch=1 n=a#3 v=83
1569090 On ch=1 n=g#4 v=0
1569095 On ch=1 n=a#3 v=0
1569095 On ch=1 n=d5 v=0
1569100 On ch=1 n=g#5 v=0
1569125 On ch=1 n=a#5 v=0
1569280 On ch=1 n=a#5 v=95
1569295 On ch=1 n=d5 v=84
1569295 On ch=1 n=g#5 v=75
1569295 On ch=1 n=g#4 v=84
1569300 On ch=1 n=a#3 v=87
1569305 Par ch=1 c=64 v=56
1569325 Par ch=1 c=64 v=127
1569365 On ch=1 n=g#4 v=0
1569395 On ch=1 n=a#3 v=0
1569490 On ch=1 n=d5 v=0
1569495 On ch=1 n=a#5 v=0
1569500 On ch=1 n=f3 v=80
1569505 On ch=1 n=g#5 v=0
1569595 On ch=1 n=f3 v=0
1569675 Par ch=1 c=64 v=104
1569700 Par ch=1 c=64 v=88
1569715 Par ch=1 c=64 v=72
1569730 On ch=1 n=a#5 v=88
1569730 On ch=1 n=a#3 v=85
1569735 On ch=1 n=g#4 v=83
1569735 On ch=1 n=g#5 v=83
1569740 On ch=1 n=d5 v=90
1569755 Par ch=1 c=64 v=56
1569810 Par ch=1 c=64 v=40
1569825 On ch=1 n=d5 v=0
1569825 On ch=1 n=g#4 v=0
1569825 On ch=1 n=a#3 v=0
1569840 On ch=1 n=g#5 v=0
1569840 On ch=1 n=a#5 v=0
1569865 Par ch=1 c=64 v=0
1569965 On ch=1 n=a#5 v=95
1569970 On ch=1 n=g#5 v=87
1569970 On ch=1 n=d5 v=92
1569975 On ch=1 n=a#3 v=82
1569980 On ch=1 n=g#4 v=77
1570035 Par ch=1 c=64 v=56
1570050 Par ch=1 c=64 v=127
1570130 On ch=1 n=g#4 v=0
1570195 On ch=1 n=f3 v=72
1570205 On ch=1 n=a#3 v=0
1570240 On ch=1 n=a#5 v=0
1570255 On ch=1 n=g#5 v=0
1570260 On ch=1 n=f3 v=0
1570260 On ch=1 n=d5 v=0
1570290 On ch=1 n=c6 v=100
1570385 On ch=1 n=c6 v=0
1570390 Par ch=1 c=64 v=104
1570410 On ch=1 n=a#3 v=97
1570410 Par ch=1 c=64 v=72
1570415 On ch=1 n=a#2 v=78
1570425 Par ch=1 c=64 v=56
1570430 On ch=1 n=d6 v=100
1570435 On ch=1 n=d5 v=87
1570435 On ch=1 n=g#5 v=84
1570445 Par ch=1 c=64 v=40
1570460 On ch=1 n=a#3 v=0
1570465 On ch=1 n=d5 v=0
1570465 Par ch=1 c=64 v=0
1570470 On ch=1 n=a#2 v=0
1570535 On ch=1 n=g#5 v=0
1570565 On ch=1 n=d6 v=0
1570690 On ch=1 n=d6 v=96
1570695 On ch=1 n=a#3 v=96
1570695 On ch=1 n=a#2 v=99
1570695 On ch=1 n=d5 v=85
1570700 On ch=1 n=g#5 v=68
1570725 Par ch=1 c=64 v=24
1570745 Par ch=1 c=64 v=127
1570755 On ch=1 n=a#3 v=0
1570765 On ch=1 n=a#2 v=0
1570780 On ch=1 n=d5 v=0
1570810 On ch=1 n=g#5 v=0
1570810 On ch=1 n=d6 v=0
1570950 On ch=1 n=d#6 v=94
1570950 On ch=1 n=g5 v=71
1570965 On ch=1 n=d#5 v=67
1571010 On ch=1 n=g5 v=0
1571040 On ch=1 n=d#5 v=0
1571065 On ch=1 n=d#3 v=88
1571070 On ch=1 n=d#4 v=96
1571080 On ch=1 n=d#6 v=0
1571120 On ch=1 n=d#4 v=0
1571120 Par ch=1 c=64 v=72
1571135 On ch=1 n=d#3 v=0
1571140 Par ch=1 c=64 v=40
1571155 Par ch=1 c=64 v=0
1571165 On ch=1 n=d#5 v=77
1571170 On ch=1 n=a#5 v=80
1571175 On ch=1 n=g5 v=78
1571200 On ch=1 n=d#3 v=67
1571200 On ch=1 n=d#4 v=99
1571255 On ch=1 n=d#4 v=0
1571260 On ch=1 n=g5 v=0
1571265 On ch=1 n=d#3 v=0
1571265 On ch=1 n=d#5 v=0
1571305 On ch=1 n=a#5 v=0
1571415 Par ch=1 c=64 v=40
1571435 On ch=1 n=d#4 v=98
1571435 On ch=1 n=d#3 v=84
1571440 On ch=1 n=a#5 v=74
1571440 Par ch=1 c=64 v=127
1571445 On ch=1 n=d#5 v=71
1571445 On ch=1 n=g5 v=73
1571495 On ch=1 n=d#4 v=0
1571500 On ch=1 n=d#3 v=0
1571620 On ch=1 n=d#5 v=0
1571620 On ch=1 n=a#5 v=0
1571660 On ch=1 n=f4 v=95
1571675 On ch=1 n=f3 v=86
1571680 Par ch=1 c=64 v=104
1571700 Par ch=1 c=64 v=72
1571720 Par ch=1 c=64 v=40
1571730 On ch=1 n=f3 v=0
1571730 On ch=1 n=f4 v=0
1571740 Par ch=1 c=64 v=0
1571755 On ch=1 n=g5 v=0
1571900 On ch=1 n=a#5 v=79
1571900 On ch=1 n=g4 v=94
1571910 On ch=1 n=d#5 v=62
1571910 On ch=1 n=g3 v=83
1571960 On ch=1 n=g3 v=0
1571970 On ch=1 n=g4 v=0
1571995 On ch=1 n=d#5 v=0
1572035 On ch=1 n=a#5 v=0
1572155 On ch=1 n=a#5 v=80
1572165 On ch=1 n=g4 v=97
1572165 Par ch=1 c=64 v=40
1572170 On ch=1 n=d#5 v=78
1572180 On ch=1 n=g3 v=90
1572185 Par ch=1 c=64 v=127
1572240 On ch=1 n=g3 v=0
1572240 On ch=1 n=g4 v=0
1572345 On ch=1 n=d#5 v=0
1572400 On ch=1 n=f4 v=92
1572410 On ch=1 n=f3 v=87
1572440 On ch=1 n=a#5 v=0
1572450 Par ch=1 c=64 v=88
1572470 Par ch=1 c=64 v=72
1572475 On ch=1 n=f4 v=0
1572485 On ch=1 n=f3 v=0
1572485 Par ch=1 c=64 v=40
1572505 Par ch=1 c=64 v=24
1572520 On ch=1 n=c6 v=92
1572540 Par ch=1 c=64 v=0
1572595 On ch=1 n=c6 v=0
1572630 On ch=1 n=a#5 v=85
1572645 On ch=1 n=f4 v=93
1572645 On ch=1 n=g#5 v=70
1572650 On ch=1 n=d5 v=70
1572655 On ch=1 n=f3 v=87
1572710 On ch=1 n=f4 v=0
1572715 On ch=1 n=f3 v=0
1572715 On ch=1 n=d5 v=0
1572760 On ch=1 n=a#5 v=0
1572775 On ch=1 n=g#5 v=0
1572915 On ch=1 n=a#5 v=94
1572915 On ch=1 n=f4 v=100
1572915 On ch=1 n=g#5 v=70
1572915 Par ch=1 c=64 v=24
1572925 On ch=1 n=f3 v=97
1572930 On ch=1 n=d5 v=75
1572935 Par ch=1 c=64 v=104
1572955 Par ch=1 c=64 v=127
1572975 On ch=1 n=g#5 v=0
1573110 On ch=1 n=d5 v=0
1573115 On ch=1 n=a#5 v=0
1573165 On ch=1 n=c6 v=87
1573205 On ch=1 n=f4 v=0
1573210 On ch=1 n=f3 v=0
1573215 Par ch=1 c=64 v=88
1573235 Par ch=1 c=64 v=72
1573255 Par ch=1 c=64 v=40
1573275 On ch=1 n=c6 v=0
1573275 Par ch=1 c=64 v=24
1573390 On ch=1 n=d6 v=91
1573395 On ch=1 n=g#5 v=67
1573400 On ch=1 n=d5 v=70
1573405 On ch=1 n=f4 v=87
1573410 On ch=1 n=f3 v=84
1573420 Par ch=1 c=64 v=0
1573465 On ch=1 n=f4 v=0
1573475 On ch=1 n=f3 v=0
1573480 On ch=1 n=d5 v=0
1573505 On ch=1 n=g#5 v=0
1573510 On ch=1 n=d6 v=0
1573660 On ch=1 n=d6 v=93
1573665 On ch=1 n=g4 v=96
1573665 On ch=1 n=d5 v=81
1573665 Par ch=1 c=64 v=72
1573670 On ch=1 n=g3 v=97
1573675 On ch=1 n=a#5 v=65
1573685 Par ch=1 c=64 v=127
1573730 On ch=1 n=g3 v=0
1573740 On ch=1 n=d5 v=0
1573745 On ch=1 n=g4 v=0
1573765 On ch=1 n=d6 v=0
1573830 On ch=1 n=a#5 v=0
1573925 On ch=1 n=d#6 v=94
1573940 On ch=1 n=d#5 v=64
1574000 On ch=1 n=g#4 v=90
1574000 On ch=1 n=g#3 v=87
1574020 On ch=1 n=d#5 v=0
1574030 On ch=1 n=d#6 v=0
1574045 On ch=1 n=g#4 v=0
1574050 On ch=1 n=g#3 v=0
1574060 Par ch=1 c=64 v=104
1574080 Par ch=1 c=64 v=72
1574095 Par ch=1 c=64 v=56
1574115 Par ch=1 c=64 v=40
1574125 On ch=1 n=a#4 v=100
1574125 On ch=1 n=a#3 v=93
1574135 Par ch=1 c=64 v=24
1574140 On ch=1 n=d#5 v=72
1574145 On ch=1 n=a#5 v=88
1574155 Par ch=1 c=64 v=0
1574180 On ch=1 n=g5 v=57
1574185 On ch=1 n=a#3 v=0
1574185 On ch=1 n=a#4 v=0
1574225 On ch=1 n=d#5 v=0
1574235 On ch=1 n=g5 v=0
1574260 On ch=1 n=a#5 v=0
1574400 On ch=1 n=a#4 v=97
1574405 On ch=1 n=a#3 v=86
1574415 On ch=1 n=a#5 v=77
1574425 On ch=1 n=d#5 v=60
1574430 On ch=1 n=g5 v=68
1574435 Par ch=1 c=64 v=104
1574450 Par ch=1 c=64 v=127
1574455 On ch=1 n=a#4 v=0
1574460 On ch=1 n=a#3 v=0
1574570 On ch=1 n=d#5 v=0
1574635 On ch=1 n=g#4 v=95
1574640 On ch=1 n=a#5 v=0
1574640 On ch=1 n=g#3 v=84
1574695 On ch=1 n=g#4 v=0
1574695 On ch=1 n=g5 v=0
1574710 On ch=1 n=g#3 v=0
1574735 Par ch=1 c=64 v=104
1574755 Par ch=1 c=64 v=88
1574770 Par ch=1 c=64 v=56
1574805 Par ch=1 c=64 v=40
1574865 Par ch=1 c=64 v=24
1574875 On ch=1 n=g4 v=92
1574880 On ch=1 n=a#5 v=85
1574880 On ch=1 n=g3 v=80
1574885 On ch=1 n=d#5 v=70
1574885 Par ch=1 c=64 v=0
1574920 On ch=1 n=g3 v=0
1574945 On ch=1 n=g4 v=0
1574970 On ch=1 n=d#5 v=0
1575000 On ch=1 n=a#5 v=0
1575105 Par ch=1 c=64 v=24
1575125 On ch=1 n=a#5 v=92
1575125 On ch=1 n=g#5 v=70
1575125 Par ch=1 c=64 v=88
1575130 On ch=1 n=d#5 v=74
1575130 On ch=1 n=g4 v=99
1575140 On ch=1 n=g3 v=88
1575145 Par ch=1 c=64 v=127
1575185 On ch=1 n=g#5 v=0
1575205 On ch=1 n=g4 v=0
1575210 On ch=1 n=g3 v=0
1575325 On ch=1 n=d#5 v=0
1575375 On ch=1 n=f4 v=94
1575390 On ch=1 n=f3 v=72
1575410 Par ch=1 c=64 v=104
1575415 On ch=1 n=a#5 v=0
1575425 On ch=1 n=f3 v=0
1575425 Par ch=1 c=64 v=88
1575440 On ch=1 n=f4 v=0
1575445 Par ch=1 c=64 v=72
1575465 Par ch=1 c=64 v=56
1575480 Par ch=1 c=64 v=40
1575490 On ch=1 n=c6 v=93
1575540 Par ch=1 c=64 v=24
1575585 On ch=1 n=c6 v=0
1575595 Par ch=1 c=64 v=0
1575600 On ch=1 n=f4 v=91
1575605 On ch=1 n=a#5 v=91
1575605 On ch=1 n=f3 v=82
1575615 On ch=1 n=g#5 v=69
1575630 On ch=1 n=d5 v=71
1575665 On ch=1 n=f4 v=0
1575685 On ch=1 n=d5 v=0
1575685 On ch=1 n=f3 v=0
1575705 On ch=1 n=g#5 v=0
1575730 On ch=1 n=a#5 v=0
1575840 Par ch=1 c=64 v=56
1575850 On ch=1 n=a#5 v=94
1575855 On ch=1 n=f4 v=94
1575855 Par ch=1 c=64 v=127
1575865 On ch=1 n=f3 v=79
1575870 On ch=1 n=d5 v=61
1575870 On ch=1 n=g#5 v=48
1575895 On ch=1 n=f4 v=0
1575900 On ch=1 n=f3 v=0
1576030 On ch=1 n=d5 v=0
1576060 On ch=1 n=g#5 v=0
1576060 On ch=1 n=a#5 v=0
1576080 On ch=1 n=a#2 v=65
1576085 On ch=1 n=a#3 v=74
1576100 On ch=1 n=c6 v=87
1576120 On ch=1 n=a#3 v=0
1576120 On ch=1 n=a#2 v=0
1576155 Par ch=1 c=64 v=104
1576175 Par ch=1 c=64 v=88
1576195 Par ch=1 c=64 v=72
1576205 On ch=1 n=c6 v=0
1576215 Par ch=1 c=64 v=56
1576230 Par ch=1 c=64 v=40
1576305 Par ch=1 c=64 v=24
1576325 On ch=1 n=d6 v=83
1576325 On ch=1 n=a#5 v=65
1576330 On ch=1 n=d5 v=65
1576330 On ch=1 n=a#4 v=63
1576335 On ch=1 n=g4 v=61
1576360 Par ch=1 c=64 v=0
1576385 On ch=1 n=d5 v=0
1576390 On ch=1 n=g4 v=0
1576400 On ch=1 n=a#4 v=0
1576415 On ch=1 n=d6 v=0
1576430 On ch=1 n=a#5 v=0
1576535 On ch=1 n=a#4 v=65
1576550 On ch=1 n=g4 v=68
1576565 On ch=1 n=d6 v=82
1576570 On ch=1 n=d5 v=64
1576575 On ch=1 n=a#5 v=68
1576580 On ch=1 n=g4 v=0
1576585 Par ch=1 c=64 v=88
1576595 On ch=1 n=a#4 v=0
1576605 Par ch=1 c=64 v=127
1576620 On ch=1 n=d5 v=0
1576645 On ch=1 n=d6 v=0
1576690 On ch=1 n=a#5 v=0
1576795 On ch=1 n=a#2 v=63
1576800 On ch=1 n=d#5 v=75
1576800 On ch=1 n=a#3 v=56
1576800 On ch=1 n=d#6 v=87
1576840 On ch=1 n=a#2 v=0
1576845 On ch=1 n=a#3 v=0
1576870 On ch=1 n=d#5 v=0
1576925 On ch=1 n=d#6 v=0
1577035 Par ch=1 c=64 v=88
1577040 On ch=1 n=a#4 v=51
1577045 On ch=1 n=d#6 v=80
1577050 On ch=1 n=d#5 v=77
1577055 Par ch=1 c=64 v=72
1577060 On ch=1 n=g4 v=63
1577060 On ch=1 n=a#5 v=77
1577075 Par ch=1 c=64 v=56
1577095 Par ch=1 c=64 v=24
1577110 On ch=1 n=g4 v=0
1577110 On ch=1 n=a#4 v=0
1577110 Par ch=1 c=64 v=0
1577135 On ch=1 n=d#5 v=0
1577155 On ch=1 n=d#6 v=0
1577165 On ch=1 n=a#5 v=0
1577270 On ch=1 n=a#4 v=67
1577280 Par ch=1 c=64 v=88
1577285 On ch=1 n=d#5 v=83
1577285 On ch=1 n=g4 v=64
1577285 On ch=1 n=d#6 v=80
1577290 On ch=1 n=a#5 v=71
1577300 Par ch=1 c=64 v=127
1577315 On ch=1 n=g4 v=0
1577330 On ch=1 n=a#4 v=0
1577345 On ch=1 n=a#5 v=0
1577350 On ch=1 n=d#5 v=0
1577380 On ch=1 n=d#6 v=0
1577520 On ch=1 n=d6 v=84
1577525 On ch=1 n=f6 v=85
1577530 On ch=1 n=f5 v=71
1577530 On ch=1 n=a#3 v=46
1577560 On ch=1 n=a#3 v=0
1577590 On ch=1 n=f5 v=0
1577610 On ch=1 n=d6 v=0
1577620 Par ch=1 c=64 v=104
1577625 On ch=1 n=f6 v=0
1577640 Par ch=1 c=64 v=88
1577660 Par ch=1 c=64 v=72
1577715 Par ch=1 c=64 v=56
1577745 On ch=1 n=a#4 v=69
1577745 On ch=1 n=d#5 v=70
1577765 On ch=1 n=g6 v=92
1577765 On ch=1 n=g5 v=86
1577765 On ch=1 n=d#6 v=82
1577770 Par ch=1 c=64 v=40
1577800 On ch=1 n=d#5 v=0
1577810 On ch=1 n=a#4 v=0
1577825 Par ch=1 c=64 v=24
1577830 On ch=1 n=g5 v=0
1577845 Par ch=1 c=64 v=0
1577850 On ch=1 n=d#6 v=0
1577860 On ch=1 n=g6 v=0
1577960 Par ch=1 c=64 v=56
1577975 Par ch=1 c=64 v=127
1577995 On ch=1 n=d#5 v=83
1578005 On ch=1 n=g6 v=85
1578005 On ch=1 n=a#4 v=70
1578010 On ch=1 n=d#6 v=77
1578010 On ch=1 n=g5 v=82
1578050 On ch=1 n=d#5 v=0
1578065 On ch=1 n=a#4 v=0
1578085 On ch=1 n=d#6 v=0
1578090 On ch=1 n=g6 v=0
1578105 On ch=1 n=g5 v=0
1578240 On ch=1 n=a#3 v=80
1578240 On ch=1 n=a#2 v=71
1578260 On ch=1 n=f6 v=87
1578270 On ch=1 n=d6 v=79
1578270 On ch=1 n=f5 v=76
1578275 On ch=1 n=a#2 v=0
1578275 On ch=1 n=a#3 v=0
1578340 On ch=1 n=f5 v=0
1578360 On ch=1 n=d6 v=0
1578375 On ch=1 n=f6 v=0
1578410 Par ch=1 c=64 v=104
1578425 Par ch=1 c=64 v=88
1578445 Par ch=1 c=64 v=72
1578480 On ch=1 n=a#4 v=72
1578480 Par ch=1 c=64 v=56
1578485 On ch=1 n=f6 v=92
1578485 On ch=1 n=d6 v=82
1578490 On ch=1 n=d5 v=74
1578490 On ch=1 n=f5 v=81
1578525 On ch=1 n=d5 v=0
1578540 Par ch=1 c=64 v=40
1578550 On ch=1 n=a#4 v=0
1578555 Par ch=1 c=64 v=24
1578570 On ch=1 n=f5 v=0
1578575 Par ch=1 c=64 v=0
1578595 On ch=1 n=d6 v=0
1578605 On ch=1 n=f6 v=0
1578705 Par ch=1 c=64 v=40
1578720 On ch=1 n=f6 v=88
1578725 On ch=1 n=a#4 v=85
1578725 On ch=1 n=d5 v=80
1578725 On ch=1 n=d6 v=81
1578725 Par ch=1 c=64 v=104
1578730 On ch=1 n=f5 v=78
1578745 Par ch=1 c=64 v=127
1578755 On ch=1 n=d5 v=0
1578770 On ch=1 n=a#4 v=0
1578825 On ch=1 n=f5 v=0
1578850 On ch=1 n=d6 v=0
1578850 On ch=1 n=f6 v=0
1578960 On ch=1 n=a#3 v=84
1578965 On ch=1 n=a#2 v=71
1578975 On ch=1 n=f6 v=86
1578975 On ch=1 n=d6 v=82
1578980 On ch=1 n=f5 v=80
1578995 On ch=1 n=a#3 v=0
1579000 On ch=1 n=a#2 v=0
1579060 On ch=1 n=f5 v=0
1579090 On ch=1 n=d6 v=0
1579090 On ch=1 n=f6 v=0
1579190 On ch=1 n=f6 v=85
1579200 On ch=1 n=d6 v=88
1579200 On ch=1 n=d5 v=77
1579200 On ch=1 n=f5 v=79
1579200 On ch=1 n=a#4 v=72
1579250 On ch=1 n=d5 v=0
1579260 On ch=1 n=a#4 v=0
1579265 On ch=1 n=f5 v=0
1579290 On ch=1 n=d6 v=0
1579290 On ch=1 n=f6 v=0
1579380 Par ch=1 c=64 v=56
1579400 Par ch=1 c=64 v=0
1579440 On ch=1 n=d#5 v=93
1579450 On ch=1 n=a#4 v=76
1579450 On ch=1 n=d#6 v=89
1579455 On ch=1 n=g6 v=90
1579455 On ch=1 n=g5 v=79
1579475 Par ch=1 c=64 v=40
1579495 On ch=1 n=d#5 v=0
1579495 Par ch=1 c=64 v=127
1579505 On ch=1 n=a#4 v=0
1579515 On ch=1 n=g5 v=0
1579535 On ch=1 n=g6 v=0
1579565 On ch=1 n=d#6 v=0
1579685 On ch=1 n=g#6 v=95
1579685 On ch=1 n=g#5 v=99
1579685 On ch=1 n=f6 v=70
1579700 On ch=1 n=a#3 v=87
1579720 On ch=1 n=a#2 v=34
1579730 On ch=1 n=a#3 v=0
1579750 On ch=1 n=a#2 v=0
1579760 On ch=1 n=g#5 v=0
1579770 On ch=1 n=f6 v=0
1579780 On ch=1 n=g#6 v=0
1579870 Par ch=1 c=64 v=104
1579925 On ch=1 n=a#6 v=88
1579935 On ch=1 n=a#5 v=85
1579940 On ch=1 n=g6 v=92
1579940 On ch=1 n=a#4 v=76
1579940 On ch=1 n=d#5 v=80
1579990 On ch=1 n=d#5 v=0
1580005 On ch=1 n=a#4 v=0
1580035 On ch=1 n=a#5 v=0
1580040 On ch=1 n=g6 v=0
1580040 On ch=1 n=a#6 v=0
1580055 Par ch=1 c=64 v=56
1580075 Par ch=1 c=64 v=0
1580170 On ch=1 n=a#6 v=95
1580170 On ch=1 n=a#5 v=100
1580175 On ch=1 n=d#5 v=86
1580185 On ch=1 n=a#4 v=67
1580185 On ch=1 n=g6 v=70
1580205 Par ch=1 c=64 v=72
1580220 On ch=1 n=g6 v=0
1580220 On ch=1 n=a#4 v=0
1580220 On ch=1 n=d#5 v=0
1580225 Par ch=1 c=64 v=127
1580255 On ch=1 n=a#6 v=0
1580275 On ch=1 n=a#5 v=0
1580405 On ch=1 n=a#2 v=71
1580410 On ch=1 n=g#6 v=93
1580415 On ch=1 n=f6 v=77
1580415 On ch=1 n=a#3 v=71
1580420 On ch=1 n=g#5 v=77
1580450 On ch=1 n=a#3 v=0
1580455 On ch=1 n=a#2 v=0
1580490 On ch=1 n=f6 v=0
1580530 On ch=1 n=g#5 v=0
1580540 On ch=1 n=g#6 v=0
1580565 Par ch=1 c=64 v=104
1580600 Par ch=1 c=64 v=88
1580640 On ch=1 n=d#5 v=82
1580640 Par ch=1 c=64 v=72
1580645 On ch=1 n=d#6 v=88
1580645 On ch=1 n=g6 v=92
1580645 On ch=1 n=a#4 v=77
1580645 On ch=1 n=g5 v=84
1580660 Par ch=1 c=64 v=56
1580695 Par ch=1 c=64 v=40
1580700 On ch=1 n=d#5 v=0
1580710 On ch=1 n=g5 v=0
1580710 On ch=1 n=a#4 v=0
1580715 Par ch=1 c=64 v=0
1580735 On ch=1 n=g6 v=0
1580740 On ch=1 n=d#6 v=0
1580880 On ch=1 n=g6 v=89
1580885 On ch=1 n=d#5 v=85
1580890 On ch=1 n=g5 v=83
1580890 On ch=1 n=d#6 v=82
1580900 Par ch=1 c=64 v=104
1580905 On ch=1 n=a#4 v=72
1580920 Par ch=1 c=64 v=127
1580935 On ch=1 n=a#4 v=0
1580940 On ch=1 n=d#5 v=0
1580975 On ch=1 n=g5 v=0
1580985 On ch=1 n=d#6 v=0
1580995 On ch=1 n=g6 v=0
1581135 On ch=1 n=a#2 v=70
1581135 On ch=1 n=f6 v=89
1581145 On ch=1 n=d6 v=84
1581145 On ch=1 n=a#3 v=72
1581150 On ch=1 n=f5 v=76
1581170 On ch=1 n=a#2 v=0
1581175 On ch=1 n=a#3 v=0
1581215 On ch=1 n=f5 v=0
1581215 Par ch=1 c=64 v=88
1581235 Par ch=1 c=64 v=72
1581250 On ch=1 n=d6 v=0
1581250 Par ch=1 c=64 v=56
1581260 On ch=1 n=f6 v=0
1581270 Par ch=1 c=64 v=40
1581310 Par ch=1 c=64 v=24
1581365 Par ch=1 c=64 v=0
1581385 On ch=1 n=f6 v=85
1581385 On ch=1 n=a#4 v=72
1581385 On ch=1 n=d5 v=74
1581390 On ch=1 n=d6 v=80
1581395 On ch=1 n=f5 v=79
1581450 On ch=1 n=d5 v=0
1581450 On ch=1 n=a#4 v=0
1581465 On ch=1 n=f5 v=0
1581475 On ch=1 n=d6 v=0
1581500 On ch=1 n=f6 v=0
1581620 On ch=1 n=f6 v=88
1581630 On ch=1 n=d6 v=86
1581630 On ch=1 n=f5 v=77
1581630 Par ch=1 c=64 v=24
1581645 On ch=1 n=d5 v=78
1581645 Par ch=1 c=64 v=72
1581650 On ch=1 n=a#4 v=71
1581665 Par ch=1 c=64 v=127
1581695 On ch=1 n=f5 v=0
1581705 On ch=1 n=d5 v=0
1581715 On ch=1 n=f6 v=0
1581720 On ch=1 n=a#4 v=0
1581725 On ch=1 n=d6 v=0
1581780 Par ch=1 c=64 v=104
1581795 Par ch=1 c=64 v=88
1581835 Par ch=1 c=64 v=72
1581855 Par ch=1 c=64 v=56
1581870 On ch=1 n=f#6 v=84
1581870 On ch=1 n=f#5 v=83
1581885 On ch=1 n=c5 v=66
1581890 On ch=1 n=c6 v=67
1581890 Par ch=1 c=64 v=40
1581895 On ch=1 n=a4 v=74
1581910 Par ch=1 c=64 v=24
1581925 On ch=1 n=c6 v=0
1581930 On ch=1 n=a4 v=0
1581945 Par ch=1 c=64 v=0
1581955 On ch=1 n=c5 v=0
1581955 On ch=1 n=f#5 v=0
1581985 On ch=1 n=f#6 v=0
1582120 On ch=1 n=g6 v=84
1582130 On ch=1 n=g5 v=73
1582130 On ch=1 n=b5 v=70
1582130 On ch=1 n=g4 v=64
1582145 On ch=1 n=b4 v=58
1582180 On ch=1 n=b4 v=0
1582195 On ch=1 n=b5 v=0
1582195 On ch=1 n=g5 v=0
1582200 On ch=1 n=g4 v=0
1582200 On ch=1 n=g6 v=0
1582375 On ch=1 n=b4 v=55
1582380 On ch=1 n=g6 v=92
1582380 On ch=1 n=g5 v=82
1582385 On ch=1 n=g4 v=49
1582390 On ch=1 n=b5 v=75
1582395 Par ch=1 c=64 v=56
1582405 On ch=1 n=b4 v=0
1582415 Par ch=1 c=64 v=127
1582420 On ch=1 n=b5 v=0
1582420 On ch=1 n=g4 v=0
1582445 On ch=1 n=g5 v=0
1582480 On ch=1 n=g6 v=0
1582625 On ch=1 n=g3 v=72
1582660 Par ch=1 c=64 v=104
1582675 Par ch=1 c=64 v=72
1582690 On ch=1 n=g3 v=0
1582695 Par ch=1 c=64 v=56
1582715 Par ch=1 c=64 v=40
1582735 Par ch=1 c=64 v=24
1582790 Par ch=1 c=64 v=0
1582845 On ch=1 n=g#4 v=69
1582850 On ch=1 n=b5 v=78
1582850 On ch=1 n=b6 v=92
1582855 On ch=1 n=d6 v=70
1582860 On ch=1 n=d5 v=63
1582860 On ch=1 n=b4 v=67
1582895 On ch=1 n=d5 v=0
1582900 On ch=1 n=b4 v=0
1582915 On ch=1 n=g#4 v=0
1582920 On ch=1 n=d6 v=0
1582920 On ch=1 n=b6 v=0
1582920 On ch=1 n=b5 v=0
1583090 On ch=1 n=g#4 v=69
1583090 Par ch=1 c=64 v=56
1583095 On ch=1 n=b6 v=94
1583095 On ch=1 n=b5 v=82
1583100 On ch=1 n=d6 v=79
1583105 On ch=1 n=d5 v=51
1583105 On ch=1 n=b4 v=60
1583110 Par ch=1 c=64 v=104
1583125 Par ch=1 c=64 v=127
1583135 On ch=1 n=d6 v=0
1583140 On ch=1 n=d5 v=0
1583140 On ch=1 n=g#4 v=0
1583155 On ch=1 n=b5 v=0
1583165 On ch=1 n=b4 v=0
1583195 On ch=1 n=b6 v=0
1583340 On ch=1 n=g3 v=66
1583370 Par ch=1 c=64 v=104
1583380 On ch=1 n=g3 v=0
1583390 Par ch=1 c=64 v=72
1583410 Par ch=1 c=64 v=56
1583430 Par ch=1 c=64 v=40
1583435 On ch=1 n=c6 v=87
1583435 On ch=1 n=d#6 v=79
1583435 On ch=1 n=c7 v=83
1583495 On ch=1 n=c7 v=0
1583500 On ch=1 n=c6 v=0
1583500 Par ch=1 c=64 v=24
1583505 On ch=1 n=d#6 v=0
1583570 On ch=1 n=g#4 v=45
1583575 On ch=1 n=d7 v=92
1583575 On ch=1 n=b4 v=56
1583575 Par ch=1 c=64 v=0
1583580 On ch=1 n=d6 v=86
1583580 On ch=1 n=d5 v=57
1583585 On ch=1 n=f6 v=88
1583615 On ch=1 n=b4 v=0
1583620 On ch=1 n=d5 v=0
1583625 On ch=1 n=g#4 v=0
1583640 On ch=1 n=f6 v=0
1583645 On ch=1 n=d6 v=0
1583645 On ch=1 n=d7 v=0
1583800 On ch=1 n=g#4 v=73
1583800 Par ch=1 c=64 v=24
1583810 On ch=1 n=d5 v=66
1583815 On ch=1 n=d7 v=94
1583815 Par ch=1 c=64 v=72
1583825 On ch=1 n=d6 v=89
1583825 On ch=1 n=b4 v=51
1583835 Par ch=1 c=64 v=127
1583840 On ch=1 n=d5 v=0
1583840 On ch=1 n=g#4 v=0
1583850 On ch=1 n=f6 v=59
1583860 On ch=1 n=b4 v=0
1583890 On ch=1 n=d6 v=0
1583900 On ch=1 n=f6 v=0
1583920 On ch=1 n=d7 v=0
1584055 On ch=1 n=d#7 v=94
1584060 On ch=1 n=g3 v=72
1584070 On ch=1 n=g6 v=72
1584070 On ch=1 n=d#6 v=77
1584080 Par ch=1 c=64 v=104
1584090 On ch=1 n=g3 v=0
1584100 Par ch=1 c=64 v=88
1584120 Par ch=1 c=64 v=56
1584125 On ch=1 n=g6 v=0
1584140 On ch=1 n=d#6 v=0
1584140 Par ch=1 c=64 v=40
1584150 On ch=1 n=d#7 v=0
1584175 Par ch=1 c=64 v=24
1584295 On ch=1 n=c7 v=90
1584295 On ch=1 n=c6 v=85
1584300 On ch=1 n=d#6 v=80
1584300 On ch=1 n=g4 v=57
1584305 On ch=1 n=c5 v=57
1584305 Par ch=1 c=64 v=0
1584335 On ch=1 n=d#5 v=30
1584345 On ch=1 n=g4 v=0
1584355 On ch=1 n=d#6 v=0
1584355 On ch=1 n=c6 v=0
1584360 On ch=1 n=c7 v=0
1584370 On ch=1 n=d#5 v=0
1584385 On ch=1 n=c5 v=0
1584545 On ch=1 n=d#5 v=57
1584545 On ch=1 n=c5 v=60
1584550 Par ch=1 c=64 v=72
1584555 On ch=1 n=d#6 v=86
1584560 On ch=1 n=c6 v=94
1584560 On ch=1 n=c7 v=97
1584565 On ch=1 n=g4 v=54
1584565 Par ch=1 c=64 v=127
1584580 On ch=1 n=d#5 v=0
1584600 On ch=1 n=g4 v=0
1584605 On ch=1 n=c5 v=0
1584610 On ch=1 n=d#6 v=0
1584620 On ch=1 n=c6 v=0
1584655 On ch=1 n=c7 v=0
1584780 On ch=1 n=g3 v=73
1584830 On ch=1 n=g3 v=0
1584850 Par ch=1 c=64 v=104
1584870 Par ch=1 c=64 v=88
1584885 Par ch=1 c=64 v=56
1584925 Par ch=1 c=64 v=40
1585000 Par ch=1 c=64 v=24
1585015 On ch=1 n=d7 v=92
1585015 On ch=1 n=g#4 v=57
1585015 On ch=1 n=b4 v=68
1585015 On ch=1 n=d5 v=62
1585020 On ch=1 n=d6 v=92
1585025 On ch=1 n=b6 v=85
1585065 On ch=1 n=d5 v=0
1585065 On ch=1 n=b4 v=0
1585075 On ch=1 n=g#4 v=0
1585085 On ch=1 n=d6 v=0
1585095 On ch=1 n=b6 v=0
1585120 On ch=1 n=d7 v=0
1585130 Par ch=1 c=64 v=0
1585275 On ch=1 n=g#4 v=71
1585275 On ch=1 n=d7 v=96
1585275 On ch=1 n=d5 v=65
1585275 On ch=1 n=b4 v=60
1585280 On ch=1 n=d6 v=92
1585280 Par ch=1 c=64 v=40
1585285 On ch=1 n=b6 v=89
1585300 Par ch=1 c=64 v=127
1585310 On ch=1 n=d5 v=0
1585325 On ch=1 n=g#4 v=0
1585335 On ch=1 n=b4 v=0
1585345 On ch=1 n=d6 v=0
1585355 On ch=1 n=b6 v=0
1585425 On ch=1 n=d7 v=0
1585520 On ch=1 n=g3 v=71
1585565 On ch=1 n=g3 v=0
1585635 On ch=1 n=d7 v=83
1585635 On ch=1 n=d6 v=87
1585640 On ch=1 n=b6 v=76
1585675 On ch=1 n=b6 v=0
1585675 On ch=1 n=d6 v=0
1585680 On ch=1 n=d7 v=0
1585690 Par ch=1 c=64 v=104
1585710 On ch=1 n=g#4 v=71
1585710 Par ch=1 c=64 v=88
1585720 On ch=1 n=d5 v=72
1585720 On ch=1 n=b4 v=69
1585725 On ch=1 n=d7 v=89
1585730 Par ch=1 c=64 v=72
1585735 On ch=1 n=b6 v=81
1585735 On ch=1 n=d6 v=87
1585750 Par ch=1 c=64 v=56
1585765 On ch=1 n=d5 v=0
1585770 On ch=1 n=b4 v=0
1585780 On ch=1 n=g#4 v=0
1585785 Par ch=1 c=64 v=40
1585810 On ch=1 n=d6 v=0
1585820 Par ch=1 c=64 v=24
1585825 On ch=1 n=b6 v=0
1585840 Par ch=1 c=64 v=0
1585855 On ch=1 n=d7 v=0
1585960 On ch=1 n=d7 v=93
1585965 On ch=1 n=g#4 v=76
1585970 On ch=1 n=d6 v=90
1585970 Par ch=1 c=64 v=40
1585975 On ch=1 n=d5 v=69
1585975 On ch=1 n=b4 v=60
1585985 On ch=1 n=b6 v=64
1585990 Par ch=1 c=64 v=127
1586005 On ch=1 n=d5 v=0
1586015 On ch=1 n=b6 v=0
1586015 On ch=1 n=g#4 v=0
1586035 On ch=1 n=b4 v=0
1586040 On ch=1 n=d6 v=0
1586065 On ch=1 n=d7 v=0
1586205 On ch=1 n=d#7 v=95
1586210 On ch=1 n=d#6 v=93
1586210 On ch=1 n=g3 v=71
1586210 On ch=1 n=c7 v=89
1586265 On ch=1 n=g3 v=0
1586290 On ch=1 n=d#6 v=0
1586295 On ch=1 n=c7 v=0
1586340 On ch=1 n=d#7 v=0
1586430 On ch=1 n=g#4 v=61
1586430 On ch=1 n=b4 v=66
1586430 On ch=1 n=f7 v=96
1586430 On ch=1 n=f6 v=88
1586430 On ch=1 n=d7 v=94
1586430 On ch=1 n=d5 v=65
1586465 On ch=1 n=f7 v=0
1586480 On ch=1 n=d5 v=0
1586495 On ch=1 n=f6 v=0
1586495 On ch=1 n=b4 v=0
1586505 On ch=1 n=g#4 v=0
1586520 On ch=1 n=d7 v=0
1586590 Par ch=1 c=64 v=72
1586610 Par ch=1 c=64 v=0
1586680 On ch=1 n=f7 v=95
1586685 On ch=1 n=d5 v=75
1586685 On ch=1 n=g#4 v=73
1586685 On ch=1 n=d7 v=92
1586685 On ch=1 n=b4 v=70
1586690 On ch=1 n=f6 v=87
1586715 On ch=1 n=d5 v=0
1586730 On ch=1 n=g#4 v=0
1586745 On ch=1 n=b4 v=0
1586755 On ch=1 n=f6 v=0
1586755 Par ch=1 c=64 v=104
1586770 On ch=1 n=d7 v=0
1586775 Par ch=1 c=64 v=127
1586800 On ch=1 n=f7 v=0
1586930 On ch=1 n=g3 v=74
1586935 On ch=1 n=g7 v=96
1586935 On ch=1 n=g6 v=99
1586945 On ch=1 n=d#7 v=77
1586980 On ch=1 n=d#7 v=0
1586985 On ch=1 n=g6 v=0
1586985 On ch=1 n=g3 v=0
1586990 On ch=1 n=g7 v=0
1587165 Par ch=1 c=64 v=72
1587175 On ch=1 n=d#7 v=91
1587180 On ch=1 n=c7 v=89
1587185 On ch=1 n=d#6 v=92
1587185 Par ch=1 c=64 v=40
1587195 On ch=1 n=d#5 v=56
1587200 On ch=1 n=c5 v=53
1587200 On ch=1 n=g4 v=56
1587205 Par ch=1 c=64 v=24
1587235 On ch=1 n=g4 v=0
1587260 On ch=1 n=d#6 v=0
1587265 On ch=1 n=c5 v=0
1587265 On ch=1 n=d#5 v=0
1587265 On ch=1 n=c7 v=0
1587280 Par ch=1 c=64 v=40
1587295 Par ch=1 c=64 v=56
1587305 On ch=1 n=d#7 v=0
1587355 Par ch=1 c=64 v=0
1587420 On ch=1 n=d#5 v=62
1587440 On ch=1 n=c7 v=96
1587440 On ch=1 n=d#7 v=95
1587440 On ch=1 n=g4 v=66
1587440 On ch=1 n=d#6 v=89
1587445 On ch=1 n=c5 v=51
1587465 On ch=1 n=d#5 v=0
1587465 Par ch=1 c=64 v=56
1587470 On ch=1 n=g4 v=0
1587480 On ch=1 n=c5 v=0
1587485 Par ch=1 c=64 v=127
1587530 On ch=1 n=d#6 v=0
1587565 On ch=1 n=c7 v=0
1587580 On ch=1 n=d#7 v=0
1587645 On ch=1 n=g3 v=74
1587680 On ch=1 n=g3 v=0
1587890 On ch=1 n=d#5 v=71
1587890 On ch=1 n=d#7 v=89
1587890 On ch=1 n=g#4 v=70
1587900 On ch=1 n=d#6 v=93
1587900 On ch=1 n=g#6 v=88
1587915 On ch=1 n=f4 v=48
1587950 On ch=1 n=g#4 v=0
1587955 On ch=1 n=f4 v=0
1587970 On ch=1 n=d#6 v=0
1587980 On ch=1 n=d#5 v=0
1587995 On ch=1 n=g#6 v=0
1588010 On ch=1 n=d#7 v=0
1588085 Par ch=1 c=64 v=88
1588105 Par ch=1 c=64 v=0
1588145 On ch=1 n=d#5 v=73
1588150 On ch=1 n=g#4 v=61
1588155 On ch=1 n=d#7 v=102
1588155 On ch=1 n=f4 v=64
1588160 On ch=1 n=d#6 v=103
1588160 On ch=1 n=g#6 v=93
1588210 On ch=1 n=d#5 v=0
1588215 Par ch=1 c=64 v=72
1588220 On ch=1 n=g#4 v=0
1588230 On ch=1 n=f4 v=0
1588235 Par ch=1 c=64 v=127
1588320 On ch=1 n=d#6 v=0
1588340 On ch=1 n=g#6 v=0
1588340 On ch=1 n=d#7 v=0
1588390 On ch=1 n=g3 v=74
1588445 On ch=1 n=g3 v=0
1588500 On ch=1 n=d7 v=92
1588505 On ch=1 n=d6 v=81
1588525 On ch=1 n=g#6 v=51
1588535 On ch=1 n=d6 v=0
1588555 On ch=1 n=g#6 v=0
1588560 On ch=1 n=d7 v=0
1588600 On ch=1 n=g#4 v=62
1588605 On ch=1 n=d5 v=62
1588605 On ch=1 n=d7 v=92
1588605 On ch=1 n=g#6 v=78
1588615 On ch=1 n=d6 v=82
1588625 Par ch=1 c=64 v=104
1588635 On ch=1 n=e4 v=31
1588645 On ch=1 n=d5 v=0
1588670 On ch=1 n=e4 v=0
1588685 On ch=1 n=g#4 v=0
1588700 On ch=1 n=d6 v=0
1588720 Par ch=1 c=64 v=88
1588730 On ch=1 n=d7 v=0
1588735 On ch=1 n=g#6 v=0
1588740 Par ch=1 c=64 v=40
1588760 Par ch=1 c=64 v=0
1588840 On ch=1 n=g4 v=74
1588840 On ch=1 n=d5 v=77
1588845 On ch=1 n=d7 v=92
1588850 On ch=1 n=g6 v=93
1588860 On ch=1 n=d6 v=82
1588860 On ch=1 n=d#4 v=68
1588870 Par ch=1 c=64 v=56
1588880 On ch=1 n=g4 v=0
1588890 Par ch=1 c=64 v=127
1588900 On ch=1 n=d5 v=0
1588925 On ch=1 n=d#4 v=0
1588930 On ch=1 n=d6 v=0
1588955 On ch=1 n=g6 v=0
1588965 On ch=1 n=d7 v=0
1589085 On ch=1 n=g3 v=41
1589125 On ch=1 n=g3 v=0
1589185 On ch=1 n=g6 v=92
1589185 On ch=1 n=c6 v=92
1589185 On ch=1 n=c7 v=90
1589225 On ch=1 n=c6 v=0
1589245 On ch=1 n=g6 v=0
1589255 On ch=1 n=c7 v=0
1589300 On ch=1 n=c7 v=100
1589305 On ch=1 n=c6 v=89
1589305 On ch=1 n=g6 v=87
1589320 On ch=1 n=c5 v=55
1589330 On ch=1 n=d#4 v=36
1589335 On ch=1 n=c6 v=0
1589340 On ch=1 n=g6 v=0
1589360 On ch=1 n=c5 v=0
1589370 On ch=1 n=d#4 v=0
1589380 On ch=1 n=c7 v=0
1589545 Par ch=1 c=64 v=40
1589565 Par ch=1 c=64 v=0
1589585 On ch=1 n=c5 v=74
1589585 On ch=1 n=d4 v=64
1589585 On ch=1 n=f4 v=63
1589605 On ch=1 n=f7 v=103
1589610 On ch=1 n=c7 v=93
1589610 On ch=1 n=f6 v=92
1589640 On ch=1 n=f4 v=0
1589655 On ch=1 n=c5 v=0
1589660 On ch=1 n=d4 v=0
1589675 Par ch=1 c=64 v=127
1589710 On ch=1 n=f6 v=0
1589710 On ch=1 n=c7 v=0
1589715 On ch=1 n=f7 v=0
1589825 On ch=1 n=g3 v=70
1589920 On ch=1 n=g3 v=0
1589960 On ch=1 n=a#6 v=82
1589960 On ch=1 n=a#5 v=77
1589970 On ch=1 n=f6 v=81
1590005 On ch=1 n=f6 v=0
1590010 On ch=1 n=a#5 v=0
1590010 On ch=1 n=a#6 v=0
1590050 Par ch=1 c=64 v=88
1590060 On ch=1 n=a#4 v=46
1590070 Par ch=1 c=64 v=72
1590075 On ch=1 n=d#4 v=47
1590075 On ch=1 n=f6 v=84
1590075 On ch=1 n=a#5 v=76
1590075 On ch=1 n=a#6 v=77
1590075 On ch=1 n=c4 v=49
1590090 Par ch=1 c=64 v=56
1590110 On ch=1 n=d#4 v=0
1590120 On ch=1 n=c4 v=0
1590120 On ch=1 n=a#4 v=0
1590125 Par ch=1 c=64 v=40
1590145 Par ch=1 c=64 v=24
1590150 On ch=1 n=f6 v=0
1590165 On ch=1 n=a#5 v=0
1590165 Par ch=1 c=64 v=0
1590190 On ch=1 n=a#6 v=0
1590310 On ch=1 n=a#4 v=59
1590320 On ch=1 n=a#6 v=85
1590325 On ch=1 n=a#5 v=82
1590325 On ch=1 n=c4 v=60
1590330 On ch=1 n=d#6 v=77
1590335 Par ch=1 c=64 v=72
1590350 On ch=1 n=d#4 v=40
1590350 Par ch=1 c=64 v=127
1590370 On ch=1 n=c4 v=0
1590440 On ch=1 n=a#4 v=0
1590470 On ch=1 n=a#6 v=0
1590480 On ch=1 n=d#6 v=0
1590490 On ch=1 n=d#4 v=0
1590495 On ch=1 n=a#5 v=0
1590545 On ch=1 n=g3 v=74
1590630 On ch=1 n=g3 v=0
1590670 Par ch=1 c=64 v=104
1590685 Par ch=1 c=64 v=88
1590705 Par ch=1 c=64 v=72
1590725 Par ch=1 c=64 v=56
1590740 Par ch=1 c=64 v=40
1590795 On ch=1 n=a#5 v=83
1590795 On ch=1 n=a#6 v=85
1590800 On ch=1 n=d#6 v=78
1590800 On ch=1 n=a#4 v=56
1590800 Par ch=1 c=64 v=24
1590815 On ch=1 n=c4 v=62
1590825 On ch=1 n=d#4 v=47
1590850 On ch=1 n=c4 v=0
1590855 On ch=1 n=d#4 v=0
1590855 Par ch=1 c=64 v=0
1590865 On ch=1 n=a#4 v=0
1590865 On ch=1 n=a#5 v=0
1590870 On ch=1 n=d#6 v=0
1590885 On ch=1 n=a#6 v=0
1591045 On ch=1 n=a#4 v=64
1591045 Par ch=1 c=64 v=24
1591050 On ch=1 n=a#6 v=86
1591055 On ch=1 n=c4 v=73
1591060 On ch=1 n=a#5 v=77
1591060 Par ch=1 c=64 v=88
1591065 On ch=1 n=d#6 v=72
1591070 On ch=1 n=d#4 v=43
1591080 Par ch=1 c=64 v=127
1591115 On ch=1 n=d#4 v=0
1591150 On ch=1 n=d#4 v=18
1591155 On ch=1 n=c4 v=0
1591155 On ch=1 n=a#4 v=0
1591175 On ch=1 n=a#6 v=0
1591185 On ch=1 n=a#5 v=0
1591215 On ch=1 n=d#6 v=0
1591225 On ch=1 n=d#4 v=0
1591300 On ch=1 n=g3 v=58
1591340 On ch=1 n=g3 v=0
1591400 On ch=1 n=g#6 v=85
1591400 On ch=1 n=g#5 v=73
1591405 On ch=1 n=d#6 v=77
1591405 Par ch=1 c=64 v=88
1591420 Par ch=1 c=64 v=72
1591435 Par ch=1 c=64 v=56
1591455 On ch=1 n=g#5 v=0
1591460 On ch=1 n=d#6 v=0
1591460 On ch=1 n=g#6 v=0
1591475 Par ch=1 c=64 v=40
1591495 Par ch=1 c=64 v=24
1591510 On ch=1 n=d#4 v=59
1591520 On ch=1 n=g#6 v=77
1591520 On ch=1 n=g#4 v=52
1591520 On ch=1 n=g#5 v=63
1591525 On ch=1 n=d#6 v=80
1591530 On ch=1 n=c4 v=54
1591555 On ch=1 n=d#4 v=0
1591560 On ch=1 n=c4 v=0
1591570 Par ch=1 c=64 v=0
1591590 On ch=1 n=g#4 v=0
1591620 On ch=1 n=g#5 v=0
1591625 On ch=1 n=d#6 v=0
1591630 On ch=1 n=g#6 v=0
1591760 On ch=1 n=g#4 v=57
1591760 On ch=1 n=g#6 v=82
1591770 On ch=1 n=d6 v=82
1591770 On ch=1 n=b3 v=65
1591770 On ch=1 n=g#5 v=68
1591775 Par ch=1 c=64 v=72
1591785 On ch=1 n=d4 v=63
1591795 Par ch=1 c=64 v=127
1591820 On ch=1 n=d4 v=0
1591865 On ch=1 n=g#5 v=0
1591885 On ch=1 n=b3 v=0
1591890 On ch=1 n=g#4 v=0
1591905 On ch=1 n=d6 v=0
1591910 On ch=1 n=g#6 v=0
1591980 On ch=1 n=g3 v=64
1592065 On ch=1 n=g3 v=0
1592075 Par ch=1 c=64 v=104
1592095 On ch=1 n=g6 v=84
1592095 Par ch=1 c=64 v=88
1592105 On ch=1 n=d6 v=72
1592105 On ch=1 n=g5 v=70
1592130 Par ch=1 c=64 v=72
1592140 On ch=1 n=g5 v=0
1592140 On ch=1 n=d6 v=0
1592165 On ch=1 n=g6 v=0
1592170 Par ch=1 c=64 v=56
1592185 Par ch=1 c=64 v=40
1592210 On ch=1 n=g6 v=90
1592210 On ch=1 n=d6 v=82
1592215 On ch=1 n=g5 v=65
1592225 On ch=1 n=g4 v=60
1592225 On ch=1 n=d4 v=61
1592235 On ch=1 n=b3 v=49
1592260 On ch=1 n=g4 v=0
1592260 Par ch=1 c=64 v=24
1592265 On ch=1 n=g5 v=0
1592270 On ch=1 n=b3 v=0
1592275 On ch=1 n=d6 v=0
1592280 On ch=1 n=d4 v=0
1592305 On ch=1 n=g6 v=0
1592335 Par ch=1 c=64 v=0
1592485 On ch=1 n=c7 v=90
1592485 On ch=1 n=c4 v=78
1592490 On ch=1 n=g6 v=85
1592495 On ch=1 n=g4 v=69
1592495 On ch=1 n=g#3 v=62
1592495 On ch=1 n=c6 v=79
1592505 Par ch=1 c=64 v=40
1592525 Par ch=1 c=64 v=104
1592545 Par ch=1 c=64 v=127
1592575 On ch=1 n=c6 v=0
1592575 On ch=1 n=g#3 v=0
1592575 On ch=1 n=g6 v=0
1592585 On ch=1 n=c4 v=0
1592590 On ch=1 n=c7 v=0
1592605 On ch=1 n=g4 v=0
1592730 On ch=1 n=g3 v=58
1592760 On ch=1 n=g3 v=0
1592870 On ch=1 n=f#6 v=85
1592875 On ch=1 n=f#5 v=80
1592880 Par ch=1 c=64 v=88
1592900 Par ch=1 c=64 v=72
1592920 Par ch=1 c=64 v=56
1592930 On ch=1 n=f#5 v=0
1592930 On ch=1 n=f#6 v=0
1592935 Par ch=1 c=64 v=40
1592940 On ch=1 n=g#3 v=60
1592940 On ch=1 n=f#4 v=60
1592945 On ch=1 n=c4 v=55
1592980 On ch=1 n=c4 v=0
1592990 On ch=1 n=c6 v=73
1592990 On ch=1 n=f#6 v=84
1592995 On ch=1 n=f#5 v=64
1593010 Par ch=1 c=64 v=24
1593030 On ch=1 n=f#4 v=0
1593045 On ch=1 n=g#3 v=0
1593065 Par ch=1 c=64 v=0
1593085 On ch=1 n=f#5 v=0
1593100 On ch=1 n=c6 v=0
1593105 On ch=1 n=f#6 v=0
1593235 On ch=1 n=g6 v=86
1593245 On ch=1 n=g3 v=65
1593250 On ch=1 n=g5 v=70
1593255 On ch=1 n=g4 v=64
1593275 Par ch=1 c=64 v=40
1593295 Par ch=1 c=64 v=104
1593310 Par ch=1 c=64 v=127
1593330 On ch=1 n=g4 v=0
1593330 On ch=1 n=g3 v=0
1593510 On ch=1 n=a4 v=68
1593520 On ch=1 n=a3 v=59
1593535 Par ch=1 c=64 v=88
1593545 On ch=1 n=a4 v=0
1593550 Par ch=1 c=64 v=72
1593555 On ch=1 n=a3 v=0
1593570 Par ch=1 c=64 v=40
1593590 Par ch=1 c=64 v=0
1593630 On ch=1 n=g5 v=0
1593640 On ch=1 n=g6 v=0
1593755 On ch=1 n=a#4 v=73
1593755 On ch=1 n=a#3 v=73
1593840 On ch=1 n=a#3 v=0
1593840 On ch=1 n=a#4 v=0
1594015 On ch=1 n=g5 v=70
1594035 On ch=1 n=b3 v=52
1594040 Par ch=1 c=64 v=127
1594120 On ch=1 n=b3 v=0
1594265 On ch=1 n=d5 v=52
1594280 On ch=1 n=g4 v=41
1594305 On ch=1 n=d5 v=0
1594305 Par ch=1 c=64 v=104
1594315 Par ch=1 c=64 v=72
1594330 Par ch=1 c=64 v=56
1594335 On ch=1 n=g4 v=0
1594345 Par ch=1 c=64 v=40
1594360 Par ch=1 c=64 v=24
1594375 Par ch=1 c=64 v=0
1594385 On ch=1 n=g5 v=0
1594425 On ch=1 n=g6 v=71
1594485 On ch=1 n=b3 v=61
1594500 On ch=1 n=g6 v=0
1594500 On ch=1 n=g5 v=70
1594510 On ch=1 n=b3 v=0
1594585 On ch=1 n=g5 v=0
1594675 On ch=1 n=g6 v=79
1594735 Par ch=1 c=64 v=56
1594745 On ch=1 n=c4 v=59
1594745 Par ch=1 c=64 v=104
1594750 On ch=1 n=g#5 v=69
1594760 On ch=1 n=g6 v=0
1594760 Par ch=1 c=64 v=127
1594775 On ch=1 n=c4 v=0
1594930 Par ch=1 c=64 v=104
1594940 Par ch=1 c=64 v=88
1594955 Par ch=1 c=64 v=72
1594970 Par ch=1 c=64 v=40
1594985 Par ch=1 c=64 v=24
1594990 On ch=1 n=d#5 v=37
1594995 On ch=1 n=g4 v=53
1595000 Par ch=1 c=64 v=0
1595045 On ch=1 n=g4 v=0
1595055 On ch=1 n=d#5 v=0
1595095 On ch=1 n=g#5 v=0
1595140 On ch=1 n=g6 v=73
1595210 On ch=1 n=g#5 v=77
1595215 On ch=1 n=c4 v=66
1595225 On ch=1 n=g6 v=0
1595235 On ch=1 n=c4 v=0
1595325 On ch=1 n=g#5 v=0
1595390 On ch=1 n=g6 v=82
1595470 On ch=1 n=a5 v=75
1595485 On ch=1 n=g6 v=0
1595485 On ch=1 n=c#4 v=53
1595560 On ch=1 n=c#4 v=0
1595635 On ch=1 n=a5 v=0
1595650 On ch=1 n=g6 v=83
1595685 On ch=1 n=e5 v=44
1595720 On ch=1 n=g6 v=0
1595730 On ch=1 n=a#5 v=76
1595755 On ch=1 n=e5 v=0
1595870 On ch=1 n=a#5 v=0
1595880 On ch=1 n=d4 v=68
1595900 On ch=1 n=g6 v=88
1595920 On ch=1 n=d4 v=0
1595965 On ch=1 n=f5 v=59
1595990 On ch=1 n=g6 v=0
1595995 On ch=1 n=b5 v=77
1596000 On ch=1 n=f5 v=0
1596120 On ch=1 n=b5 v=0
1596135 On ch=1 n=g6 v=86
1596220 On ch=1 n=g6 v=0
1596230 On ch=1 n=d6 v=82
1596230 On ch=1 n=d#4 v=55
1596310 On ch=1 n=d#4 v=0
1596340 Par ch=1 c=64 v=40
1596355 Par ch=1 c=64 v=72
1596370 Par ch=1 c=64 v=104
1596385 Par ch=1 c=64 v=127
1596475 On ch=1 n=g5 v=53
1596495 On ch=1 n=c5 v=37
1596530 On ch=1 n=g5 v=0
1596570 On ch=1 n=c5 v=0
1596675 Par ch=1 c=64 v=104
1596705 Par ch=1 c=64 v=88
1596715 On ch=1 n=d#4 v=56
1596715 On ch=1 n=c6 v=73
1596715 Par ch=1 c=64 v=72
1596725 On ch=1 n=d6 v=0
1596730 Par ch=1 c=64 v=40
1596745 Par ch=1 c=64 v=24
1596755 Par ch=1 c=64 v=0
1596790 On ch=1 n=c6 v=0
1596790 On ch=1 n=d#4 v=0
1596960 On ch=1 n=c6 v=82
1596990 On ch=1 n=e4 v=50
1596995 Par ch=1 c=64 v=24
1597010 Par ch=1 c=64 v=72
1597020 Par ch=1 c=64 v=127
1597070 On ch=1 n=e4 v=0
1597205 On ch=1 n=g5 v=58
1597255 On ch=1 n=g5 v=0
1597325 On ch=1 n=c6 v=0
1597350 On ch=1 n=c7 v=76
1597385 Par ch=1 c=64 v=104
1597395 Par ch=1 c=64 v=88
1597410 Par ch=1 c=64 v=56
1597425 On ch=1 n=c7 v=0
1597425 On ch=1 n=c6 v=77
1597425 Par ch=1 c=64 v=40
1597435 On ch=1 n=e4 v=54
1597435 Par ch=1 c=64 v=24
1597450 Par ch=1 c=64 v=0
1597495 On ch=1 n=e4 v=0
1597510 On ch=1 n=c6 v=0
1597590 On ch=1 n=c7 v=75
1597665 On ch=1 n=c#6 v=77
1597670 On ch=1 n=c7 v=0
1597675 On ch=1 n=f4 v=52
1597675 Par ch=1 c=64 v=56
1597690 Par ch=1 c=64 v=104
1597700 Par ch=1 c=64 v=127
1597745 On ch=1 n=f4 v=0
1597890 On ch=1 n=g#5 v=43
1597905 On ch=1 n=c5 v=46
1597980 On ch=1 n=g#5 v=0
1598005 On ch=1 n=c5 v=0
1598015 On ch=1 n=c#6 v=0
1598020 Par ch=1 c=64 v=104
1598035 Par ch=1 c=64 v=88
1598040 On ch=1 n=c7 v=78
1598050 Par ch=1 c=64 v=72
1598065 Par ch=1 c=64 v=56
1598075 Par ch=1 c=64 v=40
1598090 Par ch=1 c=64 v=24
1598105 On ch=1 n=f4 v=52
1598105 Par ch=1 c=64 v=0
1598120 On ch=1 n=c#6 v=76
1598125 On ch=1 n=c7 v=0
1598130 On ch=1 n=f4 v=0
1598210 On ch=1 n=c#6 v=0
1598260 On ch=1 n=c7 v=82
1598340 Par ch=1 c=64 v=24
1598345 On ch=1 n=c7 v=0
1598345 On ch=1 n=d6 v=82
1598355 Par ch=1 c=64 v=56
1598365 On ch=1 n=f#4 v=54
1598370 Par ch=1 c=64 v=104
1598380 Par ch=1 c=64 v=127
1598440 On ch=1 n=f#4 v=0
1598485 On ch=1 n=d6 v=0
1598505 Par ch=1 c=64 v=104
1598515 On ch=1 n=c7 v=79
1598520 Par ch=1 c=64 v=88
1598535 Par ch=1 c=64 v=72
1598550 On ch=1 n=a5 v=58
1598550 Par ch=1 c=64 v=56
1598565 On ch=1 n=c5 v=52
1598565 Par ch=1 c=64 v=40
1598575 Par ch=1 c=64 v=24
1598590 On ch=1 n=c7 v=0
1598600 On ch=1 n=d#6 v=77
1598605 Par ch=1 c=64 v=0
1598610 On ch=1 n=c5 v=0
1598625 On ch=1 n=a5 v=0
1598715 On ch=1 n=d#6 v=0
1598735 On ch=1 n=g4 v=51
1598745 On ch=1 n=c7 v=84
1598785 On ch=1 n=g4 v=0
1598810 On ch=1 n=a#5 v=67
1598835 On ch=1 n=c7 v=0
1598840 On ch=1 n=e6 v=77
1598860 On ch=1 n=a#5 v=0
1598950 On ch=1 n=e6 v=0
1598990 On ch=1 n=c7 v=87
1599080 On ch=1 n=c7 v=0
1599085 On ch=1 n=g#4 v=45
1599085 On ch=1 n=g6 v=85
1599170 Par ch=1 c=64 v=24
1599180 On ch=1 n=g#4 v=0
1599185 Par ch=1 c=64 v=72
1599200 Par ch=1 c=64 v=104
1599215 Par ch=1 c=64 v=127
1599335 On ch=1 n=c6 v=49
1599340 On ch=1 n=f5 v=44
1599365 On ch=1 n=c6 v=0
1599440 On ch=1 n=f5 v=0
1599560 On ch=1 n=f6 v=73
1599575 On ch=1 n=g#4 v=53
1599580 On ch=1 n=g6 v=0
1599640 On ch=1 n=f6 v=0
1599650 On ch=1 n=g#4 v=0
1599670 Par ch=1 c=64 v=104
1599685 Par ch=1 c=64 v=88
1599700 Par ch=1 c=64 v=72
1599715 Par ch=1 c=64 v=56
1599730 Par ch=1 c=64 v=40
1599740 Par ch=1 c=64 v=0
1599820 On ch=1 n=f6 v=84
1599845 On ch=1 n=a4 v=54
1599880 Par ch=1 c=64 v=24
1599895 Par ch=1 c=64 v=72
1599905 On ch=1 n=a4 v=0
1599910 Par ch=1 c=64 v=127
1599980 On ch=1 n=f6 v=0
1600105 On ch=1 n=f7 v=88
1600125 On ch=1 n=c6 v=40
1600125 On ch=1 n=f5 v=39
1600130 On ch=1 n=c5 v=36
1600140 On ch=1 n=d#5 v=31
1600190 On ch=1 n=c5 v=0
1600200 On ch=1 n=d#5 v=0
1600205 On ch=1 n=f5 v=0
1600210 On ch=1 n=c6 v=0
1600310 On ch=1 n=f7 v=0
1600360 On ch=1 n=f5 v=36
1600365 On ch=1 n=c6 v=40
1600370 On ch=1 n=c5 v=41
1600370 On ch=1 n=d#5 v=27
1600420 On ch=1 n=d#5 v=0
1600430 On ch=1 n=c5 v=0
1600430 On ch=1 n=c6 v=0
1600450 On ch=1 n=f5 v=0
1600470 On ch=1 n=f7 v=82
1600540 On ch=1 n=f7 v=0
1600585 On ch=1 n=f7 v=83
1600595 On ch=1 n=c6 v=53
1600610 On ch=1 n=d#5 v=42
1600610 On ch=1 n=f5 v=36
1600660 On ch=1 n=c6 v=0
1600670 On ch=1 n=f7 v=0
1600700 On ch=1 n=g7 v=84
1600780 On ch=1 n=g7 v=0
1600780 On ch=1 n=f5 v=0
1600815 On ch=1 n=f7 v=79
1600835 On ch=1 n=d#5 v=0
1600855 On ch=1 n=a4 v=49
1600910 On ch=1 n=f7 v=0
1600925 On ch=1 n=a4 v=0
1600930 On ch=1 n=c7 v=81
1601030 On ch=1 n=c7 v=0
1601045 On ch=1 n=a6 v=74
1601050 On ch=1 n=d#5 v=37
1601065 On ch=1 n=c6 v=46
1601075 On ch=1 n=f5 v=25
1601095 On ch=1 n=c6 v=0
1601110 On ch=1 n=a6 v=0
1601130 On ch=1 n=d#5 v=0
1601135 On ch=1 n=f5 v=0
1601155 On ch=1 n=f6 v=84
1601235 On ch=1 n=f6 v=0
1601240 Par ch=1 c=64 v=104
1601270 Par ch=1 c=64 v=88
1601275 On ch=1 n=a#6 v=74
1601285 Par ch=1 c=64 v=56
1601295 Par ch=1 c=64 v=24
1601305 On ch=1 n=g#4 v=57
1601310 Par ch=1 c=64 v=0
1601390 On ch=1 n=a#6 v=0
1601400 On ch=1 n=c7 v=84
1601420 Par ch=1 c=64 v=40
1601435 On ch=1 n=g#4 v=0
1601435 Par ch=1 c=64 v=88
1601450 Par ch=1 c=64 v=127
1601485 On ch=1 n=c7 v=0
1601520 On ch=1 n=a#6 v=71
1601545 On ch=1 n=a#5 v=44
1601560 On ch=1 n=f5 v=36
1601560 On ch=1 n=d5 v=36
1601605 On ch=1 n=d5 v=0
1601635 On ch=1 n=a#6 v=0
1601635 On ch=1 n=f6 v=77
1601640 On ch=1 n=a#5 v=0
1601705 On ch=1 n=f5 v=0
1601750 On ch=1 n=f6 v=0
1601750 On ch=1 n=d6 v=76
1601760 On ch=1 n=g#4 v=49
1601810 On ch=1 n=d6 v=0
1601835 On ch=1 n=g#4 v=0
1601865 On ch=1 n=a#5 v=72
1601880 Par ch=1 c=64 v=104
1601910 Par ch=1 c=64 v=88
1601920 Par ch=1 c=64 v=56
1601935 Par ch=1 c=64 v=40
1601950 On ch=1 n=a#5 v=0
1601950 Par ch=1 c=64 v=0
1601990 On ch=1 n=g4 v=63
1601995 On ch=1 n=d#6 v=75
1602090 On ch=1 n=d#6 v=0
1602110 On ch=1 n=f6 v=79
1602155 Par ch=1 c=64 v=127
1602190 On ch=1 n=f6 v=0
1602225 On ch=1 n=d#6 v=71
1602230 On ch=1 n=d#5 v=48
1602230 On ch=1 n=a#4 v=50
1602240 On ch=1 n=g4 v=0
1602325 On ch=1 n=d#6 v=0
1602340 On ch=1 n=a#5 v=70
1602415 On ch=1 n=a#4 v=0
1602425 On ch=1 n=d#5 v=0
1602430 On ch=1 n=g4 v=53
1602450 On ch=1 n=a#5 v=0
1602460 On ch=1 n=g5 v=68
1602490 On ch=1 n=g4 v=0
1602535 On ch=1 n=g5 v=0
1602575 On ch=1 n=d#5 v=60
1602640 On ch=1 n=d#5 v=0
1602645 Par ch=1 c=64 v=88
1602655 Par ch=1 c=64 v=40
1602670 Par ch=1 c=64 v=0
1602720 On ch=1 n=f5 v=76
1602745 On ch=1 n=a3 v=68
1602810 Par ch=1 c=64 v=72
1602820 Par ch=1 c=64 v=127
1602860 On ch=1 n=a3 v=0
1602895 On ch=1 n=f5 v=0
1602985 On ch=1 n=f6 v=87
1603010 On ch=1 n=c5 v=45
1603015 On ch=1 n=c4 v=48
1603015 On ch=1 n=f4 v=46
1603020 On ch=1 n=d#4 v=45
1603065 On ch=1 n=c4 v=0
1603080 On ch=1 n=d#4 v=0
1603085 On ch=1 n=c5 v=0
1603095 On ch=1 n=f4 v=0
1603185 On ch=1 n=f6 v=0
1603230 On ch=1 n=c5 v=48
1603230 On ch=1 n=c4 v=44
1603230 On ch=1 n=f4 v=41
1603235 On ch=1 n=d#4 v=35
1603305 On ch=1 n=d#4 v=0
1603305 On ch=1 n=c5 v=0
1603320 On ch=1 n=f4 v=0
1603330 On ch=1 n=c4 v=0
1603355 On ch=1 n=f6 v=81
1603410 On ch=1 n=f6 v=0
1603470 On ch=1 n=c5 v=55
1603470 On ch=1 n=f6 v=80
1603480 On ch=1 n=d#4 v=38
1603480 On ch=1 n=c4 v=24
1603490 On ch=1 n=f4 v=43
1603520 On ch=1 n=c4 v=0
1603525 On ch=1 n=c5 v=0
1603550 On ch=1 n=f6 v=0
1603585 On ch=1 n=g6 v=82
1603630 On ch=1 n=f4 v=0
1603660 On ch=1 n=g6 v=0
1603675 On ch=1 n=d#4 v=0
1603700 On ch=1 n=f6 v=74
1603715 On ch=1 n=a3 v=64
1603775 On ch=1 n=f6 v=0
1603800 On ch=1 n=a3 v=0
1603805 On ch=1 n=c6 v=82
1603905 On ch=1 n=c6 v=0
1603920 On ch=1 n=a5 v=74
1603945 On ch=1 n=c5 v=34
1603955 On ch=1 n=d#4 v=33
1603965 On ch=1 n=f4 v=27
1603975 On ch=1 n=c5 v=0
1603990 On ch=1 n=a5 v=0
1604005 On ch=1 n=d#4 v=0
1604010 On ch=1 n=f4 v=0
1604040 On ch=1 n=f5 v=81
1604125 On ch=1 n=f5 v=0
1604130 Par ch=1 c=64 v=104
1604140 Par ch=1 c=64 v=56
1604155 Par ch=1 c=64 v=0
1604170 On ch=1 n=a#5 v=73
1604190 On ch=1 n=g#3 v=55
1604275 On ch=1 n=a#5 v=0
1604280 Par ch=1 c=64 v=24
1604290 On ch=1 n=c6 v=80
1604295 Par ch=1 c=64 v=72
1604310 Par ch=1 c=64 v=127
1604340 On ch=1 n=g#3 v=0
1604375 On ch=1 n=c6 v=0
1604410 On ch=1 n=a#5 v=65
1604420 On ch=1 n=a#4 v=40
1604445 On ch=1 n=f4 v=36
1604450 On ch=1 n=d4 v=45
1604490 On ch=1 n=d4 v=0
1604515 On ch=1 n=a#5 v=0
1604525 On ch=1 n=a#4 v=0
1604525 On ch=1 n=f5 v=75
1604585 On ch=1 n=f4 v=0
1604635 On ch=1 n=f5 v=0
1604645 On ch=1 n=g#3 v=54
1604645 On ch=1 n=d5 v=72
1604715 On ch=1 n=d5 v=0
1604730 On ch=1 n=g#3 v=0
1604765 On ch=1 n=a#4 v=73
1604835 Par ch=1 c=64 v=104
1604850 On ch=1 n=a#4 v=0
1604850 Par ch=1 c=64 v=72
1604865 Par ch=1 c=64 v=24
1604880 Par ch=1 c=64 v=0
1604890 On ch=1 n=d#5 v=70
1604890 On ch=1 n=g3 v=63
1604975 Par ch=1 c=64 v=56
1604990 On ch=1 n=d#5 v=0
1604990 Par ch=1 c=64 v=104
1605000 Par ch=1 c=64 v=127
1605015 On ch=1 n=f5 v=74
1605090 On ch=1 n=f5 v=0
1605110 On ch=1 n=g3 v=0
1605135 On ch=1 n=d#5 v=67
1605140 On ch=1 n=d#4 v=50
1605145 On ch=1 n=a#3 v=49
1605225 On ch=1 n=d#5 v=0
1605250 On ch=1 n=a#4 v=67
1605350 On ch=1 n=g3 v=42
1605370 On ch=1 n=a#4 v=0
1605370 On ch=1 n=a#3 v=0
1605380 On ch=1 n=d#4 v=0
1605380 On ch=1 n=g4 v=74
1605400 On ch=1 n=g3 v=0
1605460 On ch=1 n=g4 v=0
1605520 On ch=1 n=d#4 v=68
1605570 Par ch=1 c=64 v=104
1605585 Par ch=1 c=64 v=72
1605600 Par ch=1 c=64 v=56
1605605 On ch=1 n=d#4 v=0
1605615 Par ch=1 c=64 v=24
1605625 Par ch=1 c=64 v=0
1605650 On ch=1 n=c4 v=68
1605655 On ch=1 n=g#3 v=53
1605665 On ch=1 n=g#2 v=48
1605725 On ch=1 n=c4 v=0
1605730 On ch=1 n=g#2 v=0
1605775 On ch=1 n=d#4 v=71
1605790 On ch=1 n=g#3 v=0
1605860 On ch=1 n=d#4 v=0
1605895 On ch=1 n=e4 v=71
1605905 On ch=1 n=a3 v=56
1605910 On ch=1 n=a2 v=52
1605995 On ch=1 n=e4 v=0
1606005 On ch=1 n=a3 v=0
1606010 On ch=1 n=f4 v=83
1606060 On ch=1 n=a2 v=0
1606085 On ch=1 n=f4 v=0
1606130 On ch=1 n=d#5 v=74
1606145 On ch=1 n=a#3 v=44
1606155 On ch=1 n=a#2 v=44
1606240 On ch=1 n=d#5 v=0
1606245 On ch=1 n=g4 v=82
1606285 On ch=1 n=a#3 v=0
1606300 On ch=1 n=a#2 v=0
1606345 On ch=1 n=g4 v=0
1606380 On ch=1 n=a#4 v=69
1606385 On ch=1 n=b3 v=63
1606385 On ch=1 n=b2 v=60
1606465 On ch=1 n=b2 v=0
1606465 On ch=1 n=b3 v=0
1606485 On ch=1 n=a#4 v=0
1606495 On ch=1 n=g#4 v=77
1606625 On ch=1 n=g4 v=83
1606630 On ch=1 n=c3 v=55
1606630 On ch=1 n=c4 v=61
1606650 On ch=1 n=g#4 v=0
1606680 On ch=1 n=c3 v=0
1606695 On ch=1 n=c4 v=0
1606710 On ch=1 n=g4 v=0
1606730 On ch=1 n=g#4 v=71
1606820 On ch=1 n=g#4 v=0
1606865 On ch=1 n=f#4 v=74
1606865 On ch=1 n=d#4 v=70
1606875 On ch=1 n=d#3 v=55
1606940 On ch=1 n=d#3 v=0
1606945 On ch=1 n=d#4 v=0
1606965 On ch=1 n=f#4 v=0
1606990 On ch=1 n=a4 v=65
1607055 On ch=1 n=a4 v=0
1607120 On ch=1 n=d3 v=78
1607250 On ch=1 n=f4 v=75
1607250 Par ch=1 c=64 v=40
1607265 Par ch=1 c=64 v=56
1607280 Par ch=1 c=64 v=72
1607360 On ch=1 n=g#4 v=74
1607365 On ch=1 n=d3 v=0
1607370 On ch=1 n=a#3 v=61
1607375 Par ch=1 c=64 v=88
1607395 On ch=1 n=f4 v=0
1607490 On ch=1 n=a#4 v=71
1607520 On ch=1 n=g#4 v=0
1607545 On ch=1 n=a#4 v=0
1607615 On ch=1 n=f5 v=84
1607630 On ch=1 n=a#2 v=64
1607680 On ch=1 n=f5 v=0
1607720 On ch=1 n=a#5 v=78
1607795 On ch=1 n=a#5 v=0
1607800 On ch=1 n=a#3 v=0
1607840 On ch=1 n=a#2 v=0
1607850 Par ch=1 c=64 v=72
1607860 Par ch=1 c=64 v=56
1607875 Par ch=1 c=64 v=24
1607890 On ch=1 n=g6 v=89
1607890 Par ch=1 c=64 v=0
1607895 On ch=1 n=g5 v=55
1607900 On ch=1 n=d#3 v=54
1608050 On ch=1 n=g6 v=0
1608055 Par ch=1 c=64 v=56
1608070 Par ch=1 c=64 v=104
1608075 On ch=1 n=g5 v=0
1608080 Par ch=1 c=64 v=127
1608110 On ch=1 n=d#3 v=0
1608130 On ch=1 n=a#3 v=49
1608260 On ch=1 n=a#5 v=77
1608265 On ch=1 n=a#4 v=54
1608305 On ch=1 n=a#5 v=0
1608310 On ch=1 n=a#4 v=0
1608365 On ch=1 n=a#2 v=67
1608375 On ch=1 n=a#5 v=72
1608375 On ch=1 n=a#4 v=59
1608420 On ch=1 n=a#2 v=0
1608425 On ch=1 n=a#4 v=0
1608425 On ch=1 n=a#3 v=0
1608500 On ch=1 n=a#5 v=0
1608500 Par ch=1 c=64 v=104
1608515 Par ch=1 c=64 v=72
1608530 Par ch=1 c=64 v=56
1608540 Par ch=1 c=64 v=40
1608555 Par ch=1 c=64 v=24
1608570 Par ch=1 c=64 v=0
1608625 On ch=1 n=c5 v=64
1608640 On ch=1 n=g#4 v=51
1608655 On ch=1 n=g#3 v=39
1608710 On ch=1 n=g#3 v=0
1608710 On ch=1 n=c5 v=0
1608750 On ch=1 n=d#5 v=68
1608770 On ch=1 n=g#4 v=0
1608830 On ch=1 n=d#5 v=0
1608870 On ch=1 n=f5 v=76
1608870 On ch=1 n=a4 v=53
1608875 On ch=1 n=a3 v=56
1608945 On ch=1 n=a4 v=0
1608960 On ch=1 n=a3 v=0
1608965 On ch=1 n=f5 v=0
1608970 On ch=1 n=f#5 v=75
1609060 On ch=1 n=f#5 v=0
1609090 On ch=1 n=a#4 v=51
1609090 On ch=1 n=d#6 v=77
1609095 On ch=1 n=a#3 v=55
1609195 On ch=1 n=g5 v=82
1609200 On ch=1 n=a#3 v=0
1609200 On ch=1 n=d#6 v=0
1609215 On ch=1 n=a#4 v=0
1609285 On ch=1 n=g5 v=0
1609295 On ch=1 n=a#5 v=80
1609320 On ch=1 n=b4 v=57
1609325 On ch=1 n=b3 v=62
1609380 On ch=1 n=b3 v=0
1609410 On ch=1 n=g#5 v=78
1609415 On ch=1 n=b4 v=0
1609440 On ch=1 n=a#5 v=0
1609525 On ch=1 n=g5 v=81
1609530 On ch=1 n=c5 v=59
1609540 On ch=1 n=g#5 v=0
1609545 On ch=1 n=c4 v=56
1609570 On ch=1 n=c4 v=0
1609600 On ch=1 n=c5 v=0
1609620 On ch=1 n=g5 v=0
1609630 On ch=1 n=g#5 v=77
1609730 On ch=1 n=g#5 v=0
1609765 On ch=1 n=d#5 v=67
1609770 On ch=1 n=f#5 v=71
1609780 On ch=1 n=d#4 v=56
1609805 On ch=1 n=d#4 v=0
1609840 On ch=1 n=d#5 v=0
1609870 On ch=1 n=f#5 v=0
1609895 On ch=1 n=a5 v=68
1609955 On ch=1 n=a5 v=0
1610015 On ch=1 n=d4 v=83
1610125 Par ch=1 c=64 v=40
1610140 Par ch=1 c=64 v=72
1610145 On ch=1 n=f5 v=66
1610150 Par ch=1 c=64 v=104
1610165 Par ch=1 c=64 v=127
1610250 On ch=1 n=g#5 v=71
1610265 On ch=1 n=d4 v=0
1610270 On ch=1 n=a#4 v=65
1610290 On ch=1 n=f5 v=0
1610370 On ch=1 n=a#5 v=72
1610395 On ch=1 n=g#5 v=0
1610415 On ch=1 n=a#5 v=0
1610480 On ch=1 n=a#3 v=65
1610490 On ch=1 n=f6 v=92
1610560 On ch=1 n=f6 v=0
1610590 On ch=1 n=a#6 v=81
1610645 On ch=1 n=a#4 v=0
1610680 On ch=1 n=a#6 v=0
1610705 Par ch=1 c=64 v=104
1610715 On ch=1 n=a#3 v=0
1610720 Par ch=1 c=64 v=72
1610735 Par ch=1 c=64 v=40
1610745 On ch=1 n=g7 v=95
1610745 Par ch=1 c=64 v=0
1610750 On ch=1 n=d#4 v=65
1610750 On ch=1 n=g6 v=69
1610840 On ch=1 n=g6 v=0
1610850 On ch=1 n=g7 v=0
1610860 Par ch=1 c=64 v=72
1610875 Par ch=1 c=64 v=127
1610945 On ch=1 n=d#4 v=0
1610980 On ch=1 n=a#4 v=59
1611110 On ch=1 n=a#6 v=76
1611110 On ch=1 n=a#5 v=61
1611150 On ch=1 n=a#5 v=0
1611155 On ch=1 n=a#6 v=0
1611225 On ch=1 n=a#6 v=71
1611230 On ch=1 n=a#5 v=63
1611245 On ch=1 n=a#3 v=62
1611280 On ch=1 n=a#5 v=0
1611285 On ch=1 n=a#6 v=0
1611330 On ch=1 n=a#4 v=0
1611345 Par ch=1 c=64 v=104
1611375 Par ch=1 c=64 v=88
1611385 Par ch=1 c=64 v=72
1611395 On ch=1 n=a#3 v=0
1611400 Par ch=1 c=64 v=56
1611415 Par ch=1 c=64 v=40
1611425 Par ch=1 c=64 v=0
1611470 On ch=1 n=d4 v=70
1611555 Par ch=1 c=64 v=24
1611565 Par ch=1 c=64 v=88
1611580 Par ch=1 c=64 v=127
1611600 On ch=1 n=f5 v=70
1611695 On ch=1 n=f5 v=0
1611705 On ch=1 n=d4 v=0
1611715 On ch=1 n=g#5 v=70
1611725 On ch=1 n=a#4 v=58
1611825 On ch=1 n=a#5 v=77
1611850 On ch=1 n=g#5 v=0
1611885 On ch=1 n=a#5 v=0
1611925 On ch=1 n=a#3 v=62
1611945 On ch=1 n=f6 v=83
1612005 On ch=1 n=f6 v=0
1612045 On ch=1 n=a#6 v=85
1612110 On ch=1 n=a#4 v=0
1612150 On ch=1 n=a#6 v=0
1612150 Par ch=1 c=64 v=104
1612165 Par ch=1 c=64 v=88
1612180 Par ch=1 c=64 v=40
1612190 Par ch=1 c=64 v=0
1612200 On ch=1 n=g7 v=94
1612210 On ch=1 n=a#3 v=0
1612210 On ch=1 n=g6 v=71
1612210 On ch=1 n=d#4 v=64
1612290 On ch=1 n=g7 v=0
1612290 Par ch=1 c=64 v=88
1612300 Par ch=1 c=64 v=127
1612320 On ch=1 n=g6 v=0
1612430 On ch=1 n=a#4 v=56
1612545 On ch=1 n=a#6 v=67
1612550 On ch=1 n=a#5 v=54
1612590 On ch=1 n=a#5 v=0
1612595 On ch=1 n=a#6 v=0
1612625 On ch=1 n=d#4 v=0
1612655 On ch=1 n=a#6 v=64
1612660 On ch=1 n=a#5 v=56
1612670 On ch=1 n=a#3 v=55
1612700 On ch=1 n=a#4 v=0
1612715 On ch=1 n=a#6 v=0
1612725 On ch=1 n=a#5 v=0
1612805 On ch=1 n=a#3 v=0
1612845 Par ch=1 c=64 v=88
1612860 Par ch=1 c=64 v=72
1612870 Par ch=1 c=64 v=24
1612885 Par ch=1 c=64 v=0
1612920 On ch=1 n=c4 v=74
1612980 Par ch=1 c=64 v=24
1612995 Par ch=1 c=64 v=72
1613010 Par ch=1 c=64 v=127
1613030 On ch=1 n=d#5 v=65
1613105 Par ch=1 c=64 v=104
1613120 Par ch=1 c=64 v=72
1613130 On ch=1 n=d#5 v=0
1613135 Par ch=1 c=64 v=40
1613150 Par ch=1 c=64 v=24
1613160 On ch=1 n=c4 v=0
1613160 On ch=1 n=g5 v=74
1613165 Par ch=1 c=64 v=0
1613175 On ch=1 n=g#4 v=47
1613205 Par ch=1 c=64 v=56
1613220 Par ch=1 c=64 v=88
1613230 Par ch=1 c=64 v=104
1613250 On ch=1 n=g5 v=0
1613275 On ch=1 n=g#5 v=76
1613355 Par ch=1 c=64 v=40
1613360 On ch=1 n=g#5 v=0
1613370 Par ch=1 c=64 v=0
1613400 On ch=1 n=f5 v=82
1613410 On ch=1 n=g#4 v=0
1613415 On ch=1 n=d4 v=61
1613415 Par ch=1 c=64 v=40
1613425 Par ch=1 c=64 v=72
1613440 Par ch=1 c=64 v=104
1613455 Par ch=1 c=64 v=127
1613465 On ch=1 n=f5 v=0
1613525 On ch=1 n=g#6 v=86
1613575 On ch=1 n=g#6 v=0
1613605 On ch=1 n=d4 v=0
1613605 Par ch=1 c=64 v=104
1613620 Par ch=1 c=64 v=72
1613635 Par ch=1 c=64 v=24
1613645 On ch=1 n=b3 v=74
1613650 Par ch=1 c=64 v=0
1613775 On ch=1 n=d5 v=77
1613775 Par ch=1 c=64 v=72
1613785 Par ch=1 c=64 v=127
1613865 On ch=1 n=d5 v=0
1613885 On ch=1 n=f5 v=76
1613905 On ch=1 n=b3 v=0
1613910 On ch=1 n=g4 v=51
1614005 On ch=1 n=g5 v=85
1614015 On ch=1 n=f5 v=0
1614060 On ch=1 n=g5 v=0
1614125 On ch=1 n=d#5 v=83
1614135 On ch=1 n=c4 v=59
1614145 On ch=1 n=g4 v=0
1614175 On ch=1 n=c4 v=0
1614180 On ch=1 n=d#5 v=0
1614250 On ch=1 n=g6 v=80
1614300 On ch=1 n=g6 v=0
1614410 On ch=1 n=f5 v=92
1614410 Par ch=1 c=64 v=104
1614415 On ch=1 n=c5 v=74
1614415 On ch=1 n=d#5 v=60
1614425 Par ch=1 c=64 v=88
1614440 Par ch=1 c=64 v=72
1614445 On ch=1 n=d#5 v=0
1614455 Par ch=1 c=64 v=56
1614470 Par ch=1 c=64 v=24
1614480 Par ch=1 c=64 v=0
1614495 On ch=1 n=d#5 v=19
1614530 On ch=1 n=a3 v=61
1614650 On ch=1 n=f4 v=63
1614735 On ch=1 n=a3 v=0
1614765 On ch=1 n=f4 v=0
1614765 On ch=1 n=f#4 v=67
1614885 On ch=1 n=f#4 v=0
1614900 On ch=1 n=g4 v=70
1615005 On ch=1 n=g4 v=0
1615025 On ch=1 n=f4 v=77
1615130 On ch=1 n=f4 v=0
1615150 On ch=1 n=d#4 v=84
1615160 On ch=1 n=d#5 v=0
1615245 On ch=1 n=d#4 v=0
1615265 On ch=1 n=d4 v=77
1615285 Par ch=1 c=64 v=24
1615300 Par ch=1 c=64 v=40
1615315 Par ch=1 c=64 v=56
1615340 Par ch=1 c=64 v=72
1615355 Par ch=1 c=64 v=88
1615405 On ch=1 n=d4 v=0
1615410 On ch=1 n=c4 v=75
1615450 Par ch=1 c=64 v=104
1615495 On ch=1 n=c4 v=0
1615525 On ch=1 n=a#3 v=72
1615625 On ch=1 n=a#3 v=0
1615650 On ch=1 n=a3 v=70
1615680 On ch=1 n=c5 v=0
1615755 On ch=1 n=a3 v=0
1615765 On ch=1 n=g3 v=69
1615835 On ch=1 n=g3 v=0
1615920 On ch=1 n=f5 v=0
1615930 On ch=1 n=g#4 v=75
1615930 On ch=1 n=a#3 v=60
1615940 Par ch=1 c=64 v=40
1615950 Par ch=1 c=64 v=0
1615955 On ch=1 n=f3 v=63
1616050 Par ch=1 c=64 v=40
1616065 Par ch=1 c=64 v=72
1616070 On ch=1 n=g#4 v=0
1616075 On ch=1 n=a4 v=78
1616075 Par ch=1 c=64 v=88
1616090 Par ch=1 c=64 v=104
1616160 Par ch=1 c=64 v=127
1616190 On ch=1 n=a#4 v=73
1616200 On ch=1 n=a4 v=0
1616250 On ch=1 n=a#3 v=0
1616285 On ch=1 n=a#4 v=0
1616315 On ch=1 n=c5 v=82
1616345 On ch=1 n=b4 v=31
1616380 On ch=1 n=f3 v=0
1616400 On ch=1 n=b4 v=0
1616400 On ch=1 n=c5 v=0
1616435 On ch=1 n=d5 v=79
1616520 On ch=1 n=d5 v=0
1616545 On ch=1 n=d#5 v=71
1616630 Par ch=1 c=64 v=104
1616635 On ch=1 n=d#5 v=0
1616645 Par ch=1 c=64 v=56
1616660 Par ch=1 c=64 v=24
1616675 Par ch=1 c=64 v=0
1616685 On ch=1 n=f5 v=82
1616690 On ch=1 n=g#4 v=71
1616690 On ch=1 n=d#4 v=56
1616700 On ch=1 n=d#3 v=46
1616700 On ch=1 n=g#3 v=42
1616730 Par ch=1 c=64 v=24
1616740 On ch=1 n=g#4 v=0
1616745 Par ch=1 c=64 v=88
1616755 Par ch=1 c=64 v=127
1616795 On ch=1 n=f5 v=0
1616835 On ch=1 n=g5 v=77
1616855 On ch=1 n=d#3 v=0
1616875 On ch=1 n=g5 v=0
1616930 On ch=1 n=d#4 v=0
1616970 On ch=1 n=g#5 v=81
1617045 On ch=1 n=g#5 v=0
1617095 On ch=1 n=a5 v=83
1617200 On ch=1 n=a5 v=0
1617230 On ch=1 n=g4 v=77
1617230 On ch=1 n=a#5 v=83
1617280 On ch=1 n=g#3 v=0
1617310 On ch=1 n=g4 v=0
1617350 On ch=1 n=a#5 v=0
1617350 On ch=1 n=c6 v=89
1617465 On ch=1 n=a#3 v=65
1617465 Par ch=1 c=64 v=40
1617475 On ch=1 n=d3 v=70
1617480 Par ch=1 c=64 v=0
1617485 On ch=1 n=a#5 v=81
1617490 On ch=1 n=c6 v=0
1617550 On ch=1 n=d3 v=0
1617555 On ch=1 n=f4 v=78
1617560 Par ch=1 c=64 v=56
1617575 Par ch=1 c=64 v=127
1617600 On ch=1 n=a#5 v=0
1617610 On ch=1 n=a5 v=88
1617725 On ch=1 n=a#5 v=77
1617750 On ch=1 n=a5 v=0
1617780 On ch=1 n=f4 v=0
1617790 On ch=1 n=a#5 v=0
1617825 On ch=1 n=a#3 v=0
1617850 On ch=1 n=c6 v=86
1617925 On ch=1 n=c6 v=0
1617970 On ch=1 n=d6 v=88
1618050 On ch=1 n=d6 v=0
1618080 On ch=1 n=d#6 v=83
1618080 On ch=1 n=c3 v=57
1618085 Par ch=1 c=64 v=104
1618100 Par ch=1 c=64 v=72
1618115 Par ch=1 c=64 v=56
1618130 Par ch=1 c=64 v=0
1618135 On ch=1 n=c3 v=0
1618170 On ch=1 n=f3 v=31
1618200 On ch=1 n=d#6 v=0
1618215 On ch=1 n=f6 v=93
1618215 On ch=1 n=d#4 v=55
1618220 On ch=1 n=g#5 v=58
1618225 Par ch=1 c=64 v=24
1618240 Par ch=1 c=64 v=88
1618255 On ch=1 n=g#5 v=0
1618255 Par ch=1 c=64 v=127
1618300 On ch=1 n=f6 v=0
1618355 On ch=1 n=g6 v=88
1618425 On ch=1 n=g6 v=0
1618480 On ch=1 n=g#6 v=88
1618560 On ch=1 n=g#6 v=0
1618605 On ch=1 n=a6 v=85
1618680 On ch=1 n=a6 v=0
1618720 On ch=1 n=a#6 v=79
1618785 On ch=1 n=f3 v=0
1618795 On ch=1 n=d#4 v=0
1618820 On ch=1 n=a#6 v=0
1618835 On ch=1 n=c7 v=88
1618910 On ch=1 n=c7 v=0
1618965 Par ch=1 c=64 v=88
1618975 Par ch=1 c=64 v=40
1618985 On ch=1 n=a#6 v=87
1618990 On ch=1 n=a#5 v=77
1618990 Par ch=1 c=64 v=0
1618995 On ch=1 n=f6 v=80
1619000 On ch=1 n=d3 v=69
1619085 Par ch=1 c=64 v=40
1619100 Par ch=1 c=64 v=88
1619115 On ch=1 n=d3 v=0
1619115 Par ch=1 c=64 v=127
1619130 On ch=1 n=a3 v=44
1619205 On ch=1 n=a3 v=0
1619235 On ch=1 n=a#3 v=73
1619330 On ch=1 n=a#3 v=0
1619365 On ch=1 n=c4 v=58
1619445 On ch=1 n=c4 v=0
1619455 On ch=1 n=a#5 v=0
1619455 On ch=1 n=d4 v=60
1619505 On ch=1 n=d4 v=0
1619570 On ch=1 n=d#4 v=74
1619575 On ch=1 n=f6 v=0
1619650 On ch=1 n=a#6 v=0
1619700 On ch=1 n=d#4 v=0
1619710 On ch=1 n=b6 v=93
1619710 Par ch=1 c=64 v=88
1619720 On ch=1 n=g#6 v=76
1619720 On ch=1 n=f6 v=60
1619720 On ch=1 n=b5 v=70
1619725 On ch=1 n=f4 v=72
1619725 Par ch=1 c=64 v=24
1619740 Par ch=1 c=64 v=0
1619825 Par ch=1 c=64 v=24
1619830 On ch=1 n=f4 v=0
1619830 On ch=1 n=e4 v=70
1619835 Par ch=1 c=64 v=72
1619850 Par ch=1 c=64 v=127
1619925 On ch=1 n=e4 v=0
1619955 On ch=1 n=f4 v=68
1620060 On ch=1 n=g4 v=72
1620150 On ch=1 n=f4 v=0
1620175 On ch=1 n=g4 v=0
1620190 On ch=1 n=b5 v=0
1620190 On ch=1 n=g#4 v=67
1620290 On ch=1 n=b6 v=0
1620325 On ch=1 n=g#4 v=0
1620330 On ch=1 n=f4 v=71
1620385 On ch=1 n=f6 v=0
1620395 On ch=1 n=f4 v=0
1620400 On ch=1 n=g#6 v=0
1620420 Par ch=1 c=64 v=88
1620435 Par ch=1 c=64 v=56
1620450 Par ch=1 c=64 v=0
1620455 On ch=1 n=c7 v=97
1620460 On ch=1 n=g#6 v=75
1620460 On ch=1 n=c6 v=74
1620470 On ch=1 n=f6 v=77
1620475 On ch=1 n=c4 v=69
1620560 Par ch=1 c=64 v=24
1620570 On ch=1 n=c4 v=0
1620570 Par ch=1 c=64 v=72
1620585 On ch=1 n=f4 v=69
1620585 Par ch=1 c=64 v=127
1620725 On ch=1 n=g4 v=83
1620730 On ch=1 n=f4 v=0
1620825 On ch=1 n=g4 v=0
1620830 On ch=1 n=g#4 v=76
1620905 On ch=1 n=g#4 v=0
1620940 On ch=1 n=c6 v=0
1620950 On ch=1 n=a#4 v=67
1621035 On ch=1 n=f6 v=0
1621040 On ch=1 n=c7 v=0
1621050 On ch=1 n=a#4 v=0
1621065 On ch=1 n=c5 v=71
1621080 On ch=1 n=g#6 v=0
1621100 On ch=1 n=b3 v=77
1621160 On ch=1 n=b3 v=0
1621185 On ch=1 n=c5 v=0
1621185 Par ch=1 c=64 v=104
1621195 On ch=1 n=d7 v=101
1621195 Par ch=1 c=64 v=72
1621205 On ch=1 n=g#6 v=71
1621205 On ch=1 n=d6 v=78
1621205 On ch=1 n=f6 v=82
1621210 Par ch=1 c=64 v=40
1621220 On ch=1 n=d5 v=71
1621225 Par ch=1 c=64 v=0
1621325 On ch=1 n=d5 v=0
1621335 Par ch=1 c=64 v=72
1621340 On ch=1 n=c#5 v=75
1621350 Par ch=1 c=64 v=127
1621435 On ch=1 n=c#5 v=0
1621460 On ch=1 n=d5 v=70
1621560 On ch=1 n=d5 v=0
1621570 On ch=1 n=d#5 v=74
1621675 On ch=1 n=d6 v=0
1621680 On ch=1 n=d#5 v=0
1621705 On ch=1 n=f6 v=0
1621710 On ch=1 n=f5 v=77
1621730 On ch=1 n=g#6 v=0
1621745 On ch=1 n=d7 v=0
1621775 On ch=1 n=f5 v=0
1621850 On ch=1 n=d5 v=74
1621905 On ch=1 n=d5 v=0
1621945 Par ch=1 c=64 v=104
1621960 Par ch=1 c=64 v=72
1621975 Par ch=1 c=64 v=0
1621980 On ch=1 n=c4 v=80
1622030 On ch=1 n=c4 v=0
1622030 On ch=1 n=d#7 v=105
1622040 On ch=1 n=d#6 v=78
1622050 On ch=1 n=g6 v=75
1622050 On ch=1 n=c7 v=76
1622060 On ch=1 n=g4 v=72
1622075 On ch=1 n=c7 v=0
1622075 On ch=1 n=g6 v=0
1622085 On ch=1 n=d#6 v=0
1622085 Par ch=1 c=64 v=88
1622095 On ch=1 n=d#5 v=75
1622100 Par ch=1 c=64 v=127
1622120 On ch=1 n=g4 v=0
1622120 On ch=1 n=d#7 v=0
1622165 On ch=1 n=d#5 v=0
1622420 On ch=1 n=c6 v=77
1622420 On ch=1 n=d#5 v=46
1622425 On ch=1 n=c5 v=63
1622435 On ch=1 n=g5 v=43
1622450 On ch=1 n=c5 v=0
1622460 On ch=1 n=d#5 v=0
1622470 On ch=1 n=g5 v=0
1622470 On ch=1 n=c6 v=0
1622520 On ch=1 n=c6 v=87
1622525 On ch=1 n=g5 v=60
1622530 On ch=1 n=c5 v=60
1622530 On ch=1 n=d#5 v=46
1622565 On ch=1 n=g5 v=0
1622570 On ch=1 n=c5 v=0
1622595 On ch=1 n=d#5 v=0
1622605 On ch=1 n=c6 v=0
1622780 On ch=1 n=c5 v=59
1622780 On ch=1 n=d#5 v=51
1622785 On ch=1 n=c6 v=83
1622795 On ch=1 n=g5 v=60
1622805 On ch=1 n=c5 v=0
1622820 Par ch=1 c=64 v=56
1622840 Par ch=1 c=64 v=104
1622855 Par ch=1 c=64 v=127
1622875 On ch=1 n=d#5 v=0
1623025 On ch=1 n=c6 v=0
1623025 Par ch=1 c=64 v=104
1623030 On ch=1 n=d6 v=86
1623040 On ch=1 n=c4 v=63
1623040 Par ch=1 c=64 v=72
1623050 On ch=1 n=g5 v=0
1623055 Par ch=1 c=64 v=40
1623070 Par ch=1 c=64 v=0
1623075 On ch=1 n=c4 v=0
1623140 On ch=1 n=d6 v=0
1623260 On ch=1 n=d#6 v=85
1623265 On ch=1 n=d#5 v=55
1623275 On ch=1 n=g5 v=65
1623280 On ch=1 n=c5 v=53
1623310 On ch=1 n=g5 v=0
1623315 On ch=1 n=c5 v=0
1623345 On ch=1 n=d#5 v=0
1623350 On ch=1 n=d#6 v=0
1623510 Par ch=1 c=64 v=24
1623520 On ch=1 n=c5 v=70
1623520 On ch=1 n=d#6 v=83
1623525 On ch=1 n=f5 v=62
1623530 On ch=1 n=g#5 v=71
1623530 Par ch=1 c=64 v=88
1623545 Par ch=1 c=64 v=127
1623560 On ch=1 n=f5 v=0
1623565 On ch=1 n=c5 v=0
1623605 On ch=1 n=g#5 v=0
1623740 On ch=1 n=d#6 v=0
1623780 On ch=1 n=f6 v=86
1623780 Par ch=1 c=64 v=104
1623790 On ch=1 n=c4 v=65
1623795 Par ch=1 c=64 v=72
1623810 Par ch=1 c=64 v=40
1623820 On ch=1 n=c4 v=0
1623825 Par ch=1 c=64 v=24
1623845 Par ch=1 c=64 v=0
1623880 On ch=1 n=f6 v=0
1624010 On ch=1 n=c5 v=53
1624025 On ch=1 n=d6 v=78
1624025 On ch=1 n=g#5 v=54
1624035 On ch=1 n=f5 v=35
1624085 On ch=1 n=f5 v=0
1624090 On ch=1 n=c5 v=0
1624100 On ch=1 n=g#5 v=0
1624125 On ch=1 n=d6 v=0
1624265 On ch=1 n=c5 v=68
1624265 On ch=1 n=d6 v=82
1624265 Par ch=1 c=64 v=24
1624275 On ch=1 n=g#5 v=54
1624285 Par ch=1 c=64 v=72
1624295 On ch=1 n=c5 v=0
1624300 Par ch=1 c=64 v=127
1624320 On ch=1 n=g#5 v=0
1624350 On ch=1 n=d6 v=0
1624505 On ch=1 n=c4 v=77
1624550 Par ch=1 c=64 v=88
1624555 On ch=1 n=c4 v=0
1624565 Par ch=1 c=64 v=56
1624585 Par ch=1 c=64 v=40
1624600 Par ch=1 c=64 v=24
1624620 Par ch=1 c=64 v=0
1624745 On ch=1 n=e6 v=90
1624745 On ch=1 n=g5 v=65
1624745 On ch=1 n=c#5 v=53
1624745 On ch=1 n=a#5 v=64
1624755 On ch=1 n=a#4 v=46
1624805 On ch=1 n=a#5 v=0
1624805 On ch=1 n=g5 v=0
1624810 On ch=1 n=c#5 v=0
1624815 On ch=1 n=a#4 v=0
1624845 On ch=1 n=e6 v=0
1625005 On ch=1 n=c#5 v=73
1625005 On ch=1 n=e6 v=90
1625005 Par ch=1 c=64 v=24
1625010 On ch=1 n=g5 v=65
1625010 On ch=1 n=a#4 v=57
1625020 On ch=1 n=a#5 v=61
1625020 Par ch=1 c=64 v=88
1625035 Par ch=1 c=64 v=127
1625040 On ch=1 n=g5 v=0
1625045 On ch=1 n=a#4 v=0
1625065 On ch=1 n=c#5 v=0
1625080 On ch=1 n=a#5 v=0
1625115 On ch=1 n=e6 v=0
1625235 On ch=1 n=c4 v=81
1625265 On ch=1 n=c4 v=0
1625375 Par ch=1 c=64 v=104
1625380 On ch=1 n=a#5 v=73
1625385 On ch=1 n=e6 v=89
1625390 Par ch=1 c=64 v=88
1625405 Par ch=1 c=64 v=72
1625425 Par ch=1 c=64 v=56
1625430 On ch=1 n=a#5 v=0
1625440 Par ch=1 c=64 v=24
1625445 On ch=1 n=e6 v=0
1625465 On ch=1 n=c#5 v=62
1625465 On ch=1 n=a#4 v=61
1625470 On ch=1 n=g5 v=68
1625475 On ch=1 n=e6 v=86
1625475 On ch=1 n=a#5 v=72
1625475 Par ch=1 c=64 v=0
1625505 On ch=1 n=c#5 v=0
1625510 On ch=1 n=g5 v=0
1625525 On ch=1 n=a#4 v=0
1625545 On ch=1 n=a#5 v=0
1625590 On ch=1 n=e6 v=0
1625700 On ch=1 n=e6 v=96
1625705 On ch=1 n=a#5 v=71
1625710 On ch=1 n=g5 v=70
1625710 On ch=1 n=a#4 v=61
1625710 Par ch=1 c=64 v=56
1625715 On ch=1 n=c#5 v=62
1625725 Par ch=1 c=64 v=127
1625740 On ch=1 n=g5 v=0
1625745 On ch=1 n=a#4 v=0
1625750 On ch=1 n=c#5 v=0
1625865 On ch=1 n=e6 v=0
1625935 On ch=1 n=f6 v=86
1625940 On ch=1 n=a#5 v=0
1625940 On ch=1 n=c4 v=72
1625980 On ch=1 n=c4 v=0
1625980 Par ch=1 c=64 v=72
1625995 Par ch=1 c=64 v=40
1626010 Par ch=1 c=64 v=24
1626030 Par ch=1 c=64 v=0
1626075 On ch=1 n=f6 v=0
1626165 On ch=1 n=g6 v=88
1626170 On ch=1 n=a#5 v=67
1626180 On ch=1 n=g5 v=65
1626180 On ch=1 n=c#5 v=56
1626190 On ch=1 n=a#4 v=44
1626215 On ch=1 n=g5 v=0
1626220 On ch=1 n=c#5 v=0
1626240 On ch=1 n=a#5 v=0
1626245 On ch=1 n=a#4 v=0
1626265 On ch=1 n=g6 v=0
1626395 Par ch=1 c=64 v=24
1626415 On ch=1 n=g6 v=89
1626415 On ch=1 n=c5 v=74
1626415 Par ch=1 c=64 v=104
1626420 On ch=1 n=g5 v=69
1626425 On ch=1 n=a#5 v=61
1626430 On ch=1 n=g#4 v=55
1626430 Par ch=1 c=64 v=127
1626455 On ch=1 n=g5 v=0
1626465 On ch=1 n=c5 v=0
1626490 On ch=1 n=g#4 v=0
1626490 On ch=1 n=a#5 v=0
1626525 On ch=1 n=g6 v=0
1626665 On ch=1 n=c4 v=74
1626670 On ch=1 n=g#6 v=83
1626685 Par ch=1 c=64 v=104
1626700 Par ch=1 c=64 v=72
1626715 On ch=1 n=c4 v=0
1626715 Par ch=1 c=64 v=40
1626735 Par ch=1 c=64 v=24
1626750 Par ch=1 c=64 v=0
1626795 On ch=1 n=g#6 v=0
1626900 On ch=1 n=f6 v=87
1626915 On ch=1 n=g#5 v=52
1626915 On ch=1 n=f5 v=57
1626920 On ch=1 n=c5 v=54
1626925 On ch=1 n=g#4 v=37
1626965 On ch=1 n=c5 v=0
1626965 On ch=1 n=f5 v=0
1626970 On ch=1 n=g#4 v=0
1626970 On ch=1 n=g#5 v=0
1627010 On ch=1 n=f6 v=0
1627135 On ch=1 n=c5 v=65
1627145 On ch=1 n=f5 v=54
1627145 On ch=1 n=f6 v=92
1627150 On ch=1 n=g#5 v=67
1627155 On ch=1 n=g#4 v=25
1627165 On ch=1 n=c5 v=0
1627170 Par ch=1 c=64 v=88
1627175 On ch=1 n=f5 v=0
1627185 On ch=1 n=g#4 v=0
1627185 Par ch=1 c=64 v=127
1627205 On ch=1 n=g#5 v=0
1627235 On ch=1 n=f6 v=0
1627375 On ch=1 n=c4 v=76
1627415 On ch=1 n=c4 v=0
1627420 Par ch=1 c=64 v=88
1627435 Par ch=1 c=64 v=56
1627455 Par ch=1 c=64 v=24
1627475 Par ch=1 c=64 v=0
1627615 On ch=1 n=g#5 v=82
1627620 On ch=1 n=g#6 v=91
1627620 On ch=1 n=a#4 v=53
1627620 On ch=1 n=c#5 v=51
1627625 On ch=1 n=c#6 v=75
1627645 On ch=1 n=a#5 v=38
1627660 On ch=1 n=c#6 v=0
1627670 On ch=1 n=a#5 v=0
1627685 On ch=1 n=c#5 v=0
1627685 On ch=1 n=a#4 v=0
1627685 On ch=1 n=g#5 v=0
1627735 On ch=1 n=g#6 v=0
1627875 Par ch=1 c=64 v=40
1627880 On ch=1 n=g#6 v=91
1627880 On ch=1 n=g#5 v=84
1627885 On ch=1 n=a#4 v=69
1627885 On ch=1 n=c#5 v=64
1627890 On ch=1 n=c#6 v=75
1627890 On ch=1 n=a#5 v=69
1627890 Par ch=1 c=64 v=104
1627910 Par ch=1 c=64 v=127
1627920 On ch=1 n=a#5 v=0
1627935 On ch=1 n=c#5 v=0
1627940 On ch=1 n=g#5 v=0
1627950 On ch=1 n=c#6 v=0
1627950 On ch=1 n=a#4 v=0
1628000 On ch=1 n=g#6 v=0
1628140 On ch=1 n=c4 v=74
1628170 On ch=1 n=c4 v=0
1628175 Par ch=1 c=64 v=88
1628195 Par ch=1 c=64 v=72
1628210 Par ch=1 c=64 v=40
1628225 Par ch=1 c=64 v=24
1628255 On ch=1 n=g6 v=87
1628260 On ch=1 n=g5 v=76
1628260 Par ch=1 c=64 v=0
1628275 On ch=1 n=c#6 v=49
1628285 On ch=1 n=g6 v=0
1628300 On ch=1 n=c#6 v=0
1628300 On ch=1 n=g5 v=0
1628355 On ch=1 n=g6 v=90
1628355 On ch=1 n=g5 v=80
1628355 On ch=1 n=c#6 v=63
1628360 On ch=1 n=c#5 v=62
1628360 On ch=1 n=a#4 v=54
1628360 On ch=1 n=a#5 v=60
1628410 On ch=1 n=a#5 v=0
1628420 On ch=1 n=a#4 v=0
1628435 On ch=1 n=c#5 v=0
1628455 On ch=1 n=g5 v=0
1628460 On ch=1 n=g6 v=0
1628465 On ch=1 n=c#6 v=0
1628615 On ch=1 n=g6 v=92
1628615 Par ch=1 c=64 v=56
1628620 On ch=1 n=c6 v=86
1628620 On ch=1 n=g#5 v=63
1628625 On ch=1 n=g5 v=73
1628625 On ch=1 n=c5 v=67
1628630 Par ch=1 c=64 v=127
1628635 On ch=1 n=g#4 v=54
1628655 On ch=1 n=c5 v=0
1628665 On ch=1 n=g#4 v=0
1628670 On ch=1 n=g#5 v=0
1628695 On ch=1 n=g5 v=0
1628700 On ch=1 n=c6 v=0
1628720 On ch=1 n=g6 v=0
1628850 On ch=1 n=c4 v=66
1628885 On ch=1 n=c4 v=0
1628915 Par ch=1 c=64 v=88
1628930 Par ch=1 c=64 v=72
1628945 Par ch=1 c=64 v=56
1628965 Par ch=1 c=64 v=40
1628980 Par ch=1 c=64 v=24
1628990 On ch=1 n=f6 v=86
1628995 On ch=1 n=f5 v=70
1629000 On ch=1 n=c6 v=77
1629040 On ch=1 n=c6 v=0
1629040 On ch=1 n=f5 v=0
1629050 Par ch=1 c=64 v=0
1629055 On ch=1 n=f6 v=0
1629090 On ch=1 n=g#4 v=54
1629095 On ch=1 n=c5 v=60
1629095 On ch=1 n=g#5 v=56
1629100 On ch=1 n=f6 v=89
1629100 On ch=1 n=f5 v=62
1629100 On ch=1 n=c6 v=76
1629130 On ch=1 n=c5 v=0
1629160 On ch=1 n=g#5 v=0
1629165 On ch=1 n=g#4 v=0
1629170 On ch=1 n=c6 v=0
1629190 On ch=1 n=f5 v=0
1629200 On ch=1 n=f6 v=0
1629335 On ch=1 n=a#4 v=67
1629335 Par ch=1 c=64 v=24
1629340 On ch=1 n=f6 v=92
1629340 On ch=1 n=g5 v=70
1629345 On ch=1 n=f5 v=68
1629345 On ch=1 n=a#5 v=71
1629350 Par ch=1 c=64 v=88
1629370 Par ch=1 c=64 v=127
1629375 On ch=1 n=g5 v=0
1629375 On ch=1 n=g4 v=31
1629380 On ch=1 n=f5 v=0
1629410 On ch=1 n=g4 v=0
1629415 On ch=1 n=a#4 v=0
1629425 On ch=1 n=a#5 v=0
1629430 On ch=1 n=f6 v=0
1629585 On ch=1 n=c4 v=71
1629615 On ch=1 n=c4 v=0
1629620 Par ch=1 c=64 v=88
1629635 Par ch=1 c=64 v=72
1629655 Par ch=1 c=64 v=40
1629670 Par ch=1 c=64 v=24
1629675 On ch=1 n=d#6 v=83
1629675 On ch=1 n=d#5 v=73
1629690 On ch=1 n=a#5 v=53
1629705 Par ch=1 c=64 v=0
1629720 On ch=1 n=a#5 v=0
1629720 On ch=1 n=d#5 v=0
1629730 On ch=1 n=d#6 v=0
1629770 On ch=1 n=d#6 v=90
1629770 On ch=1 n=d#5 v=72
1629775 On ch=1 n=a#5 v=60
1629800 On ch=1 n=g5 v=59
1629805 On ch=1 n=a#4 v=38
1629815 On ch=1 n=g4 v=46
1629835 On ch=1 n=g5 v=0
1629835 On ch=1 n=d#5 v=0
1629845 On ch=1 n=a#4 v=0
1629850 On ch=1 n=g4 v=0
1629865 On ch=1 n=a#5 v=0
1629875 On ch=1 n=d#6 v=0
1630040 On ch=1 n=d#6 v=85
1630045 On ch=1 n=d#5 v=71
1630045 On ch=1 n=g#5 v=70
1630050 On ch=1 n=g#4 v=56
1630065 On ch=1 n=f5 v=52
1630065 On ch=1 n=f4 v=56
1630090 Par ch=1 c=64 v=72
1630100 On ch=1 n=f5 v=0
1630105 On ch=1 n=f4 v=0
1630110 On ch=1 n=d#5 v=0
1630110 Par ch=1 c=64 v=127
1630130 On ch=1 n=g#4 v=0
1630135 On ch=1 n=g#5 v=0
1630170 On ch=1 n=d#6 v=0
1630285 On ch=1 n=c4 v=63
1630325 Par ch=1 c=64 v=104
1630340 Par ch=1 c=64 v=72
1630355 On ch=1 n=c4 v=0
1630360 Par ch=1 c=64 v=40
1630375 Par ch=1 c=64 v=24
1630395 Par ch=1 c=64 v=0
1630515 On ch=1 n=d#6 v=85
1630515 On ch=1 n=d#5 v=69
1630520 On ch=1 n=g#5 v=71
1630520 On ch=1 n=f5 v=61
1630520 On ch=1 n=g#4 v=55
1630535 On ch=1 n=f4 v=40
1630565 On ch=1 n=f5 v=0
1630570 On ch=1 n=f4 v=0
1630580 On ch=1 n=d#5 v=0
1630585 On ch=1 n=g#4 v=0
1630615 On ch=1 n=g#5 v=0
1630615 On ch=1 n=d#6 v=0
1630755 On ch=1 n=d#6 v=82
1630760 On ch=1 n=g#4 v=65
1630760 Par ch=1 c=64 v=56
1630765 On ch=1 n=f5 v=66
1630770 On ch=1 n=g#5 v=64
1630770 On ch=1 n=d#5 v=61
1630780 On ch=1 n=f4 v=41
1630780 Par ch=1 c=64 v=127
1630795 On ch=1 n=f5 v=0
1630820 On ch=1 n=f4 v=0
1630825 On ch=1 n=g#4 v=0
1630870 On ch=1 n=d#6 v=0
1630890 On ch=1 n=d#5 v=0
1630965 On ch=1 n=c4 v=75
1630970 On ch=1 n=g#5 v=0
1631020 On ch=1 n=c4 v=0
1631030 Par ch=1 c=64 v=88
1631050 Par ch=1 c=64 v=72
1631065 Par ch=1 c=64 v=40
1631080 Par ch=1 c=64 v=24
1631095 On ch=1 n=c#6 v=73
1631100 On ch=1 n=c#5 v=65
1631100 Par ch=1 c=64 v=0
1631135 On ch=1 n=c#5 v=0
1631140 On ch=1 n=c#6 v=0
1631180 On ch=1 n=f5 v=69
1631180 On ch=1 n=c#5 v=68
1631180 On ch=1 n=c#6 v=70
1631185 On ch=1 n=g#4 v=57
1631190 On ch=1 n=f4 v=66
1631190 On ch=1 n=g#5 v=58
1631235 On ch=1 n=f4 v=0
1631235 On ch=1 n=f5 v=0
1631240 On ch=1 n=g#4 v=0
1631265 On ch=1 n=c#5 v=0
1631275 On ch=1 n=c#6 v=0
1631280 On ch=1 n=g#5 v=0
1631425 On ch=1 n=c#6 v=82
1631440 On ch=1 n=g5 v=74
1631440 On ch=1 n=c#5 v=68
1631450 On ch=1 n=g4 v=74
1631450 On ch=1 n=e5 v=68
1631450 Par ch=1 c=64 v=56
1631460 On ch=1 n=e4 v=63
1631465 Par ch=1 c=64 v=127
1631485 On ch=1 n=e5 v=0
1631495 On ch=1 n=e4 v=0
1631505 On ch=1 n=g4 v=0
1631510 On ch=1 n=c#5 v=0
1631525 On ch=1 n=g5 v=0
1631545 On ch=1 n=c#6 v=0
1631660 On ch=1 n=c4 v=63
1631695 On ch=1 n=c4 v=0
1631700 Par ch=1 c=64 v=104
1631720 Par ch=1 c=64 v=88
1631735 Par ch=1 c=64 v=56
1631755 Par ch=1 c=64 v=40
1631770 Par ch=1 c=64 v=24
1631775 On ch=1 n=c6 v=86
1631780 On ch=1 n=c5 v=72
1631785 Par ch=1 c=64 v=0
1631815 On ch=1 n=c5 v=0
1631840 On ch=1 n=c6 v=0
1631870 On ch=1 n=c6 v=72
1631875 On ch=1 n=c5 v=75
1631900 On ch=1 n=e5 v=59
1631915 On ch=1 n=c#5 v=57
1631925 On ch=1 n=e4 v=40
1631940 On ch=1 n=e5 v=0
1631950 On ch=1 n=c5 v=0
1631960 On ch=1 n=c6 v=0
1631965 On ch=1 n=e4 v=0
1631975 On ch=1 n=c#5 v=0
1632155 On ch=1 n=c6 v=85
1632165 On ch=1 n=c#5 v=66
1632165 On ch=1 n=f5 v=68
1632175 Par ch=1 c=64 v=24
1632185 On ch=1 n=c#4 v=60
1632190 Par ch=1 c=64 v=88
1632200 On ch=1 n=f4 v=61
1632205 Par ch=1 c=64 v=127
1632240 On ch=1 n=f4 v=0
1632250 On ch=1 n=c#4 v=0
1632290 On ch=1 n=c#5 v=0
1632290 On ch=1 n=c6 v=0
1632370 On ch=1 n=c#4 v=76
1632425 On ch=1 n=f5 v=0
1632475 Par ch=1 c=64 v=88
1632490 On ch=1 n=b5 v=85
1632490 Par ch=1 c=64 v=72
1632500 On ch=1 n=b4 v=63
1632505 On ch=1 n=c#4 v=0
1632510 Par ch=1 c=64 v=56
1632525 Par ch=1 c=64 v=40
1632545 On ch=1 n=b4 v=0
1632545 Par ch=1 c=64 v=0
1632550 On ch=1 n=b5 v=0
1632600 On ch=1 n=b5 v=85
1632605 On ch=1 n=b4 v=70
1632610 On ch=1 n=f4 v=57
1632615 On ch=1 n=c#5 v=59
1632615 On ch=1 n=c#4 v=65
1632665 On ch=1 n=c#4 v=0
1632670 On ch=1 n=b4 v=0
1632680 On ch=1 n=c#5 v=0
1632710 On ch=1 n=f4 v=0
1632710 On ch=1 n=b5 v=0
1632870 On ch=1 n=c6 v=83
1632880 Par ch=1 c=64 v=24
1632885 On ch=1 n=c5 v=59
1632885 On ch=1 n=e4 v=62
1632885 On ch=1 n=e5 v=63
1632895 Par ch=1 c=64 v=88
1632910 Par ch=1 c=64 v=127
1632930 On ch=1 n=e5 v=0
1632995 On ch=1 n=c5 v=0
1633020 On ch=1 n=e4 v=0
1633040 On ch=1 n=c6 v=0
1633095 On ch=1 n=c4 v=75
1633120 On ch=1 n=c4 v=0
1633210 Par ch=1 c=64 v=104
1633230 Par ch=1 c=64 v=88
1633245 Par ch=1 c=64 v=72
1633260 Par ch=1 c=64 v=56
1633280 Par ch=1 c=64 v=40
1633300 Par ch=1 c=64 v=24
1633315 Par ch=1 c=64 v=0
1633360 On ch=1 n=c6 v=77
1633365 On ch=1 n=a#5 v=52
1633365 On ch=1 n=g5 v=49
1633370 On ch=1 n=e5 v=51
1633405 On ch=1 n=g5 v=0
1633410 On ch=1 n=e5 v=0
1633425 On ch=1 n=a#5 v=0
1633440 On ch=1 n=c6 v=0
1633615 On ch=1 n=g5 v=61
1633620 On ch=1 n=e5 v=63
1633620 Par ch=1 c=64 v=24
1633630 On ch=1 n=c6 v=78
1633635 Par ch=1 c=64 v=72
1633640 On ch=1 n=a#5 v=44
1633650 On ch=1 n=e5 v=0
1633650 On ch=1 n=g5 v=0
1633650 Par ch=1 c=64 v=127
1633715 On ch=1 n=c6 v=0
1633720 On ch=1 n=a#5 v=0
1633920 Par ch=1 c=64 v=104
1633935 Par ch=1 c=64 v=72
1633945 On ch=1 n=c4 v=65
1633950 Par ch=1 c=64 v=56
1633970 Par ch=1 c=64 v=40
1633975 On ch=1 n=c4 v=0
1633985 On ch=1 n=c6 v=73
1633985 Par ch=1 c=64 v=24
1633990 On ch=1 n=a#5 v=45
1634000 Par ch=1 c=64 v=0
1634015 On ch=1 n=a#5 v=0
1634015 On ch=1 n=c6 v=0
1634080 On ch=1 n=c6 v=83
1634080 On ch=1 n=a#5 v=48
1634115 On ch=1 n=e5 v=66
1634115 On ch=1 n=g5 v=48
1634140 On ch=1 n=e5 v=0
1634145 On ch=1 n=g5 v=0
1634150 On ch=1 n=a#5 v=0
1634175 On ch=1 n=c6 v=0
1634355 On ch=1 n=e5 v=77
1634355 On ch=1 n=c6 v=83
1634355 On ch=1 n=g5 v=66
1634355 Par ch=1 c=64 v=40
1634370 On ch=1 n=a#5 v=63
1634370 Par ch=1 c=64 v=104
1634385 On ch=1 n=e5 v=0
1634390 On ch=1 n=g5 v=0
1634390 Par ch=1 c=64 v=127
1634620 On ch=1 n=a#5 v=0
1634635 On ch=1 n=c6 v=0
1634655 Par ch=1 c=64 v=88
1634665 On ch=1 n=c4 v=71
1634675 Par ch=1 c=64 v=72
1634690 Par ch=1 c=64 v=56
1634695 On ch=1 n=c4 v=0
1634695 On ch=1 n=d6 v=78
1634705 Par ch=1 c=64 v=40
1634725 Par ch=1 c=64 v=24
1634755 Par ch=1 c=64 v=0
1634765 On ch=1 n=d6 v=0
1634815 On ch=1 n=e6 v=87
1634825 On ch=1 n=a#5 v=60
1634835 On ch=1 n=e5 v=65
1634845 On ch=1 n=g5 v=31
1634865 On ch=1 n=e5 v=0
1634870 On ch=1 n=a#5 v=0
1634885 On ch=1 n=g5 v=0
1634915 On ch=1 n=e6 v=0
1635045 Par ch=1 c=64 v=40
1635050 On ch=1 n=e5 v=69
1635055 On ch=1 n=e6 v=84
1635055 On ch=1 n=g5 v=62
1635055 On ch=1 n=a#5 v=58
1635060 Par ch=1 c=64 v=104
1635075 Par ch=1 c=64 v=127
1635080 On ch=1 n=e5 v=0
1635085 On ch=1 n=g5 v=0
1635150 On ch=1 n=a#5 v=0
1635315 On ch=1 n=e6 v=0
1635360 On ch=1 n=c4 v=65
1635390 On ch=1 n=c4 v=0
1635395 Par ch=1 c=64 v=88
1635400 On ch=1 n=f6 v=77
1635410 Par ch=1 c=64 v=72
1635430 Par ch=1 c=64 v=56
1635445 Par ch=1 c=64 v=40
1635460 Par ch=1 c=64 v=24
1635465 On ch=1 n=f6 v=0
1635480 Par ch=1 c=64 v=0
1635500 On ch=1 n=c6 v=86
1635510 On ch=1 n=c5 v=74
1635510 On ch=1 n=a5 v=62
1635520 On ch=1 n=f5 v=43
1635550 On ch=1 n=c5 v=0
1635555 On ch=1 n=a5 v=0
1635560 On ch=1 n=f5 v=0
1635590 On ch=1 n=c6 v=0
1635765 Par ch=1 c=64 v=40
1635770 On ch=1 n=c6 v=83
1635770 On ch=1 n=c5 v=70
1635770 On ch=1 n=f5 v=56
1635780 On ch=1 n=a5 v=56
1635780 Par ch=1 c=64 v=88
1635800 On ch=1 n=c5 v=0
1635800 Par ch=1 c=64 v=127
1635805 On ch=1 n=f5 v=0
1635855 On ch=1 n=c6 v=0
1635905 On ch=1 n=a5 v=0
1636090 On ch=1 n=c4 v=75
1636120 On ch=1 n=c4 v=0
1636130 On ch=1 n=c6 v=88
1636135 Par ch=1 c=64 v=104
1636150 Par ch=1 c=64 v=88
1636155 On ch=1 n=a5 v=42
1636170 Par ch=1 c=64 v=72
1636185 Par ch=1 c=64 v=56
1636190 On ch=1 n=a5 v=0
1636190 On ch=1 n=c6 v=0
1636200 Par ch=1 c=64 v=40
1636220 Par ch=1 c=64 v=24
1636235 On ch=1 n=c#6 v=93
1636235 Par ch=1 c=64 v=0
1636245 On ch=1 n=c5 v=73
1636250 On ch=1 n=g#5 v=83
1636250 On ch=1 n=f5 v=64
1636275 On ch=1 n=c5 v=0
1636285 On ch=1 n=f5 v=0
1636315 On ch=1 n=g#5 v=0
1636330 On ch=1 n=c#6 v=0
1636515 On ch=1 n=c#6 v=81
1636515 On ch=1 n=f5 v=69
1636525 On ch=1 n=b4 v=67
1636525 On ch=1 n=g#5 v=61
1636530 On ch=1 n=c#5 v=61
1636555 On ch=1 n=b4 v=0
1636570 On ch=1 n=f5 v=0
1636570 Par ch=1 c=64 v=72
1636585 Par ch=1 c=64 v=127
1636595 On ch=1 n=c#5 v=0
1636620 On ch=1 n=g#5 v=0
1636695 On ch=1 n=c#6 v=0
1636815 On ch=1 n=b3 v=73
1636855 Par ch=1 c=64 v=88
1636860 On ch=1 n=b3 v=0
1636870 On ch=1 n=c#5 v=73
1636875 On ch=1 n=c#6 v=62
1636875 Par ch=1 c=64 v=72
1636885 On ch=1 n=g#5 v=44
1636890 Par ch=1 c=64 v=56
1636900 On ch=1 n=c#5 v=0
1636905 On ch=1 n=c#6 v=0
1636905 Par ch=1 c=64 v=24
1636910 On ch=1 n=g#5 v=0
1636940 Par ch=1 c=64 v=0
1636965 On ch=1 n=c#6 v=78
1636965 On ch=1 n=g#5 v=55
1636970 On ch=1 n=c#5 v=76
1636990 On ch=1 n=b4 v=67
1636995 On ch=1 n=f5 v=51
1637020 On ch=1 n=b4 v=0
1637030 On ch=1 n=c#5 v=0
1637035 On ch=1 n=f5 v=0
1637040 On ch=1 n=g#5 v=0
1637065 On ch=1 n=c#6 v=0
1637220 On ch=1 n=f5 v=67
1637225 On ch=1 n=c#6 v=83
1637225 On ch=1 n=b4 v=63
1637225 Par ch=1 c=64 v=24
1637235 On ch=1 n=c#5 v=75
1637240 Par ch=1 c=64 v=88
1637250 On ch=1 n=g#5 v=33
1637255 On ch=1 n=b4 v=0
1637255 On ch=1 n=f5 v=0
1637260 Par ch=1 c=64 v=127
1637275 On ch=1 n=c#5 v=0
1637280 On ch=1 n=g#5 v=0
1637320 On ch=1 n=c#6 v=0
1637535 On ch=1 n=b3 v=76
1637550 On ch=1 n=d#5 v=67
1637555 On ch=1 n=d#6 v=80
1637570 On ch=1 n=b3 v=0
1637595 Par ch=1 c=64 v=104
1637605 On ch=1 n=d#5 v=0
1637610 Par ch=1 c=64 v=72
1637615 On ch=1 n=d#6 v=0
1637630 Par ch=1 c=64 v=56
1637645 Par ch=1 c=64 v=24
1637665 Par ch=1 c=64 v=0
1637670 On ch=1 n=f6 v=96
1637670 On ch=1 n=c#6 v=77
1637670 On ch=1 n=f5 v=83
1637680 On ch=1 n=c#5 v=67
1637690 On ch=1 n=g#4 v=51
1637720 On ch=1 n=g#4 v=0
1637725 On ch=1 n=f5 v=0
1637730 On ch=1 n=c#5 v=0
1637735 On ch=1 n=c#6 v=0
1637760 On ch=1 n=f6 v=0
1637935 On ch=1 n=f6 v=90
1637940 On ch=1 n=c#6 v=69
1637945 On ch=1 n=f5 v=77
1637945 On ch=1 n=c#5 v=65
1637950 On ch=1 n=g#4 v=69
1637950 Par ch=1 c=64 v=56
1637960 Par ch=1 c=64 v=127
1638000 On ch=1 n=f5 v=0
1638020 On ch=1 n=g#4 v=0
1638040 On ch=1 n=f6 v=0
1638050 On ch=1 n=c#6 v=0
1638065 On ch=1 n=c#5 v=0
1638245 On ch=1 n=a#3 v=61
1638275 On ch=1 n=f#6 v=85
1638285 On ch=1 n=f#5 v=55
1638300 Par ch=1 c=64 v=104
1638315 On ch=1 n=f#5 v=0
1638315 On ch=1 n=a#3 v=0
1638315 Par ch=1 c=64 v=88
1638330 On ch=1 n=f#6 v=0
1638330 Par ch=1 c=64 v=56
1638350 Par ch=1 c=64 v=40
1638365 Par ch=1 c=64 v=24
1638370 On ch=1 n=f#5 v=56
1638380 On ch=1 n=c#6 v=88
1638380 On ch=1 n=c#5 v=67
1638385 On ch=1 n=f#4 v=67
1638385 Par ch=1 c=64 v=0
1638415 On ch=1 n=f#4 v=0
1638435 On ch=1 n=c#5 v=0
1638460 On ch=1 n=f#5 v=0
1638480 On ch=1 n=c#6 v=0
1638635 Par ch=1 c=64 v=40
1638640 On ch=1 n=c#6 v=89
1638640 On ch=1 n=f#5 v=74
1638650 On ch=1 n=c#5 v=77
1638650 Par ch=1 c=64 v=104
1638655 On ch=1 n=f#4 v=78
1638670 Par ch=1 c=64 v=127
1638720 On ch=1 n=f#4 v=0
1638720 On ch=1 n=c#5 v=0
1638820 On ch=1 n=f#5 v=0
1638830 On ch=1 n=c#6 v=0
1638975 On ch=1 n=a#3 v=68
1638980 On ch=1 n=f#5 v=71
1638990 On ch=1 n=c#6 v=74
1639020 On ch=1 n=c#6 v=0
1639030 On ch=1 n=f#5 v=0
1639040 Par ch=1 c=64 v=104
1639050 On ch=1 n=a#3 v=0
1639055 Par ch=1 c=64 v=72
1639070 Par ch=1 c=64 v=56
1639080 On ch=1 n=d#6 v=92
1639085 On ch=1 n=c#6 v=75
1639085 Par ch=1 c=64 v=40
1639090 On ch=1 n=g5 v=83
1639105 On ch=1 n=d#4 v=69
1639105 On ch=1 n=c#5 v=61
1639105 Par ch=1 c=64 v=24
1639120 Par ch=1 c=64 v=0
1639145 On ch=1 n=g5 v=0
1639145 On ch=1 n=c#6 v=0
1639160 On ch=1 n=c#5 v=0
1639160 On ch=1 n=d#4 v=0
1639190 On ch=1 n=d#6 v=0
1639365 On ch=1 n=d#6 v=97
1639375 On ch=1 n=g5 v=83
1639375 On ch=1 n=c#6 v=81
1639375 On ch=1 n=c#5 v=82
1639375 Par ch=1 c=64 v=56
1639385 On ch=1 n=d#4 v=85
1639390 Par ch=1 c=64 v=127
1639435 On ch=1 n=g5 v=0
1639460 On ch=1 n=c#5 v=0
1639575 On ch=1 n=c#6 v=0
1639575 On ch=1 n=d#6 v=0
1639590 On ch=1 n=d#4 v=0
1639695 On ch=1 n=a#3 v=74
1639705 On ch=1 n=d#6 v=81
1639710 On ch=1 n=c#6 v=69
1639715 On ch=1 n=g5 v=70
1639740 On ch=1 n=c#6 v=0
1639745 On ch=1 n=g5 v=0
1639750 On ch=1 n=a#3 v=0
1639760 On ch=1 n=d#6 v=0
1639795 Par ch=1 c=64 v=88
1639810 Par ch=1 c=64 v=24
1639815 On ch=1 n=d#6 v=92
1639815 On ch=1 n=c#6 v=79
1639820 On ch=1 n=g5 v=79
1639825 Par ch=1 c=64 v=0
1639835 On ch=1 n=d#4 v=75
1639840 On ch=1 n=c#5 v=69
1639905 On ch=1 n=g5 v=0
1639910 On ch=1 n=c#5 v=0
1639915 Par ch=1 c=64 v=72
1639930 On ch=1 n=d#4 v=0
1639930 On ch=1 n=c#6 v=0
1639930 Par ch=1 c=64 v=127
1639940 On ch=1 n=d#6 v=0
1639995 Par ch=1 c=64 v=88
1640015 Par ch=1 c=64 v=24
1640030 Par ch=1 c=64 v=0
1640050 On ch=1 n=d#6 v=93
1640065 On ch=1 n=c#5 v=80
1640065 On ch=1 n=g5 v=82
1640065 On ch=1 n=c#6 v=76
1640065 On ch=1 n=d#4 v=85
1640080 Par ch=1 c=64 v=24
1640095 Par ch=1 c=64 v=104
1640115 On ch=1 n=c#5 v=0
1640115 Par ch=1 c=64 v=127
1640145 On ch=1 n=d#4 v=0
1640215 On ch=1 n=d#6 v=0
1640230 On ch=1 n=g5 v=0
1640235 On ch=1 n=c#6 v=0
1640280 On ch=1 n=f6 v=88
1640365 Par ch=1 c=64 v=88
1640380 Par ch=1 c=64 v=72
1640400 On ch=1 n=d#4 v=99
1640400 On ch=1 n=d#3 v=79
1640400 Par ch=1 c=64 v=56
1640415 Par ch=1 c=64 v=40
1640420 On ch=1 n=f6 v=0
1640430 Par ch=1 c=64 v=24
1640445 On ch=1 n=d#4 v=0
1640450 On ch=1 n=d#3 v=0
1640450 Par ch=1 c=64 v=0
1640475 On ch=1 n=g6 v=94
1640485 On ch=1 n=g5 v=77
1640495 On ch=1 n=d#6 v=70
1640505 On ch=1 n=d#3 v=42
1640505 On ch=1 n=d#4 v=80
1640570 On ch=1 n=d#4 v=0
1640570 On ch=1 n=d#3 v=0
1640570 On ch=1 n=g5 v=0
1640575 On ch=1 n=d#6 v=0
1640600 On ch=1 n=g6 v=0
1640730 On ch=1 n=g6 v=92
1640735 On ch=1 n=g5 v=80
1640735 On ch=1 n=d#6 v=75
1640745 On ch=1 n=d#4 v=100
1640745 On ch=1 n=d#3 v=83
1640785 Par ch=1 c=64 v=104
1640795 On ch=1 n=d#3 v=0
1640795 On ch=1 n=d#4 v=0
1640800 Par ch=1 c=64 v=127
1640825 On ch=1 n=g5 v=0
1640840 On ch=1 n=g6 v=0
1640940 On ch=1 n=d#6 v=0
1640990 On ch=1 n=g#6 v=89
1641030 On ch=1 n=g#5 v=46
1641070 On ch=1 n=g#5 v=0
1641070 Par ch=1 c=64 v=88
1641085 Par ch=1 c=64 v=56
1641090 On ch=1 n=g#4 v=85
1641090 On ch=1 n=g#3 v=78
1641105 Par ch=1 c=64 v=40
1641115 On ch=1 n=g#6 v=0
1641120 Par ch=1 c=64 v=24
1641140 On ch=1 n=g#4 v=0
1641140 Par ch=1 c=64 v=0
1641150 On ch=1 n=g#3 v=0
1641195 On ch=1 n=d#6 v=85
1641200 On ch=1 n=g#5 v=71
1641210 On ch=1 n=c6 v=79
1641220 On ch=1 n=g#4 v=71
1641220 On ch=1 n=g#3 v=61
1641240 On ch=1 n=c6 v=0
1641285 On ch=1 n=g#3 v=0
1641285 On ch=1 n=g#4 v=0
1641285 On ch=1 n=g#5 v=0
1641330 On ch=1 n=d#6 v=0
1641455 On ch=1 n=d#6 v=81
1641460 On ch=1 n=g#3 v=83
1641470 On ch=1 n=g#5 v=60
1641470 On ch=1 n=g#4 v=78
1641470 On ch=1 n=c6 v=74
1641475 Par ch=1 c=64 v=40
1641490 Par ch=1 c=64 v=104
1641505 Par ch=1 c=64 v=127
1641525 On ch=1 n=g#4 v=0
1641530 On ch=1 n=g#3 v=0
1641635 On ch=1 n=g#5 v=0
1641675 On ch=1 n=a#3 v=82
1641675 On ch=1 n=a#4 v=83
1641715 On ch=1 n=d#6 v=0
1641725 Par ch=1 c=64 v=88
1641730 On ch=1 n=a#4 v=0
1641740 On ch=1 n=a#3 v=0
1641740 Par ch=1 c=64 v=72
1641750 On ch=1 n=c6 v=0
1641755 Par ch=1 c=64 v=40
1641775 Par ch=1 c=64 v=24
1641810 Par ch=1 c=64 v=0
1641895 On ch=1 n=d#6 v=80
1641905 On ch=1 n=c5 v=82
1641910 On ch=1 n=c4 v=88
1641910 On ch=1 n=g#5 v=69
1641970 On ch=1 n=c5 v=0
1641975 On ch=1 n=c4 v=0
1642010 On ch=1 n=g#5 v=0
1642030 On ch=1 n=d#6 v=0
1642155 On ch=1 n=d#6 v=84
1642155 On ch=1 n=g#5 v=75
1642160 On ch=1 n=c5 v=87
1642170 On ch=1 n=c4 v=92
1642170 On ch=1 n=c#6 v=56
1642180 Par ch=1 c=64 v=40
1642195 Par ch=1 c=64 v=104
1642200 On ch=1 n=c#6 v=0
1642210 Par ch=1 c=64 v=127
1642250 On ch=1 n=c4 v=0
1642260 On ch=1 n=c5 v=0
1642370 On ch=1 n=d#6 v=0
1642395 On ch=1 n=f6 v=89
1642465 Par ch=1 c=64 v=104
1642480 On ch=1 n=g#5 v=0
1642480 Par ch=1 c=64 v=88
1642495 Par ch=1 c=64 v=72
1642500 On ch=1 n=a#4 v=83
1642500 On ch=1 n=a#3 v=87
1642515 Par ch=1 c=64 v=56
1642530 Par ch=1 c=64 v=40
1642535 On ch=1 n=f6 v=0
1642545 Par ch=1 c=64 v=24
1642555 On ch=1 n=a#3 v=0
1642555 On ch=1 n=a#4 v=0
1642565 Par ch=1 c=64 v=0
1642585 On ch=1 n=d#6 v=87
1642595 On ch=1 n=c#6 v=76
1642600 On ch=1 n=g5 v=73
1642620 On ch=1 n=a#4 v=74
1642620 On ch=1 n=a#3 v=64
1642665 On ch=1 n=g5 v=0
1642675 On ch=1 n=a#3 v=0
1642680 On ch=1 n=a#4 v=0
1642710 On ch=1 n=c#6 v=0
1642710 On ch=1 n=d#6 v=0
1642860 On ch=1 n=d#6 v=85
1642870 On ch=1 n=a#4 v=89
1642875 On ch=1 n=a#3 v=87
1642880 On ch=1 n=g5 v=74
1642885 On ch=1 n=c#6 v=61
1642885 Par ch=1 c=64 v=72
1642900 Par ch=1 c=64 v=127
1642940 On ch=1 n=a#3 v=0
1642940 On ch=1 n=a#4 v=0
1643020 On ch=1 n=c#6 v=0
1643045 On ch=1 n=d#6 v=0
1643080 On ch=1 n=g5 v=0
1643090 On ch=1 n=f6 v=84
1643120 Par ch=1 c=64 v=104
1643135 Par ch=1 c=64 v=72
1643150 Par ch=1 c=64 v=56
1643170 Par ch=1 c=64 v=40
1643185 Par ch=1 c=64 v=24
1643210 On ch=1 n=f6 v=0
1643220 Par ch=1 c=64 v=0
1643315 On ch=1 n=g6 v=92
1643320 On ch=1 n=c#6 v=73
1643320 On ch=1 n=g5 v=77
1643340 On ch=1 n=a#3 v=84
1643345 On ch=1 n=a#4 v=82
1643390 On ch=1 n=g5 v=0
1643405 On ch=1 n=a#3 v=0
1643410 On ch=1 n=a#4 v=0
1643430 On ch=1 n=g6 v=0
1643445 On ch=1 n=c#6 v=0
1643570 On ch=1 n=g6 v=93
1643575 On ch=1 n=g5 v=82
1643580 On ch=1 n=d#6 v=76
1643590 On ch=1 n=c5 v=86
1643590 Par ch=1 c=64 v=72
1643595 On ch=1 n=c4 v=82
1643605 Par ch=1 c=64 v=127
1643650 On ch=1 n=g5 v=0
1643670 On ch=1 n=g6 v=0
1643710 On ch=1 n=c4 v=0
1643750 On ch=1 n=c5 v=0
1643765 On ch=1 n=d#6 v=0
1643825 On ch=1 n=g#6 v=84
1643840 On ch=1 n=g#5 v=69
1643910 On ch=1 n=c#4 v=76
1643915 On ch=1 n=g#5 v=0
1643915 On ch=1 n=c#5 v=80
1643940 On ch=1 n=g#6 v=0
1643940 Par ch=1 c=64 v=88
1643960 Par ch=1 c=64 v=72
1643970 On ch=1 n=c#5 v=0
1643970 On ch=1 n=c#4 v=0
1643975 Par ch=1 c=64 v=40
1643990 Par ch=1 c=64 v=24
1644010 Par ch=1 c=64 v=0
1644020 On ch=1 n=d#6 v=80
1644025 On ch=1 n=g#5 v=65
1644045 On ch=1 n=d#5 v=85
1644045 On ch=1 n=c6 v=64
1644045 On ch=1 n=d#4 v=83
1644070 On ch=1 n=c6 v=0
1644100 On ch=1 n=d#4 v=0
1644100 On ch=1 n=d#5 v=0
1644100 On ch=1 n=g#5 v=0
1644140 On ch=1 n=d#6 v=0
1644270 On ch=1 n=d#6 v=79
1644275 On ch=1 n=d#5 v=90
1644275 Par ch=1 c=64 v=24
1644280 On ch=1 n=d#4 v=83
1644280 On ch=1 n=g#5 v=57
1644285 On ch=1 n=c6 v=73
1644295 Par ch=1 c=64 v=88
1644310 Par ch=1 c=64 v=127
1644335 On ch=1 n=d#5 v=0
1644345 On ch=1 n=d#4 v=0
1644430 On ch=1 n=g#5 v=0
1644495 On ch=1 n=c#5 v=85
1644505 On ch=1 n=c#4 v=76
1644515 On ch=1 n=d#6 v=0
1644545 Par ch=1 c=64 v=104
1644560 Par ch=1 c=64 v=72
1644565 On ch=1 n=c#5 v=0
1644580 On ch=1 n=c#4 v=0
1644580 Par ch=1 c=64 v=56
1644590 On ch=1 n=c6 v=0
1644595 Par ch=1 c=64 v=40
1644630 Par ch=1 c=64 v=24
1644680 Par ch=1 c=64 v=0
1644725 On ch=1 n=d#6 v=76
1644725 On ch=1 n=c5 v=86
1644735 On ch=1 n=c4 v=86
1644740 On ch=1 n=g#5 v=51
1644795 On ch=1 n=c4 v=0
1644795 On ch=1 n=c5 v=0
1644845 On ch=1 n=g#5 v=0
1644845 On ch=1 n=d#6 v=0
1644970 On ch=1 n=c5 v=92
1644970 On ch=1 n=d#6 v=78
1644975 On ch=1 n=c4 v=93
1644980 On ch=1 n=g5 v=71
1644985 Par ch=1 c=64 v=56
1644995 On ch=1 n=c#6 v=57
1644995 Par ch=1 c=64 v=127
1645055 On ch=1 n=c4 v=0
1645055 On ch=1 n=c5 v=0
1645135 On ch=1 n=g5 v=0
1645185 On ch=1 n=a#4 v=80
1645190 On ch=1 n=a#3 v=78
1645230 On ch=1 n=c#6 v=0
1645235 On ch=1 n=d#6 v=0
1645235 Par ch=1 c=64 v=104
1645250 Par ch=1 c=64 v=88
1645255 On ch=1 n=a#4 v=0
1645260 On ch=1 n=a#3 v=0
1645265 Par ch=1 c=64 v=56
1645285 Par ch=1 c=64 v=40
1645295 On ch=1 n=f6 v=87
1645315 Par ch=1 c=64 v=24
1645350 Par ch=1 c=64 v=0
1645370 On ch=1 n=f6 v=0
1645410 On ch=1 n=d#6 v=86
1645415 On ch=1 n=a#4 v=85
1645420 On ch=1 n=a#3 v=80
1645425 On ch=1 n=g5 v=67
1645430 On ch=1 n=c#6 v=63
1645485 On ch=1 n=a#3 v=0
1645485 On ch=1 n=a#4 v=0
1645500 On ch=1 n=g5 v=0
1645530 On ch=1 n=c#6 v=0
1645540 On ch=1 n=d#6 v=0
1645635 Par ch=1 c=64 v=24
1645645 On ch=1 n=d#6 v=80
1645650 Par ch=1 c=64 v=88
1645660 On ch=1 n=a#4 v=78
1645660 On ch=1 n=g5 v=70
1645665 On ch=1 n=a#3 v=80
1645665 On ch=1 n=c#6 v=67
1645670 Par ch=1 c=64 v=127
1645715 On ch=1 n=a#3 v=0
1645715 On ch=1 n=a#4 v=0
1645820 On ch=1 n=d#4 v=35
1645850 On ch=1 n=c#6 v=0
1645855 On ch=1 n=d#4 v=0
1645855 On ch=1 n=g5 v=0
1645860 On ch=1 n=d#6 v=0
1645880 On ch=1 n=f6 v=86
1645890 On ch=1 n=d#3 v=73
1645890 On ch=1 n=d#4 v=49
1645920 Par ch=1 c=64 v=88
1645940 Par ch=1 c=64 v=72
1645945 On ch=1 n=d#3 v=0
1645950 On ch=1 n=d#4 v=0
1645955 Par ch=1 c=64 v=56
1645970 Par ch=1 c=64 v=40
1646005 On ch=1 n=f6 v=0
1646005 Par ch=1 c=64 v=24
1646055 Par ch=1 c=64 v=0
1646110 On ch=1 n=g6 v=87
1646110 On ch=1 n=d#6 v=71
1646115 On ch=1 n=g5 v=72
1646125 On ch=1 n=d#5 v=48
1646130 On ch=1 n=c5 v=62
1646165 On ch=1 n=c5 v=0
1646185 On ch=1 n=d#5 v=0
1646190 On ch=1 n=g5 v=0
1646210 On ch=1 n=d#6 v=0
1646215 On ch=1 n=g6 v=0
1646330 On ch=1 n=d#5 v=69
1646340 Par ch=1 c=64 v=72
1646345 On ch=1 n=c5 v=64
1646350 On ch=1 n=g6 v=83
1646355 On ch=1 n=d#6 v=72
1646360 On ch=1 n=g5 v=70
1646360 Par ch=1 c=64 v=127
1646370 On ch=1 n=c5 v=0
1646395 On ch=1 n=g5 v=0
1646395 On ch=1 n=d#5 v=0
1646430 On ch=1 n=g6 v=0
1646485 On ch=1 n=d#6 v=0
1646575 On ch=1 n=d#3 v=58
1646580 On ch=1 n=d#4 v=60
1646585 On ch=1 n=g#6 v=79
1646590 On ch=1 n=g#5 v=70
1646590 On ch=1 n=d#6 v=73
1646625 On ch=1 n=d#4 v=0
1646630 On ch=1 n=d#3 v=0
1646645 Par ch=1 c=64 v=88
1646665 On ch=1 n=g#5 v=0
1646680 Par ch=1 c=64 v=72
1646690 On ch=1 n=g#6 v=0
1646695 On ch=1 n=d#6 v=0
1646695 Par ch=1 c=64 v=56
1646725 Par ch=1 c=64 v=40
1646745 Par ch=1 c=64 v=24
1646810 On ch=1 n=d#5 v=49
1646810 Par ch=1 c=64 v=0
1646815 On ch=1 n=g#6 v=91
1646815 On ch=1 n=g#5 v=77
1646820 On ch=1 n=c5 v=57
1646825 On ch=1 n=d#6 v=72
1646865 On ch=1 n=c5 v=0
1646870 On ch=1 n=d#5 v=0
1646895 On ch=1 n=g#5 v=0
1646910 On ch=1 n=d#6 v=0
1646920 On ch=1 n=g#6 v=0
1647015 On ch=1 n=d#5 v=62
1647030 On ch=1 n=c5 v=59
1647030 Par ch=1 c=64 v=56
1647035 On ch=1 n=g#5 v=81
1647035 On ch=1 n=g#6 v=92
1647040 On ch=1 n=d#6 v=78
1647045 Par ch=1 c=64 v=127
1647055 On ch=1 n=c5 v=0
1647060 On ch=1 n=d#5 v=0
1647090 On ch=1 n=g#5 v=0
1647115 On ch=1 n=d#6 v=0
1647120 On ch=1 n=g#6 v=0
1647265 On ch=1 n=g6 v=90
1647265 On ch=1 n=a#6 v=89
1647265 On ch=1 n=d#3 v=64
1647265 On ch=1 n=a#5 v=85
1647270 On ch=1 n=d#4 v=62
1647320 On ch=1 n=d#4 v=0
1647320 On ch=1 n=d#3 v=0
1647325 On ch=1 n=a#5 v=0
1647330 Par ch=1 c=64 v=104
1647345 On ch=1 n=g6 v=0
1647350 Par ch=1 c=64 v=88
1647385 On ch=1 n=a#6 v=0
1647385 Par ch=1 c=64 v=72
1647435 Par ch=1 c=64 v=56
1647485 On ch=1 n=g#5 v=77
1647485 Par ch=1 c=64 v=40
1647495 On ch=1 n=d#5 v=64
1647500 On ch=1 n=c7 v=90
1647500 On ch=1 n=g#6 v=83
1647500 On ch=1 n=c6 v=88
1647500 Par ch=1 c=64 v=24
1647535 On ch=1 n=d#5 v=0
1647545 On ch=1 n=g#5 v=0
1647550 Par ch=1 c=64 v=0
1647565 On ch=1 n=c6 v=0
1647595 On ch=1 n=g#6 v=0
1647595 On ch=1 n=c7 v=0
1647725 On ch=1 n=g#5 v=75
1647735 On ch=1 n=c7 v=94
1647735 On ch=1 n=g#6 v=82
1647735 Par ch=1 c=64 v=56
1647740 On ch=1 n=d#5 v=61
1647745 On ch=1 n=c6 v=88
1647755 Par ch=1 c=64 v=127
1647765 On ch=1 n=d#5 v=0
1647775 On ch=1 n=g#5 v=0
1647805 On ch=1 n=c6 v=0
1647845 On ch=1 n=c7 v=0
1647855 On ch=1 n=g#6 v=0
1647975 On ch=1 n=d#3 v=60
1647980 On ch=1 n=a#6 v=85
1647980 On ch=1 n=d#4 v=68
1647985 On ch=1 n=g6 v=83
1647985 On ch=1 n=a#5 v=77
1648015 On ch=1 n=d#3 v=0
1648020 Par ch=1 c=64 v=88
1648025 On ch=1 n=d#4 v=0
1648035 Par ch=1 c=64 v=72
1648050 Par ch=1 c=64 v=56
1648070 On ch=1 n=a#5 v=0
1648085 On ch=1 n=a#6 v=0
1648090 Par ch=1 c=64 v=40
1648105 On ch=1 n=g6 v=0
1648105 Par ch=1 c=64 v=24
1648120 Par ch=1 c=64 v=0
1648205 On ch=1 n=g5 v=67
1648205 On ch=1 n=d#5 v=60
1648220 On ch=1 n=a#6 v=85
1648220 On ch=1 n=a#5 v=81
1648220 On ch=1 n=g6 v=79
1648265 On ch=1 n=g5 v=0
1648270 On ch=1 n=d#5 v=0
1648305 On ch=1 n=a#5 v=0
1648330 On ch=1 n=g6 v=0
1648330 On ch=1 n=a#6 v=0
1648440 Par ch=1 c=64 v=24
1648450 On ch=1 n=d#5 v=77
1648455 On ch=1 n=a#6 v=85
1648455 On ch=1 n=g5 v=69
1648455 Par ch=1 c=64 v=88
1648460 On ch=1 n=a#5 v=85
1648460 On ch=1 n=g6 v=82
1648470 Par ch=1 c=64 v=127
1648480 On ch=1 n=g5 v=0
1648480 On ch=1 n=d#5 v=0
1648560 On ch=1 n=a#5 v=0
1648575 On ch=1 n=a#6 v=0
1648610 On ch=1 n=g6 v=0
1648685 On ch=1 n=d#3 v=71
1648690 On ch=1 n=d#4 v=70
1648695 On ch=1 n=a#6 v=85
1648700 On ch=1 n=a#5 v=82
1648700 On ch=1 n=g6 v=73
1648720 On ch=1 n=d#4 v=0
1648720 On ch=1 n=d#3 v=0
1648740 Par ch=1 c=64 v=104
1648760 Par ch=1 c=64 v=88
1648775 Par ch=1 c=64 v=72
1648790 On ch=1 n=a#5 v=0
1648790 Par ch=1 c=64 v=56
1648795 On ch=1 n=a#6 v=0
1648825 Par ch=1 c=64 v=40
1648830 On ch=1 n=g6 v=0
1648890 Par ch=1 c=64 v=0
1648910 On ch=1 n=a#6 v=88
1648915 On ch=1 n=a#5 v=85
1648915 On ch=1 n=d#5 v=65
1648915 On ch=1 n=g6 v=61
1648915 On ch=1 n=g5 v=70
1648965 On ch=1 n=g6 v=0
1648970 On ch=1 n=g5 v=0
1648970 On ch=1 n=d#5 v=0
1648980 On ch=1 n=a#5 v=0
1649065 On ch=1 n=a#6 v=0
1649145 On ch=1 n=g#5 v=85
1649150 On ch=1 n=c7 v=97
1649150 On ch=1 n=g#6 v=83
1649155 On ch=1 n=c6 v=90
1649155 On ch=1 n=d#5 v=77
1649160 Par ch=1 c=64 v=56
1649180 Par ch=1 c=64 v=127
1649210 On ch=1 n=c6 v=0
1649210 On ch=1 n=g#5 v=0
1649215 On ch=1 n=d#5 v=0
1649250 On ch=1 n=c7 v=0
1649260 On ch=1 n=g#6 v=0
1649385 On ch=1 n=c#7 v=91
1649390 On ch=1 n=c#6 v=89
1649390 On ch=1 n=d#3 v=74
1649395 On ch=1 n=d#4 v=80
1649400 On ch=1 n=a#6 v=69
1649420 On ch=1 n=d#3 v=0
1649425 On ch=1 n=d#4 v=0
1649445 On ch=1 n=c#6 v=0
1649450 Par ch=1 c=64 v=104
1649465 Par ch=1 c=64 v=88
1649475 On ch=1 n=a#6 v=0
1649475 On ch=1 n=c#7 v=0
1649480 Par ch=1 c=64 v=72
1649530 Par ch=1 c=64 v=56
1649580 Par ch=1 c=64 v=40
1649615 Par ch=1 c=64 v=24
1649620 On ch=1 n=g#5 v=78
1649620 On ch=1 n=d#7 v=93
1649620 On ch=1 n=c7 v=88
1649625 On ch=1 n=d#5 v=75
1649625 On ch=1 n=d#6 v=90
1649665 Par ch=1 c=64 v=0
1649680 On ch=1 n=g#5 v=0
1649685 On ch=1 n=d#5 v=0
1649720 On ch=1 n=d#6 v=0
1649735 On ch=1 n=c7 v=0
1649750 On ch=1 n=d#7 v=0
1649845 On ch=1 n=g#5 v=78
1649850 On ch=1 n=d#7 v=91
1649855 On ch=1 n=d#5 v=79
1649855 On ch=1 n=c7 v=86
1649860 On ch=1 n=d#6 v=90
1649885 Par ch=1 c=64 v=127
1649905 On ch=1 n=g#5 v=0
1649910 On ch=1 n=d#5 v=0
1649945 On ch=1 n=c7 v=0
1649950 On ch=1 n=d#6 v=0
1649970 On ch=1 n=d#7 v=0
1650075 On ch=1 n=d#4 v=65
1650075 On ch=1 n=c#7 v=89
1650075 On ch=1 n=d#3 v=74
1650085 On ch=1 n=a#6 v=78
1650085 On ch=1 n=c#6 v=89
1650120 Par ch=1 c=64 v=88
1650125 On ch=1 n=d#3 v=0
1650125 On ch=1 n=d#4 v=0
1650135 Par ch=1 c=64 v=56
1650145 On ch=1 n=c#6 v=0
1650155 Par ch=1 c=64 v=40
1650170 Par ch=1 c=64 v=0
1650185 On ch=1 n=a#6 v=0
1650185 On ch=1 n=c#7 v=0
1650305 On ch=1 n=g#5 v=75
1650315 On ch=1 n=c7 v=89
1650315 On ch=1 n=d#5 v=65
1650320 On ch=1 n=g#6 v=80
1650320 On ch=1 n=c6 v=85
1650350 On ch=1 n=d#5 v=0
1650365 On ch=1 n=g#5 v=0
1650375 On ch=1 n=c6 v=0
1650390 On ch=1 n=g#6 v=0
1650400 On ch=1 n=c7 v=0
1650535 On ch=1 n=g#5 v=80
1650540 On ch=1 n=c7 v=97
1650540 On ch=1 n=d#5 v=72
1650540 Par ch=1 c=64 v=72
1650545 On ch=1 n=c6 v=94
1650545 On ch=1 n=g#6 v=79
1650555 Par ch=1 c=64 v=127
1650570 On ch=1 n=d#5 v=0
1650590 On ch=1 n=g#5 v=0
1650610 On ch=1 n=c6 v=0
1650650 On ch=1 n=c7 v=0
1650685 On ch=1 n=g#6 v=0
1650770 On ch=1 n=a#6 v=83
1650770 On ch=1 n=d#3 v=72
1650770 On ch=1 n=d#4 v=78
1650775 Par ch=1 c=64 v=88
1650780 On ch=1 n=a#5 v=79
1650785 On ch=1 n=g6 v=71
1650790 Par ch=1 c=64 v=56
1650800 On ch=1 n=d#4 v=0
1650800 On ch=1 n=d#3 v=0
1650810 Par ch=1 c=64 v=40
1650825 Par ch=1 c=64 v=24
1650840 Par ch=1 c=64 v=0
1650855 On ch=1 n=a#5 v=0
1650885 On ch=1 n=a#6 v=0
1650895 On ch=1 n=g6 v=0
1651010 On ch=1 n=a#6 v=80
1651015 On ch=1 n=a#5 v=81
1651015 On ch=1 n=g6 v=81
1651015 On ch=1 n=g5 v=66
1651020 On ch=1 n=d#5 v=47
1651060 On ch=1 n=d#5 v=0
1651075 On ch=1 n=g5 v=0
1651095 On ch=1 n=a#5 v=0
1651115 On ch=1 n=a#6 v=0
1651125 On ch=1 n=g6 v=0
1651235 On ch=1 n=a#5 v=75
1651235 On ch=1 n=a#6 v=80
1651240 On ch=1 n=g5 v=74
1651240 On ch=1 n=d#5 v=74
1651245 On ch=1 n=g6 v=66
1651245 Par ch=1 c=64 v=72
1651260 Par ch=1 c=64 v=104
1651270 On ch=1 n=g6 v=0
1651280 Par ch=1 c=64 v=127
1651305 On ch=1 n=g5 v=0
1651310 On ch=1 n=d#5 v=0
1651325 On ch=1 n=a#5 v=0
1651360 Par ch=1 c=64 v=88
1651370 On ch=1 n=a#6 v=0
1651380 Par ch=1 c=64 v=72
1651395 Par ch=1 c=64 v=56
1651430 Par ch=1 c=64 v=40
1651445 Par ch=1 c=64 v=24
1651475 On ch=1 n=b6 v=82
1651480 Par ch=1 c=64 v=0
1651485 On ch=1 n=f5 v=62
1651490 On ch=1 n=f6 v=67
1651490 On ch=1 n=b5 v=66
1651490 On ch=1 n=c#5 v=63
1651545 On ch=1 n=c#5 v=0
1651550 On ch=1 n=b5 v=0
1651550 On ch=1 n=f5 v=0
1651585 On ch=1 n=b6 v=0
1651595 On ch=1 n=f6 v=0
1651710 On ch=1 n=c7 v=82
1651720 On ch=1 n=e5 v=59
1651720 On ch=1 n=c6 v=69
1651740 On ch=1 n=e6 v=62
1651760 On ch=1 n=c5 v=51
1651775 On ch=1 n=e6 v=0
1651800 On ch=1 n=c6 v=0
1651820 On ch=1 n=c5 v=0
1651820 On ch=1 n=e5 v=0
1651825 On ch=1 n=c7 v=0
1651970 On ch=1 n=e5 v=62
1651975 On ch=1 n=c7 v=87
1651975 On ch=1 n=c5 v=51
1651980 On ch=1 n=c6 v=73
1651980 Par ch=1 c=64 v=72
1651985 On ch=1 n=e6 v=70
1652000 On ch=1 n=e5 v=0
1652000 Par ch=1 c=64 v=127
1652010 On ch=1 n=c5 v=0
1652015 On ch=1 n=e6 v=0
1652020 On ch=1 n=c6 v=0
1652065 On ch=1 n=c7 v=0
1652195 On ch=1 n=c4 v=66
1652230 On ch=1 n=c4 v=0
1652250 Par ch=1 c=64 v=104
1652265 Par ch=1 c=64 v=88
1652285 Par ch=1 c=64 v=72
1652300 Par ch=1 c=64 v=56
1652305 On ch=1 n=e7 v=88
1652305 Par ch=1 c=64 v=24
1652310 On ch=1 n=g6 v=82
1652310 On ch=1 n=e6 v=75
1652335 Par ch=1 c=64 v=0
1652350 On ch=1 n=e7 v=0
1652360 On ch=1 n=e6 v=0
1652360 On ch=1 n=g6 v=0
1652420 On ch=1 n=e7 v=82
1652425 On ch=1 n=g6 v=78
1652425 On ch=1 n=e6 v=76
1652440 On ch=1 n=g5 v=48
1652440 On ch=1 n=c#5 v=39
1652445 On ch=1 n=e5 v=46
1652475 On ch=1 n=e5 v=0
1652475 On ch=1 n=g5 v=0
1652485 On ch=1 n=c#5 v=0
1652495 On ch=1 n=e6 v=0
1652505 On ch=1 n=g6 v=0
1652520 On ch=1 n=e7 v=0
1652670 On ch=1 n=e7 v=94
1652670 On ch=1 n=g6 v=84
1652670 On ch=1 n=e6 v=81
1652670 On ch=1 n=e5 v=57
1652675 On ch=1 n=c#5 v=54
1652685 On ch=1 n=g5 v=51
1652685 Par ch=1 c=64 v=88
1652700 Par ch=1 c=64 v=127
1652710 On ch=1 n=g6 v=0
1652715 On ch=1 n=e6 v=0
1652730 On ch=1 n=g5 v=0
1652730 On ch=1 n=c#5 v=0
1652730 On ch=1 n=e5 v=0
1652735 On ch=1 n=e7 v=0
1652920 On ch=1 n=f7 v=96
1652920 On ch=1 n=g#6 v=82
1652920 On ch=1 n=c4 v=69
1652920 On ch=1 n=f6 v=82
1652945 On ch=1 n=c4 v=0
1652960 On ch=1 n=f6 v=0
1652960 On ch=1 n=g#6 v=0
1652975 On ch=1 n=f7 v=0
1652990 Par ch=1 c=64 v=88
1653005 Par ch=1 c=64 v=72
1653020 Par ch=1 c=64 v=56
1653035 Par ch=1 c=64 v=40
1653050 Par ch=1 c=64 v=24
1653060 Par ch=1 c=64 v=0
1653165 On ch=1 n=g7 v=99
1653170 On ch=1 n=a#6 v=79
1653175 On ch=1 n=g6 v=84
1653185 On ch=1 n=g5 v=53
1653190 On ch=1 n=e5 v=58
1653190 On ch=1 n=c#5 v=47
1653220 On ch=1 n=e5 v=0
1653220 On ch=1 n=g5 v=0
1653225 On ch=1 n=c#5 v=0
1653230 On ch=1 n=g6 v=0
1653245 On ch=1 n=a#6 v=0
1653265 On ch=1 n=g7 v=0
1653410 On ch=1 n=g7 v=100
1653415 On ch=1 n=g6 v=88
1653415 On ch=1 n=a#6 v=81
1653425 On ch=1 n=g5 v=60
1653425 On ch=1 n=c#5 v=55
1653430 On ch=1 n=e5 v=59
1653440 Par ch=1 c=64 v=72
1653455 On ch=1 n=e5 v=0
1653455 On ch=1 n=g5 v=0
1653455 Par ch=1 c=64 v=127
1653475 On ch=1 n=g6 v=0
1653480 On ch=1 n=c#5 v=0
1653490 On ch=1 n=a#6 v=0
1653495 On ch=1 n=g7 v=0
1653650 On ch=1 n=g#7 v=94
1653655 On ch=1 n=g#6 v=77
1653660 On ch=1 n=c4 v=70
1653665 On ch=1 n=c7 v=81
1653685 On ch=1 n=c7 v=0
1653685 On ch=1 n=c4 v=0
1653715 On ch=1 n=g#6 v=0
1653720 On ch=1 n=g#7 v=0
1653805 Par ch=1 c=64 v=88
1653820 Par ch=1 c=64 v=72
1653830 Par ch=1 c=64 v=56
1653845 Par ch=1 c=64 v=40
1653860 Par ch=1 c=64 v=24
1653875 Par ch=1 c=64 v=0
1653895 On ch=1 n=f7 v=93
1653895 On ch=1 n=g#6 v=73
1653900 On ch=1 n=f6 v=78
1653915 On ch=1 n=c5 v=56
1653920 On ch=1 n=f5 v=56
1653925 On ch=1 n=g#5 v=30
1653930 On ch=1 n=f6 v=0
1653945 On ch=1 n=g#6 v=0
1653955 On ch=1 n=g#5 v=0
1653955 On ch=1 n=c5 v=0
1653960 On ch=1 n=f5 v=0
1653965 On ch=1 n=f7 v=0
1654140 Par ch=1 c=64 v=24
1654145 On ch=1 n=g#6 v=81
1654145 On ch=1 n=f7 v=87
1654150 On ch=1 n=g#5 v=54
1654150 On ch=1 n=c5 v=50
1654150 On ch=1 n=f5 v=57
1654150 Par ch=1 c=64 v=127
1654155 On ch=1 n=f6 v=72
1654185 On ch=1 n=c5 v=0
1654190 On ch=1 n=f6 v=0
1654210 On ch=1 n=f5 v=0
1654210 On ch=1 n=g#5 v=0
1654210 On ch=1 n=g#6 v=0
1654225 On ch=1 n=f7 v=0
1654400 On ch=1 n=c4 v=61
1654430 On ch=1 n=c4 v=0
1654430 Par ch=1 c=64 v=104
1654445 Par ch=1 c=64 v=88
1654455 Par ch=1 c=64 v=56
1654470 Par ch=1 c=64 v=40
1654485 Par ch=1 c=64 v=24
1654500 Par ch=1 c=64 v=0
1654640 On ch=1 n=g7 v=89
1654645 On ch=1 n=g6 v=81
1654645 On ch=1 n=e7 v=82
1654655 On ch=1 n=c#5 v=49
1654660 On ch=1 n=g5 v=52
1654660 On ch=1 n=e5 v=59
1654695 On ch=1 n=e5 v=0
1654695 On ch=1 n=g5 v=0
1654700 On ch=1 n=e7 v=0
1654705 On ch=1 n=g6 v=0
1654715 On ch=1 n=c#5 v=0
1654735 On ch=1 n=g7 v=0
1654890 On ch=1 n=g7 v=90
1654890 Par ch=1 c=64 v=40
1654895 On ch=1 n=e7 v=86
1654900 On ch=1 n=g6 v=82
1654905 On ch=1 n=g5 v=61
1654905 On ch=1 n=c#5 v=53
1654910 On ch=1 n=e5 v=50
1654910 Par ch=1 c=64 v=127
1654950 On ch=1 n=g5 v=0
1654955 On ch=1 n=e5 v=0
1654965 On ch=1 n=c#5 v=0
1655040 On ch=1 n=g6 v=0
1655050 On ch=1 n=e7 v=0
1655090 On ch=1 n=g7 v=0
1655125 On ch=1 n=c4 v=71
1655150 On ch=1 n=c4 v=0
1655240 On ch=1 n=g7 v=88
1655245 On ch=1 n=g6 v=85
1655245 On ch=1 n=e7 v=77
1655255 Par ch=1 c=64 v=104
1655270 Par ch=1 c=64 v=88
1655275 On ch=1 n=e7 v=0
1655285 On ch=1 n=g7 v=0
1655285 Par ch=1 c=64 v=72
1655290 On ch=1 n=g6 v=0
1655300 Par ch=1 c=64 v=56
1655310 Par ch=1 c=64 v=40
1655325 Par ch=1 c=64 v=24
1655345 On ch=1 n=g7 v=82
1655345 Par ch=1 c=64 v=0
1655350 On ch=1 n=g6 v=84
1655355 On ch=1 n=e7 v=85
1655365 On ch=1 n=c#5 v=50
1655375 On ch=1 n=g5 v=46
1655385 On ch=1 n=e5 v=42
1655410 On ch=1 n=g5 v=0
1655415 On ch=1 n=e7 v=0
1655420 On ch=1 n=e5 v=0
1655430 On ch=1 n=c#5 v=0
1655435 On ch=1 n=g6 v=0
1655445 On ch=1 n=g7 v=0
1655580 On ch=1 n=g7 v=94
1655585 On ch=1 n=c#5 v=61
1655585 On ch=1 n=g6 v=90
1655590 On ch=1 n=g5 v=59
1655590 On ch=1 n=e7 v=77
1655590 On ch=1 n=e5 v=58
1655590 Par ch=1 c=64 v=40
1655605 Par ch=1 c=64 v=104
1655620 On ch=1 n=e5 v=0
1655620 On ch=1 n=e7 v=0
1655620 Par ch=1 c=64 v=127
1655625 On ch=1 n=g5 v=0
1655635 On ch=1 n=g6 v=0
1655645 On ch=1 n=c#5 v=0
1655660 On ch=1 n=g7 v=0
1655825 On ch=1 n=g#6 v=80
1655825 On ch=1 n=c4 v=68
1655830 On ch=1 n=g#7 v=87
1655830 On ch=1 n=f7 v=85
1655850 On ch=1 n=c4 v=0
1655875 On ch=1 n=g#6 v=0
1655895 On ch=1 n=f7 v=0
1655920 On ch=1 n=g#7 v=0
1655925 Par ch=1 c=64 v=104
1655940 Par ch=1 c=64 v=88
1655955 Par ch=1 c=64 v=72
1655970 Par ch=1 c=64 v=56
1655980 Par ch=1 c=64 v=40
1655995 Par ch=1 c=64 v=24
1656010 Par ch=1 c=64 v=0
1656055 On ch=1 n=a#7 v=89
1656055 On ch=1 n=a#6 v=81
1656060 On ch=1 n=g7 v=84
1656075 On ch=1 n=g5 v=57
1656075 On ch=1 n=c#5 v=50
1656075 On ch=1 n=e5 v=59
1656115 On ch=1 n=g5 v=0
1656120 On ch=1 n=e5 v=0
1656120 On ch=1 n=a#6 v=0
1656135 On ch=1 n=c#5 v=0
1656135 On ch=1 n=g7 v=0
1656145 On ch=1 n=a#7 v=0
1656290 On ch=1 n=g7 v=92
1656290 On ch=1 n=a#7 v=95
1656290 On ch=1 n=a#6 v=89
1656290 On ch=1 n=c#5 v=63
1656300 On ch=1 n=g5 v=64
1656300 On ch=1 n=e5 v=64
1656305 Par ch=1 c=64 v=40
1656315 Par ch=1 c=64 v=127
1656320 On ch=1 n=e5 v=0
1656330 On ch=1 n=g5 v=0
1656345 On ch=1 n=c#5 v=0
1656345 On ch=1 n=a#6 v=0
1656355 On ch=1 n=g7 v=0
1656380 On ch=1 n=a#7 v=0
1656525 On ch=1 n=c8 v=93
1656530 On ch=1 n=g#7 v=75
1656530 On ch=1 n=c7 v=79
1656535 On ch=1 n=c4 v=70
1656560 On ch=1 n=c4 v=0
1656575 On ch=1 n=g#7 v=0
1656585 On ch=1 n=c7 v=0
1656585 On ch=1 n=c8 v=0
1656740 Par ch=1 c=64 v=104
1656750 On ch=1 n=g#7 v=88
1656755 On ch=1 n=g#6 v=76
1656755 Par ch=1 c=64 v=72
1656765 On ch=1 n=f7 v=77
1656765 Par ch=1 c=64 v=56
1656775 On ch=1 n=c5 v=59
1656775 On ch=1 n=f5 v=60
1656775 On ch=1 n=g#5 v=47
1656780 Par ch=1 c=64 v=40
1656790 On ch=1 n=f7 v=0
1656795 Par ch=1 c=64 v=24
1656810 On ch=1 n=c5 v=0
1656810 Par ch=1 c=64 v=0
1656815 On ch=1 n=g#5 v=0
1656815 On ch=1 n=g#6 v=0
1656820 On ch=1 n=f5 v=0
1656840 On ch=1 n=g#7 v=0
1657000 Par ch=1 c=64 v=40
1657005 On ch=1 n=g#7 v=89
1657005 On ch=1 n=g#6 v=80
1657010 On ch=1 n=f5 v=53
1657010 On ch=1 n=g#5 v=49
1657010 On ch=1 n=f7 v=79
1657015 Par ch=1 c=64 v=127
1657020 On ch=1 n=c5 v=36
1657035 On ch=1 n=f5 v=0
1657040 On ch=1 n=g#5 v=0
1657050 On ch=1 n=c5 v=0
1657075 On ch=1 n=g#6 v=0
1657095 On ch=1 n=f7 v=0
1657115 On ch=1 n=g#7 v=0
1657240 On ch=1 n=c4 v=70
1657265 On ch=1 n=c4 v=0
1657460 On ch=1 n=g#7 v=89
1657465 On ch=1 n=g#6 v=77
1657470 On ch=1 n=f7 v=80
1657485 On ch=1 n=c5 v=74
1657490 On ch=1 n=f5 v=68
1657490 On ch=1 n=g#5 v=71
1657520 On ch=1 n=g#6 v=0
1657530 On ch=1 n=c5 v=0
1657535 On ch=1 n=f7 v=0
1657550 On ch=1 n=g#5 v=0
1657550 On ch=1 n=f5 v=0
1657555 On ch=1 n=g#7 v=0
1657710 Par ch=1 c=64 v=88
1657725 Par ch=1 c=64 v=24
1657740 Par ch=1 c=64 v=0
1657750 On ch=1 n=g#7 v=95
1657760 On ch=1 n=g#6 v=77
1657765 On ch=1 n=c#7 v=75
1657770 On ch=1 n=g#5 v=85
1657770 On ch=1 n=a#4 v=51
1657775 On ch=1 n=c#5 v=61
1657810 On ch=1 n=a#4 v=0
1657825 On ch=1 n=g#5 v=0
1657835 On ch=1 n=c#5 v=0
1657840 Par ch=1 c=64 v=127
1657965 On ch=1 n=g#6 v=0
1657980 On ch=1 n=c#7 v=0
1657980 On ch=1 n=g#7 v=0
1657995 On ch=1 n=c4 v=70
1658045 On ch=1 n=c4 v=0
1658110 On ch=1 n=g7 v=89
1658115 On ch=1 n=g6 v=81
1658115 On ch=1 n=c#7 v=72
1658155 On ch=1 n=g7 v=0
1658165 On ch=1 n=c#7 v=0
1658165 On ch=1 n=g6 v=0
1658225 On ch=1 n=g7 v=84
1658225 On ch=1 n=g6 v=85
1658230 On ch=1 n=g5 v=73
1658230 On ch=1 n=c#7 v=77
1658235 On ch=1 n=c#5 v=53
1658235 On ch=1 n=a#4 v=46
1658305 On ch=1 n=a#4 v=0
1658310 On ch=1 n=g5 v=0
1658320 On ch=1 n=c#7 v=0
1658320 On ch=1 n=g6 v=0
1658325 On ch=1 n=g7 v=0
1658330 On ch=1 n=c#5 v=0
1658410 Par ch=1 c=64 v=56
1658425 Par ch=1 c=64 v=0
1658475 On ch=1 n=g7 v=89
1658480 On ch=1 n=g5 v=77
1658485 On ch=1 n=c7 v=83
1658485 On ch=1 n=c5 v=65
1658490 On ch=1 n=g6 v=75
1658490 On ch=1 n=g#4 v=49
1658510 Par ch=1 c=64 v=40
1658525 Par ch=1 c=64 v=127
1658530 On ch=1 n=c5 v=0
1658530 On ch=1 n=g5 v=0
1658550 On ch=1 n=g#4 v=0
1658580 On ch=1 n=g7 v=0
1658615 On ch=1 n=g6 v=0
1658625 On ch=1 n=c7 v=0
1658720 On ch=1 n=c4 v=51
1658755 On ch=1 n=c4 v=0
1658810 On ch=1 n=f7 v=93
1658810 On ch=1 n=f6 v=85
1658810 On ch=1 n=c7 v=81
1658850 On ch=1 n=f7 v=0
1658860 On ch=1 n=c7 v=0
1658860 On ch=1 n=f6 v=0
1658915 On ch=1 n=f7 v=88
1658920 On ch=1 n=c7 v=86
1658920 On ch=1 n=f6 v=82
1658950 On ch=1 n=c5 v=60
1658950 On ch=1 n=g#4 v=47
1658955 On ch=1 n=f6 v=0
1658955 On ch=1 n=f5 v=55
1658970 On ch=1 n=c7 v=0
1658990 On ch=1 n=g#4 v=0
1658990 On ch=1 n=f7 v=0
1658995 On ch=1 n=f5 v=0
1658995 On ch=1 n=c5 v=0
1659210 On ch=1 n=a#7 v=97
1659215 On ch=1 n=a#6 v=82
1659220 On ch=1 n=f7 v=88
1659225 On ch=1 n=a#4 v=51
1659235 On ch=1 n=f5 v=56
1659235 On ch=1 n=g4 v=62
1659235 Par ch=1 c=64 v=24
1659250 Par ch=1 c=64 v=0
1659295 On ch=1 n=g4 v=0
1659305 On ch=1 n=a#4 v=0
1659320 On ch=1 n=f5 v=0
1659325 Par ch=1 c=64 v=104
1659340 Par ch=1 c=64 v=127
1659345 On ch=1 n=a#6 v=0
1659350 On ch=1 n=a#7 v=0
1659375 On ch=1 n=f7 v=0
1659530 On ch=1 n=c4 v=49
1659595 On ch=1 n=c4 v=0
1659635 On ch=1 n=d#7 v=85
1659635 On ch=1 n=d#6 v=77
1659685 On ch=1 n=d#6 v=0
1659685 On ch=1 n=d#7 v=0
1659735 On ch=1 n=d#7 v=79
1659740 On ch=1 n=d#6 v=74
1659760 On ch=1 n=a#6 v=60
1659760 On ch=1 n=a#4 v=39
1659765 On ch=1 n=g4 v=48
1659770 On ch=1 n=d#5 v=34
1659785 On ch=1 n=a#6 v=0
1659800 On ch=1 n=g4 v=0
1659820 On ch=1 n=a#4 v=0
1659820 On ch=1 n=d#6 v=0
1659825 On ch=1 n=d#5 v=0
1659855 On ch=1 n=d#7 v=0
1659965 Par ch=1 c=64 v=56
1659980 On ch=1 n=d#7 v=84
1659980 Par ch=1 c=64 v=0
1659985 On ch=1 n=d#6 v=70
1659985 On ch=1 n=g#6 v=71
1659990 On ch=1 n=d#5 v=46
1660015 On ch=1 n=f4 v=36
1660015 On ch=1 n=g#4 v=38
1660045 On ch=1 n=f4 v=0
1660065 Par ch=1 c=64 v=56
1660080 Par ch=1 c=64 v=127
1660110 On ch=1 n=g#6 v=0
1660110 On ch=1 n=d#6 v=0
1660120 On ch=1 n=d#5 v=0
1660155 On ch=1 n=d#7 v=0
1660200 On ch=1 n=g#4 v=0
1660210 On ch=1 n=c4 v=63
1660290 On ch=1 n=c4 v=0
1660410 On ch=1 n=d#7 v=88
1660420 On ch=1 n=d#6 v=72
1660425 On ch=1 n=g#6 v=71
1660440 On ch=1 n=d#5 v=46
1660445 On ch=1 n=g#4 v=43
1660460 On ch=1 n=f4 v=34
1660475 On ch=1 n=d#6 v=0
1660485 On ch=1 n=d#5 v=0
1660490 On ch=1 n=g#6 v=0
1660495 On ch=1 n=g#4 v=0
1660500 On ch=1 n=f4 v=0
1660520 On ch=1 n=d#7 v=0
1660615 Par ch=1 c=64 v=104
1660630 Par ch=1 c=64 v=56
1660645 Par ch=1 c=64 v=0
1660655 On ch=1 n=d#7 v=84
1660670 On ch=1 n=d#6 v=73
1660670 On ch=1 n=g#6 v=69
1660690 On ch=1 n=d#5 v=57
1660705 On ch=1 n=f4 v=47
1660705 On ch=1 n=g#4 v=32
1660735 Par ch=1 c=64 v=40
1660750 Par ch=1 c=64 v=104
1660765 Par ch=1 c=64 v=127
1660775 On ch=1 n=d#5 v=0
1660780 On ch=1 n=d#7 v=0
1660790 On ch=1 n=f4 v=0
1660800 On ch=1 n=d#6 v=0
1660900 On ch=1 n=g#6 v=0
1660905 On ch=1 n=c4 v=58
1660930 On ch=1 n=g#4 v=0
1660935 On ch=1 n=c4 v=0
1661005 On ch=1 n=c#7 v=77
1661010 On ch=1 n=c#6 v=67
1661015 On ch=1 n=g#6 v=62
1661045 On ch=1 n=g#6 v=0
1661050 On ch=1 n=c#7 v=0
1661060 On ch=1 n=c#6 v=0
1661110 On ch=1 n=c#7 v=77
1661115 On ch=1 n=g#4 v=43
1661115 On ch=1 n=c#6 v=67
1661120 On ch=1 n=g#6 v=73
1661120 On ch=1 n=f4 v=46
1661130 On ch=1 n=c#5 v=26
1661160 On ch=1 n=f4 v=0
1661185 On ch=1 n=g#4 v=0
1661195 On ch=1 n=c#5 v=0
1661195 On ch=1 n=c#6 v=0
1661205 On ch=1 n=g#6 v=0
1661215 On ch=1 n=c#7 v=0
1661270 Par ch=1 c=64 v=72
1661285 Par ch=1 c=64 v=24
1661300 Par ch=1 c=64 v=0
1661360 On ch=1 n=c#7 v=82
1661365 On ch=1 n=g6 v=79
1661370 On ch=1 n=c#6 v=69
1661380 On ch=1 n=c#5 v=45
1661385 On ch=1 n=e4 v=59
1661385 Par ch=1 c=64 v=24
1661400 On ch=1 n=g4 v=53
1661400 Par ch=1 c=64 v=104
1661415 Par ch=1 c=64 v=127
1661430 On ch=1 n=g4 v=0
1661470 On ch=1 n=g6 v=0
1661480 On ch=1 n=e4 v=0
1661480 On ch=1 n=c#7 v=0
1661495 On ch=1 n=c#5 v=0
1661500 On ch=1 n=c#6 v=0
1661580 On ch=1 n=c4 v=60
1661680 On ch=1 n=c7 v=83
1661685 On ch=1 n=c6 v=73
1661690 On ch=1 n=g6 v=70
1661710 On ch=1 n=c4 v=0
1661715 On ch=1 n=g6 v=0
1661730 On ch=1 n=c6 v=0
1661740 On ch=1 n=c7 v=0
1661795 On ch=1 n=c7 v=78
1661800 On ch=1 n=g6 v=75
1661800 On ch=1 n=c6 v=65
1661810 On ch=1 n=e4 v=51
1661810 On ch=1 n=c5 v=48
1661825 On ch=1 n=g4 v=36
1661830 On ch=1 n=c6 v=0
1661845 On ch=1 n=e4 v=0
1661855 On ch=1 n=c5 v=0
1661855 On ch=1 n=g6 v=0
1661865 On ch=1 n=g4 v=0
1661865 On ch=1 n=c7 v=0
1661995 Par ch=1 c=64 v=104
1662010 Par ch=1 c=64 v=56
1662025 Par ch=1 c=64 v=0
1662055 On ch=1 n=f7 v=88
1662060 On ch=1 n=c7 v=74
1662065 On ch=1 n=f6 v=70
1662075 On ch=1 n=c5 v=61
1662080 On ch=1 n=f4 v=55
1662130 Par ch=1 c=64 v=88
1662145 On ch=1 n=f7 v=0
1662145 Par ch=1 c=64 v=127
1662150 On ch=1 n=c7 v=0
1662165 On ch=1 n=c5 v=0
1662170 On ch=1 n=f4 v=0
1662180 On ch=1 n=f6 v=0
1662300 On ch=1 n=c4 v=54
1662415 On ch=1 n=c4 v=0
1662420 On ch=1 n=b6 v=80
1662425 On ch=1 n=b5 v=69
1662470 On ch=1 n=b5 v=0
1662475 On ch=1 n=b6 v=0
1662525 On ch=1 n=b6 v=82
1662525 On ch=1 n=b5 v=63
1662535 On ch=1 n=f4 v=63
1662540 On ch=1 n=c#4 v=54
1662545 On ch=1 n=f6 v=74
1662545 On ch=1 n=b4 v=48
1662585 On ch=1 n=b5 v=0
1662590 On ch=1 n=b4 v=0
1662590 On ch=1 n=f4 v=0
1662600 On ch=1 n=f6 v=0
1662615 On ch=1 n=c#4 v=0
1662615 On ch=1 n=b6 v=0
1662765 Par ch=1 c=64 v=104
1662780 Par ch=1 c=64 v=72
1662800 Par ch=1 c=64 v=0
1662805 On ch=1 n=c7 v=85
1662815 On ch=1 n=c6 v=66
1662825 On ch=1 n=e6 v=60
1662835 On ch=1 n=c4 v=67
1662835 On ch=1 n=c5 v=62
1662855 On ch=1 n=e6 v=0
1662905 On ch=1 n=c4 v=0
1662915 Par ch=1 c=64 v=40
1662925 On ch=1 n=c5 v=0
1662930 Par ch=1 c=64 v=104
1662940 Par ch=1 c=64 v=127
1663075 On ch=1 n=d5 v=64
1663075 Par ch=1 c=64 v=104
1663085 On ch=1 n=d4 v=47
1663085 Par ch=1 c=64 v=88
1663105 Par ch=1 c=64 v=56
1663115 Par ch=1 c=64 v=24
1663130 Par ch=1 c=64 v=0
1663140 On ch=1 n=d4 v=0
1663150 On ch=1 n=d5 v=0
1663235 On ch=1 n=c6 v=0
1663245 On ch=1 n=c7 v=0
1663325 On ch=1 n=d#5 v=61
1663330 On ch=1 n=d#4 v=62
1663425 On ch=1 n=d#4 v=0
1663450 On ch=1 n=d#5 v=0
1663610 On ch=1 n=c6 v=74
1663620 On ch=1 n=e4 v=53
1663640 Par ch=1 c=64 v=40
1663655 Par ch=1 c=64 v=88
1663670 Par ch=1 c=64 v=127
1663700 On ch=1 n=e4 v=0
1663840 On ch=1 n=g5 v=49
1663845 On ch=1 n=c5 v=46
1663875 Par ch=1 c=64 v=104
1663880 On ch=1 n=g5 v=0
1663885 Par ch=1 c=64 v=72
1663900 Par ch=1 c=64 v=56
1663915 On ch=1 n=c5 v=0
1663930 Par ch=1 c=64 v=40
1663945 Par ch=1 c=64 v=24
1663955 On ch=1 n=c6 v=0
1663975 Par ch=1 c=64 v=0
1663995 On ch=1 n=c7 v=76
1664035 On ch=1 n=e4 v=59
1664065 On ch=1 n=e4 v=0
1664065 On ch=1 n=c6 v=75
1664085 On ch=1 n=c7 v=0
1664180 On ch=1 n=c6 v=0
1664225 On ch=1 n=c7 v=83
1664295 On ch=1 n=f4 v=57
1664295 On ch=1 n=c#6 v=78
1664295 Par ch=1 c=64 v=40
1664310 Par ch=1 c=64 v=72
1664320 Par ch=1 c=64 v=127
1664330 On ch=1 n=c7 v=0
1664395 On ch=1 n=f4 v=0
1664510 Par ch=1 c=64 v=104
1664515 On ch=1 n=g#5 v=48
1664525 Par ch=1 c=64 v=88
1664535 On ch=1 n=c5 v=41
1664540 Par ch=1 c=64 v=56
1664555 Par ch=1 c=64 v=40
1664570 Par ch=1 c=64 v=24
1664585 On ch=1 n=c5 v=0
1664585 Par ch=1 c=64 v=0
1664615 On ch=1 n=g#5 v=0
1664620 On ch=1 n=c#6 v=0
1664660 On ch=1 n=c7 v=76
1664720 On ch=1 n=c#6 v=80
1664725 On ch=1 n=f4 v=48
1664750 On ch=1 n=c7 v=0
1664755 On ch=1 n=f4 v=0
1664820 On ch=1 n=c#6 v=0
1664885 On ch=1 n=c7 v=78
1664940 On ch=1 n=d6 v=78
1664970 On ch=1 n=f#4 v=50
1664975 On ch=1 n=c7 v=0
1665065 On ch=1 n=f#4 v=0
1665085 On ch=1 n=d6 v=0
1665115 On ch=1 n=c7 v=85
1665155 On ch=1 n=a5 v=56
1665165 On ch=1 n=c5 v=43
1665185 On ch=1 n=d#6 v=78
1665205 On ch=1 n=c5 v=0
1665215 On ch=1 n=c7 v=0
1665220 On ch=1 n=a5 v=0
1665330 On ch=1 n=d#6 v=0
1665330 On ch=1 n=g4 v=58
1665360 On ch=1 n=g4 v=0
1665365 On ch=1 n=c7 v=89
1665415 On ch=1 n=a#5 v=56
1665435 On ch=1 n=e6 v=72
1665465 On ch=1 n=a#5 v=0
1665470 On ch=1 n=c7 v=0
1665545 On ch=1 n=e6 v=0
1665585 On ch=1 n=c7 v=85
1665665 On ch=1 n=g#4 v=49
1665675 On ch=1 n=c7 v=0
1665675 On ch=1 n=g6 v=92
1665760 Par ch=1 c=64 v=72
1665770 On ch=1 n=g#4 v=0
1665775 Par ch=1 c=64 v=127
1665915 On ch=1 n=f5 v=45
1665920 On ch=1 n=c6 v=31
1665945 On ch=1 n=c6 v=0
1665985 On ch=1 n=f5 v=0
1665995 Par ch=1 c=64 v=104
1666010 Par ch=1 c=64 v=88
1666020 Par ch=1 c=64 v=72
1666050 Par ch=1 c=64 v=56
1666080 Par ch=1 c=64 v=40
1666110 Par ch=1 c=64 v=24
1666140 Par ch=1 c=64 v=0
1666165 On ch=1 n=f6 v=70
1666175 On ch=1 n=g6 v=0
1666175 On ch=1 n=g#4 v=49
1666210 On ch=1 n=g#4 v=0
1666245 On ch=1 n=f6 v=0
1666415 On ch=1 n=f6 v=87
1666440 On ch=1 n=a4 v=49
1666445 Par ch=1 c=64 v=24
1666460 Par ch=1 c=64 v=88
1666470 Par ch=1 c=64 v=127
1666520 On ch=1 n=a4 v=0
1666655 On ch=1 n=f5 v=36
1666660 On ch=1 n=c6 v=56
1666710 On ch=1 n=c6 v=0
1666745 On ch=1 n=f5 v=0
1666775 On ch=1 n=f6 v=0
1666805 On ch=1 n=f7 v=80
1666805 Par ch=1 c=64 v=104
1666820 Par ch=1 c=64 v=88
1666835 Par ch=1 c=64 v=72
1666850 Par ch=1 c=64 v=56
1666865 Par ch=1 c=64 v=24
1666875 On ch=1 n=a4 v=48
1666880 On ch=1 n=f6 v=83
1666880 Par ch=1 c=64 v=0
1666900 On ch=1 n=f7 v=0
1666910 On ch=1 n=a4 v=0
1667000 On ch=1 n=f6 v=0
1667040 On ch=1 n=f7 v=88
1667110 On ch=1 n=f#6 v=80
1667110 Par ch=1 c=64 v=24
1667125 On ch=1 n=a#4 v=40
1667125 Par ch=1 c=64 v=72
1667130 On ch=1 n=f7 v=0
1667140 Par ch=1 c=64 v=127
1667230 On ch=1 n=a#4 v=0
1667345 On ch=1 n=c#6 v=55
1667360 On ch=1 n=f5 v=52
1667360 Par ch=1 c=64 v=104
1667375 Par ch=1 c=64 v=88
1667390 Par ch=1 c=64 v=56
1667400 Par ch=1 c=64 v=40
1667405 On ch=1 n=f5 v=0
1667415 On ch=1 n=c#6 v=0
1667415 Par ch=1 c=64 v=24
1667445 Par ch=1 c=64 v=0
1667465 On ch=1 n=f#6 v=0
1667490 On ch=1 n=f7 v=86
1667540 On ch=1 n=a#4 v=47
1667555 On ch=1 n=f#6 v=83
1667590 On ch=1 n=f7 v=0
1667635 On ch=1 n=a#4 v=0
1667670 On ch=1 n=f#6 v=0
1667720 On ch=1 n=f7 v=80
1667780 On ch=1 n=g6 v=86
1667780 On ch=1 n=b4 v=57
1667810 On ch=1 n=f7 v=0
1667890 On ch=1 n=b4 v=0
1667925 On ch=1 n=g6 v=0
1667930 On ch=1 n=f5 v=48
1667945 On ch=1 n=f7 v=88
1667975 On ch=1 n=d6 v=39
1667995 On ch=1 n=f5 v=0
1668010 On ch=1 n=g#6 v=88
1668050 On ch=1 n=d6 v=0
1668055 On ch=1 n=f7 v=0
1668145 On ch=1 n=c5 v=59
1668150 On ch=1 n=g#6 v=0
1668185 On ch=1 n=f7 v=87
1668190 On ch=1 n=c5 v=0
1668245 On ch=1 n=d#6 v=68
1668265 On ch=1 n=a6 v=86
1668290 On ch=1 n=f7 v=0
1668310 On ch=1 n=d#6 v=0
1668380 On ch=1 n=a6 v=0
1668410 On ch=1 n=f7 v=92
1668495 On ch=1 n=c#5 v=49
1668505 On ch=1 n=f7 v=0
1668505 On ch=1 n=c7 v=93
1668580 Par ch=1 c=64 v=72
1668595 Par ch=1 c=64 v=127
1668620 On ch=1 n=c#5 v=0
1668760 On ch=1 n=a#5 v=50
1668760 On ch=1 n=f6 v=46
1668810 On ch=1 n=f6 v=0
1668855 On ch=1 n=a#5 v=0
1668980 On ch=1 n=a#6 v=75
1668980 On ch=1 n=c#5 v=54
1668990 On ch=1 n=c7 v=0
1669045 On ch=1 n=c#5 v=0
1669045 On ch=1 n=a#6 v=0
1669045 Par ch=1 c=64 v=104
1669060 Par ch=1 c=64 v=88
1669075 Par ch=1 c=64 v=56
1669090 Par ch=1 c=64 v=40
1669100 Par ch=1 c=64 v=0
1669235 On ch=1 n=a#6 v=85
1669270 On ch=1 n=d5 v=48
1669275 Par ch=1 c=64 v=24
1669290 Par ch=1 c=64 v=88
1669305 On ch=1 n=d5 v=0
1669305 Par ch=1 c=64 v=127
1669320 On ch=1 n=a#6 v=0
1669485 On ch=1 n=a#7 v=95
1669515 On ch=1 n=f5 v=47
1669515 On ch=1 n=f6 v=44
1669515 On ch=1 n=g#5 v=40
1669525 On ch=1 n=a#5 v=35
1669595 On ch=1 n=f6 v=0
1669600 On ch=1 n=g#5 v=0
1669600 On ch=1 n=f5 v=0
1669605 On ch=1 n=a#5 v=0
1669635 On ch=1 n=a#7 v=0
1669745 On ch=1 n=f6 v=60
1669745 On ch=1 n=f5 v=47
1669750 On ch=1 n=a#5 v=43
1669750 On ch=1 n=g#5 v=41
1669815 On ch=1 n=g#5 v=0
1669820 On ch=1 n=a#5 v=0
1669830 On ch=1 n=f6 v=0
1669850 On ch=1 n=a#7 v=87
1669865 On ch=1 n=f5 v=0
1669915 On ch=1 n=a#7 v=0
1669975 On ch=1 n=a#7 v=94
1669980 On ch=1 n=f6 v=53
1669985 On ch=1 n=g#5 v=47
1670000 On ch=1 n=a#5 v=46
1670050 On ch=1 n=f6 v=0
1670065 On ch=1 n=a#7 v=0
1670100 On ch=1 n=c8 v=83
1670175 On ch=1 n=c8 v=0
1670185 On ch=1 n=a#5 v=0
1670185 On ch=1 n=g#5 v=0
1670210 On ch=1 n=a#7 v=77
1670220 On ch=1 n=d5 v=48
1670305 On ch=1 n=d5 v=0
1670320 On ch=1 n=f7 v=86
1670380 On ch=1 n=a#7 v=0
1670425 On ch=1 n=f7 v=0
1670430 On ch=1 n=d7 v=82
1670440 On ch=1 n=g#5 v=50
1670440 On ch=1 n=f6 v=63
1670470 On ch=1 n=a#5 v=51
1670490 On ch=1 n=f6 v=0
1670490 On ch=1 n=d7 v=0
1670500 On ch=1 n=a#5 v=0
1670535 On ch=1 n=g#5 v=0
1670565 On ch=1 n=a#6 v=65
1670615 On ch=1 n=a#6 v=0
1670680 On ch=1 n=d#7 v=83
1670685 On ch=1 n=c#5 v=57
1670685 Par ch=1 c=64 v=88
1670700 Par ch=1 c=64 v=24
1670715 Par ch=1 c=64 v=0
1670775 On ch=1 n=d#7 v=0
1670785 On ch=1 n=f7 v=85
1670800 Par ch=1 c=64 v=72
1670815 On ch=1 n=c#5 v=0
1670815 Par ch=1 c=64 v=127
1670875 On ch=1 n=f7 v=0
1670900 On ch=1 n=d#7 v=73
1670915 On ch=1 n=d#6 v=50
1670930 On ch=1 n=g5 v=51
1670930 On ch=1 n=a#5 v=44
1671005 On ch=1 n=d#6 v=0
1671005 On ch=1 n=d#7 v=0
1671010 On ch=1 n=a#6 v=75
1671080 On ch=1 n=g5 v=0
1671115 On ch=1 n=a#6 v=0
1671120 On ch=1 n=g6 v=78
1671130 On ch=1 n=c#5 v=50
1671160 On ch=1 n=a#5 v=0
1671180 On ch=1 n=g6 v=0
1671200 On ch=1 n=c#5 v=0
1671225 On ch=1 n=d#6 v=85
1671320 On ch=1 n=d#6 v=0
1671350 On ch=1 n=g#6 v=82
1671365 On ch=1 n=c5 v=58
1671365 Par ch=1 c=64 v=56
1671385 Par ch=1 c=64 v=0
1671450 On ch=1 n=g#6 v=0
1671460 On ch=1 n=a#6 v=73
1671470 Par ch=1 c=64 v=56
1671485 Par ch=1 c=64 v=127
1671555 On ch=1 n=c5 v=0
1671570 On ch=1 n=a#6 v=0
1671575 On ch=1 n=g#6 v=73
1671590 On ch=1 n=d#5 v=51
1671595 On ch=1 n=g#5 v=55
1671680 On ch=1 n=d#6 v=76
1671705 On ch=1 n=g#6 v=0
1671755 On ch=1 n=g#5 v=0
1671765 On ch=1 n=c5 v=62
1671775 On ch=1 n=d#6 v=0
1671775 On ch=1 n=d#5 v=0
1671785 On ch=1 n=c6 v=74
1671795 On ch=1 n=c5 v=0
1671855 On ch=1 n=c6 v=0
1671885 On ch=1 n=g#5 v=73
1671960 On ch=1 n=g#5 v=0
1672020 Par ch=1 c=64 v=88
1672035 On ch=1 n=a#5 v=82
1672035 Par ch=1 c=64 v=0
1672080 On ch=1 n=d4 v=61
1672145 On ch=1 n=d4 v=0
1672170 Par ch=1 c=64 v=88
1672180 Par ch=1 c=64 v=127
1672250 On ch=1 n=a#5 v=0
1672315 On ch=1 n=a#6 v=88
1672335 On ch=1 n=f4 v=46
1672340 On ch=1 n=g#4 v=44
1672345 On ch=1 n=f5 v=46
1672345 On ch=1 n=a#4 v=46
1672410 On ch=1 n=f5 v=0
1672415 On ch=1 n=f4 v=0
1672420 On ch=1 n=a#4 v=0
1672420 On ch=1 n=g#4 v=0
1672545 On ch=1 n=a#6 v=0
1672550 On ch=1 n=g#4 v=47
1672555 On ch=1 n=a#4 v=42
1672555 On ch=1 n=f5 v=43
1672560 On ch=1 n=f4 v=44
1672610 On ch=1 n=f4 v=0
1672615 On ch=1 n=g#4 v=0
1672620 On ch=1 n=f5 v=0
1672625 On ch=1 n=a#4 v=0
1672665 On ch=1 n=a#6 v=83
1672735 On ch=1 n=a#6 v=0
1672785 On ch=1 n=a#6 v=80
1672795 On ch=1 n=f5 v=54
1672795 On ch=1 n=g#4 v=46
1672805 On ch=1 n=a#4 v=44
1672845 On ch=1 n=f5 v=0
1672875 On ch=1 n=a#6 v=0
1672895 On ch=1 n=g#4 v=0
1672905 On ch=1 n=c7 v=85
1672990 On ch=1 n=c7 v=0
1672990 On ch=1 n=a#4 v=0
1673020 On ch=1 n=a#6 v=75
1673030 On ch=1 n=d4 v=64
1673115 On ch=1 n=a#6 v=0
1673130 On ch=1 n=d4 v=0
1673135 On ch=1 n=f6 v=85
1673230 On ch=1 n=f6 v=0
1673245 On ch=1 n=d6 v=74
1673270 On ch=1 n=g#4 v=38
1673275 On ch=1 n=a#4 v=37
1673280 On ch=1 n=f5 v=40
1673305 On ch=1 n=d6 v=0
1673320 On ch=1 n=f5 v=0
1673345 On ch=1 n=g#4 v=0
1673365 On ch=1 n=a#5 v=82
1673440 On ch=1 n=a#4 v=0
1673460 On ch=1 n=a#5 v=0
1673475 Par ch=1 c=64 v=56
1673490 On ch=1 n=d#6 v=83
1673490 Par ch=1 c=64 v=0
1673500 On ch=1 n=c#4 v=64
1673590 On ch=1 n=d#6 v=0
1673610 On ch=1 n=f6 v=78
1673620 Par ch=1 c=64 v=104
1673630 On ch=1 n=c#4 v=0
1673635 Par ch=1 c=64 v=127
1673685 On ch=1 n=f6 v=0
1673725 On ch=1 n=d#6 v=75
1673735 On ch=1 n=d#5 v=47
1673750 On ch=1 n=a#4 v=45
1673750 On ch=1 n=g4 v=54
1673835 On ch=1 n=d#5 v=0
1673835 On ch=1 n=a#5 v=77
1673855 On ch=1 n=d#6 v=0
1673880 On ch=1 n=g4 v=0
1673930 On ch=1 n=a#5 v=0
1673930 On ch=1 n=a#4 v=0
1673940 On ch=1 n=g5 v=73
1673945 On ch=1 n=c#4 v=73
1673995 On ch=1 n=g5 v=0
1674030 On ch=1 n=c#4 v=0
1674045 On ch=1 n=d#5 v=79
1674135 On ch=1 n=d#5 v=0
1674175 On ch=1 n=g#5 v=72
1674190 Par ch=1 c=64 v=56
1674195 On ch=1 n=c4 v=74
1674200 Par ch=1 c=64 v=0
1674275 On ch=1 n=g#5 v=0
1674295 On ch=1 n=a#5 v=73
1674305 Par ch=1 c=64 v=40
1674320 Par ch=1 c=64 v=104
1674330 Par ch=1 c=64 v=127
1674385 On ch=1 n=a#5 v=0
1674400 On ch=1 n=c4 v=0
1674415 On ch=1 n=g#5 v=71
1674430 On ch=1 n=d#4 v=56
1674435 On ch=1 n=g#4 v=53
1674540 On ch=1 n=g#5 v=0
1674540 On ch=1 n=d#5 v=70
1674620 On ch=1 n=c4 v=59
1674635 On ch=1 n=d#5 v=0
1674645 On ch=1 n=c5 v=70
1674650 On ch=1 n=g#4 v=0
1674675 On ch=1 n=c4 v=0
1674675 On ch=1 n=d#4 v=0
1674710 On ch=1 n=c5 v=0
1674760 On ch=1 n=g#4 v=68
1674840 Par ch=1 c=64 v=88
1674845 On ch=1 n=g#4 v=0
1674855 Par ch=1 c=64 v=56
1674870 Par ch=1 c=64 v=24
1674885 On ch=1 n=f4 v=72
1674885 Par ch=1 c=64 v=0
1674915 On ch=1 n=c#3 v=58
1674915 On ch=1 n=c#4 v=60
1674995 On ch=1 n=c#4 v=0
1674995 On ch=1 n=f4 v=0
1675000 On ch=1 n=g#4 v=71
1675005 On ch=1 n=c#3 v=0
1675120 On ch=1 n=d4 v=67
1675125 On ch=1 n=d3 v=64
1675150 On ch=1 n=a#4 v=66
1675165 On ch=1 n=g#4 v=0
1675205 On ch=1 n=d4 v=0
1675215 On ch=1 n=a#4 v=0
1675225 On ch=1 n=d3 v=0
1675250 On ch=1 n=b4 v=68
1675330 On ch=1 n=b4 v=0
1675345 On ch=1 n=d#3 v=53
1675360 On ch=1 n=g#5 v=78
1675360 On ch=1 n=d#4 v=60
1675460 On ch=1 n=c5 v=78
1675475 On ch=1 n=g#5 v=0
1675485 On ch=1 n=d#3 v=0
1675495 On ch=1 n=d#4 v=0
1675550 On ch=1 n=c5 v=0
1675575 On ch=1 n=e3 v=66
1675575 On ch=1 n=e4 v=68
1675575 On ch=1 n=d#5 v=80
1675650 On ch=1 n=e3 v=0
1675660 On ch=1 n=e4 v=0
1675675 On ch=1 n=c#5 v=79
1675725 On ch=1 n=d#5 v=0
1675785 On ch=1 n=c#5 v=0
1675785 On ch=1 n=c5 v=93
1675790 On ch=1 n=f4 v=66
1675790 On ch=1 n=f3 v=64
1675855 On ch=1 n=f3 v=0
1675865 On ch=1 n=f4 v=0
1675890 On ch=1 n=c#5 v=79
1675905 On ch=1 n=c5 v=0
1675980 On ch=1 n=c#5 v=0
1676005 On ch=1 n=b4 v=74
1676010 On ch=1 n=g#4 v=71
1676010 On ch=1 n=g#3 v=68
1676080 On ch=1 n=g#3 v=0
1676100 On ch=1 n=g#4 v=0
1676130 On ch=1 n=d5 v=80
1676150 On ch=1 n=b4 v=0
1676210 On ch=1 n=d5 v=0
1676255 On ch=1 n=g3 v=85
1676335 Par ch=1 c=64 v=24
1676350 Par ch=1 c=64 v=56
1676360 On ch=1 n=a#4 v=77
1676365 Par ch=1 c=64 v=72
1676425 Par ch=1 c=64 v=88
1676475 On ch=1 n=c#5 v=76
1676480 Par ch=1 c=64 v=104
1676485 On ch=1 n=g3 v=0
1676485 On ch=1 n=d#4 v=58
1676495 Par ch=1 c=64 v=127
1676520 On ch=1 n=a#4 v=0
1676585 On ch=1 n=d#5 v=73
1676615 On ch=1 n=c#5 v=0
1676645 On ch=1 n=d#5 v=0
1676675 On ch=1 n=d#4 v=0
1676710 On ch=1 n=d#3 v=58
1676710 On ch=1 n=a#5 v=69
1676780 On ch=1 n=a#5 v=0
1676815 On ch=1 n=d#6 v=87
1676875 On ch=1 n=d#6 v=0
1676915 On ch=1 n=d#3 v=0
1676960 On ch=1 n=c7 v=94
1676960 Par ch=1 c=64 v=88
1676970 On ch=1 n=c6 v=79
1676975 Par ch=1 c=64 v=56
1676980 On ch=1 n=g#3 v=56
1676990 Par ch=1 c=64 v=0
1677035 On ch=1 n=c6 v=0
1677090 On ch=1 n=c7 v=0
1677120 Par ch=1 c=64 v=56
1677135 Par ch=1 c=64 v=127
1677175 On ch=1 n=g#3 v=0
1677215 On ch=1 n=d#4 v=48
1677320 On ch=1 n=d#5 v=71
1677325 On ch=1 n=d#6 v=77
1677370 On ch=1 n=d#6 v=0
1677370 On ch=1 n=d#5 v=0
1677385 On ch=1 n=d#3 v=46
1677425 On ch=1 n=d#5 v=68
1677430 On ch=1 n=d#6 v=74
1677445 On ch=1 n=d#3 v=0
1677460 On ch=1 n=d#4 v=0
1677500 On ch=1 n=d#5 v=0
1677530 Par ch=1 c=64 v=104
1677545 On ch=1 n=d#6 v=0
1677545 Par ch=1 c=64 v=88
1677555 Par ch=1 c=64 v=56
1677570 Par ch=1 c=64 v=24
1677585 Par ch=1 c=64 v=0
1677645 On ch=1 n=f5 v=79
1677660 On ch=1 n=c#5 v=56
1677665 On ch=1 n=c#4 v=60
1677705 Par ch=1 c=64 v=24
1677715 Par ch=1 c=64 v=40
1677755 On ch=1 n=g#5 v=75
1677765 On ch=1 n=c#4 v=0
1677790 On ch=1 n=f5 v=0
1677790 Par ch=1 c=64 v=24
1677795 On ch=1 n=c#5 v=0
1677830 Par ch=1 c=64 v=0
1677875 On ch=1 n=a#5 v=78
1677875 On ch=1 n=d5 v=52
1677880 On ch=1 n=d4 v=55
1677915 On ch=1 n=g#5 v=0
1677945 On ch=1 n=d5 v=0
1677955 On ch=1 n=d4 v=0
1677960 On ch=1 n=a#5 v=0
1677985 On ch=1 n=b5 v=85
1678080 On ch=1 n=b5 v=0
1678090 On ch=1 n=g#6 v=86
1678095 On ch=1 n=d#5 v=53
1678095 On ch=1 n=d#4 v=57
1678205 On ch=1 n=c6 v=87
1678210 On ch=1 n=d#4 v=0
1678210 On ch=1 n=g#6 v=0
1678225 On ch=1 n=d#5 v=0
1678295 On ch=1 n=c6 v=0
1678315 On ch=1 n=d#6 v=85
1678320 On ch=1 n=e4 v=64
1678320 On ch=1 n=e5 v=65
1678390 On ch=1 n=e4 v=0
1678405 On ch=1 n=e5 v=0
1678425 On ch=1 n=c#6 v=82
1678445 On ch=1 n=d#6 v=0
1678530 On ch=1 n=c6 v=96
1678540 On ch=1 n=c#6 v=0
1678540 On ch=1 n=f5 v=58
1678545 On ch=1 n=f4 v=62
1678585 On ch=1 n=f4 v=0
1678620 On ch=1 n=f5 v=0
1678630 On ch=1 n=c#6 v=84
1678655 On ch=1 n=c6 v=0
1678730 On ch=1 n=c#6 v=0
1678750 On ch=1 n=g#5 v=80
1678750 On ch=1 n=b5 v=73
1678755 On ch=1 n=g#4 v=71
1678840 On ch=1 n=g#4 v=0
1678875 On ch=1 n=g#5 v=0
1678875 On ch=1 n=d6 v=74
1678890 On ch=1 n=b5 v=0
1678950 On ch=1 n=d6 v=0
1678985 On ch=1 n=g4 v=89
1679070 Par ch=1 c=64 v=56
1679080 Par ch=1 c=64 v=127
1679090 On ch=1 n=a#5 v=74
1679195 On ch=1 n=c#6 v=71
1679235 On ch=1 n=d#5 v=49
1679245 On ch=1 n=g4 v=0
1679255 On ch=1 n=a#5 v=0
1679310 On ch=1 n=d#6 v=77
1679340 On ch=1 n=c#6 v=0
1679365 On ch=1 n=d#6 v=0
1679435 On ch=1 n=d#4 v=67
1679435 On ch=1 n=a#6 v=75
1679510 On ch=1 n=a#6 v=0
1679540 On ch=1 n=d#5 v=0
1679540 On ch=1 n=d#7 v=83
1679595 On ch=1 n=d#7 v=0
1679640 On ch=1 n=d#4 v=0
1679690 On ch=1 n=c8 v=86
1679690 On ch=1 n=g#4 v=68
1679695 Par ch=1 c=64 v=72
1679700 On ch=1 n=c7 v=68
1679705 Par ch=1 c=64 v=24
1679720 Par ch=1 c=64 v=0
1679795 On ch=1 n=c7 v=0
1679800 On ch=1 n=c8 v=0
1679825 Par ch=1 c=64 v=72
1679840 Par ch=1 c=64 v=127
1679905 On ch=1 n=g#4 v=0
1679945 On ch=1 n=d#5 v=56
1680045 On ch=1 n=d#7 v=79
1680050 On ch=1 n=d#6 v=77
1680090 On ch=1 n=d#6 v=0
1680090 On ch=1 n=d#7 v=0
1680150 On ch=1 n=d#7 v=76
1680155 On ch=1 n=d#6 v=81
1680165 On ch=1 n=d#4 v=73
1680225 On ch=1 n=d#7 v=0
1680230 On ch=1 n=d#6 v=0
1680295 On ch=1 n=d#5 v=0
1680345 On ch=1 n=d#4 v=0
1680360 Par ch=1 c=64 v=104
1680375 Par ch=1 c=64 v=72
1680385 On ch=1 n=g4 v=81
1680390 Par ch=1 c=64 v=40
1680405 Par ch=1 c=64 v=0
1680500 On ch=1 n=a#5 v=74
1680505 Par ch=1 c=64 v=40
1680520 Par ch=1 c=64 v=104
1680535 Par ch=1 c=64 v=127
1680620 On ch=1 n=c#6 v=77
1680625 On ch=1 n=g4 v=0
1680640 On ch=1 n=d#5 v=61
1680655 On ch=1 n=a#5 v=0
1680725 On ch=1 n=d#6 v=81
1680755 On ch=1 n=c#6 v=0
1680785 On ch=1 n=d#6 v=0
1680795 On ch=1 n=d#5 v=0
1680845 On ch=1 n=d#4 v=76
1680850 On ch=1 n=a#6 v=81
1680925 On ch=1 n=a#6 v=0
1680960 On ch=1 n=d#7 v=87
1681035 On ch=1 n=d#7 v=0
1681090 Par ch=1 c=64 v=72
1681095 On ch=1 n=c8 v=93
1681100 Par ch=1 c=64 v=0
1681105 On ch=1 n=c7 v=77
1681120 On ch=1 n=g#4 v=70
1681130 On ch=1 n=d#4 v=0
1681215 On ch=1 n=c8 v=0
1681230 Par ch=1 c=64 v=88
1681235 On ch=1 n=c7 v=0
1681245 Par ch=1 c=64 v=127
1681355 On ch=1 n=g#4 v=0
1681385 On ch=1 n=d#5 v=62
1681480 On ch=1 n=d#7 v=79
1681480 On ch=1 n=d#6 v=77
1681530 On ch=1 n=d#6 v=0
1681535 On ch=1 n=d#7 v=0
1681580 On ch=1 n=d#4 v=60
1681590 On ch=1 n=d#7 v=77
1681600 On ch=1 n=d#6 v=77
1681630 On ch=1 n=d#4 v=0
1681640 On ch=1 n=d#6 v=0
1681655 On ch=1 n=d#7 v=0
1681675 On ch=1 n=d#5 v=0
1681840 Par ch=1 c=64 v=72
1681850 On ch=1 n=c8 v=100
1681855 On ch=1 n=c7 v=92
1681855 Par ch=1 c=64 v=0
1681875 On ch=1 n=a4 v=58
1681875 On ch=1 n=c5 v=66
1681880 On ch=1 n=d#5 v=54
1681945 Par ch=1 c=64 v=40
1681950 On ch=1 n=c8 v=0
1681960 Par ch=1 c=64 v=127
1681970 On ch=1 n=c7 v=0
1682030 On ch=1 n=a4 v=0
1682095 On ch=1 n=c5 v=0
1682100 On ch=1 n=d#5 v=0
1682110 On ch=1 n=f5 v=63
1682170 On ch=1 n=f5 v=0
1682225 On ch=1 n=d#7 v=82
1682230 On ch=1 n=d#6 v=77
1682270 On ch=1 n=d#6 v=0
1682280 On ch=1 n=d#7 v=0
1682335 On ch=1 n=d#7 v=81
1682340 On ch=1 n=d#4 v=73
1682340 On ch=1 n=d#6 v=82
1682390 On ch=1 n=d#4 v=0
1682415 On ch=1 n=d#6 v=0
1682440 On ch=1 n=d#7 v=0
1682540 Par ch=1 c=64 v=88
1682555 Par ch=1 c=64 v=40
1682570 Par ch=1 c=64 v=0
1682595 On ch=1 n=d6 v=92
1682595 On ch=1 n=d7 v=97
1682615 On ch=1 n=g#4 v=58
1682620 On ch=1 n=d5 v=67
1682625 On ch=1 n=a#4 v=51
1682665 On ch=1 n=d6 v=0
1682715 On ch=1 n=d7 v=0
1682715 Par ch=1 c=64 v=104
1682730 Par ch=1 c=64 v=127
1682840 On ch=1 n=f5 v=63
1682845 On ch=1 n=d5 v=0
1682855 On ch=1 n=a#4 v=0
1682880 On ch=1 n=g#4 v=0
1682910 On ch=1 n=f5 v=0
1682955 On ch=1 n=a#7 v=87
1682955 On ch=1 n=a#6 v=86
1683000 On ch=1 n=a#6 v=0
1683005 On ch=1 n=a#7 v=0
1683070 On ch=1 n=d#4 v=71
1683075 On ch=1 n=a#7 v=95
1683080 On ch=1 n=a#6 v=83
1683115 On ch=1 n=a#6 v=0
1683125 On ch=1 n=d#4 v=0
1683135 On ch=1 n=a#7 v=0
1683310 Par ch=1 c=64 v=104
1683325 Par ch=1 c=64 v=0
1683335 On ch=1 n=d#8 v=112
1683340 On ch=1 n=d#7 v=102
1683345 On ch=1 n=g4 v=76
1683350 On ch=1 n=a#4 v=58
1683350 On ch=1 n=c#5 v=67
1683425 Par ch=1 c=64 v=88
1683430 On ch=1 n=d#8 v=0
1683440 On ch=1 n=d#7 v=0
1683440 Par ch=1 c=64 v=127
1683550 On ch=1 n=g4 v=0
1683575 On ch=1 n=c#5 v=0
1683580 On ch=1 n=d#5 v=66
1683585 On ch=1 n=a#4 v=0
1683660 On ch=1 n=d#5 v=0
1683720 On ch=1 n=c#7 v=84
1683725 On ch=1 n=c#6 v=80
1683765 On ch=1 n=c#6 v=0
1683775 On ch=1 n=c#7 v=0
1683775 On ch=1 n=d#4 v=63
1683825 On ch=1 n=c#7 v=86
1683835 On ch=1 n=c#6 v=70
1683895 On ch=1 n=c#6 v=0
1683925 On ch=1 n=d#4 v=0
1683945 On ch=1 n=c#7 v=0
1684020 Par ch=1 c=64 v=56
1684035 Par ch=1 c=64 v=0
1684055 On ch=1 n=c7 v=86
1684060 On ch=1 n=c6 v=79
1684075 On ch=1 n=g#4 v=56
1684080 On ch=1 n=c5 v=52
1684125 On ch=1 n=c6 v=0
1684135 Par ch=1 c=64 v=56
1684155 Par ch=1 c=64 v=127
1684160 On ch=1 n=c7 v=0
1684215 On ch=1 n=c5 v=0
1684280 On ch=1 n=d#5 v=54
1684390 On ch=1 n=d#7 v=82
1684395 On ch=1 n=d#6 v=82
1684435 On ch=1 n=g#4 v=0
1684440 On ch=1 n=d#6 v=0
1684440 On ch=1 n=d#7 v=0
1684485 On ch=1 n=d#4 v=56
1684495 On ch=1 n=d#7 v=85
1684495 On ch=1 n=d#6 v=75
1684535 On ch=1 n=d#4 v=0
1684540 On ch=1 n=d#6 v=0
1684555 On ch=1 n=d#7 v=0
1684580 On ch=1 n=d#5 v=0
1684760 On ch=1 n=c8 v=105
1684760 Par ch=1 c=64 v=40
1684765 On ch=1 n=c7 v=96
1684775 Par ch=1 c=64 v=0
1684785 On ch=1 n=d#5 v=59
1684790 On ch=1 n=a4 v=59
1684795 On ch=1 n=c5 v=62
1684865 Par ch=1 c=64 v=104
1684870 On ch=1 n=c7 v=0
1684880 On ch=1 n=c8 v=0
1684880 Par ch=1 c=64 v=127
1684955 On ch=1 n=a4 v=0
1684995 On ch=1 n=c5 v=0
1685000 On ch=1 n=d#5 v=0
1685015 On ch=1 n=f5 v=53
1685045 On ch=1 n=f5 v=0
1685145 On ch=1 n=d#6 v=78
1685145 On ch=1 n=d#7 v=84
1685190 On ch=1 n=d#7 v=0
1685190 On ch=1 n=d#6 v=0
1685210 On ch=1 n=d#4 v=65
1685250 On ch=1 n=d#7 v=83
1685250 On ch=1 n=d#6 v=82
1685270 On ch=1 n=d#4 v=0
1685355 On ch=1 n=d#6 v=0
1685365 On ch=1 n=d#7 v=0
1685510 On ch=1 n=d7 v=93
1685515 On ch=1 n=d6 v=87
1685520 Par ch=1 c=64 v=56
1685530 On ch=1 n=g#4 v=50
1685535 On ch=1 n=d5 v=60
1685535 Par ch=1 c=64 v=0
1685540 On ch=1 n=a#4 v=48
1685585 On ch=1 n=d6 v=0
1685635 Par ch=1 c=64 v=104
1685640 On ch=1 n=d7 v=0
1685650 Par ch=1 c=64 v=127
1685745 On ch=1 n=d5 v=0
1685750 On ch=1 n=f5 v=62
1685765 On ch=1 n=a#4 v=0
1685765 On ch=1 n=g#4 v=0
1685815 On ch=1 n=f5 v=0
1685870 On ch=1 n=a#7 v=87
1685875 On ch=1 n=a#6 v=79
1685915 On ch=1 n=a#6 v=0
1685915 On ch=1 n=a#7 v=0
1685975 On ch=1 n=d#4 v=64
1685985 On ch=1 n=a#6 v=73
1685990 On ch=1 n=a#7 v=89
1686025 On ch=1 n=d#4 v=0
1686035 On ch=1 n=a#6 v=0
1686040 On ch=1 n=a#7 v=0
1686245 Par ch=1 c=64 v=72
1686250 On ch=1 n=d#8 v=106
1686250 On ch=1 n=d#7 v=95
1686260 On ch=1 n=g4 v=76
1686260 On ch=1 n=c#5 v=67
1686260 Par ch=1 c=64 v=0
1686275 On ch=1 n=a#4 v=53
1686335 On ch=1 n=d#8 v=0
1686345 Par ch=1 c=64 v=88
1686350 On ch=1 n=d#7 v=0
1686360 Par ch=1 c=64 v=127
1686480 On ch=1 n=g4 v=0
1686500 On ch=1 n=c#5 v=0
1686510 On ch=1 n=a#4 v=0
1686510 On ch=1 n=d#5 v=58
1686595 On ch=1 n=d#5 v=0
1686610 On ch=1 n=c#7 v=80
1686615 On ch=1 n=c#6 v=81
1686660 On ch=1 n=c#6 v=0
1686665 On ch=1 n=c#7 v=0
1686710 On ch=1 n=d#4 v=60
1686720 On ch=1 n=c#7 v=73
1686725 On ch=1 n=c#6 v=77
1686825 On ch=1 n=c#6 v=0
1686840 On ch=1 n=c#7 v=0
1686840 On ch=1 n=d#4 v=0
1686955 Par ch=1 c=64 v=72
1686970 On ch=1 n=c7 v=92
1686970 Par ch=1 c=64 v=0
1686975 On ch=1 n=c6 v=87
1686995 On ch=1 n=c5 v=62
1686995 On ch=1 n=g#4 v=49
1687045 On ch=1 n=c6 v=0
1687075 Par ch=1 c=64 v=72
1687085 Par ch=1 c=64 v=127
1687090 On ch=1 n=c7 v=0
1687165 On ch=1 n=c5 v=0
1687220 On ch=1 n=d#5 v=63
1687330 On ch=1 n=d#7 v=84
1687335 On ch=1 n=d#6 v=70
1687375 On ch=1 n=d#6 v=0
1687375 On ch=1 n=d#7 v=0
1687420 On ch=1 n=d#4 v=71
1687425 On ch=1 n=d#7 v=83
1687430 On ch=1 n=d#6 v=86
1687440 On ch=1 n=g#4 v=0
1687455 On ch=1 n=d#5 v=0
1687485 On ch=1 n=d#7 v=0
1687495 On ch=1 n=d#4 v=0
1687500 On ch=1 n=d#6 v=0
1687595 Par ch=1 c=64 v=104
1687610 Par ch=1 c=64 v=56
1687625 Par ch=1 c=64 v=0
1687695 On ch=1 n=g#6 v=95
1687710 On ch=1 n=g#5 v=86
1687710 On ch=1 n=d#6 v=83
1687715 On ch=1 n=c4 v=82
1687725 On ch=1 n=c5 v=86
1687740 Par ch=1 c=64 v=56
1687755 Par ch=1 c=64 v=127
1687785 On ch=1 n=c5 v=0
1687800 On ch=1 n=c4 v=0
1688060 On ch=1 n=g#5 v=0
1688060 Par ch=1 c=64 v=88
1688070 On ch=1 n=c3 v=80
1688070 On ch=1 n=c4 v=102
1688075 Par ch=1 c=64 v=56
1688080 On ch=1 n=d#6 v=0
1688090 Par ch=1 c=64 v=24
1688095 On ch=1 n=g#6 v=0
1688105 Par ch=1 c=64 v=0
1688115 On ch=1 n=c4 v=0
1688120 On ch=1 n=c3 v=0
1688170 On ch=1 n=c4 v=99
1688175 On ch=1 n=c3 v=82
1688240 On ch=1 n=c3 v=0
1688280 On ch=1 n=c4 v=0
1688450 On ch=1 n=b3 v=110
1688450 On ch=1 n=b2 v=84
1688495 Par ch=1 c=64 v=72
1688510 On ch=1 n=b2 v=0
1688510 Par ch=1 c=64 v=127
1688530 On ch=1 n=b3 v=0
1688810 On ch=1 n=g#5 v=81
1688815 On ch=1 n=g#6 v=82
1688815 Par ch=1 c=64 v=88
1688820 On ch=1 n=c#6 v=64
1688820 On ch=1 n=b3 v=73
1688825 On ch=1 n=f6 v=73
1688825 On ch=1 n=b4 v=78
1688830 Par ch=1 c=64 v=72
1688845 On ch=1 n=f6 v=0
1688845 On ch=1 n=c#6 v=0
1688845 Par ch=1 c=64 v=40
1688860 On ch=1 n=g#6 v=0
1688860 On ch=1 n=g#5 v=0
1688860 Par ch=1 c=64 v=0
1688870 On ch=1 n=b4 v=0
1688880 On ch=1 n=b3 v=0
1688915 On ch=1 n=g#5 v=84
1688915 On ch=1 n=g#6 v=83
1688920 On ch=1 n=f6 v=87
1688925 On ch=1 n=c#6 v=75
1688930 On ch=1 n=b4 v=81
1688935 On ch=1 n=b3 v=75
1688950 On ch=1 n=c#6 v=0
1688965 On ch=1 n=g#5 v=0
1688985 On ch=1 n=b3 v=0
1688985 On ch=1 n=f6 v=0
1688995 On ch=1 n=g#6 v=0
1689000 On ch=1 n=b4 v=0
1689190 On ch=1 n=c#7 v=105
1689190 On ch=1 n=c#6 v=102
1689195 On ch=1 n=f#6 v=95
1689200 On ch=1 n=a#4 v=89
1689205 On ch=1 n=a#3 v=81
1689250 Par ch=1 c=64 v=72
1689260 On ch=1 n=a#4 v=0
1689265 Par ch=1 c=64 v=127
1689275 On ch=1 n=a#6 v=55
1689285 On ch=1 n=a#3 v=0
1689550 On ch=1 n=a#2 v=77
1689555 On ch=1 n=a#3 v=84
1689570 On ch=1 n=f#6 v=0
1689585 On ch=1 n=a#6 v=0
1689585 On ch=1 n=c#6 v=0
1689595 On ch=1 n=a#3 v=0
1689595 On ch=1 n=a#2 v=0
1689595 On ch=1 n=c#7 v=0
1689600 Par ch=1 c=64 v=104
1689615 Par ch=1 c=64 v=72
1689630 Par ch=1 c=64 v=40
1689645 Par ch=1 c=64 v=0
1689655 On ch=1 n=a#3 v=89
1689660 On ch=1 n=a#2 v=74
1689710 On ch=1 n=a#2 v=0
1689715 On ch=1 n=a#3 v=0
1689935 On ch=1 n=c#4 v=106
1689940 On ch=1 n=c#3 v=82
1689980 Par ch=1 c=64 v=88
1689990 Par ch=1 c=64 v=127
1689995 On ch=1 n=c#3 v=0
1690000 On ch=1 n=c#4 v=0
1690280 On ch=1 n=a#6 v=79
1690280 On ch=1 n=a#5 v=85
1690290 On ch=1 n=d#6 v=67
1690290 On ch=1 n=g6 v=73
1690295 On ch=1 n=c#5 v=80
1690295 On ch=1 n=c#4 v=73
1690310 Par ch=1 c=64 v=88
1690315 On ch=1 n=g6 v=0
1690325 On ch=1 n=d#6 v=0
1690325 On ch=1 n=a#6 v=0
1690330 On ch=1 n=a#5 v=0
1690330 Par ch=1 c=64 v=56
1690335 On ch=1 n=c#4 v=0
1690335 On ch=1 n=c#5 v=0
1690340 Par ch=1 c=64 v=24
1690355 Par ch=1 c=64 v=0
1690385 On ch=1 n=a#5 v=85
1690385 On ch=1 n=a#6 v=83
1690395 On ch=1 n=g6 v=85
1690400 On ch=1 n=d#6 v=67
1690410 On ch=1 n=c#5 v=85
1690410 On ch=1 n=c#4 v=68
1690420 On ch=1 n=d#6 v=0
1690430 On ch=1 n=a#5 v=0
1690450 On ch=1 n=c#4 v=0
1690450 On ch=1 n=g6 v=0
1690455 On ch=1 n=c#5 v=0
1690460 On ch=1 n=a#6 v=0
1690655 On ch=1 n=d#7 v=103
1690660 On ch=1 n=d#6 v=102
1690665 On ch=1 n=g#6 v=96
1690670 On ch=1 n=c5 v=88
1690675 On ch=1 n=c4 v=83
1690690 Par ch=1 c=64 v=72
1690705 Par ch=1 c=64 v=127
1690715 On ch=1 n=c5 v=0
1690745 On ch=1 n=c4 v=0
1691010 On ch=1 n=c3 v=68
1691015 On ch=1 n=c4 v=88
1691055 On ch=1 n=d#7 v=0
1691060 On ch=1 n=c4 v=0
1691065 On ch=1 n=c3 v=0
1691085 On ch=1 n=g#6 v=0
1691095 Par ch=1 c=64 v=104
1691105 On ch=1 n=d#6 v=0
1691110 Par ch=1 c=64 v=88
1691120 On ch=1 n=c4 v=90
1691125 Par ch=1 c=64 v=56
1691130 On ch=1 n=c3 v=71
1691140 Par ch=1 c=64 v=40
1691155 Par ch=1 c=64 v=24
1691185 Par ch=1 c=64 v=0
1691190 On ch=1 n=c3 v=0
1691195 On ch=1 n=c4 v=0
1691400 On ch=1 n=c#7 v=93
1691405 On ch=1 n=c#6 v=95
1691405 On ch=1 n=g#6 v=88
1691410 On ch=1 n=a#2 v=75
1691415 On ch=1 n=a#3 v=97
1691445 Par ch=1 c=64 v=40
1691460 On ch=1 n=a#2 v=0
1691460 Par ch=1 c=64 v=127
1691465 On ch=1 n=a#3 v=0
1691485 On ch=1 n=c#7 v=0
1691490 On ch=1 n=g#6 v=0
1691490 On ch=1 n=c#6 v=0
1691755 On ch=1 n=f5 v=79
1691755 On ch=1 n=g#5 v=74
1691755 On ch=1 n=g#4 v=61
1691760 On ch=1 n=c#6 v=85
1691760 On ch=1 n=c#5 v=56
1691790 On ch=1 n=c#5 v=0
1691795 On ch=1 n=f5 v=0
1691805 On ch=1 n=g#4 v=0
1691805 On ch=1 n=g#5 v=0
1691810 On ch=1 n=c#6 v=0
1691840 Par ch=1 c=64 v=104
1691850 Par ch=1 c=64 v=72
1691855 On ch=1 n=g#5 v=77
1691860 On ch=1 n=c#6 v=85
1691865 Par ch=1 c=64 v=56
1691870 On ch=1 n=e5 v=89
1691870 On ch=1 n=g#4 v=60
1691875 On ch=1 n=c#5 v=65
1691880 Par ch=1 c=64 v=24
1691910 On ch=1 n=g#5 v=0
1691910 Par ch=1 c=64 v=0
1691920 On ch=1 n=c#5 v=0
1691920 On ch=1 n=g#4 v=0
1691920 On ch=1 n=e5 v=0
1691925 On ch=1 n=c#6 v=0
1692125 On ch=1 n=c7 v=96
1692130 On ch=1 n=g6 v=94
1692130 On ch=1 n=c6 v=94
1692135 On ch=1 n=d#3 v=70
1692145 On ch=1 n=d#4 v=90
1692170 Par ch=1 c=64 v=40
1692185 Par ch=1 c=64 v=104
1692195 On ch=1 n=d#4 v=0
1692195 On ch=1 n=d#3 v=0
1692200 Par ch=1 c=64 v=127
1692220 On ch=1 n=c6 v=0
1692220 On ch=1 n=g6 v=0
1692225 On ch=1 n=c7 v=0
1692475 On ch=1 n=c6 v=84
1692475 On ch=1 n=d#5 v=65
1692480 On ch=1 n=c5 v=73
1692485 On ch=1 n=g5 v=58
1692510 On ch=1 n=g5 v=0
1692510 On ch=1 n=c5 v=0
1692525 On ch=1 n=d#5 v=0
1692530 On ch=1 n=c6 v=0
1692565 Par ch=1 c=64 v=104
1692575 On ch=1 n=c6 v=93
1692575 On ch=1 n=g5 v=68
1692580 Par ch=1 c=64 v=88
1692585 On ch=1 n=d#5 v=65
1692595 On ch=1 n=c5 v=73
1692595 Par ch=1 c=64 v=72
1692610 Par ch=1 c=64 v=56
1692615 On ch=1 n=c5 v=0
1692620 Par ch=1 c=64 v=40
1692630 On ch=1 n=g5 v=0
1692635 On ch=1 n=d#5 v=0
1692635 Par ch=1 c=64 v=24
1692640 On ch=1 n=c6 v=0
1692665 Par ch=1 c=64 v=0
1692855 On ch=1 n=a#6 v=84
1692860 On ch=1 n=g6 v=89
1692865 On ch=1 n=a#5 v=89
1692875 On ch=1 n=c#3 v=73
1692875 On ch=1 n=c#4 v=96
1692900 Par ch=1 c=64 v=40
1692915 Par ch=1 c=64 v=127
1692935 On ch=1 n=c#4 v=0
1692935 On ch=1 n=c#3 v=0
1692950 On ch=1 n=a#5 v=0
1692955 On ch=1 n=g6 v=0
1692960 On ch=1 n=a#6 v=0
1693220 On ch=1 n=a#5 v=71
1693220 On ch=1 n=g5 v=73
1693235 On ch=1 n=d#5 v=62
1693250 On ch=1 n=a#4 v=31
1693265 On ch=1 n=d#5 v=0
1693265 On ch=1 n=a#5 v=0
1693275 On ch=1 n=a#4 v=0
1693280 On ch=1 n=g5 v=0
1693335 On ch=1 n=a#5 v=84
1693335 On ch=1 n=g5 v=67
1693350 On ch=1 n=d#5 v=76
1693355 On ch=1 n=a#4 v=69
1693370 On ch=1 n=g5 v=0
1693395 On ch=1 n=d#5 v=0
1693395 On ch=1 n=a#5 v=0
1693400 On ch=1 n=a#4 v=0
1693580 Par ch=1 c=64 v=88
1693595 Par ch=1 c=64 v=56
1693610 Par ch=1 c=64 v=0
1693635 On ch=1 n=d#7 v=97
1693640 On ch=1 n=d#6 v=105
1693645 On ch=1 n=g#6 v=95
1693655 On ch=1 n=c3 v=79
1693660 On ch=1 n=c4 v=96
1693695 Par ch=1 c=64 v=72
1693705 On ch=1 n=c3 v=0
1693710 Par ch=1 c=64 v=127
1693725 On ch=1 n=c4 v=0
1693730 On ch=1 n=d#6 v=0
1693730 On ch=1 n=d#7 v=0
1693735 On ch=1 n=g#6 v=0
1694000 On ch=1 n=d#6 v=76
1694000 On ch=1 n=g#5 v=72
1694010 On ch=1 n=c6 v=78
1694015 On ch=1 n=d#5 v=76
1694020 On ch=1 n=g#4 v=57
1694035 On ch=1 n=c6 v=0
1694045 On ch=1 n=g#4 v=0
1694055 On ch=1 n=d#6 v=0
1694060 On ch=1 n=d#5 v=0
1694060 On ch=1 n=g#5 v=0
1694110 On ch=1 n=g#5 v=69
1694115 On ch=1 n=d#6 v=79
1694120 On ch=1 n=c6 v=82
1694130 On ch=1 n=d#5 v=77
1694130 On ch=1 n=g#4 v=68
1694150 On ch=1 n=c6 v=0
1694165 On ch=1 n=g#5 v=0
1694180 On ch=1 n=d#5 v=0
1694185 On ch=1 n=d#6 v=0
1694190 On ch=1 n=g#4 v=0
1694395 Par ch=1 c=64 v=56
1694410 Par ch=1 c=64 v=0
1694435 On ch=1 n=c#7 v=99
1694440 On ch=1 n=c#6 v=99
1694440 On ch=1 n=g#6 v=91
1694450 On ch=1 n=a#2 v=81
1694455 On ch=1 n=a#3 v=100
1694470 On ch=1 n=d#3 v=40
1694495 On ch=1 n=d#3 v=0
1694505 On ch=1 n=a#3 v=0
1694510 On ch=1 n=a#2 v=0
1694510 Par ch=1 c=64 v=127
1694540 On ch=1 n=c#7 v=0
1694545 On ch=1 n=g#6 v=0
1694555 On ch=1 n=c#6 v=0
1694800 On ch=1 n=f6 v=87
1694805 On ch=1 n=g#5 v=77
1694815 On ch=1 n=c#6 v=64
1694815 On ch=1 n=f5 v=70
1694820 On ch=1 n=g#4 v=57
1694825 On ch=1 n=c#5 v=45
1694850 On ch=1 n=c#5 v=0
1694850 On ch=1 n=f5 v=0
1694860 On ch=1 n=c#6 v=0
1694865 On ch=1 n=g#4 v=0
1694865 On ch=1 n=g#5 v=0
1694880 On ch=1 n=f6 v=0
1694930 On ch=1 n=e6 v=96
1694930 On ch=1 n=g#5 v=78
1694930 On ch=1 n=c#6 v=70
1694940 On ch=1 n=c#5 v=75
1694945 On ch=1 n=e5 v=84
1694945 On ch=1 n=g#4 v=64
1694980 On ch=1 n=e5 v=0
1694985 On ch=1 n=c#6 v=0
1694985 On ch=1 n=g#5 v=0
1694990 On ch=1 n=c#5 v=0
1695005 On ch=1 n=g#4 v=0
1695015 On ch=1 n=e6 v=0
1695180 Par ch=1 c=64 v=88
1695195 Par ch=1 c=64 v=40
1695210 Par ch=1 c=64 v=0
1695230 On ch=1 n=c7 v=99
1695235 On ch=1 n=c6 v=96
1695235 On ch=1 n=g6 v=92
1695245 On ch=1 n=d#3 v=76
1695255 On ch=1 n=d#4 v=91
1695310 Par ch=1 c=64 v=88
1695315 On ch=1 n=d#4 v=0
1695320 On ch=1 n=d#3 v=0
1695325 Par ch=1 c=64 v=127
1695345 On ch=1 n=g6 v=0
1695345 On ch=1 n=c7 v=0
1695360 On ch=1 n=c6 v=0
1695625 On ch=1 n=c6 v=84
1695630 On ch=1 n=c5 v=77
1695630 On ch=1 n=d#5 v=68
1695630 On ch=1 n=g5 v=57
1695665 On ch=1 n=g5 v=0
1695680 On ch=1 n=d#5 v=0
1695685 On ch=1 n=c6 v=0
1695690 On ch=1 n=c5 v=0
1695740 On ch=1 n=c6 v=92
1695750 On ch=1 n=g5 v=63
1695770 On ch=1 n=d#5 v=71
1695780 On ch=1 n=c5 v=66
1695800 On ch=1 n=g5 v=0
1695810 On ch=1 n=c6 v=0
1695825 On ch=1 n=d#5 v=0
1695840 On ch=1 n=c5 v=0
1696065 On ch=1 n=a#6 v=90
1696065 Par ch=1 c=64 v=40
1696075 On ch=1 n=a#5 v=93
1696080 On ch=1 n=g6 v=94
1696080 Par ch=1 c=64 v=0
1696085 On ch=1 n=d#3 v=100
1696090 On ch=1 n=d#2 v=85
1696150 On ch=1 n=d#3 v=0
1696155 On ch=1 n=d#2 v=0
1696170 Par ch=1 c=64 v=127
1696180 On ch=1 n=a#5 v=0
1696190 On ch=1 n=g6 v=0
1696195 On ch=1 n=a#6 v=0
1696520 On ch=1 n=a#5 v=77
1696525 On ch=1 n=c#5 v=70
1696525 On ch=1 n=d#5 v=70
1696530 On ch=1 n=g5 v=63
1696575 On ch=1 n=d#5 v=0
1696575 On ch=1 n=c#5 v=0
1696585 On ch=1 n=g5 v=0
1696590 On ch=1 n=a#5 v=0
1696660 On ch=1 n=a#5 v=73
1696660 On ch=1 n=g5 v=61
1696665 On ch=1 n=d#5 v=76
1696670 On ch=1 n=c#5 v=70
1696695 On ch=1 n=c#5 v=0
1696710 On ch=1 n=d#5 v=0
1696720 On ch=1 n=g5 v=0
1696720 On ch=1 n=a#5 v=0
1697070 Par ch=1 c=64 v=88
1697075 Par ch=1 c=64 v=127
1697080 On ch=1 n=g#6 v=95
1697080 On ch=1 n=g#5 v=80
1697080 On ch=1 n=g#2 v=70
1697085 On ch=1 n=d#6 v=77
1697085 On ch=1 n=d#3 v=65
1697095 On ch=1 n=g#3 v=65
1697120 On ch=1 n=d#3 v=0
1697125 On ch=1 n=g#3 v=0
1697125 On ch=1 n=g#2 v=0
1697130 On ch=1 n=g#5 v=0
1697135 On ch=1 n=d#6 v=0
1697240 On ch=1 n=g#6 v=0
1697300 On ch=1 n=d#6 v=87
1697320 On ch=1 n=c5 v=61
1697320 On ch=1 n=g#4 v=53
1697335 On ch=1 n=d#4 v=49
1697350 On ch=1 n=c5 v=0
1697370 On ch=1 n=g#4 v=0
1697370 On ch=1 n=d#6 v=0
1697395 On ch=1 n=d#4 v=0
1697465 On ch=1 n=g#3 v=70
1697525 On ch=1 n=g#3 v=0
1697630 On ch=1 n=f6 v=92
1697650 On ch=1 n=g#4 v=54
1697655 On ch=1 n=d#4 v=61
1697655 On ch=1 n=c5 v=56
1697700 On ch=1 n=g#4 v=0
1697705 On ch=1 n=c5 v=0
1697725 On ch=1 n=d#4 v=0
1697745 On ch=1 n=f6 v=0
1697790 On ch=1 n=g#3 v=69
1697850 On ch=1 n=g#3 v=0
1697960 On ch=1 n=g6 v=88
1697980 On ch=1 n=c5 v=56
1697980 On ch=1 n=g#4 v=50
1697980 On ch=1 n=d#4 v=54
1698015 On ch=1 n=c5 v=0
1698020 On ch=1 n=g#4 v=0
1698040 On ch=1 n=d#4 v=0
1698130 Par ch=1 c=64 v=24
1698140 On ch=1 n=g#3 v=67
1698140 Par ch=1 c=64 v=0
1698190 On ch=1 n=g#3 v=0
1698190 Par ch=1 c=64 v=40
1698200 Par ch=1 c=64 v=127
1698275 On ch=1 n=g6 v=0
1698310 On ch=1 n=g#6 v=96
1698315 On ch=1 n=c#5 v=53
1698320 On ch=1 n=d#4 v=49
1698330 On ch=1 n=g4 v=51
1698355 On ch=1 n=c#5 v=0
1698375 On ch=1 n=g4 v=0
1698415 On ch=1 n=d#4 v=0
1698455 On ch=1 n=g#3 v=65
1698490 On ch=1 n=g#6 v=0
1698515 On ch=1 n=g#3 v=0
1698635 On ch=1 n=a#6 v=91
1698635 On ch=1 n=c#5 v=52
1698645 On ch=1 n=g4 v=62
1698645 On ch=1 n=d#4 v=56
1698690 On ch=1 n=c#5 v=0
1698705 On ch=1 n=g4 v=0
1698745 On ch=1 n=d#4 v=0
1698790 On ch=1 n=g#3 v=65
1698835 On ch=1 n=g#3 v=0
1698860 On ch=1 n=a#6 v=0
1698955 On ch=1 n=c7 v=96
1698955 On ch=1 n=c#5 v=55
1698960 On ch=1 n=g4 v=61
1698965 On ch=1 n=d#4 v=58
1698985 On ch=1 n=g4 v=0
1699000 On ch=1 n=c#5 v=0
1699070 Par ch=1 c=64 v=40
1699085 Par ch=1 c=64 v=0
1699095 On ch=1 n=d#4 v=0
1699115 On ch=1 n=g#3 v=73
1699155 Par ch=1 c=64 v=56
1699170 On ch=1 n=g#3 v=0
1699170 Par ch=1 c=64 v=127
1699245 On ch=1 n=c7 v=0
1699280 On ch=1 n=a#6 v=95
1699280 On ch=1 n=c5 v=68
1699285 On ch=1 n=g#4 v=60
1699290 On ch=1 n=d#4 v=55
1699330 On ch=1 n=c5 v=0
1699335 On ch=1 n=g#4 v=0
1699360 On ch=1 n=d#4 v=0
1699440 On ch=1 n=g#3 v=64
1699490 On ch=1 n=g#3 v=0
1699580 On ch=1 n=a#6 v=0
1699595 On ch=1 n=g#6 v=93
1699605 On ch=1 n=c5 v=70
1699605 On ch=1 n=d#4 v=68
1699610 On ch=1 n=g#4 v=50
1699630 On ch=1 n=g#4 v=0
1699630 On ch=1 n=c5 v=0
1699655 On ch=1 n=d#4 v=0
1699675 On ch=1 n=g#6 v=0
1699750 On ch=1 n=g#3 v=60
1699805 On ch=1 n=g#3 v=0
1699905 On ch=1 n=f6 v=92
1699910 On ch=1 n=c5 v=63
1699910 On ch=1 n=d#4 v=63
1699930 On ch=1 n=g#4 v=22
1699940 On ch=1 n=c5 v=0
1699955 On ch=1 n=g#4 v=0
1699970 On ch=1 n=d#4 v=0
1700015 Par ch=1 c=64 v=104
1700030 Par ch=1 c=64 v=0
1700060 On ch=1 n=g#3 v=67
1700115 Par ch=1 c=64 v=56
1700120 On ch=1 n=g#3 v=0
1700125 Par ch=1 c=64 v=127
1700185 On ch=1 n=f6 v=0
1700215 On ch=1 n=d#6 v=85
1700240 On ch=1 n=c#5 v=52
1700245 On ch=1 n=g4 v=54
1700250 On ch=1 n=d#4 v=55
1700280 On ch=1 n=c#5 v=0
1700295 On ch=1 n=g4 v=0
1700320 On ch=1 n=d#6 v=0
1700330 On ch=1 n=d#4 v=0
1700365 On ch=1 n=g#3 v=71
1700370 On ch=1 n=d6 v=94
1700435 On ch=1 n=g#3 v=0
1700475 On ch=1 n=d6 v=0
1700525 On ch=1 n=d#6 v=96
1700535 On ch=1 n=c#5 v=61
1700540 On ch=1 n=d#4 v=60
1700545 On ch=1 n=g4 v=56
1700580 On ch=1 n=c#5 v=0
1700590 On ch=1 n=g4 v=0
1700630 On ch=1 n=d#4 v=0
1700650 On ch=1 n=d#6 v=0
1700685 On ch=1 n=g6 v=99
1700690 On ch=1 n=g#3 v=44
1700735 On ch=1 n=g#3 v=0
1700795 On ch=1 n=g6 v=0
1700830 On ch=1 n=f6 v=97
1700850 On ch=1 n=c#5 v=51
1700855 On ch=1 n=d#4 v=42
1700860 On ch=1 n=g4 v=53
1700890 On ch=1 n=c#5 v=0
1700910 On ch=1 n=g4 v=0
1700945 On ch=1 n=f6 v=0
1700970 On ch=1 n=d#4 v=0
1700980 On ch=1 n=c#6 v=94
1700990 On ch=1 n=g#3 v=57
1701040 On ch=1 n=g#3 v=0
1701060 On ch=1 n=c#6 v=0
1701115 Par ch=1 c=64 v=88
1701130 Par ch=1 c=64 v=0
1701140 On ch=1 n=c6 v=90
1701155 On ch=1 n=c5 v=63
1701155 On ch=1 n=g#4 v=53
1701160 On ch=1 n=d#4 v=58
1701185 On ch=1 n=c5 v=0
1701195 On ch=1 n=g#4 v=0
1701215 On ch=1 n=d#4 v=0
1701215 Par ch=1 c=64 v=104
1701225 Par ch=1 c=64 v=127
1701245 On ch=1 n=c6 v=0
1701300 On ch=1 n=g#3 v=60
1701305 On ch=1 n=d#6 v=89
1701315 On ch=1 n=d#5 v=70
1701350 On ch=1 n=g#3 v=0
1701385 On ch=1 n=d#5 v=0
1701460 On ch=1 n=c5 v=60
1701460 On ch=1 n=d#4 v=62
1701470 On ch=1 n=g#4 v=44
1701485 On ch=1 n=c5 v=0
1701485 On ch=1 n=d#6 v=0
1701495 On ch=1 n=g#4 v=0
1701515 On ch=1 n=d#4 v=0
1701605 On ch=1 n=f6 v=96
1701605 On ch=1 n=g#3 v=62
1701610 On ch=1 n=f5 v=76
1701670 On ch=1 n=g#3 v=0
1701705 On ch=1 n=f5 v=0
1701770 On ch=1 n=d#4 v=69
1701770 On ch=1 n=c5 v=62
1701775 On ch=1 n=g#4 v=40
1701790 On ch=1 n=c5 v=0
1701795 On ch=1 n=g#4 v=0
1701820 On ch=1 n=d#4 v=0
1701850 On ch=1 n=f6 v=0
1701905 On ch=1 n=g#3 v=59
1701910 On ch=1 n=g6 v=99
1701910 On ch=1 n=g5 v=84
1701965 On ch=1 n=g#3 v=0
1702025 Par ch=1 c=64 v=104
1702035 Par ch=1 c=64 v=24
1702050 Par ch=1 c=64 v=0
1702065 On ch=1 n=g5 v=0
1702080 On ch=1 n=g4 v=80
1702080 On ch=1 n=c#5 v=73
1702080 On ch=1 n=d#4 v=62
1702090 On ch=1 n=g6 v=0
1702110 Par ch=1 c=64 v=72
1702120 Par ch=1 c=64 v=127
1702125 On ch=1 n=c#5 v=0
1702125 On ch=1 n=g4 v=0
1702135 On ch=1 n=d#4 v=0
1702225 On ch=1 n=g#6 v=102
1702225 On ch=1 n=g#3 v=62
1702230 On ch=1 n=g#5 v=85
1702280 On ch=1 n=g#3 v=0
1702325 On ch=1 n=g#5 v=0
1702360 On ch=1 n=g#6 v=0
1702390 On ch=1 n=c#5 v=65
1702395 On ch=1 n=g4 v=66
1702395 On ch=1 n=d#4 v=57
1702420 On ch=1 n=g4 v=0
1702435 On ch=1 n=c#5 v=0
1702455 On ch=1 n=d#4 v=0
1702535 On ch=1 n=a#6 v=97
1702540 On ch=1 n=g#3 v=45
1702540 On ch=1 n=a#5 v=91
1702590 On ch=1 n=g#3 v=0
1702660 On ch=1 n=a#5 v=0
1702700 On ch=1 n=d#4 v=54
1702700 On ch=1 n=g4 v=59
1702705 On ch=1 n=c#5 v=60
1702740 On ch=1 n=g4 v=0
1702745 On ch=1 n=c#5 v=0
1702770 On ch=1 n=a#6 v=0
1702780 On ch=1 n=d#4 v=0
1702845 On ch=1 n=g#3 v=59
1702855 On ch=1 n=c7 v=102
1702855 On ch=1 n=c6 v=94
1702910 On ch=1 n=g#3 v=0
1702985 On ch=1 n=c7 v=0
1702995 On ch=1 n=c5 v=68
1702995 On ch=1 n=d#4 v=63
1702995 On ch=1 n=g#4 v=63
1703015 On ch=1 n=c6 v=0
1703055 On ch=1 n=c5 v=0
1703065 On ch=1 n=g#4 v=0
1703065 On ch=1 n=d#4 v=0
1703125 Par ch=1 c=64 v=104
1703140 Par ch=1 c=64 v=24
1703150 On ch=1 n=a#6 v=92
1703150 Par ch=1 c=64 v=0
1703160 On ch=1 n=a#5 v=85
1703160 On ch=1 n=g#3 v=63
1703210 Par ch=1 c=64 v=40
1703220 On ch=1 n=g#3 v=0
1703225 Par ch=1 c=64 v=127
1703305 On ch=1 n=c5 v=68
1703310 On ch=1 n=g#4 v=58
1703320 On ch=1 n=a#6 v=0
1703320 On ch=1 n=d#4 v=50
1703330 On ch=1 n=c5 v=0
1703330 On ch=1 n=a#5 v=0
1703335 On ch=1 n=g#4 v=0
1703340 On ch=1 n=d#4 v=0
1703450 On ch=1 n=g#3 v=62
1703450 On ch=1 n=g#6 v=91
1703460 On ch=1 n=g#5 v=82
1703510 On ch=1 n=g#3 v=0
1703555 On ch=1 n=g#6 v=0
1703580 On ch=1 n=g#5 v=0
1703600 On ch=1 n=c5 v=70
1703605 On ch=1 n=g#4 v=60
1703610 On ch=1 n=d#4 v=60
1703625 On ch=1 n=g#4 v=0
1703625 On ch=1 n=c5 v=0
1703655 On ch=1 n=d#4 v=0
1703745 On ch=1 n=g#3 v=63
1703750 On ch=1 n=f6 v=92
1703760 On ch=1 n=f5 v=74
1703800 On ch=1 n=g#3 v=0
1703865 Par ch=1 c=64 v=56
1703870 On ch=1 n=f5 v=0
1703870 On ch=1 n=f6 v=0
1703875 Par ch=1 c=64 v=0
1703915 On ch=1 n=c#5 v=67
1703915 On ch=1 n=g4 v=70
1703915 On ch=1 n=d#4 v=53
1703945 On ch=1 n=g4 v=0
1703950 Par ch=1 c=64 v=104
1703960 On ch=1 n=c#5 v=0
1703960 Par ch=1 c=64 v=127
1704005 On ch=1 n=d#4 v=0
1704055 On ch=1 n=d#6 v=85
1704055 On ch=1 n=g#3 v=56
1704060 On ch=1 n=d#5 v=77
1704115 On ch=1 n=g#3 v=0
1704130 On ch=1 n=d#5 v=0
1704140 On ch=1 n=d#6 v=0
1704205 On ch=1 n=d6 v=89
1704210 On ch=1 n=d5 v=74
1704215 On ch=1 n=g4 v=59
1704220 On ch=1 n=d#4 v=48
1704235 On ch=1 n=g4 v=0
1704245 On ch=1 n=d#4 v=0
1704250 On ch=1 n=d5 v=0
1704260 On ch=1 n=d6 v=0
1704345 On ch=1 n=d#6 v=87
1704350 On ch=1 n=d#5 v=83
1704350 On ch=1 n=g#3 v=68
1704360 On ch=1 n=g4 v=56
1704385 On ch=1 n=d#5 v=0
1704405 On ch=1 n=g#3 v=0
1704410 On ch=1 n=d#6 v=0
1704425 On ch=1 n=g4 v=0
1704495 On ch=1 n=g6 v=96
1704500 On ch=1 n=g5 v=82
1704505 On ch=1 n=g4 v=62
1704515 On ch=1 n=c#5 v=62
1704515 On ch=1 n=d#4 v=54
1704545 On ch=1 n=g5 v=0
1704570 On ch=1 n=g6 v=0
1704575 On ch=1 n=g4 v=0
1704585 On ch=1 n=d#4 v=0
1704595 On ch=1 n=c#5 v=0
1704645 On ch=1 n=f6 v=96
1704645 On ch=1 n=g#3 v=57
1704650 On ch=1 n=f5 v=76
1704685 On ch=1 n=g#3 v=0
1704700 On ch=1 n=f5 v=0
1704705 On ch=1 n=f6 v=0
1704785 On ch=1 n=c#6 v=88
1704785 On ch=1 n=c#5 v=76
1704785 On ch=1 n=g4 v=41
1704800 On ch=1 n=d#4 v=60
1704825 On ch=1 n=g4 v=0
1704830 On ch=1 n=c#5 v=0
1704870 On ch=1 n=d#4 v=0
1704885 On ch=1 n=c#6 v=0
1704920 Par ch=1 c=64 v=40
1704930 Par ch=1 c=64 v=0
1704955 On ch=1 n=c6 v=96
1704955 On ch=1 n=c5 v=74
1704955 On ch=1 n=g#3 v=63
1704990 Par ch=1 c=64 v=24
1704995 On ch=1 n=c5 v=0
1705005 Par ch=1 c=64 v=88
1705015 On ch=1 n=c6 v=0
1705015 Par ch=1 c=64 v=127
1705025 On ch=1 n=g#3 v=0
1705105 On ch=1 n=d#6 v=89
1705105 On ch=1 n=d#5 v=80
1705105 On ch=1 n=c5 v=51
1705110 On ch=1 n=g#4 v=55
1705145 On ch=1 n=d#5 v=0
1705175 On ch=1 n=d#6 v=0
1705185 On ch=1 n=g#4 v=0
1705195 On ch=1 n=c5 v=0
1705255 On ch=1 n=c4 v=77
1705345 On ch=1 n=c4 v=0
1705385 On ch=1 n=g#6 v=89
1705390 On ch=1 n=g#5 v=79
1705390 Par ch=1 c=64 v=72
1705400 On ch=1 n=g#4 v=67
1705400 Par ch=1 c=64 v=24
1705410 On ch=1 n=c5 v=63
1705415 Par ch=1 c=64 v=0
1705440 Par ch=1 c=64 v=40
1705450 Par ch=1 c=64 v=88
1705465 Par ch=1 c=64 v=127
1705485 On ch=1 n=c5 v=0
1705510 Par ch=1 c=64 v=56
1705515 On ch=1 n=g#4 v=0
1705520 On ch=1 n=g#5 v=0
1705525 Par ch=1 c=64 v=0
1705550 On ch=1 n=d#4 v=83
1705580 On ch=1 n=g#6 v=0
1705585 Par ch=1 c=64 v=72
1705595 Par ch=1 c=64 v=127
1705665 On ch=1 n=d#4 v=0
1705690 On ch=1 n=a#6 v=88
1705690 On ch=1 n=a#5 v=85
1705700 On ch=1 n=c5 v=60
1705700 On ch=1 n=g#4 v=63
1705735 On ch=1 n=a#5 v=0
1705745 On ch=1 n=c5 v=0
1705770 On ch=1 n=g#4 v=0
1705825 Par ch=1 c=64 v=24
1705835 On ch=1 n=a#6 v=0
1705840 Par ch=1 c=64 v=0
1705850 On ch=1 n=f3 v=96
1705910 Par ch=1 c=64 v=127
1705915 On ch=1 n=f3 v=0
1706015 On ch=1 n=c7 v=100
1706015 On ch=1 n=c6 v=94
1706020 On ch=1 n=a4 v=77
1706020 On ch=1 n=c5 v=70
1706040 On ch=1 n=a4 v=0
1706050 On ch=1 n=c5 v=0
1706065 On ch=1 n=c6 v=0
1706110 On ch=1 n=c7 v=0
1706165 On ch=1 n=a3 v=85
1706210 On ch=1 n=a3 v=0
1706310 Par ch=1 c=64 v=104
1706315 On ch=1 n=f7 v=102
1706320 On ch=1 n=f6 v=93
1706320 On ch=1 n=c5 v=66
1706320 On ch=1 n=a4 v=71
1706325 Par ch=1 c=64 v=0
1706385 On ch=1 n=a4 v=0
1706385 On ch=1 n=c5 v=0
1706395 Par ch=1 c=64 v=88
1706405 Par ch=1 c=64 v=127
1706445 On ch=1 n=f7 v=0
1706455 On ch=1 n=f6 v=0
1706465 On ch=1 n=c4 v=75
1706520 On ch=1 n=c4 v=0
1706615 On ch=1 n=a4 v=63
1706615 On ch=1 n=d#7 v=96
1706625 On ch=1 n=d#6 v=77
1706630 On ch=1 n=c5 v=62
1706665 On ch=1 n=a4 v=0
1706685 On ch=1 n=c5 v=0
1706745 Par ch=1 c=64 v=56
1706760 Par ch=1 c=64 v=0
1706765 On ch=1 n=a#3 v=81
1706805 Par ch=1 c=64 v=72
1706820 Par ch=1 c=64 v=127
1706825 On ch=1 n=a#3 v=0
1706825 On ch=1 n=d#7 v=0
1706830 On ch=1 n=d#6 v=0
1706925 On ch=1 n=c#7 v=89
1706930 On ch=1 n=c#5 v=44
1706935 On ch=1 n=c#6 v=79
1706935 On ch=1 n=a#4 v=55
1706980 On ch=1 n=a#4 v=0
1707000 On ch=1 n=c#5 v=0
1707060 On ch=1 n=c#6 v=0
1707060 On ch=1 n=c#7 v=0
1707065 On ch=1 n=c#4 v=72
1707150 On ch=1 n=c#4 v=0
1707230 On ch=1 n=c7 v=93
1707235 On ch=1 n=c6 v=86
1707240 On ch=1 n=c#5 v=54
1707240 On ch=1 n=a#4 v=53
1707320 On ch=1 n=a#4 v=0
1707325 On ch=1 n=c6 v=0
1707330 On ch=1 n=c#5 v=0
1707380 On ch=1 n=f4 v=77
1707405 On ch=1 n=c7 v=0
1707495 On ch=1 n=f4 v=0
1707520 On ch=1 n=a#6 v=91
1707525 On ch=1 n=a#5 v=85
1707535 On ch=1 n=a#4 v=57
1707540 On ch=1 n=c#5 v=61
1707570 On ch=1 n=a#5 v=0
1707600 On ch=1 n=a#6 v=0
1707615 On ch=1 n=a#4 v=0
1707635 On ch=1 n=c#5 v=0
1707665 Par ch=1 c=64 v=72
1707680 On ch=1 n=d#4 v=82
1707680 Par ch=1 c=64 v=0
1707750 Par ch=1 c=64 v=104
1707760 Par ch=1 c=64 v=127
1707790 On ch=1 n=d#4 v=0
1707825 On ch=1 n=d#7 v=97
1707830 On ch=1 n=d#6 v=99
1707840 On ch=1 n=d#5 v=58
1707840 On ch=1 n=c5 v=69
1707930 On ch=1 n=c5 v=0
1707930 On ch=1 n=d#5 v=0
1707955 Par ch=1 c=64 v=40
1707970 Par ch=1 c=64 v=0
1707975 On ch=1 n=d#6 v=0
1707975 On ch=1 n=d#4 v=76
1707990 Par ch=1 c=64 v=56
1708005 Par ch=1 c=64 v=127
1708025 On ch=1 n=d#4 v=0
1708040 On ch=1 n=d#7 v=0
1708125 On ch=1 n=f7 v=110
1708130 On ch=1 n=f6 v=103
1708135 On ch=1 n=f5 v=70
1708140 On ch=1 n=d5 v=62
1708150 On ch=1 n=b4 v=60
1708165 On ch=1 n=d5 v=0
1708175 On ch=1 n=b4 v=0
1708190 On ch=1 n=f5 v=0
1708260 Par ch=1 c=64 v=24
1708270 Par ch=1 c=64 v=0
1708275 On ch=1 n=f6 v=0
1708280 On ch=1 n=d#4 v=79
1708305 Par ch=1 c=64 v=56
1708320 Par ch=1 c=64 v=127
1708335 On ch=1 n=d#4 v=0
1708395 On ch=1 n=f7 v=0
1708430 On ch=1 n=g5 v=77
1708435 On ch=1 n=g7 v=110
1708440 On ch=1 n=g6 v=103
1708440 On ch=1 n=c#5 v=53
1708440 On ch=1 n=a#4 v=64
1708470 On ch=1 n=g5 v=0
1708490 On ch=1 n=a#4 v=0
1708495 On ch=1 n=c#5 v=0
1708570 Par ch=1 c=64 v=72
1708585 Par ch=1 c=64 v=0
1708590 On ch=1 n=g#3 v=80
1708620 Par ch=1 c=64 v=24
1708625 On ch=1 n=g7 v=0
1708630 On ch=1 n=g#3 v=0
1708630 On ch=1 n=g6 v=0
1708635 Par ch=1 c=64 v=104
1708645 Par ch=1 c=64 v=127
1708750 On ch=1 n=g#7 v=108
1708750 On ch=1 n=g#6 v=100
1708750 On ch=1 n=c5 v=60
1708750 On ch=1 n=g#4 v=61
1708790 Par ch=1 c=64 v=88
1708815 On ch=1 n=c5 v=0
1708825 Par ch=1 c=64 v=127
1708875 On ch=1 n=g#4 v=0
1708895 On ch=1 n=g#6 v=0
1708895 On ch=1 n=c4 v=77
1708975 On ch=1 n=g#7 v=0
1708980 On ch=1 n=c4 v=0
1709035 Par ch=1 c=64 v=88
1709045 On ch=1 n=a#7 v=97
1709045 Par ch=1 c=64 v=0
1709050 On ch=1 n=g#4 v=58
1709050 On ch=1 n=a#6 v=90
1709050 On ch=1 n=c5 v=67
1709095 Par ch=1 c=64 v=72
1709105 Par ch=1 c=64 v=127
1709145 On ch=1 n=c5 v=0
1709155 On ch=1 n=g#4 v=0
1709195 On ch=1 n=d#4 v=71
1709200 On ch=1 n=a#6 v=0
1709260 On ch=1 n=a#7 v=0
1709345 On ch=1 n=d#4 v=0
1709345 On ch=1 n=b7 v=103
1709345 On ch=1 n=g#4 v=60
1709350 On ch=1 n=b6 v=87
1709350 On ch=1 n=c5 v=51
1709365 On ch=1 n=g#4 v=0
1709375 On ch=1 n=c5 v=0
1709470 On ch=1 n=b6 v=0
1709480 Par ch=1 c=64 v=56
1709495 Par ch=1 c=64 v=0
1709500 On ch=1 n=f3 v=87
1709540 Par ch=1 c=64 v=40
1709555 Par ch=1 c=64 v=104
1709560 On ch=1 n=f3 v=0
1709565 Par ch=1 c=64 v=127
1709600 On ch=1 n=b7 v=0
1709650 On ch=1 n=c7 v=99
1709650 On ch=1 n=c8 v=107
1709660 On ch=1 n=a4 v=79
1709665 On ch=1 n=c5 v=62
1709685 On ch=1 n=c5 v=0
1709690 On ch=1 n=a4 v=0
1709720 On ch=1 n=c7 v=0
1709760 On ch=1 n=c8 v=0
1709805 On ch=1 n=a3 v=78
1709845 On ch=1 n=a3 v=0
1709950 On ch=1 n=f8 v=110
1709950 On ch=1 n=a4 v=65
1709950 On ch=1 n=f7 v=112
1709950 On ch=1 n=c5 v=54
1709965 Par ch=1 c=64 v=72
1709975 Par ch=1 c=64 v=0
1710025 On ch=1 n=c5 v=0
1710035 Par ch=1 c=64 v=88
1710050 Par ch=1 c=64 v=127
1710075 On ch=1 n=a4 v=0
1710075 On ch=1 n=f8 v=0
1710095 On ch=1 n=f7 v=0
1710105 On ch=1 n=c4 v=77
1710170 On ch=1 n=c4 v=0
1710245 On ch=1 n=d#8 v=103
1710250 On ch=1 n=d#7 v=92
1710250 On ch=1 n=a4 v=60
1710255 On ch=1 n=c5 v=59
1710285 On ch=1 n=c5 v=0
1710300 On ch=1 n=a4 v=0
1710390 On ch=1 n=a#3 v=80
1710390 Par ch=1 c=64 v=40
1710400 Par ch=1 c=64 v=0
1710445 On ch=1 n=d#8 v=0
1710450 Par ch=1 c=64 v=40
1710455 On ch=1 n=a#3 v=0
1710460 Par ch=1 c=64 v=104
1710465 On ch=1 n=d#7 v=0
1710475 Par ch=1 c=64 v=127
1710550 On ch=1 n=c#8 v=97
1710555 On ch=1 n=c#7 v=90
1710555 On ch=1 n=c#5 v=49
1710565 On ch=1 n=a#4 v=46
1710645 On ch=1 n=a#4 v=0
1710645 On ch=1 n=c#5 v=0
1710680 On ch=1 n=c#7 v=0
1710695 On ch=1 n=c#4 v=80
1710715 On ch=1 n=c#8 v=0
1710815 On ch=1 n=c#4 v=0
1710845 On ch=1 n=c8 v=97
1710850 On ch=1 n=c7 v=82
1710855 On ch=1 n=c#5 v=50
1710870 On ch=1 n=a#4 v=40
1710945 On ch=1 n=a#4 v=0
1710955 On ch=1 n=c#5 v=0
1710970 Par ch=1 c=64 v=72
1710980 Par ch=1 c=64 v=0
1711000 On ch=1 n=f4 v=76
1711025 On ch=1 n=c7 v=0
1711040 Par ch=1 c=64 v=40
1711055 Par ch=1 c=64 v=127
1711060 On ch=1 n=c8 v=0
1711110 On ch=1 n=f4 v=0
1711135 On ch=1 n=a#7 v=92
1711140 On ch=1 n=a#6 v=80
1711140 On ch=1 n=a#4 v=56
1711145 On ch=1 n=c#5 v=54
1711215 On ch=1 n=a#4 v=0
1711245 On ch=1 n=a#6 v=0
1711250 On ch=1 n=c#5 v=0
1711255 On ch=1 n=a#7 v=0
1711275 Par ch=1 c=64 v=104
1711285 Par ch=1 c=64 v=0
1711290 On ch=1 n=d#4 v=79
1711355 Par ch=1 c=64 v=72
1711370 Par ch=1 c=64 v=127
1711380 On ch=1 n=d#4 v=0
1711425 On ch=1 n=g#7 v=93
1711430 On ch=1 n=g#6 v=79
1711435 On ch=1 n=c5 v=70
1711435 On ch=1 n=d#5 v=60
1711525 On ch=1 n=c5 v=0
1711530 On ch=1 n=d#5 v=0
1711540 Par ch=1 c=64 v=104
1711550 Par ch=1 c=64 v=0
1711570 On ch=1 n=d#4 v=73
1711580 On ch=1 n=g#7 v=0
1711595 On ch=1 n=g#6 v=0
1711600 Par ch=1 c=64 v=40
1711610 On ch=1 n=d#4 v=0
1711610 Par ch=1 c=64 v=104
1711625 Par ch=1 c=64 v=127
1711710 Par ch=1 c=64 v=56
1711720 Par ch=1 c=64 v=0
1711730 On ch=1 n=f7 v=94
1711730 Par ch=1 c=64 v=24
1711735 On ch=1 n=d5 v=76
1711735 On ch=1 n=f5 v=81
1711740 On ch=1 n=f6 v=83
1711745 Par ch=1 c=64 v=56
1711750 On ch=1 n=b4 v=72
1711755 Par ch=1 c=64 v=88
1711770 Par ch=1 c=64 v=127
1711785 On ch=1 n=d5 v=0
1711800 On ch=1 n=b4 v=0
1711800 On ch=1 n=f5 v=0
1711855 On ch=1 n=f6 v=0
1711880 Par ch=1 c=64 v=24
1711885 On ch=1 n=d#4 v=79
1711890 Par ch=1 c=64 v=0
1711915 Par ch=1 c=64 v=40
1711925 Par ch=1 c=64 v=88
1711940 Par ch=1 c=64 v=127
1711945 On ch=1 n=d#4 v=0
1711950 On ch=1 n=f7 v=0
1712010 Par ch=1 c=64 v=72
1712025 Par ch=1 c=64 v=0
1712030 On ch=1 n=d#7 v=91
1712035 On ch=1 n=g5 v=87
1712035 On ch=1 n=d#6 v=88
1712040 On ch=1 n=a#4 v=71
1712045 On ch=1 n=c#5 v=67
1712045 Par ch=1 c=64 v=24
1712060 Par ch=1 c=64 v=56
1712070 Par ch=1 c=64 v=127
1712080 On ch=1 n=g5 v=0
1712100 On ch=1 n=c#5 v=0
1712105 On ch=1 n=a#4 v=0
1712110 On ch=1 n=d#6 v=0
1712155 On ch=1 n=d#7 v=0
1712180 Par ch=1 c=64 v=56
1712190 On ch=1 n=d#4 v=77
1712190 Par ch=1 c=64 v=0
1712240 Par ch=1 c=64 v=72
1712250 Par ch=1 c=64 v=127
1712285 On ch=1 n=d#4 v=0
1712330 On ch=1 n=g#7 v=97
1712330 On ch=1 n=d#5 v=70
1712335 On ch=1 n=c5 v=62
1712335 On ch=1 n=g#6 v=85
1712415 On ch=1 n=c5 v=0
1712430 On ch=1 n=d#5 v=0
1712455 On ch=1 n=g#7 v=0
1712460 On ch=1 n=d#4 v=77
1712460 Par ch=1 c=64 v=72
1712465 On ch=1 n=g#6 v=0
1712470 Par ch=1 c=64 v=0
1712505 Par ch=1 c=64 v=104
1712520 Par ch=1 c=64 v=127
1712525 On ch=1 n=d#4 v=0
1712605 Par ch=1 c=64 v=104
1712615 Par ch=1 c=64 v=72
1712620 On ch=1 n=f7 v=96
1712625 On ch=1 n=f6 v=85
1712625 Par ch=1 c=64 v=88
1712635 On ch=1 n=f5 v=75
1712635 On ch=1 n=d5 v=70
1712640 On ch=1 n=b4 v=71
1712640 Par ch=1 c=64 v=104
1712650 Par ch=1 c=64 v=127
1712680 On ch=1 n=d5 v=0
1712680 On ch=1 n=f5 v=0
1712695 On ch=1 n=b4 v=0
1712750 Par ch=1 c=64 v=88
1712760 Par ch=1 c=64 v=0
1712765 On ch=1 n=d#4 v=82
1712785 On ch=1 n=f7 v=0
1712785 Par ch=1 c=64 v=40
1712800 On ch=1 n=f6 v=0
1712800 Par ch=1 c=64 v=88
1712810 Par ch=1 c=64 v=127
1712815 On ch=1 n=d#4 v=0
1712905 Par ch=1 c=64 v=88
1712920 On ch=1 n=d#7 v=103
1712920 On ch=1 n=d#6 v=92
1712920 Par ch=1 c=64 v=56
1712930 On ch=1 n=g5 v=81
1712930 On ch=1 n=a#4 v=68
1712930 Par ch=1 c=64 v=72
1712935 On ch=1 n=c#5 v=63
1712940 Par ch=1 c=64 v=104
1712955 On ch=1 n=c#5 v=0
1712955 Par ch=1 c=64 v=127
1712975 On ch=1 n=g5 v=0
1713000 On ch=1 n=a#4 v=0
1713000 On ch=1 n=d#6 v=0
1713040 On ch=1 n=d#7 v=0
1713050 Par ch=1 c=64 v=72
1713065 Par ch=1 c=64 v=0
1713080 On ch=1 n=d#4 v=78
1713100 Par ch=1 c=64 v=40
1713110 Par ch=1 c=64 v=104
1713125 Par ch=1 c=64 v=127
1713160 On ch=1 n=d#4 v=0
1713215 On ch=1 n=g#7 v=96
1713220 On ch=1 n=g#6 v=85
1713225 On ch=1 n=c5 v=69
1713225 On ch=1 n=d#5 v=66
1713305 On ch=1 n=d#5 v=0
1713310 On ch=1 n=c5 v=0
1713330 On ch=1 n=g#7 v=0
1713345 On ch=1 n=g#6 v=0
1713350 On ch=1 n=d#4 v=77
1713405 On ch=1 n=d#4 v=0
1713485 Par ch=1 c=64 v=88
1713500 Par ch=1 c=64 v=40
1713505 On ch=1 n=f7 v=94
1713510 On ch=1 n=f6 v=86
1713510 Par ch=1 c=64 v=0
1713515 On ch=1 n=d5 v=65
1713515 On ch=1 n=f5 v=71
1713520 On ch=1 n=b4 v=67
1713525 Par ch=1 c=64 v=24
1713535 Par ch=1 c=64 v=72
1713545 On ch=1 n=d5 v=0
1713550 Par ch=1 c=64 v=104
1713560 Par ch=1 c=64 v=127
1713565 On ch=1 n=b4 v=0
1713570 On ch=1 n=f5 v=0
1713610 On ch=1 n=f7 v=0
1713620 On ch=1 n=f6 v=0
1713645 On ch=1 n=d#4 v=77
1713695 On ch=1 n=d#4 v=0
1713800 On ch=1 n=g5 v=74
1713800 On ch=1 n=d#7 v=93
1713800 On ch=1 n=a#4 v=66
1713805 On ch=1 n=d#6 v=88
1713805 On ch=1 n=c#5 v=60
1713840 On ch=1 n=g5 v=0
1713855 On ch=1 n=a#4 v=0
1713865 On ch=1 n=c#5 v=0
1713910 On ch=1 n=d#7 v=0
1713920 On ch=1 n=d#6 v=0
1713935 Par ch=1 c=64 v=56
1713945 On ch=1 n=g#3 v=81
1713950 Par ch=1 c=64 v=0
1713985 Par ch=1 c=64 v=72
1713995 On ch=1 n=g#3 v=0
1713995 Par ch=1 c=64 v=127
1714095 On ch=1 n=c7 v=90
1714110 On ch=1 n=c6 v=71
1714110 On ch=1 n=g#4 v=59
1714130 On ch=1 n=c5 v=48
1714170 On ch=1 n=g#4 v=0
1714180 On ch=1 n=c7 v=0
1714185 On ch=1 n=c6 v=0
1714195 On ch=1 n=c5 v=0
1714240 On ch=1 n=f4 v=82
1714260 Par ch=1 c=64 v=56
1714275 Par ch=1 c=64 v=0
1714300 Par ch=1 c=64 v=24
1714310 Par ch=1 c=64 v=72
1714320 Par ch=1 c=64 v=127
1714375 On ch=1 n=f4 v=0
1714385 On ch=1 n=g#6 v=87
1714390 On ch=1 n=g#5 v=78
1714390 On ch=1 n=g#4 v=68
1714405 On ch=1 n=c5 v=64
1714475 On ch=1 n=g#5 v=0
1714475 On ch=1 n=g#6 v=0
1714480 On ch=1 n=c5 v=0
1714510 On ch=1 n=g#4 v=0
1714535 On ch=1 n=d#4 v=88
1714540 Par ch=1 c=64 v=88
1714555 Par ch=1 c=64 v=0
1714615 Par ch=1 c=64 v=24
1714625 Par ch=1 c=64 v=88
1714635 Par ch=1 c=64 v=127
1714680 On ch=1 n=d#4 v=0
1714685 On ch=1 n=f6 v=90
1714695 On ch=1 n=f5 v=74
1714700 On ch=1 n=g#4 v=67
1714700 On ch=1 n=c5 v=68
1714745 On ch=1 n=f5 v=0
1714765 On ch=1 n=f6 v=0
1714780 On ch=1 n=c5 v=0
1714805 On ch=1 n=g#4 v=0
1714825 On ch=1 n=c4 v=93
1714830 Par ch=1 c=64 v=88
1714840 Par ch=1 c=64 v=0
1714890 Par ch=1 c=64 v=24
1714905 Par ch=1 c=64 v=72
1714915 Par ch=1 c=64 v=127
1714970 On ch=1 n=c4 v=0
1714970 On ch=1 n=d#6 v=85
1714970 On ch=1 n=g#4 v=65
1714975 On ch=1 n=d#5 v=78
1714980 On ch=1 n=c5 v=58
1715015 On ch=1 n=g#4 v=0
1715030 On ch=1 n=c5 v=0
1715040 On ch=1 n=d#5 v=0
1715050 On ch=1 n=d#6 v=0
1715120 Par ch=1 c=64 v=56
1715125 On ch=1 n=g#3 v=76
1715135 Par ch=1 c=64 v=0
1715155 Par ch=1 c=64 v=40
1715170 Par ch=1 c=64 v=88
1715180 Par ch=1 c=64 v=127
1715255 On ch=1 n=c6 v=93
1715255 On ch=1 n=g#4 v=70
1715260 On ch=1 n=c5 v=82
1715285 On ch=1 n=g#3 v=0
1715305 On ch=1 n=c5 v=0
1715320 On ch=1 n=g#4 v=0
1715320 On ch=1 n=c6 v=0
1715385 On ch=1 n=f3 v=82
1715425 Par ch=1 c=64 v=40
1715435 Par ch=1 c=64 v=0
1715470 Par ch=1 c=64 v=56
1715485 Par ch=1 c=64 v=127
1715525 On ch=1 n=g#5 v=86
1715530 On ch=1 n=g#4 v=84
1715535 On ch=1 n=f4 v=67
1715550 On ch=1 n=f3 v=0
1715565 On ch=1 n=f4 v=0
1715600 On ch=1 n=g#4 v=0
1715605 On ch=1 n=g#5 v=0
1715680 On ch=1 n=d#3 v=85
1715700 Par ch=1 c=64 v=24
1715715 Par ch=1 c=64 v=0
1715750 Par ch=1 c=64 v=72
1715765 Par ch=1 c=64 v=127
1715825 On ch=1 n=d#3 v=0
1715825 On ch=1 n=f5 v=89
1715830 On ch=1 n=f4 v=85
1715885 On ch=1 n=f4 v=0
1715910 On ch=1 n=f5 v=0
1715965 On ch=1 n=c3 v=80
1715980 Par ch=1 c=64 v=88
1715990 Par ch=1 c=64 v=24
1716005 Par ch=1 c=64 v=0
1716015 Par ch=1 c=64 v=40
1716030 Par ch=1 c=64 v=104
1716040 Par ch=1 c=64 v=127
1716100 On ch=1 n=c3 v=0
1716100 On ch=1 n=c4 v=79
1716100 On ch=1 n=d#5 v=85
1716105 On ch=1 n=d#4 v=91
1716145 On ch=1 n=c4 v=0
1716170 On ch=1 n=d#4 v=0
1716185 On ch=1 n=d#5 v=0
1716245 Par ch=1 c=64 v=88
1716260 On ch=1 n=g#2 v=79
1716260 Par ch=1 c=64 v=0
1716295 Par ch=1 c=64 v=56
1716305 Par ch=1 c=64 v=127
1716395 On ch=1 n=c4 v=99
1716400 On ch=1 n=c5 v=93
1716405 On ch=1 n=g#3 v=67
1716480 On ch=1 n=g#3 v=0
1716520 On ch=1 n=c5 v=0
1716575 Par ch=1 c=64 v=104
1716580 On ch=1 n=g#4 v=100
1716585 Par ch=1 c=64 v=0
1716595 On ch=1 n=g#3 v=82
1716730 Par ch=1 c=64 v=72
1716745 Par ch=1 c=64 v=127
1716795 On ch=1 n=c4 v=0
1716840 On ch=1 n=g#2 v=0
1716845 On ch=1 n=g#3 v=0
1716845 On ch=1 n=g#4 v=0
1717245 On ch=1 n=g#5 v=97
1717245 On ch=1 n=g#3 v=77
1717250 Par ch=1 c=64 v=40
1717255 On ch=1 n=c5 v=85
1717255 On ch=1 n=d#4 v=91
1717265 Par ch=1 c=64 v=0
1717315 On ch=1 n=c5 v=0
1717335 Par ch=1 c=64 v=88
1717340 On ch=1 n=d#4 v=0
1717350 Par ch=1 c=64 v=127
1717360 On ch=1 n=g#3 v=0
1717390 On ch=1 n=g#5 v=0
1717895 On ch=1 n=g#6 v=100
1717900 On ch=1 n=g#4 v=75
1717905 On ch=1 n=d#5 v=84
1717905 On ch=1 n=c6 v=80
1717905 Par ch=1 c=64 v=72
1717915 Par ch=1 c=64 v=0
1717955 On ch=1 n=c6 v=0
1717960 On ch=1 n=d#5 v=0
1717965 Par ch=1 c=64 v=40
1717975 Par ch=1 c=64 v=127
1717980 On ch=1 n=g#4 v=0
1718015 On ch=1 n=g#6 v=0
1718525 On ch=1 n=g#5 v=98
1718535 Par ch=1 c=64 v=72
1718540 On ch=1 n=c5 v=82
1718540 On ch=1 n=g#3 v=79
1718540 On ch=1 n=d#4 v=86
1718545 Par ch=1 c=64 v=0
1718580 On ch=1 n=c5 v=0
1718585 On ch=1 n=d#4 v=0
1718605 Par ch=1 c=64 v=88
1718615 On ch=1 n=g#3 v=0
1718620 Par ch=1 c=64 v=127
1718650 On ch=1 n=g#5 v=0
1719200 On ch=1 n=g#6 v=102
1719200 On ch=1 n=g#2 v=84
1719200 On ch=1 n=d#3 v=89
1719200 Par ch=1 c=64 v=104
1719210 On ch=1 n=c6 v=88
1719210 Par ch=1 c=64 v=0
1719255 On ch=1 n=d#3 v=0
1719260 On ch=1 n=c6 v=0
1719270 Par ch=1 c=64 v=40
1719285 On ch=1 n=g#2 v=0
1719285 Par ch=1 c=64 v=127
1719315 On ch=1 n=g#6 v=0
1719815 Par ch=1 c=64 v=88
1719820 On ch=1 n=g#5 v=98
1719825 On ch=1 n=g#3 v=77
1719830 On ch=1 n=c5 v=84
1719830 On ch=1 n=d#4 v=91
1719830 Par ch=1 c=64 v=0
1719880 On ch=1 n=c5 v=0
1719890 On ch=1 n=d#4 v=0
1719890 Par ch=1 c=64 v=40
1719900 Par ch=1 c=64 v=127
1719910 On ch=1 n=g#3 v=0
1719940 On ch=1 n=g#5 v=0
1720435 Par ch=1 c=64 v=88
1720445 On ch=1 n=g#6 v=102
1720445 Par ch=1 c=64 v=0
1720450 On ch=1 n=d#5 v=87
1720455 On ch=1 n=c6 v=85
1720455 On ch=1 n=g#4 v=77
1720495 Par ch=1 c=64 v=72
1720505 Par ch=1 c=64 v=127
1720510 On ch=1 n=d#5 v=0
1720515 On ch=1 n=c6 v=0
1720535 On ch=1 n=g#4 v=0
1720550 On ch=1 n=g#6 v=0
1721085 Par ch=1 c=64 v=72
1721095 On ch=1 n=g#5 v=99
1721100 Par ch=1 c=64 v=0
1721105 On ch=1 n=d#4 v=95
1721105 On ch=1 n=g#3 v=85
1721105 On ch=1 n=c5 v=82
1721150 On ch=1 n=c5 v=0
1721155 On ch=1 n=d#4 v=0
1721160 Par ch=1 c=64 v=40
1721170 Par ch=1 c=64 v=127
1721175 On ch=1 n=g#3 v=0
1721205 On ch=1 n=g#5 v=0
1721760 On ch=1 n=g#6 v=103
1721760 Par ch=1 c=64 v=72
1721765 On ch=1 n=d#3 v=87
1721765 On ch=1 n=g#2 v=80
1721775 On ch=1 n=c6 v=85
1721775 Par ch=1 c=64 v=0
1721835 On ch=1 n=c6 v=0
1721835 On ch=1 n=d#3 v=0
1721835 Par ch=1 c=64 v=56
1721850 Par ch=1 c=64 v=127
1721855 On ch=1 n=g#2 v=0
1721880 On ch=1 n=g#6 v=0
1722995 Par ch=1 c=64 v=72
1723005 On ch=1 n=g#5 v=99
1723010 On ch=1 n=g#4 v=85
1723010 Par ch=1 c=64 v=0
1723015 On ch=1 n=d#5 v=90
1723020 On ch=1 n=c5 v=86
1723070 Par ch=1 c=64 v=56
1723075 On ch=1 n=c5 v=0
1723075 On ch=1 n=d#5 v=0
1723085 Par ch=1 c=64 v=127
1723090 On ch=1 n=g#4 v=0
1723125 On ch=1 n=g#5 v=0
1724160 Par ch=1 c=64 v=104
1724170 Par ch=1 c=64 v=0
1724180 On ch=1 n=g#6 v=103
1724185 On ch=1 n=g#3 v=82
1724185 On ch=1 n=d#4 v=99
1724190 On ch=1 n=c6 v=84
1724235 On ch=1 n=d#4 v=0
1724240 On ch=1 n=c6 v=0
1724245 Par ch=1 c=64 v=127
1724260 On ch=1 n=g#3 v=0
1724290 On ch=1 n=g#6 v=0
1725360 On ch=1 n=g#5 v=99
1725365 On ch=1 n=g#4 v=78
1725365 On ch=1 n=d#5 v=85
1725370 Par ch=1 c=64 v=56
1725375 On ch=1 n=c5 v=83
1725380 Par ch=1 c=64 v=0
1725445 On ch=1 n=c5 v=0
1725455 Par ch=1 c=64 v=88
1725465 On ch=1 n=d#5 v=0
1725465 Par ch=1 c=64 v=127
1725470 On ch=1 n=g#4 v=0
1725500 On ch=1 n=g#5 v=0
1726200 On ch=1 n=g#2 v=96
1726205 Par ch=1 c=64 v=0
1726275 Par ch=1 c=64 v=127
1726345 On ch=1 n=d#3 v=99
1726375 On ch=1 n=g#2 v=0
1726395 On ch=1 n=d#3 v=0
1726675 On ch=1 n=g#7 v=117
1726675 On ch=1 n=c7 v=93
1726685 On ch=1 n=c6 v=82
1726685 On ch=1 n=g#6 v=71
1726715 On ch=1 n=g#7 v=0
1726920 On ch=1 n=c6 v=0
1726925 On ch=1 n=c7 v=0
1726930 On ch=1 n=g#6 v=0
1727570 Par ch=1 c=64 v=72
1727585 Par ch=1 c=64 v=0
1727585 Meta TrkEnd
TrkEnd
MTrk
0 SeqSpec 43 00 01 00
0 Meta 0x21 00
0 Meta TrkEnd
TrkEnd
