MFile 1 5 120
MTrk
0 TimeSig 4/4 24 8
0 KeySig 0 major
0 Tempo 571429
0 Meta TrkEnd
TrkEnd
MTrk
0 Meta 0x21 00
0 Meta TrkName "Arabesque No 1"
0 PrCh ch=1 p=0
0 Par ch=1 c=7 v=127
0 Par ch=1 c=10 v=64
294 Par ch=1 c=91 v=110
298 Par ch=1 c=64 v=40
302 Par ch=1 c=64 v=56
306 Par ch=1 c=64 v=72
311 Par ch=1 c=64 v=88
315 Par ch=1 c=64 v=104
319 Par ch=1 c=64 v=127
360 On ch=1 n=c#5 v=40
422 On ch=1 n=e5 v=47
464 On ch=1 n=a5 v=60
488 On ch=1 n=c#5 v=0
503 On ch=1 n=e5 v=0
503 On ch=1 n=c#6 v=55
504 On ch=1 n=a5 v=0
540 On ch=1 n=c#6 v=0
542 On ch=1 n=e6 v=68
567 On ch=1 n=e6 v=0
577 On ch=1 n=f#6 v=67
611 On ch=1 n=f#6 v=0
616 On ch=1 n=g#6 v=69
618 Par ch=1 c=64 v=56
621 Par ch=1 c=64 v=0
642 Par ch=1 c=64 v=104
646 Par ch=1 c=64 v=127
652 On ch=1 n=d#6 v=64
689 On ch=1 n=d#6 v=0
689 On ch=1 n=b5 v=58
707 On ch=1 n=b5 v=0
717 On ch=1 n=g#6 v=0
720 On ch=1 n=g#5 v=54
752 On ch=1 n=g#5 v=0
757 On ch=1 n=d#5 v=57
793 On ch=1 n=b4 v=56
794 On ch=1 n=d#5 v=0
825 On ch=1 n=b4 v=0
834 On ch=1 n=a4 v=55
844 Par ch=1 c=64 v=72
848 Par ch=1 c=64 v=0
868 Par ch=1 c=64 v=72
870 On ch=1 n=c#5 v=51
873 Par ch=1 c=64 v=127
909 On ch=1 n=f#5 v=35
937 On ch=1 n=a5 v=60
939 On ch=1 n=a4 v=0
941 On ch=1 n=c#5 v=0
949 On ch=1 n=f#5 v=0
966 On ch=1 n=a5 v=0
975 On ch=1 n=c#6 v=61
1001 On ch=1 n=c#6 v=0
1009 On ch=1 n=d#6 v=68
1041 On ch=1 n=d#6 v=0
1045 On ch=1 n=e6 v=74
1074 Par ch=1 c=64 v=104
1078 Par ch=1 c=64 v=24
1082 On ch=1 n=b5 v=60
1082 Par ch=1 c=64 v=0
1103 Par ch=1 c=64 v=88
1107 Par ch=1 c=64 v=127
1110 On ch=1 n=b5 v=0
1119 On ch=1 n=g#5 v=49
1138 On ch=1 n=g#5 v=0
1142 On ch=1 n=e6 v=0
1154 On ch=1 n=e5 v=59
1182 On ch=1 n=e5 v=0
1190 On ch=1 n=b4 v=60
1226 On ch=1 n=g#4 v=61
1231 On ch=1 n=b4 v=0
1265 On ch=1 n=g#4 v=0
1265 On ch=1 n=f#4 v=65
1272 Par ch=1 c=64 v=72
1275 Par ch=1 c=64 v=0
1300 Par ch=1 c=64 v=88
1304 Par ch=1 c=64 v=127
1306 On ch=1 n=a4 v=55
1337 On ch=1 n=c#5 v=57
1357 On ch=1 n=f#4 v=0
1358 On ch=1 n=a4 v=0
1360 On ch=1 n=c#5 v=0
1377 On ch=1 n=c#6 v=71
1409 On ch=1 n=f#5 v=54
1413 On ch=1 n=c#6 v=0
1444 On ch=1 n=a5 v=66
1478 On ch=1 n=a5 v=0
1484 On ch=1 n=f#6 v=74
1490 On ch=1 n=e4 v=52
1490 Par ch=1 c=64 v=56
1494 Par ch=1 c=64 v=0
1518 Par ch=1 c=64 v=88
1522 Par ch=1 c=64 v=127
1525 On ch=1 n=a4 v=54
1561 On ch=1 n=c#5 v=61
1575 On ch=1 n=e4 v=0
1577 On ch=1 n=a4 v=0
1582 On ch=1 n=c#5 v=0
1582 On ch=1 n=f#5 v=0
1585 On ch=1 n=f#6 v=0
1594 On ch=1 n=c#6 v=71
1630 On ch=1 n=c#6 v=0
1631 On ch=1 n=f#5 v=61
1666 On ch=1 n=a5 v=65
1677 On ch=1 n=f#5 v=0
1698 On ch=1 n=d#4 v=71
1712 Par ch=1 c=64 v=104
1716 Par ch=1 c=64 v=40
1720 Par ch=1 c=64 v=0
1742 On ch=1 n=a4 v=54
1744 Par ch=1 c=64 v=88
1748 Par ch=1 c=64 v=127
1770 On ch=1 n=a5 v=0
1775 On ch=1 n=c#5 v=54
1795 On ch=1 n=a4 v=0
1797 On ch=1 n=d#4 v=0
1809 On ch=1 n=c#5 v=0
1813 On ch=1 n=c#6 v=73
1849 On ch=1 n=c#6 v=0
1850 On ch=1 n=f#5 v=56
1890 On ch=1 n=a5 v=66
1942 On ch=1 n=c#4 v=44
1943 On ch=1 n=f#6 v=73
1946 Par ch=1 c=64 v=104
1950 Par ch=1 c=64 v=24
1952 On ch=1 n=a5 v=0
1954 Par ch=1 c=64 v=0
1978 Par ch=1 c=64 v=88
1982 Par ch=1 c=64 v=127
1992 On ch=1 n=f#5 v=0
1994 On ch=1 n=c#4 v=0
1994 On ch=1 n=a4 v=48
2045 On ch=1 n=e5 v=40
2083 On ch=1 n=f#6 v=0
2085 On ch=1 n=a4 v=0
2087 On ch=1 n=a6 v=70
2108 On ch=1 n=e5 v=0
2145 On ch=1 n=a5 v=52
2205 On ch=1 n=c#6 v=46
2210 On ch=1 n=a5 v=0
2224 On ch=1 n=c#6 v=0
2226 On ch=1 n=a6 v=0
2281 On ch=1 n=b3 v=58
2296 Par ch=1 c=64 v=104
2301 Par ch=1 c=64 v=40
2305 Par ch=1 c=64 v=0
2329 Par ch=1 c=64 v=104
2333 Par ch=1 c=64 v=127
2335 On ch=1 n=f#4 v=44
2356 On ch=1 n=b3 v=0
2376 On ch=1 n=f#4 v=0
2385 On ch=1 n=a4 v=46
2420 On ch=1 n=a4 v=0
2431 On ch=1 n=c#5 v=46
2434 On ch=1 n=a6 v=80
2479 On ch=1 n=d#5 v=37
2518 On ch=1 n=f#5 v=49
2536 On ch=1 n=c#5 v=0
2538 On ch=1 n=f#5 v=0
2539 On ch=1 n=d#5 v=0
2561 On ch=1 n=a5 v=55
2609 On ch=1 n=c#6 v=54
2657 On ch=1 n=c#6 v=0
2660 On ch=1 n=d#6 v=51
2668 On ch=1 n=a6 v=0
2694 On ch=1 n=a5 v=0
2710 On ch=1 n=d#6 v=0
2713 On ch=1 n=c#6 v=56
2743 On ch=1 n=c#6 v=0
2780 On ch=1 n=g#6 v=69
2786 On ch=1 n=b5 v=39
2826 On ch=1 n=b5 v=0
2851 On ch=1 n=g#6 v=0
2890 On ch=1 n=f#6 v=54
2896 On ch=1 n=a5 v=40
2907 On ch=1 n=a5 v=0
2923 On ch=1 n=f#6 v=0
3022 On ch=1 n=e3 v=44
3032 Par ch=1 c=64 v=88
3036 Par ch=1 c=64 v=24
3040 Par ch=1 c=64 v=0
3064 Par ch=1 c=64 v=72
3068 Par ch=1 c=64 v=127
3080 On ch=1 n=b3 v=47
3088 On ch=1 n=e3 v=0
3126 On ch=1 n=b3 v=0
3131 On ch=1 n=e6 v=63
3136 On ch=1 n=e4 v=48
3169 On ch=1 n=e6 v=0
3176 On ch=1 n=f#6 v=64
3183 On ch=1 n=e4 v=0
3199 On ch=1 n=f#6 v=0
3200 On ch=1 n=g#4 v=22
3210 On ch=1 n=c#6 v=60
3235 On ch=1 n=c#6 v=0
3235 On ch=1 n=g#4 v=0
3244 On ch=1 n=e6 v=62
3244 On ch=1 n=b4 v=41
3268 On ch=1 n=e6 v=0
3274 On ch=1 n=b4 v=0
3275 On ch=1 n=b5 v=67
3287 On ch=1 n=g#4 v=51
3299 On ch=1 n=b5 v=0
3305 On ch=1 n=c#6 v=64
3310 On ch=1 n=g#4 v=0
3332 On ch=1 n=c#6 v=0
3332 On ch=1 n=e4 v=43
3339 On ch=1 n=g#5 v=65
3362 On ch=1 n=e4 v=0
3366 On ch=1 n=g#5 v=0
3368 On ch=1 n=b3 v=36
3369 On ch=1 n=b5 v=60
3396 On ch=1 n=b5 v=0
3397 On ch=1 n=f#5 v=65
3405 On ch=1 n=b3 v=0
3428 On ch=1 n=f#5 v=0
3430 On ch=1 n=g#5 v=64
3440 Par ch=1 c=64 v=72
3440 On ch=1 n=e3 v=43
3444 Par ch=1 c=64 v=0
3463 On ch=1 n=g#5 v=0
3467 On ch=1 n=e5 v=70
3468 Par ch=1 c=64 v=104
3472 Par ch=1 c=64 v=127
3481 On ch=1 n=e3 v=0
3484 On ch=1 n=c#4 v=43
3495 On ch=1 n=g#5 v=55
3501 On ch=1 n=e5 v=0
3526 On ch=1 n=g#5 v=0
3528 On ch=1 n=c#4 v=0
3530 On ch=1 n=d#5 v=65
3538 On ch=1 n=e4 v=55
3561 On ch=1 n=e4 v=0
3584 On ch=1 n=g#4 v=53
3627 On ch=1 n=g#4 v=0
3630 On ch=1 n=c#5 v=47
3666 On ch=1 n=c#5 v=0
3669 On ch=1 n=g#4 v=55
3679 On ch=1 n=d#5 v=0
3689 On ch=1 n=g#4 v=0
3718 On ch=1 n=c#5 v=60
3723 On ch=1 n=e4 v=49
3750 On ch=1 n=e4 v=0
3760 On ch=1 n=c#4 v=47
3789 On ch=1 n=c#4 v=0
3813 On ch=1 n=c#5 v=0
3830 On ch=1 n=b4 v=48
3847 Par ch=1 c=64 v=72
3849 On ch=1 n=e3 v=48
3852 Par ch=1 c=64 v=0
3880 On ch=1 n=b4 v=0
3880 Par ch=1 c=64 v=127
3911 On ch=1 n=b3 v=32
3934 On ch=1 n=e3 v=0
3946 On ch=1 n=e6 v=65
3954 On ch=1 n=b3 v=0
3962 On ch=1 n=e4 v=53
3974 On ch=1 n=e6 v=0
3978 On ch=1 n=f#6 v=73
4000 On ch=1 n=f#6 v=0
4001 On ch=1 n=e4 v=0
4010 On ch=1 n=g#4 v=47
4011 On ch=1 n=c#6 v=70
4040 On ch=1 n=c#6 v=0
4042 On ch=1 n=e6 v=75
4047 On ch=1 n=g#4 v=0
4053 On ch=1 n=b4 v=56
4068 On ch=1 n=e6 v=0
4073 On ch=1 n=b5 v=73
4080 On ch=1 n=b4 v=0
4092 On ch=1 n=g#4 v=54
4096 On ch=1 n=b5 v=0
4102 On ch=1 n=c#6 v=69
4114 On ch=1 n=g#4 v=0
4130 On ch=1 n=c#6 v=0
4136 On ch=1 n=g#5 v=71
4136 On ch=1 n=e4 v=43
4158 On ch=1 n=e4 v=0
4163 On ch=1 n=g#5 v=0
4166 On ch=1 n=b5 v=70
4169 On ch=1 n=b3 v=37
4194 On ch=1 n=b5 v=0
4196 On ch=1 n=f#5 v=67
4214 On ch=1 n=b3 v=0
4223 Par ch=1 c=64 v=56
4227 Par ch=1 c=64 v=0
4228 On ch=1 n=f#5 v=0
4228 On ch=1 n=g#5 v=69
4236 On ch=1 n=e3 v=49
4243 Par ch=1 c=64 v=40
4247 Par ch=1 c=64 v=127
4257 On ch=1 n=g#5 v=0
4262 On ch=1 n=e5 v=74
4269 On ch=1 n=e3 v=0
4280 On ch=1 n=c#4 v=46
4291 On ch=1 n=e5 v=0
4292 On ch=1 n=g#5 v=62
4319 On ch=1 n=c#4 v=0
4325 On ch=1 n=g#5 v=0
4327 On ch=1 n=e4 v=54
4328 On ch=1 n=d#5 v=68
4349 On ch=1 n=e4 v=0
4371 On ch=1 n=g#4 v=47
4411 On ch=1 n=g#4 v=0
4423 On ch=1 n=c#5 v=51
4461 On ch=1 n=c#5 v=0
4461 On ch=1 n=d#5 v=0
4467 On ch=1 n=g#4 v=49
4487 On ch=1 n=g#4 v=0
4512 On ch=1 n=c#5 v=61
4521 On ch=1 n=e4 v=41
4548 On ch=1 n=e4 v=0
4562 On ch=1 n=c#4 v=44
4587 On ch=1 n=c#5 v=0
4608 On ch=1 n=c#4 v=0
4622 On ch=1 n=b4 v=60
4623 On ch=1 n=f#3 v=40
4623 Par ch=1 c=64 v=56
4627 Par ch=1 c=64 v=0
4649 On ch=1 n=b4 v=0
4651 Par ch=1 c=64 v=56
4655 On ch=1 n=a4 v=60
4656 Par ch=1 c=64 v=127
4666 On ch=1 n=c#4 v=47
4683 On ch=1 n=a4 v=0
4688 On ch=1 n=b4 v=66
4695 On ch=1 n=f#3 v=0
4706 On ch=1 n=c#4 v=0
4716 On ch=1 n=e4 v=48
4718 On ch=1 n=b4 v=0
4722 On ch=1 n=c#5 v=73
4751 On ch=1 n=e4 v=0
4761 On ch=1 n=f#4 v=43
4800 On ch=1 n=f#4 v=0
4804 On ch=1 n=a4 v=58
4828 On ch=1 n=a4 v=0
4840 On ch=1 n=c#5 v=0
4844 On ch=1 n=e5 v=75
4846 On ch=1 n=f#4 v=46
4873 On ch=1 n=e5 v=0
4882 On ch=1 n=f#4 v=0
4882 On ch=1 n=d#5 v=71
4891 On ch=1 n=e4 v=51
4913 On ch=1 n=d#5 v=0
4921 On ch=1 n=e4 v=0
4923 On ch=1 n=e5 v=75
4931 On ch=1 n=c#4 v=46
4957 On ch=1 n=e5 v=0
4964 On ch=1 n=c#5 v=68
4966 On ch=1 n=c#4 v=0
4970 On ch=1 n=g#3 v=58
4975 Par ch=1 c=64 v=104
4979 Par ch=1 c=64 v=40
4983 Par ch=1 c=64 v=0
5000 On ch=1 n=c#4 v=43
5002 Par ch=1 c=64 v=56
5003 On ch=1 n=g#3 v=0
5007 Par ch=1 c=64 v=127
5050 On ch=1 n=c#4 v=0
5052 On ch=1 n=g#5 v=71
5056 On ch=1 n=e4 v=56
5059 On ch=1 n=c#5 v=0
5077 On ch=1 n=e4 v=0
5089 On ch=1 n=g#4 v=60
5119 On ch=1 n=g#4 v=0
5130 On ch=1 n=b4 v=56
5159 On ch=1 n=b4 v=0
5164 On ch=1 n=g#4 v=61
5185 On ch=1 n=g#5 v=0
5197 On ch=1 n=g#4 v=0
5203 On ch=1 n=e5 v=76
5207 On ch=1 n=e4 v=57
5237 On ch=1 n=e4 v=0
5238 On ch=1 n=c#4 v=56
5274 On ch=1 n=c#4 v=0
5274 On ch=1 n=e5 v=0
5281 Par ch=1 c=64 v=104
5284 On ch=1 n=a3 v=62
5285 On ch=1 n=d#5 v=69
5286 Par ch=1 c=64 v=24
5289 Par ch=1 c=64 v=0
5309 Par ch=1 c=64 v=72
5311 On ch=1 n=d#5 v=0
5311 On ch=1 n=c#5 v=68
5314 Par ch=1 c=64 v=127
5325 On ch=1 n=a3 v=0
5331 On ch=1 n=e4 v=55
5343 On ch=1 n=d#5 v=73
5345 On ch=1 n=c#5 v=0
5365 On ch=1 n=e4 v=0
5371 On ch=1 n=d#5 v=0
5371 On ch=1 n=e5 v=79
5375 On ch=1 n=f#4 v=52
5408 On ch=1 n=f#4 v=0
5417 On ch=1 n=a4 v=61
5442 On ch=1 n=a4 v=0
5450 On ch=1 n=c#5 v=56
5479 On ch=1 n=c#5 v=0
5491 On ch=1 n=g#5 v=69
5495 On ch=1 n=a4 v=54
5502 On ch=1 n=e5 v=0
5520 On ch=1 n=a4 v=0
5520 On ch=1 n=g#5 v=0
5528 On ch=1 n=f#5 v=71
5533 On ch=1 n=f#4 v=53
5554 On ch=1 n=f#5 v=0
5558 On ch=1 n=f#4 v=0
5562 On ch=1 n=g#5 v=75
5572 On ch=1 n=e4 v=50
5594 On ch=1 n=g#5 v=0
5596 Par ch=1 c=64 v=104
5600 Par ch=1 c=64 v=56
5602 On ch=1 n=e5 v=79
5604 Par ch=1 c=64 v=0
5605 On ch=1 n=e4 v=0
5610 On ch=1 n=a#3 v=59
5629 Par ch=1 c=64 v=104
5633 Par ch=1 c=64 v=127
5637 On ch=1 n=a#3 v=0
5645 On ch=1 n=e4 v=59
5666 On ch=1 n=e5 v=0
5669 On ch=1 n=e4 v=0
5684 On ch=1 n=g#4 v=48
5687 On ch=1 n=c#6 v=79
5711 On ch=1 n=g#4 v=0
5716 On ch=1 n=c#5 v=50
5739 On ch=1 n=c#5 v=0
5755 On ch=1 n=c#4 v=67
5757 Par ch=1 c=64 v=72
5761 Par ch=1 c=64 v=0
5782 Par ch=1 c=64 v=88
5786 Par ch=1 c=64 v=127
5788 On ch=1 n=c#4 v=0
5790 On ch=1 n=f#4 v=60
5816 On ch=1 n=c#6 v=0
5818 On ch=1 n=f#4 v=0
5822 On ch=1 n=a#5 v=76
5824 On ch=1 n=a#4 v=53
5844 On ch=1 n=a#4 v=0
5846 On ch=1 n=a#5 v=0
5847 On ch=1 n=c#6 v=74
5854 On ch=1 n=e5 v=61
5868 On ch=1 n=e5 v=0
5871 On ch=1 n=a#5 v=74
5874 On ch=1 n=c#6 v=0
5894 On ch=1 n=a#5 v=0
5896 On ch=1 n=g#5 v=74
5902 On ch=1 n=e4 v=54
5903 Par ch=1 c=64 v=88
5907 Par ch=1 c=64 v=24
5911 Par ch=1 c=64 v=0
5927 Par ch=1 c=64 v=88
5931 On ch=1 n=e4 v=0
5931 Par ch=1 c=64 v=127
5938 On ch=1 n=a#4 v=48
5952 On ch=1 n=g#5 v=0
5968 On ch=1 n=a#4 v=0
5975 On ch=1 n=e6 v=84
5978 On ch=1 n=c#5 v=50
6006 On ch=1 n=c#5 v=0
6012 On ch=1 n=g#5 v=53
6031 On ch=1 n=g#5 v=0
6041 Par ch=1 c=64 v=56
6043 On ch=1 n=f#4 v=68
6045 Par ch=1 c=64 v=0
6057 Par ch=1 c=64 v=24
6061 Par ch=1 c=64 v=104
6065 Par ch=1 c=64 v=127
6075 On ch=1 n=f#4 v=0
6077 On ch=1 n=c#5 v=58
6078 On ch=1 n=e6 v=0
6110 On ch=1 n=c#5 v=0
6112 On ch=1 n=c#6 v=65
6119 On ch=1 n=e5 v=58
6139 On ch=1 n=c#6 v=0
6146 On ch=1 n=e6 v=71
6147 On ch=1 n=e5 v=0
6154 On ch=1 n=a#5 v=48
6166 On ch=1 n=e6 v=0
6171 On ch=1 n=c#6 v=67
6183 On ch=1 n=a#5 v=0
6203 On ch=1 n=c#6 v=0
6207 On ch=1 n=a#4 v=45
6216 Par ch=1 c=64 v=88
6217 On ch=1 n=g#6 v=74
6220 Par ch=1 c=64 v=0
6244 Par ch=1 c=64 v=56
6248 Par ch=1 c=64 v=127
6255 On ch=1 n=a#4 v=0
6259 On ch=1 n=e5 v=52
6285 On ch=1 n=e5 v=0
6294 On ch=1 n=g#5 v=48
6320 On ch=1 n=g#5 v=0
6329 On ch=1 n=f#6 v=72
6331 On ch=1 n=c#6 v=44
6334 On ch=1 n=g#6 v=0
6353 On ch=1 n=c#6 v=0
6369 On ch=1 n=f#6 v=0
6369 On ch=1 n=g#6 v=77
6374 On ch=1 n=c#5 v=40
6381 Par ch=1 c=64 v=24
6385 Par ch=1 c=64 v=0
6401 Par ch=1 c=64 v=88
6405 Par ch=1 c=64 v=127
6409 On ch=1 n=c#5 v=0
6409 On ch=1 n=f#5 v=61
6438 On ch=1 n=f#5 v=0
6445 On ch=1 n=a#5 v=53
6473 On ch=1 n=a#5 v=0
6481 On ch=1 n=e6 v=58
6482 On ch=1 n=f#6 v=65
6483 On ch=1 n=g#6 v=0
6489 On ch=1 n=e6 v=0
6519 On ch=1 n=f#6 v=0
6527 On ch=1 n=g#6 v=67
6529 On ch=1 n=a#4 v=45
6535 Par ch=1 c=64 v=40
6539 Par ch=1 c=64 v=0
6555 Par ch=1 c=64 v=72
6559 Par ch=1 c=64 v=127
6564 On ch=1 n=a#4 v=0
6573 On ch=1 n=e5 v=47
6598 On ch=1 n=e5 v=0
6614 On ch=1 n=g#5 v=39
6640 On ch=1 n=g#5 v=0
6649 On ch=1 n=g#6 v=0
6652 On ch=1 n=f#6 v=63
6655 On ch=1 n=c#6 v=33
6679 On ch=1 n=c#6 v=0
6699 On ch=1 n=f#6 v=0
6702 On ch=1 n=g#6 v=60
6712 On ch=1 n=c#5 v=40
6717 Par ch=1 c=64 v=104
6721 Par ch=1 c=64 v=24
6725 Par ch=1 c=64 v=0
6742 Par ch=1 c=64 v=40
6746 Par ch=1 c=64 v=104
6750 Par ch=1 c=64 v=127
6752 On ch=1 n=c#5 v=0
6754 On ch=1 n=f#5 v=39
6756 On ch=1 n=f#6 v=55
6758 On ch=1 n=g#6 v=0
6798 On ch=1 n=f#5 v=0
6804 On ch=1 n=a#5 v=37
6849 On ch=1 n=f#6 v=0
6860 On ch=1 n=g#6 v=61
6860 On ch=1 n=e6 v=40
6877 On ch=1 n=e6 v=0
6888 On ch=1 n=a#5 v=0
6912 On ch=1 n=g#6 v=0
6945 On ch=1 n=a6 v=66
6960 On ch=1 n=c#5 v=32
6972 Par ch=1 c=64 v=88
6976 Par ch=1 c=64 v=0
7000 Par ch=1 c=64 v=40
7003 On ch=1 n=e5 v=49
7004 Par ch=1 c=64 v=127
7040 On ch=1 n=a5 v=53
7060 On ch=1 n=e5 v=0
7064 On ch=1 n=c#5 v=0
7067 On ch=1 n=a5 v=0
7077 On ch=1 n=c#6 v=56
7107 On ch=1 n=c#6 v=0
7111 On ch=1 n=a6 v=0
7113 On ch=1 n=e6 v=63
7136 On ch=1 n=e6 v=0
7145 On ch=1 n=f#6 v=64
7175 On ch=1 n=f#6 v=0
7181 On ch=1 n=g#6 v=68
7202 Par ch=1 c=64 v=72
7206 Par ch=1 c=64 v=0
7214 On ch=1 n=d#6 v=62
7226 Par ch=1 c=64 v=56
7230 Par ch=1 c=64 v=127
7241 On ch=1 n=d#6 v=0
7248 On ch=1 n=b5 v=46
7268 On ch=1 n=b5 v=0
7280 On ch=1 n=g#6 v=0
7282 On ch=1 n=g#5 v=46
7314 On ch=1 n=g#5 v=0
7314 On ch=1 n=d#5 v=54
7349 On ch=1 n=d#5 v=0
7349 On ch=1 n=b4 v=51
7382 On ch=1 n=b4 v=0
7386 On ch=1 n=f#6 v=75
7392 On ch=1 n=a4 v=48
7395 Par ch=1 c=64 v=72
7399 Par ch=1 c=64 v=0
7419 Par ch=1 c=64 v=24
7424 Par ch=1 c=64 v=104
7425 On ch=1 n=c#5 v=48
7428 Par ch=1 c=64 v=127
7460 On ch=1 n=f#5 v=52
7463 On ch=1 n=a4 v=0
7473 On ch=1 n=f#6 v=0
7481 On ch=1 n=f#5 v=0
7482 On ch=1 n=c#5 v=0
7490 On ch=1 n=a5 v=52
7518 On ch=1 n=a5 v=0
7523 On ch=1 n=c#6 v=57
7552 On ch=1 n=c#6 v=0
7558 On ch=1 n=d#6 v=60
7583 On ch=1 n=d#6 v=0
7590 On ch=1 n=e6 v=73
7596 Par ch=1 c=64 v=40
7601 Par ch=1 c=64 v=0
7625 Par ch=1 c=64 v=127
7625 On ch=1 n=b5 v=54
7654 On ch=1 n=b5 v=0
7662 On ch=1 n=g#5 v=36
7674 On ch=1 n=g#5 v=0
7685 On ch=1 n=e6 v=0
7693 On ch=1 n=e5 v=54
7724 On ch=1 n=e5 v=0
7734 On ch=1 n=b4 v=38
7759 On ch=1 n=b4 v=0
7765 On ch=1 n=g#4 v=49
7796 On ch=1 n=g#4 v=0
7820 On ch=1 n=d#6 v=70
7828 On ch=1 n=g4 v=46
7839 Par ch=1 c=64 v=40
7843 Par ch=1 c=64 v=0
7862 On ch=1 n=g4 v=0
7863 Par ch=1 c=64 v=56
7866 On ch=1 n=c#5 v=53
7867 Par ch=1 c=64 v=127
7890 On ch=1 n=c#5 v=0
7900 On ch=1 n=d#5 v=53
7920 On ch=1 n=d#5 v=0
7930 On ch=1 n=a#5 v=46
7954 On ch=1 n=a#5 v=0
7959 On ch=1 n=d#5 v=60
7983 On ch=1 n=d#5 v=0
7992 On ch=1 n=c#5 v=47
8004 On ch=1 n=d#6 v=0
8021 On ch=1 n=c#5 v=0
8025 On ch=1 n=e6 v=82
8025 On ch=1 n=g#4 v=51
8025 Par ch=1 c=64 v=88
8029 Par ch=1 c=64 v=0
8049 Par ch=1 c=64 v=72
8053 Par ch=1 c=64 v=127
8057 On ch=1 n=c#5 v=56
8058 On ch=1 n=g#4 v=0
8078 On ch=1 n=c#5 v=0
8084 On ch=1 n=e5 v=62
8106 On ch=1 n=e6 v=0
8111 On ch=1 n=e5 v=0
8118 On ch=1 n=g#6 v=84
8119 On ch=1 n=b5 v=57
8143 On ch=1 n=b5 v=0
8149 On ch=1 n=e5 v=52
8155 On ch=1 n=g#6 v=0
8164 On ch=1 n=b6 v=80
8170 On ch=1 n=e5 v=0
8176 On ch=1 n=c#5 v=53
8213 On ch=1 n=b6 v=0
8214 On ch=1 n=c#5 v=0
8222 On ch=1 n=d#6 v=76
8226 On ch=1 n=g4 v=49
8226 Par ch=1 c=64 v=56
8230 Par ch=1 c=64 v=0
8251 Par ch=1 c=64 v=56
8255 On ch=1 n=g4 v=0
8255 Par ch=1 c=64 v=127
8258 On ch=1 n=c#5 v=50
8288 On ch=1 n=c#5 v=0
8289 On ch=1 n=d#5 v=49
8312 On ch=1 n=d#5 v=0
8319 On ch=1 n=a#5 v=58
8348 On ch=1 n=d#5 v=58
8349 On ch=1 n=a#5 v=0
8375 On ch=1 n=c#5 v=46
8378 On ch=1 n=d#5 v=0
8383 On ch=1 n=c#5 v=0
8408 Par ch=1 c=64 v=104
8411 Par ch=1 c=64 v=24
8413 On ch=1 n=e4 v=52
8416 Par ch=1 c=64 v=0
8428 Par ch=1 c=64 v=56
8432 Par ch=1 c=64 v=127
8439 On ch=1 n=e4 v=0
8446 On ch=1 n=d#6 v=0
8450 On ch=1 n=c#6 v=71
8452 On ch=1 n=a4 v=50
8467 On ch=1 n=a4 v=0
8473 On ch=1 n=c#5 v=51
8490 On ch=1 n=c#6 v=0
8497 On ch=1 n=c#5 v=0
8497 On ch=1 n=e6 v=82
8508 On ch=1 n=g#5 v=46
8533 On ch=1 n=g#5 v=0
8536 On ch=1 n=c#5 v=42
8539 On ch=1 n=e6 v=0
8542 On ch=1 n=g#6 v=80
8554 On ch=1 n=c#5 v=0
8558 On ch=1 n=a4 v=48
8590 On ch=1 n=g#6 v=0
8600 On ch=1 n=a4 v=0
8608 On ch=1 n=b5 v=72
8614 On ch=1 n=d#4 v=59
8622 Par ch=1 c=64 v=56
8626 Par ch=1 c=64 v=0
8649 On ch=1 n=d#4 v=0
8650 Par ch=1 c=64 v=88
8652 On ch=1 n=a4 v=54
8654 Par ch=1 c=64 v=127
8678 On ch=1 n=a4 v=0
8682 On ch=1 n=b4 v=60
8706 On ch=1 n=b4 v=0
8713 On ch=1 n=f#5 v=47
8737 On ch=1 n=f#5 v=0
8740 On ch=1 n=b4 v=54
8759 On ch=1 n=b4 v=0
8767 On ch=1 n=a4 v=50
8786 On ch=1 n=a4 v=0
8796 Par ch=1 c=64 v=40
8796 On ch=1 n=c#4 v=71
8800 Par ch=1 c=64 v=0
8812 Par ch=1 c=64 v=72
8815 Par ch=1 c=64 v=127
8824 On ch=1 n=c#4 v=0
8834 On ch=1 n=f#4 v=52
8840 On ch=1 n=b5 v=0
8842 On ch=1 n=a5 v=75
8856 On ch=1 n=f#4 v=0
8863 On ch=1 n=a4 v=56
8885 On ch=1 n=a4 v=0
8888 On ch=1 n=c#6 v=71
8894 On ch=1 n=a5 v=0
8896 On ch=1 n=e5 v=54
8919 On ch=1 n=e5 v=0
8925 On ch=1 n=c#6 v=0
8929 On ch=1 n=a4 v=43
8934 On ch=1 n=e6 v=82
8941 On ch=1 n=a4 v=0
8946 On ch=1 n=f#4 v=48
8965 On ch=1 n=e6 v=0
8991 On ch=1 n=f#4 v=0
8993 On ch=1 n=g#5 v=70
9003 On ch=1 n=c4 v=45
9003 Par ch=1 c=64 v=88
9007 Par ch=1 c=64 v=0
9028 On ch=1 n=c4 v=0
9030 On ch=1 n=f#4 v=50
9031 Par ch=1 c=64 v=104
9035 Par ch=1 c=64 v=127
9055 On ch=1 n=f#4 v=0
9057 On ch=1 n=g#4 v=53
9079 On ch=1 n=g#4 v=0
9088 On ch=1 n=d#5 v=47
9115 On ch=1 n=d#5 v=0
9117 On ch=1 n=g#4 v=57
9142 On ch=1 n=g#4 v=0
9148 On ch=1 n=f#4 v=38
9176 On ch=1 n=f#4 v=0
9176 Par ch=1 c=64 v=72
9178 On ch=1 n=c#4 v=62
9180 Par ch=1 c=64 v=0
9196 Par ch=1 c=64 v=72
9200 Par ch=1 c=64 v=127
9202 On ch=1 n=g#5 v=0
9212 On ch=1 n=a5 v=76
9216 On ch=1 n=c#4 v=0
9216 On ch=1 n=f#4 v=53
9243 On ch=1 n=f#4 v=0
9243 On ch=1 n=a5 v=0
9245 On ch=1 n=c#6 v=67
9252 On ch=1 n=a4 v=62
9272 On ch=1 n=c#6 v=0
9276 On ch=1 n=a4 v=0
9280 On ch=1 n=e6 v=81
9283 On ch=1 n=e5 v=53
9304 On ch=1 n=e5 v=0
9306 On ch=1 n=e6 v=0
9309 On ch=1 n=g#6 v=77
9312 On ch=1 n=a4 v=50
9336 On ch=1 n=a4 v=0
9343 On ch=1 n=g#6 v=0
9344 On ch=1 n=f#6 v=77
9344 On ch=1 n=f#4 v=40
9376 On ch=1 n=f#6 v=0
9382 On ch=1 n=f#4 v=0
9384 On ch=1 n=d#6 v=73
9394 On ch=1 n=c4 v=52
9396 Par ch=1 c=64 v=88
9400 Par ch=1 c=64 v=0
9422 On ch=1 n=c4 v=0
9423 On ch=1 n=f#4 v=54
9425 Par ch=1 c=64 v=104
9429 Par ch=1 c=64 v=127
9454 On ch=1 n=f#4 v=0
9454 On ch=1 n=g#4 v=45
9480 On ch=1 n=g#4 v=0
9489 On ch=1 n=d#6 v=0
9489 On ch=1 n=d#5 v=48
9495 On ch=1 n=g#5 v=69
9517 On ch=1 n=d#5 v=0
9523 On ch=1 n=g#4 v=39
9550 On ch=1 n=g#4 v=0
9552 On ch=1 n=f#4 v=46
9563 On ch=1 n=g#5 v=0
9592 On ch=1 n=f#4 v=0
9599 On ch=1 n=b3 v=63
9614 Par ch=1 c=64 v=104
9618 Par ch=1 c=64 v=24
9622 Par ch=1 c=64 v=0
9638 Par ch=1 c=64 v=104
9642 On ch=1 n=b3 v=0
9642 Par ch=1 c=64 v=127
9643 On ch=1 n=f#4 v=58
9667 On ch=1 n=f#5 v=72
9679 On ch=1 n=f#4 v=0
9683 On ch=1 n=a4 v=48
9705 On ch=1 n=f#5 v=0
9709 On ch=1 n=a4 v=0
9713 On ch=1 n=a5 v=74
9717 On ch=1 n=d5 v=51
9744 On ch=1 n=d5 v=0
9749 On ch=1 n=a5 v=0
9751 On ch=1 n=a4 v=22
9761 On ch=1 n=a4 v=0
9761 On ch=1 n=c#6 v=76
9765 On ch=1 n=f#4 v=50
9791 On ch=1 n=f#4 v=0
9810 On ch=1 n=c#6 v=0
9817 On ch=1 n=e5 v=70
9829 On ch=1 n=b3 v=58
9832 Par ch=1 c=64 v=72
9836 Par ch=1 c=64 v=0
9856 Par ch=1 c=64 v=72
9859 On ch=1 n=b3 v=0
9861 Par ch=1 c=64 v=127
9862 On ch=1 n=e4 v=62
9883 On ch=1 n=e4 v=0
9887 On ch=1 n=g#4 v=36
9917 On ch=1 n=g#4 v=0
9925 On ch=1 n=d5 v=57
9936 On ch=1 n=e5 v=0
9950 On ch=1 n=d5 v=0
9954 On ch=1 n=g#4 v=49
9973 On ch=1 n=g#4 v=0
9979 On ch=1 n=e4 v=54
10018 On ch=1 n=e4 v=0
10019 On ch=1 n=b3 v=66
10030 Par ch=1 c=64 v=24
10034 Par ch=1 c=64 v=0
10046 Par ch=1 c=64 v=72
10047 On ch=1 n=b3 v=0
10050 Par ch=1 c=64 v=127
10055 On ch=1 n=f#4 v=60
10059 On ch=1 n=f#5 v=64
10083 On ch=1 n=f#5 v=0
10087 On ch=1 n=f#4 v=0
10093 On ch=1 n=a5 v=68
10094 On ch=1 n=a4 v=63
10112 On ch=1 n=a5 v=0
10120 On ch=1 n=a4 v=0
10125 On ch=1 n=c#6 v=71
10130 On ch=1 n=d5 v=49
10156 On ch=1 n=c#6 v=0
10157 On ch=1 n=d5 v=0
10157 On ch=1 n=e6 v=82
10163 On ch=1 n=a4 v=41
10178 On ch=1 n=e6 v=0
10180 On ch=1 n=a4 v=0
10182 On ch=1 n=f#4 v=57
10189 On ch=1 n=d6 v=80
10220 On ch=1 n=f#4 v=0
10222 On ch=1 n=d6 v=0
10228 On ch=1 n=g#5 v=76
10232 Par ch=1 c=64 v=88
10236 Par ch=1 c=64 v=0
10237 On ch=1 n=b3 v=53
10256 Par ch=1 c=64 v=56
10260 Par ch=1 c=64 v=127
10267 On ch=1 n=b3 v=0
10271 On ch=1 n=e4 v=62
10277 On ch=1 n=g#5 v=0
10293 On ch=1 n=e4 v=0
10297 On ch=1 n=g#4 v=54
10338 On ch=1 n=g#4 v=0
10338 On ch=1 n=f#5 v=77
10344 On ch=1 n=d5 v=53
10377 On ch=1 n=d5 v=0
10379 On ch=1 n=g#4 v=52
10404 On ch=1 n=f#5 v=0
10410 On ch=1 n=e4 v=66
10411 On ch=1 n=g#4 v=0
10417 On ch=1 n=e4 v=0
10456 On ch=1 n=e5 v=79
10460 On ch=1 n=e3 v=53
10462 Par ch=1 c=64 v=88
10466 Par ch=1 c=64 v=24
10470 Par ch=1 c=64 v=0
10490 Par ch=1 c=64 v=104
10494 Par ch=1 c=64 v=127
10500 On ch=1 n=b3 v=57
10502 On ch=1 n=e3 v=0
10528 On ch=1 n=b3 v=0
10533 On ch=1 n=e4 v=62
10558 On ch=1 n=e4 v=0
10559 On ch=1 n=e5 v=0
10576 On ch=1 n=d5 v=75
10578 On ch=1 n=f#4 v=50
10615 On ch=1 n=g#4 v=54
10630 On ch=1 n=d5 v=0
10663 On ch=1 n=f#4 v=0
10665 On ch=1 n=b4 v=51
10668 On ch=1 n=g#4 v=0
10672 On ch=1 n=b4 v=0
10737 On ch=1 n=c#5 v=70
10744 Par ch=1 c=64 v=72
10746 On ch=1 n=a2 v=55
10749 Par ch=1 c=64 v=0
10773 Par ch=1 c=64 v=88
10777 Par ch=1 c=64 v=127
10779 On ch=1 n=a2 v=0
10782 On ch=1 n=a3 v=64
10794 On ch=1 n=a3 v=0
10821 On ch=1 n=e4 v=69
10857 On ch=1 n=g4 v=69
10871 On ch=1 n=e4 v=0
10887 On ch=1 n=g4 v=0
10893 On ch=1 n=a4 v=67
10918 On ch=1 n=a4 v=0
10927 On ch=1 n=b4 v=61
10957 On ch=1 n=b4 v=0
10965 On ch=1 n=a4 v=65
10999 On ch=1 n=e4 v=52
11002 On ch=1 n=a4 v=0
11020 On ch=1 n=e4 v=0
11035 On ch=1 n=g4 v=69
11057 On ch=1 n=g4 v=0
11074 On ch=1 n=a4 v=65
11101 On ch=1 n=a4 v=0
11109 On ch=1 n=b4 v=59
11145 On ch=1 n=b4 v=0
11147 On ch=1 n=a4 v=60
11188 On ch=1 n=a4 v=0
11198 On ch=1 n=g4 v=65
11248 Par ch=1 c=64 v=72
11252 Par ch=1 c=64 v=40
11257 Par ch=1 c=64 v=72
11261 Par ch=1 c=64 v=127
11275 On ch=1 n=c#5 v=0
11335 On ch=1 n=c#5 v=68
11461 On ch=1 n=e5 v=76
11469 On ch=1 n=c#5 v=0
11575 On ch=1 n=g4 v=0
11577 On ch=1 n=c#5 v=70
11585 On ch=1 n=e5 v=0
11649 On ch=1 n=c#5 v=0
11717 On ch=1 n=d3 v=54
11723 On ch=1 n=f#5 v=71
11733 Par ch=1 c=64 v=56
11737 Par ch=1 c=64 v=0
11765 Par ch=1 c=64 v=104
11769 Par ch=1 c=64 v=127
11783 On ch=1 n=a3 v=56
11792 On ch=1 n=d3 v=0
11833 On ch=1 n=f#4 v=58
11841 On ch=1 n=a4 v=60
11864 On ch=1 n=a4 v=0
11880 On ch=1 n=b4 v=62
11909 On ch=1 n=b4 v=0
11913 On ch=1 n=c#5 v=64
11941 On ch=1 n=c#5 v=0
11947 On ch=1 n=b4 v=72
11974 On ch=1 n=b4 v=0
11980 On ch=1 n=a4 v=70
12009 On ch=1 n=a4 v=0
12015 On ch=1 n=b4 v=70
12043 On ch=1 n=b4 v=0
12051 On ch=1 n=c#5 v=60
12080 On ch=1 n=c#5 v=0
12086 On ch=1 n=b4 v=70
12090 On ch=1 n=f#4 v=0
12100 On ch=1 n=a3 v=0
12118 On ch=1 n=b4 v=0
12125 On ch=1 n=a4 v=70
12164 On ch=1 n=a4 v=0
12182 On ch=1 n=c#5 v=64
12190 On ch=1 n=b2 v=47
12200 Par ch=1 c=64 v=104
12205 Par ch=1 c=64 v=0
12227 On ch=1 n=f#5 v=0
12229 Par ch=1 c=64 v=88
12233 Par ch=1 c=64 v=127
12239 On ch=1 n=b2 v=0
12243 On ch=1 n=b3 v=60
12252 On ch=1 n=b3 v=0
12295 On ch=1 n=f#4 v=54
12297 On ch=1 n=f#5 v=83
12356 On ch=1 n=a4 v=47
12357 On ch=1 n=c#5 v=0
12399 On ch=1 n=f#5 v=0
12409 On ch=1 n=a5 v=86
12415 On ch=1 n=d#5 v=54
12415 On ch=1 n=b4 v=55
12424 On ch=1 n=a4 v=0
12480 On ch=1 n=b4 v=0
12490 On ch=1 n=f#4 v=0
12491 On ch=1 n=a5 v=0
12514 On ch=1 n=f#5 v=81
12559 On ch=1 n=f#5 v=0
12621 Par ch=1 c=64 v=104
12622 On ch=1 n=b5 v=88
12625 On ch=1 n=g#2 v=44
12626 Par ch=1 c=64 v=24
12630 Par ch=1 c=64 v=0
12650 Par ch=1 c=64 v=72
12654 Par ch=1 c=64 v=127
12670 On ch=1 n=g#3 v=64
12672 On ch=1 n=g#2 v=0
12680 On ch=1 n=g#3 v=0
12698 On ch=1 n=d#5 v=0
12721 On ch=1 n=b5 v=0
12725 On ch=1 n=g#5 v=78
12730 On ch=1 n=e4 v=47
12771 On ch=1 n=g#4 v=59
12821 On ch=1 n=g#5 v=0
12826 On ch=1 n=b5 v=83
12831 On ch=1 n=e5 v=66
12836 On ch=1 n=b4 v=54
12864 Par ch=1 c=64 v=72
12868 Par ch=1 c=64 v=56
12872 Par ch=1 c=64 v=72
12876 Par ch=1 c=64 v=127
12917 On ch=1 n=b4 v=0
12920 On ch=1 n=e4 v=0
12927 On ch=1 n=g#4 v=0
12936 On ch=1 n=g#5 v=82
12948 On ch=1 n=b5 v=0
12980 On ch=1 n=g#5 v=0
13043 On ch=1 n=f#2 v=53
13063 On ch=1 n=c#6 v=85
13065 Par ch=1 c=64 v=40
13069 On ch=1 n=a5 v=58
13069 Par ch=1 c=64 v=0
13098 Par ch=1 c=64 v=127
13108 On ch=1 n=f#3 v=59
13117 On ch=1 n=f#2 v=0
13119 On ch=1 n=f#3 v=0
13152 On ch=1 n=c#4 v=48
13158 On ch=1 n=a5 v=0
13188 On ch=1 n=e4 v=69
13197 On ch=1 n=e5 v=0
13197 On ch=1 n=c#6 v=0
13199 On ch=1 n=c#4 v=0
13223 On ch=1 n=f#4 v=69
13258 On ch=1 n=a4 v=66
13292 On ch=1 n=c#5 v=67
13325 On ch=1 n=e5 v=73
13341 On ch=1 n=c#5 v=0
13352 On ch=1 n=e5 v=0
13358 On ch=1 n=f#5 v=70
13391 On ch=1 n=f#5 v=0
13391 On ch=1 n=a5 v=74
13419 On ch=1 n=a5 v=0
13422 On ch=1 n=g#5 v=71
13454 On ch=1 n=f#5 v=73
13456 On ch=1 n=g#5 v=0
13493 On ch=1 n=f#5 v=0
13504 On ch=1 n=e5 v=74
13538 Par ch=1 c=64 v=88
13542 Par ch=1 c=64 v=24
13547 Par ch=1 c=64 v=0
13559 Par ch=1 c=64 v=88
13563 Par ch=1 c=64 v=127
13574 On ch=1 n=e5 v=0
13598 On ch=1 n=e4 v=0
13606 On ch=1 n=a4 v=0
13608 On ch=1 n=f#4 v=0
13618 On ch=1 n=a5 v=82
13620 On ch=1 n=f#5 v=60
13640 On ch=1 n=f#5 v=0
13691 On ch=1 n=a5 v=0
13729 On ch=1 n=b5 v=78
13730 On ch=1 n=g#5 v=54
13737 On ch=1 n=d#5 v=48
13769 On ch=1 n=g#5 v=0
13799 On ch=1 n=b5 v=0
13840 On ch=1 n=c#6 v=83
13840 On ch=1 n=a5 v=53
13844 On ch=1 n=c#5 v=56
13851 On ch=1 n=d#5 v=0
13860 On ch=1 n=c#5 v=0
13872 On ch=1 n=a5 v=0
13887 On ch=1 n=c#6 v=0
13970 On ch=1 n=c#6 v=77
13975 On ch=1 n=f#2 v=37
13977 On ch=1 n=a5 v=49
13987 On ch=1 n=a5 v=0
13991 Par ch=1 c=64 v=72
13995 Par ch=1 c=64 v=0
14020 Par ch=1 c=64 v=56
14024 Par ch=1 c=64 v=127
14038 On ch=1 n=f#3 v=62
14041 On ch=1 n=f#2 v=0
14049 On ch=1 n=f#3 v=0
14086 On ch=1 n=c#4 v=61
14110 On ch=1 n=c#6 v=0
14120 On ch=1 n=e4 v=64
14131 On ch=1 n=c#4 v=0
14151 On ch=1 n=f#4 v=67
14171 On ch=1 n=e4 v=0
14187 On ch=1 n=a4 v=66
14220 On ch=1 n=c#5 v=65
14253 On ch=1 n=e5 v=74
14259 On ch=1 n=c#5 v=0
14276 On ch=1 n=e5 v=0
14284 On ch=1 n=f#5 v=67
14313 On ch=1 n=f#5 v=0
14313 On ch=1 n=a5 v=81
14340 On ch=1 n=a5 v=0
14344 On ch=1 n=g#5 v=71
14378 On ch=1 n=f#5 v=65
14380 On ch=1 n=g#5 v=0
14420 On ch=1 n=f#5 v=0
14420 On ch=1 n=e5 v=74
14428 Par ch=1 c=64 v=40
14432 Par ch=1 c=64 v=0
14452 Par ch=1 c=64 v=56
14456 Par ch=1 c=64 v=127
14484 On ch=1 n=e5 v=0
14530 On ch=1 n=a5 v=75
14531 On ch=1 n=f#5 v=55
14559 On ch=1 n=f#5 v=0
14568 On ch=1 n=a5 v=0
14569 On ch=1 n=c#5 v=50
14572 On ch=1 n=f#4 v=0
14598 On ch=1 n=c#5 v=0
14607 On ch=1 n=e5 v=53
14626 On ch=1 n=e5 v=0
14640 On ch=1 n=a4 v=0
14649 On ch=1 n=b5 v=70
14651 On ch=1 n=g#5 v=48
14653 On ch=1 n=f#4 v=51
14670 Par ch=1 c=64 v=56
14674 Par ch=1 c=64 v=0
14677 On ch=1 n=g#5 v=0
14687 On ch=1 n=d#5 v=47
14690 Par ch=1 c=64 v=56
14694 Par ch=1 c=64 v=127
14703 On ch=1 n=b5 v=0
14717 On ch=1 n=f#5 v=57
14721 On ch=1 n=d#5 v=0
14741 On ch=1 n=f#5 v=0
14749 On ch=1 n=c#6 v=72
14752 On ch=1 n=a5 v=65
14771 On ch=1 n=a5 v=0
14783 On ch=1 n=c#5 v=58
14785 On ch=1 n=c#6 v=0
14811 On ch=1 n=c#5 v=0
14811 On ch=1 n=a5 v=52
14839 On ch=1 n=a5 v=0
14846 On ch=1 n=f#4 v=0
14852 On ch=1 n=d#6 v=73
14859 On ch=1 n=b5 v=59
14859 On ch=1 n=b3 v=47
14864 Par ch=1 c=64 v=56
14868 Par ch=1 c=64 v=0
14879 Par ch=1 c=64 v=24
14884 Par ch=1 c=64 v=104
14885 On ch=1 n=b5 v=0
14887 On ch=1 n=f#5 v=56
14888 Par ch=1 c=64 v=127
14895 On ch=1 n=d#6 v=0
14920 On ch=1 n=f#5 v=0
14921 On ch=1 n=a5 v=63
14937 On ch=1 n=a5 v=0
14947 On ch=1 n=e6 v=82
14950 On ch=1 n=c#6 v=65
14957 On ch=1 n=f#4 v=40
14972 On ch=1 n=e6 v=0
14979 On ch=1 n=c#6 v=0
14980 On ch=1 n=g#5 v=57
15011 On ch=1 n=g#5 v=0
15012 On ch=1 n=b5 v=61
15031 On ch=1 n=b5 v=0
15034 On ch=1 n=b3 v=0
15040 On ch=1 n=f#6 v=71
15043 On ch=1 n=d#6 v=71
15048 On ch=1 n=a4 v=58
15050 On ch=1 n=f#4 v=0
15066 On ch=1 n=d#6 v=0
15071 On ch=1 n=f#6 v=0
15074 On ch=1 n=a5 v=61
15098 On ch=1 n=a4 v=0
15101 On ch=1 n=c#6 v=71
15104 On ch=1 n=a5 v=0
15129 On ch=1 n=c#6 v=0
15131 On ch=1 n=b4 v=57
15134 On ch=1 n=g#6 v=74
15135 On ch=1 n=e6 v=76
15157 On ch=1 n=e6 v=0
15165 On ch=1 n=g#6 v=0
15169 On ch=1 n=b5 v=64
15195 On ch=1 n=d#6 v=76
15202 On ch=1 n=b5 v=0
15220 On ch=1 n=d#6 v=0
15223 On ch=1 n=b4 v=0
15225 On ch=1 n=a6 v=82
15226 On ch=1 n=d#5 v=64
15227 On ch=1 n=f#6 v=73
15252 On ch=1 n=a6 v=0
15255 On ch=1 n=f#6 v=0
15256 On ch=1 n=c#6 v=68
15286 On ch=1 n=e6 v=70
15291 On ch=1 n=c#6 v=0
15310 On ch=1 n=e6 v=0
15314 On ch=1 n=b6 v=87
15317 On ch=1 n=g#6 v=75
15322 On ch=1 n=f#5 v=64
15328 On ch=1 n=d#5 v=0
15343 On ch=1 n=b6 v=0
15347 On ch=1 n=g#6 v=0
15350 On ch=1 n=d#6 v=69
15364 On ch=1 n=f#5 v=0
15381 On ch=1 n=f#6 v=69
15390 On ch=1 n=d#6 v=0
15410 On ch=1 n=f#6 v=0
15410 On ch=1 n=a5 v=66
15413 On ch=1 n=c#7 v=77
15418 On ch=1 n=a6 v=70
15439 On ch=1 n=a6 v=0
15450 On ch=1 n=e6 v=56
15478 On ch=1 n=c#7 v=0
15487 On ch=1 n=g#6 v=69
15488 On ch=1 n=e6 v=0
15520 On ch=1 n=g#6 v=0
15530 On ch=1 n=d#7 v=79
15534 On ch=1 n=a5 v=0
15534 On ch=1 n=b6 v=60
15535 On ch=1 n=b5 v=65
15551 On ch=1 n=b6 v=0
15563 On ch=1 n=b5 v=0
15572 On ch=1 n=f#6 v=53
15619 On ch=1 n=a6 v=70
15627 On ch=1 n=d#7 v=0
15644 On ch=1 n=a6 v=0
15652 On ch=1 n=f#6 v=0
15704 On ch=1 n=f#7 v=87
15708 On ch=1 n=f#6 v=26
15708 Par ch=1 c=64 v=104
15709 On ch=1 n=b6 v=70
15711 On ch=1 n=g#6 v=47
15711 On ch=1 n=e2 v=44
15713 Par ch=1 c=64 v=0
15741 Par ch=1 c=64 v=127
15760 On ch=1 n=e2 v=0
15762 On ch=1 n=e3 v=68
15768 On ch=1 n=e3 v=0
15814 On ch=1 n=b3 v=53
15826 On ch=1 n=f#7 v=0
15836 On ch=1 n=f#6 v=0
15844 On ch=1 n=b3 v=0
15848 On ch=1 n=e4 v=53
15887 On ch=1 n=e4 v=0
15894 On ch=1 n=e7 v=82
15895 On ch=1 n=g#4 v=49
15898 On ch=1 n=e6 v=58
15943 On ch=1 n=g#4 v=0
15945 On ch=1 n=b4 v=64
15960 On ch=1 n=b4 v=0
15999 On ch=1 n=e5 v=49
16043 On ch=1 n=g#5 v=63
16050 On ch=1 n=e6 v=0
16076 On ch=1 n=g#5 v=0
16082 On ch=1 n=e5 v=0
16114 On ch=1 n=g#6 v=0
16116 On ch=1 n=b6 v=0
16119 On ch=1 n=e6 v=70
16192 On ch=1 n=e6 v=0
16196 On ch=1 n=e7 v=0
16380 On ch=1 n=e5 v=53
16415 On ch=1 n=e5 v=0
16635 On ch=1 n=e6 v=70
16644 On ch=1 n=b4 v=37
16646 On ch=1 n=a5 v=31
16647 On ch=1 n=f#5 v=20
16648 Par ch=1 c=64 v=40
16651 Par ch=1 c=64 v=0
16675 Par ch=1 c=64 v=72
16677 On ch=1 n=e6 v=0
16679 Par ch=1 c=64 v=127
16683 On ch=1 n=d6 v=74
16708 On ch=1 n=c#5 v=36
16718 On ch=1 n=d6 v=0
16729 On ch=1 n=e6 v=73
16749 On ch=1 n=c#5 v=0
16761 On ch=1 n=e6 v=0
16783 On ch=1 n=c#6 v=64
16790 On ch=1 n=d5 v=43
16809 Par ch=1 c=64 v=104
16812 Par ch=1 c=64 v=40
16817 Par ch=1 c=64 v=0
16860 Par ch=1 c=64 v=56
16864 Par ch=1 c=64 v=127
16889 On ch=1 n=b4 v=0
16897 On ch=1 n=f#5 v=0
16903 On ch=1 n=d5 v=0
16950 On ch=1 n=c#6 v=0
16962 On ch=1 n=a5 v=0
16972 On ch=1 n=b5 v=74
16995 On ch=1 n=b5 v=0
17035 On ch=1 n=b5 v=72
17039 Par ch=1 c=64 v=88
17039 On ch=1 n=g#5 v=46
17039 On ch=1 n=d5 v=42
17042 On ch=1 n=e4 v=44
17043 Par ch=1 c=64 v=24
17047 Par ch=1 c=64 v=0
17063 Par ch=1 c=64 v=72
17067 Par ch=1 c=64 v=127
17088 On ch=1 n=b5 v=0
17089 On ch=1 n=d5 v=0
17093 On ch=1 n=g#5 v=0
17093 On ch=1 n=e4 v=0
17095 On ch=1 n=c#6 v=72
17111 On ch=1 n=c#6 v=0
17160 On ch=1 n=a5 v=76
17164 On ch=1 n=f#5 v=43
17165 On ch=1 n=c#5 v=39
17170 On ch=1 n=f#4 v=35
17171 Par ch=1 c=64 v=104
17176 Par ch=1 c=64 v=24
17180 Par ch=1 c=64 v=0
17200 Par ch=1 c=64 v=72
17204 Par ch=1 c=64 v=127
17212 On ch=1 n=c#5 v=0
17219 On ch=1 n=a5 v=0
17222 On ch=1 n=f#4 v=0
17224 On ch=1 n=f#5 v=0
17295 On ch=1 n=f#5 v=69
17300 On ch=1 n=d#5 v=42
17304 On ch=1 n=a4 v=44
17309 On ch=1 n=b3 v=39
17337 Par ch=1 c=64 v=72
17341 Par ch=1 c=64 v=0
17373 Par ch=1 c=64 v=88
17377 Par ch=1 c=64 v=127
17455 On ch=1 n=f#5 v=0
17458 On ch=1 n=a4 v=0
17463 On ch=1 n=b3 v=0
17517 On ch=1 n=d#5 v=0
17518 On ch=1 n=g#5 v=68
17582 On ch=1 n=g#5 v=0
17636 On ch=1 n=f#5 v=69
17637 On ch=1 n=g#4 v=50
17639 On ch=1 n=b3 v=47
17640 On ch=1 n=e3 v=41
17641 Par ch=1 c=64 v=40
17641 On ch=1 n=d5 v=54
17644 Par ch=1 c=64 v=0
17650 On ch=1 n=d5 v=0
17660 On ch=1 n=e3 v=0
17661 Par ch=1 c=64 v=72
17664 On ch=1 n=b3 v=0
17665 Par ch=1 c=64 v=127
17671 On ch=1 n=g#4 v=0
17688 On ch=1 n=f#5 v=0
17700 On ch=1 n=e5 v=80
17710 On ch=1 n=e5 v=0
17787 On ch=1 n=f#6 v=81
17793 On ch=1 n=d6 v=65
17797 On ch=1 n=b5 v=45
17798 On ch=1 n=g#4 v=36
17799 On ch=1 n=d5 v=36
17801 On ch=1 n=f#5 v=22
17827 Par ch=1 c=64 v=88
17831 Par ch=1 c=64 v=0
17864 Par ch=1 c=64 v=104
17868 Par ch=1 c=64 v=127
17919 On ch=1 n=d6 v=0
17939 On ch=1 n=f#5 v=0
17980 On ch=1 n=d5 v=0
18006 On ch=1 n=f#6 v=0
18010 On ch=1 n=e6 v=66
18013 Par ch=1 c=64 v=56
18014 On ch=1 n=e5 v=42
18017 Par ch=1 c=64 v=24
18021 Par ch=1 c=64 v=40
18025 On ch=1 n=b5 v=0
18025 Par ch=1 c=64 v=88
18029 On ch=1 n=e6 v=0
18029 Par ch=1 c=64 v=127
18035 On ch=1 n=e5 v=0
18043 On ch=1 n=g#4 v=0
18116 On ch=1 n=f#5 v=73
18117 Par ch=1 c=64 v=56
18120 On ch=1 n=c#5 v=53
18121 On ch=1 n=a4 v=60
18122 Par ch=1 c=64 v=0
18122 On ch=1 n=e4 v=52
18125 On ch=1 n=a3 v=54
18135 Par ch=1 c=64 v=56
18139 Par ch=1 c=64 v=127
18141 On ch=1 n=a3 v=0
18143 On ch=1 n=e4 v=0
18145 On ch=1 n=a4 v=0
18165 On ch=1 n=f#5 v=0
18174 On ch=1 n=e5 v=83
18180 On ch=1 n=c#5 v=0
18187 On ch=1 n=e5 v=0
18263 On ch=1 n=g#6 v=90
18268 On ch=1 n=e5 v=48
18270 On ch=1 n=a5 v=60
18271 On ch=1 n=c#6 v=40
18271 On ch=1 n=e4 v=47
18272 On ch=1 n=c#5 v=39
18276 On ch=1 n=a4 v=35
18292 Par ch=1 c=64 v=56
18296 Par ch=1 c=64 v=0
18329 Par ch=1 c=64 v=127
18348 On ch=1 n=a5 v=0
18353 On ch=1 n=c#6 v=0
18401 On ch=1 n=g#6 v=0
18436 On ch=1 n=e4 v=0
18459 On ch=1 n=b6 v=81
18483 On ch=1 n=a4 v=0
18494 On ch=1 n=e5 v=0
18504 On ch=1 n=c#5 v=0
18513 On ch=1 n=b6 v=0
18535 On ch=1 n=a6 v=79
18578 On ch=1 n=a6 v=0
18587 On ch=1 n=f#6 v=82
18606 On ch=1 n=f#6 v=0
18653 On ch=1 n=e6 v=82
18654 On ch=1 n=f#5 v=38
18656 Par ch=1 c=64 v=104
18659 On ch=1 n=a5 v=53
18659 On ch=1 n=b4 v=44
18659 Par ch=1 c=64 v=24
18664 Par ch=1 c=64 v=0
18670 On ch=1 n=a5 v=0
18684 On ch=1 n=e6 v=0
18684 Par ch=1 c=64 v=40
18685 On ch=1 n=a5 v=12
18688 Par ch=1 c=64 v=104
18692 Par ch=1 c=64 v=127
18696 On ch=1 n=d6 v=79
18713 On ch=1 n=c#5 v=44
18728 On ch=1 n=d6 v=0
18734 On ch=1 n=e6 v=77
18752 On ch=1 n=c#5 v=0
18771 On ch=1 n=e6 v=0
18781 On ch=1 n=c#6 v=70
18787 On ch=1 n=d5 v=45
18806 Par ch=1 c=64 v=104
18810 Par ch=1 c=64 v=72
18814 Par ch=1 c=64 v=24
18818 Par ch=1 c=64 v=0
18854 Par ch=1 c=64 v=72
18858 Par ch=1 c=64 v=127
18915 On ch=1 n=f#5 v=0
18929 On ch=1 n=c#6 v=0
18938 On ch=1 n=a5 v=0
18946 On ch=1 n=b5 v=72
18971 On ch=1 n=b5 v=0
19003 Par ch=1 c=64 v=72
19006 On ch=1 n=b5 v=79
19007 On ch=1 n=g#5 v=54
19008 Par ch=1 c=64 v=0
19009 On ch=1 n=f5 v=47
19019 Par ch=1 c=64 v=56
19023 Par ch=1 c=64 v=104
19028 Par ch=1 c=64 v=127
19038 On ch=1 n=f5 v=0
19041 On ch=1 n=d5 v=0
19045 On ch=1 n=b4 v=0
19050 On ch=1 n=b5 v=0
19053 On ch=1 n=g#5 v=0
19054 On ch=1 n=c#6 v=77
19072 On ch=1 n=c#6 v=0
19120 On ch=1 n=a5 v=77
19122 Par ch=1 c=64 v=88
19124 On ch=1 n=f#4 v=45
19124 On ch=1 n=c#5 v=36
19126 Par ch=1 c=64 v=0
19128 On ch=1 n=e5 v=47
19142 Par ch=1 c=64 v=40
19146 Par ch=1 c=64 v=104
19149 Par ch=1 c=64 v=127
19161 On ch=1 n=c#5 v=0
19168 On ch=1 n=f#4 v=0
19194 On ch=1 n=a5 v=0
19244 On ch=1 n=f#5 v=69
19256 On ch=1 n=a4 v=44
19257 On ch=1 n=b3 v=40
19263 Par ch=1 c=64 v=56
19267 Par ch=1 c=64 v=0
19303 Par ch=1 c=64 v=88
19307 Par ch=1 c=64 v=127
19364 Par ch=1 c=64 v=40
19368 Par ch=1 c=64 v=0
19370 On ch=1 n=e5 v=0
19372 On ch=1 n=d#5 v=46
19380 Par ch=1 c=64 v=24
19384 Par ch=1 c=64 v=88
19388 Par ch=1 c=64 v=127
19394 On ch=1 n=f#5 v=0
19424 On ch=1 n=a4 v=0
19444 On ch=1 n=f#5 v=74
19447 On ch=1 n=d#5 v=0
19453 On ch=1 n=b3 v=0
19476 On ch=1 n=f#5 v=0
19514 On ch=1 n=f#5 v=75
19514 On ch=1 n=a3 v=47
19514 On ch=1 n=d#4 v=43
19517 Par ch=1 c=64 v=72
19517 On ch=1 n=c#5 v=50
19521 Par ch=1 c=64 v=0
19541 Par ch=1 c=64 v=104
19545 Par ch=1 c=64 v=127
19573 On ch=1 n=a3 v=0
19574 On ch=1 n=g#5 v=76
19580 On ch=1 n=f#5 v=0
19583 On ch=1 n=c#5 v=0
19610 On ch=1 n=g#5 v=0
19628 On ch=1 n=d#4 v=0
19637 On ch=1 n=f#5 v=72
19642 Par ch=1 c=64 v=56
19643 On ch=1 n=b4 v=54
19646 On ch=1 n=g#3 v=42
19646 Par ch=1 c=64 v=0
19651 On ch=1 n=e4 v=41
19670 Par ch=1 c=64 v=127
19677 On ch=1 n=b4 v=0
19688 On ch=1 n=f#5 v=0
19690 On ch=1 n=e5 v=82
19706 On ch=1 n=e4 v=0
19722 On ch=1 n=e5 v=0
19728 On ch=1 n=b4 v=79
19739 On ch=1 n=g#3 v=0
19748 On ch=1 n=b4 v=0
19781 On ch=1 n=c#5 v=72
19786 On ch=1 n=a4 v=53
19786 On ch=1 n=f#3 v=43
19788 On ch=1 n=e4 v=49
19803 Par ch=1 c=64 v=72
19808 Par ch=1 c=64 v=0
19872 Par ch=1 c=64 v=72
19876 Par ch=1 c=64 v=127
19923 On ch=1 n=e4 v=0
19933 On ch=1 n=f#3 v=0
19939 On ch=1 n=c#5 v=0
19947 On ch=1 n=a4 v=0
20039 On ch=1 n=e5 v=64
20042 On ch=1 n=c#5 v=46
20046 On ch=1 n=a4 v=41
20047 On ch=1 n=b3 v=42
20051 On ch=1 n=b2 v=43
20055 Par ch=1 c=64 v=88
20059 Par ch=1 c=64 v=24
20063 Par ch=1 c=64 v=0
20083 On ch=1 n=b2 v=0
20083 Par ch=1 c=64 v=24
20086 On ch=1 n=c#5 v=0
20087 Par ch=1 c=64 v=88
20088 On ch=1 n=e5 v=0
20091 Par ch=1 c=64 v=127
20092 On ch=1 n=a4 v=0
20098 On ch=1 n=b3 v=0
20171 On ch=1 n=e5 v=67
20175 On ch=1 n=b4 v=47
20179 On ch=1 n=b3 v=39
20179 On ch=1 n=a4 v=25
20181 On ch=1 n=e3 v=45
20188 Par ch=1 c=64 v=88
20192 Par ch=1 c=64 v=24
20196 Par ch=1 c=64 v=0
20223 Par ch=1 c=64 v=88
20228 Par ch=1 c=64 v=127
20280 On ch=1 n=a4 v=0
20291 On ch=1 n=g#4 v=43
20309 Par ch=1 c=64 v=56
20313 Par ch=1 c=64 v=0
20321 On ch=1 n=b4 v=0
20337 Par ch=1 c=64 v=72
20341 Par ch=1 c=64 v=127
20351 On ch=1 n=e3 v=0
20353 On ch=1 n=b3 v=0
20415 On ch=1 n=e3 v=41
20426 Par ch=1 c=64 v=104
20430 Par ch=1 c=64 v=40
20434 Par ch=1 c=64 v=0
20454 Par ch=1 c=64 v=72
20458 Par ch=1 c=64 v=127
20519 On ch=1 n=e5 v=0
20525 On ch=1 n=g#4 v=0
20545 On ch=1 n=e4 v=41
20555 Par ch=1 c=64 v=56
20559 Par ch=1 c=64 v=0
20571 Par ch=1 c=64 v=24
20575 Par ch=1 c=64 v=72
20579 Par ch=1 c=64 v=127
20586 On ch=1 n=e3 v=0
20592 On ch=1 n=e4 v=0
20655 Par ch=1 c=64 v=72
20659 Par ch=1 c=64 v=0
20663 On ch=1 n=d4 v=42
20684 Par ch=1 c=64 v=24
20687 On ch=1 n=d4 v=0
20688 Par ch=1 c=64 v=72
20692 Par ch=1 c=64 v=127
20696 On ch=1 n=f#4 v=43
20719 On ch=1 n=f#4 v=0
20734 On ch=1 n=a4 v=49
20760 On ch=1 n=a4 v=0
20763 On ch=1 n=c#5 v=58
20767 On ch=1 n=f#3 v=46
20777 Par ch=1 c=64 v=104
20781 Par ch=1 c=64 v=40
20785 Par ch=1 c=64 v=0
20793 On ch=1 n=c#5 v=0
20797 Par ch=1 c=64 v=56
20797 On ch=1 n=b4 v=59
20800 Par ch=1 c=64 v=88
20804 Par ch=1 c=64 v=127
20831 On ch=1 n=a4 v=57
20832 On ch=1 n=b4 v=0
20846 On ch=1 n=a4 v=0
20862 On ch=1 n=g#4 v=58
20889 On ch=1 n=g#4 v=0
20899 On ch=1 n=b4 v=66
20918 On ch=1 n=b4 v=0
20921 On ch=1 n=f#3 v=0
20929 On ch=1 n=d5 v=73
20955 On ch=1 n=d5 v=0
20959 On ch=1 n=f#5 v=72
20962 Par ch=1 c=64 v=88
20962 On ch=1 n=e3 v=44
20966 Par ch=1 c=64 v=40
20970 Par ch=1 c=64 v=0
20982 Par ch=1 c=64 v=24
20986 On ch=1 n=f#5 v=0
20987 Par ch=1 c=64 v=56
20991 On ch=1 n=e5 v=69
20991 Par ch=1 c=64 v=104
20995 Par ch=1 c=64 v=127
21021 On ch=1 n=d5 v=75
21026 On ch=1 n=e5 v=0
21036 On ch=1 n=d5 v=0
21044 On ch=1 n=e3 v=0
21048 On ch=1 n=c#5 v=63
21073 On ch=1 n=c#5 v=0
21082 On ch=1 n=e5 v=74
21102 On ch=1 n=e5 v=0
21110 On ch=1 n=g#5 v=71
21137 On ch=1 n=g#5 v=0
21143 On ch=1 n=b5 v=82
21148 On ch=1 n=a3 v=47
21149 Par ch=1 c=64 v=72
21151 On ch=1 n=a2 v=40
21153 Par ch=1 c=64 v=0
21167 On ch=1 n=b5 v=0
21169 Par ch=1 c=64 v=40
21173 Par ch=1 c=64 v=88
21173 On ch=1 n=a5 v=77
21177 Par ch=1 c=64 v=127
21202 On ch=1 n=a2 v=0
21202 On ch=1 n=a3 v=0
21202 On ch=1 n=g#5 v=81
21206 On ch=1 n=a5 v=0
21224 On ch=1 n=g#5 v=0
21234 On ch=1 n=f#5 v=77
21253 On ch=1 n=f#5 v=0
21265 On ch=1 n=a5 v=86
21284 On ch=1 n=a5 v=0
21295 On ch=1 n=c#6 v=83
21321 On ch=1 n=c#6 v=0
21328 On ch=1 n=e6 v=90
21330 On ch=1 n=d4 v=59
21332 On ch=1 n=d3 v=50
21334 Par ch=1 c=64 v=88
21338 Par ch=1 c=64 v=0
21353 On ch=1 n=e6 v=0
21358 On ch=1 n=d6 v=86
21363 Par ch=1 c=64 v=72
21367 Par ch=1 c=64 v=127
21389 On ch=1 n=d4 v=0
21389 On ch=1 n=c#6 v=85
21394 On ch=1 n=d6 v=0
21396 On ch=1 n=d3 v=0
21413 On ch=1 n=c#6 v=0
21422 On ch=1 n=b5 v=83
21454 On ch=1 n=d6 v=89
21484 On ch=1 n=f#6 v=85
21494 On ch=1 n=d6 v=0
21520 Par ch=1 c=64 v=56
21524 Par ch=1 c=64 v=0
21530 On ch=1 n=a6 v=97
21533 On ch=1 n=f#6 v=0
21536 On ch=1 n=b2 v=59
21538 On ch=1 n=b3 v=49
21540 On ch=1 n=b5 v=0
21546 On ch=1 n=b2 v=0
21548 Par ch=1 c=64 v=72
21552 Par ch=1 c=64 v=127
21558 On ch=1 n=b3 v=0
21637 On ch=1 n=d6 v=77
21639 On ch=1 n=b5 v=60
21639 On ch=1 n=f#5 v=59
21640 On ch=1 n=a6 v=0
21641 On ch=1 n=d5 v=57
21641 On ch=1 n=f#4 v=54
21643 On ch=1 n=b4 v=53
21651 On ch=1 n=b4 v=0
21653 On ch=1 n=d5 v=0
21655 On ch=1 n=f#5 v=0
21663 On ch=1 n=f#4 v=0
21690 On ch=1 n=b5 v=0
21690 On ch=1 n=g#6 v=87
21705 On ch=1 n=d6 v=0
21717 On ch=1 n=g#6 v=0
21754 On ch=1 n=f#6 v=85
21757 Par ch=1 c=64 v=56
21759 On ch=1 n=d6 v=69
21759 On ch=1 n=g#5 v=57
21760 On ch=1 n=e4 v=56
21762 On ch=1 n=e3 v=49
21762 Par ch=1 c=64 v=0
21778 Par ch=1 c=64 v=56
21781 On ch=1 n=e4 v=0
21782 Par ch=1 c=64 v=127
21788 On ch=1 n=d6 v=0
21790 On ch=1 n=e3 v=0
21799 On ch=1 n=f#6 v=0
21811 On ch=1 n=e6 v=96
21819 On ch=1 n=g#5 v=0
21850 On ch=1 n=e6 v=0
21869 On ch=1 n=f#6 v=85
21871 Par ch=1 c=64 v=56
21874 On ch=1 n=c#6 v=54
21876 Par ch=1 c=64 v=0
21877 On ch=1 n=a5 v=56
21877 On ch=1 n=a2 v=54
21879 On ch=1 n=a3 v=53
21886 On ch=1 n=a2 v=0
21896 Par ch=1 c=64 v=88
21898 On ch=1 n=a3 v=0
21900 Par ch=1 c=64 v=127
21910 On ch=1 n=f#6 v=0
21920 On ch=1 n=c#6 v=0
21926 On ch=1 n=e6 v=88
21962 On ch=1 n=e6 v=0
21971 On ch=1 n=d6 v=86
21975 On ch=1 n=e4 v=63
21996 On ch=1 n=e4 v=0
22014 On ch=1 n=d6 v=0
22022 On ch=1 n=c#6 v=81
22033 On ch=1 n=a5 v=0
22051 On ch=1 n=c#6 v=0
22078 On ch=1 n=d6 v=84
22085 On ch=1 n=f#5 v=50
22089 Par ch=1 c=64 v=40
22089 On ch=1 n=a5 v=36
22093 Par ch=1 c=64 v=0
22109 Par ch=1 c=64 v=24
22113 Par ch=1 c=64 v=88
22118 Par ch=1 c=64 v=127
22134 On ch=1 n=a5 v=0
22136 On ch=1 n=f#5 v=0
22136 On ch=1 n=d6 v=0
22136 On ch=1 n=c#6 v=78
22142 On ch=1 n=e5 v=48
22182 On ch=1 n=e5 v=0
22193 On ch=1 n=c#6 v=0
22196 On ch=1 n=d5 v=44
22197 On ch=1 n=b5 v=70
22207 Par ch=1 c=64 v=56
22211 Par ch=1 c=64 v=0
22235 Par ch=1 c=64 v=40
22239 Par ch=1 c=64 v=104
22241 On ch=1 n=d5 v=0
22243 Par ch=1 c=64 v=127
22252 On ch=1 n=b5 v=0
22253 On ch=1 n=a5 v=65
22253 On ch=1 n=c#5 v=40
22272 On ch=1 n=a5 v=0
22273 On ch=1 n=c#5 v=0
22324 Par ch=1 c=64 v=88
22328 Par ch=1 c=64 v=0
22332 On ch=1 n=d4 v=72
22361 Par ch=1 c=64 v=56
22363 On ch=1 n=d4 v=0
22365 Par ch=1 c=64 v=104
22369 Par ch=1 c=64 v=127
22369 On ch=1 n=f#4 v=61
22393 On ch=1 n=f#4 v=0
22405 On ch=1 n=a4 v=67
22440 On ch=1 n=a4 v=0
22440 On ch=1 n=c#5 v=68
22444 On ch=1 n=f#3 v=40
22445 Par ch=1 c=64 v=56
22449 Par ch=1 c=64 v=0
22457 Par ch=1 c=64 v=24
22461 Par ch=1 c=64 v=56
22465 Par ch=1 c=64 v=104
22469 Par ch=1 c=64 v=127
22471 On ch=1 n=c#5 v=0
22473 On ch=1 n=b4 v=62
22504 On ch=1 n=a4 v=70
22507 On ch=1 n=f#3 v=0
22509 On ch=1 n=b4 v=0
22523 On ch=1 n=a4 v=0
22526 Par ch=1 c=64 v=56
22530 Par ch=1 c=64 v=24
22534 Par ch=1 c=64 v=40
22537 On ch=1 n=g#4 v=75
22538 Par ch=1 c=64 v=88
22542 Par ch=1 c=64 v=127
22574 On ch=1 n=b4 v=70
22589 On ch=1 n=g#4 v=0
22597 On ch=1 n=b4 v=0
22603 On ch=1 n=d5 v=76
22635 On ch=1 n=f#5 v=71
22639 On ch=1 n=e3 v=55
22643 On ch=1 n=d5 v=0
22643 Par ch=1 c=64 v=72
22654 Par ch=1 c=64 v=127
22662 On ch=1 n=f#5 v=0
22667 On ch=1 n=e5 v=73
22670 On ch=1 n=e3 v=0
22695 On ch=1 n=d5 v=81
22701 On ch=1 n=e5 v=0
22713 On ch=1 n=d5 v=0
22727 On ch=1 n=c#5 v=77
22749 On ch=1 n=c#5 v=0
22758 On ch=1 n=e5 v=81
22777 On ch=1 n=e5 v=0
22786 On ch=1 n=g#5 v=77
22816 On ch=1 n=g#5 v=0
22819 On ch=1 n=b5 v=87
22820 On ch=1 n=a3 v=59
22821 Par ch=1 c=64 v=72
22823 On ch=1 n=a2 v=42
22824 Par ch=1 c=64 v=0
22833 Par ch=1 c=64 v=24
22836 Par ch=1 c=64 v=72
22840 Par ch=1 c=64 v=127
22844 On ch=1 n=b5 v=0
22849 On ch=1 n=a2 v=0
22849 On ch=1 n=a5 v=85
22852 On ch=1 n=a3 v=0
22879 On ch=1 n=g#5 v=82
22880 On ch=1 n=a5 v=0
22900 On ch=1 n=g#5 v=0
22910 On ch=1 n=f#5 v=78
22927 On ch=1 n=f#5 v=0
22937 On ch=1 n=a5 v=89
22955 On ch=1 n=a5 v=0
22966 On ch=1 n=c#6 v=86
22993 On ch=1 n=c#6 v=0
22998 On ch=1 n=e6 v=93
23002 On ch=1 n=d4 v=58
23006 On ch=1 n=d3 v=48
23007 Par ch=1 c=64 v=104
23011 Par ch=1 c=64 v=40
23015 Par ch=1 c=64 v=0
23024 Par ch=1 c=64 v=72
23026 On ch=1 n=e6 v=0
23026 On ch=1 n=d6 v=85
23028 Par ch=1 c=64 v=127
23047 On ch=1 n=d4 v=0
23051 On ch=1 n=d3 v=0
23056 On ch=1 n=c#6 v=89
23065 On ch=1 n=d6 v=0
23080 On ch=1 n=c#6 v=0
23088 On ch=1 n=b5 v=93
23119 On ch=1 n=d6 v=92
23148 On ch=1 n=f#6 v=89
23158 On ch=1 n=d6 v=0
23189 On ch=1 n=b5 v=0
23189 Par ch=1 c=64 v=40
23192 On ch=1 n=f#6 v=0
23192 Par ch=1 c=64 v=0
23194 On ch=1 n=a6 v=97
23196 On ch=1 n=b2 v=65
23200 On ch=1 n=b3 v=67
23209 Par ch=1 c=64 v=72
23212 On ch=1 n=b2 v=0
23213 Par ch=1 c=64 v=127
23217 On ch=1 n=b3 v=0
23296 On ch=1 n=d6 v=76
23299 On ch=1 n=b5 v=61
23300 On ch=1 n=f#5 v=60
23304 On ch=1 n=d5 v=51
23304 On ch=1 n=f#4 v=44
23305 On ch=1 n=b4 v=46
23328 On ch=1 n=a6 v=0
23342 On ch=1 n=d6 v=0
23347 On ch=1 n=g#6 v=84
23372 On ch=1 n=f#4 v=0
23380 On ch=1 n=b4 v=0
23380 On ch=1 n=f#5 v=0
23383 On ch=1 n=d5 v=0
23393 On ch=1 n=g#6 v=0
23398 On ch=1 n=f#6 v=90
23439 On ch=1 n=f#6 v=0
23446 On ch=1 n=g#6 v=86
23458 On ch=1 n=b5 v=0
23495 On ch=1 n=g#6 v=0
23502 On ch=1 n=b5 v=86
23535 On ch=1 n=d6 v=90
23564 On ch=1 n=f#6 v=88
23574 On ch=1 n=d6 v=0
23601 Par ch=1 c=64 v=104
23606 Par ch=1 c=64 v=0
23611 On ch=1 n=f#6 v=0
23613 On ch=1 n=a6 v=97
23618 On ch=1 n=d3 v=67
23618 On ch=1 n=d4 v=66
23630 Par ch=1 c=64 v=56
23632 On ch=1 n=b5 v=0
23634 On ch=1 n=d3 v=0
23634 Par ch=1 c=64 v=127
23639 On ch=1 n=d4 v=0
23727 On ch=1 n=d6 v=69
23731 On ch=1 n=b5 v=53
23732 On ch=1 n=f#5 v=53
23734 On ch=1 n=b4 v=47
23735 On ch=1 n=f#4 v=48
23736 On ch=1 n=d5 v=50
23741 On ch=1 n=a6 v=0
23797 On ch=1 n=g#6 v=84
23852 On ch=1 n=g#6 v=0
23852 On ch=1 n=d6 v=0
23862 On ch=1 n=f#6 v=79
23874 On ch=1 n=f#5 v=0
23876 On ch=1 n=f#4 v=0
23881 On ch=1 n=d5 v=0
23883 On ch=1 n=b4 v=0
23920 On ch=1 n=f#6 v=0
23924 On ch=1 n=b5 v=0
23928 On ch=1 n=g#6 v=85
23947 On ch=1 n=g#6 v=0
24015 On ch=1 n=e6 v=77
24019 On ch=1 n=d5 v=49
24019 On ch=1 n=g#5 v=47
24020 Par ch=1 c=64 v=24
24021 On ch=1 n=e4 v=37
24025 Par ch=1 c=64 v=0
24050 On ch=1 n=e6 v=0
24053 Par ch=1 c=64 v=88
24057 Par ch=1 c=64 v=127
24063 On ch=1 n=d6 v=73
24096 On ch=1 n=d6 v=0
24098 On ch=1 n=e6 v=81
24108 On ch=1 n=g#5 v=0
24115 On ch=1 n=e6 v=0
24149 On ch=1 n=c#6 v=71
24180 Par ch=1 c=64 v=104
24184 Par ch=1 c=64 v=24
24188 Par ch=1 c=64 v=0
24207 Par ch=1 c=64 v=24
24211 Par ch=1 c=64 v=72
24215 Par ch=1 c=64 v=127
24244 On ch=1 n=e4 v=0
24256 Par ch=1 c=64 v=72
24259 On ch=1 n=f#4 v=47
24259 Par ch=1 c=64 v=0
24261 On ch=1 n=f#5 v=51
24276 Par ch=1 c=64 v=56
24280 Par ch=1 c=64 v=127
24304 On ch=1 n=c#6 v=0
24312 On ch=1 n=b5 v=70
24339 On ch=1 n=b5 v=0
24362 On ch=1 n=f#4 v=0
24378 On ch=1 n=g#4 v=43
24378 On ch=1 n=b5 v=68
24381 Par ch=1 c=64 v=104
24385 Par ch=1 c=64 v=40
24386 On ch=1 n=f5 v=37
24389 Par ch=1 c=64 v=0
24410 Par ch=1 c=64 v=56
24414 Par ch=1 c=64 v=127
24424 On ch=1 n=f#5 v=0
24430 On ch=1 n=b5 v=0
24434 On ch=1 n=c#6 v=70
24437 On ch=1 n=f5 v=0
24440 On ch=1 n=d5 v=0
24454 On ch=1 n=g#4 v=0
24481 On ch=1 n=c#6 v=0
24501 On ch=1 n=a5 v=71
24508 On ch=1 n=e5 v=48
24513 On ch=1 n=a4 v=42
24514 Par ch=1 c=64 v=88
24514 On ch=1 n=c#5 v=26
24518 Par ch=1 c=64 v=0
24543 Par ch=1 c=64 v=104
24547 Par ch=1 c=64 v=127
24600 On ch=1 n=a4 v=0
24605 On ch=1 n=c#5 v=0
24613 On ch=1 n=a5 v=0
24623 On ch=1 n=e5 v=0
24625 On ch=1 n=f#5 v=69
24744 Par ch=1 c=64 v=72
24748 Par ch=1 c=64 v=0
24753 On ch=1 n=d#5 v=44
24756 On ch=1 n=a4 v=41
24756 On ch=1 n=b3 v=46
24772 Par ch=1 c=64 v=56
24776 Par ch=1 c=64 v=127
24786 On ch=1 n=a4 v=0
24787 On ch=1 n=b3 v=0
24807 On ch=1 n=f#5 v=0
24811 On ch=1 n=d#5 v=0
24815 On ch=1 n=g#5 v=73
24850 On ch=1 n=g#5 v=0
24887 On ch=1 n=f#5 v=69
24889 On ch=1 n=g#4 v=46
24890 Par ch=1 c=64 v=56
24892 On ch=1 n=d5 v=55
24895 Par ch=1 c=64 v=0
24895 On ch=1 n=b3 v=55
24897 On ch=1 n=e3 v=39
24902 On ch=1 n=d5 v=0
24911 Par ch=1 c=64 v=56
24915 Par ch=1 c=64 v=127
24918 On ch=1 n=b3 v=0
24920 On ch=1 n=e3 v=0
24938 On ch=1 n=g#4 v=0
24945 On ch=1 n=f#5 v=0
24947 On ch=1 n=e5 v=82
24961 On ch=1 n=e5 v=0
25037 On ch=1 n=f#6 v=78
25043 On ch=1 n=b5 v=45
25043 On ch=1 n=d6 v=53
25046 On ch=1 n=g#4 v=42
25046 On ch=1 n=f#5 v=34
25047 On ch=1 n=d5 v=42
25068 Par ch=1 c=64 v=56
25072 Par ch=1 c=64 v=0
25105 Par ch=1 c=64 v=72
25109 Par ch=1 c=64 v=127
25197 On ch=1 n=d6 v=0
25198 On ch=1 n=f#5 v=0
25238 On ch=1 n=d5 v=0
25268 On ch=1 n=e6 v=67
25271 On ch=1 n=e5 v=44
25273 On ch=1 n=f#6 v=0
25279 On ch=1 n=b5 v=0
25288 On ch=1 n=e6 v=0
25290 On ch=1 n=e5 v=0
25301 On ch=1 n=g#4 v=0
25379 On ch=1 n=f#5 v=69
25383 Par ch=1 c=64 v=104
25384 On ch=1 n=a4 v=58
25384 On ch=1 n=c#5 v=51
25387 Par ch=1 c=64 v=24
25388 On ch=1 n=a3 v=45
25391 Par ch=1 c=64 v=0
25393 On ch=1 n=e4 v=42
25411 Par ch=1 c=64 v=72
25415 On ch=1 n=a3 v=0
25415 Par ch=1 c=64 v=127
25417 On ch=1 n=e4 v=0
25433 On ch=1 n=f#5 v=0
25433 On ch=1 n=a4 v=0
25445 On ch=1 n=e5 v=82
25450 On ch=1 n=c#5 v=0
25460 On ch=1 n=e5 v=0
25535 On ch=1 n=g#6 v=92
25541 On ch=1 n=a5 v=64
25543 On ch=1 n=e5 v=55
25544 On ch=1 n=c#5 v=37
25544 On ch=1 n=e4 v=52
25544 On ch=1 n=c#6 v=37
25547 On ch=1 n=a4 v=42
25556 Par ch=1 c=64 v=72
25560 Par ch=1 c=64 v=0
25593 Par ch=1 c=64 v=56
25597 Par ch=1 c=64 v=127
25633 On ch=1 n=a5 v=0
25634 On ch=1 n=c#6 v=0
25669 On ch=1 n=g#6 v=0
25731 On ch=1 n=b6 v=88
25773 On ch=1 n=b6 v=0
25808 On ch=1 n=a6 v=83
25832 On ch=1 n=e4 v=0
25837 On ch=1 n=e5 v=0
25837 On ch=1 n=a4 v=0
25847 On ch=1 n=c#5 v=0
25858 On ch=1 n=a6 v=0
25866 On ch=1 n=f#6 v=84
25886 On ch=1 n=f#6 v=0
25940 On ch=1 n=f#5 v=33
25942 On ch=1 n=b4 v=43
25944 On ch=1 n=e6 v=83
25951 On ch=1 n=a5 v=55
25952 Par ch=1 c=64 v=72
25955 Par ch=1 c=64 v=0
25980 On ch=1 n=e6 v=0
25980 Par ch=1 c=64 v=40
25984 Par ch=1 c=64 v=104
25986 On ch=1 n=d6 v=83
25988 Par ch=1 c=64 v=127
26003 On ch=1 n=c#5 v=50
26018 On ch=1 n=d6 v=0
26022 On ch=1 n=e6 v=87
26048 On ch=1 n=c#5 v=0
26065 On ch=1 n=e6 v=0
26081 On ch=1 n=c#6 v=71
26090 On ch=1 n=d5 v=40
26109 Par ch=1 c=64 v=104
26113 Par ch=1 c=64 v=56
26117 Par ch=1 c=64 v=0
26149 Par ch=1 c=64 v=40
26153 Par ch=1 c=64 v=104
26157 Par ch=1 c=64 v=127
26224 On ch=1 n=f#5 v=0
26226 On ch=1 n=c#6 v=0
26236 On ch=1 n=a5 v=0
26242 On ch=1 n=b5 v=73
26267 On ch=1 n=b5 v=0
26304 Par ch=1 c=64 v=72
26304 On ch=1 n=b5 v=80
26307 On ch=1 n=g#5 v=51
26308 Par ch=1 c=64 v=0
26310 On ch=1 n=f5 v=47
26327 On ch=1 n=g#5 v=0
26328 Par ch=1 c=64 v=40
26332 Par ch=1 c=64 v=127
26334 On ch=1 n=f5 v=0
26337 On ch=1 n=d5 v=0
26346 On ch=1 n=b4 v=0
26354 On ch=1 n=b5 v=0
26364 On ch=1 n=c#6 v=76
26382 On ch=1 n=c#6 v=0
26428 On ch=1 n=a5 v=78
26433 On ch=1 n=c#5 v=32
26435 On ch=1 n=e5 v=51
26437 On ch=1 n=f#4 v=37
26437 Par ch=1 c=64 v=88
26441 Par ch=1 c=64 v=24
26445 Par ch=1 c=64 v=0
26469 Par ch=1 c=64 v=72
26473 Par ch=1 c=64 v=127
26518 On ch=1 n=c#5 v=0
26528 On ch=1 n=f#4 v=0
26534 On ch=1 n=a5 v=0
26537 On ch=1 n=e5 v=0
26544 On ch=1 n=g#5 v=72
26663 On ch=1 n=d#5 v=55
26667 Par ch=1 c=64 v=72
26669 On ch=1 n=a4 v=47
26671 Par ch=1 c=64 v=0
26674 On ch=1 n=b3 v=42
26703 Par ch=1 c=64 v=104
26707 Par ch=1 c=64 v=127
26729 On ch=1 n=f#5 v=71
26735 On ch=1 n=g#5 v=0
26737 On ch=1 n=b3 v=0
26737 On ch=1 n=a4 v=0
26746 On ch=1 n=d#5 v=0
26756 On ch=1 n=f#5 v=0
26805 On ch=1 n=f#5 v=71
26810 On ch=1 n=c#5 v=44
26812 Par ch=1 c=64 v=40
26813 On ch=1 n=d#4 v=38
26815 On ch=1 n=a3 v=44
26816 Par ch=1 c=64 v=0
26836 Par ch=1 c=64 v=56
26839 Par ch=1 c=64 v=127
26864 On ch=1 n=a3 v=0
26864 On ch=1 n=f#5 v=0
26865 On ch=1 n=g#5 v=74
26874 On ch=1 n=c#5 v=0
26902 On ch=1 n=g#5 v=0
26921 On ch=1 n=d#4 v=0
26928 On ch=1 n=f#5 v=71
26932 Par ch=1 c=64 v=104
26936 On ch=1 n=b4 v=44
26937 Par ch=1 c=64 v=24
26940 On ch=1 n=g#3 v=29
26941 Par ch=1 c=64 v=0
26942 On ch=1 n=e4 v=42
26961 Par ch=1 c=64 v=40
26965 Par ch=1 c=64 v=104
26969 Par ch=1 c=64 v=127
26972 On ch=1 n=b4 v=0
26980 On ch=1 n=e5 v=80
26982 On ch=1 n=f#5 v=0
27008 On ch=1 n=e4 v=0
27014 On ch=1 n=e5 v=0
27020 On ch=1 n=b4 v=78
27036 On ch=1 n=g#3 v=0
27038 On ch=1 n=b4 v=0
27076 On ch=1 n=c#5 v=73
27085 On ch=1 n=a4 v=43
27086 On ch=1 n=e4 v=44
27086 On ch=1 n=f#3 v=36
27090 Par ch=1 c=64 v=88
27094 Par ch=1 c=64 v=40
27098 Par ch=1 c=64 v=0
27162 Par ch=1 c=64 v=104
27167 Par ch=1 c=64 v=127
27224 On ch=1 n=e4 v=0
27234 On ch=1 n=f#3 v=0
27242 On ch=1 n=a4 v=0
27244 On ch=1 n=c#5 v=0
27335 On ch=1 n=e5 v=72
27336 On ch=1 n=c#5 v=49
27340 Par ch=1 c=64 v=88
27343 On ch=1 n=a4 v=38
27344 Par ch=1 c=64 v=24
27345 On ch=1 n=b2 v=41
27345 On ch=1 n=b3 v=36
27348 Par ch=1 c=64 v=0
27369 On ch=1 n=b2 v=0
27369 Par ch=1 c=64 v=24
27373 Par ch=1 c=64 v=104
27375 On ch=1 n=c#5 v=0
27377 Par ch=1 c=64 v=127
27379 On ch=1 n=b3 v=0
27382 On ch=1 n=e5 v=0
27386 On ch=1 n=a4 v=0
27470 On ch=1 n=e5 v=66
27473 On ch=1 n=e3 v=40
27474 On ch=1 n=b4 v=43
27475 On ch=1 n=a4 v=36
27475 On ch=1 n=b3 v=34
27486 Par ch=1 c=64 v=72
27489 Par ch=1 c=64 v=24
27494 Par ch=1 c=64 v=0
27522 Par ch=1 c=64 v=40
27526 Par ch=1 c=64 v=88
27529 Par ch=1 c=64 v=127
27584 On ch=1 n=a4 v=0
27594 On ch=1 n=b4 v=0
27596 On ch=1 n=g#4 v=43
27608 Par ch=1 c=64 v=88
27612 Par ch=1 c=64 v=0
27644 Par ch=1 c=64 v=40
27648 Par ch=1 c=64 v=104
27652 On ch=1 n=e3 v=0
27652 Par ch=1 c=64 v=127
27662 On ch=1 n=b3 v=0
27722 On ch=1 n=e3 v=49
27741 Par ch=1 c=64 v=104
27745 Par ch=1 c=64 v=40
27749 Par ch=1 c=64 v=0
27769 Par ch=1 c=64 v=56
27772 Par ch=1 c=64 v=127
27855 On ch=1 n=e4 v=55
27858 Par ch=1 c=64 v=72
27862 Par ch=1 c=64 v=0
27882 Par ch=1 c=64 v=56
27886 Par ch=1 c=64 v=127
27902 On ch=1 n=e4 v=0
27903 On ch=1 n=e3 v=0
27904 On ch=1 n=g#4 v=0
27906 On ch=1 n=e5 v=0
27999 Par ch=1 c=64 v=104
28001 On ch=1 n=g5 v=76
28001 On ch=1 n=e3 v=39
28003 On ch=1 n=c4 v=46
28004 Par ch=1 c=64 v=0
28005 On ch=1 n=g4 v=54
28009 On ch=1 n=c5 v=51
28027 Par ch=1 c=64 v=88
28030 On ch=1 n=c4 v=0
28031 Par ch=1 c=64 v=127
28034 On ch=1 n=g5 v=0
28034 On ch=1 n=e3 v=0
28044 On ch=1 n=f5 v=77
28046 On ch=1 n=g4 v=0
28046 On ch=1 n=c5 v=0
28080 On ch=1 n=f5 v=0
28080 On ch=1 n=g5 v=83
28104 On ch=1 n=g5 v=0
28125 On ch=1 n=e5 v=82
28130 On ch=1 n=c5 v=64
28130 On ch=1 n=a4 v=55
28133 On ch=1 n=c4 v=49
28134 On ch=1 n=f3 v=42
28140 Par ch=1 c=64 v=88
28144 Par ch=1 c=64 v=40
28148 Par ch=1 c=64 v=0
28177 Par ch=1 c=64 v=56
28181 Par ch=1 c=64 v=127
28200 On ch=1 n=c4 v=0
28208 On ch=1 n=f3 v=0
28215 On ch=1 n=c5 v=0
28220 On ch=1 n=a4 v=0
28225 On ch=1 n=e5 v=0
28340 On ch=1 n=d5 v=79
28347 On ch=1 n=b4 v=50
28348 On ch=1 n=f4 v=55
28348 On ch=1 n=g3 v=56
28350 On ch=1 n=g4 v=40
28350 Par ch=1 c=64 v=56
28354 Par ch=1 c=64 v=0
28374 Par ch=1 c=64 v=56
28378 Par ch=1 c=64 v=127
28385 On ch=1 n=f4 v=0
28388 On ch=1 n=g3 v=0
28395 On ch=1 n=d5 v=0
28395 On ch=1 n=b4 v=0
28397 On ch=1 n=g4 v=0
28458 On ch=1 n=c5 v=83
28463 On ch=1 n=a4 v=55
28465 On ch=1 n=e4 v=55
28469 On ch=1 n=a3 v=51
28475 Par ch=1 c=64 v=72
28478 Par ch=1 c=64 v=0
28507 Par ch=1 c=64 v=24
28511 On ch=1 n=a3 v=0
28511 On ch=1 n=e4 v=0
28512 On ch=1 n=a4 v=0
28512 Par ch=1 c=64 v=104
28515 Par ch=1 c=64 v=127
28526 On ch=1 n=c5 v=0
28585 On ch=1 n=g4 v=80
28588 Par ch=1 c=64 v=104
28592 On ch=1 n=f4 v=45
28592 On ch=1 n=d4 v=52
28592 Par ch=1 c=64 v=56
28595 On ch=1 n=b3 v=49
28596 Par ch=1 c=64 v=0
28649 Par ch=1 c=64 v=127
28711 On ch=1 n=f4 v=0
28725 On ch=1 n=d4 v=0
28729 On ch=1 n=g4 v=0
28739 On ch=1 n=b3 v=0
28779 On ch=1 n=c5 v=81
28784 On ch=1 n=e4 v=51
28786 On ch=1 n=a4 v=56
28788 On ch=1 n=a3 v=49
28791 Par ch=1 c=64 v=72
28795 Par ch=1 c=64 v=0
28806 On ch=1 n=a4 v=0
28811 Par ch=1 c=64 v=24
28815 On ch=1 n=c5 v=0
28815 Par ch=1 c=64 v=104
28819 Par ch=1 c=64 v=127
28824 On ch=1 n=e4 v=0
28838 On ch=1 n=a3 v=0
28885 On ch=1 n=d5 v=79
28888 Par ch=1 c=64 v=88
28888 On ch=1 n=f4 v=59
28890 On ch=1 n=b4 v=66
28892 Par ch=1 c=64 v=0
28892 On ch=1 n=g3 v=60
28912 Par ch=1 c=64 v=40
28916 On ch=1 n=f4 v=0
28916 Par ch=1 c=64 v=104
28920 Par ch=1 c=64 v=127
28922 On ch=1 n=g3 v=0
28923 On ch=1 n=b4 v=0
28926 On ch=1 n=d5 v=0
28983 On ch=1 n=f5 v=87
28988 On ch=1 n=c5 v=66
28989 Par ch=1 c=64 v=56
28989 On ch=1 n=a4 v=56
28990 On ch=1 n=f3 v=61
28993 Par ch=1 c=64 v=0
29013 Par ch=1 c=64 v=56
29017 Par ch=1 c=64 v=127
29021 On ch=1 n=f3 v=0
29022 On ch=1 n=c5 v=0
29025 On ch=1 n=a4 v=0
29030 On ch=1 n=f5 v=0
29081 Par ch=1 c=64 v=56
29082 On ch=1 n=g5 v=90
29083 On ch=1 n=g4 v=76
29084 On ch=1 n=c5 v=80
29086 Par ch=1 c=64 v=0
29087 On ch=1 n=e4 v=59
29088 On ch=1 n=e3 v=56
29100 On ch=1 n=g4 v=0
29102 Par ch=1 c=64 v=72
29104 On ch=1 n=c5 v=0
29106 Par ch=1 c=64 v=127
29116 On ch=1 n=g5 v=0
29123 On ch=1 n=e4 v=0
29125 On ch=1 n=e3 v=0
29177 Par ch=1 c=64 v=40
29181 On ch=1 n=a5 v=84
29182 On ch=1 n=c5 v=77
29182 Par ch=1 c=64 v=0
29184 On ch=1 n=f5 v=74
29189 On ch=1 n=d4 v=74
29192 On ch=1 n=d3 v=62
29197 On ch=1 n=c5 v=0
29198 Par ch=1 c=64 v=56
29200 On ch=1 n=f5 v=0
29202 Par ch=1 c=64 v=127
29208 On ch=1 n=a5 v=0
29210 On ch=1 n=d4 v=0
29216 On ch=1 n=d3 v=0
29243 On ch=1 n=c6 v=86
29284 On ch=1 n=c6 v=0
29307 On ch=1 n=g2 v=64
29311 Par ch=1 c=64 v=72
29315 Par ch=1 c=64 v=0
29317 On ch=1 n=d6 v=92
29322 On ch=1 n=b5 v=64
29322 On ch=1 n=f5 v=60
29351 Par ch=1 c=64 v=88
29355 Par ch=1 c=64 v=127
29372 On ch=1 n=g2 v=0
29374 On ch=1 n=g3 v=65
29382 On ch=1 n=g3 v=0
29424 On ch=1 n=d4 v=54
29461 On ch=1 n=f4 v=68
29483 On ch=1 n=f5 v=0
29492 On ch=1 n=d4 v=0
29492 On ch=1 n=b5 v=0
29510 On ch=1 n=g5 v=82
29514 On ch=1 n=f4 v=0
29514 On ch=1 n=g4 v=70
29552 On ch=1 n=g4 v=0
29558 On ch=1 n=b4 v=60
29568 On ch=1 n=b4 v=0
29601 On ch=1 n=d5 v=64
29608 On ch=1 n=g5 v=0
29628 On ch=1 n=d6 v=0
29649 On ch=1 n=f5 v=61
29652 On ch=1 n=d5 v=0
29672 On ch=1 n=f5 v=0
29709 On ch=1 n=g6 v=78
29711 Par ch=1 c=64 v=40
29715 Par ch=1 c=64 v=0
29715 On ch=1 n=e5 v=51
29717 On ch=1 n=c6 v=48
29718 On ch=1 n=g5 v=49
29747 On ch=1 n=f6 v=75
29748 Par ch=1 c=64 v=56
29751 On ch=1 n=g6 v=0
29752 Par ch=1 c=64 v=104
29755 Par ch=1 c=64 v=127
29772 On ch=1 n=f6 v=0
29778 On ch=1 n=g6 v=69
29796 Par ch=1 c=64 v=56
29800 Par ch=1 c=64 v=0
29805 On ch=1 n=g6 v=0
29810 On ch=1 n=e6 v=73
29828 Par ch=1 c=64 v=72
29832 Par ch=1 c=64 v=127
29880 On ch=1 n=g5 v=0
29886 On ch=1 n=e5 v=0
29904 On ch=1 n=a5 v=54
29906 On ch=1 n=f5 v=36
29921 Par ch=1 c=64 v=72
29925 Par ch=1 c=64 v=0
29949 Par ch=1 c=64 v=88
29953 Par ch=1 c=64 v=127
29982 On ch=1 n=e6 v=0
29998 On ch=1 n=d6 v=70
30026 On ch=1 n=c6 v=0
30027 On ch=1 n=a5 v=0
30035 On ch=1 n=f5 v=0
30057 On ch=1 n=d6 v=0
30098 On ch=1 n=e6 v=70
30107 On ch=1 n=a#5 v=38
30108 On ch=1 n=g5 v=39
30112 On ch=1 n=c6 v=35
30126 Par ch=1 c=64 v=104
30130 Par ch=1 c=64 v=40
30134 Par ch=1 c=64 v=0
30159 Par ch=1 c=64 v=72
30163 Par ch=1 c=64 v=127
30215 On ch=1 n=a#5 v=0
30229 On ch=1 n=c6 v=0
30238 On ch=1 n=e6 v=0
30242 On ch=1 n=g5 v=0
30284 On ch=1 n=f6 v=70
30288 On ch=1 n=c6 v=26
30291 On ch=1 n=f5 v=36
30292 On ch=1 n=a5 v=43
30308 Par ch=1 c=64 v=56
30312 Par ch=1 c=64 v=0
30340 Par ch=1 c=64 v=72
30344 Par ch=1 c=64 v=127
30374 On ch=1 n=c6 v=0
30381 On ch=1 n=f6 v=0
30387 On ch=1 n=a5 v=0
30388 On ch=1 n=f5 v=0
30470 On ch=1 n=g6 v=69
30472 On ch=1 n=e5 v=41
30474 Par ch=1 c=64 v=40
30476 On ch=1 n=g5 v=39
30478 Par ch=1 c=64 v=0
30479 On ch=1 n=c6 v=30
30506 Par ch=1 c=64 v=56
30508 On ch=1 n=g6 v=0
30509 Par ch=1 c=64 v=104
30510 On ch=1 n=f6 v=73
30513 Par ch=1 c=64 v=127
30538 On ch=1 n=f6 v=0
30544 On ch=1 n=g6 v=70
30575 On ch=1 n=g6 v=0
30582 On ch=1 n=e6 v=71
30602 Par ch=1 c=64 v=88
30607 Par ch=1 c=64 v=40
30611 Par ch=1 c=64 v=0
30643 Par ch=1 c=64 v=40
30646 Par ch=1 c=64 v=104
30651 Par ch=1 c=64 v=127
30788 On ch=1 n=e6 v=0
30790 On ch=1 n=g6 v=63
30836 On ch=1 n=g6 v=0
30852 On ch=1 n=g5 v=0
30916 On ch=1 n=c6 v=0
30918 On ch=1 n=g#6 v=64
30921 Par ch=1 c=64 v=88
30924 On ch=1 n=g#5 v=30
30925 Par ch=1 c=64 v=0
30950 Par ch=1 c=64 v=40
30954 Par ch=1 c=64 v=104
30958 Par ch=1 c=64 v=127
30960 On ch=1 n=f#6 v=58
30962 On ch=1 n=g#6 v=0
30991 On ch=1 n=f#6 v=0
30996 On ch=1 n=g#6 v=60
31028 On ch=1 n=g#6 v=0
31036 On ch=1 n=e6 v=66
31058 Par ch=1 c=64 v=88
31062 Par ch=1 c=64 v=40
31066 Par ch=1 c=64 v=0
31090 Par ch=1 c=64 v=88
31095 Par ch=1 c=64 v=127
31152 On ch=1 n=c#6 v=31
31167 On ch=1 n=e6 v=0
31258 On ch=1 n=e5 v=0
31260 On ch=1 n=g#6 v=57
31330 On ch=1 n=g#5 v=0
31332 On ch=1 n=d#5 v=35
31365 On ch=1 n=c#6 v=0
31366 On ch=1 n=d#5 v=0
31375 On ch=1 n=g#6 v=0
31433 On ch=1 n=a6 v=66
31444 On ch=1 n=c#5 v=33
31462 Par ch=1 c=64 v=72
31466 Par ch=1 c=64 v=0
31498 Par ch=1 c=64 v=104
31498 On ch=1 n=e5 v=37
31502 Par ch=1 c=64 v=127
31536 On ch=1 n=a5 v=61
31574 On ch=1 n=c#6 v=61
31586 On ch=1 n=e5 v=0
31591 On ch=1 n=a5 v=0
31594 On ch=1 n=c#5 v=0
31600 On ch=1 n=a6 v=0
31606 On ch=1 n=c#6 v=0
31613 On ch=1 n=e6 v=71
31641 On ch=1 n=e6 v=0
31645 On ch=1 n=f#6 v=71
31674 On ch=1 n=f#6 v=0
31682 On ch=1 n=g#6 v=68
31692 Par ch=1 c=64 v=104
31696 Par ch=1 c=64 v=40
31700 Par ch=1 c=64 v=0
31717 On ch=1 n=d#6 v=67
31720 Par ch=1 c=64 v=56
31724 Par ch=1 c=64 v=127
31752 On ch=1 n=b5 v=52
31763 On ch=1 n=d#6 v=0
31770 On ch=1 n=b5 v=0
31779 On ch=1 n=g#5 v=43
31780 On ch=1 n=g#6 v=0
31812 On ch=1 n=g#5 v=0
31813 On ch=1 n=d#5 v=44
31848 On ch=1 n=d#5 v=0
31851 On ch=1 n=b4 v=54
31883 On ch=1 n=b4 v=0
31886 On ch=1 n=f#6 v=72
31889 Par ch=1 c=64 v=88
31893 On ch=1 n=a4 v=49
31894 Par ch=1 c=64 v=24
31898 Par ch=1 c=64 v=0
31922 Par ch=1 c=64 v=88
31926 Par ch=1 c=64 v=127
31927 On ch=1 n=c#5 v=42
31934 On ch=1 n=a4 v=0
31961 On ch=1 n=f#5 v=44
31980 On ch=1 n=c#5 v=0
31983 On ch=1 n=f#5 v=0
31989 On ch=1 n=f#6 v=0
31994 On ch=1 n=a5 v=53
32022 On ch=1 n=a5 v=0
32024 On ch=1 n=c#6 v=49
32050 On ch=1 n=c#6 v=0
32057 On ch=1 n=d#6 v=62
32086 On ch=1 n=d#6 v=0
32094 On ch=1 n=e6 v=70
32099 Par ch=1 c=64 v=56
32103 Par ch=1 c=64 v=0
32123 Par ch=1 c=64 v=56
32128 Par ch=1 c=64 v=127
32128 On ch=1 n=b5 v=52
32156 On ch=1 n=b5 v=0
32161 On ch=1 n=g#5 v=43
32167 On ch=1 n=e6 v=0
32174 On ch=1 n=g#5 v=0
32188 On ch=1 n=e5 v=52
32225 On ch=1 n=e5 v=0
32227 On ch=1 n=b4 v=46
32262 On ch=1 n=g#4 v=54
32265 On ch=1 n=b4 v=0
32293 On ch=1 n=g#4 v=0
32297 Par ch=1 c=64 v=104
32298 On ch=1 n=f#4 v=65
32300 Par ch=1 c=64 v=40
32305 Par ch=1 c=64 v=0
32325 Par ch=1 c=64 v=56
32329 Par ch=1 c=64 v=127
32336 On ch=1 n=a4 v=49
32376 On ch=1 n=c#5 v=46
32385 On ch=1 n=f#4 v=0
32395 On ch=1 n=a4 v=0
32397 On ch=1 n=c#5 v=0
32406 On ch=1 n=c#6 v=74
32440 On ch=1 n=f#5 v=61
32459 On ch=1 n=c#6 v=0
32476 On ch=1 n=a5 v=76
32487 On ch=1 n=f#5 v=0
32511 Par ch=1 c=64 v=88
32512 On ch=1 n=a5 v=0
32515 Par ch=1 c=64 v=24
32515 On ch=1 n=f#6 v=80
32516 On ch=1 n=e4 v=60
32519 Par ch=1 c=64 v=0
32543 Par ch=1 c=64 v=24
32547 Par ch=1 c=64 v=88
32551 Par ch=1 c=64 v=127
32554 On ch=1 n=a4 v=55
32590 On ch=1 n=c#5 v=58
32608 On ch=1 n=a4 v=0
32608 On ch=1 n=e4 v=0
32610 On ch=1 n=c#5 v=0
32613 On ch=1 n=f#6 v=0
32621 On ch=1 n=c#6 v=74
32652 On ch=1 n=c#6 v=0
32654 On ch=1 n=f#5 v=61
32687 On ch=1 n=a5 v=75
32720 On ch=1 n=d#4 v=75
32729 Par ch=1 c=64 v=88
32733 Par ch=1 c=64 v=0
32760 Par ch=1 c=64 v=88
32762 On ch=1 n=a4 v=60
32765 Par ch=1 c=64 v=127
32798 On ch=1 n=c#5 v=61
32815 On ch=1 n=f#5 v=0
32818 On ch=1 n=a5 v=0
32832 On ch=1 n=c#6 v=73
32861 On ch=1 n=a4 v=0
32863 On ch=1 n=c#5 v=0
32863 On ch=1 n=d#4 v=0
32869 On ch=1 n=f#5 v=63
32872 On ch=1 n=c#6 v=0
32907 On ch=1 n=a5 v=71
32959 On ch=1 n=f#6 v=73
32961 On ch=1 n=c#4 v=49
32963 Par ch=1 c=64 v=72
32967 Par ch=1 c=64 v=0
32985 On ch=1 n=a5 v=0
33003 Par ch=1 c=64 v=127
33014 On ch=1 n=c#4 v=0
33014 On ch=1 n=a4 v=45
33022 On ch=1 n=f#5 v=0
33062 On ch=1 n=e5 v=59
33101 On ch=1 n=f#6 v=0
33110 On ch=1 n=a6 v=73
33114 On ch=1 n=e5 v=0
33135 On ch=1 n=a4 v=0
33168 On ch=1 n=a5 v=50
33224 On ch=1 n=c#6 v=39
33249 On ch=1 n=a5 v=0
33253 On ch=1 n=a6 v=0
33255 On ch=1 n=c#6 v=0
33282 On ch=1 n=b3 v=55
33310 Par ch=1 c=64 v=88
33313 Par ch=1 c=64 v=0
33342 Par ch=1 c=64 v=88
33342 On ch=1 n=f#4 v=40
33346 Par ch=1 c=64 v=127
33378 On ch=1 n=b3 v=0
33384 On ch=1 n=f#4 v=0
33388 On ch=1 n=a4 v=57
33416 On ch=1 n=a4 v=0
33426 On ch=1 n=a6 v=82
33430 On ch=1 n=c#5 v=40
33473 On ch=1 n=d#5 v=49
33515 On ch=1 n=f#5 v=55
33563 On ch=1 n=a5 v=58
33608 On ch=1 n=c#6 v=49
33653 On ch=1 n=c#6 v=0
33654 On ch=1 n=d#6 v=62
33657 On ch=1 n=a6 v=0
33701 On ch=1 n=d#6 v=0
33708 On ch=1 n=a5 v=0
33708 On ch=1 n=c#6 v=56
33737 On ch=1 n=c#6 v=0
33771 On ch=1 n=g#6 v=67
33778 On ch=1 n=b5 v=39
33815 On ch=1 n=b5 v=0
33830 On ch=1 n=f#5 v=0
33832 On ch=1 n=c#5 v=0
33832 On ch=1 n=d#5 v=0
33846 On ch=1 n=g#6 v=0
33881 On ch=1 n=f#6 v=53
33888 On ch=1 n=a5 v=46
33913 On ch=1 n=a5 v=0
33925 On ch=1 n=f#6 v=0
33999 On ch=1 n=e3 v=50
34021 Par ch=1 c=64 v=72
34024 Par ch=1 c=64 v=0
34057 Par ch=1 c=64 v=88
34061 Par ch=1 c=64 v=127
34076 On ch=1 n=b3 v=53
34105 On ch=1 n=e3 v=0
34121 On ch=1 n=e6 v=70
34135 On ch=1 n=b3 v=0
34136 On ch=1 n=e4 v=50
34159 On ch=1 n=e6 v=0
34165 On ch=1 n=f#6 v=69
34175 On ch=1 n=e4 v=0
34185 On ch=1 n=f#6 v=0
34195 On ch=1 n=c#6 v=68
34198 On ch=1 n=g#4 v=48
34223 On ch=1 n=c#6 v=0
34229 On ch=1 n=e6 v=75
34230 On ch=1 n=g#4 v=0
34241 On ch=1 n=b4 v=53
34251 On ch=1 n=e6 v=0
34260 On ch=1 n=b5 v=70
34264 On ch=1 n=b4 v=0
34272 On ch=1 n=g#4 v=37
34282 On ch=1 n=b5 v=0
34290 On ch=1 n=c#6 v=65
34301 On ch=1 n=g#4 v=0
34318 On ch=1 n=c#6 v=0
34324 On ch=1 n=g#5 v=67
34351 On ch=1 n=g#5 v=0
34353 On ch=1 n=b5 v=70
34361 On ch=1 n=b3 v=26
34380 On ch=1 n=b5 v=0
34382 On ch=1 n=f#5 v=69
34407 On ch=1 n=b3 v=0
34411 On ch=1 n=f#5 v=0
34415 On ch=1 n=g#5 v=69
34424 Par ch=1 c=64 v=88
34426 On ch=1 n=e3 v=48
34428 Par ch=1 c=64 v=0
34447 On ch=1 n=g#5 v=0
34450 On ch=1 n=e5 v=75
34452 Par ch=1 c=64 v=72
34455 Par ch=1 c=64 v=127
34472 On ch=1 n=c#4 v=36
34476 On ch=1 n=e3 v=0
34480 On ch=1 n=g#5 v=64
34486 On ch=1 n=e5 v=0
34512 On ch=1 n=g#5 v=0
34516 On ch=1 n=d#5 v=65
34518 On ch=1 n=c#4 v=0
34523 On ch=1 n=e4 v=60
34549 On ch=1 n=e4 v=0
34568 On ch=1 n=g#4 v=49
34608 On ch=1 n=g#4 v=0
34614 On ch=1 n=c#5 v=56
34625 On ch=1 n=d#5 v=0
34652 On ch=1 n=c#5 v=0
34656 On ch=1 n=g#4 v=47
34675 On ch=1 n=g#4 v=0
34705 On ch=1 n=c#5 v=61
34709 On ch=1 n=e4 v=55
34742 On ch=1 n=e4 v=0
34752 On ch=1 n=c#4 v=42
34776 On ch=1 n=c#4 v=0
34804 On ch=1 n=c#5 v=0
34823 On ch=1 n=b4 v=58
34833 On ch=1 n=e3 v=39
34836 Par ch=1 c=64 v=104
34840 Par ch=1 c=64 v=56
34844 Par ch=1 c=64 v=0
34877 Par ch=1 c=64 v=127
34878 On ch=1 n=b4 v=0
34902 On ch=1 n=b3 v=29
34932 On ch=1 n=e3 v=0
34943 On ch=1 n=e6 v=65
34945 On ch=1 n=b3 v=0
34951 On ch=1 n=e4 v=49
34973 On ch=1 n=e6 v=0
34978 On ch=1 n=f#6 v=75
34985 On ch=1 n=e4 v=0
34999 On ch=1 n=f#6 v=0
35001 On ch=1 n=g#4 v=33
35012 On ch=1 n=c#6 v=71
35039 On ch=1 n=c#6 v=0
35040 On ch=1 n=g#4 v=0
35041 On ch=1 n=e6 v=79
35047 On ch=1 n=b4 v=58
35066 On ch=1 n=e6 v=0
35073 On ch=1 n=b5 v=78
35074 On ch=1 n=b4 v=0
35085 On ch=1 n=g#4 v=47
35095 On ch=1 n=b5 v=0
35102 On ch=1 n=c#6 v=74
35109 On ch=1 n=g#4 v=0
35128 On ch=1 n=c#6 v=0
35130 On ch=1 n=e4 v=53
35133 On ch=1 n=g#5 v=71
35153 On ch=1 n=e4 v=0
35158 On ch=1 n=g#5 v=0
35160 On ch=1 n=b3 v=47
35162 On ch=1 n=b5 v=74
35186 On ch=1 n=b5 v=0
35189 On ch=1 n=f#5 v=71
35209 On ch=1 n=b3 v=0
35218 On ch=1 n=f#5 v=0
35220 On ch=1 n=g#5 v=75
35224 Par ch=1 c=64 v=88
35226 On ch=1 n=e3 v=42
35228 Par ch=1 c=64 v=0
35249 On ch=1 n=g#5 v=0
35251 Par ch=1 c=64 v=88
35253 On ch=1 n=e5 v=78
35256 Par ch=1 c=64 v=127
35266 On ch=1 n=e3 v=0
35268 On ch=1 n=c#4 v=34
35284 On ch=1 n=g#5 v=58
35286 On ch=1 n=e5 v=0
35313 On ch=1 n=c#4 v=0
35314 On ch=1 n=g#5 v=0
35317 On ch=1 n=d#5 v=70
35322 On ch=1 n=e4 v=56
35346 On ch=1 n=e4 v=0
35365 On ch=1 n=g#4 v=46
35401 On ch=1 n=g#4 v=0
35406 On ch=1 n=c#5 v=60
35412 On ch=1 n=d#5 v=0
35446 On ch=1 n=g#4 v=50
35450 On ch=1 n=c#5 v=0
35470 On ch=1 n=g#4 v=0
35487 On ch=1 n=c#5 v=69
35502 On ch=1 n=e4 v=49
35533 On ch=1 n=c#4 v=58
35535 On ch=1 n=e4 v=0
35572 On ch=1 n=c#5 v=0
35573 On ch=1 n=c#4 v=0
35589 On ch=1 n=b4 v=66
35595 On ch=1 n=f#3 v=39
35595 Par ch=1 c=64 v=56
35599 Par ch=1 c=64 v=0
35616 On ch=1 n=b4 v=0
35621 On ch=1 n=a4 v=61
35631 Par ch=1 c=64 v=72
35635 Par ch=1 c=64 v=127
35637 On ch=1 n=c#4 v=43
35641 On ch=1 n=a4 v=0
35652 On ch=1 n=b4 v=70
35678 On ch=1 n=b4 v=0
35678 On ch=1 n=c#4 v=0
35682 On ch=1 n=f#3 v=0
35682 On ch=1 n=c#5 v=77
35686 On ch=1 n=e4 v=62
35722 On ch=1 n=e4 v=0
35724 On ch=1 n=f#4 v=53
35761 On ch=1 n=f#4 v=0
35767 On ch=1 n=a4 v=66
35792 On ch=1 n=a4 v=0
35803 On ch=1 n=c#5 v=0
35808 On ch=1 n=f#4 v=51
35809 On ch=1 n=e5 v=78
35840 On ch=1 n=e5 v=0
35841 On ch=1 n=f#4 v=0
35848 On ch=1 n=d#5 v=71
35852 On ch=1 n=e4 v=54
35875 On ch=1 n=d#5 v=0
35882 On ch=1 n=e4 v=0
35887 On ch=1 n=e5 v=78
35890 On ch=1 n=c#4 v=53
35921 On ch=1 n=e5 v=0
35925 On ch=1 n=c#4 v=0
35930 On ch=1 n=c#5 v=73
35932 On ch=1 n=g#3 v=60
35938 Par ch=1 c=64 v=88
35942 Par ch=1 c=64 v=0
35969 On ch=1 n=c#4 v=54
35971 Par ch=1 c=64 v=72
35973 On ch=1 n=g#3 v=0
35975 Par ch=1 c=64 v=127
36010 On ch=1 n=c#4 v=0
36014 On ch=1 n=g#5 v=75
36020 On ch=1 n=e4 v=51
36023 On ch=1 n=c#5 v=0
36044 On ch=1 n=e4 v=0
36053 On ch=1 n=g#4 v=54
36083 On ch=1 n=g#4 v=0
36093 On ch=1 n=b4 v=60
36128 On ch=1 n=g#4 v=57
36131 On ch=1 n=b4 v=0
36162 On ch=1 n=g#4 v=0
36162 On ch=1 n=g#5 v=0
36170 On ch=1 n=e5 v=79
36172 On ch=1 n=e4 v=59
36207 On ch=1 n=e4 v=0
36210 On ch=1 n=c#4 v=50
36243 On ch=1 n=c#4 v=0
36249 On ch=1 n=e5 v=0
36249 Par ch=1 c=64 v=56
36250 On ch=1 n=a3 v=62
36253 Par ch=1 c=64 v=0
36253 On ch=1 n=d#5 v=77
36276 Par ch=1 c=64 v=104
36280 On ch=1 n=d#5 v=0
36281 Par ch=1 c=64 v=127
36284 On ch=1 n=c#5 v=73
36294 On ch=1 n=a3 v=0
36297 On ch=1 n=e4 v=56
36313 On ch=1 n=c#5 v=0
36314 On ch=1 n=d#5 v=68
36332 On ch=1 n=e4 v=0
36340 On ch=1 n=e5 v=87
36341 On ch=1 n=f#4 v=55
36342 On ch=1 n=d#5 v=0
36377 On ch=1 n=f#4 v=0
36384 On ch=1 n=a4 v=62
36412 On ch=1 n=a4 v=0
36419 On ch=1 n=c#5 v=61
36446 On ch=1 n=c#5 v=0
36462 On ch=1 n=a4 v=47
36463 On ch=1 n=g#5 v=75
36481 On ch=1 n=e5 v=0
36495 On ch=1 n=a4 v=0
36496 On ch=1 n=g#5 v=0
36500 On ch=1 n=f#4 v=54
36501 On ch=1 n=f#5 v=75
36526 On ch=1 n=f#4 v=0
36528 On ch=1 n=f#5 v=0
36535 On ch=1 n=g#5 v=76
36537 On ch=1 n=e4 v=56
36567 On ch=1 n=g#5 v=0
36572 Par ch=1 c=64 v=56
36574 On ch=1 n=e5 v=80
36576 Par ch=1 c=64 v=0
36579 On ch=1 n=e4 v=0
36580 On ch=1 n=a#3 v=69
36604 Par ch=1 c=64 v=88
36606 On ch=1 n=a#3 v=0
36608 Par ch=1 c=64 v=127
36618 On ch=1 n=e4 v=54
36641 On ch=1 n=e4 v=0
36644 On ch=1 n=e5 v=0
36654 On ch=1 n=g#4 v=39
36656 On ch=1 n=c#6 v=79
36684 On ch=1 n=g#4 v=0
36690 On ch=1 n=c#5 v=49
36714 On ch=1 n=c#5 v=0
36726 On ch=1 n=c#4 v=71
36730 Par ch=1 c=64 v=88
36734 Par ch=1 c=64 v=0
36754 Par ch=1 c=64 v=72
36758 Par ch=1 c=64 v=127
36765 On ch=1 n=c#4 v=0
36765 On ch=1 n=f#4 v=59
36789 On ch=1 n=c#6 v=0
36792 On ch=1 n=f#4 v=0
36795 On ch=1 n=a#5 v=69
36799 On ch=1 n=a#4 v=58
36818 On ch=1 n=a#5 v=0
36820 On ch=1 n=c#6 v=72
36822 On ch=1 n=a#4 v=0
36833 On ch=1 n=e5 v=56
36843 On ch=1 n=a#5 v=75
36847 On ch=1 n=c#6 v=0
36855 On ch=1 n=e5 v=0
36866 On ch=1 n=a#5 v=0
36869 On ch=1 n=g#5 v=77
36876 On ch=1 n=e4 v=63
36880 Par ch=1 c=64 v=56
36884 Par ch=1 c=64 v=0
36904 Par ch=1 c=64 v=88
36908 On ch=1 n=e4 v=0
36908 Par ch=1 c=64 v=127
36913 On ch=1 n=a#4 v=51
36930 On ch=1 n=g#5 v=0
36939 On ch=1 n=a#4 v=0
36950 On ch=1 n=e6 v=82
36952 On ch=1 n=c#5 v=52
36979 On ch=1 n=c#5 v=0
36988 On ch=1 n=g#5 v=57
37008 On ch=1 n=g#5 v=0
37024 On ch=1 n=f#4 v=69
37024 Par ch=1 c=64 v=104
37028 Par ch=1 c=64 v=24
37033 Par ch=1 c=64 v=0
37049 Par ch=1 c=64 v=72
37053 Par ch=1 c=64 v=127
37055 On ch=1 n=f#4 v=0
37061 On ch=1 n=c#5 v=57
37082 On ch=1 n=e6 v=0
37088 On ch=1 n=c#5 v=0
37093 On ch=1 n=c#6 v=70
37098 On ch=1 n=e5 v=62
37119 On ch=1 n=e5 v=0
37122 On ch=1 n=c#6 v=0
37122 On ch=1 n=e6 v=80
37124 On ch=1 n=a#5 v=53
37145 On ch=1 n=e6 v=0
37147 On ch=1 n=c#6 v=77
37154 On ch=1 n=a#5 v=0
37170 On ch=1 n=a#4 v=49
37179 On ch=1 n=c#6 v=0
37190 Par ch=1 c=64 v=104
37194 Par ch=1 c=64 v=24
37198 On ch=1 n=g#6 v=80
37198 Par ch=1 c=64 v=0
37219 Par ch=1 c=64 v=56
37223 Par ch=1 c=64 v=127
37233 On ch=1 n=a#4 v=0
37236 On ch=1 n=e5 v=52
37262 On ch=1 n=e5 v=0
37270 On ch=1 n=g#5 v=50
37299 On ch=1 n=g#5 v=0
37308 On ch=1 n=c#6 v=49
37309 On ch=1 n=f#6 v=75
37310 On ch=1 n=g#6 v=0
37331 On ch=1 n=c#6 v=0
37347 On ch=1 n=f#6 v=0
37350 On ch=1 n=c#5 v=57
37351 On ch=1 n=g#6 v=73
37356 Par ch=1 c=64 v=88
37360 Par ch=1 c=64 v=24
37364 Par ch=1 c=64 v=0
37375 Par ch=1 c=64 v=56
37380 On ch=1 n=c#5 v=0
37380 Par ch=1 c=64 v=127
37387 On ch=1 n=f#5 v=51
37413 On ch=1 n=f#5 v=0
37423 On ch=1 n=a#5 v=51
37444 On ch=1 n=a#5 v=0
37455 On ch=1 n=e6 v=60
37460 On ch=1 n=f#6 v=64
37463 On ch=1 n=e6 v=0
37464 On ch=1 n=g#6 v=0
37496 On ch=1 n=f#6 v=0
37502 On ch=1 n=g#6 v=64
37505 On ch=1 n=a#4 v=44
37510 Par ch=1 c=64 v=72
37514 Par ch=1 c=64 v=0
37535 On ch=1 n=a#4 v=0
37535 Par ch=1 c=64 v=72
37539 Par ch=1 c=64 v=127
37541 On ch=1 n=e5 v=53
37568 On ch=1 n=e5 v=0
37579 On ch=1 n=g#5 v=43
37611 On ch=1 n=g#5 v=0
37617 On ch=1 n=g#6 v=0
37621 On ch=1 n=f#6 v=61
37625 On ch=1 n=c#6 v=40
37637 On ch=1 n=c#6 v=0
37658 On ch=1 n=f#6 v=0
37668 On ch=1 n=g#6 v=61
37677 On ch=1 n=c#5 v=35
37684 Par ch=1 c=64 v=72
37687 Par ch=1 c=64 v=0
37714 On ch=1 n=c#5 v=0
37716 Par ch=1 c=64 v=127
37720 On ch=1 n=f#5 v=37
37721 On ch=1 n=f#6 v=55
37726 On ch=1 n=g#6 v=0
37776 On ch=1 n=a#5 v=43
37818 On ch=1 n=f#6 v=0
37829 On ch=1 n=g#6 v=57
37829 On ch=1 n=e6 v=53
37844 On ch=1 n=a#5 v=0
37846 On ch=1 n=e6 v=0
37850 On ch=1 n=f#5 v=0
37902 On ch=1 n=g#6 v=0
37906 On ch=1 n=a6 v=65
37918 On ch=1 n=c#5 v=32
37930 Par ch=1 c=64 v=104
37934 Par ch=1 c=64 v=40
37938 Par ch=1 c=64 v=0
37956 On ch=1 n=e5 v=54
37966 Par ch=1 c=64 v=72
37971 Par ch=1 c=64 v=127
37993 On ch=1 n=a5 v=58
38024 On ch=1 n=c#6 v=62
38033 On ch=1 n=e5 v=0
38038 On ch=1 n=a5 v=0
38043 On ch=1 n=c#5 v=0
38058 On ch=1 n=c#6 v=0
38063 On ch=1 n=e6 v=64
38068 On ch=1 n=a6 v=0
38085 On ch=1 n=e6 v=0
38095 On ch=1 n=f#6 v=64
38125 On ch=1 n=f#6 v=0
38130 On ch=1 n=g#6 v=65
38140 Par ch=1 c=64 v=72
38143 Par ch=1 c=64 v=0
38164 Par ch=1 c=64 v=72
38165 On ch=1 n=d#6 v=64
38168 Par ch=1 c=64 v=127
38193 On ch=1 n=d#6 v=0
38197 On ch=1 n=b5 v=48
38209 On ch=1 n=b5 v=0
38223 On ch=1 n=g#6 v=0
38223 On ch=1 n=g#5 v=56
38250 On ch=1 n=g#5 v=0
38256 On ch=1 n=d#5 v=48
38289 On ch=1 n=d#5 v=0
38291 On ch=1 n=b4 v=60
38322 On ch=1 n=b4 v=0
38327 On ch=1 n=f#6 v=70
38333 On ch=1 n=a4 v=41
38334 Par ch=1 c=64 v=72
38338 Par ch=1 c=64 v=0
38362 Par ch=1 c=64 v=104
38363 On ch=1 n=c#5 v=49
38366 Par ch=1 c=64 v=127
38393 On ch=1 n=f#5 v=53
38402 On ch=1 n=a4 v=0
38408 On ch=1 n=c#5 v=0
38414 On ch=1 n=f#5 v=0
38419 On ch=1 n=f#6 v=0
38425 On ch=1 n=a5 v=54
38447 On ch=1 n=a5 v=0
38461 On ch=1 n=c#6 v=43
38483 On ch=1 n=c#6 v=0
38491 On ch=1 n=d#6 v=65
38519 On ch=1 n=d#6 v=0
38526 On ch=1 n=e6 v=70
38547 Par ch=1 c=64 v=104
38551 Par ch=1 c=64 v=24
38555 Par ch=1 c=64 v=0
38563 On ch=1 n=b5 v=58
38580 Par ch=1 c=64 v=127
38591 On ch=1 n=b5 v=0
38592 On ch=1 n=g#5 v=49
38596 On ch=1 n=e6 v=0
38605 On ch=1 n=g#5 v=0
38614 On ch=1 n=e5 v=49
38651 On ch=1 n=e5 v=0
38653 On ch=1 n=b4 v=58
38684 On ch=1 n=g#4 v=56
38686 On ch=1 n=b4 v=0
38700 On ch=1 n=g#4 v=0
38735 On ch=1 n=a6 v=80
38741 On ch=1 n=c#5 v=38
38757 Par ch=1 c=64 v=88
38761 Par ch=1 c=64 v=0
38771 On ch=1 n=c#5 v=0
38775 On ch=1 n=e5 v=52
38786 Par ch=1 c=64 v=72
38790 Par ch=1 c=64 v=127
38807 On ch=1 n=e5 v=0
38808 On ch=1 n=a5 v=66
38829 On ch=1 n=a6 v=0
38834 On ch=1 n=a5 v=0
38842 On ch=1 n=b6 v=82
38843 On ch=1 n=c#6 v=43
38844 On ch=1 n=e6 v=65
38868 On ch=1 n=c#6 v=0
38871 On ch=1 n=a5 v=47
38881 On ch=1 n=b6 v=0
38887 On ch=1 n=a5 v=0
38887 On ch=1 n=c#7 v=85
38887 On ch=1 n=e5 v=60
38904 On ch=1 n=e5 v=0
38925 On ch=1 n=c#7 v=0
38934 On ch=1 n=b4 v=55
38935 Par ch=1 c=64 v=88
38936 On ch=1 n=a6 v=78
38939 Par ch=1 c=64 v=0
38959 Par ch=1 c=64 v=56
38963 Par ch=1 c=64 v=127
38969 On ch=1 n=b4 v=0
38971 On ch=1 n=d#5 v=44
38975 On ch=1 n=a6 v=0
38982 On ch=1 n=g#6 v=80
38989 On ch=1 n=e6 v=0
38997 On ch=1 n=d#5 v=0
39005 On ch=1 n=g#5 v=42
39006 On ch=1 n=g#6 v=0
39027 On ch=1 n=g#5 v=0
39032 On ch=1 n=a6 v=79
39038 On ch=1 n=b5 v=54
39038 On ch=1 n=d#6 v=42
39062 On ch=1 n=b5 v=0
39065 On ch=1 n=g#5 v=39
39069 On ch=1 n=a6 v=0
39079 On ch=1 n=g#6 v=85
39085 On ch=1 n=g#5 v=0
39086 On ch=1 n=d#5 v=49
39088 On ch=1 n=d#6 v=0
39122 On ch=1 n=d#5 v=0
39134 On ch=1 n=c#6 v=67
39134 On ch=1 n=a4 v=51
39138 Par ch=1 c=64 v=72
39142 Par ch=1 c=64 v=0
39166 On ch=1 n=a4 v=0
39166 Par ch=1 c=64 v=104
39167 On ch=1 n=c#5 v=46
39170 Par ch=1 c=64 v=127
39195 On ch=1 n=c#5 v=0
39198 On ch=1 n=f#5 v=53
39214 On ch=1 n=g#6 v=0
39226 On ch=1 n=f#5 v=0
39231 On ch=1 n=f#6 v=77
39236 On ch=1 n=a5 v=46
39243 On ch=1 n=c#6 v=0
39260 On ch=1 n=f#5 v=53
39261 On ch=1 n=a5 v=0
39287 On ch=1 n=f#5 v=0
39287 On ch=1 n=c#5 v=39
39312 On ch=1 n=c#5 v=0
39326 On ch=1 n=g#4 v=53
39330 On ch=1 n=b5 v=68
39336 Par ch=1 c=64 v=104
39339 Par ch=1 c=64 v=40
39344 Par ch=1 c=64 v=0
39354 On ch=1 n=g#4 v=0
39357 On ch=1 n=b4 v=61
39364 Par ch=1 c=64 v=104
39368 Par ch=1 c=64 v=127
39383 On ch=1 n=b4 v=0
39389 On ch=1 n=e5 v=53
39392 On ch=1 n=f#6 v=0
39414 On ch=1 n=e5 v=0
39421 On ch=1 n=e6 v=78
39424 On ch=1 n=g#5 v=42
39445 On ch=1 n=b5 v=0
39455 On ch=1 n=g#5 v=0
39457 On ch=1 n=e5 v=51
39467 On ch=1 n=e5 v=0
39469 On ch=1 n=b4 v=49
39483 On ch=1 n=b4 v=0
39514 Par ch=1 c=64 v=24
39517 On ch=1 n=a5 v=69
39517 On ch=1 n=f#4 v=55
39519 Par ch=1 c=64 v=0
39535 Par ch=1 c=64 v=72
39539 Par ch=1 c=64 v=127
39545 On ch=1 n=a4 v=40
39560 On ch=1 n=d6 v=79
39561 On ch=1 n=e6 v=0
39569 On ch=1 n=a5 v=0
39569 On ch=1 n=f#4 v=0
39581 On ch=1 n=a4 v=0
39581 On ch=1 n=d5 v=62
39597 On ch=1 n=d6 v=0
39608 On ch=1 n=e6 v=82
39610 On ch=1 n=d5 v=0
39613 On ch=1 n=a5 v=62
39615 On ch=1 n=f#5 v=55
39645 On ch=1 n=f#5 v=0
39647 On ch=1 n=e6 v=0
39650 On ch=1 n=d5 v=56
39652 On ch=1 n=f#6 v=84
39660 On ch=1 n=d5 v=0
39666 On ch=1 n=a4 v=49
39673 On ch=1 n=a5 v=0
39674 On ch=1 n=a4 v=0
39692 On ch=1 n=f#6 v=0
39704 On ch=1 n=d6 v=87
39711 On ch=1 n=e4 v=52
39713 Par ch=1 c=64 v=56
39716 Par ch=1 c=64 v=0
39737 Par ch=1 c=64 v=40
39741 Par ch=1 c=64 v=127
39743 On ch=1 n=e4 v=0
39743 On ch=1 n=d6 v=0
39744 On ch=1 n=g#4 v=47
39752 On ch=1 n=c#6 v=73
39770 On ch=1 n=g#4 v=0
39770 On ch=1 n=c#5 v=44
39786 On ch=1 n=c#6 v=0
39793 On ch=1 n=c#5 v=0
39799 On ch=1 n=d6 v=84
39799 On ch=1 n=g#5 v=55
39803 On ch=1 n=e5 v=54
39824 On ch=1 n=g#5 v=0
39824 On ch=1 n=d6 v=0
39829 On ch=1 n=e5 v=0
39829 On ch=1 n=c#5 v=47
39843 On ch=1 n=c#6 v=84
39847 On ch=1 n=c#5 v=0
39901 On ch=1 n=f#5 v=71
39903 On ch=1 n=d4 v=62
39910 Par ch=1 c=64 v=88
39914 Par ch=1 c=64 v=0
39932 On ch=1 n=f#4 v=51
39937 On ch=1 n=d4 v=0
39938 Par ch=1 c=64 v=56
39942 Par ch=1 c=64 v=127
39959 On ch=1 n=f#4 v=0
39968 On ch=1 n=b4 v=49
39975 On ch=1 n=c#6 v=0
39992 On ch=1 n=b4 v=0
39992 On ch=1 n=f#5 v=0
39997 On ch=1 n=b5 v=79
40003 On ch=1 n=d5 v=52
40030 On ch=1 n=d5 v=0
40033 On ch=1 n=b4 v=50
40049 On ch=1 n=b4 v=0
40057 On ch=1 n=f#4 v=52
40084 On ch=1 n=f#4 v=0
40092 On ch=1 n=e5 v=65
40096 On ch=1 n=c#4 v=57
40100 Par ch=1 c=64 v=104
40104 Par ch=1 c=64 v=40
40107 Par ch=1 c=64 v=0
40129 On ch=1 n=c#4 v=0
40132 Par ch=1 c=64 v=88
40134 On ch=1 n=e4 v=54
40136 Par ch=1 c=64 v=127
40163 On ch=1 n=a4 v=46
40164 On ch=1 n=e4 v=0
40169 On ch=1 n=a4 v=0
40179 On ch=1 n=b5 v=0
40190 On ch=1 n=a5 v=77
40196 On ch=1 n=c#5 v=38
40208 On ch=1 n=e5 v=0
40225 On ch=1 n=c#5 v=0
40229 On ch=1 n=e4 v=50
40247 On ch=1 n=e4 v=0
40257 On ch=1 n=c#4 v=46
40275 On ch=1 n=c#4 v=0
40285 On ch=1 n=d5 v=70
40289 Par ch=1 c=64 v=56
40294 Par ch=1 c=64 v=0
40294 On ch=1 n=b3 v=39
40318 Par ch=1 c=64 v=88
40322 Par ch=1 c=64 v=127
40325 On ch=1 n=b3 v=0
40327 On ch=1 n=a5 v=0
40331 On ch=1 n=f4 v=58
40332 On ch=1 n=g#5 v=71
40354 On ch=1 n=d5 v=0
40356 On ch=1 n=f4 v=0
40363 On ch=1 n=g#4 v=47
40369 On ch=1 n=g#5 v=0
40374 On ch=1 n=a5 v=84
40379 On ch=1 n=g#4 v=0
40389 On ch=1 n=b4 v=33
40409 On ch=1 n=a5 v=0
40410 On ch=1 n=b4 v=0
40410 On ch=1 n=g#4 v=40
40416 On ch=1 n=g#5 v=77
40423 On ch=1 n=g#4 v=0
40424 On ch=1 n=f4 v=40
40432 On ch=1 n=f4 v=0
40461 On ch=1 n=g#5 v=0
40470 On ch=1 n=c#6 v=76
40471 Par ch=1 c=64 v=56
40473 On ch=1 n=c#5 v=57
40474 On ch=1 n=a3 v=52
40475 Par ch=1 c=64 v=0
40499 Par ch=1 c=64 v=104
40500 On ch=1 n=c#6 v=0
40503 Par ch=1 c=64 v=127
40505 On ch=1 n=c#4 v=50
40507 On ch=1 n=a3 v=0
40517 On ch=1 n=c#5 v=0
40517 On ch=1 n=a5 v=81
40527 On ch=1 n=c#4 v=0
40534 On ch=1 n=f#4 v=37
40554 On ch=1 n=f#4 v=0
40556 On ch=1 n=a5 v=0
40566 On ch=1 n=a4 v=41
40568 On ch=1 n=f#5 v=77
40594 On ch=1 n=a4 v=0
40600 On ch=1 n=f#4 v=43
40614 On ch=1 n=f#4 v=0
40619 On ch=1 n=c#4 v=51
40658 On ch=1 n=c#4 v=0
40664 On ch=1 n=b4 v=64
40666 On ch=1 n=g#3 v=60
40682 Par ch=1 c=64 v=72
40686 Par ch=1 c=64 v=0
40703 On ch=1 n=g#3 v=0
40706 On ch=1 n=b3 v=58
40714 Par ch=1 c=64 v=104
40718 On ch=1 n=f#5 v=0
40718 Par ch=1 c=64 v=127
40721 On ch=1 n=e5 v=74
40743 On ch=1 n=b3 v=0
40750 On ch=1 n=e4 v=53
40762 On ch=1 n=e5 v=0
40770 On ch=1 n=f#5 v=72
40782 On ch=1 n=e4 v=0
40782 On ch=1 n=g#4 v=46
40810 On ch=1 n=b4 v=0
40814 On ch=1 n=f#5 v=0
40816 On ch=1 n=g#4 v=0
40820 On ch=1 n=e4 v=39
40825 On ch=1 n=e5 v=75
40833 On ch=1 n=e4 v=0
40840 On ch=1 n=b3 v=45
40847 On ch=1 n=b3 v=0
40851 On ch=1 n=e5 v=0
40901 On ch=1 n=f#3 v=55
40903 On ch=1 n=a5 v=76
40924 Par ch=1 c=64 v=72
40928 Par ch=1 c=64 v=0
40957 Par ch=1 c=64 v=127
40959 On ch=1 n=c#4 v=48
40992 On ch=1 n=c#4 v=0
40992 On ch=1 n=f#3 v=0
41000 On ch=1 n=e4 v=59
41004 On ch=1 n=a5 v=0
41031 On ch=1 n=f#4 v=57
41036 On ch=1 n=e4 v=0
41052 On ch=1 n=f#4 v=0
41069 On ch=1 n=a4 v=63
41089 On ch=1 n=a4 v=0
41104 On ch=1 n=b4 v=69
41127 On ch=1 n=b4 v=0
41136 On ch=1 n=c#5 v=65
41166 On ch=1 n=e5 v=74
41174 On ch=1 n=c#5 v=0
41181 On ch=1 n=e5 v=0
41199 On ch=1 n=a5 v=80
41218 On ch=1 n=a5 v=0
41229 On ch=1 n=b5 v=78
41249 On ch=1 n=b5 v=0
41258 On ch=1 n=c#6 v=77
41286 On ch=1 n=e6 v=75
41298 On ch=1 n=c#6 v=0
41302 On ch=1 n=e6 v=0
41319 On ch=1 n=a6 v=84
41341 On ch=1 n=a6 v=0
41349 On ch=1 n=b6 v=89
41373 On ch=1 n=b6 v=0
41380 On ch=1 n=c#7 v=89
41418 On ch=1 n=e7 v=83
41426 On ch=1 n=c#7 v=0
41450 On ch=1 n=c#7 v=82
41453 On ch=1 n=e7 v=0
41485 On ch=1 n=b6 v=77
41518 On ch=1 n=c#7 v=0
41519 On ch=1 n=b6 v=0
41521 On ch=1 n=a6 v=71
41529 On ch=1 n=a6 v=0
41553 On ch=1 n=e6 v=79
41574 On ch=1 n=e6 v=0
41584 On ch=1 n=c#6 v=73
41615 On ch=1 n=c#6 v=0
41622 On ch=1 n=b5 v=75
41652 On ch=1 n=b5 v=0
41658 On ch=1 n=a5 v=67
41679 On ch=1 n=a5 v=0
41702 On ch=1 n=e5 v=64
41727 On ch=1 n=e5 v=0
41757 On ch=1 n=g#5 v=74
41768 Par ch=1 c=64 v=88
41770 On ch=1 n=b2 v=51
41772 Par ch=1 c=64 v=0
41797 Par ch=1 c=64 v=104
41801 Par ch=1 c=64 v=127
41807 On ch=1 n=b3 v=61
41808 On ch=1 n=b2 v=0
41818 On ch=1 n=b3 v=0
41843 On ch=1 n=d#4 v=69
41879 On ch=1 n=g#4 v=55
41895 On ch=1 n=g#5 v=0
41921 On ch=1 n=b4 v=59
41944 On ch=1 n=b4 v=0
41955 On ch=1 n=d#5 v=65
41995 On ch=1 n=d#5 v=0
41995 On ch=1 n=g#5 v=49
42010 On ch=1 n=g#5 v=0
42031 On ch=1 n=b5 v=49
42058 On ch=1 n=g#4 v=0
42062 On ch=1 n=b5 v=0
42065 On ch=1 n=d#4 v=0
42066 On ch=1 n=d#6 v=58
42096 On ch=1 n=d#6 v=0
42100 On ch=1 n=g#6 v=65
42137 On ch=1 n=g#6 v=0
42142 On ch=1 n=b6 v=59
42163 On ch=1 n=b6 v=0
42173 On ch=1 n=b5 v=59
42190 On ch=1 n=b5 v=0
42228 On ch=1 n=f#5 v=69
42228 On ch=1 n=b2 v=35
42238 Par ch=1 c=64 v=104
42242 Par ch=1 c=64 v=24
42246 Par ch=1 c=64 v=0
42262 Par ch=1 c=64 v=40
42265 Par ch=1 c=64 v=127
42267 On ch=1 n=b2 v=0
42270 On ch=1 n=b3 v=55
42275 On ch=1 n=b3 v=0
42310 On ch=1 n=f#5 v=0
42310 On ch=1 n=d#4 v=51
42349 On ch=1 n=a4 v=59
42384 On ch=1 n=a4 v=0
42384 On ch=1 n=b4 v=49
42414 On ch=1 n=d#5 v=49
42444 On ch=1 n=d#5 v=0
42455 On ch=1 n=a5 v=50
42488 On ch=1 n=a5 v=0
42498 On ch=1 n=b5 v=47
42507 On ch=1 n=b5 v=0
42534 On ch=1 n=d#6 v=54
42557 On ch=1 n=d#6 v=0
42575 On ch=1 n=a6 v=59
42580 On ch=1 n=b4 v=0
42587 On ch=1 n=d#4 v=0
42604 On ch=1 n=a6 v=0
42619 On ch=1 n=b6 v=55
42640 On ch=1 n=b6 v=0
42666 On ch=1 n=b5 v=44
42684 On ch=1 n=b5 v=0
42758 On ch=1 n=e5 v=56
42758 On ch=1 n=e3 v=58
42782 Par ch=1 c=64 v=104
42787 Par ch=1 c=64 v=24
42791 Par ch=1 c=64 v=0
42811 On ch=1 n=e5 v=0
42811 Par ch=1 c=64 v=72
42815 Par ch=1 c=64 v=127
42832 On ch=1 n=b3 v=44
42846 On ch=1 n=e3 v=0
42866 On ch=1 n=b3 v=0
42878 On ch=1 n=e4 v=49
42886 On ch=1 n=e7 v=68
42908 On ch=1 n=e4 v=0
42917 On ch=1 n=e7 v=0
42921 On ch=1 n=f#7 v=77
42930 On ch=1 n=g#4 v=46
42946 On ch=1 n=f#7 v=0
42954 On ch=1 n=c#7 v=73
42965 On ch=1 n=g#4 v=0
42976 On ch=1 n=b4 v=53
42979 On ch=1 n=c#7 v=0
42983 On ch=1 n=e7 v=78
43004 On ch=1 n=b4 v=0
43009 On ch=1 n=e7 v=0
43014 On ch=1 n=g#4 v=50
43015 On ch=1 n=b6 v=77
43036 On ch=1 n=b6 v=0
43043 On ch=1 n=c#7 v=75
43044 On ch=1 n=g#4 v=0
43062 On ch=1 n=e4 v=58
43070 On ch=1 n=c#7 v=0
43073 On ch=1 n=g#6 v=75
43089 On ch=1 n=e4 v=0
43095 On ch=1 n=b3 v=55
43100 On ch=1 n=g#6 v=0
43104 On ch=1 n=b6 v=77
43130 On ch=1 n=b6 v=0
43131 On ch=1 n=f#6 v=73
43140 On ch=1 n=b3 v=0
43157 On ch=1 n=e3 v=47
43160 On ch=1 n=f#6 v=0
43162 On ch=1 n=g#6 v=80
43170 Par ch=1 c=64 v=88
43174 Par ch=1 c=64 v=24
43177 Par ch=1 c=64 v=0
43193 On ch=1 n=g#6 v=0
43194 Par ch=1 c=64 v=104
43195 On ch=1 n=e6 v=82
43198 Par ch=1 c=64 v=127
43206 On ch=1 n=c#4 v=46
43210 On ch=1 n=e3 v=0
43225 On ch=1 n=g#6 v=77
43232 On ch=1 n=e6 v=0
43249 On ch=1 n=c#4 v=0
43255 On ch=1 n=e4 v=56
43257 On ch=1 n=g#6 v=0
43259 On ch=1 n=d#6 v=76
43284 On ch=1 n=e4 v=0
43301 On ch=1 n=g#4 v=45
43346 On ch=1 n=g#4 v=0
43351 On ch=1 n=c#5 v=47
43383 On ch=1 n=d#6 v=0
43388 On ch=1 n=c#5 v=0
43406 On ch=1 n=g#4 v=45
43437 On ch=1 n=g#4 v=0
43442 On ch=1 n=c#6 v=70
43450 On ch=1 n=e4 v=45
43473 On ch=1 n=e4 v=0
43488 On ch=1 n=c#4 v=45
43514 On ch=1 n=c#4 v=0
43536 On ch=1 n=c#6 v=0
43552 On ch=1 n=b5 v=59
43560 On ch=1 n=e3 v=36
43562 Par ch=1 c=64 v=72
43566 Par ch=1 c=64 v=0
43589 Par ch=1 c=64 v=72
43593 Par ch=1 c=64 v=127
43604 On ch=1 n=b3 v=50
43614 On ch=1 n=e3 v=0
43630 On ch=1 n=b3 v=0
43639 On ch=1 n=b5 v=0
43643 On ch=1 n=e4 v=53
43651 On ch=1 n=e6 v=68
43672 On ch=1 n=e4 v=0
43680 On ch=1 n=e6 v=0
43680 On ch=1 n=f#6 v=67
43686 On ch=1 n=g#4 v=23
43703 On ch=1 n=f#6 v=0
43709 On ch=1 n=c#6 v=60
43724 On ch=1 n=g#4 v=0
43732 On ch=1 n=c#6 v=0
43734 On ch=1 n=e6 v=73
43736 On ch=1 n=b4 v=47
43763 On ch=1 n=e6 v=0
43767 On ch=1 n=b5 v=74
43768 On ch=1 n=b4 v=0
43772 On ch=1 n=g#4 v=47
43788 On ch=1 n=b5 v=0
43793 On ch=1 n=c#6 v=68
43795 On ch=1 n=g#4 v=0
43815 On ch=1 n=e4 v=58
43818 On ch=1 n=c#6 v=0
43823 On ch=1 n=g#5 v=65
43830 On ch=1 n=e4 v=0
43848 On ch=1 n=g#5 v=0
43850 On ch=1 n=b3 v=35
43852 On ch=1 n=b5 v=64
43878 On ch=1 n=b5 v=0
43878 On ch=1 n=f#5 v=64
43884 On ch=1 n=b3 v=0
43909 On ch=1 n=f#5 v=0
43909 On ch=1 n=g#5 v=65
43918 On ch=1 n=e3 v=39
43921 Par ch=1 c=64 v=40
43925 Par ch=1 c=64 v=0
43942 On ch=1 n=g#5 v=0
43944 On ch=1 n=e5 v=64
43949 Par ch=1 c=64 v=88
43953 Par ch=1 c=64 v=127
43965 On ch=1 n=c#4 v=50
43972 On ch=1 n=g#5 v=61
43975 On ch=1 n=e5 v=0
43975 On ch=1 n=e3 v=0
44004 On ch=1 n=g#5 v=0
44006 On ch=1 n=c#4 v=0
44010 On ch=1 n=d#5 v=64
44015 On ch=1 n=e4 v=43
44038 On ch=1 n=e4 v=0
44057 On ch=1 n=g#4 v=44
44101 On ch=1 n=g#4 v=0
44102 On ch=1 n=c#5 v=51
44108 On ch=1 n=d#5 v=0
44137 On ch=1 n=c#5 v=0
44138 On ch=1 n=g#4 v=46
44154 On ch=1 n=g#4 v=0
44189 On ch=1 n=c#5 v=60
44199 On ch=1 n=e4 v=32
44218 On ch=1 n=e4 v=0
44220 On ch=1 n=c#5 v=0
44228 On ch=1 n=c#4 v=55
44252 On ch=1 n=c#4 v=0
44273 On ch=1 n=e3 v=58
44284 On ch=1 n=e3 v=0
44288 Par ch=1 c=64 v=104
44292 Par ch=1 c=64 v=40
44295 Par ch=1 c=64 v=0
44309 On ch=1 n=b4 v=63
44316 Par ch=1 c=64 v=40
44320 Par ch=1 c=64 v=104
44324 Par ch=1 c=64 v=127
44334 On ch=1 n=b4 v=0
44338 On ch=1 n=e4 v=65
44350 On ch=1 n=e4 v=0
44367 On ch=1 n=b3 v=62
44384 On ch=1 n=b3 v=0
44392 On ch=1 n=c#5 v=63
44409 On ch=1 n=c#5 v=0
44415 On ch=1 n=g#4 v=65
44435 On ch=1 n=g#4 v=0
44444 On ch=1 n=e4 v=72
44458 On ch=1 n=e4 v=0
44468 On ch=1 n=e5 v=70
44487 On ch=1 n=e5 v=0
44495 On ch=1 n=b4 v=64
44502 On ch=1 n=b4 v=0
44511 On ch=1 n=b4 v=70
44523 On ch=1 n=b4 v=0
44540 On ch=1 n=f#5 v=72
44556 On ch=1 n=f#5 v=0
44564 On ch=1 n=c#5 v=61
44578 On ch=1 n=c#5 v=0
44585 On ch=1 n=e4 v=71
44591 Par ch=1 c=64 v=72
44595 Par ch=1 c=64 v=0
44606 On ch=1 n=e4 v=0
44607 Par ch=1 c=64 v=88
44610 On ch=1 n=b5 v=71
44610 Par ch=1 c=64 v=127
44629 On ch=1 n=b5 v=0
44634 On ch=1 n=e5 v=47
44644 On ch=1 n=e5 v=0
44655 On ch=1 n=b4 v=60
44674 On ch=1 n=b4 v=0
44674 On ch=1 n=c#6 v=76
44689 On ch=1 n=c#6 v=0
44697 On ch=1 n=g#5 v=64
44713 On ch=1 n=g#5 v=0
44718 On ch=1 n=e5 v=70
44734 On ch=1 n=e5 v=0
44738 On ch=1 n=e6 v=75
44753 On ch=1 n=e6 v=0
44758 On ch=1 n=b5 v=66
44767 On ch=1 n=b5 v=0
44782 On ch=1 n=b5 v=74
44790 On ch=1 n=b5 v=0
44800 On ch=1 n=f#6 v=76
44815 On ch=1 n=f#6 v=0
44825 On ch=1 n=c#6 v=51
44834 On ch=1 n=c#6 v=0
44841 On ch=1 n=e5 v=62
44853 Par ch=1 c=64 v=104
44857 Par ch=1 c=64 v=72
44866 On ch=1 n=b6 v=68
44869 On ch=1 n=e5 v=0
44869 Par ch=1 c=64 v=127
44884 On ch=1 n=b6 v=0
44890 On ch=1 n=e6 v=56
44898 On ch=1 n=e6 v=0
44919 On ch=1 n=b5 v=38
44933 On ch=1 n=b5 v=0
44934 On ch=1 n=c#7 v=73
44948 On ch=1 n=c#7 v=0
44958 On ch=1 n=g#6 v=58
44976 On ch=1 n=g#6 v=0
44981 On ch=1 n=e6 v=59
45002 On ch=1 n=e6 v=0
45002 On ch=1 n=e7 v=69
45021 On ch=1 n=e7 v=0
45028 On ch=1 n=b6 v=55
45039 On ch=1 n=b6 v=0
45054 On ch=1 n=b6 v=59
45074 On ch=1 n=b6 v=0
45084 On ch=1 n=f#7 v=60
45100 On ch=1 n=f#7 v=0
45108 On ch=1 n=c#7 v=56
45132 On ch=1 n=c#7 v=0
45163 On ch=1 n=g#7 v=73
45168 On ch=1 n=e7 v=51
45172 On ch=1 n=e6 v=45
45176 On ch=1 n=b6 v=38
45199 On ch=1 n=e7 v=0
45204 On ch=1 n=e6 v=0
45205 On ch=1 n=g#7 v=0
45206 On ch=1 n=b6 v=0
45283 On ch=1 n=g#7 v=58
45290 On ch=1 n=e7 v=37
45294 On ch=1 n=b6 v=31
45294 On ch=1 n=e6 v=31
45302 On ch=1 n=e7 v=0
45307 On ch=1 n=e6 v=0
45312 On ch=1 n=b6 v=0
45315 On ch=1 n=g#7 v=0
45556 On ch=1 n=g#7 v=49
45566 On ch=1 n=e6 v=37
45566 On ch=1 n=e7 v=28
45566 On ch=1 n=b6 v=24
45585 On ch=1 n=e7 v=0
45592 On ch=1 n=g#7 v=0
45592 On ch=1 n=e6 v=0
45593 On ch=1 n=b6 v=0
45793 On ch=1 n=e5 v=48
45796 On ch=1 n=e4 v=41
45797 On ch=1 n=e3 v=33
45817 Par ch=1 c=64 v=104
45821 Par ch=1 c=64 v=72
45825 Par ch=1 c=64 v=24
45830 Par ch=1 c=64 v=0
45854 Par ch=1 c=64 v=40
45858 Par ch=1 c=64 v=127
45877 On ch=1 n=e4 v=0
45879 On ch=1 n=e3 v=0
45894 On ch=1 n=e5 v=0
46313 Par ch=1 c=64 v=104
46325 Par ch=1 c=64 v=88
46337 Par ch=1 c=64 v=72
46347 Par ch=1 c=64 v=56
46351 Par ch=1 c=64 v=40
46355 Par ch=1 c=64 v=24
46363 Par ch=1 c=64 v=0
46363 Meta TrkEnd
TrkEnd
MTrk
0 Meta 0x21 00
0 Meta TrkName "Debussy"
0 Meta TrkEnd
TrkEnd
MTrk
0 Meta 0x21 00
0 Meta TrkName "Copyright1"
