MFile 1 7 480
MTrk
0 SMPTE 0 0 0 0 0
0 Tempo 437956
0 TimeSig 4/4 4 8
170640 Tempo 3750000
170720 Tempo 437956
189598 Tempo 535714
190080 Tempo 528634
190554 Tempo 444444
208400 Tempo 488798
211200 Tempo 444444
211200 Meta TrkEnd
TrkEnd
MTrk
0 SeqSpec 43 00 01 00
0 Meta TrkName "new"
0 Meta 0x21 00
0 Meta 0x20 00
0 Par ch=1 c=7 v=127
0 Par ch=1 c=10 v=64
0 PrCh ch=1 p=0
5 On ch=1 n=e6 v=50
79 On ch=1 n=f#6 v=49
88 On ch=1 n=e6 v=0
157 On ch=1 n=e6 v=49
167 On ch=1 n=f#6 v=0
240 On ch=1 n=a5 v=57
245 On ch=1 n=e6 v=0
301 On ch=1 n=a5 v=0
483 On ch=1 n=a6 v=75
560 On ch=1 n=b6 v=73
570 On ch=1 n=a6 v=0
638 On ch=1 n=a6 v=72
648 On ch=1 n=b6 v=0
719 On ch=1 n=d6 v=72
726 On ch=1 n=a6 v=0
790 On ch=1 n=d6 v=0
949 On ch=1 n=e6 v=53
1029 On ch=1 n=f#6 v=53
1044 On ch=1 n=e6 v=0
1116 On ch=1 n=e6 v=53
1125 On ch=1 n=f#6 v=0
1195 On ch=1 n=a5 v=59
1202 On ch=1 n=e6 v=0
1280 On ch=1 n=a5 v=0
1436 On ch=1 n=a6 v=79
1514 On ch=1 n=b6 v=86
1524 On ch=1 n=a6 v=0
1594 On ch=1 n=a6 v=86
1604 On ch=1 n=b6 v=0
1676 On ch=1 n=a6 v=0
1676 On ch=1 n=d6 v=72
1748 On ch=1 n=d6 v=0
1917 On ch=1 n=e6 v=49
1996 On ch=1 n=f#6 v=49
2006 On ch=1 n=e6 v=0
2072 On ch=1 n=e6 v=49
2083 On ch=1 n=f#6 v=0
2153 On ch=1 n=b5 v=49
2162 On ch=1 n=e6 v=0
2226 On ch=1 n=b5 v=0
2392 On ch=1 n=b6 v=66
2469 On ch=1 n=c7 v=66
2485 On ch=1 n=b6 v=0
2549 On ch=1 n=b6 v=66
2559 On ch=1 n=c7 v=0
2630 On ch=1 n=d6 v=66
2637 On ch=1 n=b6 v=0
2703 On ch=1 n=d6 v=0
2869 On ch=1 n=e6 v=86
2946 On ch=1 n=f#6 v=54
2957 On ch=1 n=e6 v=0
3025 On ch=1 n=e6 v=57
3036 On ch=1 n=f#6 v=0
3106 On ch=1 n=b5 v=47
3112 On ch=1 n=e6 v=0
3186 On ch=1 n=b5 v=0
3353 On ch=1 n=b6 v=58
3431 On ch=1 n=c7 v=58
3441 On ch=1 n=b6 v=0
3508 On ch=1 n=b6 v=57
3518 On ch=1 n=c7 v=0
3581 On ch=1 n=d6 v=61
3587 On ch=1 n=b6 v=0
3661 On ch=1 n=d6 v=0
3823 On ch=1 n=e6 v=42
3905 On ch=1 n=f#6 v=42
3915 On ch=1 n=e6 v=0
3981 On ch=1 n=e6 v=42
3990 On ch=1 n=f#6 v=0
4060 On ch=1 n=c6 v=42
4066 On ch=1 n=e6 v=0
4126 On ch=1 n=c6 v=0
4303 On ch=1 n=c7 v=57
4382 On ch=1 n=d7 v=57
4396 On ch=1 n=c7 v=0
4463 On ch=1 n=c7 v=57
4474 On ch=1 n=d7 v=0
4542 On ch=1 n=d6 v=57
4543 On ch=1 n=c7 v=0
4620 On ch=1 n=d6 v=0
4775 On ch=1 n=e6 v=40
4855 On ch=1 n=f#6 v=40
4865 On ch=1 n=e6 v=0
4939 On ch=1 n=e6 v=40
4949 On ch=1 n=f#6 v=0
5019 On ch=1 n=c6 v=40
5031 On ch=1 n=e6 v=0
5097 On ch=1 n=c6 v=0
5262 On ch=1 n=c7 v=55
5340 On ch=1 n=d7 v=55
5352 On ch=1 n=c7 v=0
5417 On ch=1 n=c7 v=55
5429 On ch=1 n=d7 v=0
5499 On ch=1 n=c7 v=0
5499 On ch=1 n=d6 v=55
5574 On ch=1 n=d6 v=0
5736 On ch=1 n=e6 v=39
5816 On ch=1 n=f#6 v=39
5826 On ch=1 n=e6 v=0
5903 On ch=1 n=e6 v=39
5907 On ch=1 n=f#6 v=0
5977 On ch=1 n=c6 v=39
5997 On ch=1 n=e6 v=0
6067 On ch=1 n=c6 v=0
6213 On ch=1 n=c7 v=54
6293 On ch=1 n=d7 v=54
6305 On ch=1 n=c7 v=0
6371 On ch=1 n=c7 v=54
6382 On ch=1 n=d7 v=0
6456 On ch=1 n=d6 v=54
6459 On ch=1 n=c7 v=0
6529 On ch=1 n=d6 v=0
6696 On ch=1 n=e6 v=35
6774 On ch=1 n=f#6 v=35
6791 On ch=1 n=e6 v=0
6856 On ch=1 n=e6 v=35
6866 On ch=1 n=f#6 v=0
6932 On ch=1 n=c6 v=35
6942 On ch=1 n=e6 v=0
7017 On ch=1 n=c6 v=0
7174 On ch=1 n=c7 v=37
7255 On ch=1 n=d7 v=37
7265 On ch=1 n=c7 v=0
7335 On ch=1 n=c7 v=37
7344 On ch=1 n=d7 v=0
7413 On ch=1 n=c7 v=0
7414 On ch=1 n=d6 v=37
7490 On ch=1 n=d6 v=0
7660 On ch=1 n=e6 v=30
7739 On ch=1 n=f#6 v=30
7749 On ch=1 n=e6 v=0
7813 On ch=1 n=e6 v=30
7821 On ch=1 n=f#6 v=0
7895 On ch=1 n=b5 v=30
7896 On ch=1 n=e6 v=0
7964 On ch=1 n=b5 v=0
8130 On ch=1 n=d6 v=35
8208 On ch=1 n=e6 v=35
8216 On ch=1 n=d6 v=0
8289 On ch=1 n=d6 v=35
8297 On ch=1 n=e6 v=0
8370 On ch=1 n=g5 v=35
8378 On ch=1 n=d6 v=0
8451 On ch=1 n=g5 v=0
8616 On ch=1 n=b5 v=45
8696 On ch=1 n=c6 v=44
8707 On ch=1 n=b5 v=0
8771 On ch=1 n=b5 v=48
8780 On ch=1 n=c6 v=0
8851 On ch=1 n=d5 v=48
8858 On ch=1 n=b5 v=0
8957 On ch=1 n=d5 v=0
9092 On ch=1 n=a5 v=52
9171 On ch=1 n=b5 v=45
9186 On ch=1 n=a5 v=0
9251 On ch=1 n=a5 v=61
9263 On ch=1 n=b5 v=0
9333 On ch=1 n=e5 v=58
9334 On ch=1 n=a5 v=0
9369 On ch=1 n=e5 v=0
9573 On ch=1 n=e6 v=30
9653 On ch=1 n=f#6 v=30
9661 On ch=1 n=e6 v=0
9734 On ch=1 n=e6 v=30
9742 On ch=1 n=f#6 v=0
9815 On ch=1 n=b5 v=30
9817 On ch=1 n=e6 v=0
9901 On ch=1 n=b5 v=0
10052 On ch=1 n=d6 v=35
10133 On ch=1 n=e6 v=35
10144 On ch=1 n=d6 v=0
10215 On ch=1 n=d6 v=35
10226 On ch=1 n=e6 v=0
10293 On ch=1 n=g5 v=35
10296 On ch=1 n=d6 v=0
10395 On ch=1 n=g5 v=0
10531 On ch=1 n=b5 v=43
10607 On ch=1 n=c6 v=43
10617 On ch=1 n=b5 v=0
10684 On ch=1 n=b5 v=44
10698 On ch=1 n=c6 v=0
10768 On ch=1 n=d5 v=44
10780 On ch=1 n=b5 v=0
10858 On ch=1 n=d5 v=0
11011 On ch=1 n=a5 v=54
11087 On ch=1 n=b5 v=54
11096 On ch=1 n=a5 v=0
11170 On ch=1 n=a5 v=50
11181 On ch=1 n=b5 v=0
11250 On ch=1 n=e5 v=59
11256 On ch=1 n=a5 v=0
11327 On ch=1 n=e5 v=0
11488 On ch=1 n=g5 v=54
11569 On ch=1 n=a5 v=38
11579 On ch=1 n=g5 v=0
11650 On ch=1 n=g5 v=45
11660 On ch=1 n=a5 v=0
11727 On ch=1 n=d5 v=55
11738 On ch=1 n=g5 v=0
11841 On ch=1 n=d5 v=0
11972 On ch=1 n=e5 v=57
12056 On ch=1 n=e5 v=0
12131 On ch=1 n=g5 v=67
12206 On ch=1 n=g5 v=0
12288 On ch=1 n=b5 v=83
12378 On ch=1 n=b5 v=0
12453 On ch=1 n=g5 v=77
12529 On ch=1 n=a5 v=58
12533 On ch=1 n=g5 v=0
12606 On ch=1 n=g5 v=40
12612 On ch=1 n=a5 v=0
12686 On ch=1 n=g5 v=0
12686 On ch=1 n=d5 v=62
12767 On ch=1 n=d5 v=0
12929 On ch=1 n=e5 v=62
13009 On ch=1 n=e5 v=0
13090 On ch=1 n=g5 v=79
13157 On ch=1 n=g5 v=0
13242 On ch=1 n=b5 v=74
13320 On ch=1 n=b5 v=0
13412 On ch=1 n=a5 v=55
13487 On ch=1 n=b5 v=59
13498 On ch=1 n=a5 v=0
13571 On ch=1 n=a5 v=66
13580 On ch=1 n=b5 v=0
13645 On ch=1 n=a5 v=0
13652 On ch=1 n=e5 v=79
13756 On ch=1 n=e5 v=0
13882 On ch=1 n=a5 v=42
13883 On ch=1 n=e6 v=127
13883 On ch=1 n=c6 v=55
13998 Par ch=1 c=64 v=127
13998 Par ch=1 c=64 v=127
13998 Par ch=1 c=64 v=127
14125 On ch=1 n=d6 v=83
14130 On ch=1 n=e6 v=0
14145 Par ch=1 c=64 v=0
14145 Par ch=1 c=64 v=0
14145 Par ch=1 c=64 v=0
14213 Par ch=1 c=64 v=127
14213 Par ch=1 c=64 v=127
14213 Par ch=1 c=64 v=127
14258 On ch=1 n=d6 v=0
14261 On ch=1 n=c6 v=0
14265 On ch=1 n=a5 v=0
14367 On ch=1 n=d6 v=91
14367 On ch=1 n=b6 v=91
14367 On ch=1 n=f#6 v=91
14377 Par ch=1 c=64 v=0
14377 Par ch=1 c=64 v=0
14377 Par ch=1 c=64 v=0
14483 Par ch=1 c=64 v=127
14483 Par ch=1 c=64 v=127
14483 Par ch=1 c=64 v=127
14552 On ch=1 n=b6 v=0
14608 On ch=1 n=a6 v=90
14631 Par ch=1 c=64 v=0
14631 Par ch=1 c=64 v=0
14631 Par ch=1 c=64 v=0
14719 Par ch=1 c=64 v=127
14719 Par ch=1 c=64 v=127
14719 Par ch=1 c=64 v=127
14781 On ch=1 n=a6 v=0
14787 On ch=1 n=f#6 v=0
14827 On ch=1 n=d6 v=0
14847 On ch=1 n=f#6 v=112
14855 Par ch=1 c=64 v=0
14855 Par ch=1 c=64 v=0
14855 Par ch=1 c=64 v=0
15002 Par ch=1 c=64 v=127
15002 Par ch=1 c=64 v=127
15002 Par ch=1 c=64 v=127
15026 On ch=1 n=f#6 v=0
15071 Par ch=1 c=64 v=0
15071 Par ch=1 c=64 v=0
15071 Par ch=1 c=64 v=0
15083 On ch=1 n=d6 v=58
15236 On ch=1 n=d6 v=0
15327 On ch=1 n=e6 v=33
15408 On ch=1 n=f#6 v=33
15415 On ch=1 n=e6 v=0
15489 On ch=1 n=e6 v=33
15497 On ch=1 n=f#6 v=0
15570 On ch=1 n=b5 v=33
15573 On ch=1 n=e6 v=0
15634 On ch=1 n=b5 v=0
15809 On ch=1 n=d6 v=36
15889 On ch=1 n=e6 v=36
15896 On ch=1 n=d6 v=0
15972 On ch=1 n=d6 v=36
15983 On ch=1 n=e6 v=0
16050 On ch=1 n=g5 v=36
16055 On ch=1 n=d6 v=0
16113 On ch=1 n=g5 v=0
16288 On ch=1 n=b5 v=43
16369 On ch=1 n=c6 v=43
16384 On ch=1 n=b5 v=0
16444 On ch=1 n=b5 v=43
16456 On ch=1 n=c6 v=0
16527 On ch=1 n=d5 v=43
16534 On ch=1 n=b5 v=0
16610 On ch=1 n=d5 v=0
16766 On ch=1 n=a5 v=58
16850 On ch=1 n=b5 v=57
16857 On ch=1 n=a5 v=0
16929 On ch=1 n=a5 v=49
16938 On ch=1 n=b5 v=0
17007 On ch=1 n=e5 v=30
17008 On ch=1 n=a5 v=0
17085 On ch=1 n=e5 v=0
17246 On ch=1 n=e6 v=30
17327 On ch=1 n=f#6 v=30
17338 On ch=1 n=e6 v=0
17407 On ch=1 n=e6 v=30
17418 On ch=1 n=f#6 v=0
17490 On ch=1 n=b5 v=30
17496 On ch=1 n=e6 v=0
17556 On ch=1 n=b5 v=0
17723 On ch=1 n=d6 v=35
17800 On ch=1 n=e6 v=35
17811 On ch=1 n=d6 v=0
17881 On ch=1 n=d6 v=35
17895 On ch=1 n=e6 v=0
17965 On ch=1 n=g5 v=37
17972 On ch=1 n=d6 v=0
18034 On ch=1 n=g5 v=0
18210 On ch=1 n=b5 v=42
18288 On ch=1 n=c6 v=42
18300 On ch=1 n=b5 v=0
18365 On ch=1 n=b5 v=42
18375 On ch=1 n=c6 v=0
18442 On ch=1 n=d5 v=46
18446 On ch=1 n=b5 v=0
18519 On ch=1 n=d5 v=0
18680 On ch=1 n=a5 v=50
18758 On ch=1 n=b5 v=53
18769 On ch=1 n=a5 v=0
18844 On ch=1 n=a5 v=58
18854 On ch=1 n=b5 v=0
18922 On ch=1 n=e5 v=64
18924 On ch=1 n=a5 v=0
19015 On ch=1 n=e5 v=0
19162 On ch=1 n=g5 v=61
19246 On ch=1 n=a5 v=52
19256 On ch=1 n=g5 v=0
19324 On ch=1 n=g5 v=66
19334 On ch=1 n=a5 v=0
19400 On ch=1 n=d5 v=74
19406 On ch=1 n=g5 v=0
19491 On ch=1 n=d5 v=0
19629 On ch=1 n=e5 v=112
19715 On ch=1 n=e5 v=0
19797 On ch=1 n=g5 v=105
19876 On ch=1 n=g5 v=0
19951 On ch=1 n=b5 v=127
20031 On ch=1 n=b5 v=0
20113 On ch=1 n=a5 v=99
20117 On ch=1 n=e5 v=99
20210 Par ch=1 c=64 v=127
20210 Par ch=1 c=64 v=127
20211 Par ch=1 c=64 v=127
20281 On ch=1 n=e5 v=0
20288 On ch=1 n=a5 v=0
20355 On ch=1 n=e5 v=112
20376 Par ch=1 c=64 v=0
20376 Par ch=1 c=64 v=0
20376 Par ch=1 c=64 v=0
20464 Par ch=1 c=64 v=127
20464 Par ch=1 c=64 v=127
20465 Par ch=1 c=64 v=127
20492 On ch=1 n=e5 v=0
20603 On ch=1 n=a5 v=66
20611 Par ch=1 c=64 v=0
20611 Par ch=1 c=64 v=0
20611 Par ch=1 c=64 v=0
20690 Par ch=1 c=64 v=127
20690 Par ch=1 c=64 v=127
20690 Par ch=1 c=64 v=127
20712 On ch=1 n=a5 v=0
20790 On ch=1 n=e6 v=74
20834 On ch=1 n=a6 v=74
20846 Par ch=1 c=64 v=0
20846 Par ch=1 c=64 v=0
20846 Par ch=1 c=64 v=0
20998 On ch=1 n=a6 v=0
20998 On ch=1 n=e6 v=0
21080 On ch=1 n=g5 v=127
21151 On ch=1 n=a5 v=86
21165 On ch=1 n=g5 v=0
21233 On ch=1 n=g5 v=49
21242 On ch=1 n=a5 v=0
21316 On ch=1 n=d5 v=52
21325 On ch=1 n=g5 v=0
21413 On ch=1 n=d5 v=0
21555 On ch=1 n=e5 v=77
21663 On ch=1 n=e5 v=0
21719 On ch=1 n=g5 v=72
21803 On ch=1 n=g5 v=0
21873 On ch=1 n=b5 v=112
21940 Par ch=1 c=64 v=127
21940 Par ch=1 c=64 v=127
21940 Par ch=1 c=64 v=127
21966 On ch=1 n=b5 v=0
21976 Par ch=1 c=64 v=0
21976 Par ch=1 c=64 v=0
21977 Par ch=1 c=64 v=0
22036 On ch=1 n=e5 v=77
22036 On ch=1 n=a5 v=94
22123 Par ch=1 c=64 v=127
22123 Par ch=1 c=64 v=127
22123 Par ch=1 c=64 v=127
22217 On ch=1 n=e5 v=0
22221 On ch=1 n=a5 v=0
22270 On ch=1 n=e5 v=72
22298 Par ch=1 c=64 v=0
22300 Par ch=1 c=64 v=0
22300 Par ch=1 c=64 v=0
22349 Par ch=1 c=64 v=127
22349 Par ch=1 c=64 v=127
22349 Par ch=1 c=64 v=127
22428 On ch=1 n=e5 v=0
22515 On ch=1 n=a5 v=99
22533 Par ch=1 c=64 v=0
22534 Par ch=1 c=64 v=0
22534 Par ch=1 c=64 v=0
22573 Par ch=1 c=64 v=127
22573 Par ch=1 c=64 v=127
22573 Par ch=1 c=64 v=127
22605 On ch=1 n=a5 v=0
22710 On ch=1 n=e6 v=105
22752 On ch=1 n=a6 v=83
22768 Par ch=1 c=64 v=0
22768 Par ch=1 c=64 v=0
22769 Par ch=1 c=64 v=0
22827 Par ch=1 c=64 v=127
22827 Par ch=1 c=64 v=127
22827 Par ch=1 c=64 v=127
22894 On ch=1 n=e6 v=0
22904 On ch=1 n=a6 v=0
22912 Par ch=1 c=64 v=0
22912 Par ch=1 c=64 v=0
22912 Par ch=1 c=64 v=0
22996 On ch=1 n=a6 v=74
23076 On ch=1 n=b6 v=99
23088 On ch=1 n=a6 v=0
23153 On ch=1 n=a6 v=83
23164 On ch=1 n=b6 v=0
23235 On ch=1 n=f#6 v=79
23245 On ch=1 n=a6 v=0
23295 On ch=1 n=f#6 v=0
23465 On ch=1 n=d6 v=79
23544 On ch=1 n=e6 v=41
23554 On ch=1 n=d6 v=0
23621 On ch=1 n=d6 v=66
23650 On ch=1 n=e6 v=0
23706 On ch=1 n=b5 v=74
23718 On ch=1 n=d6 v=0
23783 On ch=1 n=b5 v=0
23947 On ch=1 n=a5 v=72
24026 On ch=1 n=b5 v=83
24036 On ch=1 n=a5 v=0
24102 On ch=1 n=a5 v=74
24112 On ch=1 n=b5 v=0
24180 On ch=1 n=f#5 v=55
24190 On ch=1 n=a5 v=0
24274 On ch=1 n=f#5 v=0
24418 On ch=1 n=d5 v=46
24497 On ch=1 n=e5 v=64
24509 On ch=1 n=d5 v=0
24580 On ch=1 n=d5 v=67
24588 On ch=1 n=e5 v=0
24657 On ch=1 n=b4 v=49
24662 On ch=1 n=d5 v=0
24743 On ch=1 n=b4 v=0
24895 On ch=1 n=a4 v=46
25021 On ch=1 n=a4 v=0
25136 On ch=1 n=d5 v=51
25276 On ch=1 n=d5 v=0
25378 On ch=1 n=b4 v=48
25488 On ch=1 n=b4 v=0
25618 On ch=1 n=f#5 v=53
25618 On ch=1 n=c#5 v=37
25756 On ch=1 n=c#5 v=0
25759 On ch=1 n=f#5 v=0
25862 On ch=1 n=d5 v=50
25865 On ch=1 n=a4 v=34
26301 On ch=1 n=a4 v=0
26301 On ch=1 n=d5 v=0
26823 On ch=1 n=g4 v=64
26897 On ch=1 n=a4 v=72
26907 On ch=1 n=g4 v=0
26973 On ch=1 n=g4 v=67
26981 On ch=1 n=a4 v=0
27058 On ch=1 n=e4 v=61
27066 On ch=1 n=g4 v=0
27159 On ch=1 n=e4 v=0
27304 On ch=1 n=c5 v=42
27304 On ch=1 n=g5 v=77
27383 On ch=1 n=a5 v=99
27393 On ch=1 n=g5 v=0
27452 On ch=1 n=g5 v=99
27462 On ch=1 n=a5 v=0
27533 On ch=1 n=e5 v=83
27540 On ch=1 n=g5 v=0
28012 On ch=1 n=f#5 v=77
28019 On ch=1 n=e5 v=0
28071 On ch=1 n=f#5 v=0
28254 On ch=1 n=g5 v=79
28345 On ch=1 n=g5 v=0
28503 On ch=1 n=a5 v=83
28591 On ch=1 n=a5 v=0
28636 On ch=1 n=c5 v=0
28734 On ch=1 n=f#5 v=62
28735 On ch=1 n=b5 v=69
28737 On ch=1 n=c5 v=54
28739 On ch=1 n=d5 v=42
28835 Par ch=1 c=64 v=127
28835 Par ch=1 c=64 v=127
28835 Par ch=1 c=64 v=127
28893 On ch=1 n=f#5 v=0
28899 On ch=1 n=b5 v=0
28979 On ch=1 n=c6 v=86
29000 Par ch=1 c=64 v=0
29001 Par ch=1 c=64 v=0
29001 Par ch=1 c=64 v=0
29082 On ch=1 n=c6 v=0
29212 On ch=1 n=d6 v=79
29226 On ch=1 n=c5 v=0
29228 On ch=1 n=d5 v=0
29311 On ch=1 n=d6 v=0
29454 On ch=1 n=e6 v=127
29542 On ch=1 n=e6 v=0
29700 On ch=1 n=f#6 v=127
29702 On ch=1 n=d6 v=77
29703 On ch=1 n=b5 v=52
29802 Par ch=1 c=64 v=127
29802 Par ch=1 c=64 v=127
29802 Par ch=1 c=64 v=127
29845 On ch=1 n=f#6 v=0
29854 On ch=1 n=d6 v=0
29882 On ch=1 n=b5 v=0
29898 On ch=1 n=f#6 v=72
29921 On ch=1 n=f#6 v=0
29944 On ch=1 n=a6 v=99
29958 Par ch=1 c=64 v=0
29958 Par ch=1 c=64 v=0
29959 Par ch=1 c=64 v=0
30065 On ch=1 n=a6 v=0
30173 On ch=1 n=g6 v=64
30279 On ch=1 n=g6 v=0
30417 On ch=1 n=d6 v=77
30547 On ch=1 n=d6 v=0
30658 On ch=1 n=g4 v=54
30734 On ch=1 n=a4 v=49
30745 On ch=1 n=g4 v=0
30815 On ch=1 n=g4 v=83
30824 On ch=1 n=a4 v=0
30896 On ch=1 n=g4 v=0
30899 On ch=1 n=e4 v=42
31004 On ch=1 n=e4 v=0
31134 On ch=1 n=c5 v=44
31134 On ch=1 n=g5 v=77
31215 On ch=1 n=a5 v=94
31238 On ch=1 n=g5 v=0
31298 On ch=1 n=g5 v=77
31307 On ch=1 n=a5 v=0
31377 On ch=1 n=e5 v=79
31385 On ch=1 n=g5 v=0
31853 On ch=1 n=f#5 v=77
31862 On ch=1 n=e5 v=0
31945 On ch=1 n=f#5 v=0
32089 On ch=1 n=g5 v=83
32196 On ch=1 n=g5 v=0
32325 On ch=1 n=a5 v=86
32438 On ch=1 n=a5 v=0
32475 On ch=1 n=c5 v=0
32574 On ch=1 n=f#5 v=77
32574 On ch=1 n=b5 v=61
32575 On ch=1 n=d5 v=37
32575 On ch=1 n=c5 v=45
32776 On ch=1 n=b5 v=0
32782 On ch=1 n=f#5 v=0
32818 On ch=1 n=c6 v=112
32982 On ch=1 n=c6 v=0
33052 On ch=1 n=d6 v=90
33127 On ch=1 n=d5 v=0
33129 On ch=1 n=c5 v=0
33217 On ch=1 n=d6 v=0
33286 On ch=1 n=e6 v=127
33455 On ch=1 n=e6 v=0
33531 On ch=1 n=f#6 v=127
33533 On ch=1 n=d6 v=72
33535 On ch=1 n=b5 v=45
33651 Par ch=1 c=64 v=127
33651 Par ch=1 c=64 v=127
33651 Par ch=1 c=64 v=127
33680 On ch=1 n=f#6 v=0
33684 On ch=1 n=d6 v=0
33716 On ch=1 n=b5 v=0
33726 On ch=1 n=f#6 v=127
33749 On ch=1 n=f#6 v=0
33775 On ch=1 n=a6 v=105
33795 Par ch=1 c=64 v=0
33795 Par ch=1 c=64 v=0
33795 Par ch=1 c=64 v=0
33966 On ch=1 n=a6 v=0
34011 On ch=1 n=g6 v=86
34136 On ch=1 n=g6 v=0
34254 On ch=1 n=d6 v=119
34312 Par ch=1 c=64 v=127
34312 Par ch=1 c=64 v=127
34314 Par ch=1 c=64 v=127
34346 On ch=1 n=d6 v=0
34391 Par ch=1 c=64 v=0
34391 Par ch=1 c=64 v=0
34391 Par ch=1 c=64 v=0
34497 On ch=1 n=d6 v=65
34497 On ch=1 n=b5 v=65
34497 On ch=1 n=a6 v=65
34860 Par ch=1 c=64 v=127
34860 Par ch=1 c=64 v=127
34860 Par ch=1 c=64 v=127
34932 On ch=1 n=a6 v=0
34967 On ch=1 n=g6 v=69
34987 Par ch=1 c=64 v=0
34987 Par ch=1 c=64 v=0
34987 Par ch=1 c=64 v=0
35271 Par ch=1 c=64 v=127
35271 Par ch=1 c=64 v=127
35271 Par ch=1 c=64 v=127
35315 On ch=1 n=g6 v=0
35315 On ch=1 n=d6 v=0
35316 On ch=1 n=b5 v=0
35451 On ch=1 n=d6 v=70
35451 On ch=1 n=a6 v=70
35451 On ch=1 n=b5 v=70
35465 Par ch=1 c=64 v=0
35467 Par ch=1 c=64 v=0
35467 Par ch=1 c=64 v=0
35788 Par ch=1 c=64 v=127
35788 Par ch=1 c=64 v=127
35788 Par ch=1 c=64 v=127
35864 On ch=1 n=a6 v=0
35928 On ch=1 n=g6 v=73
35945 Par ch=1 c=64 v=0
35945 Par ch=1 c=64 v=0
35945 Par ch=1 c=64 v=0
36219 Par ch=1 c=64 v=127
36219 Par ch=1 c=64 v=127
36219 Par ch=1 c=64 v=127
36292 On ch=1 n=d6 v=0
36294 On ch=1 n=g6 v=0
36301 On ch=1 n=b5 v=0
36347 Par ch=1 c=64 v=0
36347 Par ch=1 c=64 v=0
36347 Par ch=1 c=64 v=0
36419 On ch=1 n=a6 v=71
36419 On ch=1 n=d6 v=71
36419 On ch=1 n=b5 v=71
36804 Par ch=1 c=64 v=127
36804 Par ch=1 c=64 v=127
36806 Par ch=1 c=64 v=127
36843 On ch=1 n=a6 v=0
36894 On ch=1 n=g6 v=73
36913 Par ch=1 c=64 v=0
36913 Par ch=1 c=64 v=0
36913 Par ch=1 c=64 v=0
37675 Par ch=1 c=64 v=127
37675 Par ch=1 c=64 v=127
37675 Par ch=1 c=64 v=127
37769 On ch=1 n=d6 v=0
37774 On ch=1 n=g6 v=0
37852 On ch=1 n=d6 v=77
37870 Par ch=1 c=64 v=0
37871 Par ch=1 c=64 v=0
37871 Par ch=1 c=64 v=0
38007 Par ch=1 c=64 v=127
38007 Par ch=1 c=64 v=127
38007 Par ch=1 c=64 v=127
38118 On ch=1 n=d6 v=0
38120 On ch=1 n=b5 v=0
38335 On ch=1 n=e6 v=90
38335 On ch=1 n=b6 v=90
38335 On ch=1 n=c#6 v=90
38360 Par ch=1 c=64 v=0
38360 Par ch=1 c=64 v=0
38360 Par ch=1 c=64 v=0
38813 On ch=1 n=a6 v=90
38821 On ch=1 n=b6 v=0
39132 Par ch=1 c=64 v=127
39132 Par ch=1 c=64 v=127
39132 Par ch=1 c=64 v=127
39157 On ch=1 n=a6 v=0
39171 On ch=1 n=c#6 v=0
39171 On ch=1 n=e6 v=0
39293 On ch=1 n=c#6 v=90
39293 On ch=1 n=e6 v=90
39293 On ch=1 n=b6 v=90
39297 Par ch=1 c=64 v=0
39299 Par ch=1 c=64 v=0
39299 Par ch=1 c=64 v=0
39650 Par ch=1 c=64 v=127
39651 Par ch=1 c=64 v=127
39651 Par ch=1 c=64 v=127
39771 On ch=1 n=a6 v=90
39779 On ch=1 n=b6 v=0
39787 Par ch=1 c=64 v=0
39787 Par ch=1 c=64 v=0
39787 Par ch=1 c=64 v=0
39953 Par ch=1 c=64 v=127
39953 Par ch=1 c=64 v=127
39953 Par ch=1 c=64 v=127
40095 On ch=1 n=a6 v=0
40099 On ch=1 n=c#6 v=0
40101 On ch=1 n=e6 v=0
40251 On ch=1 n=c#6 v=97
40251 On ch=1 n=e6 v=97
40251 On ch=1 n=b6 v=97
40265 Par ch=1 c=64 v=0
40265 Par ch=1 c=64 v=0
40265 Par ch=1 c=64 v=0
40738 On ch=1 n=a6 v=100
40740 On ch=1 n=b6 v=0
41653 On ch=1 n=e6 v=0
41715 On ch=1 n=e6 v=104
41719 On ch=1 n=a6 v=0
42094 On ch=1 n=c#6 v=0
42096 On ch=1 n=e6 v=0
42168 On ch=1 n=d7 v=94
42253 On ch=1 n=e7 v=69
42262 On ch=1 n=d7 v=0
42331 On ch=1 n=d7 v=59
42339 On ch=1 n=e7 v=0
42413 On ch=1 n=b6 v=72
42425 On ch=1 n=d7 v=0
42454 On ch=1 n=b6 v=0
42646 On ch=1 n=g6 v=105
42730 On ch=1 n=a6 v=74
42741 On ch=1 n=g6 v=0
42808 On ch=1 n=g6 v=77
42818 On ch=1 n=a6 v=0
42886 On ch=1 n=e6 v=105
42906 On ch=1 n=g6 v=0
42973 On ch=1 n=e6 v=0
43123 On ch=1 n=d6 v=112
43203 On ch=1 n=e6 v=112
43213 On ch=1 n=d6 v=0
43285 On ch=1 n=d6 v=112
43296 On ch=1 n=e6 v=0
43365 On ch=1 n=b5 v=86
43376 On ch=1 n=d6 v=0
43451 On ch=1 n=b5 v=0
43608 On ch=1 n=g5 v=90
43692 On ch=1 n=a5 v=119
43702 On ch=1 n=g5 v=0
43764 On ch=1 n=g5 v=83
43773 On ch=1 n=a5 v=0
43846 On ch=1 n=e5 v=119
43853 On ch=1 n=g5 v=0
43915 On ch=1 n=e5 v=0
44091 On ch=1 n=d7 v=119
44168 On ch=1 n=e7 v=94
44179 On ch=1 n=d7 v=0
44246 On ch=1 n=d7 v=83
44258 On ch=1 n=e7 v=0
44328 On ch=1 n=b6 v=127
44342 On ch=1 n=d7 v=0
44393 On ch=1 n=b6 v=0
44571 On ch=1 n=g6 v=105
44645 On ch=1 n=a6 v=94
44656 On ch=1 n=g6 v=0
44723 On ch=1 n=g6 v=74
44733 On ch=1 n=a6 v=0
44805 On ch=1 n=e6 v=94
44822 On ch=1 n=g6 v=0
44878 On ch=1 n=e6 v=0
45049 On ch=1 n=d6 v=99
45128 On ch=1 n=e6 v=94
45139 On ch=1 n=d6 v=0
45208 On ch=1 n=d6 v=90
45217 On ch=1 n=e6 v=0
45288 On ch=1 n=b5 v=74
45305 On ch=1 n=d6 v=0
45357 On ch=1 n=b5 v=0
45524 On ch=1 n=g5 v=77
45602 On ch=1 n=a5 v=99
45610 On ch=1 n=g5 v=0
45682 On ch=1 n=g5 v=86
45693 On ch=1 n=a5 v=0
45764 On ch=1 n=e5 v=94
45776 On ch=1 n=g5 v=0
45843 On ch=1 n=e5 v=0
46009 On ch=1 n=d5 v=62
46083 On ch=1 n=e5 v=105
46093 On ch=1 n=d5 v=0
46159 On ch=1 n=d5 v=72
46170 On ch=1 n=e5 v=0
46240 On ch=1 n=b4 v=90
46250 On ch=1 n=d5 v=0
46360 On ch=1 n=b4 v=0
46480 On ch=1 n=g4 v=99
46560 On ch=1 n=a4 v=83
46571 On ch=1 n=g4 v=0
46645 On ch=1 n=g4 v=94
46651 On ch=1 n=a4 v=0
46714 On ch=1 n=g4 v=0
46722 On ch=1 n=e4 v=77
46823 On ch=1 n=e4 v=0
46960 On ch=1 n=d4 v=67
47037 On ch=1 n=e4 v=86
47047 On ch=1 n=d4 v=0
47118 On ch=1 n=d4 v=86
47124 On ch=1 n=e4 v=0
47191 On ch=1 n=d4 v=0
47202 On ch=1 n=b3 v=127
47297 On ch=1 n=b3 v=0
47448 On ch=1 n=g3 v=127
47522 On ch=1 n=a3 v=127
47527 On ch=1 n=g3 v=0
47603 On ch=1 n=g3 v=112
47609 On ch=1 n=a3 v=0
47672 On ch=1 n=g3 v=0
47686 On ch=1 n=e3 v=127
47765 On ch=1 n=e3 v=0
47923 On ch=1 n=d3 v=101
48021 On ch=1 n=d3 v=0
48163 On ch=1 n=e3 v=87
48254 On ch=1 n=e3 v=0
48402 On ch=1 n=g3 v=72
48493 On ch=1 n=g3 v=0
48640 On ch=1 n=b3 v=66
48731 On ch=1 n=b3 v=0
48884 On ch=1 n=d4 v=65
48975 On ch=1 n=d4 v=0
49112 On ch=1 n=e4 v=53
49203 On ch=1 n=e4 v=0
49360 On ch=1 n=g4 v=42
49451 On ch=1 n=g4 v=0
49605 On ch=1 n=b4 v=33
49711 On ch=1 n=b4 v=0
49863 On ch=1 n=d5 v=31
50097 On ch=1 n=d5 v=0
50681 Par ch=1 c=64 v=127
50681 Par ch=1 c=64 v=127
50681 Par ch=1 c=64 v=127
50809 Par ch=1 c=64 v=0
50809 Par ch=1 c=64 v=0
50809 Par ch=1 c=64 v=0
50823 On ch=1 n=a#5 v=36
50823 On ch=1 n=d6 v=36
50823 On ch=1 n=d5 v=36
50823 On ch=1 n=f#5 v=36
51179 Par ch=1 c=64 v=127
51179 Par ch=1 c=64 v=127
51179 Par ch=1 c=64 v=127
51254 On ch=1 n=d5 v=0
51254 On ch=1 n=a#5 v=0
51256 On ch=1 n=f#5 v=0
51258 On ch=1 n=d6 v=0
51258 Par ch=1 c=64 v=0
51258 Par ch=1 c=64 v=0
51258 Par ch=1 c=64 v=0
51762 On ch=1 n=g6 v=90
51762 On ch=1 n=b5 v=90
51762 On ch=1 n=d6 v=90
51762 On ch=1 n=g5 v=90
51834 Par ch=1 c=64 v=127
51835 Par ch=1 c=64 v=127
51835 Par ch=1 c=64 v=127
51880 On ch=1 n=d6 v=0
51882 On ch=1 n=b5 v=0
51882 On ch=1 n=g6 v=0
51889 On ch=1 n=g5 v=0
51996 On ch=1 n=f#5 v=77
52011 Par ch=1 c=64 v=0
52011 Par ch=1 c=64 v=0
52011 Par ch=1 c=64 v=0
52085 On ch=1 n=g5 v=90
52093 On ch=1 n=f#5 v=0
52160 On ch=1 n=f#5 v=117
52168 On ch=1 n=g5 v=0
52244 On ch=1 n=e5 v=127
52251 On ch=1 n=f#5 v=0
52424 On ch=1 n=e5 v=0
52496 On ch=1 n=d5 v=127
52570 On ch=1 n=e5 v=127
52578 On ch=1 n=d5 v=0
52647 On ch=1 n=d5 v=127
52656 On ch=1 n=e5 v=0
52724 On ch=1 n=d5 v=0
52726 On ch=1 n=b4 v=127
52808 On ch=1 n=b4 v=0
52881 Par ch=1 c=64 v=127
52881 Par ch=1 c=64 v=127
52881 Par ch=1 c=64 v=127
52971 On ch=1 n=d5 v=127
52989 Par ch=1 c=64 v=0
52989 Par ch=1 c=64 v=0
52989 Par ch=1 c=64 v=0
53058 On ch=1 n=d5 v=0
53094 Par ch=1 c=64 v=127
53096 Par ch=1 c=64 v=127
53096 Par ch=1 c=64 v=127
53213 Par ch=1 c=64 v=0
53213 Par ch=1 c=64 v=0
53213 Par ch=1 c=64 v=0
53222 On ch=1 n=e5 v=118
53546 Par ch=1 c=64 v=127
53546 Par ch=1 c=64 v=127
53546 Par ch=1 c=64 v=127
53692 Par ch=1 c=64 v=0
53693 Par ch=1 c=64 v=0
53693 Par ch=1 c=64 v=0
53920 On ch=1 n=e5 v=0
53927 On ch=1 n=a5 v=105
54099 On ch=1 n=a5 v=0
54162 On ch=1 n=c6 v=127
54317 On ch=1 n=c6 v=0
54396 On ch=1 n=e6 v=127
54493 Par ch=1 c=64 v=127
54495 Par ch=1 c=64 v=127
54495 Par ch=1 c=64 v=127
54519 On ch=1 n=e6 v=0
54601 Par ch=1 c=64 v=0
54601 Par ch=1 c=64 v=0
54601 Par ch=1 c=64 v=0
54643 On ch=1 n=f#5 v=119
54709 Par ch=1 c=64 v=127
54709 Par ch=1 c=64 v=127
54709 Par ch=1 c=64 v=127
54746 On ch=1 n=f#5 v=0
54884 On ch=1 n=a5 v=83
54905 Par ch=1 c=64 v=0
54905 Par ch=1 c=64 v=0
54905 Par ch=1 c=64 v=0
55024 On ch=1 n=a5 v=0
55117 On ch=1 n=d6 v=127
55263 On ch=1 n=d6 v=0
55364 On ch=1 n=f#6 v=127
55403 Par ch=1 c=64 v=127
55403 Par ch=1 c=64 v=127
55403 Par ch=1 c=64 v=127
55420 On ch=1 n=f#6 v=0
55540 Par ch=1 c=64 v=0
55540 Par ch=1 c=64 v=0
55540 Par ch=1 c=64 v=0
55600 On ch=1 n=b5 v=95
55600 On ch=1 n=d6 v=95
55600 On ch=1 n=g5 v=95
55600 On ch=1 n=g6 v=95
55667 Par ch=1 c=64 v=127
55667 Par ch=1 c=64 v=127
55667 Par ch=1 c=64 v=127
55690 On ch=1 n=d6 v=0
55693 On ch=1 n=b5 v=0
55695 On ch=1 n=g6 v=0
55701 On ch=1 n=g5 v=0
55853 On ch=1 n=f#5 v=127
55863 Par ch=1 c=64 v=0
55863 Par ch=1 c=64 v=0
55863 Par ch=1 c=64 v=0
55932 On ch=1 n=g5 v=127
55940 On ch=1 n=f#5 v=0
56005 On ch=1 n=f#5 v=127
56013 On ch=1 n=g5 v=0
56084 On ch=1 n=e5 v=127
56096 On ch=1 n=f#5 v=0
56194 Par ch=1 c=64 v=127
56195 Par ch=1 c=64 v=127
56195 Par ch=1 c=64 v=127
56219 On ch=1 n=e5 v=0
56224 Par ch=1 c=64 v=0
56224 Par ch=1 c=64 v=0
56224 Par ch=1 c=64 v=0
56325 On ch=1 n=d5 v=119
56400 On ch=1 n=e5 v=119
56407 On ch=1 n=d5 v=0
56475 On ch=1 n=d5 v=119
56483 On ch=1 n=e5 v=0
56561 On ch=1 n=d5 v=0
56561 On ch=1 n=b4 v=119
56712 On ch=1 n=b4 v=0
56810 On ch=1 n=d5 v=119
56905 On ch=1 n=d5 v=0
57049 On ch=1 n=e5 v=127
57690 Par ch=1 c=64 v=127
57690 Par ch=1 c=64 v=127
57691 Par ch=1 c=64 v=127
57729 On ch=1 n=e5 v=0
57770 On ch=1 n=a5 v=77
57778 Par ch=1 c=64 v=0
57778 Par ch=1 c=64 v=0
57779 Par ch=1 c=64 v=0
57885 Par ch=1 c=64 v=127
57886 Par ch=1 c=64 v=127
57886 Par ch=1 c=64 v=127
57910 On ch=1 n=a5 v=0
57935 Par ch=1 c=64 v=0
57935 Par ch=1 c=64 v=0
57935 Par ch=1 c=64 v=0
58004 On ch=1 n=c6 v=127
58090 Par ch=1 c=64 v=127
58092 Par ch=1 c=64 v=127
58092 Par ch=1 c=64 v=127
58103 On ch=1 n=c6 v=0
58160 Par ch=1 c=64 v=0
58160 Par ch=1 c=64 v=0
58160 Par ch=1 c=64 v=0
58235 On ch=1 n=e6 v=127
58472 On ch=1 n=e6 v=0
58723 On ch=1 n=a5 v=90
58861 On ch=1 n=a5 v=0
58957 On ch=1 n=e6 v=127
59104 On ch=1 n=e6 v=0
59199 On ch=1 n=f#6 v=127
59242 Par ch=1 c=64 v=127
59242 Par ch=1 c=64 v=127
59242 Par ch=1 c=64 v=127
59268 On ch=1 n=f#6 v=0
59339 Par ch=1 c=64 v=0
59339 Par ch=1 c=64 v=0
59341 Par ch=1 c=64 v=0
59445 On ch=1 n=f#6 v=119
59445 On ch=1 n=b5 v=67
59446 On ch=1 n=b6 v=99
59446 On ch=1 n=d#6 v=99
59535 Par ch=1 c=64 v=127
59535 Par ch=1 c=64 v=127
59535 Par ch=1 c=64 v=127
59572 On ch=1 n=f#6 v=0
59573 On ch=1 n=b5 v=0
59578 On ch=1 n=d#6 v=0
59594 On ch=1 n=b6 v=0
59684 On ch=1 n=a#6 v=127
59691 Par ch=1 c=64 v=0
59691 Par ch=1 c=64 v=0
59691 Par ch=1 c=64 v=0
59765 On ch=1 n=b6 v=127
59775 On ch=1 n=a#6 v=0
59842 On ch=1 n=a#6 v=127
59852 On ch=1 n=b6 v=0
59924 On ch=1 n=g#6 v=127
59938 On ch=1 n=a#6 v=0
59984 Par ch=1 c=64 v=127
59984 Par ch=1 c=64 v=127
59984 Par ch=1 c=64 v=127
60008 On ch=1 n=g#6 v=0
60141 Par ch=1 c=64 v=0
60141 Par ch=1 c=64 v=0
60141 Par ch=1 c=64 v=0
60155 On ch=1 n=f#6 v=108
60236 On ch=1 n=g#6 v=108
60247 On ch=1 n=f#6 v=0
60314 On ch=1 n=f#6 v=108
60328 On ch=1 n=g#6 v=0
60394 On ch=1 n=f#6 v=0
60400 On ch=1 n=d#6 v=127
60566 On ch=1 n=d#6 v=0
60640 On ch=1 n=f#6 v=127
60678 Par ch=1 c=64 v=127
60678 Par ch=1 c=64 v=127
60678 Par ch=1 c=64 v=127
60703 On ch=1 n=f#6 v=0
60757 Par ch=1 c=64 v=0
60757 Par ch=1 c=64 v=0
60757 Par ch=1 c=64 v=0
60881 On ch=1 n=g#6 v=96
60881 On ch=1 n=d#6 v=96
60881 On ch=1 n=b5 v=96
61191 On ch=1 n=b5 v=0
61191 On ch=1 n=d#6 v=0
61191 On ch=1 n=g#6 v=0
61363 On ch=1 n=d#6 v=119
61363 On ch=1 n=f#6 v=119
61363 On ch=1 n=b6 v=119
61481 Par ch=1 c=64 v=127
61481 Par ch=1 c=64 v=127
61481 Par ch=1 c=64 v=127
61502 On ch=1 n=f#6 v=0
61507 On ch=1 n=d#6 v=0
61517 On ch=1 n=b6 v=0
61607 Par ch=1 c=64 v=0
61608 Par ch=1 c=64 v=0
61608 Par ch=1 c=64 v=0
61608 On ch=1 n=a#6 v=127
61690 On ch=1 n=b6 v=127
61701 On ch=1 n=a#6 v=0
61760 On ch=1 n=a#6 v=127
61770 On ch=1 n=b6 v=0
61841 On ch=1 n=g#6 v=127
61855 On ch=1 n=a#6 v=0
61940 On ch=1 n=g#6 v=0
62080 On ch=1 n=f#6 v=127
62157 On ch=1 n=g#6 v=127
62168 On ch=1 n=f#6 v=0
62232 On ch=1 n=f#6 v=127
62242 On ch=1 n=g#6 v=0
62309 On ch=1 n=f#6 v=0
62316 On ch=1 n=d#6 v=127
62447 On ch=1 n=d#6 v=0
62567 On ch=1 n=f#6 v=127
62634 Par ch=1 c=64 v=127
62634 Par ch=1 c=64 v=127
62634 Par ch=1 c=64 v=127
62650 On ch=1 n=f#6 v=0
62703 Par ch=1 c=64 v=0
62703 Par ch=1 c=64 v=0
62703 Par ch=1 c=64 v=0
62795 On ch=1 n=g#6 v=127
62795 On ch=1 n=b5 v=103
62795 On ch=1 n=d#6 v=103
63024 Par ch=1 c=64 v=127
63026 Par ch=1 c=64 v=127
63026 Par ch=1 c=64 v=127
63056 On ch=1 n=d#6 v=0
63056 On ch=1 n=b5 v=0
63056 On ch=1 n=g#6 v=0
63221 Par ch=1 c=64 v=0
63221 Par ch=1 c=64 v=0
63221 Par ch=1 c=64 v=0
63280 On ch=1 n=f#6 v=103
63280 On ch=1 n=d#6 v=103
63280 On ch=1 n=b6 v=94
63576 On ch=1 n=b6 v=0
63576 On ch=1 n=d#6 v=0
63576 On ch=1 n=f#6 v=0
63769 On ch=1 n=f#6 v=90
63769 On ch=1 n=d#6 v=90
63769 On ch=1 n=b6 v=90
63979 On ch=1 n=b6 v=0
63979 On ch=1 n=d#6 v=0
63979 On ch=1 n=f#6 v=0
64728 On ch=1 n=e6 v=72
64728 On ch=1 n=c6 v=72
64728 On ch=1 n=c7 v=72
64728 On ch=1 n=a6 v=72
64965 On ch=1 n=a6 v=0
64965 On ch=1 n=c7 v=0
64965 On ch=1 n=c6 v=0
64965 On ch=1 n=e6 v=0
94002 On ch=1 n=e6 v=54
94097 On ch=1 n=e6 v=0
94097 Meta TrkEnd
TrkEnd
MTrk
0 SeqSpec 43 00 01 00
0 Meta TrkName "new"
0 Meta 0x21 00
0 Meta 0x20 01
0 Par ch=2 c=7 v=127
0 Par ch=2 c=10 v=64
0 PrCh ch=2 p=0
5 On ch=2 n=f#5 v=41
5 On ch=2 n=d5 v=41
5 On ch=2 n=c5 v=41
1686 Par ch=2 c=64 v=127
1686 Par ch=2 c=64 v=127
1687 Par ch=2 c=64 v=127
1782 On ch=2 n=c5 v=0
1782 On ch=2 n=d5 v=0
1782 On ch=2 n=f#5 v=0
1862 Par ch=2 c=64 v=0
1862 Par ch=2 c=64 v=0
1863 Par ch=2 c=64 v=0
1914 On ch=2 n=b4 v=38
1915 On ch=2 n=d5 v=38
1915 On ch=2 n=f#5 v=38
1990 Par ch=2 c=64 v=127
1990 Par ch=2 c=64 v=127
1990 Par ch=2 c=64 v=127
3707 On ch=2 n=b4 v=0
3722 On ch=2 n=f#5 v=0
3728 On ch=2 n=d5 v=0
3770 Par ch=2 c=64 v=0
3770 Par ch=2 c=64 v=0
3770 Par ch=2 c=64 v=0
3833 On ch=2 n=d5 v=33
3833 On ch=2 n=a4 v=33
3833 On ch=2 n=f#5 v=33
3935 Par ch=2 c=64 v=127
3935 Par ch=2 c=64 v=127
3935 Par ch=2 c=64 v=127
4239 Par ch=2 c=64 v=0
4239 Par ch=2 c=64 v=0
4239 Par ch=2 c=64 v=0
4278 Par ch=2 c=64 v=127
4278 Par ch=2 c=64 v=127
4278 Par ch=2 c=64 v=127
4757 Par ch=2 c=64 v=0
4757 Par ch=2 c=64 v=0
4757 Par ch=2 c=64 v=0
4776 Par ch=2 c=64 v=127
4776 Par ch=2 c=64 v=127
4776 Par ch=2 c=64 v=127
5571 On ch=2 n=f#5 v=0
5571 On ch=2 n=a4 v=0
5571 On ch=2 n=d5 v=0
5676 Par ch=2 c=64 v=0
5676 Par ch=2 c=64 v=0
5676 Par ch=2 c=64 v=0
5761 On ch=2 n=d4 v=39
5851 Par ch=2 c=64 v=127
5851 Par ch=2 c=64 v=127
5851 Par ch=2 c=64 v=127
7572 On ch=2 n=d4 v=0
7572 Par ch=2 c=64 v=0
7572 Par ch=2 c=64 v=0
7572 Par ch=2 c=64 v=0
7683 On ch=2 n=b4 v=37
7683 On ch=2 n=d4 v=37
7683 On ch=2 n=g3 v=37
8563 On ch=2 n=g3 v=0
8566 On ch=2 n=d4 v=0
8574 On ch=2 n=b4 v=0
9121 On ch=2 n=g4 v=46
9124 On ch=2 n=c4 v=39
9375 On ch=2 n=c4 v=0
9380 On ch=2 n=g4 v=0
9601 On ch=2 n=d4 v=40
9601 On ch=2 n=g3 v=40
9601 On ch=2 n=b4 v=40
10454 On ch=2 n=g3 v=0
10457 On ch=2 n=d4 v=0
10461 On ch=2 n=b4 v=0
11039 On ch=2 n=c4 v=44
11039 On ch=2 n=g4 v=49
11336 On ch=2 n=c4 v=0
11339 On ch=2 n=g4 v=0
11523 On ch=2 n=g4 v=40
11526 On ch=2 n=b3 v=39
11819 On ch=2 n=b3 v=0
11824 On ch=2 n=g4 v=0
11991 On ch=2 n=g4 v=41
11994 On ch=2 n=c4 v=42
12304 On ch=2 n=c4 v=0
12308 On ch=2 n=g4 v=0
12485 On ch=2 n=g4 v=48
12490 On ch=2 n=b3 v=51
12849 On ch=2 n=b3 v=0
12855 On ch=2 n=g4 v=0
12953 On ch=2 n=g4 v=42
12957 On ch=2 n=c4 v=46
13304 On ch=2 n=c4 v=0
13304 On ch=2 n=g4 v=0
13437 On ch=2 n=a4 v=43
13437 On ch=2 n=g4 v=41
13438 On ch=2 n=c#4 v=54
13700 Par ch=2 c=64 v=127
13702 Par ch=2 c=64 v=127
13702 Par ch=2 c=64 v=127
13780 On ch=2 n=g4 v=0
13780 On ch=2 n=a4 v=0
13787 On ch=2 n=c#4 v=0
13912 On ch=2 n=f#5 v=46
13913 On ch=2 n=c5 v=42
13915 On ch=2 n=d4 v=51
13927 Par ch=2 c=64 v=0
13927 Par ch=2 c=64 v=0
13927 Par ch=2 c=64 v=0
14229 Par ch=2 c=64 v=127
14229 Par ch=2 c=64 v=127
14230 Par ch=2 c=64 v=127
14247 On ch=2 n=d4 v=0
14247 On ch=2 n=c5 v=0
14253 On ch=2 n=f#5 v=0
14400 On ch=2 n=a5 v=55
14400 On ch=2 n=c6 v=62
14400 On ch=2 n=d5 v=52
14414 Par ch=2 c=64 v=0
14415 Par ch=2 c=64 v=0
14415 Par ch=2 c=64 v=0
14786 Par ch=2 c=64 v=127
14786 Par ch=2 c=64 v=127
14787 Par ch=2 c=64 v=127
14842 On ch=2 n=d5 v=0
14842 On ch=2 n=a5 v=0
14846 On ch=2 n=c6 v=0
14923 Par ch=2 c=64 v=0
14923 Par ch=2 c=64 v=0
14923 Par ch=2 c=64 v=0
15365 On ch=2 n=b4 v=37
15368 On ch=2 n=d4 v=23
15369 On ch=2 n=g3 v=23
16091 On ch=2 n=g3 v=0
16091 On ch=2 n=d4 v=0
16091 On ch=2 n=b4 v=0
16799 On ch=2 n=g4 v=37
16799 On ch=2 n=c4 v=39
17125 On ch=2 n=c4 v=0
17129 On ch=2 n=g4 v=0
17287 On ch=2 n=g3 v=29
17287 On ch=2 n=b4 v=40
17290 On ch=2 n=d4 v=25
18035 On ch=2 n=b4 v=0
18035 On ch=2 n=g3 v=0
18036 On ch=2 n=d4 v=0
18721 On ch=2 n=g4 v=38
18723 On ch=2 n=c4 v=37
19000 Par ch=2 c=64 v=127
19000 Par ch=2 c=64 v=127
19000 Par ch=2 c=64 v=127
19072 On ch=2 n=c4 v=0
19075 On ch=2 n=g4 v=0
19098 Par ch=2 c=64 v=0
19098 Par ch=2 c=64 v=0
19098 Par ch=2 c=64 v=0
19200 On ch=2 n=g4 v=47
19201 On ch=2 n=b3 v=46
19564 On ch=2 n=b3 v=0
19566 On ch=2 n=g4 v=0
19675 On ch=2 n=g4 v=48
19677 On ch=2 n=c4 v=41
19977 On ch=2 n=c4 v=0
19979 On ch=2 n=g4 v=0
20163 On ch=2 n=c#4 v=34
20166 On ch=2 n=g4 v=57
20166 On ch=2 n=a4 v=64
20642 Par ch=2 c=64 v=127
20643 Par ch=2 c=64 v=127
20643 Par ch=2 c=64 v=127
20705 On ch=2 n=c#4 v=0
20722 On ch=2 n=a4 v=0
20722 On ch=2 n=g4 v=0
20779 Par ch=2 c=64 v=0
20779 Par ch=2 c=64 v=0
20779 Par ch=2 c=64 v=0
21120 On ch=2 n=g4 v=43
21123 On ch=2 n=b3 v=46
21389 On ch=2 n=b3 v=0
21394 On ch=2 n=g4 v=0
21599 On ch=2 n=g4 v=46
21602 On ch=2 n=c4 v=54
21845 On ch=2 n=c4 v=0
21860 On ch=2 n=g4 v=0
22080 On ch=2 n=c#4 v=36
22080 On ch=2 n=g4 v=57
22080 On ch=2 n=a4 v=62
22213 Par ch=2 c=64 v=127
22213 Par ch=2 c=64 v=127
22213 Par ch=2 c=64 v=127
22647 On ch=2 n=c#4 v=0
22670 On ch=2 n=g4 v=0
22672 On ch=2 n=a4 v=0
22740 Par ch=2 c=64 v=0
22740 Par ch=2 c=64 v=0
22740 Par ch=2 c=64 v=0
23035 On ch=2 n=d6 v=53
23035 On ch=2 n=a5 v=44
23036 On ch=2 n=f#5 v=40
23152 Par ch=2 c=64 v=127
23152 Par ch=2 c=64 v=127
23152 Par ch=2 c=64 v=127
23283 On ch=2 n=f#5 v=0
23294 On ch=2 n=a5 v=0
23318 On ch=2 n=d6 v=0
23464 Par ch=2 c=64 v=0
23464 Par ch=2 c=64 v=0
23464 Par ch=2 c=64 v=0
23511 On ch=2 n=g5 v=43
23511 On ch=2 n=b5 v=46
23513 On ch=2 n=e5 v=30
23516 On ch=2 n=d5 v=28
23524 On ch=2 n=d5 v=0
23758 Par ch=2 c=64 v=127
23758 Par ch=2 c=64 v=127
23758 Par ch=2 c=64 v=127
23816 On ch=2 n=e5 v=0
23824 On ch=2 n=b5 v=0
23829 On ch=2 n=g5 v=0
23885 Par ch=2 c=64 v=0
23885 Par ch=2 c=64 v=0
23885 Par ch=2 c=64 v=0
23996 On ch=2 n=d5 v=49
23998 On ch=2 n=a4 v=43
23998 On ch=2 n=f#4 v=41
24110 Par ch=2 c=64 v=127
24110 Par ch=2 c=64 v=127
24110 Par ch=2 c=64 v=127
24160 On ch=2 n=f#4 v=0
24192 On ch=2 n=a4 v=0
24201 On ch=2 n=d5 v=0
24394 Par ch=2 c=64 v=0
24394 Par ch=2 c=64 v=0
24394 Par ch=2 c=64 v=0
24475 On ch=2 n=b4 v=50
24475 On ch=2 n=g4 v=39
24479 On ch=2 n=e4 v=40
24579 Par ch=2 c=64 v=127
24579 Par ch=2 c=64 v=127
24579 Par ch=2 c=64 v=127
24674 On ch=2 n=b4 v=0
24703 On ch=2 n=g4 v=0
24709 On ch=2 n=e4 v=0
24843 Par ch=2 c=64 v=0
24843 Par ch=2 c=64 v=0
24843 Par ch=2 c=64 v=0
24955 On ch=2 n=f#4 v=28
24960 On ch=2 n=a3 v=34
25442 On ch=2 n=g4 v=49
25453 On ch=2 n=f#4 v=0
25675 On ch=2 n=a4 v=43
25686 On ch=2 n=g4 v=0
25913 On ch=2 n=f#4 v=37
25924 On ch=2 n=a4 v=0
26096 On ch=2 n=f#4 v=0
26099 On ch=2 n=a3 v=0
26164 On ch=2 n=d4 v=81
26269 On ch=2 n=d4 v=0
26394 On ch=2 n=a3 v=75
26499 On ch=2 n=a3 v=0
26637 On ch=2 n=d3 v=72
26736 On ch=2 n=d3 v=0
26884 On ch=2 n=a2 v=68
26884 On ch=2 n=a3 v=68
27179 Par ch=2 c=64 v=127
27179 Par ch=2 c=64 v=127
27179 Par ch=2 c=64 v=127
27229 On ch=2 n=a2 v=0
27252 On ch=2 n=a3 v=0
27357 On ch=2 n=e4 v=51
27361 On ch=2 n=a3 v=23
27375 Par ch=2 c=64 v=0
27375 Par ch=2 c=64 v=0
27375 Par ch=2 c=64 v=0
27617 Par ch=2 c=64 v=127
27620 Par ch=2 c=64 v=127
27620 Par ch=2 c=64 v=127
27854 Par ch=2 c=64 v=0
27854 Par ch=2 c=64 v=0
27854 Par ch=2 c=64 v=0
28165 On ch=2 n=a3 v=0
28170 On ch=2 n=e4 v=0
28799 On ch=2 n=d4 v=52
28800 On ch=2 n=d3 v=47
28908 Par ch=2 c=64 v=127
28908 Par ch=2 c=64 v=127
28910 Par ch=2 c=64 v=127
29303 On ch=2 n=d4 v=0
29304 On ch=2 n=d3 v=0
29340 Par ch=2 c=64 v=0
29340 Par ch=2 c=64 v=0
29340 Par ch=2 c=64 v=0
29753 On ch=2 n=g3 v=59
29753 On ch=2 n=g2 v=45
29809 Par ch=2 c=64 v=127
29809 Par ch=2 c=64 v=127
29809 Par ch=2 c=64 v=127
30171 On ch=2 n=g2 v=0
30172 On ch=2 n=g3 v=0
30233 On ch=2 n=d4 v=36
30236 On ch=2 n=b4 v=43
30236 On ch=2 n=d5 v=49
30236 On ch=2 n=g4 v=40
30246 Par ch=2 c=64 v=0
30246 Par ch=2 c=64 v=0
30246 Par ch=2 c=64 v=0
30594 On ch=2 n=d5 v=0
30595 On ch=2 n=g4 v=0
30595 On ch=2 n=b4 v=0
30597 On ch=2 n=d4 v=0
30714 On ch=2 n=a3 v=69
30715 On ch=2 n=a2 v=69
31180 On ch=2 n=a3 v=0
31185 On ch=2 n=a2 v=0
31208 On ch=2 n=e4 v=67
31212 On ch=2 n=a3 v=40
32226 On ch=2 n=a3 v=0
32237 On ch=2 n=e4 v=0
32639 On ch=2 n=d4 v=50
32640 On ch=2 n=d3 v=40
33150 Par ch=2 c=64 v=127
33150 Par ch=2 c=64 v=127
33150 Par ch=2 c=64 v=127
33281 On ch=2 n=d4 v=0
33285 On ch=2 n=d3 v=0
33592 On ch=2 n=g3 v=45
33593 On ch=2 n=g2 v=49
33609 Par ch=2 c=64 v=0
33609 Par ch=2 c=64 v=0
33609 Par ch=2 c=64 v=0
33932 Par ch=2 c=64 v=127
33932 Par ch=2 c=64 v=127
33932 Par ch=2 c=64 v=127
34017 On ch=2 n=g2 v=0
34018 On ch=2 n=g3 v=0
34067 On ch=2 n=d4 v=36
34069 On ch=2 n=g4 v=40
34069 On ch=2 n=b4 v=39
34069 On ch=2 n=d5 v=42
34078 Par ch=2 c=64 v=0
34078 Par ch=2 c=64 v=0
34078 Par ch=2 c=64 v=0
34214 Par ch=2 c=64 v=127
34214 Par ch=2 c=64 v=127
34214 Par ch=2 c=64 v=127
34241 On ch=2 n=d4 v=0
34243 On ch=2 n=g4 v=0
34245 On ch=2 n=b4 v=0
34253 On ch=2 n=d5 v=0
34498 Par ch=2 c=64 v=0
34498 Par ch=2 c=64 v=0
34499 Par ch=2 c=64 v=0
34560 On ch=2 n=f5 v=112
34637 On ch=2 n=g5 v=66
34645 On ch=2 n=f5 v=0
34715 On ch=2 n=f5 v=57
34724 On ch=2 n=g5 v=0
34794 On ch=2 n=d5 v=57
34806 On ch=2 n=f5 v=0
34842 On ch=2 n=d5 v=0
35039 On ch=2 n=f5 v=61
35234 On ch=2 n=f5 v=0
35279 On ch=2 n=e5 v=53
35406 On ch=2 n=e5 v=0
35524 On ch=2 n=f5 v=79
35599 On ch=2 n=g5 v=67
35617 On ch=2 n=f5 v=0
35678 On ch=2 n=f5 v=66
35690 On ch=2 n=g5 v=0
35757 On ch=2 n=d5 v=57
35767 On ch=2 n=f5 v=0
35802 On ch=2 n=d5 v=0
35994 On ch=2 n=f5 v=83
36189 On ch=2 n=f5 v=0
36235 On ch=2 n=e5 v=58
36398 On ch=2 n=e5 v=0
36472 On ch=2 n=f5 v=74
36556 On ch=2 n=g5 v=72
36570 On ch=2 n=f5 v=0
36633 On ch=2 n=f5 v=74
36643 On ch=2 n=g5 v=0
36715 On ch=2 n=d5 v=72
36725 On ch=2 n=f5 v=0
36801 On ch=2 n=d5 v=0
36946 On ch=2 n=f5 v=64
37069 On ch=2 n=f5 v=0
37183 On ch=2 n=e5 v=57
37293 On ch=2 n=e5 v=0
37426 On ch=2 n=f5 v=83
37513 On ch=2 n=f5 v=0
37676 On ch=2 n=d5 v=64
37734 On ch=2 n=d5 v=0
37914 On ch=2 n=e5 v=99
37987 On ch=2 n=e5 v=0
38159 On ch=2 n=f5 v=77
38271 On ch=2 n=f5 v=0
38401 On ch=2 n=g5 v=64
38477 On ch=2 n=a5 v=77
38495 On ch=2 n=g5 v=0
38557 On ch=2 n=g5 v=67
38565 On ch=2 n=a5 v=0
38639 On ch=2 n=e5 v=66
38649 On ch=2 n=g5 v=0
38729 On ch=2 n=e5 v=0
38864 On ch=2 n=g5 v=79
38997 On ch=2 n=g5 v=0
39115 On ch=2 n=f#5 v=86
39200 On ch=2 n=f#5 v=0
39360 On ch=2 n=g5 v=79
39441 On ch=2 n=a5 v=90
39456 On ch=2 n=g5 v=0
39512 On ch=2 n=g5 v=77
39523 On ch=2 n=a5 v=0
39593 On ch=2 n=e5 v=90
39604 On ch=2 n=g5 v=0
39695 On ch=2 n=e5 v=0
39827 On ch=2 n=g5 v=86
39958 On ch=2 n=g5 v=0
40069 On ch=2 n=f#5 v=127
40208 On ch=2 n=f#5 v=0
40315 On ch=2 n=g5 v=119
40396 On ch=2 n=a5 v=74
40407 On ch=2 n=g5 v=0
40469 On ch=2 n=g5 v=83
40479 On ch=2 n=a5 v=0
40551 On ch=2 n=e5 v=69
40560 On ch=2 n=g5 v=0
40675 On ch=2 n=e5 v=0
40785 On ch=2 n=g5 v=112
40925 On ch=2 n=g5 v=0
41034 On ch=2 n=f#5 v=112
41166 On ch=2 n=f#5 v=0
41266 On ch=2 n=g5 v=127
41437 On ch=2 n=g5 v=0
41513 On ch=2 n=a5 v=105
41672 On ch=2 n=a5 v=0
41754 On ch=2 n=b5 v=99
41954 Par ch=2 c=64 v=127
41954 Par ch=2 c=64 v=127
41954 Par ch=2 c=64 v=127
41956 On ch=2 n=b5 v=0
41973 Par ch=2 c=64 v=0
41974 Par ch=2 c=64 v=0
41974 Par ch=2 c=64 v=0
42004 On ch=2 n=c#6 v=127
42081 Par ch=2 c=64 v=127
42082 Par ch=2 c=64 v=127
42082 Par ch=2 c=64 v=127
42100 On ch=2 n=c#6 v=0
42229 On ch=2 n=d5 v=77
42229 On ch=2 n=d6 v=90
42229 On ch=2 n=g5 v=86
42229 On ch=2 n=b5 v=99
42237 Par ch=2 c=64 v=0
42237 Par ch=2 c=64 v=0
42239 Par ch=2 c=64 v=0
42472 Par ch=2 c=64 v=127
42472 Par ch=2 c=64 v=127
42472 Par ch=2 c=64 v=127
42580 Par ch=2 c=64 v=0
42580 Par ch=2 c=64 v=0
42580 Par ch=2 c=64 v=0
42709 On ch=2 n=b5 v=0
42709 On ch=2 n=g5 v=0
42709 On ch=2 n=d6 v=0
42709 On ch=2 n=d5 v=0
43671 On ch=2 n=d4 v=59
43671 On ch=2 n=g4 v=59
43671 On ch=2 n=a4 v=59
43671 On ch=2 n=c5 v=59
44026 Par ch=2 c=64 v=0
44027 Par ch=2 c=64 v=0
44027 Par ch=2 c=64 v=0
44151 On ch=2 n=c5 v=0
44151 On ch=2 n=a4 v=0
44151 On ch=2 n=g4 v=0
44151 On ch=2 n=d4 v=0
44151 On ch=2 n=b5 v=50
44151 On ch=2 n=d6 v=58
44151 On ch=2 n=d5 v=45
44151 On ch=2 n=g5 v=51
44631 On ch=2 n=g5 v=0
44631 On ch=2 n=d5 v=0
44631 On ch=2 n=d6 v=0
44631 On ch=2 n=b5 v=0
45585 On ch=2 n=d4 v=33
45585 On ch=2 n=c5 v=43
45585 On ch=2 n=a4 v=43
45585 On ch=2 n=g4 v=34
46000 On ch=2 n=g4 v=0
46000 On ch=2 n=a4 v=0
46000 On ch=2 n=c5 v=0
46000 On ch=2 n=d4 v=0
50889 On ch=2 n=d4 v=35
50889 On ch=2 n=c5 v=35
51389 On ch=2 n=c5 v=0
51389 On ch=2 n=d4 v=0
51832 On ch=2 n=g2 v=105
51832 On ch=2 n=g3 v=105
52315 Par ch=2 c=64 v=127
52317 Par ch=2 c=64 v=127
52317 Par ch=2 c=64 v=127
52320 On ch=2 n=g3 v=0
52320 On ch=2 n=g2 v=0
52492 Par ch=2 c=64 v=0
52493 Par ch=2 c=64 v=0
52493 Par ch=2 c=64 v=0
52791 On ch=2 n=g4 v=65
52791 On ch=2 n=d4 v=65
52922 Par ch=2 c=64 v=127
52922 Par ch=2 c=64 v=127
52923 Par ch=2 c=64 v=127
53295 Par ch=2 c=64 v=0
53295 Par ch=2 c=64 v=0
53295 Par ch=2 c=64 v=0
53607 Par ch=2 c=64 v=127
53607 Par ch=2 c=64 v=127
53607 Par ch=2 c=64 v=127
53756 On ch=2 n=c5 v=50
53756 On ch=2 n=g4 v=50
53756 On ch=2 n=a4 v=50
53773 Par ch=2 c=64 v=0
53773 Par ch=2 c=64 v=0
53773 Par ch=2 c=64 v=0
54222 Par ch=2 c=64 v=127
54222 Par ch=2 c=64 v=127
54222 Par ch=2 c=64 v=127
54453 On ch=2 n=g4 v=0
54636 On ch=2 n=a4 v=0
54636 On ch=2 n=g4 v=0
54636 On ch=2 n=c5 v=0
54646 On ch=2 n=d4 v=0
54708 On ch=2 n=a4 v=45
54708 On ch=2 n=c5 v=45
54708 On ch=2 n=d5 v=45
54731 Par ch=2 c=64 v=0
54731 Par ch=2 c=64 v=0
54731 Par ch=2 c=64 v=0
55533 Par ch=2 c=64 v=127
55533 Par ch=2 c=64 v=127
55533 Par ch=2 c=64 v=127
55600 On ch=2 n=d5 v=0
55600 On ch=2 n=c5 v=0
55600 On ch=2 n=a4 v=0
55674 On ch=2 n=g3 v=70
55674 On ch=2 n=g2 v=70
55690 Par ch=2 c=64 v=0
55690 Par ch=2 c=64 v=0
55690 Par ch=2 c=64 v=0
56159 Par ch=2 c=64 v=127
56159 Par ch=2 c=64 v=127
56159 Par ch=2 c=64 v=127
56314 On ch=2 n=g2 v=0
56314 On ch=2 n=g3 v=0
56635 On ch=2 n=d4 v=72
56635 On ch=2 n=g4 v=72
56667 Par ch=2 c=64 v=0
56667 Par ch=2 c=64 v=0
56667 Par ch=2 c=64 v=0
57479 Par ch=2 c=64 v=127
57479 Par ch=2 c=64 v=127
57479 Par ch=2 c=64 v=127
57591 On ch=2 n=c5 v=53
57591 On ch=2 n=a4 v=53
57605 Par ch=2 c=64 v=0
57605 Par ch=2 c=64 v=0
57605 Par ch=2 c=64 v=0
58071 On ch=2 n=a4 v=0
58071 On ch=2 n=c5 v=0
58260 Par ch=2 c=64 v=127
58260 Par ch=2 c=64 v=127
58261 Par ch=2 c=64 v=127
58315 On ch=2 n=g4 v=0
58315 On ch=2 n=d4 v=0
58546 On ch=2 n=c5 v=58
58546 On ch=2 n=a4 v=58
58546 On ch=2 n=d5 v=58
58563 Par ch=2 c=64 v=0
58563 Par ch=2 c=64 v=0
58563 Par ch=2 c=64 v=0
59051 Par ch=2 c=64 v=127
59051 Par ch=2 c=64 v=127
59053 Par ch=2 c=64 v=127
59132 On ch=2 n=d5 v=0
59132 On ch=2 n=a4 v=0
59132 On ch=2 n=c5 v=0
59443 Par ch=2 c=64 v=0
59443 Par ch=2 c=64 v=0
59443 Par ch=2 c=64 v=0
59513 On ch=2 n=f#5 v=50
59513 On ch=2 n=d#5 v=50
59514 On ch=2 n=b4 v=50
60084 On ch=2 n=d#5 v=0
60084 On ch=2 n=f#5 v=0
60085 On ch=2 n=b4 v=0
60950 On ch=2 n=d#5 v=64
60950 On ch=2 n=b4 v=64
60950 On ch=2 n=g#4 v=64
60950 On ch=2 n=g#5 v=64
61232 On ch=2 n=g#5 v=0
61232 On ch=2 n=g#4 v=0
61232 On ch=2 n=b4 v=0
61232 On ch=2 n=d#5 v=0
61438 On ch=2 n=d#5 v=58
61438 On ch=2 n=f#5 v=58
61438 On ch=2 n=b5 v=58
61438 On ch=2 n=b4 v=58
61887 On ch=2 n=b4 v=0
61887 On ch=2 n=b5 v=0
61887 On ch=2 n=f#5 v=0
61887 On ch=2 n=d#5 v=0
62875 On ch=2 n=g#4 v=69
62875 On ch=2 n=g#5 v=69
62875 On ch=2 n=b4 v=69
62875 On ch=2 n=d#5 v=69
63002 Par ch=2 c=64 v=127
63002 Par ch=2 c=64 v=127
63002 Par ch=2 c=64 v=127
63024 On ch=2 n=d#5 v=0
63024 On ch=2 n=b4 v=0
63024 On ch=2 n=g#5 v=0
63024 On ch=2 n=g#4 v=0
63118 Par ch=2 c=64 v=0
63118 Par ch=2 c=64 v=0
63118 Par ch=2 c=64 v=0
63353 On ch=2 n=d#5 v=57
63353 On ch=2 n=f#5 v=57
63353 On ch=2 n=b5 v=57
63353 On ch=2 n=b4 v=57
63602 On ch=2 n=b4 v=0
63602 On ch=2 n=b5 v=0
63602 On ch=2 n=f#5 v=0
63602 On ch=2 n=d#5 v=0
63838 On ch=2 n=f#5 v=66
63838 On ch=2 n=b4 v=66
63838 On ch=2 n=b5 v=66
63838 On ch=2 n=d#5 v=66
64120 On ch=2 n=d#5 v=0
64120 On ch=2 n=b5 v=0
64120 On ch=2 n=b4 v=0
64120 On ch=2 n=f#5 v=0
64791 On ch=2 n=e5 v=49
64791 On ch=2 n=c5 v=49
64791 On ch=2 n=a4 v=40
64792 On ch=2 n=a5 v=53
65055 On ch=2 n=a4 v=0
65058 On ch=2 n=c5 v=0
65061 On ch=2 n=e5 v=0
65068 On ch=2 n=a5 v=0
65068 Meta TrkEnd
TrkEnd
MTrk
0 SeqSpec 43 00 01 00
0 Meta TrkName "new"
0 Meta 0x21 00
0 Meta 0x20 00
0 Par ch=1 c=7 v=127
0 Par ch=1 c=10 v=64
0 PrCh ch=1 p=0
65290 On ch=1 n=a6 v=52
65290 On ch=1 n=d7 v=52
65290 On ch=1 n=d6 v=52
65290 On ch=1 n=f#6 v=52
65461 On ch=1 n=f#6 v=0
65461 On ch=1 n=d6 v=0
65461 On ch=1 n=d7 v=0
65461 On ch=1 n=a6 v=0
65768 On ch=1 n=d6 v=61
65768 On ch=1 n=d7 v=61
65768 On ch=1 n=a6 v=61
65768 On ch=1 n=f#6 v=61
65928 On ch=1 n=f#6 v=0
65928 On ch=1 n=a6 v=0
65928 On ch=1 n=d7 v=0
65928 On ch=1 n=d6 v=0
66477 On ch=1 n=c5 v=54
66559 On ch=1 n=d5 v=54
66569 On ch=1 n=c5 v=0
66639 On ch=1 n=c5 v=45
66649 On ch=1 n=d5 v=0
66719 On ch=1 n=b4 v=43
66726 On ch=1 n=c5 v=0
66783 On ch=1 n=b4 v=0
66957 On ch=1 n=a4 v=49
67035 On ch=1 n=b4 v=40
67045 On ch=1 n=a4 v=0
67117 On ch=1 n=a4 v=45
67122 On ch=1 n=b4 v=0
67196 On ch=1 n=a4 v=0
67200 On ch=1 n=g4 v=42
67283 On ch=1 n=g4 v=0
67687 On ch=1 n=g4 v=44
67765 On ch=1 n=g4 v=0
68645 On ch=1 n=g5 v=33
68645 On ch=1 n=b5 v=33
68645 On ch=1 n=d6 v=33
68645 On ch=1 n=g6 v=33
68810 On ch=1 n=d6 v=0
68810 On ch=1 n=b5 v=0
68810 On ch=1 n=g5 v=0
68814 On ch=1 n=g6 v=0
68814 Meta TrkEnd
TrkEnd
MTrk
0 SeqSpec 43 00 01 00
0 Meta TrkName "new"
0 Meta 0x21 00
0 Meta 0x20 01
0 Par ch=2 c=7 v=127
0 Par ch=2 c=10 v=64
0 PrCh ch=2 p=0
65286 On ch=2 n=f#5 v=38
65286 On ch=2 n=d5 v=38
65286 On ch=2 n=c6 v=38
65286 On ch=2 n=a5 v=38
65542 On ch=2 n=a5 v=0
65542 On ch=2 n=c6 v=0
65542 On ch=2 n=d5 v=0
65542 On ch=2 n=f#5 v=0
65767 On ch=2 n=c6 v=55
65767 On ch=2 n=d5 v=55
65767 On ch=2 n=f#5 v=55
65767 On ch=2 n=a5 v=55
65980 On ch=2 n=a5 v=0
65980 On ch=2 n=f#5 v=0
65980 On ch=2 n=d5 v=0
65980 On ch=2 n=c6 v=0
66475 On ch=2 n=c4 v=58
66475 On ch=2 n=c3 v=58
66697 On ch=2 n=c3 v=0
66697 On ch=2 n=c4 v=0
66721 On ch=2 n=b2 v=62
66721 On ch=2 n=b3 v=62
66859 On ch=2 n=b3 v=0
66859 On ch=2 n=b2 v=0
66956 On ch=2 n=a2 v=61
66956 On ch=2 n=a3 v=61
67159 On ch=2 n=a3 v=0
67159 On ch=2 n=a2 v=0
67207 On ch=2 n=g2 v=55
67207 On ch=2 n=g3 v=55
67377 On ch=2 n=g3 v=0
67377 On ch=2 n=g2 v=0
67685 On ch=2 n=g3 v=46
67685 On ch=2 n=g2 v=46
67849 On ch=2 n=g2 v=0
67849 On ch=2 n=g3 v=0
68646 On ch=2 n=d4 v=34
68646 On ch=2 n=d5 v=34
68646 On ch=2 n=b4 v=34
68646 On ch=2 n=g4 v=34
68812 On ch=2 n=g4 v=0
68814 On ch=2 n=b4 v=0
68814 On ch=2 n=d5 v=0
68814 On ch=2 n=d4 v=0
69600 On ch=2 n=g2 v=37
69600 On ch=2 n=g3 v=37
69760 On ch=2 n=g3 v=0
69760 On ch=2 n=g2 v=0
69760 Meta TrkEnd
TrkEnd
MTrk
0 SeqSpec 43 00 01 00
0 Meta TrkName "new"
0 Meta 0x21 00
0 Meta 0x20 00
0 Par ch=1 c=7 v=127
0 Par ch=1 c=10 v=64
0 PrCh ch=1 p=0
70565 On ch=1 n=g4 v=69
71204 On ch=1 n=a4 v=66
71364 On ch=1 n=b4 v=67
71371 On ch=1 n=a4 v=0
71519 On ch=1 n=a4 v=64
71529 On ch=1 n=b4 v=0
72179 On ch=1 n=a4 v=0
72237 On ch=1 n=c5 v=72
72270 On ch=1 n=c5 v=0
72417 On ch=1 n=g4 v=0
72479 On ch=1 n=b4 v=64
72484 On ch=1 n=g4 v=72
72526 On ch=1 n=b4 v=0
72709 On ch=1 n=d5 v=68
72736 On ch=1 n=d5 v=0
72965 On ch=1 n=c5 v=89
72992 On ch=1 n=c5 v=0
73198 On ch=1 n=e5 v=74
73229 On ch=1 n=e5 v=0
73396 On ch=1 n=g4 v=0
73433 On ch=1 n=d5 v=58
73438 On ch=1 n=g4 v=58
73476 On ch=1 n=d5 v=0
73685 On ch=1 n=f5 v=89
73715 On ch=1 n=f5 v=0
73920 On ch=1 n=e5 v=77
73951 On ch=1 n=e5 v=0
74162 On ch=1 n=g5 v=89
74183 On ch=1 n=g5 v=0
74339 On ch=1 n=g4 v=0
74391 On ch=1 n=g4 v=72
74392 On ch=1 n=f5 v=91
74424 On ch=1 n=f5 v=0
74642 On ch=1 n=a5 v=86
74668 On ch=1 n=a5 v=0
74883 On ch=1 n=g5 v=61
74907 On ch=1 n=g5 v=0
75117 On ch=1 n=e5 v=64
75146 On ch=1 n=e5 v=0
75309 On ch=1 n=g4 v=0
75363 On ch=1 n=g4 v=57
75367 On ch=1 n=f5 v=77
75408 On ch=1 n=f5 v=0
75601 On ch=1 n=d5 v=72
75628 On ch=1 n=d5 v=0
75839 On ch=1 n=e5 v=72
75870 On ch=1 n=e5 v=0
76078 On ch=1 n=c5 v=53
76106 On ch=1 n=c5 v=0
76267 On ch=1 n=g4 v=0
76320 On ch=1 n=d5 v=86
76322 On ch=1 n=g4 v=47
76347 On ch=1 n=d5 v=0
76562 On ch=1 n=b4 v=62
76614 On ch=1 n=b4 v=0
76800 On ch=1 n=a4 v=50
77042 On ch=1 n=c5 v=51
77053 On ch=1 n=a4 v=0
77217 On ch=1 n=g4 v=0
77273 On ch=1 n=b4 v=53
77273 On ch=1 n=g4 v=33
77285 On ch=1 n=c5 v=0
77488 On ch=1 n=b4 v=0
77491 On ch=1 n=g4 v=0
77758 On ch=1 n=g4 v=55
77758 On ch=1 n=b4 v=91
78646 On ch=1 n=g4 v=0
78652 On ch=1 n=b4 v=0
78720 On ch=1 n=b4 v=90
78885 On ch=1 n=c5 v=72
78893 On ch=1 n=b4 v=0
79037 On ch=1 n=d5 v=77
79052 On ch=1 n=c5 v=0
79205 On ch=1 n=c5 v=77
79215 On ch=1 n=d5 v=0
79771 On ch=1 n=c5 v=0
79919 On ch=1 n=g5 v=67
79942 On ch=1 n=g5 v=0
80162 On ch=1 n=e5 v=94
80192 On ch=1 n=e5 v=0
80391 On ch=1 n=c5 v=66
80435 On ch=1 n=c5 v=0
80640 On ch=1 n=b4 v=90
80794 On ch=1 n=c5 v=83
80804 On ch=1 n=b4 v=0
80956 On ch=1 n=d5 v=83
80965 On ch=1 n=c5 v=0
81122 On ch=1 n=c5 v=86
81134 On ch=1 n=d5 v=0
81645 On ch=1 n=c5 v=0
81839 On ch=1 n=g5 v=69
81867 On ch=1 n=g5 v=0
82074 On ch=1 n=e5 v=79
82109 On ch=1 n=e5 v=0
82320 On ch=1 n=c5 v=83
82350 On ch=1 n=c5 v=0
82560 On ch=1 n=a4 v=65
82560 On ch=1 n=d5 v=65
82610 On ch=1 n=d5 v=0
82610 On ch=1 n=a4 v=0
82800 On ch=1 n=e5 v=69
82800 On ch=1 n=b4 v=69
82855 On ch=1 n=b4 v=0
82855 On ch=1 n=e5 v=0
83042 On ch=1 n=f5 v=72
83042 On ch=1 n=c5 v=72
83106 On ch=1 n=c5 v=0
83106 On ch=1 n=f5 v=0
83277 On ch=1 n=g5 v=76
83277 On ch=1 n=d5 v=76
83343 On ch=1 n=d5 v=0
83343 On ch=1 n=g5 v=0
83518 On ch=1 n=a5 v=89
83518 On ch=1 n=e5 v=89
83589 On ch=1 n=e5 v=0
83589 On ch=1 n=a5 v=0
83754 On ch=1 n=f5 v=93
83754 On ch=1 n=b5 v=93
83824 On ch=1 n=b5 v=0
83824 On ch=1 n=f5 v=0
84003 On ch=1 n=g5 v=109
84003 On ch=1 n=c6 v=109
84087 On ch=1 n=c6 v=0
84087 On ch=1 n=g5 v=0
84234 On ch=1 n=d6 v=127
84234 On ch=1 n=a5 v=127
84317 On ch=1 n=d6 v=0
84319 On ch=1 n=a5 v=0
84475 On ch=1 n=b5 v=127
84475 On ch=1 n=e6 v=127
84654 On ch=1 n=e6 v=0
84655 On ch=1 n=b5 v=0
84725 On ch=1 n=f#6 v=127
84727 On ch=1 n=c6 v=127
84781 On ch=1 n=c6 v=0
84783 On ch=1 n=f#6 v=0
84960 On ch=1 n=c6 v=127
84960 On ch=1 n=f#6 v=127
85010 On ch=1 n=c6 v=0
85012 On ch=1 n=f#6 v=0
85199 On ch=1 n=f#6 v=127
85201 On ch=1 n=c6 v=127
85232 On ch=1 n=c6 v=0
85241 On ch=1 n=f#6 v=0
85445 On ch=1 n=b6 v=127
85445 On ch=1 n=d#6 v=127
85450 On ch=1 n=b5 v=99
85541 On ch=1 n=b5 v=0
85541 On ch=1 n=d#6 v=0
85542 On ch=1 n=b6 v=0
85675 On ch=1 n=b6 v=127
85675 On ch=1 n=d#6 v=127
85679 On ch=1 n=b5 v=127
85715 On ch=1 n=b5 v=0
85719 On ch=1 n=d#6 v=0
85724 On ch=1 n=b6 v=0
85917 On ch=1 n=b6 v=127
85917 On ch=1 n=d#6 v=127
85917 On ch=1 n=b5 v=94
85971 On ch=1 n=b5 v=0
85971 On ch=1 n=b6 v=0
85973 On ch=1 n=d#6 v=0
86161 On ch=1 n=b6 v=99
86161 On ch=1 n=d#6 v=127
86162 On ch=1 n=b5 v=99
86236 On ch=1 n=d#6 v=0
86237 On ch=1 n=b5 v=0
86242 On ch=1 n=b6 v=0
86397 On ch=1 n=g6 v=90
86397 On ch=1 n=b5 v=41
86552 On ch=1 n=a6 v=112
86562 On ch=1 n=g6 v=0
86713 On ch=1 n=b6 v=86
86719 On ch=1 n=a6 v=0
86879 On ch=1 n=a6 v=127
86879 On ch=1 n=c6 v=64
86889 On ch=1 n=b5 v=0
86893 On ch=1 n=b6 v=0
87545 On ch=1 n=a6 v=0
87597 On ch=1 n=c7 v=127
87617 On ch=1 n=c7 v=0
87839 On ch=1 n=d6 v=49
87840 On ch=1 n=b6 v=127
87848 On ch=1 n=c6 v=0
87860 On ch=1 n=b6 v=0
88076 On ch=1 n=d7 v=127
88095 On ch=1 n=d7 v=0
88317 On ch=1 n=e6 v=46
88319 On ch=1 n=c7 v=127
88325 On ch=1 n=d6 v=0
88344 On ch=1 n=c7 v=0
88554 On ch=1 n=e7 v=127
88576 On ch=1 n=e7 v=0
88795 On ch=1 n=f6 v=44
88796 On ch=1 n=d7 v=127
88807 On ch=1 n=e6 v=0
88831 On ch=1 n=d7 v=0
89038 On ch=1 n=f7 v=127
89068 On ch=1 n=f7 v=0
89270 On ch=1 n=g6 v=39
89271 On ch=1 n=e7 v=127
89280 On ch=1 n=f6 v=0
89314 On ch=1 n=e7 v=0
89521 On ch=1 n=g7 v=94
89543 On ch=1 n=g7 v=0
89749 On ch=1 n=f7 v=127
89749 On ch=1 n=a6 v=37
89757 On ch=1 n=g6 v=0
89774 On ch=1 n=f7 v=0
89999 On ch=1 n=a7 v=127
90022 On ch=1 n=a7 v=0
90237 On ch=1 n=g7 v=69
90239 On ch=1 n=g6 v=49
90255 On ch=1 n=a6 v=0
90471 On ch=1 n=e7 v=64
90483 On ch=1 n=g7 v=0
90655 On ch=1 n=e7 v=0
90714 On ch=1 n=f7 v=90
90716 On ch=1 n=f6 v=50
90725 On ch=1 n=g6 v=0
90960 On ch=1 n=d7 v=51
90975 On ch=1 n=f7 v=0
91065 On ch=1 n=d7 v=0
91193 On ch=1 n=e7 v=90
91194 On ch=1 n=e6 v=47
91205 On ch=1 n=f6 v=0
91437 On ch=1 n=c7 v=54
91447 On ch=1 n=e7 v=0
91580 On ch=1 n=c7 v=0
91672 On ch=1 n=d7 v=79
91675 On ch=1 n=d6 v=44
91682 On ch=1 n=e6 v=0
91917 On ch=1 n=b6 v=44
91928 On ch=1 n=d7 v=0
92104 On ch=1 n=b6 v=0
92156 On ch=1 n=a6 v=58
92156 On ch=1 n=c6 v=40
92162 On ch=1 n=d6 v=0
92403 On ch=1 n=c7 v=64
92405 On ch=1 n=a6 v=0
92643 On ch=1 n=b5 v=80
92643 On ch=1 n=f6 v=80
92643 On ch=1 n=b6 v=80
92653 On ch=1 n=c7 v=0
92663 On ch=1 n=c6 v=0
93037 On ch=1 n=f6 v=0
93037 On ch=1 n=b5 v=0
93113 On ch=1 n=b6 v=105
93113 On ch=1 n=b5 v=105
93117 On ch=1 n=b6 v=0
94007 On ch=1 n=b5 v=0
94007 On ch=1 n=b6 v=0
94071 On ch=1 n=b4 v=62
94231 On ch=1 n=c#5 v=50
94232 On ch=1 n=b4 v=0
94396 On ch=1 n=d#5 v=62
94415 On ch=1 n=c#5 v=0
94554 On ch=1 n=c#5 v=64
94564 On ch=1 n=d#5 v=0
95035 On ch=1 n=a4 v=55
95277 On ch=1 n=f#5 v=105
95285 On ch=1 n=c#5 v=0
95511 On ch=1 n=d#5 v=69
95516 On ch=1 n=a#4 v=67
95524 On ch=1 n=f#5 v=0
95528 On ch=1 n=a4 v=0
95749 On ch=1 n=c#5 v=69
95759 On ch=1 n=d#5 v=0
95975 On ch=1 n=a#4 v=0
95992 On ch=1 n=b4 v=64
95997 On ch=1 n=c#5 v=0
96145 On ch=1 n=c#5 v=61
96157 On ch=1 n=b4 v=0
96305 On ch=1 n=d#5 v=66
96319 On ch=1 n=c#5 v=0
96476 On ch=1 n=c#5 v=52
96496 On ch=1 n=d#5 v=0
96951 On ch=1 n=a4 v=66
97192 On ch=1 n=f#5 v=94
97199 On ch=1 n=c#5 v=0
97428 On ch=1 n=d#5 v=86
97433 On ch=1 n=a#4 v=55
97441 On ch=1 n=a4 v=0
97444 On ch=1 n=f#5 v=0
97672 On ch=1 n=c#5 v=46
97687 On ch=1 n=d#5 v=0
97908 On ch=1 n=a#4 v=0
97908 On ch=1 n=b4 v=54
97911 On ch=1 n=c#5 v=0
98148 On ch=1 n=e5 v=67
98158 On ch=1 n=b4 v=0
98387 On ch=1 n=c#5 v=99
98399 On ch=1 n=e5 v=0
98628 On ch=1 n=f#5 v=83
98648 On ch=1 n=c#5 v=0
98864 On ch=1 n=d#5 v=105
98876 On ch=1 n=f#5 v=0
99108 On ch=1 n=g#5 v=72
99118 On ch=1 n=d#5 v=0
99345 On ch=1 n=e5 v=58
99360 On ch=1 n=g#5 v=0
99582 On ch=1 n=a5 v=79
99591 On ch=1 n=e5 v=0
99832 On ch=1 n=f#5 v=127
99851 On ch=1 n=a5 v=0
100061 On ch=1 n=b5 v=127
100108 On ch=1 n=f#5 v=0
100309 On ch=1 n=g#5 v=127
100320 On ch=1 n=b5 v=0
100548 On ch=1 n=c#6 v=127
100558 On ch=1 n=g#5 v=0
100783 On ch=1 n=a5 v=127
100799 On ch=1 n=c#6 v=0
101025 On ch=1 n=d#6 v=127
101039 On ch=1 n=a5 v=0
101238 On ch=1 n=d#6 v=0
101262 On ch=1 n=a#5 v=66
101263 On ch=1 n=c#6 v=127
101510 On ch=1 n=d#6 v=127
101520 On ch=1 n=c#6 v=0
101663 On ch=1 n=a#5 v=0
101664 On ch=1 n=d#6 v=0
101745 On ch=1 n=b4 v=46
101899 On ch=1 n=c#5 v=45
101909 On ch=1 n=b4 v=0
102067 On ch=1 n=d#5 v=41
102078 On ch=1 n=c#5 v=0
102228 On ch=1 n=c#5 v=48
102243 On ch=1 n=d#5 v=0
102702 On ch=1 n=a4 v=62
102914 On ch=1 n=c#5 v=0
102946 On ch=1 n=f#5 v=66
103186 On ch=1 n=f#5 v=0
103187 On ch=1 n=a#4 v=71
103187 On ch=1 n=d#5 v=71
103193 On ch=1 n=a4 v=0
103421 On ch=1 n=c#5 v=76
103441 On ch=1 n=d#5 v=0
103549 On ch=1 n=a#4 v=0
103663 On ch=1 n=b4 v=52
103670 On ch=1 n=c#5 v=0
103820 On ch=1 n=c#5 v=52
103835 On ch=1 n=b4 v=0
103982 On ch=1 n=d#5 v=52
103999 On ch=1 n=c#5 v=0
104132 On ch=1 n=c#5 v=61
104147 On ch=1 n=d#5 v=0
104620 On ch=1 n=a4 v=54
104867 On ch=1 n=f#5 v=70
104877 On ch=1 n=c#5 v=0
105107 On ch=1 n=d#5 v=74
105123 On ch=1 n=f#5 v=0
105288 On ch=1 n=a4 v=0
105341 On ch=1 n=a4 v=78
105363 On ch=1 n=d#5 v=0
105587 On ch=1 n=a#4 v=64
105599 On ch=1 n=a4 v=0
105822 On ch=1 n=d#5 v=79
105836 On ch=1 n=a#4 v=0
106067 On ch=1 n=c5 v=86
106085 On ch=1 n=d#5 v=0
106300 On ch=1 n=f5 v=82
106312 On ch=1 n=c5 v=0
106544 On ch=1 n=d5 v=83
106558 On ch=1 n=f5 v=0
106780 On ch=1 n=g5 v=67
106790 On ch=1 n=d5 v=0
107030 On ch=1 n=d#5 v=72
107057 On ch=1 n=g5 v=0
107266 On ch=1 n=g#5 v=90
107286 On ch=1 n=d#5 v=0
107504 On ch=1 n=f5 v=96
107520 On ch=1 n=g#5 v=0
107741 On ch=1 n=a#5 v=109
107755 On ch=1 n=f5 v=0
107984 On ch=1 n=g5 v=114
108006 On ch=1 n=a#5 v=0
108216 On ch=1 n=c6 v=119
108234 On ch=1 n=g5 v=0
108462 On ch=1 n=g#5 v=127
108472 On ch=1 n=c6 v=0
108698 On ch=1 n=d6 v=127
108704 On ch=1 n=g#5 v=0
108937 On ch=1 n=c6 v=127
108957 On ch=1 n=d6 v=0
109176 On ch=1 n=f6 v=127
109181 On ch=1 n=c6 v=0
109356 On ch=1 n=f6 v=0
109424 On ch=1 n=d#6 v=127
109498 On ch=1 n=f6 v=127
109509 On ch=1 n=d#6 v=0
109579 On ch=1 n=d#6 v=127
109589 On ch=1 n=f6 v=0
109646 On ch=1 n=d#6 v=0
109658 On ch=1 n=a#5 v=127
109737 On ch=1 n=a#5 v=0
109898 On ch=1 n=c#6 v=127
109922 On ch=1 n=c#6 v=0
110138 On ch=1 n=g5 v=64
110168 On ch=1 n=g5 v=0
110378 On ch=1 n=d#6 v=94
110398 On ch=1 n=d#6 v=0
110623 On ch=1 n=a#5 v=112
110648 On ch=1 n=a#5 v=0
110859 On ch=1 n=c#6 v=99
110888 On ch=1 n=c#6 v=0
111094 On ch=1 n=g5 v=90
111131 On ch=1 n=g5 v=0
111337 On ch=1 n=d#6 v=84
111422 On ch=1 n=f6 v=84
111433 On ch=1 n=d#6 v=0
111495 On ch=1 n=d#6 v=84
111507 On ch=1 n=f6 v=0
111573 On ch=1 n=a#5 v=84
111585 On ch=1 n=d#6 v=0
111626 On ch=1 n=a#5 v=0
111815 On ch=1 n=c#6 v=94
111846 On ch=1 n=c#6 v=0
112064 On ch=1 n=g5 v=67
112105 On ch=1 n=g5 v=0
112303 On ch=1 n=d#6 v=65
112325 On ch=1 n=d#6 v=0
112538 On ch=1 n=a#5 v=66
112565 On ch=1 n=a#5 v=0
112781 On ch=1 n=c#6 v=76
112808 On ch=1 n=c#6 v=0
113015 On ch=1 n=g5 v=70
113043 On ch=1 n=g5 v=0
113257 On ch=1 n=d#6 v=67
113336 On ch=1 n=f6 v=67
113345 On ch=1 n=d#6 v=0
113416 On ch=1 n=d#6 v=67
113431 On ch=1 n=f6 v=0
113501 On ch=1 n=a#5 v=67
113513 On ch=1 n=d#6 v=0
113549 On ch=1 n=a#5 v=0
113741 On ch=1 n=c#6 v=80
113778 On ch=1 n=c#6 v=0
113977 On ch=1 n=g5 v=60
114023 On ch=1 n=g5 v=0
114221 On ch=1 n=d#6 v=73
114246 On ch=1 n=d#6 v=0
114460 On ch=1 n=a#5 v=57
114498 On ch=1 n=a#5 v=0
114697 On ch=1 n=c#6 v=60
114735 On ch=1 n=c#6 v=0
114940 On ch=1 n=g5 v=50
114978 On ch=1 n=g5 v=0
115175 On ch=1 n=d#6 v=55
115255 On ch=1 n=f6 v=55
115266 On ch=1 n=d#6 v=0
115335 On ch=1 n=d#6 v=55
115346 On ch=1 n=f6 v=0
115418 On ch=1 n=a#5 v=55
115429 On ch=1 n=d#6 v=0
115476 On ch=1 n=a#5 v=0
115655 On ch=1 n=c#6 v=65
115694 On ch=1 n=c#6 v=0
115898 On ch=1 n=g5 v=63
115926 On ch=1 n=g5 v=0
116136 On ch=1 n=d#6 v=51
116168 On ch=1 n=d#6 v=0
116384 On ch=1 n=a#5 v=40
116409 On ch=1 n=a#5 v=0
116615 On ch=1 n=c#6 v=38
116641 On ch=1 n=c#6 v=0
116862 On ch=1 n=g5 v=37
116889 On ch=1 n=g5 v=0
117097 On ch=1 n=e6 v=39
117181 On ch=1 n=f#6 v=39
117203 On ch=1 n=e6 v=0
117258 On ch=1 n=e6 v=39
117269 On ch=1 n=f#6 v=0
117338 On ch=1 n=e6 v=0
117338 On ch=1 n=b5 v=39
117392 On ch=1 n=b5 v=0
117574 On ch=1 n=d6 v=47
117593 On ch=1 n=d6 v=0
117819 On ch=1 n=g5 v=43
117843 On ch=1 n=g5 v=0
118064 On ch=1 n=b5 v=47
118133 On ch=1 n=c6 v=44
118149 On ch=1 n=b5 v=0
118213 On ch=1 n=b5 v=42
118221 On ch=1 n=c6 v=0
118293 On ch=1 n=d5 v=43
118303 On ch=1 n=b5 v=0
118349 On ch=1 n=d5 v=0
118544 On ch=1 n=a5 v=50
118569 On ch=1 n=a5 v=0
118782 On ch=1 n=e5 v=44
118808 On ch=1 n=e5 v=0
119019 On ch=1 n=e6 v=58
119101 On ch=1 n=f#6 v=46
119109 On ch=1 n=e6 v=0
119176 On ch=1 n=e6 v=46
119186 On ch=1 n=f#6 v=0
119264 On ch=1 n=b5 v=46
119267 On ch=1 n=e6 v=0
119302 On ch=1 n=b5 v=0
119501 On ch=1 n=d6 v=64
119530 On ch=1 n=d6 v=0
119740 On ch=1 n=g5 v=48
119765 On ch=1 n=g5 v=0
119983 On ch=1 n=b5 v=50
120057 On ch=1 n=c6 v=44
120067 On ch=1 n=b5 v=0
120137 On ch=1 n=b5 v=44
120147 On ch=1 n=c6 v=0
120212 On ch=1 n=d5 v=62
120215 On ch=1 n=b5 v=0
120245 On ch=1 n=d5 v=0
120450 On ch=1 n=a5 v=58
120476 On ch=1 n=a5 v=0
120697 On ch=1 n=e5 v=53
120717 On ch=1 n=e5 v=0
120934 On ch=1 n=g5 v=53
121016 On ch=1 n=a5 v=55
121023 On ch=1 n=g5 v=0
121091 On ch=1 n=g5 v=54
121100 On ch=1 n=a5 v=0
121179 On ch=1 n=d5 v=62
121183 On ch=1 n=g5 v=0
121213 On ch=1 n=d5 v=0
121414 On ch=1 n=e5 v=74
121448 On ch=1 n=e5 v=0
121576 On ch=1 n=g5 v=99
121599 On ch=1 n=g5 v=0
121729 On ch=1 n=b5 v=113
121753 On ch=1 n=b5 v=0
121891 On ch=1 n=g5 v=85
121969 On ch=1 n=a5 v=85
121980 On ch=1 n=g5 v=0
122044 On ch=1 n=g5 v=85
122050 On ch=1 n=a5 v=0
122125 On ch=1 n=d5 v=85
122129 On ch=1 n=g5 v=0
122165 On ch=1 n=d5 v=0
122373 On ch=1 n=e5 v=119
122393 On ch=1 n=e5 v=0
122527 On ch=1 n=g5 v=127
122548 On ch=1 n=g5 v=0
122688 On ch=1 n=b5 v=127
122711 On ch=1 n=b5 v=0
122849 On ch=1 n=a5 v=119
122927 On ch=1 n=b5 v=94
122937 On ch=1 n=a5 v=0
123002 On ch=1 n=a5 v=86
123011 On ch=1 n=b5 v=0
123085 On ch=1 n=e5 v=67
123091 On ch=1 n=a5 v=0
123142 On ch=1 n=e5 v=0
123326 On ch=1 n=e6 v=127
123329 On ch=1 n=a5 v=61
123329 On ch=1 n=c6 v=83
123560 On ch=1 n=d6 v=83
123565 On ch=1 n=e6 v=0
123651 Par ch=1 c=64 v=127
123651 Par ch=1 c=64 v=127
123651 Par ch=1 c=64 v=127
123660 On ch=1 n=c6 v=0
123664 On ch=1 n=d6 v=0
123683 On ch=1 n=a5 v=0
123729 Par ch=1 c=64 v=0
123729 Par ch=1 c=64 v=0
123729 Par ch=1 c=64 v=0
123735 On ch=1 n=d6 v=112
123762 On ch=1 n=f#6 v=127
123806 On ch=1 n=b6 v=127
123974 Par ch=1 c=64 v=127
123974 Par ch=1 c=64 v=127
123974 Par ch=1 c=64 v=127
124045 On ch=1 n=a6 v=100
124049 On ch=1 n=b6 v=0
124052 Par ch=1 c=64 v=0
124052 Par ch=1 c=64 v=0
124052 Par ch=1 c=64 v=0
124168 Par ch=1 c=64 v=127
124169 Par ch=1 c=64 v=127
124169 Par ch=1 c=64 v=127
124218 On ch=1 n=a6 v=0
124218 On ch=1 n=f#6 v=0
124227 On ch=1 n=d6 v=0
124281 On ch=1 n=f#6 v=127
124306 Par ch=1 c=64 v=0
124306 Par ch=1 c=64 v=0
124306 Par ch=1 c=64 v=0
124326 On ch=1 n=f#6 v=0
124528 On ch=1 n=d6 v=58
124553 On ch=1 n=d6 v=0
124771 On ch=1 n=e6 v=45
124850 On ch=1 n=f#6 v=43
124860 On ch=1 n=e6 v=0
124929 On ch=1 n=e6 v=44
124935 On ch=1 n=f#6 v=0
125009 On ch=1 n=b5 v=43
125012 On ch=1 n=e6 v=0
125051 On ch=1 n=b5 v=0
125244 On ch=1 n=d6 v=53
125265 On ch=1 n=d6 v=0
125489 On ch=1 n=g5 v=45
125513 On ch=1 n=g5 v=0
125728 On ch=1 n=b5 v=43
125809 On ch=1 n=c6 v=45
125819 On ch=1 n=b5 v=0
125885 On ch=1 n=b5 v=41
125894 On ch=1 n=c6 v=0
125964 On ch=1 n=d5 v=47
125975 On ch=1 n=b5 v=0
125993 On ch=1 n=d5 v=0
126209 On ch=1 n=a5 v=38
126238 On ch=1 n=a5 v=0
126449 On ch=1 n=e5 v=43
126478 On ch=1 n=e5 v=0
126692 On ch=1 n=e6 v=83
126768 On ch=1 n=f#6 v=64
126778 On ch=1 n=e6 v=0
126844 On ch=1 n=e6 v=52
126854 On ch=1 n=f#6 v=0
126928 On ch=1 n=b5 v=49
126934 On ch=1 n=e6 v=0
126970 On ch=1 n=b5 v=0
127163 On ch=1 n=d6 v=67
127184 On ch=1 n=d6 v=0
127401 On ch=1 n=g5 v=49
127427 On ch=1 n=g5 v=0
127645 On ch=1 n=b5 v=58
127724 On ch=1 n=c6 v=57
127734 On ch=1 n=b5 v=0
127806 On ch=1 n=b5 v=48
127821 On ch=1 n=c6 v=0
127879 On ch=1 n=d5 v=57
127889 On ch=1 n=b5 v=0
127939 On ch=1 n=d5 v=0
128121 On ch=1 n=a5 v=61
128150 On ch=1 n=a5 v=0
128363 On ch=1 n=e5 v=58
128404 On ch=1 n=e5 v=0
128603 On ch=1 n=g5 v=62
128677 On ch=1 n=a5 v=62
128686 On ch=1 n=g5 v=0
128758 On ch=1 n=g5 v=61
128766 On ch=1 n=a5 v=0
128843 On ch=1 n=d5 v=64
128850 On ch=1 n=g5 v=0
128901 On ch=1 n=d5 v=0
129080 On ch=1 n=e5 v=99
129115 On ch=1 n=e5 v=0
129238 On ch=1 n=g5 v=127
129266 On ch=1 n=g5 v=0
129394 On ch=1 n=b5 v=127
129415 On ch=1 n=b5 v=0
129557 On ch=1 n=e5 v=112
129557 On ch=1 n=a5 v=127
129624 Par ch=1 c=64 v=127
129624 Par ch=1 c=64 v=127
129624 Par ch=1 c=64 v=127
129721 On ch=1 n=a5 v=0
129728 On ch=1 n=e5 v=0
129801 On ch=1 n=e5 v=127
129819 Par ch=1 c=64 v=0
129819 Par ch=1 c=64 v=0
129820 Par ch=1 c=64 v=0
129869 Par ch=1 c=64 v=127
129869 Par ch=1 c=64 v=127
129869 Par ch=1 c=64 v=127
129930 On ch=1 n=e5 v=0
130031 On ch=1 n=a5 v=127
130035 Par ch=1 c=64 v=0
130035 Par ch=1 c=64 v=0
130035 Par ch=1 c=64 v=0
130074 Par ch=1 c=64 v=127
130074 Par ch=1 c=64 v=127
130074 Par ch=1 c=64 v=127
130099 On ch=1 n=a5 v=0
130235 On ch=1 n=e6 v=127
130255 On ch=1 n=e6 v=0
130275 On ch=1 n=a6 v=127
130285 Par ch=1 c=64 v=0
130286 Par ch=1 c=64 v=0
130286 Par ch=1 c=64 v=0
130344 Par ch=1 c=64 v=127
130344 Par ch=1 c=64 v=127
130344 Par ch=1 c=64 v=127
130381 On ch=1 n=a6 v=0
130452 Par ch=1 c=64 v=0
130453 Par ch=1 c=64 v=0
130453 Par ch=1 c=64 v=0
130517 On ch=1 n=g5 v=94
130599 On ch=1 n=a5 v=67
130611 On ch=1 n=g5 v=0
130673 On ch=1 n=g5 v=59
130682 On ch=1 n=a5 v=0
130759 On ch=1 n=d5 v=70
130761 On ch=1 n=g5 v=0
130797 On ch=1 n=d5 v=0
130998 On ch=1 n=e5 v=90
131022 On ch=1 n=e5 v=0
131155 On ch=1 n=g5 v=112
131176 On ch=1 n=g5 v=0
131314 On ch=1 n=b5 v=127
131322 Par ch=1 c=64 v=127
131322 Par ch=1 c=64 v=127
131322 Par ch=1 c=64 v=127
131332 On ch=1 n=b5 v=0
131362 Par ch=1 c=64 v=0
131362 Par ch=1 c=64 v=0
131362 Par ch=1 c=64 v=0
131477 On ch=1 n=e5 v=79
131477 On ch=1 n=a5 v=127
131557 Par ch=1 c=64 v=127
131557 Par ch=1 c=64 v=127
131557 Par ch=1 c=64 v=127
131631 On ch=1 n=a5 v=0
131637 On ch=1 n=e5 v=0
131712 On ch=1 n=e5 v=127
131781 Par ch=1 c=64 v=0
131781 Par ch=1 c=64 v=0
131782 Par ch=1 c=64 v=0
131849 Par ch=1 c=64 v=127
131849 Par ch=1 c=64 v=127
131849 Par ch=1 c=64 v=127
131878 On ch=1 n=e5 v=0
131954 On ch=1 n=a5 v=127
131957 Par ch=1 c=64 v=0
131957 Par ch=1 c=64 v=0
131957 Par ch=1 c=64 v=0
132007 Par ch=1 c=64 v=127
132007 Par ch=1 c=64 v=127
132007 Par ch=1 c=64 v=127
132029 On ch=1 n=a5 v=0
132152 On ch=1 n=e6 v=127
132170 On ch=1 n=e6 v=0
132190 On ch=1 n=a6 v=127
132210 Par ch=1 c=64 v=0
132212 Par ch=1 c=64 v=0
132212 Par ch=1 c=64 v=0
132331 On ch=1 n=a6 v=0
132435 On ch=1 n=a6 v=127
132514 On ch=1 n=b6 v=127
132524 On ch=1 n=a6 v=0
132593 On ch=1 n=a6 v=127
132603 On ch=1 n=b6 v=0
132670 On ch=1 n=f#6 v=125
132681 On ch=1 n=a6 v=0
132722 On ch=1 n=f#6 v=0
132915 On ch=1 n=d6 v=127
132968 On ch=1 n=d6 v=0
133155 On ch=1 n=b5 v=127
133181 On ch=1 n=b5 v=0
133397 On ch=1 n=a5 v=96
133479 On ch=1 n=b5 v=93
133490 On ch=1 n=a5 v=0
133554 On ch=1 n=a5 v=94
133566 On ch=1 n=b5 v=0
133637 On ch=1 n=f#5 v=107
133647 On ch=1 n=a5 v=0
133694 On ch=1 n=f#5 v=0
133872 On ch=1 n=d5 v=89
133929 On ch=1 n=d5 v=0
134114 On ch=1 n=b4 v=81
134172 On ch=1 n=b4 v=0
134357 On ch=1 n=a4 v=45
134437 On ch=1 n=a4 v=0
134594 On ch=1 n=d5 v=49
134652 On ch=1 n=d5 v=0
134839 On ch=1 n=b4 v=42
134894 On ch=1 n=b4 v=0
135072 On ch=1 n=f#5 v=53
135072 On ch=1 n=c#5 v=53
135145 On ch=1 n=c#5 v=0
135151 On ch=1 n=f#5 v=0
135315 On ch=1 n=a4 v=60
135315 On ch=1 n=d5 v=60
135555 On ch=1 n=d5 v=0
135555 On ch=1 n=a4 v=0
136276 On ch=1 n=a4 v=83
136355 On ch=1 n=b4 v=61
136362 On ch=1 n=a4 v=0
136432 On ch=1 n=a4 v=67
136443 On ch=1 n=b4 v=0
136514 On ch=1 n=d4 v=57
136515 On ch=1 n=a4 v=0
136611 On ch=1 n=d4 v=0
136756 On ch=1 n=a5 v=49
136837 On ch=1 n=b5 v=64
136847 On ch=1 n=a5 v=0
136912 On ch=1 n=a5 v=58
136920 On ch=1 n=b5 v=0
136993 On ch=1 n=d5 v=55
136995 On ch=1 n=a5 v=0
137474 On ch=1 n=e5 v=90
137482 On ch=1 n=d5 v=0
137714 On ch=1 n=f5 v=58
137723 On ch=1 n=e5 v=0
137949 On ch=1 n=g5 v=52
137961 On ch=1 n=f5 v=0
138196 On ch=1 n=a5 v=59
138207 On ch=1 n=g5 v=0
138432 On ch=1 n=b5 v=54
138442 On ch=1 n=a5 v=0
138671 On ch=1 n=c6 v=64
138680 On ch=1 n=b5 v=0
138912 On ch=1 n=e6 v=61
138917 On ch=1 n=c6 v=0
139152 On ch=1 n=d6 v=94
139164 On ch=1 n=e6 v=0
139394 On ch=1 n=e6 v=127
139403 On ch=1 n=d6 v=0
139627 On ch=1 n=f6 v=127
139639 On ch=1 n=e6 v=0
139865 On ch=1 n=a6 v=127
139869 On ch=1 n=f6 v=0
140016 On ch=1 n=a6 v=0
140111 On ch=1 n=a4 v=127
140191 On ch=1 n=b4 v=77
140195 On ch=1 n=a4 v=0
140272 On ch=1 n=a4 v=119
140282 On ch=1 n=b4 v=0
140348 On ch=1 n=a4 v=0
140354 On ch=1 n=d4 v=69
140413 On ch=1 n=d4 v=0
140591 On ch=1 n=a5 v=72
140672 On ch=1 n=b5 v=49
140681 On ch=1 n=a5 v=0
140752 On ch=1 n=a5 v=69
140762 On ch=1 n=b5 v=0
140819 On ch=1 n=a5 v=0
140829 On ch=1 n=d5 v=59
141313 On ch=1 n=e5 v=77
141323 On ch=1 n=d5 v=0
141546 On ch=1 n=f5 v=61
141556 On ch=1 n=e5 v=0
141790 On ch=1 n=g5 v=77
141801 On ch=1 n=f5 v=0
141957 On ch=1 n=g5 v=0
142029 On ch=1 n=a5 v=119
142063 On ch=1 n=a5 v=0
142267 On ch=1 n=b5 v=94
142303 On ch=1 n=b5 v=0
142509 On ch=1 n=c6 v=119
142545 On ch=1 n=c6 v=0
142752 On ch=1 n=e6 v=112
142783 On ch=1 n=e6 v=0
142991 On ch=1 n=d6 v=127
143053 On ch=1 n=d6 v=0
143229 On ch=1 n=e6 v=99
143274 On ch=1 n=e6 v=0
143476 On ch=1 n=f6 v=99
143517 On ch=1 n=f6 v=0
143705 On ch=1 n=a6 v=112
143737 On ch=1 n=a6 v=0
143951 On ch=1 n=g6 v=112
144031 On ch=1 n=a6 v=86
144039 On ch=1 n=g6 v=0
144108 On ch=1 n=g6 v=99
144116 On ch=1 n=a6 v=0
144187 On ch=1 n=e6 v=77
144194 On ch=1 n=g6 v=0
144256 On ch=1 n=e6 v=0
144427 On ch=1 n=c6 v=127
144463 On ch=1 n=c6 v=0
144666 On ch=1 n=g5 v=99
144669 On ch=1 n=e5 v=58
144713 On ch=1 n=g5 v=0
144715 On ch=1 n=e5 v=0
144910 On ch=1 n=f#5 v=112
144911 On ch=1 n=d#5 v=72
144995 On ch=1 n=d#5 v=0
144999 On ch=1 n=f#5 v=0
145144 On ch=1 n=b5 v=79
145192 On ch=1 n=b5 v=0
145389 On ch=1 n=d#6 v=105
145433 On ch=1 n=d#6 v=0
145639 On ch=1 n=f#6 v=112
145681 On ch=1 n=f#6 v=0
145877 On ch=1 n=g6 v=105
145949 On ch=1 n=a6 v=79
145959 On ch=1 n=g6 v=0
146030 On ch=1 n=g6 v=99
146037 On ch=1 n=a6 v=0
146108 On ch=1 n=e6 v=74
146114 On ch=1 n=g6 v=0
146185 On ch=1 n=e6 v=0
146352 On ch=1 n=c6 v=83
146391 On ch=1 n=c6 v=0
146591 On ch=1 n=g5 v=67
146593 On ch=1 n=e5 v=54
146639 On ch=1 n=e5 v=0
146642 On ch=1 n=g5 v=0
146831 On ch=1 n=f#5 v=77
146834 On ch=1 n=d5 v=50
146949 On ch=1 n=d5 v=0
146951 On ch=1 n=f#5 v=0
147066 On ch=1 n=b5 v=83
147123 On ch=1 n=b5 v=0
147311 On ch=1 n=d6 v=94
147354 On ch=1 n=d6 v=0
147556 On ch=1 n=f#6 v=94
147600 On ch=1 n=f#6 v=0
147789 On ch=1 n=e6 v=90
147870 On ch=1 n=f#6 v=83
147882 On ch=1 n=e6 v=0
147945 On ch=1 n=e6 v=57
147948 On ch=1 n=f#6 v=0
148031 On ch=1 n=c6 v=72
148046 On ch=1 n=e6 v=0
148080 On ch=1 n=c6 v=0
148270 On ch=1 n=a5 v=74
148316 On ch=1 n=a5 v=0
148511 On ch=1 n=c5 v=49
148511 On ch=1 n=e5 v=90
148559 On ch=1 n=c5 v=0
148562 On ch=1 n=e5 v=0
148751 On ch=1 n=d5 v=90
148754 On ch=1 n=b4 v=42
148815 On ch=1 n=b4 v=0
148829 On ch=1 n=d5 v=0
148983 On ch=1 n=g#5 v=79
149036 On ch=1 n=g#5 v=0
149231 On ch=1 n=b5 v=77
149256 On ch=1 n=b5 v=0
149470 On ch=1 n=d6 v=79
149506 On ch=1 n=d6 v=0
149712 On ch=1 n=e6 v=90
149783 On ch=1 n=f#6 v=74
149795 On ch=1 n=e6 v=0
149863 On ch=1 n=e6 v=67
149873 On ch=1 n=f#6 v=0
149947 On ch=1 n=c6 v=77
149957 On ch=1 n=e6 v=0
149994 On ch=1 n=c6 v=0
150191 On ch=1 n=a5 v=79
150223 On ch=1 n=a5 v=0
150428 On ch=1 n=e5 v=86
150431 On ch=1 n=c5 v=41
150459 On ch=1 n=e5 v=0
150469 On ch=1 n=c5 v=0
150669 On ch=1 n=d5 v=69
150671 On ch=1 n=b4 v=37
150761 On ch=1 n=b4 v=0
150764 On ch=1 n=d5 v=0
150908 On ch=1 n=g5 v=61
150954 On ch=1 n=g5 v=0
151146 On ch=1 n=b5 v=54
151171 On ch=1 n=b5 v=0
151390 On ch=1 n=d6 v=69
151413 On ch=1 n=d6 v=0
151626 On ch=1 n=c5 v=49
151630 On ch=1 n=a4 v=61
151868 On ch=1 n=f5 v=52
151877 On ch=1 n=c5 v=0
152105 On ch=1 n=f5 v=0
152111 On ch=1 n=a4 v=0
152114 On ch=1 n=a5 v=79
152142 On ch=1 n=a5 v=0
152346 On ch=1 n=d6 v=77
152367 On ch=1 n=d6 v=0
152590 On ch=1 n=c5 v=54
152593 On ch=1 n=g4 v=50
152822 On ch=1 n=e5 v=47
152828 On ch=1 n=c5 v=0
153064 On ch=1 n=e5 v=0
153068 On ch=1 n=g4 v=0
153068 On ch=1 n=g5 v=62
153106 On ch=1 n=g5 v=0
153314 On ch=1 n=d6 v=83
153335 On ch=1 n=d6 v=0
153544 On ch=1 n=c5 v=72
153544 On ch=1 n=f4 v=72
153793 On ch=1 n=d5 v=59
153799 On ch=1 n=c5 v=0
154031 On ch=1 n=a5 v=77
154038 On ch=1 n=d5 v=0
154040 On ch=1 n=f4 v=0
154062 On ch=1 n=a5 v=0
154271 On ch=1 n=d6 v=90
154298 On ch=1 n=d6 v=0
154511 On ch=1 n=d4 v=86
154754 On ch=1 n=d5 v=76
154932 On ch=1 n=d5 v=0
154988 On ch=1 n=d5 v=61
154993 On ch=1 n=d4 v=0
155015 On ch=1 n=d5 v=0
155227 On ch=1 n=d6 v=52
155251 On ch=1 n=d6 v=0
155474 On ch=1 n=e7 v=127
155554 On ch=1 n=f#7 v=127
155562 On ch=1 n=e7 v=0
155631 On ch=1 n=e7 v=127
155641 On ch=1 n=f#7 v=0
155711 On ch=1 n=b6 v=66
155718 On ch=1 n=e7 v=0
155938 On ch=1 n=b6 v=0
156427 On ch=1 n=d7 v=99
156508 On ch=1 n=e7 v=90
156518 On ch=1 n=d7 v=0
156584 On ch=1 n=d7 v=57
156593 On ch=1 n=e7 v=0
156663 On ch=1 n=g6 v=69
156673 On ch=1 n=d7 v=0
156887 On ch=1 n=g6 v=0
157385 On ch=1 n=b6 v=72
157463 On ch=1 n=c7 v=94
157480 On ch=1 n=b6 v=0
157543 On ch=1 n=b6 v=69
157554 On ch=1 n=c7 v=0
157625 On ch=1 n=d6 v=66
157637 On ch=1 n=b6 v=0
157822 On ch=1 n=d6 v=0
158342 On ch=1 n=a6 v=105
158420 On ch=1 n=b6 v=72
158431 On ch=1 n=a6 v=0
158501 On ch=1 n=a6 v=79
158511 On ch=1 n=b6 v=0
158580 On ch=1 n=e6 v=72
158590 On ch=1 n=a6 v=0
158886 On ch=1 n=e6 v=0
159305 On ch=1 n=e7 v=119
159382 On ch=1 n=f#7 v=112
159394 On ch=1 n=e7 v=0
159464 On ch=1 n=e7 v=79
159475 On ch=1 n=f#7 v=0
159545 On ch=1 n=b6 v=66
159556 On ch=1 n=e7 v=0
159802 On ch=1 n=b6 v=0
160260 On ch=1 n=d7 v=79
160343 On ch=1 n=e7 v=77
160355 On ch=1 n=d7 v=0
160422 On ch=1 n=d7 v=69
160433 On ch=1 n=e7 v=0
160501 On ch=1 n=g6 v=74
160511 On ch=1 n=d7 v=0
160777 On ch=1 n=g6 v=0
161697 On ch=1 n=d6 v=39
161826 On ch=1 n=d6 v=0
162182 On ch=1 n=g6 v=35
162252 On ch=1 n=g6 v=0
162662 On ch=1 n=b6 v=32
162754 On ch=1 n=b6 v=0
163138 On ch=1 n=d7 v=112
163224 On ch=1 n=e7 v=74
163233 On ch=1 n=d7 v=0
163302 On ch=1 n=d7 v=86
163314 On ch=1 n=e7 v=0
163381 On ch=1 n=a6 v=99
163392 On ch=1 n=d7 v=0
163555 On ch=1 n=a6 v=0
164095 On ch=1 n=c7 v=83
164176 On ch=1 n=d7 v=90
164188 On ch=1 n=c7 v=0
164252 On ch=1 n=c7 v=67
164262 On ch=1 n=d7 v=0
164336 On ch=1 n=f6 v=105
164346 On ch=1 n=c7 v=0
164577 On ch=1 n=f6 v=0
165056 On ch=1 n=a6 v=90
165137 On ch=1 n=b6 v=58
165147 On ch=1 n=a6 v=0
165215 On ch=1 n=a6 v=62
165225 On ch=1 n=b6 v=0
165300 On ch=1 n=d6 v=66
165310 On ch=1 n=a6 v=0
165502 On ch=1 n=d6 v=0
166020 On ch=1 n=g6 v=79
166099 On ch=1 n=a6 v=77
166110 On ch=1 n=g6 v=0
166174 On ch=1 n=g6 v=69
166184 On ch=1 n=a6 v=0
166260 On ch=1 n=d6 v=79
166268 On ch=1 n=g6 v=0
166375 On ch=1 n=d6 v=0
166982 On ch=1 n=d7 v=86
167059 On ch=1 n=e7 v=74
167070 On ch=1 n=d7 v=0
167137 On ch=1 n=d7 v=72
167147 On ch=1 n=e7 v=0
167216 On ch=1 n=a6 v=61
167227 On ch=1 n=d7 v=0
167436 On ch=1 n=a6 v=0
167940 On ch=1 n=c7 v=83
168021 On ch=1 n=d7 v=69
168030 On ch=1 n=c7 v=0
168098 On ch=1 n=c7 v=83
168108 On ch=1 n=d7 v=0
168182 On ch=1 n=a6 v=83
168187 On ch=1 n=c7 v=0
168385 On ch=1 n=a6 v=0
169391 On ch=1 n=c6 v=40
169552 On ch=1 n=c6 v=0
169903 On ch=1 n=f6 v=35
170083 On ch=1 n=f6 v=0
170476 On ch=1 n=a6 v=31
170667 On ch=1 n=a6 v=0
172980 On ch=1 n=a3 v=61
173012 On ch=1 n=a3 v=0
173217 On ch=1 n=f3 v=84
173248 On ch=1 n=f3 v=0
173454 On ch=1 n=a#3 v=85
173475 On ch=1 n=a#3 v=0
173698 On ch=1 n=g3 v=72
173742 On ch=1 n=g3 v=0
173945 On ch=1 n=c4 v=89
173973 On ch=1 n=c4 v=0
174190 On ch=1 n=a3 v=89
174214 On ch=1 n=a3 v=0
174416 On ch=1 n=d4 v=69
174462 On ch=1 n=d4 v=0
174652 On ch=1 n=c4 v=62
174813 On ch=1 n=d4 v=80
174814 On ch=1 n=c4 v=0
174983 On ch=1 n=e4 v=83
174990 On ch=1 n=d4 v=0
175139 On ch=1 n=d4 v=77
175150 On ch=1 n=e4 v=0
175816 On ch=1 n=d4 v=0
175862 On ch=1 n=g4 v=105
175888 On ch=1 n=g4 v=0
176093 On ch=1 n=e4 v=105
176118 On ch=1 n=e4 v=0
176333 On ch=1 n=d4 v=90
176355 On ch=1 n=d4 v=0
176577 On ch=1 n=c4 v=61
176614 On ch=1 n=c4 v=0
176815 On ch=1 n=f4 v=72
176842 On ch=1 n=f4 v=0
177055 On ch=1 n=d4 v=67
177081 On ch=1 n=d4 v=0
177296 On ch=1 n=g4 v=77
177327 On ch=1 n=g4 v=0
177543 On ch=1 n=e4 v=61
177569 On ch=1 n=e4 v=0
177776 On ch=1 n=a4 v=83
177814 On ch=1 n=a4 v=0
178022 On ch=1 n=f4 v=61
178057 On ch=1 n=f4 v=0
178260 On ch=1 n=a#4 v=86
178305 On ch=1 n=a#4 v=0
178502 On ch=1 n=c5 v=94
178503 On ch=1 n=g4 v=39
178649 On ch=1 n=d5 v=79
178663 On ch=1 n=c5 v=0
178814 On ch=1 n=e5 v=74
178824 On ch=1 n=d5 v=0
178975 On ch=1 n=d5 v=77
178977 On ch=1 n=a4 v=59
178987 On ch=1 n=e5 v=0
178987 On ch=1 n=g4 v=0
179454 On ch=1 n=a#4 v=58
179464 On ch=1 n=a4 v=0
179695 On ch=1 n=g5 v=77
179712 On ch=1 n=d5 v=0
179933 On ch=1 n=e5 v=90
179934 On ch=1 n=b4 v=45
179944 On ch=1 n=a#4 v=0
179958 On ch=1 n=g5 v=0
180171 On ch=1 n=d5 v=53
180179 On ch=1 n=e5 v=0
180367 On ch=1 n=b4 v=0
180373 On ch=1 n=d5 v=0
180406 On ch=1 n=c5 v=99
180569 On ch=1 n=d5 v=105
180579 On ch=1 n=c5 v=0
180737 On ch=1 n=e5 v=72
180747 On ch=1 n=d5 v=0
180893 On ch=1 n=d5 v=83
180904 On ch=1 n=e5 v=0
181616 On ch=1 n=g5 v=83
181624 On ch=1 n=d5 v=0
181773 On ch=1 n=g5 v=0
181859 On ch=1 n=e5 v=90
181894 On ch=1 n=e5 v=0
182096 On ch=1 n=a5 v=86
182254 On ch=1 n=a5 v=0
182328 On ch=1 n=f#5 v=94
182400 On ch=1 n=f#5 v=0
182574 On ch=1 n=b5 v=72
182727 On ch=1 n=b5 v=0
182813 On ch=1 n=g5 v=86
182868 On ch=1 n=g5 v=0
183053 On ch=1 n=c6 v=90
183142 On ch=1 n=c6 v=0
183294 On ch=1 n=a5 v=79
183345 On ch=1 n=a5 v=0
183538 On ch=1 n=d6 v=86
183606 On ch=1 n=d6 v=0
183780 On ch=1 n=b5 v=90
183830 On ch=1 n=b5 v=0
184011 On ch=1 n=e6 v=127
184071 On ch=1 n=e6 v=0
184254 On ch=1 n=g5 v=77
184299 On ch=1 n=g5 v=0
184492 On ch=1 n=c6 v=90
184544 On ch=1 n=c6 v=0
184731 On ch=1 n=a5 v=67
184776 On ch=1 n=a5 v=0
184972 On ch=1 n=d6 v=86
185023 On ch=1 n=d6 v=0
185221 On ch=1 n=b5 v=83
185253 On ch=1 n=b5 v=0
185458 On ch=1 n=e6 v=105
185505 On ch=1 n=e6 v=0
185693 On ch=1 n=c6 v=83
185744 On ch=1 n=c6 v=0
185932 On ch=1 n=f#6 v=127
185989 On ch=1 n=f#6 v=0
186173 On ch=1 n=d6 v=127
186175 On ch=1 n=f#5 v=112
186176 On ch=1 n=a5 v=49
186413 On ch=1 n=f#6 v=112
186422 On ch=1 n=d6 v=0
186574 On ch=1 n=a5 v=0
186576 On ch=1 n=f#5 v=0
186578 On ch=1 n=f#6 v=0
186648 On ch=1 n=b5 v=49
186648 On ch=1 n=e6 v=127
186649 On ch=1 n=g5 v=54
186897 On ch=1 n=g6 v=90
186904 On ch=1 n=e6 v=0
187041 On ch=1 n=g5 v=0
187048 On ch=1 n=b5 v=0
187056 On ch=1 n=g6 v=0
187139 On ch=1 n=f#6 v=127
187139 On ch=1 n=c6 v=52
187141 On ch=1 n=a5 v=55
187371 On ch=1 n=a6 v=127
187377 On ch=1 n=f#6 v=0
187521 On ch=1 n=a5 v=0
187525 On ch=1 n=a6 v=0
187529 On ch=1 n=c6 v=0
187616 On ch=1 n=g6 v=119
187618 On ch=1 n=d6 v=49
187618 On ch=1 n=b5 v=52
187851 On ch=1 n=b6 v=119
187858 On ch=1 n=g6 v=0
188003 On ch=1 n=b5 v=0
188005 On ch=1 n=b6 v=0
188008 On ch=1 n=d6 v=0
188091 On ch=1 n=a6 v=127
188093 On ch=1 n=c6 v=62
188093 On ch=1 n=e6 v=48
188339 On ch=1 n=c7 v=112
188348 On ch=1 n=a6 v=0
188481 On ch=1 n=c6 v=0
188493 On ch=1 n=e6 v=0
188507 On ch=1 n=c7 v=0
188570 On ch=1 n=f#6 v=53
188572 On ch=1 n=d6 v=54
188573 On ch=1 n=b6 v=119
188813 On ch=1 n=d7 v=127
188815 On ch=1 n=b6 v=0
188976 On ch=1 n=d7 v=0
188986 On ch=1 n=d6 v=0
188995 On ch=1 n=f#6 v=0
189051 On ch=1 n=g6 v=44
189051 On ch=1 n=e6 v=52
189051 On ch=1 n=c7 v=127
189287 On ch=1 n=e7 v=127
189414 On ch=1 n=c7 v=0
189414 On ch=1 n=e6 v=0
189414 On ch=1 n=g6 v=0
189527 On ch=1 n=f#6 v=72
189527 On ch=1 n=d7 v=127
189527 On ch=1 n=a6 v=127
189687 On ch=1 n=e7 v=0
189775 On ch=1 n=f#7 v=127
189849 On ch=1 n=f#7 v=0
189849 On ch=1 n=a6 v=0
189853 On ch=1 n=d7 v=0
189927 On ch=1 n=f#6 v=0
190003 On ch=1 n=d7 v=127
190003 On ch=1 n=g7 v=127
190003 On ch=1 n=b6 v=127
190003 On ch=1 n=g6 v=112
190264 On ch=1 n=f#5 v=127
190334 On ch=1 n=g5 v=79
190342 On ch=1 n=f#5 v=0
190403 On ch=1 n=g6 v=0
190403 On ch=1 n=b6 v=0
190403 On ch=1 n=g7 v=0
190403 On ch=1 n=d7 v=0
190407 On ch=1 n=f#5 v=64
190416 On ch=1 n=g5 v=0
190485 On ch=1 n=e5 v=86
190497 On ch=1 n=f#5 v=0
190544 On ch=1 n=e5 v=0
190728 On ch=1 n=d5 v=54
190802 On ch=1 n=e5 v=79
190813 On ch=1 n=d5 v=0
190880 On ch=1 n=d5 v=79
190887 On ch=1 n=e5 v=0
190969 On ch=1 n=b4 v=67
190975 On ch=1 n=d5 v=0
191102 On ch=1 n=b4 v=0
191212 On ch=1 n=d5 v=127
191254 On ch=1 n=d5 v=0
191448 On ch=1 n=e5 v=119
192097 On ch=1 n=e5 v=0
192173 On ch=1 n=a5 v=86
192195 On ch=1 n=a5 v=0
192406 On ch=1 n=c6 v=119
192425 On ch=1 n=c6 v=0
192647 On ch=1 n=e6 v=83
192677 On ch=1 n=e6 v=0
192889 On ch=1 n=f#5 v=105
192926 On ch=1 n=f#5 v=0
193130 On ch=1 n=a5 v=99
193157 On ch=1 n=a5 v=0
193374 On ch=1 n=d6 v=127
193397 On ch=1 n=d6 v=0
193619 On ch=1 n=f#6 v=127
193649 On ch=1 n=f#6 v=0
193845 On ch=1 n=g5 v=127
193845 On ch=1 n=d6 v=127
193845 On ch=1 n=g6 v=127
193845 On ch=1 n=b5 v=127
194093 On ch=1 n=f#5 v=127
194171 On ch=1 n=g5 v=72
194178 On ch=1 n=f#5 v=0
194240 On ch=1 n=f#5 v=69
194245 On ch=1 n=b5 v=0
194245 On ch=1 n=g6 v=0
194245 On ch=1 n=d6 v=0
194245 On ch=1 n=g5 v=0
194254 On ch=1 n=g5 v=0
194325 On ch=1 n=e5 v=94
194339 On ch=1 n=f#5 v=0
194404 On ch=1 n=e5 v=0
194566 On ch=1 n=d5 v=67
194646 On ch=1 n=e5 v=74
194657 On ch=1 n=d5 v=0
194727 On ch=1 n=d5 v=90
194735 On ch=1 n=e5 v=0
194807 On ch=1 n=b4 v=86
194809 On ch=1 n=d5 v=0
194880 On ch=1 n=b4 v=0
195057 On ch=1 n=d5 v=83
195103 On ch=1 n=d5 v=0
195289 On ch=1 n=e5 v=86
195955 On ch=1 n=e5 v=0
196008 On ch=1 n=a5 v=90
196035 On ch=1 n=a5 v=0
196252 On ch=1 n=c6 v=99
196277 On ch=1 n=c6 v=0
196488 On ch=1 n=e6 v=112
196509 On ch=1 n=e6 v=0
196961 On ch=1 n=a5 v=112
196987 On ch=1 n=a5 v=0
197210 On ch=1 n=e6 v=127
197232 On ch=1 n=e6 v=0
197451 On ch=1 n=f#6 v=127
197488 On ch=1 n=f#6 v=0
197686 On ch=1 n=b5 v=54
197686 On ch=1 n=f#6 v=127
197686 On ch=1 n=b6 v=94
197686 On ch=1 n=d#6 v=119
197795 On ch=1 n=f#6 v=0
197798 On ch=1 n=d#6 v=0
197798 On ch=1 n=b5 v=0
197808 On ch=1 n=b6 v=0
197930 On ch=1 n=a#6 v=90
198010 On ch=1 n=b6 v=94
198021 On ch=1 n=a#6 v=0
198074 On ch=1 n=a#6 v=72
198084 On ch=1 n=b6 v=0
198158 On ch=1 n=g#6 v=127
198174 On ch=1 n=a#6 v=0
198249 On ch=1 n=g#6 v=0
198405 On ch=1 n=f#6 v=99
198480 On ch=1 n=g#6 v=99
198495 On ch=1 n=f#6 v=0
198561 On ch=1 n=f#6 v=127
198573 On ch=1 n=g#6 v=0
198644 On ch=1 n=d#6 v=112
198653 On ch=1 n=f#6 v=0
198751 On ch=1 n=d#6 v=0
198883 On ch=1 n=f#6 v=127
198989 On ch=1 n=f#6 v=0
199128 On ch=1 n=d#6 v=127
199128 On ch=1 n=g#6 v=127
199130 On ch=1 n=b5 v=61
199431 On ch=1 n=b5 v=0
199431 On ch=1 n=d#6 v=0
199432 On ch=1 n=g#6 v=0
199599 On ch=1 n=b6 v=99
199599 On ch=1 n=f#6 v=119
199599 On ch=1 n=d#6 v=127
199765 On ch=1 n=d#6 v=0
199765 On ch=1 n=f#6 v=0
199785 On ch=1 n=b6 v=0
199844 On ch=1 n=a#6 v=127
199919 On ch=1 n=b6 v=127
199931 On ch=1 n=a#6 v=0
199999 On ch=1 n=a#6 v=127
200009 On ch=1 n=b6 v=0
200076 On ch=1 n=g#6 v=127
200091 On ch=1 n=a#6 v=0
200209 On ch=1 n=g#6 v=0
200322 On ch=1 n=f#6 v=127
200398 On ch=1 n=g#6 v=127
200407 On ch=1 n=f#6 v=0
200476 On ch=1 n=f#6 v=112
200487 On ch=1 n=g#6 v=0
200557 On ch=1 n=d#6 v=127
200559 On ch=1 n=f#6 v=0
200641 On ch=1 n=d#6 v=0
200802 On ch=1 n=f#6 v=127
200917 On ch=1 n=f#6 v=0
201047 On ch=1 n=d#6 v=127
201047 On ch=1 n=b5 v=127
201047 On ch=1 n=g#6 v=127
201301 On ch=1 n=g#6 v=0
201301 On ch=1 n=b5 v=0
201301 On ch=1 n=d#6 v=0
201522 On ch=1 n=b6 v=127
201522 On ch=1 n=d#6 v=127
201522 On ch=1 n=f#6 v=127
201839 On ch=1 n=f#6 v=0
201839 On ch=1 n=d#6 v=0
201839 On ch=1 n=b6 v=0
202004 On ch=1 n=b6 v=127
202004 On ch=1 n=f#6 v=127
202004 On ch=1 n=d#6 v=127
202244 On ch=1 n=d#6 v=0
202244 On ch=1 n=f#6 v=0
202244 On ch=1 n=b6 v=0
202957 On ch=1 n=c6 v=64
202957 On ch=1 n=a6 v=83
202957 On ch=1 n=e6 v=44
202957 On ch=1 n=c7 v=127
203193 On ch=1 n=c6 v=0
203194 On ch=1 n=c7 v=0
203194 On ch=1 n=e6 v=0
203199 On ch=1 n=a6 v=0
203436 On ch=1 n=d7 v=112
203436 On ch=1 n=a6 v=127
203436 On ch=1 n=f#6 v=127
203436 On ch=1 n=d6 v=99
203635 On ch=1 n=d6 v=0
203635 On ch=1 n=f#6 v=0
203636 On ch=1 n=d7 v=0
203637 On ch=1 n=a6 v=0
203916 On ch=1 n=d6 v=83
203916 On ch=1 n=f#6 v=127
203916 On ch=1 n=a6 v=127
203916 On ch=1 n=d7 v=127
204128 On ch=1 n=d6 v=0
204132 On ch=1 n=f#6 v=0
204135 On ch=1 n=d7 v=0
204135 On ch=1 n=a6 v=0
204642 On ch=1 n=c5 v=116
204721 On ch=1 n=d5 v=116
204732 On ch=1 n=c5 v=0
204803 On ch=1 n=c5 v=114
204814 On ch=1 n=d5 v=0
204883 On ch=1 n=b4 v=83
204892 On ch=1 n=c5 v=0
204937 On ch=1 n=b4 v=0
205121 On ch=1 n=a4 v=67
205196 On ch=1 n=b4 v=67
205201 On ch=1 n=a4 v=0
205277 On ch=1 n=a4 v=66
205289 On ch=1 n=b4 v=0
205360 On ch=1 n=g4 v=46
205362 On ch=1 n=a4 v=0
205436 On ch=1 n=g4 v=0
205839 On ch=1 n=g4 v=42
205893 On ch=1 n=g4 v=0
206805 On ch=1 n=g6 v=46
206805 On ch=1 n=b5 v=43
206805 On ch=1 n=d6 v=48
206805 On ch=1 n=g5 v=35
206879 On ch=1 n=g5 v=0
206881 On ch=1 n=b5 v=0
206882 On ch=1 n=d6 v=0
206884 On ch=1 n=g6 v=0
207278 On ch=1 n=g5 v=27
207279 On ch=1 n=b5 v=37
207279 On ch=1 n=g6 v=44
207279 On ch=1 n=d6 v=42
207349 On ch=1 n=b5 v=0
207349 On ch=1 n=g5 v=0
207352 On ch=1 n=d6 v=0
207352 On ch=1 n=g6 v=0
208242 On ch=1 n=g3 v=59
208309 On ch=1 n=g3 v=0
209202 On ch=1 n=g3 v=33
209277 On ch=1 n=g3 v=0
209277 Meta TrkEnd
TrkEnd
MTrk
0 SeqSpec 43 00 01 00
0 Meta TrkName "new"
0 Meta 0x21 00
0 Meta 0x20 01
0 Par ch=2 c=7 v=127
0 Par ch=2 c=10 v=64
0 PrCh ch=2 p=0
71050 On ch=2 n=f4 v=50
71052 On ch=2 n=d4 v=49
71526 On ch=2 n=e4 v=61
71542 On ch=2 n=d4 v=0
72039 Par ch=2 c=64 v=127
72039 Par ch=2 c=64 v=127
72041 Par ch=2 c=64 v=127
72169 On ch=2 n=e4 v=0
72416 On ch=2 n=f4 v=0
72493 On ch=2 n=f4 v=53
72496 On ch=2 n=d4 v=36
72506 Par ch=2 c=64 v=0
72506 Par ch=2 c=64 v=0
72506 Par ch=2 c=64 v=0
72819 Par ch=2 c=64 v=127
72819 Par ch=2 c=64 v=127
72819 Par ch=2 c=64 v=127
72831 On ch=2 n=d4 v=0
72947 On ch=2 n=c4 v=45
72975 Par ch=2 c=64 v=0
72975 Par ch=2 c=64 v=0
72975 Par ch=2 c=64 v=0
73248 Par ch=2 c=64 v=127
73248 Par ch=2 c=64 v=127
73248 Par ch=2 c=64 v=127
73296 On ch=2 n=c4 v=0
73306 On ch=2 n=f4 v=0
73440 On ch=2 n=f4 v=46
73444 Par ch=2 c=64 v=0
73444 Par ch=2 c=64 v=0
73444 Par ch=2 c=64 v=0
73446 On ch=2 n=b3 v=41
73815 Par ch=2 c=64 v=127
73815 Par ch=2 c=64 v=127
73817 Par ch=2 c=64 v=127
73868 On ch=2 n=b3 v=0
73934 On ch=2 n=a3 v=48
73952 Par ch=2 c=64 v=0
73952 Par ch=2 c=64 v=0
73952 Par ch=2 c=64 v=0
74167 Par ch=2 c=64 v=127
74167 Par ch=2 c=64 v=127
74167 Par ch=2 c=64 v=127
74209 On ch=2 n=f4 v=0
74211 On ch=2 n=a3 v=0
74404 On ch=2 n=f4 v=52
74409 On ch=2 n=g3 v=45
74419 Par ch=2 c=64 v=0
74419 Par ch=2 c=64 v=0
74419 Par ch=2 c=64 v=0
74672 Par ch=2 c=64 v=127
74672 Par ch=2 c=64 v=127
74672 Par ch=2 c=64 v=127
74709 On ch=2 n=g3 v=0
74874 On ch=2 n=a3 v=55
74888 Par ch=2 c=64 v=0
74888 Par ch=2 c=64 v=0
74889 Par ch=2 c=64 v=0
75104 Par ch=2 c=64 v=127
75104 Par ch=2 c=64 v=127
75104 Par ch=2 c=64 v=127
75149 On ch=2 n=a3 v=0
75181 On ch=2 n=f4 v=0
75351 On ch=2 n=f4 v=54
75354 On ch=2 n=b3 v=57
75357 Par ch=2 c=64 v=0
75357 Par ch=2 c=64 v=0
75357 Par ch=2 c=64 v=0
75667 Par ch=2 c=64 v=127
75671 Par ch=2 c=64 v=127
75671 Par ch=2 c=64 v=127
75728 On ch=2 n=b3 v=0
75847 On ch=2 n=c4 v=53
75866 Par ch=2 c=64 v=0
75866 Par ch=2 c=64 v=0
75866 Par ch=2 c=64 v=0
76080 Par ch=2 c=64 v=127
76080 Par ch=2 c=64 v=127
76080 Par ch=2 c=64 v=127
76135 On ch=2 n=c4 v=0
76144 On ch=2 n=f4 v=0
76326 On ch=2 n=f4 v=47
76329 On ch=2 n=d4 v=62
76333 Par ch=2 c=64 v=0
76333 Par ch=2 c=64 v=0
76336 Par ch=2 c=64 v=0
76796 On ch=2 n=e4 v=55
76803 On ch=2 n=d4 v=0
77056 Par ch=2 c=64 v=127
77056 Par ch=2 c=64 v=127
77059 Par ch=2 c=64 v=127
77129 On ch=2 n=e4 v=0
77129 On ch=2 n=f4 v=0
77273 On ch=2 n=f4 v=58
77278 On ch=2 n=d4 v=42
77293 Par ch=2 c=64 v=0
77293 Par ch=2 c=64 v=0
77293 Par ch=2 c=64 v=0
77508 Par ch=2 c=64 v=127
77508 Par ch=2 c=64 v=127
77508 Par ch=2 c=64 v=127
77568 On ch=2 n=d4 v=0
77587 On ch=2 n=f4 v=0
77645 Par ch=2 c=64 v=0
77645 Par ch=2 c=64 v=0
77645 Par ch=2 c=64 v=0
77745 On ch=2 n=f4 v=55
77748 On ch=2 n=d4 v=43
78227 On ch=2 n=g3 v=112
78525 Par ch=2 c=64 v=127
78525 Par ch=2 c=64 v=127
78525 Par ch=2 c=64 v=127
78563 On ch=2 n=f4 v=0
78569 On ch=2 n=d4 v=0
78579 On ch=2 n=g3 v=0
78717 Par ch=2 c=64 v=0
78717 Par ch=2 c=64 v=0
78717 Par ch=2 c=64 v=0
78726 On ch=2 n=f4 v=62
78730 On ch=2 n=a4 v=53
79008 Par ch=2 c=64 v=127
79011 Par ch=2 c=64 v=127
79011 Par ch=2 c=64 v=127
79069 On ch=2 n=a4 v=0
79085 On ch=2 n=f4 v=0
79184 On ch=2 n=g4 v=74
79188 On ch=2 n=e4 v=58
79206 Par ch=2 c=64 v=0
79206 Par ch=2 c=64 v=0
79206 Par ch=2 c=64 v=0
79687 On ch=2 n=g3 v=90
79940 On ch=2 n=g3 v=0
80147 On ch=2 n=g2 v=86
80397 Par ch=2 c=64 v=127
80397 Par ch=2 c=64 v=127
80397 Par ch=2 c=64 v=127
80451 On ch=2 n=g2 v=0
80461 On ch=2 n=g4 v=0
80465 On ch=2 n=e4 v=0
80496 Par ch=2 c=64 v=0
80496 Par ch=2 c=64 v=0
80496 Par ch=2 c=64 v=0
80628 On ch=2 n=f4 v=67
80628 On ch=2 n=a4 v=66
80907 Par ch=2 c=64 v=127
80907 Par ch=2 c=64 v=127
80907 Par ch=2 c=64 v=127
81028 On ch=2 n=a4 v=0
81034 On ch=2 n=f4 v=0
81102 On ch=2 n=g4 v=86
81104 On ch=2 n=e4 v=66
81120 Par ch=2 c=64 v=0
81120 Par ch=2 c=64 v=0
81120 Par ch=2 c=64 v=0
81610 On ch=2 n=g3 v=112
81805 On ch=2 n=g3 v=0
82071 On ch=2 n=g2 v=99
82144 On ch=2 n=e4 v=0
82147 On ch=2 n=g4 v=0
82371 On ch=2 n=g2 v=0
82548 On ch=2 n=f4 v=69
82598 On ch=2 n=f4 v=0
82788 On ch=2 n=g4 v=69
82843 On ch=2 n=g4 v=0
83030 On ch=2 n=a4 v=72
83094 On ch=2 n=a4 v=0
83265 On ch=2 n=b4 v=76
83301 On ch=2 n=b4 v=0
83506 On ch=2 n=c5 v=89
83577 On ch=2 n=c5 v=0
83742 On ch=2 n=d5 v=93
83812 On ch=2 n=d5 v=0
83991 On ch=2 n=e5 v=109
84075 On ch=2 n=e5 v=0
84231 On ch=2 n=f5 v=127
84263 On ch=2 n=f5 v=0
84477 On ch=2 n=g5 v=127
84657 On ch=2 n=g5 v=0
84714 On ch=2 n=a5 v=127
84754 On ch=2 n=a5 v=0
84960 On ch=2 n=a5 v=127
84989 On ch=2 n=a5 v=0
85204 On ch=2 n=a5 v=119
85242 On ch=2 n=a5 v=0
85437 On ch=2 n=f#5 v=127
85441 On ch=2 n=b4 v=83
85441 On ch=2 n=a5 v=127
85518 On ch=2 n=b4 v=0
85523 On ch=2 n=f#5 v=0
85526 On ch=2 n=a5 v=0
85674 On ch=2 n=a5 v=94
85678 On ch=2 n=b4 v=83
85678 On ch=2 n=f#5 v=127
85747 On ch=2 n=b4 v=0
85747 On ch=2 n=a5 v=0
85755 On ch=2 n=f#5 v=0
85893 On ch=2 n=b4 v=94
85893 On ch=2 n=f#5 v=127
85895 On ch=2 n=a5 v=74
85972 On ch=2 n=b4 v=0
85975 On ch=2 n=f#5 v=0
85981 On ch=2 n=a5 v=0
86138 On ch=2 n=f#5 v=127
86138 On ch=2 n=a5 v=99
86138 On ch=2 n=b4 v=74
86168 On ch=2 n=b4 v=0
86188 On ch=2 n=f#5 v=0
86211 On ch=2 n=a5 v=0
86401 On ch=2 n=g5 v=127
86401 On ch=2 n=f5 v=127
86401 On ch=2 n=d5 v=83
86609 Par ch=2 c=64 v=127
86609 Par ch=2 c=64 v=127
86609 Par ch=2 c=64 v=127
86647 On ch=2 n=d5 v=0
86653 On ch=2 n=g5 v=0
86656 On ch=2 n=f5 v=0
86861 On ch=2 n=f5 v=83
86861 On ch=2 n=e5 v=66
86861 On ch=2 n=a5 v=77
86883 Par ch=2 c=64 v=0
86883 Par ch=2 c=64 v=0
86883 Par ch=2 c=64 v=0
87409 Par ch=2 c=64 v=127
87411 Par ch=2 c=64 v=127
87411 Par ch=2 c=64 v=127
87620 On ch=2 n=e5 v=0
87627 On ch=2 n=f5 v=0
87636 On ch=2 n=a5 v=0
87831 On ch=2 n=f5 v=42
87831 On ch=2 n=g5 v=42
87831 On ch=2 n=d5 v=41
87860 Par ch=2 c=64 v=0
87860 Par ch=2 c=64 v=0
87860 Par ch=2 c=64 v=0
87888 On ch=2 n=d5 v=0
87895 On ch=2 n=f5 v=0
87899 On ch=2 n=g5 v=0
88312 On ch=2 n=f5 v=57
88312 On ch=2 n=g5 v=49
88319 On ch=2 n=c5 v=43
88355 On ch=2 n=c5 v=0
88359 On ch=2 n=g5 v=0
88359 On ch=2 n=f5 v=0
88800 On ch=2 n=f5 v=62
88800 On ch=2 n=b4 v=41
88800 On ch=2 n=g5 v=58
88835 On ch=2 n=b4 v=0
88842 On ch=2 n=f5 v=0
88845 On ch=2 n=g5 v=0
89277 On ch=2 n=f5 v=62
89277 On ch=2 n=a4 v=52
89277 On ch=2 n=g5 v=59
89312 On ch=2 n=a4 v=0
89322 On ch=2 n=f5 v=0
89325 On ch=2 n=g5 v=0
89751 On ch=2 n=g4 v=44
89754 On ch=2 n=f5 v=57
89754 On ch=2 n=g5 v=58
89796 On ch=2 n=g4 v=0
89806 On ch=2 n=f5 v=0
89809 On ch=2 n=g5 v=0
90221 On ch=2 n=f5 v=54
90224 On ch=2 n=g5 v=58
90224 On ch=2 n=a4 v=40
90263 On ch=2 n=a4 v=0
90279 On ch=2 n=g5 v=0
90279 On ch=2 n=f5 v=0
90705 On ch=2 n=b4 v=40
90705 On ch=2 n=f5 v=54
90705 On ch=2 n=g5 v=59
90757 On ch=2 n=b4 v=0
90766 On ch=2 n=f5 v=0
90768 On ch=2 n=g5 v=0
91188 On ch=2 n=c5 v=39
91194 On ch=2 n=g5 v=48
91194 On ch=2 n=f5 v=50
91236 On ch=2 n=c5 v=0
91243 On ch=2 n=f5 v=0
91245 On ch=2 n=g5 v=0
91658 On ch=2 n=d5 v=46
91662 On ch=2 n=f5 v=52
91662 On ch=2 n=g5 v=55
91700 On ch=2 n=d5 v=0
91710 On ch=2 n=f5 v=0
91714 On ch=2 n=g5 v=0
92145 On ch=2 n=d5 v=55
92145 On ch=2 n=g5 v=58
92145 On ch=2 n=f5 v=66
92466 On ch=2 n=f5 v=0
92469 On ch=2 n=g5 v=0
92469 On ch=2 n=d5 v=0
92645 On ch=2 n=g5 v=72
92647 On ch=2 n=d5 v=59
92647 On ch=2 n=f5 v=72
92913 Par ch=2 c=64 v=127
92913 Par ch=2 c=64 v=127
92913 Par ch=2 c=64 v=127
93032 On ch=2 n=d5 v=0
93034 On ch=2 n=f5 v=0
93034 On ch=2 n=g5 v=0
93131 On ch=2 n=d5 v=67
93131 On ch=2 n=g5 v=94
93131 On ch=2 n=f5 v=99
93150 Par ch=2 c=64 v=0
93150 Par ch=2 c=64 v=0
93150 Par ch=2 c=64 v=0
93582 On ch=2 n=g4 v=127
93735 On ch=2 n=f5 v=0
93738 On ch=2 n=d5 v=0
93742 On ch=2 n=g5 v=0
94010 Par ch=2 c=64 v=127
94010 Par ch=2 c=64 v=127
94010 Par ch=2 c=64 v=127
94014 On ch=2 n=g4 v=0
94047 On ch=2 n=g#4 v=43
94047 On ch=2 n=b3 v=54
94068 Par ch=2 c=64 v=0
94068 Par ch=2 c=64 v=0
94068 Par ch=2 c=64 v=0
94420 Par ch=2 c=64 v=127
94420 Par ch=2 c=64 v=127
94420 Par ch=2 c=64 v=127
94540 On ch=2 n=a4 v=62
94558 Par ch=2 c=64 v=0
94558 Par ch=2 c=64 v=0
94558 Par ch=2 c=64 v=0
94568 On ch=2 n=g#4 v=0
95012 On ch=2 n=f#4 v=53
95043 On ch=2 n=a4 v=0
95502 On ch=2 n=g4 v=58
95524 On ch=2 n=f#4 v=0
95788 Par ch=2 c=64 v=127
95790 Par ch=2 c=64 v=127
95790 Par ch=2 c=64 v=127
95818 On ch=2 n=g4 v=0
95825 On ch=2 n=b3 v=0
95985 Par ch=2 c=64 v=0
95985 Par ch=2 c=64 v=0
95985 Par ch=2 c=64 v=0
95988 On ch=2 n=g#4 v=72
95988 On ch=2 n=b3 v=43
96449 On ch=2 n=a4 v=61
96469 On ch=2 n=g#4 v=0
96952 On ch=2 n=f#4 v=48
96985 On ch=2 n=a4 v=0
97428 On ch=2 n=g4 v=54
97451 On ch=2 n=f#4 v=0
97723 Par ch=2 c=64 v=127
97723 Par ch=2 c=64 v=127
97726 Par ch=2 c=64 v=127
97761 On ch=2 n=g4 v=0
97767 On ch=2 n=b3 v=0
97899 On ch=2 n=g#4 v=74
97899 Par ch=2 c=64 v=0
97899 Par ch=2 c=64 v=0
97899 Par ch=2 c=64 v=0
97906 On ch=2 n=b3 v=66
98389 On ch=2 n=a4 v=72
98405 On ch=2 n=g#4 v=0
98860 On ch=2 n=b4 v=58
98878 On ch=2 n=a4 v=0
99349 On ch=2 n=c#5 v=67
99374 On ch=2 n=b4 v=0
99582 Par ch=2 c=64 v=127
99582 Par ch=2 c=64 v=127
99582 Par ch=2 c=64 v=127
99585 On ch=2 n=b3 v=0
99611 On ch=2 n=c#5 v=0
99822 On ch=2 n=d#5 v=90
99829 On ch=2 n=b4 v=40
99835 Par ch=2 c=64 v=0
99835 Par ch=2 c=64 v=0
99835 Par ch=2 c=64 v=0
100299 On ch=2 n=e5 v=67
100316 On ch=2 n=d#5 v=0
100772 On ch=2 n=f#5 v=67
100798 On ch=2 n=e5 v=0
101125 Par ch=2 c=64 v=127
101125 Par ch=2 c=64 v=127
101126 Par ch=2 c=64 v=127
101204 On ch=2 n=f#5 v=0
101272 On ch=2 n=g5 v=99
101281 Par ch=2 c=64 v=0
101281 Par ch=2 c=64 v=0
101281 Par ch=2 c=64 v=0
101380 Par ch=2 c=64 v=127
101380 Par ch=2 c=64 v=127
101380 Par ch=2 c=64 v=127
101461 On ch=2 n=g5 v=0
101463 On ch=2 n=b4 v=0
101595 Par ch=2 c=64 v=0
101595 Par ch=2 c=64 v=0
101595 Par ch=2 c=64 v=0
101615 Par ch=2 c=64 v=127
101615 Par ch=2 c=64 v=127
101615 Par ch=2 c=64 v=127
101633 Par ch=2 c=64 v=0
101633 Par ch=2 c=64 v=0
101637 Par ch=2 c=64 v=0
101740 On ch=2 n=g#4 v=42
101742 On ch=2 n=b3 v=36
102210 On ch=2 n=a4 v=43
102226 On ch=2 n=g#4 v=0
102711 On ch=2 n=f#4 v=46
102743 On ch=2 n=a4 v=0
103173 On ch=2 n=g4 v=42
103195 On ch=2 n=f#4 v=0
103432 Par ch=2 c=64 v=127
103432 Par ch=2 c=64 v=127
103432 Par ch=2 c=64 v=127
103496 On ch=2 n=b3 v=0
103516 On ch=2 n=g4 v=0
103668 On ch=2 n=g#4 v=67
103668 Par ch=2 c=64 v=0
103668 Par ch=2 c=64 v=0
103668 Par ch=2 c=64 v=0
103668 On ch=2 n=b3 v=46
103941 Par ch=2 c=64 v=127
103941 Par ch=2 c=64 v=127
103941 Par ch=2 c=64 v=127
104142 On ch=2 n=a4 v=59
104152 Par ch=2 c=64 v=0
104152 Par ch=2 c=64 v=0
104155 Par ch=2 c=64 v=0
104159 On ch=2 n=g#4 v=0
104385 Par ch=2 c=64 v=127
104388 Par ch=2 c=64 v=127
104388 Par ch=2 c=64 v=127
104622 Par ch=2 c=64 v=0
104622 Par ch=2 c=64 v=0
104622 Par ch=2 c=64 v=0
104627 On ch=2 n=f#4 v=46
104655 On ch=2 n=a4 v=0
104995 On ch=2 n=b3 v=0
105086 On ch=2 n=f#4 v=0
105579 On ch=2 n=a#3 v=47
105582 On ch=2 n=g4 v=72
106063 On ch=2 n=g#4 v=64
106088 On ch=2 n=g4 v=0
106545 On ch=2 n=a#4 v=50
106593 On ch=2 n=g#4 v=0
107003 On ch=2 n=c5 v=62
107026 On ch=2 n=a#4 v=0
107262 Par ch=2 c=64 v=127
107262 Par ch=2 c=64 v=127
107262 Par ch=2 c=64 v=127
107279 On ch=2 n=a#3 v=0
107349 On ch=2 n=c5 v=0
107512 On ch=2 n=a#4 v=54
107512 On ch=2 n=d5 v=105
107534 Par ch=2 c=64 v=0
107534 Par ch=2 c=64 v=0
107534 Par ch=2 c=64 v=0
107828 Par ch=2 c=64 v=127
107828 Par ch=2 c=64 v=127
107828 Par ch=2 c=64 v=127
107905 Par ch=2 c=64 v=0
107905 Par ch=2 c=64 v=0
107908 Par ch=2 c=64 v=0
107960 On ch=2 n=d#5 v=112
107980 On ch=2 n=d5 v=0
108463 On ch=2 n=f5 v=99
108487 On ch=2 n=d#5 v=0
108949 On ch=2 n=g#5 v=99
108982 On ch=2 n=f5 v=0
109158 On ch=2 n=g#5 v=0
109158 Par ch=2 c=64 v=127
109158 Par ch=2 c=64 v=127
109159 Par ch=2 c=64 v=127
109201 On ch=2 n=a#4 v=0
109415 On ch=2 n=d#5 v=55
109415 On ch=2 n=g5 v=55
109452 Par ch=2 c=64 v=0
109452 Par ch=2 c=64 v=0
109452 Par ch=2 c=64 v=0
111227 On ch=2 n=d#5 v=0
111234 On ch=2 n=g5 v=0
111333 On ch=2 n=a#4 v=79
113108 Par ch=2 c=64 v=127
113108 Par ch=2 c=64 v=127
113108 Par ch=2 c=64 v=127
113111 On ch=2 n=a#4 v=0
113259 On ch=2 n=d#4 v=94
113281 Par ch=2 c=64 v=0
113284 Par ch=2 c=64 v=0
113284 Par ch=2 c=64 v=0
114671 Par ch=2 c=64 v=127
114671 Par ch=2 c=64 v=127
114671 Par ch=2 c=64 v=127
114895 On ch=2 n=d#4 v=0
115121 Par ch=2 c=64 v=0
115121 Par ch=2 c=64 v=0
115121 Par ch=2 c=64 v=0
115185 On ch=2 n=a#3 v=59
115942 Par ch=2 c=64 v=127
115942 Par ch=2 c=64 v=127
115943 Par ch=2 c=64 v=127
116039 On ch=2 n=a#3 v=0
116149 On ch=2 n=d#3 v=55
116177 Par ch=2 c=64 v=0
116177 Par ch=2 c=64 v=0
116177 Par ch=2 c=64 v=0
116431 Par ch=2 c=64 v=127
116431 Par ch=2 c=64 v=127
116431 Par ch=2 c=64 v=127
116446 On ch=2 n=d#3 v=0
116644 Par ch=2 c=64 v=0
116644 Par ch=2 c=64 v=0
116644 Par ch=2 c=64 v=0
116888 On ch=2 n=g3 v=34
116977 On ch=2 n=d4 v=32
117081 On ch=2 n=b4 v=41
118178 On ch=2 n=b4 v=0
118178 On ch=2 n=d4 v=0
118178 On ch=2 n=g3 v=0
118532 On ch=2 n=g4 v=38
118540 On ch=2 n=c4 v=44
118712 On ch=2 n=c4 v=0
118722 On ch=2 n=g4 v=0
118862 On ch=2 n=g3 v=54
118948 On ch=2 n=d4 v=31
119055 On ch=2 n=b4 v=57
120180 On ch=2 n=d4 v=0
120184 On ch=2 n=g3 v=0
120187 On ch=2 n=b4 v=0
120443 On ch=2 n=g4 v=41
120443 On ch=2 n=c4 v=42
120599 On ch=2 n=c4 v=0
120609 On ch=2 n=g4 v=0
120932 On ch=2 n=g4 v=50
120936 On ch=2 n=b3 v=39
121227 On ch=2 n=b3 v=0
121230 On ch=2 n=g4 v=0
121409 On ch=2 n=g4 v=69
121414 On ch=2 n=c4 v=44
121662 On ch=2 n=c4 v=0
121672 On ch=2 n=g4 v=0
121871 On ch=2 n=g4 v=86
121873 On ch=2 n=b3 v=46
122161 On ch=2 n=b3 v=0
122165 On ch=2 n=g4 v=0
122363 On ch=2 n=c4 v=127
122363 On ch=2 n=g4 v=83
122559 On ch=2 n=c4 v=0
122580 On ch=2 n=g4 v=0
122830 On ch=2 n=g4 v=83
122830 On ch=2 n=a4 v=90
122833 On ch=2 n=c#4 v=119
123099 On ch=2 n=c#4 v=0
123099 On ch=2 n=a4 v=0
123099 On ch=2 n=g4 v=0
123208 On ch=2 n=d4 v=105
123269 On ch=2 n=c5 v=99
123342 On ch=2 n=f#5 v=127
123542 Par ch=2 c=64 v=127
123542 Par ch=2 c=64 v=127
123542 Par ch=2 c=64 v=127
123544 On ch=2 n=c5 v=0
123551 On ch=2 n=f#5 v=0
123551 On ch=2 n=d4 v=0
123788 On ch=2 n=c6 v=90
123788 On ch=2 n=a5 v=74
123788 On ch=2 n=d5 v=83
123795 Par ch=2 c=64 v=0
123795 Par ch=2 c=64 v=0
123797 Par ch=2 c=64 v=0
124187 Par ch=2 c=64 v=127
124187 Par ch=2 c=64 v=127
124187 Par ch=2 c=64 v=127
124252 On ch=2 n=d5 v=0
124259 On ch=2 n=c6 v=0
124261 On ch=2 n=a5 v=0
124285 Par ch=2 c=64 v=0
124285 Par ch=2 c=64 v=0
124285 Par ch=2 c=64 v=0
124614 On ch=2 n=g3 v=35
124690 On ch=2 n=d4 v=33
124792 On ch=2 n=b4 v=58
125698 On ch=2 n=g3 v=0
125701 On ch=2 n=d4 v=0
125708 On ch=2 n=b4 v=0
126200 On ch=2 n=g4 v=36
126211 On ch=2 n=c4 v=46
126394 On ch=2 n=c4 v=0
126415 On ch=2 n=g4 v=0
126540 On ch=2 n=g3 v=34
126626 On ch=2 n=d4 v=40
126716 On ch=2 n=b4 v=39
127644 On ch=2 n=b4 v=0
127644 On ch=2 n=d4 v=0
127650 On ch=2 n=g3 v=0
128105 On ch=2 n=g4 v=55
128110 On ch=2 n=c4 v=49
128242 On ch=2 n=c4 v=0
128248 On ch=2 n=g4 v=0
128623 On ch=2 n=g4 v=51
128623 On ch=2 n=b3 v=52
128793 On ch=2 n=b3 v=0
128819 On ch=2 n=g4 v=0
129093 On ch=2 n=g4 v=59
129093 On ch=2 n=c4 v=53
129257 On ch=2 n=c4 v=0
129269 On ch=2 n=g4 v=0
129541 On ch=2 n=g4 v=64
129541 On ch=2 n=a4 v=74
129541 On ch=2 n=c#4 v=94
129973 On ch=2 n=c#4 v=0
129995 On ch=2 n=a4 v=0
129995 On ch=2 n=g4 v=0
130531 On ch=2 n=g4 v=61
130533 On ch=2 n=b3 v=59
130837 On ch=2 n=b3 v=0
130841 On ch=2 n=g4 v=0
130997 On ch=2 n=g4 v=105
131001 On ch=2 n=c4 v=90
131167 On ch=2 n=c4 v=0
131197 On ch=2 n=g4 v=0
131474 On ch=2 n=g4 v=105
131474 On ch=2 n=a4 v=127
131474 On ch=2 n=c#4 v=127
131852 On ch=2 n=g4 v=0
131858 On ch=2 n=a4 v=0
131862 On ch=2 n=c#4 v=0
132450 On ch=2 n=a5 v=79
132450 On ch=2 n=d6 v=75
132450 On ch=2 n=f#5 v=75
132594 On ch=2 n=d6 v=0
132594 On ch=2 n=a5 v=0
132597 On ch=2 n=f#5 v=0
132928 On ch=2 n=g5 v=71
132928 On ch=2 n=b5 v=71
132928 On ch=2 n=e5 v=71
133055 On ch=2 n=e5 v=0
133065 On ch=2 n=b5 v=0
133065 On ch=2 n=g5 v=0
133417 On ch=2 n=d5 v=78
133417 On ch=2 n=a4 v=78
133417 On ch=2 n=f#4 v=78
133580 On ch=2 n=f#4 v=0
133587 On ch=2 n=d5 v=0
133589 On ch=2 n=a4 v=0
133878 On ch=2 n=g4 v=67
133878 On ch=2 n=b4 v=67
133878 On ch=2 n=e4 v=67
134001 On ch=2 n=e4 v=0
134013 On ch=2 n=b4 v=0
134019 On ch=2 n=g4 v=0
134351 On ch=2 n=f#4 v=64
134358 On ch=2 n=a3 v=46
134844 On ch=2 n=g4 v=47
134861 On ch=2 n=f#4 v=0
135081 On ch=2 n=g4 v=0
135093 On ch=2 n=a4 v=52
135273 On ch=2 n=a3 v=0
135298 On ch=2 n=a4 v=0
135334 On ch=2 n=f#4 v=74
135455 On ch=2 n=f#4 v=0
135570 On ch=2 n=d4 v=127
135622 On ch=2 n=d4 v=0
135804 On ch=2 n=a3 v=67
135894 On ch=2 n=a3 v=0
136043 On ch=2 n=d3 v=55
136130 On ch=2 n=d3 v=0
136287 On ch=2 n=f2 v=75
136287 On ch=2 n=f3 v=75
137234 On ch=2 n=f4 v=59
137240 On ch=2 n=f3 v=0
137240 On ch=2 n=f2 v=0
138215 On ch=2 n=c5 v=66
138959 Par ch=2 c=64 v=127
138959 Par ch=2 c=64 v=127
138962 Par ch=2 c=64 v=127
139049 On ch=2 n=f4 v=0
139065 On ch=2 n=c5 v=0
139174 On ch=2 n=f5 v=47
139174 On ch=2 n=d5 v=46
139176 On ch=2 n=g4 v=39
139212 Par ch=2 c=64 v=0
139215 Par ch=2 c=64 v=0
139215 Par ch=2 c=64 v=0
139680 On ch=2 n=d5 v=0
139682 On ch=2 n=f5 v=0
139685 On ch=2 n=g4 v=0
140117 On ch=2 n=f3 v=75
140117 On ch=2 n=f2 v=75
140885 On ch=2 n=f2 v=0
140885 On ch=2 n=f3 v=0
141069 On ch=2 n=f4 v=69
142052 On ch=2 n=c5 v=53
142888 Par ch=2 c=64 v=127
142888 Par ch=2 c=64 v=127
142891 Par ch=2 c=64 v=127
142923 On ch=2 n=c5 v=0
142946 On ch=2 n=f4 v=0
143017 On ch=2 n=d5 v=57
143020 On ch=2 n=f5 v=66
143024 On ch=2 n=g4 v=49
143047 Par ch=2 c=64 v=0
143047 Par ch=2 c=64 v=0
143047 Par ch=2 c=64 v=0
143794 On ch=2 n=g4 v=0
143800 On ch=2 n=f5 v=0
143800 On ch=2 n=d5 v=0
155490 On ch=2 n=g3 v=72
155490 On ch=2 n=g2 v=72
155954 On ch=2 n=d4 v=57
156026 On ch=2 n=d4 v=0
156208 On ch=2 n=g4 v=61
156252 On ch=2 n=g4 v=0
156448 On ch=2 n=b4 v=55
156831 On ch=2 n=b4 v=0
156917 On ch=2 n=d5 v=64
156969 On ch=2 n=d5 v=0
157167 On ch=2 n=e5 v=58
157218 On ch=2 n=e5 v=0
157408 On ch=2 n=g5 v=59
157419 On ch=2 n=g2 v=0
157419 On ch=2 n=g3 v=0
157775 On ch=2 n=g5 v=0
157880 On ch=2 n=b5 v=57
158095 On ch=2 n=b5 v=0
158361 On ch=2 n=a5 v=52
158361 On ch=2 n=c6 v=53
158361 On ch=2 n=g5 v=49
158368 On ch=2 n=d5 v=41
159087 On ch=2 n=d5 v=0
159094 On ch=2 n=a5 v=0
159097 On ch=2 n=g5 v=0
159100 On ch=2 n=c6 v=0
159317 On ch=2 n=g2 v=78
159317 On ch=2 n=g3 v=78
159807 On ch=2 n=d4 v=61
159859 On ch=2 n=d4 v=0
160051 On ch=2 n=g4 v=55
160095 On ch=2 n=g4 v=0
160278 On ch=2 n=b4 v=72
160572 On ch=2 n=b4 v=0
160755 On ch=2 n=d5 v=67
160805 On ch=2 n=d5 v=0
160996 On ch=2 n=g5 v=59
161046 On ch=2 n=g5 v=0
161237 On ch=2 n=g3 v=0
161237 On ch=2 n=g2 v=0
161251 On ch=2 n=b5 v=41
161354 On ch=2 n=b5 v=0
163173 On ch=2 n=f2 v=95
163173 On ch=2 n=f3 v=95
163644 On ch=2 n=c4 v=77
163701 On ch=2 n=c4 v=0
163887 On ch=2 n=f4 v=66
163932 On ch=2 n=f4 v=0
164127 On ch=2 n=a4 v=54
164416 On ch=2 n=a4 v=0
164595 On ch=2 n=c5 v=64
164657 On ch=2 n=c5 v=0
164845 On ch=2 n=d5 v=66
164889 On ch=2 n=d5 v=0
165092 On ch=2 n=f5 v=58
165093 On ch=2 n=f3 v=0
165093 On ch=2 n=f2 v=0
165428 On ch=2 n=f5 v=0
165562 On ch=2 n=a5 v=49
165808 On ch=2 n=a5 v=0
166041 On ch=2 n=g5 v=52
166041 On ch=2 n=b5 v=48
166041 On ch=2 n=f5 v=50
166051 On ch=2 n=c5 v=41
166557 On ch=2 n=c5 v=0
166562 On ch=2 n=f5 v=0
166562 On ch=2 n=g5 v=0
166566 On ch=2 n=b5 v=0
167016 On ch=2 n=f3 v=80
167020 On ch=2 n=f2 v=80
167487 On ch=2 n=c4 v=51
167551 On ch=2 n=c4 v=0
167735 On ch=2 n=f4 v=55
167785 On ch=2 n=f4 v=0
167967 On ch=2 n=a4 v=53
168223 On ch=2 n=a4 v=0
168440 On ch=2 n=c5 v=49
168511 On ch=2 n=c5 v=0
168693 On ch=2 n=f5 v=59
168741 On ch=2 n=f5 v=0
168933 On ch=2 n=a5 v=39
168936 On ch=2 n=f3 v=0
168940 On ch=2 n=f2 v=0
169015 On ch=2 n=a5 v=0
170825 On ch=2 n=c3 v=70
171000 On ch=2 n=d3 v=70
171017 On ch=2 n=c3 v=0
171142 On ch=2 n=e3 v=64
171148 On ch=2 n=d3 v=0
171306 On ch=2 n=d3 v=58
171334 On ch=2 n=e3 v=0
172034 On ch=2 n=g3 v=52
172044 On ch=2 n=d3 v=0
172194 On ch=2 n=g3 v=0
172284 On ch=2 n=e3 v=67
172404 On ch=2 n=e3 v=0
172514 On ch=2 n=d3 v=46
172644 On ch=2 n=d3 v=0
172779 On ch=2 n=c3 v=41
172912 On ch=2 n=c3 v=0
173237 On ch=2 n=d3 v=60
173282 On ch=2 n=d3 v=0
173712 On ch=2 n=e3 v=60
173773 On ch=2 n=e3 v=0
174208 On ch=2 n=f3 v=70
174306 On ch=2 n=f3 v=0
174697 On ch=2 n=e3 v=80
174825 On ch=2 n=e3 v=0
175151 On ch=2 n=f3 v=90
175315 On ch=2 n=f3 v=0
175645 On ch=2 n=g3 v=57
175775 On ch=2 n=g3 v=0
176130 On ch=2 n=a#3 v=54
176261 On ch=2 n=a#3 v=0
176576 On ch=2 n=a3 v=69
176668 On ch=2 n=a3 v=0
177084 On ch=2 n=a#3 v=127
177164 On ch=2 n=a#3 v=0
177555 On ch=2 n=c4 v=66
177641 On ch=2 n=c4 v=0
178051 On ch=2 n=d4 v=53
178134 On ch=2 n=d4 v=0
178522 On ch=2 n=e4 v=61
178639 On ch=2 n=e4 v=0
179007 On ch=2 n=f4 v=61
179420 On ch=2 n=f4 v=0
179476 On ch=2 n=g4 v=53
179871 On ch=2 n=g4 v=0
179959 On ch=2 n=g#4 v=72
180220 On ch=2 n=g#4 v=0
180431 On ch=2 n=a4 v=54
180614 On ch=2 n=a4 v=0
180908 On ch=2 n=a#4 v=57
181213 On ch=2 n=a#4 v=0
181388 On ch=2 n=b4 v=67
181554 On ch=2 n=b4 v=0
181884 On ch=2 n=c5 v=57
182029 On ch=2 n=c5 v=0
182358 On ch=2 n=d5 v=61
182460 On ch=2 n=d5 v=0
182844 On ch=2 n=e5 v=61
183220 On ch=2 n=e5 v=0
183327 On ch=2 n=f5 v=59
183490 On ch=2 n=f5 v=0
183810 On ch=2 n=g5 v=55
184000 On ch=2 n=g5 v=0
184284 On ch=2 n=d5 v=50
184284 On ch=2 n=e5 v=59
184754 On ch=2 n=f#5 v=79
184860 On ch=2 n=e5 v=0
184925 On ch=2 n=f#5 v=0
185261 On ch=2 n=g5 v=52
185720 On ch=2 n=a5 v=62
185743 On ch=2 n=g5 v=0
185916 Par ch=2 c=64 v=127
185916 Par ch=2 c=64 v=127
185916 Par ch=2 c=64 v=127
185949 On ch=2 n=a5 v=0
185958 On ch=2 n=d5 v=0
186217 On ch=2 n=d5 v=61
186217 On ch=2 n=c5 v=51
186227 Par ch=2 c=64 v=0
186227 Par ch=2 c=64 v=0
186227 Par ch=2 c=64 v=0
186423 Par ch=2 c=64 v=127
186423 Par ch=2 c=64 v=127
186423 Par ch=2 c=64 v=127
186458 On ch=2 n=d5 v=0
186480 On ch=2 n=c5 v=0
186669 On ch=2 n=d5 v=72
186671 On ch=2 n=b4 v=52
186697 Par ch=2 c=64 v=0
186697 Par ch=2 c=64 v=0
186697 Par ch=2 c=64 v=0
186950 Par ch=2 c=64 v=127
186950 Par ch=2 c=64 v=127
186950 Par ch=2 c=64 v=127
186972 On ch=2 n=b4 v=0
186988 On ch=2 n=d5 v=0
187168 On ch=2 n=a4 v=49
187168 On ch=2 n=d5 v=67
187183 Par ch=2 c=64 v=0
187186 Par ch=2 c=64 v=0
187186 Par ch=2 c=64 v=0
187379 Par ch=2 c=64 v=127
187381 Par ch=2 c=64 v=127
187381 Par ch=2 c=64 v=127
187411 On ch=2 n=a4 v=0
187420 On ch=2 n=d5 v=0
187631 Par ch=2 c=64 v=0
187635 Par ch=2 c=64 v=0
187635 Par ch=2 c=64 v=0
187638 On ch=2 n=g4 v=44
187641 On ch=2 n=d5 v=83
187807 Par ch=2 c=64 v=127
187811 Par ch=2 c=64 v=127
187811 Par ch=2 c=64 v=127
187949 On ch=2 n=g4 v=0
187958 On ch=2 n=d5 v=0
188110 On ch=2 n=d5 v=105
188116 On ch=2 n=f#4 v=79
188140 Par ch=2 c=64 v=0
188140 Par ch=2 c=64 v=0
188140 Par ch=2 c=64 v=0
188356 Par ch=2 c=64 v=127
188356 Par ch=2 c=64 v=127
188356 Par ch=2 c=64 v=127
188386 On ch=2 n=f#4 v=0
188410 On ch=2 n=d5 v=0
188604 On ch=2 n=e4 v=62
188607 On ch=2 n=d5 v=119
188607 Par ch=2 c=64 v=0
188607 Par ch=2 c=64 v=0
188607 Par ch=2 c=64 v=0
188883 Par ch=2 c=64 v=127
188883 Par ch=2 c=64 v=127
188883 Par ch=2 c=64 v=127
188969 On ch=2 n=d5 v=0
188979 On ch=2 n=e4 v=0
189067 On ch=2 n=d4 v=99
189067 On ch=2 n=d5 v=127
189075 Par ch=2 c=64 v=0
189075 Par ch=2 c=64 v=0
189075 Par ch=2 c=64 v=0
189251 Par ch=2 c=64 v=127
189251 Par ch=2 c=64 v=127
189251 Par ch=2 c=64 v=127
189302 On ch=2 n=d5 v=0
189328 Par ch=2 c=64 v=0
189331 On ch=2 n=d4 v=0
189331 Par ch=2 c=64 v=0
189331 Par ch=2 c=64 v=0
189552 On ch=2 n=d5 v=127
189555 On ch=2 n=d4 v=105
189555 On ch=2 n=c5 v=127
189643 Par ch=2 c=64 v=127
189643 Par ch=2 c=64 v=127
189643 Par ch=2 c=64 v=127
189693 On ch=2 n=d4 v=0
189721 On ch=2 n=d5 v=0
189724 On ch=2 n=c5 v=0
190016 On ch=2 n=g3 v=127
190016 On ch=2 n=g2 v=127
190031 Par ch=2 c=64 v=0
190031 Par ch=2 c=64 v=0
190036 Par ch=2 c=64 v=0
190774 Par ch=2 c=64 v=127
190777 Par ch=2 c=64 v=127
190777 Par ch=2 c=64 v=127
190899 On ch=2 n=g2 v=0
190899 On ch=2 n=g3 v=0
190989 On ch=2 n=d4 v=83
190989 On ch=2 n=g4 v=127
190992 Par ch=2 c=64 v=0
190992 Par ch=2 c=64 v=0
190992 Par ch=2 c=64 v=0
191616 Par ch=2 c=64 v=127
191616 Par ch=2 c=64 v=127
191616 Par ch=2 c=64 v=127
191712 On ch=2 n=g4 v=0
191967 On ch=2 n=a4 v=61
191967 On ch=2 n=c5 v=77
191967 On ch=2 n=g4 v=53
191967 Par ch=2 c=64 v=0
191967 Par ch=2 c=64 v=0
191967 Par ch=2 c=64 v=0
192282 Par ch=2 c=64 v=127
192282 Par ch=2 c=64 v=127
192282 Par ch=2 c=64 v=127
192433 On ch=2 n=a4 v=0
192440 On ch=2 n=g4 v=0
192448 On ch=2 n=c5 v=0
192899 On ch=2 n=d5 v=66
192902 On ch=2 n=c5 v=62
192902 On ch=2 n=a4 v=53
192927 Par ch=2 c=64 v=0
192927 Par ch=2 c=64 v=0
192927 Par ch=2 c=64 v=0
193322 On ch=2 n=d4 v=0
193331 On ch=2 n=a4 v=0
193331 On ch=2 n=c5 v=0
193331 On ch=2 n=d5 v=0
193881 On ch=2 n=g2 v=127
193881 On ch=2 n=g3 v=127
194569 Par ch=2 c=64 v=127
194569 Par ch=2 c=64 v=127
194569 Par ch=2 c=64 v=127
194589 Par ch=2 c=64 v=0
194589 Par ch=2 c=64 v=0
194589 Par ch=2 c=64 v=0
194764 On ch=2 n=g3 v=0
194764 On ch=2 n=g2 v=0
194825 On ch=2 n=g4 v=83
194825 On ch=2 n=d4 v=59
195527 Par ch=2 c=64 v=127
195527 Par ch=2 c=64 v=127
195527 Par ch=2 c=64 v=127
195588 On ch=2 n=g4 v=0
195808 On ch=2 n=g4 v=49
195808 On ch=2 n=a4 v=55
195808 On ch=2 n=c5 v=57
195820 Par ch=2 c=64 v=0
195820 Par ch=2 c=64 v=0
195820 Par ch=2 c=64 v=0
196111 Par ch=2 c=64 v=127
196115 Par ch=2 c=64 v=127
196115 Par ch=2 c=64 v=127
196176 On ch=2 n=a4 v=0
196179 On ch=2 n=g4 v=0
196199 On ch=2 n=c5 v=0
196749 On ch=2 n=d5 v=62
196749 On ch=2 n=a4 v=49
196749 On ch=2 n=c5 v=55
196777 Par ch=2 c=64 v=0
196777 Par ch=2 c=64 v=0
196777 Par ch=2 c=64 v=0
197012 Par ch=2 c=64 v=127
197012 Par ch=2 c=64 v=127
197014 Par ch=2 c=64 v=127
197068 On ch=2 n=c5 v=0
197068 On ch=2 n=a4 v=0
197078 On ch=2 n=d5 v=0
197078 On ch=2 n=d4 v=0
197639 Par ch=2 c=64 v=0
197639 Par ch=2 c=64 v=0
197639 Par ch=2 c=64 v=0
197721 On ch=2 n=d#5 v=57
197721 On ch=2 n=f#5 v=74
197721 On ch=2 n=b4 v=52
198080 On ch=2 n=b4 v=0
198083 On ch=2 n=d#5 v=0
198087 On ch=2 n=f#5 v=0
199165 On ch=2 n=g#5 v=79
199165 On ch=2 n=g#4 v=51
199165 On ch=2 n=b4 v=72
199165 On ch=2 n=d#5 v=52
199300 Par ch=2 c=64 v=127
199300 Par ch=2 c=64 v=127
199300 Par ch=2 c=64 v=127
199340 On ch=2 n=b4 v=0
199350 On ch=2 n=d#5 v=0
199354 On ch=2 n=g#4 v=0
199360 On ch=2 n=g#5 v=0
199475 Par ch=2 c=64 v=0
199475 Par ch=2 c=64 v=0
199475 Par ch=2 c=64 v=0
199635 On ch=2 n=d#5 v=83
199635 On ch=2 n=f#5 v=105
199635 On ch=2 n=b5 v=105
199635 On ch=2 n=b4 v=64
199908 On ch=2 n=b4 v=0
199911 On ch=2 n=b5 v=0
199913 On ch=2 n=f#5 v=0
199916 On ch=2 n=d#5 v=0
201074 On ch=2 n=d#5 v=54
201074 On ch=2 n=g#5 v=79
201074 On ch=2 n=g#4 v=44
201074 On ch=2 n=b4 v=64
201196 Par ch=2 c=64 v=127
201196 Par ch=2 c=64 v=127
201196 Par ch=2 c=64 v=127
201206 On ch=2 n=b4 v=0
201217 On ch=2 n=d#5 v=0
201218 On ch=2 n=g#4 v=0
201224 On ch=2 n=g#5 v=0
201370 Par ch=2 c=64 v=0
201370 Par ch=2 c=64 v=0
201370 Par ch=2 c=64 v=0
201523 On ch=2 n=f#5 v=127
201526 On ch=2 n=d#5 v=119
201526 On ch=2 n=b5 v=94
201526 On ch=2 n=b4 v=67
201546 On ch=2 n=b4 v=125
201546 On ch=2 n=d#5 v=125
201546 On ch=2 n=b5 v=125
201546 On ch=2 n=f#5 v=125
201616 On ch=2 n=d#5 v=0
201616 On ch=2 n=f#5 v=0
201619 On ch=2 n=b4 v=0
201863 On ch=2 n=f#5 v=0
201863 On ch=2 n=b5 v=0
201863 On ch=2 n=d#5 v=0
201863 On ch=2 n=b4 v=0
201863 On ch=2 n=b5 v=0
202028 On ch=2 n=f#5 v=119
202028 On ch=2 n=b4 v=119
202028 On ch=2 n=b5 v=119
202028 On ch=2 n=d#5 v=119
202268 On ch=2 n=d#5 v=0
202268 On ch=2 n=b5 v=0
202268 On ch=2 n=b4 v=0
202268 On ch=2 n=f#5 v=0
202981 On ch=2 n=e5 v=55
202981 On ch=2 n=a5 v=59
202981 On ch=2 n=c5 v=53
202981 On ch=2 n=a4 v=44
203168 On ch=2 n=a4 v=0
203174 On ch=2 n=c5 v=0
203182 On ch=2 n=e5 v=0
203187 On ch=2 n=a5 v=0
203206 Par ch=2 c=64 v=127
203206 Par ch=2 c=64 v=127
203206 Par ch=2 c=64 v=127
203303 Par ch=2 c=64 v=0
203306 Par ch=2 c=64 v=0
203306 Par ch=2 c=64 v=0
203460 On ch=2 n=a5 v=41
203460 On ch=2 n=c6 v=54
203460 On ch=2 n=d5 v=47
203460 On ch=2 n=f#5 v=46
203700 On ch=2 n=a5 v=0
203703 On ch=2 n=d5 v=0
203703 On ch=2 n=c6 v=0
203706 On ch=2 n=f#5 v=0
203940 On ch=2 n=f#5 v=51
203940 On ch=2 n=a5 v=54
203940 On ch=2 n=d5 v=51
203940 On ch=2 n=c6 v=90
204135 On ch=2 n=a5 v=0
204136 On ch=2 n=d5 v=0
204138 On ch=2 n=f#5 v=0
204139 On ch=2 n=c6 v=0
204666 On ch=2 n=c4 v=90
204666 On ch=2 n=c3 v=90
204712 On ch=2 n=c3 v=0
204712 On ch=2 n=c4 v=0
204906 On ch=2 n=b2 v=87
204906 On ch=2 n=b3 v=87
205018 On ch=2 n=b2 v=0
205027 On ch=2 n=b3 v=0
205145 On ch=2 n=a2 v=79
205145 On ch=2 n=a3 v=79
205261 On ch=2 n=a3 v=0
205269 On ch=2 n=a2 v=0
205384 On ch=2 n=g2 v=53
205384 On ch=2 n=g3 v=53
205576 On ch=2 n=g2 v=0
205586 On ch=2 n=g3 v=0
205860 On ch=2 n=g2 v=49
205860 On ch=2 n=g3 v=49
206010 On ch=2 n=g2 v=0
206033 On ch=2 n=g3 v=0
206778 On ch=2 n=d4 v=37
206820 On ch=2 n=g4 v=33
206842 On ch=2 n=b4 v=36
206877 On ch=2 n=d5 v=62
207011 On ch=2 n=d5 v=0
207011 On ch=2 n=b4 v=0
207011 On ch=2 n=g4 v=0
207011 On ch=2 n=d4 v=0
207248 On ch=2 n=d4 v=28
207277 On ch=2 n=g4 v=46
207288 On ch=2 n=b4 v=36
207338 On ch=2 n=d5 v=61
207558 On ch=2 n=b4 v=0
207558 On ch=2 n=d4 v=0
207562 On ch=2 n=g4 v=0
207565 On ch=2 n=d5 v=0
208263 On ch=2 n=g2 v=59
208263 On ch=2 n=g3 v=59
208338 On ch=2 n=g3 v=0
208338 On ch=2 n=g2 v=0
209223 On ch=2 n=g2 v=35
209223 On ch=2 n=g1 v=36
209223 On ch=2 n=g3 v=37
209298 On ch=2 n=g3 v=0
209298 On ch=2 n=g1 v=0
209298 On ch=2 n=g2 v=0
209298 Meta TrkEnd
TrkEnd
