MFile 1 5 120
MTrk
0 TimeSig 4/4 24 8
0 KeySig 0 major
0 Tempo 588235
56981 Tempo 588235
56981 Meta TrkEnd
TrkEnd
MTrk
0 Meta 0x21 00
0 Meta TrkName "Ballade"
0 Par ch=1 c=7 v=127
0 Par ch=1 c=10 v=64
221 Par ch=1 c=91 v=116
221 Par ch=1 c=93 v=45
224 Par ch=1 c=64 v=40
228 Par ch=1 c=64 v=56
233 Par ch=1 c=64 v=72
237 Par ch=1 c=64 v=88
245 Par ch=1 c=64 v=104
249 Par ch=1 c=64 v=127
332 On ch=1 n=c3 v=32
354 Par ch=1 c=67 v=127
391 On ch=1 n=c3 v=0
407 On ch=1 n=g3 v=36
439 On ch=1 n=g3 v=0
456 On ch=1 n=e4 v=53
480 On ch=1 n=e4 v=0
500 On ch=1 n=a#4 v=53
528 On ch=1 n=a#4 v=0
546 On ch=1 n=d5 v=55
583 On ch=1 n=d5 v=0
591 On ch=1 n=a#5 v=55
614 On ch=1 n=a#5 v=0
639 On ch=1 n=c4 v=62
648 Par ch=1 c=64 v=88
652 Par ch=1 c=64 v=24
656 Par ch=1 c=64 v=0
673 Par ch=1 c=64 v=104
673 Par ch=1 c=67 v=0
674 On ch=1 n=c4 v=0
677 Par ch=1 c=64 v=127
685 On ch=1 n=g4 v=48
706 On ch=1 n=g4 v=0
734 On ch=1 n=e5 v=56
761 On ch=1 n=e5 v=0
782 On ch=1 n=a#5 v=52
834 On ch=1 n=a#5 v=0
838 On ch=1 n=d6 v=60
898 On ch=1 n=a#6 v=61
900 On ch=1 n=d6 v=0
957 On ch=1 n=a#6 v=0
982 On ch=1 n=e5 v=60
1191 On ch=1 n=e5 v=0
1402 On ch=1 n=e5 v=63
1544 On ch=1 n=a#4 v=30
1548 On ch=1 n=a#3 v=23
1550 On ch=1 n=d3 v=27
1550 On ch=1 n=f4 v=27
1552 Par ch=1 c=64 v=72
1556 Par ch=1 c=64 v=0
1584 Par ch=1 c=64 v=72
1587 On ch=1 n=e5 v=0
1588 Par ch=1 c=64 v=127
1631 On ch=1 n=f4 v=0
1652 On ch=1 n=g5 v=56
1727 On ch=1 n=g5 v=0
1743 On ch=1 n=e5 v=60
1809 On ch=1 n=e5 v=0
1837 On ch=1 n=g5 v=63
1922 On ch=1 n=g5 v=0
1939 On ch=1 n=f5 v=58
1971 Par ch=1 c=64 v=56
1975 Par ch=1 c=64 v=0
2011 Par ch=1 c=64 v=72
2015 Par ch=1 c=64 v=127
2083 On ch=1 n=f5 v=0
2130 On ch=1 n=d5 v=47
2164 Par ch=1 c=64 v=40
2169 Par ch=1 c=64 v=0
2193 Par ch=1 c=64 v=24
2197 Par ch=1 c=64 v=88
2201 Par ch=1 c=64 v=127
2220 On ch=1 n=a#4 v=0
2243 On ch=1 n=f5 v=39
2245 On ch=1 n=d5 v=0
2253 Par ch=1 c=64 v=104
2257 Par ch=1 c=64 v=40
2261 Par ch=1 c=64 v=0
2265 On ch=1 n=d3 v=0
2282 On ch=1 n=a#3 v=0
2282 Par ch=1 c=64 v=72
2286 Par ch=1 c=64 v=127
2307 On ch=1 n=f5 v=0
2379 On ch=1 n=c3 v=36
2402 Par ch=1 c=64 v=56
2406 Par ch=1 c=64 v=0
2423 Par ch=1 c=64 v=40
2427 On ch=1 n=c3 v=0
2427 Par ch=1 c=64 v=127
2439 On ch=1 n=g3 v=33
2464 On ch=1 n=g3 v=0
2486 On ch=1 n=e4 v=48
2509 On ch=1 n=e4 v=0
2528 On ch=1 n=a#4 v=38
2555 On ch=1 n=a#4 v=0
2572 On ch=1 n=d5 v=47
2611 On ch=1 n=d5 v=0
2617 On ch=1 n=a#5 v=46
2641 On ch=1 n=a#5 v=0
2657 On ch=1 n=c4 v=59
2665 Par ch=1 c=64 v=40
2669 Par ch=1 c=64 v=0
2681 Par ch=1 c=64 v=40
2685 Par ch=1 c=64 v=104
2689 Par ch=1 c=64 v=127
2692 On ch=1 n=c4 v=0
2704 On ch=1 n=g4 v=51
2726 On ch=1 n=g4 v=0
2753 On ch=1 n=e5 v=34
2785 On ch=1 n=e5 v=0
2805 On ch=1 n=a#5 v=48
2848 On ch=1 n=a#5 v=0
2863 On ch=1 n=d6 v=47
2931 On ch=1 n=d6 v=0
2933 On ch=1 n=a#6 v=49
3008 On ch=1 n=a#6 v=0
3044 On ch=1 n=e5 v=49
3229 On ch=1 n=e5 v=0
3456 On ch=1 n=e5 v=60
3586 On ch=1 n=a#4 v=37
3586 On ch=1 n=a#3 v=26
3590 On ch=1 n=d3 v=31
3592 On ch=1 n=f4 v=32
3599 Par ch=1 c=64 v=104
3603 Par ch=1 c=64 v=0
3636 Par ch=1 c=64 v=72
3640 Par ch=1 c=64 v=127
3683 On ch=1 n=e5 v=0
3690 On ch=1 n=g5 v=63
3762 On ch=1 n=g5 v=0
3782 On ch=1 n=e5 v=72
3849 On ch=1 n=f4 v=0
3857 On ch=1 n=e5 v=0
3875 On ch=1 n=g5 v=65
3894 Par ch=1 c=64 v=88
3898 Par ch=1 c=64 v=24
3903 Par ch=1 c=64 v=0
3919 Par ch=1 c=64 v=24
3923 Par ch=1 c=64 v=88
3927 Par ch=1 c=64 v=127
3962 On ch=1 n=g5 v=0
3977 On ch=1 n=f5 v=55
4016 Par ch=1 c=64 v=72
4020 Par ch=1 c=64 v=0
4043 Par ch=1 c=64 v=56
4047 Par ch=1 c=64 v=127
4149 On ch=1 n=f5 v=0
4177 On ch=1 n=d5 v=46
4205 Par ch=1 c=64 v=56
4209 Par ch=1 c=64 v=0
4229 Par ch=1 c=64 v=24
4233 Par ch=1 c=64 v=88
4237 Par ch=1 c=64 v=127
4285 On ch=1 n=d5 v=0
4288 On ch=1 n=f5 v=40
4302 Par ch=1 c=64 v=88
4306 Par ch=1 c=64 v=0
4338 On ch=1 n=d3 v=0
4338 Par ch=1 c=64 v=56
4342 Par ch=1 c=64 v=127
4348 On ch=1 n=a#4 v=0
4356 On ch=1 n=a#3 v=0
4365 On ch=1 n=f5 v=0
4423 On ch=1 n=e3 v=45
4446 Par ch=1 c=64 v=56
4451 Par ch=1 c=64 v=0
4471 Par ch=1 c=64 v=88
4474 On ch=1 n=b3 v=43
4475 Par ch=1 c=64 v=127
4493 On ch=1 n=e3 v=0
4516 On ch=1 n=e4 v=56
4527 On ch=1 n=b3 v=0
4545 On ch=1 n=e4 v=0
4561 On ch=1 n=g#4 v=47
4583 On ch=1 n=g#4 v=0
4604 On ch=1 n=d5 v=59
4630 On ch=1 n=d5 v=0
4647 On ch=1 n=b5 v=51
4667 On ch=1 n=b5 v=0
4690 On ch=1 n=e4 v=54
4735 On ch=1 n=e4 v=0
4738 On ch=1 n=b4 v=48
4783 On ch=1 n=e5 v=58
4814 On ch=1 n=b4 v=0
4822 On ch=1 n=e5 v=0
4834 On ch=1 n=g#5 v=51
4863 On ch=1 n=g#5 v=0
4890 On ch=1 n=d6 v=58
4924 On ch=1 n=d6 v=0
4950 On ch=1 n=b6 v=60
4981 On ch=1 n=b6 v=0
5040 On ch=1 n=e6 v=62
5178 On ch=1 n=e6 v=0
5529 On ch=1 n=e6 v=57
5671 On ch=1 n=a4 v=31
5689 Par ch=1 c=64 v=104
5692 Par ch=1 c=64 v=40
5696 Par ch=1 c=64 v=0
5725 Par ch=1 c=64 v=104
5729 Par ch=1 c=64 v=127
5736 On ch=1 n=c5 v=26
5748 On ch=1 n=e6 v=0
5762 On ch=1 n=g6 v=65
5781 On ch=1 n=c5 v=0
5802 On ch=1 n=e5 v=27
5818 On ch=1 n=g6 v=0
5830 On ch=1 n=a4 v=0
5846 On ch=1 n=e6 v=66
5846 On ch=1 n=c6 v=44
5849 On ch=1 n=e5 v=0
5853 On ch=1 n=g5 v=38
5861 On ch=1 n=a5 v=29
5884 On ch=1 n=g5 v=0
5919 On ch=1 n=e6 v=0
5919 On ch=1 n=c6 v=0
5924 On ch=1 n=a5 v=0
5926 On ch=1 n=g6 v=68
5986 On ch=1 n=g6 v=0
6011 On ch=1 n=f6 v=66
6019 On ch=1 n=a#4 v=25
6027 Par ch=1 c=64 v=72
6031 Par ch=1 c=64 v=0
6060 Par ch=1 c=64 v=56
6064 Par ch=1 c=64 v=127
6068 On ch=1 n=d5 v=35
6116 On ch=1 n=f5 v=34
6123 On ch=1 n=f6 v=0
6128 On ch=1 n=d5 v=0
6150 On ch=1 n=a#4 v=0
6156 On ch=1 n=f5 v=0
6166 On ch=1 n=d6 v=53
6166 On ch=1 n=a#5 v=42
6243 On ch=1 n=f6 v=65
6253 On ch=1 n=a#5 v=0
6253 On ch=1 n=d6 v=0
6311 On ch=1 n=f6 v=0
6327 On ch=1 n=e6 v=64
6335 On ch=1 n=f4 v=32
6343 Par ch=1 c=64 v=88
6347 Par ch=1 c=64 v=24
6351 Par ch=1 c=64 v=0
6376 Par ch=1 c=64 v=104
6380 Par ch=1 c=64 v=127
6380 On ch=1 n=a4 v=33
6397 On ch=1 n=f4 v=0
6414 On ch=1 n=a4 v=0
6426 On ch=1 n=c5 v=39
6452 On ch=1 n=e6 v=0
6464 On ch=1 n=c5 v=0
6474 On ch=1 n=c6 v=57
6476 On ch=1 n=a5 v=39
6477 On ch=1 n=e5 v=25
6479 On ch=1 n=f5 v=24
6505 On ch=1 n=e5 v=0
6526 On ch=1 n=a5 v=0
6546 On ch=1 n=c6 v=0
6553 On ch=1 n=e6 v=67
6581 On ch=1 n=f5 v=0
6608 On ch=1 n=e6 v=0
6639 On ch=1 n=d6 v=63
6648 On ch=1 n=g4 v=27
6655 Par ch=1 c=64 v=88
6659 Par ch=1 c=64 v=24
6663 Par ch=1 c=64 v=0
6687 Par ch=1 c=64 v=56
6689 On ch=1 n=a#4 v=36
6691 Par ch=1 c=64 v=127
6701 On ch=1 n=g4 v=0
6734 On ch=1 n=a#4 v=0
6739 On ch=1 n=d5 v=29
6767 On ch=1 n=d6 v=0
6794 On ch=1 n=c6 v=60
6796 On ch=1 n=f5 v=31
6801 On ch=1 n=g5 v=33
6803 On ch=1 n=a#5 v=28
6819 On ch=1 n=d5 v=0
6828 On ch=1 n=f5 v=0
6850 On ch=1 n=a#5 v=0
6858 On ch=1 n=c6 v=0
6864 On ch=1 n=g5 v=0
6882 On ch=1 n=d6 v=64
6951 On ch=1 n=d6 v=0
6962 On ch=1 n=e6 v=62
6973 On ch=1 n=a4 v=35
6974 Par ch=1 c=64 v=104
6978 Par ch=1 c=64 v=40
6982 Par ch=1 c=64 v=0
7007 Par ch=1 c=64 v=127
7019 On ch=1 n=c5 v=32
7021 On ch=1 n=a4 v=0
7043 On ch=1 n=e6 v=0
7046 On ch=1 n=g6 v=69
7061 On ch=1 n=c5 v=0
7077 On ch=1 n=e5 v=22
7107 On ch=1 n=g6 v=0
7118 On ch=1 n=e5 v=0
7123 On ch=1 n=e6 v=66
7131 On ch=1 n=g5 v=32
7133 On ch=1 n=a5 v=38
7134 On ch=1 n=c6 v=40
7151 On ch=1 n=c6 v=0
7160 On ch=1 n=g5 v=0
7192 On ch=1 n=e6 v=0
7197 On ch=1 n=a5 v=0
7208 On ch=1 n=g6 v=64
7269 On ch=1 n=g6 v=0
7291 On ch=1 n=f6 v=64
7299 On ch=1 n=a#4 v=35
7313 Par ch=1 c=64 v=72
7318 Par ch=1 c=64 v=0
7344 On ch=1 n=d5 v=41
7346 Par ch=1 c=64 v=127
7392 On ch=1 n=f5 v=43
7415 On ch=1 n=f6 v=0
7417 On ch=1 n=d5 v=0
7437 On ch=1 n=f5 v=0
7446 On ch=1 n=d6 v=64
7449 On ch=1 n=a#5 v=37
7454 On ch=1 n=a#4 v=0
7519 On ch=1 n=a#5 v=0
7522 On ch=1 n=d6 v=0
7522 On ch=1 n=f6 v=74
7594 On ch=1 n=f6 v=0
7611 On ch=1 n=e6 v=68
7623 On ch=1 n=f4 v=38
7633 Par ch=1 c=64 v=56
7637 Par ch=1 c=64 v=0
7666 Par ch=1 c=64 v=104
7670 Par ch=1 c=64 v=127
7671 On ch=1 n=a4 v=26
7714 On ch=1 n=a4 v=0
7716 On ch=1 n=c5 v=33
7742 On ch=1 n=e6 v=0
7759 On ch=1 n=c5 v=0
7760 On ch=1 n=f5 v=33
7761 On ch=1 n=c6 v=53
7763 On ch=1 n=f4 v=0
7763 On ch=1 n=a5 v=43
7764 On ch=1 n=e5 v=30
7786 On ch=1 n=e5 v=0
7802 On ch=1 n=a5 v=0
7822 On ch=1 n=c6 v=0
7825 On ch=1 n=f5 v=0
7848 On ch=1 n=e6 v=58
7904 On ch=1 n=e6 v=0
7937 On ch=1 n=d6 v=60
7940 On ch=1 n=g4 v=37
7956 Par ch=1 c=64 v=40
7960 Par ch=1 c=64 v=0
7984 Par ch=1 c=64 v=56
7985 On ch=1 n=a#4 v=34
7988 Par ch=1 c=64 v=127
7998 On ch=1 n=g4 v=0
8028 On ch=1 n=a#4 v=0
8035 On ch=1 n=d5 v=40
8087 On ch=1 n=d6 v=0
8104 On ch=1 n=f5 v=31
8105 On ch=1 n=c6 v=55
8108 On ch=1 n=g5 v=32
8110 On ch=1 n=a#5 v=30
8140 On ch=1 n=f5 v=0
8150 On ch=1 n=d5 v=0
8177 On ch=1 n=a#5 v=0
8180 On ch=1 n=c6 v=0
8206 On ch=1 n=d6 v=54
8227 On ch=1 n=g5 v=0
8231 On ch=1 n=d6 v=0
8318 On ch=1 n=g6 v=60
8326 On ch=1 n=c4 v=35
8336 Par ch=1 c=64 v=88
8340 Par ch=1 c=64 v=0
8364 On ch=1 n=c4 v=0
8365 Par ch=1 c=64 v=88
8369 Par ch=1 c=64 v=127
8377 On ch=1 n=g4 v=28
8402 On ch=1 n=g4 v=0
8414 On ch=1 n=a#4 v=29
8415 On ch=1 n=g5 v=32
8419 On ch=1 n=d6 v=24
8424 On ch=1 n=a#5 v=20
8433 On ch=1 n=a#5 v=0
8434 On ch=1 n=d6 v=0
8437 On ch=1 n=g5 v=0
8442 On ch=1 n=g6 v=0
8443 On ch=1 n=a#4 v=0
8454 On ch=1 n=d5 v=46
8493 On ch=1 n=a6 v=70
8495 On ch=1 n=d5 v=0
8503 On ch=1 n=f5 v=40
8557 On ch=1 n=a6 v=0
8560 On ch=1 n=f5 v=0
8582 On ch=1 n=e5 v=49
8583 On ch=1 n=a5 v=36
8585 On ch=1 n=c6 v=45
8588 On ch=1 n=e6 v=34
8592 On ch=1 n=e5 v=0
8600 On ch=1 n=e6 v=0
8609 On ch=1 n=c6 v=0
8653 On ch=1 n=a5 v=0
8671 On ch=1 n=g6 v=70
8679 On ch=1 n=c4 v=53
8683 Par ch=1 c=64 v=104
8687 Par ch=1 c=64 v=40
8690 Par ch=1 c=64 v=0
8707 Par ch=1 c=64 v=56
8708 On ch=1 n=c4 v=0
8711 Par ch=1 c=64 v=127
8718 On ch=1 n=g4 v=44
8745 On ch=1 n=g4 v=0
8754 On ch=1 n=a#4 v=50
8754 On ch=1 n=g5 v=45
8760 On ch=1 n=d6 v=39
8762 On ch=1 n=a#5 v=35
8774 On ch=1 n=a#5 v=0
8776 On ch=1 n=d6 v=0
8779 On ch=1 n=g5 v=0
8783 On ch=1 n=g6 v=0
8787 On ch=1 n=a#4 v=0
8795 On ch=1 n=d5 v=62
8825 On ch=1 n=d5 v=0
8837 On ch=1 n=a6 v=73
8841 On ch=1 n=f5 v=58
8899 On ch=1 n=f5 v=0
8905 On ch=1 n=a6 v=0
8917 On ch=1 n=e5 v=53
8919 On ch=1 n=a5 v=48
8924 On ch=1 n=c6 v=51
8926 On ch=1 n=e6 v=33
8929 On ch=1 n=e5 v=0
8935 On ch=1 n=e6 v=0
8940 On ch=1 n=c6 v=0
8986 On ch=1 n=a5 v=0
8996 On ch=1 n=g6 v=79
9004 On ch=1 n=c4 v=55
9006 Par ch=1 c=64 v=72
9010 Par ch=1 c=64 v=0
9027 Par ch=1 c=64 v=56
9031 Par ch=1 c=64 v=127
9033 On ch=1 n=c4 v=0
9042 On ch=1 n=g4 v=52
9074 On ch=1 n=g4 v=0
9076 On ch=1 n=g5 v=52
9078 On ch=1 n=d6 v=55
9079 On ch=1 n=a#5 v=46
9080 On ch=1 n=a#4 v=57
9098 On ch=1 n=g5 v=0
9099 On ch=1 n=d6 v=0
9100 On ch=1 n=a#5 v=0
9102 On ch=1 n=g6 v=0
9110 On ch=1 n=a#4 v=0
9118 On ch=1 n=d5 v=67
9147 On ch=1 n=d5 v=0
9157 On ch=1 n=a6 v=76
9163 On ch=1 n=f5 v=59
9223 On ch=1 n=f5 v=0
9232 On ch=1 n=a6 v=0
9240 On ch=1 n=e5 v=59
9244 On ch=1 n=a5 v=44
9244 On ch=1 n=e6 v=48
9244 On ch=1 n=c6 v=48
9259 On ch=1 n=e5 v=0
9265 On ch=1 n=c6 v=0
9265 On ch=1 n=e6 v=0
9325 On ch=1 n=a5 v=0
9337 Par ch=1 c=64 v=88
9340 On ch=1 n=e6 v=77
9340 On ch=1 n=f3 v=47
9342 Par ch=1 c=64 v=0
9366 Par ch=1 c=64 v=127
9380 On ch=1 n=c4 v=62
9399 On ch=1 n=f3 v=0
9405 On ch=1 n=c4 v=0
9422 On ch=1 n=f4 v=60
9432 On ch=1 n=c6 v=56
9435 On ch=1 n=a5 v=42
9435 On ch=1 n=f5 v=31
9450 On ch=1 n=f4 v=0
9467 On ch=1 n=a4 v=58
9474 On ch=1 n=e6 v=0
9477 On ch=1 n=f5 v=0
9497 On ch=1 n=c5 v=55
9498 On ch=1 n=a4 v=0
9498 On ch=1 n=c6 v=0
9533 On ch=1 n=a5 v=0
9547 On ch=1 n=c5 v=0
9547 On ch=1 n=f6 v=68
9550 On ch=1 n=e5 v=53
9596 On ch=1 n=e5 v=0
9608 On ch=1 n=d5 v=49
9654 On ch=1 n=f5 v=36
9654 On ch=1 n=d6 v=39
9654 On ch=1 n=a5 v=32
9664 On ch=1 n=d5 v=0
9670 On ch=1 n=a5 v=0
9672 On ch=1 n=f5 v=0
9678 On ch=1 n=d6 v=0
9686 On ch=1 n=f6 v=0
9686 On ch=1 n=c5 v=53
9695 On ch=1 n=c5 v=0
9755 On ch=1 n=g6 v=70
9767 On ch=1 n=c4 v=60
9767 Par ch=1 c=64 v=88
9771 Par ch=1 c=64 v=0
9796 On ch=1 n=c4 v=0
9799 Par ch=1 c=64 v=127
9806 On ch=1 n=g4 v=47
9831 On ch=1 n=g4 v=0
9841 On ch=1 n=a#4 v=44
9844 On ch=1 n=g5 v=38
9849 On ch=1 n=a#5 v=29
9851 On ch=1 n=d6 v=30
9867 On ch=1 n=d6 v=0
9868 On ch=1 n=g5 v=0
9868 On ch=1 n=a#5 v=0
9872 On ch=1 n=a#4 v=0
9880 On ch=1 n=g6 v=0
9884 On ch=1 n=d5 v=47
9925 On ch=1 n=d5 v=0
9929 On ch=1 n=a6 v=71
9936 On ch=1 n=f5 v=40
9991 On ch=1 n=f5 v=0
9996 On ch=1 n=a6 v=0
10012 On ch=1 n=e5 v=48
10013 On ch=1 n=a5 v=45
10016 On ch=1 n=c6 v=40
10023 On ch=1 n=e5 v=0
10033 On ch=1 n=c6 v=0
10090 On ch=1 n=a5 v=0
10091 On ch=1 n=g6 v=75
10098 Par ch=1 c=64 v=104
10099 On ch=1 n=c4 v=59
10102 Par ch=1 c=64 v=24
10106 Par ch=1 c=64 v=0
10122 Par ch=1 c=64 v=88
10124 On ch=1 n=c4 v=0
10126 Par ch=1 c=64 v=127
10134 On ch=1 n=g4 v=50
10161 On ch=1 n=g4 v=0
10172 On ch=1 n=g5 v=51
10173 On ch=1 n=a#4 v=51
10178 On ch=1 n=a#5 v=44
10180 On ch=1 n=d6 v=44
10204 On ch=1 n=g5 v=0
10207 On ch=1 n=a#5 v=0
10207 On ch=1 n=a#4 v=0
10208 On ch=1 n=g6 v=0
10208 On ch=1 n=d6 v=0
10212 On ch=1 n=d5 v=68
10257 On ch=1 n=d5 v=0
10257 On ch=1 n=a6 v=80
10262 On ch=1 n=f5 v=59
10311 On ch=1 n=f5 v=0
10325 On ch=1 n=a6 v=0
10336 On ch=1 n=e5 v=62
10341 On ch=1 n=e6 v=54
10342 On ch=1 n=a5 v=46
10344 On ch=1 n=c6 v=50
10354 On ch=1 n=e5 v=0
10359 On ch=1 n=e6 v=0
10364 On ch=1 n=c6 v=0
10404 On ch=1 n=a5 v=0
10420 On ch=1 n=g6 v=79
10429 Par ch=1 c=64 v=56
10431 On ch=1 n=c4 v=65
10433 Par ch=1 c=64 v=0
10454 Par ch=1 c=64 v=88
10457 On ch=1 n=c4 v=0
10458 Par ch=1 c=64 v=127
10462 On ch=1 n=g4 v=63
10491 On ch=1 n=g4 v=0
10496 On ch=1 n=g5 v=48
10497 On ch=1 n=d6 v=66
10499 On ch=1 n=a#5 v=45
10502 On ch=1 n=a#4 v=58
10512 On ch=1 n=g5 v=0
10513 On ch=1 n=a#5 v=0
10513 On ch=1 n=g6 v=0
10517 On ch=1 n=d6 v=0
10528 On ch=1 n=a#4 v=0
10536 On ch=1 n=d5 v=73
10563 On ch=1 n=d5 v=0
10577 On ch=1 n=a6 v=82
10585 On ch=1 n=f5 v=61
10649 On ch=1 n=f5 v=0
10657 On ch=1 n=a5 v=63
10660 On ch=1 n=e5 v=69
10661 On ch=1 n=e6 v=64
10664 On ch=1 n=c6 v=36
10671 On ch=1 n=c6 v=0
10678 On ch=1 n=e5 v=0
10678 On ch=1 n=a5 v=0
10687 On ch=1 n=e6 v=0
10693 On ch=1 n=a6 v=0
10757 Par ch=1 c=64 v=72
10759 On ch=1 n=c7 v=85
10761 Par ch=1 c=64 v=0
10763 On ch=1 n=f3 v=62
10785 Par ch=1 c=64 v=127
10788 On ch=1 n=f3 v=0
10797 On ch=1 n=c4 v=68
10825 On ch=1 n=c4 v=0
10829 On ch=1 n=d#4 v=69
10855 On ch=1 n=c7 v=0
10859 On ch=1 n=d#4 v=0
10867 On ch=1 n=a4 v=59
10867 On ch=1 n=c7 v=29
10872 On ch=1 n=g6 v=60
10873 On ch=1 n=c6 v=54
10873 On ch=1 n=d#6 v=49
10881 On ch=1 n=a4 v=0
10901 On ch=1 n=c5 v=70
10916 On ch=1 n=c6 v=0
10927 On ch=1 n=c5 v=0
10929 On ch=1 n=d#6 v=0
10937 On ch=1 n=d#5 v=65
10980 On ch=1 n=d#5 v=0
10991 On ch=1 n=a5 v=74
11000 On ch=1 n=d#6 v=27
11003 On ch=1 n=c6 v=28
11058 On ch=1 n=a5 v=0
11063 On ch=1 n=g5 v=68
11109 On ch=1 n=g5 v=0
11111 On ch=1 n=c7 v=0
11117 On ch=1 n=d#6 v=0
11124 On ch=1 n=f5 v=66
11128 On ch=1 n=c6 v=0
11131 On ch=1 n=g6 v=0
11140 On ch=1 n=f5 v=0
11194 On ch=1 n=c7 v=83
11204 On ch=1 n=a#3 v=54
11205 Par ch=1 c=64 v=56
11209 Par ch=1 c=64 v=0
11229 On ch=1 n=a#3 v=0
11233 Par ch=1 c=64 v=104
11236 On ch=1 n=f4 v=61
11237 Par ch=1 c=64 v=127
11262 On ch=1 n=f4 v=0
11272 On ch=1 n=a#4 v=58
11280 On ch=1 n=f6 v=59
11281 On ch=1 n=d6 v=48
11299 On ch=1 n=a#4 v=0
11306 On ch=1 n=d5 v=62
11322 On ch=1 n=c7 v=0
11328 On ch=1 n=d5 v=0
11337 On ch=1 n=f5 v=68
11368 On ch=1 n=f5 v=0
11378 On ch=1 n=d7 v=82
11379 On ch=1 n=d6 v=0
11380 On ch=1 n=f6 v=0
11384 On ch=1 n=a5 v=68
11426 On ch=1 n=a5 v=0
11446 On ch=1 n=g5 v=67
11476 On ch=1 n=d6 v=44
11479 On ch=1 n=f6 v=56
11487 On ch=1 n=d7 v=0
11490 On ch=1 n=g5 v=0
11504 On ch=1 n=f5 v=71
11507 On ch=1 n=f6 v=0
11527 On ch=1 n=f5 v=0
11548 On ch=1 n=d6 v=0
11558 On ch=1 n=a6 v=73
11561 On ch=1 n=f5 v=53
11609 Par ch=1 c=64 v=72
11613 Par ch=1 c=64 v=40
11621 Par ch=1 c=64 v=88
11626 Par ch=1 c=64 v=127
11654 On ch=1 n=a#5 v=37
11656 On ch=1 n=d6 v=52
11688 On ch=1 n=a6 v=0
11715 On ch=1 n=f5 v=0
11726 On ch=1 n=d6 v=0
11728 On ch=1 n=a#5 v=0
11730 On ch=1 n=g6 v=66
11736 On ch=1 n=e5 v=43
11754 Par ch=1 c=64 v=104
11758 Par ch=1 c=64 v=56
11768 Par ch=1 c=64 v=127
11788 On ch=1 n=e5 v=0
11819 On ch=1 n=a#5 v=20
11823 On ch=1 n=d6 v=27
11860 On ch=1 n=g6 v=0
11871 On ch=1 n=d6 v=0
11883 On ch=1 n=a#5 v=0
11893 On ch=1 n=f6 v=70
11905 On ch=1 n=g3 v=36
11915 Par ch=1 c=64 v=56
11919 Par ch=1 c=64 v=0
11939 Par ch=1 c=64 v=56
11943 On ch=1 n=d4 v=46
11943 Par ch=1 c=64 v=127
11944 On ch=1 n=g3 v=0
11967 On ch=1 n=d4 v=0
11981 On ch=1 n=g4 v=42
11985 On ch=1 n=a#5 v=29
11987 On ch=1 n=d6 v=38
12010 On ch=1 n=g4 v=0
12016 On ch=1 n=a#4 v=57
12020 On ch=1 n=f6 v=0
12057 On ch=1 n=a#4 v=0
12064 On ch=1 n=d6 v=0
12067 On ch=1 n=g6 v=73
12072 On ch=1 n=a#5 v=0
12072 On ch=1 n=e5 v=68
12116 On ch=1 n=e5 v=0
12128 On ch=1 n=d5 v=63
12161 On ch=1 n=a#5 v=37
12162 On ch=1 n=d6 v=54
12169 On ch=1 n=d5 v=0
12177 On ch=1 n=g6 v=0
12182 On ch=1 n=c5 v=63
12186 On ch=1 n=d6 v=0
12198 On ch=1 n=a#5 v=0
12200 On ch=1 n=c5 v=0
12237 On ch=1 n=c5 v=61
12241 On ch=1 n=d6 v=68
12258 Par ch=1 c=64 v=56
12262 Par ch=1 c=64 v=0
12273 Par ch=1 c=64 v=24
12278 Par ch=1 c=64 v=72
12282 Par ch=1 c=64 v=127
12318 On ch=1 n=c5 v=0
12324 On ch=1 n=d5 v=34
12324 On ch=1 n=g5 v=46
12324 On ch=1 n=a#4 v=50
12343 Par ch=1 c=64 v=56
12347 Par ch=1 c=64 v=0
12359 Par ch=1 c=64 v=40
12363 Par ch=1 c=64 v=88
12367 Par ch=1 c=64 v=127
12390 On ch=1 n=d5 v=0
12400 On ch=1 n=g5 v=0
12401 On ch=1 n=d6 v=0
12480 On ch=1 n=a#4 v=0
12488 On ch=1 n=c6 v=65
12492 On ch=1 n=a4 v=35
12563 On ch=1 n=c6 v=0
12569 On ch=1 n=a4 v=0
12572 On ch=1 n=a#5 v=69
12583 On ch=1 n=g4 v=38
12597 Par ch=1 c=64 v=72
12601 Par ch=1 c=64 v=0
12621 Par ch=1 c=64 v=24
12625 Par ch=1 c=64 v=88
12629 Par ch=1 c=64 v=127
12659 On ch=1 n=a#5 v=0
12661 On ch=1 n=f5 v=48
12662 On ch=1 n=d5 v=41
12703 On ch=1 n=f5 v=0
12719 On ch=1 n=d5 v=0
12724 On ch=1 n=g4 v=0
12738 On ch=1 n=c6 v=68
12742 Par ch=1 c=64 v=104
12745 On ch=1 n=a4 v=44
12746 Par ch=1 c=64 v=40
12750 Par ch=1 c=64 v=0
12762 Par ch=1 c=64 v=88
12766 Par ch=1 c=64 v=127
12797 On ch=1 n=a4 v=0
12803 On ch=1 n=g4 v=58
12819 On ch=1 n=c6 v=0
12833 On ch=1 n=e5 v=56
12834 On ch=1 n=c5 v=48
12841 On ch=1 n=g4 v=0
12856 On ch=1 n=e5 v=0
12861 On ch=1 n=f4 v=66
12877 On ch=1 n=f4 v=0
12900 On ch=1 n=c5 v=0
12907 On ch=1 n=a5 v=67
12917 On ch=1 n=f4 v=40
12936 Par ch=1 c=64 v=88
12940 Par ch=1 c=64 v=24
12944 Par ch=1 c=64 v=0
12954 Par ch=1 c=64 v=24
12958 Par ch=1 c=64 v=72
12962 Par ch=1 c=64 v=127
12997 On ch=1 n=a#4 v=26
12997 On ch=1 n=d5 v=41
13032 On ch=1 n=a#4 v=0
13040 On ch=1 n=a5 v=0
13061 On ch=1 n=d5 v=0
13064 On ch=1 n=f4 v=0
13076 On ch=1 n=g5 v=59
13078 On ch=1 n=e4 v=48
13086 Par ch=1 c=64 v=104
13091 Par ch=1 c=64 v=56
13095 Par ch=1 c=64 v=0
13111 Par ch=1 c=64 v=56
13115 Par ch=1 c=64 v=127
13162 On ch=1 n=c5 v=47
13164 On ch=1 n=a4 v=37
13201 On ch=1 n=g5 v=0
13210 On ch=1 n=a4 v=0
13218 On ch=1 n=c5 v=0
13228 On ch=1 n=e4 v=0
13239 On ch=1 n=f5 v=66
13245 On ch=1 n=d4 v=38
13261 Par ch=1 c=64 v=56
13265 Par ch=1 c=64 v=0
13286 Par ch=1 c=64 v=40
13290 Par ch=1 c=64 v=104
13294 Par ch=1 c=64 v=127
13302 On ch=1 n=f5 v=0
13327 On ch=1 n=a#4 v=35
13328 On ch=1 n=f4 v=22
13344 On ch=1 n=f4 v=0
13388 On ch=1 n=a#4 v=0
13398 On ch=1 n=d4 v=0
13398 On ch=1 n=g5 v=63
13409 On ch=1 n=e4 v=45
13411 Par ch=1 c=64 v=72
13415 Par ch=1 c=64 v=40
13425 Par ch=1 c=64 v=104
13429 Par ch=1 c=64 v=127
13441 On ch=1 n=e4 v=0
13456 On ch=1 n=d4 v=56
13487 On ch=1 n=d4 v=0
13487 On ch=1 n=g5 v=0
13489 On ch=1 n=g4 v=42
13490 On ch=1 n=a#4 v=42
13506 On ch=1 n=c4 v=50
13520 On ch=1 n=c4 v=0
13535 On ch=1 n=g4 v=0
13549 On ch=1 n=a#4 v=0
13559 On ch=1 n=d5 v=62
13564 On ch=1 n=c4 v=53
13570 Par ch=1 c=64 v=88
13574 Par ch=1 c=64 v=40
13578 Par ch=1 c=64 v=0
13590 Par ch=1 c=64 v=72
13594 Par ch=1 c=64 v=127
13636 On ch=1 n=c4 v=0
13651 On ch=1 n=a#3 v=36
13663 Par ch=1 c=64 v=104
13667 Par ch=1 c=64 v=56
13671 Par ch=1 c=64 v=24
13675 Par ch=1 c=64 v=0
13679 Par ch=1 c=64 v=40
13683 Par ch=1 c=64 v=72
13687 Par ch=1 c=64 v=127
13734 On ch=1 n=a#4 v=30
13736 On ch=1 n=f4 v=33
13786 On ch=1 n=d5 v=0
13789 On ch=1 n=a#3 v=0
13810 On ch=1 n=e5 v=59
13811 On ch=1 n=c4 v=45
13871 On ch=1 n=c4 v=0
13874 On ch=1 n=e5 v=0
13882 On ch=1 n=a#4 v=0
13885 On ch=1 n=f4 v=0
13896 On ch=1 n=d4 v=45
13897 On ch=1 n=f5 v=67
13913 Par ch=1 c=64 v=72
13917 Par ch=1 c=64 v=0
13940 Par ch=1 c=64 v=72
13945 Par ch=1 c=64 v=127
13972 On ch=1 n=f5 v=0
13975 On ch=1 n=a#4 v=40
13980 On ch=1 n=f4 v=36
14037 On ch=1 n=f4 v=0
14041 On ch=1 n=d4 v=0
14051 On ch=1 n=g5 v=68
14055 Par ch=1 c=64 v=104
14057 On ch=1 n=e4 v=47
14058 Par ch=1 c=64 v=56
14063 Par ch=1 c=64 v=0
14074 Par ch=1 c=64 v=40
14078 Par ch=1 c=64 v=88
14083 Par ch=1 c=64 v=127
14108 On ch=1 n=e4 v=0
14108 On ch=1 n=a#4 v=0
14117 On ch=1 n=d4 v=61
14127 On ch=1 n=g5 v=0
14146 On ch=1 n=a#4 v=39
14152 On ch=1 n=f4 v=33
14159 On ch=1 n=d4 v=0
14175 On ch=1 n=c4 v=64
14179 On ch=1 n=f4 v=0
14191 On ch=1 n=c4 v=0
14219 On ch=1 n=a#4 v=0
14222 On ch=1 n=d5 v=64
14224 On ch=1 n=c4 v=59
14233 Par ch=1 c=64 v=72
14237 Par ch=1 c=64 v=40
14241 Par ch=1 c=64 v=24
14253 Par ch=1 c=64 v=88
14257 Par ch=1 c=64 v=127
14290 On ch=1 n=c4 v=0
14305 Par ch=1 c=64 v=88
14306 On ch=1 n=a#4 v=34
14306 On ch=1 n=f4 v=30
14306 On ch=1 n=a#3 v=49
14309 Par ch=1 c=64 v=40
14312 Par ch=1 c=64 v=0
14322 Par ch=1 c=64 v=88
14326 Par ch=1 c=64 v=127
14373 On ch=1 n=f4 v=0
14373 On ch=1 n=a#4 v=0
14390 On ch=1 n=f5 v=62
14396 On ch=1 n=d5 v=0
14494 On ch=1 n=g#3 v=37
14498 On ch=1 n=a#3 v=0
14527 On ch=1 n=g#3 v=0
14600 On ch=1 n=f5 v=0
14600 On ch=1 n=a5 v=64
14622 On ch=1 n=g2 v=37
14633 Par ch=1 c=64 v=72
14637 Par ch=1 c=64 v=0
14661 Par ch=1 c=64 v=88
14665 Par ch=1 c=64 v=127
14691 On ch=1 n=g3 v=43
14697 On ch=1 n=g2 v=0
14712 On ch=1 n=g3 v=0
14729 On ch=1 n=b4 v=47
14736 On ch=1 n=f5 v=33
14738 On ch=1 n=d5 v=35
14755 On ch=1 n=b4 v=0
14759 On ch=1 n=a5 v=0
14778 On ch=1 n=d4 v=52
14786 On ch=1 n=d5 v=0
14807 On ch=1 n=d4 v=0
14813 On ch=1 n=f5 v=0
14824 On ch=1 n=b5 v=65
14826 On ch=1 n=f4 v=32
14857 On ch=1 n=f4 v=0
14873 On ch=1 n=a4 v=38
14910 On ch=1 n=a4 v=0
14927 On ch=1 n=b4 v=38
14958 On ch=1 n=b4 v=0
14976 On ch=1 n=d5 v=38
15006 On ch=1 n=d5 v=0
15028 On ch=1 n=f5 v=40
15074 On ch=1 n=f5 v=0
15086 On ch=1 n=a5 v=42
15138 On ch=1 n=a5 v=0
15150 On ch=1 n=b5 v=0
15150 On ch=1 n=f5 v=40
15151 On ch=1 n=d6 v=59
15194 On ch=1 n=f5 v=0
15218 On ch=1 n=d5 v=39
15262 On ch=1 n=d5 v=0
15282 On ch=1 n=b4 v=34
15303 On ch=1 n=b4 v=0
15345 On ch=1 n=d6 v=0
15378 On ch=1 n=e6 v=63
15385 On ch=1 n=a#4 v=35
15395 Par ch=1 c=64 v=104
15399 Par ch=1 c=64 v=24
15403 Par ch=1 c=64 v=0
15423 Par ch=1 c=64 v=72
15424 On ch=1 n=a#4 v=0
15428 On ch=1 n=d5 v=31
15428 Par ch=1 c=64 v=127
15451 On ch=1 n=d5 v=0
15459 On ch=1 n=e5 v=38
15473 On ch=1 n=e6 v=0
15485 On ch=1 n=e5 v=0
15489 On ch=1 n=g6 v=62
15491 On ch=1 n=g5 v=39
15500 On ch=1 n=g5 v=0
15514 On ch=1 n=a#5 v=43
15536 On ch=1 n=g6 v=0
15542 On ch=1 n=a#5 v=0
15552 On ch=1 n=d6 v=44
15573 Par ch=1 c=64 v=56
15575 On ch=1 n=d6 v=0
15576 On ch=1 n=e6 v=70
15577 Par ch=1 c=64 v=0
15579 On ch=1 n=a4 v=39
15589 Par ch=1 c=64 v=56
15593 Par ch=1 c=64 v=127
15599 On ch=1 n=a4 v=0
15608 On ch=1 n=c#5 v=38
15633 On ch=1 n=c#5 v=0
15637 On ch=1 n=e5 v=38
15659 On ch=1 n=e6 v=0
15663 On ch=1 n=g6 v=74
15666 On ch=1 n=e5 v=0
15672 On ch=1 n=g5 v=34
15686 On ch=1 n=g5 v=0
15697 On ch=1 n=a5 v=40
15714 On ch=1 n=a5 v=0
15728 On ch=1 n=c#6 v=32
15732 On ch=1 n=g6 v=0
15742 Par ch=1 c=64 v=24
15745 On ch=1 n=c#6 v=0
15747 Par ch=1 c=64 v=0
15749 On ch=1 n=f6 v=76
15749 On ch=1 n=g#4 v=42
15779 Par ch=1 c=64 v=127
15785 On ch=1 n=g#4 v=0
15789 On ch=1 n=c5 v=41
15806 On ch=1 n=c5 v=0
15811 On ch=1 n=d5 v=52
15837 On ch=1 n=d5 v=0
15839 On ch=1 n=f5 v=39
15850 On ch=1 n=f5 v=0
15851 On ch=1 n=f6 v=0
15866 On ch=1 n=g#5 v=33
15888 On ch=1 n=g#5 v=0
15898 On ch=1 n=c6 v=33
15914 On ch=1 n=c6 v=0
15921 On ch=1 n=d6 v=69
15925 On ch=1 n=g4 v=46
15926 Par ch=1 c=64 v=104
15929 Par ch=1 c=64 v=0
15950 On ch=1 n=g4 v=0
15950 Par ch=1 c=64 v=72
15954 Par ch=1 c=64 v=127
15956 On ch=1 n=b4 v=33
15981 On ch=1 n=d5 v=29
15983 On ch=1 n=b4 v=0
16003 On ch=1 n=d5 v=0
16004 On ch=1 n=d6 v=0
16004 On ch=1 n=f5 v=37
16012 On ch=1 n=f6 v=68
16021 On ch=1 n=f5 v=0
16045 On ch=1 n=g5 v=35
16055 On ch=1 n=f6 v=0
16071 On ch=1 n=g5 v=0
16074 On ch=1 n=b5 v=36
16106 On ch=1 n=b5 v=0
16113 On ch=1 n=e6 v=70
16113 On ch=1 n=f#4 v=49
16125 Par ch=1 c=64 v=104
16129 Par ch=1 c=64 v=0
16155 On ch=1 n=f#4 v=0
16156 Par ch=1 c=64 v=104
16158 On ch=1 n=a4 v=36
16160 Par ch=1 c=64 v=127
16181 On ch=1 n=a4 v=0
16183 On ch=1 n=c5 v=55
16206 On ch=1 n=e6 v=0
16210 On ch=1 n=e5 v=55
16213 On ch=1 n=c5 v=0
16221 On ch=1 n=e5 v=0
16240 On ch=1 n=f#5 v=45
16263 On ch=1 n=f#5 v=0
16268 On ch=1 n=a5 v=58
16293 On ch=1 n=a5 v=0
16295 On ch=1 n=c6 v=72
16326 On ch=1 n=a5 v=58
16329 On ch=1 n=c6 v=0
16348 On ch=1 n=a5 v=0
16353 On ch=1 n=f#5 v=46
16370 On ch=1 n=e5 v=34
16373 On ch=1 n=f#5 v=0
16385 On ch=1 n=e6 v=75
16405 On ch=1 n=e5 v=0
16409 On ch=1 n=e6 v=0
16427 On ch=1 n=c5 v=30
16443 On ch=1 n=c5 v=0
16449 On ch=1 n=a4 v=37
16458 On ch=1 n=a4 v=0
16508 On ch=1 n=d6 v=60
16510 On ch=1 n=f5 v=35
16511 On ch=1 n=b5 v=40
16518 On ch=1 n=g3 v=48
16520 Par ch=1 c=64 v=56
16524 Par ch=1 c=64 v=0
16552 Par ch=1 c=64 v=127
16554 On ch=1 n=f5 v=0
16573 On ch=1 n=g3 v=0
16575 On ch=1 n=d4 v=40
16583 On ch=1 n=b5 v=0
16593 On ch=1 n=d5 v=34
16609 On ch=1 n=d5 v=0
16614 On ch=1 n=d4 v=0
16628 On ch=1 n=g4 v=42
16639 On ch=1 n=g4 v=0
16670 On ch=1 n=d6 v=0
16685 On ch=1 n=c6 v=62
16689 On ch=1 n=b4 v=34
16721 On ch=1 n=c6 v=0
16730 On ch=1 n=b4 v=0
16735 On ch=1 n=d5 v=48
16780 On ch=1 n=d5 v=0
16780 On ch=1 n=d6 v=65
16808 On ch=1 n=d6 v=0
16816 On ch=1 n=f5 v=40
16854 On ch=1 n=f5 v=0
16868 On ch=1 n=e6 v=66
16877 On ch=1 n=a#4 v=40
16883 Par ch=1 c=64 v=72
16887 Par ch=1 c=64 v=0
16906 On ch=1 n=a#4 v=0
16907 Par ch=1 c=64 v=56
16911 On ch=1 n=d5 v=36
16911 Par ch=1 c=64 v=127
16925 On ch=1 n=d5 v=0
16933 On ch=1 n=e5 v=47
16945 On ch=1 n=e6 v=0
16960 On ch=1 n=g6 v=66
16962 On ch=1 n=e5 v=0
16971 On ch=1 n=g5 v=40
16981 On ch=1 n=g5 v=0
16989 On ch=1 n=g6 v=0
17016 On ch=1 n=d6 v=57
17039 On ch=1 n=d6 v=0
17045 On ch=1 n=e6 v=74
17049 Par ch=1 c=64 v=72
17051 On ch=1 n=a4 v=43
17053 Par ch=1 c=64 v=0
17065 On ch=1 n=a4 v=0
17073 Par ch=1 c=64 v=127
17074 On ch=1 n=c#5 v=44
17096 On ch=1 n=e5 v=52
17097 On ch=1 n=c#5 v=0
17117 On ch=1 n=g5 v=53
17119 On ch=1 n=e5 v=0
17125 On ch=1 n=e6 v=0
17129 On ch=1 n=g5 v=0
17134 On ch=1 n=g6 v=72
17165 On ch=1 n=a5 v=53
17191 On ch=1 n=c#6 v=49
17192 On ch=1 n=a5 v=0
17194 On ch=1 n=g6 v=0
17216 On ch=1 n=c#6 v=0
17217 On ch=1 n=g#4 v=48
17218 On ch=1 n=f6 v=77
17221 Par ch=1 c=64 v=72
17225 Par ch=1 c=64 v=0
17250 Par ch=1 c=64 v=127
17253 On ch=1 n=g#4 v=0
17254 On ch=1 n=c5 v=55
17281 On ch=1 n=d5 v=62
17283 On ch=1 n=c5 v=0
17306 On ch=1 n=f5 v=53
17312 On ch=1 n=d5 v=0
17318 On ch=1 n=f5 v=0
17330 On ch=1 n=f6 v=0
17330 On ch=1 n=g#5 v=46
17357 On ch=1 n=g#5 v=0
17360 On ch=1 n=c6 v=66
17386 On ch=1 n=c6 v=0
17387 On ch=1 n=d6 v=72
17387 On ch=1 n=g4 v=50
17391 Par ch=1 c=64 v=104
17395 Par ch=1 c=64 v=24
17399 Par ch=1 c=64 v=0
17417 On ch=1 n=g4 v=0
17419 On ch=1 n=b4 v=44
17420 Par ch=1 c=64 v=127
17436 On ch=1 n=d5 v=54
17442 On ch=1 n=b4 v=0
17463 On ch=1 n=f5 v=59
17467 On ch=1 n=d5 v=0
17475 On ch=1 n=d6 v=0
17475 On ch=1 n=f6 v=79
17476 On ch=1 n=f5 v=0
17501 On ch=1 n=g5 v=53
17511 On ch=1 n=f6 v=0
17525 On ch=1 n=b5 v=54
17529 On ch=1 n=g5 v=0
17567 On ch=1 n=b5 v=0
17577 On ch=1 n=e6 v=71
17581 On ch=1 n=f#4 v=53
17592 Par ch=1 c=64 v=40
17597 Par ch=1 c=64 v=0
17621 On ch=1 n=a4 v=44
17625 Par ch=1 c=64 v=104
17629 Par ch=1 c=64 v=127
17635 On ch=1 n=f#4 v=0
17652 On ch=1 n=c5 v=48
17677 On ch=1 n=a4 v=0
17679 On ch=1 n=e5 v=45
17680 On ch=1 n=c5 v=0
17691 On ch=1 n=e5 v=0
17703 On ch=1 n=f#5 v=36
17724 On ch=1 n=f#5 v=0
17728 On ch=1 n=e6 v=0
17733 On ch=1 n=a5 v=46
17763 On ch=1 n=a5 v=0
17765 On ch=1 n=c6 v=62
17795 On ch=1 n=c6 v=0
17802 On ch=1 n=a5 v=41
17824 On ch=1 n=a5 v=0
17831 On ch=1 n=f#5 v=34
17864 On ch=1 n=e5 v=39
17867 On ch=1 n=e6 v=63
17875 On ch=1 n=f#5 v=0
17885 On ch=1 n=e6 v=0
17891 On ch=1 n=c5 v=35
17897 On ch=1 n=e5 v=0
17922 On ch=1 n=a4 v=26
17924 On ch=1 n=c5 v=0
17955 On ch=1 n=a4 v=0
18012 On ch=1 n=f5 v=42
18012 On ch=1 n=d6 v=57
18019 On ch=1 n=b5 v=39
18022 On ch=1 n=g3 v=43
18034 Par ch=1 c=64 v=40
18038 Par ch=1 c=64 v=0
18061 Par ch=1 c=64 v=127
18067 On ch=1 n=f5 v=0
18075 On ch=1 n=d4 v=46
18087 On ch=1 n=b5 v=0
18093 On ch=1 n=d5 v=45
18094 On ch=1 n=g3 v=0
18119 On ch=1 n=d5 v=0
18123 On ch=1 n=d4 v=0
18130 On ch=1 n=g4 v=54
18137 On ch=1 n=f5 v=24
18148 On ch=1 n=f5 v=0
18150 On ch=1 n=g4 v=0
18176 On ch=1 n=d6 v=0
18183 On ch=1 n=c6 v=67
18195 On ch=1 n=b4 v=27
18233 On ch=1 n=d5 v=53
18278 On ch=1 n=d6 v=72
18280 On ch=1 n=c6 v=0
18305 On ch=1 n=d6 v=0
18317 On ch=1 n=f5 v=54
18329 On ch=1 n=d5 v=0
18332 On ch=1 n=f5 v=0
18338 On ch=1 n=b4 v=0
18419 On ch=1 n=a6 v=63
18423 On ch=1 n=e6 v=47
18423 On ch=1 n=a5 v=36
18425 On ch=1 n=c3 v=43
18437 Par ch=1 c=64 v=56
18441 Par ch=1 c=64 v=0
18462 Par ch=1 c=64 v=72
18466 Par ch=1 c=64 v=127
18472 On ch=1 n=c3 v=0
18474 On ch=1 n=a5 v=0
18475 On ch=1 n=g3 v=48
18479 On ch=1 n=e6 v=0
18486 On ch=1 n=a6 v=0
18496 On ch=1 n=g3 v=0
18511 On ch=1 n=e4 v=58
18527 On ch=1 n=e4 v=0
18547 On ch=1 n=c7 v=74
18552 On ch=1 n=c6 v=39
18560 On ch=1 n=g4 v=49
18571 On ch=1 n=c7 v=0
18575 On ch=1 n=c6 v=0
18589 On ch=1 n=g4 v=0
18590 On ch=1 n=a#4 v=53
18614 On ch=1 n=a#4 v=0
18618 On ch=1 n=c5 v=58
18647 On ch=1 n=a6 v=74
18649 On ch=1 n=a5 v=63
18650 On ch=1 n=c5 v=0
18652 On ch=1 n=e5 v=54
18664 On ch=1 n=e5 v=0
18665 On ch=1 n=a5 v=0
18674 On ch=1 n=a6 v=0
18732 On ch=1 n=c7 v=82
18736 On ch=1 n=c6 v=59
18753 On ch=1 n=c7 v=0
18761 On ch=1 n=c6 v=0
18821 On ch=1 n=a6 v=74
18822 Par ch=1 c=64 v=88
18825 On ch=1 n=d3 v=52
18826 Par ch=1 c=64 v=0
18826 On ch=1 n=a5 v=55
18827 On ch=1 n=f6 v=62
18846 Par ch=1 c=64 v=40
18850 Par ch=1 c=64 v=127
18858 On ch=1 n=a3 v=61
18875 On ch=1 n=d3 v=0
18876 On ch=1 n=a3 v=0
18877 On ch=1 n=f6 v=0
18879 On ch=1 n=d4 v=56
18888 On ch=1 n=d4 v=0
18916 On ch=1 n=f4 v=53
18918 On ch=1 n=a5 v=0
18928 On ch=1 n=a6 v=0
18930 On ch=1 n=f4 v=0
18937 On ch=1 n=a4 v=54
18957 On ch=1 n=a4 v=0
18964 On ch=1 n=d5 v=57
18998 On ch=1 n=f6 v=82
18999 On ch=1 n=d5 v=0
19000 On ch=1 n=f5 v=59
19021 On ch=1 n=f5 v=0
19062 On ch=1 n=f6 v=0
19082 On ch=1 n=g6 v=84
19084 On ch=1 n=g5 v=68
19107 On ch=1 n=g5 v=0
19114 On ch=1 n=g6 v=0
19166 Par ch=1 c=64 v=56
19168 On ch=1 n=a6 v=78
19170 Par ch=1 c=64 v=0
19171 On ch=1 n=e6 v=69
19171 On ch=1 n=a5 v=64
19171 On ch=1 n=e3 v=47
19186 Par ch=1 c=64 v=104
19189 Par ch=1 c=64 v=127
19195 On ch=1 n=a5 v=0
19197 On ch=1 n=e6 v=0
19201 On ch=1 n=a6 v=0
19202 On ch=1 n=c4 v=67
19207 On ch=1 n=e3 v=0
19222 On ch=1 n=c4 v=0
19226 On ch=1 n=e4 v=64
19232 On ch=1 n=e4 v=0
19253 On ch=1 n=c7 v=82
19257 On ch=1 n=c6 v=66
19263 On ch=1 n=g4 v=64
19278 On ch=1 n=c6 v=0
19278 On ch=1 n=c7 v=0
19282 On ch=1 n=g4 v=0
19289 On ch=1 n=a#4 v=55
19311 On ch=1 n=a#4 v=0
19312 On ch=1 n=c5 v=67
19338 On ch=1 n=a6 v=82
19340 On ch=1 n=a5 v=66
19341 On ch=1 n=e5 v=60
19343 On ch=1 n=c5 v=0
19353 On ch=1 n=e5 v=0
19358 On ch=1 n=a5 v=0
19368 On ch=1 n=a6 v=0
19420 On ch=1 n=c7 v=88
19423 On ch=1 n=c6 v=69
19444 On ch=1 n=c7 v=0
19448 On ch=1 n=c6 v=0
19504 Par ch=1 c=64 v=56
19504 On ch=1 n=a6 v=85
19508 On ch=1 n=f3 v=55
19509 Par ch=1 c=64 v=0
19510 On ch=1 n=a5 v=69
19510 On ch=1 n=d#6 v=56
19512 On ch=1 n=c6 v=62
19522 Par ch=1 c=64 v=56
19526 Par ch=1 c=64 v=127
19538 On ch=1 n=c4 v=63
19548 On ch=1 n=f3 v=0
19552 On ch=1 n=c4 v=0
19556 On ch=1 n=d#4 v=57
19563 On ch=1 n=d#4 v=0
19591 On ch=1 n=f4 v=56
19600 On ch=1 n=a6 v=0
19612 On ch=1 n=f4 v=0
19614 On ch=1 n=c6 v=0
19616 On ch=1 n=a5 v=0
19617 On ch=1 n=a4 v=60
19636 On ch=1 n=a4 v=0
19639 On ch=1 n=c5 v=73
19641 On ch=1 n=d#6 v=0
19668 On ch=1 n=c5 v=0
19670 On ch=1 n=d#5 v=61
19674 On ch=1 n=f6 v=87
19678 On ch=1 n=d#5 v=0
19678 On ch=1 n=f5 v=68
19698 On ch=1 n=f5 v=0
19710 On ch=1 n=f6 v=0
19761 On ch=1 n=g6 v=92
19762 On ch=1 n=g5 v=77
19782 On ch=1 n=g5 v=0
19792 On ch=1 n=g6 v=0
19851 On ch=1 n=a6 v=86
19855 Par ch=1 c=64 v=56
19855 On ch=1 n=a5 v=68
19857 On ch=1 n=a#2 v=58
19858 On ch=1 n=d6 v=64
19858 On ch=1 n=f6 v=65
19858 Par ch=1 c=64 v=0
19874 Par ch=1 c=64 v=40
19876 On ch=1 n=a#2 v=0
19879 Par ch=1 c=64 v=127
19882 On ch=1 n=f3 v=53
19899 On ch=1 n=f6 v=0
19899 On ch=1 n=a6 v=0
19901 On ch=1 n=d6 v=0
19905 On ch=1 n=f3 v=0
19907 On ch=1 n=a#3 v=60
19912 On ch=1 n=a5 v=0
19927 On ch=1 n=a#3 v=0
19929 On ch=1 n=d4 v=54
19938 On ch=1 n=d4 v=0
19947 On ch=1 n=g6 v=89
19951 On ch=1 n=g5 v=68
19966 On ch=1 n=f4 v=55
19984 On ch=1 n=g6 v=0
19993 On ch=1 n=g5 v=0
19997 On ch=1 n=a#4 v=53
19998 On ch=1 n=f4 v=0
20028 On ch=1 n=f6 v=93
20031 On ch=1 n=f5 v=72
20031 On ch=1 n=a#5 v=62
20031 On ch=1 n=d5 v=56
20033 On ch=1 n=d6 v=63
20042 On ch=1 n=a#4 v=0
20044 On ch=1 n=d5 v=0
20055 On ch=1 n=f5 v=0
20061 On ch=1 n=a#5 v=0
20065 On ch=1 n=f6 v=0
20069 On ch=1 n=d6 v=0
20095 On ch=1 n=g6 v=89
20098 On ch=1 n=g5 v=73
20112 On ch=1 n=g5 v=0
20117 On ch=1 n=g6 v=0
20139 On ch=1 n=a6 v=81
20141 On ch=1 n=a5 v=82
20152 On ch=1 n=a5 v=0
20158 On ch=1 n=a6 v=0
20193 On ch=1 n=c7 v=90
20194 Par ch=1 c=64 v=40
20197 On ch=1 n=g2 v=59
20197 Par ch=1 c=64 v=0
20199 On ch=1 n=c6 v=56
20200 On ch=1 n=f6 v=62
20202 On ch=1 n=d6 v=60
20210 On ch=1 n=d6 v=0
20214 Par ch=1 c=64 v=72
20218 Par ch=1 c=64 v=127
20227 On ch=1 n=g2 v=0
20229 On ch=1 n=g3 v=62
20235 On ch=1 n=g3 v=0
20239 On ch=1 n=c7 v=0
20243 On ch=1 n=c6 v=0
20245 On ch=1 n=f6 v=0
20271 On ch=1 n=d4 v=54
20278 On ch=1 n=b6 v=88
20282 On ch=1 n=b5 v=69
20285 On ch=1 n=f4 v=56
20295 On ch=1 n=d4 v=0
20305 On ch=1 n=f4 v=0
20306 On ch=1 n=b5 v=0
20309 On ch=1 n=b6 v=0
20327 On ch=1 n=b4 v=53
20336 On ch=1 n=b4 v=0
20363 On ch=1 n=a6 v=78
20369 On ch=1 n=a5 v=62
20370 On ch=1 n=d6 v=64
20378 On ch=1 n=f5 v=40
20390 On ch=1 n=f5 v=0
20407 On ch=1 n=a5 v=0
20426 On ch=1 n=a6 v=0
20449 On ch=1 n=d6 v=0
20455 On ch=1 n=g6 v=76
20457 On ch=1 n=g5 v=58
20485 On ch=1 n=g5 v=0
20519 On ch=1 n=g6 v=0
20554 On ch=1 n=a6 v=80
20558 On ch=1 n=f6 v=64
20558 On ch=1 n=a#2 v=49
20558 On ch=1 n=a5 v=51
20559 On ch=1 n=d6 v=49
20561 Par ch=1 c=64 v=56
20564 Par ch=1 c=64 v=0
20585 On ch=1 n=a#2 v=0
20589 Par ch=1 c=64 v=127
20591 On ch=1 n=f3 v=55
20603 On ch=1 n=a6 v=0
20603 On ch=1 n=f6 v=0
20609 On ch=1 n=d6 v=0
20611 On ch=1 n=a5 v=0
20617 On ch=1 n=a#3 v=60
20618 On ch=1 n=f3 v=0
20643 On ch=1 n=a#3 v=0
20645 On ch=1 n=d4 v=52
20653 On ch=1 n=d4 v=0
20654 On ch=1 n=g6 v=81
20659 On ch=1 n=g5 v=57
20680 On ch=1 n=f4 v=53
20691 On ch=1 n=g6 v=0
20699 On ch=1 n=g5 v=0
20707 On ch=1 n=a#4 v=52
20708 On ch=1 n=f4 v=0
20734 On ch=1 n=f6 v=94
20737 On ch=1 n=f5 v=70
20738 On ch=1 n=a#5 v=59
20739 On ch=1 n=d5 v=59
20739 On ch=1 n=d6 v=61
20748 On ch=1 n=a#4 v=0
20751 On ch=1 n=d5 v=0
20757 On ch=1 n=f5 v=0
20761 On ch=1 n=a#5 v=0
20766 On ch=1 n=f6 v=0
20767 On ch=1 n=d6 v=0
20794 On ch=1 n=g6 v=90
20797 On ch=1 n=g5 v=71
20807 On ch=1 n=g5 v=0
20812 On ch=1 n=g6 v=0
20833 On ch=1 n=a6 v=93
20836 On ch=1 n=a5 v=85
20850 On ch=1 n=a5 v=0
20854 On ch=1 n=a6 v=0
20886 On ch=1 n=g2 v=59
20895 On ch=1 n=c7 v=96
20897 Par ch=1 c=64 v=0
20900 On ch=1 n=f6 v=73
20900 On ch=1 n=d6 v=68
20901 On ch=1 n=c6 v=76
20920 Par ch=1 c=64 v=127
20926 On ch=1 n=g2 v=0
20928 On ch=1 n=g3 v=67
20934 On ch=1 n=g3 v=0
20938 On ch=1 n=c7 v=0
20943 On ch=1 n=d6 v=0
20946 On ch=1 n=c6 v=0
20956 On ch=1 n=f6 v=0
20966 On ch=1 n=d4 v=52
20983 On ch=1 n=b6 v=87
20988 On ch=1 n=b5 v=63
20989 On ch=1 n=f4 v=44
20994 On ch=1 n=d4 v=0
21009 On ch=1 n=b5 v=0
21011 On ch=1 n=f4 v=0
21013 On ch=1 n=b6 v=0
21014 On ch=1 n=g4 v=62
21024 On ch=1 n=g4 v=0
21033 On ch=1 n=b4 v=42
21042 On ch=1 n=b4 v=0
21073 On ch=1 n=a6 v=77
21080 On ch=1 n=d6 v=59
21081 On ch=1 n=b5 v=41
21082 On ch=1 n=f5 v=47
21104 On ch=1 n=f5 v=0
21157 On ch=1 n=a6 v=0
21166 On ch=1 n=d6 v=0
21170 On ch=1 n=g6 v=70
21170 On ch=1 n=g5 v=54
21181 On ch=1 n=b5 v=0
21215 On ch=1 n=g5 v=0
21215 On ch=1 n=g6 v=0
21289 On ch=1 n=a6 v=70
21297 On ch=1 n=a#5 v=37
21298 On ch=1 n=d6 v=46
21317 Par ch=1 c=64 v=104
21325 Par ch=1 c=64 v=127
21364 On ch=1 n=a6 v=0
21373 On ch=1 n=d6 v=0
21381 On ch=1 n=g6 v=70
21381 On ch=1 n=e5 v=45
21387 On ch=1 n=a#5 v=0
21399 On ch=1 n=g6 v=0
21445 On ch=1 n=e5 v=0
21463 On ch=1 n=f6 v=68
21469 On ch=1 n=d5 v=29
21469 On ch=1 n=a#5 v=38
21472 On ch=1 n=g5 v=34
21479 Par ch=1 c=64 v=40
21483 Par ch=1 c=64 v=0
21495 Par ch=1 c=64 v=56
21499 Par ch=1 c=64 v=127
21526 On ch=1 n=f6 v=0
21536 On ch=1 n=a#5 v=0
21538 On ch=1 n=d5 v=0
21545 On ch=1 n=e6 v=71
21547 On ch=1 n=g5 v=0
21549 On ch=1 n=c#5 v=32
21559 Par ch=1 c=64 v=88
21563 Par ch=1 c=64 v=0
21584 Par ch=1 c=64 v=24
21588 Par ch=1 c=64 v=104
21592 Par ch=1 c=64 v=127
21633 On ch=1 n=a5 v=39
21633 On ch=1 n=f5 v=31
21676 On ch=1 n=e6 v=0
21707 On ch=1 n=c#5 v=0
21712 On ch=1 n=f6 v=69
21722 On ch=1 n=d5 v=32
21729 Par ch=1 c=64 v=72
21733 Par ch=1 c=64 v=0
21749 Par ch=1 c=64 v=72
21753 Par ch=1 c=64 v=127
21775 On ch=1 n=d5 v=0
21791 On ch=1 n=c5 v=44
21813 On ch=1 n=f5 v=0
21814 On ch=1 n=a5 v=0
21826 On ch=1 n=f6 v=0
21855 On ch=1 n=c5 v=0
21878 On ch=1 n=d6 v=68
21881 On ch=1 n=b4 v=40
21950 On ch=1 n=b4 v=0
21959 Par ch=1 c=64 v=72
21963 Par ch=1 c=64 v=0
21964 On ch=1 n=a4 v=40
21975 Par ch=1 c=64 v=40
21979 Par ch=1 c=64 v=88
21983 Par ch=1 c=64 v=127
22017 On ch=1 n=d6 v=0
22039 On ch=1 n=a4 v=0
22051 On ch=1 n=a5 v=52
22053 On ch=1 n=d5 v=39
22055 On ch=1 n=b4 v=36
22059 On ch=1 n=f5 v=41
22068 Par ch=1 c=64 v=40
22072 Par ch=1 c=64 v=0
22084 Par ch=1 c=64 v=56
22088 Par ch=1 c=64 v=127
22124 On ch=1 n=b4 v=0
22130 On ch=1 n=f5 v=0
22131 On ch=1 n=a5 v=0
22142 On ch=1 n=d5 v=0
22142 On ch=1 n=a4 v=44
22214 On ch=1 n=a4 v=0
22229 On ch=1 n=f5 v=62
22231 On ch=1 n=b4 v=51
22233 On ch=1 n=d5 v=52
22234 On ch=1 n=g4 v=49
22244 On ch=1 n=g4 v=0
22247 On ch=1 n=b4 v=0
22249 On ch=1 n=d5 v=0
22259 On ch=1 n=f5 v=0
22334 On ch=1 n=c6 v=59
22334 Par ch=1 c=64 v=104
22335 On ch=1 n=g5 v=51
22337 Par ch=1 c=64 v=24
22341 On ch=1 n=f5 v=36
22342 Par ch=1 c=64 v=0
22345 On ch=1 n=c3 v=36
22345 On ch=1 n=g3 v=22
22355 Par ch=1 c=64 v=56
22359 Par ch=1 c=64 v=127
22370 On ch=1 n=c3 v=0
22380 On ch=1 n=g3 v=0
22425 On ch=1 n=e5 v=41
22431 On ch=1 n=g4 v=40
22439 On ch=1 n=f5 v=0
22498 On ch=1 n=e5 v=0
22522 On ch=1 n=f5 v=35
22524 On ch=1 n=g4 v=0
22534 On ch=1 n=g5 v=0
22600 On ch=1 n=f5 v=0
22619 On ch=1 n=e5 v=29
22624 On ch=1 n=c5 v=38
22652 On ch=1 n=e5 v=0
22663 On ch=1 n=c5 v=0
22744 On ch=1 n=d#5 v=49
22779 Par ch=1 c=64 v=56
22783 Par ch=1 c=64 v=0
22794 On ch=1 n=d#5 v=0
22800 On ch=1 n=g5 v=40
22803 Par ch=1 c=64 v=104
22807 Par ch=1 c=64 v=127
22824 On ch=1 n=g5 v=0
22838 On ch=1 n=d#5 v=43
22863 On ch=1 n=d#5 v=0
22871 On ch=1 n=c6 v=0
22875 On ch=1 n=d#6 v=67
22876 On ch=1 n=g5 v=39
22896 On ch=1 n=g5 v=0
22903 On ch=1 n=d#5 v=46
22929 On ch=1 n=d#5 v=0
22940 On ch=1 n=c5 v=36
22952 On ch=1 n=c5 v=0
22966 On ch=1 n=d#6 v=0
22969 On ch=1 n=a#4 v=44
22972 On ch=1 n=c6 v=64
22976 Par ch=1 c=64 v=104
22980 Par ch=1 c=64 v=40
22984 Par ch=1 c=64 v=0
22992 On ch=1 n=a#4 v=0
22993 Par ch=1 c=64 v=40
22996 Par ch=1 c=64 v=104
22998 On ch=1 n=c5 v=55
23000 Par ch=1 c=64 v=127
23023 On ch=1 n=c5 v=0
23025 On ch=1 n=d#5 v=37
23044 On ch=1 n=d#5 v=0
23054 On ch=1 n=g5 v=34
23061 On ch=1 n=d#6 v=62
23083 On ch=1 n=g5 v=0
23085 On ch=1 n=d#5 v=43
23114 On ch=1 n=d#5 v=0
23126 On ch=1 n=c5 v=36
23130 On ch=1 n=d#6 v=0
23145 On ch=1 n=c5 v=0
23146 On ch=1 n=c6 v=0
23155 On ch=1 n=d6 v=65
23163 On ch=1 n=a4 v=54
23170 Par ch=1 c=64 v=24
23174 Par ch=1 c=64 v=0
23201 On ch=1 n=c5 v=37
23202 Par ch=1 c=64 v=88
23206 Par ch=1 c=64 v=127
23207 On ch=1 n=a4 v=0
23217 On ch=1 n=c5 v=0
23225 On ch=1 n=d5 v=41
23235 On ch=1 n=d5 v=0
23246 On ch=1 n=a5 v=48
23252 On ch=1 n=f#5 v=19
23262 On ch=1 n=f#5 v=0
23269 On ch=1 n=d5 v=38
23291 On ch=1 n=d5 v=0
23294 On ch=1 n=f#5 v=48
23310 On ch=1 n=a5 v=0
23318 On ch=1 n=f#5 v=0
23318 On ch=1 n=d6 v=0
23324 On ch=1 n=c6 v=72
23326 On ch=1 n=d5 v=40
23352 On ch=1 n=d5 v=0
23357 On ch=1 n=f#5 v=37
23375 On ch=1 n=f#5 v=0
23379 On ch=1 n=d5 v=44
23400 On ch=1 n=d5 v=0
23402 On ch=1 n=c6 v=0
23404 On ch=1 n=f#5 v=44
23408 On ch=1 n=d6 v=83
23427 On ch=1 n=f#5 v=0
23435 On ch=1 n=d5 v=52
23459 On ch=1 n=d5 v=0
23464 On ch=1 n=c5 v=46
23474 On ch=1 n=d6 v=0
23484 On ch=1 n=c5 v=0
23484 Par ch=1 c=64 v=88
23488 On ch=1 n=d#6 v=77
23488 Par ch=1 c=64 v=0
23493 On ch=1 n=c6 v=63
23499 On ch=1 n=g4 v=46
23508 Par ch=1 c=64 v=72
23512 Par ch=1 c=64 v=127
23517 On ch=1 n=g4 v=0
23525 On ch=1 n=c5 v=46
23537 On ch=1 n=c5 v=0
23544 On ch=1 n=d#5 v=62
23561 On ch=1 n=d#5 v=0
23571 On ch=1 n=a#5 v=60
23575 On ch=1 n=c6 v=0
23592 On ch=1 n=d#6 v=0
23596 On ch=1 n=a#5 v=0
23597 On ch=1 n=d#5 v=44
23613 On ch=1 n=d#5 v=0
23613 On ch=1 n=c5 v=54
23646 On ch=1 n=c5 v=0
23652 On ch=1 n=a5 v=62
23654 On ch=1 n=f6 v=82
23661 On ch=1 n=d6 v=48
23673 On ch=1 n=d6 v=0
23681 On ch=1 n=a5 v=0
23687 On ch=1 n=d#5 v=68
23712 On ch=1 n=f6 v=0
23719 On ch=1 n=c5 v=57
23721 On ch=1 n=d#5 v=0
23738 On ch=1 n=g6 v=83
23743 On ch=1 n=d#6 v=61
23749 On ch=1 n=c5 v=0
23750 On ch=1 n=g5 v=58
23765 On ch=1 n=d#6 v=0
23774 On ch=1 n=d#5 v=52
23775 On ch=1 n=g5 v=0
23789 On ch=1 n=d#5 v=0
23789 On ch=1 n=c5 v=48
23797 On ch=1 n=c5 v=0
23814 On ch=1 n=g6 v=0
23847 On ch=1 n=a6 v=73
23847 On ch=1 n=f6 v=51
23851 Par ch=1 c=64 v=104
23855 Par ch=1 c=64 v=24
23858 On ch=1 n=d6 v=25
23859 Par ch=1 c=64 v=0
23860 On ch=1 n=d3 v=39
23882 On ch=1 n=f6 v=0
23883 Par ch=1 c=64 v=127
23886 On ch=1 n=a6 v=0
23896 On ch=1 n=d6 v=0
23897 On ch=1 n=a3 v=44
23905 On ch=1 n=d3 v=0
23908 On ch=1 n=a3 v=0
23915 On ch=1 n=d4 v=53
23922 On ch=1 n=d4 v=0
23944 On ch=1 n=f6 v=62
23945 On ch=1 n=d6 v=44
23948 On ch=1 n=a5 v=48
23959 On ch=1 n=d6 v=0
23959 On ch=1 n=f4 v=34
23961 On ch=1 n=f6 v=0
23967 On ch=1 n=f4 v=0
23971 On ch=1 n=a5 v=0
23981 On ch=1 n=a4 v=41
23995 On ch=1 n=a4 v=0
24002 On ch=1 n=d5 v=47
24029 On ch=1 n=d5 v=0
24034 On ch=1 n=f5 v=53
24036 On ch=1 n=d6 v=64
24037 On ch=1 n=a5 v=51
24065 On ch=1 n=a5 v=0
24074 On ch=1 n=f5 v=0
24129 On ch=1 n=f5 v=35
24129 On ch=1 n=a5 v=41
24129 On ch=1 n=d5 v=31
24157 On ch=1 n=d5 v=0
24157 On ch=1 n=a5 v=0
24157 On ch=1 n=f5 v=0
24189 On ch=1 n=d6 v=0
24232 On ch=1 n=d#5 v=58
24237 On ch=1 n=c6 v=66
24247 Par ch=1 c=64 v=72
24251 Par ch=1 c=64 v=0
24263 On ch=1 n=d#5 v=0
24267 On ch=1 n=g5 v=53
24271 Par ch=1 c=64 v=88
24275 Par ch=1 c=64 v=127
24285 On ch=1 n=g5 v=0
24291 On ch=1 n=d#5 v=46
24306 On ch=1 n=c6 v=0
24314 On ch=1 n=d#5 v=0
24321 On ch=1 n=d#6 v=74
24322 On ch=1 n=g5 v=46
24345 On ch=1 n=d#5 v=56
24346 On ch=1 n=g5 v=0
24374 On ch=1 n=d#5 v=0
24384 On ch=1 n=c5 v=51
24402 On ch=1 n=c5 v=0
24402 On ch=1 n=d#6 v=0
24403 On ch=1 n=c6 v=74
24411 On ch=1 n=a#4 v=60
24413 Par ch=1 c=64 v=56
24417 Par ch=1 c=64 v=0
24433 Par ch=1 c=64 v=40
24436 On ch=1 n=a#4 v=0
24436 On ch=1 n=c5 v=60
24437 Par ch=1 c=64 v=127
24467 On ch=1 n=c5 v=0
24469 On ch=1 n=d#5 v=26
24479 On ch=1 n=d#5 v=0
24484 On ch=1 n=g5 v=47
24488 On ch=1 n=d#6 v=71
24509 On ch=1 n=d#5 v=48
24511 On ch=1 n=c6 v=0
24513 On ch=1 n=g5 v=0
24535 On ch=1 n=d#5 v=0
24544 On ch=1 n=c5 v=54
24554 On ch=1 n=d#6 v=0
24570 On ch=1 n=c5 v=0
24575 On ch=1 n=d6 v=69
24578 Par ch=1 c=64 v=56
24579 On ch=1 n=a4 v=64
24582 Par ch=1 c=64 v=0
24610 Par ch=1 c=64 v=56
24612 On ch=1 n=c5 v=50
24613 On ch=1 n=a4 v=0
24615 Par ch=1 c=64 v=127
24634 On ch=1 n=c5 v=0
24637 On ch=1 n=d5 v=53
24646 On ch=1 n=d5 v=0
24664 On ch=1 n=f#5 v=25
24667 On ch=1 n=a5 v=58
24677 On ch=1 n=f#5 v=0
24685 On ch=1 n=d5 v=47
24706 On ch=1 n=d5 v=0
24713 On ch=1 n=f#5 v=45
24717 On ch=1 n=a5 v=0
24725 On ch=1 n=d6 v=0
24735 On ch=1 n=f#5 v=0
24741 On ch=1 n=d5 v=37
24743 On ch=1 n=c6 v=68
24767 On ch=1 n=d5 v=0
24771 On ch=1 n=f#5 v=43
24788 On ch=1 n=f#5 v=0
24792 On ch=1 n=d5 v=55
24809 On ch=1 n=c6 v=0
24815 On ch=1 n=d5 v=0
24818 On ch=1 n=d6 v=79
24819 On ch=1 n=f#5 v=48
24843 On ch=1 n=f#5 v=0
24846 On ch=1 n=d5 v=57
24868 On ch=1 n=d6 v=0
24872 On ch=1 n=d5 v=0
24877 On ch=1 n=c5 v=52
24898 Par ch=1 c=64 v=104
24900 On ch=1 n=c5 v=0
24902 On ch=1 n=d#6 v=77
24902 Par ch=1 c=64 v=24
24906 Par ch=1 c=64 v=0
24906 On ch=1 n=g4 v=62
24908 On ch=1 n=c6 v=52
24926 Par ch=1 c=64 v=72
24930 On ch=1 n=g4 v=0
24930 Par ch=1 c=64 v=127
24932 On ch=1 n=c5 v=62
24948 On ch=1 n=d#5 v=53
24954 On ch=1 n=c5 v=0
24970 On ch=1 n=d#5 v=0
24974 On ch=1 n=g5 v=62
25001 On ch=1 n=c6 v=0
25001 On ch=1 n=d#5 v=51
25004 On ch=1 n=g5 v=0
25014 On ch=1 n=d#6 v=0
25017 On ch=1 n=c5 v=65
25022 On ch=1 n=d#5 v=0
25036 On ch=1 n=c5 v=0
25058 On ch=1 n=f6 v=88
25064 On ch=1 n=d6 v=53
25064 On ch=1 n=d#4 v=54
25069 Par ch=1 c=64 v=40
25073 On ch=1 n=d6 v=0
25073 Par ch=1 c=64 v=0
25085 On ch=1 n=d#4 v=0
25089 On ch=1 n=d6 v=18
25089 Par ch=1 c=64 v=104
25091 On ch=1 n=g4 v=64
25093 Par ch=1 c=64 v=127
25112 On ch=1 n=g4 v=0
25112 On ch=1 n=c5 v=66
25116 On ch=1 n=d6 v=0
25120 On ch=1 n=f6 v=0
25132 On ch=1 n=c5 v=0
25139 On ch=1 n=d#5 v=56
25142 On ch=1 n=g6 v=89
25146 On ch=1 n=d#6 v=58
25172 On ch=1 n=d#5 v=0
25175 On ch=1 n=c5 v=45
25183 On ch=1 n=c5 v=0
25189 On ch=1 n=g4 v=56
25195 On ch=1 n=g4 v=0
25203 On ch=1 n=d#6 v=0
25211 On ch=1 n=g6 v=0
25255 On ch=1 n=g#6 v=74
25260 On ch=1 n=f#6 v=45
25262 On ch=1 n=d#6 v=50
25262 Par ch=1 c=64 v=56
25266 Par ch=1 c=64 v=0
25268 On ch=1 n=g#2 v=45
25291 Par ch=1 c=64 v=127
25294 On ch=1 n=f#6 v=0
25295 On ch=1 n=d#6 v=0
25297 On ch=1 n=g#3 v=50
25300 On ch=1 n=g#2 v=0
25305 On ch=1 n=g#6 v=0
25307 On ch=1 n=g#3 v=0
25348 On ch=1 n=d#4 v=27
25350 On ch=1 n=f#6 v=69
25354 On ch=1 n=d#6 v=50
25360 On ch=1 n=c6 v=44
25371 On ch=1 n=c6 v=0
25379 On ch=1 n=d#4 v=0
25381 On ch=1 n=f#4 v=37
25382 On ch=1 n=d#6 v=0
25394 On ch=1 n=g#4 v=55
25410 On ch=1 n=f#4 v=0
25420 On ch=1 n=f#6 v=0
25435 On ch=1 n=g#4 v=0
25445 On ch=1 n=c5 v=46
25447 On ch=1 n=d#6 v=58
25450 On ch=1 n=g#5 v=43
25481 On ch=1 n=c5 v=0
25482 On ch=1 n=g#5 v=0
25549 On ch=1 n=g#5 v=36
25557 On ch=1 n=c6 v=50
25573 On ch=1 n=c6 v=0
25577 On ch=1 n=g#5 v=0
25587 On ch=1 n=d#6 v=0
25665 On ch=1 n=g#6 v=63
25676 Par ch=1 c=64 v=72
25678 On ch=1 n=f4 v=42
25679 Par ch=1 c=64 v=0
25700 Par ch=1 c=64 v=40
25702 On ch=1 n=f4 v=0
25703 Par ch=1 c=64 v=127
25711 On ch=1 n=b4 v=35
25725 On ch=1 n=b4 v=0
25733 On ch=1 n=d#5 v=45
25744 On ch=1 n=d#5 v=0
25745 On ch=1 n=g#6 v=0
25763 On ch=1 n=g#5 v=33
25766 On ch=1 n=b6 v=63
25771 On ch=1 n=b5 v=33
25775 On ch=1 n=d#6 v=34
25782 On ch=1 n=g#5 v=0
25792 On ch=1 n=d#5 v=40
25803 On ch=1 n=d#5 v=0
25819 On ch=1 n=g#5 v=38
25820 On ch=1 n=b6 v=0
25837 On ch=1 n=d#6 v=0
25839 On ch=1 n=g#5 v=0
25840 On ch=1 n=b5 v=0
25849 On ch=1 n=g#6 v=64
25851 On ch=1 n=d#5 v=43
25865 On ch=1 n=d#5 v=0
25876 On ch=1 n=g#5 v=55
25895 On ch=1 n=g#5 v=0
25899 On ch=1 n=g#6 v=0
25904 On ch=1 n=d#5 v=45
25919 On ch=1 n=d#5 v=0
25927 On ch=1 n=g#5 v=50
25930 On ch=1 n=b6 v=68
25936 On ch=1 n=b5 v=34
25937 On ch=1 n=d#6 v=36
25952 On ch=1 n=g#5 v=0
25953 On ch=1 n=d#5 v=48
25975 On ch=1 n=b6 v=0
25980 On ch=1 n=d#5 v=0
25983 On ch=1 n=b4 v=51
25993 On ch=1 n=b4 v=0
25993 On ch=1 n=b5 v=0
26016 On ch=1 n=d#6 v=0
26025 On ch=1 n=g6 v=76
26029 Par ch=1 c=64 v=40
26032 On ch=1 n=d4 v=55
26033 Par ch=1 c=64 v=0
26051 On ch=1 n=d4 v=0
26053 Par ch=1 c=64 v=127
26062 On ch=1 n=g4 v=42
26074 On ch=1 n=g4 v=0
26085 On ch=1 n=b4 v=42
26095 On ch=1 n=b4 v=0
26106 On ch=1 n=f5 v=39
26115 On ch=1 n=d6 v=51
26118 On ch=1 n=b5 v=33
26120 On ch=1 n=f5 v=0
26130 On ch=1 n=b4 v=54
26149 On ch=1 n=b4 v=0
26156 On ch=1 n=f5 v=51
26173 On ch=1 n=g6 v=0
26178 On ch=1 n=b5 v=0
26178 On ch=1 n=d6 v=0
26179 On ch=1 n=f5 v=0
26184 On ch=1 n=f6 v=80
26188 On ch=1 n=b4 v=58
26209 On ch=1 n=b4 v=0
26217 On ch=1 n=f5 v=55
26236 On ch=1 n=f5 v=0
26241 On ch=1 n=b4 v=59
26250 On ch=1 n=f6 v=0
26261 On ch=1 n=b4 v=0
26267 On ch=1 n=g6 v=79
26267 On ch=1 n=d6 v=48
26267 On ch=1 n=b5 v=48
26268 On ch=1 n=f5 v=55
26274 On ch=1 n=b5 v=40
26286 On ch=1 n=b5 v=0
26294 On ch=1 n=f5 v=0
26294 On ch=1 n=b4 v=59
26299 On ch=1 n=g6 v=0
26299 On ch=1 n=b5 v=0
26299 On ch=1 n=d6 v=0
26327 On ch=1 n=b4 v=0
26332 On ch=1 n=g4 v=53
26350 Par ch=1 c=64 v=88
26354 Par ch=1 c=64 v=0
26356 On ch=1 n=g4 v=0
26356 On ch=1 n=g#6 v=87
26360 On ch=1 n=f4 v=63
26374 Par ch=1 c=64 v=72
26377 On ch=1 n=f4 v=0
26378 Par ch=1 c=64 v=127
26395 On ch=1 n=b4 v=43
26405 On ch=1 n=b4 v=0
26419 On ch=1 n=d#5 v=44
26426 On ch=1 n=d#5 v=0
26436 On ch=1 n=d#6 v=69
26437 On ch=1 n=b5 v=49
26438 On ch=1 n=g#5 v=49
26446 On ch=1 n=b5 v=0
26455 On ch=1 n=d#6 v=0
26457 On ch=1 n=g#5 v=0
26459 On ch=1 n=g#6 v=0
26468 On ch=1 n=d#5 v=58
26486 On ch=1 n=d#5 v=0
26490 On ch=1 n=g#5 v=57
26513 On ch=1 n=b6 v=93
26515 On ch=1 n=g#5 v=0
26517 On ch=1 n=d#6 v=55
26517 On ch=1 n=g#6 v=56
26519 On ch=1 n=d#5 v=56
26525 On ch=1 n=g#6 v=0
26533 On ch=1 n=d#6 v=0
26538 On ch=1 n=d#5 v=0
26544 On ch=1 n=g#5 v=60
26559 On ch=1 n=b6 v=0
26563 On ch=1 n=g#5 v=0
26567 On ch=1 n=d#5 v=55
26587 On ch=1 n=d#5 v=0
26590 On ch=1 n=g#5 v=51
26601 On ch=1 n=d#7 v=96
26605 On ch=1 n=b6 v=73
26607 On ch=1 n=d#6 v=49
26610 On ch=1 n=g#5 v=0
26612 On ch=1 n=b6 v=0
26614 On ch=1 n=d#5 v=53
26615 On ch=1 n=d#6 v=0
26639 On ch=1 n=d#5 v=0
26640 On ch=1 n=g#5 v=48
26644 On ch=1 n=d#7 v=0
26658 On ch=1 n=d#5 v=19
26672 On ch=1 n=g#5 v=0
26689 On ch=1 n=d#5 v=0
26693 On ch=1 n=d7 v=87
26697 On ch=1 n=b6 v=55
26697 On ch=1 n=g5 v=55
26698 Par ch=1 c=64 v=24
26701 On ch=1 n=b4 v=57
26702 Par ch=1 c=64 v=0
26706 On ch=1 n=g5 v=0
26706 On ch=1 n=b6 v=0
26725 On ch=1 n=b4 v=0
26727 Par ch=1 c=64 v=88
26729 On ch=1 n=d5 v=56
26731 Par ch=1 c=64 v=127
26751 On ch=1 n=d5 v=0
26753 On ch=1 n=f5 v=55
26773 On ch=1 n=f5 v=0
26773 On ch=1 n=d7 v=0
26782 On ch=1 n=g5 v=40
26783 On ch=1 n=g6 v=59
26784 On ch=1 n=d6 v=44
26793 On ch=1 n=g5 v=0
26800 On ch=1 n=g6 v=0
26809 On ch=1 n=f5 v=46
26813 On ch=1 n=d6 v=0
26828 On ch=1 n=f5 v=0
26837 On ch=1 n=g5 v=48
26865 On ch=1 n=g5 v=0
26871 On ch=1 n=b6 v=69
26874 On ch=1 n=g6 v=44
26878 On ch=1 n=d6 v=39
26880 On ch=1 n=f5 v=33
26890 On ch=1 n=d6 v=0
26891 On ch=1 n=g6 v=0
26893 On ch=1 n=b6 v=0
26897 On ch=1 n=f5 v=0
26969 On ch=1 n=g6 v=60
26975 On ch=1 n=b5 v=37
26981 On ch=1 n=d6 v=29
26992 On ch=1 n=d6 v=0
26994 On ch=1 n=b5 v=0
26997 On ch=1 n=g6 v=0
27076 On ch=1 n=g#6 v=60
27081 Par ch=1 c=64 v=40
27085 On ch=1 n=f4 v=37
27086 Par ch=1 c=64 v=0
27101 On ch=1 n=f4 v=0
27102 Par ch=1 c=64 v=56
27106 Par ch=1 c=64 v=127
27115 On ch=1 n=b4 v=39
27120 On ch=1 n=g#6 v=0
27126 On ch=1 n=b4 v=0
27134 On ch=1 n=d#5 v=44
27143 On ch=1 n=d#5 v=0
27164 On ch=1 n=g#5 v=26
27172 On ch=1 n=b6 v=73
27177 On ch=1 n=d#6 v=37
27179 On ch=1 n=b5 v=32
27185 On ch=1 n=g#5 v=0
27201 On ch=1 n=d#5 v=30
27212 On ch=1 n=d#5 v=0
27215 On ch=1 n=b6 v=0
27222 On ch=1 n=g#5 v=48
27233 On ch=1 n=b5 v=0
27235 On ch=1 n=d#6 v=0
27242 On ch=1 n=g#5 v=0
27253 On ch=1 n=d#5 v=43
27254 On ch=1 n=g#6 v=75
27263 On ch=1 n=d#5 v=0
27275 On ch=1 n=g#5 v=53
27294 On ch=1 n=g#6 v=0
27297 On ch=1 n=g#5 v=0
27303 On ch=1 n=d#5 v=56
27323 On ch=1 n=d#5 v=0
27334 On ch=1 n=g#5 v=54
27335 On ch=1 n=b6 v=74
27340 On ch=1 n=d#6 v=42
27340 On ch=1 n=b5 v=42
27361 On ch=1 n=g#5 v=0
27363 On ch=1 n=d#5 v=58
27377 On ch=1 n=b6 v=0
27385 On ch=1 n=b5 v=0
27388 On ch=1 n=d#5 v=0
27390 On ch=1 n=b4 v=64
27398 On ch=1 n=b4 v=0
27418 On ch=1 n=d#6 v=0
27428 On ch=1 n=g6 v=75
27430 Par ch=1 c=64 v=104
27434 Par ch=1 c=64 v=0
27436 On ch=1 n=d4 v=60
27447 On ch=1 n=d4 v=0
27453 Par ch=1 c=64 v=127
27464 On ch=1 n=g4 v=26
27472 On ch=1 n=g4 v=0
27474 On ch=1 n=b4 v=60
27492 On ch=1 n=b4 v=0
27502 On ch=1 n=f5 v=44
27510 On ch=1 n=g6 v=0
27514 On ch=1 n=d6 v=64
27518 On ch=1 n=f5 v=0
27519 On ch=1 n=b5 v=44
27520 On ch=1 n=g6 v=12
27529 On ch=1 n=b4 v=55
27550 On ch=1 n=b4 v=0
27559 On ch=1 n=f5 v=56
27564 On ch=1 n=g6 v=0
27583 On ch=1 n=d6 v=0
27583 On ch=1 n=b5 v=0
27583 On ch=1 n=f5 v=0
27585 On ch=1 n=b4 v=59
27589 On ch=1 n=f6 v=82
27611 On ch=1 n=b4 v=0
27620 On ch=1 n=f5 v=57
27639 On ch=1 n=f5 v=0
27641 On ch=1 n=b4 v=63
27651 On ch=1 n=f6 v=0
27661 On ch=1 n=b4 v=0
27667 On ch=1 n=g6 v=85
27673 On ch=1 n=d6 v=56
27673 On ch=1 n=f5 v=57
27673 On ch=1 n=b5 v=42
27682 On ch=1 n=d6 v=0
27696 On ch=1 n=f5 v=0
27700 On ch=1 n=b4 v=68
27710 On ch=1 n=g6 v=0
27729 On ch=1 n=b4 v=0
27732 On ch=1 n=g4 v=68
27756 On ch=1 n=g4 v=0
27757 On ch=1 n=b5 v=0
27759 Par ch=1 c=64 v=40
27760 On ch=1 n=f4 v=62
27762 On ch=1 n=g#6 v=88
27762 Par ch=1 c=64 v=0
27779 Par ch=1 c=64 v=88
27781 On ch=1 n=f4 v=0
27783 Par ch=1 c=64 v=127
27794 On ch=1 n=b4 v=62
27808 On ch=1 n=b4 v=0
27818 On ch=1 n=d#5 v=48
27826 On ch=1 n=d#5 v=0
27837 On ch=1 n=g#5 v=57
27851 On ch=1 n=d#6 v=73
27854 On ch=1 n=g#5 v=0
27854 On ch=1 n=b5 v=41
27862 On ch=1 n=b5 v=0
27868 On ch=1 n=d#6 v=0
27868 On ch=1 n=d#5 v=53
27872 On ch=1 n=g#6 v=0
27882 On ch=1 n=d#5 v=0
27888 On ch=1 n=g#5 v=60
27909 On ch=1 n=g#5 v=0
27919 On ch=1 n=d#5 v=47
27930 On ch=1 n=b6 v=96
27933 On ch=1 n=d#6 v=58
27937 On ch=1 n=g#6 v=55
27944 On ch=1 n=g#6 v=0
27946 On ch=1 n=d#6 v=0
27952 On ch=1 n=d#5 v=0
27962 On ch=1 n=g#5 v=58
27985 On ch=1 n=g#5 v=0
27986 On ch=1 n=d#5 v=60
27996 On ch=1 n=b6 v=0
28013 On ch=1 n=d#5 v=0
28023 On ch=1 n=g#5 v=59
28027 On ch=1 n=c#7 v=87
28047 On ch=1 n=g#5 v=0
28053 On ch=1 n=d#5 v=43
28077 On ch=1 n=g#5 v=49
28085 On ch=1 n=d#5 v=0
28097 On ch=1 n=g#5 v=0
28116 On ch=1 n=c#7 v=0
28155 On ch=1 n=d#7 v=85
28161 On ch=1 n=b6 v=60
28166 On ch=1 n=c#3 v=53
28167 Par ch=1 c=64 v=104
28171 Par ch=1 c=64 v=0
28173 On ch=1 n=b6 v=0
28195 Par ch=1 c=64 v=104
28199 On ch=1 n=c#3 v=0
28199 Par ch=1 c=64 v=127
28209 On ch=1 n=g#3 v=40
28215 On ch=1 n=g#6 v=55
28220 On ch=1 n=g#3 v=0
28232 On ch=1 n=c#4 v=49
28238 On ch=1 n=d#7 v=0
28242 On ch=1 n=g#6 v=0
28246 On ch=1 n=f6 v=44
28252 On ch=1 n=c#4 v=0
28254 On ch=1 n=f6 v=0
28265 On ch=1 n=f4 v=50
28283 On ch=1 n=b5 v=60
28292 On ch=1 n=f4 v=0
28306 On ch=1 n=b5 v=0
28308 On ch=1 n=g#4 v=37
28313 On ch=1 n=g#5 v=45
28325 On ch=1 n=g#4 v=0
28336 On ch=1 n=g#5 v=0
28342 On ch=1 n=f5 v=44
28350 On ch=1 n=b4 v=45
28360 On ch=1 n=f5 v=0
28367 On ch=1 n=b4 v=0
28384 On ch=1 n=c#6 v=65
28389 On ch=1 n=c#5 v=33
28396 On ch=1 n=b5 v=46
28424 On ch=1 n=c#6 v=0
28428 On ch=1 n=g#5 v=37
28439 On ch=1 n=b5 v=0
28446 On ch=1 n=g#5 v=0
28449 On ch=1 n=c#5 v=0
28456 On ch=1 n=f5 v=31
28466 On ch=1 n=f5 v=0
28495 On ch=1 n=d#6 v=67
28496 On ch=1 n=d#5 v=44
28501 On ch=1 n=b5 v=49
28515 On ch=1 n=d#5 v=0
28516 On ch=1 n=b5 v=0
28543 On ch=1 n=g#5 v=45
28566 On ch=1 n=g#5 v=0
28577 On ch=1 n=f5 v=42
28582 On ch=1 n=d#6 v=0
28587 On ch=1 n=f5 v=0
28654 On ch=1 n=e6 v=64
28663 On ch=1 n=c3 v=36
28665 On ch=1 n=d6 v=45
28665 Par ch=1 c=64 v=0
28675 On ch=1 n=g3 v=35
28677 On ch=1 n=d6 v=0
28694 Par ch=1 c=64 v=88
28698 Par ch=1 c=64 v=127
28699 On ch=1 n=e5 v=54
28704 On ch=1 n=c3 v=0
28713 On ch=1 n=e6 v=0
28717 On ch=1 n=e5 v=0
28732 On ch=1 n=d6 v=55
28746 On ch=1 n=g3 v=0
28757 On ch=1 n=d6 v=0
28773 On ch=1 n=g6 v=65
28777 On ch=1 n=c6 v=42
28779 On ch=1 n=e4 v=27
28796 On ch=1 n=c6 v=0
28797 On ch=1 n=g6 v=0
28799 On ch=1 n=e4 v=0
28809 On ch=1 n=g5 v=41
28824 On ch=1 n=g5 v=0
28841 On ch=1 n=c6 v=47
28852 On ch=1 n=c6 v=0
28871 On ch=1 n=e6 v=62
28876 On ch=1 n=d6 v=50
28878 On ch=1 n=g4 v=39
28885 On ch=1 n=d6 v=0
28897 On ch=1 n=e6 v=0
28904 On ch=1 n=e5 v=61
28920 On ch=1 n=e5 v=0
28930 On ch=1 n=d6 v=64
28955 On ch=1 n=d6 v=0
28959 On ch=1 n=c5 v=40
28963 On ch=1 n=a#4 v=27
28967 On ch=1 n=g6 v=72
28970 On ch=1 n=c6 v=55
28973 On ch=1 n=c5 v=0
28976 On ch=1 n=g4 v=0
28977 On ch=1 n=a#4 v=0
28995 On ch=1 n=g6 v=0
28997 On ch=1 n=c6 v=0
29003 On ch=1 n=g5 v=55
29029 On ch=1 n=g5 v=0
29033 On ch=1 n=c6 v=64
29048 On ch=1 n=c6 v=0
29071 On ch=1 n=f6 v=70
29077 On ch=1 n=c6 v=67
29083 Par ch=1 c=64 v=56
29084 On ch=1 n=d3 v=34
29087 Par ch=1 c=64 v=0
29097 On ch=1 n=c6 v=0
29108 On ch=1 n=f6 v=0
29109 Par ch=1 c=64 v=127
29109 On ch=1 n=f5 v=52
29133 On ch=1 n=f5 v=0
29139 On ch=1 n=c6 v=46
29160 On ch=1 n=c6 v=0
29168 On ch=1 n=a#5 v=52
29170 On ch=1 n=a#3 v=40
29179 On ch=1 n=d3 v=0
29187 On ch=1 n=a#5 v=0
29190 On ch=1 n=a#3 v=0
29199 On ch=1 n=f5 v=48
29225 On ch=1 n=f5 v=0
29230 On ch=1 n=a#5 v=49
29252 On ch=1 n=a#5 v=0
29270 On ch=1 n=d6 v=62
29272 On ch=1 n=c6 v=53
29277 On ch=1 n=f4 v=48
29282 On ch=1 n=c6 v=0
29292 On ch=1 n=d6 v=0
29300 On ch=1 n=f5 v=45
29324 On ch=1 n=c6 v=60
29331 On ch=1 n=f5 v=0
29345 On ch=1 n=c6 v=0
29347 On ch=1 n=f4 v=0
29354 On ch=1 n=f6 v=78
29360 On ch=1 n=a#4 v=35
29361 On ch=1 n=d5 v=49
29362 On ch=1 n=a#5 v=44
29372 On ch=1 n=d5 v=0
29380 On ch=1 n=f6 v=0
29380 On ch=1 n=a#4 v=0
29391 On ch=1 n=a#5 v=0
29391 On ch=1 n=f5 v=63
29414 On ch=1 n=f5 v=0
29418 On ch=1 n=a#5 v=69
29438 On ch=1 n=a#5 v=0
29448 On ch=1 n=e6 v=76
29450 Par ch=1 c=64 v=72
29450 On ch=1 n=a#5 v=57
29454 Par ch=1 c=64 v=0
29458 On ch=1 n=a3 v=52
29477 On ch=1 n=a#5 v=0
29477 On ch=1 n=e6 v=0
29478 Par ch=1 c=64 v=104
29482 Par ch=1 c=64 v=127
29486 On ch=1 n=e5 v=56
29508 On ch=1 n=a#5 v=57
29510 On ch=1 n=e5 v=0
29542 On ch=1 n=a3 v=0
29543 On ch=1 n=a5 v=71
29551 On ch=1 n=a#5 v=0
29551 On ch=1 n=e4 v=35
29562 On ch=1 n=a5 v=0
29570 On ch=1 n=e5 v=57
29579 On ch=1 n=e4 v=0
29595 On ch=1 n=e5 v=0
29602 On ch=1 n=a5 v=59
29620 On ch=1 n=a5 v=0
29637 On ch=1 n=c5 v=38
29637 On ch=1 n=c6 v=64
29638 On ch=1 n=a#5 v=46
29659 On ch=1 n=c6 v=0
29660 On ch=1 n=a#5 v=0
29668 On ch=1 n=e5 v=57
29694 On ch=1 n=a#5 v=60
29697 On ch=1 n=e5 v=0
29724 On ch=1 n=a#5 v=0
29728 On ch=1 n=c5 v=0
29728 On ch=1 n=e6 v=73
29732 On ch=1 n=a4 v=37
29734 On ch=1 n=a5 v=63
29748 On ch=1 n=a4 v=0
29753 On ch=1 n=a5 v=0
29765 On ch=1 n=e6 v=0
29765 On ch=1 n=e5 v=46
29790 On ch=1 n=e5 v=0
29790 On ch=1 n=a5 v=51
29801 On ch=1 n=a5 v=0
29834 On ch=1 n=d6 v=73
29840 On ch=1 n=a#3 v=44
29840 Par ch=1 c=64 v=72
29842 On ch=1 n=g5 v=50
29845 Par ch=1 c=64 v=0
29869 Par ch=1 c=64 v=88
29873 Par ch=1 c=64 v=127
29876 On ch=1 n=g5 v=0
29881 On ch=1 n=d5 v=51
29886 On ch=1 n=d6 v=0
29900 On ch=1 n=d5 v=0
29910 On ch=1 n=g5 v=35
29932 On ch=1 n=g5 v=0
29941 On ch=1 n=f5 v=46
29942 On ch=1 n=f4 v=30
29958 On ch=1 n=f5 v=0
29964 On ch=1 n=a#3 v=0
29968 On ch=1 n=d5 v=44
29987 On ch=1 n=d5 v=0
29996 On ch=1 n=f5 v=53
30010 On ch=1 n=f4 v=0
30014 On ch=1 n=f5 v=0
30034 On ch=1 n=c6 v=63
30035 On ch=1 n=g5 v=42
30037 On ch=1 n=g4 v=24
30060 On ch=1 n=g5 v=0
30068 On ch=1 n=d5 v=51
30072 On ch=1 n=c6 v=0
30092 On ch=1 n=d5 v=0
30095 On ch=1 n=g5 v=51
30109 On ch=1 n=g4 v=0
30112 On ch=1 n=g5 v=0
30130 On ch=1 n=d6 v=60
30130 On ch=1 n=f5 v=51
30132 On ch=1 n=f4 v=34
30142 On ch=1 n=f4 v=0
30148 On ch=1 n=f5 v=0
30159 On ch=1 n=d5 v=31
30160 On ch=1 n=d6 v=0
30178 On ch=1 n=d5 v=0
30193 On ch=1 n=f5 v=42
30214 On ch=1 n=f5 v=0
30257 On ch=1 n=e6 v=68
30261 On ch=1 n=g3 v=22
30262 On ch=1 n=c3 v=45
30265 On ch=1 n=d6 v=45
30275 Par ch=1 c=64 v=40
30279 Par ch=1 c=64 v=0
30290 On ch=1 n=d6 v=0
30302 On ch=1 n=e5 v=53
30303 On ch=1 n=c3 v=0
30303 Par ch=1 c=64 v=127
30321 On ch=1 n=e5 v=0
30321 On ch=1 n=e6 v=0
30332 On ch=1 n=d6 v=63
30354 On ch=1 n=d6 v=0
30356 On ch=1 n=g3 v=0
30366 On ch=1 n=g6 v=74
30372 On ch=1 n=c6 v=60
30376 On ch=1 n=e4 v=27
30392 On ch=1 n=g6 v=0
30396 On ch=1 n=c6 v=0
30397 On ch=1 n=e4 v=0
30402 On ch=1 n=g5 v=50
30423 On ch=1 n=g5 v=0
30425 On ch=1 n=c6 v=70
30448 On ch=1 n=c6 v=0
30458 On ch=1 n=e6 v=78
30462 On ch=1 n=d6 v=68
30470 On ch=1 n=g4 v=47
30478 On ch=1 n=d6 v=0
30487 On ch=1 n=e6 v=0
30487 On ch=1 n=e5 v=67
30508 On ch=1 n=e5 v=0
30514 On ch=1 n=d6 v=68
30537 On ch=1 n=d6 v=0
30546 On ch=1 n=c5 v=43
30548 On ch=1 n=a#4 v=31
30549 On ch=1 n=g6 v=70
30550 On ch=1 n=c6 v=68
30556 On ch=1 n=c5 v=0
30558 On ch=1 n=g4 v=0
30561 On ch=1 n=a#4 v=0
30571 On ch=1 n=c6 v=0
30580 On ch=1 n=g5 v=56
30582 On ch=1 n=g6 v=0
30607 On ch=1 n=g5 v=0
30607 On ch=1 n=c6 v=71
30623 On ch=1 n=c6 v=0
30649 On ch=1 n=f6 v=77
30657 On ch=1 n=c6 v=55
30664 On ch=1 n=d3 v=41
30667 Par ch=1 c=64 v=56
30669 On ch=1 n=c6 v=0
30671 Par ch=1 c=64 v=0
30690 On ch=1 n=f5 v=56
30696 Par ch=1 c=64 v=127
30708 On ch=1 n=f5 v=0
30716 On ch=1 n=c6 v=61
30724 On ch=1 n=f6 v=0
30734 On ch=1 n=c6 v=0
30743 On ch=1 n=a#3 v=42
30746 On ch=1 n=a#5 v=55
30753 On ch=1 n=d3 v=0
30765 On ch=1 n=a#5 v=0
30765 On ch=1 n=a#3 v=0
30774 On ch=1 n=f5 v=47
30799 On ch=1 n=f5 v=0
30799 On ch=1 n=a#5 v=48
30820 On ch=1 n=a#5 v=0
30837 On ch=1 n=d6 v=65
30838 On ch=1 n=c6 v=63
30842 On ch=1 n=f4 v=44
30854 On ch=1 n=c6 v=0
30862 On ch=1 n=d6 v=0
30868 On ch=1 n=f5 v=50
30896 On ch=1 n=f5 v=0
30896 On ch=1 n=c6 v=59
30916 On ch=1 n=f4 v=0
30918 On ch=1 n=c6 v=0
30929 On ch=1 n=a#4 v=37
30930 On ch=1 n=d5 v=37
30933 On ch=1 n=f6 v=72
30933 On ch=1 n=a#5 v=62
30940 On ch=1 n=d5 v=0
30945 On ch=1 n=a#4 v=0
30956 On ch=1 n=a#5 v=0
30962 On ch=1 n=f5 v=62
30964 On ch=1 n=f6 v=0
30987 On ch=1 n=a#5 v=60
30989 On ch=1 n=f5 v=0
31008 On ch=1 n=a#5 v=0
31026 On ch=1 n=e6 v=67
31028 On ch=1 n=a#5 v=57
31040 Par ch=1 c=64 v=40
31044 On ch=1 n=a3 v=43
31044 Par ch=1 c=64 v=0
31056 On ch=1 n=a#5 v=0
31063 On ch=1 n=e5 v=56
31068 Par ch=1 c=64 v=127
31084 On ch=1 n=a#5 v=54
31087 On ch=1 n=e6 v=0
31088 On ch=1 n=e5 v=0
31118 On ch=1 n=a5 v=62
31121 On ch=1 n=a3 v=0
31122 On ch=1 n=e4 v=42
31126 On ch=1 n=a#5 v=0
31138 On ch=1 n=a5 v=0
31146 On ch=1 n=e5 v=55
31149 On ch=1 n=e4 v=0
31171 On ch=1 n=e5 v=0
31174 On ch=1 n=a5 v=59
31196 On ch=1 n=a5 v=0
31212 On ch=1 n=c6 v=66
31212 On ch=1 n=a#5 v=54
31216 On ch=1 n=c5 v=36
31235 On ch=1 n=c6 v=0
31236 On ch=1 n=a#5 v=0
31243 On ch=1 n=e5 v=54
31266 On ch=1 n=a#5 v=52
31273 On ch=1 n=e5 v=0
31291 On ch=1 n=a#5 v=0
31299 On ch=1 n=e6 v=66
31300 On ch=1 n=c5 v=0
31303 On ch=1 n=a4 v=34
31313 On ch=1 n=a5 v=53
31328 On ch=1 n=a5 v=0
31333 On ch=1 n=a4 v=0
31337 On ch=1 n=e5 v=49
31340 On ch=1 n=e6 v=0
31359 On ch=1 n=e5 v=0
31361 On ch=1 n=a5 v=56
31371 On ch=1 n=a5 v=0
31401 On ch=1 n=d6 v=64
31409 Par ch=1 c=64 v=72
31411 On ch=1 n=a4 v=36
31413 On ch=1 n=g5 v=46
31413 Par ch=1 c=64 v=0
31414 On ch=1 n=d4 v=46
31433 Par ch=1 c=64 v=40
31437 On ch=1 n=d6 v=0
31437 Par ch=1 c=64 v=127
31438 On ch=1 n=g5 v=0
31445 On ch=1 n=d5 v=53
31457 On ch=1 n=d5 v=0
31471 On ch=1 n=g5 v=46
31494 On ch=1 n=g5 v=0
31500 On ch=1 n=f5 v=58
31519 On ch=1 n=f5 v=0
31525 On ch=1 n=d5 v=62
31548 On ch=1 n=d5 v=0
31550 On ch=1 n=f5 v=64
31571 On ch=1 n=f5 v=0
31580 On ch=1 n=g5 v=64
31598 On ch=1 n=g5 v=0
31606 On ch=1 n=d5 v=59
31631 On ch=1 n=d5 v=0
31632 On ch=1 n=g5 v=55
31656 On ch=1 n=g5 v=0
31666 On ch=1 n=a4 v=0
31667 On ch=1 n=a5 v=68
31675 On ch=1 n=d4 v=0
31687 On ch=1 n=a5 v=0
31696 On ch=1 n=d5 v=54
31720 On ch=1 n=d5 v=0
31720 On ch=1 n=a5 v=56
31739 On ch=1 n=a5 v=0
31768 On ch=1 n=e6 v=80
31768 Par ch=1 c=64 v=88
31772 On ch=1 n=a#5 v=57
31772 Par ch=1 c=64 v=0
31781 On ch=1 n=a3 v=49
31795 On ch=1 n=e6 v=0
31796 Par ch=1 c=64 v=56
31800 Par ch=1 c=64 v=127
31801 On ch=1 n=a#5 v=0
31805 On ch=1 n=e5 v=65
31828 On ch=1 n=e5 v=0
31828 On ch=1 n=a#5 v=62
31863 On ch=1 n=a5 v=70
31864 On ch=1 n=a#5 v=0
31864 On ch=1 n=a3 v=0
31866 On ch=1 n=e4 v=46
31882 On ch=1 n=a5 v=0
31882 On ch=1 n=e5 v=60
31891 On ch=1 n=e4 v=0
31912 On ch=1 n=a5 v=70
31917 On ch=1 n=e5 v=0
31936 On ch=1 n=a5 v=0
31948 On ch=1 n=c6 v=76
31950 On ch=1 n=c5 v=50
31951 On ch=1 n=a#5 v=61
31974 On ch=1 n=a#5 v=0
31974 On ch=1 n=c6 v=0
31979 On ch=1 n=e5 v=60
32002 On ch=1 n=a#5 v=72
32014 On ch=1 n=e5 v=0
32031 On ch=1 n=a#5 v=0
32032 On ch=1 n=e6 v=83
32040 On ch=1 n=a5 v=60
32040 On ch=1 n=a4 v=46
32045 On ch=1 n=c5 v=0
32061 On ch=1 n=a5 v=0
32071 On ch=1 n=e5 v=55
32075 On ch=1 n=a4 v=0
32079 On ch=1 n=e6 v=0
32091 On ch=1 n=a5 v=75
32112 On ch=1 n=e5 v=0
32114 On ch=1 n=a5 v=0
32151 On ch=1 n=d6 v=82
32156 On ch=1 n=g5 v=69
32160 On ch=1 n=a#3 v=40
32164 Par ch=1 c=64 v=104
32168 Par ch=1 c=64 v=24
32172 Par ch=1 c=64 v=0
32195 Par ch=1 c=64 v=127
32196 On ch=1 n=g5 v=0
32197 On ch=1 n=d5 v=68
32216 On ch=1 n=d6 v=0
32220 On ch=1 n=d5 v=0
32234 On ch=1 n=g5 v=30
32254 On ch=1 n=g5 v=0
32256 On ch=1 n=f4 v=36
32263 On ch=1 n=f5 v=62
32284 On ch=1 n=f5 v=0
32288 On ch=1 n=d5 v=66
32315 On ch=1 n=d5 v=0
32315 On ch=1 n=f5 v=64
32330 On ch=1 n=a#3 v=0
32332 On ch=1 n=f4 v=0
32338 On ch=1 n=f5 v=0
32340 On ch=1 n=g4 v=55
32346 On ch=1 n=g5 v=74
32368 On ch=1 n=g5 v=0
32371 On ch=1 n=d5 v=70
32396 On ch=1 n=g5 v=70
32412 On ch=1 n=d5 v=0
32419 On ch=1 n=g4 v=0
32423 On ch=1 n=g5 v=0
32425 On ch=1 n=a4 v=59
32430 On ch=1 n=a5 v=81
32439 On ch=1 n=a4 v=0
32454 On ch=1 n=a5 v=0
32458 On ch=1 n=d5 v=70
32485 On ch=1 n=a5 v=68
32487 On ch=1 n=d5 v=0
32502 On ch=1 n=a5 v=0
32514 Par ch=1 c=64 v=72
32518 Par ch=1 c=64 v=0
32521 On ch=1 n=g3 v=63
32528 On ch=1 n=g3 v=0
32531 Par ch=1 c=64 v=72
32535 Par ch=1 c=64 v=127
32544 On ch=1 n=d5 v=68
32570 On ch=1 n=a5 v=77
32575 On ch=1 n=d5 v=0
32589 On ch=1 n=a5 v=0
32610 On ch=1 n=f6 v=89
32614 On ch=1 n=a#5 v=60
32616 On ch=1 n=a#4 v=50
32636 On ch=1 n=f6 v=0
32644 On ch=1 n=f5 v=69
32645 On ch=1 n=a#5 v=0
32673 On ch=1 n=a#5 v=59
32676 On ch=1 n=f5 v=0
32680 On ch=1 n=a#4 v=0
32692 On ch=1 n=a#5 v=0
32696 On ch=1 n=d6 v=84
32697 On ch=1 n=a4 v=45
32701 On ch=1 n=a5 v=64
32711 On ch=1 n=a5 v=0
32725 On ch=1 n=d5 v=65
32750 On ch=1 n=d6 v=0
32750 On ch=1 n=a5 v=74
32751 On ch=1 n=d5 v=0
32763 On ch=1 n=a4 v=0
32765 On ch=1 n=a5 v=0
32781 On ch=1 n=a#4 v=51
32782 On ch=1 n=f6 v=86
32794 On ch=1 n=a#5 v=39
32811 On ch=1 n=f6 v=0
32817 On ch=1 n=a#5 v=0
32818 On ch=1 n=f5 v=65
32825 On ch=1 n=a#4 v=0
32842 On ch=1 n=f5 v=0
32866 Par ch=1 c=64 v=88
32870 Par ch=1 c=64 v=0
32871 On ch=1 n=g6 v=79
32875 On ch=1 n=c5 v=65
32877 On ch=1 n=c6 v=55
32881 Par ch=1 c=64 v=56
32886 Par ch=1 c=64 v=127
32895 On ch=1 n=c6 v=0
32902 On ch=1 n=g5 v=66
32906 On ch=1 n=g6 v=0
32922 On ch=1 n=c6 v=74
32927 On ch=1 n=g5 v=0
32947 On ch=1 n=c6 v=0
32948 On ch=1 n=c5 v=0
32955 On ch=1 n=a#6 v=80
32959 On ch=1 n=d5 v=54
32960 On ch=1 n=d6 v=52
32978 On ch=1 n=a#6 v=0
32985 On ch=1 n=a#5 v=58
32987 On ch=1 n=d6 v=0
33006 On ch=1 n=d6 v=66
33008 On ch=1 n=a#5 v=0
33033 On ch=1 n=d5 v=0
33035 On ch=1 n=g6 v=77
33043 On ch=1 n=c5 v=54
33053 On ch=1 n=c6 v=59
33054 On ch=1 n=d6 v=0
33059 On ch=1 n=g6 v=0
33071 On ch=1 n=c6 v=0
33071 On ch=1 n=g5 v=47
33094 On ch=1 n=g5 v=0
33098 On ch=1 n=c6 v=70
33115 On ch=1 n=c6 v=0
33117 On ch=1 n=c5 v=0
33125 On ch=1 n=a#6 v=73
33126 On ch=1 n=d5 v=56
33143 On ch=1 n=d5 v=0
33154 On ch=1 n=c6 v=31
33155 On ch=1 n=a#6 v=0
33159 On ch=1 n=a#5 v=61
33167 On ch=1 n=c6 v=0
33176 On ch=1 n=a#5 v=0
33206 Par ch=1 c=64 v=88
33210 Par ch=1 c=64 v=0
33214 On ch=1 n=d7 v=74
33214 On ch=1 n=d5 v=48
33217 On ch=1 n=f5 v=50
33219 On ch=1 n=a#4 v=36
33230 Par ch=1 c=64 v=88
33233 Par ch=1 c=64 v=127
33241 On ch=1 n=d6 v=59
33260 On ch=1 n=d7 v=0
33264 On ch=1 n=d6 v=0
33266 On ch=1 n=f5 v=0
33268 On ch=1 n=a#6 v=59
33289 On ch=1 n=a#6 v=0
33301 On ch=1 n=f7 v=77
33303 On ch=1 n=a#4 v=0
33306 On ch=1 n=g5 v=51
33307 On ch=1 n=d5 v=0
33328 On ch=1 n=f7 v=0
33329 On ch=1 n=g5 v=0
33332 On ch=1 n=f6 v=64
33367 On ch=1 n=f6 v=0
33369 On ch=1 n=a#6 v=42
33390 On ch=1 n=d7 v=59
33392 On ch=1 n=f5 v=49
33393 On ch=1 n=d5 v=45
33395 Par ch=1 c=64 v=88
33398 On ch=1 n=a#4 v=33
33399 On ch=1 n=a#6 v=0
33400 Par ch=1 c=64 v=0
33420 Par ch=1 c=64 v=88
33424 Par ch=1 c=64 v=127
33425 On ch=1 n=d6 v=53
33444 On ch=1 n=d6 v=0
33444 On ch=1 n=d7 v=0
33451 On ch=1 n=f5 v=0
33453 On ch=1 n=a#6 v=60
33486 On ch=1 n=a#6 v=0
33491 On ch=1 n=f7 v=74
33497 On ch=1 n=g5 v=51
33513 On ch=1 n=g5 v=0
33517 On ch=1 n=d5 v=0
33523 On ch=1 n=f6 v=54
33525 On ch=1 n=a#4 v=0
33548 On ch=1 n=a#6 v=56
33558 On ch=1 n=f6 v=0
33566 On ch=1 n=f7 v=0
33573 On ch=1 n=a#6 v=0
33639 On ch=1 n=c8 v=66
33643 On ch=1 n=c7 v=53
33645 On ch=1 n=a7 v=52
33645 On ch=1 n=f3 v=32
33647 On ch=1 n=f7 v=70
33647 On ch=1 n=f2 v=43
33649 On ch=1 n=c3 v=48
33670 Par ch=1 c=64 v=0
33706 Par ch=1 c=64 v=127
33747 On ch=1 n=c8 v=0
33751 On ch=1 n=a7 v=0
33755 On ch=1 n=f7 v=0
33759 On ch=1 n=c7 v=0
33891 On ch=1 n=a5 v=54
33894 On ch=1 n=a4 v=40
33944 Par ch=1 c=64 v=104
33948 Par ch=1 c=64 v=0
33968 Par ch=1 c=64 v=56
33972 Par ch=1 c=64 v=127
33997 On ch=1 n=f2 v=0
34007 On ch=1 n=c3 v=0
34010 On ch=1 n=f3 v=0
34032 On ch=1 n=a5 v=0
34055 On ch=1 n=a4 v=0
34139 On ch=1 n=a4 v=24
34146 On ch=1 n=a3 v=26
34194 Par ch=1 c=64 v=104
34198 Par ch=1 c=64 v=40
34202 Par ch=1 c=64 v=0
34247 Par ch=1 c=64 v=88
34251 Par ch=1 c=64 v=127
34363 On ch=1 n=a4 v=0
34400 On ch=1 n=a3 v=0
34491 On ch=1 n=a4 v=35
34597 On ch=1 n=d3 v=34
34606 On ch=1 n=a3 v=27
34609 Par ch=1 c=64 v=72
34613 Par ch=1 c=64 v=0
34633 Par ch=1 c=64 v=56
34635 On ch=1 n=a4 v=0
34637 Par ch=1 c=64 v=127
34640 On ch=1 n=f4 v=43
34652 On ch=1 n=f4 v=0
34676 On ch=1 n=a4 v=30
34694 On ch=1 n=a4 v=0
34704 On ch=1 n=f4 v=44
34722 On ch=1 n=f4 v=0
34733 On ch=1 n=a4 v=25
34753 On ch=1 n=a3 v=0
34756 On ch=1 n=a4 v=0
34764 On ch=1 n=b3 v=55
34764 On ch=1 n=f4 v=49
34774 On ch=1 n=b3 v=0
34785 On ch=1 n=f4 v=0
34797 On ch=1 n=a4 v=40
34807 On ch=1 n=c4 v=62
34811 Par ch=1 c=64 v=88
34814 Par ch=1 c=64 v=40
34818 Par ch=1 c=64 v=0
34822 On ch=1 n=a4 v=0
34823 Par ch=1 c=64 v=24
34827 Par ch=1 c=64 v=56
34831 Par ch=1 c=64 v=88
34832 On ch=1 n=f4 v=47
34835 Par ch=1 c=64 v=127
34847 On ch=1 n=c4 v=0
34855 On ch=1 n=f4 v=0
34862 On ch=1 n=a4 v=44
34884 Par ch=1 c=64 v=104
34886 On ch=1 n=a4 v=0
34888 Par ch=1 c=64 v=56
34892 Par ch=1 c=64 v=24
34894 On ch=1 n=f4 v=56
34896 On ch=1 n=d4 v=68
34896 Par ch=1 c=64 v=40
34900 Par ch=1 c=64 v=72
34904 Par ch=1 c=64 v=104
34907 Par ch=1 c=64 v=127
34918 On ch=1 n=f4 v=0
34921 On ch=1 n=d4 v=0
34921 On ch=1 n=a4 v=41
34948 On ch=1 n=a4 v=0
34950 On ch=1 n=e4 v=66
34951 On ch=1 n=d3 v=0
34955 On ch=1 n=f4 v=55
34969 On ch=1 n=e4 v=0
34976 On ch=1 n=f4 v=0
34988 On ch=1 n=a4 v=45
34996 Par ch=1 c=64 v=104
35000 On ch=1 n=e4 v=69
35001 Par ch=1 c=64 v=24
35005 Par ch=1 c=64 v=0
35011 On ch=1 n=a4 v=0
35018 On ch=1 n=f4 v=56
35025 Par ch=1 c=64 v=40
35029 Par ch=1 c=64 v=127
35041 On ch=1 n=f4 v=0
35049 On ch=1 n=a4 v=44
35050 On ch=1 n=e4 v=0
35079 On ch=1 n=a4 v=0
35087 On ch=1 n=f4 v=56
35093 On ch=1 n=d4 v=66
35103 Par ch=1 c=64 v=24
35107 Par ch=1 c=64 v=0
35110 On ch=1 n=f4 v=0
35118 On ch=1 n=a4 v=38
35127 Par ch=1 c=64 v=40
35130 Par ch=1 c=64 v=104
35135 Par ch=1 c=64 v=127
35136 On ch=1 n=a4 v=0
35146 On ch=1 n=f4 v=42
35166 On ch=1 n=f4 v=0
35175 On ch=1 n=a4 v=46
35192 On ch=1 n=a4 v=0
35204 On ch=1 n=f4 v=49
35225 On ch=1 n=f4 v=0
35227 On ch=1 n=d4 v=0
35233 On ch=1 n=a4 v=48
35256 On ch=1 n=a4 v=0
35265 On ch=1 n=f4 v=53
35269 On ch=1 n=c4 v=68
35276 Par ch=1 c=64 v=56
35280 Par ch=1 c=64 v=0
35289 On ch=1 n=f4 v=0
35296 On ch=1 n=a4 v=43
35296 Par ch=1 c=64 v=24
35300 Par ch=1 c=64 v=72
35304 Par ch=1 c=64 v=127
35318 On ch=1 n=a4 v=0
35321 On ch=1 n=c4 v=0
35322 On ch=1 n=f4 v=50
35350 On ch=1 n=f4 v=0
35358 On ch=1 n=a4 v=43
35360 On ch=1 n=b3 v=70
35370 Par ch=1 c=64 v=56
35374 Par ch=1 c=64 v=0
35379 On ch=1 n=a4 v=0
35386 On ch=1 n=f4 v=48
35398 Par ch=1 c=64 v=56
35402 Par ch=1 c=64 v=104
35406 Par ch=1 c=64 v=127
35410 On ch=1 n=f4 v=0
35416 On ch=1 n=a4 v=41
35443 On ch=1 n=a4 v=0
35444 On ch=1 n=b3 v=0
35451 On ch=1 n=a3 v=68
35452 On ch=1 n=f4 v=47
35475 On ch=1 n=f4 v=0
35487 On ch=1 n=a4 v=39
35491 On ch=1 n=a3 v=0
35494 On ch=1 n=b3 v=77
35506 On ch=1 n=a4 v=0
35518 On ch=1 n=f4 v=38
35543 On ch=1 n=f4 v=0
35543 On ch=1 n=b3 v=0
35545 On ch=1 n=g3 v=68
35551 On ch=1 n=a4 v=39
35560 Par ch=1 c=64 v=88
35564 Par ch=1 c=64 v=0
35574 On ch=1 n=a4 v=0
35583 On ch=1 n=f4 v=45
35591 Par ch=1 c=64 v=72
35596 Par ch=1 c=64 v=127
35605 On ch=1 n=f4 v=0
35617 On ch=1 n=a4 v=36
35632 On ch=1 n=g3 v=0
35633 On ch=1 n=a4 v=0
35642 On ch=1 n=b3 v=68
35647 On ch=1 n=f4 v=38
35663 On ch=1 n=f4 v=0
35668 On ch=1 n=a4 v=36
35680 On ch=1 n=a4 v=0
35692 On ch=1 n=f4 v=53
35707 On ch=1 n=f4 v=0
35732 On ch=1 n=b3 v=0
35734 On ch=1 n=c5 v=69
35739 On ch=1 n=a3 v=39
35744 On ch=1 n=a4 v=27
35747 On ch=1 n=d3 v=30
35749 Par ch=1 c=64 v=104
35753 Par ch=1 c=64 v=56
35757 Par ch=1 c=64 v=0
35758 On ch=1 n=a4 v=0
35769 On ch=1 n=f4 v=49
35786 Par ch=1 c=64 v=88
35790 Par ch=1 c=64 v=127
35795 On ch=1 n=f4 v=0
35806 On ch=1 n=a4 v=32
35825 On ch=1 n=a4 v=0
35837 On ch=1 n=f4 v=42
35855 On ch=1 n=f4 v=0
35873 On ch=1 n=a4 v=25
35887 On ch=1 n=a4 v=0
35897 On ch=1 n=f4 v=43
35917 On ch=1 n=c5 v=0
35922 On ch=1 n=f4 v=0
35932 On ch=1 n=a4 v=24
35934 On ch=1 n=d5 v=55
35944 Par ch=1 c=64 v=104
35948 Par ch=1 c=64 v=40
35952 Par ch=1 c=64 v=0
35954 On ch=1 n=a4 v=0
35961 On ch=1 n=f4 v=52
35972 Par ch=1 c=64 v=24
35976 Par ch=1 c=64 v=104
35980 Par ch=1 c=64 v=127
35986 On ch=1 n=f4 v=0
35991 On ch=1 n=a4 v=37
36017 On ch=1 n=a4 v=0
36025 On ch=1 n=f4 v=38
36046 On ch=1 n=d3 v=0
36048 On ch=1 n=f4 v=0
36051 On ch=1 n=d5 v=0
36054 On ch=1 n=a3 v=0
36062 On ch=1 n=a4 v=32
36080 On ch=1 n=a4 v=0
36090 On ch=1 n=f4 v=40
36111 On ch=1 n=f4 v=0
36125 On ch=1 n=a3 v=54
36126 On ch=1 n=a4 v=42
36131 Par ch=1 c=64 v=104
36133 On ch=1 n=d3 v=41
36135 Par ch=1 c=64 v=40
36139 Par ch=1 c=64 v=0
36149 On ch=1 n=a4 v=0
36155 On ch=1 n=f4 v=42
36159 Par ch=1 c=64 v=72
36163 Par ch=1 c=64 v=127
36179 On ch=1 n=f4 v=0
36185 On ch=1 n=a4 v=38
36205 On ch=1 n=a4 v=0
36212 On ch=1 n=f4 v=45
36235 On ch=1 n=f4 v=0
36243 On ch=1 n=a4 v=35
36254 On ch=1 n=a3 v=0
36264 On ch=1 n=a4 v=0
36267 On ch=1 n=b3 v=66
36270 On ch=1 n=f4 v=44
36285 On ch=1 n=b3 v=0
36294 On ch=1 n=f4 v=0
36302 On ch=1 n=a4 v=34
36312 On ch=1 n=c4 v=73
36314 Par ch=1 c=64 v=72
36318 Par ch=1 c=64 v=0
36320 On ch=1 n=a4 v=0
36325 On ch=1 n=f4 v=41
36335 Par ch=1 c=64 v=24
36339 Par ch=1 c=64 v=72
36343 Par ch=1 c=64 v=127
36347 On ch=1 n=f4 v=0
36353 On ch=1 n=a4 v=48
36356 On ch=1 n=c4 v=0
36378 On ch=1 n=a4 v=0
36381 On ch=1 n=f4 v=44
36407 On ch=1 n=f4 v=0
36408 On ch=1 n=d4 v=64
36411 On ch=1 n=a4 v=59
36428 On ch=1 n=d4 v=0
36436 On ch=1 n=a4 v=0
36442 On ch=1 n=f4 v=64
36452 On ch=1 n=e4 v=68
36467 On ch=1 n=f4 v=0
36472 On ch=1 n=e4 v=0
36472 On ch=1 n=a4 v=56
36497 On ch=1 n=a4 v=0
36498 On ch=1 n=e4 v=78
36502 On ch=1 n=f4 v=68
36505 Par ch=1 c=64 v=72
36509 Par ch=1 c=64 v=0
36529 On ch=1 n=f4 v=0
36529 Par ch=1 c=64 v=24
36533 Par ch=1 c=64 v=104
36537 On ch=1 n=a4 v=56
36537 Par ch=1 c=64 v=127
36548 On ch=1 n=e4 v=0
36560 On ch=1 n=a4 v=0
36564 On ch=1 n=f4 v=55
36587 On ch=1 n=d4 v=70
36591 On ch=1 n=f4 v=0
36593 Par ch=1 c=64 v=88
36596 On ch=1 n=a4 v=53
36598 Par ch=1 c=64 v=0
36620 On ch=1 n=a4 v=0
36622 Par ch=1 c=64 v=24
36626 Par ch=1 c=64 v=88
36628 On ch=1 n=f4 v=56
36630 Par ch=1 c=64 v=127
36653 On ch=1 n=f4 v=0
36659 On ch=1 n=a4 v=49
36680 On ch=1 n=a4 v=0
36689 On ch=1 n=f4 v=49
36712 On ch=1 n=f4 v=0
36718 On ch=1 n=a4 v=45
36723 On ch=1 n=d4 v=0
36742 On ch=1 n=a4 v=0
36748 On ch=1 n=f4 v=40
36772 On ch=1 n=c4 v=74
36773 On ch=1 n=f4 v=0
36775 Par ch=1 c=64 v=56
36778 On ch=1 n=a4 v=45
36779 Par ch=1 c=64 v=0
36798 On ch=1 n=a4 v=0
36800 Par ch=1 c=64 v=24
36804 Par ch=1 c=64 v=72
36806 On ch=1 n=f4 v=42
36807 Par ch=1 c=64 v=127
36827 On ch=1 n=f4 v=0
36830 On ch=1 n=a4 v=51
36838 On ch=1 n=c4 v=0
36856 On ch=1 n=a4 v=0
36864 On ch=1 n=f4 v=47
36867 On ch=1 n=b3 v=67
36875 Par ch=1 c=64 v=56
36880 Par ch=1 c=64 v=0
36889 On ch=1 n=f4 v=0
36892 On ch=1 n=a4 v=42
36908 Par ch=1 c=64 v=24
36912 Par ch=1 c=64 v=88
36916 Par ch=1 c=64 v=127
36917 On ch=1 n=a4 v=0
36924 On ch=1 n=f4 v=43
36949 On ch=1 n=f4 v=0
36951 On ch=1 n=b3 v=0
36953 On ch=1 n=a4 v=48
36954 On ch=1 n=a3 v=72
36980 On ch=1 n=a4 v=0
36984 On ch=1 n=a3 v=0
36988 On ch=1 n=f4 v=53
36989 On ch=1 n=b3 v=79
37022 On ch=1 n=f4 v=0
37034 On ch=1 n=a4 v=44
37040 On ch=1 n=g3 v=71
37042 On ch=1 n=b3 v=0
37050 Par ch=1 c=64 v=104
37053 Par ch=1 c=64 v=40
37057 Par ch=1 c=64 v=0
37058 On ch=1 n=a4 v=0
37065 On ch=1 n=f4 v=47
37090 On ch=1 n=f4 v=0
37090 Par ch=1 c=64 v=40
37094 Par ch=1 c=64 v=88
37097 Par ch=1 c=64 v=127
37099 On ch=1 n=a4 v=44
37123 On ch=1 n=a4 v=0
37131 On ch=1 n=g3 v=0
37131 On ch=1 n=b3 v=70
37132 On ch=1 n=f4 v=46
37138 Par ch=1 c=64 v=104
37142 Par ch=1 c=64 v=56
37146 Par ch=1 c=64 v=24
37156 On ch=1 n=f4 v=0
37156 Par ch=1 c=64 v=72
37160 Par ch=1 c=64 v=104
37164 On ch=1 n=a4 v=44
37164 Par ch=1 c=64 v=127
37180 On ch=1 n=a4 v=0
37183 On ch=1 n=d3 v=0
37191 On ch=1 n=f4 v=48
37214 On ch=1 n=f4 v=0
37218 On ch=1 n=b3 v=0
37234 On ch=1 n=c5 v=64
37244 On ch=1 n=a4 v=24
37245 On ch=1 n=a3 v=22
37247 On ch=1 n=d3 v=31
37253 Par ch=1 c=64 v=56
37257 Par ch=1 c=64 v=0
37260 On ch=1 n=a4 v=0
37269 On ch=1 n=f4 v=51
37285 Par ch=1 c=64 v=72
37289 Par ch=1 c=64 v=127
37293 On ch=1 n=f4 v=0
37307 On ch=1 n=a4 v=29
37323 On ch=1 n=a4 v=0
37334 On ch=1 n=f4 v=44
37355 On ch=1 n=f4 v=0
37369 On ch=1 n=a4 v=27
37379 On ch=1 n=a4 v=0
37389 On ch=1 n=f4 v=44
37399 On ch=1 n=c5 v=0
37417 On ch=1 n=f4 v=0
37433 On ch=1 n=a4 v=25
37437 On ch=1 n=d5 v=49
37458 On ch=1 n=a4 v=0
37466 On ch=1 n=f4 v=50
37468 Par ch=1 c=64 v=88
37473 Par ch=1 c=64 v=24
37477 Par ch=1 c=64 v=0
37493 On ch=1 n=f4 v=0
37497 Par ch=1 c=64 v=24
37501 Par ch=1 c=64 v=88
37502 On ch=1 n=a4 v=38
37505 Par ch=1 c=64 v=127
37523 On ch=1 n=a4 v=0
37529 On ch=1 n=f4 v=48
37534 On ch=1 n=d3 v=0
37537 On ch=1 n=a3 v=0
37555 On ch=1 n=f4 v=0
37567 On ch=1 n=a4 v=29
37595 On ch=1 n=a4 v=0
37605 On ch=1 n=d5 v=0
37607 On ch=1 n=f4 v=30
37618 On ch=1 n=f4 v=0
37689 On ch=1 n=f5 v=56
37690 On ch=1 n=a4 v=42
37694 Par ch=1 c=64 v=104
37695 On ch=1 n=d5 v=34
37698 Par ch=1 c=64 v=40
37700 On ch=1 n=c5 v=32
37702 Par ch=1 c=64 v=0
37705 On ch=1 n=g2 v=32
37723 Par ch=1 c=64 v=40
37727 Par ch=1 c=64 v=127
37737 On ch=1 n=a4 v=0
37741 On ch=1 n=g2 v=0
37743 On ch=1 n=g3 v=46
37747 On ch=1 n=c5 v=0
37751 On ch=1 n=g3 v=0
37753 On ch=1 n=d5 v=0
37764 On ch=1 n=f5 v=0
37809 On ch=1 n=f4 v=48
37830 On ch=1 n=f4 v=0
37834 On ch=1 n=g5 v=68
37838 On ch=1 n=e5 v=50
37840 On ch=1 n=a4 v=46
37848 On ch=1 n=e5 v=0
37862 On ch=1 n=a4 v=0
37879 On ch=1 n=g5 v=0
37880 On ch=1 n=c5 v=39
37890 On ch=1 n=a5 v=74
37891 On ch=1 n=d5 v=56
37894 On ch=1 n=f5 v=61
37905 On ch=1 n=c5 v=0
37913 On ch=1 n=a4 v=42
37940 On ch=1 n=f4 v=54
37943 On ch=1 n=a4 v=0
37957 On ch=1 n=d4 v=34
37961 On ch=1 n=f5 v=0
37964 On ch=1 n=f4 v=0
37967 On ch=1 n=a5 v=0
37968 On ch=1 n=d4 v=0
37978 On ch=1 n=b5 v=77
37980 On ch=1 n=g5 v=59
38000 On ch=1 n=g3 v=51
38004 On ch=1 n=b5 v=0
38009 On ch=1 n=g3 v=0
38011 On ch=1 n=g5 v=0
38023 On ch=1 n=d3 v=56
38024 On ch=1 n=c6 v=85
38028 On ch=1 n=d5 v=0
38028 On ch=1 n=a5 v=57
38048 On ch=1 n=d3 v=0
38052 On ch=1 n=c6 v=0
38058 On ch=1 n=a5 v=0
38077 On ch=1 n=c6 v=84
38078 On ch=1 n=a5 v=60
38078 Par ch=1 c=64 v=56
38081 On ch=1 n=d5 v=51
38082 On ch=1 n=f5 v=47
38082 On ch=1 n=g2 v=43
38083 Par ch=1 c=64 v=0
38107 Par ch=1 c=64 v=72
38111 Par ch=1 c=64 v=127
38114 On ch=1 n=d3 v=49
38125 On ch=1 n=c6 v=0
38132 On ch=1 n=g2 v=0
38135 On ch=1 n=d3 v=0
38137 On ch=1 n=g3 v=55
38144 On ch=1 n=g3 v=0
38160 On ch=1 n=a5 v=0
38166 On ch=1 n=f5 v=0
38170 On ch=1 n=b5 v=74
38171 On ch=1 n=g5 v=56
38178 On ch=1 n=d4 v=44
38199 On ch=1 n=d4 v=0
38205 On ch=1 n=f4 v=45
38216 On ch=1 n=f4 v=0
38226 On ch=1 n=a4 v=42
38247 On ch=1 n=a4 v=0
38257 On ch=1 n=c5 v=55
38278 On ch=1 n=c5 v=0
38292 On ch=1 n=a4 v=37
38310 On ch=1 n=f4 v=62
38311 On ch=1 n=a4 v=0
38321 On ch=1 n=b5 v=0
38329 On ch=1 n=f4 v=0
38336 On ch=1 n=g5 v=0
38345 On ch=1 n=a5 v=74
38347 On ch=1 n=d5 v=0
38350 On ch=1 n=f5 v=46
38365 On ch=1 n=g3 v=64
38374 On ch=1 n=g3 v=0
38389 On ch=1 n=d3 v=63
38418 On ch=1 n=d3 v=0
38427 Par ch=1 c=64 v=104
38428 On ch=1 n=g2 v=67
38431 Par ch=1 c=64 v=24
38435 Par ch=1 c=64 v=0
38455 Par ch=1 c=64 v=56
38459 Par ch=1 c=64 v=127
38461 On ch=1 n=d3 v=63
38478 On ch=1 n=g2 v=0
38480 On ch=1 n=d3 v=0
38486 On ch=1 n=g3 v=32
38491 On ch=1 n=f5 v=0
38496 On ch=1 n=g3 v=0
38505 On ch=1 n=a5 v=0
38513 On ch=1 n=g5 v=74
38519 On ch=1 n=e5 v=47
38528 On ch=1 n=e5 v=0
38528 On ch=1 n=d4 v=59
38538 On ch=1 n=d4 v=0
38538 On ch=1 n=f4 v=40
38543 On ch=1 n=g5 v=0
38553 On ch=1 n=a5 v=78
38555 On ch=1 n=f4 v=0
38555 On ch=1 n=f5 v=64
38558 On ch=1 n=a4 v=58
38572 On ch=1 n=a4 v=0
38572 On ch=1 n=f5 v=0
38584 On ch=1 n=a5 v=0
38586 On ch=1 n=c5 v=33
38595 On ch=1 n=f5 v=83
38595 On ch=1 n=d5 v=68
38603 On ch=1 n=c5 v=0
38607 On ch=1 n=a4 v=46
38621 On ch=1 n=d5 v=0
38632 On ch=1 n=a4 v=0
38634 On ch=1 n=f4 v=26
38642 On ch=1 n=d4 v=55
38645 On ch=1 n=f4 v=0
38650 On ch=1 n=d4 v=0
38653 On ch=1 n=f5 v=0
38669 On ch=1 n=d4 v=53
38683 On ch=1 n=a5 v=87
38685 On ch=1 n=f5 v=63
38686 On ch=1 n=d5 v=62
38696 On ch=1 n=d4 v=0
38702 On ch=1 n=f5 v=0
38706 On ch=1 n=a5 v=0
38708 On ch=1 n=d5 v=0
38708 On ch=1 n=g3 v=52
38720 On ch=1 n=g3 v=0
38730 On ch=1 n=d4 v=56
38752 On ch=1 n=d4 v=0
38779 On ch=1 n=g5 v=80
38782 On ch=1 n=a#4 v=43
38782 Par ch=1 c=64 v=56
38785 On ch=1 n=e5 v=60
38785 On ch=1 n=d5 v=50
38787 Par ch=1 c=64 v=0
38790 On ch=1 n=c3 v=56
38808 On ch=1 n=d5 v=0
38815 On ch=1 n=c3 v=0
38815 Par ch=1 c=64 v=104
38817 On ch=1 n=g3 v=52
38819 Par ch=1 c=64 v=127
38826 On ch=1 n=g3 v=0
38833 On ch=1 n=d4 v=67
38852 On ch=1 n=e5 v=0
38853 On ch=1 n=d4 v=0
38856 On ch=1 n=a#4 v=0
38873 On ch=1 n=c5 v=67
38875 On ch=1 n=e4 v=51
38887 On ch=1 n=c5 v=0
38898 On ch=1 n=g5 v=0
38901 On ch=1 n=e4 v=0
38909 On ch=1 n=g4 v=42
38926 On ch=1 n=g4 v=0
38937 On ch=1 n=c5 v=55
38970 On ch=1 n=c5 v=0
38986 On ch=1 n=g6 v=66
38989 On ch=1 n=a#5 v=32
38993 On ch=1 n=e6 v=52
38993 On ch=1 n=e5 v=42
38993 On ch=1 n=d6 v=37
39005 On ch=1 n=d6 v=0
39012 Par ch=1 c=64 v=88
39016 Par ch=1 c=64 v=0
39037 Par ch=1 c=64 v=40
39041 Par ch=1 c=64 v=127
39047 On ch=1 n=e6 v=0
39050 On ch=1 n=e5 v=0
39089 On ch=1 n=c6 v=47
39092 On ch=1 n=g6 v=0
39101 On ch=1 n=c6 v=0
39105 On ch=1 n=a#5 v=0
39201 On ch=1 n=f5 v=62
39205 On ch=1 n=d5 v=49
39206 Par ch=1 c=64 v=104
39208 On ch=1 n=c5 v=43
39210 Par ch=1 c=64 v=24
39211 On ch=1 n=a4 v=25
39213 On ch=1 n=g2 v=34
39214 Par ch=1 c=64 v=0
39234 Par ch=1 c=64 v=104
39238 Par ch=1 c=64 v=127
39249 On ch=1 n=d3 v=33
39253 On ch=1 n=a4 v=0
39255 On ch=1 n=g2 v=0
39260 On ch=1 n=d3 v=0
39266 On ch=1 n=g3 v=45
39268 On ch=1 n=c5 v=0
39272 On ch=1 n=d5 v=0
39273 On ch=1 n=g3 v=0
39283 On ch=1 n=f5 v=0
39310 On ch=1 n=d4 v=34
39322 On ch=1 n=d4 v=0
39331 On ch=1 n=f4 v=54
39337 On ch=1 n=g5 v=74
39343 On ch=1 n=e5 v=52
39351 On ch=1 n=f4 v=0
39353 On ch=1 n=e5 v=0
39356 On ch=1 n=a4 v=53
39371 On ch=1 n=g5 v=0
39373 On ch=1 n=a4 v=0
39385 On ch=1 n=c5 v=47
39387 On ch=1 n=a5 v=81
39391 On ch=1 n=f5 v=68
39391 On ch=1 n=d5 v=57
39401 On ch=1 n=c5 v=0
39413 On ch=1 n=a4 v=42
39431 On ch=1 n=a4 v=0
39432 On ch=1 n=f4 v=52
39443 On ch=1 n=d4 v=49
39444 On ch=1 n=f5 v=0
39449 On ch=1 n=f4 v=0
39450 On ch=1 n=a5 v=0
39451 On ch=1 n=d4 v=0
39455 On ch=1 n=d5 v=0
39471 On ch=1 n=b5 v=74
39472 On ch=1 n=g5 v=61
39483 On ch=1 n=g3 v=49
39493 On ch=1 n=g3 v=0
39495 On ch=1 n=b5 v=0
39501 On ch=1 n=g5 v=0
39505 On ch=1 n=d3 v=63
39515 On ch=1 n=c6 v=90
39517 On ch=1 n=a5 v=73
39536 On ch=1 n=d3 v=0
39540 On ch=1 n=a5 v=0
39540 On ch=1 n=c6 v=0
39557 Par ch=1 c=64 v=56
39561 Par ch=1 c=64 v=0
39561 On ch=1 n=c6 v=88
39566 On ch=1 n=a5 v=62
39566 On ch=1 n=d5 v=60
39566 On ch=1 n=f5 v=47
39569 On ch=1 n=g2 v=51
39578 On ch=1 n=f5 v=0
39585 Par ch=1 c=64 v=127
39599 On ch=1 n=d3 v=59
39603 On ch=1 n=f5 v=4
39611 On ch=1 n=c6 v=0
39613 On ch=1 n=g2 v=0
39617 On ch=1 n=d3 v=0
39617 On ch=1 n=g3 v=63
39625 On ch=1 n=g3 v=0
39640 On ch=1 n=f5 v=0
39641 On ch=1 n=a5 v=0
39652 On ch=1 n=b5 v=77
39653 On ch=1 n=g5 v=62
39662 On ch=1 n=d4 v=42
39680 On ch=1 n=f4 v=59
39681 On ch=1 n=d4 v=0
39697 On ch=1 n=f4 v=0
39707 On ch=1 n=a4 v=63
39725 On ch=1 n=a4 v=0
39735 On ch=1 n=c5 v=62
39758 On ch=1 n=c5 v=0
39766 On ch=1 n=a4 v=64
39786 On ch=1 n=a4 v=0
39787 On ch=1 n=f4 v=64
39793 On ch=1 n=b5 v=0
39804 On ch=1 n=g5 v=0
39809 On ch=1 n=d5 v=0
39810 On ch=1 n=f4 v=0
39811 On ch=1 n=d4 v=31
39818 On ch=1 n=d4 v=0
39818 On ch=1 n=a5 v=78
39824 On ch=1 n=f5 v=49
39839 On ch=1 n=a3 v=68
39847 On ch=1 n=a3 v=0
39866 On ch=1 n=d3 v=63
39891 Par ch=1 c=64 v=40
39895 On ch=1 n=d3 v=0
39896 Par ch=1 c=64 v=0
39901 On ch=1 n=g2 v=69
39912 Par ch=1 c=64 v=56
39916 Par ch=1 c=64 v=127
39933 On ch=1 n=d3 v=66
39943 On ch=1 n=g2 v=0
39948 On ch=1 n=d3 v=0
39951 On ch=1 n=g3 v=42
39960 On ch=1 n=g3 v=0
39968 On ch=1 n=f5 v=0
39975 On ch=1 n=a5 v=0
39984 On ch=1 n=g5 v=82
39987 On ch=1 n=e5 v=64
39993 On ch=1 n=d4 v=55
40001 On ch=1 n=f4 v=33
40003 On ch=1 n=e5 v=0
40010 On ch=1 n=d4 v=0
40014 On ch=1 n=g5 v=0
40022 On ch=1 n=f4 v=0
40024 On ch=1 n=a4 v=59
40025 On ch=1 n=a5 v=80
40028 On ch=1 n=f5 v=63
40038 On ch=1 n=a4 v=0
40041 On ch=1 n=f5 v=0
40044 On ch=1 n=c5 v=60
40049 On ch=1 n=a5 v=0
40063 On ch=1 n=d5 v=70
40063 On ch=1 n=f5 v=82
40065 On ch=1 n=a4 v=38
40067 On ch=1 n=c5 v=0
40086 On ch=1 n=a4 v=0
40089 On ch=1 n=d4 v=64
40101 On ch=1 n=d5 v=0
40104 On ch=1 n=d4 v=0
40119 On ch=1 n=d4 v=74
40127 On ch=1 n=f5 v=0
40138 On ch=1 n=d4 v=0
40152 On ch=1 n=g3 v=52
40155 On ch=1 n=a5 v=85
40156 On ch=1 n=f5 v=66
40157 On ch=1 n=d5 v=66
40167 On ch=1 n=g3 v=0
40175 On ch=1 n=f5 v=0
40177 On ch=1 n=a5 v=0
40179 On ch=1 n=d5 v=0
40179 On ch=1 n=d4 v=60
40206 On ch=1 n=g3 v=39
40209 On ch=1 n=d4 v=0
40220 On ch=1 n=g3 v=0
40243 On ch=1 n=g5 v=85
40245 Par ch=1 c=64 v=56
40246 On ch=1 n=a#4 v=56
40248 On ch=1 n=d5 v=60
40249 Par ch=1 c=64 v=0
40249 On ch=1 n=e5 v=56
40251 On ch=1 n=c3 v=62
40271 On ch=1 n=d5 v=0
40275 On ch=1 n=c3 v=0
40275 On ch=1 n=g3 v=45
40277 Par ch=1 c=64 v=127
40283 On ch=1 n=g3 v=0
40293 On ch=1 n=d4 v=54
40298 On ch=1 n=e5 v=0
40306 On ch=1 n=d4 v=0
40326 On ch=1 n=a#4 v=0
40327 On ch=1 n=e4 v=43
40331 On ch=1 n=c5 v=74
40340 On ch=1 n=c5 v=0
40351 On ch=1 n=e4 v=0
40352 On ch=1 n=g5 v=0
40354 On ch=1 n=g4 v=57
40362 On ch=1 n=g4 v=0
40377 On ch=1 n=c5 v=59
40413 On ch=1 n=c5 v=0
40432 On ch=1 n=g6 v=79
40438 On ch=1 n=e6 v=66
40438 On ch=1 n=a#5 v=44
40440 On ch=1 n=d6 v=51
40441 On ch=1 n=e5 v=56
40449 On ch=1 n=d6 v=0
40455 Par ch=1 c=64 v=104
40459 Par ch=1 c=64 v=0
40479 Par ch=1 c=64 v=72
40483 Par ch=1 c=64 v=127
40499 On ch=1 n=e6 v=0
40509 On ch=1 n=e5 v=0
40513 On ch=1 n=a#5 v=0
40530 On ch=1 n=c6 v=60
40540 On ch=1 n=c6 v=0
40543 On ch=1 n=g6 v=0
40613 Par ch=1 c=64 v=88
40615 On ch=1 n=a6 v=80
40616 On ch=1 n=f5 v=48
40618 Par ch=1 c=64 v=0
40630 Par ch=1 c=64 v=40
40634 Par ch=1 c=64 v=104
40638 Par ch=1 c=64 v=127
40649 On ch=1 n=a6 v=0
40654 On ch=1 n=a5 v=65
40678 On ch=1 n=a5 v=0
40678 On ch=1 n=f6 v=63
40704 On ch=1 n=a6 v=68
40709 On ch=1 n=f6 v=0
40724 On ch=1 n=a6 v=0
40726 On ch=1 n=f6 v=53
40731 On ch=1 n=f5 v=0
40742 On ch=1 n=g5 v=51
40746 On ch=1 n=f6 v=0
40749 On ch=1 n=a#6 v=65
40756 On ch=1 n=a#6 v=0
40765 On ch=1 n=g5 v=0
40781 On ch=1 n=c7 v=90
40783 Par ch=1 c=64 v=72
40787 On ch=1 n=a5 v=59
40787 Par ch=1 c=64 v=0
40791 On ch=1 n=f5 v=31
40794 On ch=1 n=e5 v=32
40798 Par ch=1 c=64 v=40
40803 Par ch=1 c=64 v=104
40807 Par ch=1 c=64 v=127
40808 On ch=1 n=c6 v=59
40833 On ch=1 n=c6 v=0
40833 On ch=1 n=c7 v=0
40835 On ch=1 n=a6 v=66
40846 On ch=1 n=a5 v=0
40858 On ch=1 n=f5 v=0
40860 On ch=1 n=a6 v=0
40863 On ch=1 n=e5 v=0
40866 On ch=1 n=d7 v=87
40868 On ch=1 n=a#5 v=59
40887 On ch=1 n=d7 v=0
40897 On ch=1 n=a#5 v=0
40903 On ch=1 n=c6 v=62
40906 On ch=1 n=e7 v=92
40924 On ch=1 n=c6 v=0
40931 On ch=1 n=e7 v=0
40949 On ch=1 n=e7 v=85
40952 Par ch=1 c=64 v=56
40954 On ch=1 n=c6 v=67
40956 Par ch=1 c=64 v=0
40960 On ch=1 n=f5 v=52
40962 On ch=1 n=d5 v=47
40972 Par ch=1 c=64 v=88
40977 Par ch=1 c=64 v=127
40983 On ch=1 n=c7 v=65
40993 On ch=1 n=e7 v=0
41002 On ch=1 n=e6 v=51
41004 On ch=1 n=c7 v=0
41028 On ch=1 n=e6 v=0
41034 On ch=1 n=d7 v=89
41041 On ch=1 n=a#5 v=52
41049 On ch=1 n=c6 v=0
41055 On ch=1 n=f5 v=0
41059 On ch=1 n=d5 v=0
41063 On ch=1 n=a#6 v=69
41070 On ch=1 n=d7 v=0
41086 On ch=1 n=a#6 v=0
41092 On ch=1 n=d6 v=54
41109 On ch=1 n=a#5 v=0
41111 On ch=1 n=d6 v=0
41119 On ch=1 n=d7 v=76
41122 Par ch=1 c=64 v=56
41122 On ch=1 n=c5 v=50
41126 Par ch=1 c=64 v=0
41138 Par ch=1 c=64 v=88
41142 Par ch=1 c=64 v=127
41144 On ch=1 n=a#6 v=63
41150 On ch=1 n=d7 v=0
41165 On ch=1 n=a#6 v=0
41168 On ch=1 n=d6 v=31
41179 On ch=1 n=d6 v=0
41189 On ch=1 n=c5 v=0
41197 On ch=1 n=f7 v=94
41198 On ch=1 n=a5 v=66
41204 On ch=1 n=f5 v=34
41224 On ch=1 n=a5 v=0
41226 On ch=1 n=f5 v=0
41226 On ch=1 n=c7 v=74
41243 On ch=1 n=c7 v=0
41244 On ch=1 n=f6 v=55
41244 Par ch=1 c=64 v=24
41245 On ch=1 n=b4 v=54
41247 On ch=1 n=f7 v=0
41248 Par ch=1 c=64 v=0
41253 On ch=1 n=b4 v=0
41257 On ch=1 n=f6 v=0
41260 On ch=1 n=f5 v=47
41260 Par ch=1 c=64 v=56
41264 Par ch=1 c=64 v=127
41274 On ch=1 n=a5 v=38
41295 On ch=1 n=a7 v=100
41296 On ch=1 n=d6 v=72
41299 On ch=1 n=f7 v=80
41330 On ch=1 n=f7 v=0
41335 On ch=1 n=d7 v=57
41339 On ch=1 n=f5 v=0
41344 On ch=1 n=d6 v=0
41345 On ch=1 n=a5 v=0
41359 On ch=1 n=a7 v=0
41360 On ch=1 n=d7 v=0
41363 On ch=1 n=a6 v=39
41377 On ch=1 n=a6 v=0
41389 On ch=1 n=f7 v=66
41415 On ch=1 n=d7 v=66
41425 On ch=1 n=f7 v=0
41434 On ch=1 n=d7 v=0
41442 On ch=1 n=a6 v=45
41457 On ch=1 n=a6 v=0
41468 On ch=1 n=g5 v=43
41470 On ch=1 n=g7 v=86
41470 On ch=1 n=e6 v=46
41470 On ch=1 n=b5 v=43
41473 On ch=1 n=e7 v=68
41479 On ch=1 n=b5 v=0
41484 On ch=1 n=g5 v=0
41486 On ch=1 n=e6 v=0
41507 On ch=1 n=g7 v=0
41507 On ch=1 n=e7 v=0
41507 On ch=1 n=b6 v=57
41525 On ch=1 n=b6 v=0
41527 On ch=1 n=g6 v=52
41542 On ch=1 n=g6 v=0
41559 On ch=1 n=f7 v=82
41563 On ch=1 n=d7 v=70
41563 On ch=1 n=d6 v=44
41567 On ch=1 n=a5 v=35
41573 On ch=1 n=d6 v=0
41573 On ch=1 n=f5 v=27
41582 On ch=1 n=a5 v=0
41585 On ch=1 n=f5 v=0
41594 On ch=1 n=a6 v=63
41601 On ch=1 n=f7 v=0
41603 On ch=1 n=d7 v=0
41617 On ch=1 n=a6 v=0
41620 On ch=1 n=f6 v=48
41646 On ch=1 n=f6 v=0
41684 On ch=1 n=e7 v=76
41687 On ch=1 n=d7 v=60
41691 On ch=1 n=e3 v=39
41700 Par ch=1 c=64 v=104
41704 Par ch=1 c=64 v=0
41727 On ch=1 n=g#6 v=49
41728 Par ch=1 c=64 v=88
41732 Par ch=1 c=64 v=127
41739 On ch=1 n=b3 v=34
41753 On ch=1 n=e3 v=0
41755 On ch=1 n=e7 v=0
41755 On ch=1 n=d7 v=0
41757 On ch=1 n=b3 v=0
41760 On ch=1 n=g#6 v=0
41760 On ch=1 n=e6 v=48
41765 On ch=1 n=e4 v=45
41773 On ch=1 n=e6 v=0
41774 On ch=1 n=e4 v=0
41802 On ch=1 n=e6 v=54
41807 On ch=1 n=g#4 v=29
41809 On ch=1 n=d6 v=40
41820 On ch=1 n=d6 v=0
41835 On ch=1 n=g#4 v=0
41844 On ch=1 n=b4 v=43
41845 On ch=1 n=g#5 v=38
41878 On ch=1 n=b4 v=0
41880 On ch=1 n=g#5 v=0
41881 On ch=1 n=e6 v=0
41885 On ch=1 n=e5 v=49
41894 On ch=1 n=e5 v=0
41894 On ch=1 n=d5 v=39
41905 On ch=1 n=d5 v=0
41962 On ch=1 n=a6 v=76
41966 Par ch=1 c=64 v=104
41967 On ch=1 n=f5 v=42
41971 Par ch=1 c=64 v=24
41975 Par ch=1 c=64 v=0
41983 Par ch=1 c=64 v=40
41987 Par ch=1 c=64 v=104
41991 Par ch=1 c=64 v=127
42000 On ch=1 n=f6 v=55
42004 On ch=1 n=a6 v=0
42012 On ch=1 n=f6 v=0
42017 On ch=1 n=a5 v=56
42039 On ch=1 n=a5 v=0
42045 On ch=1 n=f6 v=60
42069 On ch=1 n=a6 v=61
42071 On ch=1 n=f6 v=0
42082 On ch=1 n=f5 v=0
42088 On ch=1 n=a6 v=0
42089 On ch=1 n=g5 v=62
42104 On ch=1 n=a#6 v=79
42122 On ch=1 n=g5 v=0
42127 On ch=1 n=a#6 v=0
42138 On ch=1 n=c7 v=87
42140 Par ch=1 c=64 v=40
42141 On ch=1 n=f5 v=48
42142 On ch=1 n=a5 v=60
42144 Par ch=1 c=64 v=0
42156 Par ch=1 c=64 v=88
42160 Par ch=1 c=64 v=127
42167 On ch=1 n=c6 v=65
42193 On ch=1 n=c6 v=0
42199 On ch=1 n=a6 v=68
42204 On ch=1 n=a5 v=0
42209 On ch=1 n=c7 v=0
42219 On ch=1 n=f5 v=0
42221 On ch=1 n=a6 v=0
42226 On ch=1 n=a#5 v=55
42227 On ch=1 n=d7 v=86
42247 On ch=1 n=d7 v=0
42259 On ch=1 n=a#5 v=0
42268 On ch=1 n=e7 v=90
42269 On ch=1 n=c6 v=63
42290 On ch=1 n=c6 v=0
42292 On ch=1 n=e7 v=0
42310 On ch=1 n=e7 v=86
42313 Par ch=1 c=64 v=72
42317 On ch=1 n=c6 v=66
42317 Par ch=1 c=64 v=0
42319 On ch=1 n=f5 v=51
42325 On ch=1 n=d5 v=42
42329 Par ch=1 c=64 v=127
42348 On ch=1 n=c7 v=58
42350 On ch=1 n=e7 v=0
42359 On ch=1 n=c7 v=0
42365 On ch=1 n=e6 v=22
42387 On ch=1 n=e6 v=0
42388 On ch=1 n=c6 v=0
42396 On ch=1 n=d7 v=90
42403 On ch=1 n=a#5 v=53
42412 On ch=1 n=f5 v=0
42416 On ch=1 n=d5 v=0
42426 On ch=1 n=a#6 v=65
42430 On ch=1 n=d7 v=0
42449 On ch=1 n=d6 v=52
42450 On ch=1 n=a#6 v=0
42453 On ch=1 n=a#5 v=0
42468 On ch=1 n=d6 v=0
42480 On ch=1 n=d7 v=62
42480 Par ch=1 c=64 v=72
42481 On ch=1 n=c5 v=51
42484 Par ch=1 c=64 v=24
42488 Par ch=1 c=64 v=40
42492 Par ch=1 c=64 v=88
42496 Par ch=1 c=64 v=127
42505 On ch=1 n=a#6 v=62
42507 On ch=1 n=d7 v=0
42524 On ch=1 n=a#6 v=0
42532 On ch=1 n=f6 v=58
42548 On ch=1 n=f6 v=0
42554 On ch=1 n=c5 v=0
42559 On ch=1 n=a5 v=66
42560 On ch=1 n=f5 v=59
42561 On ch=1 n=f7 v=90
42580 On ch=1 n=a5 v=0
42592 On ch=1 n=f5 v=0
42593 On ch=1 n=c7 v=53
42600 On ch=1 n=f7 v=0
42601 Par ch=1 c=64 v=56
42604 On ch=1 n=f6 v=54
42605 On ch=1 n=c7 v=0
42606 Par ch=1 c=64 v=0
42607 On ch=1 n=b4 v=61
42613 On ch=1 n=f6 v=0
42617 Par ch=1 c=64 v=104
42619 On ch=1 n=b4 v=0
42621 Par ch=1 c=64 v=127
42625 On ch=1 n=f5 v=59
42635 On ch=1 n=a5 v=56
42657 On ch=1 n=a7 v=102
42657 On ch=1 n=f7 v=70
42661 On ch=1 n=d6 v=74
42699 On ch=1 n=f5 v=0
42705 On ch=1 n=f7 v=55
42707 On ch=1 n=d7 v=55
42713 On ch=1 n=a5 v=0
42714 On ch=1 n=d6 v=0
42726 On ch=1 n=f7 v=0
42726 On ch=1 n=d7 v=0
42732 On ch=1 n=f7 v=0
42732 On ch=1 n=a7 v=0
42738 On ch=1 n=a6 v=66
42761 On ch=1 n=a6 v=0
42768 On ch=1 n=f7 v=72
42792 On ch=1 n=d7 v=54
42799 On ch=1 n=f7 v=0
42806 On ch=1 n=d7 v=0
42811 On ch=1 n=a6 v=60
42825 On ch=1 n=a6 v=0
42840 On ch=1 n=g7 v=85
42843 On ch=1 n=e7 v=72
42849 On ch=1 n=e6 v=56
42850 On ch=1 n=b5 v=49
42851 On ch=1 n=g5 v=44
42861 On ch=1 n=b5 v=0
42866 On ch=1 n=e6 v=0
42868 On ch=1 n=g5 v=0
42868 On ch=1 n=e7 v=0
42870 On ch=1 n=g7 v=0
42870 On ch=1 n=b6 v=64
42882 On ch=1 n=b6 v=0
42885 On ch=1 n=g6 v=68
42909 On ch=1 n=g6 v=0
42919 On ch=1 n=f7 v=88
42921 On ch=1 n=d7 v=75
42929 On ch=1 n=d6 v=59
42931 On ch=1 n=a5 v=51
42934 On ch=1 n=f5 v=42
42940 On ch=1 n=d6 v=0
42946 On ch=1 n=f5 v=0
42948 On ch=1 n=a5 v=0
42950 On ch=1 n=a6 v=66
42969 On ch=1 n=f7 v=0
42973 On ch=1 n=d7 v=0
42977 On ch=1 n=a6 v=0
42977 On ch=1 n=f6 v=79
42992 On ch=1 n=f6 v=0
43015 On ch=1 n=a6 v=82
43021 On ch=1 n=f6 v=66
43026 On ch=1 n=f5 v=44
43028 On ch=1 n=b4 v=40
43036 Par ch=1 c=64 v=56
43040 Par ch=1 c=64 v=0
43045 On ch=1 n=f6 v=0
43050 On ch=1 n=d6 v=67
43056 Par ch=1 c=64 v=40
43060 Par ch=1 c=64 v=127
43074 On ch=1 n=d6 v=0
43075 On ch=1 n=a6 v=0
43076 On ch=1 n=a5 v=56
43097 On ch=1 n=a5 v=0
43108 On ch=1 n=f6 v=60
43132 On ch=1 n=f6 v=0
43132 On ch=1 n=d6 v=57
43142 On ch=1 n=d6 v=0
43150 On ch=1 n=a5 v=49
43164 On ch=1 n=f5 v=0
43165 On ch=1 n=a5 v=0
43182 On ch=1 n=g6 v=78
43184 On ch=1 n=e6 v=68
43194 On ch=1 n=e5 v=37
43214 On ch=1 n=b5 v=48
43215 On ch=1 n=g6 v=0
43220 On ch=1 n=e6 v=0
43227 On ch=1 n=b5 v=0
43231 On ch=1 n=b4 v=0
43235 On ch=1 n=g5 v=49
43246 On ch=1 n=e5 v=0
43252 On ch=1 n=g5 v=0
43267 On ch=1 n=f6 v=82
43270 On ch=1 n=d6 v=70
43270 On ch=1 n=d5 v=54
43281 On ch=1 n=d5 v=0
43304 On ch=1 n=a5 v=32
43314 On ch=1 n=a5 v=0
43315 On ch=1 n=f5 v=43
43332 On ch=1 n=f5 v=0
43369 Par ch=1 c=64 v=56
43371 On ch=1 n=g3 v=37
43373 Par ch=1 c=64 v=0
43375 On ch=1 n=d4 v=26
43384 On ch=1 n=f6 v=0
43387 On ch=1 n=d6 v=0
43389 Par ch=1 c=64 v=40
43393 Par ch=1 c=64 v=127
43394 On ch=1 n=a5 v=58
43413 On ch=1 n=a5 v=0
43421 On ch=1 n=f5 v=42
43431 On ch=1 n=f5 v=0
43445 On ch=1 n=a5 v=59
43453 On ch=1 n=g3 v=0
43458 On ch=1 n=d4 v=0
43470 On ch=1 n=a5 v=0
43479 On ch=1 n=f5 v=25
43486 On ch=1 n=f5 v=0
43491 On ch=1 n=d5 v=49
43503 On ch=1 n=d5 v=0
43524 On ch=1 n=e6 v=82
43530 On ch=1 n=b4 v=39
43534 On ch=1 n=b5 v=34
43557 On ch=1 n=b5 v=0
43559 On ch=1 n=g5 v=58
43560 On ch=1 n=b4 v=0
43565 On ch=1 n=e6 v=0
43575 On ch=1 n=g5 v=0
43585 On ch=1 n=e5 v=25
43597 On ch=1 n=e5 v=0
43613 On ch=1 n=d6 v=76
43613 On ch=1 n=a4 v=40
43617 On ch=1 n=a5 v=60
43622 On ch=1 n=a4 v=0
43647 On ch=1 n=f5 v=49
43655 On ch=1 n=a5 v=0
43662 On ch=1 n=d5 v=47
43676 On ch=1 n=f5 v=0
43686 Par ch=1 c=64 v=72
43689 Par ch=1 c=64 v=0
43699 Par ch=1 c=64 v=40
43700 On ch=1 n=d5 v=0
43700 On ch=1 n=c3 v=46
43700 On ch=1 n=g3 v=34
43703 Par ch=1 c=64 v=127
43719 On ch=1 n=g3 v=0
43723 On ch=1 n=a5 v=43
43724 On ch=1 n=c3 v=0
43746 On ch=1 n=f5 v=53
43748 On ch=1 n=a5 v=0
43752 On ch=1 n=d6 v=0
43759 On ch=1 n=f5 v=0
43764 On ch=1 n=d5 v=34
43773 On ch=1 n=d5 v=0
43804 On ch=1 n=e6 v=82
43812 On ch=1 n=g4 v=36
43813 On ch=1 n=b4 v=50
43820 On ch=1 n=b5 v=32
43845 On ch=1 n=g5 v=56
43846 On ch=1 n=b5 v=0
43846 On ch=1 n=b4 v=0
43851 On ch=1 n=e6 v=0
43861 On ch=1 n=g5 v=0
43862 On ch=1 n=g4 v=0
43862 On ch=1 n=e5 v=42
43872 On ch=1 n=e5 v=0
43891 On ch=1 n=d6 v=80
43896 On ch=1 n=a5 v=55
43897 On ch=1 n=a4 v=40
43903 On ch=1 n=f4 v=32
43920 On ch=1 n=a5 v=0
43925 On ch=1 n=f5 v=55
43932 On ch=1 n=a4 v=0
43934 On ch=1 n=d5 v=52
43938 On ch=1 n=f4 v=0
43938 On ch=1 n=f5 v=0
43946 On ch=1 n=d6 v=0
43949 On ch=1 n=d5 v=0
43974 On ch=1 n=e6 v=86
43985 On ch=1 n=b5 v=44
43985 On ch=1 n=b4 v=38
43987 On ch=1 n=g4 v=37
44004 On ch=1 n=b4 v=0
44014 On ch=1 n=g5 v=59
44016 On ch=1 n=b5 v=0
44020 On ch=1 n=e6 v=0
44024 On ch=1 n=g4 v=0
44035 On ch=1 n=g5 v=0
44036 On ch=1 n=e5 v=36
44050 On ch=1 n=e5 v=0
44080 On ch=1 n=c6 v=78
44088 On ch=1 n=g4 v=52
44093 On ch=1 n=f4 v=48
44109 Par ch=1 c=64 v=56
44113 Par ch=1 c=64 v=0
44118 On ch=1 n=g5 v=57
44140 On ch=1 n=g5 v=0
44141 Par ch=1 c=64 v=88
44145 Par ch=1 c=64 v=127
44146 On ch=1 n=c5 v=52
44157 On ch=1 n=f4 v=0
44168 On ch=1 n=c5 v=0
44177 On ch=1 n=g5 v=37
44204 On ch=1 n=g5 v=0
44208 On ch=1 n=c5 v=51
44231 On ch=1 n=c5 v=0
44239 On ch=1 n=g5 v=45
44264 On ch=1 n=g5 v=0
44272 On ch=1 n=e4 v=48
44273 On ch=1 n=c5 v=41
44282 Par ch=1 c=64 v=88
44286 Par ch=1 c=64 v=0
44292 On ch=1 n=c5 v=0
44300 On ch=1 n=g5 v=41
44302 Par ch=1 c=64 v=72
44306 Par ch=1 c=64 v=127
44324 On ch=1 n=g5 v=0
44331 On ch=1 n=c5 v=45
44333 On ch=1 n=e4 v=0
44347 On ch=1 n=c5 v=0
44357 On ch=1 n=g5 v=41
44365 On ch=1 n=g4 v=0
44371 On ch=1 n=g5 v=0
44382 On ch=1 n=c5 v=46
44402 On ch=1 n=c5 v=0
44404 Par ch=1 c=64 v=104
44407 On ch=1 n=g5 v=45
44407 On ch=1 n=f3 v=53
44408 Par ch=1 c=64 v=24
44413 Par ch=1 c=64 v=0
44417 Par ch=1 c=64 v=24
44421 Par ch=1 c=64 v=72
44425 Par ch=1 c=64 v=127
44427 On ch=1 n=f3 v=0
44429 On ch=1 n=g5 v=0
44438 On ch=1 n=d#4 v=55
44442 On ch=1 n=c5 v=34
44460 On ch=1 n=c6 v=0
44464 On ch=1 n=c5 v=0
44464 On ch=1 n=g4 v=64
44526 On ch=1 n=c5 v=41
44536 On ch=1 n=c5 v=0
44553 On ch=1 n=d6 v=80
44583 On ch=1 n=g5 v=62
44588 On ch=1 n=d6 v=0
44598 On ch=1 n=g4 v=0
44614 On ch=1 n=d5 v=38
44617 On ch=1 n=g5 v=0
44633 On ch=1 n=d5 v=0
44641 On ch=1 n=c6 v=83
44651 On ch=1 n=a4 v=50
44653 Par ch=1 c=64 v=40
44657 Par ch=1 c=64 v=0
44669 Par ch=1 c=64 v=56
44672 Par ch=1 c=64 v=127
44676 On ch=1 n=g5 v=36
44683 On ch=1 n=c6 v=0
44687 On ch=1 n=c5 v=49
44694 On ch=1 n=a4 v=0
44704 On ch=1 n=c5 v=0
44713 On ch=1 n=g5 v=0
44727 On ch=1 n=d6 v=82
44741 On ch=1 n=d#4 v=0
44758 On ch=1 n=g5 v=52
44772 On ch=1 n=d6 v=0
44781 On ch=1 n=g5 v=0
44785 On ch=1 n=d5 v=63
44794 On ch=1 n=d5 v=0
44848 On ch=1 n=a#2 v=35
44848 On ch=1 n=f3 v=33
44850 On ch=1 n=g5 v=73
44872 Par ch=1 c=64 v=24
44876 Par ch=1 c=64 v=0
44886 On ch=1 n=d5 v=48
44903 Par ch=1 c=64 v=127
44911 On ch=1 n=d5 v=0
44919 On ch=1 n=g4 v=37
44936 On ch=1 n=g4 v=0
44951 On ch=1 n=d5 v=42
44957 On ch=1 n=f3 v=49
44967 On ch=1 n=f3 v=0
44976 On ch=1 n=d5 v=0
44987 On ch=1 n=g4 v=41
45006 On ch=1 n=g4 v=0
45008 On ch=1 n=a#2 v=0
45016 On ch=1 n=d5 v=42
45020 On ch=1 n=f3 v=0
45038 On ch=1 n=d5 v=0
45048 On ch=1 n=g4 v=36
45064 On ch=1 n=g4 v=0
45075 On ch=1 n=d5 v=48
45100 On ch=1 n=d5 v=0
45112 On ch=1 n=g4 v=37
45117 On ch=1 n=f4 v=31
45126 On ch=1 n=f4 v=0
45126 On ch=1 n=g4 v=0
45146 On ch=1 n=d5 v=29
45146 On ch=1 n=f3 v=40
45164 On ch=1 n=g4 v=31
45171 On ch=1 n=g4 v=0
45173 On ch=1 n=f3 v=0
45173 On ch=1 n=d5 v=0
45178 On ch=1 n=g5 v=0
45203 On ch=1 n=f3 v=54
45226 Par ch=1 c=64 v=104
45230 Par ch=1 c=64 v=24
45232 On ch=1 n=d#4 v=46
45235 Par ch=1 c=64 v=0
45239 On ch=1 n=c6 v=81
45242 On ch=1 n=f3 v=0
45251 Par ch=1 c=64 v=72
45254 On ch=1 n=g4 v=40
45255 Par ch=1 c=64 v=127
45271 On ch=1 n=g5 v=44
45278 On ch=1 n=c6 v=0
45282 On ch=1 n=d#4 v=0
45290 On ch=1 n=c5 v=57
45294 On ch=1 n=g5 v=0
45304 On ch=1 n=c5 v=0
45328 On ch=1 n=d6 v=83
45352 On ch=1 n=g5 v=53
45359 On ch=1 n=d6 v=0
45378 On ch=1 n=d5 v=48
45385 On ch=1 n=g5 v=0
45394 On ch=1 n=g4 v=0
45398 On ch=1 n=d5 v=0
45406 On ch=1 n=c6 v=89
45410 On ch=1 n=a4 v=37
45431 On ch=1 n=g5 v=56
45440 On ch=1 n=c6 v=0
45448 On ch=1 n=c5 v=62
45464 On ch=1 n=g5 v=0
45471 On ch=1 n=c5 v=0
45471 On ch=1 n=a4 v=0
45485 On ch=1 n=d6 v=82
45508 On ch=1 n=g5 v=56
45529 On ch=1 n=c5 v=41
45530 On ch=1 n=d5 v=46
45535 On ch=1 n=g5 v=0
45538 On ch=1 n=c5 v=0
45539 On ch=1 n=d5 v=0
45551 On ch=1 n=d6 v=0
45575 On ch=1 n=a#3 v=38
45580 On ch=1 n=g6 v=88
45590 Par ch=1 c=64 v=40
45594 Par ch=1 c=64 v=0
45614 On ch=1 n=d6 v=59
45614 Par ch=1 c=64 v=104
45618 Par ch=1 c=64 v=127
45624 On ch=1 n=g6 v=0
45640 On ch=1 n=g5 v=55
45648 On ch=1 n=d6 v=0
45654 On ch=1 n=g5 v=0
45659 On ch=1 n=a#3 v=0
45665 On ch=1 n=g6 v=86
45680 On ch=1 n=f4 v=41
45692 On ch=1 n=d6 v=61
45704 On ch=1 n=g6 v=0
45720 On ch=1 n=g5 v=55
45730 On ch=1 n=d6 v=0
45739 On ch=1 n=g5 v=0
45747 On ch=1 n=f6 v=97
45751 On ch=1 n=f4 v=0
45751 On ch=1 n=a#4 v=60
45773 On ch=1 n=d6 v=38
45783 On ch=1 n=a#4 v=0
45789 On ch=1 n=f5 v=43
45791 On ch=1 n=f6 v=0
45807 On ch=1 n=f5 v=0
45822 On ch=1 n=d6 v=0
45830 On ch=1 n=g6 v=94
45837 On ch=1 n=d6 v=43
45838 On ch=1 n=d5 v=53
45849 On ch=1 n=d5 v=0
45856 On ch=1 n=a#5 v=58
45874 On ch=1 n=a#5 v=0
45875 On ch=1 n=d6 v=0
45875 On ch=1 n=g5 v=61
45879 On ch=1 n=g6 v=0
45887 On ch=1 n=g5 v=0
45929 On ch=1 n=a6 v=87
45930 Par ch=1 c=64 v=88
45930 On ch=1 n=f6 v=68
45931 On ch=1 n=f5 v=41
45932 On ch=1 n=d5 v=24
45934 Par ch=1 c=64 v=0
45936 On ch=1 n=b4 v=35
45945 On ch=1 n=a6 v=0
45957 Par ch=1 c=64 v=72
45959 On ch=1 n=d6 v=66
45961 Par ch=1 c=64 v=127
45968 On ch=1 n=f6 v=0
45977 On ch=1 n=a5 v=68
45979 On ch=1 n=d6 v=0
45982 On ch=1 n=f5 v=0
45996 On ch=1 n=a5 v=0
46016 On ch=1 n=b6 v=94
46021 On ch=1 n=g5 v=57
46023 On ch=1 n=g6 v=69
46050 On ch=1 n=g5 v=0
46051 On ch=1 n=e6 v=74
46056 On ch=1 n=g6 v=0
46064 On ch=1 n=b6 v=0
46066 On ch=1 n=d5 v=0
46075 On ch=1 n=b4 v=0
46075 On ch=1 n=b5 v=60
46077 On ch=1 n=e6 v=0
46096 On ch=1 n=b5 v=0
46104 On ch=1 n=a6 v=88
46107 Par ch=1 c=64 v=40
46108 On ch=1 n=f6 v=65
46109 On ch=1 n=f5 v=43
46111 Par ch=1 c=64 v=0
46113 On ch=1 n=b4 v=36
46113 On ch=1 n=d5 v=26
46127 Par ch=1 c=64 v=40
46131 Par ch=1 c=64 v=127
46137 On ch=1 n=d6 v=71
46145 On ch=1 n=f6 v=0
46151 On ch=1 n=a6 v=0
46154 On ch=1 n=f5 v=0
46154 On ch=1 n=a5 v=64
46162 On ch=1 n=d6 v=0
46172 On ch=1 n=a5 v=0
46190 On ch=1 n=b6 v=80
46192 On ch=1 n=g5 v=52
46194 On ch=1 n=g6 v=75
46195 On ch=1 n=a6 v=54
46201 On ch=1 n=a6 v=0
46217 On ch=1 n=g5 v=0
46221 On ch=1 n=d5 v=0
46228 On ch=1 n=e6 v=77
46234 On ch=1 n=b4 v=0
46236 On ch=1 n=g6 v=0
46236 On ch=1 n=b6 v=0
46244 On ch=1 n=e6 v=0
46253 On ch=1 n=b5 v=56
46273 On ch=1 n=b5 v=0
46282 On ch=1 n=g#6 v=83
46290 Par ch=1 c=64 v=24
46290 On ch=1 n=e6 v=71
46291 On ch=1 n=b4 v=42
46292 On ch=1 n=e5 v=58
46294 Par ch=1 c=64 v=0
46313 Par ch=1 c=64 v=72
46318 On ch=1 n=b4 v=0
46318 Par ch=1 c=64 v=127
46323 On ch=1 n=b5 v=58
46328 On ch=1 n=e6 v=0
46340 On ch=1 n=g#5 v=54
46348 On ch=1 n=g#6 v=0
46350 On ch=1 n=b5 v=0
46366 On ch=1 n=g#5 v=0
46378 On ch=1 n=e6 v=73
46386 On ch=1 n=b4 v=41
46406 On ch=1 n=b5 v=59
46429 On ch=1 n=g#5 v=47
46433 On ch=1 n=e6 v=0
46441 On ch=1 n=b5 v=0
46448 On ch=1 n=e5 v=0
46455 On ch=1 n=g#5 v=0
46465 On ch=1 n=f#6 v=79
46469 On ch=1 n=d6 v=72
46473 On ch=1 n=d5 v=53
46473 Par ch=1 c=64 v=40
46477 Par ch=1 c=64 v=0
46497 Par ch=1 c=64 v=104
46501 Par ch=1 c=64 v=127
46504 On ch=1 n=f#5 v=46
46504 On ch=1 n=b5 v=44
46505 On ch=1 n=d6 v=0
46517 On ch=1 n=f#6 v=0
46529 On ch=1 n=b5 v=0
46532 On ch=1 n=f#5 v=0
46556 On ch=1 n=g#6 v=85
46562 On ch=1 n=e6 v=66
46567 On ch=1 n=e5 v=43
46577 On ch=1 n=b4 v=0
46587 On ch=1 n=d5 v=0
46587 On ch=1 n=b5 v=58
46592 On ch=1 n=e6 v=0
46594 On ch=1 n=e5 v=0
46605 On ch=1 n=b5 v=0
46607 On ch=1 n=g#5 v=38
46619 On ch=1 n=g#5 v=0
46621 On ch=1 n=g#6 v=0
46653 On ch=1 n=a6 v=82
46656 On ch=1 n=f5 v=41
46656 On ch=1 n=d5 v=36
46658 On ch=1 n=f6 v=65
46661 On ch=1 n=b4 v=39
46662 Par ch=1 c=64 v=72
46666 Par ch=1 c=64 v=0
46691 Par ch=1 c=64 v=72
46693 On ch=1 n=d6 v=47
46695 Par ch=1 c=64 v=127
46705 On ch=1 n=d6 v=0
46709 On ch=1 n=a5 v=56
46710 On ch=1 n=f6 v=0
46715 On ch=1 n=f5 v=0
46723 On ch=1 n=a6 v=0
46727 On ch=1 n=a5 v=0
46753 On ch=1 n=b6 v=70
46755 On ch=1 n=g6 v=66
46757 On ch=1 n=g5 v=44
46758 On ch=1 n=g6 v=56
46761 On ch=1 n=g6 v=0
46790 On ch=1 n=e6 v=60
46792 On ch=1 n=b6 v=0
46801 On ch=1 n=g6 v=0
46804 On ch=1 n=g5 v=0
46821 On ch=1 n=e6 v=0
46821 On ch=1 n=b5 v=48
46848 On ch=1 n=b5 v=0
46866 On ch=1 n=a6 v=74
46872 On ch=1 n=f6 v=64
46873 On ch=1 n=f5 v=36
46874 Par ch=1 c=64 v=104
46877 Par ch=1 c=64 v=24
46881 Par ch=1 c=64 v=0
46902 Par ch=1 c=64 v=72
46906 Par ch=1 c=64 v=127
46907 On ch=1 n=d6 v=49
46917 On ch=1 n=f6 v=0
46927 On ch=1 n=d6 v=0
46934 On ch=1 n=a5 v=44
46935 On ch=1 n=f5 v=0
46940 On ch=1 n=a6 v=0
46948 On ch=1 n=a5 v=0
46999 On ch=1 n=c7 v=67
47007 On ch=1 n=a6 v=35
47007 On ch=1 n=a5 v=37
47015 Par ch=1 c=64 v=40
47019 Par ch=1 c=64 v=0
47031 Par ch=1 c=64 v=72
47036 Par ch=1 c=64 v=127
47052 On ch=1 n=a5 v=0
47061 On ch=1 n=b4 v=0
47062 On ch=1 n=f6 v=47
47067 On ch=1 n=d5 v=0
47077 On ch=1 n=a6 v=0
47083 On ch=1 n=c7 v=0
47098 On ch=1 n=f6 v=0
47114 On ch=1 n=c6 v=43
47125 On ch=1 n=c6 v=0
47187 On ch=1 n=b6 v=63
47189 On ch=1 n=b5 v=44
47191 On ch=1 n=g#6 v=42
47191 On ch=1 n=e5 v=45
47196 On ch=1 n=e6 v=40
47221 Par ch=1 c=64 v=72
47225 Par ch=1 c=64 v=0
47245 Par ch=1 c=64 v=56
47249 Par ch=1 c=64 v=127
47255 On ch=1 n=e5 v=0
47265 On ch=1 n=b4 v=29
47283 On ch=1 n=e6 v=0
47290 On ch=1 n=b6 v=0
47294 On ch=1 n=g#6 v=0
47296 On ch=1 n=b4 v=0
47306 On ch=1 n=g#4 v=33
47312 On ch=1 n=b5 v=0
47318 On ch=1 n=g#4 v=0
47351 On ch=1 n=e4 v=36
47361 On ch=1 n=f#5 v=60
47367 On ch=1 n=e4 v=0
47382 On ch=1 n=b3 v=22
47396 On ch=1 n=b3 v=0
47419 On ch=1 n=f#5 v=0
47421 Par ch=1 c=64 v=104
47425 On ch=1 n=g#5 v=68
47425 Par ch=1 c=64 v=24
47429 Par ch=1 c=64 v=0
47431 On ch=1 n=e3 v=33
47441 Par ch=1 c=64 v=72
47444 Par ch=1 c=64 v=127
47463 On ch=1 n=e3 v=0
47466 On ch=1 n=b3 v=32
47487 On ch=1 n=b3 v=0
47487 On ch=1 n=g#5 v=0
47495 On ch=1 n=a5 v=76
47504 On ch=1 n=e4 v=37
47529 On ch=1 n=e4 v=0
47537 On ch=1 n=g#4 v=49
47545 On ch=1 n=a5 v=0
47553 On ch=1 n=b5 v=78
47560 On ch=1 n=g#4 v=0
47570 On ch=1 n=b4 v=46
47579 On ch=1 n=b5 v=0
47600 On ch=1 n=b4 v=0
47605 On ch=1 n=b5 v=73
47612 Par ch=1 c=64 v=72
47612 On ch=1 n=e5 v=54
47616 Par ch=1 c=64 v=24
47620 Par ch=1 c=64 v=40
47624 Par ch=1 c=64 v=104
47627 Par ch=1 c=64 v=127
47638 On ch=1 n=e5 v=0
47650 On ch=1 n=b4 v=48
47673 On ch=1 n=b4 v=0
47679 On ch=1 n=g#4 v=48
47685 On ch=1 n=b5 v=0
47697 On ch=1 n=g#5 v=69
47699 On ch=1 n=g#4 v=0
47726 On ch=1 n=e4 v=31
47737 On ch=1 n=e4 v=0
47754 On ch=1 n=b3 v=44
47770 On ch=1 n=b3 v=0
47793 Par ch=1 c=64 v=104
47795 On ch=1 n=e3 v=43
47797 Par ch=1 c=64 v=24
47801 Par ch=1 c=64 v=0
47809 Par ch=1 c=64 v=40
47813 Par ch=1 c=64 v=104
47817 Par ch=1 c=64 v=127
47827 On ch=1 n=e3 v=0
47827 On ch=1 n=b3 v=38
47837 On ch=1 n=b3 v=0
47854 On ch=1 n=e4 v=44
47866 On ch=1 n=f#5 v=68
47877 On ch=1 n=e4 v=0
47880 On ch=1 n=g#5 v=0
47892 On ch=1 n=g#4 v=51
47915 On ch=1 n=g#4 v=0
47925 On ch=1 n=b4 v=54
47960 On ch=1 n=b4 v=0
47965 Par ch=1 c=64 v=104
47969 Par ch=1 c=64 v=40
47970 On ch=1 n=f#5 v=0
47970 On ch=1 n=g#5 v=71
47973 Par ch=1 c=64 v=24
47974 On ch=1 n=d#5 v=62
47977 Par ch=1 c=64 v=56
47981 Par ch=1 c=64 v=127
48014 On ch=1 n=b4 v=51
48035 On ch=1 n=b4 v=0
48041 On ch=1 n=g#4 v=49
48044 On ch=1 n=g#5 v=0
48047 On ch=1 n=f#5 v=69
48066 On ch=1 n=g#4 v=0
48072 On ch=1 n=e4 v=53
48080 On ch=1 n=e4 v=0
48094 On ch=1 n=d#5 v=0
48098 On ch=1 n=e4 v=37
48103 On ch=1 n=f#5 v=0
48104 On ch=1 n=g#5 v=71
48106 On ch=1 n=e4 v=0
48116 On ch=1 n=b3 v=41
48137 On ch=1 n=b3 v=0
48156 On ch=1 n=e5 v=67
48158 On ch=1 n=e3 v=38
48158 Par ch=1 c=64 v=56
48162 Par ch=1 c=64 v=0
48168 On ch=1 n=g#5 v=0
48183 Par ch=1 c=64 v=104
48184 On ch=1 n=b3 v=33
48187 Par ch=1 c=64 v=127
48189 On ch=1 n=e3 v=0
48193 On ch=1 n=b3 v=0
48212 On ch=1 n=e4 v=36
48237 On ch=1 n=e4 v=0
48242 On ch=1 n=g#5 v=63
48247 On ch=1 n=g#4 v=43
48286 On ch=1 n=e5 v=0
48288 On ch=1 n=g#4 v=0
48294 On ch=1 n=b4 v=40
48311 On ch=1 n=b4 v=0
48339 On ch=1 n=g#5 v=0
48343 On ch=1 n=f#5 v=61
48346 On ch=1 n=c#5 v=44
48376 Par ch=1 c=64 v=104
48380 Par ch=1 c=64 v=0
48386 On ch=1 n=a4 v=43
48404 Par ch=1 c=64 v=88
48408 Par ch=1 c=64 v=127
48418 On ch=1 n=a4 v=0
48424 On ch=1 n=f#4 v=45
48456 On ch=1 n=f#4 v=0
48457 On ch=1 n=e4 v=43
48466 On ch=1 n=e4 v=0
48497 On ch=1 n=b3 v=40
48512 On ch=1 n=b3 v=0
48547 On ch=1 n=e3 v=45
48590 On ch=1 n=e3 v=0
48592 On ch=1 n=b3 v=47
48617 On ch=1 n=b3 v=0
48627 On ch=1 n=e4 v=45
48628 On ch=1 n=c#5 v=0
48652 On ch=1 n=e4 v=0
48663 On ch=1 n=f#5 v=0
48666 On ch=1 n=f#4 v=41
48695 On ch=1 n=f#4 v=0
48719 On ch=1 n=a4 v=33
48736 On ch=1 n=a4 v=0
48779 On ch=1 n=e6 v=73
48787 On ch=1 n=e5 v=52
48797 Par ch=1 c=64 v=24
48802 Par ch=1 c=64 v=0
48822 On ch=1 n=e5 v=0
48830 Par ch=1 c=64 v=127
48832 On ch=1 n=b4 v=40
48852 On ch=1 n=b4 v=0
48861 On ch=1 n=g#4 v=44
48876 On ch=1 n=g#4 v=0
48901 On ch=1 n=e4 v=54
48906 On ch=1 n=e6 v=0
48911 On ch=1 n=e4 v=0
48915 On ch=1 n=f#6 v=72
48919 On ch=1 n=f#5 v=58
48928 On ch=1 n=b3 v=59
48936 On ch=1 n=f#5 v=0
48954 On ch=1 n=b3 v=0
48959 On ch=1 n=f#6 v=0
48975 On ch=1 n=g#6 v=86
48975 Par ch=1 c=64 v=40
48975 On ch=1 n=g#5 v=67
48979 Par ch=1 c=64 v=0
48982 On ch=1 n=e3 v=40
48988 Par ch=1 c=64 v=56
48992 Par ch=1 c=64 v=127
49002 On ch=1 n=g#5 v=0
49012 On ch=1 n=b3 v=26
49015 On ch=1 n=e3 v=0
49016 On ch=1 n=g#6 v=0
49020 On ch=1 n=b3 v=0
49035 On ch=1 n=e4 v=38
49043 On ch=1 n=a6 v=77
49044 On ch=1 n=a5 v=71
49058 On ch=1 n=e4 v=0
49060 On ch=1 n=a5 v=0
49067 On ch=1 n=g#4 v=54
49069 On ch=1 n=a6 v=0
49088 On ch=1 n=g#4 v=0
49096 On ch=1 n=b6 v=85
49098 On ch=1 n=b5 v=69
49100 On ch=1 n=b4 v=62
49110 On ch=1 n=b5 v=0
49114 On ch=1 n=b6 v=0
49125 On ch=1 n=b4 v=0
49139 On ch=1 n=b6 v=89
49142 On ch=1 n=b5 v=66
49143 On ch=1 n=e5 v=32
49163 On ch=1 n=e5 v=0
49171 On ch=1 n=b4 v=49
49183 On ch=1 n=b5 v=0
49189 On ch=1 n=d#6 v=27
49191 On ch=1 n=b4 v=0
49197 On ch=1 n=g#4 v=54
49198 On ch=1 n=b6 v=0
49200 On ch=1 n=d#6 v=0
49214 On ch=1 n=g#4 v=0
49224 On ch=1 n=g#6 v=83
49226 On ch=1 n=g#5 v=63
49269 On ch=1 n=b3 v=50
49292 On ch=1 n=b3 v=0
49309 Par ch=1 c=64 v=88
49313 Par ch=1 c=64 v=0
49314 On ch=1 n=e3 v=45
49329 Par ch=1 c=64 v=72
49333 Par ch=1 c=64 v=127
49348 On ch=1 n=b3 v=49
49357 On ch=1 n=e3 v=0
49362 On ch=1 n=b3 v=0
49372 On ch=1 n=g#5 v=0
49379 On ch=1 n=e4 v=33
49385 On ch=1 n=g#6 v=0
49393 On ch=1 n=e4 v=0
49397 On ch=1 n=f#6 v=75
49398 On ch=1 n=f#5 v=58
49416 On ch=1 n=f#5 v=0
49425 On ch=1 n=g#4 v=35
49439 On ch=1 n=g#4 v=0
49456 On ch=1 n=f#6 v=0
49456 On ch=1 n=b4 v=61
49491 On ch=1 n=b4 v=0
49499 On ch=1 n=g#6 v=84
49503 On ch=1 n=d#6 v=59
49504 On ch=1 n=g#5 v=56
49512 On ch=1 n=d#5 v=53
49532 On ch=1 n=g#5 v=0
49538 On ch=1 n=d#5 v=0
49548 On ch=1 n=b4 v=45
49549 On ch=1 n=g#6 v=0
49563 On ch=1 n=b4 v=0
49575 On ch=1 n=f#6 v=71
49575 On ch=1 n=f#5 v=64
49578 On ch=1 n=g#4 v=46
49592 On ch=1 n=g#4 v=0
49598 On ch=1 n=f#5 v=0
49618 On ch=1 n=e4 v=38
49621 On ch=1 n=f#6 v=0
49629 On ch=1 n=e4 v=0
49629 On ch=1 n=g#6 v=79
49635 On ch=1 n=g#5 v=56
49644 On ch=1 n=d#6 v=0
49647 On ch=1 n=b3 v=38
49652 On ch=1 n=g#5 v=0
49652 On ch=1 n=g#6 v=0
49664 On ch=1 n=b3 v=0
49684 On ch=1 n=e6 v=78
49685 On ch=1 n=e5 v=53
49691 On ch=1 n=e3 v=41
49702 On ch=1 n=e5 v=0
49716 On ch=1 n=e6 v=0
49724 On ch=1 n=b3 v=51
49729 On ch=1 n=e3 v=0
49739 On ch=1 n=b3 v=0
49760 On ch=1 n=e4 v=24
49772 On ch=1 n=g#6 v=73
49778 On ch=1 n=g#5 v=42
49785 On ch=1 n=e4 v=0
49793 On ch=1 n=g#4 v=50
49809 On ch=1 n=g#6 v=0
49824 On ch=1 n=g#4 v=0
49830 On ch=1 n=g#5 v=0
49839 On ch=1 n=b4 v=44
49880 On ch=1 n=b4 v=0
49882 On ch=1 n=f#6 v=67
49886 On ch=1 n=f#5 v=34
49890 On ch=1 n=d5 v=53
49894 On ch=1 n=b5 v=34
49896 On ch=1 n=d6 v=26
49904 Par ch=1 c=64 v=40
49908 Par ch=1 c=64 v=0
49918 On ch=1 n=d5 v=0
49925 Par ch=1 c=64 v=72
49929 Par ch=1 c=64 v=127
49931 On ch=1 n=b4 v=45
49949 On ch=1 n=b4 v=0
49956 On ch=1 n=g#4 v=37
49971 On ch=1 n=d6 v=0
49974 On ch=1 n=g#4 v=0
49983 On ch=1 n=f#6 v=0
49983 On ch=1 n=f#5 v=0
50003 On ch=1 n=e4 v=33
50013 On ch=1 n=e4 v=0
50028 On ch=1 n=b3 v=39
50043 On ch=1 n=b5 v=0
50048 On ch=1 n=b3 v=0
50081 On ch=1 n=e6 v=57
50087 On ch=1 n=b5 v=24
50089 On ch=1 n=e5 v=33
50093 On ch=1 n=e3 v=36
50099 Par ch=1 c=64 v=72
50104 Par ch=1 c=64 v=24
50108 Par ch=1 c=64 v=40
50112 Par ch=1 c=64 v=72
50116 Par ch=1 c=64 v=127
50134 On ch=1 n=b3 v=33
50135 On ch=1 n=e3 v=0
50147 On ch=1 n=b3 v=0
50165 On ch=1 n=e4 v=24
50170 On ch=1 n=e5 v=0
50191 On ch=1 n=e4 v=0
50201 On ch=1 n=b5 v=0
50206 On ch=1 n=g#4 v=48
50244 On ch=1 n=g#4 v=0
50250 On ch=1 n=e6 v=0
50253 On ch=1 n=b4 v=44
50293 On ch=1 n=b4 v=0
50310 On ch=1 n=d5 v=38
50324 On ch=1 n=d5 v=0
50396 On ch=1 n=a6 v=58
50397 On ch=1 n=c#6 v=34
50414 On ch=1 n=e3 v=45
50418 Par ch=1 c=64 v=40
50422 Par ch=1 c=64 v=0
50442 Par ch=1 c=64 v=72
50446 Par ch=1 c=64 v=127
50458 On ch=1 n=b3 v=40
50468 On ch=1 n=e3 v=0
50470 On ch=1 n=c#6 v=0
50484 On ch=1 n=b3 v=0
50488 On ch=1 n=e4 v=49
50497 On ch=1 n=e4 v=0
50503 On ch=1 n=a5 v=49
50507 On ch=1 n=e6 v=51
50513 On ch=1 n=a5 v=0
50520 On ch=1 n=e6 v=0
50528 On ch=1 n=a6 v=0
50537 On ch=1 n=a4 v=40
50561 On ch=1 n=a4 v=0
50564 On ch=1 n=c#5 v=40
50565 On ch=1 n=c#7 v=80
50567 On ch=1 n=e6 v=61
50576 On ch=1 n=e6 v=0
50586 On ch=1 n=c#5 v=0
50594 On ch=1 n=e5 v=52
50603 On ch=1 n=c#7 v=0
50611 On ch=1 n=e5 v=0
50626 On ch=1 n=e7 v=79
50632 On ch=1 n=a6 v=64
50650 On ch=1 n=e5 v=30
50659 On ch=1 n=e5 v=0
50661 On ch=1 n=c#5 v=48
50667 On ch=1 n=a6 v=0
50677 On ch=1 n=c#5 v=0
50677 On ch=1 n=e7 v=0
50694 On ch=1 n=c#7 v=74
50701 On ch=1 n=e6 v=33
50707 On ch=1 n=a4 v=27
50709 On ch=1 n=e6 v=0
50725 On ch=1 n=a4 v=0
50730 On ch=1 n=c#7 v=0
50735 On ch=1 n=e4 v=44
50752 On ch=1 n=f#7 v=79
50756 On ch=1 n=a6 v=62
50762 On ch=1 n=e4 v=0
50765 On ch=1 n=a6 v=0
50771 On ch=1 n=b3 v=42
50779 On ch=1 n=f#7 v=0
50780 On ch=1 n=b3 v=0
50837 On ch=1 n=g#7 v=80
50844 On ch=1 n=c#7 v=43
50847 On ch=1 n=e3 v=48
50854 Par ch=1 c=64 v=40
50858 Par ch=1 c=64 v=0
50877 Par ch=1 c=64 v=88
50881 On ch=1 n=c#4 v=48
50881 Par ch=1 c=64 v=127
50888 On ch=1 n=e3 v=0
50898 On ch=1 n=c#4 v=0
50900 On ch=1 n=g#7 v=0
50901 On ch=1 n=c#7 v=0
50902 On ch=1 n=e4 v=36
50911 On ch=1 n=e4 v=0
50916 On ch=1 n=e7 v=74
50918 On ch=1 n=g#6 v=49
50939 On ch=1 n=g#4 v=44
50955 On ch=1 n=e7 v=0
50965 On ch=1 n=g#4 v=0
50966 On ch=1 n=c#5 v=49
50968 On ch=1 n=g#6 v=0
50974 On ch=1 n=g#7 v=75
50978 On ch=1 n=c#7 v=60
50984 On ch=1 n=c#5 v=0
50991 On ch=1 n=c#7 v=0
50992 On ch=1 n=g#7 v=0
50992 On ch=1 n=e5 v=49
51013 On ch=1 n=e5 v=0
51023 On ch=1 n=g#5 v=44
51031 On ch=1 n=e7 v=76
51037 On ch=1 n=g#5 v=0
51038 On ch=1 n=g#6 v=54
51053 On ch=1 n=e5 v=59
51058 On ch=1 n=e7 v=0
51067 On ch=1 n=e5 v=0
51070 On ch=1 n=g#6 v=0
51081 On ch=1 n=e6 v=60
51083 On ch=1 n=c#5 v=46
51103 On ch=1 n=e6 v=0
51104 On ch=1 n=g#4 v=47
51105 On ch=1 n=c#5 v=0
51124 On ch=1 n=g#4 v=0
51143 On ch=1 n=e4 v=57
51143 On ch=1 n=c#7 v=73
51152 On ch=1 n=e4 v=0
51152 On ch=1 n=e6 v=52
51160 On ch=1 n=e6 v=0
51169 On ch=1 n=c#7 v=0
51176 On ch=1 n=c#4 v=32
51185 On ch=1 n=c#4 v=0
51205 On ch=1 n=b6 v=73
51211 On ch=1 n=d#6 v=45
51214 Par ch=1 c=64 v=72
51218 Par ch=1 c=64 v=0
51222 On ch=1 n=e3 v=45
51236 On ch=1 n=e3 v=0
51243 Par ch=1 c=64 v=127
51244 On ch=1 n=b3 v=51
51247 On ch=1 n=b6 v=0
51253 On ch=1 n=d#6 v=0
51257 On ch=1 n=d#4 v=57
51258 On ch=1 n=b3 v=0
51265 On ch=1 n=g6 v=79
51270 On ch=1 n=b5 v=51
51277 On ch=1 n=d#4 v=0
51282 On ch=1 n=b5 v=0
51285 On ch=1 n=g4 v=52
51293 On ch=1 n=g4 v=0
51305 On ch=1 n=g6 v=0
51313 On ch=1 n=b4 v=57
51319 On ch=1 n=b6 v=82
51320 On ch=1 n=d#6 v=64
51340 On ch=1 n=b4 v=0
51344 On ch=1 n=d#5 v=45
51351 On ch=1 n=b6 v=0
51359 On ch=1 n=d#6 v=0
51363 On ch=1 n=d#5 v=0
51375 On ch=1 n=g6 v=79
51375 On ch=1 n=b5 v=54
51377 On ch=1 n=g5 v=54
51389 On ch=1 n=b5 v=0
51398 On ch=1 n=g5 v=0
51403 On ch=1 n=d#5 v=43
51423 On ch=1 n=d#5 v=0
51423 On ch=1 n=g6 v=0
51428 On ch=1 n=b4 v=36
51436 On ch=1 n=g5 v=41
51438 On ch=1 n=b4 v=0
51442 On ch=1 n=d#6 v=44
51447 On ch=1 n=g5 v=0
51466 On ch=1 n=g4 v=24
51471 On ch=1 n=d#6 v=0
51483 On ch=1 n=g4 v=0
51489 On ch=1 n=d#4 v=39
51491 On ch=1 n=b6 v=71
51493 On ch=1 n=d#6 v=38
51515 On ch=1 n=d#4 v=0
51522 On ch=1 n=b3 v=33
51523 On ch=1 n=b6 v=0
51525 On ch=1 n=d#6 v=0
51529 On ch=1 n=b3 v=0
51573 On ch=1 n=c#7 v=65
51583 On ch=1 n=e3 v=47
51583 On ch=1 n=e6 v=29
51594 Par ch=1 c=64 v=88
51599 Par ch=1 c=64 v=0
51625 On ch=1 n=c#4 v=51
51627 Par ch=1 c=64 v=127
51631 On ch=1 n=e3 v=0
51637 On ch=1 n=e6 v=0
51640 On ch=1 n=c#7 v=0
51642 On ch=1 n=c#4 v=0
51650 On ch=1 n=e4 v=48
51650 On ch=1 n=g#6 v=68
51659 On ch=1 n=e4 v=0
51685 On ch=1 n=g#6 v=0
51686 On ch=1 n=g#4 v=38
51707 On ch=1 n=c#7 v=69
51710 On ch=1 n=g#4 v=0
51710 On ch=1 n=c#5 v=54
51716 On ch=1 n=e6 v=44
51727 On ch=1 n=c#5 v=0
51728 On ch=1 n=e6 v=0
51742 On ch=1 n=e5 v=34
51751 On ch=1 n=c#7 v=0
51754 On ch=1 n=e5 v=0
51766 On ch=1 n=g#6 v=69
51768 On ch=1 n=c#6 v=43
51778 On ch=1 n=c#6 v=0
51795 On ch=1 n=e5 v=53
51800 On ch=1 n=g#6 v=0
51808 On ch=1 n=e5 v=0
51822 On ch=1 n=c#5 v=38
51830 On ch=1 n=e6 v=61
51831 On ch=1 n=g#5 v=25
51839 On ch=1 n=g#5 v=0
51841 On ch=1 n=c#5 v=0
51841 On ch=1 n=g#4 v=42
51858 On ch=1 n=g#4 v=0
51870 On ch=1 n=e6 v=0
51880 On ch=1 n=e4 v=31
51884 On ch=1 n=g#6 v=67
51898 On ch=1 n=c#4 v=54
51904 On ch=1 n=e4 v=0
51919 On ch=1 n=g#6 v=0
51929 On ch=1 n=c#4 v=0
51958 On ch=1 n=a6 v=68
51961 On ch=1 n=c#6 v=39
51967 On ch=1 n=e3 v=44
51975 Par ch=1 c=64 v=88
51979 Par ch=1 c=64 v=0
52003 Par ch=1 c=64 v=127
52008 On ch=1 n=b3 v=46
52016 On ch=1 n=c#6 v=0
52023 On ch=1 n=e3 v=0
52031 On ch=1 n=b3 v=0
52031 On ch=1 n=a5 v=55
52032 On ch=1 n=e4 v=51
52035 On ch=1 n=e6 v=64
52041 On ch=1 n=e4 v=0
52042 On ch=1 n=a5 v=0
52054 On ch=1 n=e6 v=0
52061 On ch=1 n=a6 v=0
52071 On ch=1 n=a4 v=57
52091 On ch=1 n=c#7 v=75
52091 On ch=1 n=e6 v=58
52095 On ch=1 n=a4 v=0
52096 On ch=1 n=c#5 v=54
52107 On ch=1 n=e6 v=0
52122 On ch=1 n=c#5 v=0
52123 On ch=1 n=c#7 v=0
52129 On ch=1 n=e5 v=59
52145 On ch=1 n=e7 v=88
52147 On ch=1 n=e5 v=0
52151 On ch=1 n=a6 v=63
52155 On ch=1 n=a5 v=56
52178 On ch=1 n=a6 v=0
52179 On ch=1 n=a5 v=0
52181 On ch=1 n=e5 v=47
52191 On ch=1 n=e7 v=0
52192 On ch=1 n=e5 v=0
52197 On ch=1 n=c#5 v=60
52203 On ch=1 n=c#7 v=80
52209 On ch=1 n=e6 v=49
52213 On ch=1 n=c#5 v=0
52216 On ch=1 n=e6 v=0
52230 On ch=1 n=a4 v=63
52239 On ch=1 n=a4 v=0
52239 On ch=1 n=c#7 v=0
52251 On ch=1 n=e4 v=63
52257 On ch=1 n=f#7 v=87
52259 On ch=1 n=a6 v=78
52269 On ch=1 n=a6 v=0
52276 On ch=1 n=e4 v=0
52281 On ch=1 n=f#7 v=0
52282 On ch=1 n=b3 v=65
52289 On ch=1 n=b3 v=0
52332 On ch=1 n=g#7 v=92
52341 On ch=1 n=c#7 v=44
52353 On ch=1 n=e3 v=52
52356 Par ch=1 c=64 v=104
52360 Par ch=1 c=64 v=0
52382 On ch=1 n=c#4 v=50
52384 Par ch=1 c=64 v=127
52387 On ch=1 n=e3 v=0
52389 On ch=1 n=g#7 v=0
52390 On ch=1 n=c#7 v=0
52397 On ch=1 n=c#4 v=0
52399 On ch=1 n=e4 v=32
52404 On ch=1 n=e7 v=85
52406 On ch=1 n=g#6 v=71
52408 On ch=1 n=e4 v=0
52437 On ch=1 n=g#4 v=45
52441 On ch=1 n=e7 v=0
52445 On ch=1 n=g#4 v=0
52446 On ch=1 n=g#6 v=0
52453 On ch=1 n=g#7 v=84
52458 On ch=1 n=c#7 v=68
52460 On ch=1 n=c#5 v=62
52474 On ch=1 n=c#7 v=0
52474 On ch=1 n=g#7 v=0
52476 On ch=1 n=c#5 v=0
52484 On ch=1 n=e5 v=42
52501 On ch=1 n=e5 v=0
52511 On ch=1 n=e7 v=78
52512 On ch=1 n=g#5 v=56
52518 On ch=1 n=g#6 v=62
52521 On ch=1 n=g#5 v=0
52535 On ch=1 n=e7 v=0
52539 On ch=1 n=e5 v=59
52549 On ch=1 n=g#6 v=0
52550 On ch=1 n=e5 v=0
52560 On ch=1 n=c#5 v=43
52567 On ch=1 n=e6 v=47
52581 On ch=1 n=c#5 v=0
52587 On ch=1 n=e6 v=0
52623 On ch=1 n=c#7 v=73
52625 On ch=1 n=e4 v=35
52629 On ch=1 n=e6 v=60
52633 On ch=1 n=e4 v=0
52637 On ch=1 n=e6 v=0
52641 On ch=1 n=c#4 v=61
52648 On ch=1 n=c#7 v=0
52672 On ch=1 n=c#4 v=0
52693 On ch=1 n=b6 v=70
52695 On ch=1 n=e3 v=53
52699 On ch=1 n=d#6 v=44
52703 Par ch=1 c=64 v=72
52708 Par ch=1 c=64 v=0
52724 On ch=1 n=e3 v=0
52732 Par ch=1 c=64 v=127
52735 On ch=1 n=b3 v=42
52738 On ch=1 n=b6 v=0
52747 On ch=1 n=d#6 v=0
52751 On ch=1 n=d#4 v=62
52752 On ch=1 n=b3 v=0
52759 On ch=1 n=g6 v=69
52761 On ch=1 n=b5 v=53
52772 On ch=1 n=d#4 v=0
52778 On ch=1 n=b5 v=0
52796 On ch=1 n=g6 v=0
52806 On ch=1 n=b4 v=62
52806 On ch=1 n=b6 v=74
52809 On ch=1 n=d#6 v=49
52825 On ch=1 n=b4 v=0
52834 On ch=1 n=d#5 v=50
52836 On ch=1 n=b6 v=0
52848 On ch=1 n=d#6 v=0
52856 On ch=1 n=d#5 v=0
52860 On ch=1 n=g6 v=75
52865 On ch=1 n=g5 v=55
52865 On ch=1 n=b5 v=40
52874 On ch=1 n=b5 v=0
52886 On ch=1 n=g5 v=0
52889 On ch=1 n=d#5 v=40
52907 On ch=1 n=d#5 v=0
52912 On ch=1 n=b4 v=33
52914 On ch=1 n=g5 v=44
52918 On ch=1 n=d#6 v=47
52922 On ch=1 n=b4 v=0
52922 On ch=1 n=g6 v=0
52924 On ch=1 n=g5 v=0
52941 On ch=1 n=d#6 v=0
52943 On ch=1 n=g4 v=52
52955 On ch=1 n=g4 v=0
52964 On ch=1 n=d#4 v=53
52970 On ch=1 n=b6 v=63
52970 On ch=1 n=d#6 v=49
52991 On ch=1 n=d#4 v=0
52998 On ch=1 n=b3 v=55
52999 On ch=1 n=b6 v=0
53000 On ch=1 n=d#6 v=0
53008 On ch=1 n=b3 v=0
53048 On ch=1 n=c#7 v=69
53055 On ch=1 n=e6 v=60
53056 On ch=1 n=e3 v=45
53068 Par ch=1 c=64 v=72
53072 Par ch=1 c=64 v=0
53096 On ch=1 n=c#4 v=54
53099 Par ch=1 c=64 v=127
53103 On ch=1 n=e3 v=0
53108 On ch=1 n=e6 v=0
53110 On ch=1 n=c#7 v=0
53113 On ch=1 n=c#4 v=0
53117 On ch=1 n=e4 v=47
53122 On ch=1 n=g#6 v=64
53122 On ch=1 n=c#6 v=53
53130 On ch=1 n=e4 v=0
53142 On ch=1 n=c#6 v=0
53157 On ch=1 n=g#4 v=42
53162 On ch=1 n=g#6 v=0
53177 On ch=1 n=c#7 v=69
53178 On ch=1 n=g#4 v=0
53183 On ch=1 n=c#5 v=46
53184 On ch=1 n=e6 v=69
53198 On ch=1 n=c#5 v=0
53208 On ch=1 n=e5 v=39
53218 On ch=1 n=e6 v=0
53222 On ch=1 n=c#7 v=0
53231 On ch=1 n=e5 v=0
53233 On ch=1 n=g#6 v=72
53234 On ch=1 n=c#6 v=43
53250 On ch=1 n=c#6 v=0
53266 On ch=1 n=e5 v=26
53273 On ch=1 n=g#6 v=0
53275 On ch=1 n=e5 v=0
53286 On ch=1 n=c#5 v=44
53291 On ch=1 n=e6 v=68
53292 On ch=1 n=g#5 v=29
53300 On ch=1 n=g#5 v=0
53309 On ch=1 n=c#5 v=0
53312 On ch=1 n=g#4 v=50
53326 On ch=1 n=g#4 v=0
53326 On ch=1 n=e6 v=0
53345 On ch=1 n=g#6 v=75
53352 On ch=1 n=c#6 v=36
53366 On ch=1 n=c#6 v=0
53370 On ch=1 n=c#4 v=49
53390 On ch=1 n=g#6 v=0
53406 On ch=1 n=c#4 v=0
53410 On ch=1 n=c#7 v=79
53411 Par ch=1 c=64 v=88
53414 Par ch=1 c=64 v=24
53416 On ch=1 n=e6 v=73
53416 On ch=1 n=d#3 v=50
53419 Par ch=1 c=64 v=0
53435 Par ch=1 c=64 v=72
53439 Par ch=1 c=64 v=127
53443 On ch=1 n=d#3 v=0
53443 On ch=1 n=c#4 v=56
53449 On ch=1 n=e6 v=0
53455 On ch=1 n=c#4 v=0
53457 On ch=1 n=e4 v=59
53460 On ch=1 n=c#7 v=0
53466 On ch=1 n=e4 v=0
53470 On ch=1 n=g#6 v=74
53474 On ch=1 n=c#6 v=49
53493 On ch=1 n=c#6 v=0
53496 On ch=1 n=g#4 v=34
53504 On ch=1 n=a#4 v=44
53509 On ch=1 n=g#4 v=0
53513 On ch=1 n=g#6 v=0
53523 On ch=1 n=a#4 v=0
53525 On ch=1 n=c#7 v=80
53526 On ch=1 n=c#5 v=67
53529 On ch=1 n=e6 v=78
53540 On ch=1 n=c#5 v=0
53548 On ch=1 n=e6 v=0
53550 On ch=1 n=e5 v=58
53562 On ch=1 n=c#7 v=0
53569 On ch=1 n=e5 v=0
53580 On ch=1 n=a#6 v=81
53580 On ch=1 n=g#5 v=60
53585 On ch=1 n=e6 v=73
53590 On ch=1 n=g#5 v=0
53606 On ch=1 n=e5 v=63
53618 On ch=1 n=e6 v=0
53627 On ch=1 n=a#6 v=0
53629 On ch=1 n=e5 v=0
53630 On ch=1 n=c#5 v=65
53638 On ch=1 n=a#5 v=39
53639 On ch=1 n=g#6 v=70
53650 On ch=1 n=a#5 v=0
53654 On ch=1 n=c#5 v=0
53662 On ch=1 n=g#4 v=62
53672 On ch=1 n=g#4 v=0
53676 On ch=1 n=g#6 v=0
53688 On ch=1 n=c#7 v=91
53691 On ch=1 n=e6 v=72
53692 On ch=1 n=e4 v=70
53698 On ch=1 n=e6 v=0
53703 On ch=1 n=e4 v=0
53711 On ch=1 n=c#7 v=0
53748 On ch=1 n=d#7 v=90
53751 On ch=1 n=g#3 v=62
53753 On ch=1 n=g#6 v=64
53755 Par ch=1 c=64 v=88
53760 Par ch=1 c=64 v=0
53777 On ch=1 n=g#3 v=0
53780 Par ch=1 c=64 v=104
53781 On ch=1 n=d#4 v=58
53784 Par ch=1 c=64 v=127
53792 On ch=1 n=d#7 v=0
53794 On ch=1 n=g#6 v=0
53802 On ch=1 n=d#4 v=0
53804 On ch=1 n=g#4 v=67
53807 On ch=1 n=b6 v=86
53808 On ch=1 n=d#6 v=71
53820 On ch=1 n=g#4 v=0
53823 On ch=1 n=b4 v=51
53833 On ch=1 n=b4 v=0
53843 On ch=1 n=b6 v=0
53844 On ch=1 n=d#6 v=0
53849 On ch=1 n=d#5 v=71
53853 On ch=1 n=d#7 v=74
53854 On ch=1 n=g#6 v=72
53869 On ch=1 n=d#7 v=0
53869 On ch=1 n=d#5 v=0
53870 On ch=1 n=g#6 v=0
53880 On ch=1 n=g#5 v=75
53909 On ch=1 n=b6 v=87
53911 On ch=1 n=d#6 v=74
53933 On ch=1 n=g#5 v=0
53942 On ch=1 n=d#5 v=49
53963 On ch=1 n=b4 v=55
53965 On ch=1 n=d#5 v=0
53967 On ch=1 n=b6 v=0
53971 On ch=1 n=b4 v=0
53974 On ch=1 n=b5 v=64
53976 On ch=1 n=d#6 v=0
53984 On ch=1 n=b5 v=0
53998 On ch=1 n=g#4 v=40
54019 On ch=1 n=g#4 v=0
54019 On ch=1 n=g#6 v=96
54021 On ch=1 n=g#5 v=70
54021 On ch=1 n=d#4 v=53
54030 On ch=1 n=g#5 v=0
54040 On ch=1 n=d#4 v=0
54041 On ch=1 n=g#6 v=0
54080 On ch=1 n=c#7 v=87
54084 Par ch=1 c=64 v=104
54085 On ch=1 n=e6 v=86
54087 On ch=1 n=d#3 v=62
54088 Par ch=1 c=64 v=0
54108 Par ch=1 c=64 v=127
54114 On ch=1 n=c#4 v=52
54115 On ch=1 n=c#7 v=0
54119 On ch=1 n=d#3 v=0
54125 On ch=1 n=e6 v=0
54129 On ch=1 n=c#4 v=0
54131 On ch=1 n=e4 v=45
54141 On ch=1 n=g#5 v=65
54142 On ch=1 n=e4 v=0
54166 On ch=1 n=g#4 v=42
54169 On ch=1 n=g#5 v=0
54181 On ch=1 n=a#4 v=37
54183 On ch=1 n=g#4 v=0
54187 On ch=1 n=g#6 v=88
54189 On ch=1 n=c#6 v=73
54200 On ch=1 n=c#5 v=68
54202 On ch=1 n=a#4 v=0
54204 On ch=1 n=c#6 v=0
54211 On ch=1 n=g#6 v=0
54217 On ch=1 n=c#5 v=0
54227 On ch=1 n=e5 v=49
54242 On ch=1 n=a#6 v=93
54247 On ch=1 n=e5 v=0
54247 On ch=1 n=e6 v=82
54249 On ch=1 n=g#5 v=67
54254 On ch=1 n=e6 v=0
54264 On ch=1 n=g#5 v=0
54276 On ch=1 n=e5 v=70
54286 On ch=1 n=a#5 v=77
54294 On ch=1 n=c#5 v=67
54295 On ch=1 n=e5 v=0
54303 On ch=1 n=a#5 v=0
54305 On ch=1 n=a#6 v=0
54316 On ch=1 n=c#5 v=0
54319 On ch=1 n=g#4 v=60
54337 On ch=1 n=g#4 v=0
54340 On ch=1 n=c#7 v=96
54344 On ch=1 n=c#6 v=80
54353 On ch=1 n=c#6 v=0
54363 On ch=1 n=c#7 v=0
54385 On ch=1 n=d#4 v=30
54396 On ch=1 n=d#4 v=0
54400 Par ch=1 c=64 v=88
54400 On ch=1 n=d#7 v=93
54404 On ch=1 n=g#6 v=80
54404 Par ch=1 c=64 v=0
54406 On ch=1 n=g#3 v=67
54424 Par ch=1 c=64 v=127
54426 On ch=1 n=g#3 v=0
54432 On ch=1 n=d#4 v=54
54442 On ch=1 n=g#6 v=0
54443 On ch=1 n=d#7 v=0
54452 On ch=1 n=d#4 v=0
54456 On ch=1 n=b6 v=84
54456 On ch=1 n=g#4 v=58
54456 On ch=1 n=d#6 v=80
54464 On ch=1 n=g#4 v=0
54469 On ch=1 n=b4 v=47
54485 On ch=1 n=b4 v=0
54496 On ch=1 n=b6 v=0
54497 On ch=1 n=d#5 v=74
54498 On ch=1 n=d#6 v=0
54506 On ch=1 n=d#7 v=78
54510 On ch=1 n=g#6 v=69
54518 On ch=1 n=d#5 v=0
54522 On ch=1 n=d#7 v=0
54526 On ch=1 n=g#6 v=0
54526 On ch=1 n=g#5 v=77
54546 On ch=1 n=g#5 v=0
54561 On ch=1 n=b6 v=93
54562 On ch=1 n=d#6 v=81
54592 On ch=1 n=g#5 v=56
54607 On ch=1 n=g#5 v=0
54611 On ch=1 n=b6 v=0
54614 On ch=1 n=d#5 v=54
54624 On ch=1 n=b5 v=74
54632 On ch=1 n=d#5 v=0
54636 On ch=1 n=b4 v=27
54639 On ch=1 n=b5 v=0
54643 On ch=1 n=b4 v=0
54662 On ch=1 n=g#4 v=57
54663 On ch=1 n=d#6 v=0
54678 On ch=1 n=g#5 v=80
54680 On ch=1 n=g#6 v=97
54682 On ch=1 n=d#6 v=67
54688 On ch=1 n=d#6 v=0
54689 On ch=1 n=g#5 v=0
54694 On ch=1 n=g#4 v=0
54697 On ch=1 n=d#4 v=45
54701 On ch=1 n=g#6 v=0
54705 On ch=1 n=d#4 v=0
54776 On ch=1 n=g#7 v=110
54779 On ch=1 n=g#6 v=87
54780 Par ch=1 c=64 v=56
54780 On ch=1 n=d#7 v=78
54784 Par ch=1 c=64 v=0
54785 On ch=1 n=b2 v=63
54808 Par ch=1 c=64 v=72
54812 Par ch=1 c=64 v=127
54817 On ch=1 n=b2 v=0
54819 On ch=1 n=b3 v=76
54826 On ch=1 n=b3 v=0
54859 On ch=1 n=f#4 v=53
54894 On ch=1 n=a4 v=55
54896 On ch=1 n=f#4 v=0
54922 On ch=1 n=a4 v=0
54925 On ch=1 n=b4 v=59
54945 On ch=1 n=b4 v=0
54947 On ch=1 n=g#6 v=0
54949 On ch=1 n=d#5 v=60
54964 On ch=1 n=g#7 v=0
54966 On ch=1 n=d#5 v=0
54976 On ch=1 n=d#7 v=0
54987 On ch=1 n=f#7 v=88
54991 On ch=1 n=f#6 v=73
54995 On ch=1 n=a5 v=51
55016 On ch=1 n=a5 v=0
55038 On ch=1 n=f#6 v=0
55100 On ch=1 n=f#7 v=0
55121 On ch=1 n=g#7 v=97
55123 On ch=1 n=g#6 v=78
55146 On ch=1 n=g#7 v=0
55152 On ch=1 n=g#6 v=0
55210 On ch=1 n=d#7 v=95
55212 On ch=1 n=d#6 v=80
55215 On ch=1 n=a6 v=74
55215 Par ch=1 c=64 v=0
55219 On ch=1 n=c#3 v=62
55244 On ch=1 n=c#3 v=0
55248 Par ch=1 c=64 v=127
55254 On ch=1 n=a3 v=58
55284 On ch=1 n=a3 v=0
55284 On ch=1 n=b3 v=60
55303 On ch=1 n=b3 v=0
55310 On ch=1 n=e4 v=53
55318 On ch=1 n=e4 v=0
55335 On ch=1 n=a6 v=0
55336 On ch=1 n=a4 v=62
55342 On ch=1 n=a4 v=0
55366 On ch=1 n=d#6 v=0
55377 On ch=1 n=b4 v=67
55399 On ch=1 n=d#7 v=0
55421 On ch=1 n=c#7 v=88
55424 On ch=1 n=c#6 v=77
55430 On ch=1 n=e5 v=43
55449 Par ch=1 c=64 v=104
55453 Par ch=1 c=64 v=24
55457 Par ch=1 c=64 v=0
55465 Par ch=1 c=64 v=40
55469 Par ch=1 c=64 v=127
55476 On ch=1 n=c#6 v=0
55483 On ch=1 n=b4 v=0
55487 On ch=1 n=e5 v=0
55554 On ch=1 n=c#7 v=0
55556 On ch=1 n=d#7 v=83
55560 On ch=1 n=d#6 v=74
55576 On ch=1 n=d#6 v=0
55581 On ch=1 n=d#7 v=0
55644 On ch=1 n=g#6 v=74
55645 On ch=1 n=d#6 v=62
55646 On ch=1 n=g#5 v=58
55654 On ch=1 n=d#3 v=40
55663 Par ch=1 c=64 v=40
55666 Par ch=1 c=64 v=0
55687 Par ch=1 c=64 v=56
55691 Par ch=1 c=64 v=127
55698 On ch=1 n=d#3 v=0
55698 On ch=1 n=a3 v=49
55730 On ch=1 n=a3 v=0
55730 On ch=1 n=b3 v=46
55744 On ch=1 n=b3 v=0
55752 On ch=1 n=d#4 v=57
55759 On ch=1 n=d#4 v=0
55788 On ch=1 n=f#4 v=47
55829 On ch=1 n=a4 v=52
55831 On ch=1 n=g#5 v=0
55852 On ch=1 n=g#6 v=0
55874 On ch=1 n=a4 v=0
55879 On ch=1 n=b4 v=43
55883 On ch=1 n=f#6 v=73
55885 On ch=1 n=f#5 v=50
55921 Par ch=1 c=64 v=88
55925 Par ch=1 c=64 v=40
55929 Par ch=1 c=64 v=0
55933 Par ch=1 c=64 v=24
55936 On ch=1 n=f#5 v=0
55937 Par ch=1 c=64 v=88
55941 Par ch=1 c=64 v=127
55950 On ch=1 n=b4 v=0
55955 On ch=1 n=f#4 v=0
56003 On ch=1 n=f#6 v=0
56038 On ch=1 n=g#6 v=74
56044 On ch=1 n=g#5 v=47
56054 On ch=1 n=d#6 v=0
56064 On ch=1 n=g#5 v=0
56064 On ch=1 n=g#6 v=0
56139 On ch=1 n=d#6 v=73
56142 On ch=1 n=d#5 v=47
56145 On ch=1 n=g#5 v=47
56146 On ch=1 n=e3 v=38
56155 Par ch=1 c=64 v=88
56159 Par ch=1 c=64 v=0
56187 Par ch=1 c=64 v=127
56191 On ch=1 n=b3 v=44
56201 On ch=1 n=e3 v=0
56211 On ch=1 n=b3 v=0
56227 On ch=1 n=e4 v=32
56261 On ch=1 n=e4 v=0
56261 On ch=1 n=g#4 v=56
56298 On ch=1 n=g#4 v=0
56300 On ch=1 n=b4 v=49
56307 On ch=1 n=d#5 v=0
56309 On ch=1 n=d#6 v=0
56367 On ch=1 n=c#6 v=60
56369 On ch=1 n=c#5 v=42
56402 Par ch=1 c=64 v=88
56406 Par ch=1 c=64 v=40
56414 Par ch=1 c=64 v=88
56418 Par ch=1 c=64 v=127
56436 On ch=1 n=b4 v=0
56477 On ch=1 n=g#5 v=0
56482 On ch=1 n=c#6 v=0
56492 On ch=1 n=c#5 v=0
56539 On ch=1 n=b5 v=56
56543 On ch=1 n=b4 v=40
56555 Par ch=1 c=64 v=40
56559 Par ch=1 c=64 v=0
56567 Par ch=1 c=64 v=24
56571 Par ch=1 c=64 v=88
56575 Par ch=1 c=64 v=127
56585 On ch=1 n=b4 v=0
56587 On ch=1 n=f3 v=39
56610 On ch=1 n=b5 v=0
56618 On ch=1 n=b3 v=24
56636 On ch=1 n=b5 v=66
56639 On ch=1 n=g#5 v=37
56639 On ch=1 n=g#4 v=27
56642 On ch=1 n=d5 v=31
56684 On ch=1 n=b5 v=0
56687 On ch=1 n=g#5 v=0
56689 On ch=1 n=d5 v=0
56765 On ch=1 n=a4 v=57
56791 On ch=1 n=g#4 v=0
56833 On ch=1 n=a4 v=0
56834 On ch=1 n=b4 v=61
56863 On ch=1 n=f3 v=0
56877 On ch=1 n=b4 v=0
56883 On ch=1 n=b3 v=0
56898 On ch=1 n=c#5 v=58
56957 On ch=1 n=c#5 v=0
56968 On ch=1 n=d5 v=66
56987 On ch=1 n=d5 v=0
57060 On ch=1 n=d#5 v=59
57068 On ch=1 n=f#3 v=32
57069 On ch=1 n=a4 v=30
57071 On ch=1 n=b3 v=30
57074 Par ch=1 c=64 v=104
57078 Par ch=1 c=64 v=40
57082 Par ch=1 c=64 v=0
57115 Par ch=1 c=64 v=72
57119 Par ch=1 c=64 v=127
57136 On ch=1 n=d#5 v=0
57144 On ch=1 n=a4 v=0
57197 On ch=1 n=g#5 v=61
57200 On ch=1 n=c#5 v=37
57273 On ch=1 n=c#5 v=0
57299 On ch=1 n=g#5 v=0
57339 On ch=1 n=f#3 v=0
57351 On ch=1 n=b3 v=0
57415 On ch=1 n=b5 v=68
57421 On ch=1 n=b4 v=41
57436 Par ch=1 c=64 v=40
57441 Par ch=1 c=64 v=0
57461 On ch=1 n=b4 v=0
57465 Par ch=1 c=64 v=104
57469 Par ch=1 c=64 v=127
57471 On ch=1 n=f3 v=41
57475 On ch=1 n=b5 v=0
57483 On ch=1 n=f3 v=0
57511 On ch=1 n=b3 v=44
57549 On ch=1 n=c#6 v=70
57557 On ch=1 n=d5 v=27
57560 On ch=1 n=g#5 v=31
57562 On ch=1 n=g#4 v=32
57622 On ch=1 n=g#5 v=0
57622 On ch=1 n=c#6 v=0
57629 On ch=1 n=d5 v=0
57688 On ch=1 n=g#4 v=0
57698 On ch=1 n=a4 v=43
57766 On ch=1 n=a4 v=0
57768 On ch=1 n=b4 v=59
57815 On ch=1 n=b4 v=0
57834 On ch=1 n=c#5 v=54
57863 On ch=1 n=b3 v=0
57898 On ch=1 n=c#5 v=0
57900 On ch=1 n=d5 v=63
57921 On ch=1 n=d5 v=0
57991 On ch=1 n=d#5 v=51
57997 On ch=1 n=b3 v=33
57997 On ch=1 n=a4 v=31
58007 Par ch=1 c=64 v=104
58011 Par ch=1 c=64 v=40
58015 Par ch=1 c=64 v=0
58051 Par ch=1 c=64 v=72
58055 Par ch=1 c=64 v=127
58057 On ch=1 n=a4 v=0
58078 On ch=1 n=d#5 v=0
58139 On ch=1 n=g#5 v=55
58146 On ch=1 n=c#5 v=27
58216 Par ch=1 c=64 v=72
58220 Par ch=1 c=64 v=0
58237 Par ch=1 c=64 v=72
58241 Par ch=1 c=64 v=127
58269 On ch=1 n=c#5 v=0
58288 On ch=1 n=g#5 v=0
58390 On ch=1 n=b5 v=49
58396 On ch=1 n=b4 v=30
58418 Par ch=1 c=64 v=88
58422 Par ch=1 c=64 v=24
58426 Par ch=1 c=64 v=0
58434 Par ch=1 c=64 v=40
58438 Par ch=1 c=64 v=88
58442 Par ch=1 c=64 v=127
58453 On ch=1 n=b4 v=0
58470 On ch=1 n=b3 v=0
58482 On ch=1 n=b5 v=0
58590 On ch=1 n=f#6 v=64
58600 On ch=1 n=a5 v=34
58606 On ch=1 n=b5 v=33
58606 On ch=1 n=e3 v=26
58612 Par ch=1 c=64 v=56
58616 Par ch=1 c=64 v=0
58640 Par ch=1 c=64 v=88
58644 Par ch=1 c=64 v=127
58652 On ch=1 n=a5 v=0
58654 On ch=1 n=f#6 v=0
58662 On ch=1 n=b5 v=0
58733 On ch=1 n=e6 v=68
58738 On ch=1 n=g#5 v=33
58742 On ch=1 n=b5 v=39
58754 On ch=1 n=b5 v=0
58759 On ch=1 n=e6 v=0
58774 On ch=1 n=g#5 v=0
58835 On ch=1 n=b5 v=59
58839 On ch=1 n=f#5 v=40
58839 On ch=1 n=g#5 v=35
58856 On ch=1 n=g#5 v=0
58858 On ch=1 n=f#5 v=0
58881 On ch=1 n=b5 v=0
58920 On ch=1 n=g#5 v=57
58923 On ch=1 n=e5 v=55
58933 On ch=1 n=e5 v=0
58942 On ch=1 n=g#5 v=0
58996 On ch=1 n=d#5 v=45
58998 On ch=1 n=e5 v=71
59023 On ch=1 n=e5 v=0
59023 On ch=1 n=d#5 v=0
59081 On ch=1 n=f#5 v=62
59083 On ch=1 n=c#5 v=44
59091 On ch=1 n=e5 v=33
59101 On ch=1 n=e5 v=0
59109 On ch=1 n=c#5 v=0
59113 On ch=1 n=f#5 v=0
59169 On ch=1 n=g#5 v=55
59172 On ch=1 n=c5 v=48
59176 On ch=1 n=e5 v=44
59177 Par ch=1 c=64 v=40
59181 Par ch=1 c=64 v=0
59201 On ch=1 n=c5 v=0
59201 Par ch=1 c=64 v=40
59205 Par ch=1 c=64 v=104
59209 Par ch=1 c=64 v=127
59215 On ch=1 n=e5 v=0
59222 On ch=1 n=g#5 v=0
59262 On ch=1 n=e5 v=66
59263 On ch=1 n=d#5 v=32
59266 Par ch=1 c=64 v=40
59269 Par ch=1 c=64 v=0
59285 On ch=1 n=e3 v=0
59286 Par ch=1 c=64 v=72
59290 Par ch=1 c=64 v=127
59297 On ch=1 n=d#5 v=0
59301 On ch=1 n=e5 v=0
59359 On ch=1 n=f#5 v=44
59363 On ch=1 n=c#5 v=26
59366 Par ch=1 c=64 v=104
59370 Par ch=1 c=64 v=40
59375 Par ch=1 c=64 v=0
59379 Par ch=1 c=64 v=24
59383 Par ch=1 c=64 v=72
59387 Par ch=1 c=64 v=127
59401 On ch=1 n=f#5 v=0
59405 On ch=1 n=c#5 v=0
59463 On ch=1 n=g#5 v=42
59463 On ch=1 n=c5 v=42
59467 Par ch=1 c=64 v=88
59468 On ch=1 n=e5 v=33
59471 Par ch=1 c=64 v=0
59488 Par ch=1 c=64 v=40
59491 On ch=1 n=c5 v=0
59492 Par ch=1 c=64 v=104
59496 Par ch=1 c=64 v=127
59510 On ch=1 n=e5 v=0
59511 On ch=1 n=g#5 v=0
59579 On ch=1 n=e5 v=52
59581 On ch=1 n=d#5 v=25
59583 On ch=1 n=b4 v=26
59593 Par ch=1 c=64 v=104
59597 Par ch=1 c=64 v=24
59601 Par ch=1 c=64 v=0
59621 Par ch=1 c=64 v=104
59625 Par ch=1 c=64 v=127
59635 On ch=1 n=d#5 v=0
59641 On ch=1 n=e5 v=0
59645 On ch=1 n=b4 v=0
59715 On ch=1 n=f#5 v=36
59717 On ch=1 n=c#5 v=20
59719 On ch=1 n=a4 v=30
59721 On ch=1 n=e5 v=29
59746 Par ch=1 c=64 v=104
59750 Par ch=1 c=64 v=40
59754 Par ch=1 c=64 v=0
59774 Par ch=1 c=64 v=72
59776 On ch=1 n=e5 v=0
59778 Par ch=1 c=64 v=127
59790 On ch=1 n=a4 v=0
59792 On ch=1 n=f#5 v=0
59796 On ch=1 n=c#5 v=0
59923 On ch=1 n=g#5 v=32
59923 On ch=1 n=g#4 v=25
59928 On ch=1 n=d#5 v=31
59928 On ch=1 n=g#3 v=27
59929 On ch=1 n=d#4 v=25
59955 Par ch=1 c=64 v=88
59959 Par ch=1 c=64 v=40
59963 Par ch=1 c=64 v=0
60004 Par ch=1 c=64 v=88
60007 Par ch=1 c=64 v=127
60213 On ch=1 n=g#4 v=0
60223 On ch=1 n=d#5 v=0
60238 On ch=1 n=g#5 v=0
60243 On ch=1 n=g#3 v=0
60259 On ch=1 n=d#4 v=0
60484 On ch=1 n=g#7 v=53
60487 On ch=1 n=d#7 v=37
60490 On ch=1 n=g#5 v=26
60490 On ch=1 n=g#6 v=31
60494 On ch=1 n=d#6 v=26
60576 On ch=1 n=f#7 v=59
60577 On ch=1 n=d#7 v=0
60583 On ch=1 n=d#6 v=0
60585 On ch=1 n=f#6 v=27
60642 On ch=1 n=f#7 v=0
60646 On ch=1 n=f#6 v=0
60657 On ch=1 n=d#7 v=60
60663 On ch=1 n=d#6 v=29
60727 On ch=1 n=d#7 v=0
60732 On ch=1 n=d#6 v=0
60738 On ch=1 n=f#7 v=51
60743 On ch=1 n=f#6 v=25
60799 On ch=1 n=f#7 v=0
60810 On ch=1 n=f#6 v=0
60829 On ch=1 n=e7 v=54
60837 On ch=1 n=e6 v=26
60879 Par ch=1 c=64 v=72
60883 Par ch=1 c=64 v=40
60887 Par ch=1 c=64 v=56
60891 Par ch=1 c=64 v=104
60895 Par ch=1 c=64 v=127
60959 On ch=1 n=e6 v=0
60961 On ch=1 n=e7 v=0
60992 On ch=1 n=c#7 v=46
61002 On ch=1 n=c#6 v=17
61065 On ch=1 n=c#7 v=0
61076 On ch=1 n=c#6 v=0
61076 On ch=1 n=e7 v=44
61084 On ch=1 n=e6 v=22
61098 On ch=1 n=e6 v=0
61131 On ch=1 n=e7 v=0
61166 On ch=1 n=d#7 v=55
61170 On ch=1 n=d#6 v=25
61206 Par ch=1 c=64 v=72
61210 Par ch=1 c=64 v=24
61214 Par ch=1 c=64 v=0
61223 Par ch=1 c=64 v=56
61227 Par ch=1 c=64 v=127
61259 On ch=1 n=d#7 v=0
61313 On ch=1 n=d#6 v=0
61317 On ch=1 n=g#5 v=0
61327 On ch=1 n=b6 v=42
61332 On ch=1 n=b5 v=30
61405 On ch=1 n=b6 v=0
61408 On ch=1 n=d#7 v=48
61415 On ch=1 n=d#6 v=27
61446 On ch=1 n=b5 v=0
61447 On ch=1 n=d#6 v=0
61488 On ch=1 n=d#7 v=0
61493 On ch=1 n=g#6 v=0
61497 On ch=1 n=c#7 v=49
61507 On ch=1 n=c#6 v=22
61650 On ch=1 n=c#6 v=0
61652 On ch=1 n=c#7 v=0
61667 On ch=1 n=a6 v=24
61674 On ch=1 n=g#7 v=0
61678 On ch=1 n=a5 v=21
61744 On ch=1 n=c#7 v=53
61744 On ch=1 n=c#6 v=23
61745 On ch=1 n=a6 v=0
61752 On ch=1 n=a5 v=0
61768 On ch=1 n=c#7 v=0
61768 On ch=1 n=c#6 v=0
61824 On ch=1 n=g#5 v=27
61824 Par ch=1 c=64 v=88
61826 On ch=1 n=g#6 v=36
61828 Par ch=1 c=64 v=24
61832 Par ch=1 c=64 v=0
61842 On ch=1 n=d#7 v=39
61844 Par ch=1 c=64 v=24
61848 Par ch=1 c=64 v=88
61849 On ch=1 n=d#6 v=28
61852 Par ch=1 c=64 v=127
61863 On ch=1 n=g#7 v=61
61864 On ch=1 n=g#6 v=0
61869 On ch=1 n=d#7 v=0
61870 On ch=1 n=g#5 v=0
61871 On ch=1 n=d#6 v=0
61879 On ch=1 n=g#7 v=0
62002 On ch=1 n=g#4 v=23
62024 On ch=1 n=g#5 v=28
62031 On ch=1 n=d#5 v=25
62045 On ch=1 n=d#6 v=40
62046 On ch=1 n=g#5 v=0
62053 On ch=1 n=g#4 v=0
62062 On ch=1 n=d#5 v=0
62063 On ch=1 n=g#6 v=53
62064 On ch=1 n=d#6 v=0
62080 On ch=1 n=g#6 v=0
62197 On ch=1 n=g#5 v=28
62214 On ch=1 n=g#6 v=31
62224 On ch=1 n=d#6 v=25
62234 On ch=1 n=d#7 v=37
62237 On ch=1 n=g#5 v=0
62246 On ch=1 n=d#6 v=0
62249 On ch=1 n=g#6 v=0
62254 On ch=1 n=g#7 v=65
62258 On ch=1 n=d#7 v=0
62269 On ch=1 n=g#7 v=0
62384 On ch=1 n=g#5 v=23
62384 On ch=1 n=g#4 v=22
62408 On ch=1 n=d#6 v=40
62419 On ch=1 n=d#5 v=19
62435 On ch=1 n=g#6 v=47
62442 On ch=1 n=g#4 v=0
62452 On ch=1 n=d#5 v=0
62624 On ch=1 n=g#6 v=0
62628 On ch=1 n=g#5 v=0
62629 On ch=1 n=d#6 v=0
62700 On ch=1 n=f#6 v=53
62708 On ch=1 n=f#5 v=35
62733 On ch=1 n=f#5 v=0
62745 On ch=1 n=f#6 v=0
62786 On ch=1 n=d#6 v=62
62792 On ch=1 n=d#5 v=27
62801 On ch=1 n=d#5 v=0
62820 On ch=1 n=d#6 v=0
62865 On ch=1 n=f#6 v=56
62865 On ch=1 n=f#5 v=34
62890 On ch=1 n=f#5 v=0
62890 On ch=1 n=f#6 v=0
62945 On ch=1 n=e6 v=56
62955 On ch=1 n=e5 v=22
62982 Par ch=1 c=64 v=72
62986 Par ch=1 c=64 v=0
63014 Par ch=1 c=64 v=72
63018 Par ch=1 c=64 v=127
63064 On ch=1 n=e6 v=0
63094 On ch=1 n=c#6 v=50
63095 On ch=1 n=e5 v=0
63101 On ch=1 n=c#5 v=31
63172 On ch=1 n=c#5 v=0
63183 On ch=1 n=e6 v=44
63188 On ch=1 n=e5 v=27
63192 On ch=1 n=c#6 v=0
63234 On ch=1 n=e6 v=0
63257 On ch=1 n=e5 v=0
63271 On ch=1 n=d#6 v=45
63279 On ch=1 n=d#5 v=22
63289 Par ch=1 c=64 v=104
63293 Par ch=1 c=64 v=40
63297 Par ch=1 c=64 v=0
63322 Par ch=1 c=64 v=56
63326 Par ch=1 c=64 v=127
63392 On ch=1 n=d#5 v=0
63396 On ch=1 n=d#6 v=0
63415 On ch=1 n=b5 v=40
63423 On ch=1 n=b4 v=25
63473 On ch=1 n=b5 v=0
63481 On ch=1 n=b4 v=0
63492 On ch=1 n=d#6 v=52
63502 On ch=1 n=d#5 v=23
63559 On ch=1 n=d#6 v=0
63569 On ch=1 n=c#6 v=48
63577 On ch=1 n=c#5 v=28
63578 On ch=1 n=d#5 v=0
63600 Par ch=1 c=64 v=104
63605 Par ch=1 c=64 v=40
63609 Par ch=1 c=64 v=0
63633 Par ch=1 c=64 v=72
63637 Par ch=1 c=64 v=127
63695 On ch=1 n=c#6 v=0
63701 On ch=1 n=c#5 v=0
63724 On ch=1 n=a5 v=41
63734 On ch=1 n=a4 v=19
63739 Par ch=1 c=64 v=56
63742 Par ch=1 c=64 v=0
63752 Par ch=1 c=64 v=72
63756 Par ch=1 c=64 v=127
63793 On ch=1 n=a5 v=0
63797 On ch=1 n=a4 v=0
63798 On ch=1 n=c#6 v=50
63803 On ch=1 n=c#5 v=25
63821 On ch=1 n=c#5 v=0
63821 On ch=1 n=c#6 v=0
63869 Par ch=1 c=64 v=56
63870 On ch=1 n=g#5 v=36
63871 On ch=1 n=g#4 v=33
63873 Par ch=1 c=64 v=0
63883 On ch=1 n=b4 v=28
63888 Par ch=1 c=64 v=56
63891 On ch=1 n=b5 v=28
63892 Par ch=1 c=64 v=127
63898 On ch=1 n=d#6 v=44
63898 On ch=1 n=d#5 v=27
63903 On ch=1 n=g#5 v=0
63906 On ch=1 n=b5 v=0
63910 On ch=1 n=g#6 v=56
63913 On ch=1 n=d#6 v=0
63924 On ch=1 n=b4 v=0
63933 On ch=1 n=d#5 v=0
63935 On ch=1 n=g#6 v=0
63941 On ch=1 n=g#4 v=0
64070 On ch=1 n=f4 v=32
64085 On ch=1 n=f4 v=0
64185 On ch=1 n=g#5 v=28
64195 Par ch=1 c=64 v=104
64200 Par ch=1 c=64 v=56
64204 Par ch=1 c=64 v=24
64204 On ch=1 n=g#4 v=28
64209 On ch=1 n=b5 v=34
64216 Par ch=1 c=64 v=88
64218 On ch=1 n=g#5 v=0
64218 On ch=1 n=b4 v=19
64219 On ch=1 n=d#6 v=48
64219 Par ch=1 c=64 v=127
64230 On ch=1 n=d#5 v=25
64234 On ch=1 n=b5 v=0
64239 On ch=1 n=g#6 v=60
64241 On ch=1 n=d#6 v=0
64243 On ch=1 n=b4 v=0
64251 On ch=1 n=g#4 v=0
64251 On ch=1 n=d#5 v=0
64255 On ch=1 n=g#6 v=0
64406 On ch=1 n=f4 v=24
64417 On ch=1 n=f4 v=0
64522 On ch=1 n=b4 v=33
64523 On ch=1 n=b5 v=29
64534 On ch=1 n=d#5 v=18
64537 On ch=1 n=d#6 v=47
64544 On ch=1 n=g#5 v=31
64545 On ch=1 n=b5 v=0
64553 On ch=1 n=g#6 v=46
64554 On ch=1 n=b4 v=0
64566 On ch=1 n=g#5 v=0
64567 On ch=1 n=d#5 v=0
64569 On ch=1 n=d#6 v=0
64574 On ch=1 n=b6 v=66
64580 On ch=1 n=g#6 v=0
64589 On ch=1 n=b6 v=0
64737 On ch=1 n=f4 v=27
64753 On ch=1 n=f4 v=0
64841 Par ch=1 c=64 v=88
64845 Par ch=1 c=64 v=56
64847 On ch=1 n=c#5 v=37
64857 Par ch=1 c=64 v=127
64862 On ch=1 n=c#6 v=34
64867 On ch=1 n=f5 v=39
64878 On ch=1 n=f5 v=0
64883 On ch=1 n=c#6 v=0
64887 On ch=1 n=c#5 v=0
64887 On ch=1 n=f6 v=32
64887 On ch=1 n=a#5 v=18
64894 On ch=1 n=a#6 v=46
64900 On ch=1 n=a#5 v=0
64908 On ch=1 n=f6 v=0
64917 On ch=1 n=c#7 v=62
64919 On ch=1 n=a#6 v=0
64933 On ch=1 n=c#7 v=0
65066 On ch=1 n=f4 v=24
65104 On ch=1 n=f4 v=0
65191 On ch=1 n=g#5 v=26
65193 On ch=1 n=g#4 v=30
65195 Par ch=1 c=64 v=56
65200 Par ch=1 c=64 v=0
65216 On ch=1 n=b5 v=32
65216 Par ch=1 c=64 v=40
65217 On ch=1 n=b4 v=22
65220 Par ch=1 c=64 v=127
65223 On ch=1 n=g#5 v=0
65224 On ch=1 n=d#5 v=40
65227 On ch=1 n=d#6 v=49
65229 On ch=1 n=b5 v=0
65234 On ch=1 n=b4 v=0
65243 On ch=1 n=d#5 v=0
65245 On ch=1 n=g#4 v=0
65245 On ch=1 n=g#6 v=62
65251 On ch=1 n=d#6 v=0
65263 On ch=1 n=g#6 v=0
65402 On ch=1 n=f4 v=30
65421 On ch=1 n=f4 v=0
65518 Par ch=1 c=64 v=88
65522 On ch=1 n=b4 v=29
65522 Par ch=1 c=64 v=24
65526 Par ch=1 c=64 v=0
65526 On ch=1 n=b5 v=37
65535 On ch=1 n=d#5 v=23
65538 Par ch=1 c=64 v=56
65538 On ch=1 n=g#5 v=40
65542 Par ch=1 c=64 v=127
65543 On ch=1 n=d#6 v=49
65551 On ch=1 n=b4 v=0
65555 On ch=1 n=b5 v=0
65561 On ch=1 n=d#5 v=0
65564 On ch=1 n=g#5 v=0
65565 On ch=1 n=g#6 v=48
65573 On ch=1 n=d#6 v=0
65580 On ch=1 n=b6 v=70
65583 On ch=1 n=g#6 v=0
65595 On ch=1 n=b6 v=0
65727 On ch=1 n=f4 v=47
65739 On ch=1 n=f4 v=0
65846 On ch=1 n=c#5 v=29
65851 On ch=1 n=c#6 v=35
65853 On ch=1 n=f5 v=29
65853 Par ch=1 c=64 v=104
65857 Par ch=1 c=64 v=40
65861 Par ch=1 c=64 v=0
65873 On ch=1 n=f6 v=45
65875 On ch=1 n=a#5 v=29
65877 Par ch=1 c=64 v=56
65881 On ch=1 n=a#6 v=52
65881 Par ch=1 c=64 v=127
65884 On ch=1 n=c#6 v=0
65894 On ch=1 n=c#5 v=0
65894 On ch=1 n=f5 v=0
65900 On ch=1 n=a#5 v=0
65906 On ch=1 n=f6 v=0
65912 On ch=1 n=c#7 v=60
65918 On ch=1 n=a#6 v=0
65936 On ch=1 n=c#7 v=0
66065 On ch=1 n=f4 v=22
66075 On ch=1 n=f4 v=0
66176 Par ch=1 c=64 v=104
66180 Par ch=1 c=64 v=40
66184 Par ch=1 c=64 v=0
66188 On ch=1 n=g#5 v=28
66188 On ch=1 n=d#5 v=14
66197 Par ch=1 c=64 v=24
66201 Par ch=1 c=64 v=88
66202 On ch=1 n=d#6 v=33
66205 Par ch=1 c=64 v=127
66209 On ch=1 n=b5 v=27
66223 On ch=1 n=g#6 v=36
66225 On ch=1 n=d#6 v=0
66227 On ch=1 n=b5 v=0
66228 On ch=1 n=d#5 v=0
66232 On ch=1 n=g#5 v=0
66238 On ch=1 n=b6 v=41
66252 On ch=1 n=g#6 v=0
66260 On ch=1 n=b6 v=0
66260 On ch=1 n=d#7 v=53
66276 On ch=1 n=d#7 v=0
66422 On ch=1 n=f4 v=27
66439 On ch=1 n=f4 v=0
66536 On ch=1 n=c#5 v=25
66539 Par ch=1 c=64 v=56
66544 Par ch=1 c=64 v=0
66546 On ch=1 n=e6 v=38
66558 On ch=1 n=g6 v=39
66559 On ch=1 n=c#5 v=0
66560 Par ch=1 c=64 v=40
66564 Par ch=1 c=64 v=104
66564 On ch=1 n=a#6 v=51
66568 Par ch=1 c=64 v=127
66571 On ch=1 n=e6 v=0
66572 On ch=1 n=a#5 v=27
66576 On ch=1 n=c#6 v=22
66581 On ch=1 n=g6 v=0
66589 On ch=1 n=e7 v=64
66591 On ch=1 n=a#6 v=0
66596 On ch=1 n=c#6 v=0
66596 On ch=1 n=a#5 v=0
66607 On ch=1 n=e7 v=0
66669 On ch=1 n=g7 v=66
66732 On ch=1 n=g7 v=0
66746 On ch=1 n=e7 v=62
66754 On ch=1 n=f4 v=34
66768 On ch=1 n=f4 v=0
66823 On ch=1 n=e7 v=0
66823 On ch=1 n=g7 v=73
66840 On ch=1 n=g7 v=0
66883 On ch=1 n=d5 v=29
66884 On ch=1 n=f5 v=24
66885 Par ch=1 c=64 v=56
66890 Par ch=1 c=64 v=0
66891 On ch=1 n=f6 v=59
66899 On ch=1 n=a5 v=24
66901 On ch=1 n=a6 v=44
66906 Par ch=1 c=64 v=56
66908 On ch=1 n=d7 v=62
66910 Par ch=1 c=64 v=127
66911 On ch=1 n=f5 v=0
66912 On ch=1 n=d5 v=0
66913 On ch=1 n=f6 v=0
66915 On ch=1 n=d6 v=26
66918 On ch=1 n=a6 v=0
66922 On ch=1 n=f7 v=70
66928 On ch=1 n=d7 v=0
66930 On ch=1 n=a5 v=0
66934 On ch=1 n=d6 v=0
66945 On ch=1 n=f7 v=0
67067 On ch=1 n=d7 v=60
67075 On ch=1 n=f4 v=38
67085 On ch=1 n=f4 v=0
67109 On ch=1 n=d7 v=0
67142 On ch=1 n=f7 v=64
67163 On ch=1 n=f7 v=0
67192 On ch=1 n=c5 v=23
67200 On ch=1 n=c5 v=0
67202 Par ch=1 c=64 v=88
67203 On ch=1 n=a4 v=24
67206 Par ch=1 c=64 v=24
67207 On ch=1 n=e6 v=36
67210 Par ch=1 c=64 v=0
67214 On ch=1 n=c5 v=24
67215 On ch=1 n=e5 v=24
67216 On ch=1 n=a6 v=51
67223 On ch=1 n=c7 v=60
67225 Par ch=1 c=64 v=24
67227 On ch=1 n=a5 v=34
67229 On ch=1 n=a4 v=0
67230 Par ch=1 c=64 v=104
67234 Par ch=1 c=64 v=127
67235 On ch=1 n=e6 v=0
67240 On ch=1 n=c5 v=0
67241 On ch=1 n=a6 v=0
67242 On ch=1 n=e7 v=64
67245 On ch=1 n=c7 v=0
67248 On ch=1 n=e5 v=0
67252 On ch=1 n=a5 v=0
67348 On ch=1 n=e7 v=0
67384 On ch=1 n=c7 v=62
67391 On ch=1 n=f4 v=35
67407 On ch=1 n=f4 v=0
67433 On ch=1 n=c7 v=0
67468 On ch=1 n=e7 v=64
67483 On ch=1 n=e7 v=0
67518 On ch=1 n=a#4 v=30
67521 Par ch=1 c=64 v=56
67524 Par ch=1 c=64 v=0
67530 On ch=1 n=d6 v=42
67531 On ch=1 n=d5 v=32
67538 On ch=1 n=f5 v=47
67541 Par ch=1 c=64 v=40
67545 On ch=1 n=f6 v=30
67545 Par ch=1 c=64 v=127
67547 On ch=1 n=a#4 v=0
67548 On ch=1 n=a#6 v=51
67549 On ch=1 n=d5 v=0
67551 On ch=1 n=d6 v=0
67553 On ch=1 n=a#5 v=27
67557 On ch=1 n=f6 v=0
67560 On ch=1 n=f5 v=0
67566 On ch=1 n=d7 v=67
67569 On ch=1 n=a#5 v=0
67570 On ch=1 n=a#6 v=0
67585 On ch=1 n=d7 v=0
67710 On ch=1 n=c7 v=60
67717 On ch=1 n=f4 v=36
67734 On ch=1 n=f4 v=0
67758 On ch=1 n=c7 v=0
67789 On ch=1 n=d7 v=59
67806 On ch=1 n=d7 v=0
67838 On ch=1 n=c#5 v=34
67839 Par ch=1 c=64 v=56
67843 Par ch=1 c=64 v=0
67849 On ch=1 n=e5 v=31
67849 On ch=1 n=e6 v=49
67853 On ch=1 n=c#5 v=0
67863 On ch=1 n=a#5 v=27
67863 Par ch=1 c=64 v=104
67864 On ch=1 n=c#7 v=48
67866 On ch=1 n=e5 v=0
67866 On ch=1 n=a#6 v=48
67867 On ch=1 n=e6 v=0
67867 Par ch=1 c=64 v=127
67872 On ch=1 n=c#6 v=37
67884 On ch=1 n=e7 v=66
67885 On ch=1 n=a#6 v=0
67888 On ch=1 n=c#6 v=0
67888 On ch=1 n=a#5 v=0
67891 On ch=1 n=c#7 v=0
67898 On ch=1 n=e7 v=0
67961 On ch=1 n=g7 v=62
68006 On ch=1 n=g7 v=0
68038 On ch=1 n=e7 v=66
68047 On ch=1 n=f4 v=29
68064 On ch=1 n=f4 v=0
68105 On ch=1 n=e7 v=0
68112 On ch=1 n=g7 v=71
68128 On ch=1 n=g7 v=0
68170 On ch=1 n=d5 v=35
68170 Par ch=1 c=64 v=88
68173 On ch=1 n=f5 v=32
68174 Par ch=1 c=64 v=24
68177 On ch=1 n=f6 v=47
68178 Par ch=1 c=64 v=0
68182 On ch=1 n=a6 v=43
68186 On ch=1 n=a5 v=37
68192 On ch=1 n=d7 v=47
68194 Par ch=1 c=64 v=24
68195 On ch=1 n=d5 v=0
68197 On ch=1 n=f5 v=0
68198 Par ch=1 c=64 v=104
68199 On ch=1 n=f6 v=0
68202 On ch=1 n=a6 v=0
68202 Par ch=1 c=64 v=127
68204 On ch=1 n=d7 v=0
68205 On ch=1 n=f7 v=69
68205 On ch=1 n=d6 v=31
68213 On ch=1 n=a5 v=0
68223 On ch=1 n=d6 v=0
68303 On ch=1 n=f7 v=0
68355 On ch=1 n=d7 v=62
68362 On ch=1 n=f4 v=42
68373 On ch=1 n=f4 v=0
68389 On ch=1 n=d7 v=0
68429 On ch=1 n=f7 v=66
68446 On ch=1 n=f7 v=0
68480 Par ch=1 c=64 v=104
68484 Par ch=1 c=64 v=24
68486 On ch=1 n=a4 v=19
68488 Par ch=1 c=64 v=0
68492 On ch=1 n=e6 v=36
68493 On ch=1 n=e5 v=35
68501 On ch=1 n=a6 v=47
68504 Par ch=1 c=64 v=56
68506 On ch=1 n=a4 v=0
68506 On ch=1 n=a5 v=44
68508 Par ch=1 c=64 v=127
68509 On ch=1 n=c7 v=56
68523 On ch=1 n=e6 v=0
68523 On ch=1 n=e5 v=0
68525 On ch=1 n=a6 v=0
68527 On ch=1 n=a5 v=0
68529 On ch=1 n=e7 v=68
68531 On ch=1 n=c7 v=0
68638 On ch=1 n=e7 v=0
68667 On ch=1 n=c7 v=62
68670 On ch=1 n=f4 v=32
68684 On ch=1 n=f4 v=0
68734 On ch=1 n=c7 v=0
68742 On ch=1 n=e7 v=64
68758 On ch=1 n=e7 v=0
68795 On ch=1 n=a#4 v=30
68807 On ch=1 n=d5 v=24
68808 On ch=1 n=d6 v=40
68818 On ch=1 n=f5 v=32
68819 Par ch=1 c=64 v=72
68821 On ch=1 n=f6 v=37
68823 Par ch=1 c=64 v=0
68826 On ch=1 n=d5 v=0
68827 On ch=1 n=a#6 v=43
68833 On ch=1 n=a#5 v=27
68842 On ch=1 n=d6 v=0
68843 On ch=1 n=d7 v=68
68847 On ch=1 n=a#6 v=0
68847 Par ch=1 c=64 v=88
68851 On ch=1 n=f6 v=0
68851 Par ch=1 c=64 v=127
68861 On ch=1 n=f5 v=0
68866 On ch=1 n=a#4 v=0
68866 On ch=1 n=d7 v=0
68869 On ch=1 n=a#5 v=0
68986 On ch=1 n=c6 v=58
68996 On ch=1 n=f4 v=14
69039 On ch=1 n=c6 v=0
69063 On ch=1 n=d6 v=60
69084 On ch=1 n=f4 v=0
69089 On ch=1 n=d6 v=0
69150 Par ch=1 c=64 v=72
69155 Par ch=1 c=64 v=0
69156 On ch=1 n=a6 v=56
69157 On ch=1 n=a5 v=41
69159 On ch=1 n=c5 v=28
69161 On ch=1 n=e6 v=44
69164 On ch=1 n=e5 v=18
69175 On ch=1 n=e6 v=0
69175 Par ch=1 c=64 v=56
69179 On ch=1 n=a5 v=0
69179 Par ch=1 c=64 v=127
69189 On ch=1 n=a6 v=0
69238 On ch=1 n=c7 v=62
69243 On ch=1 n=c6 v=35
69253 On ch=1 n=c7 v=0
69257 On ch=1 n=c6 v=0
69316 On ch=1 n=a6 v=60
69317 On ch=1 n=a5 v=55
69321 On ch=1 n=f4 v=41
69329 On ch=1 n=a5 v=0
69333 On ch=1 n=c5 v=0
69334 On ch=1 n=f4 v=0
69335 On ch=1 n=a6 v=0
69341 On ch=1 n=e5 v=0
69389 On ch=1 n=c7 v=72
69395 On ch=1 n=c6 v=39
69405 On ch=1 n=c6 v=0
69407 On ch=1 n=c7 v=0
69474 On ch=1 n=a6 v=68
69477 On ch=1 n=a5 v=42
69478 Par ch=1 c=64 v=104
69479 On ch=1 n=d#6 v=40
69482 On ch=1 n=d#5 v=36
69483 Par ch=1 c=64 v=24
69483 On ch=1 n=c5 v=40
69486 Par ch=1 c=64 v=0
69487 On ch=1 n=c6 v=22
69507 Par ch=1 c=64 v=72
69511 Par ch=1 c=64 v=127
69521 On ch=1 n=c6 v=0
69530 On ch=1 n=a6 v=0
69531 On ch=1 n=c5 v=0
69540 On ch=1 n=d#5 v=0
69544 On ch=1 n=a5 v=0
69549 On ch=1 n=d#6 v=0
69627 On ch=1 n=f6 v=67
69631 On ch=1 n=f5 v=33
69645 On ch=1 n=f4 v=15
69646 On ch=1 n=f5 v=0
69652 On ch=1 n=f6 v=0
69709 On ch=1 n=g6 v=64
69711 On ch=1 n=g5 v=46
69726 On ch=1 n=g5 v=0
69735 On ch=1 n=g6 v=0
69744 On ch=1 n=f4 v=0
69781 Par ch=1 c=64 v=104
69784 Par ch=1 c=64 v=24
69789 Par ch=1 c=64 v=0
69792 On ch=1 n=a6 v=52
69795 On ch=1 n=a5 v=40
69797 On ch=1 n=e6 v=44
69797 On ch=1 n=e5 v=29
69797 On ch=1 n=c5 v=31
69801 Par ch=1 c=64 v=40
69805 Par ch=1 c=64 v=127
69807 On ch=1 n=a5 v=0
69809 On ch=1 n=e6 v=0
69815 On ch=1 n=a6 v=0
69875 On ch=1 n=c7 v=75
69885 On ch=1 n=c6 v=34
69893 On ch=1 n=c7 v=0
69895 On ch=1 n=c6 v=0
69955 On ch=1 n=a6 v=66
69957 On ch=1 n=a5 v=40
69962 On ch=1 n=f4 v=32
69968 On ch=1 n=a5 v=0
69974 On ch=1 n=a6 v=0
69976 On ch=1 n=f4 v=0
69980 On ch=1 n=c5 v=0
69982 On ch=1 n=e5 v=0
70030 On ch=1 n=c7 v=73
70038 On ch=1 n=c6 v=24
70046 On ch=1 n=c6 v=0
70048 On ch=1 n=c7 v=0
70121 On ch=1 n=a6 v=71
70123 Par ch=1 c=64 v=56
70125 On ch=1 n=d#6 v=44
70127 On ch=1 n=d#5 v=42
70127 Par ch=1 c=64 v=0
70129 On ch=1 n=c5 v=40
70129 On ch=1 n=c6 v=42
70130 On ch=1 n=a5 v=28
70152 Par ch=1 c=64 v=127
70158 On ch=1 n=c6 v=0
70166 On ch=1 n=c5 v=0
70172 On ch=1 n=d#5 v=0
70177 On ch=1 n=a6 v=0
70183 On ch=1 n=d#6 v=0
70197 On ch=1 n=a5 v=0
70280 On ch=1 n=f5 v=63
70292 On ch=1 n=f4 v=32
70336 On ch=1 n=f4 v=0
70360 On ch=1 n=f5 v=0
70361 On ch=1 n=g5 v=70
70386 On ch=1 n=g5 v=0
70472 On ch=1 n=a5 v=69
70476 On ch=1 n=d5 v=42
70482 On ch=1 n=a#3 v=29
70483 On ch=1 n=f4 v=29
70487 Par ch=1 c=64 v=88
70491 Par ch=1 c=64 v=24
70495 Par ch=1 c=64 v=0
70531 Par ch=1 c=64 v=104
70535 Par ch=1 c=64 v=127
70567 On ch=1 n=a5 v=0
70567 On ch=1 n=c6 v=63
70631 On ch=1 n=c6 v=0
70639 On ch=1 n=a5 v=68
70717 On ch=1 n=a5 v=0
70717 On ch=1 n=c6 v=63
70754 On ch=1 n=d5 v=0
70759 On ch=1 n=c6 v=0
70803 On ch=1 n=a5 v=58
70811 On ch=1 n=c#5 v=37
70849 Par ch=1 c=64 v=56
70853 Par ch=1 c=64 v=0
70869 Par ch=1 c=64 v=24
70873 Par ch=1 c=64 v=104
70877 Par ch=1 c=64 v=127
70945 On ch=1 n=a5 v=0
70952 On ch=1 n=f5 v=49
71010 On ch=1 n=f5 v=0
71033 On ch=1 n=g5 v=52
71043 On ch=1 n=c#5 v=0
71090 On ch=1 n=g5 v=0
71119 On ch=1 n=a5 v=45
71125 On ch=1 n=c5 v=18
71136 Par ch=1 c=64 v=56
71140 Par ch=1 c=64 v=0
71168 Par ch=1 c=64 v=56
71172 Par ch=1 c=64 v=127
71179 On ch=1 n=a5 v=0
71253 On ch=1 n=c6 v=26
71282 On ch=1 n=c6 v=0
71291 On ch=1 n=c7 v=55
71307 On ch=1 n=c7 v=0
71367 On ch=1 n=c5 v=0
71451 On ch=1 n=c#5 v=36
71478 Par ch=1 c=64 v=56
71482 Par ch=1 c=64 v=0
71499 Par ch=1 c=64 v=56
71503 Par ch=1 c=64 v=127
71574 On ch=1 n=c#6 v=25
71608 On ch=1 n=c#7 v=48
71625 On ch=1 n=c#6 v=0
71631 On ch=1 n=c#7 v=0
71645 On ch=1 n=c#5 v=0
71652 On ch=1 n=f4 v=0
71664 On ch=1 n=a#3 v=0
71792 On ch=1 n=a5 v=59
71793 On ch=1 n=a#4 v=27
71793 Par ch=1 c=64 v=88
71797 Par ch=1 c=64 v=0
71798 On ch=1 n=d5 v=42
71808 On ch=1 n=d4 v=31
71813 On ch=1 n=g3 v=35
71821 Par ch=1 c=64 v=88
71825 Par ch=1 c=64 v=127
71831 On ch=1 n=d5 v=0
71836 On ch=1 n=a5 v=0
71836 On ch=1 n=a#4 v=0
71888 On ch=1 n=c6 v=67
71935 On ch=1 n=c6 v=0
71959 On ch=1 n=a5 v=66
72023 On ch=1 n=a5 v=0
72033 On ch=1 n=c6 v=66
72069 On ch=1 n=c6 v=0
72114 On ch=1 n=a5 v=62
72263 On ch=1 n=a5 v=0
72265 On ch=1 n=f5 v=57
72325 On ch=1 n=f5 v=0
72335 On ch=1 n=g5 v=69
72401 On ch=1 n=g5 v=0
72417 On ch=1 n=a5 v=55
72437 Par ch=1 c=64 v=104
72441 Par ch=1 c=64 v=40
72445 Par ch=1 c=64 v=0
72466 Par ch=1 c=64 v=104
72470 Par ch=1 c=64 v=127
72481 On ch=1 n=a5 v=0
72550 On ch=1 n=d6 v=27
72579 On ch=1 n=d7 v=54
72589 On ch=1 n=d6 v=0
72599 On ch=1 n=d7 v=0
72602 On ch=1 n=g3 v=0
72614 On ch=1 n=d4 v=0
72767 On ch=1 n=a5 v=53
72771 On ch=1 n=a#4 v=25
72774 On ch=1 n=c4 v=35
72775 On ch=1 n=e5 v=33
72785 Par ch=1 c=64 v=72
72789 Par ch=1 c=64 v=0
72817 Par ch=1 c=64 v=127
72825 On ch=1 n=e5 v=0
72839 On ch=1 n=a5 v=0
72920 On ch=1 n=e6 v=39
72957 On ch=1 n=e6 v=0
72963 On ch=1 n=e7 v=50
72975 On ch=1 n=e7 v=0
73015 On ch=1 n=c4 v=0
73017 On ch=1 n=a#4 v=0
73143 Par ch=1 c=64 v=88
73147 Par ch=1 c=64 v=0
73151 On ch=1 n=a4 v=39
73154 On ch=1 n=f3 v=28
73161 On ch=1 n=f4 v=30
73167 On ch=1 n=a4 v=0
73168 Par ch=1 c=64 v=104
73171 On ch=1 n=c5 v=41
73172 Par ch=1 c=64 v=127
73190 On ch=1 n=f5 v=51
73192 On ch=1 n=c5 v=0
73212 On ch=1 n=a5 v=59
73220 On ch=1 n=f5 v=0
73230 On ch=1 n=a5 v=0
73301 On ch=1 n=f6 v=65
73363 On ch=1 n=f6 v=0
73366 On ch=1 n=g6 v=72
73390 On ch=1 n=f3 v=0
73400 On ch=1 n=f4 v=0
73422 On ch=1 n=g6 v=0
73430 On ch=1 n=a6 v=72
73486 On ch=1 n=a6 v=0
73493 On ch=1 n=a#6 v=68
73544 On ch=1 n=a#6 v=0
73551 On ch=1 n=c7 v=76
73573 On ch=1 n=c7 v=0
73625 On ch=1 n=c7 v=71
73740 On ch=1 n=c7 v=0
73740 On ch=1 n=a6 v=65
73941 On ch=1 n=a6 v=0
73961 On ch=1 n=g6 v=59
74021 Par ch=1 c=64 v=72
74025 Par ch=1 c=64 v=0
74029 On ch=1 n=f4 v=34
74040 On ch=1 n=f4 v=0
74040 Par ch=1 c=64 v=56
74044 On ch=1 n=a4 v=29
74045 Par ch=1 c=64 v=127
74052 On ch=1 n=c#5 v=39
74057 On ch=1 n=g6 v=0
74061 On ch=1 n=a4 v=0
74065 On ch=1 n=f5 v=40
74069 On ch=1 n=a5 v=42
74073 On ch=1 n=c#5 v=0
74077 On ch=1 n=f5 v=0
74084 On ch=1 n=a5 v=0
74085 On ch=1 n=c#6 v=48
74110 On ch=1 n=a6 v=66
74111 On ch=1 n=c#6 v=0
74175 On ch=1 n=a6 v=0
74199 On ch=1 n=g6 v=63
74257 On ch=1 n=g6 v=0
74266 On ch=1 n=a6 v=63
74316 On ch=1 n=a6 v=0
74330 On ch=1 n=f6 v=69
74436 On ch=1 n=a6 v=59
74440 On ch=1 n=f6 v=0
74469 On ch=1 n=a6 v=0
74517 Par ch=1 c=64 v=104
74521 Par ch=1 c=64 v=24
74525 On ch=1 n=f4 v=18
74525 Par ch=1 c=64 v=0
74536 On ch=1 n=b4 v=27
74540 On ch=1 n=g5 v=42
74540 Par ch=1 c=64 v=40
74543 On ch=1 n=d5 v=41
74544 Par ch=1 c=64 v=127
74554 On ch=1 n=f4 v=0
74555 On ch=1 n=d5 v=0
74557 On ch=1 n=g5 v=0
74557 On ch=1 n=b4 v=0
74558 On ch=1 n=b5 v=22
74568 On ch=1 n=d6 v=56
74574 On ch=1 n=b5 v=0
74591 On ch=1 n=d6 v=0
74593 On ch=1 n=g6 v=68
74672 On ch=1 n=g6 v=0
75048 On ch=1 n=a4 v=32
75056 On ch=1 n=f4 v=24
75057 On ch=1 n=c4 v=22
75062 Par ch=1 c=64 v=56
75066 Par ch=1 c=64 v=0
75090 Par ch=1 c=64 v=40
75093 Par ch=1 c=64 v=127
75113 On ch=1 n=a4 v=0
75115 On ch=1 n=f5 v=60
75175 On ch=1 n=f5 v=0
75185 On ch=1 n=g5 v=62
75243 On ch=1 n=g5 v=0
75248 On ch=1 n=a5 v=65
75305 On ch=1 n=a5 v=0
75310 On ch=1 n=a#5 v=65
75374 On ch=1 n=c6 v=67
75376 On ch=1 n=a#5 v=0
75398 On ch=1 n=c6 v=0
75448 On ch=1 n=c6 v=69
75489 Par ch=1 c=64 v=40
75493 Par ch=1 c=64 v=0
75518 Par ch=1 c=64 v=56
75522 Par ch=1 c=64 v=127
75557 On ch=1 n=c6 v=0
75563 On ch=1 n=a5 v=59
75590 Par ch=1 c=64 v=72
75593 Par ch=1 c=64 v=40
75597 Par ch=1 c=64 v=56
75602 Par ch=1 c=64 v=104
75606 Par ch=1 c=64 v=127
75666 On ch=1 n=f4 v=0
75674 On ch=1 n=c4 v=0
75772 On ch=1 n=a5 v=0
75774 On ch=1 n=g5 v=56
75842 On ch=1 n=g5 v=0
75904 On ch=1 n=a5 v=60
75912 On ch=1 n=c#5 v=25
75915 On ch=1 n=a4 v=25
75918 On ch=1 n=f4 v=25
75925 Par ch=1 c=64 v=88
75929 Par ch=1 c=64 v=0
75957 Par ch=1 c=64 v=56
75961 Par ch=1 c=64 v=127
75991 On ch=1 n=a5 v=0
75994 On ch=1 n=g5 v=59
76054 On ch=1 n=g5 v=0
76058 On ch=1 n=a5 v=63
76116 On ch=1 n=a5 v=0
76122 On ch=1 n=f5 v=48
76146 Par ch=1 c=64 v=56
76151 Par ch=1 c=64 v=0
76179 Par ch=1 c=64 v=72
76183 Par ch=1 c=64 v=127
76233 On ch=1 n=a5 v=55
76239 On ch=1 n=f5 v=0
76250 On ch=1 n=f4 v=0
76260 On ch=1 n=a4 v=0
76270 On ch=1 n=c#5 v=0
76278 On ch=1 n=a5 v=0
76360 On ch=1 n=g5 v=54
76371 On ch=1 n=d5 v=24
76376 On ch=1 n=b4 v=25
76377 On ch=1 n=g4 v=24
76377 On ch=1 n=f4 v=24
76384 Par ch=1 c=64 v=104
76388 Par ch=1 c=64 v=56
76392 Par ch=1 c=64 v=0
76429 Par ch=1 c=64 v=40
76433 Par ch=1 c=64 v=104
76436 Par ch=1 c=64 v=127
76497 On ch=1 n=g4 v=0
76520 On ch=1 n=f4 v=0
76545 On ch=1 n=b4 v=0
76547 On ch=1 n=d5 v=0
76554 On ch=1 n=g5 v=0
76698 Par ch=1 c=64 v=56
76703 Par ch=1 c=64 v=0
76712 On ch=1 n=f4 v=29
76712 On ch=1 n=a4 v=29
76714 On ch=1 n=c#5 v=40
76719 Par ch=1 c=64 v=56
76723 Par ch=1 c=64 v=127
76727 On ch=1 n=a4 v=0
76727 On ch=1 n=f4 v=0
76729 On ch=1 n=f5 v=35
76730 On ch=1 n=a5 v=29
76741 On ch=1 n=c#5 v=0
76742 On ch=1 n=c#6 v=57
76747 On ch=1 n=f5 v=0
76752 On ch=1 n=a5 v=0
76768 On ch=1 n=c#6 v=0
76772 On ch=1 n=a6 v=60
76830 On ch=1 n=a6 v=0
76859 On ch=1 n=g6 v=63
76912 On ch=1 n=g6 v=0
76922 On ch=1 n=a6 v=61
76962 On ch=1 n=a6 v=0
76980 On ch=1 n=f6 v=62
77087 On ch=1 n=f6 v=0
77092 On ch=1 n=a6 v=56
77135 On ch=1 n=a6 v=0
77166 On ch=1 n=f4 v=24
77168 Par ch=1 c=64 v=40
77172 Par ch=1 c=64 v=0
77174 On ch=1 n=g4 v=27
77184 Par ch=1 c=64 v=24
77188 Par ch=1 c=64 v=104
77191 On ch=1 n=a#4 v=26
77191 Par ch=1 c=64 v=127
77205 On ch=1 n=d5 v=34
77222 On ch=1 n=g4 v=0
77223 On ch=1 n=f4 v=0
77226 On ch=1 n=g5 v=38
77230 On ch=1 n=d5 v=0
77231 On ch=1 n=a#4 v=0
77237 On ch=1 n=a#5 v=39
77239 On ch=1 n=g5 v=0
77257 On ch=1 n=a#5 v=0
77259 On ch=1 n=d6 v=41
77280 On ch=1 n=d6 v=0
77284 On ch=1 n=g6 v=50
77340 On ch=1 n=c7 v=56
77363 On ch=1 n=c7 v=0
77566 On ch=1 n=g6 v=0
77684 Par ch=1 c=64 v=40
77688 Par ch=1 c=64 v=0
77691 On ch=1 n=f4 v=39
77701 On ch=1 n=f4 v=0
77704 Par ch=1 c=64 v=72
77708 Par ch=1 c=64 v=127
77709 On ch=1 n=g4 v=42
77729 On ch=1 n=a#4 v=27
77741 On ch=1 n=e5 v=39
77749 On ch=1 n=g4 v=0
77757 On ch=1 n=g5 v=38
77759 On ch=1 n=e5 v=0
77763 On ch=1 n=a#4 v=0
77769 On ch=1 n=g5 v=0
77770 On ch=1 n=a#5 v=47
77792 On ch=1 n=a#5 v=0
77796 On ch=1 n=e6 v=58
77821 On ch=1 n=e6 v=0
77823 On ch=1 n=g6 v=59
77885 On ch=1 n=c7 v=70
77937 On ch=1 n=c7 v=0
78143 On ch=1 n=g6 v=0
78277 Par ch=1 c=64 v=104
78278 On ch=1 n=f3 v=32
78281 Par ch=1 c=64 v=40
78285 Par ch=1 c=64 v=0
78296 Par ch=1 c=64 v=40
78301 Par ch=1 c=64 v=127
78329 On ch=1 n=f3 v=0
78345 On ch=1 n=c4 v=51
78393 On ch=1 n=a4 v=39
78422 On ch=1 n=c4 v=0
78432 On ch=1 n=g5 v=38
78455 On ch=1 n=a4 v=0
78466 On ch=1 n=g5 v=0
78473 On ch=1 n=a5 v=48
78498 On ch=1 n=a5 v=0
78514 On ch=1 n=c6 v=57
78547 On ch=1 n=c6 v=0
78559 On ch=1 n=g6 v=64
78652 On ch=1 n=c7 v=60
78741 On ch=1 n=c7 v=0
78929 On ch=1 n=g6 v=0
79052 On ch=1 n=f3 v=27
79055 Par ch=1 c=64 v=72
79059 Par ch=1 c=64 v=24
79064 Par ch=1 c=64 v=0
79080 Par ch=1 c=64 v=72
79084 Par ch=1 c=64 v=127
79112 On ch=1 n=f3 v=0
79121 On ch=1 n=c4 v=41
79179 On ch=1 n=a4 v=29
79225 On ch=1 n=c4 v=0
79235 On ch=1 n=f5 v=38
79253 On ch=1 n=f5 v=0
79278 On ch=1 n=a4 v=0
79282 On ch=1 n=a5 v=51
79307 On ch=1 n=a5 v=0
79334 On ch=1 n=c6 v=47
79374 On ch=1 n=c6 v=0
79396 On ch=1 n=f6 v=58
79470 On ch=1 n=f6 v=0
79503 On ch=1 n=c7 v=52
79575 On ch=1 n=c7 v=0
80310 Par ch=1 c=64 v=104
80314 Par ch=1 c=64 v=88
80318 Par ch=1 c=64 v=56
80322 Par ch=1 c=64 v=24
80325 Par ch=1 c=64 v=0
80325 Meta TrkEnd
TrkEnd
MTrk
0 Meta 0x21 00
0 Meta TrkName "Claude Debussy"
0 Meta TrkEnd
TrkEnd
MTrk
0 Meta 0x21 00
0 Meta TrkName "Copyright 1998"
0 Meta TrkEnd
TrkEnd
MTrk
0 Meta 0x21 00
0 Meta TrkName "Robert Fin"
