MFile 1 2 480
MTrk
0 TimeSig 6/8 12 8
0 Tempo 625000
1440 Tempo 697674
2880 Tempo 789474
4320 Tempo 625000
145440 Tempo 697674
146880 Tempo 625000
298080 Tempo 697674
299520 Tempo 625000
316800 Tempo 740741
318240 Tempo 625000
424800 Tempo 697674
426240 Tempo 625000
426240 Meta TrkEnd
TrkEnd
MTrk
0 SeqSpec 43 00 01 00
0 Meta TrkName "copyright 1997  acuity2020@aol"
0 PrCh ch=1 p=0
74 Par ch=1 c=64 v=0
136 Par ch=1 c=64 v=127
428 On ch=1 n=g6 v=19
438 On ch=1 n=g5 v=19
594 On ch=1 n=g5 v=0
620 On ch=1 n=g6 v=0
830 On ch=1 n=g6 v=24
850 On ch=1 n=g5 v=24
1002 On ch=1 n=g5 v=0
1020 On ch=1 n=g6 v=0
1222 On ch=1 n=g6 v=28
1238 On ch=1 n=g5 v=28
1356 On ch=1 n=g5 v=0
1392 On ch=1 n=g6 v=0
1610 On ch=1 n=e5 v=32
1616 On ch=1 n=g6 v=32
1616 On ch=1 n=g5 v=33
1868 On ch=1 n=c6 v=35
1890 On ch=1 n=g5 v=0
1892 On ch=1 n=e5 v=0
1906 On ch=1 n=g6 v=0
2080 On ch=1 n=e5 v=38
2092 On ch=1 n=c6 v=0
2092 On ch=1 n=g5 v=38
2096 On ch=1 n=g6 v=38
2278 On ch=1 n=c6 v=40
2300 On ch=1 n=g6 v=0
2300 On ch=1 n=g5 v=0
2468 On ch=1 n=c6 v=0
2480 On ch=1 n=g6 v=42
2480 On ch=1 n=g5 v=42
2496 On ch=1 n=d5 v=42
2498 On ch=1 n=e5 v=0
2630 On ch=1 n=d5 v=0
2648 On ch=1 n=c6 v=44
2676 On ch=1 n=a#5 v=44
2684 On ch=1 n=g5 v=0
2698 On ch=1 n=g6 v=0
2760 On ch=1 n=a#5 v=0
2868 On ch=1 n=g6 v=46
2880 On ch=1 n=g5 v=46
2880 On ch=1 n=d5 v=47
2890 On ch=1 n=c6 v=0
3036 On ch=1 n=a#5 v=48
3040 On ch=1 n=c6 v=48
3102 On ch=1 n=g6 v=0
3108 On ch=1 n=g5 v=0
3122 On ch=1 n=d5 v=0
3256 On ch=1 n=c5 v=51
3258 On ch=1 n=a#5 v=0
3268 On ch=1 n=g6 v=51
3268 On ch=1 n=g5 v=51
3282 On ch=1 n=c6 v=0
3290 Par ch=1 c=64 v=0
3380 Par ch=1 c=64 v=127
3448 On ch=1 n=a#5 v=53
3452 On ch=1 n=c6 v=53
3494 On ch=1 n=g5 v=0
3510 On ch=1 n=g6 v=0
3582 On ch=1 n=c5 v=0
3668 On ch=1 n=g6 v=55
3680 On ch=1 n=g5 v=55
3688 On ch=1 n=a#5 v=0
3696 On ch=1 n=c6 v=0
3884 On ch=1 n=a#5 v=58
3892 On ch=1 n=c6 v=58
3920 On ch=1 n=g5 v=0
3932 On ch=1 n=g6 v=0
4152 On ch=1 n=g5 v=54
4162 On ch=1 n=g6 v=54
4174 On ch=1 n=f3 v=54
4178 On ch=1 n=a#5 v=0
4190 On ch=1 n=c6 v=0
4198 Par ch=1 c=64 v=0
4272 Par ch=1 c=64 v=127
4322 On ch=1 n=f3 v=0
4446 On ch=1 n=g6 v=0
4490 On ch=1 n=c6 v=42
4502 On ch=1 n=a5 v=33
4512 On ch=1 n=c5 v=28
4526 On ch=1 n=g5 v=0
4672 On ch=1 n=f6 v=57
4686 On ch=1 n=c6 v=0
4692 On ch=1 n=a4 v=52
4698 On ch=1 n=a5 v=0
4698 On ch=1 n=f5 v=30
4708 On ch=1 n=c5 v=0
4854 On ch=1 n=a5 v=39
4858 On ch=1 n=f6 v=0
4870 On ch=1 n=c6 v=36
4878 On ch=1 n=a4 v=0
4882 On ch=1 n=c5 v=38
4890 On ch=1 n=f5 v=0
5022 On ch=1 n=a5 v=0
5022 On ch=1 n=e6 v=62
5034 On ch=1 n=e5 v=56
5048 On ch=1 n=c6 v=0
5058 On ch=1 n=d4 v=52
5068 On ch=1 n=c5 v=0
5156 On ch=1 n=d4 v=0
5196 On ch=1 n=c5 v=33
5206 On ch=1 n=e6 v=0
5208 On ch=1 n=a5 v=38
5214 On ch=1 n=c6 v=43
5240 On ch=1 n=e5 v=0
5252 On ch=1 n=c5 v=0
5352 Par ch=1 c=64 v=0
5362 On ch=1 n=e6 v=58
5362 On ch=1 n=g3 v=45
5376 On ch=1 n=a5 v=0
5376 On ch=1 n=e5 v=51
5386 On ch=1 n=c6 v=0
5446 Par ch=1 c=64 v=127
5468 On ch=1 n=g3 v=0
5536 On ch=1 n=e6 v=0
5544 On ch=1 n=g5 v=30
5556 On ch=1 n=b5 v=31
5564 On ch=1 n=e5 v=0
5568 On ch=1 n=g4 v=30
5712 On ch=1 n=d6 v=64
5712 On ch=1 n=b4 v=30
5718 On ch=1 n=g5 v=0
5726 On ch=1 n=g4 v=0
5726 On ch=1 n=d5 v=48
5740 On ch=1 n=f4 v=43
5842 On ch=1 n=d6 v=0
5856 On ch=1 n=g5 v=47
5870 On ch=1 n=b4 v=0
5872 On ch=1 n=d5 v=0
5884 On ch=1 n=f4 v=0
5940 On ch=1 n=g4 v=21
6018 On ch=1 n=g5 v=0
6036 On ch=1 n=c6 v=55
6044 On ch=1 n=c5 v=56
6044 On ch=1 n=e4 v=55
6062 On ch=1 n=g4 v=0
6122 On ch=1 n=b5 v=0
6146 On ch=1 n=c5 v=0
6208 On ch=1 n=g4 v=45
6220 On ch=1 n=e4 v=0
6254 On ch=1 n=g5 v=24
6402 On ch=1 n=e6 v=48
6412 On ch=1 n=c4 v=47
6416 On ch=1 n=e5 v=35
6424 On ch=1 n=g4 v=0
6428 On ch=1 n=g5 v=0
6434 On ch=1 n=c6 v=0
6456 Par ch=1 c=64 v=0
6562 Par ch=1 c=64 v=127
6582 On ch=1 n=g5 v=49
6586 On ch=1 n=c6 v=38
6596 On ch=1 n=g4 v=33
6616 On ch=1 n=e5 v=0
6766 On ch=1 n=c5 v=50
6778 On ch=1 n=g4 v=0
6778 On ch=1 n=g5 v=0
6778 On ch=1 n=e5 v=52
6790 On ch=1 n=c6 v=0
6934 On ch=1 n=f5 v=51
6946 On ch=1 n=e5 v=0
6946 On ch=1 n=a4 v=57
6950 On ch=1 n=c6 v=38
7082 On ch=1 n=c6 v=0
7140 On ch=1 n=e5 v=56
7152 On ch=1 n=g4 v=58
7152 Par ch=1 c=64 v=0
7168 On ch=1 n=f5 v=0
7192 On ch=1 n=a4 v=0
7238 Par ch=1 c=64 v=127
7260 On ch=1 n=c5 v=0
7326 On ch=1 n=g4 v=0
7334 On ch=1 n=c4 v=0
7370 On ch=1 n=g5 v=46
7374 On ch=1 n=c6 v=50
7420 On ch=1 n=e6 v=0
7426 On ch=1 n=e5 v=0
7442 On ch=1 n=g5 v=0
7452 On ch=1 n=c6 v=0
7610 On ch=1 n=e5 v=48
7680 Par ch=1 c=64 v=0
7712 On ch=1 n=c3 v=61
7718 On ch=1 n=g6 v=53
7744 On ch=1 n=e5 v=0
7786 Par ch=1 c=64 v=127
7872 On ch=1 n=c3 v=0
8052 On ch=1 n=a#5 v=43
8064 On ch=1 n=c6 v=33
8074 On ch=1 n=g4 v=53
8174 On ch=1 n=g6 v=0
8264 On ch=1 n=c5 v=53
8270 On ch=1 n=a#5 v=0
8270 On ch=1 n=g6 v=58
8278 On ch=1 n=g5 v=45
8286 On ch=1 n=c6 v=0
8434 On ch=1 n=c6 v=43
8434 On ch=1 n=a#5 v=35
8436 On ch=1 n=d5 v=44
8462 On ch=1 n=c5 v=0
8472 On ch=1 n=g5 v=0
8510 On ch=1 n=g6 v=0
8604 On ch=1 n=g6 v=61
8610 On ch=1 n=e5 v=59
8626 On ch=1 n=a#5 v=0
8626 On ch=1 n=g5 v=53
8634 On ch=1 n=d5 v=0
8634 On ch=1 n=c6 v=0
8664 On ch=1 n=e5 v=0
8676 On ch=1 n=g4 v=0
8776 On ch=1 n=c6 v=47
8784 On ch=1 n=a#5 v=48
8810 On ch=1 n=g6 v=0
8820 On ch=1 n=g5 v=0
8966 Par ch=1 c=64 v=0
8978 On ch=1 n=g6 v=58
8978 On ch=1 n=g5 v=48
8978 On ch=1 n=f3 v=53
8992 On ch=1 n=a#5 v=0
8996 On ch=1 n=c6 v=0
9052 Par ch=1 c=64 v=127
9066 On ch=1 n=f3 v=0
9176 On ch=1 n=g6 v=0
9176 On ch=1 n=c5 v=58
9186 On ch=1 n=g5 v=0
9190 On ch=1 n=c6 v=33
9190 On ch=1 n=a5 v=37
9334 On ch=1 n=f6 v=53
9334 On ch=1 n=f5 v=42
9352 On ch=1 n=c6 v=0
9356 On ch=1 n=a4 v=53
9368 On ch=1 n=a5 v=0
9376 On ch=1 n=c5 v=0
9490 On ch=1 n=a5 v=44
9510 On ch=1 n=c6 v=49
9514 On ch=1 n=c5 v=58
9528 On ch=1 n=a4 v=0
9528 On ch=1 n=f5 v=0
9536 On ch=1 n=f6 v=0
9650 On ch=1 n=e6 v=56
9658 On ch=1 n=e5 v=58
9670 On ch=1 n=d4 v=48
9674 On ch=1 n=a5 v=0
9680 On ch=1 n=c6 v=0
9682 On ch=1 n=c5 v=0
9800 On ch=1 n=d4 v=0
9806 On ch=1 n=c6 v=42
9806 On ch=1 n=a5 v=46
9806 On ch=1 n=c5 v=52
9852 On ch=1 n=e5 v=0
9856 On ch=1 n=e6 v=0
9898 On ch=1 n=c5 v=0
9978 On ch=1 n=e6 v=55
9984 On ch=1 n=g3 v=40
9998 On ch=1 n=e5 v=53
10002 On ch=1 n=a5 v=0
10008 On ch=1 n=c6 v=0
10010 Par ch=1 c=64 v=0
10090 Par ch=1 c=64 v=127
10114 On ch=1 n=g3 v=0
10182 On ch=1 n=g5 v=23
10190 On ch=1 n=g4 v=48
10200 On ch=1 n=e6 v=0
10200 On ch=1 n=b5 v=32
10210 On ch=1 n=e5 v=0
10350 On ch=1 n=g4 v=0
10350 On ch=1 n=d5 v=42
10360 On ch=1 n=g5 v=0
10360 On ch=1 n=d6 v=53
10360 On ch=1 n=b4 v=26
10368 On ch=1 n=f4 v=26
10500 On ch=1 n=f4 v=0
10506 On ch=1 n=d6 v=0
10508 On ch=1 n=g5 v=26
10518 On ch=1 n=b4 v=0
10520 On ch=1 n=d5 v=0
10520 On ch=1 n=g4 v=27
10664 On ch=1 n=g5 v=0
10670 On ch=1 n=e4 v=41
10684 On ch=1 n=g4 v=0
10686 On ch=1 n=c6 v=49
10686 On ch=1 n=c5 v=50
10824 On ch=1 n=c5 v=0
10842 On ch=1 n=g5 v=47
10852 On ch=1 n=g4 v=48
10856 On ch=1 n=e4 v=0
10932 On ch=1 n=b5 v=0
11034 On ch=1 n=e6 v=50
11040 On ch=1 n=c4 v=50
11052 On ch=1 n=e5 v=40
11054 On ch=1 n=c6 v=0
11064 On ch=1 n=g4 v=0
11070 On ch=1 n=g5 v=0
11094 Par ch=1 c=64 v=0
11204 Par ch=1 c=64 v=127
11224 On ch=1 n=g4 v=45
11230 On ch=1 n=g5 v=40
11236 On ch=1 n=c6 v=42
11262 On ch=1 n=e5 v=0
11416 On ch=1 n=g5 v=0
11422 On ch=1 n=e5 v=42
11434 On ch=1 n=g4 v=0
11434 On ch=1 n=c5 v=33
11438 On ch=1 n=c6 v=0
11608 On ch=1 n=e5 v=0
11626 On ch=1 n=a4 v=36
11630 On ch=1 n=f5 v=24
11644 On ch=1 n=c6 v=20
11858 On ch=1 n=c6 v=0
11886 On ch=1 n=e5 v=30
11898 On ch=1 n=f5 v=0
11904 On ch=1 n=g4 v=26
11912 Par ch=1 c=64 v=0
11922 On ch=1 n=a4 v=0
12038 Par ch=1 c=64 v=127
12150 On ch=1 n=c5 v=0
12150 On ch=1 n=c6 v=33
12164 On ch=1 n=g4 v=0
12164 On ch=1 n=g5 v=41
12186 On ch=1 n=c4 v=0
12242 On ch=1 n=e5 v=0
12286 On ch=1 n=e6 v=0
12442 On ch=1 n=g5 v=0
12450 Par ch=1 c=64 v=0
12458 On ch=1 n=e6 v=45
12468 On ch=1 n=g3 v=45
12476 On ch=1 n=e5 v=25
12510 On ch=1 n=c6 v=0
12526 Par ch=1 c=64 v=127
12586 On ch=1 n=g3 v=0
12658 On ch=1 n=e6 v=0
12670 On ch=1 n=g5 v=23
12682 On ch=1 n=g4 v=45
12696 On ch=1 n=b5 v=23
12706 On ch=1 n=e5 v=0
12840 On ch=1 n=d6 v=51
12844 On ch=1 n=d5 v=46
12862 On ch=1 n=g4 v=0
12862 On ch=1 n=g5 v=0
12868 On ch=1 n=b4 v=26
12868 On ch=1 n=f4 v=31
13008 On ch=1 n=d6 v=0
13010 On ch=1 n=f4 v=0
13012 On ch=1 n=b4 v=0
13012 On ch=1 n=g4 v=34
13022 On ch=1 n=d5 v=0
13022 On ch=1 n=g5 v=29
13134 On ch=1 n=g5 v=0
13154 On ch=1 n=c6 v=50
13158 On ch=1 n=c5 v=51
13160 On ch=1 n=e4 v=48
13172 On ch=1 n=g4 v=0
13290 On ch=1 n=c5 v=0
13314 On ch=1 n=g4 v=43
13326 On ch=1 n=g5 v=44
13330 On ch=1 n=e4 v=0
13420 On ch=1 n=b5 v=0
13522 On ch=1 n=e6 v=51
13528 On ch=1 n=e5 v=35
13542 On ch=1 n=c6 v=0
13542 On ch=1 n=c4 v=46
13546 On ch=1 n=g5 v=0
13556 On ch=1 n=g4 v=0
13616 Par ch=1 c=64 v=0
13716 On ch=1 n=g5 v=31
13724 On ch=1 n=g4 v=39
13734 On ch=1 n=c6 v=29
13748 Par ch=1 c=64 v=127
13764 On ch=1 n=e5 v=0
13894 On ch=1 n=g5 v=0
13894 On ch=1 n=e5 v=40
13894 On ch=1 n=c5 v=35
13908 On ch=1 n=g4 v=0
13918 On ch=1 n=c6 v=0
14062 On ch=1 n=c6 v=29
14064 On ch=1 n=f5 v=40
14064 On ch=1 n=a4 v=36
14076 On ch=1 n=e5 v=0
14138 On ch=1 n=c4 v=0
14176 On ch=1 n=c6 v=0
14228 On ch=1 n=e5 v=48
14234 On ch=1 n=g4 v=45
14244 On ch=1 n=a4 v=0
14254 On ch=1 n=f5 v=0
14280 On ch=1 n=c5 v=0
14296 Par ch=1 c=64 v=0
14390 On ch=1 n=c6 v=48
14394 On ch=1 n=g5 v=40
14402 On ch=1 n=c4 v=47
14434 On ch=1 n=e5 v=0
14580 On ch=1 n=e5 v=50
14586 On ch=1 n=c5 v=42
14602 On ch=1 n=g5 v=0
14612 On ch=1 n=c6 v=0
14622 On ch=1 n=g4 v=0
14740 Par ch=1 c=64 v=127
14778 On ch=1 n=c6 v=34
14778 On ch=1 n=f5 v=39
14778 On ch=1 n=a4 v=39
14798 On ch=1 n=e5 v=0
14938 On ch=1 n=c4 v=0
15008 On ch=1 n=c6 v=0
15018 On ch=1 n=e5 v=43
15040 On ch=1 n=g4 v=34
15044 On ch=1 n=f5 v=0
15064 On ch=1 n=a4 v=0
15262 On ch=1 n=c5 v=0
15268 On ch=1 n=c6 v=31
15270 Par ch=1 c=64 v=0
15280 On ch=1 n=g5 v=39
15282 On ch=1 n=c4 v=29
15322 On ch=1 n=e5 v=0
15550 On ch=1 n=e5 v=36
15562 On ch=1 n=c5 v=26
15570 On ch=1 n=g5 v=0
15570 On ch=1 n=c6 v=0
15590 On ch=1 n=g4 v=0
15858 On ch=1 n=a4 v=39
15866 On ch=1 n=c6 v=26
15870 On ch=1 n=f5 v=34
15898 On ch=1 n=e5 v=0
16376 On ch=1 n=e5 v=24
16388 On ch=1 n=f5 v=0
16388 On ch=1 n=g4 v=32
16414 On ch=1 n=a4 v=0
17230 Par ch=1 c=64 v=127
17394 On ch=1 n=g4 v=0
17436 On ch=1 n=c5 v=0
17508 On ch=1 n=e6 v=0
17522 On ch=1 n=c4 v=0
17530 On ch=1 n=e5 v=0
17542 On ch=1 n=c6 v=0
18228 On ch=1 n=c6 v=43
19040 Par ch=1 c=64 v=0
19556 On ch=1 n=c#6 v=42
19594 On ch=1 n=c6 v=0
20022 On ch=1 n=b5 v=33
20070 On ch=1 n=c#6 v=0
20448 On ch=1 n=f3 v=33
20490 Par ch=1 c=64 v=127
20572 On ch=1 n=f3 v=0
20762 On ch=1 n=b5 v=0
20940 On ch=1 n=c6 v=50
20948 On ch=1 n=f5 v=23
20950 On ch=1 n=g#5 v=23
20962 On ch=1 n=c5 v=24
21058 On ch=1 n=c5 v=0
21064 On ch=1 n=f5 v=0
21078 On ch=1 n=g#5 v=0
21320 On ch=1 n=g#4 v=34
21326 On ch=1 n=f6 v=50
21348 On ch=1 n=f5 v=24
21352 On ch=1 n=c5 v=20
21374 On ch=1 n=c6 v=0
21646 On ch=1 n=g#4 v=0
21648 On ch=1 n=c5 v=0
21678 On ch=1 n=f6 v=0
21678 On ch=1 n=f4 v=37
21678 Par ch=1 c=64 v=0
21690 On ch=1 n=e6 v=50
21742 On ch=1 n=f5 v=0
21796 Par ch=1 c=64 v=127
21816 On ch=1 n=f4 v=0
22028 On ch=1 n=c#5 v=32
22030 On ch=1 n=a#5 v=50
22042 On ch=1 n=g5 v=20
22072 On ch=1 n=e5 v=16
22114 On ch=1 n=e6 v=0
22138 On ch=1 n=g5 v=0
22144 On ch=1 n=e5 v=0
22168 On ch=1 n=c#5 v=0
22386 On ch=1 n=a#4 v=25
22388 On ch=1 n=e5 v=24
22398 On ch=1 n=c#6 v=50
22398 On ch=1 n=c#5 v=21
22458 On ch=1 n=a#5 v=0
22462 On ch=1 n=c#5 v=0
22462 On ch=1 n=e5 v=0
22470 On ch=1 n=a#4 v=0
22730 Par ch=1 c=64 v=0
22764 On ch=1 n=f3 v=41
22826 Par ch=1 c=64 v=127
22846 On ch=1 n=f3 v=0
23124 On ch=1 n=c6 v=50
23124 On ch=1 n=g#5 v=21
23140 On ch=1 n=f5 v=17
23140 On ch=1 n=c5 v=17
23154 On ch=1 n=c#6 v=0
23220 On ch=1 n=g#5 v=0
23232 On ch=1 n=c5 v=0
23244 On ch=1 n=f5 v=0
23464 On ch=1 n=f6 v=50
23470 On ch=1 n=g#4 v=27
23512 On ch=1 n=c6 v=0
23514 On ch=1 n=f5 v=12
23596 On ch=1 n=c5 v=1
23808 Par ch=1 c=64 v=0
23818 On ch=1 n=f6 v=0
23818 On ch=1 n=e6 v=50
23830 On ch=1 n=c5 v=0
23838 On ch=1 n=f4 v=23
23878 On ch=1 n=g#4 v=0
23916 Par ch=1 c=64 v=127
23926 On ch=1 n=f5 v=0
23960 On ch=1 n=f4 v=0
24164 On ch=1 n=a#5 v=50
24168 On ch=1 n=c#5 v=23
24178 On ch=1 n=g5 v=23
24190 On ch=1 n=e5 v=21
24276 On ch=1 n=e6 v=0
24296 On ch=1 n=g5 v=0
24298 On ch=1 n=e5 v=0
24310 On ch=1 n=c#5 v=0
24538 On ch=1 n=c#6 v=50
24542 On ch=1 n=e5 v=30
24556 On ch=1 n=a#4 v=27
24562 On ch=1 n=c#5 v=23
24590 On ch=1 n=a#5 v=0
24628 On ch=1 n=c#5 v=0
24636 On ch=1 n=a#4 v=0
24638 On ch=1 n=e5 v=0
24898 Par ch=1 c=64 v=0
24940 On ch=1 n=f4 v=37
24990 Par ch=1 c=64 v=127
25040 On ch=1 n=f4 v=0
25306 On ch=1 n=g#5 v=23
25314 On ch=1 n=c5 v=24
25316 On ch=1 n=c6 v=61
25322 On ch=1 n=f5 v=23
25350 On ch=1 n=c#6 v=0
25390 On ch=1 n=f5 v=0
25402 On ch=1 n=g#5 v=0
25408 On ch=1 n=c5 v=0
25470 On ch=1 n=c#6 v=48
25508 On ch=1 n=c6 v=0
25640 On ch=1 n=c6 v=67
25654 On ch=1 n=g#4 v=16
25666 On ch=1 n=c#6 v=0
25666 On ch=1 n=f5 v=23
25672 On ch=1 n=c5 v=17
25744 On ch=1 n=c5 v=0
25786 On ch=1 n=g#4 v=0
25790 On ch=1 n=c#6 v=49
25810 On ch=1 n=f5 v=0
25832 On ch=1 n=c6 v=0
25924 On ch=1 n=d#4 v=36
25932 Par ch=1 c=64 v=0
25942 On ch=1 n=d#6 v=62
25974 On ch=1 n=c#6 v=0
26016 Par ch=1 c=64 v=127
26074 On ch=1 n=d#4 v=0
26186 On ch=1 n=d#6 v=0
26252 On ch=1 n=d#6 v=62
26252 On ch=1 n=g#5 v=28
26260 On ch=1 n=c5 v=37
26414 On ch=1 n=c5 v=0
26452 On ch=1 n=d#6 v=0
26456 On ch=1 n=g#5 v=0
26574 On ch=1 n=d#6 v=67
26596 On ch=1 n=d#4 v=36
26686 On ch=1 n=d#4 v=0
26806 On ch=1 n=d#6 v=0
26948 On ch=1 n=d#3 v=40
26954 On ch=1 n=d#6 v=62
26954 Par ch=1 c=64 v=0
27034 Par ch=1 c=64 v=127
27050 On ch=1 n=d#3 v=0
27374 On ch=1 n=c#6 v=57
27384 On ch=1 n=g5 v=29
27388 On ch=1 n=d#5 v=17
27396 On ch=1 n=c#5 v=16
27436 On ch=1 n=d#6 v=0
27470 On ch=1 n=g5 v=0
27480 On ch=1 n=d#5 v=0
27484 On ch=1 n=c#5 v=0
27528 On ch=1 n=c#6 v=0
27530 On ch=1 n=c6 v=53
27696 On ch=1 n=a#5 v=73
27696 On ch=1 n=g4 v=35
27710 On ch=1 n=d#5 v=14
27714 On ch=1 n=c#5 v=14
27728 On ch=1 n=c6 v=0
27798 On ch=1 n=g4 v=0
27820 On ch=1 n=d#5 v=0
27828 On ch=1 n=c#5 v=0
27844 On ch=1 n=c6 v=63
27866 On ch=1 n=a#5 v=0
28006 On ch=1 n=g#5 v=58
28014 Par ch=1 c=64 v=0
28024 On ch=1 n=g#3 v=40
28070 On ch=1 n=c6 v=0
28110 Par ch=1 c=64 v=127
28128 On ch=1 n=g#3 v=0
28340 On ch=1 n=g#4 v=33
28354 On ch=1 n=d#5 v=37
28364 On ch=1 n=c5 v=26
28474 On ch=1 n=g#4 v=0
28476 On ch=1 n=d#5 v=0
28490 On ch=1 n=c5 v=0
28636 On ch=1 n=d#4 v=37
28656 On ch=1 n=c5 v=42
28670 On ch=1 n=g#4 v=28
28742 On ch=1 n=g#4 v=0
28760 On ch=1 n=d#4 v=0
28774 On ch=1 n=c5 v=0
28968 On ch=1 n=c5 v=35
28968 On ch=1 n=g#4 v=39
28970 Par ch=1 c=64 v=0
28986 On ch=1 n=f5 v=36
29058 Par ch=1 c=64 v=127
29120 On ch=1 n=g#4 v=0
29130 On ch=1 n=f5 v=0
29150 On ch=1 n=c5 v=0
29296 On ch=1 n=d#5 v=26
29306 On ch=1 n=c5 v=29
29314 On ch=1 n=g#4 v=31
29408 On ch=1 n=c5 v=0
29410 On ch=1 n=g#4 v=0
29416 On ch=1 n=d#5 v=0
29652 On ch=1 n=d#4 v=33
29664 On ch=1 n=c5 v=28
29718 On ch=1 n=c5 v=0
29758 On ch=1 n=d#4 v=0
30026 Par ch=1 c=64 v=0
30032 On ch=1 n=g#2 v=50
30108 Par ch=1 c=64 v=127
30254 On ch=1 n=g#5 v=0
30446 On ch=1 n=d#5 v=22
30448 On ch=1 n=d#6 v=64
30448 On ch=1 n=g#5 v=36
30460 On ch=1 n=c6 v=29
30552 On ch=1 n=d#5 v=0
30570 On ch=1 n=g#2 v=0
30578 On ch=1 n=c6 v=0
30582 On ch=1 n=g#5 v=0
30760 On ch=1 n=g#6 v=67
30764 On ch=1 n=g#5 v=34
30778 On ch=1 n=d#5 v=33
30788 On ch=1 n=c5 v=17
30814 On ch=1 n=d#6 v=0
30830 On ch=1 n=g#5 v=0
30844 On ch=1 n=d#5 v=0
30854 On ch=1 n=c5 v=0
31064 On ch=1 n=g6 v=63
31068 On ch=1 n=g#4 v=26
31084 Par ch=1 c=64 v=0
31092 On ch=1 n=g#6 v=0
31142 Par ch=1 c=64 v=127
31196 On ch=1 n=g#4 v=0
31378 On ch=1 n=c#6 v=57
31388 On ch=1 n=g5 v=29
31392 On ch=1 n=e5 v=31
31402 On ch=1 n=a#5 v=22
31462 On ch=1 n=g6 v=0
31488 On ch=1 n=e5 v=0
31498 On ch=1 n=g5 v=0
31536 On ch=1 n=a#5 v=0
31718 On ch=1 n=e6 v=61
31730 On ch=1 n=c#5 v=17
31736 On ch=1 n=g5 v=20
31740 On ch=1 n=e5 v=17
31774 On ch=1 n=c#6 v=0
31790 On ch=1 n=c#5 v=0
31800 On ch=1 n=g5 v=0
31806 On ch=1 n=e5 v=0
32034 Par ch=1 c=64 v=0
32056 On ch=1 n=g#3 v=40
32118 Par ch=1 c=64 v=127
32152 On ch=1 n=g#3 v=0
32264 On ch=1 n=e6 v=0
32372 On ch=1 n=d#6 v=62
32380 On ch=1 n=g#5 v=37
32384 On ch=1 n=c6 v=48
32392 On ch=1 n=d#5 v=33
32484 On ch=1 n=c6 v=0
32490 On ch=1 n=d#5 v=0
32492 On ch=1 n=g#5 v=0
32664 On ch=1 n=g#6 v=67
32674 On ch=1 n=g#5 v=36
32676 On ch=1 n=d#5 v=39
32688 On ch=1 n=c5 v=27
32720 On ch=1 n=d#6 v=0
32748 On ch=1 n=g#5 v=0
32754 On ch=1 n=c5 v=0
32766 On ch=1 n=d#5 v=0
32978 On ch=1 n=g6 v=62
32988 On ch=1 n=g#4 v=35
32998 Par ch=1 c=64 v=0
33014 On ch=1 n=g#6 v=0
33072 Par ch=1 c=64 v=127
33084 On ch=1 n=g#4 v=0
33310 On ch=1 n=a#5 v=26
33312 On ch=1 n=c#6 v=67
33324 On ch=1 n=g5 v=33
33338 On ch=1 n=e5 v=25
33372 On ch=1 n=g6 v=0
33386 On ch=1 n=e5 v=0
33400 On ch=1 n=a#5 v=0
33418 On ch=1 n=g5 v=0
33678 On ch=1 n=e5 v=29
33688 On ch=1 n=g5 v=27
33694 On ch=1 n=e6 v=62
33694 On ch=1 n=c#5 v=21
33724 On ch=1 n=c#6 v=0
33750 On ch=1 n=g5 v=0
33764 On ch=1 n=e5 v=0
33784 On ch=1 n=c#5 v=0
34056 Par ch=1 c=64 v=0
34088 On ch=1 n=g#3 v=40
34152 Par ch=1 c=64 v=127
34268 On ch=1 n=g#3 v=0
34448 On ch=1 n=e6 v=0
34452 On ch=1 n=d#5 v=21
34454 On ch=1 n=d#6 v=57
34454 On ch=1 n=g#5 v=22
34464 On ch=1 n=c6 v=32
34560 On ch=1 n=c6 v=0
34564 On ch=1 n=d#5 v=0
34572 On ch=1 n=g#5 v=0
34608 On ch=1 n=f6 v=62
34632 On ch=1 n=d#6 v=0
34754 On ch=1 n=d#6 v=73
34758 On ch=1 n=g#5 v=32
34766 On ch=1 n=c5 v=29
34776 On ch=1 n=f6 v=0
34778 On ch=1 n=d#5 v=26
34812 On ch=1 n=d#5 v=0
34812 On ch=1 n=g#5 v=0
34826 On ch=1 n=c5 v=0
34890 On ch=1 n=f6 v=67
34904 On ch=1 n=d#6 v=0
35060 On ch=1 n=d#3 v=42
35070 On ch=1 n=f#6 v=62
35080 Par ch=1 c=64 v=0
35096 On ch=1 n=f6 v=0
35174 Par ch=1 c=64 v=127
35240 On ch=1 n=d#3 v=0
35262 On ch=1 n=f#6 v=0
35394 On ch=1 n=a#5 v=32
35402 On ch=1 n=f#6 v=73
35408 On ch=1 n=d#5 v=35
35478 On ch=1 n=f#5 v=1
35530 On ch=1 n=f#5 v=0
35538 On ch=1 n=d#5 v=0
35538 On ch=1 n=a#5 v=0
35542 On ch=1 n=f#6 v=0
35708 On ch=1 n=a#4 v=25
35714 On ch=1 n=f#6 v=69
35724 On ch=1 n=f#5 v=22
35724 On ch=1 n=d#5 v=30
35782 On ch=1 n=f#5 v=0
35798 On ch=1 n=d#5 v=0
35828 On ch=1 n=a#4 v=0
35914 On ch=1 n=f#6 v=0
36066 On ch=1 n=f#6 v=62
36068 Par ch=1 c=64 v=0
36078 On ch=1 n=f3 v=38
36148 Par ch=1 c=64 v=127
36258 On ch=1 n=f3 v=0
36268 On ch=1 n=f#6 v=0
36422 On ch=1 n=d#5 v=31
36436 On ch=1 n=f6 v=57
36440 On ch=1 n=f5 v=29
36452 On ch=1 n=a5 v=26
36574 On ch=1 n=c6 v=45
36582 On ch=1 n=f5 v=0
36584 On ch=1 n=d#5 v=0
36590 On ch=1 n=a5 v=0
36614 On ch=1 n=f6 v=0
36728 On ch=1 n=d#6 v=57
36732 On ch=1 n=d#5 v=28
36748 On ch=1 n=a4 v=24
36752 On ch=1 n=f5 v=22
36788 On ch=1 n=c6 v=0
36798 On ch=1 n=d#5 v=0
36802 On ch=1 n=a4 v=0
36816 On ch=1 n=f5 v=0
36870 On ch=1 n=c#6 v=57
36888 On ch=1 n=d#6 v=0
37030 On ch=1 n=a#5 v=55
37044 On ch=1 n=a#3 v=36
37052 Par ch=1 c=64 v=0
37064 On ch=1 n=c#6 v=0
37148 Par ch=1 c=64 v=127
37224 On ch=1 n=a#3 v=0
37364 On ch=1 n=c#5 v=17
37368 On ch=1 n=a#4 v=29
37374 On ch=1 n=f5 v=20
37464 On ch=1 n=f5 v=0
37478 On ch=1 n=a#4 v=0
37488 On ch=1 n=c#5 v=0
37692 On ch=1 n=c#5 v=21
37696 On ch=1 n=a#4 v=26
37706 On ch=1 n=f4 v=25
37770 On ch=1 n=a#4 v=0
37778 On ch=1 n=c#5 v=0
37788 On ch=1 n=f4 v=0
38084 On ch=1 n=f#3 v=38
38096 Par ch=1 c=64 v=0
38190 Par ch=1 c=64 v=127
38206 On ch=1 n=a#5 v=0
38264 On ch=1 n=f#3 v=0
38450 On ch=1 n=c#6 v=53
38458 On ch=1 n=f#5 v=25
38486 On ch=1 n=a#4 v=16
38504 On ch=1 n=c#5 v=15
38582 On ch=1 n=c#5 v=0
38582 On ch=1 n=f#5 v=0
38600 On ch=1 n=a#4 v=0
38602 On ch=1 n=d#6 v=45
38628 On ch=1 n=c#6 v=0
38768 On ch=1 n=f#4 v=26
38774 On ch=1 n=a#4 v=31
38782 On ch=1 n=d#6 v=0
38782 On ch=1 n=c#6 v=54
38786 On ch=1 n=c#5 v=23
38836 On ch=1 n=c#5 v=0
38850 On ch=1 n=a#4 v=0
38858 On ch=1 n=f#4 v=0
38918 On ch=1 n=d#6 v=60
38954 On ch=1 n=c#6 v=0
39096 On ch=1 n=f6 v=58
39096 On ch=1 n=c#3 v=45
39110 Par ch=1 c=64 v=0
39156 On ch=1 n=d#6 v=0
39186 Par ch=1 c=64 v=127
39276 On ch=1 n=c#3 v=0
39296 On ch=1 n=f6 v=0
39424 On ch=1 n=g#4 v=36
39430 On ch=1 n=f6 v=62
39430 On ch=1 n=c#5 v=26
39442 On ch=1 n=f5 v=22
39552 On ch=1 n=c#5 v=0
39556 On ch=1 n=g#4 v=0
39560 On ch=1 n=f5 v=0
39592 On ch=1 n=f6 v=0
39748 On ch=1 n=c#5 v=25
39748 On ch=1 n=f4 v=27
39754 On ch=1 n=f6 v=67
39762 On ch=1 n=g#4 v=30
39828 On ch=1 n=f4 v=0
39836 On ch=1 n=c#5 v=0
39858 On ch=1 n=g#4 v=0
39944 On ch=1 n=f6 v=0
40126 On ch=1 n=d#3 v=37
40138 On ch=1 n=f6 v=55
40148 Par ch=1 c=64 v=0
40238 Par ch=1 c=64 v=127
40306 On ch=1 n=d#3 v=0
40498 On ch=1 n=d#6 v=58
40506 On ch=1 n=f6 v=0
40514 On ch=1 n=f#5 v=22
40518 On ch=1 n=a#4 v=25
40530 On ch=1 n=c5 v=33
40622 On ch=1 n=f#5 v=0
40658 On ch=1 n=a#5 v=46
40668 On ch=1 n=c5 v=0
40668 On ch=1 n=a#4 v=0
40704 On ch=1 n=d#6 v=0
40830 On ch=1 n=a#4 v=30
40830 On ch=1 n=d#4 v=24
40836 On ch=1 n=c#6 v=60
40836 On ch=1 n=c5 v=33
40864 On ch=1 n=a#5 v=0
40880 On ch=1 n=c5 v=0
40888 On ch=1 n=a#4 v=0
40910 On ch=1 n=d#4 v=0
40964 On ch=1 n=c#6 v=0
40992 On ch=1 n=c6 v=62
41124 Par ch=1 c=64 v=0
41134 On ch=1 n=a5 v=39
41146 On ch=1 n=f3 v=42
41188 On ch=1 n=c6 v=0
41214 Par ch=1 c=64 v=127
41298 On ch=1 n=a5 v=0
41326 On ch=1 n=f3 v=0
41470 On ch=1 n=c6 v=62
41490 On ch=1 n=a5 v=36
41496 On ch=1 n=f5 v=39
41496 On ch=1 n=c5 v=42
41588 On ch=1 n=a5 v=0
41604 On ch=1 n=f5 v=0
41608 On ch=1 n=c5 v=0
41784 On ch=1 n=f6 v=61
41796 On ch=1 n=a4 v=36
41806 On ch=1 n=c5 v=31
41808 On ch=1 n=f5 v=20
41832 On ch=1 n=c6 v=0
42076 On ch=1 n=a4 v=0
42080 Par ch=1 c=64 v=0
42102 On ch=1 n=c5 v=0
42102 On ch=1 n=f4 v=33
42104 On ch=1 n=e6 v=64
42134 On ch=1 n=f6 v=0
42174 On ch=1 n=f5 v=0
42186 Par ch=1 c=64 v=127
42208 On ch=1 n=f4 v=0
42402 On ch=1 n=c#5 v=34
42406 On ch=1 n=a#5 v=49
42416 On ch=1 n=e5 v=20
42424 On ch=1 n=g5 v=17
42436 On ch=1 n=e6 v=0
42534 On ch=1 n=e5 v=0
42534 On ch=1 n=c#5 v=0
42548 On ch=1 n=g5 v=0
42722 On ch=1 n=e5 v=39
42730 On ch=1 n=c#6 v=62
42734 On ch=1 n=c#5 v=33
42734 On ch=1 n=a#4 v=34
42776 On ch=1 n=a#5 v=0
42782 On ch=1 n=e5 v=0
42788 On ch=1 n=c#5 v=0
42790 On ch=1 n=a#4 v=0
43022 Par ch=1 c=64 v=0
43064 On ch=1 n=f3 v=46
43118 Par ch=1 c=64 v=127
43194 On ch=1 n=f3 v=0
43372 On ch=1 n=a5 v=29
43382 On ch=1 n=c5 v=32
43388 On ch=1 n=f5 v=30
43390 On ch=1 n=c6 v=49
43440 On ch=1 n=c#6 v=0
43456 On ch=1 n=a5 v=0
43482 On ch=1 n=f5 v=0
43488 On ch=1 n=c5 v=0
43684 On ch=1 n=f6 v=49
43696 On ch=1 n=f5 v=21
43704 On ch=1 n=c5 v=20
43704 On ch=1 n=a4 v=19
43730 On ch=1 n=c6 v=0
43966 Par ch=1 c=64 v=0
43986 On ch=1 n=e6 v=41
44000 On ch=1 n=c5 v=0
44000 On ch=1 n=f6 v=0
44004 On ch=1 n=a4 v=0
44014 On ch=1 n=f4 v=30
44088 Par ch=1 c=64 v=127
44098 On ch=1 n=f5 v=0
44118 On ch=1 n=f4 v=0
44326 On ch=1 n=a#5 v=35
44326 On ch=1 n=c#5 v=10
44332 On ch=1 n=g5 v=10
44350 On ch=1 n=e5 v=9
44432 On ch=1 n=e5 v=0
44436 On ch=1 n=g5 v=0
44462 On ch=1 n=c#5 v=0
44618 On ch=1 n=e6 v=0
44692 On ch=1 n=e5 v=14
44704 On ch=1 n=a#4 v=15
44706 On ch=1 n=c#6 v=48
44706 On ch=1 n=c#5 v=14
44752 On ch=1 n=a#5 v=0
44774 On ch=1 n=e5 v=0
44786 On ch=1 n=c#5 v=0
44786 On ch=1 n=a#4 v=0
45128 Par ch=1 c=64 v=0
45158 On ch=1 n=f3 v=38
45224 Par ch=1 c=64 v=127
45288 On ch=1 n=f3 v=0
45560 On ch=1 n=c6 v=56
45570 On ch=1 n=f#5 v=25
45596 On ch=1 n=d#5 v=10
45602 On ch=1 n=c#6 v=0
45608 On ch=1 n=c5 v=10
45666 On ch=1 n=f#5 v=0
45694 On ch=1 n=c5 v=0
45694 On ch=1 n=d#5 v=0
45726 On ch=1 n=c#6 v=61
45762 On ch=1 n=c6 v=0
45874 On ch=1 n=f#4 v=14
45880 On ch=1 n=d#5 v=15
45882 On ch=1 n=c6 v=67
45888 On ch=1 n=a#4 v=25
45898 On ch=1 n=c#6 v=0
46008 On ch=1 n=c#6 v=73
46032 On ch=1 n=f#4 v=0
46052 On ch=1 n=c6 v=0
46062 On ch=1 n=a#4 v=0
46080 On ch=1 n=d#5 v=0
46142 Par ch=1 c=64 v=0
46152 On ch=1 n=d#6 v=57
46180 On ch=1 n=f4 v=27
46190 On ch=1 n=c#6 v=0
46226 Par ch=1 c=64 v=127
46308 On ch=1 n=f4 v=0
46376 On ch=1 n=d#6 v=0
46460 On ch=1 n=a#5 v=20
46464 On ch=1 n=f#5 v=40
46464 On ch=1 n=d#5 v=40
46470 On ch=1 n=d#6 v=73
46584 On ch=1 n=d#5 v=0
46584 On ch=1 n=f#5 v=0
46616 On ch=1 n=d#6 v=0
46672 On ch=1 n=a#5 v=0
46792 On ch=1 n=d#6 v=67
46806 On ch=1 n=f#5 v=30
46806 On ch=1 n=d#5 v=33
46810 On ch=1 n=c5 v=36
46892 On ch=1 n=f#5 v=0
46904 On ch=1 n=d#5 v=0
46916 On ch=1 n=c5 v=0
47060 On ch=1 n=d#6 v=0
47206 On ch=1 n=d#6 v=60
47220 Par ch=1 c=64 v=0
47248 On ch=1 n=f3 v=27
47316 Par ch=1 c=64 v=127
47390 On ch=1 n=f3 v=0
47614 On ch=1 n=d#5 v=32
47626 On ch=1 n=a5 v=31
47630 On ch=1 n=f6 v=47
47640 On ch=1 n=f5 v=22
47690 On ch=1 n=d#6 v=0
47750 On ch=1 n=f5 v=0
47754 On ch=1 n=a5 v=0
47762 On ch=1 n=d#5 v=0
47780 On ch=1 n=c6 v=55
47834 On ch=1 n=f6 v=0
47932 On ch=1 n=d#5 v=26
47936 On ch=1 n=d#6 v=43
47944 On ch=1 n=f5 v=25
47950 On ch=1 n=a4 v=25
47966 On ch=1 n=c6 v=0
47980 On ch=1 n=f5 v=0
47992 On ch=1 n=d#5 v=0
48004 On ch=1 n=a4 v=0
48080 On ch=1 n=c#6 v=58
48112 On ch=1 n=d#6 v=0
48250 On ch=1 n=a#5 v=46
48250 On ch=1 n=a#3 v=41
48250 Par ch=1 c=64 v=0
48276 On ch=1 n=c#6 v=0
48346 Par ch=1 c=64 v=127
48370 On ch=1 n=a#3 v=0
48558 On ch=1 n=c#5 v=27
48560 On ch=1 n=a#4 v=36
48576 On ch=1 n=f5 v=23
48656 On ch=1 n=a#4 v=0
48656 On ch=1 n=c#5 v=0
48662 On ch=1 n=f5 v=0
48864 On ch=1 n=c#5 v=28
48876 On ch=1 n=a#4 v=27
48876 On ch=1 n=f4 v=29
48934 On ch=1 n=f4 v=0
48934 On ch=1 n=a#4 v=0
48948 On ch=1 n=c#5 v=0
49216 On ch=1 n=g5 v=39
49216 On ch=1 n=c4 v=29
49230 Par ch=1 c=64 v=0
49274 On ch=1 n=a#5 v=0
49324 Par ch=1 c=64 v=127
49334 On ch=1 n=c4 v=0
49590 On ch=1 n=a#4 v=40
49606 On ch=1 n=c5 v=31
49612 On ch=1 n=e5 v=19
49698 On ch=1 n=c5 v=0
49720 On ch=1 n=a#4 v=0
49772 On ch=1 n=e5 v=0
50032 On ch=1 n=c5 v=14
50034 On ch=1 n=g4 v=17
50094 On ch=1 n=g4 v=0
50094 On ch=1 n=c5 v=0
50484 Par ch=1 c=64 v=0
50508 On ch=1 n=f3 v=36
50596 Par ch=1 c=64 v=127
50616 On ch=1 n=f3 v=0
50798 On ch=1 n=g5 v=0
50918 On ch=1 n=g#5 v=26
50926 On ch=1 n=c6 v=58
50942 On ch=1 n=c5 v=22
50948 On ch=1 n=f5 v=18
51016 On ch=1 n=g#5 v=0
51020 On ch=1 n=c5 v=0
51030 On ch=1 n=f5 v=0
51250 On ch=1 n=f6 v=57
51258 On ch=1 n=g#4 v=26
51264 On ch=1 n=f5 v=19
51292 On ch=1 n=c6 v=0
51294 On ch=1 n=c5 v=20
51520 Par ch=1 c=64 v=0
51542 On ch=1 n=f6 v=0
51542 On ch=1 n=e6 v=56
51548 On ch=1 n=f4 v=33
51602 On ch=1 n=c5 v=0
51614 On ch=1 n=g#4 v=0
51626 Par ch=1 c=64 v=127
51646 On ch=1 n=f5 v=0
51674 On ch=1 n=f4 v=0
51840 On ch=1 n=a#5 v=58
51850 On ch=1 n=g5 v=31
51854 On ch=1 n=c#5 v=30
51866 On ch=1 n=e5 v=19
51946 On ch=1 n=e5 v=0
51958 On ch=1 n=g5 v=0
51962 On ch=1 n=c#5 v=0
51964 On ch=1 n=e6 v=0
52140 On ch=1 n=e5 v=33
52144 On ch=1 n=c#5 v=18
52144 On ch=1 n=a#4 v=33
52154 On ch=1 n=c#6 v=62
52214 On ch=1 n=e5 v=0
52216 On ch=1 n=c#5 v=0
52228 On ch=1 n=a#4 v=0
52242 On ch=1 n=a#5 v=0
52426 Par ch=1 c=64 v=0
52456 On ch=1 n=f3 v=36
52522 Par ch=1 c=64 v=127
52568 On ch=1 n=f3 v=0
52774 On ch=1 n=c6 v=67
52774 On ch=1 n=g#5 v=37
52774 On ch=1 n=f5 v=43
52806 On ch=1 n=c#6 v=0
52894 On ch=1 n=g#5 v=0
52896 On ch=1 n=f5 v=0
53076 On ch=1 n=f6 v=54
53092 On ch=1 n=g#4 v=22
53110 On ch=1 n=f5 v=7
53122 On ch=1 n=c6 v=0
53300 On ch=1 n=g#4 v=0
53376 Par ch=1 c=64 v=0
53386 On ch=1 n=f4 v=37
53482 On ch=1 n=f5 v=0
53490 Par ch=1 c=64 v=127
53500 On ch=1 n=f4 v=0
53510 On ch=1 n=f6 v=0
53510 On ch=1 n=e6 v=57
53646 On ch=1 n=g5 v=19
53658 On ch=1 n=a#5 v=60
53676 On ch=1 n=e6 v=0
53676 On ch=1 n=e5 v=25
53684 On ch=1 n=c#5 v=31
53762 On ch=1 n=e5 v=0
53768 On ch=1 n=g5 v=0
53784 On ch=1 n=c#5 v=0
53796 On ch=1 n=c6 v=67
53814 On ch=1 n=a#5 v=0
53958 On ch=1 n=e5 v=26
53970 On ch=1 n=a#4 v=31
53976 On ch=1 n=d#6 v=62
54000 On ch=1 n=c6 v=0
54030 On ch=1 n=e5 v=0
54052 On ch=1 n=a#4 v=0
54118 On ch=1 n=c#6 v=73
54162 On ch=1 n=d#6 v=0
54278 Par ch=1 c=64 v=0
54302 On ch=1 n=f4 v=40
54374 Par ch=1 c=64 v=127
54418 On ch=1 n=f4 v=0
54524 On ch=1 n=c#6 v=0
54590 On ch=1 n=g#5 v=40
54600 On ch=1 n=c6 v=63
54606 On ch=1 n=c5 v=35
54718 On ch=1 n=g#5 v=0
54720 On ch=1 n=c#6 v=73
54756 On ch=1 n=c6 v=0
54802 On ch=1 n=c5 v=0
54874 On ch=1 n=e4 v=41
54882 On ch=1 n=c#6 v=0
54882 On ch=1 n=c6 v=69
54954 On ch=1 n=e4 v=0
54996 On ch=1 n=c#6 v=78
55028 On ch=1 n=c6 v=0
55142 On ch=1 n=d#6 v=69
55148 Par ch=1 c=64 v=0
55158 On ch=1 n=d#4 v=39
55172 On ch=1 n=c#6 v=0
55264 Par ch=1 c=64 v=127
55338 On ch=1 n=d#4 v=0
55360 On ch=1 n=d#6 v=0
55444 On ch=1 n=g#5 v=30
55448 On ch=1 n=d#6 v=71
55458 On ch=1 n=c5 v=39
55600 On ch=1 n=c5 v=0
55620 On ch=1 n=g#5 v=0
55628 On ch=1 n=d#6 v=0
55724 On ch=1 n=d#4 v=40
55730 On ch=1 n=d#6 v=69
55810 On ch=1 n=d#4 v=0
55920 On ch=1 n=d#6 v=0
56050 On ch=1 n=d#3 v=43
56062 On ch=1 n=d#6 v=64
56062 Par ch=1 c=64 v=0
56124 On ch=1 n=d#3 v=0
56142 Par ch=1 c=64 v=127
56436 On ch=1 n=c#5 v=33
56442 On ch=1 n=c#6 v=56
56442 On ch=1 n=g5 v=21
56478 On ch=1 n=d#6 v=0
56536 On ch=1 n=g5 v=0
56544 On ch=1 n=c#5 v=0
56574 On ch=1 n=c#6 v=0
56582 On ch=1 n=c6 v=47
56732 On ch=1 n=a#5 v=43
56736 On ch=1 n=g4 v=40
56742 On ch=1 n=d#4 v=25
56744 On ch=1 n=c#5 v=40
56780 On ch=1 n=c6 v=0
56812 On ch=1 n=d#4 v=0
56856 On ch=1 n=g4 v=0
56864 On ch=1 n=c#5 v=0
56892 On ch=1 n=c6 v=56
56912 On ch=1 n=a#5 v=0
57024 Par ch=1 c=64 v=0
57066 On ch=1 n=g#5 v=36
57066 On ch=1 n=g#3 v=36
57124 Par ch=1 c=64 v=127
57134 On ch=1 n=g#3 v=0
57166 On ch=1 n=c6 v=0
57186 On ch=1 n=g#5 v=0
57396 On ch=1 n=d#5 v=39
57408 On ch=1 n=g#4 v=35
57412 On ch=1 n=c5 v=37
57490 On ch=1 n=c5 v=0
57490 On ch=1 n=d#5 v=0
57492 On ch=1 n=g#4 v=0
57708 On ch=1 n=d#4 v=43
57722 On ch=1 n=c5 v=28
57790 On ch=1 n=c5 v=0
57792 On ch=1 n=d#4 v=0
58026 Par ch=1 c=64 v=0
58046 On ch=1 n=g#3 v=50
58122 Par ch=1 c=64 v=127
58134 On ch=1 n=g#3 v=0
58398 On ch=1 n=g#4 v=44
58404 On ch=1 n=e5 v=43
58404 On ch=1 n=c5 v=47
58498 On ch=1 n=c5 v=0
58504 On ch=1 n=e5 v=0
58518 On ch=1 n=g#4 v=0
58724 On ch=1 n=e4 v=46
58728 On ch=1 n=c5 v=44
58736 On ch=1 n=g#4 v=44
58784 On ch=1 n=c5 v=0
58796 On ch=1 n=g#4 v=0
58810 On ch=1 n=e4 v=0
59188 On ch=1 n=g#2 v=75
59224 Par ch=1 c=64 v=0
59380 Par ch=1 c=64 v=127
59744 On ch=1 n=g#5 v=43
59744 On ch=1 n=d#5 v=42
59756 On ch=1 n=c6 v=41
59758 On ch=1 n=d#6 v=73
59852 On ch=1 n=d#5 v=0
59866 On ch=1 n=c6 v=0
59874 On ch=1 n=g#5 v=0
60088 On ch=1 n=g#5 v=39
60088 On ch=1 n=d#5 v=40
60096 On ch=1 n=c5 v=28
60106 On ch=1 n=g#6 v=73
60126 On ch=1 n=d#6 v=0
60130 On ch=1 n=g#5 v=0
60144 On ch=1 n=c5 v=0
60150 On ch=1 n=d#5 v=0
60406 On ch=1 n=g6 v=63
60418 On ch=1 n=g#4 v=43
60422 On ch=1 n=g#6 v=0
60434 Par ch=1 c=64 v=0
60508 On ch=1 n=g#4 v=0
60508 Par ch=1 c=64 v=127
60626 On ch=1 n=g#2 v=0
60722 On ch=1 n=a#5 v=33
60728 On ch=1 n=c#6 v=63
60736 On ch=1 n=g5 v=39
60736 On ch=1 n=e5 v=40
60770 On ch=1 n=g6 v=0
60828 On ch=1 n=e5 v=0
60832 On ch=1 n=g5 v=0
60838 On ch=1 n=a#5 v=0
61050 On ch=1 n=e6 v=67
61054 On ch=1 n=c#5 v=25
61062 On ch=1 n=g5 v=33
61080 On ch=1 n=c#6 v=0
61134 On ch=1 n=g5 v=0
61134 On ch=1 n=c#5 v=0
61388 Par ch=1 c=64 v=0
61404 On ch=1 n=g#3 v=47
61470 Par ch=1 c=64 v=127
61486 On ch=1 n=g#3 v=0
61700 On ch=1 n=d#6 v=62
61708 On ch=1 n=g#5 v=40
61708 On ch=1 n=d#5 v=33
61720 On ch=1 n=c6 v=26
61728 On ch=1 n=e6 v=0
61810 On ch=1 n=g#5 v=0
61822 On ch=1 n=d#5 v=0
61836 On ch=1 n=c6 v=0
61992 On ch=1 n=g#5 v=39
61994 On ch=1 n=g#6 v=68
61994 On ch=1 n=c5 v=40
62002 On ch=1 n=d#5 v=37
62030 On ch=1 n=d#6 v=0
62042 On ch=1 n=g#5 v=0
62052 On ch=1 n=d#5 v=0
62064 On ch=1 n=c5 v=0
62276 Par ch=1 c=64 v=0
62300 On ch=1 n=g#4 v=43
62374 Par ch=1 c=64 v=127
62386 On ch=1 n=g#4 v=0
62426 On ch=1 n=g6 v=64
62450 On ch=1 n=g#6 v=0
62564 On ch=1 n=a#5 v=47
62576 On ch=1 n=e5 v=42
62578 On ch=1 n=g6 v=0
62578 On ch=1 n=c#6 v=73
62578 On ch=1 n=g5 v=40
62658 On ch=1 n=e5 v=0
62666 On ch=1 n=g5 v=0
62670 On ch=1 n=a#5 v=0
62712 On ch=1 n=d#6 v=61
62742 On ch=1 n=c#6 v=0
62900 On ch=1 n=f#6 v=65
62912 On ch=1 n=d#6 v=0
62912 On ch=1 n=c#5 v=33
62924 On ch=1 n=g5 v=45
62924 On ch=1 n=a#4 v=35
62986 On ch=1 n=g5 v=0
63000 On ch=1 n=a#4 v=0
63006 On ch=1 n=c#5 v=0
63094 On ch=1 n=f#6 v=0
63098 On ch=1 n=e6 v=55
63204 On ch=1 n=e6 v=0
63254 Par ch=1 c=64 v=0
63288 On ch=1 n=g#3 v=50
63350 Par ch=1 c=64 v=127
63478 On ch=1 n=g#3 v=0
63630 On ch=1 n=g#5 v=40
63642 On ch=1 n=d#6 v=67
63650 On ch=1 n=c6 v=53
63780 On ch=1 n=f6 v=62
63794 On ch=1 n=d#6 v=0
63806 On ch=1 n=g#5 v=0
63818 On ch=1 n=c6 v=0
63920 On ch=1 n=c5 v=43
63926 On ch=1 n=d#6 v=74
63934 On ch=1 n=g#5 v=39
63934 On ch=1 n=d#5 v=36
63950 On ch=1 n=f6 v=0
63998 On ch=1 n=d#5 v=0
63998 On ch=1 n=g#5 v=0
64000 On ch=1 n=c5 v=0
64068 On ch=1 n=f6 v=64
64078 On ch=1 n=d#6 v=0
64224 On ch=1 n=f#6 v=67
64224 Par ch=1 c=64 v=0
64236 On ch=1 n=d#3 v=43
64254 On ch=1 n=f6 v=0
64330 Par ch=1 c=64 v=127
64410 On ch=1 n=f#6 v=0
64418 On ch=1 n=d#3 v=0
64534 On ch=1 n=a#5 v=50
64544 On ch=1 n=d#5 v=42
64548 On ch=1 n=f#6 v=77
64556 On ch=1 n=f#5 v=31
64646 On ch=1 n=a#5 v=0
64672 On ch=1 n=f#5 v=0
64680 On ch=1 n=d#5 v=0
64692 On ch=1 n=f#6 v=0
64810 On ch=1 n=a#4 v=35
64822 On ch=1 n=f#5 v=33
64828 On ch=1 n=f#6 v=83
64830 On ch=1 n=d#5 v=36
64886 On ch=1 n=f#5 v=0
64894 On ch=1 n=d#5 v=0
64920 On ch=1 n=a#4 v=0
65016 On ch=1 n=f#6 v=0
65144 On ch=1 n=f#6 v=71
65162 On ch=1 n=f3 v=43
65168 Par ch=1 c=64 v=0
65268 Par ch=1 c=64 v=127
65334 On ch=1 n=f#6 v=0
65360 On ch=1 n=f3 v=0
65518 On ch=1 n=d#5 v=33
65526 On ch=1 n=f6 v=58
65532 On ch=1 n=f5 v=36
65540 On ch=1 n=a5 v=26
65636 On ch=1 n=a5 v=0
65638 On ch=1 n=d#5 v=0
65644 On ch=1 n=f5 v=0
65658 On ch=1 n=c6 v=49
65706 On ch=1 n=f6 v=0
65804 On ch=1 n=d#6 v=54
65808 On ch=1 n=d#5 v=30
65810 On ch=1 n=a4 v=34
65818 On ch=1 n=f5 v=26
65856 On ch=1 n=d#5 v=0
65862 On ch=1 n=c6 v=0
65876 On ch=1 n=a4 v=0
65882 On ch=1 n=f5 v=0
65936 On ch=1 n=c#6 v=56
65960 On ch=1 n=d#6 v=0
66096 On ch=1 n=a#5 v=47
66102 On ch=1 n=c#6 v=0
66108 On ch=1 n=a#3 v=39
66114 Par ch=1 c=64 v=0
66212 Par ch=1 c=64 v=127
66288 On ch=1 n=a#3 v=0
66438 On ch=1 n=a#4 v=27
66448 On ch=1 n=c#5 v=20
66456 On ch=1 n=f5 v=18
66520 On ch=1 n=f5 v=0
66542 On ch=1 n=a#4 v=0
66550 On ch=1 n=c#5 v=0
66770 On ch=1 n=c#5 v=23
66774 On ch=1 n=a#4 v=22
66798 On ch=1 n=f4 v=34
66858 On ch=1 n=c#5 v=0
66860 On ch=1 n=a#4 v=0
66870 On ch=1 n=f4 v=0
67174 On ch=1 n=f#3 v=49
67186 Par ch=1 c=64 v=0
67294 Par ch=1 c=64 v=127
67308 On ch=1 n=a#5 v=0
67330 On ch=1 n=f#3 v=0
67558 On ch=1 n=c#6 v=48
67562 On ch=1 n=f#5 v=19
67570 On ch=1 n=a#4 v=30
67582 On ch=1 n=c#5 v=20
67692 On ch=1 n=c#5 v=0
67710 On ch=1 n=a#4 v=0
67710 On ch=1 n=f#5 v=0
67732 On ch=1 n=c#6 v=0
67732 On ch=1 n=d#6 v=46
67876 On ch=1 n=c#5 v=39
67888 On ch=1 n=f#4 v=25
67890 On ch=1 n=c#6 v=73
67890 On ch=1 n=a#4 v=36
67912 On ch=1 n=d#6 v=0
67936 On ch=1 n=c#5 v=0
67950 On ch=1 n=a#4 v=0
67962 On ch=1 n=f#4 v=0
68032 On ch=1 n=d#6 v=62
68070 On ch=1 n=c#6 v=0
68180 Par ch=1 c=64 v=0
68200 On ch=1 n=f6 v=54
68200 On ch=1 n=c#3 v=49
68230 On ch=1 n=d#6 v=0
68318 Par ch=1 c=64 v=127
68330 On ch=1 n=c#3 v=0
68406 On ch=1 n=f6 v=0
68504 On ch=1 n=c#5 v=40
68508 On ch=1 n=f5 v=40
68510 On ch=1 n=f6 v=64
68524 On ch=1 n=g#4 v=25
68598 On ch=1 n=f5 v=0
68626 On ch=1 n=c#5 v=0
68628 On ch=1 n=g#4 v=0
68688 On ch=1 n=f6 v=0
68818 On ch=1 n=f6 v=67
68826 On ch=1 n=c#5 v=19
68834 On ch=1 n=f4 v=33
68840 On ch=1 n=g#4 v=34
68896 On ch=1 n=f4 v=0
68906 On ch=1 n=c#5 v=0
68926 On ch=1 n=g#4 v=0
69032 On ch=1 n=f6 v=0
69204 On ch=1 n=d#3 v=44
69240 On ch=1 n=f6 v=67
69240 Par ch=1 c=64 v=0
69350 Par ch=1 c=64 v=127
69366 On ch=1 n=d#3 v=0
69614 On ch=1 n=d#6 v=56
69616 On ch=1 n=c5 v=40
69626 On ch=1 n=a#4 v=37
69630 On ch=1 n=f#5 v=20
69674 On ch=1 n=f6 v=0
69724 On ch=1 n=f#5 v=0
69736 On ch=1 n=c5 v=0
69758 On ch=1 n=a#4 v=0
69764 On ch=1 n=a#5 v=62
69778 On ch=1 n=d#6 v=0
69912 On ch=1 n=d#5 v=30
69920 On ch=1 n=f#4 v=40
69924 On ch=1 n=c#6 v=49
69934 On ch=1 n=a#4 v=25
69954 On ch=1 n=a#5 v=0
69992 On ch=1 n=d#5 v=0
70016 On ch=1 n=a#4 v=0
70040 On ch=1 n=f#4 v=0
70046 On ch=1 n=c#6 v=0
70052 On ch=1 n=c6 v=62
70208 Par ch=1 c=64 v=0
70216 On ch=1 n=a5 v=56
70226 On ch=1 n=f3 v=40
70234 On ch=1 n=c6 v=0
70310 Par ch=1 c=64 v=127
70350 On ch=1 n=f3 v=0
70378 On ch=1 n=a5 v=0
70550 On ch=1 n=c6 v=58
70562 On ch=1 n=c5 v=22
70564 On ch=1 n=f5 v=31
70570 On ch=1 n=a5 v=25
70682 On ch=1 n=a5 v=0
70694 On ch=1 n=f5 v=0
70696 On ch=1 n=c5 v=0
70862 On ch=1 n=f6 v=58
70884 On ch=1 n=f5 v=20
70884 On ch=1 n=a4 v=27
70896 On ch=1 n=c5 v=25
70922 On ch=1 n=c6 v=0
71134 On ch=1 n=a4 v=0
71136 Par ch=1 c=64 v=0
71156 On ch=1 n=c5 v=0
71162 On ch=1 n=e6 v=62
71162 On ch=1 n=f4 v=36
71190 On ch=1 n=f6 v=0
71236 On ch=1 n=f5 v=0
71246 Par ch=1 c=64 v=127
71252 On ch=1 n=f4 v=0
71460 On ch=1 n=g5 v=27
71460 On ch=1 n=e5 v=25
71462 On ch=1 n=c#5 v=27
71470 On ch=1 n=a#5 v=40
71486 On ch=1 n=e6 v=0
71556 On ch=1 n=g5 v=0
71564 On ch=1 n=e5 v=0
71588 On ch=1 n=c#5 v=0
71768 On ch=1 n=c#6 v=60
71768 On ch=1 n=a#4 v=26
71772 On ch=1 n=e5 v=30
71784 On ch=1 n=c#5 v=21
71810 On ch=1 n=a#5 v=0
71832 On ch=1 n=e5 v=0
71836 On ch=1 n=c#5 v=0
71842 On ch=1 n=a#4 v=0
72054 Par ch=1 c=64 v=0
72084 On ch=1 n=f3 v=43
72166 Par ch=1 c=64 v=127
72228 On ch=1 n=f3 v=0
72388 On ch=1 n=c6 v=57
72392 On ch=1 n=a5 v=29
72398 On ch=1 n=c5 v=28
72410 On ch=1 n=f5 v=25
72420 On ch=1 n=c#6 v=0
72498 On ch=1 n=f5 v=0
72498 On ch=1 n=a5 v=0
72502 On ch=1 n=c5 v=0
72680 On ch=1 n=f6 v=47
72706 On ch=1 n=a4 v=21
72712 On ch=1 n=f5 v=21
72720 On ch=1 n=c5 v=25
72728 On ch=1 n=c6 v=0
72960 Par ch=1 c=64 v=0
73002 On ch=1 n=f4 v=41
73040 On ch=1 n=a4 v=0
73074 On ch=1 n=c5 v=0
73076 Par ch=1 c=64 v=127
73096 On ch=1 n=f4 v=0
73100 On ch=1 n=f5 v=0
73136 On ch=1 n=e6 v=61
73146 On ch=1 n=f6 v=0
73272 On ch=1 n=a#5 v=43
73284 On ch=1 n=c#5 v=30
73296 On ch=1 n=g5 v=21
73300 On ch=1 n=e6 v=0
73308 On ch=1 n=e5 v=18
73382 On ch=1 n=e5 v=0
73394 On ch=1 n=g5 v=0
73404 On ch=1 n=c#5 v=0
73424 On ch=1 n=c6 v=69
73456 On ch=1 n=a#5 v=0
73560 On ch=1 n=e5 v=29
73566 On ch=1 n=a#4 v=30
73574 On ch=1 n=d#6 v=61
73578 On ch=1 n=c#5 v=20
73596 On ch=1 n=c6 v=0
73614 On ch=1 n=e5 v=0
73620 On ch=1 n=c#5 v=0
73630 On ch=1 n=a#4 v=0
73704 On ch=1 n=c#6 v=67
73740 On ch=1 n=d#6 v=0
73878 Par ch=1 c=64 v=0
73894 On ch=1 n=c#6 v=0
73894 On ch=1 n=f3 v=57
73976 Par ch=1 c=64 v=127
74024 On ch=1 n=f3 v=0
74276 On ch=1 n=c6 v=58
74276 On ch=1 n=f#5 v=26
74286 On ch=1 n=c5 v=31
74288 On ch=1 n=d#5 v=28
74374 On ch=1 n=f#5 v=0
74382 On ch=1 n=d#5 v=0
74384 On ch=1 n=c5 v=0
74418 On ch=1 n=c#6 v=62
74422 On ch=1 n=c6 v=0
74564 On ch=1 n=f#4 v=18
74568 On ch=1 n=c6 v=69
74576 On ch=1 n=c#6 v=0
74576 On ch=1 n=d#5 v=24
74586 On ch=1 n=a#4 v=23
74676 On ch=1 n=c#6 v=71
74686 On ch=1 n=f#4 v=0
74712 On ch=1 n=a#4 v=0
74716 On ch=1 n=c6 v=0
74756 On ch=1 n=d#5 v=0
74774 Par ch=1 c=64 v=0
74812 On ch=1 n=d#6 v=58
74842 On ch=1 n=f4 v=35
74844 On ch=1 n=c#6 v=0
74894 Par ch=1 c=64 v=127
74920 On ch=1 n=f4 v=0
75030 On ch=1 n=d#6 v=0
75108 On ch=1 n=a#5 v=28
75116 On ch=1 n=d#5 v=34
75122 On ch=1 n=d#6 v=58
75124 On ch=1 n=f#5 v=26
75232 On ch=1 n=d#5 v=0
75252 On ch=1 n=f#5 v=0
75256 On ch=1 n=a#5 v=0
75282 On ch=1 n=d#6 v=0
75410 On ch=1 n=d#6 v=73
75420 On ch=1 n=f#5 v=26
75434 On ch=1 n=d#5 v=25
75434 On ch=1 n=c5 v=16
75496 On ch=1 n=d#5 v=0
75496 On ch=1 n=f#5 v=0
75520 On ch=1 n=c5 v=0
75618 On ch=1 n=d#6 v=0
75776 On ch=1 n=d#6 v=64
75786 On ch=1 n=f3 v=49
75788 Par ch=1 c=64 v=0
75882 Par ch=1 c=64 v=127
75898 On ch=1 n=f3 v=0
76160 On ch=1 n=f6 v=48
76170 On ch=1 n=d#5 v=18
76176 On ch=1 n=a5 v=16
76214 On ch=1 n=d#6 v=0
76276 On ch=1 n=a5 v=0
76288 On ch=1 n=d#5 v=0
76332 On ch=1 n=c6 v=57
76378 On ch=1 n=f6 v=0
76500 On ch=1 n=d#6 v=48
76520 On ch=1 n=f5 v=19
76522 On ch=1 n=a4 v=15
76526 On ch=1 n=c6 v=0
76528 On ch=1 n=d#5 v=20
76596 On ch=1 n=a4 v=0
76602 On ch=1 n=d#5 v=0
76640 On ch=1 n=f5 v=0
76642 On ch=1 n=c#6 v=58
76672 On ch=1 n=d#6 v=0
76836 On ch=1 n=a#5 v=53
76846 Par ch=1 c=64 v=0
76856 On ch=1 n=c#6 v=0
76856 On ch=1 n=a#3 v=26
76962 Par ch=1 c=64 v=127
77242 On ch=1 n=a#4 v=23
77244 On ch=1 n=f5 v=18
77252 On ch=1 n=c#5 v=18
77374 On ch=1 n=c#5 v=0
77374 On ch=1 n=a#4 v=0
77394 On ch=1 n=f5 v=0
77544 On ch=1 n=c#5 v=21
77554 On ch=1 n=a#4 v=25
77566 On ch=1 n=f4 v=19
77652 On ch=1 n=f4 v=0
77652 On ch=1 n=a#4 v=0
77660 On ch=1 n=c#5 v=0
77838 On ch=1 n=a#4 v=39
77844 On ch=1 n=f#5 v=26
77850 On ch=1 n=c#5 v=28
77946 On ch=1 n=c#5 v=0
77946 On ch=1 n=a#4 v=0
77964 On ch=1 n=f#5 v=0
78124 On ch=1 n=a#4 v=34
78142 On ch=1 n=f5 v=24
78142 On ch=1 n=c#5 v=20
78150 On ch=1 n=a#5 v=0
78170 On ch=1 n=a#3 v=0
78218 On ch=1 n=c#5 v=0
78218 On ch=1 n=f5 v=0
78222 On ch=1 n=a#4 v=0
78414 On ch=1 n=c#5 v=24
78416 On ch=1 n=a#4 v=30
78420 On ch=1 n=f4 v=30
78486 On ch=1 n=c#5 v=0
78488 On ch=1 n=a#4 v=0
78498 On ch=1 n=f4 v=0
78716 On ch=1 n=f4 v=28
78718 On ch=1 n=a#4 v=26
78728 On ch=1 n=c#4 v=19
79008 Par ch=1 c=64 v=0
79030 On ch=1 n=a#3 v=44
79032 On ch=1 n=a#2 v=41
79102 Par ch=1 c=64 v=127
79186 On ch=1 n=a#3 v=0
79188 On ch=1 n=a#2 v=0
79270 On ch=1 n=c#4 v=0
79336 On ch=1 n=g#2 v=41
79342 On ch=1 n=g#3 v=46
79456 On ch=1 n=f4 v=0
79524 On ch=1 n=a#4 v=0
79586 On ch=1 n=g#2 v=0
79592 On ch=1 n=g#3 v=0
79614 Par ch=1 c=64 v=0
79624 On ch=1 n=f#2 v=41
79634 On ch=1 n=f#3 v=48
79694 Par ch=1 c=64 v=127
79824 On ch=1 n=f#2 v=0
79834 On ch=1 n=f#3 v=0
79926 On ch=1 n=c#3 v=33
79940 On ch=1 n=c#4 v=43
80126 On ch=1 n=c#3 v=0
80140 On ch=1 n=c#4 v=0
80234 On ch=1 n=f#4 v=45
80234 On ch=1 n=f#3 v=46
80404 On ch=1 n=f#3 v=0
80434 On ch=1 n=f#4 v=0
80532 On ch=1 n=a#3 v=23
80536 On ch=1 n=a#4 v=27
80542 On ch=1 n=f#6 v=49
80548 On ch=1 n=a#5 v=49
80558 On ch=1 n=f#5 v=26
80596 Par ch=1 c=64 v=0
80670 Par ch=1 c=64 v=127
80772 On ch=1 n=a#3 v=0
80776 On ch=1 n=a#4 v=0
80904 On ch=1 n=d#5 v=18
80916 On ch=1 n=d#4 v=29
81144 On ch=1 n=d#5 v=0
81156 On ch=1 n=d#4 v=0
81156 On ch=1 n=a#5 v=0
81164 On ch=1 n=f#5 v=0
81174 On ch=1 n=f#6 v=0
81246 On ch=1 n=f#6 v=49
81258 On ch=1 n=a#5 v=49
81260 On ch=1 n=f#5 v=24
81268 On ch=1 n=f#6 v=25
81272 On ch=1 n=a#4 v=41
81272 On ch=1 n=a#3 v=41
81424 On ch=1 n=f#6 v=0
81468 On ch=1 n=f#5 v=0
81468 On ch=1 n=a#5 v=0
81478 On ch=1 n=f#6 v=0
81512 On ch=1 n=a#3 v=0
81512 On ch=1 n=a#4 v=0
81656 On ch=1 n=f#6 v=44
81672 On ch=1 n=a#5 v=48
81672 On ch=1 n=f#5 v=23
81672 On ch=1 n=c#5 v=37
81672 On ch=1 n=c#4 v=38
81706 Par ch=1 c=64 v=0
81814 Par ch=1 c=64 v=127
81882 On ch=1 n=c#4 v=0
81912 On ch=1 n=c#5 v=0
81980 On ch=1 n=d#5 v=41
81984 On ch=1 n=d#4 v=33
82220 On ch=1 n=d#5 v=0
82224 On ch=1 n=d#4 v=0
82232 On ch=1 n=a#4 v=24
82240 On ch=1 n=a#3 v=38
82446 On ch=1 n=a#3 v=0
82472 On ch=1 n=a#4 v=0
82496 On ch=1 n=c#5 v=40
82496 On ch=1 n=c#4 v=34
82736 On ch=1 n=c#4 v=0
82736 On ch=1 n=c#5 v=0
82742 On ch=1 n=g#3 v=44
82750 On ch=1 n=g#4 v=24
82954 On ch=1 n=g#3 v=0
82988 On ch=1 n=a#3 v=46
82990 On ch=1 n=g#4 v=0
82996 On ch=1 n=a#4 v=43
83228 On ch=1 n=a#3 v=0
83236 On ch=1 n=a#4 v=0
83240 On ch=1 n=f#4 v=53
83240 On ch=1 n=f#3 v=36
83480 On ch=1 n=f#3 v=0
83480 On ch=1 n=f#4 v=0
83482 On ch=1 n=d#4 v=49
83494 On ch=1 n=d#3 v=45
83722 On ch=1 n=d#4 v=0
83734 On ch=1 n=d#3 v=0
83752 On ch=1 n=a#2 v=49
83760 On ch=1 n=a#3 v=53
83898 On ch=1 n=f#6 v=0
83908 On ch=1 n=f#5 v=0
83908 On ch=1 n=a#5 v=0
83992 On ch=1 n=a#2 v=0
84000 On ch=1 n=a#3 v=0
84004 On ch=1 n=a#5 v=53
84016 On ch=1 n=f#6 v=56
84016 On ch=1 n=f#5 v=42
84016 On ch=1 n=c#3 v=49
84022 On ch=1 n=c#4 v=54
84046 Par ch=1 c=64 v=0
84140 Par ch=1 c=64 v=127
84280 On ch=1 n=g#2 v=49
84282 On ch=1 n=g#3 v=49
84306 On ch=1 n=c#3 v=0
84312 On ch=1 n=c#4 v=0
84390 On ch=1 n=f#5 v=0
84392 On ch=1 n=a#5 v=0
84426 On ch=1 n=f#6 v=0
84496 On ch=1 n=g#2 v=0
84498 On ch=1 n=g#3 v=0
84512 On ch=1 n=f#6 v=51
84514 On ch=1 n=f#5 v=43
84524 On ch=1 n=a#5 v=52
84536 On ch=1 n=a#3 v=46
84544 On ch=1 n=a#2 v=49
84644 On ch=1 n=a#5 v=0
84658 On ch=1 n=f#5 v=0
84672 On ch=1 n=f#6 v=0
84776 On ch=1 n=a#3 v=0
84782 On ch=1 n=f#6 v=57
84782 On ch=1 n=f#5 v=40
84782 On ch=1 n=f#3 v=49
84784 On ch=1 n=a#2 v=0
84784 On ch=1 n=f#2 v=49
84792 On ch=1 n=a#5 v=52
84794 Par ch=1 c=64 v=0
84878 Par ch=1 c=64 v=127
85022 On ch=1 n=f#3 v=0
85024 On ch=1 n=f#2 v=0
85056 On ch=1 n=d#4 v=28
85060 On ch=1 n=d#5 v=43
85316 On ch=1 n=d#4 v=0
85320 On ch=1 n=d#5 v=0
85326 On ch=1 n=a#4 v=43
85338 On ch=1 n=a#3 v=43
85422 On ch=1 n=f#6 v=0
85434 On ch=1 n=a#5 v=0
85482 On ch=1 n=f#5 v=0
85576 On ch=1 n=a#4 v=0
85588 On ch=1 n=a#3 v=0
85636 On ch=1 n=g#5 v=49
85636 On ch=1 n=c#5 v=41
85636 On ch=1 n=c#4 v=27
85644 On ch=1 n=f6 v=54
85658 On ch=1 n=f5 v=27
85670 Par ch=1 c=64 v=0
85744 Par ch=1 c=64 v=127
85876 On ch=1 n=c#4 v=0
85876 On ch=1 n=c#5 v=0
85918 On ch=1 n=g#3 v=38
85920 On ch=1 n=g#4 v=43
86160 On ch=1 n=g#4 v=0
86162 On ch=1 n=g#3 v=0
86184 On ch=1 n=a#4 v=43
86184 On ch=1 n=a#3 v=33
86260 On ch=1 n=f6 v=0
86302 On ch=1 n=g#5 v=0
86328 On ch=1 n=f5 v=0
86424 On ch=1 n=a#3 v=0
86424 On ch=1 n=a#4 v=0
86542 On ch=1 n=b3 v=36
86544 On ch=1 n=b4 v=32
86546 On ch=1 n=g#5 v=49
86548 On ch=1 n=e6 v=51
86548 On ch=1 n=e5 v=37
86582 Par ch=1 c=64 v=0
86676 Par ch=1 c=64 v=127
86822 On ch=1 n=b3 v=0
86824 On ch=1 n=b4 v=0
86960 On ch=1 n=b2 v=43
86968 On ch=1 n=b3 v=41
87248 On ch=1 n=e4 v=42
87248 On ch=1 n=e3 v=42
87268 On ch=1 n=b2 v=0
87328 On ch=1 n=b3 v=0
87392 On ch=1 n=e6 v=0
87396 On ch=1 n=g#5 v=0
87416 On ch=1 n=e5 v=0
87510 On ch=1 n=g#5 v=39
87516 On ch=1 n=e6 v=48
87516 On ch=1 n=e5 v=32
87516 On ch=1 n=g#3 v=46
87526 On ch=1 n=g#4 v=48
87550 Par ch=1 c=64 v=0
87552 On ch=1 n=e3 v=0
87552 On ch=1 n=e4 v=0
87606 Par ch=1 c=64 v=127
87756 On ch=1 n=g#3 v=0
87776 On ch=1 n=c#4 v=43
87788 On ch=1 n=c#5 v=52
87828 On ch=1 n=g#4 v=0
87912 On ch=1 n=g#5 v=0
87938 On ch=1 n=e6 v=0
87958 On ch=1 n=e5 v=0
88010 On ch=1 n=g#5 v=49
88010 On ch=1 n=e5 v=30
88016 On ch=1 n=g#4 v=53
88024 On ch=1 n=e6 v=48
88032 On ch=1 n=g#3 v=36
88078 On ch=1 n=c#4 v=0
88090 On ch=1 n=c#5 v=0
88144 On ch=1 n=e5 v=0
88150 On ch=1 n=g#5 v=0
88156 On ch=1 n=e6 v=0
88262 On ch=1 n=g#5 v=53
88274 On ch=1 n=e6 v=52
88274 On ch=1 n=e5 v=40
88274 Par ch=1 c=64 v=0
88280 On ch=1 n=b4 v=49
88290 On ch=1 n=b3 v=43
88318 On ch=1 n=g#4 v=0
88334 On ch=1 n=g#3 v=0
88362 Par ch=1 c=64 v=127
88520 On ch=1 n=c#5 v=47
88528 On ch=1 n=c#4 v=43
88532 On ch=1 n=c#7 v=31
88584 On ch=1 n=b4 v=0
88596 On ch=1 n=b3 v=0
88702 On ch=1 n=c#7 v=0
88722 On ch=1 n=g#4 v=53
88734 On ch=1 n=g#3 v=36
88820 On ch=1 n=c#5 v=0
88828 On ch=1 n=c#4 v=0
88920 Par ch=1 c=64 v=0
88960 On ch=1 n=b4 v=48
88966 On ch=1 n=b3 v=37
89022 Par ch=1 c=64 v=127
89026 On ch=1 n=g#4 v=0
89038 On ch=1 n=g#3 v=0
89198 On ch=1 n=f#4 v=39
89206 On ch=1 n=f#3 v=51
89262 On ch=1 n=b4 v=0
89268 On ch=1 n=b3 v=0
89412 On ch=1 n=g#4 v=42
89424 On ch=1 n=g#3 v=37
89502 On ch=1 n=f#4 v=0
89512 On ch=1 n=f#3 v=0
89642 On ch=1 n=e4 v=42
89646 On ch=1 n=e3 v=50
89714 On ch=1 n=g#4 v=0
89730 On ch=1 n=g#3 v=0
89846 Par ch=1 c=64 v=0
89864 On ch=1 n=c#3 v=43
89874 On ch=1 n=c#4 v=58
89926 Par ch=1 c=64 v=127
89946 On ch=1 n=e4 v=0
89950 On ch=1 n=e3 v=0
90096 On ch=1 n=g#2 v=43
90100 On ch=1 n=g#3 v=49
90162 On ch=1 n=g#5 v=0
90170 On ch=1 n=c#3 v=0
90178 On ch=1 n=c#4 v=0
90198 On ch=1 n=e5 v=0
90198 On ch=1 n=e6 v=0
90330 Par ch=1 c=64 v=0
90338 On ch=1 n=b3 v=46
90344 On ch=1 n=b2 v=43
90350 On ch=1 n=g#5 v=49
90358 On ch=1 n=e6 v=45
90358 On ch=1 n=e5 v=39
90402 On ch=1 n=g#2 v=0
90406 On ch=1 n=g#3 v=0
90456 Par ch=1 c=64 v=127
90600 On ch=1 n=f#3 v=46
90600 On ch=1 n=f#2 v=43
90648 On ch=1 n=g#5 v=0
90658 On ch=1 n=e6 v=0
90658 On ch=1 n=b3 v=0
90662 On ch=1 n=e5 v=0
90664 On ch=1 n=b2 v=0
90826 On ch=1 n=g#5 v=49
90828 On ch=1 n=e5 v=36
90834 On ch=1 n=g#3 v=30
90836 On ch=1 n=e6 v=43
90840 On ch=1 n=g#2 v=43
90920 On ch=1 n=f#3 v=0
90922 On ch=1 n=f#2 v=0
90928 On ch=1 n=g#5 v=0
90936 On ch=1 n=e5 v=0
90946 On ch=1 n=e6 v=0
91038 Par ch=1 c=64 v=0
91060 On ch=1 n=e3 v=46
91064 On ch=1 n=e2 v=43
91076 On ch=1 n=g#5 v=44
91078 On ch=1 n=e6 v=43
91078 On ch=1 n=e5 v=34
91136 Par ch=1 c=64 v=127
91154 On ch=1 n=g#3 v=0
91160 On ch=1 n=g#2 v=0
91324 On ch=1 n=c#4 v=45
91330 On ch=1 n=c#5 v=46
91380 On ch=1 n=e3 v=0
91386 On ch=1 n=e2 v=0
91580 On ch=1 n=g#4 v=50
91590 On ch=1 n=g#3 v=52
91646 On ch=1 n=c#4 v=0
91654 On ch=1 n=c#5 v=0
91688 On ch=1 n=e6 v=0
91722 On ch=1 n=e5 v=0
91740 On ch=1 n=g#5 v=0
91868 On ch=1 n=b3 v=43
91874 On ch=1 n=b4 v=42
91876 On ch=1 n=d#6 v=44
91876 On ch=1 n=g#5 v=45
91876 On ch=1 n=d#5 v=34
91904 On ch=1 n=g#4 v=0
91906 Par ch=1 c=64 v=0
91912 On ch=1 n=g#3 v=0
92000 Par ch=1 c=64 v=127
92108 On ch=1 n=b3 v=0
92114 On ch=1 n=b4 v=0
92188 On ch=1 n=g#5 v=0
92200 On ch=1 n=a#5 v=27
92202 On ch=1 n=a#4 v=36
92204 On ch=1 n=a#3 v=31
92442 On ch=1 n=a#4 v=0
92444 On ch=1 n=a#3 v=0
92522 On ch=1 n=b5 v=30
92532 On ch=1 n=g#3 v=39
92538 On ch=1 n=a#5 v=0
92538 On ch=1 n=g#4 v=33
92556 On ch=1 n=d#5 v=0
92792 On ch=1 n=g#3 v=0
92798 On ch=1 n=g#4 v=0
92902 On ch=1 n=b5 v=0
92926 Par ch=1 c=64 v=0
92946 On ch=1 n=d5 v=39
92948 On ch=1 n=d#6 v=0
92948 On ch=1 n=a#3 v=42
92976 On ch=1 n=a#2 v=47
93046 Par ch=1 c=64 v=127
93206 On ch=1 n=d5 v=0
93208 On ch=1 n=a#3 v=0
93216 On ch=1 n=a#2 v=0
93416 On ch=1 n=g#4 v=40
93422 On ch=1 n=d5 v=37
93430 On ch=1 n=d6 v=43
93532 On ch=1 n=g#4 v=0
93532 On ch=1 n=d#6 v=54
93550 On ch=1 n=d5 v=0
93568 On ch=1 n=d6 v=0
93650 On ch=1 n=d#6 v=0
93658 On ch=1 n=d6 v=55
93664 On ch=1 n=d5 v=28
93672 On ch=1 n=g#5 v=37
93768 On ch=1 n=d5 v=0
93778 On ch=1 n=g#5 v=0
93778 On ch=1 n=d#6 v=51
93808 On ch=1 n=d6 v=0
93894 On ch=1 n=f6 v=54
93912 On ch=1 n=d#6 v=0
94034 On ch=1 n=f6 v=0
94146 On ch=1 n=g#5 v=37
94166 On ch=1 n=f6 v=53
94180 On ch=1 n=d5 v=28
94180 On ch=1 n=g#4 v=25
94230 On ch=1 n=g#5 v=0
94240 On ch=1 n=d5 v=0
94252 On ch=1 n=g#4 v=0
94306 On ch=1 n=f6 v=0
94400 On ch=1 n=g#4 v=35
94400 On ch=1 n=f4 v=37
94408 On ch=1 n=d5 v=40
94420 On ch=1 n=f6 v=54
94462 On ch=1 n=d5 v=0
94466 On ch=1 n=f4 v=0
94478 On ch=1 n=g#4 v=0
94560 On ch=1 n=f6 v=0
94674 Par ch=1 c=64 v=0
94694 On ch=1 n=b3 v=54
94702 On ch=1 n=f6 v=55
94776 Par ch=1 c=64 v=127
94826 On ch=1 n=b3 v=0
94948 On ch=1 n=g#5 v=45
94956 On ch=1 n=d#5 v=48
94968 On ch=1 n=f#6 v=46
94984 On ch=1 n=f6 v=0
95062 On ch=1 n=d#5 v=0
95066 On ch=1 n=g#5 v=0
95068 On ch=1 n=f6 v=48
95114 On ch=1 n=f#6 v=0
95142 On ch=1 n=d#5 v=45
95142 On ch=1 n=g#4 v=44
95176 On ch=1 n=d#6 v=51
95210 On ch=1 n=f6 v=0
95252 On ch=1 n=g#4 v=0
95252 On ch=1 n=d#5 v=0
95296 On ch=1 n=g#5 v=58
95306 On ch=1 n=d#6 v=0
95412 On ch=1 n=g#5 v=0
95418 Par ch=1 c=64 v=0
95438 On ch=1 n=b6 v=75
95438 On ch=1 n=f3 v=55
95526 Par ch=1 c=64 v=127
95570 On ch=1 n=f3 v=0
95680 On ch=1 n=g#5 v=50
95686 On ch=1 n=d#5 v=48
95770 On ch=1 n=g#5 v=0
95776 On ch=1 n=d#5 v=0
95910 On ch=1 n=g#4 v=46
95918 On ch=1 n=d#5 v=41
95928 On ch=1 n=f4 v=46
95970 On ch=1 n=d#5 v=0
95992 On ch=1 n=f4 v=0
95996 On ch=1 n=g#4 v=0
96130 Par ch=1 c=64 v=0
96152 On ch=1 n=a#3 v=70
96230 Par ch=1 c=64 v=127
96284 On ch=1 n=a#3 v=0
96412 On ch=1 n=d6 v=48
96412 On ch=1 n=d5 v=36
96416 On ch=1 n=g#4 v=45
96504 On ch=1 n=d#6 v=51
96524 On ch=1 n=d6 v=0
96534 On ch=1 n=b6 v=0
96636 On ch=1 n=d6 v=58
96640 On ch=1 n=g#5 v=39
96646 On ch=1 n=d#6 v=0
96648 On ch=1 n=d5 v=0
96648 On ch=1 n=d5 v=39
96654 On ch=1 n=g#4 v=0
96726 On ch=1 n=d#6 v=56
96760 On ch=1 n=g#5 v=0
96760 On ch=1 n=d6 v=0
96768 On ch=1 n=d5 v=0
96834 On ch=1 n=d#6 v=0
96840 Par ch=1 c=64 v=0
96850 On ch=1 n=f6 v=58
96850 On ch=1 n=b3 v=57
96924 Par ch=1 c=64 v=127
96982 On ch=1 n=b3 v=0
96990 On ch=1 n=f6 v=0
97080 On ch=1 n=g#4 v=39
97082 On ch=1 n=g#5 v=46
97086 On ch=1 n=f6 v=54
97094 On ch=1 n=d#5 v=34
97174 On ch=1 n=g#5 v=0
97200 On ch=1 n=d#5 v=0
97200 On ch=1 n=g#4 v=0
97226 On ch=1 n=f6 v=0
97296 On ch=1 n=f4 v=21
97302 On ch=1 n=g#4 v=37
97304 On ch=1 n=d#5 v=35
97316 On ch=1 n=f6 v=51
97380 On ch=1 n=f4 v=0
97386 On ch=1 n=g#4 v=0
97388 On ch=1 n=d#5 v=0
97456 On ch=1 n=f6 v=0
97522 Par ch=1 c=64 v=0
97542 On ch=1 n=f6 v=54
97542 On ch=1 n=c4 v=57
97626 Par ch=1 c=64 v=127
97674 On ch=1 n=c4 v=0
97716 On ch=1 n=f6 v=0
97752 On ch=1 n=f#6 v=49
97752 On ch=1 n=a5 v=43
97760 On ch=1 n=d#5 v=46
97760 On ch=1 n=a4 v=46
97846 On ch=1 n=a5 v=0
97864 On ch=1 n=f6 v=51
97880 On ch=1 n=a4 v=0
97916 On ch=1 n=d#5 v=0
97944 On ch=1 n=d#5 v=46
97944 On ch=1 n=a4 v=46
97952 On ch=1 n=f4 v=32
97958 On ch=1 n=d#6 v=58
97966 On ch=1 n=f#6 v=0
97980 On ch=1 n=f6 v=0
98064 On ch=1 n=a4 v=0
98064 On ch=1 n=d#5 v=0
98066 On ch=1 n=d#6 v=0
98072 On ch=1 n=f4 v=0
98076 On ch=1 n=a5 v=56
98162 On ch=1 n=a5 v=0
98186 Par ch=1 c=64 v=0
98206 On ch=1 n=c7 v=75
98208 On ch=1 n=f3 v=69
98288 Par ch=1 c=64 v=127
98328 On ch=1 n=f3 v=0
98432 On ch=1 n=a5 v=30
98438 On ch=1 n=d#5 v=34
98542 On ch=1 n=d#5 v=0
98550 On ch=1 n=a5 v=0
98644 On ch=1 n=d#5 v=53
98648 On ch=1 n=f4 v=49
98704 On ch=1 n=d#5 v=0
98716 On ch=1 n=f4 v=0
98852 Par ch=1 c=64 v=0
98880 On ch=1 n=a#6 v=67
98880 On ch=1 n=a#3 v=70
98892 On ch=1 n=c7 v=0
98960 Par ch=1 c=64 v=127
99020 On ch=1 n=a#3 v=0
99108 On ch=1 n=g#5 v=49
99120 On ch=1 n=d5 v=51
99120 On ch=1 n=a#4 v=39
99192 On ch=1 n=d5 v=0
99202 On ch=1 n=g#5 v=0
99214 On ch=1 n=a#4 v=0
99338 On ch=1 n=d5 v=48
99344 On ch=1 n=f4 v=21
99348 On ch=1 n=a#4 v=24
99438 On ch=1 n=d5 v=0
99444 On ch=1 n=f4 v=0
99448 On ch=1 n=a#4 v=0
99570 On ch=1 n=c#6 v=73
99580 On ch=1 n=g6 v=54
99580 On ch=1 n=d#3 v=73
99582 Par ch=1 c=64 v=0
99676 On ch=1 n=a#6 v=0
99686 Par ch=1 c=64 v=127
99720 On ch=1 n=d#3 v=0
99738 On ch=1 n=c#6 v=0
99748 On ch=1 n=g6 v=0
99750 On ch=1 n=g#6 v=49
99808 On ch=1 n=g#6 v=0
99828 On ch=1 n=g6 v=51
99832 On ch=1 n=a#4 v=53
99840 On ch=1 n=g5 v=46
99840 On ch=1 n=c#5 v=46
99870 On ch=1 n=g#6 v=58
99878 On ch=1 n=g6 v=0
99916 On ch=1 n=g6 v=58
99928 On ch=1 n=g#6 v=0
99952 On ch=1 n=a#4 v=0
99960 On ch=1 n=c#5 v=0
99960 On ch=1 n=g5 v=0
99966 On ch=1 n=g#6 v=53
100008 On ch=1 n=a#4 v=46
100012 On ch=1 n=c#5 v=36
100024 On ch=1 n=g#6 v=0
100038 On ch=1 n=d#4 v=51
100062 On ch=1 n=f6 v=51
100076 On ch=1 n=g6 v=0
100128 On ch=1 n=a#4 v=0
100132 On ch=1 n=c#5 v=0
100156 On ch=1 n=g6 v=51
100158 On ch=1 n=d#4 v=0
100172 On ch=1 n=f6 v=0
100234 Par ch=1 c=64 v=0
100262 On ch=1 n=a#6 v=53
100262 On ch=1 n=g#3 v=82
100270 On ch=1 n=c#6 v=77
100280 On ch=1 n=g6 v=0
100342 Par ch=1 c=64 v=127
100402 On ch=1 n=g#3 v=0
100422 On ch=1 n=a#6 v=0
100432 On ch=1 n=c#6 v=0
100464 On ch=1 n=g#4 v=37
100472 On ch=1 n=g#6 v=55
100472 On ch=1 n=d#5 v=46
100476 On ch=1 n=f#5 v=58
100486 On ch=1 n=c6 v=60
100592 On ch=1 n=d#5 v=0
100596 On ch=1 n=f#5 v=0
100596 On ch=1 n=d#6 v=73
100622 On ch=1 n=g#4 v=0
100652 On ch=1 n=g#6 v=0
100694 On ch=1 n=g#6 v=73
100696 On ch=1 n=c5 v=46
100704 On ch=1 n=g#4 v=46
100704 On ch=1 n=d#4 v=46
100708 On ch=1 n=d#6 v=0
100776 On ch=1 n=f#6 v=61
100814 On ch=1 n=g#6 v=0
100816 On ch=1 n=c5 v=0
100824 On ch=1 n=d#4 v=0
100824 On ch=1 n=g#4 v=0
100882 Par ch=1 c=64 v=0
100888 On ch=1 n=f#6 v=0
100920 On ch=1 n=c#3 v=67
100926 On ch=1 n=f#6 v=58
100934 On ch=1 n=d#6 v=81
100964 On ch=1 n=c6 v=0
100986 Par ch=1 c=64 v=127
101082 Par ch=1 c=64 v=0
101100 On ch=1 n=f#6 v=0
101144 On ch=1 n=c#5 v=49
101152 On ch=1 n=f6 v=53
101152 On ch=1 n=f5 v=48
101152 On ch=1 n=g#4 v=46
101162 On ch=1 n=d#6 v=0
101162 On ch=1 n=c#6 v=67
101176 Par ch=1 c=64 v=127
101256 On ch=1 n=c#5 v=0
101262 On ch=1 n=c#6 v=0
101264 On ch=1 n=g#5 v=77
101266 On ch=1 n=f5 v=0
101272 On ch=1 n=g#4 v=0
101356 On ch=1 n=c#6 v=61
101370 On ch=1 n=g#4 v=49
101372 On ch=1 n=c#5 v=41
101374 On ch=1 n=g#5 v=0
101380 On ch=1 n=f4 v=50
101480 On ch=1 n=c6 v=61
101486 On ch=1 n=c#6 v=0
101490 On ch=1 n=g#4 v=0
101492 On ch=1 n=c#5 v=0
101500 On ch=1 n=f4 v=0
101550 On ch=1 n=c6 v=0
101550 On ch=1 n=f6 v=0
101560 Par ch=1 c=64 v=0
101580 On ch=1 n=c#3 v=0
101592 On ch=1 n=g#6 v=56
101598 On ch=1 n=f#3 v=77
101606 On ch=1 n=c6 v=77
101672 Par ch=1 c=64 v=127
101770 Par ch=1 c=64 v=0
101808 On ch=1 n=g#6 v=0
101808 On ch=1 n=c#5 v=44
101808 On ch=1 n=a#4 v=46
101810 On ch=1 n=f5 v=53
101816 On ch=1 n=c6 v=0
101820 On ch=1 n=a#5 v=75
101820 Par ch=1 c=64 v=127
101824 On ch=1 n=f#6 v=59
101912 On ch=1 n=f5 v=0
101926 On ch=1 n=c#6 v=55
101928 On ch=1 n=a#4 v=0
101934 On ch=1 n=f#6 v=0
101952 On ch=1 n=c#5 v=0
102024 On ch=1 n=f#4 v=27
102032 On ch=1 n=c#5 v=46
102032 On ch=1 n=a#4 v=46
102038 On ch=1 n=f#6 v=53
102080 On ch=1 n=c#6 v=0
102132 On ch=1 n=f6 v=55
102144 On ch=1 n=f#4 v=0
102152 On ch=1 n=a#4 v=0
102152 On ch=1 n=c#5 v=0
102166 On ch=1 n=f#6 v=0
102166 On ch=1 n=a#5 v=0
102212 On ch=1 n=f6 v=0
102232 Par ch=1 c=64 v=0
102254 On ch=1 n=c3 v=55
102258 On ch=1 n=f#3 v=0
102264 On ch=1 n=f6 v=54
102264 On ch=1 n=a#5 v=77
102338 Par ch=1 c=64 v=127
102420 On ch=1 n=f6 v=0
102456 On ch=1 n=a#5 v=0
102480 On ch=1 n=c6 v=67
102480 On ch=1 n=f#4 v=46
102482 On ch=1 n=d#6 v=53
102486 On ch=1 n=d#5 v=66
102580 On ch=1 n=c6 v=0
102582 On ch=1 n=d#6 v=0
102600 On ch=1 n=c#6 v=57
102604 On ch=1 n=f6 v=48
102630 On ch=1 n=f#4 v=0
102662 On ch=1 n=d#5 v=0
102720 On ch=1 n=c#6 v=0
102720 On ch=1 n=a#5 v=77
102722 On ch=1 n=g#6 v=66
102774 On ch=1 n=f6 v=0
102832 On ch=1 n=c6 v=67
102838 On ch=1 n=f#6 v=54
102846 On ch=1 n=a#5 v=0
102870 On ch=1 n=g#6 v=0
102914 On ch=1 n=c3 v=0
102968 On ch=1 n=c6 v=0
102972 Par ch=1 c=64 v=0
102974 On ch=1 n=f#6 v=0
102980 On ch=1 n=f3 v=56
102990 On ch=1 n=a5 v=61
102990 On ch=1 n=d#5 v=67
103078 Par ch=1 c=64 v=127
103158 On ch=1 n=d#5 v=0
103160 On ch=1 n=f3 v=0
103234 On ch=1 n=a5 v=0
103292 On ch=1 n=d#5 v=56
103304 On ch=1 n=a5 v=46
103312 On ch=1 n=f#5 v=61
103316 On ch=1 n=c6 v=55
103368 On ch=1 n=a5 v=0
103424 On ch=1 n=f4 v=49
103430 On ch=1 n=c#6 v=58
103450 On ch=1 n=d#5 v=0
103454 On ch=1 n=c6 v=0
103538 On ch=1 n=d#5 v=61
103548 On ch=1 n=c6 v=54
103558 On ch=1 n=c#6 v=0
103632 On ch=1 n=c#5 v=45
103642 On ch=1 n=d#5 v=0
103642 On ch=1 n=c#6 v=56
103714 On ch=1 n=c6 v=0
103718 Par ch=1 c=64 v=0
103740 On ch=1 n=c#5 v=0
103750 On ch=1 n=d#6 v=65
103752 On ch=1 n=c5 v=54
103782 On ch=1 n=c#6 v=0
103824 On ch=1 n=f#5 v=0
103950 Par ch=1 c=64 v=127
103974 On ch=1 n=f5 v=51
104102 On ch=1 n=f5 v=0
104106 On ch=1 n=f4 v=0
104152 On ch=1 n=c5 v=0
104180 On ch=1 n=a#5 v=51
104182 On ch=1 n=c#6 v=51
104190 On ch=1 n=a#4 v=48
104198 On ch=1 n=d#6 v=0
104202 On ch=1 n=f5 v=47
104238 On ch=1 n=f5 v=0
104260 On ch=1 n=a#5 v=0
104272 On ch=1 n=c#6 v=0
104296 On ch=1 n=a#4 v=0
104416 On ch=1 n=c#6 v=51
104416 On ch=1 n=a#4 v=45
104424 On ch=1 n=a#5 v=49
104424 On ch=1 n=f5 v=49
104440 On ch=1 n=f4 v=45
104486 On ch=1 n=f5 v=0
104502 On ch=1 n=a#5 v=0
104506 On ch=1 n=a#4 v=0
104514 On ch=1 n=f4 v=0
104516 On ch=1 n=c#6 v=0
104624 On ch=1 n=a#5 v=46
104624 On ch=1 n=e5 v=49
104630 On ch=1 n=c#6 v=48
104638 On ch=1 n=g5 v=55
104744 On ch=1 n=a#5 v=0
104744 On ch=1 n=d#6 v=46
104744 On ch=1 n=c6 v=46
104744 On ch=1 n=f4 v=48
104750 On ch=1 n=e5 v=0
104780 On ch=1 n=c#6 v=0
104848 On ch=1 n=c#6 v=54
104848 On ch=1 n=e5 v=48
104854 On ch=1 n=c6 v=0
104854 On ch=1 n=d#6 v=0
104856 On ch=1 n=a#5 v=58
104926 On ch=1 n=f4 v=0
104928 On ch=1 n=d#6 v=56
104928 On ch=1 n=c6 v=41
104936 On ch=1 n=d#5 v=52
104952 On ch=1 n=a#5 v=0
104980 On ch=1 n=c#6 v=0
104994 On ch=1 n=e5 v=0
105002 On ch=1 n=c6 v=0
105056 On ch=1 n=c#6 v=54
105056 On ch=1 n=c#5 v=57
105060 On ch=1 n=e6 v=55
105094 Par ch=1 c=64 v=0
105106 On ch=1 n=d#5 v=0
105110 On ch=1 n=d#6 v=0
105118 On ch=1 n=g5 v=0
105290 On ch=1 n=f#5 v=54
105296 On ch=1 n=c#6 v=0
105518 On ch=1 n=e6 v=0
105522 On ch=1 n=d#6 v=44
105530 On ch=1 n=a#5 v=46
105534 On ch=1 n=c5 v=40
105556 On ch=1 n=f#5 v=0
105556 On ch=1 n=c#5 v=0
105596 On ch=1 n=a#5 v=0
105620 Par ch=1 c=64 v=127
105632 On ch=1 n=c5 v=0
105664 On ch=1 n=d#6 v=0
105760 On ch=1 n=a#5 v=46
105764 On ch=1 n=d#6 v=31
105772 Par ch=1 c=64 v=0
105786 On ch=1 n=c5 v=37
105844 On ch=1 n=a#5 v=0
105856 Par ch=1 c=64 v=127
105862 On ch=1 n=c5 v=0
105886 On ch=1 n=d#6 v=0
105982 On ch=1 n=d#6 v=43
106018 Par ch=1 c=64 v=0
106098 On ch=1 n=f6 v=37
106116 On ch=1 n=d#6 v=0
106202 On ch=1 n=d#6 v=51
106218 On ch=1 n=f6 v=0
106322 On ch=1 n=f6 v=45
106354 On ch=1 n=d#6 v=0
106472 On ch=1 n=f#6 v=43
106514 On ch=1 n=f6 v=0
106710 On ch=1 n=f#6 v=0
106752 Par ch=1 c=64 v=127
106758 On ch=1 n=f#6 v=48
107038 On ch=1 n=f#6 v=0
107102 On ch=1 n=f#6 v=65
107512 On ch=1 n=f#6 v=0
107588 On ch=1 n=f#6 v=69
108960 On ch=1 n=f#6 v=0
109850 On ch=1 n=f3 v=28
109880 Par ch=1 c=64 v=127
110060 On ch=1 n=f3 v=0
110178 On ch=1 n=d#5 v=30
110186 On ch=1 n=f6 v=43
110186 On ch=1 n=a5 v=21
110286 On ch=1 n=d#5 v=0
110296 On ch=1 n=a5 v=0
110332 On ch=1 n=c6 v=52
110344 On ch=1 n=f6 v=0
110478 On ch=1 n=d#6 v=55
110486 On ch=1 n=d#5 v=15
110494 On ch=1 n=c6 v=0
110494 On ch=1 n=f5 v=15
110500 On ch=1 n=a4 v=16
110590 On ch=1 n=f5 v=0
110598 On ch=1 n=d#5 v=0
110606 On ch=1 n=a4 v=0
110666 On ch=1 n=c#6 v=52
110682 On ch=1 n=d#6 v=0
110870 On ch=1 n=a#3 v=39
110872 On ch=1 n=a#5 v=47
110892 Par ch=1 c=64 v=0
110898 On ch=1 n=c#6 v=0
110964 Par ch=1 c=64 v=127
111074 On ch=1 n=a#3 v=0
111226 On ch=1 n=c#5 v=20
111230 On ch=1 n=f5 v=17
111230 On ch=1 n=a#4 v=17
111332 On ch=1 n=f5 v=0
111338 On ch=1 n=a#4 v=0
111340 On ch=1 n=c#5 v=0
111546 On ch=1 n=c#5 v=21
111558 On ch=1 n=a#4 v=18
111566 On ch=1 n=f4 v=21
111650 On ch=1 n=a#4 v=0
111656 On ch=1 n=c#5 v=0
111660 On ch=1 n=f4 v=0
111884 On ch=1 n=g5 v=45
111890 On ch=1 n=c4 v=23
111906 On ch=1 n=a#5 v=0
111930 Par ch=1 c=64 v=0
111982 Par ch=1 c=64 v=127
112014 On ch=1 n=c4 v=0
112238 On ch=1 n=a#4 v=17
112244 On ch=1 n=e5 v=20
112260 On ch=1 n=c5 v=16
112336 On ch=1 n=e5 v=0
112352 On ch=1 n=c5 v=0
112352 On ch=1 n=a#4 v=0
112612 On ch=1 n=e4 v=16
112614 On ch=1 n=c5 v=16
112614 On ch=1 n=a#4 v=16
112700 On ch=1 n=c5 v=0
112706 On ch=1 n=a#4 v=0
112730 On ch=1 n=e4 v=0
113040 On ch=1 n=f3 v=53
113044 Par ch=1 c=64 v=0
113094 On ch=1 n=g5 v=0
113118 Par ch=1 c=64 v=127
113262 On ch=1 n=g#5 v=37
113328 On ch=1 n=g#5 v=0
113412 On ch=1 n=f3 v=0
113466 On ch=1 n=c5 v=30
113466 On ch=1 n=g#4 v=25
113466 On ch=1 n=f4 v=28
113472 On ch=1 n=g#5 v=39
113476 On ch=1 n=c6 v=57
113562 On ch=1 n=f4 v=0
113580 On ch=1 n=g#4 v=0
113588 On ch=1 n=c5 v=0
113662 On ch=1 n=g5 v=27
113668 On ch=1 n=g#5 v=0
113724 On ch=1 n=c6 v=0
113728 On ch=1 n=g5 v=0
113758 On ch=1 n=g#4 v=28
113798 On ch=1 n=c5 v=30
113822 On ch=1 n=c6 v=39
113828 On ch=1 n=f6 v=57
113828 On ch=1 n=g#5 v=39
113828 On ch=1 n=g5 v=33
113864 On ch=1 n=c5 v=0
113868 On ch=1 n=g#5 v=0
113868 On ch=1 n=g#4 v=0
113898 On ch=1 n=g5 v=0
113920 On ch=1 n=c6 v=0
113990 On ch=1 n=f5 v=44
114054 On ch=1 n=f5 v=0
114078 On ch=1 n=f6 v=0
114166 On ch=1 n=c#6 v=38
114176 On ch=1 n=e6 v=52
114176 On ch=1 n=a#5 v=39
114178 On ch=1 n=f3 v=60
114184 On ch=1 n=g4 v=40
114184 On ch=1 n=c#4 v=40
114194 Par ch=1 c=64 v=0
114228 Par ch=1 c=64 v=127
114264 On ch=1 n=c#4 v=0
114288 On ch=1 n=g4 v=0
114336 On ch=1 n=c#6 v=0
114354 On ch=1 n=a#5 v=0
114358 On ch=1 n=g#5 v=31
114416 On ch=1 n=g#5 v=0
114430 On ch=1 n=e6 v=0
114508 On ch=1 n=c#5 v=36
114518 On ch=1 n=g5 v=39
114522 On ch=1 n=a#5 v=55
114522 On ch=1 n=f4 v=36
114538 On ch=1 n=a#4 v=19
114540 Par ch=1 c=64 v=0
114554 On ch=1 n=f3 v=0
114574 Par ch=1 c=64 v=127
114620 On ch=1 n=a#4 v=0
114620 On ch=1 n=f4 v=0
114646 On ch=1 n=c#5 v=0
114684 On ch=1 n=f5 v=31
114690 On ch=1 n=g5 v=0
114750 On ch=1 n=f5 v=0
114784 On ch=1 n=a#5 v=0
114852 On ch=1 n=a#4 v=35
114856 On ch=1 n=g5 v=33
114856 On ch=1 n=e5 v=39
114856 On ch=1 n=c#5 v=33
114858 On ch=1 n=c#6 v=57
114866 Par ch=1 c=64 v=0
114900 On ch=1 n=g5 v=0
114902 Par ch=1 c=64 v=127
114930 On ch=1 n=c#5 v=0
114932 On ch=1 n=a#4 v=0
115018 On ch=1 n=a#5 v=37
115036 On ch=1 n=e5 v=0
115076 On ch=1 n=a#5 v=0
115182 On ch=1 n=a#5 v=39
115184 On ch=1 n=f4 v=37
115188 On ch=1 n=c5 v=37
115192 On ch=1 n=f3 v=51
115200 Par ch=1 c=64 v=0
115242 Par ch=1 c=64 v=127
115318 On ch=1 n=c#6 v=0
115324 On ch=1 n=f4 v=0
115344 On ch=1 n=c5 v=0
115356 On ch=1 n=g#5 v=37
115380 On ch=1 n=a#5 v=0
115412 On ch=1 n=g#5 v=0
115522 On ch=1 n=c6 v=56
115522 On ch=1 n=g#5 v=42
115522 On ch=1 n=g#4 v=22
115530 On ch=1 n=f4 v=28
115532 On ch=1 n=c5 v=33
115534 On ch=1 n=f3 v=0
115544 Par ch=1 c=64 v=0
115568 Par ch=1 c=64 v=127
115620 On ch=1 n=f4 v=0
115634 On ch=1 n=g#4 v=0
115658 On ch=1 n=c5 v=0
115696 On ch=1 n=g5 v=37
115718 On ch=1 n=g#5 v=0
115758 On ch=1 n=g5 v=0
115780 On ch=1 n=c6 v=0
115794 On ch=1 n=g#4 v=37
115826 On ch=1 n=c5 v=37
115862 On ch=1 n=g5 v=30
115864 On ch=1 n=c6 v=39
115870 On ch=1 n=g#5 v=50
115874 On ch=1 n=f6 v=57
115900 On ch=1 n=c5 v=0
115900 On ch=1 n=g#4 v=0
115902 On ch=1 n=g#5 v=0
115922 On ch=1 n=g5 v=0
115986 On ch=1 n=c6 v=0
116034 On ch=1 n=f5 v=39
116092 On ch=1 n=f5 v=0
116144 On ch=1 n=f6 v=0
116194 On ch=1 n=c#6 v=39
116196 On ch=1 n=e6 v=52
116196 On ch=1 n=a#5 v=41
116202 On ch=1 n=f3 v=53
116202 Par ch=1 c=64 v=0
116210 On ch=1 n=c4 v=39
116212 On ch=1 n=g4 v=42
116242 Par ch=1 c=64 v=127
116262 On ch=1 n=c#6 v=0
116304 On ch=1 n=c4 v=0
116338 On ch=1 n=g4 v=0
116340 On ch=1 n=a#5 v=0
116354 On ch=1 n=c6 v=39
116354 On ch=1 n=g#5 v=39
116406 On ch=1 n=c6 v=0
116444 On ch=1 n=g#5 v=0
116500 On ch=1 n=e6 v=0
116514 On ch=1 n=c#5 v=28
116520 On ch=1 n=a#5 v=52
116524 On ch=1 n=g5 v=42
116530 On ch=1 n=f4 v=30
116536 On ch=1 n=a#4 v=19
116544 Par ch=1 c=64 v=0
116558 On ch=1 n=f3 v=0
116580 Par ch=1 c=64 v=127
116652 On ch=1 n=a#4 v=0
116656 On ch=1 n=f4 v=0
116664 On ch=1 n=g#5 v=39
116670 On ch=1 n=f5 v=39
116680 On ch=1 n=c#5 v=0
116686 On ch=1 n=g5 v=0
116724 On ch=1 n=f5 v=0
116734 On ch=1 n=g#5 v=0
116786 On ch=1 n=a#5 v=0
116816 On ch=1 n=c#6 v=52
116824 On ch=1 n=g5 v=37
116828 On ch=1 n=e5 v=37
116832 On ch=1 n=a#4 v=37
116838 On ch=1 n=c#5 v=35
116838 Par ch=1 c=64 v=0
116882 Par ch=1 c=64 v=127
116892 On ch=1 n=e5 v=0
116922 On ch=1 n=c#5 v=0
116928 On ch=1 n=a#4 v=0
116994 On ch=1 n=a#5 v=37
116998 On ch=1 n=f5 v=30
117034 On ch=1 n=f5 v=0
117036 On ch=1 n=g5 v=0
117064 On ch=1 n=a#5 v=0
117072 On ch=1 n=c#6 v=0
117156 On ch=1 n=f3 v=47
117186 On ch=1 n=a#5 v=38
117192 On ch=1 n=c6 v=40
117194 On ch=1 n=c5 v=39
117200 On ch=1 n=g5 v=41
117200 On ch=1 n=c4 v=38
117216 Par ch=1 c=64 v=0
117236 On ch=1 n=c5 v=0
117252 Par ch=1 c=64 v=127
117264 On ch=1 n=a#5 v=0
117270 On ch=1 n=g5 v=0
117320 On ch=1 n=c4 v=0
117374 On ch=1 n=g#5 v=37
117376 On ch=1 n=f5 v=34
117420 On ch=1 n=g#5 v=0
117432 On ch=1 n=f5 v=0
117492 On ch=1 n=c6 v=0
117508 On ch=1 n=f3 v=0
117548 On ch=1 n=c4 v=19
117550 On ch=1 n=g#4 v=35
117556 On ch=1 n=c6 v=57
117556 On ch=1 n=g#5 v=41
117556 On ch=1 n=c5 v=30
117562 On ch=1 n=f5 v=36
117566 On ch=1 n=f4 v=25
117572 Par ch=1 c=64 v=0
117596 Par ch=1 c=64 v=127
117692 On ch=1 n=f4 v=0
117694 On ch=1 n=c5 v=0
117706 On ch=1 n=g#4 v=0
117708 On ch=1 n=a#5 v=40
117710 On ch=1 n=c#6 v=62
117716 On ch=1 n=c6 v=0
117720 On ch=1 n=c4 v=0
117740 On ch=1 n=g#5 v=0
117748 On ch=1 n=f5 v=0
117842 On ch=1 n=a#5 v=0
117852 On ch=1 n=c#6 v=0
117864 On ch=1 n=g#5 v=14
117872 On ch=1 n=c6 v=35
117874 On ch=1 n=e5 v=22
117880 On ch=1 n=e4 v=40
117880 On ch=1 n=e3 v=58
117904 Par ch=1 c=64 v=0
117956 Par ch=1 c=64 v=127
118016 On ch=1 n=c#6 v=62
118020 On ch=1 n=a#5 v=39
118030 On ch=1 n=c6 v=0
118048 On ch=1 n=g#5 v=0
118062 On ch=1 n=e4 v=0
118084 On ch=1 n=e5 v=0
118102 On ch=1 n=c#6 v=0
118114 On ch=1 n=a#5 v=0
118142 On ch=1 n=e3 v=0
118214 On ch=1 n=d#6 v=61
118214 On ch=1 n=c6 v=46
118214 On ch=1 n=d#4 v=47
118218 On ch=1 n=d#5 v=44
118218 On ch=1 n=d#3 v=56
118236 Par ch=1 c=64 v=0
118278 Par ch=1 c=64 v=127
118334 On ch=1 n=d#4 v=0
118404 On ch=1 n=a#5 v=38
118406 On ch=1 n=c#5 v=53
118448 On ch=1 n=c#5 v=0
118458 On ch=1 n=d#6 v=0
118470 On ch=1 n=c6 v=0
118478 On ch=1 n=d#5 v=0
118484 On ch=1 n=a#5 v=0
118536 On ch=1 n=d#3 v=0
118552 On ch=1 n=c#5 v=42
118556 On ch=1 n=d#6 v=66
118560 On ch=1 n=a#5 v=46
118562 On ch=1 n=d#5 v=48
118566 On ch=1 n=d#4 v=47
118690 On ch=1 n=d#4 v=0
118706 On ch=1 n=c5 v=35
118712 On ch=1 n=g#5 v=42
118728 On ch=1 n=c#5 v=0
118734 On ch=1 n=a#5 v=0
118744 On ch=1 n=d#6 v=0
118772 On ch=1 n=c5 v=0
118776 On ch=1 n=g#5 v=0
118788 On ch=1 n=d#5 v=0
118856 On ch=1 n=d#5 v=47
118864 On ch=1 n=g#5 v=44
118880 On ch=1 n=c5 v=47
118888 On ch=1 n=d#4 v=29
118888 Par ch=1 c=64 v=0
118896 On ch=1 n=d#6 v=73
118918 Par ch=1 c=64 v=127
118994 On ch=1 n=g#5 v=0
119052 On ch=1 n=g5 v=40
119052 On ch=1 n=a#4 v=40
119056 On ch=1 n=d#6 v=0
119060 On ch=1 n=d#4 v=0
119068 On ch=1 n=c5 v=0
119080 On ch=1 n=d#5 v=0
119084 On ch=1 n=a#4 v=0
119100 On ch=1 n=g5 v=0
119176 On ch=1 n=c#5 v=50
119220 On ch=1 n=g5 v=39
119244 Par ch=1 c=64 v=0
119258 On ch=1 n=d#3 v=67
119262 On ch=1 n=d#6 v=79
119292 Par ch=1 c=64 v=127
119296 On ch=1 n=c#5 v=0
119354 On ch=1 n=g5 v=0
119456 On ch=1 n=d#4 v=19
119460 On ch=1 n=f5 v=45
119506 On ch=1 n=d#6 v=0
119568 On ch=1 n=f5 v=0
119622 On ch=1 n=d#3 v=0
119622 On ch=1 n=a#4 v=23
119628 On ch=1 n=c#6 v=37
119634 On ch=1 n=f5 v=27
119744 On ch=1 n=c#6 v=0
119770 On ch=1 n=f5 v=0
119794 On ch=1 n=c6 v=66
119796 On ch=1 n=d#4 v=0
119800 On ch=1 n=g5 v=46
119804 On ch=1 n=d#5 v=50
119810 On ch=1 n=a#4 v=0
119942 On ch=1 n=a#5 v=66
119946 On ch=1 n=f5 v=50
119952 On ch=1 n=c6 v=0
119952 On ch=1 n=c#5 v=38
119960 Par ch=1 c=64 v=0
119962 On ch=1 n=g5 v=0
119974 On ch=1 n=d#5 v=0
119976 Par ch=1 c=64 v=127
120084 On ch=1 n=c6 v=68
120088 On ch=1 n=g5 v=50
120090 On ch=1 n=a#5 v=0
120094 On ch=1 n=d#5 v=52
120104 On ch=1 n=c#5 v=0
120116 On ch=1 n=f5 v=0
120218 On ch=1 n=d#5 v=0
120218 On ch=1 n=c6 v=0
120258 On ch=1 n=f5 v=39
120264 On ch=1 n=g#5 v=49
120264 On ch=1 n=c#5 v=42
120266 Par ch=1 c=64 v=0
120274 On ch=1 n=g#4 v=31
120296 On ch=1 n=g5 v=0
120316 Par ch=1 c=64 v=127
120424 On ch=1 n=f5 v=0
120442 On ch=1 n=d#5 v=39
120446 On ch=1 n=c5 v=37
120504 On ch=1 n=d#5 v=0
120506 On ch=1 n=c5 v=0
120526 On ch=1 n=c#5 v=0
120580 On ch=1 n=c5 v=37
120586 On ch=1 n=d#5 v=37
120586 On ch=1 n=c#5 v=1
120626 On ch=1 n=c#5 v=0
120634 On ch=1 n=g#4 v=0
120644 On ch=1 n=c5 v=0
120700 On ch=1 n=d#5 v=0
120736 On ch=1 n=f4 v=43
120738 On ch=1 n=d5 v=33
120742 On ch=1 n=b4 v=41
120802 On ch=1 n=f4 v=0
120816 On ch=1 n=b4 v=0
120816 On ch=1 n=d5 v=0
120892 On ch=1 n=f4 v=23
120900 On ch=1 n=d5 v=37
120900 On ch=1 n=b4 v=30
120980 On ch=1 n=b4 v=0
120982 On ch=1 n=f4 v=0
121048 On ch=1 n=g#4 v=35
121050 On ch=1 n=c#5 v=43
121056 On ch=1 n=e4 v=31
121074 On ch=1 n=d5 v=0
121110 On ch=1 n=c#5 v=0
121112 On ch=1 n=e4 v=0
121126 On ch=1 n=g#4 v=0
121202 On ch=1 n=g#4 v=40
121206 On ch=1 n=c#5 v=44
121210 On ch=1 n=e4 v=40
121246 On ch=1 n=g#4 v=0
121252 On ch=1 n=e4 v=0
121356 On ch=1 n=c5 v=44
121356 On ch=1 n=d#4 v=49
121366 On ch=1 n=c#5 v=0
121422 On ch=1 n=d#4 v=0
121428 On ch=1 n=c5 v=0
121510 On ch=1 n=c5 v=42
121510 On ch=1 n=d#4 v=45
121564 On ch=1 n=d#4 v=0
121588 On ch=1 n=c5 v=0
121670 On ch=1 n=f5 v=49
121670 On ch=1 n=c#3 v=51
121674 On ch=1 n=c#4 v=55
121766 On ch=1 n=c#4 v=0
121768 On ch=1 n=c#3 v=0
121812 On ch=1 n=g#5 v=0
121824 On ch=1 n=c3 v=52
121830 On ch=1 n=c4 v=53
121836 On ch=1 n=d#5 v=47
121838 On ch=1 n=f5 v=0
121882 On ch=1 n=c4 v=0
121884 On ch=1 n=c3 v=0
121904 On ch=1 n=d#5 v=0
121988 On ch=1 n=a#5 v=53
121994 On ch=1 n=c#5 v=59
121998 On ch=1 n=a#3 v=62
122000 On ch=1 n=a#2 v=61
122004 On ch=1 n=g5 v=43
122070 On ch=1 n=g5 v=0
122108 On ch=1 n=a#5 v=0
122132 On ch=1 n=c#5 v=0
122162 On ch=1 n=a#3 v=0
122164 On ch=1 n=a#2 v=0
122182 On ch=1 n=a#5 v=49
122186 On ch=1 n=c6 v=52
122186 On ch=1 n=c5 v=47
122192 On ch=1 n=g#3 v=61
122192 On ch=1 n=g#2 v=60
122208 Par ch=1 c=64 v=0
122242 Par ch=1 c=64 v=127
122288 On ch=1 n=c5 v=0
122338 On ch=1 n=c6 v=0
122348 On ch=1 n=a#5 v=0
122376 On ch=1 n=d#5 v=62
122426 On ch=1 n=d#5 v=0
122430 On ch=1 n=g#2 v=0
122430 On ch=1 n=g#3 v=0
122526 On ch=1 n=d#6 v=70
122526 On ch=1 n=d#5 v=55
122532 On ch=1 n=c6 v=55
122538 On ch=1 n=d#4 v=44
122542 On ch=1 n=c5 v=51
122546 On ch=1 n=g#4 v=43
122554 Par ch=1 c=64 v=0
122570 Par ch=1 c=64 v=127
122624 On ch=1 n=d#5 v=0
122638 On ch=1 n=g#4 v=0
122640 On ch=1 n=d#4 v=0
122666 On ch=1 n=c5 v=0
122682 On ch=1 n=a#5 v=54
122694 On ch=1 n=c6 v=0
122722 On ch=1 n=a#5 v=0
122792 On ch=1 n=d#6 v=0
122800 On ch=1 n=d#4 v=41
122826 On ch=1 n=g#4 v=40
122834 On ch=1 n=c5 v=49
122842 On ch=1 n=g#6 v=55
122846 On ch=1 n=c6 v=56
122846 On ch=1 n=a#5 v=58
122852 On ch=1 n=d#6 v=54
122856 On ch=1 n=d#5 v=55
122908 On ch=1 n=g#4 v=0
122910 On ch=1 n=c5 v=0
122914 On ch=1 n=d#5 v=0
122930 On ch=1 n=d#4 v=0
122934 On ch=1 n=a#5 v=0
122948 On ch=1 n=c6 v=0
122982 On ch=1 n=d#6 v=0
122992 On ch=1 n=g#5 v=58
123052 On ch=1 n=g#5 v=0
123092 On ch=1 n=g#3 v=61
123108 On ch=1 n=g#6 v=0
123132 On ch=1 n=e4 v=61
123154 Par ch=1 c=64 v=0
123166 On ch=1 n=g6 v=67
123166 On ch=1 n=e6 v=51
123168 On ch=1 n=c#6 v=56
123168 On ch=1 n=a#4 v=75
123172 On ch=1 n=g#3 v=0
123184 On ch=1 n=e4 v=0
123192 Par ch=1 c=64 v=127
123196 On ch=1 n=a#4 v=0
123324 On ch=1 n=c#6 v=0
123326 On ch=1 n=e6 v=0
123332 On ch=1 n=d#6 v=55
123332 On ch=1 n=c6 v=44
123386 On ch=1 n=d#6 v=0
123396 On ch=1 n=c6 v=0
123430 On ch=1 n=e4 v=44
123456 On ch=1 n=g4 v=44
123462 On ch=1 n=a#4 v=51
123484 On ch=1 n=c#6 v=78
123490 On ch=1 n=e4 v=0
123492 On ch=1 n=c#5 v=61
123494 On ch=1 n=a#5 v=59
123528 On ch=1 n=g4 v=0
123536 On ch=1 n=a#4 v=0
123540 On ch=1 n=c#5 v=0
123592 On ch=1 n=a#5 v=0
123650 On ch=1 n=c6 v=51
123654 On ch=1 n=g#5 v=49
123696 On ch=1 n=g6 v=0
123718 On ch=1 n=c6 v=0
123746 On ch=1 n=g#5 v=0
123746 On ch=1 n=c#6 v=0
123796 On ch=1 n=e6 v=79
123796 On ch=1 n=g5 v=44
123796 On ch=1 n=c#5 v=47
123804 On ch=1 n=a#4 v=46
123806 On ch=1 n=g4 v=47
123810 On ch=1 n=e5 v=44
123896 On ch=1 n=e5 v=0
123908 On ch=1 n=c#5 v=0
123910 On ch=1 n=a#4 v=0
123914 On ch=1 n=g4 v=0
123940 On ch=1 n=g5 v=0
123956 On ch=1 n=a#5 v=47
123960 On ch=1 n=c#6 v=48
124036 On ch=1 n=a#5 v=0
124062 On ch=1 n=e6 v=0
124096 On ch=1 n=c#6 v=0
124096 On ch=1 n=c#6 v=54
124118 On ch=1 n=d#5 v=51
124128 On ch=1 n=g#2 v=73
124130 On ch=1 n=g#3 v=61
124136 Par ch=1 c=64 v=0
124160 Par ch=1 c=64 v=127
124256 On ch=1 n=c6 v=48
124266 On ch=1 n=c#6 v=0
124278 On ch=1 n=c6 v=0
124278 On ch=1 n=g#2 v=0
124280 On ch=1 n=g#3 v=0
124294 On ch=1 n=a#5 v=34
124302 On ch=1 n=d#5 v=0
124324 On ch=1 n=a#5 v=0
124444 On ch=1 n=d#6 v=70
124446 On ch=1 n=d#4 v=38
124452 On ch=1 n=c6 v=58
124452 On ch=1 n=c5 v=55
124460 On ch=1 n=d#5 v=61
124460 On ch=1 n=g#4 v=49
124514 On ch=1 n=d#4 v=0
124550 On ch=1 n=c6 v=0
124566 On ch=1 n=g#4 v=0
124602 On ch=1 n=c#6 v=59
124604 On ch=1 n=a#5 v=63
124612 On ch=1 n=c5 v=0
124626 On ch=1 n=d#5 v=0
124656 On ch=1 n=a#5 v=0
124658 On ch=1 n=c#6 v=0
124724 On ch=1 n=d#6 v=0
124740 On ch=1 n=g#4 v=37
124754 On ch=1 n=c5 v=49
124764 On ch=1 n=g#6 v=70
124764 On ch=1 n=c#6 v=58
124764 On ch=1 n=a#5 v=55
124770 On ch=1 n=d#6 v=55
124770 On ch=1 n=d#5 v=54
124818 On ch=1 n=g#4 v=0
124822 On ch=1 n=c5 v=0
124832 On ch=1 n=d#5 v=0
124846 On ch=1 n=a#5 v=0
124846 On ch=1 n=c#6 v=0
124882 On ch=1 n=d#6 v=0
124914 On ch=1 n=g#5 v=55
124916 On ch=1 n=c6 v=51
124960 On ch=1 n=g#5 v=0
124966 On ch=1 n=c6 v=0
125006 On ch=1 n=g#3 v=79
125038 On ch=1 n=g#6 v=0
125042 On ch=1 n=e4 v=61
125064 On ch=1 n=g6 v=67
125064 On ch=1 n=c#6 v=58
125068 On ch=1 n=e6 v=54
125072 On ch=1 n=a#4 v=71
125076 Par ch=1 c=64 v=0
125094 On ch=1 n=g#3 v=0
125102 On ch=1 n=e4 v=0
125104 Par ch=1 c=64 v=127
125132 On ch=1 n=a#4 v=0
125204 On ch=1 n=c#6 v=0
125208 On ch=1 n=c6 v=49
125210 On ch=1 n=e6 v=0
125216 On ch=1 n=d#6 v=54
125262 On ch=1 n=c6 v=0
125268 On ch=1 n=d#6 v=0
125316 On ch=1 n=e4 v=39
125344 On ch=1 n=g4 v=38
125348 On ch=1 n=a#4 v=49
125358 Par ch=1 c=64 v=0
125362 On ch=1 n=c#6 v=73
125368 On ch=1 n=a#5 v=58
125374 On ch=1 n=c#5 v=46
125378 Par ch=1 c=64 v=127
125418 On ch=1 n=a#5 v=0
125458 On ch=1 n=e4 v=0
125468 On ch=1 n=c#5 v=0
125480 On ch=1 n=g4 v=0
125490 On ch=1 n=c6 v=54
125490 On ch=1 n=g#5 v=56
125498 On ch=1 n=a#4 v=0
125516 On ch=1 n=g6 v=0
125552 On ch=1 n=c#6 v=0
125562 On ch=1 n=c6 v=0
125580 On ch=1 n=g#5 v=0
125620 On ch=1 n=g4 v=33
125640 On ch=1 n=a#4 v=40
125644 On ch=1 n=c#5 v=37
125648 On ch=1 n=a#5 v=53
125650 On ch=1 n=e6 v=68
125654 On ch=1 n=g5 v=46
125658 On ch=1 n=e5 v=49
125666 Par ch=1 c=64 v=0
125690 Par ch=1 c=64 v=127
125728 On ch=1 n=e5 v=0
125748 On ch=1 n=c#5 v=0
125752 On ch=1 n=a#5 v=0
125754 On ch=1 n=g4 v=0
125760 On ch=1 n=a#4 v=0
125762 On ch=1 n=g5 v=0
125820 On ch=1 n=a#5 v=49
125822 On ch=1 n=c#6 v=49
125882 On ch=1 n=a#5 v=0
126012 On ch=1 n=g#2 v=72
126014 On ch=1 n=g#3 v=73
126016 On ch=1 n=c6 v=55
126020 On ch=1 n=g#5 v=54
126020 On ch=1 n=d#5 v=55
126026 On ch=1 n=c#6 v=0
126032 Par ch=1 c=64 v=0
126074 Par ch=1 c=64 v=127
126102 On ch=1 n=g#5 v=0
126114 On ch=1 n=e6 v=0
126138 On ch=1 n=d#5 v=0
126184 On ch=1 n=g#2 v=0
126186 On ch=1 n=g#3 v=0
126202 On ch=1 n=a#5 v=51
126212 On ch=1 n=c#6 v=49
126230 On ch=1 n=c6 v=0
126256 On ch=1 n=a#5 v=0
126274 On ch=1 n=c#6 v=0
126358 On ch=1 n=d#6 v=69
126366 On ch=1 n=c6 v=53
126366 On ch=1 n=c5 v=54
126372 On ch=1 n=g#4 v=51
126376 On ch=1 n=d#5 v=55
126464 On ch=1 n=g#4 v=0
126474 On ch=1 n=c5 v=0
126502 On ch=1 n=d#5 v=0
126520 On ch=1 n=c#6 v=58
126526 On ch=1 n=f6 v=68
126542 On ch=1 n=d#6 v=0
126548 On ch=1 n=c6 v=0
126640 On ch=1 n=c5 v=48
126656 On ch=1 n=f6 v=0
126666 On ch=1 n=g#5 v=59
126674 On ch=1 n=d#5 v=30
126678 On ch=1 n=d#6 v=79
126682 On ch=1 n=c6 v=58
126716 On ch=1 n=c#6 v=0
126726 On ch=1 n=g#5 v=0
126730 On ch=1 n=d#5 v=0
126750 On ch=1 n=c5 v=0
126818 On ch=1 n=c6 v=0
126820 On ch=1 n=c#6 v=58
126828 On ch=1 n=f6 v=64
126844 On ch=1 n=d#6 v=0
126948 On ch=1 n=d#3 v=79
126954 On ch=1 n=f6 v=0
126974 On ch=1 n=a#3 v=75
126998 Par ch=1 c=64 v=0
127004 On ch=1 n=f#6 v=55
127012 On ch=1 n=d#6 v=55
127012 On ch=1 n=f#5 v=61
127012 On ch=1 n=d#4 v=74
127038 On ch=1 n=c#6 v=0
127042 Par ch=1 c=64 v=127
127054 On ch=1 n=a#3 v=0
127068 On ch=1 n=d#3 v=0
127114 On ch=1 n=d#4 v=0
127160 On ch=1 n=f#6 v=0
127182 On ch=1 n=f6 v=51
127190 On ch=1 n=f#5 v=0
127196 On ch=1 n=d#6 v=0
127308 On ch=1 n=a#4 v=54
127308 On ch=1 n=d#4 v=55
127314 On ch=1 n=f#6 v=79
127314 On ch=1 n=c5 v=58
127320 On ch=1 n=d#6 v=61
127336 On ch=1 n=f6 v=0
127378 On ch=1 n=d#4 v=0
127402 On ch=1 n=a#4 v=0
127416 On ch=1 n=c5 v=0
127446 On ch=1 n=d#6 v=0
127456 On ch=1 n=c#6 v=51
127484 On ch=1 n=f#6 v=0
127596 On ch=1 n=a#4 v=45
127606 On ch=1 n=c5 v=47
127608 On ch=1 n=d#5 v=51
127614 On ch=1 n=c6 v=51
127616 On ch=1 n=f#6 v=79
127628 On ch=1 n=c#6 v=0
127636 On ch=1 n=f#5 v=59
127660 On ch=1 n=a#4 v=0
127668 On ch=1 n=d#5 v=0
127668 On ch=1 n=c5 v=0
127674 On ch=1 n=f#5 v=0
127732 On ch=1 n=f#6 v=0
127760 On ch=1 n=a#5 v=49
127764 On ch=1 n=c6 v=0
127818 On ch=1 n=a#5 v=0
127896 On ch=1 n=f3 v=80
127912 On ch=1 n=d#5 v=61
127916 Par ch=1 c=64 v=0
127940 On ch=1 n=a5 v=51
127970 On ch=1 n=f#6 v=89
127982 Par ch=1 c=64 v=127
128112 On ch=1 n=a5 v=0
128122 On ch=1 n=f4 v=56
128136 On ch=1 n=f#6 v=0
128144 On ch=1 n=d#5 v=0
128154 On ch=1 n=f3 v=0
128250 On ch=1 n=f6 v=55
128256 On ch=1 n=c5 v=64
128392 On ch=1 n=c6 v=54
128396 On ch=1 n=d#5 v=51
128400 On ch=1 n=f6 v=0
128452 On ch=1 n=c5 v=0
128528 Par ch=1 c=64 v=0
128534 On ch=1 n=d#6 v=54
128540 On ch=1 n=a5 v=53
128540 On ch=1 n=f#5 v=54
128550 On ch=1 n=c6 v=0
128570 Par ch=1 c=64 v=127
128600 On ch=1 n=d#5 v=0
128650 On ch=1 n=f#5 v=0
128674 On ch=1 n=c#6 v=51
128680 On ch=1 n=f5 v=64
128694 On ch=1 n=d#6 v=0
128784 On ch=1 n=a5 v=0
128808 On ch=1 n=a#4 v=74
128810 On ch=1 n=c#5 v=71
128814 On ch=1 n=a#5 v=56
128828 On ch=1 n=f5 v=0
128828 On ch=1 n=c#6 v=0
128832 On ch=1 n=f4 v=0
128838 On ch=1 n=c#5 v=0
128842 On ch=1 n=a#4 v=0
128856 On ch=1 n=a#5 v=0
128972 On ch=1 n=d#5 v=73
128974 On ch=1 n=f#4 v=64
128978 On ch=1 n=f#3 v=58
128982 Par ch=1 c=64 v=0
128998 Par ch=1 c=64 v=127
129096 On ch=1 n=f#3 v=0
129102 On ch=1 n=f#4 v=0
129110 On ch=1 n=c#5 v=62
129114 On ch=1 n=f4 v=65
129122 On ch=1 n=f3 v=61
129128 On ch=1 n=d#5 v=0
129158 On ch=1 n=f4 v=0
129164 On ch=1 n=f3 v=0
129256 Par ch=1 c=64 v=0
129262 On ch=1 n=f#5 v=67
129270 On ch=1 n=a#4 v=82
129270 On ch=1 n=d#4 v=74
129274 On ch=1 n=d#3 v=62
129278 On ch=1 n=c#5 v=0
129300 Par ch=1 c=64 v=127
129338 On ch=1 n=d#3 v=0
129340 On ch=1 n=d#4 v=0
129412 On ch=1 n=f5 v=69
129418 On ch=1 n=c#4 v=74
129420 On ch=1 n=c#3 v=69
129434 On ch=1 n=f#5 v=0
129436 On ch=1 n=a#4 v=0
129450 On ch=1 n=f5 v=0
129466 On ch=1 n=c#3 v=0
129488 On ch=1 n=c#4 v=0
129574 On ch=1 n=c3 v=58
129576 On ch=1 n=c6 v=65
129582 On ch=1 n=a5 v=65
129582 On ch=1 n=c4 v=68
129588 On ch=1 n=d#5 v=76
129634 On ch=1 n=c3 v=0
129644 On ch=1 n=c4 v=0
129654 On ch=1 n=a5 v=0
129662 On ch=1 n=c6 v=0
129664 On ch=1 n=d#5 v=0
129768 On ch=1 n=c#5 v=69
129772 On ch=1 n=c#6 v=73
129776 On ch=1 n=a#5 v=68
129778 Par ch=1 c=64 v=0
129784 On ch=1 n=a#3 v=79
129784 On ch=1 n=a#2 v=68
129822 On ch=1 n=c#5 v=0
129824 Par ch=1 c=64 v=127
129912 On ch=1 n=a#2 v=0
129912 On ch=1 n=a#3 v=0
129914 On ch=1 n=a#5 v=0
129956 On ch=1 n=f5 v=73
130002 On ch=1 n=f5 v=0
130012 On ch=1 n=c#6 v=0
130108 On ch=1 n=a#5 v=73
130108 On ch=1 n=c#5 v=62
130112 On ch=1 n=c#6 v=88
130116 On ch=1 n=a#4 v=62
130118 On ch=1 n=f4 v=52
130232 On ch=1 n=a#5 v=0
130234 On ch=1 n=a#4 v=0
130260 On ch=1 n=c#5 v=0
130266 On ch=1 n=c6 v=68
130274 On ch=1 n=d#6 v=86
130284 On ch=1 n=f4 v=0
130296 On ch=1 n=c#6 v=0
130394 On ch=1 n=d#6 v=0
130404 On ch=1 n=a#5 v=73
130410 On ch=1 n=c#6 v=91
130414 On ch=1 n=c#5 v=57
130414 On ch=1 n=a#4 v=62
130420 On ch=1 n=f5 v=62
130426 On ch=1 n=c6 v=0
130456 On ch=1 n=f5 v=0
130464 On ch=1 n=c#5 v=0
130472 On ch=1 n=a#4 v=0
130560 On ch=1 n=c6 v=62
130570 On ch=1 n=d#6 v=61
130576 On ch=1 n=c#6 v=0
130584 On ch=1 n=a#5 v=0
130624 On ch=1 n=c#3 v=78
130664 On ch=1 n=g#3 v=78
130690 On ch=1 n=d#6 v=0
130706 Par ch=1 c=64 v=0
130712 On ch=1 n=c#4 v=78
130722 On ch=1 n=c#6 v=67
130726 On ch=1 n=f6 v=80
130728 On ch=1 n=f5 v=67
130750 On ch=1 n=c#3 v=0
130752 On ch=1 n=g#3 v=0
130752 On ch=1 n=c6 v=0
130752 Par ch=1 c=64 v=127
130760 On ch=1 n=c#4 v=0
130846 On ch=1 n=f5 v=0
130884 On ch=1 n=c6 v=61
130900 On ch=1 n=f6 v=0
130906 On ch=1 n=c#6 v=0
131026 On ch=1 n=f6 v=86
131026 On ch=1 n=c#6 v=67
131026 On ch=1 n=c#5 v=67
131028 On ch=1 n=a#5 v=73
131028 On ch=1 n=g#4 v=46
131028 On ch=1 n=f4 v=80
131048 On ch=1 n=c6 v=0
131076 On ch=1 n=c#5 v=0
131088 On ch=1 n=f4 v=0
131088 On ch=1 n=g#4 v=0
131094 On ch=1 n=a#5 v=0
131138 On ch=1 n=f6 v=0
131174 On ch=1 n=g#5 v=70
131188 On ch=1 n=c#6 v=0
131258 On ch=1 n=g#5 v=0
131326 On ch=1 n=g#4 v=64
131328 On ch=1 n=f6 v=92
131328 On ch=1 n=c#6 v=67
131328 On ch=1 n=g#5 v=73
131328 On ch=1 n=f#5 v=67
131328 On ch=1 n=c#5 v=80
131428 On ch=1 n=f#5 v=0
131428 On ch=1 n=g#5 v=0
131430 On ch=1 n=g#4 v=0
131432 On ch=1 n=c#5 v=0
131456 On ch=1 n=c#6 v=0
131476 On ch=1 n=f5 v=73
131502 On ch=1 n=f6 v=0
131564 On ch=1 n=f5 v=0
131634 On ch=1 n=f6 v=94
131638 On ch=1 n=f#5 v=64
131640 On ch=1 n=d#4 v=90
131644 On ch=1 n=d#3 v=86
131658 Par ch=1 c=64 v=0
131692 Par ch=1 c=64 v=127
131754 On ch=1 n=d#3 v=0
131772 On ch=1 n=d#4 v=0
131788 On ch=1 n=f#5 v=67
131790 On ch=1 n=c#6 v=65
131796 On ch=1 n=f6 v=0
131808 On ch=1 n=f#5 v=0
131836 On ch=1 n=c#6 v=0
131856 On ch=1 n=f#5 v=0
131936 On ch=1 n=d#6 v=67
131940 On ch=1 n=c6 v=67
131942 On ch=1 n=f#5 v=60
131948 On ch=1 n=d#5 v=48
131948 On ch=1 n=a#4 v=62
131994 On ch=1 n=f#5 v=0
132030 On ch=1 n=d#5 v=0
132044 On ch=1 n=a#4 v=0
132084 On ch=1 n=a#5 v=67
132088 On ch=1 n=f#5 v=73
132090 On ch=1 n=c6 v=0
132098 On ch=1 n=d#6 v=0
132150 On ch=1 n=a#5 v=0
132154 On ch=1 n=f#5 v=0
132250 On ch=1 n=f#4 v=78
132256 On ch=1 n=f#3 v=78
132260 On ch=1 n=c#6 v=67
132260 On ch=1 n=d#5 v=74
132266 Par ch=1 c=64 v=0
132318 Par ch=1 c=64 v=127
132400 On ch=1 n=d#5 v=0
132430 On ch=1 n=c#6 v=0
132432 On ch=1 n=c6 v=67
132432 On ch=1 n=e5 v=69
132482 On ch=1 n=e5 v=0
132498 On ch=1 n=f#4 v=0
132506 On ch=1 n=f#3 v=0
132514 On ch=1 n=c6 v=0
132636 On ch=1 n=a5 v=71
132642 On ch=1 n=f5 v=68
132646 On ch=1 n=f4 v=91
132646 On ch=1 n=f3 v=87
132658 Par ch=1 c=64 v=0
132694 On ch=1 n=f3 v=0
132702 Par ch=1 c=64 v=127
132712 On ch=1 n=f4 v=0
132844 On ch=1 n=f5 v=0
132852 On ch=1 n=f#5 v=50
132856 On ch=1 n=a5 v=0
132856 On ch=1 n=f#4 v=38
132928 On ch=1 n=f#4 v=0
132936 On ch=1 n=f#5 v=0
133026 On ch=1 n=c6 v=67
133028 On ch=1 n=f5 v=42
133032 On ch=1 n=a5 v=69
133036 On ch=1 n=f4 v=61
133068 On ch=1 n=f4 v=0
133074 On ch=1 n=f5 v=0
133156 On ch=1 n=a5 v=0
133172 On ch=1 n=e5 v=73
133178 On ch=1 n=e4 v=62
133204 On ch=1 n=e4 v=0
133208 On ch=1 n=e5 v=0
133296 On ch=1 n=f5 v=38
133314 On ch=1 n=a5 v=57
133316 On ch=1 n=c6 v=0
133328 On ch=1 n=d#5 v=31
133330 On ch=1 n=f6 v=63
133332 On ch=1 n=d#4 v=33
133374 On ch=1 n=d#5 v=0
133376 On ch=1 n=d#4 v=0
133444 On ch=1 n=a5 v=0
133464 On ch=1 n=c5 v=56
133464 On ch=1 n=c4 v=67
133498 On ch=1 n=f5 v=0
133504 On ch=1 n=c4 v=0
133504 On ch=1 n=c5 v=0
133594 On ch=1 n=a#5 v=62
133596 On ch=1 n=c#4 v=67
133598 On ch=1 n=e5 v=56
133604 On ch=1 n=e6 v=71
133604 On ch=1 n=c#5 v=76
133634 On ch=1 n=f6 v=0
133640 On ch=1 n=c#5 v=0
133640 On ch=1 n=c#4 v=0
133734 On ch=1 n=a#4 v=73
133744 On ch=1 n=a3 v=69
133772 On ch=1 n=a3 v=0
133776 On ch=1 n=a#4 v=0
133858 On ch=1 n=e6 v=0
133872 On ch=1 n=e5 v=0
133874 On ch=1 n=a#5 v=0
133890 On ch=1 n=g3 v=61
133894 On ch=1 n=a#5 v=70
133894 On ch=1 n=g4 v=73
133898 On ch=1 n=e5 v=68
133904 On ch=1 n=a#4 v=69
133904 On ch=1 n=a4 v=67
133916 On ch=1 n=a4 v=0
133934 On ch=1 n=g4 v=0
133936 On ch=1 n=g3 v=0
134032 On ch=1 n=f#3 v=58
134034 On ch=1 n=f#4 v=79
134050 On ch=1 n=a4 v=61
134066 On ch=1 n=f#4 v=0
134082 On ch=1 n=a4 v=0
134092 On ch=1 n=f#3 v=0
134122 On ch=1 n=a#5 v=0
134148 On ch=1 n=e5 v=0
134170 On ch=1 n=a4 v=73
134184 On ch=1 n=a#4 v=0
134200 On ch=1 n=c#4 v=62
134208 On ch=1 n=c#3 v=58
134224 On ch=1 n=c#6 v=78
134240 On ch=1 n=e5 v=58
134268 On ch=1 n=c#3 v=0
134306 On ch=1 n=c#4 v=0
134340 On ch=1 n=a4 v=0
134346 On ch=1 n=a#4 v=82
134364 On ch=1 n=g2 v=69
134366 On ch=1 n=f#3 v=83
134418 On ch=1 n=f#3 v=0
134424 On ch=1 n=g2 v=0
134494 Par ch=1 c=64 v=0
134496 On ch=1 n=f2 v=72
134498 On ch=1 n=f3 v=94
134504 On ch=1 n=e5 v=0
134512 On ch=1 n=a5 v=70
134512 On ch=1 n=f5 v=58
134516 On ch=1 n=c#6 v=0
134518 On ch=1 n=c5 v=73
134520 On ch=1 n=a#4 v=0
134536 Par ch=1 c=64 v=127
134556 On ch=1 n=f2 v=0
134558 On ch=1 n=f3 v=0
134640 On ch=1 n=f#5 v=58
134640 On ch=1 n=f#4 v=60
134700 On ch=1 n=f#4 v=0
134700 On ch=1 n=f#5 v=0
134730 On ch=1 n=c5 v=0
134732 On ch=1 n=a5 v=0
134752 On ch=1 n=f5 v=0
134812 On ch=1 n=a6 v=67
134816 On ch=1 n=c7 v=88
134816 On ch=1 n=f5 v=68
134818 On ch=1 n=f4 v=58
134822 On ch=1 n=c6 v=63
134866 On ch=1 n=f5 v=0
134868 On ch=1 n=f4 v=0
134932 On ch=1 n=e5 v=61
134936 On ch=1 n=e4 v=67
134980 On ch=1 n=e5 v=0
134984 On ch=1 n=e4 v=0
135014 On ch=1 n=a6 v=0
135016 On ch=1 n=c7 v=0
135022 On ch=1 n=c6 v=0
135048 On ch=1 n=f6 v=50
135072 On ch=1 n=a6 v=54
135092 On ch=1 n=f7 v=88
135096 On ch=1 n=d#5 v=60
135098 On ch=1 n=d#4 v=60
135146 On ch=1 n=d#5 v=0
135148 On ch=1 n=d#4 v=0
135230 On ch=1 n=c5 v=36
135234 On ch=1 n=c4 v=53
135248 On ch=1 n=f6 v=0
135276 On ch=1 n=a6 v=0
135282 On ch=1 n=c5 v=0
135284 On ch=1 n=c4 v=0
135296 On ch=1 n=f7 v=0
135364 On ch=1 n=a#6 v=65
135366 On ch=1 n=c#5 v=73
135368 On ch=1 n=e7 v=92
135372 On ch=1 n=e6 v=62
135372 On ch=1 n=c#4 v=67
135410 On ch=1 n=c#4 v=0
135410 On ch=1 n=c#5 v=0
135500 On ch=1 n=a#4 v=73
135508 On ch=1 n=g#3 v=55
135522 On ch=1 n=e6 v=0
135542 On ch=1 n=a#4 v=0
135550 On ch=1 n=g#3 v=0
135566 On ch=1 n=a#6 v=0
135572 On ch=1 n=e7 v=0
135628 On ch=1 n=a#5 v=78
135644 On ch=1 n=g4 v=60
135646 On ch=1 n=e6 v=62
135646 On ch=1 n=g3 v=35
135658 On ch=1 n=a#6 v=92
135690 On ch=1 n=g3 v=0
135692 On ch=1 n=g4 v=0
135704 On ch=1 n=a#5 v=0
135786 On ch=1 n=f#4 v=73
135788 On ch=1 n=a5 v=73
135792 On ch=1 n=f#3 v=58
135834 On ch=1 n=a5 v=0
135846 On ch=1 n=f#4 v=0
135850 On ch=1 n=e6 v=0
135852 On ch=1 n=f#3 v=0
135860 On ch=1 n=a#6 v=0
135930 On ch=1 n=e6 v=67
135936 On ch=1 n=a5 v=63
135946 On ch=1 n=c#4 v=85
135948 On ch=1 n=c#3 v=58
135958 On ch=1 n=c#7 v=99
136016 On ch=1 n=a5 v=0
136036 On ch=1 n=c#4 v=0
136040 On ch=1 n=c#3 v=0
136084 On ch=1 n=a#5 v=83
136088 On ch=1 n=f#3 v=67
136090 On ch=1 n=f#2 v=58
136132 On ch=1 n=e6 v=0
136146 On ch=1 n=a#5 v=0
136150 On ch=1 n=f#2 v=0
136150 On ch=1 n=f#3 v=0
136162 On ch=1 n=c#7 v=0
136256 On ch=1 n=c#7 v=69
136256 On ch=1 n=e2 v=84
136264 On ch=1 n=c#6 v=86
136264 On ch=1 n=e3 v=82
136264 Par ch=1 c=64 v=0
136272 On ch=1 n=a#6 v=71
136304 Par ch=1 c=64 v=127
136376 On ch=1 n=a#6 v=0
136392 On ch=1 n=c#7 v=0
136418 On ch=1 n=c#6 v=0
136440 On ch=1 n=e2 v=0
136446 On ch=1 n=e3 v=0
136456 On ch=1 n=a6 v=69
136460 On ch=1 n=c6 v=70
136464 On ch=1 n=c7 v=73
136464 On ch=1 n=f3 v=82
136464 On ch=1 n=f2 v=84
136470 Par ch=1 c=64 v=0
136494 Par ch=1 c=64 v=127
136560 On ch=1 n=a6 v=0
136574 On ch=1 n=c7 v=0
136574 On ch=1 n=c6 v=0
136584 On ch=1 n=f2 v=0
136584 On ch=1 n=f3 v=0
136680 Par ch=1 c=64 v=0
136688 On ch=1 n=f#5 v=73
136688 On ch=1 n=f#4 v=61
136690 On ch=1 n=a6 v=70
136690 On ch=1 n=c6 v=73
136700 On ch=1 n=c7 v=69
136710 Par ch=1 c=64 v=127
136756 On ch=1 n=f#4 v=0
136758 On ch=1 n=c6 v=0
136764 On ch=1 n=c7 v=0
136764 On ch=1 n=a6 v=0
136778 On ch=1 n=f#5 v=0
136872 On ch=1 n=a#6 v=64
136876 On ch=1 n=c#6 v=74
136880 On ch=1 n=c#7 v=65
136884 On ch=1 n=f5 v=62
136884 On ch=1 n=f4 v=63
136922 On ch=1 n=c#6 v=0
136924 On ch=1 n=f4 v=0
136930 On ch=1 n=f5 v=0
136936 On ch=1 n=a#6 v=0
136938 On ch=1 n=c#7 v=0
137038 On ch=1 n=d#6 v=73
137044 On ch=1 n=c7 v=73
137044 On ch=1 n=d#5 v=73
137048 On ch=1 n=d#7 v=71
137048 On ch=1 n=d#4 v=67
137080 On ch=1 n=d#6 v=0
137088 On ch=1 n=d#4 v=0
137088 On ch=1 n=d#5 v=0
137096 On ch=1 n=c7 v=0
137112 On ch=1 n=d#7 v=0
137196 On ch=1 n=c#7 v=76
137196 On ch=1 n=c#4 v=73
137200 On ch=1 n=f7 v=73
137200 On ch=1 n=c#5 v=76
137206 On ch=1 n=f6 v=62
137226 On ch=1 n=f6 v=0
137236 On ch=1 n=c#4 v=0
137240 On ch=1 n=c#7 v=0
137242 On ch=1 n=c#5 v=0
137246 On ch=1 n=f7 v=0
137332 On ch=1 n=f#6 v=73
137338 On ch=1 n=f#7 v=78
137338 On ch=1 n=d#7 v=83
137342 On ch=1 n=c5 v=70
137342 On ch=1 n=c4 v=67
137384 On ch=1 n=c4 v=0
137390 On ch=1 n=c5 v=0
137468 On ch=1 n=a#4 v=87
137470 On ch=1 n=a3 v=74
137504 On ch=1 n=a3 v=0
137510 On ch=1 n=a#4 v=0
137514 On ch=1 n=f#6 v=0
137522 On ch=1 n=d#7 v=0
137526 On ch=1 n=f#7 v=0
137574 Par ch=1 c=64 v=0
137590 On ch=1 n=f#7 v=78
137590 On ch=1 n=d#7 v=91
137590 On ch=1 n=f#6 v=78
137590 On ch=1 n=a4 v=74
137596 On ch=1 n=a3 v=65
137602 Par ch=1 c=64 v=127
137626 On ch=1 n=a4 v=0
137632 On ch=1 n=a3 v=0
137702 On ch=1 n=f#3 v=78
137710 On ch=1 n=f#4 v=82
137724 On ch=1 n=f#7 v=0
137726 On ch=1 n=d#7 v=0
137738 On ch=1 n=f#6 v=0
137740 On ch=1 n=f#3 v=0
137742 On ch=1 n=f#4 v=0
137816 On ch=1 n=f#7 v=76
137816 On ch=1 n=f#6 v=79
137820 On ch=1 n=d#7 v=86
137820 On ch=1 n=d#4 v=86
137820 On ch=1 n=d#3 v=78
137846 On ch=1 n=d#3 v=0
137852 On ch=1 n=d#4 v=0
137904 On ch=1 n=d#7 v=0
137914 On ch=1 n=f#7 v=0
137916 On ch=1 n=f#6 v=0
137922 On ch=1 n=c4 v=77
137928 On ch=1 n=c3 v=67
137952 On ch=1 n=c3 v=0
137958 On ch=1 n=c4 v=0
138034 On ch=1 n=f#7 v=73
138040 On ch=1 n=d#7 v=73
138040 On ch=1 n=f#6 v=89
138048 On ch=1 n=a3 v=86
138048 On ch=1 n=a2 v=87
138050 Par ch=1 c=64 v=0
138084 Par ch=1 c=64 v=127
138104 On ch=1 n=f#7 v=0
138116 On ch=1 n=d#7 v=0
138126 On ch=1 n=f#6 v=0
138168 On ch=1 n=a2 v=0
138184 On ch=1 n=a3 v=0
138644 On ch=1 n=d#5 v=73
138650 On ch=1 n=f#4 v=76
138652 On ch=1 n=b4 v=74
138656 On ch=1 n=a3 v=62
138660 On ch=1 n=a2 v=58
138710 Par ch=1 c=64 v=127
138872 On ch=1 n=d#5 v=0
138900 On ch=1 n=a2 v=0
138914 On ch=1 n=a3 v=0
138934 On ch=1 n=f#4 v=0
138940 On ch=1 n=b4 v=0
138992 On ch=1 n=d#5 v=73
139000 On ch=1 n=f#4 v=78
139000 On ch=1 n=a#3 v=74
139002 On ch=1 n=a#4 v=76
139008 On ch=1 n=a#2 v=58
139012 Par ch=1 c=64 v=0
139064 Par ch=1 c=64 v=127
139232 On ch=1 n=d#5 v=0
139238 On ch=1 n=a#3 v=0
139248 On ch=1 n=a#2 v=0
139264 On ch=1 n=a#4 v=0
139272 On ch=1 n=f#4 v=0
139326 On ch=1 n=d#5 v=76
139332 On ch=1 n=a#4 v=82
139332 On ch=1 n=f#4 v=74
139336 On ch=1 n=a#3 v=87
139344 On ch=1 n=a#2 v=58
139350 Par ch=1 c=64 v=0
139386 Par ch=1 c=64 v=127
139528 On ch=1 n=a#4 v=0
139576 On ch=1 n=a#3 v=0
139584 On ch=1 n=a#2 v=0
139588 On ch=1 n=d#5 v=0
139628 On ch=1 n=f#4 v=0
139704 On ch=1 n=d#4 v=77
139728 On ch=1 n=a4 v=71
139744 On ch=1 n=b3 v=95
139752 On ch=1 n=b2 v=87
139756 On ch=1 n=f#5 v=76
139790 Par ch=1 c=64 v=0
139868 Par ch=1 c=64 v=127
139926 On ch=1 n=d#4 v=0
139992 On ch=1 n=b2 v=0
140006 On ch=1 n=a4 v=0
140022 On ch=1 n=f#5 v=0
140088 On ch=1 n=a4 v=74
140088 On ch=1 n=f#4 v=73
140096 On ch=1 n=d#3 v=86
140096 On ch=1 n=d#2 v=87
140112 On ch=1 n=f#5 v=83
140118 On ch=1 n=b3 v=0
140144 Par ch=1 c=64 v=0
140196 Par ch=1 c=64 v=127
140290 On ch=1 n=f#5 v=0
140330 On ch=1 n=f#4 v=0
140440 On ch=1 n=a4 v=0
140446 On ch=1 n=c#5 v=64
140452 On ch=1 n=f#3 v=86
140452 On ch=1 n=f#2 v=87
140462 On ch=1 n=d#3 v=0
140464 On ch=1 n=d#2 v=0
140478 Par ch=1 c=64 v=0
140538 Par ch=1 c=64 v=127
140626 On ch=1 n=d#4 v=62
140634 On ch=1 n=b4 v=58
140642 On ch=1 n=a4 v=50
140680 On ch=1 n=d#4 v=0
140680 On ch=1 n=f#3 v=0
140686 On ch=1 n=c#5 v=0
140692 On ch=1 n=f#2 v=0
140704 On ch=1 n=e5 v=70
140706 On ch=1 n=b4 v=0
140716 On ch=1 n=a4 v=0
140812 On ch=1 n=e5 v=0
140820 On ch=1 n=d#5 v=76
140824 On ch=1 n=b4 v=74
140826 On ch=1 n=f#4 v=76
140828 On ch=1 n=a4 v=67
140862 On ch=1 n=a4 v=0
140886 On ch=1 n=b4 v=0
140916 On ch=1 n=d#5 v=0
140930 On ch=1 n=g#5 v=78
140944 On ch=1 n=b4 v=69
141006 On ch=1 n=b4 v=0
141032 On ch=1 n=f#5 v=86
141032 On ch=1 n=d#5 v=68
141032 On ch=1 n=a4 v=58
141038 On ch=1 n=d#5 v=78
141038 On ch=1 n=b4 v=47
141042 On ch=1 n=f#4 v=0
141048 On ch=1 n=g#5 v=0
141080 On ch=1 n=b4 v=0
141088 On ch=1 n=d#5 v=0
141092 On ch=1 n=a4 v=0
141118 On ch=1 n=f#5 v=0
141158 Par ch=1 c=64 v=0
141162 On ch=1 n=g#3 v=86
141164 On ch=1 n=g#2 v=87
141170 On ch=1 n=b5 v=73
141208 Par ch=1 c=64 v=127
141226 On ch=1 n=d#5 v=0
141262 On ch=1 n=f#5 v=65
141268 On ch=1 n=d5 v=65
141276 On ch=1 n=b4 v=67
141326 On ch=1 n=b4 v=0
141326 On ch=1 n=f#5 v=0
141334 On ch=1 n=d5 v=0
141370 On ch=1 n=f#5 v=73
141404 On ch=1 n=g#2 v=0
141420 On ch=1 n=g#3 v=0
141466 On ch=1 n=g#4 v=70
141472 On ch=1 n=f5 v=67
141472 On ch=1 n=d5 v=58
141472 On ch=1 n=b4 v=58
141496 On ch=1 n=b5 v=0
141506 On ch=1 n=f#5 v=0
141532 On ch=1 n=b4 v=0
141532 On ch=1 n=d5 v=0
141560 On ch=1 n=f5 v=0
141564 On ch=1 n=a5 v=77
141584 On ch=1 n=c#5 v=77
141646 On ch=1 n=c#5 v=0
141654 On ch=1 n=g#5 v=70
141656 On ch=1 n=f5 v=58
141658 On ch=1 n=a5 v=0
141662 On ch=1 n=b4 v=69
141672 On ch=1 n=g#4 v=0
141714 On ch=1 n=g#5 v=0
141716 On ch=1 n=f5 v=0
141748 On ch=1 n=b4 v=0
141760 Par ch=1 c=64 v=0
141764 On ch=1 n=c#6 v=85
141772 On ch=1 n=a#3 v=86
141776 On ch=1 n=a#2 v=87
141806 Par ch=1 c=64 v=127
141856 On ch=1 n=e5 v=74
141862 On ch=1 n=c#5 v=73
141866 On ch=1 n=g#5 v=73
141892 On ch=1 n=c#5 v=0
141900 On ch=1 n=g#5 v=0
141920 On ch=1 n=e5 v=0
141952 On ch=1 n=g#5 v=74
142000 On ch=1 n=c#6 v=0
142016 On ch=1 n=a#2 v=0
142022 On ch=1 n=a#3 v=0
142028 On ch=1 n=g#5 v=0
142036 On ch=1 n=a#4 v=67
142048 On ch=1 n=g5 v=68
142048 On ch=1 n=d#5 v=58
142048 On ch=1 n=c#5 v=58
142108 On ch=1 n=c#5 v=0
142108 On ch=1 n=d#5 v=0
142124 On ch=1 n=g5 v=0
142132 On ch=1 n=b5 v=74
142140 On ch=1 n=d#5 v=76
142214 On ch=1 n=c#5 v=67
142218 On ch=1 n=d#5 v=0
142218 On ch=1 n=a#5 v=83
142224 On ch=1 n=a#4 v=0
142226 On ch=1 n=b5 v=0
142270 On ch=1 n=a#5 v=0
142314 On ch=1 n=d#6 v=87
142320 On ch=1 n=c4 v=86
142320 On ch=1 n=c3 v=87
142328 On ch=1 n=c#5 v=0
142398 On ch=1 n=f5 v=82
142398 On ch=1 n=d#5 v=76
142406 On ch=1 n=a#5 v=73
142432 On ch=1 n=d#5 v=0
142436 On ch=1 n=a#5 v=0
142444 On ch=1 n=f5 v=0
142492 On ch=1 n=a#5 v=76
142548 On ch=1 n=c4 v=0
142550 On ch=1 n=a#5 v=0
142560 On ch=1 n=c3 v=0
142568 On ch=1 n=d#5 v=58
142568 On ch=1 n=c5 v=67
142572 On ch=1 n=a5 v=67
142576 On ch=1 n=f5 v=58
142584 On ch=1 n=d#6 v=0
142628 On ch=1 n=d#5 v=0
142636 On ch=1 n=f5 v=0
142654 On ch=1 n=a5 v=0
142656 On ch=1 n=c#6 v=69
142662 On ch=1 n=f5 v=56
142740 On ch=1 n=d#5 v=67
142744 On ch=1 n=c#6 v=0
142748 On ch=1 n=c6 v=67
142752 On ch=1 n=a5 v=58
142752 On ch=1 n=f#5 v=58
142754 On ch=1 n=c5 v=0
142760 On ch=1 n=f5 v=0
142788 On ch=1 n=c6 v=0
142812 On ch=1 n=f#5 v=0
142812 On ch=1 n=a5 v=0
142872 On ch=1 n=d#5 v=0
142918 On ch=1 n=f#6 v=67
142924 On ch=1 n=f2 v=87
142926 On ch=1 n=f3 v=83
142936 Par ch=1 c=64 v=0
142980 Par ch=1 c=64 v=127
143032 On ch=1 n=f#6 v=0
143040 On ch=1 n=d#6 v=58
143040 On ch=1 n=a5 v=58
143046 On ch=1 n=f6 v=42
143086 On ch=1 n=f6 v=0
143100 On ch=1 n=a5 v=0
143100 On ch=1 n=d#6 v=0
143140 On ch=1 n=a#6 v=83
143164 On ch=1 n=f2 v=0
143176 On ch=1 n=f3 v=0
143190 On ch=1 n=a#6 v=0
143232 On ch=1 n=d#6 v=58
143234 On ch=1 n=c6 v=62
143236 On ch=1 n=a6 v=69
143236 On ch=1 n=f6 v=68
143240 On ch=1 n=d#6 v=73
143284 On ch=1 n=d#6 v=0
143292 On ch=1 n=d#6 v=0
143298 On ch=1 n=f6 v=0
143306 On ch=1 n=a6 v=0
143318 On ch=1 n=c#7 v=78
143328 On ch=1 n=f6 v=60
143364 On ch=1 n=c6 v=0
143384 On ch=1 n=a6 v=58
143384 On ch=1 n=d#6 v=58
143386 On ch=1 n=c#7 v=0
143388 On ch=1 n=c7 v=62
143396 On ch=1 n=d#6 v=68
143412 On ch=1 n=f6 v=0
143438 On ch=1 n=c7 v=0
143444 On ch=1 n=d#6 v=0
143444 On ch=1 n=a6 v=0
143452 On ch=1 n=d#6 v=0
143484 On ch=1 n=f5 v=70
143492 On ch=1 n=f7 v=69
143560 On ch=1 n=f7 v=0
143562 On ch=1 n=d#7 v=62
143568 On ch=1 n=a6 v=58
143570 On ch=1 n=c7 v=57
143628 On ch=1 n=c7 v=0
143628 On ch=1 n=a6 v=0
143634 On ch=1 n=d#7 v=0
143642 On ch=1 n=f#7 v=71
143704 On ch=1 n=f7 v=58
143712 On ch=1 n=a6 v=58
143714 On ch=1 n=d#7 v=82
143720 On ch=1 n=c7 v=70
143728 On ch=1 n=f#7 v=0
143764 On ch=1 n=f7 v=0
143772 On ch=1 n=a6 v=0
143774 On ch=1 n=f5 v=0
143784 On ch=1 n=d#7 v=0
143788 On ch=1 n=g7 v=85
143796 On ch=1 n=c7 v=0
143796 On ch=1 n=c6 v=58
143856 On ch=1 n=f7 v=58
143856 On ch=1 n=a6 v=58
143862 On ch=1 n=d#7 v=78
143864 On ch=1 n=c7 v=61
143878 On ch=1 n=g7 v=0
143916 On ch=1 n=a6 v=0
143916 On ch=1 n=f7 v=0
143940 On ch=1 n=d#7 v=0
143940 On ch=1 n=f#7 v=49
143944 On ch=1 n=c7 v=0
143944 On ch=1 n=f5 v=68
143954 On ch=1 n=c6 v=0
144000 On ch=1 n=f7 v=58
144006 On ch=1 n=d#7 v=78
144008 On ch=1 n=f5 v=0
144008 On ch=1 n=a6 v=68
144010 On ch=1 n=c7 v=62
144046 On ch=1 n=f#7 v=26
144060 On ch=1 n=c7 v=0
144060 On ch=1 n=f7 v=0
144070 On ch=1 n=d#7 v=0
144072 On ch=1 n=f#7 v=0
144082 On ch=1 n=g7 v=76
144090 On ch=1 n=c6 v=61
144096 On ch=1 n=a6 v=0
144100 On ch=1 n=f#7 v=0
144144 On ch=1 n=d#7 v=79
144152 On ch=1 n=f7 v=58
144152 On ch=1 n=c7 v=61
144156 On ch=1 n=a6 v=68
144162 On ch=1 n=g7 v=0
144164 On ch=1 n=c6 v=0
144212 On ch=1 n=f7 v=0
144226 On ch=1 n=f#7 v=82
144228 On ch=1 n=f5 v=71
144242 On ch=1 n=d#7 v=0
144244 On ch=1 n=a6 v=0
144256 On ch=1 n=c7 v=0
144294 On ch=1 n=d#7 v=87
144296 On ch=1 n=f7 v=58
144296 On ch=1 n=a6 v=68
144298 On ch=1 n=c7 v=67
144304 On ch=1 n=f5 v=0
144310 On ch=1 n=f#7 v=0
144356 On ch=1 n=f7 v=0
144366 On ch=1 n=g7 v=73
144372 On ch=1 n=c6 v=67
144386 On ch=1 n=d#7 v=0
144392 On ch=1 n=c7 v=0
144428 On ch=1 n=f7 v=61
144430 On ch=1 n=d#7 v=73
144432 On ch=1 n=c7 v=41
144436 On ch=1 n=a6 v=68
144456 On ch=1 n=g7 v=0
144460 On ch=1 n=c6 v=0
144462 On ch=1 n=a6 v=0
144466 On ch=1 n=a6 v=0
144502 On ch=1 n=c7 v=0
144506 On ch=1 n=d#7 v=0
144512 On ch=1 n=f#7 v=73
144516 On ch=1 n=f7 v=0
144522 On ch=1 n=f5 v=70
144572 On ch=1 n=a6 v=68
144574 On ch=1 n=d#7 v=83
144576 On ch=1 n=f7 v=58
144578 On ch=1 n=c7 v=59
144610 On ch=1 n=f#7 v=0
144636 On ch=1 n=f7 v=0
144656 On ch=1 n=g7 v=73
144666 On ch=1 n=c6 v=67
144676 On ch=1 n=d#7 v=0
144712 On ch=1 n=c7 v=0
144718 On ch=1 n=a6 v=0
144744 On ch=1 n=f7 v=58
144744 On ch=1 n=d#7 v=58
144744 On ch=1 n=a6 v=68
144748 On ch=1 n=c7 v=58
144758 On ch=1 n=g7 v=0
144804 On ch=1 n=d#7 v=0
144804 On ch=1 n=f7 v=0
144814 On ch=1 n=c7 v=0
144832 On ch=1 n=e7 v=58
144844 On ch=1 n=d#6 v=77
144892 On ch=1 n=e7 v=0
144960 On ch=1 n=f7 v=48
145026 On ch=1 n=f7 v=0
145034 On ch=1 n=f8 v=64
145108 On ch=1 n=f#7 v=85
145112 On ch=1 n=f8 v=0
145176 On ch=1 n=f#7 v=0
145176 On ch=1 n=f8 v=74
145240 On ch=1 n=g7 v=78
145248 On ch=1 n=f8 v=0
145294 On ch=1 n=g7 v=0
145302 On ch=1 n=g#7 v=69
145368 On ch=1 n=a7 v=67
145384 On ch=1 n=g#7 v=0
145434 On ch=1 n=d8 v=74
145462 On ch=1 n=a7 v=0
145496 On ch=1 n=c8 v=73
145506 Par ch=1 c=64 v=0
145564 On ch=1 n=a#7 v=73
145592 On ch=1 n=d8 v=0
145614 On ch=1 n=c8 v=0
145626 On ch=1 n=g7 v=62
145654 On ch=1 n=a#7 v=0
145684 On ch=1 n=g7 v=0
145686 On ch=1 n=f7 v=73
145702 On ch=1 n=d#6 v=0
145702 On ch=1 n=a6 v=0
145704 On ch=1 n=c6 v=0
145704 On ch=1 n=f5 v=0
145734 On ch=1 n=d7 v=74
145754 On ch=1 n=f7 v=0
145800 On ch=1 n=d#7 v=73
145818 On ch=1 n=d7 v=0
145862 On ch=1 n=g7 v=62
145876 On ch=1 n=d#7 v=0
145924 On ch=1 n=f7 v=61
145946 On ch=1 n=g7 v=0
145972 On ch=1 n=d#7 v=71
146012 On ch=1 n=f7 v=0
146028 On ch=1 n=c7 v=62
146056 On ch=1 n=d#7 v=0
146086 On ch=1 n=a6 v=71
146088 On ch=1 n=c7 v=0
146142 On ch=1 n=a#6 v=78
146176 On ch=1 n=a6 v=0
146202 On ch=1 n=d7 v=71
146214 On ch=1 n=a#6 v=0
146266 On ch=1 n=c7 v=58
146284 On ch=1 n=d7 v=0
146314 On ch=1 n=a#6 v=58
146352 On ch=1 n=c7 v=0
146368 On ch=1 n=g6 v=58
146394 On ch=1 n=a#6 v=0
146426 On ch=1 n=f6 v=67
146428 On ch=1 n=g6 v=0
146480 On ch=1 n=d6 v=70
146500 On ch=1 n=f6 v=0
146552 On ch=1 n=d#6 v=63
146570 On ch=1 n=d6 v=0
146610 On ch=1 n=g6 v=57
146624 On ch=1 n=d#6 v=0
146680 On ch=1 n=f6 v=58
146692 On ch=1 n=g6 v=0
146744 On ch=1 n=d#6 v=53
146782 On ch=1 n=f6 v=0
146820 On ch=1 n=c6 v=56
146846 On ch=1 n=d#6 v=0
146888 On ch=1 n=c6 v=0
146890 On ch=1 n=a5 v=58
146902 On ch=1 n=c5 v=32
146964 On ch=1 n=a#5 v=73
146972 On ch=1 n=d5 v=49
146986 On ch=1 n=c5 v=0
147008 On ch=1 n=a5 v=0
147036 On ch=1 n=d6 v=58
147042 On ch=1 n=f5 v=47
147048 On ch=1 n=a#5 v=0
147054 On ch=1 n=d5 v=0
147116 On ch=1 n=d#5 v=59
147118 On ch=1 n=c6 v=52
147124 On ch=1 n=f5 v=0
147126 On ch=1 n=d6 v=0
147176 On ch=1 n=d#5 v=0
147194 On ch=1 n=a#5 v=53
147200 On ch=1 n=d5 v=67
147222 On ch=1 n=c6 v=0
147272 On ch=1 n=a#4 v=49
147276 On ch=1 n=g5 v=57
147292 On ch=1 n=d5 v=0
147304 On ch=1 n=a#5 v=0
147346 On ch=1 n=f5 v=59
147350 On ch=1 n=g5 v=0
147352 On ch=1 n=a4 v=58
147358 On ch=1 n=a#4 v=0
147424 On ch=1 n=d5 v=67
147436 On ch=1 n=f4 v=71
147442 On ch=1 n=a4 v=0
147450 On ch=1 n=f5 v=0
147520 On ch=1 n=d#5 v=62
147532 On ch=1 n=g4 v=58
147542 On ch=1 n=f4 v=0
147542 On ch=1 n=d5 v=0
147598 On ch=1 n=a#4 v=58
147604 On ch=1 n=g5 v=64
147624 On ch=1 n=d#5 v=0
147628 On ch=1 n=g4 v=0
147688 On ch=1 n=a#4 v=0
147698 On ch=1 n=a4 v=55
147706 On ch=1 n=f5 v=54
147720 On ch=1 n=g5 v=0
147792 On ch=1 n=d#5 v=57
147804 On ch=1 n=g4 v=63
147810 On ch=1 n=a4 v=0
147832 On ch=1 n=f5 v=0
147894 On ch=1 n=d#4 v=51
147902 On ch=1 n=g4 v=0
147904 On ch=1 n=c5 v=61
147940 On ch=1 n=d#5 v=0
147994 On ch=1 n=c4 v=70
148008 On ch=1 n=d#4 v=0
148008 On ch=1 n=a4 v=61
148016 On ch=1 n=c5 v=0
148120 On ch=1 n=d#4 v=55
148122 On ch=1 n=c5 v=47
148124 On ch=1 n=c4 v=0
148158 On ch=1 n=a4 v=0
148240 On ch=1 n=g4 v=48
148354 On ch=1 n=g4 v=0
148356 On ch=1 n=f4 v=62
148464 On ch=1 n=d4 v=60
148468 On ch=1 n=d#4 v=0
148476 On ch=1 n=c5 v=0
148588 On ch=1 n=c4 v=58
148598 On ch=1 n=d4 v=0
148684 On ch=1 n=a#3 v=60
148704 On ch=1 n=c4 v=0
148834 On ch=1 n=d5 v=51
148840 On ch=1 n=f4 v=0
148842 On ch=1 n=a4 v=55
148842 On ch=1 n=f3 v=42
148856 On ch=1 n=a#3 v=0
148866 On ch=1 n=f4 v=38
149048 Par ch=1 c=64 v=127
149130 On ch=1 n=d5 v=0
149144 On ch=1 n=f4 v=0
149146 On ch=1 n=a4 v=0
149196 On ch=1 n=d5 v=51
149198 On ch=1 n=a#3 v=57
149202 On ch=1 n=a#4 v=35
149204 On ch=1 n=f4 v=38
149208 On ch=1 n=f3 v=0
149252 Par ch=1 c=64 v=0
149368 Par ch=1 c=64 v=127
149562 On ch=1 n=d5 v=0
149566 On ch=1 n=a#4 v=0
149580 On ch=1 n=f4 v=0
149610 On ch=1 n=a#3 v=0
149644 On ch=1 n=d5 v=57
149648 On ch=1 n=a4 v=53
149664 On ch=1 n=f4 v=44
149678 On ch=1 n=f3 v=29
149690 Par ch=1 c=64 v=0
149740 Par ch=1 c=64 v=127
149846 On ch=1 n=d5 v=0
149870 On ch=1 n=f4 v=0
149900 On ch=1 n=a4 v=0
149916 On ch=1 n=f3 v=0
149934 On ch=1 n=d5 v=46
149936 On ch=1 n=a#3 v=50
149942 On ch=1 n=a#4 v=58
149950 On ch=1 n=f4 v=30
150000 Par ch=1 c=64 v=0
150060 Par ch=1 c=64 v=127
150246 On ch=1 n=d5 v=0
150248 On ch=1 n=a#4 v=0
150352 On ch=1 n=f4 v=0
150388 On ch=1 n=a#3 v=0
150448 On ch=1 n=a#5 v=56
150464 On ch=1 n=d5 v=38
150468 On ch=1 n=f3 v=36
150472 On ch=1 n=f4 v=32
150482 Par ch=1 c=64 v=0
150534 Par ch=1 c=64 v=127
150636 On ch=1 n=a#5 v=0
150648 On ch=1 n=d5 v=0
150652 On ch=1 n=f4 v=0
150676 On ch=1 n=f3 v=0
150748 On ch=1 n=f4 v=41
150752 On ch=1 n=a#3 v=51
150754 On ch=1 n=a#4 v=43
150760 On ch=1 n=d5 v=55
150812 Par ch=1 c=64 v=0
150862 Par ch=1 c=64 v=127
151050 On ch=1 n=a#4 v=0
151094 On ch=1 n=f4 v=0
151170 On ch=1 n=a#3 v=0
151252 On ch=1 n=g#4 v=29
151262 On ch=1 n=e3 v=36
151270 On ch=1 n=e4 v=30
151290 Par ch=1 c=64 v=0
151334 Par ch=1 c=64 v=127
151430 On ch=1 n=d5 v=0
151448 On ch=1 n=g#4 v=0
151456 On ch=1 n=e4 v=0
151472 On ch=1 n=e3 v=0
151540 On ch=1 n=a3 v=48
151546 On ch=1 n=e4 v=32
151550 On ch=1 n=c#5 v=46
151556 On ch=1 n=a4 v=31
151602 Par ch=1 c=64 v=0
151662 Par ch=1 c=64 v=127
151962 On ch=1 n=a3 v=0
151970 On ch=1 n=e4 v=0
151976 On ch=1 n=c#5 v=0
151978 On ch=1 n=a4 v=0
152060 On ch=1 n=c#5 v=49
152062 On ch=1 n=a5 v=50
152070 On ch=1 n=e3 v=36
152078 On ch=1 n=e4 v=31
152102 Par ch=1 c=64 v=0
152154 Par ch=1 c=64 v=127
152258 On ch=1 n=a5 v=0
152260 On ch=1 n=c#5 v=0
152266 On ch=1 n=e4 v=0
152274 On ch=1 n=e3 v=0
152348 On ch=1 n=c#5 v=53
152356 On ch=1 n=e4 v=40
152360 On ch=1 n=a4 v=39
152360 On ch=1 n=a3 v=36
152404 Par ch=1 c=64 v=0
152456 Par ch=1 c=64 v=127
152658 On ch=1 n=c#5 v=0
152704 On ch=1 n=a4 v=0
152704 On ch=1 n=e4 v=0
152726 On ch=1 n=a3 v=0
152878 On ch=1 n=c5 v=54
152880 On ch=1 n=f#4 v=50
152894 On ch=1 n=d4 v=43
152900 On ch=1 n=d3 v=26
152916 Par ch=1 c=64 v=0
152958 Par ch=1 c=64 v=127
153100 On ch=1 n=d4 v=0
153158 On ch=1 n=f#4 v=0
153160 On ch=1 n=a#4 v=60
153172 On ch=1 n=g4 v=45
153176 On ch=1 n=d3 v=0
153176 On ch=1 n=g3 v=41
153182 On ch=1 n=d4 v=39
153202 On ch=1 n=c5 v=0
153226 Par ch=1 c=64 v=0
153278 Par ch=1 c=64 v=127
153484 On ch=1 n=d4 v=0
153506 On ch=1 n=a#4 v=0
153556 On ch=1 n=g4 v=0
153682 On ch=1 n=c3 v=27
153688 On ch=1 n=d#5 v=50
153694 On ch=1 n=c5 v=49
153694 On ch=1 n=g4 v=38
153698 On ch=1 n=g3 v=0
153704 On ch=1 n=c4 v=27
153720 Par ch=1 c=64 v=0
153780 Par ch=1 c=64 v=127
153864 On ch=1 n=d#5 v=0
153892 On ch=1 n=g4 v=0
153892 On ch=1 n=c5 v=0
154000 On ch=1 n=f4 v=38
154008 On ch=1 n=d5 v=40
154010 On ch=1 n=a#4 v=49
154010 On ch=1 n=f3 v=34
154030 On ch=1 n=c3 v=0
154054 On ch=1 n=c4 v=0
154088 Par ch=1 c=64 v=0
154174 Par ch=1 c=64 v=127
154398 On ch=1 n=d5 v=0
154406 On ch=1 n=f3 v=0
154420 On ch=1 n=a#4 v=0
154428 On ch=1 n=f4 v=0
154656 On ch=1 n=a4 v=48
154656 On ch=1 n=f4 v=33
154656 On ch=1 n=f3 v=33
154662 On ch=1 n=c5 v=40
154688 Par ch=1 c=64 v=0
154748 Par ch=1 c=64 v=127
154912 On ch=1 n=c5 v=0
154916 On ch=1 n=f4 v=0
154916 On ch=1 n=a4 v=0
155036 On ch=1 n=f4 v=31
155036 On ch=1 n=a#3 v=30
155040 On ch=1 n=a#2 v=68
155042 On ch=1 n=d5 v=38
155042 On ch=1 n=a#4 v=39
155064 On ch=1 n=f3 v=0
155126 Par ch=1 c=64 v=0
155196 Par ch=1 c=64 v=127
155448 On ch=1 n=d5 v=0
155454 On ch=1 n=f4 v=0
155468 On ch=1 n=a#3 v=0
155480 On ch=1 n=a#4 v=0
155520 On ch=1 n=a#2 v=0
155692 On ch=1 n=f5 v=49
155692 On ch=1 n=a#4 v=25
155696 On ch=1 n=d6 v=49
155696 On ch=1 n=d5 v=43
155696 On ch=1 n=f4 v=36
155696 On ch=1 n=a#3 v=41
155846 On ch=1 n=a#4 v=0
155862 On ch=1 n=f5 v=0
155870 On ch=1 n=f4 v=0
155878 On ch=1 n=d6 v=0
155886 On ch=1 n=a#3 v=0
155890 On ch=1 n=d5 v=0
155996 On ch=1 n=c5 v=38
155996 On ch=1 n=a4 v=42
155996 On ch=1 n=a3 v=43
156000 On ch=1 n=f#5 v=44
156000 On ch=1 n=d5 v=38
156000 On ch=1 n=d4 v=39
156002 On ch=1 n=d6 v=48
156116 Par ch=1 c=64 v=0
156344 Par ch=1 c=64 v=127
156418 On ch=1 n=d4 v=0
156452 On ch=1 n=a3 v=0
156456 On ch=1 n=a4 v=0
156540 On ch=1 n=c5 v=0
156548 On ch=1 n=d5 v=0
156566 On ch=1 n=f#5 v=0
156592 On ch=1 n=d6 v=0
156832 On ch=1 n=d5 v=34
156832 On ch=1 n=a#4 v=30
156832 On ch=1 n=d4 v=19
156836 On ch=1 n=a#5 v=50
156836 On ch=1 n=g5 v=40
156836 On ch=1 n=g3 v=34
156876 Par ch=1 c=64 v=0
156942 Par ch=1 c=64 v=127
157038 On ch=1 n=g5 v=0
157064 On ch=1 n=d5 v=0
157074 On ch=1 n=a#5 v=0
157074 On ch=1 n=a#4 v=0
157196 On ch=1 n=g3 v=0
157274 On ch=1 n=d4 v=0
157372 On ch=1 n=a#4 v=44
157376 On ch=1 n=d#5 v=40
157376 On ch=1 n=c4 v=38
157378 On ch=1 n=g5 v=48
157384 Par ch=1 c=64 v=0
157466 Par ch=1 c=64 v=127
157574 On ch=1 n=d#5 v=0
157580 On ch=1 n=c4 v=0
157646 On ch=1 n=g5 v=0
157666 On ch=1 n=a#4 v=0
157716 On ch=1 n=c4 v=36
157754 On ch=1 n=a#4 v=47
157820 On ch=1 n=d#5 v=56
157904 On ch=1 n=a5 v=41
157912 Par ch=1 c=64 v=0
157992 Par ch=1 c=64 v=127
158000 On ch=1 n=g5 v=49
158104 On ch=1 n=a5 v=0
158154 On ch=1 n=c4 v=0
158214 On ch=1 n=a#4 v=0
158264 On ch=1 n=d#5 v=0
158314 On ch=1 n=g5 v=0
158432 On ch=1 n=f3 v=30
158436 On ch=1 n=f5 v=47
158436 On ch=1 n=d#5 v=44
158436 On ch=1 n=f4 v=30
158438 On ch=1 n=a4 v=43
158570 On ch=1 n=d#5 v=0
158576 On ch=1 n=a4 v=0
158692 On ch=1 n=f4 v=0
158732 On ch=1 n=f3 v=0
158824 On ch=1 n=a#3 v=40
158826 On ch=1 n=d5 v=33
158828 On ch=1 n=a#4 v=36
158832 On ch=1 n=a#2 v=24
158894 Par ch=1 c=64 v=0
159006 On ch=1 n=f5 v=0
159042 Par ch=1 c=64 v=127
159122 On ch=1 n=d5 v=0
159134 On ch=1 n=a#4 v=0
159140 On ch=1 n=a#2 v=0
159140 On ch=1 n=a#3 v=0
159390 On ch=1 n=d6 v=49
159394 On ch=1 n=f5 v=46
159396 On ch=1 n=a#4 v=37
159396 On ch=1 n=f4 v=41
159396 On ch=1 n=a#3 v=43
159402 On ch=1 n=d5 v=37
159422 Par ch=1 c=64 v=0
159464 Par ch=1 c=64 v=127
159548 On ch=1 n=a#3 v=0
159558 On ch=1 n=f4 v=0
159568 On ch=1 n=a#4 v=0
159594 On ch=1 n=f5 v=0
159604 On ch=1 n=d5 v=0
159622 On ch=1 n=d6 v=0
159668 On ch=1 n=a#3 v=34
159676 On ch=1 n=a#5 v=49
159676 On ch=1 n=f4 v=30
159680 On ch=1 n=a#4 v=29
159682 On ch=1 n=d5 v=43
159776 Par ch=1 c=64 v=0
159842 Par ch=1 c=64 v=127
159964 On ch=1 n=a#3 v=0
159966 On ch=1 n=f4 v=0
159986 On ch=1 n=d5 v=0
160004 On ch=1 n=a#4 v=0
160034 On ch=1 n=a#5 v=0
160282 On ch=1 n=a#5 v=39
160286 On ch=1 n=g6 v=55
160288 On ch=1 n=g5 v=39
160288 On ch=1 n=e5 v=39
160292 On ch=1 n=c#5 v=38
160292 On ch=1 n=a#4 v=41
160382 Par ch=1 c=64 v=0
160484 Par ch=1 c=64 v=127
160648 On ch=1 n=a#4 v=0
160648 On ch=1 n=e5 v=0
160656 On ch=1 n=c#5 v=0
160664 On ch=1 n=g6 v=0
160676 On ch=1 n=g5 v=0
160684 On ch=1 n=a#5 v=0
160884 On ch=1 n=f5 v=40
160886 On ch=1 n=a#4 v=43
160888 On ch=1 n=a#5 v=47
160892 On ch=1 n=f6 v=44
160892 On ch=1 n=d5 v=48
160996 On ch=1 n=f5 v=0
161024 On ch=1 n=d5 v=0
161028 On ch=1 n=a#5 v=0
161032 On ch=1 n=a#4 v=0
161126 On ch=1 n=f6 v=0
161164 On ch=1 n=a#5 v=52
161164 On ch=1 n=c#5 v=55
161164 On ch=1 n=a#4 v=47
161168 On ch=1 n=e6 v=46
161170 On ch=1 n=g5 v=45
161308 On ch=1 n=a#5 v=0
161328 On ch=1 n=a#4 v=0
161356 On ch=1 n=g5 v=0
161356 On ch=1 n=c#5 v=0
161476 On ch=1 n=f5 v=34
161476 On ch=1 n=d5 v=35
161480 On ch=1 n=f6 v=40
161482 On ch=1 n=g#5 v=56
161484 On ch=1 n=a#5 v=53
161484 On ch=1 n=a#4 v=31
161502 On ch=1 n=e6 v=0
161550 Par ch=1 c=64 v=0
161626 Par ch=1 c=64 v=127
161746 On ch=1 n=f5 v=0
161752 On ch=1 n=d5 v=0
161788 On ch=1 n=a#4 v=0
162088 On ch=1 n=a#3 v=40
162088 On ch=1 n=a#2 v=46
162222 On ch=1 n=a#2 v=0
162222 On ch=1 n=a#3 v=0
162408 On ch=1 n=a#3 v=24
162416 On ch=1 n=a#2 v=46
162478 Par ch=1 c=64 v=0
162544 Par ch=1 c=64 v=127
162652 On ch=1 n=f6 v=0
162656 On ch=1 n=a#2 v=0
162678 On ch=1 n=a#3 v=0
162686 On ch=1 n=g#5 v=0
162688 On ch=1 n=a#5 v=0
162972 On ch=1 n=d5 v=25
162976 On ch=1 n=a#5 v=28
162976 On ch=1 n=g#5 v=25
162980 On ch=1 n=a#4 v=19
162980 On ch=1 n=f4 v=19
162980 On ch=1 n=a#3 v=20
163016 Par ch=1 c=64 v=0
163060 Par ch=1 c=64 v=127
163142 On ch=1 n=f4 v=0
163154 On ch=1 n=g#5 v=0
163162 On ch=1 n=a#3 v=0
163172 On ch=1 n=a#4 v=0
163172 On ch=1 n=d5 v=0
163188 On ch=1 n=a#5 v=0
163272 On ch=1 n=a#5 v=29
163276 On ch=1 n=g#5 v=34
163284 On ch=1 n=d5 v=24
163290 On ch=1 n=a#3 v=24
163300 On ch=1 n=f4 v=19
163302 On ch=1 n=a#4 v=16
163350 Par ch=1 c=64 v=0
163414 Par ch=1 c=64 v=127
163606 On ch=1 n=a#3 v=0
163608 On ch=1 n=a#4 v=0
163626 On ch=1 n=f4 v=0
163682 On ch=1 n=d5 v=0
163706 On ch=1 n=g#5 v=0
163856 On ch=1 n=a#4 v=19
163856 On ch=1 n=d#4 v=28
163862 On ch=1 n=g5 v=35
163868 On ch=1 n=d#5 v=24
163894 Par ch=1 c=64 v=0
163948 Par ch=1 c=64 v=127
164008 On ch=1 n=d#4 v=0
164022 On ch=1 n=a#4 v=0
164028 On ch=1 n=d#5 v=0
164030 On ch=1 n=g5 v=0
164144 On ch=1 n=d#4 v=34
164148 On ch=1 n=g5 v=36
164154 On ch=1 n=d#5 v=30
164154 On ch=1 n=a#4 v=19
164218 Par ch=1 c=64 v=0
164284 Par ch=1 c=64 v=127
164452 On ch=1 n=a#4 v=0
164486 On ch=1 n=d#4 v=0
164500 On ch=1 n=a#5 v=0
164528 On ch=1 n=g5 v=0
164542 On ch=1 n=d#5 v=0
164692 On ch=1 n=d#5 v=25
164694 On ch=1 n=d#6 v=29
164702 On ch=1 n=g5 v=35
164708 On ch=1 n=c5 v=20
164726 On ch=1 n=c4 v=19
164730 Par ch=1 c=64 v=0
164774 Par ch=1 c=64 v=127
164876 On ch=1 n=c4 v=0
164884 On ch=1 n=d#5 v=0
164890 On ch=1 n=g5 v=0
164894 On ch=1 n=d#6 v=0
164896 On ch=1 n=c5 v=0
165000 On ch=1 n=d#6 v=40
165006 On ch=1 n=g5 v=37
165006 On ch=1 n=d#5 v=37
165018 On ch=1 n=c5 v=24
165020 On ch=1 n=c4 v=24
165082 Par ch=1 c=64 v=0
165102 Par ch=1 c=64 v=127
165268 On ch=1 n=d#6 v=0
165302 On ch=1 n=c5 v=0
165314 On ch=1 n=g5 v=0
165342 On ch=1 n=c4 v=0
165364 On ch=1 n=d#5 v=0
165552 On ch=1 n=g5 v=40
165552 On ch=1 n=d#5 v=40
165560 On ch=1 n=c5 v=32
165570 On ch=1 n=c4 v=21
165578 On ch=1 n=g4 v=19
165714 On ch=1 n=c4 v=0
165716 On ch=1 n=g4 v=0
165742 On ch=1 n=c5 v=0
165744 On ch=1 n=d#5 v=0
165750 On ch=1 n=g5 v=0
165838 On ch=1 n=g5 v=40
165842 On ch=1 n=c5 v=39
165848 On ch=1 n=d#5 v=43
165852 On ch=1 n=c4 v=29
165858 On ch=1 n=g4 v=25
165932 Par ch=1 c=64 v=0
165996 Par ch=1 c=64 v=127
166222 On ch=1 n=c5 v=0
166240 On ch=1 n=d#5 v=0
166270 On ch=1 n=g5 v=0
166278 On ch=1 n=g4 v=0
166294 On ch=1 n=c4 v=0
166414 On ch=1 n=a#5 v=35
166418 On ch=1 n=d5 v=39
166434 On ch=1 n=a#4 v=19
166434 On ch=1 n=g4 v=21
166434 On ch=1 n=g3 v=28
166480 Par ch=1 c=64 v=0
166522 Par ch=1 c=64 v=127
166646 On ch=1 n=g3 v=0
166654 On ch=1 n=g4 v=0
166654 On ch=1 n=d5 v=0
166658 On ch=1 n=a#4 v=0
166664 On ch=1 n=a#5 v=0
166732 On ch=1 n=a#5 v=33
166740 On ch=1 n=a#4 v=34
166750 On ch=1 n=d5 v=40
166752 On ch=1 n=g3 v=35
166754 On ch=1 n=g4 v=25
166808 Par ch=1 c=64 v=0
166874 Par ch=1 c=64 v=127
167054 On ch=1 n=d5 v=0
167096 On ch=1 n=a#5 v=0
167172 On ch=1 n=a#4 v=0
167382 On ch=1 n=c6 v=25
167382 On ch=1 n=a#4 v=34
167382 On ch=1 n=c4 v=25
167388 On ch=1 n=g3 v=0
167394 On ch=1 n=e5 v=15
167442 On ch=1 n=g4 v=0
167506 On ch=1 n=c6 v=0
167524 On ch=1 n=e5 v=0
167592 On ch=1 n=c4 v=0
167592 On ch=1 n=a#4 v=0
167774 On ch=1 n=d#5 v=34
167778 On ch=1 n=a#4 v=48
167786 On ch=1 n=f5 v=26
167788 On ch=1 n=c4 v=35
167802 On ch=1 n=f3 v=25
167860 Par ch=1 c=64 v=0
168128 On ch=1 n=a4 v=46
168148 On ch=1 n=d#5 v=0
168166 On ch=1 n=a#4 v=0
168186 Par ch=1 c=64 v=127
168414 On ch=1 n=d5 v=37
168558 On ch=1 n=a4 v=0
168680 On ch=1 n=c5 v=40
168696 On ch=1 n=d5 v=0
168952 On ch=1 n=g4 v=43
168956 Par ch=1 c=64 v=0
168990 On ch=1 n=c4 v=0
169094 Par ch=1 c=64 v=127
169202 On ch=1 n=a4 v=30
169240 On ch=1 n=c5 v=0
169246 On ch=1 n=f3 v=0
169302 On ch=1 n=g4 v=0
169478 On ch=1 n=d5 v=28
169486 On ch=1 n=a#3 v=32
169492 On ch=1 n=g4 v=37
169508 On ch=1 n=a4 v=0
169508 On ch=1 n=f5 v=0
169538 Par ch=1 c=64 v=0
169708 Par ch=1 c=64 v=127
169796 On ch=1 n=f4 v=24
169826 On ch=1 n=d5 v=0
169958 On ch=1 n=g4 v=0
170062 On ch=1 n=d6 v=47
170066 On ch=1 n=d5 v=30
170160 On ch=1 n=a#3 v=0
170164 On ch=1 n=f4 v=0
170248 On ch=1 n=d6 v=0
170272 On ch=1 n=d5 v=0
170344 On ch=1 n=d5 v=40
170352 On ch=1 n=d6 v=57
170352 On ch=1 n=a#3 v=26
170356 On ch=1 n=f4 v=26
170408 Par ch=1 c=64 v=0
170484 Par ch=1 c=64 v=127
170718 On ch=1 n=a#3 v=0
170726 On ch=1 n=d6 v=0
170738 On ch=1 n=f4 v=0
170766 On ch=1 n=d5 v=0
170854 On ch=1 n=f#4 v=29
170860 On ch=1 n=a#3 v=28
170864 On ch=1 n=a#5 v=68
170864 On ch=1 n=d5 v=49
170892 Par ch=1 c=64 v=0
170912 Par ch=1 c=64 v=127
171024 On ch=1 n=a#3 v=0
171040 On ch=1 n=d5 v=0
171044 On ch=1 n=f#4 v=0
171052 On ch=1 n=a#5 v=0
171134 On ch=1 n=a#5 v=75
171138 On ch=1 n=d5 v=53
171140 On ch=1 n=f#4 v=28
171148 On ch=1 n=a#3 v=27
171182 Par ch=1 c=64 v=0
171236 Par ch=1 c=64 v=127
171450 On ch=1 n=a#5 v=0
171492 On ch=1 n=a#3 v=0
171538 On ch=1 n=d5 v=0
171552 On ch=1 n=f#4 v=0
171724 On ch=1 n=g5 v=62
171724 On ch=1 n=d5 v=48
171730 On ch=1 n=a#3 v=33
171738 On ch=1 n=g4 v=27
171760 Par ch=1 c=64 v=0
171802 Par ch=1 c=64 v=127
171886 On ch=1 n=a#3 v=0
171886 On ch=1 n=d5 v=0
171942 On ch=1 n=g5 v=0
171972 On ch=1 n=g4 v=0
172060 On ch=1 n=c4 v=29
172064 On ch=1 n=g4 v=33
172066 On ch=1 n=a#4 v=43
172200 On ch=1 n=d#5 v=47
172202 Par ch=1 c=64 v=0
172280 On ch=1 n=a5 v=59
172296 Par ch=1 c=64 v=127
172352 On ch=1 n=g5 v=51
172390 On ch=1 n=a#4 v=0
172468 On ch=1 n=g4 v=0
172480 On ch=1 n=a5 v=0
172498 On ch=1 n=c4 v=0
172534 On ch=1 n=d#5 v=0
172684 On ch=1 n=g5 v=0
172688 On ch=1 n=f5 v=67
172688 On ch=1 n=d#5 v=52
172688 On ch=1 n=a4 v=44
172700 On ch=1 n=c4 v=29
172718 Par ch=1 c=64 v=0
172772 Par ch=1 c=64 v=127
172930 On ch=1 n=f5 v=0
172940 On ch=1 n=a4 v=0
172964 On ch=1 n=c4 v=0
173028 On ch=1 n=d5 v=44
173032 On ch=1 n=f5 v=62
173032 On ch=1 n=a4 v=28
173036 On ch=1 n=d4 v=36
173068 On ch=1 n=d#5 v=0
173110 Par ch=1 c=64 v=0
173210 Par ch=1 c=64 v=127
173324 On ch=1 n=d4 v=0
173366 On ch=1 n=a4 v=0
173376 On ch=1 n=f5 v=0
173446 On ch=1 n=d5 v=0
173628 On ch=1 n=f#5 v=49
173634 On ch=1 n=d6 v=63
173636 On ch=1 n=a4 v=25
173636 On ch=1 n=d4 v=19
173638 On ch=1 n=d5 v=40
173640 On ch=1 n=c5 v=40
173670 Par ch=1 c=64 v=0
173702 Par ch=1 c=64 v=127
173794 On ch=1 n=a4 v=0
173886 On ch=1 n=d4 v=0
173914 On ch=1 n=c5 v=0
173926 On ch=1 n=f#5 v=0
173934 On ch=1 n=a#5 v=62
173936 On ch=1 n=a#4 v=48
173938 On ch=1 n=g5 v=55
173940 On ch=1 n=d#4 v=28
173970 On ch=1 n=d6 v=0
173974 On ch=1 n=d5 v=0
174056 Par ch=1 c=64 v=0
174166 Par ch=1 c=64 v=127
174306 On ch=1 n=d#4 v=0
174324 On ch=1 n=g5 v=0
174326 On ch=1 n=a#4 v=0
174340 On ch=1 n=a#5 v=0
174604 On ch=1 n=g6 v=64
174608 On ch=1 n=a#5 v=61
174608 On ch=1 n=g5 v=48
174616 On ch=1 n=c#5 v=34
174616 On ch=1 n=a#4 v=43
174616 On ch=1 n=e4 v=49
174674 Par ch=1 c=64 v=0
174750 Par ch=1 c=64 v=127
174978 On ch=1 n=e4 v=0
174984 On ch=1 n=g6 v=0
175008 On ch=1 n=a#4 v=0
175024 On ch=1 n=c#5 v=0
175072 On ch=1 n=a#5 v=0
175096 On ch=1 n=g5 v=0
175188 On ch=1 n=f6 v=64
175188 On ch=1 n=d5 v=43
175188 On ch=1 n=f4 v=60
175190 On ch=1 n=f5 v=64
175192 On ch=1 n=a#4 v=36
175194 On ch=1 n=a#5 v=61
175304 On ch=1 n=d5 v=0
175354 On ch=1 n=a#4 v=0
175362 On ch=1 n=f4 v=0
175378 On ch=1 n=f5 v=0
175456 On ch=1 n=e5 v=57
175456 On ch=1 n=c#5 v=55
175458 On ch=1 n=e6 v=69
175464 On ch=1 n=a#4 v=61
175464 On ch=1 n=g4 v=61
175472 On ch=1 n=f6 v=0
175624 On ch=1 n=a#5 v=0
175628 On ch=1 n=a#4 v=0
175642 On ch=1 n=c#5 v=0
175654 On ch=1 n=g4 v=0
175658 On ch=1 n=e5 v=0
175812 On ch=1 n=f6 v=72
175812 On ch=1 n=a#5 v=48
175816 On ch=1 n=d5 v=58
175820 On ch=1 n=g#4 v=73
175822 On ch=1 n=f5 v=61
175822 On ch=1 n=a#4 v=55
175834 On ch=1 n=e6 v=0
175880 Par ch=1 c=64 v=0
175978 Par ch=1 c=64 v=127
176152 On ch=1 n=d5 v=0
176212 On ch=1 n=a#4 v=0
176252 On ch=1 n=g#4 v=0
176552 On ch=1 n=a#2 v=46
176576 On ch=1 n=a#3 v=37
176792 On ch=1 n=a#2 v=0
176816 On ch=1 n=a#3 v=0
176896 On ch=1 n=a#2 v=46
176902 On ch=1 n=a#3 v=37
176994 Par ch=1 c=64 v=0
177048 Par ch=1 c=64 v=127
177136 On ch=1 n=a#2 v=0
177174 On ch=1 n=a#3 v=0
177176 On ch=1 n=f6 v=0
177192 On ch=1 n=a#5 v=0
177216 On ch=1 n=f5 v=0
177520 On ch=1 n=g#5 v=43
177524 On ch=1 n=a#5 v=43
177524 On ch=1 n=a#4 v=24
177524 On ch=1 n=f4 v=25
177526 On ch=1 n=d5 v=30
177526 On ch=1 n=a#3 v=34
177554 Par ch=1 c=64 v=0
177584 Par ch=1 c=64 v=127
177680 On ch=1 n=a#3 v=0
177680 On ch=1 n=f4 v=0
177690 On ch=1 n=a#4 v=0
177710 On ch=1 n=g#5 v=0
177728 On ch=1 n=a#5 v=0
177730 On ch=1 n=d5 v=0
177830 On ch=1 n=g#5 v=43
177832 On ch=1 n=f4 v=26
177832 On ch=1 n=a#3 v=36
177834 On ch=1 n=a#5 v=40
177834 On ch=1 n=d5 v=40
177836 On ch=1 n=a#4 v=24
177888 Par ch=1 c=64 v=0
177964 Par ch=1 c=64 v=127
178146 On ch=1 n=a#4 v=0
178150 On ch=1 n=d5 v=0
178156 On ch=1 n=a#3 v=0
178176 On ch=1 n=f4 v=0
178186 On ch=1 n=g#5 v=0
178406 On ch=1 n=d#4 v=40
178408 On ch=1 n=d#5 v=30
178414 On ch=1 n=g5 v=37
178414 On ch=1 n=a#4 v=30
178456 Par ch=1 c=64 v=0
178496 Par ch=1 c=64 v=127
178604 On ch=1 n=d#5 v=0
178606 On ch=1 n=d#4 v=0
178608 On ch=1 n=g5 v=0
178612 On ch=1 n=a#4 v=0
178704 On ch=1 n=d#5 v=32
178706 On ch=1 n=g5 v=41
178706 On ch=1 n=a#4 v=33
178712 On ch=1 n=d#4 v=34
178780 Par ch=1 c=64 v=0
178878 Par ch=1 c=64 v=127
179144 On ch=1 n=g5 v=0
179152 On ch=1 n=a#5 v=0
179158 On ch=1 n=d#4 v=0
179188 On ch=1 n=d#5 v=0
179214 On ch=1 n=a#4 v=0
179382 On ch=1 n=a#4 v=33
179384 On ch=1 n=d#5 v=21
179386 On ch=1 n=d#6 v=40
179388 On ch=1 n=g5 v=41
179394 On ch=1 n=d#4 v=32
179430 Par ch=1 c=64 v=0
179472 Par ch=1 c=64 v=127
179676 On ch=1 n=d#4 v=0
179680 On ch=1 n=g5 v=0
179682 On ch=1 n=d#6 v=0
179692 On ch=1 n=a#4 v=0
179696 On ch=1 n=d#5 v=0
179864 On ch=1 n=d#6 v=27
179864 On ch=1 n=g5 v=31
179864 On ch=1 n=a#4 v=25
179868 On ch=1 n=d#4 v=30
180460 Par ch=1 c=64 v=0
180954 Par ch=1 c=64 v=127
181116 On ch=1 n=a#4 v=0
181118 On ch=1 n=d#6 v=0
181136 On ch=1 n=g5 v=0
181138 On ch=1 n=d#4 v=0
181570 On ch=1 n=g5 v=55
181570 On ch=1 n=d#4 v=39
181578 On ch=1 n=c5 v=52
181872 On ch=1 n=a#5 v=60
181872 On ch=1 n=g4 v=35
181876 On ch=1 n=d5 v=56
181876 On ch=1 n=a#4 v=49
181882 On ch=1 n=g3 v=35
181890 On ch=1 n=g5 v=0
181898 On ch=1 n=c5 v=0
181932 On ch=1 n=d#4 v=0
181932 Par ch=1 c=64 v=0
181998 Par ch=1 c=64 v=127
182152 On ch=1 n=d5 v=0
182248 On ch=1 n=a#5 v=0
182428 On ch=1 n=a#4 v=0
182500 On ch=1 n=g3 v=0
182532 On ch=1 n=c4 v=49
182536 On ch=1 n=c6 v=61
182538 On ch=1 n=a#4 v=38
182540 On ch=1 n=e5 v=58
182576 On ch=1 n=g4 v=0
182594 Par ch=1 c=64 v=0
182658 Par ch=1 c=64 v=127
182838 On ch=1 n=e5 v=0
182872 On ch=1 n=c6 v=0
182922 On ch=1 n=a#4 v=0
182932 On ch=1 n=f3 v=38
183000 On ch=1 n=a4 v=44
183108 On ch=1 n=d#5 v=60
183142 On ch=1 n=c4 v=0
183188 On ch=1 n=c6 v=46
183192 Par ch=1 c=64 v=0
183304 Par ch=1 c=64 v=127
183434 On ch=1 n=a4 v=0
183482 On ch=1 n=c6 v=0
183514 On ch=1 n=d#5 v=0
183530 On ch=1 n=f3 v=0
184044 On ch=1 n=a#4 v=39
184048 On ch=1 n=d5 v=31
184048 On ch=1 n=a#2 v=38
184052 On ch=1 n=a#5 v=44
184294 On ch=1 n=a#5 v=0
184298 On ch=1 n=a#4 v=0
184302 On ch=1 n=a#2 v=0
184302 On ch=1 n=d5 v=0
184428 On ch=1 n=d5 v=54
184428 On ch=1 n=a#4 v=48
184432 On ch=1 n=a#5 v=53
184432 On ch=1 n=f4 v=29
184436 On ch=1 n=a#3 v=39
184542 Par ch=1 c=64 v=0
184738 Par ch=1 c=64 v=127
184906 On ch=1 n=f4 v=0
184960 On ch=1 n=d5 v=0
184968 On ch=1 n=a#5 v=0
184970 On ch=1 n=a#4 v=0
184978 On ch=1 n=a#3 v=0
185348 On ch=1 n=d4 v=27
185352 On ch=1 n=d5 v=52
185404 Par ch=1 c=64 v=0
185654 Par ch=1 c=64 v=127
185698 On ch=1 n=c5 v=50
185712 On ch=1 n=f#3 v=52
185754 On ch=1 n=d5 v=0
185870 On ch=1 n=d#4 v=30
185878 On ch=1 n=d#5 v=50
185886 On ch=1 n=d4 v=0
185962 On ch=1 n=c5 v=0
185992 On ch=1 n=d4 v=46
186000 On ch=1 n=d5 v=28
186010 On ch=1 n=d#5 v=0
186012 On ch=1 n=d#4 v=0
186060 On ch=1 n=f#3 v=0
186134 On ch=1 n=a5 v=52
186186 On ch=1 n=d5 v=0
186220 Par ch=1 c=64 v=0
186248 On ch=1 n=f#5 v=48
186288 On ch=1 n=a5 v=0
186290 Par ch=1 c=64 v=127
186364 On ch=1 n=d#5 v=52
186402 On ch=1 n=f#5 v=0
186486 On ch=1 n=g3 v=50
186492 On ch=1 n=a#4 v=63
186498 On ch=1 n=d5 v=50
186504 On ch=1 n=d#5 v=0
186512 Par ch=1 c=64 v=0
186578 Par ch=1 c=64 v=127
186602 On ch=1 n=d4 v=0
186604 On ch=1 n=d#4 v=53
186614 On ch=1 n=d#5 v=36
186624 On ch=1 n=a#4 v=0
186628 On ch=1 n=d5 v=0
186702 Par ch=1 c=64 v=0
186728 On ch=1 n=d#5 v=0
186736 On ch=1 n=d4 v=50
186740 On ch=1 n=d5 v=43
186744 On ch=1 n=d#4 v=0
186774 On ch=1 n=g3 v=0
186778 Par ch=1 c=64 v=127
186852 On ch=1 n=a#5 v=39
186866 On ch=1 n=d5 v=0
186978 On ch=1 n=a#5 v=0
186980 On ch=1 n=g5 v=46
187082 On ch=1 n=d#5 v=30
187106 On ch=1 n=g5 v=0
187202 On ch=1 n=d#5 v=0
187216 On ch=1 n=a3 v=60
187218 On ch=1 n=f#4 v=63
187302 On ch=1 n=f#4 v=0
187314 On ch=1 n=d#5 v=61
187384 On ch=1 n=d#5 v=0
187428 On ch=1 n=c5 v=39
187430 On ch=1 n=d5 v=63
187448 Par ch=1 c=64 v=0
187526 On ch=1 n=f#5 v=56
187526 Par ch=1 c=64 v=127
187602 On ch=1 n=d5 v=0
187650 On ch=1 n=f#5 v=0
187660 On ch=1 n=c6 v=58
187706 On ch=1 n=c6 v=0
187756 On ch=1 n=d6 v=73
187870 On ch=1 n=f#6 v=56
187964 On ch=1 n=d6 v=0
187990 On ch=1 n=c7 v=61
188004 On ch=1 n=f#6 v=0
188042 On ch=1 n=c7 v=0
188090 On ch=1 n=c7 v=69
188232 On ch=1 n=a7 v=67
188270 On ch=1 n=a7 v=0
188276 On ch=1 n=d4 v=0
188284 On ch=1 n=c7 v=0
188284 On ch=1 n=c5 v=0
188312 On ch=1 n=a3 v=0
188532 On ch=1 n=a#6 v=56
188540 On ch=1 n=g7 v=62
188672 Par ch=1 c=64 v=0
188686 On ch=1 n=d3 v=62
188692 On ch=1 n=a#6 v=0
188694 On ch=1 n=a6 v=62
188736 Par ch=1 c=64 v=127
188778 On ch=1 n=g7 v=0
188814 On ch=1 n=f#7 v=57
188850 On ch=1 n=a6 v=0
188920 On ch=1 n=f#7 v=0
188942 On ch=1 n=d#7 v=49
188950 On ch=1 n=g6 v=68
188960 On ch=1 n=d4 v=57
188992 On ch=1 n=d#7 v=0
189016 On ch=1 n=d3 v=0
189056 On ch=1 n=g6 v=0
189066 On ch=1 n=f#6 v=67
189182 On ch=1 n=d7 v=58
189194 On ch=1 n=a4 v=54
189200 On ch=1 n=f#6 v=0
189298 On ch=1 n=d7 v=0
189300 On ch=1 n=c7 v=57
189308 On ch=1 n=d#6 v=73
189310 On ch=1 n=a4 v=0
189370 On ch=1 n=d#6 v=0
189380 On ch=1 n=c7 v=0
189432 On ch=1 n=d6 v=70
189440 On ch=1 n=d5 v=49
189476 On ch=1 n=d4 v=0
189548 On ch=1 n=a#6 v=55
189582 On ch=1 n=d6 v=0
189610 On ch=1 n=a#6 v=0
189672 On ch=1 n=c6 v=71
189680 On ch=1 n=a6 v=62
189690 On ch=1 n=f#5 v=44
189746 On ch=1 n=d5 v=0
189784 On ch=1 n=d#6 v=67
189806 On ch=1 n=c6 v=0
189852 On ch=1 n=f#5 v=0
189852 On ch=1 n=a6 v=0
189910 On ch=1 n=c7 v=64
189960 On ch=1 n=d#6 v=0
190018 On ch=1 n=a#6 v=59
190024 On ch=1 n=d6 v=69
190052 On ch=1 n=c7 v=0
190064 On ch=1 n=a#6 v=0
190072 On ch=1 n=d6 v=0
190172 On ch=1 n=g3 v=57
190178 Par ch=1 c=64 v=0
190186 On ch=1 n=c6 v=50
190246 Par ch=1 c=64 v=127
190294 On ch=1 n=g3 v=0
190304 On ch=1 n=a6 v=49
190386 On ch=1 n=c6 v=0
190416 On ch=1 n=a6 v=0
190446 On ch=1 n=a#6 v=68
190450 On ch=1 n=d6 v=63
190456 On ch=1 n=d4 v=56
190542 On ch=1 n=a#6 v=0
190550 On ch=1 n=d6 v=0
190580 On ch=1 n=a5 v=71
190584 On ch=1 n=f#6 v=39
190630 On ch=1 n=d4 v=0
190640 On ch=1 n=f#6 v=0
190646 On ch=1 n=a5 v=0
190684 On ch=1 n=c6 v=63
190694 On ch=1 n=a6 v=62
190702 On ch=1 n=d5 v=67
190764 On ch=1 n=c6 v=0
190800 On ch=1 n=d5 v=0
190802 On ch=1 n=a6 v=0
190826 On ch=1 n=f#5 v=73
190898 On ch=1 n=a#5 v=74
190906 On ch=1 n=g6 v=63
190946 On ch=1 n=a#5 v=0
190954 On ch=1 n=g6 v=0
190966 Par ch=1 c=64 v=0
190992 On ch=1 n=g6 v=62
190996 On ch=1 n=g5 v=58
191002 On ch=1 n=a#5 v=62
191006 On ch=1 n=f#5 v=0
191032 Par ch=1 c=64 v=127
191048 On ch=1 n=g5 v=0
191052 On ch=1 n=g6 v=0
191078 On ch=1 n=a#5 v=0
191184 On ch=1 n=f#5 v=73
191188 On ch=1 n=f#4 v=64
191248 On ch=1 n=f#5 v=0
191254 On ch=1 n=f#4 v=0
191326 On ch=1 n=f#5 v=55
191326 On ch=1 n=f#4 v=58
191426 On ch=1 n=f#4 v=0
191442 On ch=1 n=f#5 v=0
191444 On ch=1 n=f4 v=64
191454 On ch=1 n=f5 v=60
191508 On ch=1 n=f4 v=0
191518 On ch=1 n=f5 v=0
191568 On ch=1 n=f4 v=69
191578 On ch=1 n=f5 v=62
191700 On ch=1 n=f5 v=0
191700 On ch=1 n=e5 v=67
191706 On ch=1 n=e4 v=41
191712 On ch=1 n=f4 v=0
191844 On ch=1 n=g#3 v=61
191854 On ch=1 n=d5 v=53
191862 On ch=1 n=e4 v=0
191866 Par ch=1 c=64 v=0
191888 On ch=1 n=e5 v=0
191968 On ch=1 n=f4 v=73
191972 Par ch=1 c=64 v=127
191988 On ch=1 n=f5 v=58
192026 On ch=1 n=d5 v=0
192102 On ch=1 n=e5 v=38
192104 On ch=1 n=e4 v=61
192108 On ch=1 n=f4 v=0
192116 On ch=1 n=f5 v=0
192148 On ch=1 n=g#3 v=0
192180 On ch=1 n=e5 v=0
192230 On ch=1 n=b5 v=69
192342 On ch=1 n=g#5 v=42
192374 On ch=1 n=b5 v=0
192466 On ch=1 n=f5 v=50
192494 On ch=1 n=g#5 v=0
192534 On ch=1 n=f5 v=0
192578 On ch=1 n=a3 v=64
192584 On ch=1 n=c5 v=53
192586 Par ch=1 c=64 v=0
192600 On ch=1 n=e5 v=47
192612 On ch=1 n=e4 v=0
192648 Par ch=1 c=64 v=127
192700 On ch=1 n=c5 v=0
192716 On ch=1 n=f5 v=56
192718 On ch=1 n=f4 v=67
192746 On ch=1 n=e5 v=0
192840 On ch=1 n=e5 v=42
192840 On ch=1 n=e4 v=67
192850 On ch=1 n=f4 v=0
192850 On ch=1 n=f5 v=0
192882 Par ch=1 c=64 v=0
192926 Par ch=1 c=64 v=127
192968 On ch=1 n=e5 v=0
192978 On ch=1 n=c6 v=39
193078 On ch=1 n=a5 v=39
193098 On ch=1 n=c6 v=0
193156 On ch=1 n=a3 v=0
193184 On ch=1 n=f5 v=55
193194 On ch=1 n=a5 v=0
193282 On ch=1 n=f5 v=0
193294 Par ch=1 c=64 v=0
193308 On ch=1 n=g#4 v=67
193320 On ch=1 n=b3 v=64
193346 Par ch=1 c=64 v=127
193360 On ch=1 n=e4 v=0
193394 On ch=1 n=g#4 v=0
193416 On ch=1 n=f5 v=57
193466 On ch=1 n=f5 v=0
193502 Par ch=1 c=64 v=0
193520 On ch=1 n=e4 v=46
193528 On ch=1 n=e5 v=71
193528 On ch=1 n=d5 v=56
193598 Par ch=1 c=64 v=127
193618 On ch=1 n=g#5 v=60
193706 On ch=1 n=e5 v=0
193740 On ch=1 n=g#5 v=0
193750 On ch=1 n=d6 v=57
193784 On ch=1 n=d6 v=0
193834 On ch=1 n=e6 v=74
193956 On ch=1 n=g#6 v=55
194038 On ch=1 n=e6 v=0
194064 On ch=1 n=d7 v=61
194076 On ch=1 n=g#6 v=0
194112 On ch=1 n=d7 v=0
194164 On ch=1 n=d7 v=73
194314 On ch=1 n=b7 v=69
194354 On ch=1 n=d5 v=0
194356 On ch=1 n=e4 v=0
194364 On ch=1 n=b7 v=0
194368 On ch=1 n=d7 v=0
194384 On ch=1 n=b3 v=0
194630 On ch=1 n=a7 v=58
194634 On ch=1 n=c7 v=50
194708 On ch=1 n=c7 v=0
194770 Par ch=1 c=64 v=0
194786 On ch=1 n=a7 v=0
194804 On ch=1 n=e3 v=62
194806 On ch=1 n=c7 v=71
194834 Par ch=1 c=64 v=127
194960 On ch=1 n=a7 v=50
194982 On ch=1 n=e3 v=0
194996 On ch=1 n=c7 v=0
195082 On ch=1 n=g#7 v=64
195086 On ch=1 n=e4 v=67
195094 On ch=1 n=a7 v=0
195094 On ch=1 n=b6 v=63
195132 On ch=1 n=g#7 v=0
195206 On ch=1 n=a6 v=71
195218 On ch=1 n=b6 v=0
195272 On ch=1 n=a6 v=0
195324 On ch=1 n=f7 v=68
195332 On ch=1 n=b4 v=58
195426 On ch=1 n=e7 v=51
195436 On ch=1 n=g#6 v=73
195438 On ch=1 n=f7 v=0
195484 On ch=1 n=g#6 v=0
195488 On ch=1 n=e7 v=0
195562 On ch=1 n=b4 v=0
195562 On ch=1 n=f6 v=62
195562 On ch=1 n=d5 v=57
195572 On ch=1 n=e4 v=0
195638 On ch=1 n=d5 v=0
195668 On ch=1 n=d7 v=55
195680 On ch=1 n=f6 v=0
195716 On ch=1 n=d7 v=0
195800 On ch=1 n=c7 v=69
195800 On ch=1 n=e6 v=67
195808 On ch=1 n=g#5 v=41
195846 On ch=1 n=e6 v=0
195862 On ch=1 n=c7 v=0
195926 On ch=1 n=b6 v=60
195930 On ch=1 n=d6 v=67
196054 On ch=1 n=d6 v=0
196054 On ch=1 n=f6 v=50
196060 On ch=1 n=b6 v=0
196066 On ch=1 n=g#5 v=0
196072 On ch=1 n=d7 v=64
196168 On ch=1 n=f6 v=0
196200 On ch=1 n=c7 v=60
196232 On ch=1 n=d7 v=0
196270 On ch=1 n=c7 v=0
196340 On ch=1 n=a2 v=72
196348 On ch=1 n=d6 v=67
196364 Par ch=1 c=64 v=0
196416 Par ch=1 c=64 v=127
196480 On ch=1 n=b6 v=56
196538 On ch=1 n=d6 v=0
196580 On ch=1 n=b6 v=0
196596 On ch=1 n=a3 v=62
196616 On ch=1 n=c7 v=62
196620 On ch=1 n=e6 v=62
196648 On ch=1 n=a2 v=0
196674 On ch=1 n=c7 v=0
196714 On ch=1 n=e6 v=0
196738 On ch=1 n=e4 v=67
196778 On ch=1 n=g#6 v=61
196796 On ch=1 n=a3 v=0
196804 On ch=1 n=b5 v=50
196854 On ch=1 n=b5 v=0
196894 On ch=1 n=a4 v=64
196900 On ch=1 n=e4 v=0
196904 On ch=1 n=b6 v=67
196940 On ch=1 n=g#6 v=0
196962 On ch=1 n=a4 v=0
197046 On ch=1 n=a6 v=65
197050 On ch=1 n=e5 v=69
197060 On ch=1 n=b6 v=0
197066 On ch=1 n=c6 v=52
197170 On ch=1 n=c6 v=0
197176 On ch=1 n=a6 v=0
197200 On ch=1 n=a5 v=74
197210 On ch=1 n=e5 v=0
197354 On ch=1 n=a6 v=62
197358 On ch=1 n=c6 v=53
197488 Par ch=1 c=64 v=0
197500 On ch=1 n=e5 v=68
197522 On ch=1 n=a5 v=0
197546 Par ch=1 c=64 v=127
197554 On ch=1 n=a6 v=0
197574 On ch=1 n=c6 v=0
197658 On ch=1 n=c6 v=49
197666 On ch=1 n=a6 v=56
197820 On ch=1 n=d#5 v=74
197822 Par ch=1 c=64 v=0
197850 On ch=1 n=e5 v=0
197890 Par ch=1 c=64 v=127
197898 On ch=1 n=a6 v=0
197910 On ch=1 n=c6 v=0
198012 On ch=1 n=c6 v=53
198016 On ch=1 n=a6 v=55
198274 On ch=1 n=d5 v=67
198290 On ch=1 n=d#5 v=0
198320 Par ch=1 c=64 v=0
198324 On ch=1 n=c6 v=0
198340 On ch=1 n=a6 v=0
198400 Par ch=1 c=64 v=127
198456 On ch=1 n=a#6 v=64
198460 On ch=1 n=d6 v=43
198636 On ch=1 n=d6 v=0
198666 On ch=1 n=a#6 v=0
198750 On ch=1 n=a6 v=49
198752 On ch=1 n=c6 v=53
198866 Par ch=1 c=64 v=0
198904 On ch=1 n=f#4 v=58
198934 Par ch=1 c=64 v=127
198964 On ch=1 n=d5 v=0
198984 On ch=1 n=c6 v=0
199028 On ch=1 n=d#6 v=56
199036 On ch=1 n=c7 v=53
199052 On ch=1 n=a6 v=0
199152 Par ch=1 c=64 v=0
199184 On ch=1 n=g4 v=59
199204 On ch=1 n=f#4 v=0
199210 Par ch=1 c=64 v=127
199300 On ch=1 n=a#6 v=57
199308 On ch=1 n=d#6 v=0
199308 On ch=1 n=d6 v=57
199344 On ch=1 n=c7 v=0
199374 On ch=1 n=a#6 v=0
199376 On ch=1 n=d6 v=0
199458 On ch=1 n=a4 v=62
199470 On ch=1 n=g4 v=0
199566 On ch=1 n=f#6 v=57
199574 On ch=1 n=c6 v=53
199640 On ch=1 n=c6 v=0
199670 On ch=1 n=f#6 v=0
199710 On ch=1 n=a#4 v=62
199718 On ch=1 n=g6 v=55
199720 On ch=1 n=a#5 v=78
199754 On ch=1 n=a4 v=0
199766 On ch=1 n=a#4 v=0
199776 On ch=1 n=a#5 v=0
199814 On ch=1 n=g6 v=0
199846 On ch=1 n=a#6 v=67
199860 On ch=1 n=d6 v=62
199864 On ch=1 n=d4 v=69
199978 Par ch=1 c=64 v=0
200006 On ch=1 n=d3 v=72
200082 Par ch=1 c=64 v=127
200128 On ch=1 n=d3 v=0
200150 On ch=1 n=a#6 v=0
200152 On ch=1 n=d4 v=0
200166 On ch=1 n=d6 v=0
200168 On ch=1 n=a6 v=61
200178 On ch=1 n=c6 v=44
200322 On ch=1 n=d5 v=51
200398 On ch=1 n=a6 v=0
200440 On ch=1 n=a#6 v=62
200456 On ch=1 n=d6 v=58
200474 On ch=1 n=c6 v=0
200546 Par ch=1 c=64 v=0
200560 On ch=1 n=d6 v=0
200564 On ch=1 n=a#6 v=0
200570 On ch=1 n=d5 v=0
200582 On ch=1 n=f#5 v=47
200582 On ch=1 n=c5 v=48
200586 On ch=1 n=f#6 v=58
200592 On ch=1 n=a5 v=56
200608 Par ch=1 c=64 v=127
200690 On ch=1 n=f#6 v=0
200744 On ch=1 n=a6 v=58
200744 On ch=1 n=c6 v=62
200774 On ch=1 n=a5 v=0
200810 On ch=1 n=c6 v=0
200812 On ch=1 n=f#5 v=0
200816 On ch=1 n=a6 v=0
200844 On ch=1 n=c5 v=0
200870 On ch=1 n=c6 v=61
200874 Par ch=1 c=64 v=0
200880 On ch=1 n=g4 v=56
200886 On ch=1 n=a6 v=38
200924 Par ch=1 c=64 v=127
201006 On ch=1 n=c6 v=0
201038 On ch=1 n=a6 v=0
201060 On ch=1 n=a#5 v=67
201074 On ch=1 n=g6 v=51
201098 On ch=1 n=g6 v=0
201106 On ch=1 n=a#5 v=0
201108 On ch=1 n=a6 v=48
201144 On ch=1 n=a#5 v=45
201154 On ch=1 n=g6 v=64
201164 Par ch=1 c=64 v=0
201176 On ch=1 n=d5 v=61
201180 On ch=1 n=a6 v=0
201224 Par ch=1 c=64 v=127
201246 On ch=1 n=a#5 v=0
201308 On ch=1 n=f#6 v=58
201308 On ch=1 n=a5 v=56
201314 On ch=1 n=g6 v=0
201464 On ch=1 n=c#5 v=67
201472 On ch=1 n=a5 v=0
201478 Par ch=1 c=64 v=0
201490 On ch=1 n=g4 v=0
201504 On ch=1 n=d5 v=0
201558 Par ch=1 c=64 v=127
201620 On ch=1 n=g6 v=51
201626 On ch=1 n=a#5 v=57
201644 On ch=1 n=f#6 v=0
201786 Par ch=1 c=64 v=0
201802 On ch=1 n=c5 v=64
201826 On ch=1 n=c#5 v=0
201970 On ch=1 n=g6 v=0
201974 On ch=1 n=g#6 v=60
201988 On ch=1 n=c6 v=57
202006 On ch=1 n=a#5 v=0
202246 Par ch=1 c=64 v=127
202304 On ch=1 n=c6 v=0
202306 On ch=1 n=g#6 v=0
202324 On ch=1 n=g6 v=56
202324 On ch=1 n=a#5 v=52
202518 On ch=1 n=e4 v=62
202568 On ch=1 n=c5 v=0
202630 On ch=1 n=a#5 v=0
202660 On ch=1 n=a#6 v=64
202668 On ch=1 n=c#6 v=58
202678 On ch=1 n=g6 v=0
202820 On ch=1 n=f4 v=64
202850 On ch=1 n=e4 v=0
202862 Par ch=1 c=64 v=0
202940 On ch=1 n=g#6 v=65
202956 On ch=1 n=c6 v=60
202964 On ch=1 n=a#6 v=0
202974 On ch=1 n=c#6 v=0
203096 On ch=1 n=g4 v=57
203102 Par ch=1 c=64 v=127
203114 On ch=1 n=g#6 v=0
203136 On ch=1 n=c6 v=0
203146 On ch=1 n=f4 v=0
203236 On ch=1 n=a#5 v=73
203246 On ch=1 n=e6 v=61
203302 On ch=1 n=a#5 v=0
203368 On ch=1 n=g#4 v=65
203378 On ch=1 n=g#5 v=73
203382 On ch=1 n=f6 v=62
203390 On ch=1 n=e6 v=0
203398 On ch=1 n=g4 v=0
203418 On ch=1 n=g#4 v=0
203512 On ch=1 n=g#5 v=0
203522 On ch=1 n=f6 v=0
203524 On ch=1 n=c4 v=73
203534 On ch=1 n=g#6 v=60
203544 On ch=1 n=c6 v=58
203674 Par ch=1 c=64 v=0
203704 On ch=1 n=c3 v=79
203778 Par ch=1 c=64 v=127
203838 On ch=1 n=c3 v=0
203866 On ch=1 n=c4 v=0
203880 On ch=1 n=g#6 v=0
203886 On ch=1 n=a#5 v=58
203888 On ch=1 n=g6 v=57
203902 On ch=1 n=c6 v=0
204048 On ch=1 n=c5 v=60
204174 On ch=1 n=g6 v=0
204186 On ch=1 n=g#6 v=56
204202 On ch=1 n=c6 v=56
204238 On ch=1 n=a#5 v=0
204314 On ch=1 n=g#6 v=0
204320 On ch=1 n=c6 v=0
204338 Par ch=1 c=64 v=0
204346 On ch=1 n=a#4 v=62
204354 On ch=1 n=e5 v=53
204358 On ch=1 n=e6 v=56
204358 On ch=1 n=g5 v=56
204368 On ch=1 n=c5 v=0
204394 Par ch=1 c=64 v=127
204440 On ch=1 n=e6 v=0
204518 On ch=1 n=g6 v=48
204526 On ch=1 n=a#5 v=57
204588 On ch=1 n=g5 v=0
204596 On ch=1 n=a#5 v=0
204608 On ch=1 n=g6 v=0
204668 On ch=1 n=a#4 v=0
204674 On ch=1 n=f4 v=56
204680 On ch=1 n=a#5 v=58
204690 On ch=1 n=g6 v=30
204694 Par ch=1 c=64 v=0
204724 On ch=1 n=e5 v=0
204738 Par ch=1 c=64 v=127
204828 On ch=1 n=a#5 v=0
204836 On ch=1 n=g6 v=0
204882 On ch=1 n=g#5 v=67
204886 On ch=1 n=f6 v=52
204930 On ch=1 n=f6 v=0
204932 On ch=1 n=g#5 v=0
204940 On ch=1 n=g6 v=58
204998 On ch=1 n=f6 v=60
204998 On ch=1 n=g#5 v=58
205008 On ch=1 n=c5 v=55
205014 On ch=1 n=g6 v=0
205018 Par ch=1 c=64 v=0
205084 Par ch=1 c=64 v=127
205104 On ch=1 n=g#5 v=0
205140 On ch=1 n=f6 v=0
205176 On ch=1 n=g5 v=42
205178 On ch=1 n=e6 v=49
205322 On ch=1 n=g5 v=0
205342 On ch=1 n=c5 v=0
205344 On ch=1 n=f4 v=0
205350 On ch=1 n=g#4 v=50
205354 Par ch=1 c=64 v=0
205362 On ch=1 n=f5 v=51
205412 Par ch=1 c=64 v=127
205426 On ch=1 n=f5 v=0
205442 On ch=1 n=g#4 v=0
205504 On ch=1 n=e6 v=0
205536 On ch=1 n=g#5 v=56
205542 On ch=1 n=f6 v=51
205594 On ch=1 n=g#5 v=0
205610 On ch=1 n=f6 v=0
205690 Par ch=1 c=64 v=0
205706 On ch=1 n=g#3 v=62
205710 On ch=1 n=g#5 v=58
205716 On ch=1 n=f6 v=56
205744 Par ch=1 c=64 v=127
205772 On ch=1 n=g#3 v=0
205792 On ch=1 n=g#5 v=0
205802 On ch=1 n=f6 v=0
205860 On ch=1 n=f#6 v=52
205882 On ch=1 n=a#5 v=50
205962 On ch=1 n=a#5 v=0
206026 On ch=1 n=g#4 v=47
206050 On ch=1 n=a#5 v=3
206084 On ch=1 n=a#5 v=0
206084 On ch=1 n=f#6 v=0
206096 On ch=1 n=a#4 v=65
206100 On ch=1 n=g#4 v=0
206178 On ch=1 n=g#4 v=52
206194 On ch=1 n=g#5 v=1
206196 On ch=1 n=a#4 v=0
206214 On ch=1 n=f6 v=55
206250 On ch=1 n=g#4 v=0
206254 On ch=1 n=g4 v=61
206282 On ch=1 n=g#5 v=0
206310 On ch=1 n=g#4 v=65
206324 On ch=1 n=g4 v=0
206366 On ch=1 n=f6 v=0
206370 On ch=1 n=d#6 v=58
206370 On ch=1 n=f#5 v=71
206380 On ch=1 n=c4 v=60
206380 Par ch=1 c=64 v=0
206436 Par ch=1 c=64 v=127
206452 On ch=1 n=f#5 v=0
206462 On ch=1 n=g#4 v=0
206480 On ch=1 n=c4 v=0
206530 On ch=1 n=a#5 v=64
206538 On ch=1 n=f#6 v=50
206546 On ch=1 n=d#6 v=0
206626 On ch=1 n=f#6 v=0
206666 On ch=1 n=c#3 v=64
206672 Par ch=1 c=64 v=0
206694 On ch=1 n=f6 v=62
206694 On ch=1 n=g#5 v=61
206702 On ch=1 n=a#5 v=0
206724 Par ch=1 c=64 v=127
206732 On ch=1 n=c#3 v=0
206800 On ch=1 n=f6 v=0
206822 On ch=1 n=f#6 v=62
206830 On ch=1 n=a#5 v=64
206864 On ch=1 n=g#5 v=0
206886 On ch=1 n=a#5 v=0
206922 On ch=1 n=f#6 v=0
206960 On ch=1 n=f6 v=61
206960 On ch=1 n=g#5 v=47
206968 On ch=1 n=g4 v=29
206980 On ch=1 n=g#4 v=69
207000 On ch=1 n=g4 v=0
207000 On ch=1 n=g#5 v=0
207012 On ch=1 n=a#4 v=61
207046 On ch=1 n=g#4 v=0
207060 On ch=1 n=g#4 v=80
207076 On ch=1 n=f6 v=0
207080 On ch=1 n=g4 v=54
207106 On ch=1 n=a#4 v=0
207106 On ch=1 n=c6 v=43
207114 On ch=1 n=f#5 v=41
207120 On ch=1 n=g#4 v=0
207130 On ch=1 n=g#4 v=65
207156 On ch=1 n=c6 v=0
207164 On ch=1 n=g4 v=0
207200 On ch=1 n=f#5 v=0
207220 On ch=1 n=g#4 v=0
207222 On ch=1 n=c#5 v=56
207230 On ch=1 n=f5 v=62
207242 On ch=1 n=c#6 v=55
207256 Par ch=1 c=64 v=0
207308 Par ch=1 c=64 v=127
207322 On ch=1 n=c#5 v=0
207348 On ch=1 n=f5 v=0
207392 On ch=1 n=f6 v=67
207404 On ch=1 n=c#6 v=0
207530 On ch=1 n=d#6 v=62
207536 On ch=1 n=f6 v=0
207538 On ch=1 n=g5 v=56
207544 On ch=1 n=d#3 v=67
207556 Par ch=1 c=64 v=0
207600 Par ch=1 c=64 v=127
207648 On ch=1 n=d#3 v=0
207670 On ch=1 n=d#6 v=0
207686 On ch=1 n=f6 v=56
207710 On ch=1 n=g5 v=0
207810 On ch=1 n=d#4 v=49
207816 Par ch=1 c=64 v=0
207824 On ch=1 n=d#6 v=62
207824 On ch=1 n=g5 v=53
207834 On ch=1 n=f6 v=0
207880 Par ch=1 c=64 v=127
207954 On ch=1 n=f6 v=57
207958 On ch=1 n=g5 v=0
207962 On ch=1 n=d#6 v=0
208052 On ch=1 n=d#4 v=0
208080 On ch=1 n=d#5 v=61
208084 On ch=1 n=c#6 v=67
208092 On ch=1 n=f6 v=0
208094 On ch=1 n=f5 v=59
208120 On ch=1 n=d#5 v=0
208170 On ch=1 n=f5 v=0
208176 On ch=1 n=c#6 v=0
208206 On ch=1 n=d#6 v=56
208312 On ch=1 n=d#6 v=0
208334 Par ch=1 c=64 v=0
208348 On ch=1 n=c6 v=57
208350 On ch=1 n=g#3 v=62
208358 On ch=1 n=d#5 v=63
208400 Par ch=1 c=64 v=127
208418 On ch=1 n=g#3 v=0
208474 On ch=1 n=c6 v=0
208492 On ch=1 n=c#6 v=62
208520 On ch=1 n=d#5 v=0
208574 On ch=1 n=c#6 v=0
208592 Par ch=1 c=64 v=0
208618 On ch=1 n=c#5 v=71
208620 On ch=1 n=d#4 v=49
208628 On ch=1 n=a#5 v=49
208656 Par ch=1 c=64 v=127
208742 On ch=1 n=c6 v=56
208752 On ch=1 n=a#5 v=0
208756 On ch=1 n=c#5 v=0
208804 On ch=1 n=d#4 v=0
208848 On ch=1 n=c6 v=0
208866 On ch=1 n=g#5 v=73
208872 On ch=1 n=c5 v=58
208872 On ch=1 n=g#4 v=58
208878 On ch=1 n=d#5 v=73
208978 On ch=1 n=g#5 v=0
208986 On ch=1 n=d#5 v=0
208992 On ch=1 n=g#4 v=0
208992 On ch=1 n=c5 v=0
209126 Par ch=1 c=64 v=0
209138 On ch=1 n=g#3 v=60
209148 On ch=1 n=g#6 v=67
209154 On ch=1 n=f7 v=62
209192 Par ch=1 c=64 v=127
209206 On ch=1 n=g#3 v=0
209220 On ch=1 n=g#6 v=0
209240 On ch=1 n=f7 v=0
209308 On ch=1 n=f#7 v=55
209324 On ch=1 n=a#6 v=48
209388 On ch=1 n=a#6 v=0
209446 On ch=1 n=g#5 v=61
209510 On ch=1 n=a#5 v=71
209514 On ch=1 n=g#5 v=0
209568 On ch=1 n=a#5 v=0
209570 On ch=1 n=g#5 v=62
209578 On ch=1 n=g#6 v=26
209586 On ch=1 n=f#7 v=0
209604 On ch=1 n=f7 v=62
209652 On ch=1 n=g5 v=67
209656 On ch=1 n=g#5 v=0
209664 On ch=1 n=g#6 v=0
209698 On ch=1 n=g#5 v=66
209738 On ch=1 n=g5 v=0
209750 On ch=1 n=f7 v=0
209756 On ch=1 n=c5 v=77
209768 Par ch=1 c=64 v=0
209776 On ch=1 n=f#6 v=73
209778 On ch=1 n=g#5 v=0
209782 On ch=1 n=d#7 v=56
209816 Par ch=1 c=64 v=127
209834 On ch=1 n=f#6 v=0
209834 On ch=1 n=c5 v=0
209902 On ch=1 n=f#7 v=65
209910 On ch=1 n=d#7 v=0
209912 On ch=1 n=a#6 v=58
210010 On ch=1 n=f#7 v=0
210026 On ch=1 n=a#6 v=0
210038 Par ch=1 c=64 v=0
210046 On ch=1 n=g#6 v=73
210054 On ch=1 n=c#4 v=65
210058 On ch=1 n=f7 v=64
210078 Par ch=1 c=64 v=127
210096 On ch=1 n=c#4 v=0
210132 On ch=1 n=f7 v=0
210178 On ch=1 n=a#6 v=58
210182 On ch=1 n=f#7 v=57
210244 On ch=1 n=a#6 v=0
210284 On ch=1 n=f#7 v=0
210296 On ch=1 n=f7 v=53
210314 On ch=1 n=g5 v=36
210332 On ch=1 n=g#5 v=68
210352 On ch=1 n=g5 v=0
210352 On ch=1 n=g#6 v=0
210372 On ch=1 n=a#5 v=65
210398 On ch=1 n=g#5 v=0
210416 On ch=1 n=g#5 v=80
210418 On ch=1 n=f7 v=0
210434 On ch=1 n=f#6 v=67
210440 On ch=1 n=g5 v=54
210458 On ch=1 n=a#5 v=0
210476 On ch=1 n=g#5 v=0
210486 On ch=1 n=g#5 v=67
210518 On ch=1 n=g5 v=0
210524 On ch=1 n=f#6 v=0
210558 On ch=1 n=f6 v=56
210570 On ch=1 n=c#6 v=65
210574 On ch=1 n=g#5 v=0
210574 On ch=1 n=c#7 v=63
210586 Par ch=1 c=64 v=0
210642 Par ch=1 c=64 v=127
210656 On ch=1 n=c#6 v=0
210694 On ch=1 n=f6 v=0
210720 On ch=1 n=f7 v=67
210724 On ch=1 n=c#7 v=0
210844 Par ch=1 c=64 v=0
210860 On ch=1 n=d#7 v=68
210860 On ch=1 n=g6 v=62
210866 On ch=1 n=f7 v=0
210866 On ch=1 n=d#4 v=73
210898 Par ch=1 c=64 v=127
210934 On ch=1 n=d#4 v=0
210992 On ch=1 n=f7 v=58
210998 On ch=1 n=d#7 v=0
211016 On ch=1 n=g6 v=0
211100 Par ch=1 c=64 v=0
211118 On ch=1 n=d#5 v=58
211120 On ch=1 n=d#7 v=62
211124 On ch=1 n=f7 v=0
211128 On ch=1 n=g6 v=67
211156 Par ch=1 c=64 v=127
211236 On ch=1 n=d#7 v=0
211238 On ch=1 n=g6 v=0
211246 On ch=1 n=f7 v=57
211352 On ch=1 n=d#5 v=0
211360 On ch=1 n=d#6 v=56
211368 On ch=1 n=f7 v=0
211368 On ch=1 n=c#7 v=74
211372 On ch=1 n=f6 v=67
211380 On ch=1 n=g5 v=49
211396 On ch=1 n=d#6 v=0
211404 On ch=1 n=g5 v=0
211454 On ch=1 n=f6 v=0
211456 On ch=1 n=c#7 v=0
211492 On ch=1 n=d#7 v=48
211576 On ch=1 n=d#7 v=0
211592 Par ch=1 c=64 v=0
211620 On ch=1 n=g#4 v=60
211628 On ch=1 n=c7 v=58
211638 On ch=1 n=d#6 v=64
211658 Par ch=1 c=64 v=127
211676 On ch=1 n=g#4 v=0
211740 On ch=1 n=d#6 v=0
211752 On ch=1 n=c7 v=0
211764 On ch=1 n=c#7 v=47
211838 On ch=1 n=c#7 v=0
211874 On ch=1 n=c#6 v=73
211882 On ch=1 n=d#5 v=62
211886 On ch=1 n=a#6 v=53
211956 On ch=1 n=a#6 v=0
211982 On ch=1 n=d#5 v=0
212000 On ch=1 n=c#6 v=0
212010 On ch=1 n=c7 v=36
212086 On ch=1 n=c7 v=0
212118 On ch=1 n=c6 v=58
212126 On ch=1 n=g#6 v=79
212126 On ch=1 n=d#6 v=73
212136 On ch=1 n=g#5 v=58
212154 On ch=1 n=d#6 v=0
212156 On ch=1 n=c6 v=0
212162 On ch=1 n=g#5 v=0
212172 On ch=1 n=g#6 v=0
212252 On ch=1 n=f7 v=73
212346 Par ch=1 c=64 v=0
212362 On ch=1 n=f7 v=0
212366 On ch=1 n=d#7 v=76
212372 On ch=1 n=g6 v=67
212372 On ch=1 n=d#4 v=67
212412 Par ch=1 c=64 v=127
212432 On ch=1 n=d#4 v=0
212440 On ch=1 n=g6 v=0
212450 On ch=1 n=d#7 v=0
212494 On ch=1 n=f7 v=62
212592 On ch=1 n=f7 v=0
212612 On ch=1 n=d#7 v=83
212618 On ch=1 n=g6 v=70
212618 On ch=1 n=d#5 v=58
212698 On ch=1 n=g6 v=0
212702 On ch=1 n=d#7 v=0
212726 On ch=1 n=d#5 v=0
212736 On ch=1 n=f7 v=61
212832 On ch=1 n=f7 v=0
212832 On ch=1 n=g5 v=58
212842 On ch=1 n=d#6 v=62
212854 On ch=1 n=c#7 v=83
212860 On ch=1 n=f6 v=73
212880 On ch=1 n=d#6 v=0
212892 On ch=1 n=g5 v=0
212922 On ch=1 n=f6 v=0
212930 On ch=1 n=c#7 v=0
212970 On ch=1 n=d#7 v=73
213056 On ch=1 n=d#7 v=0
213074 Par ch=1 c=64 v=0
213086 On ch=1 n=c7 v=67
213092 On ch=1 n=g#4 v=70
213096 On ch=1 n=d#6 v=74
213128 Par ch=1 c=64 v=127
213154 On ch=1 n=g#4 v=0
213212 On ch=1 n=c#7 v=48
213230 On ch=1 n=c7 v=0
213236 On ch=1 n=d#6 v=0
213296 On ch=1 n=c#7 v=0
213338 On ch=1 n=d#5 v=61
213342 On ch=1 n=a#6 v=67
213342 On ch=1 n=c#6 v=76
213426 On ch=1 n=a#6 v=0
213472 On ch=1 n=c7 v=62
213496 On ch=1 n=c#6 v=0
213672 On ch=1 n=g#6 v=78
213672 On ch=1 n=d#6 v=68
213678 On ch=1 n=d#5 v=0
213678 On ch=1 n=c6 v=67
213686 On ch=1 n=g#5 v=53
213690 On ch=1 n=c7 v=0
213700 On ch=1 n=d#6 v=0
213704 On ch=1 n=g#5 v=0
213712 On ch=1 n=c6 v=0
213724 On ch=1 n=g#6 v=0
214128 On ch=1 n=d#3 v=92
214142 On ch=1 n=d#8 v=85
214148 On ch=1 n=g7 v=73
214166 Par ch=1 c=64 v=127
214440 On ch=1 n=f8 v=62
214444 On ch=1 n=d#8 v=0
214484 On ch=1 n=g7 v=0
214568 On ch=1 n=d#4 v=70
214572 On ch=1 n=d#8 v=91
214574 On ch=1 n=g7 v=74
214580 On ch=1 n=f8 v=0
214606 On ch=1 n=d#3 v=0
214618 On ch=1 n=d#4 v=0
214714 On ch=1 n=f8 v=62
214720 On ch=1 n=d#8 v=0
214746 On ch=1 n=g7 v=0
214844 On ch=1 n=g4 v=58
214850 On ch=1 n=f7 v=67
214852 On ch=1 n=c#5 v=60
214858 On ch=1 n=c#8 v=83
214860 On ch=1 n=d#5 v=60
214866 On ch=1 n=f8 v=0
214898 On ch=1 n=g4 v=0
214906 On ch=1 n=c#5 v=0
214914 On ch=1 n=d#5 v=0
214952 On ch=1 n=f7 v=0
214970 On ch=1 n=c#8 v=0
214984 On ch=1 n=d#8 v=55
215056 On ch=1 n=d#8 v=0
215096 On ch=1 n=c8 v=65
215096 On ch=1 n=a#4 v=59
215100 On ch=1 n=c#5 v=59
215108 On ch=1 n=d#7 v=78
215108 On ch=1 n=g5 v=62
215134 On ch=1 n=a#4 v=0
215144 On ch=1 n=c#5 v=0
215156 On ch=1 n=g5 v=0
215162 On ch=1 n=d#7 v=0
215214 On ch=1 n=c#8 v=60
215230 On ch=1 n=c8 v=0
215254 On ch=1 n=c#8 v=0
215364 On ch=1 n=d#5 v=59
215368 On ch=1 n=a#7 v=89
215368 On ch=1 n=g5 v=58
215376 On ch=1 n=c#7 v=83
215376 On ch=1 n=c#6 v=61
215422 On ch=1 n=d#5 v=0
215444 On ch=1 n=g5 v=0
215482 On ch=1 n=c8 v=64
215490 On ch=1 n=c#6 v=0
215492 On ch=1 n=a#7 v=0
215498 On ch=1 n=c#7 v=0
215560 On ch=1 n=c8 v=0
215594 On ch=1 n=g5 v=35
215596 On ch=1 n=c7 v=67
215600 On ch=1 n=g#7 v=83
215606 On ch=1 n=d#6 v=55
215614 On ch=1 n=c#6 v=49
215670 On ch=1 n=c#6 v=0
215672 On ch=1 n=g5 v=0
215692 On ch=1 n=d#6 v=0
215694 On ch=1 n=g#7 v=0
215706 On ch=1 n=c7 v=0
215714 On ch=1 n=a#7 v=76
215808 On ch=1 n=a#7 v=0
215832 On ch=1 n=c#6 v=67
215836 On ch=1 n=g7 v=67
215836 On ch=1 n=g6 v=58
215844 On ch=1 n=a#6 v=78
215892 On ch=1 n=g6 v=0
215892 On ch=1 n=c#6 v=0
215920 On ch=1 n=g#7 v=65
215928 On ch=1 n=g7 v=0
215934 On ch=1 n=a#6 v=0
215988 On ch=1 n=g#7 v=0
216028 On ch=1 n=f7 v=62
216036 On ch=1 n=g#6 v=73
216120 On ch=1 n=g#6 v=0
216134 On ch=1 n=g7 v=62
216142 On ch=1 n=f7 v=0
216228 On ch=1 n=g7 v=0
216236 On ch=1 n=d#7 v=83
216244 On ch=1 n=g6 v=73
216330 On ch=1 n=g6 v=0
216332 On ch=1 n=f7 v=67
216342 On ch=1 n=d#7 v=0
216422 On ch=1 n=f7 v=0
216436 On ch=1 n=c#7 v=79
216436 On ch=1 n=f6 v=69
216510 On ch=1 n=f6 v=0
216528 On ch=1 n=c#7 v=0
216552 On ch=1 n=d#7 v=62
216640 On ch=1 n=d#7 v=0
216662 On ch=1 n=d#6 v=73
216668 On ch=1 n=c7 v=60
216732 On ch=1 n=d#6 v=0
216772 On ch=1 n=c#7 v=38
216776 On ch=1 n=c7 v=0
216848 On ch=1 n=c#7 v=0
216868 On ch=1 n=a#6 v=69
216872 On ch=1 n=c#6 v=71
216974 On ch=1 n=c#6 v=0
216978 On ch=1 n=a#6 v=0
216986 On ch=1 n=c7 v=59
217078 On ch=1 n=c7 v=0
217106 On ch=1 n=c6 v=53
217108 On ch=1 n=g#6 v=55
217184 On ch=1 n=g#6 v=0
217184 On ch=1 n=c6 v=0
217222 On ch=1 n=a#6 v=73
217308 On ch=1 n=a#6 v=0
217346 On ch=1 n=a#5 v=67
217348 On ch=1 n=g6 v=61
217350 On ch=1 n=c#5 v=86
217362 Par ch=1 c=64 v=0
217418 Par ch=1 c=64 v=127
217434 On ch=1 n=g6 v=0
217450 On ch=1 n=a#5 v=0
217462 On ch=1 n=g#6 v=43
217586 On ch=1 n=g#5 v=58
217594 On ch=1 n=f6 v=59
217606 On ch=1 n=g#6 v=0
217692 On ch=1 n=g#5 v=0
217706 On ch=1 n=g6 v=65
217714 On ch=1 n=f6 v=0
217818 On ch=1 n=g6 v=0
217836 On ch=1 n=d#6 v=53
217844 On ch=1 n=g5 v=41
217952 On ch=1 n=f6 v=59
217958 On ch=1 n=g5 v=0
217962 On ch=1 n=d#6 v=0
218088 On ch=1 n=c#6 v=74
218094 On ch=1 n=f6 v=0
218108 On ch=1 n=f5 v=30
218182 On ch=1 n=c#5 v=0
218200 On ch=1 n=f5 v=0
218220 On ch=1 n=c#6 v=0
218230 On ch=1 n=d#6 v=49
218394 On ch=1 n=d#6 v=0
218400 On ch=1 n=d#5 v=67
218400 On ch=1 n=d#4 v=62
218408 On ch=1 n=c6 v=61
218442 Par ch=1 c=64 v=0
218460 Par ch=1 c=64 v=127
218594 On ch=1 n=c#6 v=63
218624 On ch=1 n=c6 v=0
218642 On ch=1 n=d#5 v=0
218770 On ch=1 n=g#3 v=72
218782 On ch=1 n=a#5 v=61
218786 On ch=1 n=c#5 v=55
218812 On ch=1 n=c#6 v=0
218846 Par ch=1 c=64 v=0
218860 On ch=1 n=d#4 v=0
218938 Par ch=1 c=64 v=127
218966 On ch=1 n=c6 v=60
218996 On ch=1 n=a#5 v=0
219002 On ch=1 n=c#5 v=0
219082 On ch=1 n=a#5 v=48
219100 On ch=1 n=c6 v=0
219184 On ch=1 n=c6 v=60
219188 On ch=1 n=a#5 v=0
219188 On ch=1 n=e4 v=50
219262 On ch=1 n=a#5 v=73
219284 On ch=1 n=c6 v=0
219340 On ch=1 n=c6 v=63
219350 On ch=1 n=a#5 v=0
219410 On ch=1 n=a#5 v=76
219430 On ch=1 n=c6 v=0
219472 On ch=1 n=c6 v=65
219476 On ch=1 n=a#5 v=0
219494 Par ch=1 c=64 v=0
219520 On ch=1 n=e4 v=0
219524 On ch=1 n=f4 v=61
219534 On ch=1 n=a#5 v=74
219552 On ch=1 n=c6 v=0
219570 Par ch=1 c=64 v=127
219594 On ch=1 n=a#5 v=0
219594 On ch=1 n=c6 v=67
219638 On ch=1 n=a#5 v=67
219658 On ch=1 n=c6 v=0
219702 On ch=1 n=a#5 v=0
219708 On ch=1 n=c6 v=56
219762 On ch=1 n=a#5 v=60
219788 On ch=1 n=c6 v=0
219856 On ch=1 n=f#4 v=59
219866 On ch=1 n=a5 v=58
219876 On ch=1 n=a#5 v=0
219886 Par ch=1 c=64 v=0
219894 On ch=1 n=f4 v=0
220022 On ch=1 n=a#5 v=62
220068 On ch=1 n=a5 v=0
220202 On ch=1 n=g4 v=53
220206 On ch=1 n=c6 v=62
220220 On ch=1 n=a#5 v=0
220226 On ch=1 n=f#4 v=0
220344 On ch=1 n=a#5 v=62
220366 On ch=1 n=c6 v=0
220528 On ch=1 n=d#4 v=57
220530 On ch=1 n=c#6 v=62
220546 Par ch=1 c=64 v=127
220552 On ch=1 n=a#5 v=0
220560 On ch=1 n=g4 v=0
220672 On ch=1 n=g5 v=49
220700 On ch=1 n=c#6 v=0
220740 On ch=1 n=g5 v=0
220824 On ch=1 n=g#3 v=0
220862 On ch=1 n=d#4 v=0
220888 On ch=1 n=g#3 v=70
220894 On ch=1 n=g#4 v=42
220902 On ch=1 n=g#5 v=63
220906 On ch=1 n=c5 v=54
220912 Par ch=1 c=64 v=0
221058 Par ch=1 c=64 v=127
221084 On ch=1 n=d#5 v=52
221096 On ch=1 n=c5 v=0
221188 Par ch=1 c=64 v=0
221256 On ch=1 n=g#4 v=0
221276 On ch=1 n=d#4 v=39
221280 On ch=1 n=a#4 v=57
221282 Par ch=1 c=64 v=127
221290 On ch=1 n=d#5 v=0
221448 On ch=1 n=d#5 v=58
221476 On ch=1 n=a#4 v=0
221612 Par ch=1 c=64 v=0
221630 On ch=1 n=c5 v=55
221634 On ch=1 n=f#4 v=34
221642 On ch=1 n=d#5 v=0
221650 On ch=1 n=d#4 v=0
221688 Par ch=1 c=64 v=127
221796 On ch=1 n=d#5 v=54
221812 On ch=1 n=c5 v=0
221844 On ch=1 n=f#4 v=0
221966 On ch=1 n=d#5 v=0
221974 On ch=1 n=c#5 v=60
221976 On ch=1 n=e4 v=35
221988 Par ch=1 c=64 v=0
222042 Par ch=1 c=64 v=127
222144 On ch=1 n=e5 v=54
222156 On ch=1 n=c#5 v=0
222214 On ch=1 n=g#5 v=0
222310 On ch=1 n=e5 v=0
222320 On ch=1 n=g5 v=63
222320 On ch=1 n=d#5 v=64
222324 On ch=1 n=e4 v=0
222332 On ch=1 n=c4 v=36
222348 Par ch=1 c=64 v=0
222414 Par ch=1 c=64 v=127
222476 On ch=1 n=d#5 v=0
222480 On ch=1 n=f#5 v=1
222482 On ch=1 n=g#5 v=59
222506 On ch=1 n=g5 v=0
222654 On ch=1 n=c#5 v=55
222662 On ch=1 n=g5 v=69
222662 On ch=1 n=c#4 v=36
222666 On ch=1 n=f#5 v=0
222670 On ch=1 n=g#5 v=0
222674 On ch=1 n=c4 v=0
222692 Par ch=1 c=64 v=0
222710 On ch=1 n=g#3 v=0
222734 Par ch=1 c=64 v=127
222832 On ch=1 n=e5 v=30
222838 On ch=1 n=g#5 v=59
222846 On ch=1 n=c#5 v=0
222868 On ch=1 n=g5 v=0
222978 On ch=1 n=e5 v=0
223018 On ch=1 n=c#5 v=53
223026 On ch=1 n=a5 v=64
223030 On ch=1 n=f#3 v=52
223040 Par ch=1 c=64 v=0
223072 Par ch=1 c=64 v=127
223080 On ch=1 n=c#4 v=0
223194 On ch=1 n=d#5 v=38
223206 On ch=1 n=g#5 v=0
223220 On ch=1 n=c#5 v=0
223358 On ch=1 n=a5 v=0
223368 Par ch=1 c=64 v=0
223376 On ch=1 n=g#5 v=64
223376 On ch=1 n=g#3 v=52
223382 On ch=1 n=c#5 v=52
223394 On ch=1 n=d#5 v=0
223420 On ch=1 n=f#3 v=0
223424 Par ch=1 c=64 v=127
223548 On ch=1 n=e5 v=63
223568 On ch=1 n=c#5 v=0
223704 On ch=1 n=e5 v=0
223710 On ch=1 n=g#5 v=0
223720 On ch=1 n=f#5 v=69
223720 On ch=1 n=f#4 v=56
223728 On ch=1 n=a3 v=49
223750 Par ch=1 c=64 v=0
223774 On ch=1 n=g#3 v=0
223806 Par ch=1 c=64 v=127
223872 On ch=1 n=c#5 v=49
223894 On ch=1 n=f#4 v=0
224058 On ch=1 n=a3 v=0
224066 On ch=1 n=g4 v=48
224074 On ch=1 n=e5 v=62
224074 On ch=1 n=a#3 v=55
224078 On ch=1 n=c#5 v=0
224088 Par ch=1 c=64 v=0
224132 Par ch=1 c=64 v=127
224154 On ch=1 n=f#5 v=0
224254 On ch=1 n=g4 v=0
224286 On ch=1 n=c#5 v=24
224426 On ch=1 n=g4 v=49
224432 On ch=1 n=d3 v=65
224446 On ch=1 n=c#5 v=0
224484 On ch=1 n=a#3 v=0
224590 On ch=1 n=c#5 v=32
224590 On ch=1 n=d#3 v=76
224596 On ch=1 n=e5 v=0
224596 On ch=1 n=d#5 v=38
224604 On ch=1 n=d3 v=0
224646 On ch=1 n=g4 v=0
224730 On ch=1 n=f#5 v=64
224734 On ch=1 n=d#5 v=0
224752 On ch=1 n=c#5 v=0
224752 On ch=1 n=g4 v=54
224758 On ch=1 n=d3 v=57
224764 On ch=1 n=d#3 v=0
224776 Par ch=1 c=64 v=0
224782 On ch=1 n=e5 v=67
224810 On ch=1 n=f#5 v=0
224822 Par ch=1 c=64 v=127
224920 On ch=1 n=d3 v=0
224934 On ch=1 n=d#3 v=68
224936 On ch=1 n=c#5 v=49
224944 On ch=1 n=d#5 v=69
224958 On ch=1 n=g4 v=0
224966 On ch=1 n=e5 v=0
225136 On ch=1 n=g#5 v=73
225136 On ch=1 n=c5 v=53
225142 On ch=1 n=g#3 v=48
225150 On ch=1 n=d#5 v=0
225150 On ch=1 n=d#3 v=0
225152 On ch=1 n=g#2 v=82
225158 Par ch=1 c=64 v=0
225176 On ch=1 n=c#5 v=0
225200 Par ch=1 c=64 v=127
225316 On ch=1 n=c5 v=0
225318 On ch=1 n=d#5 v=45
225478 On ch=1 n=a#4 v=64
225482 On ch=1 n=d#4 v=60
225486 On ch=1 n=d#3 v=64
225494 On ch=1 n=g#2 v=0
225498 On ch=1 n=g#3 v=0
225510 On ch=1 n=d#5 v=0
225612 On ch=1 n=g#5 v=0
225638 On ch=1 n=d#3 v=0
225654 On ch=1 n=d#5 v=38
225680 On ch=1 n=d#4 v=0
225694 On ch=1 n=a#4 v=0
225836 On ch=1 n=g#5 v=72
225840 On ch=1 n=f#4 v=56
225846 On ch=1 n=c5 v=60
225850 On ch=1 n=f#3 v=47
225858 On ch=1 n=d#5 v=0
225864 Par ch=1 c=64 v=0
225906 Par ch=1 c=64 v=127
225998 On ch=1 n=f#4 v=0
226002 On ch=1 n=d#5 v=55
226026 On ch=1 n=c5 v=0
226082 On ch=1 n=f#3 v=0
226146 On ch=1 n=d#5 v=0
226180 Par ch=1 c=64 v=0
226194 On ch=1 n=g#4 v=64
226194 On ch=1 n=e4 v=62
226200 On ch=1 n=e3 v=67
226244 Par ch=1 c=64 v=127
226362 On ch=1 n=e5 v=52
226376 On ch=1 n=g#4 v=0
226384 On ch=1 n=e4 v=0
226386 On ch=1 n=g#5 v=0
226420 On ch=1 n=e3 v=0
226546 On ch=1 n=g5 v=68
226546 On ch=1 n=c3 v=55
226552 On ch=1 n=g#4 v=67
226558 On ch=1 n=e5 v=0
226558 On ch=1 n=c4 v=49
226566 Par ch=1 c=64 v=0
226620 Par ch=1 c=64 v=127
226716 On ch=1 n=g#5 v=73
226724 On ch=1 n=g5 v=0
226734 On ch=1 n=f#5 v=63
226740 On ch=1 n=c4 v=0
226764 On ch=1 n=g#4 v=0
226852 On ch=1 n=f#5 v=0
226860 On ch=1 n=c3 v=0
226878 On ch=1 n=g#5 v=0
226900 On ch=1 n=g#4 v=61
226902 On ch=1 n=g5 v=62
226912 On ch=1 n=c#4 v=60
226912 On ch=1 n=c#3 v=51
226936 Par ch=1 c=64 v=0
226990 Par ch=1 c=64 v=127
227064 On ch=1 n=g#5 v=67
227072 On ch=1 n=g5 v=0
227084 On ch=1 n=e5 v=49
227092 On ch=1 n=g#4 v=0
227094 On ch=1 n=c#3 v=0
227176 On ch=1 n=c#4 v=0
227188 On ch=1 n=g#5 v=0
227204 On ch=1 n=e5 v=0
227286 On ch=1 n=b5 v=54
227292 On ch=1 n=c#5 v=60
227294 On ch=1 n=f#3 v=49
227296 On ch=1 n=f#2 v=58
227328 Par ch=1 c=64 v=0
227380 Par ch=1 c=64 v=127
227464 On ch=1 n=a5 v=58
227464 On ch=1 n=d#5 v=54
227476 On ch=1 n=b5 v=0
227494 On ch=1 n=c#5 v=0
227558 On ch=1 n=a5 v=0
227578 On ch=1 n=d#5 v=0
227636 On ch=1 n=g#3 v=49
227640 On ch=1 n=a5 v=60
227646 On ch=1 n=c#5 v=66
227648 On ch=1 n=g#2 v=58
227656 Par ch=1 c=64 v=0
227664 On ch=1 n=f#3 v=0
227666 On ch=1 n=f#2 v=0
227702 Par ch=1 c=64 v=127
227808 On ch=1 n=a5 v=0
227812 On ch=1 n=g#5 v=41
227820 On ch=1 n=e5 v=57
227846 On ch=1 n=c#5 v=0
227926 On ch=1 n=g#5 v=0
227932 On ch=1 n=e5 v=0
227988 On ch=1 n=g#5 v=53
227998 On ch=1 n=a3 v=47
228004 On ch=1 n=g#4 v=35
228016 On ch=1 n=a2 v=58
228022 Par ch=1 c=64 v=0
228028 On ch=1 n=g#3 v=0
228040 On ch=1 n=g#2 v=0
228056 Par ch=1 c=64 v=127
228120 On ch=1 n=g#4 v=0
228152 On ch=1 n=f#5 v=58
228152 On ch=1 n=c#5 v=49
228164 On ch=1 n=g#5 v=0
228268 On ch=1 n=f#5 v=0
228280 On ch=1 n=c#5 v=0
228320 On ch=1 n=a#3 v=49
228326 On ch=1 n=g4 v=52
228328 On ch=1 n=e5 v=58
228336 On ch=1 n=a#2 v=58
228346 Par ch=1 c=64 v=0
228358 On ch=1 n=a3 v=0
228376 On ch=1 n=a2 v=0
228392 Par ch=1 c=64 v=127
228472 On ch=1 n=d#5 v=62
228482 On ch=1 n=c#5 v=49
228498 On ch=1 n=g4 v=0
228502 On ch=1 n=e5 v=0
228592 On ch=1 n=d#5 v=0
228606 On ch=1 n=c#5 v=0
228656 On ch=1 n=d#2 v=49
228658 On ch=1 n=d#3 v=56
228666 On ch=1 n=d#5 v=73
228672 On ch=1 n=b5 v=59
228680 Par ch=1 c=64 v=0
228686 On ch=1 n=a#3 v=0
228702 On ch=1 n=a#2 v=0
228710 Par ch=1 c=64 v=127
228816 On ch=1 n=a#5 v=61
228816 On ch=1 n=g#5 v=53
228838 On ch=1 n=d#5 v=0
228860 On ch=1 n=b5 v=0
228894 On ch=1 n=d#2 v=0
228896 On ch=1 n=d#3 v=0
228930 On ch=1 n=a#5 v=0
228934 On ch=1 n=g#5 v=0
228996 On ch=1 n=g5 v=53
229004 On ch=1 n=e6 v=57
229008 On ch=1 n=d#4 v=61
229008 On ch=1 n=d#3 v=49
229020 Par ch=1 c=64 v=0
229052 Par ch=1 c=64 v=127
229198 On ch=1 n=d#6 v=51
229212 On ch=1 n=a#5 v=44
229224 On ch=1 n=e6 v=0
229252 On ch=1 n=g5 v=0
229324 On ch=1 n=d#6 v=0
229336 On ch=1 n=a#5 v=0
229354 On ch=1 n=d#3 v=0
229440 On ch=1 n=d#4 v=0
229450 On ch=1 n=g#6 v=69
229456 On ch=1 n=d#6 v=58
229456 On ch=1 n=g#2 v=58
229458 On ch=1 n=c#6 v=69
229458 On ch=1 n=g#3 v=55
229474 Par ch=1 c=64 v=0
229516 Par ch=1 c=64 v=127
229600 On ch=1 n=g#6 v=0
229602 On ch=1 n=c#6 v=0
229650 On ch=1 n=c6 v=67
229696 On ch=1 n=d#6 v=0
229756 On ch=1 n=g#2 v=0
229762 On ch=1 n=c6 v=0
229776 On ch=1 n=g#3 v=0
229828 On ch=1 n=d#4 v=63
229832 On ch=1 n=g#6 v=73
229842 On ch=1 n=c6 v=73
229842 On ch=1 n=d#3 v=73
229850 On ch=1 n=d#6 v=57
229960 On ch=1 n=c6 v=0
229962 On ch=1 n=g#6 v=0
229976 On ch=1 n=d#6 v=0
230022 On ch=1 n=a#5 v=73
230102 On ch=1 n=d#3 v=0
230136 On ch=1 n=d#4 v=0
230168 On ch=1 n=c6 v=65
230176 On ch=1 n=g#6 v=71
230176 On ch=1 n=d#6 v=67
230186 On ch=1 n=a#5 v=0
230186 On ch=1 n=d#4 v=70
230186 On ch=1 n=g#3 v=68
230202 Par ch=1 c=64 v=0
230254 Par ch=1 c=64 v=127
230338 On ch=1 n=d#6 v=0
230350 On ch=1 n=g#5 v=58
230362 On ch=1 n=c6 v=0
230442 On ch=1 n=g#6 v=0
230510 On ch=1 n=g#6 v=70
230516 On ch=1 n=a#5 v=67
230520 On ch=1 n=d#6 v=67
230536 On ch=1 n=g#5 v=0
230634 On ch=1 n=d#6 v=0
230692 On ch=1 n=g#5 v=61
230702 On ch=1 n=a#5 v=0
230824 On ch=1 n=d#4 v=0
230828 On ch=1 n=g#5 v=0
230852 On ch=1 n=g#6 v=0
230854 On ch=1 n=a#5 v=60
230864 On ch=1 n=g6 v=67
230864 On ch=1 n=d#6 v=67
230868 On ch=1 n=a#4 v=79
230874 Par ch=1 c=64 v=0
230882 On ch=1 n=d#4 v=62
230910 Par ch=1 c=64 v=127
230974 On ch=1 n=d#6 v=0
231010 On ch=1 n=a#5 v=0
231018 On ch=1 n=f5 v=55
231124 On ch=1 n=a#4 v=0
231178 On ch=1 n=f5 v=0
231194 On ch=1 n=d#6 v=69
231200 On ch=1 n=a#5 v=64
231202 On ch=1 n=g6 v=0
231204 On ch=1 n=g5 v=64
231212 On ch=1 n=a#4 v=78
231232 Par ch=1 c=64 v=0
231274 Par ch=1 c=64 v=127
231354 On ch=1 n=a#5 v=0
231364 On ch=1 n=g5 v=0
231380 On ch=1 n=d#5 v=73
231494 On ch=1 n=d#6 v=0
231524 On ch=1 n=d#5 v=0
231558 Par ch=1 c=64 v=0
231566 On ch=1 n=f#6 v=73
231574 On ch=1 n=a#5 v=57
231576 On ch=1 n=d#6 v=57
231612 Par ch=1 c=64 v=127
231774 On ch=1 n=d#6 v=0
231776 On ch=1 n=a5 v=36
231794 On ch=1 n=a#5 v=0
231870 On ch=1 n=a#4 v=0
231886 On ch=1 n=f#6 v=0
231944 On ch=1 n=f#6 v=80
231948 On ch=1 n=d#6 v=56
231948 On ch=1 n=c6 v=48
231952 On ch=1 n=a4 v=68
231958 On ch=1 n=d#4 v=0
231964 On ch=1 n=a5 v=0
232026 On ch=1 n=g#3 v=0
232094 On ch=1 n=d#6 v=0
232112 On ch=1 n=c6 v=0
232120 On ch=1 n=f#5 v=61
232136 On ch=1 n=a#4 v=77
232182 On ch=1 n=a4 v=0
232266 On ch=1 n=f#6 v=0
232282 On ch=1 n=a#5 v=54
232282 On ch=1 n=a4 v=67
232286 On ch=1 n=d#6 v=40
232288 On ch=1 n=f#6 v=80
232292 On ch=1 n=f#5 v=0
232302 On ch=1 n=a#4 v=0
232416 On ch=1 n=d#6 v=0
232426 On ch=1 n=a#5 v=0
232434 On ch=1 n=a#4 v=67
232454 On ch=1 n=a4 v=0
232462 On ch=1 n=f#5 v=50
232566 On ch=1 n=f#6 v=0
232578 On ch=1 n=f#5 v=0
232588 On ch=1 n=d#5 v=73
232600 On ch=1 n=f#6 v=80
232602 On ch=1 n=d#6 v=62
232608 On ch=1 n=a#5 v=49
232614 On ch=1 n=a#4 v=0
232616 Par ch=1 c=64 v=0
232692 Par ch=1 c=64 v=127
232742 On ch=1 n=a#5 v=0
232750 On ch=1 n=f#5 v=56
232848 On ch=1 n=d#6 v=0
232926 On ch=1 n=d6 v=64
232926 On ch=1 n=a#5 v=67
232954 On ch=1 n=f#5 v=0
233058 On ch=1 n=a#5 v=0
233066 On ch=1 n=f#5 v=55
233188 On ch=1 n=d6 v=0
233244 On ch=1 n=a#5 v=65
233248 On ch=1 n=c#6 v=67
233270 On ch=1 n=f#5 v=0
233402 On ch=1 n=a#5 v=0
233406 On ch=1 n=f#5 v=67
233440 On ch=1 n=f#6 v=0
233518 On ch=1 n=c#6 v=0
233556 On ch=1 n=f#5 v=0
233586 On ch=1 n=d#5 v=0
233600 On ch=1 n=g#2 v=75
233606 On ch=1 n=f#6 v=77
233608 On ch=1 n=a5 v=79
233614 On ch=1 n=g#3 v=67
233616 On ch=1 n=c6 v=73
233626 Par ch=1 c=64 v=0
233656 Par ch=1 c=64 v=127
233786 On ch=1 n=g#5 v=81
233794 On ch=1 n=a5 v=0
233814 On ch=1 n=c6 v=0
233886 On ch=1 n=f#6 v=0
233894 On ch=1 n=g#5 v=0
233950 On ch=1 n=d#4 v=67
233952 On ch=1 n=c6 v=58
233958 On ch=1 n=f#6 v=73
233958 On ch=1 n=g#5 v=78
233978 On ch=1 n=d#3 v=53
233980 On ch=1 n=g#2 v=0
233992 On ch=1 n=g#3 v=0
234102 On ch=1 n=g#5 v=0
234108 On ch=1 n=g5 v=70
234192 On ch=1 n=c6 v=0
234194 On ch=1 n=f#6 v=0
234266 On ch=1 n=g5 v=0
234274 On ch=1 n=f#6 v=73
234274 On ch=1 n=g#5 v=76
234280 On ch=1 n=g#4 v=73
234286 On ch=1 n=c6 v=68
234290 On ch=1 n=g#3 v=63
234306 Par ch=1 c=64 v=0
234310 On ch=1 n=d#4 v=0
234334 On ch=1 n=d#3 v=0
234338 Par ch=1 c=64 v=127
234418 On ch=1 n=g#5 v=0
234450 On ch=1 n=c6 v=0
234456 On ch=1 n=d#5 v=66
234512 On ch=1 n=f#6 v=0
234580 On ch=1 n=d#5 v=0
234594 On ch=1 n=f#6 v=60
234602 On ch=1 n=g#5 v=73
234610 On ch=1 n=c6 v=64
234752 On ch=1 n=c6 v=0
234754 On ch=1 n=g#4 v=0
234772 On ch=1 n=g#5 v=0
234776 On ch=1 n=g5 v=53
234832 On ch=1 n=f#6 v=0
234948 On ch=1 n=g#5 v=54
234954 On ch=1 n=f6 v=69
234958 On ch=1 n=g#4 v=86
234964 On ch=1 n=c6 v=62
234968 On ch=1 n=g5 v=0
235128 On ch=1 n=g#5 v=0
235130 On ch=1 n=e5 v=39
235140 On ch=1 n=c6 v=0
235192 On ch=1 n=f6 v=0
235282 On ch=1 n=g#4 v=0
235308 On ch=1 n=e5 v=0
235328 On ch=1 n=c6 v=73
235332 On ch=1 n=g#4 v=57
235336 On ch=1 n=f5 v=73
235364 Par ch=1 c=64 v=0
235418 Par ch=1 c=64 v=127
235512 On ch=1 n=c5 v=63
235524 On ch=1 n=f5 v=0
235550 On ch=1 n=g#3 v=0
235566 On ch=1 n=c6 v=0
235660 On ch=1 n=g#4 v=0
235686 On ch=1 n=c5 v=0
235742 On ch=1 n=b5 v=42
235744 On ch=1 n=g#4 v=64
235744 On ch=1 n=g#3 v=36
235746 On ch=1 n=e6 v=36
235746 On ch=1 n=e5 v=49
235886 On ch=1 n=e5 v=0
235918 On ch=1 n=b5 v=0
235950 On ch=1 n=d#5 v=51
236114 On ch=1 n=e6 v=0
236122 On ch=1 n=d#5 v=0
236124 On ch=1 n=g#4 v=0
236144 On ch=1 n=g4 v=55
236154 On ch=1 n=f#5 v=51
236160 On ch=1 n=e6 v=30
236166 On ch=1 n=b5 v=50
236306 On ch=1 n=g#4 v=51
236316 On ch=1 n=b4 v=46
236328 On ch=1 n=f#5 v=0
236328 On ch=1 n=g4 v=0
236342 On ch=1 n=b5 v=0
236400 On ch=1 n=e6 v=0
236480 On ch=1 n=e5 v=44
236488 On ch=1 n=e6 v=65
236488 On ch=1 n=b5 v=50
236496 On ch=1 n=g4 v=52
236520 On ch=1 n=g#4 v=0
236562 On ch=1 n=b4 v=0
236670 On ch=1 n=b4 v=56
236670 On ch=1 n=g#4 v=59
236688 On ch=1 n=b5 v=0
236692 On ch=1 n=g4 v=0
236696 On ch=1 n=e5 v=0
236764 On ch=1 n=g#3 v=0
236794 On ch=1 n=e6 v=0
236806 On ch=1 n=g#4 v=0
236910 On ch=1 n=b5 v=51
236912 On ch=1 n=e6 v=57
236914 On ch=1 n=g#5 v=79
236966 Par ch=1 c=64 v=0
236972 On ch=1 n=b4 v=0
236998 Par ch=1 c=64 v=127
237130 On ch=1 n=b5 v=0
237276 On ch=1 n=e5 v=67
237532 On ch=1 n=b5 v=55
237552 On ch=1 n=e5 v=0
237754 On ch=1 n=b5 v=0
237786 On ch=1 n=d#5 v=55
238078 On ch=1 n=b5 v=70
238088 Par ch=1 c=64 v=0
238106 Par ch=1 c=64 v=127
238140 On ch=1 n=d#5 v=0
238320 On ch=1 n=g#5 v=0
238392 On ch=1 n=d5 v=43
238530 On ch=1 n=d5 v=0
238762 On ch=1 n=e6 v=0
238816 On ch=1 n=a2 v=52
238818 On ch=1 n=c#5 v=49
238850 Par ch=1 c=64 v=0
238950 Par ch=1 c=64 v=127
239068 On ch=1 n=a2 v=0
239156 On ch=1 n=c#5 v=0
239168 On ch=1 n=b5 v=0
239178 On ch=1 n=a5 v=52
239182 On ch=1 n=g5 v=45
239188 On ch=1 n=e4 v=48
239360 On ch=1 n=g5 v=0
239400 On ch=1 n=e5 v=47
239404 On ch=1 n=e6 v=54
239404 On ch=1 n=a4 v=49
239414 On ch=1 n=a5 v=0
239418 On ch=1 n=e4 v=0
239590 On ch=1 n=b4 v=39
239592 On ch=1 n=a5 v=51
239596 On ch=1 n=g5 v=51
239616 On ch=1 n=e6 v=0
239630 On ch=1 n=a4 v=0
239632 On ch=1 n=e5 v=0
239752 On ch=1 n=c#5 v=51
239756 Par ch=1 c=64 v=0
239770 On ch=1 n=e6 v=58
239770 On ch=1 n=e5 v=53
239784 Par ch=1 c=64 v=127
239796 On ch=1 n=a5 v=0
239804 On ch=1 n=b4 v=0
239810 On ch=1 n=g5 v=0
239942 On ch=1 n=g5 v=49
239946 On ch=1 n=a5 v=49
239966 On ch=1 n=e5 v=0
239982 On ch=1 n=e6 v=0
240100 Par ch=1 c=64 v=0
240118 On ch=1 n=e6 v=57
240118 On ch=1 n=e5 v=49
240124 On ch=1 n=d3 v=52
240140 Par ch=1 c=64 v=127
240154 On ch=1 n=g5 v=0
240160 On ch=1 n=a5 v=0
240212 On ch=1 n=c#5 v=0
240280 On ch=1 n=e6 v=0
240302 On ch=1 n=a5 v=41
240310 On ch=1 n=f#5 v=30
240316 On ch=1 n=a4 v=24
240330 On ch=1 n=e5 v=0
240362 On ch=1 n=d3 v=0
240464 On ch=1 n=f#4 v=49
240466 On ch=1 n=a4 v=0
240466 On ch=1 n=d6 v=56
240476 On ch=1 n=d5 v=52
240476 Par ch=1 c=64 v=0
240488 On ch=1 n=f#5 v=0
240488 On ch=1 n=a5 v=0
240512 Par ch=1 c=64 v=127
240626 On ch=1 n=f#4 v=0
240628 On ch=1 n=a4 v=36
240636 On ch=1 n=a5 v=49
240638 On ch=1 n=f#5 v=52
240650 On ch=1 n=d5 v=0
240662 On ch=1 n=d6 v=0
240780 Par ch=1 c=64 v=0
240788 On ch=1 n=c#6 v=64
240788 On ch=1 n=c#5 v=62
240800 On ch=1 n=f#5 v=0
240800 On ch=1 n=a5 v=0
240800 On ch=1 n=b3 v=49
240836 Par ch=1 c=64 v=127
240868 On ch=1 n=a4 v=0
240930 On ch=1 n=a4 v=56
240934 On ch=1 n=b3 v=0
240952 On ch=1 n=a5 v=43
240954 On ch=1 n=f#5 v=34
240974 On ch=1 n=c#5 v=0
240974 On ch=1 n=c#6 v=0
241076 On ch=1 n=a5 v=0
241118 On ch=1 n=f#5 v=0
241128 On ch=1 n=c#6 v=55
241132 On ch=1 n=a4 v=0
241136 Par ch=1 c=64 v=0
241144 On ch=1 n=c#5 v=62
241152 On ch=1 n=e3 v=49
241184 Par ch=1 c=64 v=127
241296 On ch=1 n=e3 v=0
241318 On ch=1 n=c#6 v=0
241324 On ch=1 n=g#5 v=44
241326 On ch=1 n=e5 v=47
241336 On ch=1 n=c#5 v=0
241336 On ch=1 n=e4 v=49
241478 On ch=1 n=b5 v=54
241482 On ch=1 n=g#4 v=62
241484 On ch=1 n=e5 v=0
241484 On ch=1 n=b4 v=58
241486 On ch=1 n=e4 v=0
241492 On ch=1 n=d4 v=44
241502 Par ch=1 c=64 v=0
241520 Par ch=1 c=64 v=127
241622 On ch=1 n=d4 v=0
241630 On ch=1 n=g#4 v=0
241630 On ch=1 n=e5 v=52
241640 On ch=1 n=e4 v=43
241646 On ch=1 n=b4 v=0
241664 On ch=1 n=b5 v=0
241788 On ch=1 n=a5 v=58
241796 On ch=1 n=a4 v=58
241796 On ch=1 n=c#4 v=52
241802 On ch=1 n=e4 v=0
241802 On ch=1 n=e5 v=0
241812 Par ch=1 c=64 v=0
241846 On ch=1 n=g#5 v=0
241880 Par ch=1 c=64 v=127
241950 On ch=1 n=a4 v=0
241952 On ch=1 n=e4 v=49
241960 On ch=1 n=e5 v=49
241966 On ch=1 n=c#4 v=0
242030 On ch=1 n=a5 v=0
242128 On ch=1 n=c#6 v=56
242134 On ch=1 n=c#5 v=54
242134 Par ch=1 c=64 v=0
242144 On ch=1 n=a3 v=54
242152 On ch=1 n=e4 v=0
242160 On ch=1 n=e5 v=0
242210 Par ch=1 c=64 v=127
242292 On ch=1 n=e5 v=51
242302 On ch=1 n=a5 v=36
242302 On ch=1 n=e4 v=44
242324 On ch=1 n=c#5 v=0
242432 On ch=1 n=e5 v=0
242438 On ch=1 n=a5 v=0
242466 On ch=1 n=c#5 v=36
242478 On ch=1 n=e4 v=0
242478 On ch=1 n=a4 v=34
242602 On ch=1 n=c#5 v=0
242626 On ch=1 n=f#4 v=43
242638 On ch=1 n=d5 v=49
242640 On ch=1 n=a5 v=49
242762 On ch=1 n=f#4 v=0
242796 On ch=1 n=d5 v=0
242840 On ch=1 n=e4 v=49
242848 On ch=1 n=c#5 v=54
242856 Par ch=1 c=64 v=0
242898 Par ch=1 c=64 v=127
242910 On ch=1 n=a5 v=0
242974 On ch=1 n=a3 v=0
243040 On ch=1 n=a5 v=68
243048 On ch=1 n=e5 v=25
243052 On ch=1 n=c#5 v=0
243078 On ch=1 n=e4 v=0
243086 On ch=1 n=a4 v=0
243144 On ch=1 n=c#6 v=0
243146 On ch=1 n=c#5 v=64
243182 On ch=1 n=e5 v=0
243184 On ch=1 n=a5 v=0
243280 On ch=1 n=a2 v=73
243290 On ch=1 n=e6 v=60
243384 On ch=1 n=c#5 v=0
243512 On ch=1 n=g5 v=41
243516 On ch=1 n=a5 v=49
243520 On ch=1 n=a2 v=0
243538 On ch=1 n=a3 v=51
243692 On ch=1 n=e6 v=0
243702 On ch=1 n=e4 v=49
243706 On ch=1 n=a5 v=0
243728 On ch=1 n=g5 v=0
243730 On ch=1 n=a3 v=0
243732 On ch=1 n=e5 v=52
243740 On ch=1 n=e6 v=62
243896 On ch=1 n=a5 v=56
243902 On ch=1 n=g5 v=54
243904 On ch=1 n=e4 v=0
243908 On ch=1 n=b4 v=52
243916 On ch=1 n=e6 v=0
243936 On ch=1 n=e5 v=0
244048 On ch=1 n=c#5 v=57
244092 On ch=1 n=e6 v=57
244096 On ch=1 n=e5 v=49
244100 On ch=1 n=g5 v=0
244122 On ch=1 n=a5 v=0
244132 On ch=1 n=b4 v=0
244256 On ch=1 n=a5 v=51
244266 On ch=1 n=g5 v=45
244286 On ch=1 n=c#5 v=0
244314 On ch=1 n=e5 v=0
244326 On ch=1 n=e6 v=0
244414 Par ch=1 c=64 v=0
244430 On ch=1 n=e6 v=60
244434 On ch=1 n=e5 v=54
244436 On ch=1 n=g5 v=0
244436 On ch=1 n=d3 v=54
244458 On ch=1 n=a5 v=0
244470 Par ch=1 c=64 v=127
244602 On ch=1 n=a5 v=52
244602 On ch=1 n=f#5 v=49
244612 On ch=1 n=a4 v=53
244634 On ch=1 n=e5 v=0
244636 On ch=1 n=e6 v=0
244640 On ch=1 n=d3 v=0
244746 On ch=1 n=d6 v=58
244756 On ch=1 n=a4 v=0
244756 On ch=1 n=f#4 v=52
244760 On ch=1 n=d5 v=60
244772 On ch=1 n=a5 v=0
244774 On ch=1 n=f#5 v=0
244900 On ch=1 n=f#4 v=0
244900 On ch=1 n=a4 v=52
244902 On ch=1 n=a5 v=49
244910 On ch=1 n=f#5 v=52
244920 On ch=1 n=d5 v=0
244932 On ch=1 n=d6 v=0
245040 On ch=1 n=a4 v=0
245046 On ch=1 n=f#5 v=0
245046 On ch=1 n=a5 v=0
245054 On ch=1 n=c#5 v=60
245054 On ch=1 n=f#3 v=58
245062 On ch=1 n=c#6 v=66
245072 Par ch=1 c=64 v=0
245126 Par ch=1 c=64 v=127
245194 On ch=1 n=c#4 v=47
245206 On ch=1 n=f#3 v=0
245208 On ch=1 n=a5 v=43
245208 On ch=1 n=f#5 v=24
245246 On ch=1 n=c#5 v=0
245254 On ch=1 n=c#6 v=0
245328 On ch=1 n=a5 v=0
245336 On ch=1 n=f#5 v=0
245350 On ch=1 n=c#6 v=61
245350 On ch=1 n=f3 v=52
245356 On ch=1 n=c#4 v=0
245356 Par ch=1 c=64 v=0
245366 On ch=1 n=c#5 v=62
245402 Par ch=1 c=64 v=127
245502 On ch=1 n=g#5 v=41
245522 On ch=1 n=f3 v=0
245522 On ch=1 n=c#4 v=52
245558 On ch=1 n=c#6 v=0
245580 On ch=1 n=c#5 v=0
245646 On ch=1 n=b5 v=52
245650 On ch=1 n=b4 v=54
245656 On ch=1 n=g#5 v=0
245660 On ch=1 n=g#4 v=41
245666 On ch=1 n=c#4 v=0
245792 On ch=1 n=g#5 v=48
245800 On ch=1 n=c#5 v=49
245808 On ch=1 n=g#4 v=0
245814 On ch=1 n=b5 v=0
245814 On ch=1 n=c#4 v=41
245846 On ch=1 n=b4 v=0
245924 On ch=1 n=c#4 v=0
245952 On ch=1 n=a5 v=55
245956 On ch=1 n=f#3 v=57
245960 On ch=1 n=g#5 v=0
245964 On ch=1 n=a4 v=58
245972 On ch=1 n=c#5 v=0
245974 Par ch=1 c=64 v=0
246018 Par ch=1 c=64 v=127
246090 On ch=1 n=a4 v=0
246096 On ch=1 n=a5 v=0
246096 On ch=1 n=c#5 v=26
246102 On ch=1 n=f#5 v=48
246102 On ch=1 n=c#4 v=51
246124 On ch=1 n=f#3 v=0
246194 On ch=1 n=g#4 v=64
246252 On ch=1 n=c#4 v=0
246262 On ch=1 n=c#5 v=0
246264 On ch=1 n=f#5 v=0
246282 On ch=1 n=c#6 v=64
246306 On ch=1 n=c#3 v=58
246336 Par ch=1 c=64 v=0
246414 Par ch=1 c=64 v=127
246432 On ch=1 n=g#4 v=0
246490 On ch=1 n=g#5 v=49
246494 On ch=1 n=f5 v=52
246500 On ch=1 n=g#3 v=57
246508 On ch=1 n=c#3 v=0
246652 On ch=1 n=g#5 v=0
246670 On ch=1 n=c#5 v=64
246672 On ch=1 n=g#4 v=47
246680 On ch=1 n=g#3 v=0
246680 On ch=1 n=f5 v=0
246842 On ch=1 n=c#4 v=54
246852 On ch=1 n=g#5 v=44
246860 On ch=1 n=f5 v=47
246874 On ch=1 n=g#4 v=0
246892 On ch=1 n=c#5 v=0
246946 On ch=1 n=c#6 v=0
246960 On ch=1 n=c#4 v=18
247044 On ch=1 n=c#4 v=0
247052 On ch=1 n=c#4 v=0
247062 On ch=1 n=c#5 v=62
247068 On ch=1 n=f5 v=0
247074 On ch=1 n=g#5 v=0
247254 On ch=1 n=g#5 v=47
247264 On ch=1 n=f5 v=49
247412 On ch=1 n=f5 v=0
247476 On ch=1 n=g#5 v=0
247476 On ch=1 n=c#6 v=55
247480 On ch=1 n=c#5 v=58
247482 On ch=1 n=c#5 v=0
247482 Par ch=1 c=64 v=0
247496 On ch=1 n=e3 v=49
247544 Par ch=1 c=64 v=127
247682 On ch=1 n=e5 v=52
247688 On ch=1 n=c#6 v=0
247690 On ch=1 n=e4 v=30
247698 On ch=1 n=c#5 v=0
247698 On ch=1 n=g#5 v=35
247734 On ch=1 n=e3 v=0
247842 Par ch=1 c=64 v=0
247850 On ch=1 n=d4 v=47
247860 On ch=1 n=e4 v=0
247860 On ch=1 n=b5 v=54
247860 On ch=1 n=b4 v=45
247868 On ch=1 n=g#4 v=60
247880 On ch=1 n=e5 v=0
247890 Par ch=1 c=64 v=127
247904 On ch=1 n=g#5 v=0
247966 On ch=1 n=g#4 v=0
247992 On ch=1 n=d4 v=0
248002 On ch=1 n=g#5 v=1
248010 On ch=1 n=b4 v=0
248014 On ch=1 n=e5 v=49
248018 On ch=1 n=e4 v=45
248048 On ch=1 n=b5 v=0
248146 On ch=1 n=e4 v=0
248154 On ch=1 n=a4 v=58
248158 On ch=1 n=c#4 v=49
248162 On ch=1 n=a5 v=55
248166 On ch=1 n=e5 v=0
248174 Par ch=1 c=64 v=0
248240 Par ch=1 c=64 v=127
248290 On ch=1 n=a4 v=0
248300 On ch=1 n=g#5 v=0
248300 On ch=1 n=e4 v=54
248308 On ch=1 n=c#4 v=0
248308 On ch=1 n=e5 v=49
248386 On ch=1 n=a5 v=0
248456 On ch=1 n=c#6 v=57
248462 On ch=1 n=c#5 v=61
248462 Par ch=1 c=64 v=0
248472 On ch=1 n=e4 v=0
248472 On ch=1 n=a3 v=49
248484 On ch=1 n=e5 v=0
248538 Par ch=1 c=64 v=127
248614 On ch=1 n=e4 v=34
248618 On ch=1 n=e5 v=39
248626 On ch=1 n=c#5 v=0
248732 On ch=1 n=e4 v=0
248742 On ch=1 n=e5 v=0
248746 On ch=1 n=c#5 v=58
248762 On ch=1 n=a4 v=49
248844 On ch=1 n=c#5 v=0
248878 On ch=1 n=f#4 v=51
248896 On ch=1 n=d5 v=55
248904 On ch=1 n=a5 v=49
248982 On ch=1 n=a3 v=0
249008 On ch=1 n=a4 v=0
249038 On ch=1 n=f#4 v=0
249048 On ch=1 n=c#5 v=62
249048 On ch=1 n=e4 v=54
249052 On ch=1 n=d5 v=0
249058 On ch=1 n=a5 v=0
249086 Par ch=1 c=64 v=0
249152 Par ch=1 c=64 v=127
249210 On ch=1 n=e5 v=41
249224 On ch=1 n=a3 v=41
249230 On ch=1 n=c#5 v=0
249304 On ch=1 n=e4 v=0
249334 Par ch=1 c=64 v=0
249362 On ch=1 n=c#5 v=57
249380 Par ch=1 c=64 v=127
249386 On ch=1 n=a4 v=39
249394 On ch=1 n=e5 v=0
249486 On ch=1 n=c#5 v=0
249552 On ch=1 n=d5 v=40
249556 On ch=1 n=f#4 v=47
249560 Par ch=1 c=64 v=0
249582 Par ch=1 c=64 v=127
249670 On ch=1 n=d5 v=0
249678 On ch=1 n=f#4 v=0
249748 On ch=1 n=a3 v=0
249756 On ch=1 n=c#5 v=54
249760 On ch=1 n=e4 v=44
249958 On ch=1 n=e5 v=25
249962 Par ch=1 c=64 v=0
249968 On ch=1 n=a3 v=49
249994 On ch=1 n=a4 v=0
249996 On ch=1 n=c#5 v=0
250034 Par ch=1 c=64 v=127
250170 On ch=1 n=c#5 v=49
250188 On ch=1 n=a4 v=40
250220 On ch=1 n=e4 v=0
250236 On ch=1 n=e5 v=0
250310 On ch=1 n=c#5 v=0
250512 On ch=1 n=a5 v=55
250512 On ch=1 n=f#4 v=48
250522 On ch=1 n=d5 v=36
250564 Par ch=1 c=64 v=0
250584 Par ch=1 c=64 v=127
250780 On ch=1 n=d5 v=0
250860 Par ch=1 c=64 v=0
250890 Par ch=1 c=64 v=127
251020 On ch=1 n=f#4 v=0
251114 On ch=1 n=a4 v=0
251256 On ch=1 n=e4 v=39
251260 On ch=1 n=c#5 v=40
251348 Par ch=1 c=64 v=0
251474 Par ch=1 c=64 v=127
251944 On ch=1 n=a5 v=0
251978 On ch=1 n=c#5 v=0
252056 On ch=1 n=c#6 v=0
252056 On ch=1 n=e5 v=31
252062 On ch=1 n=a4 v=26
252086 On ch=1 n=e4 v=0
252092 On ch=1 n=a3 v=0
252170 On ch=1 n=a4 v=0
252280 On ch=1 n=e5 v=0
252324 On ch=1 n=a5 v=36
252340 On ch=1 n=c#5 v=29
252478 On ch=1 n=c#6 v=36
252486 On ch=1 n=c#5 v=0
252486 On ch=1 n=e5 v=30
252496 On ch=1 n=a5 v=0
252528 On ch=1 n=c#6 v=0
252574 On ch=1 n=e5 v=0
252600 On ch=1 n=e6 v=39
252606 On ch=1 n=a5 v=26
252682 On ch=1 n=a5 v=0
252732 On ch=1 n=a6 v=33
252742 On ch=1 n=c#6 v=37
252764 On ch=1 n=e6 v=0
252842 On ch=1 n=c#6 v=0
252848 On ch=1 n=c#7 v=57
252854 On ch=1 n=e6 v=25
252862 On ch=1 n=a6 v=0
252926 On ch=1 n=c#7 v=0
252954 On ch=1 n=a7 v=48
252958 On ch=1 n=e6 v=0
252978 On ch=1 n=a6 v=35
253012 On ch=1 n=a7 v=0
253032 On ch=1 n=a6 v=0
253040 On ch=1 n=c#7 v=62
253070 On ch=1 n=e6 v=30
253098 On ch=1 n=c#7 v=0
253134 On ch=1 n=e6 v=0
253152 On ch=1 n=e7 v=59
253152 On ch=1 n=d7 v=58
253160 On ch=1 n=f6 v=38
253236 On ch=1 n=f6 v=0
253238 On ch=1 n=e6 v=39
253246 On ch=1 n=c#7 v=59
253272 On ch=1 n=e7 v=0
253282 On ch=1 n=d7 v=0
253320 On ch=1 n=e6 v=0
253338 On ch=1 n=a6 v=24
253346 On ch=1 n=c#7 v=0
253348 On ch=1 n=c#6 v=16
253422 On ch=1 n=a6 v=0
253426 On ch=1 n=a5 v=24
253430 On ch=1 n=c#6 v=0
253442 On ch=1 n=e6 v=37
253520 On ch=1 n=g6 v=43
253530 On ch=1 n=e6 v=0
253538 On ch=1 n=f6 v=37
253542 On ch=1 n=d6 v=24
253554 On ch=1 n=a5 v=0
253614 On ch=1 n=d6 v=0
253626 On ch=1 n=f6 v=0
253628 On ch=1 n=g6 v=0
253640 On ch=1 n=e6 v=43
253640 On ch=1 n=c#6 v=25
253736 On ch=1 n=a6 v=42
253742 On ch=1 n=e5 v=43
253766 On ch=1 n=c#6 v=0
253770 On ch=1 n=e6 v=0
253834 On ch=1 n=c#6 v=45
253838 On ch=1 n=a4 v=43
253894 On ch=1 n=a6 v=0
253896 On ch=1 n=e5 v=0
253912 On ch=1 n=e6 v=43
253932 On ch=1 n=f5 v=36
253938 On ch=1 n=d6 v=43
253966 On ch=1 n=c#6 v=0
253970 On ch=1 n=a4 v=0
254014 On ch=1 n=e6 v=0
254030 On ch=1 n=c#6 v=39
254036 On ch=1 n=e5 v=36
254062 On ch=1 n=f5 v=0
254076 On ch=1 n=d6 v=0
254126 On ch=1 n=c#6 v=0
254136 On ch=1 n=e5 v=0
254136 On ch=1 n=a5 v=33
254136 On ch=1 n=c#5 v=42
254230 On ch=1 n=e5 v=40
254242 On ch=1 n=a5 v=0
254244 On ch=1 n=c#5 v=0
254250 On ch=1 n=a4 v=48
254348 On ch=1 n=g5 v=24
254356 On ch=1 n=f5 v=38
254372 On ch=1 n=d5 v=43
254376 On ch=1 n=e5 v=0
254430 On ch=1 n=g5 v=0
254438 On ch=1 n=f5 v=0
254456 On ch=1 n=a4 v=0
254460 On ch=1 n=e5 v=43
254468 On ch=1 n=c#5 v=43
254480 Par ch=1 c=64 v=0
254488 On ch=1 n=d5 v=0
254550 Par ch=1 c=64 v=127
254586 On ch=1 n=a5 v=35
254596 On ch=1 n=c#5 v=0
254610 On ch=1 n=e4 v=40
254632 On ch=1 n=e5 v=0
254674 On ch=1 n=a5 v=0
254708 On ch=1 n=e5 v=33
254712 On ch=1 n=a3 v=43
254736 On ch=1 n=e4 v=0
254808 On ch=1 n=g5 v=30
254852 On ch=1 n=f5 v=26
254856 On ch=1 n=d5 v=42
254862 On ch=1 n=e5 v=0
254868 Par ch=1 c=64 v=0
254884 On ch=1 n=g5 v=0
254888 Par ch=1 c=64 v=127
254922 On ch=1 n=a3 v=0
254984 On ch=1 n=c#5 v=33
254988 On ch=1 n=e5 v=33
254996 On ch=1 n=f5 v=0
254998 On ch=1 n=d5 v=0
255124 On ch=1 n=a5 v=33
255130 On ch=1 n=e4 v=44
255166 On ch=1 n=c#5 v=0
255172 On ch=1 n=e5 v=0
255276 Par ch=1 c=64 v=0
255284 On ch=1 n=e5 v=33
255292 On ch=1 n=a3 v=32
255302 On ch=1 n=a5 v=0
255304 Par ch=1 c=64 v=127
255324 On ch=1 n=e4 v=0
255440 On ch=1 n=g5 v=25
255476 On ch=1 n=f5 v=33
255476 On ch=1 n=d5 v=33
255484 On ch=1 n=e5 v=0
255492 Par ch=1 c=64 v=0
255502 On ch=1 n=g5 v=0
255510 Par ch=1 c=64 v=127
255530 On ch=1 n=a3 v=0
255810 Par ch=1 c=64 v=0
255822 On ch=1 n=c#5 v=29
255828 On ch=1 n=e5 v=29
255842 On ch=1 n=f5 v=0
255872 Par ch=1 c=64 v=127
255888 On ch=1 n=d5 v=0
256320 Par ch=1 c=64 v=0
256526 On ch=1 n=a5 v=26
256546 On ch=1 n=e5 v=0
256626 On ch=1 n=c#5 v=0
258514 On ch=1 n=a#5 v=27
258534 On ch=1 n=a5 v=0
258860 On ch=1 n=g#5 v=28
258888 On ch=1 n=a#5 v=0
259268 On ch=1 n=a5 v=32
259290 On ch=1 n=g#5 v=0
259670 On ch=1 n=a#5 v=43
259720 On ch=1 n=a5 v=0
260078 On ch=1 n=d6 v=32
260110 On ch=1 n=a#5 v=0
260468 On ch=1 n=c#6 v=36
260474 On ch=1 n=d6 v=0
260488 On ch=1 n=a4 v=31
260848 On ch=1 n=g5 v=32
260858 On ch=1 n=a#4 v=48
260872 On ch=1 n=c#6 v=0
260878 On ch=1 n=a4 v=0
261224 On ch=1 n=a#5 v=41
261230 On ch=1 n=d5 v=39
261244 On ch=1 n=a#4 v=0
261278 On ch=1 n=g5 v=0
261616 On ch=1 n=a5 v=49
261616 On ch=1 n=c#5 v=37
261634 On ch=1 n=d5 v=0
261642 On ch=1 n=a#5 v=0
261988 On ch=1 n=a#5 v=50
261996 On ch=1 n=g4 v=43
262028 On ch=1 n=a5 v=0
262036 On ch=1 n=c#5 v=0
262346 On ch=1 n=a#4 v=46
262352 On ch=1 n=d6 v=32
262370 On ch=1 n=g4 v=0
262374 On ch=1 n=a#5 v=0
262716 On ch=1 n=c#6 v=46
262724 On ch=1 n=d6 v=0
262726 On ch=1 n=a4 v=46
262740 On ch=1 n=a#4 v=0
263080 On ch=1 n=a#4 v=49
263086 On ch=1 n=g5 v=30
263104 On ch=1 n=a4 v=0
263110 On ch=1 n=c#6 v=0
263434 On ch=1 n=a#5 v=36
263448 On ch=1 n=d5 v=24
263464 On ch=1 n=a#4 v=0
263502 On ch=1 n=g5 v=0
263800 On ch=1 n=c#5 v=38
263854 On ch=1 n=d5 v=0
263876 On ch=1 n=a#5 v=0
264148 On ch=1 n=a5 v=38
264148 On ch=1 n=c5 v=40
264192 On ch=1 n=c#5 v=0
264298 On ch=1 n=a#5 v=39
264324 On ch=1 n=a5 v=0
264470 On ch=1 n=a#5 v=0
264474 On ch=1 n=a5 v=42
264474 On ch=1 n=g5 v=32
264480 On ch=1 n=a#4 v=48
264512 On ch=1 n=c5 v=0
264558 Par ch=1 c=64 v=127
264584 On ch=1 n=g5 v=0
264632 On ch=1 n=a#5 v=46
264662 On ch=1 n=a5 v=0
264794 Par ch=1 c=64 v=0
264806 On ch=1 n=c6 v=47
264824 On ch=1 n=c5 v=36
264826 On ch=1 n=a#5 v=0
264890 Par ch=1 c=64 v=127
265026 On ch=1 n=c6 v=0
265036 On ch=1 n=c5 v=0
265142 On ch=1 n=c6 v=47
265148 On ch=1 n=d5 v=26
265152 On ch=1 n=a4 v=33
265160 On ch=1 n=a#4 v=0
265168 Par ch=1 c=64 v=0
265234 Par ch=1 c=64 v=127
265332 On ch=1 n=c6 v=0
265378 On ch=1 n=d5 v=0
265504 On ch=1 n=c6 v=44
265508 On ch=1 n=f5 v=42
265516 On ch=1 n=d4 v=37
265520 Par ch=1 c=64 v=0
265586 Par ch=1 c=64 v=127
265610 On ch=1 n=a4 v=0
265716 On ch=1 n=f5 v=0
265744 On ch=1 n=c6 v=0
265866 On ch=1 n=a#4 v=43
265916 On ch=1 n=g4 v=27
265938 On ch=1 n=d4 v=0
265944 On ch=1 n=f5 v=41
265958 Par ch=1 c=64 v=0
266004 On ch=1 n=c6 v=49
266016 Par ch=1 c=64 v=127
266030 On ch=1 n=a#4 v=0
266116 On ch=1 n=f5 v=0
266206 On ch=1 n=c6 v=0
266342 Par ch=1 c=64 v=0
266350 On ch=1 n=d5 v=48
266358 On ch=1 n=a#5 v=48
266362 On ch=1 n=g3 v=37
266394 Par ch=1 c=64 v=127
266544 On ch=1 n=a#5 v=0
266552 On ch=1 n=a5 v=35
266614 On ch=1 n=d5 v=0
266628 On ch=1 n=a5 v=0
266788 On ch=1 n=a#4 v=48
266792 On ch=1 n=c4 v=49
266798 On ch=1 n=g5 v=43
266800 On ch=1 n=e5 v=40
266818 Par ch=1 c=64 v=0
266894 Par ch=1 c=64 v=127
266902 On ch=1 n=g3 v=0
266922 On ch=1 n=e5 v=0
266990 On ch=1 n=g5 v=0
266990 On ch=1 n=a5 v=43
267050 On ch=1 n=a#4 v=0
267142 On ch=1 n=a5 v=0
267190 On ch=1 n=a4 v=37
267198 On ch=1 n=f5 v=38
267202 On ch=1 n=f3 v=44
267214 Par ch=1 c=64 v=0
267264 On ch=1 n=g4 v=0
267526 On ch=1 n=c#4 v=53
267562 On ch=1 n=a4 v=0
267568 On ch=1 n=c4 v=0
267574 On ch=1 n=f3 v=0
267576 On ch=1 n=f5 v=0
267888 On ch=1 n=f4 v=53
267892 On ch=1 n=c#4 v=0
268226 On ch=1 n=e4 v=55
268234 On ch=1 n=c5 v=36
268252 On ch=1 n=f4 v=0
268578 On ch=1 n=a#3 v=53
268584 On ch=1 n=e4 v=0
268584 On ch=1 n=c#5 v=35
268606 On ch=1 n=c5 v=0
268908 Par ch=1 c=64 v=127
268922 On ch=1 n=c#4 v=46
268930 On ch=1 n=f5 v=44
268944 On ch=1 n=a#3 v=0
268958 On ch=1 n=c#5 v=0
268994 On ch=1 n=f5 v=0
269252 Par ch=1 c=64 v=0
269268 On ch=1 n=c#4 v=0
269268 On ch=1 n=c6 v=55
269272 On ch=1 n=e5 v=49
269272 On ch=1 n=c4 v=50
269318 Par ch=1 c=64 v=127
269366 On ch=1 n=c4 v=0
269626 On ch=1 n=c#6 v=53
269626 On ch=1 n=a#4 v=53
269636 Par ch=1 c=64 v=0
269652 On ch=1 n=c6 v=0
269708 On ch=1 n=e5 v=0
269976 On ch=1 n=c#5 v=53
269980 On ch=1 n=f6 v=40
269988 On ch=1 n=a#4 v=0
269992 On ch=1 n=c#6 v=0
270322 On ch=1 n=e6 v=46
270328 On ch=1 n=f6 v=0
270332 On ch=1 n=c5 v=53
270352 On ch=1 n=c#5 v=0
270676 On ch=1 n=a#5 v=42
270680 On ch=1 n=c#5 v=53
270704 On ch=1 n=c5 v=0
270736 On ch=1 n=e6 v=0
271036 On ch=1 n=c#6 v=38
271042 On ch=1 n=f5 v=49
271056 On ch=1 n=c#5 v=0
271070 On ch=1 n=a#5 v=0
271398 On ch=1 n=e5 v=42
271418 On ch=1 n=c#6 v=0
271428 On ch=1 n=f5 v=0
271750 On ch=1 n=c6 v=41
271758 On ch=1 n=d#5 v=49
271798 On ch=1 n=e5 v=0
271922 On ch=1 n=c#6 v=53
271932 On ch=1 n=c6 v=0
272084 On ch=1 n=c#6 v=0
272092 On ch=1 n=c6 v=46
272098 On ch=1 n=a#5 v=24
272098 On ch=1 n=c#5 v=48
272126 On ch=1 n=d#5 v=0
272192 On ch=1 n=a#5 v=0
272250 On ch=1 n=c#6 v=51
272258 On ch=1 n=c6 v=0
272410 On ch=1 n=d#6 v=49
272418 On ch=1 n=d#5 v=53
272428 On ch=1 n=c#6 v=0
272462 Par ch=1 c=64 v=127
272632 On ch=1 n=d#5 v=0
272650 On ch=1 n=d#6 v=0
272752 On ch=1 n=d#6 v=53
272764 On ch=1 n=f5 v=39
272772 On ch=1 n=c5 v=32
272778 On ch=1 n=c#5 v=0
272786 Par ch=1 c=64 v=0
272842 Par ch=1 c=64 v=127
272976 On ch=1 n=d#6 v=0
272980 On ch=1 n=f5 v=0
273092 On ch=1 n=d#6 v=45
273110 On ch=1 n=g#5 v=32
273118 On ch=1 n=f4 v=38
273128 Par ch=1 c=64 v=0
273156 On ch=1 n=c5 v=0
273172 Par ch=1 c=64 v=127
273312 On ch=1 n=g#5 v=0
273438 On ch=1 n=a#4 v=34
273444 On ch=1 n=d#6 v=0
273464 On ch=1 n=f4 v=0
273504 On ch=1 n=c#5 v=45
273528 Par ch=1 c=64 v=0
273552 On ch=1 n=g#5 v=40
273608 On ch=1 n=d#6 v=58
273612 Par ch=1 c=64 v=127
273696 On ch=1 n=c#5 v=0
273698 On ch=1 n=g#5 v=0
273824 On ch=1 n=d#6 v=0
273846 On ch=1 n=a#3 v=49
273850 On ch=1 n=f5 v=49
273856 On ch=1 n=c#6 v=54
273868 Par ch=1 c=64 v=0
273920 Par ch=1 c=64 v=127
274012 On ch=1 n=c#6 v=0
274042 On ch=1 n=c6 v=53
274078 On ch=1 n=f5 v=0
274196 On ch=1 n=c6 v=0
274240 On ch=1 n=d#4 v=57
274250 On ch=1 n=c#5 v=53
274252 On ch=1 n=a#5 v=53
274260 On ch=1 n=a#3 v=0
274270 On ch=1 n=a#4 v=0
274274 Par ch=1 c=64 v=0
274340 Par ch=1 c=64 v=127
274462 On ch=1 n=a#5 v=0
274462 On ch=1 n=c6 v=37
274654 On ch=1 n=c#5 v=0
274662 On ch=1 n=g#3 v=24
274666 On ch=1 n=g#5 v=37
274676 On ch=1 n=c6 v=0
274682 On ch=1 n=c5 v=33
274692 Par ch=1 c=64 v=0
275012 On ch=1 n=e4 v=47
275026 On ch=1 n=d#4 v=0
275036 On ch=1 n=g#3 v=0
275076 On ch=1 n=c5 v=0
275084 On ch=1 n=g#5 v=0
275360 On ch=1 n=g#4 v=56
275380 On ch=1 n=e4 v=0
275706 On ch=1 n=d#5 v=39
275726 On ch=1 n=g4 v=57
275730 On ch=1 n=g#4 v=0
276096 On ch=1 n=c#4 v=48
276112 On ch=1 n=g4 v=0
276120 On ch=1 n=e5 v=52
276136 On ch=1 n=d#5 v=0
276396 Par ch=1 c=64 v=127
276420 On ch=1 n=e4 v=49
276428 On ch=1 n=g#5 v=54
276462 On ch=1 n=e5 v=0
276466 On ch=1 n=c#4 v=0
276768 On ch=1 n=g#5 v=0
276770 On ch=1 n=d#6 v=53
276774 On ch=1 n=d#4 v=50
276776 On ch=1 n=g5 v=50
276784 Par ch=1 c=64 v=0
276808 On ch=1 n=e4 v=0
276864 Par ch=1 c=64 v=127
276964 On ch=1 n=g5 v=0
277108 On ch=1 n=d#6 v=0
277118 Par ch=1 c=64 v=0
277126 On ch=1 n=g#5 v=58
277128 On ch=1 n=e6 v=57
277144 On ch=1 n=d#4 v=0
277182 Par ch=1 c=64 v=127
277490 On ch=1 n=g#6 v=49
277492 Par ch=1 c=64 v=0
277502 On ch=1 n=e6 v=0
277502 On ch=1 n=b5 v=47
277510 On ch=1 n=d5 v=48
277516 On ch=1 n=g#5 v=0
277570 Par ch=1 c=64 v=127
277694 On ch=1 n=g#6 v=0
277846 On ch=1 n=b5 v=0
277846 On ch=1 n=a#5 v=45
277852 On ch=1 n=g6 v=50
277852 On ch=1 n=d#5 v=49
277854 Par ch=1 c=64 v=0
277872 On ch=1 n=d5 v=0
277914 Par ch=1 c=64 v=127
278042 On ch=1 n=g6 v=0
278130 On ch=1 n=a#5 v=0
278208 On ch=1 n=a5 v=43
278210 On ch=1 n=c#6 v=41
278218 On ch=1 n=e5 v=33
278228 On ch=1 n=d#5 v=0
278238 Par ch=1 c=64 v=0
278292 Par ch=1 c=64 v=127
278418 On ch=1 n=a5 v=0
278464 On ch=1 n=c#6 v=0
278604 On ch=1 n=e6 v=28
278604 On ch=1 n=g#5 v=33
278622 Par ch=1 c=64 v=0
278638 On ch=1 n=e5 v=0
278690 Par ch=1 c=64 v=127
279030 On ch=1 n=g5 v=34
279038 Par ch=1 c=64 v=0
279090 Par ch=1 c=64 v=127
279132 On ch=1 n=g#5 v=0
279168 On ch=1 n=e6 v=0
279406 On ch=1 n=d#6 v=37
279406 On ch=1 n=f#5 v=43
279426 Par ch=1 c=64 v=0
279444 On ch=1 n=g5 v=0
279470 Par ch=1 c=64 v=127
279578 On ch=1 n=d#6 v=0
279588 On ch=1 n=e6 v=40
279724 On ch=1 n=e6 v=0
279756 On ch=1 n=d#6 v=38
279764 On ch=1 n=c#6 v=26
279770 On ch=1 n=e5 v=38
279786 Par ch=1 c=64 v=0
279802 On ch=1 n=f#5 v=0
279844 Par ch=1 c=64 v=127
279902 On ch=1 n=c#6 v=0
279922 On ch=1 n=e6 v=53
279926 On ch=1 n=d#6 v=0
280102 On ch=1 n=f#6 v=50
280108 On ch=1 n=f#5 v=40
280116 On ch=1 n=e6 v=0
280118 Par ch=1 c=64 v=0
280134 On ch=1 n=d#5 v=36
280154 On ch=1 n=e5 v=0
280168 Par ch=1 c=64 v=127
280258 On ch=1 n=d#5 v=0
280372 On ch=1 n=f#5 v=0
280404 On ch=1 n=f#6 v=0
280476 On ch=1 n=f#6 v=48
280494 On ch=1 n=b5 v=49
280502 On ch=1 n=f#5 v=27
280506 On ch=1 n=d5 v=36
280528 Par ch=1 c=64 v=0
280594 Par ch=1 c=64 v=127
280726 On ch=1 n=f#5 v=0
280730 On ch=1 n=d5 v=0
280756 On ch=1 n=b5 v=0
280780 On ch=1 n=f#6 v=0
280884 On ch=1 n=a#5 v=41
280890 On ch=1 n=f#6 v=53
280894 On ch=1 n=c#5 v=40
280900 On ch=1 n=e5 v=40
280936 Par ch=1 c=64 v=0
281002 Par ch=1 c=64 v=127
281168 On ch=1 n=f#6 v=0
281180 On ch=1 n=a#5 v=0
281196 On ch=1 n=c#5 v=0
281306 On ch=1 n=e5 v=0
281340 On ch=1 n=d#5 v=43
281344 On ch=1 n=f#6 v=44
281350 On ch=1 n=c5 v=38
281358 On ch=1 n=a5 v=29
281398 Par ch=1 c=64 v=0
281476 Par ch=1 c=64 v=127
281734 On ch=1 n=f#6 v=0
281802 On ch=1 n=f6 v=40
281820 On ch=1 n=f4 v=47
281850 Par ch=1 c=64 v=0
281876 On ch=1 n=d#5 v=0
281880 On ch=1 n=c5 v=0
281934 Par ch=1 c=64 v=127
282032 On ch=1 n=c6 v=48
282184 On ch=1 n=f6 v=0
282238 Par ch=1 c=64 v=0
282250 On ch=1 n=d#6 v=46
282256 On ch=1 n=f5 v=39
282272 On ch=1 n=c6 v=0
282276 Par ch=1 c=64 v=127
282362 On ch=1 n=f4 v=0
282460 On ch=1 n=c#6 v=47
282480 On ch=1 n=d#6 v=0
282510 On ch=1 n=f5 v=0
282664 On ch=1 n=a#5 v=48
282664 Par ch=1 c=64 v=0
282678 On ch=1 n=a5 v=0
282682 On ch=1 n=a#3 v=35
282688 On ch=1 n=c#6 v=0
282760 Par ch=1 c=64 v=127
282844 On ch=1 n=a#5 v=0
283072 On ch=1 n=f4 v=39
283082 On ch=1 n=c#5 v=19
283084 On ch=1 n=a#3 v=0
283296 On ch=1 n=f4 v=0
283306 On ch=1 n=c#5 v=0
283496 On ch=1 n=g#3 v=49
283734 On ch=1 n=g#3 v=0
283928 Par ch=1 c=64 v=0
283936 On ch=1 n=f#3 v=53
284012 Par ch=1 c=64 v=127
284280 On ch=1 n=f#3 v=0
284412 On ch=1 n=c#6 v=43
284412 On ch=1 n=a#4 v=21
284412 On ch=1 n=f#4 v=22
284424 On ch=1 n=c#4 v=30
284456 Par ch=1 c=64 v=127
284568 On ch=1 n=c#4 v=0
284598 On ch=1 n=d#6 v=60
284602 On ch=1 n=f#4 v=0
284608 On ch=1 n=c#6 v=0
284612 On ch=1 n=a#4 v=0
284792 On ch=1 n=c#6 v=53
284804 On ch=1 n=d#6 v=0
284808 On ch=1 n=c#5 v=18
284808 On ch=1 n=f#4 v=30
284820 On ch=1 n=a#4 v=24
284956 On ch=1 n=c#5 v=0
284958 On ch=1 n=f#4 v=0
284962 On ch=1 n=a#4 v=0
284986 On ch=1 n=d#6 v=54
285002 On ch=1 n=c#6 v=0
285158 On ch=1 n=f6 v=48
285174 On ch=1 n=c#3 v=40
285174 Par ch=1 c=64 v=0
285194 On ch=1 n=d#6 v=0
285264 Par ch=1 c=64 v=127
285388 On ch=1 n=f6 v=0
285576 On ch=1 n=c#5 v=38
285576 On ch=1 n=g#4 v=24
285576 On ch=1 n=f4 v=24
285578 On ch=1 n=f6 v=55
285614 On ch=1 n=c#3 v=0
285728 On ch=1 n=g#4 v=0
285730 On ch=1 n=f4 v=0
285730 On ch=1 n=c#5 v=0
285778 On ch=1 n=f6 v=0
285966 On ch=1 n=f6 v=49
285976 On ch=1 n=f5 v=19
285978 On ch=1 n=c#5 v=32
285980 On ch=1 n=g#4 v=38
286138 On ch=1 n=f5 v=0
286146 On ch=1 n=c#5 v=0
286152 On ch=1 n=g#4 v=0
286188 On ch=1 n=f6 v=0
286406 On ch=1 n=d#3 v=42
286408 On ch=1 n=f6 v=50
286420 Par ch=1 c=64 v=0
286520 Par ch=1 c=64 v=127
286808 On ch=1 n=d#6 v=54
286816 On ch=1 n=c5 v=24
286816 On ch=1 n=d#4 v=24
286822 On ch=1 n=a#4 v=24
286830 On ch=1 n=d#3 v=0
286836 Par ch=1 c=64 v=0
286848 On ch=1 n=f6 v=0
286884 Par ch=1 c=64 v=127
286958 On ch=1 n=d#4 v=0
286964 On ch=1 n=a#4 v=0
286964 On ch=1 n=c5 v=0
286984 On ch=1 n=a#5 v=61
287000 On ch=1 n=d#6 v=0
287176 On ch=1 n=f#5 v=29
287176 On ch=1 n=c5 v=29
287176 On ch=1 n=a#4 v=29
287182 On ch=1 n=c#6 v=49
287240 On ch=1 n=a#5 v=0
287316 On ch=1 n=f#5 v=0
287320 On ch=1 n=a#4 v=0
287328 On ch=1 n=c5 v=0
287368 On ch=1 n=c6 v=66
287382 On ch=1 n=c#6 v=0
287556 On ch=1 n=a5 v=49
287564 On ch=1 n=f3 v=40
287588 On ch=1 n=c6 v=0
287604 Par ch=1 c=64 v=0
287686 Par ch=1 c=64 v=127
287770 On ch=1 n=a5 v=0
287960 On ch=1 n=c6 v=53
287974 On ch=1 n=f5 v=28
287980 On ch=1 n=a5 v=32
287990 On ch=1 n=c5 v=32
287998 Par ch=1 c=64 v=0
288008 On ch=1 n=f3 v=0
288036 Par ch=1 c=64 v=127
288124 On ch=1 n=c5 v=0
288134 On ch=1 n=a5 v=0
288138 On ch=1 n=f5 v=0
288336 On ch=1 n=f6 v=57
288348 On ch=1 n=f5 v=24
288356 On ch=1 n=c5 v=27
288362 On ch=1 n=a4 v=31
288396 On ch=1 n=c6 v=0
288726 On ch=1 n=e6 v=55
288734 Par ch=1 c=64 v=0
288742 On ch=1 n=a4 v=0
288742 On ch=1 n=f4 v=37
288762 On ch=1 n=f6 v=0
288802 On ch=1 n=c5 v=0
288812 Par ch=1 c=64 v=127
288860 On ch=1 n=f5 v=0
289096 On ch=1 n=e5 v=29
289096 On ch=1 n=c#5 v=36
289098 On ch=1 n=a#5 v=49
289102 On ch=1 n=g5 v=21
289140 On ch=1 n=e6 v=0
289220 On ch=1 n=f4 v=0
289242 On ch=1 n=e5 v=0
289246 On ch=1 n=g5 v=0
289252 On ch=1 n=c#5 v=0
289514 On ch=1 n=c#6 v=48
289520 On ch=1 n=e5 v=21
289528 On ch=1 n=c#5 v=22
289528 On ch=1 n=a#4 v=20
289582 On ch=1 n=a#5 v=0
289648 On ch=1 n=a#4 v=0
289658 On ch=1 n=c#5 v=0
289660 On ch=1 n=e5 v=0
289928 On ch=1 n=f3 v=48
289950 Par ch=1 c=64 v=0
290020 Par ch=1 c=64 v=127
290302 On ch=1 n=c6 v=59
290304 On ch=1 n=a5 v=23
290310 On ch=1 n=f5 v=20
290312 On ch=1 n=c5 v=31
290348 On ch=1 n=c#6 v=0
290384 On ch=1 n=f3 v=0
290414 On ch=1 n=a5 v=0
290428 On ch=1 n=c5 v=0
290432 On ch=1 n=f5 v=0
290650 On ch=1 n=f6 v=43
290650 On ch=1 n=f5 v=22
290662 On ch=1 n=c5 v=29
290666 On ch=1 n=a4 v=20
290690 On ch=1 n=c6 v=0
291026 Par ch=1 c=64 v=0
291042 On ch=1 n=f4 v=49
291074 On ch=1 n=a4 v=0
291118 Par ch=1 c=64 v=127
291132 On ch=1 n=c5 v=0
291194 On ch=1 n=f5 v=0
291206 On ch=1 n=e6 v=58
291256 On ch=1 n=f6 v=0
291362 On ch=1 n=a#5 v=58
291368 On ch=1 n=e5 v=29
291376 On ch=1 n=g5 v=29
291380 On ch=1 n=c#5 v=40
291410 On ch=1 n=e6 v=0
291518 On ch=1 n=e5 v=0
291520 On ch=1 n=f4 v=0
291526 On ch=1 n=g5 v=0
291528 On ch=1 n=c#5 v=0
291566 On ch=1 n=c6 v=68
291592 On ch=1 n=a#5 v=0
291776 On ch=1 n=c#5 v=27
291784 On ch=1 n=e5 v=25
291784 On ch=1 n=a#4 v=25
291788 On ch=1 n=d#6 v=60
291810 On ch=1 n=c6 v=0
291918 On ch=1 n=c#5 v=0
291926 On ch=1 n=a#4 v=0
291930 On ch=1 n=e5 v=0
292020 On ch=1 n=c#6 v=57
292056 On ch=1 n=d#6 v=0
292296 On ch=1 n=f3 v=49
292308 On ch=1 n=c#6 v=0
292308 Par ch=1 c=64 v=0
292392 Par ch=1 c=64 v=127
292704 On ch=1 n=c6 v=55
292710 On ch=1 n=f#5 v=28
292712 On ch=1 n=d#5 v=23
292718 On ch=1 n=c5 v=38
292744 On ch=1 n=f3 v=0
292842 On ch=1 n=f#5 v=0
292844 On ch=1 n=c5 v=0
292848 On ch=1 n=d#5 v=0
292876 On ch=1 n=c#6 v=57
292908 On ch=1 n=c6 v=0
293032 On ch=1 n=f#4 v=36
293040 On ch=1 n=d#5 v=32
293046 On ch=1 n=c6 v=61
293046 On ch=1 n=a#4 v=38
293062 On ch=1 n=c#6 v=0
293176 On ch=1 n=c#6 v=72
293218 On ch=1 n=c6 v=0
293226 On ch=1 n=f#4 v=0
293240 On ch=1 n=d#5 v=0
293244 On ch=1 n=a#4 v=0
293340 On ch=1 n=d#6 v=57
293360 On ch=1 n=f4 v=46
293366 Par ch=1 c=64 v=0
293386 On ch=1 n=c#6 v=0
293438 Par ch=1 c=64 v=127
293566 On ch=1 n=d#6 v=0
293674 On ch=1 n=d#6 v=60
293680 On ch=1 n=d#5 v=32
293686 On ch=1 n=a#5 v=32
293688 On ch=1 n=f#5 v=37
293802 On ch=1 n=d#5 v=0
293808 On ch=1 n=f#5 v=0
293808 On ch=1 n=a#5 v=0
293838 On ch=1 n=f4 v=0
293844 On ch=1 n=d#6 v=0
294048 On ch=1 n=d#6 v=63
294068 On ch=1 n=f#5 v=31
294068 On ch=1 n=c5 v=36
294076 On ch=1 n=d#5 v=32
294170 On ch=1 n=f#5 v=0
294174 On ch=1 n=d#5 v=0
294188 On ch=1 n=c5 v=0
294302 On ch=1 n=d#6 v=0
294484 On ch=1 n=d#6 v=52
294508 On ch=1 n=f3 v=35
294522 Par ch=1 c=64 v=0
294606 Par ch=1 c=64 v=127
294944 On ch=1 n=a5 v=24
294944 On ch=1 n=f5 v=27
294946 On ch=1 n=d#5 v=24
294950 On ch=1 n=f6 v=48
294952 On ch=1 n=f3 v=0
295038 On ch=1 n=d#6 v=0
295080 On ch=1 n=a5 v=0
295096 On ch=1 n=f5 v=0
295102 On ch=1 n=d#5 v=0
295160 On ch=1 n=c6 v=51
295188 On ch=1 n=f6 v=0
295332 On ch=1 n=d#6 v=51
295354 On ch=1 n=d#5 v=24
295358 On ch=1 n=f5 v=24
295368 On ch=1 n=a4 v=22
295378 On ch=1 n=c6 v=0
295500 On ch=1 n=a4 v=0
295504 On ch=1 n=d#5 v=0
295506 On ch=1 n=f5 v=0
295518 On ch=1 n=c#6 v=47
295548 On ch=1 n=d#6 v=0
295732 On ch=1 n=a#5 v=39
295736 On ch=1 n=a#3 v=28
295758 Par ch=1 c=64 v=0
295768 On ch=1 n=c#6 v=0
295844 Par ch=1 c=64 v=127
296118 On ch=1 n=f5 v=24
296130 On ch=1 n=c#5 v=19
296140 On ch=1 n=a#4 v=20
296214 On ch=1 n=a#3 v=0
296260 On ch=1 n=a#4 v=0
296274 On ch=1 n=c#5 v=0
296274 On ch=1 n=f5 v=0
296506 On ch=1 n=c#5 v=23
296522 On ch=1 n=a#4 v=24
296538 On ch=1 n=f4 v=24
296628 On ch=1 n=a#4 v=0
296630 On ch=1 n=c#5 v=0
296640 On ch=1 n=f4 v=0
296918 On ch=1 n=c4 v=24
296926 On ch=1 n=g5 v=30
296970 Par ch=1 c=64 v=0
297008 On ch=1 n=a#5 v=0
297028 Par ch=1 c=64 v=127
297382 On ch=1 n=e5 v=24
297384 On ch=1 n=a#4 v=24
297392 On ch=1 n=c5 v=24
297396 On ch=1 n=c4 v=0
297558 On ch=1 n=a#4 v=0
297558 On ch=1 n=e5 v=0
297562 On ch=1 n=c5 v=0
297840 On ch=1 n=c5 v=19
297848 On ch=1 n=a#4 v=20
297860 On ch=1 n=g4 v=20
297996 On ch=1 n=c5 v=0
298024 On ch=1 n=g4 v=0
298036 On ch=1 n=a#4 v=0
298188 On ch=1 n=g5 v=0
298440 On ch=1 n=f3 v=46
298466 Par ch=1 c=64 v=127
298592 On ch=1 n=c4 v=21
298668 On ch=1 n=f3 v=0
298726 On ch=1 n=c6 v=55
298728 On ch=1 n=c4 v=0
298734 On ch=1 n=g#4 v=35
298814 On ch=1 n=g#4 v=0
298910 On ch=1 n=f4 v=41
299040 On ch=1 n=f6 v=35
299046 On ch=1 n=c5 v=29
299162 On ch=1 n=f4 v=0
299172 On ch=1 n=c5 v=0
299212 On ch=1 n=g#5 v=30
299360 Par ch=1 c=64 v=0
299372 On ch=1 n=c6 v=0
299384 On ch=1 n=f3 v=44
299484 Par ch=1 c=64 v=127
299498 On ch=1 n=c#4 v=45
299518 On ch=1 n=f6 v=0
299522 On ch=1 n=g#5 v=0
299566 On ch=1 n=e6 v=43
299576 On ch=1 n=f3 v=0
299612 On ch=1 n=c#4 v=0
299620 On ch=1 n=g4 v=32
299666 On ch=1 n=a5 v=43
299668 On ch=1 n=g4 v=0
299676 On ch=1 n=e6 v=0
299744 On ch=1 n=a#5 v=54
299754 On ch=1 n=a5 v=0
299812 On ch=1 n=e4 v=25
299842 On ch=1 n=a#5 v=0
299854 On ch=1 n=b5 v=28
299930 On ch=1 n=c#5 v=30
299934 On ch=1 n=b5 v=0
299938 On ch=1 n=c6 v=45
300004 On ch=1 n=d#6 v=46
300022 On ch=1 n=c6 v=0
300060 On ch=1 n=e4 v=0
300062 On ch=1 n=g5 v=47
300086 On ch=1 n=c#5 v=0
300102 On ch=1 n=g5 v=0
300112 On ch=1 n=c#6 v=55
300128 On ch=1 n=d#6 v=0
300166 On ch=1 n=c#6 v=0
300292 On ch=1 n=f3 v=52
300318 Par ch=1 c=64 v=0
300394 Par ch=1 c=64 v=127
300430 On ch=1 n=c4 v=49
300496 On ch=1 n=c6 v=53
300552 On ch=1 n=f3 v=0
300570 On ch=1 n=c4 v=0
300576 On ch=1 n=g#4 v=41
300616 On ch=1 n=c#6 v=55
300624 On ch=1 n=g#4 v=0
300638 On ch=1 n=c6 v=0
300696 On ch=1 n=c#6 v=0
300700 On ch=1 n=b5 v=40
300724 On ch=1 n=f4 v=42
300778 On ch=1 n=c6 v=52
300806 On ch=1 n=b5 v=0
300808 On ch=1 n=c5 v=45
300836 On ch=1 n=f4 v=0
300864 On ch=1 n=g#6 v=49
300882 On ch=1 n=c6 v=0
300968 On ch=1 n=c5 v=0
300970 On ch=1 n=g#6 v=0
300970 On ch=1 n=g6 v=55
300970 On ch=1 n=g#5 v=35
301006 On ch=1 n=g#5 v=0
301050 On ch=1 n=f6 v=50
301058 On ch=1 n=g6 v=0
301100 On ch=1 n=f6 v=0
301176 On ch=1 n=f6 v=49
301180 On ch=1 n=f3 v=49
301216 Par ch=1 c=64 v=0
301284 Par ch=1 c=64 v=127
301314 On ch=1 n=e6 v=42
301320 On ch=1 n=f6 v=0
301330 On ch=1 n=c#4 v=36
301362 On ch=1 n=e6 v=0
301398 On ch=1 n=f3 v=0
301430 On ch=1 n=g4 v=38
301440 On ch=1 n=c#4 v=0
301474 On ch=1 n=a5 v=49
301482 On ch=1 n=g4 v=0
301550 On ch=1 n=a#5 v=52
301558 On ch=1 n=a5 v=0
301582 On ch=1 n=e4 v=47
301632 On ch=1 n=a#5 v=0
301648 On ch=1 n=b5 v=43
301716 On ch=1 n=c6 v=55
301722 On ch=1 n=c#5 v=47
301730 On ch=1 n=b5 v=0
301798 On ch=1 n=d#6 v=49
301812 On ch=1 n=c6 v=0
301846 On ch=1 n=g5 v=38
301850 On ch=1 n=e4 v=0
301866 On ch=1 n=c#5 v=0
301888 On ch=1 n=g5 v=0
301902 On ch=1 n=c#6 v=37
301930 On ch=1 n=d#6 v=0
301956 On ch=1 n=c#6 v=0
302040 On ch=1 n=f3 v=52
302058 Par ch=1 c=64 v=0
302138 Par ch=1 c=64 v=127
302184 On ch=1 n=c4 v=30
302322 On ch=1 n=c6 v=42
302324 On ch=1 n=g#4 v=44
302334 On ch=1 n=c4 v=0
302358 On ch=1 n=f3 v=0
302412 On ch=1 n=g#4 v=0
302434 On ch=1 n=c#6 v=45
302448 On ch=1 n=c6 v=0
302484 On ch=1 n=e3 v=55
302560 On ch=1 n=c6 v=55
302584 On ch=1 n=c#6 v=0
302616 On ch=1 n=c4 v=36
302644 On ch=1 n=e3 v=0
302660 On ch=1 n=b5 v=49
302664 On ch=1 n=c6 v=0
302700 On ch=1 n=g#4 v=54
302712 On ch=1 n=c4 v=0
302744 On ch=1 n=c6 v=55
302772 On ch=1 n=b5 v=0
302792 On ch=1 n=g#4 v=0
302814 On ch=1 n=c#6 v=61
302836 On ch=1 n=c6 v=0
302870 On ch=1 n=d#3 v=55
302880 Par ch=1 c=64 v=0
302886 On ch=1 n=c#6 v=0
302908 On ch=1 n=d6 v=60
302952 Par ch=1 c=64 v=127
303000 On ch=1 n=d#6 v=52
303014 On ch=1 n=c4 v=43
303032 On ch=1 n=d6 v=0
303064 On ch=1 n=d#3 v=0
303094 On ch=1 n=c7 v=54
303102 On ch=1 n=d#6 v=0
303126 On ch=1 n=c4 v=0
303132 On ch=1 n=g#4 v=49
303174 On ch=1 n=g6 v=45
303184 On ch=1 n=g#4 v=0
303228 On ch=1 n=c7 v=0
303250 On ch=1 n=g6 v=0
303256 On ch=1 n=a#6 v=55
303264 On ch=1 n=d#4 v=38
303334 On ch=1 n=g#6 v=55
303348 On ch=1 n=c5 v=50
303356 On ch=1 n=d#4 v=0
303360 On ch=1 n=a#6 v=0
303410 On ch=1 n=g#6 v=0
303414 On ch=1 n=c6 v=51
303452 On ch=1 n=c5 v=0
303454 On ch=1 n=g#5 v=22
303484 On ch=1 n=c#6 v=54
303486 On ch=1 n=g#5 v=0
303492 On ch=1 n=c6 v=0
303560 On ch=1 n=d6 v=32
303568 On ch=1 n=c#6 v=0
303630 On ch=1 n=d#6 v=42
303636 On ch=1 n=d6 v=0
303656 On ch=1 n=d#3 v=52
303688 Par ch=1 c=64 v=0
303698 On ch=1 n=e6 v=55
303718 On ch=1 n=d#6 v=0
303750 Par ch=1 c=64 v=127
303772 On ch=1 n=g6 v=38
303796 On ch=1 n=c#4 v=51
303800 On ch=1 n=e6 v=0
303832 On ch=1 n=f6 v=50
303840 On ch=1 n=g6 v=0
303894 On ch=1 n=c#4 v=0
303894 On ch=1 n=d#3 v=0
303894 On ch=1 n=g4 v=45
303900 On ch=1 n=d#6 v=61
303914 On ch=1 n=f6 v=0
303960 On ch=1 n=c6 v=50
303962 On ch=1 n=g4 v=0
303968 On ch=1 n=d#6 v=0
304024 On ch=1 n=d#4 v=42
304046 On ch=1 n=d#6 v=49
304052 On ch=1 n=c6 v=0
304106 On ch=1 n=c#6 v=43
304122 On ch=1 n=c#5 v=49
304126 On ch=1 n=d#6 v=0
304150 On ch=1 n=d#4 v=0
304178 On ch=1 n=c#5 v=0
304180 On ch=1 n=c#6 v=0
304186 On ch=1 n=f5 v=36
304264 On ch=1 n=f5 v=0
304266 On ch=1 n=g5 v=46
304284 On ch=1 n=a#5 v=65
304324 On ch=1 n=a#5 v=0
304354 On ch=1 n=g5 v=0
304358 On ch=1 n=d#5 v=61
304468 On ch=1 n=g#5 v=54
304472 On ch=1 n=g#3 v=55
304486 On ch=1 n=d#5 v=0
304512 Par ch=1 c=64 v=0
304580 Par ch=1 c=64 v=127
304628 On ch=1 n=d#4 v=54
304760 On ch=1 n=c5 v=51
304774 On ch=1 n=d#4 v=0
304816 On ch=1 n=g#5 v=0
304902 On ch=1 n=d#4 v=49
305002 On ch=1 n=c5 v=0
305054 On ch=1 n=c5 v=54
305132 On ch=1 n=g#3 v=0
305156 On ch=1 n=d#4 v=0
305178 On ch=1 n=g#5 v=50
305326 On ch=1 n=g#3 v=61
305326 Par ch=1 c=64 v=0
305406 Par ch=1 c=64 v=127
305456 On ch=1 n=c5 v=0
305460 On ch=1 n=g#5 v=0
305468 On ch=1 n=e4 v=60
305604 On ch=1 n=c5 v=52
305640 On ch=1 n=e4 v=0
305742 On ch=1 n=e4 v=54
305800 On ch=1 n=c5 v=0
305858 On ch=1 n=e4 v=0
305882 On ch=1 n=g#3 v=0
305890 On ch=1 n=c5 v=43
306046 On ch=1 n=g#5 v=42
306078 On ch=1 n=c5 v=0
306160 On ch=1 n=g#5 v=0
306198 Par ch=1 c=64 v=0
306216 On ch=1 n=g#2 v=80
306238 Par ch=1 c=64 v=127
306290 On ch=1 n=g#2 v=0
306386 On ch=1 n=d#4 v=62
306512 On ch=1 n=d#6 v=68
306518 On ch=1 n=d#4 v=0
306524 On ch=1 n=c5 v=57
306644 On ch=1 n=d#4 v=62
306648 On ch=1 n=c5 v=0
306762 On ch=1 n=c5 v=59
306790 On ch=1 n=g#6 v=64
306800 On ch=1 n=d#4 v=0
306814 On ch=1 n=c5 v=0
306918 On ch=1 n=g#5 v=52
306964 On ch=1 n=d#6 v=0
307040 On ch=1 n=g#5 v=0
307064 On ch=1 n=g#3 v=64
307102 Par ch=1 c=64 v=0
307124 On ch=1 n=g#6 v=0
307140 On ch=1 n=g6 v=58
307164 Par ch=1 c=64 v=127
307190 On ch=1 n=e4 v=56
307252 On ch=1 n=g#3 v=0
307252 On ch=1 n=b5 v=49
307310 On ch=1 n=e4 v=0
307322 On ch=1 n=g6 v=0
307336 On ch=1 n=c#5 v=24
307342 On ch=1 n=c6 v=62
307358 On ch=1 n=b5 v=0
307394 On ch=1 n=c#5 v=0
307426 On ch=1 n=c#6 v=60
307452 On ch=1 n=c6 v=0
307478 On ch=1 n=a#4 v=51
307506 On ch=1 n=c#6 v=0
307516 On ch=1 n=d6 v=56
307606 On ch=1 n=d#6 v=57
307614 On ch=1 n=g5 v=53
307638 On ch=1 n=d6 v=0
307698 On ch=1 n=f#6 v=58
307722 On ch=1 n=d#6 v=0
307756 On ch=1 n=a#4 v=0
307762 On ch=1 n=c#6 v=59
307770 On ch=1 n=g5 v=0
307794 On ch=1 n=c#6 v=0
307810 On ch=1 n=e6 v=56
307844 On ch=1 n=f#6 v=0
307916 On ch=1 n=e6 v=0
307954 On ch=1 n=g#3 v=67
307968 Par ch=1 c=64 v=0
308046 Par ch=1 c=64 v=127
308084 On ch=1 n=d#4 v=62
308116 On ch=1 n=g#3 v=0
308130 On ch=1 n=d#6 v=55
308212 On ch=1 n=f6 v=56
308220 On ch=1 n=c5 v=30
308222 On ch=1 n=d#4 v=0
308232 On ch=1 n=d#6 v=0
308274 On ch=1 n=c5 v=0
308298 On ch=1 n=f6 v=0
308298 On ch=1 n=d6 v=48
308344 On ch=1 n=g#4 v=52
308370 On ch=1 n=d#6 v=55
308406 On ch=1 n=d6 v=0
308454 On ch=1 n=c7 v=57
308460 On ch=1 n=d#6 v=0
308464 On ch=1 n=d#5 v=60
308498 On ch=1 n=g#4 v=0
308538 On ch=1 n=a#6 v=58
308554 On ch=1 n=c7 v=0
308598 On ch=1 n=c6 v=47
308618 On ch=1 n=d#5 v=0
308624 On ch=1 n=a#6 v=0
308626 On ch=1 n=a6 v=73
308636 On ch=1 n=c6 v=0
308700 On ch=1 n=a6 v=0
308762 On ch=1 n=g#3 v=55
308768 On ch=1 n=g#6 v=69
308800 Par ch=1 c=64 v=0
308868 Par ch=1 c=64 v=127
308872 On ch=1 n=g6 v=63
308900 On ch=1 n=g#6 v=0
308910 On ch=1 n=d#4 v=27
308940 On ch=1 n=g#3 v=0
308946 On ch=1 n=g6 v=0
308958 On ch=1 n=b5 v=59
309030 On ch=1 n=c#5 v=62
309036 On ch=1 n=d#4 v=0
309052 On ch=1 n=c6 v=56
309066 On ch=1 n=b5 v=0
309088 On ch=1 n=c#5 v=0
309122 On ch=1 n=c#6 v=62
309148 On ch=1 n=c6 v=0
309164 On ch=1 n=a#4 v=54
309190 On ch=1 n=c#6 v=0
309200 On ch=1 n=d6 v=51
309270 On ch=1 n=d#6 v=62
309284 On ch=1 n=g5 v=46
309316 On ch=1 n=d6 v=0
309354 On ch=1 n=f#6 v=61
309368 On ch=1 n=a#4 v=0
309374 On ch=1 n=d#6 v=0
309378 On ch=1 n=c#6 v=59
309384 On ch=1 n=g5 v=0
309408 On ch=1 n=c#6 v=0
309452 On ch=1 n=e6 v=49
309492 On ch=1 n=f#6 v=0
309520 On ch=1 n=e6 v=0
309564 On ch=1 n=g#3 v=67
309572 Par ch=1 c=64 v=0
309648 Par ch=1 c=64 v=127
309694 On ch=1 n=d#4 v=62
309732 On ch=1 n=g#3 v=0
309806 On ch=1 n=d#6 v=59
309816 On ch=1 n=c5 v=36
309822 On ch=1 n=d#4 v=0
309876 On ch=1 n=c5 v=0
309908 On ch=1 n=f6 v=59
309924 On ch=1 n=d#6 v=0
309960 On ch=1 n=g#4 v=38
309998 On ch=1 n=d#6 v=67
310020 On ch=1 n=f6 v=0
310090 On ch=1 n=d6 v=50
310096 On ch=1 n=d#6 v=0
310096 On ch=1 n=d#5 v=56
310142 On ch=1 n=g#4 v=0
310170 On ch=1 n=d#6 v=69
310172 On ch=1 n=d6 v=0
310220 On ch=1 n=c6 v=48
310230 On ch=1 n=d#6 v=0
310244 On ch=1 n=d#5 v=0
310248 On ch=1 n=c6 v=0
310260 On ch=1 n=f6 v=69
310312 On ch=1 n=f6 v=0
310412 On ch=1 n=f#6 v=71
310418 On ch=1 n=d#3 v=69
310440 Par ch=1 c=64 v=0
310508 Par ch=1 c=64 v=127
310540 On ch=1 n=f#7 v=55
310584 On ch=1 n=f#6 v=0
310624 On ch=1 n=a#3 v=53
310654 On ch=1 n=f7 v=56
310662 On ch=1 n=d#3 v=0
310664 On ch=1 n=f#7 v=0
310752 On ch=1 n=e7 v=58
310768 On ch=1 n=f7 v=0
310770 On ch=1 n=a#3 v=0
310786 On ch=1 n=f#4 v=59
310830 On ch=1 n=f#4 v=0
310838 On ch=1 n=d#7 v=62
310872 On ch=1 n=e7 v=0
310902 On ch=1 n=d#4 v=49
310912 On ch=1 n=c#7 v=46
310944 On ch=1 n=d#7 v=0
310994 On ch=1 n=c#7 v=0
310994 On ch=1 n=a#4 v=53
310998 On ch=1 n=c7 v=58
311034 On ch=1 n=d#4 v=0
311080 On ch=1 n=a#6 v=61
311084 On ch=1 n=c7 v=0
311106 On ch=1 n=f#5 v=36
311108 On ch=1 n=a#4 v=0
311112 On ch=1 n=g#5 v=42
311126 On ch=1 n=g#5 v=0
311130 On ch=1 n=f#5 v=0
311152 On ch=1 n=g#6 v=57
311172 On ch=1 n=a#6 v=0
311220 On ch=1 n=f#6 v=58
311246 On ch=1 n=g#6 v=0
311254 On ch=1 n=f3 v=58
311276 Par ch=1 c=64 v=0
311302 On ch=1 n=f#6 v=0
311302 On ch=1 n=f6 v=62
311366 On ch=1 n=c4 v=59
311380 On ch=1 n=e6 v=63
311384 Par ch=1 c=64 v=127
311396 On ch=1 n=f6 v=0
311440 On ch=1 n=f3 v=0
311462 On ch=1 n=d#6 v=63
311466 On ch=1 n=a4 v=30
311476 On ch=1 n=c4 v=0
311480 On ch=1 n=e6 v=0
311514 On ch=1 n=a4 v=0
311530 On ch=1 n=d#6 v=0
311536 On ch=1 n=c#6 v=74
311578 On ch=1 n=f4 v=62
311614 On ch=1 n=b5 v=64
311616 On ch=1 n=c#6 v=0
311684 On ch=1 n=d#5 v=51
311698 On ch=1 n=c6 v=57
311704 On ch=1 n=b5 v=0
311788 On ch=1 n=a5 v=58
311792 On ch=1 n=d#6 v=62
311820 On ch=1 n=a5 v=0
311822 On ch=1 n=c6 v=0
311826 On ch=1 n=d#5 v=0
311836 On ch=1 n=f4 v=0
311866 On ch=1 n=c#6 v=59
311880 On ch=1 n=a#2 v=68
311890 On ch=1 n=d#6 v=0
311944 Par ch=1 c=64 v=0
311956 On ch=1 n=c6 v=64
311970 On ch=1 n=c#6 v=0
312016 Par ch=1 c=64 v=127
312030 On ch=1 n=a#2 v=0
312082 On ch=1 n=f3 v=49
312146 On ch=1 n=a#5 v=60
312168 On ch=1 n=c6 v=0
312204 On ch=1 n=f3 v=0
312208 On ch=1 n=c#4 v=68
312248 On ch=1 n=c#4 v=0
312334 On ch=1 n=a#3 v=51
312456 On ch=1 n=f4 v=61
312462 On ch=1 n=a#3 v=0
312580 On ch=1 n=f4 v=0
312582 On ch=1 n=c#5 v=49
312620 On ch=1 n=c#5 v=0
312710 On ch=1 n=a#5 v=0
312750 On ch=1 n=f#3 v=74
312774 Par ch=1 c=64 v=0
312864 Par ch=1 c=64 v=127
312914 On ch=1 n=c#4 v=49
313000 On ch=1 n=f#3 v=0
313062 On ch=1 n=c#4 v=0
313066 On ch=1 n=c#6 v=58
313066 On ch=1 n=a#4 v=30
313126 On ch=1 n=a#4 v=0
313194 On ch=1 n=f#4 v=10
313204 On ch=1 n=d#6 v=42
313218 On ch=1 n=c#6 v=0
313284 On ch=1 n=c#6 v=57
313308 On ch=1 n=d#6 v=0
313340 On ch=1 n=c#5 v=47
313368 On ch=1 n=f#4 v=0
313376 On ch=1 n=c#6 v=0
313376 On ch=1 n=c6 v=62
313466 On ch=1 n=c#6 v=54
313470 On ch=1 n=c#5 v=0
313476 On ch=1 n=a#5 v=53
313498 On ch=1 n=a#5 v=0
313506 On ch=1 n=c6 v=0
313564 On ch=1 n=d#6 v=57
313586 On ch=1 n=c#6 v=0
313604 On ch=1 n=d#6 v=0
313688 On ch=1 n=c#3 v=62
313696 On ch=1 n=f6 v=47
313726 Par ch=1 c=64 v=0
313806 Par ch=1 c=64 v=127
313812 On ch=1 n=f7 v=60
313854 On ch=1 n=g#3 v=56
313892 On ch=1 n=c#3 v=0
313896 On ch=1 n=c7 v=61
313978 On ch=1 n=g#3 v=0
313984 On ch=1 n=f4 v=3
313998 On ch=1 n=d#7 v=61
314004 On ch=1 n=c7 v=0
314032 On ch=1 n=f7 v=0
314048 On ch=1 n=f6 v=0
314052 On ch=1 n=f4 v=0
314094 On ch=1 n=c#7 v=42
314112 On ch=1 n=c#4 v=41
314124 On ch=1 n=d#7 v=0
314158 On ch=1 n=g#6 v=57
314186 On ch=1 n=c#7 v=0
314230 On ch=1 n=f6 v=67
314240 On ch=1 n=g#4 v=49
314244 On ch=1 n=g#6 v=0
314266 On ch=1 n=c#4 v=0
314286 On ch=1 n=f6 v=0
314310 On ch=1 n=d#6 v=69
314330 On ch=1 n=f5 v=41
314360 On ch=1 n=f5 v=0
314368 On ch=1 n=g#4 v=0
314398 On ch=1 n=c#6 v=61
314408 On ch=1 n=d#6 v=0
314474 Par ch=1 c=64 v=0
314482 On ch=1 n=b5 v=58
314488 On ch=1 n=d#3 v=62
314492 On ch=1 n=c#6 v=0
314540 Par ch=1 c=64 v=127
314588 On ch=1 n=c#6 v=67
314590 On ch=1 n=b5 v=0
314616 On ch=1 n=f#3 v=43
314628 On ch=1 n=b5 v=59
314632 On ch=1 n=c#6 v=0
314640 On ch=1 n=d#3 v=0
314676 On ch=1 n=c#6 v=74
314680 On ch=1 n=b5 v=0
314702 On ch=1 n=f#4 v=54
314708 On ch=1 n=b5 v=67
314716 On ch=1 n=c#6 v=0
314724 On ch=1 n=f#3 v=0
314748 On ch=1 n=a#5 v=67
314760 On ch=1 n=b5 v=0
314782 Par ch=1 c=64 v=0
314784 On ch=1 n=f#4 v=0
314804 On ch=1 n=b5 v=64
314808 On ch=1 n=e3 v=82
314830 On ch=1 n=a#5 v=0
314838 Par ch=1 c=64 v=127
314874 On ch=1 n=c#6 v=57
314906 On ch=1 n=b5 v=0
314914 On ch=1 n=c#4 v=52
314936 On ch=1 n=d#6 v=53
314952 On ch=1 n=e3 v=0
314960 On ch=1 n=c#6 v=0
315004 On ch=1 n=g4 v=50
315014 On ch=1 n=a5 v=71
315024 On ch=1 n=c#4 v=0
315034 On ch=1 n=d#6 v=0
315074 On ch=1 n=c6 v=62
315108 On ch=1 n=a5 v=0
315132 On ch=1 n=a#5 v=56
315142 On ch=1 n=g4 v=0
315156 On ch=1 n=c6 v=0
315188 Par ch=1 c=64 v=0
315194 On ch=1 n=f3 v=61
315202 On ch=1 n=a#5 v=0
315216 On ch=1 n=a5 v=77
315268 Par ch=1 c=64 v=127
315282 On ch=1 n=c6 v=60
315324 On ch=1 n=a5 v=0
315336 On ch=1 n=c4 v=55
315358 On ch=1 n=e6 v=50
315372 On ch=1 n=f3 v=0
315404 On ch=1 n=c6 v=0
315426 On ch=1 n=f#6 v=49
315434 On ch=1 n=c4 v=0
315436 On ch=1 n=a4 v=26
315450 On ch=1 n=e6 v=0
315464 On ch=1 n=f#6 v=0
315478 On ch=1 n=a4 v=0
315508 On ch=1 n=f6 v=70
315548 On ch=1 n=f4 v=49
315586 On ch=1 n=a6 v=61
315610 On ch=1 n=f6 v=0
315628 On ch=1 n=c5 v=60
315654 On ch=1 n=c7 v=63
315662 On ch=1 n=f4 v=0
315682 On ch=1 n=a6 v=0
315714 On ch=1 n=c7 v=0
315718 On ch=1 n=f6 v=70
315722 On ch=1 n=a5 v=66
315730 On ch=1 n=c5 v=0
315750 On ch=1 n=a5 v=0
315788 On ch=1 n=f7 v=67
315856 On ch=1 n=e7 v=62
315860 On ch=1 n=f6 v=0
315864 On ch=1 n=f3 v=58
315864 Par ch=1 c=64 v=0
315876 On ch=1 n=f7 v=0
315924 On ch=1 n=c7 v=63
315940 On ch=1 n=e7 v=0
315940 Par ch=1 c=64 v=127
315948 On ch=1 n=c#4 v=66
316000 On ch=1 n=f3 v=0
316002 On ch=1 n=c7 v=0
316002 On ch=1 n=d#7 v=79
316024 On ch=1 n=a#4 v=42
316040 On ch=1 n=c#4 v=0
316056 On ch=1 n=c#7 v=78
316078 On ch=1 n=a#4 v=0
316080 On ch=1 n=d#7 v=0
316108 On ch=1 n=a#6 v=68
316130 On ch=1 n=c#7 v=0
316154 On ch=1 n=e4 v=43
316162 On ch=1 n=g6 v=75
316164 On ch=1 n=f4 v=42
316168 On ch=1 n=a#6 v=0
316200 On ch=1 n=g6 v=0
316204 On ch=1 n=f4 v=0
316224 On ch=1 n=e6 v=61
316246 On ch=1 n=c#5 v=24
316272 On ch=1 n=e4 v=0
316290 On ch=1 n=c#6 v=59
316290 On ch=1 n=g5 v=4
316304 On ch=1 n=e6 v=0
316314 On ch=1 n=c#5 v=0
316320 On ch=1 n=g5 v=0
316334 On ch=1 n=a#5 v=52
316358 On ch=1 n=c#6 v=0
316394 On ch=1 n=a#5 v=0
316404 On ch=1 n=a5 v=56
316418 On ch=1 n=f3 v=67
316428 Par ch=1 c=64 v=0
316468 On ch=1 n=c6 v=67
316494 On ch=1 n=a5 v=0
316506 On ch=1 n=c4 v=68
316510 Par ch=1 c=64 v=127
316538 On ch=1 n=e6 v=67
316560 On ch=1 n=f3 v=0
316574 On ch=1 n=c6 v=0
316588 On ch=1 n=c4 v=0
316596 On ch=1 n=a4 v=67
316600 On ch=1 n=f#6 v=67
316614 On ch=1 n=e6 v=0
316620 On ch=1 n=f#6 v=0
316636 On ch=1 n=a4 v=0
316642 On ch=1 n=f6 v=83
316704 On ch=1 n=a6 v=67
316710 On ch=1 n=f4 v=56
316728 On ch=1 n=f6 v=0
316762 On ch=1 n=c7 v=69
316780 On ch=1 n=a6 v=0
316782 On ch=1 n=c5 v=42
316796 On ch=1 n=f6 v=67
316804 On ch=1 n=f4 v=0
316824 On ch=1 n=c7 v=0
316848 On ch=1 n=f8 v=67
316848 On ch=1 n=a5 v=55
316860 On ch=1 n=c5 v=0
316896 On ch=1 n=f6 v=0
316902 On ch=1 n=a5 v=0
316912 On ch=1 n=e8 v=92
316916 Par ch=1 c=64 v=0
316924 On ch=1 n=f8 v=0
316944 On ch=1 n=f4 v=62
316968 On ch=1 n=c8 v=53
316970 On ch=1 n=e8 v=0
316984 Par ch=1 c=64 v=127
317008 On ch=1 n=c#5 v=77
317016 On ch=1 n=d#8 v=74
317028 On ch=1 n=f4 v=0
317034 On ch=1 n=c8 v=0
317062 On ch=1 n=c#5 v=0
317066 On ch=1 n=a#5 v=92
317082 On ch=1 n=d#8 v=0
317096 On ch=1 n=c#8 v=92
317106 On ch=1 n=a#5 v=0
317158 On ch=1 n=c#8 v=0
317160 On ch=1 n=a#7 v=37
317166 On ch=1 n=e5 v=73
317212 On ch=1 n=g7 v=60
317220 On ch=1 n=a#7 v=0
317232 On ch=1 n=c#6 v=78
317236 On ch=1 n=e5 v=0
317240 On ch=1 n=e7 v=62
317280 On ch=1 n=g7 v=0
317294 On ch=1 n=c#7 v=73
317308 On ch=1 n=c#6 v=0
317308 On ch=1 n=g6 v=43
317324 On ch=1 n=e7 v=0
317340 On ch=1 n=g6 v=0
317346 On ch=1 n=a#6 v=62
317368 On ch=1 n=c#7 v=0
317388 Par ch=1 c=64 v=0
317408 On ch=1 n=a#6 v=0
317408 On ch=1 n=a6 v=74
317408 On ch=1 n=f5 v=29
317412 On ch=1 n=c6 v=73
317460 Par ch=1 c=64 v=127
317464 On ch=1 n=c7 v=53
317476 On ch=1 n=a6 v=0
317520 On ch=1 n=d#7 v=59
317528 On ch=1 n=c7 v=0
317566 On ch=1 n=d#7 v=0
317574 On ch=1 n=f7 v=63
317628 On ch=1 n=g#7 v=55
317634 On ch=1 n=f7 v=0
317656 On ch=1 n=c6 v=0
317656 On ch=1 n=f5 v=0
317674 On ch=1 n=f#7 v=67
317696 On ch=1 n=g#7 v=0
317720 On ch=1 n=d#7 v=62
317740 On ch=1 n=f#7 v=0
317772 On ch=1 n=d#7 v=0
317778 On ch=1 n=c7 v=73
317802 On ch=1 n=c7 v=0
317834 On ch=1 n=a6 v=65
317884 On ch=1 n=f#6 v=49
317908 On ch=1 n=a6 v=0
317936 On ch=1 n=d#6 v=60
317952 On ch=1 n=f#6 v=0
317988 On ch=1 n=d#6 v=0
317990 On ch=1 n=c6 v=74
318044 On ch=1 n=c6 v=0
318050 On ch=1 n=a5 v=67
318054 On ch=1 n=c5 v=57
318098 On ch=1 n=a#5 v=67
318104 On ch=1 n=c#5 v=47
318114 On ch=1 n=c5 v=0
318118 On ch=1 n=a5 v=0
318146 On ch=1 n=a#5 v=0
318150 On ch=1 n=b5 v=64
318156 On ch=1 n=c#5 v=0
318156 On ch=1 n=d5 v=58
318208 On ch=1 n=c6 v=64
318210 On ch=1 n=b5 v=0
318214 On ch=1 n=d5 v=0
318214 On ch=1 n=d#5 v=67
318252 On ch=1 n=c#6 v=60
318268 On ch=1 n=e5 v=69
318278 On ch=1 n=d#5 v=0
318286 On ch=1 n=c6 v=0
318308 On ch=1 n=a#5 v=71
318322 On ch=1 n=c#5 v=56
318324 On ch=1 n=e5 v=0
318330 On ch=1 n=c#6 v=0
318362 On ch=1 n=a#5 v=0
318370 Par ch=1 c=64 v=0
318382 On ch=1 n=a5 v=73
318388 On ch=1 n=c#5 v=0
318390 On ch=1 n=f5 v=67
318406 On ch=1 n=c5 v=57
318436 On ch=1 n=c6 v=61
318438 Par ch=1 c=64 v=127
318452 On ch=1 n=a5 v=0
318488 On ch=1 n=d#6 v=62
318504 On ch=1 n=c6 v=0
318522 On ch=1 n=f5 v=0
318536 Par ch=1 c=64 v=0
318542 On ch=1 n=d#6 v=0
318552 On ch=1 n=f6 v=58
318552 On ch=1 n=d#5 v=54
318560 On ch=1 n=f4 v=58
318602 Par ch=1 c=64 v=127
318610 On ch=1 n=g#6 v=43
318614 On ch=1 n=f6 v=0
318642 Par ch=1 c=64 v=0
318656 On ch=1 n=f#6 v=71
318666 On ch=1 n=g#6 v=0
318702 On ch=1 n=d#6 v=52
318708 Par ch=1 c=64 v=127
318718 On ch=1 n=f#6 v=0
318728 On ch=1 n=c5 v=0
318732 On ch=1 n=d#5 v=0
318754 On ch=1 n=d#6 v=0
318756 On ch=1 n=c6 v=73
318774 On ch=1 n=f4 v=0
318780 On ch=1 n=c6 v=0
318808 On ch=1 n=a5 v=67
318854 On ch=1 n=f#5 v=64
318870 On ch=1 n=a5 v=0
318906 On ch=1 n=d#5 v=67
318924 On ch=1 n=f#5 v=0
318966 On ch=1 n=d#5 v=0
318968 On ch=1 n=c5 v=74
319030 On ch=1 n=c5 v=0
319034 On ch=1 n=a4 v=74
319036 On ch=1 n=c4 v=69
319070 On ch=1 n=c#4 v=68
319086 On ch=1 n=a#4 v=73
319090 On ch=1 n=c4 v=0
319102 On ch=1 n=a4 v=0
319122 On ch=1 n=d4 v=67
319126 On ch=1 n=c#4 v=0
319128 On ch=1 n=a#4 v=0
319132 On ch=1 n=b4 v=73
319156 Par ch=1 c=64 v=0
319176 On ch=1 n=d#4 v=76
319184 On ch=1 n=d4 v=0
319186 On ch=1 n=c5 v=79
319192 On ch=1 n=b4 v=0
319236 On ch=1 n=e4 v=83
319238 On ch=1 n=d#4 v=0
319240 On ch=1 n=c#5 v=80
319252 Par ch=1 c=64 v=127
319266 On ch=1 n=c5 v=0
319288 On ch=1 n=a#4 v=87
319292 On ch=1 n=c#4 v=36
319300 On ch=1 n=e4 v=0
319302 On ch=1 n=c#5 v=0
319326 On ch=1 n=c#4 v=0
319334 On ch=1 n=a#4 v=0
319344 On ch=1 n=a4 v=83
319354 Par ch=1 c=64 v=0
319370 On ch=1 n=f4 v=81
319370 On ch=1 n=f3 v=61
319378 On ch=1 n=g3 v=67
319398 On ch=1 n=a#4 v=66
319424 On ch=1 n=f4 v=0
319434 On ch=1 n=g3 v=0
319434 On ch=1 n=a4 v=0
319460 On ch=1 n=b4 v=65
319480 On ch=1 n=a#4 v=0
319514 On ch=1 n=e4 v=74
319522 On ch=1 n=b4 v=0
319522 On ch=1 n=c5 v=36
319522 On ch=1 n=c#4 v=67
319574 On ch=1 n=c#5 v=86
319592 On ch=1 n=c5 v=0
319622 On ch=1 n=c#4 v=0
319622 On ch=1 n=e4 v=0
319626 On ch=1 n=a#4 v=67
319636 On ch=1 n=c#5 v=0
319670 On ch=1 n=a#4 v=0
319678 On ch=1 n=a4 v=73
319694 On ch=1 n=c4 v=67
319698 On ch=1 n=f4 v=67
319728 On ch=1 n=a#4 v=48
319766 On ch=1 n=b4 v=58
319774 On ch=1 n=a4 v=0
319784 On ch=1 n=f4 v=0
319790 On ch=1 n=c4 v=0
319804 On ch=1 n=a#4 v=0
319846 On ch=1 n=b4 v=0
319852 On ch=1 n=c5 v=53
319866 On ch=1 n=e4 v=57
319872 On ch=1 n=c#4 v=57
319902 On ch=1 n=c#5 v=75
319922 On ch=1 n=c5 v=0
319944 On ch=1 n=e4 v=0
319952 On ch=1 n=c#4 v=0
319962 On ch=1 n=a#4 v=55
319972 On ch=1 n=c#5 v=0
320016 On ch=1 n=a#4 v=0
320024 On ch=1 n=a4 v=67
320036 On ch=1 n=f4 v=46
320036 On ch=1 n=c4 v=56
320076 On ch=1 n=a#4 v=49
320114 On ch=1 n=f4 v=0
320126 On ch=1 n=a4 v=0
320132 On ch=1 n=b4 v=64
320140 On ch=1 n=c4 v=0
320174 On ch=1 n=a#4 v=0
320212 On ch=1 n=c5 v=61
320214 On ch=1 n=e4 v=46
320218 On ch=1 n=b4 v=0
320222 On ch=1 n=c#4 v=66
320250 Par ch=1 c=64 v=127
320282 On ch=1 n=c#5 v=74
320292 On ch=1 n=c#4 v=0
320298 On ch=1 n=c5 v=0
320338 On ch=1 n=a#4 v=79
320358 On ch=1 n=c#5 v=0
320360 On ch=1 n=e4 v=0
320370 On ch=1 n=f3 v=0
320412 On ch=1 n=a#4 v=0
320424 On ch=1 n=c4 v=48
320432 On ch=1 n=d#4 v=58
320432 On ch=1 n=f3 v=80
320434 On ch=1 n=a4 v=67
320452 Par ch=1 c=64 v=0
320498 On ch=1 n=c5 v=65
320522 Par ch=1 c=64 v=127
320534 On ch=1 n=a4 v=0
320566 On ch=1 n=d#5 v=61
320582 On ch=1 n=c5 v=0
320616 On ch=1 n=d#5 v=0
320640 On ch=1 n=f5 v=79
320672 On ch=1 n=d#4 v=0
320690 On ch=1 n=c4 v=0
320700 On ch=1 n=c6 v=68
320702 On ch=1 n=f3 v=0
320718 On ch=1 n=f5 v=0
320774 On ch=1 n=g#5 v=56
320784 On ch=1 n=c6 v=0
320826 On ch=1 n=g5 v=55
320882 On ch=1 n=f#5 v=55
320926 On ch=1 n=g#5 v=0
320938 On ch=1 n=f5 v=55
320962 Par ch=1 c=64 v=0
320978 On ch=1 n=g5 v=0
320994 On ch=1 n=e5 v=54
321034 On ch=1 n=f#5 v=0
321054 On ch=1 n=d#5 v=53
321090 On ch=1 n=f5 v=0
321114 On ch=1 n=d5 v=53
321146 On ch=1 n=e5 v=0
321162 On ch=1 n=c#5 v=52
321206 On ch=1 n=d#5 v=0
321228 On ch=1 n=c5 v=51
321266 On ch=1 n=d5 v=0
321278 On ch=1 n=b4 v=51
321314 On ch=1 n=c#5 v=0
321338 On ch=1 n=c5 v=0
321340 On ch=1 n=a#4 v=50
321402 On ch=1 n=a4 v=49
321430 On ch=1 n=b4 v=0
321460 On ch=1 n=g#4 v=49
321492 On ch=1 n=a#4 v=0
321524 On ch=1 n=g4 v=49
321554 On ch=1 n=a4 v=0
321574 On ch=1 n=f#4 v=48
321612 On ch=1 n=g#4 v=0
321642 On ch=1 n=f4 v=47
321676 On ch=1 n=g4 v=0
321698 On ch=1 n=e4 v=47
321726 On ch=1 n=f#4 v=0
321764 On ch=1 n=d#4 v=46
321794 On ch=1 n=f4 v=0
321832 On ch=1 n=d4 v=45
321850 On ch=1 n=e4 v=0
321888 On ch=1 n=c#4 v=45
321916 On ch=1 n=d#4 v=0
321952 On ch=1 n=c4 v=44
321984 On ch=1 n=d4 v=0
322020 On ch=1 n=b3 v=43
322040 On ch=1 n=c#4 v=0
322072 On ch=1 n=a#3 v=43
322104 On ch=1 n=c4 v=0
322150 On ch=1 n=a3 v=42
322172 On ch=1 n=b3 v=0
322218 On ch=1 n=g#3 v=42
322224 On ch=1 n=a#3 v=0
322288 On ch=1 n=g3 v=41
322302 On ch=1 n=a3 v=0
322346 On ch=1 n=f#3 v=40
322370 On ch=1 n=g#3 v=0
322428 On ch=1 n=f3 v=39
322440 On ch=1 n=g3 v=0
322498 On ch=1 n=f#3 v=0
322514 On ch=1 n=e3 v=38
322580 On ch=1 n=f3 v=0
322582 On ch=1 n=d#3 v=37
322666 On ch=1 n=e3 v=0
322680 On ch=1 n=d3 v=36
322696 On ch=1 n=d#3 v=0
322748 On ch=1 n=c#3 v=50
322800 Par ch=1 c=64 v=127
322832 On ch=1 n=d3 v=0
322868 On ch=1 n=g#3 v=43
322938 On ch=1 n=a#3 v=43
322954 On ch=1 n=g#3 v=0
322954 On ch=1 n=c#3 v=0
323002 On ch=1 n=c4 v=43
323004 On ch=1 n=a#3 v=0
323068 On ch=1 n=c#4 v=43
323074 On ch=1 n=c4 v=0
323132 On ch=1 n=d#4 v=43
323150 On ch=1 n=c#4 v=0
323202 On ch=1 n=d#4 v=0
323202 On ch=1 n=f4 v=43
323214 On ch=1 n=g#5 v=49
323222 On ch=1 n=f5 v=51
323224 On ch=1 n=f6 v=62
323260 On ch=1 n=f5 v=0
323270 On ch=1 n=f#4 v=43
323272 On ch=1 n=g#5 v=0
323278 On ch=1 n=f4 v=0
323282 On ch=1 n=f6 v=0
323344 On ch=1 n=g#4 v=43
323352 On ch=1 n=f#4 v=0
323428 On ch=1 n=g#4 v=0
323428 On ch=1 n=a#4 v=43
323434 On ch=1 n=g#5 v=51
323440 On ch=1 n=f6 v=62
323440 On ch=1 n=f5 v=55
323488 On ch=1 n=a#4 v=0
323502 On ch=1 n=g#4 v=43
323570 On ch=1 n=a#4 v=43
323598 On ch=1 n=g#4 v=0
323630 On ch=1 n=f5 v=0
323646 On ch=1 n=c5 v=43
323650 On ch=1 n=a#4 v=0
323676 On ch=1 n=g#5 v=0
323694 On ch=1 n=f6 v=0
323718 On ch=1 n=c#5 v=43
323732 On ch=1 n=c5 v=0
323770 Par ch=1 c=64 v=0
323790 On ch=1 n=d#5 v=43
323814 On ch=1 n=c#5 v=0
323854 Par ch=1 c=64 v=127
323860 On ch=1 n=d#5 v=0
323868 On ch=1 n=f5 v=64
324018 On ch=1 n=f5 v=0
324086 On ch=1 n=c#6 v=70
324088 On ch=1 n=f5 v=59
324094 On ch=1 n=c#3 v=53
324100 Par ch=1 c=64 v=0
324116 Par ch=1 c=64 v=127
324156 On ch=1 n=g#3 v=43
324208 On ch=1 n=c#6 v=0
324214 On ch=1 n=a#3 v=43
324230 On ch=1 n=g#3 v=0
324274 On ch=1 n=a#3 v=0
324274 On ch=1 n=c4 v=43
324278 On ch=1 n=f5 v=0
324316 On ch=1 n=c#3 v=0
324332 On ch=1 n=c4 v=0
324338 On ch=1 n=c#4 v=43
324400 On ch=1 n=d#4 v=43
324420 On ch=1 n=c#4 v=0
324470 On ch=1 n=a#5 v=64
324476 On ch=1 n=f4 v=43
324480 On ch=1 n=d#4 v=0
324486 On ch=1 n=c5 v=43
324524 On ch=1 n=c5 v=0
324536 On ch=1 n=f#4 v=43
324550 On ch=1 n=f4 v=0
324550 On ch=1 n=a#5 v=0
324604 On ch=1 n=g#4 v=43
324614 On ch=1 n=f#4 v=0
324674 On ch=1 n=a#4 v=43
324678 On ch=1 n=f#5 v=49
324684 On ch=1 n=a#5 v=68
324688 On ch=1 n=g#4 v=0
324688 On ch=1 n=c5 v=43
324700 Par ch=1 c=64 v=0
324730 On ch=1 n=c5 v=0
324736 On ch=1 n=a#4 v=0
324740 On ch=1 n=g#4 v=43
324740 Par ch=1 c=64 v=127
324788 On ch=1 n=a#4 v=43
324812 On ch=1 n=g#4 v=0
324836 On ch=1 n=a#4 v=0
324848 On ch=1 n=c5 v=43
324880 On ch=1 n=f#5 v=0
324916 On ch=1 n=c#5 v=43
324926 On ch=1 n=c5 v=0
324962 On ch=1 n=d#5 v=34
324980 On ch=1 n=c#5 v=0
325010 On ch=1 n=f5 v=53
325016 On ch=1 n=d#5 v=0
325076 On ch=1 n=g#5 v=81
325076 On ch=1 n=f#5 v=61
325092 On ch=1 n=a#5 v=0
325102 On ch=1 n=f5 v=0
325220 On ch=1 n=g#5 v=0
325226 On ch=1 n=f#5 v=0
325274 On ch=1 n=c#3 v=54
325282 On ch=1 n=g#5 v=72
325282 On ch=1 n=f#5 v=42
325296 Par ch=1 c=64 v=0
325352 On ch=1 n=g#3 v=43
325356 Par ch=1 c=64 v=127
325410 On ch=1 n=a#3 v=43
325428 On ch=1 n=g#3 v=0
325476 On ch=1 n=a#3 v=0
325476 On ch=1 n=f#5 v=0
325478 On ch=1 n=c4 v=43
325484 On ch=1 n=g#5 v=0
325484 On ch=1 n=c#3 v=0
325488 On ch=1 n=f5 v=63
325532 On ch=1 n=f5 v=0
325544 On ch=1 n=c#4 v=43
325556 On ch=1 n=c4 v=0
325614 On ch=1 n=d#4 v=43
325638 On ch=1 n=c#4 v=0
325644 On ch=1 n=d#5 v=34
325668 On ch=1 n=g#5 v=65
325688 On ch=1 n=d#4 v=0
325690 On ch=1 n=f4 v=43
325704 On ch=1 n=d#5 v=0
325704 On ch=1 n=f6 v=79
325728 On ch=1 n=g#5 v=0
325750 On ch=1 n=f6 v=0
325758 On ch=1 n=f4 v=0
325760 On ch=1 n=f#4 v=43
325804 On ch=1 n=g#4 v=43
325814 On ch=1 n=f#4 v=0
325874 On ch=1 n=a#4 v=43
325896 Par ch=1 c=64 v=0
325902 On ch=1 n=g#4 v=0
325910 On ch=1 n=c#6 v=85
325910 On ch=1 n=g#5 v=67
325964 Par ch=1 c=64 v=127
325968 On ch=1 n=g#4 v=43
325972 On ch=1 n=a#4 v=0
326014 On ch=1 n=g#5 v=0
326022 On ch=1 n=a#4 v=43
326052 On ch=1 n=c#6 v=0
326054 On ch=1 n=g#4 v=0
326090 On ch=1 n=b4 v=43
326092 On ch=1 n=a#4 v=0
326144 On ch=1 n=b4 v=0
326160 On ch=1 n=c#5 v=44
326226 On ch=1 n=d#5 v=44
326252 On ch=1 n=c#5 v=0
326302 On ch=1 n=a#6 v=80
326306 On ch=1 n=d#5 v=0
326306 On ch=1 n=f5 v=61
326316 On ch=1 n=c#6 v=78
326316 On ch=1 n=b5 v=64
326332 On ch=1 n=f5 v=0
326346 On ch=1 n=b5 v=0
326354 On ch=1 n=c#6 v=0
326392 On ch=1 n=a#6 v=0
326544 On ch=1 n=a#6 v=62
326556 On ch=1 n=c#6 v=66
326556 On ch=1 n=b5 v=53
326562 On ch=1 n=c#3 v=83
326570 Par ch=1 c=64 v=0
326616 Par ch=1 c=64 v=127
326642 On ch=1 n=g#3 v=51
326724 On ch=1 n=c#6 v=0
326734 On ch=1 n=b5 v=0
326736 On ch=1 n=c#4 v=51
326740 On ch=1 n=g#3 v=0
326794 On ch=1 n=c#4 v=0
326802 On ch=1 n=a#6 v=0
326808 On ch=1 n=g#6 v=61
326810 On ch=1 n=c#3 v=0
326816 On ch=1 n=c#6 v=70
326818 On ch=1 n=b5 v=61
326888 On ch=1 n=g#6 v=0
326892 On ch=1 n=c#6 v=0
326894 On ch=1 n=g#4 v=51
326914 On ch=1 n=b5 v=0
326972 On ch=1 n=g#4 v=0
326976 On ch=1 n=c#5 v=51
327030 On ch=1 n=c#5 v=0
327044 On ch=1 n=c#6 v=73
327044 On ch=1 n=b5 v=69
327048 On ch=1 n=g6 v=67
327052 On ch=1 n=g#4 v=51
327120 On ch=1 n=f5 v=51
327132 On ch=1 n=g#4 v=0
327174 On ch=1 n=b5 v=0
327178 On ch=1 n=c#6 v=0
327196 On ch=1 n=c#5 v=51
327210 On ch=1 n=g6 v=0
327228 On ch=1 n=f5 v=0
327254 On ch=1 n=g#4 v=51
327262 On ch=1 n=c#5 v=0
327278 On ch=1 n=c#6 v=70
327280 On ch=1 n=g#6 v=67
327288 On ch=1 n=b5 v=65
327350 On ch=1 n=g#5 v=51
327356 On ch=1 n=g#4 v=0
327420 On ch=1 n=f5 v=51
327452 On ch=1 n=g#5 v=0
327512 On ch=1 n=f5 v=0
327514 On ch=1 n=c#5 v=52
327582 On ch=1 n=g#4 v=52
327634 On ch=1 n=c#5 v=0
327658 On ch=1 n=b5 v=0
327662 On ch=1 n=f4 v=52
327694 On ch=1 n=g#4 v=0
327694 On ch=1 n=c#6 v=0
327698 On ch=1 n=g#6 v=0
327732 On ch=1 n=f4 v=0
327738 On ch=1 n=c#4 v=52
327808 On ch=1 n=c#4 v=0
327814 On ch=1 n=g#3 v=52
327898 On ch=1 n=g#4 v=52
327908 On ch=1 n=g#3 v=0
327924 On ch=1 n=f5 v=52
327958 On ch=1 n=f5 v=0
327960 On ch=1 n=g#4 v=0
327982 On ch=1 n=f5 v=52
328032 On ch=1 n=b5 v=79
328066 On ch=1 n=c#3 v=75
328074 On ch=1 n=g#6 v=86
328090 Par ch=1 c=64 v=0
328126 Par ch=1 c=64 v=127
328162 On ch=1 n=c#3 v=0
328162 On ch=1 n=g#3 v=52
328228 On ch=1 n=g#3 v=0
328242 On ch=1 n=c#4 v=52
328284 On ch=1 n=b5 v=0
328312 On ch=1 n=c#4 v=0
328312 On ch=1 n=g#4 v=52
328324 On ch=1 n=f5 v=0
328386 On ch=1 n=c#4 v=53
328402 On ch=1 n=g#6 v=0
328420 On ch=1 n=g#4 v=0
328448 On ch=1 n=c#4 v=0
328466 On ch=1 n=g#3 v=53
328550 On ch=1 n=g#3 v=0
328558 On ch=1 n=c#6 v=86
328558 On ch=1 n=c#4 v=53
328562 On ch=1 n=b5 v=82
328566 On ch=1 n=f5 v=53
328608 On ch=1 n=c#4 v=0
328616 On ch=1 n=b5 v=0
328632 On ch=1 n=g#4 v=53
328640 On ch=1 n=f5 v=0
328664 On ch=1 n=c#6 v=0
328708 On ch=1 n=c#5 v=53
328732 On ch=1 n=g#4 v=0
328760 On ch=1 n=b5 v=82
328760 On ch=1 n=f5 v=53
328770 On ch=1 n=c#6 v=78
328776 On ch=1 n=c#5 v=0
328776 On ch=1 n=g#4 v=53
328828 On ch=1 n=f5 v=0
328832 On ch=1 n=c#4 v=53
328850 On ch=1 n=g#4 v=0
328910 On ch=1 n=g#4 v=53
328920 On ch=1 n=b5 v=0
328924 On ch=1 n=c#4 v=0
328978 On ch=1 n=g#4 v=0
328988 On ch=1 n=c#5 v=53
329008 On ch=1 n=c#6 v=0
329068 On ch=1 n=g#5 v=53
329078 On ch=1 n=c#5 v=0
329152 On ch=1 n=c#5 v=53
329220 On ch=1 n=g#4 v=53
329230 On ch=1 n=c#5 v=0
329274 On ch=1 n=g#4 v=0
329282 On ch=1 n=c#4 v=54
329300 On ch=1 n=c#6 v=10
329358 On ch=1 n=c#4 v=0
329358 On ch=1 n=g#4 v=54
329404 On ch=1 n=g#4 v=0
329416 On ch=1 n=c#5 v=54
329488 On ch=1 n=g#4 v=54
329494 On ch=1 n=c#5 v=0
329542 On ch=1 n=g#4 v=0
329560 On ch=1 n=c#4 v=54
329576 On ch=1 n=c#4 v=54
329586 On ch=1 n=c#4 v=0
329620 On ch=1 n=c#4 v=0
329624 On ch=1 n=g#3 v=54
329686 On ch=1 n=g#3 v=0
329728 On ch=1 n=c#4 v=54
329768 On ch=1 n=g#4 v=54
329784 On ch=1 n=g#4 v=54
329806 On ch=1 n=c#4 v=0
329844 On ch=1 n=g#4 v=0
329870 On ch=1 n=g#4 v=0
329880 On ch=1 n=c#4 v=54
329928 On ch=1 n=g#5 v=0
329932 On ch=1 n=c#6 v=0
329944 On ch=1 n=c#4 v=0
329954 On ch=1 n=g#3 v=54
330044 On ch=1 n=c#3 v=54
330056 On ch=1 n=g#3 v=0
330136 On ch=1 n=b5 v=77
330136 On ch=1 n=f#2 v=92
330140 On ch=1 n=c#6 v=91
330140 On ch=1 n=f#5 v=46
330158 On ch=1 n=c#3 v=0
330162 Par ch=1 c=64 v=0
330198 Par ch=1 c=64 v=127
330236 On ch=1 n=f#2 v=0
330338 On ch=1 n=c#4 v=55
330426 On ch=1 n=c#5 v=55
330430 On ch=1 n=c#4 v=0
330446 On ch=1 n=b5 v=0
330494 On ch=1 n=f#4 v=55
330508 On ch=1 n=c#5 v=0
330508 On ch=1 n=c#6 v=0
330568 On ch=1 n=c#4 v=55
330576 On ch=1 n=f#4 v=0
330606 On ch=1 n=f#5 v=0
330654 On ch=1 n=f#6 v=84
330656 On ch=1 n=a#5 v=68
330656 On ch=1 n=f#5 v=55
330660 On ch=1 n=a#4 v=55
330668 On ch=1 n=c#4 v=0
330728 On ch=1 n=f#4 v=55
330752 On ch=1 n=a#4 v=0
330796 On ch=1 n=f#4 v=0
330824 On ch=1 n=f#6 v=0
330826 On ch=1 n=f#5 v=0
330826 On ch=1 n=a#5 v=0
330840 On ch=1 n=c#4 v=55
330960 On ch=1 n=c#4 v=0
330984 On ch=1 n=d#3 v=79
330984 Par ch=1 c=64 v=0
331010 On ch=1 n=f#6 v=68
331036 Par ch=1 c=64 v=127
331106 On ch=1 n=f#5 v=55
331120 On ch=1 n=a#3 v=55
331132 On ch=1 n=d#3 v=0
331154 On ch=1 n=f#5 v=0
331188 On ch=1 n=a#5 v=55
331234 On ch=1 n=a#3 v=0
331240 On ch=1 n=d#4 v=55
331246 On ch=1 n=f#6 v=0
331262 On ch=1 n=a#4 v=55
331284 On ch=1 n=a#5 v=0
331342 On ch=1 n=a#5 v=55
331370 On ch=1 n=d#4 v=0
331394 On ch=1 n=f#4 v=55
331416 On ch=1 n=d#5 v=55
331418 On ch=1 n=a#4 v=0
331476 On ch=1 n=d#4 v=55
331486 On ch=1 n=f#5 v=55
331498 On ch=1 n=f#4 v=0
331500 On ch=1 n=d#5 v=0
331550 On ch=1 n=a#4 v=55
331552 On ch=1 n=f#5 v=0
331578 On ch=1 n=a#5 v=0
331614 On ch=1 n=d#4 v=0
331626 On ch=1 n=a#3 v=55
331634 On ch=1 n=c6 v=73
331660 On ch=1 n=a#4 v=0
331710 On ch=1 n=f#5 v=55
331724 On ch=1 n=d#3 v=80
331726 On ch=1 n=a#3 v=0
331732 Par ch=1 c=64 v=0
331790 Par ch=1 c=64 v=127
331796 On ch=1 n=a#5 v=55
331814 On ch=1 n=f#5 v=0
331820 On ch=1 n=a#3 v=55
331834 On ch=1 n=d#3 v=0
331870 On ch=1 n=c6 v=0
331878 On ch=1 n=c#5 v=55
331900 On ch=1 n=a#5 v=0
331928 On ch=1 n=d#4 v=56
331946 On ch=1 n=c#6 v=73
331960 On ch=1 n=a#3 v=0
332002 On ch=1 n=f#5 v=56
332028 On ch=1 n=c#5 v=0
332074 On ch=1 n=d#4 v=0
332078 On ch=1 n=a#5 v=56
332090 On ch=1 n=a#4 v=56
332096 On ch=1 n=f#5 v=0
332144 On ch=1 n=a#5 v=0
332150 On ch=1 n=f#5 v=56
332182 On ch=1 n=c#6 v=0
332192 On ch=1 n=d#4 v=56
332206 On ch=1 n=f#6 v=76
332230 On ch=1 n=a#4 v=0
332260 On ch=1 n=d#4 v=0
332276 On ch=1 n=a#3 v=56
332278 On ch=1 n=a#5 v=56
332308 On ch=1 n=f#5 v=0
332346 On ch=1 n=a#3 v=0
332346 On ch=1 n=c#6 v=73
332364 On ch=1 n=g#3 v=81
332388 On ch=1 n=a#5 v=0
332402 Par ch=1 c=64 v=0
332408 On ch=1 n=f#5 v=56
332442 On ch=1 n=f#6 v=0
332444 On ch=1 n=c#6 v=0
332456 Par ch=1 c=64 v=127
332472 On ch=1 n=d#4 v=56
332492 On ch=1 n=g#3 v=0
332512 On ch=1 n=f6 v=67
332566 On ch=1 n=f#4 v=56
332574 On ch=1 n=a#5 v=56
332576 On ch=1 n=d#4 v=0
332620 On ch=1 n=f#5 v=0
332650 On ch=1 n=c#6 v=71
332696 On ch=1 n=a#5 v=0
332696 On ch=1 n=f#4 v=0
332700 On ch=1 n=c#5 v=56
332716 On ch=1 n=f#5 v=56
332748 On ch=1 n=f6 v=0
332752 On ch=1 n=c#6 v=0
332800 On ch=1 n=f6 v=72
332806 On ch=1 n=f#4 v=57
332828 On ch=1 n=c#5 v=0
332878 On ch=1 n=a#5 v=57
332928 On ch=1 n=d#4 v=57
332940 On ch=1 n=f#4 v=0
332952 On ch=1 n=f#5 v=0
332964 On ch=1 n=c#6 v=74
332968 Par ch=1 c=64 v=0
332998 On ch=1 n=g#3 v=83
333014 On ch=1 n=a#5 v=0
333030 Par ch=1 c=64 v=127
333036 On ch=1 n=f6 v=0
333042 On ch=1 n=d#4 v=0
333042 On ch=1 n=f#5 v=57
333058 On ch=1 n=c#6 v=0
333114 On ch=1 n=d#4 v=57
333124 On ch=1 n=d#6 v=76
333136 On ch=1 n=g#3 v=0
333186 On ch=1 n=g#5 v=57
333198 On ch=1 n=f#4 v=57
333228 On ch=1 n=d#4 v=0
333232 On ch=1 n=f#5 v=0
333264 On ch=1 n=c6 v=74
333294 On ch=1 n=g#5 v=0
333300 On ch=1 n=c5 v=57
333306 On ch=1 n=f#4 v=0
333330 On ch=1 n=f#5 v=57
333336 On ch=1 n=c6 v=0
333360 On ch=1 n=d#6 v=0
333380 On ch=1 n=f#4 v=57
333402 On ch=1 n=c5 v=0
333406 On ch=1 n=c6 v=82
333428 On ch=1 n=f#5 v=0
333450 On ch=1 n=f#4 v=0
333466 On ch=1 n=f#5 v=57
333480 On ch=1 n=d#4 v=57
333520 On ch=1 n=a#5 v=71
333542 On ch=1 n=f#5 v=0
333556 On ch=1 n=d#4 v=0
333578 On ch=1 n=c5 v=57
333586 On ch=1 n=a#5 v=0
333642 On ch=1 n=c6 v=0
333654 Par ch=1 c=64 v=0
333658 On ch=1 n=a#5 v=86
333662 On ch=1 n=a#4 v=54
333672 On ch=1 n=f5 v=67
333682 On ch=1 n=c5 v=0
333684 On ch=1 n=c#3 v=85
333722 Par ch=1 c=64 v=127
333760 On ch=1 n=g#3 v=55
333788 On ch=1 n=a#4 v=0
333792 On ch=1 n=f5 v=0
333816 On ch=1 n=a#3 v=55
333838 On ch=1 n=g#3 v=0
333848 On ch=1 n=a#5 v=0
333872 On ch=1 n=c4 v=55
333876 On ch=1 n=a#3 v=0
333886 On ch=1 n=g#4 v=55
333896 On ch=1 n=g#5 v=79
333922 On ch=1 n=c#3 v=0
333924 On ch=1 n=c#4 v=47
333942 On ch=1 n=c4 v=0
334000 On ch=1 n=d#4 v=47
334038 On ch=1 n=c#4 v=0
334082 On ch=1 n=f4 v=62
334084 On ch=1 n=d#4 v=0
334088 On ch=1 n=g#6 v=58
334090 On ch=1 n=g#4 v=0
334094 On ch=1 n=f7 v=71
334100 On ch=1 n=g#5 v=0
334100 On ch=1 n=f6 v=58
334136 On ch=1 n=f6 v=0
334138 On ch=1 n=f#4 v=56
334148 On ch=1 n=g#6 v=0
334152 On ch=1 n=f7 v=0
334152 On ch=1 n=f4 v=0
334196 On ch=1 n=g#4 v=69
334214 On ch=1 n=f#4 v=0
334266 Par ch=1 c=64 v=0
334280 On ch=1 n=g#6 v=65
334280 On ch=1 n=a#4 v=70
334288 On ch=1 n=f6 v=60
334290 On ch=1 n=f7 v=69
334294 On ch=1 n=g#4 v=0
334326 Par ch=1 c=64 v=127
334348 On ch=1 n=a#4 v=0
334350 On ch=1 n=g#4 v=74
334408 On ch=1 n=f7 v=0
334414 On ch=1 n=a#4 v=38
334442 On ch=1 n=g#4 v=0
334446 On ch=1 n=g#6 v=0
334470 On ch=1 n=c5 v=62
334474 On ch=1 n=a#4 v=0
334478 On ch=1 n=f6 v=0
334518 On ch=1 n=c#5 v=61
334532 On ch=1 n=c5 v=0
334578 On ch=1 n=d#5 v=56
334612 On ch=1 n=c#5 v=0
334652 On ch=1 n=g#6 v=68
334656 On ch=1 n=d#5 v=0
334656 On ch=1 n=c#7 v=73
334656 On ch=1 n=f5 v=67
334662 On ch=1 n=c#6 v=59
334718 On ch=1 n=g#6 v=0
334722 On ch=1 n=c#7 v=0
334724 On ch=1 n=c#6 v=0
334754 On ch=1 n=f5 v=0
334844 Par ch=1 c=64 v=0
334864 On ch=1 n=c#7 v=73
334868 On ch=1 n=f6 v=69
334868 On ch=1 n=c#3 v=85
334874 On ch=1 n=c#6 v=62
334892 Par ch=1 c=64 v=127
334906 On ch=1 n=f6 v=0
334906 On ch=1 n=c#7 v=0
334906 On ch=1 n=g#3 v=56
334914 On ch=1 n=c#6 v=0
334972 On ch=1 n=a#3 v=62
335010 On ch=1 n=g#3 v=0
335040 On ch=1 n=c4 v=62
335046 On ch=1 n=a#3 v=0
335082 On ch=1 n=f5 v=64
335104 On ch=1 n=c#4 v=64
335106 On ch=1 n=c#3 v=0
335116 On ch=1 n=c4 v=0
335158 On ch=1 n=f5 v=0
335168 On ch=1 n=d#4 v=61
335188 On ch=1 n=c#4 v=0
335240 On ch=1 n=f4 v=58
335244 On ch=1 n=d#4 v=0
335256 On ch=1 n=a#6 v=68
335256 On ch=1 n=c#6 v=58
335294 On ch=1 n=f#4 v=52
335308 On ch=1 n=f4 v=0
335312 On ch=1 n=a#6 v=0
335316 On ch=1 n=c#6 v=0
335362 On ch=1 n=g#4 v=65
335388 On ch=1 n=f#4 v=0
335430 On ch=1 n=a#4 v=71
335436 Par ch=1 c=64 v=0
335440 On ch=1 n=f#6 v=70
335442 On ch=1 n=a#6 v=71
335450 On ch=1 n=c6 v=86
335452 On ch=1 n=g#4 v=0
335492 Par ch=1 c=64 v=127
335504 On ch=1 n=g#4 v=82
335506 On ch=1 n=a#4 v=0
335538 On ch=1 n=c6 v=0
335568 On ch=1 n=f#6 v=0
335586 On ch=1 n=c5 v=64
335590 On ch=1 n=g#4 v=0
335592 On ch=1 n=a#5 v=60
335604 On ch=1 n=a#6 v=0
335640 On ch=1 n=c#5 v=67
335666 On ch=1 n=c5 v=0
335678 On ch=1 n=d#5 v=73
335686 On ch=1 n=a#5 v=0
335718 On ch=1 n=c#5 v=0
335764 On ch=1 n=f5 v=69
335778 On ch=1 n=d#5 v=0
335836 On ch=1 n=g#6 v=70
335840 On ch=1 n=d#6 v=73
335844 On ch=1 n=g#5 v=68
335850 On ch=1 n=f#5 v=87
335856 On ch=1 n=f5 v=0
335920 On ch=1 n=g#6 v=0
335932 On ch=1 n=f#5 v=0
335976 On ch=1 n=d#6 v=0
336014 On ch=1 n=g#5 v=0
336040 Par ch=1 c=64 v=0
336052 On ch=1 n=g#5 v=62
336060 On ch=1 n=g#6 v=70
336060 On ch=1 n=f6 v=68
336060 On ch=1 n=c#3 v=85
336066 On ch=1 n=d#6 v=84
336102 Par ch=1 c=64 v=127
336126 On ch=1 n=g#6 v=0
336130 On ch=1 n=g#3 v=62
336146 On ch=1 n=d#6 v=0
336200 On ch=1 n=a#3 v=71
336216 On ch=1 n=f6 v=0
336240 On ch=1 n=g#3 v=0
336248 On ch=1 n=c#6 v=91
336254 On ch=1 n=g#5 v=0
336264 On ch=1 n=c4 v=73
336272 On ch=1 n=a#3 v=0
336298 On ch=1 n=c#3 v=0
336310 On ch=1 n=c4 v=0
336312 On ch=1 n=c#4 v=58
336332 On ch=1 n=d#4 v=61
336336 On ch=1 n=c#6 v=0
336372 On ch=1 n=c#4 v=0
336448 On ch=1 n=f4 v=41
336456 On ch=1 n=g#6 v=58
336458 On ch=1 n=f7 v=71
336458 On ch=1 n=f6 v=67
336464 On ch=1 n=d#4 v=0
336526 On ch=1 n=f#4 v=67
336530 On ch=1 n=f7 v=0
336530 On ch=1 n=g#6 v=0
336536 On ch=1 n=f4 v=0
336538 On ch=1 n=f6 v=0
336578 On ch=1 n=g#4 v=73
336590 On ch=1 n=f#4 v=0
336616 On ch=1 n=a#4 v=76
336632 On ch=1 n=g#4 v=0
336664 On ch=1 n=c#7 v=67
336664 On ch=1 n=g#6 v=71
336664 On ch=1 n=c#6 v=73
336702 On ch=1 n=g#4 v=77
336710 On ch=1 n=a#4 v=0
336724 On ch=1 n=g#6 v=0
336734 On ch=1 n=c#6 v=0
336740 On ch=1 n=c#7 v=0
336768 On ch=1 n=a#4 v=39
336794 On ch=1 n=g#4 v=0
336808 On ch=1 n=c5 v=57
336828 On ch=1 n=a#4 v=0
336870 On ch=1 n=c#5 v=62
336872 On ch=1 n=c5 v=0
336930 On ch=1 n=d#5 v=62
336958 On ch=1 n=c#5 v=0
336996 On ch=1 n=e5 v=73
337000 On ch=1 n=c#7 v=67
337004 On ch=1 n=g6 v=65
337008 On ch=1 n=d#5 v=0
337052 On ch=1 n=g6 v=0
337056 On ch=1 n=c#7 v=0
337066 On ch=1 n=a#7 v=87
337102 On ch=1 n=e5 v=0
337192 On ch=1 n=a#7 v=0
337240 On ch=1 n=c3 v=92
337248 On ch=1 n=a#7 v=92
337248 On ch=1 n=d#7 v=77
337248 On ch=1 n=c2 v=92
337252 On ch=1 n=a#6 v=65
337256 Par ch=1 c=64 v=0
337314 Par ch=1 c=64 v=127
337430 On ch=1 n=a#7 v=0
337456 On ch=1 n=a#6 v=0
337458 On ch=1 n=c4 v=62
337466 On ch=1 n=d#7 v=0
337504 On ch=1 n=g#7 v=67
337512 On ch=1 n=d#7 v=71
337512 On ch=1 n=g#6 v=74
337526 On ch=1 n=d#4 v=83
337544 On ch=1 n=c4 v=0
337580 On ch=1 n=g#4 v=74
337594 On ch=1 n=d#4 v=0
337630 On ch=1 n=g#6 v=0
337632 On ch=1 n=g#7 v=0
337642 On ch=1 n=d#7 v=0
337646 On ch=1 n=g#4 v=0
337662 On ch=1 n=d#4 v=82
337700 On ch=1 n=g7 v=55
337704 On ch=1 n=d#7 v=58
337714 On ch=1 n=g6 v=64
337718 On ch=1 n=c3 v=0
337726 On ch=1 n=c2 v=0
337728 On ch=1 n=g#4 v=55
337740 On ch=1 n=d#4 v=0
337768 On ch=1 n=c5 v=64
337782 On ch=1 n=g6 v=0
337822 On ch=1 n=g#4 v=0
337824 On ch=1 n=d#7 v=0
337836 On ch=1 n=d#5 v=76
337884 On ch=1 n=c5 v=0
337920 On ch=1 n=g7 v=0
337926 On ch=1 n=g#7 v=73
337926 On ch=1 n=d#7 v=69
337932 On ch=1 n=g#6 v=73
337990 On ch=1 n=g#5 v=42
338004 On ch=1 n=d#5 v=0
338040 On ch=1 n=d#5 v=85
338082 On ch=1 n=g#5 v=0
338128 On ch=1 n=d#6 v=55
338152 On ch=1 n=d#5 v=0
338168 On ch=1 n=g#5 v=58
338250 On ch=1 n=d#6 v=0
338254 On ch=1 n=d#5 v=67
338272 On ch=1 n=g#7 v=0
338276 On ch=1 n=d#7 v=0
338300 On ch=1 n=g#6 v=0
338302 On ch=1 n=g#5 v=0
338326 On ch=1 n=c5 v=64
338380 On ch=1 n=d#5 v=0
338424 On ch=1 n=g#4 v=58
338470 On ch=1 n=c5 v=0
338486 On ch=1 n=g#6 v=62
338488 On ch=1 n=g#5 v=78
338494 On ch=1 n=d#4 v=74
338496 On ch=1 n=d#6 v=67
338554 On ch=1 n=g#4 v=0
338566 On ch=1 n=c4 v=58
338646 On ch=1 n=d#4 v=0
338662 On ch=1 n=g#3 v=65
338684 On ch=1 n=d#6 v=0
338704 On ch=1 n=g#6 v=0
338724 On ch=1 n=c4 v=0
338730 On ch=1 n=g#5 v=0
338772 On ch=1 n=g#6 v=69
338774 On ch=1 n=c#6 v=64
338792 On ch=1 n=g#5 v=61
338806 Par ch=1 c=64 v=0
338814 On ch=1 n=g#3 v=0
338832 On ch=1 n=b2 v=80
338882 Par ch=1 c=64 v=127
338982 On ch=1 n=b2 v=0
339048 On ch=1 n=f#3 v=39
339104 On ch=1 n=c#6 v=0
339112 On ch=1 n=c#4 v=44
339148 On ch=1 n=g#5 v=0
339188 On ch=1 n=f4 v=45
339208 On ch=1 n=f#3 v=0
339212 On ch=1 n=c#4 v=0
339226 On ch=1 n=g#6 v=0
339248 On ch=1 n=c#5 v=58
339252 On ch=1 n=f4 v=0
339260 On ch=1 n=g#5 v=64
339266 On ch=1 n=c#6 v=60
339324 On ch=1 n=f4 v=53
339328 On ch=1 n=c#5 v=0
339392 On ch=1 n=c#4 v=43
339394 On ch=1 n=c#6 v=0
339400 On ch=1 n=f4 v=0
339420 On ch=1 n=g#5 v=0
339456 On ch=1 n=c#4 v=0
339462 On ch=1 n=a#3 v=67
339468 On ch=1 n=g#5 v=64
339470 On ch=1 n=c#6 v=59
339484 Par ch=1 c=64 v=0
339540 Par ch=1 c=64 v=127
339560 On ch=1 n=c#4 v=44
339612 On ch=1 n=f#4 v=36
339622 On ch=1 n=a#3 v=0
339636 On ch=1 n=c#4 v=0
339658 On ch=1 n=g#5 v=0
339684 On ch=1 n=f#4 v=0
339686 On ch=1 n=g5 v=51
339698 On ch=1 n=d#5 v=63
339774 On ch=1 n=f#4 v=43
339792 On ch=1 n=d#5 v=0
339808 On ch=1 n=g5 v=0
339856 On ch=1 n=c#4 v=24
339862 On ch=1 n=f#4 v=0
339876 On ch=1 n=c#6 v=0
339896 On ch=1 n=c#6 v=33
339902 On ch=1 n=f#5 v=65
339908 On ch=1 n=c#5 v=58
339914 On ch=1 n=f#6 v=44
339940 On ch=1 n=c#4 v=0
339960 On ch=1 n=f#6 v=0
339974 On ch=1 n=f#4 v=39
339990 On ch=1 n=c#6 v=0
339992 On ch=1 n=c#5 v=0
340052 On ch=1 n=f#4 v=0
340068 On ch=1 n=f#5 v=0
340072 On ch=1 n=c#4 v=44
340120 On ch=1 n=c#6 v=49
340130 On ch=1 n=b5 v=51
340130 On ch=1 n=f5 v=35
340142 On ch=1 n=f6 v=50
340142 On ch=1 n=g#3 v=65
340150 On ch=1 n=c#4 v=0
340154 Par ch=1 c=64 v=0
340212 Par ch=1 c=64 v=127
340218 On ch=1 n=c#4 v=44
340282 On ch=1 n=f4 v=44
340302 On ch=1 n=g#3 v=0
340306 On ch=1 n=c#4 v=0
340322 On ch=1 n=b5 v=0
340324 On ch=1 n=f5 v=0
340348 On ch=1 n=f6 v=0
340348 On ch=1 n=c#6 v=0
340362 On ch=1 n=f4 v=0
340368 On ch=1 n=c5 v=58
340430 On ch=1 n=f4 v=49
340452 On ch=1 n=c5 v=0
340512 On ch=1 n=c#4 v=44
340550 On ch=1 n=f4 v=0
340588 On ch=1 n=b5 v=46
340594 On ch=1 n=c#5 v=66
340598 On ch=1 n=c#4 v=0
340600 On ch=1 n=f6 v=51
340600 On ch=1 n=c#6 v=48
340606 On ch=1 n=b6 v=51
340660 On ch=1 n=f4 v=48
340670 On ch=1 n=c#5 v=0
340700 On ch=1 n=b6 v=0
340702 On ch=1 n=f6 v=0
340728 On ch=1 n=c#4 v=51
340734 On ch=1 n=f4 v=0
340738 On ch=1 n=c#6 v=0
340754 On ch=1 n=b5 v=0
340806 On ch=1 n=c#4 v=0
340808 On ch=1 n=f#6 v=54
340814 On ch=1 n=b6 v=56
340814 On ch=1 n=c#6 v=52
340814 On ch=1 n=b5 v=51
340814 On ch=1 n=f#3 v=64
340826 Par ch=1 c=64 v=0
340876 On ch=1 n=c#4 v=44
340888 Par ch=1 c=64 v=127
340952 On ch=1 n=f#4 v=51
340974 On ch=1 n=f#3 v=0
340980 On ch=1 n=c#4 v=0
341022 On ch=1 n=b6 v=0
341036 On ch=1 n=f#4 v=0
341044 On ch=1 n=d#5 v=75
341050 On ch=1 n=b5 v=0
341072 On ch=1 n=f#6 v=0
341074 On ch=1 n=c#6 v=0
341120 On ch=1 n=f#4 v=38
341150 On ch=1 n=d#5 v=0
341192 On ch=1 n=c#4 v=44
341262 On ch=1 n=e5 v=70
341270 On ch=1 n=a#5 v=54
341274 On ch=1 n=f#4 v=0
341274 On ch=1 n=a#6 v=58
341278 On ch=1 n=c#6 v=54
341284 On ch=1 n=c#4 v=0
341332 On ch=1 n=f#4 v=43
341344 On ch=1 n=e5 v=0
341362 On ch=1 n=c#6 v=0
341396 On ch=1 n=a#6 v=0
341400 On ch=1 n=c#4 v=51
341412 On ch=1 n=f#4 v=0
341436 On ch=1 n=a#5 v=0
341488 On ch=1 n=c#4 v=0
341488 On ch=1 n=g3 v=62
341494 On ch=1 n=a#6 v=58
341500 On ch=1 n=c#6 v=58
341500 On ch=1 n=a#5 v=52
341510 On ch=1 n=d#6 v=53
341514 Par ch=1 c=64 v=0
341558 On ch=1 n=c#4 v=44
341574 Par ch=1 c=64 v=127
341592 On ch=1 n=a#6 v=0
341622 On ch=1 n=d#4 v=40
341640 On ch=1 n=d#6 v=0
341648 On ch=1 n=g3 v=0
341658 On ch=1 n=c#4 v=0
341668 On ch=1 n=a#5 v=0
341692 On ch=1 n=c#6 v=0
341696 On ch=1 n=d#4 v=0
341712 On ch=1 n=a4 v=57
341760 On ch=1 n=d#4 v=53
341808 On ch=1 n=a4 v=0
341844 On ch=1 n=c#4 v=48
341866 On ch=1 n=d#4 v=0
341902 On ch=1 n=d#6 v=58
341910 On ch=1 n=a#5 v=58
341910 On ch=1 n=d#5 v=54
341916 On ch=1 n=c#4 v=0
341916 On ch=1 n=c#6 v=51
341916 On ch=1 n=a#4 v=73
341972 On ch=1 n=d#4 v=47
341982 On ch=1 n=a#4 v=0
341988 On ch=1 n=a#5 v=0
342010 On ch=1 n=c#6 v=0
342012 On ch=1 n=d#6 v=0
342016 On ch=1 n=c#4 v=37
342024 On ch=1 n=d#5 v=0
342030 On ch=1 n=d#4 v=0
342058 On ch=1 n=c#4 v=0
342096 Par ch=1 c=64 v=0
342104 On ch=1 n=c6 v=54
342104 On ch=1 n=g#3 v=58
342112 On ch=1 n=d#6 v=58
342112 On ch=1 n=a#5 v=56
342112 On ch=1 n=d#5 v=51
342160 On ch=1 n=d#4 v=31
342160 Par ch=1 c=64 v=127
342190 On ch=1 n=d#5 v=0
342198 On ch=1 n=a#5 v=0
342232 On ch=1 n=g#4 v=52
342264 On ch=1 n=g#3 v=0
342290 On ch=1 n=d#4 v=0
342306 On ch=1 n=g#4 v=0
342328 On ch=1 n=a5 v=58
342330 On ch=1 n=f5 v=52
342344 On ch=1 n=c6 v=0
342348 On ch=1 n=d#6 v=0
342394 On ch=1 n=g#4 v=48
342398 On ch=1 n=a5 v=0
342420 On ch=1 n=f5 v=0
342470 On ch=1 n=d#4 v=56
342486 On ch=1 n=g#4 v=0
342540 On ch=1 n=g#6 v=61
342544 On ch=1 n=d#4 v=0
342544 On ch=1 n=g#5 v=65
342550 On ch=1 n=d#5 v=73
342552 On ch=1 n=d#6 v=51
342600 On ch=1 n=g#4 v=52
342614 On ch=1 n=d#5 v=0
342664 On ch=1 n=d#4 v=43
342672 On ch=1 n=d#6 v=0
342674 On ch=1 n=g#4 v=0
342714 On ch=1 n=g#6 v=0
342716 On ch=1 n=d#4 v=0
342716 On ch=1 n=g#5 v=0
342752 On ch=1 n=a#3 v=64
342754 On ch=1 n=d#6 v=61
342754 On ch=1 n=c#6 v=64
342754 Par ch=1 c=64 v=0
342764 On ch=1 n=g#6 v=64
342764 On ch=1 n=g#5 v=67
342814 On ch=1 n=d#4 v=46
342822 Par ch=1 c=64 v=127
342858 On ch=1 n=g4 v=46
342872 On ch=1 n=d#4 v=0
342888 On ch=1 n=g#6 v=0
342912 On ch=1 n=a#3 v=0
342918 On ch=1 n=g#5 v=0
342926 On ch=1 n=g4 v=0
342960 On ch=1 n=d5 v=41
342964 On ch=1 n=g6 v=56
342972 On ch=1 n=g5 v=58
343002 On ch=1 n=c#6 v=0
343002 On ch=1 n=d#6 v=0
343006 On ch=1 n=g4 v=44
343026 On ch=1 n=g5 v=0
343040 On ch=1 n=d5 v=0
343048 On ch=1 n=g6 v=0
343106 On ch=1 n=d#4 v=22
343114 On ch=1 n=g4 v=0
343176 On ch=1 n=g6 v=51
343182 On ch=1 n=c#7 v=61
343182 On ch=1 n=c#6 v=62
343184 On ch=1 n=d#5 v=65
343186 On ch=1 n=d#6 v=60
343198 On ch=1 n=d#4 v=0
343236 On ch=1 n=g4 v=44
343258 On ch=1 n=d#5 v=0
343296 On ch=1 n=g6 v=0
343304 On ch=1 n=d#4 v=48
343308 On ch=1 n=g4 v=0
343332 On ch=1 n=d#6 v=0
343342 On ch=1 n=c#7 v=0
343344 On ch=1 n=c#6 v=0
343378 On ch=1 n=d#4 v=0
343390 On ch=1 n=g#3 v=77
343394 On ch=1 n=c#7 v=64
343400 On ch=1 n=g#6 v=53
343400 On ch=1 n=d#6 v=64
343400 On ch=1 n=c#6 v=61
343400 Par ch=1 c=64 v=0
343464 On ch=1 n=d#4 v=49
343466 Par ch=1 c=64 v=127
343540 On ch=1 n=g#4 v=48
343550 On ch=1 n=g#3 v=0
343570 On ch=1 n=d#4 v=0
343620 On ch=1 n=g#4 v=0
343626 On ch=1 n=d#5 v=79
343664 On ch=1 n=g#6 v=0
343668 On ch=1 n=c#7 v=0
343674 On ch=1 n=d#6 v=0
343698 On ch=1 n=g#4 v=50
343726 On ch=1 n=d#5 v=0
343758 On ch=1 n=d#4 v=54
343766 On ch=1 n=c#6 v=0
343786 On ch=1 n=g#4 v=0
343842 On ch=1 n=d#4 v=0
343862 On ch=1 n=g#5 v=87
343870 On ch=1 n=c6 v=58
343872 On ch=1 n=c7 v=58
343878 On ch=1 n=g#6 v=58
343880 On ch=1 n=d#6 v=51
343944 On ch=1 n=d#5 v=24
343970 On ch=1 n=g#5 v=0
344000 On ch=1 n=d#6 v=0
344012 On ch=1 n=c7 v=0
344024 On ch=1 n=g#4 v=51
344028 On ch=1 n=d#5 v=0
344030 On ch=1 n=g#6 v=0
344066 On ch=1 n=c6 v=0
344094 On ch=1 n=g#4 v=0
344128 On ch=1 n=a#3 v=79
344136 On ch=1 n=c7 v=77
344136 On ch=1 n=c6 v=77
344138 On ch=1 n=f#6 v=77
344154 Par ch=1 c=64 v=0
344212 Par ch=1 c=64 v=127
344222 On ch=1 n=c#4 v=65
344240 On ch=1 n=c6 v=0
344242 On ch=1 n=c7 v=0
344284 On ch=1 n=f#6 v=0
344296 On ch=1 n=f#4 v=59
344298 On ch=1 n=a#3 v=0
344310 On ch=1 n=c#4 v=0
344364 On ch=1 n=f#4 v=0
344368 On ch=1 n=a#4 v=44
344372 On ch=1 n=a#6 v=60
344372 On ch=1 n=a#5 v=60
344374 On ch=1 n=f#6 v=60
344422 On ch=1 n=f#6 v=0
344424 On ch=1 n=a#6 v=0
344430 On ch=1 n=f#4 v=44
344438 On ch=1 n=a#5 v=0
344460 On ch=1 n=a#4 v=0
344490 On ch=1 n=c#4 v=44
344506 On ch=1 n=f#4 v=0
344574 On ch=1 n=c#4 v=0
344580 On ch=1 n=c#5 v=44
344584 On ch=1 n=f#6 v=60
344584 On ch=1 n=f#5 v=60
344592 On ch=1 n=c#6 v=60
344634 On ch=1 n=f#6 v=0
344642 On ch=1 n=c#6 v=0
344656 On ch=1 n=f#5 v=0
344664 On ch=1 n=f#4 v=44
344668 On ch=1 n=c#5 v=0
344712 On ch=1 n=c#4 v=44
344724 On ch=1 n=f#4 v=0
344776 On ch=1 n=a#2 v=65
344788 On ch=1 n=c#4 v=0
344820 On ch=1 n=c#6 v=60
344820 On ch=1 n=c#5 v=60
344830 On ch=1 n=f#5 v=60
344940 On ch=1 n=c#6 v=0
344960 On ch=1 n=f#5 v=0
344964 On ch=1 n=a#2 v=0
344974 On ch=1 n=c#5 v=0
344982 On ch=1 n=f#3 v=61
345064 On ch=1 n=c#5 v=61
345068 On ch=1 n=a#5 v=61
345068 On ch=1 n=a#4 v=61
345076 On ch=1 n=c#4 v=61
345082 On ch=1 n=f#3 v=0
345148 On ch=1 n=f#3 v=61
345162 On ch=1 n=c#4 v=0
345212 On ch=1 n=f#3 v=0
345216 On ch=1 n=c#4 v=61
345256 On ch=1 n=c#5 v=0
345290 On ch=1 n=a#5 v=0
345294 On ch=1 n=f#3 v=61
345304 On ch=1 n=c#4 v=0
345330 On ch=1 n=a#4 v=0
345362 On ch=1 n=f#3 v=0
345378 On ch=1 n=c#4 v=61
345444 On ch=1 n=g#4 v=61
345444 On ch=1 n=f#3 v=61
345448 On ch=1 n=g#5 v=61
345466 On ch=1 n=c#4 v=0
345488 On ch=1 n=g#4 v=0
345492 On ch=1 n=g#5 v=0
345506 On ch=1 n=f#3 v=0
345512 On ch=1 n=a#2 v=75
345520 On ch=1 n=g#5 v=61
345520 On ch=1 n=g#4 v=61
345524 On ch=1 n=c#5 v=61
345542 Par ch=1 c=64 v=0
345610 Par ch=1 c=64 v=127
345696 On ch=1 n=f#3 v=61
345712 On ch=1 n=a#2 v=0
345772 On ch=1 n=c#4 v=61
345778 On ch=1 n=f#3 v=0
345822 On ch=1 n=g#5 v=0
345826 On ch=1 n=c#5 v=0
345838 On ch=1 n=f#3 v=61
345840 On ch=1 n=g#4 v=0
345854 On ch=1 n=c#4 v=0
345922 On ch=1 n=c#4 v=61
345924 On ch=1 n=f#3 v=0
345966 On ch=1 n=f#5 v=62
345966 On ch=1 n=f#4 v=62
345972 On ch=1 n=c#5 v=62
346002 On ch=1 n=f#3 v=62
346020 On ch=1 n=c#4 v=0
346056 On ch=1 n=c#4 v=62
346060 On ch=1 n=f#3 v=0
346108 On ch=1 n=f#3 v=62
346144 On ch=1 n=c#4 v=0
346168 On ch=1 n=a#2 v=76
346174 On ch=1 n=f#3 v=0
346188 Par ch=1 c=64 v=0
346238 Par ch=1 c=64 v=127
346282 On ch=1 n=f#3 v=62
346296 On ch=1 n=c#5 v=0
346332 On ch=1 n=f#4 v=0
346348 On ch=1 n=f#5 v=0
346368 On ch=1 n=c#4 v=62
346374 On ch=1 n=f#3 v=0
346392 On ch=1 n=f5 v=62
346392 On ch=1 n=c#5 v=62
346396 On ch=1 n=f4 v=62
346410 Par ch=1 c=64 v=0
346444 Par ch=1 c=64 v=127
346456 On ch=1 n=f#3 v=62
346464 On ch=1 n=c#4 v=0
346524 On ch=1 n=f#3 v=0
346524 On ch=1 n=c#4 v=63
346592 On ch=1 n=f4 v=0
346602 On ch=1 n=c#4 v=0
346602 On ch=1 n=f#3 v=63
346632 On ch=1 n=c#5 v=0
346638 On ch=1 n=a#2 v=0
346642 On ch=1 n=f5 v=0
346654 On ch=1 n=c#4 v=63
346678 On ch=1 n=f#3 v=0
346706 On ch=1 n=f#5 v=63
346708 On ch=1 n=f#4 v=63
346716 On ch=1 n=c#5 v=63
346718 On ch=1 n=f#3 v=63
346762 On ch=1 n=c#5 v=0
346762 On ch=1 n=f#4 v=0
346774 On ch=1 n=c#4 v=0
346776 On ch=1 n=f#5 v=0
346784 On ch=1 n=f#3 v=0
346816 On ch=1 n=f5 v=63
346818 On ch=1 n=g5 v=63
346818 On ch=1 n=c#5 v=63
346818 On ch=1 n=g4 v=63
346824 On ch=1 n=a#2 v=78
346844 Par ch=1 c=64 v=0
346950 Par ch=1 c=64 v=127
347026 On ch=1 n=a#2 v=0
347028 On ch=1 n=f3 v=64
347092 On ch=1 n=c#4 v=64
347100 On ch=1 n=c#5 v=0
347112 On ch=1 n=f5 v=0
347114 On ch=1 n=f3 v=0
347122 On ch=1 n=g5 v=0
347130 On ch=1 n=g4 v=0
347170 On ch=1 n=f3 v=64
347176 On ch=1 n=c#4 v=0
347252 On ch=1 n=f3 v=0
347272 On ch=1 n=c#4 v=64
347282 On ch=1 n=g5 v=64
347288 On ch=1 n=c#5 v=64
347290 On ch=1 n=g4 v=64
347292 On ch=1 n=f5 v=64
347360 On ch=1 n=f3 v=64
347366 On ch=1 n=g5 v=0
347372 On ch=1 n=g4 v=0
347372 On ch=1 n=c#5 v=0
347378 On ch=1 n=c#4 v=0
347380 On ch=1 n=f5 v=0
347464 On ch=1 n=f3 v=0
347504 On ch=1 n=g#4 v=64
347516 On ch=1 n=g#5 v=64
347524 On ch=1 n=f5 v=64
347532 On ch=1 n=c3 v=90
347542 Par ch=1 c=64 v=0
347676 On ch=1 n=f3 v=60
347706 On ch=1 n=c3 v=0
347736 Par ch=1 c=64 v=127
347774 On ch=1 n=f3 v=0
347778 On ch=1 n=c4 v=68
347798 On ch=1 n=g#4 v=0
347818 On ch=1 n=f5 v=0
347832 On ch=1 n=c4 v=0
347834 On ch=1 n=g#5 v=0
347858 On ch=1 n=c#4 v=59
347910 On ch=1 n=d4 v=61
347918 On ch=1 n=c#4 v=0
347970 On ch=1 n=d#4 v=61
347984 On ch=1 n=d4 v=0
347988 On ch=1 n=f5 v=69
347996 On ch=1 n=a5 v=73
347996 On ch=1 n=a4 v=73
348040 On ch=1 n=a4 v=0
348056 On ch=1 n=f5 v=0
348064 On ch=1 n=e4 v=62
348068 On ch=1 n=d#4 v=0
348078 On ch=1 n=a5 v=0
348106 On ch=1 n=f4 v=62
348116 On ch=1 n=e4 v=0
348150 On ch=1 n=f4 v=0
348228 On ch=1 n=c6 v=82
348234 On ch=1 n=c5 v=77
348238 On ch=1 n=f5 v=81
348242 Par ch=1 c=64 v=0
348248 On ch=1 n=c#3 v=76
348380 Par ch=1 c=64 v=127
348394 On ch=1 n=a3 v=51
348400 On ch=1 n=c#3 v=0
348480 On ch=1 n=a3 v=0
348480 On ch=1 n=c4 v=58
348488 On ch=1 n=c5 v=0
348502 On ch=1 n=c6 v=0
348540 On ch=1 n=c4 v=0
348546 On ch=1 n=f5 v=0
348546 On ch=1 n=c#4 v=59
348610 On ch=1 n=d4 v=61
348612 On ch=1 n=c#4 v=0
348666 Par ch=1 c=64 v=0
348680 On ch=1 n=d#4 v=62
348690 On ch=1 n=a#5 v=82
348690 On ch=1 n=a#4 v=76
348698 On ch=1 n=d4 v=0
348698 On ch=1 n=f5 v=77
348716 Par ch=1 c=64 v=127
348768 On ch=1 n=a#4 v=0
348768 On ch=1 n=e4 v=62
348772 On ch=1 n=f5 v=0
348774 On ch=1 n=d#4 v=0
348802 On ch=1 n=a#5 v=0
348820 On ch=1 n=f4 v=62
348832 On ch=1 n=e4 v=0
348884 On ch=1 n=f4 v=0
348922 On ch=1 n=c#6 v=84
348922 On ch=1 n=e3 v=79
348924 On ch=1 n=c#5 v=81
348928 On ch=1 n=g5 v=80
348946 Par ch=1 c=64 v=0
349004 Par ch=1 c=64 v=127
349074 On ch=1 n=c4 v=59
349090 On ch=1 n=c#6 v=0
349092 On ch=1 n=g5 v=0
349106 On ch=1 n=c#5 v=0
349126 On ch=1 n=e3 v=0
349148 On ch=1 n=d4 v=61
349152 On ch=1 n=c4 v=0
349160 On ch=1 n=b5 v=73
349164 On ch=1 n=b4 v=73
349166 On ch=1 n=g5 v=68
349210 On ch=1 n=b4 v=0
349212 On ch=1 n=d4 v=0
349218 On ch=1 n=d#4 v=61
349256 On ch=1 n=b5 v=0
349278 On ch=1 n=e4 v=62
349294 On ch=1 n=d#4 v=0
349322 On ch=1 n=g5 v=0
349332 On ch=1 n=f4 v=62
349346 On ch=1 n=e4 v=0
349370 On ch=1 n=c6 v=80
349370 On ch=1 n=g#5 v=71
349370 On ch=1 n=c5 v=76
349392 On ch=1 n=f#4 v=63
349402 On ch=1 n=f4 v=0
349426 On ch=1 n=c5 v=0
349444 On ch=1 n=c6 v=0
349452 On ch=1 n=g#5 v=0
349460 On ch=1 n=f#4 v=0
349470 On ch=1 n=g4 v=64
349534 On ch=1 n=g4 v=0
349576 On ch=1 n=d#6 v=83
349582 On ch=1 n=g#5 v=82
349582 On ch=1 n=d#5 v=84
349588 On ch=1 n=f3 v=85
349602 Par ch=1 c=64 v=0
349738 On ch=1 n=c#4 v=59
349780 Par ch=1 c=64 v=127
349808 On ch=1 n=d#4 v=61
349816 On ch=1 n=f3 v=0
349844 On ch=1 n=c#4 v=0
349854 On ch=1 n=d#5 v=0
349866 On ch=1 n=d#6 v=0
349868 On ch=1 n=g#5 v=0
349878 On ch=1 n=e4 v=62
349886 On ch=1 n=d#4 v=0
349944 On ch=1 n=f4 v=62
349954 On ch=1 n=e4 v=0
349998 Par ch=1 c=64 v=0
350020 On ch=1 n=f4 v=0
350022 On ch=1 n=c#6 v=80
350022 On ch=1 n=c#5 v=79
350024 On ch=1 n=f#4 v=63
350028 On ch=1 n=g#5 v=81
350060 Par ch=1 c=64 v=127
350076 On ch=1 n=f#4 v=0
350076 On ch=1 n=g4 v=63
350144 On ch=1 n=g#4 v=64
350152 On ch=1 n=g4 v=0
350208 On ch=1 n=g#4 v=0
350214 On ch=1 n=c#5 v=0
350230 On ch=1 n=c#6 v=0
350254 On ch=1 n=g3 v=90
350256 On ch=1 n=g#5 v=0
350268 Par ch=1 c=64 v=0
350382 On ch=1 n=d#4 v=62
350434 Par ch=1 c=64 v=127
350452 On ch=1 n=g3 v=0
350466 On ch=1 n=d#6 v=79
350466 On ch=1 n=f4 v=62
350468 On ch=1 n=d#5 v=70
350474 On ch=1 n=d#4 v=0
350476 On ch=1 n=c6 v=73
350534 On ch=1 n=f#4 v=63
350536 On ch=1 n=f4 v=0
350562 On ch=1 n=c6 v=0
350580 On ch=1 n=d#6 v=0
350588 On ch=1 n=d#5 v=0
350630 On ch=1 n=f#4 v=0
350640 On ch=1 n=g4 v=64
350686 On ch=1 n=e6 v=73
350688 On ch=1 n=c6 v=76
350688 On ch=1 n=e5 v=71
350698 On ch=1 n=g#4 v=65
350704 On ch=1 n=g4 v=0
350752 On ch=1 n=a4 v=65
350756 On ch=1 n=e5 v=0
350760 On ch=1 n=g#4 v=0
350768 On ch=1 n=c6 v=0
350784 On ch=1 n=e6 v=0
350822 On ch=1 n=a4 v=0
350824 On ch=1 n=a#4 v=66
350888 On ch=1 n=a#4 v=0
350928 On ch=1 n=f6 v=80
350928 On ch=1 n=c6 v=80
350928 On ch=1 n=f5 v=76
350928 On ch=1 n=g#3 v=90
350938 Par ch=1 c=64 v=0
350986 Par ch=1 c=64 v=127
351006 On ch=1 n=f4 v=73
351018 On ch=1 n=d#6 v=54
351020 On ch=1 n=f6 v=0
351034 On ch=1 n=g#3 v=0
351056 On ch=1 n=g#4 v=86
351072 On ch=1 n=f5 v=0
351092 On ch=1 n=c#6 v=72
351098 On ch=1 n=f4 v=0
351110 On ch=1 n=c6 v=0
351114 On ch=1 n=d#6 v=0
351140 On ch=1 n=c#6 v=0
351150 On ch=1 n=g#4 v=0
351174 On ch=1 n=a#6 v=79
351176 On ch=1 n=c#5 v=91
351182 On ch=1 n=c#6 v=84
351186 On ch=1 n=a#5 v=80
351240 On ch=1 n=g#4 v=88
351256 On ch=1 n=c#5 v=0
351288 On ch=1 n=a#6 v=0
351296 On ch=1 n=a#5 v=0
351304 On ch=1 n=f5 v=79
351308 On ch=1 n=g#4 v=0
351320 On ch=1 n=c#6 v=0
351408 On ch=1 n=g#5 v=90
351408 On ch=1 n=c#5 v=65
351410 On ch=1 n=g#6 v=86
351416 On ch=1 n=f6 v=75
351422 On ch=1 n=f5 v=0
351512 On ch=1 n=g#4 v=71
351546 On ch=1 n=c#5 v=0
351550 On ch=1 n=g#6 v=0
351556 On ch=1 n=f6 v=0
351564 On ch=1 n=g#5 v=0
351576 On ch=1 n=d#4 v=68
351596 On ch=1 n=g#4 v=0
351644 On ch=1 n=g#6 v=86
351646 Par ch=1 c=64 v=0
351652 On ch=1 n=f#5 v=86
351656 On ch=1 n=g#2 v=109
351662 On ch=1 n=c6 v=73
351668 On ch=1 n=d#4 v=0
351684 Par ch=1 c=64 v=127
351726 On ch=1 n=g#3 v=67
351790 On ch=1 n=d#4 v=83
351848 On ch=1 n=g#3 v=0
351864 On ch=1 n=c5 v=98
351874 On ch=1 n=d#4 v=0
351956 On ch=1 n=g#4 v=80
351962 On ch=1 n=c5 v=0
352004 On ch=1 n=f#5 v=0
352032 On ch=1 n=g#6 v=0
352044 On ch=1 n=f#5 v=86
352050 On ch=1 n=c6 v=0
352134 On ch=1 n=g#2 v=0
352144 On ch=1 n=g#4 v=0
352150 On ch=1 n=f#5 v=0
352152 On ch=1 n=f#6 v=80
352158 On ch=1 n=c6 v=84
352160 On ch=1 n=f#5 v=92
352160 On ch=1 n=c5 v=73
352248 On ch=1 n=g#4 v=80
352308 On ch=1 n=c5 v=0
352346 On ch=1 n=g#4 v=0
352370 On ch=1 n=d#4 v=98
352398 On ch=1 n=c6 v=0
352448 On ch=1 n=f#6 v=0
352458 On ch=1 n=f#5 v=0
352502 On ch=1 n=d#4 v=0
352546 On ch=1 n=f6 v=79
352550 On ch=1 n=c#3 v=79
352554 On ch=1 n=c#6 v=79
352554 On ch=1 n=f5 v=79
352568 Par ch=1 c=64 v=0
352634 Par ch=1 c=64 v=127
352728 On ch=1 n=g#3 v=74
352774 On ch=1 n=c#3 v=0
352810 On ch=1 n=g#3 v=0
352810 On ch=1 n=c#4 v=86
352834 On ch=1 n=f6 v=0
352840 On ch=1 n=c#6 v=0
352846 On ch=1 n=f5 v=0
352848 On ch=1 n=c#4 v=0
352894 On ch=1 n=c#4 v=88
352914 On ch=1 n=f5 v=69
352972 On ch=1 n=g#5 v=73
352982 On ch=1 n=c#4 v=0
352982 On ch=1 n=g#4 v=43
353020 On ch=1 n=f5 v=0
353034 On ch=1 n=g#4 v=0
353034 On ch=1 n=c#5 v=80
353048 On ch=1 n=g#5 v=0
353052 On ch=1 n=f6 v=73
353078 On ch=1 n=c#5 v=0
353090 On ch=1 n=f6 v=0
353124 On ch=1 n=f6 v=88
353130 On ch=1 n=c#5 v=84
353188 On ch=1 n=g#6 v=58
353198 On ch=1 n=g#5 v=73
353204 On ch=1 n=c#5 v=0
353232 On ch=1 n=f6 v=0
353266 On ch=1 n=g#5 v=0
353266 On ch=1 n=f7 v=79
353272 On ch=1 n=c#6 v=98
353280 On ch=1 n=g#6 v=0
353334 On ch=1 n=g#6 v=86
353346 On ch=1 n=g#5 v=70
353360 On ch=1 n=c#6 v=0
353372 On ch=1 n=f7 v=0
353402 On ch=1 n=f6 v=88
353406 On ch=1 n=c#5 v=88
353412 On ch=1 n=g#5 v=0
353412 On ch=1 n=g#6 v=0
353434 On ch=1 n=f6 v=0
353438 On ch=1 n=c#5 v=0
353482 On ch=1 n=c#5 v=100
353484 On ch=1 n=f6 v=88
353558 On ch=1 n=g#4 v=59
353566 On ch=1 n=g#5 v=76
353580 On ch=1 n=f6 v=0
353582 On ch=1 n=c#5 v=0
353612 On ch=1 n=c#4 v=82
353620 On ch=1 n=g#4 v=0
353620 On ch=1 n=f5 v=84
353622 On ch=1 n=g#5 v=0
353642 On ch=1 n=c#4 v=0
353656 On ch=1 n=f5 v=0
353694 On ch=1 n=c#4 v=94
353704 On ch=1 n=f5 v=69
353762 On ch=1 n=g#3 v=67
353776 On ch=1 n=c#4 v=0
353796 On ch=1 n=f5 v=0
353800 On ch=1 n=g#4 v=68
353830 On ch=1 n=g#4 v=0
353832 On ch=1 n=f4 v=60
353890 On ch=1 n=g#3 v=0
353916 Par ch=1 c=64 v=0
353924 On ch=1 n=f4 v=0
353924 On ch=1 n=c#3 v=97
353930 On ch=1 n=f5 v=90
353988 On ch=1 n=f4 v=47
353996 Par ch=1 c=64 v=127
354060 On ch=1 n=a4 v=69
354066 On ch=1 n=f5 v=0
354102 On ch=1 n=f4 v=0
354114 On ch=1 n=a3 v=67
354148 On ch=1 n=f5 v=83
354162 On ch=1 n=c#3 v=0
354166 On ch=1 n=a4 v=0
354180 On ch=1 n=a3 v=0
354182 On ch=1 n=c#4 v=69
354192 On ch=1 n=f5 v=0
354216 On ch=1 n=c#4 v=0
354232 On ch=1 n=f5 v=84
354262 On ch=1 n=c#4 v=84
354294 On ch=1 n=a5 v=68
354322 On ch=1 n=a4 v=65
354332 On ch=1 n=f5 v=0
354334 On ch=1 n=c#4 v=0
354362 On ch=1 n=f6 v=68
354374 On ch=1 n=a5 v=0
354384 On ch=1 n=a4 v=0
354384 On ch=1 n=c#5 v=82
354406 On ch=1 n=f6 v=0
354430 On ch=1 n=c#5 v=0
354442 On ch=1 n=f6 v=87
354474 On ch=1 n=c#5 v=71
354504 On ch=1 n=a6 v=67
354526 On ch=1 n=a5 v=67
354528 On ch=1 n=f6 v=0
354536 On ch=1 n=c#5 v=0
354580 On ch=1 n=f7 v=98
354586 On ch=1 n=a6 v=0
354590 On ch=1 n=c#6 v=101
354594 On ch=1 n=a5 v=0
354648 On ch=1 n=a6 v=83
354652 On ch=1 n=a5 v=74
354670 On ch=1 n=c#6 v=0
354680 On ch=1 n=f7 v=0
354708 On ch=1 n=f6 v=80
354716 On ch=1 n=c#5 v=86
354722 On ch=1 n=a5 v=0
354722 On ch=1 n=a6 v=0
354744 On ch=1 n=f6 v=0
354746 On ch=1 n=c#5 v=0
354790 On ch=1 n=f6 v=80
354792 On ch=1 n=c#5 v=105
354846 On ch=1 n=a4 v=73
354852 On ch=1 n=a5 v=68
354868 On ch=1 n=c#5 v=0
354874 On ch=1 n=f6 v=0
354900 On ch=1 n=c#4 v=94
354904 On ch=1 n=f5 v=79
354914 On ch=1 n=a5 v=0
354920 On ch=1 n=a4 v=0
354942 On ch=1 n=c#4 v=0
354946 On ch=1 n=f5 v=0
354986 On ch=1 n=f5 v=86
354990 On ch=1 n=c#4 v=91
355042 On ch=1 n=a3 v=73
355058 On ch=1 n=a4 v=75
355082 On ch=1 n=f5 v=0
355112 On ch=1 n=c#4 v=0
355124 On ch=1 n=f4 v=66
355124 On ch=1 n=c#3 v=100
355128 On ch=1 n=a4 v=0
355194 On ch=1 n=a3 v=0
355200 On ch=1 n=f4 v=0
355206 On ch=1 n=f5 v=107
355216 Par ch=1 c=64 v=0
355278 On ch=1 n=f4 v=80
355290 Par ch=1 c=64 v=127
355314 On ch=1 n=f5 v=0
355340 On ch=1 n=a#4 v=87
355344 On ch=1 n=a#3 v=79
355398 On ch=1 n=f4 v=0
355400 On ch=1 n=c#3 v=0
355408 On ch=1 n=f5 v=86
355412 On ch=1 n=c#4 v=88
355418 On ch=1 n=a#3 v=0
355426 On ch=1 n=a#4 v=0
355444 On ch=1 n=c#4 v=0
355450 On ch=1 n=f5 v=0
355486 On ch=1 n=f5 v=92
355496 On ch=1 n=c#4 v=94
355540 On ch=1 n=a#5 v=73
355554 On ch=1 n=a#4 v=79
355572 On ch=1 n=c#4 v=0
355594 On ch=1 n=f5 v=0
355616 On ch=1 n=f6 v=76
355620 On ch=1 n=a#4 v=0
355624 On ch=1 n=c#5 v=103
355632 On ch=1 n=a#5 v=0
355654 On ch=1 n=c#5 v=0
355660 On ch=1 n=f6 v=0
355692 On ch=1 n=f6 v=91
355720 On ch=1 n=c#5 v=86
355758 On ch=1 n=a#5 v=71
355762 On ch=1 n=a#6 v=36
355770 On ch=1 n=c#5 v=0
355806 On ch=1 n=f6 v=0
355828 On ch=1 n=a#5 v=0
355834 On ch=1 n=f7 v=97
355836 On ch=1 n=c#6 v=108
355846 On ch=1 n=a#6 v=0
355896 On ch=1 n=a#5 v=80
355898 On ch=1 n=a#6 v=91
355910 On ch=1 n=c#6 v=0
355926 On ch=1 n=f7 v=0
355956 On ch=1 n=f6 v=88
355956 On ch=1 n=c#5 v=90
355960 On ch=1 n=a#6 v=0
355964 On ch=1 n=a#5 v=0
355980 On ch=1 n=c#5 v=0
355986 On ch=1 n=f6 v=0
356034 On ch=1 n=f6 v=88
356034 On ch=1 n=c#5 v=107
356090 On ch=1 n=a#5 v=75
356094 On ch=1 n=a#4 v=77
356112 On ch=1 n=f6 v=0
356114 On ch=1 n=c#5 v=0
356148 On ch=1 n=c#4 v=94
356152 On ch=1 n=f5 v=73
356156 On ch=1 n=a#4 v=0
356156 On ch=1 n=a#5 v=0
356178 On ch=1 n=c#4 v=0
356190 On ch=1 n=f5 v=0
356228 On ch=1 n=f5 v=86
356230 On ch=1 n=c#4 v=92
356280 On ch=1 n=a#3 v=74
356290 On ch=1 n=a#4 v=79
356308 On ch=1 n=f5 v=0
356312 On ch=1 n=c#4 v=0
356312 On ch=1 n=c#3 v=109
356356 On ch=1 n=c#3 v=109
356364 On ch=1 n=a#4 v=0
356364 On ch=1 n=f4 v=84
356370 On ch=1 n=a#3 v=0
356390 On ch=1 n=c#3 v=0
356412 Par ch=1 c=64 v=0
356432 On ch=1 n=f4 v=0
356436 On ch=1 n=g5 v=94
356494 On ch=1 n=f4 v=80
356552 On ch=1 n=b4 v=73
356552 On ch=1 n=g3 v=76
356554 Par ch=1 c=64 v=127
356564 On ch=1 n=c#3 v=0
356590 On ch=1 n=f4 v=0
356596 On ch=1 n=g5 v=0
356606 On ch=1 n=c#4 v=90
356616 On ch=1 n=g5 v=92
356620 On ch=1 n=g3 v=0
356632 On ch=1 n=b4 v=0
356646 On ch=1 n=c#4 v=0
356690 On ch=1 n=f5 v=94
356690 On ch=1 n=c#4 v=90
356742 On ch=1 n=b5 v=67
356772 On ch=1 n=c#4 v=0
356774 On ch=1 n=g4 v=77
356780 On ch=1 n=f5 v=0
356804 On ch=1 n=g6 v=67
356812 On ch=1 n=c#5 v=69
356822 On ch=1 n=b5 v=0
356826 On ch=1 n=g4 v=0
356830 On ch=1 n=g5 v=0
356864 On ch=1 n=c#5 v=0
356880 On ch=1 n=f6 v=87
356904 On ch=1 n=c#5 v=88
356938 On ch=1 n=b6 v=69
356956 On ch=1 n=c#5 v=0
356956 On ch=1 n=g5 v=64
356964 On ch=1 n=f6 v=0
357006 On ch=1 n=c#6 v=101
357012 On ch=1 n=g7 v=90
357022 On ch=1 n=g5 v=0
357024 On ch=1 n=b6 v=0
357042 On ch=1 n=g6 v=0
357070 On ch=1 n=b6 v=88
357074 On ch=1 n=g5 v=70
357084 On ch=1 n=c#6 v=0
357102 On ch=1 n=g7 v=0
357130 On ch=1 n=g5 v=0
357130 On ch=1 n=f6 v=86
357130 On ch=1 n=c#5 v=46
357140 On ch=1 n=b6 v=0
357152 On ch=1 n=c#5 v=0
357166 On ch=1 n=f6 v=0
357204 On ch=1 n=g6 v=87
357210 On ch=1 n=c#5 v=86
357256 On ch=1 n=b5 v=69
357270 On ch=1 n=g4 v=73
357294 On ch=1 n=c#5 v=0
357310 On ch=1 n=c#4 v=81
357334 On ch=1 n=g4 v=0
357338 On ch=1 n=b5 v=0
357338 On ch=1 n=f5 v=82
357350 On ch=1 n=c#4 v=0
357370 On ch=1 n=f5 v=0
357410 On ch=1 n=g5 v=87
357412 On ch=1 n=c#4 v=91
357442 On ch=1 n=g6 v=0
357456 On ch=1 n=b4 v=80
357462 On ch=1 n=g3 v=71
357506 On ch=1 n=c#3 v=71
357520 On ch=1 n=f4 v=79
357524 On ch=1 n=c#4 v=0
357528 On ch=1 n=b4 v=0
357532 On ch=1 n=g3 v=0
357556 On ch=1 n=g5 v=0
357566 On ch=1 n=f4 v=0
357574 On ch=1 n=c#3 v=0
357630 On ch=1 n=c3 v=83
357636 Par ch=1 c=64 v=0
357640 On ch=1 n=f5 v=68
357644 On ch=1 n=g#5 v=88
357644 On ch=1 n=c5 v=86
357644 On ch=1 n=c4 v=97
357644 On ch=1 n=g#3 v=82
357650 On ch=1 n=g#4 v=100
357682 On ch=1 n=f3 v=25
357708 Par ch=1 c=64 v=127
357756 On ch=1 n=c3 v=0
357840 On ch=1 n=c4 v=0
357846 On ch=1 n=f3 v=0
357850 On ch=1 n=g#3 v=0
357862 On ch=1 n=g#5 v=0
357870 On ch=1 n=c5 v=0
357878 On ch=1 n=g#4 v=0
357880 On ch=1 n=f5 v=0
357900 On ch=1 n=c3 v=94
357902 Par ch=1 c=64 v=0
357998 On ch=1 n=c4 v=82
358072 On ch=1 n=f4 v=79
358076 On ch=1 n=f3 v=73
358112 On ch=1 n=c4 v=0
358144 On ch=1 n=g#4 v=74
358148 On ch=1 n=g#3 v=71
358156 On ch=1 n=c3 v=0
358158 Par ch=1 c=64 v=127
358184 On ch=1 n=f3 v=0
358200 On ch=1 n=f4 v=0
358202 On ch=1 n=b3 v=86
358210 On ch=1 n=b4 v=79
358212 On ch=1 n=g#3 v=0
358224 On ch=1 n=g#4 v=0
358226 On ch=1 n=b3 v=0
358236 On ch=1 n=b4 v=0
358274 On ch=1 n=c5 v=88
358274 On ch=1 n=c4 v=90
358308 Par ch=1 c=64 v=0
358336 On ch=1 n=f5 v=75
358352 On ch=1 n=f4 v=73
358386 On ch=1 n=c5 v=0
358400 On ch=1 n=g#5 v=69
358400 On ch=1 n=g#4 v=66
358408 Par ch=1 c=64 v=127
358418 On ch=1 n=c4 v=0
358436 On ch=1 n=f4 v=0
358458 On ch=1 n=b4 v=82
358460 On ch=1 n=f5 v=0
358460 On ch=1 n=b5 v=73
358466 On ch=1 n=g#4 v=0
358476 On ch=1 n=g#5 v=0
358486 On ch=1 n=b4 v=0
358494 On ch=1 n=b5 v=0
358528 On ch=1 n=c6 v=86
358528 On ch=1 n=c5 v=88
358576 On ch=1 n=f6 v=68
358594 On ch=1 n=f5 v=66
358616 On ch=1 n=c6 v=0
358632 On ch=1 n=g#5 v=79
358638 On ch=1 n=g#6 v=67
358662 On ch=1 n=c5 v=0
358664 On ch=1 n=f5 v=0
358686 On ch=1 n=b5 v=69
358694 On ch=1 n=g#5 v=0
358696 On ch=1 n=b6 v=70
358702 On ch=1 n=f6 v=0
358718 On ch=1 n=g#6 v=0
358726 On ch=1 n=b5 v=0
358732 On ch=1 n=b6 v=0
358758 On ch=1 n=c6 v=76
358768 On ch=1 n=c7 v=88
358796 On ch=1 n=f6 v=68
358814 On ch=1 n=c6 v=0
358816 On ch=1 n=f7 v=61
358882 On ch=1 n=g#7 v=97
358884 On ch=1 n=g#6 v=98
358894 On ch=1 n=c7 v=0
358900 On ch=1 n=f6 v=0
358902 On ch=1 n=f7 v=0
358908 On ch=1 n=g#7 v=0
358914 On ch=1 n=g#6 v=0
359090 Par ch=1 c=64 v=0
359112 On ch=1 n=c#6 v=103
359112 On ch=1 n=f5 v=68
359116 On ch=1 n=f6 v=87
359120 On ch=1 n=c#5 v=68
359120 On ch=1 n=c#4 v=80
359156 On ch=1 n=c#6 v=0
359156 Par ch=1 c=64 v=127
359160 On ch=1 n=f6 v=0
359172 On ch=1 n=c#4 v=0
359172 On ch=1 n=f5 v=0
359180 On ch=1 n=c#5 v=0
359300 Par ch=1 c=64 v=0
359320 On ch=1 n=c#6 v=87
359320 On ch=1 n=c#5 v=68
359320 On ch=1 n=g#4 v=80
359320 On ch=1 n=f4 v=80
359326 On ch=1 n=g#5 v=84
359326 On ch=1 n=b4 v=84
359326 On ch=1 n=b3 v=82
359354 On ch=1 n=g#5 v=0
359364 On ch=1 n=f4 v=0
359364 Par ch=1 c=64 v=127
359374 On ch=1 n=g#4 v=0
359376 On ch=1 n=b3 v=0
359376 On ch=1 n=b4 v=0
359380 On ch=1 n=c#5 v=0
359380 On ch=1 n=c#6 v=0
359510 Par ch=1 c=64 v=0
359526 On ch=1 n=f#6 v=86
359526 On ch=1 n=f#5 v=86
359528 On ch=1 n=a#4 v=101
359528 On ch=1 n=f#4 v=80
359528 On ch=1 n=c#4 v=80
359530 On ch=1 n=c#6 v=86
359530 On ch=1 n=a#3 v=84
359560 Par ch=1 c=64 v=127
359574 On ch=1 n=a#4 v=0
359574 On ch=1 n=f#5 v=0
359578 On ch=1 n=c#6 v=0
359582 On ch=1 n=a#3 v=0
359582 On ch=1 n=f#6 v=0
359588 On ch=1 n=c#4 v=0
359588 On ch=1 n=f#4 v=0
359708 Par ch=1 c=64 v=0
359728 On ch=1 n=g5 v=86
359730 On ch=1 n=c6 v=84
359732 On ch=1 n=e6 v=82
359732 On ch=1 n=c4 v=80
359736 On ch=1 n=e5 v=86
359738 On ch=1 n=c5 v=82
359738 On ch=1 n=g4 v=80
359762 On ch=1 n=g5 v=0
359764 On ch=1 n=e5 v=0
359770 On ch=1 n=c5 v=0
359770 On ch=1 n=c6 v=0
359770 Par ch=1 c=64 v=127
359778 On ch=1 n=e6 v=0
359786 On ch=1 n=g4 v=0
359786 On ch=1 n=c4 v=0
359906 Par ch=1 c=64 v=0
359928 On ch=1 n=c7 v=86
359934 On ch=1 n=g6 v=84
359934 On ch=1 n=c6 v=84
359936 On ch=1 n=a#4 v=90
359942 On ch=1 n=a#3 v=73
359944 On ch=1 n=g4 v=80
359944 On ch=1 n=e4 v=68
359958 Par ch=1 c=64 v=127
359974 On ch=1 n=e4 v=0
359974 On ch=1 n=c7 v=0
359976 On ch=1 n=a#4 v=0
359976 On ch=1 n=c6 v=0
359980 On ch=1 n=g4 v=0
359984 On ch=1 n=a#3 v=0
359984 On ch=1 n=g6 v=0
360104 Par ch=1 c=64 v=0
360140 On ch=1 n=c7 v=86
360146 On ch=1 n=f6 v=86
360152 On ch=1 n=c6 v=86
360152 On ch=1 n=g#4 v=94
360152 On ch=1 n=g#3 v=80
360162 On ch=1 n=f4 v=83
360174 On ch=1 n=c7 v=0
360184 On ch=1 n=f4 v=0
360184 On ch=1 n=c6 v=0
360184 On ch=1 n=f6 v=0
360190 On ch=1 n=g#4 v=0
360190 Par ch=1 c=64 v=127
360198 On ch=1 n=g#3 v=0
360532 On ch=1 n=c3 v=109
360554 Par ch=1 c=64 v=0
360682 On ch=1 n=c4 v=73
360750 On ch=1 n=f4 v=79
360750 On ch=1 n=f3 v=60
360762 On ch=1 n=c4 v=0
360816 On ch=1 n=g#4 v=79
360828 Par ch=1 c=64 v=127
360834 On ch=1 n=g#3 v=80
360844 On ch=1 n=c3 v=0
360856 On ch=1 n=f4 v=0
360874 On ch=1 n=f3 v=0
360890 On ch=1 n=b4 v=76
360896 On ch=1 n=b3 v=88
360902 On ch=1 n=g#3 v=0
360904 On ch=1 n=g#4 v=0
360918 On ch=1 n=b4 v=0
360920 On ch=1 n=b3 v=0
360954 Par ch=1 c=64 v=0
360968 On ch=1 n=c4 v=91
360970 On ch=1 n=c5 v=64
361016 On ch=1 n=f5 v=73
361030 On ch=1 n=f4 v=39
361062 Par ch=1 c=64 v=127
361068 On ch=1 n=c5 v=0
361078 On ch=1 n=g#5 v=73
361086 On ch=1 n=g#4 v=73
361092 On ch=1 n=c4 v=0
361116 On ch=1 n=f4 v=0
361130 On ch=1 n=b4 v=73
361140 On ch=1 n=f5 v=0
361144 On ch=1 n=g#4 v=0
361144 On ch=1 n=b5 v=73
361152 On ch=1 n=g#5 v=0
361158 On ch=1 n=b4 v=0
361166 On ch=1 n=b5 v=0
361198 On ch=1 n=c6 v=86
361204 On ch=1 n=b4 v=66
361212 On ch=1 n=c5 v=64
361248 On ch=1 n=f6 v=67
361274 On ch=1 n=c5 v=0
361280 On ch=1 n=b4 v=0
361284 On ch=1 n=f5 v=36
361292 On ch=1 n=c6 v=0
361292 On ch=1 n=e5 v=36
361296 On ch=1 n=g#5 v=67
361300 On ch=1 n=e5 v=0
361300 On ch=1 n=g#6 v=80
361318 On ch=1 n=f5 v=0
361336 On ch=1 n=b5 v=82
361350 On ch=1 n=g#5 v=0
361356 On ch=1 n=f6 v=0
361362 On ch=1 n=b6 v=71
361372 On ch=1 n=b5 v=0
361376 On ch=1 n=g#6 v=0
361392 On ch=1 n=b6 v=0
361418 On ch=1 n=f6 v=67
361430 On ch=1 n=c7 v=79
361478 On ch=1 n=f7 v=67
361508 On ch=1 n=f#6 v=28
361516 On ch=1 n=g#6 v=84
361534 On ch=1 n=f6 v=0
361538 On ch=1 n=f#6 v=0
361538 On ch=1 n=g#7 v=109
361554 On ch=1 n=g#6 v=0
361554 On ch=1 n=c7 v=0
361560 On ch=1 n=g#7 v=0
361560 On ch=1 n=f7 v=0
361590 Par ch=1 c=64 v=127
361708 Par ch=1 c=64 v=0
361720 Par ch=1 c=64 v=127
361738 On ch=1 n=c#6 v=82
361738 On ch=1 n=g#5 v=79
361738 On ch=1 n=f5 v=77
361742 On ch=1 n=f6 v=79
361742 On ch=1 n=c#5 v=71
361742 On ch=1 n=g#4 v=73
361742 On ch=1 n=c#4 v=74
361758 On ch=1 n=f6 v=0
361758 On ch=1 n=f5 v=0
361762 On ch=1 n=g#4 v=0
361762 On ch=1 n=c#5 v=0
361762 On ch=1 n=g#5 v=0
361766 On ch=1 n=c#4 v=0
361766 On ch=1 n=c#6 v=0
361936 On ch=1 n=b2 v=68
361940 On ch=1 n=g#4 v=76
361942 On ch=1 n=f5 v=76
361942 On ch=1 n=f4 v=73
361948 On ch=1 n=c#5 v=73
361948 On ch=1 n=b3 v=73
361960 Par ch=1 c=64 v=0
361978 On ch=1 n=f4 v=0
361986 On ch=1 n=g#4 v=0
361988 On ch=1 n=f5 v=0
361992 On ch=1 n=c#5 v=0
361994 Par ch=1 c=64 v=127
362042 On ch=1 n=b3 v=0
362056 On ch=1 n=b2 v=0
362116 On ch=1 n=f#5 v=82
362120 On ch=1 n=a#2 v=68
362122 On ch=1 n=c#5 v=79
362122 On ch=1 n=f#4 v=76
362124 On ch=1 n=a#3 v=80
362128 Par ch=1 c=64 v=0
362150 On ch=1 n=f#4 v=0
362156 On ch=1 n=c#5 v=0
362156 Par ch=1 c=64 v=127
362174 On ch=1 n=f#5 v=0
362240 On ch=1 n=a#2 v=0
362276 On ch=1 n=c5 v=82
362278 On ch=1 n=g4 v=79
362280 On ch=1 n=c3 v=68
362282 On ch=1 n=e5 v=80
362284 On ch=1 n=c4 v=74
362288 Par ch=1 c=64 v=0
362296 On ch=1 n=a#3 v=0
362302 On ch=1 n=g4 v=0
362302 Par ch=1 c=64 v=127
362306 On ch=1 n=c5 v=0
362312 On ch=1 n=e5 v=0
362400 On ch=1 n=c3 v=0
362440 On ch=1 n=c6 v=82
362440 On ch=1 n=a#2 v=68
362442 On ch=1 n=g5 v=80
362444 On ch=1 n=c5 v=82
362444 On ch=1 n=a#3 v=80
362450 Par ch=1 c=64 v=0
362466 On ch=1 n=c4 v=0
362474 On ch=1 n=c5 v=0
362476 On ch=1 n=g5 v=0
362486 Par ch=1 c=64 v=127
362494 On ch=1 n=c6 v=0
362560 On ch=1 n=a#2 v=0
362602 On ch=1 n=c6 v=82
362602 On ch=1 n=f5 v=79
362606 On ch=1 n=c5 v=76
362608 On ch=1 n=g#3 v=79
362608 On ch=1 n=g#2 v=68
362612 Par ch=1 c=64 v=0
362616 On ch=1 n=a#3 v=0
362630 Par ch=1 c=64 v=127
362634 On ch=1 n=c5 v=0
362640 On ch=1 n=f5 v=0
362650 On ch=1 n=c6 v=0
362728 On ch=1 n=g#2 v=0
362728 On ch=1 n=g#3 v=0
362760 On ch=1 n=d6 v=73
362760 On ch=1 n=b5 v=73
362760 On ch=1 n=f5 v=79
362760 On ch=1 n=d5 v=73
362760 On ch=1 n=g2 v=68
362764 On ch=1 n=g3 v=73
362770 Par ch=1 c=64 v=0
362784 On ch=1 n=d5 v=0
362786 On ch=1 n=f5 v=0
362788 Par ch=1 c=64 v=127
362794 On ch=1 n=b5 v=0
362794 On ch=1 n=d6 v=0
362880 On ch=1 n=g2 v=0
362924 On ch=1 n=d#6 v=79
362924 On ch=1 n=f#5 v=77
362924 On ch=1 n=d#5 v=71
362926 Par ch=1 c=64 v=0
362928 On ch=1 n=f#2 v=68
362932 On ch=1 n=b5 v=74
362932 On ch=1 n=f#3 v=73
362942 On ch=1 n=g3 v=0
362948 On ch=1 n=d#5 v=0
362950 Par ch=1 c=64 v=127
362954 On ch=1 n=f#5 v=0
362958 On ch=1 n=b5 v=0
362962 On ch=1 n=d#6 v=0
363048 On ch=1 n=f#2 v=0
363076 On ch=1 n=f#3 v=0
363076 On ch=1 n=f#5 v=79
363078 On ch=1 n=f#6 v=75
363078 On ch=1 n=a#5 v=80
363080 On ch=1 n=e2 v=68
363082 On ch=1 n=c#6 v=77
363086 On ch=1 n=e3 v=74
363098 On ch=1 n=f#5 v=0
363100 On ch=1 n=a#5 v=0
363102 On ch=1 n=c#6 v=0
363108 On ch=1 n=f#6 v=0
363200 On ch=1 n=e2 v=0
363218 On ch=1 n=e3 v=0
363236 On ch=1 n=b6 v=80
363236 On ch=1 n=f#6 v=80
363236 Par ch=1 c=64 v=0
363240 On ch=1 n=d#2 v=68
363242 On ch=1 n=d#6 v=76
363242 On ch=1 n=b5 v=77
363246 On ch=1 n=d#3 v=83
363254 Par ch=1 c=64 v=127
363262 On ch=1 n=b5 v=0
363262 On ch=1 n=d#6 v=0
363264 On ch=1 n=f#6 v=0
363266 On ch=1 n=b6 v=0
363360 On ch=1 n=d#2 v=0
363370 On ch=1 n=d#3 v=0
363392 On ch=1 n=g#6 v=79
363392 On ch=1 n=d3 v=68
363394 On ch=1 n=g#5 v=76
363396 On ch=1 n=d4 v=79
363400 On ch=1 n=b5 v=73
363404 On ch=1 n=f6 v=55
363416 On ch=1 n=b5 v=0
363416 On ch=1 n=g#5 v=0
363418 On ch=1 n=f6 v=0
363426 On ch=1 n=g#6 v=0
363512 On ch=1 n=d3 v=0
363540 On ch=1 n=d4 v=0
363542 On ch=1 n=a#6 v=81
363542 On ch=1 n=a#5 v=80
363544 On ch=1 n=c#3 v=70
363548 On ch=1 n=c#4 v=81
363550 On ch=1 n=f#6 v=81
363550 On ch=1 n=c#6 v=75
363564 On ch=1 n=c#6 v=0
363568 On ch=1 n=a#5 v=0
363574 On ch=1 n=f#6 v=0
363582 On ch=1 n=a#6 v=0
363664 On ch=1 n=c#3 v=0
363688 On ch=1 n=b2 v=72
363688 Par ch=1 c=64 v=0
363692 On ch=1 n=c#7 v=84
363692 On ch=1 n=g#6 v=78
363692 On ch=1 n=c#6 v=76
363692 On ch=1 n=b3 v=80
363698 On ch=1 n=c#4 v=0
363698 On ch=1 n=f6 v=83
363712 On ch=1 n=c#6 v=0
363716 On ch=1 n=f6 v=0
363716 Par ch=1 c=64 v=127
363722 On ch=1 n=g#6 v=0
363730 On ch=1 n=c#7 v=0
363808 On ch=1 n=b2 v=0
363824 On ch=1 n=a#2 v=73
363832 On ch=1 n=a#3 v=87
363838 On ch=1 n=f#7 v=87
363838 On ch=1 n=c#7 v=100
363838 On ch=1 n=f#6 v=92
363846 On ch=1 n=b3 v=0
363858 On ch=1 n=f#6 v=0
363868 On ch=1 n=c#7 v=0
363874 On ch=1 n=f#7 v=0
363944 On ch=1 n=a#2 v=0
363984 On ch=1 n=e7 v=82
363984 On ch=1 n=c7 v=81
363984 On ch=1 n=e6 v=75
363984 On ch=1 n=a2 v=74
363986 On ch=1 n=g6 v=86
363990 On ch=1 n=a3 v=87
363996 On ch=1 n=a#3 v=0
364006 On ch=1 n=g6 v=0
364006 On ch=1 n=e6 v=0
364016 On ch=1 n=c7 v=0
364018 On ch=1 n=e7 v=0
364104 On ch=1 n=a2 v=0
364130 Par ch=1 c=64 v=0
364136 On ch=1 n=f7 v=83
364136 On ch=1 n=g#2 v=76
364140 On ch=1 n=a3 v=0
364140 On ch=1 n=c7 v=89
364140 On ch=1 n=f6 v=90
364140 On ch=1 n=g#3 v=96
364174 On ch=1 n=c7 v=0
364176 On ch=1 n=f6 v=0
364176 On ch=1 n=f7 v=0
364178 Par ch=1 c=64 v=127
364256 On ch=1 n=g#2 v=0
364312 On ch=1 n=c#7 v=99
364312 On ch=1 n=c#6 v=92
364312 On ch=1 n=a#2 v=78
364312 Par ch=1 c=64 v=0
364320 On ch=1 n=g6 v=93
364320 On ch=1 n=f6 v=94
364324 On ch=1 n=g#3 v=0
364328 On ch=1 n=a#3 v=94
364346 Par ch=1 c=64 v=127
364352 On ch=1 n=c#7 v=0
364354 On ch=1 n=c#6 v=0
364360 On ch=1 n=f6 v=0
364362 On ch=1 n=g6 v=0
364432 On ch=1 n=a#2 v=0
364452 On ch=1 n=a#3 v=0
364516 On ch=1 n=c4 v=96
364518 On ch=1 n=c3 v=98
364520 On ch=1 n=c7 v=98
364520 On ch=1 n=f6 v=98
364520 On ch=1 n=c6 v=98
364524 On ch=1 n=g6 v=98
364566 Par ch=1 c=64 v=0
364624 Par ch=1 c=64 v=127
364870 On ch=1 n=c7 v=0
364880 On ch=1 n=g6 v=0
364880 On ch=1 n=f6 v=0
364886 On ch=1 n=c6 v=0
364896 On ch=1 n=c3 v=0
364898 On ch=1 n=c4 v=0
364936 Par ch=1 c=64 v=0
365284 On ch=1 n=c5 v=106
365284 On ch=1 n=c4 v=106
365458 On ch=1 n=c#5 v=109
365462 On ch=1 n=c#4 v=109
365476 On ch=1 n=c4 v=0
365480 On ch=1 n=c5 v=0
365630 On ch=1 n=f5 v=103
365642 On ch=1 n=c#5 v=0
365644 On ch=1 n=f4 v=95
365674 On ch=1 n=c#4 v=0
365676 Par ch=1 c=64 v=127
365766 On ch=1 n=f5 v=0
365780 On ch=1 n=f4 v=0
365804 Par ch=1 c=64 v=0
365812 On ch=1 n=g5 v=109
365812 On ch=1 n=e5 v=99
365816 On ch=1 n=c5 v=109
365816 On ch=1 n=g4 v=109
365822 On ch=1 n=c4 v=109
365822 On ch=1 n=c3 v=102
365878 On ch=1 n=g4 v=0
365878 On ch=1 n=c5 v=0
365884 On ch=1 n=e5 v=0
365888 On ch=1 n=g5 v=0
365902 On ch=1 n=c3 v=0
365912 On ch=1 n=c4 v=0
366016 On ch=1 n=g4 v=1
366016 On ch=1 n=g2 v=96
366020 On ch=1 n=d5 v=109
366020 On ch=1 n=f4 v=109
366022 On ch=1 n=g5 v=109
366022 On ch=1 n=b4 v=109
366022 On ch=1 n=g3 v=109
366094 Par ch=1 c=64 v=127
366176 On ch=1 n=g4 v=0
366190 On ch=1 n=b4 v=0
366190 On ch=1 n=f4 v=0
366194 On ch=1 n=d5 v=0
366196 On ch=1 n=g2 v=0
366198 On ch=1 n=g3 v=0
366206 On ch=1 n=g5 v=0
366228 Par ch=1 c=64 v=0
366308 On ch=1 n=g5 v=109
366308 On ch=1 n=e5 v=109
366312 On ch=1 n=c5 v=109
366312 On ch=1 n=g4 v=109
366312 On ch=1 n=c2 v=96
366316 On ch=1 n=c3 v=109
366320 On ch=1 n=c4 v=109
366432 Par ch=1 c=64 v=127
366734 On ch=1 n=c3 v=0
366736 On ch=1 n=c5 v=0
366736 On ch=1 n=g5 v=0
366740 On ch=1 n=g4 v=0
366742 On ch=1 n=e5 v=0
366750 On ch=1 n=c4 v=0
366792 On ch=1 n=c2 v=0
367176 Par ch=1 c=64 v=0
368356 On ch=1 n=e5 v=31
368360 On ch=1 n=c7 v=46
368360 On ch=1 n=g6 v=36
368360 On ch=1 n=c6 v=37
368360 On ch=1 n=g4 v=30
368360 On ch=1 n=c4 v=30
368742 Par ch=1 c=64 v=127
370210 On ch=1 n=c7 v=0
370252 On ch=1 n=g6 v=0
370262 On ch=1 n=c6 v=0
370266 On ch=1 n=c4 v=0
370278 On ch=1 n=g4 v=0
370278 On ch=1 n=e5 v=0
370880 On ch=1 n=g6 v=38
370880 On ch=1 n=d6 v=39
370880 On ch=1 n=b5 v=37
370880 On ch=1 n=g5 v=31
370880 On ch=1 n=f5 v=33
370880 On ch=1 n=d5 v=20
370880 On ch=1 n=g4 v=30
370880 On ch=1 n=c4 v=23
370990 Par ch=1 c=64 v=0
371358 Par ch=1 c=64 v=127
372632 On ch=1 n=c4 v=0
372658 On ch=1 n=b5 v=0
372666 On ch=1 n=d6 v=0
372670 On ch=1 n=g5 v=0
372678 On ch=1 n=g4 v=0
372680 On ch=1 n=f5 v=0
372682 On ch=1 n=g6 v=0
372708 On ch=1 n=d5 v=0
373596 On ch=1 n=c4 v=24
373598 On ch=1 n=a#5 v=30
373600 On ch=1 n=e6 v=34
373600 On ch=1 n=g5 v=28
373600 On ch=1 n=e5 v=23
373600 On ch=1 n=c5 v=24
373600 On ch=1 n=g4 v=29
373650 Par ch=1 c=64 v=0
373802 Par ch=1 c=64 v=127
375272 On ch=1 n=c4 v=0
375314 On ch=1 n=g5 v=0
375334 On ch=1 n=e6 v=0
375348 On ch=1 n=g4 v=0
375366 On ch=1 n=c5 v=0
375388 On ch=1 n=e5 v=0
375390 On ch=1 n=a#5 v=0
376064 On ch=1 n=f5 v=30
376064 On ch=1 n=d5 v=24
376064 On ch=1 n=g4 v=27
376066 On ch=1 n=d6 v=36
376066 On ch=1 n=a#4 v=23
376068 On ch=1 n=c4 v=27
376144 Par ch=1 c=64 v=0
376284 Par ch=1 c=64 v=127
378222 On ch=1 n=g4 v=0
378222 On ch=1 n=d5 v=0
378222 On ch=1 n=f5 v=0
378224 On ch=1 n=a#4 v=0
378224 On ch=1 n=d6 v=0
378226 On ch=1 n=c4 v=0
378884 On ch=1 n=c3 v=27
378888 On ch=1 n=e5 v=29
378888 On ch=1 n=c5 v=31
378888 On ch=1 n=g4 v=27
378888 On ch=1 n=c4 v=25
379036 Par ch=1 c=64 v=0
382904 On ch=1 n=c5 v=0
382904 On ch=1 n=e5 v=0
382910 On ch=1 n=c4 v=0
382914 On ch=1 n=g4 v=0
382926 On ch=1 n=c3 v=0
382958 Par ch=1 c=64 v=127
383112 On ch=1 n=f2 v=68
383116 On ch=1 n=g#4 v=91
383140 Par ch=1 c=64 v=0
383178 Par ch=1 c=64 v=127
383282 On ch=1 n=g#5 v=66
383286 On ch=1 n=c5 v=72
383320 On ch=1 n=g#4 v=0
383362 On ch=1 n=f2 v=0
383394 On ch=1 n=g#5 v=0
383410 On ch=1 n=f5 v=67
383514 On ch=1 n=c5 v=0
383524 On ch=1 n=f5 v=0
383526 Par ch=1 c=64 v=0
383530 On ch=1 n=g4 v=71
383532 On ch=1 n=c#4 v=81
383572 Par ch=1 c=64 v=127
383630 On ch=1 n=g4 v=0
383634 On ch=1 n=c#3 v=62
383638 On ch=1 n=g#4 v=72
383640 On ch=1 n=b4 v=68
383668 On ch=1 n=c#4 v=0
383740 On ch=1 n=c#3 v=0
383744 On ch=1 n=g3 v=71
383746 On ch=1 n=g#4 v=0
383746 On ch=1 n=f4 v=77
383750 On ch=1 n=b4 v=0
383860 Par ch=1 c=64 v=0
383868 On ch=1 n=f4 v=0
383868 On ch=1 n=c#5 v=68
383872 On ch=1 n=c3 v=69
383884 On ch=1 n=g3 v=0
383904 Par ch=1 c=64 v=127
383978 On ch=1 n=c#5 v=0
383982 On ch=1 n=c3 v=0
384000 On ch=1 n=a#4 v=75
384002 On ch=1 n=c5 v=71
384006 On ch=1 n=e4 v=70
384098 On ch=1 n=a#4 v=0
384102 On ch=1 n=e4 v=0
384106 On ch=1 n=g5 v=75
384110 On ch=1 n=c4 v=67
384120 On ch=1 n=c5 v=0
384196 On ch=1 n=c4 v=0
384204 Par ch=1 c=64 v=0
384212 On ch=1 n=g5 v=0
384218 On ch=1 n=c5 v=73
384224 On ch=1 n=g#4 v=81
384244 Par ch=1 c=64 v=127
384332 On ch=1 n=a#5 v=74
384332 On ch=1 n=f5 v=72
384334 On ch=1 n=c4 v=67
384340 On ch=1 n=g#4 v=0
384354 On ch=1 n=c5 v=0
384434 On ch=1 n=c4 v=0
384442 On ch=1 n=g#5 v=67
384444 On ch=1 n=f3 v=65
384450 On ch=1 n=f5 v=0
384456 On ch=1 n=a#5 v=0
384478 On ch=1 n=g#5 v=0
384548 Par ch=1 c=64 v=0
384562 On ch=1 n=c#4 v=68
384564 On ch=1 n=f3 v=0
384564 On ch=1 n=g5 v=73
384596 Par ch=1 c=64 v=127
384684 On ch=1 n=a4 v=68
384700 On ch=1 n=g5 v=0
384740 On ch=1 n=c#3 v=80
384744 On ch=1 n=c#4 v=0
384790 On ch=1 n=c#3 v=0
384790 On ch=1 n=a4 v=0
384796 On ch=1 n=f5 v=73
384796 On ch=1 n=a#4 v=64
384888 Par ch=1 c=64 v=0
384892 On ch=1 n=a#4 v=0
384906 On ch=1 n=c#5 v=71
384906 On ch=1 n=c3 v=72
384912 On ch=1 n=f5 v=0
384934 Par ch=1 c=64 v=127
384974 On ch=1 n=c3 v=0
385006 On ch=1 n=c#5 v=0
385012 On ch=1 n=e4 v=59
385018 On ch=1 n=c5 v=72
385018 On ch=1 n=a#4 v=68
385096 On ch=1 n=a#4 v=0
385120 On ch=1 n=g5 v=71
385124 On ch=1 n=c4 v=67
385132 On ch=1 n=e4 v=0
385142 On ch=1 n=c5 v=0
385222 Par ch=1 c=64 v=0
385232 On ch=1 n=f3 v=63
385238 On ch=1 n=c4 v=0
385238 On ch=1 n=g#4 v=81
385246 On ch=1 n=g5 v=0
385264 Par ch=1 c=64 v=127
385346 On ch=1 n=g#5 v=71
385350 On ch=1 n=d#5 v=69
385352 On ch=1 n=f4 v=61
385356 On ch=1 n=g#4 v=0
385382 On ch=1 n=f3 v=0
385454 On ch=1 n=c#5 v=66
385454 On ch=1 n=g#3 v=66
385460 On ch=1 n=d#5 v=0
385466 On ch=1 n=f4 v=0
385504 On ch=1 n=c#5 v=0
385544 Par ch=1 c=64 v=0
385552 On ch=1 n=g#3 v=0
385558 On ch=1 n=c#5 v=73
385562 On ch=1 n=d#5 v=74
385562 On ch=1 n=d#3 v=63
385574 On ch=1 n=g#5 v=0
385592 Par ch=1 c=64 v=127
385670 On ch=1 n=d#5 v=0
385670 On ch=1 n=f#4 v=60
385672 On ch=1 n=c#5 v=0
385672 On ch=1 n=c5 v=65
385692 On ch=1 n=d#3 v=0
385760 On ch=1 n=f#4 v=0
385766 On ch=1 n=c5 v=0
385770 On ch=1 n=f#5 v=73
385774 On ch=1 n=g#5 v=73
385774 On ch=1 n=g#3 v=67
385808 On ch=1 n=f#5 v=0
385816 On ch=1 n=g#5 v=0
385868 Par ch=1 c=64 v=0
385880 On ch=1 n=g#5 v=73
385880 On ch=1 n=f#5 v=74
385886 On ch=1 n=c#3 v=67
385890 On ch=1 n=g#3 v=0
385918 Par ch=1 c=64 v=127
385954 On ch=1 n=c#3 v=0
385994 On ch=1 n=f5 v=70
385998 On ch=1 n=f4 v=61
386010 On ch=1 n=f#5 v=0
386022 On ch=1 n=g#5 v=0
386092 On ch=1 n=g#3 v=51
386116 On ch=1 n=f4 v=0
386146 On ch=1 n=c#6 v=80
386156 On ch=1 n=f5 v=0
386204 Par ch=1 c=64 v=0
386214 On ch=1 n=c#5 v=88
386214 On ch=1 n=g3 v=69
386228 On ch=1 n=g#3 v=0
386240 On ch=1 n=c#6 v=0
386244 Par ch=1 c=64 v=127
386316 Par ch=1 c=64 v=0
386326 On ch=1 n=c6 v=72
386326 On ch=1 n=g#3 v=72
386332 On ch=1 n=f5 v=68
386344 On ch=1 n=c#5 v=0
386350 Par ch=1 c=64 v=127
386358 On ch=1 n=g3 v=0
386408 Par ch=1 c=64 v=0
386418 On ch=1 n=c6 v=0
386424 On ch=1 n=c#5 v=73
386430 On ch=1 n=b5 v=69
386430 On ch=1 n=a3 v=75
386436 On ch=1 n=f5 v=0
386442 On ch=1 n=g#3 v=0
386444 Par ch=1 c=64 v=127
386510 Par ch=1 c=64 v=0
386528 On ch=1 n=a#5 v=70
386532 On ch=1 n=b5 v=0
386532 On ch=1 n=a#3 v=78
386534 On ch=1 n=f5 v=67
386544 On ch=1 n=a3 v=0
386548 On ch=1 n=c#5 v=0
386554 Par ch=1 c=64 v=127
386618 Par ch=1 c=64 v=0
386628 On ch=1 n=a#5 v=0
386632 On ch=1 n=c#5 v=73
386636 On ch=1 n=a5 v=69
386636 On ch=1 n=b3 v=80
386640 On ch=1 n=f5 v=0
386646 On ch=1 n=a#3 v=0
386656 Par ch=1 c=64 v=127
386720 Par ch=1 c=64 v=0
386742 On ch=1 n=f5 v=73
386744 On ch=1 n=a5 v=0
386744 On ch=1 n=g#5 v=72
386748 On ch=1 n=c4 v=83
386752 On ch=1 n=b3 v=0
386754 On ch=1 n=c#5 v=0
386764 Par ch=1 c=64 v=127
386844 Par ch=1 c=64 v=0
386852 On ch=1 n=c#4 v=86
386856 On ch=1 n=f5 v=0
386856 On ch=1 n=a#4 v=86
386868 On ch=1 n=c4 v=0
386940 Par ch=1 c=64 v=127
386964 On ch=1 n=g#5 v=0
386980 On ch=1 n=e5 v=68
386984 On ch=1 n=g5 v=67
386990 On ch=1 n=a#4 v=0
386998 On ch=1 n=c4 v=90
387006 On ch=1 n=c#4 v=0
387028 Par ch=1 c=64 v=0
387084 Par ch=1 c=64 v=127
387106 On ch=1 n=c5 v=61
387110 On ch=1 n=c6 v=68
387124 On ch=1 n=e5 v=0
387128 On ch=1 n=g5 v=0
387152 On ch=1 n=c4 v=0
387156 On ch=1 n=c5 v=0
387178 On ch=1 n=c6 v=0
387278 Par ch=1 c=64 v=0
387282 On ch=1 n=g#5 v=92
387286 On ch=1 n=f3 v=75
387332 Par ch=1 c=64 v=127
387408 On ch=1 n=f3 v=0
387416 On ch=1 n=g#6 v=79
387420 On ch=1 n=c6 v=79
387456 On ch=1 n=g#5 v=0
387520 On ch=1 n=g#6 v=0
387542 On ch=1 n=f6 v=79
387570 On ch=1 n=c6 v=0
387638 On ch=1 n=f6 v=0
387650 On ch=1 n=c#5 v=86
387654 On ch=1 n=g5 v=74
387662 Par ch=1 c=64 v=0
387698 Par ch=1 c=64 v=127
387756 On ch=1 n=g#5 v=83
387758 On ch=1 n=c#4 v=74
387762 On ch=1 n=b5 v=83
387772 On ch=1 n=g5 v=0
387838 On ch=1 n=c#5 v=0
387846 On ch=1 n=b5 v=0
387848 On ch=1 n=g#5 v=0
387854 On ch=1 n=c#4 v=0
387858 On ch=1 n=f5 v=88
387858 On ch=1 n=g4 v=74
387956 Par ch=1 c=64 v=0
387964 On ch=1 n=c#6 v=76
387966 On ch=1 n=c4 v=76
387970 On ch=1 n=f5 v=0
387976 On ch=1 n=g4 v=0
387996 Par ch=1 c=64 v=127
388058 On ch=1 n=c#6 v=0
388064 On ch=1 n=c4 v=0
388068 On ch=1 n=a#5 v=84
388070 On ch=1 n=c6 v=82
388074 On ch=1 n=e5 v=75
388166 On ch=1 n=e5 v=0
388166 On ch=1 n=g6 v=76
388170 On ch=1 n=a#5 v=0
388170 On ch=1 n=c5 v=75
388176 On ch=1 n=c6 v=0
388240 On ch=1 n=g6 v=0
388250 On ch=1 n=c5 v=0
388258 Par ch=1 c=64 v=0
388262 On ch=1 n=c6 v=75
388264 On ch=1 n=g#5 v=98
388332 Par ch=1 c=64 v=127
388362 On ch=1 n=c5 v=73
388364 On ch=1 n=f6 v=79
388366 On ch=1 n=a#6 v=82
388372 On ch=1 n=g#5 v=0
388398 On ch=1 n=c6 v=0
388460 On ch=1 n=g#6 v=76
388462 On ch=1 n=c5 v=0
388464 On ch=1 n=a#6 v=0
388466 On ch=1 n=f6 v=0
388476 On ch=1 n=f4 v=39
388496 On ch=1 n=g#6 v=0
388554 Par ch=1 c=64 v=0
388560 On ch=1 n=g6 v=79
388566 On ch=1 n=c#5 v=75
388572 On ch=1 n=f4 v=0
388608 Par ch=1 c=64 v=127
388672 On ch=1 n=a5 v=81
388678 On ch=1 n=g6 v=0
388720 On ch=1 n=c#4 v=87
388732 On ch=1 n=c#5 v=0
388772 On ch=1 n=f6 v=83
388772 On ch=1 n=a#5 v=74
388782 On ch=1 n=a5 v=0
388794 On ch=1 n=c#4 v=0
388852 On ch=1 n=a#5 v=0
388858 Par ch=1 c=64 v=0
388874 On ch=1 n=c#6 v=79
388878 On ch=1 n=f6 v=0
388878 On ch=1 n=c4 v=71
388906 Par ch=1 c=64 v=127
388942 On ch=1 n=c4 v=0
388966 On ch=1 n=c#6 v=0
388972 On ch=1 n=c6 v=81
388976 On ch=1 n=a#5 v=84
388976 On ch=1 n=e5 v=74
389068 On ch=1 n=a#5 v=0
389072 On ch=1 n=g6 v=79
389074 On ch=1 n=c5 v=73
389082 On ch=1 n=e5 v=0
389096 On ch=1 n=c6 v=0
389164 Par ch=1 c=64 v=0
389172 On ch=1 n=f4 v=68
389176 On ch=1 n=g#5 v=90
389182 On ch=1 n=g6 v=0
389186 On ch=1 n=c5 v=0
389220 Par ch=1 c=64 v=127
389278 On ch=1 n=g#6 v=80
389280 On ch=1 n=d#6 v=79
389284 On ch=1 n=f5 v=72
389298 On ch=1 n=g#5 v=0
389328 On ch=1 n=f4 v=0
389368 On ch=1 n=f5 v=0
389374 On ch=1 n=c#6 v=82
389380 On ch=1 n=g#4 v=67
389396 On ch=1 n=d#6 v=0
389424 On ch=1 n=c#6 v=0
389460 Par ch=1 c=64 v=0
389472 On ch=1 n=g#4 v=0
389474 On ch=1 n=c#6 v=82
389476 On ch=1 n=d#6 v=80
389476 On ch=1 n=d#4 v=71
389488 On ch=1 n=g#6 v=0
389512 Par ch=1 c=64 v=127
389568 On ch=1 n=d#6 v=0
389572 On ch=1 n=f#5 v=65
389574 On ch=1 n=c#6 v=0
389576 On ch=1 n=c6 v=73
389668 On ch=1 n=d#4 v=0
389672 On ch=1 n=c6 v=0
389674 On ch=1 n=f#6 v=80
389674 On ch=1 n=g#4 v=68
389680 On ch=1 n=f#5 v=0
389680 On ch=1 n=g#6 v=80
389720 On ch=1 n=f#6 v=0
389730 On ch=1 n=g#6 v=0
389766 On ch=1 n=g#4 v=0
389772 Par ch=1 c=64 v=0
389782 On ch=1 n=g#6 v=88
389782 On ch=1 n=f#6 v=87
389786 On ch=1 n=c#4 v=71
389822 Par ch=1 c=64 v=127
389866 On ch=1 n=c#4 v=0
389888 On ch=1 n=f5 v=76
389890 On ch=1 n=f6 v=86
389908 On ch=1 n=f#6 v=0
389918 On ch=1 n=g#6 v=0
389974 On ch=1 n=g#4 v=58
389998 On ch=1 n=f5 v=0
390018 On ch=1 n=f6 v=0
390022 On ch=1 n=c#7 v=83
390056 Par ch=1 c=64 v=0
390076 On ch=1 n=c#6 v=103
390084 On ch=1 n=g#4 v=0
390086 On ch=1 n=g4 v=82
390100 On ch=1 n=c#7 v=0
390104 Par ch=1 c=64 v=127
390162 Par ch=1 c=64 v=0
390170 On ch=1 n=c7 v=82
390174 On ch=1 n=g#4 v=82
390178 On ch=1 n=f6 v=84
390192 On ch=1 n=c#6 v=0
390196 On ch=1 n=g4 v=0
390206 Par ch=1 c=64 v=127
390246 Par ch=1 c=64 v=0
390252 On ch=1 n=f6 v=0
390260 On ch=1 n=c7 v=0
390264 On ch=1 n=c#6 v=82
390266 On ch=1 n=b6 v=76
390270 On ch=1 n=a4 v=73
390282 On ch=1 n=g#4 v=0
390292 Par ch=1 c=64 v=127
390340 Par ch=1 c=64 v=0
390360 On ch=1 n=a#6 v=67
390360 On ch=1 n=a#4 v=88
390364 On ch=1 n=f6 v=75
390368 On ch=1 n=b6 v=0
390374 On ch=1 n=c#6 v=0
390378 On ch=1 n=a4 v=0
390386 Par ch=1 c=64 v=127
390432 Par ch=1 c=64 v=0
390452 On ch=1 n=a#6 v=0
390456 On ch=1 n=c#6 v=76
390456 On ch=1 n=b4 v=73
390462 On ch=1 n=a6 v=71
390466 On ch=1 n=f6 v=0
390468 On ch=1 n=a#4 v=0
390478 Par ch=1 c=64 v=127
390536 Par ch=1 c=64 v=0
390552 On ch=1 n=a6 v=0
390558 On ch=1 n=g#6 v=79
390558 On ch=1 n=f6 v=73
390560 On ch=1 n=c5 v=79
390562 On ch=1 n=c#6 v=0
390566 On ch=1 n=b4 v=0
390580 Par ch=1 c=64 v=127
390620 On ch=1 n=f6 v=0
390644 Par ch=1 c=64 v=0
390654 On ch=1 n=c#5 v=84
390658 On ch=1 n=a#5 v=88
390672 On ch=1 n=c5 v=0
390692 Par ch=1 c=64 v=127
390748 Par ch=1 c=64 v=0
390754 On ch=1 n=g#6 v=0
390764 On ch=1 n=c5 v=72
390768 On ch=1 n=g6 v=73
390768 On ch=1 n=e6 v=77
390772 On ch=1 n=c#5 v=0
390776 On ch=1 n=a#5 v=0
390852 Par ch=1 c=64 v=127
390880 On ch=1 n=c6 v=53
390884 On ch=1 n=c7 v=73
390892 On ch=1 n=e6 v=0
390902 On ch=1 n=g6 v=0
390926 On ch=1 n=c7 v=0
390940 On ch=1 n=c6 v=0
390978 On ch=1 n=c5 v=0
391008 Par ch=1 c=64 v=0
391018 On ch=1 n=g#6 v=78
391020 On ch=1 n=d6 v=72
391020 On ch=1 n=b5 v=68
391024 On ch=1 n=f4 v=59
391052 Par ch=1 c=64 v=127
391068 On ch=1 n=b5 v=0
391132 On ch=1 n=g#6 v=0
391136 On ch=1 n=d#6 v=63
391138 On ch=1 n=c6 v=58
391138 On ch=1 n=g#5 v=77
391144 On ch=1 n=d6 v=0
391204 On ch=1 n=f4 v=0
391224 On ch=1 n=e6 v=67
391224 On ch=1 n=c#6 v=68
391230 On ch=1 n=c6 v=0
391230 On ch=1 n=d5 v=67
391236 On ch=1 n=g#5 v=0
391250 On ch=1 n=d#6 v=0
391292 Par ch=1 c=64 v=0
391314 On ch=1 n=d5 v=0
391320 On ch=1 n=f6 v=61
391320 On ch=1 n=b4 v=69
391322 On ch=1 n=d6 v=68
391328 On ch=1 n=e6 v=0
391332 On ch=1 n=c#6 v=0
391342 Par ch=1 c=64 v=127
391392 On ch=1 n=f6 v=0
391410 On ch=1 n=f#6 v=72
391412 On ch=1 n=d6 v=0
391418 On ch=1 n=d#6 v=61
391418 On ch=1 n=g#5 v=72
391448 On ch=1 n=b4 v=0
391462 On ch=1 n=d#6 v=0
391488 On ch=1 n=f#6 v=0
391494 On ch=1 n=g#5 v=0
391506 On ch=1 n=d5 v=66
391508 On ch=1 n=e6 v=72
391510 On ch=1 n=g6 v=68
391528 On ch=1 n=d5 v=0
391538 On ch=1 n=e6 v=0
391546 On ch=1 n=g6 v=0
391600 Par ch=1 c=64 v=0
391604 On ch=1 n=f6 v=54
391606 On ch=1 n=g#6 v=79
391612 On ch=1 n=e4 v=67
391648 Par ch=1 c=64 v=127
391660 On ch=1 n=f6 v=0
391690 On ch=1 n=g#6 v=0
391696 On ch=1 n=g6 v=66
391700 On ch=1 n=e6 v=70
391706 On ch=1 n=g5 v=56
391774 On ch=1 n=e6 v=0
391792 On ch=1 n=c#7 v=74
391794 On ch=1 n=g5 v=0
391796 On ch=1 n=g6 v=0
391796 On ch=1 n=a#6 v=63
391802 On ch=1 n=e4 v=0
391802 On ch=1 n=c#5 v=61
391818 On ch=1 n=a#6 v=0
391820 On ch=1 n=c#7 v=0
391830 On ch=1 n=c#5 v=0
391888 Par ch=1 c=64 v=0
391900 On ch=1 n=c6 v=77
391900 On ch=1 n=a5 v=71
391900 On ch=1 n=d#4 v=67
391906 On ch=1 n=f#6 v=80
391938 Par ch=1 c=64 v=127
391950 On ch=1 n=a5 v=0
391988 On ch=1 n=f#6 v=0
392006 On ch=1 n=a#5 v=78
392006 On ch=1 n=f#5 v=79
392008 On ch=1 n=c#6 v=66
392016 On ch=1 n=c6 v=0
392042 On ch=1 n=a#5 v=0
392064 On ch=1 n=c#6 v=0
392094 On ch=1 n=b5 v=71
392098 On ch=1 n=d6 v=71
392098 On ch=1 n=c5 v=64
392102 On ch=1 n=d#4 v=0
392108 On ch=1 n=f#5 v=0
392132 On ch=1 n=b5 v=0
392136 On ch=1 n=d6 v=0
392174 Par ch=1 c=64 v=0
392182 On ch=1 n=c5 v=0
392186 On ch=1 n=d#6 v=78
392186 On ch=1 n=c6 v=75
392194 On ch=1 n=a4 v=61
392214 Par ch=1 c=64 v=127
392258 On ch=1 n=d#6 v=0
392260 On ch=1 n=a4 v=0
392272 On ch=1 n=e6 v=66
392274 On ch=1 n=c6 v=0
392274 On ch=1 n=c#6 v=71
392276 On ch=1 n=f#5 v=75
392356 On ch=1 n=f#5 v=0
392356 On ch=1 n=e6 v=0
392362 On ch=1 n=d6 v=67
392366 On ch=1 n=f6 v=61
392366 On ch=1 n=c5 v=67
392376 On ch=1 n=c#6 v=0
392396 On ch=1 n=d6 v=0
392398 On ch=1 n=f6 v=0
392402 On ch=1 n=c5 v=0
392450 Par ch=1 c=64 v=0
392456 On ch=1 n=f#6 v=77
392456 On ch=1 n=d#6 v=73
392462 On ch=1 n=d4 v=65
392498 Par ch=1 c=64 v=127
392510 On ch=1 n=d#6 v=0
392534 On ch=1 n=f#6 v=0
392546 On ch=1 n=d6 v=70
392550 On ch=1 n=f6 v=68
392552 On ch=1 n=f5 v=54
392608 On ch=1 n=d4 v=0
392620 On ch=1 n=d6 v=0
392634 On ch=1 n=f5 v=0
392636 On ch=1 n=g#6 v=68
392642 On ch=1 n=b6 v=68
392642 On ch=1 n=b4 v=63
392650 On ch=1 n=f6 v=0
392664 On ch=1 n=g#6 v=0
392668 On ch=1 n=b4 v=0
392670 On ch=1 n=b6 v=0
392726 Par ch=1 c=64 v=0
392736 On ch=1 n=c#4 v=66
392742 On ch=1 n=e6 v=77
392742 On ch=1 n=a#5 v=80
392744 On ch=1 n=g5 v=73
392770 Par ch=1 c=64 v=127
392786 On ch=1 n=e6 v=0
392798 On ch=1 n=a#5 v=0
392820 On ch=1 n=g5 v=0
392844 On ch=1 n=b5 v=78
392844 On ch=1 n=g#5 v=83
392846 On ch=1 n=e5 v=61
392852 On ch=1 n=c#4 v=0
392886 On ch=1 n=g#5 v=0
392896 On ch=1 n=b5 v=0
392924 On ch=1 n=a#4 v=64
392932 On ch=1 n=c6 v=72
392932 On ch=1 n=a5 v=79
392936 On ch=1 n=e5 v=0
392966 On ch=1 n=a5 v=0
392970 On ch=1 n=c6 v=0
393010 Par ch=1 c=64 v=0
393020 On ch=1 n=c#6 v=83
393020 On ch=1 n=a#5 v=80
393026 On ch=1 n=g4 v=63
393040 On ch=1 n=a#4 v=0
393044 Par ch=1 c=64 v=127
393072 On ch=1 n=a#5 v=0
393078 On ch=1 n=c#6 v=0
393106 On ch=1 n=d6 v=73
393106 On ch=1 n=b5 v=68
393112 On ch=1 n=e5 v=57
393158 On ch=1 n=g4 v=0
393162 On ch=1 n=b5 v=0
393192 On ch=1 n=c#6 v=49
393196 On ch=1 n=d#6 v=79
393202 On ch=1 n=a#4 v=58
393208 On ch=1 n=c#6 v=0
393214 On ch=1 n=d6 v=0
393238 On ch=1 n=d#6 v=0
393242 On ch=1 n=e5 v=0
393278 On ch=1 n=a#4 v=0
393282 On ch=1 n=e6 v=70
393286 On ch=1 n=c#6 v=77
393288 On ch=1 n=c4 v=62
393292 Par ch=1 c=64 v=0
393332 Par ch=1 c=64 v=127
393372 On ch=1 n=f6 v=63
393374 On ch=1 n=d6 v=71
393378 On ch=1 n=e5 v=60
393384 On ch=1 n=e6 v=0
393386 On ch=1 n=c#6 v=0
393396 On ch=1 n=c4 v=0
393430 On ch=1 n=f6 v=0
393452 On ch=1 n=d6 v=0
393452 On ch=1 n=a#4 v=72
393460 On ch=1 n=d#6 v=79
393462 On ch=1 n=f#6 v=83
393468 On ch=1 n=e5 v=0
393480 On ch=1 n=a#4 v=0
393498 On ch=1 n=d#6 v=0
393504 On ch=1 n=f#6 v=0
393548 Par ch=1 c=64 v=0
393554 On ch=1 n=g6 v=73
393556 On ch=1 n=e6 v=73
393558 On ch=1 n=b3 v=67
393594 Par ch=1 c=64 v=127
393604 On ch=1 n=b3 v=0
393644 On ch=1 n=a6 v=66
393644 On ch=1 n=f#6 v=67
393650 On ch=1 n=e5 v=56
393662 On ch=1 n=e6 v=0
393664 On ch=1 n=g6 v=0
393730 On ch=1 n=a#4 v=61
393734 On ch=1 n=g6 v=77
393734 On ch=1 n=e6 v=73
393736 On ch=1 n=a6 v=0
393746 On ch=1 n=f#6 v=0
393756 On ch=1 n=e5 v=0
393774 On ch=1 n=g6 v=0
393814 Par ch=1 c=64 v=0
393822 On ch=1 n=d#6 v=79
393826 On ch=1 n=a#4 v=0
393826 On ch=1 n=f#6 v=81
393826 On ch=1 n=g4 v=63
393836 On ch=1 n=e6 v=0
393856 Par ch=1 c=64 v=127
393878 On ch=1 n=f#6 v=0
393900 On ch=1 n=d#6 v=0
393906 On ch=1 n=g6 v=66
393910 On ch=1 n=e6 v=64
393914 On ch=1 n=e5 v=60
393974 On ch=1 n=e6 v=0
393980 On ch=1 n=g4 v=0
393996 On ch=1 n=a#4 v=66
394002 On ch=1 n=g6 v=0
394002 On ch=1 n=f#6 v=77
394004 On ch=1 n=a6 v=66
394014 On ch=1 n=e5 v=0
394024 On ch=1 n=a#4 v=0
394030 On ch=1 n=f#6 v=0
394034 On ch=1 n=a6 v=0
394098 Par ch=1 c=64 v=0
394110 On ch=1 n=a#6 v=77
394110 On ch=1 n=g6 v=68
394110 On ch=1 n=a#3 v=73
394148 Par ch=1 c=64 v=127
394156 On ch=1 n=a#3 v=0
394200 On ch=1 n=g6 v=0
394202 On ch=1 n=a#6 v=0
394202 On ch=1 n=g#6 v=75
394202 On ch=1 n=e5 v=70
394208 On ch=1 n=c7 v=71
394288 On ch=1 n=c7 v=0
394296 On ch=1 n=e5 v=0
394296 On ch=1 n=c5 v=65
394300 On ch=1 n=c#7 v=79
394300 On ch=1 n=a#6 v=80
394308 On ch=1 n=c5 v=0
394314 On ch=1 n=g#6 v=0
394332 On ch=1 n=a#6 v=0
394350 On ch=1 n=c#7 v=0
394422 On ch=1 n=c7 v=72
394428 On ch=1 n=g#6 v=75
394428 Par ch=1 c=64 v=0
394434 On ch=1 n=g#3 v=90
394466 Par ch=1 c=64 v=127
394480 On ch=1 n=g#3 v=0
394536 On ch=1 n=c7 v=0
394546 On ch=1 n=g#6 v=0
394552 On ch=1 n=g7 v=80
394552 On ch=1 n=d#7 v=79
394552 On ch=1 n=f5 v=54
394632 On ch=1 n=d#7 v=0
394632 On ch=1 n=g7 v=0
394642 On ch=1 n=c#7 v=72
394644 On ch=1 n=f7 v=80
394650 On ch=1 n=c#5 v=42
394698 On ch=1 n=c#5 v=0
394716 On ch=1 n=f7 v=0
394722 Par ch=1 c=64 v=0
394734 On ch=1 n=f5 v=0
394738 On ch=1 n=c7 v=72
394738 On ch=1 n=g#4 v=66
394746 On ch=1 n=c#7 v=0
394768 Par ch=1 c=64 v=127
394824 On ch=1 n=d#7 v=79
394824 On ch=1 n=f5 v=73
394842 On ch=1 n=c7 v=0
394868 On ch=1 n=g#4 v=0
394908 On ch=1 n=c5 v=66
394912 On ch=1 n=c#7 v=72
394912 On ch=1 n=a#6 v=77
394916 On ch=1 n=d#7 v=0
394918 On ch=1 n=f5 v=0
394928 On ch=1 n=c5 v=0
394988 Par ch=1 c=64 v=0
394998 On ch=1 n=c#7 v=0
395002 On ch=1 n=g#6 v=75
395002 On ch=1 n=a#3 v=67
395008 On ch=1 n=a#6 v=0
395030 Par ch=1 c=64 v=127
395040 On ch=1 n=a#3 v=0
395052 On ch=1 n=g#6 v=0
395092 On ch=1 n=c7 v=71
395092 On ch=1 n=g#6 v=67
395096 On ch=1 n=f5 v=75
395172 On ch=1 n=g#6 v=0
395174 On ch=1 n=c7 v=0
395182 On ch=1 n=a#6 v=73
395182 On ch=1 n=g6 v=71
395188 On ch=1 n=c#5 v=58
395210 On ch=1 n=c#5 v=0
395220 On ch=1 n=f5 v=0
395260 On ch=1 n=g6 v=0
395262 Par ch=1 c=64 v=0
395272 On ch=1 n=c6 v=73
395278 On ch=1 n=a#6 v=0
395288 On ch=1 n=c4 v=53
395310 Par ch=1 c=64 v=127
395336 On ch=1 n=c4 v=0
395364 On ch=1 n=f5 v=61
395366 On ch=1 n=g6 v=67
395370 On ch=1 n=a#6 v=79
395386 On ch=1 n=c6 v=0
395446 On ch=1 n=g6 v=0
395454 On ch=1 n=c5 v=66
395456 On ch=1 n=a#6 v=0
395456 On ch=1 n=g#6 v=70
395460 On ch=1 n=f6 v=72
395476 On ch=1 n=f5 v=0
395522 On ch=1 n=g#6 v=0
395526 On ch=1 n=f6 v=0
395546 On ch=1 n=c5 v=0
395548 On ch=1 n=g#4 v=66
395550 On ch=1 n=g#5 v=83
395636 On ch=1 n=f5 v=55
395638 On ch=1 n=d#6 v=67
395640 On ch=1 n=g6 v=69
395652 On ch=1 n=g#5 v=0
395682 On ch=1 n=g#4 v=0
395706 On ch=1 n=d#6 v=0
395720 On ch=1 n=g6 v=0
395722 On ch=1 n=c5 v=49
395726 On ch=1 n=f5 v=0
395726 On ch=1 n=c#6 v=68
395728 On ch=1 n=c5 v=0
395728 On ch=1 n=f6 v=71
395794 On ch=1 n=f6 v=0
395804 Par ch=1 c=64 v=0
395812 On ch=1 n=c#6 v=0
395818 On ch=1 n=g5 v=68
395824 On ch=1 n=c4 v=83
395850 Par ch=1 c=64 v=127
395864 On ch=1 n=c4 v=0
395908 On ch=1 n=c6 v=68
395912 On ch=1 n=e6 v=69
395916 On ch=1 n=e5 v=43
395936 On ch=1 n=g5 v=0
395992 On ch=1 n=e6 v=0
395998 On ch=1 n=a#5 v=81
395998 On ch=1 n=c5 v=66
396004 On ch=1 n=c6 v=0
396006 On ch=1 n=e5 v=0
396020 On ch=1 n=c5 v=0
396022 On ch=1 n=a#5 v=0
396096 Par ch=1 c=64 v=0
396102 On ch=1 n=c#4 v=78
396106 On ch=1 n=a#5 v=79
396144 Par ch=1 c=64 v=127
396186 On ch=1 n=e6 v=70
396186 On ch=1 n=c#5 v=77
396190 On ch=1 n=g6 v=74
396202 On ch=1 n=a#5 v=0
396276 On ch=1 n=g#4 v=61
396278 On ch=1 n=g6 v=0
396282 On ch=1 n=f6 v=71
396282 On ch=1 n=g#5 v=86
396290 On ch=1 n=c#4 v=0
396294 On ch=1 n=e6 v=0
396300 On ch=1 n=c#5 v=0
396352 Par ch=1 c=64 v=0
396384 On ch=1 n=g#4 v=0
396384 On ch=1 n=f4 v=66
396402 Par ch=1 c=64 v=127
396434 On ch=1 n=f4 v=0
396452 On ch=1 n=f6 v=0
396460 On ch=1 n=d#6 v=73
396466 On ch=1 n=c#5 v=78
396476 On ch=1 n=g#5 v=0
396548 On ch=1 n=a#5 v=77
396552 On ch=1 n=d#6 v=0
396552 On ch=1 n=c#6 v=67
396556 On ch=1 n=g#4 v=63
396566 On ch=1 n=c#5 v=0
396582 On ch=1 n=c#6 v=0
396610 On ch=1 n=g#4 v=0
396634 Par ch=1 c=64 v=0
396642 On ch=1 n=g#5 v=73
396646 On ch=1 n=a#3 v=86
396658 On ch=1 n=a#5 v=0
396674 Par ch=1 c=64 v=127
396698 On ch=1 n=a#3 v=0
396718 On ch=1 n=c#5 v=79
396722 On ch=1 n=g#5 v=0
396732 On ch=1 n=c6 v=73
396822 On ch=1 n=a#5 v=73
396822 On ch=1 n=g4 v=67
396826 On ch=1 n=g5 v=61
396830 On ch=1 n=c6 v=0
396830 On ch=1 n=c#5 v=0
396854 On ch=1 n=g4 v=0
396910 Par ch=1 c=64 v=0
396920 On ch=1 n=f5 v=71
396922 On ch=1 n=c4 v=82
396924 On ch=1 n=g#5 v=77
396936 On ch=1 n=a#5 v=0
396938 On ch=1 n=g5 v=0
397024 On ch=1 n=c5 v=71
397034 On ch=1 n=c4 v=0
397038 Par ch=1 c=64 v=127
397116 On ch=1 n=c#5 v=75
397136 On ch=1 n=c5 v=0
397208 Par ch=1 c=64 v=0
397218 On ch=1 n=g5 v=73
397220 On ch=1 n=c#5 v=0
397220 On ch=1 n=c5 v=74
397232 On ch=1 n=f5 v=0
397236 On ch=1 n=g#5 v=0
397296 Par ch=1 c=64 v=127
397304 On ch=1 n=b4 v=73
397320 On ch=1 n=c5 v=0
397394 On ch=1 n=b4 v=0
397394 On ch=1 n=c5 v=77
397478 Par ch=1 c=64 v=0
397492 On ch=1 n=e5 v=73
397492 On ch=1 n=g4 v=67
397502 On ch=1 n=c5 v=0
397532 Par ch=1 c=64 v=127
397586 On ch=1 n=g4 v=0
397592 On ch=1 n=c5 v=72
397626 On ch=1 n=e5 v=0
397672 On ch=1 n=a4 v=68
397676 On ch=1 n=c5 v=0
397696 On ch=1 n=c6 v=68
397704 On ch=1 n=d#5 v=73
397712 On ch=1 n=g5 v=0
397742 On ch=1 n=d#5 v=0
397764 Par ch=1 c=64 v=0
397766 On ch=1 n=c6 v=0
397774 On ch=1 n=a4 v=0
397784 On ch=1 n=d5 v=51
397784 On ch=1 n=a#4 v=81
397790 On ch=1 n=f5 v=61
397828 Par ch=1 c=64 v=127
397886 On ch=1 n=f4 v=74
397896 On ch=1 n=a#4 v=0
397922 On ch=1 n=d5 v=0
397928 On ch=1 n=f5 v=0
397960 On ch=1 n=g4 v=71
397968 On ch=1 n=a#5 v=81
397976 On ch=1 n=f4 v=0
397976 On ch=1 n=c#5 v=86
398016 On ch=1 n=c#5 v=0
398038 On ch=1 n=a#5 v=0
398048 Par ch=1 c=64 v=0
398076 On ch=1 n=c5 v=68
398080 On ch=1 n=d#5 v=70
398086 On ch=1 n=g4 v=0
398086 On ch=1 n=g#4 v=86
398098 Par ch=1 c=64 v=127
398176 On ch=1 n=g#4 v=0
398188 On ch=1 n=d#4 v=60
398212 On ch=1 n=c5 v=0
398228 On ch=1 n=d#5 v=0
398256 On ch=1 n=f4 v=71
398268 On ch=1 n=d#4 v=0
398272 On ch=1 n=g#5 v=81
398280 On ch=1 n=c5 v=81
398320 On ch=1 n=c5 v=0
398324 Par ch=1 c=64 v=0
398342 On ch=1 n=g#5 v=0
398368 On ch=1 n=d5 v=67
398374 On ch=1 n=b4 v=61
398374 On ch=1 n=g4 v=87
398382 On ch=1 n=f4 v=0
398390 Par ch=1 c=64 v=127
398478 On ch=1 n=b4 v=0
398478 On ch=1 n=d4 v=61
398516 On ch=1 n=g4 v=0
398530 On ch=1 n=d5 v=0
398544 On ch=1 n=e4 v=64
398558 On ch=1 n=d4 v=0
398576 On ch=1 n=g5 v=75
398586 On ch=1 n=a#4 v=92
398622 Par ch=1 c=64 v=0
398626 On ch=1 n=a#4 v=0
398646 On ch=1 n=g5 v=0
398656 On ch=1 n=c5 v=66
398656 On ch=1 n=a4 v=65
398666 On ch=1 n=e4 v=0
398670 On ch=1 n=f4 v=86
398680 Par ch=1 c=64 v=127
398760 On ch=1 n=c4 v=69
398770 On ch=1 n=a4 v=0
398788 On ch=1 n=f4 v=0
398840 On ch=1 n=c#4 v=75
398844 On ch=1 n=c4 v=0
398854 On ch=1 n=c5 v=0
398884 On ch=1 n=f5 v=85
398886 On ch=1 n=g#4 v=90
398942 On ch=1 n=g#4 v=0
398960 On ch=1 n=c#5 v=75
398966 On ch=1 n=g4 v=74
398966 On ch=1 n=a#3 v=85
398972 On ch=1 n=c#4 v=0
398972 Par ch=1 c=64 v=0
399030 Par ch=1 c=64 v=127
399064 On ch=1 n=a3 v=69
399078 On ch=1 n=a#3 v=0
399148 On ch=1 n=a3 v=0
399154 On ch=1 n=c#5 v=0
399154 On ch=1 n=a#3 v=79
399232 On ch=1 n=f5 v=0
399242 Par ch=1 c=64 v=0
399250 On ch=1 n=e5 v=74
399250 On ch=1 n=c5 v=82
399256 On ch=1 n=c4 v=87
399278 On ch=1 n=a#3 v=0
399294 Par ch=1 c=64 v=127
399350 On ch=1 n=b3 v=73
399356 On ch=1 n=c4 v=0
399436 On ch=1 n=g4 v=0
399446 On ch=1 n=c4 v=79
399448 On ch=1 n=c5 v=0
399458 On ch=1 n=b3 v=0
399458 On ch=1 n=e5 v=0
399538 On ch=1 n=d#5 v=80
399538 On ch=1 n=c5 v=82
399542 On ch=1 n=f4 v=81
399546 On ch=1 n=a3 v=79
399552 Par ch=1 c=64 v=0
399566 On ch=1 n=c4 v=0
399602 Par ch=1 c=64 v=127
399648 On ch=1 n=g#3 v=74
399664 On ch=1 n=a3 v=0
399704 On ch=1 n=c5 v=0
399736 On ch=1 n=a3 v=71
399742 On ch=1 n=g#3 v=0
399828 Par ch=1 c=64 v=0
399834 On ch=1 n=a#4 v=80
399840 On ch=1 n=c#5 v=80
399840 On ch=1 n=a#3 v=72
399850 On ch=1 n=a3 v=0
399850 On ch=1 n=d#5 v=0
399888 Par ch=1 c=64 v=127
399934 On ch=1 n=c4 v=61
399940 On ch=1 n=a#3 v=0
400030 On ch=1 n=g#3 v=67
400066 On ch=1 n=f4 v=0
400072 On ch=1 n=c4 v=0
400122 Par ch=1 c=64 v=0
400126 On ch=1 n=g#3 v=0
400134 On ch=1 n=e4 v=80
400134 On ch=1 n=g3 v=86
400176 Par ch=1 c=64 v=127
400236 On ch=1 n=g#3 v=55
400238 On ch=1 n=c#5 v=0
400240 On ch=1 n=a#4 v=0
400242 On ch=1 n=g3 v=0
400316 On ch=1 n=g#3 v=0
400322 On ch=1 n=f3 v=62
400350 On ch=1 n=e4 v=0
400376 On ch=1 n=f4 v=79
400388 On ch=1 n=c5 v=58
400408 On ch=1 n=c5 v=0
400442 Par ch=1 c=64 v=0
400448 On ch=1 n=c5 v=80
400448 On ch=1 n=a#4 v=79
400454 On ch=1 n=f3 v=0
400454 On ch=1 n=g4 v=84
400456 On ch=1 n=e3 v=79
400462 On ch=1 n=f4 v=0
400520 Par ch=1 c=64 v=127
400554 On ch=1 n=f3 v=71
400570 On ch=1 n=e3 v=0
400646 On ch=1 n=a#4 v=0
400650 On ch=1 n=f3 v=0
400652 On ch=1 n=g3 v=82
400702 On ch=1 n=g4 v=0
400750 Par ch=1 c=64 v=0
400754 On ch=1 n=g3 v=0
400754 On ch=1 n=g#4 v=81
400760 On ch=1 n=f3 v=75
400762 On ch=1 n=f4 v=76
400808 Par ch=1 c=64 v=127
400854 On ch=1 n=g3 v=86
400862 On ch=1 n=f3 v=0
400872 On ch=1 n=c5 v=0
400890 On ch=1 n=g#4 v=0
400944 On ch=1 n=g3 v=0
400950 On ch=1 n=d#3 v=74
400988 On ch=1 n=f4 v=0
401064 On ch=1 n=g#4 v=76
401066 On ch=1 n=f5 v=80
401066 On ch=1 n=f4 v=79
401072 On ch=1 n=c#3 v=79
401072 Par ch=1 c=64 v=0
401096 On ch=1 n=d#3 v=0
401116 Par ch=1 c=64 v=127
401164 On ch=1 n=d#3 v=84
401176 On ch=1 n=c#3 v=0
401262 On ch=1 n=d#3 v=0
401284 On ch=1 n=c3 v=66
401306 On ch=1 n=g#4 v=0
401308 On ch=1 n=f5 v=0
401380 On ch=1 n=f4 v=0
401384 On ch=1 n=a#2 v=95
401404 On ch=1 n=f5 v=77
401404 On ch=1 n=g4 v=80
401404 On ch=1 n=f4 v=81
401410 On ch=1 n=c3 v=0
401414 Par ch=1 c=64 v=0
401472 Par ch=1 c=64 v=127
401516 On ch=1 n=a#2 v=0
401522 On ch=1 n=c3 v=43
401616 On ch=1 n=c#3 v=83
401624 On ch=1 n=f5 v=0
401630 On ch=1 n=c3 v=0
401634 On ch=1 n=f4 v=0
401716 On ch=1 n=c3 v=67
401722 On ch=1 n=a4 v=80
401722 On ch=1 n=d#4 v=84
401728 On ch=1 n=c#3 v=0
401738 Par ch=1 c=64 v=0
401746 On ch=1 n=g4 v=0
401786 Par ch=1 c=64 v=127
401828 On ch=1 n=f3 v=68
401838 On ch=1 n=c3 v=0
401920 On ch=1 n=d#4 v=0
401920 On ch=1 n=d#3 v=69
401944 On ch=1 n=f3 v=0
402006 Par ch=1 c=64 v=0
402010 On ch=1 n=a#4 v=73
402018 On ch=1 n=f4 v=72
402018 On ch=1 n=c#3 v=84
402026 On ch=1 n=a4 v=0
402028 On ch=1 n=d#3 v=0
402064 Par ch=1 c=64 v=127
402120 On ch=1 n=d#3 v=79
402150 On ch=1 n=c#3 v=0
402176 On ch=1 n=a#4 v=0
402206 On ch=1 n=f4 v=0
402210 On ch=1 n=f3 v=73
402216 On ch=1 n=d#3 v=0
402294 On ch=1 n=f3 v=0
402300 On ch=1 n=c5 v=79
402300 On ch=1 n=a#4 v=83
402300 On ch=1 n=g4 v=79
402304 Par ch=1 c=64 v=0
402312 On ch=1 n=e3 v=98
402348 Par ch=1 c=64 v=127
402398 On ch=1 n=f3 v=69
402416 On ch=1 n=e3 v=0
402448 On ch=1 n=g4 v=0
402448 On ch=1 n=c5 v=0
402456 On ch=1 n=a#4 v=0
402490 On ch=1 n=g3 v=80
402496 On ch=1 n=f3 v=0
402572 On ch=1 n=g3 v=0
402578 On ch=1 n=g#5 v=82
402580 On ch=1 n=c5 v=84
402580 Par ch=1 c=64 v=0
402586 On ch=1 n=g#4 v=79
402592 On ch=1 n=f3 v=98
402630 Par ch=1 c=64 v=127
402680 On ch=1 n=a#3 v=86
402700 On ch=1 n=f3 v=0
402760 On ch=1 n=g#3 v=81
402782 On ch=1 n=c5 v=0
402784 On ch=1 n=a#3 v=0
402788 On ch=1 n=g#5 v=0
402804 On ch=1 n=g#4 v=0
402862 On ch=1 n=c5 v=80
402862 On ch=1 n=a#4 v=87
402864 On ch=1 n=g#3 v=0
402864 On ch=1 n=g3 v=100
402868 On ch=1 n=e5 v=79
402876 Par ch=1 c=64 v=0
402924 Par ch=1 c=64 v=127
402968 On ch=1 n=g#3 v=86
402992 On ch=1 n=g3 v=0
403046 On ch=1 n=a#4 v=0
403050 On ch=1 n=a#3 v=86
403056 On ch=1 n=g#3 v=0
403072 On ch=1 n=c5 v=0
403136 On ch=1 n=e5 v=0
403140 On ch=1 n=a#3 v=0
403146 On ch=1 n=f5 v=83
403146 On ch=1 n=g#4 v=74
403152 On ch=1 n=c5 v=79
403152 On ch=1 n=g#3 v=91
403156 Par ch=1 c=64 v=0
403198 Par ch=1 c=64 v=127
403236 On ch=1 n=a#3 v=82
403276 On ch=1 n=g#3 v=0
403304 On ch=1 n=g#4 v=0
403340 On ch=1 n=c4 v=76
403344 On ch=1 n=a#3 v=0
403372 On ch=1 n=c5 v=0
403422 On ch=1 n=f5 v=0
403424 On ch=1 n=c5 v=79
403428 On ch=1 n=f#4 v=83
403432 On ch=1 n=d#5 v=75
403432 Par ch=1 c=64 v=0
403436 On ch=1 n=a3 v=103
403454 On ch=1 n=c4 v=0
403486 Par ch=1 c=64 v=127
403526 On ch=1 n=g#3 v=81
403550 On ch=1 n=a3 v=0
403592 On ch=1 n=c5 v=0
403620 On ch=1 n=a3 v=79
403624 On ch=1 n=g#3 v=0
403626 On ch=1 n=d#5 v=0
403674 On ch=1 n=f#4 v=0
403724 On ch=1 n=a#4 v=79
403724 On ch=1 n=f4 v=79
403728 On ch=1 n=c#5 v=79
403728 On ch=1 n=a#3 v=92
403736 Par ch=1 c=64 v=0
403750 On ch=1 n=a3 v=0
403788 Par ch=1 c=64 v=127
403834 On ch=1 n=c4 v=68
403848 On ch=1 n=a#3 v=0
403872 On ch=1 n=c#5 v=0
403888 On ch=1 n=a#4 v=0
403924 On ch=1 n=c#4 v=73
403936 On ch=1 n=c4 v=0
403944 On ch=1 n=f4 v=0
404014 On ch=1 n=c#4 v=0
404030 On ch=1 n=g#4 v=72
404030 On ch=1 n=c4 v=83
404032 On ch=1 n=c5 v=81
404038 On ch=1 n=f4 v=84
404050 Par ch=1 c=64 v=0
404128 On ch=1 n=g#3 v=71
404128 Par ch=1 c=64 v=127
404142 Par ch=1 c=64 v=0
404156 Par ch=1 c=64 v=127
404160 On ch=1 n=c4 v=0
404184 Par ch=1 c=64 v=0
404218 On ch=1 n=f3 v=76
404228 On ch=1 n=g#3 v=0
404320 On ch=1 n=c#3 v=82
404336 On ch=1 n=f3 v=0
404420 On ch=1 n=c3 v=98
404440 Par ch=1 c=64 v=127
404446 On ch=1 n=c#3 v=0
404450 On ch=1 n=c5 v=0
404496 On ch=1 n=g#4 v=0
404506 On ch=1 n=f4 v=0
404540 On ch=1 n=c3 v=0
404540 On ch=1 n=c#3 v=83
404616 Par ch=1 c=64 v=0
404648 On ch=1 n=c#3 v=0
404652 On ch=1 n=c5 v=84
404654 On ch=1 n=a#4 v=79
404660 On ch=1 n=e4 v=83
404660 On ch=1 n=c3 v=73
404704 Par ch=1 c=64 v=127
404786 On ch=1 n=g#3 v=73
404868 On ch=1 n=e4 v=0
404916 On ch=1 n=a#4 v=0
404916 On ch=1 n=g3 v=71
404922 On ch=1 n=g#3 v=0
404922 On ch=1 n=c5 v=0
404930 On ch=1 n=c3 v=0
405060 On ch=1 n=g3 v=0
405060 Par ch=1 c=64 v=0
405064 On ch=1 n=g#4 v=81
405072 On ch=1 n=f5 v=79
405072 On ch=1 n=c4 v=99
405072 On ch=1 n=f3 v=98
405098 Par ch=1 c=64 v=127
405216 On ch=1 n=c4 v=0
405220 On ch=1 n=a4 v=79
405222 On ch=1 n=f3 v=0
405222 On ch=1 n=g#4 v=0
405228 On ch=1 n=f5 v=0
405244 On ch=1 n=a4 v=0
405342 On ch=1 n=f#5 v=88
405344 On ch=1 n=c5 v=77
405386 On ch=1 n=d#4 v=76
405394 On ch=1 n=c5 v=0
405414 Par ch=1 c=64 v=0
405432 On ch=1 n=a5 v=82
405438 On ch=1 n=d5 v=88
405444 On ch=1 n=f#5 v=0
405448 Par ch=1 c=64 v=127
405474 On ch=1 n=d#4 v=0
405506 On ch=1 n=a5 v=0
405528 On ch=1 n=d#5 v=84
405532 On ch=1 n=d5 v=0
405568 On ch=1 n=d#5 v=0
405614 On ch=1 n=d#5 v=79
405618 On ch=1 n=c6 v=84
405634 Par ch=1 c=64 v=0
405662 On ch=1 n=a4 v=79
405672 Par ch=1 c=64 v=127
405676 On ch=1 n=d#5 v=0
405686 Par ch=1 c=64 v=0
405708 On ch=1 n=d#6 v=81
405710 On ch=1 n=f#5 v=98
405726 On ch=1 n=c6 v=0
405738 Par ch=1 c=64 v=127
405764 On ch=1 n=a4 v=0
405790 On ch=1 n=f#5 v=0
405790 On ch=1 n=d#6 v=0
405800 On ch=1 n=a5 v=70
405828 On ch=1 n=a5 v=0
405892 On ch=1 n=c6 v=74
405898 On ch=1 n=f#6 v=79
405938 On ch=1 n=d#5 v=77
405948 On ch=1 n=c6 v=0
405974 Par ch=1 c=64 v=0
405982 On ch=1 n=a6 v=84
405984 On ch=1 n=d6 v=84
405988 On ch=1 n=f#6 v=0
406004 On ch=1 n=d#5 v=0
406006 Par ch=1 c=64 v=127
406040 On ch=1 n=d6 v=0
406058 On ch=1 n=a6 v=0
406078 On ch=1 n=d#6 v=90
406106 On ch=1 n=d#6 v=0
406162 On ch=1 n=d#6 v=79
406168 On ch=1 n=c7 v=83
406168 Par ch=1 c=64 v=0
406204 Par ch=1 c=64 v=127
406214 On ch=1 n=a5 v=79
406220 On ch=1 n=d#6 v=0
406256 On ch=1 n=f#6 v=88
406260 On ch=1 n=d#7 v=86
406276 On ch=1 n=a5 v=0
406278 On ch=1 n=c7 v=0
406310 On ch=1 n=f#6 v=0
406338 On ch=1 n=d#7 v=0
406352 On ch=1 n=a6 v=79
406378 On ch=1 n=a6 v=0
406442 On ch=1 n=c7 v=84
406444 On ch=1 n=f#7 v=79
406492 On ch=1 n=d#6 v=80
406496 On ch=1 n=c7 v=0
406522 On ch=1 n=f#7 v=0
406524 On ch=1 n=a7 v=84
406536 Par ch=1 c=64 v=0
406544 On ch=1 n=d7 v=88
406550 Par ch=1 c=64 v=127
406588 On ch=1 n=d#6 v=0
406616 On ch=1 n=a7 v=0
406626 On ch=1 n=d#7 v=88
406644 On ch=1 n=d7 v=0
406656 On ch=1 n=d#7 v=0
406728 On ch=1 n=f#7 v=79
406786 On ch=1 n=a6 v=76
406790 On ch=1 n=f#7 v=0
406852 Par ch=1 c=64 v=0
406864 On ch=1 n=d#8 v=68
406864 On ch=1 n=a7 v=79
406864 On ch=1 n=c7 v=79
406884 Par ch=1 c=64 v=127
407184 On ch=1 n=a4 v=86
407190 On ch=1 n=a5 v=84
407192 On ch=1 n=d#5 v=86
407192 On ch=1 n=f#3 v=96
407194 On ch=1 n=f#4 v=95
407194 Par ch=1 c=64 v=0
407238 On ch=1 n=a6 v=0
407240 Par ch=1 c=64 v=127
407278 On ch=1 n=c7 v=0
407278 On ch=1 n=a7 v=0
407278 On ch=1 n=d#8 v=0
407290 On ch=1 n=f#3 v=0
407296 On ch=1 n=f#4 v=0
407304 On ch=1 n=f5 v=81
407316 On ch=1 n=a5 v=0
407320 On ch=1 n=f4 v=98
407322 On ch=1 n=f3 v=88
407328 On ch=1 n=d#5 v=0
407350 On ch=1 n=f3 v=0
407354 On ch=1 n=f4 v=0
407358 On ch=1 n=a4 v=0
407410 On ch=1 n=f#5 v=73
407412 On ch=1 n=d#4 v=109
407418 On ch=1 n=d#3 v=109
407434 On ch=1 n=f5 v=0
407444 On ch=1 n=d#4 v=0
407446 On ch=1 n=d#3 v=0
407514 On ch=1 n=a#5 v=82
407514 Par ch=1 c=64 v=0
407516 On ch=1 n=f#5 v=0
407522 On ch=1 n=f5 v=86
407522 On ch=1 n=a#4 v=90
407526 On ch=1 n=c#4 v=109
407530 On ch=1 n=c#3 v=109
407552 Par ch=1 c=64 v=127
407576 On ch=1 n=c#3 v=0
407592 On ch=1 n=c#4 v=0
407624 On ch=1 n=c3 v=82
407626 On ch=1 n=c4 v=100
407702 On ch=1 n=f5 v=0
407716 Par ch=1 c=64 v=0
407728 On ch=1 n=c4 v=0
407728 On ch=1 n=a#3 v=105
407734 On ch=1 n=a#4 v=0
407736 On ch=1 n=a#2 v=82
407742 On ch=1 n=a#5 v=0
407744 On ch=1 n=c3 v=0
407750 Par ch=1 c=64 v=127
407830 Par ch=1 c=64 v=0
407836 On ch=1 n=a#3 v=0
407836 On ch=1 n=c#6 v=94
407842 On ch=1 n=a#5 v=86
407842 On ch=1 n=f5 v=88
407842 On ch=1 n=c#5 v=91
407842 On ch=1 n=g#3 v=105
407848 On ch=1 n=g#2 v=82
407856 On ch=1 n=a#2 v=0
407868 Par ch=1 c=64 v=127
407906 On ch=1 n=g#3 v=0
407908 On ch=1 n=g#2 v=0
407926 Par ch=1 c=64 v=0
407944 On ch=1 n=g2 v=82
407952 On ch=1 n=g3 v=109
407968 Par ch=1 c=64 v=127
407996 On ch=1 n=g3 v=0
408004 On ch=1 n=g2 v=0
408056 On ch=1 n=g2 v=82
408068 On ch=1 n=g3 v=109
408070 On ch=1 n=a#5 v=0
408086 On ch=1 n=f5 v=0
408114 On ch=1 n=g3 v=0
408114 On ch=1 n=c#6 v=0
408116 On ch=1 n=g2 v=0
408144 On ch=1 n=c#5 v=0
408176 On ch=1 n=g3 v=105
408180 On ch=1 n=c6 v=81
408180 On ch=1 n=a#5 v=70
408180 On ch=1 n=c5 v=82
408184 On ch=1 n=e5 v=83
408184 On ch=1 n=g2 v=82
408192 Par ch=1 c=64 v=0
408220 Par ch=1 c=64 v=127
408244 On ch=1 n=g2 v=0
408270 Par ch=1 c=64 v=0
408280 On ch=1 n=g3 v=0
408290 Par ch=1 c=64 v=127
408296 On ch=1 n=c3 v=98
408312 On ch=1 n=c2 v=82
408338 On ch=1 n=c3 v=0
408372 On ch=1 n=c2 v=0
408380 On ch=1 n=a#5 v=0
408382 On ch=1 n=c6 v=0
408394 On ch=1 n=e5 v=0
408406 On ch=1 n=c3 v=98
408414 On ch=1 n=c5 v=0
408424 On ch=1 n=c2 v=82
408484 On ch=1 n=c2 v=0
408516 Par ch=1 c=64 v=0
408522 On ch=1 n=e5 v=80
408522 On ch=1 n=a#4 v=80
408522 On ch=1 n=e4 v=103
408522 On ch=1 n=c#3 v=88
408530 On ch=1 n=c3 v=0
408536 On ch=1 n=c#2 v=82
408596 On ch=1 n=c#2 v=0
408598 Par ch=1 c=64 v=127
408626 On ch=1 n=c#3 v=0
408660 On ch=1 n=c3 v=88
408664 On ch=1 n=c2 v=82
408714 On ch=1 n=c3 v=0
408724 On ch=1 n=c2 v=0
408732 On ch=1 n=e4 v=0
408738 On ch=1 n=e5 v=0
408744 On ch=1 n=a#4 v=0
408744 On ch=1 n=c3 v=82
408760 On ch=1 n=c2 v=82
408804 On ch=1 n=c3 v=0
408820 On ch=1 n=c2 v=0
408900 Par ch=1 c=64 v=0
408904 On ch=1 n=f2 v=103
408906 On ch=1 n=f5 v=82
408906 On ch=1 n=g#4 v=81
408906 On ch=1 n=f3 v=86
408914 On ch=1 n=c4 v=81
408940 Par ch=1 c=64 v=127
408966 On ch=1 n=f3 v=0
408970 On ch=1 n=c4 v=0
409022 On ch=1 n=g#4 v=0
409024 On ch=1 n=f2 v=0
409028 On ch=1 n=f5 v=0
409032 On ch=1 n=a4 v=77
409056 On ch=1 n=a4 v=0
409150 On ch=1 n=f#5 v=94
409150 On ch=1 n=c5 v=68
409188 On ch=1 n=d#4 v=79
409192 On ch=1 n=c5 v=0
409218 Par ch=1 c=64 v=0
409236 On ch=1 n=d5 v=97
409242 On ch=1 n=a5 v=80
409254 On ch=1 n=f#5 v=0
409260 Par ch=1 c=64 v=127
409262 On ch=1 n=d#4 v=0
409312 On ch=1 n=a5 v=0
409322 On ch=1 n=d5 v=0
409334 On ch=1 n=d#5 v=82
409366 On ch=1 n=d#5 v=0
409420 On ch=1 n=d#5 v=79
409424 On ch=1 n=c6 v=80
409436 Par ch=1 c=64 v=0
409460 On ch=1 n=a4 v=67
409464 On ch=1 n=d#5 v=0
409474 Par ch=1 c=64 v=127
409506 On ch=1 n=d#6 v=86
409510 On ch=1 n=f#5 v=94
409526 On ch=1 n=a4 v=0
409528 On ch=1 n=c6 v=0
409540 On ch=1 n=f#5 v=0
409572 On ch=1 n=d#6 v=0
409594 On ch=1 n=a5 v=69
409610 On ch=1 n=a5 v=0
409674 On ch=1 n=c6 v=91
409682 On ch=1 n=f#6 v=74
409714 On ch=1 n=d#5 v=92
409718 On ch=1 n=c6 v=0
409742 Par ch=1 c=64 v=0
409750 On ch=1 n=f#6 v=0
409750 On ch=1 n=a6 v=91
409756 On ch=1 n=d6 v=91
409782 Par ch=1 c=64 v=127
409788 On ch=1 n=d#5 v=0
409816 On ch=1 n=a6 v=0
409826 On ch=1 n=d6 v=0
409838 On ch=1 n=d#6 v=84
409866 On ch=1 n=d#6 v=0
409918 On ch=1 n=d#6 v=80
409930 On ch=1 n=c7 v=79
409958 On ch=1 n=a5 v=69
409964 On ch=1 n=d#6 v=0
409974 Par ch=1 c=64 v=0
409992 On ch=1 n=c7 v=0
409998 On ch=1 n=f#6 v=97
410002 On ch=1 n=d#7 v=92
410008 On ch=1 n=c7 v=55
410014 On ch=1 n=c7 v=0
410016 Par ch=1 c=64 v=127
410030 On ch=1 n=a5 v=0
410066 On ch=1 n=f#6 v=0
410068 On ch=1 n=d#7 v=0
410086 On ch=1 n=a6 v=73
410104 On ch=1 n=a6 v=0
410174 On ch=1 n=f#7 v=79
410174 On ch=1 n=c7 v=83
410214 On ch=1 n=d#6 v=84
410218 On ch=1 n=c7 v=0
410236 On ch=1 n=f#7 v=0
410244 Par ch=1 c=64 v=0
410252 On ch=1 n=a7 v=84
410262 On ch=1 n=d7 v=97
410274 Par ch=1 c=64 v=127
410286 On ch=1 n=d#6 v=0
410302 On ch=1 n=d7 v=0
410328 On ch=1 n=a7 v=0
410344 On ch=1 n=d#7 v=83
410366 On ch=1 n=d#7 v=0
410440 On ch=1 n=f#7 v=79
410492 On ch=1 n=f#7 v=0
410492 On ch=1 n=a6 v=77
410552 On ch=1 n=c7 v=80
410554 On ch=1 n=a7 v=83
410554 Par ch=1 c=64 v=0
410560 On ch=1 n=f8 v=68
410560 On ch=1 n=d#8 v=68
410570 Par ch=1 c=64 v=127
410598 On ch=1 n=a6 v=0
410800 Par ch=1 c=64 v=0
410830 On ch=1 n=a6 v=86
410832 On ch=1 n=d#6 v=91
410832 On ch=1 n=a5 v=86
410836 On ch=1 n=f#5 v=84
410836 On ch=1 n=f#4 v=83
410852 Par ch=1 c=64 v=127
410900 On ch=1 n=f#4 v=0
410910 On ch=1 n=f#5 v=0
410934 On ch=1 n=f6 v=82
410940 On ch=1 n=f5 v=80
410942 On ch=1 n=a6 v=0
410946 On ch=1 n=f4 v=84
410962 On ch=1 n=d#6 v=0
410966 On ch=1 n=c7 v=0
410968 On ch=1 n=a7 v=0
410974 On ch=1 n=d#8 v=0
410974 On ch=1 n=f8 v=0
410978 On ch=1 n=f5 v=0
410980 On ch=1 n=f4 v=0
411022 On ch=1 n=d#5 v=100
411022 On ch=1 n=d#4 v=91
411026 On ch=1 n=f#6 v=74
411040 On ch=1 n=a5 v=0
411048 On ch=1 n=d#4 v=0
411054 On ch=1 n=f6 v=0
411056 On ch=1 n=d#5 v=0
411090 On ch=1 n=f#6 v=0
411102 On ch=1 n=a#6 v=74
411110 On ch=1 n=f6 v=86
411110 On ch=1 n=a#5 v=91
411110 On ch=1 n=c#5 v=100
411114 On ch=1 n=c#4 v=91
411120 Par ch=1 c=64 v=0
411148 On ch=1 n=c#4 v=0
411148 Par ch=1 c=64 v=127
411154 On ch=1 n=c#5 v=0
411188 On ch=1 n=c5 v=84
411190 On ch=1 n=c4 v=83
411222 On ch=1 n=c5 v=0
411224 On ch=1 n=c4 v=0
411234 On ch=1 n=f6 v=0
411258 On ch=1 n=a#5 v=0
411268 On ch=1 n=a#6 v=0
411272 On ch=1 n=a#4 v=107
411272 On ch=1 n=a3 v=94
411294 On ch=1 n=a3 v=0
411298 On ch=1 n=a#4 v=0
411358 On ch=1 n=c#7 v=86
411362 On ch=1 n=f6 v=88
411364 On ch=1 n=g#4 v=103
411368 On ch=1 n=a#6 v=86
411368 On ch=1 n=c#6 v=94
411368 On ch=1 n=g#3 v=92
411382 Par ch=1 c=64 v=0
411406 On ch=1 n=g#3 v=0
411410 On ch=1 n=g#4 v=0
411414 Par ch=1 c=64 v=127
411450 On ch=1 n=g4 v=86
411456 On ch=1 n=g3 v=86
411482 On ch=1 n=g4 v=0
411484 On ch=1 n=g3 v=0
411510 On ch=1 n=f6 v=0
411514 On ch=1 n=a#6 v=0
411518 On ch=1 n=c#7 v=0
411536 On ch=1 n=g4 v=90
411540 On ch=1 n=g3 v=88
411560 On ch=1 n=c#6 v=0
411570 On ch=1 n=g3 v=0
411574 On ch=1 n=g4 v=0
411626 On ch=1 n=c7 v=84
411630 On ch=1 n=a#6 v=84
411630 On ch=1 n=c6 v=87
411632 On ch=1 n=e6 v=86
411636 On ch=1 n=g4 v=88
411636 On ch=1 n=g3 v=75
411664 On ch=1 n=g4 v=0
411666 On ch=1 n=g3 v=0
411720 Par ch=1 c=64 v=0
411740 On ch=1 n=c4 v=90
411742 On ch=1 n=c3 v=94
411758 Par ch=1 c=64 v=127
411772 On ch=1 n=c3 v=0
411774 On ch=1 n=c4 v=0
411846 On ch=1 n=a#6 v=0
411846 On ch=1 n=c7 v=0
411852 On ch=1 n=e6 v=0
411852 On ch=1 n=c4 v=92
411852 On ch=1 n=c3 v=94
411864 On ch=1 n=c6 v=0
411920 On ch=1 n=c4 v=0
411988 On ch=1 n=e6 v=86
411988 On ch=1 n=a#5 v=81
411990 On ch=1 n=e5 v=82
411994 On ch=1 n=c#3 v=79
411998 On ch=1 n=c3 v=0
411998 On ch=1 n=c#4 v=100
411998 Par ch=1 c=64 v=0
412032 Par ch=1 c=64 v=127
412098 On ch=1 n=c#4 v=0
412102 On ch=1 n=c#3 v=0
412154 On ch=1 n=c4 v=82
412154 On ch=1 n=c3 v=81
412198 On ch=1 n=c4 v=0
412212 On ch=1 n=c3 v=0
412256 On ch=1 n=e6 v=0
412284 On ch=1 n=a#5 v=0
412286 On ch=1 n=c4 v=88
412286 On ch=1 n=c3 v=86
412294 On ch=1 n=e5 v=0
412454 On ch=1 n=f6 v=79
412454 On ch=1 n=g#5 v=86
412460 On ch=1 n=c6 v=86
412460 On ch=1 n=f5 v=86
412464 On ch=1 n=c3 v=0
412472 On ch=1 n=f2 v=109
412478 Par ch=1 c=64 v=0
412486 On ch=1 n=c4 v=0
412574 Par ch=1 c=64 v=127
412704 On ch=1 n=c3 v=90
412716 Par ch=1 c=64 v=0
412720 On ch=1 n=f2 v=0
412770 On ch=1 n=f6 v=0
412772 Par ch=1 c=64 v=127
412778 On ch=1 n=c6 v=0
412850 On ch=1 n=g#5 v=0
412860 On ch=1 n=f5 v=0
412902 On ch=1 n=g#3 v=80
412920 On ch=1 n=c3 v=0
413038 Par ch=1 c=64 v=0
413060 On ch=1 n=c#4 v=83
413140 Par ch=1 c=64 v=127
413186 On ch=1 n=c#4 v=0
413186 On ch=1 n=g#3 v=0
413190 On ch=1 n=c4 v=74
413286 On ch=1 n=f4 v=75
413298 On ch=1 n=c4 v=0
413302 Par ch=1 c=64 v=0
413368 On ch=1 n=g#4 v=79
413390 On ch=1 n=f4 v=0
413448 On ch=1 n=f4 v=73
413468 On ch=1 n=g#4 v=0
413482 Par ch=1 c=64 v=127
413532 On ch=1 n=a#4 v=73
413576 On ch=1 n=f4 v=0
413616 On ch=1 n=c3 v=71
413618 Par ch=1 c=64 v=0
413628 On ch=1 n=g#4 v=77
413656 On ch=1 n=a#4 v=0
413686 Par ch=1 c=64 v=127
413734 On ch=1 n=e4 v=79
413740 On ch=1 n=g#4 v=0
413802 On ch=1 n=g3 v=79
413818 On ch=1 n=e4 v=0
413826 On ch=1 n=c3 v=0
413840 On ch=1 n=g4 v=74
413922 On ch=1 n=g3 v=0
413924 On ch=1 n=g#4 v=64
413938 On ch=1 n=e4 v=79
413940 On ch=1 n=g4 v=0
413988 On ch=1 n=g#4 v=0
414014 On ch=1 n=g4 v=67
414066 Par ch=1 c=64 v=0
414078 On ch=1 n=e3 v=82
414092 On ch=1 n=e4 v=0
414112 On ch=1 n=g4 v=0
414116 On ch=1 n=c5 v=73
414124 Par ch=1 c=64 v=127
414200 On ch=1 n=c4 v=75
414206 On ch=1 n=c#5 v=79
414208 On ch=1 n=c5 v=0
414218 On ch=1 n=e3 v=0
414286 On ch=1 n=c#5 v=0
414288 On ch=1 n=c5 v=71
414326 On ch=1 n=c4 v=0
414340 On ch=1 n=a#4 v=88
414370 On ch=1 n=g#5 v=71
414400 On ch=1 n=c5 v=0
414410 On ch=1 n=a#4 v=0
414456 Par ch=1 c=64 v=0
414458 On ch=1 n=g#5 v=0
414466 On ch=1 n=g5 v=79
414472 On ch=1 n=f3 v=67
414512 Par ch=1 c=64 v=127
414558 On ch=1 n=b4 v=73
414564 On ch=1 n=g5 v=0
414630 On ch=1 n=c4 v=73
414658 On ch=1 n=c5 v=70
414660 On ch=1 n=f3 v=0
414662 On ch=1 n=b4 v=0
414726 On ch=1 n=c4 v=0
414736 On ch=1 n=g#4 v=73
414764 On ch=1 n=c#5 v=76
414782 On ch=1 n=c5 v=0
414830 On ch=1 n=c#5 v=0
414840 On ch=1 n=g#4 v=0
414848 On ch=1 n=c5 v=68
414848 Par ch=1 c=64 v=0
414864 On ch=1 n=g#3 v=76
414906 Par ch=1 c=64 v=127
414924 On ch=1 n=c5 v=0
414926 On ch=1 n=f5 v=76
414994 On ch=1 n=f4 v=73
415000 On ch=1 n=g#5 v=84
415006 On ch=1 n=g#3 v=0
415010 On ch=1 n=f5 v=0
415082 On ch=1 n=f5 v=67
415092 On ch=1 n=g#5 v=0
415096 On ch=1 n=f4 v=0
415118 On ch=1 n=c5 v=65
415164 On ch=1 n=a#5 v=74
415190 Par ch=1 c=64 v=0
415198 On ch=1 n=f5 v=0
415222 On ch=1 n=c4 v=71
415240 On ch=1 n=c5 v=0
415242 Par ch=1 c=64 v=127
415248 On ch=1 n=g#5 v=76
415284 On ch=1 n=a#5 v=0
415318 On ch=1 n=e5 v=72
415320 On ch=1 n=g#5 v=0
415378 On ch=1 n=e5 v=0
415382 On ch=1 n=a#4 v=73
415390 On ch=1 n=c4 v=0
415404 On ch=1 n=g5 v=66
415482 On ch=1 n=a#4 v=0
415482 On ch=1 n=g#5 v=69
415482 On ch=1 n=e5 v=58
415494 On ch=1 n=g5 v=0
415536 On ch=1 n=g#5 v=0
415540 Par ch=1 c=64 v=0
415562 On ch=1 n=g5 v=67
415578 On ch=1 n=e4 v=67
415596 Par ch=1 c=64 v=127
415618 On ch=1 n=e5 v=0
415640 On ch=1 n=c6 v=74
415646 On ch=1 n=g5 v=0
415714 On ch=1 n=e4 v=0
415714 On ch=1 n=c5 v=58
415720 On ch=1 n=c#6 v=71
415728 On ch=1 n=c6 v=0
415778 On ch=1 n=c5 v=0
415798 On ch=1 n=c6 v=46
415804 On ch=1 n=c#6 v=0
415840 On ch=1 n=a#5 v=79
415862 On ch=1 n=a#5 v=0
415890 On ch=1 n=g6 v=76
415896 On ch=1 n=c6 v=0
415954 Par ch=1 c=64 v=0
415974 On ch=1 n=f3 v=73
415982 On ch=1 n=f6 v=77
415990 On ch=1 n=g6 v=0
416010 Par ch=1 c=64 v=127
416016 On ch=1 n=f6 v=0
416072 On ch=1 n=b4 v=80
416118 On ch=1 n=c4 v=66
416136 On ch=1 n=b4 v=0
416154 On ch=1 n=f3 v=0
416156 On ch=1 n=c5 v=76
416214 On ch=1 n=c4 v=0
416220 On ch=1 n=c#5 v=65
416230 On ch=1 n=g#4 v=80
416234 On ch=1 n=c5 v=0
416270 On ch=1 n=c#5 v=0
416288 On ch=1 n=c5 v=73
416314 On ch=1 n=g#4 v=0
416322 Par ch=1 c=64 v=0
416338 On ch=1 n=g#3 v=83
416366 On ch=1 n=f5 v=73
416372 On ch=1 n=c5 v=0
416386 Par ch=1 c=64 v=127
416434 On ch=1 n=g#5 v=73
416448 On ch=1 n=f5 v=0
416458 On ch=1 n=f4 v=71
416470 On ch=1 n=g#3 v=0
416512 On ch=1 n=f5 v=63
416522 On ch=1 n=g#5 v=0
416552 On ch=1 n=f4 v=0
416564 On ch=1 n=c5 v=77
416596 On ch=1 n=a#5 v=69
416622 On ch=1 n=f5 v=0
416658 Par ch=1 c=64 v=0
416674 On ch=1 n=g#5 v=75
416676 On ch=1 n=c5 v=0
416676 On ch=1 n=c4 v=74
416698 On ch=1 n=a#5 v=0
416712 Par ch=1 c=64 v=127
416746 On ch=1 n=g#5 v=0
416752 On ch=1 n=e5 v=73
416798 On ch=1 n=a#4 v=76
416808 On ch=1 n=c4 v=0
416810 On ch=1 n=e5 v=0
416820 On ch=1 n=g5 v=71
416888 On ch=1 n=g#5 v=81
416898 On ch=1 n=a#4 v=0
416898 On ch=1 n=e5 v=84
416906 On ch=1 n=g5 v=0
416928 On ch=1 n=g#5 v=0
416952 On ch=1 n=g5 v=73
416974 Par ch=1 c=64 v=0
416994 On ch=1 n=e4 v=79
416996 On ch=1 n=e5 v=0
417020 Par ch=1 c=64 v=127
417032 On ch=1 n=c6 v=77
417038 On ch=1 n=g5 v=0
417098 On ch=1 n=c5 v=79
417104 On ch=1 n=e4 v=0
417106 On ch=1 n=c#6 v=73
417108 On ch=1 n=c6 v=0
417154 On ch=1 n=c#6 v=0
417166 On ch=1 n=c6 v=76
417176 On ch=1 n=c5 v=0
417216 On ch=1 n=a#5 v=88
417228 On ch=1 n=g#6 v=82
417252 On ch=1 n=c6 v=0
417264 On ch=1 n=a#5 v=0
417290 Par ch=1 c=64 v=0
417304 On ch=1 n=f4 v=86
417310 On ch=1 n=g6 v=79
417314 On ch=1 n=g#6 v=0
417338 Par ch=1 c=64 v=127
417374 On ch=1 n=b5 v=47
417378 On ch=1 n=g6 v=0
417416 On ch=1 n=c5 v=80
417428 On ch=1 n=f4 v=0
417458 On ch=1 n=b5 v=0
417458 On ch=1 n=c6 v=67
417512 On ch=1 n=c5 v=0
417514 On ch=1 n=c#6 v=80
417520 On ch=1 n=g#5 v=79
417532 On ch=1 n=c6 v=0
417556 On ch=1 n=c#6 v=0
417584 On ch=1 n=c6 v=63
417598 On ch=1 n=g#5 v=0
417598 Par ch=1 c=64 v=0
417608 On ch=1 n=g#4 v=80
417644 Par ch=1 c=64 v=127
417648 On ch=1 n=c6 v=0
417654 On ch=1 n=f6 v=73
417708 On ch=1 n=f5 v=79
417716 On ch=1 n=g#6 v=69
417720 On ch=1 n=g#4 v=0
417724 On ch=1 n=f6 v=0
417780 On ch=1 n=f6 v=67
417788 On ch=1 n=g#6 v=0
417802 On ch=1 n=f5 v=0
417818 On ch=1 n=c6 v=69
417842 On ch=1 n=a#6 v=74
417872 On ch=1 n=f6 v=0
417882 Par ch=1 c=64 v=0
417900 On ch=1 n=c6 v=0
417900 On ch=1 n=c5 v=80
417910 On ch=1 n=g#6 v=76
417930 Par ch=1 c=64 v=127
417940 On ch=1 n=a#6 v=0
417970 On ch=1 n=g#6 v=0
417970 On ch=1 n=e6 v=81
418028 On ch=1 n=a#5 v=71
418030 On ch=1 n=e6 v=0
418030 On ch=1 n=c5 v=0
418034 On ch=1 n=g6 v=70
418096 On ch=1 n=g#6 v=76
418110 On ch=1 n=g6 v=0
418114 On ch=1 n=a#5 v=0
418118 On ch=1 n=e6 v=79
418134 On ch=1 n=g#6 v=0
418150 Par ch=1 c=64 v=0
418166 On ch=1 n=g6 v=60
418192 On ch=1 n=e5 v=79
418200 On ch=1 n=e6 v=0
418206 Par ch=1 c=64 v=127
418234 On ch=1 n=c7 v=74
418240 On ch=1 n=g6 v=0
418296 On ch=1 n=e5 v=0
418298 On ch=1 n=c#7 v=79
418304 On ch=1 n=c6 v=71
418310 On ch=1 n=c7 v=0
418346 On ch=1 n=c6 v=0
418370 On ch=1 n=c7 v=80
418372 On ch=1 n=c#7 v=0
418388 On ch=1 n=a#6 v=73
418434 On ch=1 n=a#6 v=0
418448 On ch=1 n=g7 v=79
418510 On ch=1 n=c7 v=0
418512 On ch=1 n=g7 v=0
418544 Par ch=1 c=64 v=0
418556 On ch=1 n=f6 v=82
418556 On ch=1 n=c6 v=80
418560 On ch=1 n=f7 v=76
418560 On ch=1 n=f5 v=74
418566 On ch=1 n=g#5 v=69
418590 Par ch=1 c=64 v=127
418602 On ch=1 n=f7 v=0
418620 On ch=1 n=f8 v=68
418682 On ch=1 n=g#5 v=0
418704 On ch=1 n=e8 v=68
418710 On ch=1 n=f5 v=0
418714 On ch=1 n=c6 v=0
418732 On ch=1 n=f6 v=0
418736 On ch=1 n=f8 v=0
418762 Par ch=1 c=64 v=0
418780 On ch=1 n=d#8 v=82
418784 On ch=1 n=f5 v=65
418786 On ch=1 n=c#6 v=97
418786 On ch=1 n=g#5 v=67
418790 On ch=1 n=f6 v=84
418806 Par ch=1 c=64 v=127
418820 On ch=1 n=e8 v=0
418860 On ch=1 n=c#8 v=68
418908 On ch=1 n=f6 v=0
418912 On ch=1 n=d#8 v=0
418920 On ch=1 n=c8 v=68
418928 On ch=1 n=c#6 v=0
418946 On ch=1 n=g#5 v=0
418976 On ch=1 n=c#8 v=0
418980 On ch=1 n=a#7 v=82
419012 On ch=1 n=f5 v=0
419040 On ch=1 n=c8 v=0
419040 On ch=1 n=g#7 v=68
419100 On ch=1 n=g7 v=68
419104 On ch=1 n=a#7 v=0
419120 On ch=1 n=g7 v=68
419160 On ch=1 n=f7 v=74
419168 On ch=1 n=g#7 v=0
419174 Par ch=1 c=64 v=0
419182 On ch=1 n=c6 v=79
419188 On ch=1 n=f6 v=79
419188 On ch=1 n=f5 v=79
419192 On ch=1 n=g#5 v=72
419222 Par ch=1 c=64 v=127
419246 On ch=1 n=f7 v=0
419260 On ch=1 n=e7 v=86
419312 On ch=1 n=c6 v=0
419324 On ch=1 n=f5 v=0
419330 On ch=1 n=f6 v=0
419340 On ch=1 n=e7 v=0
419340 On ch=1 n=d#7 v=68
419342 On ch=1 n=g#5 v=0
419352 Par ch=1 c=64 v=0
419360 On ch=1 n=g7 v=0
419360 On ch=1 n=g7 v=0
419380 On ch=1 n=c#6 v=88
419382 On ch=1 n=f6 v=86
419386 On ch=1 n=g#5 v=73
419386 On ch=1 n=f5 v=76
419396 Par ch=1 c=64 v=127
419400 On ch=1 n=d#7 v=0
419400 On ch=1 n=c#7 v=69
419450 On ch=1 n=f6 v=0
419464 On ch=1 n=c#6 v=0
419474 On ch=1 n=c#7 v=0
419480 On ch=1 n=c7 v=76
419482 On ch=1 n=f5 v=0
419482 On ch=1 n=g#5 v=0
419540 On ch=1 n=a#6 v=106
419578 On ch=1 n=c7 v=0
419608 On ch=1 n=g#6 v=96
419632 On ch=1 n=a#6 v=0
419680 On ch=1 n=g#6 v=0
419700 On ch=1 n=g6 v=58
419752 On ch=1 n=f6 v=49
419776 On ch=1 n=g6 v=0
419784 On ch=1 n=f6 v=87
419794 Par ch=1 c=64 v=0
419804 On ch=1 n=f6 v=0
419804 On ch=1 n=f5 v=87
419804 On ch=1 n=c5 v=83
419804 On ch=1 n=f4 v=83
419808 On ch=1 n=f6 v=0
419808 On ch=1 n=g#7 v=94
419808 On ch=1 n=g#4 v=79
419852 Par ch=1 c=64 v=127
419904 On ch=1 n=g7 v=64
419918 On ch=1 n=g#7 v=0
419946 On ch=1 n=g#4 v=0
419946 On ch=1 n=f4 v=0
419952 On ch=1 n=c5 v=0
419964 On ch=1 n=f7 v=104
419966 On ch=1 n=f5 v=0
419970 On ch=1 n=g7 v=0
420018 Par ch=1 c=64 v=0
420032 On ch=1 n=c#5 v=82
420036 On ch=1 n=d#7 v=109
420036 On ch=1 n=f5 v=91
420036 On ch=1 n=g#4 v=76
420040 On ch=1 n=f4 v=76
420048 On ch=1 n=f7 v=0
420078 Par ch=1 c=64 v=127
420098 On ch=1 n=c#7 v=82
420110 On ch=1 n=d#7 v=0
420162 On ch=1 n=c#7 v=0
420166 On ch=1 n=c7 v=73
420222 On ch=1 n=a#6 v=86
420238 On ch=1 n=c#5 v=0
420240 On ch=1 n=c7 v=0
420240 On ch=1 n=f4 v=0
420242 On ch=1 n=g#4 v=0
420278 On ch=1 n=g#6 v=88
420280 On ch=1 n=f5 v=0
420294 On ch=1 n=a#6 v=0
420330 On ch=1 n=g6 v=86
420354 On ch=1 n=g#6 v=0
420390 Par ch=1 c=64 v=0
420406 On ch=1 n=f5 v=82
420406 On ch=1 n=c5 v=81
420406 On ch=1 n=g#4 v=77
420406 On ch=1 n=f4 v=82
420410 On ch=1 n=g6 v=0
420410 On ch=1 n=f6 v=104
420442 Par ch=1 c=64 v=127
420476 On ch=1 n=d#6 v=94
420494 On ch=1 n=f6 v=0
420524 On ch=1 n=f4 v=0
420524 On ch=1 n=c5 v=0
420536 On ch=1 n=c#6 v=88
420546 On ch=1 n=f5 v=0
420554 On ch=1 n=d#6 v=0
420560 On ch=1 n=g#4 v=0
420594 Par ch=1 c=64 v=0
420604 On ch=1 n=c#6 v=0
420606 On ch=1 n=c6 v=109
420606 On ch=1 n=c#5 v=86
420606 On ch=1 n=f4 v=79
420610 On ch=1 n=f5 v=94
420612 On ch=1 n=g#4 v=79
420644 Par ch=1 c=64 v=127
420670 On ch=1 n=a#5 v=84
420690 On ch=1 n=c6 v=0
420734 On ch=1 n=g#5 v=83
420758 On ch=1 n=a#5 v=0
420768 On ch=1 n=f5 v=0
420780 On ch=1 n=c#5 v=0
420792 On ch=1 n=g#4 v=0
420798 On ch=1 n=g5 v=81
420800 On ch=1 n=f4 v=0
420820 On ch=1 n=g#5 v=0
420860 On ch=1 n=g5 v=0
420872 On ch=1 n=f5 v=40
420938 On ch=1 n=c#5 v=82
420954 On ch=1 n=f5 v=0
420976 On ch=1 n=f3 v=75
420978 On ch=1 n=c#5 v=0
421018 On ch=1 n=c4 v=68
421058 Par ch=1 c=64 v=0
421064 On ch=1 n=g#4 v=103
421110 On ch=1 n=c5 v=80
421150 Par ch=1 c=64 v=127
421248 On ch=1 n=f5 v=82
421270 On ch=1 n=c5 v=0
421350 On ch=1 n=g#5 v=79
421366 On ch=1 n=f5 v=0
421382 On ch=1 n=g#5 v=0
421444 On ch=1 n=c6 v=88
421528 On ch=1 n=f6 v=79
421558 On ch=1 n=c6 v=0
421602 On ch=1 n=g#6 v=76
421614 On ch=1 n=f6 v=0
421626 On ch=1 n=g#6 v=0
421672 On ch=1 n=c7 v=80
421698 On ch=1 n=c4 v=0
421712 On ch=1 n=f3 v=0
421752 On ch=1 n=g#4 v=0
421756 On ch=1 n=f7 v=74
421824 On ch=1 n=g#7 v=81
421836 On ch=1 n=c7 v=0
421854 On ch=1 n=f7 v=0
421914 On ch=1 n=c#7 v=98
421918 Par ch=1 c=64 v=0
421926 On ch=1 n=g#7 v=0
421928 On ch=1 n=c#8 v=68
421962 Par ch=1 c=64 v=127
422032 On ch=1 n=c7 v=76
422036 On ch=1 n=c8 v=80
422048 On ch=1 n=c#8 v=0
422056 On ch=1 n=c#7 v=0
422118 On ch=1 n=g#6 v=67
422120 On ch=1 n=g#7 v=81
422136 On ch=1 n=c8 v=0
422138 On ch=1 n=c7 v=0
422204 On ch=1 n=g#6 v=0
422204 On ch=1 n=f7 v=79
422208 On ch=1 n=f6 v=62
422216 On ch=1 n=g#7 v=0
422250 On ch=1 n=f6 v=0
422280 Par ch=1 c=64 v=0
422292 On ch=1 n=a#6 v=86
422294 On ch=1 n=a#7 v=81
422296 On ch=1 n=f7 v=0
422328 Par ch=1 c=64 v=127
422370 On ch=1 n=g#7 v=74
422374 On ch=1 n=g#6 v=69
422390 On ch=1 n=a#6 v=0
422398 On ch=1 n=a#7 v=0
422420 Par ch=1 c=64 v=0
422442 On ch=1 n=g#6 v=0
422444 On ch=1 n=f6 v=72
422448 On ch=1 n=f7 v=77
422460 Par ch=1 c=64 v=127
422470 On ch=1 n=g#7 v=0
422498 Par ch=1 c=64 v=0
422508 On ch=1 n=f7 v=0
422510 Par ch=1 c=64 v=127
422516 On ch=1 n=c6 v=72
422522 On ch=1 n=f6 v=0
422526 On ch=1 n=c7 v=73
422562 On ch=1 n=c6 v=0
422584 Par ch=1 c=64 v=0
422590 On ch=1 n=g6 v=72
422594 On ch=1 n=g7 v=79
422608 Par ch=1 c=64 v=127
422618 On ch=1 n=c7 v=0
422652 Par ch=1 c=64 v=0
422664 Par ch=1 c=64 v=127
422668 On ch=1 n=f7 v=60
422674 On ch=1 n=f6 v=58
422690 On ch=1 n=g6 v=0
422704 On ch=1 n=g7 v=0
422730 On ch=1 n=f6 v=0
422736 On ch=1 n=c7 v=72
422736 On ch=1 n=c6 v=68
422744 On ch=1 n=f7 v=0
422796 On ch=1 n=c7 v=0
422804 On ch=1 n=c6 v=0
422810 On ch=1 n=g#6 v=84
422810 On ch=1 n=g#5 v=86
422862 On ch=1 n=g#5 v=0
422866 Par ch=1 c=64 v=0
422870 On ch=1 n=g#6 v=0
422878 On ch=1 n=c#7 v=72
422880 On ch=1 n=c#6 v=90
422900 Par ch=1 c=64 v=127
422942 On ch=1 n=c7 v=77
422948 On ch=1 n=c6 v=79
422960 On ch=1 n=c#7 v=0
422966 On ch=1 n=c#6 v=0
423008 On ch=1 n=g#5 v=73
423014 On ch=1 n=g#6 v=73
423026 On ch=1 n=c6 v=0
423030 On ch=1 n=c7 v=0
423066 Par ch=1 c=64 v=0
423072 On ch=1 n=f5 v=79
423078 On ch=1 n=f6 v=69
423080 On ch=1 n=g#6 v=0
423080 On ch=1 n=g#5 v=0
423090 Par ch=1 c=64 v=127
423120 On ch=1 n=f5 v=0
423140 On ch=1 n=a#6 v=79
423140 On ch=1 n=a#5 v=87
423142 On ch=1 n=f6 v=0
423168 Par ch=1 c=64 v=0
423196 On ch=1 n=g#5 v=67
423198 On ch=1 n=g#6 v=72
423208 Par ch=1 c=64 v=127
423214 On ch=1 n=a#5 v=0
423218 On ch=1 n=a#6 v=0
423256 On ch=1 n=g#5 v=0
423260 On ch=1 n=f5 v=73
423264 On ch=1 n=f6 v=73
423272 On ch=1 n=g#6 v=0
423316 On ch=1 n=f6 v=0
423322 On ch=1 n=c5 v=76
423328 On ch=1 n=f5 v=0
423332 On ch=1 n=c6 v=73
423378 On ch=1 n=c5 v=0
423390 On ch=1 n=g6 v=72
423390 On ch=1 n=g5 v=81
423396 Par ch=1 c=64 v=0
423404 On ch=1 n=c6 v=0
423434 Par ch=1 c=64 v=127
423452 On ch=1 n=g6 v=0
423454 On ch=1 n=f6 v=69
423458 On ch=1 n=f5 v=65
423468 On ch=1 n=g5 v=0
423488 Par ch=1 c=64 v=0
423510 On ch=1 n=c5 v=67
423516 On ch=1 n=f6 v=0
423516 On ch=1 n=c6 v=73
423520 On ch=1 n=f5 v=0
423520 Par ch=1 c=64 v=127
423560 On ch=1 n=c6 v=0
423570 On ch=1 n=g#5 v=79
423582 On ch=1 n=g#4 v=86
423584 On ch=1 n=c5 v=0
423628 Par ch=1 c=64 v=0
423638 On ch=1 n=c#6 v=73
423642 On ch=1 n=g#4 v=0
423642 On ch=1 n=c#5 v=86
423644 On ch=1 n=g#5 v=0
423672 Par ch=1 c=64 v=127
423702 On ch=1 n=c5 v=54
423704 On ch=1 n=c6 v=79
423718 On ch=1 n=c#6 v=0
423724 On ch=1 n=c#5 v=0
423760 On ch=1 n=g#4 v=67
423764 On ch=1 n=g#5 v=77
423774 On ch=1 n=c5 v=0
423780 On ch=1 n=c6 v=0
423822 On ch=1 n=f4 v=74
423826 On ch=1 n=f5 v=76
423828 On ch=1 n=g#5 v=0
423830 On ch=1 n=g#4 v=0
423866 On ch=1 n=f4 v=0
423882 Par ch=1 c=64 v=0
423884 On ch=1 n=a#4 v=90
423888 On ch=1 n=f5 v=0
423892 On ch=1 n=a#5 v=71
423922 Par ch=1 c=64 v=127
423946 On ch=1 n=g#5 v=74
423946 On ch=1 n=g#4 v=67
423958 On ch=1 n=a#5 v=0
423958 On ch=1 n=a#4 v=0
423996 On ch=1 n=f4 v=71
423998 On ch=1 n=g#4 v=0
423998 On ch=1 n=f5 v=73
424010 On ch=1 n=g#5 v=0
424048 On ch=1 n=f5 v=0
424058 On ch=1 n=c5 v=70
424058 On ch=1 n=c4 v=76
424064 On ch=1 n=f4 v=0
424070 Par ch=1 c=64 v=0
424104 On ch=1 n=c4 v=0
424114 On ch=1 n=g5 v=73
424116 On ch=1 n=g4 v=87
424134 On ch=1 n=c5 v=0
424172 On ch=1 n=f4 v=69
424174 On ch=1 n=f5 v=67
424184 Par ch=1 c=64 v=127
424190 On ch=1 n=g4 v=0
424202 On ch=1 n=g5 v=0
424224 On ch=1 n=c4 v=74
424228 On ch=1 n=f4 v=0
424234 On ch=1 n=c5 v=76
424240 On ch=1 n=f5 v=0
424280 On ch=1 n=c5 v=0
424286 On ch=1 n=g#4 v=94
424288 Par ch=1 c=64 v=0
424296 On ch=1 n=c4 v=0
424296 On ch=1 n=g#3 v=91
424334 Par ch=1 c=64 v=127
424344 On ch=1 n=g#4 v=0
424344 On ch=1 n=c#4 v=86
424346 On ch=1 n=c#5 v=70
424352 Par ch=1 c=64 v=0
424356 On ch=1 n=g#3 v=0
424398 On ch=1 n=c4 v=77
424404 On ch=1 n=c5 v=77
424410 On ch=1 n=c#4 v=0
424416 On ch=1 n=c#5 v=0
424444 On ch=1 n=g#3 v=64
424460 On ch=1 n=g#4 v=76
424466 On ch=1 n=c4 v=0
424474 Par ch=1 c=64 v=127
424480 On ch=1 n=c5 v=0
424488 Par ch=1 c=64 v=0
424506 On ch=1 n=f3 v=84
424514 On ch=1 n=g#3 v=0
424518 On ch=1 n=g#4 v=0
424518 On ch=1 n=f4 v=73
424550 On ch=1 n=f3 v=0
424566 Par ch=1 c=64 v=127
424570 On ch=1 n=a#3 v=97
424576 On ch=1 n=a#4 v=71
424592 On ch=1 n=f4 v=0
424592 Par ch=1 c=64 v=0
424614 On ch=1 n=g#3 v=68
424622 On ch=1 n=a#3 v=0
424630 On ch=1 n=g#4 v=76
424630 Par ch=1 c=64 v=127
424642 On ch=1 n=a#4 v=0
424676 On ch=1 n=g#3 v=0
424676 On ch=1 n=f3 v=50
424684 On ch=1 n=f4 v=79
424694 On ch=1 n=g#4 v=0
424734 On ch=1 n=f4 v=0
424738 On ch=1 n=c3 v=86
424742 On ch=1 n=f3 v=0
424744 On ch=1 n=c4 v=80
424794 Par ch=1 c=64 v=0
424798 On ch=1 n=g4 v=74
424798 On ch=1 n=g3 v=91
424802 On ch=1 n=c3 v=0
424812 On ch=1 n=c4 v=0
424842 Par ch=1 c=64 v=127
424848 On ch=1 n=f3 v=80
424856 On ch=1 n=g4 v=0
424856 On ch=1 n=f4 v=73
424866 On ch=1 n=g3 v=0
424888 On ch=1 n=c3 v=67
424910 On ch=1 n=c4 v=76
424918 On ch=1 n=f4 v=0
424920 On ch=1 n=f3 v=0
424936 On ch=1 n=g#2 v=69
424952 On ch=1 n=c3 v=0
424954 Par ch=1 c=64 v=0
424960 On ch=1 n=c4 v=0
424966 On ch=1 n=g#3 v=87
424992 On ch=1 n=g#2 v=0
425026 On ch=1 n=c#4 v=81
425032 On ch=1 n=c#3 v=73
425036 On ch=1 n=g#3 v=0
425080 On ch=1 n=c4 v=84
425080 On ch=1 n=c3 v=89
425142 On ch=1 n=g#3 v=84
425160 On ch=1 n=g#2 v=93
425178 On ch=1 n=c#4 v=0
425184 On ch=1 n=c#3 v=0
425216 On ch=1 n=f3 v=84
425224 On ch=1 n=f2 v=92
425226 Par ch=1 c=64 v=127
425232 On ch=1 n=c3 v=0
425232 On ch=1 n=c4 v=0
425254 Par ch=1 c=64 v=0
425270 On ch=1 n=c#3 v=93
425274 On ch=1 n=c#4 v=85
425294 On ch=1 n=g#3 v=0
425302 Par ch=1 c=64 v=127
425312 On ch=1 n=g#2 v=0
425316 Par ch=1 c=64 v=0
425328 On ch=1 n=c4 v=81
425336 On ch=1 n=c3 v=93
425368 On ch=1 n=f3 v=0
425376 On ch=1 n=f2 v=0
425390 On ch=1 n=g#3 v=89
425400 On ch=1 n=g#2 v=93
425404 Par ch=1 c=64 v=127
425414 On ch=1 n=c3 v=0
425420 Par ch=1 c=64 v=0
425422 On ch=1 n=c#3 v=0
425426 On ch=1 n=c#4 v=0
425456 On ch=1 n=f3 v=93
425460 Par ch=1 c=64 v=127
425476 Par ch=1 c=64 v=0
425480 On ch=1 n=c4 v=0
425480 On ch=1 n=f2 v=92
425516 On ch=1 n=c#3 v=93
425518 On ch=1 n=c#4 v=82
425542 On ch=1 n=g#3 v=0
425552 On ch=1 n=g#2 v=0
425568 Par ch=1 c=64 v=127
425578 On ch=1 n=c4 v=81
425578 On ch=1 n=c3 v=93
425584 Par ch=1 c=64 v=0
425608 On ch=1 n=f3 v=0
425624 On ch=1 n=g#2 v=93
425624 Par ch=1 c=64 v=127
425632 On ch=1 n=f2 v=0
425636 On ch=1 n=g#3 v=93
425640 Par ch=1 c=64 v=0
425668 On ch=1 n=c#3 v=0
425670 On ch=1 n=c#4 v=0
425694 On ch=1 n=f3 v=92
425720 On ch=1 n=f2 v=93
425730 On ch=1 n=c3 v=0
425730 On ch=1 n=c4 v=0
425746 On ch=1 n=c#3 v=93
425748 On ch=1 n=c#4 v=86
425776 On ch=1 n=g#2 v=0
425788 On ch=1 n=g#3 v=0
425800 On ch=1 n=c4 v=88
425806 On ch=1 n=c3 v=93
425822 Par ch=1 c=64 v=127
425846 On ch=1 n=f3 v=0
425864 On ch=1 n=g#3 v=93
425864 On ch=1 n=g#2 v=93
425872 On ch=1 n=f2 v=0
425898 On ch=1 n=c#3 v=0
425900 On ch=1 n=c#4 v=0
425930 Par ch=1 c=64 v=0
425952 On ch=1 n=c4 v=0
425958 On ch=1 n=c3 v=0
425976 On ch=1 n=f3 v=93
425976 On ch=1 n=f2 v=93
426016 On ch=1 n=g#2 v=0
426016 On ch=1 n=g#3 v=0
426060 Par ch=1 c=64 v=127
426188 Par ch=1 c=64 v=0
426216 On ch=1 n=f2 v=0
426218 On ch=1 n=f3 v=0
426418 On ch=1 n=f6 v=109
426418 On ch=1 n=c#6 v=109
426418 On ch=1 n=g#5 v=109
426422 On ch=1 n=f5 v=109
426422 On ch=1 n=c#4 v=109
426422 On ch=1 n=c#3 v=109
426498 Par ch=1 c=64 v=127
426638 On ch=1 n=f5 v=0
426646 On ch=1 n=g#5 v=0
426652 On ch=1 n=c#6 v=0
426656 On ch=1 n=f6 v=0
426676 On ch=1 n=c#4 v=0
426678 On ch=1 n=c#3 v=0
426926 Par ch=1 c=64 v=0
426984 On ch=1 n=a#2 v=96
426986 On ch=1 n=c#7 v=109
426986 On ch=1 n=c#6 v=109
426986 On ch=1 n=a#3 v=109
426992 On ch=1 n=g6 v=109
426992 On ch=1 n=f6 v=109
427036 Par ch=1 c=64 v=127
427180 On ch=1 n=c#7 v=0
427184 On ch=1 n=g6 v=0
427186 On ch=1 n=f6 v=0
427196 On ch=1 n=c#6 v=0
427204 On ch=1 n=a#3 v=0
427224 On ch=1 n=a#2 v=0
427544 Par ch=1 c=64 v=0
427638 On ch=1 n=e5 v=109
427638 On ch=1 n=a#4 v=109
427644 On ch=1 n=c5 v=109
427644 On ch=1 n=g4 v=109
427650 On ch=1 n=c4 v=109
427650 On ch=1 n=c3 v=109
427762 Par ch=1 c=64 v=127
428164 On ch=1 n=e5 v=0
428182 On ch=1 n=a#4 v=0
428188 On ch=1 n=c5 v=0
428216 On ch=1 n=g4 v=0
428242 On ch=1 n=c4 v=0
428244 On ch=1 n=c3 v=0
428452 Par ch=1 c=64 v=0
428520 On ch=1 n=f2 v=96
428540 On ch=1 n=f5 v=106
428540 On ch=1 n=g#4 v=109
428542 On ch=1 n=c5 v=109
428546 On ch=1 n=f4 v=109
428546 On ch=1 n=f3 v=109
429170 Par ch=1 c=64 v=127
429264 On ch=1 n=g#4 v=0
429266 On ch=1 n=f5 v=0
429268 On ch=1 n=f3 v=0
429270 On ch=1 n=f4 v=0
429270 On ch=1 n=c5 v=0
429480 On ch=1 n=f2 v=0
431060 Par ch=1 c=64 v=0
432590 Par ch=1 c=64 v=0
432590 Meta TrkEnd
TrkEnd
