MFile 1 11 480
MTrk
0 TimeSig 6/8 96 8
0 Tempo 923076
55995 Tempo 821917
76157 Tempo 923076
76370 Tempo 800000
89162 Tempo 779220
124422 Tempo 750000
141640 Tempo 923076
151840 Tempo 923076
157900 Tempo 660534
178560 Tempo 660534
178630 Tempo 672957
178700 Tempo 672957
178770 Tempo 685744
178840 Tempo 685744
178910 Tempo 698914
178980 Tempo 698914
179050 Tempo 712482
179120 Tempo 712482
179190 Tempo 923076
179260 Tempo 923076
179330 Tempo 937500
179400 Tempo 937500
179470 Tempo 952380
179540 Tempo 952380
179610 Tempo 967741
179680 Tempo 967741
179750 Tempo 983606
179820 Tempo 983606
179890 Tempo 1000000
179960 Tempo 923076
197602 Tempo 660534
197602 Meta TrkEnd
TrkEnd
MTrk
0 SeqSpec 43 00 01 00
0 KeySig -1 minor
410 Par ch=1 c=64 v=40
420 Par ch=1 c=64 v=56
430 Par ch=1 c=64 v=88
437 Par ch=1 c=64 v=104
447 Par ch=1 c=64 v=127
652 On ch=1 n=c6 v=48
657 On ch=1 n=c5 v=29
660 Par ch=1 c=64 v=88
670 Par ch=1 c=64 v=72
690 Par ch=1 c=64 v=104
700 Par ch=1 c=64 v=127
719 On ch=1 n=c6 v=0
722 On ch=1 n=c5 v=0
850 On ch=1 n=c6 v=62
857 On ch=1 n=c5 v=38
892 Par ch=1 c=64 v=72
902 Par ch=1 c=64 v=40
912 Par ch=1 c=64 v=72
922 Par ch=1 c=64 v=104
930 Par ch=1 c=64 v=127
959 On ch=1 n=c5 v=0
965 On ch=1 n=c6 v=0
1160 On ch=1 n=c6 v=62
1162 On ch=1 n=c5 v=36
1212 On ch=1 n=c5 v=0
1222 On ch=1 n=c6 v=0
1332 On ch=1 n=c6 v=64
1344 On ch=1 n=c5 v=50
1404 On ch=1 n=c5 v=0
1412 On ch=1 n=c6 v=0
1647 On ch=1 n=c6 v=67
1647 On ch=1 n=c5 v=41
1694 On ch=1 n=c5 v=0
1704 On ch=1 n=c6 v=0
1826 On ch=1 n=c6 v=66
1826 On ch=1 n=c5 v=38
1888 On ch=1 n=c5 v=0
1906 On ch=1 n=c6 v=0
2199 On ch=1 n=c6 v=56
2199 On ch=1 n=c5 v=35
2249 On ch=1 n=c5 v=0
2266 On ch=1 n=c6 v=0
2451 On ch=1 n=c6 v=60
2451 On ch=1 n=f4 v=24
2451 On ch=1 n=c5 v=24
2451 On ch=1 n=a5 v=44
2501 Par ch=1 c=64 v=56
2511 Par ch=1 c=64 v=0
2551 Par ch=1 c=64 v=56
2561 Par ch=1 c=64 v=127
2588 On ch=1 n=c5 v=0
2591 On ch=1 n=a5 v=0
2591 On ch=1 n=f4 v=0
2593 On ch=1 n=c6 v=0
2786 On ch=1 n=c6 v=67
2786 On ch=1 n=a5 v=43
2786 On ch=1 n=f4 v=36
2786 On ch=1 n=c5 v=28
2814 Par ch=1 c=64 v=72
2824 Par ch=1 c=64 v=40
2828 On ch=1 n=f4 v=0
2831 Par ch=1 c=64 v=72
2841 Par ch=1 c=64 v=104
2846 On ch=1 n=a5 v=0
2851 On ch=1 n=c5 v=0
2851 Par ch=1 c=64 v=127
2866 On ch=1 n=c6 v=0
2994 On ch=1 n=c6 v=68
2994 On ch=1 n=a#5 v=54
2994 On ch=1 n=c5 v=39
2994 On ch=1 n=f4 v=44
3046 Par ch=1 c=64 v=104
3056 Par ch=1 c=64 v=40
3066 Par ch=1 c=64 v=0
3084 Par ch=1 c=64 v=24
3094 Par ch=1 c=64 v=88
3104 Par ch=1 c=64 v=127
3149 On ch=1 n=f4 v=0
3166 On ch=1 n=c5 v=0
3204 On ch=1 n=a#5 v=0
3214 On ch=1 n=c6 v=0
3331 On ch=1 n=c6 v=73
3331 On ch=1 n=f4 v=40
3331 On ch=1 n=a#5 v=50
3331 On ch=1 n=c5 v=44
3376 On ch=1 n=f4 v=0
3383 On ch=1 n=c5 v=0
3391 On ch=1 n=a#5 v=0
3431 On ch=1 n=c6 v=0
3529 On ch=1 n=e6 v=72
3529 On ch=1 n=a#5 v=43
3529 On ch=1 n=f4 v=36
3529 On ch=1 n=c5 v=33
3596 Par ch=1 c=64 v=40
3606 Par ch=1 c=64 v=0
3646 Par ch=1 c=64 v=56
3654 Par ch=1 c=64 v=127
3671 On ch=1 n=f4 v=0
3681 On ch=1 n=c5 v=0
3729 On ch=1 n=a#5 v=0
3729 On ch=1 n=e6 v=0
3796 On ch=1 n=d6 v=68
3843 On ch=1 n=d6 v=0
3861 On ch=1 n=c6 v=69
3861 On ch=1 n=c5 v=33
3861 On ch=1 n=f4 v=39
3861 On ch=1 n=a#5 v=54
3879 Par ch=1 c=64 v=56
3889 Par ch=1 c=64 v=0
3899 Par ch=1 c=64 v=24
3909 Par ch=1 c=64 v=88
3919 Par ch=1 c=64 v=127
3923 On ch=1 n=f4 v=0
3928 On ch=1 n=c5 v=0
3938 On ch=1 n=a#5 v=0
3948 On ch=1 n=c6 v=0
4061 On ch=1 n=f6 v=70
4061 On ch=1 n=a5 v=52
4061 On ch=1 n=f4 v=44
4061 On ch=1 n=c5 v=43
4118 Par ch=1 c=64 v=56
4128 Par ch=1 c=64 v=0
4156 Par ch=1 c=64 v=24
4166 Par ch=1 c=64 v=88
4176 Par ch=1 c=64 v=127
4183 On ch=1 n=f6 v=0
4186 On ch=1 n=f4 v=0
4188 On ch=1 n=a5 v=0
4211 On ch=1 n=c5 v=0
4401 On ch=1 n=d6 v=72
4401 On ch=1 n=a#4 v=39
4401 On ch=1 n=f5 v=45
4418 Par ch=1 c=64 v=56
4428 Par ch=1 c=64 v=0
4456 Par ch=1 c=64 v=56
4466 Par ch=1 c=64 v=127
4483 On ch=1 n=d6 v=0
4493 On ch=1 n=f5 v=0
4501 On ch=1 n=a#4 v=0
4611 On ch=1 n=c6 v=68
4611 On ch=1 n=f5 v=45
4611 On ch=1 n=a4 v=28
4671 Par ch=1 c=64 v=40
4678 Par ch=1 c=64 v=0
4718 Par ch=1 c=64 v=56
4728 Par ch=1 c=64 v=127
4751 On ch=1 n=a4 v=0
4778 On ch=1 n=c6 v=0
4788 On ch=1 n=f5 v=0
4966 On ch=1 n=e5 v=57
4966 On ch=1 n=a4 v=42
4966 On ch=1 n=c4 v=40
4966 On ch=1 n=a5 v=68
4998 Par ch=1 c=64 v=40
5008 Par ch=1 c=64 v=0
5036 Par ch=1 c=64 v=40
5048 Par ch=1 c=64 v=104
5051 On ch=1 n=a4 v=0
5058 Par ch=1 c=64 v=127
5073 On ch=1 n=c4 v=0
5093 On ch=1 n=e5 v=0
5098 On ch=1 n=a5 v=0
5183 On ch=1 n=f5 v=62
5183 On ch=1 n=d4 v=43
5183 On ch=1 n=c5 v=44
5183 On ch=1 n=a4 v=41
5258 Par ch=1 c=64 v=104
5268 Par ch=1 c=64 v=40
5278 Par ch=1 c=64 v=0
5327 On ch=1 n=a4 v=0
5332 On ch=1 n=d4 v=0
5335 Par ch=1 c=64 v=88
5345 Par ch=1 c=64 v=127
5352 On ch=1 n=c5 v=0
5370 On ch=1 n=f5 v=0
5538 On ch=1 n=a#4 v=42
5538 On ch=1 n=f5 v=50
5538 On ch=1 n=d4 v=43
5538 On ch=1 n=g3 v=48
5538 On ch=1 n=g5 v=60
5555 Par ch=1 c=64 v=104
5565 Par ch=1 c=64 v=0
5602 Par ch=1 c=64 v=72
5612 Par ch=1 c=64 v=127
5622 On ch=1 n=d4 v=0
5632 On ch=1 n=f5 v=0
5647 On ch=1 n=g3 v=0
5662 On ch=1 n=a#4 v=0
5749 On ch=1 n=g5 v=0
5764 On ch=1 n=g5 v=63
5764 On ch=1 n=c4 v=44
5764 On ch=1 n=a#4 v=43
5764 On ch=1 n=e5 v=55
5832 Par ch=1 c=64 v=72
5842 Par ch=1 c=64 v=0
5899 Par ch=1 c=64 v=56
5909 Par ch=1 c=64 v=127
5941 On ch=1 n=c4 v=0
5981 On ch=1 n=a#4 v=0
5986 On ch=1 n=e5 v=0
6137 On ch=1 n=d5 v=41
6137 On ch=1 n=a#4 v=42
6137 On ch=1 n=c4 v=39
6159 Par ch=1 c=64 v=88
6169 Par ch=1 c=64 v=24
6179 Par ch=1 c=64 v=0
6199 Par ch=1 c=64 v=56
6209 Par ch=1 c=64 v=127
6221 On ch=1 n=g5 v=0
6232 On ch=1 n=c4 v=0
6237 On ch=1 n=a#4 v=0
6267 On ch=1 n=d5 v=0
6354 On ch=1 n=a5 v=63
6354 On ch=1 n=f3 v=45
6354 On ch=1 n=c5 v=44
6354 On ch=1 n=f4 v=28
6412 Par ch=1 c=64 v=88
6424 Par ch=1 c=64 v=0
6482 Par ch=1 c=64 v=40
6489 On ch=1 n=f3 v=0
6492 Par ch=1 c=64 v=104
6499 Par ch=1 c=64 v=127
6524 On ch=1 n=f4 v=0
6551 On ch=1 n=a5 v=0
6574 On ch=1 n=c5 v=0
6717 On ch=1 n=a#5 v=65
6717 On ch=1 n=d5 v=53
6717 On ch=1 n=a#3 v=36
6717 On ch=1 n=f4 v=34
6732 Par ch=1 c=64 v=56
6742 Par ch=1 c=64 v=0
6772 Par ch=1 c=64 v=88
6779 On ch=1 n=f4 v=0
6782 Par ch=1 c=64 v=127
6792 On ch=1 n=a#3 v=0
6814 On ch=1 n=d5 v=0
6832 On ch=1 n=a#5 v=0
6919 On ch=1 n=a5 v=63
6919 On ch=1 n=f4 v=42
6919 On ch=1 n=c4 v=38
6919 On ch=1 n=c5 v=52
6964 Par ch=1 c=64 v=88
6974 Par ch=1 c=64 v=0
7032 Par ch=1 c=64 v=127
7046 On ch=1 n=c4 v=0
7086 On ch=1 n=f4 v=0
7184 On ch=1 n=c5 v=0
7201 On ch=1 n=a5 v=0
7257 On ch=1 n=f5 v=58
7257 On ch=1 n=a#3 v=33
7257 On ch=1 n=d5 v=40
7257 On ch=1 n=f4 v=31
7294 Par ch=1 c=64 v=40
7304 Par ch=1 c=64 v=0
7332 On ch=1 n=f4 v=0
7332 Par ch=1 c=64 v=88
7334 On ch=1 n=d5 v=0
7344 On ch=1 n=a#3 v=0
7344 Par ch=1 c=64 v=127
7394 On ch=1 n=f5 v=0
7467 On ch=1 n=a5 v=69
7467 On ch=1 n=c4 v=44
7467 On ch=1 n=c5 v=46
7467 On ch=1 n=f4 v=31
7517 Par ch=1 c=64 v=72
7527 Par ch=1 c=64 v=0
7567 Par ch=1 c=64 v=72
7577 Par ch=1 c=64 v=127
7617 On ch=1 n=c5 v=0
7619 On ch=1 n=f4 v=0
7629 On ch=1 n=c4 v=0
7641 On ch=1 n=a5 v=0
7779 On ch=1 n=a#5 v=68
7779 On ch=1 n=f4 v=35
7779 On ch=1 n=d4 v=38
7779 On ch=1 n=a#4 v=40
7806 Par ch=1 c=64 v=40
7814 Par ch=1 c=64 v=0
7834 On ch=1 n=a#4 v=0
7834 Par ch=1 c=64 v=56
7844 On ch=1 n=f4 v=0
7844 Par ch=1 c=64 v=104
7854 On ch=1 n=d4 v=0
7854 Par ch=1 c=64 v=127
7906 On ch=1 n=a#5 v=0
7994 On ch=1 n=a5 v=70
7994 On ch=1 n=c4 v=47
7994 On ch=1 n=c5 v=41
7994 On ch=1 n=f4 v=31
8046 Par ch=1 c=64 v=56
8056 Par ch=1 c=64 v=0
8096 Par ch=1 c=64 v=40
8104 Par ch=1 c=64 v=127
8156 On ch=1 n=f4 v=0
8176 On ch=1 n=a5 v=0
8186 On ch=1 n=c4 v=0
8206 On ch=1 n=c5 v=0
8256 On ch=1 n=g5 v=60
8306 On ch=1 n=g5 v=0
8331 On ch=1 n=f5 v=60
8331 On ch=1 n=d5 v=52
8331 On ch=1 n=a#3 v=35
8336 Par ch=1 c=64 v=56
8346 Par ch=1 c=64 v=0
8351 On ch=1 n=f4 v=33
8386 Par ch=1 c=64 v=88
8394 Par ch=1 c=64 v=127
8406 On ch=1 n=a#3 v=0
8406 On ch=1 n=d5 v=0
8411 On ch=1 n=f4 v=0
8446 On ch=1 n=f5 v=0
8541 On ch=1 n=a5 v=63
8541 On ch=1 n=c5 v=43
8541 On ch=1 n=c4 v=34
8541 On ch=1 n=f4 v=34
8599 Par ch=1 c=64 v=104
8609 Par ch=1 c=64 v=24
8619 Par ch=1 c=64 v=0
8666 Par ch=1 c=64 v=40
8676 Par ch=1 c=64 v=127
8706 On ch=1 n=c5 v=0
8708 On ch=1 n=f4 v=0
8713 On ch=1 n=c4 v=0
8733 On ch=1 n=a5 v=0
8864 On ch=1 n=a#5 v=65
8864 On ch=1 n=d4 v=44
8864 On ch=1 n=a#4 v=47
8864 On ch=1 n=f4 v=37
8879 Par ch=1 c=64 v=56
8891 Par ch=1 c=64 v=0
8909 Par ch=1 c=64 v=24
8916 Par ch=1 c=64 v=72
8926 On ch=1 n=f4 v=0
8926 Par ch=1 c=64 v=127
8936 On ch=1 n=d4 v=0
8938 On ch=1 n=a#4 v=0
8966 On ch=1 n=a#5 v=0
9073 On ch=1 n=a5 v=67
9073 On ch=1 n=c4 v=53
9073 On ch=1 n=c5 v=55
9073 On ch=1 n=f4 v=43
9098 Par ch=1 c=64 v=72
9108 Par ch=1 c=64 v=0
9166 Par ch=1 c=64 v=40
9178 Par ch=1 c=64 v=104
9186 Par ch=1 c=64 v=127
9190 On ch=1 n=c4 v=0
9220 On ch=1 n=f4 v=0
9268 On ch=1 n=a5 v=0
9293 On ch=1 n=c5 v=0
9343 On ch=1 n=g5 v=63
9393 On ch=1 n=g5 v=0
9418 On ch=1 n=f5 v=66
9418 On ch=1 n=c5 v=49
9418 On ch=1 n=a4 v=36
9418 On ch=1 n=c4 v=47
9448 Par ch=1 c=64 v=56
9458 Par ch=1 c=64 v=0
9493 On ch=1 n=c4 v=0
9496 Par ch=1 c=64 v=40
9498 On ch=1 n=a4 v=0
9506 Par ch=1 c=64 v=104
9516 Par ch=1 c=64 v=127
9533 On ch=1 n=f5 v=0
9560 On ch=1 n=c5 v=0
9643 On ch=1 n=g5 v=68
9643 On ch=1 n=d5 v=56
9643 On ch=1 n=c4 v=46
9643 On ch=1 n=a#4 v=49
9708 Par ch=1 c=64 v=56
9718 Par ch=1 c=64 v=0
9786 Par ch=1 c=64 v=104
9796 Par ch=1 c=64 v=127
9810 On ch=1 n=c4 v=0
9838 On ch=1 n=a#4 v=0
9873 On ch=1 n=d5 v=0
9986 On ch=1 n=e5 v=43
9986 On ch=1 n=c5 v=27
9986 On ch=1 n=c4 v=51
9986 On ch=1 n=a#4 v=26
9996 Par ch=1 c=64 v=56
10008 Par ch=1 c=64 v=0
10053 On ch=1 n=c4 v=0
10053 Par ch=1 c=64 v=56
10071 On ch=1 n=a#4 v=0
10071 Par ch=1 c=64 v=127
10096 On ch=1 n=c5 v=0
10098 On ch=1 n=e5 v=0
10135 On ch=1 n=g5 v=0
10213 On ch=1 n=f5 v=54
10213 On ch=1 n=c5 v=43
10213 On ch=1 n=f4 v=39
10213 On ch=1 n=a4 v=43
10271 Par ch=1 c=64 v=88
10281 Par ch=1 c=64 v=24
10288 Par ch=1 c=64 v=0
10363 On ch=1 n=a4 v=0
10378 On ch=1 n=f4 v=0
10378 Par ch=1 c=64 v=88
10386 Par ch=1 c=64 v=127
10403 On ch=1 n=c5 v=0
10561 On ch=1 n=c5 v=37
10561 On ch=1 n=f4 v=42
10561 Par ch=1 c=64 v=88
10571 Par ch=1 c=64 v=24
10581 Par ch=1 c=64 v=0
10586 On ch=1 n=a4 v=34
10591 Par ch=1 c=64 v=40
10601 Par ch=1 c=64 v=72
10608 On ch=1 n=f4 v=0
10611 Par ch=1 c=64 v=127
10621 On ch=1 n=a4 v=0
10621 On ch=1 n=c5 v=0
10645 On ch=1 n=f5 v=0
10813 On ch=1 n=c6 v=74
10813 On ch=1 n=a5 v=53
10813 On ch=1 n=f5 v=44
10813 On ch=1 n=f4 v=33
10813 On ch=1 n=c5 v=25
10861 Par ch=1 c=64 v=104
10871 Par ch=1 c=64 v=24
10881 Par ch=1 c=64 v=0
10938 Par ch=1 c=64 v=88
10943 On ch=1 n=f4 v=0
10948 Par ch=1 c=64 v=127
10950 On ch=1 n=c5 v=0
10960 On ch=1 n=f5 v=0
10965 On ch=1 n=a5 v=0
11128 On ch=1 n=a5 v=42
11128 On ch=1 n=f5 v=39
11128 On ch=1 n=f4 v=24
11128 On ch=1 n=c5 v=30
11178 On ch=1 n=f4 v=0
11190 On ch=1 n=c5 v=0
11200 On ch=1 n=f5 v=0
11210 On ch=1 n=a5 v=0
11328 On ch=1 n=a5 v=38
11328 On ch=1 n=f5 v=29
11328 On ch=1 n=c5 v=34
11328 On ch=1 n=f4 v=35
11470 On ch=1 n=f5 v=0
11495 On ch=1 n=f4 v=0
11515 On ch=1 n=c5 v=0
11515 On ch=1 n=a5 v=0
11517 On ch=1 n=c6 v=0
11660 On ch=1 n=c6 v=74
11660 On ch=1 n=f5 v=48
11660 On ch=1 n=f4 v=41
11660 On ch=1 n=a5 v=54
11660 On ch=1 n=c5 v=32
11700 On ch=1 n=a5 v=0
11700 On ch=1 n=f5 v=0
11717 On ch=1 n=c5 v=0
11727 On ch=1 n=f4 v=0
11742 On ch=1 n=c6 v=0
11868 On ch=1 n=c6 v=74
11868 On ch=1 n=g5 v=46
11868 On ch=1 n=f4 v=36
11868 On ch=1 n=a#5 v=53
11888 On ch=1 n=c5 v=27
11925 Par ch=1 c=64 v=88
11935 Par ch=1 c=64 v=40
11943 Par ch=1 c=64 v=0
12010 Par ch=1 c=64 v=88
12020 Par ch=1 c=64 v=127
12060 On ch=1 n=f4 v=0
12070 On ch=1 n=c5 v=0
12078 On ch=1 n=g5 v=0
12105 On ch=1 n=c6 v=0
12108 On ch=1 n=a#5 v=0
12200 On ch=1 n=c6 v=82
12200 On ch=1 n=f4 v=49
12200 On ch=1 n=g5 v=54
12200 On ch=1 n=a#5 v=56
12215 On ch=1 n=c5 v=38
12233 Par ch=1 c=64 v=56
12243 Par ch=1 c=64 v=0
12253 Par ch=1 c=64 v=56
12263 Par ch=1 c=64 v=88
12267 On ch=1 n=f4 v=0
12273 Par ch=1 c=64 v=127
12280 On ch=1 n=c5 v=0
12282 On ch=1 n=g5 v=0
12297 On ch=1 n=a#5 v=0
12307 On ch=1 n=c6 v=0
12400 On ch=1 n=e6 v=86
12400 On ch=1 n=f4 v=36
12400 On ch=1 n=a#5 v=56
12400 On ch=1 n=g5 v=55
12400 On ch=1 n=c5 v=36
12452 Par ch=1 c=64 v=88
12462 Par ch=1 c=64 v=0
12502 Par ch=1 c=64 v=24
12512 Par ch=1 c=64 v=104
12520 Par ch=1 c=64 v=127
12547 On ch=1 n=f4 v=0
12567 On ch=1 n=c5 v=0
12577 On ch=1 n=e6 v=0
12585 On ch=1 n=g5 v=0
12597 On ch=1 n=a#5 v=0
12642 On ch=1 n=d6 v=63
12684 On ch=1 n=d6 v=0
12712 On ch=1 n=c6 v=80
12712 On ch=1 n=g5 v=47
12712 On ch=1 n=f4 v=45
12712 On ch=1 n=a#5 v=50
12732 On ch=1 n=c5 v=40
12735 Par ch=1 c=64 v=72
12742 Par ch=1 c=64 v=0
12762 On ch=1 n=a#5 v=0
12764 On ch=1 n=f4 v=0
12772 Par ch=1 c=64 v=88
12782 On ch=1 n=g5 v=0
12782 Par ch=1 c=64 v=127
12792 On ch=1 n=c5 v=0
12802 On ch=1 n=c6 v=0
12917 On ch=1 n=f6 v=80
12917 On ch=1 n=c5 v=30
12917 On ch=1 n=f4 v=39
12917 On ch=1 n=f5 v=44
12917 On ch=1 n=a5 v=55
12975 Par ch=1 c=64 v=24
12985 Par ch=1 c=64 v=0
13045 Par ch=1 c=64 v=72
13055 Par ch=1 c=64 v=127
13089 On ch=1 n=f4 v=0
13092 On ch=1 n=f6 v=0
13114 On ch=1 n=c5 v=0
13124 On ch=1 n=a5 v=0
13129 On ch=1 n=f5 v=0
13262 On ch=1 n=d6 v=73
13262 On ch=1 n=a#4 v=28
13262 On ch=1 n=f5 v=48
13265 Par ch=1 c=64 v=88
13277 Par ch=1 c=64 v=0
13322 Par ch=1 c=64 v=88
13332 Par ch=1 c=64 v=127
13362 On ch=1 n=f5 v=0
13364 On ch=1 n=a#4 v=0
13367 On ch=1 n=d6 v=0
13465 On ch=1 n=c6 v=69
13465 On ch=1 n=f5 v=41
13465 On ch=1 n=a4 v=38
13530 Par ch=1 c=64 v=56
13537 Par ch=1 c=64 v=0
13587 Par ch=1 c=64 v=72
13595 Par ch=1 c=64 v=127
13597 On ch=1 n=a4 v=0
13630 On ch=1 n=c6 v=0
13642 On ch=1 n=f5 v=0
13805 On ch=1 n=a5 v=69
13805 On ch=1 n=e5 v=52
13805 On ch=1 n=c4 v=52
13805 On ch=1 n=a4 v=46
13825 Par ch=1 c=64 v=88
13837 Par ch=1 c=64 v=0
13877 Par ch=1 c=64 v=56
13882 On ch=1 n=a4 v=0
13887 Par ch=1 c=64 v=127
13915 On ch=1 n=c4 v=0
13927 On ch=1 n=e5 v=0
13945 On ch=1 n=a5 v=0
14012 On ch=1 n=f5 v=64
14012 On ch=1 n=c5 v=38
14012 On ch=1 n=d4 v=40
14012 On ch=1 n=a4 v=45
14080 Par ch=1 c=64 v=56
14090 Par ch=1 c=64 v=0
14157 Par ch=1 c=64 v=56
14159 On ch=1 n=a4 v=0
14159 On ch=1 n=d4 v=0
14167 Par ch=1 c=64 v=127
14189 On ch=1 n=c5 v=0
14217 On ch=1 n=f5 v=0
14367 On ch=1 n=g5 v=70
14367 On ch=1 n=g3 v=44
14367 On ch=1 n=d4 v=45
14367 On ch=1 n=f5 v=55
14367 On ch=1 n=a#4 v=44
14392 Par ch=1 c=64 v=72
14400 Par ch=1 c=64 v=0
14449 On ch=1 n=d4 v=0
14450 Par ch=1 c=64 v=72
14457 Par ch=1 c=64 v=127
14469 On ch=1 n=f5 v=0
14484 On ch=1 n=g3 v=0
14489 On ch=1 n=a#4 v=0
14494 On ch=1 n=g5 v=0
14600 On ch=1 n=g5 v=63
14600 On ch=1 n=e5 v=58
14600 On ch=1 n=c4 v=59
14600 On ch=1 n=a#4 v=34
14652 Par ch=1 c=64 v=56
14662 Par ch=1 c=64 v=0
14717 Par ch=1 c=64 v=40
14727 Par ch=1 c=64 v=127
14807 On ch=1 n=c4 v=0
14815 On ch=1 n=a#4 v=0
14830 On ch=1 n=e5 v=0
14972 On ch=1 n=a#4 v=27
14972 On ch=1 n=c4 v=48
14972 On ch=1 n=d5 v=39
15000 Par ch=1 c=64 v=56
15010 Par ch=1 c=64 v=0
15047 Par ch=1 c=64 v=40
15057 Par ch=1 c=64 v=104
15062 On ch=1 n=g5 v=0
15067 Par ch=1 c=64 v=127
15074 On ch=1 n=c4 v=0
15084 On ch=1 n=a#4 v=0
15109 On ch=1 n=d5 v=0
15192 On ch=1 n=a5 v=65
15192 On ch=1 n=c5 v=44
15192 On ch=1 n=f4 v=37
15192 On ch=1 n=f3 v=39
15239 Par ch=1 c=64 v=88
15249 Par ch=1 c=64 v=24
15259 Par ch=1 c=64 v=0
15307 Par ch=1 c=64 v=40
15317 Par ch=1 c=64 v=104
15324 On ch=1 n=f3 v=0
15324 Par ch=1 c=64 v=127
15369 On ch=1 n=f4 v=0
15384 On ch=1 n=a5 v=0
15422 On ch=1 n=c5 v=0
15532 On ch=1 n=a#5 v=62
15532 On ch=1 n=a#3 v=39
15532 On ch=1 n=d5 v=43
15532 On ch=1 n=f4 v=40
15549 Par ch=1 c=64 v=104
15557 Par ch=1 c=64 v=24
15569 Par ch=1 c=64 v=0
15599 Par ch=1 c=64 v=40
15602 On ch=1 n=f4 v=0
15607 Par ch=1 c=64 v=127
15612 On ch=1 n=a#3 v=0
15629 On ch=1 n=d5 v=0
15647 On ch=1 n=a#5 v=0
15737 On ch=1 n=a5 v=63
15737 On ch=1 n=c5 v=45
15737 On ch=1 n=f4 v=33
15737 On ch=1 n=c4 v=41
15782 Par ch=1 c=64 v=72
15789 Par ch=1 c=64 v=0
15849 Par ch=1 c=64 v=88
15859 Par ch=1 c=64 v=127
15889 On ch=1 n=f4 v=0
15899 On ch=1 n=c4 v=0
15961 On ch=1 n=c5 v=0
15969 On ch=1 n=a5 v=0
16059 On ch=1 n=f5 v=61
16059 On ch=1 n=a#3 v=39
16059 On ch=1 n=d5 v=41
16059 On ch=1 n=f4 v=33
16069 Par ch=1 c=64 v=104
16079 Par ch=1 c=64 v=24
16089 Par ch=1 c=64 v=0
16116 Par ch=1 c=64 v=24
16119 On ch=1 n=f4 v=0
16126 Par ch=1 c=64 v=88
16136 On ch=1 n=d5 v=0
16136 Par ch=1 c=64 v=127
16144 On ch=1 n=a#3 v=0
16191 On ch=1 n=f5 v=0
16264 On ch=1 n=a5 v=60
16264 On ch=1 n=c5 v=45
16264 On ch=1 n=c4 v=37
16264 On ch=1 n=f4 v=33
16291 Par ch=1 c=64 v=104
16301 Par ch=1 c=64 v=0
16349 Par ch=1 c=64 v=56
16359 Par ch=1 c=64 v=127
16409 On ch=1 n=c5 v=0
16424 On ch=1 n=a5 v=0
16431 On ch=1 n=c4 v=0
16449 On ch=1 n=f4 v=0
16599 On ch=1 n=a#5 v=59
16599 On ch=1 n=a#4 v=34
16599 On ch=1 n=d4 v=43
16599 On ch=1 n=f4 v=29
16611 Par ch=1 c=64 v=56
16621 Par ch=1 c=64 v=0
16649 Par ch=1 c=64 v=56
16659 Par ch=1 c=64 v=104
16669 Par ch=1 c=64 v=127
16671 On ch=1 n=f4 v=0
16676 On ch=1 n=d4 v=0
16681 On ch=1 n=a#4 v=0
16716 On ch=1 n=a#5 v=0
16814 On ch=1 n=a5 v=59
16814 On ch=1 n=c5 v=41
16814 On ch=1 n=f4 v=29
16814 On ch=1 n=c4 v=33
16864 Par ch=1 c=64 v=40
16871 Par ch=1 c=64 v=0
16931 Par ch=1 c=64 v=104
16941 Par ch=1 c=64 v=127
17019 On ch=1 n=c4 v=0
17026 On ch=1 n=f4 v=0
17069 On ch=1 n=a5 v=0
17086 On ch=1 n=c5 v=0
17101 On ch=1 n=g5 v=54
17164 Par ch=1 c=64 v=88
17166 On ch=1 n=f5 v=57
17166 On ch=1 n=f4 v=24
17166 On ch=1 n=a#3 v=35
17166 On ch=1 n=d5 v=44
17168 On ch=1 n=g5 v=0
17174 Par ch=1 c=64 v=0
17221 Par ch=1 c=64 v=72
17231 Par ch=1 c=64 v=127
17248 On ch=1 n=f4 v=0
17276 On ch=1 n=a#3 v=0
17306 On ch=1 n=d5 v=0
17311 On ch=1 n=f5 v=0
17361 On ch=1 n=a5 v=67
17361 On ch=1 n=c4 v=55
17361 On ch=1 n=c5 v=49
17361 On ch=1 n=f4 v=35
17406 Par ch=1 c=64 v=88
17416 Par ch=1 c=64 v=0
17484 Par ch=1 c=64 v=88
17494 Par ch=1 c=64 v=127
17508 On ch=1 n=c5 v=0
17541 On ch=1 n=a5 v=0
17551 On ch=1 n=c4 v=0
17553 On ch=1 n=f4 v=0
17684 On ch=1 n=a#5 v=67
17691 On ch=1 n=a#4 v=40
17701 Par ch=1 c=64 v=56
17703 On ch=1 n=f4 v=41
17706 On ch=1 n=d4 v=42
17711 Par ch=1 c=64 v=0
17741 Par ch=1 c=64 v=24
17751 Par ch=1 c=64 v=72
17758 On ch=1 n=a#4 v=0
17761 Par ch=1 c=64 v=127
17768 On ch=1 n=f4 v=0
17776 On ch=1 n=d4 v=0
17798 On ch=1 n=a#5 v=0
17896 On ch=1 n=a5 v=72
17896 On ch=1 n=c5 v=51
17896 On ch=1 n=f4 v=37
17896 On ch=1 n=c4 v=51
17943 Par ch=1 c=64 v=56
17953 Par ch=1 c=64 v=0
18003 Par ch=1 c=64 v=72
18011 Par ch=1 c=64 v=127
18013 On ch=1 n=c4 v=0
18038 On ch=1 n=f4 v=0
18091 On ch=1 n=a5 v=0
18118 On ch=1 n=c5 v=0
18148 On ch=1 n=g5 v=60
18203 On ch=1 n=g5 v=0
18221 On ch=1 n=f5 v=72
18221 On ch=1 n=c5 v=53
18221 On ch=1 n=a4 v=42
18221 On ch=1 n=c4 v=47
18236 Par ch=1 c=64 v=104
18243 Par ch=1 c=64 v=0
18293 Par ch=1 c=64 v=40
18301 Par ch=1 c=64 v=104
18303 On ch=1 n=a4 v=0
18306 On ch=1 n=c4 v=0
18313 Par ch=1 c=64 v=127
18336 On ch=1 n=f5 v=0
18366 On ch=1 n=c5 v=0
18436 On ch=1 n=g5 v=70
18436 On ch=1 n=d5 v=60
18436 On ch=1 n=a#4 v=34
18436 On ch=1 n=c4 v=49
18486 Par ch=1 c=64 v=104
18496 Par ch=1 c=64 v=40
18506 Par ch=1 c=64 v=0
18566 Par ch=1 c=64 v=88
18576 Par ch=1 c=64 v=127
18598 On ch=1 n=c4 v=0
18626 On ch=1 n=a#4 v=0
18673 On ch=1 n=d5 v=0
18798 On ch=1 n=e5 v=41
18798 On ch=1 n=c5 v=36
18798 On ch=1 n=c4 v=53
18798 On ch=1 n=a#4 v=27
18816 Par ch=1 c=64 v=72
18826 Par ch=1 c=64 v=0
18866 Par ch=1 c=64 v=24
18873 Par ch=1 c=64 v=88
18883 Par ch=1 c=64 v=127
18885 On ch=1 n=c4 v=0
18915 On ch=1 n=a#4 v=0
18923 On ch=1 n=e5 v=0
18925 On ch=1 n=c5 v=0
18935 On ch=1 n=g5 v=0
19035 On ch=1 n=f5 v=52
19035 On ch=1 n=c5 v=36
19035 On ch=1 n=f4 v=39
19035 On ch=1 n=a4 v=28
19085 Par ch=1 c=64 v=104
19093 Par ch=1 c=64 v=40
19103 Par ch=1 c=64 v=0
19190 Par ch=1 c=64 v=72
19200 Par ch=1 c=64 v=127
19205 On ch=1 n=f4 v=0
19210 On ch=1 n=a4 v=0
19230 On ch=1 n=c5 v=0
19410 On ch=1 n=c5 v=26
19410 On ch=1 n=a4 v=22
19410 On ch=1 n=f4 v=24
19425 Par ch=1 c=64 v=104
19433 Par ch=1 c=64 v=40
19443 Par ch=1 c=64 v=0
19463 Par ch=1 c=64 v=24
19473 Par ch=1 c=64 v=72
19480 On ch=1 n=f4 v=0
19482 On ch=1 n=a4 v=0
19482 On ch=1 n=c5 v=0
19483 Par ch=1 c=64 v=127
19502 On ch=1 n=f5 v=0
19715 On ch=1 n=c6 v=82
19715 On ch=1 n=c4 v=40
19715 On ch=1 n=a4 v=31
19715 On ch=1 n=e5 v=56
19763 Par ch=1 c=64 v=24
19773 Par ch=1 c=64 v=0
19830 Par ch=1 c=64 v=88
19835 On ch=1 n=c4 v=0
19840 Par ch=1 c=64 v=127
19845 On ch=1 n=a4 v=0
19865 On ch=1 n=e5 v=0
20048 On ch=1 n=e5 v=54
20048 On ch=1 n=c4 v=46
20048 On ch=1 n=a4 v=26
20100 On ch=1 n=a4 v=0
20108 On ch=1 n=c4 v=0
20123 On ch=1 n=e5 v=0
20245 On ch=1 n=e5 v=47
20245 On ch=1 n=a4 v=35
20245 On ch=1 n=c4 v=37
20275 Par ch=1 c=64 v=88
20285 Par ch=1 c=64 v=0
20323 Par ch=1 c=64 v=56
20333 Par ch=1 c=64 v=127
20425 On ch=1 n=e5 v=0
20427 On ch=1 n=c6 v=0
20480 On ch=1 n=a4 v=0
20490 On ch=1 n=c4 v=0
20553 On ch=1 n=b5 v=70
20553 On ch=1 n=f5 v=47
20553 On ch=1 n=d5 v=40
20553 On ch=1 n=d4 v=44
20555 Par ch=1 c=64 v=56
20565 Par ch=1 c=64 v=0
20603 Par ch=1 c=64 v=72
20615 On ch=1 n=d5 v=0
20615 Par ch=1 c=64 v=127
20635 On ch=1 n=d4 v=0
20645 On ch=1 n=f5 v=0
20682 On ch=1 n=b5 v=0
20690 Par ch=1 c=64 v=0
20720 On ch=1 n=c5 v=58
20725 On ch=1 n=e4 v=42
20727 Par ch=1 c=64 v=24
20737 Par ch=1 c=64 v=104
20747 Par ch=1 c=64 v=127
20772 On ch=1 n=e5 v=58
20805 On ch=1 n=b5 v=64
20865 On ch=1 n=b5 v=0
20865 On ch=1 n=a5 v=79
20940 Par ch=1 c=64 v=104
20950 Par ch=1 c=64 v=0
20997 Par ch=1 c=64 v=72
21007 Par ch=1 c=64 v=127
21017 On ch=1 n=e4 v=0
21027 On ch=1 n=c5 v=0
21079 On ch=1 n=e5 v=0
21104 On ch=1 n=a5 v=0
21192 On ch=1 n=g#5 v=65
21192 On ch=1 n=e3 v=41
21192 On ch=1 n=e5 v=53
21192 On ch=1 n=b4 v=52
21217 On ch=1 n=e4 v=39
21227 Par ch=1 c=64 v=24
21237 Par ch=1 c=64 v=0
21267 Par ch=1 c=64 v=40
21272 On ch=1 n=b4 v=0
21274 Par ch=1 c=64 v=127
21284 On ch=1 n=e3 v=0
21294 On ch=1 n=e4 v=0
21304 On ch=1 n=e5 v=0
21349 On ch=1 n=g#5 v=0
21417 On ch=1 n=a5 v=71
21417 On ch=1 n=a3 v=41
21417 On ch=1 n=c5 v=47
21417 On ch=1 n=e5 v=51
21432 On ch=1 n=e4 v=33
21479 Par ch=1 c=64 v=56
21489 Par ch=1 c=64 v=0
21549 Par ch=1 c=64 v=104
21557 On ch=1 n=a3 v=0
21557 Par ch=1 c=64 v=127
21569 On ch=1 n=c5 v=0
21577 On ch=1 n=e4 v=0
21577 On ch=1 n=e5 v=0
21594 On ch=1 n=a5 v=0
21764 On ch=1 n=c6 v=89
21764 On ch=1 n=a3 v=45
21764 On ch=1 n=a4 v=47
21764 On ch=1 n=c5 v=60
21764 On ch=1 n=e5 v=64
21779 Par ch=1 c=64 v=88
21789 On ch=1 n=e5 v=0
21789 On ch=1 n=c5 v=0
21789 On ch=1 n=a3 v=0
21789 Par ch=1 c=64 v=40
21799 Par ch=1 c=64 v=72
21809 Par ch=1 c=64 v=127
21821 On ch=1 n=a4 v=0
21831 On ch=1 n=c6 v=0
21969 On ch=1 n=e6 v=87
21969 On ch=1 n=g5 v=63
21969 On ch=1 n=c4 v=50
21969 On ch=1 n=g4 v=47
21969 On ch=1 n=e5 v=58
22001 Par ch=1 c=64 v=104
22009 Par ch=1 c=64 v=40
22019 Par ch=1 c=64 v=0
22066 Par ch=1 c=64 v=56
22076 Par ch=1 c=64 v=127
22099 On ch=1 n=c4 v=0
22119 On ch=1 n=g4 v=0
22146 On ch=1 n=e5 v=0
22181 On ch=1 n=g5 v=0
22186 On ch=1 n=e6 v=0
22291 On ch=1 n=e6 v=89
22291 On ch=1 n=c4 v=46
22291 On ch=1 n=g5 v=64
22291 On ch=1 n=g4 v=30
22291 On ch=1 n=e5 v=58
22291 On ch=1 n=c5 v=29
22333 On ch=1 n=c4 v=0
22341 On ch=1 n=e5 v=0
22343 On ch=1 n=g4 v=0
22353 On ch=1 n=c5 v=0
22355 On ch=1 n=g5 v=0
22408 On ch=1 n=e6 v=0
22491 On ch=1 n=e6 v=89
22491 On ch=1 n=g5 v=69
22491 On ch=1 n=e4 v=47
22491 On ch=1 n=c5 v=40
22568 Par ch=1 c=64 v=56
22578 Par ch=1 c=64 v=0
22626 Par ch=1 c=64 v=72
22636 Par ch=1 c=64 v=127
22643 On ch=1 n=g5 v=0
22671 On ch=1 n=e4 v=0
22683 On ch=1 n=c5 v=0
22693 On ch=1 n=e6 v=0
22791 On ch=1 n=d6 v=79
22791 On ch=1 n=a5 v=62
22791 On ch=1 n=f4 v=53
22791 On ch=1 n=f5 v=47
22811 Par ch=1 c=64 v=56
22818 Par ch=1 c=64 v=0
22858 Par ch=1 c=64 v=56
22866 On ch=1 n=f5 v=0
22868 Par ch=1 c=64 v=127
22898 On ch=1 n=a5 v=0
22901 On ch=1 n=f4 v=0
22933 On ch=1 n=d6 v=0
22936 Par ch=1 c=64 v=56
22946 On ch=1 n=g4 v=52
22946 On ch=1 n=e5 v=66
22946 Par ch=1 c=64 v=0
22983 Par ch=1 c=64 v=56
22993 Par ch=1 c=64 v=127
23003 On ch=1 n=g5 v=66
23035 On ch=1 n=d6 v=72
23095 On ch=1 n=c6 v=81
23097 On ch=1 n=d6 v=0
23165 Par ch=1 c=64 v=56
23175 Par ch=1 c=64 v=0
23233 Par ch=1 c=64 v=56
23243 Par ch=1 c=64 v=127
23248 On ch=1 n=e5 v=0
23278 On ch=1 n=g4 v=0
23303 On ch=1 n=g5 v=0
23360 On ch=1 n=c6 v=0
23425 On ch=1 n=b5 v=69
23425 On ch=1 n=d5 v=39
23425 On ch=1 n=g5 v=41
23425 On ch=1 n=g3 v=47
23450 On ch=1 n=g4 v=39
23453 Par ch=1 c=64 v=104
23465 Par ch=1 c=64 v=0
23503 Par ch=1 c=64 v=40
23507 On ch=1 n=d5 v=0
23510 On ch=1 n=g3 v=0
23513 Par ch=1 c=64 v=104
23520 On ch=1 n=g5 v=0
23523 Par ch=1 c=64 v=127
23530 On ch=1 n=g4 v=0
23602 On ch=1 n=b5 v=0
23650 On ch=1 n=c6 v=64
23650 On ch=1 n=e5 v=44
23650 On ch=1 n=c4 v=40
23650 On ch=1 n=g5 v=41
23650 On ch=1 n=g4 v=30
23708 Par ch=1 c=64 v=104
23718 Par ch=1 c=64 v=40
23728 Par ch=1 c=64 v=0
23787 On ch=1 n=c4 v=0
23793 Par ch=1 c=64 v=88
23805 Par ch=1 c=64 v=127
23825 On ch=1 n=e5 v=0
23830 On ch=1 n=g4 v=0
23867 On ch=1 n=g5 v=0
24005 On ch=1 n=e5 v=36
24005 On ch=1 n=g4 v=34
24005 On ch=1 n=c4 v=32
24010 Par ch=1 c=64 v=104
24022 Par ch=1 c=64 v=24
24032 Par ch=1 c=64 v=0
24054 On ch=1 n=e5 v=0
24059 Par ch=1 c=64 v=56
24062 On ch=1 n=c4 v=0
24069 On ch=1 n=g4 v=0
24069 Par ch=1 c=64 v=127
24084 On ch=1 n=c6 v=0
24277 On ch=1 n=e6 v=55
24277 On ch=1 n=c4 v=38
24277 On ch=1 n=g5 v=32
24277 On ch=1 n=c5 v=1
24302 Par ch=1 c=64 v=40
24312 Par ch=1 c=64 v=0
24332 On ch=1 n=c5 v=0
24349 Par ch=1 c=64 v=88
24359 Par ch=1 c=64 v=127
24359 Par ch=1 c=67 v=127
24392 On ch=1 n=c4 v=0
24422 On ch=1 n=e6 v=0
24439 On ch=1 n=g5 v=0
24604 On ch=1 n=f6 v=70
24604 On ch=1 n=a5 v=51
24604 On ch=1 n=f4 v=35
24604 On ch=1 n=c5 v=31
24632 Par ch=1 c=64 v=40
24639 Par ch=1 c=64 v=0
24649 Par ch=1 c=64 v=24
24659 Par ch=1 c=64 v=72
24666 On ch=1 n=f4 v=0
24669 Par ch=1 c=64 v=127
24676 On ch=1 n=c5 v=0
24684 On ch=1 n=f6 v=0
24731 On ch=1 n=a5 v=0
24807 On ch=1 n=e6 v=62
24807 On ch=1 n=g5 v=36
24807 On ch=1 n=g4 v=36
24807 On ch=1 n=c5 v=36
24854 Par ch=1 c=64 v=104
24864 Par ch=1 c=64 v=40
24872 Par ch=1 c=64 v=0
24922 Par ch=1 c=64 v=88
24929 Par ch=1 c=64 v=127
24977 On ch=1 n=c5 v=0
24984 On ch=1 n=g4 v=0
25027 On ch=1 n=g5 v=0
25047 On ch=1 n=e6 v=0
25142 On ch=1 n=c6 v=66
25142 On ch=1 n=f4 v=44
25142 On ch=1 n=a5 v=52
25142 On ch=1 n=c5 v=35
25154 Par ch=1 c=64 v=72
25162 Par ch=1 c=64 v=0
25194 Par ch=1 c=64 v=24
25204 Par ch=1 c=64 v=88
25209 On ch=1 n=f4 v=0
25212 On ch=1 n=c5 v=0
25212 Par ch=1 c=64 v=127
25219 On ch=1 n=a5 v=0
25254 On ch=1 n=c6 v=0
25344 On ch=1 n=e6 v=65
25344 On ch=1 n=g4 v=49
25344 On ch=1 n=g5 v=40
25344 On ch=1 n=c5 v=39
25394 Par ch=1 c=64 v=72
25404 Par ch=1 c=64 v=0
25434 Par ch=1 c=64 v=24
25441 Par ch=1 c=64 v=72
25451 Par ch=1 c=64 v=127
25491 On ch=1 n=g5 v=0
25518 On ch=1 n=g4 v=0
25528 On ch=1 n=c5 v=0
25615 On ch=1 n=e6 v=0
25671 On ch=1 n=f6 v=71
25671 On ch=1 n=a4 v=36
25671 On ch=1 n=f5 v=43
25691 Par ch=1 c=64 v=56
25696 On ch=1 n=c5 v=27
25701 Par ch=1 c=64 v=0
25728 Par ch=1 c=64 v=40
25736 Par ch=1 c=64 v=88
25743 On ch=1 n=f5 v=0
25746 On ch=1 n=a4 v=0
25748 Par ch=1 c=64 v=127
25758 On ch=1 n=f6 v=0
25765 On ch=1 n=c5 v=0
25873 On ch=1 n=e6 v=65
25873 On ch=1 n=g5 v=44
25873 On ch=1 n=g4 v=31
25873 On ch=1 n=c5 v=25
25890 Par ch=1 c=64 v=88
25900 Par ch=1 c=64 v=0
25958 Par ch=1 c=64 v=88
25968 Par ch=1 c=64 v=127
26035 On ch=1 n=c5 v=0
26060 On ch=1 n=g4 v=0
26070 On ch=1 n=e6 v=0
26127 On ch=1 n=d6 v=68
26130 On ch=1 n=g5 v=0
26189 On ch=1 n=d6 v=0
26200 On ch=1 n=c6 v=70
26200 On ch=1 n=a5 v=43
26200 On ch=1 n=c5 v=39
26200 On ch=1 n=f4 v=39
26217 Par ch=1 c=64 v=104
26227 Par ch=1 c=64 v=24
26235 Par ch=1 c=64 v=0
26265 Par ch=1 c=64 v=40
26270 On ch=1 n=f4 v=0
26275 Par ch=1 c=64 v=104
26277 On ch=1 n=a5 v=0
26282 On ch=1 n=c5 v=0
26285 Par ch=1 c=64 v=127
26330 On ch=1 n=c6 v=0
26405 On ch=1 n=e6 v=74
26405 On ch=1 n=g4 v=29
26405 On ch=1 n=c5 v=35
26405 On ch=1 n=g5 v=53
26430 Par ch=1 c=64 v=56
26440 Par ch=1 c=64 v=0
26487 Par ch=1 c=64 v=40
26497 Par ch=1 c=64 v=127
26540 On ch=1 n=g5 v=0
26552 On ch=1 n=g4 v=0
26562 On ch=1 n=c5 v=0
26649 On ch=1 n=e6 v=0
26707 On ch=1 n=f6 v=77
26707 On ch=1 n=f5 v=52
26707 On ch=1 n=a4 v=37
26707 On ch=1 n=c5 v=34
26729 Par ch=1 c=64 v=56
26737 Par ch=1 c=64 v=0
26767 Par ch=1 c=64 v=72
26769 On ch=1 n=a4 v=0
26774 On ch=1 n=c5 v=0
26777 Par ch=1 c=64 v=127
26789 On ch=1 n=f5 v=0
26812 On ch=1 n=f6 v=0
26912 On ch=1 n=e6 v=73
26912 On ch=1 n=g5 v=51
26912 On ch=1 n=c5 v=37
26912 On ch=1 n=g4 v=36
26949 Par ch=1 c=64 v=72
26959 Par ch=1 c=64 v=0
26999 Par ch=1 c=64 v=24
27009 On ch=1 n=g4 v=0
27009 Par ch=1 c=64 v=88
27019 Par ch=1 c=64 v=127
27047 On ch=1 n=c5 v=0
27089 On ch=1 n=e6 v=0
27112 On ch=1 n=g5 v=0
27154 On ch=1 n=d6 v=66
27201 On ch=1 n=d6 v=0
27227 On ch=1 n=c6 v=78
27227 On ch=1 n=g5 v=48
27227 On ch=1 n=g4 v=33
27227 On ch=1 n=e5 v=50
27242 Par ch=1 c=64 v=104
27252 Par ch=1 c=64 v=24
27259 Par ch=1 c=64 v=0
27274 On ch=1 n=g4 v=0
27289 Par ch=1 c=64 v=72
27297 Par ch=1 c=64 v=127
27304 On ch=1 n=e5 v=0
27339 On ch=1 n=c6 v=0
27349 On ch=1 n=g5 v=0
27436 On ch=1 n=d6 v=79
27436 On ch=1 n=g4 v=33
27436 On ch=1 n=f5 v=41
27436 On ch=1 n=a5 v=63
27499 Par ch=1 c=64 v=104
27506 Par ch=1 c=64 v=40
27516 Par ch=1 c=64 v=0
27555 On ch=1 n=f5 v=0
27563 Par ch=1 c=64 v=88
27568 On ch=1 n=g4 v=0
27573 Par ch=1 c=64 v=127
27580 On ch=1 n=a5 v=0
27778 On ch=1 n=b5 v=50
27778 On ch=1 n=g5 v=39
27778 On ch=1 n=g4 v=49
27778 On ch=1 n=f5 v=37
27816 Par ch=1 c=64 v=72
27826 Par ch=1 c=64 v=24
27833 Par ch=1 c=64 v=0
27835 On ch=1 n=d6 v=0
27838 On ch=1 n=g4 v=0
27843 Par ch=1 c=64 v=40
27853 Par ch=1 c=64 v=88
27860 Par ch=1 c=64 v=127
27877 On ch=1 n=g5 v=0
27882 On ch=1 n=f5 v=0
27932 On ch=1 n=b5 v=0
28020 On ch=1 n=c6 v=69
28020 On ch=1 n=g5 v=54
28020 On ch=1 n=c4 v=39
28020 On ch=1 n=e5 v=41
28093 Par ch=1 c=64 v=104
28103 Par ch=1 c=64 v=24
28113 Par ch=1 c=64 v=0
28170 Par ch=1 c=64 v=72
28180 Par ch=1 c=64 v=127
28195 On ch=1 n=e5 v=0
28200 On ch=1 n=c4 v=0
28370 On ch=1 n=e5 v=41
28370 On ch=1 n=c4 v=43
28413 Par ch=1 c=64 v=72
28423 Par ch=1 c=64 v=0
28435 On ch=1 n=g5 v=0
28443 Par ch=1 c=64 v=40
28450 Par ch=1 c=64 v=88
28460 On ch=1 n=c6 v=0
28460 Par ch=1 c=64 v=127
28470 Par ch=1 c=67 v=0
28477 On ch=1 n=c4 v=0
28502 On ch=1 n=e5 v=0
28625 On ch=1 n=a#5 v=64
28625 On ch=1 n=d5 v=55
28625 On ch=1 n=d4 v=44
28625 On ch=1 n=f5 v=47
28673 Par ch=1 c=64 v=88
28683 Par ch=1 c=64 v=0
28743 Par ch=1 c=64 v=40
28750 Par ch=1 c=64 v=104
28752 On ch=1 n=d5 v=0
28760 Par ch=1 c=64 v=127
28790 On ch=1 n=d4 v=0
28817 On ch=1 n=f5 v=0
28943 On ch=1 n=g5 v=45
28943 On ch=1 n=c#5 v=30
28943 On ch=1 n=e4 v=42
28975 Par ch=1 c=64 v=104
28983 Par ch=1 c=64 v=24
28993 Par ch=1 c=64 v=0
29013 Par ch=1 c=64 v=24
29023 Par ch=1 c=64 v=72
29033 Par ch=1 c=64 v=127
29085 On ch=1 n=c#5 v=0
29122 On ch=1 n=a#5 v=0
29132 On ch=1 n=e4 v=0
29177 On ch=1 n=a5 v=65
29177 On ch=1 n=f4 v=32
29177 On ch=1 n=c5 v=31
29222 Par ch=1 c=64 v=72
29232 Par ch=1 c=64 v=0
29274 On ch=1 n=f4 v=0
29292 Par ch=1 c=64 v=56
29302 Par ch=1 c=64 v=127
29304 On ch=1 n=c5 v=0
29340 On ch=1 n=g5 v=0
29352 On ch=1 n=a5 v=0
29510 On ch=1 n=c6 v=76
29510 On ch=1 n=f4 v=41
29510 On ch=1 n=a5 v=42
29510 On ch=1 n=f5 v=41
29510 On ch=1 n=c5 v=36
29542 Par ch=1 c=64 v=56
29552 Par ch=1 c=64 v=0
29562 On ch=1 n=f4 v=0
29579 On ch=1 n=c5 v=0
29579 Par ch=1 c=64 v=40
29584 On ch=1 n=a5 v=0
29589 Par ch=1 c=64 v=88
29597 On ch=1 n=f5 v=0
29597 Par ch=1 c=64 v=127
29624 On ch=1 n=c6 v=0
29714 On ch=1 n=c6 v=80
29714 On ch=1 n=c5 v=33
29714 On ch=1 n=f4 v=37
29714 On ch=1 n=a5 v=48
29714 On ch=1 n=f5 v=49
29744 Par ch=1 c=64 v=72
29754 Par ch=1 c=64 v=0
29792 Par ch=1 c=64 v=24
29802 Par ch=1 c=64 v=88
29812 Par ch=1 c=64 v=127
29854 On ch=1 n=a5 v=0
29854 On ch=1 n=c5 v=0
29856 On ch=1 n=f4 v=0
29861 On ch=1 n=f5 v=0
29896 On ch=1 n=c6 v=0
30049 On ch=1 n=c6 v=76
30049 On ch=1 n=a5 v=63
30049 On ch=1 n=f4 v=33
30049 On ch=1 n=c5 v=29
30104 On ch=1 n=a5 v=0
30109 On ch=1 n=f4 v=0
30116 On ch=1 n=c5 v=0
30119 On ch=1 n=c6 v=0
30267 On ch=1 n=e6 v=76
30267 On ch=1 n=f4 v=29
30267 On ch=1 n=a#5 v=46
30267 On ch=1 n=c5 v=40
30304 Par ch=1 c=64 v=104
30314 Par ch=1 c=64 v=0
30362 Par ch=1 c=64 v=40
30372 Par ch=1 c=64 v=127
30382 On ch=1 n=f4 v=0
30392 On ch=1 n=c5 v=0
30462 On ch=1 n=e6 v=0
30467 On ch=1 n=a#5 v=0
30507 On ch=1 n=d6 v=70
30557 On ch=1 n=d6 v=0
30579 On ch=1 n=c6 v=81
30579 On ch=1 n=f4 v=39
30579 On ch=1 n=a#5 v=58
30579 On ch=1 n=c5 v=34
30594 Par ch=1 c=64 v=104
30604 Par ch=1 c=64 v=24
30614 Par ch=1 c=64 v=0
30634 Par ch=1 c=64 v=40
30639 On ch=1 n=f4 v=0
30642 Par ch=1 c=64 v=104
30646 On ch=1 n=c5 v=0
30654 Par ch=1 c=64 v=127
30661 On ch=1 n=a#5 v=0
30694 On ch=1 n=c6 v=0
30787 On ch=1 n=f6 v=81
30787 On ch=1 n=c5 v=36
30787 On ch=1 n=a5 v=56
30787 On ch=1 n=f4 v=40
30847 Par ch=1 c=64 v=72
30857 Par ch=1 c=64 v=0
30907 Par ch=1 c=64 v=88
30914 Par ch=1 c=64 v=127
30917 On ch=1 n=f4 v=0
30932 On ch=1 n=a5 v=0
30932 On ch=1 n=f6 v=0
30934 On ch=1 n=c5 v=0
31129 On ch=1 n=d6 v=74
31129 On ch=1 n=a#4 v=43
31129 On ch=1 n=f5 v=54
31147 Par ch=1 c=64 v=56
31157 Par ch=1 c=64 v=0
31194 Par ch=1 c=64 v=88
31204 Par ch=1 c=64 v=127
31234 On ch=1 n=d6 v=0
31239 On ch=1 n=a#4 v=0
31241 On ch=1 n=f5 v=0
31334 On ch=1 n=c6 v=70
31334 On ch=1 n=f5 v=44
31334 On ch=1 n=a4 v=40
31399 Par ch=1 c=64 v=104
31409 Par ch=1 c=64 v=24
31419 Par ch=1 c=64 v=0
31447 Par ch=1 c=64 v=56
31457 Par ch=1 c=64 v=127
31486 On ch=1 n=a4 v=0
31491 On ch=1 n=c6 v=0
31514 On ch=1 n=f5 v=0
31667 On ch=1 n=a5 v=68
31667 On ch=1 n=e5 v=53
31667 On ch=1 n=c4 v=52
31667 On ch=1 n=a4 v=31
31699 Par ch=1 c=64 v=56
31709 Par ch=1 c=64 v=0
31727 Par ch=1 c=64 v=40
31737 Par ch=1 c=64 v=104
31747 Par ch=1 c=64 v=127
31757 On ch=1 n=a4 v=0
31759 On ch=1 n=c4 v=0
31807 On ch=1 n=e5 v=0
31809 On ch=1 n=a5 v=0
31877 On ch=1 n=f5 v=65
31877 On ch=1 n=d4 v=47
31877 On ch=1 n=c5 v=38
31877 On ch=1 n=a4 v=36
31952 Par ch=1 c=64 v=40
31959 Par ch=1 c=64 v=0
31999 Par ch=1 c=64 v=56
32009 Par ch=1 c=64 v=127
32019 On ch=1 n=c5 v=0
32021 On ch=1 n=d4 v=0
32024 On ch=1 n=a4 v=0
32041 On ch=1 n=f5 v=0
32219 On ch=1 n=g5 v=67
32219 On ch=1 n=a#4 v=39
32219 On ch=1 n=f5 v=59
32219 On ch=1 n=g3 v=49
32219 On ch=1 n=d4 v=41
32256 Par ch=1 c=64 v=56
32266 Par ch=1 c=64 v=0
32303 Par ch=1 c=64 v=72
32306 On ch=1 n=d4 v=0
32313 Par ch=1 c=64 v=127
32331 On ch=1 n=f5 v=0
32338 On ch=1 n=g3 v=0
32353 On ch=1 n=a#4 v=0
32358 On ch=1 n=g5 v=0
32463 On ch=1 n=g5 v=62
32463 On ch=1 n=c4 v=42
32463 On ch=1 n=a#4 v=42
32463 On ch=1 n=e5 v=57
32536 Par ch=1 c=64 v=88
32546 Par ch=1 c=64 v=0
32603 Par ch=1 c=64 v=104
32613 Par ch=1 c=64 v=127
32663 On ch=1 n=c4 v=0
32690 On ch=1 n=e5 v=0
32695 On ch=1 n=a#4 v=0
32823 On ch=1 n=d5 v=43
32823 On ch=1 n=a#4 v=30
32823 On ch=1 n=c4 v=47
32856 Par ch=1 c=64 v=56
32863 Par ch=1 c=64 v=0
32873 Par ch=1 c=64 v=24
32883 Par ch=1 c=64 v=72
32893 Par ch=1 c=64 v=127
32905 On ch=1 n=g5 v=0
32908 On ch=1 n=c4 v=0
32920 On ch=1 n=a#4 v=0
32978 On ch=1 n=d5 v=0
33038 On ch=1 n=a5 v=64
33038 On ch=1 n=f3 v=33
33038 On ch=1 n=f4 v=29
33038 On ch=1 n=c5 v=46
33088 Par ch=1 c=64 v=56
33096 Par ch=1 c=64 v=0
33146 Par ch=1 c=64 v=88
33153 Par ch=1 c=64 v=127
33165 On ch=1 n=f3 v=0
33193 On ch=1 n=f4 v=0
33210 On ch=1 n=a5 v=0
33220 On ch=1 n=c5 v=0
33350 On ch=1 n=a#5 v=62
33350 On ch=1 n=a#3 v=40
33350 On ch=1 n=d5 v=47
33350 On ch=1 n=f4 v=38
33375 Par ch=1 c=64 v=88
33383 Par ch=1 c=64 v=24
33393 Par ch=1 c=64 v=0
33415 Par ch=1 c=64 v=40
33422 On ch=1 n=f4 v=0
33425 Par ch=1 c=64 v=104
33432 On ch=1 n=a#3 v=0
33433 Par ch=1 c=64 v=127
33455 On ch=1 n=d5 v=0
33475 On ch=1 n=a#5 v=0
33560 On ch=1 n=a5 v=70
33560 On ch=1 n=c5 v=52
33560 On ch=1 n=a#3 v=36
33560 On ch=1 n=f4 v=43
33628 Par ch=1 c=64 v=104
33632 On ch=1 n=a#3 v=0
33638 Par ch=1 c=64 v=40
33648 Par ch=1 c=64 v=0
33685 Par ch=1 c=64 v=56
33695 Par ch=1 c=64 v=127
33697 On ch=1 n=f4 v=0
33782 On ch=1 n=c5 v=0
33807 On ch=1 n=a5 v=0
33878 On ch=1 n=f5 v=60
33878 On ch=1 n=d5 v=40
33878 On ch=1 n=a#3 v=38
33878 On ch=1 n=f4 v=36
33918 Par ch=1 c=64 v=40
33928 Par ch=1 c=64 v=0
33948 On ch=1 n=f4 v=0
33953 On ch=1 n=a#3 v=0
33953 On ch=1 n=d5 v=0
33955 Par ch=1 c=64 v=72
33965 Par ch=1 c=64 v=127
34003 On ch=1 n=f5 v=0
34080 On ch=1 n=a5 v=65
34080 On ch=1 n=c5 v=46
34080 On ch=1 n=f4 v=31
34080 On ch=1 n=c4 v=37
34150 Par ch=1 c=64 v=56
34160 Par ch=1 c=64 v=0
34198 Par ch=1 c=64 v=24
34208 Par ch=1 c=64 v=88
34210 On ch=1 n=c5 v=0
34218 Par ch=1 c=64 v=127
34245 On ch=1 n=f4 v=0
34247 On ch=1 n=c4 v=0
34257 On ch=1 n=a5 v=0
34395 On ch=1 n=a#5 v=62
34395 On ch=1 n=a#4 v=34
34395 On ch=1 n=d4 v=36
34395 On ch=1 n=f4 v=33
34430 Par ch=1 c=64 v=72
34440 Par ch=1 c=64 v=0
34460 Par ch=1 c=64 v=40
34468 Par ch=1 c=64 v=88
34470 On ch=1 n=a#4 v=0
34475 On ch=1 n=f4 v=0
34478 Par ch=1 c=64 v=127
34485 On ch=1 n=d4 v=0
34525 On ch=1 n=a#5 v=0
34615 On ch=1 n=a5 v=65
34615 On ch=1 n=c5 v=39
34615 On ch=1 n=c4 v=41
34615 On ch=1 n=f4 v=42
34673 Par ch=1 c=64 v=88
34683 Par ch=1 c=64 v=0
34720 Par ch=1 c=64 v=40
34730 Par ch=1 c=64 v=88
34740 Par ch=1 c=64 v=127
34770 On ch=1 n=f4 v=0
34780 On ch=1 n=c4 v=0
34797 On ch=1 n=a5 v=0
34835 On ch=1 n=c5 v=0
34858 On ch=1 n=g5 v=55
34910 On ch=1 n=g5 v=0
34930 On ch=1 n=f5 v=59
34930 On ch=1 n=a#3 v=31
34930 On ch=1 n=f4 v=32
34930 On ch=1 n=d5 v=45
34963 Par ch=1 c=64 v=40
34973 Par ch=1 c=64 v=0
35003 Par ch=1 c=64 v=24
35013 Par ch=1 c=64 v=72
35020 On ch=1 n=f4 v=0
35020 On ch=1 n=a#3 v=0
35022 On ch=1 n=d5 v=0
35023 Par ch=1 c=64 v=127
35065 On ch=1 n=f5 v=0
35138 On ch=1 n=a5 v=62
35138 On ch=1 n=c5 v=49
35138 On ch=1 n=c4 v=41
35138 On ch=1 n=f4 v=44
35195 Par ch=1 c=64 v=72
35205 Par ch=1 c=64 v=0
35255 Par ch=1 c=64 v=40
35263 Par ch=1 c=64 v=104
35273 Par ch=1 c=64 v=127
35285 On ch=1 n=f4 v=0
35293 On ch=1 n=c5 v=0
35313 On ch=1 n=a5 v=0
35318 On ch=1 n=c4 v=0
35460 On ch=1 n=a#5 v=62
35460 On ch=1 n=f4 v=40
35460 On ch=1 n=a#4 v=44
35460 On ch=1 n=d4 v=42
35478 Par ch=1 c=64 v=88
35488 Par ch=1 c=64 v=0
35505 Par ch=1 c=64 v=24
35515 Par ch=1 c=64 v=72
35517 On ch=1 n=f4 v=0
35522 On ch=1 n=d4 v=0
35525 Par ch=1 c=64 v=127
35535 On ch=1 n=a#4 v=0
35565 On ch=1 n=a#5 v=0
35660 On ch=1 n=a5 v=69
35660 On ch=1 n=c4 v=37
35660 On ch=1 n=f4 v=33
35660 On ch=1 n=c5 v=46
35710 Par ch=1 c=64 v=40
35720 Par ch=1 c=64 v=0
35752 On ch=1 n=c4 v=0
35755 Par ch=1 c=64 v=56
35765 Par ch=1 c=64 v=127
35769 On ch=1 n=f4 v=0
35832 On ch=1 n=a5 v=0
35852 On ch=1 n=c5 v=0
35907 On ch=1 n=g5 v=61
35954 On ch=1 n=g5 v=0
35977 On ch=1 n=f5 v=65
35977 On ch=1 n=a4 v=46
35977 On ch=1 n=c4 v=45
35977 On ch=1 n=c5 v=46
36004 On ch=1 n=c4 v=0
36007 Par ch=1 c=64 v=104
36015 Par ch=1 c=64 v=24
36025 Par ch=1 c=64 v=0
36055 Par ch=1 c=64 v=40
36057 On ch=1 n=a4 v=0
36065 Par ch=1 c=64 v=104
36072 Par ch=1 c=64 v=127
36092 On ch=1 n=f5 v=0
36119 On ch=1 n=c5 v=0
36205 On ch=1 n=g5 v=70
36205 On ch=1 n=d5 v=57
36205 On ch=1 n=a#4 v=35
36205 On ch=1 n=c4 v=42
36287 Par ch=1 c=64 v=104
36297 Par ch=1 c=64 v=24
36305 Par ch=1 c=64 v=0
36345 Par ch=1 c=64 v=40
36347 On ch=1 n=c4 v=0
36355 Par ch=1 c=64 v=127
36390 On ch=1 n=a#4 v=0
36442 On ch=1 n=d5 v=0
36577 On ch=1 n=e5 v=43
36577 On ch=1 n=c5 v=29
36577 On ch=1 n=a#4 v=25
36577 On ch=1 n=c4 v=38
36617 Par ch=1 c=64 v=88
36627 Par ch=1 c=64 v=0
36662 On ch=1 n=c5 v=0
36669 On ch=1 n=c4 v=0
36675 Par ch=1 c=64 v=72
36685 Par ch=1 c=64 v=127
36687 On ch=1 n=e5 v=0
36694 On ch=1 n=a#4 v=0
36702 On ch=1 n=g5 v=0
36867 On ch=1 n=c6 v=80
36867 On ch=1 n=e5 v=55
36867 On ch=1 n=a4 v=38
36867 On ch=1 n=c4 v=45
36935 Par ch=1 c=64 v=56
36945 Par ch=1 c=64 v=0
37002 Par ch=1 c=64 v=40
37007 On ch=1 n=c4 v=0
37012 Par ch=1 c=64 v=127
37022 On ch=1 n=a4 v=0
37027 On ch=1 n=e5 v=0
37182 On ch=1 n=e5 v=44
37182 On ch=1 n=c4 v=43
37182 On ch=1 n=a4 v=33
37224 On ch=1 n=c4 v=0
37244 On ch=1 n=a4 v=0
37249 On ch=1 n=e5 v=0
37375 On ch=1 n=e5 v=46
37375 On ch=1 n=c4 v=40
37375 On ch=1 n=a4 v=36
37467 On ch=1 n=c4 v=0
37477 On ch=1 n=a4 v=0
37532 On ch=1 n=c6 v=0
37577 On ch=1 n=e5 v=0
37670 On ch=1 n=a5 v=71
37670 On ch=1 n=f5 v=55
37670 On ch=1 n=d4 v=39
37670 On ch=1 n=a4 v=39
37710 Par ch=1 c=64 v=72
37720 Par ch=1 c=64 v=0
37745 On ch=1 n=a4 v=0
37752 On ch=1 n=d4 v=0
37760 Par ch=1 c=64 v=40
37762 On ch=1 n=f5 v=0
37770 Par ch=1 c=64 v=104
37780 Par ch=1 c=64 v=127
37827 On ch=1 n=a5 v=0
37870 On ch=1 n=c6 v=75
37870 On ch=1 n=e4 v=41
37870 On ch=1 n=e5 v=42
37870 On ch=1 n=a4 v=41
37942 Par ch=1 c=64 v=88
37952 Par ch=1 c=64 v=24
37962 Par ch=1 c=64 v=0
37992 Par ch=1 c=64 v=24
38002 Par ch=1 c=64 v=88
38012 Par ch=1 c=64 v=127
38022 On ch=1 n=a4 v=0
38032 On ch=1 n=e4 v=0
38112 On ch=1 n=e5 v=0
38124 On ch=1 n=c6 v=0
38182 On ch=1 n=a5 v=70
38182 On ch=1 n=f5 v=54
38182 On ch=1 n=d4 v=42
38182 On ch=1 n=a4 v=40
38222 Par ch=1 c=64 v=56
38232 Par ch=1 c=64 v=0
38254 On ch=1 n=d4 v=0
38257 On ch=1 n=a4 v=0
38259 Par ch=1 c=64 v=88
38269 On ch=1 n=f5 v=0
38269 Par ch=1 c=64 v=127
38322 On ch=1 n=a5 v=0
38372 On ch=1 n=c6 v=74
38372 On ch=1 n=a4 v=33
38372 On ch=1 n=e4 v=36
38372 On ch=1 n=e5 v=47
38444 Par ch=1 c=64 v=56
38454 Par ch=1 c=64 v=0
38492 Par ch=1 c=64 v=56
38499 Par ch=1 c=64 v=127
38509 On ch=1 n=e5 v=0
38524 On ch=1 n=e4 v=0
38541 On ch=1 n=a4 v=0
38604 On ch=1 n=c6 v=0
38679 On ch=1 n=d6 v=79
38679 On ch=1 n=d5 v=51
38679 On ch=1 n=f4 v=42
38679 On ch=1 n=a4 v=43
38701 Par ch=1 c=64 v=72
38711 Par ch=1 c=64 v=0
38731 Par ch=1 c=64 v=24
38741 Par ch=1 c=64 v=72
38746 On ch=1 n=a4 v=0
38746 On ch=1 n=d5 v=0
38749 On ch=1 n=f4 v=0
38751 Par ch=1 c=64 v=127
38776 On ch=1 n=d6 v=0
38866 On ch=1 n=c6 v=76
38866 On ch=1 n=e5 v=49
38866 On ch=1 n=e4 v=42
38866 On ch=1 n=a4 v=43
38924 Par ch=1 c=64 v=40
38934 Par ch=1 c=64 v=0
38964 Par ch=1 c=64 v=24
38974 Par ch=1 c=64 v=88
38984 Par ch=1 c=64 v=127
39041 On ch=1 n=a4 v=0
39061 On ch=1 n=e4 v=0
39068 On ch=1 n=c6 v=0
39119 On ch=1 n=b5 v=66
39133 On ch=1 n=e5 v=0
39181 On ch=1 n=b5 v=0
39201 On ch=1 n=a5 v=62
39201 On ch=1 n=f5 v=48
39201 On ch=1 n=d4 v=42
39201 On ch=1 n=a4 v=30
39211 Par ch=1 c=64 v=104
39221 Par ch=1 c=64 v=40
39231 Par ch=1 c=64 v=0
39271 Par ch=1 c=64 v=24
39278 Par ch=1 c=64 v=88
39288 On ch=1 n=d4 v=0
39288 Par ch=1 c=64 v=127
39293 On ch=1 n=a4 v=0
39303 On ch=1 n=f5 v=0
39348 On ch=1 n=a5 v=0
39418 On ch=1 n=c6 v=63
39418 On ch=1 n=e5 v=39
39418 On ch=1 n=e4 v=43
39418 On ch=1 n=a4 v=43
39483 Par ch=1 c=64 v=72
39493 Par ch=1 c=64 v=0
39551 Par ch=1 c=64 v=72
39561 Par ch=1 c=64 v=127
39575 On ch=1 n=e5 v=0
39593 On ch=1 n=e4 v=0
39595 On ch=1 n=a4 v=0
39643 On ch=1 n=c6 v=0
39733 On ch=1 n=d6 v=75
39733 On ch=1 n=d5 v=60
39733 On ch=1 n=f4 v=41
39733 On ch=1 n=a4 v=42
39751 Par ch=1 c=64 v=72
39763 Par ch=1 c=64 v=0
39783 Par ch=1 c=64 v=40
39788 On ch=1 n=a4 v=0
39790 On ch=1 n=d5 v=0
39793 Par ch=1 c=64 v=88
39798 On ch=1 n=f4 v=0
39803 Par ch=1 c=64 v=127
39823 On ch=1 n=d6 v=0
39926 On ch=1 n=c6 v=74
39926 On ch=1 n=e5 v=54
39926 On ch=1 n=e4 v=42
39926 On ch=1 n=a4 v=41
39948 Par ch=1 c=64 v=72
39958 Par ch=1 c=64 v=0
39986 Par ch=1 c=64 v=24
39996 Par ch=1 c=64 v=72
40006 Par ch=1 c=64 v=127
40043 On ch=1 n=e4 v=0
40066 On ch=1 n=a4 v=0
40091 On ch=1 n=c6 v=0
40133 On ch=1 n=e5 v=0
40166 On ch=1 n=b5 v=62
40213 On ch=1 n=b5 v=0
40241 On ch=1 n=a5 v=74
40241 On ch=1 n=e5 v=47
40241 On ch=1 n=e4 v=40
40241 On ch=1 n=c5 v=40
40268 Par ch=1 c=64 v=40
40278 Par ch=1 c=64 v=0
40298 Par ch=1 c=64 v=72
40306 On ch=1 n=c5 v=0
40306 Par ch=1 c=64 v=127
40311 On ch=1 n=e4 v=0
40313 On ch=1 n=e5 v=0
40321 On ch=1 n=a5 v=0
40456 On ch=1 n=b5 v=65
40456 On ch=1 n=a5 v=59
40456 On ch=1 n=e4 v=44
40456 On ch=1 n=d5 v=42
40456 On ch=1 n=e5 v=53
40538 Par ch=1 c=64 v=40
40546 Par ch=1 c=64 v=0
40588 Par ch=1 c=64 v=72
40596 Par ch=1 c=64 v=127
40608 On ch=1 n=e4 v=0
40651 On ch=1 n=d5 v=0
40661 On ch=1 n=e5 v=0
40671 On ch=1 n=a5 v=0
40803 On ch=1 n=g#5 v=45
40803 On ch=1 n=d5 v=37
40803 On ch=1 n=e5 v=36
40803 On ch=1 n=e4 v=53
40848 Par ch=1 c=64 v=56
40858 Par ch=1 c=64 v=0
40865 On ch=1 n=e4 v=0
40875 Par ch=1 c=64 v=56
40883 Par ch=1 c=64 v=127
40905 On ch=1 n=d5 v=0
40910 On ch=1 n=e5 v=0
40932 On ch=1 n=g#5 v=0
40953 On ch=1 n=b5 v=0
41033 On ch=1 n=a5 v=61
41033 On ch=1 n=c5 v=43
41033 On ch=1 n=a3 v=50
41033 On ch=1 n=e5 v=45
41033 On ch=1 n=e4 v=44
41098 On ch=1 n=e4 v=0
41105 Par ch=1 c=64 v=104
41115 Par ch=1 c=64 v=24
41125 Par ch=1 c=64 v=0
41175 On ch=1 n=a3 v=0
41175 Par ch=1 c=64 v=40
41185 Par ch=1 c=64 v=127
41195 On ch=1 n=e5 v=0
41213 On ch=1 n=c5 v=0
41398 On ch=1 n=e5 v=38
41398 On ch=1 n=a3 v=34
41398 On ch=1 n=c5 v=36
41428 On ch=1 n=a3 v=0
41428 Par ch=1 c=64 v=88
41438 Par ch=1 c=64 v=56
41445 Par ch=1 c=64 v=72
41455 Par ch=1 c=64 v=104
41465 Par ch=1 c=64 v=127
41470 On ch=1 n=c5 v=0
41470 On ch=1 n=e5 v=0
41495 On ch=1 n=a5 v=0
41703 On ch=1 n=c6 v=78
41703 On ch=1 n=f#3 v=43
41703 On ch=1 n=d#5 v=40
41703 On ch=1 n=a5 v=54
41765 Par ch=1 c=64 v=104
41775 Par ch=1 c=64 v=0
41823 Par ch=1 c=64 v=72
41833 Par ch=1 c=64 v=127
41838 On ch=1 n=f#3 v=0
41843 On ch=1 n=a5 v=0
41848 On ch=1 n=d#5 v=0
42058 On ch=1 n=d#5 v=40
42058 On ch=1 n=f#3 v=42
42095 Par ch=1 c=64 v=104
42115 Par ch=1 c=64 v=127
42125 On ch=1 n=c6 v=0
42150 On ch=1 n=f#3 v=0
42150 On ch=1 n=d#5 v=0
42283 On ch=1 n=a#5 v=63
42283 On ch=1 n=g3 v=45
42283 On ch=1 n=d5 v=40
42283 On ch=1 n=g5 v=44
42348 Par ch=1 c=64 v=72
42358 Par ch=1 c=64 v=0
42395 On ch=1 n=g5 v=0
42405 Par ch=1 c=64 v=72
42415 Par ch=1 c=64 v=127
42440 On ch=1 n=a#5 v=0
42445 On ch=1 n=d5 v=0
42475 On ch=1 n=g3 v=0
42573 On ch=1 n=a5 v=68
42573 On ch=1 n=f#5 v=40
42573 On ch=1 n=a3 v=42
42573 On ch=1 n=c5 v=51
42605 On ch=1 n=c5 v=0
42605 On ch=1 n=f#5 v=0
42623 On ch=1 n=a5 v=0
42633 On ch=1 n=a3 v=0
42660 On ch=1 n=g5 v=68
42660 On ch=1 n=a#3 v=50
42660 On ch=1 n=d5 v=56
42705 Par ch=1 c=64 v=72
42713 Par ch=1 c=64 v=0
42763 Par ch=1 c=64 v=56
42770 Par ch=1 c=64 v=127
42782 On ch=1 n=d5 v=0
42810 On ch=1 n=g5 v=0
42840 On ch=1 n=a#3 v=0
42880 On ch=1 n=a5 v=71
42880 On ch=1 n=a#4 v=39
42880 On ch=1 n=c4 v=44
42880 On ch=1 n=e5 v=51
42985 Par ch=1 c=64 v=40
42995 Par ch=1 c=64 v=0
43035 Par ch=1 c=64 v=56
43045 Par ch=1 c=64 v=127
43070 On ch=1 n=e5 v=0
43095 On ch=1 n=a#4 v=0
43147 On ch=1 n=c4 v=0
43230 On ch=1 n=e5 v=51
43230 On ch=1 n=a#4 v=39
43230 On ch=1 n=c3 v=40
43248 Par ch=1 c=64 v=56
43258 Par ch=1 c=64 v=0
43260 On ch=1 n=c4 v=42
43268 Par ch=1 c=64 v=24
43278 Par ch=1 c=64 v=56
43285 Par ch=1 c=64 v=104
43295 Par ch=1 c=64 v=127
43322 On ch=1 n=e5 v=0
43340 On ch=1 n=c3 v=0
43345 On ch=1 n=a#4 v=0
43377 On ch=1 n=c4 v=0
43387 On ch=1 n=a5 v=0
43465 On ch=1 n=f5 v=56
43465 On ch=1 n=f3 v=42
43465 On ch=1 n=a4 v=43
43493 On ch=1 n=c4 v=42
43518 Par ch=1 c=64 v=104
43528 Par ch=1 c=64 v=24
43535 Par ch=1 c=64 v=0
43605 Par ch=1 c=64 v=72
43607 On ch=1 n=f3 v=0
43612 On ch=1 n=a4 v=0
43615 Par ch=1 c=64 v=127
43653 On ch=1 n=c4 v=0
43833 On ch=1 n=a4 v=38
43833 On ch=1 n=f3 v=34
43885 On ch=1 n=a4 v=0
43910 On ch=1 n=f3 v=0
43910 On ch=1 n=f5 v=0
44150 On ch=1 n=c6 v=62
44150 On ch=1 n=f#3 v=51
44150 On ch=1 n=a5 v=49
44150 On ch=1 n=d#5 v=34
44225 Par ch=1 c=64 v=88
44235 Par ch=1 c=64 v=0
44293 Par ch=1 c=64 v=72
44300 On ch=1 n=f#3 v=0
44303 Par ch=1 c=64 v=127
44320 On ch=1 n=d#5 v=0
44337 On ch=1 n=a5 v=0
44508 On ch=1 n=f#3 v=36
44508 On ch=1 n=d#5 v=39
44563 On ch=1 n=f#3 v=0
44575 On ch=1 n=d#5 v=0
44590 On ch=1 n=c6 v=0
44690 Par ch=1 c=64 v=104
44700 Par ch=1 c=64 v=0
44703 On ch=1 n=d5 v=51
44710 On ch=1 n=g3 v=45
44728 Par ch=1 c=64 v=56
44738 Par ch=1 c=64 v=104
44748 Par ch=1 c=64 v=127
44760 On ch=1 n=g5 v=53
44808 On ch=1 n=c6 v=66
44880 On ch=1 n=a#5 v=65
44885 On ch=1 n=c6 v=0
44950 Par ch=1 c=64 v=0
44962 On ch=1 n=g5 v=0
44990 Par ch=1 c=64 v=24
45000 Par ch=1 c=64 v=88
45008 Par ch=1 c=64 v=127
45040 On ch=1 n=a#5 v=0
45043 On ch=1 n=d5 v=0
45125 On ch=1 n=g3 v=0
45175 On ch=1 n=a5 v=63
45175 On ch=1 n=f#5 v=48
45175 On ch=1 n=a3 v=44
45175 On ch=1 n=c5 v=49
45232 On ch=1 n=a3 v=0
45235 On ch=1 n=c5 v=0
45235 On ch=1 n=f#5 v=0
45245 On ch=1 n=a5 v=0
45265 On ch=1 n=g5 v=64
45265 On ch=1 n=d5 v=59
45265 On ch=1 n=a#3 v=42
45290 Par ch=1 c=64 v=72
45298 Par ch=1 c=64 v=0
45348 Par ch=1 c=64 v=56
45358 Par ch=1 c=64 v=127
45365 On ch=1 n=d5 v=0
45397 On ch=1 n=g5 v=0
45457 On ch=1 n=a#3 v=0
45480 On ch=1 n=a5 v=62
45480 On ch=1 n=a#4 v=32
45480 On ch=1 n=c4 v=43
45480 On ch=1 n=e5 v=44
45550 Par ch=1 c=64 v=104
45560 Par ch=1 c=64 v=0
45617 Par ch=1 c=64 v=72
45627 Par ch=1 c=64 v=127
45634 On ch=1 n=e5 v=0
45664 On ch=1 n=c4 v=0
45682 On ch=1 n=a#4 v=0
45810 On ch=1 n=e5 v=44
45810 On ch=1 n=c3 v=47
45810 On ch=1 n=a#4 v=39
45810 On ch=1 n=c4 v=45
45885 On ch=1 n=c4 v=0
45887 On ch=1 n=c3 v=0
45895 On ch=1 n=e5 v=0
45910 On ch=1 n=a#4 v=0
45949 On ch=1 n=a5 v=0
46022 On ch=1 n=f5 v=54
46022 On ch=1 n=f3 v=39
46022 On ch=1 n=a4 v=37
46022 On ch=1 n=c4 v=35
46082 Par ch=1 c=64 v=72
46090 Par ch=1 c=64 v=0
46140 Par ch=1 c=64 v=40
46150 Par ch=1 c=64 v=127
46162 On ch=1 n=c4 v=0
46174 On ch=1 n=f3 v=0
46194 On ch=1 n=a4 v=0
46277 On ch=1 n=e3 v=52
46295 On ch=1 n=c4 v=26
46315 On ch=1 n=c4 v=0
46322 On ch=1 n=e3 v=0
46360 On ch=1 n=a4 v=55
46360 On ch=1 n=c4 v=48
46360 On ch=1 n=d3 v=51
46390 Par ch=1 c=64 v=40
46400 Par ch=1 c=64 v=0
46410 On ch=1 n=d3 v=0
46417 On ch=1 n=c4 v=0
46427 Par ch=1 c=64 v=72
46432 On ch=1 n=a4 v=0
46437 Par ch=1 c=64 v=127
46501 On ch=1 n=f5 v=0
46584 On ch=1 n=a5 v=55
46584 On ch=1 n=a#4 v=29
46584 On ch=1 n=c4 v=40
46584 On ch=1 n=c3 v=41
46584 On ch=1 n=e5 v=51
46649 Par ch=1 c=64 v=72
46659 Par ch=1 c=64 v=0
46717 Par ch=1 c=64 v=72
46726 On ch=1 n=e5 v=0
46727 Par ch=1 c=64 v=127
46749 On ch=1 n=a#4 v=0
46912 On ch=1 n=e5 v=29
46912 On ch=1 n=a#4 v=28
46912 On ch=1 n=c3 v=42
46946 On ch=1 n=c3 v=0
46971 On ch=1 n=c4 v=0
46972 On ch=1 n=c3 v=0
46972 On ch=1 n=e5 v=0
47004 On ch=1 n=a#4 v=0
47029 On ch=1 n=a5 v=0
47122 On ch=1 n=f5 v=55
47122 On ch=1 n=a4 v=38
47122 On ch=1 n=f3 v=33
47122 On ch=1 n=c4 v=35
47152 Par ch=1 c=64 v=104
47162 Par ch=1 c=64 v=24
47172 Par ch=1 c=64 v=0
47212 Par ch=1 c=64 v=56
47222 Par ch=1 c=64 v=127
47284 On ch=1 n=f3 v=0
47312 On ch=1 n=c4 v=0
47319 On ch=1 n=a4 v=0
47364 On ch=1 n=e3 v=48
47404 On ch=1 n=e3 v=0
47424 Par ch=1 c=64 v=72
47434 Par ch=1 c=64 v=40
47439 On ch=1 n=a4 v=42
47439 On ch=1 n=d3 v=49
47439 On ch=1 n=c4 v=36
47444 Par ch=1 c=64 v=56
47454 Par ch=1 c=64 v=88
47462 Par ch=1 c=64 v=127
47476 On ch=1 n=c4 v=0
47491 On ch=1 n=a4 v=0
47494 On ch=1 n=d3 v=0
47554 On ch=1 n=f5 v=0
47657 On ch=1 n=a5 v=55
47657 On ch=1 n=c4 v=40
47657 On ch=1 n=c3 v=42
47657 On ch=1 n=e5 v=42
47657 On ch=1 n=a#4 v=26
47744 Par ch=1 c=64 v=88
47752 Par ch=1 c=64 v=0
47802 On ch=1 n=e5 v=0
47812 Par ch=1 c=64 v=40
47814 On ch=1 n=a#4 v=0
47822 Par ch=1 c=64 v=127
47982 On ch=1 n=e5 v=29
47982 On ch=1 n=a#4 v=27
47982 On ch=1 n=c3 v=40
47992 On ch=1 n=c3 v=0
48019 On ch=1 n=c4 v=0
48042 On ch=1 n=c3 v=0
48052 On ch=1 n=e5 v=0
48077 On ch=1 n=a5 v=0
48082 On ch=1 n=a#4 v=0
48192 On ch=1 n=f5 v=53
48192 On ch=1 n=f3 v=29
48192 On ch=1 n=a4 v=33
48192 On ch=1 n=c4 v=32
48257 Par ch=1 c=64 v=56
48267 Par ch=1 c=64 v=0
48312 On ch=1 n=a4 v=0
48324 Par ch=1 c=64 v=24
48334 On ch=1 n=c4 v=0
48334 Par ch=1 c=64 v=72
48337 On ch=1 n=f3 v=0
48344 Par ch=1 c=64 v=127
48364 On ch=1 n=f5 v=0
48542 On ch=1 n=e5 v=45
48542 On ch=1 n=c3 v=38
48542 On ch=1 n=c4 v=43
48542 On ch=1 n=a#4 v=32
48542 On ch=1 n=a5 v=62
48547 Par ch=1 c=64 v=104
48557 Par ch=1 c=64 v=24
48564 Par ch=1 c=64 v=0
48614 Par ch=1 c=64 v=56
48624 On ch=1 n=e5 v=0
48624 Par ch=1 c=64 v=127
48654 On ch=1 n=c3 v=0
48664 On ch=1 n=a#4 v=0
48664 On ch=1 n=c4 v=0
48694 On ch=1 n=a5 v=0
48761 On ch=1 n=f5 v=57
48761 On ch=1 n=a4 v=41
48761 On ch=1 n=c4 v=38
48761 On ch=1 n=f3 v=40
48816 Par ch=1 c=64 v=104
48826 Par ch=1 c=64 v=56
48836 Par ch=1 c=64 v=0
48901 Par ch=1 c=64 v=72
48903 On ch=1 n=a4 v=0
48911 Par ch=1 c=64 v=127
48918 On ch=1 n=c4 v=0
48926 On ch=1 n=f3 v=0
48966 On ch=1 n=f5 v=0
49146 On ch=1 n=a5 v=41
49146 On ch=1 n=c4 v=30
49146 On ch=1 n=a#4 v=22
49146 On ch=1 n=c3 v=34
49146 On ch=1 n=e5 v=40
49174 Par ch=1 c=64 v=72
49184 Par ch=1 c=64 v=0
49221 Par ch=1 c=64 v=40
49231 Par ch=1 c=64 v=127
49248 On ch=1 n=e5 v=0
49258 On ch=1 n=c3 v=0
49266 On ch=1 n=a#4 v=0
49266 On ch=1 n=c4 v=0
49296 On ch=1 n=a5 v=0
49376 On ch=1 n=f3 v=26
49376 On ch=1 n=f5 v=47
49376 On ch=1 n=c4 v=26
49376 On ch=1 n=a4 v=31
49424 Par ch=1 c=64 v=104
49434 Par ch=1 c=64 v=56
49444 Par ch=1 c=64 v=0
49476 On ch=1 n=a4 v=0
49504 Par ch=1 c=64 v=40
49508 On ch=1 n=c4 v=0
49514 Par ch=1 c=64 v=104
49524 Par ch=1 c=64 v=127
49536 On ch=1 n=f3 v=0
49563 On ch=1 n=f5 v=0
49771 On ch=1 n=a5 v=47
49771 On ch=1 n=a#4 v=25
49771 On ch=1 n=c3 v=36
49771 On ch=1 n=e5 v=27
49781 Par ch=1 c=64 v=104
49788 On ch=1 n=c4 v=33
49788 Par ch=1 c=64 v=24
49798 Par ch=1 c=64 v=0
49818 Par ch=1 c=64 v=24
49828 Par ch=1 c=64 v=88
49838 Par ch=1 c=64 v=127
49863 On ch=1 n=e5 v=0
49870 On ch=1 n=c3 v=0
49885 On ch=1 n=a#4 v=0
49893 On ch=1 n=c4 v=0
49900 On ch=1 n=a5 v=0
50008 On ch=1 n=f5 v=46
50008 On ch=1 n=a4 v=30
50008 On ch=1 n=f3 v=31
50008 On ch=1 n=c4 v=30
50051 Par ch=1 c=64 v=56
50061 Par ch=1 c=64 v=0
50108 Par ch=1 c=64 v=56
50118 Par ch=1 c=64 v=127
50155 On ch=1 n=a4 v=0
50178 On ch=1 n=c4 v=0
50203 On ch=1 n=f3 v=0
50225 On ch=1 n=f5 v=0
50566 On ch=1 n=a5 v=42
50566 On ch=1 n=c4 v=26
50566 On ch=1 n=c3 v=28
50566 On ch=1 n=a#4 v=28
50566 On ch=1 n=e5 v=32
50621 Par ch=1 c=64 v=56
50633 Par ch=1 c=64 v=0
50681 Par ch=1 c=64 v=40
50688 Par ch=1 c=64 v=104
50698 Par ch=1 c=64 v=127
50713 On ch=1 n=e5 v=0
50721 On ch=1 n=a#4 v=0
50733 On ch=1 n=a5 v=0
50838 On ch=1 n=c4 v=0
50888 On ch=1 n=c3 v=0
51503 On ch=1 n=f2 v=35
51571 Par ch=1 c=64 v=40
51581 Par ch=1 c=64 v=0
51621 Par ch=1 c=64 v=72
51631 Par ch=1 c=64 v=127
51851 On ch=1 n=f3 v=33
51875 On ch=1 n=f2 v=0
51916 On ch=1 n=f3 v=0
52083 On ch=1 n=c4 v=40
52286 On ch=1 n=f4 v=51
52458 On ch=1 n=a4 v=43
52651 On ch=1 n=c5 v=54
52808 On ch=1 n=a4 v=0
52851 On ch=1 n=f5 v=48
52943 On ch=1 n=c5 v=0
52963 On ch=1 n=f5 v=0
53118 On ch=1 n=a5 v=58
53310 On ch=1 n=a5 v=0
53448 On ch=1 n=a5 v=48
53538 On ch=1 n=a5 v=0
53760 On ch=1 n=c4 v=0
53771 On ch=1 n=f4 v=0
53803 On ch=1 n=a5 v=38
53863 On ch=1 n=a5 v=0
54208 On ch=1 n=a5 v=29
54260 On ch=1 n=a5 v=0
54606 On ch=1 n=a5 v=21
54716 On ch=1 n=a5 v=0
55211 On ch=1 n=a5 v=12
55348 On ch=1 n=a5 v=0
55863 On ch=1 n=a2 v=73
55866 On ch=1 n=a7 v=109
55868 On ch=1 n=a3 v=100
55868 On ch=1 n=f7 v=92
55886 Par ch=1 c=64 v=127
55893 On ch=1 n=a2 v=0
55900 On ch=1 n=a3 v=0
55941 On ch=1 n=a7 v=0
55945 On ch=1 n=f7 v=0
55951 On ch=1 n=e7 v=92
56021 On ch=1 n=c7 v=82
56023 On ch=1 n=e7 v=0
56031 On ch=1 n=e4 v=72
56033 On ch=1 n=e3 v=61
56045 On ch=1 n=e3 v=0
56061 On ch=1 n=e4 v=0
56088 On ch=1 n=a6 v=79
56091 On ch=1 n=c7 v=0
56120 On ch=1 n=a6 v=0
56161 On ch=1 n=a6 v=70
56163 On ch=1 n=f6 v=74
56171 On ch=1 n=b3 v=69
56176 On ch=1 n=b4 v=61
56198 On ch=1 n=a6 v=0
56200 On ch=1 n=f6 v=0
56201 On ch=1 n=b3 v=0
56226 On ch=1 n=b4 v=0
56226 On ch=1 n=e6 v=86
56291 On ch=1 n=e6 v=0
56291 On ch=1 n=c6 v=89
56298 On ch=1 n=c5 v=87
56301 On ch=1 n=c4 v=90
56313 Par ch=1 c=64 v=56
56321 Par ch=1 c=64 v=0
56356 Par ch=1 c=64 v=72
56363 On ch=1 n=a5 v=82
56363 Par ch=1 c=64 v=127
56366 On ch=1 n=c6 v=0
56400 On ch=1 n=a5 v=0
56406 On ch=1 n=c4 v=0
56410 On ch=1 n=c5 v=0
56441 On ch=1 n=a5 v=60
56446 On ch=1 n=f5 v=48
56471 On ch=1 n=f5 v=0
56473 On ch=1 n=a5 v=0
56506 On ch=1 n=e5 v=78
56556 On ch=1 n=e5 v=0
56581 On ch=1 n=c5 v=57
56641 On ch=1 n=c5 v=0
56656 On ch=1 n=a4 v=46
56678 On ch=1 n=a4 v=0
56688 Par ch=1 c=64 v=104
56695 Par ch=1 c=64 v=40
56705 Par ch=1 c=64 v=0
56720 On ch=1 n=f4 v=58
56725 On ch=1 n=g#4 v=62
56745 Par ch=1 c=64 v=56
56755 On ch=1 n=f4 v=0
56755 Par ch=1 c=64 v=104
56763 Par ch=1 c=64 v=127
56765 On ch=1 n=g#4 v=0
56790 On ch=1 n=g#5 v=61
56795 On ch=1 n=d4 v=63
56805 On ch=1 n=b4 v=36
56822 On ch=1 n=b4 v=0
56832 On ch=1 n=g#5 v=0
56839 On ch=1 n=d4 v=0
56857 On ch=1 n=b4 v=60
56865 On ch=1 n=a3 v=64
56880 On ch=1 n=a3 v=0
56897 On ch=1 n=b4 v=0
56932 On ch=1 n=g#4 v=55
56932 On ch=1 n=d5 v=64
56937 On ch=1 n=b5 v=65
56949 On ch=1 n=d5 v=0
56967 On ch=1 n=b5 v=0
56979 On ch=1 n=g#4 v=0
57002 On ch=1 n=d5 v=84
57010 On ch=1 n=f4 v=56
57037 On ch=1 n=d5 v=0
57055 On ch=1 n=f4 v=0
57072 On ch=1 n=d6 v=88
57075 On ch=1 n=f#5 v=58
57085 On ch=1 n=a3 v=64
57107 On ch=1 n=a3 v=0
57112 On ch=1 n=f#5 v=0
57114 On ch=1 n=d6 v=0
57137 On ch=1 n=f5 v=81
57155 On ch=1 n=b4 v=64
57184 On ch=1 n=f5 v=0
57195 On ch=1 n=b4 v=0
57207 On ch=1 n=g#5 v=62
57215 On ch=1 n=f6 v=82
57227 On ch=1 n=e6 v=43
57235 On ch=1 n=a3 v=72
57239 On ch=1 n=g#5 v=0
57242 On ch=1 n=e6 v=0
57242 On ch=1 n=f6 v=0
57247 On ch=1 n=a3 v=0
57287 On ch=1 n=g#5 v=95
57295 On ch=1 n=d5 v=67
57310 On ch=1 n=d5 v=0
57322 On ch=1 n=g#5 v=0
57352 On ch=1 n=g#6 v=88
57355 On ch=1 n=b5 v=83
57385 On ch=1 n=b5 v=0
57404 On ch=1 n=g#6 v=0
57425 On ch=1 n=b5 v=78
57467 On ch=1 n=b5 v=0
57495 On ch=1 n=b6 v=89
57495 On ch=1 n=d6 v=81
57510 On ch=1 n=d6 v=0
57527 On ch=1 n=b6 v=0
57592 Par ch=1 c=64 v=72
57600 Par ch=1 c=64 v=0
57630 On ch=1 n=a7 v=103
57632 On ch=1 n=f7 v=94
57632 On ch=1 n=a2 v=72
57635 On ch=1 n=a3 v=100
57660 Par ch=1 c=64 v=104
57662 On ch=1 n=a2 v=0
57667 Par ch=1 c=64 v=127
57670 On ch=1 n=a3 v=0
57682 On ch=1 n=a7 v=0
57689 On ch=1 n=f7 v=0
57707 On ch=1 n=e7 v=88
57769 On ch=1 n=e7 v=0
57775 On ch=1 n=c7 v=84
57792 On ch=1 n=e4 v=82
57795 On ch=1 n=e3 v=64
57810 On ch=1 n=e3 v=0
57824 On ch=1 n=e4 v=0
57840 On ch=1 n=c7 v=0
57840 On ch=1 n=a6 v=81
57880 On ch=1 n=a6 v=0
57915 On ch=1 n=a6 v=72
57920 On ch=1 n=f6 v=80
57927 On ch=1 n=b4 v=76
57930 On ch=1 n=b3 v=71
57957 On ch=1 n=f6 v=0
57957 On ch=1 n=a6 v=0
57962 On ch=1 n=b3 v=0
57967 On ch=1 n=b4 v=0
57982 On ch=1 n=e6 v=89
58042 On ch=1 n=c6 v=85
58044 On ch=1 n=e6 v=0
58052 On ch=1 n=c5 v=82
58057 On ch=1 n=c4 v=82
58067 Par ch=1 c=64 v=104
58074 Par ch=1 c=64 v=24
58084 Par ch=1 c=64 v=0
58114 On ch=1 n=c6 v=0
58114 On ch=1 n=a5 v=75
58117 Par ch=1 c=64 v=24
58124 Par ch=1 c=64 v=88
58134 Par ch=1 c=64 v=127
58154 On ch=1 n=a5 v=0
58194 On ch=1 n=c4 v=0
58194 On ch=1 n=a5 v=56
58199 On ch=1 n=c5 v=0
58199 On ch=1 n=f5 v=59
58234 On ch=1 n=a5 v=0
58244 On ch=1 n=f5 v=0
58262 On ch=1 n=e5 v=74
58309 On ch=1 n=e5 v=0
58329 On ch=1 n=c5 v=53
58381 On ch=1 n=c5 v=0
58407 On ch=1 n=a4 v=48
58432 On ch=1 n=a4 v=0
58469 Par ch=1 c=64 v=40
58479 Par ch=1 c=64 v=0
58487 On ch=1 n=b4 v=70
58494 On ch=1 n=g#4 v=38
58519 Par ch=1 c=64 v=72
58524 On ch=1 n=b4 v=0
58529 Par ch=1 c=64 v=127
58544 On ch=1 n=g#4 v=0
58569 On ch=1 n=b5 v=65
58574 On ch=1 n=d5 v=29
58577 On ch=1 n=f4 v=46
58589 On ch=1 n=d5 v=0
58601 On ch=1 n=b5 v=0
58604 On ch=1 n=f4 v=0
58632 On ch=1 n=d5 v=73
58647 On ch=1 n=a3 v=63
58664 On ch=1 n=a3 v=0
58669 On ch=1 n=d5 v=0
58704 On ch=1 n=f5 v=69
58712 On ch=1 n=d6 v=58
58714 On ch=1 n=b4 v=53
58737 On ch=1 n=d6 v=0
58739 On ch=1 n=f5 v=0
58756 On ch=1 n=b4 v=0
58767 On ch=1 n=f5 v=88
58777 On ch=1 n=f4 v=54
58817 On ch=1 n=f5 v=0
58839 On ch=1 n=f6 v=88
58842 On ch=1 n=f4 v=0
58842 On ch=1 n=g#5 v=46
58847 On ch=1 n=a3 v=72
58857 On ch=1 n=g#5 v=0
58874 On ch=1 n=f6 v=0
58877 On ch=1 n=a3 v=0
58907 On ch=1 n=g#5 v=88
58917 On ch=1 n=d5 v=70
58944 On ch=1 n=g#5 v=0
58947 On ch=1 n=d5 v=0
58979 On ch=1 n=g#6 v=84
58982 On ch=1 n=b5 v=68
58997 On ch=1 n=b5 v=0
58997 On ch=1 n=a3 v=66
59012 On ch=1 n=a3 v=0
59019 On ch=1 n=g#6 v=0
59049 On ch=1 n=b5 v=99
59052 On ch=1 n=f5 v=70
59072 On ch=1 n=f5 v=0
59091 On ch=1 n=b5 v=0
59117 On ch=1 n=d6 v=81
59119 On ch=1 n=b6 v=87
59144 On ch=1 n=d6 v=0
59164 On ch=1 n=b6 v=0
59192 On ch=1 n=d6 v=96
59232 On ch=1 n=d6 v=0
59254 On ch=1 n=f6 v=81
59259 On ch=1 n=d7 v=92
59269 On ch=1 n=f6 v=0
59284 On ch=1 n=d7 v=0
59374 Par ch=1 c=64 v=104
59384 Par ch=1 c=64 v=24
59394 Par ch=1 c=64 v=0
59399 On ch=1 n=a7 v=100
59399 On ch=1 n=e8 v=100
59399 On ch=1 n=a3 v=90
59399 On ch=1 n=a2 v=77
59431 On ch=1 n=a2 v=0
59439 On ch=1 n=a3 v=0
59444 Par ch=1 c=64 v=127
59464 On ch=1 n=e8 v=0
59469 On ch=1 n=a7 v=0
59492 On ch=1 n=c8 v=84
59549 On ch=1 n=c8 v=0
59564 On ch=1 n=a7 v=87
59574 On ch=1 n=e4 v=77
59576 On ch=1 n=e3 v=68
59598 On ch=1 n=e3 v=0
59608 On ch=1 n=e4 v=0
59613 On ch=1 n=a7 v=0
59628 On ch=1 n=e7 v=83
59675 On ch=1 n=e7 v=0
59703 On ch=1 n=e7 v=71
59706 On ch=1 n=c8 v=89
59706 Par ch=1 c=64 v=104
59713 On ch=1 n=g#4 v=81
59713 On ch=1 n=g#3 v=76
59716 Par ch=1 c=64 v=40
59723 Par ch=1 c=64 v=0
59733 Par ch=1 c=64 v=24
59741 Par ch=1 c=64 v=56
59748 Par ch=1 c=64 v=104
59753 On ch=1 n=g#3 v=0
59753 On ch=1 n=g#4 v=0
59755 On ch=1 n=e7 v=0
59758 On ch=1 n=c8 v=0
59758 Par ch=1 c=64 v=127
59781 On ch=1 n=a7 v=86
59841 On ch=1 n=a7 v=0
59841 Par ch=1 c=64 v=104
59848 On ch=1 n=e7 v=84
59848 Par ch=1 c=64 v=56
59856 On ch=1 n=b4 v=74
59856 Par ch=1 c=64 v=40
59861 On ch=1 n=b3 v=70
59866 Par ch=1 c=64 v=56
59873 Par ch=1 c=64 v=104
59881 Par ch=1 c=64 v=127
59893 On ch=1 n=b3 v=0
59896 On ch=1 n=b4 v=0
59905 On ch=1 n=e7 v=0
59915 On ch=1 n=c7 v=83
59957 On ch=1 n=c7 v=0
59980 Par ch=1 c=64 v=56
59983 On ch=1 n=a7 v=89
59985 On ch=1 n=c7 v=81
59988 Par ch=1 c=64 v=0
59990 On ch=1 n=a4 v=74
59993 On ch=1 n=a3 v=68
60013 Par ch=1 c=64 v=88
60023 Par ch=1 c=64 v=127
60025 On ch=1 n=a3 v=0
60032 On ch=1 n=c7 v=0
60033 On ch=1 n=a7 v=0
60042 On ch=1 n=a4 v=0
60060 On ch=1 n=e7 v=82
60108 Par ch=1 c=64 v=88
60115 Par ch=1 c=64 v=40
60117 On ch=1 n=e7 v=0
60120 On ch=1 n=c7 v=82
60123 Par ch=1 c=64 v=24
60128 On ch=1 n=b4 v=70
60128 On ch=1 n=b3 v=68
60133 Par ch=1 c=64 v=40
60140 Par ch=1 c=64 v=72
60148 Par ch=1 c=64 v=104
60153 On ch=1 n=b3 v=0
60155 Par ch=1 c=64 v=127
60170 On ch=1 n=b4 v=0
60182 On ch=1 n=c7 v=0
60193 On ch=1 n=a6 v=66
60238 On ch=1 n=a6 v=0
60240 Par ch=1 c=64 v=104
60248 Par ch=1 c=64 v=56
60258 On ch=1 n=d5 v=80
60258 Par ch=1 c=64 v=0
60260 On ch=1 n=e7 v=82
60263 On ch=1 n=d4 v=75
60263 On ch=1 n=a6 v=77
60273 Par ch=1 c=64 v=56
60283 Par ch=1 c=64 v=88
60293 Par ch=1 c=64 v=127
60298 On ch=1 n=d4 v=0
60305 On ch=1 n=a6 v=0
60307 On ch=1 n=e7 v=0
60308 On ch=1 n=d5 v=0
60333 On ch=1 n=c7 v=80
60390 On ch=1 n=a6 v=77
60398 On ch=1 n=c7 v=0
60400 On ch=1 n=c5 v=90
60403 On ch=1 n=c4 v=90
60443 On ch=1 n=c4 v=0
60445 On ch=1 n=a6 v=0
60447 On ch=1 n=c5 v=0
60453 On ch=1 n=e6 v=79
60505 On ch=1 n=e6 v=0
60535 On ch=1 n=d#5 v=92
60535 On ch=1 n=e6 v=68
60535 On ch=1 n=d#4 v=88
60538 On ch=1 n=c7 v=73
60550 On ch=1 n=e5 v=38
60565 On ch=1 n=e5 v=0
60565 On ch=1 n=d#4 v=0
60565 On ch=1 n=d#5 v=0
60575 On ch=1 n=e6 v=0
60585 On ch=1 n=c7 v=0
60613 On ch=1 n=a6 v=74
60663 On ch=1 n=e6 v=69
60668 On ch=1 n=a6 v=0
60678 On ch=1 n=f5 v=99
60680 On ch=1 n=f4 v=81
60730 On ch=1 n=f4 v=0
60735 On ch=1 n=e6 v=0
60745 On ch=1 n=c6 v=74
60750 On ch=1 n=f5 v=0
60792 On ch=1 n=c6 v=0
60817 On ch=1 n=e5 v=93
60820 On ch=1 n=e4 v=86
60820 On ch=1 n=a6 v=78
60820 On ch=1 n=c6 v=69
60832 Par ch=1 c=64 v=72
60842 Par ch=1 c=64 v=0
60867 On ch=1 n=c6 v=0
60872 On ch=1 n=a6 v=0
60892 Par ch=1 c=64 v=72
60897 On ch=1 n=e6 v=79
60902 Par ch=1 c=64 v=127
60942 On ch=1 n=e5 v=0
60962 On ch=1 n=e6 v=0
60965 On ch=1 n=e4 v=0
60967 On ch=1 n=c6 v=80
61027 On ch=1 n=c6 v=0
61037 On ch=1 n=a5 v=71
61087 On ch=1 n=a5 v=0
61112 Par ch=1 c=64 v=72
61117 On ch=1 n=f#6 v=80
61120 Par ch=1 c=64 v=0
61122 On ch=1 n=c6 v=83
61127 On ch=1 n=a3 v=90
61127 On ch=1 n=a2 v=77
61152 Par ch=1 c=64 v=40
61154 On ch=1 n=a2 v=0
61159 On ch=1 n=c6 v=0
61160 Par ch=1 c=64 v=104
61167 On ch=1 n=a3 v=0
61170 Par ch=1 c=64 v=127
61174 On ch=1 n=f#6 v=0
61190 On ch=1 n=d#6 v=75
61257 On ch=1 n=c3 v=68
61260 On ch=1 n=c6 v=83
61260 On ch=1 n=c4 v=75
61262 On ch=1 n=d#6 v=0
61289 On ch=1 n=c3 v=0
61295 On ch=1 n=c4 v=0
61312 On ch=1 n=c6 v=0
61320 On ch=1 n=a5 v=77
61355 On ch=1 n=a5 v=0
61387 On ch=1 n=d4 v=83
61392 On ch=1 n=d3 v=74
61395 On ch=1 n=f#5 v=70
61397 On ch=1 n=c6 v=78
61419 On ch=1 n=d3 v=0
61424 On ch=1 n=d4 v=0
61434 On ch=1 n=c6 v=0
61439 On ch=1 n=f#5 v=0
61459 On ch=1 n=a5 v=84
61517 On ch=1 n=f#5 v=72
61522 On ch=1 n=d#4 v=99
61526 On ch=1 n=a5 v=0
61527 On ch=1 n=d#3 v=79
61562 Par ch=1 c=64 v=104
61569 Par ch=1 c=64 v=0
61577 On ch=1 n=f#5 v=0
61589 On ch=1 n=c5 v=71
61619 Par ch=1 c=64 v=56
61629 Par ch=1 c=64 v=127
61634 On ch=1 n=c5 v=0
61662 On ch=1 n=c5 v=68
61667 On ch=1 n=a5 v=42
61692 On ch=1 n=c5 v=0
61699 On ch=1 n=a5 v=0
61729 On ch=1 n=f#5 v=64
61779 On ch=1 n=c5 v=55
61781 On ch=1 n=f#5 v=0
61834 On ch=1 n=c5 v=0
61844 On ch=1 n=a4 v=69
61884 On ch=1 n=a4 v=0
61906 On ch=1 n=f#5 v=74
61911 On ch=1 n=a4 v=73
61944 Par ch=1 c=64 v=56
61951 On ch=1 n=a4 v=0
61951 Par ch=1 c=64 v=24
61958 On ch=1 n=f#5 v=0
61961 Par ch=1 c=64 v=40
61969 Par ch=1 c=64 v=88
61976 Par ch=1 c=64 v=127
61981 On ch=1 n=c5 v=64
62041 On ch=1 n=c5 v=0
62046 On ch=1 n=a4 v=64
62086 On ch=1 n=a4 v=0
62106 On ch=1 n=f#4 v=54
62111 On ch=1 n=d#3 v=0
62119 On ch=1 n=d#4 v=0
62156 On ch=1 n=f#4 v=0
62171 On ch=1 n=f#5 v=59
62171 Par ch=1 c=64 v=104
62179 Par ch=1 c=64 v=24
62181 On ch=1 n=d4 v=61
62181 On ch=1 n=d5 v=66
62186 On ch=1 n=d3 v=55
62186 Par ch=1 c=64 v=0
62196 Par ch=1 c=64 v=24
62204 Par ch=1 c=64 v=56
62211 Par ch=1 c=64 v=104
62221 Par ch=1 c=64 v=127
62226 On ch=1 n=d4 v=0
62236 On ch=1 n=d3 v=0
62236 On ch=1 n=d5 v=0
62246 On ch=1 n=f#4 v=64
62256 On ch=1 n=f#5 v=0
62316 On ch=1 n=f#4 v=0
62331 On ch=1 n=f#5 v=67
62331 Par ch=1 c=64 v=88
62336 On ch=1 n=d#5 v=66
62339 Par ch=1 c=64 v=24
62341 On ch=1 n=c4 v=62
62346 On ch=1 n=c3 v=49
62356 Par ch=1 c=64 v=56
62364 Par ch=1 c=64 v=88
62371 On ch=1 n=c3 v=0
62371 Par ch=1 c=64 v=127
62383 On ch=1 n=c4 v=0
62393 On ch=1 n=f#5 v=0
62398 On ch=1 n=f#4 v=71
62400 On ch=1 n=d#5 v=0
62458 On ch=1 n=f#4 v=0
62468 On ch=1 n=a#3 v=64
62468 On ch=1 n=d5 v=80
62468 On ch=1 n=f#5 v=79
62468 Par ch=1 c=64 v=56
62470 On ch=1 n=a#2 v=60
62475 Par ch=1 c=64 v=0
62493 Par ch=1 c=64 v=40
62500 Par ch=1 c=64 v=88
62508 Par ch=1 c=64 v=127
62522 On ch=1 n=a#2 v=0
62530 On ch=1 n=f#4 v=75
62533 On ch=1 n=f#5 v=0
62533 On ch=1 n=d5 v=0
62555 On ch=1 n=a#3 v=0
62595 On ch=1 n=f#4 v=0
62600 Par ch=1 c=64 v=72
62610 On ch=1 n=d5 v=82
62610 Par ch=1 c=64 v=0
62613 On ch=1 n=f#5 v=79
62613 On ch=1 n=a3 v=76
62618 On ch=1 n=c5 v=77
62623 On ch=1 n=a2 v=59
62635 Par ch=1 c=64 v=56
62643 Par ch=1 c=64 v=104
62648 On ch=1 n=a2 v=0
62650 On ch=1 n=a3 v=0
62653 Par ch=1 c=64 v=127
62667 On ch=1 n=d5 v=0
62668 On ch=1 n=c5 v=0
62675 On ch=1 n=f#4 v=79
62678 On ch=1 n=f#5 v=0
62697 On ch=1 n=f#4 v=0
62870 Par ch=1 c=64 v=56
62873 On ch=1 n=d#7 v=83
62875 On ch=1 n=g7 v=99
62878 Par ch=1 c=64 v=0
62883 On ch=1 n=g3 v=85
62885 On ch=1 n=g2 v=70
62917 On ch=1 n=g2 v=0
62928 On ch=1 n=g3 v=0
62928 Par ch=1 c=64 v=127
62950 On ch=1 n=g7 v=0
62958 On ch=1 n=d#7 v=0
62960 On ch=1 n=d7 v=80
63033 On ch=1 n=a#6 v=74
63050 On ch=1 n=d4 v=81
63053 On ch=1 n=d3 v=59
63062 On ch=1 n=d7 v=0
63070 On ch=1 n=d3 v=0
63087 On ch=1 n=d4 v=0
63095 On ch=1 n=g6 v=80
63100 On ch=1 n=a#6 v=0
63127 On ch=1 n=g6 v=0
63163 On ch=1 n=g6 v=68
63165 On ch=1 n=a4 v=69
63175 On ch=1 n=a3 v=63
63190 On ch=1 n=a3 v=0
63205 On ch=1 n=a4 v=0
63213 On ch=1 n=g6 v=0
63233 On ch=1 n=d6 v=81
63295 On ch=1 n=a#5 v=77
63300 On ch=1 n=d6 v=0
63303 On ch=1 n=a#4 v=75
63310 On ch=1 n=a#3 v=70
63315 Par ch=1 c=64 v=104
63323 Par ch=1 c=64 v=24
63330 Par ch=1 c=64 v=0
63363 On ch=1 n=g5 v=74
63365 Par ch=1 c=64 v=72
63367 On ch=1 n=a#5 v=0
63373 Par ch=1 c=64 v=127
63398 On ch=1 n=g5 v=0
63433 On ch=1 n=a#4 v=0
63433 On ch=1 n=g5 v=63
63435 On ch=1 n=d#5 v=64
63445 On ch=1 n=a#3 v=0
63473 On ch=1 n=g5 v=0
63480 On ch=1 n=d#5 v=0
63500 On ch=1 n=d5 v=74
63555 On ch=1 n=d5 v=0
63565 On ch=1 n=a#4 v=61
63627 On ch=1 n=a#4 v=0
63637 On ch=1 n=g4 v=68
63669 On ch=1 n=g4 v=0
63705 Par ch=1 c=64 v=72
63715 Par ch=1 c=64 v=0
63722 On ch=1 n=d#4 v=53
63725 On ch=1 n=f#4 v=73
63755 Par ch=1 c=64 v=40
63765 On ch=1 n=f#4 v=0
63765 Par ch=1 c=64 v=104
63767 On ch=1 n=d#4 v=0
63772 Par ch=1 c=64 v=127
63795 On ch=1 n=f#5 v=62
63800 On ch=1 n=a4 v=50
63802 On ch=1 n=c4 v=46
63812 On ch=1 n=a4 v=0
63837 On ch=1 n=f#5 v=0
63841 On ch=1 n=c4 v=0
63859 On ch=1 n=g3 v=62
63864 On ch=1 n=a4 v=66
63889 On ch=1 n=g3 v=0
63896 On ch=1 n=a4 v=0
63927 On ch=1 n=f#4 v=52
63934 On ch=1 n=a5 v=68
63966 On ch=1 n=a5 v=0
63972 On ch=1 n=f#4 v=0
63992 On ch=1 n=c5 v=83
64002 On ch=1 n=d#4 v=58
64034 On ch=1 n=c5 v=0
64059 On ch=1 n=g3 v=63
64062 On ch=1 n=d#5 v=59
64064 On ch=1 n=c6 v=82
64094 On ch=1 n=d#5 v=0
64096 On ch=1 n=g3 v=0
64111 On ch=1 n=c6 v=0
64122 On ch=1 n=d#4 v=0
64122 On ch=1 n=d#5 v=85
64134 On ch=1 n=a4 v=66
64171 On ch=1 n=a4 v=0
64172 On ch=1 n=d#5 v=0
64187 On ch=1 n=d#6 v=86
64222 On ch=1 n=g3 v=36
64227 On ch=1 n=d#6 v=0
64239 On ch=1 n=g3 v=0
64249 On ch=1 n=f#5 v=86
64259 On ch=1 n=c5 v=82
64289 On ch=1 n=c5 v=0
64294 On ch=1 n=f#5 v=0
64321 On ch=1 n=f#6 v=84
64321 On ch=1 n=a5 v=65
64336 On ch=1 n=a5 v=0
64361 On ch=1 n=f#6 v=0
64386 On ch=1 n=a5 v=84
64431 On ch=1 n=a5 v=0
64436 On ch=1 n=c6 v=73
64446 On ch=1 n=a6 v=87
64453 On ch=1 n=c6 v=0
64473 On ch=1 n=a6 v=0
64566 Par ch=1 c=64 v=56
64574 Par ch=1 c=64 v=0
64579 On ch=1 n=g7 v=100
64579 On ch=1 n=g2 v=74
64581 On ch=1 n=d#7 v=84
64581 On ch=1 n=g3 v=88
64614 On ch=1 n=g2 v=0
64621 On ch=1 n=g3 v=0
64624 Par ch=1 c=64 v=127
64636 On ch=1 n=g7 v=0
64651 On ch=1 n=d#7 v=0
64656 On ch=1 n=d7 v=85
64724 On ch=1 n=a#6 v=84
64728 On ch=1 n=d7 v=0
64744 On ch=1 n=d4 v=80
64746 On ch=1 n=d3 v=56
64766 On ch=1 n=d3 v=0
64781 On ch=1 n=d4 v=0
64786 On ch=1 n=g6 v=87
64791 On ch=1 n=a#6 v=0
64823 On ch=1 n=g6 v=0
64856 On ch=1 n=a4 v=76
64859 On ch=1 n=g6 v=74
64864 On ch=1 n=a3 v=72
64866 On ch=1 n=d#6 v=58
64876 On ch=1 n=a3 v=0
64888 On ch=1 n=a4 v=0
64898 On ch=1 n=g6 v=0
64900 On ch=1 n=d#6 v=0
64920 On ch=1 n=d6 v=82
64983 On ch=1 n=a#4 v=80
64983 On ch=1 n=a#5 v=79
64990 On ch=1 n=d6 v=0
64990 On ch=1 n=a#3 v=72
65010 Par ch=1 c=64 v=24
65020 Par ch=1 c=64 v=0
65048 On ch=1 n=g5 v=79
65055 On ch=1 n=a#5 v=0
65063 Par ch=1 c=64 v=72
65070 Par ch=1 c=64 v=127
65085 On ch=1 n=g5 v=0
65120 On ch=1 n=a#4 v=0
65123 On ch=1 n=g5 v=53
65132 On ch=1 n=a#3 v=0
65138 On ch=1 n=d#5 v=34
65163 On ch=1 n=d#5 v=0
65163 On ch=1 n=g5 v=0
65200 On ch=1 n=d5 v=75
65252 On ch=1 n=d5 v=0
65260 On ch=1 n=a#4 v=61
65315 On ch=1 n=a#4 v=0
65325 On ch=1 n=g4 v=76
65357 On ch=1 n=g4 v=0
65408 On ch=1 n=a4 v=74
65408 Par ch=1 c=64 v=40
65410 On ch=1 n=f#4 v=54
65413 Par ch=1 c=64 v=0
65445 On ch=1 n=a4 v=0
65448 Par ch=1 c=64 v=40
65455 On ch=1 n=f#4 v=0
65458 Par ch=1 c=64 v=104
65465 Par ch=1 c=64 v=127
65485 On ch=1 n=a5 v=64
65488 On ch=1 n=d#4 v=62
65522 On ch=1 n=a5 v=0
65530 On ch=1 n=d#4 v=0
65548 On ch=1 n=c5 v=76
65560 On ch=1 n=g3 v=60
65580 On ch=1 n=g3 v=0
65590 On ch=1 n=c5 v=0
65615 On ch=1 n=c6 v=84
65623 On ch=1 n=d#5 v=38
65623 On ch=1 n=a4 v=53
65638 On ch=1 n=d#5 v=0
65650 On ch=1 n=c6 v=0
65665 On ch=1 n=a4 v=0
65675 On ch=1 n=d#5 v=85
65685 On ch=1 n=d#4 v=62
65725 On ch=1 n=d#5 v=0
65740 On ch=1 n=d#4 v=0
65740 On ch=1 n=d#6 v=81
65740 On ch=1 n=g3 v=71
65770 On ch=1 n=g3 v=0
65780 On ch=1 n=d#6 v=0
65795 On ch=1 n=f#5 v=80
65805 On ch=1 n=c5 v=68
65835 On ch=1 n=c5 v=0
65840 On ch=1 n=f#5 v=0
65870 On ch=1 n=f#6 v=86
65875 On ch=1 n=g3 v=80
65878 On ch=1 n=a5 v=64
65890 On ch=1 n=g3 v=0
65893 On ch=1 n=a5 v=0
65912 On ch=1 n=f#6 v=0
65940 On ch=1 n=a5 v=94
65940 On ch=1 n=d#5 v=84
65970 On ch=1 n=d#5 v=0
65985 On ch=1 n=a5 v=0
66013 On ch=1 n=a6 v=89
66013 On ch=1 n=c6 v=82
66030 On ch=1 n=c6 v=0
66053 On ch=1 n=a6 v=0
66080 On ch=1 n=c6 v=102
66130 On ch=1 n=c6 v=0
66138 On ch=1 n=d#6 v=81
66143 On ch=1 n=c7 v=85
66163 On ch=1 n=d#6 v=0
66183 On ch=1 n=c7 v=0
66263 Par ch=1 c=64 v=72
66270 Par ch=1 c=64 v=0
66293 On ch=1 n=g3 v=88
66293 On ch=1 n=d8 v=96
66293 On ch=1 n=g7 v=97
66293 On ch=1 n=g2 v=66
66308 On ch=1 n=g2 v=0
66323 On ch=1 n=g3 v=0
66323 Par ch=1 c=64 v=72
66330 Par ch=1 c=64 v=127
66345 On ch=1 n=g7 v=0
66345 On ch=1 n=d8 v=0
66368 On ch=1 n=a#7 v=85
66435 On ch=1 n=a#7 v=0
66445 On ch=1 n=g7 v=93
66455 On ch=1 n=d4 v=83
66455 On ch=1 n=d3 v=64
66485 On ch=1 n=d3 v=0
66490 On ch=1 n=d4 v=0
66494 On ch=1 n=g7 v=0
66510 On ch=1 n=d7 v=75
66555 On ch=1 n=d7 v=0
66570 On ch=1 n=f#4 v=85
66570 On ch=1 n=a#7 v=80
66572 On ch=1 n=f#3 v=77
66577 On ch=1 n=d7 v=75
66594 On ch=1 n=f#3 v=0
66597 On ch=1 n=f#4 v=0
66604 On ch=1 n=d7 v=0
66612 On ch=1 n=a#7 v=0
66642 On ch=1 n=g7 v=82
66694 On ch=1 n=g7 v=0
66695 On ch=1 n=d7 v=69
66705 On ch=1 n=a4 v=78
66705 On ch=1 n=a3 v=80
66705 Par ch=1 c=64 v=88
66730 Par ch=1 c=64 v=127
66740 On ch=1 n=a3 v=0
66740 On ch=1 n=a#6 v=69
66745 On ch=1 n=d7 v=0
66770 On ch=1 n=a4 v=0
66792 On ch=1 n=a#6 v=0
66820 On ch=1 n=g7 v=83
66820 On ch=1 n=a#6 v=71
66830 Par ch=1 c=64 v=72
66832 On ch=1 n=g4 v=88
66835 On ch=1 n=g3 v=79
66840 Par ch=1 c=64 v=0
66855 Par ch=1 c=64 v=24
66862 Par ch=1 c=64 v=56
66867 On ch=1 n=g3 v=0
66867 On ch=1 n=g7 v=0
66872 Par ch=1 c=64 v=88
66877 On ch=1 n=a#6 v=0
66880 Par ch=1 c=64 v=127
66892 On ch=1 n=d7 v=83
66894 On ch=1 n=g4 v=0
66960 On ch=1 n=a#6 v=71
66962 On ch=1 n=a4 v=82
66967 On ch=1 n=d7 v=0
66967 On ch=1 n=a3 v=80
66994 On ch=1 n=a3 v=0
67014 On ch=1 n=a4 v=0
67020 On ch=1 n=g6 v=79
67022 On ch=1 n=a#6 v=0
67067 On ch=1 n=g6 v=0
67092 On ch=1 n=g6 v=90
67092 On ch=1 n=d7 v=87
67092 Par ch=1 c=64 v=72
67095 On ch=1 n=c5 v=77
67100 Par ch=1 c=64 v=24
67105 On ch=1 n=c4 v=55
67125 Par ch=1 c=64 v=88
67132 Par ch=1 c=64 v=127
67137 On ch=1 n=c4 v=0
67137 On ch=1 n=c5 v=0
67139 On ch=1 n=g6 v=0
67147 On ch=1 n=d7 v=0
67167 On ch=1 n=a#6 v=76
67225 On ch=1 n=a#4 v=79
67227 On ch=1 n=a#3 v=82
67227 On ch=1 n=g6 v=83
67232 On ch=1 n=a#6 v=0
67264 On ch=1 n=a#3 v=0
67272 On ch=1 n=a#4 v=0
67282 On ch=1 n=g6 v=0
67292 On ch=1 n=d6 v=80
67349 On ch=1 n=d6 v=0
67352 On ch=1 n=c#5 v=88
67357 On ch=1 n=c#4 v=68
67357 Par ch=1 c=64 v=72
67359 On ch=1 n=a#6 v=77
67364 On ch=1 n=d6 v=58
67364 Par ch=1 c=64 v=40
67374 Par ch=1 c=64 v=56
67382 Par ch=1 c=64 v=88
67389 Par ch=1 c=64 v=127
67394 On ch=1 n=c#4 v=0
67404 On ch=1 n=c#5 v=0
67409 On ch=1 n=d6 v=0
67409 On ch=1 n=a#6 v=0
67432 On ch=1 n=g6 v=84
67489 On ch=1 n=d6 v=79
67489 On ch=1 n=d#5 v=85
67494 On ch=1 n=d#4 v=80
67497 On ch=1 n=g6 v=0
67546 On ch=1 n=d6 v=0
67549 On ch=1 n=d#4 v=0
67552 On ch=1 n=a#5 v=76
67574 On ch=1 n=d#5 v=0
67602 On ch=1 n=a#5 v=0
67624 On ch=1 n=d5 v=90
67624 On ch=1 n=d4 v=85
67624 On ch=1 n=a#5 v=63
67632 On ch=1 n=g6 v=80
67632 Par ch=1 c=64 v=104
67642 Par ch=1 c=64 v=24
67649 Par ch=1 c=64 v=0
67674 On ch=1 n=g6 v=0
67674 On ch=1 n=a#5 v=0
67684 Par ch=1 c=64 v=40
67692 Par ch=1 c=64 v=104
67699 On ch=1 n=d6 v=81
67702 Par ch=1 c=64 v=127
67709 On ch=1 n=d5 v=0
67741 On ch=1 n=d4 v=0
67762 On ch=1 n=a#5 v=73
67779 On ch=1 n=d6 v=0
67817 On ch=1 n=a#5 v=0
67832 On ch=1 n=g5 v=63
67882 On ch=1 n=g5 v=0
67902 Par ch=1 c=64 v=104
67912 Par ch=1 c=64 v=24
67914 On ch=1 n=d6 v=81
67914 On ch=1 n=g5 v=67
67917 On ch=1 n=e3 v=86
67919 Par ch=1 c=64 v=0
67922 On ch=1 n=e2 v=75
67952 Par ch=1 c=64 v=56
67954 On ch=1 n=e2 v=0
67956 On ch=1 n=g5 v=0
67961 On ch=1 n=d6 v=0
67962 On ch=1 n=e3 v=0
67962 Par ch=1 c=64 v=127
67987 On ch=1 n=a#5 v=74
68047 On ch=1 n=a#5 v=0
68047 On ch=1 n=g5 v=70
68052 On ch=1 n=g3 v=78
68057 On ch=1 n=g2 v=72
68089 On ch=1 n=g3 v=0
68092 On ch=1 n=g2 v=0
68097 On ch=1 n=g5 v=0
68119 On ch=1 n=c5 v=58
68124 On ch=1 n=d5 v=58
68139 On ch=1 n=d5 v=0
68159 On ch=1 n=c5 v=0
68184 On ch=1 n=a3 v=85
68189 On ch=1 n=a2 v=68
68192 On ch=1 n=a#5 v=48
68194 On ch=1 n=d5 v=65
68194 On ch=1 n=g#5 v=35
68204 On ch=1 n=a2 v=0
68209 On ch=1 n=a5 v=34
68219 On ch=1 n=g#5 v=0
68219 On ch=1 n=a3 v=0
68224 On ch=1 n=a5 v=0
68232 On ch=1 n=a#5 v=0
68236 On ch=1 n=d5 v=0
68259 On ch=1 n=g5 v=75
68316 On ch=1 n=g5 v=0
68324 On ch=1 n=a#3 v=82
68324 On ch=1 n=d5 v=74
68329 On ch=1 n=a#2 v=69
68372 Par ch=1 c=64 v=72
68379 On ch=1 n=a#4 v=73
68379 Par ch=1 c=64 v=0
68389 On ch=1 n=d5 v=0
68404 Par ch=1 c=64 v=40
68414 Par ch=1 c=64 v=88
68422 Par ch=1 c=64 v=127
68424 On ch=1 n=a#4 v=0
68457 On ch=1 n=g5 v=81
68457 On ch=1 n=d5 v=75
68499 On ch=1 n=d5 v=0
68499 On ch=1 n=g5 v=0
68522 On ch=1 n=e5 v=77
68544 On ch=1 n=a#3 v=0
68574 On ch=1 n=a#2 v=0
68577 On ch=1 n=e5 v=0
68584 On ch=1 n=d5 v=74
68634 On ch=1 n=d5 v=0
68644 On ch=1 n=g4 v=70
68654 On ch=1 n=a4 v=44
68674 On ch=1 n=a4 v=0
68684 On ch=1 n=g4 v=0
68714 Par ch=1 c=64 v=88
68724 Par ch=1 c=64 v=0
68727 On ch=1 n=a#5 v=77
68729 On ch=1 n=d5 v=68
68734 On ch=1 n=e3 v=79
68734 On ch=1 n=e2 v=68
68759 Par ch=1 c=64 v=56
68767 Par ch=1 c=64 v=104
68771 On ch=1 n=e2 v=0
68774 On ch=1 n=d5 v=0
68774 On ch=1 n=a#5 v=0
68774 Par ch=1 c=64 v=127
68784 On ch=1 n=e3 v=0
68794 On ch=1 n=g5 v=74
68849 On ch=1 n=g5 v=0
68849 On ch=1 n=d5 v=64
68864 On ch=1 n=g3 v=60
68866 On ch=1 n=g2 v=64
68893 On ch=1 n=g2 v=0
68896 On ch=1 n=g3 v=0
68914 On ch=1 n=d5 v=0
68914 On ch=1 n=a#4 v=73
68954 On ch=1 n=a#4 v=0
68994 On ch=1 n=a3 v=70
68994 On ch=1 n=c#5 v=26
68996 On ch=1 n=g5 v=73
68999 On ch=1 n=d5 v=77
69004 On ch=1 n=a2 v=24
69009 On ch=1 n=c#5 v=0
69024 On ch=1 n=a2 v=0
69024 On ch=1 n=a3 v=0
69039 On ch=1 n=d5 v=0
69043 On ch=1 n=g5 v=0
69064 On ch=1 n=e5 v=76
69114 On ch=1 n=e5 v=0
69121 On ch=1 n=a#3 v=73
69124 On ch=1 n=a#2 v=62
69129 On ch=1 n=d5 v=73
69149 Par ch=1 c=64 v=56
69159 Par ch=1 c=64 v=0
69184 On ch=1 n=d5 v=0
69191 On ch=1 n=g4 v=74
69191 Par ch=1 c=64 v=24
69199 Par ch=1 c=64 v=88
69209 Par ch=1 c=64 v=127
69236 On ch=1 n=g4 v=0
69266 On ch=1 n=d5 v=69
69271 On ch=1 n=g5 v=79
69313 On ch=1 n=d5 v=0
69323 On ch=1 n=g5 v=0
69339 On ch=1 n=e5 v=73
69409 On ch=1 n=d5 v=69
69411 On ch=1 n=e5 v=0
69446 On ch=1 n=a#2 v=0
69461 On ch=1 n=d5 v=0
69466 On ch=1 n=a#3 v=0
69481 On ch=1 n=g4 v=64
69521 On ch=1 n=g4 v=0
69621 On ch=1 n=a5 v=68
69626 On ch=1 n=c#5 v=46
69631 On ch=1 n=g4 v=51
69631 On ch=1 n=e5 v=57
69631 On ch=1 n=a4 v=50
69646 Par ch=1 c=64 v=88
69654 On ch=1 n=a3 v=43
69654 Par ch=1 c=64 v=0
69656 On ch=1 n=a2 v=44
69716 On ch=1 n=a2 v=0
69721 Par ch=1 c=64 v=88
69729 Par ch=1 c=64 v=127
69741 On ch=1 n=a3 v=0
69771 On ch=1 n=g#3 v=55
69791 On ch=1 n=g4 v=0
69793 On ch=1 n=g#3 v=0
69796 On ch=1 n=a4 v=0
69821 On ch=1 n=a3 v=68
69836 On ch=1 n=e5 v=0
69861 On ch=1 n=a3 v=0
69878 On ch=1 n=c#5 v=0
69886 On ch=1 n=b3 v=66
69908 On ch=1 n=a5 v=0
69933 On ch=1 n=b3 v=0
69943 On ch=1 n=c#4 v=67
69998 On ch=1 n=c#4 v=0
70021 On ch=1 n=d4 v=71
70031 On ch=1 n=a5 v=71
70033 On ch=1 n=a4 v=55
70038 On ch=1 n=f5 v=58
70041 On ch=1 n=d5 v=56
70046 Par ch=1 c=64 v=72
70053 Par ch=1 c=64 v=0
70088 On ch=1 n=d4 v=0
70096 Par ch=1 c=64 v=40
70101 On ch=1 n=e4 v=62
70103 Par ch=1 c=64 v=104
70111 Par ch=1 c=64 v=127
70145 On ch=1 n=a4 v=0
70173 On ch=1 n=f4 v=68
70176 On ch=1 n=a5 v=0
70185 On ch=1 n=f5 v=0
70186 On ch=1 n=d5 v=0
70218 On ch=1 n=e4 v=0
70223 On ch=1 n=f4 v=0
70246 On ch=1 n=e4 v=63
70258 On ch=1 n=a5 v=76
70261 On ch=1 n=a4 v=59
70278 On ch=1 n=a4 v=0
70278 On ch=1 n=a5 v=0
70298 On ch=1 n=e4 v=0
70316 On ch=1 n=d4 v=51
70318 On ch=1 n=a5 v=77
70318 On ch=1 n=a4 v=60
70376 On ch=1 n=a#3 v=60
70378 On ch=1 n=d4 v=0
70390 On ch=1 n=a5 v=0
70398 On ch=1 n=a4 v=0
70401 On ch=1 n=a#3 v=0
70486 On ch=1 n=a5 v=77
70488 On ch=1 n=c#5 v=49
70488 On ch=1 n=e5 v=63
70496 On ch=1 n=a4 v=50
70496 On ch=1 n=g4 v=50
70511 On ch=1 n=a2 v=50
70516 Par ch=1 c=64 v=104
70523 On ch=1 n=a3 v=40
70523 Par ch=1 c=64 v=24
70531 Par ch=1 c=64 v=0
70576 On ch=1 n=a2 v=0
70583 Par ch=1 c=64 v=72
70591 Par ch=1 c=64 v=127
70625 On ch=1 n=a3 v=0
70641 On ch=1 n=g#3 v=62
70681 On ch=1 n=g4 v=0
70688 On ch=1 n=g#3 v=0
70688 On ch=1 n=a4 v=0
70703 On ch=1 n=a3 v=68
70713 On ch=1 n=e5 v=0
70723 On ch=1 n=c#5 v=0
70745 On ch=1 n=a3 v=0
70763 On ch=1 n=b3 v=74
70781 On ch=1 n=a5 v=0
70825 On ch=1 n=b3 v=0
70828 On ch=1 n=c#4 v=82
70893 On ch=1 n=c#4 v=0
70903 On ch=1 n=d4 v=83
70906 On ch=1 n=a5 v=82
70908 On ch=1 n=a4 v=68
70911 On ch=1 n=f5 v=65
70913 On ch=1 n=d5 v=67
70923 Par ch=1 c=64 v=72
70930 Par ch=1 c=64 v=0
70957 On ch=1 n=d4 v=0
70967 On ch=1 n=e4 v=68
70972 Par ch=1 c=64 v=56
70980 Par ch=1 c=64 v=104
70987 Par ch=1 c=64 v=127
70989 On ch=1 n=a4 v=0
71012 On ch=1 n=d5 v=0
71017 On ch=1 n=f5 v=0
71017 On ch=1 n=a5 v=0
71032 On ch=1 n=e4 v=0
71040 On ch=1 n=f4 v=80
71090 On ch=1 n=f4 v=0
71110 On ch=1 n=e4 v=80
71190 On ch=1 n=d4 v=70
71190 Par ch=1 c=64 v=104
71192 On ch=1 n=b5 v=81
71192 On ch=1 n=b4 v=75
71192 On ch=1 n=f5 v=68
71195 On ch=1 n=g5 v=66
71197 On ch=1 n=e4 v=0
71197 Par ch=1 c=64 v=24
71207 Par ch=1 c=64 v=0
71240 Par ch=1 c=64 v=40
71247 Par ch=1 c=64 v=104
71257 Par ch=1 c=64 v=127
71262 On ch=1 n=b4 v=0
71262 On ch=1 n=d4 v=0
71265 On ch=1 n=c#4 v=76
71269 On ch=1 n=f5 v=0
71270 On ch=1 n=g5 v=0
71280 On ch=1 n=c#4 v=0
71287 On ch=1 n=b5 v=0
71317 On ch=1 n=f#5 v=35
71334 On ch=1 n=f#5 v=0
71377 On ch=1 n=c6 v=96
71380 On ch=1 n=c5 v=84
71380 On ch=1 n=e5 v=74
71382 On ch=1 n=g5 v=74
71382 On ch=1 n=a#5 v=67
71382 Par ch=1 c=64 v=104
71390 Par ch=1 c=64 v=24
71400 Par ch=1 c=64 v=0
71402 On ch=1 n=c4 v=73
71402 On ch=1 n=c3 v=62
71465 Par ch=1 c=64 v=88
71469 On ch=1 n=c3 v=0
71475 Par ch=1 c=64 v=127
71492 On ch=1 n=c4 v=0
71545 On ch=1 n=b3 v=74
71580 On ch=1 n=b3 v=0
71617 On ch=1 n=c4 v=84
71657 On ch=1 n=c4 v=0
71659 On ch=1 n=g5 v=0
71669 On ch=1 n=e5 v=0
71677 On ch=1 n=d4 v=81
71692 On ch=1 n=c5 v=0
71701 On ch=1 n=a#5 v=0
71709 On ch=1 n=c6 v=0
71724 On ch=1 n=d4 v=0
71744 On ch=1 n=e4 v=66
71801 On ch=1 n=e4 v=0
71822 On ch=1 n=c6 v=94
71827 On ch=1 n=g#5 v=70
71827 On ch=1 n=c5 v=81
71829 On ch=1 n=f5 v=73
71832 Par ch=1 c=64 v=72
71837 On ch=1 n=f4 v=74
71842 Par ch=1 c=64 v=0
71889 On ch=1 n=f4 v=0
71892 Par ch=1 c=64 v=24
71899 Par ch=1 c=64 v=88
71902 On ch=1 n=g4 v=69
71907 Par ch=1 c=64 v=127
71954 On ch=1 n=c5 v=0
71964 On ch=1 n=g4 v=0
71967 On ch=1 n=c6 v=0
71972 On ch=1 n=g#4 v=71
71984 On ch=1 n=f5 v=0
71994 On ch=1 n=g#5 v=0
72039 On ch=1 n=g#4 v=0
72042 On ch=1 n=g4 v=69
72062 On ch=1 n=c6 v=90
72062 On ch=1 n=c5 v=82
72089 On ch=1 n=c5 v=0
72092 On ch=1 n=c6 v=0
72114 On ch=1 n=f4 v=68
72119 On ch=1 n=g4 v=0
72119 On ch=1 n=c6 v=92
72119 On ch=1 n=c5 v=85
72179 On ch=1 n=f4 v=0
72179 On ch=1 n=c#4 v=67
72199 On ch=1 n=c#4 v=0
72209 On ch=1 n=c5 v=0
72209 On ch=1 n=c6 v=0
72289 On ch=1 n=c6 v=84
72289 On ch=1 n=c5 v=76
72289 On ch=1 n=e5 v=68
72289 On ch=1 n=a#5 v=63
72292 On ch=1 n=g5 v=63
72294 Par ch=1 c=64 v=104
72302 Par ch=1 c=64 v=40
72309 Par ch=1 c=64 v=0
72319 On ch=1 n=c3 v=51
72324 On ch=1 n=c4 v=50
72364 On ch=1 n=c3 v=0
72384 Par ch=1 c=64 v=127
72396 On ch=1 n=c4 v=0
72447 On ch=1 n=b3 v=74
72484 On ch=1 n=b3 v=0
72519 On ch=1 n=c4 v=59
72522 On ch=1 n=b3 v=54
72542 On ch=1 n=b3 v=0
72544 On ch=1 n=g5 v=0
72551 On ch=1 n=c4 v=0
72551 On ch=1 n=e5 v=0
72561 On ch=1 n=c5 v=0
72576 On ch=1 n=d4 v=82
72591 On ch=1 n=a#5 v=0
72598 On ch=1 n=c6 v=0
72618 On ch=1 n=d4 v=0
72639 On ch=1 n=e4 v=74
72694 On ch=1 n=e4 v=0
72716 On ch=1 n=c6 v=86
72719 On ch=1 n=f4 v=73
72719 On ch=1 n=g#5 v=65
72721 On ch=1 n=c5 v=73
72721 On ch=1 n=f5 v=69
72729 Par ch=1 c=64 v=88
72736 Par ch=1 c=64 v=0
72769 On ch=1 n=f4 v=0
72784 On ch=1 n=g4 v=70
72786 Par ch=1 c=64 v=56
72794 Par ch=1 c=64 v=127
72798 On ch=1 n=c5 v=0
72828 On ch=1 n=f5 v=0
72828 On ch=1 n=c6 v=0
72839 On ch=1 n=g4 v=0
72844 On ch=1 n=g#5 v=0
72856 On ch=1 n=g#4 v=67
72906 On ch=1 n=g#4 v=0
72921 On ch=1 n=g4 v=78
72998 On ch=1 n=g4 v=0
72999 On ch=1 n=f4 v=64
72999 On ch=1 n=d6 v=89
72999 On ch=1 n=d5 v=90
73001 On ch=1 n=a#5 v=71
73001 On ch=1 n=g#5 v=70
73046 On ch=1 n=d5 v=0
73069 On ch=1 n=d6 v=0
73069 On ch=1 n=e4 v=74
73071 On ch=1 n=g#5 v=0
73073 On ch=1 n=a#5 v=0
73074 On ch=1 n=f4 v=0
73086 On ch=1 n=e4 v=0
73176 On ch=1 n=d#6 v=90
73179 On ch=1 n=d#5 v=85
73179 On ch=1 n=a#5 v=76
73184 On ch=1 n=g5 v=76
73184 On ch=1 n=c#6 v=71
73189 Par ch=1 c=64 v=72
73199 Par ch=1 c=64 v=0
73204 On ch=1 n=d#3 v=65
73204 On ch=1 n=d#4 v=77
73256 Par ch=1 c=64 v=72
73261 On ch=1 n=d#3 v=0
73264 Par ch=1 c=64 v=127
73276 On ch=1 n=d#4 v=0
73336 On ch=1 n=d4 v=78
73376 On ch=1 n=d4 v=0
73401 On ch=1 n=d#4 v=71
73441 On ch=1 n=g5 v=0
73444 On ch=1 n=a#5 v=0
73448 On ch=1 n=d#4 v=0
73466 On ch=1 n=f4 v=79
73476 On ch=1 n=d#5 v=0
73493 On ch=1 n=c#6 v=0
73498 On ch=1 n=d#6 v=0
73513 On ch=1 n=f4 v=0
73528 On ch=1 n=g4 v=72
73598 On ch=1 n=g4 v=0
73603 On ch=1 n=d#6 v=87
73603 On ch=1 n=g#4 v=65
73606 On ch=1 n=d#5 v=76
73608 On ch=1 n=g#5 v=64
73611 On ch=1 n=b5 v=74
73623 Par ch=1 c=64 v=104
73631 Par ch=1 c=64 v=24
73638 Par ch=1 c=64 v=0
73663 On ch=1 n=g#4 v=0
73673 On ch=1 n=a#4 v=67
73691 Par ch=1 c=64 v=88
73698 Par ch=1 c=64 v=127
73718 On ch=1 n=d#5 v=0
73728 On ch=1 n=a#4 v=0
73738 On ch=1 n=d#6 v=0
73738 On ch=1 n=b4 v=70
73761 On ch=1 n=b5 v=0
73773 On ch=1 n=g#5 v=0
73803 On ch=1 n=b4 v=0
73803 On ch=1 n=a#4 v=67
73836 On ch=1 n=d#5 v=79
73838 On ch=1 n=d#6 v=85
73863 On ch=1 n=d#6 v=0
73866 On ch=1 n=d#5 v=0
73868 On ch=1 n=g#4 v=56
73875 On ch=1 n=a#4 v=0
73891 On ch=1 n=d#5 v=82
73891 On ch=1 n=d#6 v=84
73943 On ch=1 n=e4 v=64
73955 On ch=1 n=g#4 v=0
73975 On ch=1 n=e4 v=0
73993 On ch=1 n=d#5 v=0
73996 On ch=1 n=d#6 v=0
74046 On ch=1 n=d#6 v=93
74046 On ch=1 n=d#5 v=92
74051 On ch=1 n=a#5 v=69
74051 On ch=1 n=c#6 v=69
74051 On ch=1 n=g5 v=77
74061 On ch=1 n=d#4 v=77
74061 Par ch=1 c=64 v=40
74066 On ch=1 n=d#3 v=72
74068 Par ch=1 c=64 v=0
74096 On ch=1 n=d#3 v=0
74098 On ch=1 n=d#4 v=0
74108 Par ch=1 c=64 v=72
74115 Par ch=1 c=64 v=127
74203 On ch=1 n=d4 v=55
74250 On ch=1 n=d4 v=0
74258 On ch=1 n=d#4 v=71
74263 On ch=1 n=g5 v=0
74263 On ch=1 n=a#5 v=0
74308 On ch=1 n=d#4 v=0
74323 On ch=1 n=f4 v=72
74345 On ch=1 n=d#5 v=0
74368 On ch=1 n=c#6 v=0
74380 On ch=1 n=f4 v=0
74380 On ch=1 n=d#6 v=0
74390 On ch=1 n=g4 v=76
74470 On ch=1 n=g#4 v=65
74480 On ch=1 n=d#6 v=89
74480 On ch=1 n=d#5 v=82
74485 On ch=1 n=g4 v=0
74485 On ch=1 n=g#5 v=71
74485 On ch=1 n=b5 v=76
74500 Par ch=1 c=64 v=88
74505 Par ch=1 c=64 v=0
74542 On ch=1 n=d#5 v=0
74547 On ch=1 n=g#4 v=0
74547 Par ch=1 c=64 v=40
74552 On ch=1 n=a#4 v=69
74557 On ch=1 n=g#5 v=0
74557 Par ch=1 c=64 v=127
74567 On ch=1 n=b5 v=0
74584 On ch=1 n=d#6 v=0
74614 On ch=1 n=a#4 v=0
74619 On ch=1 n=b4 v=74
74684 On ch=1 n=b4 v=0
74684 On ch=1 n=a#4 v=74
74754 On ch=1 n=g#4 v=71
74756 On ch=1 n=a#4 v=0
74774 On ch=1 n=d#7 v=103
74774 On ch=1 n=d#6 v=92
74774 On ch=1 n=g#6 v=91
74849 On ch=1 n=d#4 v=71
74864 On ch=1 n=g#4 v=0
74884 On ch=1 n=d#4 v=0
74901 On ch=1 n=d#6 v=0
74911 On ch=1 n=g#6 v=0
74921 On ch=1 n=d#7 v=0
75004 Par ch=1 c=64 v=72
75014 Par ch=1 c=64 v=0
75024 On ch=1 n=d#6 v=89
75026 On ch=1 n=d#7 v=105
75026 On ch=1 n=e3 v=85
75029 On ch=1 n=g#6 v=85
75064 Par ch=1 c=64 v=127
75066 On ch=1 n=e3 v=0
75234 On ch=1 n=b3 v=66
75236 On ch=1 n=d#6 v=0
75246 On ch=1 n=g#6 v=0
75285 On ch=1 n=d#7 v=0
75291 On ch=1 n=b3 v=0
75301 On ch=1 n=d#4 v=75
75356 On ch=1 n=d#4 v=0
75376 On ch=1 n=g#4 v=80
75433 On ch=1 n=g#4 v=0
75441 On ch=1 n=b4 v=72
75478 On ch=1 n=d#8 v=106
75481 On ch=1 n=d#7 v=100
75483 On ch=1 n=g#7 v=88
75526 On ch=1 n=b4 v=0
75526 On ch=1 n=g#4 v=61
75581 On ch=1 n=d#4 v=72
75591 On ch=1 n=g#4 v=0
75641 On ch=1 n=d#4 v=0
75643 On ch=1 n=b3 v=57
75675 On ch=1 n=b3 v=0
75721 On ch=1 n=d#5 v=69
75736 On ch=1 n=d#5 v=0
75770 On ch=1 n=g#7 v=0
75778 On ch=1 n=d#7 v=0
75788 On ch=1 n=d#8 v=0
75916 Par ch=1 c=64 v=72
75923 Par ch=1 c=64 v=0
75938 On ch=1 n=d8 v=100
75938 On ch=1 n=d7 v=93
75938 On ch=1 n=g#7 v=86
75943 On ch=1 n=e3 v=88
75973 Par ch=1 c=64 v=104
75983 Par ch=1 c=64 v=127
75988 On ch=1 n=e3 v=0
76008 On ch=1 n=g#7 v=0
76015 On ch=1 n=d8 v=0
76030 On ch=1 n=d7 v=0
76151 On ch=1 n=b7 v=103
76156 On ch=1 n=d7 v=90
76158 On ch=1 n=b6 v=84
76218 On ch=1 n=b3 v=71
76221 On ch=1 n=b7 v=0
76223 On ch=1 n=b6 v=0
76228 On ch=1 n=d7 v=0
76278 On ch=1 n=b3 v=0
76298 On ch=1 n=a#7 v=93
76301 On ch=1 n=a#6 v=86
76306 On ch=1 n=d7 v=84
76308 On ch=1 n=d4 v=63
76358 On ch=1 n=a#7 v=0
76368 On ch=1 n=d7 v=0
76383 On ch=1 n=d4 v=0
76386 On ch=1 n=a#6 v=0
76388 On ch=1 n=g#4 v=68
76441 On ch=1 n=g#7 v=100
76441 On ch=1 n=g#6 v=86
76443 On ch=1 n=d7 v=86
76460 On ch=1 n=g#4 v=0
76461 Par ch=1 c=64 v=104
76463 On ch=1 n=b4 v=59
76471 Par ch=1 c=64 v=56
76478 Par ch=1 c=64 v=0
76486 Par ch=1 c=64 v=40
76496 Par ch=1 c=64 v=88
76503 Par ch=1 c=64 v=127
76518 On ch=1 n=d7 v=0
76521 On ch=1 n=g#4 v=64
76533 On ch=1 n=b4 v=0
76536 On ch=1 n=g#6 v=0
76541 On ch=1 n=g#7 v=0
76586 On ch=1 n=f#7 v=90
76586 On ch=1 n=f#6 v=88
76588 On ch=1 n=d7 v=85
76611 On ch=1 n=d4 v=51
76631 On ch=1 n=g#4 v=0
76633 On ch=1 n=d7 v=0
76643 On ch=1 n=f#7 v=0
76650 On ch=1 n=b3 v=55
76655 On ch=1 n=f#6 v=0
76658 On ch=1 n=d4 v=0
76682 On ch=1 n=b3 v=0
76728 On ch=1 n=d5 v=51
76738 On ch=1 n=e7 v=99
76740 On ch=1 n=g#6 v=85
76740 On ch=1 n=e6 v=88
76760 On ch=1 n=d5 v=0
76820 On ch=1 n=e6 v=0
76823 On ch=1 n=e7 v=0
76845 On ch=1 n=g#6 v=0
76935 On ch=1 n=d#7 v=88
76938 On ch=1 n=d#6 v=76
76943 On ch=1 n=g6 v=85
76958 On ch=1 n=d#4 v=73
76963 On ch=1 n=d#3 v=71
77070 On ch=1 n=d#4 v=0
77075 On ch=1 n=d#3 v=0
77115 On ch=1 n=d3 v=63
77115 Par ch=1 c=64 v=40
77120 On ch=1 n=g6 v=0
77120 On ch=1 n=d#6 v=0
77123 Par ch=1 c=64 v=72
77125 On ch=1 n=d#7 v=0
77133 Par ch=1 c=64 v=88
77143 Par ch=1 c=64 v=104
77150 Par ch=1 c=64 v=127
77177 On ch=1 n=d3 v=0
77183 On ch=1 n=d#3 v=63
77238 On ch=1 n=d#3 v=0
77258 On ch=1 n=f3 v=59
77308 On ch=1 n=f3 v=0
77335 On ch=1 n=g3 v=63
77415 On ch=1 n=b6 v=87
77415 On ch=1 n=d#6 v=61
77420 On ch=1 n=b5 v=59
77423 On ch=1 n=g#3 v=50
77423 Par ch=1 c=64 v=104
77427 On ch=1 n=g3 v=0
77433 Par ch=1 c=64 v=72
77440 Par ch=1 c=64 v=0
77475 On ch=1 n=g#3 v=0
77495 On ch=1 n=a#3 v=65
77510 Par ch=1 c=64 v=24
77520 Par ch=1 c=64 v=72
77528 Par ch=1 c=64 v=127
77537 On ch=1 n=a#3 v=0
77547 On ch=1 n=b3 v=56
77602 On ch=1 n=b3 v=0
77612 On ch=1 n=c#4 v=62
77672 On ch=1 n=b6 v=0
77674 On ch=1 n=c#4 v=0
77680 On ch=1 n=d#4 v=63
77694 On ch=1 n=b5 v=0
77702 On ch=1 n=d#6 v=0
77750 On ch=1 n=d#4 v=0
77757 On ch=1 n=e4 v=70
77779 On ch=1 n=e4 v=0
77850 On ch=1 n=a#6 v=81
77855 On ch=1 n=c#6 v=62
77855 On ch=1 n=a#5 v=58
77872 On ch=1 n=d#3 v=54
77882 Par ch=1 c=64 v=104
77889 Par ch=1 c=64 v=72
77899 Par ch=1 c=64 v=0
77977 Par ch=1 c=64 v=56
77986 On ch=1 n=d#3 v=0
77987 Par ch=1 c=64 v=104
77994 Par ch=1 c=64 v=127
78002 On ch=1 n=d3 v=63
78062 On ch=1 n=d3 v=0
78067 On ch=1 n=d#3 v=64
78124 On ch=1 n=d#3 v=0
78142 On ch=1 n=f3 v=56
78159 On ch=1 n=a#6 v=0
78169 On ch=1 n=c#6 v=0
78194 On ch=1 n=f3 v=0
78202 On ch=1 n=a#5 v=0
78217 On ch=1 n=g3 v=60
78294 On ch=1 n=g#6 v=81
78297 On ch=1 n=g#3 v=56
78304 On ch=1 n=g3 v=0
78304 On ch=1 n=g#5 v=52
78307 On ch=1 n=b5 v=68
78322 Par ch=1 c=64 v=72
78332 Par ch=1 c=64 v=0
78357 On ch=1 n=g#3 v=0
78374 On ch=1 n=a#3 v=60
78392 Par ch=1 c=64 v=56
78402 Par ch=1 c=64 v=104
78407 Par ch=1 c=64 v=127
78441 On ch=1 n=a#3 v=0
78451 On ch=1 n=b3 v=50
78508 On ch=1 n=b3 v=0
78514 On ch=1 n=c#4 v=59
78579 On ch=1 n=c#4 v=0
78589 On ch=1 n=d#4 v=57
78629 On ch=1 n=d#4 v=0
78641 On ch=1 n=b5 v=0
78661 On ch=1 n=e4 v=52
78663 On ch=1 n=g#6 v=0
78681 On ch=1 n=e4 v=0
78696 On ch=1 n=g#5 v=0
78739 On ch=1 n=f#6 v=77
78749 On ch=1 n=f#5 v=47
78751 On ch=1 n=a#5 v=57
78759 On ch=1 n=d#3 v=52
78811 Par ch=1 c=64 v=72
78819 Par ch=1 c=64 v=0
78891 On ch=1 n=d#3 v=0
78899 Par ch=1 c=64 v=72
78906 On ch=1 n=d3 v=62
78906 Par ch=1 c=64 v=127
78963 On ch=1 n=d3 v=0
78971 On ch=1 n=d#3 v=58
79041 On ch=1 n=a#5 v=0
79046 On ch=1 n=d#3 v=0
79051 On ch=1 n=f3 v=44
79091 On ch=1 n=f#5 v=0
79101 On ch=1 n=f3 v=0
79124 On ch=1 n=g3 v=57
79186 On ch=1 n=f#6 v=0
79204 On ch=1 n=g#3 v=58
79206 On ch=1 n=g3 v=0
79209 On ch=1 n=g#6 v=73
79216 On ch=1 n=g#5 v=45
79219 On ch=1 n=b5 v=60
79241 Par ch=1 c=64 v=56
79251 Par ch=1 c=64 v=0
79261 On ch=1 n=g#3 v=0
79284 On ch=1 n=a#3 v=61
79304 Par ch=1 c=64 v=56
79311 Par ch=1 c=64 v=104
79321 Par ch=1 c=64 v=127
79346 On ch=1 n=a#3 v=0
79356 On ch=1 n=b3 v=53
79411 On ch=1 n=b3 v=0
79413 On ch=1 n=g#6 v=0
79418 On ch=1 n=b5 v=0
79423 On ch=1 n=c#4 v=61
79445 On ch=1 n=g#5 v=0
79478 On ch=1 n=c#4 v=0
79493 On ch=1 n=d#4 v=56
79558 On ch=1 n=d#4 v=0
79573 On ch=1 n=e4 v=62
79590 On ch=1 n=e4 v=0
79666 On ch=1 n=c#6 v=68
79671 On ch=1 n=c#5 v=47
79678 On ch=1 n=a#5 v=48
79683 On ch=1 n=d#3 v=47
79731 Par ch=1 c=64 v=88
79741 Par ch=1 c=64 v=24
79751 Par ch=1 c=64 v=0
79818 Par ch=1 c=64 v=88
79820 On ch=1 n=d#3 v=0
79828 Par ch=1 c=64 v=127
79833 On ch=1 n=d3 v=56
79903 On ch=1 n=d3 v=0
79903 On ch=1 n=d#3 v=57
79943 On ch=1 n=c#5 v=0
79975 On ch=1 n=d#3 v=0
79981 On ch=1 n=f3 v=62
80008 On ch=1 n=a#5 v=0
80036 On ch=1 n=f3 v=0
80056 On ch=1 n=g3 v=64
80078 On ch=1 n=c#6 v=0
80136 On ch=1 n=e6 v=81
80141 On ch=1 n=g#3 v=57
80143 On ch=1 n=g#5 v=57
80146 On ch=1 n=g3 v=0
80146 On ch=1 n=e5 v=56
80156 Par ch=1 c=64 v=56
80163 Par ch=1 c=64 v=0
80203 On ch=1 n=g#3 v=0
80213 On ch=1 n=a#3 v=61
80213 Par ch=1 c=64 v=72
80223 Par ch=1 c=64 v=127
80280 On ch=1 n=a#3 v=0
80290 On ch=1 n=b3 v=52
80350 On ch=1 n=b3 v=0
80350 On ch=1 n=c#4 v=58
80405 On ch=1 n=c#4 v=0
80417 On ch=1 n=d#4 v=59
80470 On ch=1 n=e6 v=0
80482 On ch=1 n=e5 v=0
80497 On ch=1 n=d#4 v=0
80505 On ch=1 n=e4 v=65
80509 On ch=1 n=g#5 v=0
80519 On ch=1 n=e4 v=0
80612 On ch=1 n=d#6 v=69
80617 On ch=1 n=d#5 v=46
80622 On ch=1 n=g5 v=56
80634 On ch=1 n=d#3 v=47
80682 Par ch=1 c=64 v=72
80692 Par ch=1 c=64 v=0
80772 Par ch=1 c=64 v=88
80774 On ch=1 n=d#3 v=0
80779 Par ch=1 c=64 v=127
80794 On ch=1 n=g5 v=0
80797 On ch=1 n=d3 v=53
80852 On ch=1 n=d3 v=0
80864 On ch=1 n=d#3 v=56
80916 On ch=1 n=d#3 v=0
80934 On ch=1 n=f3 v=60
80949 On ch=1 n=d#5 v=0
80979 On ch=1 n=f3 v=0
80999 On ch=1 n=g3 v=64
81009 On ch=1 n=d#6 v=0
81063 On ch=1 n=g3 v=0
81079 On ch=1 n=b5 v=66
81079 On ch=1 n=g#3 v=54
81081 On ch=1 n=g#5 v=46
81081 On ch=1 n=d#5 v=36
81101 Par ch=1 c=64 v=40
81111 Par ch=1 c=64 v=0
81136 On ch=1 n=g#3 v=0
81151 On ch=1 n=a#3 v=58
81161 Par ch=1 c=64 v=88
81168 Par ch=1 c=64 v=127
81218 On ch=1 n=a#3 v=0
81226 On ch=1 n=b3 v=55
81283 On ch=1 n=b3 v=0
81293 On ch=1 n=c#4 v=55
81343 On ch=1 n=c#4 v=0
81361 On ch=1 n=d#4 v=57
81415 On ch=1 n=g#5 v=0
81431 On ch=1 n=d#4 v=0
81445 On ch=1 n=d#5 v=0
81446 On ch=1 n=e4 v=32
81466 On ch=1 n=e4 v=0
81526 On ch=1 n=b5 v=0
81531 On ch=1 n=a#5 v=73
81536 On ch=1 n=c#5 v=47
81553 On ch=1 n=d#3 v=51
81591 Par ch=1 c=64 v=56
81601 Par ch=1 c=64 v=0
81660 On ch=1 n=d#3 v=0
81663 Par ch=1 c=64 v=72
81668 Par ch=1 c=64 v=127
81683 On ch=1 n=d3 v=56
81733 On ch=1 n=d3 v=0
81751 On ch=1 n=d#3 v=51
81803 On ch=1 n=d#3 v=0
81821 On ch=1 n=f3 v=59
81866 On ch=1 n=f3 v=0
81893 On ch=1 n=g3 v=60
81913 On ch=1 n=c#5 v=0
81968 On ch=1 n=g3 v=0
81968 On ch=1 n=g#3 v=53
81976 On ch=1 n=a#5 v=0
81978 On ch=1 n=g#5 v=68
81988 On ch=1 n=b4 v=55
81988 On ch=1 n=d#5 v=48
81993 Par ch=1 c=64 v=88
82003 Par ch=1 c=64 v=0
82025 On ch=1 n=g#3 v=0
82035 On ch=1 n=a#3 v=58
82062 Par ch=1 c=64 v=72
82070 Par ch=1 c=64 v=127
82095 On ch=1 n=a#3 v=0
82112 On ch=1 n=b3 v=55
82175 On ch=1 n=c#4 v=59
82177 On ch=1 n=b3 v=0
82232 On ch=1 n=c#4 v=0
82237 On ch=1 n=d#5 v=0
82242 On ch=1 n=d#4 v=60
82305 On ch=1 n=b4 v=0
82314 On ch=1 n=d#4 v=0
82322 On ch=1 n=e4 v=66
82342 On ch=1 n=e4 v=0
82404 On ch=1 n=g#5 v=0
82420 On ch=1 n=f#5 v=64
82430 On ch=1 n=a#4 v=43
82432 On ch=1 n=c#5 v=44
82442 On ch=1 n=d#3 v=44
82479 Par ch=1 c=64 v=56
82489 Par ch=1 c=64 v=0
82559 On ch=1 n=d#3 v=0
82567 Par ch=1 c=64 v=56
82577 Par ch=1 c=64 v=104
82584 On ch=1 n=d3 v=55
82584 Par ch=1 c=64 v=127
82639 On ch=1 n=d3 v=0
82647 On ch=1 n=d#3 v=56
82717 On ch=1 n=f3 v=45
82719 On ch=1 n=d#3 v=0
82762 On ch=1 n=f3 v=0
82782 On ch=1 n=a#4 v=0
82782 On ch=1 n=g3 v=62
82821 On ch=1 n=c#5 v=0
82832 On ch=1 n=f#5 v=0
82859 On ch=1 n=g3 v=0
82867 On ch=1 n=g#5 v=67
82867 On ch=1 n=g#3 v=51
82872 On ch=1 n=d#5 v=49
82879 On ch=1 n=b4 v=46
82884 Par ch=1 c=64 v=88
82892 Par ch=1 c=64 v=0
82929 On ch=1 n=g#3 v=0
82939 On ch=1 n=a#3 v=58
82947 Par ch=1 c=64 v=40
82954 Par ch=1 c=64 v=104
82964 Par ch=1 c=64 v=127
82999 On ch=1 n=a#3 v=0
83009 On ch=1 n=b3 v=52
83071 On ch=1 n=c#4 v=58
83074 On ch=1 n=b3 v=0
83131 On ch=1 n=c#4 v=0
83139 On ch=1 n=d#4 v=60
83158 On ch=1 n=b4 v=0
83194 On ch=1 n=d#4 v=0
83211 On ch=1 n=e4 v=58
83231 On ch=1 n=e4 v=0
83246 On ch=1 n=d#5 v=0
83309 On ch=1 n=c#5 v=67
83316 On ch=1 n=a#4 v=38
83319 On ch=1 n=g#5 v=0
83331 On ch=1 n=d#3 v=50
83374 Par ch=1 c=64 v=56
83384 Par ch=1 c=64 v=0
83428 On ch=1 n=d#3 v=0
83454 On ch=1 n=d3 v=45
83454 Par ch=1 c=64 v=56
83464 Par ch=1 c=64 v=104
83471 Par ch=1 c=64 v=127
83496 On ch=1 n=d3 v=0
83516 On ch=1 n=d#3 v=42
83581 On ch=1 n=d#3 v=0
83591 On ch=1 n=f3 v=51
83638 On ch=1 n=f3 v=0
83674 On ch=1 n=g3 v=45
83678 On ch=1 n=a#4 v=0
83688 On ch=1 n=c#5 v=0
83748 On ch=1 n=g3 v=0
83748 On ch=1 n=g#3 v=44
83763 On ch=1 n=e5 v=68
83768 On ch=1 n=g#4 v=48
83773 On ch=1 n=b4 v=55
83803 Par ch=1 c=64 v=56
83811 Par ch=1 c=64 v=0
83828 On ch=1 n=g#3 v=0
83838 On ch=1 n=a#3 v=46
83863 Par ch=1 c=64 v=24
83870 Par ch=1 c=64 v=88
83880 Par ch=1 c=64 v=127
83913 On ch=1 n=a#3 v=0
83925 On ch=1 n=b3 v=48
83980 On ch=1 n=b3 v=0
83988 On ch=1 n=c#4 v=54
84048 On ch=1 n=c#4 v=0
84065 On ch=1 n=d#4 v=49
84140 On ch=1 n=d#4 v=0
84163 On ch=1 n=e4 v=41
84180 On ch=1 n=b4 v=0
84185 On ch=1 n=e4 v=0
84217 On ch=1 n=g#4 v=0
84262 On ch=1 n=e5 v=0
84280 On ch=1 n=d#5 v=59
84290 On ch=1 n=a#4 v=33
84298 On ch=1 n=g4 v=39
84308 On ch=1 n=d#3 v=31
84335 Par ch=1 c=64 v=88
84345 Par ch=1 c=64 v=24
84355 Par ch=1 c=64 v=0
84425 Par ch=1 c=64 v=40
84433 Par ch=1 c=64 v=104
84443 Par ch=1 c=64 v=127
84452 On ch=1 n=a#4 v=0
84463 On ch=1 n=g4 v=0
84483 On ch=1 n=d#3 v=0
84510 On ch=1 n=d#5 v=0
84623 On ch=1 n=d5 v=57
84683 On ch=1 n=d5 v=0
84690 On ch=1 n=d#5 v=61
84742 On ch=1 n=d#5 v=0
84763 On ch=1 n=e5 v=64
84783 On ch=1 n=b4 v=41
84783 On ch=1 n=g#4 v=31
84785 Par ch=1 c=64 v=40
84795 Par ch=1 c=64 v=0
84833 On ch=1 n=f#5 v=62
84838 On ch=1 n=e5 v=0
84845 Par ch=1 c=64 v=24
84855 Par ch=1 c=64 v=72
84863 Par ch=1 c=64 v=127
84898 On ch=1 n=f#5 v=0
84910 On ch=1 n=g#5 v=62
84972 On ch=1 n=g#5 v=0
84973 On ch=1 n=a#5 v=65
85040 On ch=1 n=b5 v=68
85043 On ch=1 n=a#5 v=0
85092 On ch=1 n=b5 v=0
85113 On ch=1 n=e5 v=60
85175 On ch=1 n=b4 v=0
85185 On ch=1 n=e5 v=0
85185 On ch=1 n=g#4 v=0
85205 On ch=1 n=d#5 v=60
85213 On ch=1 n=a#4 v=30
85240 On ch=1 n=g4 v=30
85250 Par ch=1 c=64 v=104
85260 Par ch=1 c=64 v=56
85268 Par ch=1 c=64 v=0
85355 Par ch=1 c=64 v=40
85365 Par ch=1 c=64 v=88
85375 Par ch=1 c=64 v=127
85417 On ch=1 n=g4 v=0
85425 On ch=1 n=a#4 v=0
85432 On ch=1 n=d#5 v=0
85545 On ch=1 n=d5 v=55
85597 On ch=1 n=d5 v=0
85608 On ch=1 n=d#5 v=59
85655 On ch=1 n=d#5 v=0
85673 Par ch=1 c=64 v=72
85678 On ch=1 n=e5 v=64
85683 Par ch=1 c=64 v=0
85685 On ch=1 n=b4 v=40
85690 On ch=1 n=g#4 v=41
85743 On ch=1 n=e5 v=0
85745 On ch=1 n=f#5 v=64
85745 Par ch=1 c=64 v=56
85753 Par ch=1 c=64 v=104
85763 Par ch=1 c=64 v=127
85800 On ch=1 n=f#5 v=0
85810 On ch=1 n=g#5 v=64
85862 On ch=1 n=g#5 v=0
85872 On ch=1 n=a#5 v=64
85947 On ch=1 n=b5 v=66
85974 On ch=1 n=a#5 v=0
85999 On ch=1 n=b5 v=0
86017 On ch=1 n=e5 v=68
86082 On ch=1 n=b4 v=0
86084 On ch=1 n=e5 v=0
86089 On ch=1 n=g#4 v=0
86115 On ch=1 n=d#5 v=60
86130 On ch=1 n=a#4 v=42
86145 On ch=1 n=g4 v=48
86147 Par ch=1 c=64 v=104
86155 Par ch=1 c=64 v=88
86165 Par ch=1 c=64 v=40
86172 Par ch=1 c=64 v=0
86277 Par ch=1 c=64 v=24
86287 Par ch=1 c=64 v=72
86295 Par ch=1 c=64 v=104
86305 Par ch=1 c=64 v=127
86340 On ch=1 n=d#5 v=0
86357 On ch=1 n=g4 v=0
86357 On ch=1 n=a#4 v=0
86490 On ch=1 n=c#5 v=56
86540 On ch=1 n=c#5 v=0
86565 On ch=1 n=d5 v=58
86630 On ch=1 n=d5 v=0
86647 On ch=1 n=e5 v=64
86647 Par ch=1 c=64 v=56
86652 On ch=1 n=a4 v=42
86657 On ch=1 n=f#4 v=35
86657 Par ch=1 c=64 v=0
86704 On ch=1 n=e5 v=0
86710 Par ch=1 c=64 v=24
86712 On ch=1 n=f#5 v=63
86717 Par ch=1 c=64 v=72
86727 Par ch=1 c=64 v=104
86735 Par ch=1 c=64 v=127
86767 On ch=1 n=f#5 v=0
86777 On ch=1 n=g5 v=63
86812 Par ch=1 c=64 v=88
86819 Par ch=1 c=64 v=40
86829 On ch=1 n=g5 v=0
86829 Par ch=1 c=64 v=0
86847 On ch=1 n=g#5 v=67
86857 Par ch=1 c=64 v=56
86864 Par ch=1 c=64 v=72
86874 Par ch=1 c=64 v=104
86882 Par ch=1 c=64 v=127
86899 On ch=1 n=g#5 v=0
86929 On ch=1 n=a5 v=64
86984 On ch=1 n=a5 v=0
87014 On ch=1 n=d5 v=60
87076 On ch=1 n=f#4 v=0
87086 On ch=1 n=d5 v=0
87091 On ch=1 n=a4 v=0
87126 On ch=1 n=c#5 v=57
87134 On ch=1 n=g#4 v=36
87151 On ch=1 n=f4 v=37
87171 Par ch=1 c=64 v=104
87179 Par ch=1 c=64 v=72
87189 Par ch=1 c=64 v=24
87196 Par ch=1 c=64 v=0
87294 Par ch=1 c=64 v=40
87301 Par ch=1 c=64 v=88
87311 Par ch=1 c=64 v=127
87393 On ch=1 n=f4 v=0
87396 On ch=1 n=g#4 v=0
87478 On ch=1 n=c#5 v=0
87529 On ch=1 n=b4 v=41
87599 On ch=1 n=b4 v=0
87609 On ch=1 n=c#5 v=50
87696 On ch=1 n=c#5 v=0
87716 On ch=1 n=d5 v=56
87724 On ch=1 n=g4 v=28
87724 On ch=1 n=e4 v=34
87741 Par ch=1 c=64 v=72
87749 Par ch=1 c=64 v=24
87759 Par ch=1 c=64 v=0
87809 On ch=1 n=e5 v=58
87813 On ch=1 n=d5 v=0
87814 Par ch=1 c=64 v=24
87821 Par ch=1 c=64 v=72
87831 Par ch=1 c=64 v=127
87866 On ch=1 n=e5 v=0
87899 On ch=1 n=f5 v=54
87946 On ch=1 n=f5 v=0
87986 On ch=1 n=f#5 v=54
88086 On ch=1 n=f#5 v=0
88101 On ch=1 n=e4 v=0
88121 On ch=1 n=g5 v=58
88129 Par ch=1 c=64 v=104
88136 Par ch=1 c=64 v=24
88146 On ch=1 n=c4 v=42
88146 Par ch=1 c=64 v=0
88191 Par ch=1 c=64 v=40
88201 Par ch=1 c=64 v=88
88209 Par ch=1 c=64 v=127
88216 On ch=1 n=g5 v=0
88239 On ch=1 n=g4 v=0
88256 On ch=1 n=c4 v=0
88256 On ch=1 n=a#4 v=54
88326 On ch=1 n=a#4 v=0
88459 On ch=1 n=a4 v=50
88484 On ch=1 n=f3 v=46
88499 Par ch=1 c=64 v=104
88506 Par ch=1 c=64 v=24
88516 Par ch=1 c=64 v=0
88586 Par ch=1 c=64 v=88
88594 Par ch=1 c=64 v=127
88639 On ch=1 n=f3 v=0
88649 On ch=1 n=a4 v=0
88876 On ch=1 n=c6 v=54
88924 On ch=1 n=c5 v=43
88949 Par ch=1 c=64 v=88
88961 Par ch=1 c=64 v=24
88971 Par ch=1 c=64 v=0
88993 On ch=1 n=c6 v=0
89021 Par ch=1 c=64 v=56
89033 Par ch=1 c=64 v=88
89043 On ch=1 n=c5 v=0
89046 Par ch=1 c=64 v=127
89173 On ch=1 n=c6 v=57
89181 On ch=1 n=c5 v=31
89183 On ch=1 n=a5 v=45
89188 On ch=1 n=f4 v=33
89221 Par ch=1 c=64 v=88
89233 Par ch=1 c=64 v=40
89243 Par ch=1 c=64 v=0
89305 Par ch=1 c=64 v=40
89315 Par ch=1 c=64 v=104
89327 Par ch=1 c=64 v=127
89379 On ch=1 n=f4 v=0
89385 On ch=1 n=c5 v=0
89397 On ch=1 n=a5 v=0
89427 On ch=1 n=c6 v=0
89577 On ch=1 n=c6 v=73
89577 Par ch=1 c=64 v=104
89587 Par ch=1 c=64 v=56
89592 On ch=1 n=a5 v=40
89592 On ch=1 n=c5 v=36
89594 On ch=1 n=f4 v=42
89599 Par ch=1 c=64 v=24
89637 Par ch=1 c=64 v=88
89652 Par ch=1 c=64 v=127
89659 On ch=1 n=a5 v=0
89664 On ch=1 n=f4 v=0
89664 On ch=1 n=c5 v=0
89671 On ch=1 n=c6 v=0
89829 On ch=1 n=e6 v=74
89832 On ch=1 n=a#5 v=46
89847 On ch=1 n=c5 v=32
89849 On ch=1 n=f4 v=39
89859 Par ch=1 c=64 v=72
89871 Par ch=1 c=64 v=0
89974 Par ch=1 c=64 v=88
89986 Par ch=1 c=64 v=127
90011 On ch=1 n=f4 v=0
90039 On ch=1 n=c5 v=0
90051 On ch=1 n=e6 v=0
90081 On ch=1 n=a#5 v=0
90106 On ch=1 n=d6 v=74
90178 On ch=1 n=d6 v=0
90209 Par ch=1 c=64 v=56
90214 On ch=1 n=c6 v=82
90221 On ch=1 n=f4 v=47
90221 Par ch=1 c=64 v=0
90226 On ch=1 n=c5 v=40
90229 On ch=1 n=a#5 v=51
90286 Par ch=1 c=64 v=56
90298 On ch=1 n=f4 v=0
90299 Par ch=1 c=64 v=127
90306 On ch=1 n=c5 v=0
90316 On ch=1 n=a#5 v=0
90318 On ch=1 n=c6 v=0
90456 On ch=1 n=f6 v=82
90466 On ch=1 n=a5 v=56
90473 On ch=1 n=f4 v=43
90473 On ch=1 n=c5 v=42
90481 Par ch=1 c=64 v=72
90493 Par ch=1 c=64 v=24
90503 Par ch=1 c=64 v=0
90605 Par ch=1 c=64 v=72
90615 On ch=1 n=f4 v=0
90618 On ch=1 n=f6 v=0
90618 Par ch=1 c=64 v=127
90627 On ch=1 n=c5 v=0
90628 On ch=1 n=a5 v=0
90853 On ch=1 n=d6 v=75
90863 On ch=1 n=a#4 v=39
90868 On ch=1 n=f5 v=54
90868 Par ch=1 c=64 v=40
90880 Par ch=1 c=64 v=0
90930 Par ch=1 c=64 v=24
90940 Par ch=1 c=64 v=88
90952 On ch=1 n=d6 v=0
90952 Par ch=1 c=64 v=127
90955 On ch=1 n=f5 v=0
90960 On ch=1 n=a#4 v=0
91097 On ch=1 n=c6 v=76
91107 On ch=1 n=a4 v=42
91112 On ch=1 n=f5 v=52
91127 Par ch=1 c=64 v=104
91137 Par ch=1 c=64 v=40
91149 Par ch=1 c=64 v=0
91224 Par ch=1 c=64 v=40
91234 Par ch=1 c=64 v=104
91243 On ch=1 n=a4 v=0
91246 Par ch=1 c=64 v=127
91261 On ch=1 n=c6 v=0
91288 On ch=1 n=f5 v=0
91489 On ch=1 n=a5 v=69
91501 On ch=1 n=e5 v=52
91511 On ch=1 n=c4 v=46
91511 On ch=1 n=a4 v=32
91516 Par ch=1 c=64 v=56
91531 Par ch=1 c=64 v=0
91568 Par ch=1 c=64 v=56
91578 Par ch=1 c=64 v=104
91590 Par ch=1 c=64 v=127
91605 On ch=1 n=a4 v=0
91615 On ch=1 n=c4 v=0
91635 On ch=1 n=e5 v=0
91645 On ch=1 n=a5 v=0
91733 On ch=1 n=f5 v=68
91758 On ch=1 n=d4 v=42
91760 On ch=1 n=c5 v=38
91760 On ch=1 n=a4 v=25
91815 Par ch=1 c=64 v=72
91825 Par ch=1 c=64 v=0
91910 Par ch=1 c=64 v=88
91922 Par ch=1 c=64 v=127
91932 On ch=1 n=a4 v=0
91940 On ch=1 n=d4 v=0
91947 On ch=1 n=f5 v=0
91952 On ch=1 n=c5 v=0
92145 On ch=1 n=g5 v=70
92152 On ch=1 n=a#4 v=43
92162 On ch=1 n=f5 v=54
92169 On ch=1 n=d4 v=43
92172 On ch=1 n=g3 v=49
92172 Par ch=1 c=64 v=104
92184 Par ch=1 c=64 v=24
92194 Par ch=1 c=64 v=0
92233 On ch=1 n=d4 v=0
92241 On ch=1 n=f5 v=0
92244 Par ch=1 c=64 v=56
92254 Par ch=1 c=64 v=127
92258 On ch=1 n=a#4 v=0
92261 On ch=1 n=g5 v=0
92266 On ch=1 n=g3 v=0
92406 On ch=1 n=g5 v=73
92411 On ch=1 n=e5 v=59
92416 On ch=1 n=a#4 v=39
92426 On ch=1 n=c4 v=56
92469 Par ch=1 c=64 v=104
92481 Par ch=1 c=64 v=40
92491 Par ch=1 c=64 v=0
92591 Par ch=1 c=64 v=88
92603 Par ch=1 c=64 v=127
92648 On ch=1 n=c4 v=0
92663 On ch=1 n=e5 v=0
92673 On ch=1 n=a#4 v=0
92841 On ch=1 n=a#4 v=30
92846 On ch=1 n=d5 v=41
92846 On ch=1 n=c4 v=43
92866 Par ch=1 c=64 v=56
92878 Par ch=1 c=64 v=24
92916 Par ch=1 c=64 v=88
92928 Par ch=1 c=64 v=127
92940 On ch=1 n=g5 v=0
92951 On ch=1 n=c4 v=0
92963 On ch=1 n=a#4 v=0
92988 On ch=1 n=d5 v=0
93121 On ch=1 n=a5 v=66
93133 On ch=1 n=f3 v=44
93141 On ch=1 n=c5 v=39
93141 On ch=1 n=f4 v=34
93168 Par ch=1 c=64 v=88
93178 Par ch=1 c=64 v=24
93188 Par ch=1 c=64 v=0
93248 Par ch=1 c=64 v=24
93260 Par ch=1 c=64 v=88
93275 Par ch=1 c=64 v=127
93307 On ch=1 n=f3 v=0
93317 On ch=1 n=a5 v=0
93342 On ch=1 n=f4 v=0
93367 On ch=1 n=c5 v=0
93515 On ch=1 n=a#5 v=63
93530 On ch=1 n=a#3 v=47
93535 Par ch=1 c=64 v=56
93537 On ch=1 n=d5 v=48
93540 On ch=1 n=f4 v=45
93547 Par ch=1 c=64 v=0
93597 Par ch=1 c=64 v=24
93607 Par ch=1 c=64 v=88
93617 On ch=1 n=f4 v=0
93619 Par ch=1 c=64 v=127
93622 On ch=1 n=a#3 v=0
93646 On ch=1 n=d5 v=0
93649 On ch=1 n=a#5 v=0
93764 On ch=1 n=a5 v=68
93784 On ch=1 n=c4 v=53
93784 On ch=1 n=f4 v=38
93784 On ch=1 n=c5 v=45
93809 Par ch=1 c=64 v=88
93819 Par ch=1 c=64 v=0
93894 Par ch=1 c=64 v=56
93904 Par ch=1 c=64 v=127
93973 On ch=1 n=f4 v=0
94013 On ch=1 n=c4 v=0
94033 On ch=1 n=a5 v=0
94078 On ch=1 n=c5 v=0
94186 On ch=1 n=f5 v=59
94191 Par ch=1 c=64 v=72
94201 Par ch=1 c=64 v=0
94203 On ch=1 n=d5 v=39
94208 On ch=1 n=a#3 v=34
94213 On ch=1 n=f4 v=35
94263 Par ch=1 c=64 v=72
94273 Par ch=1 c=64 v=127
94280 On ch=1 n=d5 v=0
94302 On ch=1 n=a#3 v=0
94310 On ch=1 n=f4 v=0
94327 On ch=1 n=f5 v=0
94445 On ch=1 n=a5 v=61
94470 On ch=1 n=c5 v=34
94473 On ch=1 n=c4 v=40
94475 On ch=1 n=f4 v=31
94510 Par ch=1 c=64 v=72
94520 Par ch=1 c=64 v=0
94595 Par ch=1 c=64 v=56
94610 Par ch=1 c=64 v=127
94637 On ch=1 n=c5 v=0
94639 On ch=1 n=a5 v=0
94662 On ch=1 n=c4 v=0
94669 On ch=1 n=f4 v=0
94862 On ch=1 n=a#5 v=54
94870 On ch=1 n=a#4 v=35
94882 Par ch=1 c=64 v=72
94892 Par ch=1 c=64 v=0
94894 On ch=1 n=d4 v=40
94894 On ch=1 n=f4 v=30
94944 Par ch=1 c=64 v=56
94954 Par ch=1 c=64 v=127
94971 On ch=1 n=f4 v=0
94973 On ch=1 n=d4 v=0
94974 On ch=1 n=a#4 v=0
94996 On ch=1 n=a#5 v=0
95164 On ch=1 n=a5 v=58
95179 On ch=1 n=c5 v=36
95184 On ch=1 n=f4 v=27
95186 On ch=1 n=c4 v=38
95216 Par ch=1 c=64 v=56
95226 Par ch=1 c=64 v=0
95301 Par ch=1 c=64 v=56
95313 Par ch=1 c=64 v=127
95441 On ch=1 n=f4 v=0
95453 On ch=1 n=c4 v=0
95471 On ch=1 n=a5 v=0
95623 On ch=1 n=g5 v=54
95706 On ch=1 n=c5 v=0
95715 On ch=1 n=g5 v=0
95833 On ch=1 n=f5 v=48
95851 On ch=1 n=d5 v=39
95856 On ch=1 n=a#3 v=32
95863 On ch=1 n=f4 v=29
95913 Par ch=1 c=64 v=88
95923 Par ch=1 c=64 v=56
95933 Par ch=1 c=64 v=0
96095 Par ch=1 c=64 v=40
96105 Par ch=1 c=64 v=88
96120 Par ch=1 c=64 v=127
96402 On ch=1 n=f4 v=0
96410 On ch=1 n=a#3 v=0
96470 On ch=1 n=d5 v=0
96479 On ch=1 n=f5 v=0
97245 Par ch=1 c=64 v=88
97257 Par ch=1 c=64 v=56
97267 Par ch=1 c=64 v=0
97379 Par ch=1 c=64 v=40
97389 Par ch=1 c=64 v=104
97401 Par ch=1 c=64 v=127
97759 On ch=1 n=c6 v=68
97779 On ch=1 n=e5 v=33
97789 On ch=1 n=c4 v=34
97791 On ch=1 n=a4 v=22
97799 Par ch=1 c=64 v=56
97811 Par ch=1 c=64 v=0
97851 Par ch=1 c=64 v=24
97861 Par ch=1 c=64 v=72
97873 Par ch=1 c=64 v=127
97911 On ch=1 n=c4 v=0
97915 On ch=1 n=a4 v=0
97973 On ch=1 n=c6 v=0
98016 On ch=1 n=e5 v=0
98181 On ch=1 n=a5 v=69
98188 On ch=1 n=d4 v=46
98191 On ch=1 n=f5 v=52
98193 On ch=1 n=a4 v=33
98198 Par ch=1 c=64 v=72
98208 Par ch=1 c=64 v=24
98220 Par ch=1 c=64 v=0
98230 Par ch=1 c=64 v=24
98242 Par ch=1 c=64 v=56
98252 Par ch=1 c=64 v=104
98257 On ch=1 n=f5 v=0
98262 On ch=1 n=a4 v=0
98262 On ch=1 n=d4 v=0
98267 Par ch=1 c=64 v=127
98330 On ch=1 n=a5 v=0
98415 On ch=1 n=c6 v=77
98430 On ch=1 n=a4 v=34
98432 On ch=1 n=e5 v=51
98442 On ch=1 n=e4 v=44
98452 Par ch=1 c=64 v=40
98464 Par ch=1 c=64 v=0
98527 Par ch=1 c=64 v=40
98539 Par ch=1 c=64 v=104
98554 On ch=1 n=e5 v=0
98554 Par ch=1 c=64 v=127
98609 On ch=1 n=e4 v=0
98612 On ch=1 n=a4 v=0
98649 On ch=1 n=c6 v=0
98792 On ch=1 n=d6 v=79
98799 On ch=1 n=d5 v=58
98802 Par ch=1 c=64 v=104
98809 On ch=1 n=a4 v=36
98814 On ch=1 n=f4 v=44
98814 Par ch=1 c=64 v=40
98824 Par ch=1 c=64 v=0
98864 Par ch=1 c=64 v=40
98876 Par ch=1 c=64 v=104
98878 On ch=1 n=d5 v=0
98886 On ch=1 n=a4 v=0
98886 On ch=1 n=d6 v=0
98886 Par ch=1 c=64 v=127
98891 On ch=1 n=f4 v=0
99029 On ch=1 n=c6 v=74
99041 On ch=1 n=a4 v=29
99044 On ch=1 n=e5 v=52
99046 On ch=1 n=e4 v=38
99086 Par ch=1 c=64 v=72
99096 Par ch=1 c=64 v=0
99173 Par ch=1 c=64 v=72
99183 Par ch=1 c=64 v=127
99240 On ch=1 n=a4 v=0
99250 On ch=1 n=c6 v=0
99272 On ch=1 n=e4 v=0
99315 On ch=1 n=e5 v=0
99325 On ch=1 n=b5 v=71
99395 On ch=1 n=b5 v=0
99425 On ch=1 n=a5 v=71
99430 Par ch=1 c=64 v=88
99432 On ch=1 n=a4 v=38
99432 On ch=1 n=f5 v=56
99435 On ch=1 n=d4 v=46
99442 Par ch=1 c=64 v=0
99502 Par ch=1 c=64 v=56
99512 Par ch=1 c=64 v=127
99519 On ch=1 n=f5 v=0
99529 On ch=1 n=a4 v=0
99534 On ch=1 n=d4 v=0
99564 On ch=1 n=a5 v=0
99667 On ch=1 n=c6 v=77
99677 On ch=1 n=a4 v=39
99679 On ch=1 n=e5 v=50
99682 On ch=1 n=e4 v=47
99727 Par ch=1 c=64 v=88
99739 Par ch=1 c=64 v=24
99749 Par ch=1 c=64 v=0
99811 Par ch=1 c=64 v=56
99821 Par ch=1 c=64 v=127
99826 On ch=1 n=e5 v=0
99851 On ch=1 n=a4 v=0
99856 On ch=1 n=e4 v=0
99879 On ch=1 n=c6 v=0
100036 On ch=1 n=d6 v=77
100044 On ch=1 n=d5 v=55
100049 Par ch=1 c=64 v=72
100051 On ch=1 n=a4 v=41
100051 On ch=1 n=f4 v=43
100061 Par ch=1 c=64 v=0
100111 Par ch=1 c=64 v=40
100121 Par ch=1 c=64 v=127
100126 On ch=1 n=a4 v=0
100133 On ch=1 n=f4 v=0
100141 On ch=1 n=d5 v=0
100141 On ch=1 n=d6 v=0
100274 On ch=1 n=c6 v=80
100284 On ch=1 n=e5 v=56
100286 On ch=1 n=a4 v=40
100286 On ch=1 n=e4 v=50
100296 Par ch=1 c=64 v=72
100311 Par ch=1 c=64 v=0
100374 Par ch=1 c=64 v=56
100386 Par ch=1 c=64 v=127
100428 On ch=1 n=e4 v=0
100443 On ch=1 n=a4 v=0
100476 On ch=1 n=c6 v=0
100559 On ch=1 n=e5 v=0
100561 On ch=1 n=b5 v=72
100636 On ch=1 n=b5 v=0
100674 On ch=1 n=a5 v=82
100674 Par ch=1 c=64 v=40
100681 On ch=1 n=e5 v=60
100684 Par ch=1 c=64 v=0
100691 On ch=1 n=c5 v=46
100694 On ch=1 n=e4 v=43
100726 On ch=1 n=e4 v=0
100736 Par ch=1 c=64 v=72
100741 On ch=1 n=a5 v=0
100746 On ch=1 n=c5 v=0
100746 Par ch=1 c=64 v=127
100756 On ch=1 n=e5 v=0
100931 On ch=1 n=b5 v=75
100939 On ch=1 n=d5 v=59
100944 On ch=1 n=a5 v=64
100944 On ch=1 n=e5 v=62
100954 On ch=1 n=e4 v=42
101011 Par ch=1 c=64 v=56
101021 Par ch=1 c=64 v=0
101096 Par ch=1 c=64 v=72
101106 Par ch=1 c=64 v=127
101156 On ch=1 n=e4 v=0
101223 On ch=1 n=e5 v=0
101226 On ch=1 n=d5 v=0
101263 On ch=1 n=a5 v=0
101378 On ch=1 n=g#5 v=50
101388 On ch=1 n=d5 v=41
101393 On ch=1 n=e5 v=45
101395 On ch=1 n=e4 v=48
101418 Par ch=1 c=64 v=24
101428 Par ch=1 c=64 v=0
101485 On ch=1 n=e4 v=0
101505 Par ch=1 c=64 v=88
101515 Par ch=1 c=64 v=127
101540 On ch=1 n=d5 v=0
101549 On ch=1 n=g#5 v=0
101557 On ch=1 n=e5 v=0
101557 On ch=1 n=b5 v=0
101660 On ch=1 n=a5 v=68
101670 On ch=1 n=e5 v=43
101670 On ch=1 n=c5 v=43
101712 On ch=1 n=a3 v=33
101727 Par ch=1 c=64 v=88
101737 Par ch=1 c=64 v=0
101840 Par ch=1 c=64 v=72
101852 Par ch=1 c=64 v=127
101854 On ch=1 n=a3 v=0
101892 On ch=1 n=e5 v=0
101907 On ch=1 n=c5 v=0
102115 On ch=1 n=c5 v=43
102115 On ch=1 n=e5 v=40
102122 On ch=1 n=a3 v=39
102140 Par ch=1 c=64 v=72
102152 Par ch=1 c=64 v=0
102190 Par ch=1 c=64 v=40
102202 Par ch=1 c=64 v=88
102207 On ch=1 n=c5 v=0
102210 On ch=1 n=e5 v=0
102214 On ch=1 n=a3 v=0
102215 Par ch=1 c=64 v=127
102237 On ch=1 n=a5 v=0
102475 On ch=1 n=c6 v=77
102487 On ch=1 n=a5 v=52
102490 On ch=1 n=d#5 v=36
102507 On ch=1 n=f#3 v=43
102552 Par ch=1 c=64 v=56
102562 Par ch=1 c=64 v=0
102649 Par ch=1 c=64 v=72
102659 Par ch=1 c=64 v=127
102691 On ch=1 n=f#3 v=0
102708 On ch=1 n=a5 v=0
102709 On ch=1 n=d#5 v=0
102921 On ch=1 n=a5 v=44
102924 On ch=1 n=d#5 v=38
102934 On ch=1 n=f#3 v=36
103006 On ch=1 n=f#3 v=0
103009 On ch=1 n=d#5 v=0
103046 On ch=1 n=a5 v=0
103094 On ch=1 n=c6 v=0
103139 On ch=1 n=d5 v=54
103159 Par ch=1 c=64 v=24
103169 On ch=1 n=g3 v=43
103171 Par ch=1 c=64 v=0
103204 On ch=1 n=g5 v=54
103234 Par ch=1 c=64 v=40
103239 On ch=1 n=c6 v=64
103246 Par ch=1 c=64 v=104
103261 Par ch=1 c=64 v=127
103329 On ch=1 n=c6 v=0
103329 On ch=1 n=a#5 v=71
103371 Par ch=1 c=64 v=72
103381 Par ch=1 c=64 v=0
103446 On ch=1 n=g5 v=0
103456 Par ch=1 c=64 v=72
103468 Par ch=1 c=64 v=127
103498 On ch=1 n=a#5 v=0
103518 On ch=1 n=d5 v=0
103536 On ch=1 n=g3 v=0
103686 On ch=1 n=f#5 v=40
103686 On ch=1 n=a3 v=47
103686 On ch=1 n=a5 v=63
103686 On ch=1 n=c5 v=47
103728 On ch=1 n=f#5 v=0
103733 On ch=1 n=c5 v=0
103771 On ch=1 n=a5 v=0
103773 On ch=1 n=a3 v=0
103811 On ch=1 n=g5 v=66
103823 On ch=1 n=a#3 v=50
103831 On ch=1 n=d5 v=51
103843 Par ch=1 c=64 v=88
103853 Par ch=1 c=64 v=0
103943 Par ch=1 c=64 v=88
103955 Par ch=1 c=64 v=127
103970 On ch=1 n=d5 v=0
104000 On ch=1 n=g5 v=0
104055 On ch=1 n=a#3 v=0
104073 On ch=1 n=a5 v=68
104083 On ch=1 n=a#4 v=32
104085 On ch=1 n=c4 v=55
104095 On ch=1 n=e5 v=40
104128 Par ch=1 c=64 v=104
104143 Par ch=1 c=64 v=0
104218 Par ch=1 c=64 v=40
104230 Par ch=1 c=64 v=104
104240 Par ch=1 c=64 v=127
104269 On ch=1 n=c4 v=0
104289 On ch=1 n=e5 v=0
104292 On ch=1 n=a#4 v=0
104502 Par ch=1 c=64 v=72
104507 On ch=1 n=e5 v=44
104510 On ch=1 n=a#4 v=34
104515 Par ch=1 c=64 v=0
104520 On ch=1 n=c3 v=37
104520 On ch=1 n=c4 v=41
104550 Par ch=1 c=64 v=88
104565 Par ch=1 c=64 v=127
104587 On ch=1 n=e5 v=0
104620 On ch=1 n=c3 v=0
104627 On ch=1 n=a#4 v=0
104630 On ch=1 n=a5 v=0
104640 On ch=1 n=c4 v=0
104807 On ch=1 n=f5 v=59
104812 On ch=1 n=a4 v=38
104820 On ch=1 n=f3 v=31
104837 On ch=1 n=c4 v=33
104852 Par ch=1 c=64 v=72
104862 Par ch=1 c=64 v=0
104947 Par ch=1 c=64 v=88
104959 Par ch=1 c=64 v=127
104982 On ch=1 n=f3 v=0
104991 On ch=1 n=c4 v=0
105001 On ch=1 n=a4 v=0
105247 On ch=1 n=a4 v=42
105254 On ch=1 n=f3 v=39
105319 On ch=1 n=a4 v=0
105336 On ch=1 n=f3 v=0
105346 On ch=1 n=f5 v=0
105644 On ch=1 n=c6 v=66
105659 On ch=1 n=a5 v=48
105659 On ch=1 n=f#3 v=40
105664 On ch=1 n=d#5 v=29
105721 Par ch=1 c=64 v=88
105731 Par ch=1 c=64 v=0
105818 Par ch=1 c=64 v=56
105828 Par ch=1 c=64 v=127
105870 On ch=1 n=f#3 v=0
105900 On ch=1 n=d#5 v=0
105930 On ch=1 n=a5 v=0
106073 On ch=1 n=d#5 v=37
106075 On ch=1 n=a5 v=39
106085 On ch=1 n=f#3 v=26
106167 On ch=1 n=f#3 v=0
106185 On ch=1 n=d#5 v=0
106270 On ch=1 n=a5 v=0
106290 On ch=1 n=c6 v=0
106300 Par ch=1 c=64 v=104
106310 On ch=1 n=d5 v=55
106312 Par ch=1 c=64 v=0
106317 On ch=1 n=g3 v=41
106375 Par ch=1 c=64 v=24
106387 Par ch=1 c=64 v=88
106390 On ch=1 n=g5 v=53
106400 Par ch=1 c=64 v=127
106445 On ch=1 n=c6 v=62
106527 On ch=1 n=c6 v=0
106532 On ch=1 n=a#5 v=59
106580 On ch=1 n=g5 v=0
106600 Par ch=1 c=64 v=40
106612 Par ch=1 c=64 v=0
106675 Par ch=1 c=64 v=56
106687 Par ch=1 c=64 v=127
106709 On ch=1 n=a#5 v=0
106750 On ch=1 n=d5 v=0
106779 On ch=1 n=g3 v=0
106912 On ch=1 n=a5 v=58
106912 On ch=1 n=f#5 v=38
106912 On ch=1 n=c5 v=41
106912 On ch=1 n=a3 v=47
106922 Par ch=1 c=64 v=104
106937 Par ch=1 c=64 v=72
106947 Par ch=1 c=64 v=88
106959 Par ch=1 c=64 v=127
106961 On ch=1 n=c5 v=0
106981 On ch=1 n=f#5 v=0
106989 On ch=1 n=a3 v=0
106996 On ch=1 n=a5 v=0
107039 On ch=1 n=g5 v=61
107049 On ch=1 n=d5 v=56
107051 On ch=1 n=a#3 v=44
107094 Par ch=1 c=64 v=24
107109 Par ch=1 c=64 v=0
107181 Par ch=1 c=64 v=88
107186 On ch=1 n=g5 v=0
107191 Par ch=1 c=64 v=127
107196 On ch=1 n=d5 v=0
107306 On ch=1 n=a#3 v=0
107311 On ch=1 n=a5 v=65
107316 On ch=1 n=a#4 v=34
107331 On ch=1 n=e5 v=47
107334 On ch=1 n=c4 v=54
107369 Par ch=1 c=64 v=72
107381 Par ch=1 c=64 v=0
107469 Par ch=1 c=64 v=72
107481 Par ch=1 c=64 v=127
107516 On ch=1 n=e5 v=0
107523 On ch=1 n=a#4 v=0
107554 On ch=1 n=c4 v=0
107749 On ch=1 n=c4 v=74
107749 On ch=1 n=e5 v=41
107754 On ch=1 n=a#4 v=26
107759 Par ch=1 c=64 v=72
107771 Par ch=1 c=64 v=0
107783 On ch=1 n=a5 v=0
107804 Par ch=1 c=64 v=56
107816 Par ch=1 c=64 v=104
107826 Par ch=1 c=64 v=127
107873 On ch=1 n=e5 v=0
107883 On ch=1 n=a#4 v=0
107888 On ch=1 n=c4 v=0
108048 On ch=1 n=c4 v=66
108058 On ch=1 n=f#5 v=57
108058 On ch=1 n=a4 v=39
108065 On ch=1 n=d#5 v=48
108125 Par ch=1 c=64 v=56
108135 Par ch=1 c=64 v=0
108210 Par ch=1 c=64 v=40
108222 Par ch=1 c=64 v=104
108232 Par ch=1 c=64 v=127
108382 On ch=1 n=a#3 v=55
108397 On ch=1 n=c4 v=0
108444 Par ch=1 c=64 v=56
108454 Par ch=1 c=64 v=0
108487 On ch=1 n=a#3 v=0
108499 On ch=1 n=a3 v=74
108647 Par ch=1 c=64 v=56
108659 Par ch=1 c=64 v=104
108669 Par ch=1 c=64 v=127
108676 On ch=1 n=a4 v=0
108726 On ch=1 n=a3 v=0
108751 On ch=1 n=c5 v=42
108758 On ch=1 n=d#5 v=0
108761 On ch=1 n=d#4 v=57
108779 Par ch=1 c=64 v=24
108791 Par ch=1 c=64 v=0
108854 Par ch=1 c=64 v=72
108866 Par ch=1 c=64 v=127
108941 On ch=1 n=d#4 v=0
109146 On ch=1 n=d#4 v=65
109209 On ch=1 n=f#5 v=0
109271 On ch=1 n=c5 v=0
109288 On ch=1 n=d#4 v=0
109399 On ch=1 n=f#5 v=57
109401 On ch=1 n=d#5 v=50
109411 On ch=1 n=a4 v=46
109421 On ch=1 n=c4 v=62
109426 Par ch=1 c=64 v=104
109438 Par ch=1 c=64 v=24
109448 Par ch=1 c=64 v=0
109550 Par ch=1 c=64 v=88
109560 Par ch=1 c=64 v=127
109685 On ch=1 n=c4 v=0
109702 On ch=1 n=a#3 v=48
109770 Par ch=1 c=64 v=56
109782 Par ch=1 c=64 v=0
109787 On ch=1 n=a#3 v=0
109810 On ch=1 n=a3 v=66
109885 Par ch=1 c=64 v=72
109897 Par ch=1 c=64 v=104
109907 Par ch=1 c=64 v=127
110037 On ch=1 n=a3 v=0
110059 On ch=1 n=a4 v=0
110064 On ch=1 n=d#4 v=50
110067 On ch=1 n=c5 v=48
110084 On ch=1 n=d#5 v=0
110132 Par ch=1 c=64 v=88
110144 Par ch=1 c=64 v=24
110154 Par ch=1 c=64 v=0
110229 Par ch=1 c=64 v=40
110241 Par ch=1 c=64 v=127
110256 On ch=1 n=d#4 v=0
110469 On ch=1 n=d#4 v=56
110494 On ch=1 n=f#5 v=0
110604 On ch=1 n=c5 v=0
110641 On ch=1 n=d#4 v=0
110779 On ch=1 n=f#5 v=58
110781 On ch=1 n=g#4 v=46
110784 On ch=1 n=d#5 v=46
110799 On ch=1 n=c4 v=55
110829 Par ch=1 c=64 v=104
110841 Par ch=1 c=64 v=0
110941 Par ch=1 c=64 v=56
110951 Par ch=1 c=64 v=104
110961 Par ch=1 c=64 v=127
111111 On ch=1 n=c4 v=0
111196 On ch=1 n=a#3 v=43
111303 On ch=1 n=a#3 v=0
111345 On ch=1 n=g#4 v=0
111371 On ch=1 n=g#3 v=39
111388 Par ch=1 c=64 v=104
111398 Par ch=1 c=64 v=40
111410 Par ch=1 c=64 v=0
111473 Par ch=1 c=64 v=24
111475 On ch=1 n=d#5 v=0
111485 Par ch=1 c=64 v=88
111495 Par ch=1 c=64 v=127
111750 On ch=1 n=a#4 v=38
111760 On ch=1 n=c5 v=25
111845 Par ch=1 c=64 v=72
111857 Par ch=1 c=64 v=0
111945 Par ch=1 c=64 v=40
111957 Par ch=1 c=64 v=127
112035 On ch=1 n=a#4 v=0
112042 On ch=1 n=c5 v=0
112175 On ch=1 n=a#4 v=42
112282 On ch=1 n=a#4 v=0
112390 On ch=1 n=c#5 v=48
112415 On ch=1 n=a#4 v=37
112495 Par ch=1 c=64 v=88
112507 Par ch=1 c=64 v=0
112552 On ch=1 n=f#5 v=0
112557 Par ch=1 c=64 v=24
112567 Par ch=1 c=64 v=88
112579 Par ch=1 c=64 v=127
112604 On ch=1 n=a#4 v=0
112769 On ch=1 n=f5 v=63
112772 On ch=1 n=g#4 v=42
112804 On ch=1 n=c#5 v=0
112904 On ch=1 n=f5 v=0
112942 On ch=1 n=g#4 v=0
113002 On ch=1 n=a#5 v=62
113019 On ch=1 n=d#5 v=44
113019 On ch=1 n=c5 v=41
113029 On ch=1 n=f#4 v=46
113067 Par ch=1 c=64 v=88
113079 Par ch=1 c=64 v=0
113169 Par ch=1 c=64 v=104
113179 On ch=1 n=f#4 v=0
113179 Par ch=1 c=64 v=127
113204 On ch=1 n=a#5 v=0
113367 On ch=1 n=a#5 v=73
113379 On ch=1 n=f#4 v=46
113426 On ch=1 n=c5 v=0
113469 On ch=1 n=f#4 v=0
113479 On ch=1 n=a#5 v=0
113538 On ch=1 n=d#5 v=0
113581 On ch=1 n=a#5 v=71
113604 On ch=1 n=c#5 v=39
113604 On ch=1 n=f#4 v=38
113664 Par ch=1 c=64 v=40
113676 Par ch=1 c=64 v=0
113754 Par ch=1 c=64 v=40
113766 Par ch=1 c=64 v=104
113776 Par ch=1 c=64 v=127
113858 On ch=1 n=a#5 v=0
113863 On ch=1 n=f#4 v=0
113928 On ch=1 n=g#5 v=74
113958 On ch=1 n=f4 v=47
113963 On ch=1 n=g#3 v=0
114003 On ch=1 n=c#5 v=0
114013 On ch=1 n=g#5 v=0
114040 On ch=1 n=f4 v=0
114083 On ch=1 n=g#3 v=35
114161 On ch=1 n=f#5 v=72
114176 On ch=1 n=c5 v=56
114183 On ch=1 n=a#4 v=39
114198 Par ch=1 c=64 v=72
114208 Par ch=1 c=64 v=0
114283 Par ch=1 c=64 v=40
114295 Par ch=1 c=64 v=127
114338 On ch=1 n=f#5 v=0
114375 On ch=1 n=a#4 v=0
114500 On ch=1 n=c5 v=0
114510 On ch=1 n=f#5 v=73
114533 On ch=1 n=a#4 v=34
114607 On ch=1 n=f#5 v=0
114635 On ch=1 n=a#4 v=0
114725 On ch=1 n=f#5 v=76
114745 On ch=1 n=c#5 v=47
114750 On ch=1 n=a#4 v=37
114783 Par ch=1 c=64 v=72
114795 Par ch=1 c=64 v=0
114870 Par ch=1 c=64 v=88
114880 Par ch=1 c=64 v=127
114892 On ch=1 n=a#4 v=0
114992 On ch=1 n=f#5 v=0
115067 On ch=1 n=f5 v=79
115077 On ch=1 n=g#4 v=48
115087 On ch=1 n=c#5 v=0
115144 On ch=1 n=g#4 v=0
115169 On ch=1 n=f5 v=0
115292 On ch=1 n=a#5 v=78
115302 On ch=1 n=f#4 v=37
115310 On ch=1 n=b4 v=53
115312 On ch=1 n=d#5 v=46
115342 Par ch=1 c=64 v=56
115357 Par ch=1 c=64 v=0
115430 Par ch=1 c=64 v=56
115442 Par ch=1 c=64 v=127
115444 On ch=1 n=a#5 v=0
115492 On ch=1 n=f#4 v=0
115665 On ch=1 n=f#4 v=40
115667 On ch=1 n=a#5 v=74
115694 On ch=1 n=d#5 v=0
115735 On ch=1 n=b4 v=0
115767 On ch=1 n=a#5 v=0
115785 On ch=1 n=f#4 v=0
115955 On ch=1 n=a#5 v=61
115967 On ch=1 n=d5 v=47
115967 On ch=1 n=b4 v=40
115975 On ch=1 n=f#4 v=29
116032 Par ch=1 c=64 v=88
116042 Par ch=1 c=64 v=0
116114 Par ch=1 c=64 v=104
116129 Par ch=1 c=64 v=127
116264 On ch=1 n=f#4 v=0
116284 On ch=1 n=a#5 v=0
116377 On ch=1 n=g#5 v=55
116409 On ch=1 n=f4 v=42
116427 Par ch=1 c=64 v=24
116431 On ch=1 n=b4 v=0
116439 Par ch=1 c=64 v=0
116481 On ch=1 n=d5 v=0
116492 Par ch=1 c=64 v=24
116504 Par ch=1 c=64 v=88
116514 Par ch=1 c=64 v=127
116526 On ch=1 n=g#3 v=0
116538 On ch=1 n=f4 v=0
116721 On ch=1 n=d5 v=37
116726 On ch=1 n=b4 v=58
116754 On ch=1 n=g#5 v=0
116789 Par ch=1 c=64 v=24
116801 Par ch=1 c=64 v=0
116864 Par ch=1 c=64 v=72
116876 Par ch=1 c=64 v=127
116971 On ch=1 n=b4 v=0
117104 On ch=1 n=b4 v=68
117318 On ch=1 n=d5 v=0
117361 On ch=1 n=b4 v=0
117361 On ch=1 n=g#4 v=60
117364 On ch=1 n=f5 v=38
117369 On ch=1 n=b5 v=51
117414 Par ch=1 c=64 v=104
117426 Par ch=1 c=64 v=24
117436 Par ch=1 c=64 v=0
117498 Par ch=1 c=64 v=88
117508 Par ch=1 c=64 v=127
117595 On ch=1 n=g#4 v=0
117618 On ch=1 n=f#4 v=61
117700 On ch=1 n=f#4 v=0
117720 On ch=1 n=f4 v=67
117793 On ch=1 n=b5 v=0
117800 On ch=1 n=f5 v=0
117945 On ch=1 n=g#5 v=55
117947 On ch=1 n=f4 v=0
117963 On ch=1 n=b4 v=73
117963 On ch=1 n=d5 v=49
117970 Par ch=1 c=64 v=104
117980 Par ch=1 c=64 v=56
117992 Par ch=1 c=64 v=0
118105 Par ch=1 c=64 v=88
118117 Par ch=1 c=64 v=127
118172 On ch=1 n=b4 v=0
118352 Par ch=1 c=64 v=88
118362 On ch=1 n=b4 v=58
118362 Par ch=1 c=64 v=40
118377 Par ch=1 c=64 v=0
118402 Par ch=1 c=64 v=56
118414 Par ch=1 c=64 v=104
118424 Par ch=1 c=64 v=127
118539 On ch=1 n=d5 v=0
118614 On ch=1 n=b4 v=0
118616 On ch=1 n=g#5 v=0
118666 On ch=1 n=g#4 v=42
118669 On ch=1 n=f5 v=38
118676 On ch=1 n=b5 v=39
118736 Par ch=1 c=64 v=88
118746 Par ch=1 c=64 v=24
118758 Par ch=1 c=64 v=0
118833 Par ch=1 c=64 v=56
118848 Par ch=1 c=64 v=127
118946 On ch=1 n=f5 v=0
118963 On ch=1 n=g#4 v=0
119113 On ch=1 n=c#4 v=54
119161 Par ch=1 c=64 v=72
119173 Par ch=1 c=64 v=0
119233 Par ch=1 c=64 v=72
119243 Par ch=1 c=64 v=127
119350 On ch=1 n=d#5 v=65
119380 Par ch=1 c=64 v=56
119390 Par ch=1 c=64 v=0
119415 Par ch=1 c=64 v=24
119427 Par ch=1 c=64 v=72
119437 Par ch=1 c=64 v=127
119521 On ch=1 n=d#5 v=0
119684 On ch=1 n=d#5 v=68
119699 Par ch=1 c=64 v=88
119709 Par ch=1 c=64 v=24
119721 Par ch=1 c=64 v=0
119731 Par ch=1 c=64 v=40
119743 Par ch=1 c=64 v=88
119758 Par ch=1 c=64 v=127
119820 On ch=1 n=d#5 v=0
119898 On ch=1 n=b5 v=0
119908 On ch=1 n=f#5 v=50
119918 On ch=1 n=d#5 v=53
119965 Par ch=1 c=64 v=104
119975 Par ch=1 c=64 v=24
119987 Par ch=1 c=64 v=0
120025 Par ch=1 c=64 v=24
120040 Par ch=1 c=64 v=88
120052 Par ch=1 c=64 v=127
120090 On ch=1 n=d#5 v=0
120235 On ch=1 n=a#5 v=77
120237 Par ch=1 c=64 v=104
120245 On ch=1 n=c#5 v=48
120250 Par ch=1 c=64 v=56
120274 On ch=1 n=f#5 v=0
120284 Par ch=1 c=64 v=127
120342 On ch=1 n=c#5 v=0
120417 On ch=1 n=a#5 v=0
120454 On ch=1 n=d#6 v=79
120472 On ch=1 n=g#5 v=55
120472 On ch=1 n=b4 v=52
120477 On ch=1 n=f5 v=53
120497 Par ch=1 c=64 v=104
120509 Par ch=1 c=64 v=24
120519 Par ch=1 c=64 v=0
120569 Par ch=1 c=64 v=56
120581 Par ch=1 c=64 v=127
120631 On ch=1 n=d#6 v=0
120641 On ch=1 n=b4 v=0
120784 On ch=1 n=d#6 v=82
120796 On ch=1 n=f5 v=0
120806 On ch=1 n=b4 v=42
120841 On ch=1 n=g#5 v=0
120848 On ch=1 n=b4 v=0
120873 On ch=1 n=d#6 v=0
121006 On ch=1 n=d#6 v=72
121023 On ch=1 n=f#5 v=53
121031 On ch=1 n=b4 v=43
121041 Par ch=1 c=64 v=104
121056 Par ch=1 c=64 v=24
121068 Par ch=1 c=64 v=0
121128 Par ch=1 c=64 v=88
121138 Par ch=1 c=64 v=127
121235 On ch=1 n=b4 v=0
121245 On ch=1 n=d#6 v=0
121322 On ch=1 n=c#4 v=0
121322 On ch=1 n=a#4 v=38
121325 On ch=1 n=c#6 v=80
121367 On ch=1 n=f#5 v=0
121410 On ch=1 n=c#6 v=0
121419 On ch=1 n=a#4 v=0
121455 On ch=1 n=c#4 v=46
121562 On ch=1 n=b5 v=80
121572 On ch=1 n=f5 v=60
121572 On ch=1 n=d#5 v=56
121575 Par ch=1 c=64 v=88
121587 Par ch=1 c=64 v=24
121597 Par ch=1 c=64 v=0
121659 Par ch=1 c=64 v=40
121669 Par ch=1 c=64 v=104
121681 Par ch=1 c=64 v=127
121696 On ch=1 n=b5 v=0
121726 On ch=1 n=d#5 v=0
121871 On ch=1 n=f5 v=0
121879 On ch=1 n=b5 v=82
121886 On ch=1 n=d#5 v=61
121961 On ch=1 n=b5 v=0
121963 On ch=1 n=d#5 v=0
122096 On ch=1 n=b5 v=75
122101 On ch=1 n=f#5 v=54
122109 On ch=1 n=d#5 v=49
122144 Par ch=1 c=64 v=104
122156 Par ch=1 c=64 v=0
122216 On ch=1 n=d#5 v=0
122231 Par ch=1 c=64 v=56
122241 Par ch=1 c=64 v=127
122393 On ch=1 n=b5 v=0
122428 On ch=1 n=a#5 v=75
122430 On ch=1 n=f#5 v=0
122441 Par ch=1 c=64 v=88
122448 On ch=1 n=c#5 v=48
122453 Par ch=1 c=64 v=0
122491 Par ch=1 c=64 v=40
122503 Par ch=1 c=64 v=72
122513 Par ch=1 c=64 v=127
122525 On ch=1 n=c#5 v=0
122530 On ch=1 n=a#5 v=0
122658 On ch=1 n=d#6 v=83
122670 On ch=1 n=g#5 v=55
122673 On ch=1 n=b4 v=57
122675 On ch=1 n=f5 v=58
122698 Par ch=1 c=64 v=104
122710 Par ch=1 c=64 v=24
122725 Par ch=1 c=64 v=0
122775 Par ch=1 c=64 v=24
122785 Par ch=1 c=64 v=104
122797 Par ch=1 c=64 v=127
122807 On ch=1 n=b4 v=0
122807 On ch=1 n=d#6 v=0
122989 On ch=1 n=g#5 v=0
122999 On ch=1 n=d#6 v=89
123014 On ch=1 n=b4 v=55
123046 On ch=1 n=f5 v=0
123089 On ch=1 n=b4 v=0
123111 On ch=1 n=d#6 v=0
123232 On ch=1 n=d#6 v=85
123247 On ch=1 n=e5 v=67
123249 On ch=1 n=g5 v=64
123274 On ch=1 n=b4 v=46
123307 Par ch=1 c=64 v=24
123319 Par ch=1 c=64 v=0
123382 Par ch=1 c=64 v=40
123394 Par ch=1 c=64 v=127
123572 On ch=1 n=d#6 v=0
123604 On ch=1 n=c#6 v=79
123604 On ch=1 n=a#4 v=51
123606 On ch=1 n=g5 v=0
123607 Par ch=1 c=64 v=104
123616 On ch=1 n=b4 v=0
123622 Par ch=1 c=64 v=40
123629 On ch=1 n=c#4 v=0
123639 On ch=1 n=e5 v=0
123671 On ch=1 n=c#6 v=0
123723 On ch=1 n=a#4 v=0
123816 Par ch=1 c=64 v=104
123826 On ch=1 n=g6 v=87
123826 On ch=1 n=g5 v=75
123826 On ch=1 n=c#6 v=72
123828 Par ch=1 c=64 v=40
123836 On ch=1 n=e5 v=60
123838 Par ch=1 c=64 v=0
123843 On ch=1 n=a#5 v=50
123858 On ch=1 n=e4 v=42
123863 On ch=1 n=a#5 v=0
123873 On ch=1 n=g5 v=0
123888 Par ch=1 c=64 v=24
123890 On ch=1 n=e4 v=0
123898 On ch=1 n=g6 v=0
123900 Par ch=1 c=64 v=104
123903 On ch=1 n=c#6 v=0
123913 Par ch=1 c=64 v=127
124023 On ch=1 n=e5 v=0
124075 On ch=1 n=g#6 v=84
124075 On ch=1 n=g#5 v=76
124075 On ch=1 n=c#6 v=47
124095 On ch=1 n=c#6 v=0
124107 On ch=1 n=g#6 v=0
124117 On ch=1 n=g#5 v=0
124125 Par ch=1 c=64 v=104
124135 Par ch=1 c=64 v=40
124145 On ch=1 n=c#6 v=67
124145 Par ch=1 c=64 v=0
124152 On ch=1 n=a6 v=85
124152 On ch=1 n=a5 v=74
124155 On ch=1 n=e5 v=68
124160 Par ch=1 c=64 v=24
124172 Par ch=1 c=64 v=56
124174 On ch=1 n=a5 v=0
124175 On ch=1 n=e4 v=41
124185 Par ch=1 c=64 v=88
124192 On ch=1 n=e5 v=0
124192 On ch=1 n=c#6 v=0
124197 Par ch=1 c=64 v=127
124202 On ch=1 n=a6 v=0
124205 On ch=1 n=e4 v=0
124335 Par ch=1 c=64 v=56
124347 Par ch=1 c=64 v=40
124357 On ch=1 n=a#6 v=81
124357 On ch=1 n=c#5 v=73
124357 On ch=1 n=a#5 v=72
124357 Par ch=1 c=64 v=56
124362 On ch=1 n=c#4 v=75
124362 On ch=1 n=g6 v=76
124369 On ch=1 n=e6 v=69
124369 Par ch=1 c=64 v=104
124379 Par ch=1 c=64 v=127
124388 On ch=1 n=e6 v=0
124398 On ch=1 n=c#5 v=0
124406 On ch=1 n=c#4 v=0
124448 On ch=1 n=g6 v=0
124453 On ch=1 n=a#5 v=0
124453 On ch=1 n=a#6 v=0
124568 On ch=1 n=b6 v=73
124568 On ch=1 n=g6 v=61
124573 On ch=1 n=b5 v=48
124581 On ch=1 n=b4 v=60
124586 On ch=1 n=e6 v=40
124588 On ch=1 n=b6 v=0
124590 On ch=1 n=g6 v=0
124596 On ch=1 n=b3 v=44
124598 On ch=1 n=b5 v=0
124601 On ch=1 n=b4 v=0
124608 On ch=1 n=e6 v=0
124618 On ch=1 n=b3 v=0
124626 Par ch=1 c=64 v=88
124638 Par ch=1 c=64 v=0
124643 On ch=1 n=g6 v=72
124643 On ch=1 n=c7 v=89
124648 On ch=1 n=e6 v=81
124648 On ch=1 n=b5 v=68
124648 On ch=1 n=c6 v=66
124653 On ch=1 n=a#4 v=68
124656 On ch=1 n=a#3 v=76
124663 Par ch=1 c=64 v=24
124668 On ch=1 n=e6 v=0
124670 On ch=1 n=b5 v=0
124673 Par ch=1 c=64 v=72
124678 On ch=1 n=a#3 v=0
124678 On ch=1 n=c6 v=0
124686 Par ch=1 c=64 v=127
124688 On ch=1 n=g6 v=0
124693 On ch=1 n=a#4 v=0
124710 On ch=1 n=c7 v=0
124831 On ch=1 n=c#7 v=96
124833 On ch=1 n=c#6 v=89
124836 On ch=1 n=a#6 v=75
124841 Par ch=1 c=64 v=40
124848 On ch=1 n=g5 v=81
124851 On ch=1 n=g4 v=77
124853 Par ch=1 c=64 v=0
124878 Par ch=1 c=64 v=72
124888 Par ch=1 c=64 v=127
124910 On ch=1 n=g4 v=0
124932 On ch=1 n=c#6 v=0
124935 On ch=1 n=a#6 v=0
124940 On ch=1 n=c#7 v=0
124990 On ch=1 n=g5 v=0
125050 On ch=1 n=d7 v=74
125053 On ch=1 n=a#6 v=48
125055 On ch=1 n=d6 v=55
125072 On ch=1 n=d7 v=0
125075 On ch=1 n=a#6 v=0
125080 On ch=1 n=d6 v=0
125118 On ch=1 n=g5 v=82
125120 On ch=1 n=d#7 v=97
125120 On ch=1 n=d#6 v=90
125125 Par ch=1 c=64 v=88
125128 On ch=1 n=g4 v=71
125135 Par ch=1 c=64 v=40
125145 Par ch=1 c=64 v=56
125147 On ch=1 n=g4 v=0
125155 On ch=1 n=g5 v=0
125160 Par ch=1 c=64 v=104
125172 Par ch=1 c=64 v=127
125197 On ch=1 n=d#6 v=0
125249 On ch=1 n=d#7 v=0
125307 Par ch=1 c=64 v=72
125310 On ch=1 n=e7 v=102
125310 On ch=1 n=c#7 v=84
125315 On ch=1 n=a#6 v=77
125317 On ch=1 n=e6 v=89
125320 Par ch=1 c=64 v=24
125322 On ch=1 n=e5 v=81
125327 On ch=1 n=e4 v=72
125332 Par ch=1 c=64 v=56
125342 Par ch=1 c=64 v=104
125354 Par ch=1 c=64 v=127
125386 On ch=1 n=e4 v=0
125386 On ch=1 n=e5 v=0
125386 On ch=1 n=e6 v=0
125412 On ch=1 n=e7 v=0
125447 On ch=1 n=a#6 v=0
125447 On ch=1 n=c#7 v=0
125509 On ch=1 n=f7 v=94
125514 On ch=1 n=f6 v=73
125514 On ch=1 n=d5 v=67
125532 On ch=1 n=d4 v=58
125536 On ch=1 n=f6 v=0
125544 On ch=1 n=d5 v=0
125549 On ch=1 n=f7 v=0
125552 On ch=1 n=d4 v=0
125567 Par ch=1 c=64 v=56
125579 On ch=1 n=c#4 v=82
125579 Par ch=1 c=64 v=0
125582 On ch=1 n=f#6 v=95
125584 On ch=1 n=f#7 v=93
125602 On ch=1 n=g#7 v=32
125604 On ch=1 n=c#5 v=36
125614 Par ch=1 c=64 v=88
125616 On ch=1 n=c#4 v=0
125621 On ch=1 n=g#7 v=0
125623 On ch=1 n=c#5 v=0
125626 Par ch=1 c=64 v=127
125634 On ch=1 n=f#6 v=0
125701 On ch=1 n=f#7 v=0
125766 Par ch=1 c=64 v=40
125769 On ch=1 n=g7 v=105
125771 On ch=1 n=g6 v=97
125774 On ch=1 n=c#6 v=99
125774 On ch=1 n=d#7 v=79
125779 On ch=1 n=c#5 v=76
125779 Par ch=1 c=64 v=24
125791 Par ch=1 c=64 v=72
125801 On ch=1 n=c#5 v=0
125804 On ch=1 n=c#6 v=0
125804 Par ch=1 c=64 v=127
125813 On ch=1 n=g6 v=0
125861 On ch=1 n=g7 v=0
125866 On ch=1 n=d#7 v=0
125986 On ch=1 n=g#7 v=102
125991 On ch=1 n=g#6 v=81
125994 On ch=1 n=d#7 v=65
126011 On ch=1 n=g#6 v=0
126016 On ch=1 n=d#7 v=0
126018 On ch=1 n=g#7 v=0
126066 On ch=1 n=a7 v=100
126069 On ch=1 n=g4 v=92
126069 On ch=1 n=a6 v=95
126074 On ch=1 n=g3 v=85
126076 On ch=1 n=d#7 v=71
126076 Par ch=1 c=64 v=40
126091 Par ch=1 c=64 v=24
126101 On ch=1 n=d#7 v=0
126104 Par ch=1 c=64 v=56
126114 On ch=1 n=g4 v=0
126116 On ch=1 n=a6 v=0
126116 Par ch=1 c=64 v=104
126119 On ch=1 n=g3 v=0
126129 Par ch=1 c=64 v=127
126161 On ch=1 n=a7 v=0
126251 Par ch=1 c=64 v=104
126261 On ch=1 n=a#7 v=100
126263 Par ch=1 c=64 v=40
126266 On ch=1 n=a#6 v=92
126266 On ch=1 n=d#7 v=85
126273 Par ch=1 c=64 v=0
126278 On ch=1 n=g4 v=93
126283 On ch=1 n=g3 v=83
126288 Par ch=1 c=64 v=56
126298 Par ch=1 c=64 v=127
126315 On ch=1 n=g4 v=0
126323 On ch=1 n=a#7 v=0
126325 On ch=1 n=g3 v=0
126325 On ch=1 n=d#7 v=0
126328 On ch=1 n=a#6 v=0
126523 On ch=1 n=f6 v=96
126525 On ch=1 n=f5 v=80
126528 On ch=1 n=f4 v=74
126533 On ch=1 n=f3 v=79
126550 On ch=1 n=f4 v=0
126550 On ch=1 n=f5 v=0
126565 On ch=1 n=f3 v=0
126568 On ch=1 n=f6 v=0
126608 On ch=1 n=d#5 v=102
126608 On ch=1 n=d#6 v=95
126623 On ch=1 n=d#4 v=97
126623 On ch=1 n=d#3 v=81
126635 Par ch=1 c=64 v=72
126645 Par ch=1 c=64 v=0
126650 On ch=1 n=d#4 v=0
126650 On ch=1 n=d#5 v=0
126657 On ch=1 n=d#3 v=0
126657 Par ch=1 c=64 v=24
126667 Par ch=1 c=64 v=72
126677 On ch=1 n=d#6 v=0
126677 Par ch=1 c=64 v=127
126874 On ch=1 n=a#6 v=103
126874 On ch=1 n=a#5 v=85
126884 On ch=1 n=a#4 v=85
126894 On ch=1 n=a#3 v=71
126904 Par ch=1 c=64 v=88
126914 Par ch=1 c=64 v=0
126986 Par ch=1 c=64 v=104
127001 Par ch=1 c=64 v=127
127006 On ch=1 n=a#4 v=0
127008 On ch=1 n=a#5 v=0
127028 On ch=1 n=a#3 v=0
127046 On ch=1 n=a#6 v=0
127329 On ch=1 n=g7 v=105
127334 On ch=1 n=g6 v=90
127336 On ch=1 n=d7 v=88
127346 On ch=1 n=a#3 v=85
127348 On ch=1 n=a#2 v=74
127358 Par ch=1 c=64 v=88
127370 Par ch=1 c=64 v=0
127445 Par ch=1 c=64 v=56
127455 Par ch=1 c=64 v=127
127467 On ch=1 n=g7 v=0
127487 On ch=1 n=g6 v=0
127512 On ch=1 n=d7 v=0
127595 On ch=1 n=f7 v=105
127597 On ch=1 n=f6 v=94
127602 On ch=1 n=d7 v=82
127630 Par ch=1 c=64 v=88
127642 Par ch=1 c=64 v=0
127692 Par ch=1 c=64 v=88
127702 Par ch=1 c=64 v=127
127726 On ch=1 n=d7 v=0
127736 On ch=1 n=f7 v=0
127751 On ch=1 n=f6 v=0
127756 On ch=1 n=a#2 v=0
127759 On ch=1 n=a#3 v=0
127934 On ch=1 n=d7 v=93
127936 Par ch=1 c=64 v=104
127939 On ch=1 n=a#6 v=76
127944 On ch=1 n=d6 v=82
127944 On ch=1 n=f6 v=77
127949 Par ch=1 c=64 v=56
127956 On ch=1 n=d4 v=80
127956 On ch=1 n=d3 v=63
127961 Par ch=1 c=64 v=72
127971 Par ch=1 c=64 v=104
127973 On ch=1 n=d3 v=0
127983 Par ch=1 c=64 v=127
127991 On ch=1 n=f6 v=0
127996 On ch=1 n=a#6 v=0
127998 On ch=1 n=d4 v=0
128001 On ch=1 n=d7 v=0
128016 On ch=1 n=d6 v=0
128163 On ch=1 n=a#6 v=93
128168 On ch=1 n=a#5 v=82
128173 On ch=1 n=d6 v=84
128183 On ch=1 n=g4 v=79
128186 On ch=1 n=g3 v=73
128196 Par ch=1 c=64 v=56
128208 Par ch=1 c=64 v=0
128283 Par ch=1 c=64 v=104
128293 Par ch=1 c=64 v=127
128297 On ch=1 n=d6 v=0
128315 On ch=1 n=g3 v=0
128325 On ch=1 n=a#5 v=0
128327 On ch=1 n=g4 v=0
128352 On ch=1 n=a#6 v=0
128495 On ch=1 n=c7 v=97
128500 On ch=1 n=c6 v=92
128500 On ch=1 n=a6 v=83
128503 On ch=1 n=f6 v=84
128505 Par ch=1 c=64 v=56
128508 On ch=1 n=f3 v=76
128508 On ch=1 n=f4 v=83
128518 Par ch=1 c=64 v=0
128530 Par ch=1 c=64 v=24
128540 Par ch=1 c=64 v=56
128545 On ch=1 n=f4 v=0
128547 On ch=1 n=f6 v=0
128549 On ch=1 n=c6 v=0
128552 On ch=1 n=f3 v=0
128552 On ch=1 n=a6 v=0
128552 Par ch=1 c=64 v=104
128562 Par ch=1 c=64 v=127
128586 On ch=1 n=c7 v=0
128664 Par ch=1 c=64 v=88
128674 Par ch=1 c=64 v=0
128689 On ch=1 n=a#6 v=83
128691 On ch=1 n=d7 v=99
128691 On ch=1 n=f6 v=90
128691 On ch=1 n=d6 v=92
128699 On ch=1 n=a#2 v=76
128704 On ch=1 n=a#3 v=70
128726 On ch=1 n=a#3 v=0
128734 Par ch=1 c=64 v=88
128746 Par ch=1 c=64 v=127
128754 On ch=1 n=a#2 v=0
128766 On ch=1 n=d7 v=0
128773 On ch=1 n=f6 v=0
128779 On ch=1 n=a#6 v=0
128791 On ch=1 n=d6 v=0
128919 On ch=1 n=a3 v=80
128926 On ch=1 n=a2 v=62
128944 On ch=1 n=a3 v=0
128961 On ch=1 n=a2 v=0
128991 On ch=1 n=a#6 v=91
128996 On ch=1 n=a#5 v=89
128996 Par ch=1 c=64 v=104
129004 On ch=1 n=d6 v=86
129006 On ch=1 n=g6 v=84
129009 Par ch=1 c=64 v=0
129014 On ch=1 n=g3 v=90
129019 On ch=1 n=g2 v=81
129036 On ch=1 n=g2 v=0
129046 Par ch=1 c=64 v=40
129051 On ch=1 n=g3 v=0
129059 On ch=1 n=d6 v=0
129059 Par ch=1 c=64 v=104
129061 On ch=1 n=g6 v=0
129071 Par ch=1 c=64 v=127
129076 On ch=1 n=a#5 v=0
129081 On ch=1 n=a#6 v=0
129206 On ch=1 n=g6 v=92
129211 On ch=1 n=g5 v=81
129211 On ch=1 n=a#5 v=71
129211 On ch=1 n=d#6 v=72
129219 On ch=1 n=d#4 v=91
129224 On ch=1 n=d#3 v=78
129249 Par ch=1 c=64 v=24
129261 Par ch=1 c=64 v=0
129316 On ch=1 n=a#5 v=0
129324 Par ch=1 c=64 v=88
129331 On ch=1 n=g5 v=0
129334 Par ch=1 c=64 v=127
129336 On ch=1 n=d#6 v=0
129353 On ch=1 n=g6 v=0
129371 On ch=1 n=d#3 v=0
129394 On ch=1 n=d#4 v=0
129524 On ch=1 n=a6 v=94
129524 Par ch=1 c=64 v=88
129529 On ch=1 n=f#6 v=78
129531 On ch=1 n=a5 v=85
129536 On ch=1 n=d6 v=82
129536 Par ch=1 c=64 v=0
129539 On ch=1 n=d4 v=83
129541 On ch=1 n=d3 v=78
129574 Par ch=1 c=64 v=56
129578 On ch=1 n=a5 v=0
129579 On ch=1 n=d4 v=0
129583 On ch=1 n=d3 v=0
129584 Par ch=1 c=64 v=127
129601 On ch=1 n=d6 v=0
129609 On ch=1 n=f#6 v=0
129621 On ch=1 n=a6 v=0
129721 Par ch=1 c=64 v=24
129726 On ch=1 n=a#6 v=87
129731 On ch=1 n=a#5 v=80
129734 On ch=1 n=d6 v=84
129736 On ch=1 n=g6 v=74
129736 Par ch=1 c=64 v=0
129739 On ch=1 n=g3 v=93
129746 On ch=1 n=g2 v=78
129761 Par ch=1 c=64 v=24
129771 Par ch=1 c=64 v=88
129775 On ch=1 n=g2 v=0
129776 On ch=1 n=g3 v=0
129783 Par ch=1 c=64 v=127
129786 On ch=1 n=d6 v=0
129790 On ch=1 n=g6 v=0
129813 On ch=1 n=a#5 v=0
129813 On ch=1 n=a#6 v=0
129943 On ch=1 n=f3 v=79
129961 On ch=1 n=f2 v=52
129968 On ch=1 n=f3 v=0
129978 On ch=1 n=f2 v=0
130008 On ch=1 n=g6 v=97
130013 On ch=1 n=g5 v=84
130013 On ch=1 n=d#6 v=77
130015 On ch=1 n=a#5 v=80
130015 Par ch=1 c=64 v=56
130020 On ch=1 n=d#2 v=85
130025 On ch=1 n=d#3 v=86
130030 Par ch=1 c=64 v=0
130040 Par ch=1 c=64 v=24
130052 On ch=1 n=d#3 v=0
130052 Par ch=1 c=64 v=72
130057 On ch=1 n=d#2 v=0
130060 On ch=1 n=g5 v=0
130065 On ch=1 n=d#6 v=0
130065 On ch=1 n=g6 v=0
130065 Par ch=1 c=64 v=127
130082 On ch=1 n=a#5 v=0
130217 On ch=1 n=d#6 v=96
130222 On ch=1 n=d#5 v=83
130225 On ch=1 n=g#5 v=76
130237 On ch=1 n=c4 v=87
130245 On ch=1 n=c3 v=70
130265 Par ch=1 c=64 v=104
130277 Par ch=1 c=64 v=0
130357 Par ch=1 c=64 v=88
130365 Par ch=1 c=64 v=127
130377 On ch=1 n=g#5 v=0
130394 On ch=1 n=d#5 v=0
130394 On ch=1 n=d#6 v=0
130402 On ch=1 n=c4 v=0
130412 On ch=1 n=c3 v=0
130595 On ch=1 n=f6 v=96
130602 On ch=1 n=a#5 v=69
130602 On ch=1 n=f5 v=76
130602 On ch=1 n=d6 v=75
130610 On ch=1 n=a#3 v=89
130612 On ch=1 n=a#2 v=80
130665 Par ch=1 c=64 v=40
130677 Par ch=1 c=64 v=0
130712 Par ch=1 c=64 v=40
130719 On ch=1 n=f5 v=0
130727 On ch=1 n=a#2 v=0
130727 Par ch=1 c=64 v=104
130729 On ch=1 n=a#5 v=0
130734 On ch=1 n=d6 v=0
130740 Par ch=1 c=64 v=127
130747 On ch=1 n=a#3 v=0
130747 On ch=1 n=f6 v=0
130922 On ch=1 n=f#6 v=88
130922 On ch=1 n=f#5 v=75
130932 On ch=1 n=d#6 v=68
130935 On ch=1 n=b5 v=70
130940 On ch=1 n=a3 v=78
130940 On ch=1 n=a2 v=68
130965 Par ch=1 c=64 v=56
130977 Par ch=1 c=64 v=0
131042 On ch=1 n=a2 v=0
131050 On ch=1 n=a3 v=0
131052 Par ch=1 c=64 v=72
131062 Par ch=1 c=64 v=127
131314 On ch=1 n=b4 v=74
131394 On ch=1 n=b4 v=0
131534 On ch=1 n=b4 v=68
131672 On ch=1 n=b5 v=0
131676 On ch=1 n=d#6 v=0
131686 On ch=1 n=b4 v=0
131703 On ch=1 n=f#6 v=0
131728 On ch=1 n=f#5 v=0
131861 On ch=1 n=b4 v=69
131948 On ch=1 n=b4 v=0
132076 On ch=1 n=b5 v=66
132076 On ch=1 n=f#5 v=44
132081 On ch=1 n=d#5 v=43
132089 On ch=1 n=b4 v=46
132224 On ch=1 n=b4 v=0
132411 On ch=1 n=b4 v=54
132516 On ch=1 n=b4 v=0
132636 On ch=1 n=b4 v=53
132738 On ch=1 n=b4 v=0
132808 On ch=1 n=f#5 v=0
132983 On ch=1 n=d#5 v=0
132984 On ch=1 n=b4 v=68
133231 On ch=1 n=d#5 v=67
133279 On ch=1 n=a3 v=54
133284 On ch=1 n=b4 v=0
133324 Par ch=1 c=64 v=72
133336 Par ch=1 c=64 v=0
133411 Par ch=1 c=64 v=72
133421 Par ch=1 c=64 v=127
133508 On ch=1 n=c#5 v=61
133535 On ch=1 n=d#5 v=0
133580 On ch=1 n=c#5 v=0
133588 On ch=1 n=b4 v=77
133640 On ch=1 n=b5 v=0
133646 On ch=1 n=a3 v=0
133683 On ch=1 n=b4 v=0
133838 On ch=1 n=b5 v=62
133843 On ch=1 n=e5 v=65
133846 On ch=1 n=b4 v=49
133868 On ch=1 n=g#3 v=42
133958 Par ch=1 c=64 v=56
133968 Par ch=1 c=64 v=0
134030 Par ch=1 c=64 v=88
134040 On ch=1 n=e5 v=0
134043 Par ch=1 c=64 v=127
134195 On ch=1 n=c#5 v=65
134233 On ch=1 n=b4 v=0
134312 On ch=1 n=c#5 v=0
134387 On ch=1 n=g#3 v=0
134402 On ch=1 n=b5 v=0
134445 On ch=1 n=a5 v=68
134448 On ch=1 n=d#5 v=52
134450 On ch=1 n=b4 v=61
134460 On ch=1 n=f#3 v=42
134487 Par ch=1 c=64 v=88
134497 Par ch=1 c=64 v=0
134597 Par ch=1 c=64 v=104
134609 Par ch=1 c=64 v=127
134654 On ch=1 n=b4 v=0
134804 On ch=1 n=a4 v=60
135029 On ch=1 n=f#4 v=64
135206 On ch=1 n=a4 v=0
135344 On ch=1 n=d#5 v=0
135371 On ch=1 n=f#4 v=0
135381 On ch=1 n=f#3 v=0
135416 On ch=1 n=b3 v=65
135621 On ch=1 n=b3 v=0
135676 On ch=1 n=e5 v=52
135681 On ch=1 n=b4 v=36
135696 On ch=1 n=e3 v=42
135771 Par ch=1 c=64 v=72
135781 Par ch=1 c=64 v=0
135881 Par ch=1 c=64 v=72
135893 Par ch=1 c=64 v=127
136005 On ch=1 n=a5 v=0
136051 On ch=1 n=g#5 v=58
136196 On ch=1 n=g#5 v=0
136268 On ch=1 n=e5 v=0
136271 On ch=1 n=g5 v=65
136341 Par ch=1 c=64 v=72
136356 Par ch=1 c=64 v=0
136431 Par ch=1 c=64 v=88
136441 Par ch=1 c=64 v=127
136603 On ch=1 n=e3 v=0
136606 Par ch=1 c=64 v=72
136643 Par ch=1 c=64 v=127
136653 On ch=1 n=f3 v=51
136715 On ch=1 n=b4 v=0
136738 On ch=1 n=f3 v=0
136741 On ch=1 n=g5 v=0
136951 On ch=1 n=b4 v=40
136951 On ch=1 n=g3 v=53
136951 On ch=1 n=g5 v=41
136951 On ch=1 n=f5 v=44
136951 On ch=1 n=d5 v=45
136951 On ch=1 n=g4 v=45
136993 Par ch=1 c=64 v=104
137003 Par ch=1 c=64 v=0
137090 Par ch=1 c=64 v=88
137100 Par ch=1 c=64 v=127
137102 On ch=1 n=g3 v=0
137292 On ch=1 n=g3 v=70
137372 On ch=1 n=g3 v=0
137537 On ch=1 n=g3 v=56
137637 On ch=1 n=g3 v=0
137892 On ch=1 n=g3 v=69
137930 On ch=1 n=f5 v=0
137932 On ch=1 n=b4 v=0
137947 On ch=1 n=g4 v=0
137965 On ch=1 n=d5 v=0
137965 On ch=1 n=g5 v=0
137992 On ch=1 n=g3 v=0
138127 On ch=1 n=g5 v=55
138132 On ch=1 n=g4 v=58
138137 On ch=1 n=d5 v=46
138142 On ch=1 n=f5 v=55
138152 On ch=1 n=b3 v=61
138187 Par ch=1 c=64 v=104
138199 Par ch=1 c=64 v=40
138209 Par ch=1 c=64 v=0
138281 Par ch=1 c=64 v=40
138291 Par ch=1 c=64 v=104
138303 Par ch=1 c=64 v=127
138361 On ch=1 n=b3 v=0
138408 On ch=1 n=a3 v=63
138456 Par ch=1 c=64 v=104
138468 Par ch=1 c=64 v=40
138478 Par ch=1 c=64 v=0
138502 On ch=1 n=a3 v=0
138508 On ch=1 n=g3 v=68
138515 Par ch=1 c=64 v=56
138525 Par ch=1 c=64 v=104
138529 On ch=1 n=f5 v=0
138537 Par ch=1 c=64 v=127
138582 On ch=1 n=d5 v=0
138582 On ch=1 n=g4 v=0
138607 On ch=1 n=g5 v=0
138717 On ch=1 n=g3 v=0
138770 On ch=1 n=c4 v=73
138775 On ch=1 n=g5 v=37
138780 On ch=1 n=c5 v=47
138780 On ch=1 n=e5 v=48
138780 On ch=1 n=g4 v=40
138787 Par ch=1 c=64 v=104
138797 Par ch=1 c=64 v=40
138809 Par ch=1 c=64 v=0
138894 Par ch=1 c=64 v=40
138904 Par ch=1 c=64 v=104
138916 Par ch=1 c=64 v=127
139071 On ch=1 n=c4 v=0
139149 On ch=1 n=a3 v=66
139364 On ch=1 n=a3 v=0
139394 On ch=1 n=g3 v=55
139444 Par ch=1 c=64 v=104
139456 Par ch=1 c=64 v=24
139466 Par ch=1 c=64 v=0
139529 Par ch=1 c=64 v=24
139541 Par ch=1 c=64 v=88
139551 Par ch=1 c=64 v=127
139653 On ch=1 n=g3 v=0
139783 On ch=1 n=e3 v=45
139828 Par ch=1 c=64 v=72
139838 Par ch=1 c=64 v=0
139876 Par ch=1 c=64 v=72
139888 Par ch=1 c=64 v=127
139910 On ch=1 n=e3 v=0
140058 On ch=1 n=c3 v=47
140116 Par ch=1 c=64 v=104
140128 Par ch=1 c=64 v=24
140138 Par ch=1 c=64 v=0
140173 Par ch=1 c=64 v=24
140185 Par ch=1 c=64 v=88
140195 Par ch=1 c=64 v=127
140282 On ch=1 n=c3 v=0
140475 On ch=1 n=e5 v=0
140525 On ch=1 n=a2 v=36
140542 On ch=1 n=c5 v=0
140620 On ch=1 n=a2 v=0
140902 On ch=1 n=f5 v=33
140902 On ch=1 n=g2 v=33
140902 On ch=1 n=b4 v=28
140942 Par ch=1 c=64 v=88
140952 Par ch=1 c=64 v=56
140962 Par ch=1 c=64 v=24
140972 Par ch=1 c=64 v=0
141077 Par ch=1 c=64 v=40
141087 Par ch=1 c=64 v=88
141097 Par ch=1 c=64 v=127
141262 On ch=1 n=g4 v=0
141312 On ch=1 n=g2 v=0
141377 On ch=1 n=b4 v=0
141464 On ch=1 n=f5 v=0
141495 On ch=1 n=g5 v=0
141527 On ch=1 n=a4 v=43
141560 Par ch=1 c=64 v=104
141572 Par ch=1 c=64 v=40
141582 Par ch=1 c=64 v=0
141662 Par ch=1 c=64 v=56
141674 Par ch=1 c=64 v=127
141821 On ch=1 n=a4 v=0
141857 On ch=1 n=a4 v=57
141982 On ch=1 n=a4 v=0
142094 On ch=1 n=c5 v=35
142097 On ch=1 n=a4 v=54
142119 On ch=1 n=g3 v=55
142164 Par ch=1 c=64 v=72
142174 Par ch=1 c=64 v=0
142222 Par ch=1 c=64 v=40
142232 Par ch=1 c=64 v=104
142242 Par ch=1 c=64 v=127
142259 On ch=1 n=a4 v=0
142367 On ch=1 n=e5 v=66
142377 On ch=1 n=g4 v=44
142396 On ch=1 n=c5 v=0
142429 On ch=1 n=g4 v=0
142457 On ch=1 n=e5 v=0
142542 On ch=1 n=a5 v=68
142552 On ch=1 n=b4 v=42
142557 On ch=1 n=d5 v=46
142557 On ch=1 n=f4 v=41
142582 Par ch=1 c=64 v=104
142592 Par ch=1 c=64 v=40
142599 Par ch=1 c=64 v=0
142649 Par ch=1 c=64 v=40
142657 Par ch=1 c=64 v=104
142667 Par ch=1 c=64 v=127
142702 On ch=1 n=a5 v=0
142704 On ch=1 n=f4 v=0
142807 On ch=1 n=a5 v=80
142824 On ch=1 n=f4 v=44
142834 On ch=1 n=b4 v=0
142856 On ch=1 n=f4 v=0
142857 On ch=1 n=d5 v=0
142882 On ch=1 n=a5 v=0
142982 On ch=1 n=a5 v=67
142989 On ch=1 n=c5 v=42
142997 On ch=1 n=f4 v=30
143027 Par ch=1 c=64 v=88
143037 Par ch=1 c=64 v=40
143047 Par ch=1 c=64 v=0
143104 Par ch=1 c=64 v=72
143114 Par ch=1 c=64 v=127
143197 On ch=1 n=a5 v=0
143237 On ch=1 n=f4 v=0
143254 On ch=1 n=g3 v=0
143254 On ch=1 n=g5 v=63
143259 On ch=1 n=e4 v=47
143294 On ch=1 n=g5 v=0
143299 On ch=1 n=c5 v=0
143314 On ch=1 n=e4 v=0
143374 On ch=1 n=g3 v=40
143439 On ch=1 n=f5 v=73
143444 On ch=1 n=b4 v=46
143459 On ch=1 n=a4 v=44
143462 Par ch=1 c=64 v=72
143472 Par ch=1 c=64 v=0
143529 Par ch=1 c=64 v=56
143539 Par ch=1 c=64 v=127
143569 On ch=1 n=f5 v=0
143594 On ch=1 n=a4 v=0
143709 On ch=1 n=b4 v=0
143709 On ch=1 n=f5 v=79
143727 On ch=1 n=a4 v=48
143784 On ch=1 n=f5 v=0
143787 On ch=1 n=a4 v=0
143884 On ch=1 n=f5 v=74
143894 On ch=1 n=c5 v=54
143896 On ch=1 n=a4 v=44
143924 Par ch=1 c=64 v=72
143934 Par ch=1 c=64 v=0
143979 Par ch=1 c=64 v=56
143989 Par ch=1 c=64 v=127
144003 On ch=1 n=a4 v=0
144116 On ch=1 n=f5 v=0
144136 On ch=1 n=e5 v=78
144154 On ch=1 n=g4 v=50
144176 On ch=1 n=c5 v=0
144203 On ch=1 n=e5 v=0
144231 On ch=1 n=g4 v=0
144326 On ch=1 n=a5 v=76
144334 On ch=1 n=a#4 v=40
144344 On ch=1 n=d5 v=47
144346 On ch=1 n=f4 v=40
144369 Par ch=1 c=64 v=104
144379 Par ch=1 c=64 v=24
144389 Par ch=1 c=64 v=0
144436 Par ch=1 c=64 v=56
144446 Par ch=1 c=64 v=127
144476 On ch=1 n=a5 v=0
144481 On ch=1 n=f4 v=0
144529 On ch=1 n=d5 v=0
144631 On ch=1 n=a5 v=74
144641 On ch=1 n=f4 v=39
144698 On ch=1 n=a#4 v=0
144705 On ch=1 n=a5 v=0
144706 On ch=1 n=f4 v=0
144831 On ch=1 n=a5 v=54
144841 On ch=1 n=a#4 v=23
144846 On ch=1 n=c#5 v=38
144856 On ch=1 n=f4 v=36
144881 Par ch=1 c=64 v=88
144888 Par ch=1 c=64 v=24
144896 Par ch=1 c=64 v=0
144946 Par ch=1 c=64 v=56
144956 Par ch=1 c=64 v=104
144966 Par ch=1 c=64 v=127
145003 On ch=1 n=a5 v=0
145053 On ch=1 n=c#5 v=0
145166 On ch=1 n=f4 v=0
145208 On ch=1 n=g5 v=41
145208 On ch=1 n=e4 v=36
145213 On ch=1 n=c#5 v=10
145246 Par ch=1 c=64 v=88
145256 Par ch=1 c=64 v=0
145263 On ch=1 n=g3 v=0
145300 On ch=1 n=e4 v=0
145306 Par ch=1 c=64 v=24
145316 Par ch=1 c=64 v=88
145326 Par ch=1 c=64 v=127
145340 On ch=1 n=g5 v=0
145343 On ch=1 n=a#4 v=0
145355 On ch=1 n=c#5 v=0
145436 On ch=1 n=a#4 v=49
145441 On ch=1 n=c#5 v=44
145621 On ch=1 n=a#4 v=0
145736 On ch=1 n=a#4 v=58
145821 On ch=1 n=c#5 v=0
145828 On ch=1 n=a#4 v=0
145916 On ch=1 n=a#4 v=43
145918 On ch=1 n=g4 v=75
145973 Par ch=1 c=64 v=56
145983 Par ch=1 c=64 v=0
146023 Par ch=1 c=64 v=40
146031 Par ch=1 c=64 v=88
146041 Par ch=1 c=64 v=127
146105 On ch=1 n=g4 v=0
146126 On ch=1 n=f4 v=65
146156 Par ch=1 c=64 v=104
146166 Par ch=1 c=64 v=24
146173 On ch=1 n=c#5 v=1
146176 Par ch=1 c=64 v=0
146186 On ch=1 n=f4 v=0
146196 On ch=1 n=e4 v=69
146236 Par ch=1 c=64 v=40
146246 Par ch=1 c=64 v=88
146256 Par ch=1 c=64 v=127
146261 On ch=1 n=a#4 v=0
146273 On ch=1 n=c#5 v=0
146318 On ch=1 n=e4 v=0
146401 On ch=1 n=a#4 v=53
146408 On ch=1 n=c#5 v=25
146413 On ch=1 n=g5 v=39
146478 Par ch=1 c=64 v=56
146488 Par ch=1 c=64 v=0
146533 Par ch=1 c=64 v=40
146543 Par ch=1 c=64 v=104
146550 Par ch=1 c=64 v=127
146568 On ch=1 n=a#4 v=0
146708 On ch=1 n=a#4 v=46
146790 On ch=1 n=g5 v=0
146912 On ch=1 n=c#5 v=0
146930 On ch=1 n=a#4 v=0
146953 On ch=1 n=a#5 v=39
146965 On ch=1 n=g4 v=45
146973 On ch=1 n=e5 v=34
147035 Par ch=1 c=64 v=56
147045 Par ch=1 c=64 v=0
147113 Par ch=1 c=64 v=104
147115 On ch=1 n=e5 v=0
147123 Par ch=1 c=64 v=127
147125 On ch=1 n=a#5 v=0
147312 On ch=1 n=g4 v=0
147318 On ch=1 n=c4 v=56
147545 On ch=1 n=d5 v=60
147605 Par ch=1 c=64 v=56
147615 Par ch=1 c=64 v=0
147675 Par ch=1 c=64 v=104
147685 Par ch=1 c=64 v=127
147720 On ch=1 n=d5 v=0
147818 On ch=1 n=d5 v=68
147918 On ch=1 n=d5 v=0
147993 On ch=1 n=f5 v=63
147995 On ch=1 n=d5 v=56
148043 Par ch=1 c=64 v=56
148050 Par ch=1 c=64 v=0
148090 Par ch=1 c=64 v=40
148100 Par ch=1 c=64 v=127
148140 On ch=1 n=d5 v=0
148238 On ch=1 n=a5 v=74
148258 On ch=1 n=c5 v=39
148270 On ch=1 n=f5 v=0
148333 On ch=1 n=a5 v=0
148388 On ch=1 n=c5 v=0
148415 On ch=1 n=d6 v=77
148425 On ch=1 n=g5 v=49
148427 On ch=1 n=e5 v=41
148427 On ch=1 n=a#4 v=32
148465 Par ch=1 c=64 v=72
148475 Par ch=1 c=64 v=0
148532 Par ch=1 c=64 v=72
148542 Par ch=1 c=64 v=127
148559 On ch=1 n=d6 v=0
148569 On ch=1 n=a#4 v=0
148682 On ch=1 n=d6 v=82
148697 On ch=1 n=a#4 v=32
148721 On ch=1 n=e5 v=0
148749 On ch=1 n=g5 v=0
148752 On ch=1 n=a#4 v=0
148769 On ch=1 n=d6 v=0
148857 On ch=1 n=d6 v=79
148869 On ch=1 n=f5 v=51
148872 On ch=1 n=a#4 v=36
148879 Par ch=1 c=64 v=88
148889 Par ch=1 c=64 v=0
148937 Par ch=1 c=64 v=72
148947 Par ch=1 c=64 v=127
149017 On ch=1 n=a#4 v=0
149059 On ch=1 n=d6 v=0
149114 On ch=1 n=c6 v=84
149124 On ch=1 n=a4 v=56
149127 On ch=1 n=c4 v=0
149146 On ch=1 n=f5 v=0
149164 On ch=1 n=c6 v=0
149201 On ch=1 n=a4 v=0
149242 On ch=1 n=c4 v=51
149314 On ch=1 n=a#5 v=69
149324 On ch=1 n=e5 v=56
149334 On ch=1 n=d5 v=58
149334 Par ch=1 c=64 v=104
149344 Par ch=1 c=64 v=40
149352 Par ch=1 c=64 v=0
149412 Par ch=1 c=64 v=56
149419 Par ch=1 c=64 v=127
149451 On ch=1 n=a#5 v=0
149484 On ch=1 n=d5 v=0
149584 On ch=1 n=a#5 v=76
149594 On ch=1 n=d5 v=55
149626 On ch=1 n=e5 v=0
149659 On ch=1 n=d5 v=0
149676 On ch=1 n=a#5 v=0
149752 On ch=1 n=a#5 v=73
149762 On ch=1 n=f5 v=60
149767 On ch=1 n=d5 v=54
149789 Par ch=1 c=64 v=72
149799 Par ch=1 c=64 v=0
149847 Par ch=1 c=64 v=72
149857 Par ch=1 c=64 v=127
149859 On ch=1 n=d5 v=0
149962 On ch=1 n=a#5 v=0
150002 On ch=1 n=a5 v=82
150012 On ch=1 n=c5 v=56
150024 On ch=1 n=f5 v=0
150062 On ch=1 n=a5 v=0
150082 On ch=1 n=c5 v=0
150182 On ch=1 n=d6 v=82
150187 On ch=1 n=e5 v=53
150189 On ch=1 n=g5 v=59
150204 On ch=1 n=a#4 v=43
150214 Par ch=1 c=64 v=104
150224 Par ch=1 c=64 v=0
150282 Par ch=1 c=64 v=88
150292 Par ch=1 c=64 v=127
150309 On ch=1 n=d6 v=0
150321 On ch=1 n=a#4 v=0
150371 On ch=1 n=g5 v=0
150447 On ch=1 n=d6 v=90
150467 On ch=1 n=a#4 v=50
150482 On ch=1 n=e5 v=0
150517 On ch=1 n=a#4 v=0
150519 On ch=1 n=d6 v=0
150634 On ch=1 n=d6 v=90
150644 On ch=1 n=f#5 v=63
150644 On ch=1 n=d#5 v=59
150647 On ch=1 n=a#4 v=60
150679 Par ch=1 c=64 v=88
150689 Par ch=1 c=64 v=0
150722 On ch=1 n=c4 v=0
150729 Par ch=1 c=64 v=24
150737 Par ch=1 c=64 v=104
150744 Par ch=1 c=64 v=127
150799 On ch=1 n=f#5 v=0
150839 On ch=1 n=d6 v=0
150887 On ch=1 n=a#4 v=0
150894 On ch=1 n=c6 v=88
150894 On ch=1 n=a4 v=61
150919 On ch=1 n=d#5 v=0
150939 On ch=1 n=c6 v=0
150944 On ch=1 n=a4 v=0
151084 On ch=1 n=f#6 v=85
151084 Par ch=1 c=64 v=104
151087 On ch=1 n=f#5 v=71
151092 On ch=1 n=c6 v=76
151094 On ch=1 n=d#5 v=67
151097 Par ch=1 c=64 v=0
151099 On ch=1 n=a5 v=67
151104 On ch=1 n=d#4 v=59
151109 On ch=1 n=a5 v=0
151124 On ch=1 n=d#4 v=0
151132 On ch=1 n=c6 v=0
151134 On ch=1 n=f#5 v=0
151134 Par ch=1 c=64 v=24
151144 Par ch=1 c=64 v=104
151154 Par ch=1 c=64 v=127
151156 On ch=1 n=f#6 v=0
151219 On ch=1 n=d#5 v=0
151272 On ch=1 n=g6 v=83
151279 On ch=1 n=c6 v=70
151284 On ch=1 n=g5 v=39
151289 On ch=1 n=g6 v=0
151296 On ch=1 n=c6 v=0
151306 On ch=1 n=g5 v=0
151324 On ch=1 n=d#5 v=62
151327 On ch=1 n=c6 v=82
151329 On ch=1 n=g#6 v=86
151329 On ch=1 n=g#5 v=70
151329 Par ch=1 c=64 v=88
151337 Par ch=1 c=64 v=40
151339 On ch=1 n=d#4 v=44
151349 On ch=1 n=d#5 v=0
151349 Par ch=1 c=64 v=72
151356 On ch=1 n=d#4 v=0
151357 Par ch=1 c=64 v=104
151364 On ch=1 n=c6 v=0
151367 Par ch=1 c=64 v=127
151376 On ch=1 n=g#5 v=0
151391 On ch=1 n=g#6 v=0
151482 Par ch=1 c=64 v=40
151484 On ch=1 n=a6 v=90
151492 On ch=1 n=a5 v=78
151492 On ch=1 n=f#6 v=68
151492 Par ch=1 c=64 v=0
151497 On ch=1 n=c5 v=77
151499 On ch=1 n=d#6 v=67
151499 On ch=1 n=c4 v=74
151509 Par ch=1 c=64 v=24
151519 Par ch=1 c=64 v=88
151524 On ch=1 n=a5 v=0
151529 Par ch=1 c=64 v=127
151531 On ch=1 n=c5 v=0
151541 On ch=1 n=c4 v=0
151541 On ch=1 n=a6 v=0
151553 On ch=1 n=d#6 v=0
151556 On ch=1 n=f#6 v=0
151651 On ch=1 n=a#6 v=78
151651 On ch=1 n=a#5 v=71
151651 On ch=1 n=f#6 v=56
151651 On ch=1 n=a#3 v=61
151651 On ch=1 n=a#4 v=55
151651 On ch=1 n=d#6 v=52
151668 On ch=1 n=d#6 v=0
151668 On ch=1 n=a#3 v=0
151668 On ch=1 n=f#6 v=0
151671 On ch=1 n=a#4 v=0
151683 On ch=1 n=a#5 v=0
151683 On ch=1 n=a#6 v=0
151704 On ch=1 n=f#6 v=77
151704 On ch=1 n=d#6 v=65
151704 Par ch=1 c=64 v=40
151709 On ch=1 n=b5 v=89
151709 On ch=1 n=b6 v=97
151711 Par ch=1 c=64 v=0
151721 On ch=1 n=a4 v=70
151721 Par ch=1 c=64 v=40
151729 On ch=1 n=a3 v=69
151731 Par ch=1 c=64 v=88
151741 Par ch=1 c=64 v=127
151743 On ch=1 n=a4 v=0
151744 On ch=1 n=a3 v=0
151744 On ch=1 n=b5 v=0
151774 On ch=1 n=d#6 v=0
151776 On ch=1 n=b6 v=0
151796 On ch=1 n=f#6 v=0
151856 On ch=1 n=d#6 v=86
151856 On ch=1 n=c7 v=93
151856 Par ch=1 c=64 v=56
151861 On ch=1 n=a6 v=75
151861 On ch=1 n=c6 v=85
151866 Par ch=1 c=64 v=0
151876 On ch=1 n=f#5 v=77
151876 On ch=1 n=f#4 v=69
151876 Par ch=1 c=64 v=40
151886 On ch=1 n=c6 v=0
151886 Par ch=1 c=64 v=88
151896 Par ch=1 c=64 v=127
151898 On ch=1 n=a6 v=0
151901 On ch=1 n=d#6 v=0
151908 On ch=1 n=f#4 v=0
151911 On ch=1 n=f#5 v=0
151916 On ch=1 n=c7 v=0
152029 On ch=1 n=c#7 v=81
152034 On ch=1 n=c#6 v=69
152034 On ch=1 n=a6 v=72
152056 On ch=1 n=c#6 v=0
152061 On ch=1 n=a6 v=0
152064 On ch=1 n=c#7 v=0
152076 On ch=1 n=f#5 v=71
152081 On ch=1 n=f#4 v=73
152081 Par ch=1 c=64 v=56
152086 On ch=1 n=d7 v=92
152089 On ch=1 n=a6 v=78
152091 On ch=1 n=d6 v=84
152091 Par ch=1 c=64 v=0
152101 Par ch=1 c=64 v=40
152109 Par ch=1 c=64 v=88
152116 On ch=1 n=f#4 v=0
152116 On ch=1 n=f#5 v=0
152119 Par ch=1 c=64 v=127
152126 On ch=1 n=d6 v=0
152126 On ch=1 n=a6 v=0
152141 On ch=1 n=d7 v=0
152224 On ch=1 n=d#7 v=92
152226 On ch=1 n=a6 v=82
152226 On ch=1 n=d#6 v=84
152234 On ch=1 n=d#5 v=85
152236 Par ch=1 c=64 v=88
152239 On ch=1 n=d#4 v=76
152246 Par ch=1 c=64 v=56
152256 Par ch=1 c=64 v=88
152266 Par ch=1 c=64 v=127
152281 On ch=1 n=d#4 v=0
152281 On ch=1 n=d#5 v=0
152316 On ch=1 n=d#6 v=0
152326 On ch=1 n=a6 v=0
152331 On ch=1 n=d#7 v=0
152374 On ch=1 n=e7 v=86
152381 On ch=1 n=a6 v=62
152381 On ch=1 n=e6 v=66
152381 On ch=1 n=c#5 v=65
152389 On ch=1 n=c#4 v=51
152398 On ch=1 n=c#5 v=0
152398 On ch=1 n=e6 v=0
152398 On ch=1 n=a6 v=0
152406 On ch=1 n=c#4 v=0
152406 On ch=1 n=e7 v=0
152436 On ch=1 n=f7 v=94
152436 On ch=1 n=a6 v=71
152441 On ch=1 n=e7 v=82
152441 On ch=1 n=e6 v=62
152441 Par ch=1 c=64 v=56
152444 On ch=1 n=f6 v=70
152449 Par ch=1 c=64 v=24
152454 On ch=1 n=c5 v=84
152456 On ch=1 n=e7 v=0
152456 On ch=1 n=c4 v=81
152459 Par ch=1 c=64 v=56
152464 On ch=1 n=f6 v=0
152466 On ch=1 n=e6 v=0
152468 On ch=1 n=a6 v=0
152469 Par ch=1 c=64 v=88
152471 On ch=1 n=c4 v=0
152479 Par ch=1 c=64 v=127
152491 On ch=1 n=f7 v=0
152496 On ch=1 n=c5 v=0
152591 On ch=1 n=f#7 v=95
152594 On ch=1 n=f#6 v=95
152594 On ch=1 n=d#7 v=78
152594 Par ch=1 c=64 v=56
152599 On ch=1 n=c6 v=88
152604 Par ch=1 c=64 v=0
152606 On ch=1 n=c5 v=75
152614 Par ch=1 c=64 v=56
152623 On ch=1 n=c5 v=0
152624 Par ch=1 c=64 v=127
152626 On ch=1 n=c6 v=0
152664 On ch=1 n=f#6 v=0
152688 On ch=1 n=f#7 v=0
152706 On ch=1 n=d#7 v=0
152746 On ch=1 n=g7 v=89
152754 On ch=1 n=g6 v=77
152759 On ch=1 n=d#7 v=46
152771 On ch=1 n=g6 v=0
152776 On ch=1 n=d#7 v=0
152776 On ch=1 n=g7 v=0
152811 On ch=1 n=f#4 v=85
152814 On ch=1 n=g#7 v=103
152814 On ch=1 n=g#6 v=96
152816 On ch=1 n=f#3 v=80
152821 On ch=1 n=d#7 v=55
152826 Par ch=1 c=64 v=88
152836 On ch=1 n=f#4 v=0
152841 On ch=1 n=f#3 v=0
152846 Par ch=1 c=64 v=127
152856 On ch=1 n=g#6 v=0
152888 On ch=1 n=g#7 v=0
152918 On ch=1 n=d#7 v=0
152951 Par ch=1 c=64 v=104
152958 Par ch=1 c=64 v=0
152966 On ch=1 n=a7 v=105
152968 On ch=1 n=d#7 v=77
152968 On ch=1 n=a6 v=88
152976 On ch=1 n=f#4 v=95
152976 On ch=1 n=f#3 v=89
152981 On ch=1 n=b6 v=62
152983 On ch=1 n=g#7 v=40
152998 On ch=1 n=b6 v=0
152998 Par ch=1 c=64 v=72
153000 On ch=1 n=g#7 v=0
153000 On ch=1 n=a6 v=0
153001 On ch=1 n=f#4 v=0
153003 On ch=1 n=a7 v=0
153008 On ch=1 n=f#3 v=0
153008 Par ch=1 c=64 v=127
153018 On ch=1 n=d#7 v=0
153166 On ch=1 n=f6 v=96
153166 On ch=1 n=f4 v=78
153166 On ch=1 n=f5 v=82
153173 On ch=1 n=f3 v=75
153176 On ch=1 n=c#6 v=45
153183 On ch=1 n=f5 v=0
153183 On ch=1 n=f4 v=0
153183 On ch=1 n=f6 v=0
153191 On ch=1 n=c#6 v=0
153195 On ch=1 n=f3 v=0
153221 Par ch=1 c=64 v=56
153228 On ch=1 n=d#5 v=99
153231 On ch=1 n=d#6 v=95
153231 Par ch=1 c=64 v=0
153236 On ch=1 n=d#3 v=83
153241 On ch=1 n=d#4 v=89
153246 On ch=1 n=c#6 v=44
153258 Par ch=1 c=64 v=72
153260 On ch=1 n=d#5 v=0
153261 On ch=1 n=c#6 v=0
153266 On ch=1 n=d#4 v=0
153268 On ch=1 n=d#3 v=0
153271 Par ch=1 c=64 v=127
153278 On ch=1 n=d#6 v=0
153423 On ch=1 n=a5 v=102
153423 On ch=1 n=a6 v=107
153441 On ch=1 n=a4 v=84
153441 On ch=1 n=a3 v=86
153463 Par ch=1 c=64 v=0
153531 Par ch=1 c=64 v=104
153538 Par ch=1 c=64 v=127
153543 On ch=1 n=a4 v=0
153553 On ch=1 n=a5 v=0
153558 On ch=1 n=a3 v=0
153580 On ch=1 n=a6 v=0
153776 On ch=1 n=d7 v=99
153778 On ch=1 n=d6 v=92
153778 On ch=1 n=a6 v=85
153781 On ch=1 n=c7 v=86
153781 On ch=1 n=f#2 v=75
153783 On ch=1 n=f#3 v=90
153783 Par ch=1 c=64 v=24
153793 Par ch=1 c=64 v=0
153838 On ch=1 n=a6 v=0
153841 Par ch=1 c=64 v=56
153851 On ch=1 n=f#2 v=0
153851 Par ch=1 c=64 v=127
153871 On ch=1 n=c7 v=0
153875 On ch=1 n=d6 v=0
153878 On ch=1 n=d7 v=0
153893 On ch=1 n=f#3 v=0
153961 On ch=1 n=d7 v=99
153966 On ch=1 n=d6 v=88
153966 On ch=1 n=a#6 v=76
153971 On ch=1 n=g6 v=84
153978 On ch=1 n=g3 v=86
153981 On ch=1 n=g2 v=80
153986 Par ch=1 c=64 v=104
153996 Par ch=1 c=64 v=0
154061 Par ch=1 c=64 v=127
154073 On ch=1 n=g6 v=0
154081 On ch=1 n=g2 v=0
154081 On ch=1 n=d7 v=0
154091 On ch=1 n=a#6 v=0
154093 On ch=1 n=g3 v=0
154103 On ch=1 n=d6 v=0
154223 On ch=1 n=a#6 v=83
154225 On ch=1 n=a#5 v=82
154233 On ch=1 n=d6 v=77
154233 On ch=1 n=g6 v=69
154235 Par ch=1 c=64 v=88
154238 On ch=1 n=d4 v=78
154240 On ch=1 n=d3 v=71
154250 On ch=1 n=d6 v=0
154255 On ch=1 n=g6 v=0
154255 Par ch=1 c=64 v=127
154260 On ch=1 n=d3 v=0
154280 On ch=1 n=d4 v=0
154280 On ch=1 n=a#6 v=0
154287 On ch=1 n=a#5 v=0
154395 On ch=1 n=g6 v=99
154398 On ch=1 n=a#5 v=73
154403 On ch=1 n=g5 v=82
154410 On ch=1 n=g4 v=79
154413 On ch=1 n=g3 v=75
154428 Par ch=1 c=64 v=24
154438 Par ch=1 c=64 v=0
154478 On ch=1 n=a#5 v=0
154480 On ch=1 n=g5 v=0
154488 Par ch=1 c=64 v=104
154493 On ch=1 n=g3 v=0
154498 Par ch=1 c=64 v=127
154500 On ch=1 n=g4 v=0
154505 On ch=1 n=g6 v=0
154638 On ch=1 n=a6 v=94
154640 Par ch=1 c=64 v=104
154645 On ch=1 n=a5 v=83
154648 On ch=1 n=d6 v=83
154650 On ch=1 n=f4 v=82
154653 On ch=1 n=f3 v=74
154653 Par ch=1 c=64 v=40
154670 Par ch=1 c=64 v=72
154680 Par ch=1 c=64 v=104
154682 On ch=1 n=a5 v=0
154687 On ch=1 n=f4 v=0
154690 On ch=1 n=f3 v=0
154690 Par ch=1 c=64 v=127
154693 On ch=1 n=d6 v=0
154708 On ch=1 n=a6 v=0
154800 On ch=1 n=a#6 v=89
154805 Par ch=1 c=64 v=88
154808 On ch=1 n=a#5 v=85
154813 On ch=1 n=d6 v=83
154813 On ch=1 n=g6 v=80
154815 Par ch=1 c=64 v=0
154820 On ch=1 n=e4 v=82
154823 On ch=1 n=e3 v=74
154853 Par ch=1 c=64 v=72
154857 On ch=1 n=e4 v=0
154858 On ch=1 n=g6 v=0
154858 On ch=1 n=d6 v=0
154863 On ch=1 n=e3 v=0
154865 Par ch=1 c=64 v=127
154870 On ch=1 n=a#6 v=0
154888 On ch=1 n=a#5 v=0
154978 On ch=1 n=d4 v=68
154995 On ch=1 n=d4 v=0
154998 On ch=1 n=d3 v=26
155013 On ch=1 n=d3 v=0
155028 Par ch=1 c=64 v=72
155035 On ch=1 n=g6 v=97
155035 On ch=1 n=c#3 v=85
155038 On ch=1 n=g5 v=85
155038 On ch=1 n=c#4 v=87
155040 On ch=1 n=a#5 v=77
155040 Par ch=1 c=64 v=0
155043 On ch=1 n=e6 v=75
155068 On ch=1 n=c#4 v=0
155068 Par ch=1 c=64 v=56
155070 On ch=1 n=c#3 v=0
155078 Par ch=1 c=64 v=127
155080 On ch=1 n=e6 v=0
155090 On ch=1 n=g5 v=0
155090 On ch=1 n=g6 v=0
155110 On ch=1 n=a#5 v=0
155193 On ch=1 n=e6 v=96
155195 On ch=1 n=c#6 v=75
155198 On ch=1 n=e5 v=82
155200 On ch=1 n=a#5 v=70
155205 On ch=1 n=a#4 v=88
155208 On ch=1 n=a#3 v=85
155210 Par ch=1 c=64 v=88
155220 Par ch=1 c=64 v=0
155247 On ch=1 n=e5 v=0
155257 Par ch=1 c=64 v=72
155259 On ch=1 n=a#5 v=0
155265 On ch=1 n=a#3 v=0
155267 Par ch=1 c=64 v=127
155270 On ch=1 n=e6 v=0
155279 On ch=1 n=c#6 v=0
155307 On ch=1 n=a#4 v=0
155422 Par ch=1 c=64 v=72
155430 On ch=1 n=f#6 v=90
155430 Par ch=1 c=64 v=0
155435 On ch=1 n=f#5 v=85
155437 On ch=1 n=d#6 v=74
155440 On ch=1 n=c6 v=79
155445 On ch=1 n=a4 v=71
155452 On ch=1 n=a3 v=73
155462 Par ch=1 c=64 v=88
155469 On ch=1 n=a3 v=0
155472 Par ch=1 c=64 v=127
155477 On ch=1 n=a4 v=0
155480 On ch=1 n=f#5 v=0
155497 On ch=1 n=c6 v=0
155507 On ch=1 n=f#6 v=0
155514 On ch=1 n=d#6 v=0
155582 On ch=1 n=g6 v=92
155582 On ch=1 n=g5 v=82
155582 On ch=1 n=a#2 v=67
155582 On ch=1 n=a#3 v=71
155582 On ch=1 n=d6 v=86
155582 Par ch=1 c=64 v=72
155594 Par ch=1 c=64 v=0
155599 On ch=1 n=a#2 v=0
155602 On ch=1 n=a#3 v=0
155614 Par ch=1 c=64 v=56
155624 Par ch=1 c=64 v=127
155632 On ch=1 n=d6 v=0
155632 On ch=1 n=g6 v=0
155644 On ch=1 n=g5 v=0
155742 On ch=1 n=a3 v=86
155742 On ch=1 n=a2 v=75
155762 On ch=1 n=a2 v=0
155762 On ch=1 n=a3 v=0
155799 On ch=1 n=e6 v=99
155802 On ch=1 n=a#5 v=83
155802 On ch=1 n=e5 v=88
155809 Par ch=1 c=64 v=72
155817 Par ch=1 c=64 v=0
155822 On ch=1 n=g3 v=87
155829 On ch=1 n=g2 v=69
155839 On ch=1 n=e5 v=0
155843 On ch=1 n=g2 v=0
155844 Par ch=1 c=64 v=40
155849 On ch=1 n=g3 v=0
155851 On ch=1 n=a#5 v=0
155851 Par ch=1 c=64 v=127
155856 On ch=1 n=e6 v=0
155964 On ch=1 n=c#6 v=93
155966 On ch=1 n=c#5 v=88
155966 On ch=1 n=a#5 v=81
155971 On ch=1 n=g5 v=82
155986 On ch=1 n=e3 v=68
155986 On ch=1 n=e4 v=76
155989 Par ch=1 c=64 v=72
155999 Par ch=1 c=64 v=0
156036 Par ch=1 c=64 v=56
156046 Par ch=1 c=64 v=127
156053 On ch=1 n=c#5 v=0
156078 On ch=1 n=e3 v=0
156081 On ch=1 n=c#6 v=0
156096 On ch=1 n=e4 v=0
156098 On ch=1 n=a#5 v=0
156116 On ch=1 n=g5 v=0
156204 On ch=1 n=d6 v=94
156211 On ch=1 n=d5 v=84
156211 On ch=1 n=a#5 v=75
156216 On ch=1 n=g5 v=77
156219 On ch=1 n=d4 v=86
156221 On ch=1 n=d3 v=71
156221 Par ch=1 c=64 v=88
156231 Par ch=1 c=64 v=24
156241 Par ch=1 c=64 v=40
156251 Par ch=1 c=64 v=72
156253 On ch=1 n=d5 v=0
156261 Par ch=1 c=64 v=127
156263 On ch=1 n=d3 v=0
156264 On ch=1 n=d4 v=0
156271 On ch=1 n=d6 v=0
156281 On ch=1 n=g5 v=0
156286 On ch=1 n=a#5 v=0
156346 Par ch=1 c=64 v=88
156356 Par ch=1 c=64 v=0
156366 On ch=1 n=d#6 v=91
156366 On ch=1 n=d#5 v=84
156368 On ch=1 n=a5 v=84
156371 On ch=1 n=g5 v=76
156376 On ch=1 n=c#4 v=89
156378 On ch=1 n=c#3 v=77
156401 Par ch=1 c=64 v=56
156411 Par ch=1 c=64 v=127
156433 On ch=1 n=d#5 v=0
156438 On ch=1 n=a5 v=0
156458 On ch=1 n=d#6 v=0
156463 On ch=1 n=g5 v=0
156513 On ch=1 n=c#3 v=0
156513 On ch=1 n=e6 v=94
156518 On ch=1 n=g5 v=53
156521 On ch=1 n=e5 v=66
156523 On ch=1 n=a5 v=74
156531 On ch=1 n=a#5 v=34
156536 On ch=1 n=f5 v=45
156546 On ch=1 n=c#4 v=0
156548 Par ch=1 c=64 v=104
156556 On ch=1 n=f5 v=0
156556 Par ch=1 c=64 v=24
156566 Par ch=1 c=64 v=0
156586 Par ch=1 c=64 v=24
156596 Par ch=1 c=64 v=72
156606 Par ch=1 c=64 v=127
156621 On ch=1 n=c4 v=86
156628 On ch=1 n=c3 v=70
156656 On ch=1 n=c4 v=0
156665 On ch=1 n=c3 v=0
156693 On ch=1 n=e5 v=0
156723 On ch=1 n=g5 v=0
156725 On ch=1 n=a5 v=0
156741 On ch=1 n=b3 v=80
156748 On ch=1 n=a#5 v=0
156748 On ch=1 n=b2 v=71
156773 On ch=1 n=b2 v=0
156778 On ch=1 n=b3 v=0
156820 On ch=1 n=e6 v=0
156861 On ch=1 n=a#3 v=84
156863 On ch=1 n=a#2 v=74
156903 On ch=1 n=a#3 v=0
156913 On ch=1 n=a#2 v=0
156981 On ch=1 n=a3 v=94
156986 On ch=1 n=a2 v=79
157003 Par ch=1 c=64 v=24
157013 Par ch=1 c=64 v=0
157078 On ch=1 n=a2 v=0
157088 On ch=1 n=a3 v=0
157123 On ch=1 n=a7 v=105
157126 On ch=1 n=a3 v=89
157126 On ch=1 n=a2 v=75
157126 On ch=1 n=f7 v=90
157138 Par ch=1 c=64 v=56
157143 Par ch=1 c=64 v=127
157151 On ch=1 n=a2 v=0
157158 On ch=1 n=a3 v=0
157193 On ch=1 n=a7 v=0
157198 On ch=1 n=f7 v=0
157198 On ch=1 n=e7 v=92
157258 On ch=1 n=d7 v=82
157268 On ch=1 n=e7 v=0
157271 On ch=1 n=d4 v=74
157276 On ch=1 n=d3 v=61
157306 On ch=1 n=d3 v=0
157316 On ch=1 n=d4 v=0
157320 On ch=1 n=d7 v=0
157323 On ch=1 n=a6 v=81
157353 On ch=1 n=a6 v=0
157393 On ch=1 n=e4 v=72
157396 On ch=1 n=f6 v=72
157398 On ch=1 n=e3 v=65
157401 On ch=1 n=g6 v=40
157403 On ch=1 n=a6 v=80
157418 On ch=1 n=g6 v=0
157420 On ch=1 n=a6 v=0
157423 On ch=1 n=e3 v=0
157433 On ch=1 n=f6 v=0
157438 On ch=1 n=e4 v=0
157456 On ch=1 n=e6 v=78
157508 On ch=1 n=e6 v=0
157518 On ch=1 n=d6 v=79
157528 Par ch=1 c=64 v=104
157533 On ch=1 n=f4 v=82
157538 On ch=1 n=f3 v=73
157538 Par ch=1 c=64 v=40
157546 Par ch=1 c=64 v=0
157568 Par ch=1 c=64 v=72
157576 Par ch=1 c=64 v=127
157580 On ch=1 n=d6 v=0
157586 On ch=1 n=a5 v=80
157616 On ch=1 n=a5 v=0
157658 On ch=1 n=f5 v=59
157661 On ch=1 n=a5 v=73
157678 On ch=1 n=a5 v=0
157693 On ch=1 n=f5 v=0
157713 On ch=1 n=e5 v=76
157748 On ch=1 n=f3 v=0
157760 On ch=1 n=e5 v=0
157778 On ch=1 n=f4 v=0
157778 On ch=1 n=d5 v=72
157823 On ch=1 n=d5 v=0
157841 On ch=1 n=a4 v=72
157873 On ch=1 n=a4 v=0
157913 Par ch=1 c=64 v=72
157921 On ch=1 n=a#4 v=79
157921 Par ch=1 c=64 v=0
157931 On ch=1 n=g4 v=62
157951 Par ch=1 c=64 v=24
157956 On ch=1 n=a#4 v=0
157958 Par ch=1 c=64 v=72
157968 Par ch=1 c=64 v=127
157976 On ch=1 n=g4 v=0
157986 On ch=1 n=a#5 v=71
157993 On ch=1 n=c#5 v=57
157996 On ch=1 n=e4 v=62
158013 On ch=1 n=c#5 v=0
158023 On ch=1 n=a#5 v=0
158035 On ch=1 n=e4 v=0
158053 On ch=1 n=a3 v=66
158053 On ch=1 n=c#5 v=67
158070 On ch=1 n=a3 v=0
158088 On ch=1 n=c#5 v=0
158118 On ch=1 n=c#6 v=75
158125 On ch=1 n=a#4 v=44
158133 On ch=1 n=e5 v=53
158148 On ch=1 n=e5 v=0
158158 On ch=1 n=c#6 v=0
158172 On ch=1 n=a#4 v=0
158175 On ch=1 n=g4 v=60
158183 On ch=1 n=e5 v=75
158218 On ch=1 n=e5 v=0
158230 On ch=1 n=g4 v=0
158248 On ch=1 n=g5 v=77
158248 On ch=1 n=a3 v=55
158250 On ch=1 n=g4 v=25
158253 On ch=1 n=e6 v=51
158260 On ch=1 n=g5 v=0
158263 On ch=1 n=a3 v=0
158275 On ch=1 n=e6 v=0
158308 On ch=1 n=g5 v=96
158320 On ch=1 n=c#5 v=65
158345 On ch=1 n=g5 v=0
158352 On ch=1 n=c#5 v=0
158362 On ch=1 n=g4 v=0
158373 On ch=1 n=a#5 v=67
158375 On ch=1 n=g6 v=90
158398 On ch=1 n=a#5 v=0
158402 On ch=1 n=g6 v=0
158410 On ch=1 n=b3 v=32
158425 On ch=1 n=b3 v=0
158440 On ch=1 n=a#5 v=97
158450 On ch=1 n=e5 v=72
158465 On ch=1 n=e5 v=0
158474 On ch=1 n=a#5 v=0
158502 On ch=1 n=a#6 v=86
158505 On ch=1 n=c#6 v=75
158520 On ch=1 n=c#6 v=0
158542 On ch=1 n=a#6 v=0
158567 On ch=1 n=c#6 v=89
158609 On ch=1 n=c#6 v=0
158630 On ch=1 n=c#7 v=84
158637 On ch=1 n=e6 v=82
158649 On ch=1 n=e6 v=0
158667 On ch=1 n=c#7 v=0
158745 Par ch=1 c=64 v=72
158752 Par ch=1 c=64 v=0
158762 On ch=1 n=a7 v=102
158767 On ch=1 n=f7 v=89
158769 On ch=1 n=a3 v=86
158772 On ch=1 n=a2 v=66
158792 On ch=1 n=a2 v=0
158797 Par ch=1 c=64 v=24
158804 Par ch=1 c=64 v=88
158806 On ch=1 n=a3 v=0
158812 Par ch=1 c=64 v=127
158822 On ch=1 n=a7 v=0
158824 On ch=1 n=f7 v=0
158839 On ch=1 n=e7 v=88
158899 On ch=1 n=e7 v=0
158902 On ch=1 n=d7 v=83
158912 On ch=1 n=d4 v=79
158914 On ch=1 n=d3 v=66
158949 On ch=1 n=d3 v=0
158964 On ch=1 n=a6 v=85
158967 On ch=1 n=d4 v=0
158967 On ch=1 n=d7 v=0
158994 On ch=1 n=a6 v=0
159024 On ch=1 n=a6 v=71
159027 On ch=1 n=f6 v=82
159032 On ch=1 n=e4 v=82
159034 On ch=1 n=e3 v=66
159061 On ch=1 n=a6 v=0
159069 On ch=1 n=f6 v=0
159071 On ch=1 n=e3 v=0
159087 On ch=1 n=e6 v=83
159092 On ch=1 n=e4 v=0
159147 On ch=1 n=e6 v=0
159147 On ch=1 n=d6 v=80
159152 On ch=1 n=f4 v=84
159154 On ch=1 n=f3 v=72
159172 Par ch=1 c=64 v=104
159179 Par ch=1 c=64 v=40
159187 Par ch=1 c=64 v=0
159214 On ch=1 n=d6 v=0
159214 On ch=1 n=a5 v=83
159219 Par ch=1 c=64 v=24
159227 Par ch=1 c=64 v=88
159234 Par ch=1 c=64 v=127
159249 On ch=1 n=a5 v=0
159282 On ch=1 n=a5 v=71
159289 On ch=1 n=f5 v=64
159319 On ch=1 n=a5 v=0
159321 On ch=1 n=f5 v=0
159344 On ch=1 n=e5 v=75
159376 On ch=1 n=f3 v=0
159396 On ch=1 n=e5 v=0
159406 On ch=1 n=d5 v=75
159426 On ch=1 n=f4 v=0
159451 On ch=1 n=d5 v=0
159469 On ch=1 n=a4 v=64
159496 On ch=1 n=a4 v=0
159529 Par ch=1 c=64 v=88
159536 Par ch=1 c=64 v=40
159544 Par ch=1 c=64 v=0
159546 On ch=1 n=c#5 v=85
159554 On ch=1 n=a#4 v=58
159569 Par ch=1 c=64 v=56
159576 Par ch=1 c=64 v=104
159583 On ch=1 n=c#5 v=0
159584 Par ch=1 c=64 v=127
159601 On ch=1 n=a#4 v=0
159611 On ch=1 n=c#6 v=77
159618 On ch=1 n=e5 v=63
159621 On ch=1 n=g4 v=64
159630 On ch=1 n=e5 v=0
159651 On ch=1 n=c#6 v=0
159656 On ch=1 n=g4 v=0
159678 On ch=1 n=e5 v=86
159688 On ch=1 n=a3 v=63
159705 On ch=1 n=a3 v=0
159713 On ch=1 n=e5 v=0
159748 On ch=1 n=g5 v=76
159751 On ch=1 n=e6 v=56
159763 On ch=1 n=g5 v=0
159771 On ch=1 n=c#5 v=58
159781 On ch=1 n=e6 v=0
159811 On ch=1 n=g5 v=92
159816 On ch=1 n=c#5 v=0
159828 On ch=1 n=g4 v=64
159848 On ch=1 n=g5 v=0
159860 On ch=1 n=g4 v=0
159870 On ch=1 n=a#5 v=77
159870 On ch=1 n=g6 v=90
159888 On ch=1 n=a3 v=63
159900 On ch=1 n=a#5 v=0
159902 On ch=1 n=g6 v=0
159903 On ch=1 n=a3 v=0
159938 On ch=1 n=a#5 v=95
159948 On ch=1 n=e5 v=70
159973 On ch=1 n=a#5 v=0
159975 On ch=1 n=e5 v=0
160003 On ch=1 n=c#6 v=85
160003 On ch=1 n=a#6 v=72
160023 On ch=1 n=a3 v=64
160033 On ch=1 n=c#6 v=0
160038 On ch=1 n=a3 v=0
160038 On ch=1 n=a#6 v=0
160070 On ch=1 n=c#6 v=91
160080 On ch=1 n=g5 v=80
160088 On ch=1 n=c#7 v=42
160103 On ch=1 n=c#7 v=0
160105 On ch=1 n=g5 v=0
160107 On ch=1 n=c#6 v=0
160130 On ch=1 n=c#7 v=72
160138 On ch=1 n=e6 v=89
160163 On ch=1 n=e6 v=0
160177 On ch=1 n=c#7 v=0
160200 On ch=1 n=e6 v=89
160245 On ch=1 n=e6 v=0
160260 On ch=1 n=g6 v=83
160265 On ch=1 n=e7 v=96
160280 On ch=1 n=g6 v=0
160297 On ch=1 n=e7 v=0
160378 Par ch=1 c=64 v=88
160385 Par ch=1 c=64 v=0
160395 On ch=1 n=f7 v=99
160398 On ch=1 n=d8 v=97
160400 On ch=1 n=a3 v=82
160400 On ch=1 n=a2 v=69
160430 On ch=1 n=a2 v=0
160433 Par ch=1 c=64 v=40
160435 On ch=1 n=a3 v=0
160440 Par ch=1 c=64 v=127
160455 On ch=1 n=d8 v=0
160460 On ch=1 n=f7 v=0
160480 On ch=1 n=a7 v=83
160535 On ch=1 n=a7 v=0
160543 On ch=1 n=f7 v=84
160553 On ch=1 n=d4 v=66
160553 On ch=1 n=d3 v=58
160583 On ch=1 n=d3 v=0
160593 On ch=1 n=d4 v=0
160600 On ch=1 n=f7 v=0
160608 On ch=1 n=d7 v=65
160645 On ch=1 n=d7 v=0
160670 On ch=1 n=a7 v=90
160670 On ch=1 n=e4 v=72
160673 On ch=1 n=d7 v=60
160675 On ch=1 n=d7 v=73
160675 On ch=1 n=e3 v=59
160708 On ch=1 n=d7 v=0
160710 On ch=1 n=a7 v=0
160712 On ch=1 n=e3 v=0
160715 On ch=1 n=d7 v=0
160722 On ch=1 n=e4 v=0
160738 On ch=1 n=f7 v=72
160793 On ch=1 n=d7 v=81
160798 On ch=1 n=f7 v=0
160800 On ch=1 n=g4 v=80
160808 On ch=1 n=g3 v=69
160808 Par ch=1 c=64 v=104
160815 Par ch=1 c=64 v=72
160823 Par ch=1 c=64 v=56
160830 Par ch=1 c=64 v=72
160838 Par ch=1 c=64 v=104
160845 On ch=1 n=g3 v=0
160845 On ch=1 n=g4 v=0
160845 Par ch=1 c=64 v=127
160850 On ch=1 n=d7 v=0
160858 On ch=1 n=a6 v=81
160898 On ch=1 n=a6 v=0
160920 On ch=1 n=f7 v=93
160923 On ch=1 n=a6 v=80
160933 On ch=1 n=f4 v=74
160935 On ch=1 n=f3 v=63
160965 On ch=1 n=f3 v=0
160968 On ch=1 n=f4 v=0
160972 On ch=1 n=f7 v=0
160978 On ch=1 n=a6 v=0
160993 On ch=1 n=d7 v=78
161048 On ch=1 n=d7 v=0
161048 On ch=1 n=g#4 v=74
161050 On ch=1 n=g#3 v=68
161050 On ch=1 n=a6 v=81
161075 On ch=1 n=g#3 v=0
161078 On ch=1 n=g#4 v=0
161100 On ch=1 n=a6 v=0
161105 On ch=1 n=f6 v=84
161145 On ch=1 n=f6 v=0
161173 On ch=1 n=f6 v=77
161173 On ch=1 n=d7 v=83
161175 On ch=1 n=b4 v=74
161175 Par ch=1 c=64 v=72
161180 On ch=1 n=b3 v=66
161183 Par ch=1 c=64 v=24
161190 Par ch=1 c=64 v=0
161215 On ch=1 n=b3 v=0
161215 Par ch=1 c=64 v=56
161220 On ch=1 n=f6 v=0
161223 Par ch=1 c=64 v=88
161225 On ch=1 n=b4 v=0
161225 On ch=1 n=d7 v=0
161230 Par ch=1 c=64 v=127
161240 On ch=1 n=b6 v=77
161295 On ch=1 n=f6 v=83
161305 On ch=1 n=b6 v=0
161305 On ch=1 n=a4 v=74
161308 On ch=1 n=a3 v=77
161337 On ch=1 n=a4 v=0
161338 On ch=1 n=a3 v=0
161345 On ch=1 n=f6 v=0
161355 On ch=1 n=d6 v=82
161397 On ch=1 n=d6 v=0
161403 Par ch=1 c=64 v=72
161410 Par ch=1 c=64 v=40
161415 On ch=1 n=c#5 v=86
161418 On ch=1 n=b6 v=86
161418 On ch=1 n=c#4 v=82
161423 On ch=1 n=d6 v=79
161435 Par ch=1 c=64 v=88
161443 On ch=1 n=c#4 v=0
161443 Par ch=1 c=64 v=127
161447 On ch=1 n=c#5 v=0
161458 On ch=1 n=d6 v=0
161468 On ch=1 n=b6 v=0
161483 On ch=1 n=f6 v=81
161533 On ch=1 n=e5 v=84
161535 On ch=1 n=d6 v=82
161538 On ch=1 n=e4 v=82
161543 On ch=1 n=f6 v=0
161570 On ch=1 n=e4 v=0
161578 On ch=1 n=e5 v=0
161590 On ch=1 n=d6 v=0
161600 On ch=1 n=a5 v=65
161640 On ch=1 n=a5 v=0
161660 On ch=1 n=d5 v=86
161665 On ch=1 n=d4 v=89
161668 On ch=1 n=f6 v=80
161673 On ch=1 n=a5 v=46
161685 Par ch=1 c=64 v=104
161693 Par ch=1 c=64 v=40
161700 Par ch=1 c=64 v=0
161710 On ch=1 n=a5 v=0
161715 On ch=1 n=f6 v=0
161735 On ch=1 n=d6 v=74
161735 Par ch=1 c=64 v=40
161745 Par ch=1 c=64 v=104
161752 Par ch=1 c=64 v=127
161772 On ch=1 n=d5 v=0
161795 On ch=1 n=a5 v=75
161797 On ch=1 n=d6 v=0
161797 On ch=1 n=d4 v=0
161842 On ch=1 n=a5 v=0
161857 On ch=1 n=f5 v=68
161904 On ch=1 n=f5 v=0
161907 Par ch=1 c=64 v=104
161915 Par ch=1 c=64 v=40
161925 Par ch=1 c=64 v=0
161940 On ch=1 n=g#3 v=91
161942 On ch=1 n=d6 v=85
161945 On ch=1 n=f5 v=68
161945 On ch=1 n=g#2 v=75
161957 Par ch=1 c=64 v=40
161965 Par ch=1 c=64 v=88
161970 On ch=1 n=g#2 v=0
161972 On ch=1 n=g#3 v=0
161972 Par ch=1 c=64 v=127
161980 On ch=1 n=f5 v=0
161992 On ch=1 n=d6 v=0
162007 On ch=1 n=b5 v=66
162067 On ch=1 n=b5 v=0
162067 On ch=1 n=f5 v=77
162070 On ch=1 n=d4 v=80
162077 On ch=1 n=d3 v=73
162099 On ch=1 n=d3 v=0
162110 On ch=1 n=d4 v=0
162117 On ch=1 n=f5 v=0
162127 On ch=1 n=d5 v=77
162167 On ch=1 n=d5 v=0
162187 On ch=1 n=e4 v=84
162192 On ch=1 n=b5 v=77
162194 On ch=1 n=e3 v=77
162194 On ch=1 n=d5 v=72
162224 On ch=1 n=e3 v=0
162234 On ch=1 n=e4 v=0
162236 On ch=1 n=d5 v=0
162239 On ch=1 n=b5 v=0
162256 On ch=1 n=f5 v=76
162316 On ch=1 n=f5 v=0
162316 On ch=1 n=f4 v=84
162319 On ch=1 n=d5 v=79
162324 On ch=1 n=f3 v=82
162341 Par ch=1 c=64 v=56
162349 Par ch=1 c=64 v=0
162379 Par ch=1 c=64 v=40
162384 On ch=1 n=d5 v=0
162389 On ch=1 n=b4 v=76
162389 Par ch=1 c=64 v=88
162396 Par ch=1 c=64 v=127
162434 On ch=1 n=b4 v=0
162464 On ch=1 n=f5 v=80
162471 On ch=1 n=b4 v=65
162488 On ch=1 n=b4 v=0
162496 On ch=1 n=f5 v=0
162521 On ch=1 n=d5 v=80
162531 On ch=1 n=f4 v=0
162561 On ch=1 n=f3 v=0
162576 On ch=1 n=d5 v=0
162581 On ch=1 n=b4 v=73
162631 On ch=1 n=b4 v=0
162641 On ch=1 n=f4 v=82
162683 On ch=1 n=f4 v=0
162716 On ch=1 n=e5 v=82
162721 On ch=1 n=b4 v=78
162724 Par ch=1 c=64 v=56
162726 On ch=1 n=g#3 v=72
162729 On ch=1 n=g#2 v=60
162734 Par ch=1 c=64 v=0
162766 On ch=1 n=b4 v=0
162768 On ch=1 n=e5 v=0
162769 Par ch=1 c=64 v=56
162779 Par ch=1 c=64 v=104
162786 On ch=1 n=d5 v=70
162786 Par ch=1 c=64 v=127
162844 On ch=1 n=b4 v=71
162848 On ch=1 n=d5 v=0
162896 On ch=1 n=b4 v=0
162901 On ch=1 n=e4 v=70
162941 On ch=1 n=e4 v=0
162966 On ch=1 n=b4 v=85
162971 On ch=1 n=f5 v=83
163006 On ch=1 n=b4 v=0
163021 On ch=1 n=f5 v=0
163036 On ch=1 n=d5 v=82
163046 On ch=1 n=g#2 v=0
163066 On ch=1 n=g#3 v=0
163099 On ch=1 n=b4 v=76
163121 On ch=1 n=d5 v=0
163144 On ch=1 n=b4 v=0
163156 On ch=1 n=e4 v=78
163198 On ch=1 n=e4 v=0
163224 On ch=1 n=e5 v=89
163224 On ch=1 n=g#4 v=76
163226 Par ch=1 c=64 v=40
163231 On ch=1 n=c4 v=78
163231 On ch=1 n=c3 v=68
163234 Par ch=1 c=64 v=0
163266 Par ch=1 c=64 v=56
163274 Par ch=1 c=64 v=127
163276 On ch=1 n=e5 v=0
163279 On ch=1 n=g#4 v=0
163286 On ch=1 n=c3 v=0
163289 On ch=1 n=d5 v=73
163293 On ch=1 n=c4 v=0
163359 On ch=1 n=g#4 v=73
163361 On ch=1 n=b3 v=85
163366 On ch=1 n=b2 v=70
163403 On ch=1 n=b2 v=0
163409 On ch=1 n=d5 v=0
163411 On ch=1 n=b3 v=0
163426 On ch=1 n=g#4 v=0
163429 On ch=1 n=e4 v=88
163441 On ch=1 n=e4 v=0
163576 On ch=1 n=a3 v=105
163576 On ch=1 n=a2 v=81
163576 Par ch=1 c=64 v=24
163581 On ch=1 n=a7 v=90
163584 On ch=1 n=f7 v=71
163586 Par ch=1 c=64 v=0
163611 On ch=1 n=a2 v=0
163626 On ch=1 n=a3 v=0
163626 Par ch=1 c=64 v=88
163629 On ch=1 n=f7 v=0
163633 On ch=1 n=a7 v=0
163634 Par ch=1 c=64 v=127
163651 On ch=1 n=e7 v=92
163708 On ch=1 n=e7 v=0
163719 On ch=1 n=c7 v=82
163719 On ch=1 n=e4 v=81
163719 On ch=1 n=e3 v=74
163751 On ch=1 n=e3 v=0
163759 On ch=1 n=e4 v=0
163779 On ch=1 n=a6 v=78
163781 On ch=1 n=c7 v=0
163816 On ch=1 n=a6 v=0
163861 On ch=1 n=b4 v=84
163861 On ch=1 n=b3 v=78
163861 On ch=1 n=a6 v=63
163861 On ch=1 n=f6 v=74
163893 On ch=1 n=a6 v=0
163896 On ch=1 n=b4 v=0
163898 On ch=1 n=b3 v=0
163901 On ch=1 n=f6 v=0
163919 On ch=1 n=e6 v=76
163971 On ch=1 n=e6 v=0
163974 On ch=1 n=c6 v=79
163974 On ch=1 n=c4 v=83
163974 On ch=1 n=c5 v=87
164009 Par ch=1 c=64 v=72
164014 Par ch=1 c=64 v=0
164041 On ch=1 n=c6 v=0
164044 On ch=1 n=a5 v=78
164049 Par ch=1 c=64 v=72
164056 Par ch=1 c=64 v=127
164071 On ch=1 n=a5 v=0
164071 On ch=1 n=c4 v=0
164076 On ch=1 n=c5 v=0
164106 On ch=1 n=a5 v=67
164106 On ch=1 n=f5 v=66
164141 On ch=1 n=a5 v=0
164143 On ch=1 n=f5 v=0
164176 On ch=1 n=e5 v=70
164216 On ch=1 n=e5 v=0
164231 On ch=1 n=c5 v=70
164286 On ch=1 n=c5 v=0
164294 On ch=1 n=a4 v=70
164329 On ch=1 n=a4 v=0
164361 Par ch=1 c=64 v=88
164369 On ch=1 n=g#4 v=77
164369 Par ch=1 c=64 v=24
164376 On ch=1 n=f4 v=60
164376 Par ch=1 c=64 v=0
164404 On ch=1 n=g#4 v=0
164409 Par ch=1 c=64 v=56
164416 Par ch=1 c=64 v=104
164423 On ch=1 n=f4 v=0
164424 Par ch=1 c=64 v=127
164436 On ch=1 n=g#5 v=61
164436 On ch=1 n=b4 v=56
164436 On ch=1 n=d4 v=64
164451 On ch=1 n=b4 v=0
164468 On ch=1 n=d4 v=0
164478 On ch=1 n=g#5 v=0
164496 On ch=1 n=b4 v=73
164499 On ch=1 n=a3 v=68
164511 On ch=1 n=a3 v=0
164533 On ch=1 n=b4 v=0
164556 On ch=1 n=g#4 v=54
164559 On ch=1 n=b5 v=79
164559 On ch=1 n=d5 v=73
164576 On ch=1 n=d5 v=0
164596 On ch=1 n=b5 v=0
164613 On ch=1 n=g#4 v=0
164621 On ch=1 n=d5 v=87
164631 On ch=1 n=f4 v=54
164655 On ch=1 n=d5 v=0
164683 On ch=1 n=f5 v=76
164688 On ch=1 n=a3 v=54
164688 On ch=1 n=d6 v=49
164705 On ch=1 n=f5 v=0
164715 On ch=1 n=a3 v=0
164720 On ch=1 n=d6 v=0
164743 On ch=1 n=f5 v=87
164743 On ch=1 n=b4 v=64
164753 On ch=1 n=f4 v=0
164763 On ch=1 n=b4 v=0
164783 On ch=1 n=f5 v=0
164806 On ch=1 n=f6 v=80
164806 On ch=1 n=f4 v=62
164806 On ch=1 n=g#5 v=75
164821 On ch=1 n=f4 v=0
164831 On ch=1 n=f6 v=0
164856 On ch=1 n=g#5 v=0
164863 On ch=1 n=g#5 v=97
164863 On ch=1 n=a3 v=75
164900 On ch=1 n=g#5 v=0
164910 On ch=1 n=a3 v=0
164925 On ch=1 n=g#6 v=87
164925 On ch=1 n=d5 v=80
164925 On ch=1 n=b5 v=75
164952 On ch=1 n=d5 v=0
164967 On ch=1 n=g#6 v=0
164975 On ch=1 n=b5 v=0
164993 On ch=1 n=b5 v=90
165043 On ch=1 n=b5 v=0
165058 On ch=1 n=b6 v=75
165058 On ch=1 n=d6 v=75
165073 On ch=1 n=d6 v=0
165083 On ch=1 n=b6 v=0
165145 Par ch=1 c=64 v=104
165153 Par ch=1 c=64 v=40
165160 Par ch=1 c=64 v=0
165180 On ch=1 n=a7 v=105
165183 On ch=1 n=f7 v=93
165183 On ch=1 n=a2 v=66
165185 On ch=1 n=a3 v=87
165208 Par ch=1 c=64 v=56
165213 On ch=1 n=a2 v=0
165215 On ch=1 n=a3 v=0
165218 Par ch=1 c=64 v=127
165225 On ch=1 n=a7 v=0
165230 On ch=1 n=f7 v=0
165253 On ch=1 n=e7 v=84
165310 On ch=1 n=e7 v=0
165315 On ch=1 n=c7 v=86
165323 On ch=1 n=e4 v=78
165325 On ch=1 n=e3 v=64
165352 On ch=1 n=e3 v=0
165358 On ch=1 n=e4 v=0
165378 On ch=1 n=a6 v=74
165382 On ch=1 n=c7 v=0
165410 On ch=1 n=a6 v=0
165438 On ch=1 n=a6 v=69
165443 On ch=1 n=f6 v=82
165445 On ch=1 n=b4 v=76
165450 On ch=1 n=b3 v=73
165475 On ch=1 n=b3 v=0
165480 On ch=1 n=b4 v=0
165480 On ch=1 n=a6 v=0
165483 On ch=1 n=f6 v=0
165505 On ch=1 n=e6 v=80
165553 On ch=1 n=c6 v=85
165560 On ch=1 n=e6 v=0
165568 On ch=1 n=c5 v=83
165573 On ch=1 n=c4 v=82
165583 Par ch=1 c=64 v=88
165590 Par ch=1 c=64 v=0
165615 Par ch=1 c=64 v=24
165623 On ch=1 n=c6 v=0
165623 On ch=1 n=a5 v=75
165623 Par ch=1 c=64 v=72
165630 Par ch=1 c=64 v=127
165658 On ch=1 n=a5 v=0
165658 On ch=1 n=c4 v=0
165665 On ch=1 n=c5 v=0
165688 On ch=1 n=a5 v=66
165698 On ch=1 n=f5 v=66
165725 On ch=1 n=a5 v=0
165735 On ch=1 n=f5 v=0
165753 On ch=1 n=e5 v=65
165803 On ch=1 n=e5 v=0
165808 On ch=1 n=c5 v=54
165853 On ch=1 n=c5 v=0
165868 On ch=1 n=a4 v=60
165890 On ch=1 n=a4 v=0
165920 Par ch=1 c=64 v=104
165928 Par ch=1 c=64 v=24
165935 Par ch=1 c=64 v=0
165943 On ch=1 n=b4 v=69
165948 On ch=1 n=g#4 v=44
165975 On ch=1 n=b4 v=0
165975 Par ch=1 c=64 v=24
165983 Par ch=1 c=64 v=104
165988 On ch=1 n=g#4 v=0
165990 Par ch=1 c=64 v=127
166000 On ch=1 n=b5 v=72
166012 On ch=1 n=d5 v=44
166022 On ch=1 n=f4 v=49
166029 On ch=1 n=d5 v=0
166037 On ch=1 n=b5 v=0
166044 On ch=1 n=f4 v=0
166065 On ch=1 n=d5 v=72
166075 On ch=1 n=a3 v=63
166092 On ch=1 n=a3 v=0
166100 On ch=1 n=d5 v=0
166132 On ch=1 n=f5 v=77
166135 On ch=1 n=d6 v=81
166137 On ch=1 n=b4 v=58
166144 On ch=1 n=f5 v=0
166167 On ch=1 n=d6 v=0
166169 On ch=1 n=b4 v=0
166190 On ch=1 n=f5 v=85
166197 On ch=1 n=f4 v=58
166227 On ch=1 n=f5 v=0
166237 On ch=1 n=g#5 v=71
166239 On ch=1 n=f6 v=85
166239 On ch=1 n=a3 v=69
166261 On ch=1 n=f4 v=0
166264 On ch=1 n=g#5 v=0
166269 On ch=1 n=f6 v=0
166271 On ch=1 n=a3 v=0
166302 On ch=1 n=g#5 v=92
166304 On ch=1 n=d5 v=76
166332 On ch=1 n=g#5 v=0
166336 On ch=1 n=d5 v=0
166362 On ch=1 n=g#6 v=88
166377 On ch=1 n=a3 v=75
166392 On ch=1 n=a3 v=0
166402 On ch=1 n=g#6 v=0
166429 On ch=1 n=b5 v=97
166432 On ch=1 n=f5 v=74
166454 On ch=1 n=f5 v=0
166464 On ch=1 n=b5 v=0
166489 On ch=1 n=d6 v=90
166489 On ch=1 n=b6 v=94
166519 On ch=1 n=d6 v=0
166531 On ch=1 n=b6 v=0
166554 On ch=1 n=d6 v=90
166594 On ch=1 n=d6 v=0
166609 On ch=1 n=d7 v=85
166617 On ch=1 n=f6 v=68
166629 On ch=1 n=f6 v=0
166641 On ch=1 n=d7 v=0
166729 Par ch=1 c=64 v=104
166737 Par ch=1 c=64 v=40
166744 Par ch=1 c=64 v=0
166747 On ch=1 n=e8 v=96
166752 On ch=1 n=a7 v=99
166752 On ch=1 n=a2 v=70
166754 On ch=1 n=a3 v=85
166764 On ch=1 n=b7 v=44
166776 On ch=1 n=b7 v=0
166784 On ch=1 n=a2 v=0
166784 Par ch=1 c=64 v=72
166792 Par ch=1 c=64 v=127
166794 On ch=1 n=a3 v=0
166797 On ch=1 n=a7 v=0
166804 On ch=1 n=e8 v=0
166829 On ch=1 n=c8 v=90
166884 On ch=1 n=c8 v=0
166899 On ch=1 n=a7 v=99
166902 On ch=1 n=e4 v=74
166904 On ch=1 n=e3 v=64
166936 On ch=1 n=e3 v=0
166939 On ch=1 n=e4 v=0
166949 On ch=1 n=a7 v=0
166959 On ch=1 n=e7 v=84
167004 On ch=1 n=e7 v=0
167019 On ch=1 n=g#4 v=73
167024 On ch=1 n=c8 v=86
167024 On ch=1 n=e7 v=77
167024 On ch=1 n=g#3 v=70
167049 On ch=1 n=g#4 v=0
167056 On ch=1 n=g#3 v=0
167064 On ch=1 n=e7 v=0
167069 On ch=1 n=c8 v=0
167089 On ch=1 n=a7 v=87
167139 On ch=1 n=b4 v=74
167141 On ch=1 n=a7 v=0
167149 On ch=1 n=b3 v=72
167151 On ch=1 n=e7 v=86
167169 On ch=1 n=b3 v=0
167181 On ch=1 n=b4 v=0
167203 On ch=1 n=e7 v=0
167211 On ch=1 n=c7 v=79
167256 On ch=1 n=c7 v=0
167271 On ch=1 n=a4 v=73
167274 Par ch=1 c=64 v=88
167276 On ch=1 n=a7 v=78
167276 On ch=1 n=a3 v=52
167281 On ch=1 n=c7 v=75
167281 On ch=1 n=d7 v=44
167281 Par ch=1 c=64 v=56
167293 On ch=1 n=d7 v=0
167303 Par ch=1 c=64 v=104
167305 On ch=1 n=a3 v=0
167310 On ch=1 n=a7 v=0
167311 Par ch=1 c=64 v=127
167315 On ch=1 n=c7 v=0
167333 On ch=1 n=a4 v=0
167336 On ch=1 n=e7 v=83
167388 On ch=1 n=e7 v=0
167398 On ch=1 n=c7 v=85
167406 On ch=1 n=b4 v=70
167406 Par ch=1 c=64 v=88
167411 On ch=1 n=b3 v=60
167428 Par ch=1 c=64 v=127
167446 On ch=1 n=b3 v=0
167456 On ch=1 n=a6 v=80
167458 On ch=1 n=b4 v=0
167458 On ch=1 n=c7 v=0
167503 On ch=1 n=a6 v=0
167518 On ch=1 n=e7 v=88
167523 On ch=1 n=a6 v=79
167526 On ch=1 n=d5 v=80
167528 On ch=1 n=d4 v=74
167528 Par ch=1 c=64 v=88
167536 Par ch=1 c=64 v=72
167546 Par ch=1 c=64 v=88
167553 Par ch=1 c=64 v=104
167560 On ch=1 n=d4 v=0
167561 Par ch=1 c=64 v=127
167570 On ch=1 n=e7 v=0
167573 On ch=1 n=d5 v=0
167575 On ch=1 n=a6 v=0
167586 On ch=1 n=c7 v=84
167646 On ch=1 n=a6 v=82
167648 On ch=1 n=c5 v=72
167653 On ch=1 n=c7 v=0
167658 On ch=1 n=c4 v=66
167673 On ch=1 n=c4 v=0
167690 On ch=1 n=c5 v=0
167698 On ch=1 n=a6 v=0
167703 On ch=1 n=e6 v=81
167750 On ch=1 n=e6 v=0
167758 Par ch=1 c=64 v=104
167761 On ch=1 n=d#5 v=90
167761 On ch=1 n=d#4 v=86
167766 Par ch=1 c=64 v=56
167773 On ch=1 n=c7 v=76
167773 Par ch=1 c=64 v=0
167776 On ch=1 n=e6 v=73
167788 Par ch=1 c=64 v=24
167793 On ch=1 n=d#4 v=0
167793 On ch=1 n=d#5 v=0
167796 Par ch=1 c=64 v=72
167803 Par ch=1 c=64 v=127
167811 On ch=1 n=e6 v=0
167818 On ch=1 n=c7 v=0
167833 On ch=1 n=a6 v=76
167891 On ch=1 n=f5 v=87
167891 On ch=1 n=e6 v=82
167893 On ch=1 n=a6 v=0
167898 On ch=1 n=f4 v=70
167933 On ch=1 n=f4 v=0
167943 On ch=1 n=e6 v=0
167950 On ch=1 n=f5 v=0
167953 On ch=1 n=c6 v=83
168000 On ch=1 n=c6 v=0
168010 On ch=1 n=e5 v=94
168015 On ch=1 n=e4 v=89
168025 On ch=1 n=a6 v=78
168035 Par ch=1 c=64 v=88
168038 On ch=1 n=c6 v=50
168043 Par ch=1 c=64 v=0
168063 On ch=1 n=c6 v=0
168075 On ch=1 n=a6 v=0
168085 On ch=1 n=e6 v=81
168087 Par ch=1 c=64 v=56
168095 Par ch=1 c=64 v=127
168119 On ch=1 n=e5 v=0
168139 On ch=1 n=e4 v=0
168140 On ch=1 n=c6 v=80
168155 On ch=1 n=e6 v=0
168190 On ch=1 n=c6 v=0
168200 On ch=1 n=a5 v=72
168250 On ch=1 n=a5 v=0
168280 On ch=1 n=e6 v=80
168285 On ch=1 n=g3 v=99
168285 On ch=1 n=g2 v=81
168287 On ch=1 n=a5 v=60
168315 Par ch=1 c=64 v=104
168322 Par ch=1 c=64 v=24
168330 Par ch=1 c=64 v=0
168332 On ch=1 n=a5 v=0
168335 On ch=1 n=e6 v=0
168350 On ch=1 n=c6 v=73
168370 Par ch=1 c=64 v=24
168377 Par ch=1 c=64 v=88
168385 Par ch=1 c=64 v=127
168405 On ch=1 n=a5 v=76
168417 On ch=1 n=c6 v=0
168450 On ch=1 n=a5 v=0
168460 On ch=1 n=e5 v=70
168497 On ch=1 n=e5 v=0
168527 On ch=1 n=e5 v=69
168530 On ch=1 n=c6 v=78
168559 On ch=1 n=e5 v=0
168562 On ch=1 n=c6 v=0
168592 On ch=1 n=a5 v=70
168652 On ch=1 n=e5 v=79
168667 On ch=1 n=a5 v=0
168702 On ch=1 n=e5 v=0
168712 On ch=1 n=c5 v=76
168749 On ch=1 n=c5 v=0
168772 On ch=1 n=a5 v=75
168777 On ch=1 n=c5 v=66
168807 On ch=1 n=c5 v=0
168807 On ch=1 n=a5 v=0
168834 On ch=1 n=e5 v=74
168894 On ch=1 n=e5 v=0
168894 On ch=1 n=g2 v=0
168894 On ch=1 n=c5 v=74
168904 On ch=1 n=g3 v=0
168944 On ch=1 n=c5 v=0
168947 On ch=1 n=a4 v=68
168982 On ch=1 n=a4 v=0
169007 On ch=1 n=a4 v=69
169007 On ch=1 n=f#3 v=62
169009 On ch=1 n=e5 v=77
169014 On ch=1 n=f#2 v=70
169017 Par ch=1 c=64 v=72
169024 Par ch=1 c=64 v=0
169047 On ch=1 n=a4 v=0
169054 On ch=1 n=e5 v=0
169064 Par ch=1 c=64 v=72
169072 On ch=1 n=c5 v=69
169072 Par ch=1 c=64 v=127
169129 On ch=1 n=c5 v=0
169132 On ch=1 n=a4 v=60
169167 On ch=1 n=a4 v=0
169174 On ch=1 n=e4 v=79
169204 On ch=1 n=e4 v=0
169252 On ch=1 n=c5 v=73
169254 On ch=1 n=a5 v=70
169264 On ch=1 n=c5 v=0
169284 On ch=1 n=a5 v=0
169314 On ch=1 n=e5 v=82
169326 On ch=1 n=f#2 v=0
169329 On ch=1 n=f#3 v=0
169367 Par ch=1 c=64 v=104
169374 On ch=1 n=c5 v=79
169374 On ch=1 n=f3 v=65
169377 Par ch=1 c=64 v=24
169382 On ch=1 n=f2 v=65
169384 Par ch=1 c=64 v=0
169396 On ch=1 n=e5 v=0
169399 Par ch=1 c=64 v=24
169407 Par ch=1 c=64 v=56
169417 Par ch=1 c=64 v=104
169424 Par ch=1 c=64 v=127
169431 On ch=1 n=c5 v=0
169437 On ch=1 n=a4 v=74
169474 On ch=1 n=a4 v=0
169502 On ch=1 n=e5 v=80
169504 On ch=1 n=a4 v=64
169539 On ch=1 n=a4 v=0
169544 On ch=1 n=e5 v=0
169567 On ch=1 n=c5 v=66
169622 On ch=1 n=c5 v=0
169632 On ch=1 n=a4 v=61
169644 On ch=1 n=f2 v=0
169646 On ch=1 n=f3 v=0
169669 On ch=1 n=a4 v=0
169689 On ch=1 n=e4 v=61
169706 On ch=1 n=e4 v=0
169792 On ch=1 n=e5 v=66
169797 On ch=1 n=c5 v=58
169797 On ch=1 n=e3 v=53
169804 On ch=1 n=e2 v=60
169854 On ch=1 n=c5 v=0
169874 On ch=1 n=b4 v=46
169877 On ch=1 n=f5 v=63
169882 On ch=1 n=e5 v=0
169924 On ch=1 n=b4 v=0
169929 On ch=1 n=f5 v=0
169944 On ch=1 n=e5 v=69
169947 On ch=1 n=c5 v=61
169999 On ch=1 n=c5 v=0
170014 On ch=1 n=e5 v=0
170014 On ch=1 n=e2 v=0
170014 On ch=1 n=f5 v=72
170014 On ch=1 n=a4 v=60
170042 On ch=1 n=e3 v=0
170061 On ch=1 n=a4 v=0
170066 On ch=1 n=f5 v=0
170084 On ch=1 n=e5 v=67
170087 On ch=1 n=c5 v=54
170134 On ch=1 n=c5 v=0
170146 On ch=1 n=e5 v=0
170149 On ch=1 n=f5 v=70
170152 On ch=1 n=b4 v=58
170199 On ch=1 n=f5 v=0
170202 On ch=1 n=b4 v=0
170227 On ch=1 n=e5 v=70
170227 On ch=1 n=c5 v=63
170232 On ch=1 n=e4 v=63
170234 On ch=1 n=e3 v=51
170277 On ch=1 n=c5 v=0
170289 On ch=1 n=e5 v=0
170294 On ch=1 n=f5 v=70
170299 On ch=1 n=a4 v=55
170344 On ch=1 n=f5 v=0
170349 On ch=1 n=a4 v=0
170367 On ch=1 n=e5 v=66
170367 On ch=1 n=c5 v=55
170414 On ch=1 n=c5 v=0
170431 On ch=1 n=e3 v=0
170432 On ch=1 n=e5 v=0
170432 On ch=1 n=f5 v=68
170434 On ch=1 n=b4 v=54
170444 On ch=1 n=e4 v=0
170476 On ch=1 n=f5 v=0
170488 On ch=1 n=b4 v=0
170499 On ch=1 n=e4 v=68
170504 On ch=1 n=e5 v=70
170504 On ch=1 n=c5 v=64
170506 On ch=1 n=e3 v=53
170544 On ch=1 n=e4 v=0
170549 On ch=1 n=c5 v=0
170551 On ch=1 n=e3 v=0
170561 On ch=1 n=e5 v=0
170569 On ch=1 n=f5 v=68
170571 On ch=1 n=a4 v=55
170619 On ch=1 n=f5 v=0
170623 On ch=1 n=a4 v=0
170644 On ch=1 n=e5 v=64
170644 On ch=1 n=c5 v=58
170646 On ch=1 n=c4 v=80
170651 On ch=1 n=c3 v=60
170694 On ch=1 n=c5 v=0
170704 On ch=1 n=e5 v=0
170709 On ch=1 n=f5 v=68
170714 On ch=1 n=b4 v=58
170733 On ch=1 n=c3 v=0
170759 On ch=1 n=f5 v=0
170764 On ch=1 n=b4 v=0
170788 On ch=1 n=c4 v=0
170789 On ch=1 n=e5 v=68
170789 On ch=1 n=c5 v=63
170814 Par ch=1 c=64 v=24
170821 Par ch=1 c=64 v=40
170839 On ch=1 n=c5 v=0
170839 Par ch=1 c=64 v=56
170854 On ch=1 n=e5 v=0
170854 On ch=1 n=b3 v=81
170859 On ch=1 n=b2 v=67
170861 On ch=1 n=f5 v=69
170864 On ch=1 n=a4 v=58
170881 On ch=1 n=b3 v=0
170886 Par ch=1 c=64 v=0
170889 On ch=1 n=b2 v=0
170901 On ch=1 n=f5 v=0
170909 On ch=1 n=a4 v=0
170924 On ch=1 n=c5 v=68
170924 On ch=1 n=a3 v=84
170926 On ch=1 n=e5 v=71
170926 On ch=1 n=a2 v=66
170944 Par ch=1 c=64 v=24
170946 On ch=1 n=a2 v=0
170951 Par ch=1 c=64 v=40
170959 On ch=1 n=a3 v=0
170961 Par ch=1 c=64 v=56
170969 Par ch=1 c=64 v=72
170974 On ch=1 n=c5 v=0
170991 On ch=1 n=e5 v=0
170994 On ch=1 n=f5 v=74
170999 On ch=1 n=b4 v=60
171019 Par ch=1 c=64 v=88
171046 On ch=1 n=f5 v=0
171054 On ch=1 n=b4 v=0
171059 Par ch=1 c=64 v=56
171066 Par ch=1 c=64 v=24
171074 Par ch=1 c=64 v=0
171076 On ch=1 n=e5 v=77
171076 On ch=1 n=c5 v=66
171084 On ch=1 n=e4 v=78
171086 On ch=1 n=e3 v=66
171123 On ch=1 n=c5 v=0
171138 On ch=1 n=e5 v=0
171139 Par ch=1 c=64 v=24
171146 On ch=1 n=f5 v=68
171149 On ch=1 n=a4 v=60
171149 Par ch=1 c=64 v=56
171156 Par ch=1 c=64 v=88
171164 Par ch=1 c=64 v=104
171191 On ch=1 n=f5 v=0
171196 Par ch=1 c=64 v=127
171199 On ch=1 n=a4 v=0
171219 On ch=1 n=e5 v=68
171224 On ch=1 n=e4 v=0
171224 On ch=1 n=c5 v=62
171241 On ch=1 n=e3 v=0
171261 On ch=1 n=c5 v=0
171271 On ch=1 n=e5 v=0
171286 On ch=1 n=f5 v=67
171289 On ch=1 n=b4 v=64
171333 On ch=1 n=f5 v=0
171339 On ch=1 n=b4 v=0
171356 On ch=1 n=e5 v=68
171356 On ch=1 n=c5 v=56
171386 On ch=1 n=c5 v=0
171413 On ch=1 n=e5 v=0
171424 On ch=1 n=f5 v=70
171434 On ch=1 n=a4 v=58
171474 On ch=1 n=f5 v=0
171474 Par ch=1 c=64 v=104
171481 On ch=1 n=a4 v=0
171481 Par ch=1 c=64 v=88
171489 Par ch=1 c=64 v=72
171499 Par ch=1 c=64 v=24
171506 Par ch=1 c=64 v=0
171509 On ch=1 n=d#5 v=73
171509 On ch=1 n=e3 v=66
171509 On ch=1 n=e2 v=70
171521 On ch=1 n=c5 v=46
171543 On ch=1 n=c5 v=0
171579 On ch=1 n=d#5 v=0
171581 Par ch=1 c=64 v=40
171589 On ch=1 n=f#5 v=64
171589 Par ch=1 c=64 v=72
171591 On ch=1 n=b4 v=62
171596 Par ch=1 c=64 v=88
171604 Par ch=1 c=64 v=104
171611 Par ch=1 c=64 v=127
171631 On ch=1 n=b4 v=0
171646 On ch=1 n=f#5 v=0
171661 On ch=1 n=d#5 v=64
171664 On ch=1 n=c5 v=60
171669 On ch=1 n=e2 v=0
171686 On ch=1 n=c5 v=0
171706 On ch=1 n=e3 v=0
171718 On ch=1 n=d#5 v=0
171724 On ch=1 n=f#5 v=59
171724 On ch=1 n=a4 v=53
171744 On ch=1 n=a4 v=0
171771 On ch=1 n=f#5 v=0
171796 On ch=1 n=d#5 v=58
171804 On ch=1 n=c5 v=43
171826 On ch=1 n=c5 v=0
171853 On ch=1 n=d#5 v=0
171854 On ch=1 n=f#5 v=60
171859 On ch=1 n=b4 v=55
171896 On ch=1 n=b4 v=0
171906 On ch=1 n=f#5 v=0
171911 Par ch=1 c=64 v=104
171921 Par ch=1 c=64 v=88
171926 On ch=1 n=d#5 v=65
171928 On ch=1 n=e4 v=75
171928 Par ch=1 c=64 v=40
171931 On ch=1 n=e3 v=59
171933 On ch=1 n=c5 v=58
171936 Par ch=1 c=64 v=0
171968 On ch=1 n=c5 v=0
171991 On ch=1 n=d#5 v=0
171991 On ch=1 n=f#5 v=58
171991 On ch=1 n=a4 v=59
171993 Par ch=1 c=64 v=40
172001 Par ch=1 c=64 v=72
172008 Par ch=1 c=64 v=104
172016 Par ch=1 c=64 v=127
172031 On ch=1 n=a4 v=0
172048 On ch=1 n=f#5 v=0
172068 On ch=1 n=d#5 v=67
172076 On ch=1 n=c5 v=56
172103 On ch=1 n=c5 v=0
172113 On ch=1 n=e3 v=0
172125 On ch=1 n=d#5 v=0
172128 On ch=1 n=f#5 v=63
172131 On ch=1 n=b4 v=53
172135 On ch=1 n=e4 v=0
172173 On ch=1 n=b4 v=0
172185 On ch=1 n=f#5 v=0
172188 Par ch=1 c=64 v=104
172196 Par ch=1 c=64 v=88
172201 On ch=1 n=e4 v=82
172203 On ch=1 n=d#5 v=69
172206 On ch=1 n=e3 v=68
172206 On ch=1 n=c5 v=71
172236 On ch=1 n=e4 v=0
172236 Par ch=1 c=64 v=104
172243 On ch=1 n=e3 v=0
172246 Par ch=1 c=64 v=127
172248 On ch=1 n=c5 v=0
172268 On ch=1 n=d#5 v=0
172271 On ch=1 n=f#5 v=65
172278 On ch=1 n=a4 v=60
172325 On ch=1 n=a4 v=0
172333 Par ch=1 c=64 v=88
172341 On ch=1 n=f#5 v=0
172343 Par ch=1 c=64 v=40
172351 On ch=1 n=d#5 v=67
172351 Par ch=1 c=64 v=0
172356 On ch=1 n=c5 v=61
172356 On ch=1 n=c4 v=85
172361 On ch=1 n=c3 v=68
172391 Par ch=1 c=64 v=24
172396 On ch=1 n=c5 v=0
172401 Par ch=1 c=64 v=72
172408 Par ch=1 c=64 v=88
172413 On ch=1 n=c3 v=0
172416 On ch=1 n=c4 v=0
172418 On ch=1 n=d#5 v=0
172418 On ch=1 n=f#5 v=59
172418 Par ch=1 c=64 v=127
172418 On ch=1 n=b4 v=57
172470 On ch=1 n=b4 v=0
172480 On ch=1 n=f#5 v=0
172490 On ch=1 n=d#5 v=64
172495 On ch=1 n=c5 v=64
172535 On ch=1 n=c5 v=0
172550 On ch=1 n=b3 v=79
172555 On ch=1 n=b2 v=63
172557 On ch=1 n=d#5 v=0
172557 On ch=1 n=f#5 v=64
172565 On ch=1 n=a4 v=59
172580 On ch=1 n=b2 v=0
172580 On ch=1 n=b3 v=0
172610 On ch=1 n=a4 v=0
172614 On ch=1 n=f#5 v=0
172617 On ch=1 n=a3 v=81
172625 On ch=1 n=d#5 v=71
172627 On ch=1 n=a2 v=59
172632 On ch=1 n=c5 v=64
172639 On ch=1 n=a2 v=0
172659 On ch=1 n=a3 v=0
172674 On ch=1 n=c5 v=0
172697 On ch=1 n=f#5 v=69
172700 On ch=1 n=d#5 v=0
172702 On ch=1 n=b4 v=63
172749 On ch=1 n=b4 v=0
172757 On ch=1 n=f#5 v=0
172765 On ch=1 n=e4 v=81
172770 On ch=1 n=d#5 v=69
172770 Par ch=1 c=64 v=88
172772 On ch=1 n=e3 v=67
172777 On ch=1 n=c5 v=66
172777 Par ch=1 c=64 v=72
172785 Par ch=1 c=64 v=40
172792 Par ch=1 c=64 v=0
172832 On ch=1 n=c5 v=0
172840 On ch=1 n=f#5 v=65
172850 On ch=1 n=d#5 v=0
172850 On ch=1 n=a4 v=60
172882 Par ch=1 c=64 v=56
172892 Par ch=1 c=64 v=88
172895 On ch=1 n=a4 v=0
172897 On ch=1 n=f#5 v=0
172900 Par ch=1 c=64 v=127
172915 On ch=1 n=d#5 v=60
172922 On ch=1 n=c5 v=53
172947 On ch=1 n=c5 v=0
172952 On ch=1 n=e4 v=0
172979 On ch=1 n=e3 v=0
172982 On ch=1 n=d#5 v=0
172982 On ch=1 n=f#5 v=61
172982 On ch=1 n=b4 v=60
173024 On ch=1 n=b4 v=0
173029 On ch=1 n=f#5 v=0
173050 On ch=1 n=d#5 v=53
173057 On ch=1 n=c5 v=44
173084 On ch=1 n=c5 v=0
173112 On ch=1 n=d#5 v=0
173112 On ch=1 n=f#5 v=61
173122 On ch=1 n=a4 v=53
173142 On ch=1 n=a4 v=0
173159 On ch=1 n=f#5 v=0
173164 Par ch=1 c=64 v=104
173182 Par ch=1 c=64 v=72
173192 Par ch=1 c=64 v=56
173199 Par ch=1 c=64 v=0
173202 On ch=1 n=c5 v=61
173204 On ch=1 n=e3 v=65
173204 On ch=1 n=e2 v=70
173207 On ch=1 n=e5 v=68
173257 On ch=1 n=c5 v=0
173269 On ch=1 n=b4 v=50
173274 On ch=1 n=e5 v=0
173277 On ch=1 n=a5 v=69
173304 Par ch=1 c=64 v=56
173312 Par ch=1 c=64 v=88
173314 On ch=1 n=b4 v=0
173319 Par ch=1 c=64 v=127
173337 On ch=1 n=a5 v=0
173342 On ch=1 n=e5 v=64
173347 On ch=1 n=c5 v=56
173374 On ch=1 n=c5 v=0
173374 On ch=1 n=e2 v=0
173391 On ch=1 n=e3 v=0
173392 On ch=1 n=e5 v=0
173404 On ch=1 n=a4 v=55
173409 On ch=1 n=a5 v=57
173441 On ch=1 n=a4 v=0
173444 On ch=1 n=a5 v=0
173474 On ch=1 n=e5 v=61
173474 On ch=1 n=c5 v=48
173506 On ch=1 n=c5 v=0
173516 On ch=1 n=e5 v=0
173532 On ch=1 n=b4 v=54
173539 On ch=1 n=a5 v=64
173577 On ch=1 n=b4 v=0
173581 On ch=1 n=a5 v=0
173599 Par ch=1 c=64 v=104
173604 Par ch=1 c=64 v=72
173607 On ch=1 n=e4 v=83
173612 On ch=1 n=e3 v=70
173614 Par ch=1 c=64 v=24
173617 On ch=1 n=e5 v=62
173619 On ch=1 n=c5 v=53
173622 Par ch=1 c=64 v=0
173659 On ch=1 n=c5 v=0
173669 On ch=1 n=e5 v=0
173676 On ch=1 n=a4 v=54
173681 On ch=1 n=a5 v=64
173691 Par ch=1 c=64 v=24
173701 Par ch=1 c=64 v=56
173709 Par ch=1 c=64 v=72
173716 Par ch=1 c=64 v=88
173718 On ch=1 n=a4 v=0
173723 On ch=1 n=a5 v=0
173726 Par ch=1 c=64 v=104
173741 Par ch=1 c=64 v=127
173749 On ch=1 n=e5 v=68
173756 On ch=1 n=c5 v=58
173766 On ch=1 n=e3 v=0
173783 On ch=1 n=c5 v=0
173786 On ch=1 n=e4 v=0
173801 On ch=1 n=e5 v=0
173809 On ch=1 n=b4 v=48
173814 On ch=1 n=a5 v=64
173856 On ch=1 n=b4 v=0
173861 On ch=1 n=a5 v=0
173871 Par ch=1 c=64 v=72
173879 On ch=1 n=e4 v=82
173879 Par ch=1 c=64 v=24
173884 On ch=1 n=e3 v=69
173889 On ch=1 n=e5 v=67
173889 Par ch=1 c=64 v=0
173891 On ch=1 n=c5 v=62
173928 On ch=1 n=c5 v=0
173939 Par ch=1 c=64 v=40
173944 On ch=1 n=e5 v=0
173946 Par ch=1 c=64 v=72
173954 On ch=1 n=a4 v=56
173954 Par ch=1 c=64 v=88
173956 On ch=1 n=a5 v=64
173961 On ch=1 n=e3 v=0
173961 Par ch=1 c=64 v=104
173969 Par ch=1 c=64 v=127
173981 On ch=1 n=e4 v=0
174009 On ch=1 n=a4 v=0
174011 On ch=1 n=a5 v=0
174026 Par ch=1 c=64 v=88
174031 On ch=1 n=e5 v=64
174034 Par ch=1 c=64 v=56
174036 On ch=1 n=c5 v=59
174039 On ch=1 n=e4 v=81
174044 Par ch=1 c=64 v=0
174046 On ch=1 n=e3 v=70
174078 On ch=1 n=c5 v=0
174088 On ch=1 n=e5 v=0
174091 Par ch=1 c=64 v=40
174098 Par ch=1 c=64 v=72
174101 On ch=1 n=b4 v=49
174103 On ch=1 n=a5 v=63
174106 Par ch=1 c=64 v=88
174113 Par ch=1 c=64 v=104
174125 On ch=1 n=e3 v=0
174135 Par ch=1 c=64 v=127
174143 On ch=1 n=b4 v=0
174147 On ch=1 n=a5 v=0
174150 On ch=1 n=e4 v=0
174165 On ch=1 n=e5 v=66
174170 On ch=1 n=c5 v=55
174210 On ch=1 n=c5 v=0
174230 On ch=1 n=e5 v=0
174230 On ch=1 n=d4 v=85
174240 On ch=1 n=a5 v=68
174243 On ch=1 n=d3 v=65
174245 On ch=1 n=a4 v=57
174260 On ch=1 n=d3 v=0
174265 On ch=1 n=d4 v=0
174265 Par ch=1 c=64 v=88
174275 Par ch=1 c=64 v=40
174283 Par ch=1 c=64 v=0
174287 On ch=1 n=a5 v=0
174295 On ch=1 n=a4 v=0
174303 On ch=1 n=c4 v=89
174308 On ch=1 n=c3 v=77
174308 On ch=1 n=e5 v=69
174310 On ch=1 n=c5 v=64
174320 Par ch=1 c=64 v=56
174327 Par ch=1 c=64 v=88
174335 Par ch=1 c=64 v=104
174337 On ch=1 n=c3 v=0
174345 On ch=1 n=c4 v=0
174345 Par ch=1 c=64 v=127
174354 On ch=1 n=c5 v=0
174364 On ch=1 n=e5 v=0
174369 On ch=1 n=b4 v=59
174372 On ch=1 n=a5 v=72
174424 On ch=1 n=b4 v=0
174434 On ch=1 n=a5 v=0
174474 On ch=1 n=a4 v=87
174476 On ch=1 n=a3 v=87
174476 On ch=1 n=e5 v=62
174476 Par ch=1 c=64 v=104
174486 Par ch=1 c=64 v=88
174489 On ch=1 n=c5 v=40
174494 Par ch=1 c=64 v=72
174501 Par ch=1 c=64 v=24
174509 Par ch=1 c=64 v=0
174524 On ch=1 n=c5 v=0
174548 On ch=1 n=e5 v=0
174559 On ch=1 n=a4 v=51
174561 On ch=1 n=a5 v=64
174571 Par ch=1 c=64 v=24
174578 Par ch=1 c=64 v=72
174588 Par ch=1 c=64 v=127
174596 On ch=1 n=a4 v=0
174600 On ch=1 n=a5 v=0
174618 On ch=1 n=a4 v=0
174625 On ch=1 n=a3 v=0
174626 On ch=1 n=e5 v=63
174633 On ch=1 n=c5 v=43
174660 On ch=1 n=c5 v=0
174681 On ch=1 n=e5 v=0
174693 On ch=1 n=b4 v=51
174693 On ch=1 n=a5 v=57
174738 On ch=1 n=b4 v=0
174743 On ch=1 n=a5 v=0
174766 Par ch=1 c=64 v=88
174768 On ch=1 n=f4 v=79
174776 On ch=1 n=f3 v=66
174776 Par ch=1 c=64 v=24
174778 On ch=1 n=e5 v=59
174783 Par ch=1 c=64 v=0
174788 On ch=1 n=c5 v=46
174806 Par ch=1 c=64 v=40
174815 On ch=1 n=c5 v=0
174816 Par ch=1 c=64 v=88
174826 Par ch=1 c=64 v=127
174833 On ch=1 n=e5 v=0
174833 On ch=1 n=f3 v=0
174840 On ch=1 n=f4 v=0
174843 On ch=1 n=a5 v=59
174848 On ch=1 n=a4 v=42
174888 On ch=1 n=a4 v=0
174893 On ch=1 n=a5 v=0
174918 On ch=1 n=e5 v=59
174921 On ch=1 n=e4 v=75
174921 Par ch=1 c=64 v=104
174923 On ch=1 n=c5 v=55
174926 On ch=1 n=e3 v=52
174931 Par ch=1 c=64 v=40
174938 Par ch=1 c=64 v=0
174968 On ch=1 n=c5 v=0
174986 Par ch=1 c=64 v=40
174990 On ch=1 n=e5 v=0
174993 Par ch=1 c=64 v=72
174998 On ch=1 n=a5 v=64
175001 On ch=1 n=b4 v=55
175003 Par ch=1 c=64 v=104
175008 On ch=1 n=e4 v=0
175013 On ch=1 n=e3 v=0
175013 Par ch=1 c=64 v=127
175040 On ch=1 n=a5 v=0
175041 On ch=1 n=b4 v=0
175068 On ch=1 n=e5 v=63
175071 On ch=1 n=c5 v=49
175111 On ch=1 n=c5 v=0
175123 On ch=1 n=e5 v=0
175131 On ch=1 n=a5 v=66
175133 On ch=1 n=a4 v=55
175173 On ch=1 n=a4 v=0
175181 On ch=1 n=a5 v=0
175183 Par ch=1 c=64 v=88
175191 Par ch=1 c=64 v=24
175193 On ch=1 n=c4 v=72
175196 On ch=1 n=c3 v=63
175201 On ch=1 n=e5 v=65
175201 Par ch=1 c=64 v=0
175206 On ch=1 n=c5 v=55
175228 On ch=1 n=c4 v=0
175231 Par ch=1 c=64 v=24
175236 On ch=1 n=c3 v=0
175238 Par ch=1 c=64 v=72
175243 On ch=1 n=c5 v=0
175248 Par ch=1 c=64 v=104
175256 On ch=1 n=e5 v=0
175256 Par ch=1 c=64 v=127
175263 On ch=1 n=a5 v=71
175266 On ch=1 n=b4 v=51
175306 On ch=1 n=b4 v=0
175310 On ch=1 n=a5 v=0
175338 On ch=1 n=e5 v=66
175341 On ch=1 n=c5 v=65
175346 Par ch=1 c=64 v=72
175351 On ch=1 n=a3 v=75
175356 On ch=1 n=a2 v=60
175356 Par ch=1 c=64 v=0
175391 On ch=1 n=c5 v=0
175396 Par ch=1 c=64 v=24
175398 On ch=1 n=e5 v=0
175403 On ch=1 n=a2 v=0
175403 Par ch=1 c=64 v=56
175408 On ch=1 n=a4 v=59
175411 On ch=1 n=a5 v=72
175411 Par ch=1 c=64 v=104
175418 Par ch=1 c=64 v=127
175433 On ch=1 n=a3 v=0
175458 On ch=1 n=a4 v=0
175461 On ch=1 n=a5 v=0
175481 On ch=1 n=e5 v=70
175483 On ch=1 n=c5 v=62
175528 On ch=1 n=c5 v=0
175538 On ch=1 n=e5 v=0
175545 On ch=1 n=a5 v=72
175545 On ch=1 n=b4 v=60
175580 Par ch=1 c=64 v=88
175585 On ch=1 n=b4 v=0
175588 Par ch=1 c=64 v=40
175595 On ch=1 n=a5 v=0
175595 Par ch=1 c=64 v=0
175613 On ch=1 n=e5 v=74
175613 On ch=1 n=c5 v=64
175613 On ch=1 n=b3 v=71
175618 On ch=1 n=b2 v=62
175645 Par ch=1 c=64 v=56
175653 Par ch=1 c=64 v=88
175658 On ch=1 n=b2 v=0
175658 On ch=1 n=c5 v=0
175660 Par ch=1 c=64 v=127
175668 On ch=1 n=b3 v=0
175668 On ch=1 n=e5 v=0
175673 On ch=1 n=a4 v=63
175678 On ch=1 n=a5 v=69
175718 On ch=1 n=a4 v=0
175735 On ch=1 n=a5 v=0
175753 On ch=1 n=e5 v=68
175760 On ch=1 n=c4 v=78
175760 On ch=1 n=c5 v=65
175760 On ch=1 n=c3 v=68
175760 Par ch=1 c=64 v=88
175768 Par ch=1 c=64 v=40
175775 Par ch=1 c=64 v=0
175805 On ch=1 n=c5 v=0
175815 On ch=1 n=e5 v=0
175820 On ch=1 n=b4 v=56
175822 On ch=1 n=a5 v=60
175845 Par ch=1 c=64 v=56
175852 Par ch=1 c=64 v=72
175862 On ch=1 n=b4 v=0
175862 Par ch=1 c=64 v=88
175869 On ch=1 n=a5 v=0
175870 Par ch=1 c=64 v=104
175895 On ch=1 n=c5 v=55
175897 On ch=1 n=e5 v=63
175902 Par ch=1 c=64 v=127
175932 On ch=1 n=c5 v=0
175947 On ch=1 n=e5 v=0
175957 On ch=1 n=a4 v=55
175957 On ch=1 n=a5 v=61
176002 On ch=1 n=a4 v=0
176007 On ch=1 n=a5 v=0
176025 On ch=1 n=e5 v=67
176030 On ch=1 n=c5 v=55
176060 On ch=1 n=c5 v=0
176077 On ch=1 n=e5 v=0
176087 On ch=1 n=a5 v=70
176087 On ch=1 n=b4 v=58
176127 On ch=1 n=b4 v=0
176137 On ch=1 n=a5 v=0
176157 On ch=1 n=e5 v=73
176162 On ch=1 n=c5 v=66
176162 Par ch=1 c=64 v=88
176170 Par ch=1 c=64 v=40
176177 Par ch=1 c=64 v=0
176202 On ch=1 n=c5 v=0
176212 On ch=1 n=e5 v=0
176217 On ch=1 n=a4 v=59
176220 On ch=1 n=a5 v=66
176220 Par ch=1 c=64 v=24
176227 Par ch=1 c=64 v=40
176237 Par ch=1 c=64 v=72
176245 Par ch=1 c=64 v=88
176259 On ch=1 n=a4 v=0
176260 Par ch=1 c=64 v=104
176277 On ch=1 n=a5 v=0
176292 On ch=1 n=e5 v=69
176297 On ch=1 n=c5 v=53
176320 Par ch=1 c=64 v=127
176327 On ch=1 n=c5 v=0
176344 On ch=1 n=e5 v=0
176354 On ch=1 n=b4 v=53
176354 On ch=1 n=a5 v=71
176394 On ch=1 n=b4 v=0
176404 On ch=1 n=a5 v=0
176424 On ch=1 n=c5 v=63
176424 On ch=1 n=e5 v=65
176466 On ch=1 n=c5 v=0
176476 On ch=1 n=e5 v=0
176486 On ch=1 n=a5 v=70
176489 On ch=1 n=a4 v=59
176529 On ch=1 n=a4 v=0
176536 On ch=1 n=a5 v=0
176551 On ch=1 n=d#3 v=28
176559 On ch=1 n=f5 v=57
176559 On ch=1 n=d5 v=55
176563 On ch=1 n=d#3 v=0
176566 On ch=1 n=e3 v=62
176591 On ch=1 n=e3 v=0
176601 On ch=1 n=f3 v=33
176606 On ch=1 n=d5 v=0
176616 On ch=1 n=f3 v=0
176624 On ch=1 n=e3 v=46
176639 On ch=1 n=a5 v=65
176641 On ch=1 n=f5 v=0
176644 On ch=1 n=c5 v=43
176649 On ch=1 n=e3 v=0
176656 On ch=1 n=f3 v=37
176676 On ch=1 n=f3 v=0
176686 On ch=1 n=e3 v=55
176696 On ch=1 n=c5 v=0
176704 On ch=1 n=a5 v=0
176704 On ch=1 n=f5 v=66
176706 On ch=1 n=d5 v=60
176708 On ch=1 n=e3 v=0
176716 On ch=1 n=f3 v=48
176723 On ch=1 n=c4 v=0
176738 On ch=1 n=c3 v=0
176741 On ch=1 n=f3 v=0
176741 On ch=1 n=e3 v=45
176763 On ch=1 n=d5 v=0
176769 On ch=1 n=a5 v=75
176771 On ch=1 n=e3 v=0
176774 On ch=1 n=b4 v=54
176776 On ch=1 n=f3 v=41
176779 On ch=1 n=f5 v=0
176798 On ch=1 n=f3 v=0
176808 On ch=1 n=e3 v=41
176828 On ch=1 n=b4 v=0
176831 On ch=1 n=f5 v=68
176833 On ch=1 n=e3 v=0
176833 On ch=1 n=a5 v=0
176833 On ch=1 n=d5 v=66
176841 On ch=1 n=f3 v=43
176858 On ch=1 n=f3 v=0
176866 On ch=1 n=e3 v=40
176891 On ch=1 n=e3 v=0
176893 On ch=1 n=d5 v=0
176896 On ch=1 n=f3 v=51
176898 On ch=1 n=a5 v=76
176903 On ch=1 n=f5 v=0
176903 On ch=1 n=c5 v=64
176918 On ch=1 n=f3 v=0
176923 On ch=1 n=e3 v=44
176953 On ch=1 n=e3 v=0
176958 On ch=1 n=c5 v=0
176961 On ch=1 n=f3 v=46
176963 On ch=1 n=a5 v=0
176963 On ch=1 n=f5 v=73
176968 On ch=1 n=d5 v=67
176978 On ch=1 n=f3 v=0
176983 On ch=1 n=e3 v=48
177010 On ch=1 n=e3 v=0
177016 On ch=1 n=f3 v=52
177018 On ch=1 n=d5 v=0
177026 On ch=1 n=a5 v=76
177030 On ch=1 n=f5 v=0
177031 On ch=1 n=b4 v=59
177041 On ch=1 n=f3 v=0
177043 On ch=1 n=e3 v=52
177078 On ch=1 n=e3 v=0
177078 On ch=1 n=b4 v=0
177081 On ch=1 n=f3 v=54
177086 On ch=1 n=a5 v=0
177088 On ch=1 n=f5 v=74
177091 On ch=1 n=d5 v=73
177106 On ch=1 n=f3 v=0
177106 On ch=1 n=e3 v=53
177136 On ch=1 n=e3 v=0
177141 On ch=1 n=f3 v=56
177143 On ch=1 n=d5 v=0
177151 On ch=1 n=a5 v=79
177155 On ch=1 n=f5 v=0
177156 On ch=1 n=c5 v=64
177168 On ch=1 n=f3 v=0
177173 On ch=1 n=e3 v=57
177208 On ch=1 n=e3 v=0
177211 On ch=1 n=c5 v=0
177213 On ch=1 n=f3 v=51
177216 On ch=1 n=a5 v=0
177216 On ch=1 n=f5 v=74
177218 On ch=1 n=d5 v=68
177240 On ch=1 n=f3 v=0
177243 On ch=1 n=e3 v=55
177265 On ch=1 n=d5 v=0
177268 On ch=1 n=e3 v=0
177273 Par ch=1 c=64 v=24
177276 On ch=1 n=f3 v=47
177278 On ch=1 n=a5 v=77
177281 On ch=1 n=f5 v=0
177283 On ch=1 n=b4 v=62
177291 Par ch=1 c=64 v=40
177306 On ch=1 n=f3 v=0
177306 Par ch=1 c=64 v=56
177308 On ch=1 n=e3 v=55
177328 On ch=1 n=b4 v=0
177333 Par ch=1 c=64 v=0
177338 On ch=1 n=e3 v=0
177340 On ch=1 n=a5 v=0
177343 On ch=1 n=f5 v=76
177343 On ch=1 n=f3 v=54
177346 On ch=1 n=d5 v=72
177370 On ch=1 n=f3 v=0
177371 On ch=1 n=e3 v=46
177386 Par ch=1 c=64 v=24
177391 Par ch=1 c=64 v=40
177398 On ch=1 n=d5 v=0
177401 On ch=1 n=e3 v=0
177406 On ch=1 n=f3 v=49
177413 On ch=1 n=a5 v=76
177418 On ch=1 n=f5 v=0
177418 On ch=1 n=c5 v=62
177433 On ch=1 n=f3 v=0
177443 On ch=1 n=e3 v=47
177453 On ch=1 n=c5 v=0
177460 On ch=1 n=a5 v=0
177468 On ch=1 n=f5 v=73
177471 On ch=1 n=d5 v=64
177478 On ch=1 n=e3 v=0
177483 On ch=1 n=f3 v=45
177501 On ch=1 n=d5 v=0
177508 Par ch=1 c=64 v=56
177510 On ch=1 n=f3 v=0
177516 On ch=1 n=e3 v=51
177525 On ch=1 n=f5 v=0
177531 On ch=1 n=a5 v=78
177533 On ch=1 n=b4 v=64
177533 Par ch=1 c=64 v=72
177551 On ch=1 n=e3 v=0
177561 On ch=1 n=f3 v=32
177565 On ch=1 n=b4 v=0
177575 On ch=1 n=a5 v=0
177585 On ch=1 n=f3 v=0
177585 On ch=1 n=e3 v=53
177587 On ch=1 n=f5 v=74
177590 On ch=1 n=d5 v=69
177617 On ch=1 n=e3 v=0
177622 On ch=1 n=d5 v=0
177625 On ch=1 n=f3 v=49
177645 On ch=1 n=f3 v=0
177647 On ch=1 n=a5 v=81
177649 On ch=1 n=f5 v=0
177652 On ch=1 n=c5 v=68
177652 On ch=1 n=e3 v=53
177682 On ch=1 n=e3 v=0
177687 On ch=1 n=c5 v=0
177689 On ch=1 n=a5 v=0
177690 On ch=1 n=f3 v=39
177715 On ch=1 n=f5 v=70
177717 On ch=1 n=f3 v=0
177717 On ch=1 n=d5 v=70
177720 On ch=1 n=e3 v=59
177747 On ch=1 n=e3 v=0
177755 On ch=1 n=f3 v=49
177762 On ch=1 n=d5 v=0
177777 On ch=1 n=f5 v=0
177782 On ch=1 n=f3 v=0
177782 On ch=1 n=a5 v=77
177782 On ch=1 n=b4 v=63
177787 On ch=1 n=e3 v=56
177792 Par ch=1 c=64 v=56
177817 On ch=1 n=e3 v=0
177817 On ch=1 n=b4 v=0
177825 On ch=1 n=f3 v=44
177829 On ch=1 n=a5 v=0
177845 On ch=1 n=f5 v=71
177847 On ch=1 n=d5 v=70
177855 On ch=1 n=f3 v=0
177855 On ch=1 n=e3 v=58
177875 Par ch=1 c=64 v=40
177884 On ch=1 n=d5 v=0
177885 On ch=1 n=e3 v=0
177892 On ch=1 n=f3 v=45
177907 On ch=1 n=f5 v=0
177907 On ch=1 n=a5 v=82
177912 On ch=1 n=c5 v=68
177924 On ch=1 n=f3 v=0
177927 On ch=1 n=e3 v=47
177935 Par ch=1 c=64 v=56
177949 On ch=1 n=c5 v=0
177952 On ch=1 n=a5 v=0
177964 On ch=1 n=e3 v=0
177965 Par ch=1 c=64 v=72
177970 On ch=1 n=f5 v=68
177970 On ch=1 n=f3 v=49
177975 On ch=1 n=d5 v=54
177985 Par ch=1 c=64 v=88
177995 On ch=1 n=f3 v=0
178002 On ch=1 n=e3 v=51
178010 On ch=1 n=d5 v=0
178022 Par ch=1 c=64 v=104
178032 On ch=1 n=f5 v=0
178034 On ch=1 n=e3 v=0
178037 On ch=1 n=a5 v=81
178042 On ch=1 n=f3 v=43
178042 Par ch=1 c=64 v=127
178045 On ch=1 n=b4 v=62
178052 On ch=1 n=a5 v=0
178054 On ch=1 n=f3 v=0
178060 On ch=1 n=b4 v=0
178102 Par ch=1 c=64 v=88
178107 Par ch=1 c=64 v=56
178112 On ch=1 n=e4 v=88
178112 Par ch=1 c=64 v=0
178115 On ch=1 n=e3 v=75
178152 Par ch=1 c=64 v=40
178157 On ch=1 n=e3 v=0
178157 Par ch=1 c=64 v=88
178162 On ch=1 n=e4 v=0
178162 On ch=1 n=f3 v=42
178162 Par ch=1 c=64 v=127
178165 On ch=1 n=f4 v=70
178184 On ch=1 n=f3 v=0
178190 On ch=1 n=e3 v=54
178192 On ch=1 n=f4 v=0
178197 On ch=1 n=e4 v=67
178215 On ch=1 n=e3 v=0
178220 On ch=1 n=f3 v=49
178222 On ch=1 n=e4 v=0
178225 On ch=1 n=f4 v=66
178237 On ch=1 n=f3 v=0
178242 On ch=1 n=e3 v=47
178250 On ch=1 n=f4 v=0
178250 On ch=1 n=e4 v=54
178264 On ch=1 n=e3 v=0
178267 On ch=1 n=e4 v=0
178267 On ch=1 n=f3 v=49
178270 On ch=1 n=f4 v=61
178287 On ch=1 n=f3 v=0
178287 On ch=1 n=e3 v=47
178295 On ch=1 n=f4 v=0
178295 On ch=1 n=e4 v=59
178314 On ch=1 n=e3 v=0
178317 On ch=1 n=e4 v=0
178317 On ch=1 n=f3 v=49
178317 On ch=1 n=f4 v=49
178337 On ch=1 n=f3 v=0
178337 On ch=1 n=e3 v=49
178339 On ch=1 n=f4 v=0
178340 On ch=1 n=e4 v=64
178362 On ch=1 n=e4 v=0
178362 On ch=1 n=e3 v=0
178362 On ch=1 n=f3 v=54
178367 On ch=1 n=f4 v=57
178382 On ch=1 n=f3 v=0
178385 On ch=1 n=e3 v=53
178390 On ch=1 n=e4 v=47
178392 On ch=1 n=f4 v=0
178407 On ch=1 n=e3 v=0
178410 On ch=1 n=e4 v=0
178412 On ch=1 n=f3 v=55
178415 On ch=1 n=f4 v=57
178427 On ch=1 n=f3 v=0
178432 On ch=1 n=e3 v=54
178442 On ch=1 n=f4 v=0
178447 On ch=1 n=e4 v=56
178462 On ch=1 n=f3 v=33
178474 On ch=1 n=f3 v=0
178479 On ch=1 n=e3 v=0
178487 On ch=1 n=e4 v=0
178492 On ch=1 n=d3 v=78
178495 On ch=1 n=d4 v=85
178495 Par ch=1 c=64 v=88
178500 Par ch=1 c=64 v=40
178505 Par ch=1 c=64 v=0
178529 On ch=1 n=d3 v=0
178532 On ch=1 n=e3 v=58
178540 Par ch=1 c=64 v=56
178542 On ch=1 n=d4 v=0
178545 On ch=1 n=e4 v=47
178545 Par ch=1 c=64 v=88
178550 Par ch=1 c=64 v=127
178554 On ch=1 n=e3 v=0
178565 On ch=1 n=d3 v=59
178572 On ch=1 n=e4 v=0
178575 On ch=1 n=d4 v=72
178585 On ch=1 n=d3 v=0
178587 On ch=1 n=e3 v=47
178595 On ch=1 n=d4 v=0
178600 On ch=1 n=e4 v=65
178609 On ch=1 n=e3 v=0
178612 On ch=1 n=d3 v=56
178627 On ch=1 n=e4 v=0
178627 On ch=1 n=d4 v=63
178634 On ch=1 n=d3 v=0
178635 On ch=1 n=e3 v=51
178647 On ch=1 n=d4 v=0
178650 On ch=1 n=e4 v=60
178657 On ch=1 n=e3 v=0
178660 On ch=1 n=d3 v=42
178675 On ch=1 n=e4 v=0
178677 On ch=1 n=d4 v=58
178682 On ch=1 n=d3 v=0
178685 On ch=1 n=e3 v=48
178699 On ch=1 n=d4 v=0
178700 On ch=1 n=e4 v=60
178705 On ch=1 n=d3 v=54
178707 On ch=1 n=e3 v=0
178725 On ch=1 n=e4 v=0
178725 On ch=1 n=d4 v=59
178730 On ch=1 n=d3 v=0
178732 On ch=1 n=e3 v=52
178742 On ch=1 n=e4 v=61
178744 On ch=1 n=d4 v=0
178751 On ch=1 n=e3 v=0
178752 On ch=1 n=d3 v=55
178767 On ch=1 n=e4 v=0
178772 On ch=1 n=d4 v=35
178774 On ch=1 n=d3 v=0
178777 On ch=1 n=e3 v=58
178784 On ch=1 n=d4 v=0
178789 On ch=1 n=e4 v=59
178804 On ch=1 n=e3 v=0
178804 On ch=1 n=d3 v=57
178809 On ch=1 n=d4 v=56
178811 On ch=1 n=e4 v=0
178841 On ch=1 n=d3 v=0
178849 On ch=1 n=d4 v=0
178854 On ch=1 n=c3 v=62
178857 On ch=1 n=c4 v=92
178867 Par ch=1 c=64 v=88
178872 Par ch=1 c=64 v=0
178894 On ch=1 n=c3 v=0
178897 On ch=1 n=d3 v=56
178912 On ch=1 n=c4 v=0
178912 Par ch=1 c=64 v=56
178914 On ch=1 n=d4 v=58
178917 Par ch=1 c=64 v=104
178922 Par ch=1 c=64 v=127
178924 On ch=1 n=d3 v=0
178927 On ch=1 n=c3 v=58
178936 On ch=1 n=d4 v=0
178939 On ch=1 n=c4 v=68
178949 On ch=1 n=c3 v=0
178954 On ch=1 n=d3 v=56
178958 On ch=1 n=c4 v=0
178964 On ch=1 n=d4 v=63
178974 On ch=1 n=d3 v=0
178976 On ch=1 n=c3 v=44
178986 On ch=1 n=d4 v=0
178986 On ch=1 n=c4 v=64
178998 On ch=1 n=c3 v=0
179001 On ch=1 n=d3 v=49
179008 On ch=1 n=c4 v=0
179008 On ch=1 n=d4 v=59
179018 On ch=1 n=d3 v=0
179021 On ch=1 n=c3 v=48
179033 On ch=1 n=d4 v=0
179036 On ch=1 n=c4 v=62
179048 On ch=1 n=c3 v=0
179048 On ch=1 n=d3 v=54
179058 On ch=1 n=c4 v=0
179058 On ch=1 n=d4 v=68
179070 On ch=1 n=d3 v=0
179071 On ch=1 n=c3 v=52
179083 On ch=1 n=d4 v=0
179086 On ch=1 n=c4 v=62
179096 On ch=1 n=c3 v=0
179096 On ch=1 n=d3 v=55
179103 On ch=1 n=c4 v=0
179103 On ch=1 n=d4 v=63
179118 On ch=1 n=d3 v=0
179118 On ch=1 n=c3 v=56
179130 On ch=1 n=d4 v=0
179133 On ch=1 n=c4 v=39
179140 On ch=1 n=c3 v=0
179146 On ch=1 n=d3 v=59
179148 On ch=1 n=c4 v=0
179153 On ch=1 n=d4 v=55
179168 On ch=1 n=d3 v=0
179173 On ch=1 n=c3 v=51
179185 On ch=1 n=c3 v=0
179185 On ch=1 n=d4 v=0
179196 On ch=1 n=d3 v=58
179213 On ch=1 n=d3 v=0
179213 On ch=1 n=c3 v=70
179216 On ch=1 n=c4 v=24
179253 On ch=1 n=c3 v=0
179261 On ch=1 n=c4 v=0
179266 On ch=1 n=b2 v=66
179268 On ch=1 n=b3 v=85
179283 Par ch=1 c=64 v=56
179288 Par ch=1 c=64 v=0
179311 On ch=1 n=b2 v=0
179313 On ch=1 n=c3 v=59
179318 On ch=1 n=b3 v=0
179318 On ch=1 n=c4 v=75
179321 Par ch=1 c=64 v=88
179323 Par ch=1 c=64 v=127
179338 On ch=1 n=c3 v=0
179341 On ch=1 n=b2 v=55
179345 On ch=1 n=c4 v=0
179353 On ch=1 n=b3 v=59
179363 On ch=1 n=b2 v=0
179365 On ch=1 n=c3 v=57
179367 On ch=1 n=b3 v=0
179370 On ch=1 n=c4 v=69
179385 On ch=1 n=c3 v=0
179390 On ch=1 n=b2 v=60
179395 On ch=1 n=c4 v=0
179398 On ch=1 n=b3 v=65
179415 On ch=1 n=b2 v=0
179415 On ch=1 n=c3 v=51
179418 On ch=1 n=b3 v=0
179420 On ch=1 n=c4 v=64
179440 On ch=1 n=c3 v=0
179440 On ch=1 n=b2 v=51
179445 On ch=1 n=c4 v=0
179448 On ch=1 n=b3 v=60
179465 On ch=1 n=b2 v=0
179468 On ch=1 n=b3 v=0
179468 On ch=1 n=c3 v=51
179468 On ch=1 n=c4 v=63
179490 On ch=1 n=c3 v=0
179493 On ch=1 n=c4 v=0
179493 On ch=1 n=b2 v=51
179495 On ch=1 n=b3 v=55
179518 On ch=1 n=b2 v=0
179518 On ch=1 n=c4 v=64
179520 On ch=1 n=b3 v=0
179520 On ch=1 n=c3 v=53
179542 On ch=1 n=c3 v=0
179543 On ch=1 n=c4 v=0
179543 On ch=1 n=b2 v=51
179568 On ch=1 n=b2 v=0
179573 On ch=1 n=c3 v=55
179575 On ch=1 n=c4 v=46
179585 On ch=1 n=c3 v=0
179589 On ch=1 n=c4 v=0
179597 On ch=1 n=b2 v=54
179605 On ch=1 n=b3 v=39
179634 On ch=1 n=b2 v=0
179642 On ch=1 n=b3 v=0
179702 On ch=1 n=a3 v=59
179702 On ch=1 n=a2 v=53
179722 Par ch=1 c=64 v=56
179730 Par ch=1 c=64 v=88
179737 Par ch=1 c=64 v=104
179745 Par ch=1 c=64 v=127
179762 On ch=1 n=a2 v=0
179779 On ch=1 n=a3 v=0
179817 On ch=1 n=f5 v=65
179820 On ch=1 n=c5 v=58
179844 On ch=1 n=f5 v=0
179845 On ch=1 n=c5 v=0
179880 Par ch=1 c=64 v=72
179887 Par ch=1 c=64 v=24
179890 On ch=1 n=f5 v=68
179890 On ch=1 n=c5 v=55
179895 Par ch=1 c=64 v=0
179900 On ch=1 n=a3 v=53
179905 On ch=1 n=f4 v=46
179917 Par ch=1 c=64 v=40
179925 Par ch=1 c=64 v=72
179932 Par ch=1 c=64 v=104
179935 On ch=1 n=c5 v=0
179937 On ch=1 n=f5 v=0
179937 Par ch=1 c=64 v=127
179962 On ch=1 n=d#5 v=68
179967 On ch=1 n=a4 v=62
179987 On ch=1 n=a4 v=0
180002 On ch=1 n=d#5 v=0
180007 Par ch=1 c=64 v=104
180010 On ch=1 n=a3 v=0
180015 Par ch=1 c=64 v=88
180025 On ch=1 n=f4 v=0
180027 On ch=1 n=d#5 v=54
180030 On ch=1 n=e4 v=51
180030 Par ch=1 c=64 v=127
180035 On ch=1 n=c4 v=54
180037 On ch=1 n=a4 v=60
180042 On ch=1 n=e4 v=0
180050 On ch=1 n=c4 v=0
180074 On ch=1 n=a4 v=0
180077 On ch=1 n=d#5 v=0
180107 On ch=1 n=e5 v=74
180110 On ch=1 n=c5 v=54
180125 On ch=1 n=c5 v=0
180137 On ch=1 n=e5 v=0
180170 Par ch=1 c=64 v=72
180177 Par ch=1 c=64 v=0
180192 On ch=1 n=f2 v=64
180195 On ch=1 n=f3 v=68
180212 Par ch=1 c=64 v=56
180219 On ch=1 n=f2 v=0
180220 Par ch=1 c=64 v=104
180227 Par ch=1 c=64 v=127
180230 On ch=1 n=f3 v=0
180262 On ch=1 n=b5 v=78
180262 On ch=1 n=d#5 v=61
180297 On ch=1 n=d#5 v=0
180297 On ch=1 n=b5 v=0
180330 On ch=1 n=b5 v=66
180332 On ch=1 n=d#5 v=55
180352 On ch=1 n=g4 v=59
180357 On ch=1 n=b3 v=51
180367 On ch=1 n=b5 v=0
180371 On ch=1 n=d#5 v=0
180402 On ch=1 n=g#5 v=69
180407 On ch=1 n=b4 v=62
180434 On ch=1 n=b4 v=0
180439 On ch=1 n=g#5 v=0
180441 On ch=1 n=b3 v=0
180451 On ch=1 n=g4 v=0
180469 On ch=1 n=f4 v=64
180469 On ch=1 n=g#5 v=71
180474 On ch=1 n=b4 v=64
180479 On ch=1 n=f4 v=0
180506 On ch=1 n=b4 v=0
180516 On ch=1 n=g#5 v=0
180541 On ch=1 n=a5 v=82
180568 On ch=1 n=a5 v=0
180594 Par ch=1 c=64 v=104
180599 Par ch=1 c=64 v=56
180606 Par ch=1 c=64 v=0
180616 On ch=1 n=e3 v=58
180616 On ch=1 n=e4 v=73
180631 On ch=1 n=e3 v=0
180643 Par ch=1 c=64 v=40
180646 On ch=1 n=e4 v=0
180651 Par ch=1 c=64 v=88
180656 Par ch=1 c=64 v=127
180678 On ch=1 n=f6 v=81
180681 On ch=1 n=d6 v=70
180706 On ch=1 n=d6 v=0
180710 On ch=1 n=f6 v=0
180741 On ch=1 n=f6 v=74
180746 On ch=1 n=d6 v=74
180768 On ch=1 n=e5 v=52
180768 On ch=1 n=f5 v=40
180778 On ch=1 n=d6 v=0
180780 On ch=1 n=f5 v=0
180780 On ch=1 n=f6 v=0
180813 On ch=1 n=d#6 v=82
180815 On ch=1 n=g#5 v=56
180840 On ch=1 n=g#5 v=0
180845 On ch=1 n=e5 v=0
180848 On ch=1 n=d#6 v=0
180878 On ch=1 n=g#5 v=73
180878 On ch=1 n=d#6 v=77
180883 On ch=1 n=d5 v=64
180898 On ch=1 n=b4 v=38
180913 On ch=1 n=g#5 v=0
180923 On ch=1 n=d#6 v=0
180933 On ch=1 n=d5 v=0
180945 On ch=1 n=e6 v=79
180948 On ch=1 n=b4 v=0
180948 On ch=1 n=d6 v=73
180960 On ch=1 n=d6 v=0
180977 On ch=1 n=e6 v=0
181000 Par ch=1 c=64 v=104
181005 On ch=1 n=e4 v=65
181008 On ch=1 n=e6 v=78
181008 On ch=1 n=e5 v=61
181008 Par ch=1 c=64 v=40
181013 On ch=1 n=d6 v=70
181015 Par ch=1 c=64 v=0
181048 Par ch=1 c=64 v=56
181053 On ch=1 n=d6 v=0
181055 On ch=1 n=e6 v=0
181055 Par ch=1 c=64 v=127
181078 On ch=1 n=f6 v=87
181078 On ch=1 n=g#5 v=65
181102 On ch=1 n=e4 v=0
181108 On ch=1 n=g#5 v=0
181110 On ch=1 n=f6 v=0
181110 On ch=1 n=e5 v=0
181145 On ch=1 n=f6 v=82
181148 On ch=1 n=g#5 v=62
181153 On ch=1 n=d5 v=51
181155 On ch=1 n=b4 v=46
181180 On ch=1 n=g#5 v=0
181180 On ch=1 n=f6 v=0
181198 On ch=1 n=d5 v=0
181205 On ch=1 n=b4 v=0
181213 On ch=1 n=d#6 v=74
181215 On ch=1 n=d6 v=77
181240 On ch=1 n=d6 v=0
181248 On ch=1 n=d#6 v=0
181280 On ch=1 n=d#6 v=76
181288 On ch=1 n=d6 v=82
181288 On ch=1 n=e5 v=62
181290 On ch=1 n=e4 v=58
181300 On ch=1 n=e5 v=0
181307 On ch=1 n=e4 v=0
181307 On ch=1 n=d6 v=0
181327 On ch=1 n=d#6 v=0
181355 On ch=1 n=e6 v=85
181357 On ch=1 n=g#5 v=61
181379 On ch=1 n=g#5 v=0
181389 On ch=1 n=e6 v=0
181442 Par ch=1 c=64 v=40
181444 On ch=1 n=a3 v=75
181447 On ch=1 n=a4 v=72
181449 Par ch=1 c=64 v=0
181471 On ch=1 n=a3 v=0
181489 On ch=1 n=a4 v=0
181489 Par ch=1 c=64 v=72
181497 Par ch=1 c=64 v=127
181527 On ch=1 n=e6 v=76
181529 On ch=1 n=d6 v=74
181559 On ch=1 n=d6 v=0
181559 On ch=1 n=e6 v=0
181597 On ch=1 n=e6 v=76
181599 On ch=1 n=d6 v=68
181602 On ch=1 n=a4 v=55
181602 On ch=1 n=e5 v=57
181619 On ch=1 n=a4 v=0
181622 On ch=1 n=e5 v=0
181629 On ch=1 n=d6 v=0
181632 On ch=1 n=e6 v=0
181664 On ch=1 n=f6 v=82
181672 On ch=1 n=c6 v=66
181687 On ch=1 n=c6 v=0
181701 On ch=1 n=f6 v=0
181732 On ch=1 n=d5 v=61
181737 On ch=1 n=c6 v=77
181737 On ch=1 n=f6 v=83
181739 On ch=1 n=d4 v=64
181747 On ch=1 n=d5 v=0
181754 On ch=1 n=d4 v=0
181759 On ch=1 n=f6 v=0
181762 On ch=1 n=c6 v=0
181794 On ch=1 n=f#6 v=76
181799 On ch=1 n=c6 v=74
181821 On ch=1 n=c6 v=0
181826 On ch=1 n=f#6 v=0
181862 Par ch=1 c=64 v=24
181867 On ch=1 n=f#6 v=79
181869 On ch=1 n=c6 v=82
181869 On ch=1 n=g3 v=64
181869 On ch=1 n=g4 v=65
181869 Par ch=1 c=64 v=0
181886 On ch=1 n=g3 v=0
181896 On ch=1 n=c6 v=0
181897 Par ch=1 c=64 v=24
181901 On ch=1 n=g4 v=0
181904 Par ch=1 c=64 v=88
181909 On ch=1 n=f#6 v=0
181909 Par ch=1 c=64 v=127
181934 On ch=1 n=g6 v=82
181937 On ch=1 n=b5 v=63
181957 On ch=1 n=b5 v=0
181961 On ch=1 n=g6 v=0
181992 Par ch=1 c=64 v=72
181997 Par ch=1 c=64 v=24
182004 Par ch=1 c=64 v=40
182007 On ch=1 n=g6 v=89
182007 On ch=1 n=d5 v=62
182007 On ch=1 n=g4 v=64
182007 On ch=1 n=b5 v=70
182012 Par ch=1 c=64 v=88
182017 Par ch=1 c=64 v=127
182024 On ch=1 n=d5 v=0
182029 On ch=1 n=b5 v=0
182029 On ch=1 n=g4 v=0
182034 On ch=1 n=g6 v=0
182067 On ch=1 n=d6 v=87
182069 On ch=1 n=a#5 v=70
182094 On ch=1 n=a#5 v=0
182102 On ch=1 n=d6 v=0
182127 Par ch=1 c=64 v=56
182132 On ch=1 n=d6 v=74
182134 Par ch=1 c=64 v=0
182137 On ch=1 n=a#5 v=69
182139 On ch=1 n=c5 v=66
182142 On ch=1 n=c4 v=70
182151 On ch=1 n=c5 v=0
182154 Par ch=1 c=64 v=40
182159 Par ch=1 c=64 v=72
182164 On ch=1 n=a#5 v=0
182167 Par ch=1 c=64 v=127
182169 On ch=1 n=c4 v=0
182172 On ch=1 n=d6 v=0
182202 On ch=1 n=a#5 v=64
182202 On ch=1 n=e6 v=76
182229 On ch=1 n=a#5 v=0
182237 On ch=1 n=e6 v=0
182262 Par ch=1 c=64 v=104
182269 Par ch=1 c=64 v=24
182274 On ch=1 n=e6 v=72
182274 On ch=1 n=a#5 v=63
182274 Par ch=1 c=64 v=0
182282 On ch=1 n=f3 v=60
182284 On ch=1 n=f4 v=63
182302 On ch=1 n=f3 v=0
182302 Par ch=1 c=64 v=40
182306 On ch=1 n=a#5 v=0
182309 Par ch=1 c=64 v=88
182314 On ch=1 n=e6 v=0
182316 On ch=1 n=f4 v=0
182317 Par ch=1 c=64 v=127
182344 On ch=1 n=a5 v=75
182344 On ch=1 n=f6 v=88
182369 On ch=1 n=a5 v=0
182376 On ch=1 n=f6 v=0
182399 Par ch=1 c=64 v=104
182404 Par ch=1 c=64 v=24
182412 On ch=1 n=f6 v=82
182412 Par ch=1 c=64 v=0
182414 On ch=1 n=a5 v=75
182417 On ch=1 n=c5 v=56
182419 Par ch=1 c=64 v=24
182422 On ch=1 n=f4 v=53
182424 Par ch=1 c=64 v=56
182432 Par ch=1 c=64 v=88
182437 On ch=1 n=f6 v=0
182439 On ch=1 n=a5 v=0
182439 Par ch=1 c=64 v=127
182457 On ch=1 n=f4 v=0
182457 On ch=1 n=c5 v=0
182477 On ch=1 n=c6 v=84
182477 On ch=1 n=a5 v=70
182492 On ch=1 n=a5 v=0
182502 On ch=1 n=c6 v=0
182547 On ch=1 n=c6 v=87
182547 Par ch=1 c=64 v=72
182552 On ch=1 n=a5 v=76
182554 On ch=1 n=b4 v=45
182554 On ch=1 n=f4 v=52
182554 Par ch=1 c=64 v=56
182562 Par ch=1 c=64 v=72
182564 On ch=1 n=a5 v=0
182567 Par ch=1 c=64 v=88
182574 On ch=1 n=f4 v=0
182574 Par ch=1 c=64 v=127
182579 On ch=1 n=c6 v=0
182589 On ch=1 n=b4 v=0
182617 On ch=1 n=d6 v=83
182619 On ch=1 n=a5 v=71
182631 On ch=1 n=a5 v=0
182654 On ch=1 n=d6 v=0
182684 Par ch=1 c=64 v=88
182689 Par ch=1 c=64 v=0
182697 On ch=1 n=e6 v=83
182697 On ch=1 n=a5 v=81
182704 On ch=1 n=c5 v=54
182707 On ch=1 n=e4 v=53
182724 Par ch=1 c=64 v=56
182729 Par ch=1 c=64 v=127
182739 On ch=1 n=e6 v=0
182757 On ch=1 n=e4 v=0
182759 On ch=1 n=c5 v=0
182762 On ch=1 n=a5 v=0
182772 On ch=1 n=c6 v=80
182804 On ch=1 n=c6 v=0
182842 On ch=1 n=c6 v=74
182842 On ch=1 n=d#5 v=65
182847 On ch=1 n=f#4 v=53
182847 Par ch=1 c=64 v=40
182849 On ch=1 n=e4 v=59
182852 Par ch=1 c=64 v=0
182884 Par ch=1 c=64 v=56
182887 On ch=1 n=c6 v=0
182894 Par ch=1 c=64 v=127
182899 On ch=1 n=d#5 v=0
182906 On ch=1 n=e4 v=0
182914 On ch=1 n=b5 v=74
182937 On ch=1 n=f#4 v=0
182954 On ch=1 n=b5 v=0
183007 On ch=1 n=b5 v=72
183009 On ch=1 n=d5 v=58
183017 On ch=1 n=g#4 v=45
183017 Par ch=1 c=64 v=88
183019 On ch=1 n=e4 v=50
183022 Par ch=1 c=64 v=0
183061 On ch=1 n=e4 v=0
183062 On ch=1 n=g#4 v=0
183062 Par ch=1 c=64 v=40
183064 On ch=1 n=d5 v=0
183069 Par ch=1 c=64 v=104
183077 Par ch=1 c=64 v=127
183079 On ch=1 n=b5 v=0
183094 On ch=1 n=e5 v=68
183109 On ch=1 n=e5 v=0
183179 Par ch=1 c=64 v=0
183184 On ch=1 n=a3 v=74
183184 On ch=1 n=a4 v=73
183206 On ch=1 n=a3 v=0
183212 Par ch=1 c=64 v=88
183219 Par ch=1 c=64 v=127
183224 On ch=1 n=a4 v=0
183257 On ch=1 n=f6 v=79
183262 On ch=1 n=c6 v=68
183284 On ch=1 n=c6 v=0
183294 On ch=1 n=f6 v=0
183327 On ch=1 n=f6 v=70
183332 On ch=1 n=c6 v=70
183332 On ch=1 n=f5 v=60
183334 On ch=1 n=a4 v=51
183362 On ch=1 n=c6 v=0
183364 On ch=1 n=f6 v=0
183394 On ch=1 n=d#6 v=77
183404 On ch=1 n=a5 v=57
183419 On ch=1 n=a5 v=0
183431 On ch=1 n=d#6 v=0
183434 On ch=1 n=f5 v=0
183436 On ch=1 n=a4 v=0
183457 On ch=1 n=e5 v=61
183464 On ch=1 n=d#6 v=69
183464 On ch=1 n=c5 v=52
183469 On ch=1 n=e5 v=0
183472 On ch=1 n=a5 v=61
183479 On ch=1 n=c5 v=0
183504 On ch=1 n=d#6 v=0
183509 On ch=1 n=a5 v=0
183524 On ch=1 n=e6 v=80
183549 On ch=1 n=e6 v=0
183592 Par ch=1 c=64 v=104
183597 On ch=1 n=f4 v=75
183599 Par ch=1 c=64 v=24
183604 Par ch=1 c=64 v=0
183627 On ch=1 n=f4 v=0
183627 Par ch=1 c=64 v=40
183632 Par ch=1 c=64 v=104
183639 Par ch=1 c=64 v=127
183659 On ch=1 n=b6 v=83
183662 On ch=1 n=d#6 v=69
183684 On ch=1 n=d#6 v=0
183686 On ch=1 n=b6 v=0
183722 On ch=1 n=b6 v=68
183727 On ch=1 n=d#6 v=68
183737 On ch=1 n=g5 v=66
183742 On ch=1 n=b4 v=60
183759 On ch=1 n=b6 v=0
183764 On ch=1 n=d#6 v=0
183794 On ch=1 n=g#6 v=74
183799 On ch=1 n=b5 v=62
183829 On ch=1 n=b5 v=0
183829 On ch=1 n=g#6 v=0
183859 On ch=1 n=g5 v=0
183859 On ch=1 n=f5 v=62
183864 On ch=1 n=g#6 v=83
183867 On ch=1 n=b4 v=0
183871 On ch=1 n=f5 v=0
183872 On ch=1 n=b5 v=67
183904 On ch=1 n=b5 v=0
183911 On ch=1 n=g#6 v=0
183932 On ch=1 n=a6 v=87
183964 On ch=1 n=a6 v=0
183999 Par ch=1 c=64 v=72
184004 Par ch=1 c=64 v=0
184007 On ch=1 n=e5 v=73
184007 On ch=1 n=e4 v=66
184019 On ch=1 n=e4 v=0
184029 Par ch=1 c=64 v=24
184034 On ch=1 n=e5 v=0
184036 Par ch=1 c=64 v=104
184044 Par ch=1 c=64 v=127
184066 On ch=1 n=f7 v=76
184069 On ch=1 n=d7 v=71
184091 On ch=1 n=d7 v=0
184091 On ch=1 n=f7 v=0
184126 On ch=1 n=f7 v=81
184129 On ch=1 n=d7 v=78
184139 On ch=1 n=e6 v=71
184139 On ch=1 n=e5 v=65
184163 On ch=1 n=f7 v=0
184164 On ch=1 n=d7 v=0
184179 On ch=1 n=e5 v=0
184194 On ch=1 n=e6 v=0
184196 On ch=1 n=d#7 v=83
184196 On ch=1 n=g#6 v=70
184221 On ch=1 n=g#6 v=0
184231 On ch=1 n=d#7 v=0
184264 On ch=1 n=g#6 v=73
184264 On ch=1 n=d#7 v=78
184264 On ch=1 n=d6 v=66
184266 On ch=1 n=b5 v=62
184299 On ch=1 n=g#6 v=0
184304 On ch=1 n=d#7 v=0
184316 On ch=1 n=b5 v=0
184324 On ch=1 n=d6 v=0
184326 On ch=1 n=e7 v=80
184329 On ch=1 n=d7 v=73
184356 On ch=1 n=d7 v=0
184363 On ch=1 n=e7 v=0
184389 Par ch=1 c=64 v=72
184391 On ch=1 n=e6 v=65
184394 On ch=1 n=e5 v=54
184394 On ch=1 n=e7 v=75
184396 Par ch=1 c=64 v=0
184399 On ch=1 n=d7 v=81
184416 Par ch=1 c=64 v=104
184424 Par ch=1 c=64 v=127
184431 On ch=1 n=d7 v=0
184436 On ch=1 n=e7 v=0
184459 On ch=1 n=e5 v=0
184461 On ch=1 n=f7 v=86
184464 On ch=1 n=g#6 v=73
184466 On ch=1 n=e6 v=0
184491 On ch=1 n=g#6 v=0
184493 On ch=1 n=f7 v=0
184524 On ch=1 n=d6 v=59
184526 On ch=1 n=f7 v=82
184529 On ch=1 n=g#6 v=77
184529 On ch=1 n=b5 v=48
184561 On ch=1 n=g#6 v=0
184561 On ch=1 n=f7 v=0
184566 On ch=1 n=b5 v=0
184569 On ch=1 n=d6 v=0
184591 On ch=1 n=d#7 v=73
184594 On ch=1 n=d7 v=74
184621 On ch=1 n=d7 v=0
184626 On ch=1 n=d#7 v=0
184654 On ch=1 n=d#7 v=71
184661 On ch=1 n=e6 v=61
184664 On ch=1 n=e5 v=62
184666 On ch=1 n=d7 v=65
184676 On ch=1 n=d7 v=0
184676 On ch=1 n=e6 v=0
184684 On ch=1 n=e5 v=0
184706 On ch=1 n=d#7 v=0
184729 On ch=1 n=e7 v=88
184731 On ch=1 n=g#6 v=75
184761 On ch=1 n=g#6 v=0
184781 On ch=1 n=e7 v=0
184816 On ch=1 n=a4 v=71
184816 On ch=1 n=a5 v=82
184816 Par ch=1 c=64 v=56
184821 Par ch=1 c=64 v=0
184846 On ch=1 n=a4 v=0
184856 Par ch=1 c=64 v=88
184864 Par ch=1 c=64 v=127
184866 On ch=1 n=a5 v=0
184906 On ch=1 n=e7 v=74
184909 On ch=1 n=d7 v=68
184936 On ch=1 n=d7 v=0
184938 On ch=1 n=e7 v=0
184969 On ch=1 n=e6 v=68
184969 On ch=1 n=a5 v=68
184971 On ch=1 n=e7 v=73
184971 On ch=1 n=d7 v=68
184989 On ch=1 n=a5 v=0
184991 On ch=1 n=e6 v=0
185006 On ch=1 n=d7 v=0
185006 On ch=1 n=e7 v=0
185034 On ch=1 n=f7 v=82
185041 On ch=1 n=c7 v=66
185063 On ch=1 n=c7 v=0
185071 On ch=1 n=f7 v=0
185104 On ch=1 n=f7 v=79
185104 On ch=1 n=d6 v=70
185106 On ch=1 n=c7 v=73
185106 On ch=1 n=d5 v=62
185116 On ch=1 n=d6 v=0
185125 On ch=1 n=d5 v=0
185126 On ch=1 n=f7 v=0
185130 On ch=1 n=c7 v=0
185163 On ch=1 n=f#7 v=76
185168 On ch=1 n=c7 v=77
185185 On ch=1 n=c7 v=0
185195 On ch=1 n=f#7 v=0
185230 On ch=1 n=g4 v=74
185230 Par ch=1 c=64 v=56
185233 On ch=1 n=g5 v=77
185233 On ch=1 n=f#7 v=77
185235 On ch=1 n=c7 v=81
185238 Par ch=1 c=64 v=0
185255 On ch=1 n=g4 v=0
185260 On ch=1 n=c7 v=0
185265 Par ch=1 c=64 v=40
185268 On ch=1 n=g5 v=0
185270 Par ch=1 c=64 v=127
185280 On ch=1 n=f#7 v=0
185303 On ch=1 n=g7 v=82
185305 On ch=1 n=b6 v=72
185322 On ch=1 n=b6 v=0
185330 On ch=1 n=g7 v=0
185368 On ch=1 n=g7 v=86
185368 On ch=1 n=d6 v=69
185368 On ch=1 n=g5 v=64
185370 On ch=1 n=b6 v=74
185385 On ch=1 n=d6 v=0
185388 On ch=1 n=g5 v=0
185395 On ch=1 n=b6 v=0
185400 On ch=1 n=g7 v=0
185430 On ch=1 n=d7 v=82
185433 On ch=1 n=a#6 v=68
185455 On ch=1 n=a#6 v=0
185465 On ch=1 n=d7 v=0
185488 Par ch=1 c=64 v=72
185493 On ch=1 n=d7 v=69
185495 On ch=1 n=a#6 v=69
185495 Par ch=1 c=64 v=24
185500 On ch=1 n=c6 v=70
185503 Par ch=1 c=64 v=40
185505 On ch=1 n=c5 v=63
185508 Par ch=1 c=64 v=72
185510 On ch=1 n=c6 v=0
185515 Par ch=1 c=64 v=104
185523 Par ch=1 c=64 v=127
185525 On ch=1 n=c5 v=0
185525 On ch=1 n=a#6 v=0
185533 On ch=1 n=d7 v=0
185560 On ch=1 n=e7 v=80
185563 On ch=1 n=a#6 v=69
185593 On ch=1 n=a#6 v=0
185597 On ch=1 n=e7 v=0
185615 Par ch=1 c=64 v=104
185625 On ch=1 n=f4 v=69
185625 Par ch=1 c=64 v=40
185628 On ch=1 n=f5 v=73
185630 On ch=1 n=e7 v=74
185630 On ch=1 n=a#6 v=79
185630 Par ch=1 c=64 v=0
185645 Par ch=1 c=64 v=40
185647 On ch=1 n=f4 v=0
185650 Par ch=1 c=64 v=88
185657 On ch=1 n=a#6 v=0
185658 Par ch=1 c=64 v=127
185663 On ch=1 n=f5 v=0
185667 On ch=1 n=e7 v=0
185700 On ch=1 n=f7 v=89
185703 On ch=1 n=a6 v=75
185727 On ch=1 n=f7 v=0
185728 On ch=1 n=a6 v=0
185758 Par ch=1 c=64 v=88
185765 On ch=1 n=f7 v=82
185765 On ch=1 n=a6 v=75
185768 On ch=1 n=c6 v=64
185768 On ch=1 n=f5 v=54
185768 Par ch=1 c=64 v=40
185773 Par ch=1 c=64 v=56
185780 Par ch=1 c=64 v=72
185787 On ch=1 n=a6 v=0
185787 On ch=1 n=f7 v=0
185788 Par ch=1 c=64 v=104
185793 Par ch=1 c=64 v=127
185800 On ch=1 n=c6 v=0
185805 On ch=1 n=f5 v=0
185825 On ch=1 n=c7 v=82
185825 On ch=1 n=a6 v=73
185842 On ch=1 n=a6 v=0
185850 On ch=1 n=c7 v=0
185888 Par ch=1 c=64 v=72
185893 On ch=1 n=c7 v=90
185895 On ch=1 n=b5 v=60
185895 On ch=1 n=f5 v=59
185895 Par ch=1 c=64 v=56
185898 On ch=1 n=a6 v=78
185900 Par ch=1 c=64 v=88
185908 Par ch=1 c=64 v=104
185912 On ch=1 n=f5 v=0
185912 On ch=1 n=b5 v=0
185915 Par ch=1 c=64 v=127
185925 On ch=1 n=a6 v=0
185930 On ch=1 n=c7 v=0
185960 On ch=1 n=d7 v=82
186002 On ch=1 n=d7 v=0
186033 On ch=1 n=e7 v=84
186035 On ch=1 n=a6 v=81
186035 On ch=1 n=e4 v=66
186038 On ch=1 n=e5 v=68
186038 Par ch=1 c=64 v=56
186043 Par ch=1 c=64 v=0
186062 On ch=1 n=e4 v=0
186065 Par ch=1 c=64 v=88
186070 On ch=1 n=e5 v=0
186073 On ch=1 n=e7 v=0
186073 Par ch=1 c=64 v=127
186082 On ch=1 n=a6 v=0
186103 On ch=1 n=c7 v=92
186135 On ch=1 n=c7 v=0
186173 Par ch=1 c=64 v=104
186178 On ch=1 n=f#5 v=53
186180 On ch=1 n=d#6 v=72
186180 On ch=1 n=c7 v=85
186180 Par ch=1 c=64 v=40
186185 Par ch=1 c=64 v=24
186188 On ch=1 n=e5 v=51
186193 Par ch=1 c=64 v=40
186200 Par ch=1 c=64 v=88
186208 Par ch=1 c=64 v=127
186215 On ch=1 n=c7 v=0
186222 On ch=1 n=d#6 v=0
186240 On ch=1 n=e5 v=0
186243 On ch=1 n=f#5 v=0
186248 On ch=1 n=b6 v=83
186283 On ch=1 n=b6 v=0
186323 On ch=1 n=b6 v=79
186323 On ch=1 n=g#5 v=48
186323 Par ch=1 c=64 v=88
186328 Par ch=1 c=64 v=24
186330 On ch=1 n=d6 v=60
186333 On ch=1 n=e5 v=46
186335 Par ch=1 c=64 v=0
186343 Par ch=1 c=64 v=40
186350 On ch=1 n=e5 v=0
186350 Par ch=1 c=64 v=88
186353 On ch=1 n=g#5 v=0
186355 Par ch=1 c=64 v=127
186367 On ch=1 n=d6 v=0
186378 On ch=1 n=b6 v=0
186395 On ch=1 n=e6 v=78
186422 On ch=1 n=e6 v=0
186498 On ch=1 n=a4 v=76
186498 On ch=1 n=a3 v=75
186498 Par ch=1 c=64 v=88
186505 Par ch=1 c=64 v=0
186525 Par ch=1 c=64 v=40
186533 Par ch=1 c=64 v=127
186540 On ch=1 n=a3 v=0
186560 On ch=1 n=a4 v=0
186585 On ch=1 n=c7 v=81
186588 On ch=1 n=a6 v=74
186625 On ch=1 n=a6 v=0
186627 On ch=1 n=c7 v=0
186670 On ch=1 n=g#6 v=80
186673 On ch=1 n=c7 v=78
186680 On ch=1 n=a5 v=68
186680 On ch=1 n=a4 v=63
186700 On ch=1 n=c7 v=0
186712 On ch=1 n=g#6 v=0
186743 On ch=1 n=c7 v=79
186743 On ch=1 n=g6 v=73
186770 On ch=1 n=g6 v=0
186778 On ch=1 n=c7 v=0
186785 On ch=1 n=a4 v=0
186790 On ch=1 n=a5 v=0
186813 On ch=1 n=f#6 v=77
186813 On ch=1 n=f5 v=58
186815 On ch=1 n=c7 v=75
186823 On ch=1 n=c5 v=49
186825 On ch=1 n=f5 v=0
186835 On ch=1 n=c5 v=0
186839 On ch=1 n=c7 v=0
186845 On ch=1 n=f#6 v=0
186880 On ch=1 n=c7 v=81
186880 On ch=1 n=f6 v=84
186905 On ch=1 n=c7 v=0
186912 On ch=1 n=f6 v=0
186955 On ch=1 n=b6 v=87
186957 On ch=1 n=f6 v=81
186957 Par ch=1 c=64 v=72
186960 On ch=1 n=g#4 v=61
186962 On ch=1 n=g#3 v=59
186962 Par ch=1 c=64 v=0
186982 Par ch=1 c=64 v=127
186989 On ch=1 n=g#3 v=0
186989 On ch=1 n=f6 v=0
186992 On ch=1 n=g#4 v=0
186992 On ch=1 n=b6 v=0
187032 On ch=1 n=b6 v=88
187035 On ch=1 n=e6 v=79
187062 On ch=1 n=e6 v=0
187064 On ch=1 n=b6 v=0
187100 On ch=1 n=b6 v=80
187100 On ch=1 n=d#6 v=81
187105 On ch=1 n=g#5 v=65
187112 On ch=1 n=g#4 v=53
187130 On ch=1 n=d#6 v=0
187132 On ch=1 n=b6 v=0
187167 On ch=1 n=b6 v=83
187170 On ch=1 n=e6 v=82
187174 On ch=1 n=g#4 v=0
187182 On ch=1 n=g#5 v=0
187199 On ch=1 n=b6 v=0
187202 On ch=1 n=e6 v=0
187227 On ch=1 n=e5 v=70
187235 On ch=1 n=b6 v=82
187235 On ch=1 n=f6 v=88
187235 On ch=1 n=b4 v=54
187242 On ch=1 n=e5 v=0
187257 On ch=1 n=b4 v=0
187262 On ch=1 n=f6 v=0
187267 On ch=1 n=b6 v=0
187297 On ch=1 n=b6 v=76
187300 On ch=1 n=e6 v=82
187319 On ch=1 n=b6 v=0
187322 On ch=1 n=e6 v=0
187402 On ch=1 n=d#7 v=85
187405 On ch=1 n=g4 v=77
187405 On ch=1 n=a#6 v=79
187405 On ch=1 n=g3 v=70
187405 Par ch=1 c=64 v=72
187410 Par ch=1 c=64 v=0
187415 On ch=1 n=e7 v=53
187425 On ch=1 n=e7 v=0
187435 On ch=1 n=g3 v=0
187437 Par ch=1 c=64 v=104
187445 Par ch=1 c=64 v=127
187449 On ch=1 n=d#7 v=0
187450 On ch=1 n=a#6 v=0
187452 On ch=1 n=g4 v=0
187487 On ch=1 n=a#6 v=85
187490 On ch=1 n=g6 v=84
187517 On ch=1 n=g6 v=0
187522 On ch=1 n=a#6 v=0
187557 On ch=1 n=a#6 v=77
187557 On ch=1 n=f#6 v=73
187562 On ch=1 n=g5 v=66
187567 On ch=1 n=g4 v=63
187587 On ch=1 n=a#6 v=0
187589 On ch=1 n=f#6 v=0
187617 On ch=1 n=a#6 v=74
187617 On ch=1 n=f6 v=81
187644 On ch=1 n=f6 v=0
187649 On ch=1 n=a#6 v=0
187659 On ch=1 n=g5 v=0
187667 On ch=1 n=g4 v=0
187685 On ch=1 n=d#5 v=57
187687 On ch=1 n=a#6 v=86
187687 On ch=1 n=e6 v=81
187690 On ch=1 n=a#4 v=45
187712 On ch=1 n=d#5 v=0
187714 On ch=1 n=e6 v=0
187714 On ch=1 n=a#6 v=0
187722 On ch=1 n=a#4 v=0
187750 On ch=1 n=a#6 v=79
187755 On ch=1 n=d#6 v=78
187780 On ch=1 n=d#6 v=0
187782 On ch=1 n=a#6 v=0
187825 On ch=1 n=a6 v=80
187825 On ch=1 n=d#6 v=73
187825 Par ch=1 c=64 v=56
187832 On ch=1 n=f#4 v=73
187832 On ch=1 n=f#3 v=57
187832 Par ch=1 c=64 v=0
187842 Par ch=1 c=64 v=24
187847 Par ch=1 c=64 v=72
187854 On ch=1 n=f#3 v=0
187854 On ch=1 n=f#4 v=0
187854 On ch=1 n=a6 v=0
187857 On ch=1 n=d#6 v=0
187857 Par ch=1 c=64 v=127
187887 On ch=1 n=a6 v=85
187889 On ch=1 n=d6 v=83
187911 On ch=1 n=d6 v=0
187922 On ch=1 n=a6 v=0
187957 On ch=1 n=c#6 v=77
187957 On ch=1 n=a6 v=77
187962 On ch=1 n=f#5 v=63
187964 On ch=1 n=f#4 v=59
187984 On ch=1 n=c#6 v=0
187992 On ch=1 n=a6 v=0
188022 On ch=1 n=d6 v=82
188024 On ch=1 n=a6 v=80
188026 On ch=1 n=f#4 v=0
188029 On ch=1 n=f#5 v=0
188056 On ch=1 n=a6 v=0
188057 On ch=1 n=d6 v=0
188089 On ch=1 n=d5 v=68
188092 On ch=1 n=d#6 v=78
188094 On ch=1 n=a6 v=79
188094 On ch=1 n=a4 v=53
188104 On ch=1 n=d5 v=0
188114 On ch=1 n=a4 v=0
188124 On ch=1 n=d#6 v=0
188128 On ch=1 n=a6 v=0
188154 On ch=1 n=d6 v=85
188196 On ch=1 n=d6 v=0
188236 On ch=1 n=c#7 v=85
188236 On ch=1 n=g#6 v=75
188246 On ch=1 n=f3 v=69
188248 On ch=1 n=f4 v=76
188251 Par ch=1 c=64 v=24
188258 Par ch=1 c=64 v=0
188268 On ch=1 n=f3 v=0
188268 Par ch=1 c=64 v=56
188275 Par ch=1 c=64 v=127
188277 On ch=1 n=g#6 v=0
188280 On ch=1 n=c#7 v=0
188285 On ch=1 n=f4 v=0
188308 On ch=1 n=g#6 v=78
188315 On ch=1 n=f6 v=79
188340 On ch=1 n=f6 v=0
188348 On ch=1 n=g#6 v=0
188373 On ch=1 n=g#6 v=77
188378 On ch=1 n=e6 v=73
188388 On ch=1 n=f5 v=66
188390 On ch=1 n=f4 v=66
188405 On ch=1 n=e6 v=0
188410 On ch=1 n=g#6 v=0
188440 On ch=1 n=d#6 v=84
188440 On ch=1 n=g#6 v=79
188472 On ch=1 n=g#6 v=0
188472 On ch=1 n=d#6 v=0
188477 On ch=1 n=f4 v=0
188480 On ch=1 n=f5 v=0
188508 On ch=1 n=c#5 v=59
188510 On ch=1 n=g#4 v=51
188513 On ch=1 n=g#6 v=88
188515 On ch=1 n=d6 v=70
188525 On ch=1 n=c#5 v=0
188527 On ch=1 n=d6 v=0
188535 On ch=1 n=g#4 v=0
188545 On ch=1 n=g#6 v=0
188580 On ch=1 n=g#6 v=88
188583 On ch=1 n=c#6 v=80
188633 Par ch=1 c=64 v=56
188640 Par ch=1 c=64 v=0
188650 On ch=1 n=e3 v=63
188652 On ch=1 n=e4 v=71
188657 Par ch=1 c=64 v=56
188662 On ch=1 n=e3 v=0
188665 Par ch=1 c=64 v=127
188672 On ch=1 n=c#6 v=0
188677 On ch=1 n=e4 v=0
188699 On ch=1 n=g#6 v=0
188722 On ch=1 n=g6 v=94
188785 On ch=1 n=e5 v=73
188785 On ch=1 n=e4 v=59
188805 On ch=1 n=e4 v=0
188807 On ch=1 n=g6 v=0
188812 On ch=1 n=e5 v=0
188852 On ch=1 n=g6 v=84
188857 On ch=1 n=c6 v=71
188860 Par ch=1 c=64 v=88
188867 Par ch=1 c=64 v=24
188877 On ch=1 n=d4 v=71
188887 Par ch=1 c=64 v=127
188892 On ch=1 n=c6 v=0
188899 On ch=1 n=g6 v=0
188904 On ch=1 n=d4 v=0
188920 On ch=1 n=f5 v=74
188945 On ch=1 n=f5 v=0
188985 On ch=1 n=g#6 v=85
188990 On ch=1 n=b5 v=67
189017 Par ch=1 c=64 v=40
189022 Par ch=1 c=64 v=0
189027 On ch=1 n=b5 v=0
189030 On ch=1 n=c4 v=55
189045 Par ch=1 c=64 v=88
189047 On ch=1 n=c4 v=0
189052 Par ch=1 c=64 v=127
189057 On ch=1 n=e5 v=82
189079 On ch=1 n=e5 v=0
189089 On ch=1 n=g#6 v=0
189122 On ch=1 n=a6 v=81
189124 On ch=1 n=a5 v=73
189144 On ch=1 n=a6 v=0
189156 On ch=1 n=a5 v=0
189197 Par ch=1 c=64 v=88
189202 On ch=1 n=b5 v=82
189204 On ch=1 n=a5 v=70
189204 Par ch=1 c=64 v=0
189214 On ch=1 n=d4 v=69
189214 On ch=1 n=d3 v=55
189224 On ch=1 n=d3 v=0
189232 Par ch=1 c=64 v=40
189234 On ch=1 n=a5 v=0
189237 Par ch=1 c=64 v=127
189244 On ch=1 n=d4 v=0
189247 On ch=1 n=b5 v=0
189282 On ch=1 n=f6 v=87
189287 On ch=1 n=f5 v=58
189309 On ch=1 n=f5 v=0
189334 On ch=1 n=f6 v=0
189352 On ch=1 n=a4 v=66
189352 On ch=1 n=b4 v=64
189357 On ch=1 n=d4 v=60
189364 On ch=1 n=a4 v=0
189367 On ch=1 n=b4 v=0
189384 On ch=1 n=d4 v=0
189422 On ch=1 n=f6 v=87
189427 On ch=1 n=f5 v=77
189459 On ch=1 n=f5 v=0
189464 On ch=1 n=f6 v=0
189497 On ch=1 n=b5 v=79
189497 On ch=1 n=d3 v=67
189499 On ch=1 n=d4 v=54
189502 On ch=1 n=a5 v=66
189512 On ch=1 n=d3 v=0
189517 On ch=1 n=a5 v=0
189519 On ch=1 n=d4 v=0
189542 On ch=1 n=b5 v=0
189562 On ch=1 n=f6 v=85
189567 On ch=1 n=f5 v=72
189602 On ch=1 n=f6 v=0
189607 On ch=1 n=f5 v=0
189637 On ch=1 n=e4 v=82
189637 Par ch=1 c=64 v=24
189639 On ch=1 n=e3 v=68
189639 On ch=1 n=b5 v=76
189642 On ch=1 n=g#5 v=62
189644 Par ch=1 c=64 v=0
189664 On ch=1 n=e4 v=0
189664 Par ch=1 c=64 v=40
189672 Par ch=1 c=64 v=104
189674 On ch=1 n=e3 v=0
189679 Par ch=1 c=64 v=127
189689 On ch=1 n=g#5 v=0
189694 On ch=1 n=b5 v=0
189704 On ch=1 n=e6 v=84
189709 On ch=1 n=e5 v=66
189734 On ch=1 n=e5 v=0
189736 On ch=1 n=e6 v=0
189772 Par ch=1 c=64 v=0
189779 On ch=1 n=a3 v=89
189779 On ch=1 n=a2 v=70
189799 Par ch=1 c=64 v=56
189801 On ch=1 n=a2 v=0
189807 Par ch=1 c=64 v=127
189816 On ch=1 n=a3 v=0
189849 On ch=1 n=c6 v=82
189854 On ch=1 n=a5 v=70
189881 On ch=1 n=a5 v=0
189886 On ch=1 n=c6 v=0
189919 On ch=1 n=g#5 v=71
189919 On ch=1 n=c6 v=68
189924 On ch=1 n=a4 v=59
189927 On ch=1 n=a3 v=63
189946 On ch=1 n=c6 v=0
189956 On ch=1 n=g#5 v=0
189979 On ch=1 n=c6 v=72
189979 On ch=1 n=g5 v=70
190006 On ch=1 n=g5 v=0
190011 On ch=1 n=c6 v=0
190014 On ch=1 n=a3 v=0
190019 On ch=1 n=a4 v=0
190047 On ch=1 n=f4 v=52
190049 On ch=1 n=f#5 v=71
190049 On ch=1 n=c6 v=74
190054 On ch=1 n=c4 v=55
190057 On ch=1 n=f4 v=0
190066 On ch=1 n=c4 v=0
190074 On ch=1 n=c6 v=0
190079 On ch=1 n=f#5 v=0
190112 On ch=1 n=f5 v=79
190114 On ch=1 n=c6 v=82
190136 On ch=1 n=c6 v=0
190137 On ch=1 n=f5 v=0
190179 Par ch=1 c=64 v=24
190184 On ch=1 n=b5 v=82
190187 On ch=1 n=g#3 v=80
190187 On ch=1 n=g#2 v=72
190187 On ch=1 n=f5 v=71
190187 Par ch=1 c=64 v=0
190214 On ch=1 n=f5 v=0
190214 Par ch=1 c=64 v=88
190216 On ch=1 n=b5 v=0
190219 On ch=1 n=g#2 v=0
190222 On ch=1 n=g#3 v=0
190222 Par ch=1 c=64 v=127
190249 On ch=1 n=b5 v=68
190252 On ch=1 n=e5 v=70
190284 On ch=1 n=e5 v=0
190286 On ch=1 n=b5 v=0
190322 On ch=1 n=b5 v=66
190322 On ch=1 n=d#5 v=68
190332 On ch=1 n=g#4 v=62
190332 On ch=1 n=g#3 v=61
190349 On ch=1 n=d#5 v=0
190349 On ch=1 n=b5 v=0
190387 On ch=1 n=e5 v=74
190387 On ch=1 n=b5 v=67
190404 On ch=1 n=g#3 v=0
190412 On ch=1 n=b5 v=0
190412 On ch=1 n=g#4 v=0
190414 On ch=1 n=e5 v=0
190454 On ch=1 n=b5 v=79
190454 On ch=1 n=e4 v=66
190457 On ch=1 n=f5 v=68
190462 On ch=1 n=b3 v=51
190466 On ch=1 n=e4 v=0
190476 On ch=1 n=b3 v=0
190479 On ch=1 n=f5 v=0
190491 On ch=1 n=b5 v=0
190516 On ch=1 n=e5 v=75
190556 On ch=1 n=e5 v=0
190606 On ch=1 n=d#6 v=86
190606 On ch=1 n=a#5 v=77
190606 On ch=1 n=g3 v=82
190606 On ch=1 n=g2 v=70
190611 Par ch=1 c=64 v=56
190619 Par ch=1 c=64 v=0
190631 On ch=1 n=g2 v=0
190646 On ch=1 n=a#5 v=0
190646 Par ch=1 c=64 v=88
190648 On ch=1 n=g3 v=0
190651 Par ch=1 c=64 v=127
190658 On ch=1 n=d#6 v=0
190694 On ch=1 n=g5 v=73
190694 On ch=1 n=a#5 v=69
190724 On ch=1 n=g5 v=0
190729 On ch=1 n=a#5 v=0
190761 On ch=1 n=a#5 v=73
190764 On ch=1 n=f5 v=60
190771 On ch=1 n=g4 v=76
190774 On ch=1 n=g3 v=64
190791 On ch=1 n=f5 v=0
190796 On ch=1 n=a#5 v=0
190831 On ch=1 n=a#5 v=73
190841 On ch=1 n=e5 v=61
190846 On ch=1 n=f#5 v=44
190851 On ch=1 n=e5 v=0
190858 On ch=1 n=f#5 v=0
190866 On ch=1 n=a#5 v=0
190866 On ch=1 n=g4 v=0
190869 On ch=1 n=g3 v=0
190891 On ch=1 n=d#4 v=71
190899 On ch=1 n=a#3 v=57
190901 On ch=1 n=a#5 v=86
190901 On ch=1 n=e5 v=78
190913 On ch=1 n=d#4 v=0
190923 On ch=1 n=a#3 v=0
190928 On ch=1 n=e5 v=0
190928 On ch=1 n=a#5 v=0
190958 On ch=1 n=d#5 v=78
190958 On ch=1 n=a#5 v=73
190993 On ch=1 n=a#5 v=0
190995 On ch=1 n=d#5 v=0
191028 Par ch=1 c=64 v=104
191031 On ch=1 n=a5 v=90
191033 On ch=1 n=f#2 v=60
191036 On ch=1 n=f#3 v=72
191036 Par ch=1 c=64 v=0
191038 On ch=1 n=d#5 v=56
191063 Par ch=1 c=64 v=40
191065 On ch=1 n=f#2 v=0
191066 On ch=1 n=a5 v=0
191068 On ch=1 n=d#5 v=0
191071 On ch=1 n=f#3 v=0
191071 Par ch=1 c=64 v=127
191098 On ch=1 n=a5 v=73
191098 On ch=1 n=d5 v=72
191125 On ch=1 n=d5 v=0
191133 On ch=1 n=a5 v=0
191166 On ch=1 n=c#5 v=75
191171 On ch=1 n=a5 v=71
191171 Par ch=1 c=64 v=56
191176 On ch=1 n=f#4 v=55
191186 On ch=1 n=f#3 v=51
191191 Par ch=1 c=64 v=127
191198 On ch=1 n=c#5 v=0
191201 On ch=1 n=a5 v=0
191233 On ch=1 n=d5 v=77
191236 On ch=1 n=a5 v=72
191251 On ch=1 n=f#3 v=0
191251 On ch=1 n=f#4 v=0
191265 On ch=1 n=d5 v=0
191266 On ch=1 n=a5 v=0
191296 On ch=1 n=d4 v=68
191303 On ch=1 n=a5 v=77
191306 On ch=1 n=d4 v=0
191306 On ch=1 n=d#5 v=71
191306 On ch=1 n=a3 v=57
191318 On ch=1 n=a3 v=0
191338 On ch=1 n=d#5 v=0
191340 On ch=1 n=a5 v=0
191366 On ch=1 n=d5 v=75
191406 On ch=1 n=d5 v=0
191441 On ch=1 n=c#6 v=85
191441 Par ch=1 c=64 v=72
191443 On ch=1 n=g#5 v=72
191448 Par ch=1 c=64 v=0
191453 On ch=1 n=f3 v=74
191453 On ch=1 n=f2 v=62
191468 Par ch=1 c=64 v=56
191473 On ch=1 n=f2 v=0
191476 Par ch=1 c=64 v=127
191485 On ch=1 n=g#5 v=0
191486 On ch=1 n=c#6 v=0
191490 On ch=1 n=f3 v=0
191513 On ch=1 n=g#5 v=75
191516 On ch=1 n=f5 v=75
191543 On ch=1 n=f5 v=0
191553 On ch=1 n=g#5 v=0
191578 On ch=1 n=g#5 v=64
191581 On ch=1 n=e5 v=70
191598 Par ch=1 c=64 v=88
191603 On ch=1 n=f4 v=66
191606 Par ch=1 c=64 v=104
191611 On ch=1 n=e5 v=0
191611 On ch=1 n=f3 v=56
191611 Par ch=1 c=64 v=127
191620 On ch=1 n=g#5 v=0
191646 On ch=1 n=g#5 v=72
191648 On ch=1 n=d#5 v=75
191681 On ch=1 n=g#5 v=0
191683 On ch=1 n=d#5 v=0
191685 On ch=1 n=f4 v=0
191686 On ch=1 n=f3 v=0
191713 On ch=1 n=c#4 v=55
191716 On ch=1 n=g#5 v=81
191721 On ch=1 n=g#3 v=39
191723 On ch=1 n=d5 v=60
191730 On ch=1 n=c#4 v=0
191733 On ch=1 n=g#3 v=0
191735 On ch=1 n=d5 v=0
191753 On ch=1 n=g#5 v=0
191783 On ch=1 n=g#5 v=73
191788 On ch=1 n=c#5 v=69
191843 Par ch=1 c=64 v=88
191851 Par ch=1 c=64 v=0
191858 On ch=1 n=e2 v=67
191861 On ch=1 n=e3 v=82
191870 On ch=1 n=e2 v=0
191871 Par ch=1 c=64 v=24
191876 Par ch=1 c=64 v=88
191883 Par ch=1 c=64 v=127
191886 On ch=1 n=e3 v=0
191905 On ch=1 n=c#5 v=0
191908 On ch=1 n=g#5 v=0
191931 On ch=1 n=g5 v=86
191978 Par ch=1 c=64 v=88
191983 Par ch=1 c=64 v=56
191991 Par ch=1 c=64 v=72
191996 On ch=1 n=e4 v=82
191998 On ch=1 n=e3 v=64
191998 Par ch=1 c=64 v=127
192021 On ch=1 n=e4 v=0
192023 On ch=1 n=e3 v=0
192023 On ch=1 n=g5 v=0
192066 On ch=1 n=g5 v=73
192066 Par ch=1 c=64 v=72
192071 On ch=1 n=c5 v=66
192073 Par ch=1 c=64 v=0
192088 On ch=1 n=d3 v=72
192098 On ch=1 n=c5 v=0
192103 Par ch=1 c=64 v=104
192105 On ch=1 n=g5 v=0
192110 Par ch=1 c=64 v=127
192117 On ch=1 n=d3 v=0
192133 On ch=1 n=f4 v=87
192158 On ch=1 n=f4 v=0
192165 Par ch=1 c=64 v=88
192173 Par ch=1 c=64 v=56
192178 Par ch=1 c=64 v=88
192185 Par ch=1 c=64 v=127
192195 On ch=1 n=g#5 v=78
192202 On ch=1 n=b4 v=68
192230 Par ch=1 c=64 v=104
192234 On ch=1 n=b4 v=0
192237 Par ch=1 c=64 v=0
192240 On ch=1 n=c3 v=74
192262 On ch=1 n=c3 v=0
192262 On ch=1 n=g#5 v=0
192270 Par ch=1 c=64 v=72
192277 On ch=1 n=e4 v=82
192277 Par ch=1 c=64 v=127
192299 On ch=1 n=e4 v=0
192347 On ch=1 n=a5 v=80
192355 On ch=1 n=a4 v=59
192374 On ch=1 n=a5 v=0
192384 On ch=1 n=a4 v=0
192442 Par ch=1 c=64 v=0
192452 On ch=1 n=b4 v=71
192457 On ch=1 n=a4 v=66
192457 On ch=1 n=d2 v=58
192457 On ch=1 n=d3 v=67
192472 On ch=1 n=d2 v=0
192477 Par ch=1 c=64 v=40
192484 Par ch=1 c=64 v=127
192492 On ch=1 n=d3 v=0
192492 On ch=1 n=a4 v=0
192507 On ch=1 n=b4 v=0
192532 On ch=1 n=f5 v=73
192542 On ch=1 n=f4 v=55
192564 On ch=1 n=f4 v=0
192584 On ch=1 n=f5 v=0
192604 On ch=1 n=b3 v=70
192604 On ch=1 n=d3 v=56
192616 On ch=1 n=b3 v=0
192626 On ch=1 n=d3 v=0
192664 On ch=1 n=f5 v=73
192671 On ch=1 n=f4 v=62
192698 On ch=1 n=f4 v=0
192708 On ch=1 n=f5 v=0
192738 On ch=1 n=b4 v=67
192741 On ch=1 n=d2 v=59
192743 On ch=1 n=d3 v=58
192743 On ch=1 n=a4 v=63
192763 On ch=1 n=d2 v=0
192768 On ch=1 n=d3 v=0
192775 On ch=1 n=a4 v=0
192790 On ch=1 n=b4 v=0
192808 On ch=1 n=f5 v=74
192818 On ch=1 n=f4 v=64
192843 On ch=1 n=f4 v=0
192853 On ch=1 n=f5 v=0
192886 Par ch=1 c=64 v=104
192891 Par ch=1 c=64 v=24
192893 On ch=1 n=b4 v=64
192893 On ch=1 n=g#4 v=57
192896 On ch=1 n=e3 v=59
192898 On ch=1 n=e2 v=45
192898 Par ch=1 c=64 v=0
192915 On ch=1 n=e2 v=0
192926 Par ch=1 c=64 v=72
192931 On ch=1 n=e3 v=0
192933 Par ch=1 c=64 v=127
192943 On ch=1 n=g#4 v=0
192955 On ch=1 n=b4 v=0
192965 On ch=1 n=e5 v=70
192975 On ch=1 n=e4 v=51
192995 On ch=1 n=e4 v=0
193004 On ch=1 n=e5 v=0
193060 On ch=1 n=b4 v=56
193062 Par ch=1 c=64 v=88
193065 On ch=1 n=a4 v=45
193067 Par ch=1 c=64 v=0
193070 On ch=1 n=f2 v=49
193072 On ch=1 n=f3 v=55
193090 On ch=1 n=f2 v=0
193097 Par ch=1 c=64 v=24
193102 Par ch=1 c=64 v=104
193104 On ch=1 n=f3 v=0
193110 Par ch=1 c=64 v=127
193115 On ch=1 n=a4 v=0
193117 On ch=1 n=b4 v=0
193135 On ch=1 n=d#5 v=77
193137 On ch=1 n=d#4 v=54
193149 On ch=1 n=d#4 v=0
193157 On ch=1 n=d#5 v=0
193245 Par ch=1 c=64 v=104
193247 On ch=1 n=b5 v=68
193250 On ch=1 n=a5 v=63
193252 Par ch=1 c=64 v=40
193255 On ch=1 n=f4 v=57
193255 On ch=1 n=f3 v=54
193260 Par ch=1 c=64 v=0
193265 Par ch=1 c=64 v=24
193272 Par ch=1 c=64 v=72
193280 Par ch=1 c=64 v=127
193290 On ch=1 n=a5 v=0
193292 On ch=1 n=f3 v=0
193299 On ch=1 n=b5 v=0
193300 On ch=1 n=f4 v=0
193317 On ch=1 n=d#6 v=76
193320 On ch=1 n=d#5 v=57
193350 On ch=1 n=d#5 v=0
193364 On ch=1 n=d#6 v=0
193380 Par ch=1 c=64 v=72
193387 Par ch=1 c=64 v=56
193390 On ch=1 n=c6 v=73
193390 On ch=1 n=g#5 v=54
193390 On ch=1 n=f#4 v=58
193395 On ch=1 n=f#3 v=49
193395 Par ch=1 c=64 v=72
193402 Par ch=1 c=64 v=127
193425 On ch=1 n=g#5 v=0
193435 On ch=1 n=f#3 v=0
193440 On ch=1 n=c6 v=0
193445 On ch=1 n=f#4 v=0
193455 On ch=1 n=d#6 v=71
193460 On ch=1 n=d#5 v=62
193502 On ch=1 n=d#5 v=0
193505 On ch=1 n=d#6 v=0
193515 Par ch=1 c=64 v=72
193522 Par ch=1 c=64 v=0
193525 On ch=1 n=g4 v=75
193527 On ch=1 n=b5 v=82
193532 On ch=1 n=g5 v=79
193532 On ch=1 n=g3 v=64
193537 Par ch=1 c=64 v=24
193540 On ch=1 n=g4 v=0
193545 Par ch=1 c=64 v=88
193550 Par ch=1 c=64 v=127
193554 On ch=1 n=g3 v=0
193564 On ch=1 n=g5 v=0
193589 On ch=1 n=b5 v=0
193599 On ch=1 n=d#6 v=71
193604 On ch=1 n=d#5 v=52
193639 On ch=1 n=d#5 v=0
193649 On ch=1 n=d#6 v=0
193667 On ch=1 n=g2 v=56
193669 On ch=1 n=g3 v=59
193677 On ch=1 n=b5 v=64
193682 On ch=1 n=g5 v=40
193684 On ch=1 n=g2 v=0
193699 On ch=1 n=g3 v=0
193702 On ch=1 n=g5 v=0
193722 On ch=1 n=b5 v=0
193739 On ch=1 n=d#6 v=70
193747 On ch=1 n=d#5 v=51
193784 On ch=1 n=d#5 v=0
193791 On ch=1 n=d#6 v=0
193819 On ch=1 n=b5 v=64
193819 On ch=1 n=g4 v=58
193819 Par ch=1 c=64 v=88
193822 On ch=1 n=g3 v=58
193824 On ch=1 n=g5 v=46
193829 On ch=1 n=g4 v=0
193839 Par ch=1 c=64 v=127
193847 On ch=1 n=g3 v=0
193854 On ch=1 n=g5 v=0
193864 On ch=1 n=b5 v=0
193884 On ch=1 n=d6 v=70
193889 On ch=1 n=d5 v=60
193894 On ch=1 n=d6 v=0
193906 On ch=1 n=d5 v=0
193967 Par ch=1 c=64 v=104
193972 On ch=1 n=g2 v=66
193972 On ch=1 n=g3 v=74
193974 On ch=1 n=c#5 v=67
193974 Par ch=1 c=64 v=0
193984 On ch=1 n=b4 v=45
193986 On ch=1 n=c5 v=44
193994 On ch=1 n=g2 v=0
193998 On ch=1 n=c5 v=0
193999 Par ch=1 c=64 v=88
194004 On ch=1 n=g3 v=0
194006 On ch=1 n=b4 v=0
194006 Par ch=1 c=64 v=127
194023 On ch=1 n=c#5 v=0
194033 On ch=1 n=f4 v=67
194036 On ch=1 n=f5 v=82
194045 On ch=1 n=f4 v=0
194063 On ch=1 n=f5 v=0
194118 On ch=1 n=c#6 v=86
194123 On ch=1 n=b5 v=70
194126 On ch=1 n=g4 v=66
194126 On ch=1 n=g3 v=63
194135 On ch=1 n=b5 v=0
194158 On ch=1 n=g3 v=0
194163 On ch=1 n=g4 v=0
194168 On ch=1 n=c#6 v=0
194186 On ch=1 n=f6 v=96
194188 On ch=1 n=f5 v=82
194225 On ch=1 n=f5 v=0
194236 On ch=1 n=f6 v=0
194253 On ch=1 n=d6 v=84
194258 On ch=1 n=g#4 v=79
194261 On ch=1 n=a#5 v=65
194263 On ch=1 n=g#3 v=58
194290 On ch=1 n=g#3 v=0
194301 On ch=1 n=a#5 v=0
194310 On ch=1 n=d6 v=0
194321 On ch=1 n=f6 v=89
194323 On ch=1 n=f5 v=79
194330 On ch=1 n=g#4 v=0
194368 On ch=1 n=f5 v=0
194373 On ch=1 n=f6 v=0
194388 Par ch=1 c=64 v=104
194396 Par ch=1 c=64 v=0
194398 On ch=1 n=c#6 v=84
194401 On ch=1 n=a5 v=84
194403 On ch=1 n=a4 v=83
194406 On ch=1 n=a3 v=72
194423 Par ch=1 c=64 v=56
194425 On ch=1 n=a4 v=0
194428 Par ch=1 c=64 v=127
194433 On ch=1 n=a3 v=0
194441 On ch=1 n=a5 v=0
194458 On ch=1 n=c#6 v=0
194468 On ch=1 n=f6 v=90
194471 On ch=1 n=f5 v=73
194508 On ch=1 n=f5 v=0
194515 On ch=1 n=f6 v=0
194541 On ch=1 n=c#6 v=73
194543 On ch=1 n=a5 v=70
194543 On ch=1 n=a3 v=68
194546 On ch=1 n=a2 v=53
194556 On ch=1 n=a2 v=0
194575 On ch=1 n=a3 v=0
194578 On ch=1 n=a5 v=0
194596 On ch=1 n=c#6 v=0
194606 On ch=1 n=f6 v=82
194611 On ch=1 n=f5 v=63
194651 On ch=1 n=f6 v=0
194661 On ch=1 n=f5 v=0
194681 On ch=1 n=c#6 v=72
194686 On ch=1 n=a5 v=66
194686 On ch=1 n=a4 v=65
194691 On ch=1 n=a3 v=56
194696 On ch=1 n=a4 v=0
194708 On ch=1 n=a3 v=0
194728 On ch=1 n=a5 v=0
194736 On ch=1 n=c#6 v=0
194746 On ch=1 n=e6 v=82
194751 On ch=1 n=e5 v=70
194776 On ch=1 n=e6 v=0
194781 On ch=1 n=e5 v=0
194851 Par ch=1 c=64 v=88
194853 On ch=1 n=d#5 v=65
194856 On ch=1 n=c#5 v=62
194856 On ch=1 n=a3 v=64
194856 On ch=1 n=a2 v=53
194856 Par ch=1 c=64 v=0
194881 On ch=1 n=a2 v=0
194883 Par ch=1 c=64 v=72
194891 Par ch=1 c=64 v=127
194898 On ch=1 n=a3 v=0
194901 On ch=1 n=c#5 v=0
194903 On ch=1 n=d#5 v=0
194921 On ch=1 n=g4 v=59
194921 On ch=1 n=g5 v=77
194931 On ch=1 n=g4 v=0
194951 On ch=1 n=g5 v=0
195013 On ch=1 n=d#6 v=84
195016 On ch=1 n=c#6 v=70
195026 On ch=1 n=a4 v=55
195031 On ch=1 n=a3 v=57
195053 On ch=1 n=c#6 v=0
195063 On ch=1 n=a3 v=0
195063 On ch=1 n=d#6 v=0
195081 On ch=1 n=g6 v=87
195083 On ch=1 n=a4 v=0
195083 On ch=1 n=g5 v=74
195123 On ch=1 n=g5 v=0
195128 On ch=1 n=g6 v=0
195151 On ch=1 n=e6 v=87
195153 On ch=1 n=a#4 v=67
195153 On ch=1 n=c6 v=81
195158 On ch=1 n=a#3 v=59
195183 On ch=1 n=c6 v=0
195190 On ch=1 n=a#3 v=0
195200 On ch=1 n=e6 v=0
195218 On ch=1 n=g6 v=87
195220 On ch=1 n=a#4 v=0
195220 On ch=1 n=g5 v=66
195255 On ch=1 n=g5 v=0
195258 On ch=1 n=g6 v=0
195280 Par ch=1 c=64 v=56
195285 On ch=1 n=b4 v=71
195285 On ch=1 n=e6 v=81
195288 On ch=1 n=b5 v=76
195288 On ch=1 n=b3 v=62
195288 Par ch=1 c=64 v=40
195295 Par ch=1 c=64 v=72
195300 Par ch=1 c=64 v=127
195320 On ch=1 n=b3 v=0
195325 On ch=1 n=b5 v=0
195330 On ch=1 n=e6 v=0
195332 On ch=1 n=b4 v=0
195342 On ch=1 n=g6 v=83
195342 On ch=1 n=g5 v=74
195359 On ch=1 n=g5 v=0
195377 On ch=1 n=g6 v=0
195415 On ch=1 n=f#6 v=86
195417 On ch=1 n=e6 v=83
195427 On ch=1 n=c5 v=66
195430 On ch=1 n=c4 v=62
195435 Par ch=1 c=64 v=72
195444 On ch=1 n=e6 v=0
195447 Par ch=1 c=64 v=104
195455 Par ch=1 c=64 v=127
195460 On ch=1 n=c4 v=0
195465 On ch=1 n=f#6 v=0
195482 On ch=1 n=c5 v=0
195490 On ch=1 n=a#6 v=84
195495 On ch=1 n=a#5 v=77
195522 On ch=1 n=a#5 v=0
195525 On ch=1 n=a#6 v=0
195552 On ch=1 n=c#5 v=76
195555 On ch=1 n=g6 v=85
195555 On ch=1 n=d#6 v=75
195557 On ch=1 n=c#4 v=67
195557 Par ch=1 c=64 v=88
195577 Par ch=1 c=64 v=127
195592 On ch=1 n=d#6 v=0
195597 On ch=1 n=c#4 v=0
195607 On ch=1 n=g6 v=0
195614 On ch=1 n=c#5 v=0
195622 On ch=1 n=a#6 v=77
195625 On ch=1 n=a#5 v=71
195657 On ch=1 n=a#5 v=0
195667 On ch=1 n=a#6 v=0
195685 Par ch=1 c=64 v=72
195690 On ch=1 n=f#6 v=81
195692 On ch=1 n=d6 v=76
195692 On ch=1 n=d4 v=68
195692 On ch=1 n=d5 v=73
195692 Par ch=1 c=64 v=24
195702 Par ch=1 c=64 v=72
195704 On ch=1 n=d4 v=0
195709 Par ch=1 c=64 v=127
195724 On ch=1 n=d6 v=0
195726 On ch=1 n=d5 v=0
195744 On ch=1 n=f#6 v=0
195754 On ch=1 n=b6 v=81
195759 On ch=1 n=b5 v=66
195786 On ch=1 n=b5 v=0
195806 On ch=1 n=b6 v=0
195817 Par ch=1 c=64 v=72
195824 On ch=1 n=d#4 v=67
195824 On ch=1 n=d#5 v=68
195824 Par ch=1 c=64 v=0
195827 On ch=1 n=a6 v=84
195829 On ch=1 n=f6 v=85
195832 On ch=1 n=c5 v=60
195839 On ch=1 n=a4 v=38
195839 Par ch=1 c=64 v=24
195844 Par ch=1 c=64 v=88
195852 Par ch=1 c=64 v=127
195861 On ch=1 n=d#4 v=0
195864 On ch=1 n=a4 v=0
195869 On ch=1 n=f6 v=0
195872 On ch=1 n=c5 v=0
195877 On ch=1 n=a6 v=0
195892 On ch=1 n=c7 v=87
195897 On ch=1 n=c6 v=74
195904 On ch=1 n=d#5 v=0
195924 On ch=1 n=c6 v=0
195939 On ch=1 n=c7 v=0
195959 Par ch=1 c=64 v=88
195962 On ch=1 n=a6 v=79
195962 On ch=1 n=e5 v=67
195964 On ch=1 n=c5 v=62
195964 On ch=1 n=e4 v=55
195967 On ch=1 n=e6 v=66
195967 Par ch=1 c=64 v=56
195969 On ch=1 n=a4 v=53
195974 Par ch=1 c=64 v=72
195979 Par ch=1 c=64 v=127
195987 On ch=1 n=e6 v=0
195989 On ch=1 n=e4 v=0
196009 On ch=1 n=a4 v=0
196009 On ch=1 n=c5 v=0
196017 On ch=1 n=a6 v=0
196019 On ch=1 n=e5 v=0
196034 On ch=1 n=c7 v=87
196037 On ch=1 n=c6 v=77
196074 On ch=1 n=c6 v=0
196081 On ch=1 n=c7 v=0
196102 Par ch=1 c=64 v=104
196104 On ch=1 n=a6 v=82
196104 On ch=1 n=f5 v=75
196107 On ch=1 n=d#6 v=77
196107 On ch=1 n=c5 v=74
196109 On ch=1 n=f4 v=60
196109 On ch=1 n=a4 v=58
196109 Par ch=1 c=64 v=40
196121 On ch=1 n=f4 v=0
196129 Par ch=1 c=64 v=127
196139 On ch=1 n=f5 v=0
196144 On ch=1 n=a4 v=0
196144 On ch=1 n=c5 v=0
196154 On ch=1 n=d#6 v=0
196154 On ch=1 n=a6 v=0
196174 On ch=1 n=c7 v=99
196174 On ch=1 n=c6 v=82
196191 On ch=1 n=c6 v=0
196209 On ch=1 n=c7 v=0
196262 On ch=1 n=f#5 v=84
196264 On ch=1 n=a4 v=64
196267 On ch=1 n=b6 v=88
196267 On ch=1 n=b4 v=68
196267 On ch=1 n=f#4 v=58
196267 Par ch=1 c=64 v=72
196272 On ch=1 n=a6 v=81
196272 Par ch=1 c=64 v=0
196292 Par ch=1 c=64 v=72
196299 Par ch=1 c=64 v=127
196304 On ch=1 n=a6 v=0
196314 On ch=1 n=f#4 v=0
196322 On ch=1 n=b6 v=0
196326 On ch=1 n=a4 v=0
196327 On ch=1 n=b4 v=0
196342 On ch=1 n=d#6 v=85
196342 On ch=1 n=d#7 v=90
196347 On ch=1 n=f#5 v=0
196382 On ch=1 n=d#6 v=0
196392 On ch=1 n=d#7 v=0
196414 Par ch=1 c=64 v=56
196419 Par ch=1 c=64 v=0
196424 On ch=1 n=f5 v=86
196424 On ch=1 n=c7 v=85
196424 On ch=1 n=c5 v=51
196427 On ch=1 n=a4 v=64
196427 On ch=1 n=a6 v=78
196427 On ch=1 n=f4 v=71
196442 Par ch=1 c=64 v=72
196447 Par ch=1 c=64 v=127
196456 On ch=1 n=f5 v=0
196459 On ch=1 n=f4 v=0
196459 On ch=1 n=a6 v=0
196459 On ch=1 n=c5 v=0
196464 On ch=1 n=a4 v=0
196494 On ch=1 n=c7 v=0
196512 On ch=1 n=d#7 v=89
196512 On ch=1 n=d#6 v=87
196532 On ch=1 n=d#6 v=0
196544 On ch=1 n=d#7 v=0
196614 On ch=1 n=c8 v=96
196614 On ch=1 n=f7 v=83
196614 On ch=1 n=a7 v=88
196617 On ch=1 n=e2 v=68
196619 On ch=1 n=e3 v=69
196634 Par ch=1 c=64 v=40
196639 Par ch=1 c=64 v=104
196647 Par ch=1 c=64 v=127
196669 On ch=1 n=e2 v=0
196684 On ch=1 n=e3 v=0
196689 On ch=1 n=c8 v=0
196694 On ch=1 n=f7 v=0
196696 On ch=1 n=a7 v=0
196699 On ch=1 n=e7 v=93
196754 On ch=1 n=e7 v=0
196782 On ch=1 n=a7 v=89
196782 On ch=1 n=d7 v=82
196782 Par ch=1 c=64 v=72
196784 On ch=1 n=f7 v=84
196787 On ch=1 n=a3 v=67
196789 On ch=1 n=a2 v=53
196789 Par ch=1 c=64 v=0
196809 Par ch=1 c=64 v=56
196817 Par ch=1 c=64 v=104
196822 Par ch=1 c=64 v=127
196824 On ch=1 n=a2 v=0
196832 On ch=1 n=a3 v=0
196837 On ch=1 n=a7 v=0
196842 On ch=1 n=d7 v=0
196846 On ch=1 n=f7 v=0
196852 On ch=1 n=c7 v=87
196897 On ch=1 n=c7 v=0
196897 On ch=1 n=c#7 v=25
196907 On ch=1 n=c#7 v=0
196922 On ch=1 n=f7 v=94
196924 On ch=1 n=d7 v=89
196924 On ch=1 n=b6 v=86
196927 Par ch=1 c=64 v=56
196932 Par ch=1 c=64 v=0
196934 On ch=1 n=b3 v=60
196937 On ch=1 n=b2 v=65
196954 Par ch=1 c=64 v=56
196959 On ch=1 n=b2 v=0
196959 Par ch=1 c=64 v=127
196966 On ch=1 n=b3 v=0
196976 On ch=1 n=b6 v=0
196976 On ch=1 n=f7 v=0
196981 On ch=1 n=d7 v=0
196989 On ch=1 n=a6 v=84
197031 On ch=1 n=a6 v=0
197054 Par ch=1 c=64 v=40
197056 On ch=1 n=d7 v=86
197059 On ch=1 n=g6 v=83
197059 On ch=1 n=b6 v=82
197061 On ch=1 n=d4 v=80
197061 On ch=1 n=d3 v=66
197061 Par ch=1 c=64 v=0
197081 On ch=1 n=d3 v=0
197081 Par ch=1 c=64 v=40
197088 On ch=1 n=d4 v=0
197089 Par ch=1 c=64 v=104
197094 Par ch=1 c=64 v=127
197106 On ch=1 n=d7 v=0
197116 On ch=1 n=g6 v=0
197121 On ch=1 n=b6 v=0
197126 On ch=1 n=f6 v=83
197163 On ch=1 n=f6 v=0
197191 Par ch=1 c=64 v=88
197196 On ch=1 n=b6 v=84
197196 On ch=1 n=g#6 v=77
197199 On ch=1 n=f4 v=82
197199 On ch=1 n=e6 v=77
197199 On ch=1 n=f3 v=69
197199 Par ch=1 c=64 v=0
197219 Par ch=1 c=64 v=24
197224 Par ch=1 c=64 v=72
197231 Par ch=1 c=64 v=127
197234 On ch=1 n=f3 v=0
197239 On ch=1 n=f4 v=0
197241 On ch=1 n=b6 v=0
197244 On ch=1 n=e6 v=0
197256 On ch=1 n=g#6 v=0
197266 On ch=1 n=d6 v=78
197298 On ch=1 n=d6 v=0
197334 Par ch=1 c=64 v=56
197339 On ch=1 n=e4 v=74
197339 On ch=1 n=g#6 v=78
197341 On ch=1 n=e3 v=66
197341 On ch=1 n=e6 v=64
197341 Par ch=1 c=64 v=0
197346 On ch=1 n=c6 v=62
197361 On ch=1 n=e4 v=0
197361 Par ch=1 c=64 v=40
197366 Par ch=1 c=64 v=104
197368 On ch=1 n=e3 v=0
197374 Par ch=1 c=64 v=127
197383 On ch=1 n=c6 v=0
197394 On ch=1 n=g#6 v=0
197396 On ch=1 n=e6 v=0
197404 On ch=1 n=b5 v=81
197421 On ch=1 n=b5 v=0
197494 Par ch=1 c=64 v=88
197499 Par ch=1 c=64 v=24
197504 On ch=1 n=e2 v=78
197504 Par ch=1 c=64 v=0
197506 On ch=1 n=c8 v=103
197506 On ch=1 n=e3 v=86
197506 On ch=1 n=f7 v=89
197506 On ch=1 n=a7 v=93
197531 Par ch=1 c=64 v=40
197536 On ch=1 n=e2 v=0
197536 Par ch=1 c=64 v=127
197553 On ch=1 n=e3 v=0
197561 On ch=1 n=f7 v=0
197561 On ch=1 n=c8 v=0
197568 On ch=1 n=a7 v=0
197574 On ch=1 n=e7 v=86
197621 On ch=1 n=e7 v=0
197646 On ch=1 n=a7 v=96
197646 Par ch=1 c=64 v=40
197649 On ch=1 n=d7 v=85
197649 On ch=1 n=f7 v=81
197649 On ch=1 n=a3 v=82
197651 On ch=1 n=a2 v=66
197654 Par ch=1 c=64 v=0
197669 Par ch=1 c=64 v=56
197671 On ch=1 n=a2 v=0
197674 Par ch=1 c=64 v=127
197679 On ch=1 n=a3 v=0
197693 On ch=1 n=a7 v=0
197699 On ch=1 n=d7 v=0
197704 On ch=1 n=f7 v=0
197711 On ch=1 n=c7 v=82
197748 On ch=1 n=c7 v=0
197774 Par ch=1 c=64 v=40
197779 Par ch=1 c=64 v=0
197781 On ch=1 n=b3 v=82
197781 On ch=1 n=b2 v=70
197784 On ch=1 n=f7 v=90
197784 On ch=1 n=b6 v=82
197786 On ch=1 n=d7 v=79
197796 Par ch=1 c=64 v=40
197801 On ch=1 n=b2 v=0
197801 Par ch=1 c=64 v=104
197806 Par ch=1 c=64 v=127
197808 On ch=1 n=b3 v=0
197829 On ch=1 n=f7 v=0
197834 On ch=1 n=b6 v=0
197841 On ch=1 n=d7 v=0
197851 On ch=1 n=a6 v=81
197886 On ch=1 n=a6 v=0
197916 Par ch=1 c=64 v=56
197919 On ch=1 n=d7 v=85
197921 On ch=1 n=g6 v=81
197921 Par ch=1 c=64 v=0
197924 On ch=1 n=d4 v=79
197924 On ch=1 n=b6 v=74
197924 On ch=1 n=d3 v=65
197939 Par ch=1 c=64 v=40
197944 Par ch=1 c=64 v=104
197946 On ch=1 n=d3 v=0
197949 Par ch=1 c=64 v=127
197959 On ch=1 n=d4 v=0
197969 On ch=1 n=d7 v=0
197971 On ch=1 n=g6 v=0
197976 On ch=1 n=b6 v=0
197986 On ch=1 n=f6 v=81
198023 On ch=1 n=f6 v=0
198054 Par ch=1 c=64 v=56
198056 On ch=1 n=b6 v=85
198059 On ch=1 n=g#6 v=70
198059 On ch=1 n=f4 v=80
198059 On ch=1 n=e6 v=74
198059 Par ch=1 c=64 v=0
198061 On ch=1 n=f3 v=67
198086 Par ch=1 c=64 v=72
198091 Par ch=1 c=64 v=127
198101 On ch=1 n=b6 v=0
198103 On ch=1 n=f3 v=0
198106 On ch=1 n=e6 v=0
198109 On ch=1 n=f4 v=0
198114 On ch=1 n=g#6 v=0
198121 On ch=1 n=d6 v=72
198153 On ch=1 n=d6 v=0
198186 Par ch=1 c=64 v=56
198191 Par ch=1 c=64 v=0
198194 On ch=1 n=g#6 v=83
198196 On ch=1 n=c6 v=79
198196 On ch=1 n=e6 v=76
198199 On ch=1 n=e4 v=70
198201 On ch=1 n=e3 v=58
198211 Par ch=1 c=64 v=72
198216 Par ch=1 c=64 v=127
198228 On ch=1 n=e3 v=0
198228 On ch=1 n=e4 v=0
198238 On ch=1 n=c6 v=0
198253 On ch=1 n=e6 v=0
198256 On ch=1 n=g#6 v=0
198263 On ch=1 n=b5 v=87
198298 On ch=1 n=b5 v=0
198321 Par ch=1 c=64 v=72
198326 Par ch=1 c=64 v=0
198336 On ch=1 n=b5 v=94
198338 On ch=1 n=d#3 v=63
198341 On ch=1 n=d#4 v=71
198351 Par ch=1 c=64 v=88
198358 On ch=1 n=d#3 v=0
198358 Par ch=1 c=64 v=127
198363 On ch=1 n=d#4 v=0
198391 On ch=1 n=b5 v=0
198401 On ch=1 n=f#6 v=38
198401 On ch=1 n=b6 v=78
198406 On ch=1 n=a6 v=63
198411 On ch=1 n=f#6 v=0
198416 On ch=1 n=b6 v=0
198421 On ch=1 n=a6 v=0
198468 On ch=1 n=b6 v=96
198471 On ch=1 n=f#5 v=73
198478 On ch=1 n=b4 v=51
198478 On ch=1 n=a4 v=44
198493 On ch=1 n=a4 v=0
198523 On ch=1 n=b6 v=0
198538 On ch=1 n=b7 v=85
198541 On ch=1 n=a4 v=1
198543 On ch=1 n=a7 v=77
198543 On ch=1 n=f#7 v=64
198581 On ch=1 n=f#5 v=0
198588 On ch=1 n=b4 v=0
198590 On ch=1 n=b7 v=0
198593 On ch=1 n=a4 v=0
198595 On ch=1 n=a7 v=0
198598 On ch=1 n=f#7 v=0
198601 On ch=1 n=b6 v=86
198616 On ch=1 n=b6 v=0
198661 On ch=1 n=b6 v=74
198668 On ch=1 n=f#6 v=57
198696 On ch=1 n=b6 v=0
198713 On ch=1 n=f#6 v=0
198723 Par ch=1 c=64 v=40
198725 On ch=1 n=c6 v=100
198728 Par ch=1 c=64 v=0
198730 On ch=1 n=d#3 v=63
198733 On ch=1 n=d#4 v=71
198745 On ch=1 n=d#3 v=0
198750 On ch=1 n=d#4 v=0
198750 Par ch=1 c=64 v=56
198755 Par ch=1 c=64 v=127
198777 On ch=1 n=c6 v=0
198783 On ch=1 n=f#6 v=52
198788 On ch=1 n=c7 v=80
198793 On ch=1 n=a6 v=60
198803 On ch=1 n=a6 v=0
198803 On ch=1 n=f#6 v=0
198808 On ch=1 n=c7 v=0
198855 On ch=1 n=c7 v=107
198855 On ch=1 n=f#5 v=69
198858 On ch=1 n=a4 v=66
198860 On ch=1 n=c5 v=62
198915 On ch=1 n=c7 v=0
198923 On ch=1 n=c8 v=96
198925 On ch=1 n=a7 v=87
198925 On ch=1 n=f#7 v=74
198975 On ch=1 n=c8 v=0
198987 On ch=1 n=f#7 v=0
198987 On ch=1 n=a7 v=0
198988 On ch=1 n=a4 v=0
198988 On ch=1 n=c7 v=87
198990 On ch=1 n=f#5 v=0
198992 On ch=1 n=c5 v=0
199008 On ch=1 n=c7 v=0
199050 On ch=1 n=c7 v=83
199055 On ch=1 n=f#6 v=74
199055 On ch=1 n=a6 v=62
199085 On ch=1 n=a6 v=0
199087 On ch=1 n=c7 v=0
199110 On ch=1 n=f#6 v=0
199118 Par ch=1 c=64 v=72
199120 On ch=1 n=c6 v=102
199123 Par ch=1 c=64 v=0
199128 On ch=1 n=e3 v=64
199130 On ch=1 n=e4 v=68
199138 On ch=1 n=e3 v=0
199145 Par ch=1 c=64 v=40
199150 Par ch=1 c=64 v=127
199152 On ch=1 n=e4 v=0
199175 On ch=1 n=c6 v=0
199185 On ch=1 n=e6 v=63
199190 On ch=1 n=c7 v=86
199190 On ch=1 n=a6 v=70
199202 On ch=1 n=e6 v=0
199212 On ch=1 n=a6 v=0
199220 On ch=1 n=c7 v=0
199252 On ch=1 n=c7 v=102
199252 On ch=1 n=a5 v=73
199255 On ch=1 n=c5 v=55
199255 On ch=1 n=e5 v=66
199304 On ch=1 n=c7 v=0
199320 On ch=1 n=c8 v=85
199320 On ch=1 n=e7 v=78
199322 On ch=1 n=a7 v=79
199354 On ch=1 n=a5 v=0
199360 On ch=1 n=c5 v=0
199362 On ch=1 n=g#7 v=32
199367 On ch=1 n=e5 v=0
199370 On ch=1 n=c8 v=0
199375 On ch=1 n=e7 v=0
199377 On ch=1 n=g#7 v=0
199382 On ch=1 n=a7 v=0
199385 On ch=1 n=c7 v=75
199400 On ch=1 n=c7 v=0
199447 On ch=1 n=c7 v=84
199450 On ch=1 n=e6 v=83
199455 On ch=1 n=a6 v=66
199472 On ch=1 n=e6 v=0
199479 On ch=1 n=c7 v=0
199490 On ch=1 n=a6 v=0
199522 On ch=1 n=b5 v=97
199522 Par ch=1 c=64 v=72
199525 On ch=1 n=e3 v=65
199527 Par ch=1 c=64 v=0
199532 On ch=1 n=e4 v=63
199550 On ch=1 n=e3 v=0
199555 Par ch=1 c=64 v=104
199559 On ch=1 n=e4 v=0
199560 Par ch=1 c=64 v=127
199569 On ch=1 n=b5 v=0
199579 On ch=1 n=e6 v=33
199579 On ch=1 n=g#6 v=63
199584 On ch=1 n=b6 v=82
199591 On ch=1 n=e6 v=0
199601 On ch=1 n=g#6 v=0
199603 On ch=1 n=b6 v=0
199644 On ch=1 n=b6 v=97
199646 On ch=1 n=g#5 v=65
199649 On ch=1 n=b4 v=62
199651 On ch=1 n=e5 v=59
199694 On ch=1 n=b6 v=0
199711 On ch=1 n=b7 v=88
199711 On ch=1 n=g#7 v=77
199711 On ch=1 n=e7 v=74
199766 On ch=1 n=b7 v=0
199773 On ch=1 n=e7 v=0
199776 On ch=1 n=e5 v=0
199778 On ch=1 n=g#5 v=0
199781 On ch=1 n=g#7 v=0
199784 On ch=1 n=b6 v=80
199786 On ch=1 n=b4 v=0
199801 On ch=1 n=b6 v=0
199864 On ch=1 n=b6 v=84
199866 On ch=1 n=e6 v=82
199869 On ch=1 n=g#6 v=73
199883 On ch=1 n=e6 v=0
199894 On ch=1 n=g#6 v=0
199896 On ch=1 n=b6 v=0
199971 On ch=1 n=e8 v=94
199971 On ch=1 n=a2 v=78
199971 Par ch=1 c=64 v=24
199974 On ch=1 n=c8 v=89
199974 On ch=1 n=a7 v=87
199976 On ch=1 n=a3 v=82
199976 Par ch=1 c=64 v=0
199996 On ch=1 n=a2 v=0
200004 Par ch=1 c=64 v=104
200008 On ch=1 n=a3 v=0
200009 Par ch=1 c=64 v=127
200031 On ch=1 n=e8 v=0
200039 On ch=1 n=a7 v=0
200046 On ch=1 n=c8 v=0
200054 On ch=1 n=g7 v=90
200101 On ch=1 n=g7 v=0
200119 On ch=1 n=c8 v=88
200124 On ch=1 n=f7 v=84
200124 On ch=1 n=c4 v=81
200124 On ch=1 n=c3 v=70
200124 On ch=1 n=a7 v=82
200124 Par ch=1 c=64 v=88
200129 Par ch=1 c=64 v=24
200136 Par ch=1 c=64 v=0
200141 Par ch=1 c=64 v=56
200146 Par ch=1 c=64 v=104
200149 On ch=1 n=c3 v=0
200151 Par ch=1 c=64 v=127
200156 On ch=1 n=c4 v=0
200174 On ch=1 n=f7 v=0
200176 On ch=1 n=a7 v=0
200176 On ch=1 n=c8 v=0
200186 On ch=1 n=e7 v=80
200223 On ch=1 n=e7 v=0
200246 Par ch=1 c=64 v=104
200251 On ch=1 n=a7 v=89
200251 On ch=1 n=d4 v=82
200251 On ch=1 n=d3 v=68
200251 Par ch=1 c=64 v=24
200256 On ch=1 n=d7 v=75
200256 On ch=1 n=f7 v=78
200256 Par ch=1 c=64 v=0
200261 Par ch=1 c=64 v=24
200266 Par ch=1 c=64 v=72
200271 On ch=1 n=d3 v=0
200274 Par ch=1 c=64 v=127
200281 On ch=1 n=d4 v=0
200308 On ch=1 n=d7 v=0
200308 On ch=1 n=a7 v=0
200311 On ch=1 n=f7 v=0
200319 On ch=1 n=c7 v=84
200361 On ch=1 n=c7 v=0
200381 Par ch=1 c=64 v=40
200384 On ch=1 n=f7 v=81
200386 On ch=1 n=f4 v=82
200386 On ch=1 n=f3 v=66
200389 On ch=1 n=d7 v=73
200389 On ch=1 n=b6 v=63
200389 Par ch=1 c=64 v=0
200394 On ch=1 n=a6 v=64
200394 Par ch=1 c=64 v=24
200396 On ch=1 n=f3 v=0
200399 Par ch=1 c=64 v=72
200404 On ch=1 n=a6 v=0
200404 Par ch=1 c=64 v=127
200411 On ch=1 n=f4 v=0
200436 On ch=1 n=f7 v=0
200441 On ch=1 n=b6 v=0
200444 On ch=1 n=d7 v=0
200451 On ch=1 n=a6 v=83
200493 On ch=1 n=a6 v=0
200514 Par ch=1 c=64 v=72
200519 On ch=1 n=f5 v=81
200519 On ch=1 n=d7 v=83
200519 On ch=1 n=g6 v=83
200519 On ch=1 n=f4 v=75
200521 On ch=1 n=b6 v=71
200521 Par ch=1 c=64 v=0
200536 Par ch=1 c=64 v=72
200541 Par ch=1 c=64 v=127
200564 On ch=1 n=f4 v=0
200566 On ch=1 n=f5 v=0
200569 On ch=1 n=d7 v=0
200571 On ch=1 n=g6 v=0
200573 On ch=1 n=b6 v=0
200584 On ch=1 n=f6 v=82
200624 On ch=1 n=f6 v=0
200651 Par ch=1 c=64 v=56
200654 On ch=1 n=b6 v=83
200654 On ch=1 n=e5 v=80
200656 On ch=1 n=e6 v=80
200656 Par ch=1 c=64 v=0
200659 On ch=1 n=g#6 v=65
200659 On ch=1 n=e4 v=66
200661 Par ch=1 c=64 v=24
200669 Par ch=1 c=64 v=72
200674 Par ch=1 c=64 v=127
200676 On ch=1 n=e5 v=0
200686 On ch=1 n=e4 v=0
200700 On ch=1 n=e6 v=0
200708 On ch=1 n=g#6 v=0
200713 On ch=1 n=b6 v=0
200713 On ch=1 n=d6 v=81
200728 On ch=1 n=d6 v=0
200768 Par ch=1 c=64 v=56
200776 Par ch=1 c=64 v=0
200813 On ch=1 n=e8 v=93
200816 On ch=1 n=a7 v=84
200818 On ch=1 n=c8 v=76
200818 On ch=1 n=a2 v=73
200818 On ch=1 n=a3 v=83
200818 Par ch=1 c=64 v=88
200823 Par ch=1 c=64 v=127
200838 On ch=1 n=a2 v=0
200848 On ch=1 n=a3 v=0
200873 On ch=1 n=e8 v=0
200876 On ch=1 n=a7 v=0
200880 On ch=1 n=c8 v=0
200888 On ch=1 n=g7 v=86
200928 On ch=1 n=g7 v=0
200953 On ch=1 n=c8 v=93
200958 On ch=1 n=a7 v=84
200958 On ch=1 n=f7 v=86
200958 On ch=1 n=c3 v=73
200958 On ch=1 n=c4 v=84
200961 Par ch=1 c=64 v=40
200968 Par ch=1 c=64 v=24
200973 Par ch=1 c=64 v=56
200978 Par ch=1 c=64 v=88
200980 On ch=1 n=c3 v=0
200983 Par ch=1 c=64 v=127
200995 On ch=1 n=c4 v=0
201005 On ch=1 n=f7 v=0
201010 On ch=1 n=c8 v=0
201013 On ch=1 n=a7 v=0
201021 On ch=1 n=e7 v=82
201063 On ch=1 n=e7 v=0
201088 On ch=1 n=a7 v=92
201088 On ch=1 n=d4 v=80
201088 On ch=1 n=d3 v=68
201091 On ch=1 n=d7 v=77
201091 On ch=1 n=f7 v=73
201108 On ch=1 n=d3 v=0
201113 On ch=1 n=d4 v=0
201140 On ch=1 n=a7 v=0
201143 On ch=1 n=d7 v=0
201148 On ch=1 n=f7 v=0
201158 On ch=1 n=c7 v=87
201198 On ch=1 n=c7 v=0
201223 On ch=1 n=f7 v=85
201226 On ch=1 n=d7 v=74
201226 On ch=1 n=b6 v=78
201228 On ch=1 n=f4 v=75
201228 On ch=1 n=f3 v=65
201236 Par ch=1 c=64 v=72
201240 On ch=1 n=f3 v=0
201248 Par ch=1 c=64 v=127
201253 On ch=1 n=f4 v=0
201275 On ch=1 n=f7 v=0
201281 On ch=1 n=b6 v=0
201283 On ch=1 n=d7 v=0
201293 On ch=1 n=a6 v=75
201333 On ch=1 n=a6 v=0
201356 On ch=1 n=f5 v=75
201356 On ch=1 n=d7 v=76
201358 On ch=1 n=f4 v=68
201358 On ch=1 n=g6 v=69
201361 On ch=1 n=b6 v=66
201368 Par ch=1 c=64 v=40
201373 Par ch=1 c=64 v=24
201378 Par ch=1 c=64 v=56
201383 Par ch=1 c=64 v=104
201391 Par ch=1 c=64 v=127
201403 On ch=1 n=f4 v=0
201406 On ch=1 n=f5 v=0
201408 On ch=1 n=g6 v=0
201413 On ch=1 n=b6 v=0
201413 On ch=1 n=d7 v=0
201423 On ch=1 n=f6 v=76
201458 On ch=1 n=f6 v=0
201493 On ch=1 n=b6 v=78
201493 On ch=1 n=e5 v=76
201493 Par ch=1 c=64 v=88
201496 On ch=1 n=g#6 v=70
201496 On ch=1 n=e6 v=66
201501 On ch=1 n=e4 v=59
201501 Par ch=1 c=64 v=40
201511 Par ch=1 c=64 v=88
201516 Par ch=1 c=64 v=127
201518 On ch=1 n=e5 v=0
201528 On ch=1 n=e4 v=0
201543 On ch=1 n=e6 v=0
201550 On ch=1 n=b6 v=0
201556 On ch=1 n=g#6 v=0
201561 On ch=1 n=b5 v=76
201596 On ch=1 n=b5 v=0
201638 On ch=1 n=b5 v=93
201641 On ch=1 n=d#3 v=67
201643 On ch=1 n=d#4 v=78
201643 Par ch=1 c=64 v=72
201646 Par ch=1 c=64 v=0
201658 On ch=1 n=d#4 v=0
201661 On ch=1 n=d#3 v=0
201663 Par ch=1 c=64 v=56
201671 Par ch=1 c=64 v=127
201690 On ch=1 n=b5 v=0
201696 On ch=1 n=f#6 v=51
201703 On ch=1 n=b6 v=80
201703 On ch=1 n=a6 v=58
201713 On ch=1 n=f#6 v=0
201717 On ch=1 n=b6 v=0
201720 On ch=1 n=a6 v=0
201730 On ch=1 n=d#4 v=71
201745 On ch=1 n=a4 v=57
201752 On ch=1 n=b4 v=52
201757 On ch=1 n=d#4 v=0
201772 On ch=1 n=f#5 v=73
201775 On ch=1 n=b6 v=93
201787 On ch=1 n=a4 v=0
201789 On ch=1 n=f#5 v=0
201789 On ch=1 n=b4 v=0
201832 On ch=1 n=b6 v=0
201842 On ch=1 n=b7 v=83
201842 On ch=1 n=f#7 v=65
201844 On ch=1 n=a7 v=76
201897 On ch=1 n=b7 v=0
201906 On ch=1 n=a7 v=0
201909 On ch=1 n=b6 v=76
201914 On ch=1 n=f#7 v=0
201931 On ch=1 n=b6 v=0
201972 On ch=1 n=b6 v=77
201977 On ch=1 n=g6 v=69
201989 On ch=1 n=f6 v=28
201996 On ch=1 n=f6 v=0
202006 On ch=1 n=g6 v=0
202009 On ch=1 n=b6 v=0
202039 On ch=1 n=c6 v=100
202041 Par ch=1 c=64 v=24
202044 On ch=1 n=d#4 v=85
202044 On ch=1 n=d#3 v=68
202046 Par ch=1 c=64 v=0
202061 On ch=1 n=d#3 v=0
202061 On ch=1 n=d#4 v=0
202064 Par ch=1 c=64 v=40
202069 Par ch=1 c=64 v=127
202101 On ch=1 n=c6 v=0
202101 On ch=1 n=f#6 v=56
202104 On ch=1 n=c7 v=83
202109 On ch=1 n=a6 v=64
202113 On ch=1 n=f#6 v=0
202116 On ch=1 n=a6 v=0
202126 On ch=1 n=c7 v=0
202141 On ch=1 n=d#4 v=76
202153 On ch=1 n=a4 v=60
202161 On ch=1 n=c5 v=59
202166 On ch=1 n=d#4 v=0
202168 On ch=1 n=c7 v=92
202176 On ch=1 n=f#5 v=69
202181 On ch=1 n=a#7 v=40
202185 On ch=1 n=a4 v=0
202193 On ch=1 n=a#7 v=0
202193 On ch=1 n=c5 v=0
202198 On ch=1 n=f#5 v=0
202218 On ch=1 n=c7 v=0
202236 On ch=1 n=c8 v=88
202236 On ch=1 n=f#7 v=75
202241 On ch=1 n=a7 v=81
202296 On ch=1 n=c8 v=0
202301 On ch=1 n=c7 v=82
202306 On ch=1 n=a7 v=0
202306 On ch=1 n=f#7 v=0
202323 On ch=1 n=c7 v=0
202363 On ch=1 n=c7 v=86
202371 On ch=1 n=a6 v=49
202373 On ch=1 n=f#6 v=60
202388 On ch=1 n=a6 v=0
202390 On ch=1 n=f#6 v=0
202395 On ch=1 n=c7 v=0
202438 On ch=1 n=c#6 v=95
202438 Par ch=1 c=64 v=88
202446 On ch=1 n=e3 v=65
202446 Par ch=1 c=64 v=0
202448 On ch=1 n=e4 v=74
202466 Par ch=1 c=64 v=40
202468 On ch=1 n=e3 v=0
202471 Par ch=1 c=64 v=127
202473 On ch=1 n=e4 v=0
202503 On ch=1 n=c#6 v=0
202506 On ch=1 n=g6 v=56
202508 On ch=1 n=c#7 v=78
202508 On ch=1 n=a#6 v=65
202516 On ch=1 n=g6 v=0
202530 On ch=1 n=a#6 v=0
202530 On ch=1 n=c#7 v=0
202573 On ch=1 n=c#7 v=102
202576 On ch=1 n=g5 v=78
202576 On ch=1 n=c#5 v=62
202578 On ch=1 n=a#4 v=56
202620 On ch=1 n=c#7 v=0
202638 On ch=1 n=c#8 v=87
202643 On ch=1 n=a#7 v=65
202643 On ch=1 n=g7 v=75
202690 On ch=1 n=g7 v=0
202693 On ch=1 n=c#8 v=0
202698 On ch=1 n=a#7 v=0
202698 On ch=1 n=c#7 v=87
202708 On ch=1 n=g5 v=0
202715 On ch=1 n=c#7 v=0
202731 On ch=1 n=c#5 v=0
202735 On ch=1 n=a#4 v=0
202758 On ch=1 n=g6 v=84
202761 On ch=1 n=c#7 v=83
202763 On ch=1 n=a#6 v=67
202773 On ch=1 n=g6 v=51
202780 On ch=1 n=g6 v=0
202783 On ch=1 n=g6 v=0
202798 On ch=1 n=c#7 v=0
202800 On ch=1 n=a#6 v=0
202831 On ch=1 n=d6 v=103
202833 Par ch=1 c=64 v=56
202838 On ch=1 n=f3 v=77
202841 On ch=1 n=f4 v=73
202841 Par ch=1 c=64 v=0
202860 On ch=1 n=f3 v=0
202868 Par ch=1 c=64 v=127
202871 On ch=1 n=f4 v=0
202886 On ch=1 n=d6 v=0
202898 On ch=1 n=g#6 v=63
202901 On ch=1 n=b6 v=83
202901 On ch=1 n=d7 v=88
202910 On ch=1 n=g#6 v=0
202916 On ch=1 n=b6 v=0
202923 On ch=1 n=d7 v=0
202963 On ch=1 n=d7 v=105
202968 On ch=1 n=g#5 v=75
202968 On ch=1 n=b4 v=65
202973 On ch=1 n=d5 v=68
203020 On ch=1 n=d7 v=0
203036 On ch=1 n=d8 v=99
203036 On ch=1 n=g#7 v=84
203036 On ch=1 n=b7 v=87
203096 On ch=1 n=d8 v=0
203101 On ch=1 n=b7 v=0
203103 On ch=1 n=g#7 v=0
203103 On ch=1 n=d7 v=90
203123 On ch=1 n=c7 v=29
203128 On ch=1 n=d7 v=0
203133 On ch=1 n=c7 v=0
203160 On ch=1 n=b4 v=0
203163 On ch=1 n=d5 v=0
203165 On ch=1 n=g#5 v=0
203175 On ch=1 n=d7 v=93
203175 On ch=1 n=g#6 v=64
203175 On ch=1 n=b6 v=66
203182 On ch=1 n=b6 v=0
203185 On ch=1 n=g#6 v=0
203200 On ch=1 n=d7 v=0
203240 Par ch=1 c=64 v=40
203245 Par ch=1 c=64 v=72
203248 On ch=1 n=f4 v=68
203250 Par ch=1 c=64 v=104
203255 On ch=1 n=a4 v=64
203255 Par ch=1 c=64 v=127
203260 On ch=1 n=b4 v=67
203268 On ch=1 n=d#6 v=92
203270 On ch=1 n=d#5 v=65
203278 On ch=1 n=f4 v=0
203285 On ch=1 n=a4 v=0
203293 On ch=1 n=a5 v=66
203297 On ch=1 n=b4 v=0
203307 On ch=1 n=d#6 v=0
203309 On ch=1 n=d#5 v=0
203320 On ch=1 n=d#7 v=79
203320 On ch=1 n=b6 v=61
203320 On ch=1 n=a6 v=62
203342 On ch=1 n=a6 v=0
203342 On ch=1 n=b6 v=0
203342 On ch=1 n=d#7 v=0
203375 On ch=1 n=d#7 v=97
203465 On ch=1 n=d#8 v=104
203497 On ch=1 n=d#7 v=0
203500 On ch=1 n=d#8 v=0
203512 On ch=1 n=a5 v=0
204742 On ch=1 n=a5 v=45
204760 On ch=1 n=a4 v=34
204765 Par ch=1 c=64 v=40
204775 Par ch=1 c=64 v=72
204785 Par ch=1 c=64 v=88
204797 Par ch=1 c=64 v=127
204842 On ch=1 n=a5 v=0
204845 On ch=1 n=a4 v=0
204982 On ch=1 n=a5 v=55
204982 On ch=1 n=a4 v=38
205035 Par ch=1 c=64 v=88
205045 Par ch=1 c=64 v=56
205057 Par ch=1 c=64 v=0
205090 Par ch=1 c=64 v=40
205102 Par ch=1 c=64 v=72
205112 Par ch=1 c=64 v=127
205144 On ch=1 n=a4 v=0
205154 On ch=1 n=a5 v=0
205382 On ch=1 n=a5 v=58
205392 On ch=1 n=a4 v=38
205404 Par ch=1 c=64 v=88
205414 Par ch=1 c=64 v=40
205424 Par ch=1 c=64 v=24
205446 Par ch=1 c=64 v=56
205456 Par ch=1 c=64 v=88
205471 Par ch=1 c=64 v=127
205486 On ch=1 n=a4 v=0
205498 On ch=1 n=a5 v=0
205591 On ch=1 n=a5 v=58
205601 On ch=1 n=a4 v=39
205636 Par ch=1 c=64 v=72
205646 Par ch=1 c=64 v=24
205658 Par ch=1 c=64 v=0
205691 Par ch=1 c=64 v=40
205703 Par ch=1 c=64 v=88
205713 Par ch=1 c=64 v=127
205751 On ch=1 n=a4 v=0
205763 On ch=1 n=a5 v=0
205981 On ch=1 n=a5 v=51
205991 On ch=1 n=a4 v=32
206011 Par ch=1 c=64 v=88
206018 Par ch=1 c=64 v=40
206033 Par ch=1 c=64 v=0
206043 Par ch=1 c=64 v=24
206053 Par ch=1 c=64 v=56
206063 Par ch=1 c=64 v=88
206070 On ch=1 n=a5 v=0
206073 On ch=1 n=a4 v=0
206075 Par ch=1 c=64 v=127
206230 On ch=1 n=a5 v=44
206240 On ch=1 n=a4 v=27
206295 Par ch=1 c=64 v=104
206310 Par ch=1 c=64 v=56
206320 Par ch=1 c=64 v=24
206332 Par ch=1 c=64 v=0
206375 Par ch=1 c=64 v=40
206385 Par ch=1 c=64 v=88
206397 Par ch=1 c=64 v=127
206445 On ch=1 n=a4 v=0
206452 On ch=1 n=a5 v=0
206687 On ch=1 n=a5 v=47
206712 On ch=1 n=a4 v=33
206779 On ch=1 n=a4 v=0
206787 On ch=1 n=a5 v=0
206995 On ch=1 n=c6 v=63
207005 On ch=1 n=e5 v=44
207007 On ch=1 n=a4 v=24
207047 On ch=1 n=e4 v=24
207065 Par ch=1 c=64 v=104
207075 Par ch=1 c=64 v=40
207087 Par ch=1 c=64 v=0
207157 Par ch=1 c=64 v=24
207167 Par ch=1 c=64 v=88
207177 Par ch=1 c=64 v=127
207209 On ch=1 n=a4 v=0
207224 On ch=1 n=e4 v=0
207275 On ch=1 n=c6 v=0
207302 On ch=1 n=e5 v=0
207415 On ch=1 n=a5 v=65
207427 On ch=1 n=f5 v=53
207437 On ch=1 n=d4 v=45
207437 On ch=1 n=a4 v=26
207447 Par ch=1 c=64 v=56
207457 Par ch=1 c=64 v=0
207492 Par ch=1 c=64 v=24
207494 On ch=1 n=f5 v=0
207502 On ch=1 n=a4 v=0
207502 Par ch=1 c=64 v=72
207514 Par ch=1 c=64 v=127
207537 On ch=1 n=d4 v=0
207579 On ch=1 n=a5 v=0
207652 On ch=1 n=c6 v=77
207664 On ch=1 n=a4 v=36
207667 On ch=1 n=e4 v=42
207674 On ch=1 n=e5 v=44
207729 Par ch=1 c=64 v=72
207739 Par ch=1 c=64 v=0
207797 Par ch=1 c=64 v=24
207807 Par ch=1 c=64 v=88
207819 Par ch=1 c=64 v=127
207829 On ch=1 n=e5 v=0
207879 On ch=1 n=a4 v=0
207884 On ch=1 n=e4 v=0
207887 On ch=1 n=c6 v=0
208039 On ch=1 n=d6 v=76
208044 Par ch=1 c=64 v=104
208047 On ch=1 n=d5 v=52
208052 On ch=1 n=f4 v=47
208057 On ch=1 n=a4 v=32
208057 Par ch=1 c=64 v=40
208067 Par ch=1 c=64 v=0
208089 Par ch=1 c=64 v=40
208099 Par ch=1 c=64 v=88
208106 On ch=1 n=d5 v=0
208109 Par ch=1 c=64 v=127
208126 On ch=1 n=d6 v=0
208129 On ch=1 n=a4 v=0
208129 On ch=1 n=f4 v=0
208261 On ch=1 n=c6 v=75
208271 On ch=1 n=a4 v=40
208279 On ch=1 n=e4 v=41
208281 On ch=1 n=e5 v=57
208291 Par ch=1 c=64 v=72
208301 Par ch=1 c=64 v=24
208311 Par ch=1 c=64 v=0
208356 Par ch=1 c=64 v=24
208366 Par ch=1 c=64 v=88
208378 Par ch=1 c=64 v=127
208450 On ch=1 n=a4 v=0
208458 On ch=1 n=e4 v=0
208475 On ch=1 n=c6 v=0
208523 On ch=1 n=e5 v=0
208553 On ch=1 n=b5 v=74
208625 On ch=1 n=b5 v=0
208646 On ch=1 n=a5 v=79
208666 On ch=1 n=f5 v=45
208668 On ch=1 n=d4 v=28
208668 On ch=1 n=a4 v=28
208673 Par ch=1 c=64 v=40
208683 Par ch=1 c=64 v=0
208728 Par ch=1 c=64 v=40
208738 Par ch=1 c=64 v=127
208745 On ch=1 n=d4 v=0
208753 On ch=1 n=f5 v=0
208757 On ch=1 n=a4 v=0
208780 On ch=1 n=a5 v=0
208905 On ch=1 n=c6 v=78
208920 On ch=1 n=e5 v=53
208925 On ch=1 n=a4 v=36
208935 On ch=1 n=e4 v=29
208962 Par ch=1 c=64 v=56
208972 Par ch=1 c=64 v=0
209017 Par ch=1 c=64 v=72
209024 On ch=1 n=e5 v=0
209030 Par ch=1 c=64 v=127
209049 On ch=1 n=c6 v=0
209072 On ch=1 n=e4 v=0
209077 On ch=1 n=a4 v=0
209332 On ch=1 n=d6 v=66
209347 On ch=1 n=a5 v=53
209352 On ch=1 n=d5 v=40
209355 On ch=1 n=a4 v=33
209355 Par ch=1 c=64 v=56
209357 On ch=1 n=f4 v=42
209367 Par ch=1 c=64 v=0
209412 Par ch=1 c=64 v=56
209417 On ch=1 n=f4 v=0
209422 Par ch=1 c=64 v=127
209424 On ch=1 n=d5 v=0
209425 On ch=1 n=a4 v=0
209434 On ch=1 n=a5 v=0
209457 On ch=1 n=d6 v=0
209655 On ch=1 n=e6 v=61
209667 On ch=1 n=e5 v=44
209675 On ch=1 n=a5 v=49
209675 On ch=1 n=e4 v=26
209685 On ch=1 n=c5 v=29
209717 Par ch=1 c=64 v=104
209727 Par ch=1 c=64 v=40
209737 Par ch=1 c=64 v=0
209829 Par ch=1 c=64 v=24
209839 Par ch=1 c=64 v=72
209849 Par ch=1 c=64 v=104
209859 Par ch=1 c=64 v=127
210029 Par ch=1 c=64 v=56
210041 Par ch=1 c=64 v=0
210086 Par ch=1 c=64 v=72
210096 Par ch=1 c=64 v=127
210246 On ch=1 n=e4 v=0
210264 On ch=1 n=c5 v=0
210313 On ch=1 n=e5 v=0
210324 On ch=1 n=e6 v=0
210329 On ch=1 n=a5 v=0
210876 Par ch=1 c=64 v=104
210886 Par ch=1 c=64 v=88
210896 Par ch=1 c=64 v=40
210908 Par ch=1 c=64 v=0
211008 Par ch=1 c=64 v=24
211018 Par ch=1 c=64 v=72
211028 Par ch=1 c=64 v=127
211383 On ch=1 n=g#5 v=47
211383 On ch=1 n=e5 v=44
211383 On ch=1 n=e4 v=24
211383 On ch=1 n=d5 v=25
211383 On ch=1 n=b4 v=22
211448 Par ch=1 c=64 v=104
211458 Par ch=1 c=64 v=24
211468 Par ch=1 c=64 v=0
211513 Par ch=1 c=64 v=72
211525 Par ch=1 c=64 v=127
211528 On ch=1 n=b4 v=0
211548 On ch=1 n=e4 v=0
211848 On ch=1 n=d5 v=0
211875 Par ch=1 c=64 v=104
211885 Par ch=1 c=64 v=0
211913 On ch=1 n=e5 v=0
211943 Par ch=1 c=64 v=40
211953 Par ch=1 c=64 v=104
211968 Par ch=1 c=64 v=127
212010 On ch=1 n=g#4 v=42
212042 On ch=1 n=g#4 v=0
212113 On ch=1 n=g#4 v=50
212113 On ch=1 n=e2 v=42
212113 On ch=1 n=e3 v=40
212175 On ch=1 n=e3 v=0
212230 On ch=1 n=g#5 v=0
212238 On ch=1 n=g#4 v=0
212238 On ch=1 n=d5 v=69
212365 On ch=1 n=d5 v=0
212365 On ch=1 n=e5 v=66
212420 On ch=1 n=e5 v=0
212663 On ch=1 n=e2 v=0
212683 On ch=1 n=b5 v=74
213373 On ch=1 n=b5 v=0
213978 On ch=1 n=a2 v=40
214000 Par ch=1 c=64 v=104
214010 Par ch=1 c=64 v=40
214020 Par ch=1 c=64 v=0
214090 Par ch=1 c=64 v=88
214100 Par ch=1 c=64 v=127
214220 On ch=1 n=a2 v=0
214225 On ch=1 n=a3 v=26
214280 On ch=1 n=a3 v=0
214393 On ch=1 n=e4 v=39
214548 On ch=1 n=a4 v=31
214593 On ch=1 n=a4 v=0
214653 On ch=1 n=c5 v=38
214800 On ch=1 n=e5 v=39
214810 On ch=1 n=c5 v=0
215083 On ch=1 n=a5 v=47
215200 On ch=1 n=e4 v=0
215472 On ch=1 n=e5 v=0
215513 On ch=1 n=a5 v=0
219270 Par ch=1 c=64 v=88
219280 Par ch=1 c=64 v=40
219292 Par ch=1 c=64 v=0
219292 Meta TrkEnd
TrkEnd
MTrk
0 SeqSpec 43 00 01 00
0 KeySig 0 major
0 Meta TrkEnd
TrkEnd
MTrk
0 SeqSpec 43 00 01 00
0 KeySig 0 major
0 Meta TrkEnd
TrkEnd
MTrk
0 SeqSpec 43 00 01 00
0 KeySig 0 major
0 Meta TrkEnd
TrkEnd
MTrk
0 SeqSpec 43 00 01 00
0 KeySig 0 major
0 Meta TrkEnd
TrkEnd
MTrk
0 SeqSpec 43 00 01 00
0 KeySig 0 major
0 Meta TrkEnd
TrkEnd
MTrk
0 SeqSpec 43 00 01 00
0 KeySig 0 major
0 Meta TrkEnd
TrkEnd
MTrk
0 SeqSpec 43 00 01 00
0 KeySig 0 major
0 Meta TrkEnd
TrkEnd
MTrk
0 SeqSpec 43 00 01 00
0 KeySig 0 major
0 Meta TrkEnd
TrkEnd
MTrk
0 SeqSpec 43 00 01 00
0 KeySig 0 major
0 Meta TrkEnd
TrkEnd
