MFile 0 1 480
MTrk
0 SMPTE 96 0 0 0 0
0 TimeSig 4/4 24 8
0 Tempo 500000
0 On ch=1 n=c3 v=100
3 On ch=1 n=c4 v=97
244 Par ch=1 c=64 v=127
2870 On ch=1 n=d#4 v=74
2882 On ch=1 n=d#3 v=63
3014 On ch=1 n=c4 v=0
3074 On ch=1 n=c3 v=0
3102 Par ch=1 c=64 v=0
3378 Par ch=1 c=64 v=127
3386 On ch=1 n=g#4 v=76
3400 On ch=1 n=g#3 v=63
3494 On ch=1 n=d#4 v=0
3594 Par ch=1 c=64 v=0
3740 On ch=1 n=d#3 v=0
3802 On ch=1 n=a#4 v=70
3806 On ch=1 n=a#3 v=60
3840 Par ch=1 c=64 v=127
3906 On ch=1 n=g#4 v=0
3940 On ch=1 n=g#3 v=0
3962 Par ch=1 c=64 v=0
4146 Par ch=1 c=64 v=127
4170 On ch=1 n=c5 v=79
4178 On ch=1 n=c4 v=59
4210 On ch=1 n=a#3 v=0
4236 On ch=1 n=a#4 v=0
4270 Par ch=1 c=64 v=0
4440 Par ch=1 c=64 v=127
4502 On ch=1 n=g#3 v=62
4508 On ch=1 n=g#4 v=76
4542 On ch=1 n=c5 v=0
4546 Par ch=1 c=64 v=0
4594 On ch=1 n=c4 v=0
4746 Par ch=1 c=64 v=127
4816 On ch=1 n=g#4 v=0
4826 On ch=1 n=d#5 v=84
4838 Par ch=1 c=64 v=0
4848 On ch=1 n=d#4 v=66
4928 On ch=1 n=g#3 v=0
5038 Par ch=1 c=64 v=127
5132 On ch=1 n=a#5 v=78
5140 On ch=1 n=a#4 v=58
5176 On ch=1 n=d#4 v=0
5196 On ch=1 n=d#5 v=0
5454 On ch=1 n=c6 v=86
5470 On ch=1 n=c5 v=72
5482 On ch=1 n=a#4 v=0
5500 Par ch=1 c=64 v=0
5524 On ch=1 n=a#5 v=0
5744 Par ch=1 c=64 v=127
5764 On ch=1 n=g#5 v=79
5770 On ch=1 n=g#4 v=61
5804 On ch=1 n=c6 v=0
5806 On ch=1 n=c5 v=0
6108 On ch=1 n=d#6 v=73
6118 On ch=1 n=d#5 v=57
6144 On ch=1 n=g#5 v=0
6160 Par ch=1 c=64 v=0
6268 On ch=1 n=g#4 v=0
6422 Par ch=1 c=64 v=127
6442 On ch=1 n=a#6 v=72
6462 On ch=1 n=a#5 v=52
6536 On ch=1 n=d#6 v=0
6540 On ch=1 n=d#5 v=0
6820 On ch=1 n=a#5 v=0
6835 On ch=1 n=c7 v=76
6852 On ch=1 n=c6 v=51
6866 Par ch=1 c=64 v=0
6956 On ch=1 n=a#6 v=0
7174 Par ch=1 c=64 v=127
7280 On ch=1 n=g5 v=53
7282 On ch=1 n=g6 v=81
7348 On ch=1 n=c6 v=0
7410 On ch=1 n=c7 v=0
7652 On ch=1 n=a#6 v=60
7670 On ch=1 n=a#5 v=42
7696 Par ch=1 c=64 v=0
7708 On ch=1 n=g5 v=0
7736 On ch=1 n=g6 v=0
8012 On ch=1 n=g#6 v=56
8026 On ch=1 n=g#5 v=34
8074 On ch=1 n=a#5 v=0
8176 On ch=1 n=a#6 v=0
8510 On ch=1 n=g6 v=50
8518 On ch=1 n=g5 v=31
8550 On ch=1 n=g#5 v=0
8648 On ch=1 n=g#6 v=0
9310 Par ch=1 c=64 v=127
9728 On ch=1 n=f#6 v=28
9752 On ch=1 n=g5 v=0
9752 On ch=1 n=f#5 v=10
9874 On ch=1 n=g6 v=0
9908 Par ch=1 c=64 v=0
10354 Par ch=1 c=64 v=127
10442 On ch=1 n=f#6 v=0
10732 On ch=1 n=f#5 v=0
11368 Par ch=1 c=64 v=0
11472 On ch=1 n=f#6 v=31
11482 On ch=1 n=f#5 v=16
11906 Par ch=1 c=64 v=127
11990 On ch=1 n=g6 v=70
12000 On ch=1 n=g5 v=45
12006 On ch=1 n=f#5 v=0
12058 On ch=1 n=f#6 v=0
12152 Par ch=1 c=64 v=0
12354 On ch=1 n=f#6 v=74
12368 On ch=1 n=f#5 v=40
12402 On ch=1 n=g5 v=0
12414 Par ch=1 c=64 v=127
12460 On ch=1 n=g6 v=0
12520 Par ch=1 c=64 v=0
12696 On ch=1 n=f6 v=83
12696 On ch=1 n=f5 v=67
12754 On ch=1 n=f#6 v=0
12757 On ch=1 n=f#5 v=0
12766 Par ch=1 c=64 v=127
12858 Par ch=1 c=64 v=0
13038 On ch=1 n=f#6 v=80
13054 On ch=1 n=f#5 v=52
13094 On ch=1 n=f5 v=0
13104 Par ch=1 c=64 v=127
13106 On ch=1 n=f6 v=0
13196 Par ch=1 c=64 v=0
13458 Par ch=1 c=64 v=127
13490 On ch=1 n=a6 v=65
13504 On ch=1 n=a5 v=32
13507 On ch=1 n=f#5 v=0
13550 On ch=1 n=f#6 v=0
13580 Par ch=1 c=64 v=0
13828 Par ch=1 c=64 v=127
13862 On ch=1 n=g6 v=72
13872 On ch=1 n=g5 v=34
13875 On ch=1 n=a5 v=0
13990 On ch=1 n=a6 v=0
14072 Par ch=1 c=64 v=0
14140 On ch=1 n=d#6 v=65
14144 On ch=1 n=d#5 v=56
14177 On ch=1 n=g5 v=0
14196 On ch=1 n=g6 v=0
14350 Par ch=1 c=64 v=127
14394 On ch=1 n=d#5 v=0
14404 On ch=1 n=d#6 v=0
14548 On ch=1 n=d#6 v=54
14570 On ch=1 n=d#5 v=36
15422 On ch=1 n=d#5 v=0
15476 On ch=1 n=d6 v=50
15500 On ch=1 n=d5 v=20
15503 On ch=1 n=d#6 v=0
15720 On ch=1 n=d5 v=0
15726 On ch=1 n=f6 v=54
15740 On ch=1 n=d6 v=0
15748 Par ch=1 c=64 v=0
15751 On ch=1 n=f5 v=28
16040 Par ch=1 c=64 v=127
16108 On ch=1 n=d#5 v=37
16116 On ch=1 n=d#6 v=43
16128 On ch=1 n=f5 v=0
16176 On ch=1 n=f6 v=0
16362 Par ch=1 c=64 v=0
16542 On ch=1 n=d6 v=48
16568 On ch=1 n=d5 v=34
16572 On ch=1 n=d#6 v=0
16600 On ch=1 n=d#5 v=0
16914 On ch=1 n=d5 v=0
16914 Par ch=1 c=64 v=127
16924 On ch=1 n=d6 v=0
17248 On ch=1 n=d6 v=29
17268 On ch=1 n=d5 v=15
17842 On ch=1 n=d5 v=0
18256 On ch=1 n=d6 v=0
18974 Par ch=1 c=64 v=0
20310 On ch=1 n=c6 v=61
20324 On ch=1 n=c5 v=29
20348 On ch=1 n=g4 v=25
20366 On ch=1 n=d#4 v=24
20818 Par ch=1 c=64 v=127
21788 On ch=1 n=g5 v=60
21836 On ch=1 n=g4 v=0
21972 On ch=1 n=c5 v=0
21988 On ch=1 n=c6 v=0
22030 On ch=1 n=d4 v=34
22042 On ch=1 n=d#4 v=0
22220 On ch=1 n=g4 v=43
22514 On ch=1 n=a#5 v=58
22586 On ch=1 n=d#5 v=51
22650 On ch=1 n=g5 v=0
22800 Par ch=1 c=64 v=0
23308 Par ch=1 c=64 v=127
25650 On ch=1 n=d3 v=31
26106 On ch=1 n=d4 v=0
26206 On ch=1 n=g4 v=0
26300 On ch=1 n=c5 v=34
26366 On ch=1 n=d#5 v=0
26410 Par ch=1 c=64 v=0
26688 Par ch=1 c=64 v=127
26724 On ch=1 n=d5 v=48
26780 Par ch=1 c=64 v=0
26804 On ch=1 n=a#5 v=0
27040 Par ch=1 c=64 v=127
27070 On ch=1 n=f#5 v=34
27324 On ch=1 n=f#5 v=0
27356 On ch=1 n=a#5 v=31
27364 Par ch=1 c=64 v=0
27516 Par ch=1 c=64 v=127
27556 On ch=1 n=d3 v=0
27578 On ch=1 n=a#5 v=0
27606 On ch=1 n=d5 v=0
27652 On ch=1 n=a5 v=31
27708 On ch=1 n=c5 v=0
28100 On ch=1 n=g5 v=37
28178 Par ch=1 c=64 v=0
28206 On ch=1 n=a5 v=0
28638 On ch=1 n=a#4 v=12
28646 On ch=1 n=d5 v=27
28649 On ch=1 n=g3 v=20
28792 Par ch=1 c=64 v=127
28840 On ch=1 n=g3 v=0
28845 On ch=1 n=d5 v=0
28866 On ch=1 n=a#4 v=0
29124 On ch=1 n=d5 v=30
29126 On ch=1 n=a#4 v=10
29132 On ch=1 n=g3 v=15
29184 On ch=1 n=g5 v=0
29208 On ch=1 n=d5 v=0
29211 On ch=1 n=g3 v=0
29211 On ch=1 n=a#4 v=0
29550 On ch=1 n=d6 v=64
29700 Par ch=1 c=64 v=0
29990 On ch=1 n=g5 v=28
29993 On ch=1 n=a#4 v=19
29993 On ch=1 n=d5 v=19
30190 On ch=1 n=g5 v=0
30206 On ch=1 n=d5 v=0
30206 On ch=1 n=a#4 v=0
30206 Par ch=1 c=64 v=127
30432 On ch=1 n=d5 v=25
30437 On ch=1 n=a#4 v=16
30448 On ch=1 n=g5 v=22
30558 On ch=1 n=g5 v=0
30568 On ch=1 n=a#4 v=0
30580 On ch=1 n=d5 v=0
30862 On ch=1 n=d6 v=0
30866 On ch=1 n=c6 v=38
30896 Par ch=1 c=64 v=0
31328 Par ch=1 c=64 v=127
31424 On ch=1 n=d#5 v=15
31424 On ch=1 n=a4 v=10
31427 On ch=1 n=g5 v=17
31434 On ch=1 n=c5 v=10
31590 On ch=1 n=a4 v=0
31600 On ch=1 n=d#5 v=0
31606 On ch=1 n=c5 v=0
31618 On ch=1 n=g5 v=0
32004 On ch=1 n=a4 v=10
32007 On ch=1 n=c5 v=6
32024 On ch=1 n=g5 v=6
32026 On ch=1 n=d#5 v=5
32106 On ch=1 n=a4 v=0
32152 On ch=1 n=c5 v=0
32178 On ch=1 n=d#5 v=0
32256 On ch=1 n=g5 v=0
32312 On ch=1 n=c6 v=0
32822 On ch=1 n=c5 v=40
33144 On ch=1 n=d5 v=46
33172 On ch=1 n=d3 v=26
33294 Par ch=1 c=64 v=0
33384 On ch=1 n=f#5 v=51
33468 On ch=1 n=d3 v=0
33494 Par ch=1 c=64 v=127
33630 On ch=1 n=a#5 v=49
33638 On ch=1 n=f#5 v=0
33680 On ch=1 n=d3 v=14
33792 On ch=1 n=d3 v=0
33812 On ch=1 n=a#5 v=0
33868 On ch=1 n=d5 v=0
33868 On ch=1 n=a5 v=53
33930 On ch=1 n=c5 v=0
34144 On ch=1 n=g5 v=57
34174 On ch=1 n=a5 v=0
34186 Par ch=1 c=64 v=0
34564 On ch=1 n=a#4 v=20
34564 On ch=1 n=g3 v=31
34572 On ch=1 n=d5 v=33
34724 Par ch=1 c=64 v=127
34760 On ch=1 n=d5 v=0
34765 On ch=1 n=g3 v=0
34776 On ch=1 n=a#4 v=0
34990 On ch=1 n=a#4 v=27
35000 On ch=1 n=g3 v=30
35016 On ch=1 n=d5 v=41
35112 On ch=1 n=g3 v=0
35130 On ch=1 n=d5 v=0
35164 On ch=1 n=a#4 v=0
35418 On ch=1 n=e5 v=73
35446 Par ch=1 c=64 v=0
35554 On ch=1 n=g5 v=0
35822 On ch=1 n=a3 v=29
35825 On ch=1 n=c#5 v=41
35834 On ch=1 n=a4 v=26
35838 On ch=1 n=g4 v=37
36022 On ch=1 n=g4 v=0
36032 On ch=1 n=a4 v=0
36034 On ch=1 n=c#5 v=0
36044 Par ch=1 c=64 v=127
36056 On ch=1 n=a3 v=0
36296 On ch=1 n=c#5 v=38
36298 On ch=1 n=a3 v=28
36318 On ch=1 n=a4 v=16
36321 On ch=1 n=g4 v=23
36434 On ch=1 n=g4 v=0
36446 On ch=1 n=a4 v=0
36454 On ch=1 n=a3 v=0
36612 On ch=1 n=c#5 v=0
36716 On ch=1 n=e5 v=0
36746 On ch=1 n=f#5 v=43
36890 Par ch=1 c=64 v=0
37288 On ch=1 n=f#4 v=41
37306 On ch=1 n=d5 v=32
37312 On ch=1 n=a4 v=23
37318 On ch=1 n=d3 v=23
37412 Par ch=1 c=64 v=127
37502 On ch=1 n=d3 v=0
37514 On ch=1 n=f#4 v=0
37530 On ch=1 n=a4 v=0
37533 On ch=1 n=d5 v=0
37892 On ch=1 n=d5 v=24
37904 On ch=1 n=a4 v=20
37907 On ch=1 n=d3 v=7
37950 On ch=1 n=f#4 v=9
38040 On ch=1 n=d3 v=0
38060 On ch=1 n=f#4 v=0
38108 On ch=1 n=a4 v=0
38208 On ch=1 n=d5 v=0
38774 On ch=1 n=c5 v=44
38920 On ch=1 n=f#5 v=0
39062 On ch=1 n=d5 v=60
39088 Par ch=1 c=64 v=0
39091 On ch=1 n=d4 v=30
39272 Par ch=1 c=64 v=127
39280 On ch=1 n=f#5 v=61
39326 On ch=1 n=d4 v=0
39464 On ch=1 n=f#5 v=0
39496 On ch=1 n=a#5 v=55
39540 On ch=1 n=d4 v=38
39624 On ch=1 n=d5 v=0
39656 On ch=1 n=d4 v=0
39664 On ch=1 n=a#5 v=0
39726 On ch=1 n=a5 v=60
39746 On ch=1 n=c5 v=0
40030 On ch=1 n=g5 v=59
40102 On ch=1 n=a5 v=0
40194 Par ch=1 c=64 v=0
40492 On ch=1 n=d5 v=36
40494 On ch=1 n=a#4 v=24
40512 On ch=1 n=g3 v=28
40624 Par ch=1 c=64 v=127
40662 On ch=1 n=d5 v=0
40680 On ch=1 n=a#4 v=0
40696 On ch=1 n=g3 v=0
40914 On ch=1 n=a#4 v=39
40926 On ch=1 n=d5 v=51
40930 On ch=1 n=g3 v=32
40980 On ch=1 n=a#4 v=0
40984 On ch=1 n=g5 v=0
41000 On ch=1 n=d5 v=0
41006 On ch=1 n=g3 v=0
41392 Par ch=1 c=64 v=0
41392 On ch=1 n=g6 v=85
41846 On ch=1 n=c#6 v=30
41864 On ch=1 n=e5 v=34
41864 On ch=1 n=a#5 v=15
41870 On ch=1 n=g5 v=28
41884 Par ch=1 c=64 v=127
41986 On ch=1 n=g5 v=0
42010 On ch=1 n=a#5 v=0
42010 On ch=1 n=e5 v=0
42030 On ch=1 n=c#6 v=0
42286 On ch=1 n=c#6 v=28
42292 On ch=1 n=a#5 v=25
42300 On ch=1 n=g5 v=19
42304 On ch=1 n=e5 v=25
42380 On ch=1 n=e5 v=0
42390 On ch=1 n=g5 v=0
42392 On ch=1 n=a#5 v=0
42460 On ch=1 n=c#6 v=0
42740 On ch=1 n=f6 v=52
42790 Par ch=1 c=64 v=0
42826 On ch=1 n=g6 v=0
43206 Par ch=1 c=64 v=127
43232 On ch=1 n=a#5 v=20
43238 On ch=1 n=c6 v=14
43256 On ch=1 n=f5 v=11
43408 On ch=1 n=f5 v=0
43408 On ch=1 n=a#5 v=0
43440 On ch=1 n=c6 v=0
43764 On ch=1 n=a#5 v=15
43788 On ch=1 n=c6 v=15
43798 On ch=1 n=f5 v=4
43866 On ch=1 n=f6 v=0
43882 On ch=1 n=c6 v=0
43882 On ch=1 n=a#5 v=0
43920 On ch=1 n=f5 v=0
44338 On ch=1 n=d#5 v=44
44700 On ch=1 n=f5 v=52
44756 Par ch=1 c=64 v=0
44922 On ch=1 n=f3 v=26
44926 Par ch=1 c=64 v=127
44982 On ch=1 n=f5 v=0
45000 On ch=1 n=a5 v=44
45044 On ch=1 n=d#5 v=0
45100 On ch=1 n=f3 v=0
45164 On ch=1 n=a5 v=0
45224 On ch=1 n=d#6 v=55
45424 On ch=1 n=f3 v=38
45462 On ch=1 n=d#6 v=0
45484 On ch=1 n=d6 v=76
45494 On ch=1 n=f3 v=0
45602 On ch=1 n=d6 v=0
45916 On ch=1 n=c#6 v=73
46026 On ch=1 n=c#6 v=0
46138 On ch=1 n=c#6 v=58
46216 Par ch=1 c=64 v=0
46596 On ch=1 n=a#3 v=22
46604 On ch=1 n=a5 v=25
46606 On ch=1 n=d#5 v=33
46620 On ch=1 n=f5 v=17
46708 Par ch=1 c=64 v=127
46760 On ch=1 n=f5 v=0
46766 On ch=1 n=d#5 v=0
46792 On ch=1 n=a#3 v=0
46826 On ch=1 n=a5 v=0
47044 On ch=1 n=d#5 v=34
47046 On ch=1 n=a5 v=44
47050 On ch=1 n=a#3 v=25
47118 On ch=1 n=d#5 v=0
47140 On ch=1 n=a#3 v=0
47216 On ch=1 n=a5 v=0
47346 On ch=1 n=c#6 v=0
47472 On ch=1 n=d6 v=68
47552 Par ch=1 c=64 v=0
47882 On ch=1 n=a#5 v=35
47884 On ch=1 n=a#4 v=28
47898 On ch=1 n=f5 v=15
47906 On ch=1 n=d5 v=24
48014 Par ch=1 c=64 v=127
48064 On ch=1 n=d5 v=0
48069 On ch=1 n=a#4 v=0
48074 On ch=1 n=f5 v=0
48100 On ch=1 n=a#5 v=0
48370 On ch=1 n=a#5 v=30
48386 On ch=1 n=a#4 v=12
48396 On ch=1 n=d5 v=21
48408 On ch=1 n=f5 v=10
48486 On ch=1 n=f5 v=0
48486 On ch=1 n=d5 v=0
48492 On ch=1 n=a#4 v=0
48610 On ch=1 n=a#5 v=0
48938 On ch=1 n=c6 v=41
48948 On ch=1 n=d6 v=0
49028 Par ch=1 c=64 v=0
49382 Par ch=1 c=64 v=127
49544 On ch=1 n=d#5 v=18
49564 On ch=1 n=g5 v=18
49566 On ch=1 n=a4 v=15
49712 On ch=1 n=a4 v=0
49746 On ch=1 n=d#5 v=0
49758 On ch=1 n=g5 v=0
50144 On ch=1 n=d#5 v=11
50160 On ch=1 n=g5 v=18
50180 On ch=1 n=a4 v=5
50340 On ch=1 n=a4 v=0
50360 On ch=1 n=d#5 v=0
50398 On ch=1 n=g5 v=0
50478 On ch=1 n=c6 v=0
51136 On ch=1 n=c5 v=51
51526 On ch=1 n=d5 v=47
51602 On ch=1 n=d3 v=21
51686 Par ch=1 c=64 v=0
51816 On ch=1 n=f#5 v=45
51866 On ch=1 n=d3 v=0
51870 Par ch=1 c=64 v=127
52050 On ch=1 n=f#5 v=0
52076 On ch=1 n=a#5 v=45
52160 On ch=1 n=d3 v=29
52226 On ch=1 n=a#5 v=0
52274 On ch=1 n=d3 v=0
52306 On ch=1 n=d5 v=0
52340 On ch=1 n=a5 v=43
52416 On ch=1 n=c5 v=0
52592 On ch=1 n=a5 v=0
52608 On ch=1 n=g5 v=44
52762 Par ch=1 c=64 v=0
53068 On ch=1 n=a#4 v=21
53078 On ch=1 n=d5 v=33
53080 On ch=1 n=g3 v=26
53176 Par ch=1 c=64 v=127
53236 On ch=1 n=g3 v=0
53242 On ch=1 n=a#4 v=0
53252 On ch=1 n=d5 v=0
53502 On ch=1 n=a#4 v=25
53514 On ch=1 n=d5 v=37
53544 On ch=1 n=g3 v=10
53578 On ch=1 n=a#4 v=0
53578 On ch=1 n=g5 v=0
53598 On ch=1 n=d5 v=0
53614 On ch=1 n=g3 v=0
53940 On ch=1 n=d6 v=74
54238 Par ch=1 c=64 v=0
54384 On ch=1 n=g5 v=34
54390 On ch=1 n=a#4 v=21
54392 On ch=1 n=d5 v=30
54570 On ch=1 n=g5 v=0
54580 On ch=1 n=d5 v=0
54602 On ch=1 n=a#4 v=0
54622 Par ch=1 c=64 v=127
54842 On ch=1 n=a#4 v=16
54850 On ch=1 n=d5 v=32
54866 On ch=1 n=g5 v=25
54968 On ch=1 n=d5 v=0
54976 On ch=1 n=g5 v=0
54982 On ch=1 n=a#4 v=0
55356 On ch=1 n=c6 v=44
55372 On ch=1 n=d6 v=0
55528 Par ch=1 c=64 v=0
55866 Par ch=1 c=64 v=127
55896 On ch=1 n=d#5 v=17
55904 On ch=1 n=g5 v=18
55906 On ch=1 n=a4 v=8
55918 On ch=1 n=c5 v=20
56076 On ch=1 n=a4 v=0
56092 On ch=1 n=d#5 v=0
56102 On ch=1 n=c5 v=0
56102 On ch=1 n=g5 v=0
56466 On ch=1 n=a4 v=7
56474 On ch=1 n=d#5 v=19
56478 On ch=1 n=g5 v=11
56490 On ch=1 n=c5 v=4
56630 On ch=1 n=a4 v=0
56644 On ch=1 n=c5 v=0
56682 On ch=1 n=d#5 v=0
56730 On ch=1 n=g5 v=0
56736 On ch=1 n=c6 v=0
57248 On ch=1 n=c5 v=36
57566 On ch=1 n=d5 v=38
57600 On ch=1 n=d3 v=10
57632 Par ch=1 c=64 v=0
57794 On ch=1 n=f#5 v=39
57802 Par ch=1 c=64 v=127
57814 On ch=1 n=d3 v=0
58000 On ch=1 n=f#5 v=0
58054 On ch=1 n=a#5 v=43
58104 On ch=1 n=d3 v=26
58182 On ch=1 n=d3 v=0
58198 On ch=1 n=d5 v=0
58212 On ch=1 n=a#5 v=0
58314 On ch=1 n=a5 v=41
58366 On ch=1 n=c5 v=0
58474 On ch=1 n=a5 v=0
58650 On ch=1 n=g5 v=38
58832 Par ch=1 c=64 v=0
59112 On ch=1 n=g3 v=22
59120 On ch=1 n=a#4 v=19
59136 On ch=1 n=d5 v=27
59262 Par ch=1 c=64 v=127
59288 On ch=1 n=d5 v=0
59298 On ch=1 n=a#4 v=0
59310 On ch=1 n=g3 v=0
59586 On ch=1 n=a#4 v=15
59592 On ch=1 n=g3 v=18
59594 On ch=1 n=d5 v=30
59684 On ch=1 n=d5 v=0
59690 On ch=1 n=g3 v=0
59706 On ch=1 n=a#4 v=0
60022 On ch=1 n=e5 v=52
60092 Par ch=1 c=64 v=0
60120 On ch=1 n=g5 v=0
60440 On ch=1 n=c#5 v=28
60450 On ch=1 n=a4 v=16
60460 On ch=1 n=g4 v=28
60466 On ch=1 n=a3 v=17
60598 Par ch=1 c=64 v=127
60626 On ch=1 n=g4 v=0
60634 On ch=1 n=a3 v=0
60636 On ch=1 n=a4 v=0
60656 On ch=1 n=c#5 v=0
60922 On ch=1 n=a3 v=19
60930 On ch=1 n=c#5 v=29
60946 On ch=1 n=a4 v=14
60954 On ch=1 n=g4 v=20
61040 On ch=1 n=g4 v=0
61050 On ch=1 n=a4 v=0
61084 On ch=1 n=a3 v=0
61162 On ch=1 n=c#5 v=0
61226 On ch=1 n=e5 v=0
61504 On ch=1 n=f#5 v=29
61628 Par ch=1 c=64 v=0
62058 Par ch=1 c=64 v=127
62106 On ch=1 n=a4 v=11
62110 On ch=1 n=d5 v=21
62124 On ch=1 n=f#4 v=7
62136 On ch=1 n=d3 v=15
62274 On ch=1 n=d3 v=0
62316 On ch=1 n=f#4 v=0
62319 On ch=1 n=d5 v=0
62324 On ch=1 n=a4 v=0
62694 On ch=1 n=f#4 v=22
62708 On ch=1 n=d3 v=6
62712 On ch=1 n=d5 v=16
62718 On ch=1 n=a4 v=5
62840 On ch=1 n=f#4 v=0
62870 On ch=1 n=a4 v=0
62878 On ch=1 n=d3 v=0
62940 On ch=1 n=d5 v=0
63134 On ch=1 n=f#5 v=0
63522 On ch=1 n=c5 v=33
63812 On ch=1 n=d5 v=47
63860 On ch=1 n=d4 v=16
64044 On ch=1 n=d4 v=0
64050 On ch=1 n=f#5 v=52
64188 On ch=1 n=d5 v=0
64240 On ch=1 n=f#5 v=0
64274 On ch=1 n=a#5 v=46
64304 On ch=1 n=d4 v=26
64408 On ch=1 n=d4 v=0
64436 On ch=1 n=a#5 v=0
64522 On ch=1 n=a5 v=43
64552 On ch=1 n=c5 v=0
64906 On ch=1 n=g5 v=38
64968 On ch=1 n=a5 v=0
65024 Par ch=1 c=64 v=0
65488 On ch=1 n=f5 v=19
65488 On ch=1 n=g4 v=22
65491 On ch=1 n=d5 v=24
65496 On ch=1 n=b4 v=19
65576 Par ch=1 c=64 v=127
65684 On ch=1 n=b4 v=0
65684 On ch=1 n=g4 v=0
65722 On ch=1 n=f5 v=0
65724 On ch=1 n=d5 v=0
65964 On ch=1 n=f5 v=33
65967 On ch=1 n=b4 v=31
65974 On ch=1 n=d5 v=21
66022 On ch=1 n=b4 v=0
66050 On ch=1 n=d5 v=0
66064 On ch=1 n=f5 v=0
66106 On ch=1 n=g5 v=0
66382 On ch=1 n=g6 v=82
66810 On ch=1 n=g3 v=20
66828 On ch=1 n=b5 v=27
66834 On ch=1 n=f5 v=15
66836 On ch=1 n=g5 v=18
66836 On ch=1 n=d6 v=27
66968 On ch=1 n=f5 v=0
66994 On ch=1 n=g5 v=0
66994 On ch=1 n=b5 v=0
66997 On ch=1 n=g3 v=0
67012 On ch=1 n=d6 v=0
67348 On ch=1 n=g3 v=22
67350 On ch=1 n=g5 v=18
67358 On ch=1 n=b5 v=31
67360 On ch=1 n=f5 v=21
67368 On ch=1 n=d6 v=36
67442 On ch=1 n=f5 v=0
67488 On ch=1 n=g5 v=0
67494 On ch=1 n=g3 v=0
67524 On ch=1 n=g6 v=0
67572 On ch=1 n=b5 v=0
67618 On ch=1 n=d6 v=0
67768 On ch=1 n=g6 v=93
68158 Par ch=1 c=64 v=0
68188 On ch=1 n=d#6 v=35
68196 On ch=1 n=c3 v=45
68196 On ch=1 n=c4 v=45
68196 On ch=1 n=g5 v=26
68214 On ch=1 n=c6 v=20
68416 On ch=1 n=c6 v=0
68416 On ch=1 n=c3 v=0
68434 On ch=1 n=d#6 v=0
68438 On ch=1 n=g5 v=0
68480 Par ch=1 c=64 v=127
68610 On ch=1 n=c4 v=0
68664 On ch=1 n=g5 v=30
68680 On ch=1 n=d#6 v=27
68694 On ch=1 n=g4 v=47
68720 On ch=1 n=c6 v=16
68784 On ch=1 n=g5 v=0
68812 On ch=1 n=c6 v=0
68830 On ch=1 n=g4 v=0
68896 On ch=1 n=d#6 v=0
69162 On ch=1 n=d6 v=74
69166 On ch=1 n=g6 v=0
69526 Par ch=1 c=64 v=0
69584 On ch=1 n=d4 v=58
69596 On ch=1 n=d3 v=33
69608 On ch=1 n=d5 v=14
69612 On ch=1 n=g5 v=24
69730 On ch=1 n=g5 v=0
69748 On ch=1 n=d5 v=0
69758 On ch=1 n=d3 v=0
69818 Par ch=1 c=64 v=127
69934 On ch=1 n=d4 v=0
69976 On ch=1 n=d5 v=39
70006 On ch=1 n=g5 v=27
70009 On ch=1 n=g4 v=57
70088 On ch=1 n=g4 v=0
70091 On ch=1 n=d5 v=0
70154 On ch=1 n=g5 v=0
70334 On ch=1 n=c6 v=73
70362 On ch=1 n=d6 v=0
70694 Par ch=1 c=64 v=0
70736 On ch=1 n=c5 v=20
70738 On ch=1 n=g5 v=26
70754 On ch=1 n=d#4 v=60
70768 On ch=1 n=d#3 v=40
70920 On ch=1 n=c5 v=0
70926 On ch=1 n=d#3 v=0
70944 On ch=1 n=g5 v=0
70954 Par ch=1 c=64 v=127
71032 On ch=1 n=d#4 v=0
71152 On ch=1 n=c5 v=36
71172 On ch=1 n=g5 v=24
71198 On ch=1 n=g4 v=44
71236 On ch=1 n=c5 v=0
71260 On ch=1 n=g5 v=0
71276 On ch=1 n=g4 v=0
71562 On ch=1 n=g5 v=54
71567 On ch=1 n=c6 v=0
71906 Par ch=1 c=64 v=0
71958 On ch=1 n=a#4 v=17
71961 On ch=1 n=d5 v=32
71968 On ch=1 n=d4 v=42
71971 On ch=1 n=d3 v=26
72126 On ch=1 n=d3 v=0
72168 On ch=1 n=d5 v=0
72168 On ch=1 n=a#4 v=0
72200 Par ch=1 c=64 v=127
72300 On ch=1 n=d4 v=0
72424 On ch=1 n=a#4 v=24
72438 On ch=1 n=g4 v=41
72452 On ch=1 n=d5 v=28
72494 On ch=1 n=a#4 v=0
72497 On ch=1 n=g4 v=0
72500 On ch=1 n=g5 v=0
72522 On ch=1 n=d5 v=0
72962 On ch=1 n=g6 v=79
72974 On ch=1 n=b3 v=50
73060 Par ch=1 c=64 v=0
73210 On ch=1 n=c4 v=35
73290 Par ch=1 c=64 v=127
73366 On ch=1 n=c4 v=0
73370 On ch=1 n=b3 v=0
73370 On ch=1 n=d4 v=63
73410 On ch=1 n=g5 v=29
73426 On ch=1 n=c6 v=25
73436 On ch=1 n=d#6 v=21
73504 On ch=1 n=c6 v=0
73507 On ch=1 n=g5 v=0
73514 On ch=1 n=d#6 v=0
73530 On ch=1 n=d4 v=0
73554 On ch=1 n=c4 v=64
73728 On ch=1 n=d#6 v=41
73734 On ch=1 n=g5 v=40
73736 Par ch=1 c=64 v=0
73743 On ch=1 n=g4 v=67
73766 On ch=1 n=c6 v=33
73802 On ch=1 n=c4 v=0
73866 On ch=1 n=g5 v=0
73876 On ch=1 n=c6 v=0
73904 Par ch=1 c=64 v=127
73984 On ch=1 n=d#6 v=0
74126 On ch=1 n=g4 v=0
74168 On ch=1 n=d6 v=89
74180 On ch=1 n=c#4 v=53
74192 On ch=1 n=g6 v=0
74370 On ch=1 n=d4 v=64
74392 On ch=1 n=c#4 v=0
74528 On ch=1 n=d4 v=0
74528 On ch=1 n=d#4 v=70
74546 On ch=1 n=g5 v=36
74624 On ch=1 n=g5 v=0
74686 On ch=1 n=d#4 v=0
74686 On ch=1 n=d4 v=75
74856 On ch=1 n=d5 v=54
74856 Par ch=1 c=64 v=0
74868 On ch=1 n=g5 v=57
74880 On ch=1 n=g4 v=72
74950 On ch=1 n=d4 v=0
75028 On ch=1 n=d5 v=0
75088 Par ch=1 c=64 v=127
75094 On ch=1 n=g5 v=0
75218 On ch=1 n=c6 v=83
75232 On ch=1 n=d4 v=68
75246 On ch=1 n=g4 v=0
75282 On ch=1 n=d6 v=0
75414 On ch=1 n=d#4 v=70
75490 On ch=1 n=d4 v=0
75570 On ch=1 n=c5 v=46
75576 On ch=1 n=g5 v=43
75582 On ch=1 n=f4 v=97
75614 On ch=1 n=d#4 v=0
75648 On ch=1 n=g5 v=0
75678 On ch=1 n=c5 v=0
75752 On ch=1 n=d#4 v=69
75766 On ch=1 n=f4 v=0
75884 On ch=1 n=c5 v=54
75902 Par ch=1 c=64 v=0
75908 On ch=1 n=g5 v=50
75916 On ch=1 n=g4 v=79
75974 On ch=1 n=d#4 v=0
76020 On ch=1 n=c5 v=0
76072 On ch=1 n=g5 v=0
76086 Par ch=1 c=64 v=127
76204 On ch=1 n=g5 v=89
76240 On ch=1 n=g4 v=0
76240 On ch=1 n=d#4 v=55
76272 On ch=1 n=c6 v=0
76374 On ch=1 n=d#4 v=0
76384 On ch=1 n=e4 v=70
76446 On ch=1 n=e4 v=0
76486 On ch=1 n=f4 v=84
76532 On ch=1 n=f4 v=0
76574 On ch=1 n=e4 v=73
76578 On ch=1 n=c#5 v=54
76580 On ch=1 n=a#4 v=41
76624 Par ch=1 c=64 v=0
76632 On ch=1 n=e4 v=0
76658 On ch=1 n=f4 v=80
76712 On ch=1 n=f4 v=0
76726 On ch=1 n=a#4 v=0
76732 On ch=1 n=e4 v=71
76736 On ch=1 n=c#5 v=0
76778 Par ch=1 c=64 v=127
76790 On ch=1 n=e4 v=0
76798 On ch=1 n=f4 v=81
76880 On ch=1 n=f4 v=0
76888 On ch=1 n=e4 v=57
76916 Par ch=1 c=64 v=0
76928 On ch=1 n=c#5 v=53
76940 On ch=1 n=a#4 v=32
76948 On ch=1 n=e4 v=0
76966 On ch=1 n=f4 v=82
77032 On ch=1 n=f4 v=0
77038 On ch=1 n=e4 v=61
77086 Par ch=1 c=64 v=127
77158 On ch=1 n=d#4 v=60
77161 On ch=1 n=e4 v=0
77262 On ch=1 n=e4 v=47
77298 On ch=1 n=d#4 v=0
77386 On ch=1 n=c#5 v=0
77390 On ch=1 n=e4 v=0
77396 On ch=1 n=f5 v=69
77426 On ch=1 n=a#4 v=0
77436 On ch=1 n=f4 v=89
77470 Par ch=1 c=64 v=0
77566 On ch=1 n=g5 v=0
77846 On ch=1 n=d5 v=53
77860 On ch=1 n=a#4 v=28
77868 On ch=1 n=f4 v=0
77914 Par ch=1 c=64 v=127
78006 On ch=1 n=a#4 v=0
78006 On ch=1 n=d5 v=0
78214 On ch=1 n=a#4 v=40
78226 On ch=1 n=d5 v=57
78294 On ch=1 n=a#4 v=0
78324 On ch=1 n=f5 v=0
78354 On ch=1 n=d5 v=0
78716 On ch=1 n=d6 v=88
79212 On ch=1 n=a#5 v=33
79228 On ch=1 n=d5 v=34
79232 On ch=1 n=f5 v=16
79240 On ch=1 n=e3 v=65
79258 On ch=1 n=e4 v=16
79354 On ch=1 n=e4 v=0
79364 On ch=1 n=d5 v=0
79404 On ch=1 n=f5 v=0
79426 On ch=1 n=a#5 v=0
79470 On ch=1 n=e3 v=0
79626 On ch=1 n=a#5 v=42
79628 On ch=1 n=f3 v=73
79636 On ch=1 n=f4 v=64
79636 On ch=1 n=d5 v=45
79642 On ch=1 n=f5 v=23
79700 On ch=1 n=d5 v=0
79710 On ch=1 n=f5 v=0
79776 On ch=1 n=a#5 v=0
79806 On ch=1 n=f4 v=0
79848 On ch=1 n=f3 v=0
79996 On ch=1 n=f#4 v=86
79999 On ch=1 n=f#3 v=78
79999 On ch=1 n=d#5 v=57
80014 On ch=1 n=a5 v=47
80036 Par ch=1 c=64 v=0
80200 On ch=1 n=d6 v=0
80205 On ch=1 n=d#5 v=0
80230 On ch=1 n=a5 v=0
80250 Par ch=1 c=64 v=127
80322 On ch=1 n=d6 v=78
80356 On ch=1 n=c6 v=84
80358 Par ch=1 c=64 v=0
80360 On ch=1 n=a5 v=28
80378 On ch=1 n=d#5 v=33
80430 On ch=1 n=d6 v=0
80536 On ch=1 n=d#5 v=0
80576 On ch=1 n=a5 v=0
80588 Par ch=1 c=64 v=127
80724 On ch=1 n=b5 v=94
80734 On ch=1 n=d#5 v=64
80738 On ch=1 n=a5 v=44
80776 On ch=1 n=c6 v=0
80824 On ch=1 n=d#5 v=0
80942 Par ch=1 c=64 v=0
80994 On ch=1 n=a5 v=0
81064 Par ch=1 c=64 v=127
81130 On ch=1 n=c6 v=86
81132 On ch=1 n=d#5 v=59
81142 On ch=1 n=a5 v=55
81222 On ch=1 n=b5 v=0
81280 On ch=1 n=d#5 v=0
81282 On ch=1 n=a5 v=0
81318 On ch=1 n=f#4 v=0
81362 On ch=1 n=f#3 v=0
81448 On ch=1 n=d6 v=95
81462 On ch=1 n=f4 v=85
81464 On ch=1 n=f3 v=68
81466 On ch=1 n=d#5 v=52
81492 On ch=1 n=c6 v=0
81542 Par ch=1 c=64 v=0
81652 On ch=1 n=f4 v=0
81655 On ch=1 n=d#5 v=0
81674 On ch=1 n=f3 v=0
81676 Par ch=1 c=64 v=127
81692 On ch=1 n=d6 v=0
81794 On ch=1 n=d#6 v=84
81796 On ch=1 n=f#4 v=64
81808 On ch=1 n=f#3 v=55
81814 On ch=1 n=a5 v=47
81816 On ch=1 n=d#5 v=53
81910 Par ch=1 c=64 v=0
82048 Par ch=1 c=64 v=127
82070 On ch=1 n=d#6 v=0
82150 On ch=1 n=f#3 v=0
82158 On ch=1 n=f#4 v=0
82214 On ch=1 n=d#6 v=80
82222 On ch=1 n=g4 v=58
82230 On ch=1 n=g3 v=49
82308 Par ch=1 c=64 v=0
82322 On ch=1 n=d#5 v=0
82344 On ch=1 n=a5 v=0
82576 On ch=1 n=d#5 v=53
82584 On ch=1 n=a#5 v=36
82662 Par ch=1 c=64 v=127
82782 On ch=1 n=d#5 v=0
82792 On ch=1 n=a#5 v=0
83012 On ch=1 n=d#5 v=52
83018 On ch=1 n=a#5 v=38
83226 On ch=1 n=a#5 v=0
83250 On ch=1 n=d#6 v=0
83276 On ch=1 n=d#5 v=0
83468 On ch=1 n=d6 v=64
83482 On ch=1 n=a#5 v=35
83485 On ch=1 n=d5 v=29
83492 Par ch=1 c=64 v=0
83744 On ch=1 n=d5 v=0
83747 On ch=1 n=a#5 v=0
83768 Par ch=1 c=64 v=127
83894 On ch=1 n=a#5 v=38
83922 On ch=1 n=d5 v=31
84020 On ch=1 n=d5 v=0
84052 On ch=1 n=a#5 v=0
84202 On ch=1 n=g4 v=0
84250 On ch=1 n=a#5 v=33
84253 On ch=1 n=d5 v=34
84276 On ch=1 n=g3 v=0
84416 On ch=1 n=d6 v=0
84466 On ch=1 n=d5 v=0
84708 On ch=1 n=d3 v=48
84710 On ch=1 n=c5 v=17
84720 On ch=1 n=f#5 v=26
84738 On ch=1 n=d4 v=33
84756 On ch=1 n=a#5 v=0
84860 On ch=1 n=c5 v=0
84870 On ch=1 n=f#5 v=0
85028 On ch=1 n=a#5 v=49
85078 On ch=1 n=a5 v=58
85082 On ch=1 n=c5 v=53
85098 On ch=1 n=f#5 v=34
85106 Par ch=1 c=64 v=0
85126 On ch=1 n=a#5 v=0
85262 On ch=1 n=c5 v=0
85302 On ch=1 n=f#5 v=0
85306 Par ch=1 c=64 v=127
85424 On ch=1 n=g#5 v=75
85442 On ch=1 n=c5 v=38
85454 On ch=1 n=f#5 v=37
85480 On ch=1 n=a5 v=0
85636 On ch=1 n=f#5 v=0
85638 On ch=1 n=c5 v=0
85820 On ch=1 n=a5 v=70
85838 On ch=1 n=c5 v=44
85838 On ch=1 n=f#5 v=36
85858 Par ch=1 c=64 v=0
85914 On ch=1 n=g#5 v=0
86074 Par ch=1 c=64 v=127
86100 On ch=1 n=f#5 v=0
86100 On ch=1 n=c5 v=0
86218 On ch=1 n=a#5 v=66
86248 On ch=1 n=c5 v=28
86258 On ch=1 n=f#5 v=36
86280 On ch=1 n=a5 v=0
86396 Par ch=1 c=64 v=0
86504 On ch=1 n=c5 v=0
86534 Par ch=1 c=64 v=127
86544 On ch=1 n=f#5 v=0
86660 On ch=1 n=c6 v=68
86680 On ch=1 n=c5 v=35
86684 On ch=1 n=f#5 v=23
86704 Par ch=1 c=64 v=0
86740 On ch=1 n=a#5 v=0
86878 On ch=1 n=d4 v=0
86880 On ch=1 n=d3 v=0
86888 Par ch=1 c=64 v=127
86966 On ch=1 n=c6 v=0
87044 On ch=1 n=d#4 v=67
87058 On ch=1 n=d#3 v=56
87090 On ch=1 n=c6 v=68
87180 Par ch=1 c=64 v=0
87228 On ch=1 n=f#5 v=0
87236 On ch=1 n=c5 v=0
87472 On ch=1 n=c5 v=41
87472 On ch=1 n=g5 v=50
87518 Par ch=1 c=64 v=127
87678 On ch=1 n=c5 v=0
87682 On ch=1 n=g5 v=0
87924 On ch=1 n=g5 v=36
87936 On ch=1 n=c5 v=32
88050 On ch=1 n=g5 v=0
88108 On ch=1 n=c5 v=0
88332 On ch=1 n=a#5 v=45
88335 On ch=1 n=a#4 v=28
88366 On ch=1 n=g5 v=32
88440 Par ch=1 c=64 v=0
88456 On ch=1 n=c6 v=0
88532 On ch=1 n=g5 v=0
88576 On ch=1 n=a#4 v=0
88608 Par ch=1 c=64 v=127
88754 On ch=1 n=a#4 v=24
88770 On ch=1 n=g5 v=36
88890 On ch=1 n=g5 v=0
88904 On ch=1 n=a#4 v=0
89176 On ch=1 n=d#4 v=0
89200 On ch=1 n=a#4 v=16
89218 On ch=1 n=g5 v=23
89302 On ch=1 n=d#3 v=0
89310 On ch=1 n=a#4 v=0
89334 On ch=1 n=g5 v=0
89356 On ch=1 n=a#5 v=0
89608 Par ch=1 c=64 v=0
89640 On ch=1 n=a5 v=53
89670 On ch=1 n=d#5 v=38
89673 On ch=1 n=c3 v=26
89678 On ch=1 n=c4 v=29
89682 On ch=1 n=g5 v=33
89900 On ch=1 n=g5 v=0
89900 On ch=1 n=d#5 v=0
89946 Par ch=1 c=64 v=127
90108 On ch=1 n=d#5 v=26
90128 On ch=1 n=g5 v=10
90208 On ch=1 n=d#5 v=0
90256 On ch=1 n=g5 v=0
90500 On ch=1 n=c4 v=0
90512 On ch=1 n=c3 v=0
90544 On ch=1 n=g5 v=39
90554 On ch=1 n=d#5 v=32
90674 On ch=1 n=a5 v=0
90724 On ch=1 n=d#5 v=0
90758 On ch=1 n=g5 v=0
90958 Par ch=1 c=64 v=0
90972 On ch=1 n=a5 v=57
90986 On ch=1 n=f#5 v=26
90992 On ch=1 n=d4 v=25
90992 On ch=1 n=d3 v=24
90995 On ch=1 n=d5 v=34
91294 On ch=1 n=d5 v=0
91326 On ch=1 n=f#5 v=0
91388 Par ch=1 c=64 v=127
91500 On ch=1 n=f#5 v=25
91532 On ch=1 n=d5 v=28
91648 On ch=1 n=d5 v=0
91782 On ch=1 n=f#5 v=0
91912 On ch=1 n=d4 v=0
92048 On ch=1 n=a5 v=0
92048 On ch=1 n=f#5 v=25
92076 On ch=1 n=d5 v=23
92100 On ch=1 n=d3 v=0
92192 On ch=1 n=d5 v=0
92366 On ch=1 n=a5 v=30
92440 On ch=1 n=f#5 v=0
92654 On ch=1 n=a5 v=0
92732 On ch=1 n=a4 v=16
92735 On ch=1 n=c#4 v=15
92742 On ch=1 n=c#3 v=19
92816 Par ch=1 c=64 v=0
92894 On ch=1 n=e5 v=30
93080 On ch=1 n=a5 v=32
93146 On ch=1 n=a4 v=0
93186 Par ch=1 c=64 v=127
93196 On ch=1 n=c#3 v=0
93210 On ch=1 n=e5 v=0
93216 On ch=1 n=c#4 v=0
93820 On ch=1 n=e5 v=9
93852 On ch=1 n=e4 v=6
93880 On ch=1 n=a4 v=2
93934 On ch=1 n=e5 v=0
93946 On ch=1 n=a4 v=0
93946 On ch=1 n=e4 v=0
94278 On ch=1 n=a4 v=16
94278 On ch=1 n=e5 v=11
94326 On ch=1 n=e4 v=4
94366 On ch=1 n=a4 v=0
94396 On ch=1 n=e5 v=0
94404 On ch=1 n=e4 v=0
94682 On ch=1 n=e5 v=15
94692 On ch=1 n=e4 v=14
94706 On ch=1 n=a4 v=15
94786 On ch=1 n=a5 v=0
94792 On ch=1 n=a4 v=0
94794 On ch=1 n=e4 v=0
94820 On ch=1 n=e5 v=0
95076 On ch=1 n=e4 v=22
95076 On ch=1 n=e5 v=20
95094 On ch=1 n=a4 v=19
95170 On ch=1 n=e4 v=0
95173 On ch=1 n=a4 v=0
95188 On ch=1 n=e5 v=0
95454 On ch=1 n=a5 v=46
95500 On ch=1 n=e5 v=18
95526 On ch=1 n=a4 v=25
95534 On ch=1 n=e4 v=4
95564 On ch=1 n=e5 v=0
95600 On ch=1 n=a4 v=0
95648 On ch=1 n=e4 v=0
95984 Par ch=1 c=64 v=0
96016 On ch=1 n=c3 v=29
96022 On ch=1 n=c4 v=35
96186 On ch=1 n=c3 v=0
96204 On ch=1 n=a#5 v=52
96232 On ch=1 n=a5 v=0
96244 Par ch=1 c=64 v=127
96248 On ch=1 n=c4 v=0
96394 On ch=1 n=a5 v=46
96428 On ch=1 n=a#5 v=0
96538 On ch=1 n=a5 v=0
96548 On ch=1 n=g#5 v=60
96726 On ch=1 n=g#5 v=0
96726 On ch=1 n=d#5 v=29
96734 On ch=1 n=f5 v=23
96738 On ch=1 n=a4 v=10
96744 On ch=1 n=a5 v=57
96752 On ch=1 n=f4 v=27
96892 On ch=1 n=a5 v=0
96914 On ch=1 n=g6 v=80
96920 On ch=1 n=f4 v=0
96976 On ch=1 n=a4 v=0
96986 On ch=1 n=d#5 v=0
96988 On ch=1 n=f5 v=0
97048 On ch=1 n=e6 v=67
97066 On ch=1 n=g6 v=0
97162 On ch=1 n=e6 v=0
97168 On ch=1 n=f6 v=78
97205 On ch=1 n=f6 v=0
97244 On ch=1 n=d#5 v=31
97244 On ch=1 n=f5 v=24
97258 On ch=1 n=f4 v=35
97260 Par ch=1 c=64 v=0
97262 On ch=1 n=a4 v=19
97290 On ch=1 n=f6 v=78
97387 On ch=1 n=f6 v=0
97422 On ch=1 n=f4 v=0
97428 Par ch=1 c=64 v=127
97428 On ch=1 n=g7 v=86
97450 On ch=1 n=a4 v=0
97476 On ch=1 n=d#5 v=0
97506 On ch=1 n=f5 v=0
97572 On ch=1 n=f7 v=81
97596 On ch=1 n=g7 v=0
97696 On ch=1 n=e7 v=84
97736 On ch=1 n=f7 v=0
97770 On ch=1 n=f5 v=21
97782 On ch=1 n=d#5 v=31
97788 On ch=1 n=a4 v=16
97800 On ch=1 n=f4 v=11
97812 On ch=1 n=e7 v=0
97818 On ch=1 n=d#7 v=71
97876 On ch=1 n=f4 v=0
97881 On ch=1 n=a4 v=0
97920 On ch=1 n=d#7 v=0
97932 On ch=1 n=f5 v=0
97934 On ch=1 n=d#5 v=0
97938 On ch=1 n=c7 v=69
98046 On ch=1 n=c7 v=0
98058 On ch=1 n=a6 v=41
98130 On ch=1 n=a6 v=0
98132 On ch=1 n=a#6 v=69
98240 On ch=1 n=a#6 v=0
98242 On ch=1 n=d7 v=59
98292 On ch=1 n=d#5 v=25
98292 On ch=1 n=f5 v=20
98304 Par ch=1 c=64 v=0
98318 On ch=1 n=f4 v=31
98318 On ch=1 n=a4 v=21
98342 On ch=1 n=c7 v=77
98360 On ch=1 n=d7 v=0
98424 On ch=1 n=a#6 v=62
98454 On ch=1 n=f4 v=0
98464 On ch=1 n=c7 v=0
98488 Par ch=1 c=64 v=127
98506 On ch=1 n=d#5 v=0
98522 On ch=1 n=a4 v=0
98525 On ch=1 n=f5 v=0
98536 On ch=1 n=a#6 v=0
98540 On ch=1 n=g6 v=63
98600 On ch=1 n=g6 v=0
98616 On ch=1 n=f6 v=44
98680 On ch=1 n=f6 v=0
98716 On ch=1 n=d6 v=63
98776 On ch=1 n=d6 v=0
98804 On ch=1 n=d#6 v=62
98886 On ch=1 n=d#6 v=0
98924 On ch=1 n=e6 v=46
98930 On ch=1 n=f5 v=11
98934 On ch=1 n=d#5 v=24
98938 On ch=1 n=f4 v=30
98948 On ch=1 n=a4 v=16
98964 Par ch=1 c=64 v=0
98992 On ch=1 n=e6 v=0
99032 On ch=1 n=f6 v=64
99092 On ch=1 n=f6 v=0
99146 On ch=1 n=f#6 v=55
99226 Par ch=1 c=64 v=127
99250 On ch=1 n=f5 v=0
99266 On ch=1 n=d#5 v=0
99268 On ch=1 n=f#6 v=0
99292 On ch=1 n=a6 v=36
99348 On ch=1 n=a4 v=0
99378 On ch=1 n=f4 v=0
99422 On ch=1 n=a6 v=0
99428 On ch=1 n=g6 v=45
99560 On ch=1 n=g6 v=0
99580 On ch=1 n=f6 v=36
99690 On ch=1 n=f6 v=0
99740 On ch=1 n=d#6 v=36
99886 On ch=1 n=d#6 v=0
99962 Par ch=1 c=64 v=0
99982 On ch=1 n=a#3 v=19
99987 On ch=1 n=a#2 v=16
99987 On ch=1 n=c#6 v=42
100186 On ch=1 n=a#2 v=0
100208 Par ch=1 c=64 v=127
100213 On ch=1 n=a#3 v=0
100308 On ch=1 n=c#6 v=0
100676 On ch=1 n=a#4 v=18
100700 On ch=1 n=d6 v=59
100728 On ch=1 n=f4 v=26
100732 On ch=1 n=d4 v=20
100938 On ch=1 n=f4 v=0
100978 On ch=1 n=a#4 v=0
101012 On ch=1 n=d4 v=0
101224 On ch=1 n=d5 v=43
101226 On ch=1 n=a#4 v=25
101238 On ch=1 n=f4 v=56
101338 On ch=1 n=d5 v=0
101390 On ch=1 n=f4 v=0
101398 On ch=1 n=a#4 v=0
101690 On ch=1 n=d#3 v=49
101700 Par ch=1 c=64 v=0
101864 On ch=1 n=d#3 v=0
101898 Par ch=1 c=64 v=127
102190 On ch=1 n=c6 v=64
102202 On ch=1 n=c5 v=29
102214 On ch=1 n=d#4 v=23
102252 On ch=1 n=g4 v=8
102314 On ch=1 n=d6 v=0
102330 On ch=1 n=g4 v=0
102344 On ch=1 n=d#4 v=0
102382 On ch=1 n=c5 v=0
102698 On ch=1 n=g5 v=70
102716 On ch=1 n=d#5 v=38
102738 On ch=1 n=g4 v=24
102742 On ch=1 n=c5 v=21
102784 On ch=1 n=d#5 v=0
102814 On ch=1 n=g4 v=0
102818 On ch=1 n=c5 v=0
102832 On ch=1 n=c6 v=0
103236 Par ch=1 c=64 v=0
103270 On ch=1 n=a#5 v=53
103282 On ch=1 n=d3 v=33
103348 On ch=1 n=g5 v=0
103456 On ch=1 n=d3 v=0
103498 Par ch=1 c=64 v=127
103850 On ch=1 n=d#5 v=34
103892 On ch=1 n=a#4 v=12
103910 On ch=1 n=g4 v=23
104042 On ch=1 n=a#4 v=0
104088 On ch=1 n=d#5 v=0
104354 On ch=1 n=a#4 v=24
104364 On ch=1 n=d5 v=37
104510 On ch=1 n=g4 v=0
104784 On ch=1 n=f#5 v=31
104786 Par ch=1 c=64 v=0
104822 On ch=1 n=d4 v=29
104900 On ch=1 n=a#5 v=0
104906 On ch=1 n=a#4 v=0
104932 On ch=1 n=d5 v=0
105018 Par ch=1 c=64 v=127
105300 On ch=1 n=c#5 v=29
105322 On ch=1 n=a#4 v=16
105500 On ch=1 n=a#4 v=0
105538 On ch=1 n=c#5 v=0
105848 Par ch=1 c=64 v=0
105882 On ch=1 n=c5 v=26
105908 On ch=1 n=a4 v=20
106094 Par ch=1 c=64 v=127
106120 On ch=1 n=a4 v=0
106136 On ch=1 n=c5 v=0
106184 On ch=1 n=d4 v=0
106620 On ch=1 n=g5 v=20
106642 On ch=1 n=g3 v=18
106648 On ch=1 n=f#5 v=0
106662 Par ch=1 c=64 v=0
106894 On ch=1 n=g3 v=0
106908 Par ch=1 c=64 v=127
106998 On ch=1 n=g5 v=0
107350 On ch=1 n=a#4 v=12
107352 On ch=1 n=a#6 v=34
107362 On ch=1 n=f5 v=16
107364 On ch=1 n=g4 v=23
107378 On ch=1 n=a#5 v=15
107598 On ch=1 n=a#5 v=0
107632 On ch=1 n=d6 v=36
107642 On ch=1 n=f5 v=0
107724 On ch=1 n=d6 v=0
107724 On ch=1 n=g4 v=0
107744 On ch=1 n=a#4 v=0
107868 On ch=1 n=a#6 v=0
107871 On ch=1 n=d#5 v=26
107871 On ch=1 n=f6 v=31
107902 On ch=1 n=a#4 v=2
107948 On ch=1 n=d#5 v=0
107996 On ch=1 n=a#4 v=0
108076 On ch=1 n=d#6 v=34
108096 On ch=1 n=f6 v=0
108156 On ch=1 n=d#6 v=0
108316 On ch=1 n=f#3 v=35
108322 Par ch=1 c=64 v=0
108472 On ch=1 n=f#3 v=0
108506 Par ch=1 c=64 v=127
108748 On ch=1 n=a6 v=49
108751 On ch=1 n=a5 v=32
108772 On ch=1 n=d#5 v=35
108784 On ch=1 n=a4 v=12
108798 On ch=1 n=f#4 v=31
108886 On ch=1 n=f#4 v=0
108908 On ch=1 n=a4 v=0
108960 On ch=1 n=c#6 v=40
109028 On ch=1 n=a5 v=0
109036 On ch=1 n=d#5 v=0
109056 On ch=1 n=a6 v=0
109086 On ch=1 n=f#4 v=2
109104 On ch=1 n=c#6 v=0
109152 On ch=1 n=d#6 v=43
109162 On ch=1 n=d5 v=42
109218 On ch=1 n=d5 v=0
109250 On ch=1 n=f#4 v=0
109350 On ch=1 n=d6 v=42
109378 On ch=1 n=d#6 v=0
109520 Par ch=1 c=64 v=0
109560 On ch=1 n=g3 v=42
109700 On ch=1 n=g3 v=0
109710 Par ch=1 c=64 v=127
109816 On ch=1 n=d6 v=0
109964 On ch=1 n=a#6 v=55
109966 On ch=1 n=a#5 v=42
109996 On ch=1 n=f5 v=33
109998 On ch=1 n=a#4 v=18
110024 On ch=1 n=g4 v=33
110108 On ch=1 n=g4 v=0
110113 On ch=1 n=a#4 v=0
110162 On ch=1 n=a#5 v=0
110162 On ch=1 n=d6 v=57
110234 On ch=1 n=f5 v=0
110310 On ch=1 n=a#6 v=0
110332 On ch=1 n=d#5 v=57
110340 On ch=1 n=f6 v=53
110350 On ch=1 n=d6 v=0
110374 On ch=1 n=d#5 v=0
110524 On ch=1 n=d#6 v=41
110568 On ch=1 n=f6 v=0
110656 Par ch=1 c=64 v=0
110718 On ch=1 n=f3 v=49
110820 On ch=1 n=f3 v=0
110826 Par ch=1 c=64 v=127
111122 On ch=1 n=g#6 v=53
111132 On ch=1 n=g#5 v=30
111148 On ch=1 n=d#5 v=32
111162 On ch=1 n=d#6 v=0
111166 On ch=1 n=f4 v=37
111172 On ch=1 n=g#4 v=10
113279 On ch=1 n=f#1 v=129
113297 On ch=1 n=f4 v=0
113305 On ch=1 n=c#6 v=40
113327 On ch=1 n=b4 v=0
113363 On ch=1 n=d#5 v=0
113363 On ch=1 n=g#5 v=0
113409 On ch=1 n=c#6 v=0
113477 On ch=1 n=d#6 v=48
113503 On ch=1 n=d5 v=37
113535 On ch=1 n=g#6 v=0
113561 On ch=1 n=d5 v=0
113577 On ch=1 n=g#4 v=0
113663 On ch=1 n=d6 v=53
113679 On ch=1 n=d#6 v=0
113763 Par ch=1 c=64 v=0
113821 On ch=1 n=d#3 v=57
113931 On ch=1 n=d#3 v=0
113947 Par ch=1 c=64 v=127
114201 On ch=1 n=d6 v=0
114211 On ch=1 n=g6 v=75
114217 On ch=1 n=g5 v=53
114223 On ch=1 n=d5 v=48
114235 On ch=1 n=d#4 v=20
114245 On ch=1 n=g4 v=33
114379 On ch=1 n=g5 v=0
114391 On ch=1 n=b5 v=50
114397 On ch=1 n=d#4 v=0
114403 On ch=1 n=d5 v=0
114406 On ch=1 n=g6 v=0
114413 On ch=1 n=g4 v=0
114537 On ch=1 n=b5 v=0
114541 On ch=1 n=c5 v=54
114547 On ch=1 n=d6 v=65
114593 On ch=1 n=c5 v=0
114697 On ch=1 n=c6 v=51
114757 On ch=1 n=d6 v=0
114885 Par ch=1 c=64 v=0
114927 On ch=1 n=c3 v=59
115057 On ch=1 n=c3 v=0
115069 Par ch=1 c=64 v=127
115131 On ch=1 n=c6 v=0
115281 On ch=1 n=c6 v=64
115289 On ch=1 n=a#4 v=40
115291 On ch=1 n=c5 v=51
115299 On ch=1 n=d#4 v=43
115433 On ch=1 n=c5 v=0
115441 On ch=1 n=a#4 v=0
115441 On ch=1 n=g#5 v=54
115597 On ch=1 n=a4 v=46
115597 On ch=1 n=a#5 v=44
115600 On ch=1 n=c6 v=0
115649 On ch=1 n=a4 v=0
115653 On ch=1 n=d#4 v=0
115669 On ch=1 n=g#5 v=0
115711 On ch=1 n=a#5 v=0
115749 On ch=1 n=a5 v=53
115899 Par ch=1 c=64 v=0
115929 On ch=1 n=d3 v=65
116039 On ch=1 n=a5 v=0
116041 On ch=1 n=d3 v=0
116053 Par ch=1 c=64 v=127
116285 On ch=1 n=d#6 v=68
116297 On ch=1 n=c5 v=53
116300 On ch=1 n=d#5 v=50
116300 On ch=1 n=g4 v=49
116333 On ch=1 n=d4 v=26
116353 On ch=1 n=d#5 v=0
116479 On ch=1 n=b5 v=66
116495 On ch=1 n=c5 v=0
116525 On ch=1 n=g4 v=0
116563 On ch=1 n=d4 v=0
116619 On ch=1 n=d#6 v=0
116637 On ch=1 n=f#4 v=52
116657 On ch=1 n=d6 v=66
116687 On ch=1 n=f#4 v=0
116693 On ch=1 n=b5 v=0
116799 On ch=1 n=c6 v=60
116825 On ch=1 n=d6 v=0
117005 Par ch=1 c=64 v=0
117007 On ch=1 n=d3 v=65
117175 Par ch=1 c=64 v=127
117191 On ch=1 n=d3 v=0
117205 On ch=1 n=c6 v=0
117379 On ch=1 n=g5 v=67
117387 On ch=1 n=d#5 v=54
117411 On ch=1 n=a4 v=43
117593 On ch=1 n=d#5 v=0
117597 On ch=1 n=d5 v=63
117713 On ch=1 n=a4 v=0
117717 On ch=1 n=d5 v=0
117747 On ch=1 n=c#5 v=66
117753 On ch=1 n=f#5 v=56
117761 On ch=1 n=a5 v=52
117763 On ch=1 n=g5 v=0
117797 On ch=1 n=d4 v=54
117901 On ch=1 n=c5 v=79
117917 On ch=1 n=a5 v=0
117919 On ch=1 n=c#5 v=0
117955 On ch=1 n=d4 v=0
117973 On ch=1 n=c5 v=0
118081 Par ch=1 c=64 v=0
118087 On ch=1 n=a#5 v=61
118089 On ch=1 n=a#4 v=67
118103 On ch=1 n=g3 v=54
118107 On ch=1 n=g5 v=60
118131 On ch=1 n=f#5 v=0
118237 On ch=1 n=g3 v=0
118237 On ch=1 n=a#4 v=0
118281 Par ch=1 c=64 v=127
118299 On ch=1 n=g5 v=0
118325 On ch=1 n=a#5 v=0
118519 On ch=1 n=a#5 v=77
118519 On ch=1 n=a#6 v=83
118533 On ch=1 n=f5 v=58
118551 On ch=1 n=g4 v=48
118723 On ch=1 n=d6 v=69
118803 On ch=1 n=f5 v=0
118809 On ch=1 n=g4 v=0
118843 On ch=1 n=a#5 v=0
118855 On ch=1 n=d6 v=0
118889 On ch=1 n=d#5 v=56
118891 On ch=1 n=f6 v=65
118905 On ch=1 n=a#4 v=38
118939 On ch=1 n=d#5 v=0
118971 On ch=1 n=a#4 v=0
118983 On ch=1 n=a#6 v=0
119029 On ch=1 n=d#6 v=64
119065 On ch=1 n=f6 v=0
119183 On ch=1 n=d#6 v=0
119199 On ch=1 n=f#4 v=74
119202 Par ch=1 c=64 v=0
119205 On ch=1 n=f#3 v=66
119357 On ch=1 n=f#3 v=0
119359 On ch=1 n=f#4 v=0
119371 Par ch=1 c=64 v=127
119521 On ch=1 n=a6 v=88
119529 On ch=1 n=a5 v=64
119547 On ch=1 n=d#5 v=65
119567 On ch=1 n=f#4 v=55
119663 On ch=1 n=f#4 v=0
119681 On ch=1 n=c#6 v=57
119715 On ch=1 n=d#5 v=0
119799 On ch=1 n=a5 v=0
119833 On ch=1 n=d#6 v=68
119843 On ch=1 n=d5 v=56
119849 On ch=1 n=c#6 v=0
119849 On ch=1 n=a4 v=50
119891 On ch=1 n=d5 v=0
119899 On ch=1 n=a4 v=0
119899 On ch=1 n=a6 v=0
119979 On ch=1 n=d6 v=69
120017 On ch=1 n=d#6 v=0
120125 Par ch=1 c=64 v=0
120149 On ch=1 n=d6 v=0
120177 On ch=1 n=g3 v=74
120177 On ch=1 n=g4 v=80
120295 On ch=1 n=g3 v=0
120319 On ch=1 n=g4 v=0
120339 Par ch=1 c=64 v=127
120475 On ch=1 n=a#6 v=82
120483 On ch=1 n=a#5 v=65
120507 On ch=1 n=f5 v=61
120515 On ch=1 n=g4 v=51
120581 On ch=1 n=f5 v=0
120649 On ch=1 n=d6 v=66
120657 On ch=1 n=g4 v=0
120661 On ch=1 n=a#5 v=0
120781 On ch=1 n=d6 v=0
120785 On ch=1 n=a#4 v=52
120785 On ch=1 n=d#5 v=66
120809 On ch=1 n=f6 v=64
120827 On ch=1 n=d#5 v=0
120853 On ch=1 n=a#4 v=0
120931 On ch=1 n=d#6 v=65
120965 On ch=1 n=f6 v=0
121055 On ch=1 n=d#6 v=0
121077 Par ch=1 c=64 v=0
121099 On ch=1 n=a#6 v=0
121113 On ch=1 n=f3 v=79
121119 On ch=1 n=f4 v=88
121211 On ch=1 n=f3 v=0
121217 On ch=1 n=f4 v=0
121261 Par ch=1 c=64 v=127
121409 On ch=1 n=g#6 v=83
121412 On ch=1 n=g#5 v=64
121427 On ch=1 n=d#5 v=66
121427 On ch=1 n=f4 v=60
121551 On ch=1 n=c#6 v=58
121565 On ch=1 n=f4 v=0
121603 On ch=1 n=d#5 v=0
121633 On ch=1 n=g#5 v=0
121683 On ch=1 n=d#6 v=68
121687 On ch=1 n=d5 v=65
121691 On ch=1 n=g#4 v=54
121699 On ch=1 n=c#6 v=0
121705 On ch=1 n=b4 v=43
121731 On ch=1 n=d5 v=0
121753 On ch=1 n=b4 v=0
121771 On ch=1 n=g#4 v=0
121807 On ch=1 n=g#6 v=0
121810 On ch=1 n=d6 v=70
121871 On ch=1 n=d#6 v=0
121937 Par ch=1 c=64 v=0
121949 On ch=1 n=d6 v=0
121975 On ch=1 n=d#4 v=81
121981 On ch=1 n=d#3 v=81
122081 On ch=1 n=d#4 v=0
122099 On ch=1 n=d#3 v=0
122121 Par ch=1 c=64 v=127
122277 On ch=1 n=g6 v=94
122283 On ch=1 n=g5 v=76
122293 On ch=1 n=d#4 v=69
122297 On ch=1 n=d5 v=76
122433 On ch=1 n=d#4 v=0
122441 On ch=1 n=d5 v=0
122443 On ch=1 n=b5 v=65
122473 On ch=1 n=g5 v=0
122577 On ch=1 n=b5 v=0
122580 On ch=1 n=c5 v=52
122584 On ch=1 n=d6 v=73
122587 On ch=1 n=g4 v=59
122603 On ch=1 n=g6 v=0
122633 On ch=1 n=g4 v=0
122639 On ch=1 n=c5 v=0
122695 On ch=1 n=c6 v=67
122733 On ch=1 n=d6 v=0
122829 On ch=1 n=c6 v=0
122859 Par ch=1 c=64 v=0
122875 On ch=1 n=c3 v=91
122879 On ch=1 n=c4 v=80
122979 On ch=1 n=c3 v=0
122993 On ch=1 n=c4 v=0
123013 Par ch=1 c=64 v=127
123139 On ch=1 n=c6 v=91
123141 On ch=1 n=c5 v=92
123149 On ch=1 n=c4 v=70
123151 On ch=1 n=a#4 v=71
123273 On ch=1 n=c5 v=0
123291 On ch=1 n=a#4 v=0
123301 On ch=1 n=c4 v=0
123303 On ch=1 n=g#5 v=56
123395 On ch=1 n=d#4 v=69
123401 On ch=1 n=a4 v=41
123407 On ch=1 n=a#5 v=62
123409 On ch=1 n=c6 v=0
123447 On ch=1 n=d#4 v=0
123463 On ch=1 n=a4 v=0
123469 On ch=1 n=g#5 v=0
123537 On ch=1 n=a5 v=63
123593 On ch=1 n=a#5 v=0
123615 On ch=1 n=a5 v=0
123627 Par ch=1 c=64 v=0
123674 On ch=1 n=d3 v=89
123681 On ch=1 n=d4 v=88
123775 On ch=1 n=d3 v=0
123785 On ch=1 n=d4 v=0
123827 Par ch=1 c=64 v=127
123945 On ch=1 n=g4 v=76
123947 On ch=1 n=d#6 v=90
123947 On ch=1 n=a3 v=70
123951 On ch=1 n=d#5 v=87
124047 On ch=1 n=g4 v=0
124061 On ch=1 n=d#5 v=0
124095 On ch=1 n=b5 v=65
124098 On ch=1 n=a3 v=0
124161 On ch=1 n=d#6 v=0
124179 On ch=1 n=d6 v=70
124179 On ch=1 n=f#4 v=73
124189 On ch=1 n=c4 v=53
124227 On ch=1 n=b5 v=0
124253 On ch=1 n=f#4 v=0
124259 On ch=1 n=c4 v=0
124313 On ch=1 n=c6 v=63
124343 On ch=1 n=d6 v=0
124359 On ch=1 n=c6 v=0
124411 Par ch=1 c=64 v=0
124449 On ch=1 n=d3 v=74
124571 On ch=1 n=d3 v=0
124611 Par ch=1 c=64 v=127
124699 On ch=1 n=f#5 v=78
124703 On ch=1 n=f#4 v=90
124705 On ch=1 n=d#4 v=73
124707 On ch=1 n=a3 v=63
124819 On ch=1 n=f#4 v=0
124833 On ch=1 n=c#5 v=67
124847 On ch=1 n=d#4 v=0
124909 On ch=1 n=d#5 v=62
124925 On ch=1 n=d4 v=51
124975 On ch=1 n=a3 v=0
124975 On ch=1 n=c4 v=42
125017 On ch=1 n=d4 v=0
125029 On ch=1 n=d5 v=73
125047 On ch=1 n=c4 v=0
125055 On ch=1 n=f#5 v=0
125077 On ch=1 n=c#5 v=0
125097 On ch=1 n=d#5 v=0
125139 On ch=1 n=g5 v=89
125145 On ch=1 n=a#4 v=62
125149 On ch=1 n=g3 v=80
125151 On ch=1 n=d4 v=84
125187 On ch=1 n=d4 v=0
125187 On ch=1 n=g3 v=0
125190 On ch=1 n=d5 v=0
125205 On ch=1 n=a#4 v=0
125249 On ch=1 n=g5 v=0
125303 Par ch=1 c=64 v=0
125405 On ch=1 n=g3 v=83
125411 On ch=1 n=g4 v=79
125411 On ch=1 n=c5 v=84
125417 On ch=1 n=g2 v=62
125483 On ch=1 n=g4 v=0
125509 On ch=1 n=a#4 v=69
125585 On ch=1 n=c5 v=0
125589 On ch=1 n=g2 v=0
125593 Par ch=1 c=64 v=127
125617 On ch=1 n=a4 v=72
125629 On ch=1 n=g3 v=0
125667 On ch=1 n=a#4 v=0
125711 On ch=1 n=g4 v=80
125725 On ch=1 n=a4 v=0
125757 On ch=1 n=g4 v=0
125815 On ch=1 n=a#4 v=82
125815 On ch=1 n=g5 v=99
125837 On ch=1 n=d4 v=84
125843 On ch=1 n=g3 v=69
125875 On ch=1 n=g5 v=0
125893 On ch=1 n=g3 v=0
125907 On ch=1 n=d4 v=0
125929 On ch=1 n=a#4 v=0
125963 Par ch=1 c=64 v=0
126059 On ch=1 n=d#4 v=86
126062 On ch=1 n=g3 v=74
126065 On ch=1 n=g4 v=82
126067 On ch=1 n=c5 v=92
126157 On ch=1 n=g4 v=0
126169 On ch=1 n=a#4 v=67
126201 On ch=1 n=d4 v=78
126209 On ch=1 n=d#4 v=0
126243 On ch=1 n=c5 v=0
126271 On ch=1 n=a4 v=69
126285 Par ch=1 c=64 v=127
126339 On ch=1 n=g3 v=0
126341 On ch=1 n=a#4 v=0
126365 On ch=1 n=g4 v=85
126381 On ch=1 n=a4 v=0
126403 On ch=1 n=d4 v=0
126421 On ch=1 n=g4 v=0
126465 On ch=1 n=f5 v=81
126468 On ch=1 n=d#4 v=79
126479 On ch=1 n=g3 v=56
126479 On ch=1 n=c4 v=54
126501 Par ch=1 c=64 v=0
126571 On ch=1 n=c5 v=77
126577 On ch=1 n=f5 v=0
126693 On ch=1 n=d#5 v=73
126705 On ch=1 n=a4 v=84
126723 On ch=1 n=c5 v=0
126789 On ch=1 n=f#4 v=89
126792 Par ch=1 c=64 v=127
126851 On ch=1 n=d#5 v=0
126899 On ch=1 n=f#4 v=0
126905 On ch=1 n=c5 v=58
126993 On ch=1 n=c5 v=0
127003 On ch=1 n=d#5 v=76
127041 On ch=1 n=d#5 v=0
127043 On ch=1 n=g3 v=0
127085 On ch=1 n=a4 v=0
127103 On ch=1 n=f#5 v=78
127213 On ch=1 n=c4 v=0
127216 On ch=1 n=f#5 v=0
127225 On ch=1 n=b5 v=34
127233 On ch=1 n=c6 v=56
127285 On ch=1 n=g4 v=75
127287 On ch=1 n=b5 v=0
127291 On ch=1 n=g3 v=68
127305 On ch=1 n=f6 v=85
127335 On ch=1 n=g3 v=0
127338 On ch=1 n=g4 v=0
127338 On ch=1 n=c6 v=0
127401 On ch=1 n=d#4 v=0
127409 On ch=1 n=d#6 v=72
127477 On ch=1 n=f6 v=0
127499 On ch=1 n=d6 v=80
127511 On ch=1 n=d#5 v=89
127517 On ch=1 n=d#4 v=69
127613 On ch=1 n=d#4 v=0
127615 On ch=1 n=c6 v=74
127619 On ch=1 n=d#6 v=0
127631 On ch=1 n=d#5 v=0
127651 On ch=1 n=d6 v=0
127701 On ch=1 n=d5 v=91
127709 On ch=1 n=d4 v=91
127712 On ch=1 n=a#5 v=80
127712 On ch=1 n=g6 v=104
127737 On ch=1 n=d5 v=0
127761 On ch=1 n=d4 v=0
127767 On ch=1 n=c6 v=0
127795 On ch=1 n=a#5 v=0
127821 On ch=1 n=g6 v=0
127853 Par ch=1 c=64 v=0
127939 On ch=1 n=g3 v=89
127939 On ch=1 n=g5 v=82
127939 On ch=1 n=g4 v=88
127951 On ch=1 n=c6 v=68
127969 On ch=1 n=d6 v=55
128001 On ch=1 n=g5 v=0
128019 On ch=1 n=d6 v=0
128033 On ch=1 n=a#5 v=73
128085 On ch=1 n=g3 v=0
128103 On ch=1 n=c6 v=0
128121 On ch=1 n=g4 v=0
128127 On ch=1 n=a5 v=67
128145 Par ch=1 c=64 v=127
128197 On ch=1 n=a#5 v=0
128225 On ch=1 n=g5 v=77
128255 On ch=1 n=a5 v=0
128275 On ch=1 n=g5 v=0
128327 On ch=1 n=a#5 v=90
128327 On ch=1 n=g6 v=107
128337 On ch=1 n=g4 v=73
128341 On ch=1 n=d5 v=71
128383 On ch=1 n=g6 v=0
128389 On ch=1 n=g4 v=0
128399 On ch=1 n=d5 v=0
128407 On ch=1 n=a#5 v=0
128467 Par ch=1 c=64 v=0
128557 On ch=1 n=d#5 v=86
128562 On ch=1 n=c6 v=89
128562 On ch=1 n=g5 v=76
128565 On ch=1 n=g4 v=78
128619 On ch=1 n=g5 v=0
128643 On ch=1 n=a#5 v=72
128695 On ch=1 n=d#5 v=0
128709 On ch=1 n=c6 v=0
128709 On ch=1 n=d5 v=73
128729 On ch=1 n=a5 v=69
128759 Par ch=1 c=64 v=127
128775 On ch=1 n=g4 v=0
128795 On ch=1 n=a#5 v=0
128821 On ch=1 n=g5 v=83
128833 On ch=1 n=a5 v=0
128841 On ch=1 n=d5 v=0
128875 On ch=1 n=g5 v=0
128913 Par ch=1 c=64 v=0
128915 On ch=1 n=f6 v=92
128925 On ch=1 n=d#5 v=84
128927 On ch=1 n=g4 v=74
128931 On ch=1 n=c5 v=59
129027 On ch=1 n=c6 v=69
129030 On ch=1 n=f6 v=0
129141 On ch=1 n=a5 v=87
129145 On ch=1 n=d#6 v=73
129157 On ch=1 n=c6 v=0
129227 On ch=1 n=f#5 v=75
129235 Par ch=1 c=64 v=127
129293 On ch=1 n=d#6 v=0
129335 On ch=1 n=c6 v=73
129351 On ch=1 n=f#5 v=0
129433 On ch=1 n=d#6 v=76
129435 On ch=1 n=c6 v=0
129469 On ch=1 n=d#6 v=0
129472 On ch=1 n=g4 v=0
129515 On ch=1 n=a5 v=0
129539 On ch=1 n=f#6 v=90
129631 On ch=1 n=c7 v=89
129633 On ch=1 n=c5 v=0
129657 On ch=1 n=f#6 v=0
129671 On ch=1 n=d#5 v=0
129741 On ch=1 n=f7 v=93
129741 On ch=1 n=g5 v=78
129744 On ch=1 n=g4 v=71
129787 On ch=1 n=g5 v=0
129787 On ch=1 n=c7 v=0
129790 On ch=1 n=g4 v=0
129839 On ch=1 n=d#7 v=76
129925 On ch=1 n=d7 v=85
129951 On ch=1 n=f7 v=0
129951 On ch=1 n=d#6 v=88
129954 On ch=1 n=d#5 v=89
130041 On ch=1 n=c7 v=92
130065 On ch=1 n=d#6 v=0
130065 On ch=1 n=d#7 v=0
130075 On ch=1 n=d#5 v=0
130101 On ch=1 n=d7 v=0
130127 Par ch=1 c=64 v=0
130155 On ch=1 n=g7 v=106
130158 On ch=1 n=a#6 v=94
130165 On ch=1 n=d6 v=101
130167 On ch=1 n=g5 v=91
130203 On ch=1 n=c7 v=0
130297 Par ch=1 c=64 v=127
130335 On ch=1 n=a#6 v=0
130359 On ch=1 n=g7 v=0
130361 On ch=1 n=d6 v=0
130373 On ch=1 n=g5 v=0
130603 On ch=1 n=g7 v=102
130605 Par ch=1 c=64 v=0
130609 On ch=1 n=c8 v=102
130749 On ch=1 n=a#7 v=80
130825 On ch=1 n=g7 v=0
130857 On ch=1 n=c8 v=0
130869 On ch=1 n=d7 v=87
130879 Par ch=1 c=64 v=127
130907 On ch=1 n=a#7 v=0
130971 On ch=1 n=d7 v=0
130983 On ch=1 n=d#6 v=87
130987 Par ch=1 c=64 v=0
130991 On ch=1 n=a#7 v=79
130993 On ch=1 n=f#5 v=55
130997 On ch=1 n=f#7 v=89
131011 On ch=1 n=d#5 v=57
131013 On ch=1 n=a5 v=45
131145 On ch=1 n=d#6 v=0
131161 On ch=1 n=a7 v=76
131187 Par ch=1 c=64 v=127
131189 On ch=1 n=a5 v=0
131229 On ch=1 n=a#7 v=0
131241 On ch=1 n=f#7 v=0
131249 On ch=1 n=d7 v=83
131259 On ch=1 n=d6 v=73
131281 On ch=1 n=a7 v=0
131287 On ch=1 n=f#5 v=0
131289 On ch=1 n=d7 v=0
131305 On ch=1 n=d6 v=0
131325 On ch=1 n=d#5 v=0
131383 On ch=1 n=a#6 v=72
131391 On ch=1 n=f#6 v=72
131453 On ch=1 n=d5 v=78
131465 On ch=1 n=a6 v=72
131523 On ch=1 n=f#6 v=0
131537 On ch=1 n=a#6 v=0
131557 On ch=1 n=d6 v=84
131567 On ch=1 n=d5 v=0
131579 On ch=1 n=a6 v=0
131633 Par ch=1 c=64 v=0
131651 On ch=1 n=d6 v=0
131685 On ch=1 n=c7 v=92
131693 On ch=1 n=g4 v=92
131696 On ch=1 n=g6 v=84
131735 On ch=1 n=g4 v=0
131801 Par ch=1 c=64 v=127
131833 On ch=1 n=a#6 v=73
131845 On ch=1 n=g6 v=0
131887 On ch=1 n=c7 v=0
131905 On ch=1 n=a#6 v=0
131969 On ch=1 n=d7 v=87
131981 On ch=1 n=d5 v=78
132047 On ch=1 n=d7 v=0
132085 On ch=1 n=c8 v=91
132088 On ch=1 n=g7 v=80
132177 On ch=1 n=d6 v=79
132197 On ch=1 n=d5 v=0
132197 On ch=1 n=a#7 v=81
132253 On ch=1 n=g7 v=0
132281 On ch=1 n=c8 v=0
132284 On ch=1 n=d6 v=0
132305 On ch=1 n=d7 v=85
132339 On ch=1 n=a#7 v=0
132401 Par ch=1 c=64 v=0
132413 On ch=1 n=d7 v=0
132421 On ch=1 n=a#7 v=73
132425 On ch=1 n=f#7 v=88
132425 On ch=1 n=d#6 v=90
132437 On ch=1 n=f#5 v=48
132439 On ch=1 n=a5 v=48
132453 On ch=1 n=d#5 v=58
132571 On ch=1 n=a7 v=75
132613 On ch=1 n=d#6 v=0
132615 Par ch=1 c=64 v=127
132621 On ch=1 n=a5 v=0
132645 On ch=1 n=a#7 v=0
132649 On ch=1 n=f#7 v=0
132659 On ch=1 n=f#5 v=0
132659 On ch=1 n=d7 v=85
132671 On ch=1 n=a7 v=0
132685 On ch=1 n=d6 v=76
132701 On ch=1 n=d7 v=0
132701 On ch=1 n=d#5 v=0
132741 On ch=1 n=d6 v=0
132795 On ch=1 n=a#6 v=65
132813 On ch=1 n=f#6 v=48
132855 On ch=1 n=d5 v=78
132867 On ch=1 n=a6 v=80
132875 On ch=1 n=f#6 v=0
132935 On ch=1 n=d5 v=0
132941 On ch=1 n=a#6 v=0
132967 On ch=1 n=a6 v=0
132969 On ch=1 n=d6 v=80
133023 On ch=1 n=d6 v=0
133063 Par ch=1 c=64 v=0
133073 On ch=1 n=c7 v=89
133091 On ch=1 n=g6 v=87
133094 On ch=1 n=g4 v=92
133197 On ch=1 n=a#6 v=80
133217 On ch=1 n=g4 v=0
133221 On ch=1 n=g6 v=0
133231 Par ch=1 c=64 v=127
133251 On ch=1 n=c7 v=0
133267 On ch=1 n=a#6 v=0
133317 On ch=1 n=d7 v=88
133361 On ch=1 n=d7 v=0
133413 On ch=1 n=c8 v=87
133419 On ch=1 n=g7 v=74
133493 On ch=1 n=d4 v=90
133521 On ch=1 n=a#7 v=83
133563 On ch=1 n=g7 v=0
133595 On ch=1 n=c8 v=0
133598 On ch=1 n=d7 v=78
133619 On ch=1 n=d4 v=0
133637 On ch=1 n=a#7 v=0
133661 Par ch=1 c=64 v=0
133685 On ch=1 n=d7 v=0
133699 On ch=1 n=d#5 v=97
133705 On ch=1 n=a#7 v=75
133709 On ch=1 n=f#4 v=67
133713 On ch=1 n=a4 v=54
133713 On ch=1 n=f#7 v=83
133716 On ch=1 n=d#4 v=67
133815 Par ch=1 c=64 v=127
133835 On ch=1 n=a7 v=82
133841 On ch=1 n=d#5 v=0
133855 On ch=1 n=a4 v=0
133885 On ch=1 n=f#4 v=0
133907 On ch=1 n=f#7 v=0
133907 On ch=1 n=a#7 v=0
133921 On ch=1 n=d7 v=83
133943 On ch=1 n=a7 v=0
133947 On ch=1 n=d5 v=71
133961 On ch=1 n=d7 v=0
133965 On ch=1 n=d#4 v=0
133995 On ch=1 n=d5 v=0
134045 On ch=1 n=f#6 v=76
134047 On ch=1 n=a#6 v=60
134091 On ch=1 n=d4 v=87
134117 On ch=1 n=a6 v=77
134171 On ch=1 n=f#6 v=0
134175 On ch=1 n=a#6 v=0
134193 On ch=1 n=d4 v=0
134209 On ch=1 n=d6 v=83
134227 On ch=1 n=a6 v=0
134247 On ch=1 n=d6 v=0
134307 Par ch=1 c=64 v=0
134319 On ch=1 n=g3 v=97
134329 On ch=1 n=c6 v=79
134335 On ch=1 n=g5 v=85
134437 On ch=1 n=g5 v=0
134437 On ch=1 n=g3 v=0
134437 On ch=1 n=a#5 v=78
134459 Par ch=1 c=64 v=127
134485 On ch=1 n=c6 v=0
134501 On ch=1 n=a#5 v=0
134561 On ch=1 n=d6 v=80
134571 On ch=1 n=d4 v=80
134603 On ch=1 n=d6 v=0
134649 On ch=1 n=c7 v=86
134652 On ch=1 n=g6 v=79
134737 On ch=1 n=d5 v=80
134745 On ch=1 n=a#6 v=79
134783 On ch=1 n=g6 v=0
134797 On ch=1 n=d4 v=0
134805 On ch=1 n=c7 v=0
134813 On ch=1 n=d6 v=85
134815 On ch=1 n=d5 v=0
134851 On ch=1 n=a#6 v=0
134891 Par ch=1 c=64 v=0
134903 On ch=1 n=d6 v=0
134921 On ch=1 n=d#5 v=97
134924 On ch=1 n=f#6 v=90
134935 On ch=1 n=a4 v=57
134937 On ch=1 n=a#6 v=94
134940 On ch=1 n=f#4 v=60
134943 On ch=1 n=d#4 v=66
135035 On ch=1 n=a#6 v=0
135039 On ch=1 n=a6 v=80
135071 On ch=1 n=a4 v=0
135073 On ch=1 n=d#5 v=0
135073 Par ch=1 c=64 v=127
135093 On ch=1 n=f#6 v=0
135111 On ch=1 n=f#4 v=0
135114 On ch=1 n=d6 v=81
135131 On ch=1 n=a6 v=0
135153 On ch=1 n=d6 v=0
135169 On ch=1 n=d5 v=81
135173 On ch=1 n=d#4 v=0
135217 On ch=1 n=d5 v=0
135239 On ch=1 n=a#5 v=64
135249 On ch=1 n=f#5 v=62
135307 On ch=1 n=d4 v=89
135317 On ch=1 n=a5 v=61
135341 On ch=1 n=f#5 v=0
135385 On ch=1 n=a#5 v=0
135390 On ch=1 n=d5 v=83
135399 On ch=1 n=d4 v=0
135419 On ch=1 n=a5 v=0
135473 Par ch=1 c=64 v=0
135497 On ch=1 n=g3 v=101
135503 On ch=1 n=d5 v=0
135505 On ch=1 n=c6 v=83
135511 On ch=1 n=g5 v=86
135613 On ch=1 n=a#5 v=78
135625 On ch=1 n=g3 v=0
135635 On ch=1 n=g5 v=0
135643 Par ch=1 c=64 v=127
135659 On ch=1 n=c6 v=0
135665 On ch=1 n=a#5 v=0
135705 On ch=1 n=a#4 v=76
135733 On ch=1 n=d6 v=89
135733 On ch=1 n=d4 v=72
135769 On ch=1 n=d6 v=0
135823 On ch=1 n=c7 v=92
135829 On ch=1 n=g6 v=84
135867 On ch=1 n=a#4 v=0
135931 On ch=1 n=a#6 v=86
135955 On ch=1 n=d4 v=0
135971 On ch=1 n=g6 v=0
135999 On ch=1 n=c7 v=0
136019 On ch=1 n=d6 v=77
136057 On ch=1 n=a#6 v=0
136063 On ch=1 n=d6 v=0
136127 On ch=1 n=c#4 v=88
136135 On ch=1 n=c#3 v=88
136141 On ch=1 n=a6 v=94
136144 On ch=1 n=d6 v=78
136149 Par ch=1 c=64 v=0
136261 On ch=1 n=g6 v=83
136269 On ch=1 n=a6 v=0
136295 On ch=1 n=c#3 v=0
136303 Par ch=1 c=64 v=127
136305 On ch=1 n=c#4 v=0
136337 On ch=1 n=g6 v=0
136337 On ch=1 n=d6 v=0
136351 On ch=1 n=a#5 v=77
136375 On ch=1 n=d4 v=90
136381 On ch=1 n=d3 v=80
136407 On ch=1 n=a#5 v=0
136437 On ch=1 n=d4 v=0
136465 On ch=1 n=a#5 v=69
136475 On ch=1 n=d#6 v=65
136485 On ch=1 n=d3 v=0
136571 On ch=1 n=d6 v=80
136601 On ch=1 n=a#5 v=0
136619 On ch=1 n=d#6 v=0
136633 On ch=1 n=d6 v=0
136643 On ch=1 n=g5 v=75
136695 On ch=1 n=g5 v=0
136719 Par ch=1 c=64 v=0
136743 On ch=1 n=g3 v=96
136745 On ch=1 n=g2 v=103
136755 On ch=1 n=c6 v=81
136759 On ch=1 n=g5 v=72
136827 On ch=1 n=g2 v=0
136851 On ch=1 n=a#5 v=66
136863 On ch=1 n=g3 v=0
136875 On ch=1 n=g5 v=0
136903 Par ch=1 c=64 v=127
136907 On ch=1 n=c6 v=0
136935 On ch=1 n=d5 v=73
136943 On ch=1 n=a#5 v=0
136959 On ch=1 n=d4 v=95
136973 On ch=1 n=d3 v=75
136983 On ch=1 n=d5 v=0
137037 On ch=1 n=a5 v=76
137045 On ch=1 n=d5 v=83
137079 On ch=1 n=d4 v=0
137107 On ch=1 n=d3 v=0
137155 On ch=1 n=g5 v=77
137177 On ch=1 n=a5 v=0
137209 On ch=1 n=g5 v=0
137233 On ch=1 n=d5 v=0
137233 On ch=1 n=a#4 v=74
137285 On ch=1 n=a#4 v=0
137329 On ch=1 n=c#3 v=89
137339 On ch=1 n=a#4 v=70
137347 On ch=1 n=d#5 v=81
137349 Par ch=1 c=64 v=0
137425 On ch=1 n=c#5 v=10
137481 On ch=1 n=a#4 v=0
137491 On ch=1 n=d5 v=60
137511 On ch=1 n=d#5 v=0
137525 On ch=1 n=g4 v=86
137533 Par ch=1 c=64 v=127
137535 On ch=1 n=d5 v=0
137535 On ch=1 n=c#5 v=0
137543 On ch=1 n=c#3 v=0
137547 On ch=1 n=d3 v=93
137589 On ch=1 n=g4 v=0
137657 On ch=1 n=g4 v=72
137659 On ch=1 n=c5 v=74
137669 On ch=1 n=d3 v=0
137739 On ch=1 n=a#4 v=72
137765 On ch=1 n=g4 v=0
137783 On ch=1 n=c5 v=0
137813 On ch=1 n=d4 v=86
137855 Par ch=1 c=64 v=0
137887 On ch=1 n=d4 v=0
137895 On ch=1 n=a#4 v=0
137919 On ch=1 n=g3 v=74
137925 On ch=1 n=g2 v=76
137927 On ch=1 n=c5 v=88
137943 On ch=1 n=g4 v=74
138031 On ch=1 n=a#4 v=64
138061 On ch=1 n=g3 v=0
138069 On ch=1 n=g4 v=0
138087 Par ch=1 c=64 v=127
138095 On ch=1 n=c5 v=0
138103 On ch=1 n=g2 v=0
138105 On ch=1 n=d4 v=75
138183 On ch=1 n=a#4 v=0
138213 On ch=1 n=d4 v=0
138239 On ch=1 n=d5 v=75
138247 On ch=1 n=g4 v=44
138335 On ch=1 n=c3 v=62
138347 On ch=1 n=c5 v=68
138363 On ch=1 n=d5 v=0
138389 On ch=1 n=g4 v=0
138427 On ch=1 n=d#4 v=51
138455 On ch=1 n=c5 v=0
138487 On ch=1 n=c3 v=0
138517 Par ch=1 c=64 v=0
138539 On ch=1 n=d#4 v=0
138545 On ch=1 n=c5 v=47
138555 On ch=1 n=g4 v=60
138555 On ch=1 n=g3 v=72
138571 On ch=1 n=g2 v=68
138651 On ch=1 n=a#4 v=49
138681 On ch=1 n=g3 v=0
138683 On ch=1 n=g4 v=0
138691 On ch=1 n=c5 v=0
138697 On ch=1 n=g2 v=0
138731 Par ch=1 c=64 v=127
138737 On ch=1 n=d4 v=66
138811 On ch=1 n=d4 v=0
138814 On ch=1 n=a#4 v=0
138893 On ch=1 n=d5 v=57
138945 On ch=1 n=g4 v=2
138961 On ch=1 n=c3 v=67
138999 On ch=1 n=d5 v=0
139001 On ch=1 n=c5 v=66
139019 On ch=1 n=g4 v=0
139085 On ch=1 n=d#4 v=55
139099 On ch=1 n=c5 v=0
139189 On ch=1 n=d#4 v=0
139207 On ch=1 n=c3 v=0
139215 On ch=1 n=g3 v=67
139223 On ch=1 n=g2 v=72
139225 On ch=1 n=g4 v=38
139227 On ch=1 n=c5 v=40
139239 Par ch=1 c=64 v=0
139321 On ch=1 n=g4 v=0
139331 On ch=1 n=a#4 v=50
139341 On ch=1 n=c5 v=0
139364 On ch=1 n=g3 v=0
139378 On ch=1 n=g2 v=0
139404 Par ch=1 c=64 v=127
139410 On ch=1 n=d4 v=55
139488 On ch=1 n=a#4 v=0
139502 On ch=1 n=d4 v=0
139540 On ch=1 n=d5 v=64
139552 On ch=1 n=g4 v=37
139646 On ch=1 n=c3 v=72
139648 On ch=1 n=d5 v=0
139654 On ch=1 n=c5 v=68
139678 On ch=1 n=g4 v=0
139722 On ch=1 n=d#4 v=64
139762 On ch=1 n=c5 v=0
139846 On ch=1 n=c3 v=0
139854 On ch=1 n=d#4 v=0
139862 On ch=1 n=g3 v=72
139864 On ch=1 n=g4 v=57
139868 On ch=1 n=g2 v=70
139874 On ch=1 n=c5 v=45
139958 Par ch=1 c=64 v=0
139976 On ch=1 n=a#4 v=57
140004 On ch=1 n=c5 v=0
140010 On ch=1 n=g4 v=0
140024 On ch=1 n=g3 v=0
140040 On ch=1 n=g2 v=0
140056 On ch=1 n=d4 v=77
140096 Par ch=1 c=64 v=127
140134 On ch=1 n=a#4 v=0
140180 On ch=1 n=d4 v=0
140194 On ch=1 n=d5 v=72
140197 On ch=1 n=g4 v=33
140276 On ch=1 n=c3 v=70
140300 On ch=1 n=c5 v=72
140328 On ch=1 n=d5 v=0
140336 On ch=1 n=g4 v=0
140374 On ch=1 n=d#4 v=78
140458 On ch=1 n=c5 v=0
140472 On ch=1 n=c3 v=0
140498 On ch=1 n=d#4 v=0
140508 On ch=1 n=g3 v=82
140508 On ch=1 n=g2 v=86
140524 On ch=1 n=g4 v=73
140588 Par ch=1 c=64 v=0
140602 On ch=1 n=d5 v=62
140624 On ch=1 n=g4 v=0
140698 On ch=1 n=a#4 v=66
140722 On ch=1 n=g2 v=0
140730 On ch=1 n=d5 v=0
140802 On ch=1 n=g3 v=0
140804 On ch=1 n=d5 v=72
140820 On ch=1 n=a#4 v=0
140834 Par ch=1 c=64 v=127
140926 On ch=1 n=d5 v=0
140928 On ch=1 n=g5 v=71
141024 On ch=1 n=g5 v=0
141028 On ch=1 n=a#5 v=60
141132 On ch=1 n=a#5 v=0
141144 On ch=1 n=d6 v=82
141232 On ch=1 n=d6 v=0
141250 On ch=1 n=g6 v=82
141328 On ch=1 n=g6 v=0
141338 On ch=1 n=a#6 v=77
141350 On ch=1 n=g5 v=69
141353 On ch=1 n=d5 v=64
141400 On ch=1 n=d5 v=0
141420 On ch=1 n=a#6 v=0
141426 On ch=1 n=g5 v=0
141452 On ch=1 n=d7 v=88
141538 On ch=1 n=d5 v=80
141541 On ch=1 n=g4 v=77
141546 On ch=1 n=g7 v=84
141600 On ch=1 n=d7 v=0
141614 On ch=1 n=d5 v=0
141646 On ch=1 n=d8 v=87
141660 On ch=1 n=g4 v=0
141662 On ch=1 n=g7 v=0
141708 On ch=1 n=d8 v=0
141734 On ch=1 n=a#7 v=79
141742 On ch=1 n=g5 v=83
141752 On ch=1 n=d5 v=65
141832 On ch=1 n=d5 v=0
141832 On ch=1 n=g5 v=0
141842 On ch=1 n=d8 v=99
141886 On ch=1 n=a#7 v=0
141920 On ch=1 n=g7 v=78
141990 On ch=1 n=d8 v=0
142016 On ch=1 n=d7 v=78
142030 On ch=1 n=g7 v=0
142058 On ch=1 n=d7 v=0
142128 On ch=1 n=a#6 v=61
142236 On ch=1 n=g6 v=75
142262 On ch=1 n=a#6 v=0
142294 On ch=1 n=g6 v=0
142338 On ch=1 n=d6 v=59
142380 On ch=1 n=d6 v=0
142444 On ch=1 n=a#5 v=55
142564 On ch=1 n=g5 v=48
142584 On ch=1 n=a#5 v=0
142616 On ch=1 n=g5 v=0
142630 On ch=1 n=d5 v=63
142674 On ch=1 n=d5 v=0
142738 On ch=1 n=a#4 v=59
142756 On ch=1 n=d3 v=71
142862 On ch=1 n=d4 v=78
142958 On ch=1 n=g3 v=75
142961 On ch=1 n=g2 v=77
142971 On ch=1 n=d4 v=0
142975 On ch=1 n=g4 v=74
142985 On ch=1 n=d3 v=0
143015 On ch=1 n=a#4 v=0
143061 On ch=1 n=d5 v=65
143083 On ch=1 n=g4 v=0
143153 On ch=1 n=a#4 v=71
143203 On ch=1 n=d5 v=0
143227 On ch=1 n=a#4 v=0
143265 On ch=1 n=d5 v=89
143371 On ch=1 n=g5 v=67
143405 On ch=1 n=d5 v=0
143471 On ch=1 n=d6 v=80
143507 On ch=1 n=g5 v=0
143537 On ch=1 n=d6 v=0
143553 On ch=1 n=a#5 v=72
143675 On ch=1 n=d6 v=74
143733 On ch=1 n=a#5 v=0
143747 On ch=1 n=g5 v=68
143783 On ch=1 n=d6 v=0
143807 On ch=1 n=g5 v=0
143839 On ch=1 n=d5 v=50
143893 On ch=1 n=d5 v=0
143923 On ch=1 n=d3 v=85
143931 On ch=1 n=a#4 v=68
143985 On ch=1 n=g3 v=0
143991 On ch=1 n=g2 v=0
144039 On ch=1 n=d4 v=77
144103 Par ch=1 c=64 v=0
144135 On ch=1 n=f#3 v=84
144141 On ch=1 n=f#2 v=83
144151 On ch=1 n=f#4 v=85
144221 On ch=1 n=d4 v=0
144229 On ch=1 n=a#4 v=0
144257 On ch=1 n=d5 v=68
144283 On ch=1 n=d3 v=0
144349 On ch=1 n=f#4 v=0
144365 Par ch=1 c=64 v=127
144365 On ch=1 n=a#4 v=72
144419 On ch=1 n=d5 v=0
144427 On ch=1 n=a#4 v=0
144489 On ch=1 n=d5 v=78
144593 On ch=1 n=f#5 v=67
144639 On ch=1 n=d5 v=0
144707 On ch=1 n=d6 v=71
144743 On ch=1 n=f#5 v=0
144807 On ch=1 n=a#5 v=62
144835 On ch=1 n=d6 v=0
144907 On ch=1 n=d6 v=63
144971 On ch=1 n=a#5 v=0
145027 On ch=1 n=f#5 v=37
145030 On ch=1 n=d6 v=0
145083 On ch=1 n=f#5 v=0
145097 On ch=1 n=d5 v=57
145145 On ch=1 n=d5 v=0
145155 On ch=1 n=f#2 v=0
145187 On ch=1 n=f#3 v=0
145217 On ch=1 n=a#4 v=51
145253 On ch=1 n=d3 v=69
145349 On ch=1 n=d4 v=58
145395 Par ch=1 c=64 v=0
145473 On ch=1 n=g4 v=66
145485 On ch=1 n=g3 v=71
145489 On ch=1 n=g2 v=62
145497 On ch=1 n=d4 v=0
145521 On ch=1 n=a#4 v=0
145559 On ch=1 n=d3 v=0
145579 On ch=1 n=d5 v=61
145607 On ch=1 n=g4 v=0
145687 On ch=1 n=a#4 v=62
145705 On ch=1 n=d5 v=0
145717 Par ch=1 c=64 v=127
145729 On ch=1 n=a#4 v=0
145779 On ch=1 n=g2 v=0
145782 On ch=1 n=d5 v=69
145873 On ch=1 n=g3 v=0
145905 On ch=1 n=d5 v=0
145909 On ch=1 n=g5 v=67
146023 On ch=1 n=a#5 v=68
146025 On ch=1 n=g5 v=0
146109 On ch=1 n=a#5 v=0
146151 On ch=1 n=d6 v=75
146265 On ch=1 n=g6 v=80
146281 On ch=1 n=d6 v=0
146381 On ch=1 n=a#6 v=78
146393 On ch=1 n=g6 v=0
146393 On ch=1 n=d4 v=70
146396 On ch=1 n=g4 v=67
146449 On ch=1 n=a#6 v=0
146469 On ch=1 n=d4 v=0
146513 On ch=1 n=d7 v=70
146565 On ch=1 n=g4 v=0
146615 On ch=1 n=d4 v=68
146615 On ch=1 n=g7 v=67
146621 On ch=1 n=g3 v=52
146713 On ch=1 n=d7 v=0
146723 On ch=1 n=d4 v=0
146729 On ch=1 n=d8 v=64
146735 On ch=1 n=g7 v=0
146815 On ch=1 n=d8 v=0
146837 On ch=1 n=a#7 v=54
146855 On ch=1 n=g4 v=64
146873 On ch=1 n=d4 v=64
146953 On ch=1 n=d8 v=59
146977 On ch=1 n=a#7 v=0
147051 On ch=1 n=g7 v=54
147053 On ch=1 n=d8 v=0
147101 On ch=1 n=g7 v=0
147131 On ch=1 n=d7 v=58
147181 On ch=1 n=d7 v=0
147215 On ch=1 n=g4 v=0
147255 On ch=1 n=a#6 v=61
147365 On ch=1 n=g6 v=64
147387 On ch=1 n=d4 v=0
147407 On ch=1 n=a#6 v=0
147439 On ch=1 n=g6 v=0
147445 On ch=1 n=g3 v=0
147463 On ch=1 n=d6 v=72
147503 On ch=1 n=d6 v=0
147577 On ch=1 n=a#5 v=53
147703 On ch=1 n=g5 v=48
147739 On ch=1 n=a#5 v=0
147753 On ch=1 n=g5 v=0
147791 On ch=1 n=d5 v=45
147845 On ch=1 n=d5 v=0
147901 On ch=1 n=a#4 v=53
147957 On ch=1 n=d3 v=66
148043 On ch=1 n=d4 v=74
148145 Par ch=1 c=64 v=0
148169 On ch=1 n=f#3 v=81
148175 On ch=1 n=f#2 v=72
148177 On ch=1 n=f#4 v=78
148225 On ch=1 n=d4 v=0
148231 On ch=1 n=d3 v=0
148235 On ch=1 n=a#4 v=0
148291 On ch=1 n=d5 v=63
148337 On ch=1 n=f#4 v=0
148375 Par ch=1 c=64 v=127
148403 On ch=1 n=a#4 v=61
148435 On ch=1 n=d5 v=0
148453 On ch=1 n=a#4 v=0
148515 On ch=1 n=d5 v=71
148647 On ch=1 n=f#5 v=53
148681 On ch=1 n=d5 v=0
148749 On ch=1 n=d6 v=63
148765 On ch=1 n=f#5 v=0
148825 On ch=1 n=d6 v=0
148869 On ch=1 n=a#5 v=58
148989 On ch=1 n=d6 v=60
149015 On ch=1 n=a#5 v=0
149107 On ch=1 n=f#5 v=47
149111 On ch=1 n=d6 v=0
149191 On ch=1 n=f#3 v=0
149197 On ch=1 n=f#5 v=0
149223 On ch=1 n=d5 v=26
149249 On ch=1 n=f#2 v=0
149291 On ch=1 n=d5 v=0
149341 On ch=1 n=a#4 v=41
149387 On ch=1 n=d3 v=64
149483 On ch=1 n=d4 v=65
149649 On ch=1 n=d4 v=0
149649 Par ch=1 c=64 v=0
149667 On ch=1 n=f3 v=77
149667 On ch=1 n=f2 v=64
149673 On ch=1 n=d3 v=0
149673 On ch=1 n=f4 v=82
149713 On ch=1 n=a#4 v=0
149839 On ch=1 n=d5 v=58
149849 On ch=1 n=f4 v=0
149941 Par ch=1 c=64 v=127
149971 On ch=1 n=a#4 v=52
149995 On ch=1 n=d5 v=0
150017 On ch=1 n=a#4 v=0
150097 On ch=1 n=d5 v=57
150185 On ch=1 n=d5 v=0
150247 On ch=1 n=f5 v=53
150341 On ch=1 n=f3 v=0
150385 On ch=1 n=f5 v=0
150391 On ch=1 n=d6 v=34
150505 On ch=1 n=d6 v=0
150517 On ch=1 n=a#5 v=44
150677 On ch=1 n=d6 v=55
150691 On ch=1 n=a#5 v=0
150825 On ch=1 n=d6 v=0
150851 On ch=1 n=f5 v=57
150967 On ch=1 n=f5 v=0
151005 On ch=1 n=d5 v=52
151055 On ch=1 n=d5 v=0
151157 On ch=1 n=a#4 v=48
151179 On ch=1 n=g3 v=58
151377 On ch=1 n=d4 v=53
151455 On ch=1 n=g3 v=0
151613 On ch=1 n=d4 v=0
151661 On ch=1 n=a3 v=55
151663 On ch=1 n=f4 v=65
151723 Par ch=1 c=64 v=0
151737 On ch=1 n=a#4 v=0
151923 On ch=1 n=c5 v=48
152031 Par ch=1 c=64 v=127
152087 On ch=1 n=c5 v=0
152107 On ch=1 n=a4 v=50
152111 On ch=1 n=f4 v=0
152269 On ch=1 n=a4 v=0
152291 On ch=1 n=c5 v=65
152373 On ch=1 n=f2 v=0
152479 On ch=1 n=f5 v=43
152481 On ch=1 n=c5 v=0
152493 On ch=1 n=a3 v=0
152613 On ch=1 n=f5 v=0
152637 On ch=1 n=a5 v=52
152723 On ch=1 n=a5 v=0
152791 On ch=1 n=c6 v=63
152859 On ch=1 n=c6 v=0
152939 On ch=1 n=f6 v=61
153051 On ch=1 n=f6 v=0
153073 On ch=1 n=a6 v=64
153079 On ch=1 n=f5 v=47
153089 On ch=1 n=c5 v=37
153139 On ch=1 n=a6 v=0
153185 On ch=1 n=c5 v=0
153237 On ch=1 n=c7 v=70
153335 On ch=1 n=f5 v=0
153353 On ch=1 n=c7 v=0
153391 On ch=1 n=c5 v=47
153401 On ch=1 n=f4 v=54
153404 On ch=1 n=f7 v=55
153471 On ch=1 n=c5 v=0
153491 On ch=1 n=f7 v=0
153581 On ch=1 n=a7 v=57
153629 On ch=1 n=a7 v=0
153877 On ch=1 n=f8 v=58
153897 On ch=1 n=f5 v=41
153915 On ch=1 n=c5 v=31
153939 On ch=1 n=f8 v=0
154721 On ch=1 n=f4 v=0
154973 On ch=1 n=c5 v=0
155005 On ch=1 n=f5 v=0
155367 On ch=1 n=c5 v=31
155369 On ch=1 n=f4 v=39
155579 On ch=1 n=c5 v=0
155805 On ch=1 n=c5 v=37
155807 On ch=1 n=f5 v=34
155835 On ch=1 n=f4 v=0
156827 On ch=1 n=c5 v=0
157059 On ch=1 n=f5 v=0
157321 On ch=1 n=f4 v=56
157322 On ch=1 n=c5 v=28
157528 On ch=1 n=c5 v=0
157831 On ch=1 n=f5 v=37
157841 On ch=1 n=c5 v=36
157863 On ch=1 n=f4 v=0
158257 On ch=1 n=c5 v=0
158417 On ch=1 n=f5 v=0
158783 On ch=1 n=c5 v=25
158791 On ch=1 n=f4 v=35
158905 On ch=1 n=f4 v=0
159011 On ch=1 n=c5 v=0
159255 On ch=1 n=f5 v=27
159263 On ch=1 n=c5 v=14
159427 On ch=1 n=c5 v=0
159557 On ch=1 n=f5 v=0
159861 On ch=1 n=c5 v=21
159877 On ch=1 n=f4 v=31
160135 On ch=1 n=c5 v=0
160347 On ch=1 n=f4 v=0
160525 On ch=1 n=f5 v=59
160557 On ch=1 n=c5 v=24
161245 On ch=1 n=a#2 v=30
161573 Par ch=1 c=64 v=0
161693 On ch=1 n=a#3 v=36
161763 On ch=1 n=a#2 v=0
161773 Par ch=1 c=64 v=127
161855 On ch=1 n=a#3 v=0
162049 On ch=1 n=g#4 v=39
162269 On ch=1 n=g#4 v=0
162393 On ch=1 n=g5 v=55
162409 On ch=1 n=c5 v=0
162421 On ch=1 n=d5 v=37
162427 On ch=1 n=f4 v=39
162551 On ch=1 n=f5 v=0
162905 On ch=1 n=c5 v=23
163201 On ch=1 n=f4 v=0
163247 On ch=1 n=g5 v=0
163279 On ch=1 n=c5 v=0
163527 On ch=1 n=g5 v=54
163533 On ch=1 n=a#4 v=18
163647 On ch=1 n=a#4 v=0
163889 On ch=1 n=d5 v=0
163957 On ch=1 n=d#3 v=33
163973 On ch=1 n=d#5 v=48
164079 Par ch=1 c=64 v=0
164137 On ch=1 n=g5 v=0
164385 Par ch=1 c=64 v=127
164421 On ch=1 n=a#3 v=24
164511 On ch=1 n=d#3 v=0
164739 On ch=1 n=d#5 v=0
164793 On ch=1 n=a#3 v=0
164819 On ch=1 n=d#4 v=31
165001 On ch=1 n=d#4 v=0
165135 On ch=1 n=g4 v=33
165369 On ch=1 n=g4 v=0
165387 On ch=1 n=d#6 v=59
165409 On ch=1 n=a#4 v=19
165667 On ch=1 n=a#4 v=0
165859 On ch=1 n=d#5 v=34
165977 On ch=1 n=d6 v=74
166001 On ch=1 n=d#6 v=0
166025 On ch=1 n=d#5 v=0
166257 On ch=1 n=c6 v=67
166260 Par ch=1 c=64 v=0
166265 On ch=1 n=c5 v=18
166299 On ch=1 n=g5 v=23
166315 On ch=1 n=d6 v=0
166607 On ch=1 n=d#5 v=33
166643 Par ch=1 c=64 v=127
166717 On ch=1 n=c5 v=0
166761 On ch=1 n=d#5 v=0
166919 On ch=1 n=f4 v=55
167093 On ch=1 n=f4 v=0
167167 On ch=1 n=g5 v=0
167227 Par ch=1 c=64 v=0
167237 On ch=1 n=d6 v=69
167241 On ch=1 n=a5 v=28
167245 On ch=1 n=d#5 v=39
167301 On ch=1 n=c6 v=0
167505 Par ch=1 c=64 v=127
167615 On ch=1 n=d#5 v=0
167621 On ch=1 n=g5 v=30
167811 On ch=1 n=d6 v=0
167899 On ch=1 n=g5 v=0
168087 On ch=1 n=d6 v=51
168095 On ch=1 n=f5 v=31
168151 On ch=1 n=f5 v=0
168205 On ch=1 n=a5 v=0
168469 On ch=1 n=a#5 v=36
168473 On ch=1 n=a#3 v=22
168549 Par ch=1 c=64 v=0
168597 On ch=1 n=d6 v=0
168871 Par ch=1 c=64 v=127
168893 On ch=1 n=f4 v=35
168957 On ch=1 n=a#3 v=0
169015 On ch=1 n=f4 v=0
169107 On ch=1 n=a#5 v=0
169229 On ch=1 n=a#4 v=24
169343 On ch=1 n=a#4 v=0
169525 On ch=1 n=a#6 v=69
169553 On ch=1 n=d5 v=29
169649 On ch=1 n=d5 v=0
169853 On ch=1 n=a#6 v=0
169889 On ch=1 n=f5 v=21
169973 On ch=1 n=f5 v=0
170173 On ch=1 n=a#5 v=29
170219 On ch=1 n=a#6 v=77
170305 On ch=1 n=a#5 v=0
170423 On ch=1 n=a#6 v=0
170505 On ch=1 n=c5 v=25
170547 On ch=1 n=a#6 v=58
170609 Par ch=1 c=64 v=0
170869 Par ch=1 c=64 v=127
170871 On ch=1 n=d#5 v=32
170913 On ch=1 n=c5 v=0
171073 On ch=1 n=d#5 v=0
171275 On ch=1 n=f4 v=46
171278 On ch=1 n=g#6 v=62
171349 On ch=1 n=a#6 v=0
171369 On ch=1 n=f4 v=0
171499 On ch=1 n=g#6 v=0
171579 On ch=1 n=g#6 v=60
171595 On ch=1 n=a#4 v=20
171807 Par ch=1 c=64 v=0
171899 On ch=1 n=d5 v=34
171915 On ch=1 n=g6 v=79
172021 Par ch=1 c=64 v=127
172045 On ch=1 n=g#6 v=0
172159 On ch=1 n=d5 v=0
172223 On ch=1 n=a#4 v=0
172243 On ch=1 n=g#5 v=30
172249 On ch=1 n=f#6 v=73
172281 On ch=1 n=g6 v=0
172395 On ch=1 n=g#5 v=0
172473 On ch=1 n=f#6 v=0
172525 On ch=1 n=a#4 v=27
172613 On ch=1 n=f#6 v=48
172775 Par ch=1 c=64 v=0
172915 On ch=1 n=d5 v=29
172965 On ch=1 n=a#4 v=0
172973 Par ch=1 c=64 v=127
173099 On ch=1 n=d5 v=0
173305 On ch=1 n=d#4 v=20
173341 On ch=1 n=g6 v=45
173405 On ch=1 n=f#6 v=0
173481 Par ch=1 c=64 v=0
173637 On ch=1 n=g#4 v=23
173741 On ch=1 n=d#4 v=0
173757 Par ch=1 c=64 v=127
173883 On ch=1 n=g#4 v=0
174001 On ch=1 n=c5 v=20
174079 On ch=1 n=g#6 v=62
174107 On ch=1 n=c5 v=0
174137 On ch=1 n=g6 v=0
174381 On ch=1 n=g5 v=25
174457 On ch=1 n=g5 v=0
174537 On ch=1 n=d#6 v=55
174765 On ch=1 n=g#4 v=31
174789 On ch=1 n=g6 v=74
174831 On ch=1 n=g#6 v=0
174877 On ch=1 n=d#6 v=0
174879 Par ch=1 c=64 v=0
175117 On ch=1 n=c5 v=41
175141 Par ch=1 c=64 v=127
175155 On ch=1 n=g#4 v=0
175315 On ch=1 n=c5 v=0
175567 On ch=1 n=d4 v=18
175567 On ch=1 n=f6 v=53
175655 On ch=1 n=g6 v=0
175817 Par ch=1 c=64 v=0
175875 On ch=1 n=g4 v=32
176039 On ch=1 n=d4 v=0
176047 Par ch=1 c=64 v=127
176197 On ch=1 n=g6 v=78
176205 On ch=1 n=b4 v=25
176223 On ch=1 n=g4 v=0
176283 On ch=1 n=f6 v=0
176301 On ch=1 n=b4 v=0
176501 On ch=1 n=f5 v=26
176571 On ch=1 n=f5 v=0
176617 On ch=1 n=d6 v=70
176877 On ch=1 n=f6 v=76
176907 On ch=1 n=g4 v=21
176923 Par ch=1 c=64 v=0
176927 On ch=1 n=d6 v=0
176999 On ch=1 n=g6 v=0
177199 Par ch=1 c=64 v=127
177311 On ch=1 n=d#6 v=65
177335 On ch=1 n=c5 v=23
177403 On ch=1 n=f6 v=0
177463 On ch=1 n=g4 v=0
177503 On ch=1 n=c5 v=0
177679 On ch=1 n=d6 v=71
177707 On ch=1 n=c4 v=18
177755 On ch=1 n=d#6 v=0
177983 On ch=1 n=c6 v=68
178013 Par ch=1 c=64 v=0
178023 On ch=1 n=f4 v=47
178031 On ch=1 n=d6 v=0
178209 On ch=1 n=d6 v=69
178213 On ch=1 n=c6 v=0
178259 Par ch=1 c=64 v=127
178359 On ch=1 n=c4 v=0
178365 On ch=1 n=c6 v=54
178371 On ch=1 n=d6 v=0
178481 On ch=1 n=c6 v=0
178507 On ch=1 n=b5 v=63
178571 On ch=1 n=a4 v=22
178725 On ch=1 n=c6 v=65
178763 On ch=1 n=b5 v=0
178935 Par ch=1 c=64 v=0
178977 On ch=1 n=d6 v=52
179025 On ch=1 n=c6 v=0
179065 On ch=1 n=d#5 v=25
179211 On ch=1 n=f4 v=0
179257 Par ch=1 c=64 v=127
179262 On ch=1 n=d#5 v=0
179267 On ch=1 n=d6 v=0
179281 On ch=1 n=a4 v=0
179317 On ch=1 n=d#6 v=39
179469 On ch=1 n=d#6 v=0
179735 On ch=1 n=f4 v=35
179738 On ch=1 n=f5 v=44
179773 On ch=1 n=c5 v=12
179965 Par ch=1 c=64 v=0
180203 On ch=1 n=g#4 v=28
180211 Par ch=1 c=64 v=127
180275 On ch=1 n=f4 v=0
180419 On ch=1 n=g#4 v=0
180579 On ch=1 n=a#3 v=24
180801 On ch=1 n=c5 v=0
180871 Par ch=1 c=64 v=0
180889 On ch=1 n=g5 v=48
180897 On ch=1 n=d5 v=29
180909 On ch=1 n=g#4 v=19
180975 On ch=1 n=f5 v=0
181095 On ch=1 n=a#3 v=0
181163 Par ch=1 c=64 v=127
181303 On ch=1 n=g#4 v=0
181371 On ch=1 n=c5 v=9
181527 On ch=1 n=g5 v=0
181783 On ch=1 n=c5 v=0
181869 On ch=1 n=g5 v=32
181885 On ch=1 n=a#4 v=12
181977 On ch=1 n=a#4 v=0
182071 On ch=1 n=d5 v=0
182387 On ch=1 n=d#5 v=42
182407 On ch=1 n=d#3 v=18
182453 Par ch=1 c=64 v=0
182579 On ch=1 n=g5 v=0
182853 Par ch=1 c=64 v=127
182891 On ch=1 n=a#3 v=17
182921 On ch=1 n=d#3 v=0
183273 On ch=1 n=a#3 v=0
183287 On ch=1 n=d#4 v=32
183551 On ch=1 n=d#4 v=0
183619 On ch=1 n=d#5 v=0
183631 On ch=1 n=g4 v=39
183921 On ch=1 n=g4 v=0
183951 On ch=1 n=d#6 v=61
183989 On ch=1 n=a#4 v=21
184299 On ch=1 n=a#4 v=0
184389 On ch=1 n=d#5 v=43
184523 On ch=1 n=d6 v=66
184537 On ch=1 n=d#6 v=0
184615 On ch=1 n=d#5 v=0
184815 On ch=1 n=c6 v=65
184839 On ch=1 n=c5 v=20
184859 On ch=1 n=g5 v=17
184897 Par ch=1 c=64 v=0
184945 On ch=1 n=d6 v=0
185153 On ch=1 n=d#5 v=27
185189 Par ch=1 c=64 v=127
185233 On ch=1 n=c5 v=0
185263 On ch=1 n=d#5 v=0
185441 On ch=1 n=f4 v=47
185733 On ch=1 n=g5 v=0
185771 On ch=1 n=d6 v=61
185773 On ch=1 n=d#5 v=41
185785 On ch=1 n=a5 v=22
185819 Par ch=1 c=64 v=0
185835 On ch=1 n=f4 v=0
185863 On ch=1 n=c6 v=0
186065 Par ch=1 c=64 v=127
186143 On ch=1 n=g5 v=34
186145 On ch=1 n=d#5 v=0
186367 On ch=1 n=d6 v=0
186467 On ch=1 n=g5 v=0
186583 On ch=1 n=d6 v=57
186591 On ch=1 n=f5 v=31
186647 On ch=1 n=f5 v=0
186837 On ch=1 n=a5 v=0
186951 On ch=1 n=a#5 v=43
186979 On ch=1 n=a#3 v=22
187001 Par ch=1 c=64 v=0
187109 On ch=1 n=d6 v=0
187317 On ch=1 n=f4 v=55
187397 On ch=1 n=a#3 v=0
187401 Par ch=1 c=64 v=127
187403 On ch=1 n=f4 v=0
187469 On ch=1 n=a#5 v=0
187609 On ch=1 n=a#4 v=40
187781 On ch=1 n=a#4 v=0
187935 On ch=1 n=a#6 v=74
187935 On ch=1 n=d5 v=36
188279 On ch=1 n=f5 v=52
188353 On ch=1 n=d5 v=0
188401 On ch=1 n=a#6 v=0
188483 On ch=1 n=f5 v=0
188691 On ch=1 n=a#5 v=28
188759 On ch=1 n=a#5 v=0
188777 On ch=1 n=a#6 v=74
189059 On ch=1 n=a#6 v=0
189247 On ch=1 n=a#6 v=63
189261 Par ch=1 c=64 v=0
189283 On ch=1 n=c3 v=29
189503 On ch=1 n=c3 v=0
189507 Par ch=1 c=64 v=127
189877 On ch=1 n=e5 v=30
190081 On ch=1 n=e5 v=0
190277 On ch=1 n=a#4 v=23
190467 On ch=1 n=a#4 v=0
190645 On ch=1 n=c6 v=53
190673 On ch=1 n=g4 v=25
190937 On ch=1 n=a#6 v=0
191011 On ch=1 n=g4 v=0
191069 On ch=1 n=e5 v=38
191335 On ch=1 n=e5 v=0
191537 On ch=1 n=d6 v=72
191563 On ch=1 n=a#4 v=20
191699 On ch=1 n=c6 v=0
191821 On ch=1 n=a#4 v=0
191879 On ch=1 n=d#6 v=62
191925 On ch=1 n=d6 v=0
191925 On ch=1 n=f4 v=44
191949 Par ch=1 c=64 v=0
192059 On ch=1 n=f6 v=73
192091 On ch=1 n=d#6 v=0
192135 Par ch=1 c=64 v=127
192161 On ch=1 n=d#6 v=61
192221 On ch=1 n=f6 v=0
192331 On ch=1 n=d#5 v=29
192345 On ch=1 n=d6 v=79
192371 On ch=1 n=d#6 v=0
192427 Par ch=1 c=64 v=0
192625 Par ch=1 c=64 v=127
192699 On ch=1 n=d#6 v=70
192701 On ch=1 n=d#5 v=0
192717 On ch=1 n=a4 v=23
192787 On ch=1 n=d6 v=0
192801 On ch=1 n=f4 v=0
192817 On ch=1 n=a4 v=0
193071 Par ch=1 c=64 v=0
193127 On ch=1 n=g6 v=66
193137 On ch=1 n=a#3 v=22
193187 On ch=1 n=d#6 v=0
193471 Par ch=1 c=64 v=127
193551 On ch=1 n=a#3 v=0
193575 On ch=1 n=g6 v=0
193789 On ch=1 n=d5 v=14
193795 On ch=1 n=g6 v=52
194053 On ch=1 n=d5 v=0
194321 On ch=1 n=g#4 v=16
194591 On ch=1 n=g#4 v=0
194719 On ch=1 n=f6 v=37
194791 On ch=1 n=g6 v=0
195003 On ch=1 n=f6 v=0
195011 On ch=1 n=d#6 v=38
195225 On ch=1 n=d#6 v=0
195331 On ch=1 n=d#3 v=17
195403 On ch=1 n=d#6 v=30
195437 Par ch=1 c=64 v=0
195665 On ch=1 n=d#3 v=0
195667 On ch=1 n=a#3 v=20
195683 Par ch=1 c=64 v=127
195779 On ch=1 n=a#3 v=0
195951 On ch=1 n=g4 v=14
196093 On ch=1 n=g4 v=0
196165 On ch=1 n=d#4 v=9
196259 On ch=1 n=d#4 v=0
196373 On ch=1 n=a#4 v=19
196463 On ch=1 n=a#4 v=0
196581 On ch=1 n=g4 v=19
196871 On ch=1 n=g4 v=0
196943 On ch=1 n=d#5 v=17
197193 On ch=1 n=d#5 v=0
197351 On ch=1 n=g5 v=24
197471 On ch=1 n=d#6 v=0
197593 On ch=1 n=g#5 v=32
197615 On ch=1 n=g5 v=0
197791 On ch=1 n=a#5 v=41
197829 On ch=1 n=g#5 v=0
197969 On ch=1 n=a#5 v=0
197979 On ch=1 n=d6 v=54
198121 On ch=1 n=d6 v=0
198141 On ch=1 n=c6 v=52
198305 On ch=1 n=d#3 v=21
198339 On ch=1 n=a#5 v=46
198373 On ch=1 n=c6 v=0
198387 Par ch=1 c=64 v=0
198563 On ch=1 n=d#3 v=0
198575 On ch=1 n=a#3 v=19
198587 Par ch=1 c=64 v=127
198657 On ch=1 n=a#3 v=0
198775 On ch=1 n=g4 v=41
198841 On ch=1 n=g4 v=0
198973 On ch=1 n=d#4 v=44
199051 On ch=1 n=d#4 v=0
199147 On ch=1 n=a#4 v=29
199259 On ch=1 n=a#4 v=0
199361 On ch=1 n=g4 v=32
199549 On ch=1 n=g4 v=0
199593 On ch=1 n=d#5 v=34
199761 On ch=1 n=d#5 v=0
199907 On ch=1 n=g5 v=39
199939 On ch=1 n=a#5 v=0
200145 On ch=1 n=g#5 v=54
200152 On ch=1 n=g5 v=0
200351 On ch=1 n=a#5 v=50
200393 On ch=1 n=g#5 v=0
200511 On ch=1 n=a#5 v=0
200519 On ch=1 n=d6 v=58
200655 On ch=1 n=d6 v=0
200655 On ch=1 n=c6 v=55
200759 On ch=1 n=d#3 v=28
200801 On ch=1 n=a#5 v=50
200809 On ch=1 n=c6 v=0
200815 Par ch=1 c=64 v=0
200989 On ch=1 n=d#3 v=0
201001 Par ch=1 c=64 v=127
201015 On ch=1 n=a#3 v=23
201093 On ch=1 n=a#3 v=0
201217 On ch=1 n=g#4 v=23
201317 On ch=1 n=g#4 v=0
201437 On ch=1 n=f4 v=47
201525 On ch=1 n=f4 v=0
201633 On ch=1 n=a#4 v=15
201793 On ch=1 n=a#4 v=0
201796 On ch=1 n=g#4 v=41
201977 On ch=1 n=a#5 v=0
202025 On ch=1 n=g#4 v=0
202049 On ch=1 n=d5 v=38
202277 On ch=1 n=d5 v=0
202353 On ch=1 n=f5 v=44
202571 On ch=1 n=g#5 v=60
202607 On ch=1 n=f5 v=0
202763 On ch=1 n=a#5 v=58
202839 On ch=1 n=g#5 v=0
202923 On ch=1 n=d6 v=72
202937 On ch=1 n=a#5 v=0
203063 On ch=1 n=c6 v=65
203075 On ch=1 n=d6 v=0
203173 On ch=1 n=d#3 v=22
203227 On ch=1 n=a#5 v=64
203243 Par ch=1 c=64 v=0
203263 On ch=1 n=c6 v=0
203407 On ch=1 n=a#3 v=35
203419 On ch=1 n=d#3 v=0
203443 Par ch=1 c=64 v=127
203499 On ch=1 n=a#3 v=0
203607 On ch=1 n=g4 v=52
203667 On ch=1 n=g4 v=0
203785 On ch=1 n=c#5 v=60
203815 On ch=1 n=a#5 v=0
203933 On ch=1 n=d#5 v=66
203955 On ch=1 n=c#5 v=0
204089 On ch=1 n=d#5 v=0
204091 On ch=1 n=g5 v=61
204239 On ch=1 n=c6 v=58
204243 On ch=1 n=g5 v=0
204369 On ch=1 n=a#5 v=56
204371 On ch=1 n=c6 v=0
204531 On ch=1 n=g#5 v=58
204539 On ch=1 n=a#5 v=0
204551 On ch=1 n=d#3 v=29
204579 Par ch=1 c=64 v=0
204819 On ch=1 n=b3 v=29
204845 On ch=1 n=d#3 v=0
204857 Par ch=1 c=64 v=127
205059 On ch=1 n=b3 v=0
205113 On ch=1 n=g#4 v=20
205267 On ch=1 n=g#4 v=0
205383 On ch=1 n=b4 v=33
205601 On ch=1 n=b4 v=0
205647 On ch=1 n=d#5 v=41
205719 On ch=1 n=g#5 v=0
205901 On ch=1 n=f5 v=31
205923 On ch=1 n=d#5 v=0
206131 Par ch=1 c=64 v=0
206137 On ch=1 n=d#3 v=20
206142 On ch=1 n=g5 v=40
206177 On ch=1 n=f5 v=0
206385 On ch=1 n=d#3 v=0
206385 On ch=1 n=a#3 v=28
206423 Par ch=1 c=64 v=127
206477 On ch=1 n=a#3 v=0
206635 On ch=1 n=g4 v=16
206727 On ch=1 n=g4 v=0
206833 On ch=1 n=d#4 v=26
206943 On ch=1 n=d#4 v=0
207015 On ch=1 n=a#4 v=19
207145 On ch=1 n=a#4 v=0
207285 On ch=1 n=g4 v=22
207461 On ch=1 n=g5 v=0
207549 On ch=1 n=g4 v=0
207607 On ch=1 n=d#5 v=14
208037 On ch=1 n=d#5 v=0
208077 On ch=1 n=g5 v=20
208279 On ch=1 n=g#5 v=43
208319 On ch=1 n=g5 v=0
208451 On ch=1 n=a#5 v=40
208479 On ch=1 n=g#5 v=0
208601 On ch=1 n=d6 v=50
208609 On ch=1 n=a#5 v=0
208699 On ch=1 n=d6 v=0
208727 On ch=1 n=c6 v=46
208861 On ch=1 n=d#3 v=22
208867 Par ch=1 c=64 v=0
208893 On ch=1 n=c6 v=0
208911 On ch=1 n=a#5 v=42
209081 Par ch=1 c=64 v=127
209109 On ch=1 n=d#3 v=0
209173 On ch=1 n=a#3 v=10
209205 On ch=1 n=a#5 v=0
209303 On ch=1 n=a#3 v=0
209481 On ch=1 n=g4 v=23
209541 On ch=1 n=a#6 v=55
209625 On ch=1 n=g4 v=0
209779 On ch=1 n=d#4 v=26
209889 On ch=1 n=d#4 v=0
209961 On ch=1 n=a#4 v=17
210089 On ch=1 n=a#4 v=0
210185 On ch=1 n=g4 v=28
210395 On ch=1 n=g4 v=0
210437 On ch=1 n=a#6 v=0
210447 On ch=1 n=d#5 v=26
210605 On ch=1 n=d#5 v=0
211055 On ch=1 n=g5 v=25
211161 On ch=1 n=g5 v=0
211207 On ch=1 n=g#5 v=39
211375 On ch=1 n=g#5 v=0
211375 On ch=1 n=a#5 v=28
211521 On ch=1 n=d6 v=41
211533 On ch=1 n=a#5 v=0
211651 On ch=1 n=d6 v=0
211654 On ch=1 n=c6 v=38
211771 Par ch=1 c=64 v=0
211785 On ch=1 n=d#3 v=24
211793 On ch=1 n=a#5 v=43
211803 On ch=1 n=c6 v=0
211969 Par ch=1 c=64 v=127
212005 On ch=1 n=d#3 v=0
212053 On ch=1 n=a#3 v=20
212061 On ch=1 n=a#5 v=0
212265 On ch=1 n=a#3 v=0
212317 On ch=1 n=g#4 v=21
212401 On ch=1 n=a#6 v=59
212547 On ch=1 n=g#4 v=0
212635 On ch=1 n=f4 v=49
212715 On ch=1 n=f4 v=0
212829 On ch=1 n=a#4 v=32
213039 On ch=1 n=g#4 v=32
213044 On ch=1 n=a#4 v=0
213303 On ch=1 n=g#4 v=0
213345 On ch=1 n=d5 v=36
213417 On ch=1 n=a#6 v=0
214001 On ch=1 n=d5 v=0
214003 On ch=1 n=f5 v=30
214159 On ch=1 n=g#5 v=37
214193 On ch=1 n=f5 v=0
214303 On ch=1 n=a#5 v=38
214339 On ch=1 n=g#5 v=0
214457 On ch=1 n=a#5 v=0
214457 On ch=1 n=d6 v=57
214541 On ch=1 n=d6 v=0
214605 On ch=1 n=c6 v=52
214743 On ch=1 n=a#5 v=59
214747 On ch=1 n=d#3 v=23
214755 On ch=1 n=c6 v=0
214767 Par ch=1 c=64 v=0
214969 On ch=1 n=d#3 v=0
214972 On ch=1 n=a#3 v=33
214981 Par ch=1 c=64 v=127
215151 On ch=1 n=a#3 v=0
215225 On ch=1 n=g4 v=47
215331 On ch=1 n=g4 v=0
215435 On ch=1 n=c#5 v=57
215493 On ch=1 n=a#5 v=0
215603 On ch=1 n=d#5 v=58
215655 On ch=1 n=c#5 v=0
215753 On ch=1 n=d#5 v=0
215755 On ch=1 n=g5 v=57
215901 On ch=1 n=c6 v=58
215917 On ch=1 n=g5 v=0
216011 On ch=1 n=a#5 v=54
216027 On ch=1 n=c6 v=0
216089 Par ch=1 c=64 v=0
216141 On ch=1 n=d#3 v=28
216161 On ch=1 n=g#5 v=58
216197 On ch=1 n=a#5 v=0
216333 Par ch=1 c=64 v=127
216395 On ch=1 n=d#3 v=0
216399 On ch=1 n=b3 v=29
216607 On ch=1 n=g#4 v=27
216611 On ch=1 n=b3 v=0
216813 On ch=1 n=g#4 v=0
216869 On ch=1 n=b4 v=40
217189 On ch=1 n=d#5 v=43
217333 On ch=1 n=g#5 v=0
217421 On ch=1 n=b4 v=0
217485 On ch=1 n=f5 v=38
217559 On ch=1 n=d#5 v=0
217779 On ch=1 n=d#3 v=17
217785 On ch=1 n=g5 v=39
217825 On ch=1 n=f5 v=0
217825 Par ch=1 c=64 v=0
218069 On ch=1 n=a#3 v=23
218069 Par ch=1 c=64 v=127
218077 On ch=1 n=d#3 v=0
218239 On ch=1 n=a#3 v=0
218317 On ch=1 n=g4 v=31
218545 On ch=1 n=d#4 v=46
218551 On ch=1 n=g4 v=0
218743 On ch=1 n=a#4 v=32
218747 On ch=1 n=d#4 v=0
218933 On ch=1 n=a#4 v=0
218953 On ch=1 n=g5 v=0
218967 On ch=1 n=g4 v=36
219153 On ch=1 n=g4 v=0
219205 On ch=1 n=d#5 v=43
219299 On ch=1 n=d#5 v=0
219417 On ch=1 n=g5 v=59
219739 On ch=1 n=a#5 v=53
219763 On ch=1 n=g5 v=0
220053 On ch=1 n=a#5 v=0
220065 On ch=1 n=g6 v=82
220365 On ch=1 n=f6 v=68
220443 On ch=1 n=g6 v=0
220625 On ch=1 n=d#6 v=70
220683 On ch=1 n=f6 v=0
220775 Par ch=1 c=64 v=0
220883 On ch=1 n=g3 v=27
220915 On ch=1 n=d6 v=65
220969 On ch=1 n=d#6 v=0
221201 On ch=1 n=d4 v=37
221219 Par ch=1 c=64 v=127
221224 On ch=1 n=g3 v=0
221311 On ch=1 n=d4 v=0
221437 On ch=1 n=a#4 v=20
221533 On ch=1 n=a#4 v=0
221701 On ch=1 n=g4 v=36
221815 On ch=1 n=g4 v=0
221909 On ch=1 n=d5 v=42
221993 On ch=1 n=d5 v=0
222109 On ch=1 n=a#4 v=30
222347 On ch=1 n=a#4 v=0
222357 On ch=1 n=g5 v=49
222415 On ch=1 n=d6 v=0
222511 On ch=1 n=g5 v=0
222585 On ch=1 n=a#5 v=55
222833 On ch=1 n=d6 v=76
222841 On ch=1 n=a#5 v=0
223039 On ch=1 n=d6 v=0
223069 On ch=1 n=a#6 v=68
223301 On ch=1 n=d6 v=64
223357 On ch=1 n=a#6 v=0
223577 On ch=1 n=d#6 v=58
223589 On ch=1 n=d6 v=0
223909 On ch=1 n=a#3 v=23
223915 On ch=1 n=e6 v=50
223931 On ch=1 n=d#6 v=0
223939 Par ch=1 c=64 v=0
224263 Par ch=1 c=64 v=127
224293 On ch=1 n=f4 v=43
224347 On ch=1 n=a#3 v=0
224389 On ch=1 n=f4 v=0
224621 On ch=1 n=d5 v=19
224641 On ch=1 n=f6 v=57
224741 On ch=1 n=e6 v=0
224807 On ch=1 n=d5 v=0
224903 On ch=1 n=a#4 v=17
225141 On ch=1 n=f5 v=24
225255 On ch=1 n=a#4 v=0
225293 On ch=1 n=f5 v=0
225395 On ch=1 n=d5 v=16
225495 On ch=1 n=f6 v=0
225609 On ch=1 n=d5 v=0
225645 On ch=1 n=a#5 v=10
225845 On ch=1 n=a#5 v=0
225911 On ch=1 n=d6 v=48
226193 On ch=1 n=d6 v=0
226225 On ch=1 n=f6 v=53
226481 On ch=1 n=f6 v=0
226523 On ch=1 n=d7 v=54
226797 On ch=1 n=c7 v=67
226865 On ch=1 n=d7 v=0
227047 On ch=1 n=a#6 v=59
227111 On ch=1 n=c7 v=0
227297 On ch=1 n=g#6 v=61
227333 On ch=1 n=d4 v=27
227377 On ch=1 n=a#6 v=0
227473 Par ch=1 c=64 v=0
227571 On ch=1 n=g#6 v=0
227571 On ch=1 n=a6 v=58
227615 On ch=1 n=a4 v=24
227665 On ch=1 n=d4 v=0
227689 Par ch=1 c=64 v=127
227701 On ch=1 n=a4 v=0
227871 On ch=1 n=a6 v=0
227889 On ch=1 n=f5 v=16
227889 On ch=1 n=f7 v=46
228077 On ch=1 n=f5 v=0
228193 On ch=1 n=e7 v=49
228245 On ch=1 n=d5 v=21
228289 On ch=1 n=f7 v=0
228337 On ch=1 n=d5 v=0
228461 On ch=1 n=d7 v=58
228471 On ch=1 n=a5 v=23
228517 On ch=1 n=e7 v=0
228609 On ch=1 n=a5 v=0
228671 On ch=1 n=d7 v=0
228711 On ch=1 n=a6 v=48
228719 On ch=1 n=f5 v=32
228775 On ch=1 n=f5 v=0
228795 On ch=1 n=a6 v=0
228981 On ch=1 n=d6 v=46
229131 On ch=1 n=d6 v=0
229211 On ch=1 n=a5 v=38
229501 On ch=1 n=f5 v=46
229539 On ch=1 n=a5 v=0
229781 On ch=1 n=d5 v=52
229831 On ch=1 n=f5 v=0
229831 Par ch=1 c=64 v=0
230025 Par ch=1 c=64 v=127
230109 On ch=1 n=e5 v=48
230147 On ch=1 n=d5 v=0
230147 Par ch=1 c=64 v=0
230379 Par ch=1 c=64 v=127
230445 On ch=1 n=e5 v=0
230503 On ch=1 n=g5 v=22
230563 Par ch=1 c=64 v=0
230573 On ch=1 n=f5 v=36
230597 On ch=1 n=g5 v=0
230869 Par ch=1 c=64 v=127
231123 On ch=1 n=e4 v=43
231217 On ch=1 n=f5 v=0
231285 Par ch=1 c=64 v=0
231821 On ch=1 n=e3 v=40
231883 Par ch=1 c=64 v=127
232019 On ch=1 n=e3 v=0
232431 On ch=1 n=e3 v=38
232467 Par ch=1 c=64 v=0
232621 Par ch=1 c=64 v=127
232653 On ch=1 n=e3 v=0
233207 On ch=1 n=d5 v=44
233571 On ch=1 n=e5 v=54
233603 On ch=1 n=e3 v=32
233621 Par ch=1 c=64 v=0
233773 Par ch=1 c=64 v=127
233777 On ch=1 n=e3 v=0
233821 On ch=1 n=g#5 v=61
233917 On ch=1 n=e5 v=0
234077 On ch=1 n=c6 v=53
234111 Par ch=1 c=64 v=0
234113 On ch=1 n=e3 v=42
234135 On ch=1 n=g#5 v=0
234249 Par ch=1 c=64 v=127
234269 On ch=1 n=e3 v=0
234317 On ch=1 n=b5 v=72
234353 On ch=1 n=d5 v=0
234407 On ch=1 n=c6 v=0
234591 On ch=1 n=a5 v=63
234629 On ch=1 n=b5 v=0
234881 Par ch=1 c=64 v=0
235013 On ch=1 n=e3 v=40
235021 On ch=1 n=e5 v=27
235023 On ch=1 n=c5 v=22
235187 Par ch=1 c=64 v=127
235201 On ch=1 n=e3 v=0
235239 On ch=1 n=c5 v=0
235251 On ch=1 n=e5 v=0
235465 On ch=1 n=e4 v=0
235483 On ch=1 n=e5 v=34
235503 On ch=1 n=c5 v=17
235503 On ch=1 n=e3 v=31
235567 On ch=1 n=e3 v=0
235589 On ch=1 n=c5 v=0
235615 On ch=1 n=e5 v=0
235659 On ch=1 n=a5 v=0
235927 On ch=1 n=e6 v=69
235941 On ch=1 n=e5 v=57
236339 Par ch=1 c=64 v=0
236391 On ch=1 n=a4 v=20
236393 On ch=1 n=a5 v=18
236403 On ch=1 n=e4 v=31
236539 Par ch=1 c=64 v=127
236617 On ch=1 n=a4 v=0
236619 On ch=1 n=a5 v=0
236621 On ch=1 n=e4 v=0
236923 On ch=1 n=a5 v=20
236947 On ch=1 n=a4 v=11
236969 On ch=1 n=e4 v=23
237079 On ch=1 n=e5 v=0
237082 On ch=1 n=e4 v=0
237091 On ch=1 n=a4 v=0
237111 On ch=1 n=a5 v=0
237415 On ch=1 n=d6 v=42
237435 On ch=1 n=d5 v=37
237611 On ch=1 n=e6 v=0
237783 Par ch=1 c=64 v=0
237857 On ch=1 n=a4 v=20
237865 On ch=1 n=f5 v=22
237868 On ch=1 n=a5 v=7
237883 On ch=1 n=e4 v=38
238031 On ch=1 n=e4 v=0
238057 On ch=1 n=f5 v=0
238057 Par ch=1 c=64 v=127
238071 On ch=1 n=a4 v=0
238081 On ch=1 n=a5 v=0
238431 On ch=1 n=a5 v=8
238443 On ch=1 n=f5 v=15
238479 On ch=1 n=a4 v=4
238485 On ch=1 n=e4 v=17
238595 On ch=1 n=d5 v=0
238609 On ch=1 n=a4 v=0
238671 On ch=1 n=d6 v=0
238674 On ch=1 n=f5 v=0
238737 On ch=1 n=a5 v=0
238981 On ch=1 n=e4 v=0
239191 On ch=1 n=d5 v=42
239489 On ch=1 n=e5 v=50
239519 On ch=1 n=e3 v=32
239685 On ch=1 n=g#5 v=60
239743 On ch=1 n=e5 v=0
239745 On ch=1 n=e3 v=0
239919 On ch=1 n=c6 v=63
239941 On ch=1 n=e3 v=38
239969 On ch=1 n=g#5 v=0
239969 Par ch=1 c=64 v=0
240123 On ch=1 n=e3 v=0
240134 Par ch=1 c=64 v=127
240139 On ch=1 n=b5 v=75
240195 On ch=1 n=d5 v=0
240211 On ch=1 n=c6 v=0
240387 On ch=1 n=a5 v=67
240435 On ch=1 n=b5 v=0
240719 Par ch=1 c=64 v=0
240803 On ch=1 n=e5 v=29
240808 On ch=1 n=e3 v=37
240813 On ch=1 n=c5 v=32
240995 On ch=1 n=c5 v=0
240995 On ch=1 n=e3 v=0
240997 Par ch=1 c=64 v=127
241015 On ch=1 n=e5 v=0
241237 On ch=1 n=e5 v=37
241247 On ch=1 n=e3 v=38
241255 On ch=1 n=c5 v=27
241319 On ch=1 n=e3 v=0
241399 On ch=1 n=c5 v=0
241447 On ch=1 n=e5 v=0
241721 On ch=1 n=f#5 v=55
241757 On ch=1 n=f#4 v=55
241801 On ch=1 n=a5 v=0
242085 Par ch=1 c=64 v=0
242163 On ch=1 n=c5 v=25
242163 On ch=1 n=e5 v=34
242175 On ch=1 n=a4 v=32
242187 On ch=1 n=e3 v=47
242317 On ch=1 n=e3 v=0
242317 Par ch=1 c=64 v=127
242361 On ch=1 n=a4 v=0
242364 On ch=1 n=c5 v=0
242374 On ch=1 n=e5 v=0
242428 On ch=1 n=f#4 v=0
242622 On ch=1 n=c5 v=26
242630 On ch=1 n=a4 v=23
242633 On ch=1 n=e5 v=29
242644 On ch=1 n=e3 v=36
242698 On ch=1 n=e3 v=0
242792 On ch=1 n=a4 v=0
242894 On ch=1 n=c5 v=0
243164 On ch=1 n=g#5 v=38
243170 On ch=1 n=g#4 v=41
243250 On ch=1 n=e5 v=0
243266 Par ch=1 c=64 v=0
243286 On ch=1 n=f#5 v=0
243482 Par ch=1 c=64 v=127
243566 On ch=1 n=g#4 v=0
243818 On ch=1 n=e5 v=25
243824 On ch=1 n=b4 v=10
243830 On ch=1 n=e3 v=27
243936 On ch=1 n=e3 v=0
243978 On ch=1 n=b4 v=0
243998 On ch=1 n=e5 v=0
244336 On ch=1 n=e5 v=24
244336 On ch=1 n=b4 v=17
244354 On ch=1 n=e3 v=19
244464 On ch=1 n=e3 v=0
244470 On ch=1 n=b4 v=0
244544 On ch=1 n=e5 v=0
244662 On ch=1 n=g#5 v=0
245022 On ch=1 n=d5 v=42
245304 On ch=1 n=e5 v=60
245350 On ch=1 n=e3 v=34
245436 On ch=1 n=e3 v=0
245502 On ch=1 n=g#5 v=63
245542 On ch=1 n=e5 v=0
245658 On ch=1 n=d5 v=0
245706 On ch=1 n=c6 v=67
245752 On ch=1 n=g#5 v=0
245786 On ch=1 n=e3 v=29
245850 On ch=1 n=e3 v=0
245906 On ch=1 n=b5 v=91
245988 On ch=1 n=c6 v=0
246146 On ch=1 n=a5 v=73
246184 On ch=1 n=b5 v=0
246416 Par ch=1 c=64 v=0
246504 On ch=1 n=e5 v=47
246526 On ch=1 n=c5 v=34
246564 On ch=1 n=e3 v=36
246724 Par ch=1 c=64 v=127
246734 On ch=1 n=e3 v=0
246739 On ch=1 n=e5 v=0
246754 On ch=1 n=c5 v=0
246958 On ch=1 n=e5 v=40
246968 On ch=1 n=c5 v=10
246984 On ch=1 n=e3 v=45
247032 On ch=1 n=e5 v=0
247034 On ch=1 n=e3 v=0
247044 On ch=1 n=c5 v=0
247062 On ch=1 n=a5 v=0
247360 On ch=1 n=e6 v=87
247392 On ch=1 n=e5 v=74
247636 On ch=1 n=e5 v=0
247754 On ch=1 n=c6 v=39
247756 On ch=1 n=a5 v=28
247764 On ch=1 n=c5 v=39
247770 On ch=1 n=e4 v=4
247780 On ch=1 n=a4 v=23
247862 On ch=1 n=e4 v=0
247866 On ch=1 n=a4 v=0
247874 On ch=1 n=a5 v=0
247915 On ch=1 n=c6 v=0
247948 On ch=1 n=c5 v=0
248154 On ch=1 n=c5 v=56
248154 On ch=1 n=a5 v=41
248160 On ch=1 n=c6 v=57
248164 On ch=1 n=a4 v=39
248172 On ch=1 n=e4 v=47
248228 On ch=1 n=e4 v=0
248234 On ch=1 n=a4 v=0
248237 On ch=1 n=a5 v=0
248240 On ch=1 n=c6 v=0
248242 On ch=1 n=c5 v=0
248264 On ch=1 n=e6 v=0
248512 On ch=1 n=f#6 v=92
248530 On ch=1 n=f#5 v=75
248760 On ch=1 n=f#5 v=0
248840 On ch=1 n=f#6 v=0
248956 On ch=1 n=c6 v=53
248964 On ch=1 n=e5 v=33
248972 On ch=1 n=c5 v=34
248980 On ch=1 n=a5 v=19
248994 On ch=1 n=e4 v=26
248998 On ch=1 n=a4 v=17
249070 On ch=1 n=e4 v=0
249096 On ch=1 n=a4 v=0
249099 On ch=1 n=a5 v=0
249109 On ch=1 n=e5 v=0
249119 On ch=1 n=c6 v=0
249127 On ch=1 n=c5 v=0
249433 On ch=1 n=c6 v=39
249445 On ch=1 n=c5 v=12
249449 On ch=1 n=a4 v=19
249449 On ch=1 n=a5 v=20
249449 On ch=1 n=e5 v=30
249459 On ch=1 n=e4 v=23
249541 On ch=1 n=e5 v=0
249541 On ch=1 n=a5 v=0
249583 On ch=1 n=c5 v=0
249599 On ch=1 n=a4 v=0
249631 On ch=1 n=e4 v=0
249651 On ch=1 n=c6 v=0
250025 On ch=1 n=c5 v=60
250327 On ch=1 n=e5 v=75
250355 On ch=1 n=e3 v=45
250517 On ch=1 n=g#5 v=68
250553 On ch=1 n=c5 v=0
250601 On ch=1 n=e3 v=0
250663 On ch=1 n=e5 v=0
250727 On ch=1 n=b5 v=88
250749 On ch=1 n=e3 v=63
250779 On ch=1 n=g#5 v=0
250815 On ch=1 n=e3 v=0
250899 On ch=1 n=a5 v=76
250967 On ch=1 n=b5 v=0
250997 On ch=1 n=a5 v=0
251083 On ch=1 n=a5 v=42
251421 Par ch=1 c=64 v=0
251437 On ch=1 n=e5 v=51
251439 On ch=1 n=c5 v=46
251459 On ch=1 n=e3 v=53
251621 Par ch=1 c=64 v=127
251635 On ch=1 n=e3 v=0
251647 On ch=1 n=e5 v=0
251650 On ch=1 n=c5 v=0
251801 On ch=1 n=e3 v=74
251803 On ch=1 n=c5 v=42
251819 On ch=1 n=e5 v=41
251839 On ch=1 n=e3 v=0
251861 On ch=1 n=c5 v=0
251867 On ch=1 n=a5 v=0
251869 On ch=1 n=e5 v=0
252125 On ch=1 n=f#6 v=97
252135 On ch=1 n=f#5 v=79
252275 On ch=1 n=f#5 v=0
252465 On ch=1 n=a5 v=30
252475 On ch=1 n=c6 v=33
252485 On ch=1 n=c5 v=40
252509 On ch=1 n=e4 v=34
252565 On ch=1 n=c5 v=0
252573 On ch=1 n=e4 v=0
252577 On ch=1 n=c6 v=0
252581 On ch=1 n=a5 v=0
252783 On ch=1 n=a4 v=35
252789 On ch=1 n=a5 v=43
252791 On ch=1 n=c6 v=62
252793 On ch=1 n=c5 v=49
252793 On ch=1 n=e4 v=52
252845 On ch=1 n=e4 v=0
252848 On ch=1 n=a4 v=0
252857 On ch=1 n=c5 v=0
252915 On ch=1 n=a5 v=0
252937 On ch=1 n=c6 v=0
252991 On ch=1 n=f#6 v=0
253093 On ch=1 n=g#6 v=98
253099 On ch=1 n=g#5 v=86
253099 Par ch=1 c=64 v=0
253235 Par ch=1 c=64 v=127
253241 On ch=1 n=g#5 v=0
253417 On ch=1 n=a5 v=40
253429 On ch=1 n=c5 v=43
253429 On ch=1 n=d#6 v=41
253432 On ch=1 n=c6 v=40
253441 On ch=1 n=a4 v=27
253443 On ch=1 n=e4 v=23
253507 On ch=1 n=c5 v=0
253515 On ch=1 n=c6 v=0
253519 On ch=1 n=a4 v=0
253523 On ch=1 n=e4 v=0
253559 On ch=1 n=a5 v=0
253589 On ch=1 n=d#6 v=0
253743 On ch=1 n=d#6 v=49
253749 On ch=1 n=c5 v=49
253749 On ch=1 n=a5 v=36
253752 On ch=1 n=a4 v=39
253759 On ch=1 n=e4 v=47
253761 On ch=1 n=c6 v=31
253771 On ch=1 n=g#6 v=0
253813 On ch=1 n=e4 v=0
253813 On ch=1 n=a4 v=0
253813 On ch=1 n=c5 v=0
253849 On ch=1 n=c6 v=0
253867 On ch=1 n=a5 v=0
253915 On ch=1 n=d#6 v=0
254015 On ch=1 n=f#6 v=95
254021 On ch=1 n=f#5 v=78
254143 On ch=1 n=f#5 v=0
254341 On ch=1 n=d#6 v=55
254345 On ch=1 n=a5 v=38
254357 On ch=1 n=c5 v=48
254359 On ch=1 n=c6 v=36
254369 On ch=1 n=a4 v=31
254383 On ch=1 n=e4 v=40
254441 On ch=1 n=e4 v=0
254441 On ch=1 n=c5 v=0
254455 On ch=1 n=a4 v=0
254495 On ch=1 n=c6 v=0
254495 On ch=1 n=a5 v=0
254591 On ch=1 n=d#6 v=0
254615 On ch=1 n=f#6 v=0
254817 On ch=1 n=g#6 v=97
254820 On ch=1 n=g#5 v=89
254885 On ch=1 n=g#5 v=0
254917 On ch=1 n=g#6 v=0
254957 Par ch=1 c=64 v=0
254991 On ch=1 n=g#6 v=86
254999 On ch=1 n=g#5 v=95
255109 Par ch=1 c=64 v=127
255153 On ch=1 n=g#5 v=0
255283 On ch=1 n=d#6 v=56
255291 On ch=1 n=a5 v=42
255299 On ch=1 n=c5 v=59
255299 On ch=1 n=a4 v=46
255305 On ch=1 n=c6 v=46
255313 On ch=1 n=e4 v=64
255367 On ch=1 n=c5 v=0
255370 On ch=1 n=e4 v=0
255370 On ch=1 n=a4 v=0
255377 On ch=1 n=c6 v=0
255401 On ch=1 n=a5 v=0
255437 On ch=1 n=d#6 v=0
255573 On ch=1 n=a4 v=58
255576 On ch=1 n=c5 v=63
255583 On ch=1 n=a5 v=50
255587 On ch=1 n=d#6 v=59
255591 On ch=1 n=c6 v=50
255595 On ch=1 n=e4 v=42
255637 On ch=1 n=c5 v=0
255639 On ch=1 n=a4 v=0
255653 On ch=1 n=e4 v=0
255671 On ch=1 n=a5 v=0
255673 On ch=1 n=c6 v=0
255735 On ch=1 n=d#6 v=0
255853 On ch=1 n=f#5 v=83
255853 On ch=1 n=f#6 v=92
255973 On ch=1 n=g#6 v=0
255987 On ch=1 n=f#5 v=0
256193 On ch=1 n=d#6 v=62
256197 On ch=1 n=a5 v=47
256207 On ch=1 n=c5 v=67
256209 On ch=1 n=a4 v=52
256209 On ch=1 n=c6 v=47
256219 On ch=1 n=e4 v=56
256271 On ch=1 n=e4 v=0
256279 On ch=1 n=a4 v=0
256281 On ch=1 n=c5 v=0
256307 On ch=1 n=c6 v=0
256327 On ch=1 n=a5 v=0
256375 On ch=1 n=f#6 v=0
256393 On ch=1 n=d#6 v=0
256695 On ch=1 n=g#6 v=95
256699 On ch=1 n=g#5 v=87
256747 On ch=1 n=g#5 v=0
256789 On ch=1 n=g#6 v=0
256845 Par ch=1 c=64 v=0
256859 On ch=1 n=g#6 v=92
256867 On ch=1 n=g#5 v=103
256999 Par ch=1 c=64 v=127
257015 On ch=1 n=g#5 v=0
257161 On ch=1 n=a5 v=49
257163 On ch=1 n=d#6 v=62
257173 On ch=1 n=c5 v=59
257177 On ch=1 n=a4 v=52
257181 On ch=1 n=e4 v=69
257183 On ch=1 n=c6 v=47
257233 On ch=1 n=e4 v=0
257237 On ch=1 n=c5 v=0
257245 On ch=1 n=a4 v=0
257251 On ch=1 n=c6 v=0
257275 On ch=1 n=a5 v=0
257303 On ch=1 n=d#6 v=0
257433 On ch=1 n=a4 v=73
257443 On ch=1 n=c5 v=74
257451 On ch=1 n=d#6 v=67
257451 On ch=1 n=a5 v=51
257455 On ch=1 n=e4 v=61
257457 On ch=1 n=c6 v=58
257493 On ch=1 n=c5 v=0
257497 On ch=1 n=a4 v=0
257503 On ch=1 n=e4 v=0
257577 On ch=1 n=a5 v=0
257597 On ch=1 n=c6 v=0
257597 On ch=1 n=d#6 v=0
257697 On ch=1 n=f#6 v=95
257699 On ch=1 n=f#5 v=93
257801 On ch=1 n=g#6 v=0
257821 On ch=1 n=f#5 v=0
258017 On ch=1 n=d#6 v=73
258017 On ch=1 n=a5 v=63
258023 On ch=1 n=c5 v=77
258025 On ch=1 n=e4 v=76
258027 On ch=1 n=a4 v=55
258031 On ch=1 n=c6 v=65
258091 Par ch=1 c=64 v=0
258131 On ch=1 n=e4 v=0
258183 Par ch=1 c=64 v=127
258203 On ch=1 n=a4 v=0
258213 On ch=1 n=c6 v=0
258217 On ch=1 n=c5 v=0
258219 On ch=1 n=a5 v=0
258265 On ch=1 n=d#6 v=0
258287 On ch=1 n=f#6 v=0
258501 On ch=1 n=g#6 v=100
258515 On ch=1 n=g#5 v=86
258615 On ch=1 n=g#5 v=0
258631 On ch=1 n=g#6 v=0
258673 Par ch=1 c=64 v=0
258679 On ch=1 n=a6 v=111
258687 On ch=1 n=a5 v=98
258843 Par ch=1 c=64 v=127
258851 On ch=1 n=a5 v=0
259047 On ch=1 n=f#6 v=73
259053 On ch=1 n=d#6 v=67
259057 On ch=1 n=c5 v=87
259059 On ch=1 n=c6 v=67
259063 On ch=1 n=a4 v=67
259079 On ch=1 n=e4 v=66
259137 On ch=1 n=a4 v=0
259161 On ch=1 n=c5 v=0
259175 On ch=1 n=e4 v=0
259175 On ch=1 n=c6 v=0
259185 On ch=1 n=d#6 v=0
259223 On ch=1 n=f#6 v=0
259367 On ch=1 n=f#6 v=76
259370 On ch=1 n=d#6 v=67
259373 On ch=1 n=c5 v=83
259377 On ch=1 n=c6 v=69
259377 On ch=1 n=a4 v=68
259399 On ch=1 n=e4 v=55
259419 On ch=1 n=c5 v=0
259421 On ch=1 n=a4 v=0
259449 On ch=1 n=e4 v=0
259561 On ch=1 n=f#6 v=0
259573 On ch=1 n=d#6 v=0
259615 On ch=1 n=c6 v=0
259671 On ch=1 n=g#6 v=100
259683 On ch=1 n=g#5 v=103
259759 On ch=1 n=a6 v=0
259777 On ch=1 n=g#5 v=0
260041 On ch=1 n=a4 v=66
260041 On ch=1 n=e4 v=74
260045 On ch=1 n=c5 v=72
260047 On ch=1 n=f#6 v=74
260049 On ch=1 n=c6 v=63
260053 On ch=1 n=d#6 v=61
260087 On ch=1 n=e4 v=0
260119 On ch=1 n=c5 v=0
260127 On ch=1 n=a4 v=0
260235 On ch=1 n=e4 v=97
260287 Par ch=1 c=64 v=0
260339 On ch=1 n=a4 v=80
260355 On ch=1 n=f#6 v=0
260379 Par ch=1 c=64 v=127
260391 On ch=1 n=d#6 v=0
260393 On ch=1 n=e4 v=0
260433 On ch=1 n=c6 v=0
260433 On ch=1 n=c5 v=88
260463 On ch=1 n=a4 v=0
260481 On ch=1 n=c5 v=0
260531 On ch=1 n=g#6 v=0
260603 On ch=1 n=a6 v=110
260613 On ch=1 n=c6 v=95
260613 On ch=1 n=f#6 v=79
260619 On ch=1 n=a5 v=103
260621 On ch=1 n=d#6 v=64
260709 On ch=1 n=a5 v=0
260749 On ch=1 n=f#6 v=0
260765 On ch=1 n=d#6 v=0
260825 On ch=1 n=c6 v=0
260867 On ch=1 n=a6 v=0
261131 Par ch=1 c=64 v=0
261141 On ch=1 n=b6 v=119
261145 On ch=1 n=g#6 v=85
261145 On ch=1 n=b5 v=103
261145 On ch=1 n=e3 v=110
261147 On ch=1 n=e6 v=83
261149 On ch=1 n=e2 v=85
261157 On ch=1 n=d6 v=81
261327 On ch=1 n=e3 v=0
261347 Par ch=1 c=64 v=127
261387 On ch=1 n=e2 v=0
261557 On ch=1 n=d5 v=80
261557 On ch=1 n=g#4 v=65
261563 On ch=1 n=e4 v=72
261605 On ch=1 n=e4 v=0
261613 On ch=1 n=g#4 v=0
261621 On ch=1 n=d5 v=0
261671 On ch=1 n=e6 v=0
261703 On ch=1 n=d6 v=0
261845 On ch=1 n=b5 v=0
261891 On ch=1 n=g#6 v=0
261907 On ch=1 n=g#4 v=83
261913 On ch=1 n=e5 v=87
261935 On ch=1 n=d5 v=67
261957 On ch=1 n=b6 v=0
261985 On ch=1 n=d5 v=0
262015 On ch=1 n=e5 v=0
262145 On ch=1 n=g#4 v=0
262201 On ch=1 n=c#7 v=104
262207 On ch=1 n=g#5 v=83
262215 On ch=1 n=d6 v=86
262218 On ch=1 n=g#6 v=75
262225 On ch=1 n=e6 v=79
262231 On ch=1 n=b4 v=55
262247 On ch=1 n=d5 v=59
262267 On ch=1 n=e6 v=0
262293 On ch=1 n=d5 v=0
262295 On ch=1 n=d6 v=0
262299 On ch=1 n=b4 v=0
262321 On ch=1 n=g#5 v=0
262345 On ch=1 n=g#6 v=0
262433 On ch=1 n=c#7 v=0
262501 On ch=1 n=g#4 v=76
262511 On ch=1 n=d5 v=54
262517 On ch=1 n=e5 v=72
262565 On ch=1 n=e5 v=0
262579 On ch=1 n=d5 v=0
262615 On ch=1 n=g#4 v=0
262777 On ch=1 n=g#4 v=68
262783 On ch=1 n=c#7 v=100
262785 On ch=1 n=e4 v=74
262791 On ch=1 n=d5 v=43
262795 On ch=1 n=d6 v=88
262801 On ch=1 n=e6 v=83
262801 On ch=1 n=g#6 v=72
262803 On ch=1 n=e5 v=48
262823 On ch=1 n=g#4 v=0
262835 On ch=1 n=e6 v=0
262837 On ch=1 n=e4 v=0
262839 On ch=1 n=g#6 v=0
262839 On ch=1 n=d6 v=0
262851 On ch=1 n=d5 v=0
262855 On ch=1 n=e5 v=0
262883 On ch=1 n=c#7 v=0
263067 Par ch=1 c=64 v=0
263091 On ch=1 n=a6 v=105
263091 On ch=1 n=a2 v=97
263094 On ch=1 n=a5 v=88
263094 On ch=1 n=a3 v=89
263101 On ch=1 n=c#6 v=75
263253 Par ch=1 c=64 v=127
263279 On ch=1 n=a3 v=0
263293 On ch=1 n=a2 v=0
263425 On ch=1 n=c#5 v=73
263439 On ch=1 n=e4 v=75
263481 On ch=1 n=a5 v=0
263539 On ch=1 n=c#5 v=0
263543 On ch=1 n=c#6 v=0
263581 On ch=1 n=e4 v=0
263595 On ch=1 n=a6 v=0
263703 On ch=1 n=e5 v=91
263706 On ch=1 n=a4 v=75
263755 On ch=1 n=a4 v=0
263813 On ch=1 n=e5 v=0
264023 On ch=1 n=a7 v=109
264026 On ch=1 n=a6 v=102
264030 On ch=1 n=c#7 v=87
264037 On ch=1 n=a5 v=70
264049 On ch=1 n=c#5 v=69
264123 On ch=1 n=a5 v=0
264191 On ch=1 n=c#5 v=0
264303 On ch=1 n=e5 v=81
264306 On ch=1 n=a4 v=58
264329 On ch=1 n=a6 v=0
264333 On ch=1 n=a7 v=0
264361 On ch=1 n=c#7 v=0
264365 On ch=1 n=e5 v=0
264377 On ch=1 n=a4 v=0
264531 On ch=1 n=g#7 v=97
264539 On ch=1 n=g#6 v=90
264545 On ch=1 n=c#7 v=79
264549 On ch=1 n=e4 v=56
264597 On ch=1 n=e4 v=0
264725 On ch=1 n=g#6 v=0
264727 On ch=1 n=g#7 v=0
264737 On ch=1 n=c#7 v=0
264789 Par ch=1 c=64 v=0
264811 On ch=1 n=f#7 v=103
264814 On ch=1 n=f#6 v=100
264817 On ch=1 n=c#7 v=72
264821 On ch=1 n=b3 v=85
264825 On ch=1 n=b2 v=99
264955 On ch=1 n=b2 v=0
264959 Par ch=1 c=64 v=127
264961 On ch=1 n=b3 v=0
265121 On ch=1 n=b4 v=69
265124 On ch=1 n=f#4 v=70
265305 On ch=1 n=f#6 v=0
265331 On ch=1 n=b4 v=0
265365 On ch=1 n=d#5 v=77
265379 On ch=1 n=c#7 v=0
265382 On ch=1 n=a4 v=59
265415 On ch=1 n=f#4 v=0
265475 On ch=1 n=d#5 v=0
265505 On ch=1 n=f#7 v=0
265553 On ch=1 n=a4 v=0
265591 On ch=1 n=g#7 v=95
265599 On ch=1 n=d#7 v=80
265603 On ch=1 n=b6 v=109
265607 On ch=1 n=f#5 v=64
265637 On ch=1 n=b4 v=61
265731 On ch=1 n=f#5 v=0
265803 On ch=1 n=d#7 v=0
265811 On ch=1 n=b4 v=0
265851 On ch=1 n=b6 v=0
265867 On ch=1 n=d#5 v=77
265870 On ch=1 n=g#7 v=0
265877 On ch=1 n=a4 v=59
265961 On ch=1 n=a4 v=0
265975 On ch=1 n=d#5 v=0
266119 On ch=1 n=g#7 v=95
266127 On ch=1 n=d#7 v=78
266127 On ch=1 n=a6 v=94
266129 On ch=1 n=b4 v=55
266135 On ch=1 n=f#4 v=62
266159 On ch=1 n=d#7 v=0
266177 On ch=1 n=b4 v=0
266179 On ch=1 n=f#4 v=0
266191 On ch=1 n=a6 v=0
266237 On ch=1 n=g#7 v=0
266387 Par ch=1 c=64 v=0
266415 On ch=1 n=e7 v=95
266421 On ch=1 n=g#6 v=76
266421 On ch=1 n=e6 v=81
266424 On ch=1 n=e3 v=98
266427 On ch=1 n=e4 v=88
266569 On ch=1 n=e3 v=0
266585 On ch=1 n=e4 v=0
266585 Par ch=1 c=64 v=127
266757 On ch=1 n=b4 v=75
266759 On ch=1 n=e4 v=75
266945 On ch=1 n=b4 v=0
267015 On ch=1 n=e5 v=81
267019 On ch=1 n=g#4 v=68
267047 On ch=1 n=e4 v=0
267081 On ch=1 n=e7 v=0
267087 On ch=1 n=e6 v=0
267125 On ch=1 n=g#6 v=0
267139 On ch=1 n=e5 v=0
267345 On ch=1 n=e7 v=108
267347 On ch=1 n=e6 v=99
267365 On ch=1 n=g#5 v=68
267373 On ch=1 n=g#4 v=0
267375 On ch=1 n=b4 v=59
267485 On ch=1 n=g#5 v=0
267531 On ch=1 n=b4 v=0
267609 On ch=1 n=g#4 v=71
267611 On ch=1 n=e5 v=81
267713 On ch=1 n=e5 v=0
267715 On ch=1 n=e7 v=0
267721 On ch=1 n=e6 v=0
267781 On ch=1 n=g#4 v=0
267839 On ch=1 n=e7 v=106
267842 On ch=1 n=e6 v=97
267852 On ch=1 n=b4 v=76
267856 On ch=1 n=e4 v=70
267888 On ch=1 n=b4 v=0
267912 On ch=1 n=e4 v=0
268002 On ch=1 n=e6 v=0
268020 On ch=1 n=e7 v=0
268076 Par ch=1 c=64 v=0
268090 On ch=1 n=e7 v=94
268098 On ch=1 n=e6 v=90
268104 On ch=1 n=a6 v=89
268118 On ch=1 n=f#4 v=87
268124 On ch=1 n=f#3 v=83
268234 On ch=1 n=f#4 v=0
268244 On ch=1 n=f#3 v=0
268258 Par ch=1 c=64 v=127
268404 On ch=1 n=f#4 v=74
268404 On ch=1 n=d5 v=83
268462 On ch=1 n=f#4 v=0
268532 On ch=1 n=e7 v=0
268542 On ch=1 n=e6 v=0
268660 On ch=1 n=a5 v=55
268662 On ch=1 n=d7 v=102
268668 On ch=1 n=d6 v=98
268674 On ch=1 n=a4 v=66
268704 On ch=1 n=d5 v=0
268712 On ch=1 n=a5 v=0
268716 On ch=1 n=a4 v=0
268740 On ch=1 n=a6 v=0
268834 On ch=1 n=d6 v=0
268856 On ch=1 n=d7 v=0
268958 On ch=1 n=d7 v=94
268966 On ch=1 n=d6 v=104
268974 On ch=1 n=b2 v=94
268977 On ch=1 n=b3 v=80
268980 Par ch=1 c=64 v=0
269048 On ch=1 n=d6 v=0
269052 On ch=1 n=d7 v=0
269076 On ch=1 n=b3 v=0
269088 On ch=1 n=b2 v=0
269104 Par ch=1 c=64 v=127
269144 On ch=1 n=e7 v=103
269154 On ch=1 n=e6 v=92
269196 On ch=1 n=e6 v=0
269204 On ch=1 n=e7 v=0
269301 On ch=1 n=d6 v=103
269304 On ch=1 n=d7 v=101
269342 On ch=1 n=d7 v=0
269360 On ch=1 n=d6 v=0
269416 On ch=1 n=f#4 v=63
269446 On ch=1 n=d5 v=56
269454 On ch=1 n=c#7 v=93
269454 On ch=1 n=c#6 v=93
269528 On ch=1 n=c#7 v=0
269542 On ch=1 n=c#6 v=0
269582 On ch=1 n=f#4 v=0
269594 On ch=1 n=d7 v=99
269597 On ch=1 n=d6 v=91
269606 On ch=1 n=b4 v=56
269626 On ch=1 n=d7 v=0
269629 On ch=1 n=d6 v=0
269708 On ch=1 n=a5 v=74
269730 On ch=1 n=f#7 v=93
269733 On ch=1 n=f#6 v=87
269750 On ch=1 n=a5 v=0
269760 On ch=1 n=f#7 v=0
269760 On ch=1 n=d5 v=0
269770 On ch=1 n=f#6 v=0
269812 On ch=1 n=b4 v=0
269852 On ch=1 n=e7 v=98
269858 On ch=1 n=e6 v=88
269886 On ch=1 n=e7 v=0
269894 On ch=1 n=e6 v=0
269948 Par ch=1 c=64 v=0
269980 On ch=1 n=d7 v=109
269983 On ch=1 n=d6 v=106
269986 On ch=1 n=e3 v=109
269992 On ch=1 n=e4 v=100
269996 On ch=1 n=g#6 v=85
270092 On ch=1 n=e3 v=0
270146 On ch=1 n=e4 v=0
270148 Par ch=1 c=64 v=127
270284 On ch=1 n=c#5 v=89
270296 On ch=1 n=e4 v=88
270334 On ch=1 n=e4 v=0
270418 On ch=1 n=d7 v=0
270421 On ch=1 n=d6 v=0
270542 On ch=1 n=c#6 v=94
270544 On ch=1 n=g#5 v=82
270544 On ch=1 n=c#7 v=96
270558 On ch=1 n=g#4 v=63
270574 On ch=1 n=g#5 v=0
270596 On ch=1 n=c#5 v=0
270598 On ch=1 n=g#6 v=0
270624 On ch=1 n=g#4 v=0
270674 On ch=1 n=c#6 v=0
270718 On ch=1 n=c#7 v=0
270870 On ch=1 n=c#7 v=93
270880 On ch=1 n=c#6 v=95
270898 On ch=1 n=a3 v=90
270900 On ch=1 n=a2 v=97
270948 Par ch=1 c=64 v=0
271040 On ch=1 n=a2 v=0
271044 On ch=1 n=c#6 v=0
271086 Par ch=1 c=64 v=127
271094 On ch=1 n=d7 v=98
271098 On ch=1 n=a3 v=0
271098 On ch=1 n=d6 v=96
271126 On ch=1 n=c#7 v=0
271158 On ch=1 n=d6 v=0
271170 On ch=1 n=d7 v=0
271252 On ch=1 n=c#7 v=95
271252 On ch=1 n=c#6 v=95
271328 On ch=1 n=c#7 v=0
271346 On ch=1 n=c#6 v=0
271396 On ch=1 n=c#5 v=75
271404 On ch=1 n=e4 v=78
271407 On ch=1 n=c7 v=98
271407 On ch=1 n=c6 v=94
271442 On ch=1 n=e4 v=0
271448 On ch=1 n=c7 v=0
271456 On ch=1 n=c6 v=0
271540 On ch=1 n=c#7 v=96
271545 On ch=1 n=c#6 v=87
271608 On ch=1 n=c#6 v=0
271610 On ch=1 n=a4 v=67
271612 On ch=1 n=c#5 v=0
271644 On ch=1 n=c#7 v=0
271682 On ch=1 n=e7 v=102
271688 On ch=1 n=e6 v=83
271694 On ch=1 n=g#5 v=92
271710 On ch=1 n=e7 v=0
271724 On ch=1 n=e6 v=0
271746 On ch=1 n=g#5 v=0
271798 On ch=1 n=a4 v=0
271814 On ch=1 n=d7 v=104
271816 On ch=1 n=d6 v=101
271874 On ch=1 n=d6 v=0
271910 On ch=1 n=d7 v=0
271974 On ch=1 n=c#7 v=103
271979 On ch=1 n=c#6 v=95
271984 On ch=1 n=f#6 v=86
271994 On ch=1 n=d4 v=103
271997 On ch=1 n=d3 v=98
272008 Par ch=1 c=64 v=0
272162 On ch=1 n=d3 v=0
272208 Par ch=1 c=64 v=127
272214 On ch=1 n=d4 v=0
272316 On ch=1 n=c#7 v=0
272319 On ch=1 n=c#6 v=0
272390 On ch=1 n=b4 v=75
272390 On ch=1 n=b6 v=117
272396 On ch=1 n=b5 v=95
272412 On ch=1 n=d4 v=70
272458 On ch=1 n=d4 v=0
272548 On ch=1 n=b5 v=0
272570 On ch=1 n=b6 v=0
272620 On ch=1 n=f#6 v=0
272648 On ch=1 n=f#5 v=81
272678 On ch=1 n=f#4 v=68
272702 On ch=1 n=b4 v=0
272752 On ch=1 n=f#5 v=0
272752 On ch=1 n=a#6 v=96
272755 On ch=1 n=a#5 v=90
272802 On ch=1 n=f#4 v=0
272866 On ch=1 n=a#5 v=0
272886 On ch=1 n=a#6 v=0
272932 On ch=1 n=b6 v=118
272940 On ch=1 n=b5 v=101
272940 On ch=1 n=f6 v=84
272943 Par ch=1 c=64 v=0
272953 On ch=1 n=c#4 v=80
272953 On ch=1 n=c#3 v=92
273107 On ch=1 n=c#3 v=0
273110 Par ch=1 c=64 v=127
273143 On ch=1 n=b5 v=0
273146 On ch=1 n=c#4 v=0
273156 On ch=1 n=b6 v=0
273206 On ch=1 n=c7 v=108
273212 On ch=1 n=c6 v=90
273308 On ch=1 n=f6 v=0
273318 On ch=1 n=c6 v=0
273328 On ch=1 n=c7 v=0
273346 On ch=1 n=g#4 v=67
273350 On ch=1 n=c#5 v=78
273454 On ch=1 n=c#7 v=101
273454 On ch=1 n=c#6 v=95
273500 On ch=1 n=g#4 v=0
273510 On ch=1 n=c#5 v=0
273540 On ch=1 n=c#6 v=0
273540 On ch=1 n=c#7 v=0
273612 On ch=1 n=f5 v=83
273618 On ch=1 n=b4 v=81
273684 On ch=1 n=f5 v=0
273690 On ch=1 n=g#5 v=94
273692 On ch=1 n=g#6 v=100
273738 On ch=1 n=b4 v=0
273782 On ch=1 n=g#5 v=0
273836 On ch=1 n=g#6 v=0
273968 On ch=1 n=b5 v=97
273970 On ch=1 n=b6 v=119
273973 On ch=1 n=f#6 v=80
273973 On ch=1 n=c#6 v=79
273984 Par ch=1 c=64 v=0
273990 On ch=1 n=f#3 v=94
273992 On ch=1 n=f#2 v=102
274130 On ch=1 n=f#2 v=0
274184 Par ch=1 c=64 v=127
274194 On ch=1 n=f#3 v=0
274260 On ch=1 n=b6 v=0
274310 On ch=1 n=b5 v=0
274398 On ch=1 n=a6 v=98
274403 On ch=1 n=c#5 v=77
274406 On ch=1 n=a5 v=79
274412 On ch=1 n=f#4 v=57
274414 On ch=1 n=c#6 v=0
274472 On ch=1 n=f#6 v=0
274484 On ch=1 n=f#4 v=0
274546 On ch=1 n=c#5 v=0
274604 On ch=1 n=a6 v=0
274606 On ch=1 n=a5 v=0
274678 On ch=1 n=f#5 v=78
274704 On ch=1 n=a4 v=61
274742 On ch=1 n=f#5 v=0
274768 On ch=1 n=a4 v=0
274771 On ch=1 n=g#6 v=97
274880 On ch=1 n=g#6 v=0
274902 On ch=1 n=f#6 v=82
274980 On ch=1 n=g#6 v=73
275018 On ch=1 n=f#6 v=0
275090 On ch=1 n=f#6 v=81
275106 On ch=1 n=b5 v=83
275106 On ch=1 n=a5 v=77
275106 Par ch=1 c=64 v=0
275118 On ch=1 n=b3 v=93
275118 On ch=1 n=b2 v=101
275126 On ch=1 n=d#6 v=47
275192 On ch=1 n=d#6 v=0
275198 On ch=1 n=g#6 v=0
275278 On ch=1 n=b2 v=0
275328 On ch=1 n=b3 v=0
275336 Par ch=1 c=64 v=127
275394 On ch=1 n=b5 v=0
275410 On ch=1 n=a5 v=0
275458 On ch=1 n=f#6 v=0
275510 On ch=1 n=f6 v=98
275530 On ch=1 n=a5 v=32
275542 On ch=1 n=b5 v=54
275548 On ch=1 n=b4 v=66
275558 On ch=1 n=f#4 v=64
275600 On ch=1 n=b5 v=0
275618 On ch=1 n=a5 v=0
275684 On ch=1 n=f6 v=0
275740 On ch=1 n=f#6 v=95
275752 On ch=1 n=a5 v=63
275758 On ch=1 n=d#6 v=62
275760 On ch=1 n=b5 v=78
275802 On ch=1 n=b5 v=0
275814 On ch=1 n=d#6 v=0
275828 On ch=1 n=a5 v=0
275906 On ch=1 n=f#6 v=0
275918 On ch=1 n=f#4 v=0
275926 On ch=1 n=a4 v=51
275978 On ch=1 n=g#6 v=97
275996 On ch=1 n=b5 v=69
275998 On ch=1 n=a5 v=67
276008 On ch=1 n=d#6 v=49
276022 On ch=1 n=d#5 v=90
276050 On ch=1 n=a4 v=0
276052 On ch=1 n=b5 v=0
276056 On ch=1 n=d#5 v=0
276058 On ch=1 n=b4 v=0
276062 On ch=1 n=d#6 v=0
276066 On ch=1 n=a5 v=0
276126 On ch=1 n=g#6 v=0
276238 On ch=1 n=a6 v=102
276240 On ch=1 n=a5 v=85
276250 On ch=1 n=d#6 v=65
276272 On ch=1 n=a6 v=0
276274 On ch=1 n=b5 v=49
276290 On ch=1 n=d#6 v=0
276336 On ch=1 n=b5 v=0
276338 On ch=1 n=a5 v=0
276610 On ch=1 n=b5 v=105
276624 On ch=1 n=g#5 v=74
276626 On ch=1 n=d5 v=92
276626 On ch=1 n=e2 v=100
276626 On ch=1 n=e3 v=106
276628 On ch=1 n=e5 v=86
276630 Par ch=1 c=64 v=0
276770 On ch=1 n=e2 v=0
276798 On ch=1 n=e3 v=0
276826 Par ch=1 c=64 v=127
277018 On ch=1 n=g#4 v=76
277034 On ch=1 n=b3 v=55
277142 On ch=1 n=e5 v=0
277172 On ch=1 n=d5 v=0
277244 On ch=1 n=g#5 v=0
277249 On ch=1 n=g#4 v=0
277278 On ch=1 n=b5 v=0
277296 On ch=1 n=b3 v=0
277324 On ch=1 n=b4 v=81
277330 On ch=1 n=e4 v=86
277468 On ch=1 n=b4 v=0
277550 On ch=1 n=e4 v=0
277584 On ch=1 n=c#6 v=100
277606 On ch=1 n=d5 v=71
277606 On ch=1 n=e6 v=86
277609 On ch=1 n=e5 v=81
277609 On ch=1 n=g#4 v=62
277612 On ch=1 n=g#5 v=57
277746 On ch=1 n=d5 v=0
277784 On ch=1 n=g#5 v=0
277824 On ch=1 n=e6 v=0
277888 On ch=1 n=g#4 v=0
277928 On ch=1 n=b4 v=71
277934 On ch=1 n=e4 v=76
277960 On ch=1 n=c#6 v=0
277972 On ch=1 n=e5 v=0
278048 On ch=1 n=b4 v=0
278114 On ch=1 n=e4 v=0
278218 On ch=1 n=g#4 v=72
278221 On ch=1 n=c#6 v=88
278224 On ch=1 n=b3 v=72
278226 On ch=1 n=e6 v=88
278228 On ch=1 n=e5 v=90
278228 On ch=1 n=g#5 v=72
278234 On ch=1 n=d5 v=93
278258 On ch=1 n=e6 v=0
278258 On ch=1 n=g#4 v=0
278274 On ch=1 n=g#5 v=0
278274 On ch=1 n=b3 v=0
278280 On ch=1 n=d5 v=0
278296 On ch=1 n=e5 v=0
278298 On ch=1 n=c#6 v=0
278532 Par ch=1 c=64 v=0
278546 On ch=1 n=a5 v=94
278546 On ch=1 n=a3 v=89
278546 On ch=1 n=a2 v=96
278546 On ch=1 n=a4 v=95
278549 On ch=1 n=c#5 v=86
278648 On ch=1 n=a3 v=0
278670 On ch=1 n=a4 v=0
278688 On ch=1 n=a2 v=0
278702 On ch=1 n=c#5 v=0
278702 Par ch=1 c=64 v=127
278758 On ch=1 n=a5 v=0
278836 On ch=1 n=c#5 v=92
278836 On ch=1 n=e4 v=91
278894 On ch=1 n=e4 v=0
278916 On ch=1 n=c#5 v=0
279030 On ch=1 n=a5 v=100
279034 On ch=1 n=a6 v=108
279040 On ch=1 n=c#6 v=82
279052 On ch=1 n=a4 v=59
279056 On ch=1 n=e5 v=72
279072 On ch=1 n=a5 v=0
279074 On ch=1 n=c#6 v=0
279142 On ch=1 n=a4 v=0
279150 On ch=1 n=a6 v=0
279180 On ch=1 n=e5 v=0
279372 On ch=1 n=a7 v=111
279375 On ch=1 n=a6 v=107
279378 On ch=1 n=c#7 v=92
279388 On ch=1 n=a5 v=65
279394 On ch=1 n=c#5 v=69
279494 On ch=1 n=a5 v=0
279578 On ch=1 n=c#5 v=0
279666 On ch=1 n=e5 v=72
279669 On ch=1 n=a4 v=61
279744 On ch=1 n=a7 v=0
279766 On ch=1 n=a6 v=0
279788 On ch=1 n=a4 v=0
279788 On ch=1 n=e5 v=0
279794 On ch=1 n=c#7 v=0
279906 On ch=1 n=c#5 v=76
279908 On ch=1 n=g#7 v=99
279912 On ch=1 n=g#6 v=103
279922 On ch=1 n=e4 v=78
279924 On ch=1 n=c#7 v=91
279944 On ch=1 n=c#5 v=0
279964 On ch=1 n=e4 v=0
280112 On ch=1 n=g#7 v=0
280114 On ch=1 n=g#6 v=0
280146 On ch=1 n=c#7 v=0
280206 Par ch=1 c=64 v=0
280214 On ch=1 n=f#7 v=103
280218 On ch=1 n=f#6 v=106
280220 On ch=1 n=c#7 v=78
280228 On ch=1 n=b3 v=90
280230 On ch=1 n=b2 v=100
280346 On ch=1 n=b3 v=0
280352 On ch=1 n=b2 v=0
280360 Par ch=1 c=64 v=127
280550 On ch=1 n=f#4 v=81
280552 On ch=1 n=b4 v=70
280690 On ch=1 n=f#6 v=0
280760 On ch=1 n=b4 v=0
280788 On ch=1 n=c#7 v=0
280804 On ch=1 n=d#5 v=83
280820 On ch=1 n=a4 v=59
280912 On ch=1 n=f#7 v=0
280918 On ch=1 n=d#5 v=0
281008 On ch=1 n=a4 v=0
281028 On ch=1 n=g#7 v=98
281036 On ch=1 n=b6 v=114
281036 On ch=1 n=f#5 v=68
281039 On ch=1 n=d#7 v=80
281066 On ch=1 n=b4 v=63
281080 On ch=1 n=f#4 v=0
281156 On ch=1 n=f#5 v=0
281236 On ch=1 n=b4 v=0
281254 On ch=1 n=d#7 v=0
281304 On ch=1 n=a4 v=70
281307 On ch=1 n=b6 v=0
281307 On ch=1 n=d#5 v=78
281318 On ch=1 n=g#7 v=0
281440 On ch=1 n=a4 v=0
281444 On ch=1 n=d#5 v=0
281538 On ch=1 n=g#7 v=91
281546 On ch=1 n=d#7 v=76
281548 On ch=1 n=b4 v=63
281548 On ch=1 n=a6 v=94
281552 On ch=1 n=f#4 v=74
281580 On ch=1 n=d#7 v=0
281590 On ch=1 n=b4 v=0
281596 On ch=1 n=f#4 v=0
281600 On ch=1 n=a6 v=0
281632 On ch=1 n=g#7 v=0
281790 Par ch=1 c=64 v=0
281826 On ch=1 n=e7 v=97
281832 On ch=1 n=e6 v=85
281835 On ch=1 n=g#6 v=75
281842 On ch=1 n=e4 v=88
281842 On ch=1 n=e3 v=88
281942 On ch=1 n=e3 v=0
281958 On ch=1 n=e4 v=0
281988 Par ch=1 c=64 v=127
282124 On ch=1 n=b4 v=76
282140 On ch=1 n=e6 v=0
282143 On ch=1 n=e4 v=36
282194 On ch=1 n=g#6 v=0
282258 On ch=1 n=e7 v=0
282292 On ch=1 n=b4 v=0
282340 On ch=1 n=g#4 v=65
282348 On ch=1 n=e5 v=75
282350 On ch=1 n=e4 v=0
282432 On ch=1 n=e5 v=0
282560 On ch=1 n=e8 v=108
282560 On ch=1 n=e7 v=101
282563 On ch=1 n=g#5 v=79
282596 On ch=1 n=b4 v=42
282650 On ch=1 n=g#4 v=0
282682 On ch=1 n=g#5 v=0
282736 On ch=1 n=b4 v=0
282814 On ch=1 n=g#4 v=76
282820 On ch=1 n=e5 v=77
282848 On ch=1 n=e7 v=0
282858 On ch=1 n=e8 v=0
282870 On ch=1 n=e5 v=0
282994 On ch=1 n=g#4 v=0
283082 On ch=1 n=e4 v=77
283084 On ch=1 n=b4 v=83
283132 On ch=1 n=b4 v=0
283186 On ch=1 n=e4 v=0
283264 On ch=1 n=e8 v=107
283268 On ch=1 n=e7 v=104
283334 On ch=1 n=e7 v=0
283380 On ch=1 n=e8 v=0
283464 Par ch=1 c=64 v=0
283488 On ch=1 n=e8 v=97
283490 On ch=1 n=e7 v=103
283496 On ch=1 n=e4 v=94
283506 On ch=1 n=e3 v=100
283646 On ch=1 n=e4 v=0
283648 Par ch=1 c=64 v=127
283688 On ch=1 n=e3 v=0
283718 On ch=1 n=e8 v=0
283774 On ch=1 n=e7 v=0
283806 On ch=1 n=e4 v=88
283808 On ch=1 n=a#4 v=59
283924 On ch=1 n=a#4 v=0
283982 On ch=1 n=e4 v=0
284034 On ch=1 n=c#5 v=72
284054 On ch=1 n=f#4 v=69
284152 On ch=1 n=c#5 v=0
284202 On ch=1 n=f#4 v=0
284268 On ch=1 n=f#6 v=104
284271 On ch=1 n=f#5 v=97
284280 On ch=1 n=e5 v=80
284288 On ch=1 n=a#4 v=59
284348 On ch=1 n=e5 v=0
284456 On ch=1 n=a#4 v=0
284526 On ch=1 n=c#5 v=78
284544 On ch=1 n=f#4 v=65
284646 On ch=1 n=c#5 v=0
284740 On ch=1 n=a#4 v=67
284744 On ch=1 n=f#4 v=0
284762 On ch=1 n=e4 v=71
284780 On ch=1 n=a#4 v=0
284802 On ch=1 n=e4 v=0
285074 On ch=1 n=e3 v=106
285078 On ch=1 n=e2 v=94
285172 On ch=1 n=f#6 v=0
285191 On ch=1 n=e3 v=0
285198 On ch=1 n=e2 v=0
285314 On ch=1 n=f#6 v=48
285348 On ch=1 n=f#5 v=0
285362 On ch=1 n=g#6 v=82
285370 On ch=1 n=f#6 v=0
285426 On ch=1 n=f#6 v=87
285426 On ch=1 n=f#5 v=67
285429 On ch=1 n=e4 v=80
285439 On ch=1 n=a#4 v=54
285485 On ch=1 n=e4 v=0
285551 On ch=1 n=g#6 v=0
285599 On ch=1 n=a#4 v=0
285607 On ch=1 n=f#5 v=0
285619 On ch=1 n=f#6 v=0
285667 On ch=1 n=c#5 v=72
285679 On ch=1 n=f#4 v=70
285683 On ch=1 n=f6 v=88
285685 On ch=1 n=f5 v=84
285725 On ch=1 n=f5 v=0
285727 On ch=1 n=f6 v=0
285809 On ch=1 n=c#5 v=0
285833 On ch=1 n=f#5 v=88
285833 On ch=1 n=f#6 v=91
285927 On ch=1 n=f#5 v=0
285929 On ch=1 n=f#6 v=0
285979 On ch=1 n=e5 v=68
285979 On ch=1 n=a#4 v=57
285989 On ch=1 n=f#4 v=0
286001 On ch=1 n=g#5 v=83
286005 On ch=1 n=g#6 v=90
286043 On ch=1 n=g#6 v=0
286046 On ch=1 n=g#5 v=0
286097 On ch=1 n=e5 v=0
286139 On ch=1 n=a#6 v=91
286141 On ch=1 n=a#5 v=85
286207 On ch=1 n=a#6 v=0
286225 On ch=1 n=a#5 v=0
286251 On ch=1 n=a#4 v=0
286269 On ch=1 n=b5 v=100
286269 On ch=1 n=c#5 v=66
286272 On ch=1 n=b6 v=109
286293 On ch=1 n=f#4 v=56
286305 On ch=1 n=b6 v=0
286309 On ch=1 n=b5 v=0
286385 On ch=1 n=c#7 v=103
286387 On ch=1 n=c#6 v=94
286405 On ch=1 n=c#5 v=0
286459 On ch=1 n=c#6 v=0
286483 On ch=1 n=a#4 v=60
286486 On ch=1 n=c#7 v=0
286490 On ch=1 n=e4 v=65
286500 On ch=1 n=f#4 v=0
286510 On ch=1 n=d7 v=100
286510 On ch=1 n=d6 v=98
286524 On ch=1 n=a#4 v=0
286530 On ch=1 n=e4 v=0
286544 On ch=1 n=d6 v=0
286546 On ch=1 n=d7 v=0
286634 On ch=1 n=e7 v=103
286636 On ch=1 n=e6 v=91
286666 On ch=1 n=e7 v=0
286668 On ch=1 n=e6 v=0
286730 Par ch=1 c=64 v=0
286766 On ch=1 n=f#7 v=102
286769 On ch=1 n=f#6 v=102
286774 On ch=1 n=e3 v=108
286776 On ch=1 n=e4 v=97
286872 On ch=1 n=e4 v=0
286902 On ch=1 n=f#6 v=0
286912 On ch=1 n=e3 v=0
286912 On ch=1 n=f#7 v=0
286915 Par ch=1 c=64 v=127
287022 On ch=1 n=c5 v=89
287026 On ch=1 n=e4 v=98
287128 On ch=1 n=c5 v=0
287208 On ch=1 n=e4 v=0
287252 On ch=1 n=d#5 v=89
287254 On ch=1 n=g#4 v=71
287358 On ch=1 n=d#5 v=0
287502 On ch=1 n=f#5 v=74
287508 On ch=1 n=g#6 v=103
287514 On ch=1 n=g#5 v=96
287522 On ch=1 n=g#4 v=0
287532 On ch=1 n=c5 v=68
287656 On ch=1 n=f#5 v=0
287754 On ch=1 n=c5 v=0
287824 On ch=1 n=d#5 v=64
287824 On ch=1 n=g#4 v=55
287918 On ch=1 n=d#5 v=0
287962 On ch=1 n=g#5 v=0
287968 On ch=1 n=g#6 v=0
288042 On ch=1 n=g#4 v=0
288068 On ch=1 n=c5 v=76
288078 On ch=1 n=g#6 v=97
288081 On ch=1 n=g#5 v=100
288090 On ch=1 n=e4 v=70
288108 On ch=1 n=c5 v=0
288130 On ch=1 n=e4 v=0
288204 On ch=1 n=g#5 v=0
288392 On ch=1 n=g#5 v=103
288408 On ch=1 n=e2 v=85
288416 On ch=1 n=e3 v=74
288470 On ch=1 n=g#6 v=0
288528 On ch=1 n=e2 v=0
288538 On ch=1 n=e3 v=0
288578 On ch=1 n=g#6 v=79
288738 On ch=1 n=c5 v=84
288738 On ch=1 n=a6 v=94
288744 On ch=1 n=g#5 v=0
288744 On ch=1 n=e4 v=92
288774 On ch=1 n=g#6 v=0
288818 On ch=1 n=c5 v=0
288842 On ch=1 n=g#6 v=81
288846 On ch=1 n=g#5 v=78
288898 On ch=1 n=a6 v=0
288930 On ch=1 n=g#6 v=0
288946 On ch=1 n=g#5 v=0
288984 On ch=1 n=g6 v=98
288986 On ch=1 n=g5 v=87
288996 On ch=1 n=d#5 v=78
289006 On ch=1 n=g#4 v=59
289018 On ch=1 n=e4 v=0
289030 On ch=1 n=g5 v=0
289052 On ch=1 n=g6 v=0
289098 On ch=1 n=d#5 v=0
289108 On ch=1 n=g#6 v=95
289112 On ch=1 n=g#5 v=92
289198 On ch=1 n=g#6 v=0
289201 On ch=1 n=g#5 v=0
289244 On ch=1 n=f#5 v=65
289264 On ch=1 n=a#6 v=95
289267 On ch=1 n=a#5 v=86
289282 On ch=1 n=c5 v=61
289326 On ch=1 n=g#4 v=0
289344 On ch=1 n=a#5 v=0
289364 On ch=1 n=f#5 v=0
289378 On ch=1 n=a#6 v=0
289404 On ch=1 n=c7 v=100
289408 On ch=1 n=c6 v=84
289436 On ch=1 n=c7 v=0
289444 On ch=1 n=c6 v=0
289468 On ch=1 n=c5 v=0
289532 On ch=1 n=c#6 v=96
289532 On ch=1 n=c#7 v=92
289535 On ch=1 n=d#5 v=73
289550 On ch=1 n=g#4 v=54
289578 On ch=1 n=c#6 v=0
289581 On ch=1 n=c#7 v=0
289598 On ch=1 n=d#5 v=0
289652 On ch=1 n=d#7 v=91
289660 On ch=1 n=d#6 v=84
289708 On ch=1 n=d#6 v=0
289750 On ch=1 n=d#7 v=0
289756 On ch=1 n=g#4 v=0
289768 On ch=1 n=e4 v=71
289776 On ch=1 n=c5 v=60
289784 On ch=1 n=e7 v=99
289784 On ch=1 n=e6 v=86
289818 On ch=1 n=e7 v=0
289824 On ch=1 n=c5 v=0
289826 On ch=1 n=e6 v=0
289842 On ch=1 n=e4 v=0
289916 On ch=1 n=f#6 v=96
289922 On ch=1 n=f#7 v=100
290014 On ch=1 n=f#6 v=0
290060 On ch=1 n=f#7 v=0
290063 Par ch=1 c=64 v=0
290120 On ch=1 n=e4 v=101
290122 On ch=1 n=e3 v=108
290122 On ch=1 n=g#7 v=103
290124 On ch=1 n=g#6 v=98
290278 On ch=1 n=e4 v=0
290280 Par ch=1 c=64 v=127
290296 On ch=1 n=e3 v=0
290380 On ch=1 n=e4 v=89
290390 On ch=1 n=c#5 v=72
290402 On ch=1 n=g#6 v=0
290414 On ch=1 n=g#7 v=0
290490 On ch=1 n=c#5 v=0
290566 On ch=1 n=e4 v=0
290606 On ch=1 n=e5 v=84
290612 On ch=1 n=g#4 v=78
290640 On ch=1 n=e5 v=0
290692 On ch=1 n=g#4 v=0
290772 Par ch=1 c=64 v=0
290808 On ch=1 n=g#6 v=97
290810 On ch=1 n=g#5 v=93
290824 On ch=1 n=d#4 v=88
290827 On ch=1 n=d#3 v=88
290928 On ch=1 n=d#4 v=0
290946 On ch=1 n=d#3 v=0
290956 Par ch=1 c=64 v=127
291072 On ch=1 n=d#4 v=79
291078 On ch=1 n=a#4 v=18
291080 On ch=1 n=b4 v=83
291102 On ch=1 n=g#5 v=0
291124 On ch=1 n=g#6 v=0
291152 On ch=1 n=b4 v=0
291154 On ch=1 n=a#4 v=0
291214 On ch=1 n=d#4 v=0
291246 On ch=1 n=g#5 v=93
291254 On ch=1 n=g#6 v=91
291272 On ch=1 n=d#5 v=81
291284 On ch=1 n=g#4 v=66
291304 On ch=1 n=g#6 v=0
291310 On ch=1 n=d#5 v=0
291330 On ch=1 n=g#4 v=0
291358 On ch=1 n=g#5 v=0
291394 On ch=1 n=g#6 v=67
291452 On ch=1 n=a#6 v=69
291486 On ch=1 n=g#6 v=0
291540 Par ch=1 c=64 v=0
291546 On ch=1 n=g#6 v=82
291554 On ch=1 n=g#5 v=101
291560 On ch=1 n=c#4 v=93
291574 On ch=1 n=c#3 v=94
291608 On ch=1 n=a#6 v=0
291672 On ch=1 n=c#4 v=0
291708 Par ch=1 c=64 v=127
291710 On ch=1 n=c#3 v=0
291720 On ch=1 n=g#5 v=0
291730 On ch=1 n=g#6 v=0
291822 On ch=1 n=g5 v=87
291822 On ch=1 n=g6 v=90
291825 On ch=1 n=c#4 v=67
291835 On ch=1 n=g#4 v=63
291855 On ch=1 n=g6 v=0
291855 On ch=1 n=g5 v=0
291901 On ch=1 n=g#4 v=0
291907 On ch=1 n=c#4 v=0
291937 On ch=1 n=g#5 v=86
291941 On ch=1 n=g#6 v=88
291997 On ch=1 n=g#5 v=0
292007 On ch=1 n=g#6 v=0
292059 On ch=1 n=c#5 v=77
292077 On ch=1 n=e4 v=79
292087 On ch=1 n=a#6 v=89
292089 On ch=1 n=a#5 v=83
292109 On ch=1 n=c#5 v=0
292126 On ch=1 n=e4 v=0
292167 On ch=1 n=a#6 v=0
292175 On ch=1 n=a#5 v=0
292219 On ch=1 n=b6 v=107
292222 On ch=1 n=b5 v=89
292259 On ch=1 n=b5 v=0
292261 On ch=1 n=b6 v=0
292335 Par ch=1 c=64 v=0
292357 On ch=1 n=g#3 v=101
292361 On ch=1 n=g#2 v=89
292365 On ch=1 n=c#6 v=94
292369 On ch=1 n=c#7 v=93
292421 On ch=1 n=c#6 v=0
292443 On ch=1 n=c#7 v=0
292473 Par ch=1 c=64 v=127
292485 On ch=1 n=g#3 v=0
292487 On ch=1 n=g#2 v=0
292495 On ch=1 n=d#7 v=90
292501 On ch=1 n=d#6 v=81
292559 On ch=1 n=d#6 v=0
292575 On ch=1 n=d#7 v=0
292603 On ch=1 n=g#4 v=91
292631 On ch=1 n=f7 v=95
292633 On ch=1 n=f6 v=89
292633 On ch=1 n=b3 v=35
292665 On ch=1 n=f6 v=0
292665 On ch=1 n=f7 v=0
292701 On ch=1 n=b3 v=0
292713 On ch=1 n=g#4 v=0
292757 On ch=1 n=g7 v=105
292757 On ch=1 n=g6 v=105
292803 On ch=1 n=g6 v=0
292809 On ch=1 n=g7 v=0
292869 On ch=1 n=b4 v=81
292877 On ch=1 n=d#4 v=83
292885 On ch=1 n=g#6 v=92
292888 On ch=1 n=g#7 v=89
292905 On ch=1 n=b4 v=0
292940 On ch=1 n=g#6 v=0
292951 On ch=1 n=d#4 v=0
293007 On ch=1 n=g#7 v=0
293021 On ch=1 n=a#7 v=95
293024 On ch=1 n=a#6 v=85
293171 On ch=1 n=a#6 v=0
293179 On ch=1 n=a#7 v=0
293237 On ch=1 n=b7 v=105
293240 On ch=1 n=b6 v=119
293240 On ch=1 n=f3 v=108
293240 On ch=1 n=f2 v=113
293303 Par ch=1 c=64 v=0
293463 On ch=1 n=f2 v=0
293525 On ch=1 n=f3 v=0
293528 On ch=1 n=b7 v=0
293535 Par ch=1 c=64 v=127
293585 On ch=1 n=b6 v=0
293617 On ch=1 n=g#7 v=87
293623 On ch=1 n=b7 v=75
293733 On ch=1 n=f7 v=81
293785 On ch=1 n=b7 v=0
293790 On ch=1 n=f4 v=102
293851 On ch=1 n=b4 v=80
293851 On ch=1 n=d#7 v=80
293887 On ch=1 n=g#7 v=0
293890 On ch=1 n=f4 v=0
293933 On ch=1 n=f7 v=0
293935 On ch=1 n=b6 v=103
293939 On ch=1 n=d#5 v=84
293967 On ch=1 n=b6 v=0
293969 On ch=1 n=d#7 v=0
294019 On ch=1 n=g#5 v=105
294022 On ch=1 n=b4 v=0
294025 On ch=1 n=b6 v=100
294041 On ch=1 n=g#6 v=87
294081 On ch=1 n=d#5 v=0
294117 On ch=1 n=g#5 v=0
294129 On ch=1 n=f6 v=89
294169 On ch=1 n=b6 v=0
294215 On ch=1 n=d#6 v=79
294243 On ch=1 n=g#6 v=0
294281 On ch=1 n=f6 v=0
294295 On ch=1 n=b5 v=84
294299 On ch=1 n=d#6 v=0
294335 On ch=1 n=b5 v=0
294389 On ch=1 n=b5 v=73
294403 On ch=1 n=g#5 v=80
294457 On ch=1 n=f5 v=59
294461 On ch=1 n=b5 v=0
294559 On ch=1 n=d#5 v=81
294565 On ch=1 n=g#5 v=0
294613 On ch=1 n=f5 v=0
294647 On ch=1 n=d#5 v=0
294653 On ch=1 n=b4 v=73
294691 On ch=1 n=b4 v=0
294747 On ch=1 n=g#4 v=77
294815 On ch=1 n=f4 v=83
294827 On ch=1 n=f#4 v=27
294891 On ch=1 n=g#4 v=0
294907 On ch=1 n=d#4 v=84
294939 On ch=1 n=f4 v=0
294941 On ch=1 n=f#4 v=0
295001 On ch=1 n=b3 v=73
295039 On ch=1 n=d#4 v=0
295063 On ch=1 n=b3 v=0
295107 On ch=1 n=g#4 v=82
295119 On ch=1 n=b4 v=89
295185 On ch=1 n=f4 v=78
295219 On ch=1 n=b4 v=0
295267 On ch=1 n=d#4 v=73
295283 On ch=1 n=g#4 v=0
295319 On ch=1 n=f4 v=0
295319 On ch=1 n=b3 v=55
295371 On ch=1 n=b3 v=0
295374 On ch=1 n=d#4 v=0
295435 On ch=1 n=b4 v=65
295447 On ch=1 n=g#4 v=50
295509 On ch=1 n=b4 v=0
295537 On ch=1 n=g#4 v=0
295551 On ch=1 n=f4 v=76
295609 Par ch=1 c=64 v=0
295637 On ch=1 n=f4 v=0
295643 On ch=1 n=a#4 v=73
295657 On ch=1 n=a#2 v=88
295743 On ch=1 n=g#4 v=70
295783 On ch=1 n=a#2 v=0
295786 On ch=1 n=a#4 v=0
295793 Par ch=1 c=64 v=127
295851 On ch=1 n=b4 v=57
295865 On ch=1 n=g#4 v=0
295865 On ch=1 n=d4 v=74
295927 On ch=1 n=f4 v=85
295939 On ch=1 n=d4 v=0
295969 On ch=1 n=b4 v=0
295977 Par ch=1 c=64 v=0
296019 On ch=1 n=a#4 v=47
296047 On ch=1 n=f4 v=0
296109 On ch=1 n=g#4 v=61
296139 On ch=1 n=a#4 v=0
296209 On ch=1 n=a#2 v=67
296211 On ch=1 n=b4 v=78
296241 On ch=1 n=g#4 v=0
296261 On ch=1 n=a#2 v=0
296299 On ch=1 n=f4 v=83
296299 Par ch=1 c=64 v=127
296337 On ch=1 n=b4 v=0
296371 On ch=1 n=f4 v=0
296385 On ch=1 n=a#4 v=57
296385 On ch=1 n=d4 v=65
296439 Par ch=1 c=64 v=0
296471 On ch=1 n=g#4 v=61
296477 On ch=1 n=d4 v=0
296501 On ch=1 n=a#4 v=0
296569 On ch=1 n=b4 v=72
296601 On ch=1 n=g#4 v=0
296655 On ch=1 n=f4 v=76
296683 On ch=1 n=b4 v=0
296735 On ch=1 n=f4 v=0
296741 On ch=1 n=a#2 v=65
296749 On ch=1 n=a#4 v=45
296799 On ch=1 n=a#2 v=0
296803 On ch=1 n=g#4 v=60
296833 On ch=1 n=a#4 v=0
296837 Par ch=1 c=64 v=127
296909 On ch=1 n=d4 v=61
296911 On ch=1 n=b4 v=61
296925 On ch=1 n=g#4 v=0
296985 On ch=1 n=f4 v=72
296991 Par ch=1 c=64 v=0
297009 On ch=1 n=d4 v=0
297033 On ch=1 n=b4 v=0
297059 On ch=1 n=f4 v=0
297071 On ch=1 n=a#4 v=44
297155 On ch=1 n=g#4 v=56
297175 On ch=1 n=a#4 v=0
297247 On ch=1 n=a#2 v=67
297253 On ch=1 n=b4 v=61
297267 On ch=1 n=g#4 v=0
297307 On ch=1 n=a#2 v=0
297335 On ch=1 n=f4 v=74
297345 Par ch=1 c=64 v=127
297369 On ch=1 n=b4 v=0
297399 On ch=1 n=f4 v=0
297401 On ch=1 n=a#4 v=44
297413 On ch=1 n=d4 v=67
297461 On ch=1 n=d4 v=0
297489 On ch=1 n=g#4 v=55
297515 Par ch=1 c=64 v=0
297523 On ch=1 n=a#4 v=0
297591 On ch=1 n=b4 v=55
297629 On ch=1 n=g#4 v=0
297657 On ch=1 n=f4 v=80
297711 On ch=1 n=b4 v=0
297714 On ch=1 n=f4 v=0
297753 On ch=1 n=d4 v=75
297761 On ch=1 n=a#4 v=56
297795 On ch=1 n=d4 v=0
297863 On ch=1 n=g#4 v=55
297866 Par ch=1 c=64 v=127
297893 On ch=1 n=a#4 v=0
297939 On ch=1 n=f5 v=55
297955 On ch=1 n=b4 v=57
297985 On ch=1 n=f5 v=0
297985 On ch=1 n=g#4 v=0
298037 On ch=1 n=f4 v=59
298051 On ch=1 n=b4 v=0
298067 Par ch=1 c=64 v=0
298105 On ch=1 n=f4 v=0
298108 On ch=1 n=a#4 v=46
298197 On ch=1 n=g#4 v=62
298225 On ch=1 n=a#4 v=0
298281 On ch=1 n=d4 v=69
298305 On ch=1 n=b4 v=61
298327 On ch=1 n=g#4 v=0
298331 On ch=1 n=d4 v=0
298367 On ch=1 n=f4 v=80
298405 Par ch=1 c=64 v=127
298447 On ch=1 n=b4 v=0
298453 On ch=1 n=a#4 v=48
298481 On ch=1 n=f5 v=47
298503 On ch=1 n=f4 v=0
298529 On ch=1 n=f5 v=0
298553 On ch=1 n=g#4 v=52
298599 On ch=1 n=a#4 v=0
298605 Par ch=1 c=64 v=0
298645 On ch=1 n=b4 v=64
298689 On ch=1 n=g#4 v=0
298717 On ch=1 n=f4 v=76
298761 On ch=1 n=b4 v=0
298767 On ch=1 n=f4 v=0
298801 On ch=1 n=d4 v=70
298804 On ch=1 n=a#4 v=65
298849 On ch=1 n=d4 v=0
298895 On ch=1 n=g#4 v=64
298895 Par ch=1 c=64 v=127
298953 On ch=1 n=a#4 v=0
298987 On ch=1 n=b4 v=60
298987 On ch=1 n=f5 v=57
299007 On ch=1 n=g#4 v=0
299035 On ch=1 n=f5 v=0
299053 On ch=1 n=f4 v=65
299081 Par ch=1 c=64 v=0
299105 On ch=1 n=b4 v=0
299117 On ch=1 n=f4 v=0
299125 On ch=1 n=a#4 v=52
299223 On ch=1 n=g#4 v=53
299239 On ch=1 n=a#4 v=0
299303 On ch=1 n=d4 v=55
299317 On ch=1 n=g#4 v=0
299320 On ch=1 n=b4 v=50
299353 On ch=1 n=d4 v=0
299391 On ch=1 n=f4 v=63
299403 Par ch=1 c=64 v=127
299409 On ch=1 n=b4 v=0
299455 On ch=1 n=f4 v=0
299455 On ch=1 n=a#4 v=32
299477 On ch=1 n=f5 v=45
299525 On ch=1 n=f5 v=0
299537 On ch=1 n=g#4 v=57
299555 On ch=1 n=a#4 v=0
299589 Par ch=1 c=64 v=0
299635 On ch=1 n=f4 v=77
299687 On ch=1 n=g#4 v=0
299715 On ch=1 n=b4 v=52
299737 On ch=1 n=f4 v=0
299795 On ch=1 n=a#4 v=62
299803 On ch=1 n=a#2 v=60
299839 On ch=1 n=b4 v=0
299875 On ch=1 n=a#4 v=0
299911 Par ch=1 c=64 v=127
299945 On ch=1 n=a#2 v=0
299967 On ch=1 n=a#4 v=49
300051 On ch=1 n=d5 v=64
300069 On ch=1 n=a#4 v=0
300101 On ch=1 n=d5 v=0
300141 On ch=1 n=b4 v=54
300191 On ch=1 n=b4 v=0
300205 On ch=1 n=d5 v=54
300279 Par ch=1 c=64 v=0
300283 On ch=1 n=d5 v=0
300291 On ch=1 n=g#4 v=46
300293 On ch=1 n=c#5 v=70
300307 On ch=1 n=f4 v=64
300310 On ch=1 n=a#3 v=34
300377 On ch=1 n=f4 v=0
300377 On ch=1 n=f5 v=61
300387 Par ch=1 c=64 v=127
300405 On ch=1 n=c#5 v=0
300419 On ch=1 n=f5 v=0
300441 On ch=1 n=a#3 v=0
300475 On ch=1 n=g#4 v=0
300485 On ch=1 n=d5 v=53
300535 On ch=1 n=d5 v=0
300537 On ch=1 n=g#5 v=69
300597 On ch=1 n=g#5 v=0
300647 On ch=1 n=e5 v=67
300693 On ch=1 n=e5 v=0
300725 On ch=1 n=g#5 v=68
300741 Par ch=1 c=64 v=0
300777 On ch=1 n=d5 v=54
300781 On ch=1 n=g#4 v=50
300807 On ch=1 n=f4 v=51
300819 On ch=1 n=f5 v=71
300853 On ch=1 n=g#5 v=0
300875 On ch=1 n=f5 v=0
300883 On ch=1 n=b5 v=70
300885 On ch=1 n=f4 v=0
300895 Par ch=1 c=64 v=127
300901 On ch=1 n=g#4 v=0
300909 On ch=1 n=d5 v=0
300925 On ch=1 n=b5 v=0
300979 On ch=1 n=g5 v=74
301039 On ch=1 n=g5 v=0
301055 On ch=1 n=b5 v=52
301117 On ch=1 n=g#5 v=79
301119 On ch=1 n=b5 v=0
301207 On ch=1 n=d6 v=74
301213 On ch=1 n=g#5 v=0
301243 On ch=1 n=d6 v=0
301257 On ch=1 n=f5 v=44
301267 On ch=1 n=g#4 v=39
301273 On ch=1 n=d5 v=43
301291 On ch=1 n=a#5 v=76
301341 On ch=1 n=d5 v=0
301365 On ch=1 n=d6 v=60
301377 On ch=1 n=f5 v=0
301399 On ch=1 n=a#5 v=0
301407 On ch=1 n=d6 v=0
301415 On ch=1 n=g#4 v=0
301453 On ch=1 n=b5 v=84
301505 On ch=1 n=b5 v=0
301523 On ch=1 n=d6 v=59
301583 On ch=1 n=d6 v=0
301617 On ch=1 n=c#6 v=75
301699 On ch=1 n=c#6 v=0
301702 On ch=1 n=f6 v=62
301725 Par ch=1 c=64 v=0
301741 On ch=1 n=f6 v=0
301767 On ch=1 n=g#5 v=48
301783 On ch=1 n=d6 v=81
301787 On ch=1 n=f5 v=38
301787 On ch=1 n=a#4 v=27
301827 On ch=1 n=d6 v=0
301857 On ch=1 n=g#6 v=68
301877 Par ch=1 c=64 v=127
301879 On ch=1 n=a#4 v=0
301881 On ch=1 n=f5 v=0
301903 On ch=1 n=g#6 v=0
301913 On ch=1 n=g#5 v=0
301947 On ch=1 n=e6 v=64
301997 On ch=1 n=e6 v=0
302029 On ch=1 n=g#6 v=69
302115 On ch=1 n=f6 v=69
302143 On ch=1 n=g#6 v=0
302157 On ch=1 n=f6 v=0
302163 On ch=1 n=b6 v=90
302201 On ch=1 n=b6 v=0
302253 On ch=1 n=g6 v=84
302267 On ch=1 n=d6 v=57
302273 On ch=1 n=g#5 v=41
302297 On ch=1 n=f5 v=28
302327 On ch=1 n=b6 v=76
302329 On ch=1 n=d6 v=0
302335 On ch=1 n=g6 v=0
302341 On ch=1 n=g#5 v=0
302357 On ch=1 n=f5 v=0
302391 On ch=1 n=b6 v=0
302403 On ch=1 n=g#6 v=79
302491 On ch=1 n=d7 v=52
302494 On ch=1 n=g#6 v=0
302539 On ch=1 n=d7 v=0
302569 On ch=1 n=a#6 v=80
302643 On ch=1 n=d7 v=44
302693 On ch=1 n=a#6 v=0
302701 On ch=1 n=d7 v=0
302707 Par ch=1 c=64 v=0
302731 On ch=1 n=f6 v=54
302740 On ch=1 n=g#5 v=42
302740 On ch=1 n=b6 v=103
302765 On ch=1 n=d6 v=42
302779 On ch=1 n=b6 v=0
302829 On ch=1 n=d6 v=0
302829 On ch=1 n=d7 v=49
302877 Par ch=1 c=64 v=127
302895 On ch=1 n=g#5 v=0
302900 On ch=1 n=d7 v=0
302905 On ch=1 n=f6 v=0
302905 On ch=1 n=c#7 v=79
302993 On ch=1 n=f7 v=50
303001 On ch=1 n=c#7 v=0
303047 On ch=1 n=f7 v=0
303063 On ch=1 n=d7 v=75
303105 On ch=1 n=d7 v=0
303139 On ch=1 n=g#7 v=55
303187 On ch=1 n=g#7 v=0
303217 On ch=1 n=e7 v=76
303227 On ch=1 n=g#6 v=49
303247 On ch=1 n=f6 v=39
303259 On ch=1 n=a#5 v=23
303299 On ch=1 n=f6 v=0
303299 On ch=1 n=g#7 v=57
303311 On ch=1 n=g#6 v=0
303313 On ch=1 n=e7 v=0
303329 On ch=1 n=a#5 v=0
303397 On ch=1 n=f7 v=68
303417 On ch=1 n=g#7 v=0
303459 On ch=1 n=f7 v=0
303465 On ch=1 n=b7 v=67
303523 On ch=1 n=b7 v=0
303571 On ch=1 n=g7 v=65
303625 On ch=1 n=g7 v=0
303661 On ch=1 n=b7 v=35
303721 On ch=1 n=a#7 v=55
303724 On ch=1 n=b7 v=0
303734 On ch=1 n=d7 v=89
303744 On ch=1 n=g#6 v=66
303746 On ch=1 n=f6 v=75
303780 Par ch=1 c=64 v=0
303800 On ch=1 n=g#7 v=61
303806 On ch=1 n=a#7 v=0
303888 On ch=1 n=b7 v=61
303896 On ch=1 n=g#7 v=0
303950 On ch=1 n=b7 v=0
303970 On ch=1 n=f7 v=46
304026 Par ch=1 c=64 v=127
304032 On ch=1 n=f7 v=0
304056 On ch=1 n=a#7 v=62
304124 On ch=1 n=a#7 v=0
304146 On ch=1 n=g#7 v=46
304208 On ch=1 n=g#7 v=0
304232 On ch=1 n=c8 v=76
304292 On ch=1 n=c8 v=0
304344 On ch=1 n=f7 v=17
304402 On ch=1 n=a#7 v=41
304405 On ch=1 n=f7 v=0
304458 On ch=1 n=a#7 v=0
304460 On ch=1 n=g#7 v=52
304516 On ch=1 n=g#7 v=0
304560 On ch=1 n=c#8 v=55
304614 On ch=1 n=c#8 v=0
304646 On ch=1 n=f7 v=53
304704 On ch=1 n=f7 v=0
304742 On ch=1 n=a#7 v=59
304808 On ch=1 n=a#7 v=0
304826 On ch=1 n=g#7 v=61
304900 On ch=1 n=g#7 v=0
304920 On ch=1 n=d8 v=72
304978 On ch=1 n=d8 v=0
304992 On ch=1 n=f7 v=62
305028 On ch=1 n=f6 v=0
305054 On ch=1 n=f7 v=0
305076 On ch=1 n=a#7 v=55
305084 On ch=1 n=d7 v=0
305102 On ch=1 n=g#6 v=0
305154 On ch=1 n=g#7 v=52
305204 On ch=1 n=a#7 v=0
305222 On ch=1 n=c7 v=83
305238 On ch=1 n=d#8 v=70
305240 On ch=1 n=d#6 v=42
305250 On ch=1 n=g#7 v=0
305270 On ch=1 n=g#6 v=32
305302 Par ch=1 c=64 v=0
305330 On ch=1 n=f7 v=58
305374 On ch=1 n=d#8 v=0
305428 On ch=1 n=a#7 v=64
305452 On ch=1 n=f7 v=0
305486 Par ch=1 c=64 v=127
305522 On ch=1 n=g#7 v=62
305552 On ch=1 n=a#7 v=0
305628 On ch=1 n=e8 v=65
305632 On ch=1 n=g#7 v=0
305646 On ch=1 n=d#6 v=0
305646 On ch=1 n=c7 v=0
305664 On ch=1 n=g#6 v=0
305674 On ch=1 n=e8 v=0
305708 On ch=1 n=f7 v=64
305762 On ch=1 n=f7 v=0
305824 Par ch=1 c=64 v=0
305836 On ch=1 n=g#6 v=39
305838 On ch=1 n=c7 v=64
305846 On ch=1 n=f8 v=64
305858 On ch=1 n=d#6 v=41
305970 On ch=1 n=d8 v=61
305996 On ch=1 n=f8 v=0
306026 On ch=1 n=d8 v=0
306064 On ch=1 n=c#8 v=52
306084 Par ch=1 c=64 v=127
306112 On ch=1 n=c#8 v=0
306180 On ch=1 n=e8 v=44
306204 On ch=1 n=g#6 v=0
306244 On ch=1 n=e8 v=0
306260 On ch=1 n=d#6 v=0
306262 On ch=1 n=c7 v=0
306290 On ch=1 n=d#8 v=50
306364 On ch=1 n=d#8 v=0
306398 On ch=1 n=c8 v=50
306450 On ch=1 n=c8 v=0
306510 On ch=1 n=b7 v=48
306515 On ch=1 n=a#6 v=35
306520 On ch=1 n=g#6 v=32
306530 Par ch=1 c=64 v=0
306540 On ch=1 n=d6 v=39
306568 On ch=1 n=b7 v=0
306622 On ch=1 n=d8 v=52
306722 On ch=1 n=c#8 v=42
306754 On ch=1 n=d8 v=0
306806 Par ch=1 c=64 v=127
306812 On ch=1 n=a#7 v=47
306838 Par ch=1 c=64 v=0
306874 On ch=1 n=c#8 v=0
306924 On ch=1 n=a#7 v=0
306927 On ch=1 n=a7 v=46
306986 On ch=1 n=a7 v=0
307022 On ch=1 n=c8 v=48
307118 On ch=1 n=c8 v=0
307126 On ch=1 n=b7 v=44
307140 On ch=1 n=a#6 v=0
307142 On ch=1 n=g#6 v=0
307158 On ch=1 n=d6 v=0
307188 On ch=1 n=b7 v=0
307214 On ch=1 n=g#7 v=44
307222 Par ch=1 c=64 v=127
307294 On ch=1 n=g#7 v=0
307334 On ch=1 n=g7 v=38
307390 Par ch=1 c=64 v=0
307398 On ch=1 n=g7 v=0
307416 On ch=1 n=a#7 v=41
307526 On ch=1 n=g#7 v=37
307564 On ch=1 n=a#7 v=0
307620 On ch=1 n=f7 v=48
307628 On ch=1 n=g#7 v=0
307674 On ch=1 n=f7 v=0
307722 On ch=1 n=d7 v=54
307824 On ch=1 n=a#6 v=55
307842 On ch=1 n=d7 v=0
307932 On ch=1 n=a6 v=66
307936 On ch=1 n=a#6 v=0
307988 On ch=1 n=a6 v=0
308020 On ch=1 n=a#6 v=52
308150 On ch=1 n=g#6 v=69
308162 On ch=1 n=a#6 v=0
308270 On ch=1 n=a#6 v=44
308290 On ch=1 n=g#6 v=0
308414 On ch=1 n=d#4 v=45
308422 On ch=1 n=f#6 v=52
308444 On ch=1 n=a#6 v=0
308470 On ch=1 n=d#4 v=0
308512 Par ch=1 c=64 v=127
308554 On ch=1 n=f#6 v=0
308564 On ch=1 n=g6 v=60
308682 On ch=1 n=g6 v=0
308716 On ch=1 n=g7 v=52
308722 On ch=1 n=c6 v=40
308732 On ch=1 n=g5 v=37
308740 On ch=1 n=d#5 v=36
308804 On ch=1 n=d#5 v=0
308807 On ch=1 n=g5 v=0
308828 On ch=1 n=c6 v=0
308834 On ch=1 n=d7 v=46
308866 On ch=1 n=g7 v=0
308866 Par ch=1 c=64 v=0
308930 On ch=1 n=d7 v=0
308934 On ch=1 n=a#5 v=48
308954 On ch=1 n=d#7 v=52
308986 On ch=1 n=a#5 v=0
309038 On ch=1 n=d#7 v=0
309058 On ch=1 n=b6 v=84
309178 On ch=1 n=a#3 v=53
309182 On ch=1 n=c7 v=74
309190 On ch=1 n=b6 v=0
309236 On ch=1 n=a#3 v=0
309250 Par ch=1 c=64 v=127
309296 On ch=1 n=g6 v=57
309332 On ch=1 n=c7 v=0
309426 On ch=1 n=a#6 v=56
309434 On ch=1 n=g6 v=0
309452 On ch=1 n=g#5 v=65
309476 On ch=1 n=a4 v=29
309492 On ch=1 n=d5 v=26
309530 On ch=1 n=g#6 v=67
309554 On ch=1 n=a4 v=0
309600 On ch=1 n=a#6 v=0
309622 Par ch=1 c=64 v=0
309630 On ch=1 n=g#5 v=0
309646 On ch=1 n=g6 v=78
309678 On ch=1 n=a#4 v=50
309688 On ch=1 n=d5 v=0
309690 On ch=1 n=g#6 v=0
309730 On ch=1 n=a#4 v=0
309734 On ch=1 n=g6 v=0
309740 On ch=1 n=f6 v=62
309808 On ch=1 n=f6 v=0
309860 On ch=1 n=d#4 v=70
309860 On ch=1 n=f#6 v=68
309900 On ch=1 n=d#4 v=0
309962 On ch=1 n=g6 v=80
309970 On ch=1 n=f#6 v=0
309972 Par ch=1 c=64 v=127
310022 On ch=1 n=g6 v=0
310079 On ch=1 n=c6 v=55
310082 On ch=1 n=g7 v=75
310092 On ch=1 n=d#5 v=46
310104 On ch=1 n=g5 v=35
310174 On ch=1 n=g5 v=0
310184 On ch=1 n=c6 v=0
310200 On ch=1 n=d#5 v=0
310203 On ch=1 n=d7 v=57
310226 On ch=1 n=g7 v=0
310276 On ch=1 n=a#5 v=49
310294 Par ch=1 c=64 v=0
310296 On ch=1 n=d7 v=0
310300 On ch=1 n=d#7 v=64
310328 On ch=1 n=a#5 v=0
310366 On ch=1 n=d#7 v=0
310400 On ch=1 n=b6 v=80
310460 On ch=1 n=b6 v=0
310472 On ch=1 n=a#3 v=77
310494 On ch=1 n=c7 v=84
310518 On ch=1 n=a#3 v=0
310586 Par ch=1 c=64 v=127
310612 On ch=1 n=g6 v=69
310646 On ch=1 n=c7 v=0
310704 On ch=1 n=a#6 v=68
310704 On ch=1 n=g#5 v=70
310716 On ch=1 n=a4 v=56
310726 On ch=1 n=g6 v=0
310760 On ch=1 n=d5 v=18
310790 On ch=1 n=g#6 v=72
310828 On ch=1 n=a4 v=0
310846 On ch=1 n=g#5 v=0
310854 On ch=1 n=d5 v=0
310858 On ch=1 n=a#6 v=0
310893 Par ch=1 c=64 v=0
310896 On ch=1 n=g6 v=78
310906 On ch=1 n=a#4 v=56
310944 On ch=1 n=g#6 v=0
310962 On ch=1 n=a#4 v=0
310978 On ch=1 n=g6 v=0
310980 On ch=1 n=f6 v=74
311046 On ch=1 n=f6 v=0
311086 On ch=1 n=f#6 v=83
311089 On ch=1 n=d#4 v=75
311134 On ch=1 n=d#4 v=0
311186 On ch=1 n=g6 v=88
311198 On ch=1 n=f#6 v=0
311202 Par ch=1 c=64 v=127
311242 On ch=1 n=g6 v=0
311284 On ch=1 n=g#5 v=69
311290 On ch=1 n=g7 v=92
311310 On ch=1 n=d#5 v=54
311324 On ch=1 n=a#4 v=27
311366 On ch=1 n=g#5 v=0
311394 On ch=1 n=d7 v=71
311402 On ch=1 n=a#4 v=0
311468 On ch=1 n=g7 v=0
311484 On ch=1 n=g5 v=74
311492 On ch=1 n=d#7 v=70
311518 On ch=1 n=d7 v=0
311526 On ch=1 n=g5 v=0
311538 On ch=1 n=d#5 v=0
311554 Par ch=1 c=64 v=0
311582 On ch=1 n=b6 v=93
311600 On ch=1 n=d#7 v=0
311686 On ch=1 n=c7 v=88
311690 On ch=1 n=g#3 v=86
311707 On ch=1 n=b6 v=0
311738 On ch=1 n=g#3 v=0
311770 Par ch=1 c=64 v=127
311800 On ch=1 n=g6 v=84
311864 On ch=1 n=c7 v=0
311898 On ch=1 n=a#6 v=67
311904 On ch=1 n=g5 v=76
311914 On ch=1 n=g#4 v=47
311916 On ch=1 n=c5 v=61
311928 On ch=1 n=g6 v=0
312002 On ch=1 n=g#6 v=67
312024 On ch=1 n=g5 v=0
312048 On ch=1 n=g#4 v=0
312084 On ch=1 n=a#6 v=0
312114 On ch=1 n=g6 v=83
312120 On ch=1 n=f5 v=48
312166 On ch=1 n=g#6 v=0
312169 On ch=1 n=f5 v=0
312176 On ch=1 n=c5 v=0
312220 On ch=1 n=g6 v=0
312226 On ch=1 n=f6 v=73
312232 Par ch=1 c=64 v=0
312346 On ch=1 n=a#3 v=48
312390 On ch=1 n=d#6 v=73
312414 On ch=1 n=f6 v=0
312480 On ch=1 n=a#3 v=0
312506 Par ch=1 c=64 v=127
312532 On ch=1 n=g#6 v=59
312622 On ch=1 n=d#5 v=49
312644 On ch=1 n=g#4 v=29
312658 On ch=1 n=f6 v=54
312676 On ch=1 n=g#6 v=0
312690 On ch=1 n=d#5 v=0
312718 On ch=1 n=f6 v=0
312728 On ch=1 n=d#6 v=0
312744 On ch=1 n=d6 v=68
312756 On ch=1 n=g#4 v=0
312858 On ch=1 n=g#4 v=15
312861 On ch=1 n=d5 v=27
312861 On ch=1 n=g#6 v=59
312924 On ch=1 n=g#4 v=0
312930 On ch=1 n=d5 v=0
312968 Par ch=1 c=64 v=0
312992 On ch=1 n=f6 v=48
313068 On ch=1 n=g#6 v=0
313076 On ch=1 n=d6 v=0
313076 On ch=1 n=a#3 v=48
313078 On ch=1 n=c6 v=65
313116 On ch=1 n=f6 v=0
313152 Par ch=1 c=64 v=127
313188 On ch=1 n=g#6 v=42
313210 On ch=1 n=a#3 v=0
313288 On ch=1 n=g#4 v=38
313291 On ch=1 n=c5 v=46
313301 On ch=1 n=f6 v=44
313311 On ch=1 n=f4 v=67
313332 On ch=1 n=g#6 v=0
313347 On ch=1 n=c6 v=0
313379 On ch=1 n=f4 v=0
313381 On ch=1 n=f6 v=0
313387 On ch=1 n=a#5 v=41
313407 On ch=1 n=c5 v=0
313413 On ch=1 n=g#4 v=0
313509 On ch=1 n=a#5 v=0
313511 On ch=1 n=a#4 v=43
313521 On ch=1 n=g#6 v=56
313575 On ch=1 n=a#4 v=0
313611 Par ch=1 c=64 v=0
313614 On ch=1 n=f6 v=56
313649 On ch=1 n=g#6 v=0
313705 On ch=1 n=d#4 v=52
313711 On ch=1 n=f6 v=0
313711 On ch=1 n=f#6 v=72
313755 On ch=1 n=d#4 v=0
313785 On ch=1 n=f#6 v=0
313823 On ch=1 n=g6 v=83
313826 Par ch=1 c=64 v=127
313875 On ch=1 n=g6 v=0
313927 On ch=1 n=c6 v=61
313943 On ch=1 n=g7 v=75
313951 On ch=1 n=g5 v=30
313951 On ch=1 n=d#5 v=45
314005 On ch=1 n=c6 v=0
314029 On ch=1 n=g5 v=0
314049 On ch=1 n=d#5 v=0
314049 On ch=1 n=d7 v=54
314079 On ch=1 n=g7 v=0
314143 On ch=1 n=a#5 v=38
314155 On ch=1 n=d#7 v=59
314165 On ch=1 n=d7 v=0
314165 Par ch=1 c=64 v=0
314211 On ch=1 n=a#5 v=0
314223 On ch=1 n=d#7 v=0
314243 On ch=1 n=b6 v=91
314345 On ch=1 n=a#3 v=65
314355 On ch=1 n=c7 v=76
314363 On ch=1 n=b6 v=0
314389 On ch=1 n=a#3 v=0
314409 Par ch=1 c=64 v=127
314467 On ch=1 n=g6 v=54
314491 On ch=1 n=c7 v=0
314567 On ch=1 n=g6 v=0
314581 On ch=1 n=a#6 v=62
314593 On ch=1 n=a4 v=64
314595 On ch=1 n=g#5 v=64
314621 On ch=1 n=d5 v=38
314677 On ch=1 n=a4 v=0
314677 On ch=1 n=g#6 v=64
314689 On ch=1 n=d5 v=0
314699 On ch=1 n=g#5 v=0
314745 On ch=1 n=a#6 v=0
314763 Par ch=1 c=64 v=0
314783 On ch=1 n=g6 v=76
314791 On ch=1 n=a#4 v=54
314827 On ch=1 n=g#6 v=0
314841 On ch=1 n=a#4 v=0
314841 On ch=1 n=g6 v=0
314869 On ch=1 n=f6 v=58
314927 On ch=1 n=f6 v=0
314969 On ch=1 n=d#4 v=70
314972 On ch=1 n=f#6 v=74
315009 On ch=1 n=d#4 v=0
315043 On ch=1 n=f#6 v=0
315071 On ch=1 n=g6 v=83
315071 Par ch=1 c=64 v=127
315113 On ch=1 n=g6 v=0
315173 On ch=1 n=g7 v=83
315177 On ch=1 n=c6 v=57
315177 On ch=1 n=g5 v=61
315189 On ch=1 n=d#5 v=42
315231 On ch=1 n=c6 v=0
315239 On ch=1 n=g5 v=0
315261 On ch=1 n=d#5 v=0
315277 On ch=1 n=d7 v=62
315317 On ch=1 n=g7 v=0
315345 On ch=1 n=a#5 v=47
315379 Par ch=1 c=64 v=0
315379 On ch=1 n=d#7 v=61
315403 On ch=1 n=a#5 v=0
315411 On ch=1 n=d7 v=0
315449 On ch=1 n=d#7 v=0
315463 On ch=1 n=b6 v=89
315531 On ch=1 n=a#3 v=76
315561 On ch=1 n=c7 v=87
315567 On ch=1 n=b6 v=0
315575 On ch=1 n=a#3 v=0
315639 Par ch=1 c=64 v=127
315667 On ch=1 n=g6 v=64
315707 On ch=1 n=c7 v=0
315743 On ch=1 n=g#5 v=72
315749 On ch=1 n=a4 v=63
315759 On ch=1 n=a#6 v=63
315769 On ch=1 n=d5 v=43
315779 On ch=1 n=g6 v=0
315823 On ch=1 n=a4 v=0
315829 On ch=1 n=g#6 v=72
315847 On ch=1 n=g#5 v=0
315861 On ch=1 n=d5 v=0
315905 On ch=1 n=a#6 v=0
315929 On ch=1 n=g6 v=79
315931 Par ch=1 c=64 v=0
315935 On ch=1 n=a#4 v=57
315973 On ch=1 n=g#6 v=0
315979 On ch=1 n=g6 v=0
315987 On ch=1 n=a#4 v=0
316005 On ch=1 n=f6 v=68
316059 On ch=1 n=f6 v=0
316081 On ch=1 n=d#4 v=79
316105 On ch=1 n=f#6 v=79
316117 On ch=1 n=d#4 v=0
316161 On ch=1 n=f#6 v=0
316193 Par ch=1 c=64 v=127
316196 On ch=1 n=g6 v=81
316241 On ch=1 n=g6 v=0
316291 On ch=1 n=f6 v=88
316295 On ch=1 n=g7 v=89
316301 On ch=1 n=g5 v=57
316305 On ch=1 n=a#5 v=52
316359 On ch=1 n=g5 v=0
316393 On ch=1 n=f6 v=0
316401 On ch=1 n=d7 v=63
316461 On ch=1 n=g7 v=0
316467 On ch=1 n=d#6 v=63
316491 On ch=1 n=d#7 v=69
316497 On ch=1 n=a#5 v=0
316509 On ch=1 n=d#6 v=0
316527 On ch=1 n=d7 v=0
316529 Par ch=1 c=64 v=0
316547 On ch=1 n=d#7 v=0
316567 On ch=1 n=b6 v=91
316639 On ch=1 n=b6 v=0
316661 On ch=1 n=g#3 v=90
316664 On ch=1 n=c7 v=88
316695 On ch=1 n=g#3 v=0
316761 Par ch=1 c=64 v=127
316769 On ch=1 n=g6 v=79
316833 On ch=1 n=c7 v=0
316857 On ch=1 n=c5 v=84
316861 On ch=1 n=a#6 v=56
316861 On ch=1 n=g5 v=76
316871 On ch=1 n=g#4 v=21
316881 On ch=1 n=g6 v=0
316921 On ch=1 n=g#6 v=77
316951 On ch=1 n=g#4 v=0
316987 On ch=1 n=g5 v=0
316991 On ch=1 n=c5 v=0
317007 On ch=1 n=a#6 v=0
317025 On ch=1 n=g6 v=88
317055 On ch=1 n=f5 v=60
317083 Par ch=1 c=64 v=0
317085 On ch=1 n=g#6 v=0
317097 On ch=1 n=f5 v=0
317111 On ch=1 n=f6 v=71
317141 On ch=1 n=g6 v=0
317199 On ch=1 n=e6 v=84
317211 On ch=1 n=a#3 v=81
317241 On ch=1 n=f6 v=0
317255 On ch=1 n=a#3 v=0
317295 On ch=1 n=d#6 v=78
317313 Par ch=1 c=64 v=127
317361 On ch=1 n=e6 v=0
317379 On ch=1 n=d5 v=83
317387 On ch=1 n=d6 v=77
317393 On ch=1 n=g#4 v=56
317399 On ch=1 n=d#6 v=0
317405 On ch=1 n=f4 v=80
317449 On ch=1 n=d5 v=0
317452 On ch=1 n=f4 v=0
317477 On ch=1 n=g#4 v=0
317479 On ch=1 n=c#6 v=73
317501 On ch=1 n=d6 v=0
317529 Par ch=1 c=64 v=0
317565 On ch=1 n=c6 v=75
317579 On ch=1 n=g#4 v=52
317589 On ch=1 n=d5 v=70
317623 On ch=1 n=f4 v=30
317629 On ch=1 n=c#6 v=0
317631 On ch=1 n=d5 v=0
317645 On ch=1 n=b5 v=75
317653 On ch=1 n=g#4 v=0
317656 On ch=1 n=c6 v=0
317677 On ch=1 n=f4 v=0
317745 On ch=1 n=a#5 v=76
317757 On ch=1 n=f4 v=84
317765 On ch=1 n=g#4 v=57
317767 On ch=1 n=d5 v=63
317779 On ch=1 n=b5 v=0
317805 On ch=1 n=f4 v=0
317821 On ch=1 n=d5 v=0
317823 On ch=1 n=g#4 v=0
317839 On ch=1 n=a5 v=71
317869 On ch=1 n=a#5 v=0
317929 On ch=1 n=a5 v=0
317935 On ch=1 n=d5 v=62
317938 On ch=1 n=g#4 v=46
317941 On ch=1 n=c6 v=65
317953 On ch=1 n=f4 v=64
317993 On ch=1 n=d5 v=0
318003 On ch=1 n=f4 v=0
318006 On ch=1 n=g#4 v=0
318017 On ch=1 n=a#5 v=51
318087 On ch=1 n=c6 v=0
318107 On ch=1 n=a5 v=54
318119 On ch=1 n=d5 v=61
318127 On ch=1 n=g#4 v=47
318135 On ch=1 n=f4 v=44
318167 On ch=1 n=d5 v=0
318179 On ch=1 n=a#5 v=0
318191 On ch=1 n=f4 v=0
318197 On ch=1 n=g#4 v=0
318201 On ch=1 n=g#5 v=66
318215 On ch=1 n=a5 v=0
318315 On ch=1 n=g#5 v=0
318315 On ch=1 n=g5 v=64
318329 On ch=1 n=c#5 v=70
318343 On ch=1 n=a#4 v=47
318345 On ch=1 n=d#4 v=60
318375 On ch=1 n=c#5 v=0
318393 On ch=1 n=g5 v=0
318395 On ch=1 n=a#4 v=0
318401 On ch=1 n=g#5 v=52
318409 On ch=1 n=d#4 v=0
318435 Par ch=1 c=64 v=127
318515 On ch=1 n=a5 v=53
318529 On ch=1 n=g#5 v=0
318579 On ch=1 n=d#4 v=57
318579 On ch=1 n=d#3 v=64
318599 On ch=1 n=a#5 v=50
318609 On ch=1 n=a5 v=0
318621 On ch=1 n=d#3 v=0
318631 On ch=1 n=d#4 v=0
318675 On ch=1 n=a#5 v=0
318691 On ch=1 n=c6 v=63
318717 On ch=1 n=d#4 v=65
318719 On ch=1 n=d#3 v=49
318763 On ch=1 n=d#3 v=0
318787 On ch=1 n=a#5 v=53
318801 On ch=1 n=d#4 v=0
318805 Par ch=1 c=64 v=0
318829 On ch=1 n=c6 v=0
318875 On ch=1 n=g#5 v=68
318899 On ch=1 n=a#5 v=0
318907 On ch=1 n=g#4 v=86
318907 On ch=1 n=c5 v=83
318947 On ch=1 n=c5 v=0
318951 On ch=1 n=g#4 v=0
318967 On ch=1 n=a#5 v=60
319021 On ch=1 n=g#5 v=0
319071 On ch=1 n=b5 v=75
319081 On ch=1 n=a#5 v=0
319107 On ch=1 n=g4 v=85
319125 On ch=1 n=g3 v=70
319147 On ch=1 n=g4 v=0
319159 On ch=1 n=c6 v=72
319167 On ch=1 n=g3 v=0
319209 On ch=1 n=b5 v=0
319265 On ch=1 n=c#6 v=66
319271 On ch=1 n=c6 v=0
319273 On ch=1 n=f#4 v=81
319275 On ch=1 n=f#3 v=73
319311 On ch=1 n=f#3 v=0
319311 On ch=1 n=f#4 v=0
319341 On ch=1 n=c6 v=62
319413 On ch=1 n=c#6 v=0
319457 On ch=1 n=d#5 v=86
319463 On ch=1 n=a4 v=71
319469 On ch=1 n=a5 v=58
319475 On ch=1 n=c6 v=0
319549 On ch=1 n=a4 v=0
319552 On ch=1 n=d#5 v=0
319555 On ch=1 n=a#5 v=68
319557 Par ch=1 c=64 v=127
319561 On ch=1 n=a5 v=0
319667 On ch=1 n=b5 v=78
319701 On ch=1 n=a#5 v=0
319727 On ch=1 n=f4 v=74
319741 On ch=1 n=f3 v=17
319751 On ch=1 n=c6 v=58
319771 On ch=1 n=b5 v=0
319773 On ch=1 n=f4 v=0
319795 On ch=1 n=f3 v=0
319815 On ch=1 n=c6 v=0
319833 On ch=1 n=f4 v=103
319841 On ch=1 n=d6 v=75
319851 On ch=1 n=f3 v=87
319887 On ch=1 n=f3 v=0
319895 On ch=1 n=f4 v=0
319919 On ch=1 n=c6 v=67
319953 On ch=1 n=d6 v=0
320001 On ch=1 n=a#5 v=74
320027 On ch=1 n=c6 v=0
320029 On ch=1 n=a#4 v=65
320039 On ch=1 n=d5 v=42
320061 On ch=1 n=c5 v=32
320065 Par ch=1 c=64 v=0
320073 On ch=1 n=a#4 v=0
320087 On ch=1 n=c6 v=77
320099 On ch=1 n=d5 v=0
320121 On ch=1 n=a#5 v=0
320131 On ch=1 n=c5 v=0
320201 On ch=1 n=c#6 v=75
320203 On ch=1 n=a4 v=89
320213 On ch=1 n=a3 v=73
320245 On ch=1 n=a4 v=0
320257 On ch=1 n=a3 v=0
320267 On ch=1 n=c6 v=0
320297 On ch=1 n=d6 v=78
320349 On ch=1 n=c#6 v=0
320361 On ch=1 n=g#4 v=88
320361 On ch=1 n=g#3 v=92
320385 On ch=1 n=d#6 v=80
320397 On ch=1 n=g#3 v=0
320405 On ch=1 n=d6 v=0
320409 On ch=1 n=g#4 v=0
320463 Par ch=1 c=64 v=127
320475 On ch=1 n=d6 v=81
320525 Par ch=1 c=64 v=0
320533 On ch=1 n=d#6 v=0
320571 On ch=1 n=b4 v=96
320571 On ch=1 n=f5 v=92
320571 On ch=1 n=b5 v=89
320583 On ch=1 n=d6 v=0
320665 On ch=1 n=c6 v=78
320670 On ch=1 n=b4 v=0
320674 On ch=1 n=f5 v=0
320695 On ch=1 n=b5 v=0
320709 Par ch=1 c=64 v=127
320753 On ch=1 n=c#6 v=72
320773 On ch=1 n=c6 v=0
320831 On ch=1 n=g3 v=90
320851 On ch=1 n=d6 v=81
320865 On ch=1 n=g3 v=0
320869 On ch=1 n=c#6 v=0
320875 On ch=1 n=g4 v=20
320923 On ch=1 n=d6 v=0
320935 On ch=1 n=g4 v=0
320935 On ch=1 n=d#6 v=76
320967 On ch=1 n=g3 v=12
320983 On ch=1 n=g4 v=32
321017 On ch=1 n=g3 v=0
321025 On ch=1 n=d6 v=64
321047 On ch=1 n=g4 v=0
321047 Par ch=1 c=64 v=0
321073 On ch=1 n=c6 v=78
321093 On ch=1 n=d#6 v=0
321121 On ch=1 n=d6 v=0
321133 On ch=1 n=d#5 v=94
321147 On ch=1 n=c5 v=80
321181 On ch=1 n=c6 v=0
321185 On ch=1 n=d#5 v=0
321188 On ch=1 n=c#6 v=78
321191 On ch=1 n=c5 v=0
321231 Par ch=1 c=64 v=127
321287 On ch=1 n=d6 v=81
321305 On ch=1 n=c#6 v=0
321317 On ch=1 n=c4 v=78
321363 On ch=1 n=c4 v=0
321387 On ch=1 n=d#6 v=79
321421 On ch=1 n=d6 v=0
321465 On ch=1 n=e6 v=75
321507 Par ch=1 c=64 v=0
321515 On ch=1 n=d#6 v=0
321559 On ch=1 n=f6 v=74
321641 On ch=1 n=e6 v=0
321647 On ch=1 n=g6 v=93
321653 On ch=1 n=d#5 v=84
321659 On ch=1 n=f6 v=0
321671 On ch=1 n=g#4 v=65
321705 On ch=1 n=d#5 v=0
321725 On ch=1 n=g#4 v=0
321737 On ch=1 n=f6 v=61
321769 Par ch=1 c=64 v=127
321815 On ch=1 n=e6 v=61
321825 On ch=1 n=g6 v=0
321877 On ch=1 n=f6 v=0
321882 On ch=1 n=b3 v=57
321905 On ch=1 n=d#6 v=73
321927 On ch=1 n=b3 v=0
321941 On ch=1 n=e6 v=0
321977 On ch=1 n=d#6 v=0
321995 On ch=1 n=d6 v=66
322079 On ch=1 n=d6 v=0
322079 On ch=1 n=c#6 v=61
322107 Par ch=1 c=64 v=0
322173 On ch=1 n=c6 v=68
322189 On ch=1 n=d5 v=50
322191 On ch=1 n=g#4 v=61
322221 On ch=1 n=c#6 v=0
322241 On ch=1 n=d5 v=0
322244 On ch=1 n=g#4 v=0
322261 On ch=1 n=c6 v=0
322265 On ch=1 n=b5 v=72
322307 Par ch=1 c=64 v=127
322351 On ch=1 n=a#5 v=66
322353 On ch=1 n=a#3 v=47
322355 On ch=1 n=b5 v=0
322407 On ch=1 n=a#3 v=0
322447 On ch=1 n=a5 v=67
322477 On ch=1 n=a#5 v=0
322501 On ch=1 n=a5 v=0
322533 On ch=1 n=a#5 v=66
322631 On ch=1 n=g#5 v=57
322645 Par ch=1 c=64 v=0
322659 On ch=1 n=a#5 v=0
322729 On ch=1 n=d#4 v=41
322731 On ch=1 n=d#3 v=46
322755 On ch=1 n=g5 v=63
322791 On ch=1 n=d#3 v=0
322794 On ch=1 n=g#5 v=0
322797 On ch=1 n=d#4 v=0
322799 On ch=1 n=g5 v=0
322845 Par ch=1 c=64 v=127
322937 On ch=1 n=a#4 v=59
322947 On ch=1 n=g4 v=73
322955 On ch=1 n=g3 v=62
322993 On ch=1 n=g4 v=0
323005 On ch=1 n=g3 v=0
323029 On ch=1 n=a#5 v=59
323031 On ch=1 n=a#4 v=0
323121 On ch=1 n=d5 v=55
323135 On ch=1 n=g#4 v=65
323138 On ch=1 n=a#5 v=0
323153 On ch=1 n=g#3 v=61
323169 On ch=1 n=d5 v=0
323191 On ch=1 n=g#4 v=0
323201 On ch=1 n=b5 v=70
323217 On ch=1 n=g#3 v=0
323307 On ch=1 n=a#4 v=69
323321 On ch=1 n=b5 v=0
323331 On ch=1 n=g4 v=78
323341 On ch=1 n=g3 v=64
323371 On ch=1 n=g4 v=0
323387 On ch=1 n=g3 v=0
323397 On ch=1 n=a#5 v=55
323403 On ch=1 n=a#4 v=0
323489 On ch=1 n=d#5 v=73
323495 On ch=1 n=d#4 v=79
323499 On ch=1 n=d#3 v=78
323517 On ch=1 n=a#5 v=0
323533 On ch=1 n=d#3 v=0
323536 On ch=1 n=d#4 v=0
323595 On ch=1 n=g5 v=57
323611 On ch=1 n=d#5 v=0
323614 Par ch=1 c=64 v=0
323667 On ch=1 n=e5 v=76
323671 On ch=1 n=a#4 v=79
323675 On ch=1 n=a#3 v=79
323735 On ch=1 n=g5 v=0
323743 On ch=1 n=c#6 v=70
323787 On ch=1 n=e5 v=0
323789 On ch=1 n=a#4 v=0
323795 On ch=1 n=a#3 v=0
323829 Par ch=1 c=64 v=127
323857 On ch=1 n=c#6 v=0
323867 On ch=1 n=a4 v=80
323871 On ch=1 n=c5 v=70
323875 On ch=1 n=a3 v=76
323915 On ch=1 n=a4 v=0
323935 On ch=1 n=c5 v=0
323946 On ch=1 n=a3 v=0
323949 On ch=1 n=c6 v=72
324051 On ch=1 n=f5 v=66
324061 On ch=1 n=f4 v=101
324065 On ch=1 n=f3 v=88
324073 On ch=1 n=c6 v=0
324097 On ch=1 n=f4 v=0
324099 On ch=1 n=f3 v=0
324133 On ch=1 n=a5 v=63
324155 On ch=1 n=f5 v=0
324227 Par ch=1 c=64 v=0
324239 On ch=1 n=a#4 v=83
324241 On ch=1 n=e5 v=74
324247 On ch=1 n=a#3 v=82
324269 On ch=1 n=a5 v=0
324307 On ch=1 n=c#6 v=71
324310 On ch=1 n=e5 v=0
324347 On ch=1 n=a#4 v=0
324355 On ch=1 n=a#3 v=0
324397 Par ch=1 c=64 v=127
324421 On ch=1 n=c#6 v=0
324421 On ch=1 n=c5 v=80
324437 On ch=1 n=a4 v=83
324445 On ch=1 n=a3 v=82
324491 On ch=1 n=a4 v=0
324513 On ch=1 n=c6 v=71
324523 On ch=1 n=c5 v=0
324526 On ch=1 n=a3 v=0
324603 On ch=1 n=f5 v=64
324615 On ch=1 n=f4 v=102
324618 On ch=1 n=f3 v=91
324628 On ch=1 n=c6 v=0
324648 On ch=1 n=f4 v=0
324650 On ch=1 n=f3 v=0
324680 On ch=1 n=a5 v=62
324710 On ch=1 n=f5 v=0
324736 On ch=1 n=a5 v=0
324746 Par ch=1 c=64 v=0
324800 On ch=1 n=f#5 v=75
324806 On ch=1 n=c5 v=92
324812 On ch=1 n=c4 v=87
324882 On ch=1 n=c5 v=0
324888 On ch=1 n=d#6 v=80
324896 On ch=1 n=c4 v=0
324932 Par ch=1 c=64 v=127
324946 On ch=1 n=f#5 v=0
325004 On ch=1 n=d5 v=84
325013 On ch=1 n=b4 v=84
325018 On ch=1 n=b3 v=83
325020 On ch=1 n=d#6 v=0
325060 On ch=1 n=b4 v=0
325070 On ch=1 n=b3 v=0
325094 On ch=1 n=d6 v=75
325108 On ch=1 n=d5 v=0
325182 On ch=1 n=g5 v=68
325198 On ch=1 n=g4 v=92
325204 On ch=1 n=g3 v=88
325208 On ch=1 n=d6 v=0
325238 On ch=1 n=g3 v=0
325246 On ch=1 n=g4 v=0
325272 On ch=1 n=b5 v=84
325294 On ch=1 n=g5 v=0
325316 Par ch=1 c=64 v=0
325374 On ch=1 n=f#5 v=76
325388 On ch=1 n=c5 v=93
325396 On ch=1 n=c4 v=87
325420 On ch=1 n=b5 v=0
325444 On ch=1 n=c5 v=0
325444 On ch=1 n=d#6 v=79
325466 On ch=1 n=c4 v=0
325492 On ch=1 n=f#5 v=0
325516 Par ch=1 c=64 v=127
325552 On ch=1 n=d#6 v=0
325562 On ch=1 n=d5 v=84
325568 On ch=1 n=b4 v=71
325574 On ch=1 n=b3 v=84
325626 On ch=1 n=b3 v=0
325626 On ch=1 n=b4 v=0
325646 On ch=1 n=d5 v=0
325656 On ch=1 n=d6 v=78
325742 On ch=1 n=g5 v=64
325756 On ch=1 n=g4 v=89
325756 On ch=1 n=g3 v=91
325770 On ch=1 n=d6 v=0
325788 On ch=1 n=g3 v=0
325800 On ch=1 n=g4 v=0
325816 On ch=1 n=b5 v=88
325824 On ch=1 n=g5 v=0
325862 On ch=1 n=b5 v=0
325900 Par ch=1 c=64 v=0
325950 On ch=1 n=g#5 v=84
325960 On ch=1 n=d5 v=102
325964 On ch=1 n=d4 v=104
326020 On ch=1 n=d4 v=0
326020 On ch=1 n=f6 v=82
326050 On ch=1 n=g#5 v=0
326060 On ch=1 n=d5 v=0
326070 Par ch=1 c=64 v=127
326104 On ch=1 n=f6 v=0
326148 On ch=1 n=e5 v=83
326151 On ch=1 n=c#5 v=93
326162 On ch=1 n=c#4 v=88
326206 On ch=1 n=c#5 v=0
326208 On ch=1 n=c#4 v=0
326230 On ch=1 n=e6 v=76
326262 On ch=1 n=e5 v=0
326332 On ch=1 n=a5 v=63
326338 On ch=1 n=a3 v=91
326338 On ch=1 n=a4 v=88
326346 On ch=1 n=e6 v=0
326372 On ch=1 n=a3 v=0
326380 On ch=1 n=a4 v=0
326412 On ch=1 n=c#6 v=79
326440 On ch=1 n=a5 v=0
326516 On ch=1 n=c#6 v=0
326530 Par ch=1 c=64 v=0
326550 On ch=1 n=a#5 v=87
326550 On ch=1 n=e5 v=108
326553 On ch=1 n=e4 v=110
326600 On ch=1 n=g6 v=87
326626 On ch=1 n=e5 v=0
326652 On ch=1 n=e4 v=0
326662 On ch=1 n=a#5 v=0
326698 Par ch=1 c=64 v=127
326716 On ch=1 n=g6 v=0
326746 On ch=1 n=f#5 v=85
326756 On ch=1 n=d#5 v=95
326766 On ch=1 n=d#4 v=88
326804 On ch=1 n=d#5 v=0
326816 On ch=1 n=d#4 v=0
326842 On ch=1 n=f#6 v=87
326894 On ch=1 n=f#5 v=0
326924 On ch=1 n=b5 v=75
326946 On ch=1 n=b4 v=92
326948 On ch=1 n=b3 v=93
326980 On ch=1 n=b3 v=0
326983 On ch=1 n=b4 v=0
327016 On ch=1 n=d#6 v=76
327028 On ch=1 n=b5 v=0
327064 On ch=1 n=f#6 v=0
327090 On ch=1 n=d#6 v=0
327138 On ch=1 n=c6 v=89
327154 On ch=1 n=d5 v=89
327156 On ch=1 n=d4 v=98
327190 On ch=1 n=d5 v=0
327210 On ch=1 n=d4 v=0
327244 On ch=1 n=a6 v=91
327247 On ch=1 n=c6 v=0
327360 Par ch=1 c=64 v=0
327402 On ch=1 n=c#6 v=103
327402 On ch=1 n=f#6 v=84
327406 On ch=1 n=c#7 v=100
327412 On ch=1 n=c#4 v=105
327422 On ch=1 n=c#3 v=108
327574 On ch=1 n=c#4 v=0
327574 Par ch=1 c=64 v=127
327576 On ch=1 n=c#3 v=0
327600 On ch=1 n=c#7 v=0
327620 On ch=1 n=c#6 v=0
327632 On ch=1 n=f#6 v=0
327632 On ch=1 n=a6 v=0
327680 On ch=1 n=c6 v=69
327752 On ch=1 n=c6 v=0
327790 On ch=1 n=a5 v=46
327790 On ch=1 n=c#5 v=42
327790 On ch=1 n=a4 v=44
327792 On ch=1 n=c#6 v=62
327798 On ch=1 n=f#5 v=64
327840 On ch=1 n=f#5 v=0
327851 On ch=1 n=a4 v=0
327854 On ch=1 n=c#5 v=0
327856 On ch=1 n=a5 v=0
327858 On ch=1 n=d#6 v=74
327906 On ch=1 n=a4 v=44
327908 On ch=1 n=c#5 v=50
327912 On ch=1 n=a5 v=52
327913 On ch=1 n=f#5 v=62
327918 On ch=1 n=c#6 v=0
327936 On ch=1 n=d#6 v=0
327964 On ch=1 n=a5 v=0
327967 On ch=1 n=a4 v=0
327967 On ch=1 n=f6 v=82
327972 On ch=1 n=c#5 v=0
328023 On ch=1 n=f#5 v=0
328070 On ch=1 n=f#6 v=80
328084 On ch=1 n=a5 v=76
328084 On ch=1 n=f#5 v=55
328092 On ch=1 n=a4 v=44
328092 On ch=1 n=c#5 v=55
328098 On ch=1 n=f6 v=0
328140 On ch=1 n=a5 v=0
328148 On ch=1 n=c#5 v=0
328148 On ch=1 n=g#6 v=84
328154 On ch=1 n=a4 v=0
328170 On ch=1 n=f#5 v=0
328210 On ch=1 n=f#6 v=0
328234 On ch=1 n=g#6 v=0
328246 On ch=1 n=a6 v=88
328246 On ch=1 n=a4 v=52
328249 On ch=1 n=a5 v=77
328256 On ch=1 n=f#5 v=53
328262 On ch=1 n=c#5 v=55
328314 On ch=1 n=c#5 v=0
328314 On ch=1 n=f#5 v=0
328314 On ch=1 n=a4 v=0
328317 On ch=1 n=a5 v=0
328336 On ch=1 n=b6 v=111
328360 On ch=1 n=a6 v=0
328412 On ch=1 n=c#7 v=89
328422 On ch=1 n=a5 v=74
328426 On ch=1 n=f#5 v=61
328428 On ch=1 n=a4 v=66
328428 On ch=1 n=c#5 v=58
328472 On ch=1 n=b6 v=0
328484 On ch=1 n=f#5 v=0
328488 On ch=1 n=c#5 v=0
328488 On ch=1 n=a4 v=0
328502 On ch=1 n=a5 v=0
328514 On ch=1 n=d#7 v=77
328562 On ch=1 n=c#7 v=0
328574 On ch=1 n=d#7 v=0
328596 On ch=1 n=a5 v=91
328600 On ch=1 n=c#5 v=65
328602 On ch=1 n=a4 v=83
328602 On ch=1 n=f#5 v=73
328614 On ch=1 n=f7 v=96
328684 On ch=1 n=a5 v=0
328688 On ch=1 n=f#7 v=85
328706 On ch=1 n=a4 v=0
328709 On ch=1 n=f7 v=0
328712 On ch=1 n=f#5 v=0
328712 On ch=1 n=c#5 v=0
328774 On ch=1 n=g#7 v=74
328862 On ch=1 n=a7 v=89
328868 On ch=1 n=f#7 v=0
328910 On ch=1 n=g#7 v=0
328950 On ch=1 n=f#7 v=70
329002 On ch=1 n=a7 v=0
329038 On ch=1 n=c#7 v=82
329106 On ch=1 n=f#7 v=0
329112 On ch=1 n=a6 v=88
329130 On ch=1 n=c#7 v=0
329150 On ch=1 n=a6 v=0
329206 On ch=1 n=f#6 v=84
329298 On ch=1 n=c#6 v=64
329342 On ch=1 n=f#6 v=0
329382 On ch=1 n=c#6 v=0
329382 On ch=1 n=a5 v=69
329428 On ch=1 n=a5 v=0
329480 On ch=1 n=f#5 v=72
329480 On ch=1 n=c#4 v=88
329484 On ch=1 n=c#3 v=84
329582 On ch=1 n=c#5 v=78
329596 On ch=1 n=c#3 v=0
329599 On ch=1 n=c#4 v=0
329618 On ch=1 n=f#5 v=0
329648 Par ch=1 c=64 v=0
329694 On ch=1 n=a4 v=91
329697 On ch=1 n=c4 v=97
329700 On ch=1 n=c3 v=106
329714 On ch=1 n=c#5 v=0
329794 On ch=1 n=a4 v=0
329806 On ch=1 n=f#5 v=69
329859 On ch=1 n=c3 v=0
329865 On ch=1 n=c4 v=0
329880 Par ch=1 c=64 v=127
329898 On ch=1 n=d#5 v=71
329968 On ch=1 n=f#5 v=0
329988 On ch=1 n=d#5 v=0
330031 On ch=1 n=a5 v=51
330032 On ch=1 n=a4 v=58
330036 On ch=1 n=d#5 v=81
330036 On ch=1 n=f#4 v=60
330081 On ch=1 n=a5 v=0
330082 On ch=1 n=f#4 v=0
330084 On ch=1 n=a4 v=0
330096 On ch=1 n=d#5 v=0
330140 On ch=1 n=a5 v=57
330144 On ch=1 n=d#5 v=85
330147 On ch=1 n=a4 v=67
330152 On ch=1 n=f#4 v=60
330199 On ch=1 n=a5 v=0
330219 On ch=1 n=f#6 v=75
330256 On ch=1 n=d#5 v=0
330286 On ch=1 n=f#4 v=0
330290 On ch=1 n=a4 v=0
330308 On ch=1 n=d#6 v=76
330329 On ch=1 n=f#4 v=67
330332 On ch=1 n=d#5 v=82
330335 On ch=1 n=a4 v=55
330355 On ch=1 n=f#6 v=0
330392 On ch=1 n=a4 v=0
330396 On ch=1 n=a6 v=74
330404 On ch=1 n=d#5 v=0
330404 On ch=1 n=f#4 v=0
330414 On ch=1 n=d#6 v=0
330434 On ch=1 n=a6 v=0
330494 On ch=1 n=a6 v=81
330588 On ch=1 n=f#7 v=78
330624 On ch=1 n=a6 v=0
330692 On ch=1 n=d#7 v=86
330697 On ch=1 n=c4 v=96
330697 On ch=1 n=c3 v=105
330778 On ch=1 n=a7 v=84
330783 On ch=1 n=f#7 v=0
330806 On ch=1 n=c4 v=0
330818 On ch=1 n=c3 v=0
330826 On ch=1 n=d#7 v=0
330862 Par ch=1 c=64 v=0
330908 On ch=1 n=f#7 v=92
330911 On ch=1 n=a7 v=0
330914 On ch=1 n=b3 v=106
330920 On ch=1 n=b2 v=111
331012 On ch=1 n=a7 v=73
331019 On ch=1 n=b3 v=0
331045 On ch=1 n=b2 v=0
331062 Par ch=1 c=64 v=127
331082 On ch=1 n=f#7 v=0
331122 On ch=1 n=d#7 v=66
331192 On ch=1 n=a7 v=0
331220 On ch=1 n=d#7 v=0
331222 On ch=1 n=a6 v=63
331222 On ch=1 n=d#5 v=84
331222 On ch=1 n=a4 v=57
331228 On ch=1 n=f#4 v=76
331266 On ch=1 n=d#5 v=0
331266 On ch=1 n=a6 v=0
331268 On ch=1 n=a4 v=0
331272 On ch=1 n=f#4 v=0
331324 On ch=1 n=f#6 v=83
331346 On ch=1 n=d#5 v=90
331348 On ch=1 n=a4 v=68
331354 On ch=1 n=f#4 v=72
331432 On ch=1 n=a6 v=67
331460 On ch=1 n=d#5 v=0
331463 On ch=1 n=f#4 v=0
331473 On ch=1 n=f#6 v=0
331479 On ch=1 n=a4 v=0
331547 On ch=1 n=d#6 v=75
331557 On ch=1 n=d#5 v=82
331559 On ch=1 n=a4 v=50
331571 On ch=1 n=f#4 v=67
331595 On ch=1 n=a6 v=0
331631 On ch=1 n=a5 v=75
331653 On ch=1 n=d#5 v=0
331659 On ch=1 n=d#6 v=0
331667 On ch=1 n=a4 v=0
331681 On ch=1 n=a5 v=0
331681 On ch=1 n=f#4 v=0
331747 On ch=1 n=f#5 v=84
331865 On ch=1 n=a5 v=81
331873 Par ch=1 c=64 v=0
331911 On ch=1 n=f#5 v=0
331967 On ch=1 n=d#5 v=84
331973 On ch=1 n=b2 v=84
331981 On ch=1 n=b3 v=76
332045 Par ch=1 c=64 v=127
332051 On ch=1 n=a5 v=0
332053 On ch=1 n=a4 v=87
332073 On ch=1 n=b2 v=0
332113 On ch=1 n=b3 v=0
332135 On ch=1 n=d#5 v=0
332159 On ch=1 n=a4 v=0
332197 Par ch=1 c=64 v=0
332213 On ch=1 n=g5 v=62
332215 On ch=1 n=d#5 v=75
332218 On ch=1 n=a#4 v=97
332218 On ch=1 n=a#5 v=90
332227 On ch=1 n=a#3 v=99
332235 On ch=1 n=a#2 v=94
332375 On ch=1 n=d#5 v=0
332379 On ch=1 n=a#5 v=0
332379 On ch=1 n=g5 v=0
332394 On ch=1 n=a#3 v=0
332395 Par ch=1 c=64 v=127
332398 On ch=1 n=a#2 v=0
332423 On ch=1 n=a#4 v=0
332503 On ch=1 n=a4 v=72
332591 On ch=1 n=a#4 v=64
332599 On ch=1 n=a4 v=0
332693 On ch=1 n=c5 v=78
332697 On ch=1 n=a#4 v=0
332793 On ch=1 n=d5 v=65
332818 On ch=1 n=c5 v=0
332827 Par ch=1 c=64 v=0
332875 On ch=1 n=d#5 v=79
332903 On ch=1 n=d5 v=0
332965 On ch=1 n=e5 v=68
332974 On ch=1 n=d#5 v=0
333013 On ch=1 n=e5 v=0
333029 On ch=1 n=a4 v=38
333029 On ch=1 n=c5 v=41
333031 On ch=1 n=d#5 v=50
333039 On ch=1 n=g5 v=76
333099 On ch=1 n=c5 v=0
333102 On ch=1 n=g5 v=0
333103 Par ch=1 c=64 v=127
333107 On ch=1 n=a4 v=0
333117 On ch=1 n=d#5 v=0
333151 On ch=1 n=f5 v=69
333229 On ch=1 n=g#4 v=55
333231 On ch=1 n=a#4 v=44
333233 On ch=1 n=d5 v=67
333239 On ch=1 n=f5 v=0
333239 On ch=1 n=g5 v=79
333271 Par ch=1 c=64 v=0
333279 On ch=1 n=d5 v=0
333282 On ch=1 n=g5 v=0
333299 On ch=1 n=g#4 v=0
333309 On ch=1 n=a#4 v=0
333316 On ch=1 n=f5 v=71
333392 On ch=1 n=d#5 v=97
333398 On ch=1 n=g4 v=78
333400 On ch=1 n=a#4 v=44
333408 On ch=1 n=c6 v=84
333440 On ch=1 n=f5 v=0
333448 On ch=1 n=g4 v=0
333478 On ch=1 n=d#5 v=0
333482 On ch=1 n=a#5 v=64
333484 Par ch=1 c=64 v=127
333538 On ch=1 n=a#4 v=0
333554 On ch=1 n=c6 v=0
333568 On ch=1 n=a5 v=76
333594 On ch=1 n=a#5 v=0
333654 On ch=1 n=a#5 v=73
333688 On ch=1 n=a5 v=0
333752 On ch=1 n=a#5 v=0
333754 On ch=1 n=c6 v=78
333852 On ch=1 n=d6 v=77
333888 On ch=1 n=c6 v=0
333914 Par ch=1 c=64 v=0
333924 On ch=1 n=d#6 v=83
333952 On ch=1 n=d6 v=0
334030 On ch=1 n=e6 v=80
334061 On ch=1 n=d#6 v=0
334114 On ch=1 n=e6 v=0
334124 On ch=1 n=g6 v=100
334124 On ch=1 n=a5 v=57
334126 On ch=1 n=d#6 v=61
334132 On ch=1 n=c6 v=53
334160 Par ch=1 c=64 v=127
334188 On ch=1 n=c6 v=0
334198 On ch=1 n=a5 v=0
334224 On ch=1 n=f6 v=83
334234 On ch=1 n=d#6 v=0
334244 On ch=1 n=g6 v=0
334308 On ch=1 n=f6 v=0
334308 On ch=1 n=g6 v=88
334320 On ch=1 n=d6 v=81
334323 On ch=1 n=g#5 v=65
334334 On ch=1 n=a#5 v=54
334374 On ch=1 n=d6 v=0
334376 On ch=1 n=g6 v=0
334400 On ch=1 n=f6 v=77
334418 On ch=1 n=g#5 v=0
334428 On ch=1 n=a#5 v=0
334452 Par ch=1 c=64 v=0
334492 On ch=1 n=d#6 v=93
334502 On ch=1 n=c7 v=102
334504 On ch=1 n=f6 v=0
334504 On ch=1 n=a#5 v=46
334504 On ch=1 n=g5 v=78
334584 On ch=1 n=d#6 v=0
334594 On ch=1 n=a#6 v=67
334619 On ch=1 n=g5 v=0
334622 Par ch=1 c=64 v=127
334634 On ch=1 n=a#5 v=0
334658 On ch=1 n=c7 v=0
334678 On ch=1 n=a6 v=84
334700 On ch=1 n=a#6 v=0
334780 On ch=1 n=a#6 v=65
334812 On ch=1 n=a6 v=0
334844 On ch=1 n=a#6 v=0
334868 On ch=1 n=c7 v=91
334944 Par ch=1 c=64 v=0
334968 On ch=1 n=d7 v=84
334990 On ch=1 n=c7 v=0
335056 On ch=1 n=d#7 v=77
335096 On ch=1 n=d7 v=0
335126 On ch=1 n=d#7 v=0
335152 On ch=1 n=e7 v=83
335158 Par ch=1 c=64 v=127
335210 On ch=1 n=e7 v=0
335236 On ch=1 n=a6 v=45
335238 On ch=1 n=c7 v=38
335246 On ch=1 n=g7 v=88
335246 On ch=1 n=d#7 v=58
335290 On ch=1 n=c7 v=0
335290 On ch=1 n=a6 v=0
335320 On ch=1 n=g7 v=0
335324 On ch=1 n=d#7 v=0
335338 On ch=1 n=f7 v=74
335420 Par ch=1 c=64 v=0
335428 On ch=1 n=g7 v=83
335442 On ch=1 n=d7 v=67
335442 On ch=1 n=a#6 v=42
335445 On ch=1 n=g#6 v=59
335448 On ch=1 n=f7 v=0
335476 On ch=1 n=g7 v=0
335494 On ch=1 n=d7 v=0
335498 On ch=1 n=a#6 v=0
335506 On ch=1 n=f7 v=86
335516 On ch=1 n=g#6 v=0
335602 On ch=1 n=d#7 v=90
335606 On ch=1 n=a#7 v=90
335610 On ch=1 n=a#6 v=44
335614 On ch=1 n=g6 v=87
335616 On ch=1 n=f7 v=0
335634 Par ch=1 c=64 v=127
335640 On ch=1 n=a#7 v=0
335644 On ch=1 n=d#7 v=0
335658 On ch=1 n=g6 v=0
335686 On ch=1 n=a#6 v=0
335838 On ch=1 n=a6 v=85
335916 On ch=1 n=a#6 v=79
335950 On ch=1 n=a6 v=0
335994 On ch=1 n=a#6 v=0
336014 On ch=1 n=c7 v=88
336106 On ch=1 n=d7 v=90
336134 On ch=1 n=c7 v=0
336202 On ch=1 n=d#7 v=81
336230 On ch=1 n=d7 v=0
336298 On ch=1 n=d#7 v=0
336298 On ch=1 n=e7 v=87
336388 On ch=1 n=d#7 v=59
336402 On ch=1 n=g7 v=97
336402 On ch=1 n=a6 v=59
336410 On ch=1 n=c7 v=70
336412 On ch=1 n=e7 v=0
336476 On ch=1 n=c7 v=0
336482 On ch=1 n=a6 v=0
336504 On ch=1 n=g7 v=0
336504 On ch=1 n=f7 v=89
336510 On ch=1 n=d#7 v=0
336608 On ch=1 n=d7 v=83
336611 On ch=1 n=g#6 v=66
336614 On ch=1 n=f7 v=0
336616 On ch=1 n=a#6 v=61
336616 On ch=1 n=g7 v=92
336714 On ch=1 n=g7 v=0
336718 On ch=1 n=f7 v=91
336724 On ch=1 n=d7 v=0
336732 On ch=1 n=g#6 v=0
336746 On ch=1 n=a#6 v=0
336848 Par ch=1 c=64 v=0
336856 On ch=1 n=d#7 v=94
336856 On ch=1 n=a#7 v=103
336864 On ch=1 n=g6 v=92
336864 On ch=1 n=a#6 v=62
336912 On ch=1 n=f7 v=0
337010 On ch=1 n=g6 v=0
337020 On ch=1 n=d#7 v=0
337034 Par ch=1 c=64 v=127
337062 On ch=1 n=a#6 v=0
337114 On ch=1 n=a#7 v=0
337376 On ch=1 n=f7 v=95
337558 On ch=1 n=a5 v=87
337562 On ch=1 n=d#5 v=79
337564 On ch=1 n=f5 v=81
337566 On ch=1 n=f8 v=104
337576 On ch=1 n=c5 v=59
337602 Par ch=1 c=64 v=0
337770 Par ch=1 c=64 v=127
337834 On ch=1 n=e8 v=93
337860 On ch=1 n=f7 v=0
337960 On ch=1 n=f8 v=0
337972 On ch=1 n=d#8 v=86
338048 On ch=1 n=e8 v=0
338100 On ch=1 n=d8 v=92
338166 On ch=1 n=d#8 v=0
338218 On ch=1 n=c8 v=86
338238 On ch=1 n=d8 v=0
338318 On ch=1 n=a#7 v=81
338348 On ch=1 n=c8 v=0
338418 On ch=1 n=a7 v=85
338516 On ch=1 n=a#7 v=0
338526 On ch=1 n=g7 v=85
338592 On ch=1 n=a7 v=0
338612 On ch=1 n=f7 v=75
338646 On ch=1 n=g7 v=0
338696 On ch=1 n=e7 v=86
338728 On ch=1 n=f7 v=0
338776 On ch=1 n=f5 v=0
338788 On ch=1 n=a5 v=0
338790 On ch=1 n=d#7 v=66
338848 On ch=1 n=c5 v=0
338862 On ch=1 n=d#5 v=0
338868 On ch=1 n=e7 v=0
338876 On ch=1 n=d7 v=80
338944 On ch=1 n=d#7 v=0
338966 On ch=1 n=c7 v=83
338992 On ch=1 n=d7 v=0
339050 On ch=1 n=a#6 v=85
339078 On ch=1 n=c7 v=0
339142 On ch=1 n=a6 v=71
339230 On ch=1 n=g6 v=90
339250 On ch=1 n=a#6 v=0
339282 On ch=1 n=a6 v=0
339310 On ch=1 n=g6 v=0
339313 On ch=1 n=f6 v=76
339342 On ch=1 n=b3 v=59
339386 On ch=1 n=b3 v=0
339406 On ch=1 n=e6 v=86
339424 On ch=1 n=f6 v=0
339478 On ch=1 n=d#5 v=97
339490 On ch=1 n=g#4 v=73
339494 On ch=1 n=d#4 v=62
339498 On ch=1 n=d#6 v=81
339522 Par ch=1 c=64 v=0
339572 On ch=1 n=e6 v=0
339596 On ch=1 n=c#6 v=83
339668 On ch=1 n=d#6 v=0
339676 Par ch=1 c=64 v=127
339688 On ch=1 n=b5 v=88
339710 On ch=1 n=c#6 v=0
339776 On ch=1 n=a#5 v=78
339798 On ch=1 n=d#5 v=0
339810 On ch=1 n=b5 v=0
339868 On ch=1 n=g#5 v=65
339930 On ch=1 n=g#4 v=0
339932 On ch=1 n=d#4 v=0
339942 On ch=1 n=a#5 v=0
339954 On ch=1 n=f#5 v=73
340008 On ch=1 n=g#5 v=0
340032 On ch=1 n=f5 v=74
340050 On ch=1 n=f#5 v=0
340112 On ch=1 n=d#5 v=89
340142 On ch=1 n=f5 v=0
340210 On ch=1 n=c#5 v=83
340264 On ch=1 n=d#5 v=0
340292 On ch=1 n=b4 v=87
340308 On ch=1 n=c#5 v=0
340392 On ch=1 n=a#4 v=79
340424 On ch=1 n=b4 v=0
340478 On ch=1 n=g#4 v=71
340556 On ch=1 n=a#4 v=0
340556 On ch=1 n=f#4 v=92
340568 On ch=1 n=b2 v=111
340634 On ch=1 n=g#4 v=0
340640 On ch=1 n=f4 v=103
340656 On ch=1 n=f#4 v=0
340664 On ch=1 n=b2 v=0
340724 On ch=1 n=d#4 v=90
340744 On ch=1 n=f4 v=0
340830 On ch=1 n=c#4 v=90
340906 On ch=1 n=d#4 v=0
340924 On ch=1 n=b3 v=92
340952 On ch=1 n=c#4 v=0
341018 On ch=1 n=a#3 v=84
341066 On ch=1 n=b3 v=0
341118 On ch=1 n=g#3 v=78
341194 On ch=1 n=a#3 v=0
341210 On ch=1 n=f#3 v=86
341274 On ch=1 n=g#3 v=0
341316 On ch=1 n=f3 v=95
341344 On ch=1 n=f#3 v=0
341412 On ch=1 n=d#3 v=88
341450 On ch=1 n=f3 v=0
341516 On ch=1 n=c#3 v=86
341626 On ch=1 n=b2 v=105
341636 On ch=1 n=d#3 v=0
341706 On ch=1 n=c#3 v=0
341750 On ch=1 n=b2 v=0
341796 On ch=1 n=a#2 v=100
341812 Par ch=1 c=64 v=0
342052 On ch=1 n=f3 v=85
342055 Par ch=1 c=64 v=127
342106 On ch=1 n=a#2 v=0
342190 On ch=1 n=a#3 v=71
342292 On ch=1 n=f3 v=0
342336 On ch=1 n=d4 v=88
342352 On ch=1 n=a#3 v=0
342476 On ch=1 n=a#3 v=68
342538 On ch=1 n=d4 v=0
342606 On ch=1 n=f3 v=78
342640 On ch=1 n=a#3 v=0
342704 On ch=1 n=g5 v=103
342710 On ch=1 n=a#4 v=78
342716 On ch=1 n=d5 v=84
342720 On ch=1 n=a#2 v=70
342732 On ch=1 n=f3 v=0
342916 On ch=1 n=a#2 v=0
342920 On ch=1 n=f3 v=58
343092 On ch=1 n=a#3 v=55
343104 On ch=1 n=f3 v=0
343124 On ch=1 n=d5 v=0
343196 On ch=1 n=g5 v=0
343256 On ch=1 n=a#3 v=0
343264 On ch=1 n=f4 v=95
343284 On ch=1 n=a#4 v=0
343396 On ch=1 n=f4 v=0
343416 On ch=1 n=g5 v=97
343419 On ch=1 n=g#4 v=86
343428 On ch=1 n=a#3 v=75
343430 On ch=1 n=d5 v=74
343556 On ch=1 n=f3 v=57
343562 On ch=1 n=d5 v=0
343592 On ch=1 n=a#3 v=0
343602 On ch=1 n=f3 v=0
343605 On ch=1 n=g#4 v=0
343702 On ch=1 n=d#5 v=95
343712 On ch=1 n=d#3 v=79
343716 On ch=1 n=g4 v=71
343732 Par ch=1 c=64 v=0
343744 On ch=1 n=g5 v=0
343858 On ch=1 n=a#3 v=68
343912 On ch=1 n=d#3 v=0
343920 On ch=1 n=g4 v=0
343962 Par ch=1 c=64 v=127
343990 On ch=1 n=d#5 v=0
343998 On ch=1 n=d#4 v=72
344068 On ch=1 n=a#3 v=0
344120 On ch=1 n=g4 v=74
344136 On ch=1 n=d#4 v=0
344214 On ch=1 n=d#6 v=99
344224 On ch=1 n=g5 v=58
344232 On ch=1 n=d#5 v=67
344242 On ch=1 n=d#4 v=67
344265 On ch=1 n=g4 v=0
344372 On ch=1 n=d#4 v=0
344378 On ch=1 n=a#3 v=66
344438 On ch=1 n=a#3 v=0
344508 On ch=1 n=d#3 v=80
344514 On ch=1 n=d#5 v=0
344552 On ch=1 n=d#3 v=0
344614 On ch=1 n=c4 v=71
344618 On ch=1 n=g5 v=0
344728 On ch=1 n=d#4 v=75
344764 On ch=1 n=c4 v=0
344816 On ch=1 n=d#6 v=0
344842 On ch=1 n=a#4 v=70
344854 On ch=1 n=d#4 v=0
344992 On ch=1 n=d6 v=101
344996 On ch=1 n=a#4 v=0
345002 On ch=1 n=d#5 v=78
345010 On ch=1 n=a#5 v=50
345026 On ch=1 n=d#4 v=60
345100 On ch=1 n=a#5 v=0
345144 On ch=1 n=d#5 v=0
345162 On ch=1 n=c4 v=63
345212 On ch=1 n=d#4 v=0
345254 On ch=1 n=d6 v=0
345312 On ch=1 n=f3 v=84
345312 On ch=1 n=c6 v=89
345312 On ch=1 n=a#5 v=63
345315 On ch=1 n=d#5 v=88
345332 On ch=1 n=c4 v=0
345376 Par ch=1 c=64 v=0
345486 On ch=1 n=c4 v=70
345546 On ch=1 n=f3 v=0
345576 Par ch=1 c=64 v=127
345616 On ch=1 n=d#4 v=73
345734 On ch=1 n=d#4 v=0
345738 On ch=1 n=a#4 v=66
345766 On ch=1 n=c4 v=0
345846 On ch=1 n=a#4 v=0
345852 On ch=1 n=d#4 v=70
345922 On ch=1 n=d#5 v=0
345958 On ch=1 n=c4 v=49
345984 On ch=1 n=d#4 v=0
346044 On ch=1 n=d6 v=99
346046 On ch=1 n=f5 v=84
346048 On ch=1 n=a5 v=67
346052 On ch=1 n=f3 v=81
346092 On ch=1 n=c4 v=0
346097 On ch=1 n=a#5 v=0
346106 On ch=1 n=c6 v=0
346114 Par ch=1 c=64 v=0
346222 On ch=1 n=c4 v=37
346310 On ch=1 n=f3 v=0
346313 Par ch=1 c=64 v=127
346374 On ch=1 n=d#4 v=71
346402 On ch=1 n=c4 v=0
346464 On ch=1 n=f5 v=0
346464 On ch=1 n=d6 v=0
346482 On ch=1 n=a5 v=0
346506 On ch=1 n=d#4 v=0
346518 On ch=1 n=a4 v=57
346604 On ch=1 n=d6 v=100
346612 On ch=1 n=d#5 v=76
346616 On ch=1 n=a5 v=42
346654 On ch=1 n=d#4 v=64
346676 On ch=1 n=a4 v=0
346698 On ch=1 n=a5 v=0
346748 On ch=1 n=c4 v=50
346778 On ch=1 n=d#5 v=0
346816 On ch=1 n=c4 v=0
346822 On ch=1 n=d#4 v=0
346864 On ch=1 n=a#5 v=83
346882 On ch=1 n=a#3 v=63
346885 On ch=1 n=d5 v=67
346910 On ch=1 n=d6 v=0
346913 Par ch=1 c=64 v=0
347042 On ch=1 n=f4 v=91
347098 On ch=1 n=a#3 v=0
347144 Par ch=1 c=64 v=127
347147 On ch=1 n=d5 v=0
347196 On ch=1 n=a#4 v=64
347202 On ch=1 n=f4 v=0
347322 On ch=1 n=d5 v=83
347336 On ch=1 n=a#4 v=0
347406 On ch=1 n=a#5 v=0
347428 On ch=1 n=d5 v=0
347442 On ch=1 n=a#4 v=50
347558 On ch=1 n=f4 v=87
347586 On ch=1 n=a#4 v=0
347662 On ch=1 n=a#6 v=95
347668 On ch=1 n=f4 v=0
347668 On ch=1 n=a#5 v=76
347704 On ch=1 n=a#3 v=58
347826 On ch=1 n=f4 v=65
347842 On ch=1 n=a#3 v=0
347954 On ch=1 n=a#4 v=61
347966 On ch=1 n=f4 v=0
348104 On ch=1 n=f5 v=80
348107 On ch=1 n=a#4 v=0
348160 On ch=1 n=a#5 v=0
348204 On ch=1 n=a#6 v=0
348254 On ch=1 n=f5 v=0
348262 On ch=1 n=b6 v=118
348266 On ch=1 n=b5 v=97
348288 On ch=1 n=a#4 v=52
348438 On ch=1 n=f4 v=80
348478 On ch=1 n=f4 v=0
348488 On ch=1 n=a#4 v=0
348490 On ch=1 n=b5 v=0
348534 On ch=1 n=b6 v=0
348604 On ch=1 n=a#3 v=73
348607 On ch=1 n=c7 v=108
348618 On ch=1 n=c6 v=95
348634 Par ch=1 c=64 v=0
348764 On ch=1 n=c6 v=0
348802 Par ch=1 c=64 v=127
348804 On ch=1 n=g4 v=66
348808 On ch=1 n=c7 v=0
348810 On ch=1 n=a#3 v=0
348872 On ch=1 n=c#7 v=97
348880 On ch=1 n=g4 v=0
348884 On ch=1 n=a#6 v=83
348938 On ch=1 n=c5 v=52
349004 On ch=1 n=a#6 v=0
349009 On ch=1 n=c#7 v=0
349060 On ch=1 n=c5 v=0
349082 On ch=1 n=c7 v=106
349104 On ch=1 n=e6 v=66
349104 On ch=1 n=e5 v=77
349201 On ch=1 n=e6 v=0
349206 On ch=1 n=c7 v=0
349210 On ch=1 n=e5 v=0
349248 On ch=1 n=b6 v=112
349249 On ch=1 n=a#6 v=83
349266 On ch=1 n=c5 v=69
349332 On ch=1 n=b6 v=0
349339 On ch=1 n=a#6 v=0
349394 On ch=1 n=c5 v=0
349396 On ch=1 n=c7 v=103
349404 On ch=1 n=e6 v=75
349404 On ch=1 n=g4 v=73
349484 On ch=1 n=e6 v=0
349498 On ch=1 n=c7 v=0
349503 On ch=1 n=g4 v=0
349550 On ch=1 n=c7 v=109
349553 On ch=1 n=g#6 v=84
349616 Par ch=1 c=64 v=0
349624 On ch=1 n=a#3 v=72
349694 On ch=1 n=g#6 v=0
349732 On ch=1 n=c7 v=0
349754 Par ch=1 c=64 v=127
349806 On ch=1 n=g#7 v=97
349812 On ch=1 n=a#3 v=0
349816 On ch=1 n=g#6 v=87
349858 On ch=1 n=g#6 v=0
349896 On ch=1 n=g#7 v=0
349954 On ch=1 n=g#4 v=65
350088 On ch=1 n=c5 v=75
350132 On ch=1 n=g#4 v=0
350212 On ch=1 n=c5 v=0
350220 On ch=1 n=f5 v=78
350358 On ch=1 n=c5 v=83
350372 On ch=1 n=f5 v=0
350434 On ch=1 n=c7 v=101
350442 On ch=1 n=d#6 v=79
350506 On ch=1 n=d#6 v=0
350510 On ch=1 n=g#4 v=69
350538 On ch=1 n=c5 v=0
350562 On ch=1 n=c7 v=0
350580 On ch=1 n=g#4 v=0
350634 On ch=1 n=a#6 v=91
350646 On ch=1 n=d6 v=87
350712 On ch=1 n=a#3 v=44
350754 Par ch=1 c=64 v=0
350864 On ch=1 n=f4 v=71
350866 On ch=1 n=c7 v=100
350872 On ch=1 n=g#6 v=90
350876 Par ch=1 c=64 v=127
350930 On ch=1 n=a#6 v=0
350934 On ch=1 n=d6 v=0
350976 On ch=1 n=a#3 v=0
350980 On ch=1 n=g#6 v=0
351000 On ch=1 n=g#4 v=62
351010 On ch=1 n=c7 v=0
351046 On ch=1 n=d6 v=81
351049 On ch=1 n=a#6 v=86
351052 On ch=1 n=f4 v=0
351136 On ch=1 n=g#4 v=0
351139 On ch=1 n=a#6 v=0
351144 On ch=1 n=d5 v=73
351146 On ch=1 n=d6 v=0
351196 On ch=1 n=g#6 v=86
351204 On ch=1 n=a6 v=94
351262 On ch=1 n=a6 v=0
351280 On ch=1 n=d5 v=0
351314 On ch=1 n=g#6 v=0
351319 On ch=1 n=g#4 v=56
351346 On ch=1 n=a#6 v=78
351352 On ch=1 n=d6 v=86
351394 On ch=1 n=d6 v=0
351416 On ch=1 n=f4 v=92
351444 On ch=1 n=a#6 v=0
351490 On ch=1 n=a#6 v=96
351494 On ch=1 n=g6 v=76
351526 On ch=1 n=f4 v=0
351537 On ch=1 n=g#4 v=0
351592 On ch=1 n=a#6 v=0
351599 On ch=1 n=g6 v=0
351616 On ch=1 n=a#3 v=78
351674 On ch=1 n=g7 v=104
351692 On ch=1 n=g6 v=80
351722 Par ch=1 c=64 v=0
351824 On ch=1 n=d#4 v=67
351894 On ch=1 n=a#3 v=0
351906 Par ch=1 c=64 v=127
351908 On ch=1 n=g6 v=0
351926 On ch=1 n=g7 v=0
351960 On ch=1 n=g4 v=70
352044 On ch=1 n=g4 v=0
352062 On ch=1 n=d#5 v=83
352170 On ch=1 n=d#4 v=0
352178 On ch=1 n=d#5 v=0
352200 On ch=1 n=g4 v=74
352226 On ch=1 n=a#6 v=95
352236 On ch=1 n=d6 v=91
352274 On ch=1 n=d6 v=0
352320 On ch=1 n=a#6 v=0
352346 On ch=1 n=g4 v=0
352354 On ch=1 n=d#4 v=70
352450 On ch=1 n=g#6 v=95
352462 On ch=1 n=c6 v=81
352498 On ch=1 n=a#3 v=67
352500 On ch=1 n=d#4 v=0
352552 Par ch=1 c=64 v=0
352670 On ch=1 n=d#4 v=69
352673 On ch=1 n=a#6 v=91
352680 On ch=1 n=d#6 v=84
352690 Par ch=1 c=64 v=127
352724 On ch=1 n=a#3 v=0
352726 On ch=1 n=g#6 v=0
352744 On ch=1 n=c6 v=0
352802 On ch=1 n=d#6 v=0
352812 On ch=1 n=g#4 v=54
352818 On ch=1 n=a#6 v=0
352848 On ch=1 n=d#4 v=0
352860 On ch=1 n=g#6 v=91
352866 On ch=1 n=c6 v=81
352914 On ch=1 n=c6 v=0
352956 On ch=1 n=g#4 v=0
352968 On ch=1 n=c5 v=65
352974 On ch=1 n=g#6 v=0
352992 On ch=1 n=d#6 v=81
352996 On ch=1 n=g6 v=90
353086 On ch=1 n=d#6 v=0
353100 On ch=1 n=g#4 v=71
353118 On ch=1 n=c5 v=0
353118 On ch=1 n=g#6 v=92
353124 On ch=1 n=c6 v=84
353160 On ch=1 n=c6 v=0
353160 On ch=1 n=g6 v=0
353216 On ch=1 n=g#6 v=0
353226 On ch=1 n=d#4 v=69
353258 On ch=1 n=g#4 v=0
353258 On ch=1 n=f6 v=85
353261 On ch=1 n=g#6 v=101
353306 On ch=1 n=f6 v=0
353348 On ch=1 n=d#4 v=0
353372 On ch=1 n=g#6 v=0
353394 On ch=1 n=a#3 v=79
353414 On ch=1 n=f6 v=70
353417 On ch=1 n=f7 v=98
353428 Par ch=1 c=64 v=0
353548 On ch=1 n=f4 v=93
353612 Par ch=1 c=64 v=127
353618 On ch=1 n=a#3 v=0
353678 On ch=1 n=g#4 v=65
353686 On ch=1 n=f6 v=0
353694 On ch=1 n=f7 v=0
353748 On ch=1 n=f4 v=0
353780 On ch=1 n=d5 v=81
353816 On ch=1 n=g#4 v=0
353884 On ch=1 n=g#6 v=93
353898 On ch=1 n=g#4 v=61
353898 On ch=1 n=f6 v=74
353916 On ch=1 n=d5 v=0
353943 On ch=1 n=f6 v=0
354024 On ch=1 n=f4 v=97
354076 On ch=1 n=g#4 v=0
354116 On ch=1 n=g#6 v=0
354136 On ch=1 n=b3 v=85
354162 On ch=1 n=f6 v=80
354164 On ch=1 n=g6 v=103
354166 On ch=1 n=f4 v=0
354180 Par ch=1 c=64 v=0
354330 On ch=1 n=f4 v=94
354346 On ch=1 n=f6 v=0
354350 Par ch=1 c=64 v=127
354418 On ch=1 n=b3 v=0
354444 On ch=1 n=g6 v=0
354462 On ch=1 n=g4 v=64
354465 On ch=1 n=a#6 v=73
354475 On ch=1 n=f4 v=0
354493 On ch=1 n=g#6 v=93
354501 On ch=1 n=f6 v=88
354573 On ch=1 n=g4 v=0
354605 On ch=1 n=d5 v=69
354613 On ch=1 n=f6 v=0
354621 On ch=1 n=a#6 v=0
354683 On ch=1 n=g#6 v=0
354733 On ch=1 n=d5 v=0
354739 On ch=1 n=g4 v=67
354831 On ch=1 n=g6 v=99
354839 On ch=1 n=f6 v=88
354841 On ch=1 n=f4 v=83
354863 On ch=1 n=g4 v=0
354869 On ch=1 n=f6 v=0
354873 On ch=1 n=g6 v=0
354923 On ch=1 n=g6 v=103
354933 On ch=1 n=d#6 v=90
354941 On ch=1 n=c4 v=61
354947 On ch=1 n=f4 v=0
354961 Par ch=1 c=64 v=0
355105 On ch=1 n=d#4 v=56
355115 Par ch=1 c=64 v=127
355191 On ch=1 n=c4 v=0
355199 On ch=1 n=d#6 v=0
355251 On ch=1 n=g#6 v=100
355257 On ch=1 n=d#6 v=79
355259 On ch=1 n=g4 v=69
355287 On ch=1 n=d#4 v=0
355313 On ch=1 n=g6 v=0
355357 On ch=1 n=d#6 v=0
355363 On ch=1 n=g#6 v=0
355393 On ch=1 n=g4 v=0
355417 On ch=1 n=d#5 v=82
355565 On ch=1 n=d#5 v=0
355565 On ch=1 n=f#4 v=83
355567 On ch=1 n=a6 v=99
355573 On ch=1 n=d#6 v=81
355637 On ch=1 n=d#6 v=0
355651 On ch=1 n=a6 v=0
355681 On ch=1 n=d#4 v=71
355725 On ch=1 n=f#4 v=0
355803 On ch=1 n=d#4 v=0
355806 Par ch=1 c=64 v=0
355817 On ch=1 n=a#6 v=92
355821 On ch=1 n=f6 v=97
355821 On ch=1 n=d4 v=92
355827 On ch=1 n=a#5 v=66
355839 On ch=1 n=g#5 v=84
355963 On ch=1 n=g#4 v=68
356021 Par ch=1 c=64 v=127
356033 On ch=1 n=d4 v=0
356059 On ch=1 n=g#5 v=0
356087 On ch=1 n=a#4 v=64
356099 On ch=1 n=a#5 v=0
356143 On ch=1 n=g#4 v=0
356185 On ch=1 n=a#6 v=0
356215 On ch=1 n=f5 v=66
356245 On ch=1 n=a#4 v=0
356339 On ch=1 n=a#4 v=53
356361 On ch=1 n=f5 v=0
356449 On ch=1 n=g#4 v=83
356499 On ch=1 n=a#4 v=0
356509 On ch=1 n=g#4 v=0
356579 On ch=1 n=f6 v=0
356583 On ch=1 n=a#6 v=89
356587 On ch=1 n=g6 v=94
356589 On ch=1 n=g#5 v=77
356592 On ch=1 n=a#5 v=62
356599 On ch=1 n=d6 v=75
356607 On ch=1 n=a#3 v=84
356663 On ch=1 n=a#3 v=0
356807 On ch=1 n=g#5 v=0
356807 On ch=1 n=f4 v=88
356845 On ch=1 n=a#5 v=0
356903 On ch=1 n=d6 v=0
356919 On ch=1 n=a#6 v=0
356929 On ch=1 n=g6 v=0
356943 On ch=1 n=a#4 v=52
356955 On ch=1 n=f4 v=0
357063 On ch=1 n=d5 v=76
357073 On ch=1 n=a#4 v=0
357171 On ch=1 n=d5 v=0
357193 On ch=1 n=a#6 v=86
357196 On ch=1 n=g6 v=92
357199 On ch=1 n=g#5 v=76
357211 On ch=1 n=a#4 v=69
357211 On ch=1 n=d6 v=71
357211 On ch=1 n=a#5 v=47
357301 On ch=1 n=f4 v=85
357325 On ch=1 n=a#4 v=0
357343 On ch=1 n=f4 v=0
357353 On ch=1 n=a#6 v=0
357361 On ch=1 n=a#5 v=0
357375 On ch=1 n=g6 v=0
357395 On ch=1 n=g#5 v=0
357415 On ch=1 n=d6 v=0
357467 On ch=1 n=d#6 v=90
357481 On ch=1 n=g5 v=82
357481 Par ch=1 c=64 v=0
357481 On ch=1 n=d#3 v=86
357623 On ch=1 n=a#3 v=68
357663 On ch=1 n=d#3 v=0
357697 Par ch=1 c=64 v=127
357769 On ch=1 n=d#4 v=74
357807 On ch=1 n=g5 v=0
357810 On ch=1 n=a#3 v=0
357895 On ch=1 n=d#4 v=0
357899 On ch=1 n=g4 v=74
357903 On ch=1 n=d#6 v=0
358013 On ch=1 n=g4 v=0
358033 On ch=1 n=a#4 v=64
358141 On ch=1 n=d#5 v=83
358241 On ch=1 n=d#7 v=100
358249 On ch=1 n=d#6 v=80
358253 On ch=1 n=g6 v=85
358257 On ch=1 n=a#4 v=0
358267 On ch=1 n=d#5 v=0
358273 On ch=1 n=g5 v=83
358415 On ch=1 n=g5 v=0
358417 On ch=1 n=d#5 v=76
358543 On ch=1 n=g6 v=0
358569 On ch=1 n=a#4 v=58
358589 On ch=1 n=d#6 v=0
358597 On ch=1 n=d#5 v=0
358663 On ch=1 n=a#4 v=0
358709 On ch=1 n=d#7 v=0
358731 On ch=1 n=g4 v=90
358859 On ch=1 n=g4 v=0
358859 On ch=1 n=d7 v=100
358865 On ch=1 n=d#4 v=78
358865 On ch=1 n=d#6 v=93
358869 On ch=1 n=a#6 v=78
358979 On ch=1 n=a#3 v=68
359029 On ch=1 n=d7 v=0
359035 On ch=1 n=d#6 v=0
359051 On ch=1 n=a#6 v=0
359051 On ch=1 n=d#4 v=0
359123 On ch=1 n=c7 v=103
359125 On ch=1 n=d#6 v=81
359125 On ch=1 n=a#6 v=62
359128 On ch=1 n=a#3 v=0
359131 On ch=1 n=f3 v=92
359139 Par ch=1 c=64 v=0
359251 On ch=1 n=c4 v=73
359287 On ch=1 n=f3 v=0
359341 Par ch=1 c=64 v=127
359359 On ch=1 n=d#4 v=73
359485 On ch=1 n=a#4 v=70
359503 On ch=1 n=d#4 v=0
359503 On ch=1 n=c4 v=0
359595 On ch=1 n=d#4 v=68
359617 On ch=1 n=a#4 v=0
359641 On ch=1 n=d#6 v=0
359695 On ch=1 n=c4 v=45
359773 On ch=1 n=d#4 v=0
359803 On ch=1 n=d7 v=106
359809 On ch=1 n=f3 v=89
359813 On ch=1 n=f6 v=91
359817 On ch=1 n=a6 v=83
359831 Par ch=1 c=64 v=0
359857 On ch=1 n=c4 v=0
359869 On ch=1 n=c7 v=0
359877 On ch=1 n=a#6 v=0
359941 On ch=1 n=c4 v=43
360021 On ch=1 n=f3 v=0
360031 Par ch=1 c=64 v=127
360073 On ch=1 n=d#4 v=79
360165 On ch=1 n=f6 v=0
360181 On ch=1 n=d7 v=0
360199 On ch=1 n=a6 v=0
360202 On ch=1 n=a4 v=79
360231 On ch=1 n=d#4 v=0
360234 On ch=1 n=c4 v=0
360333 On ch=1 n=d#4 v=66
360347 On ch=1 n=d7 v=105
360353 On ch=1 n=a6 v=83
360355 On ch=1 n=d#6 v=89
360373 On ch=1 n=a4 v=0
360447 On ch=1 n=c4 v=73
360503 On ch=1 n=d#4 v=0
360505 On ch=1 n=a6 v=0
360515 On ch=1 n=c4 v=0
360589 On ch=1 n=d#6 v=0
360647 Par ch=1 c=64 v=0
360657 On ch=1 n=a#6 v=89
360661 On ch=1 n=a#2 v=88
360665 On ch=1 n=d6 v=79
360705 On ch=1 n=d7 v=0
360819 On ch=1 n=a#3 v=70
360829 Par ch=1 c=64 v=127
360847 On ch=1 n=a#2 v=0
360861 On ch=1 n=a#3 v=0
360999 On ch=1 n=f4 v=97
361039 On ch=1 n=d6 v=0
361149 On ch=1 n=a#4 v=78
361181 On ch=1 n=a#6 v=0
361183 On ch=1 n=f4 v=0
361281 On ch=1 n=a#4 v=0
361289 On ch=1 n=d5 v=81
361335 On ch=1 n=d5 v=0
361415 On ch=1 n=f5 v=88
361581 On ch=1 n=a#7 v=100
361584 On ch=1 n=a#6 v=98
361595 On ch=1 n=d6 v=92
361713 On ch=1 n=f5 v=0
361809 On ch=1 n=d6 v=0
361823 On ch=1 n=a#5 v=75
361955 On ch=1 n=a#5 v=0
361973 On ch=1 n=f5 v=71
362029 On ch=1 n=f5 v=0
362111 On ch=1 n=d5 v=91
362115 On ch=1 n=a#6 v=0
362125 On ch=1 n=a#7 v=0
362227 On ch=1 n=d5 v=0
362245 On ch=1 n=a#4 v=67
362399 On ch=1 n=f4 v=101
362489 On ch=1 n=a#4 v=0
362497 On ch=1 n=a#6 v=101
362497 On ch=1 n=a#7 v=99
362531 On ch=1 n=f4 v=0
362587 On ch=1 n=a#6 v=0
362635 On ch=1 n=a#7 v=0
362649 On ch=1 n=a#3 v=81
362757 On ch=1 n=a#7 v=101
362759 On ch=1 n=a#6 v=104
362967 Par ch=1 c=64 v=0
362983 On ch=1 n=e4 v=77
363151 Par ch=1 c=64 v=127
363159 On ch=1 n=g4 v=66
363193 On ch=1 n=e4 v=0
363205 On ch=1 n=a#3 v=0
363233 On ch=1 n=a#7 v=0
363287 On ch=1 n=g4 v=0
363313 On ch=1 n=a#6 v=0
363333 On ch=1 n=c5 v=41
363433 On ch=1 n=c5 v=0
363455 On ch=1 n=g4 v=63
363565 On ch=1 n=e4 v=79
363591 On ch=1 n=g4 v=0
363621 On ch=1 n=e4 v=0
363659 On ch=1 n=c6 v=95
363665 On ch=1 n=c5 v=89
363685 On ch=1 n=a#3 v=55
363727 On ch=1 n=d5 v=10
363807 On ch=1 n=c5 v=0
363863 On ch=1 n=e4 v=60
363881 On ch=1 n=a#3 v=0
363886 On ch=1 n=d5 v=0
363999 On ch=1 n=e4 v=0
364007 On ch=1 n=g4 v=65
364139 On ch=1 n=g4 v=0
364165 On ch=1 n=c5 v=60
364313 On ch=1 n=c5 v=0
364337 On ch=1 n=c6 v=0
364343 On ch=1 n=g4 v=77
364417 On ch=1 n=d6 v=110
364431 On ch=1 n=d5 v=87
364487 On ch=1 n=d5 v=0
364517 On ch=1 n=e4 v=65
364520 On ch=1 n=g4 v=0
364555 On ch=1 n=d6 v=0
364599 On ch=1 n=e4 v=0
364681 On ch=1 n=a#3 v=76
364733 Par ch=1 c=64 v=0
364751 On ch=1 n=d#5 v=102
364869 On ch=1 n=d#6 v=88
364871 Par ch=1 c=64 v=127
364903 On ch=1 n=a#3 v=0
364913 On ch=1 n=d#5 v=0
364933 On ch=1 n=f4 v=71
365015 On ch=1 n=f6 v=83
365039 On ch=1 n=d#6 v=0
365089 On ch=1 n=f6 v=0
365093 On ch=1 n=d#6 v=81
365125 On ch=1 n=a4 v=55
365171 On ch=1 n=f4 v=0
365181 On ch=1 n=f6 v=69
365213 On ch=1 n=d#6 v=0
365259 On ch=1 n=a4 v=0
365262 On ch=1 n=d#6 v=88
365315 On ch=1 n=f6 v=0
365365 On ch=1 n=d#6 v=0
365407 On ch=1 n=d6 v=107
365417 On ch=1 n=d5 v=93
365429 On ch=1 n=c5 v=51
365453 On ch=1 n=d5 v=0
365517 On ch=1 n=d6 v=0
365591 On ch=1 n=a4 v=60
365615 On ch=1 n=c5 v=0
365677 On ch=1 n=d#6 v=99
365689 On ch=1 n=d#5 v=86
365735 On ch=1 n=a4 v=0
365747 On ch=1 n=d#5 v=0
365753 On ch=1 n=f4 v=91
365807 On ch=1 n=f4 v=0
365827 On ch=1 n=d#6 v=0
365889 On ch=1 n=a#3 v=87
365957 On ch=1 n=g6 v=109
365971 On ch=1 n=d6 v=73
365979 On ch=1 n=g5 v=72
366009 Par ch=1 c=64 v=0
366193 On ch=1 n=g5 v=0
366193 On ch=1 n=f4 v=97
366193 Par ch=1 c=64 v=127
366261 On ch=1 n=d6 v=0
366269 On ch=1 n=a#3 v=0
366277 On ch=1 n=g#5 v=91
366279 On ch=1 n=g6 v=0
366377 On ch=1 n=g#5 v=0
366429 On ch=1 n=g6 v=108
366439 On ch=1 n=d6 v=84
366451 On ch=1 n=f4 v=0
366463 On ch=1 n=g#4 v=49
366609 On ch=1 n=g#4 v=0
366683 On ch=1 n=d5 v=75
366697 On ch=1 n=a#5 v=85
366861 On ch=1 n=d5 v=0
366913 On ch=1 n=a#5 v=0
366937 On ch=1 n=d6 v=0
366943 On ch=1 n=g#4 v=62
367009 On ch=1 n=g#5 v=84
367083 On ch=1 n=g#4 v=0
367189 On ch=1 n=f6 v=89
367251 On ch=1 n=f4 v=67
367253 On ch=1 n=g6 v=0
367373 On ch=1 n=f4 v=0
367383 On ch=1 n=d#6 v=80
367451 On ch=1 n=f6 v=0
367521 On ch=1 n=d#6 v=0
367539 On ch=1 n=g#5 v=0
367577 On ch=1 n=d#3 v=66
367591 On ch=1 n=d#6 v=73
367603 On ch=1 n=g5 v=71
367667 Par ch=1 c=64 v=0
367823 On ch=1 n=a#3 v=39
367861 On ch=1 n=d#3 v=0
367883 Par ch=1 c=64 v=127
367991 On ch=1 n=d#4 v=44
368009 On ch=1 n=a#3 v=0
368063 On ch=1 n=d#4 v=0
368125 On ch=1 n=g4 v=61
368283 On ch=1 n=d#4 v=64
368299 On ch=1 n=g4 v=0
368391 On ch=1 n=d#4 v=0
368399 On ch=1 n=a#3 v=55
368521 On ch=1 n=d#3 v=68
368545 On ch=1 n=a#3 v=0
368639 On ch=1 n=g5 v=0
368681 On ch=1 n=a#3 v=49
368691 On ch=1 n=d#3 v=0
368837 On ch=1 n=d#4 v=60
368853 On ch=1 n=d#6 v=0
368999 On ch=1 n=a#4 v=58
369013 On ch=1 n=g5 v=84
369031 On ch=1 n=d#4 v=0
369137 On ch=1 n=a#4 v=0
369143 On ch=1 n=g#5 v=83
369207 On ch=1 n=d#4 v=52
369223 On ch=1 n=g5 v=0
369237 On ch=1 n=a#3 v=0
369269 On ch=1 n=a#5 v=80
369317 On ch=1 n=g#5 v=0
369373 On ch=1 n=d#4 v=0
369389 On ch=1 n=d6 v=89
369395 On ch=1 n=a#3 v=52
369429 On ch=1 n=a#5 v=0
369491 On ch=1 n=c6 v=89
369537 On ch=1 n=a#3 v=0
369553 On ch=1 n=d#3 v=60
369556 On ch=1 n=d6 v=0
369556 Par ch=1 c=64 v=0
369577 On ch=1 n=a#5 v=84
369643 On ch=1 n=c6 v=0
369741 On ch=1 n=a#3 v=50
369761 On ch=1 n=d#3 v=0
369773 Par ch=1 c=64 v=127
369895 On ch=1 n=a#3 v=0
369895 On ch=1 n=d#4 v=55
369969 On ch=1 n=d#4 v=0
370031 On ch=1 n=g4 v=61
370145 On ch=1 n=g4 v=0
370175 On ch=1 n=d#4 v=66
370261 On ch=1 n=d#4 v=0
370283 On ch=1 n=a#3 v=56
370421 On ch=1 n=d#3 v=72
370443 On ch=1 n=a#3 v=0
370579 On ch=1 n=a#3 v=59
370585 On ch=1 n=d#3 v=0
370633 On ch=1 n=a#5 v=0
370695 On ch=1 n=d#4 v=64
370741 On ch=1 n=a#3 v=0
370831 On ch=1 n=g5 v=84
370839 On ch=1 n=a#4 v=57
370849 On ch=1 n=d#4 v=0
370939 On ch=1 n=g#5 v=81
370961 On ch=1 n=a#4 v=0
370993 On ch=1 n=g5 v=0
371049 On ch=1 n=a#5 v=79
371052 On ch=1 n=d#4 v=61
371083 On ch=1 n=g#5 v=0
371163 On ch=1 n=d6 v=83
371185 On ch=1 n=a#5 v=0
371221 On ch=1 n=d#4 v=0
371241 On ch=1 n=a#3 v=50
371267 On ch=1 n=c6 v=87
371337 On ch=1 n=d6 v=0
371367 On ch=1 n=a#5 v=86
371373 On ch=1 n=d#3 v=69
371381 On ch=1 n=a#3 v=0
371384 Par ch=1 c=64 v=0
371415 On ch=1 n=c6 v=0
371525 On ch=1 n=a#3 v=57
371571 On ch=1 n=d#3 v=0
371617 Par ch=1 c=64 v=127
371679 On ch=1 n=d4 v=55
371725 On ch=1 n=a#3 v=0
371833 On ch=1 n=d4 v=0
371843 On ch=1 n=g#4 v=61
372005 On ch=1 n=d4 v=60
372011 On ch=1 n=g#4 v=0
372129 On ch=1 n=d4 v=0
372135 On ch=1 n=a#3 v=55
372271 On ch=1 n=d#3 v=68
372285 On ch=1 n=a#3 v=0
372399 On ch=1 n=d#3 v=0
372427 On ch=1 n=a#3 v=44
372563 On ch=1 n=d4 v=62
372609 On ch=1 n=a#3 v=0
372681 On ch=1 n=f5 v=76
372691 On ch=1 n=a#5 v=0
372724 On ch=1 n=d4 v=0
372790 On ch=1 n=a#4 v=37
372818 On ch=1 n=g#5 v=84
372904 On ch=1 n=f5 v=0
372907 On ch=1 n=a#4 v=0
372944 On ch=1 n=a#5 v=75
372988 On ch=1 n=d4 v=61
372998 On ch=1 n=g#5 v=0
373056 On ch=1 n=d6 v=91
373084 On ch=1 n=a#5 v=0
373122 On ch=1 n=d4 v=0
373146 On ch=1 n=a#3 v=46
373168 On ch=1 n=c6 v=62
373234 On ch=1 n=d6 v=0
373238 On ch=1 n=a#3 v=0
373274 On ch=1 n=a#5 v=88
373288 On ch=1 n=d#3 v=58
373304 Par ch=1 c=64 v=0
373324 On ch=1 n=c6 v=0
373450 On ch=1 n=a#3 v=52
373488 On ch=1 n=d#3 v=0
373530 Par ch=1 c=64 v=127
373604 On ch=1 n=d#4 v=62
373642 On ch=1 n=a#5 v=0
373650 On ch=1 n=a#3 v=0
373726 On ch=1 n=g4 v=46
373728 On ch=1 n=d#4 v=0
373764 On ch=1 n=c#5 v=83
373872 On ch=1 n=c#5 v=0
373884 On ch=1 n=g4 v=0
373894 On ch=1 n=d#5 v=84
373934 On ch=1 n=d#4 v=53
374028 On ch=1 n=g5 v=83
374060 On ch=1 n=d#5 v=0
374074 On ch=1 n=d#4 v=0
374092 On ch=1 n=a#3 v=34
374144 On ch=1 n=c6 v=75
374174 On ch=1 n=g5 v=0
374218 On ch=1 n=a#3 v=0
374248 On ch=1 n=a#5 v=79
374288 On ch=1 n=c6 v=0
374350 Par ch=1 c=64 v=0
374358 On ch=1 n=d#3 v=44
374364 On ch=1 n=g#5 v=81
374426 On ch=1 n=a#5 v=0
374556 On ch=1 n=d#3 v=0
374568 On ch=1 n=b3 v=50
374580 Par ch=1 c=64 v=127
374738 On ch=1 n=b3 v=0
374744 On ch=1 n=d#4 v=47
374834 On ch=1 n=d#4 v=0
374900 On ch=1 n=b4 v=78
374910 On ch=1 n=g#4 v=51
375040 On ch=1 n=g#4 v=0
375122 On ch=1 n=b4 v=0
375160 On ch=1 n=d#5 v=84
375180 On ch=1 n=d#4 v=55
375294 On ch=1 n=g#5 v=0
375302 On ch=1 n=d#4 v=0
375364 On ch=1 n=f5 v=76
375370 On ch=1 n=b3 v=50
375416 On ch=1 n=b3 v=0
375420 On ch=1 n=d#5 v=0
375564 Par ch=1 c=64 v=0
375570 On ch=1 n=g5 v=78
375608 On ch=1 n=d#3 v=42
375632 On ch=1 n=f5 v=0
375770 On ch=1 n=a#3 v=41
375788 On ch=1 n=d#3 v=0
375808 Par ch=1 c=64 v=127
375914 On ch=1 n=a#3 v=0
375952 On ch=1 n=d#4 v=34
376018 On ch=1 n=d#4 v=0
376082 On ch=1 n=g4 v=52
376224 On ch=1 n=g4 v=0
376229 On ch=1 n=d#4 v=50
376294 On ch=1 n=d#4 v=0
376326 On ch=1 n=g5 v=0
376346 On ch=1 n=a#3 v=39
376462 On ch=1 n=a#3 v=0
376496 On ch=1 n=d#3 v=55
376642 On ch=1 n=d#3 v=0
376648 On ch=1 n=a#3 v=48
376814 On ch=1 n=d#4 v=47
376962 On ch=1 n=a#4 v=50
376996 On ch=1 n=d#4 v=0
377028 On ch=1 n=g5 v=76
377098 On ch=1 n=a#4 v=0
377158 On ch=1 n=g#5 v=84
377208 On ch=1 n=d#4 v=55
377224 On ch=1 n=g5 v=0
377246 On ch=1 n=a#3 v=0
377280 On ch=1 n=a#5 v=79
377314 On ch=1 n=g#5 v=0
377376 On ch=1 n=d#4 v=0
377394 On ch=1 n=d6 v=88
377397 On ch=1 n=a#3 v=49
377420 On ch=1 n=a#5 v=0
377482 Par ch=1 c=64 v=0
377487 On ch=1 n=c6 v=87
377540 On ch=1 n=d#3 v=59
377548 On ch=1 n=d6 v=0
377575 On ch=1 n=a#3 v=0
377602 On ch=1 n=a#5 v=90
377634 On ch=1 n=c6 v=0
377684 Par ch=1 c=64 v=127
377710 On ch=1 n=a#5 v=0
377798 On ch=1 n=a#3 v=38
377822 On ch=1 n=d#3 v=0
377852 On ch=1 n=a#6 v=86
377954 On ch=1 n=a#6 v=0
378050 On ch=1 n=d#4 v=43
378086 On ch=1 n=a#3 v=0
378126 On ch=1 n=a#7 v=79
378136 On ch=1 n=d#4 v=0
378260 On ch=1 n=g4 v=43
378358 On ch=1 n=g4 v=0
378398 On ch=1 n=d#4 v=50
378458 On ch=1 n=d#4 v=0
378488 On ch=1 n=a#7 v=0
378500 On ch=1 n=a#3 v=48
378630 On ch=1 n=a#3 v=0
378638 On ch=1 n=d#3 v=66
378772 On ch=1 n=d#3 v=0
378778 On ch=1 n=a#3 v=52
378916 On ch=1 n=d#4 v=55
378936 On ch=1 n=a#3 v=0
379042 On ch=1 n=g5 v=84
379050 On ch=1 n=d#4 v=0
379053 On ch=1 n=a#4 v=57
379156 On ch=1 n=a#4 v=0
379158 On ch=1 n=g#5 v=83
379206 On ch=1 n=g5 v=0
379230 On ch=1 n=d#4 v=57
379268 On ch=1 n=a#5 v=81
379306 On ch=1 n=g#5 v=0
379366 On ch=1 n=d#4 v=0
379380 On ch=1 n=a#3 v=46
379382 On ch=1 n=d6 v=84
379408 On ch=1 n=a#5 v=0
379470 On ch=1 n=c6 v=88
379496 Par ch=1 c=64 v=0
379520 On ch=1 n=d6 v=0
379523 On ch=1 n=d#3 v=66
379540 On ch=1 n=a#3 v=0
379574 On ch=1 n=a#5 v=90
379614 On ch=1 n=c6 v=0
379680 On ch=1 n=a#5 v=0
379680 Par ch=1 c=64 v=127
379746 On ch=1 n=a#3 v=42
379758 On ch=1 n=d#3 v=0
379818 On ch=1 n=a#6 v=86
379920 On ch=1 n=a#6 v=0
379978 On ch=1 n=a#3 v=0
380020 On ch=1 n=d4 v=41
380102 On ch=1 n=d4 v=0
380102 On ch=1 n=a#7 v=82
380234 On ch=1 n=g#4 v=43
380370 On ch=1 n=a#7 v=0
380390 On ch=1 n=g#4 v=0
380398 On ch=1 n=d4 v=53
380474 On ch=1 n=d4 v=0
380504 On ch=1 n=a#3 v=52
380632 On ch=1 n=a#3 v=0
380640 On ch=1 n=d#3 v=69
380778 On ch=1 n=a#3 v=49
380780 On ch=1 n=d#3 v=0
380922 On ch=1 n=d4 v=58
380956 On ch=1 n=a#3 v=0
381070 On ch=1 n=d4 v=0
381078 On ch=1 n=f5 v=75
381096 On ch=1 n=a#4 v=55
381204 On ch=1 n=g#5 v=85
381228 On ch=1 n=a#4 v=0
381268 On ch=1 n=f5 v=0
381308 On ch=1 n=d4 v=54
381330 On ch=1 n=a#5 v=80
381358 On ch=1 n=g#5 v=0
381442 On ch=1 n=d6 v=86
381454 On ch=1 n=d4 v=0
381472 On ch=1 n=a#5 v=0
381482 On ch=1 n=a#3 v=38
381534 On ch=1 n=c6 v=87
381566 On ch=1 n=a#3 v=0
381596 On ch=1 n=d6 v=0
381600 Par ch=1 c=64 v=0
381616 On ch=1 n=d#3 v=69
381644 On ch=1 n=a#5 v=86
381690 On ch=1 n=c6 v=0
381772 On ch=1 n=a#3 v=62
381810 On ch=1 n=d#3 v=0
381816 Par ch=1 c=64 v=127
381896 On ch=1 n=a#5 v=0
381926 On ch=1 n=d#4 v=65
381996 On ch=1 n=a#3 v=0
382068 On ch=1 n=d#4 v=0
382072 On ch=1 n=g4 v=64
382194 On ch=1 n=c#5 v=86
382260 On ch=1 n=g4 v=0
382302 On ch=1 n=d#4 v=47
382314 On ch=1 n=c#5 v=0
382332 On ch=1 n=d#5 v=82
382444 On ch=1 n=d#4 v=0
382462 On ch=1 n=g5 v=81
382488 On ch=1 n=d#5 v=0
382512 On ch=1 n=a#3 v=44
382588 On ch=1 n=c6 v=73
382598 On ch=1 n=g5 v=0
382622 On ch=1 n=a#3 v=0
382684 On ch=1 n=a#5 v=74
382730 On ch=1 n=c6 v=0
382784 Par ch=1 c=64 v=0
382794 On ch=1 n=d#3 v=48
382802 On ch=1 n=g#5 v=76
382846 On ch=1 n=a#5 v=0
382985 On ch=1 n=d#3 v=0
383014 On ch=1 n=b3 v=61
383030 Par ch=1 c=64 v=127
383202 On ch=1 n=b3 v=0
383204 On ch=1 n=d#4 v=51
383328 On ch=1 n=d#4 v=0
383418 On ch=1 n=b4 v=72
383418 On ch=1 n=g#4 v=45
383554 On ch=1 n=g#4 v=0
383696 On ch=1 n=d#5 v=75
383698 On ch=1 n=b4 v=0
383708 On ch=1 n=d#4 v=47
383790 On ch=1 n=d#4 v=0
383826 On ch=1 n=g#5 v=0
383888 On ch=1 n=b3 v=48
383898 On ch=1 n=f5 v=68
383938 On ch=1 n=b3 v=0
383950 On ch=1 n=d#5 v=0
384116 On ch=1 n=g5 v=63
384135 Par ch=1 c=64 v=0
384144 On ch=1 n=d#3 v=41
384154 On ch=1 n=f5 v=0
384326 On ch=1 n=a#3 v=39
384340 On ch=1 n=d#3 v=0
384366 Par ch=1 c=64 v=127
384490 On ch=1 n=a#3 v=0
384504 On ch=1 n=d#4 v=26
384574 On ch=1 n=d#4 v=0
384644 On ch=1 n=g4 v=53
384722 On ch=1 n=g4 v=0
384798 On ch=1 n=d#4 v=53
384902 On ch=1 n=d#4 v=0
384912 On ch=1 n=g5 v=0
384920 On ch=1 n=a#3 v=48
385066 On ch=1 n=a#3 v=0
385088 On ch=1 n=d#3 v=63
385218 On ch=1 n=d#3 v=0
385274 On ch=1 n=g5 v=83
385276 On ch=1 n=a#3 v=36
385496 On ch=1 n=a#5 v=77
385502 On ch=1 n=g5 v=0
385520 On ch=1 n=d#4 v=38
385534 On ch=1 n=a#3 v=0
385602 On ch=1 n=d#4 v=0
385700 On ch=1 n=a#4 v=38
385710 On ch=1 n=a#5 v=0
385710 On ch=1 n=g6 v=92
385822 On ch=1 n=a#4 v=0
385892 On ch=1 n=f6 v=86
385918 On ch=1 n=d#4 v=51
385924 On ch=1 n=g6 v=0
385974 On ch=1 n=d#4 v=0
386056 On ch=1 n=d#6 v=79
386066 On ch=1 n=a#3 v=35
386080 On ch=1 n=f6 v=0
386140 On ch=1 n=a#3 v=0
386226 Par ch=1 c=64 v=0
386232 On ch=1 n=a#5 v=64
386234 On ch=1 n=d#3 v=40
386274 On ch=1 n=d#6 v=0
386412 On ch=1 n=a#3 v=47
386426 Par ch=1 c=64 v=127
386434 On ch=1 n=d#3 v=0
386558 On ch=1 n=a#3 v=0
386592 On ch=1 n=d#4 v=45
386706 On ch=1 n=d#4 v=0
386742 On ch=1 n=g4 v=48
386908 On ch=1 n=g4 v=0
386912 On ch=1 n=d#4 v=50
386990 On ch=1 n=d#4 v=0
387030 On ch=1 n=a#3 v=41
387210 On ch=1 n=a#3 v=0
387224 On ch=1 n=d#3 v=48
387402 On ch=1 n=d#3 v=0
387452 On ch=1 n=a#3 v=31
387452 On ch=1 n=g5 v=71
387494 On ch=1 n=a#5 v=0
387716 On ch=1 n=a#3 v=0
387742 On ch=1 n=g5 v=0
387758 On ch=1 n=d#4 v=40
387760 On ch=1 n=a#5 v=63
387968 On ch=1 n=d#4 v=0
387986 On ch=1 n=a#4 v=30
388016 On ch=1 n=g6 v=77
388026 On ch=1 n=a#5 v=0
388132 On ch=1 n=a#4 v=0
388226 On ch=1 n=f6 v=71
388238 On ch=1 n=d#4 v=46
388276 On ch=1 n=g6 v=0
388410 On ch=1 n=a#3 v=33
388412 On ch=1 n=d#6 v=72
388442 On ch=1 n=d#4 v=0
388484 On ch=1 n=f6 v=0
388606 On ch=1 n=g3 v=49
388612 On ch=1 n=a#3 v=0
388612 On ch=1 n=d6 v=69
388624 Par ch=1 c=64 v=0
388654 On ch=1 n=d#6 v=0
388816 On ch=1 n=d4 v=52
388900 Par ch=1 c=64 v=127
388948 On ch=1 n=g3 v=0
388984 On ch=1 n=d4 v=0
389008 On ch=1 n=g4 v=54
389164 On ch=1 n=g4 v=0
389194 On ch=1 n=a#4 v=48
389376 On ch=1 n=d5 v=62
389400 On ch=1 n=a#4 v=0
389544 On ch=1 n=d5 v=0
389552 On ch=1 n=a#4 v=50
389800 On ch=1 n=a#4 v=0
389812 On ch=1 n=g5 v=43
389942 On ch=1 n=d6 v=0
389992 On ch=1 n=g5 v=0
390064 On ch=1 n=a#5 v=49
390096 On ch=1 n=d5 v=39
390170 On ch=1 n=d5 v=0
390304 On ch=1 n=a#5 v=0
390322 On ch=1 n=d6 v=65
390330 On ch=1 n=a#4 v=29
390394 On ch=1 n=a#4 v=0
390456 On ch=1 n=d6 v=0
390532 On ch=1 n=a#6 v=59
390576 On ch=1 n=g4 v=34
390642 On ch=1 n=g4 v=0
390756 On ch=1 n=a6 v=61
390760 On ch=1 n=d4 v=36
390800 On ch=1 n=a#6 v=0
390834 On ch=1 n=d4 v=0
391018 On ch=1 n=g6 v=50
391018 On ch=1 n=g3 v=19
391062 On ch=1 n=a6 v=0
391100 On ch=1 n=g3 v=0
391298 On ch=1 n=g2 v=34
391396 On ch=1 n=d6 v=54
391436 On ch=1 n=g6 v=0
391466 On ch=1 n=g2 v=0
391606 On ch=1 n=g3 v=11
391674 On ch=1 n=g3 v=0
391854 On ch=1 n=d4 v=34
391962 On ch=1 n=d4 v=0
392052 On ch=1 n=g4 v=49
392154 On ch=1 n=g4 v=0
392254 On ch=1 n=a#4 v=43
392476 On ch=1 n=a#4 v=0
392476 On ch=1 n=d5 v=44
392646 On ch=1 n=d5 v=0
392686 On ch=1 n=a#5 v=37
392768 On ch=1 n=a#5 v=0
392908 On ch=1 n=a#5 v=55
392962 On ch=1 n=d6 v=0
392962 On ch=1 n=g5 v=23
393048 On ch=1 n=g5 v=0
393138 On ch=1 n=a#5 v=0
393146 On ch=1 n=d6 v=62
393160 On ch=1 n=d5 v=33
393238 On ch=1 n=d5 v=0
393390 On ch=1 n=a#4 v=17
393394 On ch=1 n=a#6 v=61
393402 On ch=1 n=d6 v=0
393470 On ch=1 n=a#4 v=0
393628 On ch=1 n=a6 v=65
393708 On ch=1 n=g4 v=2
393728 On ch=1 n=a#6 v=0
393820 On ch=1 n=g4 v=0
393828 On ch=1 n=g6 v=75
393852 On ch=1 n=a6 v=0
393854 On ch=1 n=d4 v=18
393942 On ch=1 n=d4 v=0
394010 On ch=1 n=g6 v=0
394034 On ch=1 n=g3 v=25
394042 On ch=1 n=d6 v=60
394126 On ch=1 n=g3 v=0
394226 On ch=1 n=a#5 v=56
394252 On ch=1 n=d6 v=0
394260 On ch=1 n=d4 v=34
394324 On ch=1 n=d4 v=0
394434 On ch=1 n=a#5 v=0
394440 On ch=1 n=d6 v=68
394476 On ch=1 n=d5 v=36
394582 On ch=1 n=d6 v=0
394620 On ch=1 n=a#6 v=60
394826 On ch=1 n=a6 v=67
394886 On ch=1 n=a#6 v=0
394990 On ch=1 n=d4 v=2
395020 On ch=1 n=g6 v=65
395032 On ch=1 n=a6 v=0
395208 On ch=1 n=g6 v=0
395252 On ch=1 n=d6 v=48
395448 On ch=1 n=d6 v=0
395466 On ch=1 n=a#5 v=40
395658 On ch=1 n=a#5 v=0
395684 On ch=1 n=d6 v=55
395742 On ch=1 n=d6 v=0
395896 On ch=1 n=a#6 v=52
396128 On ch=1 n=a6 v=63
396166 On ch=1 n=d4 v=0
396180 On ch=1 n=d5 v=0
396192 On ch=1 n=a#6 v=0
396364 On ch=1 n=g6 v=67
396428 On ch=1 n=a6 v=0
396636 On ch=1 n=d6 v=59
396688 On ch=1 n=g6 v=0
396912 On ch=1 n=a6 v=72
396960 On ch=1 n=d6 v=0
397254 On ch=1 n=c7 v=60
397274 Par ch=1 c=64 v=0
397298 On ch=1 n=a6 v=0
397590 On ch=1 n=a#6 v=54
397658 Par ch=1 c=64 v=127
397700 On ch=1 n=c7 v=0
397898 On ch=1 n=g6 v=62
397922 On ch=1 n=a#6 v=0
398150 Par ch=1 c=64 v=0
398153 On ch=1 n=d#6 v=52
398206 On ch=1 n=g6 v=0
398348 Par ch=1 c=64 v=127
398408 On ch=1 n=a#5 v=54
398442 Par ch=1 c=64 v=0
398498 On ch=1 n=d#6 v=0
398626 Par ch=1 c=64 v=127
398670 On ch=1 n=g5 v=59
398686 Par ch=1 c=64 v=0
398712 On ch=1 n=a#5 v=0
398794 Par ch=1 c=64 v=127
398942 On ch=1 n=c5 v=45
398980 Par ch=1 c=64 v=0
398990 On ch=1 n=g5 v=0
399256 On ch=1 n=d5 v=50
399334 On ch=1 n=c5 v=0
399588 On ch=1 n=f5 v=39
399636 On ch=1 n=d5 v=0
399886 Par ch=1 c=64 v=127
399942 On ch=1 n=d#5 v=48
400048 On ch=1 n=f5 v=0
400070 Par ch=1 c=64 v=0
400300 Par ch=1 c=64 v=127
400536 On ch=1 n=d4 v=30
400546 Par ch=1 c=64 v=0
400662 On ch=1 n=d#5 v=0
401084 Par ch=1 c=64 v=127
401336 On ch=1 n=d3 v=15
401514 On ch=1 n=d3 v=0
401870 On ch=1 n=d3 v=23
401976 On ch=1 n=d3 v=0
402754 On ch=1 n=c5 v=29
403046 On ch=1 n=d5 v=36
403092 On ch=1 n=d3 v=18
403168 On ch=1 n=d3 v=0
403284 On ch=1 n=f#5 v=38
403404 On ch=1 n=f#5 v=0
403530 On ch=1 n=a#5 v=30
403556 On ch=1 n=d3 v=20
403708 On ch=1 n=a#5 v=0
403734 On ch=1 n=d3 v=0
403796 On ch=1 n=a5 v=32
403852 On ch=1 n=d5 v=0
403944 On ch=1 n=c5 v=0
404222 On ch=1 n=g5 v=31
404320 On ch=1 n=a5 v=0
404694 Par ch=1 c=64 v=0
404742 On ch=1 n=d5 v=27
404742 On ch=1 n=d3 v=19
404754 On ch=1 n=a#4 v=7
404934 On ch=1 n=d3 v=0
404956 Par ch=1 c=64 v=127
404958 On ch=1 n=d5 v=0
404962 On ch=1 n=a#4 v=0
405232 On ch=1 n=a#4 v=15
405232 On ch=1 n=d5 v=28
405246 On ch=1 n=d3 v=26
405250 On ch=1 n=d4 v=0
405308 On ch=1 n=d3 v=0
405322 On ch=1 n=d5 v=0
405341 On ch=1 n=a#4 v=0
405392 On ch=1 n=g5 v=0
405720 On ch=1 n=d6 v=59
405736 On ch=1 n=d5 v=51
406189 On ch=1 n=g4 v=25
406190 On ch=1 n=d4 v=19
406194 On ch=1 n=g5 v=19
406284 On ch=1 n=d4 v=0
406329 On ch=1 n=g4 v=0
406340 On ch=1 n=g5 v=0
406642 On ch=1 n=g5 v=25
406660 On ch=1 n=g4 v=15
406662 On ch=1 n=d4 v=22
406696 On ch=1 n=d5 v=0
406756 On ch=1 n=d4 v=0
406774 On ch=1 n=g4 v=0
406814 On ch=1 n=g5 v=0
407174 On ch=1 n=c6 v=45
407184 On ch=1 n=c5 v=37
407318 On ch=1 n=d6 v=0
407538 Par ch=1 c=64 v=0
407616 On ch=1 n=d#5 v=23
407616 On ch=1 n=g4 v=29
407619 On ch=1 n=d4 v=31
407622 On ch=1 n=g5 v=25
407776 On ch=1 n=d4 v=0
407794 On ch=1 n=d#5 v=0
407799 Par ch=1 c=64 v=127
407806 On ch=1 n=g4 v=0
407814 On ch=1 n=g5 v=0
408206 On ch=1 n=g5 v=12
408210 On ch=1 n=d#5 v=15
408214 On ch=1 n=d4 v=19
408220 On ch=1 n=g4 v=2
408292 On ch=1 n=c5 v=0
408344 On ch=1 n=g5 v=0
408354 On ch=1 n=g4 v=0
408392 On ch=1 n=d4 v=0
408396 On ch=1 n=d#5 v=0
408412 On ch=1 n=c6 v=0
409102 On ch=1 n=c5 v=55
409398 On ch=1 n=d5 v=57
409424 On ch=1 n=d3 v=27
409628 On ch=1 n=f#5 v=50
409638 On ch=1 n=d3 v=0
409842 Par ch=1 c=64 v=0
409860 On ch=1 n=a#5 v=54
409880 On ch=1 n=d3 v=29
409900 On ch=1 n=f#5 v=0
410026 Par ch=1 c=64 v=127
410040 On ch=1 n=d3 v=0
410043 On ch=1 n=a#5 v=0
410082 On ch=1 n=a5 v=39
410146 On ch=1 n=d5 v=0
410214 On ch=1 n=c5 v=0
410376 On ch=1 n=g5 v=49
410426 On ch=1 n=a5 v=0
410734 Par ch=1 c=64 v=0
410800 On ch=1 n=d3 v=28
410803 On ch=1 n=d5 v=34
410812 On ch=1 n=a#4 v=19
410976 On ch=1 n=d3 v=0
410990 On ch=1 n=a#4 v=0
410993 Par ch=1 c=64 v=127
410996 On ch=1 n=d5 v=0
411254 On ch=1 n=d5 v=28
411258 On ch=1 n=a#4 v=20
411278 On ch=1 n=d3 v=17
411344 On ch=1 n=d5 v=0
411370 On ch=1 n=d3 v=0
411387 On ch=1 n=g5 v=0
411406 On ch=1 n=a#4 v=0
411888 On ch=1 n=e5 v=57
412318 Par ch=1 c=64 v=0
412334 On ch=1 n=c#5 v=38
412337 On ch=1 n=d3 v=16
412344 On ch=1 n=a#4 v=21
412344 On ch=1 n=g4 v=28
412528 On ch=1 n=d3 v=0
412530 On ch=1 n=g4 v=0
412561 On ch=1 n=a#4 v=0
412561 Par ch=1 c=64 v=127
412582 On ch=1 n=c#5 v=0
412786 On ch=1 n=c#5 v=27
412796 On ch=1 n=g4 v=27
412796 On ch=1 n=d3 v=24
412799 On ch=1 n=a#4 v=22
412912 On ch=1 n=d3 v=0
412922 On ch=1 n=g4 v=0
412960 On ch=1 n=a#4 v=0
412990 On ch=1 n=e5 v=0
413074 On ch=1 n=c#5 v=0
413302 On ch=1 n=f#5 v=35
413790 Par ch=1 c=64 v=0
413826 On ch=1 n=f#4 v=14
413826 On ch=1 n=d3 v=19
413827 On ch=1 n=a4 v=18
413832 On ch=1 n=d5 v=25
414032 On ch=1 n=d3 v=0
414046 On ch=1 n=f#4 v=0
414052 Par ch=1 c=64 v=127
414057 On ch=1 n=a4 v=0
414074 On ch=1 n=d5 v=0
414428 On ch=1 n=d5 v=18
414432 On ch=1 n=f#4 v=12
414432 On ch=1 n=d3 v=15
414440 On ch=1 n=a4 v=3
414604 On ch=1 n=d3 v=0
414626 On ch=1 n=f#4 v=0
414648 On ch=1 n=a4 v=0
414862 On ch=1 n=d5 v=0
415382 On ch=1 n=c5 v=36
415718 On ch=1 n=d5 v=55
415754 On ch=1 n=d3 v=16
415762 On ch=1 n=f#5 v=0
415962 On ch=1 n=d3 v=0
415984 On ch=1 n=f#5 v=57
416218 On ch=1 n=a#5 v=57
416222 On ch=1 n=f#5 v=0
416246 On ch=1 n=d3 v=19
416348 On ch=1 n=d5 v=0
416390 On ch=1 n=a#5 v=0
416420 On ch=1 n=d3 v=0
416460 On ch=1 n=a5 v=54
416560 On ch=1 n=c5 v=0
416824 On ch=1 n=g5 v=47
416906 On ch=1 n=a5 v=0
417248 Par ch=1 c=64 v=0
417286 On ch=1 n=a#4 v=17
417286 On ch=1 n=d3 v=22
417288 On ch=1 n=d5 v=30
417494 Par ch=1 c=64 v=127
417496 On ch=1 n=d5 v=0
417506 On ch=1 n=a#4 v=0
417509 On ch=1 n=d3 v=0
417777 On ch=1 n=d5 v=33
417783 On ch=1 n=a#4 v=20
417785 On ch=1 n=d3 v=28
417863 On ch=1 n=d5 v=0
417869 On ch=1 n=a#4 v=0
417925 On ch=1 n=g5 v=0
417931 On ch=1 n=d3 v=0
418251 On ch=1 n=d6 v=73
418255 On ch=1 n=d5 v=49
418653 On ch=1 n=g4 v=20
418655 On ch=1 n=a#4 v=17
418659 On ch=1 n=a#5 v=28
418663 On ch=1 n=d4 v=24
418667 On ch=1 n=g5 v=32
418747 On ch=1 n=g4 v=0
418757 On ch=1 n=d4 v=0
418837 On ch=1 n=a#4 v=0
418859 On ch=1 n=a#5 v=0
418877 On ch=1 n=g5 v=0
419107 On ch=1 n=a#5 v=42
419115 On ch=1 n=a#4 v=28
419115 On ch=1 n=g5 v=33
419121 On ch=1 n=g4 v=32
419127 On ch=1 n=d4 v=29
419243 On ch=1 n=g4 v=0
419247 On ch=1 n=d4 v=0
419267 On ch=1 n=d5 v=0
419293 On ch=1 n=a#4 v=0
419437 On ch=1 n=a#5 v=0
419461 On ch=1 n=g5 v=0
419527 On ch=1 n=e6 v=80
419535 On ch=1 n=e5 v=80
419619 On ch=1 n=d6 v=0
419943 On ch=1 n=a#4 v=32
419949 On ch=1 n=g4 v=37
419951 On ch=1 n=a#5 v=38
419953 On ch=1 n=g5 v=36
419957 On ch=1 n=d4 v=39
420081 On ch=1 n=g4 v=0
420105 On ch=1 n=d4 v=0
420119 On ch=1 n=g5 v=0
420125 On ch=1 n=a#5 v=0
420149 On ch=1 n=a#4 v=0
420501 On ch=1 n=a#5 v=25
420503 On ch=1 n=g5 v=35
420505 On ch=1 n=a#4 v=21
420531 On ch=1 n=d4 v=25
420553 On ch=1 n=g4 v=31
420591 On ch=1 n=e5 v=0
420699 On ch=1 n=g4 v=0
420727 On ch=1 n=g5 v=0
420751 On ch=1 n=e6 v=0
420753 On ch=1 n=a#5 v=0
420791 On ch=1 n=a#4 v=0
420815 On ch=1 n=d4 v=0
421549 On ch=1 n=a#4 v=26
421901 On ch=1 n=c#5 v=46
421921 On ch=1 n=d3 v=28
422013 On ch=1 n=a#4 v=0
422185 On ch=1 n=d3 v=0
422185 On ch=1 n=e5 v=57
422415 On ch=1 n=e5 v=0
422427 On ch=1 n=c#5 v=0
422429 On ch=1 n=a5 v=42
422445 On ch=1 n=d3 v=37
422641 On ch=1 n=d3 v=0
422661 On ch=1 n=g5 v=61
422677 On ch=1 n=a5 v=0
422729 On ch=1 n=g5 v=0
422945 On ch=1 n=g5 v=51
423357 On ch=1 n=a#4 v=24
423359 On ch=1 n=e5 v=36
423361 On ch=1 n=c#5 v=33
423367 On ch=1 n=d3 v=35
423391 Par ch=1 c=64 v=0
423531 On ch=1 n=c#5 v=0
423555 On ch=1 n=e5 v=0
423559 Par ch=1 c=64 v=127
423579 On ch=1 n=d3 v=0
423585 On ch=1 n=a#4 v=0
423779 On ch=1 n=e5 v=47
423781 On ch=1 n=d3 v=57
423783 On ch=1 n=a#4 v=33
423785 On ch=1 n=c#5 v=31
423803 On ch=1 n=g5 v=0
423837 On ch=1 n=d3 v=0
423839 On ch=1 n=a#4 v=0
423847 On ch=1 n=c#5 v=0
423891 On ch=1 n=e5 v=0
424233 On ch=1 n=e6 v=84
424241 On ch=1 n=e5 v=74
424619 On ch=1 n=a#5 v=32
424619 On ch=1 n=c#6 v=44
424627 On ch=1 n=g5 v=39
424635 On ch=1 n=d4 v=18
424637 On ch=1 n=a#4 v=28
424637 On ch=1 n=g4 v=48
424743 On ch=1 n=g4 v=0
424755 On ch=1 n=d4 v=0
424797 On ch=1 n=g5 v=0
424809 On ch=1 n=a#4 v=0
424811 On ch=1 n=a#5 v=0
424825 On ch=1 n=c#6 v=0
424827 On ch=1 n=e5 v=0
424993 On ch=1 n=c#6 v=48
425001 On ch=1 n=a#5 v=34
425009 On ch=1 n=g5 v=41
425011 On ch=1 n=d4 v=43
425012 On ch=1 n=a#4 v=43
425015 On ch=1 n=g4 v=43
425069 On ch=1 n=d4 v=0
425071 On ch=1 n=g4 v=0
425103 On ch=1 n=a#4 v=0
425123 On ch=1 n=e6 v=0
425127 On ch=1 n=g5 v=0
425175 On ch=1 n=a#5 v=0
425231 On ch=1 n=c#6 v=0
425325 On ch=1 n=f#6 v=93
425333 On ch=1 n=f#5 v=80
425487 On ch=1 n=f#5 v=0
425673 On ch=1 n=g5 v=39
425681 On ch=1 n=c#6 v=36
425684 On ch=1 n=a#4 v=38
425684 On ch=1 n=a#5 v=31
425695 On ch=1 n=g4 v=39
425695 On ch=1 n=d4 v=41
425781 On ch=1 n=d4 v=0
425807 On ch=1 n=g4 v=0
425841 On ch=1 n=a#4 v=0
425851 On ch=1 n=g5 v=0
425861 On ch=1 n=c#6 v=0
425873 On ch=1 n=a#5 v=0
426013 On ch=1 n=c#6 v=59
426025 On ch=1 n=g4 v=47
426025 On ch=1 n=a#5 v=43
426033 On ch=1 n=a#4 v=39
426049 On ch=1 n=g5 v=34
426063 On ch=1 n=d4 v=34
426113 On ch=1 n=f#6 v=0
426117 On ch=1 n=g4 v=0
426163 On ch=1 n=a#4 v=0
426171 On ch=1 n=d4 v=0
426189 On ch=1 n=g5 v=0
426209 On ch=1 n=a#5 v=0
426251 On ch=1 n=c#6 v=0
426335 On ch=1 n=e6 v=90
426347 On ch=1 n=e5 v=80
426655 On ch=1 n=c#6 v=57
426655 On ch=1 n=g5 v=58
426658 On ch=1 n=a#5 v=46
426661 On ch=1 n=a#4 v=39
426669 On ch=1 n=d4 v=50
426677 On ch=1 n=g4 v=42
426743 On ch=1 n=e5 v=0
426785 On ch=1 n=g4 v=0
426788 On ch=1 n=d4 v=0
426811 On ch=1 n=g5 v=0
426853 On ch=1 n=a#4 v=0
426853 On ch=1 n=a#5 v=0
426901 On ch=1 n=e6 v=0
426933 On ch=1 n=c#6 v=0
427127 On ch=1 n=f#6 v=96
427135 On ch=1 n=f#5 v=84
427231 On ch=1 n=f#5 v=0
427263 On ch=1 n=f#6 v=0
427353 On ch=1 n=f#6 v=84
427356 On ch=1 n=f#5 v=90
427519 On ch=1 n=f#5 v=0
427665 On ch=1 n=c#6 v=55
427671 On ch=1 n=a#4 v=53
427671 On ch=1 n=g5 v=54
427674 On ch=1 n=a#5 v=45
427677 On ch=1 n=d4 v=60
427685 On ch=1 n=g4 v=47
427749 On ch=1 n=g4 v=0
427765 On ch=1 n=d4 v=0
427809 On ch=1 n=g5 v=0
427809 On ch=1 n=a#4 v=0
427835 On ch=1 n=a#5 v=0
427851 On ch=1 n=c#6 v=0
427965 On ch=1 n=a#4 v=62
427971 On ch=1 n=g5 v=65
427971 On ch=1 n=g4 v=64
427979 On ch=1 n=a#5 v=54
427981 On ch=1 n=c#6 v=62
427989 On ch=1 n=d4 v=49
428035 On ch=1 n=f#6 v=0
428073 On ch=1 n=g4 v=0
428101 On ch=1 n=g5 v=0
428104 On ch=1 n=a#4 v=0
428131 On ch=1 n=d4 v=0
428133 On ch=1 n=a#5 v=0
428149 On ch=1 n=c#6 v=0
428243 On ch=1 n=e6 v=95
428261 On ch=1 n=e5 v=92
428563 On ch=1 n=c#6 v=67
428569 On ch=1 n=a#5 v=53
428569 On ch=1 n=g5 v=68
428572 On ch=1 n=d4 v=66
428581 On ch=1 n=a#4 v=50
428583 On ch=1 n=g4 v=55
428645 Par ch=1 c=64 v=0
428723 On ch=1 n=e5 v=0
428739 On ch=1 n=d4 v=0
428739 On ch=1 n=g5 v=0
428753 Par ch=1 c=64 v=127
428777 On ch=1 n=g4 v=0
428783 On ch=1 n=a#5 v=0
428817 On ch=1 n=a#4 v=0
428825 On ch=1 n=e6 v=0
428843 On ch=1 n=c#6 v=0
428997 On ch=1 n=f#6 v=102
428999 On ch=1 n=f#5 v=90
429093 On ch=1 n=f#5 v=0
429123 On ch=1 n=f#6 v=0
429193 On ch=1 n=f#6 v=88
429193 On ch=1 n=f#5 v=88
429317 On ch=1 n=f#5 v=0
429491 On ch=1 n=c#6 v=62
429495 On ch=1 n=g5 v=63
429495 On ch=1 n=a#4 v=65
429505 On ch=1 n=a#5 v=48
429505 On ch=1 n=g4 v=63
429507 On ch=1 n=d4 v=63
429569 On ch=1 n=g4 v=0
429611 On ch=1 n=a#4 v=0
429621 On ch=1 n=d4 v=0
429623 On ch=1 n=g5 v=0
429641 On ch=1 n=a#5 v=0
429679 On ch=1 n=c#6 v=0
429789 On ch=1 n=a#4 v=60
429792 On ch=1 n=g5 v=76
429795 On ch=1 n=g4 v=64
429797 On ch=1 n=a#5 v=58
429799 On ch=1 n=c#6 v=60
429813 On ch=1 n=d4 v=60
429893 On ch=1 n=f#6 v=0
429903 On ch=1 n=g4 v=0
429913 On ch=1 n=d4 v=0
429947 On ch=1 n=g5 v=0
429961 On ch=1 n=a#5 v=0
429969 On ch=1 n=a#4 v=0
429981 On ch=1 n=c#6 v=0
430069 On ch=1 n=e6 v=101
430075 On ch=1 n=e5 v=97
430261 On ch=1 n=e5 v=0
430391 On ch=1 n=c#6 v=68
430391 On ch=1 n=g5 v=74
430394 On ch=1 n=g4 v=78
430397 On ch=1 n=a#5 v=50
430401 On ch=1 n=a#4 v=57
430404 On ch=1 n=d4 v=59
430431 On ch=1 n=e6 v=0
430465 On ch=1 n=d4 v=0
430501 On ch=1 n=g4 v=0
430509 On ch=1 n=a#4 v=0
430525 On ch=1 n=a#5 v=0
430527 On ch=1 n=g5 v=0
430573 On ch=1 n=c#6 v=0
430827 On ch=1 n=f#6 v=100
430833 On ch=1 n=f#5 v=96
430983 On ch=1 n=f#5 v=0
430999 On ch=1 n=f#6 v=0
431091 On ch=1 n=a6 v=111
431107 On ch=1 n=a5 v=102
431441 On ch=1 n=a#5 v=64
431444 On ch=1 n=c#6 v=63
431447 On ch=1 n=e6 v=74
431449 On ch=1 n=a#4 v=64
431451 On ch=1 n=e5 v=83
431451 On ch=1 n=c#5 v=72
431473 Par ch=1 c=64 v=0
431625 Par ch=1 c=64 v=127
431675 On ch=1 n=e5 v=0
431685 On ch=1 n=c#5 v=0
431693 On ch=1 n=e6 v=0
431707 On ch=1 n=c#6 v=0
431707 On ch=1 n=a#5 v=0
431717 On ch=1 n=a#4 v=0
431851 On ch=1 n=a#5 v=61
431855 On ch=1 n=c#6 v=57
431859 On ch=1 n=e6 v=68
431859 On ch=1 n=c#5 v=61
431861 On ch=1 n=a#4 v=55
431865 On ch=1 n=e5 v=69
431997 On ch=1 n=c#5 v=0
431999 On ch=1 n=e5 v=0
432007 On ch=1 n=a5 v=0
432017 On ch=1 n=a#4 v=0
432020 On ch=1 n=a6 v=0
432035 On ch=1 n=a#5 v=0
432069 On ch=1 n=c#6 v=0
432085 On ch=1 n=e6 v=0
432161 On ch=1 n=g6 v=108
432167 On ch=1 n=g5 v=109
432547 On ch=1 n=a#5 v=73
432549 On ch=1 n=c#5 v=73
432549 On ch=1 n=c#6 v=68
432551 On ch=1 n=a#4 v=57
432553 On ch=1 n=e6 v=78
432557 On ch=1 n=e5 v=75
432779 On ch=1 n=c#5 v=0
432781 On ch=1 n=g5 v=0
432783 On ch=1 n=e5 v=0
432803 On ch=1 n=a#4 v=0
432835 On ch=1 n=a#5 v=0
432847 On ch=1 n=c#6 v=0
432849 On ch=1 n=g6 v=0
432899 On ch=1 n=e6 v=0
433009 On ch=1 n=a6 v=110
433017 On ch=1 n=a5 v=100
433095 On ch=1 n=a5 v=0
433355 On ch=1 n=a6 v=0
433647 On ch=1 n=a#6 v=96
433650 On ch=1 n=a#5 v=90
433651 On ch=1 n=d6 v=92
433655 On ch=1 n=d2 v=101
433657 On ch=1 n=d3 v=98
433763 Par ch=1 c=64 v=0
433881 On ch=1 n=d2 v=0
433943 On ch=1 n=d3 v=0
433961 Par ch=1 c=64 v=127
434169 On ch=1 n=a#5 v=0
434199 On ch=1 n=d6 v=0
434303 On ch=1 n=a#6 v=0
434325 On ch=1 n=a#4 v=78
434333 On ch=1 n=d4 v=80
434587 On ch=1 n=a#7 v=102
434599 On ch=1 n=d7 v=96
434793 On ch=1 n=d7 v=0
434859 On ch=1 n=a#7 v=0
434871 On ch=1 n=d4 v=0
434957 On ch=1 n=c8 v=111
434960 On ch=1 n=d#7 v=95
434965 On ch=1 n=a#4 v=0
434971 On ch=1 n=d5 v=87
434985 On ch=1 n=g4 v=79
435165 On ch=1 n=d#7 v=0
435177 On ch=1 n=c8 v=0
435207 On ch=1 n=d5 v=0
435245 On ch=1 n=a#7 v=92
435251 On ch=1 n=g4 v=0
435251 On ch=1 n=d7 v=92
435355 On ch=1 n=d7 v=0
435389 On ch=1 n=a#7 v=0
435465 On ch=1 n=a7 v=105
435467 On ch=1 n=c7 v=104
435471 On ch=1 n=g5 v=83
435473 On ch=1 n=a#4 v=59
435553 On ch=1 n=a7 v=0
435569 On ch=1 n=c7 v=0
435639 On ch=1 n=g5 v=0
435679 On ch=1 n=g7 v=98
435683 On ch=1 n=a#6 v=88
435787 On ch=1 n=a#6 v=0
435799 On ch=1 n=g7 v=0
435831 On ch=1 n=a#4 v=0
435865 On ch=1 n=f#7 v=99
435868 On ch=1 n=a6 v=100
435879 On ch=1 n=d5 v=65
435889 On ch=1 n=g4 v=74
435949 On ch=1 n=a6 v=0
435979 On ch=1 n=f#7 v=0
436055 On ch=1 n=g7 v=105
436058 On ch=1 n=a#6 v=95
436159 On ch=1 n=d5 v=0
436183 On ch=1 n=g7 v=0
436201 On ch=1 n=a#6 v=0
436215 On ch=1 n=g4 v=0
436299 On ch=1 n=f7 v=108
436302 On ch=1 n=a6 v=104
436312 On ch=1 n=a#4 v=72
436314 On ch=1 n=d4 v=70
436488 On ch=1 n=a#4 v=0
436524 On ch=1 n=d4 v=0
436552 On ch=1 n=f7 v=0
436564 On ch=1 n=a6 v=0
436786 On ch=1 n=d#7 v=95
436792 On ch=1 n=g6 v=95
436818 On ch=1 n=d#7 v=0
436832 On ch=1 n=g6 v=0
436904 On ch=1 n=g6 v=98
436904 On ch=1 n=d#7 v=91
436908 On ch=1 n=d3 v=96
436908 Par ch=1 c=64 v=0
436910 On ch=1 n=d2 v=99
436984 On ch=1 n=d2 v=0
437020 On ch=1 n=d3 v=0
437048 Par ch=1 c=64 v=127
437116 On ch=1 n=g6 v=0
437168 On ch=1 n=d#7 v=0
437227 On ch=1 n=f#6 v=95
437232 On ch=1 n=d7 v=101
437302 On ch=1 n=f#6 v=0
437308 On ch=1 n=d7 v=0
437442 On ch=1 n=d#6 v=90
437444 On ch=1 n=c7 v=98
437452 On ch=1 n=d4 v=75
437452 On ch=1 n=c5 v=71
437460 On ch=1 n=f#4 v=62
437514 On ch=1 n=f#4 v=0
437522 On ch=1 n=d4 v=0
437544 On ch=1 n=d#6 v=0
437550 On ch=1 n=c7 v=0
437568 On ch=1 n=c5 v=0
437634 On ch=1 n=a#6 v=89
437638 On ch=1 n=d6 v=94
437724 On ch=1 n=a#6 v=0
437732 On ch=1 n=d6 v=0
437812 On ch=1 n=a6 v=97
437815 On ch=1 n=c6 v=91
437818 On ch=1 n=d5 v=68
437820 On ch=1 n=f#4 v=75
437882 On ch=1 n=c6 v=0
437920 On ch=1 n=a6 v=0
437938 On ch=1 n=d5 v=0
437980 On ch=1 n=a#5 v=92
437980 On ch=1 n=g6 v=100
438068 On ch=1 n=g6 v=0
438071 On ch=1 n=a#5 v=0
438081 On ch=1 n=c5 v=55
438149 On ch=1 n=d5 v=53
438193 On ch=1 n=f#6 v=96
438201 On ch=1 n=a5 v=85
438223 On ch=1 n=f#5 v=80
438335 On ch=1 n=a5 v=0
438353 On ch=1 n=f#6 v=0
438427 On ch=1 n=d5 v=0
438435 On ch=1 n=d#6 v=85
438437 On ch=1 n=c6 v=88
438497 On ch=1 n=c5 v=0
438509 On ch=1 n=f#5 v=0
438512 On ch=1 n=f#4 v=0
438515 On ch=1 n=c6 v=0
438555 On ch=1 n=d#6 v=0
438619 On ch=1 n=d6 v=98
438622 On ch=1 n=c6 v=80
438703 On ch=1 n=d6 v=0
438747 On ch=1 n=c6 v=0
438815 On ch=1 n=f#4 v=79
438817 On ch=1 n=d5 v=84
438821 On ch=1 n=b5 v=103
438821 On ch=1 n=d6 v=97
438827 On ch=1 n=c5 v=69
438921 On ch=1 n=d6 v=0
438939 On ch=1 n=b5 v=0
439009 On ch=1 n=a#5 v=93
439017 On ch=1 n=d6 v=84
439065 On ch=1 n=d6 v=0
439109 On ch=1 n=a#5 v=0
439153 On ch=1 n=d6 v=98
439167 On ch=1 n=a5 v=84
439215 On ch=1 n=a5 v=0
439229 On ch=1 n=d6 v=0
439275 On ch=1 n=c5 v=0
439291 On ch=1 n=g#5 v=97
439293 On ch=1 n=d6 v=93
439327 On ch=1 n=d5 v=0
439363 On ch=1 n=d6 v=0
439393 On ch=1 n=g#5 v=0
439415 On ch=1 n=d6 v=106
439425 On ch=1 n=a5 v=84
439455 On ch=1 n=f#4 v=0
439473 On ch=1 n=a5 v=0
439515 On ch=1 n=d6 v=0
439561 On ch=1 n=a#5 v=95
439563 On ch=1 n=d6 v=111
439575 On ch=1 n=c5 v=95
439578 On ch=1 n=f#4 v=78
439581 On ch=1 n=d4 v=79
439703 On ch=1 n=d6 v=0
439723 On ch=1 n=a#5 v=0
439859 On ch=1 n=d6 v=104
439861 On ch=1 n=a5 v=104
439997 On ch=1 n=d6 v=0
440001 On ch=1 n=a5 v=0
440185 On ch=1 n=c6 v=102
440185 On ch=1 n=d6 v=108
440241 Par ch=1 c=64 v=0
440379 Par ch=1 c=64 v=127
440413 On ch=1 n=d6 v=0
440485 On ch=1 n=c6 v=0
440599 On ch=1 n=a#5 v=101
440605 On ch=1 n=d6 v=101
440623 On ch=1 n=c5 v=0
440703 On ch=1 n=f#4 v=0
440707 On ch=1 n=d4 v=0
440865 On ch=1 n=d6 v=0
441010 On ch=1 n=a#5 v=0
441085 Par ch=1 c=64 v=0
441091 On ch=1 n=g5 v=107
441091 On ch=1 n=d6 v=110
441095 On ch=1 n=g2 v=106
441095 On ch=1 n=g3 v=106
441185 On ch=1 n=g2 v=0
441195 On ch=1 n=g5 v=0
441217 On ch=1 n=g3 v=0
441223 Par ch=1 c=64 v=127
441227 On ch=1 n=d6 v=0
441497 On ch=1 n=a#7 v=92
441505 On ch=1 n=g7 v=87
441511 On ch=1 n=d7 v=85
441605 On ch=1 n=g7 v=0
441611 On ch=1 n=a#7 v=0
441621 On ch=1 n=a6 v=79
441651 On ch=1 n=d7 v=0
441677 On ch=1 n=a6 v=0
441741 On ch=1 n=d5 v=63
441741 On ch=1 n=a#4 v=51
441744 On ch=1 n=g5 v=66
441789 On ch=1 n=g5 v=0
441809 On ch=1 n=d5 v=0
441849 On ch=1 n=g7 v=76
441849 On ch=1 n=d7 v=56
441849 On ch=1 n=a#6 v=56
441857 On ch=1 n=a#4 v=0
441889 On ch=1 n=g7 v=0
441897 On ch=1 n=d7 v=0
441901 On ch=1 n=a#6 v=0
441945 Par ch=1 c=64 v=0
441965 On ch=1 n=g7 v=61
441965 On ch=1 n=d7 v=94
441968 On ch=1 n=a#3 v=93
441969 On ch=1 n=a#6 v=74
442027 On ch=1 n=a#3 v=0
442043 On ch=1 n=g7 v=0
442065 On ch=1 n=f#6 v=92
442083 Par ch=1 c=64 v=127
442085 On ch=1 n=d7 v=0
442107 On ch=1 n=a#6 v=0
442165 On ch=1 n=f#6 v=0
442195 On ch=1 n=g5 v=78
442203 On ch=1 n=a#4 v=56
442207 On ch=1 n=d5 v=68
442253 On ch=1 n=g5 v=0
442259 On ch=1 n=d5 v=0
442277 On ch=1 n=d7 v=68
442281 On ch=1 n=g6 v=67
442281 On ch=1 n=a#6 v=55
442321 On ch=1 n=d7 v=0
442325 On ch=1 n=a#6 v=0
442329 On ch=1 n=a#4 v=0
442331 On ch=1 n=g6 v=0
442387 On ch=1 n=d7 v=72
442391 On ch=1 n=g6 v=99
442391 On ch=1 n=a#6 v=67
442393 Par ch=1 c=64 v=0
442419 On ch=1 n=d4 v=97
442451 On ch=1 n=d4 v=0
442467 Par ch=1 c=64 v=127
442479 On ch=1 n=d7 v=0
442497 On ch=1 n=g6 v=0
442502 On ch=1 n=c#6 v=84
442513 On ch=1 n=a#6 v=0
442576 On ch=1 n=c#6 v=0
442615 On ch=1 n=g5 v=67
442623 On ch=1 n=d5 v=46
442626 On ch=1 n=a#4 v=47
442695 On ch=1 n=a#6 v=65
442697 On ch=1 n=d5 v=0
442698 On ch=1 n=d6 v=79
442701 On ch=1 n=g6 v=76
442732 On ch=1 n=a#6 v=0
442735 On ch=1 n=d6 v=0
442749 On ch=1 n=g5 v=0
442755 On ch=1 n=a#4 v=0
442791 On ch=1 n=g6 v=0
442817 On ch=1 n=g4 v=89
442817 On ch=1 n=a#6 v=59
442823 On ch=1 n=d6 v=69
442825 On ch=1 n=g6 v=94
442853 Par ch=1 c=64 v=0
442883 On ch=1 n=g4 v=0
442907 On ch=1 n=a#5 v=78
442943 On ch=1 n=d6 v=0
442943 Par ch=1 c=64 v=127
442951 On ch=1 n=g6 v=0
442979 On ch=1 n=a#6 v=0
443019 On ch=1 n=a#5 v=0
443019 On ch=1 n=g5 v=78
443025 On ch=1 n=c5 v=65
443029 On ch=1 n=d#5 v=69
443029 On ch=1 n=a4 v=59
443065 On ch=1 n=g5 v=0
443091 On ch=1 n=d#5 v=0
443099 On ch=1 n=c5 v=0
443133 On ch=1 n=c7 v=73
443133 On ch=1 n=d#6 v=51
443139 On ch=1 n=a4 v=0
443139 On ch=1 n=g6 v=39
443171 On ch=1 n=c7 v=0
443175 Par ch=1 c=64 v=0
443183 On ch=1 n=d#6 v=0
443211 On ch=1 n=g6 v=0
443227 On ch=1 n=c7 v=94
443235 On ch=1 n=d#6 v=75
443241 On ch=1 n=g6 v=65
443247 On ch=1 n=a3 v=64
443299 On ch=1 n=a3 v=0
443343 Par ch=1 c=64 v=127
443349 On ch=1 n=c7 v=0
443359 On ch=1 n=g6 v=0
443361 On ch=1 n=d6 v=79
443383 On ch=1 n=d#6 v=0
443397 On ch=1 n=d6 v=0
443459 On ch=1 n=c#6 v=82
443461 On ch=1 n=g5 v=57
443463 On ch=1 n=c5 v=26
443466 On ch=1 n=d#5 v=43
443530 On ch=1 n=d#5 v=0
443551 On ch=1 n=c6 v=79
443555 On ch=1 n=c5 v=0
443561 On ch=1 n=g5 v=0
443567 On ch=1 n=c#6 v=0
443591 On ch=1 n=c6 v=0
443635 Par ch=1 c=64 v=0
443640 On ch=1 n=g6 v=97
443640 On ch=1 n=c7 v=101
443644 On ch=1 n=a4 v=73
443647 On ch=1 n=d#6 v=86
443723 On ch=1 n=a4 v=0
443745 On ch=1 n=c7 v=0
443745 On ch=1 n=d6 v=89
443748 On ch=1 n=g6 v=0
443777 On ch=1 n=d#6 v=0
443791 On ch=1 n=d6 v=0
443805 Par ch=1 c=64 v=127
443847 On ch=1 n=c#6 v=79
443850 On ch=1 n=f#5 v=63
443854 On ch=1 n=d5 v=59
443855 On ch=1 n=c5 v=64
443897 On ch=1 n=f#5 v=0
443900 On ch=1 n=d5 v=0
443909 On ch=1 n=c5 v=0
443943 On ch=1 n=c#6 v=0
443947 On ch=1 n=c6 v=85
443993 On ch=1 n=c6 v=0
444049 On ch=1 n=d#6 v=90
444049 On ch=1 n=c7 v=103
444049 Par ch=1 c=64 v=0
444055 On ch=1 n=d4 v=98
444057 On ch=1 n=f#6 v=73
444087 On ch=1 n=d4 v=0
444111 On ch=1 n=f#6 v=0
444129 On ch=1 n=c7 v=0
444131 On ch=1 n=d6 v=90
444175 On ch=1 n=d#6 v=0
444187 On ch=1 n=d6 v=0
444187 Par ch=1 c=64 v=127
444247 On ch=1 n=c#6 v=78
444251 On ch=1 n=f#5 v=79
444263 On ch=1 n=d5 v=39
444271 On ch=1 n=c5 v=63
444291 On ch=1 n=f#6 v=53
444319 On ch=1 n=d5 v=0
444337 On ch=1 n=f#6 v=0
444357 On ch=1 n=c6 v=70
444371 On ch=1 n=f#5 v=0
444379 On ch=1 n=c5 v=0
444389 On ch=1 n=c#6 v=0
444389 Par ch=1 c=64 v=0
444405 On ch=1 n=c6 v=0
444443 On ch=1 n=a6 v=84
444445 On ch=1 n=f#6 v=65
444449 On ch=1 n=d6 v=85
444453 On ch=1 n=a4 v=92
444511 Par ch=1 c=64 v=127
444547 On ch=1 n=a4 v=0
444557 On ch=1 n=d6 v=0
444559 On ch=1 n=a6 v=0
444564 On ch=1 n=c6 v=70
444599 On ch=1 n=f#6 v=0
444602 Par ch=1 c=64 v=0
444612 On ch=1 n=c6 v=0
444654 On ch=1 n=a#6 v=85
444657 On ch=1 n=a#5 v=93
444659 On ch=1 n=d6 v=67
444659 On ch=1 n=g4 v=81
444661 On ch=1 n=g6 v=67
444661 On ch=1 n=d5 v=73
444665 On ch=1 n=g5 v=95
444737 On ch=1 n=a#5 v=0
444742 On ch=1 n=g5 v=0
444744 On ch=1 n=d6 v=0
444746 On ch=1 n=d5 v=0
444751 On ch=1 n=g4 v=0
444752 On ch=1 n=g6 v=0
444756 On ch=1 n=a#6 v=0
444773 Par ch=1 c=64 v=127
444977 On ch=1 n=a#7 v=92
444979 On ch=1 n=g3 v=100
444981 On ch=1 n=g7 v=85
444989 On ch=1 n=d7 v=90
445061 On ch=1 n=a#7 v=0
445069 On ch=1 n=g3 v=0
445072 On ch=1 n=a6 v=87
445076 On ch=1 n=g7 v=0
445099 On ch=1 n=d7 v=0
445127 On ch=1 n=a6 v=0
445213 On ch=1 n=g5 v=76
445221 On ch=1 n=d5 v=67
445223 On ch=1 n=a#4 v=55
445259 On ch=1 n=g5 v=0
445265 On ch=1 n=d5 v=0
445289 On ch=1 n=a#6 v=85
445293 On ch=1 n=g7 v=85
445296 On ch=1 n=d7 v=73
445331 On ch=1 n=g7 v=0
445341 On ch=1 n=a#6 v=0
445343 On ch=1 n=a#4 v=0
445349 On ch=1 n=d7 v=0
445371 Par ch=1 c=64 v=0
445409 On ch=1 n=d7 v=85
445409 On ch=1 n=a#6 v=85
445409 On ch=1 n=g7 v=44
445425 On ch=1 n=a#3 v=92
445469 On ch=1 n=a#3 v=0
445473 On ch=1 n=g7 v=0
445489 On ch=1 n=f#6 v=86
445503 On ch=1 n=d7 v=0
445511 On ch=1 n=a#6 v=0
445511 Par ch=1 c=64 v=127
445553 On ch=1 n=f#6 v=0
445633 On ch=1 n=g5 v=84
445639 On ch=1 n=a#4 v=66
445643 On ch=1 n=d5 v=75
445687 On ch=1 n=d5 v=0
445690 On ch=1 n=g5 v=0
445723 On ch=1 n=a#6 v=69
445726 On ch=1 n=d7 v=72
445733 On ch=1 n=g6 v=73
445751 On ch=1 n=a#4 v=0
445765 On ch=1 n=d7 v=0
445767 On ch=1 n=a#6 v=0
445781 On ch=1 n=g6 v=0
445825 On ch=1 n=d7 v=80
445833 On ch=1 n=a#6 v=70
445837 On ch=1 n=g6 v=95
445849 Par ch=1 c=64 v=0
445852 On ch=1 n=d4 v=98
445887 On ch=1 n=d4 v=0
445903 On ch=1 n=d7 v=0
445923 On ch=1 n=c#6 v=77
445943 On ch=1 n=g6 v=0
445955 On ch=1 n=a#6 v=0
445957 Par ch=1 c=64 v=127
446021 On ch=1 n=c#6 v=0
446035 On ch=1 n=g5 v=72
446039 On ch=1 n=a#4 v=51
446045 On ch=1 n=d5 v=51
446109 On ch=1 n=d5 v=0
446129 On ch=1 n=g6 v=62
446129 On ch=1 n=d6 v=72
446130 On ch=1 n=a#6 v=74
446167 On ch=1 n=a#4 v=0
446171 On ch=1 n=g5 v=0
446173 On ch=1 n=d6 v=0
446176 On ch=1 n=a#6 v=0
446179 On ch=1 n=g6 v=0
446247 On ch=1 n=g4 v=92
446247 On ch=1 n=a#6 v=72
446259 On ch=1 n=g6 v=102
446261 On ch=1 n=d6 v=76
446263 Par ch=1 c=64 v=0
446337 On ch=1 n=a#5 v=77
446353 On ch=1 n=g4 v=0
446369 On ch=1 n=d6 v=0
446371 On ch=1 n=g6 v=0
446387 Par ch=1 c=64 v=127
446407 On ch=1 n=a#6 v=0
446447 On ch=1 n=a#5 v=0
446457 On ch=1 n=g5 v=83
446459 On ch=1 n=a4 v=59
446467 On ch=1 n=c5 v=63
446469 On ch=1 n=d#5 v=70
446503 On ch=1 n=g5 v=0
446521 On ch=1 n=d#5 v=0
446531 On ch=1 n=c5 v=0
446559 On ch=1 n=a4 v=0
446559 On ch=1 n=g6 v=49
446565 On ch=1 n=d#6 v=64
446565 On ch=1 n=c7 v=81
446599 On ch=1 n=c7 v=0
446605 On ch=1 n=d#6 v=0
446617 On ch=1 n=g6 v=0
446617 Par ch=1 c=64 v=0
446657 On ch=1 n=c7 v=87
446659 On ch=1 n=g6 v=88
446671 On ch=1 n=d#6 v=58
446717 On ch=1 n=a3 v=57
446761 On ch=1 n=g6 v=0
446771 Par ch=1 c=64 v=127
446783 On ch=1 n=c7 v=0
446783 On ch=1 n=d6 v=77
446797 On ch=1 n=a3 v=0
446815 On ch=1 n=d#6 v=0
446821 On ch=1 n=d6 v=0
446889 On ch=1 n=c#6 v=76
446889 On ch=1 n=d#5 v=60
446892 On ch=1 n=g5 v=72
446895 On ch=1 n=c5 v=60
446979 On ch=1 n=c6 v=62
446985 On ch=1 n=g5 v=0
446991 On ch=1 n=d#5 v=0
447001 On ch=1 n=c#6 v=0
447009 On ch=1 n=c5 v=0
447023 On ch=1 n=c6 v=0
447065 On ch=1 n=a4 v=84
447068 On ch=1 n=c7 v=103
447068 On ch=1 n=g6 v=94
447077 On ch=1 n=d#6 v=80
447077 Par ch=1 c=64 v=0
447163 On ch=1 n=d6 v=90
447179 On ch=1 n=c7 v=0
447182 On ch=1 n=g6 v=0
447205 On ch=1 n=a4 v=0
447211 On ch=1 n=d#6 v=0
447241 On ch=1 n=d6 v=0
447263 Par ch=1 c=64 v=127
447271 On ch=1 n=c#6 v=83
447274 On ch=1 n=f#5 v=71
447284 On ch=1 n=c5 v=71
447298 On ch=1 n=d5 v=57
447326 On ch=1 n=f#5 v=0
447344 On ch=1 n=d5 v=0
447344 On ch=1 n=c5 v=0
447359 On ch=1 n=c6 v=84
447382 On ch=1 n=c#6 v=0
447415 On ch=1 n=c6 v=0
447468 On ch=1 n=c7 v=101
447468 On ch=1 n=d#6 v=89
447472 On ch=1 n=f#6 v=64
447482 On ch=1 n=d4 v=90
447546 On ch=1 n=d6 v=85
447551 On ch=1 n=f#6 v=0
447563 On ch=1 n=d4 v=0
447574 On ch=1 n=c7 v=0
447590 On ch=1 n=d#6 v=0
447620 On ch=1 n=d6 v=0
447658 On ch=1 n=c#6 v=80
447658 On ch=1 n=f#5 v=72
447682 On ch=1 n=c5 v=54
447696 On ch=1 n=d5 v=47
447730 On ch=1 n=f#6 v=11
447750 On ch=1 n=d5 v=0
447756 On ch=1 n=c5 v=0
447762 On ch=1 n=c6 v=73
447772 On ch=1 n=f#5 v=0
447780 On ch=1 n=f#6 v=0
447798 On ch=1 n=c#6 v=0
447808 On ch=1 n=c6 v=0
447864 On ch=1 n=a6 v=88
447868 On ch=1 n=a4 v=84
447869 On ch=1 n=f#6 v=52
447870 On ch=1 n=d6 v=50
447874 Par ch=1 c=64 v=0
447967 On ch=1 n=a6 v=0
447969 On ch=1 n=d6 v=0
447972 On ch=1 n=a4 v=0
447975 On ch=1 n=c6 v=60
447998 Par ch=1 c=64 v=127
448013 On ch=1 n=f#6 v=0
448086 On ch=1 n=c6 v=0
448086 On ch=1 n=a#6 v=87
448088 Par ch=1 c=64 v=0
448090 On ch=1 n=g4 v=69
448092 On ch=1 n=a#5 v=92
448092 On ch=1 n=g5 v=84
448092 On ch=1 n=g6 v=86
448092 On ch=1 n=a#4 v=70
448095 On ch=1 n=d6 v=70
448096 On ch=1 n=d5 v=65
448192 On ch=1 n=g5 v=0
448194 On ch=1 n=a#5 v=0
448196 On ch=1 n=d6 v=0
448198 On ch=1 n=d5 v=0
448202 On ch=1 n=a#4 v=0
448202 On ch=1 n=g4 v=0
448208 On ch=1 n=g6 v=0
448226 Par ch=1 c=64 v=127
448240 On ch=1 n=a#6 v=0
448358 On ch=1 n=g#6 v=101
448361 On ch=1 n=c4 v=91
448366 Par ch=1 c=64 v=0
448474 On ch=1 n=g#7 v=65
448480 On ch=1 n=d#7 v=56
448506 On ch=1 n=g#6 v=0
448580 Par ch=1 c=64 v=127
448588 On ch=1 n=g#6 v=75
448596 On ch=1 n=d#7 v=0
448596 On ch=1 n=g#7 v=0
448624 On ch=1 n=c4 v=0
448650 On ch=1 n=g#6 v=0
448748 On ch=1 n=g#6 v=62
448754 On ch=1 n=d#6 v=55
448812 On ch=1 n=d#6 v=0
448834 On ch=1 n=g5 v=75
448836 On ch=1 n=d#5 v=71
448838 On ch=1 n=g#4 v=54
448858 On ch=1 n=g#6 v=0
448886 On ch=1 n=g5 v=0
448950 On ch=1 n=g6 v=90
448958 On ch=1 n=d#6 v=59
448962 On ch=1 n=d#5 v=0
448986 On ch=1 n=g6 v=0
449002 On ch=1 n=d#6 v=0
449016 On ch=1 n=g#4 v=0
449096 On ch=1 n=f#5 v=87
449104 On ch=1 n=d4 v=92
449148 Par ch=1 c=64 v=0
449226 On ch=1 n=f#5 v=0
449228 On ch=1 n=f#6 v=80
449306 On ch=1 n=f#6 v=0
449334 Par ch=1 c=64 v=127
449370 On ch=1 n=f#6 v=73
449376 On ch=1 n=c5 v=45
449376 On ch=1 n=a4 v=53
449378 On ch=1 n=d5 v=61
449426 On ch=1 n=a4 v=0
449442 On ch=1 n=c5 v=0
449446 On ch=1 n=d5 v=0
449466 On ch=1 n=f#6 v=0
449494 On ch=1 n=f#7 v=81
449506 On ch=1 n=a6 v=29
449518 On ch=1 n=d4 v=0
449578 On ch=1 n=a6 v=0
449628 On ch=1 n=g6 v=79
449640 On ch=1 n=f#7 v=0
449654 On ch=1 n=g3 v=83
449676 On ch=1 n=g6 v=0
449726 On ch=1 n=a#6 v=47
449728 On ch=1 n=g3 v=0
449728 On ch=1 n=g7 v=97
449812 On ch=1 n=g7 v=0
449840 On ch=1 n=a#6 v=0
449856 On ch=1 n=g6 v=66
449864 On ch=1 n=d5 v=72
449868 On ch=1 n=a#4 v=53
449876 On ch=1 n=g4 v=61
449908 On ch=1 n=g6 v=0
449910 On ch=1 n=d5 v=0
449933 On ch=1 n=g4 v=0
449933 On ch=1 n=a#4 v=0
449950 On ch=1 n=g6 v=59
449972 On ch=1 n=a#5 v=43
450002 On ch=1 n=g6 v=0
450036 On ch=1 n=a#5 v=0
450088 On ch=1 n=g#5 v=86
450090 On ch=1 n=c4 v=89
450132 Par ch=1 c=64 v=0
450192 On ch=1 n=g#6 v=72
450197 On ch=1 n=g#5 v=0
450204 On ch=1 n=d#6 v=59
450244 On ch=1 n=d#6 v=0
450300 On ch=1 n=g#6 v=0
450326 On ch=1 n=d#5 v=69
450326 On ch=1 n=g#4 v=52
450346 Par ch=1 c=64 v=127
450350 On ch=1 n=g#6 v=88
450440 On ch=1 n=g#6 v=0
450452 On ch=1 n=g#7 v=72
450455 On ch=1 n=d#7 v=61
450562 On ch=1 n=g#7 v=0
450562 On ch=1 n=g#6 v=85
450565 On ch=1 n=d#7 v=0
450572 On ch=1 n=g#4 v=0
450578 On ch=1 n=d#5 v=0
450596 On ch=1 n=c4 v=0
450606 On ch=1 n=g#6 v=0
450720 On ch=1 n=g#6 v=59
450732 On ch=1 n=d#6 v=57
450798 On ch=1 n=d#6 v=0
450838 On ch=1 n=g#6 v=0
450842 On ch=1 n=g#4 v=60
450846 On ch=1 n=d#5 v=74
450848 On ch=1 n=g5 v=77
450904 On ch=1 n=g5 v=0
450956 On ch=1 n=g6 v=47
450958 On ch=1 n=d#5 v=0
450959 On ch=1 n=d#6 v=50
451006 On ch=1 n=d#6 v=0
451018 On ch=1 n=g#4 v=0
451024 On ch=1 n=g6 v=0
451072 On ch=1 n=f#5 v=90
451076 On ch=1 n=d4 v=94
451130 Par ch=1 c=64 v=0
451198 On ch=1 n=f#5 v=0
451216 On ch=1 n=f#6 v=83
451308 On ch=1 n=f#6 v=0
451316 Par ch=1 c=64 v=127
451324 On ch=1 n=c5 v=43
451326 On ch=1 n=d5 v=57
451332 On ch=1 n=a4 v=54
451354 On ch=1 n=f#6 v=87
451426 On ch=1 n=d5 v=0
451426 On ch=1 n=c5 v=0
451432 On ch=1 n=a4 v=0
451472 On ch=1 n=f#6 v=0
451476 On ch=1 n=f#7 v=79
451476 On ch=1 n=a6 v=41
451496 On ch=1 n=d4 v=0
451532 On ch=1 n=a6 v=0
451596 On ch=1 n=g6 v=83
451624 On ch=1 n=f#7 v=0
451626 On ch=1 n=g3 v=83
451652 On ch=1 n=g6 v=0
451704 On ch=1 n=g3 v=0
451712 On ch=1 n=g7 v=90
451714 On ch=1 n=a#6 v=57
451764 On ch=1 n=a#6 v=0
451804 On ch=1 n=g7 v=0
451834 On ch=1 n=g6 v=96
451836 On ch=1 n=d5 v=66
451839 On ch=1 n=a#4 v=48
451842 On ch=1 n=g4 v=32
451872 On ch=1 n=g6 v=0
451884 On ch=1 n=d5 v=0
451904 On ch=1 n=g4 v=0
451906 On ch=1 n=a#4 v=0
451955 On ch=1 n=a#5 v=74
451956 On ch=1 n=g6 v=81
452038 Par ch=1 c=64 v=0
452058 On ch=1 n=g6 v=0
452066 On ch=1 n=b3 v=99
452088 On ch=1 n=a#5 v=0
452108 On ch=1 n=f5 v=93
452198 On ch=1 n=b3 v=0
452208 On ch=1 n=f5 v=0
452214 On ch=1 n=g#5 v=48
452214 On ch=1 n=f6 v=70
452238 Par ch=1 c=64 v=127
452266 On ch=1 n=g#5 v=0
452282 On ch=1 n=f6 v=0
452346 On ch=1 n=f6 v=89
452360 On ch=1 n=d5 v=71
452376 On ch=1 n=g#4 v=60
452376 On ch=1 n=f4 v=79
452416 On ch=1 n=f6 v=0
452450 On ch=1 n=d5 v=0
452460 On ch=1 n=f7 v=88
452466 On ch=1 n=g#6 v=69
452482 On ch=1 n=f4 v=0
452504 On ch=1 n=g#4 v=0
452542 On ch=1 n=f7 v=0
452558 On ch=1 n=f6 v=88
452580 On ch=1 n=c4 v=93
452584 On ch=1 n=g#6 v=0
452590 On ch=1 n=f6 v=0
452698 On ch=1 n=d#6 v=81
452718 On ch=1 n=g#5 v=54
452766 On ch=1 n=g#5 v=0
452800 On ch=1 n=d#6 v=0
452803 On ch=1 n=d#5 v=88
452806 On ch=1 n=c5 v=74
452810 On ch=1 n=g#4 v=66
452816 On ch=1 n=d#4 v=67
452868 On ch=1 n=c4 v=0
452898 On ch=1 n=d#5 v=0
452906 On ch=1 n=d#6 v=61
452912 On ch=1 n=g#5 v=73
452942 On ch=1 n=c5 v=0
452972 On ch=1 n=d#4 v=0
452976 On ch=1 n=g#4 v=0
452978 On ch=1 n=g#5 v=0
453004 On ch=1 n=d#6 v=0
453004 Par ch=1 c=64 v=0
453026 On ch=1 n=d4 v=96
453034 On ch=1 n=d5 v=92
453102 On ch=1 n=d5 v=0
453140 On ch=1 n=d6 v=69
453152 On ch=1 n=g#5 v=27
453176 On ch=1 n=d6 v=0
453190 Par ch=1 c=64 v=127
453224 On ch=1 n=g#5 v=0
453244 On ch=1 n=d6 v=74
453248 On ch=1 n=b4 v=69
453250 On ch=1 n=g#4 v=57
453255 On ch=1 n=f4 v=80
453314 On ch=1 n=f4 v=0
453324 On ch=1 n=g#4 v=0
453336 On ch=1 n=d6 v=0
453350 On ch=1 n=b4 v=0
453350 On ch=1 n=g#6 v=79
453350 On ch=1 n=d7 v=83
453382 On ch=1 n=d4 v=0
453450 On ch=1 n=d7 v=0
453466 On ch=1 n=g#6 v=0
453466 On ch=1 n=d6 v=61
453474 On ch=1 n=d#4 v=95
453508 On ch=1 n=d6 v=0
453574 On ch=1 n=g#5 v=78
453588 On ch=1 n=c6 v=36
453656 On ch=1 n=c6 v=0
453664 On ch=1 n=g#4 v=74
453678 On ch=1 n=c5 v=94
453722 On ch=1 n=g#5 v=0
453772 On ch=1 n=c5 v=0
453774 On ch=1 n=g#4 v=0
453774 Par ch=1 c=64 v=0
453782 On ch=1 n=c6 v=68
453786 On ch=1 n=d#5 v=67
453796 On ch=1 n=d#4 v=0
453848 On ch=1 n=d#5 v=0
453874 On ch=1 n=f#3 v=88
453882 On ch=1 n=c5 v=95
453898 On ch=1 n=c6 v=0
453960 On ch=1 n=f#3 v=0
453974 On ch=1 n=c6 v=67
453974 Par ch=1 c=64 v=127
453977 On ch=1 n=c5 v=0
454018 On ch=1 n=c6 v=0
454104 On ch=1 n=c6 v=74
454110 On ch=1 n=d#5 v=76
454120 On ch=1 n=f#4 v=58
454123 On ch=1 n=c5 v=42
454194 On ch=1 n=c7 v=86
454198 On ch=1 n=c5 v=0
454198 On ch=1 n=d#6 v=68
454208 On ch=1 n=c6 v=0
454232 On ch=1 n=d#5 v=0
454244 On ch=1 n=f#4 v=0
454278 On ch=1 n=d#6 v=0
454318 On ch=1 n=c7 v=0
454332 On ch=1 n=c6 v=90
454346 On ch=1 n=a#4 v=62
454352 On ch=1 n=d5 v=73
454364 On ch=1 n=d6 v=49
454366 On ch=1 n=g4 v=43
454390 On ch=1 n=d5 v=0
454410 On ch=1 n=a#4 v=0
454416 On ch=1 n=d6 v=0
454418 On ch=1 n=c7 v=73
454421 On ch=1 n=g4 v=0
454421 On ch=1 n=d#6 v=67
454442 On ch=1 n=c6 v=0
454474 On ch=1 n=g6 v=32
454478 On ch=1 n=d#6 v=0
454500 On ch=1 n=c7 v=0
454544 On ch=1 n=g6 v=0
454547 On ch=1 n=a#5 v=92
454552 On ch=1 n=g3 v=87
454640 On ch=1 n=a#6 v=75
454658 On ch=1 n=g3 v=0
454660 On ch=1 n=d6 v=49
454676 On ch=1 n=a#5 v=0
454680 Par ch=1 c=64 v=0
454726 On ch=1 n=d6 v=0
454748 On ch=1 n=c4 v=82
454750 On ch=1 n=a#5 v=77
454768 On ch=1 n=a#6 v=0
454808 On ch=1 n=c4 v=0
454844 On ch=1 n=a#6 v=69
454880 Par ch=1 c=64 v=127
454882 On ch=1 n=d6 v=55
454900 On ch=1 n=a#5 v=0
454926 On ch=1 n=d6 v=0
454944 On ch=1 n=a#6 v=0
454968 On ch=1 n=a5 v=74
454980 On ch=1 n=g5 v=77
454980 On ch=1 n=d#5 v=64
454980 On ch=1 n=a4 v=47
455020 On ch=1 n=g5 v=0
455022 On ch=1 n=d#5 v=0
455036 On ch=1 n=a4 v=0
455062 On ch=1 n=c6 v=68
455070 On ch=1 n=a6 v=75
455086 On ch=1 n=a5 v=0
455150 On ch=1 n=c6 v=0
455170 On ch=1 n=g5 v=90
455178 On ch=1 n=a6 v=0
455180 On ch=1 n=d4 v=96
455202 Par ch=1 c=64 v=0
455274 On ch=1 n=a#5 v=73
455277 On ch=1 n=g6 v=92
455318 On ch=1 n=g5 v=0
455322 On ch=1 n=g6 v=0
455322 On ch=1 n=d4 v=0
455356 Par ch=1 c=64 v=127
455370 On ch=1 n=f#5 v=87
455372 On ch=1 n=d5 v=69
455376 On ch=1 n=c5 v=57
455378 On ch=1 n=a4 v=62
455386 On ch=1 n=a#5 v=0
455434 On ch=1 n=d5 v=0
455444 On ch=1 n=f#6 v=90
455450 On ch=1 n=a4 v=0
455450 On ch=1 n=c5 v=0
455453 On ch=1 n=a5 v=44
455492 On ch=1 n=f#5 v=0
455548 On ch=1 n=f#6 v=0
455555 On ch=1 n=a5 v=0
455602 Par ch=1 c=64 v=0
455612 On ch=1 n=a#5 v=78
455614 On ch=1 n=g6 v=108
455617 On ch=1 n=g5 v=92
455622 On ch=1 n=d5 v=78
455622 On ch=1 n=g4 v=71
455622 On ch=1 n=a#4 v=57
455704 On ch=1 n=a#5 v=0
455708 On ch=1 n=g5 v=0
455732 On ch=1 n=g6 v=0
455738 On ch=1 n=d5 v=0
455748 On ch=1 n=g4 v=0
455751 On ch=1 n=a#4 v=0
455756 Par ch=1 c=64 v=127
455848 Par ch=1 c=64 v=0
455858 On ch=1 n=c4 v=78
455858 On ch=1 n=g#6 v=99
455972 On ch=1 n=g#7 v=75
455980 On ch=1 n=d#7 v=70
456000 On ch=1 n=g#6 v=0
456032 Par ch=1 c=64 v=127
456086 On ch=1 n=g#6 v=86
456089 On ch=1 n=g#7 v=0
456093 On ch=1 n=d#7 v=0
456093 On ch=1 n=c4 v=0
456156 On ch=1 n=g#6 v=0
456240 On ch=1 n=g#6 v=67
456250 On ch=1 n=d#6 v=38
456364 On ch=1 n=d#5 v=62
456370 On ch=1 n=g5 v=81
456374 On ch=1 n=g#6 v=0
456376 On ch=1 n=g#4 v=53
456377 On ch=1 n=d#6 v=0
456430 On ch=1 n=g5 v=0
456468 On ch=1 n=d#6 v=42
456472 On ch=1 n=g6 v=87
456474 On ch=1 n=d#5 v=0
456522 On ch=1 n=d#6 v=0
456525 On ch=1 n=g6 v=0
456544 On ch=1 n=g#4 v=0
456612 On ch=1 n=d4 v=80
456618 On ch=1 n=f#5 v=84
456632 Par ch=1 c=64 v=0
456744 On ch=1 n=f#5 v=0
456758 On ch=1 n=a5 v=17
456761 On ch=1 n=f#6 v=82
456816 Par ch=1 c=64 v=127
456820 On ch=1 n=a5 v=0
456852 On ch=1 n=f#6 v=0
456898 On ch=1 n=f#6 v=93
456899 On ch=1 n=d5 v=46
456906 On ch=1 n=c5 v=36
456910 On ch=1 n=a4 v=41
456958 On ch=1 n=d5 v=0
456964 On ch=1 n=a4 v=0
456971 On ch=1 n=c5 v=0
457004 On ch=1 n=f#6 v=0
457020 On ch=1 n=f#7 v=79
457034 On ch=1 n=a6 v=49
457048 On ch=1 n=d4 v=0
457088 On ch=1 n=a6 v=0
457148 On ch=1 n=g6 v=83
457156 On ch=1 n=f#7 v=0
457164 On ch=1 n=g3 v=73
457198 On ch=1 n=g6 v=0
457202 On ch=1 n=g3 v=0
457250 On ch=1 n=g7 v=94
457262 On ch=1 n=a#6 v=47
457334 On ch=1 n=g7 v=0
457383 On ch=1 n=a#6 v=0
457390 On ch=1 n=d5 v=61
457391 On ch=1 n=g6 v=91
457393 On ch=1 n=a#4 v=51
457396 On ch=1 n=g4 v=61
457430 On ch=1 n=g6 v=0
457456 On ch=1 n=d5 v=0
457472 On ch=1 n=g4 v=0
457475 On ch=1 n=a#4 v=0
457506 On ch=1 n=g6 v=91
457545 On ch=1 n=g6 v=0
457592 On ch=1 n=c4 v=91
457592 On ch=1 n=g#5 v=73
457615 Par ch=1 c=64 v=0
457702 On ch=1 n=g#5 v=0
457726 On ch=1 n=g#6 v=72
457732 On ch=1 n=d#6 v=66
457816 Par ch=1 c=64 v=127
457824 On ch=1 n=g#6 v=0
457834 On ch=1 n=d#5 v=66
457846 On ch=1 n=c4 v=0
457848 On ch=1 n=g#4 v=58
457856 On ch=1 n=g#6 v=83
457862 On ch=1 n=d#6 v=0
457956 On ch=1 n=g#7 v=72
457958 On ch=1 n=g#6 v=0
457962 On ch=1 n=d#7 v=66
458054 On ch=1 n=g#7 v=0
458066 On ch=1 n=g#6 v=81
458092 On ch=1 n=d#7 v=0
458095 On ch=1 n=d4 v=89
458106 On ch=1 n=g#6 v=0
458212 On ch=1 n=g#6 v=46
458214 On ch=1 n=d#6 v=73
458240 On ch=1 n=d4 v=0
458320 On ch=1 n=g#6 v=0
458332 On ch=1 n=g5 v=90
458342 On ch=1 n=d#4 v=89
458382 On ch=1 n=d#6 v=0
458398 On ch=1 n=d#5 v=0
458418 On ch=1 n=g5 v=0
458430 On ch=1 n=c6 v=48
458432 On ch=1 n=g6 v=79
458474 On ch=1 n=g6 v=0
458477 On ch=1 n=g#4 v=0
458482 On ch=1 n=c6 v=0
458534 On ch=1 n=d#4 v=0
458572 On ch=1 n=d4 v=98
458572 On ch=1 n=f#5 v=87
458614 Par ch=1 c=64 v=0
458690 On ch=1 n=a5 v=29
458694 On ch=1 n=f#5 v=0
458700 On ch=1 n=f#6 v=85
458766 On ch=1 n=a5 v=0
458786 On ch=1 n=f#6 v=0
458800 On ch=1 n=c5 v=50
458803 On ch=1 n=d5 v=72
458804 On ch=1 n=a4 v=64
458814 Par ch=1 c=64 v=127
458834 On ch=1 n=f#6 v=88
458894 On ch=1 n=c5 v=0
458904 On ch=1 n=d5 v=0
458908 On ch=1 n=a4 v=0
458950 On ch=1 n=a6 v=57
458956 On ch=1 n=f#7 v=76
458958 On ch=1 n=f#6 v=0
458964 On ch=1 n=d4 v=0
459006 On ch=1 n=a6 v=0
459084 On ch=1 n=g3 v=64
459084 On ch=1 n=g6 v=86
459108 On ch=1 n=f#7 v=0
459134 On ch=1 n=g6 v=0
459138 On ch=1 n=g3 v=0
459198 On ch=1 n=g7 v=92
459208 On ch=1 n=a#6 v=62
459288 On ch=1 n=g7 v=0
459298 On ch=1 n=g6 v=91
459316 On ch=1 n=a#4 v=70
459316 On ch=1 n=d5 v=87
459326 On ch=1 n=a#6 v=0
459326 On ch=1 n=g4 v=72
459334 On ch=1 n=g6 v=0
459350 On ch=1 n=d5 v=0
459362 On ch=1 n=a#4 v=0
459374 On ch=1 n=g4 v=0
459416 On ch=1 n=g6 v=53
459426 On ch=1 n=a#5 v=80
459514 On ch=1 n=g6 v=0
459520 Par ch=1 c=64 v=0
459602 On ch=1 n=a#5 v=0
459602 On ch=1 n=f5 v=96
459604 On ch=1 n=b3 v=100
459606 On ch=1 n=b2 v=110
459696 On ch=1 n=f5 v=0
459722 On ch=1 n=f6 v=81
459726 On ch=1 n=g#5 v=32
459736 Par ch=1 c=64 v=127
459773 On ch=1 n=b3 v=0
459774 On ch=1 n=f6 v=0
459795 On ch=1 n=b2 v=0
459802 On ch=1 n=g#5 v=0
459868 On ch=1 n=f6 v=83
459898 On ch=1 n=d5 v=81
459902 On ch=1 n=g#4 v=69
459902 On ch=1 n=f4 v=78
459936 On ch=1 n=d5 v=0
459960 On ch=1 n=f4 v=0
459980 On ch=1 n=f6 v=0
459983 On ch=1 n=g#4 v=0
459990 On ch=1 n=g#6 v=77
459990 On ch=1 n=f7 v=63
460126 On ch=1 n=f7 v=0
460134 Par ch=1 c=64 v=0
460160 On ch=1 n=f6 v=97
460168 On ch=1 n=c3 v=111
460171 On ch=1 n=c4 v=95
460175 On ch=1 n=g#6 v=0
460192 On ch=1 n=f6 v=0
460298 On ch=1 n=d#6 v=76
460314 On ch=1 n=g5 v=81
460316 On ch=1 n=c4 v=0
460321 On ch=1 n=c3 v=0
460331 Par ch=1 c=64 v=127
460377 On ch=1 n=g5 v=0
460421 On ch=1 n=d#5 v=89
460429 On ch=1 n=d#6 v=0
460441 On ch=1 n=g4 v=86
460455 On ch=1 n=c5 v=59
460455 On ch=1 n=d#4 v=69
460461 On ch=1 n=b4 v=43
460483 On ch=1 n=g4 v=0
460507 On ch=1 n=c5 v=0
460513 On ch=1 n=b4 v=0
460519 On ch=1 n=d#6 v=62
460521 On ch=1 n=g5 v=72
460541 On ch=1 n=d#4 v=0
460547 On ch=1 n=d#5 v=0
460577 Par ch=1 c=64 v=0
460591 On ch=1 n=g5 v=0
460659 On ch=1 n=d#6 v=0
460659 On ch=1 n=d5 v=95
460665 On ch=1 n=d3 v=108
460671 On ch=1 n=d4 v=102
460749 On ch=1 n=d5 v=0
460749 On ch=1 n=f#5 v=44
460767 On ch=1 n=d6 v=81
460793 Par ch=1 c=64 v=127
460799 On ch=1 n=d6 v=0
460805 On ch=1 n=f#5 v=0
460837 On ch=1 n=d4 v=0
460838 On ch=1 n=d3 v=0
460879 On ch=1 n=d6 v=49
460899 On ch=1 n=a4 v=75
460899 On ch=1 n=f#4 v=84
460953 On ch=1 n=f#4 v=0
460965 On ch=1 n=a4 v=0
460981 On ch=1 n=d6 v=0
460989 On ch=1 n=f#6 v=76
460989 On ch=1 n=d7 v=84
461023 Par ch=1 c=64 v=0
461101 On ch=1 n=d6 v=94
461117 On ch=1 n=d7 v=0
461117 On ch=1 n=e3 v=117
461120 On ch=1 n=e4 v=105
461131 On ch=1 n=f#6 v=0
461133 On ch=1 n=d6 v=0
461223 Par ch=1 c=64 v=127
461235 On ch=1 n=c#6 v=73
461251 On ch=1 n=e5 v=80
461277 On ch=1 n=e4 v=0
461287 On ch=1 n=e3 v=0
461336 On ch=1 n=a#4 v=67
461346 On ch=1 n=g4 v=70
461346 On ch=1 n=c#5 v=92
461372 On ch=1 n=c#6 v=0
461386 On ch=1 n=e5 v=0
461394 On ch=1 n=g4 v=0
461396 On ch=1 n=a#4 v=0
461404 Par ch=1 c=64 v=0
461450 On ch=1 n=c#5 v=0
461450 On ch=1 n=c#6 v=60
461458 On ch=1 n=e5 v=76
461534 On ch=1 n=e5 v=0
461550 On ch=1 n=f#3 v=97
461553 On ch=1 n=f#4 v=100
461578 On ch=1 n=c5 v=98
461588 On ch=1 n=c#6 v=0
461646 On ch=1 n=f#3 v=0
461648 On ch=1 n=f#4 v=0
461650 Par ch=1 c=64 v=127
461682 On ch=1 n=c5 v=0
461698 On ch=1 n=c6 v=76
461732 On ch=1 n=c6 v=0
461802 On ch=1 n=c6 v=61
461810 On ch=1 n=d#5 v=88
461830 On ch=1 n=f#4 v=75
461844 On ch=1 n=c5 v=52
461910 On ch=1 n=c5 v=0
461910 On ch=1 n=c6 v=0
461910 On ch=1 n=d#6 v=70
461913 On ch=1 n=d#5 v=0
461920 On ch=1 n=c7 v=79
461972 On ch=1 n=f#4 v=0
461974 Par ch=1 c=64 v=0
462016 On ch=1 n=c7 v=0
462016 On ch=1 n=d#6 v=0
462050 On ch=1 n=d#5 v=88
462058 On ch=1 n=b5 v=105
462064 On ch=1 n=g4 v=75
462068 On ch=1 n=c5 v=64
462106 On ch=1 n=d#5 v=0
462114 On ch=1 n=c5 v=0
462128 On ch=1 n=g4 v=0
462170 On ch=1 n=d#6 v=52
462170 On ch=1 n=b6 v=85
462182 On ch=1 n=b5 v=0
462188 Par ch=1 c=64 v=127
462220 On ch=1 n=d#6 v=0
462260 On ch=1 n=b6 v=0
462290 On ch=1 n=c6 v=91
462295 On ch=1 n=g4 v=92
462295 On ch=1 n=g3 v=95
462328 On ch=1 n=g4 v=0
462330 On ch=1 n=g3 v=0
462384 On ch=1 n=d#6 v=62
462396 On ch=1 n=c6 v=0
462396 On ch=1 n=c7 v=77
462434 Par ch=1 c=64 v=0
462470 On ch=1 n=d#6 v=0
462506 On ch=1 n=c7 v=0
462510 On ch=1 n=g#4 v=99
462514 On ch=1 n=g#3 v=101
462516 On ch=1 n=c6 v=97
462598 On ch=1 n=g#3 v=0
462606 On ch=1 n=c6 v=0
462606 On ch=1 n=g#4 v=0
462606 On ch=1 n=d#6 v=60
462624 On ch=1 n=c7 v=60
462632 Par ch=1 c=64 v=127
462650 On ch=1 n=d#6 v=0
462682 On ch=1 n=c7 v=0
462744 On ch=1 n=f#5 v=86
462744 On ch=1 n=d#6 v=74
462752 On ch=1 n=g#4 v=73
462772 On ch=1 n=d#5 v=51
462822 On ch=1 n=d#5 v=0
462826 On ch=1 n=d#6 v=0
462842 On ch=1 n=d#7 v=64
462848 On ch=1 n=f#6 v=57
462854 On ch=1 n=f#5 v=0
462864 On ch=1 n=g#4 v=0
462908 On ch=1 n=f#6 v=0
462962 On ch=1 n=d#7 v=0
462962 On ch=1 n=f#5 v=73
462968 On ch=1 n=d#5 v=75
462972 On ch=1 n=d6 v=98
462974 On ch=1 n=a4 v=72
463002 On ch=1 n=f#5 v=0
463012 On ch=1 n=d#5 v=0
463026 On ch=1 n=a4 v=0
463046 On ch=1 n=d7 v=77
463066 On ch=1 n=f#6 v=61
463080 On ch=1 n=d6 v=0
463116 On ch=1 n=f#6 v=0
463148 On ch=1 n=d7 v=0
463184 On ch=1 n=d#6 v=97
463190 On ch=1 n=a4 v=83
463192 On ch=1 n=a3 v=91
463226 On ch=1 n=a3 v=0
463226 On ch=1 n=a4 v=0
463276 On ch=1 n=d#7 v=70
463292 On ch=1 n=f#6 v=56
463295 Par ch=1 c=64 v=0
463306 On ch=1 n=d#6 v=0
463342 On ch=1 n=f#6 v=0
463386 On ch=1 n=d#6 v=86
463398 On ch=1 n=a#4 v=93
463401 On ch=1 n=a#3 v=95
463420 On ch=1 n=d#7 v=0
463476 On ch=1 n=a#4 v=0
463487 On ch=1 n=a#3 v=0
463506 On ch=1 n=f#6 v=40
463509 Par ch=1 c=64 v=127
463512 On ch=1 n=d#7 v=52
463518 On ch=1 n=d#6 v=0
463566 On ch=1 n=f#6 v=0
463596 On ch=1 n=d#7 v=0
463620 On ch=1 n=f#5 v=90
463624 On ch=1 n=d#5 v=31
463624 On ch=1 n=a#4 v=54
463632 On ch=1 n=f#6 v=80
463682 On ch=1 n=a#4 v=0
463698 On ch=1 n=d#5 v=0
463730 On ch=1 n=f#7 v=78
463732 On ch=1 n=f#5 v=0
463742 On ch=1 n=a#6 v=60
463768 On ch=1 n=f#6 v=0
463798 On ch=1 n=a#6 v=0
463848 On ch=1 n=f#7 v=0
463864 On ch=1 n=f6 v=89
463866 On ch=1 n=d#5 v=78
463866 On ch=1 n=a5 v=78
463869 On ch=1 n=b4 v=78
463906 On ch=1 n=a5 v=0
463918 On ch=1 n=d#5 v=0
463924 On ch=1 n=b4 v=0
463936 On ch=1 n=f7 v=69
463954 On ch=1 n=g#6 v=53
463978 On ch=1 n=f6 v=0
464054 On ch=1 n=g#6 v=0
464070 On ch=1 n=f7 v=0
464094 On ch=1 n=f#6 v=101
464098 On ch=1 n=b4 v=92
464098 On ch=1 n=b3 v=90
464132 On ch=1 n=b4 v=0
464135 On ch=1 n=b3 v=0
464202 On ch=1 n=f#7 v=62
464230 On ch=1 n=f#6 v=0
464233 On ch=1 n=a6 v=35
464262 Par ch=1 c=64 v=0
464294 On ch=1 n=a6 v=0
464318 On ch=1 n=c4 v=97
464318 On ch=1 n=f#6 v=88
464327 On ch=1 n=c5 v=100
464344 On ch=1 n=f#7 v=0
464424 On ch=1 n=c4 v=0
464441 On ch=1 n=c5 v=0
464445 On ch=1 n=a6 v=103
464452 On ch=1 n=f#7 v=68
464471 On ch=1 n=f#6 v=0
464478 Par ch=1 c=64 v=127
464539 On ch=1 n=a6 v=0
464582 On ch=1 n=f#7 v=0
464596 On ch=1 n=a5 v=81
464600 On ch=1 n=f#5 v=54
464600 On ch=1 n=c5 v=51
464600 On ch=1 n=a6 v=103
464602 On ch=1 n=d5 v=63
464694 On ch=1 n=a6 v=0
464750 On ch=1 n=a7 v=87
464750 On ch=1 n=c7 v=75
464848 On ch=1 n=f#5 v=0
464852 On ch=1 n=c7 v=0
464854 On ch=1 n=a7 v=0
464858 On ch=1 n=c5 v=0
464876 On ch=1 n=d5 v=0
464918 On ch=1 n=a5 v=0
464918 On ch=1 n=a#6 v=101
465024 On ch=1 n=a#7 v=43
465024 On ch=1 n=d7 v=39
465066 On ch=1 n=a#6 v=0
465128 On ch=1 n=d7 v=0
465154 On ch=1 n=a#7 v=0
465164 On ch=1 n=f#5 v=61
465170 On ch=1 n=a5 v=74
465172 On ch=1 n=c5 v=59
465174 On ch=1 n=d5 v=60
465175 On ch=1 n=c7 v=104
465218 On ch=1 n=f#5 v=0
465220 On ch=1 n=a5 v=0
465228 On ch=1 n=d5 v=0
465252 On ch=1 n=c5 v=0
465294 On ch=1 n=c8 v=96
465294 On ch=1 n=d#7 v=69
465300 On ch=1 n=c7 v=0
465400 On ch=1 n=d#7 v=0
465430 Par ch=1 c=64 v=0
465476 On ch=1 n=c8 v=0
465482 On ch=1 n=c7 v=109
465485 On ch=1 n=a#4 v=86
465488 On ch=1 n=a#3 v=90
465562 On ch=1 n=a#4 v=0
465564 On ch=1 n=a#3 v=0
465604 On ch=1 n=d#7 v=65
465604 On ch=1 n=c8 v=70
465614 Par ch=1 c=64 v=127
465620 On ch=1 n=c7 v=0
465708 On ch=1 n=c8 v=0
465730 On ch=1 n=d#7 v=0
465780 On ch=1 n=g5 v=83
465790 On ch=1 n=d5 v=74
465794 On ch=1 n=a#6 v=79
465798 On ch=1 n=g4 v=63
465816 On ch=1 n=g5 v=0
465828 On ch=1 n=d5 v=0
465854 On ch=1 n=g4 v=0
465896 On ch=1 n=a#7 v=68
465904 On ch=1 n=d7 v=52
465910 On ch=1 n=a#6 v=0
466058 On ch=1 n=d7 v=0
466074 On ch=1 n=a#7 v=0
466076 Par ch=1 c=64 v=0
466082 On ch=1 n=a#6 v=93
466094 On ch=1 n=c5 v=86
466094 On ch=1 n=c4 v=87
466198 On ch=1 n=c4 v=0
466212 On ch=1 n=a#7 v=66
466218 On ch=1 n=c5 v=0
466224 On ch=1 n=d7 v=52
466228 Par ch=1 c=64 v=127
466248 On ch=1 n=a#6 v=0
466336 On ch=1 n=a#7 v=0
466347 On ch=1 n=d7 v=0
466352 On ch=1 n=g5 v=81
466356 On ch=1 n=d#5 v=71
466360 On ch=1 n=a6 v=85
466370 On ch=1 n=a4 v=57
466398 On ch=1 n=g5 v=0
466416 On ch=1 n=d#5 v=0
466438 On ch=1 n=a4 v=0
466458 On ch=1 n=c7 v=76
466470 On ch=1 n=a7 v=80
466472 On ch=1 n=a6 v=0
466562 On ch=1 n=c7 v=0
466566 Par ch=1 c=64 v=0
466568 On ch=1 n=a7 v=0
466604 On ch=1 n=a6 v=87
466606 On ch=1 n=d4 v=103
466608 On ch=1 n=d5 v=91
466664 On ch=1 n=d4 v=0
466676 On ch=1 n=d5 v=0
466694 On ch=1 n=c7 v=53
466708 On ch=1 n=a7 v=61
466722 Par ch=1 c=64 v=127
466746 On ch=1 n=a6 v=0
466784 On ch=1 n=a7 v=0
466787 On ch=1 n=c7 v=0
466840 On ch=1 n=a#5 v=77
466848 On ch=1 n=d5 v=57
466850 On ch=1 n=g6 v=74
466850 On ch=1 n=g5 v=58
466890 On ch=1 n=a#5 v=0
466898 On ch=1 n=g5 v=0
466904 On ch=1 n=d5 v=0
466936 On ch=1 n=g7 v=78
466972 On ch=1 n=g6 v=0
466998 On ch=1 n=g7 v=0
467064 On ch=1 n=g6 v=61
467064 On ch=1 n=c4 v=37
467065 On ch=1 n=c5 v=55
467124 On ch=1 n=c5 v=0
467134 On ch=1 n=c4 v=0
467164 On ch=1 n=g7 v=84
467172 On ch=1 n=a#6 v=67
467178 On ch=1 n=g6 v=0
467232 On ch=1 n=g7 v=0
467279 On ch=1 n=a#6 v=0
467296 On ch=1 n=a5 v=69
467298 On ch=1 n=d5 v=59
467299 On ch=1 n=c5 v=55
467299 On ch=1 n=f#5 v=59
467307 On ch=1 n=d6 v=80
467338 On ch=1 n=a5 v=0
467341 On ch=1 n=d6 v=0
467342 On ch=1 n=d5 v=0
467344 On ch=1 n=f#5 v=0
467358 On ch=1 n=c5 v=0
467362 On ch=1 n=d7 v=73
467386 On ch=1 n=f#6 v=27
467454 On ch=1 n=f#6 v=0
467460 On ch=1 n=d7 v=0
467520 Par ch=1 c=64 v=0
467536 On ch=1 n=a#4 v=92
467540 On ch=1 n=a#3 v=97
467640 On ch=1 n=a#3 v=0
467652 On ch=1 n=a#4 v=0
467658 On ch=1 n=a#6 v=78
467688 Par ch=1 c=64 v=127
467772 On ch=1 n=a#6 v=0
467776 On ch=1 n=g5 v=94
467776 On ch=1 n=a#7 v=85
467782 On ch=1 n=d7 v=74
467788 On ch=1 n=d5 v=67
467792 On ch=1 n=g4 v=69
467810 On ch=1 n=g5 v=0
467830 On ch=1 n=d5 v=0
467856 On ch=1 n=g4 v=0
467874 On ch=1 n=a#6 v=68
467900 On ch=1 n=d7 v=0
467920 On ch=1 n=a#7 v=0
467970 On ch=1 n=a#6 v=0
467980 Par ch=1 c=64 v=0
468006 On ch=1 n=a#7 v=75
468008 On ch=1 n=c4 v=100
468014 On ch=1 n=c5 v=97
468017 On ch=1 n=c#7 v=82
468040 On ch=1 n=c4 v=0
468054 On ch=1 n=c5 v=0
468096 On ch=1 n=a#6 v=72
468134 Par ch=1 c=64 v=127
468138 On ch=1 n=a#7 v=0
468150 On ch=1 n=a#6 v=0
468153 On ch=1 n=c#7 v=0
468232 On ch=1 n=d#5 v=79
468232 On ch=1 n=g5 v=81
468238 On ch=1 n=a7 v=95
468242 On ch=1 n=a4 v=68
468242 On ch=1 n=c7 v=80
468274 On ch=1 n=g5 v=0
468280 On ch=1 n=d#5 v=0
468298 On ch=1 n=a4 v=0
468312 On ch=1 n=a6 v=67
468348 On ch=1 n=a7 v=0
468356 On ch=1 n=c7 v=0
468416 On ch=1 n=a6 v=0
468442 Par ch=1 c=64 v=0
468450 On ch=1 n=a7 v=101
468456 On ch=1 n=c7 v=55
468463 On ch=1 n=d4 v=107
468463 On ch=1 n=d5 v=95
468542 On ch=1 n=a6 v=74
468547 On ch=1 n=d4 v=0
468561 On ch=1 n=d5 v=0
468576 On ch=1 n=a7 v=0
468580 Par ch=1 c=64 v=127
468588 On ch=1 n=c7 v=0
468630 On ch=1 n=a6 v=0
468686 On ch=1 n=d5 v=51
468690 On ch=1 n=a#5 v=75
468690 On ch=1 n=g5 v=62
468690 On ch=1 n=g7 v=97
468698 On ch=1 n=a#6 v=77
468774 On ch=1 n=a#5 v=0
468776 On ch=1 n=g5 v=0
468792 On ch=1 n=d5 v=0
468802 On ch=1 n=g7 v=0
468804 On ch=1 n=g6 v=78
468812 On ch=1 n=a#6 v=0
468892 On ch=1 n=g6 v=0
468918 Par ch=1 c=64 v=0
468924 On ch=1 n=a#6 v=83
468927 On ch=1 n=g7 v=100
468930 On ch=1 n=c5 v=106
468930 On ch=1 n=c4 v=105
469000 On ch=1 n=c4 v=0
469010 On ch=1 n=c5 v=0
469016 On ch=1 n=g6 v=85
469040 Par ch=1 c=64 v=127
469044 On ch=1 n=g7 v=0
469086 On ch=1 n=a#6 v=0
469108 On ch=1 n=g6 v=0
469158 On ch=1 n=f#5 v=72
469160 On ch=1 n=d5 v=57
469162 On ch=1 n=c5 v=72
469162 On ch=1 n=a5 v=71
469190 On ch=1 n=d7 v=91
469200 On ch=1 n=f#6 v=81
469204 On ch=1 n=a5 v=0
469204 On ch=1 n=d5 v=0
469212 On ch=1 n=c5 v=0
469214 On ch=1 n=f#5 v=0
469300 On ch=1 n=d6 v=82
469368 On ch=1 n=f#6 v=0
469374 On ch=1 n=d6 v=0
469428 On ch=1 n=d7 v=0
469470 Par ch=1 c=64 v=0
469496 On ch=1 n=a#4 v=101
469500 On ch=1 n=a#3 v=101
469648 On ch=1 n=a#3 v=0
469656 On ch=1 n=a#4 v=0
469656 Par ch=1 c=64 v=127
469680 On ch=1 n=d7 v=82
469742 On ch=1 n=d7 v=0
469810 On ch=1 n=a#7 v=89
469816 On ch=1 n=d8 v=111
469818 On ch=1 n=g7 v=86
469948 On ch=1 n=d7 v=78
469990 On ch=1 n=d8 v=0
469992 On ch=1 n=d7 v=0
470000 On ch=1 n=g7 v=0
470022 On ch=1 n=a#7 v=0
470078 On ch=1 n=g6 v=86
470082 On ch=1 n=d7 v=72
470084 On ch=1 n=a#6 v=76
470182 On ch=1 n=d7 v=0
470184 On ch=1 n=a#6 v=0
470202 On ch=1 n=d6 v=75
470212 On ch=1 n=g6 v=0
470286 On ch=1 n=d6 v=0
470330 On ch=1 n=d7 v=85
470330 On ch=1 n=a#6 v=88
470334 On ch=1 n=g6 v=78
470450 On ch=1 n=d6 v=64
470460 On ch=1 n=d7 v=0
470462 On ch=1 n=g6 v=0
470472 On ch=1 n=a#6 v=0
470490 On ch=1 n=d6 v=0
470560 On ch=1 n=d6 v=60
470564 On ch=1 n=g5 v=78
470568 On ch=1 n=a#5 v=69
470614 On ch=1 n=d6 v=0
470662 On ch=1 n=d5 v=78
470670 On ch=1 n=a#5 v=0
470680 On ch=1 n=g5 v=0
470700 On ch=1 n=d5 v=0
470792 On ch=1 n=d6 v=92
470800 On ch=1 n=a#5 v=70
470800 On ch=1 n=g5 v=67
470878 On ch=1 n=d5 v=88
470896 On ch=1 n=g5 v=0
470904 On ch=1 n=d6 v=0
470914 On ch=1 n=d5 v=0
470929 On ch=1 n=a#5 v=0
471000 On ch=1 n=d5 v=59
471010 On ch=1 n=g4 v=82
471010 On ch=1 n=a#4 v=65
471048 On ch=1 n=d5 v=0
471108 On ch=1 n=d4 v=83
471120 On ch=1 n=a#4 v=0
471134 On ch=1 n=g4 v=0
471156 On ch=1 n=d4 v=0
471249 On ch=1 n=d5 v=88
471254 On ch=1 n=g4 v=45
471256 On ch=1 n=a#4 v=68
471340 On ch=1 n=g4 v=0
471340 On ch=1 n=d4 v=95
471416 On ch=1 n=a#4 v=0
471416 On ch=1 n=d5 v=0
471452 On ch=1 n=d4 v=0
471454 Par ch=1 c=64 v=0
471458 On ch=1 n=f#3 v=98
471464 On ch=1 n=f#2 v=92
471520 On ch=1 n=f#3 v=0
471525 On ch=1 n=f#2 v=0
471570 On ch=1 n=g3 v=92
471576 On ch=1 n=g2 v=88
471608 Par ch=1 c=64 v=127
471648 On ch=1 n=g3 v=0
471650 On ch=1 n=g2 v=0
471698 On ch=1 n=a#4 v=64
471701 On ch=1 n=g4 v=72
471701 On ch=1 n=e5 v=78
471740 On ch=1 n=e5 v=0
471804 On ch=1 n=d4 v=85
471840 On ch=1 n=g4 v=0
471882 On ch=1 n=a#4 v=0
471898 Par ch=1 c=64 v=0
471908 On ch=1 n=d4 v=0
471920 On ch=1 n=c#4 v=99
471926 On ch=1 n=c#3 v=95
471976 On ch=1 n=c#3 v=0
472030 On ch=1 n=d4 v=94
472030 On ch=1 n=d3 v=90
472033 On ch=1 n=c#4 v=0
472052 Par ch=1 c=64 v=127
472116 On ch=1 n=d4 v=0
472150 On ch=1 n=d3 v=0
472152 On ch=1 n=a#4 v=67
472152 On ch=1 n=e5 v=85
472158 On ch=1 n=g4 v=75
472192 On ch=1 n=e5 v=0
472262 On ch=1 n=d4 v=88
472350 On ch=1 n=a#4 v=0
472358 On ch=1 n=g4 v=0
472360 Par ch=1 c=64 v=0
472378 On ch=1 n=f#3 v=103
472378 On ch=1 n=f#2 v=99
472396 On ch=1 n=d4 v=0
472440 On ch=1 n=f#2 v=0
472466 On ch=1 n=f#3 v=0
472488 On ch=1 n=g3 v=97
472500 On ch=1 n=g2 v=69
472544 Par ch=1 c=64 v=127
472585 On ch=1 n=g2 v=0
472606 On ch=1 n=g3 v=0
472618 On ch=1 n=g4 v=79
472626 On ch=1 n=a#4 v=69
472632 On ch=1 n=e5 v=71
472676 On ch=1 n=e5 v=0
472726 On ch=1 n=d4 v=89
472822 On ch=1 n=g4 v=0
472856 On ch=1 n=a#4 v=0
472866 On ch=1 n=c#4 v=108
472868 On ch=1 n=d4 v=0
472874 On ch=1 n=c#3 v=100
472882 Par ch=1 c=64 v=0
473010 On ch=1 n=c#3 v=0
473022 On ch=1 n=c#4 v=0
473024 On ch=1 n=d4 v=92
473034 On ch=1 n=d3 v=88
473066 Par ch=1 c=64 v=127
473170 On ch=1 n=d4 v=0
473184 On ch=1 n=a#4 v=74
473192 On ch=1 n=g4 v=83
473192 On ch=1 n=e5 v=85
473208 On ch=1 n=d3 v=0
473270 On ch=1 n=e5 v=0
473344 On ch=1 n=d4 v=91
473516 On ch=1 n=g4 v=0
473622 On ch=1 n=d4 v=0
473622 On ch=1 n=a#4 v=0
473662 On ch=1 n=d2 v=110
473668 On ch=1 n=d3 v=102
473728 Par ch=1 c=64 v=0
474198 On ch=1 n=g4 v=84
474234 Par ch=1 c=64 v=127
474388 On ch=1 n=g#4 v=75
474398 On ch=1 n=g4 v=0
474502 On ch=1 n=d3 v=0
474518 On ch=1 n=d2 v=0
474528 On ch=1 n=a4 v=68
474544 On ch=1 n=g#4 v=0
474646 On ch=1 n=a#4 v=67
474660 On ch=1 n=a4 v=0
474762 On ch=1 n=b4 v=81
474786 On ch=1 n=a#4 v=0
474872 On ch=1 n=c5 v=84
474910 On ch=1 n=b4 v=0
474982 On ch=1 n=c#5 v=86
475022 On ch=1 n=c5 v=0
475088 On ch=1 n=d5 v=84
475110 On ch=1 n=c#5 v=0
475182 On ch=1 n=d5 v=0
475194 On ch=1 n=d#5 v=87
475298 On ch=1 n=e5 v=89
475302 On ch=1 n=d#5 v=0
475388 On ch=1 n=f5 v=83
475424 On ch=1 n=e5 v=0
475466 On ch=1 n=f#5 v=79
475502 On ch=1 n=f5 v=0
475540 On ch=1 n=e5 v=87
475543 On ch=1 n=a#4 v=50
475546 On ch=1 n=c#5 v=63
475546 On ch=1 n=g4 v=73
475564 On ch=1 n=g5 v=89
475574 On ch=1 n=f#5 v=0
475660 On ch=1 n=g#5 v=81
475690 On ch=1 n=g5 v=0
475734 On ch=1 n=g4 v=0
475738 On ch=1 n=a5 v=78
475758 On ch=1 n=c#5 v=0
475766 On ch=1 n=e5 v=0
475782 On ch=1 n=a#4 v=0
475794 On ch=1 n=g#5 v=0
475842 On ch=1 n=a#5 v=73
475900 On ch=1 n=a5 v=0
475944 On ch=1 n=a#5 v=0
475944 On ch=1 n=b5 v=79
475984 On ch=1 n=c#5 v=67
475986 On ch=1 n=e5 v=96
475988 On ch=1 n=a#4 v=62
475991 On ch=1 n=g4 v=85
476034 On ch=1 n=e5 v=0
476036 On ch=1 n=c#5 v=0
476040 On ch=1 n=g4 v=0
476043 On ch=1 n=c6 v=84
476072 On ch=1 n=a#4 v=0
476074 On ch=1 n=b5 v=0
476142 On ch=1 n=c#6 v=82
476160 On ch=1 n=c6 v=0
476162 On ch=1 n=f#5 v=101
476166 On ch=1 n=c#5 v=47
476168 On ch=1 n=a#4 v=42
476176 On ch=1 n=g4 v=84
476252 On ch=1 n=d6 v=93
476255 On ch=1 n=c#6 v=0
476340 On ch=1 n=d#6 v=79
476356 On ch=1 n=d6 v=0
476418 On ch=1 n=c#5 v=0
476428 On ch=1 n=e6 v=80
476444 On ch=1 n=d#6 v=0
476466 On ch=1 n=a#4 v=0
476494 On ch=1 n=g4 v=0
476528 On ch=1 n=f6 v=83
476580 On ch=1 n=f#5 v=0
476583 On ch=1 n=e6 v=0
476602 On ch=1 n=f#6 v=84
476636 On ch=1 n=f6 v=0
476696 On ch=1 n=f#6 v=0
476704 On ch=1 n=e5 v=108
476708 On ch=1 n=g6 v=94
476710 On ch=1 n=a#4 v=71
476714 On ch=1 n=g4 v=87
476714 On ch=1 n=c#5 v=82
476784 On ch=1 n=g#6 v=87
476839 On ch=1 n=g4 v=0
476840 On ch=1 n=g6 v=0
476848 On ch=1 n=a#4 v=0
476850 On ch=1 n=c#5 v=0
476864 On ch=1 n=e5 v=0
476872 On ch=1 n=a6 v=87
476913 On ch=1 n=g#6 v=0
476970 On ch=1 n=a#6 v=71
477022 On ch=1 n=a6 v=0
477056 On ch=1 n=a#6 v=0
477080 On ch=1 n=b6 v=98
477094 On ch=1 n=c#5 v=67
477096 On ch=1 n=e5 v=92
477102 On ch=1 n=g4 v=81
477107 On ch=1 n=a#4 v=60
477136 On ch=1 n=e5 v=0
477146 On ch=1 n=c#5 v=0
477150 On ch=1 n=g4 v=0
477178 On ch=1 n=c7 v=78
477182 On ch=1 n=a#4 v=0
477200 On ch=1 n=b6 v=0
477246 On ch=1 n=f#5 v=102
477249 On ch=1 n=c#7 v=86
477256 On ch=1 n=a#4 v=53
477256 On ch=1 n=c#5 v=60
477260 On ch=1 n=g4 v=73
477278 On ch=1 n=c7 v=0
477340 On ch=1 n=c#7 v=0
477342 On ch=1 n=d7 v=91
477426 On ch=1 n=d#7 v=85
477456 On ch=1 n=d7 v=0
477508 On ch=1 n=c#5 v=0
477520 On ch=1 n=d#7 v=0
477522 On ch=1 n=e7 v=91
477580 On ch=1 n=a#4 v=0
477616 On ch=1 n=f7 v=84
477622 On ch=1 n=g4 v=0
477642 On ch=1 n=f#5 v=0
477670 On ch=1 n=e7 v=0
477682 On ch=1 n=f#7 v=84
477744 On ch=1 n=f7 v=0
477774 On ch=1 n=f#7 v=0
477774 On ch=1 n=e5 v=110
477774 On ch=1 n=c#5 v=92
477777 On ch=1 n=a#4 v=78
477786 On ch=1 n=g4 v=91
477792 On ch=1 n=g7 v=92
477870 On ch=1 n=g#7 v=78
477897 On ch=1 n=g4 v=0
477916 On ch=1 n=c#5 v=0
477918 On ch=1 n=a#4 v=0
477921 On ch=1 n=g7 v=0
477936 On ch=1 n=e5 v=0
477948 On ch=1 n=a7 v=87
478032 On ch=1 n=g#7 v=0
478046 On ch=1 n=a#7 v=74
478104 On ch=1 n=a7 v=0
478136 On ch=1 n=a#7 v=0
478146 On ch=1 n=b7 v=91
478192 On ch=1 n=d4 v=100
478214 Par ch=1 c=64 v=0
478268 On ch=1 n=a4 v=84
478271 On ch=1 n=c8 v=94
478330 On ch=1 n=b7 v=0
478384 On ch=1 n=c5 v=84
478396 On ch=1 n=c#8 v=81
478398 Par ch=1 c=64 v=127
478458 On ch=1 n=c8 v=0
478576 On ch=1 n=d#8 v=92
478592 On ch=1 n=g5 v=115
478618 On ch=1 n=c#8 v=0
478706 On ch=1 n=d8 v=94
478762 On ch=1 n=d#8 v=0
478836 On ch=1 n=f8 v=77
478842 On ch=1 n=d8 v=0
478924 On ch=1 n=d#8 v=73
479002 On ch=1 n=d8 v=90
479010 On ch=1 n=f8 v=0
479062 On ch=1 n=d#8 v=0
479065 On ch=1 n=d8 v=0
479076 On ch=1 n=c8 v=80
479168 On ch=1 n=c8 v=0
479168 On ch=1 n=b7 v=84
479244 On ch=1 n=d8 v=95
479260 On ch=1 n=b7 v=0
479316 On ch=1 n=c8 v=87
479378 On ch=1 n=a#7 v=75
479410 On ch=1 n=d8 v=0
479470 On ch=1 n=a7 v=64
479473 On ch=1 n=c8 v=0
479518 On ch=1 n=a#7 v=0
479524 On ch=1 n=a7 v=0
479524 On ch=1 n=g7 v=74
479604 On ch=1 n=f#7 v=79
479628 On ch=1 n=g7 v=0
479672 On ch=1 n=f#7 v=0
479688 On ch=1 n=a7 v=68
479758 On ch=1 n=g7 v=88
479810 On ch=1 n=f#7 v=67
479830 On ch=1 n=a7 v=0
479876 On ch=1 n=d#7 v=73
479880 On ch=1 n=g7 v=0
479908 On ch=1 n=f#7 v=0
479930 On ch=1 n=d7 v=72
479956 On ch=1 n=d#7 v=0
479976 On ch=1 n=d7 v=0
480012 On ch=1 n=d#7 v=73
480094 On ch=1 n=d7 v=80
480130 On ch=1 n=d#7 v=0
480148 On ch=1 n=d7 v=0
480160 On ch=1 n=f7 v=76
480220 On ch=1 n=d#7 v=53
480264 On ch=1 n=f7 v=0
480286 On ch=1 n=d7 v=75
480342 On ch=1 n=d7 v=0
480342 On ch=1 n=d#7 v=0
480345 On ch=1 n=c7 v=83
480404 On ch=1 n=c7 v=0
480434 On ch=1 n=b6 v=101
480478 On ch=1 n=b6 v=0
480508 On ch=1 n=d7 v=64
480574 On ch=1 n=c7 v=82
480646 On ch=1 n=a#6 v=66
480649 On ch=1 n=d7 v=0
480712 On ch=1 n=c7 v=0
480726 On ch=1 n=a6 v=75
480762 On ch=1 n=g5 v=0
480772 On ch=1 n=a6 v=0
480776 On ch=1 n=a#6 v=0
480788 On ch=1 n=g6 v=76
480874 On ch=1 n=f#6 v=80
480880 On ch=1 n=g6 v=0
480915 On ch=1 n=d4 v=0
480920 On ch=1 n=f#5 v=102
480942 On ch=1 n=a6 v=60
480960 On ch=1 n=a4 v=0
480974 On ch=1 n=f#6 v=0
480974 On ch=1 n=c5 v=0
481006 On ch=1 n=f#5 v=0
481020 On ch=1 n=g6 v=92
481080 On ch=1 n=f#6 v=58
481100 On ch=1 n=a6 v=0
481146 On ch=1 n=d#6 v=77
481152 On ch=1 n=g6 v=0
481192 On ch=1 n=f#6 v=0
481208 On ch=1 n=d6 v=76
481242 On ch=1 n=d#6 v=0
481268 On ch=1 n=d6 v=0
481284 On ch=1 n=d#6 v=72
481370 On ch=1 n=d6 v=88
481400 On ch=1 n=d#6 v=0
481454 On ch=1 n=f6 v=87
481482 On ch=1 n=d6 v=0
481522 On ch=1 n=d#6 v=69
481580 On ch=1 n=d6 v=72
481586 On ch=1 n=f6 v=0
481640 On ch=1 n=c6 v=71
481642 On ch=1 n=d#6 v=0
481670 On ch=1 n=d6 v=0
481696 On ch=1 n=c6 v=0
481732 On ch=1 n=b5 v=81
481788 On ch=1 n=b5 v=0
481791 On ch=1 n=d6 v=59
481862 On ch=1 n=c6 v=81
481924 On ch=1 n=a#5 v=67
481930 On ch=1 n=d6 v=0
481996 On ch=1 n=a5 v=72
482004 On ch=1 n=c6 v=0
482060 On ch=1 n=a#5 v=0
482060 On ch=1 n=g5 v=77
482080 On ch=1 n=a5 v=0
482138 On ch=1 n=f#5 v=82
482152 On ch=1 n=g5 v=0
482212 On ch=1 n=d#5 v=76
482270 On ch=1 n=d5 v=80
482302 On ch=1 n=f#5 v=0
482322 On ch=1 n=c5 v=80
482324 On ch=1 n=d5 v=0
482326 On ch=1 n=d#5 v=0
482402 On ch=1 n=a#4 v=83
482436 On ch=1 n=c5 v=0
482492 On ch=1 n=a4 v=84
482544 On ch=1 n=a#4 v=0
482554 On ch=1 n=g4 v=86
482566 On ch=1 n=a4 v=0
482630 On ch=1 n=f#4 v=92
482662 On ch=1 n=g4 v=0
482694 On ch=1 n=d#4 v=80
482766 On ch=1 n=d4 v=87
482784 On ch=1 n=f#4 v=0
482830 On ch=1 n=d#4 v=0
482832 On ch=1 n=c4 v=75
482838 On ch=1 n=d4 v=0
482898 On ch=1 n=a#3 v=81
482916 On ch=1 n=c4 v=0
482986 On ch=1 n=a3 v=88
483050 On ch=1 n=a#3 v=0
483072 On ch=1 n=g3 v=92
483084 On ch=1 n=a3 v=0
483142 On ch=1 n=f#3 v=83
483178 On ch=1 n=g3 v=0
483210 On ch=1 n=d#3 v=81
483280 On ch=1 n=f#3 v=0
483292 On ch=1 n=d3 v=86
483350 On ch=1 n=d#3 v=0
483358 On ch=1 n=d3 v=0
483366 On ch=1 n=c3 v=85
483438 On ch=1 n=a#2 v=87
483468 On ch=1 n=c3 v=0
483522 On ch=1 n=a2 v=101
483596 On ch=1 n=a#2 v=0
483598 On ch=1 n=g2 v=119
483622 On ch=1 n=a2 v=0
483868 Par ch=1 c=64 v=0
485434 Par ch=1 c=64 v=127
485514 On ch=1 n=a3 v=37
485516 On ch=1 n=a2 v=45
485570 On ch=1 n=g2 v=0
485636 On ch=1 n=a#2 v=48
485639 On ch=1 n=a3 v=0
485643 On ch=1 n=a#3 v=48
485670 On ch=1 n=a2 v=0
485731 On ch=1 n=a#3 v=0
485746 On ch=1 n=c4 v=49
485748 On ch=1 n=c3 v=45
485790 On ch=1 n=a#2 v=0
485818 On ch=1 n=c3 v=0
485824 On ch=1 n=d3 v=66
485827 On ch=1 n=d4 v=73
485828 On ch=1 n=c4 v=0
485921 On ch=1 n=d4 v=0
485924 On ch=1 n=e4 v=80
485928 On ch=1 n=e3 v=73
485942 On ch=1 n=d3 v=0
486004 On ch=1 n=f#4 v=81
486011 On ch=1 n=f#3 v=68
486033 On ch=1 n=e3 v=0
486040 On ch=1 n=e4 v=0
486074 On ch=1 n=f#4 v=0
486076 On ch=1 n=g4 v=81
486078 On ch=1 n=g3 v=78
486079 On ch=1 n=f#3 v=0
486148 On ch=1 n=g3 v=0
486152 On ch=1 n=a3 v=78
486154 On ch=1 n=a4 v=83
486186 On ch=1 n=g4 v=0
486214 On ch=1 n=a#3 v=74
486217 On ch=1 n=a#4 v=72
486258 On ch=1 n=a4 v=0
486274 On ch=1 n=c4 v=80
486274 On ch=1 n=c5 v=76
486288 On ch=1 n=a3 v=0
486298 On ch=1 n=a#4 v=0
486344 On ch=1 n=d4 v=87
486344 On ch=1 n=d5 v=94
486347 On ch=1 n=a#3 v=0
486362 On ch=1 n=c4 v=0
486378 On ch=1 n=c5 v=0
486426 On ch=1 n=e4 v=97
486430 On ch=1 n=e5 v=78
486456 On ch=1 n=d4 v=0
486482 On ch=1 n=d5 v=0
486488 On ch=1 n=f#5 v=73
486491 On ch=1 n=f#4 v=86
486518 On ch=1 n=e5 v=0
486524 On ch=1 n=e4 v=0
486566 On ch=1 n=f#5 v=0
486566 On ch=1 n=g5 v=73
486572 On ch=1 n=g4 v=88
486592 On ch=1 n=f#4 v=0
486650 On ch=1 n=a5 v=80
486652 On ch=1 n=g4 v=0
486656 On ch=1 n=a4 v=81
486682 On ch=1 n=g5 v=0
486724 On ch=1 n=a#4 v=72
486730 On ch=1 n=a#5 v=75
486764 On ch=1 n=a5 v=0
486780 On ch=1 n=c5 v=81
486780 On ch=1 n=c6 v=72
486790 On ch=1 n=a4 v=0
486814 On ch=1 n=a#5 v=0
486852 On ch=1 n=a#4 v=0
486866 On ch=1 n=d6 v=86
486870 On ch=1 n=c5 v=0
486870 On ch=1 n=d5 v=73
486909 On ch=1 n=c6 v=0
486948 On ch=1 n=e6 v=57
486954 On ch=1 n=e5 v=78
486964 On ch=1 n=d5 v=0
487000 On ch=1 n=d6 v=0
487035 On ch=1 n=f#6 v=75
487044 On ch=1 n=f#5 v=60
487060 On ch=1 n=e5 v=0
487110 On ch=1 n=e6 v=0
487114 On ch=1 n=g6 v=109
487116 On ch=1 n=g5 v=102
487124 On ch=1 n=f#5 v=0
487178 On ch=1 n=f#6 v=0
487192 On ch=1 n=g5 v=0
487404 On ch=1 n=g6 v=0
487494 Par ch=1 c=64 v=0
488814 On ch=1 n=a#4 v=36
488818 On ch=1 n=g4 v=39
488818 On ch=1 n=g3 v=31
488818 On ch=1 n=d4 v=41
488818 On ch=1 n=g2 v=30
489246 Par ch=1 c=64 v=127
489436 On ch=1 n=g3 v=0
489492 On ch=1 n=g4 v=0
489494 On ch=1 n=g2 v=0
489568 On ch=1 n=d4 v=0
489578 On ch=1 n=a#4 v=0
490731 On ch=1 n=g4 v=17
490732 On ch=1 n=a#4 v=19
490734 On ch=1 n=d4 v=15
490734 On ch=1 n=g3 v=22
490738 On ch=1 n=g2 v=14
490910 On ch=1 n=d4 v=0
490913 On ch=1 n=g4 v=0
490924 On ch=1 n=g2 v=0
490924 On ch=1 n=g3 v=0
490934 On ch=1 n=a#4 v=0
491407 On ch=1 n=d4 v=7
491408 On ch=1 n=a#4 v=20
491408 On ch=1 n=g3 v=10
491410 On ch=1 n=g4 v=15
491410 On ch=1 n=g2 v=12
491726 On ch=1 n=g3 v=0
491860 On ch=1 n=g2 v=0
492251 On ch=1 n=d4 v=0
493372 On ch=1 n=g4 v=0
493448 On ch=1 n=a#4 v=0
493840 Par ch=1 c=64 v=0
494036 On ch=1 n=d4 v=104
494044 On ch=1 n=d3 v=94
494338 On ch=1 n=d4 v=0
494374 On ch=1 n=g4 v=100
494380 On ch=1 n=g3 v=97
494436 On ch=1 n=d3 v=0
494456 Par ch=1 c=64 v=127
494660 On ch=1 n=a4 v=99
494674 On ch=1 n=a3 v=95
494712 On ch=1 n=g4 v=0
494748 On ch=1 n=g3 v=0
494838 Par ch=1 c=64 v=0
494892 On ch=1 n=c5 v=105
494896 On ch=1 n=c4 v=101
494920 On ch=1 n=a4 v=0
494922 On ch=1 n=a3 v=0
495054 Par ch=1 c=64 v=127
495054 On ch=1 n=a#4 v=92
495068 On ch=1 n=a#3 v=93
495094 On ch=1 n=c5 v=0
495106 On ch=1 n=c4 v=0
495154 On ch=1 n=a#3 v=0
495160 On ch=1 n=a#4 v=0
495224 On ch=1 n=a#4 v=93
495234 On ch=1 n=a#3 v=93
495344 On ch=1 n=a#3 v=0
495452 On ch=1 n=a#4 v=0
495760 Par ch=1 c=64 v=0
496338 On ch=1 n=a#3 v=97
496339 On ch=1 n=g2 v=116
496836 Par ch=1 c=64 v=127
497586 On ch=1 n=c4 v=57
497600 On ch=1 n=a#3 v=0
497600 On ch=1 n=a2 v=65
497610 On ch=1 n=g2 v=0
497753 On ch=1 n=d4 v=75
497763 On ch=1 n=a#2 v=58
497781 On ch=1 n=c4 v=0
497803 On ch=1 n=a2 v=0
497895 On ch=1 n=e4 v=81
497898 On ch=1 n=c3 v=65
497905 On ch=1 n=d4 v=0
497931 On ch=1 n=a#2 v=0
498019 On ch=1 n=f#4 v=80
498019 On ch=1 n=d3 v=75
498025 On ch=1 n=c3 v=0
498043 On ch=1 n=e4 v=0
498117 On ch=1 n=d3 v=0
498122 On ch=1 n=e3 v=97
498123 On ch=1 n=g4 v=80
498145 On ch=1 n=f#4 v=0
498227 On ch=1 n=f#3 v=69
498227 On ch=1 n=a4 v=81
498243 On ch=1 n=g4 v=0
498267 On ch=1 n=e3 v=0
498305 On ch=1 n=a#4 v=70
498311 On ch=1 n=g3 v=73
498351 On ch=1 n=a4 v=0
498353 On ch=1 n=f#3 v=0
498393 On ch=1 n=c5 v=79
498399 On ch=1 n=a3 v=72
498403 On ch=1 n=g3 v=0
498411 On ch=1 n=a#4 v=0
498467 On ch=1 n=d5 v=97
498473 On ch=1 n=a#3 v=82
498501 On ch=1 n=c5 v=0
498509 On ch=1 n=a3 v=0
498539 On ch=1 n=e5 v=81
498543 On ch=1 n=c4 v=75
498603 On ch=1 n=a#3 v=0
498609 On ch=1 n=d5 v=0
498611 On ch=1 n=d4 v=97
498611 On ch=1 n=f#5 v=79
498641 On ch=1 n=e5 v=0
498645 On ch=1 n=c4 v=0
498699 On ch=1 n=e4 v=100
498699 On ch=1 n=g5 v=90
498713 On ch=1 n=f#5 v=0
498725 On ch=1 n=d4 v=0
498761 On ch=1 n=f#4 v=94
498761 On ch=1 n=a5 v=83
498807 On ch=1 n=g5 v=0
498823 On ch=1 n=g4 v=85
498825 On ch=1 n=a#5 v=79
498826 On ch=1 n=e4 v=0
498881 On ch=1 n=a4 v=88
498885 On ch=1 n=c6 v=75
498887 On ch=1 n=a#5 v=0
498887 On ch=1 n=f#4 v=0
498893 On ch=1 n=a5 v=0
498900 On ch=1 n=g4 v=0
498971 On ch=1 n=a#4 v=76
498972 On ch=1 n=d6 v=100
498979 On ch=1 n=a4 v=0
498991 On ch=1 n=c6 v=0
499033 On ch=1 n=c5 v=89
499037 On ch=1 n=e6 v=71
499093 On ch=1 n=f#6 v=83
499096 On ch=1 n=d6 v=0
499103 On ch=1 n=a#4 v=0
499103 On ch=1 n=d5 v=92
499126 On ch=1 n=e6 v=0
499133 On ch=1 n=c5 v=0
499179 On ch=1 n=f#6 v=0
499182 On ch=1 n=g6 v=98
499189 On ch=1 n=e5 v=91
499219 On ch=1 n=d5 v=0
499243 On ch=1 n=a6 v=89
499249 On ch=1 n=f#5 v=79
499281 On ch=1 n=g6 v=0
499309 On ch=1 n=g5 v=84
499312 On ch=1 n=e5 v=0
499315 On ch=1 n=a#6 v=83
499341 On ch=1 n=a6 v=0
499371 On ch=1 n=f#5 v=0
499379 On ch=1 n=c7 v=94
499381 On ch=1 n=a5 v=79
499403 On ch=1 n=a#6 v=0
499403 On ch=1 n=g5 v=0
499463 On ch=1 n=d7 v=87
499467 On ch=1 n=a#5 v=77
499477 On ch=1 n=a5 v=0
499501 On ch=1 n=c7 v=0
499543 On ch=1 n=e7 v=72
499547 On ch=1 n=c6 v=60
499585 On ch=1 n=d7 v=0
499593 On ch=1 n=a#5 v=0
499605 On ch=1 n=f#7 v=81
499621 On ch=1 n=c6 v=0
499623 On ch=1 n=d6 v=87
499637 On ch=1 n=e7 v=0
499691 On ch=1 n=f#7 v=0
499705 On ch=1 n=g7 v=85
499709 On ch=1 n=e6 v=75
499717 On ch=1 n=d6 v=0
499783 On ch=1 n=f#6 v=87
499784 On ch=1 n=a7 v=79
499819 On ch=1 n=e6 v=0
499822 On ch=1 n=g7 v=0
499859 On ch=1 n=a#7 v=103
499861 On ch=1 n=g6 v=113
499864 On ch=1 n=a7 v=0
499875 On ch=1 n=f#6 v=0
499935 On ch=1 n=g6 v=0
500117 On ch=1 n=a#7 v=0
500305 Par ch=1 c=64 v=0
501981 On ch=1 n=a#4 v=37
501981 On ch=1 n=d5 v=50
501983 On ch=1 n=d4 v=35
501983 On ch=1 n=g2 v=39
501985 On ch=1 n=g4 v=44
501985 On ch=1 n=g3 v=34
502319 Par ch=1 c=64 v=127
502553 On ch=1 n=g3 v=0
502823 On ch=1 n=g4 v=0
502837 On ch=1 n=d5 v=0
502881 On ch=1 n=a#4 v=0
502977 On ch=1 n=g2 v=0
503025 On ch=1 n=d4 v=0
503880 On ch=1 n=d5 v=35
503882 On ch=1 n=a#4 v=21
503882 On ch=1 n=g4 v=12
503882 On ch=1 n=d4 v=14
503883 On ch=1 n=g3 v=22
503884 On ch=1 n=g2 v=20
504066 On ch=1 n=g4 v=0
504069 On ch=1 n=g3 v=0
504084 On ch=1 n=g2 v=0
504094 On ch=1 n=a#4 v=0
504096 On ch=1 n=d4 v=0
504137 On ch=1 n=d5 v=0
504615 On ch=1 n=g2 v=12
504617 On ch=1 n=d5 v=19
504617 On ch=1 n=g3 v=14
504619 On ch=1 n=a#4 v=9
504620 On ch=1 n=d4 v=8
504621 On ch=1 n=g4 v=8
504889 On ch=1 n=g3 v=0
505206 On ch=1 n=d4 v=0
506323 On ch=1 n=g4 v=0
506397 On ch=1 n=g2 v=0
506489 On ch=1 n=a#4 v=0
506533 On ch=1 n=d5 v=0
506897 Par ch=1 c=64 v=0
507247 On ch=1 n=d5 v=100
507257 On ch=1 n=d4 v=81
507651 On ch=1 n=g5 v=103
507661 On ch=1 n=g4 v=91
507727 On ch=1 n=d5 v=0
507737 On ch=1 n=d4 v=0
507989 On ch=1 n=a#5 v=93
507991 On ch=1 n=a#4 v=84
507994 On ch=1 n=g5 v=0
508029 On ch=1 n=g4 v=0
508239 On ch=1 n=a#4 v=0
508247 On ch=1 n=d#5 v=87
508247 On ch=1 n=d#6 v=98
508271 On ch=1 n=a#5 v=0
508311 Par ch=1 c=64 v=127
508403 On ch=1 n=d#6 v=0
508425 On ch=1 n=d#5 v=0
508455 On ch=1 n=d6 v=106
508463 On ch=1 n=d5 v=98
508549 On ch=1 n=d5 v=0
508563 On ch=1 n=d6 v=0
508623 On ch=1 n=d6 v=108
508633 On ch=1 n=d5 v=84
508709 Par ch=1 c=64 v=0
509003 Par ch=1 c=64 v=127
509011 On ch=1 n=d5 v=0
509014 On ch=1 n=d6 v=0
509417 Par ch=1 c=64 v=0
510291 On ch=1 n=e8 v=97
510297 On ch=1 n=a#2 v=92
510385 Par ch=1 c=64 v=127
510399 On ch=1 n=e7 v=110
510403 On ch=1 n=a#3 v=85
510539 On ch=1 n=a#3 v=0
510779 On ch=1 n=e7 v=0
510843 On ch=1 n=a#2 v=0
510891 On ch=1 n=e8 v=0
511289 On ch=1 n=d#8 v=108
511297 On ch=1 n=b2 v=115
511417 On ch=1 n=d#7 v=101
511419 On ch=1 n=b3 v=101
511645 Par ch=1 c=64 v=0
511795 On ch=1 n=b3 v=0
511795 On ch=1 n=b2 v=0
511839 On ch=1 n=d#7 v=0
511841 On ch=1 n=d#8 v=0
511845 Par ch=1 c=64 v=127
511969 On ch=1 n=c3 v=104
511977 On ch=1 n=d8 v=117
512041 On ch=1 n=d7 v=100
512051 On ch=1 n=c4 v=88
512075 Par ch=1 c=64 v=0
512275 Par ch=1 c=64 v=127
512305 On ch=1 n=c4 v=0
512319 On ch=1 n=d8 v=0
512319 On ch=1 n=c3 v=0
512347 On ch=1 n=d7 v=0
512435 On ch=1 n=c#3 v=97
512445 On ch=1 n=c#8 v=102
512459 Par ch=1 c=64 v=0
512493 On ch=1 n=c#7 v=101
512497 On ch=1 n=c#4 v=103
512659 Par ch=1 c=64 v=127
512691 On ch=1 n=c#4 v=0
512691 On ch=1 n=c#3 v=0
512701 On ch=1 n=c#7 v=0
512715 On ch=1 n=c#8 v=0
512747 On ch=1 n=d3 v=94
512765 On ch=1 n=c8 v=102
512789 On ch=1 n=c7 v=115
512809 On ch=1 n=d4 v=103
512877 On ch=1 n=d3 v=0
512899 On ch=1 n=c8 v=0
512905 On ch=1 n=d4 v=0
512921 On ch=1 n=c7 v=0
512997 On ch=1 n=d#4 v=102
513001 On ch=1 n=b6 v=119
513003 On ch=1 n=b7 v=106
513003 On ch=1 n=d#3 v=91
513053 On ch=1 n=c7 v=14
513077 On ch=1 n=b6 v=0
513087 On ch=1 n=b7 v=0
513103 On ch=1 n=c7 v=0
513131 On ch=1 n=d#4 v=0
513135 On ch=1 n=d#3 v=0
513209 On ch=1 n=a#6 v=104
513209 On ch=1 n=a#7 v=99
513219 On ch=1 n=e3 v=111
513221 On ch=1 n=e4 v=103
513227 Par ch=1 c=64 v=0
513287 On ch=1 n=d4 v=9
513321 On ch=1 n=e3 v=0
513331 On ch=1 n=d4 v=0
513343 On ch=1 n=e4 v=0
513359 On ch=1 n=a#7 v=0
513359 On ch=1 n=a#6 v=0
513381 Par ch=1 c=64 v=127
513407 On ch=1 n=a7 v=103
513407 On ch=1 n=f3 v=106
513407 On ch=1 n=f4 v=115
513413 On ch=1 n=a6 v=104
513461 On ch=1 n=f4 v=0
513471 On ch=1 n=f3 v=0
513497 On ch=1 n=a6 v=0
513519 On ch=1 n=a7 v=0
513557 On ch=1 n=f#4 v=102
513563 On ch=1 n=g#6 v=108
513566 On ch=1 n=g#7 v=99
513569 On ch=1 n=f#3 v=90
513629 On ch=1 n=f#3 v=0
513647 On ch=1 n=g#6 v=0
513655 On ch=1 n=g#7 v=0
513667 On ch=1 n=f#4 v=0
513703 Par ch=1 c=64 v=0
513735 On ch=1 n=g4 v=112
513737 On ch=1 n=g7 v=110
513739 On ch=1 n=g3 v=110
513739 On ch=1 n=g6 v=115
513805 On ch=1 n=g7 v=0
513809 On ch=1 n=g4 v=0
513819 On ch=1 n=g3 v=0
513829 On ch=1 n=g6 v=0
513843 Par ch=1 c=64 v=127
513913 On ch=1 n=f#4 v=101
513913 On ch=1 n=f#6 v=103
513915 On ch=1 n=f#7 v=98
513919 On ch=1 n=f#3 v=96
513997 On ch=1 n=f#4 v=0
514000 On ch=1 n=f#6 v=0
514003 On ch=1 n=f#3 v=0
514013 On ch=1 n=f#7 v=0
514065 On ch=1 n=f7 v=103
514068 On ch=1 n=f3 v=108
514068 On ch=1 n=f4 v=117
514068 On ch=1 n=f6 v=102
514131 On ch=1 n=f6 v=0
514133 On ch=1 n=f7 v=0
514145 On ch=1 n=f4 v=0
514171 On ch=1 n=f3 v=0
514217 On ch=1 n=e6 v=101
514221 On ch=1 n=e7 v=108
514225 On ch=1 n=e3 v=112
514227 On ch=1 n=e4 v=102
514259 On ch=1 n=e7 v=0
514262 On ch=1 n=e3 v=0
514269 On ch=1 n=e4 v=0
514293 On ch=1 n=e6 v=0
514353 On ch=1 n=d#6 v=105
514353 On ch=1 n=d#7 v=97
514361 On ch=1 n=d#4 v=99
514369 On ch=1 n=d#3 v=96
514411 On ch=1 n=d#3 v=0
514423 On ch=1 n=d#6 v=0
514431 On ch=1 n=d#4 v=0
514433 On ch=1 n=d#7 v=0
514481 On ch=1 n=d4 v=105
514485 On ch=1 n=d3 v=103
514487 On ch=1 n=d7 v=106
514489 On ch=1 n=d6 v=105
514527 On ch=1 n=d7 v=0
514530 On ch=1 n=d3 v=0
514545 On ch=1 n=d6 v=0
514551 On ch=1 n=d4 v=0
514613 On ch=1 n=c#4 v=103
514615 On ch=1 n=c#7 v=102
514615 On ch=1 n=c#6 v=103
514621 On ch=1 n=c#3 v=99
514657 On ch=1 n=c#3 v=0
514697 On ch=1 n=c#7 v=0
514701 On ch=1 n=c#4 v=0
514719 On ch=1 n=c#6 v=0
514727 On ch=1 n=c4 v=98
514727 On ch=1 n=c3 v=106
514737 On ch=1 n=c7 v=107
514739 On ch=1 n=c6 v=100
514777 On ch=1 n=c6 v=0
514777 On ch=1 n=c4 v=0
514783 On ch=1 n=c7 v=0
514803 On ch=1 n=c3 v=0
514851 On ch=1 n=b3 v=96
514854 On ch=1 n=b2 v=108
514869 On ch=1 n=b5 v=107
514877 On ch=1 n=b6 v=108
514880 On ch=1 n=b2 v=0
514887 On ch=1 n=b3 v=0
514905 On ch=1 n=b6 v=0
514907 On ch=1 n=b5 v=0
514965 On ch=1 n=a#3 v=97
514981 On ch=1 n=a#2 v=88
514983 On ch=1 n=a#5 v=97
514985 On ch=1 n=a#6 v=97
515017 On ch=1 n=a#2 v=0
515035 On ch=1 n=a#3 v=0
515069 On ch=1 n=a#6 v=0
515081 On ch=1 n=a#5 v=0
515087 On ch=1 n=a3 v=93
515097 On ch=1 n=a2 v=97
515107 On ch=1 n=a6 v=105
515109 On ch=1 n=a5 v=97
515137 On ch=1 n=a2 v=0
515139 On ch=1 n=a6 v=0
515161 On ch=1 n=a5 v=0
515163 On ch=1 n=a3 v=0
515219 On ch=1 n=g#3 v=99
515231 On ch=1 n=g#2 v=86
515233 On ch=1 n=g#5 v=94
515233 On ch=1 n=g#6 v=97
515277 On ch=1 n=g#2 v=0
515321 On ch=1 n=g#3 v=0
515324 On ch=1 n=g#6 v=0
515327 On ch=1 n=g#5 v=0
515351 On ch=1 n=g5 v=111
515353 On ch=1 n=g6 v=113
515357 On ch=1 n=g3 v=108
515357 On ch=1 n=g2 v=111
515379 Par ch=1 c=64 v=0
515843 On ch=1 n=g2 v=0
515867 On ch=1 n=g5 v=0
515870 Par ch=1 c=64 v=127
515901 On ch=1 n=g3 v=0
515955 On ch=1 n=g6 v=0
516471 On ch=1 n=g4 v=105
516471 On ch=1 n=g7 v=101
516472 On ch=1 n=a#7 v=103
516473 On ch=1 n=d5 v=98
516473 On ch=1 n=d7 v=102
516473 On ch=1 n=g5 v=107
516474 On ch=1 n=a#6 v=109
516869 On ch=1 n=g4 v=0
516927 On ch=1 n=g5 v=0
516963 On ch=1 n=d5 v=0
517046 On ch=1 n=a#7 v=0
517051 On ch=1 n=g7 v=0
517062 On ch=1 n=a#6 v=0
517099 On ch=1 n=d7 v=0
517801 On ch=1 n=g4 v=113
517803 On ch=1 n=g3 v=110
517803 On ch=1 n=g2 v=114
518067 Par ch=1 c=64 v=0
519142 Par ch=1 c=64 v=127
519475 On ch=1 n=g3 v=0
519495 On ch=1 n=g2 v=0
519549 On ch=1 n=g4 v=0
520219 Par ch=1 c=64 v=0
522217 Par ch=1 c=64 v=0
522217 Meta TrkEnd
