MFile 1 2 480
MTrk
0 TimeSig 6/8 12 8
0 Tempo 526316
152640 Tempo 625000
154080 Tempo 526316
164160 Tempo 625000
165600 Tempo 526316
195840 Tempo 631579
214560 Tempo 705882
216000 Tempo 833333
226080 Tempo 731707
239040 Tempo 697674
264960 Tempo 759494
270720 Tempo 789474
290880 Tempo 810811
292320 Tempo 833333
295200 Tempo 1016949
296640 Tempo 660535
299520 Tempo 731707
309600 Tempo 672957
311040 Tempo 779221
312480 Tempo 714286
313920 Tempo 731707
313920 Meta TrkEnd
TrkEnd
MTrk
0 SeqSpec 43 00 01 00
0 Meta TrkName "Copyright 1997 acuity2020@aol."
0 PrCh ch=1 p=0
8 On ch=1 n=d#5 v=54
666 Par ch=1 c=64 v=0
680 On ch=1 n=d5 v=47
694 On ch=1 n=f5 v=58
724 On ch=1 n=d#5 v=0
758 Par ch=1 c=64 v=127
834 On ch=1 n=d5 v=0
1034 Par ch=1 c=64 v=0
1044 On ch=1 n=g5 v=60
1060 On ch=1 n=f5 v=0
1062 On ch=1 n=d#5 v=52
1070 On ch=1 n=c#5 v=49
1104 Par ch=1 c=64 v=127
1184 On ch=1 n=d#5 v=0
1196 On ch=1 n=c#5 v=0
1288 Par ch=1 c=64 v=0
1318 On ch=1 n=g#5 v=67
1318 On ch=1 n=d#5 v=53
1318 On ch=1 n=c5 v=55
1356 On ch=1 n=g5 v=0
1362 Par ch=1 c=64 v=127
1444 On ch=1 n=c5 v=0
1480 On ch=1 n=d#5 v=0
1578 On ch=1 n=a#5 v=68
1578 On ch=1 n=g4 v=52
1596 On ch=1 n=d#5 v=63
1614 On ch=1 n=g#5 v=0
1674 On ch=1 n=g4 v=0
1712 On ch=1 n=d#5 v=0
1902 On ch=1 n=c6 v=66
1908 On ch=1 n=d#5 v=43
1908 On ch=1 n=g#4 v=40
1918 On ch=1 n=a#5 v=0
1926 Par ch=1 c=64 v=0
2024 Par ch=1 c=64 v=127
2118 On ch=1 n=c6 v=0
2134 On ch=1 n=g#4 v=0
2160 On ch=1 n=d#5 v=0
2572 On ch=1 n=g#5 v=49
2584 On ch=1 n=f6 v=67
2584 On ch=1 n=d#4 v=52
2600 On ch=1 n=f5 v=33
2600 On ch=1 n=b4 v=51
2608 On ch=1 n=d5 v=42
2782 On ch=1 n=f6 v=0
2812 On ch=1 n=g#5 v=0
2814 On ch=1 n=f5 v=0
2852 On ch=1 n=d5 v=0
3030 On ch=1 n=b4 v=0
3042 On ch=1 n=d#6 v=63
3056 On ch=1 n=d#5 v=36
3056 On ch=1 n=c5 v=56
3066 On ch=1 n=g#5 v=52
3174 Par ch=1 c=64 v=0
3368 Par ch=1 c=64 v=127
3598 On ch=1 n=d#4 v=0
3778 On ch=1 n=g#5 v=0
3896 On ch=1 n=c5 v=0
3926 On ch=1 n=d#5 v=0
4296 On ch=1 n=c#5 v=60
4308 On ch=1 n=d#5 v=33
4314 On ch=1 n=g5 v=40
4356 Par ch=1 c=64 v=0
4536 Par ch=1 c=64 v=127
4632 On ch=1 n=c5 v=60
4684 On ch=1 n=c#5 v=0
4900 On ch=1 n=a#4 v=63
4914 On ch=1 n=c5 v=0
4990 On ch=1 n=a#4 v=0
5034 On ch=1 n=g5 v=0
5040 On ch=1 n=d#5 v=0
5160 On ch=1 n=a#4 v=53
5192 On ch=1 n=d#5 v=55
5214 On ch=1 n=g5 v=55
5214 On ch=1 n=c5 v=56
5222 On ch=1 n=c#6 v=36
5234 On ch=1 n=a#4 v=0
5296 On ch=1 n=c5 v=0
5304 On ch=1 n=a#4 v=54
5374 Par ch=1 c=64 v=0
5546 On ch=1 n=a#4 v=0
5550 Par ch=1 c=64 v=127
5572 On ch=1 n=a4 v=54
5594 Par ch=1 c=64 v=0
5748 Par ch=1 c=64 v=127
5782 On ch=1 n=c#6 v=0
5806 On ch=1 n=a#4 v=57
5852 On ch=1 n=a4 v=0
5852 Par ch=1 c=64 v=0
5864 On ch=1 n=g5 v=0
5928 Par ch=1 c=64 v=127
5940 On ch=1 n=d#5 v=0
6106 On ch=1 n=d#5 v=42
6112 On ch=1 n=g#5 v=42
6128 On ch=1 n=c5 v=62
6154 On ch=1 n=a#4 v=0
6172 On ch=1 n=d#6 v=0
6190 Par ch=1 c=64 v=0
6440 On ch=1 n=g#4 v=62
6486 On ch=1 n=c5 v=0
6822 Par ch=1 c=64 v=127
6914 Par ch=1 c=64 v=0
6968 Par ch=1 c=64 v=127
7006 On ch=1 n=g#4 v=0
7046 On ch=1 n=d#4 v=52
7146 On ch=1 n=d#4 v=0
7258 On ch=1 n=d#4 v=60
7398 Par ch=1 c=64 v=0
7650 Par ch=1 c=64 v=127
7710 On ch=1 n=g#5 v=0
7760 On ch=1 n=d#5 v=0
8524 Par ch=1 c=64 v=0
8548 On ch=1 n=d#4 v=0
8564 On ch=1 n=d#3 v=64
8574 On ch=1 n=d#5 v=33
8584 On ch=1 n=g4 v=40
8592 On ch=1 n=c#5 v=39
9194 On ch=1 n=g4 v=0
9206 On ch=1 n=f3 v=69
9222 On ch=1 n=g#4 v=33
9258 On ch=1 n=d#3 v=0
9492 On ch=1 n=g#4 v=0
9498 On ch=1 n=g3 v=66
9512 On ch=1 n=a#4 v=35
9526 On ch=1 n=f3 v=0
9726 On ch=1 n=a#4 v=0
9752 On ch=1 n=g#3 v=76
9814 On ch=1 n=c5 v=28
9828 On ch=1 n=g3 v=0
9998 On ch=1 n=c5 v=0
10012 On ch=1 n=a#3 v=60
10040 On ch=1 n=g4 v=45
10054 On ch=1 n=g#3 v=0
10142 On ch=1 n=c#5 v=0
10298 On ch=1 n=g#4 v=64
10302 On ch=1 n=c4 v=64
10316 On ch=1 n=g4 v=0
10340 On ch=1 n=a#3 v=0
10384 On ch=1 n=d#5 v=0
10456 Par ch=1 c=64 v=127
10540 On ch=1 n=g#4 v=0
10594 On ch=1 n=c4 v=0
10968 On ch=1 n=g#4 v=52
10976 On ch=1 n=f4 v=70
10982 On ch=1 n=d5 v=53
10994 On ch=1 n=b4 v=34
11174 On ch=1 n=b4 v=0
11184 On ch=1 n=g#4 v=0
11348 On ch=1 n=f4 v=0
11386 On ch=1 n=g#4 v=53
11392 On ch=1 n=d#5 v=52
11392 On ch=1 n=d#4 v=64
11412 On ch=1 n=c5 v=47
11424 On ch=1 n=d5 v=0
11436 Par ch=1 c=64 v=0
11886 Par ch=1 c=64 v=127
12158 On ch=1 n=d#5 v=0
12170 On ch=1 n=c5 v=0
12706 On ch=1 n=g#5 v=58
12706 On ch=1 n=d#5 v=61
12718 On ch=1 n=c5 v=64
12806 On ch=1 n=c5 v=0
12810 On ch=1 n=d#5 v=0
12834 On ch=1 n=g#5 v=0
13008 On ch=1 n=a#5 v=69
13020 On ch=1 n=d#5 v=66
13022 On ch=1 n=c#5 v=68
13108 On ch=1 n=d#5 v=0
13112 On ch=1 n=c#5 v=0
13138 On ch=1 n=a#5 v=0
13350 Par ch=1 c=64 v=0
13366 On ch=1 n=g#4 v=0
13368 On ch=1 n=c6 v=68
13368 On ch=1 n=g#5 v=39
13368 On ch=1 n=d#5 v=44
13506 Par ch=1 c=64 v=127
13600 Par ch=1 c=64 v=0
13682 Par ch=1 c=64 v=127
13792 On ch=1 n=g#5 v=0
13794 On ch=1 n=d#5 v=0
13794 On ch=1 n=c6 v=0
14122 On ch=1 n=d#3 v=63
14138 On ch=1 n=a#5 v=64
14148 On ch=1 n=c#5 v=41
14156 On ch=1 n=d#5 v=44
14260 On ch=1 n=d#5 v=0
14286 On ch=1 n=c#5 v=0
14292 On ch=1 n=d#3 v=0
14310 On ch=1 n=a#5 v=0
14364 On ch=1 n=d#4 v=0
14522 On ch=1 n=g#3 v=56
14532 On ch=1 n=c6 v=69
14550 On ch=1 n=g#5 v=36
14564 On ch=1 n=d#5 v=34
14638 Par ch=1 c=64 v=0
14790 Par ch=1 c=64 v=127
14868 Par ch=1 c=64 v=0
14956 Par ch=1 c=64 v=127
14980 On ch=1 n=g#5 v=0
15090 On ch=1 n=c6 v=0
15108 On ch=1 n=d#5 v=0
15332 On ch=1 n=g#5 v=47
15346 On ch=1 n=d#4 v=33
15352 On ch=1 n=d#5 v=46
15352 On ch=1 n=c5 v=44
15496 On ch=1 n=d#5 v=0
15498 On ch=1 n=c5 v=0
15530 On ch=1 n=g#5 v=0
15784 On ch=1 n=g#5 v=36
15784 On ch=1 n=c5 v=36
15784 On ch=1 n=g#4 v=39
15790 On ch=1 n=d#5 v=44
15852 On ch=1 n=d#4 v=0
16088 On ch=1 n=g#3 v=0
16106 On ch=1 n=c5 v=0
16126 On ch=1 n=d#5 v=0
16166 On ch=1 n=g#5 v=0
16226 On ch=1 n=g#4 v=0
16912 Par ch=1 c=64 v=0
16920 On ch=1 n=g#7 v=88
16920 On ch=1 n=g#2 v=80
16926 On ch=1 n=g#6 v=86
16926 On ch=1 n=g#3 v=80
17014 Par ch=1 c=64 v=127
17098 Par ch=1 c=64 v=0
17184 Par ch=1 c=64 v=127
17600 On ch=1 n=d#6 v=68
17608 On ch=1 n=g#5 v=33
17608 On ch=1 n=f#5 v=39
17762 On ch=1 n=g#5 v=0
17824 On ch=1 n=d#6 v=0
17866 On ch=1 n=f#5 v=0
17948 On ch=1 n=d6 v=65
17952 On ch=1 n=g#5 v=65
17952 On ch=1 n=f5 v=54
18128 On ch=1 n=d6 v=0
18180 On ch=1 n=g#5 v=0
18206 On ch=1 n=f5 v=0
18334 On ch=1 n=g#7 v=0
18338 On ch=1 n=g#2 v=0
18344 On ch=1 n=g#3 v=0
18344 On ch=1 n=g#6 v=0
18862 Par ch=1 c=64 v=0
18920 On ch=1 n=g#6 v=71
18920 On ch=1 n=g#5 v=68
18936 On ch=1 n=g#2 v=80
18940 On ch=1 n=g#3 v=59
18972 Par ch=1 c=64 v=127
19588 On ch=1 n=c#5 v=53
19592 On ch=1 n=g#4 v=35
19592 On ch=1 n=e4 v=60
19776 On ch=1 n=e4 v=0
19808 On ch=1 n=c#5 v=0
19814 On ch=1 n=g#4 v=0
19968 On ch=1 n=g#4 v=39
19968 On ch=1 n=d#4 v=52
19980 On ch=1 n=c5 v=40
20004 Par ch=1 c=64 v=0
20096 Par ch=1 c=64 v=127
20186 On ch=1 n=g#6 v=0
20290 On ch=1 n=g#5 v=0
20296 On ch=1 n=c5 v=0
20298 On ch=1 n=d#4 v=0
20302 On ch=1 n=g#4 v=0
20306 On ch=1 n=g#2 v=0
20310 On ch=1 n=g#3 v=0
20512 On ch=1 n=c6 v=59
20520 On ch=1 n=c5 v=66
20638 On ch=1 n=f6 v=69
20640 On ch=1 n=f5 v=53
20670 On ch=1 n=c6 v=0
20678 On ch=1 n=c5 v=0
20950 Par ch=1 c=64 v=0
20988 On ch=1 n=d#3 v=68
21000 On ch=1 n=d#2 v=80
21046 Par ch=1 c=64 v=127
21190 On ch=1 n=f5 v=0
21214 On ch=1 n=f6 v=0
21506 On ch=1 n=d#6 v=44
21514 On ch=1 n=d#5 v=54
21576 On ch=1 n=d#5 v=0
21584 On ch=1 n=d#6 v=0
21632 On ch=1 n=d#4 v=36
21640 On ch=1 n=c5 v=34
21640 On ch=1 n=g#4 v=47
21656 On ch=1 n=d#6 v=60
21656 On ch=1 n=d#5 v=44
21862 On ch=1 n=c5 v=0
21906 On ch=1 n=d#4 v=0
22036 On ch=1 n=g#4 v=0
22056 On ch=1 n=d4 v=37
22058 On ch=1 n=f4 v=48
22064 On ch=1 n=b4 v=37
22124 Par ch=1 c=64 v=0
22188 On ch=1 n=d#3 v=0
22200 On ch=1 n=d#2 v=0
22226 Par ch=1 c=64 v=127
22354 On ch=1 n=d#6 v=0
22384 On ch=1 n=d#5 v=0
22544 On ch=1 n=d#6 v=58
22548 On ch=1 n=f4 v=0
22548 On ch=1 n=d#5 v=59
22584 On ch=1 n=b4 v=0
22598 On ch=1 n=d4 v=0
22616 On ch=1 n=d#5 v=0
22622 On ch=1 n=d#6 v=0
22682 On ch=1 n=d#5 v=52
22694 On ch=1 n=d#6 v=54
23064 Par ch=1 c=64 v=0
23088 On ch=1 n=d#3 v=68
23166 Par ch=1 c=64 v=127
23276 On ch=1 n=d#6 v=0
23306 On ch=1 n=d#5 v=0
23604 On ch=1 n=d#5 v=48
23620 On ch=1 n=d#6 v=28
23682 On ch=1 n=d#5 v=0
23700 On ch=1 n=d#6 v=0
23770 On ch=1 n=f4 v=36
23772 On ch=1 n=d#5 v=43
23772 On ch=1 n=b4 v=56
23772 On ch=1 n=d4 v=43
23788 On ch=1 n=d#6 v=52
23890 On ch=1 n=f4 v=0
23922 On ch=1 n=b4 v=0
24152 On ch=1 n=d4 v=0
24208 Par ch=1 c=64 v=0
24216 On ch=1 n=c#4 v=39
24224 On ch=1 n=g4 v=36
24226 On ch=1 n=a#4 v=33
24254 Par ch=1 c=64 v=127
24434 On ch=1 n=d#6 v=0
24450 On ch=1 n=d#5 v=0
24502 On ch=1 n=d#3 v=0
24562 On ch=1 n=g4 v=0
24680 On ch=1 n=a#4 v=0
24696 On ch=1 n=c#4 v=0
24714 On ch=1 n=d#6 v=52
24714 On ch=1 n=d#5 v=56
24788 On ch=1 n=d#5 v=0
24802 On ch=1 n=d#6 v=0
24860 On ch=1 n=d#5 v=52
24862 On ch=1 n=d#6 v=55
24936 On ch=1 n=d#5 v=0
24956 On ch=1 n=d#6 v=0
25420 Par ch=1 c=64 v=0
25432 On ch=1 n=g#2 v=80
25442 On ch=1 n=g#7 v=84
25444 On ch=1 n=g#6 v=82
25444 On ch=1 n=g#3 v=80
25528 Par ch=1 c=64 v=127
26118 On ch=1 n=d#6 v=80
26132 On ch=1 n=f#5 v=44
26138 On ch=1 n=g#5 v=41
26190 On ch=1 n=g#5 v=0
26192 On ch=1 n=f#5 v=0
26198 On ch=1 n=d#6 v=0
26266 On ch=1 n=g#5 v=67
26274 On ch=1 n=d#6 v=78
26274 On ch=1 n=f#5 v=63
26538 On ch=1 n=g#5 v=0
26578 On ch=1 n=d#6 v=0
26626 On ch=1 n=f#5 v=0
26704 On ch=1 n=g#5 v=58
26718 On ch=1 n=d6 v=66
26718 On ch=1 n=f5 v=60
27020 On ch=1 n=g#7 v=0
27038 On ch=1 n=d6 v=0
27058 On ch=1 n=g#6 v=0
27068 On ch=1 n=g#5 v=0
27080 On ch=1 n=f5 v=0
27086 On ch=1 n=g#2 v=0
27116 On ch=1 n=g#3 v=0
27872 On ch=1 n=g#6 v=76
27872 On ch=1 n=g#5 v=75
27880 On ch=1 n=g#2 v=64
27882 On ch=1 n=g#3 v=58
27898 Par ch=1 c=64 v=0
27990 Par ch=1 c=64 v=127
28554 On ch=1 n=c#5 v=66
28562 On ch=1 n=g#4 v=61
28568 On ch=1 n=e4 v=63
28638 On ch=1 n=g#4 v=0
28642 On ch=1 n=e4 v=0
28642 On ch=1 n=c#5 v=0
28700 On ch=1 n=e4 v=62
28714 On ch=1 n=c#5 v=66
28718 On ch=1 n=g#4 v=51
28838 On ch=1 n=g#2 v=0
28840 On ch=1 n=g#3 v=0
28898 On ch=1 n=g#4 v=0
28912 On ch=1 n=c#5 v=0
28924 On ch=1 n=e4 v=0
29030 On ch=1 n=g#5 v=0
29320 On ch=1 n=g#4 v=39
29320 On ch=1 n=d#4 v=43
29332 On ch=1 n=c5 v=36
29340 Par ch=1 c=64 v=0
29474 Par ch=1 c=64 v=127
29562 On ch=1 n=g#4 v=0
29576 On ch=1 n=d#4 v=0
29648 On ch=1 n=c5 v=0
29790 On ch=1 n=c6 v=59
29790 On ch=1 n=c5 v=46
29870 On ch=1 n=g#6 v=0
29882 On ch=1 n=c#5 v=54
29888 On ch=1 n=c#6 v=64
29898 On ch=1 n=c6 v=0
29914 On ch=1 n=c5 v=0
29960 On ch=1 n=d5 v=57
29974 On ch=1 n=c#5 v=0
29990 On ch=1 n=c#6 v=0
29990 On ch=1 n=d6 v=61
30056 On ch=1 n=d6 v=0
30080 On ch=1 n=d#6 v=69
30080 On ch=1 n=d#5 v=73
30090 On ch=1 n=d5 v=0
30168 On ch=1 n=e6 v=68
30178 On ch=1 n=d#6 v=0
30182 On ch=1 n=e5 v=36
30198 On ch=1 n=d#5 v=0
30272 On ch=1 n=e6 v=0
30272 On ch=1 n=g5 v=62
30280 On ch=1 n=g6 v=62
30302 On ch=1 n=e5 v=0
30346 Par ch=1 c=64 v=0
30438 Par ch=1 c=64 v=127
30460 On ch=1 n=g6 v=0
30460 On ch=1 n=g5 v=0
30756 On ch=1 n=f5 v=69
30758 On ch=1 n=f6 v=71
30816 On ch=1 n=f5 v=0
30824 On ch=1 n=f6 v=0
30888 On ch=1 n=d#2 v=80
30892 On ch=1 n=f6 v=76
30892 On ch=1 n=f5 v=60
30898 On ch=1 n=d#3 v=51
30956 Par ch=1 c=64 v=0
31076 Par ch=1 c=64 v=127
31204 On ch=1 n=d#2 v=0
31214 On ch=1 n=d#3 v=0
31246 On ch=1 n=f6 v=0
31256 On ch=1 n=f5 v=0
31550 On ch=1 n=d#5 v=54
31558 On ch=1 n=d#6 v=58
31620 On ch=1 n=d#6 v=0
31620 On ch=1 n=d#5 v=0
31688 On ch=1 n=d#4 v=63
31694 On ch=1 n=d#6 v=51
31694 On ch=1 n=g#4 v=47
31696 On ch=1 n=d#5 v=45
31696 On ch=1 n=c5 v=45
31728 Par ch=1 c=64 v=0
31816 Par ch=1 c=64 v=127
31962 On ch=1 n=c5 v=0
32010 On ch=1 n=d#4 v=0
32046 On ch=1 n=g#4 v=0
32096 On ch=1 n=d4 v=50
32104 On ch=1 n=b4 v=54
32104 On ch=1 n=f4 v=54
32138 Par ch=1 c=64 v=0
32208 Par ch=1 c=64 v=127
32362 On ch=1 n=d#6 v=0
32380 On ch=1 n=d#5 v=0
32518 On ch=1 n=f4 v=0
32530 On ch=1 n=b4 v=0
32530 On ch=1 n=d4 v=0
32576 On ch=1 n=d#6 v=57
32586 On ch=1 n=d#5 v=50
32646 On ch=1 n=d#5 v=0
32650 On ch=1 n=d#6 v=0
32720 On ch=1 n=d#5 v=49
32722 On ch=1 n=d#6 v=45
33030 Par ch=1 c=64 v=0
33064 On ch=1 n=d#3 v=68
33116 Par ch=1 c=64 v=127
33204 On ch=1 n=d#6 v=0
33224 On ch=1 n=d#5 v=0
33270 On ch=1 n=d#3 v=0
33540 On ch=1 n=d#6 v=48
33542 On ch=1 n=d#5 v=46
33606 On ch=1 n=d#5 v=0
33618 On ch=1 n=d#6 v=0
33682 On ch=1 n=d#5 v=45
33692 On ch=1 n=d#6 v=48
33698 On ch=1 n=d4 v=51
33700 On ch=1 n=f4 v=52
33710 On ch=1 n=b4 v=44
33854 On ch=1 n=f4 v=0
33884 On ch=1 n=d4 v=0
33888 On ch=1 n=b4 v=0
34136 On ch=1 n=c#4 v=63
34136 Par ch=1 c=64 v=0
34144 On ch=1 n=g4 v=33
34146 On ch=1 n=a#4 v=31
34238 Par ch=1 c=64 v=127
34344 On ch=1 n=d#6 v=0
34370 On ch=1 n=d#5 v=0
34624 On ch=1 n=d#6 v=45
34624 On ch=1 n=d#5 v=45
34696 On ch=1 n=d#5 v=0
34708 On ch=1 n=d#6 v=0
34722 On ch=1 n=g4 v=0
34770 On ch=1 n=d#6 v=49
34770 On ch=1 n=d#5 v=46
34824 On ch=1 n=a#4 v=0
34848 On ch=1 n=c#4 v=0
35190 On ch=1 n=g#3 v=66
35192 On ch=1 n=g#2 v=80
35212 Par ch=1 c=64 v=0
35332 Par ch=1 c=64 v=127
35372 On ch=1 n=d#5 v=0
35372 On ch=1 n=d#6 v=0
35432 On ch=1 n=g#2 v=0
35452 On ch=1 n=g#3 v=0
35668 On ch=1 n=g#5 v=63
35802 On ch=1 n=f6 v=73
35802 On ch=1 n=g#4 v=50
35802 On ch=1 n=c4 v=59
35808 On ch=1 n=f#4 v=47
35816 On ch=1 n=f5 v=61
35826 On ch=1 n=g#5 v=0
36008 On ch=1 n=c4 v=0
36022 On ch=1 n=f#4 v=0
36026 On ch=1 n=g#4 v=0
36186 On ch=1 n=g#4 v=43
36200 On ch=1 n=d4 v=50
36206 On ch=1 n=b3 v=43
36234 Par ch=1 c=64 v=0
36350 Par ch=1 c=64 v=127
36418 On ch=1 n=f5 v=0
36436 On ch=1 n=f6 v=0
36656 On ch=1 n=d#5 v=73
36660 On ch=1 n=d#6 v=60
36756 On ch=1 n=d#5 v=0
36758 On ch=1 n=d#6 v=0
36788 On ch=1 n=d4 v=0
36818 On ch=1 n=d6 v=72
36822 On ch=1 n=d5 v=44
36892 On ch=1 n=b3 v=0
36918 On ch=1 n=g#4 v=0
37144 Par ch=1 c=64 v=0
37160 On ch=1 n=g#2 v=80
37168 On ch=1 n=g#3 v=54
37250 On ch=1 n=d6 v=0
37272 Par ch=1 c=64 v=127
37296 On ch=1 n=d5 v=0
37400 On ch=1 n=g#2 v=0
37416 On ch=1 n=g#3 v=0
37622 On ch=1 n=c#6 v=68
37728 On ch=1 n=c#6 v=0
37784 On ch=1 n=g5 v=69
37784 On ch=1 n=c#5 v=80
37784 On ch=1 n=a#4 v=46
37784 On ch=1 n=d#4 v=27
37784 On ch=1 n=g#3 v=46
37788 On ch=1 n=c#6 v=90
37936 On ch=1 n=d#4 v=0
37938 On ch=1 n=a#4 v=0
37964 On ch=1 n=g#3 v=0
38178 On ch=1 n=g5 v=0
38182 On ch=1 n=g#4 v=45
38184 On ch=1 n=d#4 v=36
38188 On ch=1 n=g#3 v=45
38226 Par ch=1 c=64 v=0
38316 Par ch=1 c=64 v=127
38376 On ch=1 n=c#5 v=0
38560 On ch=1 n=c#6 v=0
38688 On ch=1 n=g#5 v=69
38688 On ch=1 n=c5 v=68
38696 On ch=1 n=c6 v=68
38704 On ch=1 n=d#4 v=0
38742 On ch=1 n=g#4 v=0
38770 On ch=1 n=c5 v=0
38776 On ch=1 n=c6 v=0
38784 On ch=1 n=g#3 v=0
38792 On ch=1 n=g#5 v=0
38806 On ch=1 n=c#6 v=81
38820 On ch=1 n=c#5 v=75
39010 On ch=1 n=c#5 v=0
39076 On ch=1 n=c#6 v=0
39168 On ch=1 n=g#5 v=73
39168 On ch=1 n=f2 v=80
39172 On ch=1 n=c6 v=78
39176 On ch=1 n=c5 v=74
39176 On ch=1 n=f3 v=64
39188 Par ch=1 c=64 v=0
39284 Par ch=1 c=64 v=127
39350 On ch=1 n=c6 v=0
39374 On ch=1 n=g#5 v=0
39408 On ch=1 n=f2 v=0
39414 On ch=1 n=c5 v=0
39430 On ch=1 n=f3 v=0
39662 On ch=1 n=a#5 v=59
39746 On ch=1 n=a#5 v=0
39792 On ch=1 n=a#5 v=70
39792 On ch=1 n=a#4 v=64
39792 On ch=1 n=g4 v=51
39800 On ch=1 n=g3 v=62
39804 On ch=1 n=d5 v=62
39846 Par ch=1 c=64 v=0
39906 Par ch=1 c=64 v=127
39998 On ch=1 n=g4 v=0
40088 On ch=1 n=g3 v=0
40196 Par ch=1 c=64 v=0
40216 On ch=1 n=f3 v=52
40222 On ch=1 n=f4 v=44
40298 Par ch=1 c=64 v=127
40322 On ch=1 n=d5 v=0
40422 On ch=1 n=a#4 v=0
40704 On ch=1 n=a#4 v=50
40710 On ch=1 n=g#5 v=40
40710 On ch=1 n=d5 v=44
40754 On ch=1 n=d5 v=0
40772 On ch=1 n=g#5 v=0
40792 On ch=1 n=a#4 v=0
40816 On ch=1 n=d5 v=42
40816 On ch=1 n=a#4 v=47
40828 On ch=1 n=g#5 v=49
40848 On ch=1 n=f4 v=0
40858 On ch=1 n=f3 v=0
41168 Par ch=1 c=64 v=0
41184 On ch=1 n=a#5 v=0
41200 On ch=1 n=d#2 v=80
41206 On ch=1 n=d#3 v=73
41266 On ch=1 n=g#5 v=0
41270 Par ch=1 c=64 v=127
41396 On ch=1 n=a#4 v=0
41396 On ch=1 n=d5 v=0
41440 On ch=1 n=d#2 v=0
41448 On ch=1 n=d#3 v=0
41656 On ch=1 n=g5 v=50
41656 On ch=1 n=c#5 v=45
41662 On ch=1 n=a#4 v=50
41714 On ch=1 n=c#5 v=0
41740 On ch=1 n=g5 v=0
41750 On ch=1 n=a#4 v=0
41778 Par ch=1 c=64 v=0
41800 On ch=1 n=a#4 v=50
41804 On ch=1 n=g5 v=53
41804 On ch=1 n=c#5 v=53
41826 On ch=1 n=f4 v=67
41828 On ch=1 n=f3 v=68
41862 Par ch=1 c=64 v=127
41954 On ch=1 n=f4 v=0
41998 On ch=1 n=f3 v=0
42156 On ch=1 n=d#3 v=74
42162 On ch=1 n=d#4 v=62
42178 Par ch=1 c=64 v=0
42272 Par ch=1 c=64 v=127
42294 On ch=1 n=a#4 v=0
42344 On ch=1 n=c#5 v=0
42356 On ch=1 n=g5 v=0
42616 On ch=1 n=c#5 v=47
42628 On ch=1 n=g4 v=48
42630 On ch=1 n=d#5 v=42
42690 On ch=1 n=d#5 v=0
42696 On ch=1 n=g4 v=0
42696 On ch=1 n=c#5 v=0
42746 On ch=1 n=g4 v=47
42752 On ch=1 n=d#5 v=47
42764 On ch=1 n=c#5 v=40
42844 On ch=1 n=d#4 v=0
42938 On ch=1 n=g4 v=0
42944 On ch=1 n=d#5 v=0
42956 On ch=1 n=c#5 v=0
43066 Par ch=1 c=64 v=0
43096 On ch=1 n=g#3 v=74
43098 On ch=1 n=d#3 v=0
43100 On ch=1 n=g#5 v=77
43100 On ch=1 n=c5 v=74
43104 On ch=1 n=g#4 v=71
43104 On ch=1 n=g#2 v=80
43184 Par ch=1 c=64 v=127
43190 On ch=1 n=g#4 v=0
43198 On ch=1 n=c5 v=0
43230 On ch=1 n=g#5 v=0
43336 On ch=1 n=g#3 v=0
43344 On ch=1 n=g#2 v=0
43616 On ch=1 n=d#7 v=80
43616 On ch=1 n=g#6 v=56
43616 On ch=1 n=d#6 v=73
43616 On ch=1 n=g#4 v=72
43616 On ch=1 n=f#4 v=72
43624 On ch=1 n=f#5 v=73
43684 On ch=1 n=d#6 v=0
43688 On ch=1 n=g#6 v=0
43688 On ch=1 n=d#7 v=0
43690 On ch=1 n=f#4 v=0
43690 On ch=1 n=g#4 v=0
43698 On ch=1 n=f#5 v=0
43760 On ch=1 n=d#7 v=90
43760 On ch=1 n=g#6 v=82
43768 On ch=1 n=d#6 v=80
43768 On ch=1 n=f#5 v=68
43768 On ch=1 n=g#4 v=72
43768 On ch=1 n=f#4 v=72
43930 On ch=1 n=f#4 v=0
43930 On ch=1 n=g#4 v=0
43930 On ch=1 n=f#5 v=0
44106 Par ch=1 c=64 v=0
44118 On ch=1 n=f5 v=63
44118 On ch=1 n=f4 v=59
44134 On ch=1 n=g#4 v=29
44216 On ch=1 n=d#7 v=0
44218 Par ch=1 c=64 v=127
44276 On ch=1 n=g#6 v=0
44350 On ch=1 n=d#6 v=0
44606 On ch=1 n=d7 v=77
44612 On ch=1 n=d6 v=74
44670 On ch=1 n=d6 v=0
44684 On ch=1 n=d7 v=0
44726 On ch=1 n=g#4 v=0
44742 On ch=1 n=f4 v=0
44746 On ch=1 n=f5 v=0
44792 On ch=1 n=g#7 v=84
44806 On ch=1 n=g#6 v=81
45142 Par ch=1 c=64 v=0
45160 On ch=1 n=g#2 v=80
45172 On ch=1 n=g#3 v=76
45258 Par ch=1 c=64 v=127
45292 On ch=1 n=g#7 v=0
45326 On ch=1 n=g#6 v=0
45400 On ch=1 n=g#2 v=0
45412 On ch=1 n=g#3 v=0
45664 On ch=1 n=g#6 v=60
45664 On ch=1 n=e5 v=61
45664 On ch=1 n=g#4 v=72
45664 On ch=1 n=e4 v=70
45668 On ch=1 n=c#7 v=86
45668 On ch=1 n=c#6 v=84
45726 On ch=1 n=g#6 v=0
45730 On ch=1 n=c#6 v=0
45730 On ch=1 n=g#4 v=0
45742 On ch=1 n=c#7 v=0
45752 On ch=1 n=e5 v=0
45754 On ch=1 n=e4 v=0
45800 On ch=1 n=c#7 v=84
45804 On ch=1 n=c#6 v=71
45812 On ch=1 n=g#6 v=76
45832 On ch=1 n=e5 v=65
45832 On ch=1 n=g#4 v=72
45842 On ch=1 n=e4 v=62
45916 On ch=1 n=e4 v=0
45970 On ch=1 n=e5 v=0
46090 Par ch=1 c=64 v=0
46138 On ch=1 n=g#4 v=0
46148 On ch=1 n=d#4 v=72
46162 On ch=1 n=d#5 v=69
46182 Par ch=1 c=64 v=127
46270 On ch=1 n=g#6 v=0
46306 On ch=1 n=c#7 v=0
46332 On ch=1 n=d#4 v=0
46346 On ch=1 n=c#6 v=0
46354 On ch=1 n=d#5 v=0
46632 On ch=1 n=g#6 v=68
46634 On ch=1 n=c7 v=74
46634 On ch=1 n=c6 v=70
46690 On ch=1 n=g#6 v=0
46712 On ch=1 n=c6 v=0
46712 On ch=1 n=c7 v=0
46736 On ch=1 n=g#6 v=73
46748 On ch=1 n=d#7 v=84
46748 On ch=1 n=d#6 v=80
46802 On ch=1 n=c#6 v=80
46818 On ch=1 n=c#7 v=98
46820 On ch=1 n=d#7 v=0
46830 On ch=1 n=d#6 v=0
47090 On ch=1 n=c#7 v=0
47116 On ch=1 n=g#6 v=0
47122 On ch=1 n=c#6 v=0
47224 On ch=1 n=f2 v=80
47232 On ch=1 n=c7 v=78
47232 On ch=1 n=g#6 v=76
47232 On ch=1 n=f3 v=69
47236 On ch=1 n=c6 v=80
47284 Par ch=1 c=64 v=0
47396 Par ch=1 c=64 v=127
47464 On ch=1 n=f2 v=0
47466 On ch=1 n=f3 v=0
47528 On ch=1 n=c7 v=0
47530 On ch=1 n=g#6 v=0
47574 On ch=1 n=c6 v=0
47760 On ch=1 n=d6 v=57
47768 On ch=1 n=a#6 v=70
47768 On ch=1 n=g#6 v=61
47768 On ch=1 n=a#5 v=63
47768 On ch=1 n=g5 v=64
47768 On ch=1 n=g4 v=65
47818 On ch=1 n=a#5 v=0
47818 On ch=1 n=d6 v=0
47848 On ch=1 n=g5 v=0
47858 On ch=1 n=g4 v=0
47858 On ch=1 n=g#6 v=0
47858 On ch=1 n=a#6 v=0
47896 On ch=1 n=g#6 v=61
47904 On ch=1 n=g6 v=72
47904 On ch=1 n=g5 v=57
47908 On ch=1 n=a#5 v=58
47910 On ch=1 n=d6 v=58
47912 On ch=1 n=g4 v=72
48000 On ch=1 n=g4 v=0
48006 On ch=1 n=g5 v=0
48224 Par ch=1 c=64 v=0
48230 On ch=1 n=f5 v=63
48240 On ch=1 n=f4 v=64
48326 Par ch=1 c=64 v=127
48370 On ch=1 n=d6 v=0
48436 On ch=1 n=g#6 v=0
48452 On ch=1 n=a#5 v=0
48740 On ch=1 n=f5 v=0
48774 On ch=1 n=f4 v=0
48780 On ch=1 n=a#5 v=59
48786 On ch=1 n=d6 v=55
48798 On ch=1 n=g#6 v=50
48846 On ch=1 n=d6 v=0
48846 On ch=1 n=a#5 v=0
48864 On ch=1 n=g#6 v=0
48900 On ch=1 n=a#5 v=61
48908 On ch=1 n=g#6 v=56
48908 On ch=1 n=d6 v=61
49208 Par ch=1 c=64 v=0
49240 On ch=1 n=d#2 v=80
49254 On ch=1 n=d#3 v=77
49308 Par ch=1 c=64 v=127
49376 On ch=1 n=g#6 v=0
49386 On ch=1 n=d6 v=0
49480 On ch=1 n=d#2 v=0
49494 On ch=1 n=d#3 v=0
49508 On ch=1 n=a#5 v=0
49758 On ch=1 n=g6 v=63
49772 On ch=1 n=f4 v=72
49774 On ch=1 n=c#6 v=56
49774 On ch=1 n=a#5 v=61
49774 On ch=1 n=f5 v=72
49840 On ch=1 n=a#5 v=0
49840 On ch=1 n=c#6 v=0
49846 On ch=1 n=f4 v=0
49846 On ch=1 n=g6 v=0
49856 On ch=1 n=f5 v=0
49894 On ch=1 n=g6 v=62
49894 On ch=1 n=c#6 v=59
49894 On ch=1 n=a#5 v=54
49928 On ch=1 n=f4 v=76
49934 On ch=1 n=f5 v=78
50022 On ch=1 n=f4 v=0
50026 On ch=1 n=f5 v=0
50272 Par ch=1 c=64 v=0
50284 On ch=1 n=d#5 v=71
50284 On ch=1 n=d#4 v=75
50392 Par ch=1 c=64 v=127
50478 On ch=1 n=c#6 v=0
50488 On ch=1 n=g6 v=0
50528 On ch=1 n=a#5 v=0
50778 On ch=1 n=c#6 v=61
50784 On ch=1 n=g6 v=0
50784 On ch=1 n=d#6 v=59
50784 On ch=1 n=g5 v=59
50794 On ch=1 n=d#5 v=0
50824 On ch=1 n=d#4 v=0
50836 On ch=1 n=d#6 v=0
50846 On ch=1 n=g5 v=0
50846 On ch=1 n=c#6 v=0
50896 On ch=1 n=g5 v=59
50902 On ch=1 n=d#6 v=59
50902 On ch=1 n=c#6 v=61
51200 On ch=1 n=g5 v=0
51206 On ch=1 n=c#6 v=0
51206 On ch=1 n=d#6 v=0
51264 Par ch=1 c=64 v=0
51294 On ch=1 n=g#5 v=68
51296 On ch=1 n=g#6 v=75
51296 On ch=1 n=c6 v=74
51304 On ch=1 n=g#3 v=71
51304 On ch=1 n=g#2 v=80
51378 Par ch=1 c=64 v=127
51400 On ch=1 n=c6 v=0
51400 On ch=1 n=g#5 v=0
51450 On ch=1 n=g#6 v=0
51470 On ch=1 n=g#2 v=0
51470 On ch=1 n=g#3 v=0
51802 Par ch=1 c=64 v=0
51824 On ch=1 n=f#6 v=92
51830 On ch=1 n=f#5 v=80
51832 On ch=1 n=f#7 v=88
51832 On ch=1 n=f#4 v=84
51872 On ch=1 n=f#7 v=0
51882 On ch=1 n=f#6 v=0
51886 On ch=1 n=f#5 v=0
51888 On ch=1 n=f#4 v=0
51908 Par ch=1 c=64 v=127
51936 On ch=1 n=f#5 v=78
51936 On ch=1 n=f#4 v=75
51938 On ch=1 n=f#7 v=81
51938 On ch=1 n=f#6 v=81
52002 On ch=1 n=f#6 v=0
52006 On ch=1 n=f#4 v=0
52012 On ch=1 n=f#5 v=0
52022 On ch=1 n=f#7 v=0
52358 On ch=1 n=f#7 v=94
52360 On ch=1 n=f#6 v=90
52372 On ch=1 n=f#5 v=98
52380 On ch=1 n=f#4 v=90
52624 On ch=1 n=f#7 v=0
52666 On ch=1 n=f#6 v=0
52696 On ch=1 n=f#5 v=0
52720 On ch=1 n=f#4 v=0
53076 On ch=1 n=f5 v=62
53184 On ch=1 n=f#5 v=69
53228 On ch=1 n=f5 v=0
53328 On ch=1 n=g#5 v=74
53368 On ch=1 n=f#5 v=0
53456 On ch=1 n=g#5 v=0
53464 On ch=1 n=f#5 v=84
53464 On ch=1 n=d#5 v=60
53464 On ch=1 n=c5 v=28
53464 On ch=1 n=a#4 v=58
53506 Par ch=1 c=64 v=0
53564 On ch=1 n=f#5 v=0
53574 On ch=1 n=g#5 v=84
53598 Par ch=1 c=64 v=127
53660 On ch=1 n=g#5 v=0
53668 On ch=1 n=f#5 v=80
53718 On ch=1 n=f#5 v=0
53738 On ch=1 n=g#5 v=80
53804 On ch=1 n=g#5 v=0
53820 On ch=1 n=f#5 v=82
53870 On ch=1 n=g#5 v=78
53878 On ch=1 n=f#5 v=0
53938 On ch=1 n=g#5 v=0
53948 On ch=1 n=c5 v=0
53966 On ch=1 n=f#5 v=82
53998 On ch=1 n=f#5 v=0
54014 On ch=1 n=g#5 v=82
54074 On ch=1 n=g#5 v=0
54096 On ch=1 n=f#5 v=92
54148 On ch=1 n=f#5 v=0
54198 On ch=1 n=d#5 v=0
54214 On ch=1 n=a#4 v=0
54214 On ch=1 n=f#5 v=84
54270 On ch=1 n=g#5 v=36
54272 On ch=1 n=f#5 v=0
54358 On ch=1 n=f#5 v=75
54382 On ch=1 n=g#5 v=0
54452 On ch=1 n=f#5 v=0
54472 On ch=1 n=d#5 v=78
54482 On ch=1 n=f5 v=80
54606 On ch=1 n=a5 v=69
54632 On ch=1 n=c5 v=56
54682 On ch=1 n=f5 v=0
54706 On ch=1 n=d#5 v=0
54760 On ch=1 n=a4 v=68
54772 On ch=1 n=c5 v=0
54788 On ch=1 n=c6 v=50
54800 On ch=1 n=a5 v=0
54818 On ch=1 n=a4 v=0
54846 On ch=1 n=c6 v=0
54920 On ch=1 n=f4 v=57
54926 On ch=1 n=f6 v=86
55104 On ch=1 n=f7 v=80
55112 On ch=1 n=f3 v=76
55142 On ch=1 n=f4 v=0
55148 On ch=1 n=f6 v=0
55294 On ch=1 n=f7 v=0
55302 On ch=1 n=f3 v=0
55528 On ch=1 n=a#6 v=82
55528 On ch=1 n=a#3 v=90
55528 On ch=1 n=a#2 v=80
55530 On ch=1 n=a#7 v=92
55554 Par ch=1 c=64 v=0
55666 Par ch=1 c=64 v=127
55678 On ch=1 n=a#7 v=0
55694 On ch=1 n=a#6 v=0
55722 On ch=1 n=a#2 v=0
55722 On ch=1 n=a#3 v=0
56016 On ch=1 n=f5 v=82
56024 On ch=1 n=g#6 v=88
56024 On ch=1 n=g#5 v=88
56024 On ch=1 n=d5 v=77
56024 On ch=1 n=g#4 v=80
56062 On ch=1 n=g#5 v=0
56066 On ch=1 n=g#4 v=0
56068 On ch=1 n=d5 v=0
56070 On ch=1 n=g#6 v=0
56076 On ch=1 n=f5 v=0
56144 On ch=1 n=g#5 v=80
56144 On ch=1 n=d5 v=74
56152 On ch=1 n=g#6 v=84
56152 On ch=1 n=f5 v=72
56152 On ch=1 n=g#4 v=77
56218 On ch=1 n=f5 v=0
56230 On ch=1 n=d5 v=0
56232 On ch=1 n=g#5 v=0
56240 On ch=1 n=g#6 v=0
56246 On ch=1 n=g#4 v=0
56472 On ch=1 n=d5 v=68
56480 On ch=1 n=g#6 v=93
56480 On ch=1 n=g#5 v=88
56480 On ch=1 n=f5 v=67
56480 On ch=1 n=g#4 v=64
56822 On ch=1 n=d5 v=0
56830 On ch=1 n=g#4 v=0
56830 On ch=1 n=f5 v=0
56830 On ch=1 n=g#6 v=0
56888 On ch=1 n=b3 v=73
56888 On ch=1 n=b2 v=80
56894 On ch=1 n=g#5 v=0
56976 On ch=1 n=b2 v=0
56976 On ch=1 n=b3 v=0
57048 On ch=1 n=b2 v=80
57052 On ch=1 n=b3 v=74
57074 On ch=1 n=g5 v=69
57160 On ch=1 n=b2 v=0
57164 On ch=1 n=b3 v=0
57188 On ch=1 n=g#5 v=76
57206 On ch=1 n=g5 v=0
57292 On ch=1 n=a#5 v=76
57308 On ch=1 n=g#5 v=0
57352 On ch=1 n=b2 v=80
57354 On ch=1 n=b3 v=52
57376 Par ch=1 c=64 v=0
57390 On ch=1 n=a#5 v=0
57402 On ch=1 n=g#5 v=84
57450 On ch=1 n=g#5 v=0
57468 Par ch=1 c=64 v=127
57480 On ch=1 n=a#5 v=88
57530 On ch=1 n=a#5 v=0
57550 On ch=1 n=g#5 v=86
57602 On ch=1 n=g#5 v=0
57612 On ch=1 n=a#5 v=82
57632 On ch=1 n=b2 v=0
57634 On ch=1 n=b3 v=0
57674 On ch=1 n=a#5 v=0
57694 On ch=1 n=g#5 v=90
57748 On ch=1 n=g#5 v=0
57752 On ch=1 n=a#5 v=66
57824 On ch=1 n=a#5 v=0
57832 On ch=1 n=g#5 v=84
57882 On ch=1 n=g#5 v=0
57914 On ch=1 n=a#5 v=80
57946 On ch=1 n=a#5 v=0
57978 On ch=1 n=g#5 v=82
58024 On ch=1 n=g#5 v=0
58040 On ch=1 n=a#5 v=80
58096 On ch=1 n=g#5 v=80
58106 On ch=1 n=a#5 v=0
58172 On ch=1 n=g#5 v=0
58216 On ch=1 n=g5 v=82
58216 On ch=1 n=f5 v=78
58344 On ch=1 n=b5 v=60
58384 On ch=1 n=d5 v=45
58418 On ch=1 n=g5 v=0
58450 On ch=1 n=f5 v=0
58460 On ch=1 n=b4 v=31
58464 On ch=1 n=d5 v=0
58486 On ch=1 n=d6 v=71
58502 On ch=1 n=b5 v=0
58514 On ch=1 n=b4 v=0
58540 On ch=1 n=d6 v=0
58616 On ch=1 n=g4 v=64
58618 On ch=1 n=g6 v=86
58744 On ch=1 n=g7 v=90
58744 On ch=1 n=g3 v=72
58758 On ch=1 n=g4 v=0
58776 On ch=1 n=g6 v=0
58934 On ch=1 n=g3 v=0
58934 On ch=1 n=g7 v=0
59128 On ch=1 n=c4 v=68
59128 On ch=1 n=c3 v=80
59132 On ch=1 n=c7 v=70
59142 On ch=1 n=c8 v=80
59158 Par ch=1 c=64 v=0
59276 Par ch=1 c=64 v=127
59298 On ch=1 n=c8 v=0
59332 On ch=1 n=c3 v=0
59336 On ch=1 n=c7 v=0
59346 On ch=1 n=c4 v=0
59594 On ch=1 n=g5 v=59
59658 On ch=1 n=g#5 v=84
59682 On ch=1 n=g5 v=0
59724 On ch=1 n=a#5 v=80
59728 On ch=1 n=e5 v=63
59732 On ch=1 n=g4 v=60
59738 On ch=1 n=g#5 v=0
59758 Par ch=1 c=64 v=0
59796 On ch=1 n=a#5 v=0
59804 On ch=1 n=g#5 v=80
59824 Par ch=1 c=64 v=127
59864 On ch=1 n=g#5 v=0
59884 On ch=1 n=a#5 v=84
59924 On ch=1 n=e5 v=0
59958 On ch=1 n=g#5 v=80
60002 On ch=1 n=a#5 v=0
60062 On ch=1 n=g#5 v=0
60072 On ch=1 n=g4 v=0
60080 On ch=1 n=g5 v=80
60080 On ch=1 n=f5 v=73
60192 On ch=1 n=d5 v=80
60198 On ch=1 n=b5 v=56
60222 On ch=1 n=f5 v=0
60250 On ch=1 n=g5 v=0
60328 On ch=1 n=d5 v=0
60328 On ch=1 n=d6 v=65
60328 On ch=1 n=b4 v=62
60334 On ch=1 n=b5 v=0
60390 On ch=1 n=b4 v=0
60390 On ch=1 n=d6 v=0
60452 On ch=1 n=g4 v=34
60460 On ch=1 n=g6 v=84
60592 On ch=1 n=g7 v=80
60592 On ch=1 n=g3 v=68
60642 On ch=1 n=g4 v=0
60650 On ch=1 n=g6 v=0
60782 On ch=1 n=g3 v=0
60782 On ch=1 n=g7 v=0
60966 Par ch=1 c=64 v=0
60976 On ch=1 n=c3 v=71
60996 On ch=1 n=c8 v=79
60996 On ch=1 n=c7 v=71
60996 On ch=1 n=c4 v=66
61076 Par ch=1 c=64 v=127
61132 On ch=1 n=c3 v=0
61152 On ch=1 n=c4 v=0
61152 On ch=1 n=c7 v=0
61152 On ch=1 n=c8 v=0
61408 On ch=1 n=g5 v=68
61458 On ch=1 n=g#5 v=72
61494 On ch=1 n=g5 v=0
61512 On ch=1 n=g4 v=36
61516 On ch=1 n=a#5 v=70
61516 On ch=1 n=e5 v=46
61532 On ch=1 n=g#5 v=0
61560 Par ch=1 c=64 v=0
61594 On ch=1 n=a#5 v=0
61604 On ch=1 n=g#5 v=65
61626 Par ch=1 c=64 v=127
61664 On ch=1 n=g#5 v=0
61680 On ch=1 n=a#5 v=65
61710 On ch=1 n=a#5 v=0
61730 On ch=1 n=g#5 v=68
61756 On ch=1 n=e5 v=0
61788 On ch=1 n=a#5 v=58
61794 On ch=1 n=g#5 v=0
61846 On ch=1 n=g#5 v=60
61886 On ch=1 n=g4 v=0
61910 On ch=1 n=a#5 v=0
61938 On ch=1 n=g#5 v=0
61952 On ch=1 n=g5 v=70
61952 On ch=1 n=f5 v=58
62084 On ch=1 n=f5 v=0
62088 On ch=1 n=d5 v=68
62090 On ch=1 n=b5 v=38
62104 On ch=1 n=g5 v=0
62168 On ch=1 n=d6 v=58
62168 On ch=1 n=b4 v=52
62178 On ch=1 n=d5 v=0
62180 On ch=1 n=b5 v=0
62226 On ch=1 n=b4 v=0
62226 On ch=1 n=d6 v=0
62272 On ch=1 n=g6 v=72
62272 On ch=1 n=g4 v=48
62416 On ch=1 n=g3 v=71
62428 On ch=1 n=g7 v=67
62440 On ch=1 n=g4 v=0
62462 On ch=1 n=g6 v=0
62606 On ch=1 n=g3 v=0
62618 On ch=1 n=g7 v=0
62808 On ch=1 n=e8 v=50
62820 On ch=1 n=c8 v=57
62824 On ch=1 n=c4 v=52
62838 On ch=1 n=e7 v=55
62838 On ch=1 n=c3 v=63
62864 Par ch=1 c=64 v=0
62954 Par ch=1 c=64 v=127
62972 On ch=1 n=e8 v=0
62984 On ch=1 n=c8 v=0
63000 On ch=1 n=e7 v=0
63030 On ch=1 n=c3 v=0
63050 On ch=1 n=c4 v=0
63272 On ch=1 n=g5 v=45
63310 On ch=1 n=a5 v=66
63336 On ch=1 n=e5 v=51
63336 On ch=1 n=g4 v=43
63358 On ch=1 n=g5 v=0
63376 On ch=1 n=b5 v=55
63392 On ch=1 n=a5 v=0
63420 Par ch=1 c=64 v=0
63442 On ch=1 n=b5 v=0
63454 On ch=1 n=a5 v=62
63498 Par ch=1 c=64 v=127
63510 On ch=1 n=a5 v=0
63528 On ch=1 n=b5 v=62
63594 On ch=1 n=a5 v=62
63602 On ch=1 n=e5 v=0
63632 On ch=1 n=b5 v=0
63704 On ch=1 n=a5 v=0
63714 On ch=1 n=g4 v=0
63720 On ch=1 n=g5 v=62
63726 On ch=1 n=f5 v=66
63816 On ch=1 n=d5 v=66
63818 On ch=1 n=b5 v=55
63858 On ch=1 n=f5 v=0
63858 On ch=1 n=g5 v=0
63936 On ch=1 n=d6 v=66
63936 On ch=1 n=b4 v=52
63942 On ch=1 n=d5 v=0
63944 On ch=1 n=b5 v=0
63996 On ch=1 n=b4 v=0
63996 On ch=1 n=d6 v=0
64056 On ch=1 n=g4 v=62
64060 On ch=1 n=g6 v=68
64200 On ch=1 n=g3 v=44
64206 On ch=1 n=g7 v=61
64214 On ch=1 n=g4 v=0
64218 On ch=1 n=g6 v=0
64390 On ch=1 n=g3 v=0
64396 On ch=1 n=g7 v=0
64592 On ch=1 n=e7 v=49
64600 On ch=1 n=e8 v=54
64600 On ch=1 n=c4 v=41
64600 On ch=1 n=c3 v=86
64602 On ch=1 n=c8 v=54
64660 Par ch=1 c=64 v=0
64728 Par ch=1 c=64 v=127
64766 On ch=1 n=e8 v=0
64768 On ch=1 n=c8 v=0
64774 On ch=1 n=e7 v=0
64792 On ch=1 n=c3 v=0
64836 On ch=1 n=c4 v=0
65006 On ch=1 n=g5 v=55
65086 On ch=1 n=a5 v=54
65116 On ch=1 n=g5 v=0
65144 On ch=1 n=e5 v=39
65144 On ch=1 n=g4 v=35
65148 On ch=1 n=a5 v=0
65166 On ch=1 n=b5 v=48
65216 On ch=1 n=b5 v=0
65222 On ch=1 n=a5 v=57
65286 On ch=1 n=a5 v=0
65292 On ch=1 n=b5 v=50
65330 On ch=1 n=e5 v=0
65372 On ch=1 n=a5 v=50
65402 On ch=1 n=a5 v=0
65412 On ch=1 n=g4 v=0
65470 On ch=1 n=b5 v=0
65470 On ch=1 n=a5 v=52
65534 On ch=1 n=a5 v=0
65536 On ch=1 n=f5 v=50
65540 On ch=1 n=g5 v=55
65654 On ch=1 n=f5 v=0
65664 On ch=1 n=g5 v=0
65688 On ch=1 n=b5 v=31
65688 On ch=1 n=d5 v=57
65748 On ch=1 n=d5 v=0
65756 On ch=1 n=b5 v=0
65816 On ch=1 n=d6 v=47
65816 On ch=1 n=b4 v=40
65876 On ch=1 n=b4 v=0
65876 On ch=1 n=d6 v=0
65944 On ch=1 n=g6 v=59
65944 On ch=1 n=g4 v=48
66048 On ch=1 n=g7 v=52
66048 On ch=1 n=g3 v=50
66100 On ch=1 n=g4 v=0
66100 On ch=1 n=g6 v=0
66238 On ch=1 n=g3 v=0
66238 On ch=1 n=g7 v=0
66328 On ch=1 n=e8 v=44
66342 On ch=1 n=c8 v=51
66342 Par ch=1 c=64 v=0
66344 On ch=1 n=c4 v=42
66358 On ch=1 n=e7 v=51
66358 On ch=1 n=c3 v=48
66444 Par ch=1 c=64 v=127
66522 On ch=1 n=c3 v=0
66524 On ch=1 n=e8 v=0
66538 On ch=1 n=c8 v=0
66540 On ch=1 n=c4 v=0
66554 On ch=1 n=e7 v=0
66716 On ch=1 n=e5 v=65
66880 On ch=1 n=d6 v=60
66898 On ch=1 n=e5 v=0
66902 On ch=1 n=g5 v=64
67018 On ch=1 n=d6 v=0
67042 On ch=1 n=c6 v=63
67092 On ch=1 n=g5 v=0
67100 On ch=1 n=c4 v=59
67138 On ch=1 n=c6 v=0
67170 On ch=1 n=g5 v=68
67184 On ch=1 n=g4 v=68
67248 On ch=1 n=e5 v=68
67292 On ch=1 n=c6 v=68
67304 On ch=1 n=g5 v=0
67310 On ch=1 n=f6 v=68
67402 On ch=1 n=c6 v=0
67412 On ch=1 n=e6 v=68
67454 On ch=1 n=f6 v=0
67492 On ch=1 n=e6 v=0
67520 On ch=1 n=c6 v=71
67582 On ch=1 n=c6 v=0
67616 On ch=1 n=e6 v=68
67630 On ch=1 n=a6 v=76
67712 On ch=1 n=e6 v=0
67714 On ch=1 n=g6 v=65
67758 On ch=1 n=a6 v=0
67782 On ch=1 n=g6 v=0
67814 On ch=1 n=e6 v=69
67898 On ch=1 n=c4 v=0
67904 On ch=1 n=e6 v=0
67912 On ch=1 n=g6 v=68
67914 On ch=1 n=d7 v=64
67916 On ch=1 n=g4 v=0
67986 On ch=1 n=g6 v=0
68004 On ch=1 n=e5 v=0
68008 On ch=1 n=c7 v=59
68032 On ch=1 n=d7 v=0
68074 On ch=1 n=c7 v=0
68096 On ch=1 n=g6 v=68
68196 On ch=1 n=g6 v=0
68204 On ch=1 n=c7 v=64
68206 On ch=1 n=f7 v=71
68282 On ch=1 n=e7 v=62
68296 On ch=1 n=c7 v=0
68322 On ch=1 n=f7 v=0
68356 On ch=1 n=e7 v=0
68388 On ch=1 n=c7 v=68
68476 On ch=1 n=c7 v=0
68488 On ch=1 n=f5 v=70
68492 On ch=1 n=e7 v=73
68492 On ch=1 n=c5 v=74
68492 On ch=1 n=g4 v=75
68494 On ch=1 n=a7 v=68
68568 On ch=1 n=e7 v=0
68576 On ch=1 n=g7 v=61
68602 On ch=1 n=f5 v=0
68626 On ch=1 n=a7 v=0
68654 On ch=1 n=g7 v=0
68680 On ch=1 n=e7 v=68
68762 On ch=1 n=e7 v=0
68792 On ch=1 n=d8 v=68
68792 On ch=1 n=g7 v=55
68828 On ch=1 n=g4 v=0
68828 On ch=1 n=c5 v=0
68868 On ch=1 n=g7 v=0
68908 On ch=1 n=e5 v=76
68912 On ch=1 n=d8 v=0
68912 On ch=1 n=c8 v=60
68974 On ch=1 n=c8 v=0
69002 On ch=1 n=g7 v=71
69038 On ch=1 n=e5 v=0
69082 On ch=1 n=g7 v=0
69112 On ch=1 n=c4 v=75
69116 On ch=1 n=f8 v=86
69116 On ch=1 n=c5 v=88
69116 On ch=1 n=e4 v=74
69120 On ch=1 n=c8 v=72
69224 On ch=1 n=e8 v=33
69236 On ch=1 n=f8 v=0
69240 On ch=1 n=c8 v=0
69298 On ch=1 n=c8 v=56
69330 On ch=1 n=e8 v=0
69350 On ch=1 n=g7 v=45
69382 On ch=1 n=c8 v=0
69428 On ch=1 n=g7 v=0
69428 On ch=1 n=e7 v=64
69528 On ch=1 n=e7 v=0
69538 On ch=1 n=c7 v=57
69634 On ch=1 n=g6 v=44
69662 On ch=1 n=c7 v=0
69726 On ch=1 n=c5 v=0
69728 On ch=1 n=e6 v=43
69734 On ch=1 n=g6 v=0
69790 On ch=1 n=e6 v=0
69850 On ch=1 n=c6 v=56
69884 On ch=1 n=e4 v=0
69936 On ch=1 n=g5 v=45
69942 On ch=1 n=c6 v=0
69948 On ch=1 n=c4 v=0
70012 On ch=1 n=g5 v=0
70016 On ch=1 n=c5 v=77
70144 On ch=1 n=c5 v=0
70152 On ch=1 n=g4 v=72
70262 On ch=1 n=g4 v=0
70272 On ch=1 n=c3 v=86
70272 On ch=1 n=c2 v=75
70470 Par ch=1 c=64 v=0
70888 Par ch=1 c=64 v=127
71144 On ch=1 n=c3 v=0
71324 On ch=1 n=c2 v=0
71688 On ch=1 n=c#2 v=67
71692 On ch=1 n=c#3 v=65
71740 Par ch=1 c=64 v=0
71856 Par ch=1 c=64 v=127
71980 On ch=1 n=c#2 v=0
71994 On ch=1 n=c#3 v=0
72044 On ch=1 n=d2 v=46
72054 On ch=1 n=d3 v=64
72270 On ch=1 n=d3 v=0
72470 On ch=1 n=d2 v=0
72480 On ch=1 n=d#3 v=59
72486 On ch=1 n=d#2 v=66
72500 On ch=1 n=d#5 v=71
72570 Par ch=1 c=64 v=0
72724 Par ch=1 c=64 v=127
72874 On ch=1 n=d#3 v=0
72888 On ch=1 n=d#2 v=0
73262 On ch=1 n=f5 v=71
73272 On ch=1 n=d5 v=56
73280 Par ch=1 c=64 v=0
73308 On ch=1 n=d#5 v=0
73358 Par ch=1 c=64 v=127
73448 On ch=1 n=d5 v=0
73574 Par ch=1 c=64 v=0
73600 On ch=1 n=d#5 v=62
73602 On ch=1 n=c#5 v=50
73612 On ch=1 n=g5 v=71
73644 On ch=1 n=f5 v=0
73672 Par ch=1 c=64 v=127
73738 On ch=1 n=c#5 v=0
73766 On ch=1 n=d#5 v=0
73810 Par ch=1 c=64 v=0
73858 On ch=1 n=g#5 v=71
73876 On ch=1 n=d#5 v=63
73886 On ch=1 n=c5 v=51
73892 On ch=1 n=g5 v=0
73922 Par ch=1 c=64 v=127
74002 On ch=1 n=c5 v=0
74040 On ch=1 n=d#5 v=0
74122 On ch=1 n=a#5 v=73
74142 On ch=1 n=g4 v=57
74146 On ch=1 n=d#5 v=59
74156 On ch=1 n=g#5 v=0
74294 On ch=1 n=d#5 v=0
74300 On ch=1 n=g4 v=0
74444 On ch=1 n=c6 v=68
74458 Par ch=1 c=64 v=0
74466 On ch=1 n=d#5 v=61
74482 On ch=1 n=g#4 v=59
74484 On ch=1 n=a#5 v=0
74564 Par ch=1 c=64 v=127
74670 On ch=1 n=c6 v=0
74688 On ch=1 n=d#5 v=0
74700 On ch=1 n=g#4 v=0
75136 On ch=1 n=f6 v=68
75154 On ch=1 n=g#5 v=51
75156 On ch=1 n=d#4 v=57
75166 On ch=1 n=d5 v=56
75168 On ch=1 n=f5 v=57
75178 On ch=1 n=b4 v=46
75294 On ch=1 n=f6 v=0
75310 On ch=1 n=f5 v=0
75320 On ch=1 n=g#5 v=0
75326 On ch=1 n=d5 v=0
75540 On ch=1 n=d#5 v=50
75548 On ch=1 n=d#6 v=71
75560 On ch=1 n=g#5 v=61
75560 On ch=1 n=c5 v=46
75572 On ch=1 n=b4 v=0
75666 Par ch=1 c=64 v=0
75864 Par ch=1 c=64 v=127
76334 On ch=1 n=g#5 v=0
76378 On ch=1 n=d#5 v=0
76766 On ch=1 n=d#5 v=52
76774 On ch=1 n=c#5 v=66
76782 On ch=1 n=d#4 v=0
76788 On ch=1 n=g5 v=45
76856 On ch=1 n=c5 v=0
76882 Par ch=1 c=64 v=0
77074 Par ch=1 c=64 v=127
77112 Par ch=1 c=64 v=0
77200 On ch=1 n=c5 v=60
77232 Par ch=1 c=64 v=127
77288 On ch=1 n=c#5 v=0
77506 On ch=1 n=a#4 v=64
77522 On ch=1 n=c5 v=0
77590 On ch=1 n=a#4 v=0
77604 On ch=1 n=g5 v=0
77646 On ch=1 n=d#5 v=0
77764 On ch=1 n=a#4 v=44
77820 On ch=1 n=c5 v=53
77832 On ch=1 n=a#4 v=0
77834 On ch=1 n=d#5 v=33
77872 On ch=1 n=a#4 v=58
77880 On ch=1 n=c5 v=0
77982 Par ch=1 c=64 v=0
78110 On ch=1 n=a#4 v=0
78110 Par ch=1 c=64 v=127
78148 On ch=1 n=a4 v=64
78236 Par ch=1 c=64 v=0
78304 Par ch=1 c=64 v=127
78378 On ch=1 n=a#4 v=66
78384 Par ch=1 c=64 v=0
78418 On ch=1 n=a4 v=0
78504 Par ch=1 c=64 v=127
78530 On ch=1 n=d#5 v=0
78662 Par ch=1 c=64 v=0
78672 On ch=1 n=d#5 v=60
78686 On ch=1 n=g#5 v=62
78686 On ch=1 n=c5 v=64
78706 On ch=1 n=a#4 v=0
78706 On ch=1 n=c6 v=52
78716 On ch=1 n=d#6 v=0
78834 Par ch=1 c=64 v=127
78908 Par ch=1 c=64 v=0
78924 On ch=1 n=c5 v=0
78982 On ch=1 n=g#4 v=64
79046 Par ch=1 c=64 v=127
79118 Par ch=1 c=64 v=0
79190 Par ch=1 c=64 v=127
79484 On ch=1 n=d#4 v=65
79490 On ch=1 n=g#4 v=0
79558 On ch=1 n=d#4 v=0
79666 On ch=1 n=d#4 v=71
79712 On ch=1 n=c6 v=0
79728 Par ch=1 c=64 v=0
79758 On ch=1 n=g#5 v=0
79782 On ch=1 n=d#5 v=0
79892 Par ch=1 c=64 v=127
80742 Par ch=1 c=64 v=0
80764 On ch=1 n=d#4 v=0
80782 On ch=1 n=c#5 v=42
80784 On ch=1 n=d#3 v=64
80792 On ch=1 n=g4 v=35
80800 On ch=1 n=d#5 v=37
81460 On ch=1 n=g4 v=0
81466 On ch=1 n=g#4 v=58
81476 On ch=1 n=f3 v=64
81532 On ch=1 n=d#3 v=0
81736 On ch=1 n=a#4 v=62
81750 On ch=1 n=g#4 v=0
81756 On ch=1 n=g3 v=56
81792 On ch=1 n=f3 v=0
81976 On ch=1 n=g#3 v=78
81982 On ch=1 n=a#4 v=0
82004 On ch=1 n=c5 v=60
82026 On ch=1 n=g3 v=0
82220 On ch=1 n=c5 v=0
82220 On ch=1 n=a#3 v=56
82240 On ch=1 n=g4 v=52
82252 On ch=1 n=g#3 v=0
82280 On ch=1 n=c#5 v=0
82450 On ch=1 n=d#5 v=0
82476 On ch=1 n=g4 v=0
82476 On ch=1 n=g#4 v=42
82476 On ch=1 n=c4 v=64
82496 On ch=1 n=a#3 v=0
82596 Par ch=1 c=64 v=127
82670 Par ch=1 c=64 v=0
82736 On ch=1 n=f5 v=72
82736 On ch=1 n=a4 v=71
82748 On ch=1 n=g#4 v=0
82748 On ch=1 n=d#5 v=68
82758 On ch=1 n=f3 v=68
82766 On ch=1 n=c4 v=0
82986 On ch=1 n=a4 v=0
83006 On ch=1 n=a#4 v=63
83018 On ch=1 n=g3 v=60
83078 On ch=1 n=d#5 v=0
83094 On ch=1 n=f3 v=0
83244 On ch=1 n=a3 v=60
83250 On ch=1 n=c5 v=68
83264 On ch=1 n=g3 v=0
83274 On ch=1 n=a#4 v=0
83474 On ch=1 n=a#3 v=68
83488 On ch=1 n=c#5 v=65
83514 On ch=1 n=a3 v=0
83518 On ch=1 n=c5 v=0
83688 On ch=1 n=c4 v=60
83702 On ch=1 n=a4 v=71
83704 On ch=1 n=a#3 v=0
83732 On ch=1 n=c#5 v=0
83912 On ch=1 n=c#4 v=56
83926 On ch=1 n=a#4 v=64
83944 On ch=1 n=a4 v=0
83958 On ch=1 n=c4 v=0
83976 Par ch=1 c=64 v=127
83986 On ch=1 n=f5 v=0
84054 On ch=1 n=a#4 v=0
84150 On ch=1 n=c#4 v=0
84152 On ch=1 n=g#3 v=67
84160 On ch=1 n=a#5 v=80
84170 On ch=1 n=f#5 v=68
84172 On ch=1 n=c5 v=76
84312 Par ch=1 c=64 v=0
84332 On ch=1 n=c5 v=0
84392 On ch=1 n=a#3 v=70
84396 On ch=1 n=c#5 v=62
84438 On ch=1 n=g#3 v=0
84468 On ch=1 n=f#5 v=0
84622 On ch=1 n=c4 v=63
84628 On ch=1 n=c#5 v=0
84628 On ch=1 n=g#5 v=69
84630 On ch=1 n=d#5 v=74
84648 On ch=1 n=a#3 v=0
84694 On ch=1 n=a#5 v=0
84838 On ch=1 n=c#4 v=74
84848 On ch=1 n=d#5 v=0
84868 On ch=1 n=f5 v=72
84900 On ch=1 n=c4 v=0
85062 On ch=1 n=f5 v=0
85072 On ch=1 n=d#4 v=78
85080 On ch=1 n=c5 v=80
85110 On ch=1 n=c#4 v=0
85290 On ch=1 n=c5 v=0
85290 On ch=1 n=c#5 v=69
85306 On ch=1 n=f4 v=76
85312 Par ch=1 c=64 v=127
85324 On ch=1 n=g#5 v=0
85336 On ch=1 n=d#4 v=0
85428 On ch=1 n=c#5 v=0
85500 Par ch=1 c=64 v=0
85522 On ch=1 n=g#5 v=58
85532 On ch=1 n=c6 v=73
85532 On ch=1 n=d5 v=75
85532 On ch=1 n=a#3 v=73
85546 On ch=1 n=f4 v=0
85718 On ch=1 n=d5 v=0
85760 On ch=1 n=d#5 v=69
85760 On ch=1 n=c4 v=69
85794 On ch=1 n=a#3 v=0
85982 On ch=1 n=g#5 v=0
85990 On ch=1 n=a#5 v=69
85998 On ch=1 n=d4 v=71
86004 On ch=1 n=d#5 v=0
86006 On ch=1 n=f5 v=68
86020 On ch=1 n=c4 v=0
86020 On ch=1 n=c6 v=0
86238 On ch=1 n=g5 v=69
86238 On ch=1 n=d#4 v=80
86244 On ch=1 n=f5 v=0
86272 On ch=1 n=d4 v=0
86500 On ch=1 n=f4 v=78
86514 On ch=1 n=a#5 v=0
86518 On ch=1 n=d5 v=74
86532 On ch=1 n=d#4 v=0
86544 On ch=1 n=g5 v=0
86586 Par ch=1 c=64 v=127
86674 On ch=1 n=d5 v=0
86862 On ch=1 n=d#4 v=68
86866 On ch=1 n=f4 v=0
86882 On ch=1 n=d#6 v=80
86882 On ch=1 n=d#5 v=80
86892 On ch=1 n=g5 v=76
86908 Par ch=1 c=64 v=0
87078 Par ch=1 c=64 v=127
87180 On ch=1 n=g5 v=0
87206 On ch=1 n=d#5 v=0
87238 On ch=1 n=d#6 v=0
87578 Par ch=1 c=64 v=0
87602 On ch=1 n=a#5 v=72
87602 On ch=1 n=d5 v=69
87604 On ch=1 n=f6 v=76
87604 On ch=1 n=f5 v=68
87662 Par ch=1 c=64 v=127
87688 On ch=1 n=d#4 v=0
87696 On ch=1 n=f5 v=0
87720 On ch=1 n=a#5 v=0
87740 On ch=1 n=f6 v=0
87740 On ch=1 n=d5 v=0
87964 On ch=1 n=d#6 v=78
87970 On ch=1 n=g6 v=76
87972 Par ch=1 c=64 v=0
87988 On ch=1 n=g5 v=77
87990 On ch=1 n=d#5 v=72
87990 On ch=1 n=c#5 v=54
88026 Par ch=1 c=64 v=127
88082 On ch=1 n=g5 v=0
88084 On ch=1 n=g6 v=0
88112 On ch=1 n=d#6 v=0
88148 On ch=1 n=c#5 v=0
88170 On ch=1 n=d#5 v=0
88238 On ch=1 n=g#6 v=81
88238 On ch=1 n=c5 v=60
88240 On ch=1 n=g#5 v=82
88252 On ch=1 n=d#6 v=82
88252 On ch=1 n=d#5 v=53
88316 On ch=1 n=g#5 v=0
88340 On ch=1 n=d#6 v=0
88344 On ch=1 n=g#6 v=0
88396 On ch=1 n=c5 v=0
88410 On ch=1 n=d#5 v=0
88450 On ch=1 n=a#5 v=80
88456 On ch=1 n=a#6 v=81
88466 On ch=1 n=d#6 v=76
88474 On ch=1 n=g4 v=58
88508 On ch=1 n=d#5 v=52
88536 On ch=1 n=d#6 v=0
88552 On ch=1 n=a#5 v=0
88586 On ch=1 n=a#6 v=0
88596 On ch=1 n=d#5 v=0
88674 On ch=1 n=g4 v=0
88706 Par ch=1 c=64 v=0
88718 On ch=1 n=g#4 v=70
88736 On ch=1 n=d#6 v=71
88736 On ch=1 n=c6 v=68
88738 On ch=1 n=c7 v=72
88738 On ch=1 n=d#5 v=81
88802 Par ch=1 c=64 v=127
88826 On ch=1 n=g#4 v=0
88856 On ch=1 n=d#5 v=0
88862 On ch=1 n=c6 v=0
88872 On ch=1 n=d#6 v=0
88922 On ch=1 n=c7 v=0
89128 On ch=1 n=d#5 v=51
89176 On ch=1 n=b5 v=62
89216 On ch=1 n=d6 v=68
89234 On ch=1 n=g#6 v=56
89234 On ch=1 n=f6 v=49
89284 On ch=1 n=f7 v=56
89296 On ch=1 n=b5 v=0
89322 On ch=1 n=d6 v=0
89326 On ch=1 n=g#6 v=0
89340 On ch=1 n=f6 v=0
89476 Par ch=1 c=64 v=0
89506 On ch=1 n=d#5 v=0
89518 On ch=1 n=c6 v=68
89520 On ch=1 n=d#7 v=73
89520 On ch=1 n=g#6 v=90
89534 On ch=1 n=d#6 v=82
89564 On ch=1 n=f7 v=0
89574 On ch=1 n=c6 v=0
89580 Par ch=1 c=64 v=127
89588 On ch=1 n=g#6 v=0
89612 On ch=1 n=d#6 v=0
89616 On ch=1 n=d#7 v=0
89824 On ch=1 n=d#6 v=62
89912 On ch=1 n=b6 v=60
90008 On ch=1 n=d7 v=34
90056 On ch=1 n=f7 v=52
90064 On ch=1 n=b6 v=0
90110 On ch=1 n=d7 v=0
90120 On ch=1 n=g#7 v=55
90156 On ch=1 n=f7 v=0
90192 On ch=1 n=f8 v=64
90246 On ch=1 n=g#7 v=0
90512 On ch=1 n=c7 v=54
90520 On ch=1 n=d#8 v=51
90520 On ch=1 n=g#7 v=64
90522 On ch=1 n=d#7 v=56
90556 Par ch=1 c=64 v=0
90580 On ch=1 n=f8 v=0
90672 Par ch=1 c=64 v=127
90866 On ch=1 n=d#7 v=0
90866 On ch=1 n=c7 v=0
90888 On ch=1 n=g#7 v=0
90888 On ch=1 n=d#8 v=0
90944 On ch=1 n=d#6 v=0
91816 On ch=1 n=d#2 v=74
91820 On ch=1 n=d#3 v=68
91910 Par ch=1 c=64 v=0
92142 Par ch=1 c=64 v=127
92334 On ch=1 n=d#3 v=0
92474 On ch=1 n=d#2 v=0
93288 On ch=1 n=g#2 v=64
93290 On ch=1 n=g#3 v=64
93366 Par ch=1 c=64 v=0
93590 On ch=1 n=a#3 v=68
93590 On ch=1 n=a#2 v=65
93626 On ch=1 n=g#3 v=0
93638 On ch=1 n=g#2 v=0
93908 On ch=1 n=c4 v=64
93924 On ch=1 n=c3 v=50
93938 On ch=1 n=a#3 v=0
93958 On ch=1 n=a#2 v=0
94540 On ch=1 n=a#3 v=69
94550 On ch=1 n=a#2 v=62
94572 On ch=1 n=c4 v=0
94588 On ch=1 n=c3 v=0
94898 On ch=1 n=c3 v=36
94910 On ch=1 n=c4 v=55
94926 On ch=1 n=a#2 v=0
94932 On ch=1 n=a#3 v=0
95536 Par ch=1 c=64 v=127
95570 On ch=1 n=g#2 v=44
95586 On ch=1 n=g#3 v=40
95688 On ch=1 n=c3 v=0
95700 On ch=1 n=c4 v=0
95738 On ch=1 n=g#2 v=0
95744 On ch=1 n=g#3 v=0
95984 On ch=1 n=g#2 v=57
96000 On ch=1 n=g#3 v=49
96040 Par ch=1 c=64 v=0
96194 Par ch=1 c=64 v=127
96328 On ch=1 n=g#3 v=0
96342 On ch=1 n=g#2 v=0
97504 On ch=1 n=c6 v=56
97504 On ch=1 n=g#5 v=57
97504 On ch=1 n=d#5 v=56
97504 On ch=1 n=c5 v=48
97508 On ch=1 n=g#7 v=74
97510 On ch=1 n=g#6 v=69
97574 On ch=1 n=c6 v=0
97576 On ch=1 n=g#5 v=0
97580 On ch=1 n=g#6 v=0
97580 On ch=1 n=g#7 v=0
97594 On ch=1 n=c5 v=0
97594 On ch=1 n=d#5 v=0
101520 On ch=1 n=c7 v=50
101834 On ch=1 n=c6 v=45
101892 On ch=1 n=c7 v=0
102414 On ch=1 n=c7 v=43
102438 Par ch=1 c=64 v=0
102448 On ch=1 n=c6 v=0
102738 On ch=1 n=c6 v=45
102814 On ch=1 n=c7 v=0
103418 On ch=1 n=c7 v=40
103518 On ch=1 n=c6 v=0
103826 On ch=1 n=c6 v=28
103884 On ch=1 n=c7 v=0
104518 On ch=1 n=c7 v=49
104590 On ch=1 n=c6 v=0
105028 On ch=1 n=c6 v=55
105028 On ch=1 n=c3 v=43
105070 On ch=1 n=c7 v=0
105102 Par ch=1 c=64 v=127
105234 On ch=1 n=c3 v=0
105736 On ch=1 n=a6 v=48
105746 On ch=1 n=a#5 v=23
105752 On ch=1 n=f5 v=35
105752 On ch=1 n=c5 v=24
105752 On ch=1 n=g4 v=18
105778 On ch=1 n=c6 v=0
105826 On ch=1 n=g4 v=0
105842 On ch=1 n=c5 v=0
105842 On ch=1 n=f5 v=0
106064 On ch=1 n=c6 v=41
106064 On ch=1 n=c4 v=47
106094 On ch=1 n=a#5 v=0
106140 Par ch=1 c=64 v=0
106248 Par ch=1 c=64 v=127
106444 On ch=1 n=c4 v=0
106444 On ch=1 n=c6 v=0
106564 On ch=1 n=a6 v=0
106668 On ch=1 n=g6 v=51
106672 On ch=1 n=a#5 v=44
106672 On ch=1 n=e5 v=36
106672 On ch=1 n=c5 v=33
106680 On ch=1 n=g4 v=35
106886 Par ch=1 c=64 v=0
106890 On ch=1 n=g4 v=0
106964 On ch=1 n=c6 v=39
106972 On ch=1 n=f4 v=37
106992 On ch=1 n=c5 v=0
106992 On ch=1 n=a#5 v=0
107020 On ch=1 n=e5 v=0
107040 Par ch=1 c=64 v=127
107154 On ch=1 n=f4 v=0
107422 On ch=1 n=g6 v=0
107478 On ch=1 n=c6 v=0
107524 On ch=1 n=f6 v=54
107524 On ch=1 n=c5 v=25
107528 On ch=1 n=a5 v=52
107528 On ch=1 n=f5 v=44
107608 On ch=1 n=c5 v=0
107612 On ch=1 n=f5 v=0
107694 Par ch=1 c=64 v=0
107704 On ch=1 n=f6 v=0
107704 On ch=1 n=g6 v=53
107708 On ch=1 n=a5 v=0
107760 On ch=1 n=a5 v=47
107760 On ch=1 n=d4 v=45
107764 On ch=1 n=f6 v=48
107810 Par ch=1 c=64 v=127
107820 On ch=1 n=g6 v=0
107902 On ch=1 n=d4 v=0
107930 On ch=1 n=a5 v=0
107934 On ch=1 n=f6 v=0
107962 On ch=1 n=e6 v=66
107972 On ch=1 n=g5 v=44
108138 On ch=1 n=e6 v=0
108148 On ch=1 n=g5 v=0
108196 On ch=1 n=d6 v=60
108200 On ch=1 n=c5 v=38
108200 On ch=1 n=a4 v=51
108210 On ch=1 n=f5 v=49
108320 On ch=1 n=a4 v=0
108320 On ch=1 n=c5 v=0
108488 On ch=1 n=f5 v=0
108504 On ch=1 n=g5 v=53
108516 Par ch=1 c=64 v=0
108520 On ch=1 n=g3 v=51
108658 Par ch=1 c=64 v=127
108754 On ch=1 n=g3 v=0
108830 On ch=1 n=g5 v=0
109010 On ch=1 n=d6 v=0
109064 On ch=1 n=e6 v=57
109064 On ch=1 n=f5 v=52
109064 On ch=1 n=d4 v=38
109072 On ch=1 n=c5 v=19
109072 On ch=1 n=g4 v=48
109250 On ch=1 n=g4 v=0
109250 On ch=1 n=c5 v=0
109276 Par ch=1 c=64 v=0
109314 On ch=1 n=d4 v=0
109360 On ch=1 n=g3 v=62
109392 On ch=1 n=g5 v=46
109404 On ch=1 n=f5 v=0
109426 Par ch=1 c=64 v=127
109594 On ch=1 n=g3 v=0
109884 On ch=1 n=e6 v=0
109884 On ch=1 n=d6 v=58
109894 On ch=1 n=f5 v=38
109896 On ch=1 n=b4 v=52
109896 On ch=1 n=g4 v=48
109934 On ch=1 n=g5 v=0
109956 Par ch=1 c=64 v=0
110038 Par ch=1 c=64 v=127
110110 On ch=1 n=g4 v=0
110110 On ch=1 n=b4 v=0
110168 Par ch=1 c=64 v=0
110188 On ch=1 n=c3 v=54
110210 On ch=1 n=g5 v=49
110254 On ch=1 n=f5 v=0
110320 Par ch=1 c=64 v=127
110392 On ch=1 n=c3 v=0
110650 On ch=1 n=g5 v=0
110678 On ch=1 n=d6 v=0
110750 On ch=1 n=g4 v=43
110752 On ch=1 n=e5 v=53
110752 On ch=1 n=c5 v=25
110766 On ch=1 n=c6 v=54
110912 On ch=1 n=c6 v=0
110924 On ch=1 n=e5 v=0
110968 On ch=1 n=d6 v=57
110982 Par ch=1 c=64 v=0
111010 On ch=1 n=c4 v=52
111018 On ch=1 n=e5 v=29
111026 On ch=1 n=c6 v=54
111056 On ch=1 n=c5 v=0
111076 On ch=1 n=d6 v=0
111098 Par ch=1 c=64 v=127
111198 On ch=1 n=e5 v=0
111206 On ch=1 n=c6 v=0
111210 On ch=1 n=g4 v=0
111240 On ch=1 n=b5 v=42
111240 On ch=1 n=f5 v=47
111240 On ch=1 n=g#4 v=40
111396 On ch=1 n=g#4 v=0
111512 On ch=1 n=c6 v=52
111514 On ch=1 n=f5 v=0
111514 On ch=1 n=b5 v=0
111520 On ch=1 n=g4 v=41
111526 On ch=1 n=e5 v=38
111676 On ch=1 n=c4 v=0
111706 Par ch=1 c=64 v=0
111794 On ch=1 n=e5 v=0
111808 On ch=1 n=c4 v=60
111812 On ch=1 n=c6 v=0
111836 On ch=1 n=g4 v=0
111872 Par ch=1 c=64 v=127
112206 On ch=1 n=c4 v=0
112328 On ch=1 n=a6 v=54
112328 On ch=1 n=a#5 v=56
112336 On ch=1 n=g4 v=31
112342 On ch=1 n=f5 v=43
112342 On ch=1 n=c5 v=44
112428 On ch=1 n=f5 v=0
112444 On ch=1 n=g4 v=0
112446 On ch=1 n=c5 v=0
112582 Par ch=1 c=64 v=0
112632 On ch=1 n=c6 v=60
112644 On ch=1 n=c4 v=54
112658 On ch=1 n=a#5 v=0
112708 Par ch=1 c=64 v=127
112884 On ch=1 n=c6 v=0
112994 On ch=1 n=c4 v=0
113138 On ch=1 n=a6 v=0
113160 On ch=1 n=c5 v=33
113164 On ch=1 n=g6 v=56
113164 On ch=1 n=e5 v=36
113168 On ch=1 n=a#5 v=51
113168 On ch=1 n=g4 v=24
113324 Par ch=1 c=64 v=0
113362 On ch=1 n=g4 v=0
113434 On ch=1 n=c6 v=47
113440 On ch=1 n=f4 v=52
113448 On ch=1 n=c5 v=0
113460 On ch=1 n=a#5 v=0
113480 On ch=1 n=e5 v=0
113504 Par ch=1 c=64 v=127
113798 On ch=1 n=c6 v=0
113926 On ch=1 n=g6 v=0
113928 On ch=1 n=f6 v=58
113936 On ch=1 n=a5 v=53
113936 On ch=1 n=c5 v=43
113950 On ch=1 n=f5 v=42
113954 On ch=1 n=f4 v=0
114020 On ch=1 n=f5 v=0
114038 On ch=1 n=c5 v=0
114108 On ch=1 n=f6 v=0
114112 On ch=1 n=g6 v=52
114116 On ch=1 n=a5 v=0
114132 Par ch=1 c=64 v=0
114176 On ch=1 n=a5 v=50
114184 On ch=1 n=d4 v=39
114190 On ch=1 n=f6 v=45
114230 On ch=1 n=g6 v=0
114236 Par ch=1 c=64 v=127
114298 On ch=1 n=d4 v=0
114350 On ch=1 n=a5 v=0
114364 On ch=1 n=f6 v=0
114396 On ch=1 n=e6 v=51
114408 On ch=1 n=g5 v=56
114572 On ch=1 n=e6 v=0
114584 On ch=1 n=g5 v=0
114624 On ch=1 n=a4 v=47
114628 On ch=1 n=c5 v=36
114634 On ch=1 n=d6 v=45
114634 On ch=1 n=f5 v=56
114748 Par ch=1 c=64 v=0
114834 Par ch=1 c=64 v=127
114848 On ch=1 n=a4 v=0
114852 On ch=1 n=c5 v=0
114858 On ch=1 n=f5 v=0
114896 Par ch=1 c=64 v=0
114916 On ch=1 n=g5 v=48
114928 On ch=1 n=d6 v=0
114928 On ch=1 n=g3 v=57
115040 On ch=1 n=g3 v=0
115048 Par ch=1 c=64 v=127
115216 On ch=1 n=g5 v=0
115444 On ch=1 n=e6 v=58
115448 On ch=1 n=f5 v=51
115458 On ch=1 n=c5 v=44
115458 On ch=1 n=d4 v=44
115468 On ch=1 n=g4 v=44
115562 On ch=1 n=g4 v=0
115584 On ch=1 n=d4 v=0
115584 On ch=1 n=c5 v=0
115686 Par ch=1 c=64 v=0
115716 On ch=1 n=g5 v=55
115730 On ch=1 n=g3 v=68
115772 On ch=1 n=f5 v=0
115804 On ch=1 n=g3 v=0
115820 Par ch=1 c=64 v=127
116196 On ch=1 n=e6 v=0
116228 On ch=1 n=d6 v=59
116232 On ch=1 n=b4 v=45
116232 On ch=1 n=g4 v=49
116232 On ch=1 n=d4 v=44
116234 On ch=1 n=f5 v=52
116258 On ch=1 n=g5 v=0
116358 On ch=1 n=d4 v=0
116358 On ch=1 n=g4 v=0
116358 On ch=1 n=b4 v=0
116514 Par ch=1 c=64 v=0
116520 On ch=1 n=c3 v=70
116548 On ch=1 n=g5 v=53
116592 On ch=1 n=f5 v=0
116642 Par ch=1 c=64 v=127
116694 On ch=1 n=c3 v=0
117022 On ch=1 n=d6 v=0
117026 On ch=1 n=g4 v=40
117032 On ch=1 n=c6 v=54
117032 On ch=1 n=e5 v=45
117044 On ch=1 n=c5 v=39
117046 On ch=1 n=g5 v=0
117192 On ch=1 n=c5 v=0
117202 On ch=1 n=d6 v=54
117254 On ch=1 n=c4 v=52
117260 On ch=1 n=e5 v=0
117260 On ch=1 n=c6 v=0
117274 On ch=1 n=c6 v=68
117288 On ch=1 n=e5 v=23
117300 Par ch=1 c=64 v=0
117320 On ch=1 n=d6 v=0
117406 Par ch=1 c=64 v=127
117450 On ch=1 n=c6 v=0
117464 On ch=1 n=e5 v=0
117488 On ch=1 n=g4 v=0
117502 On ch=1 n=b5 v=64
117512 On ch=1 n=f5 v=56
117518 On ch=1 n=g#4 v=54
117542 Par ch=1 c=64 v=0
117564 On ch=1 n=c4 v=0
117662 On ch=1 n=g#4 v=0
117724 On ch=1 n=c6 v=53
117738 On ch=1 n=b5 v=0
117748 On ch=1 n=e5 v=54
117754 On ch=1 n=g4 v=52
117760 On ch=1 n=f5 v=0
117782 Par ch=1 c=64 v=127
117912 Par ch=1 c=64 v=0
118010 On ch=1 n=c4 v=53
118028 On ch=1 n=g4 v=0
118072 Par ch=1 c=64 v=127
118150 On ch=1 n=c6 v=0
118170 Par ch=1 c=64 v=0
118208 On ch=1 n=e5 v=0
118244 Par ch=1 c=64 v=127
118486 On ch=1 n=c4 v=0
118488 On ch=1 n=c5 v=50
118494 On ch=1 n=e5 v=49
118502 On ch=1 n=c6 v=52
118502 On ch=1 n=g4 v=30
118676 On ch=1 n=c5 v=0
118682 On ch=1 n=e5 v=0
118682 On ch=1 n=d6 v=38
118720 On ch=1 n=e5 v=50
118728 On ch=1 n=c6 v=54
118730 On ch=1 n=c6 v=0
118740 On ch=1 n=c4 v=44
118784 On ch=1 n=d6 v=0
118918 On ch=1 n=e5 v=0
118920 On ch=1 n=f5 v=51
118920 On ch=1 n=g#4 v=51
118926 On ch=1 n=c6 v=0
118934 On ch=1 n=b5 v=54
118938 On ch=1 n=g4 v=0
119050 On ch=1 n=c4 v=0
119114 On ch=1 n=g#4 v=0
119162 On ch=1 n=b5 v=0
119172 On ch=1 n=f5 v=0
119178 On ch=1 n=c6 v=47
119190 On ch=1 n=e5 v=53
119206 On ch=1 n=g4 v=45
119314 Par ch=1 c=64 v=0
119478 On ch=1 n=c4 v=54
119492 On ch=1 n=g4 v=0
119534 Par ch=1 c=64 v=127
119582 On ch=1 n=c6 v=0
119642 On ch=1 n=e5 v=0
119930 On ch=1 n=c4 v=0
120016 On ch=1 n=c6 v=54
120016 On ch=1 n=g4 v=40
120034 On ch=1 n=e5 v=39
120034 On ch=1 n=c5 v=34
120172 Par ch=1 c=64 v=0
120278 On ch=1 n=f5 v=53
120286 On ch=1 n=c4 v=51
120312 On ch=1 n=c6 v=0
120316 On ch=1 n=e5 v=0
120316 Par ch=1 c=64 v=127
120340 On ch=1 n=g4 v=0
120376 On ch=1 n=c5 v=0
120696 On ch=1 n=c4 v=0
120776 On ch=1 n=d5 v=41
120776 On ch=1 n=c5 v=57
120784 On ch=1 n=g#4 v=39
120792 On ch=1 n=c6 v=51
120816 On ch=1 n=f5 v=0
120990 Par ch=1 c=64 v=0
121020 On ch=1 n=g#5 v=51
121038 On ch=1 n=c4 v=56
121048 On ch=1 n=c6 v=0
121082 On ch=1 n=c5 v=0
121082 On ch=1 n=d5 v=0
121102 Par ch=1 c=64 v=127
121144 On ch=1 n=g#4 v=0
121448 On ch=1 n=c4 v=0
121544 On ch=1 n=d5 v=25
121550 On ch=1 n=c6 v=52
121552 On ch=1 n=g#4 v=28
121554 On ch=1 n=f5 v=34
121564 On ch=1 n=g#5 v=0
121792 Par ch=1 c=64 v=0
121824 On ch=1 n=c4 v=33
121838 On ch=1 n=g5 v=47
121880 On ch=1 n=d5 v=0
121884 On ch=1 n=f5 v=0
121890 On ch=1 n=c6 v=0
121930 Par ch=1 c=64 v=127
121934 On ch=1 n=g#4 v=0
122384 On ch=1 n=g5 v=0
122388 On ch=1 n=c6 v=51
122392 On ch=1 n=c5 v=28
122394 On ch=1 n=c4 v=0
122398 On ch=1 n=e5 v=38
122398 On ch=1 n=a#4 v=28
122484 On ch=1 n=c5 v=0
122490 On ch=1 n=a#4 v=0
122708 Par ch=1 c=64 v=0
122718 On ch=1 n=g#5 v=54
122742 On ch=1 n=f3 v=51
122790 On ch=1 n=c6 v=0
122820 Par ch=1 c=64 v=127
122872 On ch=1 n=f3 v=0
122876 On ch=1 n=e5 v=0
122928 On ch=1 n=g#5 v=0
123224 On ch=1 n=c5 v=40
123232 On ch=1 n=c6 v=66
123232 On ch=1 n=f5 v=43
123232 On ch=1 n=g#4 v=29
123232 On ch=1 n=c4 v=58
123302 On ch=1 n=c5 v=0
123306 On ch=1 n=c4 v=0
123306 On ch=1 n=g#4 v=0
123306 On ch=1 n=f5 v=0
123522 Par ch=1 c=64 v=0
123564 On ch=1 n=f3 v=56
123650 Par ch=1 c=64 v=127
123728 On ch=1 n=f3 v=0
123870 On ch=1 n=c6 v=0
124080 On ch=1 n=c5 v=48
124086 On ch=1 n=f5 v=42
124088 On ch=1 n=f6 v=58
124088 On ch=1 n=g#5 v=58
124088 On ch=1 n=f4 v=46
124168 On ch=1 n=c5 v=0
124174 On ch=1 n=f5 v=0
124176 On ch=1 n=f4 v=0
124182 On ch=1 n=f6 v=0
124304 Par ch=1 c=64 v=0
124338 On ch=1 n=g6 v=44
124368 On ch=1 n=f6 v=55
124398 On ch=1 n=f3 v=28
124420 Par ch=1 c=64 v=127
124438 On ch=1 n=g#5 v=0
124444 On ch=1 n=g6 v=0
124486 On ch=1 n=f3 v=0
124532 On ch=1 n=f6 v=0
124602 On ch=1 n=d#6 v=54
124716 On ch=1 n=d#6 v=0
124792 On ch=1 n=f5 v=39
124792 On ch=1 n=f4 v=48
124800 On ch=1 n=a#5 v=68
124800 On ch=1 n=c#5 v=48
124806 On ch=1 n=c#6 v=65
124864 On ch=1 n=f4 v=0
124872 On ch=1 n=f5 v=0
124880 On ch=1 n=c#5 v=0
124880 On ch=1 n=a#5 v=0
124882 On ch=1 n=c#6 v=0
125040 On ch=1 n=c6 v=64
125040 On ch=1 n=f4 v=37
125040 On ch=1 n=f3 v=51
125044 On ch=1 n=g#5 v=63
125060 Par ch=1 c=64 v=0
125138 On ch=1 n=f3 v=0
125144 On ch=1 n=f4 v=0
125166 Par ch=1 c=64 v=127
125176 On ch=1 n=g#5 v=0
125280 On ch=1 n=f5 v=64
125284 On ch=1 n=g#5 v=59
125314 On ch=1 n=c6 v=0
125464 On ch=1 n=g#5 v=0
125474 On ch=1 n=a#5 v=66
125508 On ch=1 n=c5 v=44
125508 On ch=1 n=f4 v=48
125574 On ch=1 n=f4 v=0
125574 On ch=1 n=c5 v=0
125740 Par ch=1 c=64 v=0
125760 On ch=1 n=a#5 v=0
125776 On ch=1 n=g#5 v=53
125780 On ch=1 n=c6 v=57
125784 On ch=1 n=f3 v=50
125786 On ch=1 n=f4 v=51
125862 Par ch=1 c=64 v=127
125956 On ch=1 n=f3 v=0
125970 On ch=1 n=f4 v=0
125982 On ch=1 n=f5 v=0
125984 On ch=1 n=c6 v=0
126026 On ch=1 n=g#5 v=0
126256 On ch=1 n=c6 v=67
126256 On ch=1 n=g#5 v=56
126256 On ch=1 n=e3 v=47
126270 On ch=1 n=e5 v=51
126270 On ch=1 n=e4 v=52
126346 On ch=1 n=e4 v=0
126350 On ch=1 n=e3 v=0
126466 Par ch=1 c=64 v=0
126538 On ch=1 n=d#3 v=58
126584 On ch=1 n=e5 v=0
126588 Par ch=1 c=64 v=127
126624 On ch=1 n=c6 v=0
126648 On ch=1 n=g#5 v=0
126668 On ch=1 n=d#3 v=0
127028 On ch=1 n=d#4 v=57
127032 On ch=1 n=d#5 v=32
127032 On ch=1 n=c5 v=51
127044 On ch=1 n=c6 v=65
127044 On ch=1 n=g#5 v=42
127108 On ch=1 n=c5 v=0
127122 On ch=1 n=d#4 v=0
127208 Par ch=1 c=64 v=0
127300 On ch=1 n=d#4 v=57
127314 On ch=1 n=d#3 v=63
127336 Par ch=1 c=64 v=127
127376 On ch=1 n=g#5 v=0
127418 On ch=1 n=c6 v=0
127438 On ch=1 n=d#4 v=0
127452 On ch=1 n=d#3 v=0
127506 On ch=1 n=d#5 v=0
127652 On ch=1 n=c6 v=58
127720 On ch=1 n=c#6 v=62
127720 On ch=1 n=c5 v=41
127720 On ch=1 n=d#4 v=54
127736 On ch=1 n=g#5 v=52
127736 On ch=1 n=d#5 v=57
127740 On ch=1 n=c6 v=0
127792 On ch=1 n=d#4 v=0
127822 On ch=1 n=g#5 v=0
127856 On ch=1 n=d#5 v=0
127856 On ch=1 n=c5 v=0
127878 On ch=1 n=c#6 v=0
127950 Par ch=1 c=64 v=0
127992 On ch=1 n=d#3 v=66
127996 On ch=1 n=d#6 v=66
128060 Par ch=1 c=64 v=127
128082 On ch=1 n=d#3 v=0
128120 On ch=1 n=d#6 v=0
128304 On ch=1 n=g#5 v=48
128304 On ch=1 n=d#4 v=54
128312 On ch=1 n=d#5 v=49
128312 On ch=1 n=c5 v=45
128372 On ch=1 n=d#5 v=0
128410 On ch=1 n=d#4 v=0
128418 On ch=1 n=g#5 v=0
128422 On ch=1 n=a#5 v=55
128424 On ch=1 n=g5 v=61
128424 On ch=1 n=c#5 v=51
128424 On ch=1 n=a#4 v=46
128432 On ch=1 n=d#4 v=54
128434 On ch=1 n=c5 v=0
128534 On ch=1 n=a#4 v=0
128534 On ch=1 n=c#5 v=0
128544 On ch=1 n=g5 v=0
128548 On ch=1 n=a#5 v=0
128700 Par ch=1 c=64 v=0
128720 On ch=1 n=c5 v=44
128726 On ch=1 n=g#5 v=56
128726 On ch=1 n=g#4 v=45
128726 On ch=1 n=g#3 v=44
128728 On ch=1 n=c6 v=57
128840 Par ch=1 c=64 v=127
129006 On ch=1 n=g#5 v=0
129008 On ch=1 n=c6 v=0
129008 On ch=1 n=g#3 v=0
129026 On ch=1 n=c5 v=0
129032 On ch=1 n=g#4 v=0
129032 On ch=1 n=d#4 v=0
129216 On ch=1 n=a#5 v=58
129216 On ch=1 n=g3 v=56
129218 On ch=1 n=e5 v=57
129224 On ch=1 n=g4 v=54
129228 On ch=1 n=c6 v=66
129316 On ch=1 n=g3 v=0
129320 On ch=1 n=g4 v=0
129364 On ch=1 n=a#5 v=0
129478 Par ch=1 c=64 v=0
129536 On ch=1 n=f3 v=57
129556 On ch=1 n=e5 v=0
129608 Par ch=1 c=64 v=127
129674 On ch=1 n=c6 v=0
129716 On ch=1 n=f3 v=0
130056 On ch=1 n=c5 v=45
130056 On ch=1 n=g#4 v=45
130058 On ch=1 n=c6 v=66
130058 On ch=1 n=g#5 v=52
130058 On ch=1 n=f5 v=51
130064 On ch=1 n=c4 v=49
130144 On ch=1 n=c4 v=0
130176 On ch=1 n=g#4 v=0
130176 On ch=1 n=c5 v=0
130308 Par ch=1 c=64 v=0
130374 On ch=1 n=f3 v=47
130414 Par ch=1 c=64 v=127
130480 On ch=1 n=f3 v=0
130566 On ch=1 n=f5 v=0
130566 On ch=1 n=g#5 v=0
130834 On ch=1 n=c6 v=0
130848 On ch=1 n=g#5 v=56
130848 On ch=1 n=f5 v=47
130864 On ch=1 n=c5 v=57
130864 On ch=1 n=f4 v=47
130866 On ch=1 n=f6 v=56
130944 On ch=1 n=f4 v=0
130984 On ch=1 n=c5 v=0
131048 On ch=1 n=f5 v=0
131048 On ch=1 n=g#5 v=0
131066 On ch=1 n=f6 v=0
131066 Par ch=1 c=64 v=0
131106 On ch=1 n=g6 v=51
131144 On ch=1 n=f6 v=57
131156 On ch=1 n=f3 v=63
131180 Par ch=1 c=64 v=127
131198 On ch=1 n=g6 v=0
131248 On ch=1 n=f3 v=0
131380 On ch=1 n=f6 v=0
131380 On ch=1 n=d#6 v=54
131486 On ch=1 n=d#6 v=0
131568 On ch=1 n=c#5 v=42
131576 On ch=1 n=f5 v=36
131576 On ch=1 n=f4 v=23
131580 On ch=1 n=a#5 v=56
131582 On ch=1 n=c#6 v=51
131654 On ch=1 n=c#6 v=0
131658 On ch=1 n=f5 v=0
131660 On ch=1 n=a#5 v=0
131694 On ch=1 n=c#5 v=0
131712 On ch=1 n=f4 v=0
131808 On ch=1 n=f5 v=57
131816 On ch=1 n=c6 v=54
131816 On ch=1 n=g#5 v=54
131816 On ch=1 n=c5 v=57
131816 On ch=1 n=f4 v=57
131892 On ch=1 n=g#5 v=0
131906 On ch=1 n=c6 v=0
131928 On ch=1 n=f5 v=0
131936 On ch=1 n=f4 v=0
131936 On ch=1 n=c5 v=0
132038 On ch=1 n=d#4 v=73
132048 On ch=1 n=c5 v=68
132048 Par ch=1 c=64 v=0
132060 On ch=1 n=c6 v=59
132062 On ch=1 n=g5 v=58
132154 Par ch=1 c=64 v=127
132200 On ch=1 n=c6 v=0
132262 Par ch=1 c=64 v=0
132280 On ch=1 n=f5 v=68
132288 On ch=1 n=g#5 v=56
132290 On ch=1 n=f4 v=51
132298 On ch=1 n=d#4 v=0
132298 On ch=1 n=d6 v=54
132318 On ch=1 n=g5 v=0
132342 On ch=1 n=f5 v=0
132344 Par ch=1 c=64 v=127
132350 On ch=1 n=g#5 v=0
132368 On ch=1 n=d6 v=0
132464 Par ch=1 c=64 v=0
132500 On ch=1 n=c5 v=0
132560 On ch=1 n=g5 v=52
132560 On ch=1 n=d#5 v=56
132560 On ch=1 n=g4 v=32
132592 On ch=1 n=f4 v=0
132778 Par ch=1 c=64 v=127
132816 On ch=1 n=g#4 v=53
132876 On ch=1 n=g4 v=0
132914 On ch=1 n=d#5 v=0
132920 On ch=1 n=g5 v=0
133048 On ch=1 n=g4 v=46
133060 On ch=1 n=g#4 v=0
133060 On ch=1 n=d#5 v=46
133066 On ch=1 n=g5 v=46
133068 On ch=1 n=c5 v=47
133266 Par ch=1 c=64 v=0
133290 On ch=1 n=d#4 v=47
133364 On ch=1 n=g4 v=0
133524 On ch=1 n=d4 v=52
133544 On ch=1 n=g5 v=0
133544 On ch=1 n=d#5 v=0
133552 On ch=1 n=c5 v=0
133572 On ch=1 n=d#4 v=0
133574 Par ch=1 c=64 v=127
133760 On ch=1 n=c4 v=49
133768 On ch=1 n=d#5 v=46
133768 On ch=1 n=c5 v=56
133774 On ch=1 n=g5 v=39
133792 On ch=1 n=d4 v=0
133860 On ch=1 n=c4 v=0
133868 On ch=1 n=d#5 v=0
133888 On ch=1 n=c5 v=0
134032 On ch=1 n=c5 v=56
134038 On ch=1 n=d5 v=30
134046 On ch=1 n=g3 v=39
134060 Par ch=1 c=64 v=0
134240 Par ch=1 c=64 v=127
134340 On ch=1 n=g5 v=0
134356 On ch=1 n=c5 v=0
134362 On ch=1 n=d5 v=0
134482 On ch=1 n=g3 v=0
134560 On ch=1 n=g5 v=40
134560 On ch=1 n=d5 v=39
134568 On ch=1 n=b4 v=44
134650 On ch=1 n=b4 v=0
134660 On ch=1 n=d5 v=0
134676 On ch=1 n=g5 v=0
134796 Par ch=1 c=64 v=0
134828 On ch=1 n=c5 v=34
134830 On ch=1 n=e5 v=44
134830 On ch=1 n=c3 v=52
134930 Par ch=1 c=64 v=127
134938 On ch=1 n=c5 v=0
134952 On ch=1 n=c3 v=0
134952 On ch=1 n=e5 v=0
135336 On ch=1 n=a#4 v=45
135344 On ch=1 n=c5 v=39
135352 On ch=1 n=g6 v=60
135354 On ch=1 n=a#5 v=54
135354 On ch=1 n=g5 v=39
135356 On ch=1 n=c6 v=62
135406 Par ch=1 c=64 v=0
135582 On ch=1 n=g6 v=0
135584 On ch=1 n=a#5 v=0
135586 On ch=1 n=c6 v=0
135648 On ch=1 n=c4 v=53
135676 On ch=1 n=a#4 v=0
135684 On ch=1 n=c5 v=0
135694 On ch=1 n=g5 v=0
135704 Par ch=1 c=64 v=127
135820 Par ch=1 c=64 v=0
135852 Par ch=1 c=64 v=127
135874 On ch=1 n=c4 v=0
136152 On ch=1 n=c5 v=54
136160 On ch=1 n=f6 v=58
136160 On ch=1 n=g#5 v=50
136164 On ch=1 n=g#4 v=41
136166 On ch=1 n=c6 v=55
136166 On ch=1 n=f5 v=46
136376 Par ch=1 c=64 v=0
136390 On ch=1 n=g#5 v=0
136390 On ch=1 n=f6 v=0
136396 On ch=1 n=c6 v=0
136422 On ch=1 n=c4 v=46
136492 On ch=1 n=c5 v=0
136504 On ch=1 n=g#4 v=0
136506 On ch=1 n=f5 v=0
136518 Par ch=1 c=64 v=127
136696 On ch=1 n=c4 v=0
136896 On ch=1 n=d#6 v=60
136896 On ch=1 n=a#4 v=41
136904 On ch=1 n=a#5 v=69
136904 On ch=1 n=g5 v=61
136904 On ch=1 n=d#5 v=44
136904 On ch=1 n=g4 v=45
137016 On ch=1 n=g5 v=0
137024 On ch=1 n=a#5 v=0
137024 On ch=1 n=d#6 v=0
137080 Par ch=1 c=64 v=0
137114 On ch=1 n=f6 v=51
137144 On ch=1 n=d#6 v=34
137144 On ch=1 n=c4 v=55
137152 On ch=1 n=g5 v=55
137160 On ch=1 n=a#5 v=55
137232 Par ch=1 c=64 v=127
137236 On ch=1 n=a#4 v=0
137244 On ch=1 n=g4 v=0
137244 On ch=1 n=d#5 v=0
137272 On ch=1 n=g5 v=0
137280 On ch=1 n=a#5 v=0
137310 On ch=1 n=f6 v=0
137388 On ch=1 n=g#5 v=70
137416 On ch=1 n=d#6 v=0
137578 On ch=1 n=c4 v=0
137624 On ch=1 n=c#5 v=54
137624 On ch=1 n=f4 v=48
137628 On ch=1 n=c#6 v=60
137628 On ch=1 n=f5 v=36
137688 On ch=1 n=g#5 v=0
137738 On ch=1 n=f5 v=0
137738 On ch=1 n=c#5 v=0
137782 Par ch=1 c=64 v=0
137790 On ch=1 n=f4 v=0
137810 On ch=1 n=c#6 v=0
137858 On ch=1 n=c4 v=46
137872 On ch=1 n=c6 v=57
137872 On ch=1 n=e5 v=56
137932 Par ch=1 c=64 v=127
137974 On ch=1 n=e5 v=0
137992 On ch=1 n=c4 v=0
138034 On ch=1 n=c6 v=0
138368 On ch=1 n=c6 v=54
138376 On ch=1 n=c5 v=38
138376 On ch=1 n=a#4 v=37
138384 On ch=1 n=g6 v=58
138384 On ch=1 n=a#5 v=38
138384 On ch=1 n=g5 v=38
138450 Par ch=1 c=64 v=0
138454 On ch=1 n=g5 v=0
138454 On ch=1 n=c5 v=0
138482 On ch=1 n=a#4 v=0
138518 Par ch=1 c=64 v=127
138568 Par ch=1 c=64 v=0
138616 On ch=1 n=c4 v=49
138704 Par ch=1 c=64 v=127
138850 On ch=1 n=c4 v=0
138930 On ch=1 n=g6 v=0
138938 On ch=1 n=a#5 v=0
138940 On ch=1 n=c6 v=0
139136 On ch=1 n=g#5 v=47
139136 On ch=1 n=c5 v=39
139136 On ch=1 n=g#4 v=36
139142 On ch=1 n=f6 v=60
139142 On ch=1 n=c6 v=52
139144 On ch=1 n=f5 v=35
139216 On ch=1 n=c5 v=0
139224 On ch=1 n=f5 v=0
139226 Par ch=1 c=64 v=0
139258 Par ch=1 c=64 v=127
139266 On ch=1 n=g#4 v=0
139338 Par ch=1 c=64 v=0
139400 On ch=1 n=c4 v=52
139484 Par ch=1 c=64 v=127
139558 On ch=1 n=g#5 v=0
139678 On ch=1 n=c4 v=0
139746 On ch=1 n=c6 v=0
139832 On ch=1 n=f6 v=0
139868 On ch=1 n=d#6 v=57
139872 On ch=1 n=g5 v=36
139872 On ch=1 n=d#5 v=20
139872 On ch=1 n=g4 v=24
139880 On ch=1 n=a#5 v=51
139970 On ch=1 n=d#5 v=0
139980 On ch=1 n=g4 v=0
139992 On ch=1 n=g5 v=0
140000 On ch=1 n=a#5 v=0
140022 On ch=1 n=d#6 v=0
140050 On ch=1 n=f6 v=44
140102 Par ch=1 c=64 v=0
140136 On ch=1 n=d#6 v=66
140136 On ch=1 n=a#5 v=51
140136 On ch=1 n=g5 v=51
140146 On ch=1 n=c4 v=39
140228 Par ch=1 c=64 v=127
140256 On ch=1 n=g5 v=0
140256 On ch=1 n=a#5 v=0
140346 On ch=1 n=f6 v=0
140362 On ch=1 n=g#5 v=62
140424 On ch=1 n=d#6 v=0
140544 On ch=1 n=c4 v=0
140592 On ch=1 n=c#5 v=26
140594 On ch=1 n=f5 v=33
140600 On ch=1 n=g#4 v=54
140600 On ch=1 n=f4 v=41
140602 On ch=1 n=c#6 v=54
140668 On ch=1 n=g#5 v=0
140690 On ch=1 n=c#5 v=0
140694 On ch=1 n=f5 v=0
140716 On ch=1 n=f4 v=0
140720 On ch=1 n=g#4 v=0
140740 On ch=1 n=c#6 v=0
140782 Par ch=1 c=64 v=0
140848 On ch=1 n=c4 v=49
140856 On ch=1 n=e5 v=32
140862 On ch=1 n=c6 v=53
140944 Par ch=1 c=64 v=127
141050 On ch=1 n=e5 v=0
141056 On ch=1 n=c6 v=0
141292 On ch=1 n=c4 v=0
141360 On ch=1 n=c7 v=69
141366 On ch=1 n=c6 v=52
141368 On ch=1 n=e4 v=57
141376 On ch=1 n=c5 v=44
141574 Par ch=1 c=64 v=0
141620 On ch=1 n=c4 v=56
141656 On ch=1 n=e4 v=0
141670 On ch=1 n=c5 v=0
141724 Par ch=1 c=64 v=127
141826 On ch=1 n=c7 v=0
141890 On ch=1 n=c6 v=0
142120 On ch=1 n=c4 v=0
142120 On ch=1 n=d5 v=57
142120 On ch=1 n=c5 v=68
142120 On ch=1 n=f4 v=57
142132 On ch=1 n=c7 v=65
142132 On ch=1 n=c6 v=52
142134 On ch=1 n=d6 v=63
142310 Par ch=1 c=64 v=0
142400 On ch=1 n=c4 v=70
142440 On ch=1 n=f4 v=0
142468 Par ch=1 c=64 v=127
142490 On ch=1 n=c5 v=0
142490 On ch=1 n=d5 v=0
142552 On ch=1 n=c4 v=0
142648 On ch=1 n=d6 v=0
142674 On ch=1 n=c6 v=0
142694 On ch=1 n=c7 v=0
142904 On ch=1 n=c7 v=71
142904 On ch=1 n=f5 v=58
142904 On ch=1 n=c5 v=68
142904 On ch=1 n=g#4 v=56
142914 On ch=1 n=f6 v=73
142914 On ch=1 n=c6 v=56
142972 Par ch=1 c=64 v=0
143072 Par ch=1 c=64 v=127
143110 On ch=1 n=g#4 v=0
143110 On ch=1 n=c5 v=0
143110 On ch=1 n=f5 v=0
143128 Par ch=1 c=64 v=0
143156 On ch=1 n=c4 v=80
143246 Par ch=1 c=64 v=127
143452 On ch=1 n=c4 v=0
143462 On ch=1 n=c6 v=0
143462 On ch=1 n=c7 v=0
143536 On ch=1 n=f6 v=0
143640 On ch=1 n=e5 v=39
143648 On ch=1 n=e6 v=64
143648 On ch=1 n=c6 v=59
143648 On ch=1 n=g4 v=44
143656 On ch=1 n=c5 v=68
143662 On ch=1 n=c7 v=68
143688 Par ch=1 c=64 v=0
143756 Par ch=1 c=64 v=127
143762 On ch=1 n=g4 v=0
143776 On ch=1 n=c5 v=0
143778 On ch=1 n=e5 v=0
143934 On ch=1 n=c4 v=82
144068 On ch=1 n=e6 v=0
144124 On ch=1 n=c6 v=0
144132 On ch=1 n=c7 v=0
144146 On ch=1 n=c4 v=0
144418 On ch=1 n=f4 v=60
144424 On ch=1 n=d5 v=57
144426 On ch=1 n=d6 v=74
144426 On ch=1 n=c6 v=62
144444 On ch=1 n=c7 v=66
144588 Par ch=1 c=64 v=0
144684 On ch=1 n=c4 v=77
144702 On ch=1 n=f4 v=0
144728 Par ch=1 c=64 v=127
144750 On ch=1 n=d5 v=0
144796 On ch=1 n=d6 v=0
144836 On ch=1 n=c7 v=0
144858 On ch=1 n=c6 v=0
144984 On ch=1 n=c4 v=0
145162 On ch=1 n=e5 v=62
145162 On ch=1 n=g4 v=62
145164 On ch=1 n=c5 v=63
145178 On ch=1 n=c7 v=76
145180 On ch=1 n=e6 v=72
145180 On ch=1 n=c6 v=62
145362 On ch=1 n=g4 v=0
145364 On ch=1 n=c5 v=0
145364 On ch=1 n=e5 v=0
145444 On ch=1 n=c4 v=76
145448 Par ch=1 c=64 v=0
145538 Par ch=1 c=64 v=127
145732 On ch=1 n=c6 v=0
145734 On ch=1 n=c7 v=0
145738 On ch=1 n=e6 v=0
145784 On ch=1 n=c4 v=0
145928 On ch=1 n=c6 v=65
145936 On ch=1 n=g#6 v=75
145936 On ch=1 n=g#5 v=68
145936 On ch=1 n=c5 v=68
145936 On ch=1 n=a#4 v=62
145946 On ch=1 n=c7 v=78
146136 On ch=1 n=a#4 v=0
146136 On ch=1 n=c5 v=0
146136 On ch=1 n=g#5 v=0
146256 On ch=1 n=c4 v=82
146256 On ch=1 n=c3 v=76
146356 Par ch=1 c=64 v=0
146376 On ch=1 n=c2 v=80
146444 Par ch=1 c=64 v=127
146484 On ch=1 n=c3 v=0
146494 On ch=1 n=c4 v=0
146604 On ch=1 n=c2 v=0
146624 On ch=1 n=c7 v=0
146636 On ch=1 n=g#6 v=0
146686 On ch=1 n=c6 v=0
146896 On ch=1 n=c7 v=80
146896 On ch=1 n=c6 v=63
146896 On ch=1 n=c5 v=63
146896 On ch=1 n=a#4 v=64
146904 On ch=1 n=g5 v=51
146910 On ch=1 n=g6 v=75
147016 On ch=1 n=c7 v=0
147096 On ch=1 n=a#4 v=0
147096 On ch=1 n=c5 v=0
147104 On ch=1 n=g5 v=0
147178 On ch=1 n=c6 v=0
147224 On ch=1 n=g6 v=0
147258 Par ch=1 c=64 v=0
147270 On ch=1 n=g#6 v=31
147282 On ch=1 n=g6 v=78
147282 On ch=1 n=f2 v=78
147294 On ch=1 n=c6 v=88
147294 On ch=1 n=f3 v=66
147296 On ch=1 n=c7 v=72
147360 Par ch=1 c=64 v=127
147410 On ch=1 n=f2 v=0
147446 On ch=1 n=f3 v=0
147454 On ch=1 n=g#6 v=0
147488 On ch=1 n=g6 v=0
147490 On ch=1 n=c7 v=0
147582 On ch=1 n=c6 v=0
147792 On ch=1 n=f5 v=64
147792 On ch=1 n=f4 v=65
147794 On ch=1 n=c6 v=76
147794 On ch=1 n=c5 v=71
147798 On ch=1 n=c7 v=80
147798 On ch=1 n=f6 v=80
147798 On ch=1 n=g#4 v=72
147992 On ch=1 n=f4 v=0
147992 On ch=1 n=f5 v=0
147994 On ch=1 n=c5 v=0
147998 On ch=1 n=g#4 v=0
148046 Par ch=1 c=64 v=0
148102 On ch=1 n=f4 v=62
148112 On ch=1 n=f3 v=70
148126 Par ch=1 c=64 v=127
148222 On ch=1 n=f3 v=0
148226 On ch=1 n=f4 v=0
148228 On ch=1 n=c6 v=0
148238 On ch=1 n=f6 v=0
148284 On ch=1 n=c7 v=0
148576 On ch=1 n=f6 v=60
148576 On ch=1 n=g#4 v=80
148576 On ch=1 n=f4 v=57
148580 On ch=1 n=f7 v=74
148580 On ch=1 n=c5 v=69
148584 On ch=1 n=f5 v=71
148654 On ch=1 n=f6 v=0
148656 On ch=1 n=f7 v=0
148776 On ch=1 n=f4 v=0
148776 On ch=1 n=g#4 v=0
148780 On ch=1 n=c5 v=0
148784 On ch=1 n=f5 v=0
148806 Par ch=1 c=64 v=0
148840 On ch=1 n=g7 v=80
148844 On ch=1 n=g6 v=74
148864 Par ch=1 c=64 v=127
148888 On ch=1 n=g7 v=0
148890 On ch=1 n=g6 v=0
148904 On ch=1 n=f6 v=72
148904 On ch=1 n=f3 v=64
148906 On ch=1 n=f7 v=73
148912 On ch=1 n=f4 v=28
148982 On ch=1 n=f4 v=0
148984 On ch=1 n=f6 v=0
148986 On ch=1 n=f7 v=0
148986 On ch=1 n=f3 v=0
149152 On ch=1 n=d#7 v=66
149152 On ch=1 n=d#6 v=80
149224 On ch=1 n=d#7 v=0
149234 On ch=1 n=d#6 v=0
149392 On ch=1 n=c#7 v=81
149392 On ch=1 n=a#6 v=80
149392 On ch=1 n=c#6 v=88
149392 On ch=1 n=c#5 v=71
149392 On ch=1 n=f4 v=73
149396 On ch=1 n=f5 v=68
149396 On ch=1 n=a#4 v=80
149438 On ch=1 n=f5 v=0
149452 On ch=1 n=c#5 v=0
149464 On ch=1 n=f4 v=0
149468 On ch=1 n=a#4 v=0
149468 On ch=1 n=c#6 v=0
149488 On ch=1 n=c#7 v=0
149512 On ch=1 n=a#6 v=0
149640 On ch=1 n=c7 v=78
149640 On ch=1 n=g#6 v=92
149640 On ch=1 n=f3 v=78
149644 On ch=1 n=c6 v=76
149644 On ch=1 n=f4 v=81
149704 On ch=1 n=f4 v=0
149710 On ch=1 n=g#6 v=0
149718 On ch=1 n=c6 v=0
149720 On ch=1 n=f3 v=0
149720 On ch=1 n=c7 v=0
149876 On ch=1 n=g#6 v=82
149876 On ch=1 n=g#5 v=86
149880 On ch=1 n=f6 v=86
149954 On ch=1 n=f6 v=0
149956 On ch=1 n=g#6 v=0
149958 On ch=1 n=g#5 v=0
150088 On ch=1 n=g6 v=81
150088 On ch=1 n=c4 v=66
150094 On ch=1 n=a#6 v=82
150094 On ch=1 n=a#5 v=86
150096 On ch=1 n=c5 v=70
150156 On ch=1 n=c5 v=0
150160 On ch=1 n=c4 v=0
150164 On ch=1 n=a#5 v=0
150170 On ch=1 n=g6 v=0
150192 On ch=1 n=a#6 v=0
150334 Par ch=1 c=64 v=0
150360 On ch=1 n=g#6 v=94
150366 On ch=1 n=c7 v=84
150376 On ch=1 n=c6 v=82
150376 On ch=1 n=f4 v=78
150376 On ch=1 n=f3 v=64
150438 Par ch=1 c=64 v=127
150646 On ch=1 n=g#6 v=0
150658 On ch=1 n=f3 v=0
150678 On ch=1 n=f4 v=0
150678 On ch=1 n=c6 v=0
150678 On ch=1 n=c7 v=0
150848 On ch=1 n=e3 v=64
150850 On ch=1 n=e4 v=76
150852 On ch=1 n=c7 v=84
150852 On ch=1 n=g#6 v=94
150852 On ch=1 n=c6 v=86
150930 On ch=1 n=e3 v=0
150960 On ch=1 n=e4 v=0
151062 Par ch=1 c=64 v=0
151144 On ch=1 n=d#4 v=84
151144 On ch=1 n=d#3 v=88
151228 Par ch=1 c=64 v=127
151298 On ch=1 n=d#3 v=0
151360 On ch=1 n=d#4 v=0
151422 On ch=1 n=c7 v=0
151434 On ch=1 n=g#6 v=0
151462 On ch=1 n=c6 v=0
151662 On ch=1 n=d#5 v=74
151662 On ch=1 n=d#4 v=67
151674 On ch=1 n=g#6 v=76
151674 On ch=1 n=c6 v=78
151686 On ch=1 n=c7 v=76
151734 On ch=1 n=d#5 v=0
151748 On ch=1 n=d#4 v=0
151902 On ch=1 n=c7 v=0
151948 On ch=1 n=d#4 v=93
151948 On ch=1 n=d#3 v=90
151978 On ch=1 n=g#6 v=0
152014 On ch=1 n=c6 v=0
152018 On ch=1 n=d#4 v=0
152020 On ch=1 n=d#3 v=0
152276 On ch=1 n=g#4 v=68
152280 On ch=1 n=c5 v=68
152284 On ch=1 n=c7 v=57
152284 On ch=1 n=g#6 v=63
152284 On ch=1 n=c6 v=62
152284 On ch=1 n=f5 v=58
152286 Par ch=1 c=64 v=0
152340 On ch=1 n=c6 v=0
152344 On ch=1 n=g#6 v=0
152344 On ch=1 n=c7 v=0
152348 On ch=1 n=f5 v=0
152370 On ch=1 n=g#4 v=0
152374 On ch=1 n=c5 v=0
152376 Par ch=1 c=64 v=127
152384 On ch=1 n=g#6 v=76
152384 On ch=1 n=c#6 v=69
152384 On ch=1 n=d#5 v=79
152384 On ch=1 n=c5 v=68
152384 On ch=1 n=g#4 v=68
152384 On ch=1 n=d#4 v=68
152390 On ch=1 n=c#7 v=64
152478 On ch=1 n=d#5 v=0
152478 On ch=1 n=g#6 v=0
152484 On ch=1 n=c#7 v=0
152496 On ch=1 n=c#6 v=0
152504 On ch=1 n=d#4 v=0
152504 On ch=1 n=g#4 v=0
152504 On ch=1 n=c5 v=0
152612 On ch=1 n=d#7 v=74
152612 On ch=1 n=g#6 v=68
152612 On ch=1 n=d#6 v=79
152616 On ch=1 n=d#3 v=84
152620 On ch=1 n=d#4 v=68
152684 On ch=1 n=d#3 v=0
152688 On ch=1 n=d#4 v=0
152732 On ch=1 n=d#6 v=0
152732 On ch=1 n=g#6 v=0
152732 On ch=1 n=d#7 v=0
152884 On ch=1 n=c5 v=68
152884 On ch=1 n=d#4 v=68
152886 On ch=1 n=g#5 v=79
152888 On ch=1 n=d#6 v=68
152888 On ch=1 n=d#5 v=78
152890 On ch=1 n=g#6 v=78
152928 On ch=1 n=d#6 v=0
152928 On ch=1 n=d#4 v=0
152928 On ch=1 n=c5 v=0
152930 On ch=1 n=g#6 v=0
152930 On ch=1 n=g#5 v=0
152932 On ch=1 n=d#5 v=0
153004 On ch=1 n=a#6 v=78
153004 On ch=1 n=d#6 v=68
153004 On ch=1 n=c#5 v=66
153004 On ch=1 n=d#4 v=68
153006 On ch=1 n=a#5 v=79
153008 On ch=1 n=d#5 v=68
153008 On ch=1 n=g4 v=68
153066 On ch=1 n=a#5 v=0
153088 On ch=1 n=c#5 v=0
153092 On ch=1 n=d#5 v=0
153092 On ch=1 n=d#4 v=0
153092 On ch=1 n=d#6 v=0
153092 On ch=1 n=a#6 v=0
153096 On ch=1 n=g4 v=0
153262 Par ch=1 c=64 v=0
153288 On ch=1 n=g#3 v=86
153292 On ch=1 n=g#4 v=96
153296 On ch=1 n=d#6 v=90
153296 On ch=1 n=c6 v=81
153300 On ch=1 n=c7 v=84
153380 Par ch=1 c=64 v=127
153570 On ch=1 n=d#6 v=0
153596 On ch=1 n=c7 v=0
153620 On ch=1 n=g#3 v=0
153624 On ch=1 n=c6 v=0
153632 On ch=1 n=g#4 v=0
153736 On ch=1 n=c7 v=85
153736 On ch=1 n=a#6 v=86
153736 On ch=1 n=e6 v=85
153736 On ch=1 n=g3 v=75
153740 On ch=1 n=c6 v=92
153744 On ch=1 n=g4 v=96
153840 On ch=1 n=g4 v=0
153840 On ch=1 n=g3 v=0
154014 Par ch=1 c=64 v=0
154046 On ch=1 n=f4 v=92
154054 On ch=1 n=f3 v=80
154066 On ch=1 n=e6 v=0
154090 On ch=1 n=a#6 v=0
154138 Par ch=1 c=64 v=127
154152 On ch=1 n=c7 v=0
154160 On ch=1 n=c6 v=0
154230 On ch=1 n=f3 v=0
154256 On ch=1 n=f4 v=0
154572 On ch=1 n=c6 v=80
154576 On ch=1 n=g#6 v=78
154576 On ch=1 n=g#4 v=75
154576 On ch=1 n=f4 v=71
154580 On ch=1 n=c7 v=80
154580 On ch=1 n=f6 v=80
154580 On ch=1 n=f5 v=76
154642 On ch=1 n=f5 v=0
154650 On ch=1 n=g#4 v=0
154670 On ch=1 n=f4 v=0
154912 On ch=1 n=f3 v=100
154912 On ch=1 n=f2 v=100
155072 On ch=1 n=f6 v=0
155086 On ch=1 n=c6 v=0
155096 Par ch=1 c=64 v=0
155116 On ch=1 n=g#6 v=0
155214 On ch=1 n=c7 v=0
155242 Par ch=1 c=64 v=127
155392 On ch=1 n=f2 v=0
155392 On ch=1 n=f3 v=0
155744 On ch=1 n=g#6 v=78
155744 On ch=1 n=f6 v=76
155744 On ch=1 n=f5 v=74
155748 On ch=1 n=f7 v=78
155748 On ch=1 n=g#4 v=73
155748 On ch=1 n=f4 v=71
155982 On ch=1 n=f5 v=0
155982 On ch=1 n=f6 v=0
155982 On ch=1 n=g#6 v=0
155986 On ch=1 n=f4 v=0
155986 On ch=1 n=g#4 v=0
155986 On ch=1 n=f7 v=0
156044 On ch=1 n=g4 v=76
156048 On ch=1 n=g7 v=80
156048 On ch=1 n=g6 v=81
156048 On ch=1 n=g5 v=80
156088 On ch=1 n=g4 v=0
156110 On ch=1 n=g6 v=0
156110 On ch=1 n=g7 v=0
156116 On ch=1 n=g5 v=0
156148 On ch=1 n=f5 v=82
156150 On ch=1 n=f7 v=80
156150 On ch=1 n=g#4 v=82
156152 On ch=1 n=g#6 v=80
156152 On ch=1 n=f6 v=76
156152 On ch=1 n=f4 v=74
156202 On ch=1 n=f4 v=0
156212 On ch=1 n=f7 v=0
156214 On ch=1 n=g#6 v=0
156214 On ch=1 n=g#4 v=0
156214 On ch=1 n=f5 v=0
156230 On ch=1 n=f6 v=0
156340 On ch=1 n=e5 v=80
156340 On ch=1 n=e4 v=80
156344 On ch=1 n=g#6 v=80
156344 On ch=1 n=e6 v=76
156344 On ch=1 n=g#4 v=76
156346 On ch=1 n=e7 v=80
156390 On ch=1 n=e5 v=0
156392 On ch=1 n=e4 v=0
156394 On ch=1 n=g#4 v=0
156394 On ch=1 n=e6 v=0
156396 On ch=1 n=g#6 v=0
156408 On ch=1 n=e7 v=0
156504 On ch=1 n=g#4 v=80
156506 On ch=1 n=d#4 v=80
156508 On ch=1 n=d#7 v=82
156508 On ch=1 n=g#6 v=80
156508 On ch=1 n=d#6 v=94
156508 On ch=1 n=d#5 v=98
156558 On ch=1 n=d#4 v=0
156564 On ch=1 n=g#4 v=0
156566 On ch=1 n=d#5 v=0
156574 On ch=1 n=d#6 v=0
156582 On ch=1 n=g#6 v=0
156586 On ch=1 n=d#7 v=0
156668 Par ch=1 c=64 v=0
156700 On ch=1 n=d5 v=86
156700 On ch=1 n=g#4 v=92
156700 On ch=1 n=d4 v=80
156704 On ch=1 n=d6 v=82
156706 On ch=1 n=d7 v=88
156706 On ch=1 n=g#6 v=92
156802 Par ch=1 c=64 v=127
156938 On ch=1 n=d4 v=0
156938 On ch=1 n=g#4 v=0
156938 On ch=1 n=d5 v=0
156942 On ch=1 n=d6 v=0
156944 On ch=1 n=g#6 v=0
156944 On ch=1 n=d7 v=0
156944 On ch=1 n=c#7 v=92
156944 On ch=1 n=g#6 v=80
156944 On ch=1 n=c#6 v=92
156944 On ch=1 n=g#4 v=80
156944 On ch=1 n=c#4 v=86
156948 On ch=1 n=c#5 v=93
156998 On ch=1 n=c#6 v=0
157004 On ch=1 n=g#6 v=0
157004 On ch=1 n=c#7 v=0
157006 On ch=1 n=c#4 v=0
157020 On ch=1 n=g#4 v=0
157024 On ch=1 n=c#5 v=0
157088 On ch=1 n=c7 v=78
157088 On ch=1 n=g#6 v=75
157088 On ch=1 n=c6 v=84
157088 On ch=1 n=g#4 v=75
157090 On ch=1 n=c5 v=84
157090 On ch=1 n=c4 v=80
157142 On ch=1 n=c5 v=0
157146 On ch=1 n=g#6 v=0
157152 On ch=1 n=c4 v=0
157154 On ch=1 n=g#4 v=0
157154 On ch=1 n=c7 v=0
157162 On ch=1 n=c6 v=0
157268 On ch=1 n=c6 v=82
157270 On ch=1 n=c7 v=82
157272 On ch=1 n=g#6 v=84
157272 On ch=1 n=c5 v=84
157272 On ch=1 n=g#4 v=84
157272 On ch=1 n=c4 v=80
157310 On ch=1 n=g#6 v=0
157328 On ch=1 n=c4 v=0
157328 On ch=1 n=c7 v=0
157330 On ch=1 n=c5 v=0
157332 On ch=1 n=g#4 v=0
157340 On ch=1 n=c6 v=0
157468 On ch=1 n=g5 v=84
157472 On ch=1 n=g6 v=84
157472 On ch=1 n=c6 v=80
157472 On ch=1 n=g4 v=84
157472 On ch=1 n=g3 v=77
157476 On ch=1 n=c4 v=80
157514 On ch=1 n=g6 v=0
157524 On ch=1 n=g4 v=0
157528 On ch=1 n=c4 v=0
157528 On ch=1 n=g5 v=0
157530 On ch=1 n=g3 v=0
157532 On ch=1 n=c6 v=0
157652 On ch=1 n=a#6 v=86
157652 On ch=1 n=c6 v=80
157656 On ch=1 n=a#5 v=88
157656 On ch=1 n=a#4 v=92
157656 On ch=1 n=c4 v=80
157656 On ch=1 n=a#3 v=76
157696 On ch=1 n=a#3 v=0
157696 On ch=1 n=c4 v=0
157712 On ch=1 n=c6 v=0
157712 On ch=1 n=a#6 v=0
157714 On ch=1 n=a#5 v=0
157720 On ch=1 n=a#4 v=0
157856 On ch=1 n=g#4 v=93
157860 On ch=1 n=c6 v=74
157860 On ch=1 n=g#5 v=78
157860 On ch=1 n=c4 v=80
157866 On ch=1 n=g#6 v=84
157866 On ch=1 n=g#3 v=98
157896 Par ch=1 c=64 v=0
157984 Par ch=1 c=64 v=127
158064 On ch=1 n=g#5 v=0
158068 On ch=1 n=g#4 v=0
158080 On ch=1 n=c4 v=0
158080 On ch=1 n=c6 v=0
158086 On ch=1 n=g#3 v=0
158086 On ch=1 n=g#6 v=0
158320 On ch=1 n=f#4 v=75
158392 On ch=1 n=c5 v=74
158406 On ch=1 n=g#3 v=78
158464 On ch=1 n=g#5 v=84
158484 Par ch=1 c=64 v=0
158636 Par ch=1 c=64 v=127
158720 On ch=1 n=g#5 v=0
158814 On ch=1 n=f#4 v=0
158872 On ch=1 n=g5 v=73
158878 On ch=1 n=g#3 v=0
158886 On ch=1 n=c5 v=0
158996 On ch=1 n=g5 v=0
159050 On ch=1 n=f#5 v=77
159162 On ch=1 n=f#5 v=0
159212 Par ch=1 c=64 v=0
159266 On ch=1 n=c#5 v=62
159272 On ch=1 n=c#3 v=73
159280 On ch=1 n=c#4 v=76
159290 On ch=1 n=f5 v=78
159290 On ch=1 n=f4 v=54
159324 On ch=1 n=c#5 v=0
159338 On ch=1 n=c#4 v=0
159338 On ch=1 n=c#3 v=0
159344 Par ch=1 c=64 v=127
159480 On ch=1 n=c5 v=70
159674 On ch=1 n=a#4 v=71
159706 On ch=1 n=c5 v=0
159750 On ch=1 n=f5 v=0
159876 On ch=1 n=g#4 v=67
159900 On ch=1 n=a#4 v=0
159910 Par ch=1 c=64 v=0
159978 On ch=1 n=f4 v=0
160008 Par ch=1 c=64 v=127
160044 On ch=1 n=g5 v=68
160064 On ch=1 n=g4 v=69
160116 On ch=1 n=g4 v=0
160128 On ch=1 n=g5 v=0
160188 On ch=1 n=g#4 v=0
160240 On ch=1 n=a#5 v=84
160240 On ch=1 n=a#4 v=82
160310 On ch=1 n=a#4 v=0
160314 On ch=1 n=a#5 v=0
160446 On ch=1 n=g#5 v=69
160452 On ch=1 n=g#4 v=75
160464 Par ch=1 c=64 v=0
160558 Par ch=1 c=64 v=127
160650 On ch=1 n=g#5 v=0
160694 On ch=1 n=g#4 v=0
160852 On ch=1 n=g#5 v=68
160856 On ch=1 n=g#3 v=71
160868 On ch=1 n=c5 v=67
160868 On ch=1 n=f#4 v=68
160904 Par ch=1 c=64 v=0
160994 Par ch=1 c=64 v=127
161110 On ch=1 n=g#5 v=0
161246 On ch=1 n=g5 v=76
161378 On ch=1 n=c5 v=0
161382 On ch=1 n=f#4 v=0
161412 On ch=1 n=f#5 v=80
161440 On ch=1 n=g5 v=0
161578 On ch=1 n=f#5 v=0
161600 Par ch=1 c=64 v=0
161640 On ch=1 n=c#5 v=56
161642 On ch=1 n=f5 v=75
161654 On ch=1 n=f4 v=47
161656 On ch=1 n=c#3 v=62
161664 On ch=1 n=c#4 v=60
161700 On ch=1 n=g#3 v=0
161768 Par ch=1 c=64 v=127
161790 On ch=1 n=c#4 v=0
161794 On ch=1 n=c#3 v=0
161832 On ch=1 n=f4 v=0
161836 On ch=1 n=c#5 v=0
161850 Par ch=1 c=64 v=0
161872 On ch=1 n=f5 v=0
162082 On ch=1 n=c#5 v=64
162082 On ch=1 n=g3 v=76
162084 On ch=1 n=f5 v=68
162084 On ch=1 n=f4 v=65
162474 On ch=1 n=e5 v=69
162492 On ch=1 n=f5 v=0
162664 On ch=1 n=g5 v=76
162730 On ch=1 n=e5 v=0
162868 On ch=1 n=f5 v=69
162886 On ch=1 n=g5 v=0
162912 On ch=1 n=c#5 v=0
162952 On ch=1 n=f4 v=0
162958 On ch=1 n=f5 v=0
162958 On ch=1 n=g3 v=0
163256 On ch=1 n=c#5 v=41
163260 On ch=1 n=f5 v=55
163264 On ch=1 n=g2 v=70
163274 On ch=1 n=g3 v=45
163288 On ch=1 n=f4 v=44
163468 Par ch=1 c=64 v=127
163502 On ch=1 n=g2 v=0
163552 On ch=1 n=c#5 v=0
163608 On ch=1 n=c5 v=59
163628 On ch=1 n=d#5 v=58
163636 On ch=1 n=g#3 v=55
163640 On ch=1 n=g#2 v=70
163658 On ch=1 n=g3 v=0
163676 On ch=1 n=f5 v=0
163716 On ch=1 n=f4 v=0
163806 On ch=1 n=c5 v=0
163816 On ch=1 n=g#2 v=0
163816 On ch=1 n=c#5 v=80
163816 On ch=1 n=a#2 v=70
163818 On ch=1 n=a#3 v=61
163826 On ch=1 n=d#5 v=0
163828 On ch=1 n=a#4 v=60
163864 On ch=1 n=g#3 v=0
163936 On ch=1 n=a#2 v=0
163946 On ch=1 n=a#3 v=0
164004 On ch=1 n=c#5 v=0
164006 On ch=1 n=c5 v=60
164012 On ch=1 n=e4 v=54
164016 On ch=1 n=a#4 v=0
164016 On ch=1 n=c4 v=43
164028 On ch=1 n=c3 v=56
164072 Par ch=1 c=64 v=0
164242 On ch=1 n=c4 v=0
164254 On ch=1 n=e4 v=0
164274 On ch=1 n=c3 v=0
164276 On ch=1 n=c5 v=0
164468 On ch=1 n=f5 v=49
164472 On ch=1 n=g3 v=63
164472 On ch=1 n=g2 v=63
164476 On ch=1 n=b4 v=52
164476 On ch=1 n=f4 v=53
164698 Par ch=1 c=64 v=127
164836 On ch=1 n=d#5 v=53
164862 On ch=1 n=b4 v=0
164866 On ch=1 n=f5 v=0
164970 On ch=1 n=f4 v=0
164986 On ch=1 n=c#5 v=59
165078 On ch=1 n=d#5 v=0
165166 On ch=1 n=c#5 v=0
165176 On ch=1 n=c3 v=46
165184 Par ch=1 c=64 v=0
165190 On ch=1 n=g2 v=0
165196 On ch=1 n=e4 v=45
165200 On ch=1 n=c5 v=52
165200 On ch=1 n=c4 v=36
165340 Par ch=1 c=64 v=127
165348 On ch=1 n=g3 v=0
165374 On ch=1 n=c3 v=0
165392 On ch=1 n=e4 v=0
165434 On ch=1 n=c4 v=0
165480 On ch=1 n=c5 v=0
165644 On ch=1 n=g2 v=39
165648 On ch=1 n=g3 v=59
165652 On ch=1 n=f5 v=41
165664 On ch=1 n=c#5 v=38
165664 On ch=1 n=f4 v=33
165684 Par ch=1 c=64 v=0
165800 Par ch=1 c=64 v=127
165950 On ch=1 n=c#5 v=0
166006 On ch=1 n=f5 v=0
166040 On ch=1 n=c5 v=59
166040 On ch=1 n=g#2 v=47
166052 On ch=1 n=d#5 v=47
166092 On ch=1 n=g2 v=0
166128 On ch=1 n=g3 v=0
166164 On ch=1 n=f4 v=0
166196 On ch=1 n=c5 v=0
166208 On ch=1 n=d#5 v=0
166242 On ch=1 n=c#5 v=51
166256 On ch=1 n=a#4 v=52
166264 On ch=1 n=a#2 v=51
166300 On ch=1 n=g#2 v=0
166344 On ch=1 n=c#5 v=0
166370 On ch=1 n=a#2 v=0
166462 On ch=1 n=a#4 v=0
166468 On ch=1 n=c3 v=57
166480 On ch=1 n=c5 v=66
166494 On ch=1 n=e4 v=25
166514 Par ch=1 c=64 v=0
166666 Par ch=1 c=64 v=127
166674 On ch=1 n=c5 v=0
166688 On ch=1 n=e4 v=0
166904 On ch=1 n=d5 v=70
166904 On ch=1 n=c5 v=70
166904 On ch=1 n=f4 v=65
167114 On ch=1 n=f4 v=0
167122 On ch=1 n=g#4 v=54
167124 On ch=1 n=c5 v=0
167124 On ch=1 n=d5 v=0
167134 On ch=1 n=c4 v=59
167136 On ch=1 n=f5 v=75
167144 On ch=1 n=c5 v=70
167158 Par ch=1 c=64 v=0
167284 Par ch=1 c=64 v=127
167490 On ch=1 n=g#4 v=0
167504 On ch=1 n=f5 v=0
167512 On ch=1 n=c5 v=0
167560 On ch=1 n=c5 v=70
167568 On ch=1 n=e5 v=70
167570 On ch=1 n=g4 v=54
167790 On ch=1 n=c5 v=0
167794 On ch=1 n=d5 v=64
167800 On ch=1 n=c5 v=70
167808 On ch=1 n=f4 v=66
167810 On ch=1 n=g4 v=0
167818 On ch=1 n=e5 v=0
167826 Par ch=1 c=64 v=0
167960 Par ch=1 c=64 v=127
168158 On ch=1 n=d5 v=0
168164 On ch=1 n=c5 v=0
168232 On ch=1 n=c5 v=70
168238 On ch=1 n=g4 v=60
168248 On ch=1 n=e5 v=76
168294 On ch=1 n=f4 v=0
168382 Par ch=1 c=64 v=0
168428 On ch=1 n=c5 v=0
168444 On ch=1 n=e5 v=0
168456 On ch=1 n=e5 v=70
168472 On ch=1 n=g4 v=0
168472 On ch=1 n=g#5 v=80
168472 On ch=1 n=c5 v=70
168504 Par ch=1 c=64 v=127
168628 On ch=1 n=g#5 v=0
168672 On ch=1 n=c3 v=0
168696 On ch=1 n=e5 v=0
168712 On ch=1 n=c5 v=0
168718 On ch=1 n=c4 v=0
168840 On ch=1 n=g5 v=75
168840 On ch=1 n=e5 v=70
168840 On ch=1 n=a#4 v=59
169020 On ch=1 n=a#4 v=0
169020 On ch=1 n=e5 v=0
169020 On ch=1 n=g5 v=0
169128 On ch=1 n=c6 v=73
169128 On ch=1 n=c5 v=80
169128 On ch=1 n=a#4 v=80
169128 On ch=1 n=g4 v=73
169128 On ch=1 n=c4 v=69
169140 On ch=1 n=e5 v=68
169318 On ch=1 n=c4 v=0
169318 On ch=1 n=g4 v=0
169318 On ch=1 n=c6 v=0
169330 On ch=1 n=e5 v=0
169368 On ch=1 n=a#4 v=0
169368 On ch=1 n=c5 v=0
169560 On ch=1 n=d6 v=76
169576 On ch=1 n=g#5 v=75
169576 On ch=1 n=f5 v=75
169576 On ch=1 n=d5 v=76
169576 On ch=1 n=a#4 v=66
169592 On ch=1 n=g4 v=39
169592 On ch=1 n=c4 v=61
169646 On ch=1 n=d6 v=0
169660 On ch=1 n=d5 v=0
169662 On ch=1 n=f5 v=0
169662 On ch=1 n=g#5 v=0
169670 On ch=1 n=a#4 v=0
169678 On ch=1 n=g4 v=0
169700 On ch=1 n=c4 v=0
169752 On ch=1 n=a#4 v=73
169752 On ch=1 n=g4 v=65
169752 On ch=1 n=c4 v=76
169756 On ch=1 n=c6 v=76
169764 Par ch=1 c=64 v=0
169768 On ch=1 n=f6 v=72
169780 On ch=1 n=g#5 v=84
169782 On ch=1 n=f5 v=90
169838 On ch=1 n=c4 v=0
169868 Par ch=1 c=64 v=127
169888 On ch=1 n=g#5 v=0
169890 On ch=1 n=f5 v=0
169904 On ch=1 n=g4 v=0
169916 On ch=1 n=a#4 v=0
169924 On ch=1 n=c6 v=0
170038 On ch=1 n=f6 v=0
170136 On ch=1 n=c4 v=80
170138 On ch=1 n=e5 v=80
170152 On ch=1 n=c6 v=80
170152 On ch=1 n=g5 v=73
170152 On ch=1 n=a#4 v=68
170154 On ch=1 n=e6 v=73
170162 On ch=1 n=g4 v=68
170224 On ch=1 n=e5 v=0
170232 On ch=1 n=g5 v=0
170244 On ch=1 n=g4 v=0
170248 On ch=1 n=a#4 v=0
170256 On ch=1 n=c4 v=0
170272 On ch=1 n=c6 v=0
170282 On ch=1 n=e6 v=0
170392 On ch=1 n=c4 v=52
170408 On ch=1 n=c6 v=80
170408 On ch=1 n=a#4 v=31
170412 On ch=1 n=d6 v=66
170422 On ch=1 n=f5 v=82
170424 On ch=1 n=f4 v=80
170432 On ch=1 n=d5 v=76
170484 On ch=1 n=f5 v=0
170528 On ch=1 n=d5 v=0
170528 On ch=1 n=a#4 v=0
170528 On ch=1 n=c6 v=0
170530 On ch=1 n=c4 v=0
170534 On ch=1 n=d6 v=0
170544 On ch=1 n=f4 v=0
170776 On ch=1 n=c4 v=80
170792 On ch=1 n=g4 v=62
170804 On ch=1 n=a#4 v=63
170810 On ch=1 n=e5 v=80
170820 On ch=1 n=c6 v=76
170822 On ch=1 n=e6 v=76
170822 On ch=1 n=g5 v=81
170880 On ch=1 n=g5 v=0
170884 On ch=1 n=g4 v=0
170888 On ch=1 n=e5 v=0
170896 On ch=1 n=c6 v=0
170896 On ch=1 n=a#4 v=0
170896 On ch=1 n=c4 v=0
170902 On ch=1 n=e6 v=0
171000 On ch=1 n=g5 v=84
171004 On ch=1 n=c6 v=80
171024 On ch=1 n=e6 v=68
171078 On ch=1 n=c5 v=47
171080 On ch=1 n=g#6 v=92
171080 On ch=1 n=a#4 v=55
171094 On ch=1 n=e5 v=80
171100 Par ch=1 c=64 v=0
171240 Par ch=1 c=64 v=127
171296 On ch=1 n=c5 v=0
171298 On ch=1 n=a#4 v=0
171300 On ch=1 n=e5 v=0
171328 On ch=1 n=g5 v=0
171334 On ch=1 n=c6 v=0
171348 On ch=1 n=e6 v=0
171368 On ch=1 n=g#6 v=0
171656 On ch=1 n=a#4 v=61
171656 On ch=1 n=g4 v=57
171664 On ch=1 n=g6 v=76
171672 On ch=1 n=c6 v=76
171672 On ch=1 n=a#5 v=80
171672 On ch=1 n=e5 v=75
171672 On ch=1 n=c4 v=58
171684 On ch=1 n=e6 v=73
171736 On ch=1 n=g4 v=0
171746 On ch=1 n=c6 v=0
171762 On ch=1 n=a#4 v=0
171768 On ch=1 n=e6 v=0
171768 On ch=1 n=e5 v=0
171788 On ch=1 n=c4 v=0
171800 On ch=1 n=a#5 v=0
171980 On ch=1 n=g6 v=0
172024 On ch=1 n=c6 v=80
172036 On ch=1 n=f5 v=69
172038 On ch=1 n=f6 v=76
172048 On ch=1 n=g#5 v=88
172048 On ch=1 n=f4 v=69
172052 On ch=1 n=c5 v=58
172112 Par ch=1 c=64 v=0
172288 Par ch=1 c=64 v=127
172332 On ch=1 n=c5 v=0
172338 On ch=1 n=c6 v=0
172352 On ch=1 n=f6 v=0
172408 On ch=1 n=g#5 v=0
172436 On ch=1 n=f5 v=0
172508 On ch=1 n=f4 v=0
172804 On ch=1 n=g#5 v=76
172820 On ch=1 n=g#4 v=67
172836 Par ch=1 c=64 v=0
173192 Par ch=1 c=64 v=127
173224 On ch=1 n=e4 v=57
173240 On ch=1 n=d5 v=80
173240 On ch=1 n=e3 v=54
173248 On ch=1 n=b4 v=37
173258 On ch=1 n=g#4 v=0
173300 On ch=1 n=d5 v=0
173310 On ch=1 n=e3 v=0
173310 On ch=1 n=e4 v=0
173312 On ch=1 n=b4 v=0
173312 On ch=1 n=g#5 v=0
173352 On ch=1 n=d#3 v=67
173432 On ch=1 n=d#4 v=62
173438 On ch=1 n=d#5 v=55
173448 On ch=1 n=c5 v=62
173468 On ch=1 n=d#3 v=0
173508 On ch=1 n=c5 v=0
173534 On ch=1 n=d#5 v=0
173614 On ch=1 n=g5 v=75
173634 On ch=1 n=a#4 v=85
173644 On ch=1 n=c#5 v=39
173782 On ch=1 n=f5 v=74
173784 Par ch=1 c=64 v=0
173806 On ch=1 n=g5 v=0
173806 On ch=1 n=g#4 v=77
173820 On ch=1 n=a#4 v=0
173918 Par ch=1 c=64 v=127
173956 On ch=1 n=g#4 v=0
173962 On ch=1 n=d#5 v=75
173976 On ch=1 n=g4 v=56
173980 On ch=1 n=f5 v=0
174118 On ch=1 n=d#5 v=0
174124 On ch=1 n=c#5 v=0
174132 On ch=1 n=g4 v=0
174144 On ch=1 n=c6 v=80
174148 On ch=1 n=f4 v=75
174304 On ch=1 n=c6 v=0
174330 On ch=1 n=g4 v=64
174342 On ch=1 n=a#5 v=78
174344 On ch=1 n=d#5 v=80
174344 On ch=1 n=c#5 v=68
174348 On ch=1 n=f4 v=0
174354 On ch=1 n=d#4 v=0
174452 On ch=1 n=c#5 v=0
174456 On ch=1 n=g#3 v=58
174478 On ch=1 n=a#5 v=0
174480 On ch=1 n=d#5 v=0
174486 On ch=1 n=g4 v=0
174562 Par ch=1 c=64 v=0
174584 On ch=1 n=g#4 v=62
174590 On ch=1 n=g#5 v=76
174600 On ch=1 n=c5 v=62
174728 Par ch=1 c=64 v=127
174816 On ch=1 n=g#3 v=0
174830 On ch=1 n=c5 v=0
174974 On ch=1 n=g#4 v=0
175176 On ch=1 n=g#5 v=0
175240 On ch=1 n=f5 v=52
175242 On ch=1 n=d5 v=57
175250 On ch=1 n=c6 v=63
175278 Par ch=1 c=64 v=0
175390 Par ch=1 c=64 v=127
175658 On ch=1 n=f5 v=0
175688 On ch=1 n=f#5 v=52
175688 On ch=1 n=d#5 v=52
175774 On ch=1 n=d5 v=0
175898 On ch=1 n=f#5 v=0
175898 On ch=1 n=g5 v=53
175904 On ch=1 n=d#5 v=0
175914 On ch=1 n=e5 v=59
175916 Par ch=1 c=64 v=0
175930 On ch=1 n=g4 v=50
176100 On ch=1 n=e5 v=0
176100 On ch=1 n=b5 v=53
176100 On ch=1 n=f5 v=61
176120 On ch=1 n=d5 v=47
176138 On ch=1 n=g5 v=0
176140 On ch=1 n=c6 v=0
176260 On ch=1 n=d5 v=0
176280 On ch=1 n=c5 v=67
176290 On ch=1 n=a5 v=48
176324 On ch=1 n=b5 v=0
176486 On ch=1 n=b4 v=55
176492 On ch=1 n=g5 v=57
176494 On ch=1 n=c5 v=0
176504 On ch=1 n=a5 v=0
176676 On ch=1 n=b4 v=0
176676 On ch=1 n=e6 v=63
176676 On ch=1 n=a4 v=47
176700 On ch=1 n=g5 v=0
176820 On ch=1 n=f5 v=0
176842 Par ch=1 c=64 v=127
176880 On ch=1 n=g4 v=0
176886 On ch=1 n=d6 v=57
176886 On ch=1 n=b4 v=57
176888 On ch=1 n=g5 v=67
176888 On ch=1 n=f5 v=43
176906 On ch=1 n=a4 v=0
176916 On ch=1 n=e6 v=0
176996 On ch=1 n=f5 v=0
177102 On ch=1 n=b4 v=0
177102 On ch=1 n=d6 v=0
177128 On ch=1 n=c6 v=53
177152 On ch=1 n=e5 v=46
177158 On ch=1 n=c5 v=34
177158 On ch=1 n=g4 v=42
177174 On ch=1 n=c4 v=42
177184 Par ch=1 c=64 v=0
177318 Par ch=1 c=64 v=127
177350 On ch=1 n=e5 v=0
177366 On ch=1 n=g5 v=0
177394 On ch=1 n=c6 v=0
177408 On ch=1 n=c5 v=0
177446 On ch=1 n=g4 v=0
177608 On ch=1 n=c7 v=57
177838 On ch=1 n=c6 v=56
177896 On ch=1 n=c7 v=0
178006 On ch=1 n=c4 v=0
178280 On ch=1 n=c7 v=71
178494 On ch=1 n=c6 v=0
178506 Par ch=1 c=64 v=0
178546 On ch=1 n=c7 v=0
178546 On ch=1 n=c6 v=55
178652 Par ch=1 c=64 v=127
179028 On ch=1 n=c7 v=60
179060 On ch=1 n=c6 v=0
179288 On ch=1 n=c7 v=0
179316 On ch=1 n=c6 v=48
179824 On ch=1 n=c7 v=65
180008 On ch=1 n=c6 v=0
180152 Par ch=1 c=64 v=0
180182 On ch=1 n=c6 v=54
180182 On ch=1 n=c3 v=44
180196 On ch=1 n=c7 v=0
180280 Par ch=1 c=64 v=127
180304 On ch=1 n=c3 v=0
180692 On ch=1 n=c6 v=0
180696 On ch=1 n=a6 v=68
180720 On ch=1 n=c5 v=44
180722 On ch=1 n=a#5 v=50
180738 On ch=1 n=f5 v=46
180738 On ch=1 n=g4 v=35
180896 On ch=1 n=c5 v=0
180924 On ch=1 n=f5 v=0
180926 On ch=1 n=g4 v=0
180988 On ch=1 n=c4 v=50
181008 On ch=1 n=c6 v=51
181014 On ch=1 n=a#5 v=0
181028 Par ch=1 c=64 v=0
181122 Par ch=1 c=64 v=127
181158 On ch=1 n=c4 v=0
181266 On ch=1 n=c6 v=0
181416 On ch=1 n=a6 v=0
181472 On ch=1 n=g4 v=34
181480 On ch=1 n=e5 v=34
181480 On ch=1 n=c5 v=43
181482 On ch=1 n=g6 v=57
181490 On ch=1 n=a#5 v=36
181660 Par ch=1 c=64 v=0
181682 On ch=1 n=g4 v=0
181702 On ch=1 n=c5 v=0
181722 On ch=1 n=a#5 v=0
181740 On ch=1 n=c6 v=56
181740 On ch=1 n=f4 v=53
181794 On ch=1 n=e5 v=0
181796 Par ch=1 c=64 v=127
182038 On ch=1 n=f4 v=0
182096 On ch=1 n=c6 v=0
182180 On ch=1 n=f6 v=52
182188 On ch=1 n=c5 v=57
182194 On ch=1 n=a5 v=50
182208 On ch=1 n=f5 v=52
182214 On ch=1 n=g6 v=0
182282 On ch=1 n=f5 v=0
182340 On ch=1 n=f6 v=0
182342 On ch=1 n=g6 v=38
182354 On ch=1 n=a5 v=0
182354 Par ch=1 c=64 v=0
182364 On ch=1 n=c5 v=0
182388 On ch=1 n=d4 v=53
182404 On ch=1 n=f6 v=56
182416 On ch=1 n=a5 v=51
182462 On ch=1 n=g6 v=0
182464 Par ch=1 c=64 v=127
182524 On ch=1 n=d4 v=0
182624 On ch=1 n=f6 v=0
182626 On ch=1 n=e6 v=64
182634 On ch=1 n=g5 v=51
182636 On ch=1 n=a5 v=0
182816 On ch=1 n=e6 v=0
182824 On ch=1 n=g5 v=0
182828 On ch=1 n=d6 v=50
182828 On ch=1 n=f5 v=58
182836 On ch=1 n=c5 v=46
183050 Par ch=1 c=64 v=0
183062 On ch=1 n=f5 v=0
183062 On ch=1 n=g3 v=51
183078 On ch=1 n=g5 v=43
183176 On ch=1 n=g3 v=0
183190 Par ch=1 c=64 v=127
183378 On ch=1 n=g5 v=0
183524 On ch=1 n=a4 v=58
183534 On ch=1 n=d4 v=44
183540 On ch=1 n=e6 v=60
183550 On ch=1 n=f5 v=52
183558 On ch=1 n=d6 v=0
183578 On ch=1 n=c5 v=0
183596 On ch=1 n=a4 v=0
183614 On ch=1 n=d4 v=0
183728 Par ch=1 c=64 v=0
183766 On ch=1 n=g5 v=58
183778 On ch=1 n=g3 v=57
183786 On ch=1 n=f5 v=0
183840 Par ch=1 c=64 v=127
183850 On ch=1 n=g3 v=0
183982 On ch=1 n=g5 v=0
184214 On ch=1 n=d6 v=56
184214 On ch=1 n=b4 v=53
184220 On ch=1 n=g4 v=52
184232 On ch=1 n=f5 v=40
184236 On ch=1 n=d4 v=39
184266 On ch=1 n=e6 v=0
184278 On ch=1 n=b4 v=0
184282 On ch=1 n=g4 v=0
184304 On ch=1 n=d4 v=0
184474 Par ch=1 c=64 v=0
184488 On ch=1 n=g5 v=48
184488 On ch=1 n=c3 v=51
184526 On ch=1 n=f5 v=0
184602 Par ch=1 c=64 v=127
184662 On ch=1 n=c3 v=0
184888 On ch=1 n=g5 v=0
184924 On ch=1 n=e5 v=51
184932 On ch=1 n=c6 v=51
184932 On ch=1 n=c5 v=60
184934 On ch=1 n=g4 v=52
184984 On ch=1 n=d6 v=0
185066 On ch=1 n=g4 v=0
185066 On ch=1 n=d6 v=37
185074 On ch=1 n=e5 v=0
185082 On ch=1 n=c6 v=0
185122 On ch=1 n=c4 v=58
185124 On ch=1 n=c5 v=0
185136 On ch=1 n=c6 v=62
185142 On ch=1 n=e5 v=28
185198 On ch=1 n=d6 v=0
185296 On ch=1 n=c6 v=0
185328 On ch=1 n=e5 v=0
185336 On ch=1 n=b5 v=63
185342 On ch=1 n=f5 v=62
185344 On ch=1 n=g#4 v=56
185370 On ch=1 n=c4 v=0
185486 On ch=1 n=g#4 v=0
185548 On ch=1 n=b5 v=0
185554 On ch=1 n=c6 v=44
185564 On ch=1 n=g4 v=53
185570 On ch=1 n=e5 v=52
185582 On ch=1 n=f5 v=0
185596 Par ch=1 c=64 v=0
185746 Par ch=1 c=64 v=127
185772 On ch=1 n=c4 v=48
185774 On ch=1 n=e5 v=0
185788 On ch=1 n=g4 v=0
185792 On ch=1 n=c6 v=0
185992 On ch=1 n=c4 v=0
186208 On ch=1 n=a6 v=59
186228 On ch=1 n=d5 v=64
186244 On ch=1 n=a#5 v=35
186246 On ch=1 n=g4 v=38
186484 On ch=1 n=g4 v=0
186486 Par ch=1 c=64 v=0
186502 On ch=1 n=c4 v=35
186520 On ch=1 n=c6 v=31
186592 Par ch=1 c=64 v=127
186668 On ch=1 n=a#5 v=0
186688 On ch=1 n=a6 v=0
186722 On ch=1 n=c4 v=0
186830 On ch=1 n=d5 v=0
186936 On ch=1 n=g4 v=51
186944 On ch=1 n=g6 v=54
186954 On ch=1 n=a#5 v=33
186972 On ch=1 n=e5 v=49
187000 On ch=1 n=c6 v=0
187020 On ch=1 n=g4 v=0
187230 On ch=1 n=f4 v=44
187242 On ch=1 n=c6 v=34
187256 Par ch=1 c=64 v=0
187376 On ch=1 n=a#5 v=0
187408 Par ch=1 c=64 v=127
187500 On ch=1 n=e5 v=0
187550 On ch=1 n=g6 v=0
187638 On ch=1 n=f4 v=0
187654 On ch=1 n=a5 v=42
187664 On ch=1 n=c6 v=0
187664 On ch=1 n=c5 v=40
187674 On ch=1 n=f6 v=49
187674 On ch=1 n=f5 v=59
187814 On ch=1 n=a5 v=0
187832 On ch=1 n=g6 v=46
187834 On ch=1 n=f6 v=0
187842 On ch=1 n=c5 v=0
187866 On ch=1 n=d4 v=51
187878 On ch=1 n=f5 v=0
187882 On ch=1 n=a5 v=44
187898 On ch=1 n=f6 v=44
187954 On ch=1 n=g6 v=0
187984 On ch=1 n=d4 v=0
188062 On ch=1 n=a5 v=0
188078 On ch=1 n=f6 v=0
188090 On ch=1 n=e6 v=58
188102 On ch=1 n=g5 v=67
188288 On ch=1 n=a5 v=54
188288 On ch=1 n=f5 v=76
188290 On ch=1 n=e6 v=0
188296 On ch=1 n=d6 v=65
188302 On ch=1 n=g5 v=0
188310 On ch=1 n=f5 v=52
188480 On ch=1 n=f5 v=0
188480 On ch=1 n=a5 v=0
188532 On ch=1 n=g5 v=39
188546 On ch=1 n=g3 v=56
188550 On ch=1 n=d6 v=0
188568 On ch=1 n=f5 v=0
188568 Par ch=1 c=64 v=0
188722 Par ch=1 c=64 v=127
188870 On ch=1 n=g3 v=0
188972 On ch=1 n=a4 v=65
188992 On ch=1 n=f5 v=24
189000 On ch=1 n=g5 v=0
189000 On ch=1 n=e6 v=54
189014 Par ch=1 c=64 v=0
189148 Par ch=1 c=64 v=127
189200 On ch=1 n=g3 v=45
189242 On ch=1 n=e6 v=0
189260 On ch=1 n=g5 v=28
189362 On ch=1 n=f5 v=0
189500 On ch=1 n=a4 v=0
189556 On ch=1 n=g3 v=0
189680 On ch=1 n=g5 v=0
189704 On ch=1 n=f5 v=36
189712 On ch=1 n=d4 v=24
189720 On ch=1 n=d6 v=27
189736 On ch=1 n=b4 v=55
189872 On ch=1 n=d4 v=0
189936 On ch=1 n=c3 v=58
189968 On ch=1 n=g5 v=33
189968 Par ch=1 c=64 v=0
190082 Par ch=1 c=64 v=127
190158 On ch=1 n=c3 v=0
190252 On ch=1 n=f5 v=0
190270 On ch=1 n=d6 v=0
190276 On ch=1 n=b4 v=0
190324 On ch=1 n=g5 v=0
190390 On ch=1 n=c5 v=62
190400 On ch=1 n=g4 v=46
190410 On ch=1 n=c6 v=54
190410 On ch=1 n=e5 v=45
190552 On ch=1 n=d6 v=57
190554 On ch=1 n=g4 v=0
190560 On ch=1 n=e5 v=0
190560 On ch=1 n=c6 v=0
190602 On ch=1 n=c4 v=54
190614 On ch=1 n=c6 v=58
190636 Par ch=1 c=64 v=0
190680 On ch=1 n=d6 v=0
190696 Par ch=1 c=64 v=127
190804 On ch=1 n=c6 v=0
190808 On ch=1 n=c4 v=0
190814 On ch=1 n=b5 v=53
190824 On ch=1 n=f5 v=46
190830 On ch=1 n=g#4 v=61
190954 Par ch=1 c=64 v=0
191010 On ch=1 n=g#4 v=0
191040 On ch=1 n=e5 v=45
191046 On ch=1 n=b5 v=0
191058 On ch=1 n=c6 v=44
191058 On ch=1 n=g4 v=54
191072 On ch=1 n=f5 v=0
191276 On ch=1 n=c4 v=51
191324 On ch=1 n=g4 v=0
191342 On ch=1 n=c6 v=0
191342 Par ch=1 c=64 v=127
191496 On ch=1 n=e5 v=0
191570 On ch=1 n=c5 v=0
191686 On ch=1 n=g4 v=43
191688 On ch=1 n=c5 v=58
191692 On ch=1 n=c4 v=0
191704 On ch=1 n=c6 v=45
191712 On ch=1 n=e5 v=31
191856 On ch=1 n=d6 v=39
191864 On ch=1 n=c6 v=0
191872 On ch=1 n=e5 v=0
191880 On ch=1 n=e5 v=58
191888 On ch=1 n=g4 v=0
191910 On ch=1 n=c4 v=39
191916 On ch=1 n=c6 v=55
191962 On ch=1 n=d6 v=0
192106 On ch=1 n=c6 v=0
192120 On ch=1 n=e5 v=0
192124 On ch=1 n=b5 v=51
192130 On ch=1 n=f5 v=51
192140 On ch=1 n=g#4 v=44
192154 On ch=1 n=c4 v=0
192324 On ch=1 n=b5 v=0
192346 On ch=1 n=c6 v=29
192354 On ch=1 n=g#4 v=0
192360 On ch=1 n=e5 v=35
192368 On ch=1 n=f5 v=0
192390 On ch=1 n=g4 v=33
192420 Par ch=1 c=64 v=0
192582 Par ch=1 c=64 v=127
192610 On ch=1 n=c4 v=39
192648 On ch=1 n=c5 v=0
192658 On ch=1 n=g4 v=0
192698 On ch=1 n=c6 v=0
192752 On ch=1 n=e5 v=0
193064 On ch=1 n=c4 v=0
193080 On ch=1 n=c6 v=34
193094 On ch=1 n=e5 v=26
193116 On ch=1 n=g4 v=26
193366 On ch=1 n=c6 v=0
193370 On ch=1 n=g4 v=0
193384 On ch=1 n=c4 v=23
193390 On ch=1 n=e5 v=0
193672 On ch=1 n=c4 v=0
193840 On ch=1 n=c6 v=39
193840 On ch=1 n=e5 v=30
193840 On ch=1 n=g4 v=23
193846 On ch=1 n=c5 v=28
193908 Par ch=1 c=64 v=0
194020 Par ch=1 c=64 v=127
194074 On ch=1 n=c4 v=43
194076 On ch=1 n=g4 v=0
194112 On ch=1 n=c6 v=0
194118 On ch=1 n=c5 v=0
194124 On ch=1 n=e5 v=0
194490 On ch=1 n=c4 v=0
194560 On ch=1 n=c5 v=39
194560 On ch=1 n=g4 v=24
194564 On ch=1 n=c6 v=37
194564 On ch=1 n=e5 v=33
194852 On ch=1 n=c4 v=28
194976 On ch=1 n=g4 v=0
194976 On ch=1 n=c5 v=0
194980 On ch=1 n=e5 v=0
194980 On ch=1 n=c6 v=0
195272 On ch=1 n=c4 v=0
195280 On ch=1 n=c5 v=39
195280 On ch=1 n=g4 v=27
195288 On ch=1 n=c6 v=39
195288 On ch=1 n=e5 v=36
195360 On ch=1 n=e5 v=0
195360 On ch=1 n=c6 v=0
195360 On ch=1 n=g4 v=0
195360 On ch=1 n=c5 v=0
195432 On ch=1 n=d#5 v=37
195454 Par ch=1 c=64 v=127
195532 On ch=1 n=c6 v=59
195544 On ch=1 n=d#5 v=0
195552 On ch=1 n=c6 v=0
195628 On ch=1 n=c6 v=45
195754 On ch=1 n=c7 v=77
195758 On ch=1 n=g#3 v=51
195772 On ch=1 n=c6 v=0
195772 Par ch=1 c=64 v=0
195830 Par ch=1 c=64 v=127
195866 On ch=1 n=g#3 v=0
196162 On ch=1 n=d#4 v=61
196168 On ch=1 n=g#4 v=54
196174 On ch=1 n=d#5 v=38
196244 On ch=1 n=d#4 v=0
196246 On ch=1 n=g#4 v=0
196248 On ch=1 n=d#5 v=0
196396 On ch=1 n=g#4 v=60
196408 On ch=1 n=e4 v=58
196410 On ch=1 n=e5 v=46
196422 Par ch=1 c=64 v=0
196514 On ch=1 n=c7 v=0
196516 On ch=1 n=a#6 v=68
196598 On ch=1 n=g#6 v=70
196604 Par ch=1 c=64 v=127
196612 On ch=1 n=a#6 v=0
196660 On ch=1 n=e5 v=0
196662 On ch=1 n=e4 v=0
196666 On ch=1 n=g#4 v=0
196692 On ch=1 n=g6 v=73
196696 On ch=1 n=g#6 v=0
196800 On ch=1 n=g#6 v=59
196824 On ch=1 n=g6 v=0
196886 On ch=1 n=g#6 v=0
196892 On ch=1 n=e6 v=67
196996 Par ch=1 c=64 v=0
197008 On ch=1 n=g#2 v=65
197010 On ch=1 n=d6 v=70
197030 On ch=1 n=e6 v=0
197108 On ch=1 n=d6 v=0
197108 On ch=1 n=f6 v=64
197108 Par ch=1 c=64 v=127
197208 On ch=1 n=d#6 v=63
197218 On ch=1 n=f6 v=0
197304 On ch=1 n=c6 v=64
197328 On ch=1 n=d#6 v=0
197404 On ch=1 n=g#5 v=63
197404 On ch=1 n=d#4 v=67
197412 On ch=1 n=g#2 v=0
197428 On ch=1 n=c6 v=0
197508 On ch=1 n=g#5 v=0
197512 On ch=1 n=f5 v=50
197594 Par ch=1 c=64 v=0
197606 On ch=1 n=d#5 v=57
197612 On ch=1 n=c5 v=42
197630 On ch=1 n=f5 v=0
197636 On ch=1 n=d#4 v=0
197668 Par ch=1 c=64 v=127
197762 On ch=1 n=c5 v=0
197926 Par ch=1 c=64 v=0
197952 On ch=1 n=c#5 v=64
197958 On ch=1 n=g5 v=66
197964 On ch=1 n=a#4 v=61
197982 On ch=1 n=d#5 v=0
197984 On ch=1 n=c#5 v=0
197996 Par ch=1 c=64 v=127
198004 On ch=1 n=g5 v=0
198030 On ch=1 n=a#4 v=0
198034 On ch=1 n=c5 v=63
198086 On ch=1 n=d#5 v=55
198098 On ch=1 n=c5 v=0
198122 On ch=1 n=d#5 v=0
198126 On ch=1 n=g#5 v=70
198140 On ch=1 n=g#5 v=0
198154 On ch=1 n=c6 v=77
198198 On ch=1 n=d#6 v=70
198218 On ch=1 n=c6 v=0
198234 On ch=1 n=g#6 v=63
198242 On ch=1 n=d#6 v=0
198272 On ch=1 n=g#6 v=0
198294 On ch=1 n=c7 v=78
198372 On ch=1 n=c8 v=77
198372 On ch=1 n=g#3 v=82
198386 Par ch=1 c=64 v=0
198448 Par ch=1 c=64 v=127
198496 On ch=1 n=g#3 v=0
198684 On ch=1 n=d#4 v=41
198750 On ch=1 n=d#4 v=0
198760 On ch=1 n=c5 v=30
198770 On ch=1 n=g#5 v=90
198790 On ch=1 n=c5 v=0
198816 On ch=1 n=g#5 v=0
198924 On ch=1 n=e4 v=64
198976 On ch=1 n=c5 v=71
198992 Par ch=1 c=64 v=0
199020 On ch=1 n=g#5 v=82
199082 Par ch=1 c=64 v=127
199120 On ch=1 n=a#7 v=75
199136 On ch=1 n=c7 v=0
199144 On ch=1 n=c8 v=0
199148 On ch=1 n=g#5 v=0
199148 On ch=1 n=c5 v=0
199174 On ch=1 n=e4 v=0
199218 On ch=1 n=g#7 v=82
199232 On ch=1 n=a#7 v=0
199302 On ch=1 n=g7 v=76
199312 On ch=1 n=g#7 v=0
199396 On ch=1 n=g#7 v=83
199426 On ch=1 n=g7 v=0
199476 On ch=1 n=g#7 v=0
199484 On ch=1 n=e7 v=63
199578 Par ch=1 c=64 v=0
199584 On ch=1 n=g#3 v=68
199590 On ch=1 n=d7 v=73
199608 On ch=1 n=e7 v=0
199648 Par ch=1 c=64 v=127
199680 On ch=1 n=d7 v=0
199684 On ch=1 n=f7 v=68
199772 On ch=1 n=d#7 v=65
199780 On ch=1 n=f7 v=0
199856 On ch=1 n=c7 v=71
199868 On ch=1 n=d#7 v=0
199942 Par ch=1 c=64 v=0
199954 On ch=1 n=f4 v=78
199958 On ch=1 n=g#3 v=0
199958 On ch=1 n=g#6 v=68
199980 On ch=1 n=c7 v=0
200006 Par ch=1 c=64 v=127
200044 On ch=1 n=g#6 v=0
200050 On ch=1 n=f6 v=53
200134 On ch=1 n=d#6 v=41
200138 On ch=1 n=f6 v=0
200144 Par ch=1 c=64 v=0
200148 On ch=1 n=c5 v=59
200164 On ch=1 n=f4 v=0
200226 On ch=1 n=c6 v=53
200226 Par ch=1 c=64 v=127
200244 On ch=1 n=d#6 v=0
200322 On ch=1 n=g#5 v=54
200334 On ch=1 n=c6 v=0
200414 On ch=1 n=f5 v=54
200418 On ch=1 n=g#5 v=0
200490 On ch=1 n=c5 v=0
200510 On ch=1 n=a#3 v=70
200512 Par ch=1 c=64 v=0
200518 On ch=1 n=c5 v=76
200518 On ch=1 n=g#4 v=46
200540 On ch=1 n=f5 v=0
200554 On ch=1 n=g#4 v=0
200570 On ch=1 n=a#3 v=0
200572 Par ch=1 c=64 v=127
200616 On ch=1 n=d5 v=44
200662 On ch=1 n=c5 v=0
200756 On ch=1 n=d#5 v=65
200770 On ch=1 n=d5 v=0
200780 On ch=1 n=d#5 v=0
200800 On ch=1 n=g5 v=65
200848 On ch=1 n=d#3 v=86
200852 On ch=1 n=g6 v=80
200854 Par ch=1 c=64 v=0
200936 Par ch=1 c=64 v=127
200994 On ch=1 n=d#3 v=0
201190 On ch=1 n=a#3 v=48
201240 On ch=1 n=a#3 v=0
201266 On ch=1 n=d#5 v=85
201304 On ch=1 n=d#5 v=0
201434 On ch=1 n=b3 v=64
201494 On ch=1 n=g4 v=41
201512 Par ch=1 c=64 v=0
201522 On ch=1 n=d#5 v=59
201596 Par ch=1 c=64 v=127
201606 On ch=1 n=g6 v=0
201614 On ch=1 n=f6 v=68
201656 On ch=1 n=g4 v=0
201662 On ch=1 n=g5 v=0
201670 On ch=1 n=d#5 v=0
201704 On ch=1 n=d#6 v=72
201716 On ch=1 n=b3 v=0
201720 On ch=1 n=f6 v=0
201800 On ch=1 n=d6 v=65
201802 On ch=1 n=d#6 v=0
201890 On ch=1 n=d#6 v=72
201922 On ch=1 n=d6 v=0
201962 On ch=1 n=d#6 v=0
201984 On ch=1 n=b5 v=63
202082 On ch=1 n=d#2 v=89
202086 Par ch=1 c=64 v=0
202090 On ch=1 n=a5 v=72
202104 On ch=1 n=b5 v=0
202170 Par ch=1 c=64 v=127
202180 On ch=1 n=a5 v=0
202180 On ch=1 n=c6 v=57
202234 On ch=1 n=d#2 v=0
202256 On ch=1 n=a#5 v=67
202274 On ch=1 n=c6 v=0
202344 On ch=1 n=a#5 v=0
202344 On ch=1 n=g5 v=53
202434 On ch=1 n=d#5 v=55
202440 On ch=1 n=a#3 v=57
202462 On ch=1 n=g5 v=0
202516 On ch=1 n=d#5 v=0
202524 On ch=1 n=c5 v=53
202618 Par ch=1 c=64 v=0
202624 On ch=1 n=a#4 v=70
202632 On ch=1 n=g4 v=57
202640 On ch=1 n=c5 v=0
202674 On ch=1 n=a#3 v=0
202682 Par ch=1 c=64 v=127
202740 On ch=1 n=g4 v=0
202956 Par ch=1 c=64 v=0
202974 On ch=1 n=d5 v=71
202976 On ch=1 n=g#4 v=70
202982 On ch=1 n=f4 v=63
202994 On ch=1 n=a#4 v=0
203006 On ch=1 n=g#4 v=0
203012 On ch=1 n=d5 v=0
203024 Par ch=1 c=64 v=127
203052 On ch=1 n=f4 v=0
203056 On ch=1 n=g4 v=77
203112 On ch=1 n=a#4 v=36
203126 On ch=1 n=d#5 v=57
203136 On ch=1 n=g4 v=0
203142 On ch=1 n=a#4 v=0
203156 On ch=1 n=d#5 v=0
203166 On ch=1 n=g5 v=80
203200 On ch=1 n=a#5 v=67
203218 On ch=1 n=g5 v=0
203232 On ch=1 n=d#6 v=66
203234 On ch=1 n=a#5 v=0
203266 On ch=1 n=d#6 v=0
203290 On ch=1 n=g6 v=86
203358 On ch=1 n=d#3 v=92
203362 On ch=1 n=g7 v=68
203382 Par ch=1 c=64 v=0
203446 Par ch=1 c=64 v=127
203488 On ch=1 n=d#3 v=0
203750 On ch=1 n=d#4 v=68
203792 On ch=1 n=a#4 v=70
203794 On ch=1 n=d#4 v=0
203836 On ch=1 n=a#5 v=95
203850 On ch=1 n=a#4 v=0
203876 On ch=1 n=a#5 v=0
204008 Par ch=1 c=64 v=0
204010 On ch=1 n=d#4 v=77
204060 On ch=1 n=b4 v=78
204066 Par ch=1 c=64 v=127
204114 On ch=1 n=b5 v=73
204180 On ch=1 n=g7 v=0
204196 On ch=1 n=f7 v=76
204248 On ch=1 n=g6 v=0
204290 On ch=1 n=d#7 v=70
204316 On ch=1 n=f7 v=0
204386 On ch=1 n=d#7 v=0
204388 On ch=1 n=d7 v=73
204494 On ch=1 n=d#7 v=76
204532 On ch=1 n=d7 v=0
204578 On ch=1 n=d#7 v=0
204592 On ch=1 n=b6 v=46
204644 Par ch=1 c=64 v=0
204690 On ch=1 n=d#3 v=82
204698 On ch=1 n=a6 v=57
204712 On ch=1 n=b6 v=0
204722 Par ch=1 c=64 v=127
204730 On ch=1 n=d#4 v=0
204766 On ch=1 n=d#3 v=0
204800 On ch=1 n=b4 v=0
204804 On ch=1 n=c7 v=52
204806 On ch=1 n=a6 v=0
204834 On ch=1 n=b5 v=0
204888 On ch=1 n=a#6 v=46
204908 On ch=1 n=c7 v=0
204990 On ch=1 n=g6 v=52
205004 Par ch=1 c=64 v=0
205018 On ch=1 n=a#6 v=0
205062 Par ch=1 c=64 v=127
205072 On ch=1 n=d#4 v=67
205080 On ch=1 n=d6 v=50
205082 On ch=1 n=g6 v=0
205148 On ch=1 n=d#4 v=0
205168 On ch=1 n=d#6 v=45
205172 On ch=1 n=d6 v=0
205232 On ch=1 n=a#4 v=80
205286 On ch=1 n=d#5 v=70
205296 On ch=1 n=a#4 v=0
205322 On ch=1 n=g5 v=51
205336 On ch=1 n=d#5 v=0
205350 On ch=1 n=c#6 v=83
205364 On ch=1 n=g5 v=0
205376 On ch=1 n=e6 v=73
205382 On ch=1 n=c#6 v=0
205388 On ch=1 n=d#6 v=0
205478 On ch=1 n=g6 v=68
205506 On ch=1 n=e6 v=0
205572 On ch=1 n=f6 v=63
205588 On ch=1 n=g6 v=0
205670 On ch=1 n=c#6 v=63
205688 On ch=1 n=f6 v=0
205770 On ch=1 n=a#5 v=66
205792 On ch=1 n=c#6 v=0
205846 On ch=1 n=a#5 v=0
205866 On ch=1 n=f5 v=41
205938 Par ch=1 c=64 v=0
205974 On ch=1 n=d#5 v=72
205976 On ch=1 n=g#3 v=60
206020 Par ch=1 c=64 v=127
206024 On ch=1 n=f5 v=0
206042 On ch=1 n=g#3 v=0
206064 On ch=1 n=g#5 v=72
206074 On ch=1 n=d#5 v=0
206118 On ch=1 n=g#5 v=0
206158 On ch=1 n=c6 v=72
206160 On ch=1 n=d#5 v=64
206160 On ch=1 n=c5 v=64
206164 On ch=1 n=d#4 v=64
206174 Par ch=1 c=64 v=0
206246 On ch=1 n=d#6 v=72
206262 On ch=1 n=c6 v=0
206314 On ch=1 n=c5 v=0
206326 On ch=1 n=g6 v=72
206350 On ch=1 n=d#6 v=0
206360 On ch=1 n=d#5 v=0
206366 Par ch=1 c=64 v=127
206378 On ch=1 n=d#4 v=0
206402 On ch=1 n=g6 v=0
206408 On ch=1 n=f6 v=72
206420 Par ch=1 c=64 v=0
206486 On ch=1 n=d#6 v=72
206490 On ch=1 n=a#3 v=46
206500 On ch=1 n=f6 v=0
206556 On ch=1 n=a#3 v=0
206568 On ch=1 n=d#6 v=0
206570 On ch=1 n=c6 v=72
206656 On ch=1 n=d#4 v=64
206658 On ch=1 n=c#6 v=72
206662 On ch=1 n=d#5 v=58
206672 On ch=1 n=g4 v=43
206684 On ch=1 n=c6 v=0
206736 Par ch=1 c=64 v=127
206746 On ch=1 n=a5 v=72
206766 On ch=1 n=c#6 v=0
206806 On ch=1 n=d#5 v=0
206808 On ch=1 n=g4 v=0
206812 On ch=1 n=d#4 v=0
206826 On ch=1 n=a#5 v=72
206838 On ch=1 n=a5 v=0
206892 On ch=1 n=a#5 v=0
206918 On ch=1 n=f5 v=72
206972 Par ch=1 c=64 v=0
206996 On ch=1 n=c4 v=78
207002 On ch=1 n=d#5 v=72
207026 On ch=1 n=f5 v=0
207062 On ch=1 n=c4 v=0
207082 On ch=1 n=g#5 v=72
207094 On ch=1 n=d#5 v=0
207158 On ch=1 n=g#5 v=0
207178 On ch=1 n=d#5 v=64
207178 On ch=1 n=g#4 v=62
207178 On ch=1 n=d#4 v=62
207178 Par ch=1 c=64 v=127
207186 On ch=1 n=c6 v=72
207258 On ch=1 n=d#6 v=72
207260 On ch=1 n=d#5 v=0
207264 On ch=1 n=g#4 v=0
207278 On ch=1 n=d#4 v=0
207316 On ch=1 n=c6 v=0
207344 On ch=1 n=g6 v=72
207360 On ch=1 n=d#6 v=0
207416 On ch=1 n=g6 v=0
207426 On ch=1 n=f6 v=72
207504 On ch=1 n=d#6 v=72
207512 On ch=1 n=g3 v=75
207518 On ch=1 n=f6 v=0
207518 Par ch=1 c=64 v=0
207574 On ch=1 n=d#6 v=0
207578 On ch=1 n=g3 v=0
207586 On ch=1 n=c6 v=72
207668 On ch=1 n=c#6 v=72
207670 On ch=1 n=c6 v=0
207674 On ch=1 n=d#5 v=74
207676 On ch=1 n=d#4 v=69
207690 On ch=1 n=a#4 v=28
207696 Par ch=1 c=64 v=127
207760 On ch=1 n=a5 v=72
207774 On ch=1 n=c#6 v=0
207776 On ch=1 n=d#5 v=0
207794 On ch=1 n=a#4 v=0
207806 On ch=1 n=d#4 v=0
207840 On ch=1 n=a5 v=0
207840 On ch=1 n=a#5 v=72
207906 On ch=1 n=a#5 v=0
207916 On ch=1 n=c#5 v=72
207984 On ch=1 n=c#5 v=0
207996 On ch=1 n=c5 v=72
208004 Par ch=1 c=64 v=0
208010 On ch=1 n=g#3 v=73
208072 On ch=1 n=c#5 v=72
208080 Par ch=1 c=64 v=127
208104 On ch=1 n=c5 v=0
208152 On ch=1 n=d#5 v=72
208174 On ch=1 n=c#5 v=0
208198 On ch=1 n=g#3 v=0
208208 On ch=1 n=d#5 v=0
208230 On ch=1 n=f5 v=72
208312 On ch=1 n=f#5 v=72
208336 On ch=1 n=f5 v=0
208380 On ch=1 n=g#5 v=72
208414 On ch=1 n=f#5 v=0
208468 On ch=1 n=a#5 v=72
208472 On ch=1 n=f#5 v=80
208474 On ch=1 n=g#4 v=92
208476 On ch=1 n=f#4 v=86
208480 On ch=1 n=c5 v=80
208500 Par ch=1 c=64 v=0
208504 On ch=1 n=g#5 v=0
208520 On ch=1 n=a#5 v=0
208546 On ch=1 n=c6 v=72
208582 Par ch=1 c=64 v=127
208634 On ch=1 n=c#6 v=72
208672 On ch=1 n=c6 v=0
208712 On ch=1 n=d#6 v=72
208734 On ch=1 n=c#6 v=0
208778 On ch=1 n=d#6 v=0
208784 On ch=1 n=f#5 v=0
208796 On ch=1 n=d5 v=88
208802 On ch=1 n=f6 v=72
208884 On ch=1 n=f#6 v=72
208916 On ch=1 n=f6 v=0
208976 On ch=1 n=c7 v=72
208982 On ch=1 n=d#5 v=92
208992 On ch=1 n=f#6 v=0
208994 Par ch=1 c=64 v=0
209002 On ch=1 n=d5 v=0
209054 On ch=1 n=a#6 v=72
209056 On ch=1 n=c7 v=0
209074 Par ch=1 c=64 v=127
209138 On ch=1 n=g#6 v=72
209150 On ch=1 n=a#6 v=0
209232 On ch=1 n=a#6 v=72
209244 On ch=1 n=g#6 v=0
209312 On ch=1 n=g#6 v=72
209338 On ch=1 n=a#6 v=0
209394 On ch=1 n=f#6 v=72
209414 On ch=1 n=g#6 v=0
209458 Par ch=1 c=64 v=0
209484 On ch=1 n=d#5 v=0
209484 On ch=1 n=e5 v=68
209486 On ch=1 n=g#6 v=72
209498 On ch=1 n=f#6 v=0
209566 On ch=1 n=f#6 v=72
209604 On ch=1 n=g#6 v=0
209608 Par ch=1 c=64 v=127
209660 On ch=1 n=f6 v=72
209666 On ch=1 n=f#6 v=0
209730 On ch=1 n=g#4 v=0
209736 On ch=1 n=c5 v=0
209750 On ch=1 n=f#6 v=72
209754 On ch=1 n=f#4 v=0
209756 On ch=1 n=f6 v=0
209772 On ch=1 n=e5 v=0
209826 On ch=1 n=f6 v=72
209838 On ch=1 n=f#6 v=0
209912 On ch=1 n=e6 v=72
209916 On ch=1 n=f6 v=0
209994 On ch=1 n=c#4 v=78
209996 On ch=1 n=e6 v=0
210002 On ch=1 n=f6 v=72
210008 Par ch=1 c=64 v=0
210060 On ch=1 n=c#4 v=0
210082 On ch=1 n=f#6 v=72
210094 On ch=1 n=f6 v=0
210168 On ch=1 n=f5 v=4
210172 On ch=1 n=g#5 v=75
210174 On ch=1 n=g#4 v=74
210178 On ch=1 n=g6 v=72
210184 On ch=1 n=f#6 v=0
210186 Par ch=1 c=64 v=127
210252 On ch=1 n=g#6 v=72
210260 On ch=1 n=f5 v=0
210266 On ch=1 n=g6 v=0
210308 On ch=1 n=g#5 v=0
210310 On ch=1 n=g#4 v=0
210336 On ch=1 n=c7 v=72
210338 On ch=1 n=g#6 v=0
210404 On ch=1 n=a#6 v=72
210408 On ch=1 n=c7 v=0
210476 On ch=1 n=d#4 v=74
210484 On ch=1 n=g#6 v=72
210488 Par ch=1 c=64 v=0
210504 On ch=1 n=a#6 v=0
210542 On ch=1 n=d#4 v=0
210548 On ch=1 n=g#6 v=0
210554 On ch=1 n=f6 v=72
210640 On ch=1 n=f#6 v=72
210640 On ch=1 n=g#5 v=72
210642 On ch=1 n=f6 v=0
210646 On ch=1 n=c5 v=68
210646 On ch=1 n=g#4 v=64
210668 Par ch=1 c=64 v=127
210720 On ch=1 n=d6 v=72
210740 On ch=1 n=f#6 v=0
210746 On ch=1 n=g#5 v=0
210752 On ch=1 n=g#4 v=0
210752 On ch=1 n=c5 v=0
210794 On ch=1 n=d6 v=0
210800 On ch=1 n=d#6 v=72
210872 On ch=1 n=a#5 v=72
210888 On ch=1 n=d#6 v=0
210940 Par ch=1 c=64 v=0
210952 On ch=1 n=f4 v=68
210954 On ch=1 n=g#5 v=72
210960 On ch=1 n=a#5 v=0
211018 On ch=1 n=f4 v=0
211028 On ch=1 n=c#6 v=72
211030 On ch=1 n=g#5 v=0
211078 On ch=1 n=c#6 v=0
211106 On ch=1 n=f6 v=72
211108 On ch=1 n=g#5 v=72
211112 On ch=1 n=c#5 v=66
211112 On ch=1 n=g#4 v=70
211180 On ch=1 n=g#6 v=72
211184 Par ch=1 c=64 v=127
211198 On ch=1 n=g#5 v=0
211200 On ch=1 n=c#5 v=0
211210 On ch=1 n=f6 v=0
211216 On ch=1 n=g#4 v=0
211260 On ch=1 n=g#6 v=0
211262 On ch=1 n=c7 v=72
211328 On ch=1 n=a#6 v=72
211330 On ch=1 n=c7 v=0
211394 Par ch=1 c=64 v=0
211406 On ch=1 n=c4 v=73
211412 On ch=1 n=g#6 v=72
211432 On ch=1 n=a#6 v=0
211466 On ch=1 n=c4 v=0
211474 On ch=1 n=g#6 v=0
211478 On ch=1 n=f6 v=72
211570 On ch=1 n=f#6 v=72
211576 On ch=1 n=g#4 v=62
211578 On ch=1 n=f6 v=0
211578 On ch=1 n=g#5 v=72
211582 On ch=1 n=c5 v=60
211594 Par ch=1 c=64 v=127
211648 On ch=1 n=d6 v=72
211652 On ch=1 n=g#5 v=0
211662 On ch=1 n=f#6 v=0
211668 On ch=1 n=c5 v=0
211680 On ch=1 n=g#4 v=0
211724 On ch=1 n=d#6 v=72
211730 On ch=1 n=d6 v=0
211790 On ch=1 n=d#6 v=0
211802 On ch=1 n=f#5 v=87
211930 On ch=1 n=f#5 v=0
211954 On ch=1 n=f5 v=96
211956 On ch=1 n=c#3 v=120
211982 Par ch=1 c=64 v=0
212042 On ch=1 n=g5 v=90
212092 Par ch=1 c=64 v=127
212100 On ch=1 n=f5 v=0
212126 On ch=1 n=a5 v=85
212156 On ch=1 n=g5 v=0
212162 On ch=1 n=c#3 v=0
212190 On ch=1 n=a#5 v=84
212226 On ch=1 n=a5 v=0
212246 On ch=1 n=a#5 v=0
212264 On ch=1 n=c6 v=87
212326 On ch=1 n=c#6 v=86
212346 On ch=1 n=c6 v=0
212408 On ch=1 n=g#5 v=95
212412 On ch=1 n=d#6 v=92
212416 On ch=1 n=f5 v=87
212416 On ch=1 n=c#5 v=83
212422 Par ch=1 c=64 v=0
212440 On ch=1 n=c#6 v=0
212474 On ch=1 n=d#6 v=0
212482 Par ch=1 c=64 v=127
212484 On ch=1 n=e6 v=84
212514 On ch=1 n=f5 v=0
212558 On ch=1 n=f6 v=81
212580 On ch=1 n=e6 v=0
212636 On ch=1 n=g6 v=84
212660 On ch=1 n=f6 v=0
212684 On ch=1 n=g6 v=0
212684 On ch=1 n=c#5 v=0
212704 On ch=1 n=a4 v=87
212708 On ch=1 n=a6 v=102
212728 Par ch=1 c=64 v=0
212768 On ch=1 n=a#6 v=73
212776 On ch=1 n=a6 v=0
212780 Par ch=1 c=64 v=127
212830 Par ch=1 c=64 v=0
212844 On ch=1 n=a#6 v=0
212848 On ch=1 n=a#4 v=86
212852 On ch=1 n=c7 v=86
212856 On ch=1 n=a4 v=0
212876 Par ch=1 c=64 v=127
212912 On ch=1 n=c#7 v=69
212932 On ch=1 n=c7 v=0
212988 On ch=1 n=d#7 v=67
213012 On ch=1 n=c#7 v=0
213038 On ch=1 n=d#7 v=0
213056 On ch=1 n=e7 v=79
213124 On ch=1 n=f7 v=90
213134 On ch=1 n=e7 v=0
213188 On ch=1 n=g7 v=81
213212 On ch=1 n=f7 v=0
213264 Par ch=1 c=64 v=0
213270 On ch=1 n=a7 v=86
213276 On ch=1 n=a#4 v=0
213278 On ch=1 n=c5 v=86
213286 On ch=1 n=g7 v=0
213326 Par ch=1 c=64 v=127
213346 On ch=1 n=a#7 v=105
213348 On ch=1 n=a7 v=0
213414 On ch=1 n=a#7 v=0
213414 On ch=1 n=c8 v=86
213486 On ch=1 n=c#8 v=95
213494 On ch=1 n=g#5 v=0
213498 On ch=1 n=c5 v=0
213500 On ch=1 n=c8 v=0
213552 On ch=1 n=d#8 v=87
213566 On ch=1 n=c#8 v=0
213624 On ch=1 n=e8 v=89
213642 On ch=1 n=d#8 v=0
213692 Par ch=1 c=64 v=0
213706 On ch=1 n=f8 v=86
213708 On ch=1 n=e8 v=0
213712 On ch=1 n=c#4 v=85
213752 Par ch=1 c=64 v=127
213768 On ch=1 n=c#4 v=0
213786 On ch=1 n=e8 v=97
213790 On ch=1 n=f8 v=0
213864 On ch=1 n=d#8 v=98
213890 On ch=1 n=e8 v=0
213944 On ch=1 n=c#8 v=81
213976 On ch=1 n=d#8 v=0
214004 On ch=1 n=a#5 v=100
214004 On ch=1 n=f5 v=90
214016 On ch=1 n=c8 v=89
214018 On ch=1 n=c#8 v=0
214046 On ch=1 n=f5 v=0
214046 On ch=1 n=a#5 v=0
214096 On ch=1 n=a#7 v=76
214122 On ch=1 n=c8 v=0
214164 On ch=1 n=g#7 v=103
214170 On ch=1 n=a#5 v=102
214172 On ch=1 n=f5 v=96
214184 On ch=1 n=a#7 v=0
214208 On ch=1 n=a#5 v=0
214210 On ch=1 n=f5 v=0
214228 On ch=1 n=g7 v=83
214258 On ch=1 n=g#7 v=0
214294 On ch=1 n=g7 v=0
214304 On ch=1 n=f7 v=78
214366 On ch=1 n=c6 v=89
214374 On ch=1 n=f7 v=0
214374 On ch=1 n=a#5 v=89
214374 On ch=1 n=g#5 v=95
214380 On ch=1 n=e7 v=94
214398 On ch=1 n=c6 v=0
214404 On ch=1 n=a#5 v=0
214406 On ch=1 n=g#5 v=0
214438 On ch=1 n=g#5 v=81
214440 On ch=1 n=d#7 v=105
214444 On ch=1 n=c#6 v=105
214444 On ch=1 n=a#5 v=90
214464 On ch=1 n=a#5 v=0
214468 On ch=1 n=e7 v=0
214470 On ch=1 n=c#6 v=0
214474 On ch=1 n=g#5 v=0
214518 On ch=1 n=c#7 v=80
214546 On ch=1 n=d#7 v=0
214608 Par ch=1 c=64 v=0
214620 On ch=1 n=c#7 v=0
214620 On ch=1 n=c7 v=86
214620 On ch=1 n=c#6 v=120
214620 On ch=1 n=a#5 v=102
214620 On ch=1 n=g#5 v=84
214668 Par ch=1 c=64 v=127
214690 On ch=1 n=a#6 v=87
214718 On ch=1 n=a#5 v=0
214718 On ch=1 n=c#6 v=0
214718 On ch=1 n=c7 v=0
214720 On ch=1 n=g#5 v=0
214776 On ch=1 n=g#6 v=66
214812 On ch=1 n=a#6 v=0
214864 On ch=1 n=g6 v=79
214892 On ch=1 n=g#6 v=0
214930 On ch=1 n=f5 v=78
214930 On ch=1 n=a#4 v=71
214934 On ch=1 n=c#5 v=78
214934 On ch=1 n=g#4 v=79
214940 On ch=1 n=g6 v=0
214942 On ch=1 n=f6 v=70
214974 On ch=1 n=c#5 v=0
214976 On ch=1 n=a#4 v=0
214978 On ch=1 n=g#4 v=0
214980 On ch=1 n=f5 v=0
215016 On ch=1 n=e6 v=71
215034 On ch=1 n=f6 v=0
215082 Par ch=1 c=64 v=0
215100 On ch=1 n=f5 v=83
215100 On ch=1 n=c#5 v=78
215100 On ch=1 n=a#4 v=66
215100 On ch=1 n=g#4 v=70
215104 On ch=1 n=d#6 v=87
215120 On ch=1 n=e6 v=0
215124 On ch=1 n=c#5 v=0
215124 On ch=1 n=f5 v=0
215126 On ch=1 n=g#4 v=0
215126 On ch=1 n=a#4 v=0
215130 Par ch=1 c=64 v=127
215182 On ch=1 n=c#6 v=57
215200 On ch=1 n=d#6 v=0
215272 On ch=1 n=c6 v=81
215282 On ch=1 n=c#6 v=0
215360 On ch=1 n=d#6 v=86
215376 On ch=1 n=c6 v=0
215438 On ch=1 n=c#6 v=81
215454 On ch=1 n=d#6 v=0
215520 On ch=1 n=c#6 v=0
215524 On ch=1 n=f5 v=81
215624 Par ch=1 c=64 v=0
215630 On ch=1 n=a#5 v=80
215636 On ch=1 n=c#4 v=60
215636 On ch=1 n=c#3 v=77
215666 On ch=1 n=f5 v=0
215680 Par ch=1 c=64 v=127
215754 On ch=1 n=a#5 v=0
215762 On ch=1 n=c6 v=80
215814 On ch=1 n=c6 v=0
215824 On ch=1 n=a#5 v=80
215828 On ch=1 n=f5 v=64
215828 On ch=1 n=a#4 v=42
215864 On ch=1 n=c6 v=80
215874 On ch=1 n=c#3 v=0
215874 On ch=1 n=c#4 v=0
215878 On ch=1 n=a#5 v=0
215888 On ch=1 n=a#5 v=80
215910 On ch=1 n=c6 v=0
215912 On ch=1 n=a#4 v=0
215912 On ch=1 n=f5 v=0
215936 On ch=1 n=a#5 v=0
215952 On ch=1 n=a5 v=80
215952 On ch=1 n=f4 v=67
216000 On ch=1 n=a5 v=0
216016 On ch=1 n=a#5 v=80
216036 On ch=1 n=f4 v=0
216064 On ch=1 n=a#5 v=0
216088 On ch=1 n=c4 v=73
216090 On ch=1 n=c6 v=80
216114 Par ch=1 c=64 v=0
216178 Par ch=1 c=64 v=127
216192 On ch=1 n=c#6 v=80
216230 On ch=1 n=c6 v=0
216240 On ch=1 n=a4 v=31
216248 On ch=1 n=c6 v=80
216248 On ch=1 n=d#5 v=37
216252 On ch=1 n=c#6 v=0
216304 On ch=1 n=c#6 v=80
216308 On ch=1 n=c6 v=0
216326 On ch=1 n=c4 v=0
216332 On ch=1 n=c6 v=80
216348 On ch=1 n=c#6 v=0
216362 On ch=1 n=d#5 v=0
216368 On ch=1 n=a4 v=0
216408 On ch=1 n=c6 v=0
216428 On ch=1 n=a#5 v=80
216428 On ch=1 n=f4 v=31
216486 On ch=1 n=a#5 v=0
216520 On ch=1 n=c6 v=80
216546 On ch=1 n=f4 v=0
216578 On ch=1 n=c6 v=0
216584 On ch=1 n=a#3 v=59
216592 On ch=1 n=c#6 v=80
216600 Par ch=1 c=64 v=0
216662 Par ch=1 c=64 v=127
216672 On ch=1 n=d#6 v=80
216688 On ch=1 n=c#6 v=0
216712 On ch=1 n=c#6 v=80
216716 On ch=1 n=c#5 v=53
216716 On ch=1 n=a#4 v=57
216732 On ch=1 n=d#6 v=0
216768 On ch=1 n=d#6 v=80
216806 On ch=1 n=c#6 v=0
216816 On ch=1 n=c#6 v=80
216822 On ch=1 n=a#3 v=0
216828 On ch=1 n=d#6 v=0
216868 On ch=1 n=a#4 v=0
216868 On ch=1 n=c#5 v=0
216876 On ch=1 n=c#6 v=0
216884 On ch=1 n=f4 v=57
216888 On ch=1 n=c6 v=80
216964 On ch=1 n=c6 v=0
216996 On ch=1 n=c#6 v=80
217002 On ch=1 n=f4 v=0
217050 On ch=1 n=c#6 v=0
217052 On ch=1 n=e6 v=80
217052 On ch=1 n=c#4 v=55
217058 Par ch=1 c=64 v=0
217096 On ch=1 n=f6 v=80
217106 On ch=1 n=e6 v=0
217112 Par ch=1 c=64 v=127
217148 On ch=1 n=e6 v=80
217156 On ch=1 n=f6 v=0
217188 On ch=1 n=f6 v=80
217196 On ch=1 n=a#4 v=57
217200 On ch=1 n=f5 v=48
217204 On ch=1 n=e6 v=0
217224 On ch=1 n=e6 v=80
217240 On ch=1 n=f6 v=0
217290 On ch=1 n=c#4 v=0
217292 On ch=1 n=d#6 v=80
217298 On ch=1 n=e6 v=0
217356 On ch=1 n=d#6 v=0
217356 On ch=1 n=e6 v=80
217384 On ch=1 n=a#4 v=0
217388 On ch=1 n=f5 v=0
217452 On ch=1 n=g#4 v=31
217456 On ch=1 n=g6 v=80
217458 On ch=1 n=e6 v=0
217526 On ch=1 n=g6 v=0
217544 On ch=1 n=f6 v=80
217552 On ch=1 n=g#4 v=0
217626 On ch=1 n=f6 v=0
217646 On ch=1 n=d#6 v=71
217648 On ch=1 n=d#3 v=67
217670 Par ch=1 c=64 v=0
217714 On ch=1 n=d#5 v=86
217766 Par ch=1 c=64 v=127
217800 On ch=1 n=a#3 v=72
217872 On ch=1 n=d#4 v=67
217886 On ch=1 n=d#3 v=0
217888 On ch=1 n=a#3 v=0
217948 On ch=1 n=d#4 v=0
217956 On ch=1 n=d#5 v=0
217956 On ch=1 n=g4 v=80
218022 On ch=1 n=d#4 v=62
218034 On ch=1 n=g4 v=0
218084 On ch=1 n=d#4 v=0
218088 On ch=1 n=a#3 v=57
218144 On ch=1 n=f3 v=81
218162 On ch=1 n=g#6 v=86
218162 On ch=1 n=c#6 v=83
218162 On ch=1 n=g#5 v=81
218162 Par ch=1 c=64 v=0
218176 On ch=1 n=a#3 v=0
218176 On ch=1 n=d#6 v=0
218236 Par ch=1 c=64 v=127
218242 On ch=1 n=g#3 v=70
218262 On ch=1 n=g#6 v=0
218294 On ch=1 n=g#5 v=0
218322 On ch=1 n=g#3 v=0
218328 On ch=1 n=g5 v=53
218328 On ch=1 n=c#4 v=72
218330 On ch=1 n=g6 v=78
218378 On ch=1 n=c#4 v=0
218380 On ch=1 n=g#4 v=85
218382 On ch=1 n=f3 v=0
218390 On ch=1 n=g5 v=0
218406 On ch=1 n=g6 v=0
218464 On ch=1 n=g#4 v=0
218474 On ch=1 n=f5 v=86
218478 On ch=1 n=f6 v=86
218480 On ch=1 n=c#4 v=59
218536 On ch=1 n=g#3 v=70
218552 On ch=1 n=c#4 v=0
218600 On ch=1 n=g#3 v=0
218612 On ch=1 n=f5 v=0
218616 On ch=1 n=f6 v=0
218636 On ch=1 n=d#6 v=89
218636 On ch=1 n=d#5 v=97
218640 On ch=1 n=g3 v=52
218654 Par ch=1 c=64 v=0
218716 On ch=1 n=c#4 v=57
218718 Par ch=1 c=64 v=127
218792 On ch=1 n=d#4 v=40
218810 On ch=1 n=c#4 v=0
218860 On ch=1 n=d#4 v=0
218868 On ch=1 n=a#4 v=84
218878 On ch=1 n=g3 v=0
218890 On ch=1 n=d#5 v=0
218920 On ch=1 n=d#4 v=73
218928 On ch=1 n=a#4 v=0
218982 On ch=1 n=c#6 v=0
218982 On ch=1 n=c#4 v=78
218986 On ch=1 n=d#4 v=0
219034 On ch=1 n=c#4 v=0
219052 Par ch=1 c=64 v=0
219064 On ch=1 n=f3 v=66
219068 On ch=1 n=g#6 v=86
219070 On ch=1 n=c#6 v=92
219070 On ch=1 n=g#5 v=78
219098 On ch=1 n=d#6 v=0
219112 Par ch=1 c=64 v=127
219150 On ch=1 n=g#3 v=37
219180 On ch=1 n=g#6 v=0
219188 On ch=1 n=g#5 v=0
219224 On ch=1 n=g6 v=86
219224 On ch=1 n=g5 v=70
219232 On ch=1 n=c#4 v=72
219234 On ch=1 n=g#3 v=0
219282 On ch=1 n=g5 v=0
219284 On ch=1 n=g#4 v=36
219290 On ch=1 n=g6 v=0
219302 On ch=1 n=f3 v=0
219318 On ch=1 n=c#4 v=0
219348 On ch=1 n=g#4 v=0
219360 On ch=1 n=c#4 v=81
219362 On ch=1 n=f6 v=86
219366 On ch=1 n=f5 v=89
219400 On ch=1 n=g#3 v=53
219422 On ch=1 n=f6 v=0
219426 On ch=1 n=f5 v=0
219436 On ch=1 n=c#4 v=0
219458 On ch=1 n=g#3 v=0
219490 Par ch=1 c=64 v=0
219504 On ch=1 n=d#6 v=83
219504 On ch=1 n=d#5 v=96
219506 On ch=1 n=g3 v=56
219554 Par ch=1 c=64 v=127
219578 On ch=1 n=c#4 v=45
219624 On ch=1 n=d#5 v=0
219644 On ch=1 n=d#4 v=75
219656 On ch=1 n=c#4 v=0
219724 On ch=1 n=d#4 v=0
219724 On ch=1 n=a#4 v=84
219738 On ch=1 n=c#6 v=0
219744 On ch=1 n=g3 v=0
219772 On ch=1 n=d#6 v=0
219804 On ch=1 n=f6 v=90
219804 On ch=1 n=f5 v=92
219804 On ch=1 n=d#4 v=93
219808 On ch=1 n=c#6 v=83
219812 On ch=1 n=a#4 v=0
219870 On ch=1 n=c#4 v=74
219888 On ch=1 n=d#4 v=0
219916 Par ch=1 c=64 v=0
219936 On ch=1 n=a3 v=94
219938 On ch=1 n=c#4 v=0
219982 Par ch=1 c=64 v=127
220022 On ch=1 n=d#4 v=65
220050 On ch=1 n=c#6 v=0
220082 On ch=1 n=f4 v=70
220100 On ch=1 n=d#4 v=0
220110 On ch=1 n=f6 v=0
220154 On ch=1 n=c5 v=69
220158 On ch=1 n=f4 v=0
220174 On ch=1 n=a3 v=0
220218 On ch=1 n=d#6 v=89
220222 On ch=1 n=c6 v=86
220224 On ch=1 n=f4 v=81
220254 On ch=1 n=c5 v=0
220260 On ch=1 n=c6 v=0
220266 On ch=1 n=d#6 v=0
220290 On ch=1 n=d#4 v=69
220292 On ch=1 n=f4 v=0
220312 On ch=1 n=f5 v=0
220336 On ch=1 n=d#6 v=54
220354 On ch=1 n=d#4 v=0
220360 On ch=1 n=g#5 v=80
220360 On ch=1 n=f5 v=66
220374 On ch=1 n=c#6 v=86
220376 On ch=1 n=a#3 v=98
220380 Par ch=1 c=64 v=0
220398 On ch=1 n=d#6 v=0
220446 Par ch=1 c=64 v=127
220474 On ch=1 n=f4 v=66
220514 On ch=1 n=c6 v=87
220522 On ch=1 n=c#6 v=0
220542 On ch=1 n=g#4 v=64
220546 On ch=1 n=f4 v=0
220600 On ch=1 n=g#4 v=0
220602 On ch=1 n=c#5 v=94
220614 On ch=1 n=a#3 v=0
220662 On ch=1 n=g#4 v=92
220666 On ch=1 n=a#5 v=87
220670 On ch=1 n=c6 v=0
220674 On ch=1 n=c#5 v=0
220716 On ch=1 n=a#5 v=0
220732 On ch=1 n=g#4 v=0
220738 On ch=1 n=f4 v=62
220796 On ch=1 n=f4 v=0
220816 On ch=1 n=f5 v=0
220816 On ch=1 n=g#5 v=0
220820 On ch=1 n=c6 v=94
220820 On ch=1 n=d#3 v=97
220826 On ch=1 n=g5 v=90
220826 On ch=1 n=c#5 v=98
220838 Par ch=1 c=64 v=0
220892 Par ch=1 c=64 v=127
220898 On ch=1 n=a#3 v=62
220946 On ch=1 n=c6 v=0
220962 On ch=1 n=d#4 v=86
220978 On ch=1 n=a#3 v=0
221028 On ch=1 n=d#4 v=0
221034 On ch=1 n=g4 v=86
221040 On ch=1 n=c#5 v=0
221058 On ch=1 n=d#3 v=0
221090 On ch=1 n=g5 v=0
221098 On ch=1 n=c#5 v=55
221104 On ch=1 n=d#4 v=99
221106 On ch=1 n=g4 v=0
221110 On ch=1 n=c#6 v=85
221152 On ch=1 n=a#3 v=42
221156 On ch=1 n=c#5 v=0
221166 On ch=1 n=d#4 v=0
221174 On ch=1 n=c#6 v=0
221230 On ch=1 n=a#3 v=0
221240 Par ch=1 c=64 v=0
221256 On ch=1 n=g#5 v=93
221256 On ch=1 n=c#5 v=96
221258 On ch=1 n=c#6 v=97
221264 On ch=1 n=f3 v=72
221296 Par ch=1 c=64 v=127
221316 On ch=1 n=g#5 v=0
221324 On ch=1 n=g#3 v=70
221328 On ch=1 n=c#5 v=0
221330 On ch=1 n=c#6 v=0
221376 On ch=1 n=c#4 v=72
221408 On ch=1 n=g#3 v=0
221440 On ch=1 n=c#4 v=0
221444 On ch=1 n=f4 v=82
221502 On ch=1 n=f3 v=0
221508 On ch=1 n=f4 v=0
221520 On ch=1 n=g#4 v=82
221528 On ch=1 n=g#7 v=96
221528 On ch=1 n=g#6 v=105
221596 On ch=1 n=c#5 v=48
221606 On ch=1 n=g#4 v=0
221658 On ch=1 n=c#5 v=0
221672 On ch=1 n=g#5 v=106
221674 On ch=1 n=c#7 v=94
221702 On ch=1 n=g#7 v=0
221748 On ch=1 n=c#5 v=57
221778 On ch=1 n=g#6 v=0
221816 On ch=1 n=c#5 v=0
221828 On ch=1 n=g7 v=93
221828 On ch=1 n=g#4 v=46
221830 On ch=1 n=g6 v=81
221878 On ch=1 n=g6 v=0
221886 On ch=1 n=c#7 v=0
221892 On ch=1 n=g#4 v=0
221898 On ch=1 n=g7 v=0
221906 On ch=1 n=f4 v=71
221910 On ch=1 n=g#5 v=0
221960 On ch=1 n=c#4 v=78
221962 On ch=1 n=f6 v=84
221968 On ch=1 n=f7 v=94
221972 On ch=1 n=f4 v=0
222004 On ch=1 n=f6 v=0
222018 On ch=1 n=f7 v=0
222018 On ch=1 n=g#3 v=63
222024 On ch=1 n=c#4 v=0
222092 On ch=1 n=g#3 v=0
222096 On ch=1 n=g3 v=104
222096 Par ch=1 c=64 v=0
222106 On ch=1 n=d#7 v=92
222106 On ch=1 n=d#6 v=100
222148 Par ch=1 c=64 v=127
222164 On ch=1 n=c#4 v=56
222172 On ch=1 n=d#7 v=0
222182 On ch=1 n=d#6 v=0
222232 On ch=1 n=d#4 v=57
222238 On ch=1 n=c6 v=89
222244 On ch=1 n=c#4 v=0
222244 On ch=1 n=c7 v=95
222296 On ch=1 n=c6 v=0
222300 On ch=1 n=c7 v=0
222300 On ch=1 n=d#4 v=0
222302 On ch=1 n=c#5 v=92
222334 On ch=1 n=g3 v=0
222364 On ch=1 n=d#4 v=87
222370 On ch=1 n=c#5 v=0
222372 On ch=1 n=a#6 v=96
222376 On ch=1 n=a#5 v=101
222420 On ch=1 n=c#4 v=53
222426 On ch=1 n=d#4 v=0
222442 On ch=1 n=a#5 v=0
222446 On ch=1 n=a#6 v=0
222482 On ch=1 n=c#4 v=0
222504 On ch=1 n=g#6 v=87
222504 On ch=1 n=c#6 v=96
222504 On ch=1 n=g#5 v=102
222512 On ch=1 n=f3 v=78
222514 Par ch=1 c=64 v=0
222558 On ch=1 n=c#4 v=72
222566 Par ch=1 c=64 v=127
222576 On ch=1 n=g#6 v=0
222602 On ch=1 n=g#5 v=0
222624 On ch=1 n=g#4 v=71
222630 On ch=1 n=c#4 v=0
222634 On ch=1 n=g6 v=89
222640 On ch=1 n=g5 v=66
222672 On ch=1 n=g#4 v=0
222682 On ch=1 n=c#5 v=90
222700 On ch=1 n=g6 v=0
222706 On ch=1 n=g5 v=0
222750 On ch=1 n=f3 v=0
222750 On ch=1 n=g#4 v=90
222764 On ch=1 n=c#5 v=0
222768 On ch=1 n=f5 v=96
222770 On ch=1 n=f6 v=89
222806 On ch=1 n=c#4 v=22
222814 On ch=1 n=g#4 v=0
222868 On ch=1 n=c#4 v=0
222894 Par ch=1 c=64 v=0
222902 On ch=1 n=f5 v=0
222904 On ch=1 n=f6 v=0
222904 On ch=1 n=g3 v=84
222910 On ch=1 n=d#6 v=87
222914 On ch=1 n=d#5 v=96
222972 Par ch=1 c=64 v=127
222994 On ch=1 n=d#4 v=45
223004 On ch=1 n=c#6 v=0
223028 On ch=1 n=d#6 v=0
223032 On ch=1 n=d#5 v=0
223032 On ch=1 n=f6 v=92
223040 On ch=1 n=c#6 v=87
223040 On ch=1 n=f5 v=87
223046 On ch=1 n=a#4 v=78
223054 On ch=1 n=d#4 v=0
223108 On ch=1 n=a#4 v=0
223114 On ch=1 n=c#5 v=90
223142 On ch=1 n=g3 v=0
223176 On ch=1 n=c#5 v=0
223198 On ch=1 n=a#4 v=69
223266 On ch=1 n=d#4 v=64
223280 On ch=1 n=a#4 v=0
223316 Par ch=1 c=64 v=0
223328 On ch=1 n=d#4 v=0
223336 On ch=1 n=a3 v=86
223384 Par ch=1 c=64 v=127
223416 On ch=1 n=d#4 v=70
223472 On ch=1 n=f4 v=72
223496 On ch=1 n=d#4 v=0
223536 On ch=1 n=f4 v=0
223548 On ch=1 n=c5 v=65
223574 On ch=1 n=a3 v=0
223600 On ch=1 n=d#6 v=92
223600 On ch=1 n=c6 v=87
223608 On ch=1 n=f4 v=84
223612 On ch=1 n=f6 v=0
223620 On ch=1 n=c#6 v=0
223636 On ch=1 n=c5 v=0
223638 On ch=1 n=d#6 v=0
223664 On ch=1 n=d#4 v=37
223668 On ch=1 n=f4 v=0
223670 On ch=1 n=c6 v=0
223672 On ch=1 n=d#6 v=83
223682 On ch=1 n=f5 v=0
223712 On ch=1 n=g#5 v=79
223712 On ch=1 n=f5 v=87
223714 On ch=1 n=c#6 v=94
223722 On ch=1 n=d#4 v=0
223724 On ch=1 n=d#6 v=0
223724 Par ch=1 c=64 v=0
223728 On ch=1 n=a#3 v=83
223794 Par ch=1 c=64 v=127
223818 On ch=1 n=f4 v=48
223890 On ch=1 n=c6 v=94
223894 On ch=1 n=g#4 v=66
223898 On ch=1 n=f4 v=0
223902 On ch=1 n=c#6 v=0
223952 On ch=1 n=g#4 v=0
223958 On ch=1 n=c#5 v=95
223966 On ch=1 n=a#3 v=0
224032 On ch=1 n=g#4 v=81
224036 On ch=1 n=a#5 v=88
224040 On ch=1 n=c#5 v=0
224040 On ch=1 n=c6 v=0
224094 On ch=1 n=g#4 v=0
224120 On ch=1 n=f4 v=72
224176 On ch=1 n=f5 v=0
224176 On ch=1 n=g#5 v=0
224180 On ch=1 n=f4 v=0
224184 On ch=1 n=g5 v=82
224186 On ch=1 n=a#5 v=0
224192 On ch=1 n=c6 v=92
224192 On ch=1 n=c#5 v=82
224192 On ch=1 n=d#3 v=48
224206 Par ch=1 c=64 v=0
224262 Par ch=1 c=64 v=127
224270 On ch=1 n=a#3 v=75
224284 On ch=1 n=g5 v=0
224336 On ch=1 n=d#4 v=83
224354 On ch=1 n=a#3 v=0
224404 On ch=1 n=d#4 v=0
224406 On ch=1 n=c#5 v=0
224424 On ch=1 n=g4 v=45
224430 On ch=1 n=d#3 v=0
224494 On ch=1 n=d#4 v=84
224498 On ch=1 n=d#5 v=93
224500 On ch=1 n=c#5 v=87
224504 On ch=1 n=g4 v=0
224514 On ch=1 n=c6 v=0
224594 On ch=1 n=a#3 v=54
224672 On ch=1 n=d#5 v=0
224674 On ch=1 n=c#5 v=0
224704 On ch=1 n=g#3 v=86
224710 On ch=1 n=g#5 v=78
224710 Par ch=1 c=64 v=0
224718 On ch=1 n=a#3 v=0
224718 On ch=1 n=c5 v=71
224808 Par ch=1 c=64 v=127
224818 On ch=1 n=c5 v=0
224834 On ch=1 n=d#4 v=0
224846 On ch=1 n=g#5 v=0
224848 On ch=1 n=g#3 v=0
225120 On ch=1 n=g#6 v=88
225316 Par ch=1 c=64 v=0
225324 On ch=1 n=g#5 v=78
225332 On ch=1 n=g#6 v=0
225428 Par ch=1 c=64 v=127
225660 On ch=1 n=g#6 v=80
225690 On ch=1 n=g#5 v=0
225766 Par ch=1 c=64 v=0
225830 On ch=1 n=g#5 v=66
225858 On ch=1 n=g#6 v=0
225918 Par ch=1 c=64 v=127
226170 On ch=1 n=g#6 v=47
226196 On ch=1 n=g#5 v=0
226334 Par ch=1 c=64 v=0
226348 On ch=1 n=g#5 v=39
226354 On ch=1 n=g#6 v=0
226436 Par ch=1 c=64 v=127
226690 On ch=1 n=g#6 v=57
226730 On ch=1 n=g#5 v=0
226880 On ch=1 n=g#2 v=66
226882 On ch=1 n=g#5 v=64
226894 Par ch=1 c=64 v=0
226902 On ch=1 n=g#6 v=0
226960 Par ch=1 c=64 v=127
226978 On ch=1 n=g#2 v=0
227004 On ch=1 n=g#5 v=0
227262 On ch=1 n=d#4 v=41
227266 On ch=1 n=f6 v=73
227266 On ch=1 n=f#5 v=47
227270 On ch=1 n=c#5 v=31
227270 On ch=1 n=g#4 v=37
227278 Par ch=1 c=64 v=0
227318 Par ch=1 c=64 v=127
227342 On ch=1 n=c#5 v=0
227348 On ch=1 n=g#4 v=0
227350 On ch=1 n=d#4 v=0
227488 On ch=1 n=g#5 v=37
227494 On ch=1 n=g#3 v=68
227500 Par ch=1 c=64 v=0
227506 On ch=1 n=f#5 v=0
227558 On ch=1 n=g#3 v=0
227558 Par ch=1 c=64 v=127
227826 On ch=1 n=f6 v=0
227870 On ch=1 n=g#4 v=31
227870 On ch=1 n=d#4 v=31
227874 On ch=1 n=d#6 v=64
227878 On ch=1 n=c5 v=31
227880 On ch=1 n=f#5 v=39
227886 Par ch=1 c=64 v=0
227894 On ch=1 n=g#5 v=0
227942 Par ch=1 c=64 v=127
227984 On ch=1 n=d#4 v=0
228052 On ch=1 n=c#4 v=31
228066 Par ch=1 c=64 v=0
228076 On ch=1 n=g#5 v=53
228094 On ch=1 n=g#4 v=0
228098 On ch=1 n=f#5 v=0
228112 On ch=1 n=c5 v=0
228136 Par ch=1 c=64 v=127
228282 On ch=1 n=c#4 v=0
228404 On ch=1 n=d#6 v=0
228406 On ch=1 n=c#6 v=67
228412 On ch=1 n=c#5 v=55
228416 On ch=1 n=f5 v=56
228418 On ch=1 n=g#5 v=0
228420 On ch=1 n=g#4 v=40
228470 On ch=1 n=c#5 v=0
228532 On ch=1 n=f5 v=0
228534 On ch=1 n=c#6 v=0
228560 On ch=1 n=g#4 v=0
228560 On ch=1 n=d#6 v=60
228578 Par ch=1 c=64 v=0
228586 On ch=1 n=f5 v=66
228586 On ch=1 n=a#3 v=66
228590 On ch=1 n=c#6 v=68
228608 On ch=1 n=d#6 v=0
228634 Par ch=1 c=64 v=127
228650 On ch=1 n=f5 v=0
228690 On ch=1 n=a#3 v=0
228740 On ch=1 n=c#6 v=0
228746 On ch=1 n=d#5 v=70
228748 On ch=1 n=c6 v=73
228804 On ch=1 n=c6 v=0
228804 On ch=1 n=d#5 v=0
228918 On ch=1 n=f5 v=37
228920 On ch=1 n=c#5 v=52
228926 On ch=1 n=a#5 v=72
228930 On ch=1 n=g#4 v=38
228962 On ch=1 n=f5 v=0
228986 On ch=1 n=g#4 v=0
229110 On ch=1 n=d#5 v=50
229120 On ch=1 n=d#3 v=53
229132 Par ch=1 c=64 v=0
229142 On ch=1 n=c#5 v=0
229206 On ch=1 n=a#5 v=0
229206 Par ch=1 c=64 v=127
229280 On ch=1 n=d#3 v=0
229462 On ch=1 n=c#5 v=57
229466 On ch=1 n=c6 v=71
229466 On ch=1 n=a#3 v=31
229476 On ch=1 n=d#5 v=0
229476 On ch=1 n=f4 v=31
229484 On ch=1 n=g#4 v=24
229512 On ch=1 n=g#4 v=0
229516 On ch=1 n=f4 v=0
229530 On ch=1 n=a#3 v=0
229656 Par ch=1 c=64 v=0
229662 On ch=1 n=d#5 v=49
229668 On ch=1 n=d#3 v=68
229694 On ch=1 n=c#5 v=0
229718 Par ch=1 c=64 v=127
229766 On ch=1 n=d#3 v=0
229986 On ch=1 n=c6 v=0
230020 On ch=1 n=a#3 v=42
230022 On ch=1 n=a#5 v=66
230028 On ch=1 n=c#5 v=50
230032 On ch=1 n=g4 v=36
230032 On ch=1 n=d#4 v=31
230042 On ch=1 n=d#5 v=0
230090 On ch=1 n=a#3 v=0
230096 On ch=1 n=g4 v=0
230108 On ch=1 n=d#4 v=0
230216 On ch=1 n=d#5 v=55
230222 On ch=1 n=g#2 v=68
230230 Par ch=1 c=64 v=0
230252 On ch=1 n=c#5 v=0
230306 Par ch=1 c=64 v=127
230542 On ch=1 n=a#5 v=0
230562 On ch=1 n=g#2 v=0
230570 On ch=1 n=g#5 v=68
230570 On ch=1 n=g#4 v=43
230576 On ch=1 n=c5 v=56
230582 On ch=1 n=d#4 v=34
230588 On ch=1 n=d#5 v=0
230696 On ch=1 n=g#5 v=0
230696 On ch=1 n=a#5 v=62
230710 On ch=1 n=c5 v=0
230732 On ch=1 n=c5 v=43
230740 On ch=1 n=g#5 v=74
230744 On ch=1 n=g#3 v=59
230750 On ch=1 n=d#4 v=0
230752 On ch=1 n=a#5 v=0
230758 Par ch=1 c=64 v=0
230820 Par ch=1 c=64 v=127
230896 On ch=1 n=g#5 v=0
230908 On ch=1 n=c#5 v=73
230914 On ch=1 n=g5 v=64
230916 On ch=1 n=g#3 v=0
230920 On ch=1 n=e4 v=55
230928 Par ch=1 c=64 v=0
230936 On ch=1 n=c5 v=0
230976 Par ch=1 c=64 v=127
231088 On ch=1 n=g#5 v=64
231098 On ch=1 n=c5 v=38
231100 On ch=1 n=e4 v=0
231106 On ch=1 n=g5 v=0
231106 Par ch=1 c=64 v=0
231110 On ch=1 n=d#4 v=46
231112 On ch=1 n=c#5 v=0
231166 Par ch=1 c=64 v=127
231282 Par ch=1 c=64 v=0
231306 On ch=1 n=d#4 v=0
231306 On ch=1 n=g#3 v=53
231340 Par ch=1 c=64 v=127
231346 On ch=1 n=c5 v=0
231356 On ch=1 n=g#4 v=0
231360 On ch=1 n=g#5 v=0
231394 On ch=1 n=g#3 v=0
231642 On ch=1 n=a#4 v=79
231650 On ch=1 n=f#5 v=44
231658 On ch=1 n=d#4 v=42
231666 On ch=1 n=f6 v=56
231676 Par ch=1 c=64 v=0
231692 On ch=1 n=d#4 v=0
231714 Par ch=1 c=64 v=127
231860 On ch=1 n=g#5 v=28
231866 On ch=1 n=g#3 v=38
231894 On ch=1 n=f6 v=0
231898 Par ch=1 c=64 v=0
231962 Par ch=1 c=64 v=127
231994 On ch=1 n=f#5 v=0
232054 On ch=1 n=g#3 v=0
232100 On ch=1 n=a#4 v=0
232254 On ch=1 n=c5 v=70
232262 On ch=1 n=d#4 v=47
232264 On ch=1 n=g#5 v=0
232270 On ch=1 n=f#5 v=32
232276 On ch=1 n=d#6 v=51
232282 Par ch=1 c=64 v=0
232306 On ch=1 n=d#4 v=0
232340 Par ch=1 c=64 v=127
232480 On ch=1 n=d#6 v=0
232486 On ch=1 n=c#4 v=51
232492 On ch=1 n=g#5 v=22
232502 Par ch=1 c=64 v=0
232572 Par ch=1 c=64 v=127
232680 On ch=1 n=f#5 v=0
232724 On ch=1 n=g#5 v=0
232732 On ch=1 n=c5 v=0
232850 On ch=1 n=c#5 v=58
232850 On ch=1 n=g#4 v=73
232852 Par ch=1 c=64 v=0
232858 On ch=1 n=c#4 v=0
232858 On ch=1 n=c#6 v=68
232862 On ch=1 n=f5 v=42
232900 Par ch=1 c=64 v=127
232940 On ch=1 n=c#6 v=0
232944 On ch=1 n=f5 v=0
232990 On ch=1 n=d#6 v=68
233020 On ch=1 n=c#5 v=0
233028 Par ch=1 c=64 v=0
233032 On ch=1 n=f5 v=38
233036 On ch=1 n=c#6 v=76
233036 On ch=1 n=a#3 v=59
233042 On ch=1 n=d#6 v=0
233058 On ch=1 n=g#4 v=0
233078 Par ch=1 c=64 v=127
233096 On ch=1 n=f5 v=0
233152 On ch=1 n=c#6 v=0
233158 On ch=1 n=a#3 v=0
233172 On ch=1 n=d#5 v=68
233190 On ch=1 n=c6 v=55
233214 On ch=1 n=c6 v=0
233254 On ch=1 n=d#5 v=0
233336 Par ch=1 c=64 v=0
233346 On ch=1 n=f5 v=68
233350 On ch=1 n=c#5 v=52
233356 On ch=1 n=a#5 v=50
233368 On ch=1 n=g#4 v=39
233394 On ch=1 n=g#4 v=0
233394 Par ch=1 c=64 v=127
233420 On ch=1 n=f5 v=0
233530 On ch=1 n=a#5 v=0
233548 On ch=1 n=d#5 v=48
233550 On ch=1 n=d#3 v=51
233564 Par ch=1 c=64 v=0
233580 On ch=1 n=c#5 v=0
233622 Par ch=1 c=64 v=127
233668 On ch=1 n=d#3 v=0
233776 On ch=1 n=d#5 v=0
233884 On ch=1 n=f4 v=70
233890 On ch=1 n=a#3 v=35
233896 On ch=1 n=c#5 v=54
233902 On ch=1 n=c6 v=65
233904 Par ch=1 c=64 v=0
233938 On ch=1 n=a#3 v=0
233954 Par ch=1 c=64 v=127
234026 On ch=1 n=c6 v=0
234086 On ch=1 n=d#3 v=56
234096 On ch=1 n=d#5 v=24
234130 Par ch=1 c=64 v=0
234134 On ch=1 n=c#5 v=0
234186 Par ch=1 c=64 v=127
234314 On ch=1 n=d#3 v=0
234364 On ch=1 n=f4 v=0
234464 On ch=1 n=g4 v=70
234470 On ch=1 n=a#3 v=58
234472 Par ch=1 c=64 v=0
234478 On ch=1 n=a#5 v=46
234478 On ch=1 n=c#5 v=44
234486 On ch=1 n=d#5 v=0
234518 Par ch=1 c=64 v=127
234528 On ch=1 n=a#3 v=0
234572 On ch=1 n=a#5 v=0
234678 On ch=1 n=g#2 v=51
234688 On ch=1 n=d#5 v=36
234714 Par ch=1 c=64 v=0
234812 Par ch=1 c=64 v=127
234860 On ch=1 n=c#5 v=0
234918 On ch=1 n=d#5 v=0
234918 On ch=1 n=g4 v=0
234940 On ch=1 n=g#2 v=0
235024 On ch=1 n=g#4 v=58
235030 On ch=1 n=g#5 v=69
235030 On ch=1 n=c5 v=50
235034 On ch=1 n=d#4 v=58
235044 Par ch=1 c=64 v=0
235090 Par ch=1 c=64 v=127
235140 On ch=1 n=g#5 v=0
235150 On ch=1 n=a#5 v=62
235194 On ch=1 n=g#5 v=73
235196 On ch=1 n=g#3 v=68
235200 On ch=1 n=d#4 v=0
235206 Par ch=1 c=64 v=0
235208 On ch=1 n=a#5 v=0
235246 Par ch=1 c=64 v=127
235316 On ch=1 n=g#5 v=0
235346 On ch=1 n=c#5 v=29
235348 On ch=1 n=c5 v=0
235354 On ch=1 n=g5 v=54
235354 On ch=1 n=e4 v=68
235364 On ch=1 n=g#3 v=0
235370 Par ch=1 c=64 v=0
235424 Par ch=1 c=64 v=127
235510 Par ch=1 c=64 v=0
235530 On ch=1 n=g#5 v=46
235536 On ch=1 n=c5 v=40
235542 On ch=1 n=d#4 v=52
235548 On ch=1 n=e4 v=0
235548 On ch=1 n=g5 v=0
235552 On ch=1 n=c#5 v=0
235736 On ch=1 n=d#4 v=0
235740 On ch=1 n=g#3 v=68
235750 On ch=1 n=g#4 v=0
235780 Par ch=1 c=64 v=127
235792 On ch=1 n=g#5 v=0
235798 On ch=1 n=c5 v=0
235836 On ch=1 n=g#3 v=0
236088 On ch=1 n=g#4 v=55
236092 On ch=1 n=d#4 v=50
236096 Par ch=1 c=64 v=0
236102 On ch=1 n=g#5 v=56
236102 On ch=1 n=c5 v=33
236154 Par ch=1 c=64 v=127
236216 On ch=1 n=g#5 v=0
236228 On ch=1 n=a#5 v=54
236266 On ch=1 n=g#5 v=57
236268 On ch=1 n=g#3 v=50
236278 Par ch=1 c=64 v=0
236290 On ch=1 n=a#5 v=0
236304 On ch=1 n=d#4 v=0
236316 Par ch=1 c=64 v=127
236380 On ch=1 n=g#5 v=0
236424 On ch=1 n=c#5 v=37
236430 On ch=1 n=g5 v=50
236436 On ch=1 n=e4 v=56
236448 On ch=1 n=c5 v=0
236450 Par ch=1 c=64 v=0
236456 On ch=1 n=g#3 v=0
236508 Par ch=1 c=64 v=127
236622 On ch=1 n=g#5 v=43
236624 Par ch=1 c=64 v=0
236632 On ch=1 n=c5 v=34
236642 On ch=1 n=d#4 v=33
236646 On ch=1 n=g5 v=0
236646 On ch=1 n=c#5 v=0
236650 On ch=1 n=e4 v=0
236680 Par ch=1 c=64 v=127
236828 Par ch=1 c=64 v=0
236838 On ch=1 n=g#3 v=57
236856 On ch=1 n=d#4 v=0
236896 On ch=1 n=g#4 v=0
236906 Par ch=1 c=64 v=127
236952 On ch=1 n=g#3 v=0
236970 On ch=1 n=g#5 v=0
236984 On ch=1 n=c5 v=0
237218 On ch=1 n=g#5 v=55
237224 On ch=1 n=c5 v=49
237228 On ch=1 n=g#4 v=34
237234 On ch=1 n=d#4 v=32
237248 Par ch=1 c=64 v=0
237314 Par ch=1 c=64 v=127
237440 On ch=1 n=c#5 v=33
237444 On ch=1 n=g#3 v=28
237456 On ch=1 n=d#4 v=0
237458 Par ch=1 c=64 v=0
237464 On ch=1 n=c5 v=0
237484 On ch=1 n=g#4 v=0
237528 On ch=1 n=g#5 v=0
237542 Par ch=1 c=64 v=127
237660 On ch=1 n=g#3 v=0
237720 On ch=1 n=c#5 v=0
237812 On ch=1 n=g#5 v=53
237814 On ch=1 n=a#4 v=49
237822 On ch=1 n=g#4 v=34
237822 On ch=1 n=e4 v=45
237830 Par ch=1 c=64 v=0
238036 On ch=1 n=g#3 v=40
238038 On ch=1 n=e5 v=39
238042 On ch=1 n=g#5 v=0
238066 On ch=1 n=a#4 v=0
238074 On ch=1 n=e4 v=0
238176 Par ch=1 c=64 v=127
238194 On ch=1 n=g#4 v=0
238276 On ch=1 n=g#3 v=0
238290 On ch=1 n=e5 v=0
238440 On ch=1 n=c#5 v=47
238444 On ch=1 n=g#5 v=55
238448 On ch=1 n=a#4 v=41
238452 On ch=1 n=e4 v=48
238470 Par ch=1 c=64 v=0
238660 On ch=1 n=d#5 v=49
238674 On ch=1 n=g#3 v=35
238690 On ch=1 n=c#5 v=0
238696 On ch=1 n=g#5 v=0
238698 On ch=1 n=e4 v=0
238700 On ch=1 n=a#4 v=0
238838 Par ch=1 c=64 v=127
239090 Par ch=1 c=64 v=0
239096 On ch=1 n=c5 v=35
239102 On ch=1 n=g#5 v=43
239104 On ch=1 n=f#4 v=39
239128 On ch=1 n=d#5 v=0
239150 Par ch=1 c=64 v=127
239174 On ch=1 n=g#3 v=0
239240 On ch=1 n=c5 v=0
239246 On ch=1 n=g#5 v=0
239248 On ch=1 n=f#4 v=0
239320 On ch=1 n=e5 v=51
239324 On ch=1 n=g#5 v=58
239340 On ch=1 n=c#3 v=67
239346 Par ch=1 c=64 v=0
239416 On ch=1 n=g#5 v=0
239446 On ch=1 n=e5 v=0
239504 On ch=1 n=c#3 v=0
239506 On ch=1 n=c3 v=56
239576 On ch=1 n=c#3 v=61
239606 On ch=1 n=c3 v=0
239664 On ch=1 n=c#3 v=0
239668 On ch=1 n=f#3 v=72
239676 On ch=1 n=g#5 v=54
239676 On ch=1 n=g#4 v=57
239680 On ch=1 n=c#5 v=37
239754 On ch=1 n=e3 v=52
239768 On ch=1 n=f#3 v=0
239838 On ch=1 n=d#3 v=72
239840 On ch=1 n=e3 v=0
239920 On ch=1 n=e3 v=66
239932 On ch=1 n=d#3 v=0
239966 On ch=1 n=g#4 v=0
239998 Par ch=1 c=64 v=127
240008 On ch=1 n=c#5 v=0
240008 On ch=1 n=a3 v=54
240010 On ch=1 n=e3 v=0
240022 On ch=1 n=g#5 v=0
240084 On ch=1 n=g#3 v=64
240096 On ch=1 n=a3 v=0
240172 On ch=1 n=c#6 v=61
240176 On ch=1 n=c#5 v=59
240176 Par ch=1 c=64 v=0
240180 On ch=1 n=e5 v=62
240180 On ch=1 n=g3 v=54
240192 On ch=1 n=g#3 v=0
240254 On ch=1 n=g#3 v=73
240264 On ch=1 n=g3 v=0
240332 On ch=1 n=d#4 v=65
240338 On ch=1 n=g#3 v=0
240354 Par ch=1 c=64 v=127
240368 On ch=1 n=c#6 v=0
240406 On ch=1 n=e5 v=0
240418 On ch=1 n=c#4 v=70
240426 On ch=1 n=d#4 v=0
240430 On ch=1 n=c#5 v=0
240484 On ch=1 n=c#4 v=0
240496 On ch=1 n=e5 v=61
240496 On ch=1 n=c#5 v=59
240496 On ch=1 n=c4 v=49
240500 On ch=1 n=b5 v=63
240500 Par ch=1 c=64 v=0
240556 On ch=1 n=b5 v=0
240564 Par ch=1 c=64 v=127
240570 On ch=1 n=c#4 v=69
240578 On ch=1 n=e5 v=0
240584 On ch=1 n=c#5 v=0
240590 On ch=1 n=c4 v=0
240650 Par ch=1 c=64 v=0
240656 On ch=1 n=f#5 v=56
240656 On ch=1 n=c5 v=56
240658 On ch=1 n=c#4 v=0
240658 On ch=1 n=a5 v=58
240658 On ch=1 n=d4 v=64
240702 On ch=1 n=a5 v=0
240712 On ch=1 n=c5 v=0
240716 On ch=1 n=f#5 v=0
240732 On ch=1 n=d#4 v=68
240738 On ch=1 n=d4 v=0
240740 Par ch=1 c=64 v=127
240820 Par ch=1 c=64 v=0
240824 On ch=1 n=e4 v=73
240826 On ch=1 n=g#5 v=62
240826 On ch=1 n=c#5 v=57
240826 On ch=1 n=g#4 v=61
240836 On ch=1 n=d#4 v=0
240874 On ch=1 n=g#4 v=0
240886 Par ch=1 c=64 v=127
240890 On ch=1 n=c#5 v=0
240898 On ch=1 n=e4 v=0
240898 On ch=1 n=f4 v=80
240916 On ch=1 n=g#5 v=0
240966 On ch=1 n=f#4 v=76
240972 On ch=1 n=f4 v=0
240984 Par ch=1 c=64 v=0
240990 On ch=1 n=e5 v=62
240990 On ch=1 n=c#5 v=60
241042 On ch=1 n=c#5 v=0
241048 Par ch=1 c=64 v=127
241052 On ch=1 n=g4 v=73
241056 On ch=1 n=f#4 v=0
241062 On ch=1 n=e5 v=0
241136 On ch=1 n=g#4 v=68
241142 On ch=1 n=g4 v=0
241144 On ch=1 n=f#5 v=56
241144 On ch=1 n=c#5 v=46
241150 Par ch=1 c=64 v=0
241206 On ch=1 n=c#5 v=0
241208 Par ch=1 c=64 v=127
241220 On ch=1 n=a4 v=63
241226 On ch=1 n=f#5 v=0
241232 On ch=1 n=g#4 v=0
241278 Par ch=1 c=64 v=0
241300 On ch=1 n=g#5 v=60
241302 On ch=1 n=e5 v=57
241302 On ch=1 n=c#5 v=51
241302 On ch=1 n=c#4 v=73
241308 On ch=1 n=g#4 v=73
241312 On ch=1 n=a4 v=0
241338 On ch=1 n=c#4 v=0
241340 Par ch=1 c=64 v=127
241352 On ch=1 n=g#4 v=0
241452 Par ch=1 c=64 v=0
241466 On ch=1 n=c5 v=75
241492 On ch=1 n=g#5 v=0
241494 On ch=1 n=c#5 v=0
241494 On ch=1 n=e5 v=0
241514 Par ch=1 c=64 v=127
241532 On ch=1 n=c#5 v=73
241536 On ch=1 n=c5 v=0
241610 On ch=1 n=c#5 v=0
241610 On ch=1 n=d#5 v=82
241614 On ch=1 n=g#5 v=62
241618 On ch=1 n=e5 v=58
241630 Par ch=1 c=64 v=0
241678 Par ch=1 c=64 v=127
241698 On ch=1 n=d#5 v=0
241700 On ch=1 n=c#5 v=66
241780 On ch=1 n=b4 v=68
241784 On ch=1 n=c#5 v=0
241786 Par ch=1 c=64 v=0
241858 Par ch=1 c=64 v=127
241870 On ch=1 n=c5 v=78
241880 On ch=1 n=b4 v=0
241910 Par ch=1 c=64 v=0
241936 On ch=1 n=d5 v=47
241948 On ch=1 n=g#5 v=0
241956 On ch=1 n=c5 v=0
241964 Par ch=1 c=64 v=127
242008 On ch=1 n=e5 v=0
242018 On ch=1 n=c5 v=68
242038 On ch=1 n=d5 v=0
242076 Par ch=1 c=64 v=0
242084 On ch=1 n=g#5 v=62
242084 On ch=1 n=e5 v=58
242100 On ch=1 n=d5 v=73
242106 On ch=1 n=c5 v=0
242128 Par ch=1 c=64 v=127
242184 On ch=1 n=d5 v=0
242190 On ch=1 n=c5 v=73
242232 Par ch=1 c=64 v=0
242252 On ch=1 n=a#4 v=55
242258 On ch=1 n=c5 v=0
242284 On ch=1 n=g#5 v=0
242292 Par ch=1 c=64 v=127
242304 On ch=1 n=e5 v=0
242328 On ch=1 n=b4 v=66
242340 On ch=1 n=a#4 v=0
242390 Par ch=1 c=64 v=0
242400 On ch=1 n=g#5 v=56
242400 On ch=1 n=e5 v=54
242408 On ch=1 n=c#5 v=79
242424 On ch=1 n=b4 v=0
242446 Par ch=1 c=64 v=127
242468 On ch=1 n=e5 v=0
242474 On ch=1 n=g#5 v=0
242484 On ch=1 n=b4 v=67
242486 On ch=1 n=c#5 v=0
242538 Par ch=1 c=64 v=0
242550 On ch=1 n=a5 v=57
242556 On ch=1 n=f#5 v=54
242560 On ch=1 n=e5 v=56
242560 On ch=1 n=c#5 v=62
242576 On ch=1 n=b4 v=0
242588 Par ch=1 c=64 v=127
242618 On ch=1 n=c#5 v=0
242628 On ch=1 n=b4 v=75
242632 On ch=1 n=a5 v=0
242636 On ch=1 n=e5 v=0
242638 On ch=1 n=f#5 v=0
242696 On ch=1 n=a5 v=60
242700 On ch=1 n=b5 v=57
242706 On ch=1 n=d#5 v=58
242712 On ch=1 n=b4 v=0
242712 On ch=1 n=b3 v=70
242718 Par ch=1 c=64 v=0
242748 On ch=1 n=a5 v=0
242756 On ch=1 n=b5 v=0
242758 Par ch=1 c=64 v=127
242776 On ch=1 n=d#5 v=0
242858 Par ch=1 c=64 v=0
242862 On ch=1 n=b3 v=0
242864 On ch=1 n=c#4 v=71
242870 On ch=1 n=e5 v=58
242874 On ch=1 n=a4 v=63
242914 Par ch=1 c=64 v=127
242932 On ch=1 n=e5 v=0
242936 On ch=1 n=a4 v=0
242952 On ch=1 n=b3 v=78
242962 On ch=1 n=c#4 v=0
243034 On ch=1 n=c#4 v=72
243034 Par ch=1 c=64 v=0
243040 On ch=1 n=d#5 v=45
243040 On ch=1 n=b4 v=54
243040 On ch=1 n=a4 v=55
243046 On ch=1 n=f#5 v=34
243056 On ch=1 n=b3 v=0
243080 Par ch=1 c=64 v=127
243096 On ch=1 n=d#5 v=0
243096 On ch=1 n=c#4 v=0
243102 On ch=1 n=f#5 v=0
243102 On ch=1 n=b3 v=57
243110 On ch=1 n=a4 v=0
243192 On ch=1 n=g#5 v=56
243200 On ch=1 n=e3 v=56
243204 On ch=1 n=b3 v=0
243204 On ch=1 n=g#4 v=62
243206 On ch=1 n=e5 v=57
243212 Par ch=1 c=64 v=0
243336 On ch=1 n=e5 v=0
243346 Par ch=1 c=64 v=127
243358 On ch=1 n=a3 v=63
243364 On ch=1 n=b4 v=0
243366 On ch=1 n=e3 v=0
243376 On ch=1 n=g#5 v=0
243392 On ch=1 n=g#4 v=0
243420 On ch=1 n=g#3 v=66
243450 On ch=1 n=a3 v=0
243496 On ch=1 n=g#5 v=56
243496 On ch=1 n=f#5 v=52
243496 On ch=1 n=c5 v=60
243496 On ch=1 n=g#4 v=62
243496 Par ch=1 c=64 v=0
243502 On ch=1 n=d#3 v=61
243506 On ch=1 n=g#3 v=0
243588 On ch=1 n=g#3 v=39
243588 Par ch=1 c=64 v=127
243596 On ch=1 n=d#3 v=0
243648 On ch=1 n=c5 v=0
243648 On ch=1 n=f#5 v=0
243656 Par ch=1 c=64 v=0
243666 On ch=1 n=g#3 v=0
243672 On ch=1 n=g#5 v=0
243672 On ch=1 n=c#3 v=85
243692 On ch=1 n=g#4 v=0
243746 On ch=1 n=g#3 v=73
243770 On ch=1 n=c#3 v=0
243828 On ch=1 n=g#3 v=0
243834 On ch=1 n=g3 v=60
243922 On ch=1 n=g#3 v=73
243934 On ch=1 n=g3 v=0
243976 On ch=1 n=c#5 v=54
243980 On ch=1 n=g#5 v=56
243986 On ch=1 n=e5 v=53
243986 On ch=1 n=g#4 v=57
243990 On ch=1 n=d#4 v=65
243992 On ch=1 n=g#3 v=0
244066 On ch=1 n=c#4 v=48
244080 On ch=1 n=d#4 v=0
244150 On ch=1 n=c#4 v=0
244154 On ch=1 n=c4 v=35
244204 On ch=1 n=c#5 v=0
244214 On ch=1 n=g#4 v=0
244214 On ch=1 n=e5 v=0
244218 Par ch=1 c=64 v=127
244230 On ch=1 n=c#4 v=46
244238 On ch=1 n=c4 v=0
244248 On ch=1 n=g#5 v=0
244294 On ch=1 n=f#4 v=65
244296 On ch=1 n=c#4 v=0
244370 On ch=1 n=f#4 v=0
244374 On ch=1 n=e4 v=38
244446 On ch=1 n=e4 v=0
244446 On ch=1 n=c#6 v=62
244450 On ch=1 n=c#5 v=60
244454 On ch=1 n=e5 v=63
244454 On ch=1 n=d#4 v=58
244462 Par ch=1 c=64 v=0
244520 On ch=1 n=e4 v=66
244534 On ch=1 n=d#4 v=0
244592 On ch=1 n=e4 v=0
244596 On ch=1 n=a4 v=38
244598 Par ch=1 c=64 v=127
244622 On ch=1 n=c#6 v=0
244642 On ch=1 n=e5 v=0
244642 On ch=1 n=c#5 v=0
244658 On ch=1 n=g#4 v=33
244674 On ch=1 n=a4 v=0
244730 Par ch=1 c=64 v=0
244736 On ch=1 n=g#4 v=0
244752 On ch=1 n=b5 v=59
244752 On ch=1 n=e5 v=56
244752 On ch=1 n=g4 v=61
244756 On ch=1 n=c#5 v=44
244786 Par ch=1 c=64 v=127
244794 On ch=1 n=c#5 v=0
244800 On ch=1 n=e5 v=0
244812 On ch=1 n=g#4 v=64
244818 On ch=1 n=g4 v=0
244838 On ch=1 n=b5 v=0
244870 On ch=1 n=g#4 v=0
244894 Par ch=1 c=64 v=0
244898 On ch=1 n=a5 v=62
244902 On ch=1 n=e5 v=62
244902 On ch=1 n=d#5 v=65
244942 Par ch=1 c=64 v=127
244956 On ch=1 n=e5 v=0
244970 On ch=1 n=a5 v=0
244974 On ch=1 n=c#5 v=49
244980 On ch=1 n=d#5 v=0
245034 On ch=1 n=c#5 v=0
245044 On ch=1 n=g#5 v=57
245054 On ch=1 n=e5 v=68
245056 On ch=1 n=c5 v=50
245062 Par ch=1 c=64 v=0
245108 On ch=1 n=e5 v=0
245112 On ch=1 n=g#5 v=0
245114 Par ch=1 c=64 v=127
245120 On ch=1 n=c#5 v=43
245126 On ch=1 n=c5 v=0
245190 Par ch=1 c=64 v=0
245196 On ch=1 n=c#5 v=0
245196 On ch=1 n=g#5 v=60
245208 On ch=1 n=d5 v=61
245238 Par ch=1 c=64 v=127
245266 On ch=1 n=d#5 v=78
245270 On ch=1 n=g#5 v=0
245278 On ch=1 n=d5 v=0
245334 Par ch=1 c=64 v=0
245346 On ch=1 n=a#5 v=59
245348 On ch=1 n=d#5 v=0
245358 On ch=1 n=g#5 v=54
245378 Par ch=1 c=64 v=127
245410 On ch=1 n=e5 v=79
245460 On ch=1 n=a#5 v=0
245472 On ch=1 n=g#5 v=0
245498 On ch=1 n=b5 v=62
245500 On ch=1 n=d5 v=56
245504 On ch=1 n=e5 v=0
245504 On ch=1 n=g#5 v=68
245506 Par ch=1 c=64 v=0
245550 Par ch=1 c=64 v=127
245568 On ch=1 n=d#5 v=68
245578 On ch=1 n=d5 v=0
245604 On ch=1 n=b5 v=0
245606 On ch=1 n=g#5 v=0
245638 On ch=1 n=d#5 v=0
245642 On ch=1 n=e5 v=52
245706 On ch=1 n=d#5 v=60
245712 On ch=1 n=e5 v=0
245780 On ch=1 n=d#5 v=0
245786 On ch=1 n=g#5 v=63
245788 On ch=1 n=e6 v=57
245790 On ch=1 n=c#5 v=73
245796 Par ch=1 c=64 v=0
245844 Par ch=1 c=64 v=127
245856 On ch=1 n=g#4 v=34
245858 On ch=1 n=e6 v=0
245862 On ch=1 n=c#5 v=0
245932 On ch=1 n=g#4 v=0
245938 On ch=1 n=a#4 v=51
245944 On ch=1 n=d#6 v=60
245950 On ch=1 n=d#5 v=81
245960 Par ch=1 c=64 v=0
246030 On ch=1 n=b4 v=58
246038 Par ch=1 c=64 v=127
246042 On ch=1 n=a#4 v=0
246084 On ch=1 n=c#5 v=64
246092 On ch=1 n=d#5 v=0
246096 On ch=1 n=d#6 v=0
246118 On ch=1 n=b4 v=0
246136 On ch=1 n=g#5 v=0
246164 On ch=1 n=c#5 v=0
246174 On ch=1 n=b4 v=61
246232 On ch=1 n=d#6 v=51
246240 On ch=1 n=b5 v=57
246240 On ch=1 n=g#5 v=65
246240 On ch=1 n=d#5 v=77
246240 On ch=1 n=g#4 v=65
246250 Par ch=1 c=64 v=0
246266 On ch=1 n=b4 v=0
246298 Par ch=1 c=64 v=127
246324 On ch=1 n=b3 v=65
246330 On ch=1 n=g#4 v=0
246348 On ch=1 n=g#5 v=0
246348 On ch=1 n=b5 v=0
246394 On ch=1 n=b3 v=0
246402 On ch=1 n=d#4 v=83
246406 On ch=1 n=a#5 v=61
246406 On ch=1 n=g#5 v=65
246420 Par ch=1 c=64 v=0
246484 Par ch=1 c=64 v=127
246560 On ch=1 n=d#4 v=0
246568 On ch=1 n=e4 v=63
246578 On ch=1 n=g#5 v=0
246588 On ch=1 n=a#5 v=0
246620 On ch=1 n=d#6 v=0
246628 On ch=1 n=d#5 v=0
246634 On ch=1 n=e4 v=0
246644 On ch=1 n=d#4 v=92
246658 Par ch=1 c=64 v=0
246734 On ch=1 n=d#6 v=69
246740 On ch=1 n=d#5 v=70
246740 On ch=1 n=c#5 v=74
246746 On ch=1 n=d#4 v=0
246746 On ch=1 n=g5 v=63
246748 On ch=1 n=a#5 v=57
246752 On ch=1 n=e4 v=85
246826 Par ch=1 c=64 v=127
246830 On ch=1 n=d#4 v=70
246836 On ch=1 n=g5 v=0
246844 On ch=1 n=a#5 v=0
246846 On ch=1 n=e4 v=0
246846 On ch=1 n=c#5 v=0
246852 On ch=1 n=d#5 v=0
246872 On ch=1 n=d#6 v=0
246946 On ch=1 n=d#4 v=0
246954 On ch=1 n=g#6 v=83
246958 On ch=1 n=g#3 v=100
246966 Par ch=1 c=64 v=0
247030 Par ch=1 c=64 v=127
247042 On ch=1 n=g#5 v=88
247062 On ch=1 n=g#6 v=0
247082 On ch=1 n=g#3 v=0
247120 On ch=1 n=g#5 v=0
247124 On ch=1 n=g#6 v=73
247154 On ch=1 n=g#6 v=0
247186 On ch=1 n=g#6 v=88
247248 Par ch=1 c=64 v=0
247266 On ch=1 n=g#6 v=0
247274 On ch=1 n=d#5 v=84
247274 On ch=1 n=f#4 v=86
247276 On ch=1 n=g#4 v=86
247278 On ch=1 n=g#7 v=82
247296 Par ch=1 c=64 v=127
247336 On ch=1 n=g#7 v=0
247344 On ch=1 n=g#6 v=88
247374 On ch=1 n=g#6 v=0
247376 On ch=1 n=d#5 v=0
247378 On ch=1 n=g#4 v=0
247382 On ch=1 n=f#4 v=0
247438 On ch=1 n=g#6 v=75
247502 On ch=1 n=g#5 v=66
247514 On ch=1 n=g#6 v=0
247602 On ch=1 n=g#6 v=80
247608 On ch=1 n=g#5 v=0
247638 On ch=1 n=g#6 v=0
247696 On ch=1 n=g#6 v=73
247726 On ch=1 n=g#6 v=0
247772 On ch=1 n=g#7 v=84
247784 On ch=1 n=e4 v=83
247786 On ch=1 n=c#5 v=94
247786 On ch=1 n=g#4 v=83
247790 Par ch=1 c=64 v=0
247836 Par ch=1 c=64 v=127
247842 On ch=1 n=g#7 v=0
247852 On ch=1 n=g#6 v=95
247874 On ch=1 n=g#6 v=0
247934 On ch=1 n=g#6 v=88
247942 On ch=1 n=e4 v=0
247948 On ch=1 n=c#5 v=0
248006 On ch=1 n=g#6 v=0
248006 On ch=1 n=g#4 v=0
248010 On ch=1 n=g#5 v=86
248064 On ch=1 n=g#5 v=0
248090 On ch=1 n=g#6 v=68
248112 On ch=1 n=g#6 v=0
248148 On ch=1 n=g#6 v=90
248206 Par ch=1 c=64 v=0
248218 On ch=1 n=g#6 v=0
248226 On ch=1 n=g#7 v=78
248226 On ch=1 n=f#4 v=79
248226 On ch=1 n=d#4 v=89
248230 On ch=1 n=b4 v=92
248264 Par ch=1 c=64 v=127
248280 On ch=1 n=b4 v=0
248282 On ch=1 n=g#7 v=0
248284 On ch=1 n=f#4 v=0
248288 On ch=1 n=g#6 v=89
248290 On ch=1 n=d#4 v=0
248302 On ch=1 n=g#6 v=0
248370 On ch=1 n=a4 v=96
248370 On ch=1 n=c#4 v=95
248372 Par ch=1 c=64 v=0
248380 On ch=1 n=g#6 v=86
248450 On ch=1 n=g#6 v=0
248456 On ch=1 n=g#5 v=75
248516 On ch=1 n=g#6 v=82
248522 On ch=1 n=e4 v=95
248528 On ch=1 n=g#5 v=0
248542 Par ch=1 c=64 v=127
248554 On ch=1 n=g#6 v=0
248592 On ch=1 n=g#6 v=92
248598 On ch=1 n=c#4 v=0
248654 On ch=1 n=g#6 v=0
248660 On ch=1 n=g#7 v=69
248668 On ch=1 n=f#4 v=103
248674 On ch=1 n=a4 v=0
248686 On ch=1 n=e4 v=0
248718 On ch=1 n=f#4 v=0
248720 On ch=1 n=g#7 v=0
248726 On ch=1 n=g#6 v=88
248746 On ch=1 n=g#6 v=0
248808 On ch=1 n=g#3 v=115
248816 On ch=1 n=g#4 v=80
248816 On ch=1 n=c4 v=80
248818 On ch=1 n=g#6 v=86
248824 Par ch=1 c=64 v=0
248882 On ch=1 n=g#5 v=73
248904 On ch=1 n=g#6 v=0
248912 Par ch=1 c=64 v=127
248940 On ch=1 n=g#3 v=0
248948 On ch=1 n=c4 v=0
248948 On ch=1 n=g#4 v=0
248968 On ch=1 n=g#5 v=0
248968 On ch=1 n=g#6 v=54
249000 On ch=1 n=g#6 v=0
249040 On ch=1 n=g#6 v=93
249114 On ch=1 n=g#6 v=0
249116 On ch=1 n=d#5 v=81
249118 On ch=1 n=g#4 v=92
249118 Par ch=1 c=64 v=0
249124 On ch=1 n=f#4 v=86
249126 On ch=1 n=g#7 v=78
249164 Par ch=1 c=64 v=127
249188 On ch=1 n=g#7 v=0
249190 On ch=1 n=g#6 v=90
249214 On ch=1 n=g#6 v=0
249244 On ch=1 n=d#5 v=0
249246 On ch=1 n=g#4 v=0
249252 On ch=1 n=f#4 v=0
249282 On ch=1 n=g#6 v=92
249342 On ch=1 n=g#6 v=0
249348 On ch=1 n=g#5 v=88
249412 On ch=1 n=g#5 v=0
249418 On ch=1 n=g#6 v=66
249448 On ch=1 n=g#6 v=0
249494 On ch=1 n=g#6 v=88
249564 On ch=1 n=g#6 v=0
249568 On ch=1 n=c#5 v=100
249568 Par ch=1 c=64 v=0
249574 On ch=1 n=g#4 v=94
249574 On ch=1 n=e4 v=92
249576 On ch=1 n=g#7 v=77
249614 Par ch=1 c=64 v=127
249646 On ch=1 n=g#7 v=0
249650 On ch=1 n=g#6 v=88
249674 On ch=1 n=g#6 v=0
249696 On ch=1 n=c#5 v=0
249700 On ch=1 n=e4 v=0
249714 On ch=1 n=g#4 v=0
249732 On ch=1 n=g#6 v=86
249790 On ch=1 n=g#6 v=0
249794 On ch=1 n=g#5 v=90
249864 On ch=1 n=g#6 v=73
249870 On ch=1 n=g#5 v=0
249910 On ch=1 n=g#6 v=0
249944 On ch=1 n=g#6 v=95
250018 On ch=1 n=g#6 v=0
250018 Par ch=1 c=64 v=0
250026 On ch=1 n=g#7 v=88
250026 On ch=1 n=b4 v=89
250026 On ch=1 n=f#4 v=88
250026 On ch=1 n=d#4 v=87
250076 Par ch=1 c=64 v=127
250080 On ch=1 n=g#7 v=0
250096 On ch=1 n=b4 v=0
250098 On ch=1 n=f#4 v=0
250100 On ch=1 n=d#4 v=0
250104 On ch=1 n=g#6 v=66
250124 On ch=1 n=g#6 v=0
250172 Par ch=1 c=64 v=0
250178 On ch=1 n=g#6 v=88
250178 On ch=1 n=a4 v=93
250178 On ch=1 n=c#4 v=101
250228 On ch=1 n=g#6 v=0
250236 Par ch=1 c=64 v=127
250244 On ch=1 n=g#5 v=88
250312 On ch=1 n=g#5 v=0
250318 On ch=1 n=g#6 v=66
250320 On ch=1 n=e4 v=94
250346 On ch=1 n=g#6 v=0
250386 On ch=1 n=g#6 v=81
250402 On ch=1 n=c#4 v=0
250458 Par ch=1 c=64 v=0
250464 On ch=1 n=g#7 v=75
250466 On ch=1 n=g#6 v=0
250472 On ch=1 n=f#4 v=100
250488 On ch=1 n=e4 v=0
250488 On ch=1 n=a4 v=0
250504 Par ch=1 c=64 v=127
250520 On ch=1 n=f#4 v=0
250528 On ch=1 n=g#7 v=0
250532 On ch=1 n=g#6 v=90
250550 On ch=1 n=g#6 v=0
250622 On ch=1 n=g#3 v=101
250624 On ch=1 n=g#2 v=80
250628 Par ch=1 c=64 v=0
250634 On ch=1 n=g#6 v=102
250688 On ch=1 n=g#5 v=87
250698 Par ch=1 c=64 v=127
250704 On ch=1 n=g#6 v=0
250772 On ch=1 n=g#6 v=62
250784 On ch=1 n=g#5 v=0
250810 On ch=1 n=g#6 v=0
250848 On ch=1 n=g#6 v=106
250922 On ch=1 n=g#4 v=101
250926 On ch=1 n=d#4 v=89
250926 On ch=1 n=c4 v=87
250930 On ch=1 n=g#7 v=86
250936 On ch=1 n=g#6 v=0
250938 Par ch=1 c=64 v=0
250990 On ch=1 n=g#7 v=0
250992 On ch=1 n=g#6 v=106
251006 Par ch=1 c=64 v=127
251016 On ch=1 n=g#6 v=0
251072 On ch=1 n=g#6 v=101
251120 On ch=1 n=c4 v=0
251134 On ch=1 n=d#4 v=0
251148 On ch=1 n=g#6 v=0
251148 On ch=1 n=g#5 v=100
251222 On ch=1 n=g#6 v=76
251230 On ch=1 n=g#5 v=0
251234 On ch=1 n=g#4 v=0
251264 On ch=1 n=g#6 v=0
251300 On ch=1 n=g#6 v=115
251346 Par ch=1 c=64 v=0
251354 On ch=1 n=g#3 v=0
251356 On ch=1 n=g#2 v=0
251370 On ch=1 n=a#4 v=93
251374 On ch=1 n=g#7 v=94
251374 On ch=1 n=c#4 v=92
251380 On ch=1 n=g#6 v=0
251380 On ch=1 n=e4 v=89
251396 Par ch=1 c=64 v=127
251434 On ch=1 n=g#7 v=0
251446 On ch=1 n=g#6 v=98
251464 On ch=1 n=g#6 v=0
251510 On ch=1 n=e4 v=0
251516 On ch=1 n=g#6 v=98
251518 On ch=1 n=c#4 v=0
251550 On ch=1 n=a#4 v=0
251584 On ch=1 n=g#6 v=0
251590 On ch=1 n=g#5 v=103
251664 On ch=1 n=g#6 v=86
251674 On ch=1 n=g#5 v=0
251704 On ch=1 n=g#6 v=0
251740 On ch=1 n=g#6 v=110
251800 Par ch=1 c=64 v=0
251814 On ch=1 n=c#5 v=101
251814 On ch=1 n=g#4 v=96
251814 On ch=1 n=e4 v=94
251824 On ch=1 n=g#7 v=97
251828 On ch=1 n=g#6 v=0
251850 Par ch=1 c=64 v=127
251884 On ch=1 n=g#7 v=0
251894 On ch=1 n=g#6 v=103
251908 On ch=1 n=g#6 v=0
251962 On ch=1 n=e4 v=0
251964 On ch=1 n=g#6 v=108
251986 On ch=1 n=c#5 v=0
252016 On ch=1 n=g#4 v=0
252020 On ch=1 n=g#6 v=0
252030 On ch=1 n=g#5 v=105
252102 On ch=1 n=g#6 v=54
252108 On ch=1 n=g#5 v=0
252138 On ch=1 n=g#6 v=0
252192 On ch=1 n=g#6 v=82
252252 On ch=1 n=g#6 v=0
252264 On ch=1 n=c5 v=92
252264 On ch=1 n=g#4 v=93
252264 On ch=1 n=d#4 v=89
252270 On ch=1 n=g#7 v=69
252340 On ch=1 n=g#6 v=110
252348 On ch=1 n=g#7 v=0
252366 On ch=1 n=g#6 v=0
252428 On ch=1 n=g#3 v=101
252436 On ch=1 n=d#4 v=0
252436 On ch=1 n=g#4 v=0
252436 On ch=1 n=c5 v=0
252436 On ch=1 n=g#6 v=108
252442 Par ch=1 c=64 v=0
252492 Par ch=1 c=64 v=127
252504 On ch=1 n=g#5 v=97
252520 On ch=1 n=g#6 v=0
252556 On ch=1 n=g#3 v=0
252580 On ch=1 n=g#5 v=0
252582 On ch=1 n=g#6 v=84
252618 On ch=1 n=g#6 v=0
252658 On ch=1 n=g#6 v=101
252738 On ch=1 n=g#6 v=0
252740 On ch=1 n=c#4 v=100
252742 On ch=1 n=g#7 v=100
252746 On ch=1 n=a#4 v=108
252746 On ch=1 n=g#4 v=100
252804 On ch=1 n=g#7 v=0
252812 On ch=1 n=g#6 v=101
252832 On ch=1 n=g#6 v=0
252904 On ch=1 n=g#6 v=106
252904 Par ch=1 c=64 v=0
252910 On ch=1 n=g#3 v=123
252912 On ch=1 n=c#4 v=0
252918 On ch=1 n=g#4 v=0
252918 On ch=1 n=a#4 v=0
252954 Par ch=1 c=64 v=127
252980 On ch=1 n=g#5 v=97
252998 On ch=1 n=g#6 v=0
253020 On ch=1 n=g#3 v=0
253052 On ch=1 n=g#6 v=94
253058 On ch=1 n=g#5 v=0
253098 On ch=1 n=g#6 v=0
253134 On ch=1 n=g#6 v=108
253192 On ch=1 n=g#6 v=0
253208 On ch=1 n=c5 v=94
253208 On ch=1 n=d#4 v=98
253212 On ch=1 n=g#4 v=96
253216 On ch=1 n=g#7 v=113
253274 On ch=1 n=g#7 v=0
253292 On ch=1 n=g#6 v=101
253310 On ch=1 n=g#6 v=0
253368 Par ch=1 c=64 v=0
253378 On ch=1 n=g#6 v=115
253380 On ch=1 n=d#4 v=0
253380 On ch=1 n=c5 v=0
253382 On ch=1 n=g#3 v=117
253384 On ch=1 n=g#4 v=0
253422 Par ch=1 c=64 v=127
253460 On ch=1 n=g#5 v=105
253468 On ch=1 n=g#6 v=0
253470 On ch=1 n=g#3 v=0
253540 On ch=1 n=g#6 v=89
253552 On ch=1 n=g#5 v=0
253582 On ch=1 n=g#6 v=0
253622 On ch=1 n=g#6 v=113
253688 On ch=1 n=g#4 v=80
253690 On ch=1 n=f#4 v=94
253694 On ch=1 n=c5 v=98
253698 On ch=1 n=e5 v=101
253702 On ch=1 n=g#7 v=93
253708 On ch=1 n=g#6 v=0
253798 On ch=1 n=g#6 v=100
253810 On ch=1 n=g#7 v=0
253848 On ch=1 n=g#6 v=0
253860 On ch=1 n=g#4 v=0
253862 On ch=1 n=f#4 v=0
253866 On ch=1 n=c5 v=0
253870 On ch=1 n=e5 v=0
253904 On ch=1 n=g#2 v=112
253912 On ch=1 n=g#3 v=112
253916 On ch=1 n=g#6 v=98
253988 On ch=1 n=g#5 v=77
254006 On ch=1 n=g#6 v=0
254074 On ch=1 n=g#6 v=96
254080 On ch=1 n=g#5 v=0
254106 On ch=1 n=g#6 v=0
254154 On ch=1 n=g#6 v=96
254260 On ch=1 n=d#5 v=102
254260 On ch=1 n=f#4 v=101
254264 On ch=1 n=g#7 v=117
254264 On ch=1 n=c5 v=98
254280 On ch=1 n=g#6 v=0
254332 On ch=1 n=g#7 v=0
254352 On ch=1 n=g#6 v=117
254366 On ch=1 n=g#6 v=0
254384 On ch=1 n=g#2 v=0
254392 On ch=1 n=g#3 v=0
254432 On ch=1 n=f#4 v=0
254432 On ch=1 n=d#5 v=0
254436 On ch=1 n=c5 v=0
254476 Par ch=1 c=64 v=0
254482 On ch=1 n=g#6 v=110
254482 On ch=1 n=c#3 v=96
254484 On ch=1 n=e6 v=106
254484 On ch=1 n=c#6 v=101
254484 On ch=1 n=c#4 v=105
254554 On ch=1 n=g#6 v=0
254560 Par ch=1 c=64 v=127
254566 On ch=1 n=c#6 v=0
254566 On ch=1 n=c#3 v=0
254574 On ch=1 n=c#4 v=0
254574 On ch=1 n=e6 v=0
254574 On ch=1 n=g#5 v=110
254640 On ch=1 n=e6 v=41
254644 On ch=1 n=g#5 v=0
254646 On ch=1 n=e6 v=0
254646 On ch=1 n=c#6 v=64
254652 On ch=1 n=g#6 v=74
254662 On ch=1 n=c#6 v=0
254680 On ch=1 n=g#6 v=0
254724 On ch=1 n=g#6 v=90
254792 On ch=1 n=g#6 v=0
254806 On ch=1 n=g#7 v=113
254806 On ch=1 n=c#5 v=98
254812 On ch=1 n=e7 v=101
254812 On ch=1 n=c#7 v=96
254812 On ch=1 n=g#4 v=94
254818 On ch=1 n=e4 v=84
254854 On ch=1 n=g#7 v=0
254862 On ch=1 n=e7 v=0
254866 On ch=1 n=c#7 v=0
254872 On ch=1 n=g#6 v=105
254892 On ch=1 n=g#6 v=0
254968 On ch=1 n=e6 v=95
254968 On ch=1 n=c#6 v=80
254974 On ch=1 n=g#6 v=94
254978 On ch=1 n=c#5 v=0
254978 On ch=1 n=c#3 v=103
254982 On ch=1 n=c#4 v=113
254984 On ch=1 n=g#4 v=0
254986 Par ch=1 c=64 v=0
254990 On ch=1 n=e4 v=0
255040 Par ch=1 c=64 v=127
255044 On ch=1 n=c#6 v=0
255044 On ch=1 n=e6 v=0
255046 On ch=1 n=g#6 v=0
255052 On ch=1 n=g#5 v=103
255100 On ch=1 n=c#3 v=0
255108 On ch=1 n=c#4 v=0
255126 On ch=1 n=g#6 v=67
255128 On ch=1 n=g#5 v=0
255176 On ch=1 n=g#6 v=0
255202 On ch=1 n=c#7 v=110
255250 On ch=1 n=c#7 v=0
255272 On ch=1 n=g#5 v=80
255280 On ch=1 n=e5 v=80
255286 On ch=1 n=c#8 v=98
255286 On ch=1 n=c#6 v=113
255286 On ch=1 n=c#5 v=103
255290 On ch=1 n=e7 v=98
255294 On ch=1 n=g#5 v=0
255302 On ch=1 n=e5 v=0
255308 On ch=1 n=c#6 v=0
255316 On ch=1 n=c#5 v=0
255360 On ch=1 n=c#8 v=0
255366 On ch=1 n=c#7 v=88
255374 On ch=1 n=e7 v=0
255416 On ch=1 n=c#7 v=0
255440 Par ch=1 c=64 v=0
255446 On ch=1 n=c#8 v=100
255454 On ch=1 n=a7 v=100
255454 On ch=1 n=c#5 v=108
255454 On ch=1 n=c#4 v=93
255506 Par ch=1 c=64 v=127
255516 On ch=1 n=c#8 v=0
255526 On ch=1 n=a7 v=0
255530 On ch=1 n=c#7 v=108
255592 On ch=1 n=c#7 v=0
255604 On ch=1 n=g#7 v=95
255608 On ch=1 n=b7 v=93
255614 On ch=1 n=c#4 v=0
255624 On ch=1 n=c#5 v=0
255672 On ch=1 n=b6 v=88
255682 On ch=1 n=g#7 v=0
255692 On ch=1 n=b7 v=0
255704 On ch=1 n=b6 v=0
255768 On ch=1 n=f#5 v=80
255768 On ch=1 n=c#5 v=93
255772 On ch=1 n=a5 v=96
255776 On ch=1 n=a7 v=115
255776 On ch=1 n=f#7 v=118
255776 On ch=1 n=c#6 v=117
255790 On ch=1 n=f#5 v=0
255798 On ch=1 n=c#6 v=0
255800 On ch=1 n=a5 v=0
255818 On ch=1 n=c#5 v=0
255836 On ch=1 n=a7 v=0
255850 On ch=1 n=a6 v=80
255860 On ch=1 n=f#7 v=0
255900 On ch=1 n=a6 v=0
255932 On ch=1 n=g#7 v=106
255934 Par ch=1 c=64 v=0
255946 On ch=1 n=e7 v=93
255946 On ch=1 n=c#5 v=105
255946 On ch=1 n=c#4 v=110
255990 Par ch=1 c=64 v=127
256000 On ch=1 n=g#7 v=0
256004 On ch=1 n=g#6 v=103
256008 On ch=1 n=e7 v=0
256038 On ch=1 n=c#4 v=0
256048 On ch=1 n=g#6 v=0
256056 On ch=1 n=c#5 v=0
256096 On ch=1 n=e7 v=105
256096 On ch=1 n=c#7 v=117
256152 On ch=1 n=c#7 v=0
256154 On ch=1 n=e7 v=0
256166 On ch=1 n=e6 v=88
256222 On ch=1 n=e6 v=0
256248 On ch=1 n=f#7 v=115
256248 On ch=1 n=d#7 v=108
256248 On ch=1 n=c#5 v=89
256256 On ch=1 n=e5 v=89
256258 On ch=1 n=g#5 v=93
256258 On ch=1 n=g#4 v=84
256272 On ch=1 n=e5 v=0
256276 On ch=1 n=g#4 v=0
256278 On ch=1 n=c#5 v=0
256280 On ch=1 n=g#5 v=0
256298 On ch=1 n=d#7 v=0
256312 On ch=1 n=f#7 v=0
256316 On ch=1 n=f#6 v=96
256380 On ch=1 n=f#6 v=0
256408 Par ch=1 c=64 v=0
256412 On ch=1 n=g#7 v=113
256420 On ch=1 n=e7 v=101
256420 On ch=1 n=c#3 v=100
256424 On ch=1 n=c#7 v=88
256424 On ch=1 n=c#4 v=110
256458 Par ch=1 c=64 v=127
256478 On ch=1 n=g#7 v=0
256482 On ch=1 n=e7 v=0
256488 On ch=1 n=c#3 v=0
256488 On ch=1 n=g#6 v=110
256492 On ch=1 n=c#7 v=0
256500 On ch=1 n=c#4 v=0
256514 On ch=1 n=g#6 v=0
256568 On ch=1 n=g#6 v=102
256568 On ch=1 n=e6 v=80
256574 On ch=1 n=c#6 v=100
256598 On ch=1 n=e6 v=0
256626 On ch=1 n=c#6 v=0
256632 On ch=1 n=g#6 v=0
256638 On ch=1 n=g#5 v=106
256716 On ch=1 n=g#6 v=103
256716 On ch=1 n=e6 v=93
256720 On ch=1 n=g#5 v=0
256720 On ch=1 n=e5 v=98
256720 On ch=1 n=c#5 v=96
256724 On ch=1 n=g#4 v=96
256728 On ch=1 n=e4 v=76
256734 On ch=1 n=e5 v=0
256738 On ch=1 n=e6 v=0
256740 On ch=1 n=c#5 v=0
256746 On ch=1 n=e4 v=0
256746 On ch=1 n=g#4 v=0
256748 On ch=1 n=g#6 v=0
256794 On ch=1 n=g#6 v=94
256876 On ch=1 n=g#6 v=0
256882 On ch=1 n=g#7 v=113
256884 Par ch=1 c=64 v=0
256890 On ch=1 n=e7 v=103
256890 On ch=1 n=c3 v=102
256892 On ch=1 n=c4 v=115
256934 Par ch=1 c=64 v=127
256940 On ch=1 n=g#7 v=0
256948 On ch=1 n=e7 v=0
256950 On ch=1 n=g#6 v=106
256968 On ch=1 n=c3 v=0
256976 On ch=1 n=g#6 v=0
256986 On ch=1 n=c4 v=0
257034 On ch=1 n=g#6 v=100
257056 On ch=1 n=e6 v=80
257100 On ch=1 n=g#6 v=0
257106 On ch=1 n=e6 v=0
257108 On ch=1 n=g#5 v=105
257180 On ch=1 n=e5 v=89
257184 On ch=1 n=g#6 v=92
257184 On ch=1 n=c5 v=96
257184 On ch=1 n=g#4 v=92
257184 On ch=1 n=e4 v=92
257192 On ch=1 n=g#5 v=0
257192 On ch=1 n=e6 v=93
257202 On ch=1 n=c5 v=0
257202 On ch=1 n=e5 v=0
257206 On ch=1 n=g#4 v=0
257208 On ch=1 n=e6 v=0
257208 On ch=1 n=e4 v=0
257216 On ch=1 n=g#6 v=0
257262 On ch=1 n=g#6 v=92
257332 Par ch=1 c=64 v=0
257340 On ch=1 n=g#7 v=118
257344 On ch=1 n=b3 v=98
257344 On ch=1 n=b2 v=80
257346 On ch=1 n=e7 v=106
257358 On ch=1 n=g#6 v=0
257388 Par ch=1 c=64 v=127
257398 On ch=1 n=g#7 v=0
257404 On ch=1 n=b2 v=0
257406 On ch=1 n=e7 v=0
257406 On ch=1 n=b3 v=0
257406 On ch=1 n=g#6 v=110
257432 On ch=1 n=g#6 v=0
257486 On ch=1 n=g#6 v=76
257496 On ch=1 n=e6 v=36
257544 On ch=1 n=e6 v=0
257552 On ch=1 n=g#5 v=105
257552 On ch=1 n=c#5 v=92
257552 On ch=1 n=e4 v=80
257552 On ch=1 n=c#4 v=80
257584 On ch=1 n=c#4 v=0
257584 On ch=1 n=e4 v=0
257584 On ch=1 n=c#5 v=0
257584 On ch=1 n=g#6 v=0
257606 On ch=1 n=g#5 v=0
257628 On ch=1 n=b4 v=113
257630 On ch=1 n=g#4 v=106
257634 On ch=1 n=a6 v=100
257634 On ch=1 n=e6 v=106
257634 On ch=1 n=b3 v=101
257658 On ch=1 n=b4 v=0
257660 On ch=1 n=g#4 v=0
257664 On ch=1 n=b3 v=0
257690 On ch=1 n=e6 v=0
257698 On ch=1 n=a5 v=70
257702 On ch=1 n=a6 v=0
257762 On ch=1 n=a5 v=0
257780 On ch=1 n=g#6 v=100
257780 Par ch=1 c=64 v=0
257786 On ch=1 n=b6 v=97
257786 On ch=1 n=b3 v=74
257792 On ch=1 n=b2 v=80
257832 Par ch=1 c=64 v=127
257848 On ch=1 n=b3 v=0
257848 On ch=1 n=b6 v=0
257848 On ch=1 n=b5 v=86
257850 On ch=1 n=g#6 v=0
257852 On ch=1 n=b2 v=0
257888 On ch=1 n=b5 v=0
257924 Par ch=1 c=64 v=0
257928 On ch=1 n=e6 v=103
257936 On ch=1 n=g#5 v=113
257936 On ch=1 n=b4 v=98
257936 On ch=1 n=g#4 v=103
257944 On ch=1 n=b3 v=80
257964 Par ch=1 c=64 v=127
257986 On ch=1 n=e6 v=0
257998 On ch=1 n=e5 v=89
258004 On ch=1 n=b3 v=0
258006 On ch=1 n=g#4 v=0
258006 On ch=1 n=g#5 v=0
258008 On ch=1 n=b4 v=0
258056 On ch=1 n=e5 v=0
258082 Par ch=1 c=64 v=0
258088 On ch=1 n=f#6 v=118
258088 On ch=1 n=a5 v=102
258096 On ch=1 n=b4 v=93
258096 On ch=1 n=a4 v=80
258096 On ch=1 n=f#4 v=89
258096 On ch=1 n=b3 v=95
258134 Par ch=1 c=64 v=127
258152 On ch=1 n=a5 v=0
258156 On ch=1 n=b3 v=0
258156 On ch=1 n=f#4 v=0
258156 On ch=1 n=a4 v=0
258156 On ch=1 n=b4 v=0
258170 On ch=1 n=f#6 v=0
258178 On ch=1 n=f#5 v=101
258228 On ch=1 n=f#5 v=0
258248 On ch=1 n=g#6 v=105
258248 Par ch=1 c=64 v=0
258256 On ch=1 n=e6 v=98
258258 On ch=1 n=e4 v=97
258264 On ch=1 n=b5 v=86
258264 On ch=1 n=e3 v=101
258302 On ch=1 n=b5 v=0
258308 Par ch=1 c=64 v=127
258336 On ch=1 n=g#5 v=105
258342 On ch=1 n=e6 v=0
258348 On ch=1 n=e3 v=0
258360 On ch=1 n=g#6 v=0
258364 On ch=1 n=e4 v=0
258400 On ch=1 n=b5 v=80
258408 On ch=1 n=g#5 v=0
258408 On ch=1 n=e6 v=93
258412 On ch=1 n=g#6 v=94
258430 On ch=1 n=b5 v=0
258438 On ch=1 n=e6 v=0
258442 On ch=1 n=g#6 v=0
258476 On ch=1 n=g#6 v=103
258556 On ch=1 n=g#6 v=0
258562 On ch=1 n=g#7 v=110
258566 On ch=1 n=e4 v=96
258570 On ch=1 n=b6 v=101
258570 On ch=1 n=e5 v=98
258570 On ch=1 n=b4 v=100
258574 On ch=1 n=e7 v=100
258580 On ch=1 n=g#4 v=86
258586 On ch=1 n=g#4 v=0
258592 On ch=1 n=e5 v=0
258600 On ch=1 n=b4 v=0
258606 On ch=1 n=b6 v=0
258606 On ch=1 n=e4 v=0
258612 On ch=1 n=g#7 v=0
258616 On ch=1 n=e7 v=0
258626 On ch=1 n=g#6 v=110
258644 On ch=1 n=g#6 v=0
258728 On ch=1 n=g#6 v=101
258734 On ch=1 n=c6 v=97
258734 On ch=1 n=d#3 v=105
258738 On ch=1 n=e6 v=105
258738 On ch=1 n=d#4 v=120
258742 Par ch=1 c=64 v=0
258802 On ch=1 n=g#5 v=101
258806 Par ch=1 c=64 v=127
258814 On ch=1 n=c6 v=0
258820 On ch=1 n=e6 v=0
258838 On ch=1 n=g#6 v=0
258854 On ch=1 n=d#3 v=0
258870 On ch=1 n=d#4 v=0
258872 On ch=1 n=e6 v=63
258876 On ch=1 n=c6 v=89
258878 On ch=1 n=g#6 v=88
258880 On ch=1 n=e6 v=0
258882 On ch=1 n=g#5 v=0
258890 On ch=1 n=c6 v=0
258916 On ch=1 n=g#6 v=0
258950 On ch=1 n=g#6 v=108
259024 On ch=1 n=g#6 v=0
259032 On ch=1 n=g#7 v=117
259036 On ch=1 n=e7 v=103
259036 On ch=1 n=e5 v=110
259036 On ch=1 n=d#4 v=93
259040 On ch=1 n=g#4 v=80
259044 On ch=1 n=c7 v=95
259044 On ch=1 n=c5 v=100
259060 On ch=1 n=c5 v=0
259062 On ch=1 n=e5 v=0
259070 On ch=1 n=g#4 v=0
259072 On ch=1 n=d#4 v=0
259076 On ch=1 n=g#7 v=0
259084 On ch=1 n=c7 v=0
259084 On ch=1 n=e7 v=0
259096 On ch=1 n=g#6 v=105
259112 On ch=1 n=g#6 v=0
259192 On ch=1 n=e6 v=101
259192 On ch=1 n=c#6 v=80
259198 On ch=1 n=g#6 v=98
259204 Par ch=1 c=64 v=0
259212 On ch=1 n=c#4 v=123
259212 On ch=1 n=c#3 v=103
259256 Par ch=1 c=64 v=127
259262 On ch=1 n=c#6 v=0
259268 On ch=1 n=g#6 v=0
259270 On ch=1 n=e6 v=0
259274 On ch=1 n=c#3 v=0
259280 On ch=1 n=g#5 v=100
259286 On ch=1 n=c#4 v=0
259336 On ch=1 n=g#5 v=0
259352 On ch=1 n=e6 v=80
259352 On ch=1 n=c#6 v=80
259354 On ch=1 n=g#6 v=87
259382 On ch=1 n=c#6 v=0
259382 On ch=1 n=e6 v=0
259398 On ch=1 n=g#6 v=0
259424 On ch=1 n=c#7 v=101
259456 On ch=1 n=g#4 v=102
259474 On ch=1 n=c#7 v=0
259494 On ch=1 n=e5 v=93
259506 On ch=1 n=g#4 v=0
259524 On ch=1 n=c#8 v=117
259528 On ch=1 n=e5 v=0
259528 On ch=1 n=c#6 v=80
259532 On ch=1 n=e7 v=103
259588 On ch=1 n=c#6 v=0
259606 On ch=1 n=c#8 v=0
259620 On ch=1 n=e7 v=0
259626 On ch=1 n=c#7 v=110
259668 Par ch=1 c=64 v=0
259688 On ch=1 n=c#8 v=103
259688 On ch=1 n=c#4 v=106
259692 On ch=1 n=a7 v=100
259696 On ch=1 n=c#5 v=123
259706 On ch=1 n=c#7 v=0
259734 Par ch=1 c=64 v=127
259764 On ch=1 n=c#8 v=0
259770 On ch=1 n=a7 v=0
259770 On ch=1 n=c#7 v=103
259812 On ch=1 n=c#4 v=0
259822 On ch=1 n=c#7 v=0
259826 On ch=1 n=c#5 v=0
259852 On ch=1 n=b7 v=96
259852 On ch=1 n=g#7 v=88
259908 On ch=1 n=g#7 v=0
259910 On ch=1 n=b6 v=103
259916 On ch=1 n=b7 v=0
259936 On ch=1 n=b6 v=0
259948 On ch=1 n=a4 v=89
259974 On ch=1 n=c#5 v=94
259992 On ch=1 n=a4 v=0
259996 On ch=1 n=f#5 v=90
260016 On ch=1 n=a7 v=103
260022 On ch=1 n=f#7 v=98
260026 On ch=1 n=c#5 v=0
260026 On ch=1 n=c#6 v=120
260034 On ch=1 n=f#5 v=0
260066 On ch=1 n=f#7 v=0
260066 On ch=1 n=a7 v=0
260076 On ch=1 n=c#6 v=0
260086 On ch=1 n=a6 v=57
260142 On ch=1 n=a6 v=0
260168 On ch=1 n=c#5 v=103
260168 On ch=1 n=c#4 v=115
260174 On ch=1 n=g#7 v=98
260180 Par ch=1 c=64 v=0
260196 On ch=1 n=e7 v=39
260232 Par ch=1 c=64 v=127
260262 On ch=1 n=e7 v=0
260262 On ch=1 n=g#6 v=89
260266 On ch=1 n=g#7 v=0
260298 On ch=1 n=c#4 v=0
260298 On ch=1 n=c#5 v=0
260310 On ch=1 n=g#6 v=0
260336 Par ch=1 c=64 v=0
260340 On ch=1 n=g#7 v=105
260340 On ch=1 n=c#6 v=96
260348 On ch=1 n=e7 v=103
260348 On ch=1 n=e5 v=87
260376 On ch=1 n=c#6 v=0
260380 Par ch=1 c=64 v=127
260390 On ch=1 n=e5 v=0
260406 On ch=1 n=e7 v=0
260412 On ch=1 n=g#7 v=0
260418 On ch=1 n=g#6 v=108
260464 On ch=1 n=g#6 v=0
260484 Par ch=1 c=64 v=0
260492 On ch=1 n=a#7 v=92
260496 On ch=1 n=e7 v=94
260502 On ch=1 n=f#5 v=102
260502 On ch=1 n=f#4 v=93
260522 Par ch=1 c=64 v=127
260552 On ch=1 n=a#6 v=101
260558 On ch=1 n=e7 v=0
260592 On ch=1 n=a#7 v=0
260620 On ch=1 n=a#6 v=0
260632 On ch=1 n=f#4 v=0
260632 On ch=1 n=f#5 v=0
260638 Par ch=1 c=64 v=0
260648 On ch=1 n=b7 v=97
260648 On ch=1 n=b3 v=100
260654 On ch=1 n=b4 v=100
260658 On ch=1 n=e7 v=101
260688 Par ch=1 c=64 v=127
260716 On ch=1 n=b7 v=0
260722 On ch=1 n=b6 v=92
260726 On ch=1 n=e7 v=0
260760 On ch=1 n=b6 v=0
260778 On ch=1 n=b3 v=0
260784 On ch=1 n=b4 v=0
260792 On ch=1 n=d#7 v=100
260798 On ch=1 n=f#7 v=100
260804 On ch=1 n=b5 v=78
260804 Par ch=1 c=64 v=0
260814 On ch=1 n=d#5 v=79
260842 On ch=1 n=b5 v=0
260850 Par ch=1 c=64 v=127
260864 On ch=1 n=d#5 v=0
260868 On ch=1 n=d#7 v=0
260874 On ch=1 n=f#7 v=0
260878 On ch=1 n=f#6 v=102
260938 On ch=1 n=f#6 v=0
260948 Par ch=1 c=64 v=0
260958 On ch=1 n=g#7 v=108
260962 On ch=1 n=e5 v=95
260964 On ch=1 n=d7 v=101
260964 On ch=1 n=e4 v=86
260994 Par ch=1 c=64 v=127
261022 On ch=1 n=g#6 v=100
261032 On ch=1 n=d7 v=0
261064 On ch=1 n=g#7 v=0
261088 On ch=1 n=g#6 v=0
261092 On ch=1 n=e5 v=0
261094 On ch=1 n=e4 v=0
261100 Par ch=1 c=64 v=0
261110 On ch=1 n=a7 v=101
261110 On ch=1 n=d7 v=101
261120 On ch=1 n=a4 v=89
261128 On ch=1 n=a3 v=94
261150 Par ch=1 c=64 v=127
261172 On ch=1 n=a7 v=0
261176 On ch=1 n=a6 v=96
261182 On ch=1 n=d7 v=0
261214 On ch=1 n=a6 v=0
261246 Par ch=1 c=64 v=0
261250 On ch=1 n=a4 v=0
261256 On ch=1 n=c#7 v=100
261258 On ch=1 n=a3 v=0
261260 On ch=1 n=e7 v=100
261264 On ch=1 n=a5 v=95
261264 On ch=1 n=c#5 v=58
261302 Par ch=1 c=64 v=127
261312 On ch=1 n=c#5 v=0
261312 On ch=1 n=a5 v=0
261322 On ch=1 n=e6 v=97
261336 On ch=1 n=c#7 v=0
261340 On ch=1 n=e7 v=0
261376 On ch=1 n=e6 v=0
261396 Par ch=1 c=64 v=0
261402 On ch=1 n=f#7 v=90
261408 On ch=1 n=d#5 v=88
261412 On ch=1 n=d#4 v=87
261414 On ch=1 n=c#7 v=96
261438 Par ch=1 c=64 v=127
261480 On ch=1 n=f#6 v=39
261482 On ch=1 n=f#7 v=0
261490 On ch=1 n=c#7 v=0
261534 On ch=1 n=f#6 v=0
261538 On ch=1 n=d#5 v=0
261542 On ch=1 n=d#4 v=0
261544 Par ch=1 c=64 v=0
261554 On ch=1 n=g#7 v=115
261560 On ch=1 n=c#7 v=98
261560 On ch=1 n=g#3 v=94
261562 On ch=1 n=g#4 v=115
261592 Par ch=1 c=64 v=127
261616 On ch=1 n=g#6 v=101
261618 On ch=1 n=g#7 v=0
261624 On ch=1 n=c#7 v=0
261654 On ch=1 n=g#6 v=0
261688 Par ch=1 c=64 v=0
261690 On ch=1 n=g#3 v=0
261692 On ch=1 n=g#4 v=0
261696 On ch=1 n=c7 v=94
261702 On ch=1 n=d#7 v=92
261706 On ch=1 n=g#5 v=110
261706 On ch=1 n=c5 v=94
261724 Par ch=1 c=64 v=127
261750 On ch=1 n=c5 v=0
261750 On ch=1 n=g#5 v=0
261774 On ch=1 n=d#6 v=87
261794 On ch=1 n=c7 v=0
261800 On ch=1 n=d#7 v=0
261834 On ch=1 n=d#6 v=0
261846 Par ch=1 c=64 v=0
261856 On ch=1 n=f7 v=103
261858 On ch=1 n=b6 v=97
261860 On ch=1 n=c#5 v=108
261860 On ch=1 n=c#4 v=95
261898 Par ch=1 c=64 v=127
261914 On ch=1 n=f6 v=86
261918 On ch=1 n=b6 v=0
261934 On ch=1 n=f7 v=0
261982 On ch=1 n=f6 v=0
261990 On ch=1 n=c#4 v=0
261990 On ch=1 n=c#5 v=0
261994 Par ch=1 c=64 v=0
262004 On ch=1 n=f#7 v=117
262010 On ch=1 n=b6 v=98
262010 On ch=1 n=f#4 v=103
262010 On ch=1 n=f#3 v=100
262044 Par ch=1 c=64 v=127
262070 On ch=1 n=f#6 v=103
262072 On ch=1 n=b6 v=0
262076 On ch=1 n=f#7 v=0
262110 On ch=1 n=f#6 v=0
262140 On ch=1 n=f#3 v=0
262140 On ch=1 n=f#4 v=0
262146 Par ch=1 c=64 v=0
262158 On ch=1 n=f#5 v=100
262158 On ch=1 n=a#4 v=89
262160 On ch=1 n=c#7 v=98
262160 On ch=1 n=a#6 v=87
262178 Par ch=1 c=64 v=127
262196 On ch=1 n=a#4 v=0
262196 On ch=1 n=f#5 v=0
262214 On ch=1 n=c#6 v=96
262222 On ch=1 n=a#6 v=0
262228 On ch=1 n=c#7 v=0
262274 On ch=1 n=c#6 v=0
262286 Par ch=1 c=64 v=0
262298 On ch=1 n=d#7 v=103
262304 On ch=1 n=b4 v=96
262308 On ch=1 n=a6 v=94
262310 On ch=1 n=b3 v=94
262336 Par ch=1 c=64 v=127
262366 On ch=1 n=d#6 v=103
262368 On ch=1 n=a6 v=0
262372 On ch=1 n=d#7 v=0
262430 On ch=1 n=d#6 v=0
262434 On ch=1 n=b4 v=0
262438 Par ch=1 c=64 v=0
262440 On ch=1 n=b3 v=0
262452 On ch=1 n=e7 v=101
262456 On ch=1 n=a6 v=100
262458 On ch=1 n=e4 v=103
262458 On ch=1 n=e3 v=100
262488 Par ch=1 c=64 v=127
262512 On ch=1 n=e7 v=0
262518 On ch=1 n=e6 v=94
262524 On ch=1 n=a6 v=0
262558 On ch=1 n=e6 v=0
262588 On ch=1 n=e3 v=0
262588 On ch=1 n=e4 v=0
262588 Par ch=1 c=64 v=0
262598 On ch=1 n=e5 v=83
262600 On ch=1 n=g#6 v=103
262602 On ch=1 n=b6 v=101
262602 On ch=1 n=g#4 v=81
262638 On ch=1 n=e5 v=0
262638 Par ch=1 c=64 v=127
262644 On ch=1 n=g#4 v=0
262662 On ch=1 n=b5 v=101
262678 On ch=1 n=g#6 v=0
262680 On ch=1 n=b6 v=0
262718 On ch=1 n=b5 v=0
262744 On ch=1 n=c#7 v=108
262744 Par ch=1 c=64 v=0
262752 On ch=1 n=g#6 v=96
262752 On ch=1 n=a#4 v=90
262752 On ch=1 n=a#3 v=96
262784 Par ch=1 c=64 v=127
262814 On ch=1 n=g#6 v=0
262818 On ch=1 n=c#6 v=77
262826 On ch=1 n=c#7 v=0
262882 On ch=1 n=a#3 v=0
262882 On ch=1 n=a#4 v=0
262884 On ch=1 n=c#6 v=0
262888 Par ch=1 c=64 v=0
262898 On ch=1 n=d#7 v=113
262902 On ch=1 n=g#6 v=100
262902 On ch=1 n=d#3 v=94
262906 On ch=1 n=d#4 v=117
262928 Par ch=1 c=64 v=127
262966 On ch=1 n=d#6 v=96
262968 On ch=1 n=d#7 v=0
262978 On ch=1 n=g#6 v=0
263010 On ch=1 n=d#6 v=0
263032 On ch=1 n=d#3 v=0
263036 On ch=1 n=d#4 v=0
263036 Par ch=1 c=64 v=0
263048 On ch=1 n=a#6 v=108
263048 On ch=1 n=g6 v=78
263048 On ch=1 n=d#5 v=106
263054 On ch=1 n=g4 v=93
263074 Par ch=1 c=64 v=127
263080 On ch=1 n=d#5 v=0
263086 On ch=1 n=g4 v=0
263124 On ch=1 n=a#5 v=86
263136 On ch=1 n=g6 v=0
263136 On ch=1 n=a#6 v=0
263174 On ch=1 n=a#5 v=0
263192 Par ch=1 c=64 v=0
263198 On ch=1 n=c7 v=98
263204 On ch=1 n=f#6 v=100
263204 On ch=1 n=g#3 v=96
263206 On ch=1 n=g#4 v=106
263230 Par ch=1 c=64 v=127
263264 On ch=1 n=c7 v=0
263268 On ch=1 n=f#6 v=0
263270 On ch=1 n=c6 v=85
263334 On ch=1 n=g#3 v=0
263336 On ch=1 n=g#4 v=0
263344 Par ch=1 c=64 v=0
263348 On ch=1 n=c6 v=0
263350 On ch=1 n=c#7 v=113
263358 On ch=1 n=f#6 v=101
263360 On ch=1 n=c#4 v=106
263360 On ch=1 n=c#3 v=95
263394 Par ch=1 c=64 v=127
263416 On ch=1 n=c#6 v=101
263420 On ch=1 n=c#7 v=0
263428 On ch=1 n=f#6 v=0
263462 On ch=1 n=c#6 v=0
263490 On ch=1 n=c#3 v=0
263490 On ch=1 n=c#4 v=0
263500 On ch=1 n=g#6 v=93
263500 On ch=1 n=f4 v=72
263504 On ch=1 n=c#5 v=76
263504 Par ch=1 c=64 v=0
263510 On ch=1 n=f6 v=94
263546 On ch=1 n=c#5 v=0
263552 On ch=1 n=f4 v=0
263552 Par ch=1 c=64 v=127
263570 On ch=1 n=g#6 v=0
263572 On ch=1 n=g#5 v=98
263578 On ch=1 n=f6 v=0
263628 On ch=1 n=g#5 v=0
263660 Par ch=1 c=64 v=0
263664 On ch=1 n=a#6 v=105
263666 On ch=1 n=e6 v=100
263674 On ch=1 n=f#4 v=103
263674 On ch=1 n=f#3 v=92
263718 Par ch=1 c=64 v=127
263728 On ch=1 n=a#5 v=100
263736 On ch=1 n=e6 v=0
263778 On ch=1 n=a#6 v=0
263790 On ch=1 n=a#5 v=0
263804 On ch=1 n=f#3 v=0
263804 On ch=1 n=f#4 v=0
263836 On ch=1 n=d#6 v=106
263836 On ch=1 n=b5 v=106
263838 On ch=1 n=b6 v=98
263844 On ch=1 n=b3 v=108
263848 On ch=1 n=b2 v=80
263848 Par ch=1 c=64 v=0
263946 Par ch=1 c=64 v=127
263956 On ch=1 n=b6 v=0
263986 On ch=1 n=d#6 v=0
264000 On ch=1 n=b5 v=0
264008 On ch=1 n=b3 v=0
264012 On ch=1 n=b2 v=0
264170 On ch=1 n=b4 v=96
264194 Par ch=1 c=64 v=0
264322 On ch=1 n=a#2 v=72
264384 On ch=1 n=b2 v=71
264394 Par ch=1 c=64 v=127
264410 On ch=1 n=a#2 v=0
264456 On ch=1 n=b3 v=84
264470 On ch=1 n=b2 v=0
264516 On ch=1 n=b3 v=0
264528 On ch=1 n=b2 v=70
264552 On ch=1 n=b4 v=0
264616 On ch=1 n=b2 v=0
264618 On ch=1 n=b3 v=86
264624 On ch=1 n=b4 v=95
264694 On ch=1 n=b2 v=44
264722 On ch=1 n=b3 v=0
264730 Par ch=1 c=64 v=0
264790 On ch=1 n=a#2 v=68
264806 On ch=1 n=b2 v=0
264862 On ch=1 n=b2 v=57
264876 On ch=1 n=b4 v=0
264898 On ch=1 n=a#2 v=0
264926 Par ch=1 c=64 v=127
264938 On ch=1 n=b3 v=71
264956 On ch=1 n=b2 v=0
265002 On ch=1 n=b3 v=0
265006 On ch=1 n=b2 v=55
265082 On ch=1 n=b4 v=92
265086 On ch=1 n=b3 v=91
265088 On ch=1 n=b2 v=0
265090 Par ch=1 c=64 v=0
265152 On ch=1 n=b2 v=72
265178 On ch=1 n=b3 v=0
265228 On ch=1 n=a#2 v=52
265240 On ch=1 n=b2 v=0
265270 Par ch=1 c=64 v=127
265296 On ch=1 n=b2 v=78
265324 On ch=1 n=a#2 v=0
265354 On ch=1 n=b4 v=0
265372 On ch=1 n=b3 v=74
265392 On ch=1 n=b2 v=0
265444 On ch=1 n=b2 v=59
265450 On ch=1 n=b3 v=0
265518 On ch=1 n=b4 v=86
265518 On ch=1 n=b3 v=90
265526 On ch=1 n=b2 v=0
265586 On ch=1 n=b2 v=65
265606 Par ch=1 c=64 v=0
265612 On ch=1 n=b3 v=0
265664 On ch=1 n=a#2 v=46
265676 On ch=1 n=b2 v=0
265700 Par ch=1 c=64 v=127
265730 On ch=1 n=b2 v=74
265744 On ch=1 n=b4 v=0
265762 On ch=1 n=a#2 v=0
265802 On ch=1 n=b3 v=82
265822 On ch=1 n=b2 v=0
265870 On ch=1 n=b3 v=0
265876 On ch=1 n=b2 v=63
265946 On ch=1 n=g#5 v=76
265948 On ch=1 n=b3 v=84
265952 On ch=1 n=d#5 v=66
265956 On ch=1 n=b2 v=0
265956 On ch=1 n=a4 v=60
266020 On ch=1 n=b2 v=65
266040 On ch=1 n=b3 v=0
266056 Par ch=1 c=64 v=0
266104 On ch=1 n=d#5 v=0
266110 On ch=1 n=a#2 v=48
266112 On ch=1 n=b4 v=77
266114 On ch=1 n=g#5 v=0
266118 On ch=1 n=b2 v=0
266138 On ch=1 n=a4 v=0
266162 Par ch=1 c=64 v=127
266178 On ch=1 n=b2 v=55
266200 On ch=1 n=a#2 v=0
266256 On ch=1 n=b3 v=72
266266 On ch=1 n=b2 v=0
266324 On ch=1 n=b3 v=0
266330 On ch=1 n=b2 v=71
266400 On ch=1 n=f#5 v=71
266404 On ch=1 n=b3 v=80
266408 On ch=1 n=b2 v=0
266408 On ch=1 n=d#5 v=67
266414 On ch=1 n=b4 v=0
266414 On ch=1 n=a4 v=58
266476 On ch=1 n=b2 v=65
266488 On ch=1 n=b3 v=0
266496 Par ch=1 c=64 v=0
266540 On ch=1 n=f#5 v=0
266544 On ch=1 n=d#5 v=0
266544 On ch=1 n=a#2 v=58
266550 On ch=1 n=b2 v=0
266558 On ch=1 n=b4 v=73
266584 Par ch=1 c=64 v=127
266588 On ch=1 n=a4 v=0
266614 On ch=1 n=b2 v=77
266640 On ch=1 n=a#2 v=0
266688 On ch=1 n=b3 v=72
266700 On ch=1 n=b2 v=0
266752 On ch=1 n=b3 v=0
266766 On ch=1 n=b2 v=69
266830 On ch=1 n=b4 v=0
266834 On ch=1 n=b2 v=0
266834 On ch=1 n=b3 v=80
266840 On ch=1 n=e5 v=68
266840 On ch=1 n=g#4 v=87
266902 On ch=1 n=b2 v=61
266940 On ch=1 n=b3 v=0
266942 On ch=1 n=e5 v=0
266948 On ch=1 n=f#5 v=63
266954 Par ch=1 c=64 v=0
266976 On ch=1 n=b2 v=0
266976 On ch=1 n=a#2 v=45
266980 On ch=1 n=e5 v=79
266998 On ch=1 n=f#5 v=0
267030 Par ch=1 c=64 v=127
267056 On ch=1 n=b2 v=72
267100 On ch=1 n=a#2 v=0
267132 On ch=1 n=d#5 v=63
267134 On ch=1 n=b3 v=77
267138 On ch=1 n=e5 v=0
267150 On ch=1 n=b2 v=0
267208 On ch=1 n=b2 v=68
267218 On ch=1 n=b3 v=0
267274 On ch=1 n=c#5 v=72
267284 On ch=1 n=d#5 v=0
267288 On ch=1 n=b3 v=90
267296 On ch=1 n=b2 v=0
267306 On ch=1 n=g#4 v=0
267354 On ch=1 n=b2 v=71
267372 On ch=1 n=b3 v=0
267402 Par ch=1 c=64 v=0
267416 On ch=1 n=g4 v=66
267420 On ch=1 n=c#5 v=0
267422 On ch=1 n=a#2 v=59
267428 On ch=1 n=b2 v=0
267484 On ch=1 n=b2 v=72
267490 Par ch=1 c=64 v=127
267518 On ch=1 n=a#2 v=0
267564 On ch=1 n=b3 v=54
267574 On ch=1 n=b2 v=0
267580 On ch=1 n=g4 v=0
267630 On ch=1 n=b3 v=0
267638 On ch=1 n=b2 v=53
267710 On ch=1 n=d#5 v=72
267714 On ch=1 n=b2 v=0
267714 On ch=1 n=b3 v=78
267718 On ch=1 n=e4 v=73
267788 On ch=1 n=b2 v=67
267808 On ch=1 n=b3 v=0
267808 Par ch=1 c=64 v=0
267824 On ch=1 n=d#5 v=0
267852 On ch=1 n=g4 v=71
267862 On ch=1 n=a#2 v=57
267870 On ch=1 n=b2 v=0
267904 Par ch=1 c=64 v=127
267912 On ch=1 n=e4 v=0
267930 On ch=1 n=b2 v=55
267962 On ch=1 n=a#2 v=0
268000 On ch=1 n=b3 v=71
268006 On ch=1 n=b2 v=0
268070 On ch=1 n=b2 v=62
268072 On ch=1 n=b3 v=0
268134 On ch=1 n=c#5 v=68
268140 On ch=1 n=b3 v=88
268142 On ch=1 n=b2 v=0
268148 On ch=1 n=e4 v=64
268176 On ch=1 n=g4 v=0
268208 On ch=1 n=b2 v=60
268226 On ch=1 n=b3 v=0
268246 Par ch=1 c=64 v=0
268286 On ch=1 n=a#2 v=50
268292 On ch=1 n=g4 v=66
268298 On ch=1 n=b2 v=0
268322 On ch=1 n=c#5 v=0
268350 Par ch=1 c=64 v=127
268356 On ch=1 n=b2 v=80
268402 On ch=1 n=a#2 v=0
268412 On ch=1 n=e4 v=0
268430 On ch=1 n=b3 v=37
268440 On ch=1 n=b2 v=0
268494 On ch=1 n=b3 v=0
268498 On ch=1 n=b2 v=64
268568 On ch=1 n=b4 v=65
268568 On ch=1 n=b3 v=83
268574 On ch=1 n=b2 v=0
268580 On ch=1 n=e4 v=65
268582 On ch=1 n=g4 v=0
268640 On ch=1 n=b2 v=55
268672 Par ch=1 c=64 v=0
268680 On ch=1 n=b3 v=0
268718 On ch=1 n=a#2 v=69
268720 On ch=1 n=b2 v=0
268748 Par ch=1 c=64 v=127
268776 On ch=1 n=b2 v=73
268822 On ch=1 n=a#2 v=0
268826 On ch=1 n=e4 v=0
268852 On ch=1 n=a4 v=71
268852 On ch=1 n=f#4 v=69
268858 On ch=1 n=b2 v=0
268870 On ch=1 n=b3 v=37
268914 On ch=1 n=b2 v=83
268922 On ch=1 n=b3 v=0
268976 On ch=1 n=a4 v=0
268976 On ch=1 n=g4 v=79
268984 On ch=1 n=b3 v=81
268986 On ch=1 n=f#4 v=0
268994 On ch=1 n=e4 v=65
269028 On ch=1 n=b2 v=0
269064 On ch=1 n=b2 v=72
269098 Par ch=1 c=64 v=0
269124 On ch=1 n=b2 v=0
269124 On ch=1 n=b3 v=0
269128 On ch=1 n=g4 v=0
269142 On ch=1 n=b4 v=89
269142 On ch=1 n=b2 v=59
269144 On ch=1 n=b3 v=59
269152 On ch=1 n=f#4 v=81
269154 On ch=1 n=e4 v=0
269190 Par ch=1 c=64 v=127
269204 On ch=1 n=b3 v=0
269212 On ch=1 n=f#3 v=53
269240 On ch=1 n=b2 v=0
269244 On ch=1 n=f#4 v=0
269258 On ch=1 n=f#3 v=0
269258 On ch=1 n=b4 v=0
269292 On ch=1 n=f#4 v=72
269350 On ch=1 n=f#4 v=0
269358 On ch=1 n=f#3 v=56
269398 On ch=1 n=f#3 v=0
269416 On ch=1 n=c#5 v=83
269416 On ch=1 n=f#4 v=56
269466 On ch=1 n=f#3 v=60
269474 On ch=1 n=f#4 v=0
269538 On ch=1 n=f#3 v=0
269544 Par ch=1 c=64 v=0
269552 On ch=1 n=a4 v=61
269552 On ch=1 n=b2 v=66
269554 On ch=1 n=c#5 v=0
269556 On ch=1 n=d#5 v=71
269558 On ch=1 n=b4 v=0
269600 Par ch=1 c=64 v=127
269610 On ch=1 n=a4 v=0
269612 On ch=1 n=b2 v=0
269636 On ch=1 n=a3 v=62
269698 On ch=1 n=a3 v=0
269704 On ch=1 n=a4 v=66
269706 On ch=1 n=e5 v=67
269714 On ch=1 n=d#5 v=0
269754 On ch=1 n=a4 v=0
269774 On ch=1 n=a3 v=55
269830 On ch=1 n=a3 v=0
269840 On ch=1 n=f#5 v=73
269840 On ch=1 n=a4 v=68
269844 On ch=1 n=e5 v=0
269886 On ch=1 n=a4 v=0
269890 On ch=1 n=a3 v=58
269932 On ch=1 n=a3 v=0
269960 Par ch=1 c=64 v=0
269978 On ch=1 n=f#5 v=0
269984 On ch=1 n=g#5 v=78
269984 On ch=1 n=g#4 v=71
269984 On ch=1 n=b2 v=87
269988 On ch=1 n=e5 v=79
270020 Par ch=1 c=64 v=127
270034 On ch=1 n=g#4 v=0
270050 On ch=1 n=b2 v=0
270054 On ch=1 n=g#3 v=64
270092 On ch=1 n=e5 v=0
270104 On ch=1 n=g#3 v=0
270126 On ch=1 n=g#4 v=83
270148 On ch=1 n=g#5 v=0
270176 On ch=1 n=g#4 v=0
270192 On ch=1 n=g#3 v=63
270236 On ch=1 n=g#3 v=0
270256 On ch=1 n=g#4 v=68
270266 On ch=1 n=c#6 v=97
270296 On ch=1 n=a#4 v=83
270304 On ch=1 n=g#3 v=59
270306 On ch=1 n=g#4 v=0
270330 On ch=1 n=c#6 v=0
270354 On ch=1 n=a#4 v=0
270360 On ch=1 n=a#4 v=66
270362 On ch=1 n=g#3 v=0
270370 On ch=1 n=e5 v=78
270384 Par ch=1 c=64 v=0
270400 On ch=1 n=b2 v=57
270408 On ch=1 n=c#6 v=102
270456 Par ch=1 c=64 v=127
270476 On ch=1 n=g3 v=70
270484 On ch=1 n=b2 v=0
270540 On ch=1 n=g3 v=0
270568 On ch=1 n=g4 v=77
270608 On ch=1 n=g4 v=0
270632 On ch=1 n=g3 v=48
270682 On ch=1 n=g3 v=0
270704 On ch=1 n=g4 v=66
270756 On ch=1 n=g3 v=58
270760 On ch=1 n=g4 v=0
270760 Par ch=1 c=64 v=0
270826 Par ch=1 c=64 v=127
270832 On ch=1 n=b2 v=68
270842 On ch=1 n=g3 v=0
270896 On ch=1 n=g3 v=60
270898 On ch=1 n=b2 v=0
270910 On ch=1 n=a#4 v=0
270930 On ch=1 n=e5 v=0
270944 On ch=1 n=c#6 v=0
270956 On ch=1 n=g3 v=0
270984 On ch=1 n=g4 v=51
271028 On ch=1 n=g4 v=0
271048 On ch=1 n=g3 v=59
271096 On ch=1 n=g3 v=0
271120 On ch=1 n=e5 v=72
271120 On ch=1 n=b4 v=68
271120 On ch=1 n=g4 v=65
271128 On ch=1 n=b5 v=78
271146 Par ch=1 c=64 v=0
271168 On ch=1 n=g3 v=51
271172 On ch=1 n=g4 v=0
271206 Par ch=1 c=64 v=127
271248 On ch=1 n=b2 v=67
271254 On ch=1 n=g3 v=0
271304 On ch=1 n=g3 v=73
271320 On ch=1 n=b2 v=0
271324 On ch=1 n=b5 v=0
271368 On ch=1 n=g4 v=74
271370 On ch=1 n=g3 v=0
271382 On ch=1 n=b4 v=0
271402 On ch=1 n=e5 v=0
271414 On ch=1 n=g4 v=0
271424 On ch=1 n=g3 v=47
271472 On ch=1 n=g3 v=0
271504 On ch=1 n=a#5 v=74
271504 On ch=1 n=e5 v=66
271504 On ch=1 n=c#5 v=77
271508 On ch=1 n=g4 v=61
271552 On ch=1 n=g4 v=0
271592 On ch=1 n=g3 v=34
271622 On ch=1 n=c#5 v=0
271622 On ch=1 n=e5 v=0
271622 On ch=1 n=a#5 v=0
271646 On ch=1 n=g3 v=0
271682 Par ch=1 c=64 v=0
271700 On ch=1 n=c#6 v=70
271700 On ch=1 n=d#5 v=63
271704 On ch=1 n=c#5 v=84
271704 On ch=1 n=b2 v=79
271746 Par ch=1 c=64 v=127
271816 On ch=1 n=f#3 v=65
271824 On ch=1 n=c#6 v=0
271828 On ch=1 n=c#5 v=0
271864 On ch=1 n=f#4 v=68
271886 On ch=1 n=f#3 v=0
271912 On ch=1 n=f4 v=68
271934 On ch=1 n=f#4 v=0
271968 On ch=1 n=b5 v=69
271968 On ch=1 n=b4 v=62
271968 On ch=1 n=e4 v=67
271976 On ch=1 n=d#5 v=0
271984 Par ch=1 c=64 v=0
272008 On ch=1 n=f4 v=0
272008 On ch=1 n=d#4 v=66
272038 On ch=1 n=e4 v=0
272086 On ch=1 n=d4 v=65
272092 On ch=1 n=d#4 v=0
272136 On ch=1 n=b2 v=0
272150 On ch=1 n=c#4 v=64
272160 On ch=1 n=d4 v=0
272216 On ch=1 n=c#4 v=0
272222 On ch=1 n=c4 v=77
272280 On ch=1 n=b3 v=77
272286 On ch=1 n=c4 v=0
272322 On ch=1 n=b5 v=0
272344 On ch=1 n=c5 v=97
272348 On ch=1 n=a#3 v=76
272362 On ch=1 n=b3 v=0
272416 On ch=1 n=a3 v=75
272432 On ch=1 n=a#3 v=0
272482 On ch=1 n=g#3 v=74
272496 On ch=1 n=a3 v=0
272528 On ch=1 n=b4 v=0
272544 On ch=1 n=g3 v=73
272550 On ch=1 n=g#3 v=0
272602 On ch=1 n=f#3 v=72
272608 On ch=1 n=g3 v=0
272664 On ch=1 n=f#3 v=0
272672 On ch=1 n=f3 v=71
272728 On ch=1 n=a5 v=81
272728 On ch=1 n=a#4 v=83
272730 On ch=1 n=e3 v=70
272734 On ch=1 n=f3 v=0
272734 On ch=1 n=c5 v=0
272782 On ch=1 n=d#3 v=69
272804 On ch=1 n=e3 v=0
272848 On ch=1 n=a5 v=0
272864 On ch=1 n=d3 v=68
272868 On ch=1 n=c5 v=73
272872 On ch=1 n=d#3 v=0
272882 On ch=1 n=a#4 v=0
272936 On ch=1 n=c#3 v=67
272942 On ch=1 n=d3 v=0
273004 On ch=1 n=c3 v=66
273008 On ch=1 n=c#3 v=0
273072 On ch=1 n=b2 v=65
273106 On ch=1 n=c3 v=0
273124 On ch=1 n=c5 v=0
273132 On ch=1 n=g5 v=74
273136 On ch=1 n=b2 v=0
273136 On ch=1 n=a#4 v=34
273136 On ch=1 n=d3 v=64
273196 On ch=1 n=d3 v=0
273212 On ch=1 n=c3 v=63
273258 On ch=1 n=a#4 v=0
273260 On ch=1 n=c3 v=0
273268 On ch=1 n=c5 v=83
273272 On ch=1 n=b2 v=78
273282 On ch=1 n=g5 v=0
273336 On ch=1 n=b2 v=0
273344 On ch=1 n=c3 v=82
273404 On ch=1 n=c3 v=0
273414 On ch=1 n=c4 v=81
273464 On ch=1 n=c4 v=0
273490 On ch=1 n=c3 v=81
273548 On ch=1 n=c3 v=0
273548 On ch=1 n=f5 v=79
273548 On ch=1 n=a4 v=76
273548 On ch=1 n=c4 v=80
273554 On ch=1 n=c5 v=0
273602 On ch=1 n=c3 v=80
273618 On ch=1 n=c4 v=0
273628 On ch=1 n=f5 v=0
273660 On ch=1 n=c3 v=0
273666 On ch=1 n=g5 v=73
273696 On ch=1 n=f5 v=83
273698 On ch=1 n=b2 v=79
273720 On ch=1 n=g5 v=0
273760 On ch=1 n=c3 v=79
273768 On ch=1 n=b2 v=0
273832 On ch=1 n=c3 v=0
273836 On ch=1 n=c4 v=78
273848 On ch=1 n=e5 v=76
273868 On ch=1 n=f5 v=0
273910 On ch=1 n=c3 v=77
273912 On ch=1 n=c4 v=0
273976 On ch=1 n=c4 v=77
273982 On ch=1 n=c3 v=0
273994 On ch=1 n=d5 v=64
274008 On ch=1 n=e5 v=0
274038 On ch=1 n=c3 v=76
274064 On ch=1 n=d5 v=0
274064 On ch=1 n=c4 v=0
274066 Par ch=1 c=64 v=127
274122 On ch=1 n=c3 v=0
274122 Par ch=1 c=64 v=0
274126 On ch=1 n=a4 v=0
274128 On ch=1 n=g#4 v=90
274136 On ch=1 n=b2 v=76
274192 On ch=1 n=c3 v=75
274206 On ch=1 n=b2 v=0
274262 On ch=1 n=c3 v=0
274266 On ch=1 n=c4 v=75
274328 On ch=1 n=c4 v=0
274332 On ch=1 n=c3 v=74
274408 On ch=1 n=c4 v=73
274412 On ch=1 n=c5 v=78
274416 On ch=1 n=c3 v=0
274416 On ch=1 n=e5 v=83
274420 On ch=1 n=g#4 v=0
274420 On ch=1 n=f4 v=79
274478 On ch=1 n=c3 v=73
274492 On ch=1 n=c4 v=0
274548 On ch=1 n=c3 v=0
274562 On ch=1 n=c5 v=0
274564 On ch=1 n=b2 v=72
274568 On ch=1 n=e5 v=0
274570 On ch=1 n=g#4 v=78
274602 On ch=1 n=f4 v=0
274632 On ch=1 n=c3 v=72
274656 On ch=1 n=b2 v=0
274702 On ch=1 n=c4 v=71
274718 On ch=1 n=c3 v=0
274770 On ch=1 n=c4 v=0
274778 On ch=1 n=c3 v=70
274824 On ch=1 n=d5 v=80
274830 On ch=1 n=b4 v=54
274830 On ch=1 n=f4 v=65
274840 On ch=1 n=c4 v=70
274844 On ch=1 n=c3 v=0
274850 On ch=1 n=g#4 v=0
274898 On ch=1 n=b2 v=69
274914 On ch=1 n=c4 v=0
274948 On ch=1 n=d5 v=0
274954 On ch=1 n=b4 v=0
274976 On ch=1 n=d5 v=80
274976 On ch=1 n=b4 v=80
274976 On ch=1 n=c3 v=69
274982 On ch=1 n=g#4 v=41
274984 On ch=1 n=b2 v=0
275046 On ch=1 n=c3 v=0
275046 On ch=1 n=c3 v=68
275072 On ch=1 n=f4 v=0
275122 On ch=1 n=c4 v=68
275130 On ch=1 n=c3 v=0
275178 On ch=1 n=c4 v=0
275190 On ch=1 n=c3 v=67
275236 On ch=1 n=c4 v=67
275248 On ch=1 n=c5 v=60
275254 On ch=1 n=c3 v=0
275260 On ch=1 n=f4 v=65
275274 On ch=1 n=b4 v=0
275274 On ch=1 n=d5 v=0
275280 On ch=1 n=g#4 v=0
275300 On ch=1 n=c3 v=66
275306 On ch=1 n=c4 v=0
275376 On ch=1 n=c3 v=0
275378 On ch=1 n=b2 v=66
275448 On ch=1 n=c3 v=65
275468 On ch=1 n=b2 v=0
275500 On ch=1 n=f4 v=0
275506 On ch=1 n=c4 v=65
275520 On ch=1 n=c3 v=0
275524 On ch=1 n=a#4 v=87
275526 On ch=1 n=g4 v=86
275562 On ch=1 n=c4 v=0
275572 Par ch=1 c=64 v=127
275576 On ch=1 n=c3 v=64
275614 On ch=1 n=g4 v=0
275638 On ch=1 n=c3 v=0
275648 On ch=1 n=c4 v=63
275652 On ch=1 n=g#4 v=87
275658 On ch=1 n=f4 v=76
275676 On ch=1 n=a#4 v=0
275704 On ch=1 n=f4 v=0
275708 On ch=1 n=c3 v=63
275744 On ch=1 n=c4 v=0
275762 On ch=1 n=c3 v=0
275790 On ch=1 n=g#4 v=0
275794 Par ch=1 c=64 v=0
275804 On ch=1 n=c3 v=74
275808 On ch=1 n=g4 v=83
275810 On ch=1 n=c5 v=88
275858 Par ch=1 c=64 v=127
275880 On ch=1 n=g3 v=72
275886 On ch=1 n=g4 v=0
275888 On ch=1 n=c4 v=63
275890 On ch=1 n=c3 v=0
275924 On ch=1 n=c5 v=0
275940 On ch=1 n=c5 v=0
275942 On ch=1 n=g3 v=0
275952 On ch=1 n=g4 v=68
275960 On ch=1 n=c4 v=0
276010 On ch=1 n=g4 v=0
276010 On ch=1 n=g3 v=64
276048 On ch=1 n=g3 v=0
276072 On ch=1 n=g4 v=72
276074 On ch=1 n=d5 v=92
276128 On ch=1 n=g4 v=0
276128 On ch=1 n=g3 v=69
276142 On ch=1 n=d5 v=0
276202 Par ch=1 c=64 v=0
276212 On ch=1 n=g3 v=0
276214 On ch=1 n=e5 v=94
276214 On ch=1 n=c#5 v=80
276214 On ch=1 n=a#4 v=82
276214 On ch=1 n=c3 v=60
276264 Par ch=1 c=64 v=127
276274 On ch=1 n=c3 v=0
276276 On ch=1 n=a#3 v=89
276286 On ch=1 n=a#4 v=0
276352 On ch=1 n=f5 v=83
276352 On ch=1 n=a#4 v=98
276380 On ch=1 n=a#3 v=0
276388 On ch=1 n=c#5 v=0
276396 On ch=1 n=e5 v=0
276408 On ch=1 n=a#4 v=0
276432 On ch=1 n=a#3 v=81
276474 On ch=1 n=a#3 v=0
276500 On ch=1 n=g5 v=89
276504 On ch=1 n=a#4 v=83
276514 On ch=1 n=f5 v=0
276540 On ch=1 n=a#3 v=67
276544 On ch=1 n=a#4 v=0
276636 Par ch=1 c=64 v=0
276648 On ch=1 n=a5 v=96
276650 On ch=1 n=c5 v=77
276650 On ch=1 n=c3 v=58
276652 On ch=1 n=a#3 v=0
276652 On ch=1 n=f#5 v=95
276662 On ch=1 n=g5 v=0
276692 On ch=1 n=c3 v=0
276704 Par ch=1 c=64 v=127
276712 On ch=1 n=a3 v=68
276772 On ch=1 n=a4 v=83
276778 On ch=1 n=a3 v=0
276830 On ch=1 n=a4 v=0
276844 On ch=1 n=a3 v=49
276890 On ch=1 n=f#5 v=0
276892 On ch=1 n=a3 v=0
276896 On ch=1 n=d6 v=93
276898 On ch=1 n=a4 v=70
276934 On ch=1 n=a4 v=0
276938 On ch=1 n=c5 v=0
276940 On ch=1 n=a5 v=0
276960 On ch=1 n=d6 v=0
276960 On ch=1 n=c5 v=80
276976 On ch=1 n=a3 v=80
276990 On ch=1 n=c5 v=0
277008 On ch=1 n=c5 v=80
277026 On ch=1 n=a3 v=0
277032 On ch=1 n=f5 v=78
277044 Par ch=1 c=64 v=0
277070 On ch=1 n=d6 v=101
277074 On ch=1 n=c3 v=72
277140 On ch=1 n=c3 v=0
277146 On ch=1 n=g#3 v=97
277152 Par ch=1 c=64 v=127
277202 On ch=1 n=g#3 v=0
277214 On ch=1 n=g#4 v=87
277256 On ch=1 n=g#4 v=0
277272 On ch=1 n=g#3 v=68
277318 On ch=1 n=g#3 v=0
277328 On ch=1 n=g#4 v=81
277390 On ch=1 n=g#3 v=78
277396 On ch=1 n=g#4 v=0
277440 Par ch=1 c=64 v=0
277478 On ch=1 n=c3 v=88
277486 On ch=1 n=g#3 v=0
277500 Par ch=1 c=64 v=127
277542 On ch=1 n=d6 v=0
277542 On ch=1 n=g#3 v=84
277550 On ch=1 n=c3 v=0
277580 On ch=1 n=f5 v=0
277580 On ch=1 n=c5 v=0
277622 On ch=1 n=g#3 v=0
277628 On ch=1 n=g#4 v=85
277680 On ch=1 n=g#4 v=0
277692 On ch=1 n=g#3 v=73
277750 On ch=1 n=g#3 v=0
277760 On ch=1 n=g#4 v=73
277762 On ch=1 n=c6 v=96
277762 On ch=1 n=f5 v=86
277762 On ch=1 n=c5 v=94
277810 On ch=1 n=g#4 v=0
277812 On ch=1 n=g#3 v=78
277872 Par ch=1 c=64 v=0
277896 On ch=1 n=g#3 v=0
277896 On ch=1 n=c3 v=77
277932 Par ch=1 c=64 v=127
277970 On ch=1 n=g#3 v=78
277976 On ch=1 n=c5 v=0
277986 On ch=1 n=c3 v=0
277996 On ch=1 n=f5 v=0
277996 On ch=1 n=c6 v=0
278034 On ch=1 n=g#3 v=0
278060 On ch=1 n=g#4 v=79
278120 On ch=1 n=g#3 v=72
278128 On ch=1 n=g#4 v=0
278196 On ch=1 n=g#3 v=0
278196 On ch=1 n=f5 v=93
278196 On ch=1 n=g#4 v=71
278200 On ch=1 n=b5 v=94
278200 On ch=1 n=c#5 v=100
278260 On ch=1 n=g#3 v=68
278262 On ch=1 n=g#4 v=0
278274 On ch=1 n=f5 v=0
278278 On ch=1 n=c#5 v=0
278288 On ch=1 n=b5 v=0
278350 On ch=1 n=g#3 v=0
278364 On ch=1 n=c5 v=73
278364 On ch=1 n=c3 v=86
278368 On ch=1 n=b5 v=74
278368 On ch=1 n=f5 v=83
278374 Par ch=1 c=64 v=0
278460 On ch=1 n=g3 v=79
278482 Par ch=1 c=64 v=127
278504 On ch=1 n=g3 v=0
278530 On ch=1 n=g4 v=82
278594 On ch=1 n=f#4 v=81
278600 On ch=1 n=g4 v=0
278626 On ch=1 n=c5 v=0
278630 On ch=1 n=f5 v=0
278630 On ch=1 n=b5 v=0
278674 On ch=1 n=f4 v=80
278678 On ch=1 n=f#4 v=0
278680 On ch=1 n=c6 v=79
278680 On ch=1 n=e5 v=62
278734 On ch=1 n=e4 v=80
278752 On ch=1 n=f4 v=0
278800 Par ch=1 c=64 v=0
278804 On ch=1 n=d#4 v=79
278810 On ch=1 n=e4 v=0
278874 On ch=1 n=d#4 v=0
278876 On ch=1 n=d4 v=78
278928 On ch=1 n=c#4 v=77
278930 On ch=1 n=c3 v=0
278936 On ch=1 n=d4 v=0
278990 On ch=1 n=c#4 v=0
279004 On ch=1 n=c4 v=76
279018 On ch=1 n=e5 v=0
279056 On ch=1 n=b3 v=76
279064 On ch=1 n=d5 v=81
279066 On ch=1 n=c4 v=0
279072 On ch=1 n=c6 v=0
279124 On ch=1 n=a#3 v=75
279136 On ch=1 n=b3 v=0
279202 On ch=1 n=a3 v=74
279212 On ch=1 n=a#3 v=0
279268 On ch=1 n=g#3 v=73
279278 On ch=1 n=a3 v=0
279338 On ch=1 n=g3 v=72
279344 On ch=1 n=g#3 v=0
279414 On ch=1 n=f#3 v=71
279416 On ch=1 n=g3 v=0
279474 On ch=1 n=f#3 v=0
279478 On ch=1 n=f3 v=71
279480 On ch=1 n=a#5 v=77
279480 On ch=1 n=f#5 v=67
279480 On ch=1 n=c5 v=78
279498 On ch=1 n=d5 v=0
279536 On ch=1 n=e3 v=70
279546 On ch=1 n=f3 v=0
279606 On ch=1 n=d#3 v=69
279610 On ch=1 n=e3 v=0
279624 On ch=1 n=f#5 v=0
279624 On ch=1 n=a#5 v=0
279632 On ch=1 n=d5 v=78
279644 On ch=1 n=c5 v=0
279670 On ch=1 n=d#3 v=0
279672 On ch=1 n=d3 v=69
279756 On ch=1 n=c#3 v=68
279758 On ch=1 n=d3 v=0
279828 On ch=1 n=d3 v=67
279886 On ch=1 n=c#3 v=0
279920 On ch=1 n=a5 v=81
279920 On ch=1 n=d#3 v=66
279924 On ch=1 n=d3 v=0
279924 On ch=1 n=f#5 v=67
279924 On ch=1 n=c5 v=74
279928 On ch=1 n=d5 v=0
279976 On ch=1 n=d3 v=65
279986 On ch=1 n=d#3 v=0
280038 On ch=1 n=d3 v=0
280056 On ch=1 n=d5 v=80
280056 On ch=1 n=c#3 v=64
280090 On ch=1 n=c5 v=0
280092 On ch=1 n=a5 v=0
280096 On ch=1 n=f#5 v=0
280140 On ch=1 n=d3 v=63
280186 On ch=1 n=c#3 v=0
280192 On ch=1 n=d4 v=55
280206 On ch=1 n=d3 v=0
280278 On ch=1 n=d4 v=0
280280 On ch=1 n=d3 v=80
280302 On ch=1 n=d5 v=0
280340 On ch=1 n=d3 v=0
280344 On ch=1 n=g5 v=60
280344 On ch=1 n=d5 v=60
280344 On ch=1 n=a#4 v=75
280344 On ch=1 n=d4 v=56
280424 On ch=1 n=g5 v=0
280430 On ch=1 n=d4 v=0
280440 On ch=1 n=d3 v=75
280472 On ch=1 n=a5 v=64
280472 Par ch=1 c=64 v=127
280502 On ch=1 n=a#4 v=0
280502 On ch=1 n=d5 v=0
280520 On ch=1 n=g5 v=70
280520 On ch=1 n=c#3 v=72
280522 On ch=1 n=d3 v=0
280534 On ch=1 n=a5 v=0
280576 On ch=1 n=d3 v=69
280580 Par ch=1 c=64 v=0
280634 Par ch=1 c=64 v=127
280640 On ch=1 n=f5 v=61
280640 On ch=1 n=c5 v=54
280640 On ch=1 n=a4 v=54
280640 On ch=1 n=d4 v=57
280644 On ch=1 n=d3 v=0
280650 On ch=1 n=c#3 v=0
280690 On ch=1 n=g5 v=0
280712 On ch=1 n=d4 v=0
280716 On ch=1 n=d3 v=64
280734 Par ch=1 c=64 v=0
280776 Par ch=1 c=64 v=127
280790 On ch=1 n=c5 v=0
280792 On ch=1 n=d#5 v=60
280792 On ch=1 n=c5 v=58
280792 On ch=1 n=g4 v=58
280792 On ch=1 n=d4 v=58
280796 On ch=1 n=a4 v=0
280796 On ch=1 n=f5 v=0
280798 On ch=1 n=d3 v=0
280862 On ch=1 n=d4 v=0
280872 On ch=1 n=d3 v=81
280890 Par ch=1 c=64 v=0
280924 Par ch=1 c=64 v=127
280942 On ch=1 n=d3 v=0
280948 On ch=1 n=g4 v=0
280948 On ch=1 n=c5 v=0
280948 On ch=1 n=d#5 v=0
280964 On ch=1 n=c#3 v=80
280968 On ch=1 n=d5 v=71
280968 On ch=1 n=c5 v=70
280968 On ch=1 n=f#4 v=76
281034 Par ch=1 c=64 v=0
281068 On ch=1 n=d3 v=79
281094 On ch=1 n=c#3 v=0
281130 Par ch=1 c=64 v=127
281142 On ch=1 n=d3 v=0
281176 On ch=1 n=d4 v=60
281232 On ch=1 n=d4 v=0
281248 On ch=1 n=d3 v=78
281308 On ch=1 n=f#4 v=0
281308 On ch=1 n=c5 v=0
281308 On ch=1 n=d5 v=0
281312 On ch=1 n=e5 v=61
281312 On ch=1 n=d4 v=61
281316 On ch=1 n=d3 v=0
281316 On ch=1 n=c5 v=62
281316 On ch=1 n=g4 v=61
281384 On ch=1 n=d4 v=0
281388 On ch=1 n=d3 v=76
281430 Par ch=1 c=64 v=0
281466 On ch=1 n=d3 v=0
281468 On ch=1 n=e5 v=0
281472 On ch=1 n=g4 v=0
281472 On ch=1 n=c5 v=0
281476 On ch=1 n=f#5 v=59
281478 On ch=1 n=c5 v=68
281478 On ch=1 n=a4 v=59
281480 On ch=1 n=c#3 v=75
281490 Par ch=1 c=64 v=127
281552 On ch=1 n=d3 v=74
281610 On ch=1 n=c#3 v=0
281620 On ch=1 n=d3 v=0
281624 On ch=1 n=g5 v=67
281624 On ch=1 n=d5 v=55
281624 On ch=1 n=a#4 v=72
281624 On ch=1 n=d4 v=63
281632 On ch=1 n=f#5 v=0
281634 On ch=1 n=a4 v=0
281634 On ch=1 n=c5 v=0
281678 On ch=1 n=d3 v=73
281692 On ch=1 n=d4 v=0
281742 On ch=1 n=d3 v=0
281764 On ch=1 n=a#4 v=0
281764 On ch=1 n=d5 v=0
281764 On ch=1 n=g5 v=0
281772 On ch=1 n=d4 v=64
281776 On ch=1 n=a5 v=41
281776 On ch=1 n=f#5 v=55
281776 On ch=1 n=c5 v=60
281840 On ch=1 n=d3 v=71
281848 On ch=1 n=d4 v=0
281882 Par ch=1 c=64 v=0
281900 On ch=1 n=d3 v=0
281916 On ch=1 n=c5 v=0
281916 On ch=1 n=f#5 v=0
281916 On ch=1 n=a5 v=0
281916 On ch=1 n=a#5 v=81
281916 On ch=1 n=g5 v=62
281916 On ch=1 n=a#4 v=76
281920 On ch=1 n=c#3 v=70
281940 Par ch=1 c=64 v=127
281988 On ch=1 n=d3 v=69
282050 On ch=1 n=c#3 v=0
282054 On ch=1 n=a#4 v=0
282054 On ch=1 n=g5 v=0
282054 On ch=1 n=a#5 v=0
282056 On ch=1 n=d4 v=65
282068 On ch=1 n=d3 v=0
282120 On ch=1 n=d3 v=68
282122 On ch=1 n=d4 v=0
282200 On ch=1 n=d3 v=0
282216 On ch=1 n=d#5 v=80
282220 On ch=1 n=d#6 v=70
282220 On ch=1 n=c6 v=63
282220 On ch=1 n=d4 v=66
282270 Par ch=1 c=64 v=0
282276 On ch=1 n=d3 v=66
282286 On ch=1 n=d4 v=0
282334 On ch=1 n=d#5 v=0
282336 Par ch=1 c=64 v=127
282338 On ch=1 n=c6 v=0
282338 On ch=1 n=d#6 v=0
282344 On ch=1 n=d3 v=0
282388 On ch=1 n=d6 v=67
282388 On ch=1 n=a#5 v=69
282392 On ch=1 n=d5 v=69
282392 On ch=1 n=c#3 v=65
282468 On ch=1 n=d3 v=65
282522 On ch=1 n=c#3 v=0
282522 On ch=1 n=a#5 v=0
282522 On ch=1 n=d6 v=0
282526 On ch=1 n=d5 v=0
282528 On ch=1 n=d3 v=0
282544 On ch=1 n=d4 v=68
282610 On ch=1 n=d4 v=0
282612 On ch=1 n=d3 v=63
282676 On ch=1 n=c#6 v=68
282676 On ch=1 n=g5 v=68
282676 On ch=1 n=c#5 v=68
282676 On ch=1 n=d#4 v=68
282720 On ch=1 n=d3 v=0
282780 On ch=1 n=d#3 v=41
282802 Par ch=1 c=64 v=0
282864 On ch=1 n=d#4 v=0
282880 On ch=1 n=d#5 v=70
282880 On ch=1 n=d3 v=81
282884 On ch=1 n=d#3 v=0
282972 On ch=1 n=d#3 v=62
282974 On ch=1 n=c#5 v=0
283006 On ch=1 n=g5 v=0
283008 On ch=1 n=c#6 v=0
283010 On ch=1 n=d3 v=0
283014 Par ch=1 c=64 v=127
283034 On ch=1 n=d#3 v=0
283044 On ch=1 n=d#4 v=70
283108 On ch=1 n=d#4 v=0
283120 On ch=1 n=d#3 v=49
283138 On ch=1 n=d#5 v=0
283164 On ch=1 n=c6 v=71
283168 On ch=1 n=g5 v=71
283168 On ch=1 n=c#5 v=71
283168 On ch=1 n=d#4 v=71
283172 On ch=1 n=d#3 v=0
283238 On ch=1 n=d#4 v=0
283244 On ch=1 n=d#3 v=54
283326 On ch=1 n=d#3 v=0
283326 On ch=1 n=d#5 v=72
283326 Par ch=1 c=64 v=0
283334 On ch=1 n=d3 v=60
283396 On ch=1 n=d#3 v=60
283458 On ch=1 n=d#4 v=73
283460 On ch=1 n=d#3 v=0
283464 On ch=1 n=d3 v=0
283470 Par ch=1 c=64 v=127
283476 On ch=1 n=c6 v=0
283480 On ch=1 n=c#5 v=0
283480 On ch=1 n=g5 v=0
283524 On ch=1 n=d#3 v=62
283534 On ch=1 n=d#4 v=0
283576 On ch=1 n=a#5 v=75
283576 On ch=1 n=g5 v=75
283576 On ch=1 n=c#5 v=75
283584 On ch=1 n=d#4 v=73
283586 On ch=1 n=d#3 v=0
283612 On ch=1 n=d#5 v=0
283642 On ch=1 n=d#3 v=63
283662 On ch=1 n=d#4 v=0
283710 Par ch=1 c=64 v=0
283726 On ch=1 n=d#3 v=0
283748 On ch=1 n=d#5 v=76
283748 On ch=1 n=d3 v=64
283844 On ch=1 n=d#3 v=65
283858 Par ch=1 c=64 v=127
283878 On ch=1 n=d3 v=0
283896 On ch=1 n=g5 v=0
283896 On ch=1 n=a#5 v=0
283902 On ch=1 n=c#5 v=0
283918 On ch=1 n=d#3 v=0
283932 On ch=1 n=d#4 v=75
284008 On ch=1 n=d#3 v=66
284010 On ch=1 n=d#4 v=0
284076 On ch=1 n=d#4 v=76
284080 On ch=1 n=g#5 v=78
284080 On ch=1 n=c5 v=78
284082 On ch=1 n=d#3 v=0
284136 On ch=1 n=d#3 v=67
284150 On ch=1 n=d#4 v=0
284158 On ch=1 n=c5 v=0
284160 On ch=1 n=g#5 v=0
284166 On ch=1 n=a#5 v=79
284188 Par ch=1 c=64 v=0
284196 On ch=1 n=d#3 v=0
284200 On ch=1 n=g#5 v=79
284204 On ch=1 n=d3 v=68
284210 On ch=1 n=c5 v=79
284222 On ch=1 n=a#5 v=0
284246 Par ch=1 c=64 v=127
284260 On ch=1 n=g#5 v=0
284270 On ch=1 n=d#3 v=69
284272 On ch=1 n=c5 v=0
284280 On ch=1 n=d#5 v=0
284334 On ch=1 n=d3 v=0
284344 Par ch=1 c=64 v=0
284352 On ch=1 n=g5 v=80
284352 On ch=1 n=c#5 v=80
284352 On ch=1 n=a#4 v=80
284354 On ch=1 n=d#4 v=77
284360 On ch=1 n=d#3 v=0
284392 Par ch=1 c=64 v=127
284424 On ch=1 n=d#3 v=70
284436 On ch=1 n=d#4 v=0
284496 On ch=1 n=a#4 v=0
284496 On ch=1 n=c#5 v=0
284496 On ch=1 n=g5 v=0
284512 On ch=1 n=d#3 v=0
284512 On ch=1 n=d#4 v=78
284584 On ch=1 n=f5 v=82
284584 On ch=1 n=c#5 v=82
284584 On ch=1 n=g#4 v=82
284592 On ch=1 n=d#3 v=72
284594 On ch=1 n=d#4 v=0
284628 On ch=1 n=g#4 v=0
284644 On ch=1 n=c#5 v=0
284646 On ch=1 n=f5 v=0
284656 On ch=1 n=d#5 v=83
284656 On ch=1 n=c#5 v=83
284656 On ch=1 n=g4 v=83
284656 On ch=1 n=d3 v=72
284684 On ch=1 n=d#3 v=0
284684 Par ch=1 c=64 v=0
284740 On ch=1 n=d#3 v=73
284768 Par ch=1 c=64 v=127
284786 On ch=1 n=d3 v=0
284814 On ch=1 n=d#3 v=0
284814 On ch=1 n=d#4 v=80
284886 On ch=1 n=d#4 v=0
284892 On ch=1 n=d#3 v=75
284904 On ch=1 n=g4 v=0
284904 On ch=1 n=c#5 v=0
284904 On ch=1 n=d#5 v=0
284948 On ch=1 n=f5 v=85
284948 On ch=1 n=c#5 v=85
284948 On ch=1 n=g#4 v=85
284952 On ch=1 n=d#4 v=81
284980 On ch=1 n=d#3 v=0
285018 On ch=1 n=d#4 v=0
285024 On ch=1 n=d#3 v=76
285038 Par ch=1 c=64 v=0
285048 On ch=1 n=g#4 v=0
285048 On ch=1 n=f5 v=0
285084 On ch=1 n=d#3 v=0
285084 On ch=1 n=a#4 v=85
285084 On ch=1 n=d3 v=76
285086 Par ch=1 c=64 v=127
285088 On ch=1 n=g5 v=85
285088 On ch=1 n=d#5 v=85
285168 On ch=1 n=d#3 v=77
285188 On ch=1 n=c#5 v=0
285194 Par ch=1 c=64 v=0
285202 On ch=1 n=a#4 v=0
285206 On ch=1 n=d#5 v=0
285206 On ch=1 n=g5 v=0
285214 On ch=1 n=d3 v=0
285240 On ch=1 n=g#5 v=86
285240 On ch=1 n=d#5 v=86
285240 On ch=1 n=c5 v=86
285242 Par ch=1 c=64 v=127
285248 On ch=1 n=d#4 v=82
285268 On ch=1 n=d#3 v=0
285312 On ch=1 n=d#3 v=79
285322 On ch=1 n=d#4 v=0
285360 On ch=1 n=c5 v=0
285360 On ch=1 n=g#5 v=0
285364 On ch=1 n=d#4 v=83
285388 On ch=1 n=d#3 v=0
285424 On ch=1 n=a#5 v=87
285424 On ch=1 n=g5 v=87
285424 On ch=1 n=c#5 v=87
285424 On ch=1 n=d#3 v=80
285458 On ch=1 n=d#4 v=0
285482 On ch=1 n=c#5 v=0
285482 On ch=1 n=g5 v=0
285482 On ch=1 n=a#5 v=0
285486 On ch=1 n=d#3 v=0
285488 On ch=1 n=d#5 v=0
285494 Par ch=1 c=64 v=0
285504 On ch=1 n=d3 v=80
285512 On ch=1 n=c6 v=88
285512 On ch=1 n=g#5 v=88
285512 On ch=1 n=c5 v=88
285548 Par ch=1 c=64 v=127
285580 On ch=1 n=d#3 v=81
285614 On ch=1 n=c5 v=0
285618 On ch=1 n=g#5 v=0
285630 On ch=1 n=c6 v=0
285634 On ch=1 n=d3 v=0
285640 On ch=1 n=d#4 v=84
285652 On ch=1 n=d#3 v=0
285712 On ch=1 n=d#3 v=82
285738 On ch=1 n=d#4 v=0
285792 On ch=1 n=f6 v=91
285792 On ch=1 n=c#6 v=91
285792 On ch=1 n=f5 v=91
285792 On ch=1 n=d#4 v=85
285800 On ch=1 n=d#3 v=0
285862 On ch=1 n=f5 v=0
285862 On ch=1 n=c#6 v=0
285862 On ch=1 n=f6 v=0
285872 On ch=1 n=d#3 v=84
285896 Par ch=1 c=64 v=0
285918 On ch=1 n=d#4 v=0
285940 On ch=1 n=d#3 v=0
285944 On ch=1 n=d#6 v=92
285944 On ch=1 n=c6 v=92
285944 On ch=1 n=d#5 v=92
285952 On ch=1 n=d3 v=85
285952 Par ch=1 c=64 v=127
286024 On ch=1 n=d#3 v=85
286082 On ch=1 n=d3 v=0
286086 On ch=1 n=d#3 v=0
286088 On ch=1 n=c6 v=0
286088 On ch=1 n=d#6 v=0
286100 On ch=1 n=d#4 v=87
286110 On ch=1 n=d#5 v=0
286176 On ch=1 n=d#3 v=87
286190 On ch=1 n=d#4 v=0
286232 On ch=1 n=d6 v=93
286232 On ch=1 n=b5 v=93
286232 On ch=1 n=d5 v=93
286240 On ch=1 n=d#4 v=88
286262 On ch=1 n=d#3 v=0
286300 On ch=1 n=d#4 v=0
286344 On ch=1 n=d#3 v=89
286404 On ch=1 n=d#2 v=114
286422 Par ch=1 c=64 v=0
286464 On ch=1 n=d#3 v=0
286518 Par ch=1 c=64 v=127
286616 On ch=1 n=g#4 v=72
286672 On ch=1 n=a#4 v=73
286700 On ch=1 n=g#4 v=0
286710 On ch=1 n=d5 v=0
286710 On ch=1 n=b5 v=0
286710 On ch=1 n=d6 v=0
286754 On ch=1 n=b4 v=73
286756 On ch=1 n=a#4 v=0
286820 On ch=1 n=a#4 v=74
286824 On ch=1 n=c6 v=74
286826 On ch=1 n=d#6 v=74
286828 On ch=1 n=d#5 v=74
286844 On ch=1 n=b4 v=0
286870 On ch=1 n=d#5 v=0
286878 On ch=1 n=c6 v=0
286894 On ch=1 n=g#4 v=74
286902 On ch=1 n=d#6 v=0
286902 On ch=1 n=a#4 v=0
287000 On ch=1 n=g#4 v=0
287008 On ch=1 n=c#6 v=75
287008 On ch=1 n=d#4 v=75
287010 On ch=1 n=e6 v=75
287016 On ch=1 n=e5 v=75
287028 Par ch=1 c=64 v=0
287064 On ch=1 n=e5 v=0
287066 Par ch=1 c=64 v=127
287080 On ch=1 n=g#4 v=75
287084 On ch=1 n=c#6 v=0
287088 On ch=1 n=e6 v=0
287122 On ch=1 n=d#2 v=0
287144 On ch=1 n=f6 v=76
287144 On ch=1 n=d6 v=76
287152 On ch=1 n=f5 v=76
287158 On ch=1 n=a#4 v=76
287174 On ch=1 n=g#4 v=0
287186 On ch=1 n=f5 v=0
287194 On ch=1 n=f6 v=0
287196 On ch=1 n=d6 v=0
287234 On ch=1 n=b4 v=77
287236 On ch=1 n=a#4 v=0
287306 On ch=1 n=a#4 v=77
287312 On ch=1 n=f#6 v=77
287312 On ch=1 n=f#5 v=77
287316 On ch=1 n=d#6 v=77
287328 On ch=1 n=b4 v=0
287346 On ch=1 n=d#4 v=0
287360 On ch=1 n=d#6 v=0
287372 On ch=1 n=g#4 v=77
287376 On ch=1 n=f#5 v=0
287382 On ch=1 n=a#4 v=0
287390 On ch=1 n=f#6 v=0
287446 On ch=1 n=g#4 v=0
287474 Par ch=1 c=64 v=0
287480 On ch=1 n=g6 v=78
287480 On ch=1 n=g5 v=78
287480 On ch=1 n=d#3 v=78
287488 On ch=1 n=e6 v=78
287528 Par ch=1 c=64 v=127
287576 On ch=1 n=g#4 v=79
287606 On ch=1 n=g6 v=0
287624 On ch=1 n=g5 v=0
287626 On ch=1 n=e6 v=0
287638 On ch=1 n=a#4 v=79
287656 On ch=1 n=g#4 v=0
287700 On ch=1 n=b4 v=80
287702 On ch=1 n=a#4 v=0
287752 On ch=1 n=g#6 v=80
287752 On ch=1 n=f6 v=80
287752 On ch=1 n=g#5 v=80
287752 On ch=1 n=a#4 v=80
287776 On ch=1 n=b4 v=0
287800 On ch=1 n=g#5 v=0
287812 On ch=1 n=f6 v=0
287814 On ch=1 n=g#6 v=0
287818 On ch=1 n=g#4 v=80
287828 On ch=1 n=a#4 v=0
287882 On ch=1 n=g#4 v=0
287886 Par ch=1 c=64 v=0
287904 On ch=1 n=a6 v=81
287904 On ch=1 n=a5 v=81
287904 On ch=1 n=d#4 v=81
287910 On ch=1 n=f6 v=81
287946 Par ch=1 c=64 v=127
287956 On ch=1 n=a5 v=0
287964 On ch=1 n=g#4 v=81
287966 On ch=1 n=a6 v=0
287972 On ch=1 n=f6 v=0
288016 On ch=1 n=a#5 v=82
288022 On ch=1 n=a#4 v=82
288024 On ch=1 n=a#6 v=82
288024 On ch=1 n=f#6 v=82
288046 On ch=1 n=g#4 v=0
288082 On ch=1 n=a#5 v=0
288088 On ch=1 n=b4 v=82
288092 On ch=1 n=a#4 v=0
288104 On ch=1 n=f#6 v=0
288104 On ch=1 n=a#6 v=0
288116 On ch=1 n=d#3 v=0
288154 On ch=1 n=a#4 v=83
288178 On ch=1 n=b4 v=0
288206 On ch=1 n=g#4 v=83
288216 On ch=1 n=a#4 v=0
288216 On ch=1 n=g#6 v=83
288218 On ch=1 n=b5 v=83
288220 On ch=1 n=b6 v=83
288248 On ch=1 n=d#4 v=0
288264 On ch=1 n=b5 v=0
288266 On ch=1 n=b6 v=0
288272 Par ch=1 c=64 v=0
288276 On ch=1 n=g#6 v=0
288278 On ch=1 n=g#4 v=0
288288 On ch=1 n=d#4 v=80
288292 On ch=1 n=d#3 v=84
288296 On ch=1 n=b6 v=84
288296 On ch=1 n=g#6 v=84
288296 On ch=1 n=b5 v=84
288320 Par ch=1 c=64 v=127
288350 On ch=1 n=b6 v=0
288356 On ch=1 n=g#6 v=0
288358 On ch=1 n=b5 v=0
288382 On ch=1 n=g#4 v=84
288408 On ch=1 n=d#4 v=0
288444 On ch=1 n=a#4 v=85
288448 On ch=1 n=d6 v=85
288450 On ch=1 n=f6 v=85
288452 On ch=1 n=f5 v=85
288458 On ch=1 n=g#4 v=0
288504 On ch=1 n=a#4 v=0
288506 On ch=1 n=b4 v=85
288508 On ch=1 n=d6 v=0
288510 On ch=1 n=f6 v=0
288512 On ch=1 n=f5 v=0
288556 On ch=1 n=a#4 v=85
288560 On ch=1 n=f#6 v=85
288560 On ch=1 n=d#6 v=85
288564 On ch=1 n=f#5 v=85
288576 On ch=1 n=b4 v=0
288616 On ch=1 n=f#5 v=0
288620 On ch=1 n=d#6 v=0
288620 On ch=1 n=f#6 v=0
288642 Par ch=1 c=64 v=0
288670 On ch=1 n=a#4 v=0
288676 On ch=1 n=d#4 v=86
288678 On ch=1 n=g5 v=86
288680 On ch=1 n=e6 v=86
288682 On ch=1 n=g6 v=86
288708 Par ch=1 c=64 v=127
288744 On ch=1 n=g#4 v=87
288758 On ch=1 n=g5 v=0
288760 On ch=1 n=e6 v=0
288762 On ch=1 n=g6 v=0
288810 On ch=1 n=a#4 v=87
288820 On ch=1 n=d#3 v=0
288822 On ch=1 n=g#6 v=87
288824 On ch=1 n=g#5 v=87
288830 On ch=1 n=f6 v=87
288836 On ch=1 n=g#4 v=0
288872 On ch=1 n=b4 v=87
288880 On ch=1 n=a#4 v=0
288906 On ch=1 n=g#5 v=0
288910 On ch=1 n=g#6 v=0
288918 On ch=1 n=f6 v=0
288928 On ch=1 n=a#4 v=88
288940 On ch=1 n=a5 v=88
288944 On ch=1 n=f#6 v=88
288946 On ch=1 n=a6 v=88
288956 On ch=1 n=b4 v=0
288994 On ch=1 n=g#4 v=88
288998 On ch=1 n=a5 v=0
289004 On ch=1 n=a6 v=0
289004 On ch=1 n=f#6 v=0
289006 On ch=1 n=a#4 v=0
289020 On ch=1 n=d#4 v=0
289048 Par ch=1 c=64 v=0
289056 On ch=1 n=g6 v=89
289062 On ch=1 n=a#6 v=89
289064 On ch=1 n=g#4 v=0
289064 On ch=1 n=d#4 v=80
289068 On ch=1 n=a#5 v=89
289068 On ch=1 n=d#3 v=89
289094 Par ch=1 c=64 v=127
289150 On ch=1 n=g#4 v=89
289168 On ch=1 n=a#5 v=0
289172 On ch=1 n=g6 v=0
289178 On ch=1 n=a#6 v=0
289184 On ch=1 n=d#4 v=0
289206 On ch=1 n=a#4 v=90
289208 On ch=1 n=b6 v=90
289212 On ch=1 n=g#6 v=90
289216 On ch=1 n=b5 v=90
289226 On ch=1 n=g#4 v=0
289270 On ch=1 n=b6 v=0
289274 On ch=1 n=g#6 v=0
289278 On ch=1 n=b5 v=0
289282 On ch=1 n=a#4 v=0
289284 On ch=1 n=b4 v=90
289332 On ch=1 n=a#4 v=90
289336 On ch=1 n=g#6 v=91
289338 On ch=1 n=c7 v=91
289340 On ch=1 n=c6 v=91
289348 On ch=1 n=b4 v=0
289382 On ch=1 n=g#4 v=91
289396 On ch=1 n=g#6 v=0
289398 On ch=1 n=c7 v=0
289400 On ch=1 n=c6 v=0
289400 On ch=1 n=a#4 v=0
289446 On ch=1 n=g#4 v=0
289454 Par ch=1 c=64 v=0
289464 On ch=1 n=d5 v=91
289466 On ch=1 n=c#7 v=91
289472 On ch=1 n=g#6 v=91
289472 On ch=1 n=d#4 v=91
289476 On ch=1 n=c#6 v=91
289504 Par ch=1 c=64 v=127
289524 On ch=1 n=g#4 v=92
289532 On ch=1 n=d5 v=0
289560 On ch=1 n=c#6 v=0
289572 On ch=1 n=c#7 v=0
289578 On ch=1 n=g#6 v=0
289610 On ch=1 n=a#4 v=92
289616 On ch=1 n=d7 v=92
289616 On ch=1 n=g#6 v=92
289620 On ch=1 n=g#4 v=0
289620 On ch=1 n=d6 v=92
289676 On ch=1 n=g#6 v=0
289678 On ch=1 n=d7 v=0
289682 On ch=1 n=d6 v=0
289688 On ch=1 n=b4 v=93
289692 On ch=1 n=a#4 v=0
289784 On ch=1 n=g#6 v=94
289786 On ch=1 n=d#3 v=0
289786 On ch=1 n=f7 v=94
289786 On ch=1 n=a#4 v=94
289788 On ch=1 n=f6 v=94
289806 On ch=1 n=b4 v=0
289854 On ch=1 n=g#4 v=94
289864 On ch=1 n=g#6 v=0
289864 On ch=1 n=d#4 v=0
289866 On ch=1 n=f7 v=0
289868 On ch=1 n=f6 v=0
289868 On ch=1 n=a#4 v=0
289922 On ch=1 n=g#4 v=0
289958 Par ch=1 c=64 v=0
289970 On ch=1 n=d#7 v=96
289976 On ch=1 n=d#6 v=117
289982 On ch=1 n=d#3 v=84
289988 On ch=1 n=d#4 v=117
290028 Par ch=1 c=64 v=127
290100 On ch=1 n=d#6 v=0
290136 On ch=1 n=d#5 v=80
290136 On ch=1 n=c#5 v=92
290136 On ch=1 n=a#4 v=80
290140 On ch=1 n=a#6 v=80
290142 On ch=1 n=c#7 v=96
290142 On ch=1 n=g6 v=100
290142 On ch=1 n=g4 v=92
290160 On ch=1 n=d#7 v=0
290234 On ch=1 n=a#4 v=0
290234 On ch=1 n=c#5 v=0
290234 On ch=1 n=d#5 v=0
290238 On ch=1 n=a#6 v=0
290240 On ch=1 n=g4 v=0
290240 On ch=1 n=g6 v=0
290240 On ch=1 n=c#7 v=0
290242 On ch=1 n=d#3 v=0
290248 On ch=1 n=d#4 v=0
290304 On ch=1 n=f7 v=98
290304 On ch=1 n=f6 v=103
290304 On ch=1 n=d#5 v=90
290304 On ch=1 n=c#5 v=83
290304 On ch=1 n=a#4 v=80
290314 On ch=1 n=g5 v=81
290402 On ch=1 n=a#4 v=0
290402 On ch=1 n=c#5 v=0
290402 On ch=1 n=d#5 v=0
290402 On ch=1 n=f6 v=0
290402 On ch=1 n=f7 v=0
290412 On ch=1 n=g5 v=0
290456 On ch=1 n=d#7 v=100
290456 On ch=1 n=c#7 v=80
290456 On ch=1 n=a#5 v=102
290456 On ch=1 n=g5 v=80
290456 On ch=1 n=d#5 v=93
290456 On ch=1 n=c#5 v=93
290458 On ch=1 n=g7 v=101
290462 On ch=1 n=g6 v=103
290546 On ch=1 n=c#5 v=0
290546 On ch=1 n=d#5 v=0
290546 On ch=1 n=g5 v=0
290546 On ch=1 n=a#5 v=0
290546 On ch=1 n=c#7 v=0
290546 On ch=1 n=d#7 v=0
290548 On ch=1 n=g7 v=0
290552 On ch=1 n=g6 v=0
290608 On ch=1 n=g5 v=80
290608 On ch=1 n=c#5 v=89
290608 On ch=1 n=a#4 v=80
290612 On ch=1 n=g#7 v=102
290612 On ch=1 n=d#5 v=94
290618 On ch=1 n=g#6 v=117
290698 On ch=1 n=a#4 v=0
290698 On ch=1 n=c#5 v=0
290698 On ch=1 n=g5 v=0
290702 On ch=1 n=d#5 v=0
290702 On ch=1 n=g#7 v=0
290708 On ch=1 n=g#6 v=0
290760 On ch=1 n=a#6 v=125
290760 On ch=1 n=d#5 v=5
290760 On ch=1 n=c#5 v=83
290760 On ch=1 n=a#4 v=80
290760 On ch=1 n=g4 v=80
290764 On ch=1 n=a#7 v=106
290856 On ch=1 n=g4 v=0
290856 On ch=1 n=a#4 v=0
290856 On ch=1 n=c#5 v=0
290856 On ch=1 n=d#5 v=0
290856 On ch=1 n=a#6 v=0
290860 On ch=1 n=a#7 v=0
290912 On ch=1 n=g#2 v=80
290914 Par ch=1 c=64 v=0
290922 On ch=1 n=g#3 v=103
290926 On ch=1 n=c7 v=113
290928 On ch=1 n=c8 v=96
290966 Par ch=1 c=64 v=127
291054 On ch=1 n=c7 v=0
291056 On ch=1 n=c8 v=0
291074 On ch=1 n=g#4 v=51
291078 On ch=1 n=d#5 v=84
291080 On ch=1 n=g#7 v=100
291080 On ch=1 n=d#7 v=101
291164 On ch=1 n=d#7 v=0
291164 On ch=1 n=g#7 v=0
291172 On ch=1 n=g#2 v=0
291182 On ch=1 n=g#3 v=0
291186 On ch=1 n=g#4 v=0
291190 On ch=1 n=d#5 v=0
291230 On ch=1 n=c5 v=86
291232 On ch=1 n=f8 v=92
291232 On ch=1 n=f7 v=80
291236 On ch=1 n=g#5 v=113
291320 On ch=1 n=c5 v=0
291326 On ch=1 n=g#5 v=0
291360 On ch=1 n=d#5 v=80
291370 On ch=1 n=c6 v=86
291376 On ch=1 n=d#7 v=92
291380 On ch=1 n=d#8 v=115
291402 On ch=1 n=f7 v=0
291402 On ch=1 n=f8 v=0
291506 On ch=1 n=d#5 v=0
291516 On ch=1 n=d#7 v=0
291516 On ch=1 n=c6 v=0
291520 On ch=1 n=d#8 v=0
291528 On ch=1 n=c8 v=105
291534 On ch=1 n=g#7 v=92
291536 On ch=1 n=d#6 v=80
291536 On ch=1 n=g#5 v=80
291638 On ch=1 n=c8 v=0
291644 On ch=1 n=g#7 v=0
291646 On ch=1 n=g#5 v=0
291646 On ch=1 n=d#6 v=0
291672 On ch=1 n=d7 v=80
291672 On ch=1 n=g#6 v=80
291672 On ch=1 n=c6 v=80
291676 On ch=1 n=d8 v=94
291822 Par ch=1 c=64 v=0
291828 On ch=1 n=c6 v=0
291828 On ch=1 n=g#6 v=0
291828 On ch=1 n=d7 v=0
291830 On ch=1 n=d#3 v=100
291832 On ch=1 n=d8 v=0
291834 On ch=1 n=d#4 v=113
291838 On ch=1 n=c#8 v=93
291838 On ch=1 n=c#7 v=123
291840 On ch=1 n=g7 v=80
291872 Par ch=1 c=64 v=127
291932 On ch=1 n=c#7 v=0
291934 On ch=1 n=d#4 v=0
291954 On ch=1 n=c#8 v=0
291984 On ch=1 n=c7 v=103
291988 On ch=1 n=c8 v=86
292000 On ch=1 n=c#5 v=92
292000 On ch=1 n=d#4 v=49
292090 On ch=1 n=d#3 v=0
292100 On ch=1 n=d#4 v=0
292100 On ch=1 n=c#5 v=0
292104 On ch=1 n=a#6 v=120
292104 On ch=1 n=d#5 v=90
292112 On ch=1 n=a#7 v=80
292112 On ch=1 n=g4 v=80
292126 On ch=1 n=c8 v=0
292142 On ch=1 n=c7 v=0
292204 On ch=1 n=d#5 v=0
292212 On ch=1 n=g4 v=0
292218 On ch=1 n=c8 v=97
292240 On ch=1 n=a#6 v=0
292244 On ch=1 n=g7 v=93
292248 On ch=1 n=a#7 v=0
292248 On ch=1 n=a#6 v=113
292256 On ch=1 n=a#7 v=87
292256 On ch=1 n=g5 v=100
292256 On ch=1 n=c#5 v=98
292262 On ch=1 n=c8 v=0
292278 On ch=1 n=g7 v=0
292292 On ch=1 n=g7 v=0
292366 On ch=1 n=a#6 v=0
292374 On ch=1 n=a#7 v=0
292376 On ch=1 n=d#5 v=105
292380 On ch=1 n=g4 v=87
292384 On ch=1 n=a7 v=96
292384 On ch=1 n=f#7 v=101
292384 On ch=1 n=a6 v=101
292386 On ch=1 n=c#5 v=0
292386 On ch=1 n=g5 v=0
292496 On ch=1 n=d#5 v=0
292500 On ch=1 n=a6 v=0
292500 On ch=1 n=f#7 v=0
292500 On ch=1 n=a7 v=0
292500 On ch=1 n=g4 v=0
292512 On ch=1 n=a#7 v=82
292512 On ch=1 n=g7 v=80
292512 On ch=1 n=a#6 v=123
292520 On ch=1 n=c#5 v=103
292520 On ch=1 n=d#4 v=98
292602 Par ch=1 c=64 v=0
292614 On ch=1 n=a#6 v=0
292614 On ch=1 n=g7 v=0
292614 On ch=1 n=a#7 v=0
292630 On ch=1 n=d#4 v=0
292630 On ch=1 n=c#5 v=0
292640 On ch=1 n=c8 v=98
292640 On ch=1 n=g#7 v=55
292648 On ch=1 n=c7 v=105
292648 On ch=1 n=g#4 v=123
292648 On ch=1 n=g#3 v=103
292660 Par ch=1 c=64 v=127
292752 On ch=1 n=g#7 v=0
292752 On ch=1 n=c8 v=0
292760 On ch=1 n=c7 v=0
292784 On ch=1 n=c5 v=89
292792 On ch=1 n=g#7 v=72
292792 On ch=1 n=g#6 v=105
292792 On ch=1 n=d#4 v=80
292818 On ch=1 n=g#4 v=0
292900 On ch=1 n=c5 v=0
292908 On ch=1 n=d#4 v=0
292908 On ch=1 n=g#6 v=0
292908 On ch=1 n=g#7 v=0
292908 On ch=1 n=g#3 v=0
292920 On ch=1 n=f6 v=80
292920 On ch=1 n=d#5 v=80
292920 On ch=1 n=g#4 v=103
292928 On ch=1 n=f7 v=113
293030 On ch=1 n=g#4 v=0
293030 On ch=1 n=d#5 v=0
293034 On ch=1 n=f6 v=0
293040 On ch=1 n=f7 v=0
293056 On ch=1 n=d#7 v=102
293056 On ch=1 n=d#6 v=125
293056 On ch=1 n=c5 v=101
293056 On ch=1 n=d#4 v=79
293122 Par ch=1 c=64 v=0
293176 Par ch=1 c=64 v=127
293190 On ch=1 n=d#4 v=0
293190 On ch=1 n=c5 v=0
293190 On ch=1 n=d#7 v=0
293200 On ch=1 n=c7 v=98
293200 On ch=1 n=c6 v=108
293200 On ch=1 n=d#5 v=92
293200 On ch=1 n=g#4 v=94
293214 On ch=1 n=d#6 v=0
293286 Par ch=1 c=64 v=0
293356 On ch=1 n=g#4 v=0
293356 On ch=1 n=d#5 v=0
293356 On ch=1 n=c7 v=0
293368 On ch=1 n=c6 v=0
293392 On ch=1 n=f6 v=92
293392 On ch=1 n=f5 v=98
293392 On ch=1 n=c5 v=110
293392 On ch=1 n=c4 v=94
293424 On ch=1 n=c5 v=0
293426 On ch=1 n=c4 v=0
293428 On ch=1 n=f5 v=0
293428 On ch=1 n=f6 v=0
293448 On ch=1 n=d#5 v=103
293456 On ch=1 n=d#6 v=75
293462 On ch=1 n=c5 v=108
293462 On ch=1 n=c4 v=103
293474 Par ch=1 c=64 v=127
293570 On ch=1 n=d#5 v=0
293578 On ch=1 n=d#6 v=0
293584 On ch=1 n=c4 v=0
293584 On ch=1 n=c5 v=0
293608 On ch=1 n=a#3 v=96
293616 On ch=1 n=a#4 v=106
293620 On ch=1 n=c#6 v=85
293620 On ch=1 n=g5 v=93
293698 On ch=1 n=a#3 v=0
293706 On ch=1 n=a#4 v=0
293710 On ch=1 n=g5 v=0
293710 On ch=1 n=c#6 v=0
293736 On ch=1 n=c#6 v=80
293736 On ch=1 n=g#4 v=101
293744 On ch=1 n=f5 v=93
293744 On ch=1 n=g#3 v=106
293748 On ch=1 n=f6 v=105
293846 On ch=1 n=g#4 v=0
293846 On ch=1 n=c#6 v=0
293854 On ch=1 n=g#3 v=0
293854 On ch=1 n=f5 v=0
293858 On ch=1 n=f6 v=0
293862 Par ch=1 c=64 v=0
293872 On ch=1 n=d#6 v=80
293872 On ch=1 n=c#6 v=80
293878 On ch=1 n=g6 v=101
293878 On ch=1 n=g5 v=100
293878 On ch=1 n=g4 v=95
293884 On ch=1 n=g3 v=92
293902 Par ch=1 c=64 v=127
293982 On ch=1 n=c#6 v=0
293982 On ch=1 n=d#6 v=0
293988 On ch=1 n=g4 v=0
293988 On ch=1 n=g5 v=0
293988 On ch=1 n=g6 v=0
293990 On ch=1 n=f4 v=96
293992 On ch=1 n=d#6 v=80
293992 On ch=1 n=c#6 v=80
293994 On ch=1 n=g3 v=0
293996 On ch=1 n=g#5 v=108
293996 On ch=1 n=f3 v=62
294000 On ch=1 n=g#6 v=101
294100 On ch=1 n=f4 v=0
294102 On ch=1 n=c#6 v=0
294102 On ch=1 n=d#6 v=0
294104 On ch=1 n=d#3 v=80
294106 On ch=1 n=f3 v=0
294106 On ch=1 n=g#5 v=0
294110 On ch=1 n=g#6 v=0
294112 On ch=1 n=d#6 v=80
294112 On ch=1 n=c#6 v=80
294116 On ch=1 n=d#4 v=85
294118 On ch=1 n=a#5 v=103
294122 On ch=1 n=a#6 v=89
294222 On ch=1 n=c#6 v=0
294222 On ch=1 n=d#6 v=0
294224 On ch=1 n=d#3 v=0
294226 On ch=1 n=d#4 v=0
294228 On ch=1 n=a#5 v=0
294232 On ch=1 n=a#6 v=0
294250 On ch=1 n=g#3 v=94
294250 Par ch=1 c=64 v=0
294256 On ch=1 n=c7 v=93
294256 On ch=1 n=g#2 v=80
294262 On ch=1 n=c6 v=101
294300 Par ch=1 c=64 v=127
294368 On ch=1 n=c5 v=80
294378 On ch=1 n=d#4 v=97
294382 On ch=1 n=g#3 v=0
294382 On ch=1 n=g#6 v=96
294382 On ch=1 n=d#6 v=94
294388 On ch=1 n=g#2 v=0
294398 On ch=1 n=c6 v=0
294398 On ch=1 n=c7 v=0
294458 On ch=1 n=c5 v=0
294468 On ch=1 n=d#4 v=0
294472 On ch=1 n=d#6 v=0
294472 On ch=1 n=g#6 v=0
294520 On ch=1 n=f7 v=94
294520 On ch=1 n=f6 v=94
294520 On ch=1 n=d#5 v=55
294528 On ch=1 n=g#4 v=80
294608 On ch=1 n=d#5 v=0
294616 On ch=1 n=g#4 v=0
294632 On ch=1 n=d#7 v=94
294632 On ch=1 n=g#5 v=84
294632 On ch=1 n=c5 v=38
294636 On ch=1 n=f6 v=0
294636 On ch=1 n=f7 v=0
294638 On ch=1 n=d#6 v=120
294752 On ch=1 n=c7 v=94
294754 On ch=1 n=g#6 v=98
294768 On ch=1 n=d#7 v=0
294790 On ch=1 n=d#6 v=0
294854 On ch=1 n=c5 v=0
294854 On ch=1 n=g#5 v=0
294856 On ch=1 n=c7 v=0
294858 On ch=1 n=g#6 v=0
294878 On ch=1 n=d7 v=103
294880 On ch=1 n=d6 v=103
294988 On ch=1 n=d7 v=0
294990 On ch=1 n=d6 v=0
294992 Par ch=1 c=64 v=0
295016 On ch=1 n=g6 v=80
295016 On ch=1 n=d#4 v=94
295018 On ch=1 n=c#7 v=94
295024 On ch=1 n=d#3 v=93
295026 On ch=1 n=c#6 v=110
295056 Par ch=1 c=64 v=127
295126 On ch=1 n=d#4 v=0
295128 On ch=1 n=c#7 v=0
295128 On ch=1 n=c7 v=80
295136 On ch=1 n=c#6 v=0
295140 On ch=1 n=d#4 v=85
295144 On ch=1 n=c6 v=95
295150 On ch=1 n=d#5 v=96
295228 On ch=1 n=d#4 v=0
295238 On ch=1 n=d#5 v=0
295238 On ch=1 n=c7 v=0
295240 On ch=1 n=g4 v=80
295250 On ch=1 n=a#5 v=108
295252 On ch=1 n=e5 v=98
295254 On ch=1 n=c6 v=0
295258 On ch=1 n=a#6 v=108
295284 On ch=1 n=d#3 v=0
295328 On ch=1 n=g4 v=0
295340 On ch=1 n=e5 v=0
295346 On ch=1 n=a#5 v=0
295350 On ch=1 n=c7 v=88
295354 On ch=1 n=a#6 v=0
295356 Par ch=1 c=64 v=0
295374 On ch=1 n=c#5 v=108
295376 On ch=1 n=a#6 v=108
295376 On ch=1 n=f5 v=100
295382 On ch=1 n=a#5 v=108
295388 Par ch=1 c=64 v=127
295402 On ch=1 n=c7 v=0
295406 On ch=1 n=g6 v=0
295468 On ch=1 n=f5 v=0
295478 On ch=1 n=c#5 v=0
295488 On ch=1 n=a#6 v=0
295488 On ch=1 n=d#5 v=94
295494 On ch=1 n=a#5 v=0
295494 On ch=1 n=g4 v=95
295504 On ch=1 n=f#6 v=80
295504 On ch=1 n=a5 v=100
295506 On ch=1 n=a6 v=79
295566 On ch=1 n=d#5 v=0
295572 On ch=1 n=g4 v=0
295584 On ch=1 n=d#4 v=80
295596 On ch=1 n=c#5 v=105
295598 On ch=1 n=a5 v=0
295598 On ch=1 n=f#6 v=0
295598 On ch=1 n=a#5 v=115
295600 On ch=1 n=a#6 v=108
295600 On ch=1 n=g6 v=80
295602 On ch=1 n=a6 v=0
295674 On ch=1 n=d#4 v=0
295686 On ch=1 n=c#5 v=0
295692 On ch=1 n=g6 v=0
295692 On ch=1 n=a#5 v=0
295694 On ch=1 n=a#6 v=0
295706 Par ch=1 c=64 v=0
295736 On ch=1 n=g#3 v=97
295738 On ch=1 n=b6 v=93
295738 On ch=1 n=g6 v=95
295738 On ch=1 n=b5 v=98
295738 On ch=1 n=g#4 v=113
295766 Par ch=1 c=64 v=127
295826 On ch=1 n=g#3 v=0
295828 On ch=1 n=g#4 v=0
295828 On ch=1 n=b5 v=0
295828 On ch=1 n=g6 v=0
295828 On ch=1 n=b6 v=0
295856 On ch=1 n=c7 v=95
295856 On ch=1 n=g#6 v=80
295856 On ch=1 n=c6 v=103
295856 On ch=1 n=c5 v=95
295856 On ch=1 n=d#4 v=93
295944 On ch=1 n=g#4 v=80
295948 On ch=1 n=g#6 v=0
295950 On ch=1 n=d#4 v=0
295950 On ch=1 n=c5 v=0
295950 On ch=1 n=c6 v=0
295950 On ch=1 n=c7 v=0
295952 On ch=1 n=d#5 v=120
295962 On ch=1 n=f6 v=103
295974 On ch=1 n=f7 v=87
296052 On ch=1 n=g#4 v=0
296060 On ch=1 n=d#5 v=0
296060 On ch=1 n=c5 v=76
296066 On ch=1 n=g#5 v=89
296070 On ch=1 n=f6 v=0
296070 On ch=1 n=d#7 v=92
296070 On ch=1 n=d#6 v=118
296082 On ch=1 n=f7 v=0
296184 On ch=1 n=c5 v=0
296194 On ch=1 n=g#5 v=0
296196 On ch=1 n=g#6 v=93
296198 On ch=1 n=c7 v=84
296208 On ch=1 n=d#7 v=0
296222 On ch=1 n=d#6 v=0
296284 On ch=1 n=g#6 v=0
296286 On ch=1 n=c7 v=0
296308 On ch=1 n=d7 v=102
296308 On ch=1 n=d6 v=103
296408 On ch=1 n=d6 v=0
296408 On ch=1 n=d7 v=0
296428 Par ch=1 c=64 v=0
296440 On ch=1 n=g6 v=80
296440 On ch=1 n=d#4 v=113
296442 On ch=1 n=c#7 v=100
296448 On ch=1 n=d#3 v=105
296450 On ch=1 n=c#6 v=110
296484 Par ch=1 c=64 v=127
296550 On ch=1 n=d#4 v=0
296554 On ch=1 n=c#7 v=0
296562 On ch=1 n=c#6 v=0
296584 On ch=1 n=d#4 v=95
296592 On ch=1 n=c7 v=80
296596 On ch=1 n=c6 v=96
296598 On ch=1 n=d#5 v=82
296672 On ch=1 n=d#4 v=0
296688 On ch=1 n=d#5 v=0
296708 On ch=1 n=d#3 v=0
296710 On ch=1 n=e5 v=101
296712 On ch=1 n=c7 v=0
296712 On ch=1 n=a#6 v=103
296712 On ch=1 n=g4 v=98
296716 On ch=1 n=c6 v=0
296726 On ch=1 n=a#5 v=102
296794 On ch=1 n=g4 v=0
296798 On ch=1 n=e5 v=0
296798 On ch=1 n=c7 v=98
296804 On ch=1 n=a#6 v=0
296814 On ch=1 n=a#5 v=0
296816 On ch=1 n=f5 v=103
296816 On ch=1 n=c#5 v=98
296822 On ch=1 n=a#6 v=103
296830 On ch=1 n=a#5 v=108
296850 On ch=1 n=c7 v=0
296898 On ch=1 n=g6 v=0
296920 On ch=1 n=c#5 v=0
296920 On ch=1 n=f5 v=0
296926 On ch=1 n=a#6 v=0
296934 On ch=1 n=a#5 v=0
296944 On ch=1 n=f#6 v=80
296944 On ch=1 n=a5 v=100
296950 On ch=1 n=a6 v=90
296952 On ch=1 n=d#5 v=84
296952 On ch=1 n=g4 v=102
297032 On ch=1 n=a5 v=0
297032 On ch=1 n=f#6 v=0
297038 On ch=1 n=a6 v=0
297040 On ch=1 n=g4 v=0
297040 On ch=1 n=d#5 v=0
297046 On ch=1 n=a#5 v=115
297048 On ch=1 n=a#6 v=100
297048 On ch=1 n=g6 v=80
297048 On ch=1 n=d#4 v=55
297054 On ch=1 n=c#5 v=103
297156 On ch=1 n=a#5 v=0
297160 On ch=1 n=a#6 v=0
297168 On ch=1 n=d#4 v=0
297168 On ch=1 n=g6 v=0
297174 On ch=1 n=c#5 v=0
297190 Par ch=1 c=64 v=0
297200 On ch=1 n=a#6 v=97
297200 On ch=1 n=g6 v=80
297200 On ch=1 n=a#5 v=113
297200 On ch=1 n=d3 v=98
297206 On ch=1 n=d4 v=102
297252 Par ch=1 c=64 v=127
297290 On ch=1 n=a#5 v=0
297294 On ch=1 n=g6 v=0
297294 On ch=1 n=a#6 v=0
297316 On ch=1 n=d4 v=0
297328 On ch=1 n=b4 v=82
297336 On ch=1 n=b6 v=94
297336 On ch=1 n=b5 v=100
297336 On ch=1 n=d4 v=95
297338 On ch=1 n=g#6 v=90
297414 On ch=1 n=d4 v=0
297416 On ch=1 n=b5 v=0
297416 On ch=1 n=b6 v=0
297418 On ch=1 n=g#6 v=0
297418 On ch=1 n=b4 v=0
297424 On ch=1 n=f5 v=80
297436 On ch=1 n=g#4 v=83
297460 On ch=1 n=d3 v=0
297494 On ch=1 n=g#7 v=96
297506 On ch=1 n=f5 v=0
297506 On ch=1 n=g#6 v=115
297508 On ch=1 n=b6 v=95
297518 On ch=1 n=g#4 v=0
297524 On ch=1 n=g#6 v=0
297526 On ch=1 n=b6 v=0
297538 On ch=1 n=g#7 v=0
297556 On ch=1 n=g#7 v=108
297560 On ch=1 n=g#5 v=101
297564 On ch=1 n=b6 v=120
297564 On ch=1 n=g#6 v=117
297568 On ch=1 n=b4 v=89
297614 On ch=1 n=g#6 v=0
297616 On ch=1 n=g#5 v=0
297620 On ch=1 n=b6 v=0
297624 On ch=1 n=b4 v=0
297626 On ch=1 n=g#7 v=0
297656 On ch=1 n=f5 v=80
297658 On ch=1 n=g#4 v=83
297662 On ch=1 n=g#7 v=100
297664 On ch=1 n=b6 v=106
297668 On ch=1 n=g#6 v=110
297720 On ch=1 n=b6 v=0
297724 On ch=1 n=f5 v=0
297726 On ch=1 n=g#4 v=0
297730 On ch=1 n=g#7 v=0
297736 On ch=1 n=g#6 v=0
297752 On ch=1 n=b4 v=66
297760 On ch=1 n=g#6 v=110
297766 On ch=1 n=g#7 v=102
297766 On ch=1 n=b6 v=110
297766 On ch=1 n=d4 v=90
297820 On ch=1 n=b4 v=0
297824 On ch=1 n=b6 v=0
297828 On ch=1 n=g#6 v=0
297834 On ch=1 n=d4 v=0
297834 On ch=1 n=g#7 v=0
297860 Par ch=1 c=64 v=0
297878 On ch=1 n=g#7 v=108
297886 On ch=1 n=b6 v=105
297886 On ch=1 n=g#6 v=117
297886 On ch=1 n=c#4 v=101
297892 On ch=1 n=c#3 v=110
297918 Par ch=1 c=64 v=127
297980 On ch=1 n=g#6 v=0
297990 On ch=1 n=b6 v=0
297996 On ch=1 n=c#4 v=0
298004 On ch=1 n=g#7 v=0
298004 On ch=1 n=c#4 v=88
298016 On ch=1 n=a#4 v=100
298026 On ch=1 n=g7 v=87
298026 On ch=1 n=g6 v=100
298030 On ch=1 n=a#6 v=96
298066 On ch=1 n=c#4 v=0
298088 On ch=1 n=a#4 v=0
298116 On ch=1 n=g4 v=79
298122 On ch=1 n=e5 v=110
298152 On ch=1 n=c#3 v=0
298154 On ch=1 n=g6 v=0
298154 On ch=1 n=g7 v=0
298158 On ch=1 n=a#6 v=0
298174 On ch=1 n=g6 v=89
298174 On ch=1 n=a#5 v=103
298178 On ch=1 n=a#6 v=66
298206 On ch=1 n=a#5 v=0
298206 On ch=1 n=g6 v=0
298210 On ch=1 n=a#6 v=0
298214 On ch=1 n=c#4 v=102
298216 On ch=1 n=f#6 v=80
298218 On ch=1 n=a#4 v=71
298220 On ch=1 n=a6 v=100
298224 On ch=1 n=a5 v=93
298232 On ch=1 n=e5 v=0
298232 On ch=1 n=g4 v=0
298318 Par ch=1 c=64 v=0
298334 On ch=1 n=c#4 v=0
298336 On ch=1 n=f#6 v=0
298338 On ch=1 n=a#4 v=0
298340 On ch=1 n=a6 v=0
298344 On ch=1 n=a5 v=0
298356 On ch=1 n=a#5 v=108
298360 On ch=1 n=g6 v=80
298362 On ch=1 n=a#6 v=101
298364 On ch=1 n=e5 v=113
298364 On ch=1 n=g4 v=96
298394 Par ch=1 c=64 v=127
298440 On ch=1 n=e5 v=0
298452 On ch=1 n=a#5 v=0
298456 On ch=1 n=g4 v=0
298456 On ch=1 n=g6 v=0
298458 On ch=1 n=a#6 v=0
298572 Par ch=1 c=64 v=0
298662 On ch=1 n=g7 v=100
298668 On ch=1 n=a#6 v=98
298668 On ch=1 n=g6 v=97
298694 On ch=1 n=a#6 v=0
298698 On ch=1 n=g7 v=0
298704 On ch=1 n=g6 v=0
298712 On ch=1 n=g7 v=96
298712 On ch=1 n=a#6 v=100
298718 On ch=1 n=g6 v=100
298720 On ch=1 n=c3 v=102
298724 On ch=1 n=c4 v=110
298730 Par ch=1 c=64 v=127
298790 On ch=1 n=a#6 v=0
298790 On ch=1 n=g7 v=0
298796 On ch=1 n=g6 v=0
298834 On ch=1 n=c4 v=0
298842 On ch=1 n=f#7 v=89
298846 On ch=1 n=a6 v=95
298848 On ch=1 n=c4 v=89
298852 On ch=1 n=a4 v=89
298854 On ch=1 n=f#6 v=117
298938 On ch=1 n=c4 v=0
298942 On ch=1 n=a4 v=0
298952 On ch=1 n=f#7 v=0
298956 On ch=1 n=a6 v=0
298956 On ch=1 n=f#4 v=70
298960 On ch=1 n=d#5 v=115
298964 On ch=1 n=f#6 v=0
298980 On ch=1 n=c3 v=0
299012 On ch=1 n=a6 v=89
299012 On ch=1 n=f#6 v=89
299012 On ch=1 n=a5 v=86
299042 On ch=1 n=a5 v=0
299046 On ch=1 n=f#4 v=0
299050 On ch=1 n=d#5 v=0
299056 On ch=1 n=f#6 v=0
299056 On ch=1 n=a6 v=0
299088 On ch=1 n=f6 v=93
299088 On ch=1 n=g#5 v=113
299088 On ch=1 n=a4 v=96
299088 On ch=1 n=c4 v=89
299090 On ch=1 n=g#6 v=82
299208 Par ch=1 c=64 v=0
299216 On ch=1 n=g#5 v=0
299224 On ch=1 n=c4 v=0
299224 On ch=1 n=a4 v=0
299226 On ch=1 n=g#6 v=0
299236 On ch=1 n=f6 v=0
299240 On ch=1 n=f#6 v=94
299240 On ch=1 n=a5 v=97
299246 On ch=1 n=a6 v=100
299248 On ch=1 n=f#4 v=95
299252 On ch=1 n=d#5 v=120
299264 Par ch=1 c=64 v=127
299344 On ch=1 n=a5 v=0
299348 On ch=1 n=f#6 v=0
299350 On ch=1 n=a6 v=0
299352 On ch=1 n=f#4 v=0
299356 On ch=1 n=d#5 v=0
299484 Par ch=1 c=64 v=0
299608 On ch=1 n=a6 v=105
299610 On ch=1 n=f#7 v=105
299610 On ch=1 n=f#6 v=105
299650 On ch=1 n=a6 v=0
299652 On ch=1 n=f#6 v=0
299652 On ch=1 n=f#7 v=0
299674 On ch=1 n=f#7 v=105
299678 On ch=1 n=b3 v=105
299680 On ch=1 n=a6 v=105
299680 On ch=1 n=f#6 v=105
299680 On ch=1 n=b2 v=105
299700 Par ch=1 c=64 v=127
299732 On ch=1 n=f#7 v=0
299738 On ch=1 n=a6 v=0
299742 On ch=1 n=f#6 v=0
299920 On ch=1 n=a6 v=79
299920 On ch=1 n=d#6 v=79
299920 On ch=1 n=b5 v=79
299920 On ch=1 n=a5 v=79
299920 On ch=1 n=f#5 v=79
299920 On ch=1 n=b4 v=79
299920 On ch=1 n=f#4 v=79
299962 On ch=1 n=f#4 v=0
299962 On ch=1 n=b4 v=0
299962 On ch=1 n=f#5 v=0
299962 On ch=1 n=a5 v=0
299962 On ch=1 n=b5 v=0
299962 On ch=1 n=d#6 v=0
299962 On ch=1 n=a6 v=0
299976 On ch=1 n=a6 v=79
299976 On ch=1 n=d#6 v=79
299976 On ch=1 n=a5 v=79
299976 On ch=1 n=b4 v=79
299976 On ch=1 n=f#4 v=79
299978 On ch=1 n=b3 v=0
299980 On ch=1 n=b2 v=0
299980 On ch=1 n=b5 v=79
299980 On ch=1 n=f#5 v=79
300038 On ch=1 n=f#4 v=0
300038 On ch=1 n=b4 v=0
300038 On ch=1 n=a5 v=0
300038 On ch=1 n=d#6 v=0
300038 On ch=1 n=a6 v=0
300042 On ch=1 n=f#5 v=0
300042 On ch=1 n=b5 v=0
300140 On ch=1 n=a6 v=81
300140 On ch=1 n=d#6 v=81
300140 On ch=1 n=b5 v=81
300140 On ch=1 n=a5 v=81
300144 On ch=1 n=f#5 v=81
300144 On ch=1 n=b4 v=81
300144 On ch=1 n=f#4 v=81
300202 On ch=1 n=a5 v=0
300202 On ch=1 n=a6 v=0
300204 On ch=1 n=d#6 v=0
300206 On ch=1 n=f#4 v=0
300206 On ch=1 n=b4 v=0
300206 On ch=1 n=f#5 v=0
300208 On ch=1 n=b5 v=0
300300 On ch=1 n=b6 v=82
300300 On ch=1 n=d#6 v=82
300300 On ch=1 n=b5 v=82
300300 On ch=1 n=a5 v=82
300300 On ch=1 n=b4 v=82
300300 On ch=1 n=f#4 v=82
300304 On ch=1 n=f#5 v=82
300352 On ch=1 n=f#5 v=0
300352 On ch=1 n=f#4 v=0
300352 On ch=1 n=b4 v=0
300360 On ch=1 n=b6 v=0
300362 On ch=1 n=a5 v=0
300362 On ch=1 n=b5 v=0
300362 On ch=1 n=d#6 v=0
300456 On ch=1 n=b5 v=83
300456 On ch=1 n=a5 v=83
300456 On ch=1 n=f#5 v=83
300456 On ch=1 n=b4 v=83
300456 On ch=1 n=f#4 v=83
300458 On ch=1 n=f#6 v=83
300458 On ch=1 n=d#6 v=83
300512 On ch=1 n=d#6 v=0
300518 On ch=1 n=f#6 v=0
300518 On ch=1 n=f#4 v=0
300518 On ch=1 n=b4 v=0
300518 On ch=1 n=f#5 v=0
300518 On ch=1 n=a5 v=0
300518 On ch=1 n=b5 v=0
300650 Par ch=1 c=64 v=0
300652 On ch=1 n=b5 v=85
300654 On ch=1 n=f#6 v=85
300654 On ch=1 n=d#6 v=85
300654 On ch=1 n=a5 v=85
300654 On ch=1 n=e3 v=110
300712 Par ch=1 c=64 v=127
300734 On ch=1 n=f#6 v=0
300746 On ch=1 n=b5 v=0
300748 On ch=1 n=a5 v=0
300748 On ch=1 n=d#6 v=0
300860 On ch=1 n=g#6 v=86
300864 On ch=1 n=e5 v=86
300864 On ch=1 n=b4 v=86
300864 On ch=1 n=e4 v=86
300866 On ch=1 n=e6 v=86
300866 On ch=1 n=g#5 v=86
300932 On ch=1 n=e4 v=0
300934 On ch=1 n=g#5 v=0
300934 On ch=1 n=g#6 v=0
300940 On ch=1 n=e6 v=0
300940 On ch=1 n=b4 v=0
300940 On ch=1 n=e5 v=0
301052 On ch=1 n=g#6 v=88
301052 On ch=1 n=e5 v=88
301052 On ch=1 n=e4 v=88
301054 On ch=1 n=g#5 v=88
301056 On ch=1 n=b4 v=88
301058 On ch=1 n=d#6 v=88
301160 On ch=1 n=e4 v=0
301160 On ch=1 n=e5 v=0
301162 On ch=1 n=b4 v=0
301162 On ch=1 n=g#5 v=0
301166 On ch=1 n=d#6 v=0
301174 On ch=1 n=g#6 v=0
301254 Par ch=1 c=64 v=0
301264 On ch=1 n=g#6 v=90
301264 On ch=1 n=d6 v=90
301264 On ch=1 n=e5 v=90
301264 On ch=1 n=b4 v=90
301268 On ch=1 n=g#5 v=90
301268 On ch=1 n=e4 v=90
301296 Par ch=1 c=64 v=127
301348 On ch=1 n=g#5 v=0
301354 On ch=1 n=g#6 v=0
301358 On ch=1 n=d6 v=0
301366 On ch=1 n=e5 v=0
301368 On ch=1 n=b4 v=0
301378 On ch=1 n=e4 v=0
301394 On ch=1 n=e3 v=0
301464 On ch=1 n=d6 v=91
301464 On ch=1 n=a#5 v=91
301464 On ch=1 n=e4 v=91
301468 On ch=1 n=e5 v=91
301468 On ch=1 n=a#4 v=91
301470 On ch=1 n=a#6 v=91
301490 Par ch=1 c=64 v=0
301528 Par ch=1 c=64 v=127
301598 On ch=1 n=a#5 v=0
301598 On ch=1 n=d6 v=0
301600 On ch=1 n=e4 v=0
301602 On ch=1 n=a#4 v=0
301602 On ch=1 n=e5 v=0
301604 On ch=1 n=a#6 v=0
301704 On ch=1 n=b6 v=93
301704 On ch=1 n=b5 v=93
301704 On ch=1 n=e5 v=93
301708 On ch=1 n=e4 v=93
301710 On ch=1 n=d6 v=93
301710 On ch=1 n=g#4 v=93
301836 On ch=1 n=e5 v=0
301840 On ch=1 n=e4 v=0
301842 On ch=1 n=g#4 v=0
301842 On ch=1 n=d6 v=0
301844 On ch=1 n=b5 v=0
301848 On ch=1 n=b6 v=0
302016 On ch=1 n=c7 v=100
302016 On ch=1 n=d#4 v=80
302020 On ch=1 n=g#6 v=97
302020 On ch=1 n=d#6 v=102
302020 On ch=1 n=c6 v=103
302020 On ch=1 n=d#3 v=101
302038 Par ch=1 c=64 v=0
302126 Par ch=1 c=64 v=127
302176 On ch=1 n=c7 v=0
302180 On ch=1 n=d#4 v=0
302184 On ch=1 n=d#3 v=0
302190 On ch=1 n=g#6 v=0
302196 On ch=1 n=c6 v=0
302206 On ch=1 n=d#6 v=0
302348 On ch=1 n=g#5 v=72
302348 On ch=1 n=d#5 v=72
302348 On ch=1 n=c5 v=72
302348 On ch=1 n=d#4 v=72
302352 On ch=1 n=c6 v=72
302354 On ch=1 n=d#6 v=72
302392 On ch=1 n=d#4 v=0
302392 On ch=1 n=c5 v=0
302392 On ch=1 n=d#5 v=0
302392 On ch=1 n=g#5 v=0
302396 On ch=1 n=c6 v=0
302398 On ch=1 n=d#6 v=0
302476 On ch=1 n=c6 v=73
302476 On ch=1 n=g#5 v=73
302476 On ch=1 n=c5 v=73
302478 On ch=1 n=d#6 v=73
302478 On ch=1 n=d#5 v=73
302480 On ch=1 n=d#4 v=73
302520 On ch=1 n=c5 v=0
302520 On ch=1 n=g#5 v=0
302520 On ch=1 n=c6 v=0
302522 On ch=1 n=d#5 v=0
302524 On ch=1 n=d#4 v=0
302528 On ch=1 n=d#6 v=0
302600 On ch=1 n=c5 v=73
302600 On ch=1 n=d#4 v=73
302602 On ch=1 n=d#5 v=74
302604 On ch=1 n=c6 v=74
302606 On ch=1 n=d#6 v=74
302606 On ch=1 n=g#5 v=74
302656 On ch=1 n=d#4 v=0
302656 On ch=1 n=c5 v=0
302658 On ch=1 n=d#5 v=0
302660 On ch=1 n=c6 v=0
302662 On ch=1 n=g#5 v=0
302662 On ch=1 n=d#6 v=0
302728 On ch=1 n=c6 v=74
302728 On ch=1 n=g#5 v=74
302728 On ch=1 n=c5 v=74
302728 On ch=1 n=d#4 v=74
302730 On ch=1 n=e6 v=74
302730 On ch=1 n=e5 v=74
302780 On ch=1 n=d#4 v=0
302780 On ch=1 n=c5 v=0
302780 On ch=1 n=g#5 v=0
302780 On ch=1 n=c6 v=0
302782 On ch=1 n=e5 v=0
302782 On ch=1 n=e6 v=0
302836 On ch=1 n=e6 v=75
302836 On ch=1 n=c6 v=75
302836 On ch=1 n=g#5 v=75
302836 On ch=1 n=e5 v=75
302836 On ch=1 n=c5 v=75
302842 On ch=1 n=d#4 v=75
302880 On ch=1 n=c5 v=0
302890 On ch=1 n=e5 v=0
302890 On ch=1 n=g#5 v=0
302890 On ch=1 n=c6 v=0
302890 On ch=1 n=e6 v=0
302896 On ch=1 n=d#4 v=0
302936 On ch=1 n=e6 v=76
302936 On ch=1 n=c6 v=76
302936 On ch=1 n=c5 v=76
302938 On ch=1 n=g#5 v=76
302938 On ch=1 n=e5 v=76
302938 On ch=1 n=d#4 v=76
302990 On ch=1 n=c5 v=0
302990 On ch=1 n=c6 v=0
302990 On ch=1 n=e6 v=0
302992 On ch=1 n=e5 v=0
302992 On ch=1 n=g#5 v=0
302994 On ch=1 n=d#4 v=0
303036 On ch=1 n=d#4 v=77
303040 On ch=1 n=c6 v=77
303040 On ch=1 n=f5 v=77
303040 On ch=1 n=d#5 v=77
303040 On ch=1 n=c5 v=77
303042 On ch=1 n=f6 v=77
303042 On ch=1 n=a5 v=77
303092 On ch=1 n=d#4 v=0
303096 On ch=1 n=c5 v=0
303096 On ch=1 n=d#5 v=0
303096 On ch=1 n=f5 v=0
303096 On ch=1 n=c6 v=0
303098 On ch=1 n=a5 v=0
303098 On ch=1 n=f6 v=0
303136 On ch=1 n=f6 v=78
303136 On ch=1 n=c6 v=78
303136 On ch=1 n=a5 v=78
303136 On ch=1 n=f5 v=78
303136 On ch=1 n=d#5 v=78
303136 On ch=1 n=c5 v=78
303140 On ch=1 n=d#4 v=78
303184 On ch=1 n=f6 v=0
303190 On ch=1 n=c5 v=0
303190 On ch=1 n=d#5 v=0
303190 On ch=1 n=f5 v=0
303190 On ch=1 n=a5 v=0
303190 On ch=1 n=c6 v=0
303194 On ch=1 n=d#4 v=0
303224 On ch=1 n=c6 v=78
303224 On ch=1 n=a5 v=78
303224 On ch=1 n=d#5 v=78
303224 On ch=1 n=c5 v=78
303224 On ch=1 n=d#4 v=78
303226 On ch=1 n=f6 v=78
303226 On ch=1 n=f5 v=78
303270 On ch=1 n=f6 v=0
303270 On ch=1 n=d#5 v=0
303272 On ch=1 n=c5 v=0
303276 On ch=1 n=d#4 v=0
303276 On ch=1 n=a5 v=0
303276 On ch=1 n=c6 v=0
303278 On ch=1 n=f5 v=0
303320 On ch=1 n=a5 v=79
303322 On ch=1 n=f#5 v=79
303322 On ch=1 n=d#4 v=79
303324 On ch=1 n=f#6 v=79
303324 On ch=1 n=c6 v=79
303324 On ch=1 n=d#5 v=79
303324 On ch=1 n=c5 v=79
303364 On ch=1 n=c5 v=0
303364 On ch=1 n=d#5 v=0
303366 On ch=1 n=a5 v=0
303368 On ch=1 n=d#4 v=0
303368 On ch=1 n=f#5 v=0
303370 On ch=1 n=c6 v=0
303370 On ch=1 n=f#6 v=0
303416 On ch=1 n=f#6 v=80
303424 On ch=1 n=f#5 v=80
303428 On ch=1 n=a5 v=80
303428 On ch=1 n=d#5 v=80
303428 On ch=1 n=c5 v=80
303428 On ch=1 n=d#4 v=80
303430 On ch=1 n=c#6 v=80
303458 On ch=1 n=f#6 v=0
303470 On ch=1 n=c5 v=0
303470 On ch=1 n=f#5 v=0
303474 On ch=1 n=d#4 v=0
303474 On ch=1 n=d#5 v=0
303474 On ch=1 n=a5 v=0
303476 On ch=1 n=c#6 v=0
303528 On ch=1 n=d#6 v=81
303528 On ch=1 n=f#5 v=81
303528 On ch=1 n=d#4 v=81
303528 On ch=1 n=d#3 v=106
303530 On ch=1 n=f#6 v=81
303530 On ch=1 n=c6 v=81
303582 On ch=1 n=f#5 v=0
303584 On ch=1 n=d#6 v=0
303586 On ch=1 n=c6 v=0
303594 On ch=1 n=f#6 v=0
303598 On ch=1 n=d#4 v=0
303644 On ch=1 n=d#6 v=81
303644 On ch=1 n=g5 v=81
303644 On ch=1 n=d#5 v=81
303644 On ch=1 n=c#5 v=81
303644 On ch=1 n=a#4 v=81
303644 On ch=1 n=d#4 v=81
303648 On ch=1 n=c#6 v=81
303650 On ch=1 n=g6 v=81
303696 On ch=1 n=g5 v=0
303698 On ch=1 n=d#4 v=0
303698 On ch=1 n=a#4 v=0
303698 On ch=1 n=c#5 v=0
303698 On ch=1 n=d#5 v=0
303698 On ch=1 n=d#6 v=0
303702 On ch=1 n=c#6 v=0
303704 On ch=1 n=g6 v=0
303752 On ch=1 n=d#4 v=80
303756 On ch=1 n=d#6 v=82
303756 On ch=1 n=c#6 v=82
303756 On ch=1 n=d#5 v=82
303756 On ch=1 n=c#5 v=82
303756 On ch=1 n=a#4 v=82
303758 On ch=1 n=g6 v=82
303762 On ch=1 n=g5 v=82
303788 On ch=1 n=d#3 v=0
303806 On ch=1 n=a#4 v=0
303806 On ch=1 n=d#4 v=0
303810 On ch=1 n=c#5 v=0
303810 On ch=1 n=d#5 v=0
303810 On ch=1 n=c#6 v=0
303810 On ch=1 n=d#6 v=0
303812 On ch=1 n=g6 v=0
303816 On ch=1 n=g5 v=0
303864 On ch=1 n=g6 v=83
303864 On ch=1 n=d#6 v=83
303864 On ch=1 n=c#6 v=83
303864 On ch=1 n=d#5 v=83
303864 On ch=1 n=c#5 v=83
303864 On ch=1 n=a#4 v=83
303866 On ch=1 n=g5 v=83
303868 On ch=1 n=d#4 v=80
303914 On ch=1 n=g6 v=0
303916 On ch=1 n=c#6 v=0
303918 On ch=1 n=a#4 v=0
303918 On ch=1 n=c#5 v=0
303918 On ch=1 n=d#5 v=0
303918 On ch=1 n=d#6 v=0
303920 On ch=1 n=g5 v=0
303922 On ch=1 n=d#4 v=0
303972 On ch=1 n=f5 v=84
303972 On ch=1 n=c#5 v=84
303976 On ch=1 n=c#6 v=84
303976 On ch=1 n=a#4 v=84
303978 On ch=1 n=g#6 v=84
303978 On ch=1 n=g#5 v=84
304014 On ch=1 n=a#4 v=0
304024 On ch=1 n=c#5 v=0
304024 On ch=1 n=f5 v=0
304028 On ch=1 n=c#6 v=0
304030 On ch=1 n=g#5 v=0
304030 On ch=1 n=g#6 v=0
304096 On ch=1 n=f5 v=85
304096 On ch=1 n=a#4 v=85
304100 On ch=1 n=c#6 v=85
304100 On ch=1 n=c#5 v=85
304102 On ch=1 n=g#6 v=85
304102 On ch=1 n=g#5 v=85
304148 On ch=1 n=a#4 v=0
304148 On ch=1 n=f5 v=0
304152 On ch=1 n=c#5 v=0
304152 On ch=1 n=c#6 v=0
304154 On ch=1 n=g#5 v=0
304154 On ch=1 n=g#6 v=0
304228 On ch=1 n=f5 v=86
304230 On ch=1 n=c#6 v=86
304230 On ch=1 n=c#5 v=86
304232 On ch=1 n=g#6 v=86
304232 On ch=1 n=g#5 v=86
304232 On ch=1 n=a#4 v=86
304278 On ch=1 n=f5 v=0
304280 On ch=1 n=g#6 v=0
304280 On ch=1 n=c#5 v=0
304280 On ch=1 n=c#6 v=0
304282 On ch=1 n=a#4 v=0
304282 On ch=1 n=g#5 v=0
304372 On ch=1 n=c7 v=87
304372 On ch=1 n=c#5 v=87
304376 On ch=1 n=f5 v=87
304378 On ch=1 n=f6 v=87
304378 On ch=1 n=c#6 v=87
304378 On ch=1 n=g#5 v=87
304378 On ch=1 n=a#4 v=87
304394 Par ch=1 c=64 v=0
304406 Par ch=1 c=64 v=127
304428 On ch=1 n=c#6 v=0
304428 On ch=1 n=c#5 v=0
304430 On ch=1 n=f6 v=0
304432 On ch=1 n=g#5 v=0
304434 On ch=1 n=a#4 v=0
304434 On ch=1 n=f5 v=0
304434 On ch=1 n=c7 v=0
304540 On ch=1 n=a#4 v=88
304544 On ch=1 n=c7 v=88
304544 On ch=1 n=g#5 v=88
304544 On ch=1 n=c#5 v=88
304546 On ch=1 n=f6 v=88
304546 On ch=1 n=c#6 v=88
304546 On ch=1 n=f5 v=88
304588 On ch=1 n=g#5 v=0
304590 On ch=1 n=c7 v=0
304590 On ch=1 n=a#4 v=0
304594 On ch=1 n=c#5 v=0
304596 On ch=1 n=f5 v=0
304596 On ch=1 n=c#6 v=0
304596 On ch=1 n=f6 v=0
304712 On ch=1 n=c7 v=89
304712 On ch=1 n=c#6 v=89
304712 On ch=1 n=g#5 v=89
304716 On ch=1 n=c#5 v=90
304716 On ch=1 n=a#4 v=90
304718 On ch=1 n=f6 v=90
304718 On ch=1 n=f5 v=90
304780 On ch=1 n=g#5 v=0
304786 On ch=1 n=c#6 v=0
304786 On ch=1 n=c7 v=0
304788 On ch=1 n=a#4 v=0
304788 On ch=1 n=c#5 v=0
304792 On ch=1 n=f5 v=0
304792 On ch=1 n=f6 v=0
304896 On ch=1 n=a#6 v=91
304896 On ch=1 n=g5 v=91
304900 On ch=1 n=c#6 v=91
304900 On ch=1 n=d#5 v=91
304900 On ch=1 n=a#4 v=91
304906 On ch=1 n=d#6 v=91
304920 Par ch=1 c=64 v=0
304968 Par ch=1 c=64 v=127
305008 On ch=1 n=d#5 v=0
305010 On ch=1 n=g5 v=0
305018 On ch=1 n=a#4 v=0
305034 On ch=1 n=d#6 v=0
305042 On ch=1 n=a#6 v=0
305046 On ch=1 n=c#6 v=0
305156 On ch=1 n=d#6 v=93
305156 On ch=1 n=g5 v=93
305156 On ch=1 n=a#4 v=93
305160 On ch=1 n=c#6 v=93
305160 On ch=1 n=d#5 v=93
305162 On ch=1 n=a#6 v=93
305186 Par ch=1 c=64 v=0
305224 Par ch=1 c=64 v=127
305268 On ch=1 n=g5 v=0
305270 On ch=1 n=d#5 v=0
305272 On ch=1 n=d#6 v=0
305274 On ch=1 n=a#4 v=0
305294 On ch=1 n=c#6 v=0
305308 On ch=1 n=a#6 v=0
305414 Par ch=1 c=64 v=0
305464 On ch=1 n=c5 v=80
305506 Par ch=1 c=64 v=127
305512 On ch=1 n=d#5 v=92
305546 On ch=1 n=c5 v=0
305558 On ch=1 n=g#5 v=63
305562 On ch=1 n=d#5 v=0
305608 On ch=1 n=g#5 v=0
305624 On ch=1 n=c6 v=89
305704 On ch=1 n=c6 v=0
305704 On ch=1 n=g#2 v=80
305710 On ch=1 n=c7 v=106
305712 On ch=1 n=g#3 v=95
305722 Par ch=1 c=64 v=0
305776 Par ch=1 c=64 v=127
306000 On ch=1 n=g#2 v=0
306008 On ch=1 n=g#3 v=0
306046 On ch=1 n=d#4 v=96
306048 On ch=1 n=g#4 v=95
306052 On ch=1 n=d#5 v=101
306134 On ch=1 n=d#4 v=0
306140 On ch=1 n=g#4 v=0
306160 On ch=1 n=d#5 v=0
306260 On ch=1 n=e5 v=92
306260 On ch=1 n=g#4 v=87
306270 On ch=1 n=e4 v=88
306296 Par ch=1 c=64 v=0
306330 On ch=1 n=c7 v=0
306346 On ch=1 n=a#6 v=93
306372 Par ch=1 c=64 v=127
306418 On ch=1 n=g#6 v=101
306430 On ch=1 n=e5 v=0
306434 On ch=1 n=e4 v=0
306442 On ch=1 n=a#6 v=0
306456 On ch=1 n=g#4 v=0
306492 On ch=1 n=g6 v=96
306500 On ch=1 n=g#6 v=0
306556 On ch=1 n=g#6 v=102
306582 On ch=1 n=g6 v=0
306614 On ch=1 n=g#6 v=0
306624 On ch=1 n=e6 v=78
306692 Par ch=1 c=64 v=0
306696 On ch=1 n=g#3 v=108
306702 On ch=1 n=d6 v=79
306720 On ch=1 n=e6 v=0
306752 Par ch=1 c=64 v=127
306764 On ch=1 n=d6 v=0
306764 On ch=1 n=f6 v=78
306826 On ch=1 n=d#6 v=73
306840 On ch=1 n=f6 v=0
306888 On ch=1 n=c6 v=78
306896 On ch=1 n=d#6 v=0
306970 On ch=1 n=g#5 v=84
306978 On ch=1 n=d#4 v=93
306982 Par ch=1 c=64 v=0
306986 On ch=1 n=c6 v=0
306992 On ch=1 n=g#3 v=0
307024 Par ch=1 c=64 v=127
307046 On ch=1 n=f5 v=79
307048 On ch=1 n=g#5 v=0
307134 On ch=1 n=d#5 v=115
307134 Par ch=1 c=64 v=0
307146 On ch=1 n=c5 v=93
307152 On ch=1 n=f5 v=0
307180 On ch=1 n=d#4 v=0
307186 Par ch=1 c=64 v=127
307380 Par ch=1 c=64 v=0
307388 On ch=1 n=g5 v=101
307392 On ch=1 n=c#5 v=101
307392 On ch=1 n=a#4 v=94
307412 On ch=1 n=d#5 v=0
307424 On ch=1 n=c#5 v=0
307428 On ch=1 n=c5 v=0
307430 Par ch=1 c=64 v=127
307436 On ch=1 n=g5 v=0
307440 On ch=1 n=a#4 v=0
307596 On ch=1 n=c5 v=93
307632 On ch=1 n=d#5 v=88
307658 On ch=1 n=c5 v=0
307666 On ch=1 n=g#5 v=110
307670 On ch=1 n=d#5 v=0
307686 On ch=1 n=g#5 v=0
307714 On ch=1 n=c6 v=106
307758 On ch=1 n=c6 v=0
307780 On ch=1 n=c7 v=113
307792 On ch=1 n=g#2 v=80
307794 On ch=1 n=g#3 v=97
307830 Par ch=1 c=64 v=0
307930 Par ch=1 c=64 v=127
308088 On ch=1 n=g#2 v=0
308090 On ch=1 n=g#3 v=0
308098 On ch=1 n=d#4 v=90
308136 On ch=1 n=c5 v=86
308184 On ch=1 n=g#5 v=98
308186 On ch=1 n=d#4 v=0
308226 On ch=1 n=c5 v=0
308264 On ch=1 n=e4 v=92
308286 On ch=1 n=g#5 v=0
308306 Par ch=1 c=64 v=0
308320 On ch=1 n=c5 v=89
308344 On ch=1 n=g#5 v=100
308368 On ch=1 n=a#6 v=95
308370 On ch=1 n=c7 v=0
308418 Par ch=1 c=64 v=127
308446 On ch=1 n=g#6 v=110
308470 On ch=1 n=a#6 v=0
308478 On ch=1 n=e4 v=0
308524 On ch=1 n=g6 v=93
308530 On ch=1 n=g#6 v=0
308546 On ch=1 n=c5 v=0
308552 On ch=1 n=g#5 v=0
308598 On ch=1 n=g#6 v=103
308622 On ch=1 n=g6 v=0
308662 On ch=1 n=g#6 v=0
308666 On ch=1 n=e6 v=84
308746 On ch=1 n=g#3 v=94
308750 On ch=1 n=d6 v=98
308750 Par ch=1 c=64 v=0
308774 On ch=1 n=e6 v=0
308812 Par ch=1 c=64 v=127
308822 On ch=1 n=f6 v=94
308828 On ch=1 n=d6 v=0
308894 On ch=1 n=d#6 v=84
308906 On ch=1 n=f6 v=0
308970 On ch=1 n=c6 v=82
308994 On ch=1 n=d#6 v=0
309044 Par ch=1 c=64 v=0
309054 On ch=1 n=g#5 v=90
309054 On ch=1 n=d#4 v=93
309062 On ch=1 n=g#3 v=0
309068 On ch=1 n=c6 v=0
309098 Par ch=1 c=64 v=127
309134 On ch=1 n=f5 v=96
309140 On ch=1 n=g#5 v=0
309228 On ch=1 n=d#5 v=105
309238 Par ch=1 c=64 v=0
309242 On ch=1 n=c5 v=101
309248 On ch=1 n=f5 v=0
309260 On ch=1 n=d#4 v=0
309306 Par ch=1 c=64 v=127
309520 Par ch=1 c=64 v=0
309528 On ch=1 n=g5 v=101
309536 On ch=1 n=c5 v=0
309536 On ch=1 n=c#5 v=100
309536 On ch=1 n=a#4 v=93
309542 On ch=1 n=d#5 v=0
309568 Par ch=1 c=64 v=127
309582 On ch=1 n=g5 v=0
309588 On ch=1 n=c#5 v=0
309590 On ch=1 n=a#4 v=0
309712 Par ch=1 c=64 v=0
309716 On ch=1 n=c5 v=101
309728 On ch=1 n=g#2 v=118
309752 Par ch=1 c=64 v=127
309776 On ch=1 n=d#5 v=97
309812 On ch=1 n=c5 v=0
309824 On ch=1 n=g#5 v=70
309834 On ch=1 n=d#5 v=0
309862 On ch=1 n=g#5 v=0
309900 On ch=1 n=c6 v=98
309986 On ch=1 n=c7 v=90
309992 On ch=1 n=c6 v=0
310018 On ch=1 n=g#2 v=0
310038 On ch=1 n=d#4 v=98
310084 On ch=1 n=d#4 v=0
310102 On ch=1 n=d6 v=106
310104 On ch=1 n=c7 v=0
310154 On ch=1 n=d#6 v=100
310178 On ch=1 n=d6 v=0
310198 On ch=1 n=f6 v=95
310200 On ch=1 n=d#6 v=0
310204 On ch=1 n=g#5 v=100
310208 On ch=1 n=c5 v=88
310216 Par ch=1 c=64 v=0
310230 On ch=1 n=d#6 v=106
310232 On ch=1 n=f6 v=0
310254 On ch=1 n=f6 v=100
310258 On ch=1 n=d#6 v=0
310262 Par ch=1 c=64 v=127
310282 On ch=1 n=f6 v=0
310286 On ch=1 n=d#6 v=108
310304 On ch=1 n=f6 v=97
310312 On ch=1 n=d#6 v=0
310330 On ch=1 n=f6 v=0
310334 On ch=1 n=g#5 v=0
310348 On ch=1 n=d#6 v=67
310354 On ch=1 n=f6 v=94
310360 On ch=1 n=c5 v=0
310362 On ch=1 n=d#6 v=0
310382 On ch=1 n=d#6 v=93
310408 On ch=1 n=d#6 v=0
310430 On ch=1 n=d#6 v=92
310436 On ch=1 n=f6 v=0
310462 On ch=1 n=f6 v=78
310464 On ch=1 n=d#6 v=0
310494 On ch=1 n=d#6 v=85
310506 On ch=1 n=f6 v=0
310550 On ch=1 n=d6 v=101
310556 On ch=1 n=d#6 v=0
310620 On ch=1 n=d#6 v=100
310638 On ch=1 n=d6 v=0
310696 Par ch=1 c=64 v=0
310702 On ch=1 n=d#6 v=0
310702 On ch=1 n=g#3 v=93
310708 On ch=1 n=c6 v=110
310748 Par ch=1 c=64 v=127
310752 On ch=1 n=d#6 v=103
310778 On ch=1 n=c6 v=0
310792 On ch=1 n=g#6 v=92
310800 On ch=1 n=d#6 v=0
310826 On ch=1 n=g#6 v=0
310860 On ch=1 n=c7 v=110
310936 On ch=1 n=c8 v=75
310940 On ch=1 n=c7 v=0
310974 On ch=1 n=d#5 v=87
310992 On ch=1 n=g#3 v=0
310996 On ch=1 n=c8 v=0
311006 On ch=1 n=d7 v=96
311074 On ch=1 n=d#7 v=105
311092 On ch=1 n=d#5 v=0
311100 On ch=1 n=d7 v=0
311150 On ch=1 n=f7 v=93
311160 On ch=1 n=d#7 v=0
311166 On ch=1 n=g#6 v=100
311198 On ch=1 n=c6 v=30
311226 On ch=1 n=d#7 v=115
311244 On ch=1 n=f7 v=0
311274 On ch=1 n=f7 v=97
311278 On ch=1 n=d#7 v=0
311292 On ch=1 n=g#6 v=0
311316 On ch=1 n=d#7 v=103
311320 On ch=1 n=c6 v=0
311324 On ch=1 n=f7 v=0
311346 On ch=1 n=f7 v=90
311352 On ch=1 n=d#7 v=0
311380 On ch=1 n=f7 v=0
311382 On ch=1 n=d#7 v=103
311408 On ch=1 n=f7 v=98
311410 On ch=1 n=d#7 v=0
311438 On ch=1 n=d#7 v=103
311452 On ch=1 n=f7 v=0
311478 On ch=1 n=d#7 v=0
311484 On ch=1 n=d7 v=89
311526 On ch=1 n=d#7 v=103
311534 On ch=1 n=g#4 v=70
311540 On ch=1 n=d7 v=0
311580 On ch=1 n=d#5 v=84
311590 On ch=1 n=d#7 v=0
311598 On ch=1 n=c7 v=106
311612 Par ch=1 c=64 v=0
311624 On ch=1 n=c6 v=94
311696 Par ch=1 c=64 v=127
311760 On ch=1 n=c7 v=0
311760 On ch=1 n=d#5 v=0
311760 On ch=1 n=g#4 v=0
311778 On ch=1 n=f8 v=89
311780 On ch=1 n=c6 v=0
311854 On ch=1 n=d#8 v=82
311884 On ch=1 n=f8 v=0
311916 On ch=1 n=c8 v=90
311962 On ch=1 n=d#8 v=0
311972 On ch=1 n=g#7 v=89
312024 On ch=1 n=c8 v=0
312036 On ch=1 n=f7 v=86
312056 On ch=1 n=g#7 v=0
312086 On ch=1 n=f7 v=0
312094 On ch=1 n=d#7 v=103
312156 On ch=1 n=d#7 v=0
312156 On ch=1 n=c7 v=81
312200 On ch=1 n=g#6 v=67
312214 On ch=1 n=c7 v=0
312244 On ch=1 n=g#6 v=0
312262 On ch=1 n=f6 v=88
312310 On ch=1 n=d#6 v=68
312312 On ch=1 n=f6 v=0
312362 On ch=1 n=d#6 v=0
312384 On ch=1 n=c6 v=85
312436 On ch=1 n=c6 v=0
312444 On ch=1 n=g#5 v=86
312484 On ch=1 n=g#5 v=0
312504 On ch=1 n=f5 v=92
312554 On ch=1 n=f5 v=0
312562 On ch=1 n=d#5 v=100
312604 On ch=1 n=d#5 v=0
312616 On ch=1 n=c5 v=86
312660 On ch=1 n=c5 v=0
312668 On ch=1 n=g#4 v=86
312702 Par ch=1 c=64 v=0
312708 On ch=1 n=g#4 v=0
312730 On ch=1 n=f4 v=99
312768 On ch=1 n=f4 v=0
312786 On ch=1 n=d#4 v=82
312830 On ch=1 n=d#4 v=0
312840 Par ch=1 c=64 v=127
312850 On ch=1 n=c4 v=85
312892 On ch=1 n=c4 v=0
312902 On ch=1 n=g#3 v=73
312948 On ch=1 n=g#3 v=0
312962 On ch=1 n=f3 v=102
313002 On ch=1 n=f3 v=0
313018 On ch=1 n=d#3 v=102
313068 On ch=1 n=d#3 v=0
313104 On ch=1 n=g#2 v=125
313346 Par ch=1 c=64 v=0
313584 On ch=1 n=g#2 v=0
313676 On ch=1 n=c6 v=101
313682 On ch=1 n=a#5 v=93
313682 On ch=1 n=e5 v=96
313684 On ch=1 n=c5 v=96
313690 On ch=1 n=c3 v=98
313694 On ch=1 n=c4 v=98
313712 Par ch=1 c=64 v=127
314010 On ch=1 n=e5 v=0
314012 On ch=1 n=c3 v=0
314016 On ch=1 n=a#5 v=0
314022 On ch=1 n=c6 v=0
314028 On ch=1 n=c4 v=0
314030 On ch=1 n=c5 v=0
314160 On ch=1 n=g#5 v=98
314162 On ch=1 n=c6 v=103
314162 On ch=1 n=f5 v=101
314164 On ch=1 n=c5 v=94
314172 On ch=1 n=f4 v=98
314172 On ch=1 n=f3 v=98
314186 Par ch=1 c=64 v=0
314292 Par ch=1 c=64 v=127
314420 On ch=1 n=c5 v=0
314438 On ch=1 n=f4 v=0
314450 On ch=1 n=c6 v=0
314452 On ch=1 n=g#5 v=0
314454 On ch=1 n=f5 v=0
314464 On ch=1 n=f3 v=0
314616 On ch=1 n=c#5 v=98
314622 On ch=1 n=d#6 v=98
314624 On ch=1 n=c#6 v=64
314624 On ch=1 n=g5 v=97
314626 On ch=1 n=d#5 v=101
314626 On ch=1 n=d#3 v=95
314632 On ch=1 n=d#4 v=102
314664 Par ch=1 c=64 v=0
314778 Par ch=1 c=64 v=127
314890 On ch=1 n=d#4 v=0
314894 On ch=1 n=c#5 v=0
314900 On ch=1 n=d#6 v=0
314902 On ch=1 n=g5 v=0
314902 On ch=1 n=c#6 v=0
314904 On ch=1 n=d#5 v=0
314910 On ch=1 n=d#3 v=0
315248 On ch=1 n=g#2 v=80
315250 On ch=1 n=g#6 v=98
315256 On ch=1 n=c6 v=101
315258 On ch=1 n=g#5 v=96
315258 On ch=1 n=g#3 v=100
315262 Par ch=1 c=64 v=0
315328 Par ch=1 c=64 v=127
315966 On ch=1 n=g#2 v=0
315968 On ch=1 n=g#6 v=0
315974 On ch=1 n=c6 v=0
315976 On ch=1 n=g#3 v=0
315976 On ch=1 n=g#5 v=0
316642 Par ch=1 c=64 v=0
316642 Meta TrkEnd
TrkEnd
