MFile 1 3 480
MTrk
0 Meta SeqName "\xffffff89\xffffffd8\xffffff97\xffffffed\xffffff82\xffffffc8\xffffff82\xffffffe9\xffffff91\xffffffe5\xffffff89~\xffffff95\xffffff91\xffffff8b\xffffffc8"
0 Meta Text "Made with OTAMA (C) 1997-2000 MISO"
0 Tempo 267857
0 KeySig -3 major
0 TimeSig 3/4 24 8
1440 Tempo 326086
1600 Tempo 322580
1872 Tempo 319148
2176 Tempo 315789
2448 Tempo 312500
2752 Tempo 309278
3024 Tempo 306122
3328 Tempo 303030
3600 Tempo 300000
3904 Tempo 297029
4176 Tempo 294117
4480 Tempo 291262
4752 Tempo 288461
5056 Tempo 285714
5328 Tempo 283018
5632 Tempo 280373
5904 Tempo 277777
6208 Tempo 275229
6480 Tempo 272727
6784 Tempo 270270
7056 Tempo 267857
12976 Tempo 270270
18750 Tempo 272727
19785 Tempo 270270
21321 Tempo 267857
24393 Tempo 264718
27465 Tempo 263157
36320 Tempo 264718
36928 Tempo 267857
37552 Tempo 270270
38160 Tempo 272727
38784 Tempo 275229
39408 Tempo 277777
40016 Tempo 280373
42200 Tempo 277777
43064 Tempo 275229
43928 Tempo 272727
44792 Tempo 270270
45656 Tempo 267857
188784 Tempo 270270
189040 Tempo 272727
189296 Tempo 275229
189568 Tempo 277777
189824 Tempo 280373
190080 Tempo 283018
190352 Tempo 285714
190608 Tempo 288461
190880 Tempo 291262
191136 Tempo 294117
191392 Tempo 297029
191520 Tempo 267857
533464 Tempo 270270
534792 Tempo 272727
536120 Tempo 275229
537448 Tempo 277777
538792 Tempo 280373
540120 Tempo 283018
541448 Tempo 285714
542776 Tempo 288461
544104 Tempo 291262
545432 Tempo 294117
546760 Tempo 297029
548088 Tempo 300000
549416 Tempo 303030
550560 Tempo 303030
550704 Tempo 306122
550976 Tempo 309278
551248 Tempo 312500
551504 Tempo 315789
551776 Tempo 319148
552048 Tempo 322580
552320 Tempo 326086
552592 Tempo 329670
552864 Tempo 333333
553120 Tempo 337078
553392 Tempo 340909
553664 Tempo 344827
553936 Tempo 348837
554208 Tempo 352941
554480 Tempo 357142
554736 Tempo 361445
555008 Tempo 365853
555280 Tempo 370370
555552 Tempo 375000
555824 Tempo 379746
556096 Tempo 384615
556368 Tempo 389610
556624 Tempo 394736
556896 Tempo 400000
557168 Tempo 405405
557295 Meta TrkEnd
TrkEnd
MTrk
0 SysEx f0 7e 7f 09 01 f7
480 Par ch=1 c=121 v=0
500 Meta Text "# Pitch Bend Sensitivity (0-2-24) #"
500 Par ch=1 c=101 v=0
505 Par ch=1 c=100 v=0
510 Par ch=1 c=6 v=2
515 Pb ch=1 v=8192
520 Par ch=1 c=0 v=0
525 Par ch=1 c=32 v=0
530 PrCh ch=1 p=0
535 Par ch=1 c=7 v=100
540 Par ch=1 c=11 v=127
545 Par ch=1 c=10 v=64
550 Par ch=1 c=91 v=40
555 Par ch=1 c=93 v=0
560 Par ch=1 c=1 v=0
1440 On ch=1 n=a#5 v=100
2304 On ch=1 n=a#5 v=0
2400 On ch=1 n=a#5 v=100
2520 On ch=1 n=a#5 v=0
2640 On ch=1 n=a#5 v=100
2760 On ch=1 n=a#5 v=0
2880 On ch=1 n=a#5 v=100
3744 On ch=1 n=a#5 v=0
3840 On ch=1 n=a#5 v=100
3960 On ch=1 n=a#5 v=0
4080 On ch=1 n=a#5 v=100
4200 On ch=1 n=a#5 v=0
4320 On ch=1 n=a#5 v=100
4752 On ch=1 n=a#5 v=0
4800 On ch=1 n=a#5 v=100
4920 On ch=1 n=a#5 v=0
5040 On ch=1 n=a#5 v=100
5160 On ch=1 n=a#5 v=0
5280 On ch=1 n=a#5 v=97
5712 On ch=1 n=a#5 v=0
5760 On ch=1 n=a#5 v=94
5880 On ch=1 n=a#5 v=0
6000 On ch=1 n=a#5 v=91
6120 On ch=1 n=a#5 v=0
6240 On ch=1 n=a#5 v=88
6672 On ch=1 n=a#5 v=0
6720 On ch=1 n=a#5 v=85
6840 On ch=1 n=a#5 v=0
6960 On ch=1 n=a#5 v=82
7080 On ch=1 n=a#5 v=0
7200 On ch=1 n=a#5 v=88
7440 On ch=1 n=a#5 v=0
7680 On ch=1 n=d6 v=94
7917 On ch=1 n=d6 v=0
7920 On ch=1 n=d#6 v=98
8157 On ch=1 n=d#6 v=0
8160 On ch=1 n=f6 v=100
8160 On ch=1 n=d6 v=100
8635 On ch=1 n=f6 v=0
8635 On ch=1 n=d6 v=0
8640 On ch=1 n=a#5 v=93
8880 On ch=1 n=a#5 v=0
9120 On ch=1 n=d#6 v=97
9357 On ch=1 n=d#6 v=0
9360 On ch=1 n=f6 v=99
9597 On ch=1 n=f6 v=0
9600 On ch=1 n=g6 v=100
9600 On ch=1 n=d#6 v=100
10075 On ch=1 n=g6 v=0
10075 On ch=1 n=d#6 v=0
10080 On ch=1 n=a#5 v=100
10320 On ch=1 n=a#5 v=0
10560 On ch=1 n=f6 v=103
10797 On ch=1 n=f6 v=0
10800 On ch=1 n=g6 v=105
11016 On ch=1 n=g6 v=0
11040 On ch=1 n=g#6 v=108
11040 On ch=1 n=f6 v=108
11472 On ch=1 n=g#6 v=0
11472 On ch=1 n=f6 v=0
11520 On ch=1 n=g6 v=95
11520 On ch=1 n=a#6 v=95
11520 On ch=1 n=c#6 v=95
12384 On ch=1 n=g6 v=0
12384 On ch=1 n=a#6 v=0
12384 On ch=1 n=c#6 v=0
12480 On ch=1 n=g6 v=90
12480 On ch=1 n=a#6 v=90
12480 On ch=1 n=c#6 v=90
12600 On ch=1 n=g6 v=0
12600 On ch=1 n=a#6 v=0
12600 On ch=1 n=c#6 v=0
12720 On ch=1 n=g6 v=85
12720 On ch=1 n=a#6 v=85
12720 On ch=1 n=c#6 v=95
12840 On ch=1 n=g6 v=0
12840 On ch=1 n=a#6 v=0
12840 On ch=1 n=c#6 v=0
12960 On ch=1 n=a#6 v=80
12960 On ch=1 n=g6 v=80
12960 On ch=1 n=c#6 v=80
13435 On ch=1 n=a#6 v=0
13440 On ch=1 n=c7 v=75
13677 On ch=1 n=c7 v=0
13680 On ch=1 n=a#6 v=75
13824 On ch=1 n=g6 v=0
13824 On ch=1 n=c#6 v=0
13917 On ch=1 n=a#6 v=0
13920 On ch=1 n=g#6 v=75
13920 On ch=1 n=c6 v=75
14160 On ch=1 n=g#6 v=0
14352 On ch=1 n=c6 v=0
14400 On ch=1 n=g#6 v=75
14400 On ch=1 n=b5 v=75
14875 On ch=1 n=g#6 v=0
14880 On ch=1 n=a#6 v=74
15117 On ch=1 n=a#6 v=0
15120 On ch=1 n=g#6 v=73
15264 On ch=1 n=b5 v=0
15357 On ch=1 n=g#6 v=0
15360 On ch=1 n=g6 v=72
15360 On ch=1 n=a#5 v=72
15600 On ch=1 n=g6 v=0
15792 On ch=1 n=a#5 v=0
15840 On ch=1 n=g6 v=71
15840 On ch=1 n=a#5 v=71
16315 On ch=1 n=g6 v=0
16320 On ch=1 n=g#6 v=70
16557 On ch=1 n=g#6 v=0
16560 On ch=1 n=g6 v=69
16704 On ch=1 n=a#5 v=0
16797 On ch=1 n=g6 v=0
16800 On ch=1 n=f6 v=68
16800 On ch=1 n=g#5 v=68
17040 On ch=1 n=f6 v=0
17232 On ch=1 n=g#5 v=0
17280 On ch=1 n=f6 v=67
17280 On ch=1 n=g#5 v=67
17755 On ch=1 n=f6 v=0
17760 On ch=1 n=g6 v=66
17997 On ch=1 n=g6 v=0
18000 On ch=1 n=f6 v=65
18144 On ch=1 n=g#5 v=0
18237 On ch=1 n=f6 v=0
18240 On ch=1 n=d#6 v=65
18240 On ch=1 n=g5 v=65
18480 On ch=1 n=d#6 v=0
18672 On ch=1 n=g5 v=0
18720 On ch=1 n=a#5 v=75
18960 On ch=1 n=a#5 v=0
19200 On ch=1 n=d6 v=80
19437 On ch=1 n=d6 v=0
19440 On ch=1 n=d#6 v=80
19677 On ch=1 n=d#6 v=0
19680 On ch=1 n=f6 v=85
19680 On ch=1 n=d6 v=85
20155 On ch=1 n=f6 v=0
20155 On ch=1 n=d6 v=0
20160 On ch=1 n=a#5 v=75
20400 On ch=1 n=a#5 v=0
20640 On ch=1 n=d#6 v=80
20877 On ch=1 n=d#6 v=0
20880 On ch=1 n=f6 v=80
21117 On ch=1 n=f6 v=0
21120 On ch=1 n=g6 v=85
21120 On ch=1 n=d#6 v=85
21595 On ch=1 n=g6 v=0
21595 On ch=1 n=d#6 v=0
21600 On ch=1 n=a#5 v=75
21840 On ch=1 n=a#5 v=0
22080 On ch=1 n=f6 v=80
22317 On ch=1 n=f6 v=0
22320 On ch=1 n=g6 v=80
22557 On ch=1 n=g6 v=0
22560 On ch=1 n=g#6 v=85
22560 On ch=1 n=f6 v=75
22992 On ch=1 n=g#6 v=0
22992 On ch=1 n=f6 v=0
23040 On ch=1 n=g6 v=105
23040 On ch=1 n=a#6 v=105
23040 On ch=1 n=c#6 v=105
23280 On ch=1 n=g6 v=0
23280 On ch=1 n=a#6 v=0
23280 On ch=1 n=c#6 v=0
23760 On ch=1 n=g6 v=100
23760 On ch=1 n=a#6 v=100
23997 On ch=1 n=g6 v=0
23997 On ch=1 n=a#6 v=0
24000 On ch=1 n=c#6 v=100
24000 On ch=1 n=c#6 v=100
24237 On ch=1 n=c#6 v=0
24240 On ch=1 n=g6 v=100
24240 On ch=1 n=a#6 v=100
24456 On ch=1 n=g6 v=0
24456 On ch=1 n=a#6 v=0
24475 On ch=1 n=c#6 v=0
24480 On ch=1 n=c#6 v=100
24480 On ch=1 n=c#6 v=100
24717 On ch=1 n=c#6 v=0
24720 On ch=1 n=a#6 v=99
24957 On ch=1 n=a#6 v=0
24960 On ch=1 n=c7 v=98
25197 On ch=1 n=c7 v=0
25200 On ch=1 n=a#6 v=97
25430 On ch=1 n=c#6 v=0
25437 On ch=1 n=a#6 v=0
25440 On ch=1 n=g#6 v=96
25440 On ch=1 n=c6 v=96
25680 On ch=1 n=g#6 v=0
25680 On ch=1 n=c6 v=0
25920 On ch=1 n=b5 v=95
25920 On ch=1 n=b5 v=95
26157 On ch=1 n=b5 v=0
26160 On ch=1 n=g#6 v=94
26397 On ch=1 n=g#6 v=0
26400 On ch=1 n=a#6 v=93
26637 On ch=1 n=a#6 v=0
26640 On ch=1 n=g#6 v=93
26870 On ch=1 n=b5 v=0
26877 On ch=1 n=g#6 v=0
26880 On ch=1 n=g6 v=92
26880 On ch=1 n=a#5 v=91
27120 On ch=1 n=g6 v=0
27120 On ch=1 n=a#5 v=0
27360 On ch=1 n=a#5 v=90
27360 On ch=1 n=a#5 v=90
27597 On ch=1 n=a#5 v=0
27600 On ch=1 n=g6 v=89
27837 On ch=1 n=g6 v=0
27840 On ch=1 n=g#6 v=88
28077 On ch=1 n=g#6 v=0
28080 On ch=1 n=g6 v=87
28310 On ch=1 n=a#5 v=0
28317 On ch=1 n=g6 v=0
28320 On ch=1 n=f6 v=86
28320 On ch=1 n=g#5 v=90
28560 On ch=1 n=f6 v=0
28560 On ch=1 n=g#5 v=0
28800 On ch=1 n=d#6 v=100
28800 On ch=1 n=g5 v=100
29232 On ch=1 n=d#6 v=0
29232 On ch=1 n=g5 v=0
29280 On ch=1 n=a#5 v=100
29400 On ch=1 n=a#5 v=0
29520 On ch=1 n=a#5 v=100
29640 On ch=1 n=a#5 v=0
29760 On ch=1 n=a#5 v=100
29880 On ch=1 n=a#5 v=0
30000 On ch=1 n=a#5 v=100
30120 On ch=1 n=a#5 v=0
30240 On ch=1 n=a#5 v=88
30480 On ch=1 n=a#5 v=0
30720 On ch=1 n=d6 v=94
30957 On ch=1 n=d6 v=0
30960 On ch=1 n=d#6 v=98
31197 On ch=1 n=d#6 v=0
31200 On ch=1 n=f6 v=100
31200 On ch=1 n=d6 v=100
31675 On ch=1 n=f6 v=0
31675 On ch=1 n=d6 v=0
31680 On ch=1 n=a#5 v=93
31920 On ch=1 n=a#5 v=0
32160 On ch=1 n=d#6 v=97
32397 On ch=1 n=d#6 v=0
32400 On ch=1 n=f6 v=99
32637 On ch=1 n=f6 v=0
32640 On ch=1 n=g6 v=100
32640 On ch=1 n=d#6 v=100
33115 On ch=1 n=g6 v=0
33115 On ch=1 n=d#6 v=0
33120 On ch=1 n=a#5 v=100
33360 On ch=1 n=a#5 v=0
33600 On ch=1 n=f6 v=103
33837 On ch=1 n=f6 v=0
33840 On ch=1 n=g6 v=105
34056 On ch=1 n=g6 v=0
34080 On ch=1 n=g#6 v=108
34080 On ch=1 n=f6 v=108
34512 On ch=1 n=g#6 v=0
34512 On ch=1 n=f6 v=0
34560 On ch=1 n=g6 v=95
34560 On ch=1 n=a#6 v=95
34560 On ch=1 n=c#6 v=95
35424 On ch=1 n=g6 v=0
35424 On ch=1 n=a#6 v=0
35424 On ch=1 n=c#6 v=0
35520 On ch=1 n=g6 v=90
35520 On ch=1 n=a#6 v=90
35520 On ch=1 n=c#6 v=90
35640 On ch=1 n=g6 v=0
35640 On ch=1 n=a#6 v=0
35640 On ch=1 n=c#6 v=0
35760 On ch=1 n=g6 v=85
35760 On ch=1 n=a#6 v=85
35760 On ch=1 n=c#6 v=95
35880 On ch=1 n=g6 v=0
35880 On ch=1 n=a#6 v=0
35880 On ch=1 n=c#6 v=0
36000 On ch=1 n=a#6 v=80
36000 On ch=1 n=g6 v=80
36000 On ch=1 n=c#6 v=80
36475 On ch=1 n=a#6 v=0
36480 On ch=1 n=c7 v=75
36717 On ch=1 n=c7 v=0
36720 On ch=1 n=a#6 v=75
36864 On ch=1 n=g6 v=0
36864 On ch=1 n=c#6 v=0
36957 On ch=1 n=a#6 v=0
36960 On ch=1 n=g#6 v=75
36960 On ch=1 n=c6 v=75
37200 On ch=1 n=g#6 v=0
37392 On ch=1 n=c6 v=0
37440 On ch=1 n=g#6 v=75
37440 On ch=1 n=b5 v=75
37915 On ch=1 n=g#6 v=0
37920 On ch=1 n=a#6 v=74
38157 On ch=1 n=a#6 v=0
38160 On ch=1 n=g#6 v=73
38304 On ch=1 n=b5 v=0
38397 On ch=1 n=g#6 v=0
38400 On ch=1 n=g6 v=72
38400 On ch=1 n=a#5 v=72
38640 On ch=1 n=g6 v=0
38832 On ch=1 n=a#5 v=0
38880 On ch=1 n=g6 v=71
38880 On ch=1 n=a#5 v=71
39355 On ch=1 n=g6 v=0
39360 On ch=1 n=g#6 v=70
39597 On ch=1 n=g#6 v=0
39600 On ch=1 n=g6 v=69
39744 On ch=1 n=a#5 v=0
39837 On ch=1 n=g6 v=0
39840 On ch=1 n=f6 v=68
39840 On ch=1 n=g#5 v=68
40080 On ch=1 n=f6 v=0
40272 On ch=1 n=g#5 v=0
40320 On ch=1 n=f6 v=67
40320 On ch=1 n=g#5 v=67
40795 On ch=1 n=f6 v=0
40800 On ch=1 n=g6 v=66
41037 On ch=1 n=g6 v=0
41040 On ch=1 n=f6 v=65
41184 On ch=1 n=g#5 v=0
41277 On ch=1 n=f6 v=0
41280 On ch=1 n=d#6 v=65
41280 On ch=1 n=g5 v=65
41520 On ch=1 n=d#6 v=0
41712 On ch=1 n=g5 v=0
41760 On ch=1 n=a#5 v=75
42000 On ch=1 n=a#5 v=0
42240 On ch=1 n=d6 v=80
42477 On ch=1 n=d6 v=0
42480 On ch=1 n=d#6 v=80
42717 On ch=1 n=d#6 v=0
42720 On ch=1 n=f6 v=85
42720 On ch=1 n=d6 v=85
43195 On ch=1 n=f6 v=0
43195 On ch=1 n=d6 v=0
43200 On ch=1 n=a#5 v=75
43440 On ch=1 n=a#5 v=0
43680 On ch=1 n=d#6 v=80
43917 On ch=1 n=d#6 v=0
43920 On ch=1 n=f6 v=80
44157 On ch=1 n=f6 v=0
44160 On ch=1 n=g6 v=85
44160 On ch=1 n=d#6 v=85
44635 On ch=1 n=g6 v=0
44635 On ch=1 n=d#6 v=0
44640 On ch=1 n=a#5 v=75
44880 On ch=1 n=a#5 v=0
45120 On ch=1 n=f6 v=80
45357 On ch=1 n=f6 v=0
45360 On ch=1 n=g6 v=80
45597 On ch=1 n=g6 v=0
45600 On ch=1 n=g#6 v=85
45600 On ch=1 n=f6 v=75
46032 On ch=1 n=g#6 v=0
46032 On ch=1 n=f6 v=0
46080 On ch=1 n=g6 v=105
46080 On ch=1 n=a#6 v=105
46080 On ch=1 n=c#6 v=105
46320 On ch=1 n=g6 v=0
46320 On ch=1 n=a#6 v=0
46320 On ch=1 n=c#6 v=0
46800 On ch=1 n=g6 v=100
46800 On ch=1 n=a#6 v=100
47037 On ch=1 n=g6 v=0
47037 On ch=1 n=a#6 v=0
47040 On ch=1 n=c#6 v=100
47040 On ch=1 n=c#6 v=100
47277 On ch=1 n=c#6 v=0
47280 On ch=1 n=g6 v=100
47280 On ch=1 n=a#6 v=100
47496 On ch=1 n=g6 v=0
47496 On ch=1 n=a#6 v=0
47515 On ch=1 n=c#6 v=0
47520 On ch=1 n=c#6 v=100
47520 On ch=1 n=c#6 v=100
47757 On ch=1 n=c#6 v=0
47760 On ch=1 n=a#6 v=99
47997 On ch=1 n=a#6 v=0
48000 On ch=1 n=c7 v=98
48237 On ch=1 n=c7 v=0
48240 On ch=1 n=a#6 v=97
48470 On ch=1 n=c#6 v=0
48477 On ch=1 n=a#6 v=0
48480 On ch=1 n=g#6 v=96
48480 On ch=1 n=c6 v=96
48720 On ch=1 n=g#6 v=0
48720 On ch=1 n=c6 v=0
48960 On ch=1 n=b5 v=95
48960 On ch=1 n=b5 v=95
49197 On ch=1 n=b5 v=0
49200 On ch=1 n=g#6 v=94
49437 On ch=1 n=g#6 v=0
49440 On ch=1 n=a#6 v=93
49677 On ch=1 n=a#6 v=0
49680 On ch=1 n=g#6 v=93
49910 On ch=1 n=b5 v=0
49917 On ch=1 n=g#6 v=0
49920 On ch=1 n=g6 v=92
49920 On ch=1 n=a#5 v=91
50160 On ch=1 n=g6 v=0
50160 On ch=1 n=a#5 v=0
50400 On ch=1 n=a#5 v=90
50400 On ch=1 n=a#5 v=90
50637 On ch=1 n=a#5 v=0
50640 On ch=1 n=g6 v=89
50877 On ch=1 n=g6 v=0
50880 On ch=1 n=g#6 v=88
51117 On ch=1 n=g#6 v=0
51120 On ch=1 n=g6 v=87
51350 On ch=1 n=a#5 v=0
51357 On ch=1 n=g6 v=0
51360 On ch=1 n=f6 v=86
51360 On ch=1 n=g#5 v=90
51600 On ch=1 n=f6 v=0
51600 On ch=1 n=g#5 v=0
51840 On ch=1 n=d#6 v=100
51840 On ch=1 n=g5 v=100
52272 On ch=1 n=d#6 v=0
52272 On ch=1 n=g5 v=0
52320 On ch=1 n=d#6 v=100
52440 On ch=1 n=d#6 v=0
52560 On ch=1 n=d#6 v=100
52680 On ch=1 n=d#6 v=0
52800 On ch=1 n=d#6 v=100
52920 On ch=1 n=d#6 v=0
53040 On ch=1 n=d#6 v=100
53160 On ch=1 n=d#6 v=0
53280 On ch=1 n=d#6 v=75
53400 On ch=1 n=d#6 v=0
53520 On ch=1 n=d#6 v=78
53640 On ch=1 n=d#6 v=0
53760 On ch=1 n=d#6 v=81
53880 On ch=1 n=d#6 v=0
54000 On ch=1 n=d#6 v=84
54120 On ch=1 n=d#6 v=0
54240 On ch=1 n=d#6 v=87
54360 On ch=1 n=d#6 v=0
54480 On ch=1 n=d#6 v=90
54600 On ch=1 n=d#6 v=0
54720 On ch=1 n=f6 v=90
54957 On ch=1 n=f6 v=0
54960 On ch=1 n=d#6 v=87
55197 On ch=1 n=d#6 v=0
55200 On ch=1 n=c6 v=84
55437 On ch=1 n=c6 v=0
55440 On ch=1 n=g#5 v=81
55677 On ch=1 n=g#5 v=0
55680 On ch=1 n=d#5 v=78
55917 On ch=1 n=d#5 v=0
55920 On ch=1 n=e5 v=75
56136 On ch=1 n=e5 v=0
56160 On ch=1 n=f5 v=75
56280 On ch=1 n=f5 v=0
56400 On ch=1 n=f5 v=75
56520 On ch=1 n=f5 v=0
56640 On ch=1 n=f5 v=75
56760 On ch=1 n=f5 v=0
56880 On ch=1 n=f5 v=75
57000 On ch=1 n=f5 v=0
57120 On ch=1 n=f5 v=75
57240 On ch=1 n=f5 v=0
57360 On ch=1 n=f5 v=75
57480 On ch=1 n=f5 v=0
57600 On ch=1 n=d#5 v=75
57837 On ch=1 n=d#5 v=0
57840 On ch=1 n=g#5 v=78
58077 On ch=1 n=g#5 v=0
58080 On ch=1 n=c6 v=81
58317 On ch=1 n=c6 v=0
58320 On ch=1 n=d#6 v=84
58557 On ch=1 n=d#6 v=0
58560 On ch=1 n=g#6 v=87
58797 On ch=1 n=g#6 v=0
58800 On ch=1 n=e6 v=90
59016 On ch=1 n=e6 v=0
59040 On ch=1 n=f6 v=75
59160 On ch=1 n=f6 v=0
59280 On ch=1 n=f6 v=75
59400 On ch=1 n=f6 v=0
59520 On ch=1 n=f6 v=75
59640 On ch=1 n=f6 v=0
59760 On ch=1 n=f6 v=75
59880 On ch=1 n=f6 v=0
60000 On ch=1 n=f6 v=75
60120 On ch=1 n=f6 v=0
60240 On ch=1 n=f6 v=75
60360 On ch=1 n=f6 v=0
60480 On ch=1 n=f6 v=75
60638 On ch=1 n=f6 v=0
60640 On ch=1 n=g6 v=75
60798 On ch=1 n=g6 v=0
60800 On ch=1 n=f6 v=75
60958 On ch=1 n=f6 v=0
60960 On ch=1 n=d#6 v=75
61197 On ch=1 n=d#6 v=0
61200 On ch=1 n=g#6 v=80
61437 On ch=1 n=g#6 v=0
61440 On ch=1 n=c7 v=85
61680 On ch=1 n=c7 v=0
61920 On ch=1 n=f7 v=85
62395 On ch=1 n=f7 v=0
62400 On ch=1 n=d#7 v=80
62637 On ch=1 n=d#7 v=0
62640 On ch=1 n=d7 v=75
62877 On ch=1 n=d7 v=0
62880 On ch=1 n=g6 v=75
63120 On ch=1 n=g6 v=0
63360 On ch=1 n=a#6 v=85
63835 On ch=1 n=a#6 v=0
63840 On ch=1 n=g#6 v=75
64077 On ch=1 n=g#6 v=0
64080 On ch=1 n=d#6 v=75
64317 On ch=1 n=d#6 v=0
64320 On ch=1 n=c6 v=75
64560 On ch=1 n=c6 v=0
64800 On ch=1 n=d#6 v=75
64920 On ch=1 n=d#6 v=0
65040 On ch=1 n=d#6 v=78
65160 On ch=1 n=d#6 v=0
65280 On ch=1 n=d#6 v=81
65400 On ch=1 n=d#6 v=0
65520 On ch=1 n=d#6 v=84
65640 On ch=1 n=d#6 v=0
65760 On ch=1 n=d#6 v=87
65880 On ch=1 n=d#6 v=0
66000 On ch=1 n=d#6 v=90
66120 On ch=1 n=d#6 v=0
66240 On ch=1 n=f6 v=90
66477 On ch=1 n=f6 v=0
66480 On ch=1 n=d#6 v=87
66717 On ch=1 n=d#6 v=0
66720 On ch=1 n=c6 v=84
66957 On ch=1 n=c6 v=0
66960 On ch=1 n=g#5 v=81
67197 On ch=1 n=g#5 v=0
67200 On ch=1 n=d#5 v=78
67437 On ch=1 n=d#5 v=0
67440 On ch=1 n=e5 v=75
67656 On ch=1 n=e5 v=0
67680 On ch=1 n=f5 v=75
67800 On ch=1 n=f5 v=0
67920 On ch=1 n=f5 v=75
68040 On ch=1 n=f5 v=0
68160 On ch=1 n=f5 v=75
68280 On ch=1 n=f5 v=0
68400 On ch=1 n=f5 v=75
68520 On ch=1 n=f5 v=0
68640 On ch=1 n=f5 v=75
68760 On ch=1 n=f5 v=0
68880 On ch=1 n=f5 v=75
69000 On ch=1 n=f5 v=0
69120 On ch=1 n=d#5 v=75
69357 On ch=1 n=d#5 v=0
69360 On ch=1 n=g#5 v=78
69597 On ch=1 n=g#5 v=0
69600 On ch=1 n=c6 v=81
69837 On ch=1 n=c6 v=0
69840 On ch=1 n=d#6 v=84
70077 On ch=1 n=d#6 v=0
70080 On ch=1 n=g#6 v=87
70317 On ch=1 n=g#6 v=0
70320 On ch=1 n=e6 v=90
70536 On ch=1 n=e6 v=0
70560 On ch=1 n=f6 v=75
70680 On ch=1 n=f6 v=0
70800 On ch=1 n=f6 v=75
70920 On ch=1 n=f6 v=0
71040 On ch=1 n=f6 v=75
71160 On ch=1 n=f6 v=0
71280 On ch=1 n=f6 v=75
71400 On ch=1 n=f6 v=0
71520 On ch=1 n=f6 v=75
71640 On ch=1 n=f6 v=0
71760 On ch=1 n=f6 v=75
71880 On ch=1 n=f6 v=0
72000 On ch=1 n=f6 v=75
72158 On ch=1 n=f6 v=0
72160 On ch=1 n=g6 v=75
72318 On ch=1 n=g6 v=0
72320 On ch=1 n=f6 v=75
72478 On ch=1 n=f6 v=0
72480 On ch=1 n=d#6 v=75
72717 On ch=1 n=d#6 v=0
72720 On ch=1 n=g#6 v=80
72957 On ch=1 n=g#6 v=0
72960 On ch=1 n=c7 v=85
73200 On ch=1 n=c7 v=0
73440 On ch=1 n=f7 v=85
73915 On ch=1 n=f7 v=0
73920 On ch=1 n=d#7 v=80
74157 On ch=1 n=d#7 v=0
74160 On ch=1 n=d7 v=75
74397 On ch=1 n=d7 v=0
74400 On ch=1 n=g6 v=75
74640 On ch=1 n=g6 v=0
74880 On ch=1 n=g#6 v=75
75830 On ch=1 n=g#6 v=0
75840 On ch=1 n=d6 v=77
75899 On ch=1 n=d6 v=0
75900 On ch=1 n=c6 v=79
75959 On ch=1 n=c6 v=0
75960 On ch=1 n=d6 v=81
76019 On ch=1 n=d6 v=0
76020 On ch=1 n=c6 v=83
76079 On ch=1 n=c6 v=0
76080 On ch=1 n=d6 v=85
76139 On ch=1 n=d6 v=0
76140 On ch=1 n=c6 v=87
76199 On ch=1 n=c6 v=0
76200 On ch=1 n=d6 v=89
76259 On ch=1 n=d6 v=0
76260 On ch=1 n=c6 v=91
76319 On ch=1 n=c6 v=0
76320 On ch=1 n=d6 v=100
76752 On ch=1 n=d6 v=0
76800 On ch=1 n=d6 v=100
77037 On ch=1 n=d6 v=0
77040 On ch=1 n=d#6 v=100
77277 On ch=1 n=d#6 v=0
77280 On ch=1 n=f6 v=100
77280 On ch=1 n=d6 v=100
77755 On ch=1 n=f6 v=0
77755 On ch=1 n=d6 v=0
77760 On ch=1 n=a#5 v=100
78192 On ch=1 n=a#5 v=0
78240 On ch=1 n=d#6 v=100
78477 On ch=1 n=d#6 v=0
78480 On ch=1 n=f6 v=100
78717 On ch=1 n=f6 v=0
78720 On ch=1 n=g6 v=100
78720 On ch=1 n=d#6 v=100
79195 On ch=1 n=g6 v=0
79195 On ch=1 n=d#6 v=0
79200 On ch=1 n=a#5 v=100
79632 On ch=1 n=a#5 v=0
79680 On ch=1 n=f6 v=100
79917 On ch=1 n=f6 v=0
79920 On ch=1 n=g6 v=100
80157 On ch=1 n=g6 v=0
80160 On ch=1 n=g#6 v=100
80160 On ch=1 n=f6 v=100
80592 On ch=1 n=g#6 v=0
80592 On ch=1 n=f6 v=0
80640 On ch=1 n=g6 v=105
80640 On ch=1 n=a#6 v=105
80640 On ch=1 n=c#6 v=105
81504 On ch=1 n=g6 v=0
81504 On ch=1 n=a#6 v=0
81504 On ch=1 n=c#6 v=0
81600 On ch=1 n=c#6 v=102
81600 On ch=1 n=g6 v=102
81600 On ch=1 n=a#6 v=102
81720 On ch=1 n=c#6 v=0
81720 On ch=1 n=g6 v=0
81720 On ch=1 n=a#6 v=0
81840 On ch=1 n=c#6 v=99
81840 On ch=1 n=g6 v=99
81840 On ch=1 n=a#6 v=99
81960 On ch=1 n=c#6 v=0
81960 On ch=1 n=g6 v=0
81960 On ch=1 n=a#6 v=0
82080 On ch=1 n=a#6 v=98
82080 On ch=1 n=g6 v=98
82080 On ch=1 n=c#6 v=98
82555 On ch=1 n=a#6 v=0
82560 On ch=1 n=c7 v=97
82797 On ch=1 n=c7 v=0
82800 On ch=1 n=a#6 v=96
82944 On ch=1 n=g6 v=0
82944 On ch=1 n=c#6 v=0
83037 On ch=1 n=a#6 v=0
83040 On ch=1 n=g#6 v=95
83040 On ch=1 n=c6 v=95
83280 On ch=1 n=g#6 v=0
83472 On ch=1 n=c6 v=0
83520 On ch=1 n=g#6 v=94
83520 On ch=1 n=b5 v=94
83995 On ch=1 n=g#6 v=0
84000 On ch=1 n=a#6 v=93
84237 On ch=1 n=a#6 v=0
84240 On ch=1 n=g#6 v=92
84384 On ch=1 n=b5 v=0
84477 On ch=1 n=g#6 v=0
84480 On ch=1 n=g6 v=91
84480 On ch=1 n=a#5 v=90
84720 On ch=1 n=g6 v=0
84912 On ch=1 n=a#5 v=0
84960 On ch=1 n=g6 v=89
84960 On ch=1 n=a#5 v=89
85435 On ch=1 n=g6 v=0
85440 On ch=1 n=g#6 v=88
85677 On ch=1 n=g#6 v=0
85680 On ch=1 n=g6 v=87
85824 On ch=1 n=a#5 v=0
85917 On ch=1 n=g6 v=0
85920 On ch=1 n=f6 v=86
85920 On ch=1 n=g#5 v=86
86160 On ch=1 n=f6 v=0
86352 On ch=1 n=g#5 v=0
86400 On ch=1 n=f6 v=85
86400 On ch=1 n=g#5 v=85
86875 On ch=1 n=f6 v=0
86880 On ch=1 n=g6 v=84
87117 On ch=1 n=g6 v=0
87120 On ch=1 n=f6 v=83
87264 On ch=1 n=g#5 v=0
87357 On ch=1 n=f6 v=0
87360 On ch=1 n=d#6 v=82
87360 On ch=1 n=g5 v=81
87600 On ch=1 n=d#6 v=0
87792 On ch=1 n=g5 v=0
87840 On ch=1 n=a#5 v=85
88077 On ch=1 n=a#5 v=0
88080 On ch=1 n=d6 v=88
88317 On ch=1 n=d6 v=0
88320 On ch=1 n=d#6 v=91
88557 On ch=1 n=d#6 v=0
88560 On ch=1 n=e6 v=94
88797 On ch=1 n=e6 v=0
88800 On ch=1 n=f6 v=97
88800 On ch=1 n=d6 v=100
89232 On ch=1 n=f6 v=0
89232 On ch=1 n=d6 v=0
89280 On ch=1 n=a#5 v=85
89517 On ch=1 n=a#5 v=0
89520 On ch=1 n=d6 v=88
89757 On ch=1 n=d6 v=0
89760 On ch=1 n=d#6 v=91
89997 On ch=1 n=d#6 v=0
90000 On ch=1 n=f6 v=94
90237 On ch=1 n=f6 v=0
90240 On ch=1 n=g6 v=97
90240 On ch=1 n=d#6 v=101
90672 On ch=1 n=g6 v=0
90672 On ch=1 n=d#6 v=0
90720 On ch=1 n=a#5 v=87
90957 On ch=1 n=a#5 v=0
90960 On ch=1 n=e6 v=90
91197 On ch=1 n=e6 v=0
91200 On ch=1 n=f6 v=93
91437 On ch=1 n=f6 v=0
91440 On ch=1 n=g6 v=97
91677 On ch=1 n=g6 v=0
91680 On ch=1 n=g#6 v=100
91680 On ch=1 n=f6 v=100
92112 On ch=1 n=g#6 v=0
92112 On ch=1 n=f6 v=0
92160 On ch=1 n=g6 v=105
92160 On ch=1 n=a#6 v=105
92160 On ch=1 n=c#6 v=105
92400 On ch=1 n=g6 v=0
92400 On ch=1 n=a#6 v=0
92400 On ch=1 n=c#6 v=0
92880 On ch=1 n=g6 v=100
92880 On ch=1 n=a#6 v=100
93117 On ch=1 n=g6 v=0
93117 On ch=1 n=a#6 v=0
93120 On ch=1 n=c#6 v=100
93120 On ch=1 n=c#6 v=100
93357 On ch=1 n=c#6 v=0
93360 On ch=1 n=g6 v=100
93360 On ch=1 n=a#6 v=100
93576 On ch=1 n=g6 v=0
93576 On ch=1 n=a#6 v=0
93595 On ch=1 n=c#6 v=0
93600 On ch=1 n=c#6 v=100
93600 On ch=1 n=c#6 v=100
93837 On ch=1 n=c#6 v=0
93840 On ch=1 n=a#6 v=99
94077 On ch=1 n=a#6 v=0
94080 On ch=1 n=c7 v=98
94317 On ch=1 n=c7 v=0
94320 On ch=1 n=a#6 v=97
94550 On ch=1 n=c#6 v=0
94557 On ch=1 n=a#6 v=0
94560 On ch=1 n=g#6 v=96
94560 On ch=1 n=c6 v=96
94800 On ch=1 n=g#6 v=0
94800 On ch=1 n=c6 v=0
95040 On ch=1 n=b5 v=95
95040 On ch=1 n=b5 v=95
95277 On ch=1 n=b5 v=0
95280 On ch=1 n=g#6 v=94
95517 On ch=1 n=g#6 v=0
95520 On ch=1 n=a#6 v=93
95757 On ch=1 n=a#6 v=0
95760 On ch=1 n=g#6 v=93
95990 On ch=1 n=b5 v=0
95997 On ch=1 n=g#6 v=0
96000 On ch=1 n=g6 v=92
96000 On ch=1 n=a#5 v=91
96240 On ch=1 n=g6 v=0
96240 On ch=1 n=a#5 v=0
96480 On ch=1 n=a#5 v=90
96480 On ch=1 n=a#5 v=90
96717 On ch=1 n=a#5 v=0
96720 On ch=1 n=g6 v=89
96957 On ch=1 n=g6 v=0
96960 On ch=1 n=g#6 v=88
97197 On ch=1 n=g#6 v=0
97200 On ch=1 n=g6 v=87
97430 On ch=1 n=a#5 v=0
97437 On ch=1 n=g6 v=0
97440 On ch=1 n=f6 v=86
97440 On ch=1 n=g#5 v=86
97680 On ch=1 n=f6 v=0
97680 On ch=1 n=g#5 v=0
97920 On ch=1 n=d#6 v=85
97920 On ch=1 n=g5 v=85
98352 On ch=1 n=d#6 v=0
98352 On ch=1 n=g5 v=0
98400 On ch=1 n=d#6 v=75
98520 On ch=1 n=d#6 v=0
98640 On ch=1 n=d#6 v=75
98760 On ch=1 n=d#6 v=0
98880 On ch=1 n=d#6 v=75
99000 On ch=1 n=d#6 v=0
99120 On ch=1 n=d#6 v=75
99240 On ch=1 n=d#6 v=0
99360 On ch=1 n=d#6 v=75
99480 On ch=1 n=d#6 v=0
99600 On ch=1 n=d#6 v=78
99720 On ch=1 n=d#6 v=0
99840 On ch=1 n=d#6 v=81
99960 On ch=1 n=d#6 v=0
100080 On ch=1 n=d#6 v=84
100200 On ch=1 n=d#6 v=0
100320 On ch=1 n=d#6 v=87
100440 On ch=1 n=d#6 v=0
100560 On ch=1 n=d#6 v=90
100680 On ch=1 n=d#6 v=0
100800 On ch=1 n=f6 v=90
101037 On ch=1 n=f6 v=0
101040 On ch=1 n=d#6 v=87
101277 On ch=1 n=d#6 v=0
101280 On ch=1 n=c6 v=84
101517 On ch=1 n=c6 v=0
101520 On ch=1 n=g#5 v=81
101757 On ch=1 n=g#5 v=0
101760 On ch=1 n=d#5 v=78
101997 On ch=1 n=d#5 v=0
102000 On ch=1 n=e5 v=75
102216 On ch=1 n=e5 v=0
102240 On ch=1 n=f5 v=75
102360 On ch=1 n=f5 v=0
102480 On ch=1 n=f5 v=75
102600 On ch=1 n=f5 v=0
102720 On ch=1 n=f5 v=75
102840 On ch=1 n=f5 v=0
102960 On ch=1 n=f5 v=75
103080 On ch=1 n=f5 v=0
103200 On ch=1 n=f5 v=75
103320 On ch=1 n=f5 v=0
103440 On ch=1 n=f5 v=75
103560 On ch=1 n=f5 v=0
103680 On ch=1 n=d#5 v=75
103917 On ch=1 n=d#5 v=0
103920 On ch=1 n=g#5 v=78
104157 On ch=1 n=g#5 v=0
104160 On ch=1 n=c6 v=81
104397 On ch=1 n=c6 v=0
104400 On ch=1 n=d#6 v=84
104637 On ch=1 n=d#6 v=0
104640 On ch=1 n=g#6 v=87
104877 On ch=1 n=g#6 v=0
104880 On ch=1 n=e6 v=90
105096 On ch=1 n=e6 v=0
105120 On ch=1 n=f6 v=75
105240 On ch=1 n=f6 v=0
105360 On ch=1 n=f6 v=75
105480 On ch=1 n=f6 v=0
105600 On ch=1 n=f6 v=75
105720 On ch=1 n=f6 v=0
105840 On ch=1 n=f6 v=75
105960 On ch=1 n=f6 v=0
106080 On ch=1 n=f6 v=75
106200 On ch=1 n=f6 v=0
106320 On ch=1 n=f6 v=75
106440 On ch=1 n=f6 v=0
106560 On ch=1 n=f6 v=75
106718 On ch=1 n=f6 v=0
106720 On ch=1 n=g6 v=75
106878 On ch=1 n=g6 v=0
106880 On ch=1 n=f6 v=75
107038 On ch=1 n=f6 v=0
107040 On ch=1 n=d#6 v=80
107277 On ch=1 n=d#6 v=0
107280 On ch=1 n=g#6 v=85
107517 On ch=1 n=g#6 v=0
107520 On ch=1 n=c7 v=85
107760 On ch=1 n=c7 v=0
108000 On ch=1 n=f7 v=85
108475 On ch=1 n=f7 v=0
108480 On ch=1 n=d#7 v=80
108717 On ch=1 n=d#7 v=0
108720 On ch=1 n=d7 v=75
108957 On ch=1 n=d7 v=0
108960 On ch=1 n=g6 v=75
109200 On ch=1 n=g6 v=0
109440 On ch=1 n=a#6 v=85
109915 On ch=1 n=a#6 v=0
109920 On ch=1 n=g#6 v=75
110157 On ch=1 n=g#6 v=0
110160 On ch=1 n=d#6 v=75
110397 On ch=1 n=d#6 v=0
110400 On ch=1 n=c6 v=75
110640 On ch=1 n=c6 v=0
110880 On ch=1 n=d#6 v=75
111000 On ch=1 n=d#6 v=0
111120 On ch=1 n=d#6 v=78
111240 On ch=1 n=d#6 v=0
111360 On ch=1 n=d#6 v=81
111480 On ch=1 n=d#6 v=0
111600 On ch=1 n=d#6 v=84
111720 On ch=1 n=d#6 v=0
111840 On ch=1 n=d#6 v=87
111960 On ch=1 n=d#6 v=0
112080 On ch=1 n=d#6 v=90
112200 On ch=1 n=d#6 v=0
112320 On ch=1 n=f6 v=90
112557 On ch=1 n=f6 v=0
112560 On ch=1 n=d#6 v=87
112797 On ch=1 n=d#6 v=0
112800 On ch=1 n=c6 v=84
113037 On ch=1 n=c6 v=0
113040 On ch=1 n=g#5 v=81
113277 On ch=1 n=g#5 v=0
113280 On ch=1 n=d#5 v=78
113517 On ch=1 n=d#5 v=0
113520 On ch=1 n=e5 v=75
113736 On ch=1 n=e5 v=0
113760 On ch=1 n=f5 v=75
113880 On ch=1 n=f5 v=0
114000 On ch=1 n=f5 v=75
114120 On ch=1 n=f5 v=0
114240 On ch=1 n=f5 v=75
114360 On ch=1 n=f5 v=0
114480 On ch=1 n=f5 v=75
114600 On ch=1 n=f5 v=0
114720 On ch=1 n=f5 v=75
114840 On ch=1 n=f5 v=0
114960 On ch=1 n=f5 v=75
115080 On ch=1 n=f5 v=0
115200 On ch=1 n=d#5 v=75
115437 On ch=1 n=d#5 v=0
115440 On ch=1 n=g#5 v=78
115677 On ch=1 n=g#5 v=0
115680 On ch=1 n=c6 v=81
115917 On ch=1 n=c6 v=0
115920 On ch=1 n=d#6 v=84
116157 On ch=1 n=d#6 v=0
116160 On ch=1 n=g#6 v=87
116397 On ch=1 n=g#6 v=0
116400 On ch=1 n=e6 v=90
116616 On ch=1 n=e6 v=0
116640 On ch=1 n=f6 v=75
116760 On ch=1 n=f6 v=0
116880 On ch=1 n=f6 v=75
117000 On ch=1 n=f6 v=0
117120 On ch=1 n=f6 v=75
117240 On ch=1 n=f6 v=0
117360 On ch=1 n=f6 v=75
117480 On ch=1 n=f6 v=0
117600 On ch=1 n=f6 v=75
117720 On ch=1 n=f6 v=0
117840 On ch=1 n=f6 v=75
117960 On ch=1 n=f6 v=0
118080 On ch=1 n=f6 v=75
118238 On ch=1 n=f6 v=0
118240 On ch=1 n=g6 v=75
118398 On ch=1 n=g6 v=0
118400 On ch=1 n=f6 v=75
118558 On ch=1 n=f6 v=0
118560 On ch=1 n=d#6 v=75
118797 On ch=1 n=d#6 v=0
118800 On ch=1 n=g#6 v=80
119037 On ch=1 n=g#6 v=0
119040 On ch=1 n=c7 v=85
119280 On ch=1 n=c7 v=0
119520 On ch=1 n=f7 v=85
119995 On ch=1 n=f7 v=0
120000 On ch=1 n=d#7 v=80
120237 On ch=1 n=d#7 v=0
120240 On ch=1 n=d7 v=75
120477 On ch=1 n=d7 v=0
120480 On ch=1 n=g6 v=75
120955 On ch=1 n=g6 v=0
120960 On ch=1 n=g#6 v=75
121824 On ch=1 n=g#6 v=0
121920 On ch=1 n=g#5 v=75
122352 On ch=1 n=g#5 v=0
122400 On ch=1 n=f#6 v=90
122400 On ch=1 n=d#6 v=90
123350 On ch=1 n=f#6 v=0
123350 On ch=1 n=d#6 v=0
123360 On ch=1 n=d6 v=90
123360 On ch=1 n=b5 v=90
123835 On ch=1 n=d6 v=0
123835 On ch=1 n=b5 v=0
123840 On ch=1 n=d#6 v=90
123840 On ch=1 n=c6 v=90
124080 On ch=1 n=d#6 v=0
124080 On ch=1 n=c6 v=0
124320 On ch=1 n=g#5 v=90
124440 On ch=1 n=g#5 v=0
124560 On ch=1 n=g#5 v=90
124680 On ch=1 n=g#5 v=0
124800 On ch=1 n=g#5 v=90
125232 On ch=1 n=g#5 v=0
125280 On ch=1 n=f#6 v=90
125280 On ch=1 n=a#6 v=90
126230 On ch=1 n=f#6 v=0
126230 On ch=1 n=a#6 v=0
126240 On ch=1 n=g6 v=90
126240 On ch=1 n=e6 v=90
126715 On ch=1 n=g6 v=0
126715 On ch=1 n=e6 v=0
126720 On ch=1 n=g#6 v=90
126720 On ch=1 n=f6 v=90
126960 On ch=1 n=g#6 v=0
126960 On ch=1 n=f6 v=0
127200 On ch=1 n=g#5 v=90
127320 On ch=1 n=g#5 v=0
127440 On ch=1 n=g#5 v=90
127560 On ch=1 n=g#5 v=0
127680 On ch=1 n=g#5 v=90
128112 On ch=1 n=g#5 v=0
128160 On ch=1 n=f#6 v=90
128160 On ch=1 n=d#6 v=90
129110 On ch=1 n=f#6 v=0
129110 On ch=1 n=d#6 v=0
129120 On ch=1 n=d6 v=90
129120 On ch=1 n=b5 v=90
129595 On ch=1 n=d6 v=0
129595 On ch=1 n=b5 v=0
129600 On ch=1 n=d#6 v=90
129600 On ch=1 n=c6 v=90
129840 On ch=1 n=d#6 v=0
129840 On ch=1 n=c6 v=0
130080 On ch=1 n=g#5 v=90
130200 On ch=1 n=g#5 v=0
130320 On ch=1 n=g#5 v=90
130440 On ch=1 n=g#5 v=0
130560 On ch=1 n=g#5 v=90
130992 On ch=1 n=g#5 v=0
131040 On ch=1 n=f#6 v=90
131040 On ch=1 n=a#5 v=90
131515 On ch=1 n=f#6 v=0
131515 On ch=1 n=a#5 v=0
131520 On ch=1 n=f6 v=85
131520 On ch=1 n=g#5 v=85
131995 On ch=1 n=f6 v=0
131995 On ch=1 n=g#5 v=0
132000 On ch=1 n=d#6 v=80
132000 On ch=1 n=f#5 v=90
132475 On ch=1 n=d#6 v=0
132475 On ch=1 n=f#5 v=0
132480 On ch=1 n=c#6 v=90
132480 On ch=1 n=f5 v=90
132720 On ch=1 n=c#6 v=0
132720 On ch=1 n=f5 v=0
132960 On ch=1 n=g#5 v=90
133080 On ch=1 n=g#5 v=0
133200 On ch=1 n=g#5 v=90
133320 On ch=1 n=g#5 v=0
133440 On ch=1 n=g#5 v=90
133872 On ch=1 n=g#5 v=0
133920 On ch=1 n=f#6 v=90
133920 On ch=1 n=d#6 v=90
134870 On ch=1 n=f#6 v=0
134870 On ch=1 n=d#6 v=0
134880 On ch=1 n=d6 v=90
134880 On ch=1 n=b5 v=90
135355 On ch=1 n=d6 v=0
135355 On ch=1 n=b5 v=0
135360 On ch=1 n=d#6 v=90
135360 On ch=1 n=c6 v=90
135600 On ch=1 n=d#6 v=0
135600 On ch=1 n=c6 v=0
135840 On ch=1 n=g#5 v=90
135960 On ch=1 n=g#5 v=0
136080 On ch=1 n=g#5 v=90
136200 On ch=1 n=g#5 v=0
136320 On ch=1 n=g#5 v=90
136752 On ch=1 n=g#5 v=0
136800 On ch=1 n=f#6 v=90
136800 On ch=1 n=a#6 v=90
137750 On ch=1 n=f#6 v=0
137750 On ch=1 n=a#6 v=0
137760 On ch=1 n=g6 v=90
137760 On ch=1 n=e6 v=90
138235 On ch=1 n=g6 v=0
138235 On ch=1 n=e6 v=0
138240 On ch=1 n=g#6 v=90
138240 On ch=1 n=f6 v=90
138480 On ch=1 n=g#6 v=0
138480 On ch=1 n=f6 v=0
138720 On ch=1 n=g#5 v=90
138840 On ch=1 n=g#5 v=0
138960 On ch=1 n=g#5 v=90
139080 On ch=1 n=g#5 v=0
139200 On ch=1 n=g#5 v=90
139675 On ch=1 n=g#5 v=0
139680 On ch=1 n=g#6 v=90
140112 On ch=1 n=g#6 v=0
140160 On ch=1 n=a#5 v=90
140160 On ch=1 n=a#5 v=90
140397 On ch=1 n=a#5 v=0
140400 On ch=1 n=g#6 v=90
140616 On ch=1 n=g#6 v=0
140635 On ch=1 n=a#5 v=0
140640 On ch=1 n=f#6 v=90
140640 On ch=1 n=d#6 v=90
141115 On ch=1 n=f#6 v=0
141115 On ch=1 n=d#6 v=0
141120 On ch=1 n=d#6 v=90
141120 On ch=1 n=f#6 v=90
141552 On ch=1 n=d#6 v=0
141600 On ch=1 n=g#5 v=90
141768 On ch=1 n=f#6 v=0
141840 On ch=1 n=f#6 v=90
142032 On ch=1 n=g#5 v=0
142056 On ch=1 n=f#6 v=0
142080 On ch=1 n=f6 v=90
142080 On ch=1 n=c#6 v=90
142555 On ch=1 n=f6 v=0
142555 On ch=1 n=c#6 v=0
142560 On ch=1 n=c#6 v=90
142560 On ch=1 n=f6 v=90
142992 On ch=1 n=c#6 v=0
143040 On ch=1 n=f#5 v=90
143208 On ch=1 n=f6 v=0
143280 On ch=1 n=f6 v=90
143472 On ch=1 n=f#5 v=0
143496 On ch=1 n=f6 v=0
143520 On ch=1 n=f#5 v=90
143520 On ch=1 n=d#6 v=90
143952 On ch=1 n=f#5 v=0
143952 On ch=1 n=d#6 v=0
144000 On ch=1 n=c#6 v=100
144000 On ch=1 n=f5 v=100
144432 On ch=1 n=c#6 v=0
144432 On ch=1 n=f5 v=0
144480 On ch=1 n=g#5 v=100
144600 On ch=1 n=g#5 v=0
144720 On ch=1 n=g#5 v=100
144840 On ch=1 n=g#5 v=0
144960 On ch=1 n=g#5 v=100
145392 On ch=1 n=g#5 v=0
145440 On ch=1 n=f#6 v=90
145440 On ch=1 n=d#6 v=90
146390 On ch=1 n=f#6 v=0
146390 On ch=1 n=d#6 v=0
146400 On ch=1 n=d6 v=90
146400 On ch=1 n=b5 v=90
146875 On ch=1 n=d6 v=0
146875 On ch=1 n=b5 v=0
146880 On ch=1 n=d#6 v=90
146880 On ch=1 n=c6 v=90
147120 On ch=1 n=d#6 v=0
147120 On ch=1 n=c6 v=0
147360 On ch=1 n=g#5 v=90
147480 On ch=1 n=g#5 v=0
147600 On ch=1 n=g#5 v=90
147720 On ch=1 n=g#5 v=0
147840 On ch=1 n=g#5 v=90
148272 On ch=1 n=g#5 v=0
148320 On ch=1 n=f#6 v=90
148320 On ch=1 n=a#6 v=90
149270 On ch=1 n=f#6 v=0
149270 On ch=1 n=a#6 v=0
149280 On ch=1 n=g6 v=90
149280 On ch=1 n=e6 v=90
149755 On ch=1 n=g6 v=0
149755 On ch=1 n=e6 v=0
149760 On ch=1 n=g#6 v=90
149760 On ch=1 n=f6 v=90
150000 On ch=1 n=g#6 v=0
150000 On ch=1 n=f6 v=0
150240 On ch=1 n=g#5 v=90
150360 On ch=1 n=g#5 v=0
150480 On ch=1 n=g#5 v=90
150600 On ch=1 n=g#5 v=0
150720 On ch=1 n=g#5 v=90
151152 On ch=1 n=g#5 v=0
151200 On ch=1 n=f#6 v=90
151200 On ch=1 n=d#6 v=90
152150 On ch=1 n=f#6 v=0
152150 On ch=1 n=d#6 v=0
152160 On ch=1 n=d6 v=90
152160 On ch=1 n=b5 v=90
152635 On ch=1 n=d6 v=0
152635 On ch=1 n=b5 v=0
152640 On ch=1 n=d#6 v=90
152640 On ch=1 n=c6 v=90
152880 On ch=1 n=d#6 v=0
152880 On ch=1 n=c6 v=0
153120 On ch=1 n=g#5 v=90
153240 On ch=1 n=g#5 v=0
153360 On ch=1 n=g#5 v=90
153480 On ch=1 n=g#5 v=0
153600 On ch=1 n=g#5 v=90
154032 On ch=1 n=g#5 v=0
154080 On ch=1 n=f#6 v=90
154080 On ch=1 n=a#5 v=90
154555 On ch=1 n=f#6 v=0
154555 On ch=1 n=a#5 v=0
154560 On ch=1 n=f6 v=85
154560 On ch=1 n=g#5 v=85
155035 On ch=1 n=f6 v=0
155035 On ch=1 n=g#5 v=0
155040 On ch=1 n=d#6 v=80
155040 On ch=1 n=f#5 v=90
155515 On ch=1 n=d#6 v=0
155515 On ch=1 n=f#5 v=0
155520 On ch=1 n=c#6 v=90
155520 On ch=1 n=f5 v=90
155760 On ch=1 n=c#6 v=0
155760 On ch=1 n=f5 v=0
156000 On ch=1 n=g#5 v=90
156120 On ch=1 n=g#5 v=0
156240 On ch=1 n=g#5 v=90
156360 On ch=1 n=g#5 v=0
156480 On ch=1 n=g#5 v=90
156912 On ch=1 n=g#5 v=0
156960 On ch=1 n=f#6 v=90
156960 On ch=1 n=d#6 v=90
157910 On ch=1 n=f#6 v=0
157910 On ch=1 n=d#6 v=0
157920 On ch=1 n=d6 v=90
157920 On ch=1 n=b5 v=90
158395 On ch=1 n=d6 v=0
158395 On ch=1 n=b5 v=0
158400 On ch=1 n=d#6 v=90
158400 On ch=1 n=c6 v=90
158640 On ch=1 n=d#6 v=0
158640 On ch=1 n=c6 v=0
158880 On ch=1 n=g#5 v=90
159000 On ch=1 n=g#5 v=0
159120 On ch=1 n=g#5 v=90
159240 On ch=1 n=g#5 v=0
159360 On ch=1 n=g#5 v=90
159792 On ch=1 n=g#5 v=0
159840 On ch=1 n=f#6 v=90
159840 On ch=1 n=a#6 v=90
160790 On ch=1 n=f#6 v=0
160790 On ch=1 n=a#6 v=0
160800 On ch=1 n=g6 v=90
160800 On ch=1 n=e6 v=90
161275 On ch=1 n=g6 v=0
161275 On ch=1 n=e6 v=0
161280 On ch=1 n=g#6 v=90
161280 On ch=1 n=f6 v=90
161520 On ch=1 n=g#6 v=0
161520 On ch=1 n=f6 v=0
161760 On ch=1 n=g#5 v=90
161880 On ch=1 n=g#5 v=0
162000 On ch=1 n=g#5 v=90
162120 On ch=1 n=g#5 v=0
162240 On ch=1 n=g#5 v=90
162715 On ch=1 n=g#5 v=0
162720 On ch=1 n=g#6 v=90
163152 On ch=1 n=g#6 v=0
163200 On ch=1 n=a#5 v=90
163200 On ch=1 n=a#5 v=90
163437 On ch=1 n=a#5 v=0
163440 On ch=1 n=g#6 v=90
163656 On ch=1 n=g#6 v=0
163675 On ch=1 n=a#5 v=0
163680 On ch=1 n=f#6 v=90
163680 On ch=1 n=d#6 v=90
164155 On ch=1 n=f#6 v=0
164155 On ch=1 n=d#6 v=0
164160 On ch=1 n=d#6 v=90
164160 On ch=1 n=f#6 v=90
164592 On ch=1 n=d#6 v=0
164640 On ch=1 n=g#5 v=90
164808 On ch=1 n=f#6 v=0
164880 On ch=1 n=f#6 v=90
165072 On ch=1 n=g#5 v=0
165096 On ch=1 n=f#6 v=0
165120 On ch=1 n=f6 v=90
165120 On ch=1 n=c#6 v=90
165595 On ch=1 n=f6 v=0
165595 On ch=1 n=c#6 v=0
165600 On ch=1 n=c#6 v=90
165600 On ch=1 n=f6 v=90
166032 On ch=1 n=c#6 v=0
166080 On ch=1 n=f#5 v=90
166248 On ch=1 n=f6 v=0
166320 On ch=1 n=f6 v=90
166512 On ch=1 n=f#5 v=0
166536 On ch=1 n=f6 v=0
166560 On ch=1 n=f#5 v=90
166560 On ch=1 n=d#6 v=90
166992 On ch=1 n=f#5 v=0
166992 On ch=1 n=d#6 v=0
167040 On ch=1 n=c#6 v=100
167040 On ch=1 n=f5 v=100
167472 On ch=1 n=c#6 v=0
167472 On ch=1 n=f5 v=0
168000 On ch=1 n=f6 v=110
168000 On ch=1 n=f5 v=110
168432 On ch=1 n=f6 v=0
168432 On ch=1 n=f5 v=0
168480 On ch=1 n=f6 v=110
168534 On ch=1 n=f6 v=0
168540 On ch=1 n=d#6 v=110
168540 On ch=1 n=g5 v=110
168960 On ch=1 n=g5 v=110
168972 On ch=1 n=d#6 v=0
168972 On ch=1 n=g5 v=0
169392 On ch=1 n=g5 v=0
169440 On ch=1 n=f6 v=110
169494 On ch=1 n=f6 v=0
169500 On ch=1 n=g5 v=110
169500 On ch=1 n=d#6 v=110
169920 On ch=1 n=g5 v=110
169932 On ch=1 n=g5 v=0
169932 On ch=1 n=d#6 v=0
170352 On ch=1 n=g5 v=0
170400 On ch=1 n=f6 v=110
170454 On ch=1 n=f6 v=0
170460 On ch=1 n=g5 v=110
170460 On ch=1 n=d#6 v=110
170880 On ch=1 n=g5 v=110
170892 On ch=1 n=g5 v=0
170892 On ch=1 n=d#6 v=0
171312 On ch=1 n=g5 v=0
171360 On ch=1 n=g#5 v=75
171597 On ch=1 n=g#5 v=0
171600 On ch=1 n=c6 v=75
171837 On ch=1 n=c6 v=0
171840 On ch=1 n=d#6 v=75
172077 On ch=1 n=d#6 v=0
172080 On ch=1 n=g#6 v=75
172317 On ch=1 n=g#6 v=0
172320 On ch=1 n=c7 v=75
172752 On ch=1 n=c7 v=0
172800 On ch=1 n=g#6 v=75
172944 On ch=1 n=g#6 v=0
172960 On ch=1 n=a#6 v=70
173104 On ch=1 n=a#6 v=0
173120 On ch=1 n=g#6 v=65
173264 On ch=1 n=g#6 v=0
173280 On ch=1 n=f6 v=65
173496 On ch=1 n=f6 v=0
173520 On ch=1 n=d6 v=75
173736 On ch=1 n=d6 v=0
173760 On ch=1 n=d#6 v=75
174192 On ch=1 n=d#6 v=0
174240 On ch=1 n=f6 v=100
174294 On ch=1 n=f6 v=0
174300 On ch=1 n=d#6 v=100
174300 On ch=1 n=g5 v=100
174720 On ch=1 n=g5 v=100
174732 On ch=1 n=d#6 v=0
174732 On ch=1 n=g5 v=0
175152 On ch=1 n=g5 v=0
175200 On ch=1 n=f6 v=100
175254 On ch=1 n=f6 v=0
175260 On ch=1 n=g5 v=100
175260 On ch=1 n=d#6 v=100
175680 On ch=1 n=g5 v=100
175692 On ch=1 n=g5 v=0
175692 On ch=1 n=d#6 v=0
176112 On ch=1 n=g5 v=0
176160 On ch=1 n=f6 v=100
176214 On ch=1 n=f6 v=0
176220 On ch=1 n=g5 v=100
176220 On ch=1 n=d#6 v=100
176640 On ch=1 n=g5 v=100
176652 On ch=1 n=g5 v=0
176652 On ch=1 n=d#6 v=0
177072 On ch=1 n=g5 v=0
177120 On ch=1 n=d#5 v=75
177264 On ch=1 n=d#5 v=0
177280 On ch=1 n=f5 v=77
177424 On ch=1 n=f5 v=0
177440 On ch=1 n=d#5 v=79
177584 On ch=1 n=d#5 v=0
177600 On ch=1 n=d5 v=81
177816 On ch=1 n=d5 v=0
177840 On ch=1 n=d#5 v=83
178056 On ch=1 n=d#5 v=0
178080 On ch=1 n=c6 v=85
178296 On ch=1 n=c6 v=0
178320 On ch=1 n=a#5 v=87
178536 On ch=1 n=a#5 v=0
178560 On ch=1 n=b5 v=89
178614 On ch=1 n=b5 v=0
178620 On ch=1 n=g#5 v=91
178674 On ch=1 n=g#5 v=0
178680 On ch=1 n=b5 v=93
178734 On ch=1 n=b5 v=0
178740 On ch=1 n=g#5 v=95
178794 On ch=1 n=g#5 v=0
178800 On ch=1 n=g5 v=97
179016 On ch=1 n=g5 v=0
179040 On ch=1 n=g#5 v=99
179256 On ch=1 n=g#5 v=0
179280 On ch=1 n=a#5 v=101
179496 On ch=1 n=a#5 v=0
179520 On ch=1 n=c6 v=103
179736 On ch=1 n=c6 v=0
179760 On ch=1 n=c#6 v=105
179976 On ch=1 n=c#6 v=0
180000 On ch=1 n=f6 v=110
180054 On ch=1 n=f6 v=0
180060 On ch=1 n=d#6 v=110
180060 On ch=1 n=g5 v=110
180480 On ch=1 n=g5 v=110
180492 On ch=1 n=d#6 v=0
180492 On ch=1 n=g5 v=0
180912 On ch=1 n=g5 v=0
180960 On ch=1 n=f6 v=110
181014 On ch=1 n=f6 v=0
181020 On ch=1 n=g5 v=110
181020 On ch=1 n=d#6 v=110
181440 On ch=1 n=g5 v=110
181452 On ch=1 n=g5 v=0
181452 On ch=1 n=d#6 v=0
181872 On ch=1 n=g5 v=0
181920 On ch=1 n=f6 v=110
181974 On ch=1 n=f6 v=0
181980 On ch=1 n=g5 v=110
181980 On ch=1 n=d#6 v=110
182400 On ch=1 n=g5 v=110
182412 On ch=1 n=g5 v=0
182412 On ch=1 n=d#6 v=0
182832 On ch=1 n=g5 v=0
182880 On ch=1 n=g#5 v=75
183117 On ch=1 n=g#5 v=0
183120 On ch=1 n=c6 v=75
183357 On ch=1 n=c6 v=0
183360 On ch=1 n=d#6 v=75
183597 On ch=1 n=d#6 v=0
183600 On ch=1 n=g#6 v=75
183837 On ch=1 n=g#6 v=0
183840 On ch=1 n=c7 v=75
184272 On ch=1 n=c7 v=0
184320 On ch=1 n=g#6 v=85
184464 On ch=1 n=g#6 v=0
184480 On ch=1 n=a#6 v=80
184624 On ch=1 n=a#6 v=0
184640 On ch=1 n=g#6 v=75
184784 On ch=1 n=g#6 v=0
184800 On ch=1 n=f6 v=75
185016 On ch=1 n=f6 v=0
185040 On ch=1 n=d6 v=75
185256 On ch=1 n=d6 v=0
185280 On ch=1 n=d#6 v=75
185712 On ch=1 n=d#6 v=0
185760 On ch=1 n=f6 v=100
185814 On ch=1 n=f6 v=0
185820 On ch=1 n=d#6 v=100
185820 On ch=1 n=g5 v=100
186240 On ch=1 n=g5 v=100
186252 On ch=1 n=d#6 v=0
186252 On ch=1 n=g5 v=0
186672 On ch=1 n=g5 v=0
186720 On ch=1 n=f6 v=100
186774 On ch=1 n=f6 v=0
186780 On ch=1 n=g5 v=100
186780 On ch=1 n=d#6 v=100
187200 On ch=1 n=g5 v=100
187212 On ch=1 n=g5 v=0
187212 On ch=1 n=d#6 v=0
187632 On ch=1 n=g5 v=0
187680 On ch=1 n=f6 v=100
187734 On ch=1 n=f6 v=0
187740 On ch=1 n=g5 v=100
187740 On ch=1 n=d#6 v=100
188160 On ch=1 n=g5 v=100
188172 On ch=1 n=g5 v=0
188172 On ch=1 n=d#6 v=0
188592 On ch=1 n=g5 v=0
188640 On ch=1 n=b5 v=89
188694 On ch=1 n=b5 v=0
188700 On ch=1 n=g#5 v=91
188754 On ch=1 n=g#5 v=0
188760 On ch=1 n=b5 v=93
188814 On ch=1 n=b5 v=0
188820 On ch=1 n=g#5 v=95
188874 On ch=1 n=g#5 v=0
188880 On ch=1 n=g5 v=97
189096 On ch=1 n=g5 v=0
189120 On ch=1 n=g#5 v=99
189336 On ch=1 n=g#5 v=0
189360 On ch=1 n=a#5 v=101
189576 On ch=1 n=a#5 v=0
189600 On ch=1 n=c6 v=103
189816 On ch=1 n=c6 v=0
189840 On ch=1 n=c#6 v=105
190056 On ch=1 n=c#6 v=0
190080 On ch=1 n=d#6 v=107
190296 On ch=1 n=d#6 v=0
190320 On ch=1 n=f6 v=109
190536 On ch=1 n=f6 v=0
190560 On ch=1 n=f#6 v=111
190776 On ch=1 n=f#6 v=0
190800 On ch=1 n=g6 v=113
191016 On ch=1 n=g6 v=0
191040 On ch=1 n=a#6 v=115
191364 On ch=1 n=a#6 v=0
191400 On ch=1 n=g#6 v=117
191508 On ch=1 n=g#6 v=0
191520 On ch=1 n=f#6 v=90
191520 On ch=1 n=d#6 v=90
192470 On ch=1 n=f#6 v=0
192470 On ch=1 n=d#6 v=0
192480 On ch=1 n=d6 v=90
192480 On ch=1 n=b5 v=90
192955 On ch=1 n=d6 v=0
192955 On ch=1 n=b5 v=0
192960 On ch=1 n=d#6 v=90
192960 On ch=1 n=c6 v=90
193200 On ch=1 n=d#6 v=0
193200 On ch=1 n=c6 v=0
193440 On ch=1 n=g#5 v=90
193560 On ch=1 n=g#5 v=0
193680 On ch=1 n=g#5 v=90
193800 On ch=1 n=g#5 v=0
193920 On ch=1 n=g#5 v=90
194352 On ch=1 n=g#5 v=0
194400 On ch=1 n=f#6 v=90
194400 On ch=1 n=a#6 v=90
195350 On ch=1 n=f#6 v=0
195350 On ch=1 n=a#6 v=0
195360 On ch=1 n=g6 v=90
195360 On ch=1 n=e6 v=90
195835 On ch=1 n=g6 v=0
195835 On ch=1 n=e6 v=0
195840 On ch=1 n=g#6 v=90
195840 On ch=1 n=f6 v=90
196080 On ch=1 n=g#6 v=0
196080 On ch=1 n=f6 v=0
196320 On ch=1 n=g#5 v=90
196440 On ch=1 n=g#5 v=0
196560 On ch=1 n=g#5 v=90
196680 On ch=1 n=g#5 v=0
196800 On ch=1 n=g#5 v=90
197232 On ch=1 n=g#5 v=0
197280 On ch=1 n=f#6 v=90
197280 On ch=1 n=d#6 v=90
198230 On ch=1 n=f#6 v=0
198230 On ch=1 n=d#6 v=0
198240 On ch=1 n=d6 v=90
198240 On ch=1 n=b5 v=90
198715 On ch=1 n=d6 v=0
198715 On ch=1 n=b5 v=0
198720 On ch=1 n=d#6 v=90
198720 On ch=1 n=c6 v=90
198960 On ch=1 n=d#6 v=0
198960 On ch=1 n=c6 v=0
199200 On ch=1 n=g#5 v=90
199320 On ch=1 n=g#5 v=0
199440 On ch=1 n=g#5 v=90
199560 On ch=1 n=g#5 v=0
199680 On ch=1 n=g#5 v=90
200112 On ch=1 n=g#5 v=0
200160 On ch=1 n=f#6 v=90
200160 On ch=1 n=a#5 v=90
200635 On ch=1 n=f#6 v=0
200635 On ch=1 n=a#5 v=0
200640 On ch=1 n=f6 v=85
200640 On ch=1 n=g#5 v=85
201115 On ch=1 n=f6 v=0
201115 On ch=1 n=g#5 v=0
201120 On ch=1 n=d#6 v=80
201120 On ch=1 n=f#5 v=90
201595 On ch=1 n=d#6 v=0
201595 On ch=1 n=f#5 v=0
201600 On ch=1 n=c#6 v=90
201600 On ch=1 n=f5 v=90
201840 On ch=1 n=c#6 v=0
201840 On ch=1 n=f5 v=0
202080 On ch=1 n=g#5 v=90
202200 On ch=1 n=g#5 v=0
202320 On ch=1 n=g#5 v=90
202440 On ch=1 n=g#5 v=0
202560 On ch=1 n=g#5 v=90
202992 On ch=1 n=g#5 v=0
203040 On ch=1 n=f#6 v=90
203040 On ch=1 n=d#6 v=90
203990 On ch=1 n=f#6 v=0
203990 On ch=1 n=d#6 v=0
204000 On ch=1 n=d6 v=90
204000 On ch=1 n=b5 v=90
204475 On ch=1 n=d6 v=0
204475 On ch=1 n=b5 v=0
204480 On ch=1 n=d#6 v=90
204480 On ch=1 n=c6 v=90
204720 On ch=1 n=d#6 v=0
204720 On ch=1 n=c6 v=0
204960 On ch=1 n=g#5 v=90
205080 On ch=1 n=g#5 v=0
205200 On ch=1 n=g#5 v=90
205320 On ch=1 n=g#5 v=0
205440 On ch=1 n=g#5 v=90
205872 On ch=1 n=g#5 v=0
205920 On ch=1 n=f#6 v=90
205920 On ch=1 n=a#6 v=90
206870 On ch=1 n=f#6 v=0
206870 On ch=1 n=a#6 v=0
206880 On ch=1 n=g6 v=90
206880 On ch=1 n=e6 v=90
207355 On ch=1 n=g6 v=0
207355 On ch=1 n=e6 v=0
207360 On ch=1 n=g#6 v=90
207360 On ch=1 n=f6 v=90
207600 On ch=1 n=g#6 v=0
207600 On ch=1 n=f6 v=0
207840 On ch=1 n=g#5 v=90
207960 On ch=1 n=g#5 v=0
208080 On ch=1 n=g#5 v=90
208200 On ch=1 n=g#5 v=0
208320 On ch=1 n=g#5 v=90
208795 On ch=1 n=g#5 v=0
208800 On ch=1 n=g#6 v=90
209232 On ch=1 n=g#6 v=0
209280 On ch=1 n=a#5 v=90
209280 On ch=1 n=a#5 v=90
209517 On ch=1 n=a#5 v=0
209520 On ch=1 n=g#6 v=90
209736 On ch=1 n=g#6 v=0
209755 On ch=1 n=a#5 v=0
209760 On ch=1 n=f#6 v=90
209760 On ch=1 n=d#6 v=90
210235 On ch=1 n=f#6 v=0
210235 On ch=1 n=d#6 v=0
210240 On ch=1 n=d#6 v=90
210240 On ch=1 n=f#6 v=90
210672 On ch=1 n=d#6 v=0
210720 On ch=1 n=g#5 v=90
210888 On ch=1 n=f#6 v=0
210960 On ch=1 n=f#6 v=90
211152 On ch=1 n=g#5 v=0
211176 On ch=1 n=f#6 v=0
211200 On ch=1 n=f6 v=90
211200 On ch=1 n=c#6 v=90
211675 On ch=1 n=f6 v=0
211675 On ch=1 n=c#6 v=0
211680 On ch=1 n=c#6 v=90
211680 On ch=1 n=f6 v=90
212112 On ch=1 n=c#6 v=0
212160 On ch=1 n=f#5 v=90
212328 On ch=1 n=f6 v=0
212400 On ch=1 n=f6 v=90
212592 On ch=1 n=f#5 v=0
212616 On ch=1 n=f6 v=0
212640 On ch=1 n=f#5 v=90
212640 On ch=1 n=d#6 v=90
213072 On ch=1 n=f#5 v=0
213072 On ch=1 n=d#6 v=0
213120 On ch=1 n=c#6 v=90
213120 On ch=1 n=f5 v=90
213552 On ch=1 n=c#6 v=0
213552 On ch=1 n=f5 v=0
213600 On ch=1 n=c#5 v=90
213720 On ch=1 n=c#5 v=0
213840 On ch=1 n=c#5 v=90
213960 On ch=1 n=c#5 v=0
214080 On ch=1 n=c#5 v=90
214512 On ch=1 n=c#5 v=0
214560 On ch=1 n=g#5 v=100
214560 On ch=1 n=f5 v=100
214992 On ch=1 n=g#5 v=0
214992 On ch=1 n=f5 v=0
215520 On ch=1 n=g#5 v=100
215520 On ch=1 n=f5 v=100
215995 On ch=1 n=g#5 v=0
215995 On ch=1 n=f5 v=0
216000 On ch=1 n=c6 v=100
216054 On ch=1 n=c6 v=0
216060 On ch=1 n=c#6 v=100
216114 On ch=1 n=c#6 v=0
216120 On ch=1 n=g#5 v=100
216120 On ch=1 n=f5 v=100
216360 On ch=1 n=g#5 v=0
216360 On ch=1 n=f5 v=0
216720 On ch=1 n=f#5 v=103
216720 On ch=1 n=d#5 v=103
216957 On ch=1 n=f#5 v=0
216957 On ch=1 n=d#5 v=0
216960 On ch=1 n=g#5 v=106
216960 On ch=1 n=f5 v=106
217435 On ch=1 n=g#5 v=0
217435 On ch=1 n=f5 v=0
217440 On ch=1 n=a#5 v=109
217440 On ch=1 n=f#5 v=109
217680 On ch=1 n=a#5 v=0
217680 On ch=1 n=f#5 v=0
218400 On ch=1 n=c#6 v=112
218400 On ch=1 n=a#5 v=112
218640 On ch=1 n=c#6 v=0
218640 On ch=1 n=a#5 v=0
218880 On ch=1 n=f#6 v=100
218880 On ch=1 n=a#5 v=100
220305 On ch=1 n=f#6 v=0
220305 On ch=1 n=a#5 v=0
220320 On ch=1 n=f6 v=100
220320 On ch=1 n=g#5 v=100
220752 On ch=1 n=f6 v=0
220752 On ch=1 n=g#5 v=0
221040 On ch=1 n=d#6 v=75
221160 On ch=1 n=d#6 v=0
221280 On ch=1 n=d#6 v=75
221280 On ch=1 n=f#5 v=75
221755 On ch=1 n=d#6 v=0
221755 On ch=1 n=f#5 v=0
221760 On ch=1 n=f6 v=75
221760 On ch=1 n=g#5 v=75
222192 On ch=1 n=f6 v=0
222192 On ch=1 n=g#5 v=0
222480 On ch=1 n=d#6 v=75
222600 On ch=1 n=d#6 v=0
222720 On ch=1 n=d#6 v=75
222720 On ch=1 n=f#5 v=75
223195 On ch=1 n=d#6 v=0
223195 On ch=1 n=f#5 v=0
223200 On ch=1 n=f6 v=75
223200 On ch=1 n=g#5 v=75
223632 On ch=1 n=f6 v=0
223632 On ch=1 n=g#5 v=0
223920 On ch=1 n=d#6 v=75
224040 On ch=1 n=d#6 v=0
224160 On ch=1 n=d#6 v=75
224160 On ch=1 n=f#5 v=75
224635 On ch=1 n=d#6 v=0
224635 On ch=1 n=f#5 v=0
224640 On ch=1 n=c6 v=75
224640 On ch=1 n=e5 v=75
225072 On ch=1 n=c6 v=0
225072 On ch=1 n=e5 v=0
225360 On ch=1 n=c#6 v=75
225480 On ch=1 n=c#6 v=0
225600 On ch=1 n=c#6 v=75
225600 On ch=1 n=f5 v=75
226075 On ch=1 n=c#6 v=0
226075 On ch=1 n=f5 v=0
226080 On ch=1 n=g#6 v=100
226080 On ch=1 n=f6 v=100
226512 On ch=1 n=g#6 v=0
226512 On ch=1 n=f6 v=0
226800 On ch=1 n=g#6 v=100
226800 On ch=1 n=f6 v=100
226920 On ch=1 n=g#6 v=0
226920 On ch=1 n=f6 v=0
227040 On ch=1 n=g#6 v=100
227040 On ch=1 n=f6 v=100
227515 On ch=1 n=g#6 v=0
227515 On ch=1 n=f6 v=0
227520 On ch=1 n=g#6 v=100
227579 On ch=1 n=g#6 v=0
227580 On ch=1 n=a#6 v=100
227580 On ch=1 n=g#6 v=100
227580 On ch=1 n=f6 v=100
227639 On ch=1 n=a#6 v=0
228012 On ch=1 n=g#6 v=0
228012 On ch=1 n=f6 v=0
228240 On ch=1 n=f#6 v=100
228240 On ch=1 n=d#6 v=100
228477 On ch=1 n=f#6 v=0
228477 On ch=1 n=d#6 v=0
228480 On ch=1 n=g#6 v=103
228480 On ch=1 n=f6 v=103
228912 On ch=1 n=g#6 v=0
228912 On ch=1 n=f6 v=0
228960 On ch=1 n=a#6 v=106
228960 On ch=1 n=f#6 v=106
229200 On ch=1 n=a#6 v=0
229200 On ch=1 n=f#6 v=0
229920 On ch=1 n=a#6 v=109
229920 On ch=1 n=c#7 v=109
230352 On ch=1 n=a#6 v=0
230352 On ch=1 n=c#7 v=0
230400 On ch=1 n=a#6 v=100
230400 On ch=1 n=f#7 v=100
231825 On ch=1 n=a#6 v=0
231825 On ch=1 n=f#7 v=0
231840 On ch=1 n=g#6 v=100
231840 On ch=1 n=f7 v=100
232272 On ch=1 n=g#6 v=0
232272 On ch=1 n=f7 v=0
232560 On ch=1 n=d#7 v=80
232680 On ch=1 n=d#7 v=0
232800 On ch=1 n=d#7 v=80
232800 On ch=1 n=f#6 v=80
233275 On ch=1 n=d#7 v=0
233275 On ch=1 n=f#6 v=0
233280 On ch=1 n=f7 v=80
233280 On ch=1 n=g#6 v=80
233712 On ch=1 n=f7 v=0
233712 On ch=1 n=g#6 v=0
234000 On ch=1 n=d#7 v=80
234120 On ch=1 n=d#7 v=0
234240 On ch=1 n=d#7 v=80
234240 On ch=1 n=f#6 v=80
234715 On ch=1 n=d#7 v=0
234715 On ch=1 n=f#6 v=0
234720 On ch=1 n=f7 v=80
234720 On ch=1 n=g#6 v=80
235152 On ch=1 n=f7 v=0
235152 On ch=1 n=g#6 v=0
235440 On ch=1 n=d#7 v=80
235560 On ch=1 n=d#7 v=0
235680 On ch=1 n=d#7 v=80
235680 On ch=1 n=f#6 v=80
236155 On ch=1 n=d#7 v=0
236155 On ch=1 n=f#6 v=0
236160 On ch=1 n=f6 v=80
236160 On ch=1 n=c#7 v=80
236592 On ch=1 n=f6 v=0
236592 On ch=1 n=c#7 v=0
237120 On ch=1 n=c#5 v=80
237552 On ch=1 n=c#5 v=0
237600 On ch=1 n=g#5 v=100
237600 On ch=1 n=f5 v=100
238032 On ch=1 n=g#5 v=0
238032 On ch=1 n=f5 v=0
238560 On ch=1 n=g#5 v=100
238560 On ch=1 n=f5 v=100
239035 On ch=1 n=g#5 v=0
239035 On ch=1 n=f5 v=0
239040 On ch=1 n=c6 v=100
239094 On ch=1 n=c6 v=0
239100 On ch=1 n=c#6 v=100
239154 On ch=1 n=c#6 v=0
239160 On ch=1 n=g#5 v=100
239160 On ch=1 n=f5 v=100
239400 On ch=1 n=g#5 v=0
239400 On ch=1 n=f5 v=0
239760 On ch=1 n=f#5 v=103
239760 On ch=1 n=d#5 v=103
239997 On ch=1 n=f#5 v=0
239997 On ch=1 n=d#5 v=0
240000 On ch=1 n=g#5 v=106
240000 On ch=1 n=f5 v=106
240475 On ch=1 n=g#5 v=0
240475 On ch=1 n=f5 v=0
240480 On ch=1 n=a#5 v=109
240480 On ch=1 n=f#5 v=109
240720 On ch=1 n=a#5 v=0
240720 On ch=1 n=f#5 v=0
241440 On ch=1 n=c#6 v=112
241440 On ch=1 n=a#5 v=112
241680 On ch=1 n=c#6 v=0
241680 On ch=1 n=a#5 v=0
241920 On ch=1 n=f#6 v=100
241920 On ch=1 n=a#5 v=100
243345 On ch=1 n=f#6 v=0
243345 On ch=1 n=a#5 v=0
243360 On ch=1 n=f6 v=100
243360 On ch=1 n=g#5 v=100
243792 On ch=1 n=f6 v=0
243792 On ch=1 n=g#5 v=0
244080 On ch=1 n=d#6 v=75
244200 On ch=1 n=d#6 v=0
244320 On ch=1 n=d#6 v=75
244320 On ch=1 n=f#5 v=75
244795 On ch=1 n=d#6 v=0
244795 On ch=1 n=f#5 v=0
244800 On ch=1 n=f6 v=75
244800 On ch=1 n=g#5 v=75
245232 On ch=1 n=f6 v=0
245232 On ch=1 n=g#5 v=0
245520 On ch=1 n=d#6 v=75
245640 On ch=1 n=d#6 v=0
245760 On ch=1 n=d#6 v=75
245760 On ch=1 n=f#5 v=75
246235 On ch=1 n=d#6 v=0
246235 On ch=1 n=f#5 v=0
246240 On ch=1 n=f6 v=75
246240 On ch=1 n=g#5 v=75
246672 On ch=1 n=f6 v=0
246672 On ch=1 n=g#5 v=0
246960 On ch=1 n=d#6 v=75
247080 On ch=1 n=d#6 v=0
247200 On ch=1 n=d#6 v=75
247200 On ch=1 n=f#5 v=75
247675 On ch=1 n=d#6 v=0
247675 On ch=1 n=f#5 v=0
247680 On ch=1 n=c6 v=75
247680 On ch=1 n=e5 v=75
248112 On ch=1 n=c6 v=0
248112 On ch=1 n=e5 v=0
248400 On ch=1 n=c#6 v=75
248520 On ch=1 n=c#6 v=0
248640 On ch=1 n=c#6 v=75
248640 On ch=1 n=f5 v=75
249115 On ch=1 n=c#6 v=0
249115 On ch=1 n=f5 v=0
249120 On ch=1 n=g#6 v=100
249120 On ch=1 n=f6 v=100
249552 On ch=1 n=g#6 v=0
249552 On ch=1 n=f6 v=0
249840 On ch=1 n=g#6 v=100
249840 On ch=1 n=f6 v=100
249960 On ch=1 n=g#6 v=0
249960 On ch=1 n=f6 v=0
250080 On ch=1 n=g#6 v=100
250080 On ch=1 n=f6 v=100
250555 On ch=1 n=g#6 v=0
250555 On ch=1 n=f6 v=0
250560 On ch=1 n=g#6 v=100
250619 On ch=1 n=g#6 v=0
250620 On ch=1 n=a#6 v=100
250620 On ch=1 n=g#6 v=100
250620 On ch=1 n=f6 v=100
250679 On ch=1 n=a#6 v=0
251052 On ch=1 n=g#6 v=0
251052 On ch=1 n=f6 v=0
251280 On ch=1 n=f#6 v=100
251280 On ch=1 n=d#6 v=100
251517 On ch=1 n=f#6 v=0
251517 On ch=1 n=d#6 v=0
251520 On ch=1 n=g#6 v=103
251520 On ch=1 n=f6 v=103
251952 On ch=1 n=g#6 v=0
251952 On ch=1 n=f6 v=0
252000 On ch=1 n=a#6 v=106
252000 On ch=1 n=f#6 v=106
252240 On ch=1 n=a#6 v=0
252240 On ch=1 n=f#6 v=0
252960 On ch=1 n=a#6 v=109
252960 On ch=1 n=c#7 v=109
253392 On ch=1 n=a#6 v=0
253392 On ch=1 n=c#7 v=0
253440 On ch=1 n=a#6 v=100
253440 On ch=1 n=f#7 v=100
254865 On ch=1 n=a#6 v=0
254865 On ch=1 n=f#7 v=0
254880 On ch=1 n=g#6 v=100
254880 On ch=1 n=f7 v=100
255312 On ch=1 n=g#6 v=0
255312 On ch=1 n=f7 v=0
255600 On ch=1 n=d#7 v=80
255720 On ch=1 n=d#7 v=0
255840 On ch=1 n=d#7 v=80
255840 On ch=1 n=f#6 v=80
256315 On ch=1 n=d#7 v=0
256315 On ch=1 n=f#6 v=0
256320 On ch=1 n=f7 v=80
256320 On ch=1 n=g#6 v=80
256752 On ch=1 n=f7 v=0
256752 On ch=1 n=g#6 v=0
257040 On ch=1 n=d#7 v=80
257160 On ch=1 n=d#7 v=0
257280 On ch=1 n=d#7 v=80
257280 On ch=1 n=f#6 v=80
257755 On ch=1 n=d#7 v=0
257755 On ch=1 n=f#6 v=0
257760 On ch=1 n=f7 v=80
257760 On ch=1 n=g#6 v=80
258192 On ch=1 n=f7 v=0
258192 On ch=1 n=g#6 v=0
258480 On ch=1 n=d#7 v=80
258600 On ch=1 n=d#7 v=0
258720 On ch=1 n=d#7 v=80
258720 On ch=1 n=f#6 v=80
259195 On ch=1 n=d#7 v=0
259195 On ch=1 n=f#6 v=0
259200 On ch=1 n=f6 v=80
259200 On ch=1 n=c#7 v=80
259632 On ch=1 n=f6 v=0
259632 On ch=1 n=c#7 v=0
260160 On ch=1 n=f6 v=80
260635 On ch=1 n=f6 v=0
260640 On ch=1 n=f6 v=75
260667 On ch=1 n=f6 v=0
260700 On ch=1 n=f#6 v=75
260940 On ch=1 n=f#6 v=0
261120 On ch=1 n=f#6 v=75
261135 On ch=1 n=f#6 v=0
261180 On ch=1 n=e6 v=75
261420 On ch=1 n=e6 v=0
261600 On ch=1 n=d#6 v=75
261615 On ch=1 n=d#6 v=0
261660 On ch=1 n=f6 v=75
261900 On ch=1 n=f6 v=0
262080 On ch=1 n=f6 v=75
262107 On ch=1 n=f6 v=0
262140 On ch=1 n=f#6 v=75
262380 On ch=1 n=f#6 v=0
262560 On ch=1 n=f#6 v=75
262575 On ch=1 n=f#6 v=0
262620 On ch=1 n=e6 v=75
262860 On ch=1 n=e6 v=0
263040 On ch=1 n=d#6 v=75
263055 On ch=1 n=d#6 v=0
263100 On ch=1 n=f6 v=75
263340 On ch=1 n=f6 v=0
263520 On ch=1 n=f6 v=75
263547 On ch=1 n=f6 v=0
263580 On ch=1 n=c#7 v=75
263820 On ch=1 n=c#7 v=0
264000 On ch=1 n=c#7 v=74
264027 On ch=1 n=c#7 v=0
264060 On ch=1 n=c7 v=74
264300 On ch=1 n=c7 v=0
264480 On ch=1 n=c7 v=73
264507 On ch=1 n=c7 v=0
264540 On ch=1 n=b6 v=73
264780 On ch=1 n=b6 v=0
264960 On ch=1 n=c7 v=72
264987 On ch=1 n=c7 v=0
265020 On ch=1 n=a#6 v=72
265260 On ch=1 n=a#6 v=0
265440 On ch=1 n=a#6 v=71
265467 On ch=1 n=a#6 v=0
265500 On ch=1 n=g#6 v=70
265740 On ch=1 n=g#6 v=0
265920 On ch=1 n=a#6 v=69
265947 On ch=1 n=a#6 v=0
265980 On ch=1 n=g#6 v=69
266220 On ch=1 n=g#6 v=0
266400 On ch=1 n=g#6 v=68
266427 On ch=1 n=g#6 v=0
266460 On ch=1 n=g6 v=68
266700 On ch=1 n=g6 v=0
266880 On ch=1 n=g#6 v=67
266907 On ch=1 n=g#6 v=0
266940 On ch=1 n=f#6 v=67
267180 On ch=1 n=f#6 v=0
267360 On ch=1 n=f#6 v=66
267387 On ch=1 n=f#6 v=0
267420 On ch=1 n=f6 v=66
267660 On ch=1 n=f6 v=0
267840 On ch=1 n=f6 v=61
267867 On ch=1 n=f6 v=0
267900 On ch=1 n=e6 v=61
268140 On ch=1 n=e6 v=0
268320 On ch=1 n=f6 v=61
268350 On ch=1 n=f6 v=0
268380 On ch=1 n=d#6 v=61
268620 On ch=1 n=d#6 v=0
268800 On ch=1 n=d#6 v=60
268827 On ch=1 n=d#6 v=0
268860 On ch=1 n=c6 v=60
269100 On ch=1 n=c6 v=0
269280 On ch=1 n=c6 v=76
269307 On ch=1 n=c6 v=0
269340 On ch=1 n=c#6 v=76
269580 On ch=1 n=c#6 v=0
269760 On ch=1 n=c#6 v=76
269787 On ch=1 n=c#6 v=0
269820 On ch=1 n=a5 v=76
270060 On ch=1 n=a5 v=0
270240 On ch=1 n=a5 v=76
270267 On ch=1 n=a5 v=0
270300 On ch=1 n=a#5 v=76
270540 On ch=1 n=a#5 v=0
270720 On ch=1 n=a#5 v=75
270747 On ch=1 n=a#5 v=0
270780 On ch=1 n=c#6 v=75
271020 On ch=1 n=c#6 v=0
271200 On ch=1 n=c#6 v=76
271227 On ch=1 n=c#6 v=0
271260 On ch=1 n=d#6 v=76
271500 On ch=1 n=d#6 v=0
271680 On ch=1 n=d#6 v=76
271707 On ch=1 n=d#6 v=0
271740 On ch=1 n=e6 v=76
271980 On ch=1 n=e6 v=0
272160 On ch=1 n=e6 v=77
272187 On ch=1 n=e6 v=0
272220 On ch=1 n=f#6 v=77
272460 On ch=1 n=f#6 v=0
272640 On ch=1 n=f#6 v=77
272667 On ch=1 n=f#6 v=0
272700 On ch=1 n=e6 v=77
272940 On ch=1 n=e6 v=0
273120 On ch=1 n=e6 v=78
273147 On ch=1 n=e6 v=0
273180 On ch=1 n=f6 v=78
273420 On ch=1 n=f6 v=0
273600 On ch=1 n=f6 v=79
273627 On ch=1 n=f6 v=0
273660 On ch=1 n=f#6 v=79
273900 On ch=1 n=f#6 v=0
274080 On ch=1 n=f#6 v=79
274107 On ch=1 n=f#6 v=0
274140 On ch=1 n=e6 v=79
274380 On ch=1 n=e6 v=0
274560 On ch=1 n=d#6 v=80
274587 On ch=1 n=d#6 v=0
274620 On ch=1 n=f6 v=80
274860 On ch=1 n=f6 v=0
275040 On ch=1 n=f6 v=76
275067 On ch=1 n=f6 v=0
275100 On ch=1 n=f7 v=76
275340 On ch=1 n=f7 v=0
275520 On ch=1 n=f7 v=75
275547 On ch=1 n=f7 v=0
275580 On ch=1 n=c#7 v=75
275820 On ch=1 n=c#7 v=0
276000 On ch=1 n=c#7 v=73
276027 On ch=1 n=c#7 v=0
276060 On ch=1 n=a#6 v=73
276300 On ch=1 n=a#6 v=0
276480 On ch=1 n=a#6 v=72
276507 On ch=1 n=a#6 v=0
276540 On ch=1 n=f#6 v=72
276780 On ch=1 n=f#6 v=0
276960 On ch=1 n=f#6 v=71
276987 On ch=1 n=f#6 v=0
277020 On ch=1 n=d#6 v=71
277260 On ch=1 n=d#6 v=0
277440 On ch=1 n=d#6 v=70
277467 On ch=1 n=d#6 v=0
277500 On ch=1 n=c6 v=70
277740 On ch=1 n=c6 v=0
277920 On ch=1 n=f#6 v=75
277947 On ch=1 n=f#6 v=0
277980 On ch=1 n=f6 v=75
278220 On ch=1 n=f6 v=0
278400 On ch=1 n=f6 v=75
278427 On ch=1 n=f6 v=0
278460 On ch=1 n=e6 v=75
278700 On ch=1 n=e6 v=0
278880 On ch=1 n=f6 v=75
278907 On ch=1 n=f6 v=0
278940 On ch=1 n=d#6 v=75
279180 On ch=1 n=d#6 v=0
279360 On ch=1 n=d#6 v=75
279387 On ch=1 n=d#6 v=0
279420 On ch=1 n=d6 v=75
279660 On ch=1 n=d6 v=0
279840 On ch=1 n=d#6 v=75
279867 On ch=1 n=d#6 v=0
279900 On ch=1 n=c#6 v=75
280140 On ch=1 n=c#6 v=0
280320 On ch=1 n=c#6 v=75
280347 On ch=1 n=c#6 v=0
280380 On ch=1 n=c6 v=75
280620 On ch=1 n=c6 v=0
280800 On ch=1 n=c6 v=76
280827 On ch=1 n=c6 v=0
280860 On ch=1 n=b5 v=76
281100 On ch=1 n=b5 v=0
281280 On ch=1 n=c6 v=77
281307 On ch=1 n=c6 v=0
281340 On ch=1 n=a#5 v=78
281580 On ch=1 n=a#5 v=0
281760 On ch=1 n=a#5 v=79
281787 On ch=1 n=a#5 v=0
281820 On ch=1 n=a5 v=79
282060 On ch=1 n=a5 v=0
282240 On ch=1 n=a#5 v=80
282267 On ch=1 n=a#5 v=0
282300 On ch=1 n=g#5 v=80
282540 On ch=1 n=g#5 v=0
282720 On ch=1 n=g#5 v=82
282747 On ch=1 n=g#5 v=0
282780 On ch=1 n=g5 v=82
283020 On ch=1 n=g5 v=0
283200 On ch=1 n=g#5 v=83
283227 On ch=1 n=g#5 v=0
283260 On ch=1 n=f#5 v=83
283500 On ch=1 n=f#5 v=0
283680 On ch=1 n=g#5 v=100
283680 On ch=1 n=f5 v=100
284112 On ch=1 n=g#5 v=0
284112 On ch=1 n=f5 v=0
284640 On ch=1 n=g#5 v=100
284640 On ch=1 n=f5 v=100
285115 On ch=1 n=g#5 v=0
285115 On ch=1 n=f5 v=0
285120 On ch=1 n=c6 v=100
285174 On ch=1 n=c6 v=0
285180 On ch=1 n=c#6 v=100
285234 On ch=1 n=c#6 v=0
285240 On ch=1 n=g#5 v=100
285240 On ch=1 n=f5 v=100
285480 On ch=1 n=g#5 v=0
285480 On ch=1 n=f5 v=0
285840 On ch=1 n=f#5 v=103
285840 On ch=1 n=d#5 v=103
286077 On ch=1 n=f#5 v=0
286077 On ch=1 n=d#5 v=0
286080 On ch=1 n=g#5 v=106
286080 On ch=1 n=f5 v=106
286555 On ch=1 n=g#5 v=0
286555 On ch=1 n=f5 v=0
286560 On ch=1 n=a#5 v=109
286560 On ch=1 n=f#5 v=109
286800 On ch=1 n=a#5 v=0
286800 On ch=1 n=f#5 v=0
287520 On ch=1 n=c#6 v=112
287520 On ch=1 n=a#5 v=112
287760 On ch=1 n=c#6 v=0
287760 On ch=1 n=a#5 v=0
288000 On ch=1 n=f#6 v=100
288000 On ch=1 n=a#5 v=100
289425 On ch=1 n=f#6 v=0
289425 On ch=1 n=a#5 v=0
289440 On ch=1 n=f6 v=100
289440 On ch=1 n=g#5 v=100
289872 On ch=1 n=f6 v=0
289872 On ch=1 n=g#5 v=0
290160 On ch=1 n=d#6 v=75
290280 On ch=1 n=d#6 v=0
290400 On ch=1 n=d#6 v=75
290400 On ch=1 n=f#5 v=75
290875 On ch=1 n=d#6 v=0
290875 On ch=1 n=f#5 v=0
290880 On ch=1 n=f6 v=75
290880 On ch=1 n=g#5 v=75
291312 On ch=1 n=f6 v=0
291312 On ch=1 n=g#5 v=0
291600 On ch=1 n=d#6 v=75
291720 On ch=1 n=d#6 v=0
291840 On ch=1 n=d#6 v=75
291840 On ch=1 n=f#5 v=75
292315 On ch=1 n=d#6 v=0
292315 On ch=1 n=f#5 v=0
292320 On ch=1 n=f6 v=75
292320 On ch=1 n=g#5 v=75
292752 On ch=1 n=f6 v=0
292752 On ch=1 n=g#5 v=0
293040 On ch=1 n=d#6 v=75
293160 On ch=1 n=d#6 v=0
293280 On ch=1 n=d#6 v=75
293280 On ch=1 n=f#5 v=75
293755 On ch=1 n=d#6 v=0
293755 On ch=1 n=f#5 v=0
294480 On ch=1 n=c#6 v=75
294600 On ch=1 n=c#6 v=0
294720 On ch=1 n=c#6 v=75
294720 On ch=1 n=f5 v=75
295195 On ch=1 n=c#6 v=0
295195 On ch=1 n=f5 v=0
295200 On ch=1 n=g#6 v=100
295200 On ch=1 n=f6 v=100
295632 On ch=1 n=g#6 v=0
295632 On ch=1 n=f6 v=0
295920 On ch=1 n=g#6 v=100
295920 On ch=1 n=f6 v=100
296040 On ch=1 n=g#6 v=0
296040 On ch=1 n=f6 v=0
296160 On ch=1 n=g#6 v=100
296160 On ch=1 n=f6 v=100
296635 On ch=1 n=g#6 v=0
296635 On ch=1 n=f6 v=0
296640 On ch=1 n=g#6 v=100
296699 On ch=1 n=g#6 v=0
296700 On ch=1 n=a#6 v=100
296700 On ch=1 n=g#6 v=100
296700 On ch=1 n=f6 v=100
296759 On ch=1 n=a#6 v=0
297132 On ch=1 n=g#6 v=0
297132 On ch=1 n=f6 v=0
297360 On ch=1 n=f#6 v=100
297360 On ch=1 n=d#6 v=100
297597 On ch=1 n=f#6 v=0
297597 On ch=1 n=d#6 v=0
297600 On ch=1 n=g#6 v=103
297600 On ch=1 n=f6 v=103
298032 On ch=1 n=g#6 v=0
298032 On ch=1 n=f6 v=0
298080 On ch=1 n=a#6 v=106
298080 On ch=1 n=f#6 v=106
298320 On ch=1 n=a#6 v=0
298320 On ch=1 n=f#6 v=0
299040 On ch=1 n=a#6 v=109
299040 On ch=1 n=c#7 v=109
299472 On ch=1 n=a#6 v=0
299472 On ch=1 n=c#7 v=0
299520 On ch=1 n=a#6 v=100
299520 On ch=1 n=f#7 v=100
300945 On ch=1 n=a#6 v=0
300945 On ch=1 n=f#7 v=0
300960 On ch=1 n=g#6 v=100
300960 On ch=1 n=f7 v=100
301392 On ch=1 n=g#6 v=0
301392 On ch=1 n=f7 v=0
301680 On ch=1 n=d#7 v=90
301800 On ch=1 n=d#7 v=0
301920 On ch=1 n=d#7 v=90
301920 On ch=1 n=f#6 v=90
302395 On ch=1 n=d#7 v=0
302395 On ch=1 n=f#6 v=0
302400 On ch=1 n=f7 v=90
302400 On ch=1 n=g#6 v=90
302832 On ch=1 n=f7 v=0
302832 On ch=1 n=g#6 v=0
303120 On ch=1 n=d#7 v=90
303240 On ch=1 n=d#7 v=0
303360 On ch=1 n=d#7 v=90
303360 On ch=1 n=f#6 v=90
303835 On ch=1 n=d#7 v=0
303835 On ch=1 n=f#6 v=0
303840 On ch=1 n=f7 v=90
303840 On ch=1 n=g#6 v=90
304272 On ch=1 n=f7 v=0
304272 On ch=1 n=g#6 v=0
304560 On ch=1 n=d#7 v=90
304680 On ch=1 n=d#7 v=0
304800 On ch=1 n=d#7 v=90
304800 On ch=1 n=f#6 v=90
305275 On ch=1 n=d#7 v=0
305275 On ch=1 n=f#6 v=0
305280 On ch=1 n=f6 v=90
305280 On ch=1 n=c#7 v=90
305712 On ch=1 n=f6 v=0
305712 On ch=1 n=c#7 v=0
306240 On ch=1 n=f6 v=90
306715 On ch=1 n=f6 v=0
306720 On ch=1 n=f6 v=75
306747 On ch=1 n=f6 v=0
306780 On ch=1 n=f#6 v=75
307020 On ch=1 n=f#6 v=0
307200 On ch=1 n=f#6 v=75
307215 On ch=1 n=f#6 v=0
307260 On ch=1 n=e6 v=75
307500 On ch=1 n=e6 v=0
307680 On ch=1 n=d#6 v=75
307695 On ch=1 n=d#6 v=0
307740 On ch=1 n=f6 v=75
307980 On ch=1 n=f6 v=0
308160 On ch=1 n=f6 v=75
308187 On ch=1 n=f6 v=0
308220 On ch=1 n=f#6 v=75
308460 On ch=1 n=f#6 v=0
308640 On ch=1 n=f#6 v=75
308655 On ch=1 n=f#6 v=0
308700 On ch=1 n=e6 v=75
308940 On ch=1 n=e6 v=0
309120 On ch=1 n=d#6 v=75
309135 On ch=1 n=d#6 v=0
309180 On ch=1 n=f6 v=75
309420 On ch=1 n=f6 v=0
309600 On ch=1 n=f6 v=75
309627 On ch=1 n=f6 v=0
309660 On ch=1 n=c#7 v=75
309900 On ch=1 n=c#7 v=0
310080 On ch=1 n=c#7 v=74
310107 On ch=1 n=c#7 v=0
310140 On ch=1 n=c7 v=74
310380 On ch=1 n=c7 v=0
310560 On ch=1 n=c7 v=73
310587 On ch=1 n=c7 v=0
310620 On ch=1 n=b6 v=73
310860 On ch=1 n=b6 v=0
311040 On ch=1 n=c7 v=72
311067 On ch=1 n=c7 v=0
311100 On ch=1 n=a#6 v=72
311340 On ch=1 n=a#6 v=0
311520 On ch=1 n=a#6 v=71
311547 On ch=1 n=a#6 v=0
311580 On ch=1 n=g#6 v=70
311820 On ch=1 n=g#6 v=0
312000 On ch=1 n=a#6 v=69
312027 On ch=1 n=a#6 v=0
312060 On ch=1 n=g#6 v=69
312300 On ch=1 n=g#6 v=0
312480 On ch=1 n=g#6 v=68
312507 On ch=1 n=g#6 v=0
312540 On ch=1 n=g6 v=68
312780 On ch=1 n=g6 v=0
312960 On ch=1 n=g#6 v=67
312987 On ch=1 n=g#6 v=0
313020 On ch=1 n=f#6 v=67
313260 On ch=1 n=f#6 v=0
313440 On ch=1 n=f#6 v=66
313467 On ch=1 n=f#6 v=0
313500 On ch=1 n=f6 v=66
313740 On ch=1 n=f6 v=0
313920 On ch=1 n=f6 v=61
313947 On ch=1 n=f6 v=0
313980 On ch=1 n=e6 v=61
314220 On ch=1 n=e6 v=0
314400 On ch=1 n=f6 v=61
314430 On ch=1 n=f6 v=0
314460 On ch=1 n=d#6 v=61
314700 On ch=1 n=d#6 v=0
314880 On ch=1 n=d#6 v=60
314907 On ch=1 n=d#6 v=0
314940 On ch=1 n=c6 v=60
315180 On ch=1 n=c6 v=0
315360 On ch=1 n=c6 v=76
315387 On ch=1 n=c6 v=0
315420 On ch=1 n=c#6 v=76
315660 On ch=1 n=c#6 v=0
315840 On ch=1 n=c#6 v=76
315867 On ch=1 n=c#6 v=0
315900 On ch=1 n=a5 v=76
316140 On ch=1 n=a5 v=0
316320 On ch=1 n=a5 v=76
316347 On ch=1 n=a5 v=0
316380 On ch=1 n=a#5 v=76
316620 On ch=1 n=a#5 v=0
316800 On ch=1 n=a#5 v=75
316827 On ch=1 n=a#5 v=0
316860 On ch=1 n=c#6 v=75
317100 On ch=1 n=c#6 v=0
317280 On ch=1 n=c#6 v=76
317307 On ch=1 n=c#6 v=0
317340 On ch=1 n=d#6 v=76
317580 On ch=1 n=d#6 v=0
317760 On ch=1 n=d#6 v=76
317787 On ch=1 n=d#6 v=0
317820 On ch=1 n=e6 v=76
318060 On ch=1 n=e6 v=0
318240 On ch=1 n=e6 v=77
318267 On ch=1 n=e6 v=0
318300 On ch=1 n=f#6 v=77
318540 On ch=1 n=f#6 v=0
318720 On ch=1 n=f#6 v=77
318747 On ch=1 n=f#6 v=0
318780 On ch=1 n=e6 v=77
319020 On ch=1 n=e6 v=0
319200 On ch=1 n=e6 v=78
319227 On ch=1 n=e6 v=0
319260 On ch=1 n=f6 v=78
319500 On ch=1 n=f6 v=0
319680 On ch=1 n=f6 v=79
319707 On ch=1 n=f6 v=0
319740 On ch=1 n=f#6 v=79
319980 On ch=1 n=f#6 v=0
320160 On ch=1 n=f#6 v=79
320187 On ch=1 n=f#6 v=0
320220 On ch=1 n=e6 v=79
320460 On ch=1 n=e6 v=0
320640 On ch=1 n=d#6 v=80
320667 On ch=1 n=d#6 v=0
320700 On ch=1 n=f6 v=80
320940 On ch=1 n=f6 v=0
321120 On ch=1 n=f6 v=76
321147 On ch=1 n=f6 v=0
321180 On ch=1 n=f7 v=76
321420 On ch=1 n=f7 v=0
321600 On ch=1 n=f7 v=75
321627 On ch=1 n=f7 v=0
321660 On ch=1 n=c#7 v=75
321900 On ch=1 n=c#7 v=0
322080 On ch=1 n=c#7 v=73
322107 On ch=1 n=c#7 v=0
322140 On ch=1 n=a#6 v=73
322380 On ch=1 n=a#6 v=0
322560 On ch=1 n=a#6 v=72
322587 On ch=1 n=a#6 v=0
322620 On ch=1 n=f#6 v=72
322860 On ch=1 n=f#6 v=0
323040 On ch=1 n=f#6 v=71
323067 On ch=1 n=f#6 v=0
323100 On ch=1 n=d#6 v=71
323340 On ch=1 n=d#6 v=0
323520 On ch=1 n=d#6 v=70
323547 On ch=1 n=d#6 v=0
323580 On ch=1 n=c6 v=70
323820 On ch=1 n=c6 v=0
324000 On ch=1 n=f#6 v=75
324027 On ch=1 n=f#6 v=0
324060 On ch=1 n=f6 v=75
324300 On ch=1 n=f6 v=0
324480 On ch=1 n=f6 v=75
324507 On ch=1 n=f6 v=0
324540 On ch=1 n=e6 v=75
324780 On ch=1 n=e6 v=0
324960 On ch=1 n=f6 v=75
324987 On ch=1 n=f6 v=0
325020 On ch=1 n=d#6 v=75
325260 On ch=1 n=d#6 v=0
325440 On ch=1 n=d#6 v=75
325467 On ch=1 n=d#6 v=0
325500 On ch=1 n=d6 v=75
325740 On ch=1 n=d6 v=0
325920 On ch=1 n=d#6 v=75
325947 On ch=1 n=d#6 v=0
325980 On ch=1 n=c#6 v=75
326220 On ch=1 n=c#6 v=0
326400 On ch=1 n=c#6 v=75
326427 On ch=1 n=c#6 v=0
326460 On ch=1 n=c6 v=75
326700 On ch=1 n=c6 v=0
326880 On ch=1 n=c6 v=76
326907 On ch=1 n=c6 v=0
326940 On ch=1 n=b5 v=76
327180 On ch=1 n=b5 v=0
327360 On ch=1 n=c6 v=77
327387 On ch=1 n=c6 v=0
327420 On ch=1 n=a#5 v=78
327660 On ch=1 n=a#5 v=0
327840 On ch=1 n=a#5 v=79
327867 On ch=1 n=a#5 v=0
327900 On ch=1 n=a5 v=79
328140 On ch=1 n=a5 v=0
328320 On ch=1 n=a#5 v=80
328347 On ch=1 n=a#5 v=0
328380 On ch=1 n=g#5 v=80
328620 On ch=1 n=g#5 v=0
328800 On ch=1 n=g#5 v=82
328827 On ch=1 n=g#5 v=0
328860 On ch=1 n=g5 v=82
329100 On ch=1 n=g5 v=0
329280 On ch=1 n=g#5 v=83
329307 On ch=1 n=g#5 v=0
329340 On ch=1 n=f#5 v=83
329580 On ch=1 n=f#5 v=0
329760 On ch=1 n=g#5 v=100
329760 On ch=1 n=f5 v=100
330192 On ch=1 n=g#5 v=0
330192 On ch=1 n=f5 v=0
330720 On ch=1 n=g#5 v=100
330720 On ch=1 n=f5 v=100
331195 On ch=1 n=g#5 v=0
331195 On ch=1 n=f5 v=0
331200 On ch=1 n=c6 v=100
331254 On ch=1 n=c6 v=0
331260 On ch=1 n=c#6 v=100
331314 On ch=1 n=c#6 v=0
331320 On ch=1 n=g#5 v=100
331320 On ch=1 n=f5 v=100
331560 On ch=1 n=g#5 v=0
331560 On ch=1 n=f5 v=0
331920 On ch=1 n=f#5 v=103
331920 On ch=1 n=d#5 v=103
332157 On ch=1 n=f#5 v=0
332157 On ch=1 n=d#5 v=0
332160 On ch=1 n=g#5 v=106
332160 On ch=1 n=f5 v=106
332635 On ch=1 n=g#5 v=0
332635 On ch=1 n=f5 v=0
332640 On ch=1 n=a#5 v=109
332640 On ch=1 n=f#5 v=109
332880 On ch=1 n=a#5 v=0
332880 On ch=1 n=f#5 v=0
333600 On ch=1 n=c#6 v=112
333600 On ch=1 n=a#5 v=112
333840 On ch=1 n=c#6 v=0
333840 On ch=1 n=a#5 v=0
334080 On ch=1 n=f#6 v=100
334080 On ch=1 n=a#5 v=100
335505 On ch=1 n=f#6 v=0
335505 On ch=1 n=a#5 v=0
335520 On ch=1 n=f6 v=100
335520 On ch=1 n=g#5 v=100
335952 On ch=1 n=f6 v=0
335952 On ch=1 n=g#5 v=0
336240 On ch=1 n=d#6 v=75
336360 On ch=1 n=d#6 v=0
336480 On ch=1 n=d#6 v=75
336480 On ch=1 n=f#5 v=75
336955 On ch=1 n=d#6 v=0
336955 On ch=1 n=f#5 v=0
336960 On ch=1 n=f6 v=75
336960 On ch=1 n=g#5 v=75
337392 On ch=1 n=f6 v=0
337392 On ch=1 n=g#5 v=0
337680 On ch=1 n=d#6 v=75
337800 On ch=1 n=d#6 v=0
337920 On ch=1 n=d#6 v=75
337920 On ch=1 n=f#5 v=75
338395 On ch=1 n=d#6 v=0
338395 On ch=1 n=f#5 v=0
338400 On ch=1 n=f6 v=75
338400 On ch=1 n=g#5 v=75
338832 On ch=1 n=f6 v=0
338832 On ch=1 n=g#5 v=0
339120 On ch=1 n=d#6 v=75
339240 On ch=1 n=d#6 v=0
339360 On ch=1 n=d#6 v=75
339360 On ch=1 n=f#5 v=75
339835 On ch=1 n=d#6 v=0
339835 On ch=1 n=f#5 v=0
339840 On ch=1 n=c6 v=75
339840 On ch=1 n=e5 v=75
340272 On ch=1 n=c6 v=0
340272 On ch=1 n=e5 v=0
340560 On ch=1 n=c#6 v=75
340680 On ch=1 n=c#6 v=0
340800 On ch=1 n=c#6 v=75
340800 On ch=1 n=f5 v=75
341275 On ch=1 n=c#6 v=0
341275 On ch=1 n=f5 v=0
341280 On ch=1 n=g#6 v=100
341280 On ch=1 n=f6 v=100
341712 On ch=1 n=g#6 v=0
341712 On ch=1 n=f6 v=0
342000 On ch=1 n=g#6 v=100
342000 On ch=1 n=f6 v=100
342120 On ch=1 n=g#6 v=0
342120 On ch=1 n=f6 v=0
342240 On ch=1 n=g#6 v=100
342240 On ch=1 n=f6 v=100
342715 On ch=1 n=g#6 v=0
342715 On ch=1 n=f6 v=0
342720 On ch=1 n=g#6 v=100
342779 On ch=1 n=g#6 v=0
342780 On ch=1 n=a#6 v=100
342780 On ch=1 n=g#6 v=100
342780 On ch=1 n=f6 v=100
342839 On ch=1 n=a#6 v=0
343212 On ch=1 n=g#6 v=0
343212 On ch=1 n=f6 v=0
343440 On ch=1 n=f#6 v=100
343440 On ch=1 n=d#6 v=100
343677 On ch=1 n=f#6 v=0
343677 On ch=1 n=d#6 v=0
343680 On ch=1 n=g#6 v=103
343680 On ch=1 n=f6 v=103
344112 On ch=1 n=g#6 v=0
344112 On ch=1 n=f6 v=0
344160 On ch=1 n=a#6 v=106
344160 On ch=1 n=f#6 v=106
344400 On ch=1 n=a#6 v=0
344400 On ch=1 n=f#6 v=0
345120 On ch=1 n=a#6 v=109
345120 On ch=1 n=c#7 v=109
345552 On ch=1 n=a#6 v=0
345552 On ch=1 n=c#7 v=0
345600 On ch=1 n=a#6 v=100
345600 On ch=1 n=f#7 v=100
347025 On ch=1 n=a#6 v=0
347025 On ch=1 n=f#7 v=0
347040 On ch=1 n=g#6 v=100
347040 On ch=1 n=f7 v=100
347472 On ch=1 n=g#6 v=0
347472 On ch=1 n=f7 v=0
347760 On ch=1 n=d#7 v=90
347880 On ch=1 n=d#7 v=0
348000 On ch=1 n=d#7 v=90
348000 On ch=1 n=f#6 v=90
348475 On ch=1 n=d#7 v=0
348475 On ch=1 n=f#6 v=0
348480 On ch=1 n=f7 v=90
348480 On ch=1 n=g#6 v=90
348912 On ch=1 n=f7 v=0
348912 On ch=1 n=g#6 v=0
349200 On ch=1 n=d#7 v=90
349320 On ch=1 n=d#7 v=0
349440 On ch=1 n=d#7 v=90
349440 On ch=1 n=f#6 v=90
349915 On ch=1 n=d#7 v=0
349915 On ch=1 n=f#6 v=0
349920 On ch=1 n=f7 v=90
349920 On ch=1 n=g#6 v=90
350352 On ch=1 n=f7 v=0
350352 On ch=1 n=g#6 v=0
350640 On ch=1 n=d#7 v=90
350760 On ch=1 n=d#7 v=0
350880 On ch=1 n=d#7 v=90
350880 On ch=1 n=f#6 v=90
351355 On ch=1 n=d#7 v=0
351355 On ch=1 n=f#6 v=0
351360 On ch=1 n=f6 v=90
351360 On ch=1 n=c#7 v=90
351792 On ch=1 n=f6 v=0
351792 On ch=1 n=c#7 v=0
352320 On ch=1 n=c#6 v=80
352557 On ch=1 n=c#6 v=0
352560 On ch=1 n=c#6 v=80
352797 On ch=1 n=c#6 v=0
352800 On ch=1 n=c#6 v=80
353016 On ch=1 n=c#6 v=0
353040 On ch=1 n=d#6 v=81
353256 On ch=1 n=d#6 v=0
353280 On ch=1 n=c#6 v=83
353496 On ch=1 n=c#6 v=0
353520 On ch=1 n=c6 v=84
353736 On ch=1 n=c6 v=0
353760 On ch=1 n=c#6 v=86
353976 On ch=1 n=c#6 v=0
354000 On ch=1 n=d6 v=87
354216 On ch=1 n=d6 v=0
354240 On ch=1 n=f6 v=83
355104 On ch=1 n=f6 v=0
355200 On ch=1 n=d#6 v=68
355632 On ch=1 n=d#6 v=0
355680 On ch=1 n=g#5 v=80
355896 On ch=1 n=g#5 v=0
355920 On ch=1 n=a#5 v=80
356136 On ch=1 n=a#5 v=0
356160 On ch=1 n=g#5 v=83
356376 On ch=1 n=g#5 v=0
356400 On ch=1 n=g5 v=85
356616 On ch=1 n=g5 v=0
356640 On ch=1 n=g#5 v=88
356856 On ch=1 n=g#5 v=0
356880 On ch=1 n=a5 v=80
357096 On ch=1 n=a5 v=0
357120 On ch=1 n=a#5 v=80
357552 On ch=1 n=a#5 v=0
357600 On ch=1 n=f#5 v=80
357816 On ch=1 n=f#5 v=0
357840 On ch=1 n=a#5 v=81
358056 On ch=1 n=a#5 v=0
358080 On ch=1 n=b5 v=82
358296 On ch=1 n=b5 v=0
358320 On ch=1 n=c6 v=83
358536 On ch=1 n=c6 v=0
358560 On ch=1 n=d#6 v=84
358614 On ch=1 n=d#6 v=0
358620 On ch=1 n=c#6 v=84
358674 On ch=1 n=c#6 v=0
358680 On ch=1 n=d#6 v=85
358734 On ch=1 n=d#6 v=0
358740 On ch=1 n=c#6 v=85
358794 On ch=1 n=c#6 v=0
358800 On ch=1 n=c6 v=85
359016 On ch=1 n=c6 v=0
359040 On ch=1 n=c#6 v=86
359256 On ch=1 n=c#6 v=0
359280 On ch=1 n=a#6 v=87
359496 On ch=1 n=a#6 v=0
359520 On ch=1 n=g#6 v=88
359736 On ch=1 n=g#6 v=0
359760 On ch=1 n=f#6 v=89
359976 On ch=1 n=f#6 v=0
360000 On ch=1 n=f6 v=86
360864 On ch=1 n=f6 v=0
360960 On ch=1 n=d#6 v=77
361392 On ch=1 n=d#6 v=0
361440 On ch=1 n=g#5 v=80
361584 On ch=1 n=g#5 v=0
361600 On ch=1 n=a#5 v=80
361744 On ch=1 n=a#5 v=0
361760 On ch=1 n=g#5 v=80
361904 On ch=1 n=g#5 v=0
361920 On ch=1 n=g5 v=80
362136 On ch=1 n=g5 v=0
362160 On ch=1 n=g#5 v=80
362376 On ch=1 n=g#5 v=0
362400 On ch=1 n=b5 v=80
362616 On ch=1 n=b5 v=0
362640 On ch=1 n=a#5 v=80
362856 On ch=1 n=a#5 v=0
362880 On ch=1 n=f#5 v=80
363000 On ch=1 n=f#5 v=0
363120 On ch=1 n=c5 v=80
363357 On ch=1 n=c5 v=0
363360 On ch=1 n=c#5 v=80
363597 On ch=1 n=c#5 v=0
363600 On ch=1 n=f5 v=80
363837 On ch=1 n=f5 v=0
363840 On ch=1 n=f#5 v=80
364077 On ch=1 n=f#5 v=0
364080 On ch=1 n=a#5 v=80
364296 On ch=1 n=a#5 v=0
364320 On ch=1 n=c#6 v=80
364557 On ch=1 n=c#6 v=0
364560 On ch=1 n=d#6 v=82
364797 On ch=1 n=d#6 v=0
364800 On ch=1 n=c#6 v=83
365037 On ch=1 n=c#6 v=0
365040 On ch=1 n=c6 v=85
365277 On ch=1 n=c6 v=0
365280 On ch=1 n=c#6 v=87
365517 On ch=1 n=c#6 v=0
365520 On ch=1 n=d6 v=88
365757 On ch=1 n=d6 v=0
365760 On ch=1 n=d6 v=85
365789 On ch=1 n=d6 v=0
365820 On ch=1 n=f6 v=84
366684 On ch=1 n=f6 v=0
366720 On ch=1 n=d#6 v=75
367152 On ch=1 n=d#6 v=0
367200 On ch=1 n=g#5 v=80
367416 On ch=1 n=g#5 v=0
367440 On ch=1 n=a#5 v=80
367656 On ch=1 n=a#5 v=0
367680 On ch=1 n=a#5 v=80
367734 On ch=1 n=a#5 v=0
367740 On ch=1 n=g#5 v=80
367794 On ch=1 n=g#5 v=0
367800 On ch=1 n=a#5 v=80
367854 On ch=1 n=a#5 v=0
367860 On ch=1 n=g#5 v=80
367914 On ch=1 n=g#5 v=0
367920 On ch=1 n=g5 v=80
368136 On ch=1 n=g5 v=0
368160 On ch=1 n=g#5 v=80
368376 On ch=1 n=g#5 v=0
368400 On ch=1 n=a5 v=80
368616 On ch=1 n=a5 v=0
368640 On ch=1 n=a#5 v=80
369072 On ch=1 n=a#5 v=0
369120 On ch=1 n=f#5 v=80
369240 On ch=1 n=f#5 v=0
369360 On ch=1 n=a#5 v=80
369576 On ch=1 n=a#5 v=0
369600 On ch=1 n=b5 v=80
369816 On ch=1 n=b5 v=0
369840 On ch=1 n=c6 v=80
370056 On ch=1 n=c6 v=0
370080 On ch=1 n=d#6 v=80
370134 On ch=1 n=d#6 v=0
370140 On ch=1 n=c#6 v=80
370194 On ch=1 n=c#6 v=0
370200 On ch=1 n=d#6 v=80
370254 On ch=1 n=d#6 v=0
370260 On ch=1 n=c#6 v=80
370314 On ch=1 n=c#6 v=0
370320 On ch=1 n=c6 v=80
370536 On ch=1 n=c6 v=0
370560 On ch=1 n=c#6 v=80
370704 On ch=1 n=c#6 v=0
370720 On ch=1 n=b6 v=80
370864 On ch=1 n=b6 v=0
370880 On ch=1 n=a#6 v=80
370960 On ch=1 n=a#6 v=0
371040 On ch=1 n=a#6 v=80
371198 On ch=1 n=a#6 v=0
371200 On ch=1 n=g#6 v=80
371358 On ch=1 n=g#6 v=0
371360 On ch=1 n=f#6 v=80
371504 On ch=1 n=f#6 v=0
371520 On ch=1 n=f6 v=80
372470 On ch=1 n=f6 v=0
372480 On ch=1 n=d#6 v=80
372912 On ch=1 n=d#6 v=0
372960 On ch=1 n=g#5 v=80
373104 On ch=1 n=g#5 v=0
373120 On ch=1 n=a#5 v=80
373264 On ch=1 n=a#5 v=0
373280 On ch=1 n=g#5 v=80
373424 On ch=1 n=g#5 v=0
373440 On ch=1 n=g5 v=80
373656 On ch=1 n=g5 v=0
373680 On ch=1 n=g#5 v=80
373896 On ch=1 n=g#5 v=0
373920 On ch=1 n=b5 v=80
374136 On ch=1 n=b5 v=0
374160 On ch=1 n=a#5 v=80
374376 On ch=1 n=a#5 v=0
374400 On ch=1 n=f#5 v=80
374640 On ch=1 n=f#5 v=0
375360 On ch=1 n=a#5 v=100
375480 On ch=1 n=a#5 v=0
375600 On ch=1 n=a#5 v=100
375720 On ch=1 n=a#5 v=0
375840 On ch=1 n=a#5 v=100
376080 On ch=1 n=a#5 v=0
376800 On ch=1 n=a#5 v=100
376920 On ch=1 n=a#5 v=0
377040 On ch=1 n=a#5 v=100
377160 On ch=1 n=a#5 v=0
377280 On ch=1 n=a#5 v=100
377520 On ch=1 n=a#5 v=0
378240 On ch=1 n=a#5 v=100
378360 On ch=1 n=a#5 v=0
378480 On ch=1 n=a#5 v=100
378600 On ch=1 n=a#5 v=0
378720 On ch=1 n=a#5 v=100
378960 On ch=1 n=a#5 v=0
379200 On ch=1 n=a#5 v=110
379200 On ch=1 n=a#6 v=110
379320 On ch=1 n=a#5 v=0
379320 On ch=1 n=a#6 v=0
379440 On ch=1 n=a#5 v=110
379440 On ch=1 n=a#6 v=110
379560 On ch=1 n=a#5 v=0
379560 On ch=1 n=a#6 v=0
379680 On ch=1 n=a#5 v=110
379680 On ch=1 n=a#6 v=110
379920 On ch=1 n=a#5 v=0
379920 On ch=1 n=a#6 v=0
380160 On ch=1 n=a#5 v=110
380160 On ch=1 n=a#6 v=110
380280 On ch=1 n=a#5 v=0
380280 On ch=1 n=a#6 v=0
380400 On ch=1 n=a#5 v=110
380400 On ch=1 n=a#6 v=110
380520 On ch=1 n=a#5 v=0
380520 On ch=1 n=a#6 v=0
380640 On ch=1 n=a#5 v=110
380640 On ch=1 n=a#6 v=110
380880 On ch=1 n=a#5 v=0
380880 On ch=1 n=a#6 v=0
381120 On ch=1 n=a#5 v=110
381120 On ch=1 n=a#6 v=110
381240 On ch=1 n=a#5 v=0
381240 On ch=1 n=a#6 v=0
381360 On ch=1 n=a#5 v=110
381360 On ch=1 n=a#6 v=110
381480 On ch=1 n=a#5 v=0
381480 On ch=1 n=a#6 v=0
381600 On ch=1 n=a#5 v=110
381600 On ch=1 n=a#6 v=110
381840 On ch=1 n=a#5 v=0
381840 On ch=1 n=a#6 v=0
382560 On ch=1 n=f5 v=80
382560 On ch=1 n=a#5 v=80
382560 On ch=1 n=a#4 v=80
382680 On ch=1 n=a#5 v=0
382680 On ch=1 n=a#4 v=0
382800 On ch=1 n=a#5 v=80
382800 On ch=1 n=a#4 v=80
382920 On ch=1 n=a#5 v=0
382920 On ch=1 n=a#4 v=0
382992 On ch=1 n=f5 v=0
383040 On ch=1 n=a#5 v=80
383040 On ch=1 n=e5 v=80
383040 On ch=1 n=a#4 v=80
383160 On ch=1 n=a#5 v=0
383160 On ch=1 n=e5 v=0
383160 On ch=1 n=a#4 v=0
384000 On ch=1 n=d#5 v=80
384000 On ch=1 n=a#5 v=80
384000 On ch=1 n=a#4 v=80
384120 On ch=1 n=a#5 v=0
384120 On ch=1 n=a#4 v=0
384240 On ch=1 n=a#5 v=80
384240 On ch=1 n=a#4 v=80
384360 On ch=1 n=a#5 v=0
384360 On ch=1 n=a#4 v=0
384432 On ch=1 n=d#5 v=0
384480 On ch=1 n=a#5 v=80
384480 On ch=1 n=d5 v=80
384480 On ch=1 n=a#4 v=80
384720 On ch=1 n=a#5 v=0
384720 On ch=1 n=d5 v=0
384720 On ch=1 n=a#4 v=0
384960 On ch=1 n=a#5 v=80
384960 On ch=1 n=a#4 v=80
385080 On ch=1 n=a#5 v=0
385080 On ch=1 n=a#4 v=0
385200 On ch=1 n=a#5 v=81
385200 On ch=1 n=a#4 v=81
385320 On ch=1 n=a#5 v=0
385320 On ch=1 n=a#4 v=0
385440 On ch=1 n=a#5 v=83
385440 On ch=1 n=a#4 v=83
385680 On ch=1 n=a#5 v=0
385680 On ch=1 n=a#4 v=0
385920 On ch=1 n=a#5 v=85
385920 On ch=1 n=a#4 v=85
386040 On ch=1 n=a#5 v=0
386040 On ch=1 n=a#4 v=0
386160 On ch=1 n=a#5 v=87
386160 On ch=1 n=a#4 v=87
386280 On ch=1 n=a#5 v=0
386280 On ch=1 n=a#4 v=0
386400 On ch=1 n=a#5 v=88
386400 On ch=1 n=a#4 v=88
386640 On ch=1 n=a#5 v=0
386640 On ch=1 n=a#4 v=0
386880 On ch=1 n=a#5 v=91
386880 On ch=1 n=a#4 v=91
387000 On ch=1 n=a#5 v=0
387000 On ch=1 n=a#4 v=0
387120 On ch=1 n=a#5 v=92
387120 On ch=1 n=a#4 v=92
387240 On ch=1 n=a#5 v=0
387240 On ch=1 n=a#4 v=0
387360 On ch=1 n=a#5 v=100
387360 On ch=1 n=a#4 v=100
387792 On ch=1 n=a#5 v=0
387792 On ch=1 n=a#4 v=0
387840 On ch=1 n=d6 v=100
388077 On ch=1 n=d6 v=0
388080 On ch=1 n=d#6 v=104
388317 On ch=1 n=d#6 v=0
388320 On ch=1 n=f6 v=109
388320 On ch=1 n=d6 v=109
388795 On ch=1 n=f6 v=0
388795 On ch=1 n=d6 v=0
388800 On ch=1 n=a#5 v=100
389232 On ch=1 n=a#5 v=0
389280 On ch=1 n=d#6 v=100
389493 On ch=1 n=d#6 v=0
389520 On ch=1 n=f6 v=105
389733 On ch=1 n=f6 v=0
389760 On ch=1 n=g6 v=110
389760 On ch=1 n=d#6 v=110
390187 On ch=1 n=g6 v=0
390187 On ch=1 n=d#6 v=0
390240 On ch=1 n=a#5 v=100
390667 On ch=1 n=a#5 v=0
390720 On ch=1 n=f6 v=100
390957 On ch=1 n=f6 v=0
390960 On ch=1 n=g6 v=107
391197 On ch=1 n=g6 v=0
391200 On ch=1 n=g#6 v=114
391200 On ch=1 n=f6 v=114
391632 On ch=1 n=g#6 v=0
391632 On ch=1 n=f6 v=0
391680 On ch=1 n=c#6 v=105
391680 On ch=1 n=g6 v=105
391680 On ch=1 n=a#6 v=105
392544 On ch=1 n=c#6 v=0
392544 On ch=1 n=g6 v=0
392544 On ch=1 n=a#6 v=0
392640 On ch=1 n=c#6 v=105
392640 On ch=1 n=g6 v=105
392640 On ch=1 n=a#6 v=105
392760 On ch=1 n=c#6 v=0
392760 On ch=1 n=g6 v=0
392760 On ch=1 n=a#6 v=0
392880 On ch=1 n=c#6 v=105
392880 On ch=1 n=g6 v=105
392880 On ch=1 n=a#6 v=105
393000 On ch=1 n=c#6 v=0
393000 On ch=1 n=g6 v=0
393000 On ch=1 n=a#6 v=0
393120 On ch=1 n=c#6 v=100
393120 On ch=1 n=g6 v=100
393120 On ch=1 n=a#6 v=100
393595 On ch=1 n=a#6 v=0
393600 On ch=1 n=c7 v=98
393837 On ch=1 n=c7 v=0
393840 On ch=1 n=a#6 v=97
393984 On ch=1 n=c#6 v=0
393984 On ch=1 n=g6 v=0
394077 On ch=1 n=a#6 v=0
394080 On ch=1 n=g#6 v=96
394080 On ch=1 n=c6 v=96
394320 On ch=1 n=g#6 v=0
394512 On ch=1 n=c6 v=0
394560 On ch=1 n=b5 v=94
394560 On ch=1 n=g#6 v=94
395035 On ch=1 n=g#6 v=0
395040 On ch=1 n=a#6 v=92
395277 On ch=1 n=a#6 v=0
395280 On ch=1 n=g#6 v=91
395424 On ch=1 n=b5 v=0
395517 On ch=1 n=g#6 v=0
395520 On ch=1 n=g6 v=90
395520 On ch=1 n=a#5 v=90
395760 On ch=1 n=g6 v=0
395952 On ch=1 n=a#5 v=0
396000 On ch=1 n=g6 v=88
396000 On ch=1 n=a#5 v=88
396475 On ch=1 n=g6 v=0
396480 On ch=1 n=g#6 v=87
396717 On ch=1 n=g#6 v=0
396720 On ch=1 n=g6 v=86
396864 On ch=1 n=a#5 v=0
396957 On ch=1 n=g6 v=0
396960 On ch=1 n=f6 v=85
396960 On ch=1 n=g#5 v=85
397200 On ch=1 n=f6 v=0
397392 On ch=1 n=g#5 v=0
397440 On ch=1 n=f6 v=83
397440 On ch=1 n=g#5 v=83
397915 On ch=1 n=f6 v=0
397920 On ch=1 n=g6 v=81
398157 On ch=1 n=g6 v=0
398160 On ch=1 n=f6 v=80
398304 On ch=1 n=g#5 v=0
398397 On ch=1 n=f6 v=0
398400 On ch=1 n=d#6 v=79
398400 On ch=1 n=g5 v=79
398640 On ch=1 n=d#6 v=0
398832 On ch=1 n=g5 v=0
398880 On ch=1 n=a#6 v=105
398880 On ch=1 n=a#5 v=105
399312 On ch=1 n=a#6 v=0
399312 On ch=1 n=a#5 v=0
399360 On ch=1 n=d6 v=105
399597 On ch=1 n=d6 v=0
399600 On ch=1 n=d#6 v=105
399837 On ch=1 n=d#6 v=0
399840 On ch=1 n=f6 v=105
399840 On ch=1 n=d6 v=105
400272 On ch=1 n=f6 v=0
400272 On ch=1 n=d6 v=0
400320 On ch=1 n=a#5 v=105
400320 On ch=1 n=a#6 v=105
400752 On ch=1 n=a#5 v=0
400752 On ch=1 n=a#6 v=0
400800 On ch=1 n=d#6 v=105
401037 On ch=1 n=d#6 v=0
401040 On ch=1 n=f6 v=105
401277 On ch=1 n=f6 v=0
401280 On ch=1 n=g6 v=105
401280 On ch=1 n=d#6 v=105
401712 On ch=1 n=g6 v=0
401712 On ch=1 n=d#6 v=0
401760 On ch=1 n=a#6 v=105
401760 On ch=1 n=a#5 v=105
402192 On ch=1 n=a#6 v=0
402192 On ch=1 n=a#5 v=0
402240 On ch=1 n=f6 v=105
402477 On ch=1 n=f6 v=0
402480 On ch=1 n=g6 v=105
402717 On ch=1 n=g6 v=0
402720 On ch=1 n=g#6 v=105
402720 On ch=1 n=f6 v=105
403152 On ch=1 n=g#6 v=0
403152 On ch=1 n=f6 v=0
403200 On ch=1 n=c#6 v=105
403200 On ch=1 n=g6 v=105
403200 On ch=1 n=a#6 v=105
403848 On ch=1 n=c#6 v=0
403848 On ch=1 n=g6 v=0
403848 On ch=1 n=a#6 v=0
403920 On ch=1 n=g6 v=105
403920 On ch=1 n=a#6 v=105
404157 On ch=1 n=g6 v=0
404157 On ch=1 n=a#6 v=0
404160 On ch=1 n=c#6 v=105
404397 On ch=1 n=c#6 v=0
404400 On ch=1 n=g6 v=105
404400 On ch=1 n=a#6 v=105
404616 On ch=1 n=g6 v=0
404616 On ch=1 n=a#6 v=0
404640 On ch=1 n=c#6 v=105
404640 On ch=1 n=c#6 v=105
404877 On ch=1 n=c#6 v=0
404880 On ch=1 n=a#6 v=105
405117 On ch=1 n=a#6 v=0
405120 On ch=1 n=c7 v=105
405357 On ch=1 n=c7 v=0
405360 On ch=1 n=a#6 v=103
405590 On ch=1 n=c#6 v=0
405597 On ch=1 n=a#6 v=0
405600 On ch=1 n=g#6 v=102
405600 On ch=1 n=c6 v=102
405840 On ch=1 n=g#6 v=0
405840 On ch=1 n=c6 v=0
406080 On ch=1 n=b5 v=99
406080 On ch=1 n=b5 v=99
406317 On ch=1 n=b5 v=0
406320 On ch=1 n=g#6 v=97
406557 On ch=1 n=g#6 v=0
406560 On ch=1 n=a#6 v=96
406797 On ch=1 n=a#6 v=0
406800 On ch=1 n=g#6 v=94
407030 On ch=1 n=b5 v=0
407037 On ch=1 n=g#6 v=0
407040 On ch=1 n=g6 v=93
407040 On ch=1 n=a#5 v=93
407280 On ch=1 n=g6 v=0
407280 On ch=1 n=a#5 v=0
407520 On ch=1 n=a#5 v=90
407520 On ch=1 n=a#5 v=90
407757 On ch=1 n=a#5 v=0
407760 On ch=1 n=g6 v=88
407997 On ch=1 n=g6 v=0
408000 On ch=1 n=g#6 v=87
408237 On ch=1 n=g#6 v=0
408240 On ch=1 n=g6 v=85
408470 On ch=1 n=a#5 v=0
408477 On ch=1 n=g6 v=0
408480 On ch=1 n=f6 v=84
408480 On ch=1 n=g#5 v=84
408720 On ch=1 n=f6 v=0
408720 On ch=1 n=g#5 v=0
408960 On ch=1 n=d#6 v=80
408960 On ch=1 n=g5 v=80
409200 On ch=1 n=d#6 v=0
409200 On ch=1 n=g5 v=0
409440 On ch=1 n=d#6 v=80
409560 On ch=1 n=d#6 v=0
409680 On ch=1 n=d#6 v=80
409800 On ch=1 n=d#6 v=0
409920 On ch=1 n=d#6 v=80
410040 On ch=1 n=d#6 v=0
410160 On ch=1 n=d#6 v=80
410280 On ch=1 n=d#6 v=0
410400 On ch=1 n=d#6 v=75
410520 On ch=1 n=d#6 v=0
410640 On ch=1 n=d#6 v=78
410760 On ch=1 n=d#6 v=0
410880 On ch=1 n=d#6 v=81
411000 On ch=1 n=d#6 v=0
411120 On ch=1 n=d#6 v=84
411240 On ch=1 n=d#6 v=0
411360 On ch=1 n=d#6 v=87
411480 On ch=1 n=d#6 v=0
411600 On ch=1 n=d#6 v=90
411720 On ch=1 n=d#6 v=0
411840 On ch=1 n=f6 v=90
412077 On ch=1 n=f6 v=0
412080 On ch=1 n=d#6 v=87
412317 On ch=1 n=d#6 v=0
412320 On ch=1 n=c6 v=84
412557 On ch=1 n=c6 v=0
412560 On ch=1 n=g#5 v=81
412797 On ch=1 n=g#5 v=0
412800 On ch=1 n=d#5 v=78
413037 On ch=1 n=d#5 v=0
413040 On ch=1 n=e5 v=75
413256 On ch=1 n=e5 v=0
413280 On ch=1 n=f5 v=75
413400 On ch=1 n=f5 v=0
413520 On ch=1 n=f5 v=75
413640 On ch=1 n=f5 v=0
413760 On ch=1 n=f5 v=75
413880 On ch=1 n=f5 v=0
414000 On ch=1 n=f5 v=75
414120 On ch=1 n=f5 v=0
414240 On ch=1 n=f5 v=75
414360 On ch=1 n=f5 v=0
414480 On ch=1 n=f5 v=75
414600 On ch=1 n=f5 v=0
414720 On ch=1 n=d#5 v=75
414957 On ch=1 n=d#5 v=0
414960 On ch=1 n=g#5 v=78
415197 On ch=1 n=g#5 v=0
415200 On ch=1 n=c6 v=81
415437 On ch=1 n=c6 v=0
415440 On ch=1 n=d#6 v=84
415677 On ch=1 n=d#6 v=0
415680 On ch=1 n=g#6 v=87
415917 On ch=1 n=g#6 v=0
415920 On ch=1 n=e6 v=90
416136 On ch=1 n=e6 v=0
416160 On ch=1 n=f6 v=75
416280 On ch=1 n=f6 v=0
416400 On ch=1 n=f6 v=75
416520 On ch=1 n=f6 v=0
416640 On ch=1 n=f6 v=75
416760 On ch=1 n=f6 v=0
416880 On ch=1 n=f6 v=75
417000 On ch=1 n=f6 v=0
417120 On ch=1 n=f6 v=75
417240 On ch=1 n=f6 v=0
417360 On ch=1 n=f6 v=75
417480 On ch=1 n=f6 v=0
417600 On ch=1 n=f6 v=75
417758 On ch=1 n=f6 v=0
417760 On ch=1 n=g6 v=75
417918 On ch=1 n=g6 v=0
417920 On ch=1 n=f6 v=75
418078 On ch=1 n=f6 v=0
418080 On ch=1 n=d#6 v=80
418317 On ch=1 n=d#6 v=0
418320 On ch=1 n=g#6 v=85
418557 On ch=1 n=g#6 v=0
418560 On ch=1 n=c7 v=85
418800 On ch=1 n=c7 v=0
419040 On ch=1 n=f7 v=85
419515 On ch=1 n=f7 v=0
419520 On ch=1 n=d#7 v=80
419757 On ch=1 n=d#7 v=0
419760 On ch=1 n=d7 v=75
419997 On ch=1 n=d7 v=0
420000 On ch=1 n=g6 v=75
420240 On ch=1 n=g6 v=0
420480 On ch=1 n=a#6 v=85
420955 On ch=1 n=a#6 v=0
420960 On ch=1 n=g#6 v=75
421197 On ch=1 n=g#6 v=0
421200 On ch=1 n=d#6 v=75
421437 On ch=1 n=d#6 v=0
421440 On ch=1 n=c6 v=75
421680 On ch=1 n=c6 v=0
421920 On ch=1 n=d#6 v=75
422040 On ch=1 n=d#6 v=0
422160 On ch=1 n=d#6 v=78
422280 On ch=1 n=d#6 v=0
422400 On ch=1 n=d#6 v=81
422520 On ch=1 n=d#6 v=0
422640 On ch=1 n=d#6 v=84
422760 On ch=1 n=d#6 v=0
422880 On ch=1 n=d#6 v=87
423000 On ch=1 n=d#6 v=0
423120 On ch=1 n=d#6 v=90
423240 On ch=1 n=d#6 v=0
423360 On ch=1 n=f6 v=90
423597 On ch=1 n=f6 v=0
423600 On ch=1 n=d#6 v=87
423837 On ch=1 n=d#6 v=0
423840 On ch=1 n=c6 v=84
424077 On ch=1 n=c6 v=0
424080 On ch=1 n=g#5 v=81
424317 On ch=1 n=g#5 v=0
424320 On ch=1 n=d#5 v=78
424557 On ch=1 n=d#5 v=0
424560 On ch=1 n=e5 v=75
424776 On ch=1 n=e5 v=0
424800 On ch=1 n=f5 v=75
424920 On ch=1 n=f5 v=0
425040 On ch=1 n=f5 v=75
425160 On ch=1 n=f5 v=0
425280 On ch=1 n=f5 v=75
425400 On ch=1 n=f5 v=0
425520 On ch=1 n=f5 v=75
425640 On ch=1 n=f5 v=0
425760 On ch=1 n=f5 v=75
425880 On ch=1 n=f5 v=0
426000 On ch=1 n=f5 v=75
426120 On ch=1 n=f5 v=0
426240 On ch=1 n=d#5 v=75
426477 On ch=1 n=d#5 v=0
426480 On ch=1 n=g#5 v=78
426717 On ch=1 n=g#5 v=0
426720 On ch=1 n=c6 v=81
426957 On ch=1 n=c6 v=0
426960 On ch=1 n=d#6 v=84
427197 On ch=1 n=d#6 v=0
427200 On ch=1 n=g#6 v=87
427437 On ch=1 n=g#6 v=0
427440 On ch=1 n=e6 v=90
427656 On ch=1 n=e6 v=0
427680 On ch=1 n=f6 v=75
427800 On ch=1 n=f6 v=0
427920 On ch=1 n=f6 v=75
428040 On ch=1 n=f6 v=0
428160 On ch=1 n=f6 v=75
428280 On ch=1 n=f6 v=0
428400 On ch=1 n=f6 v=75
428520 On ch=1 n=f6 v=0
428640 On ch=1 n=f6 v=75
428760 On ch=1 n=f6 v=0
428880 On ch=1 n=f6 v=75
429000 On ch=1 n=f6 v=0
429120 On ch=1 n=f6 v=75
429278 On ch=1 n=f6 v=0
429280 On ch=1 n=g6 v=75
429438 On ch=1 n=g6 v=0
429440 On ch=1 n=f6 v=75
429598 On ch=1 n=f6 v=0
429600 On ch=1 n=d#6 v=75
429837 On ch=1 n=d#6 v=0
429840 On ch=1 n=g#6 v=80
430077 On ch=1 n=g#6 v=0
430080 On ch=1 n=c7 v=85
430320 On ch=1 n=c7 v=0
430560 On ch=1 n=f7 v=85
431035 On ch=1 n=f7 v=0
431040 On ch=1 n=d#7 v=80
431277 On ch=1 n=d#7 v=0
431280 On ch=1 n=d7 v=75
431517 On ch=1 n=d7 v=0
431520 On ch=1 n=g6 v=75
431760 On ch=1 n=g6 v=0
432000 On ch=1 n=g#6 v=75
432950 On ch=1 n=g#6 v=0
432960 On ch=1 n=d6 v=77
433019 On ch=1 n=d6 v=0
433020 On ch=1 n=c6 v=79
433079 On ch=1 n=c6 v=0
433080 On ch=1 n=d6 v=81
433139 On ch=1 n=d6 v=0
433140 On ch=1 n=c6 v=83
433199 On ch=1 n=c6 v=0
433200 On ch=1 n=d6 v=85
433259 On ch=1 n=d6 v=0
433260 On ch=1 n=c6 v=87
433319 On ch=1 n=c6 v=0
433320 On ch=1 n=d6 v=89
433379 On ch=1 n=d6 v=0
433380 On ch=1 n=c6 v=91
433439 On ch=1 n=c6 v=0
433440 On ch=1 n=d6 v=100
433872 On ch=1 n=d6 v=0
433920 On ch=1 n=d6 v=100
434157 On ch=1 n=d6 v=0
434160 On ch=1 n=d#6 v=100
434397 On ch=1 n=d#6 v=0
434400 On ch=1 n=f6 v=100
434400 On ch=1 n=d6 v=100
434875 On ch=1 n=f6 v=0
434875 On ch=1 n=d6 v=0
434880 On ch=1 n=a#5 v=100
435312 On ch=1 n=a#5 v=0
435360 On ch=1 n=d#6 v=100
435597 On ch=1 n=d#6 v=0
435600 On ch=1 n=f6 v=100
435837 On ch=1 n=f6 v=0
435840 On ch=1 n=g6 v=100
435840 On ch=1 n=d#6 v=100
436315 On ch=1 n=g6 v=0
436315 On ch=1 n=d#6 v=0
436320 On ch=1 n=a#5 v=100
436752 On ch=1 n=a#5 v=0
436800 On ch=1 n=f6 v=100
437037 On ch=1 n=f6 v=0
437040 On ch=1 n=g6 v=100
437277 On ch=1 n=g6 v=0
437280 On ch=1 n=g#6 v=100
437280 On ch=1 n=f6 v=100
437712 On ch=1 n=g#6 v=0
437712 On ch=1 n=f6 v=0
437760 On ch=1 n=g6 v=105
437760 On ch=1 n=a#6 v=105
437760 On ch=1 n=c#6 v=105
438624 On ch=1 n=g6 v=0
438624 On ch=1 n=a#6 v=0
438624 On ch=1 n=c#6 v=0
438720 On ch=1 n=c#6 v=102
438720 On ch=1 n=g6 v=102
438720 On ch=1 n=a#6 v=102
438840 On ch=1 n=c#6 v=0
438840 On ch=1 n=g6 v=0
438840 On ch=1 n=a#6 v=0
438960 On ch=1 n=c#6 v=99
438960 On ch=1 n=g6 v=99
438960 On ch=1 n=a#6 v=99
439080 On ch=1 n=c#6 v=0
439080 On ch=1 n=g6 v=0
439080 On ch=1 n=a#6 v=0
439200 On ch=1 n=a#6 v=98
439200 On ch=1 n=g6 v=98
439200 On ch=1 n=c#6 v=98
439675 On ch=1 n=a#6 v=0
439680 On ch=1 n=c7 v=97
439917 On ch=1 n=c7 v=0
439920 On ch=1 n=a#6 v=96
440064 On ch=1 n=g6 v=0
440064 On ch=1 n=c#6 v=0
440157 On ch=1 n=a#6 v=0
440160 On ch=1 n=g#6 v=95
440160 On ch=1 n=c6 v=95
440400 On ch=1 n=g#6 v=0
440592 On ch=1 n=c6 v=0
440640 On ch=1 n=g#6 v=94
440640 On ch=1 n=b5 v=94
441115 On ch=1 n=g#6 v=0
441120 On ch=1 n=a#6 v=93
441357 On ch=1 n=a#6 v=0
441360 On ch=1 n=g#6 v=92
441504 On ch=1 n=b5 v=0
441597 On ch=1 n=g#6 v=0
441600 On ch=1 n=g6 v=91
441600 On ch=1 n=a#5 v=90
441840 On ch=1 n=g6 v=0
442032 On ch=1 n=a#5 v=0
442080 On ch=1 n=g6 v=89
442080 On ch=1 n=a#5 v=89
442555 On ch=1 n=g6 v=0
442560 On ch=1 n=g#6 v=88
442797 On ch=1 n=g#6 v=0
442800 On ch=1 n=g6 v=87
442944 On ch=1 n=a#5 v=0
443037 On ch=1 n=g6 v=0
443040 On ch=1 n=f6 v=86
443040 On ch=1 n=g#5 v=86
443280 On ch=1 n=f6 v=0
443472 On ch=1 n=g#5 v=0
443520 On ch=1 n=f6 v=85
443520 On ch=1 n=g#5 v=85
443995 On ch=1 n=f6 v=0
444000 On ch=1 n=g6 v=84
444237 On ch=1 n=g6 v=0
444240 On ch=1 n=f6 v=83
444384 On ch=1 n=g#5 v=0
444477 On ch=1 n=f6 v=0
444480 On ch=1 n=d#6 v=82
444480 On ch=1 n=g5 v=81
444720 On ch=1 n=d#6 v=0
444912 On ch=1 n=g5 v=0
444960 On ch=1 n=a#6 v=105
444960 On ch=1 n=a#5 v=105
445392 On ch=1 n=a#6 v=0
445392 On ch=1 n=a#5 v=0
445440 On ch=1 n=d6 v=105
445677 On ch=1 n=d6 v=0
445680 On ch=1 n=d#6 v=105
445917 On ch=1 n=d#6 v=0
445920 On ch=1 n=f6 v=105
445920 On ch=1 n=d6 v=105
446352 On ch=1 n=f6 v=0
446352 On ch=1 n=d6 v=0
446400 On ch=1 n=a#5 v=105
446400 On ch=1 n=a#6 v=105
446832 On ch=1 n=a#5 v=0
446832 On ch=1 n=a#6 v=0
446880 On ch=1 n=d#6 v=105
447117 On ch=1 n=d#6 v=0
447120 On ch=1 n=f6 v=105
447357 On ch=1 n=f6 v=0
447360 On ch=1 n=g6 v=105
447360 On ch=1 n=d#6 v=105
447792 On ch=1 n=g6 v=0
447792 On ch=1 n=d#6 v=0
447840 On ch=1 n=a#5 v=105
447840 On ch=1 n=a#6 v=105
448272 On ch=1 n=a#5 v=0
448272 On ch=1 n=a#6 v=0
448320 On ch=1 n=f6 v=105
448557 On ch=1 n=f6 v=0
448560 On ch=1 n=g6 v=105
448797 On ch=1 n=g6 v=0
448800 On ch=1 n=g#6 v=105
448800 On ch=1 n=f6 v=105
449232 On ch=1 n=g#6 v=0
449232 On ch=1 n=f6 v=0
449280 On ch=1 n=c#6 v=105
449280 On ch=1 n=g6 v=105
449280 On ch=1 n=a#6 v=105
449712 On ch=1 n=c#6 v=0
449712 On ch=1 n=g6 v=0
449712 On ch=1 n=a#6 v=0
451680 On ch=1 n=c#6 v=80
451680 On ch=1 n=g6 v=80
451680 On ch=1 n=a#6 v=80
451800 On ch=1 n=c#6 v=0
451800 On ch=1 n=g6 v=0
451800 On ch=1 n=a#6 v=0
451920 On ch=1 n=c#6 v=80
451920 On ch=1 n=g6 v=80
451920 On ch=1 n=a#6 v=80
452040 On ch=1 n=c#6 v=0
452040 On ch=1 n=g6 v=0
452040 On ch=1 n=a#6 v=0
452160 On ch=1 n=a#6 v=75
452160 On ch=1 n=g6 v=75
452160 On ch=1 n=c#6 v=75
452635 On ch=1 n=a#6 v=0
452640 On ch=1 n=c7 v=74
452877 On ch=1 n=c7 v=0
452880 On ch=1 n=a#6 v=74
453024 On ch=1 n=g6 v=0
453024 On ch=1 n=c#6 v=0
453117 On ch=1 n=a#6 v=0
453120 On ch=1 n=g#6 v=73
453120 On ch=1 n=c6 v=73
453552 On ch=1 n=g#6 v=0
453552 On ch=1 n=c6 v=0
453600 On ch=1 n=g#6 v=72
453600 On ch=1 n=b5 v=72
454075 On ch=1 n=g#6 v=0
454080 On ch=1 n=a#6 v=71
454317 On ch=1 n=a#6 v=0
454320 On ch=1 n=g#6 v=71
454464 On ch=1 n=b5 v=0
454557 On ch=1 n=g#6 v=0
454560 On ch=1 n=g6 v=70
454560 On ch=1 n=a#5 v=70
454992 On ch=1 n=g6 v=0
454992 On ch=1 n=a#5 v=0
455040 On ch=1 n=g6 v=69
455040 On ch=1 n=a#5 v=69
455515 On ch=1 n=g6 v=0
455520 On ch=1 n=g#6 v=69
455757 On ch=1 n=g#6 v=0
455760 On ch=1 n=g6 v=68
455904 On ch=1 n=a#5 v=0
455997 On ch=1 n=g6 v=0
456000 On ch=1 n=f6 v=68
456000 On ch=1 n=g#5 v=68
456432 On ch=1 n=f6 v=0
456432 On ch=1 n=g#5 v=0
463680 On ch=1 n=d#5 v=75
463800 On ch=1 n=d#5 v=0
463920 On ch=1 n=d#5 v=75
464040 On ch=1 n=d#5 v=0
464160 On ch=1 n=d#5 v=75
464280 On ch=1 n=d#5 v=0
464400 On ch=1 n=d#5 v=75
464520 On ch=1 n=d#5 v=0
464640 On ch=1 n=d#5 v=75
464880 On ch=1 n=d#5 v=0
465120 On ch=1 n=g4 v=75
465357 On ch=1 n=g4 v=0
465360 On ch=1 n=a#4 v=75
465597 On ch=1 n=a#4 v=0
465600 On ch=1 n=d#5 v=75
465837 On ch=1 n=d#5 v=0
465840 On ch=1 n=g5 v=75
466077 On ch=1 n=g5 v=0
466080 On ch=1 n=c6 v=75
466512 On ch=1 n=c6 v=0
466560 On ch=1 n=c6 v=80
466587 On ch=1 n=c6 v=0
466620 On ch=1 n=b5 v=80
466860 On ch=1 n=b5 v=0
467040 On ch=1 n=b5 v=78
467094 On ch=1 n=b5 v=0
467100 On ch=1 n=a#5 v=78
467340 On ch=1 n=a#5 v=0
467520 On ch=1 n=a#5 v=77
467547 On ch=1 n=a#5 v=0
467580 On ch=1 n=g#5 v=77
467820 On ch=1 n=g#5 v=0
468000 On ch=1 n=a#5 v=75
468027 On ch=1 n=a#5 v=0
468060 On ch=1 n=g#5 v=75
468300 On ch=1 n=g#5 v=0
468480 On ch=1 n=g#5 v=74
468507 On ch=1 n=g#5 v=0
468540 On ch=1 n=g5 v=74
468780 On ch=1 n=g5 v=0
468960 On ch=1 n=g5 v=72
468987 On ch=1 n=g5 v=0
469020 On ch=1 n=f5 v=72
469260 On ch=1 n=f5 v=0
469440 On ch=1 n=d#5 v=80
469560 On ch=1 n=d#5 v=0
469680 On ch=1 n=d#5 v=80
469800 On ch=1 n=d#5 v=0
469920 On ch=1 n=d#5 v=80
470040 On ch=1 n=d#5 v=0
470160 On ch=1 n=d#5 v=80
470280 On ch=1 n=d#5 v=0
470400 On ch=1 n=d#5 v=80
470640 On ch=1 n=d#5 v=0
470880 On ch=1 n=c5 v=80
471117 On ch=1 n=c5 v=0
471120 On ch=1 n=d#5 v=80
471357 On ch=1 n=d#5 v=0
471360 On ch=1 n=g#5 v=80
471597 On ch=1 n=g#5 v=0
471600 On ch=1 n=c6 v=80
471837 On ch=1 n=c6 v=0
471840 On ch=1 n=f6 v=80
472272 On ch=1 n=f6 v=0
472320 On ch=1 n=g6 v=80
472347 On ch=1 n=g6 v=0
472380 On ch=1 n=f6 v=80
472620 On ch=1 n=f6 v=0
472800 On ch=1 n=f6 v=78
472827 On ch=1 n=f6 v=0
472860 On ch=1 n=e6 v=78
473100 On ch=1 n=e6 v=0
473280 On ch=1 n=f6 v=76
473307 On ch=1 n=f6 v=0
473340 On ch=1 n=d#6 v=76
473580 On ch=1 n=d#6 v=0
473760 On ch=1 n=d#6 v=74
473787 On ch=1 n=d#6 v=0
473820 On ch=1 n=d6 v=74
474060 On ch=1 n=d6 v=0
474240 On ch=1 n=d#6 v=72
474267 On ch=1 n=d#6 v=0
474300 On ch=1 n=c#6 v=72
474540 On ch=1 n=c#6 v=0
474720 On ch=1 n=d6 v=71
474747 On ch=1 n=d6 v=0
474780 On ch=1 n=c6 v=70
475020 On ch=1 n=c6 v=0
475200 On ch=1 n=b5 v=80
475320 On ch=1 n=b5 v=0
475440 On ch=1 n=b5 v=80
475560 On ch=1 n=b5 v=0
475680 On ch=1 n=b5 v=80
475800 On ch=1 n=b5 v=0
475920 On ch=1 n=b5 v=80
476040 On ch=1 n=b5 v=0
476160 On ch=1 n=b5 v=80
476280 On ch=1 n=b5 v=0
476400 On ch=1 n=b5 v=80
476520 On ch=1 n=b5 v=0
476640 On ch=1 n=g#5 v=77
476877 On ch=1 n=g#5 v=0
476880 On ch=1 n=b5 v=81
477117 On ch=1 n=b5 v=0
477120 On ch=1 n=d6 v=85
477357 On ch=1 n=d6 v=0
477360 On ch=1 n=f6 v=89
477597 On ch=1 n=f6 v=0
477600 On ch=1 n=b6 v=93
478032 On ch=1 n=b6 v=0
478080 On ch=1 n=c7 v=82
478107 On ch=1 n=c7 v=0
478140 On ch=1 n=a#6 v=82
478380 On ch=1 n=a#6 v=0
478560 On ch=1 n=a#6 v=83
478587 On ch=1 n=a#6 v=0
478620 On ch=1 n=a6 v=84
478860 On ch=1 n=a6 v=0
479040 On ch=1 n=a#6 v=85
479067 On ch=1 n=a#6 v=0
479100 On ch=1 n=g#6 v=85
479340 On ch=1 n=g#6 v=0
479520 On ch=1 n=g#6 v=86
479547 On ch=1 n=g#6 v=0
479580 On ch=1 n=g6 v=86
479820 On ch=1 n=g6 v=0
480000 On ch=1 n=g#6 v=87
480027 On ch=1 n=g#6 v=0
480060 On ch=1 n=f#6 v=88
480300 On ch=1 n=f#6 v=0
480480 On ch=1 n=g6 v=89
480507 On ch=1 n=g6 v=0
480540 On ch=1 n=f6 v=89
480780 On ch=1 n=f6 v=0
480960 On ch=1 n=f6 v=100
480987 On ch=1 n=f6 v=0
481020 On ch=1 n=g7 v=100
481260 On ch=1 n=g7 v=0
481440 On ch=1 n=g7 v=97
481467 On ch=1 n=g7 v=0
481500 On ch=1 n=f7 v=96
481740 On ch=1 n=f7 v=0
481920 On ch=1 n=f7 v=93
481947 On ch=1 n=f7 v=0
481980 On ch=1 n=d#7 v=93
482220 On ch=1 n=d#7 v=0
482400 On ch=1 n=e7 v=90
482427 On ch=1 n=e7 v=0
482460 On ch=1 n=d#7 v=90
482700 On ch=1 n=d#7 v=0
482880 On ch=1 n=d#7 v=87
482907 On ch=1 n=d#7 v=0
482940 On ch=1 n=d7 v=86
483180 On ch=1 n=d7 v=0
483360 On ch=1 n=d#7 v=83
483387 On ch=1 n=d#7 v=0
483420 On ch=1 n=c#7 v=83
483660 On ch=1 n=c#7 v=0
483840 On ch=1 n=c#7 v=92
483867 On ch=1 n=c#7 v=0
483900 On ch=1 n=c7 v=92
484140 On ch=1 n=c7 v=0
484320 On ch=1 n=c7 v=96
484347 On ch=1 n=c7 v=0
484380 On ch=1 n=b6 v=96
484620 On ch=1 n=b6 v=0
484800 On ch=1 n=b6 v=99
484827 On ch=1 n=b6 v=0
484860 On ch=1 n=a#6 v=100
485100 On ch=1 n=a#6 v=0
485280 On ch=1 n=a#6 v=103
485307 On ch=1 n=a#6 v=0
485340 On ch=1 n=a6 v=103
485580 On ch=1 n=a6 v=0
485760 On ch=1 n=a#6 v=106
485814 On ch=1 n=a#6 v=0
485820 On ch=1 n=g#6 v=107
486060 On ch=1 n=g#6 v=0
486240 On ch=1 n=g#6 v=110
486267 On ch=1 n=g#6 v=0
486300 On ch=1 n=f6 v=110
486540 On ch=1 n=f6 v=0
486720 On ch=1 n=d#6 v=110
486720 On ch=1 n=d#7 v=110
487152 On ch=1 n=d#6 v=0
487152 On ch=1 n=d#7 v=0
487200 On ch=1 n=g6 v=113
487437 On ch=1 n=g6 v=0
487440 On ch=1 n=g#6 v=116
487677 On ch=1 n=g#6 v=0
487680 On ch=1 n=g6 v=119
487680 On ch=1 n=d#6 v=119
488112 On ch=1 n=g6 v=0
488112 On ch=1 n=d#6 v=0
488160 On ch=1 n=d#6 v=110
488160 On ch=1 n=d#7 v=110
488592 On ch=1 n=d#6 v=0
488592 On ch=1 n=d#7 v=0
488640 On ch=1 n=f#6 v=110
488877 On ch=1 n=f#6 v=0
488880 On ch=1 n=g#6 v=113
489117 On ch=1 n=g#6 v=0
489120 On ch=1 n=f#6 v=118
489120 On ch=1 n=a#6 v=118
489552 On ch=1 n=f#6 v=0
489552 On ch=1 n=a#6 v=0
489600 On ch=1 n=d#6 v=110
489600 On ch=1 n=c7 v=110
490032 On ch=1 n=d#6 v=0
490032 On ch=1 n=c7 v=0
490080 On ch=1 n=d#6 v=110
490317 On ch=1 n=d#6 v=0
490320 On ch=1 n=g6 v=110
490557 On ch=1 n=g6 v=0
490560 On ch=1 n=g#6 v=110
490560 On ch=1 n=f6 v=110
490992 On ch=1 n=g#6 v=0
490992 On ch=1 n=f6 v=0
491040 On ch=1 n=a#5 v=110
491040 On ch=1 n=g6 v=110
491040 On ch=1 n=a#6 v=110
491904 On ch=1 n=a#5 v=0
491904 On ch=1 n=g6 v=0
491904 On ch=1 n=a#6 v=0
492000 On ch=1 n=a#5 v=110
492000 On ch=1 n=g6 v=110
492000 On ch=1 n=a#6 v=110
492120 On ch=1 n=a#5 v=0
492120 On ch=1 n=g6 v=0
492120 On ch=1 n=a#6 v=0
492240 On ch=1 n=a#5 v=110
492240 On ch=1 n=g6 v=110
492240 On ch=1 n=a#6 v=110
492360 On ch=1 n=a#5 v=0
492360 On ch=1 n=g6 v=0
492360 On ch=1 n=a#6 v=0
492480 On ch=1 n=a#6 v=110
492480 On ch=1 n=a#5 v=110
492480 On ch=1 n=g6 v=110
492955 On ch=1 n=g6 v=0
492960 On ch=1 n=g#6 v=110
493197 On ch=1 n=g#6 v=0
493200 On ch=1 n=g6 v=110
493437 On ch=1 n=g6 v=0
493440 On ch=1 n=f6 v=110
493776 On ch=1 n=a#6 v=0
493776 On ch=1 n=a#5 v=0
493872 On ch=1 n=f6 v=0
493920 On ch=1 n=a#6 v=110
493920 On ch=1 n=a#5 v=110
493920 On ch=1 n=f6 v=110
494395 On ch=1 n=f6 v=0
494400 On ch=1 n=g6 v=110
494637 On ch=1 n=g6 v=0
494640 On ch=1 n=f6 v=110
494877 On ch=1 n=f6 v=0
494880 On ch=1 n=d#6 v=110
495216 On ch=1 n=a#6 v=0
495216 On ch=1 n=a#5 v=0
495312 On ch=1 n=d#6 v=0
495360 On ch=1 n=g6 v=110
495360 On ch=1 n=a#5 v=110
495835 On ch=1 n=a#5 v=0
495840 On ch=1 n=c6 v=110
496077 On ch=1 n=c6 v=0
496080 On ch=1 n=a#5 v=110
496310 On ch=1 n=g6 v=0
496317 On ch=1 n=a#5 v=0
496320 On ch=1 n=f6 v=110
496320 On ch=1 n=g#5 v=110
496752 On ch=1 n=f6 v=0
496752 On ch=1 n=g#5 v=0
496800 On ch=1 n=f6 v=110
496800 On ch=1 n=g#5 v=110
497275 On ch=1 n=g#5 v=0
497280 On ch=1 n=a#5 v=110
497517 On ch=1 n=a#5 v=0
497520 On ch=1 n=g#5 v=110
497750 On ch=1 n=f6 v=0
497757 On ch=1 n=g#5 v=0
497760 On ch=1 n=d#6 v=110
497760 On ch=1 n=g5 v=110
498192 On ch=1 n=d#6 v=0
498192 On ch=1 n=g5 v=0
498240 On ch=1 n=d#6 v=100
498240 On ch=1 n=d#5 v=100
498240 On ch=1 n=d#5 v=100
498715 On ch=1 n=d#5 v=0
498720 On ch=1 n=g#5 v=97
498957 On ch=1 n=g#5 v=0
498960 On ch=1 n=a#5 v=102
499197 On ch=1 n=a#5 v=0
499200 On ch=1 n=c6 v=107
499200 On ch=1 n=g#5 v=107
499536 On ch=1 n=d#6 v=0
499536 On ch=1 n=d#5 v=0
499632 On ch=1 n=c6 v=0
499632 On ch=1 n=g#5 v=0
499680 On ch=1 n=d#6 v=100
499680 On ch=1 n=d#5 v=100
499680 On ch=1 n=d#5 v=100
500155 On ch=1 n=d#5 v=0
500160 On ch=1 n=g#5 v=100
500397 On ch=1 n=g#5 v=0
500400 On ch=1 n=a#5 v=105
500637 On ch=1 n=a#5 v=0
500640 On ch=1 n=b5 v=110
500640 On ch=1 n=g#5 v=110
500976 On ch=1 n=d#6 v=0
500976 On ch=1 n=d#5 v=0
501072 On ch=1 n=b5 v=0
501072 On ch=1 n=g#5 v=0
501120 On ch=1 n=d#6 v=100
501120 On ch=1 n=d#5 v=100
501120 On ch=1 n=d#5 v=100
501595 On ch=1 n=d#5 v=0
501600 On ch=1 n=g5 v=100
501837 On ch=1 n=g5 v=0
501840 On ch=1 n=g#5 v=103
502077 On ch=1 n=g#5 v=0
502080 On ch=1 n=a#5 v=107
502080 On ch=1 n=g5 v=107
502416 On ch=1 n=d#6 v=0
502416 On ch=1 n=d#5 v=0
502512 On ch=1 n=a#5 v=0
502512 On ch=1 n=g5 v=0
502560 On ch=1 n=a#5 v=100
502560 On ch=1 n=g5 v=100
502560 On ch=1 n=a#4 v=100
503424 On ch=1 n=a#5 v=0
503424 On ch=1 n=g5 v=0
503424 On ch=1 n=a#4 v=0
503520 On ch=1 n=a#5 v=97
503520 On ch=1 n=g5 v=97
503520 On ch=1 n=a#4 v=97
503640 On ch=1 n=a#5 v=0
503640 On ch=1 n=g5 v=0
503640 On ch=1 n=a#4 v=0
503760 On ch=1 n=a#5 v=96
503760 On ch=1 n=g5 v=96
503760 On ch=1 n=a#4 v=96
503880 On ch=1 n=a#5 v=0
503880 On ch=1 n=g5 v=0
503880 On ch=1 n=a#4 v=0
504000 On ch=1 n=g5 v=95
504000 On ch=1 n=a#5 v=95
504000 On ch=1 n=a#4 v=95
504475 On ch=1 n=g5 v=0
504480 On ch=1 n=g#5 v=93
504717 On ch=1 n=g#5 v=0
504720 On ch=1 n=g5 v=92
504957 On ch=1 n=g5 v=0
504960 On ch=1 n=f5 v=92
505296 On ch=1 n=a#5 v=0
505296 On ch=1 n=a#4 v=0
505392 On ch=1 n=f5 v=0
505440 On ch=1 n=a#5 v=90
505440 On ch=1 n=a#4 v=90
505440 On ch=1 n=f5 v=90
505915 On ch=1 n=f5 v=0
505920 On ch=1 n=g5 v=88
506157 On ch=1 n=g5 v=0
506160 On ch=1 n=f5 v=87
506397 On ch=1 n=f5 v=0
506400 On ch=1 n=d#5 v=87
506736 On ch=1 n=a#5 v=0
506736 On ch=1 n=a#4 v=0
506832 On ch=1 n=d#5 v=0
506880 On ch=1 n=b5 v=80
506880 On ch=1 n=d5 v=80
507000 On ch=1 n=b5 v=0
507096 On ch=1 n=d5 v=0
507120 On ch=1 n=b5 v=80
507240 On ch=1 n=b5 v=0
507360 On ch=1 n=b5 v=80
507480 On ch=1 n=b5 v=0
507600 On ch=1 n=b5 v=80
507720 On ch=1 n=b5 v=0
507840 On ch=1 n=b5 v=80
507960 On ch=1 n=b5 v=0
508080 On ch=1 n=b5 v=80
508200 On ch=1 n=b5 v=0
508320 On ch=1 n=b5 v=80
508557 On ch=1 n=b5 v=0
508560 On ch=1 n=a#5 v=80
508797 On ch=1 n=a#5 v=0
508800 On ch=1 n=g5 v=80
509037 On ch=1 n=g5 v=0
509040 On ch=1 n=d#5 v=80
509277 On ch=1 n=d#5 v=0
509280 On ch=1 n=a#4 v=80
509520 On ch=1 n=a#4 v=0
509760 On ch=1 n=g5 v=80
509760 On ch=1 n=a#5 v=80
509760 On ch=1 n=a#4 v=80
510235 On ch=1 n=g5 v=0
510240 On ch=1 n=g#5 v=80
510477 On ch=1 n=g#5 v=0
510480 On ch=1 n=g5 v=80
510717 On ch=1 n=g5 v=0
510720 On ch=1 n=f5 v=80
511056 On ch=1 n=a#5 v=0
511056 On ch=1 n=a#4 v=0
511152 On ch=1 n=f5 v=0
511200 On ch=1 n=a#5 v=80
511200 On ch=1 n=a#4 v=80
511200 On ch=1 n=f5 v=80
511675 On ch=1 n=f5 v=0
511680 On ch=1 n=g5 v=80
511917 On ch=1 n=g5 v=0
511920 On ch=1 n=f5 v=80
512157 On ch=1 n=f5 v=0
512160 On ch=1 n=d#5 v=80
512496 On ch=1 n=a#5 v=0
512496 On ch=1 n=a#4 v=0
512592 On ch=1 n=d#5 v=0
512640 On ch=1 n=c6 v=80
512640 On ch=1 n=d5 v=80
512760 On ch=1 n=c6 v=0
512856 On ch=1 n=d5 v=0
512880 On ch=1 n=c6 v=80
513000 On ch=1 n=c6 v=0
513120 On ch=1 n=c6 v=80
513240 On ch=1 n=c6 v=0
513360 On ch=1 n=c6 v=80
513480 On ch=1 n=c6 v=0
513600 On ch=1 n=c6 v=80
513720 On ch=1 n=c6 v=0
513840 On ch=1 n=c6 v=80
513960 On ch=1 n=c6 v=0
514080 On ch=1 n=c6 v=80
514317 On ch=1 n=c6 v=0
514320 On ch=1 n=a#5 v=80
514557 On ch=1 n=a#5 v=0
514560 On ch=1 n=g5 v=80
514797 On ch=1 n=g5 v=0
514800 On ch=1 n=d#5 v=80
515037 On ch=1 n=d#5 v=0
515040 On ch=1 n=a#4 v=80
515280 On ch=1 n=a#4 v=0
515520 On ch=1 n=b5 v=80
515520 On ch=1 n=d5 v=80
515640 On ch=1 n=b5 v=0
515736 On ch=1 n=d5 v=0
515760 On ch=1 n=b5 v=80
515880 On ch=1 n=b5 v=0
516000 On ch=1 n=b5 v=81
516120 On ch=1 n=b5 v=0
516240 On ch=1 n=b5 v=81
516360 On ch=1 n=b5 v=0
516480 On ch=1 n=b5 v=82
516600 On ch=1 n=b5 v=0
516720 On ch=1 n=b5 v=82
516840 On ch=1 n=b5 v=0
516960 On ch=1 n=b5 v=83
517197 On ch=1 n=b5 v=0
517200 On ch=1 n=a#5 v=83
517437 On ch=1 n=a#5 v=0
517440 On ch=1 n=g#5 v=84
517677 On ch=1 n=g#5 v=0
517680 On ch=1 n=f5 v=84
517917 On ch=1 n=f5 v=0
517920 On ch=1 n=d5 v=85
518160 On ch=1 n=d5 v=0
518400 On ch=1 n=g6 v=86
518637 On ch=1 n=g6 v=0
518640 On ch=1 n=f6 v=86
518877 On ch=1 n=f6 v=0
518880 On ch=1 n=d6 v=87
519117 On ch=1 n=d6 v=0
519120 On ch=1 n=b5 v=87
519357 On ch=1 n=b5 v=0
519360 On ch=1 n=g#5 v=87
519600 On ch=1 n=g#5 v=0
519840 On ch=1 n=b6 v=88
520077 On ch=1 n=b6 v=0
520080 On ch=1 n=g#6 v=89
520317 On ch=1 n=g#6 v=0
520320 On ch=1 n=f6 v=89
520557 On ch=1 n=f6 v=0
520560 On ch=1 n=d6 v=90
520797 On ch=1 n=d6 v=0
520800 On ch=1 n=b5 v=90
521040 On ch=1 n=b5 v=0
521280 On ch=1 n=b6 v=105
521496 On ch=1 n=b6 v=0
521520 On ch=1 n=g6 v=105
521736 On ch=1 n=g6 v=0
521760 On ch=1 n=b6 v=105
521976 On ch=1 n=b6 v=0
522000 On ch=1 n=g#6 v=105
522216 On ch=1 n=g#6 v=0
522240 On ch=1 n=f6 v=105
522456 On ch=1 n=f6 v=0
522480 On ch=1 n=d6 v=105
522696 On ch=1 n=d6 v=0
522720 On ch=1 n=b5 v=105
522936 On ch=1 n=b5 v=0
522960 On ch=1 n=g5 v=105
523176 On ch=1 n=g5 v=0
523200 On ch=1 n=c6 v=105
523416 On ch=1 n=c6 v=0
523440 On ch=1 n=g#5 v=105
523656 On ch=1 n=g#5 v=0
523680 On ch=1 n=f5 v=105
523896 On ch=1 n=f5 v=0
523920 On ch=1 n=d5 v=105
524136 On ch=1 n=d5 v=0
524160 On ch=1 n=b5 v=105
524376 On ch=1 n=b5 v=0
524400 On ch=1 n=g5 v=105
524616 On ch=1 n=g5 v=0
524640 On ch=1 n=c6 v=105
524856 On ch=1 n=c6 v=0
524880 On ch=1 n=g#5 v=105
525096 On ch=1 n=g#5 v=0
525120 On ch=1 n=f5 v=105
525336 On ch=1 n=f5 v=0
525360 On ch=1 n=d5 v=105
525576 On ch=1 n=d5 v=0
525600 On ch=1 n=b4 v=105
525816 On ch=1 n=b4 v=0
525840 On ch=1 n=g4 v=105
526056 On ch=1 n=g4 v=0
526080 On ch=1 n=b4 v=105
526296 On ch=1 n=b4 v=0
526320 On ch=1 n=g#4 v=105
526536 On ch=1 n=g#4 v=0
526560 On ch=1 n=f4 v=105
526776 On ch=1 n=f4 v=0
526800 On ch=1 n=d4 v=105
527016 On ch=1 n=d4 v=0
527040 On ch=1 n=d#4 v=105
527256 On ch=1 n=d#4 v=0
527520 On ch=1 n=g4 v=80
527736 On ch=1 n=g4 v=0
527760 On ch=1 n=g#4 v=80
527976 On ch=1 n=g#4 v=0
528000 On ch=1 n=a#4 v=80
528216 On ch=1 n=a#4 v=0
528240 On ch=1 n=c5 v=80
528456 On ch=1 n=c5 v=0
528480 On ch=1 n=d5 v=80
528696 On ch=1 n=d5 v=0
528720 On ch=1 n=d#5 v=80
528936 On ch=1 n=d#5 v=0
528960 On ch=1 n=f5 v=80
529176 On ch=1 n=f5 v=0
529200 On ch=1 n=g5 v=80
529416 On ch=1 n=g5 v=0
529440 On ch=1 n=g#5 v=80
529656 On ch=1 n=g#5 v=0
529680 On ch=1 n=a5 v=80
529896 On ch=1 n=a5 v=0
529920 On ch=1 n=c6 v=86
530136 On ch=1 n=c6 v=0
530160 On ch=1 n=a#5 v=86
530376 On ch=1 n=a#5 v=0
530400 On ch=1 n=g5 v=85
530616 On ch=1 n=g5 v=0
530640 On ch=1 n=g#5 v=85
530856 On ch=1 n=g#5 v=0
530880 On ch=1 n=a#5 v=85
531096 On ch=1 n=a#5 v=0
531120 On ch=1 n=c6 v=85
531336 On ch=1 n=c6 v=0
531360 On ch=1 n=d6 v=84
531576 On ch=1 n=d6 v=0
531600 On ch=1 n=d#6 v=84
531816 On ch=1 n=d#6 v=0
531840 On ch=1 n=f6 v=84
532056 On ch=1 n=f6 v=0
532080 On ch=1 n=g6 v=83
532296 On ch=1 n=g6 v=0
532320 On ch=1 n=g#6 v=83
532536 On ch=1 n=g#6 v=0
532560 On ch=1 n=a6 v=83
532776 On ch=1 n=a6 v=0
532800 On ch=1 n=c7 v=83
533016 On ch=1 n=c7 v=0
533040 On ch=1 n=a#6 v=82
533256 On ch=1 n=a#6 v=0
533280 On ch=1 n=g6 v=82
533496 On ch=1 n=g6 v=0
533520 On ch=1 n=g#6 v=82
533736 On ch=1 n=g#6 v=0
533760 On ch=1 n=a#6 v=81
533976 On ch=1 n=a#6 v=0
534000 On ch=1 n=c7 v=81
534216 On ch=1 n=c7 v=0
534240 On ch=1 n=d7 v=81
534456 On ch=1 n=d7 v=0
534480 On ch=1 n=d#7 v=80
534696 On ch=1 n=d#7 v=0
534720 On ch=1 n=f7 v=80
534936 On ch=1 n=f7 v=0
534960 On ch=1 n=g7 v=80
535176 On ch=1 n=g7 v=0
535200 On ch=1 n=g#7 v=80
535416 On ch=1 n=g#7 v=0
535440 On ch=1 n=a7 v=79
535656 On ch=1 n=a7 v=0
535680 On ch=1 n=c8 v=79
535896 On ch=1 n=c8 v=0
535920 On ch=1 n=a#7 v=79
536136 On ch=1 n=a#7 v=0
536160 On ch=1 n=g7 v=78
536376 On ch=1 n=g7 v=0
536400 On ch=1 n=g#7 v=78
536616 On ch=1 n=g#7 v=0
536640 On ch=1 n=a7 v=78
536856 On ch=1 n=a7 v=0
536880 On ch=1 n=a#7 v=78
537096 On ch=1 n=a#7 v=0
537120 On ch=1 n=c8 v=77
537336 On ch=1 n=c8 v=0
537360 On ch=1 n=a#7 v=77
537576 On ch=1 n=a#7 v=0
537600 On ch=1 n=g7 v=77
537816 On ch=1 n=g7 v=0
537840 On ch=1 n=g#7 v=76
538056 On ch=1 n=g#7 v=0
538080 On ch=1 n=a7 v=76
538296 On ch=1 n=a7 v=0
538320 On ch=1 n=a#7 v=76
538536 On ch=1 n=a#7 v=0
538560 On ch=1 n=d#8 v=76
538776 On ch=1 n=d#8 v=0
539040 On ch=1 n=g7 v=75
539256 On ch=1 n=g7 v=0
539280 On ch=1 n=g#7 v=75
539496 On ch=1 n=g#7 v=0
539520 On ch=1 n=a7 v=74
539736 On ch=1 n=a7 v=0
539760 On ch=1 n=a#7 v=74
539976 On ch=1 n=a#7 v=0
540000 On ch=1 n=d#8 v=74
540216 On ch=1 n=d#8 v=0
540480 On ch=1 n=g7 v=73
540696 On ch=1 n=g7 v=0
540720 On ch=1 n=g#7 v=73
540936 On ch=1 n=g#7 v=0
540960 On ch=1 n=a7 v=73
541176 On ch=1 n=a7 v=0
541200 On ch=1 n=a#7 v=72
541416 On ch=1 n=a#7 v=0
541440 On ch=1 n=d#8 v=72
541656 On ch=1 n=d#8 v=0
541920 On ch=1 n=g7 v=71
542136 On ch=1 n=g7 v=0
542160 On ch=1 n=g#7 v=71
542376 On ch=1 n=g#7 v=0
542400 On ch=1 n=a7 v=71
542616 On ch=1 n=a7 v=0
542640 On ch=1 n=a#7 v=71
542856 On ch=1 n=a#7 v=0
542880 On ch=1 n=d#8 v=70
543096 On ch=1 n=d#8 v=0
543360 On ch=1 n=g7 v=70
543576 On ch=1 n=g7 v=0
543600 On ch=1 n=g#7 v=69
543816 On ch=1 n=g#7 v=0
543840 On ch=1 n=a7 v=69
544056 On ch=1 n=a7 v=0
544080 On ch=1 n=a#7 v=69
544296 On ch=1 n=a#7 v=0
544320 On ch=1 n=d#8 v=69
544536 On ch=1 n=d#8 v=0
544800 On ch=1 n=g7 v=68
545016 On ch=1 n=g7 v=0
545040 On ch=1 n=g#7 v=68
545256 On ch=1 n=g#7 v=0
545280 On ch=1 n=a7 v=67
545496 On ch=1 n=a7 v=0
545520 On ch=1 n=a#7 v=67
545736 On ch=1 n=a#7 v=0
545760 On ch=1 n=d#8 v=67
545976 On ch=1 n=d#8 v=0
546240 On ch=1 n=g7 v=66
546456 On ch=1 n=g7 v=0
546480 On ch=1 n=g#7 v=66
546696 On ch=1 n=g#7 v=0
546720 On ch=1 n=a7 v=66
546936 On ch=1 n=a7 v=0
546960 On ch=1 n=a#7 v=65
547176 On ch=1 n=a#7 v=0
547200 On ch=1 n=d#8 v=65
547416 On ch=1 n=d#8 v=0
547680 On ch=1 n=g7 v=65
547896 On ch=1 n=g7 v=0
547920 On ch=1 n=g#7 v=64
548136 On ch=1 n=g#7 v=0
548160 On ch=1 n=a7 v=64
548376 On ch=1 n=a7 v=0
548400 On ch=1 n=a#7 v=64
548616 On ch=1 n=a#7 v=0
548640 On ch=1 n=d#8 v=63
548856 On ch=1 n=d#8 v=0
549120 On ch=1 n=g7 v=63
549336 On ch=1 n=g7 v=0
549360 On ch=1 n=g#7 v=62
549576 On ch=1 n=g#7 v=0
549600 On ch=1 n=a7 v=62
549816 On ch=1 n=a7 v=0
549840 On ch=1 n=a#7 v=62
550056 On ch=1 n=a#7 v=0
550080 On ch=1 n=d#8 v=62
550296 On ch=1 n=d#8 v=0
552960 On ch=1 n=g6 v=105
552960 On ch=1 n=a#6 v=105
552960 On ch=1 n=d#7 v=105
552960 On ch=1 n=g7 v=105
553392 On ch=1 n=g6 v=0
553392 On ch=1 n=a#6 v=0
553392 On ch=1 n=d#7 v=0
553392 On ch=1 n=g7 v=0
554400 On ch=1 n=g6 v=110
554400 On ch=1 n=d#6 v=110
554400 On ch=1 n=a#5 v=110
554400 On ch=1 n=g5 v=110
554832 On ch=1 n=g6 v=0
554832 On ch=1 n=d#6 v=0
554832 On ch=1 n=a#5 v=0
554832 On ch=1 n=g5 v=0
554880 On ch=1 n=g6 v=110
554880 On ch=1 n=d#6 v=110
554880 On ch=1 n=a#5 v=110
554880 On ch=1 n=g5 v=110
555312 On ch=1 n=g6 v=0
555312 On ch=1 n=d#6 v=0
555312 On ch=1 n=a#5 v=0
555312 On ch=1 n=g5 v=0
555360 On ch=1 n=g6 v=110
555360 On ch=1 n=d#6 v=110
555360 On ch=1 n=a#5 v=110
555360 On ch=1 n=g5 v=110
555792 On ch=1 n=g6 v=0
555792 On ch=1 n=d#6 v=0
555792 On ch=1 n=a#5 v=0
555792 On ch=1 n=g5 v=0
555919 Meta TrkEnd
TrkEnd
MTrk
570 Par ch=2 c=121 v=0
590 Meta Text "# Pitch Bend Sensitivity (0-2-24) #"
590 Par ch=2 c=101 v=0
595 Par ch=2 c=100 v=0
600 Par ch=2 c=6 v=2
605 Pb ch=2 v=8192
610 Par ch=2 c=0 v=0
615 Par ch=2 c=32 v=0
620 PrCh ch=2 p=0
625 Par ch=2 c=7 v=100
630 Par ch=2 c=11 v=127
635 Par ch=2 c=10 v=64
640 Par ch=2 c=91 v=40
645 Par ch=2 c=93 v=0
650 Par ch=2 c=1 v=0
7200 On ch=2 n=a#3 v=94
7440 On ch=2 n=a#3 v=0
7680 On ch=2 n=a#4 v=98
7680 On ch=2 n=g#5 v=98
7680 On ch=2 n=f5 v=94
8112 On ch=2 n=a#4 v=0
8112 On ch=2 n=g#5 v=0
8112 On ch=2 n=f5 v=0
8160 On ch=2 n=a#4 v=98
8160 On ch=2 n=f5 v=98
8160 On ch=2 n=g#5 v=98
8592 On ch=2 n=a#4 v=0
8592 On ch=2 n=f5 v=0
8592 On ch=2 n=g#5 v=0
8640 On ch=2 n=d#4 v=100
8880 On ch=2 n=d#4 v=0
9120 On ch=2 n=a#4 v=95
9120 On ch=2 n=d#5 v=95
9120 On ch=2 n=g5 v=95
9552 On ch=2 n=a#4 v=0
9552 On ch=2 n=d#5 v=0
9552 On ch=2 n=g5 v=0
9600 On ch=2 n=a#4 v=100
9600 On ch=2 n=d#5 v=100
9600 On ch=2 n=g5 v=100
10032 On ch=2 n=a#4 v=0
10032 On ch=2 n=d#5 v=0
10032 On ch=2 n=g5 v=0
10080 On ch=2 n=d4 v=100
10320 On ch=2 n=d4 v=0
10560 On ch=2 n=a#4 v=103
10560 On ch=2 n=f5 v=103
10560 On ch=2 n=g#5 v=103
10992 On ch=2 n=a#4 v=0
10992 On ch=2 n=f5 v=0
10992 On ch=2 n=g#5 v=0
11040 On ch=2 n=a#4 v=108
11040 On ch=2 n=f5 v=108
11040 On ch=2 n=g#5 v=108
11472 On ch=2 n=a#4 v=0
11472 On ch=2 n=f5 v=0
11472 On ch=2 n=g#5 v=0
11520 On ch=2 n=d#4 v=105
11760 On ch=2 n=d#4 v=0
12000 On ch=2 n=a#4 v=100
12000 On ch=2 n=c#5 v=100
12000 On ch=2 n=g5 v=100
12240 On ch=2 n=a#4 v=0
12240 On ch=2 n=c#5 v=0
12240 On ch=2 n=g5 v=0
12480 On ch=2 n=e4 v=95
12955 On ch=2 n=e4 v=0
12960 On ch=2 n=f4 v=80
13200 On ch=2 n=f4 v=0
13440 On ch=2 n=g#4 v=75
13440 On ch=2 n=f5 v=75
13680 On ch=2 n=g#4 v=0
13680 On ch=2 n=f5 v=0
13920 On ch=2 n=g#3 v=75
14160 On ch=2 n=g#3 v=0
14400 On ch=2 n=a#3 v=75
14640 On ch=2 n=a#3 v=0
14880 On ch=2 n=d#5 v=74
14880 On ch=2 n=g4 v=74
15312 On ch=2 n=d#5 v=0
15312 On ch=2 n=g4 v=0
15360 On ch=2 n=g4 v=73
15360 On ch=2 n=d#5 v=73
15792 On ch=2 n=g4 v=0
15792 On ch=2 n=d#5 v=0
15840 On ch=2 n=a#3 v=72
16080 On ch=2 n=a#3 v=0
16320 On ch=2 n=d5 v=71
16320 On ch=2 n=f4 v=71
16752 On ch=2 n=d5 v=0
16752 On ch=2 n=f4 v=0
16800 On ch=2 n=a#4 v=70
16800 On ch=2 n=d5 v=70
17232 On ch=2 n=a#4 v=0
17232 On ch=2 n=d5 v=0
17280 On ch=2 n=d#4 v=69
17760 On ch=2 n=a#4 v=68
17760 On ch=2 n=d#5 v=68
18192 On ch=2 n=a#4 v=0
18192 On ch=2 n=d#5 v=0
18240 On ch=2 n=a#4 v=67
18240 On ch=2 n=d#5 v=75
18576 On ch=2 n=d#4 v=0
18672 On ch=2 n=a#4 v=0
18672 On ch=2 n=d#5 v=0
18720 On ch=2 n=a#3 v=75
18960 On ch=2 n=a#3 v=0
19200 On ch=2 n=a#4 v=80
19200 On ch=2 n=f5 v=80
19200 On ch=2 n=g#5 v=80
19632 On ch=2 n=a#4 v=0
19632 On ch=2 n=f5 v=0
19632 On ch=2 n=g#5 v=0
19680 On ch=2 n=a#4 v=85
19680 On ch=2 n=f5 v=85
19680 On ch=2 n=g#5 v=85
20112 On ch=2 n=a#4 v=0
20112 On ch=2 n=f5 v=0
20112 On ch=2 n=g#5 v=0
20160 On ch=2 n=d#4 v=75
20400 On ch=2 n=d#4 v=0
20640 On ch=2 n=a#4 v=80
20640 On ch=2 n=d#5 v=80
20640 On ch=2 n=g5 v=80
21072 On ch=2 n=a#4 v=0
21072 On ch=2 n=d#5 v=0
21072 On ch=2 n=g5 v=0
21120 On ch=2 n=a#4 v=85
21120 On ch=2 n=d#5 v=85
21120 On ch=2 n=g5 v=85
21552 On ch=2 n=a#4 v=0
21552 On ch=2 n=d#5 v=0
21552 On ch=2 n=g5 v=0
21600 On ch=2 n=d4 v=75
21840 On ch=2 n=d4 v=0
22080 On ch=2 n=a#4 v=80
22080 On ch=2 n=f5 v=80
22080 On ch=2 n=g#5 v=80
22512 On ch=2 n=a#4 v=0
22512 On ch=2 n=f5 v=0
22512 On ch=2 n=g#5 v=0
22560 On ch=2 n=a#4 v=85
22560 On ch=2 n=f5 v=85
22560 On ch=2 n=g#5 v=85
22992 On ch=2 n=a#4 v=0
22992 On ch=2 n=f5 v=0
22992 On ch=2 n=g#5 v=0
23040 On ch=2 n=d#4 v=105
23280 On ch=2 n=d#4 v=0
23520 On ch=2 n=a#4 v=100
23520 On ch=2 n=c#5 v=100
23520 On ch=2 n=g5 v=100
23760 On ch=2 n=a#4 v=0
23760 On ch=2 n=c#5 v=0
23760 On ch=2 n=g5 v=0
24000 On ch=2 n=e4 v=100
24475 On ch=2 n=e4 v=0
24480 On ch=2 n=f4 v=100
24720 On ch=2 n=f4 v=0
24960 On ch=2 n=g#4 v=98
24960 On ch=2 n=g#5 v=98
25200 On ch=2 n=g#4 v=0
25200 On ch=2 n=g#5 v=0
25440 On ch=2 n=g#3 v=96
25680 On ch=2 n=g#3 v=0
25920 On ch=2 n=a#3 v=94
26160 On ch=2 n=a#3 v=0
26400 On ch=2 n=g4 v=92
26400 On ch=2 n=d#5 v=92
26832 On ch=2 n=g4 v=0
26832 On ch=2 n=d#5 v=0
26880 On ch=2 n=g4 v=91
26880 On ch=2 n=d#5 v=100
27312 On ch=2 n=g4 v=0
27312 On ch=2 n=d#5 v=0
27360 On ch=2 n=a#3 v=90
27600 On ch=2 n=a#3 v=0
27840 On ch=2 n=f4 v=88
27840 On ch=2 n=d5 v=88
28272 On ch=2 n=f4 v=0
28272 On ch=2 n=d5 v=0
28320 On ch=2 n=a#4 v=86
28320 On ch=2 n=d5 v=86
28752 On ch=2 n=a#4 v=0
28752 On ch=2 n=d5 v=0
28800 On ch=2 n=d#4 v=100
28800 On ch=2 n=a#4 v=100
28800 On ch=2 n=f5 v=100
29232 On ch=2 n=d#4 v=0
29232 On ch=2 n=a#4 v=0
29232 On ch=2 n=f5 v=0
30240 On ch=2 n=a#3 v=94
30480 On ch=2 n=a#3 v=0
30720 On ch=2 n=a#4 v=98
30720 On ch=2 n=g#5 v=98
30720 On ch=2 n=f5 v=94
31152 On ch=2 n=a#4 v=0
31152 On ch=2 n=g#5 v=0
31152 On ch=2 n=f5 v=0
31200 On ch=2 n=a#4 v=98
31200 On ch=2 n=f5 v=98
31200 On ch=2 n=g#5 v=98
31632 On ch=2 n=a#4 v=0
31632 On ch=2 n=f5 v=0
31632 On ch=2 n=g#5 v=0
31680 On ch=2 n=d#4 v=100
31920 On ch=2 n=d#4 v=0
32160 On ch=2 n=a#4 v=95
32160 On ch=2 n=d#5 v=95
32160 On ch=2 n=g5 v=95
32592 On ch=2 n=a#4 v=0
32592 On ch=2 n=d#5 v=0
32592 On ch=2 n=g5 v=0
32640 On ch=2 n=a#4 v=100
32640 On ch=2 n=d#5 v=100
32640 On ch=2 n=g5 v=100
33072 On ch=2 n=a#4 v=0
33072 On ch=2 n=d#5 v=0
33072 On ch=2 n=g5 v=0
33120 On ch=2 n=d4 v=100
33360 On ch=2 n=d4 v=0
33600 On ch=2 n=a#4 v=103
33600 On ch=2 n=f5 v=103
33600 On ch=2 n=g#5 v=103
34032 On ch=2 n=a#4 v=0
34032 On ch=2 n=f5 v=0
34032 On ch=2 n=g#5 v=0
34080 On ch=2 n=a#4 v=108
34080 On ch=2 n=f5 v=108
34080 On ch=2 n=g#5 v=108
34512 On ch=2 n=a#4 v=0
34512 On ch=2 n=f5 v=0
34512 On ch=2 n=g#5 v=0
34560 On ch=2 n=d#4 v=105
34800 On ch=2 n=d#4 v=0
35040 On ch=2 n=a#4 v=100
35040 On ch=2 n=c#5 v=100
35040 On ch=2 n=g5 v=100
35280 On ch=2 n=a#4 v=0
35280 On ch=2 n=c#5 v=0
35280 On ch=2 n=g5 v=0
35520 On ch=2 n=e4 v=95
35995 On ch=2 n=e4 v=0
36000 On ch=2 n=f4 v=80
36240 On ch=2 n=f4 v=0
36480 On ch=2 n=g#4 v=75
36480 On ch=2 n=f5 v=75
36720 On ch=2 n=g#4 v=0
36720 On ch=2 n=f5 v=0
36960 On ch=2 n=g#3 v=75
37200 On ch=2 n=g#3 v=0
37440 On ch=2 n=a#3 v=75
37680 On ch=2 n=a#3 v=0
37920 On ch=2 n=d#5 v=74
37920 On ch=2 n=g4 v=74
38352 On ch=2 n=d#5 v=0
38352 On ch=2 n=g4 v=0
38400 On ch=2 n=g4 v=73
38400 On ch=2 n=d#5 v=73
38832 On ch=2 n=g4 v=0
38832 On ch=2 n=d#5 v=0
38880 On ch=2 n=a#3 v=72
39120 On ch=2 n=a#3 v=0
39360 On ch=2 n=d5 v=71
39360 On ch=2 n=f4 v=71
39792 On ch=2 n=d5 v=0
39792 On ch=2 n=f4 v=0
39840 On ch=2 n=a#4 v=70
39840 On ch=2 n=d5 v=70
40272 On ch=2 n=a#4 v=0
40272 On ch=2 n=d5 v=0
40320 On ch=2 n=d#4 v=69
40800 On ch=2 n=a#4 v=68
40800 On ch=2 n=d#5 v=68
41232 On ch=2 n=a#4 v=0
41232 On ch=2 n=d#5 v=0
41280 On ch=2 n=a#4 v=67
41280 On ch=2 n=d#5 v=75
41616 On ch=2 n=d#4 v=0
41712 On ch=2 n=a#4 v=0
41712 On ch=2 n=d#5 v=0
41760 On ch=2 n=a#3 v=75
42000 On ch=2 n=a#3 v=0
42240 On ch=2 n=a#4 v=80
42240 On ch=2 n=f5 v=80
42240 On ch=2 n=g#5 v=80
42672 On ch=2 n=a#4 v=0
42672 On ch=2 n=f5 v=0
42672 On ch=2 n=g#5 v=0
42720 On ch=2 n=a#4 v=85
42720 On ch=2 n=f5 v=85
42720 On ch=2 n=g#5 v=85
43152 On ch=2 n=a#4 v=0
43152 On ch=2 n=f5 v=0
43152 On ch=2 n=g#5 v=0
43200 On ch=2 n=d#4 v=75
43440 On ch=2 n=d#4 v=0
43680 On ch=2 n=a#4 v=80
43680 On ch=2 n=d#5 v=80
43680 On ch=2 n=g5 v=80
44112 On ch=2 n=a#4 v=0
44112 On ch=2 n=d#5 v=0
44112 On ch=2 n=g5 v=0
44160 On ch=2 n=a#4 v=85
44160 On ch=2 n=d#5 v=85
44160 On ch=2 n=g5 v=85
44592 On ch=2 n=a#4 v=0
44592 On ch=2 n=d#5 v=0
44592 On ch=2 n=g5 v=0
44640 On ch=2 n=d4 v=75
44880 On ch=2 n=d4 v=0
45120 On ch=2 n=a#4 v=80
45120 On ch=2 n=f5 v=80
45120 On ch=2 n=g#5 v=80
45552 On ch=2 n=a#4 v=0
45552 On ch=2 n=f5 v=0
45552 On ch=2 n=g#5 v=0
45600 On ch=2 n=a#4 v=85
45600 On ch=2 n=f5 v=85
45600 On ch=2 n=g#5 v=85
46032 On ch=2 n=a#4 v=0
46032 On ch=2 n=f5 v=0
46032 On ch=2 n=g#5 v=0
46080 On ch=2 n=d#4 v=105
46320 On ch=2 n=d#4 v=0
46560 On ch=2 n=a#4 v=100
46560 On ch=2 n=c#5 v=100
46560 On ch=2 n=g5 v=100
46800 On ch=2 n=a#4 v=0
46800 On ch=2 n=c#5 v=0
46800 On ch=2 n=g5 v=0
47040 On ch=2 n=e4 v=100
47515 On ch=2 n=e4 v=0
47520 On ch=2 n=f4 v=100
47760 On ch=2 n=f4 v=0
48000 On ch=2 n=g#4 v=98
48000 On ch=2 n=g#5 v=98
48240 On ch=2 n=g#4 v=0
48240 On ch=2 n=g#5 v=0
48480 On ch=2 n=g#3 v=96
48720 On ch=2 n=g#3 v=0
48960 On ch=2 n=a#3 v=94
49200 On ch=2 n=a#3 v=0
49440 On ch=2 n=g4 v=92
49440 On ch=2 n=d#5 v=92
49872 On ch=2 n=g4 v=0
49872 On ch=2 n=d#5 v=0
49920 On ch=2 n=g4 v=91
49920 On ch=2 n=d#5 v=100
50352 On ch=2 n=g4 v=0
50352 On ch=2 n=d#5 v=0
50400 On ch=2 n=a#3 v=90
50640 On ch=2 n=a#3 v=0
50880 On ch=2 n=f4 v=88
50880 On ch=2 n=d5 v=88
51312 On ch=2 n=f4 v=0
51312 On ch=2 n=d5 v=0
51360 On ch=2 n=a#4 v=86
51360 On ch=2 n=d5 v=86
51792 On ch=2 n=a#4 v=0
51792 On ch=2 n=d5 v=0
51840 On ch=2 n=d#4 v=100
52320 On ch=2 n=g4 v=100
52320 On ch=2 n=d#5 v=100
52704 On ch=2 n=d#4 v=0
52795 On ch=2 n=g4 v=0
52795 On ch=2 n=d#5 v=0
52800 On ch=2 n=g4 v=100
52800 On ch=2 n=d#4 v=100
52800 On ch=2 n=c#5 v=100
53232 On ch=2 n=g4 v=0
53232 On ch=2 n=d#4 v=0
53232 On ch=2 n=c#5 v=0
53280 On ch=2 n=g#3 v=75
53712 On ch=2 n=g#3 v=0
53760 On ch=2 n=d#4 v=81
53760 On ch=2 n=g#4 v=81
53760 On ch=2 n=c5 v=81
54192 On ch=2 n=d#4 v=0
54192 On ch=2 n=g#4 v=0
54192 On ch=2 n=c5 v=0
54240 On ch=2 n=d#4 v=89
54240 On ch=2 n=g#4 v=89
54240 On ch=2 n=c5 v=89
54672 On ch=2 n=d#4 v=0
54672 On ch=2 n=g#4 v=0
54672 On ch=2 n=c5 v=0
54720 On ch=2 n=g#3 v=89
55152 On ch=2 n=g#3 v=0
55200 On ch=2 n=d#4 v=81
55200 On ch=2 n=g#4 v=81
55200 On ch=2 n=c5 v=75
55632 On ch=2 n=d#4 v=0
55632 On ch=2 n=g#4 v=0
55632 On ch=2 n=c5 v=0
55680 On ch=2 n=d#4 v=75
55680 On ch=2 n=g#4 v=75
55680 On ch=2 n=c5 v=75
56112 On ch=2 n=d#4 v=0
56112 On ch=2 n=g#4 v=0
56112 On ch=2 n=c5 v=0
56160 On ch=2 n=g#3 v=75
56592 On ch=2 n=g#3 v=0
56640 On ch=2 n=a#4 v=75
56640 On ch=2 n=a4 v=75
56640 On ch=2 n=d4 v=75
57072 On ch=2 n=a#4 v=0
57072 On ch=2 n=a4 v=0
57072 On ch=2 n=d4 v=0
57120 On ch=2 n=a#4 v=75
57120 On ch=2 n=a4 v=75
57120 On ch=2 n=d4 v=75
57552 On ch=2 n=a#4 v=0
57552 On ch=2 n=a4 v=0
57552 On ch=2 n=d4 v=0
57600 On ch=2 n=g#3 v=75
58032 On ch=2 n=g#3 v=0
58080 On ch=2 n=d#4 v=76
58080 On ch=2 n=g#4 v=76
58080 On ch=2 n=c5 v=76
58512 On ch=2 n=d#4 v=0
58512 On ch=2 n=g#4 v=0
58512 On ch=2 n=c5 v=0
58560 On ch=2 n=d#4 v=82
58560 On ch=2 n=g#4 v=82
58560 On ch=2 n=c5 v=82
58992 On ch=2 n=d#4 v=0
58992 On ch=2 n=g#4 v=0
58992 On ch=2 n=c5 v=0
59040 On ch=2 n=d4 v=75
59472 On ch=2 n=d4 v=0
59520 On ch=2 n=a4 v=75
59520 On ch=2 n=a#4 v=75
59520 On ch=2 n=f5 v=75
59952 On ch=2 n=a4 v=0
59952 On ch=2 n=a#4 v=0
59952 On ch=2 n=f5 v=0
60000 On ch=2 n=a4 v=75
60000 On ch=2 n=a#4 v=75
60000 On ch=2 n=f5 v=75
60432 On ch=2 n=a4 v=0
60432 On ch=2 n=a#4 v=0
60432 On ch=2 n=f5 v=0
60480 On ch=2 n=d#4 v=75
60912 On ch=2 n=d#4 v=0
60960 On ch=2 n=c5 v=78
60960 On ch=2 n=d#5 v=78
60960 On ch=2 n=g#5 v=78
61392 On ch=2 n=c5 v=0
61392 On ch=2 n=d#5 v=0
61392 On ch=2 n=g#5 v=0
61440 On ch=2 n=c5 v=81
61440 On ch=2 n=d#5 v=81
61440 On ch=2 n=g#5 v=81
61872 On ch=2 n=c5 v=0
61872 On ch=2 n=d#5 v=0
61872 On ch=2 n=g#5 v=0
61920 On ch=2 n=d#4 v=81
62352 On ch=2 n=d#4 v=0
62400 On ch=2 n=c#5 v=78
62400 On ch=2 n=d#5 v=78
62400 On ch=2 n=g5 v=78
62832 On ch=2 n=c#5 v=0
62832 On ch=2 n=d#5 v=0
62832 On ch=2 n=g5 v=0
62880 On ch=2 n=c#5 v=75
62880 On ch=2 n=d#5 v=75
62880 On ch=2 n=g5 v=75
63312 On ch=2 n=c#5 v=0
63312 On ch=2 n=d#5 v=0
63312 On ch=2 n=g5 v=0
63360 On ch=2 n=g#4 v=78
63792 On ch=2 n=g#4 v=0
63840 On ch=2 n=c5 v=75
63840 On ch=2 n=d#5 v=75
63840 On ch=2 n=g#5 v=75
64272 On ch=2 n=c5 v=0
64272 On ch=2 n=d#5 v=0
64272 On ch=2 n=g#5 v=0
64320 On ch=2 n=c5 v=70
64320 On ch=2 n=d#5 v=70
64320 On ch=2 n=g#5 v=70
64752 On ch=2 n=c5 v=0
64752 On ch=2 n=d#5 v=0
64752 On ch=2 n=g#5 v=0
64800 On ch=2 n=g#3 v=75
65232 On ch=2 n=g#3 v=0
65280 On ch=2 n=d#4 v=81
65280 On ch=2 n=g#4 v=81
65280 On ch=2 n=c5 v=81
65712 On ch=2 n=d#4 v=0
65712 On ch=2 n=g#4 v=0
65712 On ch=2 n=c5 v=0
65760 On ch=2 n=d#4 v=89
65760 On ch=2 n=g#4 v=89
65760 On ch=2 n=c5 v=89
66192 On ch=2 n=d#4 v=0
66192 On ch=2 n=g#4 v=0
66192 On ch=2 n=c5 v=0
66240 On ch=2 n=g#3 v=89
66672 On ch=2 n=g#3 v=0
66720 On ch=2 n=d#4 v=81
66720 On ch=2 n=g#4 v=81
66720 On ch=2 n=c5 v=75
67152 On ch=2 n=d#4 v=0
67152 On ch=2 n=g#4 v=0
67152 On ch=2 n=c5 v=0
67200 On ch=2 n=d#4 v=75
67200 On ch=2 n=g#4 v=75
67200 On ch=2 n=c5 v=75
67632 On ch=2 n=d#4 v=0
67632 On ch=2 n=g#4 v=0
67632 On ch=2 n=c5 v=0
67680 On ch=2 n=g#3 v=75
68112 On ch=2 n=g#3 v=0
68160 On ch=2 n=a#4 v=75
68160 On ch=2 n=a4 v=75
68160 On ch=2 n=d4 v=75
68592 On ch=2 n=a#4 v=0
68592 On ch=2 n=a4 v=0
68592 On ch=2 n=d4 v=0
68640 On ch=2 n=a#4 v=75
68640 On ch=2 n=a4 v=75
68640 On ch=2 n=d4 v=75
69072 On ch=2 n=a#4 v=0
69072 On ch=2 n=a4 v=0
69072 On ch=2 n=d4 v=0
69120 On ch=2 n=g#3 v=75
69552 On ch=2 n=g#3 v=0
69600 On ch=2 n=d#4 v=76
69600 On ch=2 n=g#4 v=76
69600 On ch=2 n=c5 v=76
70032 On ch=2 n=d#4 v=0
70032 On ch=2 n=g#4 v=0
70032 On ch=2 n=c5 v=0
70080 On ch=2 n=d#4 v=82
70080 On ch=2 n=g#4 v=82
70080 On ch=2 n=c5 v=82
70512 On ch=2 n=d#4 v=0
70512 On ch=2 n=g#4 v=0
70512 On ch=2 n=c5 v=0
70560 On ch=2 n=d4 v=75
70992 On ch=2 n=d4 v=0
71040 On ch=2 n=a4 v=75
71040 On ch=2 n=a#4 v=75
71040 On ch=2 n=f5 v=75
71472 On ch=2 n=a4 v=0
71472 On ch=2 n=a#4 v=0
71472 On ch=2 n=f5 v=0
71520 On ch=2 n=a4 v=75
71520 On ch=2 n=a#4 v=75
71520 On ch=2 n=f5 v=75
71952 On ch=2 n=a4 v=0
71952 On ch=2 n=a#4 v=0
71952 On ch=2 n=f5 v=0
72000 On ch=2 n=d#4 v=75
72432 On ch=2 n=d#4 v=0
72480 On ch=2 n=c5 v=78
72480 On ch=2 n=d#5 v=78
72480 On ch=2 n=g#5 v=78
72912 On ch=2 n=c5 v=0
72912 On ch=2 n=d#5 v=0
72912 On ch=2 n=g#5 v=0
72960 On ch=2 n=c5 v=81
72960 On ch=2 n=d#5 v=81
72960 On ch=2 n=g#5 v=81
73392 On ch=2 n=c5 v=0
73392 On ch=2 n=d#5 v=0
73392 On ch=2 n=g#5 v=0
73440 On ch=2 n=d#4 v=81
73872 On ch=2 n=d#4 v=0
73920 On ch=2 n=c#5 v=78
73920 On ch=2 n=d#5 v=78
73920 On ch=2 n=g5 v=78
74352 On ch=2 n=c#5 v=0
74352 On ch=2 n=d#5 v=0
74352 On ch=2 n=g5 v=0
74400 On ch=2 n=c#5 v=75
74400 On ch=2 n=d#5 v=75
74400 On ch=2 n=g5 v=75
74832 On ch=2 n=c#5 v=0
74832 On ch=2 n=d#5 v=0
74832 On ch=2 n=g5 v=0
74880 On ch=2 n=g#4 v=100
75360 On ch=2 n=c5 v=87
75360 On ch=2 n=g#5 v=87
75835 On ch=2 n=c5 v=0
75835 On ch=2 n=g#5 v=0
75840 On ch=2 n=f5 v=91
75840 On ch=2 n=g#5 v=91
76176 On ch=2 n=g#4 v=0
76272 On ch=2 n=f5 v=0
76272 On ch=2 n=g#5 v=0
76320 On ch=2 n=a#3 v=100
76320 On ch=2 n=a#4 v=100
76752 On ch=2 n=a#3 v=0
76752 On ch=2 n=a#4 v=0
76800 On ch=2 n=a#4 v=100
76800 On ch=2 n=f5 v=100
76800 On ch=2 n=g#5 v=100
77232 On ch=2 n=a#4 v=0
77232 On ch=2 n=f5 v=0
77232 On ch=2 n=g#5 v=0
77280 On ch=2 n=a#4 v=100
77280 On ch=2 n=f5 v=100
77280 On ch=2 n=g#5 v=100
77712 On ch=2 n=a#4 v=0
77712 On ch=2 n=f5 v=0
77712 On ch=2 n=g#5 v=0
77760 On ch=2 n=d#4 v=100
78192 On ch=2 n=d#4 v=0
78240 On ch=2 n=a#4 v=100
78240 On ch=2 n=d#5 v=100
78240 On ch=2 n=g5 v=100
78672 On ch=2 n=a#4 v=0
78672 On ch=2 n=d#5 v=0
78672 On ch=2 n=g5 v=0
78720 On ch=2 n=a#4 v=100
78720 On ch=2 n=d#5 v=100
78720 On ch=2 n=g5 v=100
79152 On ch=2 n=a#4 v=0
79152 On ch=2 n=d#5 v=0
79152 On ch=2 n=g5 v=0
79200 On ch=2 n=d4 v=100
79632 On ch=2 n=d4 v=0
79680 On ch=2 n=a#4 v=100
79680 On ch=2 n=f5 v=100
79680 On ch=2 n=g#5 v=100
80112 On ch=2 n=a#4 v=0
80112 On ch=2 n=f5 v=0
80112 On ch=2 n=g#5 v=0
80160 On ch=2 n=a#4 v=100
80160 On ch=2 n=f5 v=100
80160 On ch=2 n=g#5 v=100
80592 On ch=2 n=a#4 v=0
80592 On ch=2 n=f5 v=0
80592 On ch=2 n=g#5 v=0
80640 On ch=2 n=d#4 v=105
80880 On ch=2 n=d#4 v=0
81120 On ch=2 n=a#4 v=103
81120 On ch=2 n=g5 v=103
81120 On ch=2 n=c#5 v=103
81360 On ch=2 n=a#4 v=0
81360 On ch=2 n=g5 v=0
81360 On ch=2 n=c#5 v=0
81600 On ch=2 n=d#4 v=101
82075 On ch=2 n=d#4 v=0
82080 On ch=2 n=f4 v=99
82320 On ch=2 n=f4 v=0
82560 On ch=2 n=g#4 v=97
82560 On ch=2 n=f5 v=95
82800 On ch=2 n=g#4 v=0
82800 On ch=2 n=f5 v=0
83040 On ch=2 n=g#3 v=95
83280 On ch=2 n=g#3 v=0
83520 On ch=2 n=a#3 v=94
83760 On ch=2 n=a#3 v=0
84000 On ch=2 n=d#5 v=93
84000 On ch=2 n=g4 v=93
84432 On ch=2 n=d#5 v=0
84432 On ch=2 n=g4 v=0
84480 On ch=2 n=g4 v=92
84480 On ch=2 n=d#5 v=92
84912 On ch=2 n=g4 v=0
84912 On ch=2 n=d#5 v=0
84960 On ch=2 n=a#3 v=91
85200 On ch=2 n=a#3 v=0
85440 On ch=2 n=d5 v=90
85440 On ch=2 n=f4 v=90
85872 On ch=2 n=d5 v=0
85872 On ch=2 n=f4 v=0
85920 On ch=2 n=a#4 v=89
85920 On ch=2 n=d5 v=89
86352 On ch=2 n=a#4 v=0
86352 On ch=2 n=d5 v=0
86400 On ch=2 n=d#4 v=88
86880 On ch=2 n=a#4 v=87
86880 On ch=2 n=d#5 v=87
87312 On ch=2 n=a#4 v=0
87312 On ch=2 n=d#5 v=0
87360 On ch=2 n=a#4 v=86
87360 On ch=2 n=d#5 v=75
87696 On ch=2 n=d#4 v=0
87792 On ch=2 n=a#4 v=0
87792 On ch=2 n=d#5 v=0
87840 On ch=2 n=a#3 v=80
88080 On ch=2 n=a#3 v=0
88320 On ch=2 n=a#4 v=85
88320 On ch=2 n=f5 v=85
88320 On ch=2 n=g#5 v=85
88752 On ch=2 n=a#4 v=0
88752 On ch=2 n=f5 v=0
88752 On ch=2 n=g#5 v=0
88800 On ch=2 n=a#4 v=95
88800 On ch=2 n=f5 v=95
88800 On ch=2 n=g#5 v=95
89232 On ch=2 n=a#4 v=0
89232 On ch=2 n=f5 v=0
89232 On ch=2 n=g#5 v=0
89280 On ch=2 n=d#4 v=80
89520 On ch=2 n=d#4 v=0
89760 On ch=2 n=a#4 v=85
89760 On ch=2 n=d#5 v=85
89760 On ch=2 n=g5 v=85
90192 On ch=2 n=a#4 v=0
90192 On ch=2 n=d#5 v=0
90192 On ch=2 n=g5 v=0
90240 On ch=2 n=a#4 v=95
90240 On ch=2 n=d#5 v=95
90240 On ch=2 n=g5 v=95
90672 On ch=2 n=a#4 v=0
90672 On ch=2 n=d#5 v=0
90672 On ch=2 n=g5 v=0
90720 On ch=2 n=d4 v=87
90960 On ch=2 n=d4 v=0
91200 On ch=2 n=a#4 v=93
91200 On ch=2 n=f5 v=93
91200 On ch=2 n=g#5 v=93
91632 On ch=2 n=a#4 v=0
91632 On ch=2 n=f5 v=0
91632 On ch=2 n=g#5 v=0
91680 On ch=2 n=a#4 v=100
91680 On ch=2 n=f5 v=100
91680 On ch=2 n=g#5 v=100
92112 On ch=2 n=a#4 v=0
92112 On ch=2 n=f5 v=0
92112 On ch=2 n=g#5 v=0
92160 On ch=2 n=d#4 v=105
92400 On ch=2 n=d#4 v=0
92640 On ch=2 n=a#4 v=100
92640 On ch=2 n=c#5 v=100
92640 On ch=2 n=g5 v=100
92880 On ch=2 n=a#4 v=0
92880 On ch=2 n=c#5 v=0
92880 On ch=2 n=g5 v=0
93120 On ch=2 n=e4 v=100
93595 On ch=2 n=e4 v=0
93600 On ch=2 n=f4 v=100
93840 On ch=2 n=f4 v=0
94080 On ch=2 n=g#4 v=98
94080 On ch=2 n=g#5 v=98
94320 On ch=2 n=g#4 v=0
94320 On ch=2 n=g#5 v=0
94560 On ch=2 n=g#3 v=96
94800 On ch=2 n=g#3 v=0
95040 On ch=2 n=a#3 v=94
95280 On ch=2 n=a#3 v=0
95520 On ch=2 n=g4 v=92
95520 On ch=2 n=d#5 v=92
95952 On ch=2 n=g4 v=0
95952 On ch=2 n=d#5 v=0
96000 On ch=2 n=g4 v=91
96000 On ch=2 n=d#5 v=91
96432 On ch=2 n=g4 v=0
96432 On ch=2 n=d#5 v=0
96480 On ch=2 n=a#3 v=90
96720 On ch=2 n=a#3 v=0
96960 On ch=2 n=f4 v=88
96960 On ch=2 n=d5 v=88
97392 On ch=2 n=f4 v=0
97392 On ch=2 n=d5 v=0
97440 On ch=2 n=a#4 v=85
97440 On ch=2 n=d5 v=85
97915 On ch=2 n=a#4 v=0
97915 On ch=2 n=d5 v=0
97920 On ch=2 n=d#4 v=85
97920 On ch=2 n=a#4 v=85
97920 On ch=2 n=d#5 v=101
98352 On ch=2 n=d#4 v=0
98352 On ch=2 n=a#4 v=0
98352 On ch=2 n=d#5 v=0
98880 On ch=2 n=g4 v=75
98880 On ch=2 n=d#4 v=75
98880 On ch=2 n=c#5 v=75
99312 On ch=2 n=g4 v=0
99312 On ch=2 n=d#4 v=0
99312 On ch=2 n=c#5 v=0
99360 On ch=2 n=g#3 v=75
99792 On ch=2 n=g#3 v=0
99840 On ch=2 n=d#4 v=81
99840 On ch=2 n=g#4 v=81
99840 On ch=2 n=c5 v=81
100272 On ch=2 n=d#4 v=0
100272 On ch=2 n=g#4 v=0
100272 On ch=2 n=c5 v=0
100320 On ch=2 n=d#4 v=89
100320 On ch=2 n=g#4 v=89
100320 On ch=2 n=c5 v=89
100752 On ch=2 n=d#4 v=0
100752 On ch=2 n=g#4 v=0
100752 On ch=2 n=c5 v=0
100800 On ch=2 n=g#3 v=89
101232 On ch=2 n=g#3 v=0
101280 On ch=2 n=d#4 v=81
101280 On ch=2 n=g#4 v=81
101280 On ch=2 n=c5 v=75
101712 On ch=2 n=d#4 v=0
101712 On ch=2 n=g#4 v=0
101712 On ch=2 n=c5 v=0
101760 On ch=2 n=d#4 v=75
101760 On ch=2 n=g#4 v=75
101760 On ch=2 n=c5 v=75
102192 On ch=2 n=d#4 v=0
102192 On ch=2 n=g#4 v=0
102192 On ch=2 n=c5 v=0
102240 On ch=2 n=g#3 v=75
102672 On ch=2 n=g#3 v=0
102720 On ch=2 n=a#4 v=75
102720 On ch=2 n=a4 v=75
102720 On ch=2 n=d4 v=75
103152 On ch=2 n=a#4 v=0
103152 On ch=2 n=a4 v=0
103152 On ch=2 n=d4 v=0
103200 On ch=2 n=a#4 v=75
103200 On ch=2 n=a4 v=75
103200 On ch=2 n=d4 v=75
103632 On ch=2 n=a#4 v=0
103632 On ch=2 n=a4 v=0
103632 On ch=2 n=d4 v=0
103680 On ch=2 n=g#3 v=75
104112 On ch=2 n=g#3 v=0
104160 On ch=2 n=d#4 v=76
104160 On ch=2 n=g#4 v=76
104160 On ch=2 n=c5 v=76
104592 On ch=2 n=d#4 v=0
104592 On ch=2 n=g#4 v=0
104592 On ch=2 n=c5 v=0
104640 On ch=2 n=d#4 v=82
104640 On ch=2 n=g#4 v=82
104640 On ch=2 n=c5 v=82
105072 On ch=2 n=d#4 v=0
105072 On ch=2 n=g#4 v=0
105072 On ch=2 n=c5 v=0
105120 On ch=2 n=d4 v=75
105552 On ch=2 n=d4 v=0
105600 On ch=2 n=a4 v=75
105600 On ch=2 n=a#4 v=75
105600 On ch=2 n=f5 v=75
106032 On ch=2 n=a4 v=0
106032 On ch=2 n=a#4 v=0
106032 On ch=2 n=f5 v=0
106080 On ch=2 n=a4 v=75
106080 On ch=2 n=a#4 v=75
106080 On ch=2 n=f5 v=75
106512 On ch=2 n=a4 v=0
106512 On ch=2 n=a#4 v=0
106512 On ch=2 n=f5 v=0
106560 On ch=2 n=d#4 v=75
106992 On ch=2 n=d#4 v=0
107040 On ch=2 n=c5 v=80
107040 On ch=2 n=d#5 v=80
107040 On ch=2 n=g#5 v=80
107472 On ch=2 n=c5 v=0
107472 On ch=2 n=d#5 v=0
107472 On ch=2 n=g#5 v=0
107520 On ch=2 n=c5 v=85
107520 On ch=2 n=d#5 v=81
107520 On ch=2 n=g#5 v=85
107952 On ch=2 n=c5 v=0
107952 On ch=2 n=d#5 v=0
107952 On ch=2 n=g#5 v=0
108000 On ch=2 n=d#4 v=81
108432 On ch=2 n=d#4 v=0
108480 On ch=2 n=c#5 v=78
108480 On ch=2 n=d#5 v=78
108480 On ch=2 n=g5 v=78
108912 On ch=2 n=c#5 v=0
108912 On ch=2 n=d#5 v=0
108912 On ch=2 n=g5 v=0
108960 On ch=2 n=c#5 v=75
108960 On ch=2 n=d#5 v=75
108960 On ch=2 n=g5 v=75
109392 On ch=2 n=c#5 v=0
109392 On ch=2 n=d#5 v=0
109392 On ch=2 n=g5 v=0
109440 On ch=2 n=g#4 v=78
109872 On ch=2 n=g#4 v=0
109920 On ch=2 n=c5 v=75
109920 On ch=2 n=d#5 v=75
109920 On ch=2 n=g#5 v=75
110352 On ch=2 n=c5 v=0
110352 On ch=2 n=d#5 v=0
110352 On ch=2 n=g#5 v=0
110400 On ch=2 n=c5 v=70
110400 On ch=2 n=d#5 v=70
110400 On ch=2 n=g#5 v=70
110832 On ch=2 n=c5 v=0
110832 On ch=2 n=d#5 v=0
110832 On ch=2 n=g#5 v=0
110880 On ch=2 n=g#3 v=75
111312 On ch=2 n=g#3 v=0
111360 On ch=2 n=d#4 v=81
111360 On ch=2 n=g#4 v=81
111360 On ch=2 n=c5 v=81
111792 On ch=2 n=d#4 v=0
111792 On ch=2 n=g#4 v=0
111792 On ch=2 n=c5 v=0
111840 On ch=2 n=d#4 v=89
111840 On ch=2 n=g#4 v=89
111840 On ch=2 n=c5 v=89
112272 On ch=2 n=d#4 v=0
112272 On ch=2 n=g#4 v=0
112272 On ch=2 n=c5 v=0
112320 On ch=2 n=g#3 v=89
112752 On ch=2 n=g#3 v=0
112800 On ch=2 n=d#4 v=81
112800 On ch=2 n=g#4 v=81
112800 On ch=2 n=c5 v=75
113232 On ch=2 n=d#4 v=0
113232 On ch=2 n=g#4 v=0
113232 On ch=2 n=c5 v=0
113280 On ch=2 n=d#4 v=75
113280 On ch=2 n=g#4 v=75
113280 On ch=2 n=c5 v=75
113712 On ch=2 n=d#4 v=0
113712 On ch=2 n=g#4 v=0
113712 On ch=2 n=c5 v=0
113760 On ch=2 n=g#3 v=75
114192 On ch=2 n=g#3 v=0
114240 On ch=2 n=a#4 v=75
114240 On ch=2 n=a4 v=75
114240 On ch=2 n=d4 v=75
114672 On ch=2 n=a#4 v=0
114672 On ch=2 n=a4 v=0
114672 On ch=2 n=d4 v=0
114720 On ch=2 n=a#4 v=75
114720 On ch=2 n=a4 v=75
114720 On ch=2 n=d4 v=75
115152 On ch=2 n=a#4 v=0
115152 On ch=2 n=a4 v=0
115152 On ch=2 n=d4 v=0
115200 On ch=2 n=g#3 v=75
115632 On ch=2 n=g#3 v=0
115680 On ch=2 n=d#4 v=76
115680 On ch=2 n=g#4 v=76
115680 On ch=2 n=c5 v=76
116112 On ch=2 n=d#4 v=0
116112 On ch=2 n=g#4 v=0
116112 On ch=2 n=c5 v=0
116160 On ch=2 n=d#4 v=82
116160 On ch=2 n=g#4 v=82
116160 On ch=2 n=c5 v=82
116592 On ch=2 n=d#4 v=0
116592 On ch=2 n=g#4 v=0
116592 On ch=2 n=c5 v=0
116640 On ch=2 n=d4 v=75
117072 On ch=2 n=d4 v=0
117120 On ch=2 n=a4 v=75
117120 On ch=2 n=a#4 v=75
117120 On ch=2 n=f5 v=75
117552 On ch=2 n=a4 v=0
117552 On ch=2 n=a#4 v=0
117552 On ch=2 n=f5 v=0
117600 On ch=2 n=a4 v=75
117600 On ch=2 n=a#4 v=75
117600 On ch=2 n=f5 v=75
118032 On ch=2 n=a4 v=0
118032 On ch=2 n=a#4 v=0
118032 On ch=2 n=f5 v=0
118080 On ch=2 n=d#4 v=75
118560 On ch=2 n=g#4 v=80
118560 On ch=2 n=c5 v=80
118560 On ch=2 n=d#5 v=80
118992 On ch=2 n=g#4 v=0
118992 On ch=2 n=c5 v=0
118992 On ch=2 n=d#5 v=0
119040 On ch=2 n=g#4 v=85
119040 On ch=2 n=c5 v=85
119040 On ch=2 n=d#5 v=85
119376 On ch=2 n=d#4 v=0
119472 On ch=2 n=g#4 v=0
119472 On ch=2 n=c5 v=0
119472 On ch=2 n=d#5 v=0
119520 On ch=2 n=d#4 v=85
120000 On ch=2 n=a#4 v=80
120000 On ch=2 n=d#5 v=80
120000 On ch=2 n=c#5 v=80
120432 On ch=2 n=a#4 v=0
120432 On ch=2 n=d#5 v=0
120432 On ch=2 n=c#5 v=0
120480 On ch=2 n=a#4 v=75
120480 On ch=2 n=d#5 v=75
120480 On ch=2 n=c#5 v=75
120816 On ch=2 n=d#4 v=0
120912 On ch=2 n=a#4 v=0
120912 On ch=2 n=d#5 v=0
120912 On ch=2 n=c#5 v=0
120960 On ch=2 n=g#3 v=75
121435 On ch=2 n=g#3 v=0
121440 On ch=2 n=c5 v=75
121440 On ch=2 n=d#4 v=75
121872 On ch=2 n=c5 v=0
121872 On ch=2 n=d#4 v=0
122400 On ch=2 n=g#3 v=90
122640 On ch=2 n=g#3 v=0
122880 On ch=2 n=c5 v=90
122880 On ch=2 n=d#4 v=90
123355 On ch=2 n=c5 v=0
123355 On ch=2 n=d#4 v=0
123360 On ch=2 n=f#5 v=90
123360 On ch=2 n=g#4 v=90
123792 On ch=2 n=f#5 v=0
123792 On ch=2 n=g#4 v=0
123840 On ch=2 n=g#3 v=90
124080 On ch=2 n=g#3 v=0
124320 On ch=2 n=c5 v=90
124320 On ch=2 n=d#4 v=90
124795 On ch=2 n=c5 v=0
124795 On ch=2 n=d#4 v=0
124800 On ch=2 n=f#5 v=90
124800 On ch=2 n=g#4 v=90
125232 On ch=2 n=f#5 v=0
125232 On ch=2 n=g#4 v=0
125280 On ch=2 n=c#4 v=90
125520 On ch=2 n=c#4 v=0
125760 On ch=2 n=f4 v=90
125760 On ch=2 n=c#5 v=90
126235 On ch=2 n=f4 v=0
126235 On ch=2 n=c#5 v=0
126240 On ch=2 n=f5 v=90
126240 On ch=2 n=g#4 v=90
126672 On ch=2 n=f5 v=0
126672 On ch=2 n=g#4 v=0
126720 On ch=2 n=c#4 v=90
126960 On ch=2 n=c#4 v=0
127200 On ch=2 n=f4 v=90
127200 On ch=2 n=c#5 v=90
127675 On ch=2 n=f4 v=0
127675 On ch=2 n=c#5 v=0
127680 On ch=2 n=f5 v=90
127680 On ch=2 n=g#4 v=90
128112 On ch=2 n=f5 v=0
128112 On ch=2 n=g#4 v=0
128160 On ch=2 n=g#3 v=90
128400 On ch=2 n=g#3 v=0
128640 On ch=2 n=c5 v=90
128640 On ch=2 n=d#4 v=90
129115 On ch=2 n=c5 v=0
129115 On ch=2 n=d#4 v=0
129120 On ch=2 n=f#5 v=90
129120 On ch=2 n=g#4 v=90
129552 On ch=2 n=f#5 v=0
129552 On ch=2 n=g#4 v=0
129600 On ch=2 n=g#3 v=90
129840 On ch=2 n=g#3 v=0
130080 On ch=2 n=c5 v=90
130080 On ch=2 n=d#4 v=90
130555 On ch=2 n=c5 v=0
130555 On ch=2 n=d#4 v=0
130560 On ch=2 n=f#5 v=90
130560 On ch=2 n=g#4 v=90
130992 On ch=2 n=f#5 v=0
130992 On ch=2 n=g#4 v=0
131040 On ch=2 n=c#4 v=90
131520 On ch=2 n=g#4 v=85
131995 On ch=2 n=g#4 v=0
132000 On ch=2 n=c5 v=90
132336 On ch=2 n=c#4 v=0
132475 On ch=2 n=c5 v=0
132480 On ch=2 n=c#5 v=90
132480 On ch=2 n=c#4 v=90
132720 On ch=2 n=c#5 v=0
132720 On ch=2 n=c#4 v=0
132960 On ch=2 n=c#5 v=90
132960 On ch=2 n=f4 v=90
133435 On ch=2 n=c#5 v=0
133435 On ch=2 n=f4 v=0
133440 On ch=2 n=f5 v=90
133440 On ch=2 n=g#4 v=90
133872 On ch=2 n=f5 v=0
133872 On ch=2 n=g#4 v=0
133920 On ch=2 n=g#3 v=90
134160 On ch=2 n=g#3 v=0
134400 On ch=2 n=c5 v=90
134400 On ch=2 n=d#4 v=90
134875 On ch=2 n=c5 v=0
134875 On ch=2 n=d#4 v=0
134880 On ch=2 n=f#5 v=90
134880 On ch=2 n=g#4 v=90
135312 On ch=2 n=f#5 v=0
135312 On ch=2 n=g#4 v=0
135360 On ch=2 n=g#3 v=90
135600 On ch=2 n=g#3 v=0
135840 On ch=2 n=c5 v=90
135840 On ch=2 n=d#4 v=90
136315 On ch=2 n=c5 v=0
136315 On ch=2 n=d#4 v=0
136320 On ch=2 n=f#5 v=90
136320 On ch=2 n=g#4 v=90
136752 On ch=2 n=f#5 v=0
136752 On ch=2 n=g#4 v=0
136800 On ch=2 n=c#4 v=90
137040 On ch=2 n=c#4 v=0
137280 On ch=2 n=f4 v=90
137280 On ch=2 n=c#5 v=90
137755 On ch=2 n=f4 v=0
137755 On ch=2 n=c#5 v=0
137760 On ch=2 n=f5 v=90
137760 On ch=2 n=g#4 v=90
138192 On ch=2 n=f5 v=0
138192 On ch=2 n=g#4 v=0
138240 On ch=2 n=c#4 v=90
138480 On ch=2 n=c#4 v=0
138720 On ch=2 n=f4 v=90
138720 On ch=2 n=c#5 v=90
139195 On ch=2 n=f4 v=0
139195 On ch=2 n=c#5 v=0
139200 On ch=2 n=f5 v=90
139200 On ch=2 n=g#4 v=90
139632 On ch=2 n=f5 v=0
139632 On ch=2 n=g#4 v=0
139680 On ch=2 n=f#3 v=90
139920 On ch=2 n=f#3 v=0
140160 On ch=2 n=f#4 v=90
140160 On ch=2 n=d5 v=90
140635 On ch=2 n=f#4 v=0
140635 On ch=2 n=d5 v=0
140640 On ch=2 n=a#4 v=90
140640 On ch=2 n=d#5 v=90
141072 On ch=2 n=a#4 v=0
141072 On ch=2 n=d#5 v=0
141120 On ch=2 n=g#3 v=90
141360 On ch=2 n=g#3 v=0
141600 On ch=2 n=f4 v=90
141600 On ch=2 n=c5 v=90
142075 On ch=2 n=f4 v=0
142075 On ch=2 n=c5 v=0
142080 On ch=2 n=c#5 v=90
142080 On ch=2 n=g#4 v=90
142512 On ch=2 n=c#5 v=0
142512 On ch=2 n=g#4 v=0
142560 On ch=2 n=g#3 v=90
142800 On ch=2 n=g#3 v=0
143040 On ch=2 n=c5 v=90
143040 On ch=2 n=g#4 v=90
143040 On ch=2 n=d#4 v=90
143472 On ch=2 n=c5 v=0
143472 On ch=2 n=g#4 v=0
143472 On ch=2 n=d#4 v=0
143520 On ch=2 n=c5 v=90
143520 On ch=2 n=g#4 v=90
143520 On ch=2 n=d#4 v=90
143952 On ch=2 n=c5 v=0
143952 On ch=2 n=g#4 v=0
143952 On ch=2 n=d#4 v=0
144000 On ch=2 n=c#5 v=100
144000 On ch=2 n=g#4 v=100
144000 On ch=2 n=c#4 v=100
144432 On ch=2 n=c#5 v=0
144432 On ch=2 n=g#4 v=0
144432 On ch=2 n=c#4 v=0
145440 On ch=2 n=g#3 v=90
145680 On ch=2 n=g#3 v=0
145920 On ch=2 n=c5 v=90
145920 On ch=2 n=d#4 v=90
146395 On ch=2 n=c5 v=0
146395 On ch=2 n=d#4 v=0
146400 On ch=2 n=f#5 v=90
146400 On ch=2 n=g#4 v=90
146832 On ch=2 n=f#5 v=0
146832 On ch=2 n=g#4 v=0
146880 On ch=2 n=g#3 v=90
147120 On ch=2 n=g#3 v=0
147360 On ch=2 n=c5 v=90
147360 On ch=2 n=d#4 v=90
147835 On ch=2 n=c5 v=0
147835 On ch=2 n=d#4 v=0
147840 On ch=2 n=f#5 v=90
147840 On ch=2 n=g#4 v=90
148272 On ch=2 n=f#5 v=0
148272 On ch=2 n=g#4 v=0
148320 On ch=2 n=c#4 v=90
148560 On ch=2 n=c#4 v=0
148800 On ch=2 n=f4 v=90
148800 On ch=2 n=c#5 v=90
149275 On ch=2 n=f4 v=0
149275 On ch=2 n=c#5 v=0
149280 On ch=2 n=f5 v=90
149280 On ch=2 n=g#4 v=90
149712 On ch=2 n=f5 v=0
149712 On ch=2 n=g#4 v=0
149760 On ch=2 n=c#4 v=90
150000 On ch=2 n=c#4 v=0
150240 On ch=2 n=f4 v=90
150240 On ch=2 n=c#5 v=90
150715 On ch=2 n=f4 v=0
150715 On ch=2 n=c#5 v=0
150720 On ch=2 n=f5 v=90
150720 On ch=2 n=g#4 v=90
151152 On ch=2 n=f5 v=0
151152 On ch=2 n=g#4 v=0
151200 On ch=2 n=g#3 v=90
151440 On ch=2 n=g#3 v=0
151680 On ch=2 n=c5 v=90
151680 On ch=2 n=d#4 v=90
152155 On ch=2 n=c5 v=0
152155 On ch=2 n=d#4 v=0
152160 On ch=2 n=f#5 v=90
152160 On ch=2 n=g#4 v=90
152592 On ch=2 n=f#5 v=0
152592 On ch=2 n=g#4 v=0
152640 On ch=2 n=g#3 v=90
152880 On ch=2 n=g#3 v=0
153120 On ch=2 n=c5 v=90
153120 On ch=2 n=d#4 v=90
153595 On ch=2 n=c5 v=0
153595 On ch=2 n=d#4 v=0
153600 On ch=2 n=f#5 v=90
153600 On ch=2 n=g#4 v=90
154032 On ch=2 n=f#5 v=0
154032 On ch=2 n=g#4 v=0
154080 On ch=2 n=c#4 v=90
154560 On ch=2 n=g#4 v=85
155035 On ch=2 n=g#4 v=0
155040 On ch=2 n=c5 v=90
155376 On ch=2 n=c#4 v=0
155515 On ch=2 n=c5 v=0
155520 On ch=2 n=c#5 v=90
155520 On ch=2 n=c#4 v=90
155760 On ch=2 n=c#5 v=0
155760 On ch=2 n=c#4 v=0
156000 On ch=2 n=c#5 v=90
156000 On ch=2 n=f4 v=90
156475 On ch=2 n=c#5 v=0
156475 On ch=2 n=f4 v=0
156480 On ch=2 n=f5 v=90
156480 On ch=2 n=g#4 v=90
156912 On ch=2 n=f5 v=0
156912 On ch=2 n=g#4 v=0
156960 On ch=2 n=g#3 v=90
157200 On ch=2 n=g#3 v=0
157440 On ch=2 n=c5 v=90
157440 On ch=2 n=d#4 v=90
157915 On ch=2 n=c5 v=0
157915 On ch=2 n=d#4 v=0
157920 On ch=2 n=f#5 v=90
157920 On ch=2 n=g#4 v=90
158352 On ch=2 n=f#5 v=0
158352 On ch=2 n=g#4 v=0
158400 On ch=2 n=g#3 v=90
158640 On ch=2 n=g#3 v=0
158880 On ch=2 n=c5 v=90
158880 On ch=2 n=d#4 v=90
159355 On ch=2 n=c5 v=0
159355 On ch=2 n=d#4 v=0
159360 On ch=2 n=f#5 v=90
159360 On ch=2 n=g#4 v=90
159792 On ch=2 n=f#5 v=0
159792 On ch=2 n=g#4 v=0
159840 On ch=2 n=c#4 v=90
160080 On ch=2 n=c#4 v=0
160320 On ch=2 n=f4 v=90
160320 On ch=2 n=c#5 v=90
160795 On ch=2 n=f4 v=0
160795 On ch=2 n=c#5 v=0
160800 On ch=2 n=f5 v=90
160800 On ch=2 n=g#4 v=90
161232 On ch=2 n=f5 v=0
161232 On ch=2 n=g#4 v=0
161280 On ch=2 n=c#4 v=90
161520 On ch=2 n=c#4 v=0
161760 On ch=2 n=f4 v=90
161760 On ch=2 n=c#5 v=90
162235 On ch=2 n=f4 v=0
162235 On ch=2 n=c#5 v=0
162240 On ch=2 n=f5 v=90
162240 On ch=2 n=g#4 v=90
162672 On ch=2 n=f5 v=0
162672 On ch=2 n=g#4 v=0
162720 On ch=2 n=f#3 v=90
162960 On ch=2 n=f#3 v=0
163200 On ch=2 n=f#4 v=90
163200 On ch=2 n=d5 v=90
163675 On ch=2 n=f#4 v=0
163675 On ch=2 n=d5 v=0
163680 On ch=2 n=a#4 v=90
163680 On ch=2 n=d#5 v=90
164112 On ch=2 n=a#4 v=0
164112 On ch=2 n=d#5 v=0
164160 On ch=2 n=g#3 v=90
164400 On ch=2 n=g#3 v=0
164640 On ch=2 n=f4 v=90
164640 On ch=2 n=c5 v=90
165115 On ch=2 n=f4 v=0
165115 On ch=2 n=c5 v=0
165120 On ch=2 n=c#5 v=90
165120 On ch=2 n=g#4 v=90
165552 On ch=2 n=c#5 v=0
165552 On ch=2 n=g#4 v=0
165600 On ch=2 n=g#3 v=90
165840 On ch=2 n=g#3 v=0
166080 On ch=2 n=c5 v=90
166080 On ch=2 n=g#4 v=90
166080 On ch=2 n=d#4 v=90
166512 On ch=2 n=c5 v=0
166512 On ch=2 n=g#4 v=0
166512 On ch=2 n=d#4 v=0
166560 On ch=2 n=c5 v=90
166560 On ch=2 n=g#4 v=90
166560 On ch=2 n=d#4 v=90
166992 On ch=2 n=c5 v=0
166992 On ch=2 n=g#4 v=0
166992 On ch=2 n=d#4 v=0
167040 On ch=2 n=c#4 v=90
167040 On ch=2 n=g#4 v=90
167040 On ch=2 n=c#5 v=90
167472 On ch=2 n=c#4 v=0
167472 On ch=2 n=g#4 v=0
167472 On ch=2 n=c#5 v=0
168000 On ch=2 n=c#5 v=110
168000 On ch=2 n=g#4 v=110
168000 On ch=2 n=c#4 v=110
168432 On ch=2 n=c#5 v=0
168432 On ch=2 n=g#4 v=0
168432 On ch=2 n=c#4 v=0
168480 On ch=2 n=c#5 v=110
168480 On ch=2 n=a#4 v=110
168480 On ch=2 n=d#4 v=110
168912 On ch=2 n=c#5 v=0
168912 On ch=2 n=a#4 v=0
168912 On ch=2 n=d#4 v=0
169440 On ch=2 n=c#5 v=110
169440 On ch=2 n=a#4 v=110
169440 On ch=2 n=d#4 v=110
169872 On ch=2 n=c#5 v=0
169872 On ch=2 n=a#4 v=0
169872 On ch=2 n=d#4 v=0
169920 On ch=2 n=c#5 v=110
169920 On ch=2 n=a#4 v=110
169920 On ch=2 n=d#4 v=110
170352 On ch=2 n=c#5 v=0
170352 On ch=2 n=a#4 v=0
170352 On ch=2 n=d#4 v=0
170880 On ch=2 n=c#5 v=110
170880 On ch=2 n=a#4 v=110
170880 On ch=2 n=d#4 v=110
171312 On ch=2 n=c#5 v=0
171312 On ch=2 n=a#4 v=0
171312 On ch=2 n=d#4 v=0
171360 On ch=2 n=g#3 v=75
171792 On ch=2 n=g#3 v=0
171840 On ch=2 n=c5 v=75
171840 On ch=2 n=g#4 v=75
171840 On ch=2 n=d#4 v=75
172272 On ch=2 n=c5 v=0
172272 On ch=2 n=g#4 v=0
172272 On ch=2 n=d#4 v=0
172320 On ch=2 n=c5 v=75
172320 On ch=2 n=g#4 v=75
172320 On ch=2 n=d#4 v=75
172752 On ch=2 n=c5 v=0
172752 On ch=2 n=g#4 v=0
172752 On ch=2 n=d#4 v=0
172800 On ch=2 n=g#3 v=75
173232 On ch=2 n=g#3 v=0
173280 On ch=2 n=g#4 v=75
173280 On ch=2 n=b4 v=75
173280 On ch=2 n=d4 v=75
173517 On ch=2 n=d4 v=0
173520 On ch=2 n=f4 v=75
173712 On ch=2 n=g#4 v=0
173712 On ch=2 n=b4 v=0
173736 On ch=2 n=f4 v=0
173760 On ch=2 n=c5 v=75
173760 On ch=2 n=g#4 v=75
173760 On ch=2 n=d#4 v=75
174192 On ch=2 n=c5 v=0
174192 On ch=2 n=g#4 v=0
174192 On ch=2 n=d#4 v=0
174240 On ch=2 n=c#5 v=100
174240 On ch=2 n=a#4 v=100
174240 On ch=2 n=d#4 v=100
174672 On ch=2 n=c#5 v=0
174672 On ch=2 n=a#4 v=0
174672 On ch=2 n=d#4 v=0
175200 On ch=2 n=c#5 v=100
175200 On ch=2 n=a#4 v=100
175200 On ch=2 n=d#4 v=100
175632 On ch=2 n=c#5 v=0
175632 On ch=2 n=a#4 v=0
175632 On ch=2 n=d#4 v=0
175680 On ch=2 n=c#5 v=100
175680 On ch=2 n=a#4 v=100
175680 On ch=2 n=d#4 v=100
176112 On ch=2 n=c#5 v=0
176112 On ch=2 n=a#4 v=0
176112 On ch=2 n=d#4 v=0
176640 On ch=2 n=c#5 v=100
176640 On ch=2 n=a#4 v=100
176640 On ch=2 n=d#4 v=100
177072 On ch=2 n=c#5 v=0
177072 On ch=2 n=a#4 v=0
177072 On ch=2 n=d#4 v=0
177120 On ch=2 n=d#3 v=75
177552 On ch=2 n=d#3 v=0
177600 On ch=2 n=g4 v=79
177600 On ch=2 n=c#5 v=83
178032 On ch=2 n=g4 v=0
178032 On ch=2 n=c#5 v=0
178080 On ch=2 n=c#5 v=87
178080 On ch=2 n=d#4 v=91
178512 On ch=2 n=c#5 v=0
178512 On ch=2 n=d#4 v=0
178560 On ch=2 n=g#3 v=95
178992 On ch=2 n=g#3 v=0
179040 On ch=2 n=c5 v=99
179040 On ch=2 n=g#4 v=103
179472 On ch=2 n=c5 v=0
179472 On ch=2 n=g#4 v=0
179520 On ch=2 n=c5 v=107
179520 On ch=2 n=d#4 v=107
179952 On ch=2 n=c5 v=0
179952 On ch=2 n=d#4 v=0
180000 On ch=2 n=c#5 v=110
180000 On ch=2 n=a#4 v=110
180000 On ch=2 n=d#4 v=110
180432 On ch=2 n=c#5 v=0
180432 On ch=2 n=a#4 v=0
180432 On ch=2 n=d#4 v=0
180960 On ch=2 n=c#5 v=110
180960 On ch=2 n=a#4 v=110
180960 On ch=2 n=d#4 v=110
181392 On ch=2 n=c#5 v=0
181392 On ch=2 n=a#4 v=0
181392 On ch=2 n=d#4 v=0
181440 On ch=2 n=c#5 v=110
181440 On ch=2 n=a#4 v=110
181440 On ch=2 n=d#4 v=110
181872 On ch=2 n=c#5 v=0
181872 On ch=2 n=a#4 v=0
181872 On ch=2 n=d#4 v=0
182400 On ch=2 n=c#5 v=110
182400 On ch=2 n=a#4 v=110
182400 On ch=2 n=d#4 v=110
182832 On ch=2 n=c#5 v=0
182832 On ch=2 n=a#4 v=0
182832 On ch=2 n=d#4 v=0
182880 On ch=2 n=g#3 v=75
183312 On ch=2 n=g#3 v=0
183360 On ch=2 n=c5 v=75
183360 On ch=2 n=g#4 v=75
183360 On ch=2 n=d#4 v=75
183792 On ch=2 n=c5 v=0
183792 On ch=2 n=g#4 v=0
183792 On ch=2 n=d#4 v=0
183840 On ch=2 n=c5 v=75
183840 On ch=2 n=g#4 v=75
183840 On ch=2 n=d#4 v=75
184272 On ch=2 n=c5 v=0
184272 On ch=2 n=g#4 v=0
184272 On ch=2 n=d#4 v=0
184320 On ch=2 n=g#3 v=75
184752 On ch=2 n=g#3 v=0
184800 On ch=2 n=g#4 v=75
184800 On ch=2 n=b4 v=75
184800 On ch=2 n=d4 v=75
185037 On ch=2 n=d4 v=0
185040 On ch=2 n=f4 v=75
185232 On ch=2 n=g#4 v=0
185232 On ch=2 n=b4 v=0
185256 On ch=2 n=f4 v=0
185280 On ch=2 n=c5 v=75
185280 On ch=2 n=g#4 v=75
185280 On ch=2 n=d#4 v=75
185712 On ch=2 n=c5 v=0
185712 On ch=2 n=g#4 v=0
185712 On ch=2 n=d#4 v=0
185760 On ch=2 n=d#4 v=100
185760 On ch=2 n=a#4 v=100
185760 On ch=2 n=c#5 v=100
186192 On ch=2 n=d#4 v=0
186192 On ch=2 n=a#4 v=0
186192 On ch=2 n=c#5 v=0
186720 On ch=2 n=d#4 v=100
186720 On ch=2 n=a#4 v=100
186720 On ch=2 n=c#5 v=100
187195 On ch=2 n=d#4 v=0
187195 On ch=2 n=a#4 v=0
187195 On ch=2 n=c#5 v=0
187200 On ch=2 n=c5 v=90
187200 On ch=2 n=g#4 v=90
187632 On ch=2 n=c5 v=0
187632 On ch=2 n=g#4 v=0
191520 On ch=2 n=g#3 v=90
191760 On ch=2 n=g#3 v=0
192000 On ch=2 n=c5 v=90
192000 On ch=2 n=d#4 v=90
192475 On ch=2 n=c5 v=0
192475 On ch=2 n=d#4 v=0
192480 On ch=2 n=f#5 v=90
192480 On ch=2 n=g#4 v=90
192912 On ch=2 n=f#5 v=0
192912 On ch=2 n=g#4 v=0
192960 On ch=2 n=g#3 v=90
193200 On ch=2 n=g#3 v=0
193440 On ch=2 n=c5 v=90
193440 On ch=2 n=d#4 v=90
193915 On ch=2 n=c5 v=0
193915 On ch=2 n=d#4 v=0
193920 On ch=2 n=f#5 v=90
193920 On ch=2 n=g#4 v=90
194352 On ch=2 n=f#5 v=0
194352 On ch=2 n=g#4 v=0
194400 On ch=2 n=c#4 v=90
194640 On ch=2 n=c#4 v=0
194880 On ch=2 n=f4 v=90
194880 On ch=2 n=c#5 v=90
195355 On ch=2 n=f4 v=0
195355 On ch=2 n=c#5 v=0
195360 On ch=2 n=f5 v=90
195360 On ch=2 n=g#4 v=90
195792 On ch=2 n=f5 v=0
195792 On ch=2 n=g#4 v=0
195840 On ch=2 n=c#4 v=90
196080 On ch=2 n=c#4 v=0
196320 On ch=2 n=f4 v=90
196320 On ch=2 n=c#5 v=90
196795 On ch=2 n=f4 v=0
196795 On ch=2 n=c#5 v=0
196800 On ch=2 n=f5 v=90
196800 On ch=2 n=g#4 v=90
197232 On ch=2 n=f5 v=0
197232 On ch=2 n=g#4 v=0
197280 On ch=2 n=g#3 v=90
197520 On ch=2 n=g#3 v=0
197760 On ch=2 n=c5 v=90
197760 On ch=2 n=d#4 v=90
198235 On ch=2 n=c5 v=0
198235 On ch=2 n=d#4 v=0
198240 On ch=2 n=f#5 v=90
198240 On ch=2 n=g#4 v=90
198672 On ch=2 n=f#5 v=0
198672 On ch=2 n=g#4 v=0
198720 On ch=2 n=g#3 v=90
198960 On ch=2 n=g#3 v=0
199200 On ch=2 n=c5 v=90
199200 On ch=2 n=d#4 v=90
199675 On ch=2 n=c5 v=0
199675 On ch=2 n=d#4 v=0
199680 On ch=2 n=f#5 v=90
199680 On ch=2 n=g#4 v=90
200112 On ch=2 n=f#5 v=0
200112 On ch=2 n=g#4 v=0
200160 On ch=2 n=c#4 v=90
200640 On ch=2 n=g#4 v=85
201115 On ch=2 n=g#4 v=0
201120 On ch=2 n=c5 v=90
201456 On ch=2 n=c#4 v=0
201595 On ch=2 n=c5 v=0
201600 On ch=2 n=c#5 v=90
201600 On ch=2 n=c#4 v=90
201840 On ch=2 n=c#5 v=0
201840 On ch=2 n=c#4 v=0
202080 On ch=2 n=c#5 v=90
202080 On ch=2 n=f4 v=90
202555 On ch=2 n=c#5 v=0
202555 On ch=2 n=f4 v=0
202560 On ch=2 n=f5 v=90
202560 On ch=2 n=g#4 v=90
202992 On ch=2 n=f5 v=0
202992 On ch=2 n=g#4 v=0
203040 On ch=2 n=g#3 v=90
203280 On ch=2 n=g#3 v=0
203520 On ch=2 n=c5 v=90
203520 On ch=2 n=d#4 v=90
203995 On ch=2 n=c5 v=0
203995 On ch=2 n=d#4 v=0
204000 On ch=2 n=f#5 v=90
204000 On ch=2 n=g#4 v=90
204432 On ch=2 n=f#5 v=0
204432 On ch=2 n=g#4 v=0
204480 On ch=2 n=g#3 v=90
204720 On ch=2 n=g#3 v=0
204960 On ch=2 n=c5 v=90
204960 On ch=2 n=d#4 v=90
205435 On ch=2 n=c5 v=0
205435 On ch=2 n=d#4 v=0
205440 On ch=2 n=f#5 v=90
205440 On ch=2 n=g#4 v=90
205872 On ch=2 n=f#5 v=0
205872 On ch=2 n=g#4 v=0
205920 On ch=2 n=c#4 v=90
206160 On ch=2 n=c#4 v=0
206400 On ch=2 n=f4 v=90
206400 On ch=2 n=c#5 v=90
206875 On ch=2 n=f4 v=0
206875 On ch=2 n=c#5 v=0
206880 On ch=2 n=f5 v=90
206880 On ch=2 n=g#4 v=90
207312 On ch=2 n=f5 v=0
207312 On ch=2 n=g#4 v=0
207360 On ch=2 n=c#4 v=90
207600 On ch=2 n=c#4 v=0
207840 On ch=2 n=f4 v=90
207840 On ch=2 n=c#5 v=90
208315 On ch=2 n=f4 v=0
208315 On ch=2 n=c#5 v=0
208320 On ch=2 n=f5 v=90
208320 On ch=2 n=g#4 v=90
208752 On ch=2 n=f5 v=0
208752 On ch=2 n=g#4 v=0
208800 On ch=2 n=f#3 v=90
209040 On ch=2 n=f#3 v=0
209280 On ch=2 n=f#4 v=90
209280 On ch=2 n=d5 v=90
209755 On ch=2 n=f#4 v=0
209755 On ch=2 n=d5 v=0
209760 On ch=2 n=a#4 v=90
209760 On ch=2 n=d#5 v=90
210192 On ch=2 n=a#4 v=0
210192 On ch=2 n=d#5 v=0
210240 On ch=2 n=g#3 v=90
210480 On ch=2 n=g#3 v=0
210720 On ch=2 n=f4 v=90
210720 On ch=2 n=c5 v=90
211195 On ch=2 n=f4 v=0
211195 On ch=2 n=c5 v=0
211200 On ch=2 n=c#5 v=90
211200 On ch=2 n=g#4 v=90
211632 On ch=2 n=c#5 v=0
211632 On ch=2 n=g#4 v=0
211680 On ch=2 n=g#3 v=90
211920 On ch=2 n=g#3 v=0
212160 On ch=2 n=c5 v=90
212160 On ch=2 n=g#4 v=90
212160 On ch=2 n=d#4 v=90
212592 On ch=2 n=c5 v=0
212592 On ch=2 n=g#4 v=0
212592 On ch=2 n=d#4 v=0
212640 On ch=2 n=c5 v=90
212640 On ch=2 n=g#4 v=90
212640 On ch=2 n=d#4 v=90
213072 On ch=2 n=c5 v=0
213072 On ch=2 n=g#4 v=0
213072 On ch=2 n=d#4 v=0
213120 On ch=2 n=c#5 v=90
213120 On ch=2 n=g#4 v=90
213120 On ch=2 n=c#4 v=90
213552 On ch=2 n=c#5 v=0
213552 On ch=2 n=g#4 v=0
213552 On ch=2 n=c#4 v=0
214560 On ch=2 n=c#3 v=100
214800 On ch=2 n=c#3 v=0
215040 On ch=2 n=g#4 v=100
215040 On ch=2 n=c#4 v=100
215040 On ch=2 n=c5 v=100
215472 On ch=2 n=g#4 v=0
215472 On ch=2 n=c#4 v=0
215472 On ch=2 n=c5 v=0
215520 On ch=2 n=g#4 v=100
215520 On ch=2 n=c#4 v=100
215520 On ch=2 n=c5 v=100
215952 On ch=2 n=g#4 v=0
215952 On ch=2 n=c#4 v=0
215952 On ch=2 n=c5 v=0
216000 On ch=2 n=c#3 v=100
216240 On ch=2 n=c#3 v=0
216480 On ch=2 n=g#4 v=100
216480 On ch=2 n=c#4 v=100
216480 On ch=2 n=c5 v=100
216912 On ch=2 n=g#4 v=0
216912 On ch=2 n=c#4 v=0
216912 On ch=2 n=c5 v=0
216960 On ch=2 n=g#4 v=103
216960 On ch=2 n=c#4 v=103
216960 On ch=2 n=c5 v=103
217392 On ch=2 n=g#4 v=0
217392 On ch=2 n=c#4 v=0
217392 On ch=2 n=c5 v=0
217440 On ch=2 n=f#3 v=106
217680 On ch=2 n=f#3 v=0
217920 On ch=2 n=a#4 v=106
217920 On ch=2 n=f#4 v=106
217920 On ch=2 n=c#4 v=106
218352 On ch=2 n=a#4 v=0
218352 On ch=2 n=f#4 v=0
218352 On ch=2 n=c#4 v=0
218400 On ch=2 n=a#4 v=109
218400 On ch=2 n=f#4 v=109
218400 On ch=2 n=c#4 v=109
218832 On ch=2 n=a#4 v=0
218832 On ch=2 n=f#4 v=0
218832 On ch=2 n=c#4 v=0
218880 On ch=2 n=f#3 v=100
219120 On ch=2 n=f#3 v=0
219360 On ch=2 n=a#4 v=100
219360 On ch=2 n=d4 v=100
219835 On ch=2 n=a#4 v=0
219835 On ch=2 n=d4 v=0
219840 On ch=2 n=a#4 v=100
219840 On ch=2 n=d#4 v=100
220272 On ch=2 n=a#4 v=0
220272 On ch=2 n=d#4 v=0
220320 On ch=2 n=g#3 v=100
220560 On ch=2 n=g#3 v=0
220800 On ch=2 n=g#4 v=75
220800 On ch=2 n=d#4 v=75
220800 On ch=2 n=c5 v=75
221232 On ch=2 n=g#4 v=0
221232 On ch=2 n=d#4 v=0
221232 On ch=2 n=c5 v=0
221280 On ch=2 n=g#4 v=75
221280 On ch=2 n=d#4 v=75
221280 On ch=2 n=c5 v=75
221712 On ch=2 n=g#4 v=0
221712 On ch=2 n=d#4 v=0
221712 On ch=2 n=c5 v=0
221760 On ch=2 n=g#3 v=75
222000 On ch=2 n=g#3 v=0
222240 On ch=2 n=c5 v=75
222240 On ch=2 n=g#4 v=75
222240 On ch=2 n=d#4 v=75
222672 On ch=2 n=c5 v=0
222672 On ch=2 n=g#4 v=0
222672 On ch=2 n=d#4 v=0
222720 On ch=2 n=c5 v=75
222720 On ch=2 n=g#4 v=75
222720 On ch=2 n=d#4 v=75
223152 On ch=2 n=c5 v=0
223152 On ch=2 n=g#4 v=0
223152 On ch=2 n=d#4 v=0
223200 On ch=2 n=g#3 v=75
223440 On ch=2 n=g#3 v=0
223680 On ch=2 n=c5 v=75
223680 On ch=2 n=g#4 v=75
223680 On ch=2 n=d#4 v=75
224112 On ch=2 n=c5 v=0
224112 On ch=2 n=g#4 v=0
224112 On ch=2 n=d#4 v=0
224160 On ch=2 n=c5 v=75
224160 On ch=2 n=g#4 v=75
224160 On ch=2 n=d#4 v=75
224592 On ch=2 n=c5 v=0
224592 On ch=2 n=g#4 v=0
224592 On ch=2 n=d#4 v=0
224640 On ch=2 n=c#4 v=75
225120 On ch=2 n=g#4 v=75
225120 On ch=2 n=c#5 v=75
225552 On ch=2 n=g#4 v=0
225552 On ch=2 n=c#5 v=0
225600 On ch=2 n=g#4 v=75
225600 On ch=2 n=c#5 v=75
225936 On ch=2 n=c#4 v=0
226032 On ch=2 n=g#4 v=0
226032 On ch=2 n=c#5 v=0
226080 On ch=2 n=c#4 v=100
226320 On ch=2 n=c#4 v=0
226560 On ch=2 n=c#5 v=100
226560 On ch=2 n=g#5 v=100
226560 On ch=2 n=c6 v=100
226992 On ch=2 n=c#5 v=0
226992 On ch=2 n=g#5 v=0
226992 On ch=2 n=c6 v=0
227040 On ch=2 n=c#5 v=100
227040 On ch=2 n=g#5 v=100
227040 On ch=2 n=c6 v=100
227472 On ch=2 n=c#5 v=0
227472 On ch=2 n=g#5 v=0
227472 On ch=2 n=c6 v=0
227520 On ch=2 n=c#4 v=100
227760 On ch=2 n=c#4 v=0
228000 On ch=2 n=c#5 v=100
228000 On ch=2 n=g#5 v=100
228000 On ch=2 n=c6 v=100
228432 On ch=2 n=c#5 v=0
228432 On ch=2 n=g#5 v=0
228432 On ch=2 n=c6 v=0
228480 On ch=2 n=c#5 v=103
228480 On ch=2 n=g#5 v=103
228480 On ch=2 n=c6 v=103
228912 On ch=2 n=c#5 v=0
228912 On ch=2 n=g#5 v=0
228912 On ch=2 n=c6 v=0
228960 On ch=2 n=f#4 v=106
229200 On ch=2 n=f#4 v=0
229440 On ch=2 n=c#5 v=109
229440 On ch=2 n=f#5 v=109
229440 On ch=2 n=a#5 v=109
229872 On ch=2 n=c#5 v=0
229872 On ch=2 n=f#5 v=0
229872 On ch=2 n=a#5 v=0
229920 On ch=2 n=c#5 v=111
229920 On ch=2 n=f#5 v=111
229920 On ch=2 n=a#5 v=111
230352 On ch=2 n=c#5 v=0
230352 On ch=2 n=f#5 v=0
230352 On ch=2 n=a#5 v=0
230400 On ch=2 n=f#4 v=100
230640 On ch=2 n=f#4 v=0
230880 On ch=2 n=d5 v=100
230880 On ch=2 n=a#5 v=100
231355 On ch=2 n=d5 v=0
231355 On ch=2 n=a#5 v=0
231360 On ch=2 n=d5 v=100
231360 On ch=2 n=a#5 v=100
231792 On ch=2 n=d5 v=0
231792 On ch=2 n=a#5 v=0
231840 On ch=2 n=g#4 v=100
232080 On ch=2 n=g#4 v=0
232320 On ch=2 n=d#5 v=80
232320 On ch=2 n=g#5 v=80
232320 On ch=2 n=c6 v=80
232752 On ch=2 n=d#5 v=0
232752 On ch=2 n=g#5 v=0
232752 On ch=2 n=c6 v=0
232800 On ch=2 n=d#5 v=80
232800 On ch=2 n=g#5 v=80
232800 On ch=2 n=c6 v=80
233232 On ch=2 n=d#5 v=0
233232 On ch=2 n=g#5 v=0
233232 On ch=2 n=c6 v=0
233280 On ch=2 n=g#4 v=100
233520 On ch=2 n=g#4 v=0
233760 On ch=2 n=d#5 v=80
233760 On ch=2 n=g#5 v=80
233760 On ch=2 n=c6 v=80
234192 On ch=2 n=d#5 v=0
234192 On ch=2 n=g#5 v=0
234192 On ch=2 n=c6 v=0
234240 On ch=2 n=d#5 v=80
234240 On ch=2 n=g#5 v=80
234240 On ch=2 n=c6 v=80
234672 On ch=2 n=d#5 v=0
234672 On ch=2 n=g#5 v=0
234672 On ch=2 n=c6 v=0
234720 On ch=2 n=g#4 v=100
234960 On ch=2 n=g#4 v=0
235200 On ch=2 n=d#5 v=80
235200 On ch=2 n=g#5 v=80
235200 On ch=2 n=c6 v=80
235632 On ch=2 n=d#5 v=0
235632 On ch=2 n=g#5 v=0
235632 On ch=2 n=c6 v=0
235680 On ch=2 n=d#5 v=80
235680 On ch=2 n=g#5 v=80
235680 On ch=2 n=c6 v=80
236112 On ch=2 n=d#5 v=0
236112 On ch=2 n=g#5 v=0
236112 On ch=2 n=c6 v=0
236160 On ch=2 n=c#5 v=80
236160 On ch=2 n=g#5 v=80
236160 On ch=2 n=c#6 v=80
236592 On ch=2 n=c#5 v=0
236592 On ch=2 n=g#5 v=0
236592 On ch=2 n=c#6 v=0
237600 On ch=2 n=c#3 v=100
237840 On ch=2 n=c#3 v=0
238080 On ch=2 n=g#4 v=100
238080 On ch=2 n=c#4 v=100
238080 On ch=2 n=c5 v=100
238512 On ch=2 n=g#4 v=0
238512 On ch=2 n=c#4 v=0
238512 On ch=2 n=c5 v=0
238560 On ch=2 n=g#4 v=100
238560 On ch=2 n=c#4 v=100
238560 On ch=2 n=c5 v=100
238992 On ch=2 n=g#4 v=0
238992 On ch=2 n=c#4 v=0
238992 On ch=2 n=c5 v=0
239040 On ch=2 n=c#3 v=100
239280 On ch=2 n=c#3 v=0
239520 On ch=2 n=g#4 v=100
239520 On ch=2 n=c#4 v=100
239520 On ch=2 n=c5 v=100
239952 On ch=2 n=g#4 v=0
239952 On ch=2 n=c#4 v=0
239952 On ch=2 n=c5 v=0
240000 On ch=2 n=g#4 v=103
240000 On ch=2 n=c#4 v=103
240000 On ch=2 n=c5 v=103
240432 On ch=2 n=g#4 v=0
240432 On ch=2 n=c#4 v=0
240432 On ch=2 n=c5 v=0
240480 On ch=2 n=f#3 v=106
240720 On ch=2 n=f#3 v=0
240960 On ch=2 n=a#4 v=106
240960 On ch=2 n=f#4 v=106
240960 On ch=2 n=c#4 v=106
241392 On ch=2 n=a#4 v=0
241392 On ch=2 n=f#4 v=0
241392 On ch=2 n=c#4 v=0
241440 On ch=2 n=a#4 v=109
241440 On ch=2 n=f#4 v=109
241440 On ch=2 n=c#4 v=109
241872 On ch=2 n=a#4 v=0
241872 On ch=2 n=f#4 v=0
241872 On ch=2 n=c#4 v=0
241920 On ch=2 n=f#3 v=100
242160 On ch=2 n=f#3 v=0
242400 On ch=2 n=a#4 v=100
242400 On ch=2 n=d4 v=100
242875 On ch=2 n=a#4 v=0
242875 On ch=2 n=d4 v=0
242880 On ch=2 n=a#4 v=100
242880 On ch=2 n=d#4 v=100
243312 On ch=2 n=a#4 v=0
243312 On ch=2 n=d#4 v=0
243360 On ch=2 n=g#3 v=100
243600 On ch=2 n=g#3 v=0
243840 On ch=2 n=g#4 v=75
243840 On ch=2 n=d#4 v=75
243840 On ch=2 n=c5 v=75
244272 On ch=2 n=g#4 v=0
244272 On ch=2 n=d#4 v=0
244272 On ch=2 n=c5 v=0
244320 On ch=2 n=g#4 v=75
244320 On ch=2 n=d#4 v=75
244320 On ch=2 n=c5 v=75
244752 On ch=2 n=g#4 v=0
244752 On ch=2 n=d#4 v=0
244752 On ch=2 n=c5 v=0
244800 On ch=2 n=g#3 v=75
245040 On ch=2 n=g#3 v=0
245280 On ch=2 n=c5 v=75
245280 On ch=2 n=g#4 v=75
245280 On ch=2 n=d#4 v=75
245712 On ch=2 n=c5 v=0
245712 On ch=2 n=g#4 v=0
245712 On ch=2 n=d#4 v=0
245760 On ch=2 n=c5 v=75
245760 On ch=2 n=g#4 v=75
245760 On ch=2 n=d#4 v=75
246192 On ch=2 n=c5 v=0
246192 On ch=2 n=g#4 v=0
246192 On ch=2 n=d#4 v=0
246240 On ch=2 n=g#3 v=75
246480 On ch=2 n=g#3 v=0
246720 On ch=2 n=c5 v=75
246720 On ch=2 n=g#4 v=75
246720 On ch=2 n=d#4 v=75
247152 On ch=2 n=c5 v=0
247152 On ch=2 n=g#4 v=0
247152 On ch=2 n=d#4 v=0
247200 On ch=2 n=c5 v=75
247200 On ch=2 n=g#4 v=75
247200 On ch=2 n=d#4 v=75
247632 On ch=2 n=c5 v=0
247632 On ch=2 n=g#4 v=0
247632 On ch=2 n=d#4 v=0
247680 On ch=2 n=c#4 v=75
248160 On ch=2 n=g#4 v=75
248160 On ch=2 n=c#5 v=75
248592 On ch=2 n=g#4 v=0
248592 On ch=2 n=c#5 v=0
248640 On ch=2 n=g#4 v=75
248640 On ch=2 n=c#5 v=75
248976 On ch=2 n=c#4 v=0
249072 On ch=2 n=g#4 v=0
249072 On ch=2 n=c#5 v=0
249120 On ch=2 n=c#4 v=100
249360 On ch=2 n=c#4 v=0
249600 On ch=2 n=c#5 v=100
249600 On ch=2 n=g#5 v=100
249600 On ch=2 n=c6 v=100
250032 On ch=2 n=c#5 v=0
250032 On ch=2 n=g#5 v=0
250032 On ch=2 n=c6 v=0
250080 On ch=2 n=c#5 v=100
250080 On ch=2 n=g#5 v=100
250080 On ch=2 n=c6 v=100
250512 On ch=2 n=c#5 v=0
250512 On ch=2 n=g#5 v=0
250512 On ch=2 n=c6 v=0
250560 On ch=2 n=c#4 v=100
250800 On ch=2 n=c#4 v=0
251040 On ch=2 n=c#5 v=100
251040 On ch=2 n=g#5 v=100
251040 On ch=2 n=c6 v=100
251472 On ch=2 n=c#5 v=0
251472 On ch=2 n=g#5 v=0
251472 On ch=2 n=c6 v=0
251520 On ch=2 n=c#5 v=103
251520 On ch=2 n=g#5 v=103
251520 On ch=2 n=c6 v=103
251952 On ch=2 n=c#5 v=0
251952 On ch=2 n=g#5 v=0
251952 On ch=2 n=c6 v=0
252000 On ch=2 n=f#4 v=106
252240 On ch=2 n=f#4 v=0
252480 On ch=2 n=c#5 v=109
252480 On ch=2 n=f#5 v=109
252480 On ch=2 n=a#5 v=109
252912 On ch=2 n=c#5 v=0
252912 On ch=2 n=f#5 v=0
252912 On ch=2 n=a#5 v=0
252960 On ch=2 n=c#5 v=111
252960 On ch=2 n=f#5 v=111
252960 On ch=2 n=a#5 v=111
253392 On ch=2 n=c#5 v=0
253392 On ch=2 n=f#5 v=0
253392 On ch=2 n=a#5 v=0
253440 On ch=2 n=f#4 v=100
253680 On ch=2 n=f#4 v=0
253920 On ch=2 n=d5 v=100
253920 On ch=2 n=a#5 v=100
254395 On ch=2 n=d5 v=0
254395 On ch=2 n=a#5 v=0
254400 On ch=2 n=d5 v=100
254400 On ch=2 n=a#5 v=100
254832 On ch=2 n=d5 v=0
254832 On ch=2 n=a#5 v=0
254880 On ch=2 n=g#4 v=100
255120 On ch=2 n=g#4 v=0
255360 On ch=2 n=d#5 v=80
255360 On ch=2 n=g#5 v=80
255360 On ch=2 n=c6 v=80
255792 On ch=2 n=d#5 v=0
255792 On ch=2 n=g#5 v=0
255792 On ch=2 n=c6 v=0
255840 On ch=2 n=d#5 v=80
255840 On ch=2 n=g#5 v=80
255840 On ch=2 n=c6 v=80
256272 On ch=2 n=d#5 v=0
256272 On ch=2 n=g#5 v=0
256272 On ch=2 n=c6 v=0
256320 On ch=2 n=g#4 v=100
256560 On ch=2 n=g#4 v=0
256800 On ch=2 n=d#5 v=80
256800 On ch=2 n=g#5 v=80
256800 On ch=2 n=c6 v=80
257232 On ch=2 n=d#5 v=0
257232 On ch=2 n=g#5 v=0
257232 On ch=2 n=c6 v=0
257280 On ch=2 n=d#5 v=80
257280 On ch=2 n=g#5 v=80
257280 On ch=2 n=c6 v=80
257712 On ch=2 n=d#5 v=0
257712 On ch=2 n=g#5 v=0
257712 On ch=2 n=c6 v=0
257760 On ch=2 n=g#4 v=100
258000 On ch=2 n=g#4 v=0
258240 On ch=2 n=d#5 v=80
258240 On ch=2 n=g#5 v=80
258240 On ch=2 n=c6 v=80
258672 On ch=2 n=d#5 v=0
258672 On ch=2 n=g#5 v=0
258672 On ch=2 n=c6 v=0
258720 On ch=2 n=d#5 v=80
258720 On ch=2 n=g#5 v=80
258720 On ch=2 n=c6 v=80
259152 On ch=2 n=d#5 v=0
259152 On ch=2 n=g#5 v=0
259152 On ch=2 n=c6 v=0
259200 On ch=2 n=c#6 v=80
259200 On ch=2 n=g#5 v=80
259200 On ch=2 n=c#5 v=80
259632 On ch=2 n=c#6 v=0
259632 On ch=2 n=g#5 v=0
259632 On ch=2 n=c#5 v=0
260640 On ch=2 n=a#3 v=75
260880 On ch=2 n=a#3 v=0
261120 On ch=2 n=f4 v=75
261120 On ch=2 n=c#5 v=75
261552 On ch=2 n=f4 v=0
261552 On ch=2 n=c#5 v=0
261600 On ch=2 n=f4 v=75
261600 On ch=2 n=c#5 v=75
262032 On ch=2 n=f4 v=0
262032 On ch=2 n=c#5 v=0
262080 On ch=2 n=a3 v=75
262320 On ch=2 n=a3 v=0
262560 On ch=2 n=f4 v=75
262560 On ch=2 n=c5 v=75
262560 On ch=2 n=d#5 v=75
262992 On ch=2 n=f4 v=0
262992 On ch=2 n=c5 v=0
262992 On ch=2 n=d#5 v=0
263040 On ch=2 n=f4 v=75
263040 On ch=2 n=c5 v=75
263040 On ch=2 n=d#5 v=75
263472 On ch=2 n=f4 v=0
263472 On ch=2 n=c5 v=0
263472 On ch=2 n=d#5 v=0
263520 On ch=2 n=a#3 v=75
263760 On ch=2 n=a#3 v=0
264000 On ch=2 n=f4 v=74
264000 On ch=2 n=a#4 v=74
264000 On ch=2 n=c#5 v=74
264432 On ch=2 n=f4 v=0
264432 On ch=2 n=a#4 v=0
264432 On ch=2 n=c#5 v=0
264480 On ch=2 n=f4 v=73
264480 On ch=2 n=a#4 v=73
264480 On ch=2 n=c#5 v=73
264912 On ch=2 n=f4 v=0
264912 On ch=2 n=a#4 v=0
264912 On ch=2 n=c#5 v=0
264960 On ch=2 n=d#4 v=72
265200 On ch=2 n=d#4 v=0
265440 On ch=2 n=a#4 v=70
265440 On ch=2 n=c5 v=70
265440 On ch=2 n=f#5 v=70
265872 On ch=2 n=a#4 v=0
265872 On ch=2 n=c5 v=0
265872 On ch=2 n=f#5 v=0
265920 On ch=2 n=a#4 v=69
265920 On ch=2 n=c5 v=69
265920 On ch=2 n=f#5 v=69
266352 On ch=2 n=a#4 v=0
266352 On ch=2 n=c5 v=0
266352 On ch=2 n=f#5 v=0
266400 On ch=2 n=f4 v=68
266640 On ch=2 n=f4 v=0
266880 On ch=2 n=a#4 v=67
266880 On ch=2 n=c#5 v=67
266880 On ch=2 n=f5 v=67
267312 On ch=2 n=a#4 v=0
267312 On ch=2 n=c#5 v=0
267312 On ch=2 n=f5 v=0
267360 On ch=2 n=a#4 v=66
267360 On ch=2 n=c#5 v=66
267360 On ch=2 n=f5 v=66
267792 On ch=2 n=a#4 v=0
267792 On ch=2 n=c#5 v=0
267792 On ch=2 n=f5 v=0
267840 On ch=2 n=a#3 v=64
268080 On ch=2 n=a#3 v=0
268320 On ch=2 n=a4 v=61
268320 On ch=2 n=d#5 v=61
268320 On ch=2 n=f5 v=61
268752 On ch=2 n=a4 v=0
268752 On ch=2 n=d#5 v=0
268752 On ch=2 n=f5 v=0
268800 On ch=2 n=a4 v=58
268800 On ch=2 n=d#5 v=58
268800 On ch=2 n=f5 v=58
269232 On ch=2 n=a4 v=0
269232 On ch=2 n=d#5 v=0
269232 On ch=2 n=f5 v=0
269280 On ch=2 n=a#3 v=75
269520 On ch=2 n=a#3 v=0
269760 On ch=2 n=f4 v=75
269760 On ch=2 n=c#5 v=75
270192 On ch=2 n=f4 v=0
270192 On ch=2 n=c#5 v=0
270240 On ch=2 n=f4 v=75
270240 On ch=2 n=c#5 v=75
270672 On ch=2 n=f4 v=0
270672 On ch=2 n=c#5 v=0
270720 On ch=2 n=a#3 v=75
270960 On ch=2 n=a#3 v=0
271200 On ch=2 n=f4 v=76
271200 On ch=2 n=c#5 v=76
271632 On ch=2 n=f4 v=0
271632 On ch=2 n=c#5 v=0
271680 On ch=2 n=f4 v=77
271680 On ch=2 n=c#5 v=77
272112 On ch=2 n=f4 v=0
272112 On ch=2 n=c#5 v=0
272160 On ch=2 n=a#3 v=78
272400 On ch=2 n=a#3 v=0
272640 On ch=2 n=f4 v=78
272640 On ch=2 n=c#5 v=78
273072 On ch=2 n=f4 v=0
273072 On ch=2 n=c#5 v=0
273120 On ch=2 n=f4 v=79
273120 On ch=2 n=c#5 v=79
273552 On ch=2 n=f4 v=0
273552 On ch=2 n=c#5 v=0
273600 On ch=2 n=a3 v=80
273840 On ch=2 n=a3 v=0
274080 On ch=2 n=f4 v=81
274080 On ch=2 n=c5 v=81
274080 On ch=2 n=d#5 v=81
274512 On ch=2 n=f4 v=0
274512 On ch=2 n=c5 v=0
274512 On ch=2 n=d#5 v=0
274560 On ch=2 n=f4 v=82
274560 On ch=2 n=c5 v=82
274560 On ch=2 n=d#5 v=82
274992 On ch=2 n=f4 v=0
274992 On ch=2 n=c5 v=0
274992 On ch=2 n=d#5 v=0
275040 On ch=2 n=a#3 v=80
275280 On ch=2 n=a#3 v=0
275520 On ch=2 n=f4 v=78
275520 On ch=2 n=a#4 v=78
275520 On ch=2 n=c#5 v=78
275952 On ch=2 n=f4 v=0
275952 On ch=2 n=a#4 v=0
275952 On ch=2 n=c#5 v=0
276000 On ch=2 n=f4 v=75
276000 On ch=2 n=a#4 v=75
276000 On ch=2 n=c#5 v=75
276432 On ch=2 n=f4 v=0
276432 On ch=2 n=a#4 v=0
276432 On ch=2 n=c#5 v=0
276480 On ch=2 n=c4 v=73
276720 On ch=2 n=c4 v=0
276960 On ch=2 n=a#4 v=70
276960 On ch=2 n=c5 v=70
276960 On ch=2 n=f#5 v=70
277392 On ch=2 n=a#4 v=0
277392 On ch=2 n=c5 v=0
277392 On ch=2 n=f#5 v=0
277440 On ch=2 n=a#4 v=68
277440 On ch=2 n=c5 v=68
277440 On ch=2 n=f#5 v=68
277872 On ch=2 n=a#4 v=0
277872 On ch=2 n=c5 v=0
277872 On ch=2 n=f#5 v=0
277920 On ch=2 n=f4 v=75
278160 On ch=2 n=f4 v=0
278400 On ch=2 n=a#4 v=75
278400 On ch=2 n=c#5 v=75
278400 On ch=2 n=f5 v=75
278832 On ch=2 n=a#4 v=0
278832 On ch=2 n=c#5 v=0
278832 On ch=2 n=f5 v=0
278880 On ch=2 n=a#4 v=75
278880 On ch=2 n=c#5 v=75
278880 On ch=2 n=f5 v=75
279312 On ch=2 n=a#4 v=0
279312 On ch=2 n=c#5 v=0
279312 On ch=2 n=f5 v=0
279360 On ch=2 n=f4 v=75
279600 On ch=2 n=f4 v=0
279840 On ch=2 n=a4 v=75
279840 On ch=2 n=d#5 v=75
279840 On ch=2 n=f5 v=75
280272 On ch=2 n=a4 v=0
280272 On ch=2 n=d#5 v=0
280272 On ch=2 n=f5 v=0
280320 On ch=2 n=a4 v=75
280320 On ch=2 n=d#5 v=75
280320 On ch=2 n=f5 v=75
280752 On ch=2 n=a4 v=0
280752 On ch=2 n=d#5 v=0
280752 On ch=2 n=f5 v=0
280800 On ch=2 n=a#4 v=75
280800 On ch=2 n=c#5 v=75
280800 On ch=2 n=f5 v=75
281232 On ch=2 n=a#4 v=0
281232 On ch=2 n=c#5 v=0
281232 On ch=2 n=f5 v=0
283680 On ch=2 n=c#3 v=100
283920 On ch=2 n=c#3 v=0
284160 On ch=2 n=g#4 v=100
284160 On ch=2 n=c#4 v=100
284160 On ch=2 n=c5 v=100
284592 On ch=2 n=g#4 v=0
284592 On ch=2 n=c#4 v=0
284592 On ch=2 n=c5 v=0
284640 On ch=2 n=g#4 v=100
284640 On ch=2 n=c#4 v=100
284640 On ch=2 n=c5 v=100
285072 On ch=2 n=g#4 v=0
285072 On ch=2 n=c#4 v=0
285072 On ch=2 n=c5 v=0
285120 On ch=2 n=c#3 v=100
285360 On ch=2 n=c#3 v=0
285600 On ch=2 n=g#4 v=100
285600 On ch=2 n=c#4 v=100
285600 On ch=2 n=c5 v=100
286032 On ch=2 n=g#4 v=0
286032 On ch=2 n=c#4 v=0
286032 On ch=2 n=c5 v=0
286080 On ch=2 n=g#4 v=103
286080 On ch=2 n=c#4 v=103
286080 On ch=2 n=c5 v=103
286512 On ch=2 n=g#4 v=0
286512 On ch=2 n=c#4 v=0
286512 On ch=2 n=c5 v=0
286560 On ch=2 n=f#3 v=106
286800 On ch=2 n=f#3 v=0
287040 On ch=2 n=a#4 v=106
287040 On ch=2 n=f#4 v=106
287040 On ch=2 n=c#4 v=106
287472 On ch=2 n=a#4 v=0
287472 On ch=2 n=f#4 v=0
287472 On ch=2 n=c#4 v=0
287520 On ch=2 n=a#4 v=109
287520 On ch=2 n=f#4 v=109
287520 On ch=2 n=c#4 v=109
287952 On ch=2 n=a#4 v=0
287952 On ch=2 n=f#4 v=0
287952 On ch=2 n=c#4 v=0
288000 On ch=2 n=f#3 v=100
288240 On ch=2 n=f#3 v=0
288480 On ch=2 n=a#4 v=100
288480 On ch=2 n=d4 v=100
288955 On ch=2 n=a#4 v=0
288955 On ch=2 n=d4 v=0
288960 On ch=2 n=a#4 v=100
288960 On ch=2 n=d#4 v=100
289392 On ch=2 n=a#4 v=0
289392 On ch=2 n=d#4 v=0
289440 On ch=2 n=g#3 v=100
289680 On ch=2 n=g#3 v=0
289920 On ch=2 n=g#4 v=75
289920 On ch=2 n=d#4 v=75
289920 On ch=2 n=c5 v=75
290352 On ch=2 n=g#4 v=0
290352 On ch=2 n=d#4 v=0
290352 On ch=2 n=c5 v=0
290400 On ch=2 n=g#4 v=75
290400 On ch=2 n=d#4 v=75
290400 On ch=2 n=c5 v=75
290832 On ch=2 n=g#4 v=0
290832 On ch=2 n=d#4 v=0
290832 On ch=2 n=c5 v=0
290880 On ch=2 n=g#3 v=75
291120 On ch=2 n=g#3 v=0
291360 On ch=2 n=c5 v=75
291360 On ch=2 n=g#4 v=75
291360 On ch=2 n=d#4 v=75
291792 On ch=2 n=c5 v=0
291792 On ch=2 n=g#4 v=0
291792 On ch=2 n=d#4 v=0
291840 On ch=2 n=c5 v=75
291840 On ch=2 n=g#4 v=75
291840 On ch=2 n=d#4 v=75
292272 On ch=2 n=c5 v=0
292272 On ch=2 n=g#4 v=0
292272 On ch=2 n=d#4 v=0
292320 On ch=2 n=g#3 v=75
292560 On ch=2 n=g#3 v=0
292800 On ch=2 n=c5 v=75
292800 On ch=2 n=g#4 v=75
292800 On ch=2 n=d#4 v=75
293232 On ch=2 n=c5 v=0
293232 On ch=2 n=g#4 v=0
293232 On ch=2 n=d#4 v=0
293280 On ch=2 n=c5 v=75
293280 On ch=2 n=g#4 v=75
293280 On ch=2 n=d#4 v=75
293712 On ch=2 n=c5 v=0
293712 On ch=2 n=g#4 v=0
293712 On ch=2 n=d#4 v=0
293760 On ch=2 n=c#4 v=75
294240 On ch=2 n=g#4 v=75
294240 On ch=2 n=c#5 v=75
294672 On ch=2 n=g#4 v=0
294672 On ch=2 n=c#5 v=0
294720 On ch=2 n=g#4 v=75
294720 On ch=2 n=c#5 v=75
295056 On ch=2 n=c#4 v=0
295152 On ch=2 n=g#4 v=0
295152 On ch=2 n=c#5 v=0
295200 On ch=2 n=c#4 v=100
295440 On ch=2 n=c#4 v=0
295680 On ch=2 n=c#5 v=100
295680 On ch=2 n=g#5 v=100
295680 On ch=2 n=c6 v=100
296112 On ch=2 n=c#5 v=0
296112 On ch=2 n=g#5 v=0
296112 On ch=2 n=c6 v=0
296160 On ch=2 n=c#5 v=100
296160 On ch=2 n=g#5 v=100
296160 On ch=2 n=c6 v=100
296592 On ch=2 n=c#5 v=0
296592 On ch=2 n=g#5 v=0
296592 On ch=2 n=c6 v=0
296640 On ch=2 n=c#4 v=100
296880 On ch=2 n=c#4 v=0
297120 On ch=2 n=c#5 v=100
297120 On ch=2 n=g#5 v=100
297120 On ch=2 n=c6 v=100
297552 On ch=2 n=c#5 v=0
297552 On ch=2 n=g#5 v=0
297552 On ch=2 n=c6 v=0
297600 On ch=2 n=c#5 v=103
297600 On ch=2 n=g#5 v=103
297600 On ch=2 n=c6 v=103
298032 On ch=2 n=c#5 v=0
298032 On ch=2 n=g#5 v=0
298032 On ch=2 n=c6 v=0
298080 On ch=2 n=f#4 v=106
298320 On ch=2 n=f#4 v=0
298560 On ch=2 n=c#5 v=109
298560 On ch=2 n=f#5 v=109
298560 On ch=2 n=a#5 v=109
298992 On ch=2 n=c#5 v=0
298992 On ch=2 n=f#5 v=0
298992 On ch=2 n=a#5 v=0
299040 On ch=2 n=c#5 v=111
299040 On ch=2 n=f#5 v=111
299040 On ch=2 n=a#5 v=111
299472 On ch=2 n=c#5 v=0
299472 On ch=2 n=f#5 v=0
299472 On ch=2 n=a#5 v=0
299520 On ch=2 n=f#4 v=100
299760 On ch=2 n=f#4 v=0
300000 On ch=2 n=d5 v=100
300000 On ch=2 n=a#5 v=100
300475 On ch=2 n=d5 v=0
300475 On ch=2 n=a#5 v=0
300480 On ch=2 n=d5 v=100
300480 On ch=2 n=a#5 v=100
300912 On ch=2 n=d5 v=0
300912 On ch=2 n=a#5 v=0
300960 On ch=2 n=g#4 v=100
301200 On ch=2 n=g#4 v=0
301440 On ch=2 n=d#5 v=80
301440 On ch=2 n=g#5 v=80
301440 On ch=2 n=c6 v=80
301872 On ch=2 n=d#5 v=0
301872 On ch=2 n=g#5 v=0
301872 On ch=2 n=c6 v=0
301920 On ch=2 n=d#5 v=80
301920 On ch=2 n=g#5 v=80
301920 On ch=2 n=c6 v=80
302352 On ch=2 n=d#5 v=0
302352 On ch=2 n=g#5 v=0
302352 On ch=2 n=c6 v=0
302400 On ch=2 n=g#4 v=100
302640 On ch=2 n=g#4 v=0
302880 On ch=2 n=d#5 v=80
302880 On ch=2 n=g#5 v=80
302880 On ch=2 n=c6 v=80
303312 On ch=2 n=d#5 v=0
303312 On ch=2 n=g#5 v=0
303312 On ch=2 n=c6 v=0
303360 On ch=2 n=d#5 v=80
303360 On ch=2 n=g#5 v=80
303360 On ch=2 n=c6 v=80
303792 On ch=2 n=d#5 v=0
303792 On ch=2 n=g#5 v=0
303792 On ch=2 n=c6 v=0
303840 On ch=2 n=g#4 v=100
304080 On ch=2 n=g#4 v=0
304320 On ch=2 n=d#5 v=80
304320 On ch=2 n=g#5 v=80
304320 On ch=2 n=c6 v=80
304752 On ch=2 n=d#5 v=0
304752 On ch=2 n=g#5 v=0
304752 On ch=2 n=c6 v=0
304800 On ch=2 n=d#5 v=80
304800 On ch=2 n=g#5 v=80
304800 On ch=2 n=c6 v=80
305232 On ch=2 n=d#5 v=0
305232 On ch=2 n=g#5 v=0
305232 On ch=2 n=c6 v=0
305280 On ch=2 n=c#5 v=80
305280 On ch=2 n=g#5 v=80
305280 On ch=2 n=c#6 v=80
305712 On ch=2 n=c#5 v=0
305712 On ch=2 n=g#5 v=0
305712 On ch=2 n=c#6 v=0
306720 On ch=2 n=a#3 v=75
306960 On ch=2 n=a#3 v=0
307200 On ch=2 n=f4 v=75
307200 On ch=2 n=c#5 v=75
307632 On ch=2 n=f4 v=0
307632 On ch=2 n=c#5 v=0
307680 On ch=2 n=f4 v=75
307680 On ch=2 n=c#5 v=75
308112 On ch=2 n=f4 v=0
308112 On ch=2 n=c#5 v=0
308160 On ch=2 n=a3 v=75
308400 On ch=2 n=a3 v=0
308640 On ch=2 n=f4 v=75
308640 On ch=2 n=c5 v=75
308640 On ch=2 n=d#5 v=75
309072 On ch=2 n=f4 v=0
309072 On ch=2 n=c5 v=0
309072 On ch=2 n=d#5 v=0
309120 On ch=2 n=f4 v=75
309120 On ch=2 n=c5 v=75
309120 On ch=2 n=d#5 v=75
309552 On ch=2 n=f4 v=0
309552 On ch=2 n=c5 v=0
309552 On ch=2 n=d#5 v=0
309600 On ch=2 n=a#3 v=75
309840 On ch=2 n=a#3 v=0
310080 On ch=2 n=f4 v=74
310080 On ch=2 n=a#4 v=74
310080 On ch=2 n=c#5 v=74
310512 On ch=2 n=f4 v=0
310512 On ch=2 n=a#4 v=0
310512 On ch=2 n=c#5 v=0
310560 On ch=2 n=f4 v=73
310560 On ch=2 n=a#4 v=73
310560 On ch=2 n=c#5 v=73
310992 On ch=2 n=f4 v=0
310992 On ch=2 n=a#4 v=0
310992 On ch=2 n=c#5 v=0
311040 On ch=2 n=d#4 v=72
311280 On ch=2 n=d#4 v=0
311520 On ch=2 n=a#4 v=70
311520 On ch=2 n=c5 v=70
311520 On ch=2 n=f#5 v=70
311952 On ch=2 n=a#4 v=0
311952 On ch=2 n=c5 v=0
311952 On ch=2 n=f#5 v=0
312000 On ch=2 n=a#4 v=69
312000 On ch=2 n=c5 v=69
312000 On ch=2 n=f#5 v=69
312432 On ch=2 n=a#4 v=0
312432 On ch=2 n=c5 v=0
312432 On ch=2 n=f#5 v=0
312480 On ch=2 n=f4 v=68
312720 On ch=2 n=f4 v=0
312960 On ch=2 n=a#4 v=67
312960 On ch=2 n=c#5 v=67
312960 On ch=2 n=f5 v=67
313392 On ch=2 n=a#4 v=0
313392 On ch=2 n=c#5 v=0
313392 On ch=2 n=f5 v=0
313440 On ch=2 n=a#4 v=66
313440 On ch=2 n=c#5 v=66
313440 On ch=2 n=f5 v=66
313872 On ch=2 n=a#4 v=0
313872 On ch=2 n=c#5 v=0
313872 On ch=2 n=f5 v=0
313920 On ch=2 n=a#3 v=64
314160 On ch=2 n=a#3 v=0
314400 On ch=2 n=a4 v=61
314400 On ch=2 n=d#5 v=61
314400 On ch=2 n=f5 v=61
314832 On ch=2 n=a4 v=0
314832 On ch=2 n=d#5 v=0
314832 On ch=2 n=f5 v=0
314880 On ch=2 n=a4 v=58
314880 On ch=2 n=d#5 v=58
314880 On ch=2 n=f5 v=58
315312 On ch=2 n=a4 v=0
315312 On ch=2 n=d#5 v=0
315312 On ch=2 n=f5 v=0
315360 On ch=2 n=a#3 v=75
315600 On ch=2 n=a#3 v=0
315840 On ch=2 n=f4 v=75
315840 On ch=2 n=c#5 v=75
316272 On ch=2 n=f4 v=0
316272 On ch=2 n=c#5 v=0
316320 On ch=2 n=f4 v=75
316320 On ch=2 n=c#5 v=75
316752 On ch=2 n=f4 v=0
316752 On ch=2 n=c#5 v=0
316800 On ch=2 n=a#3 v=75
317040 On ch=2 n=a#3 v=0
317280 On ch=2 n=f4 v=76
317280 On ch=2 n=c#5 v=76
317712 On ch=2 n=f4 v=0
317712 On ch=2 n=c#5 v=0
317760 On ch=2 n=f4 v=77
317760 On ch=2 n=c#5 v=77
318192 On ch=2 n=f4 v=0
318192 On ch=2 n=c#5 v=0
318240 On ch=2 n=a#3 v=78
318480 On ch=2 n=a#3 v=0
318720 On ch=2 n=f4 v=78
318720 On ch=2 n=c#5 v=78
319152 On ch=2 n=f4 v=0
319152 On ch=2 n=c#5 v=0
319200 On ch=2 n=f4 v=79
319200 On ch=2 n=c#5 v=79
319632 On ch=2 n=f4 v=0
319632 On ch=2 n=c#5 v=0
319680 On ch=2 n=a3 v=80
319920 On ch=2 n=a3 v=0
320160 On ch=2 n=f4 v=81
320160 On ch=2 n=c5 v=81
320160 On ch=2 n=d#5 v=81
320592 On ch=2 n=f4 v=0
320592 On ch=2 n=c5 v=0
320592 On ch=2 n=d#5 v=0
320640 On ch=2 n=f4 v=82
320640 On ch=2 n=c5 v=82
320640 On ch=2 n=d#5 v=82
321072 On ch=2 n=f4 v=0
321072 On ch=2 n=c5 v=0
321072 On ch=2 n=d#5 v=0
321120 On ch=2 n=a#3 v=80
321360 On ch=2 n=a#3 v=0
321600 On ch=2 n=f4 v=78
321600 On ch=2 n=a#4 v=78
321600 On ch=2 n=c#5 v=78
322032 On ch=2 n=f4 v=0
322032 On ch=2 n=a#4 v=0
322032 On ch=2 n=c#5 v=0
322080 On ch=2 n=f4 v=75
322080 On ch=2 n=a#4 v=75
322080 On ch=2 n=c#5 v=75
322512 On ch=2 n=f4 v=0
322512 On ch=2 n=a#4 v=0
322512 On ch=2 n=c#5 v=0
322560 On ch=2 n=c4 v=73
322800 On ch=2 n=c4 v=0
323040 On ch=2 n=a#4 v=70
323040 On ch=2 n=c5 v=70
323040 On ch=2 n=f#5 v=70
323472 On ch=2 n=a#4 v=0
323472 On ch=2 n=c5 v=0
323472 On ch=2 n=f#5 v=0
323520 On ch=2 n=a#4 v=68
323520 On ch=2 n=c5 v=68
323520 On ch=2 n=f#5 v=68
323952 On ch=2 n=a#4 v=0
323952 On ch=2 n=c5 v=0
323952 On ch=2 n=f#5 v=0
324000 On ch=2 n=f4 v=75
324240 On ch=2 n=f4 v=0
324480 On ch=2 n=a#4 v=75
324480 On ch=2 n=c#5 v=75
324480 On ch=2 n=f5 v=75
324912 On ch=2 n=a#4 v=0
324912 On ch=2 n=c#5 v=0
324912 On ch=2 n=f5 v=0
324960 On ch=2 n=a#4 v=75
324960 On ch=2 n=c#5 v=75
324960 On ch=2 n=f5 v=75
325392 On ch=2 n=a#4 v=0
325392 On ch=2 n=c#5 v=0
325392 On ch=2 n=f5 v=0
325440 On ch=2 n=f4 v=75
325680 On ch=2 n=f4 v=0
325920 On ch=2 n=a4 v=75
325920 On ch=2 n=d#5 v=75
325920 On ch=2 n=f5 v=75
326352 On ch=2 n=a4 v=0
326352 On ch=2 n=d#5 v=0
326352 On ch=2 n=f5 v=0
326400 On ch=2 n=a4 v=75
326400 On ch=2 n=d#5 v=75
326400 On ch=2 n=f5 v=75
326832 On ch=2 n=a4 v=0
326832 On ch=2 n=d#5 v=0
326832 On ch=2 n=f5 v=0
326880 On ch=2 n=a#4 v=75
326880 On ch=2 n=c#5 v=75
326880 On ch=2 n=f5 v=75
327312 On ch=2 n=a#4 v=0
327312 On ch=2 n=c#5 v=0
327312 On ch=2 n=f5 v=0
329760 On ch=2 n=c#3 v=100
330000 On ch=2 n=c#3 v=0
330240 On ch=2 n=g#4 v=100
330240 On ch=2 n=c#4 v=100
330240 On ch=2 n=c5 v=100
330672 On ch=2 n=g#4 v=0
330672 On ch=2 n=c#4 v=0
330672 On ch=2 n=c5 v=0
330720 On ch=2 n=g#4 v=100
330720 On ch=2 n=c#4 v=100
330720 On ch=2 n=c5 v=100
331152 On ch=2 n=g#4 v=0
331152 On ch=2 n=c#4 v=0
331152 On ch=2 n=c5 v=0
331200 On ch=2 n=c#3 v=100
331440 On ch=2 n=c#3 v=0
331680 On ch=2 n=g#4 v=100
331680 On ch=2 n=c#4 v=100
331680 On ch=2 n=c5 v=100
332112 On ch=2 n=g#4 v=0
332112 On ch=2 n=c#4 v=0
332112 On ch=2 n=c5 v=0
332160 On ch=2 n=g#4 v=103
332160 On ch=2 n=c#4 v=103
332160 On ch=2 n=c5 v=103
332592 On ch=2 n=g#4 v=0
332592 On ch=2 n=c#4 v=0
332592 On ch=2 n=c5 v=0
332640 On ch=2 n=f#3 v=106
332880 On ch=2 n=f#3 v=0
333120 On ch=2 n=a#4 v=106
333120 On ch=2 n=f#4 v=106
333120 On ch=2 n=c#4 v=106
333552 On ch=2 n=a#4 v=0
333552 On ch=2 n=f#4 v=0
333552 On ch=2 n=c#4 v=0
333600 On ch=2 n=a#4 v=109
333600 On ch=2 n=f#4 v=109
333600 On ch=2 n=c#4 v=109
334032 On ch=2 n=a#4 v=0
334032 On ch=2 n=f#4 v=0
334032 On ch=2 n=c#4 v=0
334080 On ch=2 n=f#3 v=100
334320 On ch=2 n=f#3 v=0
334560 On ch=2 n=a#4 v=100
334560 On ch=2 n=d4 v=100
335035 On ch=2 n=a#4 v=0
335035 On ch=2 n=d4 v=0
335040 On ch=2 n=a#4 v=100
335040 On ch=2 n=d#4 v=100
335472 On ch=2 n=a#4 v=0
335472 On ch=2 n=d#4 v=0
335520 On ch=2 n=g#3 v=100
335760 On ch=2 n=g#3 v=0
336000 On ch=2 n=g#4 v=75
336000 On ch=2 n=d#4 v=75
336000 On ch=2 n=c5 v=75
336432 On ch=2 n=g#4 v=0
336432 On ch=2 n=d#4 v=0
336432 On ch=2 n=c5 v=0
336480 On ch=2 n=g#4 v=75
336480 On ch=2 n=d#4 v=75
336480 On ch=2 n=c5 v=75
336912 On ch=2 n=g#4 v=0
336912 On ch=2 n=d#4 v=0
336912 On ch=2 n=c5 v=0
336960 On ch=2 n=g#3 v=75
337200 On ch=2 n=g#3 v=0
337440 On ch=2 n=c5 v=75
337440 On ch=2 n=g#4 v=75
337440 On ch=2 n=d#4 v=75
337872 On ch=2 n=c5 v=0
337872 On ch=2 n=g#4 v=0
337872 On ch=2 n=d#4 v=0
337920 On ch=2 n=c5 v=75
337920 On ch=2 n=g#4 v=75
337920 On ch=2 n=d#4 v=75
338352 On ch=2 n=c5 v=0
338352 On ch=2 n=g#4 v=0
338352 On ch=2 n=d#4 v=0
338400 On ch=2 n=g#3 v=75
338640 On ch=2 n=g#3 v=0
338880 On ch=2 n=c5 v=75
338880 On ch=2 n=g#4 v=75
338880 On ch=2 n=d#4 v=75
339312 On ch=2 n=c5 v=0
339312 On ch=2 n=g#4 v=0
339312 On ch=2 n=d#4 v=0
339360 On ch=2 n=c5 v=75
339360 On ch=2 n=g#4 v=75
339360 On ch=2 n=d#4 v=75
339792 On ch=2 n=c5 v=0
339792 On ch=2 n=g#4 v=0
339792 On ch=2 n=d#4 v=0
339840 On ch=2 n=c#4 v=75
340320 On ch=2 n=g#4 v=75
340320 On ch=2 n=c#5 v=75
340752 On ch=2 n=g#4 v=0
340752 On ch=2 n=c#5 v=0
340800 On ch=2 n=g#4 v=75
340800 On ch=2 n=c#5 v=75
341136 On ch=2 n=c#4 v=0
341232 On ch=2 n=g#4 v=0
341232 On ch=2 n=c#5 v=0
341280 On ch=2 n=c#4 v=100
341520 On ch=2 n=c#4 v=0
341760 On ch=2 n=c#5 v=100
341760 On ch=2 n=g#5 v=100
341760 On ch=2 n=c6 v=100
342192 On ch=2 n=c#5 v=0
342192 On ch=2 n=g#5 v=0
342192 On ch=2 n=c6 v=0
342240 On ch=2 n=c#5 v=100
342240 On ch=2 n=g#5 v=100
342240 On ch=2 n=c6 v=100
342672 On ch=2 n=c#5 v=0
342672 On ch=2 n=g#5 v=0
342672 On ch=2 n=c6 v=0
342720 On ch=2 n=c#4 v=100
342960 On ch=2 n=c#4 v=0
343200 On ch=2 n=c#5 v=100
343200 On ch=2 n=g#5 v=100
343200 On ch=2 n=c6 v=100
343632 On ch=2 n=c#5 v=0
343632 On ch=2 n=g#5 v=0
343632 On ch=2 n=c6 v=0
343680 On ch=2 n=c#5 v=103
343680 On ch=2 n=g#5 v=103
343680 On ch=2 n=c6 v=103
344112 On ch=2 n=c#5 v=0
344112 On ch=2 n=g#5 v=0
344112 On ch=2 n=c6 v=0
344160 On ch=2 n=f#4 v=106
344400 On ch=2 n=f#4 v=0
344640 On ch=2 n=c#5 v=109
344640 On ch=2 n=f#5 v=109
344640 On ch=2 n=a#5 v=109
345072 On ch=2 n=c#5 v=0
345072 On ch=2 n=f#5 v=0
345072 On ch=2 n=a#5 v=0
345120 On ch=2 n=c#5 v=111
345120 On ch=2 n=f#5 v=111
345120 On ch=2 n=a#5 v=111
345552 On ch=2 n=c#5 v=0
345552 On ch=2 n=f#5 v=0
345552 On ch=2 n=a#5 v=0
345600 On ch=2 n=f#4 v=100
345840 On ch=2 n=f#4 v=0
346080 On ch=2 n=d5 v=100
346080 On ch=2 n=a#5 v=100
346555 On ch=2 n=d5 v=0
346555 On ch=2 n=a#5 v=0
346560 On ch=2 n=d5 v=100
346560 On ch=2 n=a#5 v=100
346992 On ch=2 n=d5 v=0
346992 On ch=2 n=a#5 v=0
347040 On ch=2 n=g#4 v=100
347280 On ch=2 n=g#4 v=0
347520 On ch=2 n=d#5 v=80
347520 On ch=2 n=g#5 v=80
347520 On ch=2 n=c6 v=80
347952 On ch=2 n=d#5 v=0
347952 On ch=2 n=g#5 v=0
347952 On ch=2 n=c6 v=0
348000 On ch=2 n=d#5 v=80
348000 On ch=2 n=g#5 v=80
348000 On ch=2 n=c6 v=80
348432 On ch=2 n=d#5 v=0
348432 On ch=2 n=g#5 v=0
348432 On ch=2 n=c6 v=0
348480 On ch=2 n=g#4 v=100
348720 On ch=2 n=g#4 v=0
348960 On ch=2 n=d#5 v=80
348960 On ch=2 n=g#5 v=80
348960 On ch=2 n=c6 v=80
349392 On ch=2 n=d#5 v=0
349392 On ch=2 n=g#5 v=0
349392 On ch=2 n=c6 v=0
349440 On ch=2 n=d#5 v=80
349440 On ch=2 n=g#5 v=80
349440 On ch=2 n=c6 v=80
349872 On ch=2 n=d#5 v=0
349872 On ch=2 n=g#5 v=0
349872 On ch=2 n=c6 v=0
349920 On ch=2 n=g#4 v=100
350160 On ch=2 n=g#4 v=0
350400 On ch=2 n=d#5 v=80
350400 On ch=2 n=g#5 v=80
350400 On ch=2 n=c6 v=80
350832 On ch=2 n=d#5 v=0
350832 On ch=2 n=g#5 v=0
350832 On ch=2 n=c6 v=0
350880 On ch=2 n=d#5 v=80
350880 On ch=2 n=g#5 v=80
350880 On ch=2 n=c6 v=80
351312 On ch=2 n=d#5 v=0
351312 On ch=2 n=g#5 v=0
351312 On ch=2 n=c6 v=0
351360 On ch=2 n=c#5 v=80
351360 On ch=2 n=g#5 v=80
351360 On ch=2 n=c#6 v=80
351792 On ch=2 n=c#5 v=0
351792 On ch=2 n=g#5 v=0
351792 On ch=2 n=c#6 v=0
352800 On ch=2 n=a#3 v=79
353280 On ch=2 n=f#4 v=83
353280 On ch=2 n=c#5 v=83
353712 On ch=2 n=f#4 v=0
353712 On ch=2 n=c#5 v=0
353760 On ch=2 n=f#4 v=86
353760 On ch=2 n=c#5 v=86
354096 On ch=2 n=a#3 v=0
354192 On ch=2 n=f#4 v=0
354192 On ch=2 n=c#5 v=0
354240 On ch=2 n=b3 v=81
354672 On ch=2 n=b3 v=0
354720 On ch=2 n=f#4 v=75
354720 On ch=2 n=g#4 v=75
354720 On ch=2 n=d#5 v=75
355152 On ch=2 n=f#4 v=0
355152 On ch=2 n=g#4 v=0
355152 On ch=2 n=d#5 v=0
355200 On ch=2 n=f#4 v=69
355200 On ch=2 n=g#4 v=69
355200 On ch=2 n=d#5 v=69
355632 On ch=2 n=f#4 v=0
355632 On ch=2 n=g#4 v=0
355632 On ch=2 n=d#5 v=0
355680 On ch=2 n=c#4 v=68
356160 On ch=2 n=f4 v=75
356160 On ch=2 n=b4 v=75
356592 On ch=2 n=f4 v=0
356592 On ch=2 n=b4 v=0
356640 On ch=2 n=f4 v=83
356640 On ch=2 n=b4 v=83
356976 On ch=2 n=c#4 v=0
357072 On ch=2 n=f4 v=0
357072 On ch=2 n=b4 v=0
357120 On ch=2 n=f#3 v=79
357552 On ch=2 n=f#3 v=0
357600 On ch=2 n=c#4 v=81
357600 On ch=2 n=a#4 v=81
358032 On ch=2 n=c#4 v=0
358032 On ch=2 n=a#4 v=0
358080 On ch=2 n=c#4 v=84
358080 On ch=2 n=a#4 v=84
358512 On ch=2 n=c#4 v=0
358512 On ch=2 n=a#4 v=0
358560 On ch=2 n=a#3 v=86
359040 On ch=2 n=f#4 v=89
359040 On ch=2 n=c#5 v=89
359472 On ch=2 n=f#4 v=0
359472 On ch=2 n=c#5 v=0
359520 On ch=2 n=f#4 v=91
359520 On ch=2 n=c#5 v=91
359856 On ch=2 n=a#3 v=0
359952 On ch=2 n=f#4 v=0
359952 On ch=2 n=c#5 v=0
360000 On ch=2 n=b3 v=80
360432 On ch=2 n=b3 v=0
360480 On ch=2 n=f#4 v=80
360480 On ch=2 n=g#4 v=80
360480 On ch=2 n=d#5 v=80
360912 On ch=2 n=f#4 v=0
360912 On ch=2 n=g#4 v=0
360912 On ch=2 n=d#5 v=0
360960 On ch=2 n=f#4 v=80
360960 On ch=2 n=g#4 v=80
360960 On ch=2 n=d#5 v=80
361392 On ch=2 n=f#4 v=0
361392 On ch=2 n=g#4 v=0
361392 On ch=2 n=d#5 v=0
361440 On ch=2 n=c#4 v=80
361920 On ch=2 n=f4 v=80
361920 On ch=2 n=b4 v=80
362352 On ch=2 n=f4 v=0
362352 On ch=2 n=b4 v=0
362400 On ch=2 n=f4 v=80
362400 On ch=2 n=b4 v=80
362736 On ch=2 n=c#4 v=0
362832 On ch=2 n=f4 v=0
362832 On ch=2 n=b4 v=0
362880 On ch=2 n=f#3 v=80
363312 On ch=2 n=f#3 v=0
363360 On ch=2 n=c#4 v=80
363360 On ch=2 n=a#4 v=80
363792 On ch=2 n=c#4 v=0
363792 On ch=2 n=a#4 v=0
363840 On ch=2 n=c#4 v=80
363840 On ch=2 n=a#4 v=80
364272 On ch=2 n=c#4 v=0
364272 On ch=2 n=a#4 v=0
364320 On ch=2 n=a#3 v=80
364800 On ch=2 n=f#4 v=80
364800 On ch=2 n=c#5 v=80
365232 On ch=2 n=f#4 v=0
365232 On ch=2 n=c#5 v=0
365280 On ch=2 n=f#4 v=80
365280 On ch=2 n=c#5 v=80
365616 On ch=2 n=a#3 v=0
365712 On ch=2 n=f#4 v=0
365712 On ch=2 n=c#5 v=0
365760 On ch=2 n=b3 v=80
366192 On ch=2 n=b3 v=0
366240 On ch=2 n=g4 v=80
366240 On ch=2 n=d#5 v=80
366672 On ch=2 n=g4 v=0
366672 On ch=2 n=d#5 v=0
366720 On ch=2 n=g4 v=80
366720 On ch=2 n=d#5 v=80
367152 On ch=2 n=g4 v=0
367152 On ch=2 n=d#5 v=0
367200 On ch=2 n=c#4 v=80
367680 On ch=2 n=g#4 v=80
367680 On ch=2 n=b4 v=80
368112 On ch=2 n=g#4 v=0
368112 On ch=2 n=b4 v=0
368160 On ch=2 n=g#4 v=80
368160 On ch=2 n=b4 v=80
368496 On ch=2 n=c#4 v=0
368592 On ch=2 n=g#4 v=0
368592 On ch=2 n=b4 v=0
368640 On ch=2 n=f#3 v=80
369072 On ch=2 n=f#3 v=0
369120 On ch=2 n=c#4 v=80
369120 On ch=2 n=a#4 v=80
369552 On ch=2 n=c#4 v=0
369552 On ch=2 n=a#4 v=0
369600 On ch=2 n=c#4 v=80
369600 On ch=2 n=a#4 v=80
370032 On ch=2 n=c#4 v=0
370032 On ch=2 n=a#4 v=0
370080 On ch=2 n=a#3 v=80
370560 On ch=2 n=f#4 v=80
370560 On ch=2 n=c#5 v=80
370992 On ch=2 n=f#4 v=0
370992 On ch=2 n=c#5 v=0
371040 On ch=2 n=f#4 v=80
371040 On ch=2 n=c#5 v=80
371376 On ch=2 n=a#3 v=0
371472 On ch=2 n=f#4 v=0
371472 On ch=2 n=c#5 v=0
371520 On ch=2 n=b3 v=80
371952 On ch=2 n=b3 v=0
372000 On ch=2 n=f#4 v=80
372000 On ch=2 n=g#4 v=80
372000 On ch=2 n=d#5 v=80
372432 On ch=2 n=f#4 v=0
372432 On ch=2 n=g#4 v=0
372432 On ch=2 n=d#5 v=0
372480 On ch=2 n=f#4 v=80
372480 On ch=2 n=g#4 v=80
372480 On ch=2 n=d#5 v=80
372912 On ch=2 n=f#4 v=0
372912 On ch=2 n=g#4 v=0
372912 On ch=2 n=d#5 v=0
372960 On ch=2 n=c#4 v=80
373440 On ch=2 n=f4 v=80
373440 On ch=2 n=b4 v=80
373872 On ch=2 n=f4 v=0
373872 On ch=2 n=b4 v=0
373920 On ch=2 n=f4 v=80
373920 On ch=2 n=b4 v=80
374256 On ch=2 n=c#4 v=0
374352 On ch=2 n=f4 v=0
374352 On ch=2 n=b4 v=0
374400 On ch=2 n=f#3 v=80
374832 On ch=2 n=f#3 v=0
374880 On ch=2 n=c#4 v=80
374880 On ch=2 n=a#4 v=80
375312 On ch=2 n=c#4 v=0
375312 On ch=2 n=a#4 v=0
375840 On ch=2 n=a#2 v=100
375840 On ch=2 n=a#3 v=100
376080 On ch=2 n=a#2 v=0
376080 On ch=2 n=a#3 v=0
376800 On ch=2 n=g#4 v=100
376800 On ch=2 n=a#4 v=100
376800 On ch=2 n=f5 v=100
377275 On ch=2 n=g#4 v=0
377275 On ch=2 n=a#4 v=0
377275 On ch=2 n=f5 v=0
377280 On ch=2 n=g4 v=100
377280 On ch=2 n=a#4 v=100
377280 On ch=2 n=e5 v=100
377712 On ch=2 n=g4 v=0
377712 On ch=2 n=a#4 v=0
377712 On ch=2 n=e5 v=0
378240 On ch=2 n=f#4 v=100
378240 On ch=2 n=a#4 v=100
378240 On ch=2 n=d#5 v=100
378715 On ch=2 n=f#4 v=0
378715 On ch=2 n=a#4 v=0
378715 On ch=2 n=d#5 v=0
378720 On ch=2 n=f4 v=100
378720 On ch=2 n=a#4 v=100
378720 On ch=2 n=d5 v=100
379152 On ch=2 n=f4 v=0
379152 On ch=2 n=a#4 v=0
379152 On ch=2 n=d5 v=0
379200 On ch=2 n=a#3 v=110
379200 On ch=2 n=a#2 v=110
379320 On ch=2 n=a#3 v=0
379320 On ch=2 n=a#2 v=0
379440 On ch=2 n=a#3 v=110
379440 On ch=2 n=a#2 v=110
379560 On ch=2 n=a#3 v=0
379560 On ch=2 n=a#2 v=0
379680 On ch=2 n=a#3 v=110
379680 On ch=2 n=a#2 v=110
379920 On ch=2 n=a#3 v=0
379920 On ch=2 n=a#2 v=0
380160 On ch=2 n=a#3 v=110
380160 On ch=2 n=a#2 v=110
380280 On ch=2 n=a#3 v=0
380280 On ch=2 n=a#2 v=0
380400 On ch=2 n=a#3 v=110
380400 On ch=2 n=a#2 v=110
380520 On ch=2 n=a#3 v=0
380520 On ch=2 n=a#2 v=0
380640 On ch=2 n=a#3 v=110
380640 On ch=2 n=a#2 v=110
380880 On ch=2 n=a#3 v=0
380880 On ch=2 n=a#2 v=0
381120 On ch=2 n=a#3 v=110
381120 On ch=2 n=a#2 v=110
381240 On ch=2 n=a#3 v=0
381240 On ch=2 n=a#2 v=0
381360 On ch=2 n=a#3 v=110
381360 On ch=2 n=a#2 v=110
381480 On ch=2 n=a#3 v=0
381480 On ch=2 n=a#2 v=0
381600 On ch=2 n=a#3 v=110
381600 On ch=2 n=a#2 v=110
381840 On ch=2 n=a#3 v=0
381840 On ch=2 n=a#2 v=0
382560 On ch=2 n=a#3 v=80
382560 On ch=2 n=g#4 v=80
383035 On ch=2 n=a#3 v=0
383035 On ch=2 n=g#4 v=0
383040 On ch=2 n=a#3 v=80
383040 On ch=2 n=g4 v=80
383472 On ch=2 n=a#3 v=0
383472 On ch=2 n=g4 v=0
384000 On ch=2 n=a#3 v=80
384000 On ch=2 n=f#4 v=80
384475 On ch=2 n=a#3 v=0
384475 On ch=2 n=f#4 v=0
384480 On ch=2 n=a#3 v=80
384480 On ch=2 n=f4 v=80
384912 On ch=2 n=a#3 v=0
384912 On ch=2 n=f4 v=0
387360 On ch=2 n=a#3 v=100
387360 On ch=2 n=a#2 v=100
387792 On ch=2 n=a#3 v=0
387792 On ch=2 n=a#2 v=0
387840 On ch=2 n=a#4 v=100
387840 On ch=2 n=f5 v=100
387840 On ch=2 n=g#5 v=100
388272 On ch=2 n=a#4 v=0
388272 On ch=2 n=f5 v=0
388272 On ch=2 n=g#5 v=0
388320 On ch=2 n=a#4 v=109
388320 On ch=2 n=f5 v=109
388320 On ch=2 n=g#5 v=109
388752 On ch=2 n=a#4 v=0
388752 On ch=2 n=f5 v=0
388752 On ch=2 n=g#5 v=0
388800 On ch=2 n=d#4 v=100
388800 On ch=2 n=d#3 v=100
389232 On ch=2 n=d#4 v=0
389232 On ch=2 n=d#3 v=0
389280 On ch=2 n=a#4 v=100
389280 On ch=2 n=d#5 v=100
389280 On ch=2 n=g5 v=100
389712 On ch=2 n=a#4 v=0
389712 On ch=2 n=d#5 v=0
389712 On ch=2 n=g5 v=0
389760 On ch=2 n=a#4 v=107
389760 On ch=2 n=d#5 v=107
389760 On ch=2 n=g5 v=107
390192 On ch=2 n=a#4 v=0
390192 On ch=2 n=d#5 v=0
390192 On ch=2 n=g5 v=0
390240 On ch=2 n=a#4 v=100
390240 On ch=2 n=a#3 v=100
390672 On ch=2 n=a#4 v=0
390672 On ch=2 n=a#3 v=0
390720 On ch=2 n=a#4 v=100
390720 On ch=2 n=d5 v=100
390720 On ch=2 n=g#5 v=100
391152 On ch=2 n=a#4 v=0
391152 On ch=2 n=d5 v=0
391152 On ch=2 n=g#5 v=0
391200 On ch=2 n=a#4 v=112
391200 On ch=2 n=d5 v=112
391200 On ch=2 n=g#5 v=112
391632 On ch=2 n=a#4 v=0
391632 On ch=2 n=d5 v=0
391632 On ch=2 n=g#5 v=0
391680 On ch=2 n=d#4 v=105
391920 On ch=2 n=d#4 v=0
392160 On ch=2 n=a#4 v=105
392160 On ch=2 n=c#5 v=105
392160 On ch=2 n=g5 v=105
392400 On ch=2 n=a#4 v=0
392400 On ch=2 n=c#5 v=0
392400 On ch=2 n=g5 v=0
392640 On ch=2 n=e4 v=105
393115 On ch=2 n=e4 v=0
393120 On ch=2 n=f4 v=105
393360 On ch=2 n=f4 v=0
393600 On ch=2 n=g#4 v=103
393600 On ch=2 n=f5 v=103
393840 On ch=2 n=g#4 v=0
393840 On ch=2 n=f5 v=0
394080 On ch=2 n=g#3 v=101
394320 On ch=2 n=g#3 v=0
394560 On ch=2 n=a#3 v=99
394800 On ch=2 n=a#3 v=0
395040 On ch=2 n=g4 v=97
395040 On ch=2 n=d#5 v=97
395472 On ch=2 n=g4 v=0
395472 On ch=2 n=d#5 v=0
395520 On ch=2 n=g4 v=95
395520 On ch=2 n=d#5 v=95
395952 On ch=2 n=g4 v=0
395952 On ch=2 n=d#5 v=0
396000 On ch=2 n=a#3 v=94
396240 On ch=2 n=a#3 v=0
396480 On ch=2 n=d5 v=92
396480 On ch=2 n=f4 v=92
396912 On ch=2 n=d5 v=0
396912 On ch=2 n=f4 v=0
396960 On ch=2 n=a#4 v=90
396960 On ch=2 n=d5 v=90
397392 On ch=2 n=a#4 v=0
397392 On ch=2 n=d5 v=0
397440 On ch=2 n=d#4 v=88
397920 On ch=2 n=a#4 v=86
397920 On ch=2 n=d#5 v=86
398352 On ch=2 n=a#4 v=0
398352 On ch=2 n=d#5 v=0
398400 On ch=2 n=a#4 v=84
398400 On ch=2 n=d#5 v=84
398736 On ch=2 n=d#4 v=0
398832 On ch=2 n=a#4 v=0
398832 On ch=2 n=d#5 v=0
398880 On ch=2 n=a#4 v=105
398880 On ch=2 n=a#3 v=105
399312 On ch=2 n=a#4 v=0
399312 On ch=2 n=a#3 v=0
399360 On ch=2 n=a#4 v=105
399360 On ch=2 n=d5 v=105
399360 On ch=2 n=f5 v=105
399792 On ch=2 n=a#4 v=0
399792 On ch=2 n=d5 v=0
399792 On ch=2 n=f5 v=0
399840 On ch=2 n=a#4 v=105
399840 On ch=2 n=d5 v=105
399840 On ch=2 n=f5 v=105
400272 On ch=2 n=a#4 v=0
400272 On ch=2 n=d5 v=0
400272 On ch=2 n=f5 v=0
400320 On ch=2 n=d#4 v=105
400320 On ch=2 n=d#3 v=105
400752 On ch=2 n=d#4 v=0
400752 On ch=2 n=d#3 v=0
400800 On ch=2 n=a#4 v=105
400800 On ch=2 n=d#5 v=105
400800 On ch=2 n=g5 v=105
401232 On ch=2 n=a#4 v=0
401232 On ch=2 n=d#5 v=0
401232 On ch=2 n=g5 v=0
401280 On ch=2 n=a#4 v=105
401280 On ch=2 n=d#5 v=105
401280 On ch=2 n=g5 v=105
401712 On ch=2 n=a#4 v=0
401712 On ch=2 n=d#5 v=0
401712 On ch=2 n=g5 v=0
401760 On ch=2 n=a#4 v=105
401760 On ch=2 n=a#3 v=105
402192 On ch=2 n=a#4 v=0
402192 On ch=2 n=a#3 v=0
402240 On ch=2 n=a#4 v=105
402240 On ch=2 n=d5 v=105
402240 On ch=2 n=g#5 v=105
402672 On ch=2 n=a#4 v=0
402672 On ch=2 n=d5 v=0
402672 On ch=2 n=g#5 v=0
402720 On ch=2 n=a#4 v=105
402720 On ch=2 n=d5 v=105
402720 On ch=2 n=g#5 v=105
403152 On ch=2 n=a#4 v=0
403152 On ch=2 n=d5 v=0
403152 On ch=2 n=g#5 v=0
403200 On ch=2 n=d#4 v=105
403440 On ch=2 n=d#4 v=0
403680 On ch=2 n=a#4 v=105
403680 On ch=2 n=c#5 v=105
403680 On ch=2 n=g5 v=105
403920 On ch=2 n=a#4 v=0
403920 On ch=2 n=c#5 v=0
403920 On ch=2 n=g5 v=0
404160 On ch=2 n=e4 v=105
404635 On ch=2 n=e4 v=0
404640 On ch=2 n=f4 v=100
404880 On ch=2 n=f4 v=0
405120 On ch=2 n=g#4 v=98
405120 On ch=2 n=g#5 v=98
405360 On ch=2 n=g#4 v=0
405360 On ch=2 n=g#5 v=0
405600 On ch=2 n=g#3 v=96
405840 On ch=2 n=g#3 v=0
406080 On ch=2 n=a#3 v=94
406320 On ch=2 n=a#3 v=0
406560 On ch=2 n=g4 v=92
406560 On ch=2 n=d#5 v=92
406992 On ch=2 n=g4 v=0
406992 On ch=2 n=d#5 v=0
407040 On ch=2 n=g4 v=91
407040 On ch=2 n=d#5 v=100
407472 On ch=2 n=g4 v=0
407472 On ch=2 n=d#5 v=0
407520 On ch=2 n=a#3 v=90
407760 On ch=2 n=a#3 v=0
408000 On ch=2 n=f4 v=88
408000 On ch=2 n=d5 v=88
408432 On ch=2 n=f4 v=0
408432 On ch=2 n=d5 v=0
408480 On ch=2 n=a#4 v=80
408480 On ch=2 n=d5 v=80
408955 On ch=2 n=a#4 v=0
408955 On ch=2 n=d5 v=0
408960 On ch=2 n=d#4 v=80
408960 On ch=2 n=a#4 v=80
408960 On ch=2 n=d#5 v=80
409392 On ch=2 n=d#4 v=0
409392 On ch=2 n=a#4 v=0
409392 On ch=2 n=d#5 v=0
409920 On ch=2 n=d#4 v=80
409920 On ch=2 n=g4 v=80
409920 On ch=2 n=c#5 v=80
410352 On ch=2 n=d#4 v=0
410352 On ch=2 n=g4 v=0
410352 On ch=2 n=c#5 v=0
410400 On ch=2 n=g#3 v=75
410832 On ch=2 n=g#3 v=0
410880 On ch=2 n=d#4 v=81
410880 On ch=2 n=g#4 v=81
410880 On ch=2 n=c5 v=81
411312 On ch=2 n=d#4 v=0
411312 On ch=2 n=g#4 v=0
411312 On ch=2 n=c5 v=0
411360 On ch=2 n=d#4 v=89
411360 On ch=2 n=g#4 v=89
411360 On ch=2 n=c5 v=89
411792 On ch=2 n=d#4 v=0
411792 On ch=2 n=g#4 v=0
411792 On ch=2 n=c5 v=0
411840 On ch=2 n=g#3 v=89
412272 On ch=2 n=g#3 v=0
412320 On ch=2 n=d#4 v=81
412320 On ch=2 n=g#4 v=81
412320 On ch=2 n=c5 v=75
412752 On ch=2 n=d#4 v=0
412752 On ch=2 n=g#4 v=0
412752 On ch=2 n=c5 v=0
412800 On ch=2 n=d#4 v=75
412800 On ch=2 n=g#4 v=75
412800 On ch=2 n=c5 v=75
413232 On ch=2 n=d#4 v=0
413232 On ch=2 n=g#4 v=0
413232 On ch=2 n=c5 v=0
413280 On ch=2 n=g#3 v=75
413712 On ch=2 n=g#3 v=0
413760 On ch=2 n=a#4 v=75
413760 On ch=2 n=a4 v=75
413760 On ch=2 n=d4 v=75
414192 On ch=2 n=a#4 v=0
414192 On ch=2 n=a4 v=0
414192 On ch=2 n=d4 v=0
414240 On ch=2 n=a#4 v=75
414240 On ch=2 n=a4 v=75
414240 On ch=2 n=d4 v=75
414672 On ch=2 n=a#4 v=0
414672 On ch=2 n=a4 v=0
414672 On ch=2 n=d4 v=0
414720 On ch=2 n=g#3 v=75
415152 On ch=2 n=g#3 v=0
415200 On ch=2 n=d#4 v=76
415200 On ch=2 n=g#4 v=76
415200 On ch=2 n=c5 v=76
415632 On ch=2 n=d#4 v=0
415632 On ch=2 n=g#4 v=0
415632 On ch=2 n=c5 v=0
415680 On ch=2 n=d#4 v=82
415680 On ch=2 n=g#4 v=82
415680 On ch=2 n=c5 v=82
416112 On ch=2 n=d#4 v=0
416112 On ch=2 n=g#4 v=0
416112 On ch=2 n=c5 v=0
416160 On ch=2 n=d4 v=75
416592 On ch=2 n=d4 v=0
416640 On ch=2 n=a4 v=75
416640 On ch=2 n=a#4 v=75
416640 On ch=2 n=f5 v=75
417072 On ch=2 n=a4 v=0
417072 On ch=2 n=a#4 v=0
417072 On ch=2 n=f5 v=0
417120 On ch=2 n=a4 v=75
417120 On ch=2 n=a#4 v=75
417120 On ch=2 n=f5 v=75
417552 On ch=2 n=a4 v=0
417552 On ch=2 n=a#4 v=0
417552 On ch=2 n=f5 v=0
417600 On ch=2 n=d#4 v=75
418032 On ch=2 n=d#4 v=0
418080 On ch=2 n=c5 v=80
418080 On ch=2 n=d#5 v=80
418080 On ch=2 n=g#5 v=80
418512 On ch=2 n=c5 v=0
418512 On ch=2 n=d#5 v=0
418512 On ch=2 n=g#5 v=0
418560 On ch=2 n=c5 v=85
418560 On ch=2 n=d#5 v=81
418560 On ch=2 n=g#5 v=85
418992 On ch=2 n=c5 v=0
418992 On ch=2 n=d#5 v=0
418992 On ch=2 n=g#5 v=0
419040 On ch=2 n=d#4 v=81
419472 On ch=2 n=d#4 v=0
419520 On ch=2 n=c#5 v=78
419520 On ch=2 n=d#5 v=78
419520 On ch=2 n=g5 v=78
419952 On ch=2 n=c#5 v=0
419952 On ch=2 n=d#5 v=0
419952 On ch=2 n=g5 v=0
420000 On ch=2 n=c#5 v=75
420000 On ch=2 n=d#5 v=75
420000 On ch=2 n=g5 v=75
420432 On ch=2 n=c#5 v=0
420432 On ch=2 n=d#5 v=0
420432 On ch=2 n=g5 v=0
420480 On ch=2 n=g#4 v=78
420912 On ch=2 n=g#4 v=0
420960 On ch=2 n=c5 v=75
420960 On ch=2 n=d#5 v=75
420960 On ch=2 n=g#5 v=75
421392 On ch=2 n=c5 v=0
421392 On ch=2 n=d#5 v=0
421392 On ch=2 n=g#5 v=0
421440 On ch=2 n=c5 v=70
421440 On ch=2 n=d#5 v=70
421440 On ch=2 n=g#5 v=70
421872 On ch=2 n=c5 v=0
421872 On ch=2 n=d#5 v=0
421872 On ch=2 n=g#5 v=0
421920 On ch=2 n=g#3 v=75
422352 On ch=2 n=g#3 v=0
422400 On ch=2 n=d#4 v=81
422400 On ch=2 n=g#4 v=81
422400 On ch=2 n=c5 v=81
422832 On ch=2 n=d#4 v=0
422832 On ch=2 n=g#4 v=0
422832 On ch=2 n=c5 v=0
422880 On ch=2 n=d#4 v=89
422880 On ch=2 n=g#4 v=89
422880 On ch=2 n=c5 v=89
423312 On ch=2 n=d#4 v=0
423312 On ch=2 n=g#4 v=0
423312 On ch=2 n=c5 v=0
423360 On ch=2 n=g#3 v=89
423792 On ch=2 n=g#3 v=0
423840 On ch=2 n=d#4 v=81
423840 On ch=2 n=g#4 v=81
423840 On ch=2 n=c5 v=75
424272 On ch=2 n=d#4 v=0
424272 On ch=2 n=g#4 v=0
424272 On ch=2 n=c5 v=0
424320 On ch=2 n=d#4 v=75
424320 On ch=2 n=g#4 v=75
424320 On ch=2 n=c5 v=75
424752 On ch=2 n=d#4 v=0
424752 On ch=2 n=g#4 v=0
424752 On ch=2 n=c5 v=0
424800 On ch=2 n=g#3 v=75
425232 On ch=2 n=g#3 v=0
425280 On ch=2 n=a#4 v=75
425280 On ch=2 n=a4 v=75
425280 On ch=2 n=d4 v=75
425712 On ch=2 n=a#4 v=0
425712 On ch=2 n=a4 v=0
425712 On ch=2 n=d4 v=0
425760 On ch=2 n=a#4 v=75
425760 On ch=2 n=a4 v=75
425760 On ch=2 n=d4 v=75
426192 On ch=2 n=a#4 v=0
426192 On ch=2 n=a4 v=0
426192 On ch=2 n=d4 v=0
426240 On ch=2 n=g#3 v=75
426672 On ch=2 n=g#3 v=0
426720 On ch=2 n=d#4 v=76
426720 On ch=2 n=g#4 v=76
426720 On ch=2 n=c5 v=76
427152 On ch=2 n=d#4 v=0
427152 On ch=2 n=g#4 v=0
427152 On ch=2 n=c5 v=0
427200 On ch=2 n=d#4 v=82
427200 On ch=2 n=g#4 v=82
427200 On ch=2 n=c5 v=82
427632 On ch=2 n=d#4 v=0
427632 On ch=2 n=g#4 v=0
427632 On ch=2 n=c5 v=0
427680 On ch=2 n=d4 v=75
428112 On ch=2 n=d4 v=0
428160 On ch=2 n=a4 v=75
428160 On ch=2 n=a#4 v=75
428160 On ch=2 n=f5 v=75
428592 On ch=2 n=a4 v=0
428592 On ch=2 n=a#4 v=0
428592 On ch=2 n=f5 v=0
428640 On ch=2 n=a4 v=75
428640 On ch=2 n=a#4 v=75
428640 On ch=2 n=f5 v=75
429072 On ch=2 n=a4 v=0
429072 On ch=2 n=a#4 v=0
429072 On ch=2 n=f5 v=0
429120 On ch=2 n=d#4 v=75
429552 On ch=2 n=d#4 v=0
429600 On ch=2 n=c5 v=80
429600 On ch=2 n=d#5 v=80
429600 On ch=2 n=g#5 v=80
430032 On ch=2 n=c5 v=0
430032 On ch=2 n=d#5 v=0
430032 On ch=2 n=g#5 v=0
430080 On ch=2 n=c5 v=89
430080 On ch=2 n=d#5 v=89
430080 On ch=2 n=g#5 v=89
430512 On ch=2 n=c5 v=0
430512 On ch=2 n=d#5 v=0
430512 On ch=2 n=g#5 v=0
430560 On ch=2 n=d#4 v=81
430992 On ch=2 n=d#4 v=0
431040 On ch=2 n=c#5 v=78
431040 On ch=2 n=d#5 v=78
431040 On ch=2 n=g5 v=78
431472 On ch=2 n=c#5 v=0
431472 On ch=2 n=d#5 v=0
431472 On ch=2 n=g5 v=0
431520 On ch=2 n=c#5 v=75
431520 On ch=2 n=d#5 v=75
431520 On ch=2 n=g5 v=75
431952 On ch=2 n=c#5 v=0
431952 On ch=2 n=d#5 v=0
431952 On ch=2 n=g5 v=0
432000 On ch=2 n=g#4 v=100
432480 On ch=2 n=c5 v=87
432480 On ch=2 n=g#5 v=87
432955 On ch=2 n=c5 v=0
432955 On ch=2 n=g#5 v=0
432960 On ch=2 n=f5 v=91
432960 On ch=2 n=g#5 v=91
433296 On ch=2 n=g#4 v=0
433392 On ch=2 n=f5 v=0
433392 On ch=2 n=g#5 v=0
433440 On ch=2 n=a#3 v=100
433440 On ch=2 n=a#4 v=100
433872 On ch=2 n=a#3 v=0
433872 On ch=2 n=a#4 v=0
433920 On ch=2 n=a#4 v=100
433920 On ch=2 n=f5 v=100
433920 On ch=2 n=g#5 v=100
434352 On ch=2 n=a#4 v=0
434352 On ch=2 n=f5 v=0
434352 On ch=2 n=g#5 v=0
434400 On ch=2 n=a#4 v=100
434400 On ch=2 n=f5 v=100
434400 On ch=2 n=g#5 v=100
434832 On ch=2 n=a#4 v=0
434832 On ch=2 n=f5 v=0
434832 On ch=2 n=g#5 v=0
434880 On ch=2 n=d#4 v=100
435312 On ch=2 n=d#4 v=0
435360 On ch=2 n=a#4 v=100
435360 On ch=2 n=d#5 v=100
435360 On ch=2 n=g5 v=100
435792 On ch=2 n=a#4 v=0
435792 On ch=2 n=d#5 v=0
435792 On ch=2 n=g5 v=0
435840 On ch=2 n=a#4 v=100
435840 On ch=2 n=d#5 v=100
435840 On ch=2 n=g5 v=100
436272 On ch=2 n=a#4 v=0
436272 On ch=2 n=d#5 v=0
436272 On ch=2 n=g5 v=0
436320 On ch=2 n=d4 v=100
436752 On ch=2 n=d4 v=0
436800 On ch=2 n=a#4 v=100
436800 On ch=2 n=f5 v=100
436800 On ch=2 n=g#5 v=100
437232 On ch=2 n=a#4 v=0
437232 On ch=2 n=f5 v=0
437232 On ch=2 n=g#5 v=0
437280 On ch=2 n=a#4 v=100
437280 On ch=2 n=f5 v=100
437280 On ch=2 n=g#5 v=100
437712 On ch=2 n=a#4 v=0
437712 On ch=2 n=f5 v=0
437712 On ch=2 n=g#5 v=0
437760 On ch=2 n=d#4 v=105
438000 On ch=2 n=d#4 v=0
438240 On ch=2 n=a#4 v=103
438240 On ch=2 n=g5 v=103
438240 On ch=2 n=c#5 v=103
438480 On ch=2 n=a#4 v=0
438480 On ch=2 n=g5 v=0
438480 On ch=2 n=c#5 v=0
438720 On ch=2 n=d#4 v=101
439195 On ch=2 n=d#4 v=0
439200 On ch=2 n=f4 v=99
439440 On ch=2 n=f4 v=0
439680 On ch=2 n=g#4 v=97
439680 On ch=2 n=f5 v=95
439920 On ch=2 n=g#4 v=0
439920 On ch=2 n=f5 v=0
440160 On ch=2 n=g#3 v=95
440400 On ch=2 n=g#3 v=0
440640 On ch=2 n=a#3 v=94
440880 On ch=2 n=a#3 v=0
441120 On ch=2 n=d#5 v=93
441120 On ch=2 n=g4 v=93
441552 On ch=2 n=d#5 v=0
441552 On ch=2 n=g4 v=0
441600 On ch=2 n=g4 v=92
441600 On ch=2 n=d#5 v=92
442032 On ch=2 n=g4 v=0
442032 On ch=2 n=d#5 v=0
442080 On ch=2 n=a#3 v=91
442320 On ch=2 n=a#3 v=0
442560 On ch=2 n=d5 v=90
442560 On ch=2 n=f4 v=90
442992 On ch=2 n=d5 v=0
442992 On ch=2 n=f4 v=0
443040 On ch=2 n=a#4 v=89
443040 On ch=2 n=d5 v=89
443472 On ch=2 n=a#4 v=0
443472 On ch=2 n=d5 v=0
443520 On ch=2 n=d#4 v=88
444000 On ch=2 n=a#4 v=87
444000 On ch=2 n=d#5 v=87
444432 On ch=2 n=a#4 v=0
444432 On ch=2 n=d#5 v=0
444480 On ch=2 n=a#4 v=86
444480 On ch=2 n=d#5 v=75
444816 On ch=2 n=d#4 v=0
444912 On ch=2 n=a#4 v=0
444912 On ch=2 n=d#5 v=0
444960 On ch=2 n=a#3 v=105
444960 On ch=2 n=a#2 v=105
445392 On ch=2 n=a#3 v=0
445392 On ch=2 n=a#2 v=0
445440 On ch=2 n=a#4 v=105
445440 On ch=2 n=f5 v=105
445440 On ch=2 n=g#5 v=105
445872 On ch=2 n=a#4 v=0
445872 On ch=2 n=f5 v=0
445872 On ch=2 n=g#5 v=0
445920 On ch=2 n=a#4 v=105
445920 On ch=2 n=f5 v=105
445920 On ch=2 n=g#5 v=105
446352 On ch=2 n=a#4 v=0
446352 On ch=2 n=f5 v=0
446352 On ch=2 n=g#5 v=0
446400 On ch=2 n=d#4 v=105
446400 On ch=2 n=d#3 v=105
446832 On ch=2 n=d#4 v=0
446832 On ch=2 n=d#3 v=0
446880 On ch=2 n=a#4 v=105
446880 On ch=2 n=d#5 v=105
446880 On ch=2 n=g5 v=105
447312 On ch=2 n=a#4 v=0
447312 On ch=2 n=d#5 v=0
447312 On ch=2 n=g5 v=0
447360 On ch=2 n=a#4 v=105
447360 On ch=2 n=d#5 v=105
447360 On ch=2 n=g5 v=105
447792 On ch=2 n=a#4 v=0
447792 On ch=2 n=d#5 v=0
447792 On ch=2 n=g5 v=0
447840 On ch=2 n=a#4 v=105
447840 On ch=2 n=a#3 v=105
448272 On ch=2 n=a#4 v=0
448272 On ch=2 n=a#3 v=0
448320 On ch=2 n=a#4 v=105
448320 On ch=2 n=d5 v=105
448320 On ch=2 n=g#5 v=105
448752 On ch=2 n=a#4 v=0
448752 On ch=2 n=d5 v=0
448752 On ch=2 n=g#5 v=0
448800 On ch=2 n=a#4 v=105
448800 On ch=2 n=d5 v=105
448800 On ch=2 n=g#5 v=105
449232 On ch=2 n=a#4 v=0
449232 On ch=2 n=d5 v=0
449232 On ch=2 n=g#5 v=0
449280 On ch=2 n=d#4 v=105
449280 On ch=2 n=a#4 v=105
449280 On ch=2 n=c#5 v=105
449280 On ch=2 n=g5 v=105
449712 On ch=2 n=d#4 v=0
449712 On ch=2 n=a#4 v=0
449712 On ch=2 n=c#5 v=0
449712 On ch=2 n=g5 v=0
451680 On ch=2 n=e4 v=80
451920 On ch=2 n=e4 v=0
452160 On ch=2 n=f4 v=79
452400 On ch=2 n=f4 v=0
452640 On ch=2 n=g#4 v=78
452640 On ch=2 n=f5 v=78
452880 On ch=2 n=g#4 v=0
452880 On ch=2 n=f5 v=0
453120 On ch=2 n=g#3 v=77
453360 On ch=2 n=g#3 v=0
453600 On ch=2 n=a#3 v=76
453840 On ch=2 n=a#3 v=0
454080 On ch=2 n=g4 v=75
454080 On ch=2 n=d#5 v=75
454320 On ch=2 n=g4 v=0
454320 On ch=2 n=d#5 v=0
454560 On ch=2 n=g4 v=74
454560 On ch=2 n=d#5 v=74
454800 On ch=2 n=g4 v=0
454800 On ch=2 n=d#5 v=0
455040 On ch=2 n=a#3 v=73
455280 On ch=2 n=a#3 v=0
455520 On ch=2 n=f4 v=72
455520 On ch=2 n=a#4 v=72
455520 On ch=2 n=d5 v=72
455760 On ch=2 n=f4 v=0
455760 On ch=2 n=a#4 v=0
455760 On ch=2 n=d5 v=0
456000 On ch=2 n=f4 v=71
456000 On ch=2 n=a#4 v=71
456000 On ch=2 n=d5 v=71
456240 On ch=2 n=f4 v=0
456240 On ch=2 n=a#4 v=0
456240 On ch=2 n=d5 v=0
457920 On ch=2 n=d#3 v=75
458352 On ch=2 n=d#3 v=0
458400 On ch=2 n=g4 v=75
458400 On ch=2 n=a#3 v=75
458832 On ch=2 n=g4 v=0
458832 On ch=2 n=a#3 v=0
458880 On ch=2 n=g4 v=75
458880 On ch=2 n=a#3 v=75
459312 On ch=2 n=g4 v=0
459312 On ch=2 n=a#3 v=0
459360 On ch=2 n=d#3 v=75
459792 On ch=2 n=d#3 v=0
459840 On ch=2 n=g4 v=75
459840 On ch=2 n=a#3 v=75
460272 On ch=2 n=g4 v=0
460272 On ch=2 n=a#3 v=0
460320 On ch=2 n=g4 v=75
460320 On ch=2 n=a#3 v=75
460752 On ch=2 n=g4 v=0
460752 On ch=2 n=a#3 v=0
460800 On ch=2 n=d#3 v=75
461232 On ch=2 n=d#3 v=0
461280 On ch=2 n=g4 v=75
461280 On ch=2 n=a#3 v=75
461712 On ch=2 n=g4 v=0
461712 On ch=2 n=a#3 v=0
461760 On ch=2 n=g4 v=75
461760 On ch=2 n=a#3 v=75
462192 On ch=2 n=g4 v=0
462192 On ch=2 n=a#3 v=0
462240 On ch=2 n=d#3 v=75
462672 On ch=2 n=d#3 v=0
462720 On ch=2 n=g4 v=75
462720 On ch=2 n=a#3 v=75
463152 On ch=2 n=g4 v=0
463152 On ch=2 n=a#3 v=0
463200 On ch=2 n=g4 v=75
463200 On ch=2 n=a#3 v=75
463632 On ch=2 n=g4 v=0
463632 On ch=2 n=a#3 v=0
463680 On ch=2 n=d#3 v=75
464112 On ch=2 n=d#3 v=0
464160 On ch=2 n=g4 v=75
464160 On ch=2 n=a#3 v=75
464592 On ch=2 n=g4 v=0
464592 On ch=2 n=a#3 v=0
464640 On ch=2 n=g4 v=75
464640 On ch=2 n=a#3 v=75
465072 On ch=2 n=g4 v=0
465072 On ch=2 n=a#3 v=0
465120 On ch=2 n=d#3 v=75
465552 On ch=2 n=d#3 v=0
465600 On ch=2 n=g4 v=75
465600 On ch=2 n=a#3 v=75
466032 On ch=2 n=g4 v=0
466032 On ch=2 n=a#3 v=0
466080 On ch=2 n=g4 v=75
466080 On ch=2 n=a#3 v=75
466512 On ch=2 n=g4 v=0
466512 On ch=2 n=a#3 v=0
466560 On ch=2 n=d#3 v=80
466992 On ch=2 n=d#3 v=0
467040 On ch=2 n=d#4 v=78
467040 On ch=2 n=g4 v=78
467040 On ch=2 n=c#5 v=78
467472 On ch=2 n=d#4 v=0
467472 On ch=2 n=g4 v=0
467472 On ch=2 n=c#5 v=0
467520 On ch=2 n=d#4 v=77
467520 On ch=2 n=g4 v=77
467520 On ch=2 n=c#5 v=77
467952 On ch=2 n=d#4 v=0
467952 On ch=2 n=g4 v=0
467952 On ch=2 n=c#5 v=0
468000 On ch=2 n=d#4 v=75
468000 On ch=2 n=g4 v=75
468000 On ch=2 n=c#5 v=75
468432 On ch=2 n=d#4 v=0
468432 On ch=2 n=g4 v=0
468432 On ch=2 n=c#5 v=0
468480 On ch=2 n=d#4 v=73
468480 On ch=2 n=g4 v=73
468480 On ch=2 n=c#5 v=73
468912 On ch=2 n=d#4 v=0
468912 On ch=2 n=g4 v=0
468912 On ch=2 n=c#5 v=0
468960 On ch=2 n=d#4 v=72
468960 On ch=2 n=g4 v=72
468960 On ch=2 n=c#5 v=72
469392 On ch=2 n=d#4 v=0
469392 On ch=2 n=g4 v=0
469392 On ch=2 n=c#5 v=0
469440 On ch=2 n=d#3 v=80
469872 On ch=2 n=d#3 v=0
469920 On ch=2 n=d#4 v=80
469920 On ch=2 n=g#4 v=80
469920 On ch=2 n=c5 v=80
470352 On ch=2 n=d#4 v=0
470352 On ch=2 n=g#4 v=0
470352 On ch=2 n=c5 v=0
470400 On ch=2 n=d#4 v=80
470400 On ch=2 n=g#4 v=80
470400 On ch=2 n=c5 v=80
470832 On ch=2 n=d#4 v=0
470832 On ch=2 n=g#4 v=0
470832 On ch=2 n=c5 v=0
470880 On ch=2 n=d#3 v=80
471312 On ch=2 n=d#3 v=0
471360 On ch=2 n=d#4 v=80
471360 On ch=2 n=g#4 v=80
471360 On ch=2 n=c5 v=80
471792 On ch=2 n=d#4 v=0
471792 On ch=2 n=g#4 v=0
471792 On ch=2 n=c5 v=0
471840 On ch=2 n=d#4 v=80
471840 On ch=2 n=g#4 v=80
471840 On ch=2 n=c5 v=80
472272 On ch=2 n=d#4 v=0
472272 On ch=2 n=g#4 v=0
472272 On ch=2 n=c5 v=0
472320 On ch=2 n=d#3 v=80
472752 On ch=2 n=d#3 v=0
472800 On ch=2 n=d#4 v=78
472800 On ch=2 n=g#4 v=78
472800 On ch=2 n=c5 v=78
473232 On ch=2 n=d#4 v=0
473232 On ch=2 n=g#4 v=0
473232 On ch=2 n=c5 v=0
473280 On ch=2 n=d#4 v=76
473280 On ch=2 n=g#4 v=76
473280 On ch=2 n=c5 v=76
473712 On ch=2 n=d#4 v=0
473712 On ch=2 n=g#4 v=0
473712 On ch=2 n=c5 v=0
473760 On ch=2 n=d#3 v=74
474192 On ch=2 n=d#3 v=0
474240 On ch=2 n=d#4 v=72
474240 On ch=2 n=g#4 v=72
474240 On ch=2 n=c5 v=72
474672 On ch=2 n=d#4 v=0
474672 On ch=2 n=g#4 v=0
474672 On ch=2 n=c5 v=0
474720 On ch=2 n=d#4 v=70
474720 On ch=2 n=g#4 v=70
474720 On ch=2 n=c5 v=70
475152 On ch=2 n=d#4 v=0
475152 On ch=2 n=g#4 v=0
475152 On ch=2 n=c5 v=0
475200 On ch=2 n=d#3 v=80
475200 On ch=2 n=d#4 v=80
475632 On ch=2 n=d#3 v=0
475632 On ch=2 n=d#4 v=0
475680 On ch=2 n=d#4 v=80
475680 On ch=2 n=g#4 v=80
475680 On ch=2 n=d5 v=80
476112 On ch=2 n=d#4 v=0
476112 On ch=2 n=g#4 v=0
476112 On ch=2 n=d5 v=0
476160 On ch=2 n=d#4 v=80
476160 On ch=2 n=g#4 v=80
476160 On ch=2 n=d5 v=80
476592 On ch=2 n=d#4 v=0
476592 On ch=2 n=g#4 v=0
476592 On ch=2 n=d5 v=0
476640 On ch=2 n=d#3 v=80
476640 On ch=2 n=d#4 v=80
477072 On ch=2 n=d#3 v=0
477072 On ch=2 n=d#4 v=0
477120 On ch=2 n=d#4 v=85
477120 On ch=2 n=g#4 v=85
477120 On ch=2 n=d5 v=85
477552 On ch=2 n=d#4 v=0
477552 On ch=2 n=g#4 v=0
477552 On ch=2 n=d5 v=0
477600 On ch=2 n=d#4 v=91
477600 On ch=2 n=g#4 v=91
477600 On ch=2 n=d5 v=91
478032 On ch=2 n=d#4 v=0
478032 On ch=2 n=g#4 v=0
478032 On ch=2 n=d5 v=0
478080 On ch=2 n=d#3 v=80
478080 On ch=2 n=d#4 v=80
478512 On ch=2 n=d#3 v=0
478512 On ch=2 n=d#4 v=0
478560 On ch=2 n=d#4 v=81
478560 On ch=2 n=g#4 v=81
478560 On ch=2 n=b4 v=81
478560 On ch=2 n=d5 v=81
478992 On ch=2 n=d#4 v=0
478992 On ch=2 n=g#4 v=0
478992 On ch=2 n=b4 v=0
478992 On ch=2 n=d5 v=0
479040 On ch=2 n=d#4 v=83
479040 On ch=2 n=g#4 v=83
479040 On ch=2 n=b4 v=83
479040 On ch=2 n=d5 v=83
479472 On ch=2 n=d#4 v=0
479472 On ch=2 n=g#4 v=0
479472 On ch=2 n=b4 v=0
479472 On ch=2 n=d5 v=0
479520 On ch=2 n=d#4 v=84
479520 On ch=2 n=g#4 v=84
479520 On ch=2 n=b4 v=84
479520 On ch=2 n=d5 v=84
479952 On ch=2 n=d#4 v=0
479952 On ch=2 n=g#4 v=0
479952 On ch=2 n=b4 v=0
479952 On ch=2 n=d5 v=0
480000 On ch=2 n=d#4 v=85
480000 On ch=2 n=g#4 v=85
480000 On ch=2 n=b4 v=85
480000 On ch=2 n=d5 v=85
480432 On ch=2 n=d#4 v=0
480432 On ch=2 n=g#4 v=0
480432 On ch=2 n=b4 v=0
480432 On ch=2 n=d5 v=0
480480 On ch=2 n=d#4 v=87
480480 On ch=2 n=g#4 v=87
480480 On ch=2 n=b4 v=87
480480 On ch=2 n=d5 v=87
480912 On ch=2 n=d#4 v=0
480912 On ch=2 n=g#4 v=0
480912 On ch=2 n=b4 v=0
480912 On ch=2 n=d5 v=0
480960 On ch=2 n=d#4 v=100
480960 On ch=2 n=g#4 v=100
480960 On ch=2 n=b4 v=100
480960 On ch=2 n=d5 v=100
481392 On ch=2 n=d#4 v=0
481392 On ch=2 n=g#4 v=0
481392 On ch=2 n=b4 v=0
481392 On ch=2 n=d5 v=0
481440 On ch=2 n=d#4 v=96
481440 On ch=2 n=g#4 v=96
481440 On ch=2 n=b4 v=96
481440 On ch=2 n=d5 v=96
481872 On ch=2 n=d#4 v=0
481872 On ch=2 n=g#4 v=0
481872 On ch=2 n=b4 v=0
481872 On ch=2 n=d5 v=0
481920 On ch=2 n=d#4 v=91
481920 On ch=2 n=g#4 v=91
481920 On ch=2 n=b4 v=91
481920 On ch=2 n=d5 v=91
482352 On ch=2 n=d#4 v=0
482352 On ch=2 n=g#4 v=0
482352 On ch=2 n=b4 v=0
482352 On ch=2 n=d5 v=0
482400 On ch=2 n=d#4 v=87
482400 On ch=2 n=g#4 v=87
482400 On ch=2 n=b4 v=87
482400 On ch=2 n=d5 v=87
482832 On ch=2 n=d#4 v=0
482832 On ch=2 n=g#4 v=0
482832 On ch=2 n=b4 v=0
482832 On ch=2 n=d5 v=0
482880 On ch=2 n=d#4 v=83
482880 On ch=2 n=g#4 v=83
482880 On ch=2 n=b4 v=83
482880 On ch=2 n=d5 v=83
483312 On ch=2 n=d#4 v=0
483312 On ch=2 n=g#4 v=0
483312 On ch=2 n=b4 v=0
483312 On ch=2 n=d5 v=0
483360 On ch=2 n=d#4 v=79
483360 On ch=2 n=g#4 v=79
483360 On ch=2 n=b4 v=79
483360 On ch=2 n=d5 v=79
483792 On ch=2 n=d#4 v=0
483792 On ch=2 n=g#4 v=0
483792 On ch=2 n=b4 v=0
483792 On ch=2 n=d5 v=0
483840 On ch=2 n=d#4 v=100
483840 On ch=2 n=g#4 v=100
483840 On ch=2 n=b4 v=100
483840 On ch=2 n=d5 v=100
484272 On ch=2 n=d#4 v=0
484272 On ch=2 n=g#4 v=0
484272 On ch=2 n=b4 v=0
484272 On ch=2 n=d5 v=0
484320 On ch=2 n=d#4 v=102
484320 On ch=2 n=g#4 v=102
484320 On ch=2 n=b4 v=102
484320 On ch=2 n=d5 v=102
484752 On ch=2 n=d#4 v=0
484752 On ch=2 n=g#4 v=0
484752 On ch=2 n=b4 v=0
484752 On ch=2 n=d5 v=0
484800 On ch=2 n=d#4 v=104
484800 On ch=2 n=g#4 v=104
484800 On ch=2 n=b4 v=104
484800 On ch=2 n=d5 v=104
485232 On ch=2 n=d#4 v=0
485232 On ch=2 n=g#4 v=0
485232 On ch=2 n=b4 v=0
485232 On ch=2 n=d5 v=0
485280 On ch=2 n=d#4 v=106
485280 On ch=2 n=g#4 v=106
485280 On ch=2 n=b4 v=106
485280 On ch=2 n=d5 v=106
485712 On ch=2 n=d#4 v=0
485712 On ch=2 n=g#4 v=0
485712 On ch=2 n=b4 v=0
485712 On ch=2 n=d5 v=0
485760 On ch=2 n=d#4 v=108
485760 On ch=2 n=g#4 v=108
485760 On ch=2 n=b4 v=108
485760 On ch=2 n=d5 v=108
486192 On ch=2 n=d#4 v=0
486192 On ch=2 n=g#4 v=0
486192 On ch=2 n=b4 v=0
486192 On ch=2 n=d5 v=0
486240 On ch=2 n=d#4 v=110
486240 On ch=2 n=g#4 v=110
486240 On ch=2 n=b4 v=110
486240 On ch=2 n=d5 v=110
486672 On ch=2 n=d#4 v=0
486672 On ch=2 n=g#4 v=0
486672 On ch=2 n=b4 v=0
486672 On ch=2 n=d5 v=0
486720 On ch=2 n=d#4 v=110
486720 On ch=2 n=d#3 v=110
487152 On ch=2 n=d#4 v=0
487152 On ch=2 n=d#3 v=0
487200 On ch=2 n=a#5 v=110
487200 On ch=2 n=g5 v=110
487200 On ch=2 n=d#5 v=110
487200 On ch=2 n=c#5 v=110
487632 On ch=2 n=a#5 v=0
487632 On ch=2 n=g5 v=0
487632 On ch=2 n=d#5 v=0
487632 On ch=2 n=c#5 v=0
487680 On ch=2 n=a#5 v=110
487680 On ch=2 n=g5 v=110
487680 On ch=2 n=d#5 v=110
487680 On ch=2 n=c#5 v=110
488112 On ch=2 n=a#5 v=0
488112 On ch=2 n=g5 v=0
488112 On ch=2 n=d#5 v=0
488112 On ch=2 n=c#5 v=0
488160 On ch=2 n=d#4 v=110
488160 On ch=2 n=d#3 v=110
488592 On ch=2 n=d#4 v=0
488592 On ch=2 n=d#3 v=0
488640 On ch=2 n=a#5 v=110
488640 On ch=2 n=g5 v=110
488640 On ch=2 n=d#5 v=110
488640 On ch=2 n=c5 v=110
489072 On ch=2 n=a#5 v=0
489072 On ch=2 n=g5 v=0
489072 On ch=2 n=d#5 v=0
489072 On ch=2 n=c5 v=0
489120 On ch=2 n=a#5 v=110
489120 On ch=2 n=g5 v=110
489120 On ch=2 n=d#5 v=110
489120 On ch=2 n=c5 v=110
489552 On ch=2 n=a#5 v=0
489552 On ch=2 n=g5 v=0
489552 On ch=2 n=d#5 v=0
489552 On ch=2 n=c5 v=0
489600 On ch=2 n=d#4 v=110
489600 On ch=2 n=d#3 v=110
490032 On ch=2 n=d#4 v=0
490032 On ch=2 n=d#3 v=0
490080 On ch=2 n=g#5 v=110
490080 On ch=2 n=f5 v=110
490080 On ch=2 n=d#5 v=110
490080 On ch=2 n=b4 v=110
490512 On ch=2 n=g#5 v=0
490512 On ch=2 n=f5 v=0
490512 On ch=2 n=d#5 v=0
490512 On ch=2 n=b4 v=0
490560 On ch=2 n=g#5 v=110
490560 On ch=2 n=f5 v=110
490560 On ch=2 n=d#5 v=110
490560 On ch=2 n=b4 v=110
490992 On ch=2 n=g#5 v=0
490992 On ch=2 n=f5 v=0
490992 On ch=2 n=d#5 v=0
490992 On ch=2 n=b4 v=0
491040 On ch=2 n=d#4 v=110
491040 On ch=2 n=d#3 v=110
491472 On ch=2 n=d#4 v=0
491472 On ch=2 n=d#3 v=0
491520 On ch=2 n=g4 v=110
491520 On ch=2 n=a#4 v=110
491520 On ch=2 n=d#5 v=110
491520 On ch=2 n=g5 v=110
491952 On ch=2 n=g4 v=0
491952 On ch=2 n=a#4 v=0
491952 On ch=2 n=d#5 v=0
491952 On ch=2 n=g5 v=0
492000 On ch=2 n=g4 v=110
492000 On ch=2 n=a#4 v=110
492000 On ch=2 n=d#5 v=110
492000 On ch=2 n=g5 v=110
492432 On ch=2 n=g4 v=0
492432 On ch=2 n=a#4 v=0
492432 On ch=2 n=d#5 v=0
492432 On ch=2 n=g5 v=0
492480 On ch=2 n=a#3 v=110
492480 On ch=2 n=a#2 v=110
492912 On ch=2 n=a#3 v=0
492912 On ch=2 n=a#2 v=0
492960 On ch=2 n=g#4 v=110
492960 On ch=2 n=a#4 v=110
492960 On ch=2 n=d5 v=110
492960 On ch=2 n=f5 v=110
493392 On ch=2 n=g#4 v=0
493392 On ch=2 n=a#4 v=0
493392 On ch=2 n=d5 v=0
493392 On ch=2 n=f5 v=0
493440 On ch=2 n=g#4 v=110
493440 On ch=2 n=a#4 v=110
493440 On ch=2 n=d5 v=110
493440 On ch=2 n=f5 v=110
493872 On ch=2 n=g#4 v=0
493872 On ch=2 n=a#4 v=0
493872 On ch=2 n=d5 v=0
493872 On ch=2 n=f5 v=0
493920 On ch=2 n=d#4 v=110
493920 On ch=2 n=d#3 v=110
494352 On ch=2 n=d#4 v=0
494352 On ch=2 n=d#3 v=0
494400 On ch=2 n=g4 v=110
494400 On ch=2 n=a#4 v=110
494400 On ch=2 n=d#5 v=110
494832 On ch=2 n=g4 v=0
494832 On ch=2 n=a#4 v=0
494832 On ch=2 n=d#5 v=0
494880 On ch=2 n=g4 v=110
494880 On ch=2 n=a#4 v=110
494880 On ch=2 n=d#5 v=110
495312 On ch=2 n=g4 v=0
495312 On ch=2 n=a#4 v=0
495312 On ch=2 n=d#5 v=0
495360 On ch=2 n=a#4 v=110
495360 On ch=2 n=a#3 v=110
495792 On ch=2 n=a#4 v=0
495792 On ch=2 n=a#3 v=0
495840 On ch=2 n=f4 v=110
495840 On ch=2 n=g#4 v=110
495840 On ch=2 n=a#4 v=110
495840 On ch=2 n=d5 v=110
496272 On ch=2 n=f4 v=0
496272 On ch=2 n=g#4 v=0
496272 On ch=2 n=a#4 v=0
496272 On ch=2 n=d5 v=0
496320 On ch=2 n=f4 v=110
496320 On ch=2 n=g#4 v=110
496320 On ch=2 n=a#4 v=110
496320 On ch=2 n=d5 v=110
496752 On ch=2 n=f4 v=0
496752 On ch=2 n=g#4 v=0
496752 On ch=2 n=a#4 v=0
496752 On ch=2 n=d5 v=0
496800 On ch=2 n=d#4 v=110
496800 On ch=2 n=d#3 v=110
497232 On ch=2 n=d#4 v=0
497232 On ch=2 n=d#3 v=0
497280 On ch=2 n=d#4 v=110
497280 On ch=2 n=a#4 v=110
497280 On ch=2 n=c#5 v=110
497712 On ch=2 n=d#4 v=0
497712 On ch=2 n=a#4 v=0
497712 On ch=2 n=c#5 v=0
497760 On ch=2 n=d#4 v=110
497760 On ch=2 n=a#4 v=110
497760 On ch=2 n=c#5 v=110
498192 On ch=2 n=d#4 v=0
498192 On ch=2 n=a#4 v=0
498192 On ch=2 n=c#5 v=0
498240 On ch=2 n=g#3 v=100
498240 On ch=2 n=g#4 v=100
498672 On ch=2 n=g#3 v=0
498672 On ch=2 n=g#4 v=0
498720 On ch=2 n=c5 v=102
498720 On ch=2 n=g#4 v=102
498720 On ch=2 n=d#4 v=102
499152 On ch=2 n=c5 v=0
499152 On ch=2 n=g#4 v=0
499152 On ch=2 n=d#4 v=0
499200 On ch=2 n=c5 v=110
499200 On ch=2 n=g#4 v=110
499200 On ch=2 n=d#4 v=110
499632 On ch=2 n=c5 v=0
499632 On ch=2 n=g#4 v=0
499632 On ch=2 n=d#4 v=0
499680 On ch=2 n=g#4 v=100
499680 On ch=2 n=g#3 v=100
500112 On ch=2 n=g#4 v=0
500112 On ch=2 n=g#3 v=0
500160 On ch=2 n=b4 v=100
500160 On ch=2 n=g#4 v=100
500160 On ch=2 n=d#4 v=100
500592 On ch=2 n=b4 v=0
500592 On ch=2 n=g#4 v=0
500592 On ch=2 n=d#4 v=0
500640 On ch=2 n=b4 v=108
500640 On ch=2 n=g#4 v=108
500640 On ch=2 n=d#4 v=108
501072 On ch=2 n=b4 v=0
501072 On ch=2 n=g#4 v=0
501072 On ch=2 n=d#4 v=0
501120 On ch=2 n=d#3 v=100
501552 On ch=2 n=d#3 v=0
501600 On ch=2 n=g4 v=104
501600 On ch=2 n=d#4 v=104
501600 On ch=2 n=a#3 v=104
502032 On ch=2 n=g4 v=0
502032 On ch=2 n=d#4 v=0
502032 On ch=2 n=a#3 v=0
502080 On ch=2 n=g4 v=113
502080 On ch=2 n=d#4 v=113
502080 On ch=2 n=a#3 v=113
502512 On ch=2 n=g4 v=0
502512 On ch=2 n=d#4 v=0
502512 On ch=2 n=a#3 v=0
502560 On ch=2 n=d#3 v=100
502992 On ch=2 n=d#3 v=0
503040 On ch=2 n=g4 v=98
503040 On ch=2 n=d#4 v=98
503040 On ch=2 n=a#3 v=98
503472 On ch=2 n=g4 v=0
503472 On ch=2 n=d#4 v=0
503472 On ch=2 n=a#3 v=0
503520 On ch=2 n=g4 v=96
503520 On ch=2 n=d#4 v=96
503520 On ch=2 n=a#3 v=96
503952 On ch=2 n=g4 v=0
503952 On ch=2 n=d#4 v=0
503952 On ch=2 n=a#3 v=0
504000 On ch=2 n=d#3 v=93
504432 On ch=2 n=d#3 v=0
504480 On ch=2 n=g#4 v=91
504480 On ch=2 n=d4 v=91
504480 On ch=2 n=a#3 v=91
504912 On ch=2 n=g#4 v=0
504912 On ch=2 n=d4 v=0
504912 On ch=2 n=a#3 v=0
504960 On ch=2 n=g#4 v=89
504960 On ch=2 n=d4 v=89
504960 On ch=2 n=a#3 v=89
505392 On ch=2 n=g#4 v=0
505392 On ch=2 n=d4 v=0
505392 On ch=2 n=a#3 v=0
505440 On ch=2 n=d#3 v=87
505872 On ch=2 n=d#3 v=0
505920 On ch=2 n=g4 v=84
505920 On ch=2 n=d#4 v=84
505920 On ch=2 n=a#3 v=84
506352 On ch=2 n=g4 v=0
506352 On ch=2 n=d#4 v=0
506352 On ch=2 n=a#3 v=0
506400 On ch=2 n=g4 v=82
506400 On ch=2 n=d#4 v=82
506400 On ch=2 n=a#3 v=82
506832 On ch=2 n=g4 v=0
506832 On ch=2 n=d#4 v=0
506832 On ch=2 n=a#3 v=0
506880 On ch=2 n=d#3 v=80
507312 On ch=2 n=d#3 v=0
507360 On ch=2 n=g#4 v=80
507360 On ch=2 n=f4 v=80
507360 On ch=2 n=a#3 v=80
507792 On ch=2 n=g#4 v=0
507792 On ch=2 n=f4 v=0
507792 On ch=2 n=a#3 v=0
507840 On ch=2 n=g#4 v=80
507840 On ch=2 n=f4 v=80
507840 On ch=2 n=a#3 v=80
508272 On ch=2 n=g#4 v=0
508272 On ch=2 n=f4 v=0
508272 On ch=2 n=a#3 v=0
508320 On ch=2 n=d#3 v=80
508752 On ch=2 n=d#3 v=0
508800 On ch=2 n=g4 v=80
508800 On ch=2 n=d#4 v=80
508800 On ch=2 n=a#3 v=80
509232 On ch=2 n=g4 v=0
509232 On ch=2 n=d#4 v=0
509232 On ch=2 n=a#3 v=0
509280 On ch=2 n=g4 v=80
509280 On ch=2 n=d#4 v=80
509280 On ch=2 n=a#3 v=80
509712 On ch=2 n=g4 v=0
509712 On ch=2 n=d#4 v=0
509712 On ch=2 n=a#3 v=0
509760 On ch=2 n=d#3 v=80
510192 On ch=2 n=d#3 v=0
510240 On ch=2 n=g#4 v=80
510240 On ch=2 n=f4 v=80
510240 On ch=2 n=a#3 v=80
510672 On ch=2 n=g#4 v=0
510672 On ch=2 n=f4 v=0
510672 On ch=2 n=a#3 v=0
510720 On ch=2 n=g#4 v=80
510720 On ch=2 n=f4 v=80
510720 On ch=2 n=a#3 v=80
511152 On ch=2 n=g#4 v=0
511152 On ch=2 n=f4 v=0
511152 On ch=2 n=a#3 v=0
511200 On ch=2 n=d#3 v=80
511632 On ch=2 n=d#3 v=0
511680 On ch=2 n=g4 v=80
511680 On ch=2 n=d#4 v=80
511680 On ch=2 n=a#3 v=80
512112 On ch=2 n=g4 v=0
512112 On ch=2 n=d#4 v=0
512112 On ch=2 n=a#3 v=0
512160 On ch=2 n=g4 v=80
512160 On ch=2 n=d#4 v=80
512160 On ch=2 n=a#3 v=80
512592 On ch=2 n=g4 v=0
512592 On ch=2 n=d#4 v=0
512592 On ch=2 n=a#3 v=0
512640 On ch=2 n=d#3 v=80
513072 On ch=2 n=d#3 v=0
513120 On ch=2 n=g#4 v=80
513120 On ch=2 n=f4 v=80
513120 On ch=2 n=a#3 v=80
513552 On ch=2 n=g#4 v=0
513552 On ch=2 n=f4 v=0
513552 On ch=2 n=a#3 v=0
513600 On ch=2 n=g#4 v=80
513600 On ch=2 n=f4 v=80
513600 On ch=2 n=a#3 v=80
514032 On ch=2 n=g#4 v=0
514032 On ch=2 n=f4 v=0
514032 On ch=2 n=a#3 v=0
514080 On ch=2 n=d#3 v=80
514512 On ch=2 n=d#3 v=0
514560 On ch=2 n=g4 v=80
514560 On ch=2 n=d#4 v=80
514560 On ch=2 n=a#3 v=80
514992 On ch=2 n=g4 v=0
514992 On ch=2 n=d#4 v=0
514992 On ch=2 n=a#3 v=0
515040 On ch=2 n=g4 v=80
515040 On ch=2 n=d#4 v=80
515040 On ch=2 n=a#3 v=80
515472 On ch=2 n=g4 v=0
515472 On ch=2 n=d#4 v=0
515472 On ch=2 n=a#3 v=0
515520 On ch=2 n=d#3 v=80
515952 On ch=2 n=d#3 v=0
516000 On ch=2 n=g#4 v=81
516000 On ch=2 n=f4 v=81
516000 On ch=2 n=a#3 v=81
516432 On ch=2 n=g#4 v=0
516432 On ch=2 n=f4 v=0
516432 On ch=2 n=a#3 v=0
516480 On ch=2 n=g#4 v=82
516480 On ch=2 n=f4 v=82
516480 On ch=2 n=a#3 v=82
516912 On ch=2 n=g#4 v=0
516912 On ch=2 n=f4 v=0
516912 On ch=2 n=a#3 v=0
516960 On ch=2 n=d#3 v=83
517392 On ch=2 n=d#3 v=0
517440 On ch=2 n=g#4 v=83
517440 On ch=2 n=f4 v=83
517440 On ch=2 n=a#3 v=83
517872 On ch=2 n=g#4 v=0
517872 On ch=2 n=f4 v=0
517872 On ch=2 n=a#3 v=0
517920 On ch=2 n=g#4 v=84
517920 On ch=2 n=f4 v=84
517920 On ch=2 n=a#3 v=84
518352 On ch=2 n=g#4 v=0
518352 On ch=2 n=f4 v=0
518352 On ch=2 n=a#3 v=0
518400 On ch=2 n=d#3 v=85
518832 On ch=2 n=d#3 v=0
518880 On ch=2 n=g#4 v=86
518880 On ch=2 n=f4 v=86
518880 On ch=2 n=a#3 v=86
519312 On ch=2 n=g#4 v=0
519312 On ch=2 n=f4 v=0
519312 On ch=2 n=a#3 v=0
519360 On ch=2 n=g#4 v=87
519360 On ch=2 n=f4 v=87
519360 On ch=2 n=a#3 v=87
519792 On ch=2 n=g#4 v=0
519792 On ch=2 n=f4 v=0
519792 On ch=2 n=a#3 v=0
519840 On ch=2 n=d#3 v=88
520272 On ch=2 n=d#3 v=0
520320 On ch=2 n=g#4 v=88
520320 On ch=2 n=f4 v=88
520320 On ch=2 n=a#3 v=88
520752 On ch=2 n=g#4 v=0
520752 On ch=2 n=f4 v=0
520752 On ch=2 n=a#3 v=0
520800 On ch=2 n=g#4 v=89
520800 On ch=2 n=f4 v=89
520800 On ch=2 n=a#3 v=89
521232 On ch=2 n=g#4 v=0
521232 On ch=2 n=f4 v=0
521232 On ch=2 n=a#3 v=0
521280 On ch=2 n=d#3 v=105
521280 On ch=2 n=d#4 v=105
521712 On ch=2 n=d#3 v=0
521712 On ch=2 n=d#4 v=0
521760 On ch=2 n=d#4 v=105
521760 On ch=2 n=g#4 v=105
521760 On ch=2 n=b4 v=105
521760 On ch=2 n=d5 v=105
522192 On ch=2 n=d#4 v=0
522192 On ch=2 n=g#4 v=0
522192 On ch=2 n=b4 v=0
522192 On ch=2 n=d5 v=0
522720 On ch=2 n=d#4 v=105
522720 On ch=2 n=g#4 v=105
522720 On ch=2 n=b4 v=105
522720 On ch=2 n=d5 v=105
523152 On ch=2 n=d#4 v=0
523152 On ch=2 n=g#4 v=0
523152 On ch=2 n=b4 v=0
523152 On ch=2 n=d5 v=0
523200 On ch=2 n=d#4 v=105
523200 On ch=2 n=g#4 v=105
523200 On ch=2 n=b4 v=105
523200 On ch=2 n=d5 v=105
523632 On ch=2 n=d#4 v=0
523632 On ch=2 n=g#4 v=0
523632 On ch=2 n=b4 v=0
523632 On ch=2 n=d5 v=0
524160 On ch=2 n=d#4 v=105
524160 On ch=2 n=g#4 v=105
524160 On ch=2 n=b4 v=105
524160 On ch=2 n=d5 v=105
524592 On ch=2 n=d#4 v=0
524592 On ch=2 n=g#4 v=0
524592 On ch=2 n=b4 v=0
524592 On ch=2 n=d5 v=0
524640 On ch=2 n=d#4 v=105
524640 On ch=2 n=g#4 v=105
524640 On ch=2 n=b4 v=105
524640 On ch=2 n=d5 v=105
525072 On ch=2 n=d#4 v=0
525072 On ch=2 n=g#4 v=0
525072 On ch=2 n=b4 v=0
525072 On ch=2 n=d5 v=0
527040 On ch=2 n=d#3 v=105
527040 On ch=2 n=d#2 v=105
527472 On ch=2 n=d#3 v=0
527472 On ch=2 n=d#2 v=0
530400 On ch=2 n=g4 v=80
530400 On ch=2 n=a#4 v=80
530400 On ch=2 n=d#5 v=80
530832 On ch=2 n=g4 v=0
530832 On ch=2 n=a#4 v=0
530832 On ch=2 n=d#5 v=0
530880 On ch=2 n=g4 v=80
530880 On ch=2 n=a#4 v=80
530880 On ch=2 n=d#5 v=80
530880 On ch=2 n=g5 v=80
531312 On ch=2 n=g4 v=0
531312 On ch=2 n=a#4 v=0
531312 On ch=2 n=d#5 v=0
531312 On ch=2 n=g5 v=0
531360 On ch=2 n=g4 v=80
531360 On ch=2 n=a#4 v=80
531360 On ch=2 n=d#5 v=80
531360 On ch=2 n=g5 v=80
531792 On ch=2 n=g4 v=0
531792 On ch=2 n=a#4 v=0
531792 On ch=2 n=d#5 v=0
531792 On ch=2 n=g5 v=0
531840 On ch=2 n=g4 v=80
531840 On ch=2 n=a#4 v=80
531840 On ch=2 n=d#5 v=80
531840 On ch=2 n=g5 v=80
532272 On ch=2 n=g4 v=0
532272 On ch=2 n=a#4 v=0
532272 On ch=2 n=d#5 v=0
532272 On ch=2 n=g5 v=0
532320 On ch=2 n=g4 v=80
532320 On ch=2 n=a#4 v=80
532320 On ch=2 n=d#5 v=80
532320 On ch=2 n=g5 v=80
532752 On ch=2 n=g4 v=0
532752 On ch=2 n=a#4 v=0
532752 On ch=2 n=d#5 v=0
532752 On ch=2 n=g5 v=0
532800 On ch=2 n=g4 v=80
532800 On ch=2 n=a#4 v=80
532800 On ch=2 n=d#5 v=80
532800 On ch=2 n=g5 v=80
533232 On ch=2 n=g4 v=0
533232 On ch=2 n=a#4 v=0
533232 On ch=2 n=d#5 v=0
533232 On ch=2 n=g5 v=0
533280 On ch=2 n=g4 v=80
533280 On ch=2 n=a#4 v=80
533280 On ch=2 n=d#5 v=80
533280 On ch=2 n=g5 v=80
533712 On ch=2 n=g4 v=0
533712 On ch=2 n=a#4 v=0
533712 On ch=2 n=d#5 v=0
533712 On ch=2 n=g5 v=0
533760 On ch=2 n=g4 v=79
533760 On ch=2 n=a#4 v=79
533760 On ch=2 n=d#5 v=79
533760 On ch=2 n=g5 v=79
534192 On ch=2 n=g4 v=0
534192 On ch=2 n=a#4 v=0
534192 On ch=2 n=d#5 v=0
534192 On ch=2 n=g5 v=0
534240 On ch=2 n=g4 v=79
534240 On ch=2 n=a#4 v=79
534240 On ch=2 n=d#5 v=79
534240 On ch=2 n=g5 v=79
534672 On ch=2 n=g4 v=0
534672 On ch=2 n=a#4 v=0
534672 On ch=2 n=d#5 v=0
534672 On ch=2 n=g5 v=0
534720 On ch=2 n=g4 v=79
534720 On ch=2 n=a#4 v=79
534720 On ch=2 n=d#5 v=79
534720 On ch=2 n=g5 v=79
535152 On ch=2 n=g4 v=0
535152 On ch=2 n=a#4 v=0
535152 On ch=2 n=d#5 v=0
535152 On ch=2 n=g5 v=0
535200 On ch=2 n=g4 v=78
535200 On ch=2 n=a#4 v=78
535200 On ch=2 n=d#5 v=78
535200 On ch=2 n=g5 v=78
535632 On ch=2 n=g4 v=0
535632 On ch=2 n=a#4 v=0
535632 On ch=2 n=d#5 v=0
535632 On ch=2 n=g5 v=0
535680 On ch=2 n=g4 v=78
535680 On ch=2 n=a#4 v=78
535680 On ch=2 n=d#5 v=78
535680 On ch=2 n=g5 v=78
536112 On ch=2 n=g4 v=0
536112 On ch=2 n=a#4 v=0
536112 On ch=2 n=d#5 v=0
536112 On ch=2 n=g5 v=0
536160 On ch=2 n=g4 v=78
536160 On ch=2 n=a#4 v=78
536160 On ch=2 n=d#5 v=78
536160 On ch=2 n=g5 v=78
536592 On ch=2 n=g4 v=0
536592 On ch=2 n=a#4 v=0
536592 On ch=2 n=d#5 v=0
536592 On ch=2 n=g5 v=0
536640 On ch=2 n=g4 v=77
536640 On ch=2 n=a#4 v=77
536640 On ch=2 n=d#5 v=77
536640 On ch=2 n=g5 v=77
537072 On ch=2 n=g4 v=0
537072 On ch=2 n=a#4 v=0
537072 On ch=2 n=d#5 v=0
537072 On ch=2 n=g5 v=0
537120 On ch=2 n=g4 v=77
537120 On ch=2 n=a#4 v=77
537120 On ch=2 n=d#5 v=77
537120 On ch=2 n=g5 v=77
537552 On ch=2 n=g4 v=0
537552 On ch=2 n=a#4 v=0
537552 On ch=2 n=d#5 v=0
537552 On ch=2 n=g5 v=0
537600 On ch=2 n=g4 v=77
537600 On ch=2 n=a#4 v=77
537600 On ch=2 n=d#5 v=77
537600 On ch=2 n=g5 v=77
538032 On ch=2 n=g4 v=0
538032 On ch=2 n=a#4 v=0
538032 On ch=2 n=d#5 v=0
538032 On ch=2 n=g5 v=0
538080 On ch=2 n=g4 v=76
538080 On ch=2 n=a#4 v=76
538080 On ch=2 n=d#5 v=76
538080 On ch=2 n=g5 v=76
538512 On ch=2 n=g4 v=0
538512 On ch=2 n=a#4 v=0
538512 On ch=2 n=d#5 v=0
538512 On ch=2 n=g5 v=0
538560 On ch=2 n=g4 v=76
538560 On ch=2 n=a#4 v=76
538560 On ch=2 n=d#5 v=76
538560 On ch=2 n=g5 v=76
538992 On ch=2 n=g4 v=0
538992 On ch=2 n=a#4 v=0
538992 On ch=2 n=d#5 v=0
538992 On ch=2 n=g5 v=0
540000 On ch=2 n=d#5 v=75
540000 On ch=2 n=g4 v=75
540000 On ch=2 n=d#4 v=75
540432 On ch=2 n=d#5 v=0
540432 On ch=2 n=g4 v=0
540432 On ch=2 n=d#4 v=0
541440 On ch=2 n=g4 v=74
541440 On ch=2 n=a#4 v=74
541440 On ch=2 n=d#5 v=74
541440 On ch=2 n=g5 v=74
541872 On ch=2 n=g4 v=0
541872 On ch=2 n=a#4 v=0
541872 On ch=2 n=d#5 v=0
541872 On ch=2 n=g5 v=0
542880 On ch=2 n=a#5 v=73
542880 On ch=2 n=g5 v=73
542880 On ch=2 n=a#4 v=73
543312 On ch=2 n=a#5 v=0
543312 On ch=2 n=g5 v=0
543312 On ch=2 n=a#4 v=0
544320 On ch=2 n=d#6 v=72
544320 On ch=2 n=g5 v=72
544320 On ch=2 n=d#5 v=72
544752 On ch=2 n=d#6 v=0
544752 On ch=2 n=g5 v=0
544752 On ch=2 n=d#5 v=0
545760 On ch=2 n=a#5 v=71
545760 On ch=2 n=g5 v=71
545760 On ch=2 n=a#4 v=71
546192 On ch=2 n=a#5 v=0
546192 On ch=2 n=g5 v=0
546192 On ch=2 n=a#4 v=0
547200 On ch=2 n=g6 v=70
547200 On ch=2 n=d#6 v=70
547200 On ch=2 n=g5 v=70
547632 On ch=2 n=g6 v=0
547632 On ch=2 n=d#6 v=0
547632 On ch=2 n=g5 v=0
548640 On ch=2 n=a#5 v=69
548640 On ch=2 n=a#6 v=69
548640 On ch=2 n=g6 v=69
549072 On ch=2 n=a#5 v=0
549072 On ch=2 n=a#6 v=0
549072 On ch=2 n=g6 v=0
550080 On ch=2 n=g6 v=80
550080 On ch=2 n=d#7 v=80
550080 On ch=2 n=g7 v=80
550512 On ch=2 n=g6 v=0
550512 On ch=2 n=d#7 v=0
550512 On ch=2 n=g7 v=0
552960 On ch=2 n=d#6 v=105
552960 On ch=2 n=a#5 v=105
552960 On ch=2 n=d#5 v=105
553392 On ch=2 n=d#6 v=0
553392 On ch=2 n=a#5 v=0
553392 On ch=2 n=d#5 v=0
554400 On ch=2 n=d#4 v=110
554400 On ch=2 n=a#4 v=110
554400 On ch=2 n=d#5 v=110
554832 On ch=2 n=d#4 v=0
554832 On ch=2 n=a#4 v=0
554832 On ch=2 n=d#5 v=0
554880 On ch=2 n=d#4 v=110
554880 On ch=2 n=a#4 v=110
554880 On ch=2 n=d#5 v=110
555312 On ch=2 n=d#4 v=0
555312 On ch=2 n=a#4 v=0
555312 On ch=2 n=d#5 v=0
555360 On ch=2 n=d#4 v=110
555360 On ch=2 n=a#4 v=110
555360 On ch=2 n=d#5 v=110
555792 On ch=2 n=d#4 v=0
555792 On ch=2 n=a#4 v=0
555792 On ch=2 n=d#5 v=0
555840 On ch=2 n=d#4 v=110
555840 On ch=2 n=d#3 v=110
555840 On ch=2 n=d#2 v=110
557265 On ch=2 n=d#4 v=0
557265 On ch=2 n=d#3 v=0
557265 On ch=2 n=d#2 v=0
557392 Meta TrkEnd
TrkEnd
