MFile 1 9 480
MTrk
0 SMPTE 96 0 3 0 0
0 TimeSig 4/4 24 8
0 KeySig 5 major
0 Tempo 666667
1440 Tempo 655738
1920 Tempo 655738
2400 Tempo 652174
2880 Tempo 659341
3360 Tempo 655738
3840 Tempo 666667
4320 Tempo 645161
4800 Tempo 645161
5280 Tempo 655738
5760 Tempo 666667
6240 Tempo 659341
6720 Tempo 666667
8160 Tempo 655738
8640 Tempo 666667
9120 Tempo 655738
9600 Tempo 666667
10560 Tempo 648649
11040 Tempo 655738
11520 Tempo 666667
12000 Tempo 652174
12480 Tempo 666667
12960 Tempo 655738
13440 Tempo 648649
13920 Tempo 655738
14880 Tempo 666667
15360 Tempo 666667
16320 Tempo 655738
16800 Tempo 674157
17280 Tempo 666667
17760 Tempo 677966
18240 Tempo 666667
18720 Tempo 655738
19200 Tempo 666667
19440 Tempo 659341
19680 Tempo 648649
20160 Tempo 662983
20640 Tempo 652174
21120 Tempo 655738
21600 Tempo 645161
22080 Tempo 634921
22560 Tempo 655738
23040 Tempo 666667
23520 Tempo 652174
24000 Tempo 666667
25440 Tempo 655738
25920 Tempo 666667
26880 Tempo 666667
27360 Tempo 659341
27840 Tempo 648649
28320 Tempo 666667
30240 Tempo 655738
30720 Tempo 666667
32160 Tempo 655738
32640 Tempo 666667
33120 Tempo 659341
33600 Tempo 648649
34080 Tempo 655738
34560 Tempo 666667
35040 Tempo 652174
35520 Tempo 666667
36000 Tempo 655738
36480 Tempo 670391
37920 Tempo 701754
38400 Tempo 652174
38880 Tempo 638298
39360 Tempo 652174
39840 Tempo 641711
41280 Tempo 655738
41760 Tempo 648649
42240 Tempo 645161
42720 Tempo 638298
43200 Tempo 631579
43680 Tempo 641711
45120 Tempo 655738
45600 Tempo 645161
46080 Tempo 638298
46560 Tempo 625000
47040 Tempo 641711
47520 Tempo 628272
48960 Tempo 638298
49920 Tempo 631579
50400 Tempo 625000
50880 Tempo 618557
51360 Tempo 628272
51840 Tempo 618557
52800 Tempo 618557
53280 Tempo 634921
53760 Tempo 625000
54720 Tempo 638298
55680 Tempo 638298
56160 Tempo 628272
56640 Tempo 638298
57600 Tempo 625000
58560 Tempo 641711
60000 Tempo 631579
60960 Tempo 641711
63840 Tempo 631579
64800 Tempo 641711
65280 Tempo 641711
67200 Tempo 655738
67680 Tempo 631579
68160 Tempo 641711
68640 Tempo 652174
69600 Tempo 628272
70080 Tempo 645161
70560 Tempo 659341
71040 Tempo 659341
72000 Tempo 652174
72480 Tempo 641711
72960 Tempo 652174
73440 Tempo 631579
73680 Tempo 641711
73920 Tempo 634921
74400 Tempo 638298
74880 Tempo 645161
75360 Tempo 638298
75840 Tempo 641711
76320 Tempo 652174
76800 Tempo 666667
77280 Tempo 652174
77760 Tempo 662983
78240 Tempo 652174
78720 Tempo 666667
79200 Tempo 655738
79680 Tempo 662983
80160 Tempo 652174
80640 Tempo 662983
81600 Tempo 648649
82080 Tempo 655738
82560 Tempo 666667
83040 Tempo 652174
83520 Tempo 666667
84000 Tempo 655738
84480 Tempo 648649
84960 Tempo 655738
85920 Tempo 666667
86400 Tempo 666667
87360 Tempo 655738
87840 Tempo 674157
88320 Tempo 666667
88800 Tempo 689655
89280 Tempo 666667
89760 Tempo 655738
90240 Tempo 666667
90720 Tempo 652174
91200 Tempo 666667
91680 Tempo 655738
92160 Tempo 659341
92640 Tempo 645161
93120 Tempo 645161
93600 Tempo 655738
94080 Tempo 666667
96000 Tempo 662983
96480 Tempo 655738
96960 Tempo 666667
97920 Tempo 666667
98880 Tempo 648649
99360 Tempo 666667
99840 Tempo 666667
100800 Tempo 648649
101280 Tempo 655738
101760 Tempo 666667
102240 Tempo 652174
102720 Tempo 666667
103200 Tempo 655738
103680 Tempo 670391
104160 Tempo 655738
105120 Tempo 662983
105600 Tempo 666667
107520 Tempo 666667
108000 Tempo 659341
108480 Tempo 662983
108960 Tempo 655738
109440 Tempo 666667
109920 Tempo 652174
110160 Tempo 659341
110400 Tempo 652174
110880 Tempo 662983
111387 Tempo 670391
111840 Tempo 681818
112800 Tempo 697674
113280 Tempo 677966
113760 Tempo 670391
114240 Tempo 685714
114747 Tempo 662983
115200 Tempo 685714
115680 Tempo 674157
116160 Tempo 685714
116640 Tempo 662983
117120 Tempo 681818
119040 Tempo 693642
120000 Tempo 718563
120960 Tempo 736196
124800 Tempo 660535
124800 Meta TrkEnd
TrkEnd
MTrk
0 SeqSpec 43 00 01 00
0 Meta TrkName "Piano right"
0 Meta 0x21 00
0 PrCh ch=1 p=0
0 Par ch=1 c=7 v=100
0 Par ch=1 c=91 v=127
960 On ch=1 n=d#4 v=57
2400 On ch=1 n=d#4 v=0
2400 On ch=1 n=f#4 v=59
2640 On ch=1 n=f#4 v=0
2640 On ch=1 n=e4 v=55
2880 On ch=1 n=e4 v=0
2880 On ch=1 n=d#4 v=59
3360 On ch=1 n=d#4 v=0
3360 On ch=1 n=e4 v=56
3840 On ch=1 n=e4 v=0
3840 On ch=1 n=d#4 v=59
4320 On ch=1 n=d#4 v=0
4320 On ch=1 n=g#4 v=69
4800 On ch=1 n=g#4 v=0
4800 On ch=1 n=a#4 v=70
5280 On ch=1 n=a#4 v=0
5280 On ch=1 n=b4 v=70
5760 On ch=1 n=b4 v=0
5760 On ch=1 n=a#4 v=73
6720 On ch=1 n=a#4 v=0
6720 On ch=1 n=g#4 v=67
7200 On ch=1 n=g#4 v=0
7680 On ch=1 n=c#5 v=73
8640 On ch=1 n=c#5 v=0
8640 On ch=1 n=g#5 v=69
9120 On ch=1 n=g#5 v=0
9600 On ch=1 n=c#5 v=74
10560 On ch=1 n=c#5 v=0
10560 On ch=1 n=g#5 v=69
11040 On ch=1 n=g#5 v=0
11040 On ch=1 n=g#5 v=67
11520 On ch=1 n=g#5 v=0
11520 On ch=1 n=d#5 v=70
12480 On ch=1 n=d#5 v=0
12480 On ch=1 n=c#5 v=68
13440 On ch=1 n=c#5 v=0
13440 On ch=1 n=b4 v=66
13920 On ch=1 n=b4 v=0
13920 On ch=1 n=d#5 v=62
14400 On ch=1 n=d#5 v=0
14400 On ch=1 n=a#4 v=66
14880 On ch=1 n=a#4 v=0
15360 On ch=1 n=g#4 v=69
16320 On ch=1 n=g#4 v=0
16320 On ch=1 n=f#4 v=57
16800 On ch=1 n=f#4 v=0
16800 On ch=1 n=e4 v=53
17280 On ch=1 n=e4 v=0
17280 On ch=1 n=d#4 v=55
17760 On ch=1 n=d#4 v=0
18240 On ch=1 n=d#4 v=67
19680 On ch=1 n=d#4 v=0
19680 On ch=1 n=f#4 v=64
19920 On ch=1 n=f#4 v=0
19920 On ch=1 n=e4 v=60
20160 On ch=1 n=e4 v=0
20160 On ch=1 n=d#4 v=64
20640 On ch=1 n=d#4 v=0
20640 On ch=1 n=e4 v=61
21120 On ch=1 n=e4 v=0
21120 On ch=1 n=d#4 v=64
21600 On ch=1 n=d#4 v=0
21600 On ch=1 n=g#4 v=75
22080 On ch=1 n=g#4 v=0
22080 On ch=1 n=a#4 v=77
22560 On ch=1 n=a#4 v=0
22560 On ch=1 n=b4 v=77
23040 On ch=1 n=b4 v=0
23040 On ch=1 n=a#4 v=80
24000 On ch=1 n=a#4 v=0
24000 On ch=1 n=g#4 v=77
24480 On ch=1 n=g#4 v=0
24960 On ch=1 n=c#5 v=80
25920 On ch=1 n=c#5 v=0
25920 On ch=1 n=e5 v=75
26400 On ch=1 n=e5 v=0
26880 On ch=1 n=e5 v=81
27840 On ch=1 n=e5 v=0
27840 On ch=1 n=e5 v=78
28800 On ch=1 n=e5 v=0
28800 On ch=1 n=d5 v=80
31680 On ch=1 n=d5 v=0
31680 On ch=1 n=c5 v=75
32160 On ch=1 n=c5 v=0
32640 On ch=1 n=c#5 v=86
33600 On ch=1 n=c#5 v=0
33600 On ch=1 n=g#5 v=76
34080 On ch=1 n=g#5 v=0
34080 On ch=1 n=g#5 v=71
34560 On ch=1 n=g#5 v=0
34560 On ch=1 n=d#5 v=77
35040 On ch=1 n=d#5 v=0
35040 On ch=1 n=b4 v=68
35520 On ch=1 n=b4 v=0
35520 On ch=1 n=a#4 v=73
36480 On ch=1 n=a#4 v=0
36480 On ch=1 n=g#4 v=70
37920 On ch=1 n=g#4 v=0
38400 On ch=1 n=e7 v=70
38400 On ch=1 n=c#7 v=70
38400 On ch=1 n=a6 v=64
38400 On ch=1 n=e6 v=64
38880 On ch=1 n=e6 v=0
38880 On ch=1 n=a6 v=0
38880 On ch=1 n=c#7 v=0
38880 On ch=1 n=e7 v=0
38880 On ch=1 n=c#7 v=72
38880 On ch=1 n=c#6 v=66
39360 On ch=1 n=c#6 v=0
39360 On ch=1 n=c#7 v=0
39360 On ch=1 n=d#7 v=72
39360 On ch=1 n=b6 v=72
39360 On ch=1 n=f#6 v=66
39360 On ch=1 n=d#6 v=66
39840 On ch=1 n=d#6 v=0
39840 On ch=1 n=f#6 v=0
39840 On ch=1 n=b6 v=0
39840 On ch=1 n=d#7 v=0
39840 On ch=1 n=b5 v=60
39840 On ch=1 n=b6 v=66
40320 On ch=1 n=b6 v=0
40320 On ch=1 n=b5 v=0
40320 On ch=1 n=c#7 v=72
40320 On ch=1 n=a6 v=72
40320 On ch=1 n=e6 v=66
40320 On ch=1 n=c#6 v=66
40800 On ch=1 n=c#6 v=0
40800 On ch=1 n=e6 v=0
40800 On ch=1 n=a6 v=0
40800 On ch=1 n=c#7 v=0
40800 On ch=1 n=a5 v=63
40800 On ch=1 n=a6 v=69
41280 On ch=1 n=a6 v=0
41280 On ch=1 n=a5 v=0
41280 On ch=1 n=f#6 v=69
41280 On ch=1 n=d6 v=69
41280 On ch=1 n=a5 v=63
41280 On ch=1 n=f#5 v=63
42240 On ch=1 n=f#5 v=0
42240 On ch=1 n=a5 v=0
42240 On ch=1 n=d6 v=0
42240 On ch=1 n=f#6 v=0
42240 On ch=1 n=e7 v=77
42240 On ch=1 n=c#7 v=77
42240 On ch=1 n=a6 v=70
42240 On ch=1 n=e6 v=70
42720 On ch=1 n=e6 v=0
42720 On ch=1 n=a6 v=0
42720 On ch=1 n=c#7 v=0
42720 On ch=1 n=e7 v=0
42720 On ch=1 n=c#7 v=79
42720 On ch=1 n=c#6 v=72
43200 On ch=1 n=c#6 v=0
43200 On ch=1 n=c#7 v=0
43200 On ch=1 n=d#7 v=80
43200 On ch=1 n=b6 v=80
43200 On ch=1 n=f#6 v=73
43200 On ch=1 n=d#6 v=73
43680 On ch=1 n=d#6 v=0
43680 On ch=1 n=f#6 v=0
43680 On ch=1 n=b6 v=0
43680 On ch=1 n=d#7 v=0
43680 On ch=1 n=b5 v=66
43680 On ch=1 n=b6 v=72
44160 On ch=1 n=b6 v=0
44160 On ch=1 n=b5 v=0
44160 On ch=1 n=c#7 v=80
44160 On ch=1 n=a6 v=80
44160 On ch=1 n=e6 v=73
44160 On ch=1 n=c#6 v=73
45120 On ch=1 n=c#6 v=0
45120 On ch=1 n=e6 v=0
45120 On ch=1 n=a6 v=0
45120 On ch=1 n=c#7 v=0
45120 On ch=1 n=f#6 v=77
45120 On ch=1 n=d6 v=77
45120 On ch=1 n=a5 v=70
45120 On ch=1 n=f#5 v=70
46080 On ch=1 n=f#5 v=0
46080 On ch=1 n=a5 v=0
46080 On ch=1 n=d6 v=0
46080 On ch=1 n=f#6 v=0
46080 On ch=1 n=e7 v=84
46080 On ch=1 n=c#7 v=84
46080 On ch=1 n=a6 v=77
46080 On ch=1 n=e6 v=77
46560 On ch=1 n=e6 v=0
46560 On ch=1 n=a6 v=0
46560 On ch=1 n=c#7 v=0
46560 On ch=1 n=e7 v=0
46560 On ch=1 n=c#7 v=86
46560 On ch=1 n=c#6 v=79
47040 On ch=1 n=c#6 v=0
47040 On ch=1 n=c#7 v=0
47040 On ch=1 n=d#7 v=86
47040 On ch=1 n=b6 v=86
47040 On ch=1 n=f#6 v=79
47040 On ch=1 n=d#6 v=79
47520 On ch=1 n=d#6 v=0
47520 On ch=1 n=f#6 v=0
47520 On ch=1 n=b6 v=0
47520 On ch=1 n=d#7 v=0
47520 On ch=1 n=b5 v=72
47520 On ch=1 n=b6 v=79
48000 On ch=1 n=b6 v=0
48000 On ch=1 n=b5 v=0
48000 On ch=1 n=c#7 v=86
48000 On ch=1 n=a6 v=86
48000 On ch=1 n=e6 v=79
48000 On ch=1 n=c#6 v=79
48480 On ch=1 n=c#6 v=0
48480 On ch=1 n=e6 v=0
48480 On ch=1 n=a6 v=0
48480 On ch=1 n=c#7 v=0
48480 On ch=1 n=a5 v=75
48480 On ch=1 n=a6 v=82
48960 On ch=1 n=a6 v=0
48960 On ch=1 n=a5 v=0
48960 On ch=1 n=f#6 v=82
48960 On ch=1 n=d6 v=82
48960 On ch=1 n=a5 v=75
48960 On ch=1 n=f#5 v=75
49920 On ch=1 n=f#5 v=0
49920 On ch=1 n=a5 v=0
49920 On ch=1 n=d6 v=0
49920 On ch=1 n=f#6 v=0
49920 On ch=1 n=c#7 v=89
49920 On ch=1 n=a6 v=89
49920 On ch=1 n=f#6 v=81
49920 On ch=1 n=c#6 v=81
50880 On ch=1 n=c#6 v=0
50880 On ch=1 n=f#6 v=0
50880 On ch=1 n=a6 v=0
50880 On ch=1 n=c#7 v=0
50880 On ch=1 n=f#5 v=78
50880 On ch=1 n=f#6 v=85
50880 On ch=1 n=d6 v=85
50880 On ch=1 n=a5 v=78
51840 On ch=1 n=a5 v=0
51840 On ch=1 n=d6 v=0
51840 On ch=1 n=f#6 v=0
51840 On ch=1 n=f#5 v=0
51840 On ch=1 n=c#7 v=90
51840 On ch=1 n=a6 v=90
51840 On ch=1 n=f#6 v=82
51840 On ch=1 n=c#6 v=82
52800 On ch=1 n=c#6 v=0
52800 On ch=1 n=f#6 v=0
52800 On ch=1 n=a6 v=0
52800 On ch=1 n=c#7 v=0
52800 On ch=1 n=d6 v=74
52800 On ch=1 n=b5 v=74
52800 On ch=1 n=g#5 v=74
52800 On ch=1 n=g#6 v=81
53280 On ch=1 n=g#6 v=0
53280 On ch=1 n=g#5 v=0
53280 On ch=1 n=b5 v=0
53280 On ch=1 n=d6 v=0
53280 On ch=1 n=f#5 v=75
53280 On ch=1 n=f#6 v=82
53760 On ch=1 n=f#6 v=0
53760 On ch=1 n=f#5 v=0
53760 On ch=1 n=c#6 v=80
53760 On ch=1 n=c#7 v=88
53760 On ch=1 n=a6 v=88
53760 On ch=1 n=e6 v=80
54720 On ch=1 n=e6 v=0
54720 On ch=1 n=a6 v=0
54720 On ch=1 n=c#7 v=0
54720 On ch=1 n=c#6 v=0
54720 On ch=1 n=f#6 v=84
54720 On ch=1 n=d6 v=84
54720 On ch=1 n=a5 v=77
54720 On ch=1 n=f#5 v=77
55680 On ch=1 n=f#5 v=0
55680 On ch=1 n=a5 v=0
55680 On ch=1 n=d6 v=0
55680 On ch=1 n=f#6 v=0
55680 On ch=1 n=a6 v=88
55680 On ch=1 n=c#7 v=88
55680 On ch=1 n=f#6 v=80
55680 On ch=1 n=c#6 v=80
56640 On ch=1 n=c#6 v=0
56640 On ch=1 n=f#6 v=0
56640 On ch=1 n=c#7 v=0
56640 On ch=1 n=a6 v=0
56640 On ch=1 n=d#6 v=79
56640 On ch=1 n=f#6 v=79
56640 On ch=1 n=d#7 v=86
56640 On ch=1 n=c7 v=86
57600 On ch=1 n=c7 v=0
57600 On ch=1 n=d#7 v=0
57600 On ch=1 n=f#6 v=0
57600 On ch=1 n=d#6 v=0
57600 On ch=1 n=e7 v=91
57600 On ch=1 n=g#6 v=83
57600 On ch=1 n=c#7 v=91
57600 On ch=1 n=e6 v=83
58080 On ch=1 n=e6 v=0
58080 On ch=1 n=c#7 v=0
58080 On ch=1 n=g#6 v=0
58080 On ch=1 n=e7 v=0
58080 On ch=1 n=g#6 v=81
58080 On ch=1 n=g#7 v=89
58560 On ch=1 n=g#7 v=0
58560 On ch=1 n=g#6 v=0
58560 On ch=1 n=a6 v=84
58560 On ch=1 n=d7 v=92
58560 On ch=1 n=d6 v=84
58560 On ch=1 n=f#6 v=84
59520 On ch=1 n=f#6 v=0
59520 On ch=1 n=d6 v=0
59520 On ch=1 n=d7 v=0
59520 On ch=1 n=a6 v=0
59520 On ch=1 n=g#6 v=78
59520 On ch=1 n=c7 v=78
59520 On ch=1 n=c6 v=78
59520 On ch=1 n=f#6 v=78
60480 On ch=1 n=f#6 v=0
60480 On ch=1 n=c6 v=0
60480 On ch=1 n=c7 v=0
60480 On ch=1 n=g#6 v=0
60480 On ch=1 n=e6 v=78
60480 On ch=1 n=c#7 v=78
60480 On ch=1 n=g#6 v=78
60480 On ch=1 n=c#6 v=78
60960 On ch=1 n=c#6 v=0
60960 On ch=1 n=g#6 v=0
60960 On ch=1 n=c#7 v=0
60960 On ch=1 n=e6 v=0
60960 On ch=1 n=g#5 v=67
60960 On ch=1 n=g#6 v=67
61440 On ch=1 n=g#6 v=0
61440 On ch=1 n=g#5 v=0
61440 On ch=1 n=c#6 v=71
61440 On ch=1 n=a6 v=71
61440 On ch=1 n=d#6 v=71
61440 On ch=1 n=a5 v=71
62400 On ch=1 n=a5 v=0
62400 On ch=1 n=d#6 v=0
62400 On ch=1 n=a6 v=0
62400 On ch=1 n=c#6 v=0
62400 On ch=1 n=g#5 v=70
62400 On ch=1 n=g#6 v=70
62400 On ch=1 n=e6 v=70
62400 On ch=1 n=c#6 v=70
63360 On ch=1 n=c#6 v=0
63360 On ch=1 n=e6 v=0
63360 On ch=1 n=g#6 v=0
63360 On ch=1 n=g#5 v=0
63360 On ch=1 n=d#6 v=67
63360 On ch=1 n=f#6 v=67
63360 On ch=1 n=f#5 v=67
63360 On ch=1 n=c#6 v=67
64320 On ch=1 n=c#6 v=0
64320 On ch=1 n=f#5 v=0
64320 On ch=1 n=f#6 v=0
64320 On ch=1 n=d#6 v=0
64320 On ch=1 n=c#6 v=86
64320 On ch=1 n=c#7 v=86
64560 On ch=1 n=c#7 v=0
64560 On ch=1 n=c#6 v=0
65280 On ch=1 n=a#6 v=84
65280 On ch=1 n=g6 v=84
65280 On ch=1 n=c#6 v=84
65280 On ch=1 n=a#5 v=84
67200 On ch=1 n=a#5 v=0
67200 On ch=1 n=c#6 v=0
67200 On ch=1 n=g6 v=0
67200 On ch=1 n=a#6 v=0
67200 On ch=1 n=b6 v=96
67200 On ch=1 n=g#6 v=96
67200 On ch=1 n=d#6 v=96
67200 On ch=1 n=b5 v=96
67680 On ch=1 n=b5 v=0
67680 On ch=1 n=d#6 v=0
67680 On ch=1 n=g#6 v=0
67680 On ch=1 n=b6 v=0
68160 On ch=1 n=g#7 v=104
68160 On ch=1 n=g#6 v=104
68640 On ch=1 n=g#6 v=0
68640 On ch=1 n=g#7 v=0
69120 On ch=1 n=e7 v=99
69120 On ch=1 n=c#7 v=99
69120 On ch=1 n=g#6 v=99
69120 On ch=1 n=e6 v=99
69600 On ch=1 n=e6 v=0
69600 On ch=1 n=g#6 v=0
69600 On ch=1 n=c#7 v=0
69600 On ch=1 n=e7 v=0
70080 On ch=1 n=d#7 v=95
70080 On ch=1 n=b6 v=95
70080 On ch=1 n=g6 v=95
70080 On ch=1 n=d#6 v=95
70560 On ch=1 n=d#6 v=0
70560 On ch=1 n=g6 v=0
70560 On ch=1 n=b6 v=0
70560 On ch=1 n=d#7 v=0
70560 On ch=1 n=b5 v=94
70560 On ch=1 n=b6 v=94
71040 On ch=1 n=b6 v=0
71040 On ch=1 n=b5 v=0
71040 On ch=1 n=g#5 v=90
71040 On ch=1 n=g#6 v=100
71520 On ch=1 n=g#6 v=0
71520 On ch=1 n=g#5 v=0
72000 On ch=1 n=d#6 v=102
72000 On ch=1 n=d#5 v=86
73440 On ch=1 n=d#5 v=0
73440 On ch=1 n=d#6 v=0
73440 On ch=1 n=f#6 v=100
73440 On ch=1 n=f#5 v=90
73680 On ch=1 n=f#5 v=0
73680 On ch=1 n=f#6 v=0
73680 On ch=1 n=e6 v=92
73680 On ch=1 n=e5 v=82
73920 On ch=1 n=e5 v=0
73920 On ch=1 n=e6 v=0
73920 On ch=1 n=d#6 v=98
73920 On ch=1 n=d#5 v=88
74400 On ch=1 n=d#5 v=0
74400 On ch=1 n=d#6 v=0
74400 On ch=1 n=e6 v=92
74400 On ch=1 n=e5 v=82
74880 On ch=1 n=e5 v=0
74880 On ch=1 n=e6 v=0
74880 On ch=1 n=d#6 v=96
74880 On ch=1 n=d#5 v=86
75360 On ch=1 n=d#5 v=0
75360 On ch=1 n=d#6 v=0
75360 On ch=1 n=g#6 v=106
75360 On ch=1 n=g#5 v=95
75840 On ch=1 n=g#5 v=0
75840 On ch=1 n=g#6 v=0
75840 On ch=1 n=a#6 v=110
75840 On ch=1 n=a#5 v=99
76320 On ch=1 n=a#5 v=0
76320 On ch=1 n=a#6 v=0
76320 On ch=1 n=b6 v=110
76320 On ch=1 n=b5 v=99
76800 On ch=1 n=b5 v=0
76800 On ch=1 n=b6 v=0
76800 On ch=1 n=a#6 v=113
76800 On ch=1 n=a#5 v=101
77760 On ch=1 n=a#5 v=0
77760 On ch=1 n=a#6 v=0
77760 On ch=1 n=g#6 v=110
77760 On ch=1 n=g#5 v=99
78240 On ch=1 n=g#5 v=0
78240 On ch=1 n=g#6 v=0
78720 On ch=1 n=c#7 v=113
78720 On ch=1 n=c#6 v=101
79680 On ch=1 n=c#6 v=0
79680 On ch=1 n=c#7 v=0
79680 On ch=1 n=g#7 v=106
79680 On ch=1 n=g#6 v=95
80160 On ch=1 n=g#6 v=0
80160 On ch=1 n=g#7 v=0
80640 On ch=1 n=c#7 v=115
80640 On ch=1 n=c#6 v=103
81600 On ch=1 n=c#6 v=0
81600 On ch=1 n=c#7 v=0
81600 On ch=1 n=g#7 v=106
81600 On ch=1 n=g#6 v=95
82080 On ch=1 n=g#6 v=0
82080 On ch=1 n=g#7 v=0
82080 On ch=1 n=g#7 v=104
82080 On ch=1 n=g#6 v=93
82560 On ch=1 n=g#6 v=0
82560 On ch=1 n=g#7 v=0
82560 On ch=1 n=d#7 v=110
82560 On ch=1 n=d#6 v=99
83520 On ch=1 n=d#6 v=0
83520 On ch=1 n=d#7 v=0
83520 On ch=1 n=c#7 v=105
83520 On ch=1 n=c#6 v=94
84480 On ch=1 n=c#6 v=0
84480 On ch=1 n=c#7 v=0
84480 On ch=1 n=b6 v=102
84480 On ch=1 n=b5 v=91
84960 On ch=1 n=b5 v=0
84960 On ch=1 n=b6 v=0
84960 On ch=1 n=d#7 v=96
84960 On ch=1 n=d#6 v=86
85440 On ch=1 n=d#6 v=0
85440 On ch=1 n=d#7 v=0
85440 On ch=1 n=a#6 v=102
85440 On ch=1 n=a#5 v=91
85920 On ch=1 n=a#5 v=0
85920 On ch=1 n=a#6 v=0
86400 On ch=1 n=g#6 v=96
86400 On ch=1 n=g#5 v=86
87360 On ch=1 n=g#5 v=0
87360 On ch=1 n=g#6 v=0
87360 On ch=1 n=f#6 v=89
87360 On ch=1 n=f#5 v=80
87840 On ch=1 n=f#5 v=0
87840 On ch=1 n=f#6 v=0
87840 On ch=1 n=e6 v=81
87840 On ch=1 n=e5 v=72
88320 On ch=1 n=e5 v=0
88320 On ch=1 n=e6 v=0
88320 On ch=1 n=d#6 v=85
88320 On ch=1 n=d#5 v=76
88800 On ch=1 n=d#5 v=0
88800 On ch=1 n=d#6 v=0
89280 On ch=1 n=d#4 v=68
90720 On ch=1 n=d#4 v=0
90720 On ch=1 n=f#4 v=70
90960 On ch=1 n=f#4 v=0
90960 On ch=1 n=e4 v=66
91200 On ch=1 n=e4 v=0
91200 On ch=1 n=d#4 v=70
91680 On ch=1 n=d#4 v=0
91680 On ch=1 n=e4 v=67
92160 On ch=1 n=e4 v=0
92160 On ch=1 n=d#4 v=70
92640 On ch=1 n=d#4 v=0
92640 On ch=1 n=g#4 v=69
93120 On ch=1 n=g#4 v=0
93120 On ch=1 n=a#4 v=70
93600 On ch=1 n=a#4 v=0
93600 On ch=1 n=b4 v=70
94080 On ch=1 n=b4 v=0
94080 On ch=1 n=a#4 v=73
95040 On ch=1 n=a#4 v=0
95040 On ch=1 n=g#4 v=70
95520 On ch=1 n=g#4 v=0
96000 On ch=1 n=c#5 v=80
96960 On ch=1 n=c#5 v=0
96960 On ch=1 n=e5 v=75
97440 On ch=1 n=e5 v=0
97920 On ch=1 n=e5 v=81
98880 On ch=1 n=e5 v=0
98880 On ch=1 n=e5 v=78
99840 On ch=1 n=e5 v=0
100800 On ch=1 n=g#5 v=76
101760 On ch=1 n=g#5 v=0
101760 On ch=1 n=d#5 v=77
102240 On ch=1 n=d#5 v=0
102240 On ch=1 n=b4 v=68
102720 On ch=1 n=b4 v=0
102720 On ch=1 n=a#4 v=73
103680 On ch=1 n=a#4 v=0
103680 On ch=1 n=g#4 v=64
104160 On ch=1 n=g#4 v=0
108480 On ch=1 n=d#4 v=42
109920 On ch=1 n=d#4 v=0
109920 On ch=1 n=f#4 v=39
110160 On ch=1 n=f#4 v=0
110160 On ch=1 n=e4 v=36
110400 On ch=1 n=e4 v=0
110400 On ch=1 n=d#4 v=41
110880 On ch=1 n=d#4 v=0
110880 On ch=1 n=e4 v=38
111360 On ch=1 n=e4 v=0
115200 On ch=1 n=d#4 v=35
116640 On ch=1 n=d#4 v=0
116640 Meta TrkEnd
TrkEnd
MTrk
0 SeqSpec 43 00 01 00
0 Meta TrkName "Piano left"
0 Meta 0x21 00
0 PrCh ch=1 p=0
0 Par ch=1 c=7 v=100
0 Par ch=1 c=91 v=127
0 On ch=1 n=g#2 v=38
0 On ch=1 n=d#3 v=38
0 On ch=1 n=g#3 v=38
27 Par ch=1 c=64 v=127
480 On ch=1 n=g#3 v=0
480 On ch=1 n=d#3 v=0
480 On ch=1 n=g#2 v=0
480 On ch=1 n=b2 v=35
480 On ch=1 n=d#3 v=35
480 On ch=1 n=b3 v=35
960 On ch=1 n=b3 v=0
960 On ch=1 n=d#3 v=0
960 On ch=1 n=b2 v=0
960 Par ch=1 c=64 v=0
960 On ch=1 n=g#2 v=38
960 On ch=1 n=d#3 v=38
960 On ch=1 n=g#3 v=38
1120 Par ch=1 c=64 v=127
1440 On ch=1 n=g#3 v=0
1440 On ch=1 n=d#3 v=0
1440 On ch=1 n=g#2 v=0
1440 On ch=1 n=b2 v=35
1440 On ch=1 n=d#3 v=35
1440 On ch=1 n=b3 v=35
1787 Par ch=1 c=64 v=0
1920 On ch=1 n=b3 v=0
1920 On ch=1 n=d#3 v=0
1920 On ch=1 n=b2 v=0
1920 On ch=1 n=g#2 v=38
1920 On ch=1 n=d#3 v=38
1920 On ch=1 n=g#3 v=38
2019 Par ch=1 c=64 v=127
2344 Par ch=1 c=64 v=0
2400 On ch=1 n=g#3 v=0
2400 On ch=1 n=d#3 v=0
2400 On ch=1 n=g#2 v=0
2400 On ch=1 n=b2 v=35
2400 On ch=1 n=d#3 v=35
2400 On ch=1 n=b3 v=35
2471 Par ch=1 c=64 v=127
2880 On ch=1 n=b3 v=0
2880 On ch=1 n=d#3 v=0
2880 On ch=1 n=b2 v=0
2880 On ch=1 n=g#2 v=38
2880 On ch=1 n=d#3 v=38
2880 On ch=1 n=g#3 v=38
2894 Par ch=1 c=64 v=0
3007 Par ch=1 c=64 v=127
3360 On ch=1 n=g#3 v=0
3360 On ch=1 n=d#3 v=0
3360 On ch=1 n=g#2 v=0
3360 On ch=1 n=b2 v=35
3360 On ch=1 n=d#3 v=35
3360 On ch=1 n=b3 v=35
3374 Par ch=1 c=64 v=0
3445 Par ch=1 c=64 v=127
3699 Par ch=1 c=64 v=0
3837 On ch=1 n=b3 v=0
3837 On ch=1 n=d#3 v=0
3837 On ch=1 n=b2 v=0
3837 On ch=1 n=g#2 v=38
3837 On ch=1 n=d#3 v=38
3837 On ch=1 n=g#3 v=38
4050 Par ch=1 c=64 v=127
4317 On ch=1 n=g#3 v=0
4317 On ch=1 n=d#3 v=0
4317 On ch=1 n=g#2 v=0
4317 On ch=1 n=b2 v=35
4317 On ch=1 n=d#3 v=35
4317 On ch=1 n=b3 v=35
4397 Par ch=1 c=64 v=0
4557 Par ch=1 c=64 v=127
4797 On ch=1 n=b3 v=0
4797 On ch=1 n=d#3 v=0
4797 On ch=1 n=b2 v=0
4797 On ch=1 n=g#2 v=42
4797 On ch=1 n=d#3 v=42
4797 On ch=1 n=g#3 v=42
4850 Par ch=1 c=64 v=0
5037 Par ch=1 c=64 v=127
5277 On ch=1 n=g#3 v=0
5277 On ch=1 n=d#3 v=0
5277 On ch=1 n=g#2 v=0
5277 Par ch=1 c=64 v=0
5277 On ch=1 n=b2 v=37
5277 On ch=1 n=d#3 v=37
5277 On ch=1 n=b3 v=37
5464 Par ch=1 c=64 v=127
5597 Par ch=1 c=64 v=0
5757 On ch=1 n=b3 v=0
5757 On ch=1 n=d#3 v=0
5757 On ch=1 n=b2 v=0
5757 On ch=1 n=g#2 v=43
5757 On ch=1 n=d#3 v=43
5757 On ch=1 n=g#3 v=43
5997 Par ch=1 c=64 v=127
6237 On ch=1 n=g#3 v=0
6237 On ch=1 n=d#3 v=0
6237 On ch=1 n=g#2 v=0
6237 On ch=1 n=b2 v=38
6237 On ch=1 n=d#3 v=38
6237 On ch=1 n=b3 v=38
6530 Par ch=1 c=64 v=0
6717 On ch=1 n=b3 v=0
6717 On ch=1 n=d#3 v=0
6717 On ch=1 n=b2 v=0
6717 On ch=1 n=g#2 v=38
6717 On ch=1 n=d#3 v=38
6717 On ch=1 n=g#3 v=38
6877 Par ch=1 c=64 v=127
7117 Par ch=1 c=64 v=0
7197 On ch=1 n=g#3 v=0
7197 On ch=1 n=d#3 v=0
7197 On ch=1 n=g#2 v=0
7197 On ch=1 n=b2 v=35
7197 On ch=1 n=d#3 v=35
7197 On ch=1 n=b3 v=35
7410 Par ch=1 c=64 v=127
7517 Par ch=1 c=64 v=0
7677 On ch=1 n=b3 v=0
7677 On ch=1 n=d#3 v=0
7677 On ch=1 n=b2 v=0
7677 On ch=1 n=c#3 v=45
7677 On ch=1 n=a2 v=45
7677 On ch=1 n=a3 v=45
7814 Par ch=1 c=64 v=127
8157 On ch=1 n=a3 v=0
8157 On ch=1 n=a2 v=0
8157 On ch=1 n=c#3 v=0
8157 On ch=1 n=c#3 v=41
8157 On ch=1 n=e3 v=41
8157 On ch=1 n=c#4 v=41
8523 Par ch=1 c=64 v=0
8637 On ch=1 n=c#4 v=0
8637 On ch=1 n=e3 v=0
8637 On ch=1 n=c#3 v=0
8637 On ch=1 n=e2 v=44
8637 On ch=1 n=g#2 v=44
8637 On ch=1 n=e3 v=44
8728 Par ch=1 c=64 v=127
9048 Par ch=1 c=64 v=0
9117 On ch=1 n=e3 v=0
9117 On ch=1 n=g#2 v=0
9117 On ch=1 n=e2 v=0
9117 On ch=1 n=g#2 v=39
9117 On ch=1 n=b2 v=39
9117 On ch=1 n=g#3 v=39
9231 Par ch=1 c=64 v=127
9437 Par ch=1 c=64 v=0
9597 On ch=1 n=g#3 v=0
9597 On ch=1 n=b2 v=0
9597 On ch=1 n=g#2 v=0
9597 On ch=1 n=c#3 v=45
9597 On ch=1 n=a2 v=45
9597 On ch=1 n=a3 v=45
9688 Par ch=1 c=64 v=127
10077 On ch=1 n=a3 v=0
10077 On ch=1 n=a2 v=0
10077 On ch=1 n=c#3 v=0
10077 On ch=1 n=c#3 v=39
10077 On ch=1 n=e3 v=39
10077 On ch=1 n=c#4 v=39
10420 Par ch=1 c=64 v=0
10557 On ch=1 n=c#4 v=0
10557 On ch=1 n=e3 v=0
10557 On ch=1 n=c#3 v=0
10557 On ch=1 n=e2 v=45
10557 On ch=1 n=g#2 v=45
10557 On ch=1 n=e3 v=45
10603 Par ch=1 c=64 v=127
10923 Par ch=1 c=64 v=0
11037 On ch=1 n=e3 v=0
11037 On ch=1 n=g#2 v=0
11037 On ch=1 n=e2 v=0
11037 On ch=1 n=g#2 v=40
11037 On ch=1 n=b2 v=40
11037 On ch=1 n=g#3 v=40
11197 Par ch=1 c=64 v=127
11403 Par ch=1 c=64 v=0
11517 On ch=1 n=g#3 v=0
11517 On ch=1 n=b2 v=0
11517 On ch=1 n=g#2 v=0
11517 On ch=1 n=a#2 v=45
11517 On ch=1 n=g2 v=45
11517 On ch=1 n=g3 v=45
11654 Par ch=1 c=64 v=127
11997 On ch=1 n=g3 v=0
11997 On ch=1 n=g2 v=0
11997 On ch=1 n=a#2 v=0
11997 On ch=1 n=a#2 v=35
11997 On ch=1 n=d#3 v=35
11997 On ch=1 n=a#3 v=35
12408 Par ch=1 c=64 v=0
12477 On ch=1 n=a#3 v=0
12477 On ch=1 n=d#3 v=0
12477 On ch=1 n=a#2 v=0
12477 On ch=1 n=g2 v=38
12477 On ch=1 n=a#2 v=38
12477 On ch=1 n=g3 v=38
12683 Par ch=1 c=64 v=127
12957 On ch=1 n=g3 v=0
12957 On ch=1 n=a#2 v=0
12957 On ch=1 n=g2 v=0
12957 On ch=1 n=a#2 v=35
12957 On ch=1 n=d#3 v=35
12957 On ch=1 n=a#3 v=35
13254 Par ch=1 c=64 v=0
13437 On ch=1 n=a#3 v=0
13437 On ch=1 n=d#3 v=0
13437 On ch=1 n=a#2 v=0
13437 On ch=1 n=g#2 v=42
13437 On ch=1 n=d#3 v=42
13437 On ch=1 n=g#3 v=42
13570 Par ch=1 c=64 v=127
13917 On ch=1 n=g#3 v=0
13917 On ch=1 n=d#3 v=0
13917 On ch=1 n=g#2 v=0
13917 On ch=1 n=b2 v=35
13917 On ch=1 n=d#3 v=35
13917 On ch=1 n=b3 v=35
14264 Par ch=1 c=64 v=0
14397 On ch=1 n=b3 v=0
14397 On ch=1 n=d#3 v=0
14397 On ch=1 n=b2 v=0
14397 On ch=1 n=g2 v=38
14397 On ch=1 n=a#2 v=38
14397 On ch=1 n=g3 v=38
14477 Par ch=1 c=64 v=127
14797 Par ch=1 c=64 v=0
14877 On ch=1 n=g3 v=0
14877 On ch=1 n=a#2 v=0
14877 On ch=1 n=g2 v=0
14877 On ch=1 n=a#2 v=35
14877 On ch=1 n=d#3 v=35
14877 On ch=1 n=a#3 v=35
14984 Par ch=1 c=64 v=127
15197 Par ch=1 c=64 v=0
15357 On ch=1 n=a#3 v=0
15357 On ch=1 n=d#3 v=0
15357 On ch=1 n=a#2 v=0
15357 On ch=1 n=g#2 v=40
15357 On ch=1 n=b2 v=40
15357 On ch=1 n=g#3 v=40
15471 Par ch=1 c=64 v=127
15837 On ch=1 n=g#3 v=0
15837 On ch=1 n=b2 v=0
15837 On ch=1 n=g#2 v=0
15837 On ch=1 n=b2 v=35
15837 On ch=1 n=d#3 v=35
15837 On ch=1 n=b3 v=35
16271 Par ch=1 c=64 v=0
16317 On ch=1 n=b3 v=0
16317 On ch=1 n=d#3 v=0
16317 On ch=1 n=b2 v=0
16317 On ch=1 n=a2 v=38
16317 On ch=1 n=c#3 v=38
16317 On ch=1 n=a3 v=38
16431 Par ch=1 c=64 v=127
16706 Par ch=1 c=64 v=0
16797 On ch=1 n=a3 v=0
16797 On ch=1 n=c#3 v=0
16797 On ch=1 n=a2 v=0
16797 On ch=1 n=c#3 v=33
16797 On ch=1 n=e3 v=33
16797 On ch=1 n=c#4 v=33
16866 Par ch=1 c=64 v=127
17140 Par ch=1 c=64 v=0
17277 On ch=1 n=c#4 v=0
17277 On ch=1 n=e3 v=0
17277 On ch=1 n=c#3 v=0
17277 On ch=1 n=g#2 v=36
17277 On ch=1 n=d#3 v=36
17277 On ch=1 n=g#3 v=36
17490 Par ch=1 c=64 v=127
17757 On ch=1 n=g#3 v=0
17757 On ch=1 n=d#3 v=0
17757 On ch=1 n=g#2 v=0
17757 Par ch=1 c=64 v=0
17757 On ch=1 n=b2 v=31
17757 On ch=1 n=d#3 v=31
17757 On ch=1 n=b3 v=31
17917 Par ch=1 c=64 v=127
18157 Par ch=1 c=64 v=0
18237 On ch=1 n=b3 v=0
18237 On ch=1 n=d#3 v=0
18237 On ch=1 n=b2 v=0
18237 On ch=1 n=g#2 v=45
18237 On ch=1 n=d#3 v=45
18237 On ch=1 n=g#3 v=45
18397 Par ch=1 c=64 v=127
18717 On ch=1 n=g#3 v=0
18717 On ch=1 n=d#3 v=0
18717 On ch=1 n=g#2 v=0
18717 On ch=1 n=b2 v=38
18717 On ch=1 n=d#3 v=38
18717 On ch=1 n=b3 v=38
19197 On ch=1 n=b3 v=0
19197 On ch=1 n=d#3 v=0
19197 On ch=1 n=b2 v=0
19197 On ch=1 n=g#2 v=41
19197 On ch=1 n=d#3 v=41
19197 On ch=1 n=g#3 v=41
19621 Par ch=1 c=64 v=0
19677 On ch=1 n=g#3 v=0
19677 On ch=1 n=d#3 v=0
19677 On ch=1 n=g#2 v=0
19677 On ch=1 n=b2 v=38
19677 On ch=1 n=d#3 v=38
19677 On ch=1 n=b3 v=38
19748 Par ch=1 c=64 v=127
20157 On ch=1 n=b3 v=0
20157 On ch=1 n=d#3 v=0
20157 On ch=1 n=b2 v=0
20157 On ch=1 n=g#2 v=41
20157 On ch=1 n=d#3 v=41
20157 On ch=1 n=g#3 v=41
20171 Par ch=1 c=64 v=0
20284 Par ch=1 c=64 v=127
20623 Par ch=1 c=64 v=0
20637 On ch=1 n=g#3 v=0
20637 On ch=1 n=d#3 v=0
20637 On ch=1 n=g#2 v=0
20637 On ch=1 n=b2 v=38
20637 On ch=1 n=d#3 v=38
20637 On ch=1 n=b3 v=38
20736 Par ch=1 c=64 v=127
20976 Par ch=1 c=64 v=0
21114 On ch=1 n=b3 v=0
21114 On ch=1 n=d#3 v=0
21114 On ch=1 n=b2 v=0
21114 On ch=1 n=g#2 v=41
21114 On ch=1 n=d#3 v=41
21114 On ch=1 n=g#3 v=41
21327 Par ch=1 c=64 v=127
21594 On ch=1 n=g#3 v=0
21594 On ch=1 n=d#3 v=0
21594 On ch=1 n=g#2 v=0
21594 On ch=1 n=b2 v=38
21594 On ch=1 n=d#3 v=38
21594 On ch=1 n=b3 v=38
21674 Par ch=1 c=64 v=0
21834 Par ch=1 c=64 v=127
22074 On ch=1 n=b3 v=0
22074 On ch=1 n=d#3 v=0
22074 On ch=1 n=b2 v=0
22074 On ch=1 n=g#2 v=46
22074 On ch=1 n=d#3 v=46
22074 On ch=1 n=g#3 v=46
22127 Par ch=1 c=64 v=0
22314 Par ch=1 c=64 v=127
22554 On ch=1 n=g#3 v=0
22554 On ch=1 n=d#3 v=0
22554 On ch=1 n=g#2 v=0
22554 Par ch=1 c=64 v=0
22554 On ch=1 n=b2 v=40
22554 On ch=1 n=d#3 v=40
22554 On ch=1 n=b3 v=40
22741 Par ch=1 c=64 v=127
22874 Par ch=1 c=64 v=0
23034 On ch=1 n=b3 v=0
23034 On ch=1 n=d#3 v=0
23034 On ch=1 n=b2 v=0
23034 On ch=1 n=g#2 v=47
23034 On ch=1 n=d#3 v=47
23034 On ch=1 n=g#3 v=47
23274 Par ch=1 c=64 v=127
23514 On ch=1 n=g#3 v=0
23514 On ch=1 n=d#3 v=0
23514 On ch=1 n=g#2 v=0
23514 On ch=1 n=b2 v=41
23514 On ch=1 n=d#3 v=41
23514 On ch=1 n=b3 v=41
23807 Par ch=1 c=64 v=0
23994 On ch=1 n=b3 v=0
23994 On ch=1 n=d#3 v=0
23994 On ch=1 n=b2 v=0
23994 On ch=1 n=g#2 v=41
23994 On ch=1 n=d#3 v=41
23994 On ch=1 n=g#3 v=41
24154 Par ch=1 c=64 v=127
24394 Par ch=1 c=64 v=0
24474 On ch=1 n=g#3 v=0
24474 On ch=1 n=d#3 v=0
24474 On ch=1 n=g#2 v=0
24474 On ch=1 n=b2 v=38
24474 On ch=1 n=d#3 v=38
24474 On ch=1 n=b3 v=38
24687 Par ch=1 c=64 v=127
24794 Par ch=1 c=64 v=0
24954 On ch=1 n=b3 v=0
24954 On ch=1 n=d#3 v=0
24954 On ch=1 n=b2 v=0
24954 On ch=1 n=c#3 v=55
24954 On ch=1 n=a2 v=55
24954 On ch=1 n=a3 v=55
25091 Par ch=1 c=64 v=127
25434 On ch=1 n=a3 v=0
25434 On ch=1 n=a2 v=0
25434 On ch=1 n=c#3 v=0
25434 On ch=1 n=c#3 v=49
25434 On ch=1 n=e3 v=49
25434 On ch=1 n=c#4 v=49
25800 Par ch=1 c=64 v=0
25914 On ch=1 n=c#4 v=0
25914 On ch=1 n=e3 v=0
25914 On ch=1 n=c#3 v=0
25914 On ch=1 n=e2 v=53
25914 On ch=1 n=g#2 v=53
25914 On ch=1 n=e3 v=53
26005 Par ch=1 c=64 v=127
26325 Par ch=1 c=64 v=0
26394 On ch=1 n=e3 v=0
26394 On ch=1 n=g#2 v=0
26394 On ch=1 n=e2 v=0
26394 On ch=1 n=g#2 v=49
26394 On ch=1 n=b2 v=49
26394 On ch=1 n=g#3 v=49
26508 Par ch=1 c=64 v=127
26714 Par ch=1 c=64 v=0
26874 On ch=1 n=g#3 v=0
26874 On ch=1 n=b2 v=0
26874 On ch=1 n=g#2 v=0
26874 On ch=1 n=c#3 v=57
26874 On ch=1 n=a2 v=57
26874 On ch=1 n=a3 v=57
26965 Par ch=1 c=64 v=127
27354 On ch=1 n=a3 v=0
27354 On ch=1 n=a2 v=0
27354 On ch=1 n=c#3 v=0
27354 On ch=1 n=c#3 v=51
27354 On ch=1 n=e3 v=51
27354 On ch=1 n=c#4 v=51
27697 Par ch=1 c=64 v=0
27834 On ch=1 n=c#4 v=0
27834 On ch=1 n=e3 v=0
27834 On ch=1 n=c#3 v=0
27834 On ch=1 n=e2 v=58
27834 On ch=1 n=g#2 v=58
27834 On ch=1 n=e3 v=58
27880 Par ch=1 c=64 v=127
28200 Par ch=1 c=64 v=0
28314 On ch=1 n=e3 v=0
28314 On ch=1 n=g#2 v=0
28314 On ch=1 n=e2 v=0
28314 On ch=1 n=g#2 v=52
28314 On ch=1 n=b2 v=52
28314 On ch=1 n=g#3 v=52
28474 Par ch=1 c=64 v=127
28680 Par ch=1 c=64 v=0
28794 On ch=1 n=g#3 v=0
28794 On ch=1 n=b2 v=0
28794 On ch=1 n=g#2 v=0
28794 On ch=1 n=f#2 v=57
28794 On ch=1 n=a2 v=57
28794 On ch=1 n=f#3 v=57
28817 Par ch=1 c=64 v=127
29228 Par ch=1 c=64 v=0
29274 On ch=1 n=f#3 v=0
29274 On ch=1 n=a2 v=0
29274 On ch=1 n=f#2 v=0
29274 On ch=1 n=a2 v=52
29274 On ch=1 n=d3 v=52
29274 On ch=1 n=a3 v=52
29411 Par ch=1 c=64 v=127
29754 On ch=1 n=a3 v=0
29754 On ch=1 n=d3 v=0
29754 On ch=1 n=a2 v=0
29754 On ch=1 n=f#2 v=58
29754 On ch=1 n=d3 v=58
29754 On ch=1 n=f#3 v=58
29777 Par ch=1 c=64 v=0
29937 Par ch=1 c=64 v=127
30188 Par ch=1 c=64 v=0
30234 On ch=1 n=f#3 v=0
30234 On ch=1 n=d3 v=0
30234 On ch=1 n=f#2 v=0
30234 On ch=1 n=a2 v=53
30234 On ch=1 n=d3 v=53
30234 On ch=1 n=a3 v=53
30417 Par ch=1 c=64 v=127
30554 Par ch=1 c=64 v=0
30714 On ch=1 n=a3 v=0
30714 On ch=1 n=d3 v=0
30714 On ch=1 n=a2 v=0
30714 On ch=1 n=f#2 v=59
30714 On ch=1 n=d3 v=59
30714 On ch=1 n=f#3 v=59
30851 Par ch=1 c=64 v=127
31148 Par ch=1 c=64 v=0
31194 On ch=1 n=f#3 v=0
31194 On ch=1 n=d3 v=0
31194 On ch=1 n=f#2 v=0
31194 On ch=1 n=a2 v=50
31194 On ch=1 n=d3 v=50
31194 On ch=1 n=a3 v=50
31285 Par ch=1 c=64 v=127
31560 Par ch=1 c=64 v=0
31674 On ch=1 n=a3 v=0
31674 On ch=1 n=d3 v=0
31674 On ch=1 n=a2 v=0
31674 On ch=1 n=g#2 v=59
31674 On ch=1 n=d#3 v=59
31674 On ch=1 n=g#3 v=59
31697 Par ch=1 c=64 v=127
32063 Par ch=1 c=64 v=0
32154 On ch=1 n=g#3 v=0
32154 On ch=1 n=d#3 v=0
32154 On ch=1 n=g#2 v=0
32154 On ch=1 n=c3 v=52
32154 On ch=1 n=d#3 v=52
32154 On ch=1 n=c4 v=52
32223 Par ch=1 c=64 v=127
32451 Par ch=1 c=64 v=0
32634 On ch=1 n=c4 v=0
32634 On ch=1 n=d#3 v=0
32634 On ch=1 n=c3 v=0
32634 On ch=1 n=c#3 v=58
32634 On ch=1 n=a2 v=58
32634 On ch=1 n=a3 v=58
32725 Par ch=1 c=64 v=127
33114 On ch=1 n=a3 v=0
33114 On ch=1 n=a2 v=0
33114 On ch=1 n=c#3 v=0
33114 On ch=1 n=c#3 v=51
33114 On ch=1 n=e3 v=51
33114 On ch=1 n=c#4 v=51
33457 Par ch=1 c=64 v=0
33594 On ch=1 n=c#4 v=0
33594 On ch=1 n=e3 v=0
33594 On ch=1 n=c#3 v=0
33594 On ch=1 n=e2 v=55
33594 On ch=1 n=g#2 v=55
33594 On ch=1 n=e3 v=55
33640 Par ch=1 c=64 v=127
33960 Par ch=1 c=64 v=0
34074 On ch=1 n=e3 v=0
34074 On ch=1 n=g#2 v=0
34074 On ch=1 n=e2 v=0
34074 On ch=1 n=g#2 v=50
34074 On ch=1 n=b2 v=50
34074 On ch=1 n=g#3 v=50
34234 Par ch=1 c=64 v=127
34440 Par ch=1 c=64 v=0
34554 On ch=1 n=g#3 v=0
34554 On ch=1 n=b2 v=0
34554 On ch=1 n=g#2 v=0
34554 On ch=1 n=f#3 v=54
34554 On ch=1 n=b2 v=54
34554 On ch=1 n=b3 v=54
34691 Par ch=1 c=64 v=127
35034 On ch=1 n=b3 v=0
35034 On ch=1 n=b2 v=0
35034 On ch=1 n=f#3 v=0
35034 On ch=1 n=d#3 v=38
35034 On ch=1 n=f#3 v=38
35034 On ch=1 n=d#4 v=38
35445 Par ch=1 c=64 v=0
35514 On ch=1 n=d#4 v=0
35514 On ch=1 n=f#3 v=0
35514 On ch=1 n=d#3 v=0
35514 On ch=1 n=g2 v=54
35514 On ch=1 n=a#2 v=54
35514 On ch=1 n=g3 v=54
35720 Par ch=1 c=64 v=127
35994 On ch=1 n=g3 v=0
35994 On ch=1 n=a#2 v=0
35994 On ch=1 n=g2 v=0
35994 On ch=1 n=a#2 v=42
35994 On ch=1 n=d#3 v=42
35994 On ch=1 n=a#3 v=42
36291 Par ch=1 c=64 v=0
36474 On ch=1 n=a#3 v=0
36474 On ch=1 n=d#3 v=0
36474 On ch=1 n=a#2 v=0
36474 On ch=1 n=g#2 v=46
36474 On ch=1 n=d#3 v=46
36474 On ch=1 n=g#3 v=46
36607 Par ch=1 c=64 v=127
36954 On ch=1 n=g#3 v=0
36954 On ch=1 n=d#3 v=0
36954 On ch=1 n=g#2 v=0
36954 On ch=1 n=b2 v=36
36954 On ch=1 n=d#3 v=36
36954 On ch=1 n=b3 v=36
37434 On ch=1 n=b3 v=0
37434 On ch=1 n=d#3 v=0
37434 On ch=1 n=b2 v=0
37434 On ch=1 n=g#2 v=44
37434 On ch=1 n=d#3 v=44
37434 On ch=1 n=g#3 v=44
37487 Par ch=1 c=64 v=0
37567 Par ch=1 c=64 v=127
37834 Par ch=1 c=64 v=0
37914 On ch=1 n=g#3 v=0
37914 On ch=1 n=d#3 v=0
37914 On ch=1 n=g#2 v=0
37914 On ch=1 n=b2 v=37
37914 On ch=1 n=d#3 v=37
37914 On ch=1 n=b3 v=37
38021 Par ch=1 c=64 v=127
38234 Par ch=1 c=64 v=0
38394 On ch=1 n=b3 v=0
38394 On ch=1 n=d#3 v=0
38394 On ch=1 n=b2 v=0
38394 On ch=1 n=a2 v=52
38394 On ch=1 n=c#3 v=52
38394 On ch=1 n=a3 v=52
38531 Par ch=1 c=64 v=127
38874 On ch=1 n=a3 v=0
38874 On ch=1 n=c#3 v=0
38874 On ch=1 n=c#3 v=49
38874 On ch=1 n=a3 v=49
39354 On ch=1 n=a3 v=0
39354 On ch=1 n=c#3 v=0
39354 On ch=1 n=a2 v=0
39354 Par ch=1 c=64 v=0
39354 On ch=1 n=b2 v=52
39354 On ch=1 n=d#3 v=52
39354 On ch=1 n=b3 v=52
39514 Par ch=1 c=64 v=127
39834 On ch=1 n=b3 v=0
39834 On ch=1 n=d#3 v=0
39834 On ch=1 n=d#3 v=48
39834 On ch=1 n=b3 v=48
40085 Par ch=1 c=64 v=0
40314 On ch=1 n=b3 v=0
40314 On ch=1 n=d#3 v=0
40314 On ch=1 n=b2 v=0
40314 On ch=1 n=c#3 v=52
40314 On ch=1 n=e3 v=52
40314 On ch=1 n=c#4 v=52
40405 Par ch=1 c=64 v=127
40794 On ch=1 n=c#4 v=0
40794 On ch=1 n=e3 v=0
40794 On ch=1 n=e3 v=50
40794 On ch=1 n=c#4 v=50
41114 Par ch=1 c=64 v=0
41274 On ch=1 n=c#4 v=0
41274 On ch=1 n=e3 v=0
41274 On ch=1 n=c#3 v=0
41274 On ch=1 n=d3 v=53
41274 On ch=1 n=f#3 v=53
41274 On ch=1 n=d4 v=53
41297 Par ch=1 c=64 v=127
41754 On ch=1 n=d4 v=0
41754 On ch=1 n=f#3 v=0
41754 On ch=1 n=f#3 v=50
41754 On ch=1 n=d4 v=50
42028 Par ch=1 c=64 v=0
42234 On ch=1 n=d4 v=0
42234 On ch=1 n=f#3 v=0
42234 On ch=1 n=d3 v=0
42234 On ch=1 n=a2 v=53
42234 On ch=1 n=c#3 v=53
42234 On ch=1 n=a3 v=53
42371 Par ch=1 c=64 v=127
42714 On ch=1 n=a3 v=0
42714 On ch=1 n=c#3 v=0
42714 On ch=1 n=c#3 v=47
42714 On ch=1 n=a3 v=47
43194 On ch=1 n=a3 v=0
43194 On ch=1 n=c#3 v=0
43194 On ch=1 n=a2 v=0
43194 Par ch=1 c=64 v=0
43194 On ch=1 n=b2 v=52
43194 On ch=1 n=d#3 v=52
43194 On ch=1 n=b3 v=52
43354 Par ch=1 c=64 v=127
43674 On ch=1 n=b3 v=0
43674 On ch=1 n=d#3 v=0
43674 On ch=1 n=d#3 v=45
43674 On ch=1 n=b3 v=45
43925 Par ch=1 c=64 v=0
44154 On ch=1 n=b3 v=0
44154 On ch=1 n=d#3 v=0
44154 On ch=1 n=b2 v=0
44154 On ch=1 n=c#3 v=52
44154 On ch=1 n=e3 v=52
44154 On ch=1 n=c#4 v=52
44245 Par ch=1 c=64 v=127
44634 On ch=1 n=c#4 v=0
44634 On ch=1 n=e3 v=0
44634 On ch=1 n=e3 v=50
44634 On ch=1 n=c#4 v=50
44954 Par ch=1 c=64 v=0
45114 On ch=1 n=c#4 v=0
45114 On ch=1 n=e3 v=0
45114 On ch=1 n=c#3 v=0
45114 On ch=1 n=d3 v=52
45114 On ch=1 n=f#3 v=52
45114 On ch=1 n=d4 v=52
45137 Par ch=1 c=64 v=127
45594 On ch=1 n=d4 v=0
45594 On ch=1 n=f#3 v=0
45594 On ch=1 n=f#3 v=48
45594 On ch=1 n=d4 v=48
45868 Par ch=1 c=64 v=0
46074 On ch=1 n=d4 v=0
46074 On ch=1 n=f#3 v=0
46074 On ch=1 n=d3 v=0
46074 On ch=1 n=a2 v=56
46074 On ch=1 n=c#3 v=56
46074 On ch=1 n=a3 v=56
46211 Par ch=1 c=64 v=127
46554 On ch=1 n=a3 v=0
46554 On ch=1 n=c#3 v=0
46554 On ch=1 n=c#3 v=50
46554 On ch=1 n=a3 v=50
47034 On ch=1 n=a3 v=0
47034 On ch=1 n=c#3 v=0
47034 On ch=1 n=a2 v=0
47034 Par ch=1 c=64 v=0
47034 On ch=1 n=b2 v=56
47034 On ch=1 n=d#3 v=56
47034 On ch=1 n=b3 v=56
47194 Par ch=1 c=64 v=127
47514 On ch=1 n=b3 v=0
47514 On ch=1 n=d#3 v=0
47514 On ch=1 n=d#3 v=49
47514 On ch=1 n=b3 v=49
47765 Par ch=1 c=64 v=0
47994 On ch=1 n=b3 v=0
47994 On ch=1 n=d#3 v=0
47994 On ch=1 n=b2 v=0
47994 On ch=1 n=c#3 v=56
47994 On ch=1 n=e3 v=56
47994 On ch=1 n=c#4 v=56
48085 Par ch=1 c=64 v=127
48474 On ch=1 n=c#4 v=0
48474 On ch=1 n=e3 v=0
48474 On ch=1 n=e3 v=51
48474 On ch=1 n=c#4 v=51
48794 Par ch=1 c=64 v=0
48954 On ch=1 n=c#4 v=0
48954 On ch=1 n=e3 v=0
48954 On ch=1 n=c#3 v=0
48954 On ch=1 n=d3 v=55
48954 On ch=1 n=f#3 v=55
48954 On ch=1 n=d4 v=55
48977 Par ch=1 c=64 v=127
49434 On ch=1 n=d4 v=0
49434 On ch=1 n=f#3 v=0
49434 On ch=1 n=f#3 v=50
49434 On ch=1 n=d4 v=50
49708 Par ch=1 c=64 v=0
49914 On ch=1 n=d4 v=0
49914 On ch=1 n=f#3 v=0
49914 On ch=1 n=d3 v=0
49914 On ch=1 n=a2 v=57
49914 On ch=1 n=c#3 v=57
49914 On ch=1 n=a3 v=57
50051 Par ch=1 c=64 v=127
50394 On ch=1 n=a3 v=0
50394 On ch=1 n=c#3 v=0
50394 On ch=1 n=c#3 v=50
50394 On ch=1 n=a3 v=50
50874 On ch=1 n=a3 v=0
50874 On ch=1 n=c#3 v=0
50874 On ch=1 n=a2 v=0
50874 Par ch=1 c=64 v=0
50874 On ch=1 n=d3 v=56
50874 On ch=1 n=f#3 v=56
50874 On ch=1 n=d4 v=56
51034 Par ch=1 c=64 v=127
51354 On ch=1 n=d4 v=0
51354 On ch=1 n=f#3 v=0
51354 On ch=1 n=f#3 v=53
51354 On ch=1 n=d4 v=53
51605 Par ch=1 c=64 v=0
51834 On ch=1 n=d4 v=0
51834 On ch=1 n=f#3 v=0
51834 On ch=1 n=d3 v=0
51834 On ch=1 n=c#3 v=57
51834 On ch=1 n=a3 v=57
51834 On ch=1 n=a2 v=57
51925 Par ch=1 c=64 v=127
52314 On ch=1 n=a3 v=0
52314 On ch=1 n=c#3 v=0
52314 On ch=1 n=c#3 v=52
52314 On ch=1 n=a3 v=52
52634 Par ch=1 c=64 v=0
52794 On ch=1 n=a3 v=0
52794 On ch=1 n=c#3 v=0
52794 On ch=1 n=a2 v=0
52794 On ch=1 n=b2 v=57
52794 On ch=1 n=d3 v=57
52794 On ch=1 n=b3 v=57
52817 Par ch=1 c=64 v=127
53274 On ch=1 n=b3 v=0
53274 On ch=1 n=d3 v=0
53274 On ch=1 n=d3 v=52
53274 On ch=1 n=b3 v=52
53548 Par ch=1 c=64 v=0
53754 On ch=1 n=b3 v=0
53754 On ch=1 n=d3 v=0
53754 On ch=1 n=b2 v=0
53754 On ch=1 n=c#3 v=58
53754 On ch=1 n=a2 v=58
53754 On ch=1 n=a3 v=58
53845 Par ch=1 c=64 v=127
54234 On ch=1 n=a3 v=0
54234 On ch=1 n=c#3 v=0
54234 On ch=1 n=c#3 v=53
54234 On ch=1 n=a3 v=53
54554 Par ch=1 c=64 v=0
54714 On ch=1 n=a3 v=0
54714 On ch=1 n=c#3 v=0
54714 On ch=1 n=a2 v=0
54714 On ch=1 n=d3 v=59
54714 On ch=1 n=f#3 v=59
54714 On ch=1 n=d4 v=59
54737 Par ch=1 c=64 v=127
55194 On ch=1 n=d4 v=0
55194 On ch=1 n=f#3 v=0
55194 On ch=1 n=f#3 v=55
55194 On ch=1 n=d4 v=55
55468 Par ch=1 c=64 v=0
55674 On ch=1 n=d4 v=0
55674 On ch=1 n=f#3 v=0
55674 On ch=1 n=d3 v=0
55674 On ch=1 n=c#4 v=59
55674 On ch=1 n=f#3 v=59
55674 On ch=1 n=c#3 v=59
55834 Par ch=1 c=64 v=127
56154 On ch=1 n=f#3 v=0
56154 On ch=1 n=c#4 v=0
56154 On ch=1 n=f#3 v=55
56154 On ch=1 n=c#4 v=55
56543 Par ch=1 c=64 v=0
56634 On ch=1 n=c#4 v=0
56634 On ch=1 n=f#3 v=0
56634 On ch=1 n=c#3 v=0
56634 On ch=1 n=g#3 v=62
56634 On ch=1 n=c4 v=62
56634 On ch=1 n=c3 v=62
56725 Par ch=1 c=64 v=127
57114 On ch=1 n=c4 v=0
57114 On ch=1 n=g#3 v=0
57114 On ch=1 n=g#3 v=56
57114 On ch=1 n=c4 v=56
57274 Par ch=1 c=64 v=0
57594 On ch=1 n=c4 v=0
57594 On ch=1 n=g#3 v=0
57594 On ch=1 n=c3 v=0
57594 On ch=1 n=c#4 v=63
57594 On ch=1 n=g#3 v=63
57594 On ch=1 n=c#3 v=63
57731 Par ch=1 c=64 v=127
58074 On ch=1 n=g#3 v=0
58074 On ch=1 n=c#4 v=0
58074 On ch=1 n=g#3 v=57
58074 On ch=1 n=c#4 v=57
58463 Par ch=1 c=64 v=0
58554 On ch=1 n=c#4 v=0
58554 On ch=1 n=g#3 v=0
58554 On ch=1 n=c#3 v=0
58554 On ch=1 n=f#3 v=62
58554 On ch=1 n=d4 v=62
58554 On ch=1 n=d3 v=62
58645 Par ch=1 c=64 v=127
59034 On ch=1 n=d4 v=0
59034 On ch=1 n=f#3 v=0
59034 On ch=1 n=f#3 v=53
59034 On ch=1 n=d4 v=53
59400 Par ch=1 c=64 v=0
59514 On ch=1 n=d4 v=0
59514 On ch=1 n=f#3 v=0
59514 On ch=1 n=d3 v=0
59514 On ch=1 n=g#3 v=57
59514 On ch=1 n=d#4 v=57
59514 On ch=1 n=d#3 v=57
59701 Par ch=1 c=64 v=127
59994 On ch=1 n=d#4 v=0
59994 On ch=1 n=g#3 v=0
59994 On ch=1 n=g#3 v=55
59994 On ch=1 n=d#4 v=55
60367 Par ch=1 c=64 v=0
60474 On ch=1 n=d#4 v=0
60474 On ch=1 n=g#3 v=0
60474 On ch=1 n=d#3 v=0
60474 On ch=1 n=c#4 v=59
60474 On ch=1 n=e4 v=59
60474 On ch=1 n=e3 v=59
60634 Par ch=1 c=64 v=127
60954 On ch=1 n=e4 v=0
60954 On ch=1 n=c#4 v=0
60954 On ch=1 n=c#4 v=56
60954 On ch=1 n=e4 v=56
61194 Par ch=1 c=64 v=0
61434 On ch=1 n=e4 v=0
61434 On ch=1 n=c#4 v=0
61434 On ch=1 n=e3 v=0
61434 On ch=1 n=c#4 v=51
61434 On ch=1 n=f#4 v=51
61434 On ch=1 n=f#3 v=51
61647 Par ch=1 c=64 v=127
61914 On ch=1 n=f#4 v=0
61914 On ch=1 n=c#4 v=0
61914 On ch=1 n=c#4 v=41
61914 On ch=1 n=f#4 v=41
62287 Par ch=1 c=64 v=0
62394 On ch=1 n=f#4 v=0
62394 On ch=1 n=c#4 v=0
62394 On ch=1 n=f#3 v=0
62394 On ch=1 n=c#4 v=50
62394 On ch=1 n=g#4 v=50
62394 On ch=1 n=g#3 v=50
62554 Par ch=1 c=64 v=127
62874 On ch=1 n=g#4 v=0
62874 On ch=1 n=c#4 v=0
62874 On ch=1 n=c#4 v=44
62874 On ch=1 n=g#4 v=44
63114 Par ch=1 c=64 v=0
63354 On ch=1 n=g#4 v=0
63354 On ch=1 n=c#4 v=0
63354 On ch=1 n=g#3 v=0
63354 On ch=1 n=c#4 v=49
63354 On ch=1 n=a4 v=49
63354 On ch=1 n=a3 v=49
63492 Par ch=1 c=64 v=127
63831 On ch=1 n=a4 v=0
63831 On ch=1 n=c#4 v=0
63831 On ch=1 n=c#4 v=48
63831 On ch=1 n=a4 v=48
64240 Par ch=1 c=64 v=0
64311 On ch=1 n=a4 v=0
64311 On ch=1 n=c#4 v=0
64311 On ch=1 n=a3 v=0
64311 On ch=1 n=d#4 v=55
64311 On ch=1 n=f#4 v=55
64311 On ch=1 n=f#3 v=55
64424 Par ch=1 c=64 v=127
64749 Par ch=1 c=64 v=0
64791 On ch=1 n=f#4 v=0
64791 On ch=1 n=d#4 v=0
64791 On ch=1 n=d#4 v=51
64791 On ch=1 n=f#4 v=51
64862 Par ch=1 c=64 v=127
65172 Par ch=1 c=64 v=0
65271 On ch=1 n=f#4 v=0
65271 On ch=1 n=d#4 v=0
65271 On ch=1 n=f#3 v=0
65271 On ch=1 n=g4 v=67
65271 On ch=1 n=d#4 v=67
65271 On ch=1 n=g3 v=67
65431 Par ch=1 c=64 v=127
65751 On ch=1 n=d#4 v=0
65751 On ch=1 n=g4 v=0
65751 On ch=1 n=d#4 v=59
65751 On ch=1 n=g4 v=59
66094 Par ch=1 c=64 v=0
66231 On ch=1 n=g4 v=0
66231 On ch=1 n=d#4 v=0
66231 On ch=1 n=g3 v=0
66231 On ch=1 n=a#3 v=67
66231 On ch=1 n=d#4 v=67
66231 On ch=1 n=d#3 v=67
66300 Par ch=1 c=64 v=127
66711 On ch=1 n=d#4 v=0
66711 On ch=1 n=a#3 v=0
66711 On ch=1 n=a#3 v=60
66711 On ch=1 n=d#4 v=60
66940 Par ch=1 c=64 v=0
67191 On ch=1 n=d#4 v=0
67191 On ch=1 n=a#3 v=0
67191 On ch=1 n=d#3 v=0
67191 On ch=1 n=d#4 v=77
67191 On ch=1 n=g#4 v=77
67191 On ch=1 n=g#3 v=77
67244 Par ch=1 c=64 v=127
67564 Par ch=1 c=64 v=0
67671 On ch=1 n=g#4 v=0
67671 On ch=1 n=d#4 v=0
67671 On ch=1 n=d#4 v=71
67671 On ch=1 n=g#4 v=71
67724 Par ch=1 c=64 v=127
68071 Par ch=1 c=64 v=0
68151 On ch=1 n=g#4 v=0
68151 On ch=1 n=d#4 v=0
68151 On ch=1 n=g#3 v=0
68151 On ch=1 n=b3 v=77
68151 On ch=1 n=d#3 v=77
68151 On ch=1 n=b2 v=77
68284 Par ch=1 c=64 v=127
68578 Par ch=1 c=64 v=0
68631 On ch=1 n=d#3 v=0
68631 On ch=1 n=b3 v=0
68631 On ch=1 n=d#3 v=73
68631 On ch=1 n=b3 v=73
68738 Par ch=1 c=64 v=127
68978 Par ch=1 c=64 v=0
69111 On ch=1 n=b3 v=0
69111 On ch=1 n=d#3 v=0
69111 On ch=1 n=b2 v=0
69111 On ch=1 n=c#4 v=77
69111 On ch=1 n=g#3 v=77
69111 On ch=1 n=c#3 v=77
69225 Par ch=1 c=64 v=127
69477 Par ch=1 c=64 v=0
69591 On ch=1 n=g#3 v=0
69591 On ch=1 n=c#4 v=0
69591 On ch=1 n=g#3 v=67
69591 On ch=1 n=c#4 v=67
69614 Par ch=1 c=64 v=127
69980 Par ch=1 c=64 v=0
70071 On ch=1 n=c#4 v=0
70071 On ch=1 n=g#3 v=0
70071 On ch=1 n=c#3 v=0
70071 On ch=1 n=d#4 v=74
70071 On ch=1 n=g3 v=74
70071 On ch=1 n=d#3 v=74
70162 Par ch=1 c=64 v=127
70551 On ch=1 n=g3 v=0
70551 On ch=1 n=d#4 v=0
70551 On ch=1 n=g3 v=68
70551 On ch=1 n=d#4 v=68
70825 Par ch=1 c=64 v=0
71031 On ch=1 n=d#4 v=0
71031 On ch=1 n=g3 v=0
71031 On ch=1 n=d#3 v=0
71031 On ch=1 n=g#2 v=68
71031 On ch=1 n=d#3 v=76
71031 On ch=1 n=g#3 v=76
71058 Par ch=1 c=64 v=127
71511 On ch=1 n=g#3 v=0
71511 On ch=1 n=d#3 v=0
71511 On ch=1 n=g#2 v=0
71511 On ch=1 n=b2 v=62
71511 On ch=1 n=d#3 v=69
71511 On ch=1 n=b3 v=69
71991 On ch=1 n=b3 v=0
71991 On ch=1 n=d#3 v=0
71991 On ch=1 n=b2 v=0
71991 Par ch=1 c=64 v=0
71991 On ch=1 n=g#2 v=68
71991 On ch=1 n=d#3 v=76
71991 On ch=1 n=g#3 v=76
72151 Par ch=1 c=64 v=127
72471 On ch=1 n=g#3 v=0
72471 On ch=1 n=d#3 v=0
72471 On ch=1 n=g#2 v=0
72471 On ch=1 n=b2 v=56
72471 On ch=1 n=d#3 v=63
72471 On ch=1 n=b3 v=63
72818 Par ch=1 c=64 v=0
72951 On ch=1 n=b3 v=0
72951 On ch=1 n=d#3 v=0
72951 On ch=1 n=b2 v=0
72951 On ch=1 n=g#2 v=69
72951 On ch=1 n=d#3 v=77
72951 On ch=1 n=g#3 v=77
73050 Par ch=1 c=64 v=127
73375 Par ch=1 c=64 v=0
73431 On ch=1 n=g#3 v=0
73431 On ch=1 n=d#3 v=0
73431 On ch=1 n=g#2 v=0
73431 On ch=1 n=b2 v=63
73431 On ch=1 n=d#3 v=70
73431 On ch=1 n=b3 v=70
73502 Par ch=1 c=64 v=127
73911 On ch=1 n=b3 v=0
73911 On ch=1 n=d#3 v=0
73911 On ch=1 n=b2 v=0
73911 On ch=1 n=g#2 v=69
73911 On ch=1 n=d#3 v=77
73911 On ch=1 n=g#3 v=77
73925 Par ch=1 c=64 v=0
74038 Par ch=1 c=64 v=127
74391 On ch=1 n=g#3 v=0
74391 On ch=1 n=d#3 v=0
74391 On ch=1 n=g#2 v=0
74391 On ch=1 n=b2 v=62
74391 On ch=1 n=d#3 v=69
74391 On ch=1 n=b3 v=69
74405 Par ch=1 c=64 v=0
74476 Par ch=1 c=64 v=127
74730 Par ch=1 c=64 v=0
74868 On ch=1 n=b3 v=0
74868 On ch=1 n=d#3 v=0
74868 On ch=1 n=b2 v=0
74868 On ch=1 n=g#2 v=66
74868 On ch=1 n=d#3 v=74
74868 On ch=1 n=g#3 v=74
75081 Par ch=1 c=64 v=127
75348 On ch=1 n=g#3 v=0
75348 On ch=1 n=d#3 v=0
75348 On ch=1 n=g#2 v=0
75348 On ch=1 n=b2 v=61
75348 On ch=1 n=d#3 v=68
75348 On ch=1 n=b3 v=68
75428 Par ch=1 c=64 v=0
75588 Par ch=1 c=64 v=127
75828 On ch=1 n=b3 v=0
75828 On ch=1 n=d#3 v=0
75828 On ch=1 n=b2 v=0
75828 On ch=1 n=g#2 v=69
75828 On ch=1 n=d#3 v=77
75828 On ch=1 n=g#3 v=77
75881 Par ch=1 c=64 v=0
76068 Par ch=1 c=64 v=127
76308 On ch=1 n=g#3 v=0
76308 On ch=1 n=d#3 v=0
76308 On ch=1 n=g#2 v=0
76308 Par ch=1 c=64 v=0
76308 On ch=1 n=b2 v=61
76308 On ch=1 n=d#3 v=68
76308 On ch=1 n=b3 v=68
76495 Par ch=1 c=64 v=127
76628 Par ch=1 c=64 v=0
76788 On ch=1 n=b3 v=0
76788 On ch=1 n=d#3 v=0
76788 On ch=1 n=b2 v=0
76788 On ch=1 n=g#2 v=71
76788 On ch=1 n=d#3 v=79
76788 On ch=1 n=g#3 v=79
77028 Par ch=1 c=64 v=127
77268 On ch=1 n=g#3 v=0
77268 On ch=1 n=d#3 v=0
77268 On ch=1 n=g#2 v=0
77268 On ch=1 n=b2 v=62
77268 On ch=1 n=d#3 v=69
77268 On ch=1 n=b3 v=69
77561 Par ch=1 c=64 v=0
77748 On ch=1 n=b3 v=0
77748 On ch=1 n=d#3 v=0
77748 On ch=1 n=b2 v=0
77748 On ch=1 n=g#2 v=66
77748 On ch=1 n=d#3 v=74
77748 On ch=1 n=g#3 v=74
77908 Par ch=1 c=64 v=127
78148 Par ch=1 c=64 v=0
78228 On ch=1 n=g#3 v=0
78228 On ch=1 n=d#3 v=0
78228 On ch=1 n=g#2 v=0
78228 On ch=1 n=b2 v=63
78228 On ch=1 n=d#3 v=70
78228 On ch=1 n=b3 v=70
78441 Par ch=1 c=64 v=127
78548 Par ch=1 c=64 v=0
78708 On ch=1 n=b3 v=0
78708 On ch=1 n=d#3 v=0
78708 On ch=1 n=b2 v=0
78708 On ch=1 n=c#3 v=82
78708 On ch=1 n=a2 v=73
78708 On ch=1 n=a3 v=82
78845 Par ch=1 c=64 v=127
79188 On ch=1 n=a3 v=0
79188 On ch=1 n=a2 v=0
79188 On ch=1 n=c#3 v=0
79188 On ch=1 n=c#3 v=57
79188 On ch=1 n=e3 v=64
79188 On ch=1 n=c#4 v=64
79554 Par ch=1 c=64 v=0
79668 On ch=1 n=c#4 v=0
79668 On ch=1 n=e3 v=0
79668 On ch=1 n=c#3 v=0
79668 On ch=1 n=e4 v=70
79668 On ch=1 n=g#3 v=70
79668 On ch=1 n=e3 v=63
79759 Par ch=1 c=64 v=127
80079 Par ch=1 c=64 v=0
80148 On ch=1 n=e3 v=0
80148 On ch=1 n=g#3 v=0
80148 On ch=1 n=e4 v=0
80148 On ch=1 n=g#4 v=66
80148 On ch=1 n=b3 v=66
80148 On ch=1 n=g#3 v=59
80262 Par ch=1 c=64 v=127
80468 Par ch=1 c=64 v=0
80628 On ch=1 n=g#3 v=0
80628 On ch=1 n=b3 v=0
80628 On ch=1 n=g#4 v=0
80628 On ch=1 n=c#3 v=82
80628 On ch=1 n=a2 v=73
80628 On ch=1 n=a3 v=82
80719 Par ch=1 c=64 v=127
81108 On ch=1 n=a3 v=0
81108 On ch=1 n=a2 v=0
81108 On ch=1 n=c#3 v=0
81108 On ch=1 n=c#3 v=60
81108 On ch=1 n=e3 v=67
81108 On ch=1 n=c#4 v=67
81451 Par ch=1 c=64 v=0
81588 On ch=1 n=c#4 v=0
81588 On ch=1 n=e3 v=0
81588 On ch=1 n=c#3 v=0
81588 On ch=1 n=e4 v=75
81588 On ch=1 n=g#3 v=75
81588 On ch=1 n=e3 v=67
81634 Par ch=1 c=64 v=127
81954 Par ch=1 c=64 v=0
82068 On ch=1 n=e3 v=0
82068 On ch=1 n=g#3 v=0
82068 On ch=1 n=e4 v=0
82068 On ch=1 n=g#4 v=65
82068 On ch=1 n=b3 v=65
82068 On ch=1 n=g#3 v=58
82228 Par ch=1 c=64 v=127
82434 Par ch=1 c=64 v=0
82548 On ch=1 n=g#3 v=0
82548 On ch=1 n=b3 v=0
82548 On ch=1 n=g#4 v=0
82548 On ch=1 n=a#2 v=82
82548 On ch=1 n=g2 v=73
82548 On ch=1 n=g3 v=82
82685 Par ch=1 c=64 v=127
83028 On ch=1 n=g3 v=0
83028 On ch=1 n=g2 v=0
83028 On ch=1 n=a#2 v=0
83028 On ch=1 n=a#2 v=56
83028 On ch=1 n=d#3 v=63
83028 On ch=1 n=a#3 v=63
83439 Par ch=1 c=64 v=0
83508 On ch=1 n=a#3 v=0
83508 On ch=1 n=d#3 v=0
83508 On ch=1 n=a#2 v=0
83508 On ch=1 n=g2 v=62
83508 On ch=1 n=a#2 v=69
83508 On ch=1 n=g3 v=69
83714 Par ch=1 c=64 v=127
83988 On ch=1 n=g3 v=0
83988 On ch=1 n=a#2 v=0
83988 On ch=1 n=g2 v=0
83988 On ch=1 n=a#2 v=48
83988 On ch=1 n=d#3 v=54
83988 On ch=1 n=a#3 v=54
84285 Par ch=1 c=64 v=0
84468 On ch=1 n=a#3 v=0
84468 On ch=1 n=d#3 v=0
84468 On ch=1 n=a#2 v=0
84468 On ch=1 n=g#2 v=69
84468 On ch=1 n=d#3 v=77
84468 On ch=1 n=g#3 v=77
84601 Par ch=1 c=64 v=127
84948 On ch=1 n=g#3 v=0
84948 On ch=1 n=d#3 v=0
84948 On ch=1 n=g#2 v=0
84948 On ch=1 n=b2 v=56
84948 On ch=1 n=d#3 v=63
84948 On ch=1 n=b3 v=63
85295 Par ch=1 c=64 v=0
85428 On ch=1 n=b3 v=0
85428 On ch=1 n=d#3 v=0
85428 On ch=1 n=b2 v=0
85428 On ch=1 n=a#2 v=65
85428 On ch=1 n=d#3 v=65
85428 On ch=1 n=d#2 v=58
85508 Par ch=1 c=64 v=127
85828 Par ch=1 c=64 v=0
85908 On ch=1 n=d#2 v=0
85908 On ch=1 n=d#3 v=0
85908 On ch=1 n=a#2 v=0
85908 On ch=1 n=g2 v=47
85908 On ch=1 n=d#3 v=53
85908 On ch=1 n=g3 v=53
86015 Par ch=1 c=64 v=127
86228 Par ch=1 c=64 v=0
86388 On ch=1 n=g3 v=0
86388 On ch=1 n=d#3 v=0
86388 On ch=1 n=g2 v=0
86388 On ch=1 n=g#2 v=63
86388 On ch=1 n=b2 v=71
86388 On ch=1 n=g#3 v=71
86502 Par ch=1 c=64 v=127
86868 On ch=1 n=g#3 v=0
86868 On ch=1 n=b2 v=0
86868 On ch=1 n=g#2 v=0
86868 On ch=1 n=b2 v=48
86868 On ch=1 n=d#3 v=54
86868 On ch=1 n=b3 v=54
87302 Par ch=1 c=64 v=0
87348 On ch=1 n=b3 v=0
87348 On ch=1 n=d#3 v=0
87348 On ch=1 n=b2 v=0
87348 On ch=1 n=a2 v=52
87348 On ch=1 n=c#3 v=58
87348 On ch=1 n=a3 v=58
87462 Par ch=1 c=64 v=127
87737 Par ch=1 c=64 v=0
87828 On ch=1 n=a3 v=0
87828 On ch=1 n=c#3 v=0
87828 On ch=1 n=a2 v=0
87828 On ch=1 n=c#3 v=45
87828 On ch=1 n=e3 v=50
87828 On ch=1 n=c#4 v=50
87897 Par ch=1 c=64 v=127
88171 Par ch=1 c=64 v=0
88308 On ch=1 n=c#4 v=0
88308 On ch=1 n=e3 v=0
88308 On ch=1 n=c#3 v=0
88308 On ch=1 n=g#2 v=48
88308 On ch=1 n=d#3 v=54
88308 On ch=1 n=g#3 v=54
88521 Par ch=1 c=64 v=127
88788 On ch=1 n=g#3 v=0
88788 On ch=1 n=d#3 v=0
88788 On ch=1 n=g#2 v=0
88788 Par ch=1 c=64 v=0
88788 On ch=1 n=b2 v=33
88788 On ch=1 n=d#3 v=37
88788 On ch=1 n=b3 v=37
89268 On ch=1 n=b3 v=0
89268 On ch=1 n=d#3 v=0
89268 On ch=1 n=b2 v=0
89268 Par ch=1 c=64 v=0
89268 On ch=1 n=g#2 v=36
89268 On ch=1 n=d#3 v=41
89268 On ch=1 n=g#3 v=41
89428 Par ch=1 c=64 v=127
89748 On ch=1 n=g#3 v=0
89748 On ch=1 n=d#3 v=0
89748 On ch=1 n=g#2 v=0
89748 On ch=1 n=b2 v=34
89748 On ch=1 n=d#3 v=38
89748 On ch=1 n=b3 v=38
90095 Par ch=1 c=64 v=0
90228 On ch=1 n=b3 v=0
90228 On ch=1 n=d#3 v=0
90228 On ch=1 n=b2 v=0
90228 On ch=1 n=g#2 v=36
90228 On ch=1 n=d#3 v=41
90228 On ch=1 n=g#3 v=41
90327 Par ch=1 c=64 v=127
90652 Par ch=1 c=64 v=0
90708 On ch=1 n=g#3 v=0
90708 On ch=1 n=d#3 v=0
90708 On ch=1 n=g#2 v=0
90708 On ch=1 n=b2 v=34
90708 On ch=1 n=d#3 v=38
90708 On ch=1 n=b3 v=38
90779 Par ch=1 c=64 v=127
91188 On ch=1 n=b3 v=0
91188 On ch=1 n=d#3 v=0
91188 On ch=1 n=b2 v=0
91188 On ch=1 n=g#2 v=36
91188 On ch=1 n=d#3 v=41
91188 On ch=1 n=g#3 v=41
91202 Par ch=1 c=64 v=0
91315 Par ch=1 c=64 v=127
91668 On ch=1 n=g#3 v=0
91668 On ch=1 n=d#3 v=0
91668 On ch=1 n=g#2 v=0
91668 On ch=1 n=b2 v=34
91668 On ch=1 n=d#3 v=38
91668 On ch=1 n=b3 v=38
91682 Par ch=1 c=64 v=0
91753 Par ch=1 c=64 v=127
92007 Par ch=1 c=64 v=0
92145 On ch=1 n=b3 v=0
92145 On ch=1 n=d#3 v=0
92145 On ch=1 n=b2 v=0
92145 On ch=1 n=g#2 v=36
92145 On ch=1 n=d#3 v=41
92145 On ch=1 n=g#3 v=41
92358 Par ch=1 c=64 v=127
92625 On ch=1 n=g#3 v=0
92625 On ch=1 n=d#3 v=0
92625 On ch=1 n=g#2 v=0
92625 On ch=1 n=b2 v=31
92625 On ch=1 n=d#3 v=35
92625 On ch=1 n=b3 v=35
92705 Par ch=1 c=64 v=0
92865 Par ch=1 c=64 v=127
93105 On ch=1 n=b3 v=0
93105 On ch=1 n=d#3 v=0
93105 On ch=1 n=b2 v=0
93105 On ch=1 n=g#2 v=37
93105 On ch=1 n=d#3 v=42
93105 On ch=1 n=g#3 v=42
93158 Par ch=1 c=64 v=0
93345 Par ch=1 c=64 v=127
93585 On ch=1 n=g#3 v=0
93585 On ch=1 n=d#3 v=0
93585 On ch=1 n=g#2 v=0
93585 Par ch=1 c=64 v=0
93585 On ch=1 n=b2 v=33
93585 On ch=1 n=d#3 v=37
93585 On ch=1 n=b3 v=37
93772 Par ch=1 c=64 v=127
93905 Par ch=1 c=64 v=0
94065 On ch=1 n=b3 v=0
94065 On ch=1 n=d#3 v=0
94065 On ch=1 n=b2 v=0
94065 On ch=1 n=g#2 v=38
94065 On ch=1 n=d#3 v=43
94065 On ch=1 n=g#3 v=43
94305 Par ch=1 c=64 v=127
94545 On ch=1 n=g#3 v=0
94545 On ch=1 n=d#3 v=0
94545 On ch=1 n=g#2 v=0
94545 On ch=1 n=b2 v=34
94545 On ch=1 n=d#3 v=38
94545 On ch=1 n=b3 v=38
94838 Par ch=1 c=64 v=0
95025 On ch=1 n=b3 v=0
95025 On ch=1 n=d#3 v=0
95025 On ch=1 n=b2 v=0
95025 On ch=1 n=g#2 v=34
95025 On ch=1 n=d#3 v=38
95025 On ch=1 n=g#3 v=38
95185 Par ch=1 c=64 v=127
95425 Par ch=1 c=64 v=0
95505 On ch=1 n=g#3 v=0
95505 On ch=1 n=d#3 v=0
95505 On ch=1 n=g#2 v=0
95505 On ch=1 n=b2 v=31
95505 On ch=1 n=d#3 v=35
95505 On ch=1 n=b3 v=35
95718 Par ch=1 c=64 v=127
95825 Par ch=1 c=64 v=0
95985 On ch=1 n=b3 v=0
95985 On ch=1 n=d#3 v=0
95985 On ch=1 n=b2 v=0
95985 On ch=1 n=c#3 v=51
95985 On ch=1 n=a2 v=45
95985 On ch=1 n=a3 v=51
96122 Par ch=1 c=64 v=127
96465 On ch=1 n=a3 v=0
96465 On ch=1 n=a2 v=0
96465 On ch=1 n=c#3 v=0
96465 On ch=1 n=c#3 v=42
96465 On ch=1 n=e3 v=47
96465 On ch=1 n=c#4 v=47
96831 Par ch=1 c=64 v=0
96945 On ch=1 n=c#4 v=0
96945 On ch=1 n=e3 v=0
96945 On ch=1 n=c#3 v=0
96945 On ch=1 n=e2 v=45
96945 On ch=1 n=g#2 v=51
96945 On ch=1 n=e3 v=51
97036 Par ch=1 c=64 v=127
97356 Par ch=1 c=64 v=0
97425 On ch=1 n=e3 v=0
97425 On ch=1 n=g#2 v=0
97425 On ch=1 n=e2 v=0
97425 On ch=1 n=g#2 v=42
97425 On ch=1 n=b2 v=47
97425 On ch=1 n=g#3 v=47
97539 Par ch=1 c=64 v=127
97745 Par ch=1 c=64 v=0
97905 On ch=1 n=g#3 v=0
97905 On ch=1 n=b2 v=0
97905 On ch=1 n=g#2 v=0
97905 On ch=1 n=c#3 v=54
97905 On ch=1 n=a2 v=48
97905 On ch=1 n=a3 v=54
97996 Par ch=1 c=64 v=127
98385 On ch=1 n=a3 v=0
98385 On ch=1 n=a2 v=0
98385 On ch=1 n=c#3 v=0
98385 On ch=1 n=c#3 v=41
98385 On ch=1 n=e3 v=46
98385 On ch=1 n=c#4 v=46
98728 Par ch=1 c=64 v=0
98865 On ch=1 n=c#4 v=0
98865 On ch=1 n=e3 v=0
98865 On ch=1 n=c#3 v=0
98865 On ch=1 n=e2 v=49
98865 On ch=1 n=g#2 v=55
98865 On ch=1 n=e3 v=55
98911 Par ch=1 c=64 v=127
99231 Par ch=1 c=64 v=0
99345 On ch=1 n=e3 v=0
99345 On ch=1 n=g#2 v=0
99345 On ch=1 n=e2 v=0
99345 On ch=1 n=g#2 v=43
99345 On ch=1 n=b2 v=48
99345 On ch=1 n=g#3 v=48
99505 Par ch=1 c=64 v=127
99711 Par ch=1 c=64 v=0
99825 On ch=1 n=g#3 v=0
99825 On ch=1 n=b2 v=0
99825 On ch=1 n=g#2 v=0
99825 On ch=1 n=c#3 v=55
99825 On ch=1 n=a2 v=49
99825 On ch=1 n=a3 v=55
99916 Par ch=1 c=64 v=127
100305 On ch=1 n=a3 v=0
100305 On ch=1 n=a2 v=0
100305 On ch=1 n=c#3 v=0
100305 On ch=1 n=c#3 v=35
100305 On ch=1 n=e3 v=39
100305 On ch=1 n=c#4 v=39
100648 Par ch=1 c=64 v=0
100785 On ch=1 n=c#4 v=0
100785 On ch=1 n=e3 v=0
100785 On ch=1 n=c#3 v=0
100785 On ch=1 n=e2 v=49
100785 On ch=1 n=g#2 v=55
100785 On ch=1 n=e3 v=55
100831 Par ch=1 c=64 v=127
101151 Par ch=1 c=64 v=0
101265 On ch=1 n=e3 v=0
101265 On ch=1 n=g#2 v=0
101265 On ch=1 n=e2 v=0
101265 On ch=1 n=g#2 v=35
101265 On ch=1 n=b2 v=39
101265 On ch=1 n=g#3 v=39
101425 Par ch=1 c=64 v=127
101631 Par ch=1 c=64 v=0
101745 On ch=1 n=g#3 v=0
101745 On ch=1 n=b2 v=0
101745 On ch=1 n=g#2 v=0
101745 On ch=1 n=f#3 v=54
101745 On ch=1 n=b2 v=48
101745 On ch=1 n=b3 v=54
101882 Par ch=1 c=64 v=127
102225 On ch=1 n=b3 v=0
102225 On ch=1 n=b2 v=0
102225 On ch=1 n=f#3 v=0
102225 On ch=1 n=d#3 v=34
102225 On ch=1 n=f#3 v=38
102225 On ch=1 n=d#4 v=38
102636 Par ch=1 c=64 v=0
102705 On ch=1 n=d#4 v=0
102705 On ch=1 n=f#3 v=0
102705 On ch=1 n=d#3 v=0
102705 On ch=1 n=d#3 v=52
102705 On ch=1 n=g3 v=52
102705 On ch=1 n=d#4 v=52
102911 Par ch=1 c=64 v=127
103185 On ch=1 n=d#4 v=0
103185 On ch=1 n=g3 v=0
103185 On ch=1 n=g3 v=42
103185 On ch=1 n=d#4 v=42
103482 Par ch=1 c=64 v=0
103665 On ch=1 n=d#4 v=0
103665 On ch=1 n=g3 v=0
103665 On ch=1 n=d#3 v=0
103665 On ch=1 n=g#2 v=41
103665 On ch=1 n=d#3 v=46
103665 On ch=1 n=g#3 v=46
103798 Par ch=1 c=64 v=127
104145 On ch=1 n=g#3 v=0
104145 On ch=1 n=d#3 v=0
104145 On ch=1 n=d#3 v=33
104145 On ch=1 n=g#3 v=33
104168 Par ch=1 c=64 v=0
104328 Par ch=1 c=64 v=127
104625 On ch=1 n=g#3 v=0
104625 On ch=1 n=d#3 v=0
104625 On ch=1 n=g#2 v=0
104625 On ch=1 n=a2 v=32
104625 On ch=1 n=c#3 v=36
104625 On ch=1 n=a3 v=36
104671 Par ch=1 c=64 v=0
104865 Par ch=1 c=64 v=127
105105 On ch=1 n=a3 v=0
105105 On ch=1 n=c#3 v=0
105105 On ch=1 n=c#3 v=33
105105 On ch=1 n=a3 v=33
105425 Par ch=1 c=64 v=0
105585 On ch=1 n=a3 v=0
105585 On ch=1 n=c#3 v=0
105585 On ch=1 n=a2 v=0
105585 On ch=1 n=d4 v=36
105585 On ch=1 n=f#3 v=36
105585 On ch=1 n=d3 v=32
105676 Par ch=1 c=64 v=127
106065 On ch=1 n=f#3 v=0
106065 On ch=1 n=d4 v=0
106065 On ch=1 n=d4 v=33
106065 On ch=1 n=f#3 v=33
106545 On ch=1 n=f#3 v=0
106545 On ch=1 n=d4 v=0
106545 On ch=1 n=d3 v=0
106545 On ch=1 n=c#4 v=36
106545 On ch=1 n=e3 v=36
106545 On ch=1 n=c#3 v=32
106568 Par ch=1 c=64 v=0
106705 Par ch=1 c=64 v=127
107025 On ch=1 n=e3 v=0
107025 On ch=1 n=c#4 v=0
107025 On ch=1 n=e3 v=33
107025 On ch=1 n=c#4 v=33
107368 Par ch=1 c=64 v=0
107505 On ch=1 n=c#4 v=0
107505 On ch=1 n=e3 v=0
107505 On ch=1 n=c#3 v=0
107505 On ch=1 n=g#2 v=32
107505 On ch=1 n=d#3 v=36
107505 On ch=1 n=g#3 v=36
107718 Par ch=1 c=64 v=127
107985 On ch=1 n=g#3 v=0
107985 On ch=1 n=d#3 v=0
107985 On ch=1 n=g#2 v=0
107985 On ch=1 n=b2 v=27
107985 On ch=1 n=d#3 v=31
107985 On ch=1 n=b3 v=31
108065 Par ch=1 c=64 v=0
108225 Par ch=1 c=64 v=127
108465 On ch=1 n=b3 v=0
108465 On ch=1 n=d#3 v=0
108465 On ch=1 n=b2 v=0
108465 On ch=1 n=g#2 v=31
108465 On ch=1 n=d#3 v=35
108465 On ch=1 n=g#3 v=35
108518 Par ch=1 c=64 v=0
108705 Par ch=1 c=64 v=127
108945 On ch=1 n=g#3 v=0
108945 On ch=1 n=d#3 v=0
108945 On ch=1 n=g#2 v=0
108945 Par ch=1 c=64 v=0
108945 On ch=1 n=b2 v=28
108945 On ch=1 n=d#3 v=32
108945 On ch=1 n=b3 v=32
109132 Par ch=1 c=64 v=127
109265 Par ch=1 c=64 v=0
109425 On ch=1 n=b3 v=0
109425 On ch=1 n=d#3 v=0
109425 On ch=1 n=b2 v=0
109425 On ch=1 n=g#2 v=32
109425 On ch=1 n=d#3 v=36
109425 On ch=1 n=g#3 v=36
109665 Par ch=1 c=64 v=127
109905 On ch=1 n=g#3 v=0
109905 On ch=1 n=d#3 v=0
109905 On ch=1 n=g#2 v=0
109905 On ch=1 n=b2 v=29
109905 On ch=1 n=d#3 v=33
109905 On ch=1 n=b3 v=33
110198 Par ch=1 c=64 v=0
110385 On ch=1 n=b3 v=0
110385 On ch=1 n=d#3 v=0
110385 On ch=1 n=b2 v=0
110385 On ch=1 n=g#2 v=31
110385 On ch=1 n=d#3 v=35
110385 On ch=1 n=g#3 v=35
110545 Par ch=1 c=64 v=127
110785 Par ch=1 c=64 v=0
110865 On ch=1 n=g#3 v=0
110865 On ch=1 n=d#3 v=0
110865 On ch=1 n=g#2 v=0
110865 On ch=1 n=b2 v=28
110865 On ch=1 n=d#3 v=32
110865 On ch=1 n=b3 v=32
110978 Par ch=1 c=64 v=127
111260 Par ch=1 c=64 v=0
111345 On ch=1 n=b3 v=0
111345 On ch=1 n=d#3 v=0
111345 On ch=1 n=b2 v=0
111345 On ch=1 n=d#3 v=34
111345 On ch=1 n=g#3 v=34
111345 On ch=1 n=g#2 v=30
111505 Par ch=1 c=64 v=127
111825 On ch=1 n=g#3 v=0
111825 On ch=1 n=d#3 v=0
111825 On ch=1 n=d#3 v=30
111825 On ch=1 n=g#3 v=30
112305 On ch=1 n=g#3 v=0
112305 On ch=1 n=d#3 v=0
112305 On ch=1 n=g#2 v=0
112305 On ch=1 n=a2 v=30
112305 On ch=1 n=c#3 v=34
112305 On ch=1 n=a3 v=34
112305 Par ch=1 c=64 v=0
112488 Par ch=1 c=64 v=127
112785 On ch=1 n=a3 v=0
112785 On ch=1 n=c#3 v=0
112785 On ch=1 n=c#3 v=30
112785 On ch=1 n=a3 v=30
112854 Par ch=1 c=64 v=0
113265 On ch=1 n=a3 v=0
113265 On ch=1 n=c#3 v=0
113265 On ch=1 n=a2 v=0
113265 On ch=1 n=e3 v=34
113265 On ch=1 n=g#2 v=34
113265 On ch=1 n=e2 v=30
113425 Par ch=1 c=64 v=127
113745 On ch=1 n=g#2 v=0
113745 On ch=1 n=e3 v=0
113745 On ch=1 n=e3 v=30
113745 On ch=1 n=g#2 v=30
114111 Par ch=1 c=64 v=0
114225 On ch=1 n=g#2 v=0
114225 On ch=1 n=e3 v=0
114225 On ch=1 n=e2 v=0
114225 On ch=1 n=f#3 v=34
114225 On ch=1 n=a2 v=34
114225 On ch=1 n=f#2 v=30
114316 Par ch=1 c=64 v=127
114705 On ch=1 n=a2 v=0
114705 On ch=1 n=f#3 v=0
114705 On ch=1 n=f#3 v=28
114705 On ch=1 n=a2 v=28
114774 Par ch=1 c=64 v=0
115185 On ch=1 n=a2 v=0
115185 On ch=1 n=f#3 v=0
115185 On ch=1 n=f#2 v=0
115185 On ch=1 n=g#2 v=27
115185 On ch=1 n=d#3 v=30
115185 On ch=1 n=g#3 v=30
115318 Par ch=1 c=64 v=127
115665 On ch=1 n=g#3 v=0
115665 On ch=1 n=d#3 v=0
115665 On ch=1 n=g#2 v=0
115665 On ch=1 n=b2 v=18
115665 On ch=1 n=d#3 v=21
115665 On ch=1 n=b3 v=21
116012 Par ch=1 c=64 v=0
116145 On ch=1 n=b3 v=0
116145 On ch=1 n=d#3 v=0
116145 On ch=1 n=b2 v=0
116145 On ch=1 n=g#2 v=26
116145 On ch=1 n=d#3 v=29
116145 On ch=1 n=g#3 v=29
116198 Par ch=1 c=64 v=127
116492 Par ch=1 c=64 v=0
116625 On ch=1 n=g#3 v=0
116625 On ch=1 n=d#3 v=0
116625 On ch=1 n=g#2 v=0
116625 On ch=1 n=b2 v=20
116625 On ch=1 n=d#3 v=23
116625 On ch=1 n=b3 v=23
116678 Par ch=1 c=64 v=127
116945 Par ch=1 c=64 v=0
117105 On ch=1 n=b3 v=0
117105 On ch=1 n=d#3 v=0
117105 On ch=1 n=b2 v=0
117105 On ch=1 n=b2 v=27
117105 On ch=1 n=g#2 v=27
117140 Par ch=1 c=64 v=127
117585 On ch=1 n=g#2 v=0
117585 On ch=1 n=b2 v=0
117585 On ch=1 n=d#3 v=20
117585 On ch=1 n=b2 v=20
118016 Par ch=1 c=64 v=0
118065 On ch=1 n=b2 v=0
118065 On ch=1 n=d#3 v=0
118065 On ch=1 n=b2 v=28
118065 On ch=1 n=g#2 v=28
118225 Par ch=1 c=64 v=127
118545 On ch=1 n=g#2 v=0
118545 On ch=1 n=b2 v=0
118545 On ch=1 n=d#3 v=21
118545 On ch=1 n=b2 v=21
119025 On ch=1 n=b2 v=0
119025 On ch=1 n=d#3 v=0
119025 Par ch=1 c=64 v=0
119025 On ch=1 n=g#2 v=29
119212 Par ch=1 c=64 v=127
119985 On ch=1 n=g#2 v=0
119985 On ch=1 n=b2 v=23
120038 Par ch=1 c=64 v=0
120225 Par ch=1 c=64 v=127
120945 On ch=1 n=b2 v=0
120945 Par ch=1 c=64 v=0
120945 On ch=1 n=g#2 v=25
121185 Par ch=1 c=64 v=127
121905 On ch=1 n=g#2 v=0
121905 On ch=1 n=b2 v=20
121932 Par ch=1 c=64 v=0
122145 Par ch=1 c=64 v=127
122705 Par ch=1 c=64 v=0
122865 On ch=1 n=b2 v=0
122865 Meta TrkEnd
TrkEnd
MTrk
0 SeqSpec 43 00 01 00
0 Meta TrkName "Modest Mussorgski: Bilder einer Ausstellung (4)"
0 Meta 0x21 00
0 Meta TrkEnd
TrkEnd
MTrk
0 SeqSpec 43 00 01 00
0 Meta TrkName "Copyright \xffffffa9 2000 by Bernd Kr\xfffffffcger"
0 Meta 0x21 00
0 Meta TrkEnd
TrkEnd
MTrk
0 SeqSpec 43 00 01 00
0 Meta TrkName "email: bernd.krueger@piano-midi.de"
0 Meta 0x21 00
0 Meta TrkEnd
TrkEnd
MTrk
0 SeqSpec 43 00 01 00
0 Meta TrkName "http://piano-midi.de"
0 Meta 0x21 00
0 Meta TrkEnd
TrkEnd
MTrk
0 SeqSpec 43 00 01 00
0 Meta TrkName "Edition: 18.11.00"
0 Meta 0x21 00
0 Meta TrkEnd
TrkEnd
MTrk
0 SeqSpec 43 00 01 00
0 Meta 0x21 00
0 Meta TrkEnd
TrkEnd
