MFile 1 2 480
MTrk
0 TimeSig 4/4 24 8
0 Tempo 500000
0 Meta Text "Liszt Cantique"
0 Meta TrkEnd
TrkEnd
MTrk
0 SeqSpec 43 00 01 00
1928 Par ch=1 c=64 v=127
3495 On ch=1 n=b3 v=25
3638 On ch=1 n=d#4 v=30
3851 On ch=1 n=g#4 v=70
4795 On ch=1 n=g#4 v=0
5128 On ch=1 n=d#4 v=0
5375 On ch=1 n=b3 v=0
5659 On ch=1 n=f#4 v=39
5835 On ch=1 n=f#4 v=0
6160 On ch=1 n=f#4 v=32
6160 On ch=1 n=d#4 v=32
6175 On ch=1 n=a3 v=32
6579 Par ch=1 c=64 v=0
7328 Par ch=1 c=64 v=127
8740 On ch=1 n=d#4 v=0
8744 On ch=1 n=f#4 v=0
8755 On ch=1 n=a3 v=0
9211 Par ch=1 c=64 v=0
9488 On ch=1 n=a3 v=33
9531 On ch=1 n=d#4 v=39
9541 Par ch=1 c=64 v=127
9608 On ch=1 n=f#4 v=46
9741 On ch=1 n=c#5 v=80
10592 On ch=1 n=f#4 v=0
10908 On ch=1 n=d#4 v=0
10912 On ch=1 n=a3 v=0
11225 On ch=1 n=c#5 v=0
11468 On ch=1 n=c5 v=51
11628 On ch=1 n=c5 v=0
11931 On ch=1 n=c5 v=45
12000 On ch=1 n=g#3 v=31
12008 On ch=1 n=f#4 v=33
12025 On ch=1 n=d#4 v=30
12081 Par ch=1 c=64 v=0
12801 Par ch=1 c=64 v=127
13197 On ch=1 n=f#4 v=0
13512 On ch=1 n=c5 v=0
13777 On ch=1 n=d#4 v=0
13912 On ch=1 n=g#3 v=0
14556 On ch=1 n=c5 v=60
14597 Par ch=1 c=64 v=0
14837 Par ch=1 c=64 v=127
15388 On ch=1 n=g4 v=44
15388 On ch=1 n=g3 v=44
15388 On ch=1 n=d#4 v=39
15595 Par ch=1 c=64 v=0
15752 Par ch=1 c=64 v=127
16068 On ch=1 n=d5 v=72
16328 On ch=1 n=g3 v=0
16328 On ch=1 n=g4 v=0
16335 On ch=1 n=d#4 v=0
16417 On ch=1 n=c5 v=0
16445 On ch=1 n=d5 v=0
16771 On ch=1 n=d#5 v=80
16812 On ch=1 n=g4 v=51
16815 On ch=1 n=d#3 v=50
16817 On ch=1 n=c4 v=46
16935 Par ch=1 c=64 v=0
17032 Par ch=1 c=64 v=127
17108 On ch=1 n=g4 v=0
17157 On ch=1 n=c4 v=0
17240 On ch=1 n=d#5 v=0
17284 On ch=1 n=d#3 v=0
17291 On ch=1 n=b2 v=50
17416 On ch=1 n=b3 v=58
17472 On ch=1 n=a4 v=53
17637 On ch=1 n=d#5 v=63
17949 Par ch=1 c=64 v=0
17949 On ch=1 n=g5 v=82
19072 Par ch=1 c=64 v=127
20408 On ch=1 n=a4 v=0
20557 On ch=1 n=d#5 v=0
20848 On ch=1 n=g5 v=0
21784 On ch=1 n=f#5 v=45
21935 Par ch=1 c=64 v=0
22132 Par ch=1 c=64 v=127
22521 On ch=1 n=f#5 v=0
23641 On ch=1 n=b5 v=44
24189 On ch=1 n=b5 v=0
24437 On ch=1 n=b2 v=0
24456 On ch=1 n=b3 v=0
26604 Par ch=1 c=64 v=0
28601 Par ch=1 c=64 v=127
29168 On ch=1 n=g#4 v=73
29648 Par ch=1 c=67 v=127
29881 On ch=1 n=e3 v=35
30095 On ch=1 n=e3 v=0
30233 On ch=1 n=b3 v=31
30453 On ch=1 n=b3 v=0
30574 On ch=1 n=e4 v=34
30749 On ch=1 n=e4 v=0
30861 On ch=1 n=b4 v=39
31169 On ch=1 n=e5 v=38
31505 On ch=1 n=g#5 v=41
31713 On ch=1 n=e5 v=0
31778 On ch=1 n=b4 v=0
31809 On ch=1 n=b5 v=41
31882 On ch=1 n=g#5 v=0
31918 On ch=1 n=g#4 v=0
31986 On ch=1 n=b5 v=0
32154 On ch=1 n=e6 v=38
32158 On ch=1 n=g#6 v=34
32329 On ch=1 n=e6 v=0
32332 On ch=1 n=g#6 v=0
32418 Par ch=1 c=67 v=0
32629 On ch=1 n=b4 v=75
33022 Par ch=1 c=67 v=127
33033 On ch=1 n=e3 v=39
33253 On ch=1 n=e3 v=0
33329 On ch=1 n=b3 v=39
33477 On ch=1 n=b3 v=0
33665 On ch=1 n=g#4 v=35
33665 On ch=1 n=e4 v=36
33885 On ch=1 n=e4 v=0
33934 On ch=1 n=g#4 v=0
33969 On ch=1 n=e5 v=34
34265 On ch=1 n=g#5 v=37
34593 On ch=1 n=b5 v=36
34833 On ch=1 n=g#5 v=0
34892 On ch=1 n=e6 v=40
34921 On ch=1 n=e5 v=0
34966 On ch=1 n=b5 v=0
35113 On ch=1 n=b4 v=0
35165 On ch=1 n=e6 v=0
35265 On ch=1 n=b6 v=35
35289 On ch=1 n=g#6 v=33
35441 On ch=1 n=b6 v=0
35465 On ch=1 n=g#6 v=0
35492 Par ch=1 c=67 v=0
35753 On ch=1 n=d#5 v=78
36098 Par ch=1 c=64 v=0
36153 Par ch=1 c=67 v=127
36201 On ch=1 n=e3 v=42
36305 Par ch=1 c=64 v=127
36468 On ch=1 n=e3 v=0
36498 On ch=1 n=b3 v=40
36625 On ch=1 n=b3 v=0
36805 On ch=1 n=a4 v=35
36815 On ch=1 n=f#4 v=34
36978 On ch=1 n=a4 v=0
36989 On ch=1 n=f#4 v=0
37082 On ch=1 n=f#5 v=43
37378 On ch=1 n=a5 v=41
37710 On ch=1 n=d#6 v=44
38029 On ch=1 n=f#6 v=38
38251 On ch=1 n=f#6 v=0
38582 On ch=1 n=a6 v=35
38582 On ch=1 n=d#7 v=36
38762 On ch=1 n=a6 v=0
38806 On ch=1 n=d#7 v=0
38971 Par ch=1 c=67 v=0
39271 On ch=1 n=d#5 v=0
39546 On ch=1 n=d#5 v=65
39745 On ch=1 n=d#6 v=0
39779 On ch=1 n=a5 v=0
39838 On ch=1 n=f#5 v=0
40391 On ch=1 n=d#5 v=0
40550 On ch=1 n=d#5 v=73
40762 Par ch=1 c=64 v=0
40862 Par ch=1 c=64 v=127
41685 On ch=1 n=d#5 v=0
41898 On ch=1 n=a4 v=75
42222 On ch=1 n=a4 v=0
42342 On ch=1 n=c#5 v=84
42770 Par ch=1 c=64 v=0
42830 Par ch=1 c=67 v=127
42830 On ch=1 n=e3 v=46
43022 On ch=1 n=e3 v=0
43059 Par ch=1 c=64 v=127
43142 On ch=1 n=a#3 v=43
43235 On ch=1 n=a#3 v=0
43410 On ch=1 n=e4 v=47
43418 On ch=1 n=g4 v=43
43490 On ch=1 n=e4 v=0
43502 On ch=1 n=g4 v=0
43699 On ch=1 n=e5 v=50
43966 On ch=1 n=g5 v=45
44271 On ch=1 n=c#6 v=49
44531 On ch=1 n=c#6 v=0
44562 On ch=1 n=g5 v=0
44582 On ch=1 n=e5 v=0
44582 On ch=1 n=e6 v=41
44683 On ch=1 n=e6 v=0
44775 On ch=1 n=c#5 v=0
44911 On ch=1 n=c#7 v=41
44922 On ch=1 n=g6 v=38
45002 On ch=1 n=g6 v=0
45009 On ch=1 n=c#7 v=0
45063 Par ch=1 c=67 v=0
45182 On ch=1 n=c5 v=66
45474 On ch=1 n=c5 v=0
45514 On ch=1 n=b4 v=68
45746 Par ch=1 c=64 v=0
45806 Par ch=1 c=67 v=127
45919 On ch=1 n=e3 v=38
46066 On ch=1 n=e3 v=0
46111 Par ch=1 c=64 v=127
46218 On ch=1 n=b3 v=43
46279 On ch=1 n=b3 v=0
46542 On ch=1 n=e4 v=33
46542 On ch=1 n=g#4 v=29
46662 On ch=1 n=e4 v=0
46679 On ch=1 n=g#4 v=0
46818 On ch=1 n=e5 v=34
47090 On ch=1 n=g#5 v=40
47414 On ch=1 n=b5 v=35
47771 On ch=1 n=e6 v=33
47782 On ch=1 n=g#5 v=0
48139 On ch=1 n=e6 v=0
48139 On ch=1 n=b5 v=0
48246 On ch=1 n=g#6 v=36
48246 On ch=1 n=b6 v=36
48302 On ch=1 n=e5 v=0
48442 On ch=1 n=g#6 v=0
48475 On ch=1 n=b6 v=0
48710 Par ch=1 c=67 v=0
48729 On ch=1 n=b4 v=0
49231 On ch=1 n=g#4 v=74
49442 Par ch=1 c=64 v=0
49702 Par ch=1 c=67 v=127
49726 Par ch=1 c=64 v=127
49726 On ch=1 n=d#3 v=38
49949 On ch=1 n=d#3 v=0
50054 On ch=1 n=c4 v=42
50331 On ch=1 n=f#4 v=43
50422 On ch=1 n=c4 v=0
50426 On ch=1 n=f#4 v=0
50606 On ch=1 n=c5 v=46
50874 On ch=1 n=f#5 v=48
51149 On ch=1 n=g#5 v=52
51343 On ch=1 n=f#5 v=0
51379 On ch=1 n=c5 v=0
51398 On ch=1 n=g#5 v=0
51402 On ch=1 n=c6 v=44
51586 On ch=1 n=g#4 v=0
51622 Par ch=1 c=67 v=0
51650 On ch=1 n=c6 v=0
51691 On ch=1 n=f#6 v=41
51691 On ch=1 n=g#6 v=38
51751 On ch=1 n=f#6 v=0
51766 On ch=1 n=g#6 v=0
52032 On ch=1 n=a4 v=83
52387 Par ch=1 c=64 v=0
52387 On ch=1 n=d3 v=48
52526 On ch=1 n=d3 v=0
52548 Par ch=1 c=64 v=127
52687 On ch=1 n=c4 v=46
52928 On ch=1 n=f#4 v=44
52999 On ch=1 n=c4 v=0
53039 On ch=1 n=f#4 v=0
53196 On ch=1 n=c5 v=48
53468 On ch=1 n=f#5 v=51
53728 On ch=1 n=a5 v=52
53887 On ch=1 n=f#5 v=0
54003 On ch=1 n=c6 v=45
54013 On ch=1 n=c5 v=0
54043 On ch=1 n=a5 v=0
54205 On ch=1 n=c6 v=0
54324 On ch=1 n=a6 v=45
54324 On ch=1 n=f#6 v=37
54325 On ch=1 n=a4 v=0
54360 On ch=1 n=f#6 v=0
54385 On ch=1 n=a6 v=0
54524 On ch=1 n=a4 v=82
54725 On ch=1 n=a4 v=0
54729 On ch=1 n=a4 v=88
55060 Par ch=1 c=64 v=0
55089 On ch=1 n=c#3 v=57
55216 Par ch=1 c=64 v=127
55224 On ch=1 n=c#3 v=0
55436 On ch=1 n=c#4 v=53
55672 On ch=1 n=c#4 v=0
55676 On ch=1 n=f#4 v=55
55773 On ch=1 n=f#4 v=0
55936 On ch=1 n=c#5 v=60
56176 On ch=1 n=f#5 v=61
56425 On ch=1 n=a5 v=66
56560 On ch=1 n=f#5 v=0
56632 On ch=1 n=a5 v=0
56648 On ch=1 n=c#5 v=0
56663 On ch=1 n=c#6 v=67
56860 On ch=1 n=a4 v=0
56923 On ch=1 n=f#6 v=57
56929 On ch=1 n=a6 v=60
57005 On ch=1 n=a6 v=0
57005 On ch=1 n=f#6 v=0
57039 On ch=1 n=c#6 v=0
57224 On ch=1 n=a#4 v=93
57512 Par ch=1 c=64 v=0
57580 On ch=1 n=c3 v=46
57676 Par ch=1 c=64 v=127
57716 On ch=1 n=c3 v=0
57883 Par ch=1 c=67 v=127
57900 On ch=1 n=a#3 v=44
58025 On ch=1 n=a#3 v=0
58160 On ch=1 n=g4 v=45
58164 On ch=1 n=e4 v=38
58223 On ch=1 n=e4 v=0
58233 On ch=1 n=g4 v=0
58402 On ch=1 n=e5 v=53
58677 On ch=1 n=g5 v=55
58957 On ch=1 n=a#5 v=54
58989 Par ch=1 c=67 v=0
59094 On ch=1 n=e5 v=0
59140 On ch=1 n=g5 v=0
59233 On ch=1 n=e6 v=44
59357 On ch=1 n=a#4 v=0
59457 On ch=1 n=a#5 v=0
59556 On ch=1 n=a#6 v=45
59556 On ch=1 n=g6 v=41
59573 On ch=1 n=e6 v=0
59621 On ch=1 n=a#6 v=0
59625 On ch=1 n=g6 v=0
59769 On ch=1 n=e5 v=84
60061 On ch=1 n=e5 v=0
60122 On ch=1 n=g#5 v=96
60437 Par ch=1 c=64 v=0
60529 On ch=1 n=f#2 v=55
60653 Par ch=1 c=64 v=127
60809 On ch=1 n=f#3 v=57
60819 On ch=1 n=f#2 v=0
60867 On ch=1 n=f#3 v=0
61159 On ch=1 n=d#5 v=50
61159 On ch=1 n=b4 v=56
61174 On ch=1 n=d#4 v=53
61254 On ch=1 n=d#4 v=0
61283 On ch=1 n=b4 v=0
61326 On ch=1 n=d#5 v=0
61450 On ch=1 n=b5 v=65
61687 On ch=1 n=d#6 v=70
61939 On ch=1 n=g#6 v=75
62154 On ch=1 n=d#6 v=0
62178 On ch=1 n=b6 v=64
62283 On ch=1 n=b6 v=0
62478 On ch=1 n=g#7 v=66
62478 On ch=1 n=d#7 v=63
62570 On ch=1 n=g#7 v=0
62582 On ch=1 n=d#7 v=0
63490 On ch=1 n=g#5 v=0
63742 On ch=1 n=f#5 v=85
63958 On ch=1 n=g#6 v=0
64090 On ch=1 n=b5 v=0
64130 On ch=1 n=f#5 v=0
65298 On ch=1 n=d#5 v=72
65538 On ch=1 n=d#5 v=0
65714 On ch=1 n=d#5 v=81
66206 Par ch=1 c=64 v=0
66223 On ch=1 n=f#3 v=49
66330 Par ch=1 c=67 v=127
66403 On ch=1 n=f#3 v=0
66474 Par ch=1 c=64 v=127
66607 On ch=1 n=e4 v=38
66893 On ch=1 n=a#4 v=42
66919 On ch=1 n=e4 v=0
66959 On ch=1 n=a#4 v=0
67159 On ch=1 n=f#5 v=46
67446 On ch=1 n=a#5 v=45
67758 On ch=1 n=d#6 v=46
67903 On ch=1 n=d#6 v=0
67903 On ch=1 n=a#5 v=0
68030 On ch=1 n=e6 v=46
68138 On ch=1 n=e6 v=0
68551 On ch=1 n=f#6 v=36
68551 On ch=1 n=d#7 v=37
68554 On ch=1 n=a#6 v=36
68690 On ch=1 n=a#6 v=0
68697 On ch=1 n=f#6 v=0
68719 On ch=1 n=d#7 v=0
69810 On ch=1 n=d#5 v=0
69827 On ch=1 n=d#5 v=68
70218 On ch=1 n=f#5 v=0
70250 On ch=1 n=d#5 v=0
71202 On ch=1 n=c#5 v=69
71397 On ch=1 n=c#5 v=0
71462 Par ch=1 c=67 v=0
71599 On ch=1 n=c#5 v=78
71974 Par ch=1 c=67 v=127
72094 On ch=1 n=f#3 v=40
72239 On ch=1 n=f#3 v=0
72318 On ch=1 n=e4 v=36
72586 On ch=1 n=a4 v=45
72631 On ch=1 n=e4 v=0
72858 On ch=1 n=a4 v=0
73086 On ch=1 n=e5 v=47
73402 On ch=1 n=c#6 v=57
73446 On ch=1 n=c#6 v=0
73482 On ch=1 n=e5 v=0
73511 On ch=1 n=c#5 v=0
73762 On ch=1 n=a4 v=55
73790 On ch=1 n=f#4 v=40
73790 On ch=1 n=b3 v=39
73826 Par ch=1 c=64 v=0
73958 Par ch=1 c=64 v=127
74034 On ch=1 n=b3 v=0
74086 On ch=1 n=f#4 v=0
74174 On ch=1 n=a4 v=0
74271 On ch=1 n=d#5 v=42
74283 On ch=1 n=c#5 v=49
74283 On ch=1 n=f#5 v=44
74354 Par ch=1 c=64 v=0
74419 On ch=1 n=f#5 v=0
74438 Par ch=1 c=64 v=127
74798 On ch=1 n=c#5 v=0
74910 On ch=1 n=d#5 v=0
74930 On ch=1 n=b5 v=42
74947 On ch=1 n=b4 v=49
75079 On ch=1 n=b5 v=0
75094 On ch=1 n=b4 v=0
75339 Par ch=1 c=67 v=0
75903 On ch=1 n=g#5 v=82
75910 On ch=1 n=g#4 v=65
76278 Par ch=1 c=64 v=0
76446 Par ch=1 c=67 v=127
76543 On ch=1 n=e3 v=41
76594 Par ch=1 c=64 v=127
76686 On ch=1 n=e3 v=0
76877 On ch=1 n=b3 v=36
76986 On ch=1 n=b3 v=0
77183 On ch=1 n=e4 v=34
77258 On ch=1 n=e4 v=0
77503 On ch=1 n=b4 v=42
77794 On ch=1 n=e5 v=38
77890 On ch=1 n=g#5 v=0
78118 On ch=1 n=g#5 v=41
78234 On ch=1 n=e5 v=0
78290 On ch=1 n=b4 v=0
78294 On ch=1 n=g#5 v=0
78427 On ch=1 n=b5 v=37
78458 On ch=1 n=g#4 v=0
78534 On ch=1 n=b5 v=0
78759 On ch=1 n=e6 v=37
78759 On ch=1 n=g#6 v=37
78817 On ch=1 n=e6 v=0
78827 On ch=1 n=g#6 v=0
78851 Par ch=1 c=67 v=0
79148 On ch=1 n=b5 v=82
79163 On ch=1 n=b4 v=64
79556 On ch=1 n=e3 v=43
79575 Par ch=1 c=67 v=127
79696 On ch=1 n=e3 v=0
79847 On ch=1 n=b3 v=40
79894 On ch=1 n=b3 v=0
80131 On ch=1 n=g#4 v=37
80141 On ch=1 n=e4 v=37
80232 On ch=1 n=e4 v=0
80261 On ch=1 n=g#4 v=0
80428 On ch=1 n=e5 v=47
80708 On ch=1 n=g#5 v=46
80800 On ch=1 n=b5 v=0
81008 On ch=1 n=b5 v=48
81164 On ch=1 n=g#5 v=0
81168 On ch=1 n=b5 v=0
81228 On ch=1 n=e5 v=0
81313 On ch=1 n=e6 v=41
81384 On ch=1 n=b4 v=0
81553 On ch=1 n=e6 v=0
81652 On ch=1 n=b6 v=46
81664 On ch=1 n=g#6 v=36
81704 Par ch=1 c=67 v=0
81741 On ch=1 n=g#6 v=0
81760 On ch=1 n=b6 v=0
82060 On ch=1 n=d#6 v=80
82076 On ch=1 n=d#5 v=71
82512 Par ch=1 c=64 v=0
82527 On ch=1 n=e3 v=42
82557 Par ch=1 c=67 v=127
82751 On ch=1 n=e3 v=0
82761 Par ch=1 c=64 v=127
82821 On ch=1 n=b3 v=45
82877 On ch=1 n=b3 v=0
83108 On ch=1 n=a4 v=38
83125 On ch=1 n=f#4 v=39
83213 On ch=1 n=f#4 v=0
83249 On ch=1 n=a4 v=0
83430 On ch=1 n=f#5 v=46
83730 On ch=1 n=a5 v=42
83914 On ch=1 n=d#6 v=0
84061 On ch=1 n=d#6 v=46
84370 On ch=1 n=f#6 v=41
84477 On ch=1 n=f#6 v=0
84845 On ch=1 n=a6 v=35
84861 On ch=1 n=d#7 v=27
84954 On ch=1 n=a5 v=0
85014 On ch=1 n=a6 v=0
85025 Par ch=1 c=67 v=0
85089 On ch=1 n=d#7 v=0
85208 On ch=1 n=f#5 v=0
85238 On ch=1 n=d#6 v=0
85334 On ch=1 n=d#5 v=0
86281 On ch=1 n=g#6 v=60
86290 On ch=1 n=g#5 v=51
86381 Par ch=1 c=64 v=0
86449 Par ch=1 c=64 v=127
86661 On ch=1 n=g#5 v=0
86830 On ch=1 n=f#6 v=71
86842 On ch=1 n=f#5 v=59
86949 On ch=1 n=g#6 v=0
87001 On ch=1 n=f#6 v=0
87104 On ch=1 n=f#5 v=0
87281 On ch=1 n=c#6 v=71
87291 On ch=1 n=c#5 v=60
87427 On ch=1 n=c#5 v=0
87462 On ch=1 n=c#6 v=0
87827 On ch=1 n=d#6 v=62
87830 On ch=1 n=d#5 v=49
87862 Par ch=1 c=64 v=0
87978 Par ch=1 c=64 v=127
88122 On ch=1 n=d#6 v=0
88167 On ch=1 n=d#5 v=0
88826 On ch=1 n=a5 v=64
88838 On ch=1 n=a4 v=58
88918 On ch=1 n=a4 v=0
88958 On ch=1 n=a5 v=0
89218 On ch=1 n=c#6 v=68
89225 On ch=1 n=c#5 v=62
89707 On ch=1 n=e3 v=42
89726 Par ch=1 c=67 v=127
89738 Par ch=1 c=64 v=0
89902 Par ch=1 c=64 v=127
90022 On ch=1 n=a#3 v=42
90038 On ch=1 n=e3 v=0
90261 On ch=1 n=a#3 v=0
90294 On ch=1 n=e4 v=44
90294 On ch=1 n=g4 v=42
90375 On ch=1 n=e4 v=0
90405 On ch=1 n=g4 v=0
90578 On ch=1 n=e5 v=45
90838 On ch=1 n=g5 v=48
90974 On ch=1 n=c#6 v=0
91142 On ch=1 n=c#6 v=52
91358 On ch=1 n=g5 v=0
91374 On ch=1 n=c#6 v=0
91374 On ch=1 n=e5 v=0
91442 On ch=1 n=e6 v=43
91538 On ch=1 n=e6 v=0
91546 On ch=1 n=c#5 v=0
91802 On ch=1 n=g6 v=42
91806 On ch=1 n=c#7 v=42
91898 On ch=1 n=c#7 v=0
91918 On ch=1 n=g6 v=0
92062 On ch=1 n=c6 v=66
92078 On ch=1 n=c5 v=57
92214 On ch=1 n=c5 v=0
92214 On ch=1 n=c6 v=0
92391 On ch=1 n=b5 v=68
92395 Par ch=1 c=67 v=0
92407 On ch=1 n=b4 v=51
92651 Par ch=1 c=67 v=127
92674 Par ch=1 c=64 v=0
92766 On ch=1 n=e3 v=42
92946 On ch=1 n=e3 v=0
92954 Par ch=1 c=64 v=127
93074 On ch=1 n=b3 v=43
93159 On ch=1 n=b3 v=0
93351 On ch=1 n=e4 v=42
93362 On ch=1 n=g#4 v=40
93454 On ch=1 n=e4 v=0
93486 On ch=1 n=g#4 v=0
93651 On ch=1 n=e5 v=39
93942 On ch=1 n=g#5 v=38
94027 On ch=1 n=b5 v=0
94238 On ch=1 n=b5 v=41
94578 On ch=1 n=e6 v=32
94698 On ch=1 n=g#5 v=0
94782 On ch=1 n=e6 v=0
94854 On ch=1 n=b5 v=0
95002 On ch=1 n=g#6 v=36
95002 On ch=1 n=b6 v=35
95006 On ch=1 n=e5 v=0
95222 On ch=1 n=b6 v=0
95245 On ch=1 n=g#6 v=0
95339 On ch=1 n=b4 v=0
95451 Par ch=1 c=67 v=0
95958 On ch=1 n=g#5 v=81
95965 On ch=1 n=g#4 v=68
96279 Par ch=1 c=64 v=0
96466 Par ch=1 c=67 v=127
96507 On ch=1 n=d#3 v=37
96638 Par ch=1 c=64 v=127
96750 On ch=1 n=d#3 v=0
96847 On ch=1 n=c4 v=44
97122 On ch=1 n=f#4 v=42
97222 On ch=1 n=f#4 v=0
97234 On ch=1 n=c4 v=0
97398 On ch=1 n=c5 v=48
97664 On ch=1 n=f#5 v=47
97759 On ch=1 n=g#5 v=0
97936 On ch=1 n=g#5 v=51
98128 On ch=1 n=f#5 v=0
98187 On ch=1 n=g#5 v=0
98191 On ch=1 n=c6 v=50
98215 On ch=1 n=c5 v=0
98331 On ch=1 n=g#4 v=0
98388 Par ch=1 c=67 v=0
98418 On ch=1 n=c6 v=0
98463 On ch=1 n=f#6 v=48
98468 On ch=1 n=g#6 v=50
98522 On ch=1 n=f#6 v=0
98532 On ch=1 n=g#6 v=0
98795 On ch=1 n=a5 v=83
98795 On ch=1 n=a4 v=78
99084 Par ch=1 c=64 v=0
99124 On ch=1 n=d3 v=51
99251 On ch=1 n=d3 v=0
99261 Par ch=1 c=64 v=127
99320 Par ch=1 c=67 v=127
99384 On ch=1 n=c4 v=48
99632 On ch=1 n=f#4 v=54
99692 On ch=1 n=c4 v=0
99721 On ch=1 n=f#4 v=0
99876 On ch=1 n=c5 v=54
100140 Par ch=1 c=67 v=0
100140 On ch=1 n=f#5 v=52
100256 On ch=1 n=a5 v=0
100380 On ch=1 n=a5 v=53
100609 On ch=1 n=c5 v=0
100621 On ch=1 n=a5 v=0
100632 On ch=1 n=c6 v=56
100641 On ch=1 n=f#5 v=0
100812 On ch=1 n=a4 v=0
100841 On ch=1 n=c6 v=0
100900 On ch=1 n=f#6 v=50
100910 On ch=1 n=a6 v=51
100965 On ch=1 n=a6 v=0
100965 On ch=1 n=f#6 v=0
101069 On ch=1 n=a5 v=78
101069 On ch=1 n=a4 v=76
101182 On ch=1 n=a5 v=0
101186 On ch=1 n=a4 v=0
101297 On ch=1 n=a5 v=80
101297 On ch=1 n=a4 v=76
101542 Par ch=1 c=64 v=0
101629 On ch=1 n=c#3 v=49
101730 Par ch=1 c=64 v=127
101769 On ch=1 n=c#3 v=0
101822 Par ch=1 c=67 v=127
101897 On ch=1 n=c#4 v=53
102122 On ch=1 n=f#4 v=55
102145 On ch=1 n=c#4 v=0
102193 On ch=1 n=f#4 v=0
102358 On ch=1 n=c#5 v=60
102569 Par ch=1 c=67 v=0
102598 On ch=1 n=f#5 v=56
102613 On ch=1 n=a5 v=0
102838 On ch=1 n=a5 v=66
102986 On ch=1 n=a5 v=0
102989 On ch=1 n=f#5 v=0
103033 On ch=1 n=c#5 v=0
103061 On ch=1 n=c#6 v=60
103205 On ch=1 n=a4 v=0
103305 On ch=1 n=f#6 v=55
103305 On ch=1 n=a6 v=57
103353 On ch=1 n=a6 v=0
103353 On ch=1 n=f#6 v=0
103398 On ch=1 n=c#6 v=0
103577 On ch=1 n=a#4 v=89
103577 On ch=1 n=a#5 v=92
103862 Par ch=1 c=64 v=0
103890 On ch=1 n=c3 v=58
104009 On ch=1 n=c3 v=0
104009 Par ch=1 c=64 v=127
104166 On ch=1 n=a#3 v=60
104333 On ch=1 n=a#3 v=0
104393 On ch=1 n=g4 v=49
104398 On ch=1 n=e4 v=50
104442 On ch=1 n=e4 v=0
104473 On ch=1 n=g4 v=0
104653 On ch=1 n=e5 v=55
104878 On ch=1 n=g5 v=60
105069 On ch=1 n=a#5 v=0
105133 On ch=1 n=a#5 v=61
105222 On ch=1 n=g5 v=0
105253 On ch=1 n=a#5 v=0
105269 On ch=1 n=e5 v=0
105349 On ch=1 n=a#4 v=0
105389 On ch=1 n=e6 v=56
105642 On ch=1 n=e6 v=0
105733 On ch=1 n=a#6 v=50
105742 On ch=1 n=g6 v=40
105776 On ch=1 n=a#6 v=0
105782 On ch=1 n=g6 v=0
106046 On ch=1 n=e5 v=82
106053 On ch=1 n=e6 v=92
106201 On ch=1 n=e5 v=0
106229 On ch=1 n=e6 v=0
106337 On ch=1 n=e5 v=89
106337 On ch=1 n=e6 v=102
106696 Par ch=1 c=64 v=0
106756 On ch=1 n=b2 v=45
106893 Par ch=1 c=64 v=127
106897 Par ch=1 c=67 v=127
107033 On ch=1 n=b3 v=53
107066 On ch=1 n=b2 v=0
107081 On ch=1 n=b3 v=0
107338 On ch=1 n=g4 v=46
107352 On ch=1 n=b4 v=50
107352 On ch=1 n=d4 v=50
107418 On ch=1 n=g4 v=0
107426 On ch=1 n=d4 v=0
107441 On ch=1 n=b4 v=0
107533 Par ch=1 c=67 v=0
107616 On ch=1 n=g5 v=60
107846 On ch=1 n=b5 v=65
107965 On ch=1 n=e6 v=0
108085 On ch=1 n=e6 v=73
108322 On ch=1 n=g6 v=69
108442 On ch=1 n=g6 v=0
108616 On ch=1 n=b6 v=64
108616 On ch=1 n=e7 v=66
108702 On ch=1 n=b6 v=0
108717 On ch=1 n=e7 v=0
109425 On ch=1 n=e6 v=0
109841 On ch=1 n=e5 v=0
109993 On ch=1 n=b5 v=0
110037 On ch=1 n=d6 v=75
110052 On ch=1 n=d5 v=69
110333 On ch=1 n=g5 v=0
110729 On ch=1 n=d5 v=0
110809 On ch=1 n=d6 v=0
112156 On ch=1 n=b5 v=75
112170 On ch=1 n=b4 v=69
112485 On ch=1 n=b5 v=0
112489 On ch=1 n=b4 v=0
112636 On ch=1 n=b4 v=95
112889 On ch=1 n=b5 v=85
113316 Par ch=1 c=67 v=127
113326 Par ch=1 c=64 v=0
113349 On ch=1 n=d#3 v=45
113549 Par ch=1 c=64 v=127
113576 On ch=1 n=d#3 v=0
113689 On ch=1 n=c#4 v=35
113962 On ch=1 n=g4 v=44
114053 On ch=1 n=c#4 v=0
114077 On ch=1 n=g4 v=0
114256 On ch=1 n=d#5 v=49
114549 On ch=1 n=g5 v=41
115173 On ch=1 n=c#6 v=43
115433 On ch=1 n=c#6 v=0
115632 On ch=1 n=d#6 v=38
115642 On ch=1 n=g6 v=35
115787 On ch=1 n=d#6 v=0
115806 On ch=1 n=g6 v=0
116072 On ch=1 n=b6 v=35
116236 On ch=1 n=b6 v=0
116820 On ch=1 n=g5 v=0
116932 On ch=1 n=d#5 v=0
116979 On ch=1 n=b5 v=0
117310 On ch=1 n=b4 v=0
117731 On ch=1 n=b5 v=59
117735 On ch=1 n=b4 v=55
118551 On ch=1 n=b5 v=0
118556 On ch=1 n=b4 v=0
120047 On ch=1 n=a#5 v=65
120056 On ch=1 n=a#4 v=59
120400 On ch=1 n=a#5 v=0
120412 On ch=1 n=a#4 v=0
120803 On ch=1 n=g#5 v=61
120803 On ch=1 n=g#4 v=55
121495 Par ch=1 c=64 v=0
121555 On ch=1 n=g#2 v=40
121719 Par ch=1 c=64 v=127
121792 On ch=1 n=g#4 v=0
121792 On ch=1 n=g#5 v=0
121799 On ch=1 n=g#2 v=0
122080 On ch=1 n=b3 v=30
122391 On ch=1 n=d#4 v=31
122560 On ch=1 n=b3 v=0
122619 On ch=1 n=d#4 v=0
122659 On ch=1 n=b4 v=39
122947 On ch=1 n=d#5 v=44
123231 On ch=1 n=g#5 v=48
123263 On ch=1 n=g#5 v=0
123500 On ch=1 n=b5 v=50
123607 On ch=1 n=d#5 v=0
123615 On ch=1 n=b4 v=0
123743 On ch=1 n=b5 v=0
123746 On ch=1 n=d#6 v=60
123996 On ch=1 n=d#6 v=0
124011 On ch=1 n=g#6 v=65
124259 On ch=1 n=g#6 v=0
124292 On ch=1 n=d#6 v=51
124540 On ch=1 n=d#6 v=0
124584 On ch=1 n=b5 v=42
124703 On ch=1 n=b5 v=0
124859 On ch=1 n=g#5 v=42
125167 On ch=1 n=d#5 v=36
125487 On ch=1 n=b4 v=32
125807 On ch=1 n=g#4 v=26
126007 On ch=1 n=g#4 v=0
126140 On ch=1 n=d#4 v=30
126570 On ch=1 n=b3 v=33
126699 On ch=1 n=b3 v=0
126760 On ch=1 n=d#4 v=0
126984 On ch=1 n=b4 v=0
127096 On ch=1 n=d#5 v=0
127163 On ch=1 n=g#5 v=0
127207 On ch=1 n=f#3 v=39
127250 Par ch=1 c=64 v=0
127295 Par ch=1 c=64 v=127
127660 On ch=1 n=b3 v=39
127940 On ch=1 n=d#4 v=46
128063 Par ch=1 c=67 v=0
128170 On ch=1 n=b3 v=0
128180 On ch=1 n=f#3 v=0
128187 On ch=1 n=d#4 v=0
128210 On ch=1 n=a4 v=90
128571 On ch=1 n=b4 v=46
128847 On ch=1 n=d#5 v=48
129131 On ch=1 n=a5 v=48
129207 On ch=1 n=a4 v=0
129250 On ch=1 n=b4 v=0
129367 On ch=1 n=b5 v=47
129459 On ch=1 n=b5 v=0
129476 On ch=1 n=d#5 v=0
129632 On ch=1 n=a6 v=45
129664 On ch=1 n=d#6 v=27
129671 On ch=1 n=a6 v=0
129716 On ch=1 n=d#6 v=0
129803 On ch=1 n=a5 v=0
130044 On ch=1 n=e3 v=50
130072 Par ch=1 c=64 v=0
130086 Par ch=1 c=64 v=127
130296 On ch=1 n=b3 v=58
130526 On ch=1 n=e4 v=56
130699 On ch=1 n=e4 v=0
130703 On ch=1 n=e3 v=0
130720 On ch=1 n=b3 v=0
130791 On ch=1 n=c#5 v=92
131099 On ch=1 n=e5 v=59
131330 On ch=1 n=a5 v=54
131555 On ch=1 n=c#6 v=65
131699 On ch=1 n=e5 v=0
131711 On ch=1 n=a5 v=0
131752 On ch=1 n=c#6 v=0
131783 On ch=1 n=c#5 v=0
131800 On ch=1 n=e6 v=59
131996 On ch=1 n=e6 v=0
132063 On ch=1 n=c#7 v=60
132063 On ch=1 n=a6 v=57
132100 On ch=1 n=c#7 v=0
132103 On ch=1 n=a6 v=0
132240 On ch=1 n=e5 v=95
132323 On ch=1 n=e5 v=0
132543 On ch=1 n=g#5 v=100
132880 Par ch=1 c=64 v=0
132919 On ch=1 n=d#3 v=48
133031 Par ch=1 c=64 v=127
133056 Par ch=1 c=67 v=127
133090 On ch=1 n=d#3 v=0
133179 On ch=1 n=b3 v=60
133247 On ch=1 n=b3 v=0
133447 On ch=1 n=a4 v=49
133447 On ch=1 n=b4 v=54
133536 On ch=1 n=a4 v=0
133544 On ch=1 n=b4 v=0
133596 Par ch=1 c=67 v=0
133699 On ch=1 n=b5 v=60
133931 On ch=1 n=d#6 v=63
134176 On ch=1 n=g#6 v=70
134411 On ch=1 n=a6 v=65
134499 On ch=1 n=d#6 v=0
134519 On ch=1 n=a6 v=0
134603 On ch=1 n=g#6 v=0
134671 On ch=1 n=b6 v=56
134799 On ch=1 n=b6 v=0
135011 On ch=1 n=d#7 v=56
135016 On ch=1 n=g#7 v=57
135112 On ch=1 n=g#7 v=0
135127 On ch=1 n=d#7 v=0
135531 On ch=1 n=g#5 v=0
135583 On ch=1 n=f#5 v=79
135683 On ch=1 n=f#5 v=0
135752 On ch=1 n=b5 v=0
136052 On ch=1 n=c#5 v=86
136419 On ch=1 n=e5 v=94
136439 On ch=1 n=c#5 v=0
136491 Par ch=1 c=64 v=0
136575 Par ch=1 c=64 v=127
136759 On ch=1 n=d#5 v=90
136859 On ch=1 n=e5 v=0
136971 On ch=1 n=d#5 v=0
137159 On ch=1 n=g#4 v=90
137420 On ch=1 n=g#4 v=0
137647 On ch=1 n=a4 v=95
138052 Par ch=1 c=64 v=0
138160 On ch=1 n=f#3 v=50
138172 Par ch=1 c=67 v=127
138263 Par ch=1 c=64 v=127
138420 On ch=1 n=f#3 v=0
138443 On ch=1 n=b3 v=47
138672 On ch=1 n=d#4 v=48
138720 On ch=1 n=b3 v=0
138732 On ch=1 n=d#4 v=0
138930 On ch=1 n=b4 v=54
139003 Par ch=1 c=67 v=0
139183 On ch=1 n=d#5 v=42
139439 On ch=1 n=a5 v=48
139616 On ch=1 n=a5 v=0
139631 On ch=1 n=b4 v=0
139641 On ch=1 n=d#5 v=0
139669 On ch=1 n=b5 v=48
139747 On ch=1 n=a4 v=0
139780 On ch=1 n=b5 v=0
139933 On ch=1 n=a6 v=50
139944 On ch=1 n=d#6 v=48
139973 On ch=1 n=a6 v=0
139984 On ch=1 n=d#6 v=0
140240 On ch=1 n=c5 v=90
140596 On ch=1 n=e3 v=49
140636 Par ch=1 c=64 v=0
140688 Par ch=1 c=67 v=127
140824 On ch=1 n=e3 v=0
140829 Par ch=1 c=64 v=127
140883 On ch=1 n=c4 v=35
141129 On ch=1 n=e4 v=51
141136 On ch=1 n=c4 v=0
141144 On ch=1 n=a4 v=41
141204 On ch=1 n=e4 v=0
141228 On ch=1 n=a4 v=0
141416 On ch=1 n=e5 v=49
141709 On ch=1 n=a5 v=43
141997 On ch=1 n=c6 v=51
142220 On ch=1 n=a5 v=0
142253 On ch=1 n=e5 v=0
142309 On ch=1 n=c6 v=0
142309 On ch=1 n=e6 v=41
142424 On ch=1 n=e6 v=0
142628 On ch=1 n=c5 v=0
142656 On ch=1 n=c7 v=37
142667 On ch=1 n=a6 v=39
142744 On ch=1 n=a6 v=0
142764 On ch=1 n=c7 v=0
143156 Par ch=1 c=67 v=0
143228 On ch=1 n=e5 v=73
143324 On ch=1 n=e5 v=0
143673 On ch=1 n=g5 v=75
144200 Par ch=1 c=67 v=127
144208 Par ch=1 c=64 v=0
144253 On ch=1 n=d#3 v=36
144420 Par ch=1 c=64 v=127
144488 On ch=1 n=d#3 v=0
144589 On ch=1 n=c4 v=28
144647 On ch=1 n=c4 v=0
144897 On ch=1 n=a4 v=27
145168 On ch=1 n=a4 v=0
145184 On ch=1 n=c5 v=38
145263 On ch=1 n=c5 v=0
145464 On ch=1 n=a5 v=43
145760 On ch=1 n=c6 v=45
146069 On ch=1 n=g6 v=42
146372 On ch=1 n=a6 v=36
146604 On ch=1 n=a6 v=0
146760 On ch=1 n=c7 v=39
146868 On ch=1 n=c7 v=0
147464 On ch=1 n=g7 v=39
147576 On ch=1 n=g7 v=0
148420 On ch=1 n=g6 v=0
148513 On ch=1 n=c6 v=0
148580 On ch=1 n=a5 v=0
148788 On ch=1 n=g5 v=0
150096 On ch=1 n=f#5 v=50
150916 On ch=1 n=f#5 v=0
152076 On ch=1 n=f5 v=46
152329 On ch=1 n=f5 v=0
153004 On ch=1 n=f5 v=78
153049 On ch=1 n=d3 v=32
153084 Par ch=1 c=64 v=0
153336 Par ch=1 c=64 v=127
153476 On ch=1 n=d3 v=0
153520 On ch=1 n=f5 v=0
154296 On ch=1 n=e6 v=65
154296 On ch=1 n=a#5 v=41
154296 On ch=1 n=f4 v=42
154296 On ch=1 n=a#4 v=42
154307 On ch=1 n=d5 v=41
154624 On ch=1 n=f4 v=0
154624 On ch=1 n=a#5 v=0
154624 On ch=1 n=e6 v=0
154629 On ch=1 n=d5 v=0
154629 On ch=1 n=a#4 v=0
154820 On ch=1 n=d5 v=41
154820 On ch=1 n=f6 v=60
154820 On ch=1 n=a#5 v=43
154820 On ch=1 n=a#4 v=41
154824 On ch=1 n=f4 v=42
155124 On ch=1 n=f6 v=0
155124 On ch=1 n=d5 v=0
155128 On ch=1 n=a#4 v=0
155128 On ch=1 n=a#5 v=0
155137 On ch=1 n=f4 v=0
155249 On ch=1 n=a#6 v=71
155249 On ch=1 n=a#5 v=46
155249 On ch=1 n=f4 v=41
155249 On ch=1 n=a#4 v=41
155253 On ch=1 n=d5 v=42
155433 On ch=1 n=f4 v=0
155433 On ch=1 n=a#5 v=0
155433 On ch=1 n=a#6 v=0
155436 On ch=1 n=d5 v=0
155436 On ch=1 n=a#4 v=0
155604 On ch=1 n=a#5 v=50
155608 On ch=1 n=a6 v=72
155613 On ch=1 n=f4 v=41
155613 On ch=1 n=d5 v=41
155613 On ch=1 n=a#4 v=41
155847 On ch=1 n=d5 v=0
155847 On ch=1 n=f4 v=0
155847 On ch=1 n=a6 v=0
155847 On ch=1 n=a#5 v=0
155849 On ch=1 n=a#4 v=0
155957 On ch=1 n=g#6 v=72
155957 On ch=1 n=d5 v=41
155957 On ch=1 n=a#5 v=55
155968 On ch=1 n=a#4 v=42
155968 On ch=1 n=f4 v=41
156124 On ch=1 n=g#6 v=0
156128 On ch=1 n=a#5 v=0
156128 On ch=1 n=d5 v=0
156129 On ch=1 n=f4 v=0
156129 On ch=1 n=a#4 v=0
156277 On ch=1 n=g6 v=71
156277 On ch=1 n=f4 v=41
156277 On ch=1 n=a#5 v=46
156277 On ch=1 n=d5 v=41
156277 On ch=1 n=a#4 v=41
156580 On ch=1 n=d5 v=0
156580 On ch=1 n=a#5 v=0
156580 On ch=1 n=f4 v=0
156580 On ch=1 n=g6 v=0
156584 On ch=1 n=a#4 v=0
156589 On ch=1 n=f#6 v=72
156589 On ch=1 n=a#5 v=42
156589 On ch=1 n=f4 v=41
156589 On ch=1 n=d5 v=41
156592 On ch=1 n=a#4 v=42
156997 On ch=1 n=f6 v=72
156997 On ch=1 n=f5 v=81
157027 On ch=1 n=f4 v=0
157027 On ch=1 n=f#6 v=0
157033 On ch=1 n=a#4 v=0
157033 On ch=1 n=d5 v=0
157069 Par ch=1 c=64 v=0
157176 Par ch=1 c=64 v=127
157213 On ch=1 n=f6 v=0
157213 On ch=1 n=a#5 v=0
157517 On ch=1 n=a5 v=62
157517 On ch=1 n=f6 v=51
157517 On ch=1 n=d5 v=41
157517 On ch=1 n=f4 v=41
157517 On ch=1 n=a#4 v=42
157684 On ch=1 n=d5 v=0
157684 On ch=1 n=f6 v=0
157684 On ch=1 n=a5 v=0
157688 On ch=1 n=f4 v=0
157689 On ch=1 n=a#4 v=0
157849 On ch=1 n=f6 v=52
157849 On ch=1 n=a#5 v=69
157853 On ch=1 n=f4 v=40
157853 On ch=1 n=d5 v=40
157853 On ch=1 n=a#4 v=41
158033 On ch=1 n=f6 v=0
158036 On ch=1 n=d5 v=0
158036 On ch=1 n=f4 v=0
158036 On ch=1 n=a#5 v=0
158046 On ch=1 n=a#4 v=0
158137 On ch=1 n=f4 v=45
158141 On ch=1 n=d6 v=72
158141 On ch=1 n=f6 v=59
158141 On ch=1 n=a#4 v=41
158146 On ch=1 n=d5 v=41
158237 On ch=1 n=a#4 v=0
158237 On ch=1 n=f4 v=0
158241 On ch=1 n=d5 v=0
158241 On ch=1 n=f6 v=0
158241 On ch=1 n=d6 v=0
158373 On ch=1 n=f5 v=0
158430 On ch=1 n=f5 v=85
158430 On ch=1 n=c#6 v=75
158434 On ch=1 n=f6 v=54
158617 On ch=1 n=f6 v=0
158617 On ch=1 n=c#6 v=0
158774 On ch=1 n=c6 v=72
158774 On ch=1 n=a#4 v=41
158778 On ch=1 n=d5 v=40
158778 On ch=1 n=f4 v=41
158778 On ch=1 n=f6 v=54
158966 On ch=1 n=a#4 v=0
158966 On ch=1 n=c6 v=0
158970 On ch=1 n=d5 v=0
158977 On ch=1 n=f4 v=0
158981 On ch=1 n=f6 v=0
159097 On ch=1 n=f6 v=52
159097 On ch=1 n=b5 v=72
159101 On ch=1 n=d5 v=41
159101 On ch=1 n=a#4 v=41
159105 On ch=1 n=f4 v=41
159333 On ch=1 n=a#4 v=0
159333 On ch=1 n=d5 v=0
159333 On ch=1 n=b5 v=0
159333 On ch=1 n=f6 v=0
159337 On ch=1 n=f4 v=0
159458 On ch=1 n=f6 v=49
159458 On ch=1 n=a#5 v=65
159458 On ch=1 n=f4 v=42
159461 On ch=1 n=d5 v=41
159461 On ch=1 n=a#4 v=41
159574 Par ch=1 c=67 v=0
159604 On ch=1 n=f5 v=0
160014 On ch=1 n=c#3 v=40
160018 Par ch=1 c=64 v=0
160021 On ch=1 n=a5 v=79
160049 On ch=1 n=d5 v=0
160049 On ch=1 n=f4 v=0
160049 On ch=1 n=a#5 v=0
160049 On ch=1 n=f6 v=0
160053 On ch=1 n=a#4 v=0
160201 Par ch=1 c=64 v=127
160257 On ch=1 n=c#3 v=0
160274 On ch=1 n=a5 v=0
160397 Par ch=1 c=67 v=127
160674 On ch=1 n=d6 v=54
160674 On ch=1 n=g#6 v=65
160681 On ch=1 n=f6 v=41
160681 On ch=1 n=f5 v=41
160681 On ch=1 n=b4 v=41
160681 On ch=1 n=d5 v=40
160846 On ch=1 n=d6 v=0
160850 On ch=1 n=b4 v=0
160850 On ch=1 n=f5 v=0
160850 On ch=1 n=f6 v=0
160850 On ch=1 n=g#6 v=0
160853 On ch=1 n=d5 v=0
161025 On ch=1 n=b4 v=44
161025 On ch=1 n=f5 v=42
161033 On ch=1 n=f6 v=57
161033 On ch=1 n=d5 v=40
161033 On ch=1 n=a6 v=69
161033 On ch=1 n=d6 v=48
161137 On ch=1 n=f5 v=0
161137 On ch=1 n=b4 v=0
161141 On ch=1 n=f6 v=0
161145 On ch=1 n=d6 v=0
161145 On ch=1 n=a6 v=0
161145 On ch=1 n=d5 v=0
161353 On ch=1 n=b4 v=41
161353 On ch=1 n=f5 v=41
161353 On ch=1 n=d5 v=42
161357 On ch=1 n=d7 v=83
161360 On ch=1 n=f6 v=59
161360 On ch=1 n=a6 v=57
161441 On ch=1 n=d5 v=0
161441 On ch=1 n=b4 v=0
161445 On ch=1 n=d7 v=0
161445 On ch=1 n=f5 v=0
161457 On ch=1 n=a6 v=0
161457 On ch=1 n=f6 v=0
161661 On ch=1 n=c#7 v=78
161661 On ch=1 n=f6 v=62
161661 On ch=1 n=f5 v=42
161666 On ch=1 n=a6 v=64
161666 On ch=1 n=b4 v=42
161666 On ch=1 n=d5 v=42
161825 On ch=1 n=f5 v=0
161825 On ch=1 n=f6 v=0
161825 On ch=1 n=c#7 v=0
161826 On ch=1 n=d5 v=0
161826 On ch=1 n=b4 v=0
161826 On ch=1 n=a6 v=0
161929 On ch=1 n=a6 v=65
161929 On ch=1 n=f6 v=68
161929 On ch=1 n=b4 v=46
161929 On ch=1 n=c7 v=81
161933 On ch=1 n=f5 v=46
161933 On ch=1 n=d5 v=48
162053 On ch=1 n=b4 v=0
162053 On ch=1 n=f6 v=0
162053 On ch=1 n=a6 v=0
162057 On ch=1 n=d5 v=0
162057 On ch=1 n=f5 v=0
162057 On ch=1 n=c7 v=0
162197 On ch=1 n=f6 v=64
162197 On ch=1 n=a6 v=53
162197 On ch=1 n=b6 v=74
162197 On ch=1 n=f5 v=44
162201 On ch=1 n=d5 v=43
162201 On ch=1 n=b4 v=44
162254 On ch=1 n=b6 v=0
162254 On ch=1 n=a6 v=0
162254 On ch=1 n=f6 v=0
162266 On ch=1 n=b4 v=0
162266 On ch=1 n=d5 v=0
162266 On ch=1 n=f5 v=0
162453 On ch=1 n=b4 v=43
162453 On ch=1 n=f5 v=42
162453 On ch=1 n=d5 v=38
162453 On ch=1 n=a7 v=85
162457 On ch=1 n=d7 v=55
162457 On ch=1 n=b6 v=49
162577 On ch=1 n=b4 v=0
162581 On ch=1 n=d5 v=0
162581 On ch=1 n=f5 v=0
162584 On ch=1 n=a7 v=0
162586 On ch=1 n=b6 v=0
162586 On ch=1 n=d7 v=0
162704 Par ch=1 c=67 v=0
162810 On ch=1 n=d7 v=52
162810 On ch=1 n=b6 v=42
162810 On ch=1 n=g#7 v=71
162810 On ch=1 n=g#5 v=88
162905 On ch=1 n=b6 v=0
162909 On ch=1 n=d7 v=0
162913 On ch=1 n=g#7 v=0
163193 On ch=1 n=g7 v=74
163193 On ch=1 n=d5 v=43
163204 On ch=1 n=d7 v=57
163204 On ch=1 n=b4 v=50
163204 On ch=1 n=b6 v=53
163386 On ch=1 n=d7 v=0
163386 On ch=1 n=d5 v=0
163386 On ch=1 n=g7 v=0
163390 On ch=1 n=b6 v=0
163390 On ch=1 n=b4 v=0
163453 On ch=1 n=d7 v=65
163453 On ch=1 n=f#7 v=80
163453 On ch=1 n=b6 v=61
163457 On ch=1 n=d5 v=45
163457 On ch=1 n=b4 v=55
163634 On ch=1 n=b6 v=0
163634 On ch=1 n=f#7 v=0
163634 On ch=1 n=d7 v=0
163637 On ch=1 n=b4 v=0
163637 On ch=1 n=d5 v=0
163694 On ch=1 n=b4 v=42
163694 On ch=1 n=d5 v=48
163694 On ch=1 n=d7 v=67
163697 On ch=1 n=f7 v=80
163697 On ch=1 n=b6 v=68
163741 On ch=1 n=d5 v=0
163741 On ch=1 n=b4 v=0
163746 On ch=1 n=b6 v=0
163746 On ch=1 n=f7 v=0
163746 On ch=1 n=d7 v=0
163865 On ch=1 n=g#5 v=0
163985 On ch=1 n=d6 v=86
164373 On ch=1 n=d8 v=87
164381 On ch=1 n=g#5 v=41
164381 On ch=1 n=f5 v=42
164381 On ch=1 n=d7 v=55
164405 Par ch=1 c=64 v=0
164533 Par ch=1 c=64 v=127
164613 On ch=1 n=f5 v=0
164613 On ch=1 n=g#5 v=0
164613 On ch=1 n=d8 v=0
164617 On ch=1 n=d7 v=0
164661 Par ch=1 c=67 v=127
164845 On ch=1 n=c#6 v=74
165065 On ch=1 n=d6 v=0
165270 On ch=1 n=c#8 v=66
165270 On ch=1 n=c#7 v=55
165270 On ch=1 n=f5 v=38
165273 On ch=1 n=g#5 v=39
165417 On ch=1 n=c#6 v=0
165477 On ch=1 n=f5 v=0
165477 On ch=1 n=c#7 v=0
165477 On ch=1 n=c#8 v=0
165481 On ch=1 n=g#5 v=0
166164 On ch=1 n=e5 v=77
166166 On ch=1 n=c3 v=37
166166 Par ch=1 c=64 v=0
166365 On ch=1 n=c3 v=0
166409 Par ch=1 c=64 v=127
166457 On ch=1 n=e5 v=0
166893 On ch=1 n=d#6 v=52
166893 On ch=1 n=a5 v=39
166897 On ch=1 n=a4 v=39
166897 On ch=1 n=e4 v=42
166897 On ch=1 n=c5 v=35
167098 On ch=1 n=c5 v=0
167105 On ch=1 n=e4 v=0
167117 On ch=1 n=a4 v=0
167134 On ch=1 n=a5 v=0
167134 On ch=1 n=d#6 v=0
167326 On ch=1 n=a5 v=35
167333 On ch=1 n=e6 v=67
167333 On ch=1 n=a4 v=38
167333 On ch=1 n=c5 v=21
167333 On ch=1 n=e4 v=36
167457 On ch=1 n=e6 v=0
167501 On ch=1 n=a4 v=0
167530 On ch=1 n=c5 v=0
167541 On ch=1 n=e4 v=0
167545 On ch=1 n=a5 v=0
167661 On ch=1 n=e4 v=41
167661 On ch=1 n=a4 v=32
167664 On ch=1 n=c5 v=32
167670 On ch=1 n=a6 v=63
167670 On ch=1 n=a5 v=43
167761 On ch=1 n=a5 v=0
167777 On ch=1 n=e4 v=0
167787 On ch=1 n=a4 v=0
167851 On ch=1 n=a6 v=0
167951 On ch=1 n=a4 v=42
167951 On ch=1 n=e4 v=46
167951 On ch=1 n=g#6 v=77
167951 On ch=1 n=a5 v=41
167963 On ch=1 n=c5 v=0
168031 On ch=1 n=e4 v=0
168034 On ch=1 n=a5 v=0
168057 On ch=1 n=a4 v=0
168094 On ch=1 n=g#6 v=0
168238 On ch=1 n=g6 v=81
168247 On ch=1 n=c5 v=55
168247 On ch=1 n=a5 v=55
168247 On ch=1 n=a4 v=40
168247 On ch=1 n=e4 v=45
168331 On ch=1 n=e4 v=0
168370 On ch=1 n=a4 v=0
168410 On ch=1 n=a5 v=0
168431 On ch=1 n=c5 v=0
168458 On ch=1 n=g6 v=0
168522 On ch=1 n=f#6 v=79
168522 On ch=1 n=a5 v=55
168526 On ch=1 n=c5 v=42
168530 On ch=1 n=e4 v=43
168530 On ch=1 n=a4 v=51
168598 On ch=1 n=a4 v=0
168614 On ch=1 n=e4 v=0
168630 On ch=1 n=c5 v=0
168641 On ch=1 n=a5 v=0
168662 On ch=1 n=f#6 v=0
168782 On ch=1 n=e4 v=47
168782 On ch=1 n=f6 v=82
168782 On ch=1 n=c5 v=50
168782 On ch=1 n=a4 v=42
168782 On ch=1 n=a5 v=58
168890 On ch=1 n=a5 v=0
168894 On ch=1 n=e4 v=0
168898 On ch=1 n=a4 v=0
168921 On ch=1 n=c5 v=0
168954 Par ch=1 c=67 v=0
169058 On ch=1 n=e6 v=73
169058 On ch=1 n=e5 v=87
169062 On ch=1 n=a5 v=56
169078 On ch=1 n=f6 v=0
169121 Par ch=1 c=64 v=0
169142 On ch=1 n=e6 v=0
169151 On ch=1 n=a5 v=0
169198 Par ch=1 c=64 v=127
169394 On ch=1 n=c5 v=46
169394 On ch=1 n=a4 v=45
169394 On ch=1 n=e4 v=43
169397 On ch=1 n=e6 v=59
169403 On ch=1 n=g#5 v=64
169475 On ch=1 n=e4 v=0
169475 On ch=1 n=a4 v=0
169494 On ch=1 n=g#5 v=0
169521 On ch=1 n=e6 v=0
169583 On ch=1 n=c5 v=0
169661 On ch=1 n=c5 v=43
169661 On ch=1 n=e6 v=62
169661 On ch=1 n=a4 v=49
169663 On ch=1 n=e4 v=46
169663 On ch=1 n=a5 v=65
169758 On ch=1 n=e4 v=0
169778 On ch=1 n=a4 v=0
169798 On ch=1 n=e6 v=0
169841 On ch=1 n=a5 v=0
169918 On ch=1 n=e4 v=52
169918 On ch=1 n=c6 v=77
169918 On ch=1 n=a4 v=54
169922 On ch=1 n=e6 v=69
169938 On ch=1 n=c5 v=0
170010 On ch=1 n=e4 v=0
170026 On ch=1 n=a4 v=0
170043 On ch=1 n=e6 v=0
170071 On ch=1 n=c6 v=0
170114 On ch=1 n=e5 v=0
170181 On ch=1 n=e5 v=89
170191 On ch=1 n=b5 v=68
170191 On ch=1 n=e6 v=59
170271 On ch=1 n=b5 v=0
170341 On ch=1 n=e6 v=0
170481 On ch=1 n=e6 v=58
170481 On ch=1 n=a#5 v=62
170481 On ch=1 n=e4 v=49
170483 On ch=1 n=c5 v=43
170483 On ch=1 n=a4 v=45
170623 On ch=1 n=a4 v=0
170634 On ch=1 n=e4 v=0
170654 On ch=1 n=e6 v=0
170658 On ch=1 n=a#5 v=0
170697 On ch=1 n=c5 v=0
170801 On ch=1 n=c5 v=59
170801 On ch=1 n=e6 v=56
170807 On ch=1 n=e4 v=42
170811 On ch=1 n=a4 v=44
170811 On ch=1 n=a5 v=68
170878 On ch=1 n=a4 v=0
170963 On ch=1 n=e4 v=0
170963 On ch=1 n=e6 v=0
171098 On ch=1 n=c5 v=0
171134 On ch=1 n=a4 v=55
171138 On ch=1 n=e6 v=56
171138 On ch=1 n=c5 v=56
171138 On ch=1 n=e4 v=53
171138 On ch=1 n=g#5 v=61
171190 On ch=1 n=c5 v=0
171190 On ch=1 n=e5 v=0
171194 On ch=1 n=e4 v=0
171194 On ch=1 n=a4 v=0
171362 On ch=1 n=g#5 v=0
171518 Par ch=1 c=64 v=0
171522 On ch=1 n=b2 v=42
171530 On ch=1 n=g5 v=89
171694 On ch=1 n=a5 v=0
171702 On ch=1 n=e6 v=0
171706 Par ch=1 c=64 v=127
171718 On ch=1 n=b2 v=0
171747 On ch=1 n=g5 v=0
172143 On ch=1 n=a4 v=42
172143 On ch=1 n=b6 v=61
172155 On ch=1 n=c5 v=39
172155 On ch=1 n=e5 v=40
172155 On ch=1 n=e6 v=48
172263 On ch=1 n=e6 v=0
172322 On ch=1 n=a4 v=0
172334 On ch=1 n=c5 v=0
172354 On ch=1 n=e5 v=0
172454 On ch=1 n=b6 v=0
172462 On ch=1 n=c5 v=46
172462 On ch=1 n=c7 v=76
172462 On ch=1 n=e5 v=43
172467 On ch=1 n=e6 v=59
172467 On ch=1 n=a4 v=39
172531 On ch=1 n=a4 v=0
172543 On ch=1 n=e6 v=0
172590 On ch=1 n=e5 v=0
172626 On ch=1 n=c5 v=0
172701 On ch=1 n=c7 v=0
172742 On ch=1 n=e7 v=92
172742 On ch=1 n=e5 v=49
172742 On ch=1 n=c5 v=43
172743 On ch=1 n=a4 v=40
172743 On ch=1 n=g6 v=38
172743 On ch=1 n=e6 v=48
172814 On ch=1 n=a4 v=0
172818 On ch=1 n=e6 v=0
172874 On ch=1 n=g6 v=0
172874 On ch=1 n=e7 v=0
172894 On ch=1 n=c5 v=0
172903 On ch=1 n=e5 v=0
172994 On ch=1 n=e5 v=38
172994 On ch=1 n=a4 v=45
172998 On ch=1 n=c5 v=47
172998 On ch=1 n=d7 v=89
173001 On ch=1 n=g6 v=57
173003 On ch=1 n=e6 v=53
173110 On ch=1 n=a4 v=0
173114 On ch=1 n=e6 v=0
173124 On ch=1 n=e5 v=0
173131 On ch=1 n=c5 v=0
173140 On ch=1 n=g6 v=0
173180 On ch=1 n=d7 v=0
173248 On ch=1 n=c#7 v=84
173259 On ch=1 n=e5 v=52
173260 On ch=1 n=c5 v=45
173260 On ch=1 n=a4 v=49
173271 On ch=1 n=e6 v=61
173275 On ch=1 n=g6 v=62
173335 On ch=1 n=a4 v=0
173364 On ch=1 n=c5 v=0
173367 On ch=1 n=g6 v=0
173367 On ch=1 n=e5 v=0
173377 On ch=1 n=e6 v=0
173420 On ch=1 n=c#7 v=0
173495 On ch=1 n=g6 v=62
173501 On ch=1 n=e5 v=50
173501 On ch=1 n=c7 v=83
173501 On ch=1 n=a4 v=46
173501 On ch=1 n=c5 v=50
173501 On ch=1 n=e6 v=66
173541 On ch=1 n=e6 v=0
173541 On ch=1 n=g6 v=0
173608 On ch=1 n=c7 v=0
173615 On ch=1 n=e5 v=0
173648 On ch=1 n=a4 v=0
173672 On ch=1 n=c5 v=0
173736 On ch=1 n=a4 v=42
173741 On ch=1 n=e5 v=50
173741 On ch=1 n=c5 v=40
173741 On ch=1 n=g7 v=89
173741 On ch=1 n=c7 v=66
173744 On ch=1 n=g6 v=64
173821 On ch=1 n=g6 v=0
173829 On ch=1 n=e5 v=0
173836 On ch=1 n=c5 v=0
173852 On ch=1 n=a4 v=0
173916 On ch=1 n=c7 v=0
174032 On ch=1 n=f#7 v=82
174041 On ch=1 n=g7 v=0
174049 On ch=1 n=c7 v=56
174056 On ch=1 n=f#5 v=89
174056 On ch=1 n=a6 v=55
174124 On ch=1 n=c7 v=0
174176 On ch=1 n=f#7 v=0
174216 On ch=1 n=a6 v=0
174344 On ch=1 n=f7 v=86
174344 On ch=1 n=d#5 v=54
174344 On ch=1 n=a6 v=59
174348 On ch=1 n=c5 v=51
174348 On ch=1 n=a4 v=51
174357 On ch=1 n=c7 v=66
174385 Par ch=1 c=64 v=0
174448 Par ch=1 c=64 v=127
174457 On ch=1 n=c5 v=0
174476 On ch=1 n=d#5 v=0
174481 On ch=1 n=a6 v=0
174485 On ch=1 n=c7 v=0
174496 On ch=1 n=a4 v=0
174612 On ch=1 n=c7 v=71
174612 On ch=1 n=a6 v=70
174616 On ch=1 n=e7 v=84
174616 On ch=1 n=d#5 v=42
174616 On ch=1 n=a4 v=50
174616 On ch=1 n=c5 v=52
174685 On ch=1 n=f7 v=0
174765 On ch=1 n=a6 v=0
174776 On ch=1 n=c7 v=0
174792 On ch=1 n=c5 v=0
174816 On ch=1 n=d#5 v=0
174860 On ch=1 n=d#5 v=41
174860 On ch=1 n=c5 v=40
174860 On ch=1 n=d#7 v=84
174860 On ch=1 n=c7 v=75
174860 On ch=1 n=a6 v=71
174864 On ch=1 n=a4 v=0
174881 On ch=1 n=e7 v=0
174912 On ch=1 n=c5 v=0
174912 On ch=1 n=d#5 v=0
174952 On ch=1 n=a6 v=0
174972 On ch=1 n=c7 v=0
175004 On ch=1 n=d#7 v=0
175052 On ch=1 n=f#5 v=0
175164 On ch=1 n=c6 v=93
175537 On ch=1 n=c8 v=86
175540 On ch=1 n=f#5 v=46
175540 On ch=1 n=d#5 v=46
175540 On ch=1 n=c7 v=60
175716 On ch=1 n=c8 v=0
175748 On ch=1 n=c6 v=0
175756 On ch=1 n=c7 v=0
175757 On ch=1 n=d#5 v=0
175757 On ch=1 n=f#5 v=0
175940 On ch=1 n=b5 v=88
176384 On ch=1 n=f#5 v=37
176384 On ch=1 n=d#5 v=36
176384 On ch=1 n=b7 v=75
176388 On ch=1 n=b6 v=45
176416 On ch=1 n=b5 v=0
176464 On ch=1 n=b7 v=0
176464 On ch=1 n=f#5 v=0
176474 On ch=1 n=b6 v=0
176489 On ch=1 n=d#5 v=0
177049 Par ch=1 c=64 v=0
177082 On ch=1 n=d#5 v=81
177082 On ch=1 n=b2 v=42
177082 On ch=1 n=b3 v=33
177261 Par ch=1 c=64 v=127
177309 On ch=1 n=b2 v=0
177325 On ch=1 n=b3 v=0
177358 On ch=1 n=d#5 v=0
177533 Par ch=1 c=67 v=127
177814 On ch=1 n=d6 v=45
177814 On ch=1 n=d#4 v=35
177841 On ch=1 n=b4 v=26
177845 On ch=1 n=g#5 v=30
177852 On ch=1 n=g#4 v=40
177973 On ch=1 n=g#4 v=0
177989 On ch=1 n=d#4 v=0
178054 On ch=1 n=b4 v=0
178082 On ch=1 n=g#5 v=0
178189 On ch=1 n=d#4 v=40
178189 On ch=1 n=d#6 v=58
178205 On ch=1 n=g#4 v=38
178205 On ch=1 n=g#5 v=42
178214 On ch=1 n=d6 v=0
178225 On ch=1 n=b4 v=33
178294 On ch=1 n=g#4 v=0
178309 On ch=1 n=b4 v=0
178354 On ch=1 n=d#4 v=0
178401 On ch=1 n=g#5 v=0
178478 On ch=1 n=g#6 v=65
178489 On ch=1 n=d#4 v=45
178498 On ch=1 n=d#6 v=0
178498 On ch=1 n=g#4 v=39
178498 On ch=1 n=b4 v=37
178498 On ch=1 n=g#5 v=50
178588 On ch=1 n=g#4 v=0
178645 On ch=1 n=g#6 v=0
178665 On ch=1 n=d#4 v=0
178668 On ch=1 n=g#5 v=0
178674 Par ch=1 c=67 v=0
178698 On ch=1 n=b4 v=0
178774 On ch=1 n=g6 v=69
178774 On ch=1 n=d#5 v=87
178801 On ch=1 n=g#5 v=58
178981 On ch=1 n=g#5 v=0
179082 On ch=1 n=f#6 v=72
179093 On ch=1 n=g#5 v=66
179093 On ch=1 n=d#4 v=51
179093 On ch=1 n=g#4 v=52
179094 On ch=1 n=b4 v=50
179105 On ch=1 n=g6 v=0
179185 On ch=1 n=d#4 v=0
179201 On ch=1 n=g#4 v=0
179205 On ch=1 n=d#5 v=0
179215 On ch=1 n=b4 v=0
179215 On ch=1 n=g#5 v=0
179242 On ch=1 n=f#6 v=0
179331 On ch=1 n=f6 v=78
179331 On ch=1 n=g#5 v=74
179338 On ch=1 n=d#5 v=84
179474 On ch=1 n=g#5 v=0
179570 On ch=1 n=b4 v=55
179574 On ch=1 n=g#4 v=54
179582 On ch=1 n=d#4 v=48
179586 On ch=1 n=e6 v=80
179589 On ch=1 n=g#5 v=82
179615 On ch=1 n=g#4 v=0
179615 On ch=1 n=b4 v=0
179618 On ch=1 n=d#5 v=0
179646 On ch=1 n=d#4 v=0
179679 On ch=1 n=e6 v=0
179702 On ch=1 n=g#5 v=0
179730 On ch=1 n=f6 v=0
179870 On ch=1 n=a#3 v=73
179871 On ch=1 n=a#2 v=74
179946 Par ch=1 c=64 v=0
179983 On ch=1 n=e5 v=100
180078 On ch=1 n=a#2 v=0
180115 On ch=1 n=a#3 v=0
180115 Par ch=1 c=64 v=127
180382 On ch=1 n=e5 v=0
180422 On ch=1 n=e6 v=57
180422 On ch=1 n=c#6 v=54
180422 On ch=1 n=c#5 v=50
180431 On ch=1 n=e4 v=54
180431 On ch=1 n=g4 v=56
180442 On ch=1 n=g5 v=30
180546 On ch=1 n=c#6 v=0
180550 On ch=1 n=e6 v=0
180558 On ch=1 n=g4 v=0
180590 On ch=1 n=g5 v=0
180602 On ch=1 n=e4 v=0
180602 On ch=1 n=c#5 v=0
180683 On ch=1 n=e6 v=65
180690 On ch=1 n=g4 v=48
180691 On ch=1 n=d5 v=64
180691 On ch=1 n=c#6 v=65
180698 On ch=1 n=e4 v=53
180702 On ch=1 n=g5 v=66
180778 On ch=1 n=d5 v=0
180810 On ch=1 n=g4 v=0
180810 On ch=1 n=e6 v=0
180814 On ch=1 n=g5 v=0
180825 On ch=1 n=e4 v=0
180825 On ch=1 n=c#6 v=0
180903 On ch=1 n=e4 v=48
180919 On ch=1 n=c#6 v=71
180931 On ch=1 n=g5 v=73
180931 On ch=1 n=e6 v=70
180931 On ch=1 n=d#5 v=69
180931 On ch=1 n=g4 v=65
181009 On ch=1 n=e4 v=0
181026 On ch=1 n=g4 v=0
181030 On ch=1 n=d#5 v=0
181066 On ch=1 n=g5 v=0
181070 On ch=1 n=e6 v=0
181094 On ch=1 n=c#6 v=0
181171 On ch=1 n=f#5 v=80
181175 On ch=1 n=g5 v=59
181179 On ch=1 n=c#6 v=64
181190 Par ch=1 c=64 v=0
181190 On ch=1 n=e6 v=63
181190 On ch=1 n=f#4 v=69
181190 On ch=1 n=a#4 v=64
181291 Par ch=1 c=64 v=127
181350 On ch=1 n=f#5 v=0
181358 On ch=1 n=e6 v=0
181358 On ch=1 n=g5 v=0
181362 On ch=1 n=c#6 v=0
181366 On ch=1 n=a#4 v=0
181366 On ch=1 n=f#4 v=0
181470 On ch=1 n=e5 v=70
181470 On ch=1 n=f#4 v=53
181491 On ch=1 n=e6 v=53
181491 On ch=1 n=g5 v=53
181491 On ch=1 n=a#4 v=53
181495 On ch=1 n=c#6 v=60
181515 On ch=1 n=e6 v=0
181622 On ch=1 n=e5 v=0
181670 On ch=1 n=f#4 v=0
181671 On ch=1 n=a#4 v=0
181782 On ch=1 n=d#5 v=88
181822 On ch=1 n=g5 v=0
181942 On ch=1 n=c#6 v=0
182106 On ch=1 n=d#4 v=50
182110 On ch=1 n=c#5 v=48
182118 On ch=1 n=g4 v=46
182122 On ch=1 n=g5 v=57
182122 On ch=1 n=c#6 v=58
182131 On ch=1 n=d#6 v=57
182154 On ch=1 n=c#5 v=0
182162 On ch=1 n=d#5 v=0
182169 On ch=1 n=g4 v=0
182222 On ch=1 n=d#4 v=0
182422 Par ch=1 c=64 v=0
182482 On ch=1 n=g#3 v=72
182482 On ch=1 n=g#2 v=71
182491 On ch=1 n=d#5 v=87
182559 Par ch=1 c=64 v=127
182586 On ch=1 n=g5 v=0
182598 On ch=1 n=c#6 v=0
182609 On ch=1 n=g#2 v=0
182619 On ch=1 n=d#6 v=0
182643 On ch=1 n=g#3 v=0
182659 On ch=1 n=d#5 v=0
182939 On ch=1 n=d6 v=68
182946 On ch=1 n=b5 v=61
182956 On ch=1 n=g#4 v=48
182967 On ch=1 n=b4 v=46
182968 On ch=1 n=d#4 v=42
182972 On ch=1 n=g#5 v=66
183043 On ch=1 n=d#4 v=0
183047 On ch=1 n=g#4 v=0
183072 On ch=1 n=b5 v=0
183075 On ch=1 n=b4 v=0
183087 On ch=1 n=g#5 v=0
183148 On ch=1 n=d6 v=0
183196 On ch=1 n=g#4 v=57
183207 On ch=1 n=d#6 v=72
183208 On ch=1 n=g#5 v=74
183208 On ch=1 n=d#4 v=50
183208 On ch=1 n=b4 v=62
183208 On ch=1 n=b5 v=65
183239 On ch=1 n=g#5 v=0
183249 On ch=1 n=b5 v=0
183284 On ch=1 n=g#4 v=0
183296 On ch=1 n=d#6 v=0
183304 On ch=1 n=b4 v=0
183304 On ch=1 n=d#4 v=0
183444 On ch=1 n=d#6 v=77
183444 On ch=1 n=d#4 v=61
183445 On ch=1 n=d#7 v=80
183445 On ch=1 n=b4 v=64
183460 On ch=1 n=g#6 v=71
183460 On ch=1 n=g#4 v=56
183565 On ch=1 n=d#6 v=0
183576 On ch=1 n=g#4 v=0
183579 On ch=1 n=d#7 v=0
183589 On ch=1 n=g#6 v=0
183589 On ch=1 n=b4 v=0
183589 On ch=1 n=d#4 v=0
183683 On ch=1 n=d#5 v=92
183693 On ch=1 n=d7 v=81
183701 On ch=1 n=d6 v=71
183701 On ch=1 n=g#6 v=77
183785 On ch=1 n=d6 v=0
183817 On ch=1 n=d7 v=0
183841 On ch=1 n=g#6 v=0
183962 On ch=1 n=c#6 v=89
183966 On ch=1 n=c#7 v=88
183970 On ch=1 n=g#6 v=80
183970 On ch=1 n=b4 v=61
183974 On ch=1 n=d#5 v=0
183974 On ch=1 n=d#4 v=60
183982 On ch=1 n=g#4 v=57
184037 On ch=1 n=g#4 v=0
184062 On ch=1 n=b4 v=0
184080 On ch=1 n=d#4 v=0
184122 On ch=1 n=g#6 v=0
184137 On ch=1 n=c#6 v=0
184141 On ch=1 n=c#7 v=0
184217 On ch=1 n=d#5 v=88
184233 On ch=1 n=g#6 v=86
184233 On ch=1 n=c6 v=89
184237 On ch=1 n=c7 v=87
184396 On ch=1 n=c7 v=0
184396 On ch=1 n=c6 v=0
184400 On ch=1 n=g#6 v=0
184469 On ch=1 n=g#4 v=55
184473 On ch=1 n=b4 v=49
184480 On ch=1 n=d#5 v=0
184490 On ch=1 n=d#4 v=47
184506 On ch=1 n=b4 v=0
184510 On ch=1 n=b5 v=110
184510 On ch=1 n=g#6 v=90
184521 On ch=1 n=b6 v=86
184526 On ch=1 n=g#4 v=0
184553 On ch=1 n=d#4 v=0
184660 On ch=1 n=g#6 v=0
184726 On ch=1 n=b5 v=0
184789 On ch=1 n=f#3 v=85
184793 On ch=1 n=f#2 v=80
184817 Par ch=1 c=64 v=0
184900 On ch=1 n=b5 v=105
184989 On ch=1 n=f#2 v=0
185021 Par ch=1 c=64 v=127
185026 On ch=1 n=b6 v=0
185033 On ch=1 n=f#3 v=0
185321 On ch=1 n=d#6 v=65
185326 On ch=1 n=f#6 v=62
185326 On ch=1 n=d5 v=56
185326 On ch=1 n=b6 v=67
185326 On ch=1 n=f#4 v=50
185341 On ch=1 n=a#4 v=53
185425 On ch=1 n=a#4 v=0
185440 On ch=1 n=f#4 v=0
185457 On ch=1 n=d5 v=0
185501 On ch=1 n=d#6 v=0
185509 On ch=1 n=f#6 v=0
185516 On ch=1 n=b6 v=0
185589 On ch=1 n=d#5 v=67
185589 On ch=1 n=a#4 v=56
185593 On ch=1 n=f#4 v=54
185605 On ch=1 n=d#6 v=66
185613 On ch=1 n=b6 v=65
185613 On ch=1 n=f#6 v=63
185637 On ch=1 n=b5 v=0
185649 On ch=1 n=f#4 v=0
185659 On ch=1 n=d#5 v=0
185663 On ch=1 n=a#4 v=0
185746 On ch=1 n=f#6 v=0
185750 On ch=1 n=d#6 v=0
185759 On ch=1 n=b6 v=0
185843 On ch=1 n=b5 v=87
185850 On ch=1 n=d#5 v=77
185854 On ch=1 n=f#5 v=78
185854 On ch=1 n=b6 v=71
185859 On ch=1 n=d#6 v=66
185859 On ch=1 n=f#6 v=61
185947 On ch=1 n=b5 v=0
185962 On ch=1 n=f#5 v=0
185979 On ch=1 n=d#5 v=0
186010 On ch=1 n=b6 v=0
186027 On ch=1 n=f#6 v=0
186031 On ch=1 n=d#6 v=0
186110 On ch=1 n=a#5 v=90
186110 On ch=1 n=d#6 v=72
186118 On ch=1 n=b6 v=74
186118 On ch=1 n=d#5 v=71
186119 On ch=1 n=f#6 v=67
186119 On ch=1 n=f#5 v=66
186227 On ch=1 n=d#5 v=0
186231 On ch=1 n=a#5 v=0
186234 On ch=1 n=f#5 v=0
186257 On ch=1 n=f#6 v=0
186263 On ch=1 n=d#6 v=0
186267 On ch=1 n=b6 v=0
186363 On ch=1 n=d#5 v=65
186371 On ch=1 n=d#6 v=77
186374 On ch=1 n=b6 v=68
186374 On ch=1 n=a5 v=73
186374 On ch=1 n=f#5 v=66
186378 On ch=1 n=f#6 v=66
186451 On ch=1 n=b6 v=0
186454 On ch=1 n=a5 v=0
186483 On ch=1 n=d#5 v=0
186506 On ch=1 n=f#5 v=0
186557 On ch=1 n=d#6 v=0
186630 On ch=1 n=f#6 v=0
186633 On ch=1 n=d#5 v=48
186639 On ch=1 n=a#5 v=100
186646 On ch=1 n=a#4 v=54
186734 On ch=1 n=a#4 v=0
186754 On ch=1 n=d#5 v=0
186926 On ch=1 n=f#5 v=58
186930 On ch=1 n=d#5 v=54
186939 On ch=1 n=a#4 v=55
186939 On ch=1 n=a#6 v=81
186939 On ch=1 n=f#6 v=74
186939 On ch=1 n=d#6 v=78
186971 On ch=1 n=f#5 v=0
186978 On ch=1 n=d#5 v=0
187019 On ch=1 n=a#4 v=0
187299 On ch=1 n=f#6 v=0
187331 On ch=1 n=d#6 v=0
187338 On ch=1 n=a#6 v=0
187370 On ch=1 n=e2 v=94
187370 On ch=1 n=e3 v=90
187387 Par ch=1 c=64 v=0
187407 On ch=1 n=a#5 v=0
187522 Par ch=1 c=64 v=127
187574 On ch=1 n=e3 v=0
187590 On ch=1 n=e2 v=0
187910 On ch=1 n=d#6 v=82
187910 On ch=1 n=g5 v=85
187918 On ch=1 n=g6 v=85
187918 On ch=1 n=b4 v=66
187918 On ch=1 n=e4 v=49
187918 On ch=1 n=d#5 v=46
187918 On ch=1 n=g#4 v=52
188014 On ch=1 n=g#4 v=0
188023 On ch=1 n=e4 v=0
188090 On ch=1 n=d#5 v=0
188134 On ch=1 n=g5 v=0
188134 On ch=1 n=d#6 v=0
188138 On ch=1 n=b4 v=0
188138 On ch=1 n=g6 v=0
188231 On ch=1 n=g#5 v=75
188234 On ch=1 n=g#6 v=95
188234 On ch=1 n=d#6 v=84
188234 On ch=1 n=b4 v=53
188234 On ch=1 n=d#5 v=63
188234 On ch=1 n=g#4 v=62
188234 On ch=1 n=e4 v=52
188299 On ch=1 n=g#5 v=0
188326 On ch=1 n=d#6 v=0
188343 On ch=1 n=e4 v=0
188358 On ch=1 n=g#4 v=0
188374 On ch=1 n=d#5 v=0
188419 On ch=1 n=g#6 v=0
188423 On ch=1 n=b4 v=0
188550 On ch=1 n=g#7 v=115
188550 On ch=1 n=g#6 v=90
188550 On ch=1 n=d#5 v=72
188554 On ch=1 n=e4 v=69
188554 On ch=1 n=d#7 v=78
188554 On ch=1 n=b4 v=69
188559 On ch=1 n=g#4 v=69
188694 On ch=1 n=g#6 v=0
188710 On ch=1 n=g#4 v=0
188730 On ch=1 n=d#7 v=0
188734 On ch=1 n=e4 v=0
188734 On ch=1 n=d#5 v=0
188763 On ch=1 n=b4 v=0
188794 On ch=1 n=g#7 v=0
188859 On ch=1 n=e4 v=74
188859 On ch=1 n=g#4 v=69
188867 On ch=1 n=g6 v=89
188867 On ch=1 n=d#5 v=75
188867 On ch=1 n=g7 v=100
188867 On ch=1 n=d#7 v=82
188867 On ch=1 n=b4 v=80
188958 On ch=1 n=d#7 v=0
188979 On ch=1 n=g6 v=0
189043 On ch=1 n=g#4 v=0
189047 On ch=1 n=g7 v=0
189047 On ch=1 n=d#5 v=0
189063 On ch=1 n=e4 v=0
189094 On ch=1 n=b4 v=0
189174 On ch=1 n=b6 v=82
189174 On ch=1 n=f#7 v=102
189174 On ch=1 n=f#6 v=86
189174 On ch=1 n=b4 v=61
189179 On ch=1 n=d#5 v=67
189179 On ch=1 n=e4 v=74
189179 On ch=1 n=g#4 v=68
189318 On ch=1 n=e4 v=0
189323 On ch=1 n=g#4 v=0
189334 On ch=1 n=f#6 v=0
189338 On ch=1 n=d#5 v=0
189347 On ch=1 n=b6 v=0
189354 On ch=1 n=b4 v=0
189410 On ch=1 n=f#7 v=0
189439 On ch=1 n=f6 v=87
189439 On ch=1 n=e4 v=70
189439 On ch=1 n=b6 v=88
189439 On ch=1 n=f7 v=99
189446 On ch=1 n=b4 v=61
189446 On ch=1 n=d#5 v=68
189446 On ch=1 n=g#4 v=66
189534 On ch=1 n=d#5 v=0
189558 On ch=1 n=g#4 v=0
189566 On ch=1 n=e4 v=0
189570 On ch=1 n=b6 v=0
189579 On ch=1 n=b4 v=0
189579 On ch=1 n=f6 v=0
189639 On ch=1 n=f7 v=0
189679 On ch=1 n=d#5 v=63
189679 On ch=1 n=b4 v=63
189679 On ch=1 n=e4 v=63
189679 On ch=1 n=e7 v=105
189683 On ch=1 n=e6 v=90
189683 On ch=1 n=g#6 v=88
189683 On ch=1 n=g#4 v=69
189783 On ch=1 n=g#4 v=0
189794 On ch=1 n=e6 v=0
189799 On ch=1 n=e4 v=0
189819 On ch=1 n=d#5 v=0
189826 On ch=1 n=g#6 v=0
189846 On ch=1 n=b4 v=0
189871 On ch=1 n=e7 v=0
189919 On ch=1 n=d#6 v=88
189919 On ch=1 n=g#6 v=90
189919 On ch=1 n=d#7 v=95
189930 On ch=1 n=d#5 v=68
189930 On ch=1 n=b4 v=61
189930 On ch=1 n=e4 v=66
189930 On ch=1 n=g#4 v=66
190027 On ch=1 n=d#5 v=0
190030 On ch=1 n=g#4 v=0
190038 On ch=1 n=e4 v=0
190057 On ch=1 n=b4 v=0
190059 On ch=1 n=g#6 v=0
190070 On ch=1 n=d#6 v=0
190154 On ch=1 n=d6 v=88
190163 On ch=1 n=d#5 v=68
190163 On ch=1 n=g#6 v=86
190163 On ch=1 n=d7 v=95
190163 On ch=1 n=g#4 v=64
190163 On ch=1 n=e4 v=59
190163 On ch=1 n=b4 v=63
190167 On ch=1 n=d#7 v=0
190250 On ch=1 n=e4 v=0
190250 On ch=1 n=g#4 v=0
190254 On ch=1 n=d6 v=0
190263 On ch=1 n=b4 v=0
190263 On ch=1 n=d#5 v=0
190298 On ch=1 n=g#6 v=0
190350 On ch=1 n=d7 v=0
190399 On ch=1 n=d#5 v=60
190399 On ch=1 n=e4 v=58
190403 On ch=1 n=c#6 v=96
190410 On ch=1 n=g#6 v=88
190410 On ch=1 n=c#7 v=86
190410 On ch=1 n=g#4 v=64
190410 On ch=1 n=b4 v=63
190470 On ch=1 n=e4 v=0
190486 On ch=1 n=b4 v=0
190486 On ch=1 n=g#4 v=0
190486 On ch=1 n=d#5 v=0
190518 On ch=1 n=g#6 v=0
190546 On ch=1 n=c#6 v=0
190627 On ch=1 n=d#5 v=61
190627 On ch=1 n=g#4 v=64
190631 On ch=1 n=b4 v=61
190638 On ch=1 n=c6 v=91
190638 On ch=1 n=c7 v=93
190638 On ch=1 n=e4 v=59
190638 On ch=1 n=g#6 v=69
190639 On ch=1 n=c#7 v=0
190643 On ch=1 n=g#6 v=0
190670 On ch=1 n=e4 v=0
190699 Par ch=1 c=64 v=0
190714 On ch=1 n=c6 v=0
190724 On ch=1 n=b4 v=0
190724 On ch=1 n=g#4 v=0
190727 Par ch=1 c=64 v=127
190771 On ch=1 n=d#5 v=0
190788 On ch=1 n=e4 v=67
190788 On ch=1 n=g#4 v=66
190788 On ch=1 n=b4 v=55
190811 On ch=1 n=c7 v=0
190880 On ch=1 n=g#4 v=0
190888 On ch=1 n=b4 v=0
190900 On ch=1 n=d#5 v=71
190900 On ch=1 n=b6 v=86
190900 On ch=1 n=d#6 v=78
190900 On ch=1 n=b5 v=78
190907 On ch=1 n=e4 v=0
190976 On ch=1 n=d#5 v=0
191011 On ch=1 n=d#6 v=0
191064 On ch=1 n=g#5 v=82
191083 On ch=1 n=b5 v=0
191187 On ch=1 n=g#5 v=0
191224 On ch=1 n=a#6 v=87
191415 On ch=1 n=b6 v=0
191495 On ch=1 n=a6 v=86
191635 On ch=1 n=a#6 v=0
191791 On ch=1 n=g#6 v=84
191875 Par ch=1 c=64 v=0
191907 On ch=1 n=a6 v=0
191951 Par ch=1 c=64 v=127
192107 On ch=1 n=g6 v=85
192214 On ch=1 n=g#6 v=0
192415 Par ch=1 c=64 v=0
192454 On ch=1 n=f#6 v=76
192539 Par ch=1 c=64 v=127
192628 On ch=1 n=g6 v=0
192815 On ch=1 n=f6 v=85
192916 On ch=1 n=f#6 v=0
193011 Par ch=1 c=64 v=0
193103 Par ch=1 c=64 v=127
193291 On ch=1 n=e6 v=69
193387 On ch=1 n=f6 v=0
193531 On ch=1 n=e6 v=0
193723 On ch=1 n=d#6 v=71
193963 On ch=1 n=e6 v=76
194135 On ch=1 n=d#6 v=0
194135 On ch=1 n=d#6 v=78
194291 On ch=1 n=c#6 v=79
194367 On ch=1 n=e6 v=0
194427 On ch=1 n=d#6 v=0
194483 On ch=1 n=c#6 v=0
194483 On ch=1 n=d#6 v=82
194594 On ch=1 n=d#6 v=0
194655 On ch=1 n=d#6 v=77
194930 On ch=1 n=f#6 v=74
194963 Par ch=1 c=64 v=0
195010 On ch=1 n=d#6 v=0
195187 Par ch=1 c=64 v=127
195343 On ch=1 n=e6 v=61
195556 On ch=1 n=f#6 v=0
195751 On ch=1 n=g#5 v=51
195811 Par ch=1 c=64 v=0
195915 On ch=1 n=e6 v=0
195947 Par ch=1 c=64 v=127
196219 On ch=1 n=a#5 v=54
196376 On ch=1 n=g#5 v=0
196751 On ch=1 n=d#6 v=57
196843 Par ch=1 c=64 v=0
196956 On ch=1 n=a#5 v=0
197003 Par ch=1 c=64 v=127
197471 On ch=1 n=c#6 v=44
197631 Par ch=1 c=67 v=127
197660 On ch=1 n=c#6 v=0
197704 On ch=1 n=d#6 v=0
197823 On ch=1 n=e3 v=39
198016 Par ch=1 c=64 v=0
198047 On ch=1 n=b5 v=58
198087 On ch=1 n=c#5 v=39
198104 Par ch=1 c=64 v=127
198291 On ch=1 n=c#5 v=0
198291 On ch=1 n=e3 v=0
198500 On ch=1 n=g#4 v=33
198543 On ch=1 n=g#4 v=0
198807 On ch=1 n=e3 v=42
198907 Par ch=1 c=64 v=0
199019 On ch=1 n=a#5 v=52
199047 On ch=1 n=d5 v=42
199103 Par ch=1 c=64 v=127
199110 On ch=1 n=e3 v=0
199374 On ch=1 n=a#5 v=0
199374 On ch=1 n=g#4 v=29
199384 On ch=1 n=b5 v=0
199393 On ch=1 n=d5 v=0
199568 On ch=1 n=g#4 v=0
199876 Par ch=1 c=67 v=0
199968 On ch=1 n=g4 v=35
200211 On ch=1 n=d#5 v=53
200511 On ch=1 n=d#3 v=36
200804 Par ch=1 c=64 v=0
200844 On ch=1 n=a#5 v=71
201168 Par ch=1 c=64 v=127
201424 Par ch=1 c=67 v=127
201533 On ch=1 n=g4 v=0
201656 On ch=1 n=d#3 v=0
201732 On ch=1 n=a#3 v=25
202056 On ch=1 n=a#3 v=0
202093 On ch=1 n=d#4 v=30
202184 On ch=1 n=d#5 v=0
202401 On ch=1 n=g4 v=33
202521 On ch=1 n=g4 v=0
202568 On ch=1 n=d#4 v=0
202661 On ch=1 n=a#4 v=40
202841 On ch=1 n=a#4 v=0
202920 On ch=1 n=d#5 v=45
203160 On ch=1 n=a#5 v=0
203181 On ch=1 n=d#5 v=0
203208 On ch=1 n=g5 v=43
203331 On ch=1 n=g5 v=0
203517 On ch=1 n=a#5 v=34
203808 On ch=1 n=d#6 v=33
204127 On ch=1 n=g6 v=34
204207 On ch=1 n=g6 v=0
204344 On ch=1 n=d#6 v=0
204431 On ch=1 n=a#6 v=38
204484 On ch=1 n=a#5 v=0
204732 On ch=1 n=a#6 v=0
204744 On ch=1 n=d#7 v=37
205084 On ch=1 n=d#7 v=0
205104 On ch=1 n=g7 v=45
205141 On ch=1 n=a#4 v=55
205145 On ch=1 n=g5 v=63
205157 On ch=1 n=d#5 v=51
205200 On ch=1 n=g7 v=0
205221 Par ch=1 c=67 v=0
205585 On ch=1 n=a#7 v=59
205585 On ch=1 n=g6 v=58
205585 On ch=1 n=d#7 v=59
205767 On ch=1 n=d#7 v=0
205767 On ch=1 n=g6 v=0
205767 On ch=1 n=a#7 v=0
205813 On ch=1 n=a#4 v=0
205844 On ch=1 n=g5 v=0
205861 On ch=1 n=d#5 v=0
205873 On ch=1 n=a#7 v=59
205873 On ch=1 n=g6 v=58
205873 On ch=1 n=d#7 v=57
205993 On ch=1 n=g6 v=0
205993 On ch=1 n=a#7 v=0
205996 On ch=1 n=d#7 v=0
206153 On ch=1 n=a#7 v=62
206153 On ch=1 n=g6 v=59
206153 On ch=1 n=d#7 v=58
206160 On ch=1 n=a#5 v=82
206204 On ch=1 n=g5 v=55
206208 On ch=1 n=d#5 v=53
206208 On ch=1 n=a#4 v=51
206337 On ch=1 n=g6 v=0
206344 On ch=1 n=d#7 v=0
206344 On ch=1 n=a#7 v=0
206457 On ch=1 n=a#7 v=59
206460 On ch=1 n=d#7 v=58
206460 On ch=1 n=g6 v=58
206664 On ch=1 n=a#7 v=0
206671 On ch=1 n=g6 v=0
206671 On ch=1 n=d#7 v=0
206764 On ch=1 n=g6 v=58
206764 On ch=1 n=a#7 v=61
206764 On ch=1 n=d#7 v=59
206824 On ch=1 n=a#5 v=0
206828 On ch=1 n=a#7 v=0
206828 On ch=1 n=g6 v=0
206832 On ch=1 n=d#7 v=0
206928 On ch=1 n=a#4 v=0
206928 On ch=1 n=d#5 v=0
206928 On ch=1 n=g5 v=0
207364 On ch=1 n=d6 v=80
207411 On ch=1 n=g#5 v=50
207411 On ch=1 n=f5 v=51
207813 Par ch=1 c=67 v=127
207820 Par ch=1 c=64 v=0
207857 On ch=1 n=d#3 v=38
208081 Par ch=1 c=64 v=127
208141 On ch=1 n=d#3 v=0
208144 On ch=1 n=a#3 v=41
208211 On ch=1 n=a#3 v=0
208404 On ch=1 n=d6 v=0
208424 On ch=1 n=g#5 v=0
208453 On ch=1 n=f5 v=0
208464 On ch=1 n=g#4 v=39
208468 On ch=1 n=f4 v=39
208588 On ch=1 n=f4 v=0
208665 On ch=1 n=g#4 v=0
208753 On ch=1 n=a#4 v=36
208948 On ch=1 n=a#4 v=0
209024 On ch=1 n=d5 v=40
209253 On ch=1 n=d5 v=0
209321 On ch=1 n=f5 v=38
209347 On ch=1 n=g#5 v=34
209504 On ch=1 n=f5 v=0
209541 On ch=1 n=g#5 v=0
209621 On ch=1 n=a#5 v=41
209920 On ch=1 n=d6 v=35
210245 On ch=1 n=f6 v=35
210253 On ch=1 n=g#6 v=36
210385 On ch=1 n=f6 v=0
210420 On ch=1 n=g#6 v=0
210465 On ch=1 n=d6 v=0
210531 On ch=1 n=a#6 v=40
210577 On ch=1 n=a#5 v=0
210772 Par ch=1 c=67 v=0
210816 On ch=1 n=d7 v=37
211120 On ch=1 n=g#7 v=55
211164 On ch=1 n=g#5 v=61
211164 On ch=1 n=f5 v=55
211167 On ch=1 n=a#4 v=57
211213 On ch=1 n=a#6 v=0
211261 On ch=1 n=g#7 v=0
211308 On ch=1 n=d7 v=0
211384 On ch=1 n=a#4 v=0
211532 On ch=1 n=f5 v=0
211584 On ch=1 n=f7 v=55
211584 On ch=1 n=a#7 v=55
211584 On ch=1 n=d7 v=56
211593 On ch=1 n=g#6 v=55
211748 On ch=1 n=a#7 v=0
211748 On ch=1 n=f7 v=0
211753 On ch=1 n=g#6 v=0
211753 On ch=1 n=d7 v=0
211868 On ch=1 n=a#7 v=56
211868 On ch=1 n=f7 v=55
211872 On ch=1 n=d7 v=55
211872 On ch=1 n=g#6 v=55
212073 On ch=1 n=f7 v=0
212073 On ch=1 n=a#7 v=0
212080 On ch=1 n=g#6 v=0
212080 On ch=1 n=d7 v=0
212196 On ch=1 n=c6 v=80
212204 On ch=1 n=g#6 v=65
212204 On ch=1 n=f5 v=58
212204 On ch=1 n=a#7 v=55
212204 On ch=1 n=d7 v=56
212213 On ch=1 n=f7 v=55
212221 On ch=1 n=d5 v=50
212312 On ch=1 n=g#5 v=0
212367 On ch=1 n=g#6 v=0
212371 On ch=1 n=f7 v=0
212371 On ch=1 n=d7 v=0
212371 On ch=1 n=a#7 v=0
212617 On ch=1 n=a#7 v=56
212617 On ch=1 n=g#6 v=56
212620 On ch=1 n=d7 v=56
212620 On ch=1 n=f7 v=55
212792 On ch=1 n=f7 v=0
212792 On ch=1 n=d7 v=0
212792 On ch=1 n=g#6 v=0
212792 On ch=1 n=a#7 v=0
212932 On ch=1 n=a#7 v=55
212937 On ch=1 n=f7 v=55
212944 On ch=1 n=d7 v=54
212944 On ch=1 n=g#6 v=54
212997 On ch=1 n=d7 v=0
212997 On ch=1 n=f7 v=0
212997 On ch=1 n=a#7 v=0
213001 On ch=1 n=g#6 v=0
213180 On ch=1 n=a#5 v=66
213360 On ch=1 n=a#5 v=0
213388 On ch=1 n=c6 v=0
213480 On ch=1 n=f5 v=0
213544 On ch=1 n=d5 v=0
213692 On ch=1 n=d#5 v=55
213697 On ch=1 n=g5 v=55
213697 On ch=1 n=a#4 v=50
214125 Par ch=1 c=64 v=0
214153 Par ch=1 c=67 v=127
214196 On ch=1 n=d#3 v=35
214437 Par ch=1 c=64 v=127
214508 On ch=1 n=d#3 v=0
214508 On ch=1 n=a#3 v=40
214713 On ch=1 n=d#5 v=0
214751 On ch=1 n=a#4 v=0
214773 On ch=1 n=g5 v=0
214800 On ch=1 n=d#4 v=35
214800 On ch=1 n=g4 v=41
214888 On ch=1 n=d#4 v=0
214924 On ch=1 n=g4 v=0
214933 On ch=1 n=a#3 v=0
215061 On ch=1 n=a#4 v=43
215304 On ch=1 n=a#4 v=0
215340 On ch=1 n=d#5 v=41
215631 On ch=1 n=g5 v=35
215692 On ch=1 n=d#5 v=0
215752 On ch=1 n=g5 v=0
215908 On ch=1 n=a#5 v=36
216184 On ch=1 n=d#6 v=36
216452 On ch=1 n=g6 v=36
216524 On ch=1 n=g6 v=0
216644 On ch=1 n=d#6 v=0
216717 On ch=1 n=a#6 v=43
216791 On ch=1 n=a#5 v=0
216797 Par ch=1 c=67 v=0
216844 On ch=1 n=a#6 v=0
216980 On ch=1 n=d#7 v=44
217264 On ch=1 n=d#7 v=0
217272 On ch=1 n=g7 v=41
217284 On ch=1 n=g5 v=67
217294 On ch=1 n=a#4 v=56
217297 On ch=1 n=d#5 v=50
217358 On ch=1 n=g7 v=0
217685 On ch=1 n=a#7 v=56
217690 On ch=1 n=g6 v=56
217690 On ch=1 n=d#7 v=55
217821 On ch=1 n=a#7 v=0
217825 On ch=1 n=d#7 v=0
217825 On ch=1 n=g6 v=0
217881 On ch=1 n=a#4 v=0
217908 On ch=1 n=g5 v=0
217941 On ch=1 n=d#5 v=0
217965 On ch=1 n=a#7 v=57
217965 On ch=1 n=g6 v=55
217969 On ch=1 n=d#7 v=56
218128 On ch=1 n=d#7 v=0
218128 On ch=1 n=g6 v=0
218128 On ch=1 n=a#7 v=0
218249 On ch=1 n=a#7 v=55
218249 On ch=1 n=d#7 v=56
218250 On ch=1 n=g6 v=55
218250 On ch=1 n=a#5 v=76
218257 On ch=1 n=d#5 v=58
218265 On ch=1 n=g5 v=60
218277 On ch=1 n=a#4 v=50
218425 On ch=1 n=g6 v=0
218425 On ch=1 n=d#7 v=0
218425 On ch=1 n=a#7 v=0
218545 On ch=1 n=g6 v=52
218545 On ch=1 n=a#7 v=56
218545 On ch=1 n=d#7 v=51
218721 On ch=1 n=d#7 v=0
218721 On ch=1 n=a#7 v=0
218721 On ch=1 n=g6 v=0
218829 On ch=1 n=g6 v=55
218829 On ch=1 n=a#7 v=56
218829 On ch=1 n=d#7 v=54
218921 On ch=1 n=a#5 v=0
218937 On ch=1 n=d#7 v=0
218937 On ch=1 n=a#7 v=0
218937 On ch=1 n=g6 v=0
218961 On ch=1 n=g5 v=0
219041 On ch=1 n=d#5 v=0
219101 On ch=1 n=a#4 v=0
219308 On ch=1 n=d6 v=78
219345 On ch=1 n=g#5 v=55
219345 On ch=1 n=f5 v=51
219749 Par ch=1 c=64 v=0
219750 Par ch=1 c=67 v=127
219750 On ch=1 n=d#3 v=51
219978 Par ch=1 c=64 v=127
220037 On ch=1 n=a#3 v=40
220061 On ch=1 n=d#3 v=0
220097 On ch=1 n=a#3 v=0
220190 On ch=1 n=d6 v=0
220217 On ch=1 n=g#5 v=0
220227 On ch=1 n=f5 v=0
220302 On ch=1 n=f4 v=40
220314 On ch=1 n=g#4 v=35
220418 On ch=1 n=f4 v=0
220442 On ch=1 n=g#4 v=0
220586 On ch=1 n=a#4 v=38
220807 On ch=1 n=a#4 v=0
220867 On ch=1 n=d5 v=36
221155 On ch=1 n=d5 v=0
221166 On ch=1 n=f5 v=39
221182 On ch=1 n=g#5 v=33
221258 On ch=1 n=f5 v=0
221322 On ch=1 n=g#5 v=0
221467 On ch=1 n=a#5 v=43
221738 On ch=1 n=d6 v=37
222038 On ch=1 n=f6 v=34
222058 On ch=1 n=g#6 v=39
222202 On ch=1 n=f6 v=0
222225 On ch=1 n=g#6 v=0
222262 On ch=1 n=d6 v=0
222338 On ch=1 n=a#6 v=41
222387 On ch=1 n=a#5 v=0
222601 On ch=1 n=d7 v=42
222907 On ch=1 n=g#7 v=47
222907 On ch=1 n=f7 v=35
222922 On ch=1 n=g#5 v=61
222925 On ch=1 n=a#4 v=63
222935 On ch=1 n=f5 v=58
222986 On ch=1 n=g#7 v=0
222986 On ch=1 n=a#6 v=0
223062 On ch=1 n=d7 v=0
223106 On ch=1 n=f7 v=0
223147 On ch=1 n=a#4 v=0
223266 Par ch=1 c=67 v=0
223342 On ch=1 n=f7 v=55
223342 On ch=1 n=a#7 v=54
223346 On ch=1 n=d7 v=55
223346 On ch=1 n=g#6 v=55
223378 On ch=1 n=f5 v=0
223522 On ch=1 n=g#6 v=0
223522 On ch=1 n=d7 v=0
223522 On ch=1 n=a#7 v=0
223522 On ch=1 n=f7 v=0
223627 On ch=1 n=f7 v=55
223627 On ch=1 n=g#6 v=55
223630 On ch=1 n=a#7 v=55
223630 On ch=1 n=d7 v=55
223706 On ch=1 n=g#5 v=0
223822 On ch=1 n=a#7 v=0
223822 On ch=1 n=g#6 v=0
223822 On ch=1 n=f7 v=0
223825 On ch=1 n=d7 v=0
223934 On ch=1 n=a#7 v=55
223934 On ch=1 n=f7 v=55
223938 On ch=1 n=d7 v=55
223945 On ch=1 n=g#6 v=55
223982 On ch=1 n=c6 v=71
224002 On ch=1 n=f5 v=49
224027 On ch=1 n=d5 v=55
224125 On ch=1 n=g#6 v=0
224125 On ch=1 n=d7 v=0
224125 On ch=1 n=f7 v=0
224125 On ch=1 n=a#7 v=0
224378 On ch=1 n=a#7 v=55
224378 On ch=1 n=f7 v=54
224385 On ch=1 n=g#6 v=52
224385 On ch=1 n=d7 v=54
224546 On ch=1 n=d7 v=0
224546 On ch=1 n=g#6 v=0
224546 On ch=1 n=f7 v=0
224546 On ch=1 n=a#7 v=0
224718 On ch=1 n=a#7 v=55
224718 On ch=1 n=d7 v=54
224722 On ch=1 n=g#6 v=54
224726 On ch=1 n=f7 v=55
224859 On ch=1 n=f7 v=0
224859 On ch=1 n=g#6 v=0
224859 On ch=1 n=d7 v=0
224859 On ch=1 n=a#7 v=0
224931 On ch=1 n=a#5 v=59
225075 On ch=1 n=c6 v=0
225118 On ch=1 n=a#5 v=0
225267 On ch=1 n=f5 v=0
225342 On ch=1 n=d5 v=0
225446 On ch=1 n=d#5 v=36
225450 On ch=1 n=g5 v=51
225465 On ch=1 n=a#4 v=44
225907 Par ch=1 c=64 v=0
225911 On ch=1 n=d#3 v=49
225970 Par ch=1 c=67 v=127
226238 On ch=1 n=a#3 v=31
226247 Par ch=1 c=64 v=127
226255 On ch=1 n=d#3 v=0
226498 On ch=1 n=d#5 v=0
226545 On ch=1 n=g4 v=36
226547 On ch=1 n=d#4 v=35
226614 On ch=1 n=a#4 v=0
226614 On ch=1 n=g5 v=0
226662 On ch=1 n=d#4 v=0
226698 On ch=1 n=g4 v=0
226705 On ch=1 n=a#3 v=0
226805 On ch=1 n=a#4 v=45
227078 On ch=1 n=d#5 v=45
227106 On ch=1 n=a#4 v=0
227367 On ch=1 n=g5 v=38
227434 On ch=1 n=d#5 v=0
227506 On ch=1 n=g5 v=0
227642 On ch=1 n=a#5 v=40
227918 On ch=1 n=d#6 v=39
228195 On ch=1 n=g6 v=45
228271 On ch=1 n=g6 v=0
228394 On ch=1 n=d#6 v=0
228455 On ch=1 n=a#6 v=42
228542 Par ch=1 c=67 v=0
228546 On ch=1 n=a#5 v=0
228726 On ch=1 n=d#7 v=49
228755 On ch=1 n=a#6 v=0
229011 On ch=1 n=g7 v=55
229022 On ch=1 n=d#7 v=0
229026 On ch=1 n=d#5 v=58
229038 On ch=1 n=g5 v=65
229042 On ch=1 n=a#4 v=64
229222 On ch=1 n=g7 v=0
229402 On ch=1 n=a#6 v=55
229406 On ch=1 n=g6 v=55
229406 On ch=1 n=d#7 v=54
229406 On ch=1 n=g7 v=55
229587 On ch=1 n=d#5 v=0
229590 On ch=1 n=d#7 v=0
229590 On ch=1 n=g6 v=0
229590 On ch=1 n=a#6 v=0
229594 On ch=1 n=g7 v=0
229594 On ch=1 n=a#4 v=0
229667 On ch=1 n=g5 v=0
229667 On ch=1 n=g7 v=55
229671 On ch=1 n=a#6 v=55
229671 On ch=1 n=d#7 v=53
229671 On ch=1 n=g6 v=52
229787 On ch=1 n=d#7 v=0
229787 On ch=1 n=g7 v=0
229791 On ch=1 n=g6 v=0
229791 On ch=1 n=a#6 v=0
229918 On ch=1 n=g7 v=51
229922 On ch=1 n=a#6 v=52
229927 On ch=1 n=g6 v=55
229927 On ch=1 n=d#7 v=53
229927 On ch=1 n=g5 v=79
229938 On ch=1 n=d#5 v=64
229938 On ch=1 n=a#4 v=67
230067 On ch=1 n=g6 v=0
230067 On ch=1 n=a#6 v=0
230067 On ch=1 n=g7 v=0
230070 On ch=1 n=d#7 v=0
230205 On ch=1 n=g6 v=50
230205 On ch=1 n=g7 v=54
230207 On ch=1 n=a#6 v=53
230207 On ch=1 n=d#7 v=51
230347 On ch=1 n=d#7 v=0
230347 On ch=1 n=a#6 v=0
230347 On ch=1 n=g7 v=0
230347 On ch=1 n=g6 v=0
230446 On ch=1 n=g5 v=0
230458 On ch=1 n=g7 v=50
230458 On ch=1 n=a#6 v=56
230458 On ch=1 n=g6 v=52
230458 On ch=1 n=d#7 v=55
230468 On ch=1 n=d#5 v=0
230528 On ch=1 n=d#7 v=0
230528 On ch=1 n=g6 v=0
230528 On ch=1 n=a#6 v=0
230528 On ch=1 n=g7 v=0
230539 On ch=1 n=a#4 v=0
230931 On ch=1 n=g5 v=81
230931 On ch=1 n=b4 v=76
230931 On ch=1 n=f5 v=74
231423 On ch=1 n=d3 v=51
231535 Par ch=1 c=64 v=0
231692 On ch=1 n=g3 v=45
231699 Par ch=1 c=64 v=127
231828 On ch=1 n=f5 v=0
231875 On ch=1 n=b4 v=0
231939 On ch=1 n=f4 v=55
231944 On ch=1 n=b3 v=55
232071 On ch=1 n=b3 v=0
232071 On ch=1 n=f4 v=0
232128 On ch=1 n=d3 v=0
232151 On ch=1 n=g3 v=0
232212 On ch=1 n=g4 v=46
232348 On ch=1 n=g4 v=0
232455 On ch=1 n=b4 v=52
232671 On ch=1 n=b4 v=0
232704 On ch=1 n=f5 v=53
232719 On ch=1 n=g5 v=0
232838 On ch=1 n=f5 v=0
232971 On ch=1 n=g5 v=58
233195 On ch=1 n=b5 v=66
233435 On ch=1 n=f6 v=66
233515 On ch=1 n=f6 v=0
233619 On ch=1 n=b5 v=0
233635 On ch=1 n=g5 v=0
233659 On ch=1 n=g6 v=65
233884 On ch=1 n=b6 v=72
234124 On ch=1 n=f7 v=62
234152 On ch=1 n=g5 v=91
234155 On ch=1 n=f5 v=57
234155 On ch=1 n=b4 v=64
234215 On ch=1 n=b6 v=0
234303 On ch=1 n=g6 v=0
234355 On ch=1 n=f7 v=0
234455 On ch=1 n=f7 v=64
234463 On ch=1 n=g7 v=71
234463 On ch=1 n=b6 v=71
234463 On ch=1 n=g6 v=62
234528 On ch=1 n=b4 v=0
234559 On ch=1 n=f5 v=0
234588 On ch=1 n=b6 v=0
234588 On ch=1 n=f7 v=0
234592 On ch=1 n=g6 v=0
234608 On ch=1 n=g7 v=0
234679 On ch=1 n=g7 v=67
234679 On ch=1 n=b6 v=72
234684 On ch=1 n=f7 v=67
234684 On ch=1 n=g6 v=69
234768 On ch=1 n=b4 v=71
234779 On ch=1 n=f5 v=78
234779 On ch=1 n=g#5 v=95
234779 On ch=1 n=f6 v=77
234804 On ch=1 n=g5 v=0
234864 On ch=1 n=g6 v=0
234888 On ch=1 n=f7 v=0
234911 On ch=1 n=b6 v=0
234915 On ch=1 n=g7 v=0
234975 On ch=1 n=g6 v=65
234983 On ch=1 n=b6 v=61
234983 On ch=1 n=g7 v=65
234988 On ch=1 n=f7 v=64
235099 On ch=1 n=b6 v=0
235099 On ch=1 n=g6 v=0
235116 On ch=1 n=f6 v=0
235183 On ch=1 n=g#5 v=0
235219 On ch=1 n=f7 v=0
235229 On ch=1 n=g7 v=0
235292 On ch=1 n=b6 v=57
235292 On ch=1 n=g6 v=61
235308 On ch=1 n=g7 v=55
235308 On ch=1 n=f7 v=59
235412 On ch=1 n=g6 v=0
235416 On ch=1 n=b6 v=0
235441 On ch=1 n=f7 v=0
235445 On ch=1 n=g7 v=0
235584 On ch=1 n=f7 v=57
235592 On ch=1 n=g6 v=60
235592 On ch=1 n=g7 v=55
235599 On ch=1 n=b6 v=60
235616 On ch=1 n=f7 v=0
235620 On ch=1 n=g7 v=0
235648 On ch=1 n=g6 v=0
235652 On ch=1 n=b6 v=0
235732 On ch=1 n=g5 v=85
235821 On ch=1 n=g5 v=0
235856 On ch=1 n=f5 v=0
236009 On ch=1 n=b4 v=0
236119 On ch=1 n=g5 v=81
236119 On ch=1 n=c5 v=70
236119 On ch=1 n=d#5 v=71
236121 On ch=1 n=g4 v=69
236413 Par ch=1 c=64 v=0
236519 On ch=1 n=c3 v=47
236608 Par ch=1 c=64 v=127
236701 On ch=1 n=c3 v=0
236776 On ch=1 n=g3 v=40
237005 On ch=1 n=d#4 v=51
237016 On ch=1 n=c4 v=37
237093 On ch=1 n=c4 v=0
237100 On ch=1 n=g4 v=0
237104 On ch=1 n=d#5 v=0
237116 On ch=1 n=g3 v=0
237119 On ch=1 n=d#4 v=0
237129 On ch=1 n=c5 v=0
237253 On ch=1 n=g4 v=51
237376 On ch=1 n=g4 v=0
237477 On ch=1 n=c5 v=63
237646 On ch=1 n=c5 v=0
237709 On ch=1 n=d#5 v=60
237785 On ch=1 n=d#5 v=0
237917 On ch=1 n=g5 v=0
237929 On ch=1 n=g5 v=65
238158 On ch=1 n=c6 v=67
238398 On ch=1 n=d#6 v=74
238537 On ch=1 n=d#6 v=0
238566 On ch=1 n=c6 v=0
238629 On ch=1 n=g5 v=0
238629 On ch=1 n=g6 v=68
238817 On ch=1 n=c7 v=75
239052 On ch=1 n=d#7 v=63
239069 On ch=1 n=g5 v=91
239078 On ch=1 n=d#5 v=73
239093 On ch=1 n=c5 v=67
239097 On ch=1 n=g4 v=67
239162 On ch=1 n=g6 v=0
239193 On ch=1 n=c7 v=0
239258 On ch=1 n=d#7 v=0
239349 On ch=1 n=d#7 v=64
239349 On ch=1 n=g7 v=71
239349 On ch=1 n=g6 v=69
239349 On ch=1 n=c7 v=66
239473 On ch=1 n=g6 v=0
239477 On ch=1 n=g7 v=0
239496 On ch=1 n=d#7 v=0
239506 On ch=1 n=c7 v=0
239554 On ch=1 n=g6 v=75
239554 On ch=1 n=d#7 v=59
239555 On ch=1 n=c7 v=69
239555 On ch=1 n=g7 v=74
239566 On ch=1 n=g4 v=0
239619 On ch=1 n=c5 v=0
239649 On ch=1 n=g6 v=0
239675 On ch=1 n=g4 v=73
239679 On ch=1 n=d#5 v=0
239686 On ch=1 n=g7 v=0
239698 On ch=1 n=g5 v=0
239698 On ch=1 n=c5 v=80
239719 On ch=1 n=d#7 v=0
239735 On ch=1 n=d#5 v=82
239822 On ch=1 n=d#7 v=64
239822 On ch=1 n=a7 v=74
239822 On ch=1 n=a6 v=59
239822 On ch=1 n=g6 v=62
239839 On ch=1 n=c7 v=0
239919 On ch=1 n=a5 v=100
239975 On ch=1 n=g6 v=0
240010 On ch=1 n=a6 v=0
240038 On ch=1 n=a7 v=0
240050 On ch=1 n=d#7 v=0
240139 On ch=1 n=c7 v=54
240142 On ch=1 n=d#7 v=66
240142 On ch=1 n=g6 v=61
240146 On ch=1 n=a6 v=56
240146 On ch=1 n=a7 v=75
240162 On ch=1 n=c7 v=0
240283 On ch=1 n=a7 v=0
240299 On ch=1 n=a6 v=0
240299 On ch=1 n=g6 v=0
240326 On ch=1 n=d#7 v=0
240366 On ch=1 n=c7 v=55
240374 On ch=1 n=d#7 v=66
240374 On ch=1 n=a7 v=68
240374 On ch=1 n=a6 v=57
240374 On ch=1 n=g6 v=64
240384 On ch=1 n=c7 v=0
240400 On ch=1 n=a7 v=0
240431 On ch=1 n=d#7 v=0
240432 On ch=1 n=a6 v=0
240444 On ch=1 n=g6 v=0
240467 On ch=1 n=a5 v=0
240516 On ch=1 n=d#5 v=0
240556 On ch=1 n=c5 v=0
240610 On ch=1 n=g4 v=0
240811 On ch=1 n=b5 v=100
240819 On ch=1 n=f#5 v=85
240819 On ch=1 n=a4 v=85
240819 On ch=1 n=d#5 v=84
240830 On ch=1 n=b4 v=88
241050 Par ch=1 c=64 v=0
241180 On ch=1 n=b2 v=63
241270 Par ch=1 c=64 v=127
241408 On ch=1 n=b2 v=0
241429 On ch=1 n=b3 v=62
241488 On ch=1 n=b3 v=0
241661 On ch=1 n=d#4 v=57
241669 On ch=1 n=f#5 v=0
241669 On ch=1 n=f#4 v=57
241716 On ch=1 n=b4 v=0
241716 On ch=1 n=a4 v=0
241726 On ch=1 n=d#5 v=0
241777 On ch=1 n=f#4 v=0
241777 On ch=1 n=d#4 v=0
241873 On ch=1 n=a4 v=69
242085 On ch=1 n=f#5 v=70
242097 On ch=1 n=d#5 v=64
242101 On ch=1 n=a4 v=0
242221 On ch=1 n=b5 v=0
242313 On ch=1 n=b5 v=76
242341 On ch=1 n=d#5 v=0
242381 On ch=1 n=f#5 v=0
242457 On ch=1 n=b5 v=0
242521 On ch=1 n=f#5 v=62
242526 On ch=1 n=d#6 v=70
242658 On ch=1 n=f#5 v=0
242693 On ch=1 n=d#6 v=0
242737 On ch=1 n=f#6 v=79
242737 On ch=1 n=b5 v=73
242804 On ch=1 n=b5 v=0
242829 On ch=1 n=f#6 v=0
242994 On ch=1 n=b6 v=80
243005 On ch=1 n=d#6 v=80
243081 On ch=1 n=b6 v=0
243093 On ch=1 n=d#6 v=0
243241 On ch=1 n=d#7 v=71
243244 On ch=1 n=f#6 v=68
243400 On ch=1 n=f#6 v=0
243438 On ch=1 n=f#7 v=71
243438 On ch=1 n=b6 v=61
243464 On ch=1 n=d#7 v=0
243474 On ch=1 n=b6 v=0
243507 On ch=1 n=f#7 v=0
243554 On ch=1 n=a4 v=68
243583 On ch=1 n=d#5 v=72
243598 On ch=1 n=f#5 v=65
243703 On ch=1 n=b5 v=100
244031 On ch=1 n=b7 v=74
244031 On ch=1 n=d#7 v=71
244038 On ch=1 n=f#5 v=0
244038 On ch=1 n=f#7 v=72
244038 On ch=1 n=b6 v=70
244058 On ch=1 n=d#5 v=0
244074 On ch=1 n=b5 v=0
244090 On ch=1 n=a4 v=0
244154 On ch=1 n=f#7 v=0
244171 On ch=1 n=b6 v=0
244171 On ch=1 n=d#7 v=0
244171 On ch=1 n=b7 v=0
244242 On ch=1 n=b7 v=70
244242 On ch=1 n=d#7 v=71
244242 On ch=1 n=b6 v=70
244243 On ch=1 n=f#7 v=70
244243 On ch=1 n=a4 v=71
244294 On ch=1 n=d#5 v=77
244338 On ch=1 n=f#5 v=80
244346 On ch=1 n=a4 v=0
244346 On ch=1 n=b6 v=0
244367 On ch=1 n=b7 v=0
244378 On ch=1 n=f#7 v=0
244388 On ch=1 n=d#7 v=0
244419 On ch=1 n=c6 v=100
244591 On ch=1 n=c6 v=0
244595 On ch=1 n=f#5 v=0
244628 On ch=1 n=c7 v=91
244628 On ch=1 n=f#7 v=92
244635 On ch=1 n=d#7 v=92
244635 On ch=1 n=c8 v=94
244727 On ch=1 n=c7 v=0
244751 On ch=1 n=d#7 v=0
244760 On ch=1 n=f#7 v=0
244764 On ch=1 n=c8 v=0
244779 On ch=1 n=a4 v=53
244811 On ch=1 n=d#5 v=0
244821 On ch=1 n=c8 v=88
244832 On ch=1 n=c7 v=91
244836 On ch=1 n=f#7 v=88
244836 On ch=1 n=d#7 v=94
244852 On ch=1 n=d#5 v=62
244896 On ch=1 n=a4 v=0
244896 On ch=1 n=f#5 v=63
244941 On ch=1 n=c7 v=0
244948 On ch=1 n=c8 v=0
244988 On ch=1 n=f#7 v=0
244992 On ch=1 n=d#7 v=0
245112 On ch=1 n=c#6 v=110
245164 Par ch=1 c=64 v=0
245308 Par ch=1 c=64 v=127
245348 On ch=1 n=c#8 v=100
245348 On ch=1 n=d#7 v=85
245348 On ch=1 n=f#7 v=88
245348 On ch=1 n=c#7 v=100
245368 On ch=1 n=f#5 v=0
245384 On ch=1 n=c#6 v=0
245508 On ch=1 n=c#7 v=0
245515 On ch=1 n=f#7 v=0
245515 On ch=1 n=d#7 v=0
245525 On ch=1 n=c#8 v=0
245554 On ch=1 n=c#8 v=85
245554 On ch=1 n=d#7 v=84
245554 On ch=1 n=f#7 v=84
245554 On ch=1 n=c#7 v=89
245582 On ch=1 n=d#5 v=0
245582 On ch=1 n=a4 v=69
245617 On ch=1 n=d#5 v=68
245649 On ch=1 n=f#5 v=73
245705 On ch=1 n=d#7 v=0
245709 On ch=1 n=f#7 v=0
245709 On ch=1 n=c#8 v=0
245721 On ch=1 n=c#7 v=0
245754 On ch=1 n=b5 v=100
245945 On ch=1 n=d#7 v=74
245945 On ch=1 n=f#7 v=74
245949 On ch=1 n=b6 v=80
245954 On ch=1 n=b7 v=78
245958 On ch=1 n=b5 v=0
245988 On ch=1 n=a4 v=0
246013 On ch=1 n=f#5 v=0
246041 On ch=1 n=b6 v=0
246065 On ch=1 n=b7 v=0
246065 On ch=1 n=d#7 v=0
246068 On ch=1 n=f#7 v=0
246074 On ch=1 n=d#5 v=0
246129 On ch=1 n=a4 v=73
246141 On ch=1 n=b7 v=78
246152 On ch=1 n=b6 v=78
246152 On ch=1 n=d#7 v=75
246154 On ch=1 n=f#7 v=67
246165 On ch=1 n=d#5 v=77
246201 On ch=1 n=f#5 v=80
246229 On ch=1 n=b6 v=0
246229 On ch=1 n=b7 v=0
246285 On ch=1 n=d#7 v=0
246305 On ch=1 n=f#7 v=0
246345 On ch=1 n=a#5 v=98
246532 On ch=1 n=f#7 v=80
246538 On ch=1 n=d#7 v=80
246542 On ch=1 n=a#6 v=81
246553 On ch=1 n=a#7 v=78
246586 On ch=1 n=a#5 v=0
246661 On ch=1 n=a#6 v=0
246665 On ch=1 n=f#7 v=0
246675 On ch=1 n=a4 v=0
246679 On ch=1 n=d#7 v=0
246686 On ch=1 n=a#7 v=0
246710 On ch=1 n=f#5 v=0
246731 On ch=1 n=d#5 v=0
246731 On ch=1 n=a#7 v=70
246731 On ch=1 n=d#7 v=74
246742 On ch=1 n=a#6 v=77
246742 On ch=1 n=f#7 v=71
246765 On ch=1 n=a4 v=74
246805 On ch=1 n=d#5 v=77
246838 On ch=1 n=f#5 v=80
246902 On ch=1 n=a#6 v=0
246931 On ch=1 n=f#7 v=0
246946 On ch=1 n=d#7 v=0
246962 On ch=1 n=a5 v=98
247035 On ch=1 n=a#7 v=0
247162 On ch=1 n=f#7 v=70
247162 On ch=1 n=a6 v=75
247170 On ch=1 n=d#5 v=0
247170 On ch=1 n=d#7 v=71
247170 On ch=1 n=a7 v=72
247189 On ch=1 n=f#5 v=0
247259 On ch=1 n=a5 v=0
247270 On ch=1 n=a6 v=0
247278 On ch=1 n=f#7 v=0
247289 On ch=1 n=d#7 v=0
247295 On ch=1 n=a7 v=0
247386 On ch=1 n=f#7 v=70
247386 On ch=1 n=a7 v=67
247386 On ch=1 n=a6 v=61
247386 On ch=1 n=d#7 v=65
247405 On ch=1 n=a4 v=0
247409 On ch=1 n=a4 v=69
247455 On ch=1 n=b4 v=67
247470 On ch=1 n=f#7 v=0
247474 On ch=1 n=a7 v=0
247474 On ch=1 n=d#5 v=68
247482 On ch=1 n=d#7 v=0
247482 On ch=1 n=a6 v=0
247646 On ch=1 n=g#5 v=95
247750 Par ch=1 c=64 v=0
247879 On ch=1 n=b6 v=54
247879 On ch=1 n=d#7 v=57
247883 On ch=1 n=g#7 v=54
247886 On ch=1 n=g#6 v=51
247890 Par ch=1 c=64 v=127
247970 On ch=1 n=g#6 v=0
247989 On ch=1 n=d#5 v=0
247989 On ch=1 n=b4 v=0
248006 On ch=1 n=g#7 v=0
248015 On ch=1 n=d#7 v=0
248050 On ch=1 n=g#5 v=0
248059 On ch=1 n=b6 v=0
248095 On ch=1 n=a4 v=0
248110 On ch=1 n=g#7 v=61
248119 On ch=1 n=d#7 v=56
248126 On ch=1 n=g#6 v=57
248126 On ch=1 n=b6 v=57
248155 On ch=1 n=a4 v=55
248178 On ch=1 n=b4 v=65
248226 On ch=1 n=d#5 v=68
248242 On ch=1 n=d#7 v=0
248323 On ch=1 n=g#7 v=0
248326 On ch=1 n=b6 v=0
248326 On ch=1 n=g#6 v=0
248358 On ch=1 n=g5 v=91
248602 On ch=1 n=g7 v=47
248602 On ch=1 n=d#7 v=43
248605 On ch=1 n=b6 v=39
248611 On ch=1 n=g6 v=39
248679 On ch=1 n=g6 v=0
248702 On ch=1 n=b6 v=0
248702 On ch=1 n=d#7 v=0
248712 On ch=1 n=g7 v=0
248748 On ch=1 n=b4 v=0
248803 On ch=1 n=g5 v=0
248815 On ch=1 n=a4 v=0
248826 On ch=1 n=d#5 v=0
248847 On ch=1 n=g7 v=54
248847 On ch=1 n=g6 v=44
248847 On ch=1 n=d#7 v=42
248847 On ch=1 n=b6 v=48
248908 On ch=1 n=a4 v=52
248940 On ch=1 n=g7 v=0
248948 On ch=1 n=b4 v=55
248995 On ch=1 n=d#7 v=0
248999 On ch=1 n=d#5 v=56
249027 On ch=1 n=g6 v=0
249087 On ch=1 n=b6 v=0
249167 On ch=1 n=f5 v=85
249283 Par ch=1 c=64 v=0
249419 Par ch=1 c=64 v=127
249448 On ch=1 n=f6 v=45
249448 On ch=1 n=b6 v=49
249452 On ch=1 n=f7 v=43
249459 On ch=1 n=d#7 v=42
249559 On ch=1 n=a4 v=0
249566 On ch=1 n=b4 v=0
249576 On ch=1 n=d#5 v=0
249595 On ch=1 n=d#7 v=0
249612 On ch=1 n=f7 v=0
249646 On ch=1 n=b6 v=0
249646 On ch=1 n=f6 v=0
249720 On ch=1 n=f7 v=58
249720 On ch=1 n=b6 v=55
249728 On ch=1 n=f6 v=55
249728 On ch=1 n=d#7 v=56
249799 On ch=1 n=f5 v=0
249807 On ch=1 n=d#7 v=0
249807 On ch=1 n=f7 v=0
249823 On ch=1 n=a4 v=44
249839 On ch=1 n=f6 v=0
249883 On ch=1 n=b4 v=46
249906 On ch=1 n=d#5 v=48
249915 On ch=1 n=b6 v=0
250016 Par ch=1 c=67 v=127
250088 On ch=1 n=f#5 v=71
250179 Par ch=1 c=64 v=0
250407 Par ch=1 c=64 v=127
250419 On ch=1 n=f#6 v=41
250419 On ch=1 n=b6 v=39
250422 On ch=1 n=f#7 v=39
250431 On ch=1 n=d#7 v=38
250547 On ch=1 n=f#6 v=0
250563 On ch=1 n=b6 v=0
250573 On ch=1 n=f#7 v=0
250573 On ch=1 n=a4 v=0
250576 On ch=1 n=d#5 v=0
250586 On ch=1 n=b4 v=0
250600 On ch=1 n=d#7 v=0
250666 On ch=1 n=f#5 v=0
250681 On ch=1 n=f#7 v=49
250693 On ch=1 n=d#7 v=42
250693 On ch=1 n=f#6 v=47
250693 On ch=1 n=b6 v=39
250809 On ch=1 n=b6 v=0
250813 On ch=1 n=f#6 v=0
250822 On ch=1 n=d#7 v=0
250860 On ch=1 n=a4 v=34
250877 On ch=1 n=f#7 v=0
250889 On ch=1 n=b4 v=36
250933 On ch=1 n=d#5 v=37
251137 On ch=1 n=g5 v=62
251230 Par ch=1 c=64 v=0
251433 Par ch=1 c=64 v=127
251497 On ch=1 n=g5 v=0
251542 On ch=1 n=d#5 v=0
251589 On ch=1 n=b6 v=45
251589 On ch=1 n=d#7 v=42
251589 On ch=1 n=g7 v=46
251593 On ch=1 n=g6 v=45
251602 On ch=1 n=a4 v=0
251606 On ch=1 n=b4 v=0
251826 On ch=1 n=d#7 v=0
251826 On ch=1 n=b6 v=0
251830 On ch=1 n=g7 v=0
251837 On ch=1 n=g6 v=0
251950 On ch=1 n=b3 v=34
252137 On ch=1 n=g7 v=41
252137 On ch=1 n=b6 v=45
252141 On ch=1 n=g6 v=42
252150 On ch=1 n=d#7 v=46
252193 On ch=1 n=b3 v=0
252249 On ch=1 n=d#7 v=0
252260 On ch=1 n=g6 v=0
252260 On ch=1 n=g7 v=0
252265 On ch=1 n=b6 v=0
252422 Par ch=1 c=67 v=0
253026 Par ch=1 c=64 v=0
253042 On ch=1 n=g#4 v=80
253242 Par ch=1 c=64 v=127
253360 Par ch=1 c=67 v=127
253377 On ch=1 n=g#4 v=0
253525 On ch=1 n=e3 v=40
253537 On ch=1 n=b4 v=42
253537 On ch=1 n=g#5 v=49
253537 On ch=1 n=e5 v=40
253609 On ch=1 n=e5 v=0
253609 On ch=1 n=e3 v=0
253613 On ch=1 n=g#5 v=0
253623 On ch=1 n=b4 v=0
253834 On ch=1 n=b4 v=53
253837 On ch=1 n=b3 v=47
253837 On ch=1 n=g#5 v=49
253837 On ch=1 n=e5 v=40
253894 On ch=1 n=e5 v=0
253898 On ch=1 n=g#5 v=0
253999 On ch=1 n=b4 v=0
254054 On ch=1 n=b3 v=0
254074 On ch=1 n=b4 v=45
254074 On ch=1 n=g#5 v=59
254074 On ch=1 n=e5 v=24
254086 On ch=1 n=e4 v=31
254086 On ch=1 n=g#4 v=41
254122 On ch=1 n=e5 v=0
254130 On ch=1 n=b4 v=0
254137 On ch=1 n=g#4 v=0
254147 On ch=1 n=e4 v=0
254150 On ch=1 n=g#5 v=0
254354 On ch=1 n=g#6 v=59
254366 On ch=1 n=b4 v=53
254370 On ch=1 n=b5 v=38
254370 On ch=1 n=e6 v=42
254430 On ch=1 n=b5 v=0
254438 On ch=1 n=g#6 v=0
254446 On ch=1 n=e6 v=0
254479 On ch=1 n=b4 v=0
254598 On ch=1 n=e5 v=49
254610 On ch=1 n=e6 v=53
254610 On ch=1 n=g#6 v=56
254610 On ch=1 n=b5 v=35
254646 On ch=1 n=b5 v=0
254677 On ch=1 n=e6 v=0
254703 On ch=1 n=g#6 v=0
254718 On ch=1 n=e5 v=0
254819 Par ch=1 c=67 v=0
254823 On ch=1 n=b5 v=47
254823 On ch=1 n=g#6 v=63
254826 On ch=1 n=e6 v=44
254847 On ch=1 n=g#5 v=41
254854 On ch=1 n=b5 v=0
254863 On ch=1 n=e6 v=0
254874 On ch=1 n=g#6 v=0
254891 On ch=1 n=g#5 v=0
255077 On ch=1 n=g#7 v=63
255083 On ch=1 n=e7 v=55
255090 On ch=1 n=b5 v=51
255090 On ch=1 n=b6 v=50
255123 On ch=1 n=e7 v=0
255134 On ch=1 n=b6 v=0
255137 On ch=1 n=b5 v=0
255170 On ch=1 n=g#7 v=0
255307 On ch=1 n=g#7 v=67
255307 On ch=1 n=g#6 v=55
255307 On ch=1 n=b6 v=51
255310 On ch=1 n=e7 v=42
255320 On ch=1 n=e6 v=43
255347 On ch=1 n=e7 v=0
255347 On ch=1 n=b6 v=0
255347 On ch=1 n=g#6 v=0
255347 On ch=1 n=g#7 v=0
255363 On ch=1 n=e6 v=0
255671 On ch=1 n=b4 v=96
256111 On ch=1 n=e5 v=49
256111 On ch=1 n=b5 v=58
256111 On ch=1 n=g#5 v=48
256115 On ch=1 n=e3 v=44
256195 Par ch=1 c=64 v=0
256254 On ch=1 n=g#5 v=0
256268 On ch=1 n=e5 v=0
256287 On ch=1 n=e3 v=0
256287 On ch=1 n=b5 v=0
256303 Par ch=1 c=64 v=127
256363 On ch=1 n=b3 v=56
256395 On ch=1 n=e5 v=53
256395 On ch=1 n=b5 v=52
256395 On ch=1 n=g#5 v=55
256451 On ch=1 n=g#5 v=0
256455 On ch=1 n=b5 v=0
256471 On ch=1 n=e5 v=0
256576 On ch=1 n=b5 v=67
256579 On ch=1 n=g#5 v=67
256579 On ch=1 n=e5 v=67
256594 On ch=1 n=b3 v=0
256594 On ch=1 n=g#4 v=56
256604 On ch=1 n=e4 v=40
256647 On ch=1 n=e4 v=0
256651 On ch=1 n=g#5 v=0
256651 On ch=1 n=b5 v=0
256655 On ch=1 n=g#4 v=0
256655 On ch=1 n=e5 v=0
256667 On ch=1 n=b4 v=0
256811 On ch=1 n=b6 v=71
256816 On ch=1 n=e6 v=59
256823 On ch=1 n=b4 v=64
256827 On ch=1 n=g#6 v=49
256880 On ch=1 n=g#6 v=0
256891 On ch=1 n=b6 v=0
256899 On ch=1 n=e6 v=0
257015 On ch=1 n=e5 v=59
257023 On ch=1 n=b6 v=72
257023 On ch=1 n=e6 v=69
257035 On ch=1 n=g#6 v=57
257096 On ch=1 n=e6 v=0
257111 On ch=1 n=g#6 v=0
257111 On ch=1 n=b6 v=0
257127 On ch=1 n=e5 v=0
257207 On ch=1 n=g#5 v=63
257217 On ch=1 n=b6 v=72
257228 On ch=1 n=e6 v=59
257228 On ch=1 n=g#6 v=60
257232 On ch=1 n=b4 v=0
257252 On ch=1 n=e6 v=0
257252 On ch=1 n=b6 v=0
257264 On ch=1 n=g#6 v=0
257411 On ch=1 n=g#5 v=0
257428 On ch=1 n=b5 v=69
257440 On ch=1 n=b7 v=82
257440 On ch=1 n=e7 v=72
257460 On ch=1 n=g#7 v=67
257472 On ch=1 n=b5 v=0
257513 On ch=1 n=e7 v=0
257525 On ch=1 n=g#7 v=0
257537 On ch=1 n=b7 v=0
257652 On ch=1 n=g#6 v=61
257661 On ch=1 n=b7 v=74
257661 On ch=1 n=e7 v=64
257664 On ch=1 n=e6 v=52
257664 On ch=1 n=g#7 v=67
257691 On ch=1 n=b7 v=0
257701 On ch=1 n=e6 v=0
257701 On ch=1 n=g#6 v=0
257705 On ch=1 n=e7 v=0
257708 On ch=1 n=g#7 v=0
258008 On ch=1 n=d#5 v=102
258212 Par ch=1 c=64 v=0
258332 On ch=1 n=e3 v=39
258341 Par ch=1 c=64 v=127
258432 On ch=1 n=a5 v=53
258432 On ch=1 n=d#6 v=59
258432 On ch=1 n=f#5 v=55
258512 On ch=1 n=f#5 v=0
258524 On ch=1 n=e3 v=0
258551 On ch=1 n=a5 v=0
258557 On ch=1 n=d#6 v=0
258644 On ch=1 n=b3 v=56
258671 On ch=1 n=a5 v=51
258671 On ch=1 n=f#5 v=61
258673 On ch=1 n=d#6 v=57
258748 On ch=1 n=d#6 v=0
258748 On ch=1 n=b3 v=0
258768 On ch=1 n=a5 v=0
258778 On ch=1 n=f#5 v=0
258778 On ch=1 n=d#5 v=0
258861 On ch=1 n=d#6 v=74
258861 On ch=1 n=f#4 v=56
258861 On ch=1 n=f#5 v=74
258865 On ch=1 n=a5 v=74
258865 On ch=1 n=a4 v=52
258898 On ch=1 n=f#4 v=0
258917 On ch=1 n=d#6 v=0
258925 On ch=1 n=a5 v=0
258925 On ch=1 n=f#5 v=0
258930 On ch=1 n=a4 v=0
259070 On ch=1 n=f#6 v=79
259070 On ch=1 n=d#7 v=84
259074 On ch=1 n=a6 v=79
259094 On ch=1 n=b4 v=62
259150 On ch=1 n=a6 v=0
259150 On ch=1 n=f#6 v=0
259164 On ch=1 n=d#7 v=0
259270 On ch=1 n=f#6 v=84
259274 On ch=1 n=d#7 v=84
259274 On ch=1 n=a6 v=84
259281 On ch=1 n=f#5 v=64
259358 On ch=1 n=f#6 v=0
259370 On ch=1 n=a6 v=0
259370 On ch=1 n=d#7 v=0
259388 On ch=1 n=b4 v=0
259450 On ch=1 n=f#5 v=0
259465 On ch=1 n=a5 v=68
259465 On ch=1 n=d#7 v=88
259469 On ch=1 n=f#6 v=74
259469 On ch=1 n=a6 v=74
259497 On ch=1 n=a6 v=0
259497 On ch=1 n=f#6 v=0
259504 On ch=1 n=a5 v=0
259528 On ch=1 n=d#7 v=0
259689 On ch=1 n=b5 v=62
259713 On ch=1 n=d#8 v=91
259713 On ch=1 n=f#7 v=86
259713 On ch=1 n=a7 v=86
259774 On ch=1 n=a7 v=0
259774 On ch=1 n=f#7 v=0
259785 On ch=1 n=d#8 v=0
259790 On ch=1 n=b5 v=0
259954 On ch=1 n=a6 v=61
259954 On ch=1 n=f#6 v=63
259957 On ch=1 n=d#8 v=97
259961 On ch=1 n=f#7 v=88
259961 On ch=1 n=a7 v=88
259985 On ch=1 n=a6 v=0
259994 On ch=1 n=a7 v=0
259994 On ch=1 n=f#7 v=0
259994 On ch=1 n=f#6 v=0
260005 On ch=1 n=d#8 v=0
261368 On ch=1 n=d#5 v=80
261581 On ch=1 n=d#5 v=0
261909 On ch=1 n=d#5 v=91
262121 On ch=1 n=d#5 v=0
262328 On ch=1 n=d#5 v=100
263410 On ch=1 n=a4 v=83
263517 On ch=1 n=a4 v=0
263681 On ch=1 n=d#5 v=0
263741 On ch=1 n=c#5 v=98
263769 Par ch=1 c=64 v=0
263913 Par ch=1 c=64 v=127
263985 On ch=1 n=e3 v=44
264070 On ch=1 n=e3 v=0
264141 On ch=1 n=c#6 v=62
264145 On ch=1 n=e5 v=48
264145 On ch=1 n=g5 v=51
264188 On ch=1 n=c#5 v=0
264205 On ch=1 n=g5 v=0
264221 On ch=1 n=e5 v=0
264221 On ch=1 n=c#6 v=0
264369 On ch=1 n=a#3 v=51
264381 On ch=1 n=c#6 v=62
264388 On ch=1 n=e5 v=63
264388 On ch=1 n=g5 v=49
264441 On ch=1 n=e5 v=0
264445 On ch=1 n=g5 v=0
264465 On ch=1 n=c#6 v=0
264589 On ch=1 n=e5 v=47
264590 On ch=1 n=e4 v=45
264590 On ch=1 n=c#6 v=75
264590 On ch=1 n=g4 v=49
264605 On ch=1 n=g5 v=45
264608 On ch=1 n=a#3 v=0
264618 On ch=1 n=e5 v=0
264618 Par ch=1 c=67 v=127
264634 On ch=1 n=g4 v=0
264634 On ch=1 n=e4 v=0
264649 On ch=1 n=g5 v=0
264661 On ch=1 n=c#6 v=0
264805 On ch=1 n=a#4 v=64
264815 On ch=1 n=c#7 v=74
264826 On ch=1 n=e6 v=65
264826 On ch=1 n=g6 v=64
264875 On ch=1 n=g6 v=0
264878 On ch=1 n=e6 v=0
264899 On ch=1 n=c#7 v=0
264958 On ch=1 n=a#4 v=0
265026 On ch=1 n=c#7 v=70
265034 On ch=1 n=g6 v=66
265042 On ch=1 n=e6 v=67
265042 On ch=1 n=e5 v=56
265098 On ch=1 n=e6 v=0
265102 On ch=1 n=g6 v=0
265127 On ch=1 n=c#7 v=0
265167 Par ch=1 c=67 v=0
265199 On ch=1 n=e5 v=0
265227 On ch=1 n=g5 v=63
265235 On ch=1 n=e6 v=66
265238 On ch=1 n=c#7 v=74
265242 On ch=1 n=g6 v=59
265254 On ch=1 n=g5 v=0
265258 On ch=1 n=e6 v=0
265261 On ch=1 n=g6 v=0
265305 On ch=1 n=c#7 v=0
265465 On ch=1 n=a#5 v=58
265465 On ch=1 n=c#8 v=77
265474 On ch=1 n=g7 v=67
265474 On ch=1 n=e7 v=65
265562 On ch=1 n=g7 v=0
265598 On ch=1 n=e7 v=0
265598 On ch=1 n=a#5 v=0
265645 On ch=1 n=c#8 v=0
265706 On ch=1 n=g7 v=59
265706 On ch=1 n=c#8 v=64
265706 On ch=1 n=e7 v=60
265706 On ch=1 n=e6 v=58
265722 On ch=1 n=g6 v=58
265734 On ch=1 n=g7 v=0
265738 On ch=1 n=c#8 v=0
265745 On ch=1 n=e7 v=0
265747 On ch=1 n=g6 v=0
265747 On ch=1 n=e6 v=0
266075 On ch=1 n=c5 v=87
266167 On ch=1 n=c5 v=0
266274 On ch=1 n=b4 v=98
266378 Par ch=1 c=64 v=0
266518 Par ch=1 c=64 v=127
266566 On ch=1 n=e3 v=46
266587 On ch=1 n=e5 v=53
266598 On ch=1 n=g#5 v=52
266619 On ch=1 n=b5 v=52
266658 On ch=1 n=e3 v=0
266678 On ch=1 n=g#5 v=0
266688 On ch=1 n=b5 v=0
266704 On ch=1 n=e5 v=0
266735 Par ch=1 c=67 v=127
266835 On ch=1 n=b3 v=47
266835 On ch=1 n=e5 v=55
266835 On ch=1 n=b5 v=54
266835 On ch=1 n=g#5 v=52
266899 On ch=1 n=g#5 v=0
266899 On ch=1 n=b5 v=0
266899 On ch=1 n=e5 v=0
267018 On ch=1 n=b3 v=0
267022 On ch=1 n=e4 v=47
267032 On ch=1 n=b5 v=65
267036 On ch=1 n=b4 v=0
267041 On ch=1 n=g#4 v=55
267045 On ch=1 n=g#5 v=36
267056 On ch=1 n=e4 v=0
267068 On ch=1 n=e5 v=16
267079 On ch=1 n=g#4 v=0
267093 On ch=1 n=g#5 v=0
267093 On ch=1 n=b5 v=0
267148 On ch=1 n=e5 v=0
267249 Par ch=1 c=67 v=0
267253 On ch=1 n=e6 v=59
267261 On ch=1 n=b4 v=61
267265 On ch=1 n=b6 v=55
267265 On ch=1 n=g#6 v=47
267296 On ch=1 n=e6 v=0
267306 On ch=1 n=g#6 v=0
267337 On ch=1 n=b6 v=0
267389 On ch=1 n=b4 v=0
267458 On ch=1 n=e5 v=56
267470 On ch=1 n=b6 v=65
267477 On ch=1 n=g#6 v=57
267489 On ch=1 n=e6 v=59
267537 On ch=1 n=g#6 v=0
267545 On ch=1 n=e6 v=0
267553 On ch=1 n=b6 v=0
267629 On ch=1 n=e5 v=0
267677 On ch=1 n=g#6 v=57
267677 On ch=1 n=e6 v=52
267677 On ch=1 n=g#5 v=55
267678 On ch=1 n=b6 v=58
267705 On ch=1 n=e6 v=0
267705 On ch=1 n=g#6 v=0
267709 On ch=1 n=b6 v=0
267862 On ch=1 n=g#5 v=0
267897 On ch=1 n=b5 v=57
267901 On ch=1 n=b7 v=77
267916 On ch=1 n=e7 v=61
267926 On ch=1 n=b5 v=0
267926 On ch=1 n=g#7 v=46
267946 On ch=1 n=e7 v=0
267979 On ch=1 n=g#7 v=0
267979 On ch=1 n=b7 v=0
268146 On ch=1 n=b7 v=67
268154 On ch=1 n=e6 v=44
268159 On ch=1 n=g#6 v=54
268167 On ch=1 n=g#7 v=47
268167 On ch=1 n=e7 v=46
268198 On ch=1 n=b7 v=0
268215 On ch=1 n=e7 v=0
268215 On ch=1 n=g#7 v=0
268226 On ch=1 n=e6 v=0
268243 On ch=1 n=g#6 v=0
268789 On ch=1 n=g#4 v=98
268990 Par ch=1 c=64 v=0
269126 On ch=1 n=d#3 v=41
269130 Par ch=1 c=64 v=127
269174 On ch=1 n=f#5 v=57
269178 On ch=1 n=c5 v=53
269193 On ch=1 n=g#5 v=54
269263 On ch=1 n=g#4 v=0
269290 On ch=1 n=f#5 v=0
269300 On ch=1 n=g#5 v=0
269304 On ch=1 n=c5 v=0
269360 On ch=1 n=d#3 v=0
269400 On ch=1 n=g#3 v=51
269411 On ch=1 n=c5 v=47
269423 On ch=1 n=f#5 v=57
269423 On ch=1 n=g#5 v=57
269483 On ch=1 n=f#5 v=0
269493 On ch=1 n=c5 v=0
269508 On ch=1 n=g#5 v=0
269600 On ch=1 n=c4 v=47
269608 On ch=1 n=g#5 v=64
269624 On ch=1 n=g#3 v=0
269624 On ch=1 n=f#5 v=46
269634 On ch=1 n=f#4 v=54
269645 On ch=1 n=g#5 v=0
269645 On ch=1 n=c4 v=0
269670 On ch=1 n=f#4 v=0
269670 On ch=1 n=f#5 v=0
269826 On ch=1 n=g#4 v=69
269834 On ch=1 n=c6 v=71
269838 On ch=1 n=g#6 v=63
269861 On ch=1 n=f#6 v=39
269878 On ch=1 n=c6 v=0
269898 On ch=1 n=f#6 v=0
269921 On ch=1 n=g#6 v=0
270029 On ch=1 n=f#6 v=54
270037 On ch=1 n=g#6 v=77
270037 On ch=1 n=c6 v=62
270037 On ch=1 n=c5 v=65
270113 On ch=1 n=c6 v=0
270117 On ch=1 n=g#6 v=0
270125 On ch=1 n=f#6 v=0
270214 On ch=1 n=c5 v=0
270214 On ch=1 n=g#4 v=0
270225 On ch=1 n=f#5 v=64
270229 On ch=1 n=g#6 v=77
270244 On ch=1 n=c6 v=56
270244 On ch=1 n=f#6 v=66
270264 On ch=1 n=c6 v=0
270264 On ch=1 n=f#5 v=0
270270 On ch=1 n=f#6 v=0
270290 On ch=1 n=g#6 v=0
270437 On ch=1 n=g#5 v=61
270447 On ch=1 n=c7 v=78
270451 On ch=1 n=f#7 v=75
270458 On ch=1 n=g#7 v=72
270522 On ch=1 n=c7 v=0
270538 On ch=1 n=f#7 v=0
270541 On ch=1 n=g#7 v=0
270566 On ch=1 n=g#5 v=0
270654 On ch=1 n=c7 v=75
270654 On ch=1 n=g#7 v=78
270663 On ch=1 n=f#7 v=75
270663 On ch=1 n=c6 v=58
270663 On ch=1 n=f#6 v=59
270694 On ch=1 n=f#7 v=0
270694 On ch=1 n=g#7 v=0
270698 On ch=1 n=f#6 v=0
270710 On ch=1 n=c6 v=0
270717 On ch=1 n=c7 v=0
270981 On ch=1 n=a4 v=106
271203 Par ch=1 c=64 v=0
271302 On ch=1 n=c5 v=57
271307 On ch=1 n=f#5 v=57
271307 On ch=1 n=d3 v=53
271318 On ch=1 n=a5 v=61
271362 Par ch=1 c=64 v=127
271438 On ch=1 n=f#5 v=0
271447 On ch=1 n=a5 v=0
271455 On ch=1 n=d3 v=0
271486 On ch=1 n=c5 v=0
271518 On ch=1 n=a3 v=64
271534 On ch=1 n=c5 v=62
271534 On ch=1 n=f#5 v=62
271543 On ch=1 n=a5 v=56
271590 On ch=1 n=a5 v=0
271631 On ch=1 n=f#5 v=0
271631 On ch=1 n=c5 v=0
271711 On ch=1 n=a5 v=73
271711 On ch=1 n=f#5 v=73
271711 On ch=1 n=c5 v=73
271722 On ch=1 n=a4 v=0
271722 On ch=1 n=c4 v=57
271722 On ch=1 n=f#4 v=58
271723 On ch=1 n=a3 v=0
271742 On ch=1 n=a5 v=0
271750 On ch=1 n=c4 v=0
271750 On ch=1 n=c5 v=0
271750 On ch=1 n=f#5 v=0
271760 On ch=1 n=f#4 v=0
271907 On ch=1 n=a4 v=66
271914 On ch=1 n=a6 v=72
271914 On ch=1 n=c6 v=67
271935 On ch=1 n=f#6 v=53
271955 On ch=1 n=c6 v=0
271964 On ch=1 n=f#6 v=0
271994 On ch=1 n=a6 v=0
272024 On ch=1 n=a4 v=0
272098 On ch=1 n=c5 v=65
272108 On ch=1 n=a6 v=78
272111 On ch=1 n=f#6 v=62
272111 On ch=1 n=c6 v=73
272184 On ch=1 n=c6 v=0
272191 On ch=1 n=a6 v=0
272195 On ch=1 n=f#6 v=0
272259 On ch=1 n=c5 v=0
272288 On ch=1 n=f#5 v=65
272292 On ch=1 n=a6 v=75
272303 On ch=1 n=f#6 v=61
272311 On ch=1 n=c6 v=54
272318 On ch=1 n=f#5 v=0
272328 On ch=1 n=a6 v=0
272332 On ch=1 n=c6 v=0
272332 On ch=1 n=f#6 v=0
272481 On ch=1 n=a5 v=57
272512 On ch=1 n=a7 v=82
272524 On ch=1 n=c7 v=75
272528 On ch=1 n=f#7 v=74
272544 On ch=1 n=a5 v=0
272589 On ch=1 n=c7 v=0
272596 On ch=1 n=f#7 v=0
272604 On ch=1 n=a7 v=0
272715 On ch=1 n=f#7 v=70
272715 On ch=1 n=c7 v=68
272732 On ch=1 n=a7 v=71
272732 On ch=1 n=f#6 v=53
272761 On ch=1 n=a7 v=0
272761 On ch=1 n=c7 v=0
272765 On ch=1 n=f#6 v=0
272777 On ch=1 n=f#7 v=0
273032 On ch=1 n=a4 v=103
273121 On ch=1 n=a4 v=0
273208 On ch=1 n=a4 v=105
273275 Par ch=1 c=64 v=0
273432 Par ch=1 c=64 v=127
273442 On ch=1 n=c#3 v=57
273469 On ch=1 n=f#5 v=61
273469 On ch=1 n=a5 v=61
273469 On ch=1 n=c#5 v=55
273533 On ch=1 n=c#3 v=0
273534 On ch=1 n=c#5 v=0
273549 On ch=1 n=a5 v=0
273574 On ch=1 n=f#5 v=0
273654 On ch=1 n=a3 v=60
273665 On ch=1 n=f#5 v=61
273669 On ch=1 n=c#5 v=67
273674 On ch=1 n=a5 v=57
273709 On ch=1 n=a5 v=0
273725 On ch=1 n=f#5 v=0
273742 On ch=1 n=c#5 v=0
273846 On ch=1 n=a3 v=0
273849 On ch=1 n=a5 v=69
273849 On ch=1 n=c#4 v=50
273849 On ch=1 n=f#4 v=58
273849 On ch=1 n=f#5 v=45
273849 On ch=1 n=c#5 v=45
273877 On ch=1 n=a5 v=0
273885 On ch=1 n=c#4 v=0
273885 On ch=1 n=a4 v=0
273892 On ch=1 n=f#5 v=0
273894 On ch=1 n=c#5 v=0
273894 On ch=1 n=f#4 v=0
274042 On ch=1 n=a4 v=76
274058 On ch=1 n=c#6 v=79
274069 On ch=1 n=a6 v=64
274069 On ch=1 n=f#6 v=58
274098 On ch=1 n=f#6 v=0
274098 On ch=1 n=c#6 v=0
274113 On ch=1 n=a6 v=0
274132 On ch=1 n=a4 v=0
274234 On ch=1 n=c#5 v=66
274248 On ch=1 n=f#6 v=57
274248 On ch=1 n=a6 v=68
274252 On ch=1 n=c#6 v=72
274325 On ch=1 n=c#6 v=0
274325 On ch=1 n=a6 v=0
274325 On ch=1 n=f#6 v=0
274429 On ch=1 n=c#5 v=0
274432 On ch=1 n=a6 v=71
274442 On ch=1 n=f#5 v=62
274449 On ch=1 n=c#6 v=55
274458 On ch=1 n=f#6 v=53
274474 On ch=1 n=c#6 v=0
274474 On ch=1 n=f#5 v=0
274474 On ch=1 n=a6 v=0
274485 On ch=1 n=f#6 v=0
274632 On ch=1 n=a5 v=70
274638 On ch=1 n=a7 v=80
274652 On ch=1 n=f#7 v=68
274652 On ch=1 n=c#7 v=67
274685 On ch=1 n=c#7 v=0
274685 On ch=1 n=f#7 v=0
274695 On ch=1 n=a5 v=0
274710 On ch=1 n=a7 v=0
274838 On ch=1 n=a7 v=77
274842 On ch=1 n=f#7 v=67
274842 On ch=1 n=c#7 v=68
274845 On ch=1 n=f#6 v=68
274849 On ch=1 n=c#6 v=65
274851 On ch=1 n=f#7 v=0
274851 On ch=1 n=a7 v=0
274875 On ch=1 n=c#7 v=0
274890 On ch=1 n=f#6 v=0
274906 On ch=1 n=c#6 v=0
275155 On ch=1 n=a#4 v=107
275275 Par ch=1 c=64 v=0
275379 On ch=1 n=c3 v=59
275402 Par ch=1 c=64 v=127
275418 On ch=1 n=e5 v=66
275418 On ch=1 n=a#5 v=62
275418 On ch=1 n=g5 v=59
275429 On ch=1 n=c3 v=0
275514 On ch=1 n=g5 v=0
275546 On ch=1 n=a#5 v=0
275546 On ch=1 n=e5 v=0
275610 On ch=1 n=a#3 v=68
275630 On ch=1 n=e5 v=51
275631 On ch=1 n=g5 v=56
275631 On ch=1 n=a#5 v=51
275666 On ch=1 n=a#5 v=0
275722 On ch=1 n=g5 v=0
275742 On ch=1 n=e5 v=0
275791 On ch=1 n=a#5 v=78
275791 On ch=1 n=e5 v=78
275791 On ch=1 n=g5 v=78
275791 On ch=1 n=e4 v=57
275810 On ch=1 n=g4 v=60
275822 On ch=1 n=a#3 v=0
275838 On ch=1 n=e4 v=0
275838 On ch=1 n=a#4 v=0
275854 On ch=1 n=g5 v=0
275854 On ch=1 n=e5 v=0
275854 On ch=1 n=a#5 v=0
275869 On ch=1 n=g4 v=0
276022 On ch=1 n=a#6 v=79
276029 On ch=1 n=e6 v=76
276031 On ch=1 n=g6 v=73
276039 On ch=1 n=a#4 v=67
276062 On ch=1 n=g6 v=0
276062 On ch=1 n=e6 v=0
276111 On ch=1 n=a#6 v=0
276230 On ch=1 n=a#6 v=81
276230 On ch=1 n=g6 v=68
276231 On ch=1 n=e6 v=68
276255 On ch=1 n=e5 v=55
276306 On ch=1 n=g6 v=0
276310 On ch=1 n=e6 v=0
276322 On ch=1 n=a#6 v=0
276402 On ch=1 n=e5 v=0
276438 On ch=1 n=a#6 v=81
276446 On ch=1 n=g5 v=60
276446 On ch=1 n=g6 v=66
276446 On ch=1 n=e6 v=62
276451 On ch=1 n=a#4 v=0
276462 On ch=1 n=g6 v=0
276466 On ch=1 n=e6 v=0
276466 On ch=1 n=g5 v=0
276499 On ch=1 n=a#6 v=0
276682 On ch=1 n=g7 v=77
276682 On ch=1 n=a#7 v=82
276691 On ch=1 n=e7 v=74
276705 On ch=1 n=a#5 v=55
276770 On ch=1 n=g7 v=0
276803 On ch=1 n=a#7 v=0
276815 On ch=1 n=e7 v=0
276910 On ch=1 n=g6 v=68
276911 On ch=1 n=e6 v=67
276911 On ch=1 n=a#7 v=77
276915 On ch=1 n=e7 v=57
276926 On ch=1 n=g7 v=47
276949 On ch=1 n=g6 v=0
276959 On ch=1 n=e7 v=0
276963 On ch=1 n=g7 v=0
276975 On ch=1 n=e6 v=0
276978 On ch=1 n=a#7 v=0
276995 On ch=1 n=a#5 v=0
277262 On ch=1 n=e5 v=104
277343 On ch=1 n=e5 v=0
277542 On ch=1 n=g#5 v=120
277786 Par ch=1 c=64 v=0
277902 On ch=1 n=b5 v=60
277905 On ch=1 n=d#6 v=60
277909 On ch=1 n=g#6 v=67
277914 On ch=1 n=f#2 v=65
277918 On ch=1 n=f#3 v=68
277935 Par ch=1 c=64 v=127
277950 On ch=1 n=f#2 v=0
277979 On ch=1 n=f#3 v=0
278042 On ch=1 n=d#6 v=0
278106 On ch=1 n=b5 v=0
278118 On ch=1 n=g#6 v=0
278166 On ch=1 n=d#6 v=68
278166 On ch=1 n=g#6 v=51
278171 On ch=1 n=d#4 v=82
278171 On ch=1 n=b5 v=60
278290 On ch=1 n=d#6 v=0
278302 On ch=1 n=g#6 v=0
278309 On ch=1 n=b5 v=0
278378 On ch=1 n=g#6 v=70
278382 On ch=1 n=d#6 v=60
278391 On ch=1 n=b5 v=40
278391 On ch=1 n=b4 v=58
278391 On ch=1 n=d#5 v=69
278418 On ch=1 n=b4 v=0
278418 On ch=1 n=d#6 v=0
278418 On ch=1 n=d#4 v=0
278428 On ch=1 n=b5 v=0
278439 On ch=1 n=g#6 v=0
278459 On ch=1 n=d#5 v=0
278467 On ch=1 n=g#5 v=0
278579 On ch=1 n=d#5 v=79
278588 On ch=1 n=g#7 v=90
278588 On ch=1 n=g#6 v=84
278588 On ch=1 n=b6 v=80
278656 On ch=1 n=g#6 v=0
278659 On ch=1 n=b6 v=0
278668 On ch=1 n=g#7 v=0
278775 On ch=1 n=b6 v=78
278775 On ch=1 n=g#6 v=77
278775 On ch=1 n=g#7 v=80
278785 On ch=1 n=b5 v=68
278856 On ch=1 n=b6 v=0
278860 On ch=1 n=g#7 v=0
278860 On ch=1 n=g#6 v=0
278953 On ch=1 n=g#6 v=80
278953 On ch=1 n=d#6 v=72
278953 On ch=1 n=g#7 v=82
278964 On ch=1 n=b6 v=75
278965 On ch=1 n=b5 v=0
278965 On ch=1 n=d#5 v=0
278980 On ch=1 n=b6 v=0
278980 On ch=1 n=g#6 v=0
278990 On ch=1 n=d#6 v=0
279022 On ch=1 n=g#7 v=0
279154 On ch=1 n=g#8 v=100
279154 On ch=1 n=g#7 v=92
279157 On ch=1 n=d#6 v=74
279162 On ch=1 n=b7 v=84
279229 On ch=1 n=b7 v=0
279233 On ch=1 n=g#7 v=0
279256 On ch=1 n=g#8 v=0
279340 On ch=1 n=g#7 v=100
279350 On ch=1 n=g#8 v=100
279353 On ch=1 n=b6 v=74
279353 On ch=1 n=d#7 v=80
279362 On ch=1 n=b7 v=86
279373 On ch=1 n=b7 v=0
279380 On ch=1 n=d#6 v=0
279390 On ch=1 n=g#7 v=0
279413 On ch=1 n=d#7 v=0
279413 On ch=1 n=b6 v=0
279413 On ch=1 n=g#8 v=0
280326 On ch=1 n=g#5 v=105
280473 On ch=1 n=g#5 v=0
280720 On ch=1 n=f#5 v=110
280829 On ch=1 n=f#5 v=0
281041 On ch=1 n=f5 v=108
281113 Par ch=1 c=64 v=0
281193 Par ch=1 c=64 v=127
281360 On ch=1 n=f5 v=0
281377 On ch=1 n=e5 v=107
281517 On ch=1 n=e5 v=0
281933 On ch=1 n=d#5 v=105
282049 On ch=1 n=d#5 v=0
282129 On ch=1 n=d#5 v=107
282129 Par ch=1 c=64 v=0
282262 Par ch=1 c=64 v=127
282326 On ch=1 n=f#3 v=53
282397 On ch=1 n=f#5 v=76
282397 On ch=1 n=d#6 v=77
282402 On ch=1 n=a#5 v=75
282457 On ch=1 n=f#3 v=0
282457 On ch=1 n=d#5 v=0
282514 On ch=1 n=f#5 v=0
282525 On ch=1 n=a#5 v=0
282529 On ch=1 n=d#6 v=0
282602 On ch=1 n=e4 v=65
282606 On ch=1 n=a#5 v=75
282621 On ch=1 n=f#5 v=84
282621 On ch=1 n=d#6 v=72
282681 On ch=1 n=f#5 v=0
282697 On ch=1 n=d#6 v=0
282697 On ch=1 n=a#5 v=0
282770 On ch=1 n=f#4 v=63
282786 On ch=1 n=e4 v=0
282790 On ch=1 n=d#6 v=78
282790 On ch=1 n=a#4 v=62
282805 On ch=1 n=a#5 v=66
282805 On ch=1 n=f#5 v=53
282813 On ch=1 n=f#4 v=0
282833 On ch=1 n=a#4 v=0
282836 On ch=1 n=f#5 v=0
282836 On ch=1 n=a#5 v=0
282842 On ch=1 n=d#6 v=0
282977 On ch=1 n=f#6 v=92
282980 On ch=1 n=d#7 v=88
282997 On ch=1 n=e5 v=71
283033 On ch=1 n=f#6 v=0
283043 On ch=1 n=d#7 v=0
283134 On ch=1 n=e5 v=0
283143 On ch=1 n=f#5 v=72
283163 On ch=1 n=f#6 v=84
283163 On ch=1 n=d#7 v=80
283163 On ch=1 n=a#6 v=85
283217 On ch=1 n=f#6 v=0
283227 On ch=1 n=d#7 v=0
283235 On ch=1 n=a#6 v=0
283314 On ch=1 n=f#5 v=0
283324 On ch=1 n=a#5 v=73
283328 On ch=1 n=f#6 v=84
283328 On ch=1 n=d#7 v=88
283336 On ch=1 n=a#6 v=87
283347 On ch=1 n=f#6 v=0
283351 On ch=1 n=a#6 v=0
283351 On ch=1 n=a#5 v=0
283383 On ch=1 n=d#7 v=0
283521 On ch=1 n=d#8 v=94
283521 On ch=1 n=f#7 v=92
283528 On ch=1 n=e6 v=76
283564 On ch=1 n=f#7 v=0
283580 On ch=1 n=d#8 v=0
283668 On ch=1 n=e6 v=0
283728 On ch=1 n=d#8 v=103
283733 On ch=1 n=f#7 v=95
283733 On ch=1 n=f#6 v=74
283733 On ch=1 n=a#6 v=77
283736 On ch=1 n=a#7 v=80
283751 On ch=1 n=f#6 v=0
283751 On ch=1 n=f#7 v=0
283761 On ch=1 n=a#7 v=0
283761 On ch=1 n=a#6 v=0
283781 On ch=1 n=d#8 v=0
284801 On ch=1 n=g#4 v=96
285054 On ch=1 n=g#4 v=0
285169 On ch=1 n=a#4 v=99
285198 Par ch=1 c=64 v=0
285305 Par ch=1 c=64 v=127
285510 On ch=1 n=d#5 v=97
285581 On ch=1 n=a#4 v=0
285674 On ch=1 n=d#5 v=0
285985 On ch=1 n=d#5 v=105
286345 On ch=1 n=d#5 v=0
286690 On ch=1 n=c#5 v=105
286765 On ch=1 n=c#5 v=0
286870 On ch=1 n=c#5 v=105
286905 Par ch=1 c=64 v=0
287041 Par ch=1 c=64 v=127
287325 On ch=1 n=e5 v=74
287334 On ch=1 n=f#3 v=57
287345 On ch=1 n=c#5 v=0
287354 On ch=1 n=e5 v=0
287410 On ch=1 n=f#3 v=0
287421 On ch=1 n=e4 v=65
287513 On ch=1 n=a4 v=80
287641 On ch=1 n=a5 v=90
287649 On ch=1 n=c#5 v=80
287682 On ch=1 n=a4 v=0
287697 On ch=1 n=e4 v=0
287730 On ch=1 n=c#5 v=0
287822 On ch=1 n=a5 v=0
287910 On ch=1 n=c#6 v=101
288084 Par ch=1 c=64 v=0
288110 On ch=1 n=c#6 v=0
288145 On ch=1 n=b2 v=80
288161 On ch=1 n=e6 v=98
288217 Par ch=1 c=64 v=127
288285 On ch=1 n=b3 v=76
288309 On ch=1 n=e6 v=0
288317 On ch=1 n=b2 v=0
288361 On ch=1 n=b3 v=0
288401 On ch=1 n=d#5 v=83
288498 On ch=1 n=a5 v=78
288513 On ch=1 n=d#5 v=0
288549 On ch=1 n=b4 v=96
288570 On ch=1 n=a5 v=0
288809 On ch=1 n=g#6 v=108
289214 On ch=1 n=f#6 v=102
289289 On ch=1 n=g#6 v=0
289597 On ch=1 n=a5 v=90
289648 On ch=1 n=f#6 v=0
289690 On ch=1 n=a5 v=0
289885 On ch=1 n=b4 v=0
290150 On ch=1 n=g#4 v=108
290153 On ch=1 n=g#5 v=110
290301 Par ch=1 c=64 v=0
290468 Par ch=1 c=64 v=127
290605 On ch=1 n=e3 v=75
290614 On ch=1 n=e2 v=81
290618 On ch=1 n=e5 v=66
290618 On ch=1 n=b4 v=65
290681 On ch=1 n=b4 v=0
290685 On ch=1 n=e2 v=0
290702 On ch=1 n=e3 v=0
290725 On ch=1 n=e5 v=0
290937 On ch=1 n=e5 v=56
290937 On ch=1 n=b4 v=55
290945 On ch=1 n=b2 v=88
290950 On ch=1 n=b3 v=89
291005 On ch=1 n=b3 v=0
291010 On ch=1 n=b2 v=0
291010 On ch=1 n=b4 v=0
291078 On ch=1 n=e5 v=0
291194 On ch=1 n=e5 v=50
291194 On ch=1 n=b4 v=50
291194 On ch=1 n=e3 v=93
291194 On ch=1 n=e4 v=94
291230 On ch=1 n=e5 v=0
291234 On ch=1 n=b4 v=0
291249 On ch=1 n=e3 v=0
291254 On ch=1 n=e4 v=0
291284 On ch=1 n=g#4 v=0
291322 On ch=1 n=g#5 v=0
291453 On ch=1 n=g#6 v=86
291457 On ch=1 n=g#5 v=80
291457 On ch=1 n=e6 v=80
291457 On ch=1 n=b5 v=73
291461 On ch=1 n=e4 v=50
291461 On ch=1 n=e5 v=45
291470 On ch=1 n=b4 v=56
291470 On ch=1 n=g#4 v=55
291493 On ch=1 n=e5 v=0
291501 On ch=1 n=b4 v=0
291518 On ch=1 n=e4 v=0
291521 On ch=1 n=b5 v=0
291533 On ch=1 n=g#4 v=0
291548 On ch=1 n=e6 v=0
291548 On ch=1 n=g#5 v=0
291565 On ch=1 n=g#6 v=0
291670 On ch=1 n=b4 v=55
291670 On ch=1 n=e5 v=62
291670 On ch=1 n=g#6 v=78
291673 On ch=1 n=b5 v=71
291685 On ch=1 n=g#5 v=74
291685 On ch=1 n=e6 v=74
291685 On ch=1 n=g#4 v=64
291685 On ch=1 n=e4 v=56
291717 On ch=1 n=g#4 v=0
291738 On ch=1 n=e4 v=0
291761 On ch=1 n=e5 v=0
291761 On ch=1 n=b4 v=0
291768 On ch=1 n=e6 v=0
291768 On ch=1 n=g#5 v=0
291790 On ch=1 n=b5 v=0
291790 On ch=1 n=g#6 v=0
291882 On ch=1 n=e5 v=66
291882 On ch=1 n=g#4 v=48
291882 On ch=1 n=b4 v=57
291890 On ch=1 n=b5 v=69
291890 On ch=1 n=g#5 v=68
291890 On ch=1 n=g#6 v=75
291890 On ch=1 n=e6 v=75
291890 On ch=1 n=e4 v=66
291898 On ch=1 n=e5 v=0
291910 On ch=1 n=g#5 v=0
291910 On ch=1 n=b5 v=0
291910 On ch=1 n=b4 v=0
291925 On ch=1 n=g#4 v=0
291962 On ch=1 n=e6 v=0
291962 On ch=1 n=g#6 v=0
291965 On ch=1 n=e4 v=0
292130 On ch=1 n=g#7 v=90
292130 On ch=1 n=g#6 v=84
292130 On ch=1 n=b6 v=78
292133 On ch=1 n=e7 v=78
292145 On ch=1 n=b5 v=47
292145 On ch=1 n=e6 v=55
292145 On ch=1 n=g#5 v=50
292145 On ch=1 n=e5 v=50
292181 On ch=1 n=e5 v=0
292181 On ch=1 n=g#5 v=0
292190 On ch=1 n=e6 v=0
292205 On ch=1 n=g#6 v=0
292225 On ch=1 n=e7 v=0
292225 On ch=1 n=b6 v=0
292250 On ch=1 n=b5 v=0
292269 On ch=1 n=g#7 v=0
292345 On ch=1 n=e6 v=54
292345 On ch=1 n=e5 v=45
292354 On ch=1 n=b5 v=47
292354 On ch=1 n=b6 v=68
292358 On ch=1 n=g#6 v=72
292358 On ch=1 n=g#7 v=71
292358 On ch=1 n=e7 v=71
292358 On ch=1 n=g#5 v=46
292370 On ch=1 n=e6 v=0
292385 On ch=1 n=g#7 v=0
292394 On ch=1 n=e7 v=0
292394 On ch=1 n=b6 v=0
292397 On ch=1 n=g#5 v=0
292405 On ch=1 n=e5 v=0
292421 On ch=1 n=g#6 v=0
292421 On ch=1 n=b5 v=0
292661 On ch=1 n=b4 v=108
292661 On ch=1 n=b5 v=109
292801 Par ch=1 c=64 v=0
292957 Par ch=1 c=64 v=127
292977 On ch=1 n=e5 v=54
292977 On ch=1 n=g#5 v=60
292981 On ch=1 n=e2 v=76
292981 On ch=1 n=e3 v=72
293038 On ch=1 n=e3 v=0
293045 On ch=1 n=e2 v=0
293068 On ch=1 n=g#5 v=0
293145 On ch=1 n=e5 v=0
293214 On ch=1 n=b3 v=91
293218 On ch=1 n=b2 v=88
293225 On ch=1 n=e5 v=55
293225 On ch=1 n=g#5 v=59
293257 On ch=1 n=b3 v=0
293268 On ch=1 n=b2 v=0
293321 On ch=1 n=g#5 v=0
293341 On ch=1 n=e5 v=0
293434 On ch=1 n=g#3 v=88
293434 On ch=1 n=g#4 v=96
293445 On ch=1 n=g#5 v=71
293445 On ch=1 n=e5 v=71
293481 On ch=1 n=g#3 v=0
293484 On ch=1 n=g#5 v=0
293484 On ch=1 n=g#4 v=0
293490 On ch=1 n=e5 v=0
293522 On ch=1 n=b4 v=0
293549 On ch=1 n=b5 v=0
293710 On ch=1 n=b5 v=78
293710 On ch=1 n=e6 v=73
293710 On ch=1 n=b6 v=74
293721 On ch=1 n=g#6 v=68
293721 On ch=1 n=g#5 v=46
293721 On ch=1 n=e5 v=41
293721 On ch=1 n=b4 v=46
293721 On ch=1 n=g#4 v=46
293757 On ch=1 n=b4 v=0
293757 On ch=1 n=e5 v=0
293757 On ch=1 n=g#5 v=0
293765 On ch=1 n=g#4 v=0
293801 On ch=1 n=g#6 v=0
293801 On ch=1 n=b6 v=0
293801 On ch=1 n=e6 v=0
293801 On ch=1 n=b5 v=0
293921 On ch=1 n=g#6 v=77
293921 On ch=1 n=e5 v=54
293924 On ch=1 n=e6 v=77
293924 On ch=1 n=b5 v=76
293930 On ch=1 n=b4 v=52
293930 On ch=1 n=b6 v=71
293930 On ch=1 n=g#5 v=48
293930 On ch=1 n=g#4 v=55
293961 On ch=1 n=g#5 v=0
293977 On ch=1 n=g#4 v=0
293981 On ch=1 n=e5 v=0
293989 On ch=1 n=e6 v=0
293993 On ch=1 n=b4 v=0
293997 On ch=1 n=b5 v=0
294007 On ch=1 n=b6 v=0
294022 On ch=1 n=g#6 v=0
294102 On ch=1 n=g#5 v=58
294106 On ch=1 n=e5 v=28
294115 On ch=1 n=b5 v=75
294118 On ch=1 n=b6 v=74
294118 On ch=1 n=e6 v=65
294118 On ch=1 n=g#6 v=71
294118 On ch=1 n=b4 v=71
294118 On ch=1 n=g#4 v=71
294130 On ch=1 n=e6 v=0
294130 On ch=1 n=b5 v=0
294130 On ch=1 n=g#5 v=0
294134 On ch=1 n=e5 v=0
294166 On ch=1 n=g#4 v=0
294166 On ch=1 n=b4 v=0
294166 On ch=1 n=g#6 v=0
294171 On ch=1 n=b6 v=0
294338 On ch=1 n=e6 v=59
294338 On ch=1 n=b7 v=90
294338 On ch=1 n=e7 v=82
294347 On ch=1 n=b6 v=78
294347 On ch=1 n=g#7 v=71
294347 On ch=1 n=g#6 v=57
294347 On ch=1 n=g#5 v=59
294347 On ch=1 n=b5 v=40
294378 On ch=1 n=b5 v=0
294378 On ch=1 n=b6 v=0
294378 On ch=1 n=e7 v=0
294406 On ch=1 n=g#5 v=0
294414 On ch=1 n=g#6 v=0
294425 On ch=1 n=g#7 v=0
294458 On ch=1 n=e6 v=0
294475 On ch=1 n=b7 v=0
294547 On ch=1 n=e6 v=58
294547 On ch=1 n=g#6 v=54
294551 On ch=1 n=g#5 v=55
294551 On ch=1 n=e7 v=55
294551 On ch=1 n=g#7 v=72
294551 On ch=1 n=b6 v=72
294555 On ch=1 n=b7 v=66
294555 On ch=1 n=b5 v=37
294571 On ch=1 n=b7 v=0
294571 On ch=1 n=g#6 v=0
294591 On ch=1 n=b5 v=0
294591 On ch=1 n=e6 v=0
294606 On ch=1 n=b6 v=0
294614 On ch=1 n=g#5 v=0
294618 On ch=1 n=e7 v=0
294625 On ch=1 n=g#7 v=0
294891 On ch=1 n=d#5 v=107
294898 On ch=1 n=d#6 v=109
295162 Par ch=1 c=64 v=0
295198 On ch=1 n=a5 v=69
295202 On ch=1 n=f#5 v=64
295206 On ch=1 n=e2 v=81
295206 On ch=1 n=e3 v=75
295282 On ch=1 n=e3 v=0
295282 On ch=1 n=e2 v=0
295355 Par ch=1 c=64 v=127
295366 On ch=1 n=f#5 v=0
295366 On ch=1 n=a5 v=0
295458 On ch=1 n=b3 v=93
295458 On ch=1 n=b2 v=90
295462 On ch=1 n=a5 v=58
295466 On ch=1 n=f#5 v=55
295502 On ch=1 n=b3 v=0
295522 On ch=1 n=b2 v=0
295554 On ch=1 n=a5 v=0
295606 On ch=1 n=f#5 v=0
295682 On ch=1 n=b4 v=98
295687 On ch=1 n=b3 v=87
295687 On ch=1 n=a5 v=52
295690 On ch=1 n=f#5 v=55
295718 On ch=1 n=a5 v=0
295718 On ch=1 n=b4 v=0
295734 On ch=1 n=b3 v=0
295766 On ch=1 n=d#5 v=0
295778 On ch=1 n=f#5 v=0
295795 On ch=1 n=d#6 v=0
295914 On ch=1 n=d#7 v=88
295914 On ch=1 n=d#6 v=84
295922 On ch=1 n=a6 v=84
295925 On ch=1 n=f#6 v=76
295925 On ch=1 n=b5 v=76
295925 On ch=1 n=f#5 v=76
295925 On ch=1 n=d#5 v=76
295925 On ch=1 n=b4 v=76
295942 On ch=1 n=d#5 v=0
295942 On ch=1 n=f#5 v=0
295942 On ch=1 n=b5 v=0
295942 On ch=1 n=f#6 v=0
295946 On ch=1 n=b4 v=0
295975 On ch=1 n=a6 v=0
295975 On ch=1 n=d#6 v=0
295991 On ch=1 n=d#7 v=0
296114 On ch=1 n=d#7 v=88
296114 On ch=1 n=d#6 v=82
296118 On ch=1 n=f#6 v=86
296118 On ch=1 n=b5 v=78
296127 On ch=1 n=a6 v=86
296127 On ch=1 n=b4 v=72
296127 On ch=1 n=d#5 v=71
296127 On ch=1 n=f#5 v=72
296161 On ch=1 n=b4 v=0
296178 On ch=1 n=b5 v=0
296178 On ch=1 n=f#6 v=0
296182 On ch=1 n=a6 v=0
296187 On ch=1 n=f#5 v=0
296187 On ch=1 n=d#5 v=0
296187 On ch=1 n=d#6 v=0
296210 On ch=1 n=d#7 v=0
296305 On ch=1 n=b5 v=83
296305 On ch=1 n=d#6 v=84
296305 On ch=1 n=f#5 v=80
296307 On ch=1 n=f#6 v=80
296307 On ch=1 n=d#7 v=86
296307 On ch=1 n=d#5 v=74
296307 On ch=1 n=a6 v=80
296307 On ch=1 n=b4 v=55
296325 On ch=1 n=b4 v=0
296325 On ch=1 n=a6 v=0
296325 On ch=1 n=f#6 v=0
296331 On ch=1 n=d#5 v=0
296331 On ch=1 n=d#6 v=0
296346 On ch=1 n=f#5 v=0
296346 On ch=1 n=b5 v=0
296370 On ch=1 n=d#7 v=0
296527 On ch=1 n=d#8 v=97
296527 On ch=1 n=d#7 v=92
296531 On ch=1 n=f#7 v=82
296546 On ch=1 n=f#6 v=68
296546 On ch=1 n=a7 v=68
296546 On ch=1 n=d#6 v=70
296546 On ch=1 n=b5 v=65
296546 On ch=1 n=b6 v=68
296565 On ch=1 n=f#7 v=0
296575 On ch=1 n=b6 v=0
296575 On ch=1 n=f#6 v=0
296582 On ch=1 n=a7 v=0
296586 On ch=1 n=b5 v=0
296586 On ch=1 n=d#6 v=0
296598 On ch=1 n=d#7 v=0
296638 On ch=1 n=d#8 v=0
296738 On ch=1 n=b5 v=75
296742 On ch=1 n=f#6 v=76
296747 On ch=1 n=d#8 v=97
296747 On ch=1 n=d#7 v=98
296747 On ch=1 n=a7 v=97
296747 On ch=1 n=b6 v=77
296747 On ch=1 n=d#6 v=71
296747 On ch=1 n=f#7 v=90
296811 On ch=1 n=b6 v=0
296818 On ch=1 n=d#7 v=0
296825 On ch=1 n=f#7 v=0
296827 On ch=1 n=a7 v=0
296827 On ch=1 n=d#8 v=0
296831 On ch=1 n=d#6 v=0
296854 On ch=1 n=f#6 v=0
296854 On ch=1 n=b5 v=0
297482 Par ch=1 c=64 v=0
297498 On ch=1 n=g#5 v=98
297498 On ch=1 n=g#6 v=105
297606 Par ch=1 c=64 v=127
297802 On ch=1 n=g#6 v=0
297822 On ch=1 n=g#5 v=0
297958 On ch=1 n=f#5 v=103
297962 On ch=1 n=f#6 v=115
298138 On ch=1 n=f#6 v=0
298148 On ch=1 n=f#5 v=0
298331 On ch=1 n=c#6 v=101
298331 On ch=1 n=c#5 v=102
298341 Par ch=1 c=64 v=0
298412 Par ch=1 c=64 v=127
298569 On ch=1 n=c#5 v=0
298608 On ch=1 n=c#6 v=0
298700 On ch=1 n=d#6 v=102
298700 On ch=1 n=d#5 v=97
298861 On ch=1 n=d#5 v=0
298861 On ch=1 n=d#6 v=0
299355 On ch=1 n=a4 v=100
299355 On ch=1 n=a5 v=103
299416 On ch=1 n=a4 v=0
299441 On ch=1 n=a5 v=0
299596 On ch=1 n=c#5 v=108
299600 On ch=1 n=c#6 v=110
299719 Par ch=1 c=64 v=0
299852 Par ch=1 c=64 v=127
299908 On ch=1 n=e2 v=81
299908 On ch=1 n=e3 v=78
299912 On ch=1 n=e5 v=52
299912 On ch=1 n=g5 v=56
299953 On ch=1 n=e2 v=0
299961 On ch=1 n=e3 v=0
299968 On ch=1 n=e5 v=0
300008 On ch=1 n=g5 v=0
300145 On ch=1 n=a#2 v=84
300149 On ch=1 n=e5 v=45
300149 On ch=1 n=a#3 v=85
300156 On ch=1 n=g5 v=58
300200 On ch=1 n=a#2 v=0
300208 On ch=1 n=a#3 v=0
300212 On ch=1 n=e5 v=0
300239 On ch=1 n=g5 v=0
300376 On ch=1 n=e4 v=97
300381 On ch=1 n=e3 v=93
300381 On ch=1 n=g5 v=66
300388 On ch=1 n=e5 v=66
300416 On ch=1 n=e5 v=0
300416 On ch=1 n=g5 v=0
300432 On ch=1 n=e4 v=0
300440 On ch=1 n=e3 v=0
300492 On ch=1 n=c#5 v=0
300512 On ch=1 n=c#6 v=0
300641 On ch=1 n=c#7 v=88
300645 On ch=1 n=c#6 v=89
300645 On ch=1 n=e6 v=79
300645 On ch=1 n=g6 v=79
300645 On ch=1 n=a#4 v=79
300648 On ch=1 n=e5 v=79
300648 On ch=1 n=g5 v=79
300648 On ch=1 n=a#5 v=79
300712 On ch=1 n=e6 v=0
300716 On ch=1 n=a#4 v=0
300716 On ch=1 n=g6 v=0
300719 On ch=1 n=a#5 v=0
300719 On ch=1 n=g5 v=0
300719 On ch=1 n=e5 v=0
300725 On ch=1 n=c#6 v=0
300740 On ch=1 n=c#7 v=0
300836 On ch=1 n=g5 v=56
300839 On ch=1 n=a#4 v=65
300849 On ch=1 n=e5 v=63
300849 On ch=1 n=a#5 v=72
300849 On ch=1 n=e6 v=86
300849 On ch=1 n=c#7 v=84
300853 On ch=1 n=c#6 v=87
300860 On ch=1 n=g6 v=87
300896 On ch=1 n=a#5 v=0
300925 On ch=1 n=a#4 v=0
300925 On ch=1 n=g5 v=0
300948 On ch=1 n=g6 v=0
300948 On ch=1 n=c#6 v=0
300956 On ch=1 n=c#7 v=0
300956 On ch=1 n=e6 v=0
300956 On ch=1 n=e5 v=0
301039 On ch=1 n=a#5 v=62
301041 On ch=1 n=e5 v=47
301048 On ch=1 n=c#6 v=85
301048 On ch=1 n=e6 v=80
301052 On ch=1 n=g5 v=40
301052 On ch=1 n=c#7 v=84
301052 On ch=1 n=g6 v=84
301052 On ch=1 n=a#4 v=62
301061 On ch=1 n=c#6 v=0
301061 On ch=1 n=e5 v=0
301069 On ch=1 n=e6 v=0
301069 On ch=1 n=a#5 v=0
301092 On ch=1 n=g5 v=0
301120 On ch=1 n=c#7 v=0
301125 On ch=1 n=g6 v=0
301128 On ch=1 n=a#4 v=0
301281 On ch=1 n=c#8 v=97
301281 On ch=1 n=c#7 v=86
301281 On ch=1 n=e7 v=80
301281 On ch=1 n=g7 v=80
301281 On ch=1 n=a#6 v=59
301285 On ch=1 n=a#5 v=52
301285 On ch=1 n=g6 v=54
301285 On ch=1 n=e6 v=55
301339 On ch=1 n=e6 v=0
301339 On ch=1 n=a#5 v=0
301341 On ch=1 n=a#6 v=0
301369 On ch=1 n=g7 v=0
301369 On ch=1 n=e7 v=0
301369 On ch=1 n=c#7 v=0
301373 On ch=1 n=g6 v=0
301393 On ch=1 n=c#8 v=0
301489 On ch=1 n=e6 v=62
301489 On ch=1 n=g6 v=54
301492 On ch=1 n=e7 v=75
301500 On ch=1 n=a#6 v=63
301500 On ch=1 n=a#5 v=58
301500 On ch=1 n=c#8 v=87
301500 On ch=1 n=c#7 v=82
301500 On ch=1 n=g7 v=82
301520 On ch=1 n=a#6 v=0
301552 On ch=1 n=g6 v=0
301559 On ch=1 n=a#5 v=0
301559 On ch=1 n=e7 v=0
301561 On ch=1 n=g7 v=0
301561 On ch=1 n=c#7 v=0
301561 On ch=1 n=c#8 v=0
301565 On ch=1 n=e6 v=0
301919 On ch=1 n=c6 v=104
301919 On ch=1 n=c5 v=97
301996 On ch=1 n=c5 v=0
302000 On ch=1 n=c6 v=0
302121 On ch=1 n=b4 v=103
302121 On ch=1 n=b5 v=105
302328 Par ch=1 c=64 v=0
302460 Par ch=1 c=64 v=127
302460 On ch=1 n=e2 v=67
302472 On ch=1 n=e5 v=55
302472 On ch=1 n=g#5 v=53
302472 On ch=1 n=e3 v=56
302496 On ch=1 n=e2 v=0
302519 On ch=1 n=e3 v=0
302529 On ch=1 n=e5 v=0
302562 On ch=1 n=g#5 v=0
302713 On ch=1 n=b3 v=87
302713 On ch=1 n=b2 v=86
302722 On ch=1 n=g#5 v=47
302729 On ch=1 n=e5 v=47
302773 On ch=1 n=b2 v=0
302773 On ch=1 n=b3 v=0
302816 On ch=1 n=e5 v=0
302816 On ch=1 n=g#5 v=0
302954 On ch=1 n=e4 v=91
302954 On ch=1 n=e3 v=93
302954 On ch=1 n=e5 v=55
302955 On ch=1 n=g#5 v=67
302990 On ch=1 n=g#5 v=0
302993 On ch=1 n=e4 v=0
302999 On ch=1 n=e5 v=0
303010 On ch=1 n=e3 v=0
303054 On ch=1 n=b4 v=0
303086 On ch=1 n=b5 v=0
303219 On ch=1 n=b5 v=78
303223 On ch=1 n=e6 v=76
303223 On ch=1 n=g#6 v=74
303227 On ch=1 n=b6 v=58
303235 On ch=1 n=g#4 v=59
303235 On ch=1 n=b4 v=59
303235 On ch=1 n=e5 v=59
303235 On ch=1 n=g#5 v=59
303290 On ch=1 n=e6 v=0
303295 On ch=1 n=g#6 v=0
303295 On ch=1 n=b5 v=0
303310 On ch=1 n=e5 v=0
303310 On ch=1 n=b4 v=0
303310 On ch=1 n=g#4 v=0
303310 On ch=1 n=b6 v=0
303314 On ch=1 n=g#5 v=0
303423 On ch=1 n=e5 v=40
303426 On ch=1 n=e6 v=79
303435 On ch=1 n=b5 v=75
303435 On ch=1 n=b6 v=71
303439 On ch=1 n=g#6 v=74
303450 On ch=1 n=b4 v=57
303450 On ch=1 n=g#5 v=55
303450 On ch=1 n=g#4 v=55
303482 On ch=1 n=g#4 v=0
303493 On ch=1 n=g#5 v=0
303503 On ch=1 n=b4 v=0
303520 On ch=1 n=e6 v=0
303532 On ch=1 n=g#6 v=0
303532 On ch=1 n=b5 v=0
303535 On ch=1 n=e5 v=0
303546 On ch=1 n=b6 v=0
303612 On ch=1 n=g#4 v=43
303615 On ch=1 n=e5 v=34
303615 On ch=1 n=g#5 v=51
303632 On ch=1 n=g#6 v=71
303632 On ch=1 n=b6 v=68
303632 On ch=1 n=b5 v=68
303632 On ch=1 n=e6 v=65
303632 On ch=1 n=b4 v=60
303636 On ch=1 n=e6 v=0
303651 On ch=1 n=g#4 v=0
303655 On ch=1 n=b5 v=0
303655 On ch=1 n=e5 v=0
303667 On ch=1 n=g#5 v=0
303691 On ch=1 n=g#6 v=0
303696 On ch=1 n=b4 v=0
303696 On ch=1 n=b6 v=0
303879 On ch=1 n=b7 v=82
303879 On ch=1 n=b6 v=78
303883 On ch=1 n=e7 v=72
303883 On ch=1 n=g#7 v=71
303883 On ch=1 n=e6 v=66
303883 On ch=1 n=g#5 v=47
303883 On ch=1 n=g#6 v=42
303887 On ch=1 n=b5 v=42
303923 On ch=1 n=b5 v=0
303923 On ch=1 n=g#6 v=0
303923 On ch=1 n=g#5 v=0
303963 On ch=1 n=b6 v=0
303966 On ch=1 n=e7 v=0
303976 On ch=1 n=g#7 v=0
303983 On ch=1 n=e6 v=0
304007 On ch=1 n=b7 v=0
304092 On ch=1 n=g#5 v=49
304099 On ch=1 n=e6 v=50
304107 On ch=1 n=g#6 v=52
304107 On ch=1 n=b7 v=82
304107 On ch=1 n=e7 v=66
304107 On ch=1 n=b6 v=68
304107 On ch=1 n=g#7 v=70
304107 On ch=1 n=b5 v=49
304147 On ch=1 n=g#6 v=0
304151 On ch=1 n=b5 v=0
304163 On ch=1 n=b7 v=0
304170 On ch=1 n=b6 v=0
304184 On ch=1 n=g#7 v=0
304184 On ch=1 n=e7 v=0
304184 On ch=1 n=e6 v=0
304192 On ch=1 n=g#5 v=0
304727 On ch=1 n=g#4 v=100
304731 On ch=1 n=g#5 v=105
304779 Par ch=1 c=64 v=0
304992 Par ch=1 c=64 v=127
305107 On ch=1 n=d#3 v=58
305111 On ch=1 n=d#2 v=56
305111 On ch=1 n=c5 v=47
305111 On ch=1 n=f#5 v=52
305164 On ch=1 n=d#2 v=0
305171 On ch=1 n=d#3 v=0
305240 On ch=1 n=f#5 v=0
305327 On ch=1 n=c5 v=0
305376 On ch=1 n=g#3 v=77
305380 On ch=1 n=g#2 v=73
305380 On ch=1 n=c5 v=52
305380 On ch=1 n=f#5 v=59
305419 On ch=1 n=g#3 v=0
305423 On ch=1 n=g#2 v=0
305496 On ch=1 n=f#5 v=0
305496 On ch=1 n=c5 v=0
305604 On ch=1 n=d#4 v=84
305611 On ch=1 n=d#3 v=71
305611 On ch=1 n=f#5 v=51
305611 On ch=1 n=c5 v=51
305643 On ch=1 n=d#4 v=0
305646 On ch=1 n=d#3 v=0
305663 On ch=1 n=f#5 v=0
305667 On ch=1 n=c5 v=0
305699 On ch=1 n=g#4 v=0
305750 On ch=1 n=g#5 v=0
305863 On ch=1 n=g#5 v=71
305863 On ch=1 n=g#6 v=71
305870 On ch=1 n=c6 v=65
305870 On ch=1 n=f#5 v=66
305870 On ch=1 n=f#6 v=62
305870 On ch=1 n=c5 v=66
305876 On ch=1 n=g#4 v=66
305911 On ch=1 n=f#5 v=0
305943 On ch=1 n=g#4 v=0
305943 On ch=1 n=c5 v=0
305955 On ch=1 n=g#5 v=0
305980 On ch=1 n=f#6 v=0
305980 On ch=1 n=c6 v=0
305980 On ch=1 n=g#6 v=0
306071 On ch=1 n=c5 v=65
306071 On ch=1 n=f#5 v=72
306071 On ch=1 n=g#5 v=78
306071 On ch=1 n=g#6 v=77
306072 On ch=1 n=g#4 v=70
306072 On ch=1 n=c6 v=76
306072 On ch=1 n=f#6 v=70
306136 On ch=1 n=g#4 v=0
306143 On ch=1 n=f#5 v=0
306147 On ch=1 n=f#6 v=0
306159 On ch=1 n=g#5 v=0
306176 On ch=1 n=g#6 v=0
306176 On ch=1 n=c5 v=0
306180 On ch=1 n=c6 v=0
306267 On ch=1 n=g#4 v=62
306276 On ch=1 n=f#5 v=72
306276 On ch=1 n=c5 v=55
306276 On ch=1 n=g#6 v=72
306279 On ch=1 n=g#5 v=66
306287 On ch=1 n=f#6 v=70
306287 On ch=1 n=c6 v=56
306296 On ch=1 n=g#5 v=0
306310 On ch=1 n=c6 v=0
306310 On ch=1 n=c5 v=0
306310 On ch=1 n=g#4 v=0
306331 On ch=1 n=f#5 v=0
306339 On ch=1 n=f#6 v=0
306349 On ch=1 n=g#6 v=0
306493 On ch=1 n=c7 v=79
306501 On ch=1 n=c6 v=59
306501 On ch=1 n=g#7 v=78
306501 On ch=1 n=g#6 v=77
306509 On ch=1 n=f#6 v=70
306509 On ch=1 n=f#7 v=75
306512 On ch=1 n=g#5 v=50
306548 On ch=1 n=g#5 v=0
306568 On ch=1 n=g#6 v=0
306576 On ch=1 n=f#6 v=0
306584 On ch=1 n=c7 v=0
306594 On ch=1 n=g#7 v=0
306601 On ch=1 n=f#7 v=0
306677 On ch=1 n=c6 v=0
306677 On ch=1 n=c6 v=66
306677 On ch=1 n=f#7 v=66
306686 On ch=1 n=c7 v=71
306686 On ch=1 n=g#7 v=70
306686 On ch=1 n=f#6 v=66
306686 On ch=1 n=g#6 v=70
306686 On ch=1 n=g#5 v=55
306710 On ch=1 n=f#6 v=0
306710 On ch=1 n=g#7 v=0
306710 On ch=1 n=c7 v=0
306717 On ch=1 n=f#7 v=0
306737 On ch=1 n=g#5 v=0
306749 On ch=1 n=g#6 v=0
306766 On ch=1 n=c6 v=0
306980 On ch=1 n=a4 v=106
306980 On ch=1 n=a5 v=108
307117 Par ch=1 c=64 v=0
307261 Par ch=1 c=64 v=127
307293 On ch=1 n=d3 v=82
307293 On ch=1 n=d2 v=85
307297 On ch=1 n=f#5 v=53
307297 On ch=1 n=c5 v=59
307350 On ch=1 n=d3 v=0
307361 On ch=1 n=d2 v=0
307366 On ch=1 n=f#5 v=0
307374 On ch=1 n=c5 v=0
307485 On ch=1 n=a3 v=95
307485 On ch=1 n=c5 v=55
307490 On ch=1 n=a2 v=92
307490 On ch=1 n=f#5 v=58
307530 On ch=1 n=f#5 v=0
307545 On ch=1 n=c5 v=0
307545 On ch=1 n=a3 v=0
307557 On ch=1 n=a2 v=0
307690 On ch=1 n=d4 v=98
307694 On ch=1 n=d3 v=95
307697 On ch=1 n=f#5 v=55
307705 On ch=1 n=c5 v=55
307738 On ch=1 n=d4 v=0
307741 On ch=1 n=f#5 v=0
307741 On ch=1 n=d3 v=0
307745 On ch=1 n=c5 v=0
307755 On ch=1 n=a4 v=0
307781 On ch=1 n=a5 v=0
307930 On ch=1 n=a6 v=77
307934 On ch=1 n=c6 v=79
307938 On ch=1 n=a5 v=66
307938 On ch=1 n=f#6 v=73
307938 On ch=1 n=c5 v=59
307941 On ch=1 n=a4 v=59
307941 On ch=1 n=f#5 v=59
307994 On ch=1 n=a5 v=0
308006 On ch=1 n=c5 v=0
308006 On ch=1 n=c6 v=0
308014 On ch=1 n=f#5 v=0
308014 On ch=1 n=a4 v=0
308023 On ch=1 n=f#6 v=0
308023 On ch=1 n=a6 v=0
308110 On ch=1 n=c5 v=56
308121 On ch=1 n=c6 v=83
308121 On ch=1 n=a5 v=69
308127 On ch=1 n=f#6 v=76
308127 On ch=1 n=a6 v=74
308127 On ch=1 n=a4 v=58
308138 On ch=1 n=f#5 v=57
308170 On ch=1 n=a4 v=0
308174 On ch=1 n=f#5 v=0
308207 On ch=1 n=a6 v=0
308211 On ch=1 n=c6 v=0
308222 On ch=1 n=f#6 v=0
308222 On ch=1 n=a5 v=0
308222 On ch=1 n=c5 v=0
308298 On ch=1 n=c5 v=47
308298 On ch=1 n=f#5 v=55
308302 On ch=1 n=a5 v=70
308314 On ch=1 n=c6 v=70
308314 On ch=1 n=f#6 v=72
308314 On ch=1 n=a6 v=70
308314 On ch=1 n=a4 v=55
308323 On ch=1 n=c6 v=0
308331 On ch=1 n=a5 v=0
308331 On ch=1 n=c5 v=0
308342 On ch=1 n=f#5 v=0
308354 On ch=1 n=a6 v=0
308370 On ch=1 n=f#6 v=0
308374 On ch=1 n=a4 v=0
308537 On ch=1 n=c6 v=57
308537 On ch=1 n=a7 v=86
308541 On ch=1 n=c7 v=83
308541 On ch=1 n=a6 v=84
308541 On ch=1 n=f#7 v=77
308541 On ch=1 n=f#6 v=58
308547 On ch=1 n=a5 v=66
308574 On ch=1 n=c7 v=0
308581 On ch=1 n=a5 v=0
308598 On ch=1 n=f#6 v=0
308598 On ch=1 n=a6 v=0
308634 On ch=1 n=f#7 v=0
308642 On ch=1 n=a7 v=0
308654 On ch=1 n=c6 v=0
308731 On ch=1 n=c6 v=50
308731 On ch=1 n=a6 v=77
308742 On ch=1 n=f#7 v=77
308742 On ch=1 n=f#6 v=62
308742 On ch=1 n=c7 v=68
308742 On ch=1 n=a7 v=58
308742 On ch=1 n=a5 v=58
308761 On ch=1 n=f#6 v=0
308763 On ch=1 n=a7 v=0
308763 On ch=1 n=c7 v=0
308774 On ch=1 n=a6 v=0
308803 On ch=1 n=f#7 v=0
308841 On ch=1 n=a5 v=0
308851 On ch=1 n=c6 v=0
309031 On ch=1 n=a4 v=100
309035 On ch=1 n=a5 v=92
309095 On ch=1 n=a4 v=0
309103 On ch=1 n=a5 v=0
309211 Par ch=1 c=64 v=0
309211 On ch=1 n=a5 v=100
309211 On ch=1 n=a4 v=96
309418 Par ch=1 c=64 v=127
309462 On ch=1 n=f#5 v=65
309462 On ch=1 n=c#5 v=64
309462 On ch=1 n=c#2 v=82
309462 On ch=1 n=c#3 v=80
309510 On ch=1 n=c#2 v=0
309534 On ch=1 n=c#3 v=0
309534 On ch=1 n=c#5 v=0
309570 On ch=1 n=f#5 v=0
309647 On ch=1 n=a3 v=92
309662 On ch=1 n=a2 v=92
309663 On ch=1 n=c#5 v=61
309663 On ch=1 n=f#5 v=59
309687 On ch=1 n=f#5 v=0
309710 On ch=1 n=a3 v=0
309722 On ch=1 n=c#5 v=0
309722 On ch=1 n=a2 v=0
309834 On ch=1 n=f#5 v=59
309834 On ch=1 n=c#5 v=57
309841 On ch=1 n=c#4 v=95
309841 On ch=1 n=c#3 v=84
309858 On ch=1 n=c#5 v=0
309870 On ch=1 n=c#3 v=0
309887 On ch=1 n=c#4 v=0
309894 On ch=1 n=f#5 v=0
309923 On ch=1 n=a4 v=0
309923 On ch=1 n=a5 v=0
310087 On ch=1 n=a6 v=84
310087 On ch=1 n=a5 v=86
310094 On ch=1 n=c#6 v=85
310094 On ch=1 n=f#6 v=79
310094 On ch=1 n=f#5 v=57
310094 On ch=1 n=c#5 v=51
310094 On ch=1 n=a4 v=51
310094 On ch=1 n=f#4 v=51
310111 On ch=1 n=f#5 v=0
310134 On ch=1 n=f#4 v=0
310134 On ch=1 n=a4 v=0
310134 On ch=1 n=c#5 v=0
310163 On ch=1 n=c#6 v=0
310163 On ch=1 n=a5 v=0
310163 On ch=1 n=a6 v=0
310166 On ch=1 n=f#6 v=0
310271 On ch=1 n=c#5 v=68
310274 On ch=1 n=f#5 v=64
310274 On ch=1 n=a6 v=77
310274 On ch=1 n=f#6 v=80
310283 On ch=1 n=a5 v=80
310283 On ch=1 n=c#6 v=85
310283 On ch=1 n=a4 v=68
310283 On ch=1 n=f#4 v=68
310302 On ch=1 n=a4 v=0
310307 On ch=1 n=f#4 v=0
310323 On ch=1 n=f#5 v=0
310338 On ch=1 n=a5 v=0
310347 On ch=1 n=c#6 v=0
310347 On ch=1 n=a6 v=0
310361 On ch=1 n=c#5 v=0
310367 On ch=1 n=f#6 v=0
310462 On ch=1 n=f#5 v=68
310462 On ch=1 n=c#5 v=65
310462 On ch=1 n=a4 v=52
310463 On ch=1 n=a5 v=75
310463 On ch=1 n=a6 v=74
310463 On ch=1 n=f#6 v=74
310477 On ch=1 n=c#6 v=76
310477 On ch=1 n=f#4 v=76
310494 On ch=1 n=f#4 v=0
310494 On ch=1 n=c#6 v=0
310494 On ch=1 n=a5 v=0
310494 On ch=1 n=a4 v=0
310494 On ch=1 n=c#5 v=0
310521 On ch=1 n=a6 v=0
310523 On ch=1 n=f#5 v=0
310534 On ch=1 n=f#6 v=0
310694 On ch=1 n=a7 v=90
310703 On ch=1 n=a6 v=84
310703 On ch=1 n=f#6 v=67
310703 On ch=1 n=c#7 v=86
310703 On ch=1 n=c#6 v=71
310703 On ch=1 n=f#7 v=78
310703 On ch=1 n=a5 v=78
310703 On ch=1 n=f#5 v=78
310742 On ch=1 n=f#6 v=0
310770 On ch=1 n=c#6 v=0
310770 On ch=1 n=c#7 v=0
310770 On ch=1 n=a6 v=0
310781 On ch=1 n=f#5 v=0
310781 On ch=1 n=a5 v=0
310781 On ch=1 n=f#7 v=0
310781 On ch=1 n=a7 v=0
310881 On ch=1 n=a6 v=82
310898 On ch=1 n=f#6 v=68
310903 On ch=1 n=f#7 v=82
310903 On ch=1 n=c#7 v=82
310903 On ch=1 n=c#6 v=69
310903 On ch=1 n=a7 v=74
310903 On ch=1 n=a5 v=74
310903 On ch=1 n=f#5 v=74
310910 On ch=1 n=f#6 v=0
310920 On ch=1 n=f#5 v=0
310920 On ch=1 n=a5 v=0
310920 On ch=1 n=a7 v=0
310923 On ch=1 n=c#6 v=0
310923 On ch=1 n=f#7 v=0
310923 On ch=1 n=a6 v=0
310927 On ch=1 n=c#7 v=0
311167 On ch=1 n=a#4 v=107
311171 On ch=1 n=a#5 v=110
311339 Par ch=1 c=64 v=0
311439 On ch=1 n=g5 v=57
311439 On ch=1 n=e5 v=53
311440 On ch=1 n=c2 v=84
311440 On ch=1 n=c3 v=79
311487 On ch=1 n=c3 v=0
311487 On ch=1 n=c2 v=0
311487 Par ch=1 c=64 v=127
311547 On ch=1 n=e5 v=0
311571 On ch=1 n=g5 v=0
311655 On ch=1 n=g5 v=46
311659 On ch=1 n=e5 v=49
311671 On ch=1 n=g2 v=91
311671 On ch=1 n=g3 v=90
311711 On ch=1 n=g3 v=0
311728 On ch=1 n=g2 v=0
311775 On ch=1 n=g5 v=0
311799 On ch=1 n=e5 v=0
311879 On ch=1 n=c4 v=98
311883 On ch=1 n=c3 v=96
311883 On ch=1 n=g5 v=50
311883 On ch=1 n=e5 v=50
311911 On ch=1 n=e5 v=0
311911 On ch=1 n=g5 v=0
311935 On ch=1 n=c4 v=0
311947 On ch=1 n=c3 v=0
311972 On ch=1 n=a#4 v=0
312008 On ch=1 n=a#5 v=0
312139 On ch=1 n=a#5 v=90
312139 On ch=1 n=a#6 v=89
312139 On ch=1 n=e6 v=66
312139 On ch=1 n=g6 v=66
312140 On ch=1 n=g5 v=66
312140 On ch=1 n=e5 v=66
312140 On ch=1 n=a#4 v=66
312140 On ch=1 n=g4 v=66
312167 On ch=1 n=g6 v=0
312167 On ch=1 n=e6 v=0
312174 On ch=1 n=g4 v=0
312174 On ch=1 n=a#4 v=0
312174 On ch=1 n=e5 v=0
312174 On ch=1 n=g5 v=0
312211 On ch=1 n=a#5 v=0
312220 On ch=1 n=a#6 v=0
312331 On ch=1 n=a#5 v=82
312338 On ch=1 n=a#6 v=85
312338 On ch=1 n=e6 v=73
312338 On ch=1 n=g5 v=67
312340 On ch=1 n=g6 v=73
312340 On ch=1 n=e5 v=73
312340 On ch=1 n=g4 v=66
312340 On ch=1 n=a#4 v=62
312371 On ch=1 n=a#4 v=0
312381 On ch=1 n=g5 v=0
312385 On ch=1 n=g4 v=0
312408 On ch=1 n=a#5 v=0
312415 On ch=1 n=g6 v=0
312425 On ch=1 n=a#6 v=0
312432 On ch=1 n=e5 v=0
312432 On ch=1 n=e6 v=0
312500 On ch=1 n=a#4 v=63
312508 On ch=1 n=g5 v=71
312512 On ch=1 n=e5 v=58
312512 On ch=1 n=a#6 v=87
312520 On ch=1 n=a#5 v=76
312520 On ch=1 n=e6 v=70
312520 On ch=1 n=g6 v=70
312520 On ch=1 n=g4 v=59
312537 On ch=1 n=a#5 v=0
312541 On ch=1 n=g6 v=0
312541 On ch=1 n=e6 v=0
312545 On ch=1 n=a#4 v=0
312556 On ch=1 n=e5 v=0
312576 On ch=1 n=g4 v=0
312580 On ch=1 n=g5 v=0
312584 On ch=1 n=a#6 v=0
312768 On ch=1 n=a#7 v=95
312768 On ch=1 n=a#6 v=89
312768 On ch=1 n=e7 v=74
312772 On ch=1 n=e6 v=70
312777 On ch=1 n=g5 v=64
312777 On ch=1 n=g7 v=64
312777 On ch=1 n=g6 v=67
312777 On ch=1 n=a#5 v=57
312808 On ch=1 n=a#5 v=0
312848 On ch=1 n=g6 v=0
312848 On ch=1 n=a#6 v=0
312852 On ch=1 n=g5 v=0
312857 On ch=1 n=g7 v=0
312861 On ch=1 n=e7 v=0
312888 On ch=1 n=a#7 v=0
312920 On ch=1 n=e6 v=0
312981 On ch=1 n=e6 v=61
312988 On ch=1 n=g6 v=67
312992 On ch=1 n=a#6 v=79
312992 On ch=1 n=a#7 v=92
312996 On ch=1 n=e7 v=72
312997 On ch=1 n=g7 v=72
312997 On ch=1 n=g5 v=65
312997 On ch=1 n=a#5 v=61
313012 On ch=1 n=g6 v=0
313028 On ch=1 n=g5 v=0
313045 On ch=1 n=a#5 v=0
313049 On ch=1 n=e7 v=0
313052 On ch=1 n=g7 v=0
313060 On ch=1 n=e6 v=0
313064 On ch=1 n=a#7 v=0
313064 On ch=1 n=a#6 v=0
313344 On ch=1 n=e6 v=107
313344 On ch=1 n=e5 v=104
313425 On ch=1 n=e5 v=0
313469 On ch=1 n=e6 v=0
313569 On ch=1 n=e5 v=100
313569 On ch=1 n=e6 v=120
313808 Par ch=1 c=64 v=0
313857 On ch=1 n=b5 v=65
313861 On ch=1 n=b3 v=87
313869 On ch=1 n=b2 v=88
313869 On ch=1 n=g5 v=53
313928 On ch=1 n=b3 v=0
313935 On ch=1 n=b2 v=0
313945 On ch=1 n=g5 v=0
313961 Par ch=1 c=64 v=127
313977 On ch=1 n=b5 v=0
314124 On ch=1 n=b5 v=65
314124 On ch=1 n=g4 v=95
314124 On ch=1 n=g3 v=95
314128 On ch=1 n=g5 v=63
314188 On ch=1 n=g4 v=0
314197 On ch=1 n=g3 v=0
314212 On ch=1 n=g5 v=0
314245 On ch=1 n=b5 v=0
314348 On ch=1 n=b4 v=96
314348 On ch=1 n=b3 v=99
314348 On ch=1 n=b5 v=62
314351 On ch=1 n=g5 v=62
314368 On ch=1 n=g5 v=0
314368 On ch=1 n=b5 v=0
314384 On ch=1 n=b4 v=0
314388 On ch=1 n=b3 v=0
314412 On ch=1 n=e5 v=0
314452 On ch=1 n=e6 v=0
314608 On ch=1 n=g6 v=79
314608 On ch=1 n=e6 v=80
314612 On ch=1 n=e7 v=82
314617 On ch=1 n=b6 v=75
314721 On ch=1 n=e6 v=0
314721 On ch=1 n=g6 v=0
314736 On ch=1 n=b6 v=0
314748 On ch=1 n=e7 v=0
314821 On ch=1 n=e7 v=75
314821 On ch=1 n=b6 v=78
314821 On ch=1 n=e6 v=80
314821 On ch=1 n=g6 v=78
314825 On ch=1 n=b5 v=54
314825 On ch=1 n=g5 v=55
314825 On ch=1 n=b4 v=59
314861 On ch=1 n=b4 v=0
314876 On ch=1 n=g5 v=0
314901 On ch=1 n=b5 v=0
314917 On ch=1 n=g6 v=0
314929 On ch=1 n=e6 v=0
314929 On ch=1 n=b6 v=0
314932 On ch=1 n=e7 v=0
315008 On ch=1 n=e6 v=73
315008 On ch=1 n=b6 v=77
315016 On ch=1 n=g6 v=71
315016 On ch=1 n=e7 v=64
315017 On ch=1 n=b5 v=53
315017 On ch=1 n=g5 v=53
315017 On ch=1 n=b4 v=53
315024 On ch=1 n=e6 v=0
315048 On ch=1 n=g6 v=0
315052 On ch=1 n=g5 v=0
315052 On ch=1 n=b5 v=0
315056 On ch=1 n=b4 v=0
315061 On ch=1 n=b6 v=0
315069 On ch=1 n=e7 v=0
315236 On ch=1 n=e8 v=90
315244 On ch=1 n=g7 v=85
315244 On ch=1 n=b7 v=82
315244 On ch=1 n=e7 v=82
315244 On ch=1 n=g6 v=55
315248 On ch=1 n=b6 v=44
315248 On ch=1 n=b5 v=69
315268 On ch=1 n=b6 v=0
315304 On ch=1 n=b5 v=0
315304 On ch=1 n=g6 v=0
315314 On ch=1 n=g7 v=0
315325 On ch=1 n=e7 v=0
315354 On ch=1 n=b7 v=0
315377 On ch=1 n=e8 v=0
315434 On ch=1 n=b6 v=61
315434 On ch=1 n=e8 v=82
315434 On ch=1 n=e6 v=61
315445 On ch=1 n=g7 v=87
315445 On ch=1 n=e7 v=84
315445 On ch=1 n=g6 v=72
315445 On ch=1 n=b7 v=82
315449 On ch=1 n=b5 v=64
315494 On ch=1 n=b5 v=0
315494 On ch=1 n=b6 v=0
315521 On ch=1 n=g6 v=0
315521 On ch=1 n=e8 v=0
315529 On ch=1 n=e7 v=0
315534 On ch=1 n=b7 v=0
315542 On ch=1 n=g7 v=0
315549 On ch=1 n=e6 v=0
315989 On ch=1 n=e6 v=110
315994 On ch=1 n=e5 v=95
316212 On ch=1 n=e6 v=0
316237 On ch=1 n=e5 v=0
316349 On ch=1 n=d5 v=99
316349 On ch=1 n=d6 v=110
316469 On ch=1 n=d6 v=0
316474 On ch=1 n=d5 v=0
316692 On ch=1 n=a#4 v=100
316702 On ch=1 n=a#5 v=105
316721 Par ch=1 c=64 v=0
316794 Par ch=1 c=64 v=127
316922 On ch=1 n=a#5 v=0
316922 On ch=1 n=a#4 v=0
317014 On ch=1 n=b5 v=110
317025 On ch=1 n=b4 v=100
317117 On ch=1 n=b4 v=0
317149 On ch=1 n=b5 v=0
317645 On ch=1 n=g5 v=100
317645 On ch=1 n=g6 v=105
317732 On ch=1 n=g5 v=0
317774 On ch=1 n=g6 v=0
317869 On ch=1 n=g5 v=100
317869 On ch=1 n=g6 v=120
318089 Par ch=1 c=64 v=0
318205 On ch=1 n=b5 v=67
318209 On ch=1 n=d#6 v=60
318212 On ch=1 n=b2 v=84
318218 On ch=1 n=b3 v=78
318237 Par ch=1 c=64 v=127
318292 On ch=1 n=b3 v=0
318292 On ch=1 n=b2 v=0
318317 On ch=1 n=b5 v=0
318329 On ch=1 n=d#6 v=0
318473 On ch=1 n=b5 v=58
318473 On ch=1 n=d#6 v=58
318485 On ch=1 n=a4 v=96
318485 On ch=1 n=a3 v=98
318534 On ch=1 n=a4 v=0
318565 On ch=1 n=a3 v=0
318605 On ch=1 n=d#6 v=0
318609 On ch=1 n=b5 v=0
318701 On ch=1 n=b3 v=96
318701 On ch=1 n=b4 v=96
318708 On ch=1 n=d#6 v=68
318712 On ch=1 n=b5 v=68
318722 On ch=1 n=d#6 v=0
318726 On ch=1 n=b5 v=0
318743 On ch=1 n=b4 v=0
318751 On ch=1 n=b3 v=0
318775 On ch=1 n=g5 v=0
318811 On ch=1 n=g6 v=0
319002 On ch=1 n=b6 v=84
319006 On ch=1 n=g6 v=87
319006 On ch=1 n=g7 v=83
319006 On ch=1 n=d#7 v=84
319006 On ch=1 n=d#6 v=77
319011 On ch=1 n=b5 v=75
319011 On ch=1 n=d#5 v=65
319011 On ch=1 n=a5 v=66
319042 On ch=1 n=d#5 v=0
319098 On ch=1 n=b5 v=0
319108 On ch=1 n=d#6 v=0
319139 On ch=1 n=g6 v=0
319155 On ch=1 n=g7 v=0
319155 On ch=1 n=b6 v=0
319167 On ch=1 n=a5 v=0
319168 On ch=1 n=d#7 v=0
319232 On ch=1 n=b5 v=83
319236 On ch=1 n=d#5 v=81
319239 On ch=1 n=d#7 v=82
319239 On ch=1 n=b6 v=86
319243 On ch=1 n=a5 v=75
319243 On ch=1 n=g6 v=87
319243 On ch=1 n=d#6 v=86
319243 On ch=1 n=g7 v=81
319352 On ch=1 n=d#6 v=0
319352 On ch=1 n=d#5 v=0
319359 On ch=1 n=b5 v=0
319363 On ch=1 n=a5 v=0
319375 On ch=1 n=d#7 v=0
319386 On ch=1 n=g6 v=0
319392 On ch=1 n=b6 v=0
319400 On ch=1 n=g7 v=0
319448 On ch=1 n=d#7 v=78
319448 On ch=1 n=b6 v=65
319448 On ch=1 n=d#5 v=77
319448 On ch=1 n=d#6 v=84
319459 On ch=1 n=b5 v=78
319459 On ch=1 n=g7 v=69
319459 On ch=1 n=g6 v=55
319459 On ch=1 n=a5 v=66
319483 On ch=1 n=g6 v=0
319483 On ch=1 n=d#5 v=0
319483 On ch=1 n=b6 v=0
319503 On ch=1 n=a5 v=0
319515 On ch=1 n=b5 v=0
319515 On ch=1 n=d#7 v=0
319519 On ch=1 n=g7 v=0
319519 On ch=1 n=d#6 v=0
319735 On ch=1 n=d#8 v=87
319742 On ch=1 n=b7 v=88
319742 On ch=1 n=g8 v=88
319742 On ch=1 n=g7 v=87
319742 On ch=1 n=b6 v=61
319742 On ch=1 n=d#6 v=74
319742 On ch=1 n=a6 v=66
319746 On ch=1 n=d#7 v=75
319860 On ch=1 n=d#7 v=0
319860 On ch=1 n=d#6 v=0
319886 On ch=1 n=g7 v=0
319919 On ch=1 n=d#8 v=0
319929 On ch=1 n=b6 v=0
319929 On ch=1 n=g8 v=0
319932 On ch=1 n=a6 v=0
319944 On ch=1 n=b7 v=0
319980 On ch=1 n=b6 v=70
319980 On ch=1 n=b7 v=86
319980 On ch=1 n=d#6 v=86
319980 On ch=1 n=d#7 v=84
319980 On ch=1 n=d#8 v=94
319984 On ch=1 n=a6 v=70
319984 On ch=1 n=g7 v=91
319984 On ch=1 n=g8 v=86
320096 On ch=1 n=d#7 v=0
320113 On ch=1 n=b6 v=0
320116 On ch=1 n=d#6 v=0
320124 On ch=1 n=g7 v=0
320124 On ch=1 n=a6 v=0
320143 On ch=1 n=g8 v=0
320172 On ch=1 n=b7 v=0
320176 On ch=1 n=d#8 v=0
320864 On ch=1 n=f#6 v=112
320864 On ch=1 n=f#5 v=96
321040 On ch=1 n=f#5 v=0
321079 On ch=1 n=f#6 v=0
321244 On ch=1 n=g#5 v=102
321249 On ch=1 n=g#6 v=110
321256 Par ch=1 c=64 v=0
321343 Par ch=1 c=64 v=127
321417 On ch=1 n=g#6 v=0
321432 On ch=1 n=g#5 v=0
321536 On ch=1 n=f#6 v=110
321536 On ch=1 n=f#5 v=100
321616 On ch=1 n=f#5 v=0
321664 On ch=1 n=f#6 v=0
321760 Par ch=1 c=64 v=0
321805 On ch=1 n=c#6 v=106
321805 On ch=1 n=c#7 v=120
321852 Par ch=1 c=64 v=127
321949 On ch=1 n=c#6 v=0
321956 On ch=1 n=c#7 v=0
322109 On ch=1 n=b5 v=103
322109 On ch=1 n=b6 v=102
322225 On ch=1 n=b5 v=0
322229 On ch=1 n=b6 v=0
322344 On ch=1 n=a5 v=98
322345 On ch=1 n=a6 v=105
322423 On ch=1 n=a5 v=0
322433 On ch=1 n=a6 v=0
322537 On ch=1 n=g#6 v=102
322537 On ch=1 n=g#5 v=100
322617 On ch=1 n=g#6 v=0
322620 On ch=1 n=g#5 v=0
322704 On ch=1 n=f#5 v=103
322704 On ch=1 n=f#6 v=102
322780 On ch=1 n=f#6 v=0
322780 On ch=1 n=f#5 v=0
322864 On ch=1 n=e5 v=95
322872 On ch=1 n=e6 v=92
322929 On ch=1 n=e6 v=0
322929 On ch=1 n=e5 v=0
323029 On ch=1 n=d#5 v=99
323033 On ch=1 n=d#6 v=102
323104 On ch=1 n=d#5 v=0
323105 On ch=1 n=d#6 v=0
323200 On ch=1 n=e5 v=95
323204 On ch=1 n=e6 v=102
323260 On ch=1 n=e5 v=0
323264 On ch=1 n=e6 v=0
323353 On ch=1 n=d#6 v=105
323353 On ch=1 n=d#5 v=95
323409 On ch=1 n=d#6 v=0
323416 On ch=1 n=d#5 v=0
323503 On ch=1 n=c#5 v=102
323503 On ch=1 n=c#6 v=106
323553 On ch=1 n=c#5 v=0
323564 On ch=1 n=c#6 v=0
323643 On ch=1 n=d#5 v=102
323649 On ch=1 n=d#6 v=102
323704 On ch=1 n=d#5 v=0
323733 On ch=1 n=d#6 v=0
323832 Par ch=1 c=64 v=0
323842 On ch=1 n=g#6 v=102
323846 On ch=1 n=g#5 v=100
323920 Par ch=1 c=64 v=127
324009 On ch=1 n=g#5 v=0
324009 On ch=1 n=g#6 v=0
324113 On ch=1 n=f#6 v=98
324113 On ch=1 n=f#5 v=94
324189 On ch=1 n=f#6 v=0
324197 On ch=1 n=f#5 v=0
324349 On ch=1 n=a5 v=96
324349 On ch=1 n=a4 v=92
324401 On ch=1 n=a5 v=0
324413 On ch=1 n=a4 v=0
324521 On ch=1 n=a#5 v=108
324521 On ch=1 n=a#4 v=101
324580 On ch=1 n=a#5 v=0
324590 On ch=1 n=a#4 v=0
324678 On ch=1 n=b5 v=101
324679 On ch=1 n=b4 v=91
324739 On ch=1 n=b4 v=0
324739 On ch=1 n=b5 v=0
324814 On ch=1 n=c5 v=99
324818 On ch=1 n=c6 v=99
324874 On ch=1 n=c6 v=0
324879 On ch=1 n=c5 v=0
324977 Par ch=1 c=64 v=0
324987 On ch=1 n=d#6 v=102
324987 On ch=1 n=d#5 v=99
325091 Par ch=1 c=64 v=127
325098 On ch=1 n=d#6 v=0
325110 On ch=1 n=d#5 v=0
325190 On ch=1 n=c#6 v=109
325190 On ch=1 n=c#5 v=102
325263 On ch=1 n=c#6 v=0
325278 On ch=1 n=c#5 v=0
325370 On ch=1 n=g#5 v=105
325370 On ch=1 n=g#4 v=103
325451 On ch=1 n=g#4 v=0
325466 On ch=1 n=g#5 v=0
325574 On ch=1 n=b4 v=103
325578 On ch=1 n=b5 v=109
325586 Par ch=1 c=64 v=0
325682 Par ch=1 c=64 v=127
325707 On ch=1 n=b4 v=0
325711 On ch=1 n=b5 v=0
325806 On ch=1 n=a4 v=94
325806 On ch=1 n=a5 v=100
325887 On ch=1 n=a5 v=0
325887 On ch=1 n=a4 v=0
326058 On ch=1 n=c#4 v=102
326063 On ch=1 n=c#5 v=100
326139 On ch=1 n=c#4 v=0
326170 On ch=1 n=c#5 v=0
326319 On ch=1 n=d#4 v=102
326319 On ch=1 n=d#5 v=102
326407 On ch=1 n=d#4 v=0
326443 On ch=1 n=d#5 v=0
326593 Par ch=1 c=64 v=0
326603 On ch=1 n=g#4 v=106
326603 On ch=1 n=g#5 v=105
326730 Par ch=1 c=64 v=127
326836 On ch=1 n=g#5 v=0
326836 On ch=1 n=g#4 v=0
327074 On ch=1 n=f#4 v=106
327076 On ch=1 n=f#5 v=108
327211 On ch=1 n=f#4 v=0
327214 On ch=1 n=f#5 v=0
327896 On ch=1 n=e4 v=109
327896 On ch=1 n=e5 v=109
327991 On ch=1 n=e4 v=0
328016 On ch=1 n=e5 v=0
328127 On ch=1 n=e4 v=110
328127 On ch=1 n=e5 v=101
328214 Par ch=1 c=64 v=0
328391 Par ch=1 c=64 v=127
328539 On ch=1 n=e3 v=88
328539 On ch=1 n=e2 v=91
328554 On ch=1 n=b4 v=61
328554 On ch=1 n=g#4 v=59
328627 On ch=1 n=g#4 v=0
328635 On ch=1 n=e3 v=0
328643 On ch=1 n=e2 v=0
328715 On ch=1 n=b4 v=0
328835 On ch=1 n=e4 v=0
328847 On ch=1 n=b3 v=99
328847 On ch=1 n=b2 v=96
328855 On ch=1 n=b4 v=61
328855 On ch=1 n=g#4 v=52
328923 On ch=1 n=b3 v=0
328934 On ch=1 n=b2 v=0
328967 On ch=1 n=g#4 v=0
328983 On ch=1 n=b4 v=0
329107 On ch=1 n=e4 v=97
329107 On ch=1 n=e3 v=96
329116 On ch=1 n=b4 v=55
329116 On ch=1 n=g#4 v=55
329147 On ch=1 n=g#4 v=0
329147 On ch=1 n=b4 v=0
329150 On ch=1 n=e4 v=0
329160 On ch=1 n=e3 v=0
329233 On ch=1 n=e5 v=0
329451 On ch=1 n=g#4 v=69
329461 On ch=1 n=b6 v=70
329461 On ch=1 n=e7 v=80
329461 On ch=1 n=e6 v=82
329464 On ch=1 n=g#6 v=74
329473 On ch=1 n=e4 v=79
329473 On ch=1 n=b4 v=76
329473 On ch=1 n=e5 v=79
329565 On ch=1 n=e5 v=0
329580 On ch=1 n=e4 v=0
329584 On ch=1 n=e6 v=0
329593 On ch=1 n=g#4 v=0
329624 On ch=1 n=b4 v=0
329624 On ch=1 n=g#6 v=0
329628 On ch=1 n=e7 v=0
329637 On ch=1 n=b6 v=0
329711 On ch=1 n=g#4 v=82
329713 On ch=1 n=e5 v=85
329713 On ch=1 n=e4 v=83
329713 On ch=1 n=b4 v=86
329713 On ch=1 n=e6 v=84
329713 On ch=1 n=g#6 v=88
329713 On ch=1 n=b6 v=84
329716 On ch=1 n=e7 v=82
329833 On ch=1 n=e5 v=0
329844 On ch=1 n=e7 v=0
329844 On ch=1 n=g#4 v=0
329851 On ch=1 n=e6 v=0
329851 On ch=1 n=e4 v=0
329857 On ch=1 n=b4 v=0
329868 On ch=1 n=b6 v=0
329868 On ch=1 n=g#6 v=0
329952 On ch=1 n=g#6 v=72
329952 On ch=1 n=e5 v=79
329953 On ch=1 n=b4 v=76
329953 On ch=1 n=b6 v=74
329953 On ch=1 n=g#4 v=76
329967 On ch=1 n=e4 v=70
329967 On ch=1 n=e7 v=75
329967 On ch=1 n=e6 v=55
329977 On ch=1 n=g#6 v=0
329984 On ch=1 n=e4 v=0
329984 On ch=1 n=b6 v=0
329993 On ch=1 n=e6 v=0
329993 On ch=1 n=g#4 v=0
329993 On ch=1 n=b4 v=0
330008 On ch=1 n=e5 v=0
330017 On ch=1 n=e7 v=0
330240 On ch=1 n=b7 v=82
330240 On ch=1 n=e7 v=84
330240 On ch=1 n=g#7 v=84
330240 On ch=1 n=e6 v=80
330240 On ch=1 n=e8 v=84
330244 On ch=1 n=e5 v=76
330244 On ch=1 n=b5 v=71
330244 On ch=1 n=g#5 v=74
330328 On ch=1 n=e6 v=0
330345 On ch=1 n=e5 v=0
330352 On ch=1 n=e7 v=0
330356 On ch=1 n=g#5 v=0
330356 On ch=1 n=b5 v=0
330388 On ch=1 n=g#7 v=0
330413 On ch=1 n=b7 v=0
330417 On ch=1 n=e8 v=0
330488 On ch=1 n=b5 v=83
330493 On ch=1 n=e6 v=86
330493 On ch=1 n=e5 v=81
330493 On ch=1 n=g#5 v=80
330493 On ch=1 n=b7 v=92
330497 On ch=1 n=g#7 v=90
330497 On ch=1 n=e7 v=88
330497 On ch=1 n=e8 v=90
330620 On ch=1 n=e6 v=0
330641 On ch=1 n=g#5 v=0
330641 On ch=1 n=e5 v=0
330656 On ch=1 n=b5 v=0
330668 On ch=1 n=e8 v=0
330668 On ch=1 n=e7 v=0
330673 On ch=1 n=g#7 v=0
330673 On ch=1 n=b7 v=0
330732 On ch=1 n=e8 v=98
330732 On ch=1 n=e6 v=92
330744 On ch=1 n=b7 v=95
330744 On ch=1 n=g#7 v=90
330744 On ch=1 n=g#5 v=88
330744 On ch=1 n=e5 v=87
330744 On ch=1 n=b5 v=87
330744 On ch=1 n=e7 v=92
330821 On ch=1 n=e6 v=0
330865 On ch=1 n=b5 v=0
330873 On ch=1 n=e5 v=0
330884 On ch=1 n=g#5 v=0
330894 On ch=1 n=e8 v=0
330928 On ch=1 n=e7 v=0
330938 On ch=1 n=b7 v=0
330958 On ch=1 n=g#7 v=0
331418 On ch=1 n=e3 v=65
331445 On ch=1 n=b3 v=62
331511 On ch=1 n=e4 v=89
331538 On ch=1 n=b4 v=100
331538 On ch=1 n=g#4 v=102
331538 On ch=1 n=e5 v=91
331538 On ch=1 n=g#5 v=99
331598 On ch=1 n=b3 v=0
331647 On ch=1 n=e3 v=0
331774 On ch=1 n=g#4 v=0
331785 On ch=1 n=b4 v=0
331831 On ch=1 n=e5 v=0
331858 On ch=1 n=e4 v=0
331867 On ch=1 n=g#5 v=0
332047 On ch=1 n=e3 v=65
332122 On ch=1 n=e3 v=0
332131 On ch=1 n=b3 v=67
332202 On ch=1 n=e4 v=68
332318 On ch=1 n=g#4 v=95
332395 On ch=1 n=g#5 v=96
332395 On ch=1 n=b4 v=100
332402 On ch=1 n=e5 v=100
332402 On ch=1 n=b5 v=102
332482 On ch=1 n=e4 v=0
332502 On ch=1 n=g#4 v=0
332595 On ch=1 n=b3 v=0
332618 On ch=1 n=b4 v=0
332666 On ch=1 n=e5 v=0
332694 On ch=1 n=b5 v=0
332706 On ch=1 n=g#5 v=0
332782 On ch=1 n=e3 v=95
332805 Par ch=1 c=64 v=0
332926 Par ch=1 c=64 v=127
333051 On ch=1 n=b3 v=77
333066 On ch=1 n=e3 v=0
333150 On ch=1 n=d#4 v=88
333246 On ch=1 n=a4 v=91
333254 On ch=1 n=b4 v=99
333305 On ch=1 n=a5 v=100
333311 On ch=1 n=f#5 v=100
333319 On ch=1 n=d#5 v=105
333319 On ch=1 n=d#6 v=110
333486 On ch=1 n=a5 v=0
333490 On ch=1 n=d#5 v=0
333501 On ch=1 n=f#5 v=0
333518 On ch=1 n=d#6 v=0
333542 On ch=1 n=b4 v=0
333547 On ch=1 n=a4 v=0
333605 On ch=1 n=d#4 v=0
333714 On ch=1 n=b3 v=0
334226 On ch=1 n=e2 v=127
334447 On ch=1 n=e2 v=0
334686 On ch=1 n=b3 v=53
334715 On ch=1 n=f#3 v=58
334746 On ch=1 n=b3 v=0
334751 On ch=1 n=d#4 v=66
334782 On ch=1 n=f#3 v=0
334830 On ch=1 n=f#4 v=66
334834 On ch=1 n=b3 v=65
334855 On ch=1 n=d#4 v=0
334866 On ch=1 n=a4 v=69
334867 On ch=1 n=b3 v=0
334882 On ch=1 n=f#4 v=0
334898 On ch=1 n=a4 v=0
334955 On ch=1 n=d#4 v=67
334986 On ch=1 n=b4 v=64
334987 On ch=1 n=f#4 v=68
335035 On ch=1 n=d#4 v=0
335038 On ch=1 n=a4 v=62
335050 On ch=1 n=d#5 v=69
335061 On ch=1 n=b4 v=0
335078 On ch=1 n=a4 v=0
335078 On ch=1 n=f#4 v=0
335106 On ch=1 n=b4 v=48
335118 On ch=1 n=f#5 v=72
335155 On ch=1 n=b4 v=0
335158 On ch=1 n=a5 v=68
335168 On ch=1 n=d#5 v=0
335191 On ch=1 n=a5 v=0
335195 On ch=1 n=f#5 v=0
335235 On ch=1 n=d#5 v=50
335278 On ch=1 n=b5 v=61
335292 On ch=1 n=f#5 v=63
335335 On ch=1 n=d#6 v=78
335343 On ch=1 n=a5 v=68
335355 On ch=1 n=b5 v=0
335371 On ch=1 n=f#5 v=0
335371 On ch=1 n=d#5 v=0
335379 On ch=1 n=a5 v=0
335396 On ch=1 n=f#6 v=74
335396 On ch=1 n=b5 v=40
335435 On ch=1 n=a6 v=79
335438 On ch=1 n=b5 v=0
335444 On ch=1 n=d#6 v=0
335472 On ch=1 n=a6 v=0
335472 On ch=1 n=f#6 v=0
335535 On ch=1 n=d#6 v=59
335539 On ch=1 n=b6 v=85
335582 On ch=1 n=f#6 v=69
335615 On ch=1 n=d#7 v=85
335625 On ch=1 n=b6 v=0
335625 On ch=1 n=a6 v=61
335652 On ch=1 n=f#6 v=0
335655 On ch=1 n=d#6 v=0
335661 On ch=1 n=a6 v=0
335661 On ch=1 n=f#7 v=77
335685 On ch=1 n=a7 v=70
335700 On ch=1 n=b6 v=51
335705 On ch=1 n=d#7 v=0
335733 On ch=1 n=b6 v=0
335733 On ch=1 n=f#7 v=0
335744 On ch=1 n=a7 v=0
335788 On ch=1 n=b7 v=80
335820 On ch=1 n=d#7 v=68
335868 On ch=1 n=d#8 v=94
335868 On ch=1 n=f#7 v=86
336040 On ch=1 n=f#7 v=0
336056 On ch=1 n=d#7 v=0
336061 On ch=1 n=d#8 v=0
336141 On ch=1 n=b7 v=0
336452 On ch=1 n=e3 v=59
336512 On ch=1 n=e3 v=0
336516 On ch=1 n=b3 v=72
336589 On ch=1 n=d#4 v=71
336661 On ch=1 n=f#5 v=100
336668 On ch=1 n=d#5 v=99
336668 On ch=1 n=a4 v=100
336668 On ch=1 n=a5 v=99
336716 On ch=1 n=f#4 v=78
336784 On ch=1 n=d#4 v=0
336832 On ch=1 n=f#4 v=0
336892 On ch=1 n=a4 v=0
336912 On ch=1 n=b3 v=0
336916 On ch=1 n=a5 v=0
336959 On ch=1 n=d#5 v=0
336959 On ch=1 n=f#5 v=0
337021 On ch=1 n=e3 v=67
337101 On ch=1 n=b3 v=71
337141 On ch=1 n=e3 v=0
337173 On ch=1 n=d#4 v=87
337265 On ch=1 n=a4 v=98
337384 On ch=1 n=f#5 v=100
337384 On ch=1 n=d#5 v=98
337392 On ch=1 n=c#6 v=106
337392 On ch=1 n=c#5 v=102
337616 On ch=1 n=c#5 v=0
337621 On ch=1 n=c#6 v=0
337628 On ch=1 n=a4 v=0
337636 On ch=1 n=d#5 v=0
337648 On ch=1 n=f#5 v=0
337728 On ch=1 n=d#4 v=0
337876 On ch=1 n=b3 v=0
338124 On ch=1 n=b4 v=103
338132 On ch=1 n=b5 v=106
338205 On ch=1 n=e3 v=100
338288 On ch=1 n=b5 v=0
338296 On ch=1 n=b4 v=0
338340 Par ch=1 c=64 v=0
338356 On ch=1 n=b4 v=86
338356 On ch=1 n=g#5 v=88
338360 On ch=1 n=e5 v=85
338493 Par ch=1 c=64 v=127
338496 On ch=1 n=b3 v=60
338505 On ch=1 n=e3 v=0
338632 On ch=1 n=e4 v=74
338800 On ch=1 n=g#4 v=96
338980 On ch=1 n=g#4 v=0
338999 On ch=1 n=e4 v=0
339065 On ch=1 n=b3 v=0
339100 On ch=1 n=e5 v=0
339140 On ch=1 n=g#5 v=0
339181 On ch=1 n=b4 v=0
339429 On ch=1 n=e2 v=127
339569 On ch=1 n=e2 v=0
339796 On ch=1 n=e3 v=44
339796 On ch=1 n=b3 v=47
339856 On ch=1 n=b3 v=0
339868 On ch=1 n=e4 v=53
339872 On ch=1 n=e3 v=0
339889 On ch=1 n=g#3 v=61
339932 On ch=1 n=g#3 v=0
339949 On ch=1 n=e4 v=0
339949 On ch=1 n=g#4 v=57
339961 On ch=1 n=b3 v=53
339992 On ch=1 n=g#4 v=0
339996 On ch=1 n=b3 v=0
340069 On ch=1 n=e4 v=63
340076 On ch=1 n=b4 v=66
340129 On ch=1 n=e4 v=0
340141 On ch=1 n=e5 v=65
340141 On ch=1 n=g#4 v=68
340156 On ch=1 n=b4 v=0
340188 On ch=1 n=g#4 v=0
340213 On ch=1 n=g#5 v=67
340216 On ch=1 n=b4 v=49
340236 On ch=1 n=e5 v=0
340259 On ch=1 n=b4 v=0
340280 On ch=1 n=g#5 v=0
340336 On ch=1 n=e5 v=64
340336 On ch=1 n=b5 v=71
340380 On ch=1 n=e5 v=0
340396 On ch=1 n=e6 v=69
340396 On ch=1 n=g#5 v=72
340408 On ch=1 n=b5 v=0
340441 On ch=1 n=g#5 v=0
340472 On ch=1 n=g#6 v=70
340481 On ch=1 n=b5 v=52
340485 On ch=1 n=e6 v=0
340516 On ch=1 n=b5 v=0
340532 On ch=1 n=g#6 v=0
340592 On ch=1 n=e6 v=68
340592 On ch=1 n=b6 v=67
340628 On ch=1 n=e6 v=0
340636 On ch=1 n=e7 v=78
340660 On ch=1 n=b6 v=0
340660 On ch=1 n=g#6 v=72
340689 On ch=1 n=g#6 v=0
340700 On ch=1 n=g#7 v=85
340729 On ch=1 n=e7 v=0
340729 On ch=1 n=b6 v=53
340741 On ch=1 n=g#7 v=0
340755 On ch=1 n=b6 v=0
340816 On ch=1 n=b7 v=85
340841 On ch=1 n=e7 v=59
340869 On ch=1 n=e7 v=0
340881 On ch=1 n=e8 v=100
340884 On ch=1 n=g#7 v=92
340956 On ch=1 n=g#7 v=0
340992 On ch=1 n=b7 v=0
341100 On ch=1 n=e8 v=0
341539 On ch=1 n=e3 v=69
341572 On ch=1 n=g#3 v=70
341579 On ch=1 n=b3 v=71
341636 On ch=1 n=e4 v=95
341676 On ch=1 n=b4 v=103
341676 On ch=1 n=g#4 v=106
341679 On ch=1 n=g#5 v=102
341689 On ch=1 n=e5 v=93
341960 On ch=1 n=g#4 v=0
341972 On ch=1 n=b4 v=0
341972 On ch=1 n=b3 v=0
341972 On ch=1 n=g#3 v=0
342000 On ch=1 n=e3 v=0
342005 On ch=1 n=e5 v=0
342032 On ch=1 n=g#5 v=0
342132 On ch=1 n=e3 v=79
342141 On ch=1 n=e4 v=0
342145 On ch=1 n=g#3 v=70
342181 On ch=1 n=b3 v=74
342240 On ch=1 n=b3 v=0
342244 On ch=1 n=e3 v=0
342252 On ch=1 n=e4 v=84
342259 On ch=1 n=g#3 v=0
342320 On ch=1 n=e4 v=0
342365 On ch=1 n=g#4 v=98
342421 On ch=1 n=e5 v=104
342432 On ch=1 n=g#4 v=0
342432 On ch=1 n=g#5 v=100
342432 On ch=1 n=b4 v=106
342436 On ch=1 n=b5 v=93
342665 On ch=1 n=b4 v=0
342709 On ch=1 n=e5 v=0
342736 On ch=1 n=b5 v=0
342765 On ch=1 n=g#5 v=0
342796 On ch=1 n=e3 v=100
342799 Par ch=1 c=64 v=0
342925 Par ch=1 c=64 v=127
343020 On ch=1 n=b3 v=77
343036 On ch=1 n=e3 v=0
343124 On ch=1 n=d#4 v=85
343212 On ch=1 n=a4 v=88
343215 On ch=1 n=b4 v=100
343253 On ch=1 n=f#5 v=98
343260 On ch=1 n=a5 v=99
343265 On ch=1 n=d#6 v=102
343265 On ch=1 n=d#5 v=105
343449 On ch=1 n=a5 v=0
343460 On ch=1 n=d#5 v=0
343469 On ch=1 n=d#6 v=0
343473 On ch=1 n=f#5 v=0
343512 On ch=1 n=b4 v=0
343515 On ch=1 n=a4 v=0
343629 On ch=1 n=d#4 v=0
343736 On ch=1 n=b3 v=0
344105 On ch=1 n=e2 v=127
344312 On ch=1 n=e2 v=0
344540 On ch=1 n=b3 v=57
344544 On ch=1 n=d#3 v=46
344572 On ch=1 n=f#3 v=49
344581 On ch=1 n=d#4 v=65
344593 On ch=1 n=b3 v=0
344612 On ch=1 n=a3 v=51
344620 On ch=1 n=d#3 v=0
344632 On ch=1 n=f#3 v=0
344656 On ch=1 n=a3 v=0
344666 On ch=1 n=b3 v=62
344666 On ch=1 n=f#4 v=56
344696 On ch=1 n=d#4 v=0
344696 On ch=1 n=a4 v=64
344713 On ch=1 n=b3 v=0
344733 On ch=1 n=f#4 v=0
344743 On ch=1 n=a4 v=0
344806 On ch=1 n=d#4 v=59
344813 On ch=1 n=b4 v=65
344853 On ch=1 n=f#4 v=66
344890 On ch=1 n=d#5 v=74
344902 On ch=1 n=d#4 v=0
344906 On ch=1 n=b4 v=0
344918 On ch=1 n=a4 v=70
344939 On ch=1 n=f#4 v=0
344946 On ch=1 n=a4 v=0
344963 On ch=1 n=f#5 v=70
344993 On ch=1 n=a5 v=70
345014 On ch=1 n=d#5 v=0
345035 On ch=1 n=a5 v=0
345035 On ch=1 n=f#5 v=0
345099 On ch=1 n=d#5 v=65
345110 On ch=1 n=b5 v=67
345162 On ch=1 n=f#5 v=57
345170 On ch=1 n=d#6 v=82
345190 On ch=1 n=b5 v=0
345198 On ch=1 n=f#5 v=0
345222 On ch=1 n=d#5 v=0
345222 On ch=1 n=b5 v=45
345246 On ch=1 n=f#6 v=72
345263 On ch=1 n=b5 v=0
345275 On ch=1 n=a6 v=72
345293 On ch=1 n=d#6 v=0
345319 On ch=1 n=f#6 v=0
345334 On ch=1 n=a6 v=0
345399 On ch=1 n=b6 v=64
345410 On ch=1 n=d#6 v=74
345458 On ch=1 n=d#7 v=75
345473 On ch=1 n=b6 v=0
345479 On ch=1 n=f#6 v=62
345502 On ch=1 n=f#7 v=78
345513 On ch=1 n=f#6 v=0
345519 On ch=1 n=d#6 v=0
345534 On ch=1 n=a7 v=85
345550 On ch=1 n=d#7 v=0
345574 On ch=1 n=b6 v=66
345575 On ch=1 n=f#7 v=0
345603 On ch=1 n=b6 v=0
345606 On ch=1 n=a7 v=0
345646 On ch=1 n=b7 v=89
345695 On ch=1 n=d#7 v=67
345714 On ch=1 n=d#8 v=105
345722 On ch=1 n=f#7 v=88
345850 On ch=1 n=f#7 v=0
345850 On ch=1 n=d#7 v=0
345910 On ch=1 n=d#8 v=0
345935 On ch=1 n=b7 v=0
346274 On ch=1 n=e3 v=62
346326 On ch=1 n=e3 v=0
346335 On ch=1 n=b3 v=74
346399 On ch=1 n=d#4 v=77
346502 On ch=1 n=f#5 v=100
346502 On ch=1 n=a4 v=100
346502 On ch=1 n=d#5 v=99
346506 On ch=1 n=a5 v=100
346526 On ch=1 n=f#4 v=78
346630 On ch=1 n=d#4 v=0
346639 On ch=1 n=f#4 v=0
346722 On ch=1 n=a4 v=0
346722 On ch=1 n=b3 v=0
346770 On ch=1 n=a5 v=0
346795 On ch=1 n=d#5 v=0
346803 On ch=1 n=f#5 v=0
346859 On ch=1 n=e3 v=65
346953 On ch=1 n=b3 v=65
346967 On ch=1 n=e3 v=0
347034 On ch=1 n=d#4 v=85
347146 On ch=1 n=a4 v=100
347307 On ch=1 n=c#6 v=106
347307 On ch=1 n=f#5 v=100
347307 On ch=1 n=d#5 v=99
347310 On ch=1 n=c#5 v=102
347489 On ch=1 n=a4 v=0
347519 On ch=1 n=d#4 v=0
347530 On ch=1 n=c#5 v=0
347530 On ch=1 n=c#6 v=0
347542 On ch=1 n=d#5 v=0
347575 On ch=1 n=f#5 v=0
347726 On ch=1 n=b3 v=0
348070 On ch=1 n=b4 v=98
348074 On ch=1 n=b5 v=103
348166 On ch=1 n=e3 v=82
348190 On ch=1 n=b4 v=0
348200 On ch=1 n=b5 v=0
348303 On ch=1 n=b4 v=98
348310 On ch=1 n=g#5 v=96
348310 On ch=1 n=e5 v=95
348312 Par ch=1 c=64 v=0
348420 On ch=1 n=b3 v=78
348439 On ch=1 n=e3 v=0
348451 Par ch=1 c=64 v=127
348547 On ch=1 n=e4 v=76
348730 On ch=1 n=g#4 v=106
348912 On ch=1 n=g#4 v=0
348927 On ch=1 n=e4 v=0
348984 On ch=1 n=b3 v=0
349136 On ch=1 n=e5 v=0
349180 On ch=1 n=g#5 v=0
349223 On ch=1 n=b4 v=0
349376 On ch=1 n=e2 v=127
349523 On ch=1 n=e2 v=0
349732 On ch=1 n=e3 v=45
349736 On ch=1 n=b3 v=58
349795 On ch=1 n=b3 v=0
349812 On ch=1 n=e4 v=53
349831 On ch=1 n=e3 v=0
349836 On ch=1 n=g#3 v=63
349884 On ch=1 n=g#3 v=0
349887 On ch=1 n=g#4 v=61
349892 On ch=1 n=e4 v=0
349892 On ch=1 n=b3 v=65
349931 On ch=1 n=g#4 v=0
349936 On ch=1 n=b3 v=0
350019 On ch=1 n=e4 v=67
350023 On ch=1 n=b4 v=63
350063 On ch=1 n=e4 v=0
350079 On ch=1 n=e5 v=66
350089 On ch=1 n=g#4 v=69
350100 On ch=1 n=b4 v=0
350133 On ch=1 n=g#4 v=0
350160 On ch=1 n=g#5 v=67
350164 On ch=1 n=b4 v=48
350176 On ch=1 n=e5 v=0
350200 On ch=1 n=b4 v=0
350210 On ch=1 n=g#5 v=0
350266 On ch=1 n=b5 v=73
350284 On ch=1 n=e5 v=58
350313 On ch=1 n=e5 v=0
350323 On ch=1 n=e6 v=74
350327 On ch=1 n=g#5 v=75
350341 On ch=1 n=b5 v=0
350398 On ch=1 n=g#6 v=71
350403 On ch=1 n=g#5 v=0
350414 On ch=1 n=e6 v=0
350421 On ch=1 n=b5 v=52
350446 On ch=1 n=b5 v=0
350463 On ch=1 n=g#6 v=0
350530 On ch=1 n=b6 v=60
350530 On ch=1 n=e6 v=77
350570 On ch=1 n=b6 v=0
350570 On ch=1 n=e7 v=78
350590 On ch=1 n=e6 v=0
350594 On ch=1 n=g#6 v=85
350630 On ch=1 n=g#6 v=0
350641 On ch=1 n=g#7 v=71
350662 On ch=1 n=e7 v=0
350666 On ch=1 n=g#7 v=0
350681 On ch=1 n=b6 v=59
350706 On ch=1 n=b6 v=0
350774 On ch=1 n=b7 v=85
350783 On ch=1 n=e7 v=59
350801 On ch=1 n=e7 v=0
350818 On ch=1 n=e8 v=95
350830 On ch=1 n=b7 v=0
350834 On ch=1 n=g#7 v=95
350887 On ch=1 n=g#7 v=0
350907 On ch=1 n=e8 v=0
351475 On ch=1 n=e3 v=67
351494 On ch=1 n=g#3 v=73
351511 On ch=1 n=b3 v=67
351554 On ch=1 n=e4 v=91
351558 On ch=1 n=b4 v=103
351570 On ch=1 n=e5 v=89
351570 On ch=1 n=g#4 v=106
351570 On ch=1 n=g#5 v=102
351878 On ch=1 n=e3 v=0
351978 On ch=1 n=g#5 v=0
351988 On ch=1 n=g#4 v=0
351991 On ch=1 n=b3 v=0
351995 On ch=1 n=e4 v=0
352000 On ch=1 n=e5 v=0
352012 On ch=1 n=g#3 v=0
352031 On ch=1 n=b4 v=0
352227 On ch=1 n=e3 v=104
352300 On ch=1 n=g#3 v=74
352315 On ch=1 n=b3 v=72
352343 On ch=1 n=e4 v=91
352391 On ch=1 n=g#4 v=106
352391 On ch=1 n=e5 v=91
352391 On ch=1 n=g#5 v=102
352394 On ch=1 n=b4 v=98
352627 On ch=1 n=e4 v=0
352639 On ch=1 n=b3 v=0
352672 On ch=1 n=e3 v=0
352688 On ch=1 n=g#3 v=0
352807 On ch=1 n=g#4 v=0
352811 On ch=1 n=b4 v=0
352820 On ch=1 n=e5 v=0
352871 On ch=1 n=g#5 v=0
352911 Par ch=1 c=64 v=0
352948 On ch=1 n=d#3 v=95
353060 Par ch=1 c=64 v=127
353195 On ch=1 n=d#3 v=0
353258 On ch=1 n=f#4 v=95
353258 On ch=1 n=g#3 v=91
353258 On ch=1 n=f#5 v=98
353267 On ch=1 n=c4 v=88
353271 On ch=1 n=c5 v=100
353271 On ch=1 n=g#5 v=105
353271 On ch=1 n=g#4 v=103
353360 Par ch=1 c=64 v=0
353451 Par ch=1 c=64 v=127
353747 On ch=1 n=f#4 v=0
353764 On ch=1 n=c4 v=0
353843 On ch=1 n=g#3 v=0
354051 On ch=1 n=f#5 v=0
354060 On ch=1 n=d#2 v=127
354074 On ch=1 n=c5 v=0
354080 On ch=1 n=g#4 v=0
354080 On ch=1 n=g#5 v=0
354199 On ch=1 n=d#2 v=0
354520 On ch=1 n=c4 v=53
354520 On ch=1 n=d#3 v=61
354558 On ch=1 n=f#3 v=60
354568 On ch=1 n=d#4 v=58
354579 On ch=1 n=c4 v=0
354627 On ch=1 n=g#3 v=57
354631 On ch=1 n=d#3 v=0
354640 On ch=1 n=f#4 v=58
354655 On ch=1 n=f#3 v=0
354664 On ch=1 n=c4 v=63
354672 On ch=1 n=g#3 v=0
354680 On ch=1 n=g#4 v=62
354683 On ch=1 n=d#4 v=0
354719 On ch=1 n=c4 v=0
354719 On ch=1 n=f#4 v=0
354724 On ch=1 n=g#4 v=0
354799 On ch=1 n=c5 v=66
354807 On ch=1 n=d#4 v=64
354851 On ch=1 n=f#4 v=66
354875 On ch=1 n=d#5 v=72
354884 On ch=1 n=c5 v=0
354907 On ch=1 n=d#4 v=0
354911 On ch=1 n=g#4 v=62
354940 On ch=1 n=f#4 v=0
354940 On ch=1 n=f#5 v=66
354955 On ch=1 n=g#4 v=0
354972 On ch=1 n=c5 v=65
354983 On ch=1 n=d#5 v=0
354983 On ch=1 n=g#5 v=64
355004 On ch=1 n=c5 v=0
355015 On ch=1 n=g#5 v=0
355015 On ch=1 n=f#5 v=0
355091 On ch=1 n=c6 v=69
355091 On ch=1 n=d#5 v=61
355135 On ch=1 n=f#5 v=65
355159 On ch=1 n=d#6 v=77
355167 On ch=1 n=c6 v=0
355175 On ch=1 n=g#5 v=55
355184 On ch=1 n=d#5 v=0
355207 On ch=1 n=f#6 v=72
355223 On ch=1 n=f#5 v=0
355231 On ch=1 n=g#5 v=0
355241 On ch=1 n=c6 v=60
355252 On ch=1 n=d#6 v=0
355252 On ch=1 n=g#6 v=68
355284 On ch=1 n=g#6 v=0
355284 On ch=1 n=c6 v=0
355284 On ch=1 n=f#6 v=0
355368 On ch=1 n=c7 v=60
355371 On ch=1 n=d#6 v=61
355409 On ch=1 n=f#6 v=67
355416 On ch=1 n=c7 v=0
355416 On ch=1 n=d#7 v=74
355457 On ch=1 n=d#6 v=0
355457 On ch=1 n=f#7 v=78
355457 On ch=1 n=g#6 v=64
355481 On ch=1 n=f#6 v=0
355488 On ch=1 n=g#6 v=0
355488 On ch=1 n=g#7 v=75
355504 On ch=1 n=d#7 v=0
355529 On ch=1 n=f#7 v=0
355529 On ch=1 n=c7 v=69
355537 On ch=1 n=g#7 v=0
355552 On ch=1 n=c7 v=0
355608 On ch=1 n=c8 v=76
355636 On ch=1 n=d#7 v=71
355664 On ch=1 n=d#8 v=77
355688 On ch=1 n=f#7 v=84
355698 On ch=1 n=f#8 v=95
355721 On ch=1 n=g#7 v=88
355841 On ch=1 n=f#8 v=0
355851 On ch=1 n=f#7 v=0
355858 On ch=1 n=g#7 v=0
355870 On ch=1 n=d#7 v=0
355970 On ch=1 n=d#8 v=0
356054 On ch=1 n=c8 v=0
356322 On ch=1 n=d#3 v=75
356391 On ch=1 n=g#3 v=65
356402 On ch=1 n=c4 v=64
356435 On ch=1 n=c5 v=92
356439 On ch=1 n=g#5 v=105
356439 On ch=1 n=f#5 v=94
356439 On ch=1 n=g#4 v=105
356451 On ch=1 n=f#4 v=92
356631 On ch=1 n=d#3 v=0
356694 On ch=1 n=f#4 v=0
356709 On ch=1 n=c4 v=0
356731 On ch=1 n=g#3 v=0
356842 On ch=1 n=c5 v=0
356849 On ch=1 n=g#5 v=0
356855 On ch=1 n=g#4 v=0
356899 On ch=1 n=f#5 v=0
356990 On ch=1 n=d#3 v=92
357062 On ch=1 n=g#3 v=67
357083 On ch=1 n=c4 v=67
357122 On ch=1 n=f#4 v=98
357166 On ch=1 n=f#5 v=98
357166 On ch=1 n=a4 v=110
357166 On ch=1 n=c5 v=104
357170 On ch=1 n=a5 v=106
357426 On ch=1 n=a5 v=0
357486 On ch=1 n=a4 v=0
357490 On ch=1 n=c5 v=0
357511 On ch=1 n=f#5 v=0
357511 On ch=1 n=f#4 v=0
357542 On ch=1 n=c4 v=0
357598 On ch=1 n=d#3 v=0
357631 On ch=1 n=g#3 v=0
357954 On ch=1 n=g#4 v=105
357958 On ch=1 n=g#5 v=102
358042 On ch=1 n=c#3 v=100
358118 On ch=1 n=g#5 v=0
358129 On ch=1 n=g#4 v=0
358199 On ch=1 n=g#4 v=115
358206 On ch=1 n=g#5 v=110
358206 On ch=1 n=c#5 v=96
358206 On ch=1 n=f5 v=92
358218 Par ch=1 c=64 v=0
358389 Par ch=1 c=64 v=127
358398 On ch=1 n=g#3 v=67
358409 On ch=1 n=c#3 v=0
358499 On ch=1 n=c#4 v=87
358582 On ch=1 n=f4 v=100
358955 On ch=1 n=f4 v=0
359009 On ch=1 n=c#4 v=0
359091 On ch=1 n=g#3 v=0
359322 On ch=1 n=c#2 v=127
359466 On ch=1 n=f5 v=0
359482 On ch=1 n=c#5 v=0
359502 On ch=1 n=g#5 v=0
359509 On ch=1 n=c#2 v=0
359539 On ch=1 n=g#4 v=0
359738 On ch=1 n=g#2 v=59
359746 On ch=1 n=f3 v=53
359806 On ch=1 n=f3 v=0
359806 On ch=1 n=g#3 v=63
359822 On ch=1 n=c#3 v=63
359854 On ch=1 n=g#2 v=0
359882 On ch=1 n=c#3 v=0
359894 On ch=1 n=c#4 v=61
359894 On ch=1 n=f3 v=63
359909 On ch=1 n=g#3 v=0
359942 On ch=1 n=f3 v=0
359952 On ch=1 n=c#4 v=0
360015 On ch=1 n=g#3 v=54
360019 On ch=1 n=f4 v=64
360079 On ch=1 n=c#4 v=68
360096 On ch=1 n=f4 v=0
360096 On ch=1 n=g#4 v=69
360099 On ch=1 n=g#3 v=0
360151 On ch=1 n=c#4 v=0
360166 On ch=1 n=c#5 v=70
360176 On ch=1 n=f4 v=59
360188 On ch=1 n=g#4 v=0
360216 On ch=1 n=f4 v=0
360236 On ch=1 n=c#5 v=0
360284 On ch=1 n=g#4 v=55
360296 On ch=1 n=f5 v=71
360357 On ch=1 n=c#5 v=67
360368 On ch=1 n=g#4 v=0
360368 On ch=1 n=g#5 v=71
360383 On ch=1 n=f5 v=0
360400 On ch=1 n=c#5 v=0
360429 On ch=1 n=c#6 v=73
360429 On ch=1 n=f5 v=51
360463 On ch=1 n=g#5 v=0
360473 On ch=1 n=f5 v=0
360493 On ch=1 n=c#6 v=0
360550 On ch=1 n=g#5 v=65
360562 On ch=1 n=f6 v=68
360617 On ch=1 n=g#6 v=71
360621 On ch=1 n=c#6 v=69
360625 On ch=1 n=f6 v=0
360640 On ch=1 n=g#5 v=0
360661 On ch=1 n=c#6 v=0
360669 On ch=1 n=c#7 v=77
360676 On ch=1 n=g#6 v=0
360697 On ch=1 n=c#7 v=0
360825 On ch=1 n=g#6 v=64
360860 On ch=1 n=c#7 v=64
360870 On ch=1 n=c#8 v=81
360957 On ch=1 n=f7 v=81
360962 On ch=1 n=f8 v=92
360966 On ch=1 n=g#7 v=95
361014 On ch=1 n=c#8 v=0
361130 On ch=1 n=f7 v=0
361145 On ch=1 n=f8 v=0
361177 On ch=1 n=c#7 v=0
361182 On ch=1 n=g#7 v=0
361206 On ch=1 n=g#6 v=0
361574 On ch=1 n=c#3 v=75
361633 On ch=1 n=g#3 v=65
361643 On ch=1 n=c#3 v=0
361686 On ch=1 n=c#4 v=78
361730 On ch=1 n=g#5 v=102
361730 On ch=1 n=c#5 v=96
361730 On ch=1 n=g#4 v=94
361730 On ch=1 n=f4 v=84
361734 On ch=1 n=f5 v=87
361898 On ch=1 n=f4 v=0
361926 On ch=1 n=c#4 v=0
362143 On ch=1 n=g#3 v=0
362197 On ch=1 n=g#4 v=0
362218 On ch=1 n=g#5 v=0
362226 On ch=1 n=c#3 v=70
362274 On ch=1 n=c#5 v=0
362298 On ch=1 n=f5 v=0
362299 On ch=1 n=g#3 v=74
362338 On ch=1 n=c#3 v=0
362374 On ch=1 n=c#4 v=84
362434 On ch=1 n=f4 v=94
362539 On ch=1 n=f5 v=92
362539 On ch=1 n=c#5 v=100
362543 On ch=1 n=g#4 v=103
362543 On ch=1 n=g#5 v=100
362750 On ch=1 n=f4 v=0
362750 On ch=1 n=c#4 v=0
362759 On ch=1 n=g#3 v=0
362837 On ch=1 n=g#4 v=0
362890 On ch=1 n=c#5 v=0
362899 On ch=1 n=f5 v=0
362943 On ch=1 n=g#5 v=0
363167 On ch=1 n=a#3 v=110
363178 Par ch=1 c=64 v=0
363318 Par ch=1 c=64 v=127
363434 On ch=1 n=a#5 v=95
363437 On ch=1 n=c#4 v=88
363443 On ch=1 n=a#4 v=100
363443 On ch=1 n=c#6 v=102
363443 On ch=1 n=c#5 v=103
363458 On ch=1 n=f5 v=105
363458 On ch=1 n=f4 v=88
363906 On ch=1 n=a#4 v=0
364037 On ch=1 n=f4 v=0
364179 On ch=1 n=c#4 v=0
364194 On ch=1 n=a#3 v=0
364458 On ch=1 n=f5 v=0
364519 On ch=1 n=a#2 v=127
364566 On ch=1 n=a#5 v=0
364659 On ch=1 n=c#6 v=0
364703 On ch=1 n=c#5 v=0
364819 On ch=1 n=a#2 v=0
365119 On ch=1 n=a#2 v=58
365134 On ch=1 n=f3 v=63
365237 On ch=1 n=f3 v=0
365254 On ch=1 n=c#3 v=59
365266 On ch=1 n=a#2 v=0
365270 On ch=1 n=a#3 v=65
365314 On ch=1 n=c#3 v=0
365351 On ch=1 n=f3 v=53
365359 On ch=1 n=a#3 v=0
365374 On ch=1 n=c#4 v=59
365390 On ch=1 n=f3 v=0
365418 On ch=1 n=c#4 v=0
365477 On ch=1 n=f4 v=66
365531 On ch=1 n=c#4 v=59
365539 On ch=1 n=f4 v=0
365570 On ch=1 n=c#4 v=0
365578 On ch=1 n=a#4 v=74
365626 On ch=1 n=f4 v=56
365643 On ch=1 n=c#5 v=68
365657 On ch=1 n=a#4 v=0
365671 On ch=1 n=f4 v=0
365686 On ch=1 n=c#5 v=0
365747 On ch=1 n=a#4 v=56
365759 On ch=1 n=f5 v=72
365790 On ch=1 n=a#4 v=0
365823 On ch=1 n=c#5 v=50
365834 On ch=1 n=a#5 v=78
365850 On ch=1 n=f5 v=0
365854 On ch=1 n=c#5 v=0
365894 On ch=1 n=c#6 v=78
365914 On ch=1 n=a#5 v=0
365937 On ch=1 n=c#6 v=0
366007 On ch=1 n=f6 v=75
366010 On ch=1 n=a#5 v=46
366043 On ch=1 n=a#5 v=0
366062 On ch=1 n=f6 v=0
366077 On ch=1 n=a#6 v=77
366094 On ch=1 n=c#6 v=24
366113 On ch=1 n=c#7 v=77
366134 On ch=1 n=a#6 v=0
366146 On ch=1 n=c#7 v=0
366178 On ch=1 n=c#6 v=0
366222 On ch=1 n=f7 v=73
366267 On ch=1 n=f7 v=0
366279 On ch=1 n=a#7 v=74
366279 On ch=1 n=a#6 v=57
366326 On ch=1 n=c#8 v=81
366336 On ch=1 n=c#7 v=41
366340 On ch=1 n=a#7 v=0
366376 On ch=1 n=f8 v=90
366380 On ch=1 n=a#7 v=84
366400 On ch=1 n=f7 v=83
366456 On ch=1 n=c#8 v=0
366463 On ch=1 n=c#7 v=0
366575 On ch=1 n=f7 v=0
366634 On ch=1 n=a#6 v=0
366660 On ch=1 n=f8 v=0
366695 On ch=1 n=a#7 v=0
367084 On ch=1 n=a#3 v=75
367124 On ch=1 n=c#4 v=71
367156 On ch=1 n=f4 v=73
367171 On ch=1 n=a#4 v=99
367187 On ch=1 n=c#6 v=106
367190 On ch=1 n=a#5 v=95
367190 On ch=1 n=c#5 v=110
367196 On ch=1 n=f5 v=98
367667 On ch=1 n=a#4 v=0
367667 On ch=1 n=f4 v=0
367667 On ch=1 n=c#4 v=0
367703 On ch=1 n=a#3 v=0
367784 On ch=1 n=f5 v=0
367831 On ch=1 n=a#5 v=0
367843 On ch=1 n=c#6 v=0
367864 On ch=1 n=c#5 v=0
367904 On ch=1 n=a#3 v=88
368008 On ch=1 n=d4 v=73
368011 On ch=1 n=f4 v=76
368040 On ch=1 n=a#4 v=96
368131 On ch=1 n=a#5 v=100
368131 On ch=1 n=d6 v=102
368135 On ch=1 n=f5 v=102
368140 On ch=1 n=d5 v=115
368228 Par ch=1 c=64 v=0
368450 Par ch=1 c=64 v=127
368844 On ch=1 n=d6 v=0
368875 On ch=1 n=d5 v=0
368919 On ch=1 n=f5 v=0
368964 On ch=1 n=a#5 v=0
370247 On ch=1 n=a#4 v=0
370303 On ch=1 n=c#5 v=120
370307 On ch=1 n=c#6 v=100
370415 On ch=1 n=f4 v=0
370475 On ch=1 n=c#6 v=0
370494 On ch=1 n=d4 v=0
370534 On ch=1 n=a#3 v=0
370544 On ch=1 n=c#5 v=0
370611 Par ch=1 c=64 v=0
370684 On ch=1 n=c#5 v=110
370684 On ch=1 n=f#2 v=127
370691 On ch=1 n=f#3 v=120
370695 On ch=1 n=f#5 v=100
370695 On ch=1 n=a5 v=105
370695 On ch=1 n=c#6 v=110
370711 Par ch=1 c=64 v=127
370951 On ch=1 n=f#2 v=0
370955 On ch=1 n=f#3 v=0
370956 On ch=1 n=c#6 v=0
370956 On ch=1 n=a5 v=0
370956 On ch=1 n=f#5 v=0
372147 On ch=1 n=c7 v=86
372151 On ch=1 n=f#6 v=70
372151 On ch=1 n=a5 v=49
372151 On ch=1 n=f#5 v=51
372155 On ch=1 n=a4 v=57
372156 On ch=1 n=c#5 v=0
372156 On ch=1 n=c#6 v=57
372347 On ch=1 n=a4 v=0
372347 On ch=1 n=f#6 v=0
372363 On ch=1 n=c7 v=0
372531 On ch=1 n=c#7 v=91
372536 On ch=1 n=c#5 v=68
372536 On ch=1 n=a4 v=70
372540 On ch=1 n=f#6 v=70
372544 On ch=1 n=a5 v=0
372555 On ch=1 n=c#6 v=0
372555 On ch=1 n=f#5 v=0
372571 On ch=1 n=f#6 v=0
372583 On ch=1 n=a4 v=0
372647 On ch=1 n=c#7 v=0
372703 On ch=1 n=c#5 v=0
372856 On ch=1 n=f#7 v=100
372856 On ch=1 n=a4 v=75
372860 On ch=1 n=c#5 v=75
372871 On ch=1 n=f#5 v=75
372875 On ch=1 n=f#5 v=0
372875 On ch=1 n=c#5 v=0
372875 On ch=1 n=a6 v=83
372875 On ch=1 n=a5 v=78
372875 On ch=1 n=f#6 v=74
372916 On ch=1 n=a5 v=0
373016 On ch=1 n=f#6 v=0
373068 On ch=1 n=a4 v=0
373083 On ch=1 n=f#7 v=0
373120 On ch=1 n=a6 v=0
373183 On ch=1 n=f7 v=96
373183 On ch=1 n=f#6 v=87
373190 On ch=1 n=a6 v=82
373190 On ch=1 n=a4 v=75
373194 On ch=1 n=a5 v=75
373194 On ch=1 n=f#5 v=77
373194 On ch=1 n=c#5 v=73
373196 On ch=1 n=c#5 v=0
373214 On ch=1 n=a5 v=0
373255 On ch=1 n=f#5 v=0
373334 On ch=1 n=f7 v=0
373351 On ch=1 n=a4 v=0
373367 On ch=1 n=f#6 v=0
373391 On ch=1 n=a6 v=0
373490 On ch=1 n=e7 v=93
373490 On ch=1 n=f#6 v=75
373490 On ch=1 n=a6 v=85
373490 On ch=1 n=c#5 v=54
373490 On ch=1 n=a5 v=58
373494 On ch=1 n=f#5 v=59
373494 On ch=1 n=a4 v=61
373499 On ch=1 n=f#5 v=0
373499 On ch=1 n=a5 v=0
373575 On ch=1 n=c#5 v=0
373607 On ch=1 n=a4 v=0
373651 On ch=1 n=f#6 v=0
373667 On ch=1 n=e7 v=0
373676 On ch=1 n=a6 v=0
373751 On ch=1 n=d#7 v=89
373760 On ch=1 n=f#6 v=81
373760 On ch=1 n=a6 v=82
373767 On ch=1 n=a4 v=58
373767 On ch=1 n=c#5 v=51
373767 On ch=1 n=a5 v=51
373767 On ch=1 n=f#5 v=54
373776 On ch=1 n=c#5 v=0
373807 On ch=1 n=f#5 v=0
373807 On ch=1 n=a5 v=0
373854 On ch=1 n=a4 v=0
373907 On ch=1 n=f#6 v=0
373915 On ch=1 n=a6 v=0
373976 On ch=1 n=d#7 v=0
374019 On ch=1 n=d7 v=92
374019 On ch=1 n=a4 v=57
374023 On ch=1 n=a6 v=83
374031 On ch=1 n=f#6 v=78
374031 On ch=1 n=a5 v=55
374031 On ch=1 n=c#5 v=51
374031 On ch=1 n=f#5 v=53
374034 On ch=1 n=f#5 v=0
374051 On ch=1 n=c#5 v=0
374051 On ch=1 n=a5 v=0
374131 On ch=1 n=a4 v=0
374135 On ch=1 n=a6 v=0
374151 On ch=1 n=f#6 v=0
374151 On ch=1 n=d7 v=0
374304 On ch=1 n=c#7 v=100
374304 On ch=1 n=a4 v=56
374315 On ch=1 n=f#6 v=81
374315 On ch=1 n=c#6 v=84
374315 On ch=1 n=c#5 v=48
374316 On ch=1 n=a5 v=51
374331 On ch=1 n=a5 v=0
374331 On ch=1 n=c#5 v=0
374331 On ch=1 n=f#5 v=49
374347 On ch=1 n=f#5 v=0
374427 On ch=1 n=a4 v=0
374476 On ch=1 n=c#6 v=0
374480 On ch=1 n=f#6 v=0
374500 On ch=1 n=c#7 v=0
374596 On ch=1 n=c7 v=96
374604 On ch=1 n=f#6 v=82
374604 On ch=1 n=a4 v=55
374604 On ch=1 n=c#6 v=80
374604 On ch=1 n=c#5 v=52
374604 On ch=1 n=a5 v=49
374604 On ch=1 n=f#5 v=56
374616 On ch=1 n=f#5 v=0
374616 On ch=1 n=a5 v=0
374616 On ch=1 n=c#5 v=0
374616 On ch=1 n=c#6 v=0
374723 On ch=1 n=a4 v=0
374776 On ch=1 n=f#6 v=0
374776 On ch=1 n=c7 v=0
374896 On ch=1 n=b6 v=89
374896 On ch=1 n=a4 v=51
374896 On ch=1 n=f#6 v=67
374900 On ch=1 n=c#6 v=70
374900 On ch=1 n=c#5 v=51
374903 On ch=1 n=a5 v=51
374913 On ch=1 n=a5 v=0
374913 On ch=1 n=c#5 v=0
374913 On ch=1 n=c#6 v=0
374913 On ch=1 n=f#5 v=51
374952 On ch=1 n=f#5 v=0
375021 On ch=1 n=f#6 v=0
375032 On ch=1 n=a4 v=0
375104 On ch=1 n=b6 v=0
375191 On ch=1 n=a#6 v=82
375193 On ch=1 n=f#6 v=74
375193 On ch=1 n=a5 v=52
375197 On ch=1 n=a4 v=48
375197 On ch=1 n=c#5 v=47
375197 On ch=1 n=c#6 v=66
375197 On ch=1 n=f#5 v=54
375201 On ch=1 n=f#5 v=0
375244 On ch=1 n=a5 v=0
375253 On ch=1 n=c#6 v=0
375253 On ch=1 n=c#5 v=0
375284 On ch=1 n=a4 v=0
375292 On ch=1 n=f#6 v=0
375345 On ch=1 n=a#6 v=0
375487 On ch=1 n=a6 v=85
375493 On ch=1 n=c#5 v=50
375493 On ch=1 n=f#5 v=54
375493 On ch=1 n=c#6 v=70
375493 On ch=1 n=a4 v=51
375493 On ch=1 n=a5 v=51
375507 On ch=1 n=c#6 v=0
375507 On ch=1 n=c#5 v=0
375517 On ch=1 n=f#5 v=0
375521 On ch=1 n=a5 v=0
375568 On ch=1 n=a4 v=0
375688 On ch=1 n=a6 v=0
375824 On ch=1 n=g#6 v=75
375833 On ch=1 n=c#6 v=63
375833 On ch=1 n=c#5 v=48
375833 On ch=1 n=f#5 v=46
375833 On ch=1 n=a4 v=54
375833 On ch=1 n=a5 v=54
375834 On ch=1 n=a5 v=0
375837 On ch=1 n=c#5 v=0
375853 On ch=1 n=f#5 v=0
375853 On ch=1 n=c#6 v=0
375945 On ch=1 n=a4 v=0
376000 On ch=1 n=g#6 v=0
376164 On ch=1 n=g6 v=70
376164 On ch=1 n=c#6 v=49
376168 On ch=1 n=a5 v=51
376168 On ch=1 n=c#5 v=44
376173 On ch=1 n=c#6 v=0
376173 On ch=1 n=f#5 v=41
376173 On ch=1 n=a4 v=47
376174 On ch=1 n=f#5 v=0
376177 On ch=1 n=c#5 v=0
376228 On ch=1 n=a5 v=0
376293 On ch=1 n=a4 v=0
376401 On ch=1 n=g6 v=0
376552 On ch=1 n=f#6 v=57
376552 On ch=1 n=a5 v=48
376560 On ch=1 n=f#5 v=44
376560 On ch=1 n=c#6 v=47
376560 On ch=1 n=a4 v=46
376570 On ch=1 n=c#5 v=41
376571 On ch=1 n=c#5 v=0
376581 On ch=1 n=a5 v=0
376621 On ch=1 n=c#6 v=0
376625 On ch=1 n=f#5 v=0
376682 On ch=1 n=a4 v=0
376714 On ch=1 n=f#6 v=0
377085 On ch=1 n=a2 v=100
377088 On ch=1 n=a3 v=91
377145 Par ch=1 c=64 v=0
377325 Par ch=1 c=64 v=127
377337 On ch=1 n=a2 v=0
377381 On ch=1 n=a3 v=0
377665 On ch=1 n=d#6 v=83
377709 On ch=1 n=a5 v=44
377717 On ch=1 n=c5 v=42
377729 On ch=1 n=e5 v=41
377729 On ch=1 n=a4 v=42
377770 On ch=1 n=e4 v=41
377802 On ch=1 n=a4 v=0
377802 On ch=1 n=e5 v=0
377845 On ch=1 n=d#6 v=0
377862 On ch=1 n=e4 v=0
377889 On ch=1 n=c5 v=0
377937 On ch=1 n=a5 v=0
377988 On ch=1 n=e6 v=84
377994 On ch=1 n=c6 v=75
378005 On ch=1 n=e4 v=48
378008 On ch=1 n=a4 v=53
378022 On ch=1 n=a5 v=41
378022 On ch=1 n=c5 v=43
378029 On ch=1 n=e5 v=41
378085 On ch=1 n=a5 v=0
378085 On ch=1 n=e4 v=0
378090 On ch=1 n=c5 v=0
378094 On ch=1 n=e5 v=0
378109 On ch=1 n=c6 v=0
378121 On ch=1 n=a4 v=0
378157 On ch=1 n=e6 v=0
378277 On ch=1 n=a6 v=89
378281 On ch=1 n=a4 v=49
378290 On ch=1 n=e4 v=52
378294 On ch=1 n=c6 v=61
378308 On ch=1 n=e5 v=39
378308 On ch=1 n=a5 v=60
378308 On ch=1 n=c5 v=41
378369 On ch=1 n=e5 v=0
378369 On ch=1 n=e4 v=0
378414 On ch=1 n=a5 v=0
378414 On ch=1 n=a4 v=0
378421 On ch=1 n=c5 v=0
378421 On ch=1 n=a6 v=0
378574 On ch=1 n=g#6 v=91
378585 On ch=1 n=e4 v=50
378585 On ch=1 n=a4 v=50
378590 On ch=1 n=e5 v=41
378605 On ch=1 n=a5 v=54
378614 On ch=1 n=c5 v=40
378697 On ch=1 n=e5 v=0
378707 On ch=1 n=c5 v=0
378715 On ch=1 n=a4 v=0
378726 On ch=1 n=e4 v=0
378754 On ch=1 n=g#6 v=0
378771 On ch=1 n=a5 v=0
378825 On ch=1 n=c6 v=0
378875 On ch=1 n=g6 v=77
378886 On ch=1 n=e4 v=48
378905 On ch=1 n=e5 v=43
378919 On ch=1 n=a5 v=49
378919 On ch=1 n=a4 v=41
378926 On ch=1 n=c6 v=40
378938 On ch=1 n=c5 v=41
379014 On ch=1 n=c5 v=0
379014 On ch=1 n=a4 v=0
379025 On ch=1 n=e5 v=0
379035 On ch=1 n=e4 v=0
379042 On ch=1 n=a5 v=0
379107 On ch=1 n=c6 v=0
379171 On ch=1 n=g6 v=0
379226 On ch=1 n=f#6 v=61
379238 On ch=1 n=e5 v=41
379242 On ch=1 n=e4 v=42
379251 On ch=1 n=a4 v=41
379254 On ch=1 n=c6 v=40
379262 On ch=1 n=a5 v=41
379346 On ch=1 n=c6 v=0
379366 On ch=1 n=e4 v=0
379382 On ch=1 n=a5 v=0
379392 On ch=1 n=f#6 v=0
379408 On ch=1 n=e5 v=0
379428 On ch=1 n=a4 v=0
379582 On ch=1 n=f6 v=59
379592 On ch=1 n=e5 v=45
379602 On ch=1 n=e4 v=42
379602 On ch=1 n=a5 v=41
379617 On ch=1 n=c6 v=40
379633 On ch=1 n=e5 v=0
379665 On ch=1 n=a5 v=0
379675 On ch=1 n=f6 v=0
379679 On ch=1 n=c6 v=0
379694 On ch=1 n=e4 v=0
380035 On ch=1 n=e6 v=68
380078 On ch=1 n=c3 v=90
380078 On ch=1 n=e5 v=41
380086 On ch=1 n=a5 v=40
380086 Par ch=1 c=64 v=0
380255 Par ch=1 c=64 v=127
380273 On ch=1 n=a5 v=0
380306 On ch=1 n=e5 v=0
380335 On ch=1 n=c3 v=0
380515 On ch=1 n=d#6 v=68
380550 On ch=1 n=e6 v=0
380550 On ch=1 n=a5 v=39
380559 On ch=1 n=e5 v=42
380559 On ch=1 n=a4 v=45
380570 On ch=1 n=e4 v=41
380574 On ch=1 n=c4 v=40
380618 On ch=1 n=a5 v=0
380633 On ch=1 n=e5 v=0
380654 On ch=1 n=a4 v=0
380663 On ch=1 n=c4 v=0
380674 On ch=1 n=e4 v=0
380675 On ch=1 n=d#6 v=0
380847 On ch=1 n=d6 v=66
380855 On ch=1 n=e4 v=40
380858 On ch=1 n=c4 v=40
380866 On ch=1 n=a4 v=39
380873 On ch=1 n=e5 v=42
380934 On ch=1 n=e5 v=0
380946 On ch=1 n=c4 v=0
380963 On ch=1 n=a4 v=0
380966 On ch=1 n=e4 v=0
381146 On ch=1 n=c#6 v=71
381154 On ch=1 n=e4 v=37
381158 On ch=1 n=c4 v=40
381162 On ch=1 n=a4 v=41
381190 On ch=1 n=d6 v=0
381194 On ch=1 n=e5 v=40
381226 Par ch=1 c=67 v=127
381234 On ch=1 n=c#6 v=0
381246 On ch=1 n=c4 v=0
381249 On ch=1 n=e5 v=0
381273 On ch=1 n=a4 v=0
381302 On ch=1 n=e4 v=0
381473 On ch=1 n=c6 v=64
381494 On ch=1 n=e5 v=46
381494 On ch=1 n=c4 v=42
381494 On ch=1 n=e4 v=38
381494 On ch=1 n=c5 v=45
381495 On ch=1 n=a4 v=39
381573 On ch=1 n=c5 v=0
381583 On ch=1 n=c4 v=0
381594 On ch=1 n=a4 v=0
381606 On ch=1 n=c6 v=0
381613 On ch=1 n=e4 v=0
381699 On ch=1 n=e5 v=0
381822 On ch=1 n=b5 v=60
381822 On ch=1 n=c4 v=41
381822 On ch=1 n=a4 v=37
381822 On ch=1 n=e4 v=41
381826 On ch=1 n=e5 v=38
381913 On ch=1 n=e5 v=0
381963 On ch=1 n=e4 v=0
381974 On ch=1 n=a4 v=0
381986 On ch=1 n=c4 v=0
382075 On ch=1 n=b5 v=0
382215 On ch=1 n=c4 v=40
382223 On ch=1 n=a#5 v=51
382223 On ch=1 n=e4 v=41
382223 On ch=1 n=a4 v=38
382223 On ch=1 n=c5 v=39
382223 On ch=1 n=e5 v=41
382302 On ch=1 n=e5 v=0
382346 On ch=1 n=a#5 v=0
382390 On ch=1 n=c5 v=0
382399 On ch=1 n=c4 v=0
382415 On ch=1 n=a4 v=0
382439 On ch=1 n=e4 v=0
382675 On ch=1 n=a5 v=42
382675 On ch=1 n=c4 v=37
382682 On ch=1 n=e4 v=41
382682 On ch=1 n=e5 v=38
382682 On ch=1 n=c5 v=40
382682 On ch=1 n=a4 v=38
382766 On ch=1 n=a4 v=0
382830 Par ch=1 c=67 v=0
382846 On ch=1 n=e5 v=0
382866 On ch=1 n=e4 v=0
382874 On ch=1 n=c4 v=0
382886 On ch=1 n=c5 v=0
382967 On ch=1 n=a5 v=0
383453 Par ch=1 c=64 v=0
383499 On ch=1 n=e2 v=64
383553 Par ch=1 c=64 v=127
383799 On ch=1 n=e2 v=0
384655 On ch=1 n=b3 v=35
384662 On ch=1 n=g5 v=45
384670 On ch=1 n=g#4 v=45
384673 On ch=1 n=e4 v=39
384683 On ch=1 n=e5 v=38
384707 On ch=1 n=b4 v=33
384854 On ch=1 n=b4 v=0
384855 On ch=1 n=g5 v=0
384903 On ch=1 n=g#4 v=0
384922 On ch=1 n=e4 v=0
384922 On ch=1 n=b3 v=0
384966 On ch=1 n=e5 v=0
385063 On ch=1 n=g#5 v=60
385066 On ch=1 n=e4 v=43
385066 On ch=1 n=g#4 v=42
385074 On ch=1 n=b3 v=33
385075 On ch=1 n=e5 v=40
385083 On ch=1 n=b4 v=43
385166 On ch=1 n=b4 v=0
385243 On ch=1 n=e5 v=0
385250 On ch=1 n=b3 v=0
385262 On ch=1 n=e4 v=0
385273 On ch=1 n=g#4 v=0
385302 On ch=1 n=g#5 v=0
385390 On ch=1 n=c#6 v=75
385402 On ch=1 n=e4 v=43
385406 On ch=1 n=g#4 v=44
385415 On ch=1 n=b4 v=48
385430 On ch=1 n=b3 v=32
385530 On ch=1 n=b3 v=0
385566 On ch=1 n=b4 v=0
385569 On ch=1 n=c#6 v=0
385583 On ch=1 n=g#4 v=0
385599 On ch=1 n=e4 v=0
385719 On ch=1 n=c6 v=69
385719 On ch=1 n=e5 v=51
385723 On ch=1 n=g#4 v=44
385730 On ch=1 n=e4 v=47
385734 On ch=1 n=b4 v=52
385746 On ch=1 n=b3 v=35
385843 On ch=1 n=b3 v=0
385854 On ch=1 n=b4 v=0
385855 On ch=1 n=g#4 v=0
385855 On ch=1 n=c6 v=0
385899 On ch=1 n=e4 v=0
385899 On ch=1 n=e5 v=0
386026 On ch=1 n=b5 v=79
386035 On ch=1 n=e4 v=44
386035 On ch=1 n=e5 v=58
386035 On ch=1 n=b4 v=59
386039 On ch=1 n=g#4 v=44
386043 On ch=1 n=b3 v=38
386155 On ch=1 n=g#4 v=0
386167 On ch=1 n=b3 v=0
386170 On ch=1 n=b4 v=0
386226 On ch=1 n=e5 v=0
386226 On ch=1 n=e4 v=0
386243 On ch=1 n=b5 v=0
386313 On ch=1 n=a#5 v=69
386319 On ch=1 n=b4 v=55
386330 On ch=1 n=b3 v=40
386330 On ch=1 n=e5 v=58
386334 On ch=1 n=g#4 v=42
386338 On ch=1 n=e4 v=48
386410 On ch=1 n=b3 v=0
386435 On ch=1 n=g#4 v=0
386453 On ch=1 n=e4 v=0
386535 On ch=1 n=e5 v=0
386535 On ch=1 n=a#5 v=0
386542 On ch=1 n=b4 v=0
386622 On ch=1 n=a5 v=70
386622 On ch=1 n=g#4 v=40
386634 On ch=1 n=e4 v=37
386642 On ch=1 n=b3 v=37
386649 On ch=1 n=e5 v=57
386679 On ch=1 n=g#4 v=0
386687 On ch=1 n=b4 v=46
386694 On ch=1 n=e4 v=0
386710 On ch=1 n=b3 v=0
386720 On ch=1 n=e5 v=0
386727 On ch=1 n=b4 v=0
386783 On ch=1 n=a5 v=0
387039 On ch=1 n=b5 v=78
387043 On ch=1 n=g#5 v=60
387052 On ch=1 n=e2 v=65
387060 Par ch=1 c=64 v=0
387071 On ch=1 n=b4 v=42
387071 On ch=1 n=d#5 v=50
387099 Par ch=1 c=64 v=127
387251 On ch=1 n=g#5 v=0
387312 On ch=1 n=b4 v=0
387315 On ch=1 n=d#5 v=0
387352 On ch=1 n=e2 v=0
387527 On ch=1 n=g5 v=50
387537 On ch=1 n=b3 v=41
387548 On ch=1 n=a4 v=36
387564 On ch=1 n=b4 v=35
387564 On ch=1 n=d#5 v=36
387567 On ch=1 n=d#4 v=34
387636 On ch=1 n=b3 v=0
387647 On ch=1 n=d#4 v=0
387647 On ch=1 n=d#5 v=0
387647 On ch=1 n=a4 v=0
387676 On ch=1 n=b4 v=0
387676 On ch=1 n=g5 v=0
387877 On ch=1 n=b3 v=45
387877 On ch=1 n=g5 v=50
387877 On ch=1 n=a4 v=37
387889 On ch=1 n=d#4 v=41
387889 On ch=1 n=b4 v=36
387920 On ch=1 n=d#5 v=33
387964 On ch=1 n=d#4 v=0
387964 On ch=1 n=b3 v=0
387968 On ch=1 n=a4 v=0
387987 On ch=1 n=d#5 v=0
388008 On ch=1 n=b4 v=0
388213 On ch=1 n=f#5 v=50
388217 On ch=1 n=b3 v=42
388220 On ch=1 n=b4 v=36
388228 On ch=1 n=a4 v=36
388229 On ch=1 n=d#4 v=33
388232 On ch=1 n=d#5 v=34
388280 On ch=1 n=f#5 v=0
388289 On ch=1 n=d#5 v=0
388289 On ch=1 n=d#4 v=0
388297 On ch=1 n=b4 v=0
388304 On ch=1 n=a4 v=0
388304 On ch=1 n=b3 v=0
388356 On ch=1 n=g5 v=0
388428 On ch=1 n=b5 v=0
388589 On ch=1 n=b5 v=64
388589 On ch=1 n=d#4 v=34
388604 On ch=1 n=b3 v=43
388604 On ch=1 n=f5 v=51
388621 On ch=1 n=a4 v=36
388621 On ch=1 n=d#5 v=35
388624 Par ch=1 c=64 v=0
388624 On ch=1 n=b4 v=33
388748 On ch=1 n=f5 v=0
388784 Par ch=1 c=64 v=127
388820 On ch=1 n=d#5 v=0
388827 On ch=1 n=d#4 v=0
388837 On ch=1 n=b4 v=0
388844 On ch=1 n=a4 v=0
388844 On ch=1 n=b3 v=0
389056 On ch=1 n=a4 v=36
389067 On ch=1 n=f#5 v=51
389067 On ch=1 n=b3 v=36
389069 On ch=1 n=d#4 v=26
389080 On ch=1 n=d#5 v=35
389080 On ch=1 n=b4 v=33
389160 On ch=1 n=f#5 v=0
389170 On ch=1 n=d#5 v=0
389204 On ch=1 n=b4 v=0
389214 On ch=1 n=b3 v=0
389218 On ch=1 n=a4 v=0
389230 On ch=1 n=d#4 v=0
389241 On ch=1 n=b5 v=0
389447 On ch=1 n=b5 v=48
389461 On ch=1 n=f#5 v=45
389461 On ch=1 n=b4 v=37
389461 On ch=1 n=a4 v=33
389463 On ch=1 n=b3 v=37
389474 On ch=1 n=d#4 v=33
389483 On ch=1 n=d#5 v=32
389554 On ch=1 n=d#5 v=0
389658 On ch=1 n=f#5 v=0
389670 On ch=1 n=a4 v=0
389698 On ch=1 n=d#4 v=0
389718 On ch=1 n=b3 v=0
389718 On ch=1 n=b4 v=0
389942 On ch=1 n=b4 v=33
389950 On ch=1 n=g5 v=50
389970 On ch=1 n=a4 v=33
389970 On ch=1 n=b3 v=32
389970 On ch=1 n=d#5 v=36
389974 On ch=1 n=d#4 v=35
390107 On ch=1 n=a4 v=0
390191 On ch=1 n=d#4 v=0
390211 On ch=1 n=d#5 v=0
390211 On ch=1 n=b3 v=0
390211 On ch=1 n=g5 v=0
390282 On ch=1 n=b4 v=0
390394 On ch=1 n=b5 v=0
390614 Par ch=1 c=64 v=0
390657 On ch=1 n=e2 v=67
390921 Par ch=1 c=64 v=127
390957 On ch=1 n=e2 v=0
391443 On ch=1 n=g5 v=47
391447 On ch=1 n=g#4 v=42
391462 On ch=1 n=b3 v=37
391470 On ch=1 n=e5 v=33
391470 On ch=1 n=e4 v=44
391477 On ch=1 n=b4 v=35
391661 On ch=1 n=g5 v=0
391678 On ch=1 n=b4 v=0
391697 On ch=1 n=g#4 v=0
391701 On ch=1 n=b3 v=0
391707 On ch=1 n=e5 v=0
391730 On ch=1 n=e4 v=0
391838 On ch=1 n=e4 v=39
391841 On ch=1 n=g#4 v=40
391855 On ch=1 n=b3 v=38
391862 On ch=1 n=g#5 v=57
391870 On ch=1 n=e5 v=35
391874 On ch=1 n=b4 v=42
391946 On ch=1 n=b4 v=0
392018 On ch=1 n=e4 v=0
392023 On ch=1 n=g#5 v=0
392071 On ch=1 n=b3 v=0
392083 On ch=1 n=g#4 v=0
392203 On ch=1 n=c#6 v=72
392218 On ch=1 n=e5 v=0
392218 On ch=1 n=e4 v=36
392218 On ch=1 n=b3 v=37
392223 On ch=1 n=b4 v=47
392223 On ch=1 n=g#4 v=43
392338 On ch=1 n=b4 v=0
392358 On ch=1 n=b3 v=0
392383 On ch=1 n=c#6 v=0
392422 On ch=1 n=g#4 v=0
392441 On ch=1 n=e4 v=0
392523 On ch=1 n=e5 v=35
392527 On ch=1 n=c6 v=70
392534 On ch=1 n=e4 v=40
392554 On ch=1 n=e5 v=0
392557 On ch=1 n=g#4 v=38
392557 On ch=1 n=b4 v=37
392574 On ch=1 n=b3 v=34
392654 On ch=1 n=b3 v=0
392671 On ch=1 n=c6 v=0
392682 On ch=1 n=b4 v=0
392697 On ch=1 n=e4 v=0
392730 On ch=1 n=g#4 v=0
392854 On ch=1 n=b5 v=75
392863 On ch=1 n=e4 v=45
392878 On ch=1 n=g#4 v=44
392881 On ch=1 n=b3 v=36
392881 On ch=1 n=e5 v=36
392902 On ch=1 n=b4 v=41
392966 On ch=1 n=g#4 v=0
392974 On ch=1 n=b4 v=0
393002 On ch=1 n=e5 v=0
393002 On ch=1 n=b3 v=0
393041 On ch=1 n=e4 v=0
393062 On ch=1 n=b5 v=0
393202 On ch=1 n=a#5 v=61
393203 On ch=1 n=e4 v=35
393207 On ch=1 n=g#4 v=39
393215 On ch=1 n=b3 v=38
393231 On ch=1 n=e5 v=36
393231 On ch=1 n=b4 v=39
393311 On ch=1 n=b3 v=0
393327 On ch=1 n=g#4 v=0
393383 On ch=1 n=e5 v=0
393387 On ch=1 n=b4 v=0
393387 On ch=1 n=e4 v=0
393418 On ch=1 n=a#5 v=0
393561 On ch=1 n=a5 v=57
393571 On ch=1 n=g#4 v=38
393571 On ch=1 n=b3 v=35
393578 On ch=1 n=e4 v=32
393583 On ch=1 n=e5 v=37
393627 On ch=1 n=b4 v=35
393631 On ch=1 n=g#4 v=0
393650 On ch=1 n=e4 v=0
393671 On ch=1 n=e5 v=0
393682 On ch=1 n=b3 v=0
393682 On ch=1 n=a5 v=0
393711 On ch=1 n=b4 v=0
394062 Par ch=1 c=64 v=0
394074 On ch=1 n=b5 v=64
394081 On ch=1 n=g#5 v=49
394081 On ch=1 n=e2 v=57
394110 On ch=1 n=b4 v=32
394110 On ch=1 n=d#5 v=33
394226 On ch=1 n=g#5 v=0
394258 Par ch=1 c=64 v=127
394301 On ch=1 n=b4 v=0
394326 On ch=1 n=d#5 v=0
394374 On ch=1 n=e2 v=0
394641 On ch=1 n=b3 v=39
394651 On ch=1 n=g5 v=45
394662 On ch=1 n=d#4 v=36
394663 On ch=1 n=b4 v=39
394674 On ch=1 n=d#5 v=35
394674 On ch=1 n=a4 v=32
394778 On ch=1 n=d#4 v=0
394783 On ch=1 n=a4 v=0
394847 On ch=1 n=b3 v=0
394850 On ch=1 n=d#5 v=0
394874 On ch=1 n=b4 v=0
394874 On ch=1 n=g5 v=0
395017 On ch=1 n=b3 v=36
395027 On ch=1 n=g5 v=42
395041 On ch=1 n=d#4 v=36
395047 On ch=1 n=b4 v=35
395058 On ch=1 n=a4 v=31
395087 On ch=1 n=d#5 v=35
395154 On ch=1 n=a4 v=0
395161 On ch=1 n=d#4 v=0
395178 On ch=1 n=d#5 v=0
395207 On ch=1 n=b3 v=0
395275 On ch=1 n=b4 v=0
395370 On ch=1 n=b3 v=34
395394 On ch=1 n=d#4 v=33
395398 On ch=1 n=f#5 v=46
395408 On ch=1 n=b4 v=36
395428 On ch=1 n=a4 v=35
395487 On ch=1 n=f#5 v=0
395497 On ch=1 n=a4 v=0
395497 On ch=1 n=d#4 v=0
395531 On ch=1 n=b3 v=0
395535 On ch=1 n=b4 v=0
395572 On ch=1 n=g5 v=0
395668 On ch=1 n=b5 v=0
395816 On ch=1 n=b5 v=52
395828 On ch=1 n=f5 v=43
395836 On ch=1 n=d#4 v=34
395836 On ch=1 n=b3 v=33
395837 Par ch=1 c=64 v=0
395837 On ch=1 n=a4 v=45
395861 On ch=1 n=b4 v=36
395888 On ch=1 n=d#5 v=33
395997 On ch=1 n=f5 v=0
396011 On ch=1 n=d#5 v=0
396011 Par ch=1 c=64 v=127
396068 On ch=1 n=b4 v=0
396078 On ch=1 n=a4 v=0
396093 On ch=1 n=d#4 v=0
396169 On ch=1 n=b3 v=0
396386 On ch=1 n=f#5 v=50
396393 On ch=1 n=b3 v=34
396405 On ch=1 n=d#5 v=29
396409 On ch=1 n=a4 v=35
396414 On ch=1 n=d#4 v=28
396422 On ch=1 n=b4 v=32
396553 On ch=1 n=d#4 v=0
396561 On ch=1 n=b4 v=0
396565 On ch=1 n=a4 v=0
396585 On ch=1 n=b3 v=0
396594 On ch=1 n=f#5 v=0
396602 On ch=1 n=d#5 v=0
396625 On ch=1 n=b5 v=0
396792 On ch=1 n=f#5 v=45
396802 On ch=1 n=b5 v=42
396809 On ch=1 n=d#5 v=25
396809 On ch=1 n=b3 v=30
396813 On ch=1 n=a4 v=33
396825 On ch=1 n=b4 v=31
396832 On ch=1 n=d#4 v=35
396970 On ch=1 n=d#5 v=0
396998 On ch=1 n=d#4 v=0
397009 On ch=1 n=a4 v=0
397011 On ch=1 n=b4 v=0
397046 On ch=1 n=b3 v=0
397051 On ch=1 n=f#5 v=0
397386 On ch=1 n=b4 v=29
397390 On ch=1 n=g5 v=45
397390 On ch=1 n=d#5 v=36
397402 On ch=1 n=d#4 v=35
397411 On ch=1 n=b3 v=28
397423 On ch=1 n=a4 v=36
397622 On ch=1 n=a4 v=0
397651 On ch=1 n=d#4 v=0
397699 On ch=1 n=d#5 v=0
397702 On ch=1 n=b3 v=0
397711 On ch=1 n=b4 v=0
397726 On ch=1 n=g5 v=0
397909 On ch=1 n=b5 v=0
398282 Par ch=1 c=64 v=0
398359 On ch=1 n=e2 v=73
398658 On ch=1 n=e2 v=0
398668 Par ch=1 c=64 v=127
399296 On ch=1 n=e4 v=41
399308 On ch=1 n=b3 v=36
399308 On ch=1 n=e5 v=36
399319 On ch=1 n=g#4 v=45
399319 On ch=1 n=g5 v=44
399319 On ch=1 n=b4 v=37
399539 On ch=1 n=b3 v=0
399547 On ch=1 n=e4 v=0
399555 On ch=1 n=g#4 v=0
399580 On ch=1 n=g5 v=0
399607 On ch=1 n=b4 v=0
399626 On ch=1 n=e5 v=0
399748 On ch=1 n=g#5 v=57
399748 On ch=1 n=e5 v=52
399748 On ch=1 n=e4 v=44
399752 On ch=1 n=b4 v=49
399763 On ch=1 n=b3 v=43
399763 On ch=1 n=g#4 v=36
399888 On ch=1 n=b3 v=0
399903 On ch=1 n=g#4 v=0
399913 On ch=1 n=e5 v=0
399972 On ch=1 n=e4 v=0
399976 On ch=1 n=b4 v=0
400036 On ch=1 n=g#5 v=0
400076 On ch=1 n=b5 v=69
400084 On ch=1 n=b3 v=46
400084 On ch=1 n=e5 v=52
400084 On ch=1 n=b4 v=57
400092 On ch=1 n=g#4 v=42
400100 On ch=1 n=e4 v=47
400169 On ch=1 n=b3 v=0
400180 On ch=1 n=b4 v=0
400189 On ch=1 n=g#4 v=0
400204 On ch=1 n=e5 v=0
400212 On ch=1 n=b5 v=0
400223 On ch=1 n=e4 v=0
400424 On ch=1 n=g#4 v=39
400428 On ch=1 n=b3 v=39
400436 On ch=1 n=d#6 v=75
400436 On ch=1 n=e4 v=37
400446 On ch=1 n=b4 v=32
400446 On ch=1 n=g#5 v=58
400457 On ch=1 n=e5 v=55
400617 On ch=1 n=g#5 v=0
400633 On ch=1 n=e4 v=0
400642 On ch=1 n=b3 v=0
400649 On ch=1 n=b4 v=0
400649 On ch=1 n=g#4 v=0
400653 On ch=1 n=e5 v=0
400653 On ch=1 n=d#6 v=0
400773 On ch=1 n=g#4 v=44
400789 On ch=1 n=c#6 v=68
400789 On ch=1 n=e4 v=49
400797 On ch=1 n=b3 v=38
400800 On ch=1 n=e5 v=56
400802 On ch=1 n=g#5 v=56
400802 On ch=1 n=b4 v=42
400922 On ch=1 n=b3 v=0
400954 On ch=1 n=e5 v=0
400954 On ch=1 n=g#4 v=0
400973 On ch=1 n=b4 v=0
401001 On ch=1 n=e4 v=0
401001 On ch=1 n=c#6 v=0
401006 On ch=1 n=g#5 v=0
401110 On ch=1 n=b5 v=68
401110 On ch=1 n=e4 v=59
401117 On ch=1 n=g#4 v=56
401117 On ch=1 n=e5 v=56
401117 On ch=1 n=b3 v=46
401117 On ch=1 n=g#5 v=58
401117 On ch=1 n=b4 v=49
401205 On ch=1 n=b3 v=0
401240 On ch=1 n=g#4 v=0
401257 On ch=1 n=e4 v=0
401280 On ch=1 n=b4 v=0
401286 On ch=1 n=e5 v=0
401334 On ch=1 n=g#5 v=0
401400 On ch=1 n=g#4 v=55
401406 On ch=1 n=e4 v=56
401409 On ch=1 n=e6 v=67
401417 On ch=1 n=b4 v=56
401422 On ch=1 n=g#5 v=57
401422 On ch=1 n=b3 v=58
401422 On ch=1 n=e5 v=59
401426 On ch=1 n=b5 v=0
401462 On ch=1 n=e5 v=0
401477 On ch=1 n=g#5 v=0
401526 On ch=1 n=e6 v=0
401529 On ch=1 n=b3 v=0
401540 On ch=1 n=b4 v=0
401554 On ch=1 n=e4 v=0
401554 On ch=1 n=g#4 v=0
401706 On ch=1 n=g#4 v=51
401722 On ch=1 n=b4 v=51
401722 On ch=1 n=b3 v=54
401722 On ch=1 n=a6 v=84
401730 On ch=1 n=e4 v=49
401730 On ch=1 n=b5 v=71
401730 On ch=1 n=e6 v=72
401833 On ch=1 n=b4 v=0
401850 On ch=1 n=b3 v=0
401861 On ch=1 n=e6 v=0
401861 On ch=1 n=b5 v=0
401862 On ch=1 n=e4 v=0
401893 On ch=1 n=g#4 v=0
401913 On ch=1 n=a6 v=0
402001 On ch=1 n=g#4 v=62
402009 On ch=1 n=e4 v=58
402009 On ch=1 n=b3 v=58
402009 On ch=1 n=b4 v=56
402021 On ch=1 n=g#6 v=74
402021 On ch=1 n=e6 v=73
402025 On ch=1 n=b5 v=68
402137 On ch=1 n=b4 v=0
402137 On ch=1 n=b3 v=0
402142 On ch=1 n=g#4 v=0
402146 On ch=1 n=e4 v=0
402161 On ch=1 n=b5 v=0
402169 On ch=1 n=g#6 v=0
402193 On ch=1 n=e6 v=0
402281 On ch=1 n=g#4 v=65
402281 On ch=1 n=e4 v=58
402281 On ch=1 n=b3 v=60
402291 On ch=1 n=b4 v=63
402291 On ch=1 n=e6 v=73
402291 On ch=1 n=b5 v=69
402398 On ch=1 n=b4 v=0
402398 On ch=1 n=b3 v=0
402410 On ch=1 n=g#4 v=0
402427 On ch=1 n=b5 v=0
402427 On ch=1 n=e4 v=0
402431 On ch=1 n=e6 v=0
402543 On ch=1 n=b3 v=54
402546 On ch=1 n=e4 v=62
402546 On ch=1 n=b5 v=73
402546 On ch=1 n=b4 v=49
402550 On ch=1 n=e6 v=69
402559 On ch=1 n=g#4 v=64
402559 On ch=1 n=b6 v=72
402559 On ch=1 n=g#6 v=67
402637 On ch=1 n=b5 v=0
402637 On ch=1 n=b3 v=0
402639 On ch=1 n=e6 v=0
402667 On ch=1 n=b6 v=0
402670 On ch=1 n=g#6 v=0
402679 On ch=1 n=g#4 v=0
402683 On ch=1 n=e4 v=0
402691 On ch=1 n=b4 v=0
402819 On ch=1 n=d#7 v=88
402826 On ch=1 n=g#6 v=74
402830 On ch=1 n=g#4 v=54
402830 On ch=1 n=e6 v=74
402830 On ch=1 n=b3 v=51
402834 On ch=1 n=b4 v=47
402834 On ch=1 n=e4 v=52
402930 On ch=1 n=b4 v=0
402930 On ch=1 n=b3 v=0
402963 On ch=1 n=e6 v=0
402970 On ch=1 n=e4 v=0
402970 On ch=1 n=g#4 v=0
402978 On ch=1 n=g#6 v=0
402978 On ch=1 n=d#7 v=0
403107 On ch=1 n=e4 v=60
403107 On ch=1 n=b4 v=56
403111 On ch=1 n=c#7 v=80
403111 On ch=1 n=b3 v=55
403111 On ch=1 n=g#4 v=65
403111 On ch=1 n=g#6 v=78
403111 On ch=1 n=e6 v=77
403194 On ch=1 n=b3 v=0
403199 On ch=1 n=b4 v=0
403214 On ch=1 n=g#4 v=0
403230 On ch=1 n=e4 v=0
403238 On ch=1 n=e6 v=0
403254 On ch=1 n=c#7 v=0
403266 On ch=1 n=g#6 v=0
403358 On ch=1 n=g#4 v=63
403363 On ch=1 n=e4 v=64
403363 On ch=1 n=b3 v=58
403370 On ch=1 n=b4 v=59
403370 On ch=1 n=b6 v=80
403370 On ch=1 n=e6 v=74
403370 On ch=1 n=g#6 v=80
403451 On ch=1 n=b3 v=0
403454 On ch=1 n=b4 v=0
403486 On ch=1 n=g#4 v=0
403503 On ch=1 n=e6 v=0
403503 On ch=1 n=b6 v=0
403511 On ch=1 n=g#6 v=0
403534 On ch=1 n=e4 v=0
403598 On ch=1 n=b6 v=82
403606 On ch=1 n=e4 v=45
403610 On ch=1 n=e6 v=80
403610 On ch=1 n=b3 v=52
403619 On ch=1 n=e7 v=78
403619 On ch=1 n=b4 v=55
403619 On ch=1 n=g#6 v=72
403623 On ch=1 n=g#4 v=55
403679 On ch=1 n=g#6 v=0
403679 On ch=1 n=e6 v=0
403694 On ch=1 n=b3 v=0
403710 On ch=1 n=b4 v=0
403710 On ch=1 n=b6 v=0
403734 On ch=1 n=e7 v=0
403739 On ch=1 n=g#4 v=0
403766 On ch=1 n=e4 v=0
403863 On ch=1 n=b3 v=52
403863 On ch=1 n=g#4 v=55
403874 On ch=1 n=b4 v=50
403874 On ch=1 n=e4 v=40
403874 On ch=1 n=a7 v=100
403878 On ch=1 n=b6 v=84
403882 On ch=1 n=e7 v=77
403946 On ch=1 n=b4 v=0
403954 On ch=1 n=b3 v=0
403966 On ch=1 n=b6 v=0
403983 On ch=1 n=g#4 v=0
403994 On ch=1 n=e7 v=0
403997 On ch=1 n=e4 v=0
404058 On ch=1 n=a7 v=0
404127 On ch=1 n=e4 v=67
404130 On ch=1 n=b3 v=62
404138 On ch=1 n=g#4 v=65
404139 On ch=1 n=e7 v=84
404139 On ch=1 n=b4 v=62
404139 On ch=1 n=g#7 v=88
404139 On ch=1 n=b6 v=80
404218 On ch=1 n=b4 v=0
404223 On ch=1 n=b3 v=0
404250 On ch=1 n=e7 v=0
404254 On ch=1 n=b6 v=0
404258 On ch=1 n=g#4 v=0
404267 On ch=1 n=e4 v=0
404290 On ch=1 n=g#7 v=0
404377 On ch=1 n=e7 v=84
404377 On ch=1 n=b3 v=64
404379 On ch=1 n=b4 v=63
404379 On ch=1 n=e4 v=69
404379 On ch=1 n=g#4 v=72
404379 On ch=1 n=b6 v=75
404487 On ch=1 n=b3 v=0
404491 On ch=1 n=b4 v=0
404506 On ch=1 n=g#4 v=0
404514 On ch=1 n=e4 v=0
404514 On ch=1 n=e7 v=0
404519 On ch=1 n=b6 v=0
404607 On ch=1 n=b7 v=84
404610 On ch=1 n=b6 v=86
404618 On ch=1 n=e4 v=56
404618 On ch=1 n=b3 v=61
404618 On ch=1 n=g#7 v=77
404619 On ch=1 n=g#4 v=58
404619 On ch=1 n=e7 v=75
404619 On ch=1 n=b4 v=57
404674 On ch=1 n=b6 v=0
404678 On ch=1 n=e7 v=0
404697 On ch=1 n=b4 v=0
404707 On ch=1 n=b3 v=0
404714 On ch=1 n=b7 v=0
404723 On ch=1 n=g#7 v=0
404737 On ch=1 n=g#4 v=0
404743 On ch=1 n=e4 v=0
404834 On ch=1 n=d#8 v=94
404834 On ch=1 n=e7 v=80
404843 On ch=1 n=g#7 v=82
404850 On ch=1 n=e4 v=52
404858 On ch=1 n=g#4 v=54
404863 On ch=1 n=b4 v=51
404863 On ch=1 n=b3 v=57
404926 On ch=1 n=b3 v=0
404937 On ch=1 n=b4 v=0
404959 On ch=1 n=e7 v=0
404974 On ch=1 n=g#4 v=0
404974 On ch=1 n=e4 v=0
404979 On ch=1 n=g#7 v=0
404979 On ch=1 n=d#8 v=0
405079 On ch=1 n=g#7 v=92
405079 On ch=1 n=c#8 v=89
405087 On ch=1 n=b4 v=55
405090 On ch=1 n=g#4 v=58
405090 On ch=1 n=e4 v=56
405099 On ch=1 n=e7 v=80
405099 On ch=1 n=b3 v=52
405170 On ch=1 n=b3 v=0
405186 On ch=1 n=b4 v=0
405214 On ch=1 n=g#4 v=0
405214 On ch=1 n=g#7 v=0
405219 On ch=1 n=e4 v=0
405231 On ch=1 n=e7 v=0
405231 On ch=1 n=c#8 v=0
405322 On ch=1 n=b3 v=51
405322 On ch=1 n=e4 v=56
405330 On ch=1 n=b7 v=90
405334 On ch=1 n=g#7 v=86
405334 On ch=1 n=e7 v=86
405334 On ch=1 n=b4 v=55
405337 On ch=1 n=g#4 v=63
405427 On ch=1 n=b3 v=0
405430 On ch=1 n=b4 v=0
405454 On ch=1 n=g#4 v=0
405486 On ch=1 n=e7 v=0
405498 On ch=1 n=b7 v=0
405503 On ch=1 n=g#7 v=0
405518 On ch=1 n=e4 v=0
405578 On ch=1 n=e7 v=86
405583 On ch=1 n=e8 v=90
405587 On ch=1 n=b7 v=92
405587 On ch=1 n=e4 v=46
405587 On ch=1 n=g#7 v=88
405590 On ch=1 n=b3 v=60
405590 On ch=1 n=b4 v=68
405599 On ch=1 n=g#4 v=61
405666 On ch=1 n=b3 v=0
405677 On ch=1 n=e4 v=0
405679 On ch=1 n=b4 v=0
405694 On ch=1 n=g#4 v=0
405786 On ch=1 n=b7 v=0
405806 On ch=1 n=e8 v=0
405810 On ch=1 n=g#7 v=0
405830 On ch=1 n=e7 v=0
405934 On ch=1 n=g#7 v=82
405937 On ch=1 n=e7 v=78
405943 On ch=1 n=e8 v=78
405954 On ch=1 n=b7 v=80
405954 On ch=1 n=g#5 v=95
405954 On ch=1 n=g#4 v=90
406014 On ch=1 n=g#5 v=0
406057 On ch=1 n=g#4 v=0
406130 On ch=1 n=e7 v=0
406157 On ch=1 n=b7 v=0
406157 On ch=1 n=e8 v=0
406179 On ch=1 n=g#7 v=0
406262 On ch=1 n=f#5 v=86
406266 On ch=1 n=f#4 v=84
406266 On ch=1 n=g#7 v=86
406266 On ch=1 n=e7 v=72
406266 On ch=1 n=e8 v=78
406270 On ch=1 n=b7 v=78
406330 On ch=1 n=f#5 v=0
406346 On ch=1 n=f#4 v=0
406414 On ch=1 n=e8 v=0
406430 On ch=1 n=e7 v=0
406440 On ch=1 n=b7 v=0
406454 On ch=1 n=g#7 v=0
406515 On ch=1 n=g#7 v=71
406519 On ch=1 n=e8 v=78
406519 On ch=1 n=e7 v=77
406527 On ch=1 n=e5 v=89
406531 On ch=1 n=e4 v=91
406531 On ch=1 n=b7 v=77
406574 On ch=1 n=e5 v=0
406591 On ch=1 n=e4 v=0
406635 On ch=1 n=e7 v=0
406650 On ch=1 n=e8 v=0
406671 On ch=1 n=b7 v=0
406676 On ch=1 n=g#7 v=0
406751 On ch=1 n=b3 v=93
406760 On ch=1 n=b4 v=90
406760 On ch=1 n=e8 v=80
406760 On ch=1 n=e7 v=74
406760 On ch=1 n=g#7 v=77
406771 On ch=1 n=b7 v=80
406808 On ch=1 n=b4 v=0
406816 On ch=1 n=b3 v=0
406883 On ch=1 n=e8 v=0
406895 On ch=1 n=e7 v=0
406911 On ch=1 n=b7 v=0
406927 On ch=1 n=g#7 v=0
406991 On ch=1 n=e8 v=90
406995 On ch=1 n=g#7 v=84
406995 On ch=1 n=e7 v=84
407000 On ch=1 n=d#5 v=97
407007 On ch=1 n=b7 v=92
407007 On ch=1 n=d#4 v=90
407059 On ch=1 n=d#5 v=0
407087 On ch=1 n=d#4 v=0
407147 On ch=1 n=e7 v=0
407170 On ch=1 n=g#7 v=0
407170 On ch=1 n=e8 v=0
407174 On ch=1 n=b7 v=0
407243 On ch=1 n=c#5 v=88
407247 On ch=1 n=e7 v=74
407247 On ch=1 n=e8 v=78
407250 On ch=1 n=g#7 v=75
407250 On ch=1 n=c#4 v=84
407256 On ch=1 n=b7 v=78
407315 On ch=1 n=c#5 v=0
407327 On ch=1 n=c#4 v=0
407404 On ch=1 n=b7 v=0
407407 On ch=1 n=e8 v=0
407407 On ch=1 n=e7 v=0
407416 On ch=1 n=g#7 v=0
407476 On ch=1 n=g#7 v=66
407476 On ch=1 n=b3 v=89
407476 On ch=1 n=e8 v=75
407480 On ch=1 n=b4 v=90
407480 On ch=1 n=b7 v=80
407480 On ch=1 n=e7 v=75
407531 On ch=1 n=b4 v=0
407547 On ch=1 n=b3 v=0
407591 On ch=1 n=e7 v=0
407610 On ch=1 n=e8 v=0
407610 On ch=1 n=g#7 v=0
407614 On ch=1 n=b7 v=0
407696 On ch=1 n=e3 v=90
407696 On ch=1 n=e4 v=89
407696 On ch=1 n=g#7 v=72
407696 On ch=1 n=e7 v=75
407700 On ch=1 n=b7 v=80
407700 On ch=1 n=e8 v=84
407755 On ch=1 n=e4 v=0
407763 On ch=1 n=e3 v=0
407847 On ch=1 n=e8 v=0
407847 On ch=1 n=b7 v=0
407847 On ch=1 n=e7 v=0
407867 On ch=1 n=g#7 v=0
407931 On ch=1 n=e7 v=82
407936 On ch=1 n=g#7 v=80
407940 On ch=1 n=e8 v=88
407940 On ch=1 n=g#4 v=98
407940 On ch=1 n=b7 v=84
407944 On ch=1 n=g#3 v=92
407987 On ch=1 n=g#4 v=0
408020 On ch=1 n=g#3 v=0
408075 On ch=1 n=e7 v=0
408079 On ch=1 n=b7 v=0
408087 On ch=1 n=g#7 v=0
408091 On ch=1 n=e8 v=0
408155 On ch=1 n=f#4 v=93
408160 On ch=1 n=f#3 v=87
408167 On ch=1 n=e8 v=82
408167 On ch=1 n=g#7 v=77
408176 On ch=1 n=b7 v=84
408176 On ch=1 n=e7 v=78
408224 On ch=1 n=f#4 v=0
408236 On ch=1 n=f#3 v=0
408307 On ch=1 n=b7 v=0
408315 On ch=1 n=e7 v=0
408315 On ch=1 n=e8 v=0
408320 On ch=1 n=g#7 v=0
408380 On ch=1 n=e4 v=89
408380 On ch=1 n=e3 v=90
408391 On ch=1 n=g#7 v=72
408391 On ch=1 n=e8 v=82
408391 On ch=1 n=b7 v=80
408391 On ch=1 n=e7 v=75
408436 On ch=1 n=e4 v=0
408451 On ch=1 n=e3 v=0
408510 On ch=1 n=e7 v=0
408520 On ch=1 n=b7 v=0
408527 On ch=1 n=g#7 v=0
408536 On ch=1 n=e8 v=0
408600 On ch=1 n=b3 v=91
408600 On ch=1 n=b2 v=93
408611 On ch=1 n=e8 v=80
408611 On ch=1 n=e7 v=78
408611 On ch=1 n=g#7 v=77
408614 On ch=1 n=b7 v=82
408663 On ch=1 n=b3 v=0
408670 On ch=1 n=b2 v=0
408736 On ch=1 n=e7 v=0
408751 On ch=1 n=b7 v=0
408759 On ch=1 n=g#7 v=0
408763 On ch=1 n=e8 v=0
408836 On ch=1 n=e7 v=86
408844 On ch=1 n=e8 v=90
408844 On ch=1 n=d#4 v=95
408848 On ch=1 n=g#7 v=86
408848 On ch=1 n=d#3 v=92
408848 On ch=1 n=b7 v=90
408927 On ch=1 n=d#4 v=0
408943 On ch=1 n=d#3 v=0
408964 On ch=1 n=e7 v=0
408994 On ch=1 n=e8 v=0
409015 On ch=1 n=b7 v=0
409016 On ch=1 n=g#7 v=0
409091 On ch=1 n=c#4 v=92
409095 On ch=1 n=c#3 v=86
409100 On ch=1 n=g#7 v=80
409100 On ch=1 n=e8 v=88
409103 On ch=1 n=e7 v=74
409115 On ch=1 n=b7 v=86
409167 On ch=1 n=c#4 v=0
409171 On ch=1 n=c#3 v=0
409256 On ch=1 n=e7 v=0
409267 On ch=1 n=g#7 v=0
409271 On ch=1 n=b7 v=0
409276 On ch=1 n=e8 v=0
409344 On ch=1 n=g#7 v=82
409348 On ch=1 n=b3 v=91
409348 On ch=1 n=b2 v=90
409351 On ch=1 n=e8 v=86
409356 On ch=1 n=b7 v=86
409356 On ch=1 n=e7 v=82
409394 On ch=1 n=b3 v=0
409415 On ch=1 n=b2 v=0
409524 On ch=1 n=e8 v=0
409536 On ch=1 n=b7 v=0
409543 On ch=1 n=g#7 v=0
409551 On ch=1 n=e7 v=0
409615 On ch=1 n=g#7 v=80
409619 On ch=1 n=e8 v=90
409619 On ch=1 n=b7 v=86
409627 On ch=1 n=e2 v=94
409627 On ch=1 n=e7 v=82
409627 On ch=1 n=e3 v=90
409820 On ch=1 n=e3 v=0
409864 On ch=1 n=e8 v=0
409875 On ch=1 n=e7 v=0
409875 On ch=1 n=b7 v=0
409894 On ch=1 n=g#7 v=0
409951 On ch=1 n=e8 v=98
409951 On ch=1 n=b7 v=95
409956 On ch=1 n=e7 v=95
409956 On ch=1 n=g#7 v=90
409956 On ch=1 n=e3 v=96
409983 On ch=1 n=e2 v=0
410011 Par ch=1 c=64 v=0
410060 Par ch=1 c=64 v=127
410391 On ch=1 n=e3 v=0
410399 On ch=1 n=e8 v=0
410444 On ch=1 n=b7 v=0
410475 On ch=1 n=g#7 v=0
410475 On ch=1 n=e7 v=0
411176 On ch=1 n=b4 v=93
411176 On ch=1 n=e5 v=81
411176 On ch=1 n=g#4 v=96
411180 On ch=1 n=g#5 v=95
411180 On ch=1 n=e4 v=85
411180 On ch=1 n=e3 v=86
411180 On ch=1 n=b3 v=87
411315 On ch=1 n=b4 v=0
411323 On ch=1 n=e5 v=0
411327 On ch=1 n=g#5 v=0
411327 On ch=1 n=g#4 v=0
411331 On ch=1 n=b3 v=0
411331 On ch=1 n=e3 v=0
411331 On ch=1 n=e4 v=0
412475 On ch=1 n=b2 v=90
412480 On ch=1 n=g#4 v=86
412480 On ch=1 n=b4 v=82
412480 On ch=1 n=e5 v=77
412480 On ch=1 n=b3 v=79
412480 On ch=1 n=g#5 v=86
412484 On ch=1 n=e3 v=78
412636 On ch=1 n=b3 v=0
412651 On ch=1 n=g#5 v=0
412651 On ch=1 n=g#4 v=0
412663 On ch=1 n=e3 v=0
412667 On ch=1 n=b2 v=0
412696 On ch=1 n=e5 v=0
412699 On ch=1 n=b4 v=0
412731 On ch=1 n=b2 v=82
412736 On ch=1 n=e5 v=59
412736 On ch=1 n=b4 v=64
412739 On ch=1 n=b3 v=81
412739 On ch=1 n=g#4 v=90
412739 On ch=1 n=g#5 v=90
412743 On ch=1 n=e3 v=76
414016 On ch=1 n=g#5 v=0
414028 On ch=1 n=b4 v=0
414067 On ch=1 n=g#4 v=0
414083 On ch=1 n=e5 v=0
414151 On ch=1 n=b2 v=0
414211 On ch=1 n=b2 v=90
414216 On ch=1 n=e3 v=0
414223 On ch=1 n=b4 v=93
414223 On ch=1 n=g#4 v=96
414223 On ch=1 n=e5 v=81
414223 On ch=1 n=e3 v=88
414223 On ch=1 n=g#5 v=98
414233 On ch=1 n=b3 v=0
414260 Par ch=1 c=64 v=0
414308 Par ch=1 c=64 v=127
414932 On ch=1 n=e3 v=0
415192 On ch=1 n=b2 v=0
415252 On ch=1 n=e5 v=0
415260 On ch=1 n=g#4 v=0
415270 On ch=1 n=b4 v=0
415285 On ch=1 n=g#5 v=0
415570 On ch=1 n=g#4 v=84
415570 On ch=1 n=e2 v=99
415577 On ch=1 n=b4 v=84
415577 On ch=1 n=e5 v=77
415577 On ch=1 n=g#5 v=86
415581 On ch=1 n=e3 v=88
415581 On ch=1 n=b2 v=86
415821 On ch=1 n=g#5 v=0
415841 On ch=1 n=e3 v=0
415850 On ch=1 n=g#4 v=0
415857 On ch=1 n=e5 v=0
415857 On ch=1 n=b4 v=0
415865 On ch=1 n=b2 v=0
415881 On ch=1 n=e2 v=0
415930 On ch=1 n=e5 v=79
415934 On ch=1 n=g#4 v=93
415937 On ch=1 n=g#5 v=90
415945 On ch=1 n=e2 v=94
415945 On ch=1 n=b4 v=90
415950 On ch=1 n=e3 v=93
415950 On ch=1 n=b2 v=78
416709 Par ch=1 c=64 v=0
417184 Par ch=1 c=64 v=127
417585 On ch=1 n=b4 v=0
417601 On ch=1 n=g#5 v=0
417610 On ch=1 n=g#4 v=0
417624 On ch=1 n=e5 v=0
417730 On ch=1 n=b2 v=0
417765 On ch=1 n=e2 v=0
417797 On ch=1 n=e3 v=0
418013 On ch=1 n=e2 v=91
418013 On ch=1 n=g#4 v=90
418017 On ch=1 n=e5 v=77
418017 On ch=1 n=b4 v=88
418028 On ch=1 n=g#5 v=92
418028 On ch=1 n=e3 v=84
418028 On ch=1 n=b2 v=78
420094 On ch=1 n=e5 v=0
420329 On ch=1 n=b4 v=0
420430 On ch=1 n=g#5 v=0
420437 On ch=1 n=g#4 v=0
420609 On ch=1 n=b2 v=0
420689 On ch=1 n=e3 v=0
420694 On ch=1 n=e2 v=0
421565 On ch=1 n=g#4 v=90
421565 On ch=1 n=e5 v=81
421570 On ch=1 n=b4 v=88
421570 On ch=1 n=g#5 v=92
421570 On ch=1 n=e2 v=74
421574 On ch=1 n=e3 v=69
421574 On ch=1 n=b2 v=66
428057 On ch=1 n=b2 v=0
428214 On ch=1 n=b4 v=0
428265 On ch=1 n=e3 v=0
428290 On ch=1 n=g#4 v=0
428305 On ch=1 n=e2 v=0
428362 On ch=1 n=e5 v=0
428408 On ch=1 n=g#5 v=0
430005 Par ch=1 c=64 v=0
432885 Par ch=1 c=120 v=0
432890 SysEx f0 7e 7f 09 01 f7
432890 Meta TrkEnd
TrkEnd
