MFile 1 21 192
MTrk
0 SeqSpec 00 00 5b 23 02 00 03 00 33 00
0 Meta SeqName "Concerto for piano n\xffffffb02 in C minor, Op.18: 2. Adagio sostenuto"
0 Meta 0x21 00
0 Meta Text "By Sergej Vasil'evic Rachmaninov (Oneg 1873 - Beverly Hills 1943)"
0 Meta Copyright "Copyright \xffffffa9 2002 by Dario Galimberti - dario.galimberti@poste.it"
0 Meta Copyright "All Rights Reserved"
0 Tempo 1333333
0 Tempo 1333333
0 KeySig 4 major
0 TimeSig 4/4 24 8
5376 Tempo 1333333
5529 Tempo 1395348
5683 Tempo 1463414
5836 Tempo 1538461
5990 Tempo 1621621
6144 Tempo 1714285
6144 Tempo 1333333
8832 Tempo 1333333
8908 Tempo 1395348
8985 Tempo 1463414
9062 Tempo 1538461
9139 Tempo 1621621
9216 Tempo 1714285
9216 Tempo 1333333
9216 TimeSig 3/2 48 8
10368 TimeSig 4/4 24 8
11520 Tempo 1333333
11574 Tempo 1304347
11629 Tempo 1276595
11684 Tempo 1250000
11739 Tempo 1224489
11794 Tempo 1200000
11849 Tempo 1176470
11904 Tempo 1153846
11904 TimeSig 3/2 48 8
11958 Tempo 1176470
12013 Tempo 1200000
12068 Tempo 1224489
12123 Tempo 1250000
12178 Tempo 1276595
12233 Tempo 1304347
12288 Tempo 1333333
13056 TimeSig 4/4 24 8
14016 Tempo 1333333
14070 Tempo 1304347
14125 Tempo 1276595
14180 Tempo 1250000
14235 Tempo 1224489
14290 Tempo 1200000
14345 Tempo 1176470
14400 Tempo 1153846
14454 Tempo 1176470
14509 Tempo 1200000
14564 Tempo 1224489
14592 TimeSig 3/2 48 8
14619 Tempo 1250000
14674 Tempo 1276595
14729 Tempo 1304347
14784 Tempo 1333333
16896 TimeSig 4/4 24 8
18816 Tempo 1333333
18870 Tempo 1395348
18925 Tempo 1463414
18980 Tempo 1538461
19035 Tempo 1621621
19090 Tempo 1714285
19145 Tempo 1818181
19200 Tempo 2000000
19200 Tempo 1333333
22272 TimeSig 3/2 48 8
23424 TimeSig 4/4 24 8
24960 TimeSig 3/2 48 8
26112 TimeSig 4/4 24 8
27648 TimeSig 3/2 48 8
29952 TimeSig 4/4 24 8
37632 Tempo 1333333
37741 Tempo 1276595
37851 Tempo 1224489
37961 Tempo 1176470
38070 Tempo 1132075
38180 Tempo 1090909
38290 Tempo 1052631
38400 Tempo 1000000
38400 Tempo 731707
47232 Tempo 731707
47270 Tempo 750000
47308 Tempo 769230
47347 Tempo 789473
47385 Tempo 810810
47424 Tempo 833333
47462 Tempo 857142
47500 Tempo 882352
47539 Tempo 909090
47577 Tempo 937500
47616 Tempo 967741
47616 Tempo 731707
50304 Tempo 731707
50342 Tempo 750000
50380 Tempo 769230
50419 Tempo 789473
50457 Tempo 810810
50496 Tempo 833333
50534 Tempo 857142
50572 Tempo 882352
50611 Tempo 909090
50649 Tempo 937500
50688 Tempo 967741
50688 Tempo 731707
50841 Tempo 714285
50995 Tempo 697674
51148 Tempo 681818
51302 Tempo 666666
51456 Tempo 652173
53376 Tempo 731707
53414 Tempo 750000
53452 Tempo 769230
53491 Tempo 789473
53529 Tempo 810810
53568 Tempo 833333
53606 Tempo 857142
53644 Tempo 882352
53683 Tempo 909090
53721 Tempo 937500
53760 Tempo 967741
53760 Tempo 833333
55296 Tempo 833333
55449 Tempo 810810
55603 Tempo 789473
55756 Tempo 769230
55910 Tempo 750000
56064 Tempo 731707
62976 Tempo 588235
65664 Tempo 588235
65702 Tempo 600000
65740 Tempo 612244
65779 Tempo 625000
65817 Tempo 638297
65856 Tempo 652173
65894 Tempo 666666
65932 Tempo 681818
65971 Tempo 697674
66009 Tempo 714285
66048 Tempo 731707
66048 Tempo 588235
68736 Tempo 588235
68755 Tempo 600000
68774 Tempo 612244
68793 Tempo 625000
68812 Tempo 638297
68832 Tempo 652173
68851 Tempo 666666
68870 Tempo 681818
68889 Tempo 697674
68908 Tempo 714285
68928 Tempo 731707
68947 Tempo 750000
68966 Tempo 769230
68985 Tempo 789473
69004 Tempo 810810
69024 Tempo 833333
69043 Tempo 857142
69062 Tempo 882352
69081 Tempo 909090
69100 Tempo 937500
69120 Tempo 967741
69120 Tempo 731707
69273 Tempo 714285
69427 Tempo 697674
69580 Tempo 681818
69734 Tempo 666666
69888 Tempo 652173
70041 Tempo 638297
70195 Tempo 625000
70348 Tempo 612244
70502 Tempo 600000
70656 Tempo 588235
71808 Tempo 588235
71827 Tempo 600000
71846 Tempo 612244
71865 Tempo 625000
71884 Tempo 638297
71904 Tempo 652173
71923 Tempo 666666
71942 Tempo 681818
71961 Tempo 697674
71980 Tempo 714285
72000 Tempo 731707
72019 Tempo 750000
72038 Tempo 769230
72057 Tempo 789473
72076 Tempo 810810
72096 Tempo 833333
72115 Tempo 857142
72134 Tempo 882352
72153 Tempo 909090
72172 Tempo 937500
72192 Tempo 967741
72192 Tempo 731707
72345 Tempo 750000
72499 Tempo 769230
72652 Tempo 789473
72806 Tempo 810810
72960 Tempo 833333
73728 Tempo 833333
73779 Tempo 810810
73830 Tempo 789473
73881 Tempo 769230
73932 Tempo 750000
73984 Tempo 731707
74035 Tempo 714285
74086 Tempo 697674
74137 Tempo 681818
74188 Tempo 666666
74240 Tempo 652173
74291 Tempo 638297
74342 Tempo 625000
74393 Tempo 612244
74444 Tempo 600000
74496 Tempo 588235
74547 Tempo 576923
74598 Tempo 566037
74649 Tempo 555555
74700 Tempo 545454
74752 Tempo 535714
74803 Tempo 526315
74854 Tempo 517241
74905 Tempo 508474
74956 Tempo 500000
75008 Tempo 491803
75059 Tempo 483870
75110 Tempo 476190
75161 Tempo 468750
75212 Tempo 461538
75264 Tempo 454545
76416 Tempo 454545
76431 Tempo 461538
76446 Tempo 468750
76462 Tempo 476190
76477 Tempo 483870
76492 Tempo 491803
76508 Tempo 500000
76523 Tempo 508474
76538 Tempo 517241
76554 Tempo 526315
76569 Tempo 535714
76584 Tempo 545454
76600 Tempo 555555
76615 Tempo 566037
76631 Tempo 576923
76646 Tempo 588235
76661 Tempo 600000
76677 Tempo 612244
76692 Tempo 625000
76707 Tempo 638297
76723 Tempo 652173
76738 Tempo 666666
76753 Tempo 681818
76769 Tempo 697674
76784 Tempo 714285
76800 Tempo 731707
76830 Tempo 714285
76861 Tempo 697674
76892 Tempo 681818
76922 Tempo 666666
76953 Tempo 652173
76984 Tempo 638297
77015 Tempo 625000
77045 Tempo 612244
77076 Tempo 600000
77107 Tempo 588235
77137 Tempo 576923
77168 Tempo 566037
77199 Tempo 555555
77230 Tempo 545454
77260 Tempo 535714
77291 Tempo 526315
77322 Tempo 517241
77352 Tempo 508474
77383 Tempo 500000
77414 Tempo 491803
77445 Tempo 483870
77475 Tempo 476190
77506 Tempo 468750
77537 Tempo 461538
77568 Tempo 454545
79488 Tempo 454545
79503 Tempo 461538
79518 Tempo 468750
79534 Tempo 476190
79549 Tempo 483870
79564 Tempo 491803
79580 Tempo 500000
79595 Tempo 508474
79610 Tempo 517241
79626 Tempo 526315
79641 Tempo 535714
79656 Tempo 545454
79672 Tempo 555555
79687 Tempo 566037
79703 Tempo 576923
79718 Tempo 588235
79733 Tempo 600000
79749 Tempo 612244
79764 Tempo 625000
79779 Tempo 638297
79795 Tempo 652173
79810 Tempo 666666
79825 Tempo 681818
79841 Tempo 697674
79856 Tempo 714285
79872 Tempo 731707
79902 Tempo 714285
79933 Tempo 697674
79964 Tempo 681818
79994 Tempo 666666
80025 Tempo 652173
80056 Tempo 638297
80087 Tempo 625000
80117 Tempo 612244
80148 Tempo 600000
80179 Tempo 588235
80209 Tempo 576923
80240 Tempo 566037
80271 Tempo 555555
80302 Tempo 545454
80332 Tempo 535714
80363 Tempo 526315
80394 Tempo 517241
80424 Tempo 508474
80455 Tempo 500000
80486 Tempo 491803
80517 Tempo 483870
80547 Tempo 476190
80578 Tempo 468750
80609 Tempo 461538
80640 Tempo 454545
82560 Tempo 454545
82575 Tempo 461538
82590 Tempo 468750
82606 Tempo 476190
82621 Tempo 483870
82636 Tempo 491803
82652 Tempo 500000
82667 Tempo 508474
82682 Tempo 517241
82698 Tempo 526315
82713 Tempo 535714
82728 Tempo 545454
82744 Tempo 555555
82759 Tempo 566037
82775 Tempo 576923
82790 Tempo 588235
82805 Tempo 600000
82821 Tempo 612244
82836 Tempo 625000
82851 Tempo 638297
82867 Tempo 652173
82882 Tempo 666666
82897 Tempo 681818
82913 Tempo 697674
82928 Tempo 714285
82944 Tempo 731707
82944 Tempo 428571
83184 Tempo 731707
83280 Tempo 666666
83328 Tempo 1034482
83347 Tempo 1016949
83366 Tempo 1000000
83385 Tempo 983606
83404 Tempo 967741
83424 Tempo 952380
83443 Tempo 937500
83462 Tempo 923076
83481 Tempo 909090
83500 Tempo 895522
83520 Tempo 882352
83712 Tempo 882352
83952 Tempo 588235
84480 Tempo 441176
95232 Tempo 857142
96000 Tempo 588235
96384 Tempo 857142
96768 Tempo 1428571
96832 Tempo 869565
96896 Tempo 769230
96960 Tempo 545454
97024 Tempo 618556
97152 Tempo 3000000
97248 Tempo 750000
97344 Tempo 461538
99840 Tempo 545454
100992 Tempo 857142
101376 Tempo 1500000
101376 TimeSig 3/2 48 8
101568 Tempo 1052631
101760 Tempo 909090
102528 Tempo 952380
102720 Tempo 769230
102912 Tempo 789473
103680 Tempo 869565
103872 Tempo 600000
104064 Tempo 740740
104832 Tempo 2857142
104832 TimeSig 4/4 24 8
104880 Tempo 2000000
104928 Tempo 1538461
104976 Tempo 1153846
105024 Tempo 869565
105120 Tempo 750000
105168 Tempo 705882
105312 Tempo 1000000
105600 Tempo 600000
106992 Tempo 666666
107904 Tempo 1333333
108480 Tempo 1333333
108492 Tempo 1395348
108505 Tempo 1463414
108518 Tempo 1538461
108531 Tempo 1621621
108544 Tempo 1714285
108556 Tempo 1818181
108569 Tempo 1935483
108582 Tempo 2068965
108595 Tempo 2222222
108608 Tempo 2400000
108620 Tempo 2608695
108633 Tempo 2857142
108646 Tempo 3157894
108659 Tempo 3529411
108672 Tempo 4000000
108672 Tempo 1333333
114508 Tempo 1395348
114585 Tempo 1463414
114662 Tempo 1538461
114739 Tempo 1621621
114816 Tempo 1714285
114816 Tempo 1333333
114816 TimeSig 3/2 48 8
115968 TimeSig 4/4 24 8
117504 TimeSig 3/2 48 8
118656 TimeSig 4/4 24 8
120192 TimeSig 3/2 48 8
122496 TimeSig 4/4 24 8
124416 Tempo 1333333
124470 Tempo 1395348
124525 Tempo 1463414
124580 Tempo 1538461
124635 Tempo 1621621
124690 Tempo 1714285
124745 Tempo 1818181
124800 Tempo 2000000
124800 Tempo 769230
124848 Tempo 1016949
124992 Tempo 769230
125040 Tempo 1016949
125184 Tempo 769230
125232 Tempo 1016949
125376 Tempo 769230
125424 Tempo 1016949
125568 Tempo 769230
125616 Tempo 1016949
125760 Tempo 769230
125808 Tempo 1016949
125952 Tempo 769230
126000 Tempo 1016949
126144 Tempo 769230
126192 Tempo 1016949
126336 Tempo 769230
126384 Tempo 1016949
126528 Tempo 769230
126576 Tempo 1016949
126720 Tempo 769230
126768 Tempo 1016949
126912 Tempo 769230
126960 Tempo 1016949
127104 Tempo 769230
127152 Tempo 1016949
127296 Tempo 769230
127344 Tempo 1016949
127488 Tempo 769230
127536 Tempo 1016949
127680 Tempo 769230
127728 Tempo 1016949
127872 Tempo 769230
127920 Tempo 1016949
128064 Tempo 769230
128112 Tempo 1016949
128256 Tempo 769230
128304 Tempo 1016949
128448 Tempo 769230
128496 Tempo 1016949
128640 Tempo 769230
128688 Tempo 1016949
128832 Tempo 769230
128880 Tempo 1016949
129024 Tempo 769230
129072 Tempo 1016949
129216 Tempo 769230
129264 Tempo 1016949
129408 Tempo 769230
129456 Tempo 1016949
129600 Tempo 769230
129648 Tempo 1016949
129792 Tempo 769230
129840 Tempo 1016949
129984 Tempo 769230
130032 Tempo 1016949
130176 Tempo 769230
130224 Tempo 1016949
130368 Tempo 769230
130416 Tempo 1016949
130560 Tempo 769230
130608 Tempo 1016949
130752 Tempo 769230
130800 Tempo 1016949
130944 Tempo 769230
130992 Tempo 1016949
131136 Tempo 769230
131184 Tempo 1016949
131328 Tempo 967741
131712 Tempo 967741
132019 Tempo 1000000
132326 Tempo 1034482
132633 Tempo 1071428
132940 Tempo 1111111
133248 Tempo 1153846
133555 Tempo 1200000
133862 Tempo 1250000
134169 Tempo 1304347
134476 Tempo 1363636
134784 Tempo 1428571
135936 Tempo 3000000
135936 Meta TrkEnd
TrkEnd
MTrk
0 Meta TrkName "Pianoforte"
0 Meta 0x21 00
0 Par ch=1 c=121 v=127
0 PrCh ch=1 p=0
0 Par ch=1 c=7 v=127
0 Par ch=1 c=10 v=64
0 Par ch=1 c=91 v=64
3072 Par ch=1 c=64 v=127
3072 On ch=1 n=g#4 v=45
3072 On ch=1 n=e3 v=45
3072 On ch=1 n=b3 v=45
3136 On ch=1 n=b4 v=60
3200 On ch=1 n=b4 v=0
3200 On ch=1 n=e5 v=60
3216 Par ch=1 c=64 v=0
3264 On ch=1 n=e5 v=0
3264 Par ch=1 c=64 v=127
3264 On ch=1 n=g#5 v=60
3328 On ch=1 n=g#5 v=0
3328 On ch=1 n=d#5 v=60
3392 On ch=1 n=e5 v=60
3408 Par ch=1 c=64 v=0
3454 On ch=1 n=d#5 v=0
3456 On ch=1 n=e5 v=0
3456 Par ch=1 c=64 v=127
3456 On ch=1 n=g#5 v=60
3520 On ch=1 n=g#5 v=0
3520 On ch=1 n=b5 v=60
3584 On ch=1 n=b5 v=0
3584 On ch=1 n=d5 v=60
3600 Par ch=1 c=64 v=0
3648 Par ch=1 c=64 v=127
3648 On ch=1 n=f5 v=60
3710 On ch=1 n=d5 v=0
3712 On ch=1 n=f5 v=0
3712 On ch=1 n=g#5 v=60
3776 On ch=1 n=g#5 v=0
3776 On ch=1 n=b5 v=60
3792 On ch=1 n=g#4 v=0
3792 On ch=1 n=e3 v=0
3792 On ch=1 n=b3 v=0
3792 Par ch=1 c=64 v=0
3838 On ch=1 n=b5 v=0
3840 Par ch=1 c=64 v=127
3840 On ch=1 n=c#5 v=60
3840 On ch=1 n=a4 v=45
3840 On ch=1 n=c#4 v=45
3840 On ch=1 n=e3 v=45
3904 On ch=1 n=c#5 v=0
3904 On ch=1 n=f5 v=60
3968 On ch=1 n=f5 v=0
3968 On ch=1 n=g#5 v=60
3984 Par ch=1 c=64 v=0
4032 On ch=1 n=g#5 v=0
4032 Par ch=1 c=64 v=127
4032 On ch=1 n=b5 v=60
4096 On ch=1 n=b5 v=0
4096 On ch=1 n=c#5 v=60
4160 On ch=1 n=f5 v=60
4176 On ch=1 n=a4 v=0
4176 Par ch=1 c=64 v=0
4222 On ch=1 n=c#5 v=0
4224 On ch=1 n=f5 v=0
4224 Par ch=1 c=64 v=127
4224 On ch=1 n=g#5 v=60
4288 On ch=1 n=g#5 v=0
4288 On ch=1 n=a5 v=60
4350 On ch=1 n=c#4 v=0
4352 On ch=1 n=a5 v=0
4352 On ch=1 n=c5 v=60
4352 On ch=1 n=c4 v=45
4368 Par ch=1 c=64 v=0
4416 On ch=1 n=c5 v=0
4416 Par ch=1 c=64 v=127
4416 On ch=1 n=d#5 v=60
4480 On ch=1 n=d#5 v=0
4480 On ch=1 n=f#5 v=60
4544 On ch=1 n=f#5 v=0
4544 On ch=1 n=a5 v=60
4560 On ch=1 n=e3 v=0
4560 Par ch=1 c=64 v=0
4576 On ch=1 n=c4 v=0
4606 On ch=1 n=a5 v=0
4608 Par ch=1 c=64 v=127
4608 On ch=1 n=b4 v=60
4608 On ch=1 n=g#4 v=45
4608 On ch=1 n=b3 v=45
4608 On ch=1 n=e3 v=45
4672 On ch=1 n=b4 v=0
4672 On ch=1 n=d#5 v=60
4736 On ch=1 n=d#5 v=0
4736 On ch=1 n=f#5 v=60
4752 Par ch=1 c=64 v=0
4800 On ch=1 n=f#5 v=0
4800 Par ch=1 c=64 v=127
4800 On ch=1 n=a5 v=60
4864 On ch=1 n=a5 v=0
4864 On ch=1 n=b4 v=60
4928 On ch=1 n=d#5 v=60
4944 On ch=1 n=g#4 v=0
4944 Par ch=1 c=64 v=0
4990 On ch=1 n=b4 v=0
4992 On ch=1 n=d#5 v=0
4992 Par ch=1 c=64 v=127
4992 On ch=1 n=f#5 v=60
5056 On ch=1 n=f#5 v=0
5056 On ch=1 n=g#5 v=60
5118 On ch=1 n=b3 v=0
5120 On ch=1 n=g#5 v=0
5120 On ch=1 n=b4 v=60
5120 On ch=1 n=d4 v=45
5136 Par ch=1 c=64 v=0
5184 Par ch=1 c=64 v=127
5184 On ch=1 n=d5 v=60
5246 On ch=1 n=b4 v=0
5248 On ch=1 n=d5 v=0
5248 On ch=1 n=f5 v=60
5312 On ch=1 n=f5 v=0
5312 On ch=1 n=g#5 v=60
5328 On ch=1 n=e3 v=0
5328 Par ch=1 c=64 v=0
5344 On ch=1 n=d4 v=0
5374 On ch=1 n=g#5 v=0
5376 Par ch=1 c=64 v=127
5376 On ch=1 n=a#4 v=60
5376 On ch=1 n=f#4 v=45
5376 On ch=1 n=c#4 v=45
5376 On ch=1 n=e3 v=45
5440 On ch=1 n=a#4 v=0
5440 On ch=1 n=c#5 v=60
5504 On ch=1 n=c#5 v=0
5504 On ch=1 n=e5 v=60
5520 Par ch=1 c=64 v=0
5568 On ch=1 n=e5 v=0
5568 Par ch=1 c=64 v=127
5568 On ch=1 n=g#5 v=60
5630 On ch=1 n=c#4 v=0
5632 On ch=1 n=g#5 v=0
5632 On ch=1 n=a4 v=60
5632 On ch=1 n=c4 v=45
5696 On ch=1 n=c5 v=60
5712 Par ch=1 c=64 v=0
5758 On ch=1 n=a4 v=0
5760 On ch=1 n=c5 v=0
5760 Par ch=1 c=64 v=127
5760 On ch=1 n=e5 v=60
5824 On ch=1 n=e5 v=0
5824 On ch=1 n=f#5 v=60
5886 On ch=1 n=f#4 v=0
5886 On ch=1 n=c4 v=0
5888 On ch=1 n=f#5 v=0
5888 On ch=1 n=a4 v=60
5888 On ch=1 n=f#4 v=45
5888 On ch=1 n=b3 v=45
5904 Par ch=1 c=64 v=0
5950 On ch=1 n=f#4 v=0
5952 On ch=1 n=a4 v=0
5952 Par ch=1 c=64 v=127
5952 On ch=1 n=b4 v=60
5952 On ch=1 n=f#4 v=45
6016 On ch=1 n=b4 v=0
6016 On ch=1 n=d#5 v=60
6080 On ch=1 n=d#5 v=0
6080 On ch=1 n=f#5 v=60
6096 On ch=1 n=e3 v=0
6096 Par ch=1 c=64 v=0
6112 On ch=1 n=b3 v=0
6112 On ch=1 n=f#4 v=0
6142 On ch=1 n=f#5 v=0
6144 Par ch=1 c=64 v=127
6144 On ch=1 n=g#4 v=45
6144 On ch=1 n=e3 v=45
6144 On ch=1 n=b3 v=45
6208 On ch=1 n=b4 v=60
6272 On ch=1 n=b4 v=0
6272 On ch=1 n=e5 v=60
6288 Par ch=1 c=64 v=0
6336 On ch=1 n=e5 v=0
6336 Par ch=1 c=64 v=127
6336 On ch=1 n=g#5 v=60
6400 On ch=1 n=g#5 v=0
6400 On ch=1 n=d#5 v=60
6464 On ch=1 n=e5 v=60
6480 Par ch=1 c=64 v=0
6526 On ch=1 n=d#5 v=0
6528 On ch=1 n=e5 v=0
6528 Par ch=1 c=64 v=127
6528 On ch=1 n=g#5 v=60
6592 On ch=1 n=g#5 v=0
6592 On ch=1 n=b5 v=60
6656 On ch=1 n=b5 v=0
6656 On ch=1 n=d5 v=60
6672 Par ch=1 c=64 v=0
6720 Par ch=1 c=64 v=127
6720 On ch=1 n=f5 v=60
6782 On ch=1 n=d5 v=0
6784 On ch=1 n=f5 v=0
6784 On ch=1 n=g#5 v=60
6848 On ch=1 n=g#5 v=0
6848 On ch=1 n=b5 v=60
6864 On ch=1 n=g#4 v=0
6864 On ch=1 n=e3 v=0
6864 On ch=1 n=b3 v=0
6864 Par ch=1 c=64 v=0
6910 On ch=1 n=b5 v=0
6912 Par ch=1 c=64 v=127
6912 On ch=1 n=c#5 v=60
6912 On ch=1 n=a4 v=45
6912 On ch=1 n=c#4 v=45
6912 On ch=1 n=e3 v=45
6976 On ch=1 n=c#5 v=0
6976 On ch=1 n=f5 v=60
7040 On ch=1 n=f5 v=0
7040 On ch=1 n=g#5 v=60
7056 Par ch=1 c=64 v=0
7104 On ch=1 n=g#5 v=0
7104 Par ch=1 c=64 v=127
7104 On ch=1 n=b5 v=60
7168 On ch=1 n=b5 v=0
7168 On ch=1 n=c#5 v=60
7232 On ch=1 n=f5 v=60
7248 On ch=1 n=a4 v=0
7248 Par ch=1 c=64 v=0
7294 On ch=1 n=c#5 v=0
7296 On ch=1 n=f5 v=0
7296 Par ch=1 c=64 v=127
7296 On ch=1 n=g#5 v=60
7360 On ch=1 n=g#5 v=0
7360 On ch=1 n=a5 v=60
7422 On ch=1 n=c#4 v=0
7424 On ch=1 n=a5 v=0
7424 On ch=1 n=c5 v=60
7424 On ch=1 n=c4 v=45
7440 Par ch=1 c=64 v=0
7488 On ch=1 n=c5 v=0
7488 Par ch=1 c=64 v=127
7488 On ch=1 n=d#5 v=60
7552 On ch=1 n=d#5 v=0
7552 On ch=1 n=f#5 v=60
7616 On ch=1 n=f#5 v=0
7616 On ch=1 n=a5 v=60
7632 On ch=1 n=e3 v=0
7632 Par ch=1 c=64 v=0
7648 On ch=1 n=c4 v=0
7678 On ch=1 n=a5 v=0
7680 Par ch=1 c=64 v=127
7680 On ch=1 n=b4 v=60
7680 On ch=1 n=g#4 v=45
7680 On ch=1 n=b3 v=45
7680 On ch=1 n=e3 v=45
7744 On ch=1 n=b4 v=0
7744 On ch=1 n=d#5 v=60
7808 On ch=1 n=d#5 v=0
7808 On ch=1 n=f#5 v=60
7824 Par ch=1 c=64 v=0
7872 On ch=1 n=f#5 v=0
7872 Par ch=1 c=64 v=127
7872 On ch=1 n=a5 v=60
7936 On ch=1 n=a5 v=0
7936 On ch=1 n=b4 v=60
8000 On ch=1 n=d#5 v=60
8016 On ch=1 n=g#4 v=0
8016 Par ch=1 c=64 v=0
8062 On ch=1 n=b4 v=0
8064 On ch=1 n=d#5 v=0
8064 Par ch=1 c=64 v=127
8064 On ch=1 n=f#5 v=60
8128 On ch=1 n=f#5 v=0
8128 On ch=1 n=g#5 v=60
8190 On ch=1 n=b3 v=0
8192 On ch=1 n=g#5 v=0
8192 On ch=1 n=b4 v=60
8192 On ch=1 n=d4 v=45
8208 Par ch=1 c=64 v=0
8256 Par ch=1 c=64 v=127
8256 On ch=1 n=d5 v=60
8318 On ch=1 n=b4 v=0
8320 On ch=1 n=d5 v=0
8320 On ch=1 n=f5 v=60
8384 On ch=1 n=f5 v=0
8384 On ch=1 n=g#5 v=60
8400 On ch=1 n=e3 v=0
8400 Par ch=1 c=64 v=0
8416 On ch=1 n=d4 v=0
8446 On ch=1 n=g#5 v=0
8448 Par ch=1 c=64 v=127
8448 On ch=1 n=a#4 v=60
8448 On ch=1 n=g#4 v=45
8448 On ch=1 n=c#4 v=45
8448 On ch=1 n=e3 v=45
8512 On ch=1 n=a#4 v=0
8512 On ch=1 n=c#5 v=60
8576 On ch=1 n=c#5 v=0
8576 On ch=1 n=e5 v=60
8592 Par ch=1 c=64 v=0
8640 On ch=1 n=e5 v=0
8640 Par ch=1 c=64 v=127
8640 On ch=1 n=g#5 v=60
8704 On ch=1 n=g#5 v=0
8704 On ch=1 n=a4 v=60
8768 On ch=1 n=c5 v=60
8784 On ch=1 n=g#4 v=0
8784 Par ch=1 c=64 v=0
8830 On ch=1 n=a4 v=0
8832 On ch=1 n=c5 v=0
8832 Par ch=1 c=64 v=127
8832 On ch=1 n=e5 v=60
8832 On ch=1 n=f#4 v=45
8896 On ch=1 n=e5 v=0
8896 On ch=1 n=f#5 v=60
8926 On ch=1 n=c#4 v=0
8928 On ch=1 n=c4 v=45
8960 On ch=1 n=f#5 v=0
8960 On ch=1 n=a4 v=60
8976 Par ch=1 c=64 v=0
9022 On ch=1 n=c4 v=0
9024 On ch=1 n=a4 v=0
9024 Par ch=1 c=64 v=127
9024 On ch=1 n=d#5 v=60
9024 On ch=1 n=b3 v=45
9088 On ch=1 n=d#5 v=0
9088 On ch=1 n=b4 v=60
9152 On ch=1 n=b4 v=0
9152 On ch=1 n=f#5 v=60
9168 On ch=1 n=e3 v=0
9168 On ch=1 n=f#4 v=0
9168 Par ch=1 c=64 v=0
9184 On ch=1 n=b3 v=0
9214 On ch=1 n=f#5 v=0
9216 Par ch=1 c=64 v=127
9216 On ch=1 n=g#4 v=60
9216 On ch=1 n=e3 v=45
9216 On ch=1 n=b3 v=45
9280 On ch=1 n=b4 v=60
9344 On ch=1 n=b4 v=0
9344 On ch=1 n=e5 v=60
9360 Par ch=1 c=64 v=0
9408 On ch=1 n=e5 v=0
9408 Par ch=1 c=64 v=127
9408 On ch=1 n=g#5 v=60
9472 On ch=1 n=g#5 v=0
9472 On ch=1 n=b4 v=60
9536 On ch=1 n=b4 v=0
9536 On ch=1 n=e5 v=60
9552 Par ch=1 c=64 v=0
9600 On ch=1 n=e5 v=0
9600 Par ch=1 c=64 v=127
9600 On ch=1 n=g#4 v=60
9664 On ch=1 n=g#4 v=0
9664 On ch=1 n=b4 v=62
9728 On ch=1 n=b4 v=0
9728 On ch=1 n=e5 v=64
9744 Par ch=1 c=64 v=0
9792 On ch=1 n=e5 v=0
9792 Par ch=1 c=64 v=127
9792 On ch=1 n=b5 v=66
9856 On ch=1 n=b5 v=0
9856 On ch=1 n=b4 v=69
9920 On ch=1 n=b4 v=0
9920 On ch=1 n=e5 v=72
9936 On ch=1 n=e3 v=0
9936 On ch=1 n=b3 v=0
9936 On ch=1 n=g#4 v=0
9936 Par ch=1 c=64 v=0
9982 On ch=1 n=e5 v=0
9984 Par ch=1 c=64 v=127
9984 On ch=1 n=c#5 v=75
9984 On ch=1 n=a4 v=60
9984 On ch=1 n=e3 v=60
9984 On ch=1 n=b3 v=60
10048 On ch=1 n=c#5 v=0
10048 On ch=1 n=d#5 v=75
10112 On ch=1 n=d#5 v=0
10112 On ch=1 n=a5 v=72
10128 Par ch=1 c=64 v=0
10176 On ch=1 n=a5 v=0
10176 Par ch=1 c=64 v=127
10176 On ch=1 n=b5 v=69
10240 On ch=1 n=b5 v=0
10240 On ch=1 n=b4 v=66
10304 On ch=1 n=b4 v=0
10304 On ch=1 n=b5 v=63
10320 On ch=1 n=a4 v=0
10320 On ch=1 n=e3 v=0
10320 On ch=1 n=b3 v=0
10320 Par ch=1 c=64 v=0
10366 On ch=1 n=b5 v=0
10368 Par ch=1 c=64 v=127
10368 On ch=1 n=g#4 v=60
10368 On ch=1 n=e3 v=45
10368 On ch=1 n=b3 v=45
10432 On ch=1 n=b4 v=60
10496 On ch=1 n=b4 v=0
10496 On ch=1 n=e5 v=60
10512 Par ch=1 c=64 v=0
10560 On ch=1 n=e5 v=0
10560 Par ch=1 c=64 v=127
10560 On ch=1 n=g#5 v=63
10624 On ch=1 n=g#5 v=0
10624 On ch=1 n=b4 v=67
10688 On ch=1 n=b4 v=0
10688 On ch=1 n=e5 v=71
10704 On ch=1 n=g#4 v=0
10704 On ch=1 n=e3 v=0
10704 On ch=1 n=b3 v=0
10704 Par ch=1 c=64 v=0
10750 On ch=1 n=e5 v=0
10752 Par ch=1 c=64 v=127
10752 On ch=1 n=c5 v=75
10752 On ch=1 n=g#4 v=60
10752 On ch=1 n=e3 v=60
10752 On ch=1 n=c4 v=60
10816 On ch=1 n=c5 v=0
10816 On ch=1 n=d#5 v=75
10880 On ch=1 n=d#5 v=0
10880 On ch=1 n=f#5 v=72
10896 Par ch=1 c=64 v=0
10944 On ch=1 n=f#5 v=0
10944 Par ch=1 c=64 v=127
10944 On ch=1 n=c6 v=69
11008 On ch=1 n=c6 v=0
11008 On ch=1 n=d#5 v=66
11072 On ch=1 n=d#5 v=0
11072 On ch=1 n=g#5 v=63
11088 On ch=1 n=g#4 v=0
11088 On ch=1 n=e3 v=0
11088 On ch=1 n=c4 v=0
11088 Par ch=1 c=64 v=0
11134 On ch=1 n=g#5 v=0
11136 Par ch=1 c=64 v=127
11136 On ch=1 n=b4 v=60
11136 On ch=1 n=g#4 v=60
11136 On ch=1 n=e3 v=45
11136 On ch=1 n=b3 v=45
11200 On ch=1 n=b4 v=0
11200 On ch=1 n=e5 v=60
11264 On ch=1 n=e5 v=0
11264 On ch=1 n=g#5 v=60
11280 Par ch=1 c=64 v=0
11328 On ch=1 n=g#5 v=0
11328 Par ch=1 c=64 v=127
11328 On ch=1 n=b5 v=60
11392 On ch=1 n=b5 v=0
11392 On ch=1 n=e5 v=60
11456 On ch=1 n=e5 v=0
11456 On ch=1 n=g#5 v=60
11472 On ch=1 n=g#4 v=0
11472 On ch=1 n=e3 v=0
11472 On ch=1 n=b3 v=0
11472 Par ch=1 c=64 v=0
11518 On ch=1 n=g#5 v=0
11520 Par ch=1 c=64 v=127
11520 On ch=1 n=b4 v=75
11584 On ch=1 n=b4 v=0
11584 On ch=1 n=g#5 v=75
11616 On ch=1 n=d6 v=92
11648 On ch=1 n=g#5 v=0
11648 On ch=1 n=d5 v=75
11664 Par ch=1 c=64 v=0
11712 On ch=1 n=d6 v=0
11712 On ch=1 n=d5 v=0
11712 Par ch=1 c=64 v=127
11712 On ch=1 n=e6 v=92
11712 On ch=1 n=b4 v=75
11776 On ch=1 n=b4 v=0
11776 On ch=1 n=d5 v=75
11808 On ch=1 n=e6 v=0
11808 On ch=1 n=d6 v=92
11840 On ch=1 n=d5 v=0
11840 On ch=1 n=e4 v=75
11856 Par ch=1 c=64 v=0
11902 On ch=1 n=e4 v=0
11904 On ch=1 n=d6 v=0
11904 Par ch=1 c=64 v=127
11904 On ch=1 n=c#6 v=92
11904 On ch=1 n=a4 v=75
11968 On ch=1 n=a4 v=0
11968 On ch=1 n=a5 v=75
12000 On ch=1 n=c#6 v=0
12000 On ch=1 n=d6 v=92
12032 On ch=1 n=a5 v=0
12032 On ch=1 n=e5 v=75
12048 Par ch=1 c=64 v=0
12096 On ch=1 n=d6 v=0
12096 On ch=1 n=e5 v=0
12096 Par ch=1 c=64 v=127
12096 On ch=1 n=e6 v=92
12096 On ch=1 n=c#5 v=75
12160 On ch=1 n=c#5 v=0
12160 On ch=1 n=e5 v=75
12224 On ch=1 n=e5 v=0
12224 On ch=1 n=a4 v=75
12240 Par ch=1 c=64 v=0
12288 On ch=1 n=e6 v=0
12288 On ch=1 n=a4 v=0
12288 Par ch=1 c=64 v=127
12288 On ch=1 n=c#5 v=60
12288 On ch=1 n=e3 v=45
12352 On ch=1 n=e5 v=60
12416 On ch=1 n=e5 v=0
12416 On ch=1 n=a5 v=60
12432 Par ch=1 c=64 v=0
12480 On ch=1 n=a5 v=0
12480 Par ch=1 c=64 v=127
12480 On ch=1 n=a5 v=63
12544 On ch=1 n=a5 v=0
12544 On ch=1 n=e5 v=67
12608 On ch=1 n=e5 v=0
12608 On ch=1 n=a5 v=71
12624 On ch=1 n=c#5 v=0
12624 Par ch=1 c=64 v=0
12670 On ch=1 n=a5 v=0
12672 Par ch=1 c=64 v=127
12672 On ch=1 n=d5 v=75
12736 On ch=1 n=f5 v=75
12800 On ch=1 n=f5 v=0
12800 On ch=1 n=g#5 v=75
12816 Par ch=1 c=64 v=0
12864 On ch=1 n=g#5 v=0
12864 Par ch=1 c=64 v=127
12864 On ch=1 n=d6 v=72
12928 On ch=1 n=d6 v=0
12928 On ch=1 n=e5 v=68
12992 On ch=1 n=e5 v=0
12992 On ch=1 n=g#5 v=64
13008 On ch=1 n=e3 v=0
13008 On ch=1 n=d5 v=0
13008 Par ch=1 c=64 v=0
13054 On ch=1 n=g#5 v=0
13056 Par ch=1 c=64 v=127
13056 On ch=1 n=c#5 v=75
13056 On ch=1 n=e4 v=45
13056 On ch=1 n=e3 v=45
13120 On ch=1 n=e5 v=60
13184 On ch=1 n=e5 v=0
13184 On ch=1 n=a5 v=60
13200 Par ch=1 c=64 v=0
13248 On ch=1 n=a5 v=0
13248 Par ch=1 c=64 v=127
13248 On ch=1 n=c#6 v=63
13312 On ch=1 n=c#6 v=0
13312 On ch=1 n=e5 v=67
13376 On ch=1 n=e5 v=0
13376 On ch=1 n=a5 v=71
13392 On ch=1 n=c#5 v=0
13392 Par ch=1 c=64 v=0
13438 On ch=1 n=a5 v=0
13440 On ch=1 n=e4 v=0
13440 Par ch=1 c=64 v=127
13440 On ch=1 n=a4 v=75
13440 On ch=1 n=c#4 v=45
13504 On ch=1 n=c#5 v=75
13568 On ch=1 n=c#5 v=0
13568 On ch=1 n=g5 v=75
13584 Par ch=1 c=64 v=0
13632 On ch=1 n=g5 v=0
13632 Par ch=1 c=64 v=127
13632 On ch=1 n=c#6 v=72
13696 On ch=1 n=c#6 v=0
13696 On ch=1 n=c#5 v=68
13760 On ch=1 n=c#5 v=0
13760 On ch=1 n=g5 v=64
13776 On ch=1 n=e3 v=0
13776 On ch=1 n=a4 v=0
13776 On ch=1 n=c#4 v=0
13776 Par ch=1 c=64 v=0
13822 On ch=1 n=g5 v=0
13824 Par ch=1 c=64 v=127
13824 On ch=1 n=g#4 v=60
13824 On ch=1 n=e3 v=45
13824 On ch=1 n=c#4 v=45
13888 On ch=1 n=c#5 v=60
13952 On ch=1 n=c#5 v=0
13952 On ch=1 n=e5 v=60
13968 Par ch=1 c=64 v=0
14016 On ch=1 n=e5 v=0
14016 Par ch=1 c=64 v=127
14016 On ch=1 n=g#5 v=60
14080 On ch=1 n=e5 v=75
14110 On ch=1 n=g#5 v=0
14112 On ch=1 n=c6 v=92
14144 On ch=1 n=e5 v=0
14144 On ch=1 n=g#5 v=75
14160 On ch=1 n=g#4 v=0
14160 On ch=1 n=e3 v=0
14160 On ch=1 n=c#4 v=0
14160 Par ch=1 c=64 v=0
14206 On ch=1 n=g#5 v=0
14208 On ch=1 n=c6 v=0
14208 Par ch=1 c=64 v=127
14208 On ch=1 n=c#6 v=92
14208 On ch=1 n=c#5 v=75
14272 On ch=1 n=c#5 v=0
14272 On ch=1 n=e5 v=75
14302 On ch=1 n=c#6 v=0
14304 On ch=1 n=b5 v=92
14336 On ch=1 n=e5 v=0
14336 On ch=1 n=g#5 v=75
14352 Par ch=1 c=64 v=0
14398 On ch=1 n=g#5 v=0
14400 On ch=1 n=b5 v=0
14400 Par ch=1 c=64 v=127
14400 On ch=1 n=c6 v=82
14400 On ch=1 n=c5 v=75
14464 On ch=1 n=c5 v=0
14464 On ch=1 n=e5 v=75
14494 On ch=1 n=c6 v=0
14496 On ch=1 n=a#5 v=71
14528 On ch=1 n=e5 v=0
14528 On ch=1 n=g#5 v=75
14544 Par ch=1 c=64 v=0
14544 On ch=1 n=g#4 v=60
14590 On ch=1 n=g#5 v=0
14592 On ch=1 n=a#5 v=0
14592 Par ch=1 c=64 v=127
14592 On ch=1 n=b5 v=60
14592 On ch=1 n=e3 v=45
14592 On ch=1 n=b3 v=45
14654 On ch=1 n=b5 v=0
14656 On ch=1 n=b4 v=60
14720 On ch=1 n=b4 v=0
14720 On ch=1 n=e5 v=60
14736 Par ch=1 c=64 v=0
14784 On ch=1 n=e5 v=0
14784 Par ch=1 c=64 v=127
14784 On ch=1 n=g#5 v=60
14848 On ch=1 n=g#5 v=0
14848 On ch=1 n=b4 v=60
14912 On ch=1 n=b4 v=0
14912 On ch=1 n=e5 v=60
14928 Par ch=1 c=64 v=0
14974 On ch=1 n=e5 v=0
14976 Par ch=1 c=64 v=127
14976 On ch=1 n=g#4 v=60
15040 On ch=1 n=g#4 v=0
15040 On ch=1 n=b4 v=62
15104 On ch=1 n=b4 v=0
15104 On ch=1 n=e5 v=64
15120 Par ch=1 c=64 v=0
15168 On ch=1 n=e5 v=0
15168 Par ch=1 c=64 v=127
15168 On ch=1 n=b5 v=66
15232 On ch=1 n=b5 v=0
15232 On ch=1 n=d#5 v=69
15296 On ch=1 n=d#5 v=0
15296 On ch=1 n=e5 v=72
15312 On ch=1 n=e3 v=0
15312 On ch=1 n=b3 v=0
15312 On ch=1 n=g#4 v=0
15312 Par ch=1 c=64 v=0
15358 On ch=1 n=e5 v=0
15360 Par ch=1 c=64 v=127
15360 On ch=1 n=c#5 v=75
15360 On ch=1 n=a4 v=60
15360 On ch=1 n=e3 v=60
15360 On ch=1 n=b3 v=60
15424 On ch=1 n=c#5 v=0
15424 On ch=1 n=d#5 v=75
15488 On ch=1 n=d#5 v=0
15488 On ch=1 n=a5 v=72
15504 Par ch=1 c=64 v=0
15552 On ch=1 n=a5 v=0
15552 Par ch=1 c=64 v=127
15552 On ch=1 n=b5 v=69
15616 On ch=1 n=b5 v=0
15616 On ch=1 n=b4 v=66
15680 On ch=1 n=b4 v=0
15680 On ch=1 n=b5 v=63
15696 On ch=1 n=a4 v=0
15696 On ch=1 n=e3 v=0
15696 On ch=1 n=b3 v=0
15696 Par ch=1 c=64 v=0
15742 On ch=1 n=b5 v=0
15744 Par ch=1 c=64 v=127
15744 On ch=1 n=b4 v=60
15744 On ch=1 n=g#4 v=60
15744 On ch=1 n=e3 v=45
15744 On ch=1 n=b3 v=45
15808 On ch=1 n=b4 v=0
15808 On ch=1 n=e5 v=60
15872 On ch=1 n=e5 v=0
15872 On ch=1 n=g#5 v=60
15888 Par ch=1 c=64 v=0
15936 On ch=1 n=g#5 v=0
15936 Par ch=1 c=64 v=127
15936 On ch=1 n=b5 v=60
16000 On ch=1 n=b5 v=0
16000 On ch=1 n=e5 v=60
16064 On ch=1 n=e5 v=0
16064 On ch=1 n=g#5 v=60
16080 On ch=1 n=g#4 v=0
16080 On ch=1 n=e3 v=0
16080 On ch=1 n=b3 v=0
16080 Par ch=1 c=64 v=0
16126 On ch=1 n=g#5 v=0
16128 Par ch=1 c=64 v=127
16128 On ch=1 n=b4 v=60
16128 On ch=1 n=g#4 v=60
16128 On ch=1 n=d3 v=45
16128 On ch=1 n=d4 v=45
16192 On ch=1 n=b4 v=0
16192 On ch=1 n=f#5 v=60
16256 On ch=1 n=f#5 v=0
16256 On ch=1 n=g#5 v=60
16272 Par ch=1 c=64 v=0
16320 On ch=1 n=g#5 v=0
16320 Par ch=1 c=64 v=127
16320 On ch=1 n=b5 v=60
16384 On ch=1 n=b5 v=0
16384 On ch=1 n=b4 v=60
16448 On ch=1 n=b4 v=0
16448 On ch=1 n=f#5 v=60
16464 On ch=1 n=g#4 v=0
16464 On ch=1 n=d3 v=0
16464 On ch=1 n=d4 v=0
16464 Par ch=1 c=64 v=0
16510 On ch=1 n=f#5 v=0
16512 Par ch=1 c=64 v=127
16512 On ch=1 n=g#4 v=60
16512 On ch=1 n=c#3 v=45
16512 On ch=1 n=c#4 v=45
16576 On ch=1 n=b4 v=60
16640 On ch=1 n=b4 v=0
16640 On ch=1 n=f#5 v=60
16656 Par ch=1 c=64 v=0
16704 On ch=1 n=f#5 v=0
16704 Par ch=1 c=64 v=127
16704 On ch=1 n=c#6 v=60
16768 On ch=1 n=c#6 v=0
16768 On ch=1 n=b4 v=60
16832 On ch=1 n=b4 v=0
16832 On ch=1 n=f5 v=60
16848 On ch=1 n=g#4 v=0
16848 On ch=1 n=c#3 v=0
16848 On ch=1 n=c#4 v=0
16848 Par ch=1 c=64 v=0
16894 On ch=1 n=f5 v=0
16896 Par ch=1 c=64 v=127
16896 On ch=1 n=a4 v=60
16896 On ch=1 n=c#4 v=45
16896 On ch=1 n=f#3 v=45
16960 On ch=1 n=c#5 v=60
17024 On ch=1 n=c#5 v=0
17024 On ch=1 n=f#5 v=60
17040 Par ch=1 c=64 v=0
17088 On ch=1 n=c#4 v=0
17088 On ch=1 n=f#5 v=0
17088 Par ch=1 c=64 v=127
17088 On ch=1 n=c#6 v=60
17088 On ch=1 n=f#4 v=45
17152 On ch=1 n=c#6 v=0
17152 On ch=1 n=c#5 v=60
17216 On ch=1 n=c#5 v=0
17216 On ch=1 n=f#5 v=60
17232 On ch=1 n=a4 v=0
17232 On ch=1 n=f#3 v=0
17232 Par ch=1 c=64 v=0
17278 On ch=1 n=f#5 v=0
17280 On ch=1 n=f#4 v=0
17280 Par ch=1 c=64 v=127
17280 On ch=1 n=c5 v=60
17280 On ch=1 n=e4 v=45
17280 On ch=1 n=a3 v=45
17344 On ch=1 n=e5 v=60
17408 On ch=1 n=e5 v=0
17408 On ch=1 n=f#5 v=60
17424 Par ch=1 c=64 v=0
17472 On ch=1 n=f#5 v=0
17472 Par ch=1 c=64 v=127
17472 On ch=1 n=c6 v=60
17536 On ch=1 n=c6 v=0
17536 On ch=1 n=d#5 v=60
17600 On ch=1 n=d#5 v=0
17600 On ch=1 n=f#5 v=60
17616 On ch=1 n=c5 v=0
17616 On ch=1 n=e4 v=0
17616 On ch=1 n=a3 v=0
17616 Par ch=1 c=64 v=0
17662 On ch=1 n=f#5 v=0
17664 Par ch=1 c=64 v=127
17664 On ch=1 n=b4 v=60
17664 On ch=1 n=e4 v=45
17664 On ch=1 n=g#3 v=45
17728 On ch=1 n=e5 v=60
17792 On ch=1 n=e5 v=0
17792 On ch=1 n=g#5 v=60
17808 Par ch=1 c=64 v=0
17856 On ch=1 n=g#5 v=0
17856 Par ch=1 c=64 v=127
17856 On ch=1 n=b5 v=63
17920 On ch=1 n=b5 v=0
17920 On ch=1 n=e5 v=67
17984 On ch=1 n=e5 v=0
17984 On ch=1 n=g#5 v=71
18000 On ch=1 n=b4 v=0
18000 On ch=1 n=e4 v=0
18000 On ch=1 n=g#3 v=0
18000 Par ch=1 c=64 v=0
18046 On ch=1 n=g#5 v=0
18048 Par ch=1 c=64 v=127
18048 On ch=1 n=b4 v=75
18048 On ch=1 n=f4 v=60
18048 On ch=1 n=c#3 v=60
18112 On ch=1 n=c#5 v=75
18176 On ch=1 n=c#5 v=0
18176 On ch=1 n=f5 v=75
18192 Par ch=1 c=64 v=0
18240 On ch=1 n=f5 v=0
18240 Par ch=1 c=64 v=127
18240 On ch=1 n=b5 v=72
18304 On ch=1 n=b5 v=0
18304 On ch=1 n=c#5 v=68
18368 On ch=1 n=c#5 v=0
18368 On ch=1 n=f5 v=64
18384 On ch=1 n=b4 v=0
18384 On ch=1 n=f4 v=0
18384 On ch=1 n=c#3 v=0
18384 Par ch=1 c=64 v=0
18430 On ch=1 n=f5 v=0
18432 Par ch=1 c=64 v=127
18432 On ch=1 n=a#4 v=60
18432 On ch=1 n=c#4 v=45
18432 On ch=1 n=f#3 v=45
18496 On ch=1 n=e5 v=60
18560 On ch=1 n=e5 v=0
18560 On ch=1 n=a#5 v=60
18576 Par ch=1 c=64 v=0
18592 On ch=1 n=a#4 v=0
18622 On ch=1 n=a#5 v=0
18624 On ch=1 n=c#4 v=0
18624 Par ch=1 c=64 v=127
18624 On ch=1 n=a4 v=60
18624 On ch=1 n=c4 v=45
18688 On ch=1 n=e5 v=60
18752 On ch=1 n=e5 v=0
18752 On ch=1 n=a5 v=60
18768 On ch=1 n=f#3 v=0
18768 Par ch=1 c=64 v=0
18784 On ch=1 n=a4 v=0
18814 On ch=1 n=a5 v=0
18816 On ch=1 n=c4 v=0
18816 Par ch=1 c=64 v=127
18816 On ch=1 n=a4 v=60
18816 On ch=1 n=b3 v=45
18816 On ch=1 n=b2 v=45
18880 On ch=1 n=d#5 v=60
18944 On ch=1 n=d#5 v=0
18944 On ch=1 n=a5 v=60
18960 Par ch=1 c=64 v=0
19008 On ch=1 n=a5 v=0
19008 Par ch=1 c=64 v=127
19008 On ch=1 n=b5 v=60
19072 On ch=1 n=b5 v=0
19072 On ch=1 n=d#5 v=60
19136 On ch=1 n=d#5 v=0
19136 On ch=1 n=a4 v=60
19152 On ch=1 n=a4 v=0
19152 On ch=1 n=b3 v=0
19152 On ch=1 n=b2 v=0
19152 Par ch=1 c=64 v=0
19200 On ch=1 n=a4 v=0
19200 On ch=1 n=g#4 v=60
19200 On ch=1 n=e3 v=45
19200 On ch=1 n=b3 v=45
19294 On ch=1 n=g#4 v=0
19294 On ch=1 n=e3 v=0
19294 On ch=1 n=b3 v=0
19392 On ch=1 n=b5 v=92
19584 On ch=1 n=b5 v=0
19584 On ch=1 n=e6 v=92
19776 On ch=1 n=e6 v=0
19776 On ch=1 n=f6 v=92
19936 On ch=1 n=f6 v=0
19968 On ch=1 n=f6 v=92
20352 On ch=1 n=f6 v=0
20352 On ch=1 n=f#6 v=92
20544 On ch=1 n=f#6 v=0
20544 On ch=1 n=a6 v=92
20704 On ch=1 n=a6 v=0
20736 On ch=1 n=d#6 v=92
21120 On ch=1 n=d#6 v=0
21120 On ch=1 n=e6 v=92
21312 On ch=1 n=e6 v=0
21312 On ch=1 n=g#6 v=92
21472 On ch=1 n=g#6 v=0
21504 On ch=1 n=c#6 v=92
21888 On ch=1 n=c#6 v=0
21888 On ch=1 n=e6 v=92
21888 On ch=1 n=e5 v=75
22080 On ch=1 n=e6 v=0
22080 On ch=1 n=e5 v=0
22080 On ch=1 n=f#6 v=92
22080 On ch=1 n=f#5 v=75
22272 On ch=1 n=f#6 v=0
22272 On ch=1 n=f#5 v=0
22272 On ch=1 n=g#6 v=92
22272 On ch=1 n=g#5 v=75
22432 On ch=1 n=g#6 v=0
22432 On ch=1 n=g#5 v=0
22464 On ch=1 n=g#6 v=92
22464 On ch=1 n=g#5 v=75
22752 On ch=1 n=g#6 v=0
22752 On ch=1 n=g#5 v=0
22752 On ch=1 n=g#6 v=92
22752 On ch=1 n=g#5 v=75
22848 On ch=1 n=g#6 v=0
22848 On ch=1 n=g#5 v=0
22848 On ch=1 n=f#6 v=92
22848 On ch=1 n=f#5 v=75
22944 On ch=1 n=f#6 v=0
22944 On ch=1 n=f#5 v=0
22944 On ch=1 n=g#6 v=92
22944 On ch=1 n=g#5 v=75
23040 On ch=1 n=g#6 v=0
23040 On ch=1 n=g#5 v=0
23040 On ch=1 n=g#6 v=92
23040 On ch=1 n=g#5 v=75
23136 On ch=1 n=g#6 v=0
23136 On ch=1 n=g#5 v=0
23136 On ch=1 n=a6 v=92
23136 On ch=1 n=a5 v=75
23232 On ch=1 n=a6 v=0
23232 On ch=1 n=a5 v=0
23232 On ch=1 n=f#6 v=92
23232 On ch=1 n=f#5 v=75
23328 On ch=1 n=f#6 v=0
23328 On ch=1 n=f#5 v=0
23328 On ch=1 n=e6 v=92
23328 On ch=1 n=e5 v=75
23424 On ch=1 n=e6 v=0
23424 On ch=1 n=e5 v=0
23424 On ch=1 n=g#6 v=92
23424 On ch=1 n=g#5 v=75
23902 On ch=1 n=g#6 v=0
23902 On ch=1 n=g#5 v=0
23904 On ch=1 n=f#6 v=88
23904 On ch=1 n=f#5 v=75
24000 On ch=1 n=f#6 v=0
24000 On ch=1 n=f#5 v=0
24000 On ch=1 n=g#6 v=84
24000 On ch=1 n=g#5 v=75
24096 On ch=1 n=g#6 v=0
24096 On ch=1 n=g#5 v=0
24096 On ch=1 n=f#6 v=80
24096 On ch=1 n=f#5 v=75
24192 On ch=1 n=f#6 v=0
24192 On ch=1 n=f#5 v=0
24192 Par ch=1 c=64 v=127
24192 On ch=1 n=g#6 v=75
24192 On ch=1 n=g#5 v=75
24336 Par ch=1 c=64 v=0
24384 Par ch=1 c=64 v=127
24446 On ch=1 n=g#5 v=0
24448 On ch=1 n=e5 v=45
24512 On ch=1 n=e5 v=0
24512 On ch=1 n=g#5 v=45
24528 Par ch=1 c=64 v=0
24576 On ch=1 n=g#5 v=0
24576 Par ch=1 c=64 v=127
24576 On ch=1 n=b4 v=45
24640 On ch=1 n=b4 v=0
24640 On ch=1 n=g#5 v=45
24670 On ch=1 n=g#6 v=0
24704 On ch=1 n=g#5 v=0
24704 On ch=1 n=d5 v=45
24720 Par ch=1 c=64 v=0
24768 On ch=1 n=d5 v=0
24768 Par ch=1 c=64 v=127
24768 On ch=1 n=b4 v=45
24832 On ch=1 n=b4 v=0
24832 On ch=1 n=d5 v=45
24896 On ch=1 n=d5 v=0
24896 On ch=1 n=e4 v=45
24912 Par ch=1 c=64 v=0
24960 On ch=1 n=e4 v=0
24960 Par ch=1 c=64 v=127
24960 On ch=1 n=e3 v=45
25024 On ch=1 n=e3 v=0
25024 On ch=1 n=e4 v=45
25088 On ch=1 n=e4 v=0
25088 On ch=1 n=a4 v=45
25104 Par ch=1 c=64 v=0
25150 On ch=1 n=a4 v=0
25152 On ch=1 n=e6 v=92
25152 On ch=1 n=e5 v=75
25440 On ch=1 n=e6 v=0
25440 On ch=1 n=e5 v=0
25440 On ch=1 n=e6 v=96
25440 On ch=1 n=e5 v=75
25536 On ch=1 n=e6 v=0
25536 On ch=1 n=e5 v=0
25536 On ch=1 n=d6 v=100
25536 On ch=1 n=d5 v=80
25632 On ch=1 n=d6 v=0
25632 On ch=1 n=d5 v=0
25632 On ch=1 n=e6 v=104
25632 On ch=1 n=e5 v=86
25728 On ch=1 n=e6 v=0
25728 On ch=1 n=e5 v=0
25728 On ch=1 n=e6 v=108
25728 On ch=1 n=e5 v=92
25824 On ch=1 n=e6 v=0
25824 On ch=1 n=e5 v=0
25824 On ch=1 n=f6 v=108
25824 On ch=1 n=f5 v=92
25920 On ch=1 n=f6 v=0
25920 On ch=1 n=f5 v=0
25920 On ch=1 n=d6 v=103
25920 On ch=1 n=d5 v=87
26016 On ch=1 n=d6 v=0
26016 On ch=1 n=d5 v=0
26016 On ch=1 n=c#6 v=98
26016 On ch=1 n=c#5 v=81
26112 On ch=1 n=c#6 v=0
26112 On ch=1 n=c#5 v=0
26112 On ch=1 n=e6 v=92
26112 On ch=1 n=e5 v=75
26590 On ch=1 n=e6 v=0
26590 On ch=1 n=e5 v=0
26592 On ch=1 n=d#6 v=92
26592 On ch=1 n=d#5 v=75
26688 On ch=1 n=d#6 v=0
26688 On ch=1 n=d#5 v=0
26688 On ch=1 n=e6 v=82
26688 On ch=1 n=e5 v=65
26784 On ch=1 n=e6 v=0
26784 On ch=1 n=e5 v=0
26784 On ch=1 n=d#6 v=71
26784 On ch=1 n=d#5 v=55
26880 On ch=1 n=d#6 v=0
26880 On ch=1 n=d#5 v=0
26880 Par ch=1 c=64 v=127
26880 On ch=1 n=e6 v=60
26880 On ch=1 n=e5 v=45
27024 Par ch=1 c=64 v=0
27072 Par ch=1 c=64 v=127
27134 On ch=1 n=e5 v=0
27136 On ch=1 n=e5 v=75
27200 On ch=1 n=e5 v=0
27200 On ch=1 n=g#5 v=75
27216 Par ch=1 c=64 v=0
27262 On ch=1 n=g#5 v=0
27264 Par ch=1 c=64 v=127
27264 On ch=1 n=c#5 v=75
27328 On ch=1 n=e5 v=70
27358 On ch=1 n=e6 v=0
27392 On ch=1 n=e5 v=0
27392 On ch=1 n=g#5 v=65
27408 Par ch=1 c=64 v=0
27424 On ch=1 n=c#5 v=0
27454 On ch=1 n=g#5 v=0
27456 Par ch=1 c=64 v=127
27456 On ch=1 n=c5 v=60
27520 On ch=1 n=e5 v=55
27584 On ch=1 n=e5 v=0
27584 On ch=1 n=g#5 v=50
27600 Par ch=1 c=64 v=0
27616 On ch=1 n=c5 v=0
27646 On ch=1 n=g#5 v=0
27648 Par ch=1 c=64 v=127
27648 On ch=1 n=b4 v=45
27712 On ch=1 n=e4 v=45
27776 On ch=1 n=e4 v=0
27776 On ch=1 n=b4 v=45
27792 Par ch=1 c=64 v=0
27808 On ch=1 n=b4 v=0
27838 On ch=1 n=b4 v=0
27840 On ch=1 n=g#6 v=92
27840 On ch=1 n=g#5 v=75
28126 On ch=1 n=g#5 v=0
28128 On ch=1 n=g#6 v=0
28128 On ch=1 n=g#6 v=96
28128 On ch=1 n=g#5 v=75
28224 On ch=1 n=g#6 v=0
28224 On ch=1 n=g#5 v=0
28224 On ch=1 n=f#6 v=100
28224 On ch=1 n=f#5 v=80
28320 On ch=1 n=f#6 v=0
28320 On ch=1 n=f#5 v=0
28320 On ch=1 n=g#6 v=104
28320 On ch=1 n=g#5 v=86
28416 On ch=1 n=g#6 v=0
28416 On ch=1 n=g#5 v=0
28416 On ch=1 n=g#6 v=108
28416 On ch=1 n=g#5 v=92
28512 On ch=1 n=g#6 v=0
28512 On ch=1 n=g#5 v=0
28512 On ch=1 n=a6 v=108
28512 On ch=1 n=a5 v=92
28608 On ch=1 n=a6 v=0
28608 On ch=1 n=a5 v=0
28608 On ch=1 n=f#6 v=103
28608 On ch=1 n=f#5 v=87
28704 On ch=1 n=f#6 v=0
28704 On ch=1 n=f#5 v=0
28704 On ch=1 n=e6 v=98
28704 On ch=1 n=e5 v=81
28800 On ch=1 n=e6 v=0
28800 On ch=1 n=e5 v=0
28800 On ch=1 n=g#6 v=92
28800 On ch=1 n=g#5 v=75
29278 On ch=1 n=g#6 v=0
29278 On ch=1 n=g#5 v=0
29280 On ch=1 n=g#6 v=96
29280 On ch=1 n=g#5 v=75
29376 On ch=1 n=g#6 v=0
29376 On ch=1 n=g#5 v=0
29376 On ch=1 n=f#6 v=100
29376 On ch=1 n=f#5 v=80
29472 On ch=1 n=f#6 v=0
29472 On ch=1 n=f#5 v=0
29472 On ch=1 n=g#6 v=104
29472 On ch=1 n=g#5 v=86
29568 On ch=1 n=g#6 v=0
29568 On ch=1 n=g#5 v=0
29568 On ch=1 n=g#6 v=108
29568 On ch=1 n=g#5 v=92
29664 On ch=1 n=g#6 v=0
29664 On ch=1 n=g#5 v=0
29664 On ch=1 n=a6 v=108
29664 On ch=1 n=a5 v=92
29760 On ch=1 n=a6 v=0
29760 On ch=1 n=a5 v=0
29760 On ch=1 n=f#6 v=108
29760 On ch=1 n=f#5 v=92
29856 On ch=1 n=f#6 v=0
29856 On ch=1 n=f#5 v=0
29856 On ch=1 n=f5 v=92
29856 On ch=1 n=f6 v=108
29952 On ch=1 n=f5 v=0
29952 On ch=1 n=f6 v=0
29952 On ch=1 n=f#6 v=108
29952 On ch=1 n=f#5 v=92
30432 On ch=1 n=f#6 v=0
30432 On ch=1 n=f#5 v=0
30432 On ch=1 n=g#6 v=108
30432 On ch=1 n=g#5 v=92
30528 On ch=1 n=g#6 v=0
30528 On ch=1 n=g#5 v=0
30528 On ch=1 n=e6 v=103
30528 On ch=1 n=e5 v=87
30624 On ch=1 n=e6 v=0
30624 On ch=1 n=e5 v=0
30624 On ch=1 n=d#6 v=98
30624 On ch=1 n=d#5 v=81
30720 On ch=1 n=d#6 v=0
30720 On ch=1 n=d#5 v=0
30720 On ch=1 n=e6 v=92
30720 On ch=1 n=e5 v=75
30880 On ch=1 n=e6 v=0
30880 On ch=1 n=e5 v=0
30912 On ch=1 n=b6 v=108
30912 On ch=1 n=b5 v=92
31104 On ch=1 n=b6 v=0
31104 On ch=1 n=b5 v=0
31104 On ch=1 n=a#6 v=108
31104 On ch=1 n=a#5 v=92
31200 On ch=1 n=a#6 v=0
31200 On ch=1 n=a#5 v=0
31200 On ch=1 n=g#6 v=108
31200 On ch=1 n=g#5 v=92
31296 On ch=1 n=g#6 v=0
31296 On ch=1 n=g#5 v=0
31296 On ch=1 n=g#6 v=108
31296 On ch=1 n=g#5 v=92
31392 On ch=1 n=g#6 v=0
31392 On ch=1 n=g#5 v=0
31392 On ch=1 n=a#6 v=108
31392 On ch=1 n=a#5 v=92
31488 On ch=1 n=a#6 v=0
31488 On ch=1 n=a#5 v=0
31488 On ch=1 n=f#6 v=108
31488 On ch=1 n=f#5 v=92
31680 On ch=1 n=f#6 v=0
31680 On ch=1 n=f#5 v=0
31680 On ch=1 n=g#6 v=96
31680 On ch=1 n=g#5 v=81
31840 On ch=1 n=g#6 v=0
31840 On ch=1 n=g#5 v=0
31872 On ch=1 n=e6 v=84
31872 On ch=1 n=e5 v=69
32160 On ch=1 n=e6 v=0
32160 On ch=1 n=e5 v=0
32160 On ch=1 n=d#6 v=66
32160 On ch=1 n=d#5 v=51
32208 On ch=1 n=b2 v=45
32254 On ch=1 n=d#6 v=0
32254 On ch=1 n=d#5 v=0
32256 Par ch=1 c=64 v=127
32256 On ch=1 n=d#5 v=60
32256 On ch=1 n=b5 v=60
32256 On ch=1 n=d#6 v=60
32256 On ch=1 n=f#4 v=45
32318 On ch=1 n=f#4 v=0
32320 On ch=1 n=b4 v=45
32350 On ch=1 n=d#5 v=0
32350 On ch=1 n=b5 v=0
32350 On ch=1 n=d#6 v=0
32382 On ch=1 n=b4 v=0
32384 On ch=1 n=d#5 v=45
32400 Par ch=1 c=64 v=0
32446 On ch=1 n=d#5 v=0
32448 Par ch=1 c=64 v=127
32448 On ch=1 n=f#5 v=45
32512 On ch=1 n=f#5 v=0
32512 On ch=1 n=a#4 v=45
32576 On ch=1 n=b4 v=45
32592 Par ch=1 c=64 v=0
32638 On ch=1 n=a#4 v=0
32640 On ch=1 n=b4 v=0
32640 Par ch=1 c=64 v=127
32640 On ch=1 n=d#5 v=45
32704 On ch=1 n=d#5 v=0
32704 On ch=1 n=f#5 v=45
32768 On ch=1 n=f#5 v=0
32768 On ch=1 n=a4 v=45
32784 Par ch=1 c=64 v=0
32832 Par ch=1 c=64 v=127
32832 On ch=1 n=c5 v=45
32894 On ch=1 n=a4 v=0
32896 On ch=1 n=c5 v=0
32896 On ch=1 n=d#5 v=45
32960 On ch=1 n=d#5 v=0
32960 On ch=1 n=f#5 v=45
32976 On ch=1 n=b2 v=0
32976 Par ch=1 c=64 v=0
33022 On ch=1 n=f#5 v=0
33024 Par ch=1 c=64 v=127
33024 On ch=1 n=g#4 v=45
33024 On ch=1 n=b2 v=30
33088 On ch=1 n=c5 v=45
33152 On ch=1 n=c5 v=0
33152 On ch=1 n=d#5 v=45
33168 Par ch=1 c=64 v=0
33184 On ch=1 n=g#4 v=0
33216 On ch=1 n=d#5 v=0
33216 Par ch=1 c=64 v=127
33216 On ch=1 n=f#5 v=45
33280 On ch=1 n=f#5 v=0
33280 On ch=1 n=g#4 v=45
33344 On ch=1 n=c5 v=45
33360 Par ch=1 c=64 v=0
33406 On ch=1 n=g#4 v=0
33408 On ch=1 n=c5 v=0
33408 Par ch=1 c=64 v=127
33408 On ch=1 n=c#5 v=45
33472 On ch=1 n=c#5 v=0
33472 On ch=1 n=e5 v=45
33536 On ch=1 n=e5 v=0
33536 On ch=1 n=g4 v=45
33552 Par ch=1 c=64 v=0
33600 Par ch=1 c=64 v=127
33600 On ch=1 n=a#4 v=45
33662 On ch=1 n=g4 v=0
33664 On ch=1 n=a#4 v=0
33664 On ch=1 n=c#5 v=45
33728 On ch=1 n=c#5 v=0
33728 On ch=1 n=e5 v=45
33744 On ch=1 n=b2 v=0
33744 Par ch=1 c=64 v=0
33790 On ch=1 n=e5 v=0
33792 Par ch=1 c=64 v=127
33792 On ch=1 n=f#4 v=45
33792 On ch=1 n=b2 v=30
33856 On ch=1 n=a#4 v=45
33920 On ch=1 n=a#4 v=0
33920 On ch=1 n=c#5 v=45
33936 Par ch=1 c=64 v=0
33952 On ch=1 n=f#4 v=0
33984 On ch=1 n=c#5 v=0
33984 Par ch=1 c=64 v=127
33984 On ch=1 n=e5 v=45
34048 On ch=1 n=e5 v=0
34048 On ch=1 n=f#4 v=45
34112 On ch=1 n=a#4 v=45
34128 Par ch=1 c=64 v=0
34174 On ch=1 n=f#4 v=0
34176 On ch=1 n=a#4 v=0
34176 Par ch=1 c=64 v=127
34176 On ch=1 n=b4 v=45
34240 On ch=1 n=b4 v=0
34240 On ch=1 n=d#5 v=45
34304 On ch=1 n=d#5 v=0
34304 On ch=1 n=f4 v=45
34320 Par ch=1 c=64 v=0
34368 Par ch=1 c=64 v=127
34368 On ch=1 n=g#4 v=45
34430 On ch=1 n=f4 v=0
34432 On ch=1 n=g#4 v=0
34432 On ch=1 n=b4 v=45
34496 On ch=1 n=b4 v=0
34496 On ch=1 n=d#5 v=45
34512 On ch=1 n=b2 v=0
34512 Par ch=1 c=64 v=0
34558 On ch=1 n=d#5 v=0
34560 Par ch=1 c=64 v=127
34560 On ch=1 n=f4 v=45
34560 On ch=1 n=b2 v=30
34624 On ch=1 n=g#4 v=45
34688 On ch=1 n=g#4 v=0
34688 On ch=1 n=b4 v=45
34704 Par ch=1 c=64 v=0
34720 On ch=1 n=f4 v=0
34752 On ch=1 n=b4 v=0
34752 Par ch=1 c=64 v=127
34752 On ch=1 n=c#5 v=45
34816 On ch=1 n=c#5 v=0
34816 On ch=1 n=e4 v=45
34880 On ch=1 n=g#4 v=45
34896 Par ch=1 c=64 v=0
34942 On ch=1 n=e4 v=0
34944 On ch=1 n=g#4 v=0
34944 Par ch=1 c=64 v=127
34944 On ch=1 n=b4 v=45
35008 On ch=1 n=b4 v=0
35008 On ch=1 n=c#5 v=45
35072 On ch=1 n=c#5 v=0
35072 On ch=1 n=e4 v=45
35088 Par ch=1 c=64 v=0
35134 On ch=1 n=e4 v=0
35136 Par ch=1 c=64 v=127
35136 On ch=1 n=g4 v=45
35200 On ch=1 n=a#4 v=45
35264 On ch=1 n=a#4 v=0
35264 On ch=1 n=c#5 v=45
35280 On ch=1 n=b2 v=0
35280 Par ch=1 c=64 v=0
35296 On ch=1 n=g4 v=0
35326 On ch=1 n=c#5 v=0
35328 Par ch=1 c=64 v=127
35328 On ch=1 n=d#4 v=45
35328 On ch=1 n=f#3 v=30
35328 On ch=1 n=b2 v=45
35392 On ch=1 n=f#4 v=49
35456 On ch=1 n=f#4 v=0
35456 On ch=1 n=b4 v=53
35472 Par ch=1 c=64 v=0
35488 On ch=1 n=d#4 v=0
35520 On ch=1 n=b4 v=0
35520 Par ch=1 c=64 v=127
35520 On ch=1 n=d#5 v=57
35582 On ch=1 n=f#3 v=0
35584 On ch=1 n=d#5 v=0
35584 On ch=1 n=e4 v=45
35584 On ch=1 n=g3 v=36
35648 On ch=1 n=b4 v=65
35664 Par ch=1 c=64 v=0
35710 On ch=1 n=e4 v=0
35712 On ch=1 n=b4 v=0
35712 Par ch=1 c=64 v=127
35712 On ch=1 n=c#5 v=70
35776 On ch=1 n=c#5 v=0
35776 On ch=1 n=e5 v=75
35838 On ch=1 n=g3 v=0
35840 On ch=1 n=e5 v=0
35840 On ch=1 n=e4 v=60
35840 On ch=1 n=f#3 v=60
35856 Par ch=1 c=64 v=0
35904 Par ch=1 c=64 v=127
35904 On ch=1 n=a#4 v=75
35966 On ch=1 n=e4 v=0
35968 On ch=1 n=a#4 v=0
35968 On ch=1 n=c#5 v=65
36032 On ch=1 n=c#5 v=0
36032 On ch=1 n=f#5 v=55
36048 On ch=1 n=b2 v=0
36048 Par ch=1 c=64 v=0
36064 On ch=1 n=f#3 v=0
36094 On ch=1 n=f#5 v=0
36096 Par ch=1 c=64 v=127
36096 On ch=1 n=d#4 v=45
36096 On ch=1 n=f#3 v=30
36096 On ch=1 n=b2 v=45
36160 On ch=1 n=f#4 v=49
36224 On ch=1 n=f#4 v=0
36224 On ch=1 n=b4 v=53
36240 Par ch=1 c=64 v=0
36256 On ch=1 n=d#4 v=0
36288 On ch=1 n=b4 v=0
36288 Par ch=1 c=64 v=127
36288 On ch=1 n=d#5 v=57
36350 On ch=1 n=f#3 v=0
36352 On ch=1 n=d#5 v=0
36352 On ch=1 n=g3 v=36
36352 On ch=1 n=e4 v=45
36416 On ch=1 n=b4 v=65
36432 Par ch=1 c=64 v=0
36478 On ch=1 n=e4 v=0
36480 On ch=1 n=b4 v=0
36480 Par ch=1 c=64 v=127
36480 On ch=1 n=c#5 v=70
36544 On ch=1 n=c#5 v=0
36544 On ch=1 n=e5 v=75
36606 On ch=1 n=g3 v=0
36608 On ch=1 n=e5 v=0
36608 On ch=1 n=e4 v=60
36608 On ch=1 n=f#3 v=60
36624 Par ch=1 c=64 v=0
36672 Par ch=1 c=64 v=127
36672 On ch=1 n=a#4 v=75
36734 On ch=1 n=e4 v=0
36736 On ch=1 n=a#4 v=0
36736 On ch=1 n=c#5 v=65
36800 On ch=1 n=c#5 v=0
36800 On ch=1 n=f#5 v=55
36816 On ch=1 n=b2 v=0
36816 Par ch=1 c=64 v=0
36832 On ch=1 n=f#3 v=0
36862 On ch=1 n=f#5 v=0
36864 Par ch=1 c=64 v=127
36864 On ch=1 n=d#4 v=45
36864 On ch=1 n=b2 v=30
36864 On ch=1 n=f#3 v=30
36928 On ch=1 n=d#4 v=0
36928 On ch=1 n=b4 v=45
36992 On ch=1 n=b4 v=0
36992 On ch=1 n=d#5 v=45
37008 Par ch=1 c=64 v=0
37056 On ch=1 n=d#5 v=0
37056 Par ch=1 c=64 v=127
37056 On ch=1 n=f#5 v=45
37120 On ch=1 n=f#5 v=0
37120 On ch=1 n=f#4 v=45
37184 On ch=1 n=f#4 v=0
37184 On ch=1 n=b4 v=45
37200 Par ch=1 c=64 v=0
37248 On ch=1 n=b4 v=0
37248 Par ch=1 c=64 v=127
37248 On ch=1 n=d#5 v=45
37312 On ch=1 n=d#5 v=0
37312 On ch=1 n=f#5 v=45
37342 On ch=1 n=b2 v=0
37342 On ch=1 n=f#3 v=0
37376 On ch=1 n=f#5 v=0
37376 On ch=1 n=f#4 v=45
37392 Par ch=1 c=64 v=0
37440 On ch=1 n=f#4 v=0
37440 Par ch=1 c=64 v=127
37440 On ch=1 n=b4 v=45
37504 On ch=1 n=b4 v=0
37504 On ch=1 n=d#5 v=45
37568 On ch=1 n=d#5 v=0
37568 On ch=1 n=f#5 v=45
37584 Par ch=1 c=64 v=0
37630 On ch=1 n=f#5 v=0
37632 Par ch=1 c=64 v=127
37632 On ch=1 n=f#4 v=45
37696 On ch=1 n=f#4 v=0
37696 On ch=1 n=b4 v=45
37760 On ch=1 n=b4 v=0
37760 On ch=1 n=d#5 v=47
37776 Par ch=1 c=64 v=0
37824 On ch=1 n=d#5 v=0
37824 Par ch=1 c=64 v=127
37824 On ch=1 n=f#5 v=49
37888 On ch=1 n=f#5 v=0
37888 On ch=1 n=f#4 v=51
37952 On ch=1 n=f#4 v=0
37952 On ch=1 n=b4 v=54
37968 Par ch=1 c=64 v=0
38016 On ch=1 n=b4 v=0
38016 Par ch=1 c=64 v=127
38016 On ch=1 n=d5 v=57
38080 On ch=1 n=d5 v=0
38080 On ch=1 n=f#5 v=60
38144 On ch=1 n=f#5 v=0
38144 On ch=1 n=f#4 v=63
38160 Par ch=1 c=64 v=0
38208 On ch=1 n=f#4 v=0
38208 Par ch=1 c=64 v=127
38208 On ch=1 n=b4 v=66
38272 On ch=1 n=b4 v=0
38272 On ch=1 n=d5 v=69
38336 On ch=1 n=d5 v=0
38336 On ch=1 n=f#5 v=72
38352 Par ch=1 c=64 v=0
38398 On ch=1 n=f#5 v=0
38400 Par ch=1 c=64 v=127
38400 On ch=1 n=f#4 v=60
38464 On ch=1 n=f#4 v=0
38464 On ch=1 n=b4 v=60
38496 On ch=1 n=b6 v=92
38528 On ch=1 n=b4 v=0
38528 On ch=1 n=d5 v=60
38544 Par ch=1 c=64 v=0
38592 On ch=1 n=b6 v=0
38592 On ch=1 n=d5 v=0
38592 Par ch=1 c=64 v=127
38592 On ch=1 n=a6 v=92
38592 On ch=1 n=c#5 v=60
38656 On ch=1 n=c#5 v=0
38656 On ch=1 n=d5 v=60
38688 On ch=1 n=a6 v=0
38688 On ch=1 n=b6 v=92
38720 On ch=1 n=d5 v=0
38720 On ch=1 n=b4 v=60
38736 Par ch=1 c=64 v=0
38782 On ch=1 n=b6 v=0
38784 On ch=1 n=b4 v=0
38784 Par ch=1 c=64 v=127
38784 On ch=1 n=b6 v=92
38784 On ch=1 n=g#5 v=60
38848 On ch=1 n=g#5 v=0
38848 On ch=1 n=a5 v=60
38880 On ch=1 n=b6 v=0
38880 On ch=1 n=c#7 v=92
38912 On ch=1 n=a5 v=0
38912 On ch=1 n=d5 v=60
38928 Par ch=1 c=64 v=0
38976 On ch=1 n=c#7 v=0
38976 On ch=1 n=d5 v=0
38976 Par ch=1 c=64 v=127
38976 On ch=1 n=a6 v=92
38976 On ch=1 n=d6 v=75
38976 On ch=1 n=c#5 v=60
39040 On ch=1 n=c#5 v=0
39040 On ch=1 n=d5 v=60
39072 On ch=1 n=a6 v=0
39072 On ch=1 n=g#6 v=92
39104 On ch=1 n=d5 v=0
39104 On ch=1 n=b4 v=60
39120 Par ch=1 c=64 v=0
39166 On ch=1 n=g#6 v=0
39166 On ch=1 n=b4 v=0
39168 Par ch=1 c=64 v=127
39168 On ch=1 n=a6 v=92
39168 On ch=1 n=f#5 v=60
39232 On ch=1 n=f#5 v=0
39232 On ch=1 n=g#5 v=60
39264 On ch=1 n=a6 v=0
39264 On ch=1 n=b6 v=92
39296 On ch=1 n=g#5 v=0
39296 On ch=1 n=d5 v=60
39312 Par ch=1 c=64 v=0
39360 On ch=1 n=b6 v=0
39360 On ch=1 n=d5 v=0
39360 Par ch=1 c=64 v=127
39360 On ch=1 n=g#6 v=92
39360 On ch=1 n=b4 v=60
39424 On ch=1 n=b4 v=0
39424 On ch=1 n=d5 v=60
39456 On ch=1 n=g#6 v=0
39456 On ch=1 n=f#6 v=92
39488 On ch=1 n=d5 v=0
39488 On ch=1 n=a4 v=60
39504 Par ch=1 c=64 v=0
39550 On ch=1 n=f#6 v=0
39550 On ch=1 n=a4 v=0
39552 Par ch=1 c=64 v=127
39552 On ch=1 n=g#6 v=92
39552 On ch=1 n=b4 v=60
39616 On ch=1 n=b4 v=0
39616 On ch=1 n=d5 v=60
39648 On ch=1 n=g#6 v=0
39648 On ch=1 n=a6 v=92
39680 On ch=1 n=d5 v=0
39680 On ch=1 n=a4 v=60
39696 On ch=1 n=d6 v=0
39696 Par ch=1 c=64 v=0
39744 On ch=1 n=a6 v=0
39744 On ch=1 n=a4 v=0
39744 Par ch=1 c=64 v=127
39744 On ch=1 n=f#6 v=92
39744 On ch=1 n=b5 v=75
39744 On ch=1 n=g#4 v=60
39808 On ch=1 n=g#4 v=0
39808 On ch=1 n=d4 v=60
39840 On ch=1 n=f#6 v=0
39840 On ch=1 n=f6 v=92
39872 On ch=1 n=d4 v=0
39872 On ch=1 n=c#4 v=60
39888 Par ch=1 c=64 v=0
39934 On ch=1 n=f6 v=0
39934 On ch=1 n=c#4 v=0
39936 Par ch=1 c=64 v=127
39936 On ch=1 n=f#6 v=92
39936 On ch=1 n=f#3 v=60
40000 On ch=1 n=f#3 v=0
40000 On ch=1 n=c#4 v=60
40030 On ch=1 n=b5 v=0
40032 On ch=1 n=a5 v=75
40064 On ch=1 n=c#4 v=0
40064 On ch=1 n=a4 v=60
40080 Par ch=1 c=64 v=0
40128 On ch=1 n=a5 v=0
40128 On ch=1 n=a4 v=0
40128 Par ch=1 c=64 v=127
40128 On ch=1 n=b5 v=75
40128 On ch=1 n=d5 v=60
40192 On ch=1 n=d5 v=0
40192 On ch=1 n=c#5 v=60
40224 On ch=1 n=b5 v=0
40224 On ch=1 n=c#6 v=75
40256 On ch=1 n=c#5 v=0
40256 On ch=1 n=a4 v=60
40272 Par ch=1 c=64 v=0
40320 On ch=1 n=c#6 v=0
40320 On ch=1 n=a4 v=0
40320 Par ch=1 c=64 v=127
40320 On ch=1 n=c#6 v=75
40320 On ch=1 n=g#5 v=60
40384 On ch=1 n=g#5 v=0
40384 On ch=1 n=f#5 v=60
40416 On ch=1 n=c#6 v=0
40416 On ch=1 n=d6 v=75
40448 On ch=1 n=f#5 v=0
40448 On ch=1 n=a4 v=60
40464 On ch=1 n=f#6 v=0
40464 Par ch=1 c=64 v=0
40512 On ch=1 n=d6 v=0
40512 On ch=1 n=a4 v=0
40512 Par ch=1 c=64 v=127
40512 On ch=1 n=f6 v=92
40512 On ch=1 n=b5 v=75
40512 On ch=1 n=d5 v=60
40576 On ch=1 n=d5 v=0
40576 On ch=1 n=c#5 v=60
40608 On ch=1 n=b5 v=0
40608 On ch=1 n=a5 v=75
40640 On ch=1 n=c#5 v=0
40640 On ch=1 n=c#4 v=60
40656 Par ch=1 c=64 v=0
40672 On ch=1 n=f6 v=0
40704 On ch=1 n=c#4 v=0
40704 Par ch=1 c=64 v=127
40704 On ch=1 n=f#6 v=75
40704 On ch=1 n=f#3 v=60
40766 On ch=1 n=a5 v=0
40766 On ch=1 n=f#6 v=0
40766 On ch=1 n=f#3 v=0
40768 On ch=1 n=f#5 v=60
40768 On ch=1 n=c#4 v=60
40830 On ch=1 n=f#5 v=0
40832 On ch=1 n=c#4 v=0
40832 On ch=1 n=g#5 v=60
40832 On ch=1 n=a4 v=60
40848 Par ch=1 c=64 v=0
40848 On ch=1 n=f#5 v=60
40872 On ch=1 n=f#5 v=0
40872 On ch=1 n=g#5 v=60
40894 On ch=1 n=g#5 v=0
40896 On ch=1 n=a4 v=0
40896 On ch=1 n=g#5 v=0
40896 Par ch=1 c=64 v=127
40896 On ch=1 n=f#5 v=60
40896 On ch=1 n=d5 v=60
40960 On ch=1 n=f#5 v=0
40960 On ch=1 n=f5 v=60
40992 On ch=1 n=d5 v=0
40992 On ch=1 n=a4 v=60
41024 On ch=1 n=f5 v=0
41024 On ch=1 n=f#5 v=60
41040 Par ch=1 c=64 v=0
41086 On ch=1 n=a4 v=0
41088 On ch=1 n=f#5 v=0
41088 Par ch=1 c=64 v=127
41088 On ch=1 n=a5 v=60
41088 On ch=1 n=c#5 v=60
41152 On ch=1 n=a5 v=0
41152 On ch=1 n=f#5 v=60
41184 On ch=1 n=c#5 v=0
41184 On ch=1 n=f#4 v=60
41216 On ch=1 n=f#5 v=0
41216 On ch=1 n=a5 v=60
41232 Par ch=1 c=64 v=0
41278 On ch=1 n=f#4 v=0
41280 On ch=1 n=a5 v=0
41280 Par ch=1 c=64 v=127
41280 On ch=1 n=b5 v=60
41280 On ch=1 n=b4 v=60
41344 On ch=1 n=b5 v=0
41344 On ch=1 n=f#5 v=60
41376 On ch=1 n=b4 v=0
41376 On ch=1 n=d4 v=60
41408 On ch=1 n=f#5 v=0
41408 On ch=1 n=b5 v=60
41424 Par ch=1 c=64 v=0
41470 On ch=1 n=d4 v=0
41472 On ch=1 n=b5 v=0
41472 Par ch=1 c=64 v=127
41472 On ch=1 n=f#5 v=60
41472 On ch=1 n=c#6 v=60
41472 On ch=1 n=f#3 v=60
41472 On ch=1 n=c#4 v=60
41472 On ch=1 n=a4 v=60
41534 On ch=1 n=f#3 v=0
41534 On ch=1 n=c#4 v=0
41534 On ch=1 n=a4 v=0
41536 On ch=1 n=c#5 v=60
41566 On ch=1 n=f#5 v=0
41566 On ch=1 n=c#6 v=0
41568 On ch=1 n=f#6 v=92
41600 On ch=1 n=c#5 v=0
41600 On ch=1 n=f#5 v=60
41616 Par ch=1 c=64 v=0
41664 On ch=1 n=f#6 v=0
41664 On ch=1 n=f#5 v=0
41664 Par ch=1 c=64 v=127
41664 On ch=1 n=e6 v=92
41664 On ch=1 n=a5 v=75
41664 On ch=1 n=c#6 v=75
41664 On ch=1 n=g#5 v=60
41728 On ch=1 n=g#5 v=0
41728 On ch=1 n=f#5 v=60
41760 On ch=1 n=e6 v=0
41760 On ch=1 n=f#6 v=92
41792 On ch=1 n=f#5 v=0
41792 On ch=1 n=c#5 v=60
41808 Par ch=1 c=64 v=0
41854 On ch=1 n=f#6 v=0
41854 On ch=1 n=c#5 v=0
41856 Par ch=1 c=64 v=127
41856 On ch=1 n=f#6 v=92
41856 On ch=1 n=f#5 v=60
41920 On ch=1 n=f#5 v=0
41920 On ch=1 n=e5 v=60
41952 On ch=1 n=f#6 v=0
41952 On ch=1 n=g#6 v=92
41984 On ch=1 n=e5 v=0
41984 On ch=1 n=c#5 v=60
42000 Par ch=1 c=64 v=0
42048 On ch=1 n=g#6 v=0
42048 On ch=1 n=c#5 v=0
42048 Par ch=1 c=64 v=127
42048 On ch=1 n=e6 v=92
42048 On ch=1 n=a4 v=60
42112 On ch=1 n=a4 v=0
42112 On ch=1 n=g#4 v=60
42144 On ch=1 n=e6 v=0
42144 On ch=1 n=d#6 v=92
42176 On ch=1 n=g#4 v=0
42176 On ch=1 n=f#4 v=60
42192 Par ch=1 c=64 v=0
42238 On ch=1 n=d#6 v=0
42238 On ch=1 n=f#4 v=0
42240 Par ch=1 c=64 v=127
42240 On ch=1 n=e6 v=92
42240 On ch=1 n=e5 v=60
42304 On ch=1 n=e5 v=0
42304 On ch=1 n=d#5 v=60
42336 On ch=1 n=e6 v=0
42336 On ch=1 n=f#6 v=92
42368 On ch=1 n=d#5 v=0
42368 On ch=1 n=c#5 v=60
42384 Par ch=1 c=64 v=0
42400 On ch=1 n=a5 v=0
42400 On ch=1 n=c#6 v=0
42432 On ch=1 n=f#6 v=0
42432 On ch=1 n=c#5 v=0
42432 Par ch=1 c=64 v=127
42432 On ch=1 n=d#6 v=92
42432 On ch=1 n=f#5 v=75
42432 On ch=1 n=a5 v=75
42432 On ch=1 n=b4 v=60
42496 On ch=1 n=b4 v=0
42496 On ch=1 n=c#5 v=60
42528 On ch=1 n=d#6 v=0
42528 On ch=1 n=c#6 v=92
42560 On ch=1 n=c#5 v=0
42560 On ch=1 n=a4 v=60
42576 Par ch=1 c=64 v=0
42622 On ch=1 n=c#6 v=0
42622 On ch=1 n=a4 v=0
42624 Par ch=1 c=64 v=127
42624 On ch=1 n=d#6 v=92
42624 On ch=1 n=c#5 v=60
42688 On ch=1 n=c#5 v=0
42688 On ch=1 n=b4 v=60
42720 On ch=1 n=d#6 v=0
42720 On ch=1 n=e6 v=92
42752 On ch=1 n=b4 v=0
42752 On ch=1 n=a4 v=60
42768 On ch=1 n=f#5 v=0
42768 On ch=1 n=a5 v=0
42768 On ch=1 n=e6 v=0
42768 Par ch=1 c=64 v=0
42768 On ch=1 n=c#6 v=92
42792 On ch=1 n=c#6 v=0
42792 On ch=1 n=d#6 v=92
42816 On ch=1 n=a4 v=0
42816 On ch=1 n=d#6 v=0
42816 Par ch=1 c=64 v=127
42816 On ch=1 n=c#6 v=92
42816 On ch=1 n=f#5 v=75
42816 On ch=1 n=g#4 v=60
42880 On ch=1 n=g#4 v=0
42880 On ch=1 n=a3 v=60
42912 On ch=1 n=c#6 v=0
42912 On ch=1 n=c6 v=92
42944 On ch=1 n=a3 v=0
42944 On ch=1 n=g#3 v=60
42960 Par ch=1 c=64 v=0
43006 On ch=1 n=c6 v=0
43006 On ch=1 n=g#3 v=0
43008 Par ch=1 c=64 v=127
43008 On ch=1 n=c#6 v=92
43008 On ch=1 n=c#3 v=60
43072 On ch=1 n=c#3 v=0
43072 On ch=1 n=g#3 v=60
43102 On ch=1 n=f#5 v=0
43104 On ch=1 n=e5 v=79
43136 On ch=1 n=g#3 v=0
43136 On ch=1 n=e4 v=60
43152 Par ch=1 c=64 v=0
43198 On ch=1 n=e5 v=0
43198 On ch=1 n=e4 v=0
43200 Par ch=1 c=64 v=127
43200 On ch=1 n=f#5 v=83
43200 On ch=1 n=a4 v=60
43264 On ch=1 n=a4 v=0
43264 On ch=1 n=g#4 v=60
43294 On ch=1 n=f#5 v=0
43296 On ch=1 n=g#5 v=87
43328 On ch=1 n=g#4 v=0
43328 On ch=1 n=e4 v=60
43344 Par ch=1 c=64 v=0
43390 On ch=1 n=g#5 v=0
43390 On ch=1 n=e4 v=0
43392 Par ch=1 c=64 v=127
43392 On ch=1 n=g#5 v=92
43392 On ch=1 n=d#5 v=60
43456 On ch=1 n=d#5 v=0
43456 On ch=1 n=c#5 v=60
43486 On ch=1 n=g#5 v=0
43488 On ch=1 n=a5 v=92
43520 On ch=1 n=c#5 v=0
43520 On ch=1 n=e4 v=60
43536 On ch=1 n=c#6 v=0
43536 Par ch=1 c=64 v=0
43582 On ch=1 n=a5 v=0
43582 On ch=1 n=e4 v=0
43584 Par ch=1 c=64 v=127
43584 On ch=1 n=c6 v=92
43584 On ch=1 n=f#5 v=87
43584 On ch=1 n=a4 v=60
43648 On ch=1 n=a4 v=0
43648 On ch=1 n=g#4 v=60
43678 On ch=1 n=f#5 v=0
43680 On ch=1 n=e5 v=81
43712 On ch=1 n=g#4 v=0
43712 On ch=1 n=g#3 v=60
43728 Par ch=1 c=64 v=0
43744 On ch=1 n=c6 v=0
43774 On ch=1 n=g#3 v=0
43776 Par ch=1 c=64 v=127
43776 On ch=1 n=c#6 v=75
43776 On ch=1 n=c#3 v=60
43840 On ch=1 n=e5 v=0
43840 On ch=1 n=c#6 v=0
43840 On ch=1 n=c#3 v=0
43840 On ch=1 n=c#5 v=75
43840 On ch=1 n=g#3 v=60
43904 On ch=1 n=c#5 v=0
43904 On ch=1 n=g#3 v=0
43904 On ch=1 n=d#5 v=75
43904 On ch=1 n=e4 v=60
43920 Par ch=1 c=64 v=0
43920 On ch=1 n=c#5 v=75
43944 On ch=1 n=c#5 v=0
43944 On ch=1 n=d#5 v=75
43966 On ch=1 n=d#5 v=0
43966 On ch=1 n=e4 v=0
43968 On ch=1 n=d#5 v=0
43968 Par ch=1 c=64 v=127
43968 On ch=1 n=c#5 v=75
43968 On ch=1 n=a4 v=60
44032 On ch=1 n=c#5 v=0
44032 On ch=1 n=c5 v=75
44064 On ch=1 n=a4 v=0
44064 On ch=1 n=e4 v=60
44096 On ch=1 n=c5 v=0
44096 On ch=1 n=c#5 v=75
44112 Par ch=1 c=64 v=0
44158 On ch=1 n=e4 v=0
44160 On ch=1 n=c#5 v=0
44160 Par ch=1 c=64 v=127
44160 On ch=1 n=e5 v=75
44160 On ch=1 n=g#4 v=60
44224 On ch=1 n=e5 v=0
44224 On ch=1 n=c#5 v=75
44256 On ch=1 n=g#4 v=0
44256 On ch=1 n=c#4 v=60
44288 On ch=1 n=c#5 v=0
44288 On ch=1 n=g#5 v=75
44304 Par ch=1 c=64 v=0
44350 On ch=1 n=c#4 v=0
44352 On ch=1 n=g#5 v=0
44352 Par ch=1 c=64 v=127
44352 On ch=1 n=c#5 v=75
44352 On ch=1 n=e4 v=60
44416 On ch=1 n=c#5 v=0
44416 On ch=1 n=c#6 v=75
44448 On ch=1 n=e4 v=0
44448 On ch=1 n=g#3 v=60
44480 On ch=1 n=c#6 v=0
44480 On ch=1 n=c#5 v=75
44496 Par ch=1 c=64 v=0
44542 On ch=1 n=g#3 v=0
44542 On ch=1 n=c#5 v=0
44544 Par ch=1 c=64 v=127
44544 On ch=1 n=g4 v=45
44608 On ch=1 n=a4 v=45
44640 On ch=1 n=a3 v=30
44672 On ch=1 n=a4 v=0
44672 On ch=1 n=c#5 v=45
44688 Par ch=1 c=64 v=0
44704 On ch=1 n=g4 v=0
44736 On ch=1 n=a3 v=0
44736 On ch=1 n=c#5 v=0
44736 Par ch=1 c=64 v=127
44736 On ch=1 n=e5 v=45
44736 On ch=1 n=g4 v=30
44800 On ch=1 n=e5 v=0
44800 On ch=1 n=d#5 v=45
44832 On ch=1 n=g4 v=0
44832 On ch=1 n=a3 v=30
44864 On ch=1 n=d#5 v=0
44864 On ch=1 n=e5 v=45
44880 Par ch=1 c=64 v=0
44926 On ch=1 n=a3 v=0
44926 On ch=1 n=e5 v=0
44928 Par ch=1 c=64 v=127
44928 On ch=1 n=d5 v=45
44992 On ch=1 n=e5 v=45
45024 On ch=1 n=g4 v=30
45056 On ch=1 n=e5 v=0
45056 On ch=1 n=g#5 v=45
45072 Par ch=1 c=64 v=0
45088 On ch=1 n=d5 v=0
45120 On ch=1 n=g4 v=0
45120 On ch=1 n=g#5 v=0
45120 Par ch=1 c=64 v=127
45120 On ch=1 n=a#5 v=45
45120 On ch=1 n=d5 v=30
45184 On ch=1 n=a#5 v=0
45184 On ch=1 n=d#5 v=45
45216 On ch=1 n=d5 v=0
45216 On ch=1 n=g4 v=30
45248 On ch=1 n=d#5 v=0
45248 On ch=1 n=e5 v=45
45264 Par ch=1 c=64 v=0
45310 On ch=1 n=g4 v=0
45310 On ch=1 n=e5 v=0
45312 Par ch=1 c=64 v=127
45312 On ch=1 n=c#5 v=45
45376 On ch=1 n=e5 v=45
45408 On ch=1 n=a4 v=30
45440 On ch=1 n=e5 v=0
45440 On ch=1 n=g5 v=45
45456 Par ch=1 c=64 v=0
45472 On ch=1 n=c#5 v=0
45504 On ch=1 n=a4 v=0
45504 On ch=1 n=g5 v=0
45504 Par ch=1 c=64 v=127
45504 On ch=1 n=a5 v=45
45504 On ch=1 n=c#5 v=30
45568 On ch=1 n=a5 v=0
45568 On ch=1 n=f#5 v=45
45600 On ch=1 n=c#5 v=0
45600 On ch=1 n=a4 v=30
45632 On ch=1 n=f#5 v=0
45632 On ch=1 n=g5 v=45
45648 Par ch=1 c=64 v=0
45694 On ch=1 n=a4 v=0
45694 On ch=1 n=g5 v=0
45696 Par ch=1 c=64 v=127
45696 On ch=1 n=g#5 v=45
45760 On ch=1 n=b5 v=45
45792 On ch=1 n=d5 v=30
45824 On ch=1 n=b5 v=0
45824 On ch=1 n=d6 v=45
45840 Par ch=1 c=64 v=0
45856 On ch=1 n=g#5 v=0
45888 On ch=1 n=d5 v=0
45888 On ch=1 n=d6 v=0
45888 Par ch=1 c=64 v=127
45888 On ch=1 n=f6 v=45
45888 On ch=1 n=g#5 v=30
45952 On ch=1 n=f6 v=0
45952 On ch=1 n=g4 v=45
45984 On ch=1 n=g#5 v=0
45984 On ch=1 n=d5 v=30
46016 On ch=1 n=g4 v=0
46016 On ch=1 n=a4 v=45
46032 Par ch=1 c=64 v=0
46078 On ch=1 n=d5 v=0
46078 On ch=1 n=a4 v=0
46080 Par ch=1 c=64 v=127
46080 On ch=1 n=g4 v=45
46144 On ch=1 n=a4 v=45
46176 On ch=1 n=a3 v=30
46208 On ch=1 n=a4 v=0
46208 On ch=1 n=c#5 v=45
46224 Par ch=1 c=64 v=0
46240 On ch=1 n=g4 v=0
46272 On ch=1 n=a3 v=0
46272 On ch=1 n=c#5 v=0
46272 Par ch=1 c=64 v=127
46272 On ch=1 n=e5 v=45
46272 On ch=1 n=g4 v=30
46336 On ch=1 n=e5 v=0
46336 On ch=1 n=d#5 v=45
46368 On ch=1 n=g4 v=0
46368 On ch=1 n=a3 v=30
46400 On ch=1 n=d#5 v=0
46400 On ch=1 n=e5 v=45
46416 Par ch=1 c=64 v=0
46462 On ch=1 n=a3 v=0
46462 On ch=1 n=e5 v=0
46464 Par ch=1 c=64 v=127
46464 On ch=1 n=d5 v=45
46528 On ch=1 n=e5 v=45
46560 On ch=1 n=g4 v=30
46592 On ch=1 n=e5 v=0
46592 On ch=1 n=g#5 v=45
46608 Par ch=1 c=64 v=0
46624 On ch=1 n=d5 v=0
46656 On ch=1 n=g4 v=0
46656 On ch=1 n=g#5 v=0
46656 Par ch=1 c=64 v=127
46656 On ch=1 n=a#5 v=45
46656 On ch=1 n=d5 v=30
46720 On ch=1 n=a#5 v=0
46720 On ch=1 n=d#5 v=45
46752 On ch=1 n=d5 v=0
46752 On ch=1 n=g4 v=30
46784 On ch=1 n=d#5 v=0
46784 On ch=1 n=e5 v=45
46800 Par ch=1 c=64 v=0
46846 On ch=1 n=g4 v=0
46846 On ch=1 n=e5 v=0
46848 Par ch=1 c=64 v=127
46848 On ch=1 n=c#5 v=45
46912 On ch=1 n=e5 v=45
46944 On ch=1 n=a4 v=30
46976 On ch=1 n=e5 v=0
46976 On ch=1 n=g5 v=45
46992 Par ch=1 c=64 v=0
47008 On ch=1 n=c#5 v=0
47040 On ch=1 n=a4 v=0
47040 On ch=1 n=g5 v=0
47040 Par ch=1 c=64 v=127
47040 On ch=1 n=a5 v=45
47040 On ch=1 n=c#5 v=30
47104 On ch=1 n=a5 v=0
47104 On ch=1 n=e5 v=45
47136 On ch=1 n=c#5 v=0
47136 On ch=1 n=a4 v=30
47168 On ch=1 n=e5 v=0
47168 On ch=1 n=f5 v=45
47184 Par ch=1 c=64 v=0
47230 On ch=1 n=a4 v=0
47230 On ch=1 n=f5 v=0
47232 Par ch=1 c=64 v=127
47232 On ch=1 n=g#5 v=45
47296 On ch=1 n=a5 v=45
47328 On ch=1 n=e5 v=30
47360 On ch=1 n=a5 v=0
47360 On ch=1 n=c#6 v=45
47376 Par ch=1 c=64 v=0
47392 On ch=1 n=g#5 v=0
47424 On ch=1 n=e5 v=0
47424 On ch=1 n=c#6 v=0
47424 Par ch=1 c=64 v=127
47424 On ch=1 n=e6 v=45
47424 On ch=1 n=a5 v=30
47488 On ch=1 n=e6 v=0
47488 On ch=1 n=g4 v=45
47520 On ch=1 n=a5 v=0
47520 On ch=1 n=c#5 v=30
47552 On ch=1 n=g4 v=0
47552 On ch=1 n=a4 v=45
47568 Par ch=1 c=64 v=0
47614 On ch=1 n=c#5 v=0
47614 On ch=1 n=a4 v=0
47616 Par ch=1 c=64 v=127
47616 On ch=1 n=f4 v=45
47680 On ch=1 n=a4 v=45
47712 On ch=1 n=a3 v=30
47744 On ch=1 n=a4 v=0
47744 On ch=1 n=c#5 v=45
47760 Par ch=1 c=64 v=0
47776 On ch=1 n=f4 v=0
47808 On ch=1 n=a3 v=0
47808 On ch=1 n=c#5 v=0
47808 Par ch=1 c=64 v=127
47808 On ch=1 n=e5 v=45
47808 On ch=1 n=f4 v=30
47872 On ch=1 n=e5 v=0
47872 On ch=1 n=c#5 v=45
47904 On ch=1 n=f4 v=0
47904 On ch=1 n=a3 v=30
47936 On ch=1 n=c#5 v=0
47936 On ch=1 n=d5 v=45
47952 Par ch=1 c=64 v=0
47998 On ch=1 n=a3 v=0
47998 On ch=1 n=d5 v=0
48000 Par ch=1 c=64 v=127
48000 On ch=1 n=e5 v=45
48064 On ch=1 n=f5 v=45
48096 On ch=1 n=f4 v=30
48128 On ch=1 n=f5 v=0
48128 On ch=1 n=g#5 v=45
48144 Par ch=1 c=64 v=0
48160 On ch=1 n=e5 v=0
48192 On ch=1 n=f4 v=0
48192 On ch=1 n=g#5 v=0
48192 Par ch=1 c=64 v=127
48192 On ch=1 n=a5 v=45
48192 On ch=1 n=c#5 v=30
48256 On ch=1 n=a5 v=0
48256 On ch=1 n=e5 v=45
48288 On ch=1 n=c#5 v=0
48288 On ch=1 n=f4 v=30
48320 On ch=1 n=e5 v=0
48320 On ch=1 n=f5 v=45
48336 Par ch=1 c=64 v=0
48382 On ch=1 n=f4 v=0
48382 On ch=1 n=f5 v=0
48384 Par ch=1 c=64 v=127
48384 On ch=1 n=d5 v=45
48448 On ch=1 n=f5 v=45
48480 On ch=1 n=a4 v=30
48512 On ch=1 n=f5 v=0
48512 On ch=1 n=g#5 v=45
48528 Par ch=1 c=64 v=0
48544 On ch=1 n=d5 v=0
48576 On ch=1 n=a4 v=0
48576 On ch=1 n=g#5 v=0
48576 Par ch=1 c=64 v=127
48576 On ch=1 n=a#5 v=45
48576 On ch=1 n=d5 v=30
48640 On ch=1 n=a#5 v=0
48640 On ch=1 n=f5 v=45
48672 On ch=1 n=d5 v=0
48672 On ch=1 n=a4 v=30
48704 On ch=1 n=f5 v=0
48704 On ch=1 n=g#5 v=45
48720 Par ch=1 c=64 v=0
48766 On ch=1 n=a4 v=0
48766 On ch=1 n=g#5 v=0
48768 Par ch=1 c=64 v=127
48768 On ch=1 n=a5 v=45
48832 On ch=1 n=c#6 v=45
48864 On ch=1 n=d5 v=30
48896 On ch=1 n=c#6 v=0
48896 On ch=1 n=d#6 v=45
48912 Par ch=1 c=64 v=0
48928 On ch=1 n=a5 v=0
48960 On ch=1 n=d5 v=0
48960 On ch=1 n=d#6 v=0
48960 Par ch=1 c=64 v=127
48960 On ch=1 n=f6 v=45
48960 On ch=1 n=a5 v=30
49024 On ch=1 n=f6 v=0
49024 On ch=1 n=g4 v=45
49056 On ch=1 n=a5 v=0
49056 On ch=1 n=d5 v=30
49088 On ch=1 n=g4 v=0
49088 On ch=1 n=a4 v=45
49104 Par ch=1 c=64 v=0
49150 On ch=1 n=d5 v=0
49150 On ch=1 n=a4 v=0
49152 Par ch=1 c=64 v=127
49152 On ch=1 n=f4 v=45
49216 On ch=1 n=a4 v=45
49248 On ch=1 n=a3 v=30
49280 On ch=1 n=a4 v=0
49280 On ch=1 n=c#5 v=45
49296 Par ch=1 c=64 v=0
49312 On ch=1 n=f4 v=0
49344 On ch=1 n=a3 v=0
49344 On ch=1 n=c#5 v=0
49344 Par ch=1 c=64 v=127
49344 On ch=1 n=e5 v=45
49344 On ch=1 n=f4 v=30
49408 On ch=1 n=e5 v=0
49408 On ch=1 n=c#5 v=45
49440 On ch=1 n=f4 v=0
49440 On ch=1 n=a3 v=30
49472 On ch=1 n=c#5 v=0
49472 On ch=1 n=d5 v=45
49488 Par ch=1 c=64 v=0
49534 On ch=1 n=a3 v=0
49534 On ch=1 n=d5 v=0
49536 Par ch=1 c=64 v=127
49536 On ch=1 n=e5 v=45
49600 On ch=1 n=f5 v=45
49632 On ch=1 n=f4 v=30
49664 On ch=1 n=f5 v=0
49664 On ch=1 n=g#5 v=45
49680 Par ch=1 c=64 v=0
49696 On ch=1 n=e5 v=0
49728 On ch=1 n=f4 v=0
49728 On ch=1 n=g#5 v=0
49728 Par ch=1 c=64 v=127
49728 On ch=1 n=a5 v=45
49728 On ch=1 n=c#5 v=30
49792 On ch=1 n=a5 v=0
49792 On ch=1 n=e5 v=45
49824 On ch=1 n=c#5 v=0
49824 On ch=1 n=f4 v=30
49856 On ch=1 n=e5 v=0
49856 On ch=1 n=f5 v=45
49872 Par ch=1 c=64 v=0
49918 On ch=1 n=f4 v=0
49918 On ch=1 n=f5 v=0
49920 Par ch=1 c=64 v=127
49920 On ch=1 n=d5 v=45
49984 On ch=1 n=f5 v=45
50016 On ch=1 n=a4 v=30
50048 On ch=1 n=f5 v=0
50048 On ch=1 n=g#5 v=45
50064 Par ch=1 c=64 v=0
50080 On ch=1 n=d5 v=0
50112 On ch=1 n=a4 v=0
50112 On ch=1 n=g#5 v=0
50112 Par ch=1 c=64 v=127
50112 On ch=1 n=a#5 v=45
50112 On ch=1 n=d5 v=30
50176 On ch=1 n=a#5 v=0
50176 On ch=1 n=f5 v=45
50208 On ch=1 n=d5 v=0
50208 On ch=1 n=a4 v=30
50240 On ch=1 n=f5 v=0
50240 On ch=1 n=g#5 v=45
50256 Par ch=1 c=64 v=0
50302 On ch=1 n=a4 v=0
50302 On ch=1 n=g#5 v=0
50304 Par ch=1 c=64 v=127
50304 On ch=1 n=a5 v=45
50368 On ch=1 n=c#6 v=45
50400 On ch=1 n=d5 v=30
50432 On ch=1 n=c#6 v=0
50432 On ch=1 n=d6 v=45
50448 Par ch=1 c=64 v=0
50464 On ch=1 n=a5 v=0
50496 On ch=1 n=d5 v=0
50496 On ch=1 n=d6 v=0
50496 Par ch=1 c=64 v=127
50496 On ch=1 n=f6 v=45
50496 On ch=1 n=a5 v=30
50560 On ch=1 n=f6 v=0
50560 On ch=1 n=a5 v=45
50592 On ch=1 n=a5 v=0
50592 On ch=1 n=d5 v=30
50624 On ch=1 n=a5 v=0
50624 On ch=1 n=d6 v=45
50640 Par ch=1 c=64 v=0
50686 On ch=1 n=d5 v=0
50686 On ch=1 n=d6 v=0
50688 Par ch=1 c=64 v=127
50688 On ch=1 n=a3 v=75
50752 On ch=1 n=a3 v=0
50752 On ch=1 n=e4 v=75
50784 On ch=1 n=a5 v=92
50784 On ch=1 n=a6 v=92
50784 On ch=1 n=c#6 v=75
50816 On ch=1 n=e4 v=0
50816 On ch=1 n=g4 v=75
50832 Par ch=1 c=64 v=0
50878 On ch=1 n=g4 v=0
50880 On ch=1 n=a5 v=0
50880 On ch=1 n=a6 v=0
50880 Par ch=1 c=64 v=127
50880 On ch=1 n=g5 v=92
50880 On ch=1 n=g6 v=92
50880 On ch=1 n=a4 v=75
50944 On ch=1 n=c#5 v=75
50976 On ch=1 n=g5 v=0
50976 On ch=1 n=g6 v=0
50976 On ch=1 n=a5 v=92
50976 On ch=1 n=a6 v=92
51008 On ch=1 n=c#5 v=0
51008 On ch=1 n=g5 v=75
51024 Par ch=1 c=64 v=0
51040 On ch=1 n=c#6 v=0
51040 On ch=1 n=a4 v=0
51070 On ch=1 n=g5 v=0
51072 On ch=1 n=a5 v=0
51072 On ch=1 n=a6 v=0
51072 Par ch=1 c=64 v=127
51072 On ch=1 n=a#5 v=92
51072 On ch=1 n=a#6 v=92
51072 On ch=1 n=d6 v=75
51072 On ch=1 n=a#4 v=75
51136 On ch=1 n=g5 v=75
51168 On ch=1 n=a#5 v=0
51168 On ch=1 n=a#6 v=0
51168 On ch=1 n=c6 v=92
51168 On ch=1 n=c7 v=92
51200 On ch=1 n=g5 v=0
51200 On ch=1 n=d5 v=75
51216 Par ch=1 c=64 v=0
51264 On ch=1 n=c6 v=0
51264 On ch=1 n=c7 v=0
51264 On ch=1 n=d5 v=0
51264 Par ch=1 c=64 v=127
51264 On ch=1 n=a5 v=92
51264 On ch=1 n=a6 v=92
51264 On ch=1 n=a4 v=75
51328 On ch=1 n=a4 v=0
51328 On ch=1 n=d5 v=75
51360 On ch=1 n=a5 v=0
51360 On ch=1 n=a6 v=0
51360 On ch=1 n=g5 v=92
51360 On ch=1 n=g6 v=92
51392 On ch=1 n=d5 v=0
51392 On ch=1 n=e4 v=75
51408 On ch=1 n=d6 v=0
51408 On ch=1 n=a#4 v=0
51408 Par ch=1 c=64 v=0
51454 On ch=1 n=e4 v=0
51456 On ch=1 n=g5 v=0
51456 On ch=1 n=g6 v=0
51456 Par ch=1 c=64 v=127
51456 On ch=1 n=a5 v=92
51456 On ch=1 n=a6 v=92
51456 On ch=1 n=c#6 v=75
51456 On ch=1 n=a3 v=75
51520 On ch=1 n=a3 v=0
51520 On ch=1 n=e4 v=75
51584 On ch=1 n=e4 v=0
51584 On ch=1 n=g4 v=75
51600 Par ch=1 c=64 v=0
51646 On ch=1 n=g4 v=0
51648 Par ch=1 c=64 v=127
51648 On ch=1 n=a4 v=75
51712 On ch=1 n=c#5 v=75
51776 On ch=1 n=c#5 v=0
51776 On ch=1 n=g5 v=75
51792 On ch=1 n=a5 v=0
51792 On ch=1 n=a6 v=0
51792 On ch=1 n=c#6 v=0
51792 Par ch=1 c=64 v=0
51808 On ch=1 n=a4 v=0
51838 On ch=1 n=g5 v=0
51840 Par ch=1 c=64 v=127
51840 On ch=1 n=a#4 v=75
51904 On ch=1 n=g5 v=75
51936 On ch=1 n=a#5 v=92
51936 On ch=1 n=a#6 v=92
51936 On ch=1 n=c#6 v=75
51968 On ch=1 n=g5 v=0
51968 On ch=1 n=c#5 v=75
51984 Par ch=1 c=64 v=0
52032 On ch=1 n=a#5 v=0
52032 On ch=1 n=a#6 v=0
52032 On ch=1 n=c#5 v=0
52032 Par ch=1 c=64 v=127
52032 On ch=1 n=a5 v=92
52032 On ch=1 n=a6 v=92
52032 On ch=1 n=a4 v=75
52096 On ch=1 n=a4 v=0
52096 On ch=1 n=c#5 v=75
52128 On ch=1 n=a5 v=0
52128 On ch=1 n=a6 v=0
52128 On ch=1 n=a#5 v=92
52128 On ch=1 n=a#6 v=92
52160 On ch=1 n=c#5 v=0
52160 On ch=1 n=g4 v=75
52176 On ch=1 n=a#4 v=0
52176 Par ch=1 c=64 v=0
52192 On ch=1 n=c#6 v=0
52222 On ch=1 n=g4 v=0
52224 On ch=1 n=a#5 v=0
52224 On ch=1 n=a#6 v=0
52224 Par ch=1 c=64 v=127
52224 On ch=1 n=c6 v=92
52224 On ch=1 n=c7 v=92
52224 On ch=1 n=f6 v=75
52224 On ch=1 n=a3 v=75
52288 On ch=1 n=a3 v=0
52288 On ch=1 n=f4 v=76
52318 On ch=1 n=c6 v=0
52318 On ch=1 n=c7 v=0
52320 On ch=1 n=c6 v=93
52320 On ch=1 n=c7 v=93
52352 On ch=1 n=f4 v=0
52352 On ch=1 n=c5 v=77
52368 Par ch=1 c=64 v=0
52414 On ch=1 n=c5 v=0
52416 On ch=1 n=c6 v=0
52416 On ch=1 n=c7 v=0
52416 Par ch=1 c=64 v=127
52416 On ch=1 n=a#5 v=94
52416 On ch=1 n=a#6 v=94
52416 On ch=1 n=c5 v=79
52480 On ch=1 n=f5 v=79
52512 On ch=1 n=a#5 v=0
52512 On ch=1 n=a#6 v=0
52512 On ch=1 n=c7 v=95
52512 On ch=1 n=c6 v=95
52544 On ch=1 n=f5 v=0
52544 On ch=1 n=a5 v=80
52560 On ch=1 n=f6 v=0
52560 Par ch=1 c=64 v=0
52576 On ch=1 n=c5 v=0
52606 On ch=1 n=a5 v=0
52608 On ch=1 n=c7 v=0
52608 On ch=1 n=c6 v=0
52608 Par ch=1 c=64 v=127
52608 On ch=1 n=c6 v=96
52608 On ch=1 n=c7 v=96
52608 On ch=1 n=e6 v=83
52608 On ch=1 n=c#5 v=83
52672 On ch=1 n=a#5 v=82
52704 On ch=1 n=c6 v=0
52704 On ch=1 n=c7 v=0
52704 On ch=1 n=c#6 v=97
52704 On ch=1 n=c#7 v=97
52736 On ch=1 n=a#5 v=0
52736 On ch=1 n=g5 v=83
52752 Par ch=1 c=64 v=0
52768 On ch=1 n=c#5 v=0
52800 On ch=1 n=c#6 v=0
52800 On ch=1 n=c#7 v=0
52800 On ch=1 n=g5 v=0
52800 Par ch=1 c=64 v=127
52800 On ch=1 n=a#5 v=98
52800 On ch=1 n=a#6 v=98
52800 On ch=1 n=c5 v=84
52864 On ch=1 n=c5 v=0
52864 On ch=1 n=g5 v=85
52896 On ch=1 n=a#5 v=0
52896 On ch=1 n=a#6 v=0
52896 On ch=1 n=a5 v=99
52896 On ch=1 n=a6 v=99
52928 On ch=1 n=g5 v=0
52928 On ch=1 n=g4 v=86
52944 On ch=1 n=e6 v=0
52944 Par ch=1 c=64 v=0
52990 On ch=1 n=g4 v=0
52992 On ch=1 n=a5 v=0
52992 On ch=1 n=a6 v=0
52992 Par ch=1 c=64 v=127
52992 On ch=1 n=c6 v=100
52992 On ch=1 n=c7 v=100
52992 On ch=1 n=f6 v=91
52992 On ch=1 n=a3 v=87
53056 On ch=1 n=a3 v=0
53056 On ch=1 n=f4 v=88
53120 On ch=1 n=f4 v=0
53120 On ch=1 n=c5 v=89
53136 Par ch=1 c=64 v=0
53182 On ch=1 n=c5 v=0
53184 Par ch=1 c=64 v=127
53184 On ch=1 n=c5 v=90
53248 On ch=1 n=c5 v=0
53248 On ch=1 n=f5 v=92
53312 On ch=1 n=f5 v=0
53312 On ch=1 n=a5 v=94
53328 On ch=1 n=c6 v=0
53328 On ch=1 n=c7 v=0
53328 On ch=1 n=f6 v=0
53328 Par ch=1 c=64 v=0
53374 On ch=1 n=a5 v=0
53376 Par ch=1 c=64 v=127
53376 On ch=1 n=d5 v=99
53440 On ch=1 n=a5 v=98
53472 On ch=1 n=d6 v=105
53472 On ch=1 n=d7 v=105
53472 On ch=1 n=f6 v=101
53472 On ch=1 n=a6 v=101
53504 On ch=1 n=a5 v=0
53504 On ch=1 n=f5 v=100
53520 Par ch=1 c=64 v=0
53568 On ch=1 n=d6 v=0
53568 On ch=1 n=d7 v=0
53568 On ch=1 n=f5 v=0
53568 Par ch=1 c=64 v=127
53568 On ch=1 n=b5 v=106
53568 On ch=1 n=b6 v=106
53568 On ch=1 n=d5 v=102
53632 On ch=1 n=d5 v=0
53632 On ch=1 n=f5 v=104
53664 On ch=1 n=b5 v=0
53664 On ch=1 n=b6 v=0
53664 On ch=1 n=d6 v=107
53664 On ch=1 n=d7 v=107
53696 On ch=1 n=f5 v=0
53696 On ch=1 n=a4 v=106
53712 On ch=1 n=d5 v=0
53712 Par ch=1 c=64 v=0
53728 On ch=1 n=f6 v=0
53728 On ch=1 n=a6 v=0
53758 On ch=1 n=d6 v=0
53758 On ch=1 n=d7 v=0
53758 On ch=1 n=a4 v=0
53760 Par ch=1 c=64 v=127
53760 On ch=1 n=e6 v=108
53760 On ch=1 n=e7 v=108
53760 On ch=1 n=a6 v=108
53760 On ch=1 n=c#7 v=108
53760 On ch=1 n=a2 v=108
53824 On ch=1 n=a2 v=0
53824 On ch=1 n=a3 v=108
53854 On ch=1 n=e6 v=0
53854 On ch=1 n=e7 v=0
53856 On ch=1 n=c#6 v=108
53856 On ch=1 n=c#7 v=108
53886 On ch=1 n=a3 v=0
53888 On ch=1 n=e4 v=108
53904 Par ch=1 c=64 v=0
53952 On ch=1 n=c#7 v=0
53952 On ch=1 n=c#6 v=0
53952 On ch=1 n=e4 v=0
53952 Par ch=1 c=64 v=127
53952 On ch=1 n=e6 v=108
53952 On ch=1 n=e7 v=108
53952 On ch=1 n=c#5 v=108
54016 On ch=1 n=c#5 v=0
54016 On ch=1 n=e4 v=108
54048 On ch=1 n=e6 v=0
54048 On ch=1 n=e7 v=0
54048 On ch=1 n=f#6 v=108
54048 On ch=1 n=f#7 v=108
54078 On ch=1 n=e4 v=0
54080 On ch=1 n=e4 v=108
54096 On ch=1 n=a6 v=0
54096 On ch=1 n=c#7 v=0
54096 Par ch=1 c=64 v=0
54142 On ch=1 n=e4 v=0
54144 On ch=1 n=f#6 v=0
54144 On ch=1 n=f#7 v=0
54144 Par ch=1 c=64 v=127
54144 On ch=1 n=f#6 v=108
54144 On ch=1 n=f#7 v=108
54144 On ch=1 n=b6 v=108
54144 On ch=1 n=g3 v=108
54144 On ch=1 n=e4 v=108
54208 On ch=1 n=g3 v=0
54208 On ch=1 n=e4 v=0
54208 On ch=1 n=b4 v=108
54240 On ch=1 n=f#6 v=0
54240 On ch=1 n=f#7 v=0
54240 On ch=1 n=g6 v=108
54240 On ch=1 n=g7 v=108
54272 On ch=1 n=b4 v=0
54272 On ch=1 n=c#5 v=108
54288 Par ch=1 c=64 v=0
54336 On ch=1 n=g6 v=0
54336 On ch=1 n=g7 v=0
54336 Par ch=1 c=64 v=127
54336 On ch=1 n=e6 v=108
54336 On ch=1 n=e7 v=108
54336 On ch=1 n=b5 v=108
54400 On ch=1 n=c#5 v=0
54400 On ch=1 n=b5 v=0
54400 On ch=1 n=e5 v=108
54432 On ch=1 n=e6 v=0
54432 On ch=1 n=e7 v=0
54432 On ch=1 n=c#6 v=108
54432 On ch=1 n=c#7 v=108
54464 On ch=1 n=e5 v=0
54464 On ch=1 n=c#5 v=108
54480 On ch=1 n=b6 v=0
54480 Par ch=1 c=64 v=0
54526 On ch=1 n=c#5 v=0
54528 On ch=1 n=c#6 v=0
54528 On ch=1 n=c#7 v=0
54528 Par ch=1 c=64 v=127
54528 On ch=1 n=f#6 v=108
54528 On ch=1 n=f#7 v=108
54528 On ch=1 n=a#6 v=108
54528 On ch=1 n=f#3 v=108
54528 On ch=1 n=f#4 v=108
54592 On ch=1 n=f#3 v=0
54592 On ch=1 n=f#4 v=0
54592 On ch=1 n=a#4 v=108
54654 On ch=1 n=a#4 v=0
54656 On ch=1 n=a#4 v=108
54672 Par ch=1 c=64 v=0
54720 On ch=1 n=f#6 v=0
54720 On ch=1 n=f#7 v=0
54720 Par ch=1 c=64 v=127
54720 On ch=1 n=c#6 v=108
54720 On ch=1 n=c#7 v=108
54720 On ch=1 n=a#5 v=108
54784 On ch=1 n=a#4 v=0
54784 On ch=1 n=a#5 v=0
54784 On ch=1 n=e5 v=108
54816 On ch=1 n=c#6 v=0
54816 On ch=1 n=c#7 v=0
54816 On ch=1 n=d6 v=108
54816 On ch=1 n=d7 v=108
54848 On ch=1 n=e5 v=0
54848 On ch=1 n=a#4 v=108
54864 On ch=1 n=a#6 v=0
54864 Par ch=1 c=64 v=0
54910 On ch=1 n=d6 v=0
54910 On ch=1 n=d7 v=0
54910 On ch=1 n=a#4 v=0
54912 Par ch=1 c=64 v=127
54912 On ch=1 n=e6 v=108
54912 On ch=1 n=e7 v=108
54912 On ch=1 n=a6 v=108
54912 On ch=1 n=b3 v=108
54976 On ch=1 n=b3 v=0
54976 On ch=1 n=a4 v=98
55008 On ch=1 n=e6 v=0
55008 On ch=1 n=e7 v=0
55008 On ch=1 n=f6 v=96
55008 On ch=1 n=f7 v=96
55040 On ch=1 n=a4 v=0
55040 On ch=1 n=d5 v=88
55056 Par ch=1 c=64 v=0
55104 On ch=1 n=f6 v=0
55104 On ch=1 n=f7 v=0
55104 On ch=1 n=d5 v=0
55104 Par ch=1 c=64 v=127
55104 On ch=1 n=d6 v=84
55104 On ch=1 n=d7 v=84
55104 On ch=1 n=f5 v=78
55104 On ch=1 n=a5 v=78
55168 On ch=1 n=f5 v=0
55168 On ch=1 n=a5 v=0
55168 On ch=1 n=d5 v=67
55200 On ch=1 n=d6 v=0
55200 On ch=1 n=d7 v=0
55200 On ch=1 n=b5 v=72
55200 On ch=1 n=b6 v=72
55232 On ch=1 n=d5 v=0
55232 On ch=1 n=a4 v=56
55248 On ch=1 n=a6 v=0
55248 Par ch=1 c=64 v=0
55248 On ch=1 n=e3 v=45
55294 On ch=1 n=a4 v=0
55296 On ch=1 n=b5 v=0
55296 On ch=1 n=b6 v=0
55296 Par ch=1 c=64 v=127
55296 On ch=1 n=e6 v=60
55296 On ch=1 n=g#6 v=60
55296 On ch=1 n=e7 v=60
55296 On ch=1 n=g#4 v=45
55358 On ch=1 n=e3 v=0
55360 On ch=1 n=g#4 v=0
55360 On ch=1 n=b4 v=45
55390 On ch=1 n=e6 v=0
55390 On ch=1 n=g#6 v=0
55390 On ch=1 n=e7 v=0
55424 On ch=1 n=b4 v=0
55424 On ch=1 n=d5 v=45
55440 Par ch=1 c=64 v=0
55488 On ch=1 n=d5 v=0
55488 Par ch=1 c=64 v=127
55488 On ch=1 n=g#5 v=45
55552 On ch=1 n=g#5 v=0
55552 On ch=1 n=c5 v=45
55616 On ch=1 n=c5 v=0
55616 On ch=1 n=d5 v=45
55632 Par ch=1 c=64 v=0
55678 On ch=1 n=d5 v=0
55680 Par ch=1 c=64 v=127
55680 On ch=1 n=b4 v=45
55744 On ch=1 n=b4 v=0
55744 On ch=1 n=d5 v=45
55808 On ch=1 n=d5 v=0
55808 On ch=1 n=g#5 v=45
55824 Par ch=1 c=64 v=0
55872 On ch=1 n=g#5 v=0
55872 Par ch=1 c=64 v=127
55872 On ch=1 n=d5 v=45
55936 On ch=1 n=d5 v=0
55936 On ch=1 n=a4 v=45
56000 On ch=1 n=a4 v=0
56000 On ch=1 n=g#4 v=45
56016 Par ch=1 c=64 v=0
56062 On ch=1 n=g#4 v=0
56064 Par ch=1 c=64 v=127
56064 On ch=1 n=g#4 v=45
56128 On ch=1 n=c5 v=45
56190 On ch=1 n=c5 v=0
56192 On ch=1 n=e5 v=45
56208 Par ch=1 c=64 v=0
56224 On ch=1 n=g#4 v=0
56254 On ch=1 n=e5 v=0
56256 Par ch=1 c=64 v=127
56256 On ch=1 n=f#4 v=45
56320 On ch=1 n=c5 v=45
56384 On ch=1 n=c5 v=0
56384 On ch=1 n=e5 v=45
56400 Par ch=1 c=64 v=0
56448 On ch=1 n=e5 v=0
56448 Par ch=1 c=64 v=127
56448 On ch=1 n=b4 v=45
56512 On ch=1 n=b4 v=0
56512 On ch=1 n=a4 v=45
56576 On ch=1 n=a4 v=0
56576 On ch=1 n=b4 v=45
56592 On ch=1 n=f#4 v=0
56592 Par ch=1 c=64 v=0
56640 On ch=1 n=b4 v=0
56640 Par ch=1 c=64 v=127
56640 On ch=1 n=g#4 v=45
56704 On ch=1 n=d5 v=45
56768 On ch=1 n=d5 v=0
56768 On ch=1 n=e5 v=45
56784 Par ch=1 c=64 v=0
56800 On ch=1 n=g#4 v=0
56830 On ch=1 n=e5 v=0
56832 Par ch=1 c=64 v=127
56832 On ch=1 n=a3 v=75
56896 On ch=1 n=a3 v=0
56896 On ch=1 n=e4 v=75
56928 On ch=1 n=a6 v=92
56960 On ch=1 n=e4 v=0
56960 On ch=1 n=c5 v=75
56976 Par ch=1 c=64 v=0
57024 On ch=1 n=a6 v=0
57024 On ch=1 n=c5 v=0
57024 Par ch=1 c=64 v=127
57024 On ch=1 n=b4 v=75
57024 On ch=1 n=g6 v=92
57088 On ch=1 n=b4 v=0
57088 On ch=1 n=c5 v=75
57120 On ch=1 n=g6 v=0
57120 On ch=1 n=a6 v=92
57152 On ch=1 n=c5 v=0
57152 On ch=1 n=a4 v=75
57168 Par ch=1 c=64 v=0
57214 On ch=1 n=a6 v=0
57214 On ch=1 n=a4 v=0
57216 Par ch=1 c=64 v=127
57216 On ch=1 n=f#5 v=75
57216 On ch=1 n=a6 v=92
57280 On ch=1 n=f#5 v=0
57280 On ch=1 n=g5 v=75
57312 On ch=1 n=a6 v=0
57312 On ch=1 n=b6 v=92
57344 On ch=1 n=g5 v=0
57344 On ch=1 n=c5 v=75
57360 Par ch=1 c=64 v=0
57408 On ch=1 n=b6 v=0
57408 On ch=1 n=c5 v=0
57408 Par ch=1 c=64 v=127
57408 On ch=1 n=g6 v=92
57408 On ch=1 n=c6 v=75
57408 On ch=1 n=b4 v=75
57472 On ch=1 n=b4 v=0
57472 On ch=1 n=c5 v=75
57504 On ch=1 n=g6 v=0
57504 On ch=1 n=f#6 v=92
57536 On ch=1 n=c5 v=0
57536 On ch=1 n=a4 v=75
57552 Par ch=1 c=64 v=0
57598 On ch=1 n=f#6 v=0
57598 On ch=1 n=a4 v=0
57600 Par ch=1 c=64 v=127
57600 On ch=1 n=g6 v=92
57600 On ch=1 n=e5 v=75
57664 On ch=1 n=e5 v=0
57664 On ch=1 n=f#5 v=75
57696 On ch=1 n=g6 v=0
57696 On ch=1 n=a6 v=92
57728 On ch=1 n=f#5 v=0
57728 On ch=1 n=c5 v=75
57744 Par ch=1 c=64 v=0
57792 On ch=1 n=a6 v=0
57792 On ch=1 n=c5 v=0
57792 Par ch=1 c=64 v=127
57792 On ch=1 n=f#6 v=92
57792 On ch=1 n=a4 v=75
57856 On ch=1 n=a4 v=0
57856 On ch=1 n=c5 v=75
57888 On ch=1 n=f#6 v=0
57888 On ch=1 n=e6 v=92
57920 On ch=1 n=c5 v=0
57920 On ch=1 n=g4 v=75
57936 Par ch=1 c=64 v=0
57982 On ch=1 n=e6 v=0
57982 On ch=1 n=g4 v=0
57984 Par ch=1 c=64 v=127
57984 On ch=1 n=f#6 v=92
57984 On ch=1 n=a4 v=75
58048 On ch=1 n=a4 v=0
58048 On ch=1 n=c5 v=75
58080 On ch=1 n=f#6 v=0
58080 On ch=1 n=g6 v=92
58112 On ch=1 n=c5 v=0
58112 On ch=1 n=g4 v=75
58128 On ch=1 n=c6 v=0
58128 Par ch=1 c=64 v=0
58176 On ch=1 n=g6 v=0
58176 On ch=1 n=g4 v=0
58176 Par ch=1 c=64 v=127
58176 On ch=1 n=e6 v=92
58176 On ch=1 n=a5 v=75
58176 On ch=1 n=f#4 v=75
58240 On ch=1 n=f#4 v=0
58240 On ch=1 n=c4 v=75
58272 On ch=1 n=e6 v=0
58272 On ch=1 n=d#6 v=92
58304 On ch=1 n=c4 v=0
58304 On ch=1 n=b3 v=75
58320 Par ch=1 c=64 v=0
58366 On ch=1 n=d#6 v=0
58366 On ch=1 n=b3 v=0
58368 Par ch=1 c=64 v=127
58368 On ch=1 n=e6 v=92
58368 On ch=1 n=e3 v=75
58432 On ch=1 n=e3 v=0
58432 On ch=1 n=b3 v=75
58462 On ch=1 n=a5 v=0
58464 On ch=1 n=g5 v=79
58496 On ch=1 n=b3 v=0
58496 On ch=1 n=g4 v=75
58512 Par ch=1 c=64 v=0
58560 On ch=1 n=g5 v=0
58560 On ch=1 n=g4 v=0
58560 Par ch=1 c=64 v=127
58560 On ch=1 n=a5 v=83
58560 On ch=1 n=c5 v=75
58624 On ch=1 n=c5 v=0
58624 On ch=1 n=b4 v=75
58656 On ch=1 n=a5 v=0
58656 On ch=1 n=b5 v=87
58688 On ch=1 n=b4 v=0
58688 On ch=1 n=g4 v=75
58704 Par ch=1 c=64 v=0
58752 On ch=1 n=b5 v=0
58752 On ch=1 n=g4 v=0
58752 Par ch=1 c=64 v=127
58752 On ch=1 n=b5 v=92
58752 On ch=1 n=f#5 v=75
58816 On ch=1 n=f#5 v=0
58816 On ch=1 n=e5 v=75
58848 On ch=1 n=b5 v=0
58848 On ch=1 n=c6 v=92
58880 On ch=1 n=e5 v=0
58880 On ch=1 n=g4 v=69
58896 On ch=1 n=e6 v=0
58896 Par ch=1 c=64 v=0
58944 On ch=1 n=c6 v=0
58944 On ch=1 n=g4 v=0
58944 Par ch=1 c=64 v=127
58944 On ch=1 n=d#6 v=92
58944 On ch=1 n=a5 v=82
58944 On ch=1 n=c5 v=63
59008 On ch=1 n=c5 v=0
59008 On ch=1 n=b4 v=57
59038 On ch=1 n=a5 v=0
59040 On ch=1 n=g5 v=71
59072 On ch=1 n=b4 v=0
59072 On ch=1 n=b3 v=51
59088 Par ch=1 c=64 v=0
59104 On ch=1 n=d#6 v=0
59134 On ch=1 n=b3 v=0
59136 Par ch=1 c=64 v=127
59136 On ch=1 n=e6 v=60
59136 On ch=1 n=e3 v=45
59198 On ch=1 n=g5 v=0
59198 On ch=1 n=e6 v=0
59200 On ch=1 n=e3 v=0
59200 On ch=1 n=e5 v=60
59200 On ch=1 n=b3 v=45
59262 On ch=1 n=e5 v=0
59264 On ch=1 n=b3 v=0
59264 On ch=1 n=f#5 v=60
59264 On ch=1 n=g4 v=45
59280 Par ch=1 c=64 v=0
59280 On ch=1 n=e5 v=60
59304 On ch=1 n=e5 v=0
59304 On ch=1 n=f#5 v=60
59326 On ch=1 n=f#5 v=0
59326 On ch=1 n=g4 v=0
59328 On ch=1 n=f#5 v=0
59328 Par ch=1 c=64 v=127
59328 On ch=1 n=e5 v=60
59328 On ch=1 n=c5 v=45
59392 On ch=1 n=e5 v=0
59392 On ch=1 n=d#5 v=60
59424 On ch=1 n=c5 v=0
59424 On ch=1 n=g4 v=45
59456 On ch=1 n=d#5 v=0
59456 On ch=1 n=e5 v=60
59472 Par ch=1 c=64 v=0
59518 On ch=1 n=g4 v=0
59520 On ch=1 n=e5 v=0
59520 Par ch=1 c=64 v=127
59520 On ch=1 n=g5 v=60
59520 On ch=1 n=b4 v=45
59584 On ch=1 n=g5 v=0
59584 On ch=1 n=e5 v=60
59616 On ch=1 n=b4 v=0
59616 On ch=1 n=e4 v=45
59648 On ch=1 n=e5 v=0
59648 On ch=1 n=g5 v=60
59664 Par ch=1 c=64 v=0
59710 On ch=1 n=e4 v=0
59712 On ch=1 n=g5 v=0
59712 Par ch=1 c=64 v=127
59712 On ch=1 n=a5 v=60
59712 On ch=1 n=a4 v=45
59776 On ch=1 n=a5 v=0
59776 On ch=1 n=e5 v=60
59808 On ch=1 n=a4 v=0
59808 On ch=1 n=c4 v=45
59840 On ch=1 n=e5 v=0
59840 On ch=1 n=a5 v=60
59856 Par ch=1 c=64 v=0
59902 On ch=1 n=c4 v=0
59904 On ch=1 n=a5 v=0
59904 Par ch=1 c=64 v=127
59904 On ch=1 n=e5 v=60
59904 On ch=1 n=b5 v=60
59904 On ch=1 n=e3 v=45
59904 On ch=1 n=b3 v=45
59904 On ch=1 n=g4 v=45
59966 On ch=1 n=e3 v=0
59966 On ch=1 n=b3 v=0
59966 On ch=1 n=g4 v=0
59968 On ch=1 n=b4 v=45
59998 On ch=1 n=e5 v=0
59998 On ch=1 n=b5 v=0
60000 On ch=1 n=e6 v=92
60032 On ch=1 n=b4 v=0
60032 On ch=1 n=e5 v=45
60048 Par ch=1 c=64 v=0
60096 On ch=1 n=e6 v=0
60096 On ch=1 n=e5 v=0
60096 Par ch=1 c=64 v=127
60096 On ch=1 n=d6 v=92
60096 On ch=1 n=g5 v=75
60096 On ch=1 n=b5 v=75
60096 On ch=1 n=f#5 v=45
60160 On ch=1 n=f#5 v=0
60160 On ch=1 n=e5 v=45
60192 On ch=1 n=d6 v=0
60192 On ch=1 n=e6 v=92
60224 On ch=1 n=e5 v=0
60224 On ch=1 n=b4 v=45
60240 Par ch=1 c=64 v=0
60286 On ch=1 n=e6 v=0
60286 On ch=1 n=b4 v=0
60288 Par ch=1 c=64 v=127
60288 On ch=1 n=e6 v=92
60288 On ch=1 n=e5 v=45
60352 On ch=1 n=e5 v=0
60352 On ch=1 n=d5 v=45
60384 On ch=1 n=e6 v=0
60384 On ch=1 n=f#6 v=92
60416 On ch=1 n=d5 v=0
60416 On ch=1 n=b4 v=45
60432 Par ch=1 c=64 v=0
60480 On ch=1 n=f#6 v=0
60480 On ch=1 n=b4 v=0
60480 Par ch=1 c=64 v=127
60480 On ch=1 n=d6 v=92
60480 On ch=1 n=g4 v=45
60544 On ch=1 n=g4 v=0
60544 On ch=1 n=f#4 v=45
60576 On ch=1 n=d6 v=0
60576 On ch=1 n=c#6 v=92
60608 On ch=1 n=f#4 v=0
60608 On ch=1 n=e4 v=45
60624 Par ch=1 c=64 v=0
60670 On ch=1 n=c#6 v=0
60670 On ch=1 n=e4 v=0
60672 Par ch=1 c=64 v=127
60672 On ch=1 n=d6 v=92
60672 On ch=1 n=d5 v=45
60736 On ch=1 n=d5 v=0
60736 On ch=1 n=c#5 v=45
60768 On ch=1 n=d6 v=0
60768 On ch=1 n=e6 v=92
60800 On ch=1 n=c#5 v=0
60800 On ch=1 n=b4 v=45
60816 Par ch=1 c=64 v=0
60832 On ch=1 n=g5 v=0
60832 On ch=1 n=b5 v=0
60864 On ch=1 n=e6 v=0
60864 On ch=1 n=b4 v=0
60864 Par ch=1 c=64 v=127
60864 On ch=1 n=c#6 v=92
60864 On ch=1 n=e5 v=75
60864 On ch=1 n=g5 v=75
60864 On ch=1 n=a4 v=45
60928 On ch=1 n=a4 v=0
60928 On ch=1 n=b4 v=45
60960 On ch=1 n=c#6 v=0
60960 On ch=1 n=b5 v=92
60992 On ch=1 n=b4 v=0
60992 On ch=1 n=g4 v=45
61008 Par ch=1 c=64 v=0
61054 On ch=1 n=b5 v=0
61056 On ch=1 n=g4 v=0
61056 Par ch=1 c=64 v=127
61056 On ch=1 n=c#6 v=92
61056 On ch=1 n=b4 v=45
61120 On ch=1 n=b4 v=0
61120 On ch=1 n=a4 v=45
61152 On ch=1 n=c#6 v=0
61152 On ch=1 n=d6 v=92
61184 On ch=1 n=a4 v=0
61184 On ch=1 n=g4 v=45
61200 On ch=1 n=e5 v=0
61200 On ch=1 n=g5 v=0
61200 On ch=1 n=d6 v=0
61200 Par ch=1 c=64 v=0
61200 On ch=1 n=b5 v=92
61224 On ch=1 n=b5 v=0
61224 On ch=1 n=c#6 v=92
61248 On ch=1 n=g4 v=0
61248 On ch=1 n=c#6 v=0
61248 Par ch=1 c=64 v=127
61248 On ch=1 n=b5 v=92
61248 On ch=1 n=e5 v=75
61248 On ch=1 n=f#4 v=45
61312 On ch=1 n=f#4 v=0
61312 On ch=1 n=g3 v=45
61344 On ch=1 n=b5 v=0
61344 On ch=1 n=a#5 v=92
61376 On ch=1 n=g3 v=0
61376 On ch=1 n=f#3 v=45
61392 Par ch=1 c=64 v=0
61438 On ch=1 n=a#5 v=0
61438 On ch=1 n=f#3 v=0
61440 Par ch=1 c=64 v=127
61440 On ch=1 n=b5 v=92
61440 On ch=1 n=b2 v=45
61504 On ch=1 n=b2 v=0
61504 On ch=1 n=f#3 v=45
61534 On ch=1 n=e5 v=0
61536 On ch=1 n=d5 v=79
61568 On ch=1 n=f#3 v=0
61568 On ch=1 n=d4 v=45
61584 Par ch=1 c=64 v=0
61630 On ch=1 n=d5 v=0
61632 On ch=1 n=d4 v=0
61632 Par ch=1 c=64 v=127
61632 On ch=1 n=e5 v=83
61632 On ch=1 n=g4 v=45
61696 On ch=1 n=g4 v=0
61696 On ch=1 n=f#4 v=45
61726 On ch=1 n=e5 v=0
61728 On ch=1 n=f#5 v=87
61760 On ch=1 n=f#4 v=0
61760 On ch=1 n=d4 v=45
61776 Par ch=1 c=64 v=0
61822 On ch=1 n=f#5 v=0
61824 On ch=1 n=d4 v=0
61824 Par ch=1 c=64 v=127
61824 On ch=1 n=f#5 v=92
61824 On ch=1 n=c#5 v=45
61888 On ch=1 n=c#5 v=0
61888 On ch=1 n=b4 v=45
61918 On ch=1 n=f#5 v=0
61920 On ch=1 n=g5 v=92
61952 On ch=1 n=b4 v=0
61952 On ch=1 n=d4 v=45
61968 On ch=1 n=b5 v=0
61968 Par ch=1 c=64 v=0
62014 On ch=1 n=g5 v=0
62016 On ch=1 n=d4 v=0
62016 Par ch=1 c=64 v=127
62016 On ch=1 n=a#5 v=92
62016 On ch=1 n=e5 v=87
62016 On ch=1 n=g4 v=45
62080 On ch=1 n=g4 v=0
62080 On ch=1 n=f#4 v=45
62110 On ch=1 n=e5 v=0
62112 On ch=1 n=d5 v=81
62144 On ch=1 n=f#4 v=0
62144 On ch=1 n=f#3 v=45
62160 Par ch=1 c=64 v=0
62176 On ch=1 n=a#5 v=0
62206 On ch=1 n=f#3 v=0
62208 Par ch=1 c=64 v=127
62208 On ch=1 n=b5 v=75
62208 On ch=1 n=b2 v=45
62270 On ch=1 n=d5 v=0
62270 On ch=1 n=b5 v=0
62272 On ch=1 n=b2 v=0
62272 On ch=1 n=b4 v=75
62272 On ch=1 n=f#3 v=45
62334 On ch=1 n=b4 v=0
62336 On ch=1 n=f#3 v=0
62336 On ch=1 n=c#5 v=75
62336 On ch=1 n=d4 v=45
62352 Par ch=1 c=64 v=0
62352 On ch=1 n=b4 v=92
62376 On ch=1 n=b4 v=0
62376 On ch=1 n=c#5 v=92
62398 On ch=1 n=c#5 v=0
62398 On ch=1 n=d4 v=0
62400 On ch=1 n=c#5 v=0
62400 Par ch=1 c=64 v=127
62400 On ch=1 n=b4 v=92
62400 On ch=1 n=g4 v=45
62464 On ch=1 n=b4 v=0
62464 On ch=1 n=a#4 v=92
62496 On ch=1 n=g4 v=0
62496 On ch=1 n=d4 v=45
62528 On ch=1 n=a#4 v=0
62528 On ch=1 n=b4 v=92
62544 Par ch=1 c=64 v=0
62590 On ch=1 n=d4 v=0
62592 On ch=1 n=b4 v=0
62592 Par ch=1 c=64 v=127
62592 On ch=1 n=d5 v=92
62592 On ch=1 n=f#4 v=45
62656 On ch=1 n=d5 v=0
62656 On ch=1 n=b4 v=92
62688 On ch=1 n=f#4 v=0
62688 On ch=1 n=b3 v=45
62720 On ch=1 n=b4 v=0
62720 On ch=1 n=f#5 v=92
62736 Par ch=1 c=64 v=0
62782 On ch=1 n=b3 v=0
62784 On ch=1 n=f#5 v=0
62784 Par ch=1 c=64 v=127
62784 On ch=1 n=b4 v=92
62784 On ch=1 n=d4 v=45
62848 On ch=1 n=b4 v=0
62848 On ch=1 n=b5 v=92
62880 On ch=1 n=d4 v=0
62880 On ch=1 n=f#3 v=45
62912 On ch=1 n=b5 v=0
62912 On ch=1 n=b4 v=92
62928 Par ch=1 c=64 v=0
62974 On ch=1 n=f#3 v=0
62974 On ch=1 n=b4 v=0
62976 Par ch=1 c=64 v=127
62976 On ch=1 n=f4 v=60
63024 On ch=1 n=f#4 v=60
63072 On ch=1 n=f#4 v=0
63072 On ch=1 n=g4 v=60
63072 On ch=1 n=g3 v=45
63120 On ch=1 n=g4 v=0
63120 Par ch=1 c=64 v=0
63120 On ch=1 n=b4 v=60
63136 On ch=1 n=f4 v=0
63168 On ch=1 n=g3 v=0
63168 On ch=1 n=b4 v=0
63168 Par ch=1 c=64 v=127
63168 On ch=1 n=d5 v=60
63168 On ch=1 n=f4 v=45
63216 On ch=1 n=d5 v=0
63216 On ch=1 n=c#5 v=60
63264 On ch=1 n=f4 v=0
63264 On ch=1 n=c#5 v=0
63264 On ch=1 n=d5 v=60
63264 On ch=1 n=g3 v=45
63312 On ch=1 n=d5 v=0
63312 Par ch=1 c=64 v=0
63312 On ch=1 n=c#5 v=60
63358 On ch=1 n=g3 v=0
63358 On ch=1 n=c#5 v=0
63360 Par ch=1 c=64 v=127
63360 On ch=1 n=c5 v=60
63408 On ch=1 n=c5 v=0
63408 On ch=1 n=c#5 v=60
63456 On ch=1 n=c#5 v=0
63456 On ch=1 n=d5 v=60
63456 On ch=1 n=f4 v=45
63504 On ch=1 n=d5 v=0
63504 Par ch=1 c=64 v=0
63504 On ch=1 n=f5 v=60
63552 On ch=1 n=f4 v=0
63552 On ch=1 n=f5 v=0
63552 Par ch=1 c=64 v=127
63552 On ch=1 n=g#5 v=60
63552 On ch=1 n=c5 v=45
63600 On ch=1 n=g#5 v=0
63600 On ch=1 n=c5 v=60
63648 On ch=1 n=c5 v=0
63648 On ch=1 n=c5 v=0
63648 On ch=1 n=d5 v=60
63648 On ch=1 n=f4 v=45
63696 On ch=1 n=d5 v=0
63696 Par ch=1 c=64 v=0
63696 On ch=1 n=c5 v=60
63742 On ch=1 n=f4 v=0
63742 On ch=1 n=c5 v=0
63744 Par ch=1 c=64 v=127
63744 On ch=1 n=b4 v=60
63792 On ch=1 n=d5 v=60
63840 On ch=1 n=d5 v=0
63840 On ch=1 n=f5 v=60
63840 On ch=1 n=g4 v=45
63888 On ch=1 n=f5 v=0
63888 Par ch=1 c=64 v=0
63888 On ch=1 n=f#5 v=60
63904 On ch=1 n=b4 v=0
63936 On ch=1 n=g4 v=0
63936 On ch=1 n=f#5 v=0
63936 Par ch=1 c=64 v=127
63936 On ch=1 n=g5 v=60
63936 On ch=1 n=b4 v=45
63984 On ch=1 n=g5 v=0
63984 On ch=1 n=d5 v=60
64032 On ch=1 n=b4 v=0
64032 On ch=1 n=d5 v=0
64032 On ch=1 n=d#5 v=60
64032 On ch=1 n=g4 v=45
64080 On ch=1 n=d#5 v=0
64080 Par ch=1 c=64 v=0
64080 On ch=1 n=f5 v=60
64126 On ch=1 n=g4 v=0
64126 On ch=1 n=f5 v=0
64128 Par ch=1 c=64 v=127
64128 On ch=1 n=f#5 v=60
64176 On ch=1 n=g#5 v=60
64224 On ch=1 n=g#5 v=0
64224 On ch=1 n=a5 v=60
64224 On ch=1 n=c5 v=45
64272 On ch=1 n=a5 v=0
64272 Par ch=1 c=64 v=0
64272 On ch=1 n=c6 v=60
64288 On ch=1 n=f#5 v=0
64320 On ch=1 n=c5 v=0
64320 On ch=1 n=c6 v=0
64320 Par ch=1 c=64 v=127
64320 On ch=1 n=d#6 v=60
64320 On ch=1 n=f#5 v=45
64366 On ch=1 n=d#6 v=0
64368 On ch=1 n=f4 v=60
64416 On ch=1 n=f#5 v=0
64416 On ch=1 n=f4 v=0
64416 On ch=1 n=g4 v=60
64416 On ch=1 n=c5 v=45
64464 On ch=1 n=g4 v=0
64464 Par ch=1 c=64 v=0
64464 On ch=1 n=f4 v=60
64510 On ch=1 n=c5 v=0
64512 On ch=1 n=f4 v=0
64512 Par ch=1 c=64 v=127
64512 On ch=1 n=f4 v=60
64560 On ch=1 n=f#4 v=60
64608 On ch=1 n=f#4 v=0
64608 On ch=1 n=g4 v=60
64608 On ch=1 n=g3 v=45
64656 On ch=1 n=g4 v=0
64656 Par ch=1 c=64 v=0
64656 On ch=1 n=b4 v=60
64672 On ch=1 n=f4 v=0
64704 On ch=1 n=g3 v=0
64704 On ch=1 n=b4 v=0
64704 Par ch=1 c=64 v=127
64704 On ch=1 n=d5 v=60
64704 On ch=1 n=f4 v=45
64752 On ch=1 n=d5 v=0
64752 On ch=1 n=c#5 v=60
64800 On ch=1 n=f4 v=0
64800 On ch=1 n=c#5 v=0
64800 On ch=1 n=d5 v=60
64800 On ch=1 n=g3 v=45
64848 On ch=1 n=d5 v=0
64848 Par ch=1 c=64 v=0
64848 On ch=1 n=c#5 v=60
64894 On ch=1 n=g3 v=0
64894 On ch=1 n=c#5 v=0
64896 Par ch=1 c=64 v=127
64896 On ch=1 n=c5 v=60
64944 On ch=1 n=c#5 v=60
64992 On ch=1 n=c#5 v=0
64992 On ch=1 n=d5 v=60
64992 On ch=1 n=f4 v=45
65040 On ch=1 n=d5 v=0
65040 Par ch=1 c=64 v=0
65040 On ch=1 n=f5 v=60
65056 On ch=1 n=c5 v=0
65088 On ch=1 n=f4 v=0
65088 On ch=1 n=f5 v=0
65088 Par ch=1 c=64 v=127
65088 On ch=1 n=a#5 v=60
65088 On ch=1 n=c5 v=45
65136 On ch=1 n=a#5 v=0
65136 On ch=1 n=c#5 v=60
65184 On ch=1 n=c5 v=0
65184 On ch=1 n=c#5 v=0
65184 On ch=1 n=d5 v=60
65184 On ch=1 n=f4 v=45
65232 On ch=1 n=d5 v=0
65232 Par ch=1 c=64 v=0
65232 On ch=1 n=c#5 v=60
65278 On ch=1 n=f4 v=0
65278 On ch=1 n=c#5 v=0
65280 Par ch=1 c=64 v=127
65280 On ch=1 n=b4 v=60
65328 On ch=1 n=d5 v=60
65376 On ch=1 n=d5 v=0
65376 On ch=1 n=f5 v=60
65376 On ch=1 n=g4 v=45
65424 On ch=1 n=f5 v=0
65424 Par ch=1 c=64 v=0
65424 On ch=1 n=f#5 v=60
65440 On ch=1 n=b4 v=0
65472 On ch=1 n=g4 v=0
65472 On ch=1 n=f#5 v=0
65472 Par ch=1 c=64 v=127
65472 On ch=1 n=g5 v=60
65472 On ch=1 n=b4 v=45
65520 On ch=1 n=g5 v=0
65520 On ch=1 n=d5 v=60
65568 On ch=1 n=b4 v=0
65568 On ch=1 n=d5 v=0
65568 On ch=1 n=g4 v=45
65568 On ch=1 n=d#5 v=60
65616 On ch=1 n=d#5 v=0
65616 Par ch=1 c=64 v=0
65616 On ch=1 n=e5 v=60
65662 On ch=1 n=g4 v=0
65662 On ch=1 n=e5 v=0
65664 Par ch=1 c=64 v=127
65664 On ch=1 n=f5 v=60
65712 On ch=1 n=f5 v=0
65712 On ch=1 n=f#5 v=60
65760 On ch=1 n=f#5 v=0
65760 On ch=1 n=g5 v=60
65760 On ch=1 n=d5 v=45
65808 On ch=1 n=g5 v=0
65808 Par ch=1 c=64 v=0
65808 On ch=1 n=b5 v=60
65856 On ch=1 n=d5 v=0
65856 On ch=1 n=b5 v=0
65856 Par ch=1 c=64 v=127
65856 On ch=1 n=d6 v=60
65856 On ch=1 n=g5 v=45
65902 On ch=1 n=d6 v=0
65904 On ch=1 n=f4 v=60
65952 On ch=1 n=g5 v=0
65952 On ch=1 n=f4 v=0
65952 On ch=1 n=g4 v=60
65952 On ch=1 n=b4 v=45
66000 On ch=1 n=g4 v=0
66000 Par ch=1 c=64 v=0
66000 On ch=1 n=f4 v=60
66046 On ch=1 n=b4 v=0
66048 On ch=1 n=f4 v=0
66048 Par ch=1 c=64 v=127
66048 On ch=1 n=d#4 v=60
66094 On ch=1 n=d#4 v=0
66096 On ch=1 n=g4 v=60
66144 On ch=1 n=g4 v=0
66144 On ch=1 n=a#4 v=60
66144 On ch=1 n=g3 v=45
66192 On ch=1 n=a#4 v=0
66192 Par ch=1 c=64 v=0
66192 On ch=1 n=b4 v=60
66240 On ch=1 n=g3 v=0
66240 On ch=1 n=b4 v=0
66240 Par ch=1 c=64 v=127
66240 On ch=1 n=d5 v=60
66240 On ch=1 n=d#4 v=45
66288 On ch=1 n=d5 v=0
66288 On ch=1 n=b4 v=60
66336 On ch=1 n=d#4 v=0
66336 On ch=1 n=b4 v=0
66336 On ch=1 n=c5 v=60
66336 On ch=1 n=g3 v=45
66384 On ch=1 n=c5 v=0
66384 Par ch=1 c=64 v=0
66384 On ch=1 n=c#5 v=60
66430 On ch=1 n=g3 v=0
66430 On ch=1 n=c#5 v=0
66432 Par ch=1 c=64 v=127
66432 On ch=1 n=d5 v=60
66480 On ch=1 n=d#5 v=60
66528 On ch=1 n=d#5 v=0
66528 On ch=1 n=f5 v=60
66528 On ch=1 n=d#4 v=45
66576 On ch=1 n=f5 v=0
66576 Par ch=1 c=64 v=0
66576 On ch=1 n=f#5 v=60
66592 On ch=1 n=d5 v=0
66624 On ch=1 n=d#4 v=0
66624 On ch=1 n=f#5 v=0
66624 Par ch=1 c=64 v=127
66624 On ch=1 n=g5 v=60
66624 On ch=1 n=b4 v=45
66672 On ch=1 n=g5 v=0
66672 On ch=1 n=d5 v=60
66720 On ch=1 n=b4 v=0
66720 On ch=1 n=d5 v=0
66720 On ch=1 n=d#5 v=60
66720 On ch=1 n=d#4 v=45
66768 On ch=1 n=d#5 v=0
66768 Par ch=1 c=64 v=0
66768 On ch=1 n=d5 v=60
66814 On ch=1 n=d#4 v=0
66814 On ch=1 n=d5 v=0
66816 Par ch=1 c=64 v=127
66816 On ch=1 n=c5 v=60
66864 On ch=1 n=c5 v=0
66864 On ch=1 n=d5 v=60
66912 On ch=1 n=d5 v=0
66912 On ch=1 n=d#5 v=60
66912 On ch=1 n=g4 v=45
66960 On ch=1 n=d#5 v=0
66960 Par ch=1 c=64 v=0
66960 On ch=1 n=f#5 v=60
67008 On ch=1 n=g4 v=0
67008 On ch=1 n=f#5 v=0
67008 Par ch=1 c=64 v=127
67008 On ch=1 n=g#5 v=60
67008 On ch=1 n=c5 v=45
67056 On ch=1 n=g#5 v=0
67056 On ch=1 n=d#5 v=60
67104 On ch=1 n=c5 v=0
67104 On ch=1 n=d#5 v=0
67104 On ch=1 n=f5 v=60
67104 On ch=1 n=g4 v=45
67152 On ch=1 n=f5 v=0
67152 Par ch=1 c=64 v=0
67152 On ch=1 n=f#5 v=60
67198 On ch=1 n=g4 v=0
67198 On ch=1 n=f#5 v=0
67200 Par ch=1 c=64 v=127
67200 On ch=1 n=g5 v=60
67248 On ch=1 n=a#5 v=60
67296 On ch=1 n=a#5 v=0
67296 On ch=1 n=b5 v=60
67296 On ch=1 n=c5 v=45
67344 On ch=1 n=b5 v=0
67344 Par ch=1 c=64 v=0
67344 On ch=1 n=c6 v=60
67360 On ch=1 n=g5 v=0
67392 On ch=1 n=c5 v=0
67392 On ch=1 n=c6 v=0
67392 Par ch=1 c=64 v=127
67392 On ch=1 n=d#6 v=60
67392 On ch=1 n=g5 v=45
67438 On ch=1 n=d#6 v=0
67440 On ch=1 n=f4 v=60
67488 On ch=1 n=g5 v=0
67488 On ch=1 n=f4 v=0
67488 On ch=1 n=g4 v=60
67488 On ch=1 n=c5 v=45
67536 On ch=1 n=g4 v=0
67536 Par ch=1 c=64 v=0
67536 On ch=1 n=f4 v=60
67582 On ch=1 n=c5 v=0
67582 On ch=1 n=f4 v=0
67584 Par ch=1 c=64 v=127
67584 On ch=1 n=d#4 v=60
67632 On ch=1 n=d#4 v=0
67632 On ch=1 n=g4 v=60
67680 On ch=1 n=g4 v=0
67680 On ch=1 n=a#4 v=60
67680 On ch=1 n=g3 v=45
67728 On ch=1 n=a#4 v=0
67728 Par ch=1 c=64 v=0
67728 On ch=1 n=b4 v=60
67776 On ch=1 n=g3 v=0
67776 On ch=1 n=b4 v=0
67776 Par ch=1 c=64 v=127
67776 On ch=1 n=d5 v=60
67776 On ch=1 n=d#4 v=45
67824 On ch=1 n=d5 v=0
67824 On ch=1 n=b4 v=60
67872 On ch=1 n=d#4 v=0
67872 On ch=1 n=b4 v=0
67872 On ch=1 n=c5 v=60
67872 On ch=1 n=g3 v=45
67920 On ch=1 n=c5 v=0
67920 Par ch=1 c=64 v=0
67920 On ch=1 n=c#5 v=60
67966 On ch=1 n=g3 v=0
67966 On ch=1 n=c#5 v=0
67968 Par ch=1 c=64 v=127
67968 On ch=1 n=d5 v=60
68016 On ch=1 n=d5 v=0
68016 On ch=1 n=d#5 v=60
68064 On ch=1 n=d#5 v=0
68064 On ch=1 n=f5 v=60
68064 On ch=1 n=d#4 v=45
68112 On ch=1 n=f5 v=0
68112 Par ch=1 c=64 v=0
68112 On ch=1 n=f#5 v=60
68160 On ch=1 n=d#4 v=0
68160 On ch=1 n=f#5 v=0
68160 Par ch=1 c=64 v=127
68160 On ch=1 n=g5 v=60
68160 On ch=1 n=b4 v=45
68208 On ch=1 n=g5 v=0
68208 On ch=1 n=d5 v=60
68256 On ch=1 n=b4 v=0
68256 On ch=1 n=d5 v=0
68256 On ch=1 n=d#5 v=60
68256 On ch=1 n=d#4 v=45
68304 On ch=1 n=d#5 v=0
68304 Par ch=1 c=64 v=0
68304 On ch=1 n=d5 v=60
68350 On ch=1 n=d#4 v=0
68350 On ch=1 n=d5 v=0
68352 Par ch=1 c=64 v=127
68352 On ch=1 n=c5 v=60
68400 On ch=1 n=d5 v=60
68446 On ch=1 n=d5 v=0
68448 On ch=1 n=d#5 v=60
68448 On ch=1 n=g4 v=45
68494 On ch=1 n=d#5 v=0
68496 Par ch=1 c=64 v=0
68496 On ch=1 n=f#5 v=60
68512 On ch=1 n=c5 v=0
68542 On ch=1 n=f#5 v=0
68544 On ch=1 n=g4 v=0
68544 Par ch=1 c=64 v=127
68544 On ch=1 n=g#5 v=60
68544 On ch=1 n=c5 v=45
68590 On ch=1 n=g#5 v=0
68592 On ch=1 n=d#5 v=60
68638 On ch=1 n=d#5 v=0
68640 On ch=1 n=c5 v=0
68640 On ch=1 n=f5 v=60
68640 On ch=1 n=g4 v=45
68686 On ch=1 n=f5 v=0
68688 Par ch=1 c=64 v=0
68688 On ch=1 n=f#5 v=60
68734 On ch=1 n=g4 v=0
68734 On ch=1 n=f#5 v=0
68736 Par ch=1 c=64 v=127
68736 On ch=1 n=g5 v=60
68784 On ch=1 n=a#5 v=60
68830 On ch=1 n=a#5 v=0
68832 On ch=1 n=b5 v=60
68832 On ch=1 n=c5 v=45
68878 On ch=1 n=b5 v=0
68880 Par ch=1 c=64 v=0
68880 On ch=1 n=c6 v=60
68896 On ch=1 n=g5 v=0
68926 On ch=1 n=c6 v=0
68928 On ch=1 n=c5 v=0
68928 Par ch=1 c=64 v=127
68928 On ch=1 n=d#6 v=60
68928 On ch=1 n=g5 v=45
68990 On ch=1 n=d#6 v=0
68992 On ch=1 n=g#5 v=60
69024 On ch=1 n=g5 v=0
69024 On ch=1 n=c5 v=45
69054 On ch=1 n=g#5 v=0
69056 On ch=1 n=c6 v=60
69072 Par ch=1 c=64 v=0
69118 On ch=1 n=c5 v=0
69118 On ch=1 n=c6 v=0
69120 Par ch=1 c=64 v=127
69120 On ch=1 n=g3 v=92
69184 On ch=1 n=g3 v=0
69184 On ch=1 n=d4 v=92
69216 On ch=1 n=g5 v=108
69216 On ch=1 n=g6 v=108
69216 On ch=1 n=b5 v=92
69248 On ch=1 n=d4 v=0
69248 On ch=1 n=f4 v=92
69264 Par ch=1 c=64 v=0
69310 On ch=1 n=f4 v=0
69312 On ch=1 n=g5 v=0
69312 On ch=1 n=g6 v=0
69312 Par ch=1 c=64 v=127
69312 On ch=1 n=f5 v=108
69312 On ch=1 n=f6 v=108
69312 On ch=1 n=g4 v=92
69376 On ch=1 n=b4 v=92
69408 On ch=1 n=f5 v=0
69408 On ch=1 n=f6 v=0
69408 On ch=1 n=g5 v=108
69408 On ch=1 n=g6 v=108
69438 On ch=1 n=b4 v=0
69440 On ch=1 n=f5 v=92
69456 Par ch=1 c=64 v=0
69472 On ch=1 n=b5 v=0
69472 On ch=1 n=g4 v=0
69502 On ch=1 n=g5 v=0
69502 On ch=1 n=g6 v=0
69502 On ch=1 n=f5 v=0
69504 Par ch=1 c=64 v=127
69504 On ch=1 n=g#5 v=108
69504 On ch=1 n=g#6 v=108
69504 On ch=1 n=c6 v=92
69504 On ch=1 n=g#4 v=92
69568 On ch=1 n=f5 v=92
69600 On ch=1 n=g#5 v=0
69600 On ch=1 n=g#6 v=0
69600 On ch=1 n=a#5 v=108
69600 On ch=1 n=a#6 v=108
69632 On ch=1 n=f5 v=0
69632 On ch=1 n=c5 v=92
69648 Par ch=1 c=64 v=0
69696 On ch=1 n=a#5 v=0
69696 On ch=1 n=a#6 v=0
69696 On ch=1 n=c5 v=0
69696 Par ch=1 c=64 v=127
69696 On ch=1 n=g5 v=108
69696 On ch=1 n=g6 v=108
69696 On ch=1 n=g#4 v=92
69760 On ch=1 n=g#4 v=0
69760 On ch=1 n=c5 v=92
69792 On ch=1 n=g5 v=0
69792 On ch=1 n=g6 v=0
69792 On ch=1 n=f5 v=108
69792 On ch=1 n=f6 v=108
69824 On ch=1 n=c5 v=0
69824 On ch=1 n=d4 v=92
69840 On ch=1 n=c6 v=0
69840 On ch=1 n=g#4 v=0
69840 Par ch=1 c=64 v=0
69886 On ch=1 n=f5 v=0
69886 On ch=1 n=f6 v=0
69886 On ch=1 n=d4 v=0
69888 Par ch=1 c=64 v=127
69888 On ch=1 n=g5 v=108
69888 On ch=1 n=g6 v=108
69888 On ch=1 n=b5 v=92
69888 On ch=1 n=g3 v=92
69952 On ch=1 n=g3 v=0
69952 On ch=1 n=d4 v=92
70016 On ch=1 n=d4 v=0
70016 On ch=1 n=f4 v=92
70032 Par ch=1 c=64 v=0
70078 On ch=1 n=f4 v=0
70080 Par ch=1 c=64 v=127
70080 On ch=1 n=g4 v=92
70144 On ch=1 n=b4 v=92
70206 On ch=1 n=b4 v=0
70208 On ch=1 n=f5 v=92
70224 On ch=1 n=g5 v=0
70224 On ch=1 n=g6 v=0
70224 On ch=1 n=b5 v=0
70224 Par ch=1 c=64 v=0
70240 On ch=1 n=g4 v=0
70270 On ch=1 n=f5 v=0
70272 Par ch=1 c=64 v=127
70272 On ch=1 n=g#4 v=92
70336 On ch=1 n=f5 v=92
70368 On ch=1 n=b5 v=92
70368 On ch=1 n=g#6 v=108
70368 On ch=1 n=g#5 v=108
70400 On ch=1 n=f5 v=0
70400 On ch=1 n=c5 v=92
70416 Par ch=1 c=64 v=0
70464 On ch=1 n=g#6 v=0
70464 On ch=1 n=g#5 v=0
70464 On ch=1 n=c5 v=0
70464 Par ch=1 c=64 v=127
70464 On ch=1 n=g5 v=108
70464 On ch=1 n=g6 v=108
70464 On ch=1 n=g#4 v=92
70528 On ch=1 n=g#4 v=0
70528 On ch=1 n=b4 v=92
70560 On ch=1 n=g5 v=0
70560 On ch=1 n=g6 v=0
70560 On ch=1 n=g#5 v=108
70560 On ch=1 n=g#6 v=108
70592 On ch=1 n=b4 v=0
70592 On ch=1 n=f4 v=92
70608 On ch=1 n=g#4 v=0
70608 Par ch=1 c=64 v=0
70624 On ch=1 n=b5 v=0
70654 On ch=1 n=f4 v=0
70656 On ch=1 n=g#5 v=0
70656 On ch=1 n=g#6 v=0
70656 Par ch=1 c=64 v=127
70656 On ch=1 n=a#5 v=108
70656 On ch=1 n=a#6 v=108
70656 On ch=1 n=d#6 v=92
70656 On ch=1 n=g#3 v=92
70720 On ch=1 n=g#3 v=0
70720 On ch=1 n=d#4 v=92
70750 On ch=1 n=a#5 v=0
70750 On ch=1 n=a#6 v=0
70752 On ch=1 n=a#5 v=109
70752 On ch=1 n=a#6 v=109
70784 On ch=1 n=d#4 v=0
70784 On ch=1 n=a#4 v=92
70800 Par ch=1 c=64 v=0
70846 On ch=1 n=a#4 v=0
70848 On ch=1 n=a#5 v=0
70848 On ch=1 n=a#6 v=0
70848 Par ch=1 c=64 v=127
70848 On ch=1 n=g#5 v=110
70848 On ch=1 n=g#6 v=110
70848 On ch=1 n=a#4 v=94
70912 On ch=1 n=d#5 v=92
70944 On ch=1 n=g#5 v=0
70944 On ch=1 n=g#6 v=0
70944 On ch=1 n=a#5 v=111
70944 On ch=1 n=a#6 v=111
70976 On ch=1 n=d#5 v=0
70976 On ch=1 n=g5 v=92
70992 On ch=1 n=d#6 v=0
70992 Par ch=1 c=64 v=0
71008 On ch=1 n=a#4 v=0
71038 On ch=1 n=g5 v=0
71040 On ch=1 n=a#5 v=0
71040 On ch=1 n=a#6 v=0
71040 Par ch=1 c=64 v=127
71040 On ch=1 n=a#5 v=112
71040 On ch=1 n=a#6 v=112
71040 On ch=1 n=d6 v=96
71040 On ch=1 n=b4 v=96
71104 On ch=1 n=g#5 v=92
71136 On ch=1 n=a#5 v=0
71136 On ch=1 n=a#6 v=0
71136 On ch=1 n=b5 v=113
71136 On ch=1 n=b6 v=113
71168 On ch=1 n=g#5 v=0
71168 On ch=1 n=f5 v=92
71184 Par ch=1 c=64 v=0
71232 On ch=1 n=b5 v=0
71232 On ch=1 n=b6 v=0
71232 On ch=1 n=f5 v=0
71232 Par ch=1 c=64 v=127
71232 On ch=1 n=g#5 v=114
71232 On ch=1 n=g#6 v=114
71232 On ch=1 n=a#4 v=93
71296 On ch=1 n=a#4 v=0
71296 On ch=1 n=f5 v=94
71328 On ch=1 n=g#5 v=0
71328 On ch=1 n=g#6 v=0
71328 On ch=1 n=g5 v=115
71328 On ch=1 n=g6 v=115
71360 On ch=1 n=f5 v=0
71360 On ch=1 n=f4 v=95
71376 On ch=1 n=d6 v=0
71376 On ch=1 n=b4 v=0
71376 Par ch=1 c=64 v=0
71422 On ch=1 n=g5 v=0
71422 On ch=1 n=g6 v=0
71422 On ch=1 n=f4 v=0
71424 Par ch=1 c=64 v=127
71424 On ch=1 n=a#5 v=116
71424 On ch=1 n=a#6 v=116
71424 On ch=1 n=d#6 v=100
71424 On ch=1 n=g#3 v=96
71488 On ch=1 n=g#3 v=0
71488 On ch=1 n=d#4 v=97
71552 On ch=1 n=d#4 v=0
71552 On ch=1 n=a#4 v=98
71568 Par ch=1 c=64 v=0
71614 On ch=1 n=a#4 v=0
71616 Par ch=1 c=64 v=127
71616 On ch=1 n=a#4 v=102
71680 On ch=1 n=d#5 v=100
71744 On ch=1 n=d#5 v=0
71744 On ch=1 n=g5 v=101
71760 On ch=1 n=a#5 v=0
71760 On ch=1 n=a#6 v=0
71760 On ch=1 n=d#6 v=0
71760 Par ch=1 c=64 v=0
71776 On ch=1 n=a#4 v=0
71806 On ch=1 n=g5 v=0
71808 Par ch=1 c=64 v=127
71808 On ch=1 n=c5 v=104
71872 On ch=1 n=g5 v=103
71904 On ch=1 n=c6 v=122
71904 On ch=1 n=c7 v=122
71904 On ch=1 n=d#6 v=105
71904 On ch=1 n=g6 v=105
71936 On ch=1 n=g5 v=0
71936 On ch=1 n=d#5 v=104
71952 Par ch=1 c=64 v=0
72000 On ch=1 n=c6 v=0
72000 On ch=1 n=c7 v=0
72000 On ch=1 n=d#5 v=0
72000 Par ch=1 c=64 v=127
72000 On ch=1 n=a5 v=123
72000 On ch=1 n=a6 v=123
72000 On ch=1 n=a4 v=105
72064 On ch=1 n=a4 v=0
72064 On ch=1 n=d#5 v=106
72096 On ch=1 n=a5 v=0
72096 On ch=1 n=a6 v=0
72096 On ch=1 n=c6 v=125
72096 On ch=1 n=c7 v=125
72128 On ch=1 n=d#5 v=0
72128 On ch=1 n=f4 v=107
72144 On ch=1 n=c5 v=0
72144 Par ch=1 c=64 v=0
72160 On ch=1 n=d#6 v=0
72160 On ch=1 n=g6 v=0
72190 On ch=1 n=c6 v=0
72190 On ch=1 n=c7 v=0
72190 On ch=1 n=f4 v=0
72192 Par ch=1 c=64 v=127
72192 On ch=1 n=d6 v=127
72192 On ch=1 n=d7 v=127
72192 On ch=1 n=g6 v=108
72192 On ch=1 n=b6 v=108
72192 On ch=1 n=g2 v=108
72256 On ch=1 n=g2 v=0
72256 On ch=1 n=g3 v=108
72288 On ch=1 n=d6 v=0
72288 On ch=1 n=d7 v=0
72288 On ch=1 n=b5 v=127
72288 On ch=1 n=b6 v=127
72320 On ch=1 n=g3 v=0
72320 On ch=1 n=d4 v=108
72336 Par ch=1 c=64 v=0
72384 On ch=1 n=b6 v=0
72384 On ch=1 n=b5 v=0
72384 On ch=1 n=d4 v=0
72384 Par ch=1 c=64 v=127
72384 On ch=1 n=d6 v=127
72384 On ch=1 n=d7 v=127
72384 On ch=1 n=b4 v=108
72448 On ch=1 n=b4 v=0
72448 On ch=1 n=d4 v=108
72480 On ch=1 n=d6 v=0
72480 On ch=1 n=d7 v=0
72480 On ch=1 n=e6 v=127
72480 On ch=1 n=e7 v=127
72512 On ch=1 n=d4 v=0
72512 On ch=1 n=d4 v=108
72528 On ch=1 n=g6 v=0
72528 On ch=1 n=b6 v=0
72528 Par ch=1 c=64 v=0
72574 On ch=1 n=d4 v=0
72576 On ch=1 n=e6 v=0
72576 On ch=1 n=e7 v=0
72576 Par ch=1 c=64 v=127
72576 On ch=1 n=e6 v=127
72576 On ch=1 n=e7 v=127
72576 On ch=1 n=a6 v=108
72576 On ch=1 n=f3 v=108
72576 On ch=1 n=d4 v=108
72640 On ch=1 n=f3 v=0
72640 On ch=1 n=d4 v=0
72640 On ch=1 n=a4 v=108
72672 On ch=1 n=e6 v=0
72672 On ch=1 n=e7 v=0
72672 On ch=1 n=f6 v=127
72672 On ch=1 n=f7 v=127
72704 On ch=1 n=a4 v=0
72704 On ch=1 n=b4 v=108
72720 Par ch=1 c=64 v=0
72768 On ch=1 n=f6 v=0
72768 On ch=1 n=f7 v=0
72768 Par ch=1 c=64 v=127
72768 On ch=1 n=d6 v=127
72768 On ch=1 n=d7 v=127
72768 On ch=1 n=a5 v=108
72832 On ch=1 n=b4 v=0
72832 On ch=1 n=a5 v=0
72832 On ch=1 n=d5 v=108
72864 On ch=1 n=d6 v=0
72864 On ch=1 n=d7 v=0
72864 On ch=1 n=b5 v=127
72864 On ch=1 n=b6 v=127
72896 On ch=1 n=d5 v=0
72896 On ch=1 n=b4 v=108
72912 On ch=1 n=a6 v=0
72912 Par ch=1 c=64 v=0
72958 On ch=1 n=b4 v=0
72960 On ch=1 n=b5 v=0
72960 On ch=1 n=b6 v=0
72960 Par ch=1 c=64 v=127
72960 On ch=1 n=e6 v=127
72960 On ch=1 n=e7 v=127
72960 On ch=1 n=g#6 v=108
72960 On ch=1 n=e3 v=108
72960 On ch=1 n=d4 v=108
73022 On ch=1 n=e3 v=0
73022 On ch=1 n=d4 v=0
73024 On ch=1 n=g#4 v=108
73086 On ch=1 n=g#4 v=0
73088 On ch=1 n=g#4 v=108
73104 Par ch=1 c=64 v=0
73120 On ch=1 n=e6 v=0
73120 On ch=1 n=e7 v=0
73152 Par ch=1 c=64 v=127
73152 On ch=1 n=b5 v=127
73152 On ch=1 n=b6 v=127
73152 On ch=1 n=g#5 v=108
73214 On ch=1 n=g#4 v=0
73214 On ch=1 n=g#5 v=0
73216 On ch=1 n=d5 v=108
73248 On ch=1 n=b5 v=0
73248 On ch=1 n=b6 v=0
73248 On ch=1 n=c6 v=127
73248 On ch=1 n=c7 v=127
73278 On ch=1 n=d5 v=0
73280 On ch=1 n=g#4 v=108
73296 On ch=1 n=g#6 v=0
73296 Par ch=1 c=64 v=0
73342 On ch=1 n=c6 v=0
73342 On ch=1 n=c7 v=0
73342 On ch=1 n=g#4 v=0
73344 Par ch=1 c=64 v=127
73344 On ch=1 n=d6 v=127
73344 On ch=1 n=d7 v=127
73344 On ch=1 n=g6 v=108
73344 On ch=1 n=a3 v=108
73406 On ch=1 n=a3 v=0
73408 On ch=1 n=g4 v=98
73440 On ch=1 n=d6 v=0
73440 On ch=1 n=d7 v=0
73440 On ch=1 n=d#6 v=111
73440 On ch=1 n=d#7 v=111
73470 On ch=1 n=g4 v=0
73472 On ch=1 n=c5 v=88
73488 Par ch=1 c=64 v=0
73534 On ch=1 n=c5 v=0
73536 On ch=1 n=d#6 v=0
73536 On ch=1 n=d#7 v=0
73536 Par ch=1 c=64 v=127
73536 On ch=1 n=c6 v=94
73536 On ch=1 n=c7 v=94
73536 On ch=1 n=d#5 v=78
73536 On ch=1 n=g5 v=78
73598 On ch=1 n=d#5 v=0
73598 On ch=1 n=g5 v=0
73600 On ch=1 n=c5 v=67
73632 On ch=1 n=c6 v=0
73632 On ch=1 n=c7 v=0
73632 On ch=1 n=a5 v=77
73632 On ch=1 n=a6 v=77
73662 On ch=1 n=c5 v=0
73664 On ch=1 n=g4 v=56
73680 On ch=1 n=g6 v=0
73680 Par ch=1 c=64 v=0
73726 On ch=1 n=g4 v=0
73728 On ch=1 n=a5 v=0
73728 On ch=1 n=a6 v=0
73728 Par ch=1 c=64 v=127
73728 On ch=1 n=d6 v=60
73728 On ch=1 n=f#6 v=60
73728 On ch=1 n=d7 v=60
73728 On ch=1 n=d3 v=45
73792 On ch=1 n=d3 v=0
73792 On ch=1 n=d4 v=45
73822 On ch=1 n=d6 v=0
73822 On ch=1 n=f#6 v=0
73822 On ch=1 n=d7 v=0
73854 On ch=1 n=d4 v=0
73856 On ch=1 n=d4 v=45
73872 Par ch=1 c=64 v=0
73918 On ch=1 n=d4 v=0
73920 Par ch=1 c=64 v=127
73920 On ch=1 n=d5 v=60
73920 On ch=1 n=d5 v=45
73968 On ch=1 n=d5 v=0
73968 On ch=1 n=c5 v=45
74016 On ch=1 n=d5 v=0
74016 On ch=1 n=c5 v=0
74016 On ch=1 n=e5 v=60
74016 On ch=1 n=b4 v=45
74064 On ch=1 n=b4 v=0
74064 Par ch=1 c=64 v=0
74064 On ch=1 n=c5 v=45
74110 On ch=1 n=e5 v=0
74112 On ch=1 n=c5 v=0
74112 Par ch=1 c=64 v=127
74112 On ch=1 n=c5 v=60
74112 On ch=1 n=c6 v=60
74112 On ch=1 n=e5 v=60
74112 On ch=1 n=b4 v=45
74160 On ch=1 n=b4 v=0
74160 On ch=1 n=a4 v=45
74208 On ch=1 n=a4 v=0
74208 On ch=1 n=e4 v=45
74256 On ch=1 n=e4 v=0
74256 Par ch=1 c=64 v=0
74256 On ch=1 n=a4 v=45
74272 On ch=1 n=e5 v=0
74304 On ch=1 n=a4 v=0
74304 Par ch=1 c=64 v=127
74304 On ch=1 n=f#5 v=60
74304 On ch=1 n=e4 v=45
74352 On ch=1 n=e4 v=0
74352 On ch=1 n=d4 v=45
74400 On ch=1 n=f#5 v=0
74400 On ch=1 n=d4 v=0
74400 On ch=1 n=g5 v=60
74400 On ch=1 n=a3 v=45
74448 On ch=1 n=a3 v=0
74448 Par ch=1 c=64 v=0
74448 On ch=1 n=d4 v=45
74494 On ch=1 n=g5 v=0
74496 On ch=1 n=d4 v=0
74496 Par ch=1 c=64 v=127
74496 On ch=1 n=g5 v=60
74496 On ch=1 n=a3 v=45
74544 On ch=1 n=a3 v=0
74544 On ch=1 n=d3 v=45
74590 On ch=1 n=d3 v=0
74592 On ch=1 n=g5 v=0
74592 On ch=1 n=a5 v=60
74640 Par ch=1 c=64 v=0
74640 On ch=1 n=a4 v=45
74688 On ch=1 n=a5 v=0
74688 On ch=1 n=a4 v=0
74688 Par ch=1 c=64 v=127
74688 On ch=1 n=f#5 v=60
74688 On ch=1 n=f#5 v=45
74736 On ch=1 n=f#5 v=0
74736 On ch=1 n=e5 v=45
74784 On ch=1 n=f#5 v=0
74784 On ch=1 n=e5 v=0
74784 On ch=1 n=g5 v=67
74784 On ch=1 n=d5 v=45
74832 On ch=1 n=c5 v=0
74832 On ch=1 n=c6 v=0
74832 On ch=1 n=d5 v=0
74832 Par ch=1 c=64 v=0
74832 On ch=1 n=e5 v=45
74878 On ch=1 n=g5 v=0
74880 On ch=1 n=e5 v=0
74880 Par ch=1 c=64 v=127
74880 On ch=1 n=e5 v=75
74880 On ch=1 n=e6 v=75
74880 On ch=1 n=g5 v=75
74880 On ch=1 n=d5 v=45
74928 On ch=1 n=d5 v=0
74928 On ch=1 n=c5 v=45
74976 On ch=1 n=c5 v=0
74976 On ch=1 n=g4 v=45
75024 On ch=1 n=g4 v=0
75024 Par ch=1 c=64 v=0
75024 On ch=1 n=c5 v=45
75072 On ch=1 n=g5 v=0
75072 On ch=1 n=c5 v=0
75072 Par ch=1 c=64 v=127
75072 On ch=1 n=a5 v=60
75072 On ch=1 n=a4 v=45
75120 On ch=1 n=a4 v=0
75120 On ch=1 n=g4 v=45
75168 On ch=1 n=a5 v=0
75168 On ch=1 n=g4 v=0
75168 On ch=1 n=b5 v=60
75168 On ch=1 n=d4 v=45
75216 On ch=1 n=d4 v=0
75216 Par ch=1 c=64 v=0
75216 On ch=1 n=g4 v=45
75262 On ch=1 n=b5 v=0
75264 On ch=1 n=g4 v=0
75264 Par ch=1 c=64 v=127
75264 On ch=1 n=b5 v=60
75264 On ch=1 n=d4 v=45
75312 On ch=1 n=d4 v=0
75312 On ch=1 n=d3 v=45
75358 On ch=1 n=d3 v=0
75360 On ch=1 n=b5 v=0
75360 On ch=1 n=c6 v=60
75408 Par ch=1 c=64 v=0
75408 On ch=1 n=a4 v=45
75456 On ch=1 n=c6 v=0
75456 On ch=1 n=a4 v=0
75456 Par ch=1 c=64 v=127
75456 On ch=1 n=a5 v=60
75456 On ch=1 n=g5 v=45
75504 On ch=1 n=g5 v=0
75504 On ch=1 n=f#5 v=45
75552 On ch=1 n=a5 v=0
75552 On ch=1 n=f#5 v=0
75552 On ch=1 n=b5 v=67
75552 On ch=1 n=e5 v=45
75600 On ch=1 n=e5 v=0
75600 On ch=1 n=e6 v=0
75600 On ch=1 n=e5 v=0
75600 Par ch=1 c=64 v=0
75600 On ch=1 n=f#5 v=45
75646 On ch=1 n=b5 v=0
75648 On ch=1 n=f#5 v=0
75648 Par ch=1 c=64 v=127
75648 On ch=1 n=g5 v=75
75648 On ch=1 n=g6 v=75
75648 On ch=1 n=b5 v=75
75648 On ch=1 n=e5 v=45
75696 On ch=1 n=e5 v=0
75696 On ch=1 n=d5 v=45
75744 On ch=1 n=d5 v=0
75744 On ch=1 n=b4 v=45
75792 On ch=1 n=b4 v=0
75792 Par ch=1 c=64 v=0
75792 On ch=1 n=d5 v=45
75840 On ch=1 n=b5 v=0
75840 On ch=1 n=d5 v=0
75840 Par ch=1 c=64 v=127
75840 On ch=1 n=c6 v=60
75840 On ch=1 n=a4 v=45
75888 On ch=1 n=a4 v=0
75888 On ch=1 n=g4 v=45
75936 On ch=1 n=c6 v=0
75936 On ch=1 n=g4 v=0
75936 On ch=1 n=d6 v=60
75936 On ch=1 n=e4 v=45
75984 On ch=1 n=e4 v=0
75984 Par ch=1 c=64 v=0
75984 On ch=1 n=g4 v=45
76030 On ch=1 n=d6 v=0
76032 On ch=1 n=g4 v=0
76032 Par ch=1 c=64 v=127
76032 On ch=1 n=d6 v=60
76032 On ch=1 n=e4 v=45
76080 On ch=1 n=e4 v=0
76080 On ch=1 n=d3 v=45
76126 On ch=1 n=d3 v=0
76128 On ch=1 n=d6 v=0
76128 On ch=1 n=e6 v=60
76176 Par ch=1 c=64 v=0
76176 On ch=1 n=a4 v=45
76224 On ch=1 n=e6 v=0
76224 On ch=1 n=a4 v=0
76224 Par ch=1 c=64 v=127
76224 On ch=1 n=c6 v=60
76224 On ch=1 n=a5 v=45
76272 On ch=1 n=a5 v=0
76272 On ch=1 n=g5 v=45
76320 On ch=1 n=g5 v=0
76320 On ch=1 n=c6 v=0
76320 On ch=1 n=d6 v=67
76320 On ch=1 n=f#5 v=45
76368 On ch=1 n=f#5 v=0
76368 Par ch=1 c=64 v=0
76368 On ch=1 n=e5 v=45
76414 On ch=1 n=d6 v=0
76416 On ch=1 n=e5 v=0
76416 Par ch=1 c=64 v=127
76416 On ch=1 n=d6 v=75
76416 On ch=1 n=d5 v=45
76464 On ch=1 n=d5 v=0
76464 On ch=1 n=e5 v=45
76512 On ch=1 n=d6 v=0
76512 On ch=1 n=e5 v=0
76512 On ch=1 n=e6 v=75
76512 On ch=1 n=c5 v=45
76560 On ch=1 n=c5 v=0
76560 Par ch=1 c=64 v=0
76560 On ch=1 n=a4 v=45
76576 On ch=1 n=g6 v=0
76576 On ch=1 n=g5 v=0
76606 On ch=1 n=e6 v=0
76608 On ch=1 n=a4 v=0
76608 Par ch=1 c=64 v=127
76608 On ch=1 n=a5 v=75
76608 On ch=1 n=a6 v=75
76608 On ch=1 n=e6 v=75
76608 On ch=1 n=g4 v=45
76656 On ch=1 n=g4 v=0
76656 On ch=1 n=a4 v=45
76704 On ch=1 n=e6 v=0
76704 On ch=1 n=a4 v=0
76704 On ch=1 n=f#6 v=68
76704 On ch=1 n=f#4 v=45
76752 On ch=1 n=f#4 v=0
76752 Par ch=1 c=64 v=0
76752 On ch=1 n=e4 v=45
76768 On ch=1 n=a5 v=0
76768 On ch=1 n=a6 v=0
76798 On ch=1 n=f#6 v=0
76800 On ch=1 n=e4 v=0
76800 Par ch=1 c=64 v=127
76800 On ch=1 n=a5 v=60
76800 On ch=1 n=b5 v=60
76800 On ch=1 n=f#6 v=60
76800 On ch=1 n=b6 v=60
76800 On ch=1 n=d#4 v=45
76848 On ch=1 n=d#4 v=0
76848 On ch=1 n=b3 v=45
76896 On ch=1 n=b3 v=0
76896 On ch=1 n=f#3 v=45
76944 On ch=1 n=f#3 v=0
76944 Par ch=1 c=64 v=0
76944 On ch=1 n=b2 v=45
76960 On ch=1 n=a5 v=0
76960 On ch=1 n=b5 v=0
76960 On ch=1 n=f#6 v=0
76960 On ch=1 n=b6 v=0
76990 On ch=1 n=b2 v=0
76992 Par ch=1 c=64 v=127
76992 On ch=1 n=b4 v=60
76992 On ch=1 n=b5 v=60
76992 On ch=1 n=d#5 v=60
76992 On ch=1 n=b4 v=45
77040 On ch=1 n=b4 v=0
77040 On ch=1 n=a4 v=45
77088 On ch=1 n=d#5 v=0
77088 On ch=1 n=a4 v=0
77088 On ch=1 n=e5 v=60
77088 On ch=1 n=g#4 v=45
77136 On ch=1 n=g#4 v=0
77136 Par ch=1 c=64 v=0
77136 On ch=1 n=a4 v=45
77152 On ch=1 n=b5 v=0
77152 On ch=1 n=b4 v=0
77184 On ch=1 n=e5 v=0
77184 On ch=1 n=a4 v=0
77184 Par ch=1 c=64 v=127
77184 On ch=1 n=c#5 v=75
77184 On ch=1 n=c#6 v=75
77184 On ch=1 n=e5 v=60
77184 On ch=1 n=g#4 v=45
77232 On ch=1 n=g#4 v=0
77232 On ch=1 n=b4 v=45
77280 On ch=1 n=b4 v=0
77280 On ch=1 n=a4 v=45
77328 On ch=1 n=a4 v=0
77328 Par ch=1 c=64 v=0
77328 On ch=1 n=g#4 v=45
77344 On ch=1 n=e5 v=0
77376 On ch=1 n=g#4 v=0
77376 Par ch=1 c=64 v=127
77376 On ch=1 n=f#5 v=60
77376 On ch=1 n=f#4 v=45
77424 On ch=1 n=f#4 v=0
77424 On ch=1 n=g#4 v=45
77472 On ch=1 n=f#5 v=0
77472 On ch=1 n=g#4 v=0
77472 On ch=1 n=g#5 v=60
77472 On ch=1 n=f#4 v=45
77520 On ch=1 n=f#4 v=0
77520 Par ch=1 c=64 v=0
77520 On ch=1 n=e4 v=45
77566 On ch=1 n=g#5 v=0
77568 On ch=1 n=e4 v=0
77568 Par ch=1 c=64 v=127
77568 On ch=1 n=g#5 v=60
77568 On ch=1 n=b3 v=45
77616 On ch=1 n=b3 v=0
77616 On ch=1 n=b2 v=45
77662 On ch=1 n=b2 v=0
77664 On ch=1 n=g#5 v=0
77664 On ch=1 n=a5 v=60
77712 Par ch=1 c=64 v=0
77712 On ch=1 n=f#4 v=45
77728 On ch=1 n=c#5 v=0
77728 On ch=1 n=c#6 v=0
77758 On ch=1 n=a5 v=0
77760 On ch=1 n=f#4 v=0
77760 Par ch=1 c=64 v=127
77760 On ch=1 n=d#5 v=75
77760 On ch=1 n=d#6 v=75
77760 On ch=1 n=f#5 v=60
77760 On ch=1 n=d#5 v=45
77808 On ch=1 n=d#5 v=0
77808 On ch=1 n=c#5 v=45
77856 On ch=1 n=f#5 v=0
77856 On ch=1 n=c#5 v=0
77856 On ch=1 n=g#5 v=67
77856 On ch=1 n=b4 v=45
77904 On ch=1 n=b4 v=0
77904 Par ch=1 c=64 v=0
77904 On ch=1 n=c#5 v=45
77920 On ch=1 n=d#6 v=0
77920 On ch=1 n=d#5 v=0
77950 On ch=1 n=g#5 v=0
77952 On ch=1 n=c#5 v=0
77952 Par ch=1 c=64 v=127
77952 On ch=1 n=e5 v=75
77952 On ch=1 n=e6 v=75
77952 On ch=1 n=g#5 v=75
77952 On ch=1 n=b4 v=45
78000 On ch=1 n=b4 v=0
78000 On ch=1 n=d#5 v=45
78048 On ch=1 n=d#5 v=0
78048 On ch=1 n=c#5 v=45
78096 On ch=1 n=c#5 v=0
78096 Par ch=1 c=64 v=0
78096 On ch=1 n=b4 v=45
78144 On ch=1 n=g#5 v=0
78144 On ch=1 n=b4 v=0
78144 Par ch=1 c=64 v=127
78144 On ch=1 n=a5 v=60
78144 On ch=1 n=a4 v=45
78192 On ch=1 n=a4 v=0
78192 On ch=1 n=b4 v=45
78240 On ch=1 n=a5 v=0
78240 On ch=1 n=b4 v=0
78240 On ch=1 n=b5 v=60
78240 On ch=1 n=a4 v=45
78288 On ch=1 n=a4 v=0
78288 Par ch=1 c=64 v=0
78288 On ch=1 n=g#4 v=45
78334 On ch=1 n=b5 v=0
78336 On ch=1 n=g#4 v=0
78336 Par ch=1 c=64 v=127
78336 On ch=1 n=c#4 v=45
78336 On ch=1 n=b5 v=60
78384 On ch=1 n=c#4 v=0
78384 On ch=1 n=b2 v=45
78430 On ch=1 n=b2 v=0
78432 On ch=1 n=b5 v=0
78432 On ch=1 n=c#6 v=60
78480 Par ch=1 c=64 v=0
78480 On ch=1 n=a4 v=45
78496 On ch=1 n=e5 v=0
78496 On ch=1 n=e6 v=0
78526 On ch=1 n=c#6 v=0
78528 On ch=1 n=a4 v=0
78528 Par ch=1 c=64 v=127
78528 On ch=1 n=a5 v=60
78528 On ch=1 n=f#5 v=45
78528 On ch=1 n=f#6 v=75
78528 On ch=1 n=f#5 v=75
78576 On ch=1 n=f#5 v=0
78576 On ch=1 n=e5 v=45
78624 On ch=1 n=a5 v=0
78624 On ch=1 n=e5 v=0
78624 On ch=1 n=b5 v=67
78624 On ch=1 n=d#5 v=45
78672 On ch=1 n=d#5 v=0
78672 Par ch=1 c=64 v=0
78672 On ch=1 n=e5 v=45
78688 On ch=1 n=f#6 v=0
78688 On ch=1 n=f#5 v=0
78718 On ch=1 n=b5 v=0
78720 On ch=1 n=e5 v=0
78720 Par ch=1 c=64 v=127
78720 On ch=1 n=g#5 v=75
78720 On ch=1 n=g#6 v=75
78720 On ch=1 n=b5 v=75
78720 On ch=1 n=d#5 v=45
78768 On ch=1 n=d#5 v=0
78768 On ch=1 n=f#5 v=45
78816 On ch=1 n=f#5 v=0
78816 On ch=1 n=e5 v=45
78864 On ch=1 n=e5 v=0
78864 Par ch=1 c=64 v=0
78864 On ch=1 n=d#5 v=45
78880 On ch=1 n=b5 v=0
78912 On ch=1 n=d#5 v=0
78912 Par ch=1 c=64 v=127
78912 On ch=1 n=c#6 v=60
78912 On ch=1 n=c#5 v=45
78960 On ch=1 n=c#5 v=0
78960 On ch=1 n=d#5 v=45
79008 On ch=1 n=c#6 v=0
79008 On ch=1 n=d#5 v=0
79008 On ch=1 n=d#6 v=60
79008 On ch=1 n=c#5 v=45
79056 On ch=1 n=c#5 v=0
79056 Par ch=1 c=64 v=0
79056 On ch=1 n=b4 v=45
79102 On ch=1 n=d#6 v=0
79104 On ch=1 n=b4 v=0
79104 Par ch=1 c=64 v=127
79104 On ch=1 n=d#6 v=60
79104 On ch=1 n=e4 v=45
79152 On ch=1 n=e4 v=0
79152 On ch=1 n=b3 v=45
79198 On ch=1 n=b3 v=0
79200 On ch=1 n=d#6 v=0
79200 On ch=1 n=e6 v=60
79248 Par ch=1 c=64 v=0
79248 On ch=1 n=a4 v=45
79264 On ch=1 n=g#5 v=0
79264 On ch=1 n=g#6 v=0
79294 On ch=1 n=e6 v=0
79296 On ch=1 n=a4 v=0
79296 Par ch=1 c=64 v=127
79296 On ch=1 n=a5 v=75
79296 On ch=1 n=a6 v=75
79296 On ch=1 n=c#6 v=60
79296 On ch=1 n=a5 v=45
79344 On ch=1 n=a5 v=0
79344 On ch=1 n=g#5 v=45
79392 On ch=1 n=c#6 v=0
79392 On ch=1 n=g#5 v=0
79392 On ch=1 n=d#6 v=65
79392 On ch=1 n=f#5 v=45
79440 On ch=1 n=f#5 v=0
79440 Par ch=1 c=64 v=0
79440 On ch=1 n=d#5 v=45
79488 On ch=1 n=d#6 v=0
79488 On ch=1 n=d#5 v=0
79488 Par ch=1 c=64 v=127
79488 On ch=1 n=e6 v=70
79488 On ch=1 n=c#5 v=45
79536 On ch=1 n=c#5 v=0
79536 On ch=1 n=b4 v=45
79584 On ch=1 n=e6 v=0
79584 On ch=1 n=b4 v=0
79584 On ch=1 n=f#6 v=75
79584 On ch=1 n=a4 v=45
79632 On ch=1 n=a6 v=0
79632 On ch=1 n=a5 v=0
79632 On ch=1 n=a4 v=0
79632 Par ch=1 c=64 v=0
79632 On ch=1 n=f#4 v=45
79678 On ch=1 n=f#6 v=0
79680 On ch=1 n=f#4 v=0
79680 Par ch=1 c=64 v=127
79680 On ch=1 n=b5 v=75
79680 On ch=1 n=b6 v=75
79680 On ch=1 n=d#6 v=75
79680 On ch=1 n=d#4 v=45
79728 On ch=1 n=d#4 v=0
79728 On ch=1 n=c#4 v=45
79776 On ch=1 n=d#6 v=0
79776 On ch=1 n=c#4 v=0
79776 On ch=1 n=e6 v=68
79776 On ch=1 n=b3 v=45
79822 On ch=1 n=b5 v=0
79822 On ch=1 n=b6 v=0
79824 On ch=1 n=b3 v=0
79824 Par ch=1 c=64 v=0
79824 On ch=1 n=a6 v=60
79824 On ch=1 n=a3 v=45
79870 On ch=1 n=e6 v=0
79870 On ch=1 n=a3 v=0
79872 Par ch=1 c=64 v=127
79872 On ch=1 n=c#6 v=60
79872 On ch=1 n=c#7 v=60
79872 On ch=1 n=a2 v=45
79920 On ch=1 n=a2 v=0
79920 On ch=1 n=a3 v=45
79968 On ch=1 n=a3 v=0
79968 On ch=1 n=e4 v=45
80016 On ch=1 n=e4 v=0
80016 Par ch=1 c=64 v=0
80016 On ch=1 n=a4 v=45
80064 On ch=1 n=a4 v=0
80064 Par ch=1 c=64 v=127
80064 On ch=1 n=c#5 v=60
80064 On ch=1 n=c#5 v=45
80112 On ch=1 n=c#5 v=0
80112 On ch=1 n=b4 v=46
80160 On ch=1 n=c#5 v=0
80160 On ch=1 n=b4 v=0
80160 On ch=1 n=d#5 v=63
80160 On ch=1 n=a4 v=47
80208 On ch=1 n=a4 v=0
80208 Par ch=1 c=64 v=0
80208 On ch=1 n=g#4 v=48
80254 On ch=1 n=d#5 v=0
80256 On ch=1 n=g#4 v=0
80256 Par ch=1 c=64 v=127
80256 On ch=1 n=e5 v=66
80256 On ch=1 n=c#5 v=60
80256 On ch=1 n=c#6 v=60
80256 On ch=1 n=g#4 v=49
80304 On ch=1 n=g#4 v=0
80304 On ch=1 n=a4 v=50
80352 On ch=1 n=a4 v=0
80352 On ch=1 n=f#4 v=51
80400 On ch=1 n=f#4 v=0
80400 Par ch=1 c=64 v=0
80400 On ch=1 n=e4 v=52
80448 On ch=1 n=e5 v=0
80448 On ch=1 n=e4 v=0
80448 Par ch=1 c=64 v=127
80448 On ch=1 n=f#5 v=73
80448 On ch=1 n=c#4 v=53
80496 On ch=1 n=c#4 v=0
80496 On ch=1 n=e4 v=54
80544 On ch=1 n=f#5 v=0
80544 On ch=1 n=e4 v=0
80544 On ch=1 n=g#5 v=76
80544 On ch=1 n=c#4 v=56
80592 On ch=1 n=a6 v=0
80592 On ch=1 n=c#6 v=0
80592 On ch=1 n=c#7 v=0
80592 On ch=1 n=c#5 v=0
80592 On ch=1 n=c#6 v=0
80592 On ch=1 n=c#4 v=0
80592 Par ch=1 c=64 v=0
80592 On ch=1 n=a3 v=58
80638 On ch=1 n=g#5 v=0
80638 On ch=1 n=a3 v=0
80640 Par ch=1 c=64 v=127
80640 On ch=1 n=d5 v=75
80640 On ch=1 n=d6 v=75
80640 On ch=1 n=g#5 v=79
80640 On ch=1 n=f#3 v=60
80688 On ch=1 n=f#3 v=0
80688 On ch=1 n=d4 v=62
80736 On ch=1 n=g#5 v=0
80736 On ch=1 n=d4 v=0
80736 On ch=1 n=a5 v=82
80736 On ch=1 n=a4 v=64
80784 On ch=1 n=a4 v=0
80784 Par ch=1 c=64 v=0
80784 On ch=1 n=d4 v=66
80832 On ch=1 n=a5 v=0
80832 On ch=1 n=d4 v=0
80832 Par ch=1 c=64 v=127
80832 On ch=1 n=f#5 v=85
80832 On ch=1 n=a4 v=68
80880 On ch=1 n=a4 v=0
80880 On ch=1 n=d5 v=70
80926 On ch=1 n=d5 v=0
80928 On ch=1 n=f#5 v=0
80928 On ch=1 n=g#5 v=88
80976 On ch=1 n=d6 v=0
80976 On ch=1 n=d5 v=0
80976 Par ch=1 c=64 v=0
80976 On ch=1 n=a4 v=74
81022 On ch=1 n=g#5 v=0
81024 On ch=1 n=a4 v=0
81024 Par ch=1 c=64 v=127
81024 On ch=1 n=f#5 v=75
81024 On ch=1 n=f#6 v=75
81024 On ch=1 n=a5 v=92
81024 On ch=1 n=d5 v=76
81072 On ch=1 n=d5 v=0
81072 On ch=1 n=a4 v=78
81120 On ch=1 n=a4 v=0
81120 On ch=1 n=d4 v=80
81168 On ch=1 n=d4 v=0
81168 Par ch=1 c=64 v=0
81168 On ch=1 n=a4 v=82
81216 On ch=1 n=a5 v=0
81216 On ch=1 n=a4 v=0
81216 Par ch=1 c=64 v=127
81216 On ch=1 n=b5 v=100
81216 On ch=1 n=d4 v=84
81264 On ch=1 n=d4 v=0
81264 On ch=1 n=f#3 v=86
81312 On ch=1 n=b5 v=0
81312 On ch=1 n=f#3 v=0
81312 On ch=1 n=c#6 v=104
81312 On ch=1 n=d4 v=88
81360 On ch=1 n=f#5 v=0
81360 On ch=1 n=f#6 v=0
81360 On ch=1 n=d4 v=0
81360 Par ch=1 c=64 v=0
81360 On ch=1 n=f#3 v=90
81406 On ch=1 n=c#6 v=0
81406 On ch=1 n=f#3 v=0
81408 Par ch=1 c=64 v=127
81408 On ch=1 n=a5 v=108
81408 On ch=1 n=a6 v=108
81408 On ch=1 n=c#6 v=108
81408 On ch=1 n=b2 v=92
81456 On ch=1 n=b2 v=0
81456 On ch=1 n=f#3 v=92
81504 On ch=1 n=c#6 v=0
81504 On ch=1 n=f#3 v=0
81504 On ch=1 n=d6 v=108
81504 On ch=1 n=d4 v=92
81552 On ch=1 n=d4 v=0
81552 Par ch=1 c=64 v=0
81552 On ch=1 n=b3 v=92
81600 On ch=1 n=d6 v=0
81600 On ch=1 n=b3 v=0
81600 Par ch=1 c=64 v=127
81600 On ch=1 n=b5 v=108
81600 On ch=1 n=f#4 v=92
81648 On ch=1 n=f#4 v=0
81648 On ch=1 n=d5 v=92
81694 On ch=1 n=d5 v=0
81696 On ch=1 n=b5 v=0
81696 On ch=1 n=c#6 v=108
81744 On ch=1 n=a5 v=0
81744 On ch=1 n=a6 v=0
81744 Par ch=1 c=64 v=0
81744 On ch=1 n=f#4 v=92
81790 On ch=1 n=c#6 v=0
81792 On ch=1 n=f#4 v=0
81792 Par ch=1 c=64 v=127
81792 On ch=1 n=b5 v=108
81792 On ch=1 n=b6 v=108
81792 On ch=1 n=d6 v=108
81792 On ch=1 n=d5 v=92
81840 On ch=1 n=d5 v=0
81840 On ch=1 n=f#5 v=92
81888 On ch=1 n=f#5 v=0
81888 On ch=1 n=d5 v=92
81936 On ch=1 n=d5 v=0
81936 Par ch=1 c=64 v=0
81936 On ch=1 n=f#4 v=92
81982 On ch=1 n=f#4 v=0
81984 On ch=1 n=d6 v=0
81984 Par ch=1 c=64 v=127
81984 On ch=1 n=e6 v=108
81984 On ch=1 n=f#4 v=92
82032 On ch=1 n=f#4 v=0
82032 On ch=1 n=d5 v=92
82080 On ch=1 n=e6 v=0
82080 On ch=1 n=d5 v=0
82080 On ch=1 n=f#6 v=108
82080 On ch=1 n=f#4 v=92
82128 On ch=1 n=b5 v=0
82128 On ch=1 n=b6 v=0
82128 On ch=1 n=f#4 v=0
82128 Par ch=1 c=64 v=0
82128 On ch=1 n=b3 v=92
82174 On ch=1 n=f#6 v=0
82174 On ch=1 n=b3 v=0
82176 Par ch=1 c=64 v=127
82176 On ch=1 n=c#6 v=108
82176 On ch=1 n=c#7 v=108
82176 On ch=1 n=f#6 v=108
82176 On ch=1 n=a2 v=92
82224 On ch=1 n=a2 v=0
82224 On ch=1 n=a3 v=92
82270 On ch=1 n=a3 v=0
82272 On ch=1 n=f#6 v=0
82272 On ch=1 n=g#6 v=108
82272 On ch=1 n=c#4 v=92
82320 On ch=1 n=c#4 v=0
82320 On ch=1 n=c#5 v=92
82366 On ch=1 n=c#5 v=0
82368 On ch=1 n=g#6 v=0
82368 On ch=1 n=f6 v=108
82416 On ch=1 n=c#5 v=92
82464 On ch=1 n=f6 v=0
82464 On ch=1 n=c#5 v=0
82464 On ch=1 n=f#6 v=108
82464 On ch=1 n=c#4 v=92
82512 On ch=1 n=c#6 v=0
82512 On ch=1 n=c#7 v=0
82512 On ch=1 n=c#4 v=0
82512 Par ch=1 c=64 v=0
82512 On ch=1 n=a3 v=92
82558 On ch=1 n=f#6 v=0
82558 On ch=1 n=a3 v=0
82560 Par ch=1 c=64 v=127
82560 On ch=1 n=d#6 v=108
82560 On ch=1 n=d#7 v=108
82560 On ch=1 n=a6 v=108
82560 On ch=1 n=f#2 v=92
82608 On ch=1 n=f#2 v=0
82608 On ch=1 n=f#3 v=92
82656 On ch=1 n=a6 v=0
82656 On ch=1 n=f#3 v=0
82656 On ch=1 n=b6 v=108
82656 On ch=1 n=c#4 v=92
82704 On ch=1 n=c#4 v=0
82704 On ch=1 n=d#4 v=92
82752 On ch=1 n=b6 v=0
82752 On ch=1 n=d#4 v=0
82752 On ch=1 n=c6 v=108
82752 On ch=1 n=c7 v=108
82752 On ch=1 n=a4 v=92
82800 On ch=1 n=a4 v=0
82800 On ch=1 n=c#5 v=92
82848 On ch=1 n=c6 v=0
82848 On ch=1 n=c7 v=0
82848 On ch=1 n=c#6 v=108
82848 On ch=1 n=c#7 v=108
82848 On ch=1 n=a5 v=92
82894 On ch=1 n=c#5 v=0
82896 On ch=1 n=d#6 v=0
82896 On ch=1 n=d#7 v=0
82896 On ch=1 n=a5 v=0
82896 Par ch=1 c=64 v=0
82896 On ch=1 n=d#5 v=92
82942 On ch=1 n=d#5 v=0
82944 On ch=1 n=c#6 v=0
82944 On ch=1 n=c#7 v=0
82944 Par ch=1 c=64 v=127
82944 On ch=1 n=f5 v=108
82980 On ch=1 n=f5 v=0
82980 On ch=1 n=c#6 v=108
83016 On ch=1 n=c#6 v=0
83016 On ch=1 n=f6 v=108
83052 On ch=1 n=f6 v=0
83052 On ch=1 n=f6 v=108
83088 On ch=1 n=f6 v=0
83088 On ch=1 n=c#7 v=108
83124 On ch=1 n=c#7 v=0
83124 On ch=1 n=f7 v=108
83160 On ch=1 n=f7 v=0
83160 On ch=1 n=c#7 v=108
83184 On ch=1 n=c#7 v=0
83184 Par ch=1 c=64 v=0
83184 On ch=1 n=c#8 v=127
83184 On ch=1 n=c#2 v=127
83230 On ch=1 n=c#2 v=0
83232 On ch=1 n=c#3 v=127
83278 On ch=1 n=c#3 v=0
83280 On ch=1 n=f4 v=108
83280 On ch=1 n=g#3 v=92
83302 On ch=1 n=f4 v=0
83302 On ch=1 n=g#3 v=0
83304 On ch=1 n=g#4 v=108
83304 On ch=1 n=c#4 v=92
83326 On ch=1 n=g#4 v=0
83326 On ch=1 n=c#4 v=0
83328 On ch=1 n=c#5 v=108
83328 On ch=1 n=f4 v=92
83342 On ch=1 n=c#5 v=0
83342 On ch=1 n=f4 v=0
83344 On ch=1 n=f5 v=108
83344 On ch=1 n=g#4 v=92
83358 On ch=1 n=f5 v=0
83358 On ch=1 n=g#4 v=0
83360 On ch=1 n=g#5 v=108
83360 On ch=1 n=b4 v=92
83374 On ch=1 n=g#5 v=0
83374 On ch=1 n=b4 v=0
83376 On ch=1 n=a5 v=108
83376 On ch=1 n=c5 v=92
83390 On ch=1 n=a5 v=0
83390 On ch=1 n=c5 v=0
83392 On ch=1 n=g#5 v=108
83392 On ch=1 n=c#5 v=92
83406 On ch=1 n=g#5 v=0
83406 On ch=1 n=c#5 v=0
83408 On ch=1 n=f5 v=108
83408 On ch=1 n=g#4 v=92
83422 On ch=1 n=f5 v=0
83422 On ch=1 n=g#4 v=0
83424 On ch=1 n=g#5 v=108
83424 On ch=1 n=c#5 v=92
83438 On ch=1 n=g#5 v=0
83438 On ch=1 n=c#5 v=0
83440 On ch=1 n=c#6 v=108
83440 On ch=1 n=f5 v=92
83454 On ch=1 n=c#6 v=0
83454 On ch=1 n=f5 v=0
83456 On ch=1 n=f6 v=108
83456 On ch=1 n=g#5 v=92
83470 On ch=1 n=f6 v=0
83470 On ch=1 n=g#5 v=0
83472 On ch=1 n=g#6 v=108
83472 On ch=1 n=b5 v=92
83486 On ch=1 n=g#6 v=0
83486 On ch=1 n=b5 v=0
83488 On ch=1 n=a6 v=108
83488 On ch=1 n=c6 v=92
83502 On ch=1 n=a6 v=0
83502 On ch=1 n=c6 v=0
83504 On ch=1 n=g#6 v=108
83504 On ch=1 n=c#6 v=92
83518 On ch=1 n=g#6 v=0
83518 On ch=1 n=c#6 v=0
83520 On ch=1 n=f6 v=108
83520 On ch=1 n=g#5 v=92
83534 On ch=1 n=f6 v=0
83534 On ch=1 n=g#5 v=0
83536 On ch=1 n=g#6 v=108
83536 On ch=1 n=c#6 v=92
83550 On ch=1 n=g#6 v=0
83550 On ch=1 n=c#6 v=0
83552 On ch=1 n=c#7 v=108
83552 On ch=1 n=f6 v=92
83566 On ch=1 n=c#7 v=0
83566 On ch=1 n=f6 v=0
83568 On ch=1 n=f7 v=108
83568 On ch=1 n=g#6 v=92
83582 On ch=1 n=f7 v=0
83582 On ch=1 n=g#6 v=0
83584 On ch=1 n=g#7 v=108
83584 On ch=1 n=c7 v=92
83598 On ch=1 n=g#7 v=0
83598 On ch=1 n=c7 v=0
83600 On ch=1 n=a7 v=108
83600 On ch=1 n=c7 v=92
83614 On ch=1 n=a7 v=0
83614 On ch=1 n=c7 v=0
83616 On ch=1 n=g#7 v=108
83616 On ch=1 n=c#7 v=92
83630 On ch=1 n=g#7 v=0
83630 On ch=1 n=c#7 v=0
83632 On ch=1 n=f7 v=108
83632 On ch=1 n=g#6 v=92
83646 On ch=1 n=f7 v=0
83646 On ch=1 n=g#6 v=0
83648 On ch=1 n=g#7 v=108
83648 On ch=1 n=c#7 v=92
83662 On ch=1 n=g#7 v=0
83662 On ch=1 n=c#7 v=0
83664 On ch=1 n=c#8 v=108
83664 On ch=1 n=f7 v=92
83678 On ch=1 n=c#8 v=0
83678 On ch=1 n=f7 v=0
83680 On ch=1 n=d#8 v=108
83680 On ch=1 n=f#7 v=92
83694 On ch=1 n=d#8 v=0
83694 On ch=1 n=f#7 v=0
83696 On ch=1 n=f8 v=108
83696 On ch=1 n=g#7 v=92
83710 On ch=1 n=c#8 v=0
83710 On ch=1 n=f8 v=0
83710 On ch=1 n=g#7 v=0
83712 On ch=1 n=c#7 v=108
83712 On ch=1 n=f7 v=92
83726 On ch=1 n=c#7 v=0
83726 On ch=1 n=f7 v=0
83728 On ch=1 n=g#6 v=108
83728 On ch=1 n=c#7 v=92
83742 On ch=1 n=g#6 v=0
83742 On ch=1 n=c#7 v=0
83744 On ch=1 n=f6 v=108
83744 On ch=1 n=g#6 v=92
83758 On ch=1 n=f6 v=0
83758 On ch=1 n=g#6 v=0
83760 On ch=1 n=c#7 v=108
83760 On ch=1 n=f6 v=92
83774 On ch=1 n=c#7 v=0
83774 On ch=1 n=f6 v=0
83776 On ch=1 n=g#6 v=108
83776 On ch=1 n=c#6 v=92
83790 On ch=1 n=g#6 v=0
83790 On ch=1 n=c#6 v=0
83792 On ch=1 n=f6 v=108
83792 On ch=1 n=g#5 v=92
83806 On ch=1 n=f6 v=0
83806 On ch=1 n=g#5 v=0
83808 On ch=1 n=g#6 v=108
83808 On ch=1 n=c#6 v=92
83822 On ch=1 n=g#6 v=0
83822 On ch=1 n=c#6 v=0
83824 On ch=1 n=c#7 v=108
83824 On ch=1 n=f6 v=92
83838 On ch=1 n=c#7 v=0
83838 On ch=1 n=f6 v=0
83840 On ch=1 n=d#7 v=108
83840 On ch=1 n=f#6 v=92
83854 On ch=1 n=d#7 v=0
83854 On ch=1 n=f#6 v=0
83856 On ch=1 n=f7 v=108
83856 On ch=1 n=g#6 v=92
83870 On ch=1 n=f7 v=0
83870 On ch=1 n=g#6 v=0
83872 On ch=1 n=c#7 v=108
83872 On ch=1 n=f6 v=92
83886 On ch=1 n=c#7 v=0
83886 On ch=1 n=f6 v=0
83888 On ch=1 n=g#6 v=108
83888 On ch=1 n=c#6 v=92
83902 On ch=1 n=g#6 v=0
83902 On ch=1 n=c#6 v=0
83904 On ch=1 n=f6 v=108
83904 On ch=1 n=g#5 v=92
83918 On ch=1 n=f6 v=0
83918 On ch=1 n=g#5 v=0
83920 On ch=1 n=c#6 v=107
83920 On ch=1 n=f5 v=91
83934 On ch=1 n=c#6 v=0
83934 On ch=1 n=f5 v=0
83936 On ch=1 n=g#5 v=106
83936 On ch=1 n=c#5 v=90
83950 On ch=1 n=g#5 v=0
83950 On ch=1 n=c#5 v=0
83952 On ch=1 n=f5 v=105
83952 On ch=1 n=g#4 v=89
83974 On ch=1 n=f5 v=0
83974 On ch=1 n=g#4 v=0
83976 On ch=1 n=g#5 v=103
83976 On ch=1 n=c#5 v=87
83998 On ch=1 n=g#5 v=0
83998 On ch=1 n=c#5 v=0
84000 On ch=1 n=c#6 v=101
84000 On ch=1 n=f5 v=85
84022 On ch=1 n=c#6 v=0
84022 On ch=1 n=f5 v=0
84024 On ch=1 n=d#6 v=99
84024 On ch=1 n=f#5 v=83
84046 On ch=1 n=d#6 v=0
84046 On ch=1 n=f#5 v=0
84048 On ch=1 n=f6 v=97
84048 On ch=1 n=g#5 v=81
84070 On ch=1 n=f6 v=0
84070 On ch=1 n=g#5 v=0
84072 On ch=1 n=c#6 v=95
84072 On ch=1 n=f5 v=79
84094 On ch=1 n=c#6 v=0
84094 On ch=1 n=f5 v=0
84096 On ch=1 n=g#5 v=93
84096 On ch=1 n=c#5 v=77
84118 On ch=1 n=g#5 v=0
84118 On ch=1 n=c#5 v=0
84120 On ch=1 n=f5 v=91
84120 On ch=1 n=g#4 v=75
84142 On ch=1 n=f5 v=0
84142 On ch=1 n=g#4 v=0
84144 On ch=1 n=f4 v=73
84144 On ch=1 n=c#5 v=89
84166 On ch=1 n=f4 v=0
84166 On ch=1 n=c#5 v=0
84168 On ch=1 n=c#4 v=71
84168 On ch=1 n=g#4 v=87
84190 On ch=1 n=c#4 v=0
84190 On ch=1 n=g#4 v=0
84192 On ch=1 n=g#3 v=69
84192 On ch=1 n=f4 v=85
84214 On ch=1 n=g#3 v=0
84214 On ch=1 n=f4 v=0
84216 On ch=1 n=c#4 v=67
84216 On ch=1 n=g#4 v=83
84238 On ch=1 n=c#4 v=0
84238 On ch=1 n=g#4 v=0
84240 On ch=1 n=c#5 v=81
84240 On ch=1 n=f4 v=65
84262 On ch=1 n=c#5 v=0
84262 On ch=1 n=f4 v=0
84264 On ch=1 n=d#5 v=79
84264 On ch=1 n=f#4 v=63
84286 On ch=1 n=d#5 v=0
84286 On ch=1 n=f#4 v=0
84288 On ch=1 n=f5 v=77
84288 On ch=1 n=g#4 v=61
84310 On ch=1 n=f5 v=0
84310 On ch=1 n=g#4 v=0
84312 On ch=1 n=c#5 v=75
84312 On ch=1 n=f4 v=59
84334 On ch=1 n=c#5 v=0
84334 On ch=1 n=f4 v=0
84336 On ch=1 n=g#4 v=73
84336 On ch=1 n=c#4 v=57
84358 On ch=1 n=g#4 v=0
84358 On ch=1 n=c#4 v=0
84360 On ch=1 n=f4 v=71
84360 On ch=1 n=g#3 v=55
84382 On ch=1 n=f4 v=0
84382 On ch=1 n=g#3 v=0
84384 On ch=1 n=g#4 v=69
84384 On ch=1 n=c#4 v=53
84406 On ch=1 n=g#4 v=0
84406 On ch=1 n=c#4 v=0
84408 On ch=1 n=c#5 v=67
84408 On ch=1 n=f4 v=51
84430 On ch=1 n=c#5 v=0
84430 On ch=1 n=f4 v=0
84432 On ch=1 n=d#5 v=65
84432 On ch=1 n=f#4 v=49
84454 On ch=1 n=d#5 v=0
84454 On ch=1 n=f#4 v=0
84456 On ch=1 n=f5 v=63
84456 On ch=1 n=g#4 v=47
84478 On ch=1 n=f5 v=0
84478 On ch=1 n=g#4 v=0
84480 On ch=1 n=c#5 v=60
84480 On ch=1 n=f4 v=45
84510 On ch=1 n=c#5 v=0
84510 On ch=1 n=f4 v=0
84512 On ch=1 n=f#4 v=60
84512 On ch=1 n=g#3 v=45
84544 On ch=1 n=f#4 v=0
84544 On ch=1 n=g#3 v=0
84544 On ch=1 n=g#4 v=60
84544 On ch=1 n=c#4 v=45
84576 On ch=1 n=g#4 v=0
84576 On ch=1 n=c#4 v=0
84576 On ch=1 n=c#5 v=60
84576 On ch=1 n=f4 v=45
84608 On ch=1 n=c#5 v=0
84608 On ch=1 n=f4 v=0
84608 On ch=1 n=d#5 v=60
84608 On ch=1 n=f#4 v=45
84640 On ch=1 n=d#5 v=0
84640 On ch=1 n=f#4 v=0
84640 On ch=1 n=f5 v=60
84640 On ch=1 n=g#4 v=45
84672 On ch=1 n=f5 v=0
84672 On ch=1 n=g#4 v=0
84672 On ch=1 n=c#5 v=60
84672 On ch=1 n=f4 v=45
84702 On ch=1 n=c#5 v=0
84702 On ch=1 n=f4 v=0
84704 On ch=1 n=f#4 v=60
84704 On ch=1 n=g#3 v=45
84736 On ch=1 n=f#4 v=0
84736 On ch=1 n=g#3 v=0
84736 On ch=1 n=g#4 v=60
84736 On ch=1 n=c#4 v=45
84768 On ch=1 n=g#4 v=0
84768 On ch=1 n=c#4 v=0
84768 On ch=1 n=c#5 v=60
84768 On ch=1 n=f4 v=45
84800 On ch=1 n=c#5 v=0
84800 On ch=1 n=f4 v=0
84800 On ch=1 n=d#5 v=60
84800 On ch=1 n=f#4 v=45
84832 On ch=1 n=d#5 v=0
84832 On ch=1 n=f#4 v=0
84832 On ch=1 n=f5 v=60
84832 On ch=1 n=g#4 v=45
84864 On ch=1 n=f5 v=0
84864 On ch=1 n=g#4 v=0
84864 On ch=1 n=c#5 v=60
84864 On ch=1 n=f4 v=45
84894 On ch=1 n=c#5 v=0
84894 On ch=1 n=f4 v=0
84896 On ch=1 n=f#4 v=60
84896 On ch=1 n=g#3 v=45
84928 On ch=1 n=f#4 v=0
84928 On ch=1 n=g#3 v=0
84928 On ch=1 n=g#4 v=60
84928 On ch=1 n=c#4 v=45
84960 On ch=1 n=g#4 v=0
84960 On ch=1 n=c#4 v=0
84960 On ch=1 n=c#5 v=60
84960 On ch=1 n=f4 v=45
84992 On ch=1 n=c#5 v=0
84992 On ch=1 n=f4 v=0
84992 On ch=1 n=d#5 v=60
84992 On ch=1 n=f#4 v=45
85024 On ch=1 n=d#5 v=0
85024 On ch=1 n=f#4 v=0
85024 On ch=1 n=f5 v=60
85024 On ch=1 n=g#4 v=45
85056 On ch=1 n=f5 v=0
85056 On ch=1 n=g#4 v=0
85056 On ch=1 n=c#5 v=60
85056 On ch=1 n=f4 v=45
85086 On ch=1 n=c#5 v=0
85086 On ch=1 n=f4 v=0
85088 On ch=1 n=f#4 v=60
85088 On ch=1 n=g#3 v=45
85120 On ch=1 n=f#4 v=0
85120 On ch=1 n=g#3 v=0
85120 On ch=1 n=g#4 v=60
85120 On ch=1 n=c#4 v=45
85152 On ch=1 n=g#4 v=0
85152 On ch=1 n=c#4 v=0
85152 On ch=1 n=c#5 v=60
85152 On ch=1 n=f4 v=45
85184 On ch=1 n=c#5 v=0
85184 On ch=1 n=f4 v=0
85184 On ch=1 n=d#5 v=60
85184 On ch=1 n=f#4 v=45
85216 On ch=1 n=d#5 v=0
85216 On ch=1 n=f#4 v=0
85216 On ch=1 n=f5 v=60
85216 On ch=1 n=g#4 v=45
85248 On ch=1 n=f5 v=0
85248 On ch=1 n=g#4 v=0
85248 On ch=1 n=c#5 v=60
85248 On ch=1 n=f4 v=45
85278 On ch=1 n=c#5 v=0
85278 On ch=1 n=f4 v=0
85280 On ch=1 n=f#4 v=60
85280 On ch=1 n=g#3 v=45
85312 On ch=1 n=f#4 v=0
85312 On ch=1 n=g#3 v=0
85312 On ch=1 n=c#5 v=60
85312 On ch=1 n=f4 v=45
85344 On ch=1 n=c#5 v=0
85344 On ch=1 n=f4 v=0
85344 On ch=1 n=d5 v=60
85344 On ch=1 n=f#4 v=45
85376 On ch=1 n=d5 v=0
85376 On ch=1 n=f#4 v=0
85376 On ch=1 n=e5 v=60
85376 On ch=1 n=g#4 v=45
85408 On ch=1 n=e5 v=0
85408 On ch=1 n=g#4 v=0
85408 On ch=1 n=f#5 v=60
85408 On ch=1 n=a4 v=45
85438 On ch=1 n=f#5 v=0
85440 On ch=1 n=a4 v=0
85440 On ch=1 n=d5 v=60
85440 On ch=1 n=f#4 v=45
85470 On ch=1 n=d5 v=0
85470 On ch=1 n=f#4 v=0
85472 On ch=1 n=f#4 v=60
85472 On ch=1 n=b3 v=45
85504 On ch=1 n=f#4 v=0
85504 On ch=1 n=b3 v=0
85504 On ch=1 n=b4 v=60
85504 On ch=1 n=d4 v=45
85536 On ch=1 n=b4 v=0
85536 On ch=1 n=d4 v=0
85536 On ch=1 n=c#5 v=60
85536 On ch=1 n=f4 v=45
85568 On ch=1 n=c#5 v=0
85568 On ch=1 n=f4 v=0
85568 On ch=1 n=d#5 v=60
85568 On ch=1 n=f#4 v=45
85600 On ch=1 n=d#5 v=0
85600 On ch=1 n=f#4 v=0
85600 On ch=1 n=f5 v=60
85600 On ch=1 n=g#4 v=45
85632 On ch=1 n=f5 v=0
85632 On ch=1 n=g#4 v=0
85632 On ch=1 n=c#5 v=60
85632 On ch=1 n=f4 v=45
85662 On ch=1 n=c#5 v=0
85662 On ch=1 n=f4 v=0
85664 On ch=1 n=f#4 v=60
85664 On ch=1 n=g#3 v=45
85696 On ch=1 n=f#4 v=0
85696 On ch=1 n=g#3 v=0
85696 On ch=1 n=g#4 v=60
85696 On ch=1 n=c#4 v=45
85728 On ch=1 n=g#4 v=0
85728 On ch=1 n=c#4 v=0
85728 On ch=1 n=c#5 v=60
85728 On ch=1 n=f4 v=45
85760 On ch=1 n=c#5 v=0
85760 On ch=1 n=f4 v=0
85760 On ch=1 n=d#5 v=60
85760 On ch=1 n=f#4 v=45
85792 On ch=1 n=d#5 v=0
85792 On ch=1 n=f#4 v=0
85792 On ch=1 n=f5 v=60
85792 On ch=1 n=g#4 v=45
85824 On ch=1 n=f5 v=0
85824 On ch=1 n=g#4 v=0
85824 On ch=1 n=c#5 v=60
85824 On ch=1 n=f4 v=45
85854 On ch=1 n=c#5 v=0
85854 On ch=1 n=f4 v=0
85856 On ch=1 n=f#4 v=58
85856 On ch=1 n=g#3 v=43
85888 On ch=1 n=f#4 v=0
85888 On ch=1 n=g#3 v=0
85888 On ch=1 n=g#4 v=56
85888 On ch=1 n=c#4 v=41
85920 On ch=1 n=g#4 v=0
85920 On ch=1 n=c#4 v=0
85920 On ch=1 n=c#5 v=54
85920 On ch=1 n=f4 v=39
85952 On ch=1 n=c#5 v=0
85952 On ch=1 n=f4 v=0
85952 On ch=1 n=d#5 v=51
85952 On ch=1 n=f#4 v=36
85984 On ch=1 n=d#5 v=0
85984 On ch=1 n=f#4 v=0
85984 On ch=1 n=f5 v=48
85984 On ch=1 n=g#4 v=33
86016 On ch=1 n=f5 v=0
86016 On ch=1 n=g#4 v=0
86016 On ch=1 n=c#5 v=45
86016 On ch=1 n=f4 v=30
86046 On ch=1 n=c#5 v=0
86048 On ch=1 n=g#4 v=45
86080 On ch=1 n=g#4 v=0
86080 On ch=1 n=f4 v=45
86110 On ch=1 n=f4 v=0
86112 On ch=1 n=f4 v=0
86112 On ch=1 n=c#4 v=45
86112 On ch=1 n=b3 v=30
86144 On ch=1 n=c#4 v=0
86144 On ch=1 n=b3 v=0
86144 On ch=1 n=d#4 v=45
86144 On ch=1 n=a#3 v=30
86176 On ch=1 n=d#4 v=0
86176 On ch=1 n=a#3 v=0
86176 On ch=1 n=e4 v=45
86176 On ch=1 n=a3 v=30
86208 On ch=1 n=e4 v=0
86208 On ch=1 n=a3 v=0
86208 On ch=1 n=f4 v=45
86208 On ch=1 n=c#3 v=30
86208 On ch=1 n=g#3 v=30
86238 On ch=1 n=f4 v=0
86240 On ch=1 n=c#4 v=45
86272 On ch=1 n=c#4 v=0
86272 On ch=1 n=d#4 v=45
86302 On ch=1 n=c#3 v=0
86302 On ch=1 n=g#3 v=0
86304 On ch=1 n=d#4 v=0
86304 On ch=1 n=f4 v=45
86304 On ch=1 n=c#4 v=30
86336 On ch=1 n=f4 v=0
86336 On ch=1 n=c#4 v=0
86336 On ch=1 n=f#4 v=45
86336 On ch=1 n=d#4 v=30
86368 On ch=1 n=f#4 v=0
86368 On ch=1 n=d#4 v=0
86368 On ch=1 n=g4 v=45
86368 On ch=1 n=e4 v=30
86400 On ch=1 n=g4 v=0
86400 On ch=1 n=e4 v=0
86400 On ch=1 n=g#4 v=45
86400 On ch=1 n=c#4 v=30
86400 On ch=1 n=e4 v=30
86430 On ch=1 n=g#4 v=0
86432 On ch=1 n=f4 v=45
86464 On ch=1 n=f4 v=0
86464 On ch=1 n=f#4 v=45
86494 On ch=1 n=c#4 v=0
86494 On ch=1 n=e4 v=0
86496 On ch=1 n=f#4 v=0
86496 On ch=1 n=g#4 v=45
86496 On ch=1 n=f4 v=30
86528 On ch=1 n=g#4 v=0
86528 On ch=1 n=f4 v=0
86528 On ch=1 n=a#4 v=45
86528 On ch=1 n=f#4 v=30
86560 On ch=1 n=a#4 v=0
86560 On ch=1 n=f#4 v=0
86560 On ch=1 n=c5 v=45
86560 On ch=1 n=g#4 v=30
86592 On ch=1 n=c5 v=0
86592 On ch=1 n=g#4 v=0
86592 On ch=1 n=c#5 v=45
86592 On ch=1 n=e4 v=30
86622 On ch=1 n=c#5 v=0
86624 On ch=1 n=g#4 v=45
86656 On ch=1 n=g#4 v=0
86656 On ch=1 n=a#4 v=45
86686 On ch=1 n=e4 v=0
86688 On ch=1 n=a#4 v=0
86688 On ch=1 n=c5 v=45
86688 On ch=1 n=g#4 v=30
86720 On ch=1 n=c5 v=0
86720 On ch=1 n=g#4 v=0
86720 On ch=1 n=c#5 v=45
86720 On ch=1 n=a4 v=30
86752 On ch=1 n=c#5 v=0
86752 On ch=1 n=a4 v=0
86752 On ch=1 n=d#5 v=45
86752 On ch=1 n=b4 v=30
86784 On ch=1 n=d#5 v=0
86784 On ch=1 n=b4 v=0
86784 On ch=1 n=e5 v=30
86784 On ch=1 n=a4 v=30
86784 On ch=1 n=c5 v=30
86878 On ch=1 n=e5 v=0
86878 On ch=1 n=a4 v=0
86878 On ch=1 n=c5 v=0
86880 On ch=1 n=a5 v=30
86880 On ch=1 n=c5 v=30
86912 On ch=1 n=a5 v=0
86912 On ch=1 n=c5 v=0
86912 On ch=1 n=b5 v=30
86912 On ch=1 n=d5 v=30
86944 On ch=1 n=b5 v=0
86944 On ch=1 n=d5 v=0
86944 On ch=1 n=c6 v=30
86944 On ch=1 n=e5 v=30
86976 On ch=1 n=c6 v=0
86976 On ch=1 n=e5 v=0
86976 On ch=1 n=a5 v=30
86976 On ch=1 n=a4 v=30
87006 On ch=1 n=a5 v=0
87008 On ch=1 n=e5 v=30
87040 On ch=1 n=e5 v=0
87040 On ch=1 n=c5 v=30
87070 On ch=1 n=a4 v=0
87072 On ch=1 n=c5 v=0
87072 On ch=1 n=a5 v=30
87072 On ch=1 n=c5 v=30
87104 On ch=1 n=a5 v=0
87104 On ch=1 n=c5 v=0
87104 On ch=1 n=b5 v=30
87104 On ch=1 n=d5 v=30
87136 On ch=1 n=b5 v=0
87136 On ch=1 n=d5 v=0
87136 On ch=1 n=c6 v=30
87136 On ch=1 n=e5 v=30
87168 On ch=1 n=c6 v=0
87168 On ch=1 n=e5 v=0
87168 On ch=1 n=a5 v=30
87168 On ch=1 n=a4 v=30
87198 On ch=1 n=a5 v=0
87200 On ch=1 n=e5 v=30
87232 On ch=1 n=e5 v=0
87232 On ch=1 n=c5 v=30
87262 On ch=1 n=a4 v=0
87264 On ch=1 n=c5 v=0
87264 On ch=1 n=a5 v=30
87264 On ch=1 n=c6 v=30
87296 On ch=1 n=a5 v=0
87296 On ch=1 n=c6 v=0
87296 On ch=1 n=b5 v=30
87296 On ch=1 n=d6 v=30
87328 On ch=1 n=b5 v=0
87328 On ch=1 n=d6 v=0
87328 On ch=1 n=c6 v=30
87328 On ch=1 n=e6 v=30
87360 On ch=1 n=c6 v=0
87360 On ch=1 n=e6 v=0
87360 On ch=1 n=a5 v=30
87360 On ch=1 n=f#5 v=30
87390 On ch=1 n=a5 v=0
87392 On ch=1 n=e5 v=30
87424 On ch=1 n=e5 v=0
87424 On ch=1 n=c5 v=30
87454 On ch=1 n=f#5 v=0
87456 On ch=1 n=c5 v=0
87456 On ch=1 n=a5 v=30
87456 On ch=1 n=c6 v=30
87488 On ch=1 n=a5 v=0
87488 On ch=1 n=c6 v=0
87488 On ch=1 n=b5 v=30
87488 On ch=1 n=d6 v=30
87520 On ch=1 n=b5 v=0
87520 On ch=1 n=d6 v=0
87520 On ch=1 n=c6 v=30
87520 On ch=1 n=e6 v=30
87552 On ch=1 n=c6 v=0
87552 On ch=1 n=e6 v=0
87552 On ch=1 n=a5 v=30
87552 On ch=1 n=f#5 v=30
87582 On ch=1 n=a5 v=0
87584 On ch=1 n=e5 v=30
87616 On ch=1 n=e5 v=0
87616 On ch=1 n=c5 v=30
87646 On ch=1 n=f#5 v=0
87648 On ch=1 n=c5 v=0
87648 On ch=1 n=a4 v=30
87648 On ch=1 n=g4 v=30
87680 On ch=1 n=a4 v=0
87680 On ch=1 n=g4 v=0
87680 On ch=1 n=a#4 v=30
87680 On ch=1 n=f#4 v=30
87712 On ch=1 n=a#4 v=0
87712 On ch=1 n=f#4 v=0
87712 On ch=1 n=b4 v=30
87712 On ch=1 n=f4 v=30
87744 On ch=1 n=b4 v=0
87744 On ch=1 n=f4 v=0
87744 On ch=1 n=c5 v=30
87744 On ch=1 n=a3 v=30
87744 On ch=1 n=e4 v=30
87774 On ch=1 n=c5 v=0
87776 On ch=1 n=a4 v=30
87808 On ch=1 n=a4 v=0
87808 On ch=1 n=b4 v=30
87838 On ch=1 n=a3 v=0
87838 On ch=1 n=e4 v=0
87840 On ch=1 n=b4 v=0
87840 On ch=1 n=c5 v=30
87840 On ch=1 n=a4 v=30
87872 On ch=1 n=c5 v=0
87872 On ch=1 n=a4 v=0
87872 On ch=1 n=d5 v=30
87872 On ch=1 n=a#4 v=30
87904 On ch=1 n=d5 v=0
87904 On ch=1 n=a#4 v=0
87904 On ch=1 n=d#5 v=30
87904 On ch=1 n=b4 v=30
87936 On ch=1 n=d#5 v=0
87936 On ch=1 n=b4 v=0
87936 On ch=1 n=e5 v=30
87936 On ch=1 n=a4 v=30
87936 On ch=1 n=c5 v=30
87966 On ch=1 n=e5 v=0
87968 On ch=1 n=c5 v=30
88000 On ch=1 n=c5 v=0
88000 On ch=1 n=d5 v=30
88030 On ch=1 n=a4 v=0
88030 On ch=1 n=c5 v=0
88032 On ch=1 n=d5 v=0
88032 On ch=1 n=e5 v=30
88032 On ch=1 n=c5 v=30
88064 On ch=1 n=e5 v=0
88064 On ch=1 n=c5 v=0
88064 On ch=1 n=f#5 v=30
88064 On ch=1 n=d5 v=30
88096 On ch=1 n=f#5 v=0
88096 On ch=1 n=d5 v=0
88096 On ch=1 n=g#5 v=30
88096 On ch=1 n=e5 v=30
88128 On ch=1 n=g#5 v=0
88128 On ch=1 n=e5 v=0
88128 On ch=1 n=a5 v=30
88128 On ch=1 n=c5 v=30
88158 On ch=1 n=a5 v=0
88160 On ch=1 n=e5 v=30
88192 On ch=1 n=e5 v=0
88192 On ch=1 n=f#5 v=30
88222 On ch=1 n=c5 v=0
88224 On ch=1 n=f#5 v=0
88224 On ch=1 n=g#5 v=30
88256 On ch=1 n=g#5 v=0
88256 On ch=1 n=a5 v=30
88288 On ch=1 n=a5 v=0
88288 On ch=1 n=a#5 v=30
88320 On ch=1 n=a#5 v=0
88320 On ch=1 n=b5 v=75
88320 On ch=1 n=b2 v=75
88350 On ch=1 n=b5 v=0
88352 On ch=1 n=c#6 v=75
88384 On ch=1 n=c#6 v=0
88384 On ch=1 n=b5 v=75
88416 On ch=1 n=b5 v=0
88416 On ch=1 n=e6 v=75
88448 On ch=1 n=e6 v=0
88448 On ch=1 n=b5 v=75
88480 On ch=1 n=b2 v=0
88480 On ch=1 n=b5 v=0
88480 On ch=1 n=c#6 v=75
88512 On ch=1 n=c#6 v=0
88512 On ch=1 n=b5 v=75
88544 On ch=1 n=b5 v=0
88544 On ch=1 n=d#6 v=75
88576 On ch=1 n=d#6 v=0
88576 On ch=1 n=a#5 v=75
88608 On ch=1 n=a#5 v=0
88608 On ch=1 n=b5 v=75
88640 On ch=1 n=b5 v=0
88640 On ch=1 n=c#6 v=75
88672 On ch=1 n=c#6 v=0
88672 On ch=1 n=d6 v=75
88702 On ch=1 n=d6 v=0
88704 On ch=1 n=b5 v=75
88736 On ch=1 n=b5 v=0
88736 On ch=1 n=c#6 v=75
88768 On ch=1 n=c#6 v=0
88768 On ch=1 n=b5 v=75
88800 On ch=1 n=b5 v=0
88800 On ch=1 n=c#6 v=75
88800 On ch=1 n=a4 v=75
88800 On ch=1 n=c#5 v=75
88800 On ch=1 n=f5 v=75
88832 On ch=1 n=c#6 v=0
88832 On ch=1 n=a4 v=0
88832 On ch=1 n=c#5 v=0
88832 On ch=1 n=f5 v=0
88832 On ch=1 n=a5 v=75
88864 On ch=1 n=a5 v=0
88864 On ch=1 n=b5 v=75
88896 On ch=1 n=b5 v=0
88896 On ch=1 n=a5 v=75
88896 On ch=1 n=a4 v=75
88896 On ch=1 n=c#5 v=75
88896 On ch=1 n=f#5 v=75
88928 On ch=1 n=a5 v=0
88928 On ch=1 n=a4 v=0
88928 On ch=1 n=c#5 v=0
88928 On ch=1 n=f#5 v=0
88928 On ch=1 n=c#6 v=75
88960 On ch=1 n=c#6 v=0
88960 On ch=1 n=g#5 v=75
88992 On ch=1 n=g#5 v=0
88992 On ch=1 n=a5 v=75
89024 On ch=1 n=a5 v=0
89024 On ch=1 n=b5 v=75
89056 On ch=1 n=b5 v=0
89056 On ch=1 n=c6 v=75
89086 On ch=1 n=c6 v=0
89088 On ch=1 n=a5 v=75
89120 On ch=1 n=a5 v=0
89120 On ch=1 n=b5 v=75
89152 On ch=1 n=b5 v=0
89152 On ch=1 n=a5 v=75
89184 On ch=1 n=a5 v=0
89184 On ch=1 n=b5 v=75
89184 On ch=1 n=g#4 v=75
89184 On ch=1 n=b4 v=75
89184 On ch=1 n=d#5 v=75
89216 On ch=1 n=b5 v=0
89216 On ch=1 n=g#4 v=0
89216 On ch=1 n=b4 v=0
89216 On ch=1 n=d#5 v=0
89216 On ch=1 n=g#5 v=75
89248 On ch=1 n=g#5 v=0
89248 On ch=1 n=a5 v=75
89280 On ch=1 n=a5 v=0
89280 On ch=1 n=g#5 v=75
89280 On ch=1 n=g#4 v=75
89280 On ch=1 n=b4 v=75
89280 On ch=1 n=e5 v=75
89312 On ch=1 n=g#5 v=0
89312 On ch=1 n=g#4 v=0
89312 On ch=1 n=b4 v=0
89312 On ch=1 n=e5 v=0
89312 On ch=1 n=b5 v=75
89344 On ch=1 n=b5 v=0
89344 On ch=1 n=f#5 v=75
89376 On ch=1 n=f#5 v=0
89376 On ch=1 n=g#5 v=75
89408 On ch=1 n=g#5 v=0
89408 On ch=1 n=a5 v=75
89440 On ch=1 n=a5 v=0
89440 On ch=1 n=b5 v=75
89470 On ch=1 n=b5 v=0
89472 On ch=1 n=g#5 v=75
89504 On ch=1 n=g#5 v=0
89504 On ch=1 n=a5 v=75
89536 On ch=1 n=a5 v=0
89536 On ch=1 n=g#5 v=75
89568 On ch=1 n=g#5 v=0
89568 On ch=1 n=a5 v=75
89568 On ch=1 n=a4 v=75
89568 On ch=1 n=c#5 v=75
89600 On ch=1 n=a5 v=0
89600 On ch=1 n=a4 v=0
89600 On ch=1 n=c#5 v=0
89600 On ch=1 n=f#5 v=75
89632 On ch=1 n=f#5 v=0
89632 On ch=1 n=g#5 v=75
89664 On ch=1 n=g#5 v=0
89664 On ch=1 n=f#5 v=75
89664 On ch=1 n=a4 v=75
89664 On ch=1 n=c5 v=75
89696 On ch=1 n=f#5 v=0
89696 On ch=1 n=a4 v=0
89696 On ch=1 n=c5 v=0
89696 On ch=1 n=a5 v=75
89728 On ch=1 n=a5 v=0
89728 On ch=1 n=e5 v=75
89760 On ch=1 n=e5 v=0
89760 On ch=1 n=f#5 v=75
89792 On ch=1 n=f#5 v=0
89792 On ch=1 n=g#5 v=75
89824 On ch=1 n=g#5 v=0
89824 On ch=1 n=a5 v=75
89854 On ch=1 n=a5 v=0
89856 On ch=1 n=b5 v=75
89888 On ch=1 n=b5 v=0
89888 On ch=1 n=c#6 v=77
89920 On ch=1 n=c#6 v=0
89920 On ch=1 n=b5 v=80
89952 On ch=1 n=b5 v=0
89952 On ch=1 n=c#6 v=83
89952 On ch=1 n=g#4 v=75
89952 On ch=1 n=b4 v=75
89952 On ch=1 n=e5 v=75
89984 On ch=1 n=c#6 v=0
89984 On ch=1 n=g#4 v=0
89984 On ch=1 n=b4 v=0
89984 On ch=1 n=e5 v=0
89984 On ch=1 n=d#6 v=86
90016 On ch=1 n=d#6 v=0
90016 On ch=1 n=e6 v=89
90048 On ch=1 n=e6 v=0
90048 On ch=1 n=g#6 v=92
90048 On ch=1 n=e5 v=75
90048 On ch=1 n=g#5 v=75
90080 On ch=1 n=g#6 v=0
90080 On ch=1 n=e5 v=0
90080 On ch=1 n=g#5 v=0
90080 On ch=1 n=f#6 v=92
90112 On ch=1 n=f#6 v=0
90112 On ch=1 n=g#6 v=92
90144 On ch=1 n=g#6 v=0
90144 On ch=1 n=f#6 v=92
90176 On ch=1 n=f#6 v=0
90176 On ch=1 n=g#6 v=92
90208 On ch=1 n=g#6 v=0
90208 On ch=1 n=f#6 v=92
90238 On ch=1 n=f#6 v=0
90240 On ch=1 n=g#6 v=92
90272 On ch=1 n=g#6 v=0
90272 On ch=1 n=f#6 v=90
90304 On ch=1 n=f#6 v=0
90304 On ch=1 n=g#6 v=87
90336 On ch=1 n=g#6 v=0
90336 On ch=1 n=f6 v=84
90336 On ch=1 n=g#4 v=75
90336 On ch=1 n=d5 v=75
90336 On ch=1 n=f5 v=75
90368 On ch=1 n=f6 v=0
90368 On ch=1 n=g#4 v=0
90368 On ch=1 n=d5 v=0
90368 On ch=1 n=f5 v=0
90368 On ch=1 n=d6 v=81
90400 On ch=1 n=d6 v=0
90400 On ch=1 n=f6 v=78
90432 On ch=1 n=f6 v=0
90432 On ch=1 n=c#6 v=75
90432 On ch=1 n=a4 v=75
90432 On ch=1 n=c#5 v=75
90464 On ch=1 n=c#6 v=0
90464 On ch=1 n=a4 v=0
90464 On ch=1 n=c#5 v=0
90464 On ch=1 n=a5 v=75
90496 On ch=1 n=a5 v=0
90496 On ch=1 n=b5 v=75
90528 On ch=1 n=b5 v=0
90528 On ch=1 n=c#6 v=75
90560 On ch=1 n=c#6 v=0
90560 On ch=1 n=d#6 v=75
90592 On ch=1 n=d#6 v=0
90592 On ch=1 n=f6 v=75
90622 On ch=1 n=f6 v=0
90624 On ch=1 n=f#6 v=75
90656 On ch=1 n=f#6 v=0
90656 On ch=1 n=e6 v=75
90688 On ch=1 n=e6 v=0
90688 On ch=1 n=f#6 v=75
90720 On ch=1 n=f#6 v=0
90720 On ch=1 n=d#6 v=75
90720 On ch=1 n=f#4 v=75
90720 On ch=1 n=c5 v=75
90720 On ch=1 n=d#5 v=75
90752 On ch=1 n=d#6 v=0
90752 On ch=1 n=f#4 v=0
90752 On ch=1 n=c5 v=0
90752 On ch=1 n=d#5 v=0
90752 On ch=1 n=c6 v=75
90784 On ch=1 n=c6 v=0
90784 On ch=1 n=d#6 v=75
90816 On ch=1 n=d#6 v=0
90816 On ch=1 n=b5 v=75
90816 On ch=1 n=g#4 v=75
90816 On ch=1 n=b4 v=75
90848 On ch=1 n=b5 v=0
90848 On ch=1 n=g#4 v=0
90848 On ch=1 n=b4 v=0
90848 On ch=1 n=g#5 v=75
90880 On ch=1 n=g#5 v=0
90880 On ch=1 n=a5 v=75
90912 On ch=1 n=a5 v=0
90912 On ch=1 n=b5 v=75
90944 On ch=1 n=b5 v=0
90944 On ch=1 n=c6 v=75
90976 On ch=1 n=c6 v=0
90976 On ch=1 n=d#6 v=75
91006 On ch=1 n=d#6 v=0
91008 On ch=1 n=e6 v=75
91040 On ch=1 n=e6 v=0
91040 On ch=1 n=d#6 v=75
91072 On ch=1 n=d#6 v=0
91072 On ch=1 n=e6 v=75
91104 On ch=1 n=e6 v=0
91104 On ch=1 n=c#6 v=75
91104 On ch=1 n=e4 v=75
91104 On ch=1 n=b4 v=75
91104 On ch=1 n=c#5 v=75
91136 On ch=1 n=c#6 v=0
91136 On ch=1 n=e4 v=0
91136 On ch=1 n=b4 v=0
91136 On ch=1 n=c#5 v=0
91136 On ch=1 n=b5 v=75
91168 On ch=1 n=b5 v=0
91168 On ch=1 n=c#6 v=75
91200 On ch=1 n=c#6 v=0
91200 On ch=1 n=a5 v=75
91200 On ch=1 n=f#4 v=75
91200 On ch=1 n=a4 v=75
91230 On ch=1 n=a5 v=0
91232 On ch=1 n=f#4 v=0
91232 On ch=1 n=a4 v=0
91232 On ch=1 n=f#5 v=75
91264 On ch=1 n=f#5 v=0
91264 On ch=1 n=g#5 v=76
91296 On ch=1 n=g#5 v=0
91296 On ch=1 n=a5 v=77
91328 On ch=1 n=a5 v=0
91328 On ch=1 n=b5 v=78
91360 On ch=1 n=b5 v=0
91360 On ch=1 n=c#6 v=79
91392 On ch=1 n=c#6 v=0
91392 On ch=1 n=d#6 v=80
91422 On ch=1 n=d#6 v=0
91424 On ch=1 n=b5 v=81
91456 On ch=1 n=b5 v=0
91456 On ch=1 n=c#6 v=82
91488 On ch=1 n=c#6 v=0
91488 On ch=1 n=d#6 v=83
91488 On ch=1 n=f#4 v=78
91488 On ch=1 n=a4 v=78
91488 On ch=1 n=d#5 v=78
91520 On ch=1 n=d#6 v=0
91520 On ch=1 n=f#4 v=0
91520 On ch=1 n=a4 v=0
91520 On ch=1 n=d#5 v=0
91520 On ch=1 n=e6 v=84
91552 On ch=1 n=e6 v=0
91552 On ch=1 n=f#6 v=85
91584 On ch=1 n=f#6 v=0
91584 On ch=1 n=g#6 v=86
91584 On ch=1 n=g#4 v=81
91584 On ch=1 n=b4 v=81
91584 On ch=1 n=e5 v=81
91616 On ch=1 n=g#6 v=0
91616 On ch=1 n=g#4 v=0
91616 On ch=1 n=b4 v=0
91616 On ch=1 n=e5 v=0
91616 On ch=1 n=e6 v=87
91648 On ch=1 n=e6 v=0
91648 On ch=1 n=f#6 v=88
91680 On ch=1 n=f#6 v=0
91680 On ch=1 n=g#6 v=89
91712 On ch=1 n=g#6 v=0
91712 On ch=1 n=a6 v=90
91744 On ch=1 n=a6 v=0
91744 On ch=1 n=b6 v=91
91776 On ch=1 n=b6 v=0
91776 On ch=1 n=c#7 v=92
91806 On ch=1 n=c#7 v=0
91808 On ch=1 n=d#7 v=92
91840 On ch=1 n=d#7 v=0
91840 On ch=1 n=c#7 v=92
91872 On ch=1 n=c#7 v=0
91872 On ch=1 n=d#7 v=92
91872 On ch=1 n=g5 v=92
91872 On ch=1 n=a#5 v=92
91872 On ch=1 n=e6 v=92
91904 On ch=1 n=d#7 v=0
91904 On ch=1 n=g5 v=0
91904 On ch=1 n=a#5 v=0
91904 On ch=1 n=e6 v=0
91904 On ch=1 n=c#7 v=92
91936 On ch=1 n=c#7 v=0
91936 On ch=1 n=d#7 v=92
91968 On ch=1 n=d#7 v=0
91968 On ch=1 n=c#7 v=92
91968 On ch=1 n=g#5 v=92
91968 On ch=1 n=b5 v=92
91968 On ch=1 n=f6 v=92
92000 On ch=1 n=c#7 v=0
92000 On ch=1 n=g#5 v=0
92000 On ch=1 n=b5 v=0
92000 On ch=1 n=f6 v=0
92000 On ch=1 n=g#6 v=92
92032 On ch=1 n=g#6 v=0
92032 On ch=1 n=a#6 v=92
92064 On ch=1 n=a#6 v=0
92064 On ch=1 n=b6 v=92
92096 On ch=1 n=b6 v=0
92096 On ch=1 n=a#6 v=92
92128 On ch=1 n=a#6 v=0
92128 On ch=1 n=b6 v=92
92158 On ch=1 n=b6 v=0
92160 On ch=1 n=c7 v=92
92192 On ch=1 n=c7 v=0
92192 On ch=1 n=d7 v=91
92224 On ch=1 n=d7 v=0
92224 On ch=1 n=c7 v=90
92256 On ch=1 n=c7 v=0
92256 On ch=1 n=d7 v=89
92256 On ch=1 n=g5 v=89
92256 On ch=1 n=a5 v=89
92256 On ch=1 n=d#6 v=89
92288 On ch=1 n=d7 v=0
92288 On ch=1 n=g5 v=0
92288 On ch=1 n=a5 v=0
92288 On ch=1 n=d#6 v=0
92288 On ch=1 n=c7 v=88
92320 On ch=1 n=c7 v=0
92320 On ch=1 n=d7 v=87
92352 On ch=1 n=d7 v=0
92352 On ch=1 n=c7 v=86
92352 On ch=1 n=g5 v=86
92352 On ch=1 n=a#5 v=86
92352 On ch=1 n=e6 v=86
92384 On ch=1 n=c7 v=0
92384 On ch=1 n=g5 v=0
92384 On ch=1 n=a#5 v=0
92384 On ch=1 n=e6 v=0
92384 On ch=1 n=g6 v=85
92416 On ch=1 n=g6 v=0
92416 On ch=1 n=a6 v=84
92448 On ch=1 n=a6 v=0
92448 On ch=1 n=a#6 v=83
92480 On ch=1 n=a#6 v=0
92480 On ch=1 n=a6 v=82
92512 On ch=1 n=a6 v=0
92512 On ch=1 n=a#6 v=81
92542 On ch=1 n=a#6 v=0
92544 On ch=1 n=b6 v=80
92576 On ch=1 n=b6 v=0
92576 On ch=1 n=c#7 v=79
92608 On ch=1 n=c#7 v=0
92608 On ch=1 n=b6 v=78
92640 On ch=1 n=b6 v=0
92640 On ch=1 n=c#7 v=77
92640 On ch=1 n=b5 v=74
92640 On ch=1 n=e6 v=74
92640 On ch=1 n=g6 v=74
92672 On ch=1 n=c#7 v=0
92672 On ch=1 n=b5 v=0
92672 On ch=1 n=e6 v=0
92672 On ch=1 n=g6 v=0
92672 On ch=1 n=b6 v=76
92704 On ch=1 n=b6 v=0
92704 On ch=1 n=c#7 v=75
92736 On ch=1 n=c#7 v=0
92736 On ch=1 n=b6 v=74
92736 On ch=1 n=b5 v=70
92736 On ch=1 n=e6 v=70
92736 On ch=1 n=g#6 v=70
92768 On ch=1 n=b6 v=0
92768 On ch=1 n=b5 v=0
92768 On ch=1 n=e6 v=0
92768 On ch=1 n=g#6 v=0
92768 On ch=1 n=d6 v=73
92800 On ch=1 n=d6 v=0
92800 On ch=1 n=e6 v=72
92832 On ch=1 n=e6 v=0
92832 On ch=1 n=f#6 v=71
92864 On ch=1 n=f#6 v=0
92864 On ch=1 n=e6 v=70
92896 On ch=1 n=e6 v=0
92896 On ch=1 n=f#6 v=69
92926 On ch=1 n=f#6 v=0
92928 On ch=1 n=g#6 v=68
92960 On ch=1 n=g#6 v=0
92960 On ch=1 n=a6 v=67
92992 On ch=1 n=a6 v=0
92992 On ch=1 n=g#6 v=66
93024 On ch=1 n=g#6 v=0
93024 On ch=1 n=a6 v=65
93024 On ch=1 n=g#5 v=58
93024 On ch=1 n=b5 v=58
93024 On ch=1 n=d#6 v=58
93056 On ch=1 n=a6 v=0
93056 On ch=1 n=g#5 v=0
93056 On ch=1 n=b5 v=0
93056 On ch=1 n=d#6 v=0
93056 On ch=1 n=g#6 v=64
93088 On ch=1 n=g#6 v=0
93088 On ch=1 n=a6 v=63
93120 On ch=1 n=a6 v=0
93120 On ch=1 n=e6 v=54
93120 On ch=1 n=b5 v=54
93120 On ch=1 n=g#5 v=54
93120 On ch=1 n=g#6 v=62
93152 On ch=1 n=e6 v=0
93152 On ch=1 n=b5 v=0
93152 On ch=1 n=g#5 v=0
93152 On ch=1 n=g#6 v=0
93152 On ch=1 n=b5 v=61
93184 On ch=1 n=b5 v=0
93184 On ch=1 n=c#6 v=60
93216 On ch=1 n=c#6 v=0
93216 On ch=1 n=d#6 v=59
93248 On ch=1 n=d#6 v=0
93248 On ch=1 n=c#6 v=58
93280 On ch=1 n=c#6 v=0
93280 On ch=1 n=d#6 v=56
93310 On ch=1 n=d#6 v=0
93312 On ch=1 n=e6 v=54
93344 On ch=1 n=e6 v=0
93344 On ch=1 n=f#6 v=52
93376 On ch=1 n=f#6 v=0
93376 On ch=1 n=e6 v=50
93408 On ch=1 n=e6 v=0
93408 On ch=1 n=f#6 v=48
93408 On ch=1 n=e5 v=42
93408 On ch=1 n=g#5 v=42
93408 On ch=1 n=c6 v=42
93440 On ch=1 n=f#6 v=0
93440 On ch=1 n=e5 v=0
93440 On ch=1 n=g#5 v=0
93440 On ch=1 n=c6 v=0
93440 On ch=1 n=e6 v=46
93472 On ch=1 n=e6 v=0
93472 On ch=1 n=f#6 v=44
93504 On ch=1 n=f#6 v=0
93504 On ch=1 n=e6 v=42
93504 On ch=1 n=e5 v=38
93504 On ch=1 n=g#5 v=38
93504 On ch=1 n=c#6 v=38
93536 On ch=1 n=e6 v=0
93536 On ch=1 n=e5 v=0
93536 On ch=1 n=g#5 v=0
93536 On ch=1 n=c#6 v=0
93536 On ch=1 n=g#5 v=40
93568 On ch=1 n=g#5 v=0
93568 On ch=1 n=a5 v=38
93600 On ch=1 n=a5 v=0
93600 On ch=1 n=a#5 v=36
93632 On ch=1 n=a#5 v=0
93632 On ch=1 n=a5 v=34
93664 On ch=1 n=a5 v=0
93664 On ch=1 n=a#5 v=32
93694 On ch=1 n=a#5 v=0
93696 On ch=1 n=b5 v=30
93728 On ch=1 n=b5 v=0
93728 On ch=1 n=c#6 v=30
93760 On ch=1 n=c#6 v=0
93760 On ch=1 n=b5 v=30
93792 On ch=1 n=b5 v=0
93792 On ch=1 n=c#6 v=30
93792 On ch=1 n=b4 v=30
93792 On ch=1 n=e5 v=30
93792 On ch=1 n=g5 v=30
93824 On ch=1 n=c#6 v=0
93824 On ch=1 n=b4 v=0
93824 On ch=1 n=e5 v=0
93824 On ch=1 n=g5 v=0
93824 On ch=1 n=b5 v=30
93856 On ch=1 n=b5 v=0
93856 On ch=1 n=c#6 v=30
93888 On ch=1 n=c#6 v=0
93888 On ch=1 n=b5 v=30
93888 On ch=1 n=b4 v=30
93888 On ch=1 n=e5 v=30
93888 On ch=1 n=g#5 v=30
93920 On ch=1 n=b5 v=0
93920 On ch=1 n=b4 v=0
93920 On ch=1 n=e5 v=0
93920 On ch=1 n=g#5 v=0
93920 On ch=1 n=d#5 v=30
93952 On ch=1 n=d#5 v=0
93952 On ch=1 n=e5 v=30
93984 On ch=1 n=e5 v=0
93984 On ch=1 n=f#5 v=30
94016 On ch=1 n=f#5 v=0
94016 On ch=1 n=e5 v=30
94048 On ch=1 n=e5 v=0
94048 On ch=1 n=f#5 v=30
94078 On ch=1 n=f#5 v=0
94080 On ch=1 n=g#5 v=30
94112 On ch=1 n=g#5 v=0
94112 On ch=1 n=a5 v=30
94144 On ch=1 n=a5 v=0
94144 On ch=1 n=g#5 v=30
94176 On ch=1 n=g#5 v=0
94176 On ch=1 n=a5 v=30
94176 On ch=1 n=g#4 v=30
94176 On ch=1 n=b4 v=30
94176 On ch=1 n=d#5 v=30
94208 On ch=1 n=a5 v=0
94208 On ch=1 n=g#4 v=0
94208 On ch=1 n=b4 v=0
94208 On ch=1 n=d#5 v=0
94208 On ch=1 n=g#5 v=30
94240 On ch=1 n=g#5 v=0
94240 On ch=1 n=a5 v=30
94272 On ch=1 n=a5 v=0
94272 On ch=1 n=g#5 v=30
94272 On ch=1 n=g#4 v=30
94272 On ch=1 n=b4 v=30
94272 On ch=1 n=e5 v=30
94304 On ch=1 n=g#5 v=0
94304 On ch=1 n=g#4 v=0
94304 On ch=1 n=b4 v=0
94304 On ch=1 n=e5 v=0
94304 On ch=1 n=b4 v=30
94336 On ch=1 n=b4 v=0
94336 On ch=1 n=c#5 v=30
94368 On ch=1 n=c#5 v=0
94368 On ch=1 n=d#5 v=30
94400 On ch=1 n=d#5 v=0
94400 On ch=1 n=c#5 v=30
94432 On ch=1 n=c#5 v=0
94432 On ch=1 n=d#5 v=30
94462 On ch=1 n=d#5 v=0
94464 On ch=1 n=e5 v=30
94496 On ch=1 n=e5 v=0
94496 On ch=1 n=g4 v=30
94528 On ch=1 n=g4 v=0
94528 On ch=1 n=a4 v=30
94560 On ch=1 n=a4 v=0
94560 On ch=1 n=a#4 v=30
94560 On ch=1 n=c#4 v=30
94560 On ch=1 n=e4 v=30
94592 On ch=1 n=a#4 v=0
94592 On ch=1 n=c#4 v=0
94592 On ch=1 n=e4 v=0
94592 On ch=1 n=a4 v=30
94624 On ch=1 n=a4 v=0
94624 On ch=1 n=a#4 v=30
94656 On ch=1 n=a#4 v=0
94656 On ch=1 n=b4 v=30
94656 On ch=1 n=b3 v=30
94656 On ch=1 n=e4 v=30
94688 On ch=1 n=b4 v=0
94688 On ch=1 n=b3 v=0
94688 On ch=1 n=e4 v=0
94688 On ch=1 n=g#4 v=30
94720 On ch=1 n=g#4 v=0
94720 On ch=1 n=e4 v=30
94752 On ch=1 n=e4 v=0
94752 On ch=1 n=c#4 v=30
94784 On ch=1 n=c#4 v=0
94784 On ch=1 n=d#4 v=30
94816 On ch=1 n=d#4 v=0
94816 On ch=1 n=c#4 v=30
94846 On ch=1 n=c#4 v=0
94848 On ch=1 n=b3 v=30
94880 On ch=1 n=b3 v=0
94880 On ch=1 n=g3 v=30
94912 On ch=1 n=g3 v=0
94912 On ch=1 n=a#3 v=30
94944 On ch=1 n=a#3 v=0
94944 On ch=1 n=a#3 v=30
94944 On ch=1 n=c#3 v=30
94944 On ch=1 n=e3 v=30
94976 On ch=1 n=a#3 v=0
94976 On ch=1 n=c#3 v=0
94976 On ch=1 n=e3 v=0
94976 On ch=1 n=a3 v=30
95008 On ch=1 n=a3 v=0
95008 On ch=1 n=a#3 v=30
95040 On ch=1 n=a#3 v=0
95040 On ch=1 n=b3 v=30
95040 On ch=1 n=b2 v=30
95040 On ch=1 n=e3 v=30
95072 On ch=1 n=b3 v=0
95072 On ch=1 n=b2 v=0
95072 On ch=1 n=e3 v=0
95072 On ch=1 n=g#3 v=30
95104 On ch=1 n=g#3 v=0
95104 On ch=1 n=e3 v=30
95136 On ch=1 n=e3 v=0
95136 On ch=1 n=c#3 v=30
95168 On ch=1 n=c#3 v=0
95168 On ch=1 n=d#3 v=30
95200 On ch=1 n=d#3 v=0
95200 On ch=1 n=c#3 v=30
95230 On ch=1 n=c#3 v=0
95232 On ch=1 n=b3 v=30
95232 On ch=1 n=b2 v=30
95278 On ch=1 n=b3 v=0
95278 On ch=1 n=b2 v=0
95280 On ch=1 n=c#4 v=30
95280 On ch=1 n=c#3 v=30
95294 On ch=1 n=c#4 v=0
95294 On ch=1 n=c#3 v=0
95296 On ch=1 n=b3 v=30
95296 On ch=1 n=b2 v=30
95310 On ch=1 n=b3 v=0
95310 On ch=1 n=b2 v=0
95312 On ch=1 n=c#4 v=30
95312 On ch=1 n=c#3 v=30
95326 On ch=1 n=c#4 v=0
95326 On ch=1 n=c#3 v=0
95328 On ch=1 n=b3 v=30
95328 On ch=1 n=b2 v=30
95342 On ch=1 n=b3 v=0
95342 On ch=1 n=b2 v=0
95344 On ch=1 n=c#4 v=30
95344 On ch=1 n=c#3 v=30
95358 On ch=1 n=c#4 v=0
95358 On ch=1 n=c#3 v=0
95360 On ch=1 n=b3 v=30
95360 On ch=1 n=b2 v=30
95374 On ch=1 n=b3 v=0
95374 On ch=1 n=b2 v=0
95376 On ch=1 n=a#3 v=30
95376 On ch=1 n=a#2 v=30
95390 On ch=1 n=a#3 v=0
95390 On ch=1 n=a#2 v=0
95392 On ch=1 n=b3 v=30
95392 On ch=1 n=b2 v=30
95406 On ch=1 n=b3 v=0
95406 On ch=1 n=b2 v=0
95408 On ch=1 n=c#4 v=30
95408 On ch=1 n=c#3 v=30
95422 On ch=1 n=c#4 v=0
95422 On ch=1 n=c#3 v=0
95424 On ch=1 n=b3 v=30
95424 On ch=1 n=b2 v=30
95438 On ch=1 n=b3 v=0
95438 On ch=1 n=b2 v=0
95440 On ch=1 n=c#4 v=32
95440 On ch=1 n=c#3 v=32
95454 On ch=1 n=c#4 v=0
95454 On ch=1 n=c#3 v=0
95456 On ch=1 n=b3 v=34
95456 On ch=1 n=b2 v=34
95470 On ch=1 n=b3 v=0
95470 On ch=1 n=b2 v=0
95472 On ch=1 n=c#4 v=36
95472 On ch=1 n=c#3 v=36
95486 On ch=1 n=c#4 v=0
95486 On ch=1 n=c#3 v=0
95488 On ch=1 n=b3 v=38
95488 On ch=1 n=b2 v=38
95502 On ch=1 n=b3 v=0
95502 On ch=1 n=b2 v=0
95504 On ch=1 n=c#4 v=40
95504 On ch=1 n=c#3 v=40
95518 On ch=1 n=c#4 v=0
95518 On ch=1 n=c#3 v=0
95520 On ch=1 n=b3 v=42
95520 On ch=1 n=b2 v=42
95534 On ch=1 n=b3 v=0
95534 On ch=1 n=b2 v=0
95536 On ch=1 n=c#4 v=44
95536 On ch=1 n=c#3 v=44
95550 On ch=1 n=c#4 v=0
95550 On ch=1 n=c#3 v=0
95552 On ch=1 n=b3 v=46
95552 On ch=1 n=b2 v=46
95566 On ch=1 n=b3 v=0
95566 On ch=1 n=b2 v=0
95568 On ch=1 n=a#3 v=48
95568 On ch=1 n=a#2 v=48
95582 On ch=1 n=a#3 v=0
95582 On ch=1 n=a#2 v=0
95584 On ch=1 n=b3 v=50
95584 On ch=1 n=b2 v=50
95598 On ch=1 n=b3 v=0
95598 On ch=1 n=b2 v=0
95600 On ch=1 n=c#4 v=52
95600 On ch=1 n=c#3 v=52
95614 On ch=1 n=c#4 v=0
95614 On ch=1 n=c#3 v=0
95616 On ch=1 n=b3 v=54
95616 On ch=1 n=b2 v=54
95632 On ch=1 n=b3 v=0
95632 On ch=1 n=b2 v=0
95634 On ch=1 n=c#4 v=57
95634 On ch=1 n=c#3 v=57
95650 On ch=1 n=c#4 v=0
95650 On ch=1 n=c#3 v=0
95652 On ch=1 n=d#4 v=60
95652 On ch=1 n=d#3 v=60
95668 On ch=1 n=d#4 v=0
95668 On ch=1 n=d#3 v=0
95670 On ch=1 n=e4 v=63
95670 On ch=1 n=e3 v=63
95686 On ch=1 n=e4 v=0
95686 On ch=1 n=e3 v=0
95688 On ch=1 n=f#4 v=66
95688 On ch=1 n=f#3 v=66
95698 On ch=1 n=f#4 v=0
95698 On ch=1 n=f#3 v=0
95700 On ch=1 n=g#4 v=68
95700 On ch=1 n=g#3 v=68
95710 On ch=1 n=g#4 v=0
95710 On ch=1 n=g#3 v=0
95712 On ch=1 n=a4 v=70
95712 On ch=1 n=a3 v=70
95722 On ch=1 n=a4 v=0
95722 On ch=1 n=a3 v=0
95724 On ch=1 n=b4 v=72
95724 On ch=1 n=b3 v=72
95734 On ch=1 n=b4 v=0
95734 On ch=1 n=b3 v=0
95736 On ch=1 n=c#5 v=74
95736 On ch=1 n=c#4 v=74
95746 On ch=1 n=c#5 v=0
95746 On ch=1 n=c#4 v=0
95748 On ch=1 n=d#5 v=76
95748 On ch=1 n=d#4 v=76
95758 On ch=1 n=d#5 v=0
95758 On ch=1 n=d#4 v=0
95760 On ch=1 n=e5 v=78
95760 On ch=1 n=e4 v=78
95770 On ch=1 n=e5 v=0
95770 On ch=1 n=e4 v=0
95772 On ch=1 n=f#5 v=80
95772 On ch=1 n=f#4 v=80
95782 On ch=1 n=f#5 v=0
95782 On ch=1 n=f#4 v=0
95784 On ch=1 n=g#5 v=82
95784 On ch=1 n=g#4 v=82
95794 On ch=1 n=g#5 v=0
95794 On ch=1 n=g#4 v=0
95796 On ch=1 n=a5 v=84
95796 On ch=1 n=a4 v=84
95806 On ch=1 n=a5 v=0
95806 On ch=1 n=a4 v=0
95808 On ch=1 n=b5 v=86
95808 On ch=1 n=b4 v=86
95818 On ch=1 n=b5 v=0
95818 On ch=1 n=b4 v=0
95820 On ch=1 n=c#6 v=88
95820 On ch=1 n=c#5 v=88
95830 On ch=1 n=c#6 v=0
95830 On ch=1 n=c#5 v=0
95832 On ch=1 n=d#6 v=90
95832 On ch=1 n=d#5 v=90
95842 On ch=1 n=d#6 v=0
95842 On ch=1 n=d#5 v=0
95844 On ch=1 n=e6 v=92
95844 On ch=1 n=e5 v=92
95854 On ch=1 n=e6 v=0
95854 On ch=1 n=e5 v=0
95856 On ch=1 n=f#6 v=94
95856 On ch=1 n=f#5 v=94
95866 On ch=1 n=f#6 v=0
95866 On ch=1 n=f#5 v=0
95868 On ch=1 n=g#5 v=96
95868 On ch=1 n=g#6 v=96
95878 On ch=1 n=g#5 v=0
95878 On ch=1 n=g#6 v=0
95880 On ch=1 n=a5 v=98
95880 On ch=1 n=b6 v=98
95890 On ch=1 n=a5 v=0
95890 On ch=1 n=b6 v=0
95892 On ch=1 n=b5 v=100
95892 On ch=1 n=c#7 v=100
95902 On ch=1 n=b5 v=0
95902 On ch=1 n=c#7 v=0
95904 On ch=1 n=c#6 v=103
95904 On ch=1 n=d#7 v=103
95914 On ch=1 n=c#6 v=0
95914 On ch=1 n=d#7 v=0
95916 On ch=1 n=e7 v=106
95916 On ch=1 n=d#6 v=106
95926 On ch=1 n=e7 v=0
95926 On ch=1 n=d#6 v=0
95928 On ch=1 n=f#7 v=109
95928 On ch=1 n=e6 v=109
95944 On ch=1 n=f#7 v=0
95944 On ch=1 n=e6 v=0
95946 On ch=1 n=g#7 v=113
95946 On ch=1 n=f#6 v=113
95962 On ch=1 n=g#7 v=0
95962 On ch=1 n=f#6 v=0
95964 On ch=1 n=a7 v=117
95964 On ch=1 n=g#6 v=117
95980 On ch=1 n=a7 v=0
95980 On ch=1 n=g#6 v=0
95982 On ch=1 n=b7 v=122
95982 On ch=1 n=b6 v=122
95998 On ch=1 n=b7 v=0
95998 On ch=1 n=b6 v=0
96000 On ch=1 n=c7 v=127
96000 On ch=1 n=f7 v=127
96000 On ch=1 n=c8 v=127
96094 On ch=1 n=c7 v=0
96094 On ch=1 n=f7 v=0
96094 On ch=1 n=c8 v=0
96768 On ch=1 n=a2 v=127
96830 On ch=1 n=a2 v=0
96832 On ch=1 n=c3 v=127
96894 On ch=1 n=c3 v=0
96896 On ch=1 n=f3 v=127
96958 On ch=1 n=f3 v=0
96960 On ch=1 n=g#3 v=127
97022 On ch=1 n=g#3 v=0
97024 On ch=1 n=a3 v=127
97086 On ch=1 n=a3 v=0
97088 On ch=1 n=b3 v=127
97150 On ch=1 n=b3 v=0
97152 On ch=1 n=c4 v=127
97246 On ch=1 n=c4 v=0
97248 On ch=1 n=c3 v=108
97294 On ch=1 n=c3 v=0
97296 On ch=1 n=f3 v=108
97342 On ch=1 n=f3 v=0
97344 On ch=1 n=a3 v=108
97374 On ch=1 n=a3 v=0
97376 On ch=1 n=b3 v=108
97406 On ch=1 n=b3 v=0
97408 On ch=1 n=c4 v=108
97438 On ch=1 n=c4 v=0
97440 On ch=1 n=c4 v=108
97470 On ch=1 n=c4 v=0
97472 On ch=1 n=e4 v=108
97502 On ch=1 n=e4 v=0
97504 On ch=1 n=f4 v=108
97534 On ch=1 n=f4 v=0
97536 On ch=1 n=a3 v=108
97584 On ch=1 n=a3 v=0
97584 On ch=1 n=c4 v=108
97630 On ch=1 n=c4 v=0
97632 On ch=1 n=c4 v=108
97662 On ch=1 n=c4 v=0
97664 On ch=1 n=e4 v=108
97694 On ch=1 n=e4 v=0
97696 On ch=1 n=f4 v=108
97726 On ch=1 n=f4 v=0
97728 On ch=1 n=f4 v=108
97758 On ch=1 n=f4 v=0
97760 On ch=1 n=g#4 v=108
97790 On ch=1 n=g#4 v=0
97792 On ch=1 n=a4 v=108
97822 On ch=1 n=a4 v=0
97824 On ch=1 n=c4 v=108
97872 On ch=1 n=c4 v=0
97872 On ch=1 n=f4 v=108
97918 On ch=1 n=f4 v=0
97920 On ch=1 n=f4 v=108
97950 On ch=1 n=f4 v=0
97952 On ch=1 n=g#4 v=108
97982 On ch=1 n=g#4 v=0
97984 On ch=1 n=a4 v=108
98014 On ch=1 n=a4 v=0
98016 On ch=1 n=a4 v=108
98046 On ch=1 n=a4 v=0
98048 On ch=1 n=b4 v=108
98078 On ch=1 n=b4 v=0
98080 On ch=1 n=c5 v=108
98110 On ch=1 n=c5 v=0
98112 On ch=1 n=f4 v=108
98160 On ch=1 n=f4 v=0
98160 On ch=1 n=a4 v=108
98206 On ch=1 n=a4 v=0
98208 On ch=1 n=a4 v=108
98240 On ch=1 n=a4 v=0
98240 On ch=1 n=b4 v=108
98272 On ch=1 n=b4 v=0
98272 On ch=1 n=c5 v=108
98302 On ch=1 n=c5 v=0
98304 On ch=1 n=c5 v=108
98336 On ch=1 n=c5 v=0
98336 On ch=1 n=f5 v=108
98368 On ch=1 n=f5 v=0
98368 On ch=1 n=f5 v=108
98398 On ch=1 n=f5 v=0
98400 On ch=1 n=a4 v=108
98448 On ch=1 n=a4 v=0
98448 On ch=1 n=c5 v=108
98494 On ch=1 n=c5 v=0
98496 On ch=1 n=c5 v=108
98528 On ch=1 n=c5 v=0
98528 On ch=1 n=f5 v=108
98560 On ch=1 n=f5 v=0
98560 On ch=1 n=f5 v=108
98590 On ch=1 n=f5 v=0
98592 On ch=1 n=f5 v=108
98624 On ch=1 n=f5 v=0
98624 On ch=1 n=g#5 v=108
98656 On ch=1 n=g#5 v=0
98656 On ch=1 n=a5 v=108
98686 On ch=1 n=a5 v=0
98688 On ch=1 n=e5 v=108
98688 On ch=1 n=g#5 v=108
98718 On ch=1 n=e5 v=0
98718 On ch=1 n=g#5 v=0
98720 On ch=1 n=f5 v=108
98720 On ch=1 n=a5 v=108
98750 On ch=1 n=f5 v=0
98750 On ch=1 n=a5 v=0
98752 On ch=1 n=f5 v=108
98752 On ch=1 n=a5 v=108
98782 On ch=1 n=f5 v=0
98782 On ch=1 n=a5 v=0
98784 On ch=1 n=g#5 v=108
98784 On ch=1 n=b5 v=108
98814 On ch=1 n=g#5 v=0
98814 On ch=1 n=b5 v=0
98816 On ch=1 n=a5 v=108
98816 On ch=1 n=c6 v=108
98846 On ch=1 n=a5 v=0
98846 On ch=1 n=c6 v=0
98848 On ch=1 n=a5 v=108
98848 On ch=1 n=c6 v=108
98878 On ch=1 n=a5 v=0
98878 On ch=1 n=c6 v=0
98880 On ch=1 n=b5 v=108
98880 On ch=1 n=e6 v=108
98910 On ch=1 n=b5 v=0
98910 On ch=1 n=e6 v=0
98912 On ch=1 n=c6 v=108
98912 On ch=1 n=f6 v=108
98942 On ch=1 n=c6 v=0
98942 On ch=1 n=f6 v=0
98944 On ch=1 n=c6 v=108
98944 On ch=1 n=f6 v=108
98974 On ch=1 n=c6 v=0
98974 On ch=1 n=f6 v=0
98976 On ch=1 n=e6 v=108
98976 On ch=1 n=g#6 v=108
99006 On ch=1 n=e6 v=0
99006 On ch=1 n=g#6 v=0
99008 On ch=1 n=f6 v=108
99008 On ch=1 n=a6 v=108
99038 On ch=1 n=f6 v=0
99038 On ch=1 n=a6 v=0
99040 On ch=1 n=f6 v=108
99040 On ch=1 n=a6 v=108
99070 On ch=1 n=f6 v=0
99070 On ch=1 n=a6 v=0
99072 On ch=1 n=g#6 v=108
99072 On ch=1 n=b6 v=108
99102 On ch=1 n=g#6 v=0
99102 On ch=1 n=b6 v=0
99104 On ch=1 n=a6 v=108
99104 On ch=1 n=c7 v=108
99134 On ch=1 n=a6 v=0
99134 On ch=1 n=c7 v=0
99136 On ch=1 n=a6 v=108
99136 On ch=1 n=c7 v=108
99166 On ch=1 n=a6 v=0
99166 On ch=1 n=c7 v=0
99168 On ch=1 n=b6 v=108
99168 On ch=1 n=e7 v=108
99198 On ch=1 n=b6 v=0
99198 On ch=1 n=e7 v=0
99200 On ch=1 n=c7 v=108
99200 On ch=1 n=f7 v=108
99230 On ch=1 n=c7 v=0
99230 On ch=1 n=f7 v=0
99232 On ch=1 n=c7 v=108
99232 On ch=1 n=f7 v=108
99262 On ch=1 n=c7 v=0
99262 On ch=1 n=f7 v=0
99264 On ch=1 n=e7 v=108
99264 On ch=1 n=g#7 v=108
99294 On ch=1 n=e7 v=0
99294 On ch=1 n=g#7 v=0
99296 On ch=1 n=f7 v=108
99296 On ch=1 n=a7 v=108
99326 On ch=1 n=f7 v=0
99326 On ch=1 n=a7 v=0
99328 On ch=1 n=f7 v=108
99328 On ch=1 n=a7 v=108
99358 On ch=1 n=f7 v=0
99358 On ch=1 n=a7 v=0
99360 On ch=1 n=g#7 v=108
99360 On ch=1 n=b7 v=108
99390 On ch=1 n=g#7 v=0
99390 On ch=1 n=b7 v=0
99392 On ch=1 n=a7 v=108
99392 On ch=1 n=c8 v=108
99422 On ch=1 n=a7 v=0
99422 On ch=1 n=c8 v=0
99424 On ch=1 n=a7 v=108
99424 On ch=1 n=c8 v=108
99454 On ch=1 n=a7 v=0
99454 On ch=1 n=c8 v=0
99456 On ch=1 n=b7 v=127
99456 On ch=1 n=d#8 v=127
99486 On ch=1 n=b7 v=0
99486 On ch=1 n=d#8 v=0
99488 On ch=1 n=c8 v=127
99488 On ch=1 n=e8 v=127
99518 On ch=1 n=c8 v=0
99518 On ch=1 n=e8 v=0
99520 On ch=1 n=c8 v=127
99520 On ch=1 n=e8 v=127
99550 On ch=1 n=c8 v=0
99550 On ch=1 n=e8 v=0
99552 On ch=1 n=g#7 v=127
99552 On ch=1 n=b7 v=127
99582 On ch=1 n=g#7 v=0
99582 On ch=1 n=b7 v=0
99584 On ch=1 n=a7 v=127
99584 On ch=1 n=c8 v=127
99614 On ch=1 n=a7 v=0
99614 On ch=1 n=c8 v=0
99616 On ch=1 n=a7 v=127
99616 On ch=1 n=c8 v=127
99646 On ch=1 n=a7 v=0
99646 On ch=1 n=c8 v=0
99648 On ch=1 n=b7 v=127
99648 On ch=1 n=d#8 v=127
99678 On ch=1 n=b7 v=0
99678 On ch=1 n=d#8 v=0
99680 On ch=1 n=c8 v=127
99680 On ch=1 n=e8 v=127
99710 On ch=1 n=c8 v=0
99710 On ch=1 n=e8 v=0
99712 On ch=1 n=c8 v=127
99712 On ch=1 n=e8 v=127
99742 On ch=1 n=c8 v=0
99742 On ch=1 n=e8 v=0
99744 On ch=1 n=g#7 v=127
99744 On ch=1 n=b7 v=127
99774 On ch=1 n=g#7 v=0
99774 On ch=1 n=b7 v=0
99776 On ch=1 n=a7 v=127
99776 On ch=1 n=c8 v=127
99806 On ch=1 n=a7 v=0
99806 On ch=1 n=c8 v=0
99808 On ch=1 n=a7 v=127
99808 On ch=1 n=c8 v=127
99838 On ch=1 n=a7 v=0
99838 On ch=1 n=c8 v=0
99840 On ch=1 n=b7 v=127
99840 On ch=1 n=d#8 v=127
99862 On ch=1 n=b7 v=0
99862 On ch=1 n=d#8 v=0
99864 On ch=1 n=c8 v=127
99864 On ch=1 n=e8 v=127
99886 On ch=1 n=c8 v=0
99886 On ch=1 n=e8 v=0
99888 On ch=1 n=g#7 v=127
99888 On ch=1 n=b7 v=127
99910 On ch=1 n=g#7 v=0
99910 On ch=1 n=b7 v=0
99912 On ch=1 n=a7 v=127
99912 On ch=1 n=c8 v=127
99934 On ch=1 n=a7 v=0
99934 On ch=1 n=c8 v=0
99936 On ch=1 n=b7 v=127
99936 On ch=1 n=d#8 v=127
99958 On ch=1 n=b7 v=0
99958 On ch=1 n=d#8 v=0
99960 On ch=1 n=c8 v=127
99960 On ch=1 n=e8 v=127
99982 On ch=1 n=c8 v=0
99982 On ch=1 n=e8 v=0
99984 On ch=1 n=g#7 v=127
99984 On ch=1 n=b7 v=127
100006 On ch=1 n=g#7 v=0
100006 On ch=1 n=b7 v=0
100008 On ch=1 n=a7 v=127
100008 On ch=1 n=c8 v=127
100030 On ch=1 n=a7 v=0
100030 On ch=1 n=c8 v=0
100032 On ch=1 n=b7 v=127
100032 On ch=1 n=d#8 v=127
100054 On ch=1 n=b7 v=0
100054 On ch=1 n=d#8 v=0
100056 On ch=1 n=c8 v=127
100056 On ch=1 n=e8 v=127
100078 On ch=1 n=c8 v=0
100078 On ch=1 n=e8 v=0
100080 On ch=1 n=g#7 v=127
100080 On ch=1 n=b7 v=127
100102 On ch=1 n=g#7 v=0
100102 On ch=1 n=b7 v=0
100104 On ch=1 n=a7 v=127
100104 On ch=1 n=c8 v=127
100126 On ch=1 n=a7 v=0
100126 On ch=1 n=c8 v=0
100128 On ch=1 n=b7 v=127
100128 On ch=1 n=d#8 v=127
100150 On ch=1 n=b7 v=0
100150 On ch=1 n=d#8 v=0
100152 On ch=1 n=c8 v=127
100152 On ch=1 n=e8 v=127
100174 On ch=1 n=c8 v=0
100174 On ch=1 n=e8 v=0
100176 On ch=1 n=g#7 v=127
100176 On ch=1 n=b7 v=127
100198 On ch=1 n=g#7 v=0
100198 On ch=1 n=b7 v=0
100200 On ch=1 n=a7 v=127
100200 On ch=1 n=c8 v=127
100222 On ch=1 n=a7 v=0
100222 On ch=1 n=c8 v=0
100224 On ch=1 n=b7 v=127
100224 On ch=1 n=d#8 v=127
100246 On ch=1 n=b7 v=0
100246 On ch=1 n=d#8 v=0
100248 On ch=1 n=c8 v=125
100248 On ch=1 n=e8 v=125
100270 On ch=1 n=c8 v=0
100270 On ch=1 n=e8 v=0
100272 On ch=1 n=b7 v=123
100272 On ch=1 n=d#8 v=123
100294 On ch=1 n=b7 v=0
100294 On ch=1 n=d#8 v=0
100296 On ch=1 n=c8 v=121
100296 On ch=1 n=e8 v=121
100318 On ch=1 n=c8 v=0
100318 On ch=1 n=e8 v=0
100320 On ch=1 n=d#8 v=119
100320 On ch=1 n=b7 v=119
100342 On ch=1 n=d#8 v=0
100342 On ch=1 n=b7 v=0
100344 On ch=1 n=e8 v=117
100344 On ch=1 n=c8 v=117
100366 On ch=1 n=e8 v=0
100366 On ch=1 n=c8 v=0
100368 On ch=1 n=d#8 v=115
100368 On ch=1 n=b7 v=115
100390 On ch=1 n=d#8 v=0
100390 On ch=1 n=b7 v=0
100392 On ch=1 n=c8 v=113
100392 On ch=1 n=e8 v=113
100414 On ch=1 n=c8 v=0
100414 On ch=1 n=e8 v=0
100416 On ch=1 n=b7 v=111
100416 On ch=1 n=d#8 v=111
100438 On ch=1 n=b7 v=0
100438 On ch=1 n=d#8 v=0
100440 On ch=1 n=c8 v=109
100440 On ch=1 n=e8 v=109
100462 On ch=1 n=c8 v=0
100462 On ch=1 n=e8 v=0
100464 On ch=1 n=b7 v=107
100464 On ch=1 n=d#8 v=107
100486 On ch=1 n=b7 v=0
100486 On ch=1 n=d#8 v=0
100488 On ch=1 n=c8 v=105
100488 On ch=1 n=e8 v=105
100510 On ch=1 n=c8 v=0
100510 On ch=1 n=e8 v=0
100512 On ch=1 n=b7 v=103
100512 On ch=1 n=d#8 v=103
100534 On ch=1 n=b7 v=0
100534 On ch=1 n=d#8 v=0
100536 On ch=1 n=c8 v=101
100536 On ch=1 n=e8 v=101
100558 On ch=1 n=c8 v=0
100558 On ch=1 n=e8 v=0
100560 On ch=1 n=b7 v=99
100560 On ch=1 n=d#8 v=99
100582 On ch=1 n=b7 v=0
100582 On ch=1 n=d#8 v=0
100584 On ch=1 n=c8 v=97
100584 On ch=1 n=e8 v=97
100606 On ch=1 n=c8 v=0
100606 On ch=1 n=e8 v=0
100608 On ch=1 n=b7 v=95
100608 On ch=1 n=d#8 v=95
100630 On ch=1 n=b7 v=0
100630 On ch=1 n=d#8 v=0
100632 On ch=1 n=c8 v=93
100632 On ch=1 n=e8 v=93
100654 On ch=1 n=c8 v=0
100654 On ch=1 n=e8 v=0
100656 On ch=1 n=b7 v=91
100656 On ch=1 n=d#8 v=91
100678 On ch=1 n=b7 v=0
100678 On ch=1 n=d#8 v=0
100680 On ch=1 n=c8 v=89
100680 On ch=1 n=e8 v=89
100702 On ch=1 n=c8 v=0
100702 On ch=1 n=e8 v=0
100704 On ch=1 n=b7 v=87
100704 On ch=1 n=d#8 v=87
100726 On ch=1 n=b7 v=0
100726 On ch=1 n=d#8 v=0
100728 On ch=1 n=c8 v=85
100728 On ch=1 n=e8 v=85
100750 On ch=1 n=c8 v=0
100750 On ch=1 n=e8 v=0
100752 On ch=1 n=b7 v=83
100752 On ch=1 n=d#8 v=83
100774 On ch=1 n=b7 v=0
100774 On ch=1 n=d#8 v=0
100776 On ch=1 n=c8 v=81
100776 On ch=1 n=e8 v=81
100798 On ch=1 n=c8 v=0
100798 On ch=1 n=e8 v=0
100800 On ch=1 n=b7 v=79
100800 On ch=1 n=d#8 v=79
100822 On ch=1 n=b7 v=0
100822 On ch=1 n=d#8 v=0
100824 On ch=1 n=c8 v=77
100824 On ch=1 n=e8 v=77
100846 On ch=1 n=c8 v=0
100846 On ch=1 n=e8 v=0
100848 On ch=1 n=b7 v=75
100848 On ch=1 n=d#8 v=75
100870 On ch=1 n=b7 v=0
100870 On ch=1 n=d#8 v=0
100872 On ch=1 n=c8 v=73
100872 On ch=1 n=e8 v=73
100894 On ch=1 n=c8 v=0
100894 On ch=1 n=e8 v=0
100896 On ch=1 n=b7 v=71
100896 On ch=1 n=d#8 v=71
100918 On ch=1 n=b7 v=0
100918 On ch=1 n=d#8 v=0
100920 On ch=1 n=c8 v=69
100920 On ch=1 n=e8 v=69
100942 On ch=1 n=c8 v=0
100942 On ch=1 n=e8 v=0
100944 On ch=1 n=b7 v=66
100944 On ch=1 n=d#8 v=66
100990 On ch=1 n=b7 v=0
100990 On ch=1 n=d#8 v=0
100992 On ch=1 n=c8 v=60
100992 On ch=1 n=e8 v=60
101152 On ch=1 n=c8 v=0
101152 On ch=1 n=e8 v=0
101376 Par ch=1 c=64 v=127
101376 On ch=1 n=g2 v=60
101536 On ch=1 n=g2 v=0
101568 On ch=1 n=g3 v=60
101728 On ch=1 n=g3 v=0
101760 On ch=1 n=e4 v=60
101772 On ch=1 n=g4 v=60
101784 On ch=1 n=c5 v=60
101796 On ch=1 n=e5 v=60
101808 On ch=1 n=g5 v=60
101820 On ch=1 n=c6 v=60
101832 On ch=1 n=e6 v=60
101844 On ch=1 n=g6 v=60
101856 On ch=1 n=c7 v=60
101868 On ch=1 n=e7 v=60
102480 On ch=1 n=e4 v=0
102480 On ch=1 n=g4 v=0
102480 On ch=1 n=c5 v=0
102480 On ch=1 n=e5 v=0
102480 On ch=1 n=g5 v=0
102480 On ch=1 n=c6 v=0
102480 On ch=1 n=e6 v=0
102480 On ch=1 n=g6 v=0
102480 On ch=1 n=c7 v=0
102480 On ch=1 n=e7 v=0
102480 Par ch=1 c=64 v=0
102528 Par ch=1 c=64 v=127
102528 On ch=1 n=f#2 v=60
102688 On ch=1 n=f#2 v=0
102720 On ch=1 n=f#3 v=60
102880 On ch=1 n=f#3 v=0
102912 On ch=1 n=c4 v=92
102924 On ch=1 n=e4 v=92
102936 On ch=1 n=a4 v=92
102948 On ch=1 n=c5 v=92
102972 On ch=1 n=e5 v=92
102984 On ch=1 n=a5 v=92
102996 On ch=1 n=c6 v=92
103008 On ch=1 n=e6 v=92
103632 On ch=1 n=c4 v=0
103632 On ch=1 n=e4 v=0
103632 On ch=1 n=a4 v=0
103632 On ch=1 n=c5 v=0
103632 On ch=1 n=e5 v=0
103632 On ch=1 n=a5 v=0
103632 On ch=1 n=c6 v=0
103632 On ch=1 n=e6 v=0
103632 Par ch=1 c=64 v=0
103680 Par ch=1 c=64 v=127
103680 On ch=1 n=f2 v=92
103840 On ch=1 n=f2 v=0
103872 On ch=1 n=f3 v=92
104032 On ch=1 n=f3 v=0
104064 On ch=1 n=c4 v=92
104076 On ch=1 n=d#4 v=92
104088 On ch=1 n=a4 v=92
104100 On ch=1 n=c5 v=92
104112 On ch=1 n=d#5 v=92
104124 On ch=1 n=a5 v=92
104136 On ch=1 n=c6 v=92
104784 On ch=1 n=c4 v=0
104784 On ch=1 n=d#4 v=0
104784 On ch=1 n=a4 v=0
104784 On ch=1 n=c5 v=0
104784 On ch=1 n=d#5 v=0
104784 On ch=1 n=a5 v=0
104784 On ch=1 n=c6 v=0
104784 Par ch=1 c=64 v=0
104832 Par ch=1 c=64 v=127
104832 On ch=1 n=b1 v=92
104878 On ch=1 n=b1 v=0
104880 On ch=1 n=b2 v=92
104926 On ch=1 n=b2 v=0
104928 On ch=1 n=f#3 v=92
104974 On ch=1 n=f#3 v=0
104976 On ch=1 n=b3 v=92
105022 On ch=1 n=b3 v=0
105024 On ch=1 n=d#4 v=92
105070 On ch=1 n=d#4 v=0
105072 On ch=1 n=f#4 v=92
105118 On ch=1 n=f#4 v=0
105120 On ch=1 n=a4 v=92
105166 On ch=1 n=a4 v=0
105168 On ch=1 n=b4 v=92
105214 On ch=1 n=b4 v=0
105216 On ch=1 n=d#5 v=92
105262 On ch=1 n=d#5 v=0
105264 On ch=1 n=a5 v=92
105310 On ch=1 n=a5 v=0
105312 On ch=1 n=a5 v=92
105552 Par ch=1 c=64 v=0
105598 On ch=1 n=a5 v=0
105600 On ch=1 n=f5 v=75
105622 On ch=1 n=f5 v=0
105624 On ch=1 n=g#5 v=75
105646 On ch=1 n=g#5 v=0
105648 On ch=1 n=f#5 v=75
105670 On ch=1 n=f#5 v=0
105672 On ch=1 n=a5 v=75
105694 On ch=1 n=a5 v=0
105696 On ch=1 n=g#5 v=75
105718 On ch=1 n=g#5 v=0
105720 On ch=1 n=b5 v=75
105742 On ch=1 n=b5 v=0
105744 On ch=1 n=a5 v=75
105766 On ch=1 n=a5 v=0
105768 On ch=1 n=c#6 v=75
105790 On ch=1 n=c#6 v=0
105792 On ch=1 n=b5 v=75
105814 On ch=1 n=b5 v=0
105816 On ch=1 n=a5 v=75
105838 On ch=1 n=a5 v=0
105840 On ch=1 n=g#5 v=75
105862 On ch=1 n=g#5 v=0
105864 On ch=1 n=f#5 v=75
105886 On ch=1 n=f#5 v=0
105888 On ch=1 n=f5 v=75
105910 On ch=1 n=f5 v=0
105912 On ch=1 n=g#5 v=75
105934 On ch=1 n=g#5 v=0
105936 On ch=1 n=f#5 v=75
105958 On ch=1 n=f#5 v=0
105960 On ch=1 n=a5 v=75
105982 On ch=1 n=a5 v=0
105984 On ch=1 n=g#5 v=75
106006 On ch=1 n=g#5 v=0
106008 On ch=1 n=f#5 v=75
106030 On ch=1 n=f#5 v=0
106032 On ch=1 n=e5 v=75
106054 On ch=1 n=e5 v=0
106056 On ch=1 n=d#5 v=75
106078 On ch=1 n=d#5 v=0
106080 On ch=1 n=d5 v=75
106102 On ch=1 n=d5 v=0
106104 On ch=1 n=e5 v=75
106126 On ch=1 n=e5 v=0
106128 On ch=1 n=d#5 v=75
106150 On ch=1 n=d#5 v=0
106152 On ch=1 n=f#5 v=75
106174 On ch=1 n=f#5 v=0
106176 On ch=1 n=e5 v=75
106198 On ch=1 n=e5 v=0
106200 On ch=1 n=d#5 v=75
106222 On ch=1 n=d#5 v=0
106224 On ch=1 n=d5 v=75
106246 On ch=1 n=d5 v=0
106248 On ch=1 n=d#5 v=75
106270 On ch=1 n=d#5 v=0
106272 On ch=1 n=c#5 v=75
106294 On ch=1 n=c#5 v=0
106296 On ch=1 n=d#5 v=75
106318 On ch=1 n=d#5 v=0
106320 On ch=1 n=c#5 v=75
106342 On ch=1 n=c#5 v=0
106344 On ch=1 n=d5 v=75
106366 On ch=1 n=d5 v=0
106368 On ch=1 n=c5 v=75
106390 On ch=1 n=c5 v=0
106392 On ch=1 n=d#5 v=76
106414 On ch=1 n=d#5 v=0
106416 On ch=1 n=c5 v=77
106438 On ch=1 n=c5 v=0
106440 On ch=1 n=c#5 v=78
106462 On ch=1 n=c#5 v=0
106464 On ch=1 n=b4 v=79
106486 On ch=1 n=b4 v=0
106488 On ch=1 n=c#5 v=80
106510 On ch=1 n=c#5 v=0
106512 On ch=1 n=b4 v=81
106534 On ch=1 n=b4 v=0
106536 On ch=1 n=c5 v=82
106558 On ch=1 n=c5 v=0
106560 On ch=1 n=a#4 v=83
106582 On ch=1 n=a#4 v=0
106584 On ch=1 n=c5 v=84
106606 On ch=1 n=c5 v=0
106608 On ch=1 n=a#4 v=85
106630 On ch=1 n=a#4 v=0
106632 On ch=1 n=b4 v=86
106654 On ch=1 n=b4 v=0
106656 On ch=1 n=a4 v=87
106678 On ch=1 n=a4 v=0
106680 On ch=1 n=b4 v=88
106702 On ch=1 n=b4 v=0
106704 On ch=1 n=a#4 v=89
106726 On ch=1 n=a#4 v=0
106728 On ch=1 n=b4 v=90
106750 On ch=1 n=b4 v=0
106752 On ch=1 n=a4 v=91
106774 On ch=1 n=a4 v=0
106776 On ch=1 n=b4 v=92
106798 On ch=1 n=b4 v=0
106800 On ch=1 n=a#4 v=93
106822 On ch=1 n=a#4 v=0
106824 On ch=1 n=b4 v=94
106846 On ch=1 n=b4 v=0
106848 On ch=1 n=a4 v=96
106870 On ch=1 n=a4 v=0
106872 On ch=1 n=b4 v=98
106894 On ch=1 n=b4 v=0
106896 On ch=1 n=a#4 v=100
106918 On ch=1 n=a#4 v=0
106920 On ch=1 n=b4 v=102
106942 On ch=1 n=b4 v=0
106944 On ch=1 n=a4 v=104
106966 On ch=1 n=a4 v=0
106968 On ch=1 n=b4 v=106
106990 On ch=1 n=b4 v=0
106992 On ch=1 n=a4 v=108
107014 On ch=1 n=a4 v=0
107016 On ch=1 n=b4 v=108
107038 On ch=1 n=b4 v=0
107040 On ch=1 n=a4 v=99
107062 On ch=1 n=a4 v=0
107064 On ch=1 n=b4 v=90
107086 On ch=1 n=b4 v=0
107088 On ch=1 n=a4 v=80
107110 On ch=1 n=a4 v=0
107112 On ch=1 n=b4 v=70
107134 On ch=1 n=b4 v=0
107136 On ch=1 n=a4 v=60
107158 On ch=1 n=a4 v=0
107160 On ch=1 n=b4 v=60
107182 On ch=1 n=b4 v=0
107184 On ch=1 n=a4 v=60
107206 On ch=1 n=a4 v=0
107208 On ch=1 n=b4 v=60
107230 On ch=1 n=b4 v=0
107232 On ch=1 n=a4 v=60
107254 On ch=1 n=a4 v=0
107256 On ch=1 n=b4 v=60
107278 On ch=1 n=b4 v=0
107280 On ch=1 n=a4 v=60
107302 On ch=1 n=a4 v=0
107304 On ch=1 n=b4 v=60
107326 On ch=1 n=b4 v=0
107328 On ch=1 n=a4 v=60
107350 On ch=1 n=a4 v=0
107352 On ch=1 n=b4 v=60
107374 On ch=1 n=b4 v=0
107376 On ch=1 n=a4 v=60
107398 On ch=1 n=a4 v=0
107400 On ch=1 n=b4 v=60
107422 On ch=1 n=b4 v=0
107424 On ch=1 n=a4 v=60
107446 On ch=1 n=a4 v=0
107448 On ch=1 n=b4 v=60
107470 On ch=1 n=b4 v=0
107472 On ch=1 n=a4 v=60
107494 On ch=1 n=a4 v=0
107496 On ch=1 n=b4 v=60
107518 On ch=1 n=b4 v=0
107520 On ch=1 n=a4 v=60
107542 On ch=1 n=a4 v=0
107544 On ch=1 n=b4 v=60
107566 On ch=1 n=b4 v=0
107568 On ch=1 n=a4 v=60
107590 On ch=1 n=a4 v=0
107592 On ch=1 n=b4 v=60
107614 On ch=1 n=b4 v=0
107616 On ch=1 n=a4 v=60
107638 On ch=1 n=a4 v=0
107640 On ch=1 n=b4 v=60
107662 On ch=1 n=b4 v=0
107664 On ch=1 n=a4 v=60
107686 On ch=1 n=a4 v=0
107688 On ch=1 n=b4 v=60
107710 On ch=1 n=b4 v=0
107712 On ch=1 n=a4 v=60
107734 On ch=1 n=a4 v=0
107736 On ch=1 n=b4 v=60
107758 On ch=1 n=b4 v=0
107760 On ch=1 n=a4 v=60
107782 On ch=1 n=a4 v=0
107784 On ch=1 n=b4 v=60
107806 On ch=1 n=b4 v=0
107808 On ch=1 n=a4 v=60
107830 On ch=1 n=a4 v=0
107832 On ch=1 n=b4 v=60
107854 On ch=1 n=b4 v=0
107856 On ch=1 n=a4 v=60
107878 On ch=1 n=a4 v=0
107880 On ch=1 n=b4 v=60
107902 On ch=1 n=b4 v=0
107904 On ch=1 n=a4 v=60
107914 On ch=1 n=a4 v=0
107916 On ch=1 n=b4 v=60
107926 On ch=1 n=b4 v=0
107928 On ch=1 n=a4 v=60
107938 On ch=1 n=a4 v=0
107940 On ch=1 n=b4 v=60
107950 On ch=1 n=b4 v=0
107952 On ch=1 n=a4 v=60
107962 On ch=1 n=a4 v=0
107964 On ch=1 n=b4 v=60
107974 On ch=1 n=b4 v=0
107976 On ch=1 n=a4 v=60
107986 On ch=1 n=a4 v=0
107988 On ch=1 n=b4 v=60
107998 On ch=1 n=b4 v=0
108000 On ch=1 n=a4 v=60
108010 On ch=1 n=a4 v=0
108012 On ch=1 n=b4 v=60
108022 On ch=1 n=b4 v=0
108024 On ch=1 n=a4 v=60
108034 On ch=1 n=a4 v=0
108036 On ch=1 n=b4 v=60
108046 On ch=1 n=b4 v=0
108048 On ch=1 n=a4 v=60
108058 On ch=1 n=a4 v=0
108060 On ch=1 n=b4 v=60
108070 On ch=1 n=b4 v=0
108072 On ch=1 n=a4 v=60
108082 On ch=1 n=a4 v=0
108084 On ch=1 n=b4 v=60
108094 On ch=1 n=b4 v=0
108096 On ch=1 n=a4 v=60
108106 On ch=1 n=a4 v=0
108108 On ch=1 n=b4 v=60
108118 On ch=1 n=b4 v=0
108120 On ch=1 n=a4 v=60
108130 On ch=1 n=a4 v=0
108132 On ch=1 n=b4 v=60
108142 On ch=1 n=b4 v=0
108144 On ch=1 n=a4 v=60
108154 On ch=1 n=a4 v=0
108156 On ch=1 n=b4 v=60
108166 On ch=1 n=b4 v=0
108168 On ch=1 n=a4 v=60
108178 On ch=1 n=a4 v=0
108180 On ch=1 n=b4 v=60
108190 On ch=1 n=b4 v=0
108192 On ch=1 n=a4 v=60
108202 On ch=1 n=a4 v=0
108204 On ch=1 n=b4 v=60
108214 On ch=1 n=b4 v=0
108216 On ch=1 n=a4 v=60
108226 On ch=1 n=a4 v=0
108228 On ch=1 n=b4 v=60
108238 On ch=1 n=b4 v=0
108240 On ch=1 n=a4 v=60
108250 On ch=1 n=a4 v=0
108252 On ch=1 n=b4 v=60
108262 On ch=1 n=b4 v=0
108264 On ch=1 n=a4 v=60
108274 On ch=1 n=a4 v=0
108276 On ch=1 n=b4 v=60
108286 On ch=1 n=b4 v=0
108288 On ch=1 n=a4 v=60
108298 On ch=1 n=a4 v=0
108300 On ch=1 n=b4 v=60
108310 On ch=1 n=b4 v=0
108312 On ch=1 n=a4 v=60
108322 On ch=1 n=a4 v=0
108324 On ch=1 n=b4 v=60
108334 On ch=1 n=b4 v=0
108336 On ch=1 n=a4 v=60
108346 On ch=1 n=a4 v=0
108348 On ch=1 n=b4 v=60
108358 On ch=1 n=b4 v=0
108360 On ch=1 n=a4 v=60
108370 On ch=1 n=a4 v=0
108372 On ch=1 n=b4 v=60
108382 On ch=1 n=b4 v=0
108384 On ch=1 n=a4 v=60
108394 On ch=1 n=a4 v=0
108396 On ch=1 n=b4 v=60
108406 On ch=1 n=b4 v=0
108408 On ch=1 n=a4 v=60
108418 On ch=1 n=a4 v=0
108420 On ch=1 n=b4 v=60
108430 On ch=1 n=b4 v=0
108432 On ch=1 n=a4 v=60
108442 On ch=1 n=a4 v=0
108444 On ch=1 n=b4 v=60
108454 On ch=1 n=b4 v=0
108456 On ch=1 n=a4 v=60
108466 On ch=1 n=a4 v=0
108468 On ch=1 n=b4 v=60
108478 On ch=1 n=b4 v=0
108480 On ch=1 n=a4 v=60
108510 On ch=1 n=a4 v=0
108512 On ch=1 n=g#4 v=58
108542 On ch=1 n=g#4 v=0
108544 On ch=1 n=a4 v=56
108574 On ch=1 n=a4 v=0
108576 On ch=1 n=b4 v=54
108606 On ch=1 n=b4 v=0
108608 On ch=1 n=a4 v=51
108638 On ch=1 n=a4 v=0
108640 On ch=1 n=g#4 v=48
108670 On ch=1 n=g#4 v=0
108672 Par ch=1 c=64 v=127
108672 On ch=1 n=g#4 v=45
108672 On ch=1 n=e2 v=30
108672 On ch=1 n=e3 v=30
108736 On ch=1 n=b4 v=45
108800 On ch=1 n=b4 v=0
108800 On ch=1 n=e5 v=45
108816 Par ch=1 c=64 v=0
108864 On ch=1 n=e5 v=0
108864 Par ch=1 c=64 v=127
108864 On ch=1 n=g#5 v=45
108928 On ch=1 n=g#5 v=0
108928 On ch=1 n=d#5 v=45
108992 On ch=1 n=e5 v=45
109008 Par ch=1 c=64 v=0
109054 On ch=1 n=d#5 v=0
109056 On ch=1 n=e5 v=0
109056 Par ch=1 c=64 v=127
109056 On ch=1 n=g#5 v=45
109120 On ch=1 n=g#5 v=0
109120 On ch=1 n=b5 v=45
109184 On ch=1 n=b5 v=0
109184 On ch=1 n=d5 v=45
109200 Par ch=1 c=64 v=0
109248 Par ch=1 c=64 v=127
109248 On ch=1 n=f5 v=45
109310 On ch=1 n=d5 v=0
109312 On ch=1 n=f5 v=0
109312 On ch=1 n=g#5 v=45
109376 On ch=1 n=g#5 v=0
109376 On ch=1 n=b5 v=45
109392 On ch=1 n=g#4 v=0
109392 Par ch=1 c=64 v=0
109438 On ch=1 n=b5 v=0
109440 Par ch=1 c=64 v=127
109440 On ch=1 n=c#5 v=45
109440 On ch=1 n=a4 v=45
109504 On ch=1 n=c#5 v=0
109504 On ch=1 n=f5 v=45
109568 On ch=1 n=f5 v=0
109568 On ch=1 n=g#5 v=45
109584 Par ch=1 c=64 v=0
109632 On ch=1 n=g#5 v=0
109632 Par ch=1 c=64 v=127
109632 On ch=1 n=b5 v=45
109696 On ch=1 n=b5 v=0
109696 On ch=1 n=c#5 v=45
109760 On ch=1 n=f5 v=45
109776 Par ch=1 c=64 v=0
109822 On ch=1 n=c#5 v=0
109824 On ch=1 n=f5 v=0
109824 Par ch=1 c=64 v=127
109824 On ch=1 n=g#5 v=45
109888 On ch=1 n=g#5 v=0
109888 On ch=1 n=a5 v=45
109952 On ch=1 n=a5 v=0
109952 On ch=1 n=c5 v=45
109968 Par ch=1 c=64 v=0
110016 Par ch=1 c=64 v=127
110016 On ch=1 n=d#5 v=45
110078 On ch=1 n=c5 v=0
110080 On ch=1 n=d#5 v=0
110080 On ch=1 n=f#5 v=45
110144 On ch=1 n=f#5 v=0
110144 On ch=1 n=a5 v=45
110160 On ch=1 n=e2 v=0
110160 On ch=1 n=e3 v=0
110160 On ch=1 n=a4 v=0
110160 Par ch=1 c=64 v=0
110206 On ch=1 n=a5 v=0
110208 Par ch=1 c=64 v=127
110208 On ch=1 n=b4 v=45
110208 On ch=1 n=g#4 v=45
110208 On ch=1 n=e2 v=30
110208 On ch=1 n=e3 v=30
110272 On ch=1 n=b4 v=0
110272 On ch=1 n=d#5 v=45
110336 On ch=1 n=d#5 v=0
110336 On ch=1 n=f#5 v=45
110352 Par ch=1 c=64 v=0
110400 On ch=1 n=f#5 v=0
110400 Par ch=1 c=64 v=127
110400 On ch=1 n=a5 v=45
110464 On ch=1 n=a5 v=0
110464 On ch=1 n=b4 v=45
110528 On ch=1 n=d#5 v=45
110544 Par ch=1 c=64 v=0
110590 On ch=1 n=b4 v=0
110592 On ch=1 n=d#5 v=0
110592 Par ch=1 c=64 v=127
110592 On ch=1 n=f#5 v=45
110656 On ch=1 n=f#5 v=0
110656 On ch=1 n=g#5 v=45
110720 On ch=1 n=g#5 v=0
110720 On ch=1 n=b4 v=45
110736 Par ch=1 c=64 v=0
110784 Par ch=1 c=64 v=127
110784 On ch=1 n=d5 v=45
110846 On ch=1 n=b4 v=0
110848 On ch=1 n=d5 v=0
110848 On ch=1 n=f5 v=45
110912 On ch=1 n=f5 v=0
110912 On ch=1 n=g#5 v=45
110928 On ch=1 n=g#4 v=0
110928 Par ch=1 c=64 v=0
110974 On ch=1 n=g#5 v=0
110976 Par ch=1 c=64 v=127
110976 On ch=1 n=a#4 v=45
110976 On ch=1 n=f#4 v=45
111040 On ch=1 n=a#4 v=0
111040 On ch=1 n=c#5 v=45
111104 On ch=1 n=c#5 v=0
111104 On ch=1 n=e5 v=45
111120 Par ch=1 c=64 v=0
111168 On ch=1 n=e5 v=0
111168 Par ch=1 c=64 v=127
111168 On ch=1 n=g#5 v=45
111232 On ch=1 n=g#5 v=0
111232 On ch=1 n=a4 v=45
111296 On ch=1 n=c5 v=45
111312 Par ch=1 c=64 v=0
111358 On ch=1 n=a4 v=0
111360 On ch=1 n=c5 v=0
111360 Par ch=1 c=64 v=127
111360 On ch=1 n=e5 v=45
111424 On ch=1 n=e5 v=0
111424 On ch=1 n=f#5 v=45
111488 On ch=1 n=f#5 v=0
111488 On ch=1 n=a4 v=45
111504 Par ch=1 c=64 v=0
111552 On ch=1 n=a4 v=0
111552 Par ch=1 c=64 v=127
111552 On ch=1 n=b4 v=45
111616 On ch=1 n=b4 v=0
111616 On ch=1 n=d#5 v=45
111680 On ch=1 n=d#5 v=0
111680 On ch=1 n=f#5 v=45
111696 On ch=1 n=e2 v=0
111696 On ch=1 n=e3 v=0
111696 On ch=1 n=f#4 v=0
111696 Par ch=1 c=64 v=0
111742 On ch=1 n=f#5 v=0
111744 Par ch=1 c=64 v=127
111744 On ch=1 n=g#4 v=45
111744 On ch=1 n=e3 v=30
111744 On ch=1 n=b3 v=30
111808 On ch=1 n=b4 v=45
111872 On ch=1 n=b4 v=0
111872 On ch=1 n=e5 v=45
111888 Par ch=1 c=64 v=0
111936 On ch=1 n=e5 v=0
111936 Par ch=1 c=64 v=127
111936 On ch=1 n=g#5 v=45
112000 On ch=1 n=g#5 v=0
112000 On ch=1 n=d#5 v=45
112064 On ch=1 n=e5 v=45
112080 Par ch=1 c=64 v=0
112126 On ch=1 n=d#5 v=0
112128 On ch=1 n=e5 v=0
112128 Par ch=1 c=64 v=127
112128 On ch=1 n=g#5 v=45
112192 On ch=1 n=g#5 v=0
112192 On ch=1 n=b5 v=45
112256 On ch=1 n=b5 v=0
112256 On ch=1 n=d5 v=45
112272 Par ch=1 c=64 v=0
112320 Par ch=1 c=64 v=127
112320 On ch=1 n=f5 v=45
112382 On ch=1 n=d5 v=0
112384 On ch=1 n=f5 v=0
112384 On ch=1 n=g#5 v=45
112448 On ch=1 n=g#5 v=0
112448 On ch=1 n=b5 v=45
112464 On ch=1 n=g#4 v=0
112464 On ch=1 n=e3 v=0
112464 On ch=1 n=b3 v=0
112464 Par ch=1 c=64 v=0
112510 On ch=1 n=b5 v=0
112512 Par ch=1 c=64 v=127
112512 On ch=1 n=c#5 v=45
112512 On ch=1 n=a4 v=45
112512 On ch=1 n=c#4 v=30
112512 On ch=1 n=e3 v=45
112576 On ch=1 n=c#5 v=0
112576 On ch=1 n=f5 v=45
112640 On ch=1 n=f5 v=0
112640 On ch=1 n=g#5 v=45
112656 Par ch=1 c=64 v=0
112704 On ch=1 n=g#5 v=0
112704 Par ch=1 c=64 v=127
112704 On ch=1 n=b5 v=45
112768 On ch=1 n=b5 v=0
112768 On ch=1 n=c#5 v=45
112832 On ch=1 n=f5 v=45
112848 Par ch=1 c=64 v=0
112894 On ch=1 n=c#5 v=0
112896 On ch=1 n=f5 v=0
112896 Par ch=1 c=64 v=127
112896 On ch=1 n=g#5 v=45
112960 On ch=1 n=g#5 v=0
112960 On ch=1 n=a5 v=45
113022 On ch=1 n=c#4 v=0
113024 On ch=1 n=a5 v=0
113024 On ch=1 n=c5 v=45
113024 On ch=1 n=c4 v=30
113040 Par ch=1 c=64 v=0
113088 Par ch=1 c=64 v=127
113088 On ch=1 n=d#5 v=45
113152 On ch=1 n=d#5 v=0
113152 On ch=1 n=f#5 v=45
113182 On ch=1 n=c5 v=0
113216 On ch=1 n=f#5 v=0
113216 On ch=1 n=a5 v=45
113232 On ch=1 n=a4 v=0
113232 On ch=1 n=e3 v=0
113232 Par ch=1 c=64 v=0
113248 On ch=1 n=c4 v=0
113278 On ch=1 n=a5 v=0
113280 Par ch=1 c=64 v=127
113280 On ch=1 n=b4 v=45
113280 On ch=1 n=g#4 v=45
113280 On ch=1 n=b3 v=30
113280 On ch=1 n=e3 v=45
113344 On ch=1 n=b4 v=0
113344 On ch=1 n=d#5 v=45
113408 On ch=1 n=d#5 v=0
113408 On ch=1 n=f#5 v=45
113424 Par ch=1 c=64 v=0
113472 On ch=1 n=f#5 v=0
113472 Par ch=1 c=64 v=127
113472 On ch=1 n=a5 v=45
113536 On ch=1 n=a5 v=0
113536 On ch=1 n=b4 v=45
113600 On ch=1 n=d#5 v=45
113616 Par ch=1 c=64 v=0
113662 On ch=1 n=b4 v=0
113664 On ch=1 n=d#5 v=0
113664 Par ch=1 c=64 v=127
113664 On ch=1 n=f#5 v=45
113728 On ch=1 n=f#5 v=0
113728 On ch=1 n=g#5 v=45
113790 On ch=1 n=b3 v=0
113792 On ch=1 n=g#5 v=0
113792 On ch=1 n=b4 v=45
113792 On ch=1 n=d4 v=30
113808 Par ch=1 c=64 v=0
113856 Par ch=1 c=64 v=127
113856 On ch=1 n=d5 v=45
113918 On ch=1 n=b4 v=0
113920 On ch=1 n=d5 v=0
113920 On ch=1 n=f5 v=45
113984 On ch=1 n=f5 v=0
113984 On ch=1 n=g#5 v=45
114000 On ch=1 n=g#4 v=0
114000 On ch=1 n=e3 v=0
114000 Par ch=1 c=64 v=0
114016 On ch=1 n=d4 v=0
114046 On ch=1 n=g#5 v=0
114048 Par ch=1 c=64 v=127
114048 On ch=1 n=a#4 v=45
114048 On ch=1 n=g#4 v=45
114048 On ch=1 n=c#4 v=30
114048 On ch=1 n=e3 v=45
114112 On ch=1 n=a#4 v=0
114112 On ch=1 n=c#5 v=45
114176 On ch=1 n=c#5 v=0
114176 On ch=1 n=e5 v=45
114192 Par ch=1 c=64 v=0
114240 On ch=1 n=e5 v=0
114240 Par ch=1 c=64 v=127
114240 On ch=1 n=g#5 v=45
114304 On ch=1 n=g#5 v=0
114304 On ch=1 n=a4 v=45
114368 On ch=1 n=c5 v=45
114384 On ch=1 n=g#4 v=0
114384 Par ch=1 c=64 v=0
114430 On ch=1 n=a4 v=0
114432 On ch=1 n=c5 v=0
114432 Par ch=1 c=64 v=127
114432 On ch=1 n=e5 v=45
114432 On ch=1 n=f#4 v=45
114496 On ch=1 n=e5 v=0
114496 On ch=1 n=f#5 v=45
114528 On ch=1 n=c#4 v=0
114528 On ch=1 n=c4 v=30
114560 On ch=1 n=f#5 v=0
114560 On ch=1 n=a4 v=45
114576 Par ch=1 c=64 v=0
114624 On ch=1 n=c4 v=0
114624 Par ch=1 c=64 v=127
114624 On ch=1 n=b3 v=30
114624 On ch=1 n=d#5 v=45
114686 On ch=1 n=a4 v=0
114688 On ch=1 n=d#5 v=0
114688 On ch=1 n=b4 v=45
114752 On ch=1 n=b4 v=0
114752 On ch=1 n=f#5 v=45
114768 On ch=1 n=e3 v=0
114768 On ch=1 n=f#4 v=0
114768 Par ch=1 c=64 v=0
114784 On ch=1 n=b3 v=0
114814 On ch=1 n=f#5 v=0
114816 Par ch=1 c=64 v=127
114816 On ch=1 n=g#4 v=45
114816 On ch=1 n=e3 v=30
114816 On ch=1 n=b3 v=30
114880 On ch=1 n=b4 v=45
114944 On ch=1 n=b4 v=0
114944 On ch=1 n=e5 v=45
114960 Par ch=1 c=64 v=0
115008 On ch=1 n=e5 v=0
115008 Par ch=1 c=64 v=127
115008 On ch=1 n=g#5 v=45
115072 On ch=1 n=g#5 v=0
115072 On ch=1 n=b4 v=45
115136 On ch=1 n=b4 v=0
115136 On ch=1 n=e5 v=45
115152 Par ch=1 c=64 v=0
115200 On ch=1 n=e5 v=0
115200 Par ch=1 c=64 v=127
115200 On ch=1 n=g#4 v=45
115264 On ch=1 n=g#4 v=0
115264 On ch=1 n=b4 v=50
115328 On ch=1 n=b4 v=0
115328 On ch=1 n=e5 v=55
115344 Par ch=1 c=64 v=0
115392 On ch=1 n=e5 v=0
115392 Par ch=1 c=64 v=127
115392 On ch=1 n=b5 v=60
115456 On ch=1 n=b5 v=0
115456 On ch=1 n=b4 v=65
115520 On ch=1 n=b4 v=0
115520 On ch=1 n=e5 v=70
115536 On ch=1 n=e3 v=0
115536 On ch=1 n=b3 v=0
115536 On ch=1 n=g#4 v=0
115536 Par ch=1 c=64 v=0
115582 On ch=1 n=e5 v=0
115584 Par ch=1 c=64 v=127
115584 On ch=1 n=c#5 v=75
115584 On ch=1 n=a4 v=45
115584 On ch=1 n=e3 v=60
115584 On ch=1 n=b3 v=60
115648 On ch=1 n=c#5 v=0
115648 On ch=1 n=d#5 v=75
115712 On ch=1 n=d#5 v=0
115712 On ch=1 n=a5 v=72
115728 Par ch=1 c=64 v=0
115776 On ch=1 n=a5 v=0
115776 Par ch=1 c=64 v=127
115776 On ch=1 n=b5 v=69
115840 On ch=1 n=b5 v=0
115840 On ch=1 n=b4 v=66
115904 On ch=1 n=b4 v=0
115904 On ch=1 n=b5 v=63
115920 On ch=1 n=a4 v=0
115920 On ch=1 n=e3 v=0
115920 On ch=1 n=b3 v=0
115920 Par ch=1 c=64 v=0
115966 On ch=1 n=b5 v=0
115968 Par ch=1 c=64 v=127
115968 On ch=1 n=g#4 v=45
115968 On ch=1 n=e3 v=45
115968 On ch=1 n=b3 v=45
116032 On ch=1 n=b4 v=60
116096 On ch=1 n=b4 v=0
116096 On ch=1 n=e5 v=60
116112 Par ch=1 c=64 v=0
116160 On ch=1 n=e5 v=0
116160 Par ch=1 c=64 v=127
116160 On ch=1 n=g#5 v=63
116224 On ch=1 n=g#5 v=0
116224 On ch=1 n=b4 v=67
116288 On ch=1 n=b4 v=0
116288 On ch=1 n=e5 v=71
116304 On ch=1 n=g#4 v=0
116304 On ch=1 n=e3 v=0
116304 On ch=1 n=b3 v=0
116304 Par ch=1 c=64 v=0
116350 On ch=1 n=e5 v=0
116352 Par ch=1 c=64 v=127
116352 On ch=1 n=c5 v=75
116352 On ch=1 n=g#4 v=45
116352 On ch=1 n=e3 v=60
116352 On ch=1 n=c4 v=60
116416 On ch=1 n=c5 v=0
116416 On ch=1 n=d#5 v=75
116480 On ch=1 n=d#5 v=0
116480 On ch=1 n=f#5 v=72
116496 Par ch=1 c=64 v=0
116544 On ch=1 n=f#5 v=0
116544 Par ch=1 c=64 v=127
116544 On ch=1 n=c6 v=69
116608 On ch=1 n=c6 v=0
116608 On ch=1 n=d#5 v=66
116672 On ch=1 n=d#5 v=0
116672 On ch=1 n=g#5 v=63
116688 On ch=1 n=g#4 v=0
116688 On ch=1 n=e3 v=0
116688 On ch=1 n=c4 v=0
116688 Par ch=1 c=64 v=0
116734 On ch=1 n=g#5 v=0
116736 Par ch=1 c=64 v=127
116736 On ch=1 n=b4 v=60
116736 On ch=1 n=g#4 v=45
116736 On ch=1 n=e3 v=45
116736 On ch=1 n=b3 v=45
116800 On ch=1 n=b4 v=0
116800 On ch=1 n=e5 v=60
116864 On ch=1 n=e5 v=0
116864 On ch=1 n=g#5 v=60
116880 Par ch=1 c=64 v=0
116928 On ch=1 n=g#5 v=0
116928 Par ch=1 c=64 v=127
116928 On ch=1 n=b5 v=60
116992 On ch=1 n=b5 v=0
116992 On ch=1 n=e5 v=60
117056 On ch=1 n=e5 v=0
117056 On ch=1 n=g#5 v=60
117072 On ch=1 n=g#4 v=0
117072 On ch=1 n=e3 v=0
117072 On ch=1 n=b3 v=0
117072 Par ch=1 c=64 v=0
117118 On ch=1 n=g#5 v=0
117120 Par ch=1 c=64 v=127
117120 On ch=1 n=b4 v=75
117184 On ch=1 n=b4 v=0
117184 On ch=1 n=g#5 v=75
117216 On ch=1 n=d6 v=92
117248 On ch=1 n=g#5 v=0
117248 On ch=1 n=d5 v=75
117264 Par ch=1 c=64 v=0
117312 On ch=1 n=d6 v=0
117312 On ch=1 n=d5 v=0
117312 Par ch=1 c=64 v=127
117312 On ch=1 n=e6 v=92
117312 On ch=1 n=b4 v=75
117376 On ch=1 n=b4 v=0
117376 On ch=1 n=d5 v=75
117408 On ch=1 n=e6 v=0
117408 On ch=1 n=d6 v=92
117440 On ch=1 n=d5 v=0
117440 On ch=1 n=e4 v=75
117456 Par ch=1 c=64 v=0
117502 On ch=1 n=e4 v=0
117504 On ch=1 n=d6 v=0
117504 Par ch=1 c=64 v=127
117504 On ch=1 n=c#6 v=92
117504 On ch=1 n=a4 v=75
117568 On ch=1 n=a4 v=0
117568 On ch=1 n=a5 v=75
117600 On ch=1 n=c#6 v=0
117600 On ch=1 n=d6 v=92
117632 On ch=1 n=a5 v=0
117632 On ch=1 n=e5 v=75
117648 Par ch=1 c=64 v=0
117696 On ch=1 n=d6 v=0
117696 On ch=1 n=e5 v=0
117696 Par ch=1 c=64 v=127
117696 On ch=1 n=e6 v=92
117696 On ch=1 n=c#5 v=75
117760 On ch=1 n=c#5 v=0
117760 On ch=1 n=e5 v=75
117824 On ch=1 n=e5 v=0
117824 On ch=1 n=a4 v=75
117840 Par ch=1 c=64 v=0
117888 On ch=1 n=e6 v=0
117888 On ch=1 n=a4 v=0
117888 Par ch=1 c=64 v=127
117888 On ch=1 n=c#5 v=60
117888 On ch=1 n=e3 v=45
117952 On ch=1 n=e5 v=60
118016 On ch=1 n=e5 v=0
118016 On ch=1 n=a5 v=60
118032 Par ch=1 c=64 v=0
118080 On ch=1 n=a5 v=0
118080 Par ch=1 c=64 v=127
118080 On ch=1 n=a5 v=63
118144 On ch=1 n=a5 v=0
118144 On ch=1 n=e5 v=67
118208 On ch=1 n=e5 v=0
118208 On ch=1 n=a5 v=71
118224 On ch=1 n=c#5 v=0
118224 Par ch=1 c=64 v=0
118270 On ch=1 n=a5 v=0
118272 Par ch=1 c=64 v=127
118272 On ch=1 n=d5 v=75
118336 On ch=1 n=f5 v=75
118400 On ch=1 n=f5 v=0
118400 On ch=1 n=g#5 v=75
118416 Par ch=1 c=64 v=0
118464 On ch=1 n=g#5 v=0
118464 Par ch=1 c=64 v=127
118464 On ch=1 n=d6 v=72
118528 On ch=1 n=d6 v=0
118528 On ch=1 n=e5 v=68
118592 On ch=1 n=e5 v=0
118592 On ch=1 n=g#5 v=64
118608 On ch=1 n=e3 v=0
118608 On ch=1 n=d5 v=0
118608 Par ch=1 c=64 v=0
118654 On ch=1 n=g#5 v=0
118656 Par ch=1 c=64 v=127
118656 On ch=1 n=c#5 v=75
118656 On ch=1 n=e4 v=45
118656 On ch=1 n=e3 v=45
118720 On ch=1 n=e5 v=60
118784 On ch=1 n=e5 v=0
118784 On ch=1 n=a5 v=60
118800 Par ch=1 c=64 v=0
118848 On ch=1 n=a5 v=0
118848 Par ch=1 c=64 v=127
118848 On ch=1 n=c#6 v=63
118912 On ch=1 n=c#6 v=0
118912 On ch=1 n=e5 v=67
118976 On ch=1 n=e5 v=0
118976 On ch=1 n=a5 v=71
118992 On ch=1 n=c#5 v=0
118992 Par ch=1 c=64 v=0
119038 On ch=1 n=a5 v=0
119040 On ch=1 n=e4 v=0
119040 Par ch=1 c=64 v=127
119040 On ch=1 n=a4 v=75
119040 On ch=1 n=c#4 v=45
119104 On ch=1 n=c#5 v=75
119168 On ch=1 n=c#5 v=0
119168 On ch=1 n=g5 v=75
119184 Par ch=1 c=64 v=0
119232 On ch=1 n=g5 v=0
119232 Par ch=1 c=64 v=127
119232 On ch=1 n=c#6 v=72
119296 On ch=1 n=c#6 v=0
119296 On ch=1 n=c#5 v=68
119360 On ch=1 n=c#5 v=0
119360 On ch=1 n=g5 v=64
119376 On ch=1 n=e3 v=0
119376 On ch=1 n=a4 v=0
119376 On ch=1 n=c#4 v=0
119376 Par ch=1 c=64 v=0
119422 On ch=1 n=g5 v=0
119424 Par ch=1 c=64 v=127
119424 On ch=1 n=g#4 v=60
119424 On ch=1 n=e3 v=45
119424 On ch=1 n=c#4 v=45
119488 On ch=1 n=c#5 v=60
119552 On ch=1 n=c#5 v=0
119552 On ch=1 n=e5 v=60
119568 Par ch=1 c=64 v=0
119616 On ch=1 n=e5 v=0
119616 Par ch=1 c=64 v=127
119616 On ch=1 n=g#5 v=60
119680 On ch=1 n=e5 v=75
119710 On ch=1 n=g#5 v=0
119712 On ch=1 n=c6 v=92
119744 On ch=1 n=e5 v=0
119744 On ch=1 n=g#5 v=75
119760 On ch=1 n=g#4 v=0
119760 On ch=1 n=e3 v=0
119760 On ch=1 n=c#4 v=0
119760 Par ch=1 c=64 v=0
119806 On ch=1 n=g#5 v=0
119808 On ch=1 n=c6 v=0
119808 Par ch=1 c=64 v=127
119808 On ch=1 n=c#6 v=92
119808 On ch=1 n=c#5 v=75
119872 On ch=1 n=c#5 v=0
119872 On ch=1 n=e5 v=75
119902 On ch=1 n=c#6 v=0
119904 On ch=1 n=b5 v=92
119936 On ch=1 n=e5 v=0
119936 On ch=1 n=g#5 v=75
119952 Par ch=1 c=64 v=0
119998 On ch=1 n=g#5 v=0
120000 On ch=1 n=b5 v=0
120000 Par ch=1 c=64 v=127
120000 On ch=1 n=c6 v=82
120000 On ch=1 n=c5 v=75
120064 On ch=1 n=c5 v=0
120064 On ch=1 n=e5 v=75
120094 On ch=1 n=c6 v=0
120096 On ch=1 n=a#5 v=71
120128 On ch=1 n=e5 v=0
120128 On ch=1 n=g#5 v=75
120144 Par ch=1 c=64 v=0
120144 On ch=1 n=g#4 v=60
120190 On ch=1 n=g#5 v=0
120192 On ch=1 n=a#5 v=0
120192 Par ch=1 c=64 v=127
120192 On ch=1 n=b5 v=60
120192 On ch=1 n=e3 v=45
120192 On ch=1 n=b3 v=45
120254 On ch=1 n=b5 v=0
120256 On ch=1 n=b4 v=60
120320 On ch=1 n=b4 v=0
120320 On ch=1 n=e5 v=60
120336 Par ch=1 c=64 v=0
120384 On ch=1 n=e5 v=0
120384 Par ch=1 c=64 v=127
120384 On ch=1 n=g#5 v=60
120448 On ch=1 n=g#5 v=0
120448 On ch=1 n=b4 v=60
120512 On ch=1 n=b4 v=0
120512 On ch=1 n=e5 v=60
120528 Par ch=1 c=64 v=0
120574 On ch=1 n=e5 v=0
120576 Par ch=1 c=64 v=127
120576 On ch=1 n=g#4 v=60
120640 On ch=1 n=g#4 v=0
120640 On ch=1 n=b4 v=62
120704 On ch=1 n=b4 v=0
120704 On ch=1 n=e5 v=64
120720 Par ch=1 c=64 v=0
120768 On ch=1 n=e5 v=0
120768 Par ch=1 c=64 v=127
120768 On ch=1 n=b5 v=66
120832 On ch=1 n=b5 v=0
120832 On ch=1 n=d#5 v=69
120896 On ch=1 n=d#5 v=0
120896 On ch=1 n=e5 v=72
120912 On ch=1 n=e3 v=0
120912 On ch=1 n=b3 v=0
120912 On ch=1 n=g#4 v=0
120912 Par ch=1 c=64 v=0
120958 On ch=1 n=e5 v=0
120960 Par ch=1 c=64 v=127
120960 On ch=1 n=c#5 v=75
120960 On ch=1 n=a4 v=60
120960 On ch=1 n=e3 v=60
120960 On ch=1 n=b3 v=60
121024 On ch=1 n=c#5 v=0
121024 On ch=1 n=d#5 v=75
121088 On ch=1 n=d#5 v=0
121088 On ch=1 n=a5 v=72
121104 Par ch=1 c=64 v=0
121152 On ch=1 n=a5 v=0
121152 Par ch=1 c=64 v=127
121152 On ch=1 n=b5 v=69
121216 On ch=1 n=b5 v=0
121216 On ch=1 n=b4 v=66
121280 On ch=1 n=b4 v=0
121280 On ch=1 n=b5 v=63
121296 On ch=1 n=a4 v=0
121296 On ch=1 n=e3 v=0
121296 On ch=1 n=b3 v=0
121296 Par ch=1 c=64 v=0
121342 On ch=1 n=b5 v=0
121344 Par ch=1 c=64 v=127
121344 On ch=1 n=b4 v=60
121344 On ch=1 n=g#4 v=60
121344 On ch=1 n=e3 v=45
121344 On ch=1 n=b3 v=45
121408 On ch=1 n=b4 v=0
121408 On ch=1 n=e5 v=60
121472 On ch=1 n=e5 v=0
121472 On ch=1 n=g#5 v=60
121488 Par ch=1 c=64 v=0
121536 On ch=1 n=g#5 v=0
121536 Par ch=1 c=64 v=127
121536 On ch=1 n=b5 v=60
121600 On ch=1 n=b5 v=0
121600 On ch=1 n=e5 v=60
121664 On ch=1 n=e5 v=0
121664 On ch=1 n=g#5 v=60
121680 On ch=1 n=g#4 v=0
121680 On ch=1 n=e3 v=0
121680 On ch=1 n=b3 v=0
121680 Par ch=1 c=64 v=0
121726 On ch=1 n=g#5 v=0
121728 Par ch=1 c=64 v=127
121728 On ch=1 n=b4 v=60
121728 On ch=1 n=g#4 v=60
121728 On ch=1 n=d3 v=45
121728 On ch=1 n=d4 v=45
121792 On ch=1 n=b4 v=0
121792 On ch=1 n=f#5 v=60
121856 On ch=1 n=f#5 v=0
121856 On ch=1 n=g#5 v=60
121872 Par ch=1 c=64 v=0
121920 On ch=1 n=g#5 v=0
121920 Par ch=1 c=64 v=127
121920 On ch=1 n=b5 v=60
121984 On ch=1 n=b5 v=0
121984 On ch=1 n=b4 v=60
122048 On ch=1 n=b4 v=0
122048 On ch=1 n=f#5 v=60
122064 On ch=1 n=g#4 v=0
122064 On ch=1 n=d3 v=0
122064 On ch=1 n=d4 v=0
122064 Par ch=1 c=64 v=0
122110 On ch=1 n=f#5 v=0
122112 Par ch=1 c=64 v=127
122112 On ch=1 n=g#4 v=60
122112 On ch=1 n=c#3 v=45
122112 On ch=1 n=c#4 v=45
122176 On ch=1 n=b4 v=60
122240 On ch=1 n=b4 v=0
122240 On ch=1 n=f#5 v=60
122256 Par ch=1 c=64 v=0
122304 On ch=1 n=f#5 v=0
122304 Par ch=1 c=64 v=127
122304 On ch=1 n=c#6 v=60
122368 On ch=1 n=c#6 v=0
122368 On ch=1 n=b4 v=60
122432 On ch=1 n=b4 v=0
122432 On ch=1 n=f5 v=60
122448 On ch=1 n=g#4 v=0
122448 On ch=1 n=c#3 v=0
122448 On ch=1 n=c#4 v=0
122448 Par ch=1 c=64 v=0
122494 On ch=1 n=f5 v=0
122496 Par ch=1 c=64 v=127
122496 On ch=1 n=a4 v=60
122496 On ch=1 n=c#4 v=45
122496 On ch=1 n=f#3 v=45
122560 On ch=1 n=c#5 v=60
122624 On ch=1 n=c#5 v=0
122624 On ch=1 n=f#5 v=60
122640 Par ch=1 c=64 v=0
122688 On ch=1 n=c#4 v=0
122688 On ch=1 n=f#5 v=0
122688 Par ch=1 c=64 v=127
122688 On ch=1 n=c#6 v=60
122688 On ch=1 n=f#4 v=45
122752 On ch=1 n=c#6 v=0
122752 On ch=1 n=c#5 v=60
122816 On ch=1 n=c#5 v=0
122816 On ch=1 n=f#5 v=60
122832 On ch=1 n=a4 v=0
122832 On ch=1 n=f#3 v=0
122832 Par ch=1 c=64 v=0
122878 On ch=1 n=f#5 v=0
122880 On ch=1 n=f#4 v=0
122880 Par ch=1 c=64 v=127
122880 On ch=1 n=c5 v=60
122880 On ch=1 n=e4 v=45
122880 On ch=1 n=a3 v=45
122944 On ch=1 n=e5 v=60
123008 On ch=1 n=e5 v=0
123008 On ch=1 n=f#5 v=60
123024 Par ch=1 c=64 v=0
123072 On ch=1 n=f#5 v=0
123072 Par ch=1 c=64 v=127
123072 On ch=1 n=c6 v=60
123136 On ch=1 n=c6 v=0
123136 On ch=1 n=d#5 v=60
123200 On ch=1 n=d#5 v=0
123200 On ch=1 n=f#5 v=60
123216 On ch=1 n=c5 v=0
123216 On ch=1 n=e4 v=0
123216 On ch=1 n=a3 v=0
123216 Par ch=1 c=64 v=0
123262 On ch=1 n=f#5 v=0
123264 Par ch=1 c=64 v=127
123264 On ch=1 n=g#3 v=45
123264 On ch=1 n=e4 v=45
123264 On ch=1 n=b4 v=60
123328 On ch=1 n=e5 v=60
123392 On ch=1 n=e5 v=0
123392 On ch=1 n=g#5 v=60
123408 Par ch=1 c=64 v=0
123456 On ch=1 n=g#5 v=0
123456 Par ch=1 c=64 v=127
123456 On ch=1 n=b5 v=63
123520 On ch=1 n=b5 v=0
123520 On ch=1 n=e5 v=67
123584 On ch=1 n=e5 v=0
123584 On ch=1 n=g#5 v=71
123600 On ch=1 n=g#3 v=0
123600 On ch=1 n=e4 v=0
123600 On ch=1 n=b4 v=0
123600 Par ch=1 c=64 v=0
123646 On ch=1 n=g#5 v=0
123648 Par ch=1 c=64 v=127
123648 On ch=1 n=b4 v=75
123648 On ch=1 n=f4 v=60
123648 On ch=1 n=c#3 v=60
123712 On ch=1 n=c#5 v=75
123776 On ch=1 n=c#5 v=0
123776 On ch=1 n=f5 v=75
123792 Par ch=1 c=64 v=0
123840 On ch=1 n=f5 v=0
123840 Par ch=1 c=64 v=127
123840 On ch=1 n=b5 v=72
123904 On ch=1 n=b5 v=0
123904 On ch=1 n=c#5 v=68
123968 On ch=1 n=c#5 v=0
123968 On ch=1 n=f5 v=64
123984 On ch=1 n=b4 v=0
123984 On ch=1 n=f4 v=0
123984 On ch=1 n=c#3 v=0
123984 Par ch=1 c=64 v=0
124030 On ch=1 n=f5 v=0
124032 Par ch=1 c=64 v=127
124032 On ch=1 n=a#4 v=60
124032 On ch=1 n=c#4 v=45
124032 On ch=1 n=f#3 v=45
124096 On ch=1 n=e5 v=60
124160 On ch=1 n=e5 v=0
124160 On ch=1 n=a#5 v=60
124176 Par ch=1 c=64 v=0
124192 On ch=1 n=a#4 v=0
124222 On ch=1 n=a#5 v=0
124224 On ch=1 n=c#4 v=0
124224 Par ch=1 c=64 v=127
124224 On ch=1 n=a4 v=60
124224 On ch=1 n=c4 v=45
124288 On ch=1 n=e5 v=60
124352 On ch=1 n=e5 v=0
124352 On ch=1 n=a5 v=60
124368 On ch=1 n=f#3 v=0
124368 Par ch=1 c=64 v=0
124384 On ch=1 n=a4 v=0
124414 On ch=1 n=a5 v=0
124416 On ch=1 n=c4 v=0
124416 Par ch=1 c=64 v=127
124416 On ch=1 n=a4 v=60
124416 On ch=1 n=b3 v=45
124416 On ch=1 n=b2 v=45
124480 On ch=1 n=d#5 v=68
124544 On ch=1 n=d#5 v=0
124544 On ch=1 n=a5 v=76
124560 Par ch=1 c=64 v=0
124608 On ch=1 n=a5 v=0
124608 Par ch=1 c=64 v=127
124608 On ch=1 n=b5 v=84
124672 On ch=1 n=b5 v=0
124672 On ch=1 n=d#6 v=92
124736 On ch=1 n=d#6 v=0
124736 On ch=1 n=b6 v=100
124752 On ch=1 n=a4 v=0
124752 On ch=1 n=b3 v=0
124752 On ch=1 n=b2 v=0
124752 Par ch=1 c=64 v=0
124800 On ch=1 n=b6 v=0
124800 Par ch=1 c=64 v=127
124800 On ch=1 n=e6 v=108
124800 On ch=1 n=g#6 v=108
124800 On ch=1 n=b6 v=108
124800 On ch=1 n=e7 v=108
124800 On ch=1 n=e2 v=92
124846 On ch=1 n=e2 v=0
124848 On ch=1 n=e3 v=92
124882 On ch=1 n=e3 v=0
124884 On ch=1 n=b3 v=92
124918 On ch=1 n=b3 v=0
124920 On ch=1 n=g#4 v=92
124954 On ch=1 n=g#4 v=0
124956 On ch=1 n=e5 v=92
124990 On ch=1 n=e5 v=0
124992 On ch=1 n=e6 v=0
124992 On ch=1 n=g#6 v=0
124992 On ch=1 n=b6 v=0
124992 On ch=1 n=e7 v=0
124992 On ch=1 n=g#6 v=108
124992 On ch=1 n=b6 v=108
124992 On ch=1 n=e7 v=108
124992 On ch=1 n=g#7 v=108
124992 On ch=1 n=g#5 v=92
125038 On ch=1 n=g#5 v=0
125040 On ch=1 n=e5 v=92
125074 On ch=1 n=e5 v=0
125076 On ch=1 n=g#4 v=92
125110 On ch=1 n=g#4 v=0
125112 On ch=1 n=b3 v=92
125136 Par ch=1 c=64 v=0
125146 On ch=1 n=b3 v=0
125148 On ch=1 n=e3 v=92
125152 On ch=1 n=g#6 v=0
125152 On ch=1 n=b6 v=0
125152 On ch=1 n=e7 v=0
125152 On ch=1 n=g#7 v=0
125182 On ch=1 n=e3 v=0
125184 Par ch=1 c=64 v=127
125184 On ch=1 n=d#6 v=108
125184 On ch=1 n=g#6 v=108
125184 On ch=1 n=b6 v=108
125184 On ch=1 n=d#7 v=108
125184 On ch=1 n=e2 v=92
125230 On ch=1 n=e2 v=0
125232 On ch=1 n=e3 v=92
125266 On ch=1 n=e3 v=0
125268 On ch=1 n=b3 v=92
125302 On ch=1 n=b3 v=0
125304 On ch=1 n=g#4 v=92
125338 On ch=1 n=g#4 v=0
125340 On ch=1 n=d#5 v=92
125374 On ch=1 n=d#5 v=0
125376 On ch=1 n=d#6 v=0
125376 On ch=1 n=g#6 v=0
125376 On ch=1 n=b6 v=0
125376 On ch=1 n=d#7 v=0
125376 On ch=1 n=g#6 v=108
125376 On ch=1 n=b6 v=108
125376 On ch=1 n=d#7 v=108
125376 On ch=1 n=g#7 v=108
125376 On ch=1 n=g#5 v=92
125422 On ch=1 n=g#5 v=0
125424 On ch=1 n=d#5 v=92
125458 On ch=1 n=d#5 v=0
125460 On ch=1 n=g#4 v=92
125494 On ch=1 n=g#4 v=0
125496 On ch=1 n=b3 v=92
125520 Par ch=1 c=64 v=0
125530 On ch=1 n=b3 v=0
125532 On ch=1 n=e3 v=92
125536 On ch=1 n=g#6 v=0
125536 On ch=1 n=b6 v=0
125536 On ch=1 n=d#7 v=0
125536 On ch=1 n=g#7 v=0
125566 On ch=1 n=e3 v=0
125568 Par ch=1 c=64 v=127
125568 On ch=1 n=c#6 v=108
125568 On ch=1 n=g#6 v=108
125568 On ch=1 n=b6 v=108
125568 On ch=1 n=c#7 v=108
125568 On ch=1 n=f#2 v=92
125614 On ch=1 n=f#2 v=0
125616 On ch=1 n=f#3 v=92
125650 On ch=1 n=f#3 v=0
125652 On ch=1 n=c#4 v=92
125686 On ch=1 n=c#4 v=0
125688 On ch=1 n=g#4 v=92
125722 On ch=1 n=g#4 v=0
125724 On ch=1 n=b4 v=92
125758 On ch=1 n=b4 v=0
125760 On ch=1 n=c#6 v=0
125760 On ch=1 n=g#6 v=0
125760 On ch=1 n=b6 v=0
125760 On ch=1 n=c#7 v=0
125760 On ch=1 n=g#5 v=92
125760 On ch=1 n=g#7 v=108
125760 On ch=1 n=c#7 v=108
125760 On ch=1 n=b6 v=108
125760 On ch=1 n=g#6 v=108
125806 On ch=1 n=g#5 v=0
125808 On ch=1 n=c#5 v=92
125842 On ch=1 n=c#5 v=0
125844 On ch=1 n=b4 v=92
125878 On ch=1 n=b4 v=0
125880 On ch=1 n=g#4 v=92
125904 Par ch=1 c=64 v=0
125914 On ch=1 n=g#4 v=0
125916 On ch=1 n=c#4 v=92
125920 On ch=1 n=g#7 v=0
125920 On ch=1 n=c#7 v=0
125920 On ch=1 n=b6 v=0
125920 On ch=1 n=g#6 v=0
125950 On ch=1 n=c#4 v=0
125952 Par ch=1 c=64 v=127
125952 On ch=1 n=c6 v=108
125952 On ch=1 n=e6 v=108
125952 On ch=1 n=a6 v=108
125952 On ch=1 n=c7 v=108
125952 On ch=1 n=a2 v=92
125998 On ch=1 n=a2 v=0
126000 On ch=1 n=a3 v=90
126034 On ch=1 n=a3 v=0
126036 On ch=1 n=e4 v=89
126070 On ch=1 n=e4 v=0
126072 On ch=1 n=a4 v=88
126106 On ch=1 n=a4 v=0
126108 On ch=1 n=c5 v=87
126142 On ch=1 n=c5 v=0
126144 On ch=1 n=c6 v=0
126144 On ch=1 n=e6 v=0
126144 On ch=1 n=a6 v=0
126144 On ch=1 n=c7 v=0
126144 On ch=1 n=f#6 v=100
126144 On ch=1 n=a6 v=100
126144 On ch=1 n=c7 v=100
126144 On ch=1 n=f#7 v=100
126144 On ch=1 n=f#5 v=86
126190 On ch=1 n=f#5 v=0
126192 On ch=1 n=c5 v=84
126226 On ch=1 n=c5 v=0
126228 On ch=1 n=a4 v=82
126262 On ch=1 n=a4 v=0
126264 On ch=1 n=f#4 v=80
126288 Par ch=1 c=64 v=0
126298 On ch=1 n=f#4 v=0
126300 On ch=1 n=e4 v=78
126304 On ch=1 n=f#6 v=0
126304 On ch=1 n=a6 v=0
126304 On ch=1 n=c7 v=0
126304 On ch=1 n=f#7 v=0
126334 On ch=1 n=e4 v=0
126336 Par ch=1 c=64 v=127
126336 On ch=1 n=b5 v=92
126336 On ch=1 n=e6 v=92
126336 On ch=1 n=g#6 v=92
126336 On ch=1 n=b6 v=92
126336 On ch=1 n=e2 v=75
126382 On ch=1 n=e2 v=0
126384 On ch=1 n=e3 v=75
126418 On ch=1 n=e3 v=0
126420 On ch=1 n=b3 v=75
126454 On ch=1 n=b3 v=0
126456 On ch=1 n=e4 v=75
126490 On ch=1 n=e4 v=0
126492 On ch=1 n=g#4 v=75
126526 On ch=1 n=g#4 v=0
126528 On ch=1 n=b5 v=0
126528 On ch=1 n=e6 v=0
126528 On ch=1 n=g#6 v=0
126528 On ch=1 n=b6 v=0
126528 On ch=1 n=e6 v=92
126528 On ch=1 n=g#6 v=92
126528 On ch=1 n=b6 v=92
126528 On ch=1 n=e7 v=92
126528 On ch=1 n=e5 v=75
126574 On ch=1 n=e5 v=0
126576 On ch=1 n=b4 v=75
126610 On ch=1 n=b4 v=0
126612 On ch=1 n=g#4 v=75
126646 On ch=1 n=g#4 v=0
126648 On ch=1 n=e4 v=75
126672 Par ch=1 c=64 v=0
126682 On ch=1 n=e4 v=0
126684 On ch=1 n=b3 v=75
126688 On ch=1 n=e6 v=0
126688 On ch=1 n=g#6 v=0
126688 On ch=1 n=b6 v=0
126688 On ch=1 n=e7 v=0
126718 On ch=1 n=b3 v=0
126720 Par ch=1 c=64 v=127
126720 On ch=1 n=b5 v=92
126720 On ch=1 n=d#6 v=92
126720 On ch=1 n=g#6 v=92
126720 On ch=1 n=b6 v=92
126720 On ch=1 n=e2 v=75
126766 On ch=1 n=e2 v=0
126768 On ch=1 n=e3 v=75
126802 On ch=1 n=e3 v=0
126804 On ch=1 n=b3 v=75
126838 On ch=1 n=b3 v=0
126840 On ch=1 n=d#4 v=75
126874 On ch=1 n=d#4 v=0
126876 On ch=1 n=g#4 v=75
126910 On ch=1 n=g#4 v=0
126912 On ch=1 n=b5 v=0
126912 On ch=1 n=d#6 v=0
126912 On ch=1 n=g#6 v=0
126912 On ch=1 n=b6 v=0
126912 On ch=1 n=d#6 v=100
126912 On ch=1 n=g#6 v=100
126912 On ch=1 n=b6 v=100
126912 On ch=1 n=d#7 v=100
126912 On ch=1 n=d#5 v=75
126958 On ch=1 n=d#5 v=0
126960 On ch=1 n=b4 v=75
126994 On ch=1 n=b4 v=0
126996 On ch=1 n=g#4 v=75
127030 On ch=1 n=g#4 v=0
127032 On ch=1 n=d#4 v=75
127056 Par ch=1 c=64 v=0
127066 On ch=1 n=d#4 v=0
127068 On ch=1 n=b3 v=75
127072 On ch=1 n=d#6 v=0
127072 On ch=1 n=g#6 v=0
127072 On ch=1 n=b6 v=0
127072 On ch=1 n=d#7 v=0
127102 On ch=1 n=b3 v=0
127104 Par ch=1 c=64 v=127
127104 On ch=1 n=b5 v=108
127104 On ch=1 n=c#6 v=108
127104 On ch=1 n=g#6 v=108
127104 On ch=1 n=b6 v=108
127104 On ch=1 n=a2 v=75
127150 On ch=1 n=a2 v=0
127152 On ch=1 n=a3 v=75
127186 On ch=1 n=a3 v=0
127188 On ch=1 n=f4 v=75
127222 On ch=1 n=f4 v=0
127224 On ch=1 n=b4 v=75
127258 On ch=1 n=b4 v=0
127260 On ch=1 n=c#5 v=75
127294 On ch=1 n=c#5 v=0
127296 On ch=1 n=b5 v=0
127296 On ch=1 n=c#6 v=0
127296 On ch=1 n=g#6 v=0
127296 On ch=1 n=b6 v=0
127296 On ch=1 n=c#6 v=108
127296 On ch=1 n=g#6 v=108
127296 On ch=1 n=b6 v=108
127296 On ch=1 n=c#7 v=108
127296 On ch=1 n=g#5 v=75
127342 On ch=1 n=g#5 v=0
127344 On ch=1 n=c#5 v=75
127378 On ch=1 n=c#5 v=0
127380 On ch=1 n=b4 v=75
127414 On ch=1 n=b4 v=0
127416 On ch=1 n=g#4 v=75
127440 Par ch=1 c=64 v=0
127450 On ch=1 n=g#4 v=0
127452 On ch=1 n=f#4 v=75
127456 On ch=1 n=c#6 v=0
127456 On ch=1 n=g#6 v=0
127456 On ch=1 n=b6 v=0
127456 On ch=1 n=c#7 v=0
127486 On ch=1 n=f#4 v=0
127488 Par ch=1 c=64 v=127
127488 On ch=1 n=a2 v=75
127488 On ch=1 n=a6 v=108
127488 On ch=1 n=e6 v=108
127488 On ch=1 n=c6 v=108
127488 On ch=1 n=a5 v=108
127534 On ch=1 n=a2 v=0
127536 On ch=1 n=a3 v=75
127570 On ch=1 n=a3 v=0
127572 On ch=1 n=e4 v=75
127606 On ch=1 n=e4 v=0
127608 On ch=1 n=a4 v=75
127642 On ch=1 n=a4 v=0
127644 On ch=1 n=c5 v=75
127678 On ch=1 n=c5 v=0
127680 On ch=1 n=a6 v=0
127680 On ch=1 n=e6 v=0
127680 On ch=1 n=c6 v=0
127680 On ch=1 n=a5 v=0
127680 On ch=1 n=c6 v=100
127680 On ch=1 n=e6 v=100
127680 On ch=1 n=a6 v=100
127680 On ch=1 n=c7 v=100
127680 On ch=1 n=f#5 v=75
127726 On ch=1 n=f#5 v=0
127728 On ch=1 n=c5 v=75
127762 On ch=1 n=c5 v=0
127764 On ch=1 n=a4 v=75
127798 On ch=1 n=a4 v=0
127800 On ch=1 n=f#4 v=75
127824 Par ch=1 c=64 v=0
127834 On ch=1 n=f#4 v=0
127836 On ch=1 n=e4 v=75
127840 On ch=1 n=c6 v=0
127840 On ch=1 n=e6 v=0
127840 On ch=1 n=a6 v=0
127840 On ch=1 n=c7 v=0
127870 On ch=1 n=e4 v=0
127872 Par ch=1 c=64 v=127
127872 On ch=1 n=g#5 v=92
127872 On ch=1 n=c#6 v=92
127872 On ch=1 n=e6 v=92
127872 On ch=1 n=g#6 v=92
127872 On ch=1 n=c#3 v=75
127918 On ch=1 n=c#3 v=0
127920 On ch=1 n=g#3 v=75
127954 On ch=1 n=g#3 v=0
127956 On ch=1 n=e4 v=75
127990 On ch=1 n=e4 v=0
127992 On ch=1 n=g#4 v=75
128026 On ch=1 n=g#4 v=0
128028 On ch=1 n=c#5 v=75
128062 On ch=1 n=c#5 v=0
128064 On ch=1 n=g#5 v=0
128064 On ch=1 n=c#6 v=0
128064 On ch=1 n=e6 v=0
128064 On ch=1 n=g#6 v=0
128064 On ch=1 n=c#6 v=92
128064 On ch=1 n=e6 v=92
128064 On ch=1 n=g#6 v=92
128064 On ch=1 n=c#7 v=92
128064 On ch=1 n=e5 v=75
128110 On ch=1 n=e5 v=0
128112 On ch=1 n=c#5 v=75
128146 On ch=1 n=c#5 v=0
128148 On ch=1 n=g#4 v=75
128182 On ch=1 n=g#4 v=0
128184 On ch=1 n=e4 v=75
128208 Par ch=1 c=64 v=0
128218 On ch=1 n=e4 v=0
128220 On ch=1 n=g#3 v=75
128224 On ch=1 n=c#6 v=0
128224 On ch=1 n=e6 v=0
128224 On ch=1 n=g#6 v=0
128224 On ch=1 n=c#7 v=0
128254 On ch=1 n=g#3 v=0
128256 Par ch=1 c=64 v=127
128256 On ch=1 n=g5 v=92
128256 On ch=1 n=c#6 v=92
128256 On ch=1 n=e6 v=92
128256 On ch=1 n=g6 v=92
128256 On ch=1 n=a2 v=75
128302 On ch=1 n=a2 v=0
128304 On ch=1 n=a3 v=77
128338 On ch=1 n=a3 v=0
128340 On ch=1 n=e4 v=78
128374 On ch=1 n=e4 v=0
128376 On ch=1 n=g4 v=79
128410 On ch=1 n=g4 v=0
128412 On ch=1 n=c#5 v=80
128446 On ch=1 n=c#5 v=0
128448 On ch=1 n=g5 v=0
128448 On ch=1 n=c#6 v=0
128448 On ch=1 n=e6 v=0
128448 On ch=1 n=g6 v=0
128448 On ch=1 n=c#6 v=100
128448 On ch=1 n=e6 v=100
128448 On ch=1 n=g6 v=100
128448 On ch=1 n=c#7 v=100
128448 On ch=1 n=e5 v=81
128494 On ch=1 n=e5 v=0
128496 On ch=1 n=c#5 v=83
128530 On ch=1 n=c#5 v=0
128532 On ch=1 n=g4 v=85
128566 On ch=1 n=g4 v=0
128568 On ch=1 n=e4 v=87
128592 Par ch=1 c=64 v=0
128602 On ch=1 n=e4 v=0
128604 On ch=1 n=a3 v=89
128608 On ch=1 n=c#6 v=0
128608 On ch=1 n=e6 v=0
128608 On ch=1 n=g6 v=0
128608 On ch=1 n=c#7 v=0
128638 On ch=1 n=a3 v=0
128640 Par ch=1 c=64 v=127
128640 On ch=1 n=f#5 v=108
128640 On ch=1 n=a5 v=108
128640 On ch=1 n=c#6 v=108
128640 On ch=1 n=e6 v=108
128640 On ch=1 n=f#6 v=108
128640 On ch=1 n=f#2 v=92
128686 On ch=1 n=f#2 v=0
128688 On ch=1 n=f#3 v=92
128722 On ch=1 n=f#3 v=0
128724 On ch=1 n=e4 v=92
128758 On ch=1 n=e4 v=0
128760 On ch=1 n=a4 v=92
128794 On ch=1 n=a4 v=0
128796 On ch=1 n=c#5 v=92
128830 On ch=1 n=c#5 v=0
128832 On ch=1 n=f#5 v=0
128832 On ch=1 n=a5 v=0
128832 On ch=1 n=c#6 v=0
128832 On ch=1 n=e6 v=0
128832 On ch=1 n=f#6 v=0
128832 On ch=1 n=c#6 v=108
128832 On ch=1 n=e6 v=108
128832 On ch=1 n=a6 v=108
128832 On ch=1 n=c#7 v=108
128832 On ch=1 n=e5 v=92
128878 On ch=1 n=e5 v=0
128880 On ch=1 n=c#5 v=92
128914 On ch=1 n=c#5 v=0
128916 On ch=1 n=a4 v=92
128950 On ch=1 n=a4 v=0
128952 On ch=1 n=f#4 v=92
128976 Par ch=1 c=64 v=0
128986 On ch=1 n=f#4 v=0
128988 On ch=1 n=e4 v=92
128992 On ch=1 n=c#6 v=0
128992 On ch=1 n=e6 v=0
128992 On ch=1 n=a6 v=0
128992 On ch=1 n=c#7 v=0
129022 On ch=1 n=e4 v=0
129024 Par ch=1 c=64 v=127
129024 On ch=1 n=f#5 v=108
129024 On ch=1 n=a5 v=108
129024 On ch=1 n=b5 v=108
129024 On ch=1 n=d#6 v=108
129024 On ch=1 n=f#6 v=108
129024 On ch=1 n=b2 v=92
129070 On ch=1 n=b2 v=0
129072 On ch=1 n=b3 v=90
129106 On ch=1 n=b3 v=0
129108 On ch=1 n=f#4 v=89
129142 On ch=1 n=f#4 v=0
129144 On ch=1 n=a4 v=88
129178 On ch=1 n=a4 v=0
129180 On ch=1 n=b4 v=87
129214 On ch=1 n=b4 v=0
129216 On ch=1 n=f#5 v=0
129216 On ch=1 n=a5 v=0
129216 On ch=1 n=b5 v=0
129216 On ch=1 n=d#6 v=0
129216 On ch=1 n=f#6 v=0
129216 On ch=1 n=b5 v=100
129216 On ch=1 n=d#6 v=100
129216 On ch=1 n=f#6 v=100
129216 On ch=1 n=a6 v=100
129216 On ch=1 n=b6 v=100
129216 On ch=1 n=d#5 v=86
129262 On ch=1 n=d#5 v=0
129264 On ch=1 n=b4 v=84
129298 On ch=1 n=b4 v=0
129300 On ch=1 n=a4 v=82
129334 On ch=1 n=a4 v=0
129336 On ch=1 n=f#4 v=80
129360 Par ch=1 c=64 v=0
129370 On ch=1 n=f#4 v=0
129372 On ch=1 n=b3 v=78
129376 On ch=1 n=b5 v=0
129376 On ch=1 n=d#6 v=0
129376 On ch=1 n=f#6 v=0
129376 On ch=1 n=a6 v=0
129376 On ch=1 n=b6 v=0
129406 On ch=1 n=b3 v=0
129408 Par ch=1 c=64 v=127
129408 On ch=1 n=g#5 v=92
129408 On ch=1 n=b5 v=92
129408 On ch=1 n=e6 v=92
129408 On ch=1 n=g#6 v=92
129408 On ch=1 n=e2 v=75
129454 On ch=1 n=e2 v=0
129456 On ch=1 n=e3 v=75
129490 On ch=1 n=e3 v=0
129492 On ch=1 n=b3 v=75
129526 On ch=1 n=b3 v=0
129528 On ch=1 n=g#4 v=75
129562 On ch=1 n=g#4 v=0
129564 On ch=1 n=b4 v=75
129598 On ch=1 n=b4 v=0
129600 On ch=1 n=g#5 v=0
129600 On ch=1 n=b5 v=0
129600 On ch=1 n=e6 v=0
129600 On ch=1 n=g#6 v=0
129600 On ch=1 n=b5 v=92
129600 On ch=1 n=e6 v=92
129600 On ch=1 n=g#6 v=92
129600 On ch=1 n=b6 v=92
129600 On ch=1 n=e5 v=75
129646 On ch=1 n=e5 v=0
129648 On ch=1 n=b4 v=75
129682 On ch=1 n=b4 v=0
129684 On ch=1 n=g#4 v=75
129718 On ch=1 n=g#4 v=0
129720 On ch=1 n=b3 v=75
129744 Par ch=1 c=64 v=0
129754 On ch=1 n=b3 v=0
129756 On ch=1 n=e3 v=75
129760 On ch=1 n=b5 v=0
129760 On ch=1 n=e6 v=0
129760 On ch=1 n=g#6 v=0
129760 On ch=1 n=b6 v=0
129790 On ch=1 n=e3 v=0
129792 Par ch=1 c=64 v=127
129792 On ch=1 n=g#5 v=92
129792 On ch=1 n=c#6 v=92
129792 On ch=1 n=e6 v=92
129792 On ch=1 n=g#6 v=92
129792 On ch=1 n=e2 v=75
129838 On ch=1 n=e2 v=0
129840 On ch=1 n=e3 v=77
129874 On ch=1 n=e3 v=0
129876 On ch=1 n=c#4 v=78
129910 On ch=1 n=c#4 v=0
129912 On ch=1 n=g#4 v=79
129946 On ch=1 n=g#4 v=0
129948 On ch=1 n=c#5 v=80
129982 On ch=1 n=c#5 v=0
129984 On ch=1 n=g#5 v=0
129984 On ch=1 n=c#6 v=0
129984 On ch=1 n=e6 v=0
129984 On ch=1 n=g#6 v=0
129984 On ch=1 n=c#6 v=100
129984 On ch=1 n=e6 v=100
129984 On ch=1 n=g#6 v=100
129984 On ch=1 n=c#7 v=100
129984 On ch=1 n=e5 v=81
130030 On ch=1 n=e5 v=0
130032 On ch=1 n=c#5 v=83
130066 On ch=1 n=c#5 v=0
130068 On ch=1 n=g#4 v=85
130102 On ch=1 n=g#4 v=0
130104 On ch=1 n=c#4 v=87
130128 Par ch=1 c=64 v=0
130138 On ch=1 n=c#4 v=0
130140 On ch=1 n=e3 v=89
130144 On ch=1 n=c#6 v=0
130144 On ch=1 n=e6 v=0
130144 On ch=1 n=g#6 v=0
130144 On ch=1 n=c#7 v=0
130174 On ch=1 n=e3 v=0
130176 Par ch=1 c=64 v=127
130176 On ch=1 n=f#5 v=108
130176 On ch=1 n=a#5 v=108
130176 On ch=1 n=c#6 v=108
130176 On ch=1 n=e6 v=108
130176 On ch=1 n=f#6 v=108
130176 On ch=1 n=e2 v=92
130222 On ch=1 n=e2 v=0
130224 On ch=1 n=e3 v=92
130258 On ch=1 n=e3 v=0
130260 On ch=1 n=c#4 v=92
130294 On ch=1 n=c#4 v=0
130296 On ch=1 n=f#4 v=92
130330 On ch=1 n=f#4 v=0
130332 On ch=1 n=a#4 v=92
130366 On ch=1 n=a#4 v=0
130368 On ch=1 n=f#5 v=0
130368 On ch=1 n=a#5 v=0
130368 On ch=1 n=c#6 v=0
130368 On ch=1 n=e6 v=0
130368 On ch=1 n=f#6 v=0
130368 On ch=1 n=c#6 v=108
130368 On ch=1 n=e6 v=108
130368 On ch=1 n=f#6 v=108
130368 On ch=1 n=c#7 v=108
130368 On ch=1 n=e5 v=92
130414 On ch=1 n=e5 v=0
130416 On ch=1 n=a#4 v=92
130450 On ch=1 n=a#4 v=0
130452 On ch=1 n=f#4 v=92
130486 On ch=1 n=f#4 v=0
130488 On ch=1 n=c#4 v=92
130512 Par ch=1 c=64 v=0
130522 On ch=1 n=c#4 v=0
130524 On ch=1 n=e3 v=92
130528 On ch=1 n=c#6 v=0
130528 On ch=1 n=e6 v=0
130528 On ch=1 n=f#6 v=0
130528 On ch=1 n=c#7 v=0
130558 On ch=1 n=e3 v=0
130560 Par ch=1 c=64 v=127
130560 On ch=1 n=g5 v=108
130560 On ch=1 n=a5 v=108
130560 On ch=1 n=c6 v=108
130560 On ch=1 n=d#6 v=108
130560 On ch=1 n=g6 v=108
130560 On ch=1 n=e2 v=92
130606 On ch=1 n=e2 v=0
130608 On ch=1 n=e3 v=90
130642 On ch=1 n=e3 v=0
130644 On ch=1 n=c4 v=89
130678 On ch=1 n=c4 v=0
130680 On ch=1 n=g4 v=88
130714 On ch=1 n=g4 v=0
130716 On ch=1 n=a4 v=87
130750 On ch=1 n=a4 v=0
130752 On ch=1 n=g5 v=0
130752 On ch=1 n=a5 v=0
130752 On ch=1 n=c6 v=0
130752 On ch=1 n=d#6 v=0
130752 On ch=1 n=g6 v=0
130752 On ch=1 n=c7 v=100
130752 On ch=1 n=d#5 v=86
130752 On ch=1 n=g6 v=100
130752 On ch=1 n=d#6 v=100
130752 On ch=1 n=c6 v=100
130798 On ch=1 n=d#5 v=0
130800 On ch=1 n=a4 v=84
130834 On ch=1 n=a4 v=0
130836 On ch=1 n=g4 v=82
130870 On ch=1 n=g4 v=0
130872 On ch=1 n=c4 v=80
130896 Par ch=1 c=64 v=0
130906 On ch=1 n=c4 v=0
130908 On ch=1 n=e3 v=78
130912 On ch=1 n=c7 v=0
130912 On ch=1 n=g6 v=0
130912 On ch=1 n=d#6 v=0
130912 On ch=1 n=c6 v=0
130942 On ch=1 n=e3 v=0
130944 Par ch=1 c=64 v=127
130944 On ch=1 n=g#5 v=92
130944 On ch=1 n=b5 v=92
130944 On ch=1 n=e6 v=92
130944 On ch=1 n=g#6 v=92
130944 On ch=1 n=e2 v=75
130990 On ch=1 n=e2 v=0
130992 On ch=1 n=e3 v=75
131026 On ch=1 n=e3 v=0
131028 On ch=1 n=b3 v=75
131062 On ch=1 n=b3 v=0
131064 On ch=1 n=g#4 v=75
131098 On ch=1 n=g#4 v=0
131100 On ch=1 n=b4 v=75
131134 On ch=1 n=b4 v=0
131136 On ch=1 n=g#5 v=0
131136 On ch=1 n=b5 v=0
131136 On ch=1 n=e6 v=0
131136 On ch=1 n=g#6 v=0
131136 On ch=1 n=b5 v=92
131136 On ch=1 n=e6 v=92
131136 On ch=1 n=g#6 v=92
131136 On ch=1 n=b6 v=92
131136 On ch=1 n=e5 v=75
131182 On ch=1 n=e5 v=0
131184 On ch=1 n=b4 v=75
131218 On ch=1 n=b4 v=0
131220 On ch=1 n=g#4 v=75
131254 On ch=1 n=g#4 v=0
131256 On ch=1 n=b3 v=75
131280 Par ch=1 c=64 v=0
131290 On ch=1 n=b3 v=0
131292 On ch=1 n=e3 v=75
131296 On ch=1 n=b5 v=0
131296 On ch=1 n=e6 v=0
131296 On ch=1 n=g#6 v=0
131296 On ch=1 n=b6 v=0
131326 On ch=1 n=e3 v=0
131328 Par ch=1 c=64 v=127
131328 On ch=1 n=g#4 v=92
131328 On ch=1 n=c#5 v=92
131328 On ch=1 n=e5 v=92
131328 On ch=1 n=g#5 v=92
131328 On ch=1 n=e2 v=75
131374 On ch=1 n=e2 v=0
131376 On ch=1 n=e3 v=75
131422 On ch=1 n=e3 v=0
131424 On ch=1 n=c#4 v=75
131470 On ch=1 n=c#4 v=0
131472 On ch=1 n=g#4 v=75
131520 On ch=1 n=g#4 v=0
131520 On ch=1 n=c#5 v=0
131520 On ch=1 n=e5 v=0
131520 On ch=1 n=g#5 v=0
131520 On ch=1 n=c#5 v=92
131520 On ch=1 n=e5 v=92
131520 On ch=1 n=g#5 v=92
131520 On ch=1 n=c#6 v=92
131566 On ch=1 n=g#4 v=0
131568 On ch=1 n=g#4 v=75
131614 On ch=1 n=g#4 v=0
131616 On ch=1 n=c#4 v=75
131662 On ch=1 n=c#4 v=0
131664 Par ch=1 c=64 v=0
131664 On ch=1 n=e3 v=75
131680 On ch=1 n=c#5 v=0
131680 On ch=1 n=e5 v=0
131680 On ch=1 n=g#5 v=0
131680 On ch=1 n=c#6 v=0
131710 On ch=1 n=e3 v=0
131712 Par ch=1 c=64 v=127
131712 On ch=1 n=f#4 v=92
131712 On ch=1 n=a4 v=92
131712 On ch=1 n=c5 v=92
131712 On ch=1 n=e5 v=92
131712 On ch=1 n=f#5 v=92
131712 On ch=1 n=e2 v=75
131758 On ch=1 n=e2 v=0
131760 On ch=1 n=e3 v=75
131806 On ch=1 n=e3 v=0
131808 On ch=1 n=c4 v=75
131854 On ch=1 n=c4 v=0
131856 On ch=1 n=a4 v=75
131904 On ch=1 n=f#4 v=0
131904 On ch=1 n=a4 v=0
131904 On ch=1 n=c5 v=0
131904 On ch=1 n=e5 v=0
131904 On ch=1 n=f#5 v=0
131904 On ch=1 n=c5 v=92
131904 On ch=1 n=e5 v=92
131904 On ch=1 n=a5 v=92
131904 On ch=1 n=c6 v=92
131950 On ch=1 n=a4 v=0
131952 On ch=1 n=a4 v=75
131998 On ch=1 n=a4 v=0
132000 On ch=1 n=c4 v=75
132046 On ch=1 n=c4 v=0
132048 Par ch=1 c=64 v=0
132048 On ch=1 n=e3 v=75
132064 On ch=1 n=c5 v=0
132064 On ch=1 n=e5 v=0
132064 On ch=1 n=a5 v=0
132064 On ch=1 n=c6 v=0
132094 On ch=1 n=e3 v=0
132096 Par ch=1 c=64 v=127
132096 On ch=1 n=g4 v=92
132096 On ch=1 n=a4 v=92
132096 On ch=1 n=b4 v=92
132096 On ch=1 n=d#5 v=92
132096 On ch=1 n=g5 v=92
132096 On ch=1 n=e2 v=75
132142 On ch=1 n=e2 v=0
132144 On ch=1 n=e3 v=74
132190 On ch=1 n=e3 v=0
132192 On ch=1 n=b3 v=72
132238 On ch=1 n=b3 v=0
132240 On ch=1 n=g4 v=70
132288 On ch=1 n=g4 v=0
132288 On ch=1 n=a4 v=0
132288 On ch=1 n=b4 v=0
132288 On ch=1 n=d#5 v=0
132288 On ch=1 n=g5 v=0
132288 On ch=1 n=b4 v=84
132288 On ch=1 n=d#5 v=84
132288 On ch=1 n=g#5 v=84
132288 On ch=1 n=b5 v=84
132334 On ch=1 n=g4 v=0
132336 On ch=1 n=g4 v=66
132382 On ch=1 n=g4 v=0
132384 On ch=1 n=b3 v=64
132430 On ch=1 n=b3 v=0
132432 Par ch=1 c=64 v=0
132432 On ch=1 n=e3 v=62
132448 On ch=1 n=b4 v=0
132448 On ch=1 n=d#5 v=0
132448 On ch=1 n=g#5 v=0
132448 On ch=1 n=b5 v=0
132478 On ch=1 n=e3 v=0
132480 Par ch=1 c=64 v=127
132480 On ch=1 n=g#4 v=75
132480 On ch=1 n=b4 v=75
132480 On ch=1 n=e5 v=75
132480 On ch=1 n=g#5 v=75
132480 On ch=1 n=e2 v=60
132526 On ch=1 n=e2 v=0
132528 On ch=1 n=e3 v=60
132574 On ch=1 n=e3 v=0
132576 On ch=1 n=b3 v=60
132622 On ch=1 n=b3 v=0
132624 On ch=1 n=g#4 v=60
132672 On ch=1 n=g#4 v=0
132672 On ch=1 n=b4 v=0
132672 On ch=1 n=e5 v=0
132672 On ch=1 n=g#5 v=0
132672 On ch=1 n=b4 v=75
132672 On ch=1 n=e5 v=75
132672 On ch=1 n=g#5 v=75
132672 On ch=1 n=b5 v=75
132718 On ch=1 n=g#4 v=0
132720 On ch=1 n=g#4 v=60
132766 On ch=1 n=g#4 v=0
132768 On ch=1 n=b3 v=60
132814 On ch=1 n=b3 v=0
132816 Par ch=1 c=64 v=0
132816 On ch=1 n=e3 v=60
132832 On ch=1 n=b4 v=0
132832 On ch=1 n=e5 v=0
132832 On ch=1 n=g#5 v=0
132832 On ch=1 n=b5 v=0
132862 On ch=1 n=e3 v=0
132864 Par ch=1 c=64 v=127
132864 On ch=1 n=g#4 v=73
132864 On ch=1 n=b4 v=73
132864 On ch=1 n=e2 v=60
132910 On ch=1 n=e2 v=0
132912 On ch=1 n=e3 v=60
132958 On ch=1 n=e3 v=0
132960 On ch=1 n=b3 v=60
133006 On ch=1 n=b3 v=0
133008 On ch=1 n=g#4 v=60
133056 On ch=1 n=g#4 v=0
133056 On ch=1 n=b4 v=0
133056 On ch=1 n=e4 v=71
133056 On ch=1 n=b4 v=71
133056 On ch=1 n=e5 v=71
133102 On ch=1 n=g#4 v=0
133104 On ch=1 n=g#4 v=60
133150 On ch=1 n=g#4 v=0
133152 On ch=1 n=b3 v=60
133198 On ch=1 n=b3 v=0
133200 Par ch=1 c=64 v=0
133200 On ch=1 n=e3 v=60
133216 On ch=1 n=e4 v=0
133216 On ch=1 n=b4 v=0
133216 On ch=1 n=e5 v=0
133246 On ch=1 n=e3 v=0
133248 Par ch=1 c=64 v=127
133248 On ch=1 n=e4 v=69
133248 On ch=1 n=g#4 v=69
133248 On ch=1 n=e2 v=60
133294 On ch=1 n=e2 v=0
133296 On ch=1 n=e3 v=60
133342 On ch=1 n=e3 v=0
133344 On ch=1 n=b3 v=60
133390 On ch=1 n=b3 v=0
133392 On ch=1 n=g#4 v=60
133440 On ch=1 n=e4 v=0
133440 On ch=1 n=g#4 v=0
133440 On ch=1 n=e4 v=67
133440 On ch=1 n=b4 v=67
133486 On ch=1 n=g#4 v=0
133488 On ch=1 n=g#4 v=60
133534 On ch=1 n=g#4 v=0
133536 On ch=1 n=b3 v=60
133582 On ch=1 n=b3 v=0
133584 Par ch=1 c=64 v=0
133584 On ch=1 n=e3 v=60
133630 On ch=1 n=e3 v=0
133632 Par ch=1 c=64 v=127
133632 On ch=1 n=e2 v=60
133678 On ch=1 n=e2 v=0
133680 On ch=1 n=e3 v=60
133726 On ch=1 n=e3 v=0
133728 On ch=1 n=b3 v=60
133774 On ch=1 n=b3 v=0
133776 On ch=1 n=g#4 v=60
133870 On ch=1 n=g#4 v=0
133872 On ch=1 n=g#4 v=60
133918 On ch=1 n=g#4 v=0
133920 On ch=1 n=b3 v=60
133966 On ch=1 n=b3 v=0
133968 On ch=1 n=e4 v=0
133968 On ch=1 n=b4 v=0
133968 Par ch=1 c=64 v=0
133968 On ch=1 n=e3 v=60
134014 On ch=1 n=e3 v=0
134016 Par ch=1 c=64 v=127
134016 On ch=1 n=e2 v=60
134110 On ch=1 n=e2 v=0
134112 On ch=1 n=e3 v=60
134206 On ch=1 n=e3 v=0
134208 On ch=1 n=b3 v=60
134302 On ch=1 n=b3 v=0
134304 On ch=1 n=e4 v=60
134398 On ch=1 n=e4 v=0
134400 On ch=1 n=g#4 v=60
134494 On ch=1 n=g#4 v=0
134496 On ch=1 n=b4 v=60
134590 On ch=1 n=b4 v=0
134592 On ch=1 n=e5 v=60
134686 On ch=1 n=e5 v=0
134688 On ch=1 n=f#5 v=76
134782 On ch=1 n=f#5 v=0
134784 Par ch=1 c=64 v=0
134784 On ch=1 n=g#5 v=92
134976 On ch=1 n=a4 v=75
134976 On ch=1 n=b4 v=75
134976 On ch=1 n=d#5 v=75
134976 On ch=1 n=b2 v=60
135168 On ch=1 n=g#5 v=0
135168 On ch=1 n=a5 v=92
135504 On ch=1 n=a4 v=0
135504 On ch=1 n=b4 v=0
135504 On ch=1 n=d#5 v=0
135504 On ch=1 n=b2 v=0
135504 On ch=1 n=a5 v=0
135504 On ch=1 n=g#5 v=64
135552 On ch=1 n=g#5 v=0
135552 Par ch=1 c=64 v=127
135552 On ch=1 n=e2 v=60
135576 On ch=1 n=e3 v=60
135600 On ch=1 n=b3 v=60
135624 On ch=1 n=g#4 v=60
135648 On ch=1 n=b4 v=60
135672 On ch=1 n=e5 v=60
135696 On ch=1 n=g#5 v=75
136272 On ch=1 n=e2 v=0
136272 On ch=1 n=e3 v=0
136272 On ch=1 n=b3 v=0
136272 On ch=1 n=g#4 v=0
136272 On ch=1 n=b4 v=0
136272 On ch=1 n=e5 v=0
136272 On ch=1 n=g#5 v=0
136320 Par ch=1 c=64 v=0
137088 Par ch=1 c=121 v=127
137088 Meta TrkEnd
TrkEnd
MTrk
0 Meta TrkName "Flauti I - II"
0 Meta 0x21 00
0 Par ch=2 c=121 v=127
0 PrCh ch=2 p=73
0 Par ch=2 c=7 v=60
0 Par ch=2 c=10 v=64
0 Par ch=2 c=91 v=64
6336 Par ch=2 c=7 v=60
6336 On ch=2 n=b5 v=110
6348 Par ch=2 c=7 v=61
6361 Par ch=2 c=7 v=62
6374 Par ch=2 c=7 v=63
6387 Par ch=2 c=7 v=64
6400 Par ch=2 c=7 v=65
6412 Par ch=2 c=7 v=66
6425 Par ch=2 c=7 v=67
6438 Par ch=2 c=7 v=68
6451 Par ch=2 c=7 v=69
6464 Par ch=2 c=7 v=70
6476 Par ch=2 c=7 v=71
6489 Par ch=2 c=7 v=72
6502 Par ch=2 c=7 v=73
6515 Par ch=2 c=7 v=74
6528 On ch=2 n=b5 v=0
6528 Par ch=2 c=7 v=75
6528 Par ch=2 c=7 v=75
6528 On ch=2 n=e6 v=110
6550 Par ch=2 c=7 v=76
6573 Par ch=2 c=7 v=77
6595 Par ch=2 c=7 v=78
6618 Par ch=2 c=7 v=79
6640 Par ch=2 c=7 v=80
6663 Par ch=2 c=7 v=81
6686 Par ch=2 c=7 v=82
6708 Par ch=2 c=7 v=83
6720 On ch=2 n=e6 v=0
6720 On ch=2 n=f6 v=110
6731 Par ch=2 c=7 v=84
6753 Par ch=2 c=7 v=85
6776 Par ch=2 c=7 v=86
6799 Par ch=2 c=7 v=87
6821 Par ch=2 c=7 v=88
6844 Par ch=2 c=7 v=89
6866 Par ch=2 c=7 v=90
6880 On ch=2 n=f6 v=0
6889 Par ch=2 c=7 v=91
6912 Par ch=2 c=7 v=92
6912 Par ch=2 c=7 v=75
6912 On ch=2 n=f6 v=110
7296 On ch=2 n=f6 v=0
7296 Par ch=2 c=7 v=75
7296 On ch=2 n=f#6 v=110
7307 Par ch=2 c=7 v=76
7318 Par ch=2 c=7 v=77
7329 Par ch=2 c=7 v=78
7341 Par ch=2 c=7 v=79
7352 Par ch=2 c=7 v=80
7363 Par ch=2 c=7 v=81
7375 Par ch=2 c=7 v=82
7386 Par ch=2 c=7 v=83
7397 Par ch=2 c=7 v=84
7408 Par ch=2 c=7 v=85
7420 Par ch=2 c=7 v=86
7431 Par ch=2 c=7 v=87
7442 Par ch=2 c=7 v=88
7454 Par ch=2 c=7 v=89
7465 Par ch=2 c=7 v=90
7476 Par ch=2 c=7 v=91
7488 On ch=2 n=f#6 v=0
7488 Par ch=2 c=7 v=92
7488 On ch=2 n=a6 v=110
7499 Par ch=2 c=7 v=91
7510 Par ch=2 c=7 v=90
7521 Par ch=2 c=7 v=89
7533 Par ch=2 c=7 v=88
7544 Par ch=2 c=7 v=87
7555 Par ch=2 c=7 v=86
7567 Par ch=2 c=7 v=85
7578 Par ch=2 c=7 v=84
7589 Par ch=2 c=7 v=83
7600 Par ch=2 c=7 v=82
7612 Par ch=2 c=7 v=81
7623 Par ch=2 c=7 v=80
7634 Par ch=2 c=7 v=79
7646 Par ch=2 c=7 v=78
7657 Par ch=2 c=7 v=77
7668 Par ch=2 c=7 v=76
7680 On ch=2 n=a6 v=0
7680 Par ch=2 c=7 v=75
7680 Par ch=2 c=7 v=75
7680 On ch=2 n=d#6 v=110
8064 On ch=2 n=d#6 v=0
8064 Par ch=2 c=7 v=75
8064 On ch=2 n=e6 v=110
8075 Par ch=2 c=7 v=76
8086 Par ch=2 c=7 v=77
8097 Par ch=2 c=7 v=78
8109 Par ch=2 c=7 v=79
8120 Par ch=2 c=7 v=80
8131 Par ch=2 c=7 v=81
8143 Par ch=2 c=7 v=82
8154 Par ch=2 c=7 v=83
8165 Par ch=2 c=7 v=84
8176 Par ch=2 c=7 v=85
8188 Par ch=2 c=7 v=86
8199 Par ch=2 c=7 v=87
8210 Par ch=2 c=7 v=88
8222 Par ch=2 c=7 v=89
8233 Par ch=2 c=7 v=90
8244 Par ch=2 c=7 v=91
8256 On ch=2 n=e6 v=0
8256 Par ch=2 c=7 v=92
8256 On ch=2 n=g#6 v=110
8267 Par ch=2 c=7 v=91
8278 Par ch=2 c=7 v=90
8289 Par ch=2 c=7 v=89
8301 Par ch=2 c=7 v=88
8312 Par ch=2 c=7 v=87
8323 Par ch=2 c=7 v=86
8335 Par ch=2 c=7 v=85
8346 Par ch=2 c=7 v=84
8357 Par ch=2 c=7 v=83
8368 Par ch=2 c=7 v=82
8380 Par ch=2 c=7 v=81
8391 Par ch=2 c=7 v=80
8402 Par ch=2 c=7 v=79
8414 Par ch=2 c=7 v=78
8425 Par ch=2 c=7 v=77
8436 Par ch=2 c=7 v=76
8448 On ch=2 n=g#6 v=0
8448 Par ch=2 c=7 v=75
8448 Par ch=2 c=7 v=75
8448 On ch=2 n=c#6 v=110
8460 Par ch=2 c=7 v=74
8473 Par ch=2 c=7 v=73
8486 Par ch=2 c=7 v=72
8499 Par ch=2 c=7 v=71
8512 Par ch=2 c=7 v=70
8524 Par ch=2 c=7 v=69
8537 Par ch=2 c=7 v=68
8550 Par ch=2 c=7 v=67
8563 Par ch=2 c=7 v=66
8576 Par ch=2 c=7 v=65
8588 Par ch=2 c=7 v=64
8601 Par ch=2 c=7 v=63
8614 Par ch=2 c=7 v=62
8627 Par ch=2 c=7 v=61
8640 Par ch=2 c=7 v=60
8832 On ch=2 n=c#6 v=0
8832 On ch=2 n=e6 v=110
8926 On ch=2 n=e6 v=0
11520 On ch=2 n=g#5 v=110
11520 On ch=2 n=d5 v=110
11904 On ch=2 n=g#5 v=0
11904 On ch=2 n=d5 v=0
11904 On ch=2 n=a5 v=110
11904 On ch=2 n=e5 v=110
12096 On ch=2 n=e5 v=0
12096 On ch=2 n=c#5 v=110
12382 On ch=2 n=a5 v=0
12382 On ch=2 n=c#5 v=0
14208 Par ch=2 c=7 v=75
14208 On ch=2 n=e5 v=110
14208 On ch=2 n=g#5 v=110
14220 Par ch=2 c=7 v=74
14233 Par ch=2 c=7 v=73
14246 Par ch=2 c=7 v=72
14259 Par ch=2 c=7 v=71
14272 Par ch=2 c=7 v=70
14284 Par ch=2 c=7 v=69
14297 Par ch=2 c=7 v=68
14310 Par ch=2 c=7 v=67
14323 Par ch=2 c=7 v=66
14336 Par ch=2 c=7 v=65
14348 Par ch=2 c=7 v=64
14361 Par ch=2 c=7 v=63
14374 Par ch=2 c=7 v=62
14387 Par ch=2 c=7 v=61
14400 Par ch=2 c=7 v=60
14412 Par ch=2 c=7 v=59
14425 Par ch=2 c=7 v=58
14438 Par ch=2 c=7 v=57
14451 Par ch=2 c=7 v=56
14464 Par ch=2 c=7 v=55
14476 Par ch=2 c=7 v=54
14489 Par ch=2 c=7 v=53
14502 Par ch=2 c=7 v=52
14515 Par ch=2 c=7 v=51
14528 Par ch=2 c=7 v=50
14540 Par ch=2 c=7 v=49
14553 Par ch=2 c=7 v=48
14566 Par ch=2 c=7 v=47
14579 Par ch=2 c=7 v=46
14592 Par ch=2 c=7 v=45
15070 On ch=2 n=e5 v=0
15070 On ch=2 n=g#5 v=0
17664 Par ch=2 c=7 v=60
17664 On ch=2 n=e6 v=110
17676 Par ch=2 c=7 v=61
17689 Par ch=2 c=7 v=62
17702 Par ch=2 c=7 v=63
17715 Par ch=2 c=7 v=64
17728 Par ch=2 c=7 v=65
17740 Par ch=2 c=7 v=66
17753 Par ch=2 c=7 v=67
17766 Par ch=2 c=7 v=68
17779 Par ch=2 c=7 v=69
17792 Par ch=2 c=7 v=70
17804 Par ch=2 c=7 v=71
17817 Par ch=2 c=7 v=72
17830 Par ch=2 c=7 v=73
17843 Par ch=2 c=7 v=74
17856 Par ch=2 c=7 v=75
17856 On ch=2 n=d7 v=110
18048 On ch=2 n=e6 v=0
18048 On ch=2 n=d7 v=0
18048 On ch=2 n=c#7 v=110
18048 On ch=2 n=f6 v=110
18240 On ch=2 n=c#7 v=0
18240 On ch=2 n=b6 v=110
18432 On ch=2 n=f6 v=0
18432 On ch=2 n=b6 v=0
18432 Par ch=2 c=7 v=75
18432 On ch=2 n=a#6 v=110
18432 On ch=2 n=e6 v=110
18457 Par ch=2 c=7 v=74
18483 Par ch=2 c=7 v=73
18508 Par ch=2 c=7 v=72
18534 Par ch=2 c=7 v=71
18560 Par ch=2 c=7 v=70
18585 Par ch=2 c=7 v=69
18611 Par ch=2 c=7 v=68
18624 On ch=2 n=a#6 v=0
18624 On ch=2 n=a6 v=110
18636 Par ch=2 c=7 v=67
18662 Par ch=2 c=7 v=66
18688 Par ch=2 c=7 v=65
18713 Par ch=2 c=7 v=64
18739 Par ch=2 c=7 v=63
18764 Par ch=2 c=7 v=62
18784 On ch=2 n=a6 v=0
18790 Par ch=2 c=7 v=61
18816 On ch=2 n=e6 v=0
18816 Par ch=2 c=7 v=60
18816 On ch=2 n=a6 v=110
18816 On ch=2 n=d#6 v=110
18841 Par ch=2 c=7 v=59
18867 Par ch=2 c=7 v=58
18892 Par ch=2 c=7 v=57
18918 Par ch=2 c=7 v=56
18944 Par ch=2 c=7 v=55
18969 Par ch=2 c=7 v=54
18995 Par ch=2 c=7 v=53
19020 Par ch=2 c=7 v=52
19046 Par ch=2 c=7 v=51
19072 Par ch=2 c=7 v=50
19097 Par ch=2 c=7 v=49
19104 On ch=2 n=a6 v=0
19104 On ch=2 n=g#6 v=110
19123 Par ch=2 c=7 v=48
19148 Par ch=2 c=7 v=47
19174 Par ch=2 c=7 v=46
19200 On ch=2 n=d#6 v=0
19200 On ch=2 n=g#6 v=0
19200 Par ch=2 c=7 v=45
19200 On ch=2 n=e6 v=110
19294 On ch=2 n=e6 v=0
45504 Par ch=2 c=7 v=45
45504 On ch=2 n=e5 v=110
45516 Par ch=2 c=7 v=46
45529 Par ch=2 c=7 v=47
45542 Par ch=2 c=7 v=48
45555 Par ch=2 c=7 v=49
45568 Par ch=2 c=7 v=50
45580 Par ch=2 c=7 v=51
45593 Par ch=2 c=7 v=52
45606 Par ch=2 c=7 v=53
45619 Par ch=2 c=7 v=54
45632 Par ch=2 c=7 v=55
45644 Par ch=2 c=7 v=56
45657 Par ch=2 c=7 v=57
45670 Par ch=2 c=7 v=58
45683 Par ch=2 c=7 v=59
45696 On ch=2 n=e5 v=0
45696 Par ch=2 c=7 v=60
45696 On ch=2 n=d5 v=110
45696 On ch=2 n=f5 v=110
45708 Par ch=2 c=7 v=59
45721 Par ch=2 c=7 v=58
45734 Par ch=2 c=7 v=57
45747 Par ch=2 c=7 v=56
45760 Par ch=2 c=7 v=55
45772 Par ch=2 c=7 v=54
45785 Par ch=2 c=7 v=53
45798 Par ch=2 c=7 v=52
45811 Par ch=2 c=7 v=51
45824 Par ch=2 c=7 v=50
45836 Par ch=2 c=7 v=49
45849 Par ch=2 c=7 v=48
45862 Par ch=2 c=7 v=47
45875 Par ch=2 c=7 v=46
45888 Par ch=2 c=7 v=45
45982 On ch=2 n=d5 v=0
45982 On ch=2 n=f5 v=0
47040 On ch=2 n=e5 v=110
47232 On ch=2 n=e5 v=0
47232 Par ch=2 c=7 v=45
47232 On ch=2 n=c#5 v=110
47232 On ch=2 n=g5 v=110
47244 Par ch=2 c=7 v=46
47257 Par ch=2 c=7 v=47
47270 Par ch=2 c=7 v=48
47283 Par ch=2 c=7 v=49
47296 Par ch=2 c=7 v=50
47308 Par ch=2 c=7 v=51
47321 Par ch=2 c=7 v=52
47334 Par ch=2 c=7 v=53
47347 Par ch=2 c=7 v=54
47360 Par ch=2 c=7 v=55
47372 Par ch=2 c=7 v=56
47385 Par ch=2 c=7 v=57
47398 Par ch=2 c=7 v=58
47411 Par ch=2 c=7 v=59
47424 Par ch=2 c=7 v=60
47436 Par ch=2 c=7 v=59
47449 Par ch=2 c=7 v=58
47462 Par ch=2 c=7 v=57
47475 Par ch=2 c=7 v=56
47488 Par ch=2 c=7 v=55
47500 Par ch=2 c=7 v=54
47513 Par ch=2 c=7 v=53
47518 On ch=2 n=c#5 v=0
47518 On ch=2 n=g5 v=0
47526 Par ch=2 c=7 v=52
47539 Par ch=2 c=7 v=51
47552 Par ch=2 c=7 v=50
47564 Par ch=2 c=7 v=49
47577 Par ch=2 c=7 v=48
47590 Par ch=2 c=7 v=47
47603 Par ch=2 c=7 v=46
47616 Par ch=2 c=7 v=45
48576 On ch=2 n=d5 v=110
48768 On ch=2 n=d5 v=0
48768 Par ch=2 c=7 v=45
48768 On ch=2 n=f5 v=110
48768 On ch=2 n=a5 v=110
48780 Par ch=2 c=7 v=46
48793 Par ch=2 c=7 v=47
48806 Par ch=2 c=7 v=48
48819 Par ch=2 c=7 v=49
48832 Par ch=2 c=7 v=50
48844 Par ch=2 c=7 v=51
48857 Par ch=2 c=7 v=52
48870 Par ch=2 c=7 v=53
48883 Par ch=2 c=7 v=54
48896 Par ch=2 c=7 v=55
48908 Par ch=2 c=7 v=56
48921 Par ch=2 c=7 v=57
48934 Par ch=2 c=7 v=58
48947 Par ch=2 c=7 v=59
48960 Par ch=2 c=7 v=60
48972 Par ch=2 c=7 v=59
48985 Par ch=2 c=7 v=58
48998 Par ch=2 c=7 v=57
49011 Par ch=2 c=7 v=56
49024 Par ch=2 c=7 v=55
49036 Par ch=2 c=7 v=54
49049 Par ch=2 c=7 v=53
49054 On ch=2 n=f5 v=0
49054 On ch=2 n=a5 v=0
49062 Par ch=2 c=7 v=52
49075 Par ch=2 c=7 v=51
49088 Par ch=2 c=7 v=50
49100 Par ch=2 c=7 v=49
49113 Par ch=2 c=7 v=48
49126 Par ch=2 c=7 v=47
49139 Par ch=2 c=7 v=46
49152 Par ch=2 c=7 v=45
50112 On ch=2 n=d5 v=110
50304 On ch=2 n=d5 v=0
50304 Par ch=2 c=7 v=45
50304 On ch=2 n=f5 v=110
50304 On ch=2 n=a5 v=110
50316 Par ch=2 c=7 v=46
50329 Par ch=2 c=7 v=47
50342 Par ch=2 c=7 v=48
50355 Par ch=2 c=7 v=49
50368 Par ch=2 c=7 v=50
50380 Par ch=2 c=7 v=51
50393 Par ch=2 c=7 v=52
50406 Par ch=2 c=7 v=53
50419 Par ch=2 c=7 v=54
50432 Par ch=2 c=7 v=55
50444 Par ch=2 c=7 v=56
50457 Par ch=2 c=7 v=57
50470 Par ch=2 c=7 v=58
50483 Par ch=2 c=7 v=59
50496 Par ch=2 c=7 v=60
50508 Par ch=2 c=7 v=59
50521 Par ch=2 c=7 v=58
50534 Par ch=2 c=7 v=57
50547 Par ch=2 c=7 v=56
50560 Par ch=2 c=7 v=55
50572 Par ch=2 c=7 v=54
50585 Par ch=2 c=7 v=53
50590 On ch=2 n=f5 v=0
50590 On ch=2 n=a5 v=0
50598 Par ch=2 c=7 v=52
50611 Par ch=2 c=7 v=51
50624 Par ch=2 c=7 v=50
50636 Par ch=2 c=7 v=49
50649 Par ch=2 c=7 v=48
50662 Par ch=2 c=7 v=47
50675 Par ch=2 c=7 v=46
50688 Par ch=2 c=7 v=45
53952 Par ch=2 c=7 v=60
53952 On ch=2 n=c#5 v=110
53964 Par ch=2 c=7 v=61
53977 Par ch=2 c=7 v=62
53990 Par ch=2 c=7 v=63
54003 Par ch=2 c=7 v=64
54016 Par ch=2 c=7 v=65
54028 Par ch=2 c=7 v=66
54041 Par ch=2 c=7 v=67
54054 Par ch=2 c=7 v=68
54067 Par ch=2 c=7 v=69
54080 Par ch=2 c=7 v=70
54092 Par ch=2 c=7 v=71
54105 Par ch=2 c=7 v=72
54118 Par ch=2 c=7 v=73
54131 Par ch=2 c=7 v=74
54144 On ch=2 n=c#5 v=0
54144 Par ch=2 c=7 v=75
54144 On ch=2 n=c#6 v=110
54144 On ch=2 n=e5 v=110
54336 On ch=2 n=c#6 v=0
54336 On ch=2 n=b5 v=110
54528 On ch=2 n=e5 v=0
54528 On ch=2 n=b5 v=0
54528 Par ch=2 c=7 v=75
54528 On ch=2 n=e5 v=110
54528 On ch=2 n=a#5 v=110
54545 Par ch=2 c=7 v=74
54562 Par ch=2 c=7 v=73
54579 Par ch=2 c=7 v=72
54596 Par ch=2 c=7 v=71
54613 Par ch=2 c=7 v=70
54630 Par ch=2 c=7 v=69
54647 Par ch=2 c=7 v=68
54664 Par ch=2 c=7 v=67
54681 Par ch=2 c=7 v=66
54698 Par ch=2 c=7 v=65
54715 Par ch=2 c=7 v=64
54732 Par ch=2 c=7 v=63
54749 Par ch=2 c=7 v=62
54766 Par ch=2 c=7 v=61
54784 Par ch=2 c=7 v=60
54801 Par ch=2 c=7 v=59
54818 Par ch=2 c=7 v=58
54835 Par ch=2 c=7 v=57
54852 Par ch=2 c=7 v=56
54869 Par ch=2 c=7 v=55
54886 Par ch=2 c=7 v=54
54903 Par ch=2 c=7 v=53
54912 On ch=2 n=e5 v=0
54912 On ch=2 n=a#5 v=0
54912 On ch=2 n=d5 v=110
54912 On ch=2 n=a5 v=110
54920 Par ch=2 c=7 v=52
54937 Par ch=2 c=7 v=51
54954 Par ch=2 c=7 v=50
54971 Par ch=2 c=7 v=49
54988 Par ch=2 c=7 v=48
55005 Par ch=2 c=7 v=47
55022 Par ch=2 c=7 v=46
55040 Par ch=2 c=7 v=45
55057 Par ch=2 c=7 v=44
55074 Par ch=2 c=7 v=43
55091 Par ch=2 c=7 v=42
55108 Par ch=2 c=7 v=41
55125 Par ch=2 c=7 v=40
55142 Par ch=2 c=7 v=39
55159 Par ch=2 c=7 v=38
55176 Par ch=2 c=7 v=37
55193 Par ch=2 c=7 v=36
55210 Par ch=2 c=7 v=35
55227 Par ch=2 c=7 v=34
55244 Par ch=2 c=7 v=33
55261 Par ch=2 c=7 v=32
55278 Par ch=2 c=7 v=31
55296 On ch=2 n=d5 v=0
55296 On ch=2 n=a5 v=0
55296 Par ch=2 c=7 v=30
55296 On ch=2 n=e5 v=110
55296 On ch=2 n=g#5 v=110
55390 On ch=2 n=e5 v=0
55390 On ch=2 n=g#5 v=0
58368 Par ch=2 c=7 v=45
58848 On ch=2 n=c6 v=110
58848 On ch=2 n=e6 v=110
58944 On ch=2 n=c6 v=0
58944 On ch=2 n=e6 v=0
58944 On ch=2 n=a5 v=110
58944 On ch=2 n=a6 v=110
59040 On ch=2 n=a5 v=0
59040 On ch=2 n=a6 v=0
59040 On ch=2 n=b5 v=110
59040 On ch=2 n=d#6 v=110
59134 On ch=2 n=b5 v=0
59134 On ch=2 n=d#6 v=0
59136 On ch=2 n=g5 v=110
59136 On ch=2 n=g6 v=110
59232 On ch=2 n=g5 v=0
59232 On ch=2 n=g6 v=0
59232 On ch=2 n=b5 v=110
59232 On ch=2 n=e6 v=110
59326 On ch=2 n=b5 v=0
59326 On ch=2 n=e6 v=0
65280 Par ch=2 c=7 v=60
65568 On ch=2 n=b5 v=110
65568 On ch=2 n=g6 v=110
65662 On ch=2 n=b5 v=0
65664 On ch=2 n=g6 v=0
65664 On ch=2 n=f6 v=110
65664 On ch=2 n=d6 v=110
65760 On ch=2 n=f6 v=0
65760 On ch=2 n=d6 v=0
65760 On ch=2 n=b5 v=110
65760 On ch=2 n=g6 v=110
65854 On ch=2 n=b5 v=0
65854 On ch=2 n=g6 v=0
65856 On ch=2 n=g6 v=110
65856 On ch=2 n=b5 v=110
65952 On ch=2 n=g6 v=0
65952 On ch=2 n=b5 v=0
65952 On ch=2 n=b5 v=110
65952 On ch=2 n=d#6 v=110
66046 On ch=2 n=b5 v=0
66046 On ch=2 n=d#6 v=0
66048 On ch=2 n=g6 v=110
66048 On ch=2 n=b5 v=110
66144 On ch=2 n=g6 v=0
66144 On ch=2 n=b5 v=0
66144 On ch=2 n=d#6 v=110
66144 On ch=2 n=c6 v=110
66238 On ch=2 n=d#6 v=0
66238 On ch=2 n=c6 v=0
68352 Par ch=2 c=7 v=60
68640 On ch=2 n=c6 v=110
68640 On ch=2 n=d#6 v=110
68734 On ch=2 n=c6 v=0
68734 On ch=2 n=d#6 v=0
68736 On ch=2 n=d#6 v=110
68736 On ch=2 n=g6 v=110
68832 On ch=2 n=d#6 v=0
68832 On ch=2 n=g6 v=0
68832 On ch=2 n=g5 v=110
68832 On ch=2 n=d#6 v=110
68926 On ch=2 n=g5 v=0
68926 On ch=2 n=d#6 v=0
68928 On ch=2 n=d#6 v=110
68928 On ch=2 n=g6 v=110
69024 On ch=2 n=d#6 v=0
69024 On ch=2 n=g6 v=0
69024 On ch=2 n=d6 v=110
69024 On ch=2 n=f6 v=110
69118 On ch=2 n=d6 v=0
69118 On ch=2 n=f6 v=0
69120 On ch=2 n=b5 v=110
69120 On ch=2 n=g6 v=110
69216 On ch=2 n=b5 v=0
69216 On ch=2 n=g6 v=0
69216 On ch=2 n=b5 v=110
69216 On ch=2 n=d6 v=110
69310 On ch=2 n=b5 v=0
69310 On ch=2 n=d6 v=0
72192 Par ch=2 c=7 v=45
72192 On ch=2 n=d5 v=110
72200 Par ch=2 c=7 v=46
72208 Par ch=2 c=7 v=47
72216 Par ch=2 c=7 v=48
72224 Par ch=2 c=7 v=49
72232 Par ch=2 c=7 v=50
72241 Par ch=2 c=7 v=51
72249 Par ch=2 c=7 v=52
72257 Par ch=2 c=7 v=53
72265 Par ch=2 c=7 v=54
72273 Par ch=2 c=7 v=55
72281 Par ch=2 c=7 v=56
72290 Par ch=2 c=7 v=57
72298 Par ch=2 c=7 v=58
72306 Par ch=2 c=7 v=59
72314 Par ch=2 c=7 v=60
72322 Par ch=2 c=7 v=61
72330 Par ch=2 c=7 v=62
72339 Par ch=2 c=7 v=63
72347 Par ch=2 c=7 v=64
72355 Par ch=2 c=7 v=65
72363 Par ch=2 c=7 v=66
72371 Par ch=2 c=7 v=67
72379 Par ch=2 c=7 v=68
72388 Par ch=2 c=7 v=69
72396 Par ch=2 c=7 v=70
72404 Par ch=2 c=7 v=71
72412 Par ch=2 c=7 v=72
72420 Par ch=2 c=7 v=73
72428 Par ch=2 c=7 v=74
72437 Par ch=2 c=7 v=75
72445 Par ch=2 c=7 v=76
72453 Par ch=2 c=7 v=77
72461 Par ch=2 c=7 v=78
72469 Par ch=2 c=7 v=79
72477 Par ch=2 c=7 v=80
72486 Par ch=2 c=7 v=81
72494 Par ch=2 c=7 v=82
72502 Par ch=2 c=7 v=83
72510 Par ch=2 c=7 v=84
72518 Par ch=2 c=7 v=85
72526 Par ch=2 c=7 v=86
72535 Par ch=2 c=7 v=87
72543 Par ch=2 c=7 v=88
72551 Par ch=2 c=7 v=89
72559 Par ch=2 c=7 v=90
72567 Par ch=2 c=7 v=91
72576 On ch=2 n=d5 v=0
72576 Par ch=2 c=7 v=92
72576 On ch=2 n=b5 v=110
72576 On ch=2 n=d#5 v=110
72600 Par ch=2 c=7 v=91
72625 Par ch=2 c=7 v=90
72649 Par ch=2 c=7 v=89
72674 Par ch=2 c=7 v=88
72698 Par ch=2 c=7 v=87
72723 Par ch=2 c=7 v=86
72747 Par ch=2 c=7 v=85
72768 On ch=2 n=b5 v=0
72768 On ch=2 n=a5 v=110
72772 Par ch=2 c=7 v=84
72796 Par ch=2 c=7 v=83
72821 Par ch=2 c=7 v=82
72845 Par ch=2 c=7 v=81
72870 Par ch=2 c=7 v=80
72894 Par ch=2 c=7 v=79
72919 Par ch=2 c=7 v=78
72943 Par ch=2 c=7 v=77
72960 On ch=2 n=a5 v=0
72960 On ch=2 n=g#5 v=110
72968 Par ch=2 c=7 v=76
72992 Par ch=2 c=7 v=75
73017 Par ch=2 c=7 v=74
73041 Par ch=2 c=7 v=73
73066 Par ch=2 c=7 v=72
73090 Par ch=2 c=7 v=71
73115 Par ch=2 c=7 v=70
73139 Par ch=2 c=7 v=69
73164 Par ch=2 c=7 v=68
73188 Par ch=2 c=7 v=67
73213 Par ch=2 c=7 v=66
73237 Par ch=2 c=7 v=65
73262 Par ch=2 c=7 v=64
73286 Par ch=2 c=7 v=63
73296 On ch=2 n=d#5 v=0
73296 On ch=2 n=g#5 v=0
73311 Par ch=2 c=7 v=62
73335 Par ch=2 c=7 v=61
73344 On ch=2 n=c5 v=110
73344 On ch=2 n=g5 v=110
73360 Par ch=2 c=7 v=60
73384 Par ch=2 c=7 v=59
73409 Par ch=2 c=7 v=58
73433 Par ch=2 c=7 v=57
73458 Par ch=2 c=7 v=56
73482 Par ch=2 c=7 v=55
73507 Par ch=2 c=7 v=54
73531 Par ch=2 c=7 v=53
73556 Par ch=2 c=7 v=52
73580 Par ch=2 c=7 v=51
73605 Par ch=2 c=7 v=50
73629 Par ch=2 c=7 v=49
73654 Par ch=2 c=7 v=48
73678 Par ch=2 c=7 v=47
73703 Par ch=2 c=7 v=46
73728 On ch=2 n=c5 v=0
73728 On ch=2 n=g5 v=0
73728 Par ch=2 c=7 v=45
73728 On ch=2 n=d5 v=110
73728 On ch=2 n=f#5 v=110
73822 On ch=2 n=d5 v=0
73822 On ch=2 n=f#5 v=0
86016 Par ch=2 c=7 v=45
86784 On ch=2 n=c5 v=110
88030 On ch=2 n=c5 v=0
91680 Par ch=2 c=7 v=60
91680 On ch=2 n=b5 v=110
91680 On ch=2 n=b6 v=110
91686 Par ch=2 c=7 v=61
91692 Par ch=2 c=7 v=62
91699 Par ch=2 c=7 v=63
91705 Par ch=2 c=7 v=64
91712 Par ch=2 c=7 v=65
91718 Par ch=2 c=7 v=66
91724 Par ch=2 c=7 v=67
91731 Par ch=2 c=7 v=68
91737 Par ch=2 c=7 v=69
91744 Par ch=2 c=7 v=70
91750 Par ch=2 c=7 v=71
91756 Par ch=2 c=7 v=72
91763 Par ch=2 c=7 v=73
91769 Par ch=2 c=7 v=74
91776 On ch=2 n=b5 v=0
91776 On ch=2 n=b6 v=0
91776 Par ch=2 c=7 v=75
91776 On ch=2 n=c#6 v=110
91776 On ch=2 n=c#7 v=110
92032 On ch=2 n=c#6 v=0
92032 On ch=2 n=c#7 v=0
92064 Par ch=2 c=7 v=60
92064 On ch=2 n=b5 v=110
92064 On ch=2 n=b6 v=110
92070 Par ch=2 c=7 v=61
92076 Par ch=2 c=7 v=62
92083 Par ch=2 c=7 v=63
92089 Par ch=2 c=7 v=64
92096 Par ch=2 c=7 v=65
92102 Par ch=2 c=7 v=66
92108 Par ch=2 c=7 v=67
92115 Par ch=2 c=7 v=68
92121 Par ch=2 c=7 v=69
92128 Par ch=2 c=7 v=70
92134 Par ch=2 c=7 v=71
92140 Par ch=2 c=7 v=72
92147 Par ch=2 c=7 v=73
92153 Par ch=2 c=7 v=74
92160 On ch=2 n=b5 v=0
92160 On ch=2 n=b6 v=0
92160 Par ch=2 c=7 v=75
92160 On ch=2 n=c6 v=110
92160 On ch=2 n=c7 v=110
92416 On ch=2 n=c6 v=0
92416 On ch=2 n=c7 v=0
92448 Par ch=2 c=7 v=60
92448 On ch=2 n=a#5 v=110
92448 On ch=2 n=a#6 v=110
92454 Par ch=2 c=7 v=61
92460 Par ch=2 c=7 v=62
92467 Par ch=2 c=7 v=63
92473 Par ch=2 c=7 v=64
92480 Par ch=2 c=7 v=65
92486 Par ch=2 c=7 v=66
92492 Par ch=2 c=7 v=67
92499 Par ch=2 c=7 v=68
92505 Par ch=2 c=7 v=69
92512 Par ch=2 c=7 v=70
92518 Par ch=2 c=7 v=71
92524 Par ch=2 c=7 v=72
92531 Par ch=2 c=7 v=73
92537 Par ch=2 c=7 v=74
92544 On ch=2 n=a#5 v=0
92544 On ch=2 n=a#6 v=0
92544 Par ch=2 c=7 v=75
92544 On ch=2 n=b5 v=110
92544 On ch=2 n=b6 v=110
92800 On ch=2 n=b5 v=0
92800 On ch=2 n=b6 v=0
92832 Par ch=2 c=7 v=75
92832 On ch=2 n=f#5 v=110
92832 On ch=2 n=f#6 v=110
92857 Par ch=2 c=7 v=74
92883 Par ch=2 c=7 v=73
92908 Par ch=2 c=7 v=72
92928 On ch=2 n=f#5 v=0
92928 On ch=2 n=f#6 v=0
92928 On ch=2 n=g#5 v=110
92928 On ch=2 n=g#6 v=110
92934 Par ch=2 c=7 v=71
92960 Par ch=2 c=7 v=70
92985 Par ch=2 c=7 v=69
93011 Par ch=2 c=7 v=68
93036 Par ch=2 c=7 v=67
93062 Par ch=2 c=7 v=66
93088 Par ch=2 c=7 v=65
93113 Par ch=2 c=7 v=64
93139 Par ch=2 c=7 v=63
93164 Par ch=2 c=7 v=62
93184 On ch=2 n=g#5 v=0
93184 On ch=2 n=g#6 v=0
93190 Par ch=2 c=7 v=61
93216 Par ch=2 c=7 v=60
93216 On ch=2 n=d#6 v=110
93216 On ch=2 n=d#5 v=110
93241 Par ch=2 c=7 v=59
93267 Par ch=2 c=7 v=58
93292 Par ch=2 c=7 v=57
93312 On ch=2 n=d#6 v=0
93312 On ch=2 n=d#5 v=0
93312 On ch=2 n=e5 v=110
93312 On ch=2 n=e6 v=110
93318 Par ch=2 c=7 v=56
93344 Par ch=2 c=7 v=55
93369 Par ch=2 c=7 v=54
93395 Par ch=2 c=7 v=53
93420 Par ch=2 c=7 v=52
93446 Par ch=2 c=7 v=51
93472 Par ch=2 c=7 v=50
93497 Par ch=2 c=7 v=49
93523 Par ch=2 c=7 v=48
93548 Par ch=2 c=7 v=47
93574 Par ch=2 c=7 v=46
93598 On ch=2 n=e5 v=0
93598 On ch=2 n=e6 v=0
93600 Par ch=2 c=7 v=45
95232 Par ch=2 c=7 v=45
95616 On ch=2 n=b5 v=110
95808 On ch=2 n=b5 v=0
95808 Par ch=2 c=7 v=45
95808 On ch=2 n=g#6 v=110
95811 Par ch=2 c=7 v=46
95814 Par ch=2 c=7 v=47
95817 Par ch=2 c=7 v=48
95820 Par ch=2 c=7 v=49
95823 Par ch=2 c=7 v=50
95826 Par ch=2 c=7 v=51
95829 Par ch=2 c=7 v=52
95832 Par ch=2 c=7 v=53
95835 Par ch=2 c=7 v=54
95838 Par ch=2 c=7 v=55
95841 Par ch=2 c=7 v=56
95844 Par ch=2 c=7 v=57
95847 Par ch=2 c=7 v=58
95850 Par ch=2 c=7 v=59
95853 Par ch=2 c=7 v=60
95856 Par ch=2 c=7 v=61
95859 Par ch=2 c=7 v=62
95862 Par ch=2 c=7 v=63
95865 Par ch=2 c=7 v=64
95868 Par ch=2 c=7 v=65
95872 Par ch=2 c=7 v=66
95875 Par ch=2 c=7 v=67
95878 Par ch=2 c=7 v=68
95881 Par ch=2 c=7 v=69
95884 Par ch=2 c=7 v=70
95887 Par ch=2 c=7 v=71
95890 Par ch=2 c=7 v=72
95893 Par ch=2 c=7 v=73
95896 Par ch=2 c=7 v=74
95899 Par ch=2 c=7 v=75
95902 Par ch=2 c=7 v=76
95905 Par ch=2 c=7 v=77
95908 Par ch=2 c=7 v=78
95911 Par ch=2 c=7 v=79
95914 Par ch=2 c=7 v=80
95917 Par ch=2 c=7 v=81
95920 Par ch=2 c=7 v=82
95923 Par ch=2 c=7 v=83
95926 Par ch=2 c=7 v=84
95929 Par ch=2 c=7 v=85
95932 Par ch=2 c=7 v=86
95936 Par ch=2 c=7 v=87
95939 Par ch=2 c=7 v=88
95942 Par ch=2 c=7 v=89
95945 Par ch=2 c=7 v=90
95948 Par ch=2 c=7 v=91
95951 Par ch=2 c=7 v=92
95954 Par ch=2 c=7 v=93
95957 Par ch=2 c=7 v=94
95960 Par ch=2 c=7 v=95
95963 Par ch=2 c=7 v=96
95966 Par ch=2 c=7 v=97
95969 Par ch=2 c=7 v=98
95972 Par ch=2 c=7 v=99
95975 Par ch=2 c=7 v=100
95978 Par ch=2 c=7 v=101
95981 Par ch=2 c=7 v=102
95984 Par ch=2 c=7 v=103
95987 Par ch=2 c=7 v=104
95990 Par ch=2 c=7 v=105
95993 Par ch=2 c=7 v=106
95996 Par ch=2 c=7 v=107
96000 On ch=2 n=g#6 v=0
96000 Par ch=2 c=7 v=108
96000 On ch=2 n=f6 v=110
96000 On ch=2 n=c7 v=110
96094 On ch=2 n=f6 v=0
96094 On ch=2 n=c7 v=0
107904 Par ch=2 c=7 v=45
107904 On ch=2 n=e5 v=110
107904 On ch=2 n=g#5 v=110
107955 Par ch=2 c=7 v=44
108006 Par ch=2 c=7 v=43
108057 Par ch=2 c=7 v=42
108096 On ch=2 n=e5 v=0
108096 On ch=2 n=g#5 v=0
108096 On ch=2 n=d#5 v=110
108096 On ch=2 n=f#5 v=110
108108 Par ch=2 c=7 v=41
108160 Par ch=2 c=7 v=40
108211 Par ch=2 c=7 v=39
108262 Par ch=2 c=7 v=38
108288 On ch=2 n=d#5 v=0
108288 On ch=2 n=f#5 v=0
108288 On ch=2 n=c#5 v=110
108288 On ch=2 n=e5 v=110
108313 Par ch=2 c=7 v=37
108364 Par ch=2 c=7 v=36
108416 Par ch=2 c=7 v=35
108467 Par ch=2 c=7 v=34
108480 On ch=2 n=c#5 v=0
108480 On ch=2 n=e5 v=0
108480 On ch=2 n=d#5 v=110
108480 On ch=2 n=f#5 v=110
108518 Par ch=2 c=7 v=33
108569 Par ch=2 c=7 v=32
108620 Par ch=2 c=7 v=31
108672 On ch=2 n=d#5 v=0
108672 On ch=2 n=f#5 v=0
108672 Par ch=2 c=7 v=30
108672 On ch=2 n=e5 v=110
108672 On ch=2 n=g#5 v=110
108697 Par ch=2 c=7 v=29
108723 Par ch=2 c=7 v=28
108748 Par ch=2 c=7 v=27
108774 Par ch=2 c=7 v=26
108800 Par ch=2 c=7 v=25
108825 Par ch=2 c=7 v=24
108851 Par ch=2 c=7 v=23
108876 Par ch=2 c=7 v=22
108902 Par ch=2 c=7 v=21
108928 Par ch=2 c=7 v=20
108953 Par ch=2 c=7 v=19
108979 Par ch=2 c=7 v=18
109004 Par ch=2 c=7 v=17
109030 Par ch=2 c=7 v=16
109056 Par ch=2 c=7 v=15
109150 On ch=2 n=e5 v=0
109150 On ch=2 n=g#5 v=0
114048 Par ch=2 c=7 v=45
114624 On ch=2 n=a5 v=110
114624 On ch=2 n=d#5 v=110
114816 On ch=2 n=a5 v=0
114816 On ch=2 n=d#5 v=0
114816 On ch=2 n=e5 v=110
114816 On ch=2 n=g#5 v=110
115200 Par ch=2 c=7 v=45
115225 Par ch=2 c=7 v=46
115251 Par ch=2 c=7 v=47
115276 Par ch=2 c=7 v=48
115302 Par ch=2 c=7 v=49
115328 Par ch=2 c=7 v=50
115353 Par ch=2 c=7 v=51
115379 Par ch=2 c=7 v=52
115404 Par ch=2 c=7 v=53
115430 Par ch=2 c=7 v=54
115456 Par ch=2 c=7 v=55
115481 Par ch=2 c=7 v=56
115507 Par ch=2 c=7 v=57
115532 Par ch=2 c=7 v=58
115558 Par ch=2 c=7 v=59
115584 On ch=2 n=e5 v=0
115584 On ch=2 n=g#5 v=0
115584 Par ch=2 c=7 v=60
115584 On ch=2 n=d#5 v=110
115584 On ch=2 n=a5 v=110
115609 Par ch=2 c=7 v=59
115635 Par ch=2 c=7 v=58
115660 Par ch=2 c=7 v=57
115686 Par ch=2 c=7 v=56
115712 Par ch=2 c=7 v=55
115737 Par ch=2 c=7 v=54
115763 Par ch=2 c=7 v=53
115788 Par ch=2 c=7 v=52
115814 Par ch=2 c=7 v=51
115840 Par ch=2 c=7 v=50
115865 Par ch=2 c=7 v=49
115891 Par ch=2 c=7 v=48
115916 Par ch=2 c=7 v=47
115942 Par ch=2 c=7 v=46
115968 On ch=2 n=d#5 v=0
115968 On ch=2 n=a5 v=0
115968 Par ch=2 c=7 v=45
115968 Par ch=2 c=7 v=45
115968 On ch=2 n=e5 v=110
115968 On ch=2 n=g#5 v=110
115993 Par ch=2 c=7 v=46
116019 Par ch=2 c=7 v=47
116044 Par ch=2 c=7 v=48
116070 Par ch=2 c=7 v=49
116096 Par ch=2 c=7 v=50
116121 Par ch=2 c=7 v=51
116147 Par ch=2 c=7 v=52
116172 Par ch=2 c=7 v=53
116198 Par ch=2 c=7 v=54
116224 Par ch=2 c=7 v=55
116249 Par ch=2 c=7 v=56
116275 Par ch=2 c=7 v=57
116300 Par ch=2 c=7 v=58
116326 Par ch=2 c=7 v=59
116352 On ch=2 n=e5 v=0
116352 On ch=2 n=g#5 v=0
116352 Par ch=2 c=7 v=60
116352 On ch=2 n=f#5 v=110
116352 On ch=2 n=g#5 v=110
116364 Par ch=2 c=7 v=59
116377 Par ch=2 c=7 v=58
116390 Par ch=2 c=7 v=57
116403 Par ch=2 c=7 v=56
116416 Par ch=2 c=7 v=55
116428 Par ch=2 c=7 v=54
116441 Par ch=2 c=7 v=53
116454 Par ch=2 c=7 v=52
116467 Par ch=2 c=7 v=51
116480 Par ch=2 c=7 v=50
116492 Par ch=2 c=7 v=49
116505 Par ch=2 c=7 v=48
116518 Par ch=2 c=7 v=47
116531 Par ch=2 c=7 v=46
116544 Par ch=2 c=7 v=45
116569 Par ch=2 c=7 v=44
116595 Par ch=2 c=7 v=43
116620 Par ch=2 c=7 v=42
116646 Par ch=2 c=7 v=41
116672 Par ch=2 c=7 v=40
116697 Par ch=2 c=7 v=39
116723 Par ch=2 c=7 v=38
116736 On ch=2 n=f#5 v=0
116736 On ch=2 n=g#5 v=0
116736 On ch=2 n=e5 v=110
116736 On ch=2 n=g#5 v=110
116748 Par ch=2 c=7 v=37
116774 Par ch=2 c=7 v=36
116800 Par ch=2 c=7 v=35
116825 Par ch=2 c=7 v=34
116851 Par ch=2 c=7 v=33
116876 Par ch=2 c=7 v=32
116902 Par ch=2 c=7 v=31
116928 Par ch=2 c=7 v=30
117214 On ch=2 n=e5 v=0
117214 On ch=2 n=g#5 v=0
117888 Par ch=2 c=7 v=45
117888 On ch=2 n=c#5 v=110
117888 On ch=2 n=a5 v=110
117913 Par ch=2 c=7 v=46
117939 Par ch=2 c=7 v=47
117964 Par ch=2 c=7 v=48
117990 Par ch=2 c=7 v=49
118016 Par ch=2 c=7 v=50
118041 Par ch=2 c=7 v=51
118067 Par ch=2 c=7 v=52
118092 Par ch=2 c=7 v=53
118118 Par ch=2 c=7 v=54
118144 Par ch=2 c=7 v=55
118169 Par ch=2 c=7 v=56
118195 Par ch=2 c=7 v=57
118220 Par ch=2 c=7 v=58
118224 On ch=2 n=c#5 v=0
118224 On ch=2 n=a5 v=0
118246 Par ch=2 c=7 v=59
118272 Par ch=2 c=7 v=60
118272 On ch=2 n=d5 v=110
118272 On ch=2 n=g#5 v=110
118284 Par ch=2 c=7 v=59
118297 Par ch=2 c=7 v=58
118310 Par ch=2 c=7 v=57
118323 Par ch=2 c=7 v=56
118336 Par ch=2 c=7 v=55
118348 Par ch=2 c=7 v=54
118361 Par ch=2 c=7 v=53
118374 Par ch=2 c=7 v=52
118387 Par ch=2 c=7 v=51
118400 Par ch=2 c=7 v=50
118412 Par ch=2 c=7 v=49
118425 Par ch=2 c=7 v=48
118438 Par ch=2 c=7 v=47
118451 Par ch=2 c=7 v=46
118464 Par ch=2 c=7 v=45
118608 On ch=2 n=d5 v=0
118608 On ch=2 n=g#5 v=0
118656 Par ch=2 c=7 v=45
118656 On ch=2 n=a5 v=110
118656 On ch=2 n=c#5 v=110
118681 Par ch=2 c=7 v=46
118707 Par ch=2 c=7 v=47
118732 Par ch=2 c=7 v=48
118758 Par ch=2 c=7 v=49
118784 Par ch=2 c=7 v=50
118809 Par ch=2 c=7 v=51
118835 Par ch=2 c=7 v=52
118860 Par ch=2 c=7 v=53
118886 Par ch=2 c=7 v=54
118912 Par ch=2 c=7 v=55
118937 Par ch=2 c=7 v=56
118963 Par ch=2 c=7 v=57
118988 Par ch=2 c=7 v=58
119014 Par ch=2 c=7 v=59
119040 On ch=2 n=a5 v=0
119040 Par ch=2 c=7 v=60
119040 On ch=2 n=g5 v=110
119052 Par ch=2 c=7 v=59
119065 Par ch=2 c=7 v=58
119078 Par ch=2 c=7 v=57
119091 Par ch=2 c=7 v=56
119104 Par ch=2 c=7 v=55
119116 Par ch=2 c=7 v=54
119129 Par ch=2 c=7 v=53
119142 Par ch=2 c=7 v=52
119155 Par ch=2 c=7 v=51
119168 Par ch=2 c=7 v=50
119180 Par ch=2 c=7 v=49
119193 Par ch=2 c=7 v=48
119206 Par ch=2 c=7 v=47
119219 Par ch=2 c=7 v=46
119232 Par ch=2 c=7 v=45
119244 Par ch=2 c=7 v=44
119257 Par ch=2 c=7 v=43
119270 Par ch=2 c=7 v=42
119283 Par ch=2 c=7 v=41
119296 Par ch=2 c=7 v=40
119308 Par ch=2 c=7 v=39
119321 Par ch=2 c=7 v=38
119334 Par ch=2 c=7 v=37
119347 Par ch=2 c=7 v=36
119360 Par ch=2 c=7 v=35
119372 Par ch=2 c=7 v=34
119385 Par ch=2 c=7 v=33
119398 Par ch=2 c=7 v=32
119411 Par ch=2 c=7 v=31
119424 On ch=2 n=c#5 v=0
119424 On ch=2 n=g5 v=0
119424 Par ch=2 c=7 v=30
119424 On ch=2 n=e5 v=110
119424 On ch=2 n=g#5 v=110
119902 On ch=2 n=e5 v=0
119902 On ch=2 n=g#5 v=0
120576 Par ch=2 c=7 v=45
120576 On ch=2 n=e5 v=110
120576 On ch=2 n=g#5 v=110
120601 Par ch=2 c=7 v=46
120627 Par ch=2 c=7 v=47
120652 Par ch=2 c=7 v=48
120678 Par ch=2 c=7 v=49
120704 Par ch=2 c=7 v=50
120729 Par ch=2 c=7 v=51
120755 Par ch=2 c=7 v=52
120780 Par ch=2 c=7 v=53
120806 Par ch=2 c=7 v=54
120832 Par ch=2 c=7 v=55
120857 Par ch=2 c=7 v=56
120883 Par ch=2 c=7 v=57
120908 Par ch=2 c=7 v=58
120934 Par ch=2 c=7 v=59
120960 On ch=2 n=e5 v=0
120960 On ch=2 n=g#5 v=0
120960 Par ch=2 c=7 v=60
120960 On ch=2 n=d#5 v=110
120960 On ch=2 n=a5 v=110
120972 Par ch=2 c=7 v=59
120985 Par ch=2 c=7 v=58
120998 Par ch=2 c=7 v=57
121011 Par ch=2 c=7 v=56
121024 Par ch=2 c=7 v=55
121036 Par ch=2 c=7 v=54
121049 Par ch=2 c=7 v=53
121062 Par ch=2 c=7 v=52
121075 Par ch=2 c=7 v=51
121088 Par ch=2 c=7 v=50
121100 Par ch=2 c=7 v=49
121113 Par ch=2 c=7 v=48
121126 Par ch=2 c=7 v=47
121139 Par ch=2 c=7 v=46
121152 Par ch=2 c=7 v=45
121344 On ch=2 n=d#5 v=0
121344 On ch=2 n=a5 v=0
121344 Par ch=2 c=7 v=45
121344 On ch=2 n=e5 v=110
121344 On ch=2 n=g#5 v=110
121369 Par ch=2 c=7 v=46
121395 Par ch=2 c=7 v=47
121420 Par ch=2 c=7 v=48
121446 Par ch=2 c=7 v=49
121472 Par ch=2 c=7 v=50
121497 Par ch=2 c=7 v=51
121523 Par ch=2 c=7 v=52
121548 Par ch=2 c=7 v=53
121574 Par ch=2 c=7 v=54
121600 Par ch=2 c=7 v=55
121625 Par ch=2 c=7 v=56
121651 Par ch=2 c=7 v=57
121676 Par ch=2 c=7 v=58
121702 Par ch=2 c=7 v=59
121728 On ch=2 n=e5 v=0
121728 On ch=2 n=g#5 v=0
121728 Par ch=2 c=7 v=60
121728 On ch=2 n=g#5 v=110
121728 On ch=2 n=b5 v=110
122016 Par ch=2 c=7 v=61
122112 On ch=2 n=g#5 v=0
122112 On ch=2 n=b5 v=0
122112 On ch=2 n=b5 v=110
122112 On ch=2 n=c#6 v=110
122304 Par ch=2 c=7 v=62
122496 On ch=2 n=b5 v=0
122496 On ch=2 n=c#6 v=0
122496 On ch=2 n=a5 v=110
122496 On ch=2 n=c#6 v=110
122592 Par ch=2 c=7 v=63
122880 On ch=2 n=a5 v=0
122880 On ch=2 n=c#6 v=0
122880 Par ch=2 c=7 v=64
122880 On ch=2 n=a5 v=110
122880 On ch=2 n=c6 v=110
123264 On ch=2 n=a5 v=0
123264 On ch=2 n=c6 v=0
123264 Par ch=2 c=7 v=45
123264 On ch=2 n=b5 v=110
123264 On ch=2 n=e5 v=110
123289 Par ch=2 c=7 v=46
123315 Par ch=2 c=7 v=47
123340 Par ch=2 c=7 v=48
123366 Par ch=2 c=7 v=49
123392 Par ch=2 c=7 v=50
123417 Par ch=2 c=7 v=51
123443 Par ch=2 c=7 v=52
123468 Par ch=2 c=7 v=53
123494 Par ch=2 c=7 v=54
123520 Par ch=2 c=7 v=55
123545 Par ch=2 c=7 v=56
123571 Par ch=2 c=7 v=57
123596 Par ch=2 c=7 v=58
123622 Par ch=2 c=7 v=59
123648 On ch=2 n=b5 v=0
123648 On ch=2 n=e5 v=0
123648 Par ch=2 c=7 v=60
123648 On ch=2 n=f5 v=110
123648 On ch=2 n=b5 v=110
123724 Par ch=2 c=7 v=59
123801 Par ch=2 c=7 v=58
123878 Par ch=2 c=7 v=57
123955 Par ch=2 c=7 v=56
124032 On ch=2 n=f5 v=0
124032 On ch=2 n=b5 v=0
124032 Par ch=2 c=7 v=55
124032 On ch=2 n=a#5 v=110
124032 On ch=2 n=e5 v=110
124108 Par ch=2 c=7 v=54
124185 Par ch=2 c=7 v=53
124224 On ch=2 n=a#5 v=0
124224 On ch=2 n=a5 v=110
124262 Par ch=2 c=7 v=52
124339 Par ch=2 c=7 v=51
124368 On ch=2 n=e5 v=0
124384 On ch=2 n=a5 v=0
124416 Par ch=2 c=7 v=50
124416 On ch=2 n=d#5 v=110
124416 On ch=2 n=a5 v=110
124492 Par ch=2 c=7 v=49
124569 Par ch=2 c=7 v=48
124646 Par ch=2 c=7 v=47
124702 On ch=2 n=d#5 v=0
124702 On ch=2 n=a5 v=0
124723 Par ch=2 c=7 v=46
124800 Par ch=2 c=7 v=45
124800 On ch=2 n=g#5 v=110
124800 On ch=2 n=b5 v=110
124842 On ch=2 n=g#5 v=0
124842 On ch=2 n=b5 v=0
124864 On ch=2 n=b5 v=110
124864 On ch=2 n=e6 v=110
124906 On ch=2 n=b5 v=0
124906 On ch=2 n=e6 v=0
124928 On ch=2 n=e6 v=110
124928 On ch=2 n=g#6 v=110
124970 On ch=2 n=e6 v=0
124970 On ch=2 n=g#6 v=0
124992 On ch=2 n=g#6 v=110
124992 On ch=2 n=b6 v=110
125034 On ch=2 n=g#6 v=0
125034 On ch=2 n=b6 v=0
125056 On ch=2 n=b5 v=110
125056 On ch=2 n=e6 v=110
125098 On ch=2 n=b5 v=0
125098 On ch=2 n=e6 v=0
125120 On ch=2 n=e6 v=110
125120 On ch=2 n=g#6 v=110
125162 On ch=2 n=e6 v=0
125162 On ch=2 n=g#6 v=0
125184 Par ch=2 c=7 v=45
125184 On ch=2 n=g#5 v=110
125184 On ch=2 n=b5 v=110
125209 Par ch=2 c=7 v=46
125226 On ch=2 n=g#5 v=0
125226 On ch=2 n=b5 v=0
125235 Par ch=2 c=7 v=47
125248 On ch=2 n=b5 v=110
125248 On ch=2 n=d#6 v=110
125260 Par ch=2 c=7 v=48
125286 Par ch=2 c=7 v=49
125290 On ch=2 n=b5 v=0
125290 On ch=2 n=d#6 v=0
125312 Par ch=2 c=7 v=50
125312 On ch=2 n=d#6 v=110
125312 On ch=2 n=g#6 v=110
125337 Par ch=2 c=7 v=51
125354 On ch=2 n=d#6 v=0
125354 On ch=2 n=g#6 v=0
125363 Par ch=2 c=7 v=52
125376 On ch=2 n=g#6 v=110
125376 On ch=2 n=b6 v=110
125388 Par ch=2 c=7 v=53
125414 Par ch=2 c=7 v=54
125418 On ch=2 n=g#6 v=0
125418 On ch=2 n=b6 v=0
125440 Par ch=2 c=7 v=55
125440 On ch=2 n=b5 v=110
125440 On ch=2 n=d#6 v=110
125465 Par ch=2 c=7 v=56
125482 On ch=2 n=b5 v=0
125482 On ch=2 n=d#6 v=0
125491 Par ch=2 c=7 v=57
125504 On ch=2 n=d#6 v=110
125504 On ch=2 n=g#6 v=110
125516 Par ch=2 c=7 v=58
125542 Par ch=2 c=7 v=59
125546 On ch=2 n=d#6 v=0
125546 On ch=2 n=g#6 v=0
125568 Par ch=2 c=7 v=60
125568 On ch=2 n=g#5 v=110
125568 On ch=2 n=b5 v=110
125610 On ch=2 n=g#5 v=0
125610 On ch=2 n=b5 v=0
125632 On ch=2 n=b5 v=110
125632 On ch=2 n=c#6 v=110
125674 On ch=2 n=b5 v=0
125674 On ch=2 n=c#6 v=0
125696 On ch=2 n=c#6 v=110
125696 On ch=2 n=g#6 v=110
125738 On ch=2 n=c#6 v=0
125738 On ch=2 n=g#6 v=0
125760 On ch=2 n=b6 v=110
125760 On ch=2 n=g#6 v=110
125802 On ch=2 n=b6 v=0
125802 On ch=2 n=g#6 v=0
125824 On ch=2 n=c#6 v=110
125824 On ch=2 n=b5 v=110
125866 On ch=2 n=c#6 v=0
125866 On ch=2 n=b5 v=0
125888 On ch=2 n=g#6 v=110
125888 On ch=2 n=c#6 v=110
125930 On ch=2 n=g#6 v=0
125930 On ch=2 n=c#6 v=0
125952 Par ch=2 c=7 v=59
125952 On ch=2 n=e5 v=110
125952 On ch=2 n=a5 v=110
125979 Par ch=2 c=7 v=58
125994 On ch=2 n=e5 v=0
125994 On ch=2 n=a5 v=0
126006 Par ch=2 c=7 v=57
126016 On ch=2 n=a5 v=110
126016 On ch=2 n=c6 v=110
126034 Par ch=2 c=7 v=56
126058 On ch=2 n=a5 v=0
126058 On ch=2 n=c6 v=0
126061 Par ch=2 c=7 v=55
126080 On ch=2 n=c6 v=110
126080 On ch=2 n=e6 v=110
126089 Par ch=2 c=7 v=54
126116 Par ch=2 c=7 v=53
126122 On ch=2 n=c6 v=0
126122 On ch=2 n=e6 v=0
126144 Par ch=2 c=7 v=52
126144 On ch=2 n=e6 v=110
126144 On ch=2 n=a6 v=110
126171 Par ch=2 c=7 v=51
126176 On ch=2 n=e6 v=0
126176 On ch=2 n=a6 v=0
126198 Par ch=2 c=7 v=50
126226 Par ch=2 c=7 v=49
126253 Par ch=2 c=7 v=48
126281 Par ch=2 c=7 v=47
126308 Par ch=2 c=7 v=46
126336 Par ch=2 c=7 v=45
126336 On ch=2 n=e5 v=110
126336 On ch=2 n=g#5 v=110
126378 On ch=2 n=e5 v=0
126378 On ch=2 n=g#5 v=0
126400 On ch=2 n=g#5 v=110
126400 On ch=2 n=b5 v=110
126442 On ch=2 n=g#5 v=0
126442 On ch=2 n=b5 v=0
126464 On ch=2 n=b5 v=110
126464 On ch=2 n=e6 v=110
126506 On ch=2 n=b5 v=0
126506 On ch=2 n=e6 v=0
126528 On ch=2 n=e6 v=110
126528 On ch=2 n=g#6 v=110
126570 On ch=2 n=e6 v=0
126570 On ch=2 n=g#6 v=0
126592 On ch=2 n=g#5 v=110
126592 On ch=2 n=b5 v=110
126634 On ch=2 n=g#5 v=0
126634 On ch=2 n=b5 v=0
126656 On ch=2 n=b5 v=110
126656 On ch=2 n=e6 v=110
126698 On ch=2 n=b5 v=0
126698 On ch=2 n=e6 v=0
126720 Par ch=2 c=7 v=45
126720 On ch=2 n=d#5 v=110
126720 On ch=2 n=g#5 v=110
126745 Par ch=2 c=7 v=46
126762 On ch=2 n=d#5 v=0
126762 On ch=2 n=g#5 v=0
126771 Par ch=2 c=7 v=47
126784 On ch=2 n=g#5 v=110
126784 On ch=2 n=b5 v=110
126796 Par ch=2 c=7 v=48
126822 Par ch=2 c=7 v=49
126826 On ch=2 n=g#5 v=0
126826 On ch=2 n=b5 v=0
126848 Par ch=2 c=7 v=50
126848 On ch=2 n=b5 v=110
126848 On ch=2 n=d#6 v=110
126873 Par ch=2 c=7 v=51
126890 On ch=2 n=b5 v=0
126890 On ch=2 n=d#6 v=0
126899 Par ch=2 c=7 v=52
126912 On ch=2 n=d#6 v=110
126912 On ch=2 n=g#6 v=110
126924 Par ch=2 c=7 v=53
126950 Par ch=2 c=7 v=54
126954 On ch=2 n=d#6 v=0
126954 On ch=2 n=g#6 v=0
126976 Par ch=2 c=7 v=55
126976 On ch=2 n=g#5 v=110
126976 On ch=2 n=b5 v=110
127001 Par ch=2 c=7 v=56
127018 On ch=2 n=g#5 v=0
127018 On ch=2 n=b5 v=0
127027 Par ch=2 c=7 v=57
127040 On ch=2 n=b5 v=110
127040 On ch=2 n=d#6 v=110
127052 Par ch=2 c=7 v=58
127078 Par ch=2 c=7 v=59
127082 On ch=2 n=b5 v=0
127082 On ch=2 n=d#6 v=0
127104 Par ch=2 c=7 v=60
127104 On ch=2 n=c#5 v=110
127104 On ch=2 n=g#5 v=110
127146 On ch=2 n=c#5 v=0
127146 On ch=2 n=g#5 v=0
127168 On ch=2 n=g#5 v=110
127168 On ch=2 n=b5 v=110
127210 On ch=2 n=g#5 v=0
127210 On ch=2 n=b5 v=0
127232 On ch=2 n=b5 v=110
127232 On ch=2 n=c#6 v=110
127274 On ch=2 n=b5 v=0
127274 On ch=2 n=c#6 v=0
127296 On ch=2 n=c#6 v=110
127296 On ch=2 n=g#6 v=110
127338 On ch=2 n=c#6 v=0
127338 On ch=2 n=g#6 v=0
127360 On ch=2 n=g#5 v=110
127360 On ch=2 n=b5 v=110
127402 On ch=2 n=g#5 v=0
127402 On ch=2 n=b5 v=0
127424 On ch=2 n=b5 v=110
127424 On ch=2 n=c#6 v=110
127466 On ch=2 n=b5 v=0
127466 On ch=2 n=c#6 v=0
127488 Par ch=2 c=7 v=60
127488 On ch=2 n=e5 v=110
127488 On ch=2 n=a5 v=110
127513 Par ch=2 c=7 v=59
127530 On ch=2 n=e5 v=0
127530 On ch=2 n=a5 v=0
127539 Par ch=2 c=7 v=58
127552 On ch=2 n=a5 v=110
127552 On ch=2 n=c6 v=110
127564 Par ch=2 c=7 v=57
127590 Par ch=2 c=7 v=56
127594 On ch=2 n=a5 v=0
127594 On ch=2 n=c6 v=0
127616 Par ch=2 c=7 v=55
127616 On ch=2 n=c6 v=110
127616 On ch=2 n=e6 v=110
127641 Par ch=2 c=7 v=54
127658 On ch=2 n=c6 v=0
127658 On ch=2 n=e6 v=0
127667 Par ch=2 c=7 v=53
127680 On ch=2 n=e6 v=110
127680 On ch=2 n=f#6 v=110
127692 Par ch=2 c=7 v=52
127712 On ch=2 n=e6 v=0
127712 On ch=2 n=f#6 v=0
127718 Par ch=2 c=7 v=51
127744 Par ch=2 c=7 v=50
127769 Par ch=2 c=7 v=49
127795 Par ch=2 c=7 v=48
127820 Par ch=2 c=7 v=47
127846 Par ch=2 c=7 v=46
127872 Par ch=2 c=7 v=45
127872 On ch=2 n=c#5 v=110
127872 On ch=2 n=e5 v=110
127914 On ch=2 n=c#5 v=0
127914 On ch=2 n=e5 v=0
127936 On ch=2 n=e5 v=110
127936 On ch=2 n=g#5 v=110
127978 On ch=2 n=e5 v=0
127978 On ch=2 n=g#5 v=0
128000 On ch=2 n=g#5 v=110
128000 On ch=2 n=c#6 v=110
128042 On ch=2 n=g#5 v=0
128042 On ch=2 n=c#6 v=0
128064 On ch=2 n=c#6 v=110
128064 On ch=2 n=e6 v=110
128106 On ch=2 n=c#6 v=0
128106 On ch=2 n=e6 v=0
128128 On ch=2 n=e5 v=110
128128 On ch=2 n=g#5 v=110
128170 On ch=2 n=e5 v=0
128170 On ch=2 n=g#5 v=0
128192 On ch=2 n=g#5 v=110
128192 On ch=2 n=c#6 v=110
128234 On ch=2 n=g#5 v=0
128234 On ch=2 n=c#6 v=0
128256 Par ch=2 c=7 v=45
128256 On ch=2 n=c#5 v=110
128256 On ch=2 n=e5 v=110
128281 Par ch=2 c=7 v=46
128298 On ch=2 n=c#5 v=0
128298 On ch=2 n=e5 v=0
128307 Par ch=2 c=7 v=47
128320 On ch=2 n=e5 v=110
128320 On ch=2 n=g5 v=110
128332 Par ch=2 c=7 v=48
128358 Par ch=2 c=7 v=49
128362 On ch=2 n=e5 v=0
128362 On ch=2 n=g5 v=0
128384 Par ch=2 c=7 v=50
128384 On ch=2 n=g5 v=110
128384 On ch=2 n=c#6 v=110
128409 Par ch=2 c=7 v=51
128426 On ch=2 n=g5 v=0
128426 On ch=2 n=c#6 v=0
128435 Par ch=2 c=7 v=52
128448 On ch=2 n=c#6 v=110
128448 On ch=2 n=e6 v=110
128460 Par ch=2 c=7 v=53
128486 Par ch=2 c=7 v=54
128490 On ch=2 n=c#6 v=0
128490 On ch=2 n=e6 v=0
128512 Par ch=2 c=7 v=55
128512 On ch=2 n=e5 v=110
128512 On ch=2 n=g5 v=110
128537 Par ch=2 c=7 v=56
128554 On ch=2 n=e5 v=0
128554 On ch=2 n=g5 v=0
128563 Par ch=2 c=7 v=57
128576 On ch=2 n=g5 v=110
128576 On ch=2 n=c#6 v=110
128588 Par ch=2 c=7 v=58
128614 Par ch=2 c=7 v=59
128618 On ch=2 n=g5 v=0
128618 On ch=2 n=c#6 v=0
128640 Par ch=2 c=7 v=60
128640 On ch=2 n=c#5 v=110
128640 On ch=2 n=e5 v=110
128682 On ch=2 n=c#5 v=0
128682 On ch=2 n=e5 v=0
128704 On ch=2 n=e5 v=110
128704 On ch=2 n=f#5 v=110
128746 On ch=2 n=e5 v=0
128746 On ch=2 n=f#5 v=0
128768 On ch=2 n=f#5 v=110
128768 On ch=2 n=c#6 v=110
128810 On ch=2 n=f#5 v=0
128810 On ch=2 n=c#6 v=0
128832 On ch=2 n=c#6 v=110
128832 On ch=2 n=e6 v=110
128874 On ch=2 n=c#6 v=0
128874 On ch=2 n=e6 v=0
128896 On ch=2 n=e5 v=110
128896 On ch=2 n=f#5 v=110
128938 On ch=2 n=e5 v=0
128938 On ch=2 n=f#5 v=0
128960 On ch=2 n=f#5 v=110
128960 On ch=2 n=c#6 v=110
129002 On ch=2 n=f#5 v=0
129002 On ch=2 n=c#6 v=0
129024 Par ch=2 c=7 v=60
129024 On ch=2 n=d#5 v=110
129024 On ch=2 n=f#5 v=110
129049 Par ch=2 c=7 v=59
129066 On ch=2 n=d#5 v=0
129066 On ch=2 n=f#5 v=0
129075 Par ch=2 c=7 v=58
129088 On ch=2 n=f#5 v=110
129088 On ch=2 n=a5 v=110
129100 Par ch=2 c=7 v=57
129126 Par ch=2 c=7 v=56
129130 On ch=2 n=f#5 v=0
129130 On ch=2 n=a5 v=0
129152 Par ch=2 c=7 v=55
129152 On ch=2 n=b5 v=110
129152 On ch=2 n=a5 v=110
129177 Par ch=2 c=7 v=54
129194 On ch=2 n=b5 v=0
129194 On ch=2 n=a5 v=0
129203 Par ch=2 c=7 v=53
129216 On ch=2 n=a5 v=110
129216 On ch=2 n=d#6 v=110
129228 Par ch=2 c=7 v=52
129248 On ch=2 n=a5 v=0
129248 On ch=2 n=d#6 v=0
129254 Par ch=2 c=7 v=51
129280 Par ch=2 c=7 v=50
129305 Par ch=2 c=7 v=49
129331 Par ch=2 c=7 v=48
129356 Par ch=2 c=7 v=47
129382 Par ch=2 c=7 v=46
129408 Par ch=2 c=7 v=45
129408 Par ch=2 c=7 v=30
129408 On ch=2 n=g#5 v=110
129408 On ch=2 n=b5 v=110
129450 On ch=2 n=g#5 v=0
129450 On ch=2 n=b5 v=0
129472 On ch=2 n=b5 v=110
129472 On ch=2 n=e6 v=110
129514 On ch=2 n=b5 v=0
129514 On ch=2 n=e6 v=0
129536 On ch=2 n=e6 v=110
129536 On ch=2 n=g#6 v=110
129578 On ch=2 n=e6 v=0
129578 On ch=2 n=g#6 v=0
129600 On ch=2 n=g#6 v=110
129600 On ch=2 n=b6 v=110
129642 On ch=2 n=g#6 v=0
129642 On ch=2 n=b6 v=0
129664 On ch=2 n=b5 v=110
129664 On ch=2 n=e6 v=110
129706 On ch=2 n=b5 v=0
129706 On ch=2 n=e6 v=0
129728 On ch=2 n=e6 v=110
129728 On ch=2 n=g#6 v=110
129770 On ch=2 n=e6 v=0
129770 On ch=2 n=g#6 v=0
129792 Par ch=2 c=7 v=30
129792 On ch=2 n=g#5 v=110
129792 On ch=2 n=c#6 v=110
129817 Par ch=2 c=7 v=31
129834 On ch=2 n=g#5 v=0
129834 On ch=2 n=c#6 v=0
129843 Par ch=2 c=7 v=32
129856 On ch=2 n=c#6 v=110
129856 On ch=2 n=e6 v=110
129868 Par ch=2 c=7 v=33
129894 Par ch=2 c=7 v=34
129898 On ch=2 n=c#6 v=0
129898 On ch=2 n=e6 v=0
129920 Par ch=2 c=7 v=35
129920 On ch=2 n=e6 v=110
129920 On ch=2 n=g#6 v=110
129945 Par ch=2 c=7 v=36
129962 On ch=2 n=e6 v=0
129962 On ch=2 n=g#6 v=0
129971 Par ch=2 c=7 v=37
129984 On ch=2 n=g#6 v=110
129984 On ch=2 n=c#7 v=110
129996 Par ch=2 c=7 v=38
130022 Par ch=2 c=7 v=39
130026 On ch=2 n=g#6 v=0
130026 On ch=2 n=c#7 v=0
130048 Par ch=2 c=7 v=40
130048 On ch=2 n=c#6 v=110
130048 On ch=2 n=e6 v=110
130073 Par ch=2 c=7 v=41
130090 On ch=2 n=c#6 v=0
130090 On ch=2 n=e6 v=0
130099 Par ch=2 c=7 v=42
130112 On ch=2 n=e6 v=110
130112 On ch=2 n=g#6 v=110
130124 Par ch=2 c=7 v=43
130150 Par ch=2 c=7 v=44
130154 On ch=2 n=e6 v=0
130154 On ch=2 n=g#6 v=0
130176 Par ch=2 c=7 v=45
130176 On ch=2 n=a#5 v=110
130176 On ch=2 n=c#6 v=110
130218 On ch=2 n=a#5 v=0
130218 On ch=2 n=c#6 v=0
130240 On ch=2 n=c#6 v=110
130240 On ch=2 n=e6 v=110
130282 On ch=2 n=c#6 v=0
130282 On ch=2 n=e6 v=0
130304 On ch=2 n=e6 v=110
130304 On ch=2 n=f#6 v=110
130346 On ch=2 n=e6 v=0
130346 On ch=2 n=f#6 v=0
130368 On ch=2 n=f#6 v=110
130368 On ch=2 n=c#7 v=110
130410 On ch=2 n=f#6 v=0
130410 On ch=2 n=c#7 v=0
130432 On ch=2 n=c#6 v=110
130432 On ch=2 n=e6 v=110
130474 On ch=2 n=c#6 v=0
130474 On ch=2 n=e6 v=0
130496 On ch=2 n=e6 v=110
130496 On ch=2 n=f#6 v=110
130538 On ch=2 n=e6 v=0
130538 On ch=2 n=f#6 v=0
130560 Par ch=2 c=7 v=45
130560 On ch=2 n=a5 v=110
130560 On ch=2 n=c6 v=110
130585 Par ch=2 c=7 v=44
130602 On ch=2 n=a5 v=0
130602 On ch=2 n=c6 v=0
130611 Par ch=2 c=7 v=43
130624 On ch=2 n=c6 v=110
130624 On ch=2 n=d#6 v=110
130636 Par ch=2 c=7 v=42
130662 Par ch=2 c=7 v=41
130666 On ch=2 n=c6 v=0
130666 On ch=2 n=d#6 v=0
130688 Par ch=2 c=7 v=40
130688 On ch=2 n=d#6 v=110
130688 On ch=2 n=g6 v=110
130713 Par ch=2 c=7 v=39
130730 On ch=2 n=d#6 v=0
130730 On ch=2 n=g6 v=0
130739 Par ch=2 c=7 v=38
130752 On ch=2 n=c7 v=110
130752 On ch=2 n=g6 v=110
130764 Par ch=2 c=7 v=37
130790 Par ch=2 c=7 v=36
130794 On ch=2 n=c7 v=0
130794 On ch=2 n=g6 v=0
130816 Par ch=2 c=7 v=35
130816 On ch=2 n=c6 v=110
130816 On ch=2 n=d#6 v=110
130841 Par ch=2 c=7 v=34
130858 On ch=2 n=c6 v=0
130858 On ch=2 n=d#6 v=0
130867 Par ch=2 c=7 v=33
130880 On ch=2 n=d#6 v=110
130880 On ch=2 n=g#6 v=110
130892 Par ch=2 c=7 v=32
130918 Par ch=2 c=7 v=31
130922 On ch=2 n=d#6 v=0
130922 On ch=2 n=g#6 v=0
130944 Par ch=2 c=7 v=30
130944 On ch=2 n=g#5 v=110
130944 On ch=2 n=b5 v=110
130986 On ch=2 n=g#5 v=0
130986 On ch=2 n=b5 v=0
131008 On ch=2 n=b5 v=110
131008 On ch=2 n=e6 v=110
131050 On ch=2 n=b5 v=0
131050 On ch=2 n=e6 v=0
131072 On ch=2 n=e6 v=110
131072 On ch=2 n=g#6 v=110
131114 On ch=2 n=e6 v=0
131114 On ch=2 n=g#6 v=0
131136 On ch=2 n=g#6 v=110
131136 On ch=2 n=b6 v=110
131178 On ch=2 n=g#6 v=0
131178 On ch=2 n=b6 v=0
131200 Par ch=2 c=7 v=45
131200 On ch=2 n=e5 v=110
131242 On ch=2 n=e5 v=0
131264 On ch=2 n=g#5 v=110
131306 On ch=2 n=g#5 v=0
131328 On ch=2 n=c#5 v=110
131370 On ch=2 n=c#5 v=0
131392 On ch=2 n=e5 v=110
131434 On ch=2 n=e5 v=0
131456 On ch=2 n=g#5 v=110
131498 On ch=2 n=g#5 v=0
131520 On ch=2 n=c#6 v=110
131562 On ch=2 n=c#6 v=0
131584 On ch=2 n=e5 v=110
131626 On ch=2 n=e5 v=0
131648 On ch=2 n=g#5 v=110
131690 On ch=2 n=g#5 v=0
131776 On ch=2 n=e5 v=110
131818 On ch=2 n=e5 v=0
131840 On ch=2 n=a5 v=110
131882 On ch=2 n=a5 v=0
131904 On ch=2 n=c6 v=110
131946 On ch=2 n=c6 v=0
131968 On ch=2 n=e5 v=110
132010 On ch=2 n=e5 v=0
132032 On ch=2 n=a5 v=110
132074 On ch=2 n=a5 v=0
132160 On ch=2 n=d#5 v=110
132202 On ch=2 n=d#5 v=0
132224 On ch=2 n=g5 v=110
132266 On ch=2 n=g5 v=0
132288 On ch=2 n=b5 v=110
132320 On ch=2 n=b5 v=0
132544 On ch=2 n=e5 v=110
132606 On ch=2 n=e5 v=0
132608 On ch=2 n=g#5 v=110
132670 On ch=2 n=g#5 v=0
132672 On ch=2 n=b5 v=110
132766 On ch=2 n=b5 v=0
137088 Par ch=2 c=121 v=127
137088 Meta TrkEnd
TrkEnd
MTrk
0 Meta TrkName "Oboi I - II"
0 Meta 0x21 00
0 Par ch=3 c=121 v=127
0 PrCh ch=3 p=68
0 Par ch=3 c=7 v=45
0 Par ch=3 c=10 v=64
0 Par ch=3 c=91 v=64
24192 Par ch=3 c=7 v=45
24576 On ch=3 n=e5 v=110
25438 On ch=3 n=e5 v=0
26880 Par ch=3 c=7 v=60
27264 On ch=3 n=e5 v=110
28126 On ch=3 n=e5 v=0
45504 Par ch=3 c=7 v=45
45504 On ch=3 n=e5 v=110
45516 Par ch=3 c=7 v=46
45529 Par ch=3 c=7 v=47
45542 Par ch=3 c=7 v=48
45555 Par ch=3 c=7 v=49
45568 Par ch=3 c=7 v=50
45580 Par ch=3 c=7 v=51
45593 Par ch=3 c=7 v=52
45606 Par ch=3 c=7 v=53
45619 Par ch=3 c=7 v=54
45632 Par ch=3 c=7 v=55
45644 Par ch=3 c=7 v=56
45657 Par ch=3 c=7 v=57
45670 Par ch=3 c=7 v=58
45683 Par ch=3 c=7 v=59
45696 On ch=3 n=e5 v=0
45696 Par ch=3 c=7 v=60
45696 On ch=3 n=d5 v=110
45696 On ch=3 n=f5 v=110
45708 Par ch=3 c=7 v=59
45721 Par ch=3 c=7 v=58
45734 Par ch=3 c=7 v=57
45747 Par ch=3 c=7 v=56
45760 Par ch=3 c=7 v=55
45772 Par ch=3 c=7 v=54
45785 Par ch=3 c=7 v=53
45798 Par ch=3 c=7 v=52
45811 Par ch=3 c=7 v=51
45824 Par ch=3 c=7 v=50
45836 Par ch=3 c=7 v=49
45849 Par ch=3 c=7 v=48
45862 Par ch=3 c=7 v=47
45875 Par ch=3 c=7 v=46
45888 Par ch=3 c=7 v=45
45982 On ch=3 n=d5 v=0
45982 On ch=3 n=f5 v=0
47040 On ch=3 n=e5 v=110
47232 On ch=3 n=e5 v=0
47232 Par ch=3 c=7 v=45
47232 On ch=3 n=c#5 v=110
47232 On ch=3 n=g5 v=110
47244 Par ch=3 c=7 v=46
47257 Par ch=3 c=7 v=47
47270 Par ch=3 c=7 v=48
47283 Par ch=3 c=7 v=49
47296 Par ch=3 c=7 v=50
47308 Par ch=3 c=7 v=51
47321 Par ch=3 c=7 v=52
47334 Par ch=3 c=7 v=53
47347 Par ch=3 c=7 v=54
47360 Par ch=3 c=7 v=55
47372 Par ch=3 c=7 v=56
47385 Par ch=3 c=7 v=57
47398 Par ch=3 c=7 v=58
47411 Par ch=3 c=7 v=59
47424 Par ch=3 c=7 v=60
47436 Par ch=3 c=7 v=59
47449 Par ch=3 c=7 v=58
47462 Par ch=3 c=7 v=57
47475 Par ch=3 c=7 v=56
47488 Par ch=3 c=7 v=55
47500 Par ch=3 c=7 v=54
47513 Par ch=3 c=7 v=53
47518 On ch=3 n=c#5 v=0
47518 On ch=3 n=g5 v=0
47526 Par ch=3 c=7 v=52
47539 Par ch=3 c=7 v=51
47552 Par ch=3 c=7 v=50
47564 Par ch=3 c=7 v=49
47577 Par ch=3 c=7 v=48
47590 Par ch=3 c=7 v=47
47603 Par ch=3 c=7 v=46
47616 Par ch=3 c=7 v=45
48576 On ch=3 n=d5 v=110
48768 On ch=3 n=d5 v=0
48768 Par ch=3 c=7 v=45
48768 On ch=3 n=f5 v=110
48768 On ch=3 n=a5 v=110
48780 Par ch=3 c=7 v=46
48793 Par ch=3 c=7 v=47
48806 Par ch=3 c=7 v=48
48819 Par ch=3 c=7 v=49
48832 Par ch=3 c=7 v=50
48844 Par ch=3 c=7 v=51
48857 Par ch=3 c=7 v=52
48870 Par ch=3 c=7 v=53
48883 Par ch=3 c=7 v=54
48896 Par ch=3 c=7 v=55
48908 Par ch=3 c=7 v=56
48921 Par ch=3 c=7 v=57
48934 Par ch=3 c=7 v=58
48947 Par ch=3 c=7 v=59
48960 Par ch=3 c=7 v=60
48972 Par ch=3 c=7 v=59
48985 Par ch=3 c=7 v=58
48998 Par ch=3 c=7 v=57
49011 Par ch=3 c=7 v=56
49024 Par ch=3 c=7 v=55
49036 Par ch=3 c=7 v=54
49049 Par ch=3 c=7 v=53
49054 On ch=3 n=f5 v=0
49054 On ch=3 n=a5 v=0
49062 Par ch=3 c=7 v=52
49075 Par ch=3 c=7 v=51
49088 Par ch=3 c=7 v=50
49100 Par ch=3 c=7 v=49
49113 Par ch=3 c=7 v=48
49126 Par ch=3 c=7 v=47
49139 Par ch=3 c=7 v=46
49152 Par ch=3 c=7 v=45
50112 On ch=3 n=d5 v=110
50304 On ch=3 n=d5 v=0
50304 Par ch=3 c=7 v=45
50304 On ch=3 n=f5 v=110
50304 On ch=3 n=a5 v=110
50316 Par ch=3 c=7 v=46
50329 Par ch=3 c=7 v=47
50342 Par ch=3 c=7 v=48
50355 Par ch=3 c=7 v=49
50368 Par ch=3 c=7 v=50
50380 Par ch=3 c=7 v=51
50393 Par ch=3 c=7 v=52
50406 Par ch=3 c=7 v=53
50419 Par ch=3 c=7 v=54
50432 Par ch=3 c=7 v=55
50444 Par ch=3 c=7 v=56
50457 Par ch=3 c=7 v=57
50470 Par ch=3 c=7 v=58
50483 Par ch=3 c=7 v=59
50496 Par ch=3 c=7 v=60
50508 Par ch=3 c=7 v=59
50521 Par ch=3 c=7 v=58
50534 Par ch=3 c=7 v=57
50547 Par ch=3 c=7 v=56
50560 Par ch=3 c=7 v=55
50572 Par ch=3 c=7 v=54
50585 Par ch=3 c=7 v=53
50590 On ch=3 n=f5 v=0
50590 On ch=3 n=a5 v=0
50598 Par ch=3 c=7 v=52
50611 Par ch=3 c=7 v=51
50624 Par ch=3 c=7 v=50
50636 Par ch=3 c=7 v=49
50649 Par ch=3 c=7 v=48
50662 Par ch=3 c=7 v=47
50675 Par ch=3 c=7 v=46
50688 Par ch=3 c=7 v=45
53952 Par ch=3 c=7 v=60
53952 On ch=3 n=c#5 v=110
53964 Par ch=3 c=7 v=61
53977 Par ch=3 c=7 v=62
53990 Par ch=3 c=7 v=63
54003 Par ch=3 c=7 v=64
54016 Par ch=3 c=7 v=65
54028 Par ch=3 c=7 v=66
54041 Par ch=3 c=7 v=67
54054 Par ch=3 c=7 v=68
54067 Par ch=3 c=7 v=69
54080 Par ch=3 c=7 v=70
54092 Par ch=3 c=7 v=71
54105 Par ch=3 c=7 v=72
54118 Par ch=3 c=7 v=73
54131 Par ch=3 c=7 v=74
54144 On ch=3 n=c#5 v=0
54144 Par ch=3 c=7 v=75
54144 On ch=3 n=e5 v=110
54144 On ch=3 n=c#6 v=110
54336 On ch=3 n=c#6 v=0
54336 On ch=3 n=b5 v=110
54480 On ch=3 n=e5 v=0
54528 On ch=3 n=b5 v=0
54528 Par ch=3 c=7 v=75
54528 On ch=3 n=e5 v=110
54528 On ch=3 n=a#5 v=110
54545 Par ch=3 c=7 v=74
54562 Par ch=3 c=7 v=73
54579 Par ch=3 c=7 v=72
54596 Par ch=3 c=7 v=71
54613 Par ch=3 c=7 v=70
54630 Par ch=3 c=7 v=69
54647 Par ch=3 c=7 v=68
54664 Par ch=3 c=7 v=67
54681 Par ch=3 c=7 v=66
54698 Par ch=3 c=7 v=65
54715 Par ch=3 c=7 v=64
54732 Par ch=3 c=7 v=63
54749 Par ch=3 c=7 v=62
54766 Par ch=3 c=7 v=61
54784 Par ch=3 c=7 v=60
54801 Par ch=3 c=7 v=59
54818 Par ch=3 c=7 v=58
54835 Par ch=3 c=7 v=57
54852 Par ch=3 c=7 v=56
54869 Par ch=3 c=7 v=55
54886 Par ch=3 c=7 v=54
54903 Par ch=3 c=7 v=53
54912 On ch=3 n=e5 v=0
54912 On ch=3 n=a#5 v=0
54912 On ch=3 n=d5 v=110
54912 On ch=3 n=a5 v=110
54920 Par ch=3 c=7 v=52
54937 Par ch=3 c=7 v=51
54954 Par ch=3 c=7 v=50
54971 Par ch=3 c=7 v=49
54988 Par ch=3 c=7 v=48
55005 Par ch=3 c=7 v=47
55022 Par ch=3 c=7 v=46
55040 Par ch=3 c=7 v=45
55057 Par ch=3 c=7 v=44
55074 Par ch=3 c=7 v=43
55091 Par ch=3 c=7 v=42
55108 Par ch=3 c=7 v=41
55125 Par ch=3 c=7 v=40
55142 Par ch=3 c=7 v=39
55159 Par ch=3 c=7 v=38
55176 Par ch=3 c=7 v=37
55193 Par ch=3 c=7 v=36
55210 Par ch=3 c=7 v=35
55227 Par ch=3 c=7 v=34
55244 Par ch=3 c=7 v=33
55261 Par ch=3 c=7 v=32
55278 Par ch=3 c=7 v=31
55296 On ch=3 n=d5 v=0
55296 On ch=3 n=a5 v=0
55296 Par ch=3 c=7 v=30
55296 On ch=3 n=e5 v=110
55296 On ch=3 n=g#5 v=110
55390 On ch=3 n=e5 v=0
55390 On ch=3 n=g#5 v=0
61440 Par ch=3 c=7 v=45
61920 On ch=3 n=g5 v=110
61920 On ch=3 n=b5 v=110
62016 On ch=3 n=g5 v=0
62016 On ch=3 n=b5 v=0
62016 On ch=3 n=e5 v=110
62016 On ch=3 n=e6 v=110
62112 On ch=3 n=e5 v=0
62112 On ch=3 n=e6 v=0
62112 On ch=3 n=f#5 v=110
62112 On ch=3 n=a#5 v=110
62206 On ch=3 n=f#5 v=0
62206 On ch=3 n=a#5 v=0
62208 On ch=3 n=d5 v=110
62208 On ch=3 n=d6 v=110
62304 On ch=3 n=d5 v=0
62304 On ch=3 n=d6 v=0
62304 On ch=3 n=f#5 v=110
62304 On ch=3 n=b5 v=110
62398 On ch=3 n=f#5 v=0
62398 On ch=3 n=b5 v=0
72192 Par ch=3 c=7 v=45
72192 On ch=3 n=d5 v=110
72200 Par ch=3 c=7 v=46
72208 Par ch=3 c=7 v=47
72216 Par ch=3 c=7 v=48
72224 Par ch=3 c=7 v=49
72232 Par ch=3 c=7 v=50
72241 Par ch=3 c=7 v=51
72249 Par ch=3 c=7 v=52
72257 Par ch=3 c=7 v=53
72265 Par ch=3 c=7 v=54
72273 Par ch=3 c=7 v=55
72281 Par ch=3 c=7 v=56
72290 Par ch=3 c=7 v=57
72298 Par ch=3 c=7 v=58
72306 Par ch=3 c=7 v=59
72314 Par ch=3 c=7 v=60
72322 Par ch=3 c=7 v=61
72330 Par ch=3 c=7 v=62
72339 Par ch=3 c=7 v=63
72347 Par ch=3 c=7 v=64
72355 Par ch=3 c=7 v=65
72363 Par ch=3 c=7 v=66
72371 Par ch=3 c=7 v=67
72379 Par ch=3 c=7 v=68
72388 Par ch=3 c=7 v=69
72396 Par ch=3 c=7 v=70
72404 Par ch=3 c=7 v=71
72412 Par ch=3 c=7 v=72
72420 Par ch=3 c=7 v=73
72428 Par ch=3 c=7 v=74
72437 Par ch=3 c=7 v=75
72445 Par ch=3 c=7 v=76
72453 Par ch=3 c=7 v=77
72461 Par ch=3 c=7 v=78
72469 Par ch=3 c=7 v=79
72477 Par ch=3 c=7 v=80
72486 Par ch=3 c=7 v=81
72494 Par ch=3 c=7 v=82
72502 Par ch=3 c=7 v=83
72510 Par ch=3 c=7 v=84
72518 Par ch=3 c=7 v=85
72526 Par ch=3 c=7 v=86
72528 On ch=3 n=d5 v=0
72535 Par ch=3 c=7 v=87
72543 Par ch=3 c=7 v=88
72551 Par ch=3 c=7 v=89
72559 Par ch=3 c=7 v=90
72567 Par ch=3 c=7 v=91
72576 Par ch=3 c=7 v=92
72576 On ch=3 n=d5 v=110
72576 On ch=3 n=b5 v=110
72592 Par ch=3 c=7 v=91
72608 Par ch=3 c=7 v=90
72625 Par ch=3 c=7 v=89
72641 Par ch=3 c=7 v=88
72657 Par ch=3 c=7 v=87
72674 Par ch=3 c=7 v=86
72690 Par ch=3 c=7 v=85
72706 Par ch=3 c=7 v=84
72723 Par ch=3 c=7 v=83
72739 Par ch=3 c=7 v=82
72755 Par ch=3 c=7 v=81
72768 On ch=3 n=b5 v=0
72768 On ch=3 n=a5 v=110
72772 Par ch=3 c=7 v=80
72788 Par ch=3 c=7 v=79
72804 Par ch=3 c=7 v=78
72821 Par ch=3 c=7 v=77
72837 Par ch=3 c=7 v=76
72853 Par ch=3 c=7 v=75
72870 Par ch=3 c=7 v=74
72886 Par ch=3 c=7 v=73
72902 Par ch=3 c=7 v=72
72919 Par ch=3 c=7 v=71
72935 Par ch=3 c=7 v=70
72951 Par ch=3 c=7 v=69
72960 On ch=3 n=a5 v=0
72960 On ch=3 n=g#5 v=110
72968 Par ch=3 c=7 v=68
72984 Par ch=3 c=7 v=67
73000 Par ch=3 c=7 v=66
73017 Par ch=3 c=7 v=65
73033 Par ch=3 c=7 v=64
73049 Par ch=3 c=7 v=63
73066 Par ch=3 c=7 v=62
73082 Par ch=3 c=7 v=61
73098 Par ch=3 c=7 v=60
73115 Par ch=3 c=7 v=59
73131 Par ch=3 c=7 v=58
73147 Par ch=3 c=7 v=57
73164 Par ch=3 c=7 v=56
73180 Par ch=3 c=7 v=55
73196 Par ch=3 c=7 v=54
73213 Par ch=3 c=7 v=53
73229 Par ch=3 c=7 v=52
73245 Par ch=3 c=7 v=51
73262 Par ch=3 c=7 v=50
73278 Par ch=3 c=7 v=49
73294 Par ch=3 c=7 v=48
73296 On ch=3 n=d5 v=0
73311 Par ch=3 c=7 v=47
73327 Par ch=3 c=7 v=46
73344 On ch=3 n=g#5 v=0
73344 Par ch=3 c=7 v=45
73344 On ch=3 n=c5 v=110
73344 On ch=3 n=g5 v=110
73438 On ch=3 n=c5 v=0
73438 On ch=3 n=g5 v=0
82560 Par ch=3 c=7 v=45
82560 On ch=3 n=d#5 v=110
82560 On ch=3 n=a5 v=110
82572 Par ch=3 c=7 v=46
82585 Par ch=3 c=7 v=47
82598 Par ch=3 c=7 v=48
82611 Par ch=3 c=7 v=49
82624 Par ch=3 c=7 v=50
82636 Par ch=3 c=7 v=51
82649 Par ch=3 c=7 v=52
82662 Par ch=3 c=7 v=53
82675 Par ch=3 c=7 v=54
82688 Par ch=3 c=7 v=55
82700 Par ch=3 c=7 v=56
82713 Par ch=3 c=7 v=57
82726 Par ch=3 c=7 v=58
82739 Par ch=3 c=7 v=59
82752 Par ch=3 c=7 v=60
82764 Par ch=3 c=7 v=61
82777 Par ch=3 c=7 v=62
82790 Par ch=3 c=7 v=63
82803 Par ch=3 c=7 v=64
82816 Par ch=3 c=7 v=65
82828 Par ch=3 c=7 v=66
82841 Par ch=3 c=7 v=67
82854 Par ch=3 c=7 v=68
82867 Par ch=3 c=7 v=69
82880 Par ch=3 c=7 v=70
82892 Par ch=3 c=7 v=71
82905 Par ch=3 c=7 v=72
82918 Par ch=3 c=7 v=73
82931 Par ch=3 c=7 v=74
82944 On ch=3 n=d#5 v=0
82944 On ch=3 n=a5 v=0
82944 Par ch=3 c=7 v=75
83184 On ch=3 n=f5 v=110
83184 On ch=3 n=c#6 v=110
83712 Par ch=3 c=7 v=75
83718 Par ch=3 c=7 v=74
83724 Par ch=3 c=7 v=73
83731 Par ch=3 c=7 v=72
83737 Par ch=3 c=7 v=71
83744 Par ch=3 c=7 v=70
83750 Par ch=3 c=7 v=69
83756 Par ch=3 c=7 v=68
83763 Par ch=3 c=7 v=67
83769 Par ch=3 c=7 v=66
83776 Par ch=3 c=7 v=65
83782 Par ch=3 c=7 v=64
83788 Par ch=3 c=7 v=63
83795 Par ch=3 c=7 v=62
83801 Par ch=3 c=7 v=61
83808 Par ch=3 c=7 v=60
83814 Par ch=3 c=7 v=59
83820 Par ch=3 c=7 v=58
83827 Par ch=3 c=7 v=57
83833 Par ch=3 c=7 v=56
83840 Par ch=3 c=7 v=55
83846 Par ch=3 c=7 v=54
83852 Par ch=3 c=7 v=53
83859 Par ch=3 c=7 v=52
83865 Par ch=3 c=7 v=51
83872 Par ch=3 c=7 v=50
83878 Par ch=3 c=7 v=49
83884 Par ch=3 c=7 v=48
83891 Par ch=3 c=7 v=47
83897 Par ch=3 c=7 v=46
83904 Par ch=3 c=7 v=45
84432 On ch=3 n=f5 v=0
84432 On ch=3 n=c#6 v=0
86976 Par ch=3 c=7 v=60
86976 On ch=3 n=e5 v=110
86988 Par ch=3 c=7 v=61
87001 Par ch=3 c=7 v=62
87014 Par ch=3 c=7 v=63
87027 Par ch=3 c=7 v=64
87040 Par ch=3 c=7 v=65
87052 Par ch=3 c=7 v=66
87065 Par ch=3 c=7 v=67
87078 Par ch=3 c=7 v=68
87091 Par ch=3 c=7 v=69
87104 Par ch=3 c=7 v=70
87116 Par ch=3 c=7 v=71
87129 Par ch=3 c=7 v=72
87142 Par ch=3 c=7 v=73
87155 Par ch=3 c=7 v=74
87168 On ch=3 n=e5 v=0
87168 Par ch=3 c=7 v=75
87168 On ch=3 n=f#5 v=110
87180 Par ch=3 c=7 v=74
87193 Par ch=3 c=7 v=73
87206 Par ch=3 c=7 v=72
87219 Par ch=3 c=7 v=71
87232 Par ch=3 c=7 v=70
87244 Par ch=3 c=7 v=69
87257 Par ch=3 c=7 v=68
87264 On ch=3 n=f#5 v=0
87264 On ch=3 n=g5 v=110
87270 Par ch=3 c=7 v=67
87283 Par ch=3 c=7 v=66
87296 Par ch=3 c=7 v=65
87308 Par ch=3 c=7 v=64
87321 Par ch=3 c=7 v=63
87334 Par ch=3 c=7 v=62
87347 Par ch=3 c=7 v=61
87360 On ch=3 n=g5 v=0
87360 Par ch=3 c=7 v=60
87360 On ch=3 n=f#5 v=110
87552 On ch=3 n=f#5 v=0
87552 On ch=3 n=e5 v=110
88030 On ch=3 n=e5 v=0
89856 Par ch=3 c=7 v=45
90240 On ch=3 n=b5 v=110
90432 On ch=3 n=b5 v=0
90432 On ch=3 n=c#6 v=110
90592 On ch=3 n=c#6 v=0
90624 On ch=3 n=a5 v=110
90816 On ch=3 n=a5 v=0
90816 On ch=3 n=b5 v=110
90976 On ch=3 n=b5 v=0
91008 On ch=3 n=g#5 v=110
91200 On ch=3 n=g#5 v=0
91200 On ch=3 n=a5 v=110
91360 On ch=3 n=a5 v=0
91392 Par ch=3 c=7 v=45
91392 On ch=3 n=f#5 v=110
91398 Par ch=3 c=7 v=46
91404 Par ch=3 c=7 v=47
91411 Par ch=3 c=7 v=48
91417 Par ch=3 c=7 v=49
91424 Par ch=3 c=7 v=50
91430 Par ch=3 c=7 v=51
91436 Par ch=3 c=7 v=52
91443 Par ch=3 c=7 v=53
91449 Par ch=3 c=7 v=54
91456 Par ch=3 c=7 v=55
91462 Par ch=3 c=7 v=56
91468 Par ch=3 c=7 v=57
91475 Par ch=3 c=7 v=58
91481 Par ch=3 c=7 v=59
91488 Par ch=3 c=7 v=60
91494 Par ch=3 c=7 v=61
91500 Par ch=3 c=7 v=62
91507 Par ch=3 c=7 v=63
91513 Par ch=3 c=7 v=64
91520 Par ch=3 c=7 v=65
91526 Par ch=3 c=7 v=66
91532 Par ch=3 c=7 v=67
91539 Par ch=3 c=7 v=68
91545 Par ch=3 c=7 v=69
91552 Par ch=3 c=7 v=70
91558 Par ch=3 c=7 v=71
91564 Par ch=3 c=7 v=72
91571 Par ch=3 c=7 v=73
91577 Par ch=3 c=7 v=74
91584 On ch=3 n=f#5 v=0
91584 Par ch=3 c=7 v=75
91584 On ch=3 n=g#5 v=110
91744 On ch=3 n=g#5 v=0
91776 Par ch=3 c=7 v=75
91776 On ch=3 n=e6 v=110
91782 Par ch=3 c=7 v=74
91788 Par ch=3 c=7 v=73
91795 Par ch=3 c=7 v=72
91801 Par ch=3 c=7 v=71
91808 Par ch=3 c=7 v=70
91814 Par ch=3 c=7 v=69
91820 Par ch=3 c=7 v=68
91827 Par ch=3 c=7 v=67
91833 Par ch=3 c=7 v=66
91840 Par ch=3 c=7 v=65
91846 Par ch=3 c=7 v=64
91852 Par ch=3 c=7 v=63
91859 Par ch=3 c=7 v=62
91865 Par ch=3 c=7 v=61
91872 Par ch=3 c=7 v=60
91878 Par ch=3 c=7 v=59
91884 Par ch=3 c=7 v=58
91891 Par ch=3 c=7 v=57
91897 Par ch=3 c=7 v=56
91904 Par ch=3 c=7 v=55
91910 Par ch=3 c=7 v=54
91916 Par ch=3 c=7 v=53
91923 Par ch=3 c=7 v=52
91929 Par ch=3 c=7 v=51
91936 Par ch=3 c=7 v=50
91942 Par ch=3 c=7 v=49
91948 Par ch=3 c=7 v=48
91955 Par ch=3 c=7 v=47
91961 Par ch=3 c=7 v=46
91968 On ch=3 n=e6 v=0
91968 Par ch=3 c=7 v=45
91968 On ch=3 n=f6 v=110
92128 On ch=3 n=f6 v=0
92160 Par ch=3 c=7 v=75
92160 On ch=3 n=d#6 v=110
92166 Par ch=3 c=7 v=74
92172 Par ch=3 c=7 v=73
92179 Par ch=3 c=7 v=72
92185 Par ch=3 c=7 v=71
92192 Par ch=3 c=7 v=70
92198 Par ch=3 c=7 v=69
92204 Par ch=3 c=7 v=68
92211 Par ch=3 c=7 v=67
92217 Par ch=3 c=7 v=66
92224 Par ch=3 c=7 v=65
92230 Par ch=3 c=7 v=64
92236 Par ch=3 c=7 v=63
92243 Par ch=3 c=7 v=62
92249 Par ch=3 c=7 v=61
92256 Par ch=3 c=7 v=60
92262 Par ch=3 c=7 v=59
92268 Par ch=3 c=7 v=58
92275 Par ch=3 c=7 v=57
92281 Par ch=3 c=7 v=56
92288 Par ch=3 c=7 v=55
92294 Par ch=3 c=7 v=54
92300 Par ch=3 c=7 v=53
92307 Par ch=3 c=7 v=52
92313 Par ch=3 c=7 v=51
92320 Par ch=3 c=7 v=50
92326 Par ch=3 c=7 v=49
92332 Par ch=3 c=7 v=48
92339 Par ch=3 c=7 v=47
92345 Par ch=3 c=7 v=46
92352 On ch=3 n=d#6 v=0
92352 Par ch=3 c=7 v=45
92352 On ch=3 n=e6 v=110
92512 On ch=3 n=e6 v=0
92544 Par ch=3 c=7 v=75
92544 On ch=3 n=g6 v=110
92550 Par ch=3 c=7 v=74
92556 Par ch=3 c=7 v=73
92563 Par ch=3 c=7 v=72
92569 Par ch=3 c=7 v=71
92576 Par ch=3 c=7 v=70
92582 Par ch=3 c=7 v=69
92588 Par ch=3 c=7 v=68
92595 Par ch=3 c=7 v=67
92601 Par ch=3 c=7 v=66
92608 Par ch=3 c=7 v=65
92614 Par ch=3 c=7 v=64
92620 Par ch=3 c=7 v=63
92627 Par ch=3 c=7 v=62
92633 Par ch=3 c=7 v=61
92640 Par ch=3 c=7 v=60
92646 Par ch=3 c=7 v=59
92652 Par ch=3 c=7 v=58
92659 Par ch=3 c=7 v=57
92665 Par ch=3 c=7 v=56
92672 Par ch=3 c=7 v=55
92678 Par ch=3 c=7 v=54
92684 Par ch=3 c=7 v=53
92691 Par ch=3 c=7 v=52
92697 Par ch=3 c=7 v=51
92704 Par ch=3 c=7 v=50
92710 Par ch=3 c=7 v=49
92716 Par ch=3 c=7 v=48
92723 Par ch=3 c=7 v=47
92729 Par ch=3 c=7 v=46
92736 On ch=3 n=g6 v=0
92736 Par ch=3 c=7 v=45
92736 On ch=3 n=g#6 v=110
92896 On ch=3 n=g#6 v=0
95232 Par ch=3 c=7 v=45
95616 On ch=3 n=b5 v=110
95808 On ch=3 n=b5 v=0
95808 Par ch=3 c=7 v=45
95808 On ch=3 n=g#6 v=110
95811 Par ch=3 c=7 v=46
95814 Par ch=3 c=7 v=47
95817 Par ch=3 c=7 v=48
95820 Par ch=3 c=7 v=49
95823 Par ch=3 c=7 v=50
95826 Par ch=3 c=7 v=51
95829 Par ch=3 c=7 v=52
95832 Par ch=3 c=7 v=53
95835 Par ch=3 c=7 v=54
95838 Par ch=3 c=7 v=55
95841 Par ch=3 c=7 v=56
95844 Par ch=3 c=7 v=57
95847 Par ch=3 c=7 v=58
95850 Par ch=3 c=7 v=59
95853 Par ch=3 c=7 v=60
95856 Par ch=3 c=7 v=61
95859 Par ch=3 c=7 v=62
95862 Par ch=3 c=7 v=63
95865 Par ch=3 c=7 v=64
95868 Par ch=3 c=7 v=65
95872 Par ch=3 c=7 v=66
95875 Par ch=3 c=7 v=67
95878 Par ch=3 c=7 v=68
95881 Par ch=3 c=7 v=69
95884 Par ch=3 c=7 v=70
95887 Par ch=3 c=7 v=71
95890 Par ch=3 c=7 v=72
95893 Par ch=3 c=7 v=73
95896 Par ch=3 c=7 v=74
95899 Par ch=3 c=7 v=75
95902 Par ch=3 c=7 v=76
95905 Par ch=3 c=7 v=77
95908 Par ch=3 c=7 v=78
95911 Par ch=3 c=7 v=79
95914 Par ch=3 c=7 v=80
95917 Par ch=3 c=7 v=81
95920 Par ch=3 c=7 v=82
95923 Par ch=3 c=7 v=83
95926 Par ch=3 c=7 v=84
95929 Par ch=3 c=7 v=85
95932 Par ch=3 c=7 v=86
95936 Par ch=3 c=7 v=87
95939 Par ch=3 c=7 v=88
95942 Par ch=3 c=7 v=89
95945 Par ch=3 c=7 v=90
95948 Par ch=3 c=7 v=91
95951 Par ch=3 c=7 v=92
95954 Par ch=3 c=7 v=93
95957 Par ch=3 c=7 v=94
95960 Par ch=3 c=7 v=95
95963 Par ch=3 c=7 v=96
95966 Par ch=3 c=7 v=97
95969 Par ch=3 c=7 v=98
95972 Par ch=3 c=7 v=99
95975 Par ch=3 c=7 v=100
95978 Par ch=3 c=7 v=101
95981 Par ch=3 c=7 v=102
95984 Par ch=3 c=7 v=103
95987 Par ch=3 c=7 v=104
95990 Par ch=3 c=7 v=105
95993 Par ch=3 c=7 v=106
95996 Par ch=3 c=7 v=107
96000 On ch=3 n=g#6 v=0
96000 Par ch=3 c=7 v=108
96000 On ch=3 n=f6 v=110
96000 On ch=3 n=c7 v=110
96094 On ch=3 n=f6 v=0
96094 On ch=3 n=c7 v=0
137088 Par ch=3 c=121 v=127
137088 Meta TrkEnd
TrkEnd
MTrk
0 Meta TrkName "Clarinetti I - II in La"
0 Meta 0x21 00
0 Par ch=4 c=121 v=127
0 PrCh ch=4 p=71
0 Par ch=4 c=7 v=45
0 Par ch=4 c=10 v=64
0 Par ch=4 c=91 v=64
1152 Par ch=4 c=7 v=45
1152 On ch=4 n=c5 v=110
1177 Par ch=4 c=7 v=46
1203 Par ch=4 c=7 v=47
1228 Par ch=4 c=7 v=48
1254 Par ch=4 c=7 v=49
1280 Par ch=4 c=7 v=50
1305 Par ch=4 c=7 v=51
1331 Par ch=4 c=7 v=52
1356 Par ch=4 c=7 v=53
1382 Par ch=4 c=7 v=54
1408 Par ch=4 c=7 v=55
1433 Par ch=4 c=7 v=56
1459 Par ch=4 c=7 v=57
1484 Par ch=4 c=7 v=58
1510 Par ch=4 c=7 v=59
1536 On ch=4 n=c5 v=0
1536 Par ch=4 c=7 v=60
1536 On ch=4 n=g4 v=110
1536 On ch=4 n=c5 v=110
1561 Par ch=4 c=7 v=61
1587 Par ch=4 c=7 v=62
1612 Par ch=4 c=7 v=63
1638 Par ch=4 c=7 v=64
1664 Par ch=4 c=7 v=65
1689 Par ch=4 c=7 v=66
1715 Par ch=4 c=7 v=67
1740 Par ch=4 c=7 v=68
1766 Par ch=4 c=7 v=69
1792 Par ch=4 c=7 v=70
1817 Par ch=4 c=7 v=71
1843 Par ch=4 c=7 v=72
1868 Par ch=4 c=7 v=73
1894 Par ch=4 c=7 v=74
1920 On ch=4 n=g4 v=0
1920 On ch=4 n=c5 v=0
1920 Par ch=4 c=7 v=75
1920 On ch=4 n=g#4 v=110
1920 On ch=4 n=c5 v=110
1932 Par ch=4 c=7 v=74
1945 Par ch=4 c=7 v=73
1958 Par ch=4 c=7 v=72
1971 Par ch=4 c=7 v=71
1984 Par ch=4 c=7 v=70
1996 Par ch=4 c=7 v=69
2009 Par ch=4 c=7 v=68
2022 Par ch=4 c=7 v=67
2035 Par ch=4 c=7 v=66
2048 Par ch=4 c=7 v=65
2060 Par ch=4 c=7 v=64
2073 Par ch=4 c=7 v=63
2086 Par ch=4 c=7 v=62
2099 Par ch=4 c=7 v=61
2112 Par ch=4 c=7 v=60
2124 Par ch=4 c=7 v=59
2137 Par ch=4 c=7 v=58
2150 Par ch=4 c=7 v=57
2163 Par ch=4 c=7 v=56
2176 Par ch=4 c=7 v=55
2188 Par ch=4 c=7 v=54
2201 Par ch=4 c=7 v=53
2214 Par ch=4 c=7 v=52
2227 Par ch=4 c=7 v=51
2240 Par ch=4 c=7 v=50
2252 Par ch=4 c=7 v=49
2265 Par ch=4 c=7 v=48
2278 Par ch=4 c=7 v=47
2291 Par ch=4 c=7 v=46
2304 On ch=4 n=g#4 v=0
2304 On ch=4 n=c5 v=0
2304 Par ch=4 c=7 v=45
2304 On ch=4 n=a#4 v=110
2304 On ch=4 n=c#5 v=110
2496 On ch=4 n=a#4 v=0
2496 On ch=4 n=c#5 v=0
2496 On ch=4 n=c5 v=110
2496 On ch=4 n=d#5 v=110
2688 On ch=4 n=c5 v=0
2688 On ch=4 n=d#5 v=0
2688 Par ch=4 c=7 v=45
2688 On ch=4 n=c#5 v=110
2688 On ch=4 n=e5 v=110
2713 Par ch=4 c=7 v=44
2739 Par ch=4 c=7 v=43
2764 Par ch=4 c=7 v=42
2790 Par ch=4 c=7 v=41
2816 Par ch=4 c=7 v=40
2841 Par ch=4 c=7 v=39
2867 Par ch=4 c=7 v=38
2880 On ch=4 n=c#5 v=0
2880 On ch=4 n=e5 v=0
2880 On ch=4 n=f#5 v=110
2880 On ch=4 n=d#5 v=110
2892 Par ch=4 c=7 v=37
2918 Par ch=4 c=7 v=36
2944 Par ch=4 c=7 v=35
2969 Par ch=4 c=7 v=34
2995 Par ch=4 c=7 v=33
3020 Par ch=4 c=7 v=32
3046 Par ch=4 c=7 v=31
3072 On ch=4 n=f#5 v=0
3072 On ch=4 n=d#5 v=0
3072 Par ch=4 c=7 v=30
3072 On ch=4 n=e5 v=110
3072 On ch=4 n=g#5 v=110
3110 Par ch=4 c=7 v=29
3148 Par ch=4 c=7 v=28
3187 Par ch=4 c=7 v=27
3225 Par ch=4 c=7 v=26
3264 Par ch=4 c=7 v=25
3302 Par ch=4 c=7 v=24
3340 Par ch=4 c=7 v=23
3379 Par ch=4 c=7 v=22
3417 Par ch=4 c=7 v=21
3456 Par ch=4 c=7 v=20
3494 Par ch=4 c=7 v=19
3532 Par ch=4 c=7 v=18
3571 Par ch=4 c=7 v=17
3609 Par ch=4 c=7 v=16
3616 On ch=4 n=e5 v=0
3616 On ch=4 n=g#5 v=0
3648 Par ch=4 c=7 v=15
8448 Par ch=4 c=7 v=45
8832 On ch=4 n=e6 v=110
9024 On ch=4 n=e6 v=0
9024 On ch=4 n=f#6 v=110
9216 On ch=4 n=f#6 v=0
9216 On ch=4 n=g#6 v=110
9376 On ch=4 n=g#6 v=0
9408 On ch=4 n=g#6 v=110
9600 Par ch=4 c=7 v=45
9612 Par ch=4 c=7 v=46
9625 Par ch=4 c=7 v=47
9638 Par ch=4 c=7 v=48
9651 Par ch=4 c=7 v=49
9664 Par ch=4 c=7 v=50
9676 Par ch=4 c=7 v=51
9689 Par ch=4 c=7 v=52
9696 On ch=4 n=g#6 v=0
9696 On ch=4 n=g#6 v=110
9702 Par ch=4 c=7 v=53
9715 Par ch=4 c=7 v=54
9728 Par ch=4 c=7 v=55
9740 Par ch=4 c=7 v=56
9753 Par ch=4 c=7 v=57
9766 Par ch=4 c=7 v=58
9779 Par ch=4 c=7 v=59
9792 On ch=4 n=g#6 v=0
9792 Par ch=4 c=7 v=60
9792 On ch=4 n=f#6 v=110
9804 Par ch=4 c=7 v=61
9817 Par ch=4 c=7 v=62
9830 Par ch=4 c=7 v=63
9843 Par ch=4 c=7 v=64
9856 Par ch=4 c=7 v=65
9868 Par ch=4 c=7 v=66
9881 Par ch=4 c=7 v=67
9888 On ch=4 n=f#6 v=0
9888 On ch=4 n=g#6 v=110
9894 Par ch=4 c=7 v=68
9907 Par ch=4 c=7 v=69
9920 Par ch=4 c=7 v=70
9932 Par ch=4 c=7 v=71
9945 Par ch=4 c=7 v=72
9958 Par ch=4 c=7 v=73
9971 Par ch=4 c=7 v=74
9984 On ch=4 n=g#6 v=0
9984 Par ch=4 c=7 v=75
9984 On ch=4 n=g#6 v=110
9996 Par ch=4 c=7 v=74
10009 Par ch=4 c=7 v=73
10022 Par ch=4 c=7 v=72
10035 Par ch=4 c=7 v=71
10048 Par ch=4 c=7 v=70
10060 Par ch=4 c=7 v=69
10073 Par ch=4 c=7 v=68
10080 On ch=4 n=g#6 v=0
10080 On ch=4 n=a6 v=110
10086 Par ch=4 c=7 v=67
10099 Par ch=4 c=7 v=66
10112 Par ch=4 c=7 v=65
10124 Par ch=4 c=7 v=64
10137 Par ch=4 c=7 v=63
10150 Par ch=4 c=7 v=62
10163 Par ch=4 c=7 v=61
10176 On ch=4 n=a6 v=0
10176 Par ch=4 c=7 v=60
10176 On ch=4 n=f#6 v=110
10188 Par ch=4 c=7 v=59
10201 Par ch=4 c=7 v=58
10214 Par ch=4 c=7 v=57
10227 Par ch=4 c=7 v=56
10240 Par ch=4 c=7 v=55
10252 Par ch=4 c=7 v=54
10265 Par ch=4 c=7 v=53
10272 On ch=4 n=f#6 v=0
10272 On ch=4 n=e6 v=110
10278 Par ch=4 c=7 v=52
10291 Par ch=4 c=7 v=51
10304 Par ch=4 c=7 v=50
10316 Par ch=4 c=7 v=49
10329 Par ch=4 c=7 v=48
10342 Par ch=4 c=7 v=47
10355 Par ch=4 c=7 v=46
10368 On ch=4 n=e6 v=0
10368 Par ch=4 c=7 v=45
10368 Par ch=4 c=7 v=45
10368 On ch=4 n=g#6 v=110
10380 Par ch=4 c=7 v=46
10393 Par ch=4 c=7 v=47
10406 Par ch=4 c=7 v=48
10419 Par ch=4 c=7 v=49
10432 Par ch=4 c=7 v=50
10444 Par ch=4 c=7 v=51
10457 Par ch=4 c=7 v=52
10470 Par ch=4 c=7 v=53
10483 Par ch=4 c=7 v=54
10496 Par ch=4 c=7 v=55
10508 Par ch=4 c=7 v=56
10521 Par ch=4 c=7 v=57
10534 Par ch=4 c=7 v=58
10547 Par ch=4 c=7 v=59
10560 Par ch=4 c=7 v=60
10572 Par ch=4 c=7 v=61
10585 Par ch=4 c=7 v=62
10598 Par ch=4 c=7 v=63
10611 Par ch=4 c=7 v=64
10624 Par ch=4 c=7 v=65
10636 Par ch=4 c=7 v=66
10649 Par ch=4 c=7 v=67
10662 Par ch=4 c=7 v=68
10675 Par ch=4 c=7 v=69
10688 Par ch=4 c=7 v=70
10700 Par ch=4 c=7 v=71
10713 Par ch=4 c=7 v=72
10726 Par ch=4 c=7 v=73
10739 Par ch=4 c=7 v=74
10752 Par ch=4 c=7 v=75
10764 Par ch=4 c=7 v=74
10777 Par ch=4 c=7 v=73
10790 Par ch=4 c=7 v=72
10803 Par ch=4 c=7 v=71
10816 Par ch=4 c=7 v=70
10828 Par ch=4 c=7 v=69
10841 Par ch=4 c=7 v=68
10846 On ch=4 n=g#6 v=0
10848 On ch=4 n=f#6 v=110
10854 Par ch=4 c=7 v=67
10867 Par ch=4 c=7 v=66
10880 Par ch=4 c=7 v=65
10892 Par ch=4 c=7 v=64
10905 Par ch=4 c=7 v=63
10918 Par ch=4 c=7 v=62
10931 Par ch=4 c=7 v=61
10942 On ch=4 n=f#6 v=0
10944 Par ch=4 c=7 v=60
10944 On ch=4 n=g#6 v=110
10956 Par ch=4 c=7 v=59
10969 Par ch=4 c=7 v=58
10982 Par ch=4 c=7 v=57
10995 Par ch=4 c=7 v=56
11008 Par ch=4 c=7 v=55
11020 Par ch=4 c=7 v=54
11033 Par ch=4 c=7 v=53
11038 On ch=4 n=g#6 v=0
11040 On ch=4 n=f#6 v=110
11046 Par ch=4 c=7 v=52
11059 Par ch=4 c=7 v=51
11072 Par ch=4 c=7 v=50
11084 Par ch=4 c=7 v=49
11097 Par ch=4 c=7 v=48
11110 Par ch=4 c=7 v=47
11123 Par ch=4 c=7 v=46
11134 On ch=4 n=f#6 v=0
11136 Par ch=4 c=7 v=45
11136 Par ch=4 c=7 v=45
11136 On ch=4 n=g#6 v=110
11161 Par ch=4 c=7 v=44
11187 Par ch=4 c=7 v=43
11212 Par ch=4 c=7 v=42
11238 Par ch=4 c=7 v=41
11264 Par ch=4 c=7 v=40
11289 Par ch=4 c=7 v=39
11315 Par ch=4 c=7 v=38
11340 Par ch=4 c=7 v=37
11366 Par ch=4 c=7 v=36
11392 Par ch=4 c=7 v=35
11417 Par ch=4 c=7 v=34
11443 Par ch=4 c=7 v=33
11468 Par ch=4 c=7 v=32
11494 Par ch=4 c=7 v=31
11520 Par ch=4 c=7 v=30
11520 On ch=4 n=b4 v=110
11571 Par ch=4 c=7 v=31
11622 Par ch=4 c=7 v=32
11673 Par ch=4 c=7 v=33
11724 Par ch=4 c=7 v=34
11776 Par ch=4 c=7 v=35
11806 On ch=4 n=g#6 v=0
11827 Par ch=4 c=7 v=36
11878 Par ch=4 c=7 v=37
11904 On ch=4 n=b4 v=0
11904 On ch=4 n=a4 v=110
11929 Par ch=4 c=7 v=38
11980 Par ch=4 c=7 v=39
12032 Par ch=4 c=7 v=40
12083 Par ch=4 c=7 v=41
12096 On ch=4 n=e6 v=110
12134 Par ch=4 c=7 v=42
12185 Par ch=4 c=7 v=43
12236 Par ch=4 c=7 v=44
12288 Par ch=4 c=7 v=45
12288 Par ch=4 c=7 v=45
12300 Par ch=4 c=7 v=46
12313 Par ch=4 c=7 v=47
12326 Par ch=4 c=7 v=48
12339 Par ch=4 c=7 v=49
12352 Par ch=4 c=7 v=50
12364 Par ch=4 c=7 v=51
12377 Par ch=4 c=7 v=52
12382 On ch=4 n=a4 v=0
12384 On ch=4 n=e6 v=0
12384 On ch=4 n=e6 v=110
12390 Par ch=4 c=7 v=53
12403 Par ch=4 c=7 v=54
12416 Par ch=4 c=7 v=55
12428 Par ch=4 c=7 v=56
12441 Par ch=4 c=7 v=57
12454 Par ch=4 c=7 v=58
12467 Par ch=4 c=7 v=59
12480 On ch=4 n=e6 v=0
12480 Par ch=4 c=7 v=60
12480 On ch=4 n=d6 v=110
12492 Par ch=4 c=7 v=61
12505 Par ch=4 c=7 v=62
12518 Par ch=4 c=7 v=63
12531 Par ch=4 c=7 v=64
12544 Par ch=4 c=7 v=65
12556 Par ch=4 c=7 v=66
12569 Par ch=4 c=7 v=67
12576 On ch=4 n=d6 v=0
12576 On ch=4 n=e6 v=110
12582 Par ch=4 c=7 v=68
12595 Par ch=4 c=7 v=69
12608 Par ch=4 c=7 v=70
12620 Par ch=4 c=7 v=71
12633 Par ch=4 c=7 v=72
12646 Par ch=4 c=7 v=73
12659 Par ch=4 c=7 v=74
12672 On ch=4 n=e6 v=0
12672 Par ch=4 c=7 v=75
12672 On ch=4 n=e6 v=110
12684 Par ch=4 c=7 v=74
12697 Par ch=4 c=7 v=73
12710 Par ch=4 c=7 v=72
12723 Par ch=4 c=7 v=71
12736 Par ch=4 c=7 v=70
12748 Par ch=4 c=7 v=69
12761 Par ch=4 c=7 v=68
12768 On ch=4 n=e6 v=0
12768 On ch=4 n=f6 v=110
12774 Par ch=4 c=7 v=67
12787 Par ch=4 c=7 v=66
12800 Par ch=4 c=7 v=65
12812 Par ch=4 c=7 v=64
12825 Par ch=4 c=7 v=63
12838 Par ch=4 c=7 v=62
12851 Par ch=4 c=7 v=61
12864 On ch=4 n=f6 v=0
12864 Par ch=4 c=7 v=60
12864 On ch=4 n=d6 v=110
12876 Par ch=4 c=7 v=59
12889 Par ch=4 c=7 v=58
12902 Par ch=4 c=7 v=57
12915 Par ch=4 c=7 v=56
12928 Par ch=4 c=7 v=55
12940 Par ch=4 c=7 v=54
12953 Par ch=4 c=7 v=53
12960 On ch=4 n=d6 v=0
12960 On ch=4 n=c#6 v=110
12966 Par ch=4 c=7 v=52
12979 Par ch=4 c=7 v=51
12992 Par ch=4 c=7 v=50
13004 Par ch=4 c=7 v=49
13017 Par ch=4 c=7 v=48
13030 Par ch=4 c=7 v=47
13043 Par ch=4 c=7 v=46
13056 On ch=4 n=c#6 v=0
13056 Par ch=4 c=7 v=45
13056 Par ch=4 c=7 v=45
13056 On ch=4 n=e6 v=110
13068 Par ch=4 c=7 v=46
13081 Par ch=4 c=7 v=47
13094 Par ch=4 c=7 v=48
13107 Par ch=4 c=7 v=49
13120 Par ch=4 c=7 v=50
13132 Par ch=4 c=7 v=51
13145 Par ch=4 c=7 v=52
13158 Par ch=4 c=7 v=53
13171 Par ch=4 c=7 v=54
13184 Par ch=4 c=7 v=55
13196 Par ch=4 c=7 v=56
13209 Par ch=4 c=7 v=57
13222 Par ch=4 c=7 v=58
13235 Par ch=4 c=7 v=59
13248 Par ch=4 c=7 v=60
13260 Par ch=4 c=7 v=61
13273 Par ch=4 c=7 v=62
13286 Par ch=4 c=7 v=63
13299 Par ch=4 c=7 v=64
13312 Par ch=4 c=7 v=65
13324 Par ch=4 c=7 v=66
13337 Par ch=4 c=7 v=67
13350 Par ch=4 c=7 v=68
13363 Par ch=4 c=7 v=69
13376 Par ch=4 c=7 v=70
13388 Par ch=4 c=7 v=71
13401 Par ch=4 c=7 v=72
13414 Par ch=4 c=7 v=73
13427 Par ch=4 c=7 v=74
13440 Par ch=4 c=7 v=75
13452 Par ch=4 c=7 v=74
13465 Par ch=4 c=7 v=73
13478 Par ch=4 c=7 v=72
13491 Par ch=4 c=7 v=71
13504 Par ch=4 c=7 v=70
13516 Par ch=4 c=7 v=69
13529 Par ch=4 c=7 v=68
13534 On ch=4 n=e6 v=0
13536 On ch=4 n=d#6 v=110
13542 Par ch=4 c=7 v=67
13555 Par ch=4 c=7 v=66
13568 Par ch=4 c=7 v=65
13580 Par ch=4 c=7 v=64
13593 Par ch=4 c=7 v=63
13606 Par ch=4 c=7 v=62
13619 Par ch=4 c=7 v=61
13632 On ch=4 n=d#6 v=0
13632 Par ch=4 c=7 v=60
13632 On ch=4 n=e6 v=110
13644 Par ch=4 c=7 v=59
13657 Par ch=4 c=7 v=58
13670 Par ch=4 c=7 v=57
13683 Par ch=4 c=7 v=56
13696 Par ch=4 c=7 v=55
13708 Par ch=4 c=7 v=54
13721 Par ch=4 c=7 v=53
13728 On ch=4 n=e6 v=0
13728 On ch=4 n=d#6 v=110
13734 Par ch=4 c=7 v=52
13747 Par ch=4 c=7 v=51
13760 Par ch=4 c=7 v=50
13772 Par ch=4 c=7 v=49
13785 Par ch=4 c=7 v=48
13798 Par ch=4 c=7 v=47
13811 Par ch=4 c=7 v=46
13824 On ch=4 n=d#6 v=0
13824 Par ch=4 c=7 v=45
13824 Par ch=4 c=7 v=45
13824 On ch=4 n=e6 v=110
13849 Par ch=4 c=7 v=46
13875 Par ch=4 c=7 v=47
13900 Par ch=4 c=7 v=48
13926 Par ch=4 c=7 v=49
13952 Par ch=4 c=7 v=50
13977 Par ch=4 c=7 v=51
14003 Par ch=4 c=7 v=52
14028 Par ch=4 c=7 v=53
14054 Par ch=4 c=7 v=54
14080 Par ch=4 c=7 v=55
14105 Par ch=4 c=7 v=56
14131 Par ch=4 c=7 v=57
14156 Par ch=4 c=7 v=58
14182 Par ch=4 c=7 v=59
14208 Par ch=4 c=7 v=60
14208 On ch=4 n=c#5 v=110
14233 Par ch=4 c=7 v=59
14259 Par ch=4 c=7 v=58
14284 Par ch=4 c=7 v=57
14310 Par ch=4 c=7 v=56
14336 Par ch=4 c=7 v=55
14361 Par ch=4 c=7 v=54
14368 On ch=4 n=e6 v=0
14387 Par ch=4 c=7 v=53
14400 On ch=4 n=c#5 v=0
14400 On ch=4 n=c5 v=110
14412 Par ch=4 c=7 v=52
14438 Par ch=4 c=7 v=51
14464 Par ch=4 c=7 v=50
14489 Par ch=4 c=7 v=49
14515 Par ch=4 c=7 v=48
14540 Par ch=4 c=7 v=47
14566 Par ch=4 c=7 v=46
14592 On ch=4 n=c5 v=0
14592 Par ch=4 c=7 v=45
14592 On ch=4 n=b4 v=110
14784 On ch=4 n=g#6 v=110
14976 Par ch=4 c=7 v=45
14988 Par ch=4 c=7 v=46
15001 Par ch=4 c=7 v=47
15014 Par ch=4 c=7 v=48
15027 Par ch=4 c=7 v=49
15040 Par ch=4 c=7 v=50
15052 Par ch=4 c=7 v=51
15065 Par ch=4 c=7 v=52
15070 On ch=4 n=b4 v=0
15070 On ch=4 n=g#6 v=0
15072 On ch=4 n=g#6 v=110
15078 Par ch=4 c=7 v=53
15091 Par ch=4 c=7 v=54
15104 Par ch=4 c=7 v=55
15116 Par ch=4 c=7 v=56
15129 Par ch=4 c=7 v=57
15142 Par ch=4 c=7 v=58
15155 Par ch=4 c=7 v=59
15168 On ch=4 n=g#6 v=0
15168 Par ch=4 c=7 v=60
15168 On ch=4 n=f#6 v=110
15180 Par ch=4 c=7 v=61
15193 Par ch=4 c=7 v=62
15206 Par ch=4 c=7 v=63
15219 Par ch=4 c=7 v=64
15232 Par ch=4 c=7 v=65
15244 Par ch=4 c=7 v=66
15257 Par ch=4 c=7 v=67
15264 On ch=4 n=f#6 v=0
15264 On ch=4 n=g#6 v=110
15270 Par ch=4 c=7 v=68
15283 Par ch=4 c=7 v=69
15296 Par ch=4 c=7 v=70
15308 Par ch=4 c=7 v=71
15321 Par ch=4 c=7 v=72
15334 Par ch=4 c=7 v=73
15347 Par ch=4 c=7 v=74
15360 On ch=4 n=g#6 v=0
15360 Par ch=4 c=7 v=75
15360 On ch=4 n=g#6 v=110
15372 Par ch=4 c=7 v=74
15385 Par ch=4 c=7 v=73
15398 Par ch=4 c=7 v=72
15411 Par ch=4 c=7 v=71
15424 Par ch=4 c=7 v=70
15436 Par ch=4 c=7 v=69
15449 Par ch=4 c=7 v=68
15456 On ch=4 n=g#6 v=0
15456 On ch=4 n=a6 v=110
15462 Par ch=4 c=7 v=67
15475 Par ch=4 c=7 v=66
15488 Par ch=4 c=7 v=65
15500 Par ch=4 c=7 v=64
15513 Par ch=4 c=7 v=63
15526 Par ch=4 c=7 v=62
15539 Par ch=4 c=7 v=61
15552 On ch=4 n=a6 v=0
15552 Par ch=4 c=7 v=60
15552 On ch=4 n=f#6 v=110
15564 Par ch=4 c=7 v=59
15577 Par ch=4 c=7 v=58
15590 Par ch=4 c=7 v=57
15603 Par ch=4 c=7 v=56
15616 Par ch=4 c=7 v=55
15628 Par ch=4 c=7 v=54
15641 Par ch=4 c=7 v=53
15648 On ch=4 n=f#6 v=0
15648 On ch=4 n=e6 v=110
15654 Par ch=4 c=7 v=52
15667 Par ch=4 c=7 v=51
15680 Par ch=4 c=7 v=50
15692 Par ch=4 c=7 v=49
15705 Par ch=4 c=7 v=48
15718 Par ch=4 c=7 v=47
15731 Par ch=4 c=7 v=46
15744 On ch=4 n=e6 v=0
15744 Par ch=4 c=7 v=45
15744 On ch=4 n=g#6 v=110
16128 Par ch=4 c=7 v=45
16140 Par ch=4 c=7 v=46
16153 Par ch=4 c=7 v=47
16166 Par ch=4 c=7 v=48
16179 Par ch=4 c=7 v=49
16192 Par ch=4 c=7 v=50
16204 Par ch=4 c=7 v=51
16217 Par ch=4 c=7 v=52
16224 On ch=4 n=g#6 v=0
16224 On ch=4 n=g#6 v=110
16230 Par ch=4 c=7 v=53
16243 Par ch=4 c=7 v=54
16256 Par ch=4 c=7 v=55
16268 Par ch=4 c=7 v=56
16281 Par ch=4 c=7 v=57
16294 Par ch=4 c=7 v=58
16307 Par ch=4 c=7 v=59
16320 On ch=4 n=g#6 v=0
16320 Par ch=4 c=7 v=60
16320 On ch=4 n=f#6 v=110
16332 Par ch=4 c=7 v=61
16345 Par ch=4 c=7 v=62
16358 Par ch=4 c=7 v=63
16371 Par ch=4 c=7 v=64
16384 Par ch=4 c=7 v=65
16396 Par ch=4 c=7 v=66
16409 Par ch=4 c=7 v=67
16416 On ch=4 n=f#6 v=0
16416 On ch=4 n=g#6 v=110
16422 Par ch=4 c=7 v=68
16435 Par ch=4 c=7 v=69
16448 Par ch=4 c=7 v=70
16460 Par ch=4 c=7 v=71
16473 Par ch=4 c=7 v=72
16486 Par ch=4 c=7 v=73
16499 Par ch=4 c=7 v=74
16512 On ch=4 n=g#6 v=0
16512 Par ch=4 c=7 v=75
16512 On ch=4 n=g#6 v=110
16537 Par ch=4 c=7 v=74
16563 Par ch=4 c=7 v=73
16588 Par ch=4 c=7 v=72
16608 On ch=4 n=g#6 v=0
16608 On ch=4 n=a6 v=110
16614 Par ch=4 c=7 v=71
16640 Par ch=4 c=7 v=70
16665 Par ch=4 c=7 v=69
16691 Par ch=4 c=7 v=68
16704 On ch=4 n=a6 v=0
16704 On ch=4 n=f#6 v=110
16716 Par ch=4 c=7 v=67
16742 Par ch=4 c=7 v=66
16768 Par ch=4 c=7 v=65
16793 Par ch=4 c=7 v=64
16800 On ch=4 n=f#6 v=0
16800 On ch=4 n=f6 v=110
16819 Par ch=4 c=7 v=63
16844 Par ch=4 c=7 v=62
16870 Par ch=4 c=7 v=61
16896 On ch=4 n=f6 v=0
16896 Par ch=4 c=7 v=60
16896 On ch=4 n=f#6 v=110
17374 On ch=4 n=f#6 v=0
17376 Par ch=4 c=7 v=60
17376 On ch=4 n=g#6 v=110
17395 Par ch=4 c=7 v=59
17414 Par ch=4 c=7 v=58
17433 Par ch=4 c=7 v=57
17452 Par ch=4 c=7 v=56
17472 On ch=4 n=g#6 v=0
17472 Par ch=4 c=7 v=55
17472 On ch=4 n=e6 v=110
17491 Par ch=4 c=7 v=54
17510 Par ch=4 c=7 v=53
17529 Par ch=4 c=7 v=52
17548 Par ch=4 c=7 v=51
17568 On ch=4 n=e6 v=0
17568 Par ch=4 c=7 v=50
17568 On ch=4 n=d#6 v=110
17587 Par ch=4 c=7 v=49
17606 Par ch=4 c=7 v=48
17625 Par ch=4 c=7 v=47
17644 Par ch=4 c=7 v=46
17664 On ch=4 n=d#6 v=0
17664 Par ch=4 c=7 v=45
17664 On ch=4 n=e6 v=110
17670 Par ch=4 c=7 v=46
17676 Par ch=4 c=7 v=47
17683 Par ch=4 c=7 v=48
17689 Par ch=4 c=7 v=49
17696 Par ch=4 c=7 v=50
17702 Par ch=4 c=7 v=51
17708 Par ch=4 c=7 v=52
17715 Par ch=4 c=7 v=53
17721 Par ch=4 c=7 v=54
17728 Par ch=4 c=7 v=55
17734 Par ch=4 c=7 v=56
17740 Par ch=4 c=7 v=57
17747 Par ch=4 c=7 v=58
17753 Par ch=4 c=7 v=59
17760 Par ch=4 c=7 v=60
17766 Par ch=4 c=7 v=61
17772 Par ch=4 c=7 v=62
17779 Par ch=4 c=7 v=63
17785 Par ch=4 c=7 v=64
17792 Par ch=4 c=7 v=65
17798 Par ch=4 c=7 v=66
17804 Par ch=4 c=7 v=67
17811 Par ch=4 c=7 v=68
17817 Par ch=4 c=7 v=69
17824 On ch=4 n=e6 v=0
17824 Par ch=4 c=7 v=70
17830 Par ch=4 c=7 v=71
17836 Par ch=4 c=7 v=72
17843 Par ch=4 c=7 v=73
17849 Par ch=4 c=7 v=74
17856 Par ch=4 c=7 v=75
17856 On ch=4 n=d6 v=110
18048 On ch=4 n=d6 v=0
18048 On ch=4 n=c#6 v=110
18240 On ch=4 n=c#6 v=0
18240 On ch=4 n=b5 v=110
18432 On ch=4 n=b5 v=0
18432 Par ch=4 c=7 v=75
18432 On ch=4 n=a#5 v=110
18457 Par ch=4 c=7 v=74
18483 Par ch=4 c=7 v=73
18508 Par ch=4 c=7 v=72
18534 Par ch=4 c=7 v=71
18560 Par ch=4 c=7 v=70
18585 Par ch=4 c=7 v=69
18611 Par ch=4 c=7 v=68
18624 On ch=4 n=a#5 v=0
18624 On ch=4 n=a5 v=110
18636 Par ch=4 c=7 v=67
18662 Par ch=4 c=7 v=66
18688 Par ch=4 c=7 v=65
18713 Par ch=4 c=7 v=64
18739 Par ch=4 c=7 v=63
18764 Par ch=4 c=7 v=62
18784 On ch=4 n=a5 v=0
18790 Par ch=4 c=7 v=61
18816 Par ch=4 c=7 v=60
18816 On ch=4 n=a5 v=110
18841 Par ch=4 c=7 v=59
18867 Par ch=4 c=7 v=58
18892 Par ch=4 c=7 v=57
18918 Par ch=4 c=7 v=56
18944 Par ch=4 c=7 v=55
18969 Par ch=4 c=7 v=54
18995 Par ch=4 c=7 v=53
19020 Par ch=4 c=7 v=52
19046 Par ch=4 c=7 v=51
19072 Par ch=4 c=7 v=50
19097 Par ch=4 c=7 v=49
19104 On ch=4 n=a5 v=0
19104 On ch=4 n=g#5 v=110
19123 Par ch=4 c=7 v=48
19148 Par ch=4 c=7 v=47
19174 Par ch=4 c=7 v=46
19198 On ch=4 n=g#5 v=0
19200 Par ch=4 c=7 v=45
19200 On ch=4 n=g#4 v=110
19262 On ch=4 n=g#4 v=0
19264 On ch=4 n=b4 v=110
19326 On ch=4 n=b4 v=0
19328 On ch=4 n=e5 v=110
19390 On ch=4 n=e5 v=0
19392 On ch=4 n=g#5 v=110
19454 On ch=4 n=g#5 v=0
19456 On ch=4 n=d#5 v=110
19518 On ch=4 n=d#5 v=0
19520 On ch=4 n=e5 v=110
19582 On ch=4 n=e5 v=0
19584 On ch=4 n=g#5 v=110
19646 On ch=4 n=g#5 v=0
19648 On ch=4 n=b5 v=110
19710 On ch=4 n=b5 v=0
19712 On ch=4 n=e5 v=110
19774 On ch=4 n=e5 v=0
19776 On ch=4 n=f5 v=110
19838 On ch=4 n=f5 v=0
19840 On ch=4 n=g#5 v=110
19902 On ch=4 n=g#5 v=0
19904 On ch=4 n=b5 v=110
19966 On ch=4 n=b5 v=0
19968 On ch=4 n=c#5 v=110
20032 On ch=4 n=f5 v=110
20094 On ch=4 n=f5 v=0
20096 On ch=4 n=g#5 v=110
20128 On ch=4 n=c#5 v=0
20158 On ch=4 n=g#5 v=0
20160 On ch=4 n=a5 v=110
20222 On ch=4 n=a5 v=0
20224 On ch=4 n=c#5 v=110
20286 On ch=4 n=c#5 v=0
20288 On ch=4 n=f5 v=110
20350 On ch=4 n=f5 v=0
20352 On ch=4 n=f#5 v=110
20414 On ch=4 n=f#5 v=0
20416 On ch=4 n=a5 v=110
20478 On ch=4 n=a5 v=0
20480 On ch=4 n=c#5 v=110
20542 On ch=4 n=c#5 v=0
20544 On ch=4 n=d#5 v=110
20606 On ch=4 n=d#5 v=0
20608 On ch=4 n=f#5 v=110
20670 On ch=4 n=f#5 v=0
20672 On ch=4 n=a5 v=110
20734 On ch=4 n=a5 v=0
20736 On ch=4 n=b4 v=110
20798 On ch=4 n=b4 v=0
20800 On ch=4 n=d#5 v=110
20862 On ch=4 n=d#5 v=0
20864 On ch=4 n=f#5 v=110
20926 On ch=4 n=f#5 v=0
20928 On ch=4 n=g#5 v=110
20990 On ch=4 n=g#5 v=0
20992 On ch=4 n=b4 v=110
21054 On ch=4 n=b4 v=0
21056 On ch=4 n=d#5 v=110
21118 On ch=4 n=d#5 v=0
21120 On ch=4 n=e5 v=110
21182 On ch=4 n=e5 v=0
21184 On ch=4 n=g#5 v=110
21246 On ch=4 n=g#5 v=0
21248 On ch=4 n=b4 v=110
21310 On ch=4 n=b4 v=0
21312 On ch=4 n=d5 v=110
21374 On ch=4 n=d5 v=0
21376 On ch=4 n=f5 v=110
21438 On ch=4 n=f5 v=0
21440 On ch=4 n=g#5 v=110
21502 On ch=4 n=g#5 v=0
21504 On ch=4 n=a#4 v=110
21566 On ch=4 n=a#4 v=0
21568 On ch=4 n=c#5 v=110
21630 On ch=4 n=c#5 v=0
21632 On ch=4 n=e5 v=110
21694 On ch=4 n=e5 v=0
21696 On ch=4 n=f#5 v=110
21758 On ch=4 n=f#5 v=0
21760 On ch=4 n=a#4 v=110
21822 On ch=4 n=a#4 v=0
21824 On ch=4 n=c#5 v=110
21886 On ch=4 n=c#5 v=0
21888 On ch=4 n=e5 v=110
21950 On ch=4 n=e5 v=0
21952 On ch=4 n=f#5 v=110
22014 On ch=4 n=f#5 v=0
22016 On ch=4 n=a4 v=110
22078 On ch=4 n=a4 v=0
22080 On ch=4 n=d#5 v=110
22142 On ch=4 n=d#5 v=0
22144 On ch=4 n=b4 v=110
22206 On ch=4 n=b4 v=0
22208 On ch=4 n=f#5 v=110
22270 On ch=4 n=f#5 v=0
22272 On ch=4 n=g#4 v=110
22334 On ch=4 n=g#4 v=0
22336 On ch=4 n=b4 v=110
22398 On ch=4 n=b4 v=0
22400 On ch=4 n=e5 v=110
22462 On ch=4 n=e5 v=0
22464 On ch=4 n=g#5 v=110
22526 On ch=4 n=g#5 v=0
22528 On ch=4 n=b4 v=110
22590 On ch=4 n=b4 v=0
22592 On ch=4 n=e5 v=110
22654 On ch=4 n=e5 v=0
22656 Par ch=4 c=7 v=45
22656 On ch=4 n=g#4 v=110
22681 Par ch=4 c=7 v=46
22707 Par ch=4 c=7 v=47
22718 On ch=4 n=g#4 v=0
22720 On ch=4 n=b4 v=110
22732 Par ch=4 c=7 v=48
22758 Par ch=4 c=7 v=49
22782 On ch=4 n=b4 v=0
22784 Par ch=4 c=7 v=50
22784 On ch=4 n=e5 v=110
22809 Par ch=4 c=7 v=51
22835 Par ch=4 c=7 v=52
22846 On ch=4 n=e5 v=0
22848 On ch=4 n=b5 v=110
22860 Par ch=4 c=7 v=53
22886 Par ch=4 c=7 v=54
22910 On ch=4 n=b5 v=0
22912 Par ch=4 c=7 v=55
22912 On ch=4 n=b4 v=110
22937 Par ch=4 c=7 v=56
22963 Par ch=4 c=7 v=57
22974 On ch=4 n=b4 v=0
22976 On ch=4 n=e5 v=110
22988 Par ch=4 c=7 v=58
23014 Par ch=4 c=7 v=59
23038 On ch=4 n=e5 v=0
23040 Par ch=4 c=7 v=60
23040 On ch=4 n=c#5 v=110
23065 Par ch=4 c=7 v=59
23091 Par ch=4 c=7 v=58
23102 On ch=4 n=c#5 v=0
23104 On ch=4 n=d#5 v=110
23116 Par ch=4 c=7 v=57
23142 Par ch=4 c=7 v=56
23166 On ch=4 n=d#5 v=0
23168 Par ch=4 c=7 v=55
23168 On ch=4 n=a5 v=110
23193 Par ch=4 c=7 v=54
23219 Par ch=4 c=7 v=53
23230 On ch=4 n=a5 v=0
23232 On ch=4 n=b5 v=110
23244 Par ch=4 c=7 v=52
23270 Par ch=4 c=7 v=51
23294 On ch=4 n=b5 v=0
23296 Par ch=4 c=7 v=50
23296 On ch=4 n=b4 v=110
23321 Par ch=4 c=7 v=49
23347 Par ch=4 c=7 v=48
23358 On ch=4 n=b4 v=0
23360 On ch=4 n=b5 v=110
23372 Par ch=4 c=7 v=47
23398 Par ch=4 c=7 v=46
23422 On ch=4 n=b5 v=0
23424 Par ch=4 c=7 v=45
23424 Par ch=4 c=7 v=45
23424 On ch=4 n=g#4 v=110
23449 Par ch=4 c=7 v=46
23475 Par ch=4 c=7 v=47
23486 On ch=4 n=g#4 v=0
23488 On ch=4 n=b4 v=110
23500 Par ch=4 c=7 v=48
23526 Par ch=4 c=7 v=49
23550 On ch=4 n=b4 v=0
23552 Par ch=4 c=7 v=50
23552 On ch=4 n=e5 v=110
23577 Par ch=4 c=7 v=51
23603 Par ch=4 c=7 v=52
23614 On ch=4 n=e5 v=0
23616 On ch=4 n=g#5 v=110
23628 Par ch=4 c=7 v=53
23654 Par ch=4 c=7 v=54
23678 On ch=4 n=g#5 v=0
23680 Par ch=4 c=7 v=55
23680 On ch=4 n=b4 v=110
23705 Par ch=4 c=7 v=56
23731 Par ch=4 c=7 v=57
23742 On ch=4 n=b4 v=0
23744 On ch=4 n=e5 v=110
23756 Par ch=4 c=7 v=58
23782 Par ch=4 c=7 v=59
23806 On ch=4 n=e5 v=0
23808 Par ch=4 c=7 v=60
23808 On ch=4 n=c5 v=110
23833 Par ch=4 c=7 v=59
23859 Par ch=4 c=7 v=58
23870 On ch=4 n=c5 v=0
23872 On ch=4 n=d#5 v=110
23884 Par ch=4 c=7 v=57
23910 Par ch=4 c=7 v=56
23934 On ch=4 n=d#5 v=0
23936 Par ch=4 c=7 v=55
23936 On ch=4 n=f#5 v=110
23961 Par ch=4 c=7 v=54
23987 Par ch=4 c=7 v=53
23998 On ch=4 n=f#5 v=0
24000 On ch=4 n=c6 v=110
24012 Par ch=4 c=7 v=52
24038 Par ch=4 c=7 v=51
24062 On ch=4 n=c6 v=0
24064 Par ch=4 c=7 v=50
24064 On ch=4 n=d#5 v=110
24089 Par ch=4 c=7 v=49
24115 Par ch=4 c=7 v=48
24126 On ch=4 n=d#5 v=0
24128 On ch=4 n=g#5 v=110
24140 Par ch=4 c=7 v=47
24166 Par ch=4 c=7 v=46
24190 On ch=4 n=g#5 v=0
24192 Par ch=4 c=7 v=45
24192 On ch=4 n=b4 v=110
24254 On ch=4 n=b4 v=0
24256 On ch=4 n=e5 v=110
24318 On ch=4 n=e5 v=0
24320 On ch=4 n=g#5 v=110
24382 On ch=4 n=g#5 v=0
24384 On ch=4 n=b5 v=110
24478 On ch=4 n=b5 v=0
25216 On ch=4 n=e5 v=110
25278 On ch=4 n=e5 v=0
25280 On ch=4 n=a5 v=110
25342 On ch=4 n=a5 v=0
25344 Par ch=4 c=7 v=45
25344 On ch=4 n=c#5 v=110
25369 Par ch=4 c=7 v=46
25395 Par ch=4 c=7 v=47
25406 On ch=4 n=c#5 v=0
25408 On ch=4 n=e5 v=110
25420 Par ch=4 c=7 v=48
25446 Par ch=4 c=7 v=49
25470 On ch=4 n=e5 v=0
25472 Par ch=4 c=7 v=50
25472 On ch=4 n=a5 v=110
25497 Par ch=4 c=7 v=51
25523 Par ch=4 c=7 v=52
25534 On ch=4 n=a5 v=0
25536 On ch=4 n=a5 v=110
25548 Par ch=4 c=7 v=53
25574 Par ch=4 c=7 v=54
25598 On ch=4 n=a5 v=0
25600 Par ch=4 c=7 v=55
25600 On ch=4 n=e5 v=110
25625 Par ch=4 c=7 v=56
25651 Par ch=4 c=7 v=57
25662 On ch=4 n=e5 v=0
25664 On ch=4 n=a5 v=110
25676 Par ch=4 c=7 v=58
25702 Par ch=4 c=7 v=59
25726 On ch=4 n=a5 v=0
25728 Par ch=4 c=7 v=60
25728 On ch=4 n=d5 v=110
25753 Par ch=4 c=7 v=59
25779 Par ch=4 c=7 v=58
25790 On ch=4 n=d5 v=0
25792 On ch=4 n=f5 v=110
25804 Par ch=4 c=7 v=57
25830 Par ch=4 c=7 v=56
25854 On ch=4 n=f5 v=0
25856 Par ch=4 c=7 v=55
25856 On ch=4 n=g#5 v=110
25881 Par ch=4 c=7 v=54
25907 Par ch=4 c=7 v=53
25918 On ch=4 n=g#5 v=0
25920 On ch=4 n=d6 v=110
25932 Par ch=4 c=7 v=52
25958 Par ch=4 c=7 v=51
25982 On ch=4 n=d6 v=0
25984 Par ch=4 c=7 v=50
25984 On ch=4 n=e5 v=110
26009 Par ch=4 c=7 v=49
26035 Par ch=4 c=7 v=48
26046 On ch=4 n=e5 v=0
26048 On ch=4 n=g#5 v=110
26060 Par ch=4 c=7 v=47
26086 Par ch=4 c=7 v=46
26110 On ch=4 n=g#5 v=0
26112 Par ch=4 c=7 v=45
26112 Par ch=4 c=7 v=45
26112 On ch=4 n=c#5 v=110
26137 Par ch=4 c=7 v=46
26163 Par ch=4 c=7 v=47
26174 On ch=4 n=c#5 v=0
26176 On ch=4 n=e5 v=110
26188 Par ch=4 c=7 v=48
26214 Par ch=4 c=7 v=49
26238 On ch=4 n=e5 v=0
26240 Par ch=4 c=7 v=50
26240 On ch=4 n=a5 v=110
26265 Par ch=4 c=7 v=51
26291 Par ch=4 c=7 v=52
26302 On ch=4 n=a5 v=0
26304 On ch=4 n=c#6 v=110
26316 Par ch=4 c=7 v=53
26342 Par ch=4 c=7 v=54
26366 On ch=4 n=c#6 v=0
26368 Par ch=4 c=7 v=55
26368 On ch=4 n=e5 v=110
26393 Par ch=4 c=7 v=56
26419 Par ch=4 c=7 v=57
26430 On ch=4 n=e5 v=0
26432 On ch=4 n=a5 v=110
26444 Par ch=4 c=7 v=58
26470 Par ch=4 c=7 v=59
26494 On ch=4 n=a5 v=0
26496 Par ch=4 c=7 v=60
26496 On ch=4 n=a4 v=110
26521 Par ch=4 c=7 v=59
26547 Par ch=4 c=7 v=58
26558 On ch=4 n=a4 v=0
26560 On ch=4 n=c#5 v=110
26572 Par ch=4 c=7 v=57
26598 Par ch=4 c=7 v=56
26622 On ch=4 n=c#5 v=0
26624 Par ch=4 c=7 v=55
26624 On ch=4 n=g5 v=110
26649 Par ch=4 c=7 v=54
26675 Par ch=4 c=7 v=53
26686 On ch=4 n=g5 v=0
26688 On ch=4 n=c#6 v=110
26700 Par ch=4 c=7 v=52
26726 Par ch=4 c=7 v=51
26750 On ch=4 n=c#6 v=0
26752 Par ch=4 c=7 v=50
26752 On ch=4 n=c#5 v=110
26777 Par ch=4 c=7 v=49
26803 Par ch=4 c=7 v=48
26814 On ch=4 n=c#5 v=0
26816 On ch=4 n=g5 v=110
26828 Par ch=4 c=7 v=47
26854 Par ch=4 c=7 v=46
26878 On ch=4 n=g5 v=0
26880 Par ch=4 c=7 v=45
26880 On ch=4 n=g#4 v=110
26942 On ch=4 n=g#4 v=0
26944 On ch=4 n=c#5 v=110
27006 On ch=4 n=c#5 v=0
27008 On ch=4 n=e5 v=110
27070 On ch=4 n=e5 v=0
27072 On ch=4 n=g#5 v=110
27166 On ch=4 n=g#5 v=0
27904 On ch=4 n=b4 v=110
27966 On ch=4 n=b4 v=0
27968 On ch=4 n=e5 v=110
28030 On ch=4 n=e5 v=0
28032 Par ch=4 c=7 v=45
28032 On ch=4 n=g#4 v=110
28057 Par ch=4 c=7 v=46
28083 Par ch=4 c=7 v=47
28094 On ch=4 n=g#4 v=0
28096 On ch=4 n=b4 v=110
28108 Par ch=4 c=7 v=48
28134 Par ch=4 c=7 v=49
28158 On ch=4 n=b4 v=0
28160 Par ch=4 c=7 v=50
28160 On ch=4 n=e5 v=110
28185 Par ch=4 c=7 v=51
28211 Par ch=4 c=7 v=52
28222 On ch=4 n=e5 v=0
28224 On ch=4 n=b5 v=110
28236 Par ch=4 c=7 v=53
28262 Par ch=4 c=7 v=54
28286 On ch=4 n=b5 v=0
28288 Par ch=4 c=7 v=55
28288 On ch=4 n=d#5 v=110
28313 Par ch=4 c=7 v=56
28339 Par ch=4 c=7 v=57
28350 On ch=4 n=d#5 v=0
28352 On ch=4 n=e5 v=110
28364 Par ch=4 c=7 v=58
28390 Par ch=4 c=7 v=59
28414 On ch=4 n=e5 v=0
28416 Par ch=4 c=7 v=60
28416 On ch=4 n=c#5 v=110
28441 Par ch=4 c=7 v=59
28467 Par ch=4 c=7 v=58
28478 On ch=4 n=c#5 v=0
28480 On ch=4 n=d#5 v=110
28492 Par ch=4 c=7 v=57
28518 Par ch=4 c=7 v=56
28542 On ch=4 n=d#5 v=0
28544 Par ch=4 c=7 v=55
28544 On ch=4 n=a5 v=110
28569 Par ch=4 c=7 v=54
28595 Par ch=4 c=7 v=53
28606 On ch=4 n=a5 v=0
28608 On ch=4 n=b5 v=110
28620 Par ch=4 c=7 v=52
28646 Par ch=4 c=7 v=51
28670 On ch=4 n=b5 v=0
28672 Par ch=4 c=7 v=50
28672 On ch=4 n=b4 v=110
28697 Par ch=4 c=7 v=49
28723 Par ch=4 c=7 v=48
28734 On ch=4 n=b4 v=0
28736 On ch=4 n=b5 v=110
28748 Par ch=4 c=7 v=47
28774 Par ch=4 c=7 v=46
28798 On ch=4 n=b5 v=0
28800 Par ch=4 c=7 v=45
28800 On ch=4 n=b4 v=110
28862 On ch=4 n=b4 v=0
28864 On ch=4 n=e5 v=110
28926 On ch=4 n=e5 v=0
28928 On ch=4 n=g#5 v=110
28990 On ch=4 n=g#5 v=0
28992 On ch=4 n=b5 v=110
29054 On ch=4 n=b5 v=0
29056 On ch=4 n=e5 v=110
29118 On ch=4 n=e5 v=0
29120 On ch=4 n=g#5 v=110
29182 On ch=4 n=g#5 v=0
29184 Par ch=4 c=7 v=45
29184 On ch=4 n=b4 v=110
29209 Par ch=4 c=7 v=46
29235 Par ch=4 c=7 v=47
29246 On ch=4 n=b4 v=0
29248 On ch=4 n=f#5 v=110
29260 Par ch=4 c=7 v=48
29286 Par ch=4 c=7 v=49
29310 On ch=4 n=f#5 v=0
29312 Par ch=4 c=7 v=50
29312 On ch=4 n=g#5 v=110
29337 Par ch=4 c=7 v=51
29363 Par ch=4 c=7 v=52
29374 On ch=4 n=g#5 v=0
29376 On ch=4 n=b5 v=110
29388 Par ch=4 c=7 v=53
29414 Par ch=4 c=7 v=54
29438 On ch=4 n=b5 v=0
29440 Par ch=4 c=7 v=55
29440 On ch=4 n=b4 v=110
29465 Par ch=4 c=7 v=56
29491 Par ch=4 c=7 v=57
29502 On ch=4 n=b4 v=0
29504 On ch=4 n=f#5 v=110
29516 Par ch=4 c=7 v=58
29542 Par ch=4 c=7 v=59
29566 On ch=4 n=f#5 v=0
29568 Par ch=4 c=7 v=60
29568 On ch=4 n=b4 v=110
29593 Par ch=4 c=7 v=59
29619 Par ch=4 c=7 v=58
29630 On ch=4 n=b4 v=0
29632 On ch=4 n=c#5 v=110
29644 Par ch=4 c=7 v=57
29670 Par ch=4 c=7 v=56
29694 On ch=4 n=c#5 v=0
29696 Par ch=4 c=7 v=55
29696 On ch=4 n=f#5 v=110
29721 Par ch=4 c=7 v=54
29747 Par ch=4 c=7 v=53
29758 On ch=4 n=f#5 v=0
29760 On ch=4 n=c#6 v=110
29772 Par ch=4 c=7 v=52
29798 Par ch=4 c=7 v=51
29822 On ch=4 n=c#6 v=0
29824 Par ch=4 c=7 v=50
29824 On ch=4 n=b4 v=110
29849 Par ch=4 c=7 v=49
29875 Par ch=4 c=7 v=48
29886 On ch=4 n=b4 v=0
29888 On ch=4 n=f5 v=110
29900 Par ch=4 c=7 v=47
29926 Par ch=4 c=7 v=46
29950 On ch=4 n=f5 v=0
29952 Par ch=4 c=7 v=45
29952 Par ch=4 c=7 v=45
29952 On ch=4 n=a4 v=110
29977 Par ch=4 c=7 v=46
30003 Par ch=4 c=7 v=47
30014 On ch=4 n=a4 v=0
30016 On ch=4 n=c#5 v=110
30028 Par ch=4 c=7 v=48
30054 Par ch=4 c=7 v=49
30078 On ch=4 n=c#5 v=0
30080 Par ch=4 c=7 v=50
30080 On ch=4 n=f#5 v=110
30105 Par ch=4 c=7 v=51
30131 Par ch=4 c=7 v=52
30142 On ch=4 n=f#5 v=0
30144 On ch=4 n=c#6 v=110
30156 Par ch=4 c=7 v=53
30182 Par ch=4 c=7 v=54
30206 On ch=4 n=c#6 v=0
30208 Par ch=4 c=7 v=55
30208 On ch=4 n=c#5 v=110
30233 Par ch=4 c=7 v=56
30259 Par ch=4 c=7 v=57
30270 On ch=4 n=c#5 v=0
30272 On ch=4 n=f#5 v=110
30284 Par ch=4 c=7 v=58
30310 Par ch=4 c=7 v=59
30334 On ch=4 n=f#5 v=0
30336 Par ch=4 c=7 v=60
30336 On ch=4 n=c5 v=110
30361 Par ch=4 c=7 v=59
30387 Par ch=4 c=7 v=58
30398 On ch=4 n=c5 v=0
30400 On ch=4 n=e5 v=110
30412 Par ch=4 c=7 v=57
30438 Par ch=4 c=7 v=56
30462 On ch=4 n=e5 v=0
30464 Par ch=4 c=7 v=55
30464 On ch=4 n=f#5 v=110
30489 Par ch=4 c=7 v=54
30515 Par ch=4 c=7 v=53
30526 On ch=4 n=f#5 v=0
30528 On ch=4 n=c6 v=110
30540 Par ch=4 c=7 v=52
30566 Par ch=4 c=7 v=51
30590 On ch=4 n=c6 v=0
30592 Par ch=4 c=7 v=50
30592 On ch=4 n=d#5 v=110
30617 Par ch=4 c=7 v=49
30643 Par ch=4 c=7 v=48
30654 On ch=4 n=d#5 v=0
30656 On ch=4 n=f#5 v=110
30668 Par ch=4 c=7 v=47
30694 Par ch=4 c=7 v=46
30718 On ch=4 n=f#5 v=0
30720 Par ch=4 c=7 v=45
30720 Par ch=4 c=7 v=45
30720 On ch=4 n=b4 v=110
30745 Par ch=4 c=7 v=46
30771 Par ch=4 c=7 v=47
30782 On ch=4 n=b4 v=0
30784 On ch=4 n=e5 v=110
30796 Par ch=4 c=7 v=48
30822 Par ch=4 c=7 v=49
30846 On ch=4 n=e5 v=0
30848 Par ch=4 c=7 v=50
30848 On ch=4 n=g#5 v=110
30873 Par ch=4 c=7 v=51
30899 Par ch=4 c=7 v=52
30910 On ch=4 n=g#5 v=0
30912 On ch=4 n=b5 v=110
30924 Par ch=4 c=7 v=53
30950 Par ch=4 c=7 v=54
30974 On ch=4 n=b5 v=0
30976 Par ch=4 c=7 v=55
30976 On ch=4 n=e5 v=110
31001 Par ch=4 c=7 v=56
31027 Par ch=4 c=7 v=57
31038 On ch=4 n=e5 v=0
31040 On ch=4 n=g#5 v=110
31052 Par ch=4 c=7 v=58
31078 Par ch=4 c=7 v=59
31102 On ch=4 n=g#5 v=0
31104 Par ch=4 c=7 v=60
31104 On ch=4 n=b4 v=110
31123 Par ch=4 c=7 v=59
31142 Par ch=4 c=7 v=58
31161 Par ch=4 c=7 v=57
31166 On ch=4 n=b4 v=0
31168 On ch=4 n=d5 v=110
31180 Par ch=4 c=7 v=56
31200 Par ch=4 c=7 v=55
31219 Par ch=4 c=7 v=54
31230 On ch=4 n=d5 v=0
31232 On ch=4 n=a#5 v=110
31238 Par ch=4 c=7 v=53
31257 Par ch=4 c=7 v=52
31276 Par ch=4 c=7 v=51
31294 On ch=4 n=a#5 v=0
31296 Par ch=4 c=7 v=50
31296 On ch=4 n=b5 v=110
31315 Par ch=4 c=7 v=49
31334 Par ch=4 c=7 v=48
31353 Par ch=4 c=7 v=47
31358 On ch=4 n=b5 v=0
31360 On ch=4 n=b4 v=110
31372 Par ch=4 c=7 v=46
31392 Par ch=4 c=7 v=45
31411 Par ch=4 c=7 v=44
31422 On ch=4 n=b4 v=0
31424 On ch=4 n=c#5 v=110
31430 Par ch=4 c=7 v=43
31449 Par ch=4 c=7 v=42
31468 Par ch=4 c=7 v=41
31486 On ch=4 n=c#5 v=0
31488 Par ch=4 c=7 v=40
31488 On ch=4 n=b4 v=110
31507 Par ch=4 c=7 v=39
31526 Par ch=4 c=7 v=38
31545 Par ch=4 c=7 v=37
31550 On ch=4 n=b4 v=0
31552 On ch=4 n=d#5 v=110
31564 Par ch=4 c=7 v=36
31584 Par ch=4 c=7 v=35
31603 Par ch=4 c=7 v=34
31614 On ch=4 n=d#5 v=0
31616 On ch=4 n=f#5 v=110
31622 Par ch=4 c=7 v=33
31641 Par ch=4 c=7 v=32
31660 Par ch=4 c=7 v=31
31678 On ch=4 n=f#5 v=0
31680 Par ch=4 c=7 v=30
31680 On ch=4 n=g#5 v=110
31742 On ch=4 n=g#5 v=0
31744 On ch=4 n=b4 v=110
31806 On ch=4 n=b4 v=0
31808 On ch=4 n=d#5 v=110
31870 On ch=4 n=d#5 v=0
31872 On ch=4 n=a#4 v=110
31934 On ch=4 n=a#4 v=0
31936 On ch=4 n=c#5 v=110
31998 On ch=4 n=c#5 v=0
32000 On ch=4 n=e5 v=110
32062 On ch=4 n=e5 v=0
32064 On ch=4 n=f#5 v=110
32158 On ch=4 n=f#5 v=0
51072 Par ch=4 c=7 v=75
51072 On ch=4 n=g4 v=110
51097 Par ch=4 c=7 v=74
51123 Par ch=4 c=7 v=73
51148 Par ch=4 c=7 v=72
51174 Par ch=4 c=7 v=71
51200 Par ch=4 c=7 v=70
51225 Par ch=4 c=7 v=69
51251 Par ch=4 c=7 v=68
51276 Par ch=4 c=7 v=67
51302 Par ch=4 c=7 v=66
51328 Par ch=4 c=7 v=65
51353 Par ch=4 c=7 v=64
51379 Par ch=4 c=7 v=63
51404 Par ch=4 c=7 v=62
51430 Par ch=4 c=7 v=61
51456 On ch=4 n=g4 v=0
51456 Par ch=4 c=7 v=60
51456 On ch=4 n=a4 v=110
51550 On ch=4 n=a4 v=0
51840 Par ch=4 c=7 v=75
51840 On ch=4 n=g4 v=110
51865 Par ch=4 c=7 v=74
51891 Par ch=4 c=7 v=73
51916 Par ch=4 c=7 v=72
51942 Par ch=4 c=7 v=71
51968 Par ch=4 c=7 v=70
51993 Par ch=4 c=7 v=69
52019 Par ch=4 c=7 v=68
52044 Par ch=4 c=7 v=67
52070 Par ch=4 c=7 v=66
52096 Par ch=4 c=7 v=65
52121 Par ch=4 c=7 v=64
52147 Par ch=4 c=7 v=63
52172 Par ch=4 c=7 v=62
52198 Par ch=4 c=7 v=61
52224 On ch=4 n=g4 v=0
52224 Par ch=4 c=7 v=60
52224 Par ch=4 c=7 v=60
52224 On ch=4 n=f4 v=110
52249 Par ch=4 c=7 v=61
52275 Par ch=4 c=7 v=62
52300 Par ch=4 c=7 v=63
52326 Par ch=4 c=7 v=64
52352 Par ch=4 c=7 v=65
52377 Par ch=4 c=7 v=66
52403 Par ch=4 c=7 v=67
52428 Par ch=4 c=7 v=68
52454 Par ch=4 c=7 v=69
52480 Par ch=4 c=7 v=70
52505 Par ch=4 c=7 v=71
52531 Par ch=4 c=7 v=72
52556 Par ch=4 c=7 v=73
52582 Par ch=4 c=7 v=74
52608 On ch=4 n=f4 v=0
52608 Par ch=4 c=7 v=75
52608 On ch=4 n=g4 v=110
52633 Par ch=4 c=7 v=74
52659 Par ch=4 c=7 v=73
52684 Par ch=4 c=7 v=72
52710 Par ch=4 c=7 v=71
52736 Par ch=4 c=7 v=70
52761 Par ch=4 c=7 v=69
52787 Par ch=4 c=7 v=68
52812 Par ch=4 c=7 v=67
52838 Par ch=4 c=7 v=66
52864 Par ch=4 c=7 v=65
52889 Par ch=4 c=7 v=64
52915 Par ch=4 c=7 v=63
52940 Par ch=4 c=7 v=62
52966 Par ch=4 c=7 v=61
52992 On ch=4 n=g4 v=0
52992 Par ch=4 c=7 v=60
52992 On ch=4 n=f4 v=110
53760 On ch=4 n=f4 v=0
53760 On ch=4 n=e4 v=110
53920 On ch=4 n=e4 v=0
55296 Par ch=4 c=7 v=60
55321 Par ch=4 c=7 v=61
55347 Par ch=4 c=7 v=62
55372 Par ch=4 c=7 v=63
55392 On ch=4 n=e6 v=110
55398 Par ch=4 c=7 v=64
55424 Par ch=4 c=7 v=65
55449 Par ch=4 c=7 v=66
55475 Par ch=4 c=7 v=67
55488 On ch=4 n=e6 v=0
55488 On ch=4 n=d6 v=110
55500 Par ch=4 c=7 v=68
55526 Par ch=4 c=7 v=69
55552 Par ch=4 c=7 v=70
55577 Par ch=4 c=7 v=71
55584 On ch=4 n=d6 v=0
55584 On ch=4 n=e6 v=110
55603 Par ch=4 c=7 v=72
55628 Par ch=4 c=7 v=73
55654 Par ch=4 c=7 v=74
55680 On ch=4 n=e6 v=0
55680 Par ch=4 c=7 v=75
55680 On ch=4 n=e6 v=110
55776 On ch=4 n=e6 v=0
55776 On ch=4 n=f6 v=110
55872 On ch=4 n=f6 v=0
55872 On ch=4 n=b5 v=110
55968 On ch=4 n=b5 v=0
55968 On ch=4 n=c6 v=110
56062 On ch=4 n=c6 v=0
56064 On ch=4 n=d6 v=110
56160 On ch=4 n=d6 v=0
56160 On ch=4 n=e6 v=110
56256 On ch=4 n=e6 v=0
56256 On ch=4 n=a5 v=110
56352 On ch=4 n=a5 v=0
56352 On ch=4 n=b5 v=110
56448 On ch=4 n=b5 v=0
56448 Par ch=4 c=7 v=75
56448 On ch=4 n=c6 v=110
56460 Par ch=4 c=7 v=74
56473 Par ch=4 c=7 v=73
56486 Par ch=4 c=7 v=72
56499 Par ch=4 c=7 v=71
56512 Par ch=4 c=7 v=70
56524 Par ch=4 c=7 v=69
56537 Par ch=4 c=7 v=68
56544 On ch=4 n=c6 v=0
56544 On ch=4 n=d6 v=110
56550 Par ch=4 c=7 v=67
56563 Par ch=4 c=7 v=66
56576 Par ch=4 c=7 v=65
56588 Par ch=4 c=7 v=64
56601 Par ch=4 c=7 v=63
56614 Par ch=4 c=7 v=62
56627 Par ch=4 c=7 v=61
56640 On ch=4 n=d6 v=0
56640 Par ch=4 c=7 v=60
56640 On ch=4 n=b5 v=110
56652 Par ch=4 c=7 v=59
56665 Par ch=4 c=7 v=58
56678 Par ch=4 c=7 v=57
56691 Par ch=4 c=7 v=56
56704 Par ch=4 c=7 v=55
56716 Par ch=4 c=7 v=54
56729 Par ch=4 c=7 v=53
56736 On ch=4 n=b5 v=0
56736 On ch=4 n=c6 v=110
56742 Par ch=4 c=7 v=52
56755 Par ch=4 c=7 v=51
56768 Par ch=4 c=7 v=50
56780 Par ch=4 c=7 v=49
56793 Par ch=4 c=7 v=48
56806 Par ch=4 c=7 v=47
56819 Par ch=4 c=7 v=46
56832 On ch=4 n=c6 v=0
56832 Par ch=4 c=7 v=45
56832 On ch=4 n=a5 v=110
56926 On ch=4 n=a5 v=0
63168 Par ch=4 c=7 v=45
63168 On ch=4 n=g4 v=110
63180 Par ch=4 c=7 v=46
63193 Par ch=4 c=7 v=47
63206 Par ch=4 c=7 v=48
63219 Par ch=4 c=7 v=49
63232 Par ch=4 c=7 v=50
63244 Par ch=4 c=7 v=51
63257 Par ch=4 c=7 v=52
63270 Par ch=4 c=7 v=53
63283 Par ch=4 c=7 v=54
63296 Par ch=4 c=7 v=55
63308 Par ch=4 c=7 v=56
63321 Par ch=4 c=7 v=57
63334 Par ch=4 c=7 v=58
63347 Par ch=4 c=7 v=59
63360 On ch=4 n=g4 v=0
63360 Par ch=4 c=7 v=60
63360 On ch=4 n=g#4 v=110
63408 Par ch=4 c=7 v=61
63456 Par ch=4 c=7 v=62
63504 Par ch=4 c=7 v=63
63552 Par ch=4 c=7 v=64
63646 On ch=4 n=g#4 v=0
64704 Par ch=4 c=7 v=45
64704 On ch=4 n=g4 v=110
64716 Par ch=4 c=7 v=46
64729 Par ch=4 c=7 v=47
64742 Par ch=4 c=7 v=48
64755 Par ch=4 c=7 v=49
64768 Par ch=4 c=7 v=50
64780 Par ch=4 c=7 v=51
64793 Par ch=4 c=7 v=52
64806 Par ch=4 c=7 v=53
64819 Par ch=4 c=7 v=54
64832 Par ch=4 c=7 v=55
64844 Par ch=4 c=7 v=56
64857 Par ch=4 c=7 v=57
64870 Par ch=4 c=7 v=58
64883 Par ch=4 c=7 v=59
64896 On ch=4 n=g4 v=0
64896 Par ch=4 c=7 v=60
64896 On ch=4 n=g#4 v=110
64944 Par ch=4 c=7 v=61
64992 Par ch=4 c=7 v=62
65040 Par ch=4 c=7 v=63
65088 Par ch=4 c=7 v=64
65182 On ch=4 n=g#4 v=0
66240 Par ch=4 c=7 v=45
66240 On ch=4 n=f#4 v=110
66252 Par ch=4 c=7 v=46
66265 Par ch=4 c=7 v=47
66278 Par ch=4 c=7 v=48
66291 Par ch=4 c=7 v=49
66304 Par ch=4 c=7 v=50
66316 Par ch=4 c=7 v=51
66329 Par ch=4 c=7 v=52
66342 Par ch=4 c=7 v=53
66355 Par ch=4 c=7 v=54
66368 Par ch=4 c=7 v=55
66380 Par ch=4 c=7 v=56
66393 Par ch=4 c=7 v=57
66406 Par ch=4 c=7 v=58
66419 Par ch=4 c=7 v=59
66432 On ch=4 n=f#4 v=0
66432 Par ch=4 c=7 v=60
66432 On ch=4 n=g4 v=110
66480 Par ch=4 c=7 v=61
66528 Par ch=4 c=7 v=62
66576 Par ch=4 c=7 v=63
66624 Par ch=4 c=7 v=64
66718 On ch=4 n=g4 v=0
67776 Par ch=4 c=7 v=45
67776 On ch=4 n=f#4 v=110
67788 Par ch=4 c=7 v=46
67801 Par ch=4 c=7 v=47
67814 Par ch=4 c=7 v=48
67827 Par ch=4 c=7 v=49
67840 Par ch=4 c=7 v=50
67852 Par ch=4 c=7 v=51
67865 Par ch=4 c=7 v=52
67878 Par ch=4 c=7 v=53
67891 Par ch=4 c=7 v=54
67904 Par ch=4 c=7 v=55
67916 Par ch=4 c=7 v=56
67929 Par ch=4 c=7 v=57
67942 Par ch=4 c=7 v=58
67955 Par ch=4 c=7 v=59
67968 On ch=4 n=f#4 v=0
67968 Par ch=4 c=7 v=60
67968 On ch=4 n=g4 v=110
68016 Par ch=4 c=7 v=61
68064 Par ch=4 c=7 v=62
68112 Par ch=4 c=7 v=63
68160 Par ch=4 c=7 v=64
68254 On ch=4 n=g4 v=0
72192 Par ch=4 c=7 v=45
72192 On ch=4 n=d5 v=110
72192 On ch=4 n=d6 v=110
72200 Par ch=4 c=7 v=46
72208 Par ch=4 c=7 v=47
72216 Par ch=4 c=7 v=48
72224 Par ch=4 c=7 v=49
72232 Par ch=4 c=7 v=50
72241 Par ch=4 c=7 v=51
72249 Par ch=4 c=7 v=52
72257 Par ch=4 c=7 v=53
72265 Par ch=4 c=7 v=54
72273 Par ch=4 c=7 v=55
72281 Par ch=4 c=7 v=56
72290 Par ch=4 c=7 v=57
72298 Par ch=4 c=7 v=58
72306 Par ch=4 c=7 v=59
72314 Par ch=4 c=7 v=60
72322 Par ch=4 c=7 v=61
72330 Par ch=4 c=7 v=62
72339 Par ch=4 c=7 v=63
72347 Par ch=4 c=7 v=64
72355 Par ch=4 c=7 v=65
72363 Par ch=4 c=7 v=66
72371 Par ch=4 c=7 v=67
72379 Par ch=4 c=7 v=68
72384 On ch=4 n=d5 v=0
72384 On ch=4 n=d6 v=0
72384 On ch=4 n=b4 v=110
72384 On ch=4 n=b5 v=110
72388 Par ch=4 c=7 v=69
72396 Par ch=4 c=7 v=70
72404 Par ch=4 c=7 v=71
72412 Par ch=4 c=7 v=72
72420 Par ch=4 c=7 v=73
72428 Par ch=4 c=7 v=74
72437 Par ch=4 c=7 v=75
72445 Par ch=4 c=7 v=76
72453 Par ch=4 c=7 v=77
72461 Par ch=4 c=7 v=78
72469 Par ch=4 c=7 v=79
72477 Par ch=4 c=7 v=80
72486 Par ch=4 c=7 v=81
72494 Par ch=4 c=7 v=82
72502 Par ch=4 c=7 v=83
72510 Par ch=4 c=7 v=84
72518 Par ch=4 c=7 v=85
72526 Par ch=4 c=7 v=86
72535 Par ch=4 c=7 v=87
72543 Par ch=4 c=7 v=88
72544 On ch=4 n=b4 v=0
72544 On ch=4 n=b5 v=0
72551 Par ch=4 c=7 v=89
72559 Par ch=4 c=7 v=90
72567 Par ch=4 c=7 v=91
72576 Par ch=4 c=7 v=92
72576 On ch=4 n=b6 v=110
72576 On ch=4 n=d6 v=110
72600 Par ch=4 c=7 v=91
72625 Par ch=4 c=7 v=90
72649 Par ch=4 c=7 v=89
72674 Par ch=4 c=7 v=88
72698 Par ch=4 c=7 v=87
72723 Par ch=4 c=7 v=86
72747 Par ch=4 c=7 v=85
72768 On ch=4 n=b6 v=0
72768 On ch=4 n=a6 v=110
72772 Par ch=4 c=7 v=84
72796 Par ch=4 c=7 v=83
72821 Par ch=4 c=7 v=82
72845 Par ch=4 c=7 v=81
72870 Par ch=4 c=7 v=80
72894 Par ch=4 c=7 v=79
72919 Par ch=4 c=7 v=78
72943 Par ch=4 c=7 v=77
72960 On ch=4 n=a6 v=0
72960 On ch=4 n=g#6 v=110
72968 Par ch=4 c=7 v=76
72992 Par ch=4 c=7 v=75
73017 Par ch=4 c=7 v=74
73041 Par ch=4 c=7 v=73
73066 Par ch=4 c=7 v=72
73090 Par ch=4 c=7 v=71
73115 Par ch=4 c=7 v=70
73139 Par ch=4 c=7 v=69
73164 Par ch=4 c=7 v=68
73188 Par ch=4 c=7 v=67
73213 Par ch=4 c=7 v=66
73237 Par ch=4 c=7 v=65
73262 Par ch=4 c=7 v=64
73286 Par ch=4 c=7 v=63
73296 On ch=4 n=d6 v=0
73296 On ch=4 n=g#6 v=0
73311 Par ch=4 c=7 v=62
73335 Par ch=4 c=7 v=61
73344 On ch=4 n=c6 v=110
73344 On ch=4 n=g6 v=110
73360 Par ch=4 c=7 v=60
73384 Par ch=4 c=7 v=59
73409 Par ch=4 c=7 v=58
73433 Par ch=4 c=7 v=57
73458 Par ch=4 c=7 v=56
73482 Par ch=4 c=7 v=55
73507 Par ch=4 c=7 v=54
73531 Par ch=4 c=7 v=53
73556 Par ch=4 c=7 v=52
73580 Par ch=4 c=7 v=51
73605 Par ch=4 c=7 v=50
73629 Par ch=4 c=7 v=49
73654 Par ch=4 c=7 v=48
73678 Par ch=4 c=7 v=47
73703 Par ch=4 c=7 v=46
73728 On ch=4 n=c6 v=0
73728 On ch=4 n=g6 v=0
73728 Par ch=4 c=7 v=45
73728 On ch=4 n=d6 v=110
73728 On ch=4 n=f#6 v=110
73822 On ch=4 n=d6 v=0
73822 On ch=4 n=f#6 v=0
82560 Par ch=4 c=7 v=45
82560 On ch=4 n=d#5 v=110
82560 On ch=4 n=a5 v=110
82572 Par ch=4 c=7 v=46
82585 Par ch=4 c=7 v=47
82598 Par ch=4 c=7 v=48
82611 Par ch=4 c=7 v=49
82624 Par ch=4 c=7 v=50
82636 Par ch=4 c=7 v=51
82649 Par ch=4 c=7 v=52
82662 Par ch=4 c=7 v=53
82675 Par ch=4 c=7 v=54
82688 Par ch=4 c=7 v=55
82700 Par ch=4 c=7 v=56
82713 Par ch=4 c=7 v=57
82726 Par ch=4 c=7 v=58
82739 Par ch=4 c=7 v=59
82752 Par ch=4 c=7 v=60
82764 Par ch=4 c=7 v=61
82777 Par ch=4 c=7 v=62
82790 Par ch=4 c=7 v=63
82803 Par ch=4 c=7 v=64
82816 Par ch=4 c=7 v=65
82828 Par ch=4 c=7 v=66
82841 Par ch=4 c=7 v=67
82854 Par ch=4 c=7 v=68
82867 Par ch=4 c=7 v=69
82880 Par ch=4 c=7 v=70
82892 Par ch=4 c=7 v=71
82905 Par ch=4 c=7 v=72
82918 Par ch=4 c=7 v=73
82931 Par ch=4 c=7 v=74
82944 On ch=4 n=d#5 v=0
82944 On ch=4 n=a5 v=0
82944 Par ch=4 c=7 v=75
83184 On ch=4 n=f5 v=110
83184 On ch=4 n=c#6 v=110
83712 Par ch=4 c=7 v=75
83718 Par ch=4 c=7 v=74
83724 Par ch=4 c=7 v=73
83731 Par ch=4 c=7 v=72
83737 Par ch=4 c=7 v=71
83744 Par ch=4 c=7 v=70
83750 Par ch=4 c=7 v=69
83756 Par ch=4 c=7 v=68
83763 Par ch=4 c=7 v=67
83769 Par ch=4 c=7 v=66
83776 Par ch=4 c=7 v=65
83782 Par ch=4 c=7 v=64
83788 Par ch=4 c=7 v=63
83795 Par ch=4 c=7 v=62
83801 Par ch=4 c=7 v=61
83808 Par ch=4 c=7 v=60
83814 Par ch=4 c=7 v=59
83820 Par ch=4 c=7 v=58
83827 Par ch=4 c=7 v=57
83833 Par ch=4 c=7 v=56
83840 Par ch=4 c=7 v=55
83846 Par ch=4 c=7 v=54
83852 Par ch=4 c=7 v=53
83859 Par ch=4 c=7 v=52
83865 Par ch=4 c=7 v=51
83872 Par ch=4 c=7 v=50
83878 Par ch=4 c=7 v=49
83884 Par ch=4 c=7 v=48
83891 Par ch=4 c=7 v=47
83897 Par ch=4 c=7 v=46
83904 Par ch=4 c=7 v=45
84432 On ch=4 n=f5 v=0
84432 On ch=4 n=c#6 v=0
86016 Par ch=4 c=7 v=45
86784 On ch=4 n=a4 v=110
86784 On ch=4 n=e5 v=110
88030 On ch=4 n=a4 v=0
88030 On ch=4 n=e5 v=0
88320 Par ch=4 c=7 v=60
88608 On ch=4 n=b4 v=110
88608 On ch=4 n=b5 v=110
88704 On ch=4 n=b4 v=0
88704 On ch=4 n=b5 v=0
88704 On ch=4 n=c#5 v=110
88704 On ch=4 n=c#6 v=110
88992 On ch=4 n=c#5 v=0
88992 On ch=4 n=c#6 v=0
88992 On ch=4 n=a4 v=110
88992 On ch=4 n=a5 v=110
89088 On ch=4 n=a4 v=0
89088 On ch=4 n=a5 v=0
89088 On ch=4 n=b4 v=110
89088 On ch=4 n=b5 v=110
89376 On ch=4 n=b4 v=0
89376 On ch=4 n=b5 v=0
89376 On ch=4 n=g#4 v=110
89376 On ch=4 n=g#5 v=110
89472 On ch=4 n=g#4 v=0
89472 On ch=4 n=g#5 v=0
89472 On ch=4 n=a4 v=110
89472 On ch=4 n=a5 v=110
89760 On ch=4 n=a4 v=0
89760 On ch=4 n=a5 v=0
89760 On ch=4 n=f#4 v=110
89760 On ch=4 n=f#5 v=110
89856 On ch=4 n=f#4 v=0
89856 On ch=4 n=f#5 v=0
89856 On ch=4 n=b4 v=110
89856 On ch=4 n=b5 v=110
90144 On ch=4 n=b4 v=0
90144 On ch=4 n=b5 v=0
90144 On ch=4 n=f#5 v=110
90144 On ch=4 n=f#6 v=110
90240 On ch=4 n=f#5 v=0
90240 On ch=4 n=f#6 v=0
90240 On ch=4 n=g#5 v=110
90240 On ch=4 n=g#6 v=110
90528 On ch=4 n=g#5 v=0
90528 On ch=4 n=g#6 v=0
90528 On ch=4 n=f6 v=110
90528 On ch=4 n=f5 v=110
90624 On ch=4 n=f6 v=0
90624 On ch=4 n=f5 v=0
90624 On ch=4 n=f#5 v=110
90624 On ch=4 n=f#6 v=110
90912 On ch=4 n=f#5 v=0
90912 On ch=4 n=f#6 v=0
90912 On ch=4 n=d#5 v=110
90912 On ch=4 n=d#6 v=110
91008 On ch=4 n=d#5 v=0
91008 On ch=4 n=d#6 v=0
91008 On ch=4 n=e5 v=110
91008 On ch=4 n=e6 v=110
91296 On ch=4 n=e5 v=0
91296 On ch=4 n=e6 v=0
91296 On ch=4 n=c#5 v=110
91296 On ch=4 n=c#6 v=110
91392 On ch=4 n=c#5 v=0
91392 On ch=4 n=c#6 v=0
91392 Par ch=4 c=7 v=75
91392 On ch=4 n=d#5 v=110
91392 On ch=4 n=d#6 v=110
91404 Par ch=4 c=7 v=74
91417 Par ch=4 c=7 v=73
91430 Par ch=4 c=7 v=72
91443 Par ch=4 c=7 v=71
91456 Par ch=4 c=7 v=70
91468 Par ch=4 c=7 v=69
91481 Par ch=4 c=7 v=68
91494 Par ch=4 c=7 v=67
91507 Par ch=4 c=7 v=66
91520 Par ch=4 c=7 v=65
91532 Par ch=4 c=7 v=64
91545 Par ch=4 c=7 v=63
91558 Par ch=4 c=7 v=62
91571 Par ch=4 c=7 v=61
91584 On ch=4 n=d#5 v=0
91584 On ch=4 n=d#6 v=0
91584 Par ch=4 c=7 v=60
91584 On ch=4 n=e5 v=110
91584 On ch=4 n=e6 v=110
91744 On ch=4 n=e5 v=0
91744 On ch=4 n=e6 v=0
91776 Par ch=4 c=7 v=75
91776 On ch=4 n=g5 v=110
91776 On ch=4 n=a#5 v=110
91788 Par ch=4 c=7 v=74
91801 Par ch=4 c=7 v=73
91814 Par ch=4 c=7 v=72
91827 Par ch=4 c=7 v=71
91840 Par ch=4 c=7 v=70
91852 Par ch=4 c=7 v=69
91865 Par ch=4 c=7 v=68
91878 Par ch=4 c=7 v=67
91891 Par ch=4 c=7 v=66
91904 Par ch=4 c=7 v=65
91916 Par ch=4 c=7 v=64
91929 Par ch=4 c=7 v=63
91942 Par ch=4 c=7 v=62
91955 Par ch=4 c=7 v=61
91968 On ch=4 n=g5 v=0
91968 On ch=4 n=a#5 v=0
91968 Par ch=4 c=7 v=60
91968 On ch=4 n=g#5 v=110
91968 On ch=4 n=b5 v=110
92128 On ch=4 n=g#5 v=0
92128 On ch=4 n=b5 v=0
92160 Par ch=4 c=7 v=75
92160 On ch=4 n=a5 v=110
92160 On ch=4 n=f#5 v=110
92172 Par ch=4 c=7 v=74
92185 Par ch=4 c=7 v=73
92198 Par ch=4 c=7 v=72
92211 Par ch=4 c=7 v=71
92224 Par ch=4 c=7 v=70
92236 Par ch=4 c=7 v=69
92249 Par ch=4 c=7 v=68
92262 Par ch=4 c=7 v=67
92275 Par ch=4 c=7 v=66
92288 Par ch=4 c=7 v=65
92300 Par ch=4 c=7 v=64
92313 Par ch=4 c=7 v=63
92326 Par ch=4 c=7 v=62
92339 Par ch=4 c=7 v=61
92352 On ch=4 n=a5 v=0
92352 Par ch=4 c=7 v=60
92352 On ch=4 n=a#5 v=110
92496 On ch=4 n=f#5 v=0
92512 On ch=4 n=a#5 v=0
92544 Par ch=4 c=7 v=75
92544 On ch=4 n=e6 v=110
92544 On ch=4 n=f#5 v=110
92556 Par ch=4 c=7 v=74
92569 Par ch=4 c=7 v=73
92582 Par ch=4 c=7 v=72
92595 Par ch=4 c=7 v=71
92608 Par ch=4 c=7 v=70
92620 Par ch=4 c=7 v=69
92633 Par ch=4 c=7 v=68
92646 Par ch=4 c=7 v=67
92659 Par ch=4 c=7 v=66
92672 Par ch=4 c=7 v=65
92684 Par ch=4 c=7 v=64
92697 Par ch=4 c=7 v=63
92710 Par ch=4 c=7 v=62
92723 Par ch=4 c=7 v=61
92736 On ch=4 n=f#5 v=0
92736 Par ch=4 c=7 v=60
92736 On ch=4 n=g#5 v=110
92880 On ch=4 n=e6 v=0
92896 On ch=4 n=g#5 v=0
93600 Par ch=4 c=7 v=60
93600 On ch=4 n=a#4 v=110
93600 On ch=4 n=a#5 v=110
93606 Par ch=4 c=7 v=59
93612 Par ch=4 c=7 v=58
93619 Par ch=4 c=7 v=57
93625 Par ch=4 c=7 v=56
93632 Par ch=4 c=7 v=55
93638 Par ch=4 c=7 v=54
93644 Par ch=4 c=7 v=53
93651 Par ch=4 c=7 v=52
93657 Par ch=4 c=7 v=51
93664 Par ch=4 c=7 v=50
93670 Par ch=4 c=7 v=49
93676 Par ch=4 c=7 v=48
93683 Par ch=4 c=7 v=47
93689 Par ch=4 c=7 v=46
93696 On ch=4 n=a#4 v=0
93696 On ch=4 n=a#5 v=0
93696 Par ch=4 c=7 v=45
93696 On ch=4 n=b4 v=110
93696 On ch=4 n=b5 v=110
93702 Par ch=4 c=7 v=44
93708 Par ch=4 c=7 v=43
93715 Par ch=4 c=7 v=42
93721 Par ch=4 c=7 v=41
93728 Par ch=4 c=7 v=40
93734 Par ch=4 c=7 v=39
93740 Par ch=4 c=7 v=38
93747 Par ch=4 c=7 v=37
93753 Par ch=4 c=7 v=36
93760 Par ch=4 c=7 v=35
93766 Par ch=4 c=7 v=34
93772 Par ch=4 c=7 v=33
93779 Par ch=4 c=7 v=32
93785 Par ch=4 c=7 v=31
93792 Par ch=4 c=7 v=30
93952 On ch=4 n=b4 v=0
93952 On ch=4 n=b5 v=0
93984 On ch=4 n=f#4 v=110
93984 On ch=4 n=f#5 v=110
94080 On ch=4 n=f#4 v=0
94080 On ch=4 n=f#5 v=0
94080 On ch=4 n=g#4 v=110
94080 On ch=4 n=g#5 v=110
94336 On ch=4 n=g#4 v=0
94336 On ch=4 n=g#5 v=0
94368 On ch=4 n=a#4 v=110
94464 On ch=4 n=a#4 v=0
94464 On ch=4 n=b4 v=110
94720 On ch=4 n=b4 v=0
94752 On ch=4 n=a#4 v=110
94848 On ch=4 n=a#4 v=0
94848 On ch=4 n=b4 v=110
95104 On ch=4 n=b4 v=0
95232 Par ch=4 c=7 v=45
95616 On ch=4 n=b4 v=110
95808 On ch=4 n=b4 v=0
95808 Par ch=4 c=7 v=45
95808 On ch=4 n=b5 v=110
95811 Par ch=4 c=7 v=46
95814 Par ch=4 c=7 v=47
95817 Par ch=4 c=7 v=48
95820 Par ch=4 c=7 v=49
95823 Par ch=4 c=7 v=50
95826 Par ch=4 c=7 v=51
95829 Par ch=4 c=7 v=52
95832 Par ch=4 c=7 v=53
95835 Par ch=4 c=7 v=54
95838 Par ch=4 c=7 v=55
95841 Par ch=4 c=7 v=56
95844 Par ch=4 c=7 v=57
95847 Par ch=4 c=7 v=58
95850 Par ch=4 c=7 v=59
95853 Par ch=4 c=7 v=60
95856 Par ch=4 c=7 v=61
95859 Par ch=4 c=7 v=62
95862 Par ch=4 c=7 v=63
95865 Par ch=4 c=7 v=64
95868 Par ch=4 c=7 v=65
95872 Par ch=4 c=7 v=66
95875 Par ch=4 c=7 v=67
95878 Par ch=4 c=7 v=68
95881 Par ch=4 c=7 v=69
95884 Par ch=4 c=7 v=70
95887 Par ch=4 c=7 v=71
95890 Par ch=4 c=7 v=72
95893 Par ch=4 c=7 v=73
95896 Par ch=4 c=7 v=74
95899 Par ch=4 c=7 v=75
95902 Par ch=4 c=7 v=76
95905 Par ch=4 c=7 v=77
95908 Par ch=4 c=7 v=78
95911 Par ch=4 c=7 v=79
95914 Par ch=4 c=7 v=80
95917 Par ch=4 c=7 v=81
95920 Par ch=4 c=7 v=82
95923 Par ch=4 c=7 v=83
95926 Par ch=4 c=7 v=84
95929 Par ch=4 c=7 v=85
95932 Par ch=4 c=7 v=86
95936 Par ch=4 c=7 v=87
95939 Par ch=4 c=7 v=88
95942 Par ch=4 c=7 v=89
95945 Par ch=4 c=7 v=90
95948 Par ch=4 c=7 v=91
95951 Par ch=4 c=7 v=92
95954 Par ch=4 c=7 v=93
95957 Par ch=4 c=7 v=94
95960 Par ch=4 c=7 v=95
95963 Par ch=4 c=7 v=96
95966 Par ch=4 c=7 v=97
95969 Par ch=4 c=7 v=98
95972 Par ch=4 c=7 v=99
95975 Par ch=4 c=7 v=100
95978 Par ch=4 c=7 v=101
95981 Par ch=4 c=7 v=102
95984 Par ch=4 c=7 v=103
95987 Par ch=4 c=7 v=104
95990 Par ch=4 c=7 v=105
95993 Par ch=4 c=7 v=106
95996 Par ch=4 c=7 v=107
96000 On ch=4 n=b5 v=0
96000 Par ch=4 c=7 v=108
96000 On ch=4 n=f5 v=110
96000 On ch=4 n=f6 v=110
96094 On ch=4 n=f5 v=0
96094 On ch=4 n=f6 v=0
99072 Par ch=4 c=7 v=75
99456 On ch=4 n=c5 v=110
99456 On ch=4 n=e5 v=110
99550 On ch=4 n=c5 v=0
99550 On ch=4 n=e5 v=0
114048 Par ch=4 c=7 v=45
114624 On ch=4 n=b4 v=110
114816 On ch=4 n=b4 v=0
114816 On ch=4 n=b4 v=110
115200 Par ch=4 c=7 v=45
115225 Par ch=4 c=7 v=46
115251 Par ch=4 c=7 v=47
115276 Par ch=4 c=7 v=48
115302 Par ch=4 c=7 v=49
115328 Par ch=4 c=7 v=50
115353 Par ch=4 c=7 v=51
115379 Par ch=4 c=7 v=52
115404 Par ch=4 c=7 v=53
115430 Par ch=4 c=7 v=54
115456 Par ch=4 c=7 v=55
115481 Par ch=4 c=7 v=56
115507 Par ch=4 c=7 v=57
115532 Par ch=4 c=7 v=58
115558 Par ch=4 c=7 v=59
115584 On ch=4 n=b4 v=0
115584 Par ch=4 c=7 v=60
115584 On ch=4 n=c#5 v=110
115609 Par ch=4 c=7 v=59
115635 Par ch=4 c=7 v=58
115660 Par ch=4 c=7 v=57
115686 Par ch=4 c=7 v=56
115712 Par ch=4 c=7 v=55
115737 Par ch=4 c=7 v=54
115763 Par ch=4 c=7 v=53
115788 Par ch=4 c=7 v=52
115814 Par ch=4 c=7 v=51
115840 Par ch=4 c=7 v=50
115865 Par ch=4 c=7 v=49
115872 On ch=4 n=c#5 v=0
115872 On ch=4 n=b4 v=110
115891 Par ch=4 c=7 v=48
115916 Par ch=4 c=7 v=47
115942 Par ch=4 c=7 v=46
115966 On ch=4 n=b4 v=0
115968 Par ch=4 c=7 v=45
115968 Par ch=4 c=7 v=45
115968 On ch=4 n=b4 v=110
115993 Par ch=4 c=7 v=46
116019 Par ch=4 c=7 v=47
116044 Par ch=4 c=7 v=48
116070 Par ch=4 c=7 v=49
116096 Par ch=4 c=7 v=50
116121 Par ch=4 c=7 v=51
116147 Par ch=4 c=7 v=52
116172 Par ch=4 c=7 v=53
116198 Par ch=4 c=7 v=54
116224 Par ch=4 c=7 v=55
116249 Par ch=4 c=7 v=56
116275 Par ch=4 c=7 v=57
116300 Par ch=4 c=7 v=58
116326 Par ch=4 c=7 v=59
116352 On ch=4 n=b4 v=0
116352 Par ch=4 c=7 v=60
116352 On ch=4 n=c5 v=110
116364 Par ch=4 c=7 v=59
116377 Par ch=4 c=7 v=58
116390 Par ch=4 c=7 v=57
116403 Par ch=4 c=7 v=56
116416 Par ch=4 c=7 v=55
116428 Par ch=4 c=7 v=54
116441 Par ch=4 c=7 v=53
116454 Par ch=4 c=7 v=52
116467 Par ch=4 c=7 v=51
116480 Par ch=4 c=7 v=50
116492 Par ch=4 c=7 v=49
116505 Par ch=4 c=7 v=48
116518 Par ch=4 c=7 v=47
116531 Par ch=4 c=7 v=46
116544 Par ch=4 c=7 v=45
116569 Par ch=4 c=7 v=44
116595 Par ch=4 c=7 v=43
116620 Par ch=4 c=7 v=42
116646 Par ch=4 c=7 v=41
116672 Par ch=4 c=7 v=40
116697 Par ch=4 c=7 v=39
116723 Par ch=4 c=7 v=38
116736 On ch=4 n=c5 v=0
116736 On ch=4 n=b4 v=110
116748 Par ch=4 c=7 v=37
116774 Par ch=4 c=7 v=36
116800 Par ch=4 c=7 v=35
116825 Par ch=4 c=7 v=34
116851 Par ch=4 c=7 v=33
116876 Par ch=4 c=7 v=32
116902 Par ch=4 c=7 v=31
116928 Par ch=4 c=7 v=30
117214 On ch=4 n=b4 v=0
117888 Par ch=4 c=7 v=45
117888 On ch=4 n=e5 v=110
117913 Par ch=4 c=7 v=46
117939 Par ch=4 c=7 v=47
117964 Par ch=4 c=7 v=48
117990 Par ch=4 c=7 v=49
118016 Par ch=4 c=7 v=50
118041 Par ch=4 c=7 v=51
118067 Par ch=4 c=7 v=52
118092 Par ch=4 c=7 v=53
118118 Par ch=4 c=7 v=54
118144 Par ch=4 c=7 v=55
118169 Par ch=4 c=7 v=56
118195 Par ch=4 c=7 v=57
118220 Par ch=4 c=7 v=58
118246 Par ch=4 c=7 v=59
118272 On ch=4 n=e5 v=0
118272 Par ch=4 c=7 v=60
118272 On ch=4 n=f5 v=110
118284 Par ch=4 c=7 v=59
118297 Par ch=4 c=7 v=58
118310 Par ch=4 c=7 v=57
118323 Par ch=4 c=7 v=56
118336 Par ch=4 c=7 v=55
118348 Par ch=4 c=7 v=54
118361 Par ch=4 c=7 v=53
118374 Par ch=4 c=7 v=52
118387 Par ch=4 c=7 v=51
118400 Par ch=4 c=7 v=50
118412 Par ch=4 c=7 v=49
118425 Par ch=4 c=7 v=48
118438 Par ch=4 c=7 v=47
118451 Par ch=4 c=7 v=46
118464 Par ch=4 c=7 v=45
118560 On ch=4 n=f5 v=0
118560 On ch=4 n=e5 v=110
118654 On ch=4 n=e5 v=0
118656 Par ch=4 c=7 v=45
118656 On ch=4 n=e5 v=110
118681 Par ch=4 c=7 v=46
118707 Par ch=4 c=7 v=47
118732 Par ch=4 c=7 v=48
118758 Par ch=4 c=7 v=49
118784 Par ch=4 c=7 v=50
118809 Par ch=4 c=7 v=51
118835 Par ch=4 c=7 v=52
118860 Par ch=4 c=7 v=53
118886 Par ch=4 c=7 v=54
118912 Par ch=4 c=7 v=55
118937 Par ch=4 c=7 v=56
118963 Par ch=4 c=7 v=57
118988 Par ch=4 c=7 v=58
119014 Par ch=4 c=7 v=59
119040 On ch=4 n=e5 v=0
119040 Par ch=4 c=7 v=60
119040 On ch=4 n=a4 v=110
119052 Par ch=4 c=7 v=59
119065 Par ch=4 c=7 v=58
119078 Par ch=4 c=7 v=57
119091 Par ch=4 c=7 v=56
119104 Par ch=4 c=7 v=55
119116 Par ch=4 c=7 v=54
119129 Par ch=4 c=7 v=53
119142 Par ch=4 c=7 v=52
119155 Par ch=4 c=7 v=51
119168 Par ch=4 c=7 v=50
119180 Par ch=4 c=7 v=49
119193 Par ch=4 c=7 v=48
119206 Par ch=4 c=7 v=47
119219 Par ch=4 c=7 v=46
119232 Par ch=4 c=7 v=45
119244 Par ch=4 c=7 v=44
119257 Par ch=4 c=7 v=43
119270 Par ch=4 c=7 v=42
119283 Par ch=4 c=7 v=41
119296 Par ch=4 c=7 v=40
119308 Par ch=4 c=7 v=39
119321 Par ch=4 c=7 v=38
119334 Par ch=4 c=7 v=37
119347 Par ch=4 c=7 v=36
119360 Par ch=4 c=7 v=35
119372 Par ch=4 c=7 v=34
119385 Par ch=4 c=7 v=33
119398 Par ch=4 c=7 v=32
119411 Par ch=4 c=7 v=31
119424 On ch=4 n=a4 v=0
119424 Par ch=4 c=7 v=30
119424 On ch=4 n=g#4 v=110
119902 On ch=4 n=g#4 v=0
120576 Par ch=4 c=7 v=45
120576 On ch=4 n=b4 v=110
120601 Par ch=4 c=7 v=46
120627 Par ch=4 c=7 v=47
120652 Par ch=4 c=7 v=48
120678 Par ch=4 c=7 v=49
120704 Par ch=4 c=7 v=50
120729 Par ch=4 c=7 v=51
120755 Par ch=4 c=7 v=52
120780 Par ch=4 c=7 v=53
120806 Par ch=4 c=7 v=54
120832 Par ch=4 c=7 v=55
120857 Par ch=4 c=7 v=56
120864 On ch=4 n=b4 v=0
120864 On ch=4 n=d#5 v=110
120883 Par ch=4 c=7 v=57
120908 Par ch=4 c=7 v=58
120934 Par ch=4 c=7 v=59
120958 On ch=4 n=d#5 v=0
120960 Par ch=4 c=7 v=60
120960 On ch=4 n=c#5 v=110
120972 Par ch=4 c=7 v=59
120985 Par ch=4 c=7 v=58
120998 Par ch=4 c=7 v=57
121011 Par ch=4 c=7 v=56
121024 Par ch=4 c=7 v=55
121036 Par ch=4 c=7 v=54
121049 Par ch=4 c=7 v=53
121062 Par ch=4 c=7 v=52
121075 Par ch=4 c=7 v=51
121088 Par ch=4 c=7 v=50
121100 Par ch=4 c=7 v=49
121113 Par ch=4 c=7 v=48
121126 Par ch=4 c=7 v=47
121139 Par ch=4 c=7 v=46
121152 Par ch=4 c=7 v=45
121248 On ch=4 n=c#5 v=0
121248 On ch=4 n=b4 v=110
121342 On ch=4 n=b4 v=0
121344 Par ch=4 c=7 v=45
121344 On ch=4 n=b4 v=110
121369 Par ch=4 c=7 v=46
121395 Par ch=4 c=7 v=47
121420 Par ch=4 c=7 v=48
121446 Par ch=4 c=7 v=49
121472 Par ch=4 c=7 v=50
121497 Par ch=4 c=7 v=51
121523 Par ch=4 c=7 v=52
121548 Par ch=4 c=7 v=53
121574 Par ch=4 c=7 v=54
121600 Par ch=4 c=7 v=55
121625 Par ch=4 c=7 v=56
121651 Par ch=4 c=7 v=57
121676 Par ch=4 c=7 v=58
121702 Par ch=4 c=7 v=59
121728 On ch=4 n=b4 v=0
121728 Par ch=4 c=7 v=60
121728 On ch=4 n=f#5 v=110
122016 Par ch=4 c=7 v=61
122304 Par ch=4 c=7 v=62
122400 On ch=4 n=f#5 v=0
122400 On ch=4 n=f5 v=110
122494 On ch=4 n=f5 v=0
122496 On ch=4 n=f#5 v=110
122592 Par ch=4 c=7 v=63
122880 On ch=4 n=f#5 v=0
122880 Par ch=4 c=7 v=64
122880 On ch=4 n=e5 v=110
123168 On ch=4 n=e5 v=0
123168 On ch=4 n=d#5 v=110
123262 On ch=4 n=d#5 v=0
123264 Par ch=4 c=7 v=45
123264 On ch=4 n=e5 v=110
123289 Par ch=4 c=7 v=46
123315 Par ch=4 c=7 v=47
123340 Par ch=4 c=7 v=48
123366 Par ch=4 c=7 v=49
123392 Par ch=4 c=7 v=50
123417 Par ch=4 c=7 v=51
123443 Par ch=4 c=7 v=52
123456 On ch=4 n=e5 v=0
123456 On ch=4 n=d5 v=110
123468 Par ch=4 c=7 v=53
123494 Par ch=4 c=7 v=54
123520 Par ch=4 c=7 v=55
123545 Par ch=4 c=7 v=56
123571 Par ch=4 c=7 v=57
123596 Par ch=4 c=7 v=58
123622 Par ch=4 c=7 v=59
123648 On ch=4 n=d5 v=0
123648 Par ch=4 c=7 v=60
123648 On ch=4 n=c#5 v=110
123724 Par ch=4 c=7 v=59
123801 Par ch=4 c=7 v=58
123878 Par ch=4 c=7 v=57
123955 Par ch=4 c=7 v=56
123984 On ch=4 n=c#5 v=0
124032 Par ch=4 c=7 v=55
124032 On ch=4 n=f#5 v=110
124108 Par ch=4 c=7 v=54
124185 Par ch=4 c=7 v=53
124262 Par ch=4 c=7 v=52
124339 Par ch=4 c=7 v=51
124416 On ch=4 n=f#5 v=0
124416 Par ch=4 c=7 v=50
124416 On ch=4 n=b5 v=110
124492 Par ch=4 c=7 v=49
124569 Par ch=4 c=7 v=48
124646 Par ch=4 c=7 v=47
124702 On ch=4 n=b5 v=0
124723 Par ch=4 c=7 v=46
124800 Par ch=4 c=7 v=45
124800 On ch=4 n=e5 v=110
124842 On ch=4 n=e5 v=0
124864 On ch=4 n=g#5 v=110
124906 On ch=4 n=g#5 v=0
124928 On ch=4 n=b5 v=110
124970 On ch=4 n=b5 v=0
124992 On ch=4 n=e6 v=110
125034 On ch=4 n=e6 v=0
125056 On ch=4 n=g#5 v=110
125098 On ch=4 n=g#5 v=0
125120 On ch=4 n=b5 v=110
125162 On ch=4 n=b5 v=0
125184 Par ch=4 c=7 v=45
125184 On ch=4 n=d#5 v=110
125209 Par ch=4 c=7 v=46
125226 On ch=4 n=d#5 v=0
125235 Par ch=4 c=7 v=47
125248 On ch=4 n=g#5 v=110
125260 Par ch=4 c=7 v=48
125286 Par ch=4 c=7 v=49
125290 On ch=4 n=g#5 v=0
125312 Par ch=4 c=7 v=50
125312 On ch=4 n=b5 v=110
125337 Par ch=4 c=7 v=51
125354 On ch=4 n=b5 v=0
125363 Par ch=4 c=7 v=52
125376 On ch=4 n=d#6 v=110
125388 Par ch=4 c=7 v=53
125414 Par ch=4 c=7 v=54
125418 On ch=4 n=d#6 v=0
125440 Par ch=4 c=7 v=55
125440 On ch=4 n=g#5 v=110
125465 Par ch=4 c=7 v=56
125482 On ch=4 n=g#5 v=0
125491 Par ch=4 c=7 v=57
125504 On ch=4 n=b5 v=110
125516 Par ch=4 c=7 v=58
125542 Par ch=4 c=7 v=59
125546 On ch=4 n=b5 v=0
125568 Par ch=4 c=7 v=60
125568 On ch=4 n=c#5 v=110
125610 On ch=4 n=c#5 v=0
125632 On ch=4 n=g#5 v=110
125674 On ch=4 n=g#5 v=0
125696 On ch=4 n=b5 v=110
125738 On ch=4 n=b5 v=0
125760 On ch=4 n=c#6 v=110
125802 On ch=4 n=c#6 v=0
125824 On ch=4 n=g#5 v=110
125866 On ch=4 n=g#5 v=0
125888 On ch=4 n=b5 v=110
125930 On ch=4 n=b5 v=0
125952 Par ch=4 c=7 v=59
125952 On ch=4 n=c5 v=110
125979 Par ch=4 c=7 v=58
125994 On ch=4 n=c5 v=0
126006 Par ch=4 c=7 v=57
126016 On ch=4 n=e5 v=110
126034 Par ch=4 c=7 v=56
126058 On ch=4 n=e5 v=0
126061 Par ch=4 c=7 v=55
126080 On ch=4 n=a5 v=110
126089 Par ch=4 c=7 v=54
126116 Par ch=4 c=7 v=53
126122 On ch=4 n=a5 v=0
126144 Par ch=4 c=7 v=52
126144 On ch=4 n=c6 v=110
126171 Par ch=4 c=7 v=51
126176 On ch=4 n=c6 v=0
126198 Par ch=4 c=7 v=50
126226 Par ch=4 c=7 v=49
126253 Par ch=4 c=7 v=48
126281 Par ch=4 c=7 v=47
126308 Par ch=4 c=7 v=46
126336 Par ch=4 c=7 v=45
126336 On ch=4 n=b4 v=110
126378 On ch=4 n=b4 v=0
126400 On ch=4 n=e5 v=110
126442 On ch=4 n=e5 v=0
126464 On ch=4 n=g#5 v=110
126506 On ch=4 n=g#5 v=0
126528 On ch=4 n=b5 v=110
126570 On ch=4 n=b5 v=0
126592 On ch=4 n=e5 v=110
126634 On ch=4 n=e5 v=0
126656 On ch=4 n=g#5 v=110
126698 On ch=4 n=g#5 v=0
126720 Par ch=4 c=7 v=45
126720 On ch=4 n=b4 v=110
126745 Par ch=4 c=7 v=46
126762 On ch=4 n=b4 v=0
126771 Par ch=4 c=7 v=47
126784 On ch=4 n=d#5 v=110
126796 Par ch=4 c=7 v=48
126822 Par ch=4 c=7 v=49
126826 On ch=4 n=d#5 v=0
126848 Par ch=4 c=7 v=50
126848 On ch=4 n=g#5 v=110
126873 Par ch=4 c=7 v=51
126890 On ch=4 n=g#5 v=0
126899 Par ch=4 c=7 v=52
126912 On ch=4 n=b5 v=110
126924 Par ch=4 c=7 v=53
126950 Par ch=4 c=7 v=54
126954 On ch=4 n=b5 v=0
126976 Par ch=4 c=7 v=55
126976 On ch=4 n=d#5 v=110
127001 Par ch=4 c=7 v=56
127018 On ch=4 n=d#5 v=0
127027 Par ch=4 c=7 v=57
127040 On ch=4 n=g#5 v=110
127052 Par ch=4 c=7 v=58
127078 Par ch=4 c=7 v=59
127082 On ch=4 n=g#5 v=0
127104 Par ch=4 c=7 v=60
127104 On ch=4 n=b4 v=110
127146 On ch=4 n=b4 v=0
127168 On ch=4 n=c#5 v=110
127210 On ch=4 n=c#5 v=0
127232 On ch=4 n=g#5 v=110
127274 On ch=4 n=g#5 v=0
127296 On ch=4 n=b5 v=110
127338 On ch=4 n=b5 v=0
127360 On ch=4 n=c#5 v=110
127402 On ch=4 n=c#5 v=0
127424 On ch=4 n=g#5 v=110
127466 On ch=4 n=g#5 v=0
127488 Par ch=4 c=7 v=60
127488 On ch=4 n=c5 v=110
127513 Par ch=4 c=7 v=59
127530 On ch=4 n=c5 v=0
127539 Par ch=4 c=7 v=58
127552 On ch=4 n=e5 v=110
127564 Par ch=4 c=7 v=57
127590 Par ch=4 c=7 v=56
127594 On ch=4 n=e5 v=0
127616 Par ch=4 c=7 v=55
127616 On ch=4 n=f#5 v=110
127641 Par ch=4 c=7 v=54
127658 On ch=4 n=f#5 v=0
127667 Par ch=4 c=7 v=53
127680 On ch=4 n=a5 v=110
127692 Par ch=4 c=7 v=52
127712 On ch=4 n=a5 v=0
127718 Par ch=4 c=7 v=51
127744 Par ch=4 c=7 v=50
127769 Par ch=4 c=7 v=49
127795 Par ch=4 c=7 v=48
127820 Par ch=4 c=7 v=47
127846 Par ch=4 c=7 v=46
127872 Par ch=4 c=7 v=45
127872 On ch=4 n=g#4 v=110
127914 On ch=4 n=g#4 v=0
127936 On ch=4 n=c#5 v=110
127978 On ch=4 n=c#5 v=0
128000 On ch=4 n=e5 v=110
128042 On ch=4 n=e5 v=0
128064 On ch=4 n=g#5 v=110
128106 On ch=4 n=g#5 v=0
128128 On ch=4 n=c#5 v=110
128170 On ch=4 n=c#5 v=0
128192 On ch=4 n=e5 v=110
128234 On ch=4 n=e5 v=0
128256 Par ch=4 c=7 v=45
128256 On ch=4 n=a4 v=110
128281 Par ch=4 c=7 v=46
128298 On ch=4 n=a4 v=0
128307 Par ch=4 c=7 v=47
128320 On ch=4 n=c#5 v=110
128332 Par ch=4 c=7 v=48
128358 Par ch=4 c=7 v=49
128362 On ch=4 n=c#5 v=0
128384 Par ch=4 c=7 v=50
128384 On ch=4 n=e5 v=110
128409 Par ch=4 c=7 v=51
128426 On ch=4 n=e5 v=0
128435 Par ch=4 c=7 v=52
128448 On ch=4 n=g5 v=110
128460 Par ch=4 c=7 v=53
128486 Par ch=4 c=7 v=54
128490 On ch=4 n=g5 v=0
128512 Par ch=4 c=7 v=55
128512 On ch=4 n=c#5 v=110
128537 Par ch=4 c=7 v=56
128554 On ch=4 n=c#5 v=0
128563 Par ch=4 c=7 v=57
128576 On ch=4 n=e5 v=110
128588 Par ch=4 c=7 v=58
128614 Par ch=4 c=7 v=59
128618 On ch=4 n=e5 v=0
128640 Par ch=4 c=7 v=60
128640 On ch=4 n=a4 v=110
128682 On ch=4 n=a4 v=0
128704 On ch=4 n=c#5 v=110
128746 On ch=4 n=c#5 v=0
128768 On ch=4 n=e5 v=110
128810 On ch=4 n=e5 v=0
128832 On ch=4 n=f#5 v=110
128874 On ch=4 n=f#5 v=0
128896 On ch=4 n=c#5 v=110
128938 On ch=4 n=c#5 v=0
128960 On ch=4 n=e5 v=110
129002 On ch=4 n=e5 v=0
129024 On ch=4 n=a4 v=110
129066 On ch=4 n=a4 v=0
129088 On ch=4 n=b4 v=110
129130 On ch=4 n=b4 v=0
129152 On ch=4 n=d#5 v=110
129194 On ch=4 n=d#5 v=0
129216 On ch=4 n=f#5 v=110
129248 On ch=4 n=f#5 v=0
129408 Par ch=4 c=7 v=30
129408 On ch=4 n=e5 v=110
129450 On ch=4 n=e5 v=0
129472 On ch=4 n=g#5 v=110
129514 On ch=4 n=g#5 v=0
129536 On ch=4 n=b5 v=110
129578 On ch=4 n=b5 v=0
129600 On ch=4 n=e6 v=110
129642 On ch=4 n=e6 v=0
129664 On ch=4 n=g#5 v=110
129706 On ch=4 n=g#5 v=0
129728 On ch=4 n=b5 v=110
129770 On ch=4 n=b5 v=0
129792 Par ch=4 c=7 v=30
129792 On ch=4 n=e5 v=110
129817 Par ch=4 c=7 v=31
129834 On ch=4 n=e5 v=0
129843 Par ch=4 c=7 v=32
129856 On ch=4 n=g#5 v=110
129868 Par ch=4 c=7 v=33
129894 Par ch=4 c=7 v=34
129898 On ch=4 n=g#5 v=0
129920 Par ch=4 c=7 v=35
129920 On ch=4 n=c#6 v=110
129945 Par ch=4 c=7 v=36
129962 On ch=4 n=c#6 v=0
129971 Par ch=4 c=7 v=37
129984 On ch=4 n=e6 v=110
129996 Par ch=4 c=7 v=38
130022 Par ch=4 c=7 v=39
130026 On ch=4 n=e6 v=0
130048 Par ch=4 c=7 v=40
130048 On ch=4 n=g#5 v=110
130073 Par ch=4 c=7 v=41
130090 On ch=4 n=g#5 v=0
130099 Par ch=4 c=7 v=42
130112 On ch=4 n=c#6 v=110
130124 Par ch=4 c=7 v=43
130150 Par ch=4 c=7 v=44
130154 On ch=4 n=c#6 v=0
130176 Par ch=4 c=7 v=45
130176 On ch=4 n=f#5 v=110
130218 On ch=4 n=f#5 v=0
130240 On ch=4 n=a#5 v=110
130282 On ch=4 n=a#5 v=0
130304 On ch=4 n=c#6 v=110
130346 On ch=4 n=c#6 v=0
130368 On ch=4 n=e6 v=110
130410 On ch=4 n=e6 v=0
130432 On ch=4 n=a#5 v=110
130474 On ch=4 n=a#5 v=0
130496 On ch=4 n=c#6 v=110
130538 On ch=4 n=c#6 v=0
130560 Par ch=4 c=7 v=45
130560 On ch=4 n=g5 v=110
130585 Par ch=4 c=7 v=44
130602 On ch=4 n=g5 v=0
130611 Par ch=4 c=7 v=43
130624 On ch=4 n=a5 v=110
130636 Par ch=4 c=7 v=42
130662 Par ch=4 c=7 v=41
130666 On ch=4 n=a5 v=0
130688 Par ch=4 c=7 v=40
130688 On ch=4 n=c6 v=110
130713 Par ch=4 c=7 v=39
130730 On ch=4 n=c6 v=0
130739 Par ch=4 c=7 v=38
130752 On ch=4 n=d#6 v=110
130764 Par ch=4 c=7 v=37
130790 Par ch=4 c=7 v=36
130794 On ch=4 n=d#6 v=0
130816 Par ch=4 c=7 v=35
130816 On ch=4 n=a5 v=110
130841 Par ch=4 c=7 v=34
130858 On ch=4 n=a5 v=0
130867 Par ch=4 c=7 v=33
130880 On ch=4 n=c6 v=110
130892 Par ch=4 c=7 v=32
130918 Par ch=4 c=7 v=31
130922 On ch=4 n=c6 v=0
130944 Par ch=4 c=7 v=30
130944 On ch=4 n=g#5 v=110
130986 On ch=4 n=g#5 v=0
131008 On ch=4 n=g#5 v=110
131050 On ch=4 n=g#5 v=0
131072 On ch=4 n=b5 v=110
131114 On ch=4 n=b5 v=0
131136 On ch=4 n=e6 v=110
131178 On ch=4 n=e6 v=0
131200 On ch=4 n=g#4 v=110
131200 On ch=4 n=b4 v=110
131242 On ch=4 n=g#4 v=0
131242 On ch=4 n=b4 v=0
131264 On ch=4 n=b4 v=110
131264 On ch=4 n=e5 v=110
131306 On ch=4 n=b4 v=0
131306 On ch=4 n=e5 v=0
131328 On ch=4 n=e4 v=110
131328 On ch=4 n=g#4 v=110
131370 On ch=4 n=e4 v=0
131370 On ch=4 n=g#4 v=0
131392 On ch=4 n=g#4 v=110
131392 On ch=4 n=c#5 v=110
131434 On ch=4 n=g#4 v=0
131434 On ch=4 n=c#5 v=0
131456 On ch=4 n=c#5 v=110
131456 On ch=4 n=e5 v=110
131498 On ch=4 n=c#5 v=0
131498 On ch=4 n=e5 v=0
131520 On ch=4 n=e5 v=110
131520 On ch=4 n=g#5 v=110
131562 On ch=4 n=e5 v=0
131562 On ch=4 n=g#5 v=0
131584 On ch=4 n=g#4 v=110
131584 On ch=4 n=c#5 v=110
131626 On ch=4 n=g#4 v=0
131626 On ch=4 n=c#5 v=0
131648 On ch=4 n=c#5 v=110
131648 On ch=4 n=e5 v=110
131690 On ch=4 n=c#5 v=0
131690 On ch=4 n=e5 v=0
131712 On ch=4 n=f#4 v=110
131712 On ch=4 n=a4 v=110
131754 On ch=4 n=f#4 v=0
131754 On ch=4 n=a4 v=0
131776 On ch=4 n=a4 v=110
131776 On ch=4 n=c5 v=110
131818 On ch=4 n=a4 v=0
131818 On ch=4 n=c5 v=0
131840 On ch=4 n=b4 v=110
131840 On ch=4 n=e5 v=110
131882 On ch=4 n=b4 v=0
131882 On ch=4 n=e5 v=0
131904 On ch=4 n=e5 v=110
131904 On ch=4 n=a5 v=110
131946 On ch=4 n=e5 v=0
131946 On ch=4 n=a5 v=0
131968 On ch=4 n=a4 v=110
131968 On ch=4 n=c5 v=110
132010 On ch=4 n=a4 v=0
132010 On ch=4 n=c5 v=0
132032 On ch=4 n=b4 v=110
132032 On ch=4 n=e5 v=110
132074 On ch=4 n=b4 v=0
132074 On ch=4 n=e5 v=0
132096 On ch=4 n=a4 v=110
132096 On ch=4 n=b4 v=110
132138 On ch=4 n=a4 v=0
132138 On ch=4 n=b4 v=0
132160 On ch=4 n=a4 v=110
132160 On ch=4 n=b4 v=110
132202 On ch=4 n=a4 v=0
132202 On ch=4 n=b4 v=0
132224 On ch=4 n=b4 v=110
132224 On ch=4 n=d#5 v=110
132266 On ch=4 n=b4 v=0
132266 On ch=4 n=d#5 v=0
132288 On ch=4 n=d#5 v=110
132288 On ch=4 n=a5 v=110
132320 On ch=4 n=d#5 v=0
132320 On ch=4 n=a5 v=0
132480 On ch=4 n=g#4 v=110
132480 On ch=4 n=b4 v=110
132522 On ch=4 n=g#4 v=0
132522 On ch=4 n=b4 v=0
132544 On ch=4 n=g#4 v=110
132544 On ch=4 n=b4 v=110
132586 On ch=4 n=g#4 v=0
132586 On ch=4 n=b4 v=0
132608 On ch=4 n=b4 v=110
132608 On ch=4 n=e5 v=110
132650 On ch=4 n=b4 v=0
132650 On ch=4 n=e5 v=0
132672 On ch=4 n=e5 v=110
132672 On ch=4 n=g#5 v=110
132704 On ch=4 n=e5 v=0
132704 On ch=4 n=g#5 v=0
137088 Par ch=4 c=121 v=127
137088 Meta TrkEnd
TrkEnd
MTrk
0 Meta TrkName "Fagotti I - II"
0 Meta 0x21 00
0 Par ch=5 c=121 v=127
0 PrCh ch=5 p=70
0 Par ch=5 c=7 v=30
0 Par ch=5 c=10 v=64
0 Par ch=5 c=91 v=64
768 Par ch=5 c=7 v=30
768 On ch=5 n=a#4 v=110
793 Par ch=5 c=7 v=31
819 Par ch=5 c=7 v=32
844 Par ch=5 c=7 v=33
870 Par ch=5 c=7 v=34
896 Par ch=5 c=7 v=35
921 Par ch=5 c=7 v=36
947 Par ch=5 c=7 v=37
972 Par ch=5 c=7 v=38
998 Par ch=5 c=7 v=39
1024 Par ch=5 c=7 v=40
1049 Par ch=5 c=7 v=41
1075 Par ch=5 c=7 v=42
1100 Par ch=5 c=7 v=43
1126 Par ch=5 c=7 v=44
1152 On ch=5 n=a#4 v=0
1152 Par ch=5 c=7 v=45
1152 On ch=5 n=g#4 v=110
1177 Par ch=5 c=7 v=46
1203 Par ch=5 c=7 v=47
1228 Par ch=5 c=7 v=48
1254 Par ch=5 c=7 v=49
1280 Par ch=5 c=7 v=50
1305 Par ch=5 c=7 v=51
1331 Par ch=5 c=7 v=52
1356 Par ch=5 c=7 v=53
1382 Par ch=5 c=7 v=54
1408 Par ch=5 c=7 v=55
1433 Par ch=5 c=7 v=56
1459 Par ch=5 c=7 v=57
1484 Par ch=5 c=7 v=58
1510 Par ch=5 c=7 v=59
1536 On ch=5 n=g#4 v=0
1536 Par ch=5 c=7 v=60
1536 On ch=5 n=g4 v=110
1536 On ch=5 n=d#4 v=110
1561 Par ch=5 c=7 v=61
1587 Par ch=5 c=7 v=62
1612 Par ch=5 c=7 v=63
1638 Par ch=5 c=7 v=64
1664 Par ch=5 c=7 v=65
1689 Par ch=5 c=7 v=66
1715 Par ch=5 c=7 v=67
1740 Par ch=5 c=7 v=68
1766 Par ch=5 c=7 v=69
1792 Par ch=5 c=7 v=70
1817 Par ch=5 c=7 v=71
1843 Par ch=5 c=7 v=72
1868 Par ch=5 c=7 v=73
1894 Par ch=5 c=7 v=74
1920 On ch=5 n=g4 v=0
1920 On ch=5 n=d#4 v=0
1920 Par ch=5 c=7 v=75
1920 On ch=5 n=d#4 v=110
1920 On ch=5 n=g#3 v=110
1932 Par ch=5 c=7 v=74
1945 Par ch=5 c=7 v=73
1958 Par ch=5 c=7 v=72
1971 Par ch=5 c=7 v=71
1984 Par ch=5 c=7 v=70
1996 Par ch=5 c=7 v=69
2009 Par ch=5 c=7 v=68
2022 Par ch=5 c=7 v=67
2035 Par ch=5 c=7 v=66
2048 Par ch=5 c=7 v=65
2060 Par ch=5 c=7 v=64
2073 Par ch=5 c=7 v=63
2086 Par ch=5 c=7 v=62
2099 Par ch=5 c=7 v=61
2112 On ch=5 n=d#4 v=0
2112 On ch=5 n=g#3 v=0
2112 Par ch=5 c=7 v=60
2112 On ch=5 n=d#4 v=110
2112 On ch=5 n=g#3 v=110
2124 Par ch=5 c=7 v=59
2137 Par ch=5 c=7 v=58
2150 Par ch=5 c=7 v=57
2163 Par ch=5 c=7 v=56
2176 Par ch=5 c=7 v=55
2188 Par ch=5 c=7 v=54
2201 Par ch=5 c=7 v=53
2214 Par ch=5 c=7 v=52
2227 Par ch=5 c=7 v=51
2240 Par ch=5 c=7 v=50
2252 Par ch=5 c=7 v=49
2265 Par ch=5 c=7 v=48
2272 On ch=5 n=d#4 v=0
2278 Par ch=5 c=7 v=47
2291 Par ch=5 c=7 v=46
2304 Par ch=5 c=7 v=45
2304 On ch=5 n=e4 v=110
2398 On ch=5 n=g#3 v=0
2496 On ch=5 n=e4 v=0
2496 On ch=5 n=d#4 v=110
2688 On ch=5 n=d#4 v=0
2688 Par ch=5 c=7 v=45
2688 On ch=5 n=c#4 v=110
2713 Par ch=5 c=7 v=44
2739 Par ch=5 c=7 v=43
2764 Par ch=5 c=7 v=42
2790 Par ch=5 c=7 v=41
2816 Par ch=5 c=7 v=40
2841 Par ch=5 c=7 v=39
2867 Par ch=5 c=7 v=38
2880 On ch=5 n=c#4 v=0
2880 On ch=5 n=c4 v=110
2892 Par ch=5 c=7 v=37
2918 Par ch=5 c=7 v=36
2944 Par ch=5 c=7 v=35
2969 Par ch=5 c=7 v=34
2995 Par ch=5 c=7 v=33
3020 Par ch=5 c=7 v=32
3046 Par ch=5 c=7 v=31
3072 On ch=5 n=c4 v=0
3072 Par ch=5 c=7 v=30
3072 On ch=5 n=b3 v=110
3110 Par ch=5 c=7 v=29
3148 Par ch=5 c=7 v=28
3187 Par ch=5 c=7 v=27
3225 Par ch=5 c=7 v=26
3264 Par ch=5 c=7 v=25
3302 Par ch=5 c=7 v=24
3340 Par ch=5 c=7 v=23
3379 Par ch=5 c=7 v=22
3417 Par ch=5 c=7 v=21
3456 Par ch=5 c=7 v=20
3494 Par ch=5 c=7 v=19
3532 Par ch=5 c=7 v=18
3571 Par ch=5 c=7 v=17
3600 On ch=5 n=b3 v=0
3609 Par ch=5 c=7 v=16
3648 Par ch=5 c=7 v=15
24192 Par ch=5 c=7 v=45
24576 On ch=5 n=g#4 v=110
24576 On ch=5 n=d5 v=110
24960 On ch=5 n=g#4 v=0
24960 On ch=5 n=d5 v=0
24960 On ch=5 n=a4 v=110
24960 On ch=5 n=c#5 v=110
25438 On ch=5 n=a4 v=0
25438 On ch=5 n=c#5 v=0
27264 Par ch=5 c=7 v=60
27264 On ch=5 n=c#5 v=110
27264 On ch=5 n=g#4 v=110
27456 On ch=5 n=c#5 v=0
27456 Par ch=5 c=7 v=45
27456 On ch=5 n=c5 v=110
27648 On ch=5 n=g#4 v=0
27648 On ch=5 n=c5 v=0
27648 On ch=5 n=b4 v=110
27648 On ch=5 n=g#4 v=110
28126 On ch=5 n=b4 v=0
28126 On ch=5 n=g#4 v=0
31488 Par ch=5 c=7 v=30
31872 On ch=5 n=f#4 v=110
31872 On ch=5 n=a#4 v=110
32256 On ch=5 n=f#4 v=0
32256 On ch=5 n=a#4 v=0
32256 On ch=5 n=b4 v=110
32350 On ch=5 n=b4 v=0
38400 Par ch=5 c=7 v=45
38976 On ch=5 n=a5 v=110
39360 On ch=5 n=a5 v=0
39360 On ch=5 n=g#5 v=110
39744 On ch=5 n=g#5 v=0
39744 On ch=5 n=f#5 v=110
39840 On ch=5 n=f#5 v=0
39840 On ch=5 n=g#5 v=110
39934 On ch=5 n=g#5 v=0
39936 On ch=5 n=f#5 v=110
40512 On ch=5 n=f#5 v=0
40512 On ch=5 n=f5 v=110
40704 On ch=5 n=f5 v=0
40704 On ch=5 n=f#5 v=110
41088 On ch=5 n=f#5 v=0
41088 On ch=5 n=f#5 v=110
41248 On ch=5 n=f#5 v=0
42048 On ch=5 n=e5 v=110
42432 On ch=5 n=e5 v=0
42432 On ch=5 n=d#5 v=110
42816 On ch=5 n=d#5 v=0
42816 On ch=5 n=c#5 v=110
42912 On ch=5 n=c#5 v=0
42912 On ch=5 n=d#5 v=110
43006 On ch=5 n=d#5 v=0
43008 On ch=5 n=c#5 v=110
43584 On ch=5 n=c#5 v=0
43584 On ch=5 n=c5 v=110
43776 On ch=5 n=c5 v=0
43776 On ch=5 n=c#5 v=110
44320 On ch=5 n=c#5 v=0
44544 Par ch=5 c=7 v=30
44928 On ch=5 n=g4 v=110
45504 Par ch=5 c=7 v=30
45510 Par ch=5 c=7 v=31
45516 Par ch=5 c=7 v=32
45523 Par ch=5 c=7 v=33
45529 Par ch=5 c=7 v=34
45536 Par ch=5 c=7 v=35
45542 Par ch=5 c=7 v=36
45548 Par ch=5 c=7 v=37
45555 Par ch=5 c=7 v=38
45561 Par ch=5 c=7 v=39
45568 Par ch=5 c=7 v=40
45574 Par ch=5 c=7 v=41
45580 Par ch=5 c=7 v=42
45587 Par ch=5 c=7 v=43
45593 Par ch=5 c=7 v=44
45600 Par ch=5 c=7 v=45
45606 Par ch=5 c=7 v=46
45612 Par ch=5 c=7 v=47
45619 Par ch=5 c=7 v=48
45625 Par ch=5 c=7 v=49
45632 Par ch=5 c=7 v=50
45638 Par ch=5 c=7 v=51
45644 Par ch=5 c=7 v=52
45651 Par ch=5 c=7 v=53
45657 Par ch=5 c=7 v=54
45664 Par ch=5 c=7 v=55
45670 Par ch=5 c=7 v=56
45676 Par ch=5 c=7 v=57
45683 Par ch=5 c=7 v=58
45689 Par ch=5 c=7 v=59
45696 On ch=5 n=g4 v=0
45696 Par ch=5 c=7 v=60
45696 On ch=5 n=g#4 v=110
45708 Par ch=5 c=7 v=59
45721 Par ch=5 c=7 v=58
45734 Par ch=5 c=7 v=57
45747 Par ch=5 c=7 v=56
45760 Par ch=5 c=7 v=55
45772 Par ch=5 c=7 v=54
45785 Par ch=5 c=7 v=53
45798 Par ch=5 c=7 v=52
45811 Par ch=5 c=7 v=51
45824 Par ch=5 c=7 v=50
45836 Par ch=5 c=7 v=49
45849 Par ch=5 c=7 v=48
45862 Par ch=5 c=7 v=47
45875 Par ch=5 c=7 v=46
45888 Par ch=5 c=7 v=45
45982 On ch=5 n=g#4 v=0
46464 On ch=5 n=g4 v=110
47040 Par ch=5 c=7 v=30
47046 Par ch=5 c=7 v=31
47052 Par ch=5 c=7 v=32
47059 Par ch=5 c=7 v=33
47065 Par ch=5 c=7 v=34
47072 Par ch=5 c=7 v=35
47078 Par ch=5 c=7 v=36
47084 Par ch=5 c=7 v=37
47091 Par ch=5 c=7 v=38
47097 Par ch=5 c=7 v=39
47104 Par ch=5 c=7 v=40
47110 Par ch=5 c=7 v=41
47116 Par ch=5 c=7 v=42
47123 Par ch=5 c=7 v=43
47129 Par ch=5 c=7 v=44
47136 Par ch=5 c=7 v=45
47142 Par ch=5 c=7 v=46
47148 Par ch=5 c=7 v=47
47155 Par ch=5 c=7 v=48
47161 Par ch=5 c=7 v=49
47168 Par ch=5 c=7 v=50
47174 Par ch=5 c=7 v=51
47180 Par ch=5 c=7 v=52
47187 Par ch=5 c=7 v=53
47193 Par ch=5 c=7 v=54
47200 Par ch=5 c=7 v=55
47206 Par ch=5 c=7 v=56
47212 Par ch=5 c=7 v=57
47219 Par ch=5 c=7 v=58
47225 Par ch=5 c=7 v=59
47232 On ch=5 n=g4 v=0
47232 Par ch=5 c=7 v=60
47232 On ch=5 n=a4 v=110
47244 Par ch=5 c=7 v=59
47257 Par ch=5 c=7 v=58
47270 Par ch=5 c=7 v=57
47283 Par ch=5 c=7 v=56
47296 Par ch=5 c=7 v=55
47308 Par ch=5 c=7 v=54
47321 Par ch=5 c=7 v=53
47334 Par ch=5 c=7 v=52
47347 Par ch=5 c=7 v=51
47360 Par ch=5 c=7 v=50
47372 Par ch=5 c=7 v=49
47385 Par ch=5 c=7 v=48
47398 Par ch=5 c=7 v=47
47411 Par ch=5 c=7 v=46
47424 Par ch=5 c=7 v=45
47518 On ch=5 n=a4 v=0
48000 On ch=5 n=f4 v=110
48768 On ch=5 n=f4 v=0
48768 On ch=5 n=d5 v=110
49054 On ch=5 n=d5 v=0
49536 On ch=5 n=f4 v=110
50304 On ch=5 n=f4 v=0
50304 On ch=5 n=d5 v=110
50590 On ch=5 n=d5 v=0
50688 On ch=5 n=a3 v=110
50880 Par ch=5 c=7 v=75
51072 Par ch=5 c=7 v=75
51072 On ch=5 n=g4 v=110
51097 Par ch=5 c=7 v=74
51123 Par ch=5 c=7 v=73
51148 Par ch=5 c=7 v=72
51174 Par ch=5 c=7 v=71
51200 Par ch=5 c=7 v=70
51225 Par ch=5 c=7 v=69
51251 Par ch=5 c=7 v=68
51276 Par ch=5 c=7 v=67
51302 Par ch=5 c=7 v=66
51328 Par ch=5 c=7 v=65
51353 Par ch=5 c=7 v=64
51379 Par ch=5 c=7 v=63
51404 Par ch=5 c=7 v=62
51430 Par ch=5 c=7 v=61
51456 On ch=5 n=a3 v=0
51456 On ch=5 n=g4 v=0
51456 Par ch=5 c=7 v=60
51456 On ch=5 n=a4 v=110
51456 On ch=5 n=a3 v=110
51550 On ch=5 n=a4 v=0
51840 Par ch=5 c=7 v=75
51840 On ch=5 n=g4 v=110
51865 Par ch=5 c=7 v=74
51891 Par ch=5 c=7 v=73
51916 Par ch=5 c=7 v=72
51942 Par ch=5 c=7 v=71
51968 Par ch=5 c=7 v=70
51993 Par ch=5 c=7 v=69
52019 Par ch=5 c=7 v=68
52044 Par ch=5 c=7 v=67
52070 Par ch=5 c=7 v=66
52096 Par ch=5 c=7 v=65
52121 Par ch=5 c=7 v=64
52147 Par ch=5 c=7 v=63
52172 Par ch=5 c=7 v=62
52198 Par ch=5 c=7 v=61
52224 On ch=5 n=a3 v=0
52224 On ch=5 n=g4 v=0
52224 Par ch=5 c=7 v=60
52224 Par ch=5 c=7 v=60
52224 On ch=5 n=f4 v=110
52224 On ch=5 n=a3 v=110
52249 Par ch=5 c=7 v=61
52275 Par ch=5 c=7 v=62
52300 Par ch=5 c=7 v=63
52326 Par ch=5 c=7 v=64
52352 Par ch=5 c=7 v=65
52377 Par ch=5 c=7 v=66
52403 Par ch=5 c=7 v=67
52428 Par ch=5 c=7 v=68
52454 Par ch=5 c=7 v=69
52480 Par ch=5 c=7 v=70
52505 Par ch=5 c=7 v=71
52531 Par ch=5 c=7 v=72
52556 Par ch=5 c=7 v=73
52582 Par ch=5 c=7 v=74
52608 On ch=5 n=f4 v=0
52608 Par ch=5 c=7 v=75
52608 On ch=5 n=g4 v=110
52633 Par ch=5 c=7 v=74
52659 Par ch=5 c=7 v=73
52684 Par ch=5 c=7 v=72
52710 Par ch=5 c=7 v=71
52736 Par ch=5 c=7 v=70
52761 Par ch=5 c=7 v=69
52787 Par ch=5 c=7 v=68
52812 Par ch=5 c=7 v=67
52838 Par ch=5 c=7 v=66
52864 Par ch=5 c=7 v=65
52889 Par ch=5 c=7 v=64
52915 Par ch=5 c=7 v=63
52940 Par ch=5 c=7 v=62
52966 Par ch=5 c=7 v=61
52992 On ch=5 n=a3 v=0
52992 On ch=5 n=g4 v=0
52992 Par ch=5 c=7 v=60
52992 On ch=5 n=f4 v=110
52992 On ch=5 n=a3 v=110
53760 On ch=5 n=f4 v=0
53760 On ch=5 n=a3 v=0
53760 Par ch=5 c=7 v=60
53760 On ch=5 n=e4 v=110
53760 On ch=5 n=a3 v=110
53772 Par ch=5 c=7 v=61
53785 Par ch=5 c=7 v=62
53798 Par ch=5 c=7 v=63
53811 Par ch=5 c=7 v=64
53824 Par ch=5 c=7 v=65
53836 Par ch=5 c=7 v=66
53849 Par ch=5 c=7 v=67
53862 Par ch=5 c=7 v=68
53875 Par ch=5 c=7 v=69
53888 Par ch=5 c=7 v=70
53900 Par ch=5 c=7 v=71
53913 Par ch=5 c=7 v=72
53926 Par ch=5 c=7 v=73
53939 Par ch=5 c=7 v=74
53952 On ch=5 n=e4 v=0
53952 Par ch=5 c=7 v=75
53952 On ch=5 n=c#4 v=110
54144 On ch=5 n=a3 v=0
54144 On ch=5 n=c#4 v=0
54144 On ch=5 n=c#5 v=110
54144 On ch=5 n=g3 v=110
54336 On ch=5 n=c#5 v=0
54336 On ch=5 n=b4 v=110
54528 On ch=5 n=g3 v=0
54528 On ch=5 n=b4 v=0
54528 Par ch=5 c=7 v=75
54528 On ch=5 n=f#3 v=110
54528 On ch=5 n=a#4 v=110
54545 Par ch=5 c=7 v=74
54562 Par ch=5 c=7 v=73
54579 Par ch=5 c=7 v=72
54596 Par ch=5 c=7 v=71
54613 Par ch=5 c=7 v=70
54630 Par ch=5 c=7 v=69
54647 Par ch=5 c=7 v=68
54664 Par ch=5 c=7 v=67
54681 Par ch=5 c=7 v=66
54698 Par ch=5 c=7 v=65
54715 Par ch=5 c=7 v=64
54732 Par ch=5 c=7 v=63
54749 Par ch=5 c=7 v=62
54766 Par ch=5 c=7 v=61
54784 Par ch=5 c=7 v=60
54801 Par ch=5 c=7 v=59
54818 Par ch=5 c=7 v=58
54835 Par ch=5 c=7 v=57
54852 Par ch=5 c=7 v=56
54869 Par ch=5 c=7 v=55
54886 Par ch=5 c=7 v=54
54903 Par ch=5 c=7 v=53
54912 On ch=5 n=f#3 v=0
54912 On ch=5 n=a#4 v=0
54912 On ch=5 n=b3 v=110
54912 On ch=5 n=a4 v=110
54920 Par ch=5 c=7 v=52
54937 Par ch=5 c=7 v=51
54954 Par ch=5 c=7 v=50
54971 Par ch=5 c=7 v=49
54988 Par ch=5 c=7 v=48
55005 Par ch=5 c=7 v=47
55022 Par ch=5 c=7 v=46
55040 Par ch=5 c=7 v=45
55057 Par ch=5 c=7 v=44
55074 Par ch=5 c=7 v=43
55091 Par ch=5 c=7 v=42
55108 Par ch=5 c=7 v=41
55125 Par ch=5 c=7 v=40
55142 Par ch=5 c=7 v=39
55159 Par ch=5 c=7 v=38
55176 Par ch=5 c=7 v=37
55193 Par ch=5 c=7 v=36
55210 Par ch=5 c=7 v=35
55227 Par ch=5 c=7 v=34
55244 Par ch=5 c=7 v=33
55261 Par ch=5 c=7 v=32
55278 Par ch=5 c=7 v=31
55296 On ch=5 n=b3 v=0
55296 On ch=5 n=a4 v=0
55296 Par ch=5 c=7 v=30
55296 On ch=5 n=e4 v=110
55296 On ch=5 n=g#4 v=110
55390 On ch=5 n=e4 v=0
55390 On ch=5 n=g#4 v=0
62976 Par ch=5 c=7 v=45
63360 On ch=5 n=f4 v=110
64128 On ch=5 n=f4 v=0
64128 On ch=5 n=f#4 v=110
64414 On ch=5 n=f#4 v=0
64896 On ch=5 n=f4 v=110
65664 On ch=5 n=f4 v=0
65664 On ch=5 n=g4 v=110
65950 On ch=5 n=g4 v=0
66432 On ch=5 n=d#4 v=110
67200 On ch=5 n=d#4 v=0
67200 Par ch=5 c=7 v=45
67200 On ch=5 n=c5 v=110
67212 Par ch=5 c=7 v=44
67225 Par ch=5 c=7 v=43
67238 Par ch=5 c=7 v=42
67251 Par ch=5 c=7 v=41
67264 Par ch=5 c=7 v=40
67276 Par ch=5 c=7 v=39
67289 Par ch=5 c=7 v=38
67302 Par ch=5 c=7 v=37
67315 Par ch=5 c=7 v=36
67328 Par ch=5 c=7 v=35
67340 Par ch=5 c=7 v=34
67353 Par ch=5 c=7 v=33
67366 Par ch=5 c=7 v=32
67379 Par ch=5 c=7 v=31
67392 Par ch=5 c=7 v=30
67486 On ch=5 n=c5 v=0
67968 On ch=5 n=d#4 v=110
68736 On ch=5 n=d#4 v=0
68736 Par ch=5 c=7 v=45
68736 On ch=5 n=c5 v=110
68748 Par ch=5 c=7 v=44
68761 Par ch=5 c=7 v=43
68774 Par ch=5 c=7 v=42
68787 Par ch=5 c=7 v=41
68800 Par ch=5 c=7 v=40
68812 Par ch=5 c=7 v=39
68825 Par ch=5 c=7 v=38
68838 Par ch=5 c=7 v=37
68851 Par ch=5 c=7 v=36
68864 Par ch=5 c=7 v=35
68876 Par ch=5 c=7 v=34
68889 Par ch=5 c=7 v=33
68902 Par ch=5 c=7 v=32
68915 Par ch=5 c=7 v=31
68928 Par ch=5 c=7 v=30
69022 On ch=5 n=c5 v=0
69504 Par ch=5 c=7 v=75
69504 On ch=5 n=f4 v=110
69504 On ch=5 n=f5 v=110
69516 Par ch=5 c=7 v=74
69529 Par ch=5 c=7 v=73
69542 Par ch=5 c=7 v=72
69555 Par ch=5 c=7 v=71
69568 Par ch=5 c=7 v=70
69580 Par ch=5 c=7 v=69
69593 Par ch=5 c=7 v=68
69606 Par ch=5 c=7 v=67
69619 Par ch=5 c=7 v=66
69632 Par ch=5 c=7 v=65
69644 Par ch=5 c=7 v=64
69657 Par ch=5 c=7 v=63
69670 Par ch=5 c=7 v=62
69683 Par ch=5 c=7 v=61
69696 Par ch=5 c=7 v=60
69708 Par ch=5 c=7 v=59
69721 Par ch=5 c=7 v=58
69734 Par ch=5 c=7 v=57
69747 Par ch=5 c=7 v=56
69760 Par ch=5 c=7 v=55
69772 Par ch=5 c=7 v=54
69785 Par ch=5 c=7 v=53
69798 Par ch=5 c=7 v=52
69811 Par ch=5 c=7 v=51
69824 Par ch=5 c=7 v=50
69836 Par ch=5 c=7 v=49
69849 Par ch=5 c=7 v=48
69862 Par ch=5 c=7 v=47
69875 Par ch=5 c=7 v=46
69888 On ch=5 n=f4 v=0
69888 On ch=5 n=f5 v=0
69888 Par ch=5 c=7 v=45
69888 On ch=5 n=g4 v=110
69888 On ch=5 n=g5 v=110
69982 On ch=5 n=g4 v=0
69982 On ch=5 n=g5 v=0
70272 Par ch=5 c=7 v=75
70272 On ch=5 n=f4 v=110
70272 On ch=5 n=f5 v=110
70284 Par ch=5 c=7 v=74
70297 Par ch=5 c=7 v=73
70310 Par ch=5 c=7 v=72
70323 Par ch=5 c=7 v=71
70336 Par ch=5 c=7 v=70
70348 Par ch=5 c=7 v=69
70361 Par ch=5 c=7 v=68
70374 Par ch=5 c=7 v=67
70387 Par ch=5 c=7 v=66
70400 Par ch=5 c=7 v=65
70412 Par ch=5 c=7 v=64
70425 Par ch=5 c=7 v=63
70438 Par ch=5 c=7 v=62
70451 Par ch=5 c=7 v=61
70464 Par ch=5 c=7 v=60
70476 Par ch=5 c=7 v=59
70489 Par ch=5 c=7 v=58
70502 Par ch=5 c=7 v=57
70515 Par ch=5 c=7 v=56
70528 Par ch=5 c=7 v=55
70540 Par ch=5 c=7 v=54
70553 Par ch=5 c=7 v=53
70566 Par ch=5 c=7 v=52
70579 Par ch=5 c=7 v=51
70592 Par ch=5 c=7 v=50
70604 Par ch=5 c=7 v=49
70617 Par ch=5 c=7 v=48
70630 Par ch=5 c=7 v=47
70643 Par ch=5 c=7 v=46
70656 On ch=5 n=f4 v=0
70656 On ch=5 n=f5 v=0
70656 Par ch=5 c=7 v=45
70656 On ch=5 n=d#4 v=110
70656 On ch=5 n=d#5 v=110
70992 On ch=5 n=d#4 v=0
70992 On ch=5 n=d#5 v=0
71040 Par ch=5 c=7 v=75
71040 On ch=5 n=f4 v=110
71040 On ch=5 n=f5 v=110
71052 Par ch=5 c=7 v=74
71065 Par ch=5 c=7 v=73
71078 Par ch=5 c=7 v=72
71091 Par ch=5 c=7 v=71
71104 Par ch=5 c=7 v=70
71116 Par ch=5 c=7 v=69
71129 Par ch=5 c=7 v=68
71142 Par ch=5 c=7 v=67
71155 Par ch=5 c=7 v=66
71168 Par ch=5 c=7 v=65
71180 Par ch=5 c=7 v=64
71193 Par ch=5 c=7 v=63
71206 Par ch=5 c=7 v=62
71219 Par ch=5 c=7 v=61
71232 Par ch=5 c=7 v=60
71244 Par ch=5 c=7 v=59
71257 Par ch=5 c=7 v=58
71270 Par ch=5 c=7 v=57
71283 Par ch=5 c=7 v=56
71296 Par ch=5 c=7 v=55
71308 Par ch=5 c=7 v=54
71321 Par ch=5 c=7 v=53
71334 Par ch=5 c=7 v=52
71347 Par ch=5 c=7 v=51
71360 Par ch=5 c=7 v=50
71372 Par ch=5 c=7 v=49
71385 Par ch=5 c=7 v=48
71398 Par ch=5 c=7 v=47
71411 Par ch=5 c=7 v=46
71424 On ch=5 n=f4 v=0
71424 On ch=5 n=f5 v=0
71424 Par ch=5 c=7 v=45
71424 On ch=5 n=d#4 v=110
71424 On ch=5 n=d#5 v=110
72144 On ch=5 n=d#4 v=0
72144 On ch=5 n=d#5 v=0
72192 Par ch=5 c=7 v=45
72192 On ch=5 n=d4 v=110
72192 On ch=5 n=d5 v=110
72200 Par ch=5 c=7 v=46
72208 Par ch=5 c=7 v=47
72216 Par ch=5 c=7 v=48
72224 Par ch=5 c=7 v=49
72232 Par ch=5 c=7 v=50
72241 Par ch=5 c=7 v=51
72249 Par ch=5 c=7 v=52
72257 Par ch=5 c=7 v=53
72265 Par ch=5 c=7 v=54
72273 Par ch=5 c=7 v=55
72281 Par ch=5 c=7 v=56
72290 Par ch=5 c=7 v=57
72298 Par ch=5 c=7 v=58
72306 Par ch=5 c=7 v=59
72314 Par ch=5 c=7 v=60
72322 Par ch=5 c=7 v=61
72330 Par ch=5 c=7 v=62
72339 Par ch=5 c=7 v=63
72347 Par ch=5 c=7 v=64
72355 Par ch=5 c=7 v=65
72363 Par ch=5 c=7 v=66
72371 Par ch=5 c=7 v=67
72379 Par ch=5 c=7 v=68
72388 Par ch=5 c=7 v=69
72396 Par ch=5 c=7 v=70
72404 Par ch=5 c=7 v=71
72412 Par ch=5 c=7 v=72
72420 Par ch=5 c=7 v=73
72428 Par ch=5 c=7 v=74
72437 Par ch=5 c=7 v=75
72445 Par ch=5 c=7 v=76
72453 Par ch=5 c=7 v=77
72461 Par ch=5 c=7 v=78
72469 Par ch=5 c=7 v=79
72477 Par ch=5 c=7 v=80
72486 Par ch=5 c=7 v=81
72494 Par ch=5 c=7 v=82
72502 Par ch=5 c=7 v=83
72510 Par ch=5 c=7 v=84
72518 Par ch=5 c=7 v=85
72526 Par ch=5 c=7 v=86
72535 Par ch=5 c=7 v=87
72543 Par ch=5 c=7 v=88
72551 Par ch=5 c=7 v=89
72559 Par ch=5 c=7 v=90
72567 Par ch=5 c=7 v=91
72576 On ch=5 n=d4 v=0
72576 On ch=5 n=d5 v=0
72576 Par ch=5 c=7 v=92
72576 On ch=5 n=f4 v=110
72584 Par ch=5 c=7 v=91
72592 Par ch=5 c=7 v=90
72600 Par ch=5 c=7 v=89
72608 Par ch=5 c=7 v=88
72616 Par ch=5 c=7 v=87
72625 Par ch=5 c=7 v=86
72633 Par ch=5 c=7 v=85
72641 Par ch=5 c=7 v=84
72649 Par ch=5 c=7 v=83
72657 Par ch=5 c=7 v=82
72665 Par ch=5 c=7 v=81
72674 Par ch=5 c=7 v=80
72682 Par ch=5 c=7 v=79
72690 Par ch=5 c=7 v=78
72698 Par ch=5 c=7 v=77
72706 Par ch=5 c=7 v=76
72714 Par ch=5 c=7 v=75
72723 Par ch=5 c=7 v=74
72731 Par ch=5 c=7 v=73
72739 Par ch=5 c=7 v=72
72747 Par ch=5 c=7 v=71
72755 Par ch=5 c=7 v=70
72763 Par ch=5 c=7 v=69
72772 Par ch=5 c=7 v=68
72780 Par ch=5 c=7 v=67
72788 Par ch=5 c=7 v=66
72796 Par ch=5 c=7 v=65
72804 Par ch=5 c=7 v=64
72812 Par ch=5 c=7 v=63
72821 Par ch=5 c=7 v=62
72829 Par ch=5 c=7 v=61
72837 Par ch=5 c=7 v=60
72845 Par ch=5 c=7 v=59
72853 Par ch=5 c=7 v=58
72861 Par ch=5 c=7 v=57
72870 Par ch=5 c=7 v=56
72878 Par ch=5 c=7 v=55
72886 Par ch=5 c=7 v=54
72894 Par ch=5 c=7 v=53
72902 Par ch=5 c=7 v=52
72910 Par ch=5 c=7 v=51
72919 Par ch=5 c=7 v=50
72927 Par ch=5 c=7 v=49
72935 Par ch=5 c=7 v=48
72943 Par ch=5 c=7 v=47
72951 Par ch=5 c=7 v=46
72960 On ch=5 n=f4 v=0
72960 Par ch=5 c=7 v=45
72960 On ch=5 n=e4 v=110
73054 On ch=5 n=e4 v=0
82560 Par ch=5 c=7 v=45
82560 On ch=5 n=f#4 v=110
82572 Par ch=5 c=7 v=46
82585 Par ch=5 c=7 v=47
82598 Par ch=5 c=7 v=48
82611 Par ch=5 c=7 v=49
82624 Par ch=5 c=7 v=50
82636 Par ch=5 c=7 v=51
82649 Par ch=5 c=7 v=52
82662 Par ch=5 c=7 v=53
82675 Par ch=5 c=7 v=54
82688 Par ch=5 c=7 v=55
82700 Par ch=5 c=7 v=56
82713 Par ch=5 c=7 v=57
82726 Par ch=5 c=7 v=58
82739 Par ch=5 c=7 v=59
82752 Par ch=5 c=7 v=60
82764 Par ch=5 c=7 v=61
82777 Par ch=5 c=7 v=62
82790 Par ch=5 c=7 v=63
82803 Par ch=5 c=7 v=64
82816 Par ch=5 c=7 v=65
82828 Par ch=5 c=7 v=66
82841 Par ch=5 c=7 v=67
82854 Par ch=5 c=7 v=68
82867 Par ch=5 c=7 v=69
82880 Par ch=5 c=7 v=70
82892 Par ch=5 c=7 v=71
82905 Par ch=5 c=7 v=72
82918 Par ch=5 c=7 v=73
82931 Par ch=5 c=7 v=74
82944 On ch=5 n=f#4 v=0
82944 Par ch=5 c=7 v=75
83184 On ch=5 n=c#4 v=110
83278 On ch=5 n=c#4 v=0
88320 Par ch=5 c=7 v=30
88320 On ch=5 n=e5 v=110
88320 On ch=5 n=g#4 v=110
88704 On ch=5 n=e5 v=0
88704 On ch=5 n=g#4 v=0
88704 On ch=5 n=f5 v=110
88704 On ch=5 n=b4 v=110
88800 On ch=5 n=b4 v=0
88800 On ch=5 n=a4 v=110
88896 On ch=5 n=f5 v=0
88896 On ch=5 n=f#5 v=110
88992 On ch=5 n=a4 v=0
88992 On ch=5 n=f#5 v=0
88992 On ch=5 n=e5 v=110
88992 On ch=5 n=f#4 v=110
89086 On ch=5 n=f#4 v=0
89088 On ch=5 n=e5 v=0
89088 On ch=5 n=d#5 v=110
89088 On ch=5 n=a4 v=110
89182 On ch=5 n=a4 v=0
89184 On ch=5 n=g#4 v=110
89248 On ch=5 n=d#5 v=0
89280 On ch=5 n=e5 v=110
89344 On ch=5 n=g#4 v=0
89376 On ch=5 n=e5 v=0
89376 On ch=5 n=d5 v=110
89376 On ch=5 n=f4 v=110
89472 On ch=5 n=d5 v=0
89472 On ch=5 n=f4 v=0
89472 On ch=5 n=c#5 v=110
89472 On ch=5 n=g#4 v=110
89568 On ch=5 n=g#4 v=0
89568 On ch=5 n=f#4 v=110
89632 On ch=5 n=c#5 v=0
89664 On ch=5 n=c5 v=110
89728 On ch=5 n=f#4 v=0
89760 On ch=5 n=a4 v=110
89854 On ch=5 n=a4 v=0
89856 On ch=5 n=c5 v=0
89856 On ch=5 n=b4 v=110
89856 On ch=5 n=a4 v=110
89952 On ch=5 n=a4 v=0
89952 On ch=5 n=g#4 v=110
90016 On ch=5 n=b4 v=0
90048 On ch=5 n=e5 v=110
90144 On ch=5 n=e5 v=0
90144 On ch=5 n=d#5 v=110
90208 On ch=5 n=g#4 v=0
90238 On ch=5 n=d#5 v=0
90240 On ch=5 n=d5 v=110
90240 On ch=5 n=g#4 v=110
90400 On ch=5 n=g#4 v=0
90432 On ch=5 n=d5 v=0
90432 On ch=5 n=c#5 v=110
90432 On ch=5 n=a4 v=110
90528 On ch=5 n=a4 v=0
90528 On ch=5 n=g#4 v=110
90592 On ch=5 n=c#5 v=0
90622 On ch=5 n=g#4 v=0
90624 On ch=5 n=c5 v=110
90624 On ch=5 n=f#4 v=110
90784 On ch=5 n=f#4 v=0
90816 On ch=5 n=c5 v=0
90816 On ch=5 n=b4 v=110
90816 On ch=5 n=g#4 v=110
90912 On ch=5 n=g#4 v=0
90912 On ch=5 n=f#4 v=110
90976 On ch=5 n=b4 v=0
91006 On ch=5 n=f#4 v=0
91008 On ch=5 n=b4 v=110
91008 On ch=5 n=e4 v=110
91168 On ch=5 n=e4 v=0
91200 On ch=5 n=b4 v=0
91200 On ch=5 n=a4 v=110
91200 On ch=5 n=f#4 v=110
91296 On ch=5 n=f#4 v=0
91296 On ch=5 n=e4 v=110
91360 On ch=5 n=a4 v=0
91390 On ch=5 n=e4 v=0
91392 On ch=5 n=f#4 v=110
91392 On ch=5 n=a4 v=110
91584 On ch=5 n=f#4 v=0
91584 On ch=5 n=a4 v=0
91584 On ch=5 n=g#4 v=110
91584 On ch=5 n=b4 v=110
91744 On ch=5 n=g#4 v=0
91744 On ch=5 n=b4 v=0
95232 Par ch=5 c=7 v=45
95616 On ch=5 n=b3 v=110
95808 On ch=5 n=b3 v=0
95808 Par ch=5 c=7 v=45
95808 On ch=5 n=b4 v=110
95811 Par ch=5 c=7 v=46
95814 Par ch=5 c=7 v=47
95817 Par ch=5 c=7 v=48
95820 Par ch=5 c=7 v=49
95823 Par ch=5 c=7 v=50
95826 Par ch=5 c=7 v=51
95829 Par ch=5 c=7 v=52
95832 Par ch=5 c=7 v=53
95835 Par ch=5 c=7 v=54
95838 Par ch=5 c=7 v=55
95841 Par ch=5 c=7 v=56
95844 Par ch=5 c=7 v=57
95847 Par ch=5 c=7 v=58
95850 Par ch=5 c=7 v=59
95853 Par ch=5 c=7 v=60
95856 Par ch=5 c=7 v=61
95859 Par ch=5 c=7 v=62
95862 Par ch=5 c=7 v=63
95865 Par ch=5 c=7 v=64
95868 Par ch=5 c=7 v=65
95872 Par ch=5 c=7 v=66
95875 Par ch=5 c=7 v=67
95878 Par ch=5 c=7 v=68
95881 Par ch=5 c=7 v=69
95884 Par ch=5 c=7 v=70
95887 Par ch=5 c=7 v=71
95890 Par ch=5 c=7 v=72
95893 Par ch=5 c=7 v=73
95896 Par ch=5 c=7 v=74
95899 Par ch=5 c=7 v=75
95902 Par ch=5 c=7 v=76
95905 Par ch=5 c=7 v=77
95908 Par ch=5 c=7 v=78
95911 Par ch=5 c=7 v=79
95914 Par ch=5 c=7 v=80
95917 Par ch=5 c=7 v=81
95920 Par ch=5 c=7 v=82
95923 Par ch=5 c=7 v=83
95926 Par ch=5 c=7 v=84
95929 Par ch=5 c=7 v=85
95932 Par ch=5 c=7 v=86
95936 Par ch=5 c=7 v=87
95939 Par ch=5 c=7 v=88
95942 Par ch=5 c=7 v=89
95945 Par ch=5 c=7 v=90
95948 Par ch=5 c=7 v=91
95951 Par ch=5 c=7 v=92
95954 Par ch=5 c=7 v=93
95957 Par ch=5 c=7 v=94
95960 Par ch=5 c=7 v=95
95963 Par ch=5 c=7 v=96
95966 Par ch=5 c=7 v=97
95969 Par ch=5 c=7 v=98
95972 Par ch=5 c=7 v=99
95975 Par ch=5 c=7 v=100
95978 Par ch=5 c=7 v=101
95981 Par ch=5 c=7 v=102
95984 Par ch=5 c=7 v=103
95987 Par ch=5 c=7 v=104
95990 Par ch=5 c=7 v=105
95993 Par ch=5 c=7 v=106
95996 Par ch=5 c=7 v=107
96000 On ch=5 n=b4 v=0
96000 Par ch=5 c=7 v=108
96000 On ch=5 n=c5 v=110
96000 On ch=5 n=f5 v=110
96094 On ch=5 n=c5 v=0
96094 On ch=5 n=f5 v=0
99072 Par ch=5 c=7 v=75
99456 On ch=5 n=a3 v=110
99456 On ch=5 n=f#4 v=110
99550 On ch=5 n=a3 v=0
99550 On ch=5 n=f#4 v=0
137088 Par ch=5 c=121 v=127
137088 Meta TrkEnd
TrkEnd
MTrk
0 Meta TrkName "Corni I - II - III - IV in Fa"
0 Meta 0x21 00
0 Par ch=6 c=121 v=127
0 PrCh ch=6 p=60
0 Par ch=6 c=7 v=45
0 Par ch=6 c=10 v=64
0 Par ch=6 c=91 v=127
1536 Par ch=6 c=7 v=45
1536 On ch=6 n=g4 v=110
1536 On ch=6 n=g5 v=110
1548 Par ch=6 c=7 v=46
1561 Par ch=6 c=7 v=47
1574 Par ch=6 c=7 v=48
1587 Par ch=6 c=7 v=49
1600 Par ch=6 c=7 v=50
1612 Par ch=6 c=7 v=51
1625 Par ch=6 c=7 v=52
1638 Par ch=6 c=7 v=53
1651 Par ch=6 c=7 v=54
1664 Par ch=6 c=7 v=55
1676 Par ch=6 c=7 v=56
1689 Par ch=6 c=7 v=57
1702 Par ch=6 c=7 v=58
1715 Par ch=6 c=7 v=59
1728 Par ch=6 c=7 v=60
1740 Par ch=6 c=7 v=61
1753 Par ch=6 c=7 v=62
1766 Par ch=6 c=7 v=63
1779 Par ch=6 c=7 v=64
1792 Par ch=6 c=7 v=65
1804 Par ch=6 c=7 v=66
1817 Par ch=6 c=7 v=67
1830 Par ch=6 c=7 v=68
1843 Par ch=6 c=7 v=69
1856 Par ch=6 c=7 v=70
1868 Par ch=6 c=7 v=71
1881 Par ch=6 c=7 v=72
1894 Par ch=6 c=7 v=73
1907 Par ch=6 c=7 v=74
1920 On ch=6 n=g4 v=0
1920 On ch=6 n=g5 v=0
1920 Par ch=6 c=7 v=75
1920 On ch=6 n=g#4 v=110
1920 On ch=6 n=g#5 v=110
1932 Par ch=6 c=7 v=74
1945 Par ch=6 c=7 v=73
1958 Par ch=6 c=7 v=72
1971 Par ch=6 c=7 v=71
1984 Par ch=6 c=7 v=70
1996 Par ch=6 c=7 v=69
2009 Par ch=6 c=7 v=68
2022 Par ch=6 c=7 v=67
2035 Par ch=6 c=7 v=66
2048 Par ch=6 c=7 v=65
2060 Par ch=6 c=7 v=64
2073 Par ch=6 c=7 v=63
2086 Par ch=6 c=7 v=62
2099 Par ch=6 c=7 v=61
2112 Par ch=6 c=7 v=60
2124 Par ch=6 c=7 v=59
2137 Par ch=6 c=7 v=58
2150 Par ch=6 c=7 v=57
2163 Par ch=6 c=7 v=56
2176 Par ch=6 c=7 v=55
2188 Par ch=6 c=7 v=54
2201 Par ch=6 c=7 v=53
2214 Par ch=6 c=7 v=52
2227 Par ch=6 c=7 v=51
2240 Par ch=6 c=7 v=50
2252 Par ch=6 c=7 v=49
2265 Par ch=6 c=7 v=48
2278 Par ch=6 c=7 v=47
2291 Par ch=6 c=7 v=46
2304 Par ch=6 c=7 v=45
2688 Par ch=6 c=7 v=45
2713 Par ch=6 c=7 v=44
2739 Par ch=6 c=7 v=43
2764 Par ch=6 c=7 v=42
2790 Par ch=6 c=7 v=41
2816 Par ch=6 c=7 v=40
2841 Par ch=6 c=7 v=39
2867 Par ch=6 c=7 v=38
2892 Par ch=6 c=7 v=37
2918 Par ch=6 c=7 v=36
2944 Par ch=6 c=7 v=35
2969 Par ch=6 c=7 v=34
2995 Par ch=6 c=7 v=33
3020 Par ch=6 c=7 v=32
3046 Par ch=6 c=7 v=31
3072 Par ch=6 c=7 v=30
3166 On ch=6 n=g#4 v=0
3166 On ch=6 n=g#5 v=0
18432 Par ch=6 c=7 v=30
18816 On ch=6 n=b4 v=110
18816 On ch=6 n=d#5 v=110
19200 On ch=6 n=b4 v=0
19200 On ch=6 n=d#5 v=0
19200 On ch=6 n=g#4 v=110
19200 On ch=6 n=e5 v=110
19294 On ch=6 n=g#4 v=0
19294 On ch=6 n=e5 v=0
47040 Par ch=6 c=7 v=75
47232 On ch=6 n=g5 v=110
47520 On ch=6 n=g5 v=0
47520 On ch=6 n=f5 v=110
47616 On ch=6 n=f5 v=0
47616 On ch=6 n=a5 v=110
48286 On ch=6 n=a5 v=0
50304 On ch=6 n=a5 v=110
50592 On ch=6 n=a5 v=0
50592 On ch=6 n=g5 v=110
50688 On ch=6 n=g5 v=0
50688 On ch=6 n=a5 v=110
50974 On ch=6 n=a5 v=0
54144 On ch=6 n=b4 v=110
54144 On ch=6 n=c#5 v=110
54144 On ch=6 n=e5 v=110
54528 On ch=6 n=b4 v=0
54528 On ch=6 n=c#5 v=0
54528 On ch=6 n=e5 v=0
54528 Par ch=6 c=7 v=75
54528 On ch=6 n=a#4 v=110
54528 On ch=6 n=e5 v=110
54528 On ch=6 n=f#5 v=110
54545 Par ch=6 c=7 v=74
54562 Par ch=6 c=7 v=73
54579 Par ch=6 c=7 v=72
54596 Par ch=6 c=7 v=71
54613 Par ch=6 c=7 v=70
54630 Par ch=6 c=7 v=69
54647 Par ch=6 c=7 v=68
54664 Par ch=6 c=7 v=67
54681 Par ch=6 c=7 v=66
54698 Par ch=6 c=7 v=65
54715 Par ch=6 c=7 v=64
54732 Par ch=6 c=7 v=63
54749 Par ch=6 c=7 v=62
54766 Par ch=6 c=7 v=61
54784 Par ch=6 c=7 v=60
54801 Par ch=6 c=7 v=59
54818 Par ch=6 c=7 v=58
54835 Par ch=6 c=7 v=57
54852 Par ch=6 c=7 v=56
54869 Par ch=6 c=7 v=55
54886 Par ch=6 c=7 v=54
54903 Par ch=6 c=7 v=53
54912 On ch=6 n=a#4 v=0
54912 On ch=6 n=e5 v=0
54912 On ch=6 n=f#5 v=0
54912 On ch=6 n=a4 v=110
54912 On ch=6 n=d5 v=110
54912 On ch=6 n=f5 v=110
54920 Par ch=6 c=7 v=52
54937 Par ch=6 c=7 v=51
54954 Par ch=6 c=7 v=50
54971 Par ch=6 c=7 v=49
54988 Par ch=6 c=7 v=48
55005 Par ch=6 c=7 v=47
55022 Par ch=6 c=7 v=46
55040 Par ch=6 c=7 v=45
55057 Par ch=6 c=7 v=44
55074 Par ch=6 c=7 v=43
55091 Par ch=6 c=7 v=42
55108 Par ch=6 c=7 v=41
55125 Par ch=6 c=7 v=40
55142 Par ch=6 c=7 v=39
55159 Par ch=6 c=7 v=38
55176 Par ch=6 c=7 v=37
55193 Par ch=6 c=7 v=36
55210 Par ch=6 c=7 v=35
55227 Par ch=6 c=7 v=34
55244 Par ch=6 c=7 v=33
55261 Par ch=6 c=7 v=32
55278 Par ch=6 c=7 v=31
55296 On ch=6 n=a4 v=0
55296 On ch=6 n=d5 v=0
55296 On ch=6 n=f5 v=0
55296 Par ch=6 c=7 v=30
55296 On ch=6 n=g#4 v=110
55296 On ch=6 n=e5 v=110
55390 On ch=6 n=g#4 v=0
55390 On ch=6 n=e5 v=0
63936 Par ch=6 c=7 v=45
63936 On ch=6 n=d5 v=110
63948 Par ch=6 c=7 v=46
63961 Par ch=6 c=7 v=47
63974 Par ch=6 c=7 v=48
63987 Par ch=6 c=7 v=49
64000 Par ch=6 c=7 v=50
64012 Par ch=6 c=7 v=51
64025 Par ch=6 c=7 v=52
64038 Par ch=6 c=7 v=53
64051 Par ch=6 c=7 v=54
64064 Par ch=6 c=7 v=55
64076 Par ch=6 c=7 v=56
64089 Par ch=6 c=7 v=57
64102 Par ch=6 c=7 v=58
64115 Par ch=6 c=7 v=59
64128 On ch=6 n=d5 v=0
64128 Par ch=6 c=7 v=60
64128 On ch=6 n=c5 v=110
64128 On ch=6 n=d#5 v=110
64140 Par ch=6 c=7 v=59
64153 Par ch=6 c=7 v=58
64166 Par ch=6 c=7 v=57
64179 Par ch=6 c=7 v=56
64192 Par ch=6 c=7 v=55
64204 Par ch=6 c=7 v=54
64217 Par ch=6 c=7 v=53
64230 Par ch=6 c=7 v=52
64243 Par ch=6 c=7 v=51
64256 Par ch=6 c=7 v=50
64268 Par ch=6 c=7 v=49
64281 Par ch=6 c=7 v=48
64294 Par ch=6 c=7 v=47
64307 Par ch=6 c=7 v=46
64320 Par ch=6 c=7 v=45
64414 On ch=6 n=c5 v=0
64414 On ch=6 n=d#5 v=0
65472 Par ch=6 c=7 v=45
65472 On ch=6 n=d5 v=110
65484 Par ch=6 c=7 v=46
65497 Par ch=6 c=7 v=47
65510 Par ch=6 c=7 v=48
65523 Par ch=6 c=7 v=49
65536 Par ch=6 c=7 v=50
65548 Par ch=6 c=7 v=51
65561 Par ch=6 c=7 v=52
65574 Par ch=6 c=7 v=53
65587 Par ch=6 c=7 v=54
65600 Par ch=6 c=7 v=55
65612 Par ch=6 c=7 v=56
65625 Par ch=6 c=7 v=57
65638 Par ch=6 c=7 v=58
65651 Par ch=6 c=7 v=59
65664 On ch=6 n=d5 v=0
65664 Par ch=6 c=7 v=60
65664 On ch=6 n=b4 v=110
65664 On ch=6 n=f5 v=110
65676 Par ch=6 c=7 v=59
65689 Par ch=6 c=7 v=58
65702 Par ch=6 c=7 v=57
65715 Par ch=6 c=7 v=56
65728 Par ch=6 c=7 v=55
65740 Par ch=6 c=7 v=54
65753 Par ch=6 c=7 v=53
65766 Par ch=6 c=7 v=52
65779 Par ch=6 c=7 v=51
65792 Par ch=6 c=7 v=50
65804 Par ch=6 c=7 v=49
65817 Par ch=6 c=7 v=48
65830 Par ch=6 c=7 v=47
65843 Par ch=6 c=7 v=46
65856 Par ch=6 c=7 v=45
65950 On ch=6 n=b4 v=0
65950 On ch=6 n=f5 v=0
67008 Par ch=6 c=7 v=45
67008 On ch=6 n=c5 v=110
67020 Par ch=6 c=7 v=46
67033 Par ch=6 c=7 v=47
67046 Par ch=6 c=7 v=48
67059 Par ch=6 c=7 v=49
67072 Par ch=6 c=7 v=50
67084 Par ch=6 c=7 v=51
67097 Par ch=6 c=7 v=52
67110 Par ch=6 c=7 v=53
67123 Par ch=6 c=7 v=54
67136 Par ch=6 c=7 v=55
67148 Par ch=6 c=7 v=56
67161 Par ch=6 c=7 v=57
67174 Par ch=6 c=7 v=58
67187 Par ch=6 c=7 v=59
67200 On ch=6 n=c5 v=0
67200 Par ch=6 c=7 v=60
67200 On ch=6 n=d#5 v=110
67200 On ch=6 n=g5 v=110
67212 Par ch=6 c=7 v=59
67225 Par ch=6 c=7 v=58
67238 Par ch=6 c=7 v=57
67251 Par ch=6 c=7 v=56
67264 Par ch=6 c=7 v=55
67276 Par ch=6 c=7 v=54
67289 Par ch=6 c=7 v=53
67302 Par ch=6 c=7 v=52
67315 Par ch=6 c=7 v=51
67328 Par ch=6 c=7 v=50
67340 Par ch=6 c=7 v=49
67353 Par ch=6 c=7 v=48
67366 Par ch=6 c=7 v=47
67379 Par ch=6 c=7 v=46
67392 Par ch=6 c=7 v=45
67486 On ch=6 n=d#5 v=0
67486 On ch=6 n=g5 v=0
68544 Par ch=6 c=7 v=45
68544 On ch=6 n=c5 v=110
68556 Par ch=6 c=7 v=46
68569 Par ch=6 c=7 v=47
68582 Par ch=6 c=7 v=48
68595 Par ch=6 c=7 v=49
68608 Par ch=6 c=7 v=50
68620 Par ch=6 c=7 v=51
68633 Par ch=6 c=7 v=52
68646 Par ch=6 c=7 v=53
68659 Par ch=6 c=7 v=54
68672 Par ch=6 c=7 v=55
68684 Par ch=6 c=7 v=56
68697 Par ch=6 c=7 v=57
68710 Par ch=6 c=7 v=58
68723 Par ch=6 c=7 v=59
68736 On ch=6 n=c5 v=0
68736 Par ch=6 c=7 v=60
68736 On ch=6 n=d#5 v=110
68736 On ch=6 n=g5 v=110
68748 Par ch=6 c=7 v=59
68761 Par ch=6 c=7 v=58
68774 Par ch=6 c=7 v=57
68787 Par ch=6 c=7 v=56
68800 Par ch=6 c=7 v=55
68812 Par ch=6 c=7 v=54
68825 Par ch=6 c=7 v=53
68838 Par ch=6 c=7 v=52
68851 Par ch=6 c=7 v=51
68864 Par ch=6 c=7 v=50
68876 Par ch=6 c=7 v=49
68889 Par ch=6 c=7 v=48
68902 Par ch=6 c=7 v=47
68915 Par ch=6 c=7 v=46
68928 Par ch=6 c=7 v=45
69022 On ch=6 n=d#5 v=0
69022 On ch=6 n=g5 v=0
72576 Par ch=6 c=7 v=75
72576 On ch=6 n=b4 v=110
72576 On ch=6 n=d5 v=110
72576 On ch=6 n=a5 v=110
72627 Par ch=6 c=7 v=74
72678 Par ch=6 c=7 v=73
72729 Par ch=6 c=7 v=72
72780 Par ch=6 c=7 v=71
72832 Par ch=6 c=7 v=70
72883 Par ch=6 c=7 v=69
72934 Par ch=6 c=7 v=68
72960 On ch=6 n=a5 v=0
72960 On ch=6 n=g#5 v=110
72985 Par ch=6 c=7 v=67
73036 Par ch=6 c=7 v=66
73088 Par ch=6 c=7 v=65
73139 Par ch=6 c=7 v=64
73190 Par ch=6 c=7 v=63
73241 Par ch=6 c=7 v=62
73292 Par ch=6 c=7 v=61
73344 On ch=6 n=b4 v=0
73344 On ch=6 n=d5 v=0
73344 On ch=6 n=g#5 v=0
73344 Par ch=6 c=7 v=60
73344 On ch=6 n=c5 v=110
73344 On ch=6 n=d#5 v=110
73344 On ch=6 n=g5 v=110
73728 On ch=6 n=c5 v=0
73728 On ch=6 n=d#5 v=0
73728 On ch=6 n=g5 v=0
73728 On ch=6 n=a4 v=110
73728 On ch=6 n=d5 v=110
73728 On ch=6 n=f#5 v=110
73822 On ch=6 n=a4 v=0
73822 On ch=6 n=d5 v=0
73822 On ch=6 n=f#5 v=0
82560 Par ch=6 c=7 v=45
82560 On ch=6 n=a4 v=110
82560 On ch=6 n=c#5 v=110
82572 Par ch=6 c=7 v=46
82585 Par ch=6 c=7 v=47
82598 Par ch=6 c=7 v=48
82611 Par ch=6 c=7 v=49
82624 Par ch=6 c=7 v=50
82636 Par ch=6 c=7 v=51
82649 Par ch=6 c=7 v=52
82662 Par ch=6 c=7 v=53
82675 Par ch=6 c=7 v=54
82688 Par ch=6 c=7 v=55
82700 Par ch=6 c=7 v=56
82713 Par ch=6 c=7 v=57
82726 Par ch=6 c=7 v=58
82739 Par ch=6 c=7 v=59
82752 Par ch=6 c=7 v=60
82764 Par ch=6 c=7 v=61
82777 Par ch=6 c=7 v=62
82790 Par ch=6 c=7 v=63
82803 Par ch=6 c=7 v=64
82816 Par ch=6 c=7 v=65
82828 Par ch=6 c=7 v=66
82841 Par ch=6 c=7 v=67
82854 Par ch=6 c=7 v=68
82867 Par ch=6 c=7 v=69
82880 Par ch=6 c=7 v=70
82892 Par ch=6 c=7 v=71
82905 Par ch=6 c=7 v=72
82918 Par ch=6 c=7 v=73
82931 Par ch=6 c=7 v=74
82944 On ch=6 n=a4 v=0
82944 On ch=6 n=c#5 v=0
82944 Par ch=6 c=7 v=75
83184 On ch=6 n=c#4 v=110
83184 On ch=6 n=g#4 v=110
83184 On ch=6 n=c#5 v=110
83184 On ch=6 n=f5 v=110
83712 Par ch=6 c=7 v=75
83718 Par ch=6 c=7 v=74
83724 Par ch=6 c=7 v=73
83731 Par ch=6 c=7 v=72
83737 Par ch=6 c=7 v=71
83744 Par ch=6 c=7 v=70
83750 Par ch=6 c=7 v=69
83756 Par ch=6 c=7 v=68
83763 Par ch=6 c=7 v=67
83769 Par ch=6 c=7 v=66
83776 Par ch=6 c=7 v=65
83782 Par ch=6 c=7 v=64
83788 Par ch=6 c=7 v=63
83795 Par ch=6 c=7 v=62
83801 Par ch=6 c=7 v=61
83808 Par ch=6 c=7 v=60
83814 Par ch=6 c=7 v=59
83820 Par ch=6 c=7 v=58
83827 Par ch=6 c=7 v=57
83833 Par ch=6 c=7 v=56
83840 Par ch=6 c=7 v=55
83846 Par ch=6 c=7 v=54
83852 Par ch=6 c=7 v=53
83859 Par ch=6 c=7 v=52
83865 Par ch=6 c=7 v=51
83872 Par ch=6 c=7 v=50
83878 Par ch=6 c=7 v=49
83884 Par ch=6 c=7 v=48
83891 Par ch=6 c=7 v=47
83897 Par ch=6 c=7 v=46
83904 Par ch=6 c=7 v=45
84432 On ch=6 n=c#4 v=0
84432 On ch=6 n=g#4 v=0
84432 On ch=6 n=c#5 v=0
84432 On ch=6 n=f5 v=0
88320 Par ch=6 c=7 v=30
88320 On ch=6 n=b4 v=110
88704 On ch=6 n=b4 v=0
88704 On ch=6 n=c#5 v=110
88992 On ch=6 n=c#5 v=0
88992 On ch=6 n=c5 v=110
89086 On ch=6 n=c5 v=0
89088 On ch=6 n=b4 v=110
89344 On ch=6 n=b4 v=0
89376 On ch=6 n=b4 v=110
89472 On ch=6 n=b4 v=0
89472 On ch=6 n=a4 v=110
89728 On ch=6 n=a4 v=0
89760 On ch=6 n=a4 v=110
89856 On ch=6 n=a4 v=0
89856 On ch=6 n=e5 v=110
90016 On ch=6 n=e5 v=0
90048 Par ch=6 c=7 v=45
90048 On ch=6 n=g#5 v=110
90144 On ch=6 n=g#5 v=0
90144 On ch=6 n=f#5 v=110
90238 On ch=6 n=f#5 v=0
90240 On ch=6 n=f#5 v=110
90336 On ch=6 n=f#5 v=0
90336 On ch=6 n=f5 v=110
90592 On ch=6 n=f5 v=0
90624 On ch=6 n=e5 v=110
90720 On ch=6 n=e5 v=0
90720 On ch=6 n=d#5 v=110
90976 On ch=6 n=d#5 v=0
91008 On ch=6 n=d#5 v=110
91104 On ch=6 n=d#5 v=0
91104 On ch=6 n=c#5 v=110
91360 On ch=6 n=c#5 v=0
91392 Par ch=6 c=7 v=45
91392 On ch=6 n=c#5 v=110
91488 On ch=6 n=c#5 v=0
91488 On ch=6 n=b4 v=110
91744 On ch=6 n=b4 v=0
91776 Par ch=6 c=7 v=45
91776 On ch=6 n=g4 v=110
91776 On ch=6 n=a#4 v=110
91776 On ch=6 n=e5 v=110
91776 On ch=6 n=c#5 v=110
91788 Par ch=6 c=7 v=44
91801 Par ch=6 c=7 v=43
91814 Par ch=6 c=7 v=42
91827 Par ch=6 c=7 v=41
91840 Par ch=6 c=7 v=40
91852 Par ch=6 c=7 v=39
91865 Par ch=6 c=7 v=38
91878 Par ch=6 c=7 v=37
91891 Par ch=6 c=7 v=36
91904 Par ch=6 c=7 v=35
91916 Par ch=6 c=7 v=34
91929 Par ch=6 c=7 v=33
91942 Par ch=6 c=7 v=32
91955 Par ch=6 c=7 v=31
91968 On ch=6 n=g4 v=0
91968 On ch=6 n=a#4 v=0
91968 On ch=6 n=e5 v=0
91968 Par ch=6 c=7 v=30
91968 On ch=6 n=g#4 v=110
91968 On ch=6 n=b4 v=110
91968 On ch=6 n=f5 v=110
92128 On ch=6 n=g#4 v=0
92128 On ch=6 n=b4 v=0
92128 On ch=6 n=f5 v=0
92160 On ch=6 n=c#5 v=0
92160 Par ch=6 c=7 v=45
92160 On ch=6 n=a4 v=110
92160 On ch=6 n=d#5 v=110
92160 On ch=6 n=g4 v=110
92160 On ch=6 n=c5 v=110
92172 Par ch=6 c=7 v=44
92185 Par ch=6 c=7 v=43
92198 Par ch=6 c=7 v=42
92211 Par ch=6 c=7 v=41
92224 Par ch=6 c=7 v=40
92236 Par ch=6 c=7 v=39
92249 Par ch=6 c=7 v=38
92262 Par ch=6 c=7 v=37
92275 Par ch=6 c=7 v=36
92288 Par ch=6 c=7 v=35
92300 Par ch=6 c=7 v=34
92313 Par ch=6 c=7 v=33
92326 Par ch=6 c=7 v=32
92339 Par ch=6 c=7 v=31
92352 On ch=6 n=a4 v=0
92352 On ch=6 n=d#5 v=0
92352 Par ch=6 c=7 v=30
92352 On ch=6 n=a#4 v=110
92352 On ch=6 n=e5 v=110
92512 On ch=6 n=a#4 v=0
92512 On ch=6 n=e5 v=0
92544 On ch=6 n=g4 v=0
92544 On ch=6 n=c5 v=0
92544 Par ch=6 c=7 v=75
92544 On ch=6 n=g4 v=110
92544 On ch=6 n=g5 v=110
92544 On ch=6 n=b4 v=110
92544 On ch=6 n=e5 v=110
92556 Par ch=6 c=7 v=74
92569 Par ch=6 c=7 v=73
92582 Par ch=6 c=7 v=72
92595 Par ch=6 c=7 v=71
92608 Par ch=6 c=7 v=70
92620 Par ch=6 c=7 v=69
92633 Par ch=6 c=7 v=68
92646 Par ch=6 c=7 v=67
92659 Par ch=6 c=7 v=66
92672 Par ch=6 c=7 v=65
92684 Par ch=6 c=7 v=64
92697 Par ch=6 c=7 v=63
92710 Par ch=6 c=7 v=62
92723 Par ch=6 c=7 v=61
92736 On ch=6 n=g4 v=0
92736 On ch=6 n=g5 v=0
92736 Par ch=6 c=7 v=60
92736 On ch=6 n=g#4 v=110
92736 On ch=6 n=g#5 v=110
92896 On ch=6 n=g#4 v=0
92896 On ch=6 n=g#5 v=0
92928 On ch=6 n=b4 v=0
92928 On ch=6 n=e5 v=0
92928 Par ch=6 c=7 v=60
92928 On ch=6 n=d#5 v=110
92928 On ch=6 n=g#4 v=110
92928 On ch=6 n=b4 v=110
92979 Par ch=6 c=7 v=59
93030 Par ch=6 c=7 v=58
93081 Par ch=6 c=7 v=57
93120 On ch=6 n=d#5 v=0
93120 On ch=6 n=e5 v=110
93132 Par ch=6 c=7 v=56
93184 Par ch=6 c=7 v=55
93235 Par ch=6 c=7 v=54
93264 On ch=6 n=g#4 v=0
93264 On ch=6 n=b4 v=0
93280 On ch=6 n=e5 v=0
93286 Par ch=6 c=7 v=53
93312 On ch=6 n=c5 v=110
93312 On ch=6 n=g#4 v=110
93337 Par ch=6 c=7 v=52
93388 Par ch=6 c=7 v=51
93440 Par ch=6 c=7 v=50
93491 Par ch=6 c=7 v=49
93504 On ch=6 n=c5 v=0
93504 On ch=6 n=c#5 v=110
93542 Par ch=6 c=7 v=48
93593 Par ch=6 c=7 v=47
93644 Par ch=6 c=7 v=46
93648 On ch=6 n=g#4 v=0
93664 On ch=6 n=c#5 v=0
93696 Par ch=6 c=7 v=45
93696 On ch=6 n=e4 v=110
94032 On ch=6 n=e4 v=0
95232 Par ch=6 c=7 v=45
95616 On ch=6 n=b4 v=110
95808 On ch=6 n=b4 v=0
95808 Par ch=6 c=7 v=45
95808 On ch=6 n=b5 v=110
95811 Par ch=6 c=7 v=46
95814 Par ch=6 c=7 v=47
95817 Par ch=6 c=7 v=48
95820 Par ch=6 c=7 v=49
95823 Par ch=6 c=7 v=50
95826 Par ch=6 c=7 v=51
95829 Par ch=6 c=7 v=52
95832 Par ch=6 c=7 v=53
95835 Par ch=6 c=7 v=54
95838 Par ch=6 c=7 v=55
95841 Par ch=6 c=7 v=56
95844 Par ch=6 c=7 v=57
95847 Par ch=6 c=7 v=58
95850 Par ch=6 c=7 v=59
95853 Par ch=6 c=7 v=60
95856 Par ch=6 c=7 v=61
95859 Par ch=6 c=7 v=62
95862 Par ch=6 c=7 v=63
95865 Par ch=6 c=7 v=64
95868 Par ch=6 c=7 v=65
95872 Par ch=6 c=7 v=66
95875 Par ch=6 c=7 v=67
95878 Par ch=6 c=7 v=68
95881 Par ch=6 c=7 v=69
95884 Par ch=6 c=7 v=70
95887 Par ch=6 c=7 v=71
95890 Par ch=6 c=7 v=72
95893 Par ch=6 c=7 v=73
95896 Par ch=6 c=7 v=74
95899 Par ch=6 c=7 v=75
95902 Par ch=6 c=7 v=76
95905 Par ch=6 c=7 v=77
95908 Par ch=6 c=7 v=78
95911 Par ch=6 c=7 v=79
95914 Par ch=6 c=7 v=80
95917 Par ch=6 c=7 v=81
95920 Par ch=6 c=7 v=82
95923 Par ch=6 c=7 v=83
95926 Par ch=6 c=7 v=84
95929 Par ch=6 c=7 v=85
95932 Par ch=6 c=7 v=86
95936 Par ch=6 c=7 v=87
95939 Par ch=6 c=7 v=88
95942 Par ch=6 c=7 v=89
95945 Par ch=6 c=7 v=90
95948 Par ch=6 c=7 v=91
95951 Par ch=6 c=7 v=92
95954 Par ch=6 c=7 v=93
95957 Par ch=6 c=7 v=94
95960 Par ch=6 c=7 v=95
95963 Par ch=6 c=7 v=96
95966 Par ch=6 c=7 v=97
95969 Par ch=6 c=7 v=98
95972 Par ch=6 c=7 v=99
95975 Par ch=6 c=7 v=100
95978 Par ch=6 c=7 v=101
95981 Par ch=6 c=7 v=102
95984 Par ch=6 c=7 v=103
95987 Par ch=6 c=7 v=104
95990 Par ch=6 c=7 v=105
95993 Par ch=6 c=7 v=106
95996 Par ch=6 c=7 v=107
96000 On ch=6 n=b5 v=0
96000 Par ch=6 c=7 v=108
96000 On ch=6 n=f5 v=110
96000 On ch=6 n=c6 v=110
96094 On ch=6 n=f5 v=0
96094 On ch=6 n=c6 v=0
124800 Par ch=6 c=7 v=30
124800 On ch=6 n=g#5 v=110
124800 On ch=6 n=b5 v=110
124800 On ch=6 n=e5 v=110
124876 Par ch=6 c=7 v=31
124953 Par ch=6 c=7 v=32
125030 Par ch=6 c=7 v=33
125107 Par ch=6 c=7 v=34
125184 On ch=6 n=e5 v=0
125184 Par ch=6 c=7 v=35
125184 On ch=6 n=d#5 v=110
125260 Par ch=6 c=7 v=36
125337 Par ch=6 c=7 v=37
125414 Par ch=6 c=7 v=38
125491 Par ch=6 c=7 v=39
125568 On ch=6 n=d#5 v=0
125568 Par ch=6 c=7 v=40
125568 On ch=6 n=c#5 v=110
125644 Par ch=6 c=7 v=41
125721 Par ch=6 c=7 v=42
125798 Par ch=6 c=7 v=43
125875 Par ch=6 c=7 v=44
125952 On ch=6 n=g#5 v=0
125952 On ch=6 n=b5 v=0
125952 On ch=6 n=c#5 v=0
125952 Par ch=6 c=7 v=45
125952 On ch=6 n=f#5 v=110
125952 On ch=6 n=a5 v=110
125952 On ch=6 n=c5 v=110
125977 Par ch=6 c=7 v=44
126003 Par ch=6 c=7 v=43
126028 Par ch=6 c=7 v=42
126054 Par ch=6 c=7 v=41
126080 Par ch=6 c=7 v=40
126105 Par ch=6 c=7 v=39
126131 Par ch=6 c=7 v=38
126156 Par ch=6 c=7 v=37
126182 Par ch=6 c=7 v=36
126208 Par ch=6 c=7 v=35
126233 Par ch=6 c=7 v=34
126259 Par ch=6 c=7 v=33
126284 Par ch=6 c=7 v=32
126310 Par ch=6 c=7 v=31
126336 On ch=6 n=f#5 v=0
126336 On ch=6 n=a5 v=0
126336 On ch=6 n=c5 v=0
126336 Par ch=6 c=7 v=30
126336 On ch=6 n=b4 v=110
126336 On ch=6 n=g#5 v=110
126336 On ch=6 n=e5 v=110
126720 On ch=6 n=e5 v=0
126720 Par ch=6 c=7 v=30
126720 On ch=6 n=d#5 v=110
126745 Par ch=6 c=7 v=31
126771 Par ch=6 c=7 v=32
126796 Par ch=6 c=7 v=33
126822 Par ch=6 c=7 v=34
126848 Par ch=6 c=7 v=35
126873 Par ch=6 c=7 v=36
126899 Par ch=6 c=7 v=37
126924 Par ch=6 c=7 v=38
126950 Par ch=6 c=7 v=39
126976 Par ch=6 c=7 v=40
127001 Par ch=6 c=7 v=41
127027 Par ch=6 c=7 v=42
127052 Par ch=6 c=7 v=43
127078 Par ch=6 c=7 v=44
127104 On ch=6 n=d#5 v=0
127104 Par ch=6 c=7 v=45
127104 On ch=6 n=c#5 v=110
127488 On ch=6 n=b4 v=0
127488 On ch=6 n=g#5 v=0
127488 On ch=6 n=c#5 v=0
127488 Par ch=6 c=7 v=45
127488 On ch=6 n=a4 v=110
127488 On ch=6 n=f#5 v=110
127488 On ch=6 n=c5 v=110
127513 Par ch=6 c=7 v=44
127539 Par ch=6 c=7 v=43
127564 Par ch=6 c=7 v=42
127590 Par ch=6 c=7 v=41
127616 Par ch=6 c=7 v=40
127641 Par ch=6 c=7 v=39
127667 Par ch=6 c=7 v=38
127692 Par ch=6 c=7 v=37
127718 Par ch=6 c=7 v=36
127744 Par ch=6 c=7 v=35
127769 Par ch=6 c=7 v=34
127795 Par ch=6 c=7 v=33
127820 Par ch=6 c=7 v=32
127846 Par ch=6 c=7 v=31
127872 On ch=6 n=a4 v=0
127872 On ch=6 n=f#5 v=0
127872 On ch=6 n=c5 v=0
127872 Par ch=6 c=7 v=30
127872 On ch=6 n=c#5 v=110
127872 On ch=6 n=e5 v=110
127872 On ch=6 n=g#4 v=110
128256 On ch=6 n=g#4 v=0
128256 Par ch=6 c=7 v=30
128256 On ch=6 n=a4 v=110
128281 Par ch=6 c=7 v=31
128307 Par ch=6 c=7 v=32
128332 Par ch=6 c=7 v=33
128358 Par ch=6 c=7 v=34
128384 Par ch=6 c=7 v=35
128409 Par ch=6 c=7 v=36
128435 Par ch=6 c=7 v=37
128460 Par ch=6 c=7 v=38
128486 Par ch=6 c=7 v=39
128512 Par ch=6 c=7 v=40
128537 Par ch=6 c=7 v=41
128563 Par ch=6 c=7 v=42
128588 Par ch=6 c=7 v=43
128614 Par ch=6 c=7 v=44
128640 Par ch=6 c=7 v=45
129024 On ch=6 n=c#5 v=0
129024 On ch=6 n=e5 v=0
129024 Par ch=6 c=7 v=45
129024 On ch=6 n=b4 v=110
129024 On ch=6 n=d#5 v=110
129049 Par ch=6 c=7 v=44
129075 Par ch=6 c=7 v=43
129100 Par ch=6 c=7 v=42
129126 Par ch=6 c=7 v=41
129152 Par ch=6 c=7 v=40
129177 Par ch=6 c=7 v=39
129203 Par ch=6 c=7 v=38
129228 Par ch=6 c=7 v=37
129254 Par ch=6 c=7 v=36
129280 Par ch=6 c=7 v=35
129305 Par ch=6 c=7 v=34
129331 Par ch=6 c=7 v=33
129356 Par ch=6 c=7 v=32
129382 Par ch=6 c=7 v=31
129408 On ch=6 n=a4 v=0
129408 On ch=6 n=b4 v=0
129408 On ch=6 n=d#5 v=0
129408 Par ch=6 c=7 v=30
129408 On ch=6 n=g#4 v=110
129408 On ch=6 n=e5 v=110
129408 On ch=6 n=g#4 v=110
129792 On ch=6 n=g#4 v=0
129792 On ch=6 n=c#5 v=110
130176 On ch=6 n=e5 v=0
130176 On ch=6 n=g#4 v=0
130176 On ch=6 n=c#5 v=0
130176 Par ch=6 c=7 v=30
130176 On ch=6 n=c#5 v=110
130176 On ch=6 n=f#5 v=110
130176 On ch=6 n=a#4 v=110
130201 Par ch=6 c=7 v=31
130227 Par ch=6 c=7 v=32
130252 Par ch=6 c=7 v=33
130278 Par ch=6 c=7 v=34
130304 Par ch=6 c=7 v=35
130329 Par ch=6 c=7 v=36
130355 Par ch=6 c=7 v=37
130380 Par ch=6 c=7 v=38
130406 Par ch=6 c=7 v=39
130432 Par ch=6 c=7 v=40
130457 Par ch=6 c=7 v=41
130483 Par ch=6 c=7 v=42
130508 Par ch=6 c=7 v=43
130534 Par ch=6 c=7 v=44
130560 On ch=6 n=c#5 v=0
130560 On ch=6 n=f#5 v=0
130560 On ch=6 n=a#4 v=0
130560 Par ch=6 c=7 v=45
130560 On ch=6 n=c5 v=110
130560 On ch=6 n=g5 v=110
130560 On ch=6 n=a#4 v=110
130560 On ch=6 n=d#5 v=110
130585 Par ch=6 c=7 v=44
130611 Par ch=6 c=7 v=43
130636 Par ch=6 c=7 v=42
130662 Par ch=6 c=7 v=41
130688 Par ch=6 c=7 v=40
130713 Par ch=6 c=7 v=39
130739 Par ch=6 c=7 v=38
130764 Par ch=6 c=7 v=37
130790 Par ch=6 c=7 v=36
130816 Par ch=6 c=7 v=35
130841 Par ch=6 c=7 v=34
130867 Par ch=6 c=7 v=33
130892 Par ch=6 c=7 v=32
130918 Par ch=6 c=7 v=31
130944 On ch=6 n=c5 v=0
130944 On ch=6 n=g5 v=0
130944 On ch=6 n=a#4 v=0
130944 On ch=6 n=d#5 v=0
130944 Par ch=6 c=7 v=30
130944 On ch=6 n=b4 v=110
130944 On ch=6 n=e5 v=110
130944 On ch=6 n=g#5 v=110
130944 On ch=6 n=g#4 v=110
131328 Par ch=6 c=7 v=30
131353 Par ch=6 c=7 v=31
131379 Par ch=6 c=7 v=32
131404 Par ch=6 c=7 v=33
131422 On ch=6 n=b4 v=0
131422 On ch=6 n=e5 v=0
131422 On ch=6 n=g#5 v=0
131430 Par ch=6 c=7 v=34
131456 Par ch=6 c=7 v=35
131481 Par ch=6 c=7 v=36
131507 Par ch=6 c=7 v=37
131532 Par ch=6 c=7 v=38
131558 Par ch=6 c=7 v=39
131584 Par ch=6 c=7 v=40
131609 Par ch=6 c=7 v=41
131635 Par ch=6 c=7 v=42
131660 Par ch=6 c=7 v=43
131686 Par ch=6 c=7 v=44
131712 On ch=6 n=g#4 v=0
131712 Par ch=6 c=7 v=45
131712 On ch=6 n=a4 v=110
132096 Par ch=6 c=7 v=45
132121 Par ch=6 c=7 v=44
132147 Par ch=6 c=7 v=43
132172 Par ch=6 c=7 v=42
132198 Par ch=6 c=7 v=41
132224 Par ch=6 c=7 v=40
132249 Par ch=6 c=7 v=39
132275 Par ch=6 c=7 v=38
132300 Par ch=6 c=7 v=37
132326 Par ch=6 c=7 v=36
132352 Par ch=6 c=7 v=35
132377 Par ch=6 c=7 v=34
132403 Par ch=6 c=7 v=33
132428 Par ch=6 c=7 v=32
132454 Par ch=6 c=7 v=31
132480 On ch=6 n=a4 v=0
132480 Par ch=6 c=7 v=30
132480 On ch=6 n=g#4 v=110
132958 On ch=6 n=g#4 v=0
137088 Par ch=6 c=121 v=127
137088 Meta TrkEnd
TrkEnd
MTrk
0 Meta TrkName "Trombe I - II in La"
0 Meta 0x21 00
0 Par ch=7 c=121 v=127
0 PrCh ch=7 p=56
0 Par ch=7 c=7 v=45
0 Par ch=7 c=10 v=64
0 Par ch=7 c=91 v=127
95232 Par ch=7 c=7 v=108
96000 On ch=7 n=f5 v=110
96000 On ch=7 n=c6 v=110
96094 On ch=7 n=f5 v=0
96094 On ch=7 n=c6 v=0
137088 Par ch=7 c=121 v=127
137088 Meta TrkEnd
TrkEnd
MTrk
0 Meta TrkName "Tromboni I - II - III"
0 Meta 0x21 00
0 Par ch=8 c=121 v=127
0 PrCh ch=8 p=57
0 Par ch=8 c=7 v=45
0 Par ch=8 c=10 v=64
0 Par ch=8 c=91 v=127
82944 Par ch=8 c=7 v=92
83184 On ch=8 n=f4 v=110
83184 On ch=8 n=c#5 v=110
83712 Par ch=8 c=7 v=92
83716 Par ch=8 c=7 v=91
83720 Par ch=8 c=7 v=90
83724 Par ch=8 c=7 v=89
83728 Par ch=8 c=7 v=88
83732 Par ch=8 c=7 v=87
83736 Par ch=8 c=7 v=86
83740 Par ch=8 c=7 v=85
83744 Par ch=8 c=7 v=84
83748 Par ch=8 c=7 v=83
83752 Par ch=8 c=7 v=82
83756 Par ch=8 c=7 v=81
83761 Par ch=8 c=7 v=80
83765 Par ch=8 c=7 v=79
83769 Par ch=8 c=7 v=78
83773 Par ch=8 c=7 v=77
83777 Par ch=8 c=7 v=76
83781 Par ch=8 c=7 v=75
83785 Par ch=8 c=7 v=74
83789 Par ch=8 c=7 v=73
83793 Par ch=8 c=7 v=72
83797 Par ch=8 c=7 v=71
83801 Par ch=8 c=7 v=70
83805 Par ch=8 c=7 v=69
83810 Par ch=8 c=7 v=68
83814 Par ch=8 c=7 v=67
83818 Par ch=8 c=7 v=66
83822 Par ch=8 c=7 v=65
83826 Par ch=8 c=7 v=64
83830 Par ch=8 c=7 v=63
83834 Par ch=8 c=7 v=62
83838 Par ch=8 c=7 v=61
83842 Par ch=8 c=7 v=60
83846 Par ch=8 c=7 v=59
83850 Par ch=8 c=7 v=58
83854 Par ch=8 c=7 v=57
83859 Par ch=8 c=7 v=56
83863 Par ch=8 c=7 v=55
83867 Par ch=8 c=7 v=54
83871 Par ch=8 c=7 v=53
83875 Par ch=8 c=7 v=52
83879 Par ch=8 c=7 v=51
83883 Par ch=8 c=7 v=50
83887 Par ch=8 c=7 v=49
83891 Par ch=8 c=7 v=48
83895 Par ch=8 c=7 v=47
83899 Par ch=8 c=7 v=46
83904 Par ch=8 c=7 v=45
84432 On ch=8 n=f4 v=0
84432 On ch=8 n=c#5 v=0
95232 Par ch=8 c=7 v=45
95616 On ch=8 n=b4 v=110
95808 Par ch=8 c=7 v=45
95811 Par ch=8 c=7 v=46
95814 Par ch=8 c=7 v=47
95817 Par ch=8 c=7 v=48
95820 Par ch=8 c=7 v=49
95823 Par ch=8 c=7 v=50
95826 Par ch=8 c=7 v=51
95829 Par ch=8 c=7 v=52
95832 Par ch=8 c=7 v=53
95835 Par ch=8 c=7 v=54
95838 Par ch=8 c=7 v=55
95841 Par ch=8 c=7 v=56
95844 Par ch=8 c=7 v=57
95847 Par ch=8 c=7 v=58
95850 Par ch=8 c=7 v=59
95853 Par ch=8 c=7 v=60
95856 Par ch=8 c=7 v=61
95859 Par ch=8 c=7 v=62
95862 Par ch=8 c=7 v=63
95865 Par ch=8 c=7 v=64
95868 Par ch=8 c=7 v=65
95872 Par ch=8 c=7 v=66
95875 Par ch=8 c=7 v=67
95878 Par ch=8 c=7 v=68
95881 Par ch=8 c=7 v=69
95884 Par ch=8 c=7 v=70
95887 Par ch=8 c=7 v=71
95890 Par ch=8 c=7 v=72
95893 Par ch=8 c=7 v=73
95896 Par ch=8 c=7 v=74
95899 Par ch=8 c=7 v=75
95902 Par ch=8 c=7 v=76
95905 Par ch=8 c=7 v=77
95908 Par ch=8 c=7 v=78
95911 Par ch=8 c=7 v=79
95914 Par ch=8 c=7 v=80
95917 Par ch=8 c=7 v=81
95920 Par ch=8 c=7 v=82
95923 Par ch=8 c=7 v=83
95926 Par ch=8 c=7 v=84
95929 Par ch=8 c=7 v=85
95932 Par ch=8 c=7 v=86
95936 Par ch=8 c=7 v=87
95939 Par ch=8 c=7 v=88
95942 Par ch=8 c=7 v=89
95945 Par ch=8 c=7 v=90
95948 Par ch=8 c=7 v=91
95951 Par ch=8 c=7 v=92
95954 Par ch=8 c=7 v=93
95957 Par ch=8 c=7 v=94
95960 Par ch=8 c=7 v=95
95963 Par ch=8 c=7 v=96
95966 Par ch=8 c=7 v=97
95969 Par ch=8 c=7 v=98
95972 Par ch=8 c=7 v=99
95975 Par ch=8 c=7 v=100
95978 Par ch=8 c=7 v=101
95981 Par ch=8 c=7 v=102
95984 Par ch=8 c=7 v=103
95987 Par ch=8 c=7 v=104
95990 Par ch=8 c=7 v=105
95993 Par ch=8 c=7 v=106
95996 Par ch=8 c=7 v=107
96000 On ch=8 n=b4 v=0
96000 Par ch=8 c=7 v=108
96000 On ch=8 n=g5 v=110
96000 On ch=8 n=c6 v=110
96094 On ch=8 n=g5 v=0
96094 On ch=8 n=c6 v=0
137088 Par ch=8 c=121 v=127
137088 Meta TrkEnd
TrkEnd
MTrk
0 Meta TrkName "Tuba"
0 Meta 0x21 00
0 Par ch=9 c=121 v=127
0 PrCh ch=9 p=58
0 Par ch=9 c=7 v=45
0 Par ch=9 c=10 v=64
0 Par ch=9 c=91 v=127
82944 Par ch=9 c=7 v=92
83184 On ch=9 n=c#3 v=110
83184 On ch=9 n=g#3 v=110
83712 Par ch=9 c=7 v=92
83716 Par ch=9 c=7 v=91
83720 Par ch=9 c=7 v=90
83724 Par ch=9 c=7 v=89
83728 Par ch=9 c=7 v=88
83732 Par ch=9 c=7 v=87
83736 Par ch=9 c=7 v=86
83740 Par ch=9 c=7 v=85
83744 Par ch=9 c=7 v=84
83748 Par ch=9 c=7 v=83
83752 Par ch=9 c=7 v=82
83756 Par ch=9 c=7 v=81
83761 Par ch=9 c=7 v=80
83765 Par ch=9 c=7 v=79
83769 Par ch=9 c=7 v=78
83773 Par ch=9 c=7 v=77
83777 Par ch=9 c=7 v=76
83781 Par ch=9 c=7 v=75
83785 Par ch=9 c=7 v=74
83789 Par ch=9 c=7 v=73
83793 Par ch=9 c=7 v=72
83797 Par ch=9 c=7 v=71
83801 Par ch=9 c=7 v=70
83805 Par ch=9 c=7 v=69
83810 Par ch=9 c=7 v=68
83814 Par ch=9 c=7 v=67
83818 Par ch=9 c=7 v=66
83822 Par ch=9 c=7 v=65
83826 Par ch=9 c=7 v=64
83830 Par ch=9 c=7 v=63
83834 Par ch=9 c=7 v=62
83838 Par ch=9 c=7 v=61
83842 Par ch=9 c=7 v=60
83846 Par ch=9 c=7 v=59
83850 Par ch=9 c=7 v=58
83854 Par ch=9 c=7 v=57
83859 Par ch=9 c=7 v=56
83863 Par ch=9 c=7 v=55
83867 Par ch=9 c=7 v=54
83871 Par ch=9 c=7 v=53
83875 Par ch=9 c=7 v=52
83879 Par ch=9 c=7 v=51
83883 Par ch=9 c=7 v=50
83887 Par ch=9 c=7 v=49
83891 Par ch=9 c=7 v=48
83895 Par ch=9 c=7 v=47
83899 Par ch=9 c=7 v=46
83904 Par ch=9 c=7 v=45
84432 On ch=9 n=c#3 v=0
84432 On ch=9 n=g#3 v=0
95232 Par ch=9 c=7 v=108
96000 On ch=9 n=a3 v=110
96000 On ch=9 n=a4 v=110
96094 On ch=9 n=a3 v=0
96094 On ch=9 n=a4 v=0
137088 Par ch=9 c=121 v=127
137088 Meta TrkEnd
TrkEnd
MTrk
0 Meta TrkName "Timpani (Si, Do)"
0 Meta 0x21 00
0 Par ch=11 c=121 v=127
0 PrCh ch=11 p=47
0 Par ch=11 c=7 v=127
0 Par ch=11 c=10 v=64
0 Par ch=11 c=91 v=127
95232 On ch=11 n=b3 v=10
95246 On ch=11 n=b3 v=0
95248 On ch=11 n=b3 v=10
95262 On ch=11 n=b3 v=0
95264 On ch=11 n=b3 v=10
95278 On ch=11 n=b3 v=0
95280 On ch=11 n=b3 v=10
95294 On ch=11 n=b3 v=0
95296 On ch=11 n=b3 v=10
95310 On ch=11 n=b3 v=0
95312 On ch=11 n=b3 v=10
95326 On ch=11 n=b3 v=0
95328 On ch=11 n=b3 v=10
95342 On ch=11 n=b3 v=0
95344 On ch=11 n=b3 v=10
95358 On ch=11 n=b3 v=0
95360 On ch=11 n=b3 v=10
95374 On ch=11 n=b3 v=0
95376 On ch=11 n=b3 v=10
95390 On ch=11 n=b3 v=0
95392 On ch=11 n=b3 v=10
95406 On ch=11 n=b3 v=0
95408 On ch=11 n=b3 v=10
95422 On ch=11 n=b3 v=0
95424 On ch=11 n=b3 v=10
95438 On ch=11 n=b3 v=0
95440 On ch=11 n=b3 v=10
95454 On ch=11 n=b3 v=0
95456 On ch=11 n=b3 v=10
95470 On ch=11 n=b3 v=0
95472 On ch=11 n=b3 v=10
95486 On ch=11 n=b3 v=0
95488 On ch=11 n=b3 v=10
95502 On ch=11 n=b3 v=0
95504 On ch=11 n=b3 v=10
95518 On ch=11 n=b3 v=0
95520 On ch=11 n=b3 v=10
95534 On ch=11 n=b3 v=0
95536 On ch=11 n=b3 v=10
95550 On ch=11 n=b3 v=0
95552 On ch=11 n=b3 v=10
95566 On ch=11 n=b3 v=0
95568 On ch=11 n=b3 v=10
95582 On ch=11 n=b3 v=0
95584 On ch=11 n=b3 v=10
95598 On ch=11 n=b3 v=0
95600 On ch=11 n=b3 v=10
95614 On ch=11 n=b3 v=0
95616 On ch=11 n=b3 v=10
95630 On ch=11 n=b3 v=0
95632 On ch=11 n=b3 v=14
95646 On ch=11 n=b3 v=0
95648 On ch=11 n=b3 v=18
95662 On ch=11 n=b3 v=0
95664 On ch=11 n=b3 v=22
95678 On ch=11 n=b3 v=0
95680 On ch=11 n=b3 v=27
95694 On ch=11 n=b3 v=0
95696 On ch=11 n=b3 v=32
95710 On ch=11 n=b3 v=0
95712 On ch=11 n=b3 v=37
95726 On ch=11 n=b3 v=0
95728 On ch=11 n=b3 v=42
95742 On ch=11 n=b3 v=0
95744 On ch=11 n=b3 v=47
95758 On ch=11 n=b3 v=0
95760 On ch=11 n=b3 v=52
95774 On ch=11 n=b3 v=0
95776 On ch=11 n=b3 v=57
95790 On ch=11 n=b3 v=0
95792 On ch=11 n=b3 v=62
95806 On ch=11 n=b3 v=0
95808 On ch=11 n=b3 v=67
95822 On ch=11 n=b3 v=0
95824 On ch=11 n=b3 v=72
95838 On ch=11 n=b3 v=0
95840 On ch=11 n=b3 v=77
95854 On ch=11 n=b3 v=0
95856 On ch=11 n=b3 v=82
95870 On ch=11 n=b3 v=0
95872 On ch=11 n=b3 v=87
95886 On ch=11 n=b3 v=0
95888 On ch=11 n=b3 v=92
95902 On ch=11 n=b3 v=0
95904 On ch=11 n=b3 v=97
95918 On ch=11 n=b3 v=0
95920 On ch=11 n=b3 v=102
95934 On ch=11 n=b3 v=0
95936 On ch=11 n=b3 v=107
95950 On ch=11 n=b3 v=0
95952 On ch=11 n=b3 v=112
95966 On ch=11 n=b3 v=0
95968 On ch=11 n=b3 v=117
95982 On ch=11 n=b3 v=0
95984 On ch=11 n=b3 v=122
95998 On ch=11 n=b3 v=0
96000 On ch=11 n=c4 v=127
96094 On ch=11 n=c4 v=0
137088 Par ch=11 c=121 v=127
137088 Meta TrkEnd
TrkEnd
MTrk
0 Meta TrkName "Violini I"
0 Meta 0x21 00
0 Par ch=12 c=121 v=127
0 PrCh ch=12 p=50
0 Par ch=12 c=7 v=45
0 Par ch=12 c=10 v=44
0 Par ch=12 c=91 v=127
0 Par ch=12 c=7 v=45
0 On ch=12 n=c5 v=110
384 On ch=12 n=c5 v=0
384 On ch=12 n=d5 v=110
768 On ch=12 n=d5 v=0
768 Par ch=12 c=7 v=45
768 On ch=12 n=d#5 v=110
786 Par ch=12 c=7 v=46
804 Par ch=12 c=7 v=47
822 Par ch=12 c=7 v=48
841 Par ch=12 c=7 v=49
859 Par ch=12 c=7 v=50
877 Par ch=12 c=7 v=51
896 Par ch=12 c=7 v=52
914 Par ch=12 c=7 v=53
932 Par ch=12 c=7 v=54
950 Par ch=12 c=7 v=55
969 Par ch=12 c=7 v=56
987 Par ch=12 c=7 v=57
1005 Par ch=12 c=7 v=58
1024 Par ch=12 c=7 v=59
1042 Par ch=12 c=7 v=60
1060 Par ch=12 c=7 v=61
1078 Par ch=12 c=7 v=62
1097 Par ch=12 c=7 v=63
1115 Par ch=12 c=7 v=64
1133 Par ch=12 c=7 v=65
1152 On ch=12 n=d#5 v=0
1152 Par ch=12 c=7 v=66
1152 On ch=12 n=f5 v=110
1170 Par ch=12 c=7 v=67
1188 Par ch=12 c=7 v=68
1206 Par ch=12 c=7 v=69
1225 Par ch=12 c=7 v=70
1243 Par ch=12 c=7 v=71
1261 Par ch=12 c=7 v=72
1280 Par ch=12 c=7 v=73
1298 Par ch=12 c=7 v=74
1316 Par ch=12 c=7 v=75
1334 Par ch=12 c=7 v=76
1353 Par ch=12 c=7 v=77
1371 Par ch=12 c=7 v=78
1389 Par ch=12 c=7 v=79
1408 Par ch=12 c=7 v=80
1426 Par ch=12 c=7 v=81
1444 Par ch=12 c=7 v=82
1462 Par ch=12 c=7 v=83
1481 Par ch=12 c=7 v=84
1499 Par ch=12 c=7 v=85
1517 Par ch=12 c=7 v=86
1536 On ch=12 n=f5 v=0
1536 Par ch=12 c=7 v=87
1536 On ch=12 n=g5 v=110
1554 Par ch=12 c=7 v=88
1572 Par ch=12 c=7 v=89
1590 Par ch=12 c=7 v=90
1609 Par ch=12 c=7 v=91
1627 Par ch=12 c=7 v=92
1645 Par ch=12 c=7 v=93
1664 Par ch=12 c=7 v=94
1682 Par ch=12 c=7 v=95
1700 Par ch=12 c=7 v=96
1718 Par ch=12 c=7 v=97
1737 Par ch=12 c=7 v=98
1755 Par ch=12 c=7 v=99
1773 Par ch=12 c=7 v=100
1792 Par ch=12 c=7 v=101
1810 Par ch=12 c=7 v=102
1828 Par ch=12 c=7 v=103
1846 Par ch=12 c=7 v=104
1865 Par ch=12 c=7 v=105
1883 Par ch=12 c=7 v=106
1901 Par ch=12 c=7 v=107
1920 On ch=12 n=g5 v=0
1920 Par ch=12 c=7 v=108
1920 On ch=12 n=c5 v=110
1920 On ch=12 n=g#5 v=110
1928 Par ch=12 c=7 v=107
1936 Par ch=12 c=7 v=106
1944 Par ch=12 c=7 v=105
1952 Par ch=12 c=7 v=104
1960 Par ch=12 c=7 v=103
1968 Par ch=12 c=7 v=102
1976 Par ch=12 c=7 v=101
1984 Par ch=12 c=7 v=100
1992 Par ch=12 c=7 v=99
2000 Par ch=12 c=7 v=98
2008 Par ch=12 c=7 v=97
2016 Par ch=12 c=7 v=96
2024 Par ch=12 c=7 v=95
2032 Par ch=12 c=7 v=94
2040 Par ch=12 c=7 v=93
2048 Par ch=12 c=7 v=92
2056 Par ch=12 c=7 v=91
2064 Par ch=12 c=7 v=90
2072 Par ch=12 c=7 v=89
2080 Par ch=12 c=7 v=88
2088 Par ch=12 c=7 v=87
2096 Par ch=12 c=7 v=86
2104 Par ch=12 c=7 v=85
2112 Par ch=12 c=7 v=84
2120 Par ch=12 c=7 v=83
2128 Par ch=12 c=7 v=82
2136 Par ch=12 c=7 v=81
2144 Par ch=12 c=7 v=80
2152 Par ch=12 c=7 v=79
2160 Par ch=12 c=7 v=78
2168 Par ch=12 c=7 v=77
2176 Par ch=12 c=7 v=76
2184 Par ch=12 c=7 v=75
2192 Par ch=12 c=7 v=74
2200 Par ch=12 c=7 v=73
2208 Par ch=12 c=7 v=72
2216 Par ch=12 c=7 v=71
2224 Par ch=12 c=7 v=70
2232 Par ch=12 c=7 v=69
2240 Par ch=12 c=7 v=68
2248 Par ch=12 c=7 v=67
2256 Par ch=12 c=7 v=66
2264 Par ch=12 c=7 v=65
2272 Par ch=12 c=7 v=64
2280 Par ch=12 c=7 v=63
2288 Par ch=12 c=7 v=62
2296 Par ch=12 c=7 v=61
2304 On ch=12 n=c5 v=0
2304 On ch=12 n=g#5 v=0
2304 Par ch=12 c=7 v=60
2304 On ch=12 n=c#5 v=110
2496 On ch=12 n=c#5 v=0
2496 On ch=12 n=d#5 v=110
2688 On ch=12 n=d#5 v=0
2688 Par ch=12 c=7 v=60
2688 On ch=12 n=e5 v=110
2713 Par ch=12 c=7 v=59
2739 Par ch=12 c=7 v=58
2764 Par ch=12 c=7 v=57
2790 Par ch=12 c=7 v=56
2816 Par ch=12 c=7 v=55
2841 Par ch=12 c=7 v=54
2867 Par ch=12 c=7 v=53
2880 On ch=12 n=e5 v=0
2880 On ch=12 n=f#5 v=110
2892 Par ch=12 c=7 v=52
2918 Par ch=12 c=7 v=51
2944 Par ch=12 c=7 v=50
2969 Par ch=12 c=7 v=49
2995 Par ch=12 c=7 v=48
3020 Par ch=12 c=7 v=47
3046 Par ch=12 c=7 v=46
3072 On ch=12 n=f#5 v=0
3072 Par ch=12 c=7 v=45
3072 On ch=12 n=b4 v=110
3072 On ch=12 n=g#5 v=110
3091 Par ch=12 c=7 v=44
3110 Par ch=12 c=7 v=43
3129 Par ch=12 c=7 v=42
3148 Par ch=12 c=7 v=41
3168 Par ch=12 c=7 v=40
3187 Par ch=12 c=7 v=39
3206 Par ch=12 c=7 v=38
3225 Par ch=12 c=7 v=37
3244 Par ch=12 c=7 v=36
3264 Par ch=12 c=7 v=35
3283 Par ch=12 c=7 v=34
3302 Par ch=12 c=7 v=33
3321 Par ch=12 c=7 v=32
3340 Par ch=12 c=7 v=31
3360 Par ch=12 c=7 v=30
3379 Par ch=12 c=7 v=29
3398 Par ch=12 c=7 v=28
3417 Par ch=12 c=7 v=27
3436 Par ch=12 c=7 v=26
3456 Par ch=12 c=7 v=25
3475 Par ch=12 c=7 v=24
3494 Par ch=12 c=7 v=23
3513 Par ch=12 c=7 v=22
3532 Par ch=12 c=7 v=21
3552 Par ch=12 c=7 v=20
3571 Par ch=12 c=7 v=19
3590 Par ch=12 c=7 v=18
3609 Par ch=12 c=7 v=17
3616 On ch=12 n=b4 v=0
3616 On ch=12 n=g#5 v=0
3628 Par ch=12 c=7 v=16
3648 Par ch=12 c=7 v=15
8448 Par ch=12 c=7 v=45
9024 On ch=12 n=d#5 v=110
9024 On ch=12 n=a5 v=110
9216 On ch=12 n=d#5 v=0
9216 On ch=12 n=a5 v=0
9216 On ch=12 n=e5 v=110
9216 On ch=12 n=g#5 v=110
9600 Par ch=12 c=7 v=45
9612 Par ch=12 c=7 v=46
9625 Par ch=12 c=7 v=47
9638 Par ch=12 c=7 v=48
9651 Par ch=12 c=7 v=49
9664 Par ch=12 c=7 v=50
9676 Par ch=12 c=7 v=51
9689 Par ch=12 c=7 v=52
9702 Par ch=12 c=7 v=53
9715 Par ch=12 c=7 v=54
9728 Par ch=12 c=7 v=55
9740 Par ch=12 c=7 v=56
9753 Par ch=12 c=7 v=57
9766 Par ch=12 c=7 v=58
9779 Par ch=12 c=7 v=59
9792 Par ch=12 c=7 v=60
9804 Par ch=12 c=7 v=61
9817 Par ch=12 c=7 v=62
9830 Par ch=12 c=7 v=63
9843 Par ch=12 c=7 v=64
9856 Par ch=12 c=7 v=65
9868 Par ch=12 c=7 v=66
9881 Par ch=12 c=7 v=67
9894 Par ch=12 c=7 v=68
9907 Par ch=12 c=7 v=69
9920 Par ch=12 c=7 v=70
9932 Par ch=12 c=7 v=71
9945 Par ch=12 c=7 v=72
9958 Par ch=12 c=7 v=73
9971 Par ch=12 c=7 v=74
9984 On ch=12 n=e5 v=0
9984 On ch=12 n=g#5 v=0
9984 Par ch=12 c=7 v=75
9984 On ch=12 n=d#5 v=110
9984 On ch=12 n=a5 v=110
9996 Par ch=12 c=7 v=74
10009 Par ch=12 c=7 v=73
10022 Par ch=12 c=7 v=72
10035 Par ch=12 c=7 v=71
10048 Par ch=12 c=7 v=70
10060 Par ch=12 c=7 v=69
10073 Par ch=12 c=7 v=68
10086 Par ch=12 c=7 v=67
10099 Par ch=12 c=7 v=66
10112 Par ch=12 c=7 v=65
10124 Par ch=12 c=7 v=64
10137 Par ch=12 c=7 v=63
10150 Par ch=12 c=7 v=62
10163 Par ch=12 c=7 v=61
10176 Par ch=12 c=7 v=60
10188 Par ch=12 c=7 v=59
10201 Par ch=12 c=7 v=58
10214 Par ch=12 c=7 v=57
10227 Par ch=12 c=7 v=56
10240 Par ch=12 c=7 v=55
10252 Par ch=12 c=7 v=54
10265 Par ch=12 c=7 v=53
10278 Par ch=12 c=7 v=52
10291 Par ch=12 c=7 v=51
10304 Par ch=12 c=7 v=50
10316 Par ch=12 c=7 v=49
10329 Par ch=12 c=7 v=48
10342 Par ch=12 c=7 v=47
10355 Par ch=12 c=7 v=46
10368 On ch=12 n=d#5 v=0
10368 On ch=12 n=a5 v=0
10368 Par ch=12 c=7 v=45
10368 Par ch=12 c=7 v=45
10368 On ch=12 n=e5 v=110
10368 On ch=12 n=g#5 v=110
10380 Par ch=12 c=7 v=46
10393 Par ch=12 c=7 v=47
10406 Par ch=12 c=7 v=48
10419 Par ch=12 c=7 v=49
10432 Par ch=12 c=7 v=50
10444 Par ch=12 c=7 v=51
10457 Par ch=12 c=7 v=52
10470 Par ch=12 c=7 v=53
10483 Par ch=12 c=7 v=54
10496 Par ch=12 c=7 v=55
10508 Par ch=12 c=7 v=56
10521 Par ch=12 c=7 v=57
10534 Par ch=12 c=7 v=58
10547 Par ch=12 c=7 v=59
10560 Par ch=12 c=7 v=60
10572 Par ch=12 c=7 v=61
10585 Par ch=12 c=7 v=62
10598 Par ch=12 c=7 v=63
10611 Par ch=12 c=7 v=64
10624 Par ch=12 c=7 v=65
10636 Par ch=12 c=7 v=66
10649 Par ch=12 c=7 v=67
10662 Par ch=12 c=7 v=68
10675 Par ch=12 c=7 v=69
10688 Par ch=12 c=7 v=70
10700 Par ch=12 c=7 v=71
10713 Par ch=12 c=7 v=72
10726 Par ch=12 c=7 v=73
10739 Par ch=12 c=7 v=74
10752 On ch=12 n=e5 v=0
10752 Par ch=12 c=7 v=75
10752 On ch=12 n=f#5 v=110
10764 Par ch=12 c=7 v=74
10777 Par ch=12 c=7 v=73
10790 Par ch=12 c=7 v=72
10803 Par ch=12 c=7 v=71
10816 Par ch=12 c=7 v=70
10828 Par ch=12 c=7 v=69
10841 Par ch=12 c=7 v=68
10854 Par ch=12 c=7 v=67
10867 Par ch=12 c=7 v=66
10880 Par ch=12 c=7 v=65
10892 Par ch=12 c=7 v=64
10905 Par ch=12 c=7 v=63
10918 Par ch=12 c=7 v=62
10931 Par ch=12 c=7 v=61
10944 Par ch=12 c=7 v=60
10956 Par ch=12 c=7 v=59
10969 Par ch=12 c=7 v=58
10982 Par ch=12 c=7 v=57
10995 Par ch=12 c=7 v=56
11008 Par ch=12 c=7 v=55
11020 Par ch=12 c=7 v=54
11033 Par ch=12 c=7 v=53
11046 Par ch=12 c=7 v=52
11059 Par ch=12 c=7 v=51
11072 Par ch=12 c=7 v=50
11084 Par ch=12 c=7 v=49
11097 Par ch=12 c=7 v=48
11110 Par ch=12 c=7 v=47
11123 Par ch=12 c=7 v=46
11136 On ch=12 n=g#5 v=0
11136 On ch=12 n=f#5 v=0
11136 Par ch=12 c=7 v=45
11136 On ch=12 n=e5 v=110
11136 On ch=12 n=g#5 v=110
11614 On ch=12 n=e5 v=0
11614 On ch=12 n=g#5 v=0
12288 Par ch=12 c=7 v=45
12288 On ch=12 n=c#5 v=110
12288 On ch=12 n=a5 v=110
12300 Par ch=12 c=7 v=46
12313 Par ch=12 c=7 v=47
12326 Par ch=12 c=7 v=48
12339 Par ch=12 c=7 v=49
12352 Par ch=12 c=7 v=50
12364 Par ch=12 c=7 v=51
12377 Par ch=12 c=7 v=52
12390 Par ch=12 c=7 v=53
12403 Par ch=12 c=7 v=54
12416 Par ch=12 c=7 v=55
12428 Par ch=12 c=7 v=56
12441 Par ch=12 c=7 v=57
12454 Par ch=12 c=7 v=58
12467 Par ch=12 c=7 v=59
12480 Par ch=12 c=7 v=60
12492 Par ch=12 c=7 v=61
12505 Par ch=12 c=7 v=62
12518 Par ch=12 c=7 v=63
12531 Par ch=12 c=7 v=64
12544 Par ch=12 c=7 v=65
12556 Par ch=12 c=7 v=66
12569 Par ch=12 c=7 v=67
12582 Par ch=12 c=7 v=68
12595 Par ch=12 c=7 v=69
12608 Par ch=12 c=7 v=70
12620 Par ch=12 c=7 v=71
12633 Par ch=12 c=7 v=72
12646 Par ch=12 c=7 v=73
12659 Par ch=12 c=7 v=74
12672 On ch=12 n=c#5 v=0
12672 On ch=12 n=a5 v=0
12672 Par ch=12 c=7 v=75
12672 On ch=12 n=d5 v=110
12672 On ch=12 n=g#5 v=110
12684 Par ch=12 c=7 v=74
12697 Par ch=12 c=7 v=73
12710 Par ch=12 c=7 v=72
12723 Par ch=12 c=7 v=71
12736 Par ch=12 c=7 v=70
12748 Par ch=12 c=7 v=69
12761 Par ch=12 c=7 v=68
12774 Par ch=12 c=7 v=67
12787 Par ch=12 c=7 v=66
12800 Par ch=12 c=7 v=65
12812 Par ch=12 c=7 v=64
12825 Par ch=12 c=7 v=63
12838 Par ch=12 c=7 v=62
12851 Par ch=12 c=7 v=61
12864 Par ch=12 c=7 v=60
12876 Par ch=12 c=7 v=59
12889 Par ch=12 c=7 v=58
12902 Par ch=12 c=7 v=57
12915 Par ch=12 c=7 v=56
12928 Par ch=12 c=7 v=55
12940 Par ch=12 c=7 v=54
12953 Par ch=12 c=7 v=53
12966 Par ch=12 c=7 v=52
12979 Par ch=12 c=7 v=51
12992 Par ch=12 c=7 v=50
13004 Par ch=12 c=7 v=49
13017 Par ch=12 c=7 v=48
13030 Par ch=12 c=7 v=47
13043 Par ch=12 c=7 v=46
13056 On ch=12 n=d5 v=0
13056 On ch=12 n=g#5 v=0
13056 Par ch=12 c=7 v=45
13056 Par ch=12 c=7 v=45
13056 On ch=12 n=c#5 v=110
13056 On ch=12 n=a5 v=110
13068 Par ch=12 c=7 v=46
13081 Par ch=12 c=7 v=47
13094 Par ch=12 c=7 v=48
13107 Par ch=12 c=7 v=49
13120 Par ch=12 c=7 v=50
13132 Par ch=12 c=7 v=51
13145 Par ch=12 c=7 v=52
13158 Par ch=12 c=7 v=53
13171 Par ch=12 c=7 v=54
13184 Par ch=12 c=7 v=55
13196 Par ch=12 c=7 v=56
13209 Par ch=12 c=7 v=57
13222 Par ch=12 c=7 v=58
13235 Par ch=12 c=7 v=59
13248 Par ch=12 c=7 v=60
13260 Par ch=12 c=7 v=61
13273 Par ch=12 c=7 v=62
13286 Par ch=12 c=7 v=63
13299 Par ch=12 c=7 v=64
13312 Par ch=12 c=7 v=65
13324 Par ch=12 c=7 v=66
13337 Par ch=12 c=7 v=67
13350 Par ch=12 c=7 v=68
13363 Par ch=12 c=7 v=69
13376 Par ch=12 c=7 v=70
13388 Par ch=12 c=7 v=71
13401 Par ch=12 c=7 v=72
13414 Par ch=12 c=7 v=73
13427 Par ch=12 c=7 v=74
13440 On ch=12 n=c#5 v=0
13440 On ch=12 n=a5 v=0
13440 Par ch=12 c=7 v=75
13440 On ch=12 n=a4 v=110
13440 On ch=12 n=g5 v=110
13452 Par ch=12 c=7 v=74
13465 Par ch=12 c=7 v=73
13478 Par ch=12 c=7 v=72
13491 Par ch=12 c=7 v=71
13504 Par ch=12 c=7 v=70
13516 Par ch=12 c=7 v=69
13529 Par ch=12 c=7 v=68
13542 Par ch=12 c=7 v=67
13555 Par ch=12 c=7 v=66
13568 Par ch=12 c=7 v=65
13580 Par ch=12 c=7 v=64
13593 Par ch=12 c=7 v=63
13606 Par ch=12 c=7 v=62
13619 Par ch=12 c=7 v=61
13632 Par ch=12 c=7 v=60
13644 Par ch=12 c=7 v=59
13657 Par ch=12 c=7 v=58
13670 Par ch=12 c=7 v=57
13683 Par ch=12 c=7 v=56
13696 Par ch=12 c=7 v=55
13708 Par ch=12 c=7 v=54
13721 Par ch=12 c=7 v=53
13734 Par ch=12 c=7 v=52
13747 Par ch=12 c=7 v=51
13760 Par ch=12 c=7 v=50
13772 Par ch=12 c=7 v=49
13785 Par ch=12 c=7 v=48
13798 Par ch=12 c=7 v=47
13811 Par ch=12 c=7 v=46
13824 On ch=12 n=a4 v=0
13824 On ch=12 n=g5 v=0
13824 Par ch=12 c=7 v=45
13824 On ch=12 n=e5 v=110
13824 On ch=12 n=g#5 v=110
14368 On ch=12 n=e5 v=0
14368 On ch=12 n=g#5 v=0
14976 Par ch=12 c=7 v=45
14976 On ch=12 n=e5 v=110
14976 On ch=12 n=g#5 v=110
15001 Par ch=12 c=7 v=46
15027 Par ch=12 c=7 v=47
15052 Par ch=12 c=7 v=48
15078 Par ch=12 c=7 v=49
15104 Par ch=12 c=7 v=50
15129 Par ch=12 c=7 v=51
15155 Par ch=12 c=7 v=52
15180 Par ch=12 c=7 v=53
15206 Par ch=12 c=7 v=54
15232 Par ch=12 c=7 v=55
15257 Par ch=12 c=7 v=56
15283 Par ch=12 c=7 v=57
15308 Par ch=12 c=7 v=58
15334 Par ch=12 c=7 v=59
15360 On ch=12 n=e5 v=0
15360 On ch=12 n=g#5 v=0
15360 Par ch=12 c=7 v=60
15360 On ch=12 n=d#5 v=110
15360 On ch=12 n=a5 v=110
15385 Par ch=12 c=7 v=59
15411 Par ch=12 c=7 v=58
15436 Par ch=12 c=7 v=57
15462 Par ch=12 c=7 v=56
15488 Par ch=12 c=7 v=55
15513 Par ch=12 c=7 v=54
15539 Par ch=12 c=7 v=53
15564 Par ch=12 c=7 v=52
15590 Par ch=12 c=7 v=51
15616 Par ch=12 c=7 v=50
15641 Par ch=12 c=7 v=49
15667 Par ch=12 c=7 v=48
15692 Par ch=12 c=7 v=47
15718 Par ch=12 c=7 v=46
15744 On ch=12 n=d#5 v=0
15744 On ch=12 n=a5 v=0
15744 Par ch=12 c=7 v=45
15744 On ch=12 n=e5 v=110
15744 On ch=12 n=g#5 v=110
15769 Par ch=12 c=7 v=46
15795 Par ch=12 c=7 v=47
15820 Par ch=12 c=7 v=48
15846 Par ch=12 c=7 v=49
15872 Par ch=12 c=7 v=50
15897 Par ch=12 c=7 v=51
15923 Par ch=12 c=7 v=52
15948 Par ch=12 c=7 v=53
15974 Par ch=12 c=7 v=54
16000 Par ch=12 c=7 v=55
16025 Par ch=12 c=7 v=56
16051 Par ch=12 c=7 v=57
16076 Par ch=12 c=7 v=58
16102 Par ch=12 c=7 v=59
16128 On ch=12 n=e5 v=0
16128 On ch=12 n=g#5 v=0
16128 Par ch=12 c=7 v=60
16128 On ch=12 n=g#4 v=110
16128 On ch=12 n=b4 v=110
16512 Par ch=12 c=7 v=60
16537 Par ch=12 c=7 v=59
16563 Par ch=12 c=7 v=58
16588 Par ch=12 c=7 v=57
16614 Par ch=12 c=7 v=56
16640 Par ch=12 c=7 v=55
16665 Par ch=12 c=7 v=54
16691 Par ch=12 c=7 v=53
16716 Par ch=12 c=7 v=52
16742 Par ch=12 c=7 v=51
16768 Par ch=12 c=7 v=50
16793 Par ch=12 c=7 v=49
16819 Par ch=12 c=7 v=48
16844 Par ch=12 c=7 v=47
16870 Par ch=12 c=7 v=46
16896 On ch=12 n=g#4 v=0
16896 On ch=12 n=b4 v=0
16896 Par ch=12 c=7 v=45
16896 On ch=12 n=a4 v=110
16896 On ch=12 n=c#5 v=110
17280 On ch=12 n=a4 v=0
17280 On ch=12 n=c#5 v=0
17280 On ch=12 n=a4 v=110
17280 On ch=12 n=c5 v=110
17616 On ch=12 n=a4 v=0
17616 On ch=12 n=c5 v=0
17664 Par ch=12 c=7 v=45
17664 On ch=12 n=b4 v=110
17676 Par ch=12 c=7 v=46
17689 Par ch=12 c=7 v=47
17702 Par ch=12 c=7 v=48
17715 Par ch=12 c=7 v=49
17728 Par ch=12 c=7 v=50
17740 Par ch=12 c=7 v=51
17753 Par ch=12 c=7 v=52
17766 Par ch=12 c=7 v=53
17779 Par ch=12 c=7 v=54
17792 Par ch=12 c=7 v=55
17804 Par ch=12 c=7 v=56
17817 Par ch=12 c=7 v=57
17830 Par ch=12 c=7 v=58
17843 Par ch=12 c=7 v=59
17856 Par ch=12 c=7 v=60
17856 On ch=12 n=e5 v=110
18000 On ch=12 n=b4 v=0
18048 On ch=12 n=e5 v=0
18048 On ch=12 n=b4 v=110
18048 On ch=12 n=f5 v=110
18384 On ch=12 n=b4 v=0
18384 On ch=12 n=f5 v=0
18432 Par ch=12 c=7 v=60
18432 On ch=12 n=e5 v=110
18432 On ch=12 n=f#5 v=110
18444 Par ch=12 c=7 v=59
18457 Par ch=12 c=7 v=58
18470 Par ch=12 c=7 v=57
18483 Par ch=12 c=7 v=56
18496 Par ch=12 c=7 v=55
18508 Par ch=12 c=7 v=54
18521 Par ch=12 c=7 v=53
18534 Par ch=12 c=7 v=52
18547 Par ch=12 c=7 v=51
18560 Par ch=12 c=7 v=50
18572 Par ch=12 c=7 v=49
18585 Par ch=12 c=7 v=48
18598 Par ch=12 c=7 v=47
18611 Par ch=12 c=7 v=46
18624 Par ch=12 c=7 v=45
18816 On ch=12 n=e5 v=0
18816 On ch=12 n=f#5 v=0
18816 On ch=12 n=b4 v=110
18816 On ch=12 n=d#5 v=110
19102 On ch=12 n=b4 v=0
19102 On ch=12 n=d#5 v=0
19200 PrCh ch=12 p=45
19200 On ch=12 n=g#4 v=110
19262 On ch=12 n=g#4 v=0
19264 On ch=12 n=b4 v=110
19326 On ch=12 n=b4 v=0
19328 On ch=12 n=e5 v=110
19390 On ch=12 n=e5 v=0
19392 On ch=12 n=g#5 v=110
19454 On ch=12 n=g#5 v=0
19456 On ch=12 n=d#5 v=110
19518 On ch=12 n=d#5 v=0
19520 On ch=12 n=e5 v=110
19582 On ch=12 n=e5 v=0
19584 On ch=12 n=g#5 v=110
19646 On ch=12 n=g#5 v=0
19648 On ch=12 n=b5 v=110
19710 On ch=12 n=b5 v=0
19712 On ch=12 n=e5 v=110
19774 On ch=12 n=e5 v=0
19776 On ch=12 n=f5 v=110
19838 On ch=12 n=f5 v=0
19840 On ch=12 n=g#5 v=110
19902 On ch=12 n=g#5 v=0
19904 On ch=12 n=b5 v=110
19966 On ch=12 n=b5 v=0
19968 On ch=12 n=c#5 v=110
20030 On ch=12 n=c#5 v=0
20032 On ch=12 n=f5 v=110
20094 On ch=12 n=f5 v=0
20096 On ch=12 n=g#5 v=110
20158 On ch=12 n=g#5 v=0
20160 On ch=12 n=a5 v=110
20222 On ch=12 n=a5 v=0
20224 On ch=12 n=c#5 v=110
20286 On ch=12 n=c#5 v=0
20288 On ch=12 n=f5 v=110
20350 On ch=12 n=f5 v=0
20352 On ch=12 n=f#5 v=110
20414 On ch=12 n=f#5 v=0
20416 On ch=12 n=a5 v=110
20478 On ch=12 n=a5 v=0
20480 On ch=12 n=c#5 v=110
20542 On ch=12 n=c#5 v=0
20544 On ch=12 n=d#5 v=110
20606 On ch=12 n=d#5 v=0
20608 On ch=12 n=f#5 v=110
20670 On ch=12 n=f#5 v=0
20672 On ch=12 n=a5 v=110
20734 On ch=12 n=a5 v=0
20736 On ch=12 n=b4 v=110
20798 On ch=12 n=b4 v=0
20800 On ch=12 n=d#5 v=110
20862 On ch=12 n=d#5 v=0
20864 On ch=12 n=f#5 v=110
20926 On ch=12 n=f#5 v=0
20928 On ch=12 n=g#5 v=110
20990 On ch=12 n=g#5 v=0
20992 On ch=12 n=b4 v=110
21054 On ch=12 n=b4 v=0
21056 On ch=12 n=d#5 v=110
21118 On ch=12 n=d#5 v=0
21120 On ch=12 n=e5 v=110
21182 On ch=12 n=e5 v=0
21184 On ch=12 n=g#5 v=110
21246 On ch=12 n=g#5 v=0
21248 On ch=12 n=b4 v=110
21310 On ch=12 n=b4 v=0
21312 On ch=12 n=d5 v=110
21374 On ch=12 n=d5 v=0
21376 On ch=12 n=f5 v=110
21438 On ch=12 n=f5 v=0
21440 On ch=12 n=g#5 v=110
21502 On ch=12 n=g#5 v=0
21504 On ch=12 n=a#4 v=110
21566 On ch=12 n=a#4 v=0
21568 On ch=12 n=c#5 v=110
21630 On ch=12 n=c#5 v=0
21632 On ch=12 n=e5 v=110
21694 On ch=12 n=e5 v=0
21696 On ch=12 n=f#5 v=110
21758 On ch=12 n=f#5 v=0
21760 On ch=12 n=a#4 v=110
21822 On ch=12 n=a#4 v=0
21824 On ch=12 n=c#5 v=110
21886 On ch=12 n=c#5 v=0
21888 On ch=12 n=e5 v=110
21950 On ch=12 n=e5 v=0
21952 On ch=12 n=f#5 v=110
22014 On ch=12 n=f#5 v=0
22016 On ch=12 n=a4 v=110
22078 On ch=12 n=a4 v=0
22080 On ch=12 n=d#5 v=110
22142 On ch=12 n=d#5 v=0
22144 On ch=12 n=b4 v=110
22206 On ch=12 n=b4 v=0
22208 On ch=12 n=f#5 v=110
22270 On ch=12 n=f#5 v=0
22272 On ch=12 n=g#4 v=110
22334 On ch=12 n=g#4 v=0
22336 On ch=12 n=b4 v=110
22398 On ch=12 n=b4 v=0
22400 On ch=12 n=e5 v=110
22462 On ch=12 n=e5 v=0
22464 On ch=12 n=g#5 v=110
22526 On ch=12 n=g#5 v=0
22528 On ch=12 n=b4 v=110
22590 On ch=12 n=b4 v=0
22592 On ch=12 n=e5 v=110
22654 On ch=12 n=e5 v=0
22656 Par ch=12 c=7 v=45
22656 On ch=12 n=g#4 v=110
22681 Par ch=12 c=7 v=46
22707 Par ch=12 c=7 v=47
22718 On ch=12 n=g#4 v=0
22720 On ch=12 n=b4 v=110
22732 Par ch=12 c=7 v=48
22758 Par ch=12 c=7 v=49
22782 On ch=12 n=b4 v=0
22784 Par ch=12 c=7 v=50
22784 On ch=12 n=e5 v=110
22809 Par ch=12 c=7 v=51
22835 Par ch=12 c=7 v=52
22846 On ch=12 n=e5 v=0
22848 On ch=12 n=b5 v=110
22860 Par ch=12 c=7 v=53
22886 Par ch=12 c=7 v=54
22910 On ch=12 n=b5 v=0
22912 Par ch=12 c=7 v=55
22912 On ch=12 n=b4 v=110
22937 Par ch=12 c=7 v=56
22963 Par ch=12 c=7 v=57
22974 On ch=12 n=b4 v=0
22976 On ch=12 n=e5 v=110
22988 Par ch=12 c=7 v=58
23014 Par ch=12 c=7 v=59
23038 On ch=12 n=e5 v=0
23040 Par ch=12 c=7 v=60
23040 On ch=12 n=c#5 v=110
23065 Par ch=12 c=7 v=59
23091 Par ch=12 c=7 v=58
23102 On ch=12 n=c#5 v=0
23104 On ch=12 n=d#5 v=110
23116 Par ch=12 c=7 v=57
23142 Par ch=12 c=7 v=56
23166 On ch=12 n=d#5 v=0
23168 Par ch=12 c=7 v=55
23168 On ch=12 n=a5 v=110
23193 Par ch=12 c=7 v=54
23219 Par ch=12 c=7 v=53
23230 On ch=12 n=a5 v=0
23232 On ch=12 n=b5 v=110
23244 Par ch=12 c=7 v=52
23270 Par ch=12 c=7 v=51
23294 On ch=12 n=b5 v=0
23296 Par ch=12 c=7 v=50
23296 On ch=12 n=b4 v=110
23321 Par ch=12 c=7 v=49
23347 Par ch=12 c=7 v=48
23358 On ch=12 n=b4 v=0
23360 On ch=12 n=b5 v=110
23372 Par ch=12 c=7 v=47
23398 Par ch=12 c=7 v=46
23422 On ch=12 n=b5 v=0
23424 Par ch=12 c=7 v=45
23424 Par ch=12 c=7 v=45
23424 On ch=12 n=g#4 v=110
23449 Par ch=12 c=7 v=46
23475 Par ch=12 c=7 v=47
23486 On ch=12 n=g#4 v=0
23488 On ch=12 n=b4 v=110
23500 Par ch=12 c=7 v=48
23526 Par ch=12 c=7 v=49
23550 On ch=12 n=b4 v=0
23552 Par ch=12 c=7 v=50
23552 On ch=12 n=e5 v=110
23577 Par ch=12 c=7 v=51
23603 Par ch=12 c=7 v=52
23614 On ch=12 n=e5 v=0
23616 On ch=12 n=g#5 v=110
23628 Par ch=12 c=7 v=53
23654 Par ch=12 c=7 v=54
23678 On ch=12 n=g#5 v=0
23680 Par ch=12 c=7 v=55
23680 On ch=12 n=b4 v=110
23705 Par ch=12 c=7 v=56
23731 Par ch=12 c=7 v=57
23742 On ch=12 n=b4 v=0
23744 On ch=12 n=e5 v=110
23756 Par ch=12 c=7 v=58
23782 Par ch=12 c=7 v=59
23806 On ch=12 n=e5 v=0
23808 Par ch=12 c=7 v=60
23808 On ch=12 n=c5 v=110
23833 Par ch=12 c=7 v=59
23859 Par ch=12 c=7 v=58
23870 On ch=12 n=c5 v=0
23872 On ch=12 n=d#5 v=110
23884 Par ch=12 c=7 v=57
23910 Par ch=12 c=7 v=56
23934 On ch=12 n=d#5 v=0
23936 Par ch=12 c=7 v=55
23936 On ch=12 n=f#5 v=110
23961 Par ch=12 c=7 v=54
23987 Par ch=12 c=7 v=53
23998 On ch=12 n=f#5 v=0
24000 On ch=12 n=c6 v=110
24012 Par ch=12 c=7 v=52
24038 Par ch=12 c=7 v=51
24062 On ch=12 n=c6 v=0
24064 Par ch=12 c=7 v=50
24064 On ch=12 n=d#5 v=110
24089 Par ch=12 c=7 v=49
24115 Par ch=12 c=7 v=48
24126 On ch=12 n=d#5 v=0
24128 On ch=12 n=g#5 v=110
24140 Par ch=12 c=7 v=47
24166 Par ch=12 c=7 v=46
24190 On ch=12 n=g#5 v=0
24192 Par ch=12 c=7 v=45
24192 On ch=12 n=b4 v=110
24254 On ch=12 n=b4 v=0
24256 On ch=12 n=e5 v=110
24318 On ch=12 n=e5 v=0
24320 On ch=12 n=g#5 v=110
24382 On ch=12 n=g#5 v=0
24384 On ch=12 n=b5 v=110
24478 On ch=12 n=b5 v=0
25216 On ch=12 n=e5 v=110
25278 On ch=12 n=e5 v=0
25280 On ch=12 n=a5 v=110
25342 On ch=12 n=a5 v=0
25344 Par ch=12 c=7 v=45
25344 On ch=12 n=c#5 v=110
25369 Par ch=12 c=7 v=46
25395 Par ch=12 c=7 v=47
25406 On ch=12 n=c#5 v=0
25408 On ch=12 n=e5 v=110
25420 Par ch=12 c=7 v=48
25446 Par ch=12 c=7 v=49
25470 On ch=12 n=e5 v=0
25472 Par ch=12 c=7 v=50
25472 On ch=12 n=a5 v=110
25497 Par ch=12 c=7 v=51
25523 Par ch=12 c=7 v=52
25534 On ch=12 n=a5 v=0
25536 On ch=12 n=a5 v=110
25548 Par ch=12 c=7 v=53
25574 Par ch=12 c=7 v=54
25598 On ch=12 n=a5 v=0
25600 Par ch=12 c=7 v=55
25600 On ch=12 n=e5 v=110
25625 Par ch=12 c=7 v=56
25651 Par ch=12 c=7 v=57
25662 On ch=12 n=e5 v=0
25664 On ch=12 n=a5 v=110
25676 Par ch=12 c=7 v=58
25702 Par ch=12 c=7 v=59
25726 On ch=12 n=a5 v=0
25728 Par ch=12 c=7 v=60
25728 On ch=12 n=d5 v=110
25753 Par ch=12 c=7 v=59
25779 Par ch=12 c=7 v=58
25790 On ch=12 n=d5 v=0
25792 On ch=12 n=f5 v=110
25804 Par ch=12 c=7 v=57
25830 Par ch=12 c=7 v=56
25854 On ch=12 n=f5 v=0
25856 Par ch=12 c=7 v=55
25856 On ch=12 n=g#5 v=110
25881 Par ch=12 c=7 v=54
25907 Par ch=12 c=7 v=53
25918 On ch=12 n=g#5 v=0
25920 On ch=12 n=d6 v=110
25932 Par ch=12 c=7 v=52
25958 Par ch=12 c=7 v=51
25982 On ch=12 n=d6 v=0
25984 Par ch=12 c=7 v=50
25984 On ch=12 n=e5 v=110
26009 Par ch=12 c=7 v=49
26035 Par ch=12 c=7 v=48
26046 On ch=12 n=e5 v=0
26048 On ch=12 n=g#5 v=110
26060 Par ch=12 c=7 v=47
26086 Par ch=12 c=7 v=46
26110 On ch=12 n=g#5 v=0
26112 Par ch=12 c=7 v=45
26112 Par ch=12 c=7 v=45
26112 On ch=12 n=c#5 v=110
26137 Par ch=12 c=7 v=46
26163 Par ch=12 c=7 v=47
26174 On ch=12 n=c#5 v=0
26176 On ch=12 n=e5 v=110
26188 Par ch=12 c=7 v=48
26214 Par ch=12 c=7 v=49
26238 On ch=12 n=e5 v=0
26240 Par ch=12 c=7 v=50
26240 On ch=12 n=a5 v=110
26265 Par ch=12 c=7 v=51
26291 Par ch=12 c=7 v=52
26302 On ch=12 n=a5 v=0
26304 On ch=12 n=c#6 v=110
26316 Par ch=12 c=7 v=53
26342 Par ch=12 c=7 v=54
26366 On ch=12 n=c#6 v=0
26368 Par ch=12 c=7 v=55
26368 On ch=12 n=e5 v=110
26393 Par ch=12 c=7 v=56
26419 Par ch=12 c=7 v=57
26430 On ch=12 n=e5 v=0
26432 On ch=12 n=a5 v=110
26444 Par ch=12 c=7 v=58
26470 Par ch=12 c=7 v=59
26494 On ch=12 n=a5 v=0
26496 Par ch=12 c=7 v=60
26496 On ch=12 n=a4 v=110
26521 Par ch=12 c=7 v=59
26547 Par ch=12 c=7 v=58
26558 On ch=12 n=a4 v=0
26560 On ch=12 n=c#5 v=110
26572 Par ch=12 c=7 v=57
26598 Par ch=12 c=7 v=56
26622 On ch=12 n=c#5 v=0
26624 Par ch=12 c=7 v=55
26624 On ch=12 n=g5 v=110
26649 Par ch=12 c=7 v=54
26675 Par ch=12 c=7 v=53
26686 On ch=12 n=g5 v=0
26688 On ch=12 n=c#6 v=110
26700 Par ch=12 c=7 v=52
26726 Par ch=12 c=7 v=51
26750 On ch=12 n=c#6 v=0
26752 Par ch=12 c=7 v=50
26752 On ch=12 n=c#5 v=110
26777 Par ch=12 c=7 v=49
26803 Par ch=12 c=7 v=48
26814 On ch=12 n=c#5 v=0
26816 On ch=12 n=g5 v=110
26828 Par ch=12 c=7 v=47
26854 Par ch=12 c=7 v=46
26878 On ch=12 n=g5 v=0
26880 Par ch=12 c=7 v=45
26880 On ch=12 n=g#4 v=110
26942 On ch=12 n=g#4 v=0
26944 On ch=12 n=c#5 v=110
27006 On ch=12 n=c#5 v=0
27008 On ch=12 n=e5 v=110
27070 On ch=12 n=e5 v=0
27072 On ch=12 n=g#5 v=110
27166 On ch=12 n=g#5 v=0
27904 On ch=12 n=b4 v=110
27966 On ch=12 n=b4 v=0
27968 On ch=12 n=e5 v=110
28030 On ch=12 n=e5 v=0
28032 Par ch=12 c=7 v=45
28032 On ch=12 n=g#4 v=110
28057 Par ch=12 c=7 v=46
28083 Par ch=12 c=7 v=47
28094 On ch=12 n=g#4 v=0
28096 On ch=12 n=b4 v=110
28108 Par ch=12 c=7 v=48
28134 Par ch=12 c=7 v=49
28158 On ch=12 n=b4 v=0
28160 Par ch=12 c=7 v=50
28160 On ch=12 n=e5 v=110
28185 Par ch=12 c=7 v=51
28211 Par ch=12 c=7 v=52
28222 On ch=12 n=e5 v=0
28224 On ch=12 n=b5 v=110
28236 Par ch=12 c=7 v=53
28262 Par ch=12 c=7 v=54
28286 On ch=12 n=b5 v=0
28288 Par ch=12 c=7 v=55
28288 On ch=12 n=d#5 v=110
28313 Par ch=12 c=7 v=56
28339 Par ch=12 c=7 v=57
28350 On ch=12 n=d#5 v=0
28352 On ch=12 n=e5 v=110
28364 Par ch=12 c=7 v=58
28390 Par ch=12 c=7 v=59
28414 On ch=12 n=e5 v=0
28416 Par ch=12 c=7 v=60
28416 On ch=12 n=c#5 v=110
28441 Par ch=12 c=7 v=59
28467 Par ch=12 c=7 v=58
28478 On ch=12 n=c#5 v=0
28480 On ch=12 n=d#5 v=110
28492 Par ch=12 c=7 v=57
28518 Par ch=12 c=7 v=56
28542 On ch=12 n=d#5 v=0
28544 Par ch=12 c=7 v=55
28544 On ch=12 n=a5 v=110
28569 Par ch=12 c=7 v=54
28595 Par ch=12 c=7 v=53
28606 On ch=12 n=a5 v=0
28608 On ch=12 n=b5 v=110
28620 Par ch=12 c=7 v=52
28646 Par ch=12 c=7 v=51
28670 On ch=12 n=b5 v=0
28672 Par ch=12 c=7 v=50
28672 On ch=12 n=b4 v=110
28697 Par ch=12 c=7 v=49
28723 Par ch=12 c=7 v=48
28734 On ch=12 n=b4 v=0
28736 On ch=12 n=b5 v=110
28748 Par ch=12 c=7 v=47
28774 Par ch=12 c=7 v=46
28798 On ch=12 n=b5 v=0
28800 Par ch=12 c=7 v=45
28800 On ch=12 n=b4 v=110
28862 On ch=12 n=b4 v=0
28864 On ch=12 n=e5 v=110
28926 On ch=12 n=e5 v=0
28928 On ch=12 n=g#5 v=110
28990 On ch=12 n=g#5 v=0
28992 On ch=12 n=b5 v=110
29054 On ch=12 n=b5 v=0
29056 On ch=12 n=e5 v=110
29118 On ch=12 n=e5 v=0
29120 On ch=12 n=g#5 v=110
29182 On ch=12 n=g#5 v=0
29184 Par ch=12 c=7 v=45
29184 On ch=12 n=b4 v=110
29209 Par ch=12 c=7 v=46
29235 Par ch=12 c=7 v=47
29246 On ch=12 n=b4 v=0
29248 On ch=12 n=f#5 v=110
29260 Par ch=12 c=7 v=48
29286 Par ch=12 c=7 v=49
29310 On ch=12 n=f#5 v=0
29312 Par ch=12 c=7 v=50
29312 On ch=12 n=g#5 v=110
29337 Par ch=12 c=7 v=51
29363 Par ch=12 c=7 v=52
29374 On ch=12 n=g#5 v=0
29376 On ch=12 n=b5 v=110
29388 Par ch=12 c=7 v=53
29414 Par ch=12 c=7 v=54
29438 On ch=12 n=b5 v=0
29440 Par ch=12 c=7 v=55
29440 On ch=12 n=b4 v=110
29465 Par ch=12 c=7 v=56
29491 Par ch=12 c=7 v=57
29502 On ch=12 n=b4 v=0
29504 On ch=12 n=f#5 v=110
29516 Par ch=12 c=7 v=58
29542 Par ch=12 c=7 v=59
29566 On ch=12 n=f#5 v=0
29568 Par ch=12 c=7 v=60
29568 On ch=12 n=b4 v=110
29593 Par ch=12 c=7 v=59
29619 Par ch=12 c=7 v=58
29630 On ch=12 n=b4 v=0
29632 On ch=12 n=c#5 v=110
29644 Par ch=12 c=7 v=57
29670 Par ch=12 c=7 v=56
29694 On ch=12 n=c#5 v=0
29696 Par ch=12 c=7 v=55
29696 On ch=12 n=f#5 v=110
29721 Par ch=12 c=7 v=54
29747 Par ch=12 c=7 v=53
29758 On ch=12 n=f#5 v=0
29760 On ch=12 n=c#6 v=110
29772 Par ch=12 c=7 v=52
29798 Par ch=12 c=7 v=51
29822 On ch=12 n=c#6 v=0
29824 Par ch=12 c=7 v=50
29824 On ch=12 n=b4 v=110
29849 Par ch=12 c=7 v=49
29875 Par ch=12 c=7 v=48
29886 On ch=12 n=b4 v=0
29888 On ch=12 n=f5 v=110
29900 Par ch=12 c=7 v=47
29926 Par ch=12 c=7 v=46
29950 On ch=12 n=f5 v=0
29952 Par ch=12 c=7 v=45
29952 On ch=12 n=a4 v=110
30014 On ch=12 n=a4 v=0
30016 On ch=12 n=c#5 v=110
30078 On ch=12 n=c#5 v=0
30080 On ch=12 n=f#5 v=110
30142 On ch=12 n=f#5 v=0
30144 On ch=12 n=c#6 v=110
30206 On ch=12 n=c#6 v=0
30208 On ch=12 n=c#5 v=110
30270 On ch=12 n=c#5 v=0
30272 On ch=12 n=f#5 v=110
30334 On ch=12 n=f#5 v=0
30336 On ch=12 n=c5 v=110
30398 On ch=12 n=c5 v=0
30400 On ch=12 n=e5 v=110
30462 On ch=12 n=e5 v=0
30464 On ch=12 n=f#5 v=110
30526 On ch=12 n=f#5 v=0
30528 On ch=12 n=c6 v=110
30590 On ch=12 n=c6 v=0
30592 On ch=12 n=d#5 v=110
30654 On ch=12 n=d#5 v=0
30656 On ch=12 n=f#5 v=110
30718 On ch=12 n=f#5 v=0
30720 On ch=12 n=b4 v=110
30782 On ch=12 n=b4 v=0
30784 On ch=12 n=e5 v=110
30846 On ch=12 n=e5 v=0
30848 On ch=12 n=g#5 v=110
30910 On ch=12 n=g#5 v=0
30912 On ch=12 n=b5 v=110
30974 On ch=12 n=b5 v=0
30976 On ch=12 n=e5 v=110
31038 On ch=12 n=e5 v=0
31040 On ch=12 n=g#5 v=110
31102 On ch=12 n=g#5 v=0
31104 On ch=12 n=b4 v=110
31166 On ch=12 n=b4 v=0
31168 On ch=12 n=d5 v=110
31230 On ch=12 n=d5 v=0
31232 On ch=12 n=a#5 v=110
31294 On ch=12 n=a#5 v=0
31296 On ch=12 n=b5 v=110
31358 On ch=12 n=b5 v=0
31360 On ch=12 n=b4 v=110
31422 On ch=12 n=b4 v=0
31424 On ch=12 n=c#5 v=110
31486 On ch=12 n=c#5 v=0
31488 On ch=12 n=b4 v=110
31550 On ch=12 n=b4 v=0
31552 On ch=12 n=d#5 v=110
31614 On ch=12 n=d#5 v=0
31616 On ch=12 n=f#5 v=110
31678 On ch=12 n=f#5 v=0
31680 On ch=12 n=g#5 v=110
31742 On ch=12 n=g#5 v=0
31744 On ch=12 n=b4 v=110
31806 On ch=12 n=b4 v=0
31808 On ch=12 n=d#5 v=110
31870 On ch=12 n=d#5 v=0
31872 On ch=12 n=a#4 v=110
31934 On ch=12 n=a#4 v=0
31936 On ch=12 n=c#5 v=110
31998 On ch=12 n=c#5 v=0
32000 On ch=12 n=e5 v=110
32062 On ch=12 n=e5 v=0
32064 On ch=12 n=f#5 v=110
32158 On ch=12 n=f#5 v=0
32256 PrCh ch=12 p=48
32256 Par ch=12 c=7 v=45
32448 On ch=12 n=f#5 v=110
32640 On ch=12 n=f#5 v=0
32640 On ch=12 n=b5 v=110
32832 On ch=12 n=b5 v=0
32832 On ch=12 n=c6 v=110
33024 On ch=12 n=c6 v=0
33024 On ch=12 n=c6 v=110
33408 On ch=12 n=c6 v=0
33408 Par ch=12 c=7 v=45
33408 On ch=12 n=c#6 v=110
33420 Par ch=12 c=7 v=46
33433 Par ch=12 c=7 v=47
33446 Par ch=12 c=7 v=48
33459 Par ch=12 c=7 v=49
33472 Par ch=12 c=7 v=50
33484 Par ch=12 c=7 v=51
33497 Par ch=12 c=7 v=52
33510 Par ch=12 c=7 v=53
33523 Par ch=12 c=7 v=54
33536 Par ch=12 c=7 v=55
33548 Par ch=12 c=7 v=56
33561 Par ch=12 c=7 v=57
33574 Par ch=12 c=7 v=58
33587 Par ch=12 c=7 v=59
33600 On ch=12 n=c#6 v=0
33600 Par ch=12 c=7 v=60
33600 On ch=12 n=e6 v=110
33612 Par ch=12 c=7 v=59
33625 Par ch=12 c=7 v=58
33638 Par ch=12 c=7 v=57
33651 Par ch=12 c=7 v=56
33664 Par ch=12 c=7 v=55
33676 Par ch=12 c=7 v=54
33689 Par ch=12 c=7 v=53
33702 Par ch=12 c=7 v=52
33715 Par ch=12 c=7 v=51
33728 Par ch=12 c=7 v=50
33740 Par ch=12 c=7 v=49
33753 Par ch=12 c=7 v=48
33766 Par ch=12 c=7 v=47
33779 Par ch=12 c=7 v=46
33792 On ch=12 n=e6 v=0
33792 Par ch=12 c=7 v=45
33792 On ch=12 n=a#5 v=110
34176 On ch=12 n=a#5 v=0
34176 Par ch=12 c=7 v=45
34176 On ch=12 n=b5 v=110
34188 Par ch=12 c=7 v=46
34201 Par ch=12 c=7 v=47
34214 Par ch=12 c=7 v=48
34227 Par ch=12 c=7 v=49
34240 Par ch=12 c=7 v=50
34252 Par ch=12 c=7 v=51
34265 Par ch=12 c=7 v=52
34278 Par ch=12 c=7 v=53
34291 Par ch=12 c=7 v=54
34304 Par ch=12 c=7 v=55
34316 Par ch=12 c=7 v=56
34329 Par ch=12 c=7 v=57
34342 Par ch=12 c=7 v=58
34355 Par ch=12 c=7 v=59
34368 On ch=12 n=b5 v=0
34368 Par ch=12 c=7 v=60
34368 On ch=12 n=d#6 v=110
34380 Par ch=12 c=7 v=59
34393 Par ch=12 c=7 v=58
34406 Par ch=12 c=7 v=57
34419 Par ch=12 c=7 v=56
34432 Par ch=12 c=7 v=55
34444 Par ch=12 c=7 v=54
34457 Par ch=12 c=7 v=53
34470 Par ch=12 c=7 v=52
34483 Par ch=12 c=7 v=51
34496 Par ch=12 c=7 v=50
34508 Par ch=12 c=7 v=49
34521 Par ch=12 c=7 v=48
34534 Par ch=12 c=7 v=47
34547 Par ch=12 c=7 v=46
34560 On ch=12 n=d#6 v=0
34560 Par ch=12 c=7 v=45
34560 On ch=12 n=g#5 v=110
34944 On ch=12 n=g#5 v=0
34944 Par ch=12 c=7 v=45
34944 On ch=12 n=b5 v=110
34956 Par ch=12 c=7 v=46
34969 Par ch=12 c=7 v=47
34982 Par ch=12 c=7 v=48
34995 Par ch=12 c=7 v=49
35008 Par ch=12 c=7 v=50
35020 Par ch=12 c=7 v=51
35033 Par ch=12 c=7 v=52
35046 Par ch=12 c=7 v=53
35059 Par ch=12 c=7 v=54
35072 Par ch=12 c=7 v=55
35084 Par ch=12 c=7 v=56
35097 Par ch=12 c=7 v=57
35110 Par ch=12 c=7 v=58
35123 Par ch=12 c=7 v=59
35136 On ch=12 n=b5 v=0
35136 Par ch=12 c=7 v=60
35136 On ch=12 n=c#6 v=110
35148 Par ch=12 c=7 v=59
35161 Par ch=12 c=7 v=58
35174 Par ch=12 c=7 v=57
35187 Par ch=12 c=7 v=56
35200 Par ch=12 c=7 v=55
35212 Par ch=12 c=7 v=54
35225 Par ch=12 c=7 v=53
35238 Par ch=12 c=7 v=52
35251 Par ch=12 c=7 v=51
35264 Par ch=12 c=7 v=50
35276 Par ch=12 c=7 v=49
35289 Par ch=12 c=7 v=48
35302 Par ch=12 c=7 v=47
35315 Par ch=12 c=7 v=46
35328 On ch=12 n=c#6 v=0
35328 Par ch=12 c=7 v=45
35328 Par ch=12 c=7 v=45
35328 On ch=12 n=b5 v=110
35366 Par ch=12 c=7 v=46
35404 Par ch=12 c=7 v=47
35443 Par ch=12 c=7 v=48
35481 Par ch=12 c=7 v=49
35520 Par ch=12 c=7 v=50
35558 Par ch=12 c=7 v=51
35596 Par ch=12 c=7 v=52
35635 Par ch=12 c=7 v=53
35673 Par ch=12 c=7 v=54
35712 Par ch=12 c=7 v=55
35750 Par ch=12 c=7 v=56
35788 Par ch=12 c=7 v=57
35827 Par ch=12 c=7 v=58
35865 Par ch=12 c=7 v=59
35904 On ch=12 n=b5 v=0
35904 Par ch=12 c=7 v=60
35904 On ch=12 n=a#5 v=110
35916 Par ch=12 c=7 v=59
35929 Par ch=12 c=7 v=58
35942 Par ch=12 c=7 v=57
35955 Par ch=12 c=7 v=56
35968 Par ch=12 c=7 v=55
35980 Par ch=12 c=7 v=54
35993 Par ch=12 c=7 v=53
36006 Par ch=12 c=7 v=52
36019 Par ch=12 c=7 v=51
36032 Par ch=12 c=7 v=50
36044 Par ch=12 c=7 v=49
36057 Par ch=12 c=7 v=48
36070 Par ch=12 c=7 v=47
36083 Par ch=12 c=7 v=46
36096 On ch=12 n=a#5 v=0
36096 Par ch=12 c=7 v=45
36096 Par ch=12 c=7 v=45
36096 On ch=12 n=b5 v=110
36134 Par ch=12 c=7 v=46
36172 Par ch=12 c=7 v=47
36211 Par ch=12 c=7 v=48
36249 Par ch=12 c=7 v=49
36288 Par ch=12 c=7 v=50
36326 Par ch=12 c=7 v=51
36364 Par ch=12 c=7 v=52
36403 Par ch=12 c=7 v=53
36441 Par ch=12 c=7 v=54
36480 Par ch=12 c=7 v=55
36518 Par ch=12 c=7 v=56
36556 Par ch=12 c=7 v=57
36595 Par ch=12 c=7 v=58
36633 Par ch=12 c=7 v=59
36672 On ch=12 n=b5 v=0
36672 Par ch=12 c=7 v=60
36672 On ch=12 n=a#5 v=110
36684 Par ch=12 c=7 v=59
36697 Par ch=12 c=7 v=58
36710 Par ch=12 c=7 v=57
36723 Par ch=12 c=7 v=56
36736 Par ch=12 c=7 v=55
36748 Par ch=12 c=7 v=54
36761 Par ch=12 c=7 v=53
36774 Par ch=12 c=7 v=52
36787 Par ch=12 c=7 v=51
36800 Par ch=12 c=7 v=50
36812 Par ch=12 c=7 v=49
36825 Par ch=12 c=7 v=48
36838 Par ch=12 c=7 v=47
36851 Par ch=12 c=7 v=46
36864 On ch=12 n=a#5 v=0
36864 Par ch=12 c=7 v=45
36864 Par ch=12 c=7 v=45
36864 On ch=12 n=b5 v=110
36889 Par ch=12 c=7 v=44
36915 Par ch=12 c=7 v=43
36940 Par ch=12 c=7 v=42
36966 Par ch=12 c=7 v=41
36992 Par ch=12 c=7 v=40
37017 Par ch=12 c=7 v=39
37043 Par ch=12 c=7 v=38
37068 Par ch=12 c=7 v=37
37094 Par ch=12 c=7 v=36
37120 Par ch=12 c=7 v=35
37145 Par ch=12 c=7 v=34
37171 Par ch=12 c=7 v=33
37196 Par ch=12 c=7 v=32
37222 Par ch=12 c=7 v=31
37248 Par ch=12 c=7 v=30
37342 On ch=12 n=b5 v=0
56832 Par ch=12 c=7 v=75
57408 On ch=12 n=g5 v=110
57792 On ch=12 n=g5 v=0
57792 On ch=12 n=f#5 v=110
58176 On ch=12 n=f#5 v=0
58176 On ch=12 n=e5 v=110
58272 On ch=12 n=e5 v=0
58272 On ch=12 n=f#5 v=110
58366 On ch=12 n=f#5 v=0
58368 Par ch=12 c=7 v=75
58368 On ch=12 n=e5 v=110
58390 Par ch=12 c=7 v=76
58413 Par ch=12 c=7 v=77
58435 Par ch=12 c=7 v=78
58458 Par ch=12 c=7 v=79
58480 Par ch=12 c=7 v=80
58503 Par ch=12 c=7 v=81
58526 Par ch=12 c=7 v=82
58548 Par ch=12 c=7 v=83
58571 Par ch=12 c=7 v=84
58593 Par ch=12 c=7 v=85
58616 Par ch=12 c=7 v=86
58639 Par ch=12 c=7 v=87
58661 Par ch=12 c=7 v=88
58684 Par ch=12 c=7 v=89
58706 Par ch=12 c=7 v=90
58729 Par ch=12 c=7 v=91
58752 Par ch=12 c=7 v=92
58774 Par ch=12 c=7 v=91
58797 Par ch=12 c=7 v=90
58819 Par ch=12 c=7 v=89
58842 Par ch=12 c=7 v=88
58864 Par ch=12 c=7 v=87
58887 Par ch=12 c=7 v=86
58910 Par ch=12 c=7 v=85
58932 Par ch=12 c=7 v=84
58944 On ch=12 n=e5 v=0
58944 On ch=12 n=d#5 v=110
58955 Par ch=12 c=7 v=83
58977 Par ch=12 c=7 v=82
59000 Par ch=12 c=7 v=81
59023 Par ch=12 c=7 v=80
59045 Par ch=12 c=7 v=79
59068 Par ch=12 c=7 v=78
59090 Par ch=12 c=7 v=77
59113 Par ch=12 c=7 v=76
59136 On ch=12 n=d#5 v=0
59136 Par ch=12 c=7 v=75
59136 On ch=12 n=e5 v=110
59148 Par ch=12 c=7 v=74
59161 Par ch=12 c=7 v=73
59174 Par ch=12 c=7 v=72
59187 Par ch=12 c=7 v=71
59200 Par ch=12 c=7 v=70
59212 Par ch=12 c=7 v=69
59225 Par ch=12 c=7 v=68
59238 Par ch=12 c=7 v=67
59251 Par ch=12 c=7 v=66
59264 Par ch=12 c=7 v=65
59276 Par ch=12 c=7 v=64
59289 Par ch=12 c=7 v=63
59302 Par ch=12 c=7 v=62
59315 Par ch=12 c=7 v=61
59328 Par ch=12 c=7 v=60
59340 Par ch=12 c=7 v=59
59353 Par ch=12 c=7 v=58
59366 Par ch=12 c=7 v=57
59379 Par ch=12 c=7 v=56
59392 Par ch=12 c=7 v=55
59404 Par ch=12 c=7 v=54
59417 Par ch=12 c=7 v=53
59430 Par ch=12 c=7 v=52
59443 Par ch=12 c=7 v=51
59456 Par ch=12 c=7 v=50
59468 Par ch=12 c=7 v=49
59481 Par ch=12 c=7 v=48
59494 Par ch=12 c=7 v=47
59507 Par ch=12 c=7 v=46
59520 Par ch=12 c=7 v=45
59532 Par ch=12 c=7 v=44
59545 Par ch=12 c=7 v=43
59558 Par ch=12 c=7 v=42
59571 Par ch=12 c=7 v=41
59584 Par ch=12 c=7 v=40
59596 Par ch=12 c=7 v=39
59609 Par ch=12 c=7 v=38
59622 Par ch=12 c=7 v=37
59635 Par ch=12 c=7 v=36
59648 Par ch=12 c=7 v=35
59660 Par ch=12 c=7 v=34
59673 Par ch=12 c=7 v=33
59680 On ch=12 n=e5 v=0
59686 Par ch=12 c=7 v=32
59699 Par ch=12 c=7 v=31
59712 Par ch=12 c=7 v=30
69120 Par ch=12 c=7 v=45
69120 On ch=12 n=g5 v=110
69145 Par ch=12 c=7 v=46
69171 Par ch=12 c=7 v=47
69196 Par ch=12 c=7 v=48
69222 Par ch=12 c=7 v=49
69248 Par ch=12 c=7 v=50
69273 Par ch=12 c=7 v=51
69299 Par ch=12 c=7 v=52
69324 Par ch=12 c=7 v=53
69350 Par ch=12 c=7 v=54
69376 Par ch=12 c=7 v=55
69401 Par ch=12 c=7 v=56
69427 Par ch=12 c=7 v=57
69452 Par ch=12 c=7 v=58
69478 Par ch=12 c=7 v=59
69504 On ch=12 n=g5 v=0
69504 Par ch=12 c=7 v=60
69504 On ch=12 n=g#5 v=110
69529 Par ch=12 c=7 v=59
69555 Par ch=12 c=7 v=58
69580 Par ch=12 c=7 v=57
69606 Par ch=12 c=7 v=56
69632 Par ch=12 c=7 v=55
69657 Par ch=12 c=7 v=54
69683 Par ch=12 c=7 v=53
69708 Par ch=12 c=7 v=52
69734 Par ch=12 c=7 v=51
69760 Par ch=12 c=7 v=50
69785 Par ch=12 c=7 v=49
69811 Par ch=12 c=7 v=48
69836 Par ch=12 c=7 v=47
69862 Par ch=12 c=7 v=46
69888 On ch=12 n=g#5 v=0
69888 Par ch=12 c=7 v=45
69888 Par ch=12 c=7 v=45
69888 On ch=12 n=g5 v=110
69913 Par ch=12 c=7 v=46
69939 Par ch=12 c=7 v=47
69964 Par ch=12 c=7 v=48
69990 Par ch=12 c=7 v=49
70016 Par ch=12 c=7 v=50
70041 Par ch=12 c=7 v=51
70067 Par ch=12 c=7 v=52
70092 Par ch=12 c=7 v=53
70118 Par ch=12 c=7 v=54
70144 Par ch=12 c=7 v=55
70169 Par ch=12 c=7 v=56
70195 Par ch=12 c=7 v=57
70220 Par ch=12 c=7 v=58
70246 Par ch=12 c=7 v=59
70272 On ch=12 n=g5 v=0
70272 Par ch=12 c=7 v=60
70272 On ch=12 n=g#5 v=110
70297 Par ch=12 c=7 v=59
70323 Par ch=12 c=7 v=58
70348 Par ch=12 c=7 v=57
70374 Par ch=12 c=7 v=56
70400 Par ch=12 c=7 v=55
70425 Par ch=12 c=7 v=54
70451 Par ch=12 c=7 v=53
70476 Par ch=12 c=7 v=52
70502 Par ch=12 c=7 v=51
70528 Par ch=12 c=7 v=50
70553 Par ch=12 c=7 v=49
70579 Par ch=12 c=7 v=48
70604 Par ch=12 c=7 v=47
70630 Par ch=12 c=7 v=46
70656 On ch=12 n=g#5 v=0
70656 Par ch=12 c=7 v=45
70656 Par ch=12 c=7 v=45
70656 On ch=12 n=a#5 v=110
70686 Par ch=12 c=7 v=46
70716 Par ch=12 c=7 v=47
70747 Par ch=12 c=7 v=48
70777 Par ch=12 c=7 v=49
70808 Par ch=12 c=7 v=50
70838 Par ch=12 c=7 v=51
70869 Par ch=12 c=7 v=52
70899 Par ch=12 c=7 v=53
70930 Par ch=12 c=7 v=54
70960 Par ch=12 c=7 v=55
70991 Par ch=12 c=7 v=56
71021 Par ch=12 c=7 v=57
71040 On ch=12 n=a#5 v=0
71040 On ch=12 n=b5 v=110
71052 Par ch=12 c=7 v=58
71082 Par ch=12 c=7 v=59
71113 Par ch=12 c=7 v=60
71143 Par ch=12 c=7 v=61
71174 Par ch=12 c=7 v=62
71204 Par ch=12 c=7 v=63
71235 Par ch=12 c=7 v=64
71265 Par ch=12 c=7 v=65
71296 Par ch=12 c=7 v=66
71326 Par ch=12 c=7 v=67
71356 Par ch=12 c=7 v=68
71387 Par ch=12 c=7 v=69
71417 Par ch=12 c=7 v=70
71424 On ch=12 n=b5 v=0
71424 On ch=12 n=a#5 v=110
71448 Par ch=12 c=7 v=71
71478 Par ch=12 c=7 v=72
71509 Par ch=12 c=7 v=73
71539 Par ch=12 c=7 v=74
71570 Par ch=12 c=7 v=75
71600 Par ch=12 c=7 v=76
71631 Par ch=12 c=7 v=77
71661 Par ch=12 c=7 v=78
71692 Par ch=12 c=7 v=79
71722 Par ch=12 c=7 v=80
71753 Par ch=12 c=7 v=81
71783 Par ch=12 c=7 v=82
71808 On ch=12 n=a#5 v=0
71808 On ch=12 n=c6 v=110
71814 Par ch=12 c=7 v=83
71844 Par ch=12 c=7 v=84
71875 Par ch=12 c=7 v=85
71905 Par ch=12 c=7 v=86
71936 Par ch=12 c=7 v=87
71966 Par ch=12 c=7 v=88
71996 Par ch=12 c=7 v=89
72027 Par ch=12 c=7 v=90
72057 Par ch=12 c=7 v=91
72088 Par ch=12 c=7 v=92
72118 Par ch=12 c=7 v=93
72149 Par ch=12 c=7 v=94
72179 Par ch=12 c=7 v=95
72192 On ch=12 n=c6 v=0
72192 On ch=12 n=d6 v=110
72210 Par ch=12 c=7 v=96
72240 Par ch=12 c=7 v=97
72271 Par ch=12 c=7 v=98
72301 Par ch=12 c=7 v=99
72332 Par ch=12 c=7 v=100
72362 Par ch=12 c=7 v=101
72384 On ch=12 n=d6 v=0
72384 On ch=12 n=b5 v=110
72393 Par ch=12 c=7 v=102
72423 Par ch=12 c=7 v=103
72454 Par ch=12 c=7 v=104
72484 Par ch=12 c=7 v=105
72515 Par ch=12 c=7 v=106
72545 Par ch=12 c=7 v=107
72576 On ch=12 n=b5 v=0
72576 Par ch=12 c=7 v=108
72576 On ch=12 n=d5 v=110
72576 On ch=12 n=b5 v=110
72576 On ch=12 n=b6 v=110
72594 Par ch=12 c=7 v=107
72612 Par ch=12 c=7 v=106
72630 Par ch=12 c=7 v=105
72649 Par ch=12 c=7 v=104
72667 Par ch=12 c=7 v=103
72685 Par ch=12 c=7 v=102
72704 Par ch=12 c=7 v=101
72722 Par ch=12 c=7 v=100
72740 Par ch=12 c=7 v=99
72758 Par ch=12 c=7 v=98
72768 On ch=12 n=d5 v=0
72768 On ch=12 n=b5 v=0
72768 On ch=12 n=b6 v=0
72768 On ch=12 n=a5 v=110
72768 On ch=12 n=a6 v=110
72777 Par ch=12 c=7 v=97
72795 Par ch=12 c=7 v=96
72813 Par ch=12 c=7 v=95
72832 Par ch=12 c=7 v=94
72850 Par ch=12 c=7 v=93
72868 Par ch=12 c=7 v=92
72886 Par ch=12 c=7 v=91
72905 Par ch=12 c=7 v=90
72923 Par ch=12 c=7 v=89
72941 Par ch=12 c=7 v=88
72960 On ch=12 n=a5 v=0
72960 On ch=12 n=a6 v=0
72960 Par ch=12 c=7 v=87
72960 On ch=12 n=g#6 v=110
72978 Par ch=12 c=7 v=86
72996 Par ch=12 c=7 v=85
73014 Par ch=12 c=7 v=84
73033 Par ch=12 c=7 v=83
73051 Par ch=12 c=7 v=82
73069 Par ch=12 c=7 v=81
73088 Par ch=12 c=7 v=80
73106 Par ch=12 c=7 v=79
73124 Par ch=12 c=7 v=78
73142 Par ch=12 c=7 v=77
73161 Par ch=12 c=7 v=76
73179 Par ch=12 c=7 v=75
73197 Par ch=12 c=7 v=74
73216 Par ch=12 c=7 v=73
73234 Par ch=12 c=7 v=72
73252 Par ch=12 c=7 v=71
73270 Par ch=12 c=7 v=70
73289 Par ch=12 c=7 v=69
73307 Par ch=12 c=7 v=68
73325 Par ch=12 c=7 v=67
73344 On ch=12 n=g#6 v=0
73344 Par ch=12 c=7 v=66
73344 On ch=12 n=g6 v=110
73362 Par ch=12 c=7 v=65
73380 Par ch=12 c=7 v=64
73398 Par ch=12 c=7 v=63
73417 Par ch=12 c=7 v=62
73435 Par ch=12 c=7 v=61
73453 Par ch=12 c=7 v=60
73472 Par ch=12 c=7 v=59
73490 Par ch=12 c=7 v=58
73508 Par ch=12 c=7 v=57
73526 Par ch=12 c=7 v=56
73545 Par ch=12 c=7 v=55
73563 Par ch=12 c=7 v=54
73581 Par ch=12 c=7 v=53
73600 Par ch=12 c=7 v=52
73618 Par ch=12 c=7 v=51
73636 Par ch=12 c=7 v=50
73654 Par ch=12 c=7 v=49
73673 Par ch=12 c=7 v=48
73691 Par ch=12 c=7 v=47
73709 Par ch=12 c=7 v=46
73728 On ch=12 n=g6 v=0
73728 Par ch=12 c=7 v=45
73728 On ch=12 n=f#6 v=110
73822 On ch=12 n=f#6 v=0
84480 Par ch=12 c=7 v=75
85056 On ch=12 n=c#5 v=110
85344 On ch=12 n=c#5 v=0
85344 On ch=12 n=d5 v=110
85438 On ch=12 n=d5 v=0
85440 On ch=12 n=b4 v=110
85536 On ch=12 n=b4 v=0
85536 On ch=12 n=g#4 v=110
85630 On ch=12 n=g#4 v=0
85632 Par ch=12 c=7 v=75
85632 On ch=12 n=c#5 v=110
85640 Par ch=12 c=7 v=74
85649 Par ch=12 c=7 v=73
85657 Par ch=12 c=7 v=72
85666 Par ch=12 c=7 v=71
85674 Par ch=12 c=7 v=70
85683 Par ch=12 c=7 v=69
85691 Par ch=12 c=7 v=68
85700 Par ch=12 c=7 v=67
85708 Par ch=12 c=7 v=66
85717 Par ch=12 c=7 v=65
85725 Par ch=12 c=7 v=64
85734 Par ch=12 c=7 v=63
85742 Par ch=12 c=7 v=62
85751 Par ch=12 c=7 v=61
85760 Par ch=12 c=7 v=60
85768 Par ch=12 c=7 v=59
85777 Par ch=12 c=7 v=58
85785 Par ch=12 c=7 v=57
85794 Par ch=12 c=7 v=56
85802 Par ch=12 c=7 v=55
85811 Par ch=12 c=7 v=54
85819 Par ch=12 c=7 v=53
85828 Par ch=12 c=7 v=52
85836 Par ch=12 c=7 v=51
85845 Par ch=12 c=7 v=50
85853 Par ch=12 c=7 v=49
85862 Par ch=12 c=7 v=48
85870 Par ch=12 c=7 v=47
85879 Par ch=12 c=7 v=46
85888 Par ch=12 c=7 v=45
85896 Par ch=12 c=7 v=44
85905 Par ch=12 c=7 v=43
85913 Par ch=12 c=7 v=42
85922 Par ch=12 c=7 v=41
85930 Par ch=12 c=7 v=40
85939 Par ch=12 c=7 v=39
85947 Par ch=12 c=7 v=38
85956 Par ch=12 c=7 v=37
85964 Par ch=12 c=7 v=36
85973 Par ch=12 c=7 v=35
85981 Par ch=12 c=7 v=34
85990 Par ch=12 c=7 v=33
85998 Par ch=12 c=7 v=32
86007 Par ch=12 c=7 v=31
86016 Par ch=12 c=7 v=30
86592 Par ch=12 c=7 v=30
86604 Par ch=12 c=7 v=31
86617 Par ch=12 c=7 v=32
86630 Par ch=12 c=7 v=33
86643 Par ch=12 c=7 v=34
86656 Par ch=12 c=7 v=35
86668 Par ch=12 c=7 v=36
86681 Par ch=12 c=7 v=37
86694 Par ch=12 c=7 v=38
86707 Par ch=12 c=7 v=39
86720 Par ch=12 c=7 v=40
86732 Par ch=12 c=7 v=41
86745 Par ch=12 c=7 v=42
86758 Par ch=12 c=7 v=43
86771 Par ch=12 c=7 v=44
86784 On ch=12 n=c#5 v=0
86784 Par ch=12 c=7 v=45
86784 On ch=12 n=c5 v=110
86796 Par ch=12 c=7 v=44
86809 Par ch=12 c=7 v=43
86822 Par ch=12 c=7 v=42
86835 Par ch=12 c=7 v=41
86848 Par ch=12 c=7 v=40
86860 Par ch=12 c=7 v=39
86873 Par ch=12 c=7 v=38
86886 Par ch=12 c=7 v=37
86899 Par ch=12 c=7 v=36
86912 Par ch=12 c=7 v=35
86924 Par ch=12 c=7 v=34
86937 Par ch=12 c=7 v=33
86950 Par ch=12 c=7 v=32
86963 Par ch=12 c=7 v=31
86976 Par ch=12 c=7 v=30
87168 Par ch=12 c=7 v=30
87646 On ch=12 n=c5 v=0
88320 PrCh ch=12 p=45
88512 Par ch=12 c=7 v=75
88608 On ch=12 n=b4 v=110
88608 On ch=12 n=b5 v=110
88702 On ch=12 n=b4 v=0
88702 On ch=12 n=b5 v=0
88704 On ch=12 n=c#5 v=110
88704 On ch=12 n=c#6 v=110
88798 On ch=12 n=c#5 v=0
88798 On ch=12 n=c#6 v=0
88992 On ch=12 n=a4 v=110
88992 On ch=12 n=a5 v=110
89086 On ch=12 n=a4 v=0
89086 On ch=12 n=a5 v=0
89088 On ch=12 n=b4 v=110
89088 On ch=12 n=b5 v=110
89182 On ch=12 n=b4 v=0
89182 On ch=12 n=b5 v=0
89376 On ch=12 n=g#4 v=110
89376 On ch=12 n=g#5 v=110
89470 On ch=12 n=g#4 v=0
89470 On ch=12 n=g#5 v=0
89472 On ch=12 n=a4 v=110
89472 On ch=12 n=a5 v=110
89566 On ch=12 n=a4 v=0
89566 On ch=12 n=a5 v=0
89760 On ch=12 n=a4 v=110
89760 On ch=12 n=f#5 v=110
89854 On ch=12 n=a4 v=0
89854 On ch=12 n=f#5 v=0
89856 On ch=12 n=b4 v=110
89856 On ch=12 n=b5 v=110
89950 On ch=12 n=b4 v=0
89950 On ch=12 n=b5 v=0
90144 Par ch=12 c=7 v=75
90144 On ch=12 n=f#5 v=110
90144 On ch=12 n=f#6 v=110
90211 Par ch=12 c=7 v=76
90238 On ch=12 n=f#5 v=0
90238 On ch=12 n=f#6 v=0
90240 On ch=12 n=g#5 v=110
90240 On ch=12 n=g#6 v=110
90279 Par ch=12 c=7 v=77
90334 On ch=12 n=g#5 v=0
90334 On ch=12 n=g#6 v=0
90347 Par ch=12 c=7 v=78
90415 Par ch=12 c=7 v=79
90482 Par ch=12 c=7 v=80
90528 On ch=12 n=f6 v=110
90528 On ch=12 n=f5 v=110
90550 Par ch=12 c=7 v=81
90618 Par ch=12 c=7 v=82
90622 On ch=12 n=f6 v=0
90622 On ch=12 n=f5 v=0
90624 On ch=12 n=f#5 v=110
90624 On ch=12 n=f#6 v=110
90686 Par ch=12 c=7 v=83
90718 On ch=12 n=f#5 v=0
90718 On ch=12 n=f#6 v=0
90753 Par ch=12 c=7 v=84
90821 Par ch=12 c=7 v=85
90889 Par ch=12 c=7 v=86
90912 On ch=12 n=d#5 v=110
90912 On ch=12 n=d#6 v=110
90957 Par ch=12 c=7 v=87
91006 On ch=12 n=d#5 v=0
91006 On ch=12 n=d#6 v=0
91008 On ch=12 n=e5 v=110
91008 On ch=12 n=e6 v=110
91024 Par ch=12 c=7 v=88
91092 Par ch=12 c=7 v=89
91102 On ch=12 n=e5 v=0
91102 On ch=12 n=e6 v=0
91160 Par ch=12 c=7 v=90
91228 Par ch=12 c=7 v=91
91296 Par ch=12 c=7 v=92
91296 On ch=12 n=c#5 v=110
91296 On ch=12 n=c#6 v=110
91390 On ch=12 n=c#5 v=0
91390 On ch=12 n=c#6 v=0
91392 Par ch=12 c=7 v=92
91392 On ch=12 n=d#5 v=110
91392 On ch=12 n=d#6 v=110
91408 Par ch=12 c=7 v=91
91425 Par ch=12 c=7 v=90
91442 Par ch=12 c=7 v=89
91459 Par ch=12 c=7 v=88
91476 Par ch=12 c=7 v=87
91493 Par ch=12 c=7 v=86
91510 Par ch=12 c=7 v=85
91527 Par ch=12 c=7 v=84
91544 Par ch=12 c=7 v=83
91552 On ch=12 n=d#5 v=0
91552 On ch=12 n=d#6 v=0
91561 Par ch=12 c=7 v=82
91578 Par ch=12 c=7 v=81
91584 On ch=12 n=e5 v=110
91584 On ch=12 n=e6 v=110
91595 Par ch=12 c=7 v=80
91612 Par ch=12 c=7 v=79
91629 Par ch=12 c=7 v=78
91646 Par ch=12 c=7 v=77
91663 Par ch=12 c=7 v=76
91678 On ch=12 n=e5 v=0
91678 On ch=12 n=e6 v=0
91680 Par ch=12 c=7 v=75
91680 On ch=12 n=b5 v=110
91680 On ch=12 n=b6 v=110
91774 On ch=12 n=b5 v=0
91774 On ch=12 n=b6 v=0
91776 On ch=12 n=c#6 v=110
91776 On ch=12 n=c#7 v=110
91936 On ch=12 n=c#6 v=0
91936 On ch=12 n=c#7 v=0
92064 On ch=12 n=b5 v=110
92064 On ch=12 n=b6 v=110
92158 On ch=12 n=b5 v=0
92158 On ch=12 n=b6 v=0
92160 On ch=12 n=c6 v=110
92160 On ch=12 n=c7 v=110
92254 On ch=12 n=c6 v=0
92254 On ch=12 n=c7 v=0
92448 On ch=12 n=a#5 v=110
92448 On ch=12 n=a#6 v=110
92542 On ch=12 n=a#5 v=0
92542 On ch=12 n=a#6 v=0
92544 On ch=12 n=b5 v=110
92544 On ch=12 n=b6 v=110
92638 On ch=12 n=b5 v=0
92638 On ch=12 n=b6 v=0
92832 On ch=12 n=f#5 v=110
92832 On ch=12 n=f#6 v=110
92926 On ch=12 n=f#5 v=0
92926 On ch=12 n=f#6 v=0
92928 Par ch=12 c=7 v=75
92928 On ch=12 n=g#5 v=110
92928 On ch=12 n=g#6 v=110
92979 Par ch=12 c=7 v=74
93022 On ch=12 n=g#5 v=0
93022 On ch=12 n=g#6 v=0
93030 Par ch=12 c=7 v=73
93081 Par ch=12 c=7 v=72
93132 Par ch=12 c=7 v=71
93184 Par ch=12 c=7 v=70
93216 On ch=12 n=d#6 v=110
93216 On ch=12 n=d#5 v=110
93235 Par ch=12 c=7 v=69
93286 Par ch=12 c=7 v=68
93310 On ch=12 n=d#6 v=0
93310 On ch=12 n=d#5 v=0
93312 On ch=12 n=e5 v=110
93312 On ch=12 n=e6 v=110
93337 Par ch=12 c=7 v=67
93388 Par ch=12 c=7 v=66
93406 On ch=12 n=e5 v=0
93406 On ch=12 n=e6 v=0
93440 Par ch=12 c=7 v=65
93491 Par ch=12 c=7 v=64
93542 Par ch=12 c=7 v=63
93593 Par ch=12 c=7 v=62
93600 On ch=12 n=a#4 v=110
93600 On ch=12 n=a#5 v=110
93644 Par ch=12 c=7 v=61
93694 On ch=12 n=a#4 v=0
93694 On ch=12 n=a#5 v=0
93696 Par ch=12 c=7 v=60
93696 On ch=12 n=b4 v=110
93696 On ch=12 n=b5 v=110
93747 Par ch=12 c=7 v=59
93790 On ch=12 n=b4 v=0
93790 On ch=12 n=b5 v=0
93798 Par ch=12 c=7 v=58
93849 Par ch=12 c=7 v=57
93900 Par ch=12 c=7 v=56
93952 Par ch=12 c=7 v=55
93984 On ch=12 n=f#5 v=110
94003 Par ch=12 c=7 v=54
94054 Par ch=12 c=7 v=53
94078 On ch=12 n=f#5 v=0
94080 On ch=12 n=g#4 v=110
94080 On ch=12 n=g#5 v=110
94105 Par ch=12 c=7 v=52
94156 Par ch=12 c=7 v=51
94174 On ch=12 n=g#4 v=0
94174 On ch=12 n=g#5 v=0
94208 Par ch=12 c=7 v=50
94259 Par ch=12 c=7 v=49
94310 Par ch=12 c=7 v=48
94361 Par ch=12 c=7 v=47
94368 On ch=12 n=a#4 v=110
94412 Par ch=12 c=7 v=46
94462 On ch=12 n=a#4 v=0
94464 Par ch=12 c=7 v=45
94464 On ch=12 n=b4 v=110
94558 On ch=12 n=b4 v=0
94752 On ch=12 n=a#4 v=110
94846 On ch=12 n=a#4 v=0
94848 On ch=12 n=b4 v=110
94942 On ch=12 n=b4 v=0
95232 PrCh ch=12 p=48
95616 On ch=12 n=b5 v=110
95808 On ch=12 n=b5 v=0
95808 Par ch=12 c=7 v=45
95808 On ch=12 n=b5 v=110
95808 On ch=12 n=b6 v=110
95810 Par ch=12 c=7 v=46
95812 Par ch=12 c=7 v=47
95815 Par ch=12 c=7 v=48
95817 Par ch=12 c=7 v=49
95819 Par ch=12 c=7 v=50
95822 Par ch=12 c=7 v=51
95824 Par ch=12 c=7 v=52
95826 Par ch=12 c=7 v=53
95829 Par ch=12 c=7 v=54
95831 Par ch=12 c=7 v=55
95833 Par ch=12 c=7 v=56
95836 Par ch=12 c=7 v=57
95838 Par ch=12 c=7 v=58
95840 Par ch=12 c=7 v=59
95843 Par ch=12 c=7 v=60
95845 Par ch=12 c=7 v=61
95847 Par ch=12 c=7 v=62
95850 Par ch=12 c=7 v=63
95852 Par ch=12 c=7 v=64
95854 Par ch=12 c=7 v=65
95857 Par ch=12 c=7 v=66
95859 Par ch=12 c=7 v=67
95861 Par ch=12 c=7 v=68
95864 Par ch=12 c=7 v=69
95866 Par ch=12 c=7 v=70
95868 Par ch=12 c=7 v=71
95871 Par ch=12 c=7 v=72
95873 Par ch=12 c=7 v=73
95875 Par ch=12 c=7 v=74
95878 Par ch=12 c=7 v=75
95880 Par ch=12 c=7 v=76
95882 Par ch=12 c=7 v=77
95885 Par ch=12 c=7 v=78
95887 Par ch=12 c=7 v=79
95889 Par ch=12 c=7 v=80
95892 Par ch=12 c=7 v=81
95894 Par ch=12 c=7 v=82
95896 Par ch=12 c=7 v=83
95899 Par ch=12 c=7 v=84
95901 Par ch=12 c=7 v=85
95903 Par ch=12 c=7 v=86
95906 Par ch=12 c=7 v=87
95908 Par ch=12 c=7 v=88
95911 Par ch=12 c=7 v=89
95913 Par ch=12 c=7 v=90
95915 Par ch=12 c=7 v=91
95918 Par ch=12 c=7 v=92
95920 Par ch=12 c=7 v=93
95922 Par ch=12 c=7 v=94
95925 Par ch=12 c=7 v=95
95927 Par ch=12 c=7 v=96
95929 Par ch=12 c=7 v=97
95932 Par ch=12 c=7 v=98
95934 Par ch=12 c=7 v=99
95936 Par ch=12 c=7 v=100
95939 Par ch=12 c=7 v=101
95941 Par ch=12 c=7 v=102
95943 Par ch=12 c=7 v=103
95946 Par ch=12 c=7 v=104
95948 Par ch=12 c=7 v=105
95950 Par ch=12 c=7 v=106
95953 Par ch=12 c=7 v=107
95955 Par ch=12 c=7 v=108
95957 Par ch=12 c=7 v=109
95960 Par ch=12 c=7 v=110
95962 Par ch=12 c=7 v=111
95964 Par ch=12 c=7 v=112
95967 Par ch=12 c=7 v=113
95968 On ch=12 n=b5 v=0
95968 On ch=12 n=b6 v=0
95969 Par ch=12 c=7 v=114
95971 Par ch=12 c=7 v=115
95974 Par ch=12 c=7 v=116
95976 Par ch=12 c=7 v=117
95978 Par ch=12 c=7 v=118
95981 Par ch=12 c=7 v=119
95983 Par ch=12 c=7 v=120
95985 Par ch=12 c=7 v=121
95988 Par ch=12 c=7 v=122
95990 Par ch=12 c=7 v=123
95992 Par ch=12 c=7 v=124
95995 Par ch=12 c=7 v=125
95997 Par ch=12 c=7 v=126
96000 Par ch=12 c=7 v=127
96000 On ch=12 n=a4 v=110
96000 On ch=12 n=f5 v=110
96000 On ch=12 n=c6 v=110
96000 On ch=12 n=c7 v=110
96094 On ch=12 n=a4 v=0
96094 On ch=12 n=f5 v=0
96094 On ch=12 n=c6 v=0
96094 On ch=12 n=c7 v=0
98304 Par ch=12 c=7 v=75
99072 PrCh ch=12 p=45
99456 On ch=12 n=e5 v=110
99550 On ch=12 n=e5 v=0
110976 PrCh ch=12 p=48
111936 Par ch=12 c=7 v=45
111936 On ch=12 n=b5 v=110
111948 Par ch=12 c=7 v=46
111961 Par ch=12 c=7 v=47
111974 Par ch=12 c=7 v=48
111987 Par ch=12 c=7 v=49
112000 Par ch=12 c=7 v=50
112012 Par ch=12 c=7 v=51
112025 Par ch=12 c=7 v=52
112038 Par ch=12 c=7 v=53
112051 Par ch=12 c=7 v=54
112064 Par ch=12 c=7 v=55
112076 Par ch=12 c=7 v=56
112089 Par ch=12 c=7 v=57
112102 Par ch=12 c=7 v=58
112115 Par ch=12 c=7 v=59
112128 On ch=12 n=b5 v=0
112128 Par ch=12 c=7 v=60
112128 Par ch=12 c=7 v=60
112128 On ch=12 n=e6 v=110
112140 Par ch=12 c=7 v=61
112153 Par ch=12 c=7 v=62
112166 Par ch=12 c=7 v=63
112179 Par ch=12 c=7 v=64
112192 Par ch=12 c=7 v=65
112204 Par ch=12 c=7 v=66
112217 Par ch=12 c=7 v=67
112230 Par ch=12 c=7 v=68
112243 Par ch=12 c=7 v=69
112256 Par ch=12 c=7 v=70
112268 Par ch=12 c=7 v=71
112281 Par ch=12 c=7 v=72
112294 Par ch=12 c=7 v=73
112307 Par ch=12 c=7 v=74
112320 On ch=12 n=e6 v=0
112320 Par ch=12 c=7 v=75
112320 On ch=12 n=f6 v=110
112512 On ch=12 n=f6 v=0
112512 On ch=12 n=f6 v=110
112896 On ch=12 n=f6 v=0
112896 Par ch=12 c=7 v=60
112896 On ch=12 n=f#6 v=110
112908 Par ch=12 c=7 v=61
112921 Par ch=12 c=7 v=62
112934 Par ch=12 c=7 v=63
112947 Par ch=12 c=7 v=64
112960 Par ch=12 c=7 v=65
112972 Par ch=12 c=7 v=66
112985 Par ch=12 c=7 v=67
112998 Par ch=12 c=7 v=68
113011 Par ch=12 c=7 v=69
113024 Par ch=12 c=7 v=70
113036 Par ch=12 c=7 v=71
113049 Par ch=12 c=7 v=72
113062 Par ch=12 c=7 v=73
113075 Par ch=12 c=7 v=74
113088 On ch=12 n=f#6 v=0
113088 Par ch=12 c=7 v=75
113088 On ch=12 n=a6 v=110
113100 Par ch=12 c=7 v=74
113113 Par ch=12 c=7 v=73
113126 Par ch=12 c=7 v=72
113139 Par ch=12 c=7 v=71
113152 Par ch=12 c=7 v=70
113164 Par ch=12 c=7 v=69
113177 Par ch=12 c=7 v=68
113190 Par ch=12 c=7 v=67
113203 Par ch=12 c=7 v=66
113216 Par ch=12 c=7 v=65
113228 Par ch=12 c=7 v=64
113241 Par ch=12 c=7 v=63
113254 Par ch=12 c=7 v=62
113267 Par ch=12 c=7 v=61
113280 On ch=12 n=a6 v=0
113280 Par ch=12 c=7 v=60
113280 On ch=12 n=d#6 v=110
113664 On ch=12 n=d#6 v=0
113664 Par ch=12 c=7 v=60
113664 On ch=12 n=e6 v=110
113676 Par ch=12 c=7 v=61
113689 Par ch=12 c=7 v=62
113702 Par ch=12 c=7 v=63
113715 Par ch=12 c=7 v=64
113728 Par ch=12 c=7 v=65
113740 Par ch=12 c=7 v=66
113753 Par ch=12 c=7 v=67
113766 Par ch=12 c=7 v=68
113779 Par ch=12 c=7 v=69
113792 Par ch=12 c=7 v=70
113804 Par ch=12 c=7 v=71
113817 Par ch=12 c=7 v=72
113830 Par ch=12 c=7 v=73
113843 Par ch=12 c=7 v=74
113856 On ch=12 n=e6 v=0
113856 Par ch=12 c=7 v=75
113856 On ch=12 n=g#6 v=110
113868 Par ch=12 c=7 v=74
113881 Par ch=12 c=7 v=73
113894 Par ch=12 c=7 v=72
113907 Par ch=12 c=7 v=71
113920 Par ch=12 c=7 v=70
113932 Par ch=12 c=7 v=69
113945 Par ch=12 c=7 v=68
113958 Par ch=12 c=7 v=67
113971 Par ch=12 c=7 v=66
113984 Par ch=12 c=7 v=65
113996 Par ch=12 c=7 v=64
114009 Par ch=12 c=7 v=63
114022 Par ch=12 c=7 v=62
114035 Par ch=12 c=7 v=61
114048 On ch=12 n=g#6 v=0
114048 Par ch=12 c=7 v=60
114048 On ch=12 n=c#6 v=110
114073 Par ch=12 c=7 v=59
114099 Par ch=12 c=7 v=58
114124 Par ch=12 c=7 v=57
114150 Par ch=12 c=7 v=56
114176 Par ch=12 c=7 v=55
114201 Par ch=12 c=7 v=54
114227 Par ch=12 c=7 v=53
114252 Par ch=12 c=7 v=52
114278 Par ch=12 c=7 v=51
114304 Par ch=12 c=7 v=50
114329 Par ch=12 c=7 v=49
114355 Par ch=12 c=7 v=48
114380 Par ch=12 c=7 v=47
114406 Par ch=12 c=7 v=46
114432 On ch=12 n=c#6 v=0
114432 Par ch=12 c=7 v=45
114432 On ch=12 n=e6 v=110
114624 On ch=12 n=e6 v=0
114624 On ch=12 n=f#6 v=110
114816 On ch=12 n=f#6 v=0
114816 On ch=12 n=g#6 v=110
114976 On ch=12 n=g#6 v=0
115008 On ch=12 n=g#6 v=110
115200 Par ch=12 c=7 v=45
115225 Par ch=12 c=7 v=46
115251 Par ch=12 c=7 v=47
115276 Par ch=12 c=7 v=48
115294 On ch=12 n=g#6 v=0
115296 On ch=12 n=g#6 v=110
115302 Par ch=12 c=7 v=49
115328 Par ch=12 c=7 v=50
115353 Par ch=12 c=7 v=51
115379 Par ch=12 c=7 v=52
115392 On ch=12 n=g#6 v=0
115392 On ch=12 n=f#6 v=110
115404 Par ch=12 c=7 v=53
115430 Par ch=12 c=7 v=54
115456 Par ch=12 c=7 v=55
115481 Par ch=12 c=7 v=56
115488 On ch=12 n=f#6 v=0
115488 On ch=12 n=g#6 v=110
115507 Par ch=12 c=7 v=57
115532 Par ch=12 c=7 v=58
115558 Par ch=12 c=7 v=59
115582 On ch=12 n=g#6 v=0
115584 Par ch=12 c=7 v=60
115584 On ch=12 n=g#6 v=110
115609 Par ch=12 c=7 v=59
115635 Par ch=12 c=7 v=58
115660 Par ch=12 c=7 v=57
115680 On ch=12 n=g#6 v=0
115680 On ch=12 n=a6 v=110
115686 Par ch=12 c=7 v=56
115712 Par ch=12 c=7 v=55
115737 Par ch=12 c=7 v=54
115763 Par ch=12 c=7 v=53
115776 On ch=12 n=a6 v=0
115776 On ch=12 n=f#6 v=110
115788 Par ch=12 c=7 v=52
115814 Par ch=12 c=7 v=51
115840 Par ch=12 c=7 v=50
115865 Par ch=12 c=7 v=49
115872 On ch=12 n=f#6 v=0
115872 On ch=12 n=e6 v=110
115891 Par ch=12 c=7 v=48
115916 Par ch=12 c=7 v=47
115942 Par ch=12 c=7 v=46
115966 On ch=12 n=e6 v=0
115968 Par ch=12 c=7 v=45
115968 Par ch=12 c=7 v=45
115968 On ch=12 n=g#6 v=110
115993 Par ch=12 c=7 v=46
116019 Par ch=12 c=7 v=47
116044 Par ch=12 c=7 v=48
116070 Par ch=12 c=7 v=49
116096 Par ch=12 c=7 v=50
116121 Par ch=12 c=7 v=51
116147 Par ch=12 c=7 v=52
116172 Par ch=12 c=7 v=53
116198 Par ch=12 c=7 v=54
116224 Par ch=12 c=7 v=55
116249 Par ch=12 c=7 v=56
116275 Par ch=12 c=7 v=57
116300 Par ch=12 c=7 v=58
116326 Par ch=12 c=7 v=59
116352 Par ch=12 c=7 v=60
116377 Par ch=12 c=7 v=59
116403 Par ch=12 c=7 v=58
116428 Par ch=12 c=7 v=57
116446 On ch=12 n=g#6 v=0
116448 On ch=12 n=f#6 v=110
116454 Par ch=12 c=7 v=56
116480 Par ch=12 c=7 v=55
116505 Par ch=12 c=7 v=54
116531 Par ch=12 c=7 v=53
116544 On ch=12 n=f#6 v=0
116544 On ch=12 n=g#6 v=110
116556 Par ch=12 c=7 v=52
116582 Par ch=12 c=7 v=51
116608 Par ch=12 c=7 v=50
116633 Par ch=12 c=7 v=49
116640 On ch=12 n=g#6 v=0
116640 On ch=12 n=f#6 v=110
116659 Par ch=12 c=7 v=48
116684 Par ch=12 c=7 v=47
116710 Par ch=12 c=7 v=46
116734 On ch=12 n=f#6 v=0
116736 Par ch=12 c=7 v=45
116736 On ch=12 n=g#6 v=110
116748 Par ch=12 c=7 v=44
116761 Par ch=12 c=7 v=43
116774 Par ch=12 c=7 v=42
116787 Par ch=12 c=7 v=41
116800 Par ch=12 c=7 v=40
116812 Par ch=12 c=7 v=39
116825 Par ch=12 c=7 v=38
116838 Par ch=12 c=7 v=37
116851 Par ch=12 c=7 v=36
116864 Par ch=12 c=7 v=35
116876 Par ch=12 c=7 v=34
116889 Par ch=12 c=7 v=33
116902 Par ch=12 c=7 v=32
116915 Par ch=12 c=7 v=31
116928 Par ch=12 c=7 v=30
117214 On ch=12 n=g#6 v=0
117504 Par ch=12 c=7 v=45
117696 On ch=12 n=e6 v=110
117888 Par ch=12 c=7 v=45
117913 Par ch=12 c=7 v=46
117939 Par ch=12 c=7 v=47
117964 Par ch=12 c=7 v=48
117982 On ch=12 n=e6 v=0
117984 On ch=12 n=e6 v=110
117990 Par ch=12 c=7 v=49
118016 Par ch=12 c=7 v=50
118041 Par ch=12 c=7 v=51
118067 Par ch=12 c=7 v=52
118080 On ch=12 n=e6 v=0
118080 On ch=12 n=d6 v=110
118092 Par ch=12 c=7 v=53
118118 Par ch=12 c=7 v=54
118144 Par ch=12 c=7 v=55
118169 Par ch=12 c=7 v=56
118176 On ch=12 n=d6 v=0
118176 On ch=12 n=e6 v=110
118195 Par ch=12 c=7 v=57
118220 Par ch=12 c=7 v=58
118246 Par ch=12 c=7 v=59
118270 On ch=12 n=e6 v=0
118272 Par ch=12 c=7 v=60
118272 On ch=12 n=e6 v=110
118297 Par ch=12 c=7 v=59
118323 Par ch=12 c=7 v=58
118348 Par ch=12 c=7 v=57
118368 On ch=12 n=e6 v=0
118368 On ch=12 n=f6 v=110
118374 Par ch=12 c=7 v=56
118400 Par ch=12 c=7 v=55
118425 Par ch=12 c=7 v=54
118451 Par ch=12 c=7 v=53
118464 On ch=12 n=f6 v=0
118464 On ch=12 n=d6 v=110
118476 Par ch=12 c=7 v=52
118502 Par ch=12 c=7 v=51
118528 Par ch=12 c=7 v=50
118553 Par ch=12 c=7 v=49
118560 On ch=12 n=d6 v=0
118560 On ch=12 n=c#6 v=110
118579 Par ch=12 c=7 v=48
118604 Par ch=12 c=7 v=47
118630 Par ch=12 c=7 v=46
118654 On ch=12 n=c#6 v=0
118656 Par ch=12 c=7 v=45
118656 Par ch=12 c=7 v=45
118656 On ch=12 n=e6 v=110
118681 Par ch=12 c=7 v=46
118707 Par ch=12 c=7 v=47
118732 Par ch=12 c=7 v=48
118758 Par ch=12 c=7 v=49
118784 Par ch=12 c=7 v=50
118809 Par ch=12 c=7 v=51
118835 Par ch=12 c=7 v=52
118860 Par ch=12 c=7 v=53
118886 Par ch=12 c=7 v=54
118912 Par ch=12 c=7 v=55
118937 Par ch=12 c=7 v=56
118963 Par ch=12 c=7 v=57
118988 Par ch=12 c=7 v=58
119014 Par ch=12 c=7 v=59
119040 Par ch=12 c=7 v=60
119065 Par ch=12 c=7 v=59
119091 Par ch=12 c=7 v=58
119116 Par ch=12 c=7 v=57
119134 On ch=12 n=e6 v=0
119136 On ch=12 n=d#6 v=110
119142 Par ch=12 c=7 v=56
119168 Par ch=12 c=7 v=55
119193 Par ch=12 c=7 v=54
119219 Par ch=12 c=7 v=53
119232 On ch=12 n=d#6 v=0
119232 On ch=12 n=e6 v=110
119244 Par ch=12 c=7 v=52
119270 Par ch=12 c=7 v=51
119296 Par ch=12 c=7 v=50
119321 Par ch=12 c=7 v=49
119328 On ch=12 n=e6 v=0
119328 On ch=12 n=d#6 v=110
119347 Par ch=12 c=7 v=48
119372 Par ch=12 c=7 v=47
119398 Par ch=12 c=7 v=46
119422 On ch=12 n=d#6 v=0
119424 Par ch=12 c=7 v=45
119424 On ch=12 n=e6 v=110
119449 Par ch=12 c=7 v=44
119475 Par ch=12 c=7 v=43
119500 Par ch=12 c=7 v=42
119526 Par ch=12 c=7 v=41
119552 Par ch=12 c=7 v=40
119577 Par ch=12 c=7 v=39
119603 Par ch=12 c=7 v=38
119628 Par ch=12 c=7 v=37
119654 Par ch=12 c=7 v=36
119680 Par ch=12 c=7 v=35
119705 Par ch=12 c=7 v=34
119731 Par ch=12 c=7 v=33
119756 Par ch=12 c=7 v=32
119782 Par ch=12 c=7 v=31
119808 Par ch=12 c=7 v=30
119902 On ch=12 n=e6 v=0
120384 Par ch=12 c=7 v=60
120384 On ch=12 n=g#6 v=110
120409 Par ch=12 c=7 v=61
120435 Par ch=12 c=7 v=62
120460 Par ch=12 c=7 v=63
120486 Par ch=12 c=7 v=64
120512 Par ch=12 c=7 v=65
120537 Par ch=12 c=7 v=66
120563 Par ch=12 c=7 v=67
120588 Par ch=12 c=7 v=68
120614 Par ch=12 c=7 v=69
120640 Par ch=12 c=7 v=70
120665 Par ch=12 c=7 v=71
120670 On ch=12 n=g#6 v=0
120672 On ch=12 n=g#6 v=110
120691 Par ch=12 c=7 v=72
120716 Par ch=12 c=7 v=73
120742 Par ch=12 c=7 v=74
120768 On ch=12 n=g#6 v=0
120768 Par ch=12 c=7 v=75
120768 On ch=12 n=f#6 v=110
120793 Par ch=12 c=7 v=74
120819 Par ch=12 c=7 v=73
120844 Par ch=12 c=7 v=72
120864 On ch=12 n=f#6 v=0
120864 On ch=12 n=g#6 v=110
120870 Par ch=12 c=7 v=71
120896 Par ch=12 c=7 v=70
120921 Par ch=12 c=7 v=69
120947 Par ch=12 c=7 v=68
120958 On ch=12 n=g#6 v=0
120960 On ch=12 n=g#6 v=110
120972 Par ch=12 c=7 v=67
120998 Par ch=12 c=7 v=66
121024 Par ch=12 c=7 v=65
121049 Par ch=12 c=7 v=64
121056 On ch=12 n=g#6 v=0
121056 On ch=12 n=a6 v=110
121075 Par ch=12 c=7 v=63
121100 Par ch=12 c=7 v=62
121126 Par ch=12 c=7 v=61
121152 On ch=12 n=a6 v=0
121152 Par ch=12 c=7 v=60
121152 On ch=12 n=f#6 v=110
121248 On ch=12 n=f#6 v=0
121248 On ch=12 n=e6 v=110
121342 On ch=12 n=e6 v=0
121344 Par ch=12 c=7 v=60
121344 On ch=12 n=g#6 v=110
121369 Par ch=12 c=7 v=61
121395 Par ch=12 c=7 v=62
121420 Par ch=12 c=7 v=63
121446 Par ch=12 c=7 v=64
121472 Par ch=12 c=7 v=65
121497 Par ch=12 c=7 v=66
121523 Par ch=12 c=7 v=67
121548 Par ch=12 c=7 v=68
121574 Par ch=12 c=7 v=69
121600 Par ch=12 c=7 v=70
121625 Par ch=12 c=7 v=71
121651 Par ch=12 c=7 v=72
121676 Par ch=12 c=7 v=73
121702 Par ch=12 c=7 v=74
121728 Par ch=12 c=7 v=75
121804 Par ch=12 c=7 v=74
121822 On ch=12 n=g#6 v=0
121824 On ch=12 n=g#6 v=110
121881 Par ch=12 c=7 v=73
121920 On ch=12 n=g#6 v=0
121920 On ch=12 n=f#6 v=110
121958 Par ch=12 c=7 v=72
122016 On ch=12 n=f#6 v=0
122016 On ch=12 n=g#6 v=110
122035 Par ch=12 c=7 v=71
122110 On ch=12 n=g#6 v=0
122112 Par ch=12 c=7 v=70
122112 On ch=12 n=g#6 v=110
122188 Par ch=12 c=7 v=69
122208 On ch=12 n=g#6 v=0
122208 On ch=12 n=a6 v=110
122265 Par ch=12 c=7 v=68
122304 On ch=12 n=a6 v=0
122304 On ch=12 n=f#6 v=110
122342 Par ch=12 c=7 v=67
122400 On ch=12 n=f#6 v=0
122400 On ch=12 n=f6 v=110
122419 Par ch=12 c=7 v=66
122494 On ch=12 n=f6 v=0
122496 Par ch=12 c=7 v=65
122496 On ch=12 n=f#6 v=110
122572 Par ch=12 c=7 v=64
122649 Par ch=12 c=7 v=63
122726 Par ch=12 c=7 v=62
122803 Par ch=12 c=7 v=61
122880 Par ch=12 c=7 v=60
122974 On ch=12 n=f#6 v=0
122976 On ch=12 n=g#6 v=110
123072 On ch=12 n=g#6 v=0
123072 On ch=12 n=e6 v=110
123168 On ch=12 n=e6 v=0
123168 On ch=12 n=d#6 v=110
123262 On ch=12 n=d#6 v=0
123264 Par ch=12 c=7 v=45
123264 On ch=12 n=e6 v=110
123272 Par ch=12 c=7 v=46
123280 Par ch=12 c=7 v=47
123288 Par ch=12 c=7 v=48
123296 Par ch=12 c=7 v=49
123304 Par ch=12 c=7 v=50
123313 Par ch=12 c=7 v=51
123321 Par ch=12 c=7 v=52
123329 Par ch=12 c=7 v=53
123337 Par ch=12 c=7 v=54
123345 Par ch=12 c=7 v=55
123353 Par ch=12 c=7 v=56
123362 Par ch=12 c=7 v=57
123370 Par ch=12 c=7 v=58
123378 Par ch=12 c=7 v=59
123386 Par ch=12 c=7 v=60
123394 Par ch=12 c=7 v=61
123402 Par ch=12 c=7 v=62
123411 Par ch=12 c=7 v=63
123419 Par ch=12 c=7 v=64
123427 Par ch=12 c=7 v=65
123435 Par ch=12 c=7 v=66
123443 Par ch=12 c=7 v=67
123451 Par ch=12 c=7 v=68
123456 On ch=12 n=e6 v=0
123456 On ch=12 n=d7 v=110
123460 Par ch=12 c=7 v=69
123468 Par ch=12 c=7 v=70
123476 Par ch=12 c=7 v=71
123484 Par ch=12 c=7 v=72
123492 Par ch=12 c=7 v=73
123500 Par ch=12 c=7 v=74
123509 Par ch=12 c=7 v=75
123517 Par ch=12 c=7 v=76
123525 Par ch=12 c=7 v=77
123533 Par ch=12 c=7 v=78
123541 Par ch=12 c=7 v=79
123549 Par ch=12 c=7 v=80
123558 Par ch=12 c=7 v=81
123566 Par ch=12 c=7 v=82
123574 Par ch=12 c=7 v=83
123582 Par ch=12 c=7 v=84
123590 Par ch=12 c=7 v=85
123598 Par ch=12 c=7 v=86
123607 Par ch=12 c=7 v=87
123615 Par ch=12 c=7 v=88
123623 Par ch=12 c=7 v=89
123631 Par ch=12 c=7 v=90
123639 Par ch=12 c=7 v=91
123648 On ch=12 n=d7 v=0
123648 Par ch=12 c=7 v=92
123648 On ch=12 n=c#7 v=110
123664 Par ch=12 c=7 v=91
123680 Par ch=12 c=7 v=90
123697 Par ch=12 c=7 v=89
123713 Par ch=12 c=7 v=88
123729 Par ch=12 c=7 v=87
123746 Par ch=12 c=7 v=86
123762 Par ch=12 c=7 v=85
123778 Par ch=12 c=7 v=84
123795 Par ch=12 c=7 v=83
123811 Par ch=12 c=7 v=82
123827 Par ch=12 c=7 v=81
123840 On ch=12 n=c#7 v=0
123840 On ch=12 n=b6 v=110
123844 Par ch=12 c=7 v=80
123860 Par ch=12 c=7 v=79
123876 Par ch=12 c=7 v=78
123893 Par ch=12 c=7 v=77
123909 Par ch=12 c=7 v=76
123925 Par ch=12 c=7 v=75
123942 Par ch=12 c=7 v=74
123958 Par ch=12 c=7 v=73
123974 Par ch=12 c=7 v=72
123991 Par ch=12 c=7 v=71
124007 Par ch=12 c=7 v=70
124023 Par ch=12 c=7 v=69
124032 On ch=12 n=b6 v=0
124032 On ch=12 n=a#6 v=110
124040 Par ch=12 c=7 v=68
124056 Par ch=12 c=7 v=67
124072 Par ch=12 c=7 v=66
124089 Par ch=12 c=7 v=65
124105 Par ch=12 c=7 v=64
124121 Par ch=12 c=7 v=63
124138 Par ch=12 c=7 v=62
124154 Par ch=12 c=7 v=61
124170 Par ch=12 c=7 v=60
124187 Par ch=12 c=7 v=59
124203 Par ch=12 c=7 v=58
124219 Par ch=12 c=7 v=57
124224 On ch=12 n=a#6 v=0
124224 On ch=12 n=a6 v=110
124236 Par ch=12 c=7 v=56
124252 Par ch=12 c=7 v=55
124268 Par ch=12 c=7 v=54
124285 Par ch=12 c=7 v=53
124301 Par ch=12 c=7 v=52
124317 Par ch=12 c=7 v=51
124334 Par ch=12 c=7 v=50
124350 Par ch=12 c=7 v=49
124366 Par ch=12 c=7 v=48
124383 Par ch=12 c=7 v=47
124399 Par ch=12 c=7 v=46
124416 On ch=12 n=a6 v=0
124416 Par ch=12 c=7 v=45
124416 On ch=12 n=a6 v=110
124441 Par ch=12 c=7 v=46
124467 Par ch=12 c=7 v=47
124492 Par ch=12 c=7 v=48
124518 Par ch=12 c=7 v=49
124544 Par ch=12 c=7 v=50
124569 Par ch=12 c=7 v=51
124595 Par ch=12 c=7 v=52
124620 Par ch=12 c=7 v=53
124646 Par ch=12 c=7 v=54
124672 Par ch=12 c=7 v=55
124697 Par ch=12 c=7 v=56
124704 On ch=12 n=a6 v=0
124704 On ch=12 n=g#6 v=110
124723 Par ch=12 c=7 v=57
124748 Par ch=12 c=7 v=58
124774 Par ch=12 c=7 v=59
124798 On ch=12 n=g#6 v=0
124800 Par ch=12 c=7 v=60
124800 Par ch=12 c=7 v=75
124800 On ch=12 n=b6 v=110
125184 Par ch=12 c=7 v=75
125195 Par ch=12 c=7 v=76
125207 Par ch=12 c=7 v=77
125218 Par ch=12 c=7 v=78
125230 Par ch=12 c=7 v=79
125242 Par ch=12 c=7 v=80
125253 Par ch=12 c=7 v=81
125265 Par ch=12 c=7 v=82
125277 Par ch=12 c=7 v=83
125288 Par ch=12 c=7 v=84
125300 Par ch=12 c=7 v=85
125312 Par ch=12 c=7 v=86
125323 Par ch=12 c=7 v=87
125335 Par ch=12 c=7 v=88
125346 Par ch=12 c=7 v=89
125358 Par ch=12 c=7 v=90
125370 Par ch=12 c=7 v=91
125381 Par ch=12 c=7 v=92
125393 Par ch=12 c=7 v=93
125405 Par ch=12 c=7 v=94
125416 Par ch=12 c=7 v=95
125428 Par ch=12 c=7 v=96
125440 Par ch=12 c=7 v=97
125451 Par ch=12 c=7 v=98
125463 Par ch=12 c=7 v=99
125474 Par ch=12 c=7 v=100
125486 Par ch=12 c=7 v=101
125498 Par ch=12 c=7 v=102
125509 Par ch=12 c=7 v=103
125521 Par ch=12 c=7 v=104
125533 Par ch=12 c=7 v=105
125544 Par ch=12 c=7 v=106
125556 Par ch=12 c=7 v=107
125568 Par ch=12 c=7 v=108
125952 On ch=12 n=b6 v=0
125952 Par ch=12 c=7 v=108
125952 On ch=12 n=a6 v=110
125958 Par ch=12 c=7 v=107
125964 Par ch=12 c=7 v=106
125970 Par ch=12 c=7 v=105
125976 Par ch=12 c=7 v=104
125982 Par ch=12 c=7 v=103
125988 Par ch=12 c=7 v=102
125994 Par ch=12 c=7 v=101
126000 Par ch=12 c=7 v=100
126006 Par ch=12 c=7 v=99
126012 Par ch=12 c=7 v=98
126019 Par ch=12 c=7 v=97
126025 Par ch=12 c=7 v=96
126031 Par ch=12 c=7 v=95
126037 Par ch=12 c=7 v=94
126043 Par ch=12 c=7 v=93
126048 On ch=12 n=a6 v=0
126048 On ch=12 n=g#6 v=110
126049 Par ch=12 c=7 v=92
126055 Par ch=12 c=7 v=91
126061 Par ch=12 c=7 v=90
126067 Par ch=12 c=7 v=89
126073 Par ch=12 c=7 v=88
126080 Par ch=12 c=7 v=87
126086 Par ch=12 c=7 v=86
126092 Par ch=12 c=7 v=85
126098 Par ch=12 c=7 v=84
126104 Par ch=12 c=7 v=83
126110 Par ch=12 c=7 v=82
126116 Par ch=12 c=7 v=81
126122 Par ch=12 c=7 v=80
126128 Par ch=12 c=7 v=79
126134 Par ch=12 c=7 v=78
126140 Par ch=12 c=7 v=77
126142 On ch=12 n=g#6 v=0
126144 On ch=12 n=a6 v=110
126147 Par ch=12 c=7 v=76
126153 Par ch=12 c=7 v=75
126159 Par ch=12 c=7 v=74
126165 Par ch=12 c=7 v=73
126171 Par ch=12 c=7 v=72
126177 Par ch=12 c=7 v=71
126183 Par ch=12 c=7 v=70
126189 Par ch=12 c=7 v=69
126195 Par ch=12 c=7 v=68
126201 Par ch=12 c=7 v=67
126208 Par ch=12 c=7 v=66
126214 Par ch=12 c=7 v=65
126220 Par ch=12 c=7 v=64
126226 Par ch=12 c=7 v=63
126232 Par ch=12 c=7 v=62
126238 Par ch=12 c=7 v=61
126244 Par ch=12 c=7 v=60
126250 Par ch=12 c=7 v=59
126256 Par ch=12 c=7 v=58
126262 Par ch=12 c=7 v=57
126268 Par ch=12 c=7 v=56
126275 Par ch=12 c=7 v=55
126281 Par ch=12 c=7 v=54
126287 Par ch=12 c=7 v=53
126288 On ch=12 n=a6 v=0
126288 On ch=12 n=g#6 v=110
126293 Par ch=12 c=7 v=52
126299 Par ch=12 c=7 v=51
126305 Par ch=12 c=7 v=50
126311 Par ch=12 c=7 v=49
126317 Par ch=12 c=7 v=48
126323 Par ch=12 c=7 v=47
126329 Par ch=12 c=7 v=46
126334 On ch=12 n=g#6 v=0
126336 Par ch=12 c=7 v=45
126336 On ch=12 n=g#6 v=110
126720 Par ch=12 c=7 v=45
126726 Par ch=12 c=7 v=46
126732 Par ch=12 c=7 v=47
126738 Par ch=12 c=7 v=48
126744 Par ch=12 c=7 v=49
126750 Par ch=12 c=7 v=50
126756 Par ch=12 c=7 v=51
126762 Par ch=12 c=7 v=52
126768 Par ch=12 c=7 v=53
126774 Par ch=12 c=7 v=54
126780 Par ch=12 c=7 v=55
126787 Par ch=12 c=7 v=56
126793 Par ch=12 c=7 v=57
126799 Par ch=12 c=7 v=58
126805 Par ch=12 c=7 v=59
126811 Par ch=12 c=7 v=60
126817 Par ch=12 c=7 v=61
126823 Par ch=12 c=7 v=62
126829 Par ch=12 c=7 v=63
126835 Par ch=12 c=7 v=64
126841 Par ch=12 c=7 v=65
126848 Par ch=12 c=7 v=66
126854 Par ch=12 c=7 v=67
126860 Par ch=12 c=7 v=68
126866 Par ch=12 c=7 v=69
126872 Par ch=12 c=7 v=70
126878 Par ch=12 c=7 v=71
126884 Par ch=12 c=7 v=72
126890 Par ch=12 c=7 v=73
126896 Par ch=12 c=7 v=74
126902 Par ch=12 c=7 v=75
126908 Par ch=12 c=7 v=76
126915 Par ch=12 c=7 v=77
126921 Par ch=12 c=7 v=78
126927 Par ch=12 c=7 v=79
126933 Par ch=12 c=7 v=80
126939 Par ch=12 c=7 v=81
126945 Par ch=12 c=7 v=82
126951 Par ch=12 c=7 v=83
126957 Par ch=12 c=7 v=84
126963 Par ch=12 c=7 v=85
126969 Par ch=12 c=7 v=86
126976 Par ch=12 c=7 v=87
126982 Par ch=12 c=7 v=88
126988 Par ch=12 c=7 v=89
126994 Par ch=12 c=7 v=90
127000 Par ch=12 c=7 v=91
127006 Par ch=12 c=7 v=92
127012 Par ch=12 c=7 v=93
127018 Par ch=12 c=7 v=94
127024 Par ch=12 c=7 v=95
127030 Par ch=12 c=7 v=96
127036 Par ch=12 c=7 v=97
127043 Par ch=12 c=7 v=98
127049 Par ch=12 c=7 v=99
127055 Par ch=12 c=7 v=100
127061 Par ch=12 c=7 v=101
127067 Par ch=12 c=7 v=102
127073 Par ch=12 c=7 v=103
127079 Par ch=12 c=7 v=104
127085 Par ch=12 c=7 v=105
127091 Par ch=12 c=7 v=106
127097 Par ch=12 c=7 v=107
127104 Par ch=12 c=7 v=108
127488 On ch=12 n=g#6 v=0
127488 Par ch=12 c=7 v=108
127488 On ch=12 n=f#6 v=110
127494 Par ch=12 c=7 v=107
127500 Par ch=12 c=7 v=106
127506 Par ch=12 c=7 v=105
127512 Par ch=12 c=7 v=104
127518 Par ch=12 c=7 v=103
127524 Par ch=12 c=7 v=102
127530 Par ch=12 c=7 v=101
127536 Par ch=12 c=7 v=100
127542 Par ch=12 c=7 v=99
127548 Par ch=12 c=7 v=98
127555 Par ch=12 c=7 v=97
127561 Par ch=12 c=7 v=96
127567 Par ch=12 c=7 v=95
127573 Par ch=12 c=7 v=94
127579 Par ch=12 c=7 v=93
127584 On ch=12 n=f#6 v=0
127584 On ch=12 n=e6 v=110
127585 Par ch=12 c=7 v=92
127591 Par ch=12 c=7 v=91
127597 Par ch=12 c=7 v=90
127603 Par ch=12 c=7 v=89
127609 Par ch=12 c=7 v=88
127616 Par ch=12 c=7 v=87
127622 Par ch=12 c=7 v=86
127628 Par ch=12 c=7 v=85
127634 Par ch=12 c=7 v=84
127640 Par ch=12 c=7 v=83
127646 Par ch=12 c=7 v=82
127652 Par ch=12 c=7 v=81
127658 Par ch=12 c=7 v=80
127664 Par ch=12 c=7 v=79
127670 Par ch=12 c=7 v=78
127676 Par ch=12 c=7 v=77
127678 On ch=12 n=e6 v=0
127680 On ch=12 n=f#6 v=110
127683 Par ch=12 c=7 v=76
127689 Par ch=12 c=7 v=75
127695 Par ch=12 c=7 v=74
127701 Par ch=12 c=7 v=73
127707 Par ch=12 c=7 v=72
127713 Par ch=12 c=7 v=71
127719 Par ch=12 c=7 v=70
127725 Par ch=12 c=7 v=69
127731 Par ch=12 c=7 v=68
127737 Par ch=12 c=7 v=67
127744 Par ch=12 c=7 v=66
127750 Par ch=12 c=7 v=65
127756 Par ch=12 c=7 v=64
127762 Par ch=12 c=7 v=63
127768 Par ch=12 c=7 v=62
127774 Par ch=12 c=7 v=61
127780 Par ch=12 c=7 v=60
127786 Par ch=12 c=7 v=59
127792 Par ch=12 c=7 v=58
127798 Par ch=12 c=7 v=57
127804 Par ch=12 c=7 v=56
127811 Par ch=12 c=7 v=55
127817 Par ch=12 c=7 v=54
127823 Par ch=12 c=7 v=53
127824 On ch=12 n=f#6 v=0
127824 On ch=12 n=e6 v=110
127829 Par ch=12 c=7 v=52
127835 Par ch=12 c=7 v=51
127841 Par ch=12 c=7 v=50
127847 Par ch=12 c=7 v=49
127853 Par ch=12 c=7 v=48
127859 Par ch=12 c=7 v=47
127865 Par ch=12 c=7 v=46
127870 On ch=12 n=e6 v=0
127872 Par ch=12 c=7 v=45
127872 On ch=12 n=e6 v=110
128256 Par ch=12 c=7 v=45
128262 Par ch=12 c=7 v=46
128268 Par ch=12 c=7 v=47
128274 Par ch=12 c=7 v=48
128280 Par ch=12 c=7 v=49
128286 Par ch=12 c=7 v=50
128292 Par ch=12 c=7 v=51
128298 Par ch=12 c=7 v=52
128304 Par ch=12 c=7 v=53
128310 Par ch=12 c=7 v=54
128316 Par ch=12 c=7 v=55
128323 Par ch=12 c=7 v=56
128329 Par ch=12 c=7 v=57
128335 Par ch=12 c=7 v=58
128341 Par ch=12 c=7 v=59
128347 Par ch=12 c=7 v=60
128353 Par ch=12 c=7 v=61
128359 Par ch=12 c=7 v=62
128365 Par ch=12 c=7 v=63
128371 Par ch=12 c=7 v=64
128377 Par ch=12 c=7 v=65
128384 Par ch=12 c=7 v=66
128390 Par ch=12 c=7 v=67
128396 Par ch=12 c=7 v=68
128402 Par ch=12 c=7 v=69
128408 Par ch=12 c=7 v=70
128414 Par ch=12 c=7 v=71
128420 Par ch=12 c=7 v=72
128426 Par ch=12 c=7 v=73
128432 Par ch=12 c=7 v=74
128438 Par ch=12 c=7 v=75
128444 Par ch=12 c=7 v=76
128451 Par ch=12 c=7 v=77
128457 Par ch=12 c=7 v=78
128463 Par ch=12 c=7 v=79
128469 Par ch=12 c=7 v=80
128475 Par ch=12 c=7 v=81
128481 Par ch=12 c=7 v=82
128487 Par ch=12 c=7 v=83
128493 Par ch=12 c=7 v=84
128499 Par ch=12 c=7 v=85
128505 Par ch=12 c=7 v=86
128512 Par ch=12 c=7 v=87
128518 Par ch=12 c=7 v=88
128524 Par ch=12 c=7 v=89
128530 Par ch=12 c=7 v=90
128536 Par ch=12 c=7 v=91
128542 Par ch=12 c=7 v=92
128548 Par ch=12 c=7 v=93
128554 Par ch=12 c=7 v=94
128560 Par ch=12 c=7 v=95
128566 Par ch=12 c=7 v=96
128572 Par ch=12 c=7 v=97
128579 Par ch=12 c=7 v=98
128585 Par ch=12 c=7 v=99
128591 Par ch=12 c=7 v=100
128597 Par ch=12 c=7 v=101
128603 Par ch=12 c=7 v=102
128609 Par ch=12 c=7 v=103
128615 Par ch=12 c=7 v=104
128621 Par ch=12 c=7 v=105
128627 Par ch=12 c=7 v=106
128633 Par ch=12 c=7 v=107
128640 Par ch=12 c=7 v=108
129024 On ch=12 n=e6 v=0
129024 Par ch=12 c=7 v=108
129024 On ch=12 n=d#6 v=110
129030 Par ch=12 c=7 v=107
129036 Par ch=12 c=7 v=106
129042 Par ch=12 c=7 v=105
129048 Par ch=12 c=7 v=104
129054 Par ch=12 c=7 v=103
129060 Par ch=12 c=7 v=102
129066 Par ch=12 c=7 v=101
129072 Par ch=12 c=7 v=100
129078 Par ch=12 c=7 v=99
129084 Par ch=12 c=7 v=98
129091 Par ch=12 c=7 v=97
129097 Par ch=12 c=7 v=96
129103 Par ch=12 c=7 v=95
129109 Par ch=12 c=7 v=94
129115 Par ch=12 c=7 v=93
129121 Par ch=12 c=7 v=92
129127 Par ch=12 c=7 v=91
129133 Par ch=12 c=7 v=90
129139 Par ch=12 c=7 v=89
129145 Par ch=12 c=7 v=88
129152 Par ch=12 c=7 v=87
129158 Par ch=12 c=7 v=86
129164 Par ch=12 c=7 v=85
129170 Par ch=12 c=7 v=84
129176 Par ch=12 c=7 v=83
129182 Par ch=12 c=7 v=82
129188 Par ch=12 c=7 v=81
129194 Par ch=12 c=7 v=80
129200 Par ch=12 c=7 v=79
129206 Par ch=12 c=7 v=78
129212 Par ch=12 c=7 v=77
129219 Par ch=12 c=7 v=76
129225 Par ch=12 c=7 v=75
129231 Par ch=12 c=7 v=74
129237 Par ch=12 c=7 v=73
129243 Par ch=12 c=7 v=72
129249 Par ch=12 c=7 v=71
129255 Par ch=12 c=7 v=70
129261 Par ch=12 c=7 v=69
129267 Par ch=12 c=7 v=68
129273 Par ch=12 c=7 v=67
129280 Par ch=12 c=7 v=66
129286 Par ch=12 c=7 v=65
129292 Par ch=12 c=7 v=64
129298 Par ch=12 c=7 v=63
129304 Par ch=12 c=7 v=62
129310 Par ch=12 c=7 v=61
129316 Par ch=12 c=7 v=60
129322 Par ch=12 c=7 v=59
129328 Par ch=12 c=7 v=58
129334 Par ch=12 c=7 v=57
129340 Par ch=12 c=7 v=56
129347 Par ch=12 c=7 v=55
129353 Par ch=12 c=7 v=54
129359 Par ch=12 c=7 v=53
129365 Par ch=12 c=7 v=52
129371 Par ch=12 c=7 v=51
129377 Par ch=12 c=7 v=50
129383 Par ch=12 c=7 v=49
129389 Par ch=12 c=7 v=48
129395 Par ch=12 c=7 v=47
129401 Par ch=12 c=7 v=46
129408 On ch=12 n=d#6 v=0
129408 Par ch=12 c=7 v=45
129408 On ch=12 n=e6 v=110
129792 Par ch=12 c=7 v=45
129798 Par ch=12 c=7 v=46
129804 Par ch=12 c=7 v=47
129810 Par ch=12 c=7 v=48
129816 Par ch=12 c=7 v=49
129822 Par ch=12 c=7 v=50
129828 Par ch=12 c=7 v=51
129834 Par ch=12 c=7 v=52
129840 Par ch=12 c=7 v=53
129846 Par ch=12 c=7 v=54
129852 Par ch=12 c=7 v=55
129859 Par ch=12 c=7 v=56
129865 Par ch=12 c=7 v=57
129871 Par ch=12 c=7 v=58
129877 Par ch=12 c=7 v=59
129883 Par ch=12 c=7 v=60
129889 Par ch=12 c=7 v=61
129895 Par ch=12 c=7 v=62
129901 Par ch=12 c=7 v=63
129907 Par ch=12 c=7 v=64
129913 Par ch=12 c=7 v=65
129920 Par ch=12 c=7 v=66
129926 Par ch=12 c=7 v=67
129932 Par ch=12 c=7 v=68
129938 Par ch=12 c=7 v=69
129944 Par ch=12 c=7 v=70
129950 Par ch=12 c=7 v=71
129956 Par ch=12 c=7 v=72
129962 Par ch=12 c=7 v=73
129968 Par ch=12 c=7 v=74
129974 Par ch=12 c=7 v=75
129980 Par ch=12 c=7 v=76
129987 Par ch=12 c=7 v=77
129993 Par ch=12 c=7 v=78
129999 Par ch=12 c=7 v=79
130005 Par ch=12 c=7 v=80
130011 Par ch=12 c=7 v=81
130017 Par ch=12 c=7 v=82
130023 Par ch=12 c=7 v=83
130029 Par ch=12 c=7 v=84
130035 Par ch=12 c=7 v=85
130041 Par ch=12 c=7 v=86
130048 Par ch=12 c=7 v=87
130054 Par ch=12 c=7 v=88
130060 Par ch=12 c=7 v=89
130066 Par ch=12 c=7 v=90
130072 Par ch=12 c=7 v=91
130078 Par ch=12 c=7 v=92
130084 Par ch=12 c=7 v=93
130090 Par ch=12 c=7 v=94
130096 Par ch=12 c=7 v=95
130102 Par ch=12 c=7 v=96
130108 Par ch=12 c=7 v=97
130115 Par ch=12 c=7 v=98
130121 Par ch=12 c=7 v=99
130127 Par ch=12 c=7 v=100
130133 Par ch=12 c=7 v=101
130139 Par ch=12 c=7 v=102
130145 Par ch=12 c=7 v=103
130151 Par ch=12 c=7 v=104
130157 Par ch=12 c=7 v=105
130163 Par ch=12 c=7 v=106
130169 Par ch=12 c=7 v=107
130176 Par ch=12 c=7 v=108
130560 On ch=12 n=e6 v=0
130560 Par ch=12 c=7 v=108
130560 On ch=12 n=d#6 v=110
130566 Par ch=12 c=7 v=107
130572 Par ch=12 c=7 v=106
130578 Par ch=12 c=7 v=105
130584 Par ch=12 c=7 v=104
130590 Par ch=12 c=7 v=103
130596 Par ch=12 c=7 v=102
130602 Par ch=12 c=7 v=101
130608 Par ch=12 c=7 v=100
130614 Par ch=12 c=7 v=99
130620 Par ch=12 c=7 v=98
130627 Par ch=12 c=7 v=97
130633 Par ch=12 c=7 v=96
130639 Par ch=12 c=7 v=95
130645 Par ch=12 c=7 v=94
130651 Par ch=12 c=7 v=93
130657 Par ch=12 c=7 v=92
130663 Par ch=12 c=7 v=91
130669 Par ch=12 c=7 v=90
130675 Par ch=12 c=7 v=89
130681 Par ch=12 c=7 v=88
130688 Par ch=12 c=7 v=87
130694 Par ch=12 c=7 v=86
130700 Par ch=12 c=7 v=85
130706 Par ch=12 c=7 v=84
130712 Par ch=12 c=7 v=83
130718 Par ch=12 c=7 v=82
130724 Par ch=12 c=7 v=81
130730 Par ch=12 c=7 v=80
130736 Par ch=12 c=7 v=79
130742 Par ch=12 c=7 v=78
130748 Par ch=12 c=7 v=77
130755 Par ch=12 c=7 v=76
130761 Par ch=12 c=7 v=75
130767 Par ch=12 c=7 v=74
130773 Par ch=12 c=7 v=73
130779 Par ch=12 c=7 v=72
130785 Par ch=12 c=7 v=71
130791 Par ch=12 c=7 v=70
130797 Par ch=12 c=7 v=69
130803 Par ch=12 c=7 v=68
130809 Par ch=12 c=7 v=67
130816 Par ch=12 c=7 v=66
130822 Par ch=12 c=7 v=65
130828 Par ch=12 c=7 v=64
130834 Par ch=12 c=7 v=63
130840 Par ch=12 c=7 v=62
130846 Par ch=12 c=7 v=61
130852 Par ch=12 c=7 v=60
130858 Par ch=12 c=7 v=59
130864 Par ch=12 c=7 v=58
130870 Par ch=12 c=7 v=57
130876 Par ch=12 c=7 v=56
130883 Par ch=12 c=7 v=55
130889 Par ch=12 c=7 v=54
130895 Par ch=12 c=7 v=53
130901 Par ch=12 c=7 v=52
130907 Par ch=12 c=7 v=51
130913 Par ch=12 c=7 v=50
130919 Par ch=12 c=7 v=49
130925 Par ch=12 c=7 v=48
130931 Par ch=12 c=7 v=47
130937 Par ch=12 c=7 v=46
130944 On ch=12 n=d#6 v=0
130944 Par ch=12 c=7 v=45
130944 On ch=12 n=e6 v=110
131328 On ch=12 n=e6 v=0
131328 On ch=12 n=e5 v=110
131712 Par ch=12 c=7 v=45
131718 Par ch=12 c=7 v=46
131724 Par ch=12 c=7 v=47
131730 Par ch=12 c=7 v=48
131736 Par ch=12 c=7 v=49
131742 Par ch=12 c=7 v=50
131748 Par ch=12 c=7 v=51
131754 Par ch=12 c=7 v=52
131760 Par ch=12 c=7 v=53
131766 Par ch=12 c=7 v=54
131772 Par ch=12 c=7 v=55
131779 Par ch=12 c=7 v=56
131785 Par ch=12 c=7 v=57
131791 Par ch=12 c=7 v=58
131797 Par ch=12 c=7 v=59
131803 Par ch=12 c=7 v=60
131809 Par ch=12 c=7 v=61
131815 Par ch=12 c=7 v=62
131821 Par ch=12 c=7 v=63
131827 Par ch=12 c=7 v=64
131833 Par ch=12 c=7 v=65
131840 Par ch=12 c=7 v=66
131846 Par ch=12 c=7 v=67
131852 Par ch=12 c=7 v=68
131858 Par ch=12 c=7 v=69
131864 Par ch=12 c=7 v=70
131870 Par ch=12 c=7 v=71
131876 Par ch=12 c=7 v=72
131882 Par ch=12 c=7 v=73
131888 Par ch=12 c=7 v=74
131894 Par ch=12 c=7 v=75
131900 Par ch=12 c=7 v=76
131907 Par ch=12 c=7 v=77
131913 Par ch=12 c=7 v=78
131919 Par ch=12 c=7 v=79
131925 Par ch=12 c=7 v=80
131931 Par ch=12 c=7 v=81
131937 Par ch=12 c=7 v=82
131943 Par ch=12 c=7 v=83
131949 Par ch=12 c=7 v=84
131955 Par ch=12 c=7 v=85
131961 Par ch=12 c=7 v=86
131968 Par ch=12 c=7 v=87
131974 Par ch=12 c=7 v=88
131980 Par ch=12 c=7 v=89
131986 Par ch=12 c=7 v=90
131992 Par ch=12 c=7 v=91
131998 Par ch=12 c=7 v=92
132004 Par ch=12 c=7 v=93
132010 Par ch=12 c=7 v=94
132016 Par ch=12 c=7 v=95
132022 Par ch=12 c=7 v=96
132028 Par ch=12 c=7 v=97
132035 Par ch=12 c=7 v=98
132041 Par ch=12 c=7 v=99
132047 Par ch=12 c=7 v=100
132053 Par ch=12 c=7 v=101
132059 Par ch=12 c=7 v=102
132065 Par ch=12 c=7 v=103
132071 Par ch=12 c=7 v=104
132077 Par ch=12 c=7 v=105
132083 Par ch=12 c=7 v=106
132089 Par ch=12 c=7 v=107
132096 On ch=12 n=e5 v=0
132096 Par ch=12 c=7 v=108
132096 On ch=12 n=d#5 v=110
132102 Par ch=12 c=7 v=107
132108 Par ch=12 c=7 v=106
132114 Par ch=12 c=7 v=105
132120 Par ch=12 c=7 v=104
132126 Par ch=12 c=7 v=103
132132 Par ch=12 c=7 v=102
132138 Par ch=12 c=7 v=101
132144 Par ch=12 c=7 v=100
132150 Par ch=12 c=7 v=99
132156 Par ch=12 c=7 v=98
132163 Par ch=12 c=7 v=97
132169 Par ch=12 c=7 v=96
132175 Par ch=12 c=7 v=95
132181 Par ch=12 c=7 v=94
132187 Par ch=12 c=7 v=93
132193 Par ch=12 c=7 v=92
132199 Par ch=12 c=7 v=91
132205 Par ch=12 c=7 v=90
132211 Par ch=12 c=7 v=89
132217 Par ch=12 c=7 v=88
132224 Par ch=12 c=7 v=87
132230 Par ch=12 c=7 v=86
132236 Par ch=12 c=7 v=85
132242 Par ch=12 c=7 v=84
132248 Par ch=12 c=7 v=83
132254 Par ch=12 c=7 v=82
132260 Par ch=12 c=7 v=81
132266 Par ch=12 c=7 v=80
132272 Par ch=12 c=7 v=79
132278 Par ch=12 c=7 v=78
132284 Par ch=12 c=7 v=77
132291 Par ch=12 c=7 v=76
132297 Par ch=12 c=7 v=75
132303 Par ch=12 c=7 v=74
132309 Par ch=12 c=7 v=73
132315 Par ch=12 c=7 v=72
132321 Par ch=12 c=7 v=71
132327 Par ch=12 c=7 v=70
132333 Par ch=12 c=7 v=69
132339 Par ch=12 c=7 v=68
132345 Par ch=12 c=7 v=67
132352 Par ch=12 c=7 v=66
132358 Par ch=12 c=7 v=65
132364 Par ch=12 c=7 v=64
132370 Par ch=12 c=7 v=63
132376 Par ch=12 c=7 v=62
132382 Par ch=12 c=7 v=61
132388 Par ch=12 c=7 v=60
132394 Par ch=12 c=7 v=59
132400 Par ch=12 c=7 v=58
132406 Par ch=12 c=7 v=57
132412 Par ch=12 c=7 v=56
132419 Par ch=12 c=7 v=55
132425 Par ch=12 c=7 v=54
132431 Par ch=12 c=7 v=53
132437 Par ch=12 c=7 v=52
132443 Par ch=12 c=7 v=51
132449 Par ch=12 c=7 v=50
132455 Par ch=12 c=7 v=49
132461 Par ch=12 c=7 v=48
132467 Par ch=12 c=7 v=47
132473 Par ch=12 c=7 v=46
132480 On ch=12 n=d#5 v=0
132480 Par ch=12 c=7 v=45
132480 On ch=12 n=e5 v=110
132958 On ch=12 n=e5 v=0
137088 Par ch=12 c=121 v=127
137088 Meta TrkEnd
TrkEnd
MTrk
0 Meta TrkName "Violini II"
0 Meta 0x21 00
0 Par ch=13 c=121 v=127
0 PrCh ch=13 p=50
0 Par ch=13 c=7 v=30
0 Par ch=13 c=10 v=54
0 Par ch=13 c=91 v=127
0 Par ch=13 c=7 v=30
0 On ch=13 n=g4 v=110
384 On ch=13 n=g4 v=0
384 On ch=13 n=a#4 v=110
768 On ch=13 n=a#4 v=0
768 Par ch=13 c=7 v=30
768 On ch=13 n=a#4 v=110
786 Par ch=13 c=7 v=31
805 Par ch=13 c=7 v=32
823 Par ch=13 c=7 v=33
842 Par ch=13 c=7 v=34
860 Par ch=13 c=7 v=35
879 Par ch=13 c=7 v=36
898 Par ch=13 c=7 v=37
916 Par ch=13 c=7 v=38
935 Par ch=13 c=7 v=39
953 Par ch=13 c=7 v=40
972 Par ch=13 c=7 v=41
990 Par ch=13 c=7 v=42
1009 Par ch=13 c=7 v=43
1028 Par ch=13 c=7 v=44
1046 Par ch=13 c=7 v=45
1065 Par ch=13 c=7 v=46
1083 Par ch=13 c=7 v=47
1102 Par ch=13 c=7 v=48
1121 Par ch=13 c=7 v=49
1139 Par ch=13 c=7 v=50
1152 On ch=13 n=a#4 v=0
1152 On ch=13 n=g#4 v=110
1158 Par ch=13 c=7 v=51
1176 Par ch=13 c=7 v=52
1195 Par ch=13 c=7 v=53
1213 Par ch=13 c=7 v=54
1232 Par ch=13 c=7 v=55
1251 Par ch=13 c=7 v=56
1269 Par ch=13 c=7 v=57
1288 Par ch=13 c=7 v=58
1306 Par ch=13 c=7 v=59
1325 Par ch=13 c=7 v=60
1343 Par ch=13 c=7 v=61
1362 Par ch=13 c=7 v=62
1381 Par ch=13 c=7 v=63
1399 Par ch=13 c=7 v=64
1418 Par ch=13 c=7 v=65
1436 Par ch=13 c=7 v=66
1455 Par ch=13 c=7 v=67
1474 Par ch=13 c=7 v=68
1492 Par ch=13 c=7 v=69
1511 Par ch=13 c=7 v=70
1529 Par ch=13 c=7 v=71
1536 On ch=13 n=g#4 v=0
1536 On ch=13 n=c5 v=110
1548 Par ch=13 c=7 v=72
1566 Par ch=13 c=7 v=73
1585 Par ch=13 c=7 v=74
1604 Par ch=13 c=7 v=75
1622 Par ch=13 c=7 v=76
1641 Par ch=13 c=7 v=77
1659 Par ch=13 c=7 v=78
1678 Par ch=13 c=7 v=79
1697 Par ch=13 c=7 v=80
1715 Par ch=13 c=7 v=81
1734 Par ch=13 c=7 v=82
1752 Par ch=13 c=7 v=83
1771 Par ch=13 c=7 v=84
1789 Par ch=13 c=7 v=85
1808 Par ch=13 c=7 v=86
1827 Par ch=13 c=7 v=87
1845 Par ch=13 c=7 v=88
1864 Par ch=13 c=7 v=89
1882 Par ch=13 c=7 v=90
1901 Par ch=13 c=7 v=91
1920 On ch=13 n=c5 v=0
1920 Par ch=13 c=7 v=92
1920 On ch=13 n=c5 v=110
1928 Par ch=13 c=7 v=91
1936 Par ch=13 c=7 v=90
1944 Par ch=13 c=7 v=89
1952 Par ch=13 c=7 v=88
1960 Par ch=13 c=7 v=87
1969 Par ch=13 c=7 v=86
1977 Par ch=13 c=7 v=85
1985 Par ch=13 c=7 v=84
1993 Par ch=13 c=7 v=83
2001 Par ch=13 c=7 v=82
2009 Par ch=13 c=7 v=81
2018 Par ch=13 c=7 v=80
2026 Par ch=13 c=7 v=79
2034 Par ch=13 c=7 v=78
2042 Par ch=13 c=7 v=77
2050 Par ch=13 c=7 v=76
2058 Par ch=13 c=7 v=75
2067 Par ch=13 c=7 v=74
2075 Par ch=13 c=7 v=73
2083 Par ch=13 c=7 v=72
2091 Par ch=13 c=7 v=71
2099 Par ch=13 c=7 v=70
2107 Par ch=13 c=7 v=69
2116 Par ch=13 c=7 v=68
2124 Par ch=13 c=7 v=67
2132 Par ch=13 c=7 v=66
2140 Par ch=13 c=7 v=65
2148 Par ch=13 c=7 v=64
2156 Par ch=13 c=7 v=63
2165 Par ch=13 c=7 v=62
2173 Par ch=13 c=7 v=61
2181 Par ch=13 c=7 v=60
2189 Par ch=13 c=7 v=59
2197 Par ch=13 c=7 v=58
2205 Par ch=13 c=7 v=57
2214 Par ch=13 c=7 v=56
2222 Par ch=13 c=7 v=55
2230 Par ch=13 c=7 v=54
2238 Par ch=13 c=7 v=53
2246 Par ch=13 c=7 v=52
2254 Par ch=13 c=7 v=51
2263 Par ch=13 c=7 v=50
2271 Par ch=13 c=7 v=49
2279 Par ch=13 c=7 v=48
2287 Par ch=13 c=7 v=47
2295 Par ch=13 c=7 v=46
2304 On ch=13 n=c5 v=0
2304 Par ch=13 c=7 v=45
2304 On ch=13 n=a#4 v=110
2496 On ch=13 n=a#4 v=0
2496 On ch=13 n=c5 v=110
2688 On ch=13 n=c5 v=0
2688 Par ch=13 c=7 v=45
2688 On ch=13 n=c#5 v=110
2713 Par ch=13 c=7 v=44
2739 Par ch=13 c=7 v=43
2764 Par ch=13 c=7 v=42
2790 Par ch=13 c=7 v=41
2816 Par ch=13 c=7 v=40
2841 Par ch=13 c=7 v=39
2867 Par ch=13 c=7 v=38
2880 On ch=13 n=c#5 v=0
2880 On ch=13 n=d#5 v=110
2892 Par ch=13 c=7 v=37
2918 Par ch=13 c=7 v=36
2944 Par ch=13 c=7 v=35
2969 Par ch=13 c=7 v=34
2995 Par ch=13 c=7 v=33
3020 Par ch=13 c=7 v=32
3046 Par ch=13 c=7 v=31
3072 On ch=13 n=d#5 v=0
3072 Par ch=13 c=7 v=30
3072 On ch=13 n=g#4 v=110
3072 On ch=13 n=e5 v=110
3110 Par ch=13 c=7 v=29
3148 Par ch=13 c=7 v=28
3187 Par ch=13 c=7 v=27
3225 Par ch=13 c=7 v=26
3264 Par ch=13 c=7 v=25
3302 Par ch=13 c=7 v=24
3340 Par ch=13 c=7 v=23
3379 Par ch=13 c=7 v=22
3417 Par ch=13 c=7 v=21
3456 Par ch=13 c=7 v=20
3494 Par ch=13 c=7 v=19
3532 Par ch=13 c=7 v=18
3571 Par ch=13 c=7 v=17
3609 Par ch=13 c=7 v=16
3616 On ch=13 n=g#4 v=0
3616 On ch=13 n=e5 v=0
3648 Par ch=13 c=7 v=15
8448 Par ch=13 c=7 v=30
9024 On ch=13 n=b4 v=110
9600 Par ch=13 c=7 v=30
9612 Par ch=13 c=7 v=31
9625 Par ch=13 c=7 v=32
9638 Par ch=13 c=7 v=33
9651 Par ch=13 c=7 v=34
9664 Par ch=13 c=7 v=35
9676 Par ch=13 c=7 v=36
9689 Par ch=13 c=7 v=37
9702 Par ch=13 c=7 v=38
9715 Par ch=13 c=7 v=39
9728 Par ch=13 c=7 v=40
9740 Par ch=13 c=7 v=41
9753 Par ch=13 c=7 v=42
9766 Par ch=13 c=7 v=43
9779 Par ch=13 c=7 v=44
9792 Par ch=13 c=7 v=45
9804 Par ch=13 c=7 v=46
9817 Par ch=13 c=7 v=47
9830 Par ch=13 c=7 v=48
9843 Par ch=13 c=7 v=49
9856 Par ch=13 c=7 v=50
9868 Par ch=13 c=7 v=51
9881 Par ch=13 c=7 v=52
9894 Par ch=13 c=7 v=53
9907 Par ch=13 c=7 v=54
9920 Par ch=13 c=7 v=55
9932 Par ch=13 c=7 v=56
9945 Par ch=13 c=7 v=57
9958 Par ch=13 c=7 v=58
9971 Par ch=13 c=7 v=59
9984 On ch=13 n=b4 v=0
9984 Par ch=13 c=7 v=60
9984 On ch=13 n=c#5 v=110
9996 Par ch=13 c=7 v=59
10009 Par ch=13 c=7 v=58
10022 Par ch=13 c=7 v=57
10035 Par ch=13 c=7 v=56
10048 Par ch=13 c=7 v=55
10060 Par ch=13 c=7 v=54
10073 Par ch=13 c=7 v=53
10086 Par ch=13 c=7 v=52
10099 Par ch=13 c=7 v=51
10112 Par ch=13 c=7 v=50
10124 Par ch=13 c=7 v=49
10137 Par ch=13 c=7 v=48
10150 Par ch=13 c=7 v=47
10163 Par ch=13 c=7 v=46
10176 Par ch=13 c=7 v=45
10188 Par ch=13 c=7 v=44
10201 Par ch=13 c=7 v=43
10214 Par ch=13 c=7 v=42
10227 Par ch=13 c=7 v=41
10240 Par ch=13 c=7 v=40
10252 Par ch=13 c=7 v=39
10265 Par ch=13 c=7 v=38
10272 On ch=13 n=c#5 v=0
10272 On ch=13 n=b4 v=110
10278 Par ch=13 c=7 v=37
10291 Par ch=13 c=7 v=36
10304 Par ch=13 c=7 v=35
10316 Par ch=13 c=7 v=34
10329 Par ch=13 c=7 v=33
10342 Par ch=13 c=7 v=32
10355 Par ch=13 c=7 v=31
10366 On ch=13 n=b4 v=0
10368 Par ch=13 c=7 v=30
10368 Par ch=13 c=7 v=30
10368 On ch=13 n=b4 v=110
10380 Par ch=13 c=7 v=31
10393 Par ch=13 c=7 v=32
10406 Par ch=13 c=7 v=33
10419 Par ch=13 c=7 v=34
10432 Par ch=13 c=7 v=35
10444 Par ch=13 c=7 v=36
10457 Par ch=13 c=7 v=37
10470 Par ch=13 c=7 v=38
10483 Par ch=13 c=7 v=39
10496 Par ch=13 c=7 v=40
10508 Par ch=13 c=7 v=41
10521 Par ch=13 c=7 v=42
10534 Par ch=13 c=7 v=43
10547 Par ch=13 c=7 v=44
10560 Par ch=13 c=7 v=45
10572 Par ch=13 c=7 v=46
10585 Par ch=13 c=7 v=47
10598 Par ch=13 c=7 v=48
10611 Par ch=13 c=7 v=49
10624 Par ch=13 c=7 v=50
10636 Par ch=13 c=7 v=51
10649 Par ch=13 c=7 v=52
10662 Par ch=13 c=7 v=53
10675 Par ch=13 c=7 v=54
10688 Par ch=13 c=7 v=55
10700 Par ch=13 c=7 v=56
10713 Par ch=13 c=7 v=57
10726 Par ch=13 c=7 v=58
10739 Par ch=13 c=7 v=59
10752 On ch=13 n=b4 v=0
10752 Par ch=13 c=7 v=60
10752 On ch=13 n=c5 v=110
10764 Par ch=13 c=7 v=59
10777 Par ch=13 c=7 v=58
10790 Par ch=13 c=7 v=57
10803 Par ch=13 c=7 v=56
10816 Par ch=13 c=7 v=55
10828 Par ch=13 c=7 v=54
10841 Par ch=13 c=7 v=53
10854 Par ch=13 c=7 v=52
10867 Par ch=13 c=7 v=51
10880 Par ch=13 c=7 v=50
10892 Par ch=13 c=7 v=49
10905 Par ch=13 c=7 v=48
10918 Par ch=13 c=7 v=47
10931 Par ch=13 c=7 v=46
10944 Par ch=13 c=7 v=45
10956 Par ch=13 c=7 v=44
10969 Par ch=13 c=7 v=43
10982 Par ch=13 c=7 v=42
10995 Par ch=13 c=7 v=41
11008 Par ch=13 c=7 v=40
11020 Par ch=13 c=7 v=39
11033 Par ch=13 c=7 v=38
11046 Par ch=13 c=7 v=37
11059 Par ch=13 c=7 v=36
11072 Par ch=13 c=7 v=35
11084 Par ch=13 c=7 v=34
11097 Par ch=13 c=7 v=33
11110 Par ch=13 c=7 v=32
11123 Par ch=13 c=7 v=31
11136 On ch=13 n=c5 v=0
11136 Par ch=13 c=7 v=30
11136 On ch=13 n=b4 v=110
11614 On ch=13 n=b4 v=0
12288 Par ch=13 c=7 v=30
12288 On ch=13 n=e5 v=110
12300 Par ch=13 c=7 v=31
12313 Par ch=13 c=7 v=32
12326 Par ch=13 c=7 v=33
12339 Par ch=13 c=7 v=34
12352 Par ch=13 c=7 v=35
12364 Par ch=13 c=7 v=36
12377 Par ch=13 c=7 v=37
12390 Par ch=13 c=7 v=38
12403 Par ch=13 c=7 v=39
12416 Par ch=13 c=7 v=40
12428 Par ch=13 c=7 v=41
12441 Par ch=13 c=7 v=42
12454 Par ch=13 c=7 v=43
12467 Par ch=13 c=7 v=44
12480 Par ch=13 c=7 v=45
12492 Par ch=13 c=7 v=46
12505 Par ch=13 c=7 v=47
12518 Par ch=13 c=7 v=48
12531 Par ch=13 c=7 v=49
12544 Par ch=13 c=7 v=50
12556 Par ch=13 c=7 v=51
12569 Par ch=13 c=7 v=52
12582 Par ch=13 c=7 v=53
12595 Par ch=13 c=7 v=54
12608 Par ch=13 c=7 v=55
12620 Par ch=13 c=7 v=56
12633 Par ch=13 c=7 v=57
12646 Par ch=13 c=7 v=58
12659 Par ch=13 c=7 v=59
12672 On ch=13 n=e5 v=0
12672 Par ch=13 c=7 v=60
12672 On ch=13 n=f5 v=110
12684 Par ch=13 c=7 v=59
12697 Par ch=13 c=7 v=58
12710 Par ch=13 c=7 v=57
12723 Par ch=13 c=7 v=56
12736 Par ch=13 c=7 v=55
12748 Par ch=13 c=7 v=54
12761 Par ch=13 c=7 v=53
12774 Par ch=13 c=7 v=52
12787 Par ch=13 c=7 v=51
12800 Par ch=13 c=7 v=50
12812 Par ch=13 c=7 v=49
12825 Par ch=13 c=7 v=48
12838 Par ch=13 c=7 v=47
12851 Par ch=13 c=7 v=46
12864 Par ch=13 c=7 v=45
12876 Par ch=13 c=7 v=44
12889 Par ch=13 c=7 v=43
12902 Par ch=13 c=7 v=42
12915 Par ch=13 c=7 v=41
12928 Par ch=13 c=7 v=40
12940 Par ch=13 c=7 v=39
12953 Par ch=13 c=7 v=38
12960 On ch=13 n=f5 v=0
12960 On ch=13 n=e5 v=110
12966 Par ch=13 c=7 v=37
12979 Par ch=13 c=7 v=36
12992 Par ch=13 c=7 v=35
13004 Par ch=13 c=7 v=34
13017 Par ch=13 c=7 v=33
13030 Par ch=13 c=7 v=32
13043 Par ch=13 c=7 v=31
13054 On ch=13 n=e5 v=0
13056 Par ch=13 c=7 v=30
13056 Par ch=13 c=7 v=30
13056 On ch=13 n=e5 v=110
13068 Par ch=13 c=7 v=31
13081 Par ch=13 c=7 v=32
13094 Par ch=13 c=7 v=33
13107 Par ch=13 c=7 v=34
13120 Par ch=13 c=7 v=35
13132 Par ch=13 c=7 v=36
13145 Par ch=13 c=7 v=37
13158 Par ch=13 c=7 v=38
13171 Par ch=13 c=7 v=39
13184 Par ch=13 c=7 v=40
13196 Par ch=13 c=7 v=41
13209 Par ch=13 c=7 v=42
13222 Par ch=13 c=7 v=43
13235 Par ch=13 c=7 v=44
13248 Par ch=13 c=7 v=45
13260 Par ch=13 c=7 v=46
13273 Par ch=13 c=7 v=47
13286 Par ch=13 c=7 v=48
13299 Par ch=13 c=7 v=49
13312 Par ch=13 c=7 v=50
13324 Par ch=13 c=7 v=51
13337 Par ch=13 c=7 v=52
13350 Par ch=13 c=7 v=53
13363 Par ch=13 c=7 v=54
13376 Par ch=13 c=7 v=55
13388 Par ch=13 c=7 v=56
13401 Par ch=13 c=7 v=57
13414 Par ch=13 c=7 v=58
13427 Par ch=13 c=7 v=59
13440 On ch=13 n=e5 v=0
13440 Par ch=13 c=7 v=60
13440 On ch=13 n=c#5 v=110
13452 Par ch=13 c=7 v=59
13465 Par ch=13 c=7 v=58
13478 Par ch=13 c=7 v=57
13491 Par ch=13 c=7 v=56
13504 Par ch=13 c=7 v=55
13516 Par ch=13 c=7 v=54
13529 Par ch=13 c=7 v=53
13542 Par ch=13 c=7 v=52
13555 Par ch=13 c=7 v=51
13568 Par ch=13 c=7 v=50
13580 Par ch=13 c=7 v=49
13593 Par ch=13 c=7 v=48
13606 Par ch=13 c=7 v=47
13619 Par ch=13 c=7 v=46
13632 Par ch=13 c=7 v=45
13644 Par ch=13 c=7 v=44
13657 Par ch=13 c=7 v=43
13670 Par ch=13 c=7 v=42
13683 Par ch=13 c=7 v=41
13696 Par ch=13 c=7 v=40
13708 Par ch=13 c=7 v=39
13721 Par ch=13 c=7 v=38
13734 Par ch=13 c=7 v=37
13747 Par ch=13 c=7 v=36
13760 Par ch=13 c=7 v=35
13772 Par ch=13 c=7 v=34
13785 Par ch=13 c=7 v=33
13798 Par ch=13 c=7 v=32
13811 Par ch=13 c=7 v=31
13824 On ch=13 n=c#5 v=0
13824 Par ch=13 c=7 v=30
13824 On ch=13 n=g#4 v=110
14368 On ch=13 n=g#4 v=0
14976 Par ch=13 c=7 v=75
14976 On ch=13 n=b4 v=110
14998 Par ch=13 c=7 v=76
15021 Par ch=13 c=7 v=77
15043 Par ch=13 c=7 v=78
15066 Par ch=13 c=7 v=79
15088 Par ch=13 c=7 v=80
15111 Par ch=13 c=7 v=81
15134 Par ch=13 c=7 v=82
15156 Par ch=13 c=7 v=83
15179 Par ch=13 c=7 v=84
15201 Par ch=13 c=7 v=85
15224 Par ch=13 c=7 v=86
15247 Par ch=13 c=7 v=87
15264 On ch=13 n=b4 v=0
15264 On ch=13 n=d#5 v=110
15269 Par ch=13 c=7 v=88
15292 Par ch=13 c=7 v=89
15314 Par ch=13 c=7 v=90
15337 Par ch=13 c=7 v=91
15358 On ch=13 n=d#5 v=0
15360 Par ch=13 c=7 v=92
15360 On ch=13 n=c#5 v=110
15382 Par ch=13 c=7 v=91
15405 Par ch=13 c=7 v=90
15427 Par ch=13 c=7 v=89
15450 Par ch=13 c=7 v=88
15472 Par ch=13 c=7 v=87
15495 Par ch=13 c=7 v=86
15518 Par ch=13 c=7 v=85
15540 Par ch=13 c=7 v=84
15563 Par ch=13 c=7 v=83
15585 Par ch=13 c=7 v=82
15608 Par ch=13 c=7 v=81
15631 Par ch=13 c=7 v=80
15648 On ch=13 n=c#5 v=0
15648 On ch=13 n=b4 v=110
15653 Par ch=13 c=7 v=79
15676 Par ch=13 c=7 v=78
15698 Par ch=13 c=7 v=77
15721 Par ch=13 c=7 v=76
15742 On ch=13 n=b4 v=0
15744 Par ch=13 c=7 v=75
15744 On ch=13 n=b4 v=110
15755 Par ch=13 c=7 v=76
15766 Par ch=13 c=7 v=77
15777 Par ch=13 c=7 v=78
15789 Par ch=13 c=7 v=79
15800 Par ch=13 c=7 v=80
15811 Par ch=13 c=7 v=81
15823 Par ch=13 c=7 v=82
15834 Par ch=13 c=7 v=83
15845 Par ch=13 c=7 v=84
15856 Par ch=13 c=7 v=85
15868 Par ch=13 c=7 v=86
15879 Par ch=13 c=7 v=87
15890 Par ch=13 c=7 v=88
15902 Par ch=13 c=7 v=89
15913 Par ch=13 c=7 v=90
15924 Par ch=13 c=7 v=91
15936 Par ch=13 c=7 v=92
16128 On ch=13 n=b4 v=0
16128 On ch=13 n=f#5 v=110
16512 Par ch=13 c=7 v=92
16534 Par ch=13 c=7 v=91
16557 Par ch=13 c=7 v=90
16579 Par ch=13 c=7 v=89
16602 Par ch=13 c=7 v=88
16624 Par ch=13 c=7 v=87
16647 Par ch=13 c=7 v=86
16670 Par ch=13 c=7 v=85
16692 Par ch=13 c=7 v=84
16715 Par ch=13 c=7 v=83
16737 Par ch=13 c=7 v=82
16760 Par ch=13 c=7 v=81
16783 Par ch=13 c=7 v=80
16800 On ch=13 n=f#5 v=0
16800 On ch=13 n=f5 v=110
16805 Par ch=13 c=7 v=79
16828 Par ch=13 c=7 v=78
16850 Par ch=13 c=7 v=77
16873 Par ch=13 c=7 v=76
16894 On ch=13 n=f5 v=0
16896 Par ch=13 c=7 v=75
16896 On ch=13 n=f#5 v=110
17280 On ch=13 n=f#5 v=0
17280 On ch=13 n=e5 v=110
17568 On ch=13 n=e5 v=0
17568 On ch=13 n=d#5 v=110
17662 On ch=13 n=d#5 v=0
17664 Par ch=13 c=7 v=75
17664 On ch=13 n=e5 v=110
17675 Par ch=13 c=7 v=76
17686 Par ch=13 c=7 v=77
17697 Par ch=13 c=7 v=78
17709 Par ch=13 c=7 v=79
17720 Par ch=13 c=7 v=80
17731 Par ch=13 c=7 v=81
17743 Par ch=13 c=7 v=82
17754 Par ch=13 c=7 v=83
17765 Par ch=13 c=7 v=84
17776 Par ch=13 c=7 v=85
17788 Par ch=13 c=7 v=86
17799 Par ch=13 c=7 v=87
17810 Par ch=13 c=7 v=88
17822 Par ch=13 c=7 v=89
17833 Par ch=13 c=7 v=90
17844 Par ch=13 c=7 v=91
17856 On ch=13 n=e5 v=0
17856 Par ch=13 c=7 v=92
17856 On ch=13 n=d5 v=110
18016 On ch=13 n=d5 v=0
18048 On ch=13 n=c#5 v=110
18240 On ch=13 n=c#5 v=0
18240 On ch=13 n=b4 v=110
18400 On ch=13 n=b4 v=0
18432 Par ch=13 c=7 v=92
18432 On ch=13 n=a#4 v=110
18443 Par ch=13 c=7 v=91
18454 Par ch=13 c=7 v=90
18465 Par ch=13 c=7 v=89
18477 Par ch=13 c=7 v=88
18488 Par ch=13 c=7 v=87
18499 Par ch=13 c=7 v=86
18511 Par ch=13 c=7 v=85
18522 Par ch=13 c=7 v=84
18533 Par ch=13 c=7 v=83
18544 Par ch=13 c=7 v=82
18556 Par ch=13 c=7 v=81
18567 Par ch=13 c=7 v=80
18578 Par ch=13 c=7 v=79
18590 Par ch=13 c=7 v=78
18601 Par ch=13 c=7 v=77
18612 Par ch=13 c=7 v=76
18624 On ch=13 n=a#4 v=0
18624 Par ch=13 c=7 v=75
18624 On ch=13 n=a4 v=110
18784 On ch=13 n=a4 v=0
18816 On ch=13 n=a4 v=110
19104 On ch=13 n=a4 v=0
19104 On ch=13 n=g#4 v=110
19198 On ch=13 n=g#4 v=0
19200 On ch=13 n=g#4 v=110
19294 On ch=13 n=g#4 v=0
23424 PrCh ch=13 p=48
24672 Par ch=13 c=7 v=75
24672 On ch=13 n=d6 v=110
24677 Par ch=13 c=7 v=76
24683 Par ch=13 c=7 v=77
24688 Par ch=13 c=7 v=78
24694 Par ch=13 c=7 v=79
24700 Par ch=13 c=7 v=80
24705 Par ch=13 c=7 v=81
24711 Par ch=13 c=7 v=82
24717 Par ch=13 c=7 v=83
24722 Par ch=13 c=7 v=84
24728 Par ch=13 c=7 v=85
24734 Par ch=13 c=7 v=86
24739 Par ch=13 c=7 v=87
24745 Par ch=13 c=7 v=88
24751 Par ch=13 c=7 v=89
24756 Par ch=13 c=7 v=90
24762 Par ch=13 c=7 v=91
24768 On ch=13 n=d6 v=0
24768 Par ch=13 c=7 v=92
24768 On ch=13 n=e6 v=110
24864 On ch=13 n=e6 v=0
24864 On ch=13 n=d6 v=110
24958 On ch=13 n=d6 v=0
24960 Par ch=13 c=7 v=92
24960 On ch=13 n=c#6 v=110
24971 Par ch=13 c=7 v=91
24982 Par ch=13 c=7 v=90
24993 Par ch=13 c=7 v=89
25005 Par ch=13 c=7 v=88
25016 Par ch=13 c=7 v=87
25027 Par ch=13 c=7 v=86
25039 Par ch=13 c=7 v=85
25050 Par ch=13 c=7 v=84
25056 On ch=13 n=c#6 v=0
25056 On ch=13 n=d6 v=110
25061 Par ch=13 c=7 v=83
25072 Par ch=13 c=7 v=82
25084 Par ch=13 c=7 v=81
25095 Par ch=13 c=7 v=80
25106 Par ch=13 c=7 v=79
25118 Par ch=13 c=7 v=78
25129 Par ch=13 c=7 v=77
25140 Par ch=13 c=7 v=76
25152 On ch=13 n=d6 v=0
25152 Par ch=13 c=7 v=75
25152 On ch=13 n=e6 v=110
25438 On ch=13 n=e6 v=0
27168 Par ch=13 c=7 v=75
27168 On ch=13 n=c6 v=110
27184 Par ch=13 c=7 v=76
27201 Par ch=13 c=7 v=77
27218 Par ch=13 c=7 v=78
27235 Par ch=13 c=7 v=79
27252 Par ch=13 c=7 v=80
27264 On ch=13 n=c6 v=0
27264 On ch=13 n=c#6 v=110
27269 Par ch=13 c=7 v=81
27286 Par ch=13 c=7 v=82
27303 Par ch=13 c=7 v=83
27320 Par ch=13 c=7 v=84
27337 Par ch=13 c=7 v=85
27354 Par ch=13 c=7 v=86
27358 On ch=13 n=c#6 v=0
27360 On ch=13 n=b5 v=110
27371 Par ch=13 c=7 v=87
27388 Par ch=13 c=7 v=88
27405 Par ch=13 c=7 v=89
27422 Par ch=13 c=7 v=90
27439 Par ch=13 c=7 v=91
27456 On ch=13 n=b5 v=0
27456 Par ch=13 c=7 v=92
27456 On ch=13 n=c6 v=110
27461 Par ch=13 c=7 v=91
27467 Par ch=13 c=7 v=90
27472 Par ch=13 c=7 v=89
27478 Par ch=13 c=7 v=88
27484 Par ch=13 c=7 v=87
27489 Par ch=13 c=7 v=86
27495 Par ch=13 c=7 v=85
27501 Par ch=13 c=7 v=84
27506 Par ch=13 c=7 v=83
27512 Par ch=13 c=7 v=82
27518 Par ch=13 c=7 v=81
27523 Par ch=13 c=7 v=80
27529 Par ch=13 c=7 v=79
27535 Par ch=13 c=7 v=78
27540 Par ch=13 c=7 v=77
27546 Par ch=13 c=7 v=76
27550 On ch=13 n=c6 v=0
27552 Par ch=13 c=7 v=75
27552 On ch=13 n=a#5 v=110
27558 Par ch=13 c=7 v=74
27564 Par ch=13 c=7 v=73
27571 Par ch=13 c=7 v=72
27577 Par ch=13 c=7 v=71
27584 Par ch=13 c=7 v=70
27590 Par ch=13 c=7 v=69
27596 Par ch=13 c=7 v=68
27603 Par ch=13 c=7 v=67
27609 Par ch=13 c=7 v=66
27616 Par ch=13 c=7 v=65
27622 Par ch=13 c=7 v=64
27628 Par ch=13 c=7 v=63
27635 Par ch=13 c=7 v=62
27641 Par ch=13 c=7 v=61
27648 On ch=13 n=a#5 v=0
27648 Par ch=13 c=7 v=60
27648 On ch=13 n=b5 v=110
27654 Par ch=13 c=7 v=59
27660 Par ch=13 c=7 v=58
27667 Par ch=13 c=7 v=57
27673 Par ch=13 c=7 v=56
27680 Par ch=13 c=7 v=55
27686 Par ch=13 c=7 v=54
27692 Par ch=13 c=7 v=53
27699 Par ch=13 c=7 v=52
27705 Par ch=13 c=7 v=51
27712 Par ch=13 c=7 v=50
27718 Par ch=13 c=7 v=49
27724 Par ch=13 c=7 v=48
27731 Par ch=13 c=7 v=47
27737 Par ch=13 c=7 v=46
27744 Par ch=13 c=7 v=45
27750 Par ch=13 c=7 v=44
27756 Par ch=13 c=7 v=43
27763 Par ch=13 c=7 v=42
27769 Par ch=13 c=7 v=41
27776 Par ch=13 c=7 v=40
27782 Par ch=13 c=7 v=39
27788 Par ch=13 c=7 v=38
27795 Par ch=13 c=7 v=37
27801 Par ch=13 c=7 v=36
27808 Par ch=13 c=7 v=35
27814 Par ch=13 c=7 v=34
27820 Par ch=13 c=7 v=33
27827 Par ch=13 c=7 v=32
27833 Par ch=13 c=7 v=31
27840 Par ch=13 c=7 v=30
28126 On ch=13 n=b5 v=0
63168 Par ch=13 c=7 v=45
63168 On ch=13 n=g4 v=110
63180 Par ch=13 c=7 v=46
63193 Par ch=13 c=7 v=47
63206 Par ch=13 c=7 v=48
63219 Par ch=13 c=7 v=49
63232 Par ch=13 c=7 v=50
63244 Par ch=13 c=7 v=51
63257 Par ch=13 c=7 v=52
63270 Par ch=13 c=7 v=53
63283 Par ch=13 c=7 v=54
63296 Par ch=13 c=7 v=55
63308 Par ch=13 c=7 v=56
63321 Par ch=13 c=7 v=57
63334 Par ch=13 c=7 v=58
63347 Par ch=13 c=7 v=59
63360 On ch=13 n=g4 v=0
63360 Par ch=13 c=7 v=60
63360 On ch=13 n=g#4 v=110
63372 Par ch=13 c=7 v=59
63385 Par ch=13 c=7 v=58
63398 Par ch=13 c=7 v=57
63411 Par ch=13 c=7 v=56
63424 Par ch=13 c=7 v=55
63436 Par ch=13 c=7 v=54
63449 Par ch=13 c=7 v=53
63462 Par ch=13 c=7 v=52
63475 Par ch=13 c=7 v=51
63488 Par ch=13 c=7 v=50
63500 Par ch=13 c=7 v=49
63513 Par ch=13 c=7 v=48
63526 Par ch=13 c=7 v=47
63539 Par ch=13 c=7 v=46
63552 Par ch=13 c=7 v=45
63646 On ch=13 n=g#4 v=0
64512 Par ch=13 c=7 v=45
64704 Par ch=13 c=7 v=60
64704 On ch=13 n=g4 v=110
64896 On ch=13 n=g4 v=0
64896 Par ch=13 c=7 v=45
64896 On ch=13 n=g#4 v=110
65182 On ch=13 n=g#4 v=0
66432 On ch=13 n=g4 v=110
66718 On ch=13 n=g4 v=0
67968 On ch=13 n=g4 v=110
68254 On ch=13 n=g4 v=0
69120 Par ch=13 c=7 v=45
69120 On ch=13 n=g4 v=110
69145 Par ch=13 c=7 v=46
69171 Par ch=13 c=7 v=47
69196 Par ch=13 c=7 v=48
69222 Par ch=13 c=7 v=49
69248 Par ch=13 c=7 v=50
69273 Par ch=13 c=7 v=51
69299 Par ch=13 c=7 v=52
69324 Par ch=13 c=7 v=53
69350 Par ch=13 c=7 v=54
69376 Par ch=13 c=7 v=55
69401 Par ch=13 c=7 v=56
69427 Par ch=13 c=7 v=57
69452 Par ch=13 c=7 v=58
69478 Par ch=13 c=7 v=59
69504 On ch=13 n=g4 v=0
69504 Par ch=13 c=7 v=60
69504 On ch=13 n=g#4 v=110
69529 Par ch=13 c=7 v=59
69555 Par ch=13 c=7 v=58
69580 Par ch=13 c=7 v=57
69606 Par ch=13 c=7 v=56
69632 Par ch=13 c=7 v=55
69657 Par ch=13 c=7 v=54
69683 Par ch=13 c=7 v=53
69708 Par ch=13 c=7 v=52
69734 Par ch=13 c=7 v=51
69760 Par ch=13 c=7 v=50
69785 Par ch=13 c=7 v=49
69811 Par ch=13 c=7 v=48
69836 Par ch=13 c=7 v=47
69862 Par ch=13 c=7 v=46
69888 On ch=13 n=g#4 v=0
69888 Par ch=13 c=7 v=45
69888 Par ch=13 c=7 v=45
69888 On ch=13 n=g4 v=110
69913 Par ch=13 c=7 v=46
69939 Par ch=13 c=7 v=47
69964 Par ch=13 c=7 v=48
69990 Par ch=13 c=7 v=49
70016 Par ch=13 c=7 v=50
70041 Par ch=13 c=7 v=51
70067 Par ch=13 c=7 v=52
70092 Par ch=13 c=7 v=53
70118 Par ch=13 c=7 v=54
70144 Par ch=13 c=7 v=55
70169 Par ch=13 c=7 v=56
70195 Par ch=13 c=7 v=57
70220 Par ch=13 c=7 v=58
70246 Par ch=13 c=7 v=59
70272 On ch=13 n=g4 v=0
70272 Par ch=13 c=7 v=60
70272 On ch=13 n=g#4 v=110
70297 Par ch=13 c=7 v=59
70323 Par ch=13 c=7 v=58
70348 Par ch=13 c=7 v=57
70374 Par ch=13 c=7 v=56
70400 Par ch=13 c=7 v=55
70425 Par ch=13 c=7 v=54
70451 Par ch=13 c=7 v=53
70476 Par ch=13 c=7 v=52
70502 Par ch=13 c=7 v=51
70528 Par ch=13 c=7 v=50
70553 Par ch=13 c=7 v=49
70579 Par ch=13 c=7 v=48
70604 Par ch=13 c=7 v=47
70608 On ch=13 n=g#4 v=0
70630 Par ch=13 c=7 v=46
70656 Par ch=13 c=7 v=45
70656 Par ch=13 c=7 v=45
70656 On ch=13 n=a#4 v=110
70686 Par ch=13 c=7 v=46
70716 Par ch=13 c=7 v=47
70747 Par ch=13 c=7 v=48
70777 Par ch=13 c=7 v=49
70808 Par ch=13 c=7 v=50
70838 Par ch=13 c=7 v=51
70869 Par ch=13 c=7 v=52
70899 Par ch=13 c=7 v=53
70930 Par ch=13 c=7 v=54
70960 Par ch=13 c=7 v=55
70991 Par ch=13 c=7 v=56
70992 On ch=13 n=a#4 v=0
71021 Par ch=13 c=7 v=57
71040 On ch=13 n=a#4 v=110
71052 Par ch=13 c=7 v=58
71082 Par ch=13 c=7 v=59
71113 Par ch=13 c=7 v=60
71143 Par ch=13 c=7 v=61
71174 Par ch=13 c=7 v=62
71204 Par ch=13 c=7 v=63
71235 Par ch=13 c=7 v=64
71265 Par ch=13 c=7 v=65
71296 Par ch=13 c=7 v=66
71326 Par ch=13 c=7 v=67
71356 Par ch=13 c=7 v=68
71376 On ch=13 n=a#4 v=0
71387 Par ch=13 c=7 v=69
71417 Par ch=13 c=7 v=70
71424 On ch=13 n=a#4 v=110
71448 Par ch=13 c=7 v=71
71478 Par ch=13 c=7 v=72
71509 Par ch=13 c=7 v=73
71539 Par ch=13 c=7 v=74
71570 Par ch=13 c=7 v=75
71600 Par ch=13 c=7 v=76
71631 Par ch=13 c=7 v=77
71661 Par ch=13 c=7 v=78
71692 Par ch=13 c=7 v=79
71722 Par ch=13 c=7 v=80
71753 Par ch=13 c=7 v=81
71760 On ch=13 n=a#4 v=0
71783 Par ch=13 c=7 v=82
71808 On ch=13 n=c5 v=110
71814 Par ch=13 c=7 v=83
71844 Par ch=13 c=7 v=84
71875 Par ch=13 c=7 v=85
71905 Par ch=13 c=7 v=86
71936 Par ch=13 c=7 v=87
71966 Par ch=13 c=7 v=88
71996 Par ch=13 c=7 v=89
72027 Par ch=13 c=7 v=90
72057 Par ch=13 c=7 v=91
72088 Par ch=13 c=7 v=92
72118 Par ch=13 c=7 v=93
72144 On ch=13 n=c5 v=0
72149 Par ch=13 c=7 v=94
72179 Par ch=13 c=7 v=95
72192 On ch=13 n=d5 v=110
72210 Par ch=13 c=7 v=96
72240 Par ch=13 c=7 v=97
72271 Par ch=13 c=7 v=98
72301 Par ch=13 c=7 v=99
72332 Par ch=13 c=7 v=100
72362 Par ch=13 c=7 v=101
72384 On ch=13 n=d5 v=0
72384 On ch=13 n=b4 v=110
72393 Par ch=13 c=7 v=102
72423 Par ch=13 c=7 v=103
72454 Par ch=13 c=7 v=104
72484 Par ch=13 c=7 v=105
72515 Par ch=13 c=7 v=106
72545 Par ch=13 c=7 v=107
72576 On ch=13 n=b4 v=0
72576 Par ch=13 c=7 v=108
72576 On ch=13 n=d5 v=110
72576 On ch=13 n=b5 v=110
72594 Par ch=13 c=7 v=107
72612 Par ch=13 c=7 v=106
72630 Par ch=13 c=7 v=105
72649 Par ch=13 c=7 v=104
72667 Par ch=13 c=7 v=103
72685 Par ch=13 c=7 v=102
72704 Par ch=13 c=7 v=101
72722 Par ch=13 c=7 v=100
72740 Par ch=13 c=7 v=99
72758 Par ch=13 c=7 v=98
72768 On ch=13 n=b5 v=0
72768 On ch=13 n=a5 v=110
72777 Par ch=13 c=7 v=97
72795 Par ch=13 c=7 v=96
72813 Par ch=13 c=7 v=95
72832 Par ch=13 c=7 v=94
72850 Par ch=13 c=7 v=93
72868 Par ch=13 c=7 v=92
72886 Par ch=13 c=7 v=91
72905 Par ch=13 c=7 v=90
72912 On ch=13 n=d5 v=0
72923 Par ch=13 c=7 v=89
72941 Par ch=13 c=7 v=88
72960 On ch=13 n=a5 v=0
72960 Par ch=13 c=7 v=87
72960 On ch=13 n=g#5 v=110
72978 Par ch=13 c=7 v=86
72996 Par ch=13 c=7 v=85
73014 Par ch=13 c=7 v=84
73033 Par ch=13 c=7 v=83
73051 Par ch=13 c=7 v=82
73069 Par ch=13 c=7 v=81
73088 Par ch=13 c=7 v=80
73106 Par ch=13 c=7 v=79
73124 Par ch=13 c=7 v=78
73142 Par ch=13 c=7 v=77
73161 Par ch=13 c=7 v=76
73179 Par ch=13 c=7 v=75
73197 Par ch=13 c=7 v=74
73216 Par ch=13 c=7 v=73
73234 Par ch=13 c=7 v=72
73252 Par ch=13 c=7 v=71
73270 Par ch=13 c=7 v=70
73289 Par ch=13 c=7 v=69
73307 Par ch=13 c=7 v=68
73325 Par ch=13 c=7 v=67
73344 On ch=13 n=g#5 v=0
73344 Par ch=13 c=7 v=66
73344 On ch=13 n=g5 v=110
73362 Par ch=13 c=7 v=65
73380 Par ch=13 c=7 v=64
73398 Par ch=13 c=7 v=63
73417 Par ch=13 c=7 v=62
73435 Par ch=13 c=7 v=61
73453 Par ch=13 c=7 v=60
73472 Par ch=13 c=7 v=59
73490 Par ch=13 c=7 v=58
73508 Par ch=13 c=7 v=57
73526 Par ch=13 c=7 v=56
73545 Par ch=13 c=7 v=55
73563 Par ch=13 c=7 v=54
73581 Par ch=13 c=7 v=53
73600 Par ch=13 c=7 v=52
73618 Par ch=13 c=7 v=51
73636 Par ch=13 c=7 v=50
73654 Par ch=13 c=7 v=49
73673 Par ch=13 c=7 v=48
73691 Par ch=13 c=7 v=47
73709 Par ch=13 c=7 v=46
73728 On ch=13 n=g5 v=0
73728 Par ch=13 c=7 v=45
73728 On ch=13 n=f#5 v=110
73822 On ch=13 n=f#5 v=0
91776 Par ch=13 c=7 v=75
91776 On ch=13 n=g5 v=110
91776 On ch=13 n=e6 v=110
91788 Par ch=13 c=7 v=74
91801 Par ch=13 c=7 v=73
91814 Par ch=13 c=7 v=72
91827 Par ch=13 c=7 v=71
91840 Par ch=13 c=7 v=70
91852 Par ch=13 c=7 v=69
91865 Par ch=13 c=7 v=68
91878 Par ch=13 c=7 v=67
91891 Par ch=13 c=7 v=66
91904 Par ch=13 c=7 v=65
91916 Par ch=13 c=7 v=64
91929 Par ch=13 c=7 v=63
91942 Par ch=13 c=7 v=62
91955 Par ch=13 c=7 v=61
91968 On ch=13 n=g5 v=0
91968 On ch=13 n=e6 v=0
91968 Par ch=13 c=7 v=60
91968 On ch=13 n=g#5 v=110
91968 On ch=13 n=f6 v=110
92160 On ch=13 n=g#5 v=0
92160 On ch=13 n=f6 v=0
92160 Par ch=13 c=7 v=75
92160 On ch=13 n=g5 v=110
92160 On ch=13 n=d#6 v=110
92172 Par ch=13 c=7 v=74
92185 Par ch=13 c=7 v=73
92198 Par ch=13 c=7 v=72
92211 Par ch=13 c=7 v=71
92224 Par ch=13 c=7 v=70
92236 Par ch=13 c=7 v=69
92249 Par ch=13 c=7 v=68
92262 Par ch=13 c=7 v=67
92275 Par ch=13 c=7 v=66
92288 Par ch=13 c=7 v=65
92300 Par ch=13 c=7 v=64
92313 Par ch=13 c=7 v=63
92326 Par ch=13 c=7 v=62
92339 Par ch=13 c=7 v=61
92352 On ch=13 n=d#6 v=0
92352 Par ch=13 c=7 v=60
92352 On ch=13 n=e6 v=110
92496 On ch=13 n=g5 v=0
92544 On ch=13 n=e6 v=0
92544 Par ch=13 c=7 v=75
92544 On ch=13 n=e6 v=110
92544 On ch=13 n=g6 v=110
92556 Par ch=13 c=7 v=74
92569 Par ch=13 c=7 v=73
92582 Par ch=13 c=7 v=72
92595 Par ch=13 c=7 v=71
92608 Par ch=13 c=7 v=70
92620 Par ch=13 c=7 v=69
92633 Par ch=13 c=7 v=68
92646 Par ch=13 c=7 v=67
92659 Par ch=13 c=7 v=66
92672 Par ch=13 c=7 v=65
92684 Par ch=13 c=7 v=64
92697 Par ch=13 c=7 v=63
92710 Par ch=13 c=7 v=62
92723 Par ch=13 c=7 v=61
92736 On ch=13 n=g6 v=0
92736 Par ch=13 c=7 v=60
92736 On ch=13 n=g#6 v=110
92880 On ch=13 n=e6 v=0
92928 On ch=13 n=g#6 v=0
92928 Par ch=13 c=7 v=60
92928 On ch=13 n=b5 v=110
92928 On ch=13 n=d#6 v=110
92953 Par ch=13 c=7 v=59
92979 Par ch=13 c=7 v=58
93004 Par ch=13 c=7 v=57
93030 Par ch=13 c=7 v=56
93056 Par ch=13 c=7 v=55
93081 Par ch=13 c=7 v=54
93107 Par ch=13 c=7 v=53
93120 On ch=13 n=d#6 v=0
93120 On ch=13 n=e6 v=110
93132 Par ch=13 c=7 v=52
93158 Par ch=13 c=7 v=51
93184 Par ch=13 c=7 v=50
93209 Par ch=13 c=7 v=49
93235 Par ch=13 c=7 v=48
93260 Par ch=13 c=7 v=47
93264 On ch=13 n=b5 v=0
93286 Par ch=13 c=7 v=46
93312 On ch=13 n=e6 v=0
93312 Par ch=13 c=7 v=45
93312 On ch=13 n=g#5 v=110
93312 On ch=13 n=c6 v=110
93337 Par ch=13 c=7 v=44
93363 Par ch=13 c=7 v=43
93388 Par ch=13 c=7 v=42
93414 Par ch=13 c=7 v=41
93440 Par ch=13 c=7 v=40
93465 Par ch=13 c=7 v=39
93491 Par ch=13 c=7 v=38
93504 On ch=13 n=c6 v=0
93504 On ch=13 n=c#6 v=110
93516 Par ch=13 c=7 v=37
93542 Par ch=13 c=7 v=36
93568 Par ch=13 c=7 v=35
93593 Par ch=13 c=7 v=34
93619 Par ch=13 c=7 v=33
93644 Par ch=13 c=7 v=32
93648 On ch=13 n=g#5 v=0
93670 Par ch=13 c=7 v=31
93696 On ch=13 n=c#6 v=0
93696 Par ch=13 c=7 v=30
93696 On ch=13 n=e5 v=110
93696 On ch=13 n=g5 v=110
93856 On ch=13 n=e5 v=0
93856 On ch=13 n=g5 v=0
93888 On ch=13 n=g#5 v=110
94048 On ch=13 n=g#5 v=0
94080 On ch=13 n=b4 v=110
94080 On ch=13 n=d#5 v=110
94240 On ch=13 n=b4 v=0
94240 On ch=13 n=d#5 v=0
94272 On ch=13 n=e5 v=110
94432 On ch=13 n=e5 v=0
95616 On ch=13 n=b5 v=110
95776 On ch=13 n=b5 v=0
95808 Par ch=13 c=7 v=45
95808 On ch=13 n=b5 v=110
95808 On ch=13 n=b6 v=110
95810 Par ch=13 c=7 v=46
95812 Par ch=13 c=7 v=47
95815 Par ch=13 c=7 v=48
95817 Par ch=13 c=7 v=49
95819 Par ch=13 c=7 v=50
95822 Par ch=13 c=7 v=51
95824 Par ch=13 c=7 v=52
95826 Par ch=13 c=7 v=53
95829 Par ch=13 c=7 v=54
95831 Par ch=13 c=7 v=55
95833 Par ch=13 c=7 v=56
95836 Par ch=13 c=7 v=57
95838 Par ch=13 c=7 v=58
95840 Par ch=13 c=7 v=59
95843 Par ch=13 c=7 v=60
95845 Par ch=13 c=7 v=61
95847 Par ch=13 c=7 v=62
95850 Par ch=13 c=7 v=63
95852 Par ch=13 c=7 v=64
95854 Par ch=13 c=7 v=65
95857 Par ch=13 c=7 v=66
95859 Par ch=13 c=7 v=67
95861 Par ch=13 c=7 v=68
95864 Par ch=13 c=7 v=69
95866 Par ch=13 c=7 v=70
95868 Par ch=13 c=7 v=71
95871 Par ch=13 c=7 v=72
95873 Par ch=13 c=7 v=73
95875 Par ch=13 c=7 v=74
95878 Par ch=13 c=7 v=75
95880 Par ch=13 c=7 v=76
95882 Par ch=13 c=7 v=77
95885 Par ch=13 c=7 v=78
95887 Par ch=13 c=7 v=79
95889 Par ch=13 c=7 v=80
95892 Par ch=13 c=7 v=81
95894 Par ch=13 c=7 v=82
95896 Par ch=13 c=7 v=83
95899 Par ch=13 c=7 v=84
95901 Par ch=13 c=7 v=85
95903 Par ch=13 c=7 v=86
95906 Par ch=13 c=7 v=87
95908 Par ch=13 c=7 v=88
95911 Par ch=13 c=7 v=89
95913 Par ch=13 c=7 v=90
95915 Par ch=13 c=7 v=91
95918 Par ch=13 c=7 v=92
95920 Par ch=13 c=7 v=93
95922 Par ch=13 c=7 v=94
95925 Par ch=13 c=7 v=95
95927 Par ch=13 c=7 v=96
95929 Par ch=13 c=7 v=97
95932 Par ch=13 c=7 v=98
95934 Par ch=13 c=7 v=99
95936 Par ch=13 c=7 v=100
95939 Par ch=13 c=7 v=101
95941 Par ch=13 c=7 v=102
95943 Par ch=13 c=7 v=103
95946 Par ch=13 c=7 v=104
95948 Par ch=13 c=7 v=105
95950 Par ch=13 c=7 v=106
95953 Par ch=13 c=7 v=107
95955 Par ch=13 c=7 v=108
95957 Par ch=13 c=7 v=109
95960 Par ch=13 c=7 v=110
95962 Par ch=13 c=7 v=111
95964 Par ch=13 c=7 v=112
95967 Par ch=13 c=7 v=113
95968 On ch=13 n=b5 v=0
95968 On ch=13 n=b6 v=0
95969 Par ch=13 c=7 v=114
95971 Par ch=13 c=7 v=115
95974 Par ch=13 c=7 v=116
95976 Par ch=13 c=7 v=117
95978 Par ch=13 c=7 v=118
95981 Par ch=13 c=7 v=119
95983 Par ch=13 c=7 v=120
95985 Par ch=13 c=7 v=121
95988 Par ch=13 c=7 v=122
95990 Par ch=13 c=7 v=123
95992 Par ch=13 c=7 v=124
95995 Par ch=13 c=7 v=125
95997 Par ch=13 c=7 v=126
96000 Par ch=13 c=7 v=127
96000 On ch=13 n=a4 v=110
96000 On ch=13 n=f5 v=110
96000 On ch=13 n=c6 v=110
96000 On ch=13 n=c7 v=110
96094 On ch=13 n=a4 v=0
96094 On ch=13 n=f5 v=0
96094 On ch=13 n=c6 v=0
96094 On ch=13 n=c7 v=0
98304 Par ch=13 c=7 v=75
99072 PrCh ch=13 p=45
99456 On ch=13 n=c5 v=110
99550 On ch=13 n=c5 v=0
113280 Par ch=13 c=7 v=45
114048 PrCh ch=13 p=50
114432 On ch=13 n=e6 v=110
114624 On ch=13 n=e6 v=0
114624 On ch=13 n=f#6 v=110
114816 On ch=13 n=f#6 v=0
114816 On ch=13 n=g#6 v=110
114976 On ch=13 n=g#6 v=0
115008 On ch=13 n=g#6 v=110
115200 Par ch=13 c=7 v=45
115225 Par ch=13 c=7 v=46
115251 Par ch=13 c=7 v=47
115276 Par ch=13 c=7 v=48
115294 On ch=13 n=g#6 v=0
115296 On ch=13 n=g#6 v=110
115302 Par ch=13 c=7 v=49
115328 Par ch=13 c=7 v=50
115353 Par ch=13 c=7 v=51
115379 Par ch=13 c=7 v=52
115392 On ch=13 n=g#6 v=0
115392 On ch=13 n=f#6 v=110
115404 Par ch=13 c=7 v=53
115430 Par ch=13 c=7 v=54
115456 Par ch=13 c=7 v=55
115481 Par ch=13 c=7 v=56
115488 On ch=13 n=f#6 v=0
115488 On ch=13 n=g#6 v=110
115507 Par ch=13 c=7 v=57
115532 Par ch=13 c=7 v=58
115558 Par ch=13 c=7 v=59
115582 On ch=13 n=g#6 v=0
115584 Par ch=13 c=7 v=60
115584 On ch=13 n=g#6 v=110
115609 Par ch=13 c=7 v=59
115635 Par ch=13 c=7 v=58
115660 Par ch=13 c=7 v=57
115680 On ch=13 n=g#6 v=0
115680 On ch=13 n=a6 v=110
115686 Par ch=13 c=7 v=56
115712 Par ch=13 c=7 v=55
115737 Par ch=13 c=7 v=54
115763 Par ch=13 c=7 v=53
115776 On ch=13 n=a6 v=0
115776 On ch=13 n=f#6 v=110
115788 Par ch=13 c=7 v=52
115814 Par ch=13 c=7 v=51
115840 Par ch=13 c=7 v=50
115865 Par ch=13 c=7 v=49
115872 On ch=13 n=f#6 v=0
115872 On ch=13 n=e6 v=110
115891 Par ch=13 c=7 v=48
115916 Par ch=13 c=7 v=47
115942 Par ch=13 c=7 v=46
115966 On ch=13 n=e6 v=0
115968 Par ch=13 c=7 v=45
115968 Par ch=13 c=7 v=45
115968 On ch=13 n=g#6 v=110
115993 Par ch=13 c=7 v=46
116019 Par ch=13 c=7 v=47
116044 Par ch=13 c=7 v=48
116070 Par ch=13 c=7 v=49
116096 Par ch=13 c=7 v=50
116121 Par ch=13 c=7 v=51
116147 Par ch=13 c=7 v=52
116172 Par ch=13 c=7 v=53
116198 Par ch=13 c=7 v=54
116224 Par ch=13 c=7 v=55
116249 Par ch=13 c=7 v=56
116275 Par ch=13 c=7 v=57
116300 Par ch=13 c=7 v=58
116326 Par ch=13 c=7 v=59
116352 Par ch=13 c=7 v=60
116377 Par ch=13 c=7 v=59
116403 Par ch=13 c=7 v=58
116428 Par ch=13 c=7 v=57
116446 On ch=13 n=g#6 v=0
116448 On ch=13 n=f#6 v=110
116454 Par ch=13 c=7 v=56
116480 Par ch=13 c=7 v=55
116505 Par ch=13 c=7 v=54
116531 Par ch=13 c=7 v=53
116544 On ch=13 n=f#6 v=0
116544 On ch=13 n=g#6 v=110
116556 Par ch=13 c=7 v=52
116582 Par ch=13 c=7 v=51
116608 Par ch=13 c=7 v=50
116633 Par ch=13 c=7 v=49
116640 On ch=13 n=g#6 v=0
116640 On ch=13 n=f#6 v=110
116659 Par ch=13 c=7 v=48
116684 Par ch=13 c=7 v=47
116710 Par ch=13 c=7 v=46
116734 On ch=13 n=f#6 v=0
116736 Par ch=13 c=7 v=45
116736 On ch=13 n=g#6 v=110
116748 Par ch=13 c=7 v=44
116761 Par ch=13 c=7 v=43
116774 Par ch=13 c=7 v=42
116787 Par ch=13 c=7 v=41
116800 Par ch=13 c=7 v=40
116812 Par ch=13 c=7 v=39
116825 Par ch=13 c=7 v=38
116838 Par ch=13 c=7 v=37
116851 Par ch=13 c=7 v=36
116864 Par ch=13 c=7 v=35
116876 Par ch=13 c=7 v=34
116889 Par ch=13 c=7 v=33
116902 Par ch=13 c=7 v=32
116915 Par ch=13 c=7 v=31
116928 Par ch=13 c=7 v=30
117214 On ch=13 n=g#6 v=0
117504 Par ch=13 c=7 v=45
117696 On ch=13 n=e6 v=110
117888 Par ch=13 c=7 v=45
117913 Par ch=13 c=7 v=46
117939 Par ch=13 c=7 v=47
117964 Par ch=13 c=7 v=48
117982 On ch=13 n=e6 v=0
117984 On ch=13 n=e6 v=110
117990 Par ch=13 c=7 v=49
118016 Par ch=13 c=7 v=50
118041 Par ch=13 c=7 v=51
118067 Par ch=13 c=7 v=52
118078 On ch=13 n=e6 v=0
118080 On ch=13 n=d6 v=110
118092 Par ch=13 c=7 v=53
118118 Par ch=13 c=7 v=54
118144 Par ch=13 c=7 v=55
118169 Par ch=13 c=7 v=56
118174 On ch=13 n=d6 v=0
118176 On ch=13 n=e6 v=110
118195 Par ch=13 c=7 v=57
118220 Par ch=13 c=7 v=58
118246 Par ch=13 c=7 v=59
118270 On ch=13 n=e6 v=0
118272 Par ch=13 c=7 v=60
118272 On ch=13 n=e6 v=110
118297 Par ch=13 c=7 v=59
118323 Par ch=13 c=7 v=58
118348 Par ch=13 c=7 v=57
118366 On ch=13 n=e6 v=0
118368 On ch=13 n=f6 v=110
118374 Par ch=13 c=7 v=56
118400 Par ch=13 c=7 v=55
118425 Par ch=13 c=7 v=54
118451 Par ch=13 c=7 v=53
118462 On ch=13 n=f6 v=0
118464 On ch=13 n=d6 v=110
118476 Par ch=13 c=7 v=52
118502 Par ch=13 c=7 v=51
118528 Par ch=13 c=7 v=50
118553 Par ch=13 c=7 v=49
118558 On ch=13 n=d6 v=0
118560 On ch=13 n=c#6 v=110
118579 Par ch=13 c=7 v=48
118604 Par ch=13 c=7 v=47
118630 Par ch=13 c=7 v=46
118654 On ch=13 n=c#6 v=0
118656 Par ch=13 c=7 v=45
118656 Par ch=13 c=7 v=45
118656 On ch=13 n=e6 v=110
118681 Par ch=13 c=7 v=46
118707 Par ch=13 c=7 v=47
118732 Par ch=13 c=7 v=48
118758 Par ch=13 c=7 v=49
118784 Par ch=13 c=7 v=50
118809 Par ch=13 c=7 v=51
118835 Par ch=13 c=7 v=52
118860 Par ch=13 c=7 v=53
118886 Par ch=13 c=7 v=54
118912 Par ch=13 c=7 v=55
118937 Par ch=13 c=7 v=56
118963 Par ch=13 c=7 v=57
118988 Par ch=13 c=7 v=58
119014 Par ch=13 c=7 v=59
119040 Par ch=13 c=7 v=60
119065 Par ch=13 c=7 v=59
119091 Par ch=13 c=7 v=58
119116 Par ch=13 c=7 v=57
119134 On ch=13 n=e6 v=0
119136 On ch=13 n=d#6 v=110
119142 Par ch=13 c=7 v=56
119168 Par ch=13 c=7 v=55
119193 Par ch=13 c=7 v=54
119219 Par ch=13 c=7 v=53
119232 On ch=13 n=d#6 v=0
119232 On ch=13 n=e6 v=110
119244 Par ch=13 c=7 v=52
119270 Par ch=13 c=7 v=51
119296 Par ch=13 c=7 v=50
119321 Par ch=13 c=7 v=49
119328 On ch=13 n=e6 v=0
119328 On ch=13 n=d#6 v=110
119347 Par ch=13 c=7 v=48
119372 Par ch=13 c=7 v=47
119398 Par ch=13 c=7 v=46
119422 On ch=13 n=d#6 v=0
119424 Par ch=13 c=7 v=45
119424 On ch=13 n=e6 v=110
119449 Par ch=13 c=7 v=44
119475 Par ch=13 c=7 v=43
119500 Par ch=13 c=7 v=42
119526 Par ch=13 c=7 v=41
119552 Par ch=13 c=7 v=40
119577 Par ch=13 c=7 v=39
119603 Par ch=13 c=7 v=38
119628 Par ch=13 c=7 v=37
119654 Par ch=13 c=7 v=36
119680 Par ch=13 c=7 v=35
119705 Par ch=13 c=7 v=34
119731 Par ch=13 c=7 v=33
119756 Par ch=13 c=7 v=32
119782 Par ch=13 c=7 v=31
119808 Par ch=13 c=7 v=30
119902 On ch=13 n=e6 v=0
120384 Par ch=13 c=7 v=60
120384 On ch=13 n=g#6 v=110
120409 Par ch=13 c=7 v=61
120435 Par ch=13 c=7 v=62
120460 Par ch=13 c=7 v=63
120486 Par ch=13 c=7 v=64
120512 Par ch=13 c=7 v=65
120537 Par ch=13 c=7 v=66
120563 Par ch=13 c=7 v=67
120588 Par ch=13 c=7 v=68
120614 Par ch=13 c=7 v=69
120640 Par ch=13 c=7 v=70
120665 Par ch=13 c=7 v=71
120672 On ch=13 n=g#6 v=0
120672 On ch=13 n=g#6 v=110
120691 Par ch=13 c=7 v=72
120716 Par ch=13 c=7 v=73
120742 Par ch=13 c=7 v=74
120768 On ch=13 n=g#6 v=0
120768 Par ch=13 c=7 v=75
120768 On ch=13 n=f#6 v=110
120793 Par ch=13 c=7 v=74
120819 Par ch=13 c=7 v=73
120844 Par ch=13 c=7 v=72
120864 On ch=13 n=f#6 v=0
120864 On ch=13 n=g#6 v=110
120870 Par ch=13 c=7 v=71
120896 Par ch=13 c=7 v=70
120921 Par ch=13 c=7 v=69
120947 Par ch=13 c=7 v=68
120958 On ch=13 n=g#6 v=0
120960 On ch=13 n=g#6 v=110
120972 Par ch=13 c=7 v=67
120998 Par ch=13 c=7 v=66
121024 Par ch=13 c=7 v=65
121049 Par ch=13 c=7 v=64
121056 On ch=13 n=g#6 v=0
121056 On ch=13 n=a6 v=110
121075 Par ch=13 c=7 v=63
121100 Par ch=13 c=7 v=62
121126 Par ch=13 c=7 v=61
121152 On ch=13 n=a6 v=0
121152 Par ch=13 c=7 v=60
121152 On ch=13 n=f#6 v=110
121248 On ch=13 n=f#6 v=0
121248 On ch=13 n=e6 v=110
121342 On ch=13 n=e6 v=0
121344 Par ch=13 c=7 v=60
121344 On ch=13 n=g#6 v=110
121369 Par ch=13 c=7 v=61
121395 Par ch=13 c=7 v=62
121420 Par ch=13 c=7 v=63
121446 Par ch=13 c=7 v=64
121472 Par ch=13 c=7 v=65
121497 Par ch=13 c=7 v=66
121523 Par ch=13 c=7 v=67
121548 Par ch=13 c=7 v=68
121574 Par ch=13 c=7 v=69
121600 Par ch=13 c=7 v=70
121625 Par ch=13 c=7 v=71
121651 Par ch=13 c=7 v=72
121676 Par ch=13 c=7 v=73
121702 Par ch=13 c=7 v=74
121728 Par ch=13 c=7 v=75
121804 Par ch=13 c=7 v=74
121822 On ch=13 n=g#6 v=0
121824 On ch=13 n=g#6 v=110
121881 Par ch=13 c=7 v=73
121920 On ch=13 n=g#6 v=0
121920 On ch=13 n=f#6 v=110
121958 Par ch=13 c=7 v=72
122016 On ch=13 n=f#6 v=0
122016 On ch=13 n=g#6 v=110
122035 Par ch=13 c=7 v=71
122110 On ch=13 n=g#6 v=0
122112 Par ch=13 c=7 v=70
122112 On ch=13 n=g#6 v=110
122188 Par ch=13 c=7 v=69
122208 On ch=13 n=g#6 v=0
122208 On ch=13 n=a6 v=110
122265 Par ch=13 c=7 v=68
122304 On ch=13 n=a6 v=0
122304 On ch=13 n=f#6 v=110
122342 Par ch=13 c=7 v=67
122400 On ch=13 n=f#6 v=0
122400 On ch=13 n=f6 v=110
122419 Par ch=13 c=7 v=66
122494 On ch=13 n=f6 v=0
122496 Par ch=13 c=7 v=65
122496 On ch=13 n=f#6 v=110
122572 Par ch=13 c=7 v=64
122649 Par ch=13 c=7 v=63
122726 Par ch=13 c=7 v=62
122803 Par ch=13 c=7 v=61
122880 Par ch=13 c=7 v=60
122974 On ch=13 n=f#6 v=0
122976 On ch=13 n=g#6 v=110
123072 On ch=13 n=g#6 v=0
123072 On ch=13 n=e6 v=110
123168 On ch=13 n=e6 v=0
123168 On ch=13 n=d#6 v=110
123262 On ch=13 n=d#6 v=0
123264 Par ch=13 c=7 v=60
123264 On ch=13 n=e6 v=110
123276 Par ch=13 c=7 v=61
123288 Par ch=13 c=7 v=62
123300 Par ch=13 c=7 v=63
123312 Par ch=13 c=7 v=64
123324 Par ch=13 c=7 v=65
123336 Par ch=13 c=7 v=66
123348 Par ch=13 c=7 v=67
123360 Par ch=13 c=7 v=68
123372 Par ch=13 c=7 v=69
123384 Par ch=13 c=7 v=70
123396 Par ch=13 c=7 v=71
123408 Par ch=13 c=7 v=72
123420 Par ch=13 c=7 v=73
123432 Par ch=13 c=7 v=74
123444 Par ch=13 c=7 v=75
123456 On ch=13 n=e6 v=0
123456 Par ch=13 c=7 v=76
123456 On ch=13 n=d7 v=110
123468 Par ch=13 c=7 v=77
123480 Par ch=13 c=7 v=78
123492 Par ch=13 c=7 v=79
123504 Par ch=13 c=7 v=80
123516 Par ch=13 c=7 v=81
123528 Par ch=13 c=7 v=82
123540 Par ch=13 c=7 v=83
123552 Par ch=13 c=7 v=84
123564 Par ch=13 c=7 v=85
123576 Par ch=13 c=7 v=86
123588 Par ch=13 c=7 v=87
123600 Par ch=13 c=7 v=88
123612 Par ch=13 c=7 v=89
123624 Par ch=13 c=7 v=90
123636 Par ch=13 c=7 v=91
123648 On ch=13 n=d7 v=0
123648 Par ch=13 c=7 v=92
123648 On ch=13 n=c#7 v=110
123664 Par ch=13 c=7 v=91
123680 Par ch=13 c=7 v=90
123697 Par ch=13 c=7 v=89
123713 Par ch=13 c=7 v=88
123729 Par ch=13 c=7 v=87
123746 Par ch=13 c=7 v=86
123762 Par ch=13 c=7 v=85
123778 Par ch=13 c=7 v=84
123795 Par ch=13 c=7 v=83
123811 Par ch=13 c=7 v=82
123827 Par ch=13 c=7 v=81
123840 On ch=13 n=c#7 v=0
123840 On ch=13 n=b6 v=110
123844 Par ch=13 c=7 v=80
123860 Par ch=13 c=7 v=79
123876 Par ch=13 c=7 v=78
123893 Par ch=13 c=7 v=77
123909 Par ch=13 c=7 v=76
123925 Par ch=13 c=7 v=75
123942 Par ch=13 c=7 v=74
123958 Par ch=13 c=7 v=73
123974 Par ch=13 c=7 v=72
123991 Par ch=13 c=7 v=71
124007 Par ch=13 c=7 v=70
124023 Par ch=13 c=7 v=69
124032 On ch=13 n=b6 v=0
124032 On ch=13 n=a#6 v=110
124040 Par ch=13 c=7 v=68
124056 Par ch=13 c=7 v=67
124072 Par ch=13 c=7 v=66
124089 Par ch=13 c=7 v=65
124105 Par ch=13 c=7 v=64
124121 Par ch=13 c=7 v=63
124138 Par ch=13 c=7 v=62
124154 Par ch=13 c=7 v=61
124170 Par ch=13 c=7 v=60
124187 Par ch=13 c=7 v=59
124203 Par ch=13 c=7 v=58
124219 Par ch=13 c=7 v=57
124224 On ch=13 n=a#6 v=0
124224 On ch=13 n=a6 v=110
124236 Par ch=13 c=7 v=56
124252 Par ch=13 c=7 v=55
124268 Par ch=13 c=7 v=54
124285 Par ch=13 c=7 v=53
124301 Par ch=13 c=7 v=52
124317 Par ch=13 c=7 v=51
124334 Par ch=13 c=7 v=50
124350 Par ch=13 c=7 v=49
124366 Par ch=13 c=7 v=48
124383 Par ch=13 c=7 v=47
124399 Par ch=13 c=7 v=46
124416 On ch=13 n=a6 v=0
124416 Par ch=13 c=7 v=45
124416 On ch=13 n=a6 v=110
124441 Par ch=13 c=7 v=46
124467 Par ch=13 c=7 v=47
124492 Par ch=13 c=7 v=48
124518 Par ch=13 c=7 v=49
124544 Par ch=13 c=7 v=50
124569 Par ch=13 c=7 v=51
124595 Par ch=13 c=7 v=52
124620 Par ch=13 c=7 v=53
124646 Par ch=13 c=7 v=54
124672 Par ch=13 c=7 v=55
124697 Par ch=13 c=7 v=56
124704 On ch=13 n=a6 v=0
124704 On ch=13 n=g#6 v=110
124723 Par ch=13 c=7 v=57
124748 Par ch=13 c=7 v=58
124774 Par ch=13 c=7 v=59
124798 On ch=13 n=g#6 v=0
124800 Par ch=13 c=7 v=60
124800 On ch=13 n=b6 v=110
125184 Par ch=13 c=7 v=75
125195 Par ch=13 c=7 v=76
125207 Par ch=13 c=7 v=77
125218 Par ch=13 c=7 v=78
125230 Par ch=13 c=7 v=79
125242 Par ch=13 c=7 v=80
125253 Par ch=13 c=7 v=81
125265 Par ch=13 c=7 v=82
125277 Par ch=13 c=7 v=83
125288 Par ch=13 c=7 v=84
125300 Par ch=13 c=7 v=85
125312 Par ch=13 c=7 v=86
125323 Par ch=13 c=7 v=87
125335 Par ch=13 c=7 v=88
125346 Par ch=13 c=7 v=89
125358 Par ch=13 c=7 v=90
125370 Par ch=13 c=7 v=91
125381 Par ch=13 c=7 v=92
125393 Par ch=13 c=7 v=93
125405 Par ch=13 c=7 v=94
125416 Par ch=13 c=7 v=95
125428 Par ch=13 c=7 v=96
125440 Par ch=13 c=7 v=97
125451 Par ch=13 c=7 v=98
125463 Par ch=13 c=7 v=99
125474 Par ch=13 c=7 v=100
125486 Par ch=13 c=7 v=101
125498 Par ch=13 c=7 v=102
125509 Par ch=13 c=7 v=103
125521 Par ch=13 c=7 v=104
125533 Par ch=13 c=7 v=105
125544 Par ch=13 c=7 v=106
125556 Par ch=13 c=7 v=107
125568 Par ch=13 c=7 v=108
125952 On ch=13 n=b6 v=0
125952 Par ch=13 c=7 v=108
125952 On ch=13 n=a6 v=110
125958 Par ch=13 c=7 v=107
125964 Par ch=13 c=7 v=106
125970 Par ch=13 c=7 v=105
125976 Par ch=13 c=7 v=104
125982 Par ch=13 c=7 v=103
125988 Par ch=13 c=7 v=102
125994 Par ch=13 c=7 v=101
126000 Par ch=13 c=7 v=100
126006 Par ch=13 c=7 v=99
126012 Par ch=13 c=7 v=98
126019 Par ch=13 c=7 v=97
126025 Par ch=13 c=7 v=96
126031 Par ch=13 c=7 v=95
126037 Par ch=13 c=7 v=94
126043 Par ch=13 c=7 v=93
126048 On ch=13 n=a6 v=0
126048 On ch=13 n=g#6 v=110
126049 Par ch=13 c=7 v=92
126055 Par ch=13 c=7 v=91
126061 Par ch=13 c=7 v=90
126067 Par ch=13 c=7 v=89
126073 Par ch=13 c=7 v=88
126080 Par ch=13 c=7 v=87
126086 Par ch=13 c=7 v=86
126092 Par ch=13 c=7 v=85
126098 Par ch=13 c=7 v=84
126104 Par ch=13 c=7 v=83
126110 Par ch=13 c=7 v=82
126116 Par ch=13 c=7 v=81
126122 Par ch=13 c=7 v=80
126128 Par ch=13 c=7 v=79
126134 Par ch=13 c=7 v=78
126140 Par ch=13 c=7 v=77
126142 On ch=13 n=g#6 v=0
126144 On ch=13 n=a6 v=110
126147 Par ch=13 c=7 v=76
126153 Par ch=13 c=7 v=75
126159 Par ch=13 c=7 v=74
126165 Par ch=13 c=7 v=73
126171 Par ch=13 c=7 v=72
126177 Par ch=13 c=7 v=71
126183 Par ch=13 c=7 v=70
126189 Par ch=13 c=7 v=69
126195 Par ch=13 c=7 v=68
126201 Par ch=13 c=7 v=67
126208 Par ch=13 c=7 v=66
126214 Par ch=13 c=7 v=65
126220 Par ch=13 c=7 v=64
126226 Par ch=13 c=7 v=63
126232 Par ch=13 c=7 v=62
126238 Par ch=13 c=7 v=61
126244 Par ch=13 c=7 v=60
126250 Par ch=13 c=7 v=59
126256 Par ch=13 c=7 v=58
126262 Par ch=13 c=7 v=57
126268 Par ch=13 c=7 v=56
126275 Par ch=13 c=7 v=55
126281 Par ch=13 c=7 v=54
126287 Par ch=13 c=7 v=53
126288 On ch=13 n=a6 v=0
126288 On ch=13 n=g#6 v=110
126293 Par ch=13 c=7 v=52
126299 Par ch=13 c=7 v=51
126305 Par ch=13 c=7 v=50
126311 Par ch=13 c=7 v=49
126317 Par ch=13 c=7 v=48
126323 Par ch=13 c=7 v=47
126329 Par ch=13 c=7 v=46
126334 On ch=13 n=g#6 v=0
126336 Par ch=13 c=7 v=45
126336 On ch=13 n=g#6 v=110
126720 Par ch=13 c=7 v=45
126726 Par ch=13 c=7 v=46
126732 Par ch=13 c=7 v=47
126738 Par ch=13 c=7 v=48
126744 Par ch=13 c=7 v=49
126750 Par ch=13 c=7 v=50
126756 Par ch=13 c=7 v=51
126762 Par ch=13 c=7 v=52
126768 Par ch=13 c=7 v=53
126774 Par ch=13 c=7 v=54
126780 Par ch=13 c=7 v=55
126787 Par ch=13 c=7 v=56
126793 Par ch=13 c=7 v=57
126799 Par ch=13 c=7 v=58
126805 Par ch=13 c=7 v=59
126811 Par ch=13 c=7 v=60
126817 Par ch=13 c=7 v=61
126823 Par ch=13 c=7 v=62
126829 Par ch=13 c=7 v=63
126835 Par ch=13 c=7 v=64
126841 Par ch=13 c=7 v=65
126848 Par ch=13 c=7 v=66
126854 Par ch=13 c=7 v=67
126860 Par ch=13 c=7 v=68
126866 Par ch=13 c=7 v=69
126872 Par ch=13 c=7 v=70
126878 Par ch=13 c=7 v=71
126884 Par ch=13 c=7 v=72
126890 Par ch=13 c=7 v=73
126896 Par ch=13 c=7 v=74
126902 Par ch=13 c=7 v=75
126908 Par ch=13 c=7 v=76
126915 Par ch=13 c=7 v=77
126921 Par ch=13 c=7 v=78
126927 Par ch=13 c=7 v=79
126933 Par ch=13 c=7 v=80
126939 Par ch=13 c=7 v=81
126945 Par ch=13 c=7 v=82
126951 Par ch=13 c=7 v=83
126957 Par ch=13 c=7 v=84
126963 Par ch=13 c=7 v=85
126969 Par ch=13 c=7 v=86
126976 Par ch=13 c=7 v=87
126982 Par ch=13 c=7 v=88
126988 Par ch=13 c=7 v=89
126994 Par ch=13 c=7 v=90
127000 Par ch=13 c=7 v=91
127006 Par ch=13 c=7 v=92
127012 Par ch=13 c=7 v=93
127018 Par ch=13 c=7 v=94
127024 Par ch=13 c=7 v=95
127030 Par ch=13 c=7 v=96
127036 Par ch=13 c=7 v=97
127043 Par ch=13 c=7 v=98
127049 Par ch=13 c=7 v=99
127055 Par ch=13 c=7 v=100
127061 Par ch=13 c=7 v=101
127067 Par ch=13 c=7 v=102
127073 Par ch=13 c=7 v=103
127079 Par ch=13 c=7 v=104
127085 Par ch=13 c=7 v=105
127091 Par ch=13 c=7 v=106
127097 Par ch=13 c=7 v=107
127104 Par ch=13 c=7 v=108
127488 On ch=13 n=g#6 v=0
127488 Par ch=13 c=7 v=108
127488 On ch=13 n=f#6 v=110
127494 Par ch=13 c=7 v=107
127500 Par ch=13 c=7 v=106
127506 Par ch=13 c=7 v=105
127512 Par ch=13 c=7 v=104
127518 Par ch=13 c=7 v=103
127524 Par ch=13 c=7 v=102
127530 Par ch=13 c=7 v=101
127536 Par ch=13 c=7 v=100
127542 Par ch=13 c=7 v=99
127548 Par ch=13 c=7 v=98
127555 Par ch=13 c=7 v=97
127561 Par ch=13 c=7 v=96
127567 Par ch=13 c=7 v=95
127573 Par ch=13 c=7 v=94
127579 Par ch=13 c=7 v=93
127584 On ch=13 n=f#6 v=0
127584 On ch=13 n=e6 v=110
127585 Par ch=13 c=7 v=92
127591 Par ch=13 c=7 v=91
127597 Par ch=13 c=7 v=90
127603 Par ch=13 c=7 v=89
127609 Par ch=13 c=7 v=88
127616 Par ch=13 c=7 v=87
127622 Par ch=13 c=7 v=86
127628 Par ch=13 c=7 v=85
127634 Par ch=13 c=7 v=84
127640 Par ch=13 c=7 v=83
127646 Par ch=13 c=7 v=82
127652 Par ch=13 c=7 v=81
127658 Par ch=13 c=7 v=80
127664 Par ch=13 c=7 v=79
127670 Par ch=13 c=7 v=78
127676 Par ch=13 c=7 v=77
127678 On ch=13 n=e6 v=0
127680 On ch=13 n=f#6 v=110
127683 Par ch=13 c=7 v=76
127689 Par ch=13 c=7 v=75
127695 Par ch=13 c=7 v=74
127701 Par ch=13 c=7 v=73
127707 Par ch=13 c=7 v=72
127713 Par ch=13 c=7 v=71
127719 Par ch=13 c=7 v=70
127725 Par ch=13 c=7 v=69
127731 Par ch=13 c=7 v=68
127737 Par ch=13 c=7 v=67
127744 Par ch=13 c=7 v=66
127750 Par ch=13 c=7 v=65
127756 Par ch=13 c=7 v=64
127762 Par ch=13 c=7 v=63
127768 Par ch=13 c=7 v=62
127774 Par ch=13 c=7 v=61
127780 Par ch=13 c=7 v=60
127786 Par ch=13 c=7 v=59
127792 Par ch=13 c=7 v=58
127798 Par ch=13 c=7 v=57
127804 Par ch=13 c=7 v=56
127811 Par ch=13 c=7 v=55
127817 Par ch=13 c=7 v=54
127822 On ch=13 n=f#6 v=0
127823 Par ch=13 c=7 v=53
127824 On ch=13 n=e6 v=110
127829 Par ch=13 c=7 v=52
127835 Par ch=13 c=7 v=51
127841 Par ch=13 c=7 v=50
127847 Par ch=13 c=7 v=49
127853 Par ch=13 c=7 v=48
127859 Par ch=13 c=7 v=47
127865 Par ch=13 c=7 v=46
127870 On ch=13 n=e6 v=0
127872 Par ch=13 c=7 v=45
127872 On ch=13 n=e6 v=110
128256 Par ch=13 c=7 v=45
128262 Par ch=13 c=7 v=46
128268 Par ch=13 c=7 v=47
128274 Par ch=13 c=7 v=48
128280 Par ch=13 c=7 v=49
128286 Par ch=13 c=7 v=50
128292 Par ch=13 c=7 v=51
128298 Par ch=13 c=7 v=52
128304 Par ch=13 c=7 v=53
128310 Par ch=13 c=7 v=54
128316 Par ch=13 c=7 v=55
128323 Par ch=13 c=7 v=56
128329 Par ch=13 c=7 v=57
128335 Par ch=13 c=7 v=58
128341 Par ch=13 c=7 v=59
128347 Par ch=13 c=7 v=60
128353 Par ch=13 c=7 v=61
128359 Par ch=13 c=7 v=62
128365 Par ch=13 c=7 v=63
128371 Par ch=13 c=7 v=64
128377 Par ch=13 c=7 v=65
128384 Par ch=13 c=7 v=66
128390 Par ch=13 c=7 v=67
128396 Par ch=13 c=7 v=68
128402 Par ch=13 c=7 v=69
128408 Par ch=13 c=7 v=70
128414 Par ch=13 c=7 v=71
128420 Par ch=13 c=7 v=72
128426 Par ch=13 c=7 v=73
128432 Par ch=13 c=7 v=74
128438 Par ch=13 c=7 v=75
128444 Par ch=13 c=7 v=76
128451 Par ch=13 c=7 v=77
128457 Par ch=13 c=7 v=78
128463 Par ch=13 c=7 v=79
128469 Par ch=13 c=7 v=80
128475 Par ch=13 c=7 v=81
128481 Par ch=13 c=7 v=82
128487 Par ch=13 c=7 v=83
128493 Par ch=13 c=7 v=84
128499 Par ch=13 c=7 v=85
128505 Par ch=13 c=7 v=86
128512 Par ch=13 c=7 v=87
128518 Par ch=13 c=7 v=88
128524 Par ch=13 c=7 v=89
128530 Par ch=13 c=7 v=90
128536 Par ch=13 c=7 v=91
128542 Par ch=13 c=7 v=92
128548 Par ch=13 c=7 v=93
128554 Par ch=13 c=7 v=94
128560 Par ch=13 c=7 v=95
128566 Par ch=13 c=7 v=96
128572 Par ch=13 c=7 v=97
128579 Par ch=13 c=7 v=98
128585 Par ch=13 c=7 v=99
128591 Par ch=13 c=7 v=100
128597 Par ch=13 c=7 v=101
128603 Par ch=13 c=7 v=102
128609 Par ch=13 c=7 v=103
128615 Par ch=13 c=7 v=104
128621 Par ch=13 c=7 v=105
128627 Par ch=13 c=7 v=106
128633 Par ch=13 c=7 v=107
128640 Par ch=13 c=7 v=108
129024 On ch=13 n=e6 v=0
129024 Par ch=13 c=7 v=108
129024 On ch=13 n=d#6 v=110
129030 Par ch=13 c=7 v=107
129036 Par ch=13 c=7 v=106
129042 Par ch=13 c=7 v=105
129048 Par ch=13 c=7 v=104
129054 Par ch=13 c=7 v=103
129060 Par ch=13 c=7 v=102
129066 Par ch=13 c=7 v=101
129072 Par ch=13 c=7 v=100
129078 Par ch=13 c=7 v=99
129084 Par ch=13 c=7 v=98
129091 Par ch=13 c=7 v=97
129097 Par ch=13 c=7 v=96
129103 Par ch=13 c=7 v=95
129109 Par ch=13 c=7 v=94
129115 Par ch=13 c=7 v=93
129121 Par ch=13 c=7 v=92
129127 Par ch=13 c=7 v=91
129133 Par ch=13 c=7 v=90
129139 Par ch=13 c=7 v=89
129145 Par ch=13 c=7 v=88
129152 Par ch=13 c=7 v=87
129158 Par ch=13 c=7 v=86
129164 Par ch=13 c=7 v=85
129170 Par ch=13 c=7 v=84
129176 Par ch=13 c=7 v=83
129182 Par ch=13 c=7 v=82
129188 Par ch=13 c=7 v=81
129194 Par ch=13 c=7 v=80
129200 Par ch=13 c=7 v=79
129206 Par ch=13 c=7 v=78
129212 Par ch=13 c=7 v=77
129219 Par ch=13 c=7 v=76
129225 Par ch=13 c=7 v=75
129231 Par ch=13 c=7 v=74
129237 Par ch=13 c=7 v=73
129243 Par ch=13 c=7 v=72
129249 Par ch=13 c=7 v=71
129255 Par ch=13 c=7 v=70
129261 Par ch=13 c=7 v=69
129267 Par ch=13 c=7 v=68
129273 Par ch=13 c=7 v=67
129280 Par ch=13 c=7 v=66
129286 Par ch=13 c=7 v=65
129292 Par ch=13 c=7 v=64
129298 Par ch=13 c=7 v=63
129304 Par ch=13 c=7 v=62
129310 Par ch=13 c=7 v=61
129316 Par ch=13 c=7 v=60
129322 Par ch=13 c=7 v=59
129328 Par ch=13 c=7 v=58
129334 Par ch=13 c=7 v=57
129340 Par ch=13 c=7 v=56
129347 Par ch=13 c=7 v=55
129353 Par ch=13 c=7 v=54
129359 Par ch=13 c=7 v=53
129365 Par ch=13 c=7 v=52
129371 Par ch=13 c=7 v=51
129377 Par ch=13 c=7 v=50
129383 Par ch=13 c=7 v=49
129389 Par ch=13 c=7 v=48
129395 Par ch=13 c=7 v=47
129401 Par ch=13 c=7 v=46
129408 On ch=13 n=d#6 v=0
129408 Par ch=13 c=7 v=45
129408 On ch=13 n=e6 v=110
129792 Par ch=13 c=7 v=45
129798 Par ch=13 c=7 v=46
129804 Par ch=13 c=7 v=47
129810 Par ch=13 c=7 v=48
129816 Par ch=13 c=7 v=49
129822 Par ch=13 c=7 v=50
129828 Par ch=13 c=7 v=51
129834 Par ch=13 c=7 v=52
129840 Par ch=13 c=7 v=53
129846 Par ch=13 c=7 v=54
129852 Par ch=13 c=7 v=55
129859 Par ch=13 c=7 v=56
129865 Par ch=13 c=7 v=57
129871 Par ch=13 c=7 v=58
129877 Par ch=13 c=7 v=59
129883 Par ch=13 c=7 v=60
129889 Par ch=13 c=7 v=61
129895 Par ch=13 c=7 v=62
129901 Par ch=13 c=7 v=63
129907 Par ch=13 c=7 v=64
129913 Par ch=13 c=7 v=65
129920 Par ch=13 c=7 v=66
129926 Par ch=13 c=7 v=67
129932 Par ch=13 c=7 v=68
129938 Par ch=13 c=7 v=69
129944 Par ch=13 c=7 v=70
129950 Par ch=13 c=7 v=71
129956 Par ch=13 c=7 v=72
129962 Par ch=13 c=7 v=73
129968 Par ch=13 c=7 v=74
129974 Par ch=13 c=7 v=75
129980 Par ch=13 c=7 v=76
129987 Par ch=13 c=7 v=77
129993 Par ch=13 c=7 v=78
129999 Par ch=13 c=7 v=79
130005 Par ch=13 c=7 v=80
130011 Par ch=13 c=7 v=81
130017 Par ch=13 c=7 v=82
130023 Par ch=13 c=7 v=83
130029 Par ch=13 c=7 v=84
130035 Par ch=13 c=7 v=85
130041 Par ch=13 c=7 v=86
130048 Par ch=13 c=7 v=87
130054 Par ch=13 c=7 v=88
130060 Par ch=13 c=7 v=89
130066 Par ch=13 c=7 v=90
130072 Par ch=13 c=7 v=91
130078 Par ch=13 c=7 v=92
130084 Par ch=13 c=7 v=93
130090 Par ch=13 c=7 v=94
130096 Par ch=13 c=7 v=95
130102 Par ch=13 c=7 v=96
130108 Par ch=13 c=7 v=97
130115 Par ch=13 c=7 v=98
130121 Par ch=13 c=7 v=99
130127 Par ch=13 c=7 v=100
130133 Par ch=13 c=7 v=101
130139 Par ch=13 c=7 v=102
130145 Par ch=13 c=7 v=103
130151 Par ch=13 c=7 v=104
130157 Par ch=13 c=7 v=105
130163 Par ch=13 c=7 v=106
130169 Par ch=13 c=7 v=107
130176 Par ch=13 c=7 v=108
130560 On ch=13 n=e6 v=0
130560 Par ch=13 c=7 v=108
130560 On ch=13 n=d#6 v=110
130566 Par ch=13 c=7 v=107
130572 Par ch=13 c=7 v=106
130578 Par ch=13 c=7 v=105
130584 Par ch=13 c=7 v=104
130590 Par ch=13 c=7 v=103
130596 Par ch=13 c=7 v=102
130602 Par ch=13 c=7 v=101
130608 Par ch=13 c=7 v=100
130614 Par ch=13 c=7 v=99
130620 Par ch=13 c=7 v=98
130627 Par ch=13 c=7 v=97
130633 Par ch=13 c=7 v=96
130639 Par ch=13 c=7 v=95
130645 Par ch=13 c=7 v=94
130651 Par ch=13 c=7 v=93
130657 Par ch=13 c=7 v=92
130663 Par ch=13 c=7 v=91
130669 Par ch=13 c=7 v=90
130675 Par ch=13 c=7 v=89
130681 Par ch=13 c=7 v=88
130688 Par ch=13 c=7 v=87
130694 Par ch=13 c=7 v=86
130700 Par ch=13 c=7 v=85
130706 Par ch=13 c=7 v=84
130712 Par ch=13 c=7 v=83
130718 Par ch=13 c=7 v=82
130724 Par ch=13 c=7 v=81
130730 Par ch=13 c=7 v=80
130736 Par ch=13 c=7 v=79
130742 Par ch=13 c=7 v=78
130748 Par ch=13 c=7 v=77
130755 Par ch=13 c=7 v=76
130761 Par ch=13 c=7 v=75
130767 Par ch=13 c=7 v=74
130773 Par ch=13 c=7 v=73
130779 Par ch=13 c=7 v=72
130785 Par ch=13 c=7 v=71
130791 Par ch=13 c=7 v=70
130797 Par ch=13 c=7 v=69
130803 Par ch=13 c=7 v=68
130809 Par ch=13 c=7 v=67
130816 Par ch=13 c=7 v=66
130822 Par ch=13 c=7 v=65
130828 Par ch=13 c=7 v=64
130834 Par ch=13 c=7 v=63
130840 Par ch=13 c=7 v=62
130846 Par ch=13 c=7 v=61
130852 Par ch=13 c=7 v=60
130858 Par ch=13 c=7 v=59
130864 Par ch=13 c=7 v=58
130870 Par ch=13 c=7 v=57
130876 Par ch=13 c=7 v=56
130883 Par ch=13 c=7 v=55
130889 Par ch=13 c=7 v=54
130895 Par ch=13 c=7 v=53
130901 Par ch=13 c=7 v=52
130907 Par ch=13 c=7 v=51
130913 Par ch=13 c=7 v=50
130919 Par ch=13 c=7 v=49
130925 Par ch=13 c=7 v=48
130931 Par ch=13 c=7 v=47
130937 Par ch=13 c=7 v=46
130944 On ch=13 n=d#6 v=0
130944 Par ch=13 c=7 v=45
130944 On ch=13 n=e6 v=110
131328 On ch=13 n=e6 v=0
131328 On ch=13 n=e5 v=110
131712 Par ch=13 c=7 v=45
131718 Par ch=13 c=7 v=46
131724 Par ch=13 c=7 v=47
131730 Par ch=13 c=7 v=48
131736 Par ch=13 c=7 v=49
131742 Par ch=13 c=7 v=50
131748 Par ch=13 c=7 v=51
131754 Par ch=13 c=7 v=52
131760 Par ch=13 c=7 v=53
131766 Par ch=13 c=7 v=54
131772 Par ch=13 c=7 v=55
131779 Par ch=13 c=7 v=56
131785 Par ch=13 c=7 v=57
131791 Par ch=13 c=7 v=58
131797 Par ch=13 c=7 v=59
131803 Par ch=13 c=7 v=60
131809 Par ch=13 c=7 v=61
131815 Par ch=13 c=7 v=62
131821 Par ch=13 c=7 v=63
131827 Par ch=13 c=7 v=64
131833 Par ch=13 c=7 v=65
131840 Par ch=13 c=7 v=66
131846 Par ch=13 c=7 v=67
131852 Par ch=13 c=7 v=68
131858 Par ch=13 c=7 v=69
131864 Par ch=13 c=7 v=70
131870 Par ch=13 c=7 v=71
131876 Par ch=13 c=7 v=72
131882 Par ch=13 c=7 v=73
131888 Par ch=13 c=7 v=74
131894 Par ch=13 c=7 v=75
131900 Par ch=13 c=7 v=76
131907 Par ch=13 c=7 v=77
131913 Par ch=13 c=7 v=78
131919 Par ch=13 c=7 v=79
131925 Par ch=13 c=7 v=80
131931 Par ch=13 c=7 v=81
131937 Par ch=13 c=7 v=82
131943 Par ch=13 c=7 v=83
131949 Par ch=13 c=7 v=84
131955 Par ch=13 c=7 v=85
131961 Par ch=13 c=7 v=86
131968 Par ch=13 c=7 v=87
131974 Par ch=13 c=7 v=88
131980 Par ch=13 c=7 v=89
131986 Par ch=13 c=7 v=90
131992 Par ch=13 c=7 v=91
131998 Par ch=13 c=7 v=92
132004 Par ch=13 c=7 v=93
132010 Par ch=13 c=7 v=94
132016 Par ch=13 c=7 v=95
132022 Par ch=13 c=7 v=96
132028 Par ch=13 c=7 v=97
132035 Par ch=13 c=7 v=98
132041 Par ch=13 c=7 v=99
132047 Par ch=13 c=7 v=100
132053 Par ch=13 c=7 v=101
132059 Par ch=13 c=7 v=102
132065 Par ch=13 c=7 v=103
132071 Par ch=13 c=7 v=104
132077 Par ch=13 c=7 v=105
132083 Par ch=13 c=7 v=106
132089 Par ch=13 c=7 v=107
132096 On ch=13 n=e5 v=0
132096 Par ch=13 c=7 v=108
132096 On ch=13 n=d#5 v=110
132102 Par ch=13 c=7 v=107
132108 Par ch=13 c=7 v=106
132114 Par ch=13 c=7 v=105
132120 Par ch=13 c=7 v=104
132126 Par ch=13 c=7 v=103
132132 Par ch=13 c=7 v=102
132138 Par ch=13 c=7 v=101
132144 Par ch=13 c=7 v=100
132150 Par ch=13 c=7 v=99
132156 Par ch=13 c=7 v=98
132163 Par ch=13 c=7 v=97
132169 Par ch=13 c=7 v=96
132175 Par ch=13 c=7 v=95
132181 Par ch=13 c=7 v=94
132187 Par ch=13 c=7 v=93
132193 Par ch=13 c=7 v=92
132199 Par ch=13 c=7 v=91
132205 Par ch=13 c=7 v=90
132211 Par ch=13 c=7 v=89
132217 Par ch=13 c=7 v=88
132224 Par ch=13 c=7 v=87
132230 Par ch=13 c=7 v=86
132236 Par ch=13 c=7 v=85
132242 Par ch=13 c=7 v=84
132248 Par ch=13 c=7 v=83
132254 Par ch=13 c=7 v=82
132260 Par ch=13 c=7 v=81
132266 Par ch=13 c=7 v=80
132272 Par ch=13 c=7 v=79
132278 Par ch=13 c=7 v=78
132284 Par ch=13 c=7 v=77
132291 Par ch=13 c=7 v=76
132297 Par ch=13 c=7 v=75
132303 Par ch=13 c=7 v=74
132309 Par ch=13 c=7 v=73
132315 Par ch=13 c=7 v=72
132321 Par ch=13 c=7 v=71
132327 Par ch=13 c=7 v=70
132333 Par ch=13 c=7 v=69
132339 Par ch=13 c=7 v=68
132345 Par ch=13 c=7 v=67
132352 Par ch=13 c=7 v=66
132358 Par ch=13 c=7 v=65
132364 Par ch=13 c=7 v=64
132370 Par ch=13 c=7 v=63
132376 Par ch=13 c=7 v=62
132382 Par ch=13 c=7 v=61
132388 Par ch=13 c=7 v=60
132394 Par ch=13 c=7 v=59
132400 Par ch=13 c=7 v=58
132406 Par ch=13 c=7 v=57
132412 Par ch=13 c=7 v=56
132419 Par ch=13 c=7 v=55
132425 Par ch=13 c=7 v=54
132431 Par ch=13 c=7 v=53
132437 Par ch=13 c=7 v=52
132443 Par ch=13 c=7 v=51
132449 Par ch=13 c=7 v=50
132455 Par ch=13 c=7 v=49
132461 Par ch=13 c=7 v=48
132467 Par ch=13 c=7 v=47
132473 Par ch=13 c=7 v=46
132480 On ch=13 n=d#5 v=0
132480 Par ch=13 c=7 v=45
132480 On ch=13 n=e5 v=110
132958 On ch=13 n=e5 v=0
137088 Par ch=13 c=121 v=127
137088 Meta TrkEnd
TrkEnd
MTrk
0 Meta TrkName "Viole"
0 Meta 0x21 00
0 Par ch=14 c=121 v=127
0 PrCh ch=14 p=48
0 Par ch=14 c=7 v=30
0 Par ch=14 c=10 v=64
0 Par ch=14 c=91 v=127
0 Par ch=14 c=7 v=30
0 On ch=14 n=d#4 v=110
384 On ch=14 n=d#4 v=0
384 On ch=14 n=f4 v=110
768 On ch=14 n=f4 v=0
768 Par ch=14 c=7 v=30
768 On ch=14 n=d#4 v=110
786 Par ch=14 c=7 v=31
805 Par ch=14 c=7 v=32
823 Par ch=14 c=7 v=33
842 Par ch=14 c=7 v=34
860 Par ch=14 c=7 v=35
879 Par ch=14 c=7 v=36
898 Par ch=14 c=7 v=37
916 Par ch=14 c=7 v=38
935 Par ch=14 c=7 v=39
953 Par ch=14 c=7 v=40
972 Par ch=14 c=7 v=41
990 Par ch=14 c=7 v=42
1009 Par ch=14 c=7 v=43
1028 Par ch=14 c=7 v=44
1046 Par ch=14 c=7 v=45
1065 Par ch=14 c=7 v=46
1083 Par ch=14 c=7 v=47
1102 Par ch=14 c=7 v=48
1121 Par ch=14 c=7 v=49
1139 Par ch=14 c=7 v=50
1152 On ch=14 n=d#4 v=0
1152 On ch=14 n=c4 v=110
1152 On ch=14 n=c5 v=110
1158 Par ch=14 c=7 v=51
1176 Par ch=14 c=7 v=52
1195 Par ch=14 c=7 v=53
1213 Par ch=14 c=7 v=54
1232 Par ch=14 c=7 v=55
1251 Par ch=14 c=7 v=56
1269 Par ch=14 c=7 v=57
1288 Par ch=14 c=7 v=58
1306 Par ch=14 c=7 v=59
1325 Par ch=14 c=7 v=60
1343 Par ch=14 c=7 v=61
1362 Par ch=14 c=7 v=62
1381 Par ch=14 c=7 v=63
1399 Par ch=14 c=7 v=64
1418 Par ch=14 c=7 v=65
1436 Par ch=14 c=7 v=66
1455 Par ch=14 c=7 v=67
1474 Par ch=14 c=7 v=68
1492 Par ch=14 c=7 v=69
1511 Par ch=14 c=7 v=70
1529 Par ch=14 c=7 v=71
1536 On ch=14 n=c4 v=0
1536 On ch=14 n=c5 v=0
1536 On ch=14 n=c4 v=110
1536 On ch=14 n=c5 v=110
1548 Par ch=14 c=7 v=72
1566 Par ch=14 c=7 v=73
1585 Par ch=14 c=7 v=74
1604 Par ch=14 c=7 v=75
1622 Par ch=14 c=7 v=76
1641 Par ch=14 c=7 v=77
1659 Par ch=14 c=7 v=78
1678 Par ch=14 c=7 v=79
1697 Par ch=14 c=7 v=80
1715 Par ch=14 c=7 v=81
1734 Par ch=14 c=7 v=82
1752 Par ch=14 c=7 v=83
1771 Par ch=14 c=7 v=84
1789 Par ch=14 c=7 v=85
1808 Par ch=14 c=7 v=86
1827 Par ch=14 c=7 v=87
1845 Par ch=14 c=7 v=88
1864 Par ch=14 c=7 v=89
1882 Par ch=14 c=7 v=90
1901 Par ch=14 c=7 v=91
1920 On ch=14 n=c4 v=0
1920 On ch=14 n=c5 v=0
1920 Par ch=14 c=7 v=92
1920 On ch=14 n=d#4 v=110
1928 Par ch=14 c=7 v=91
1936 Par ch=14 c=7 v=90
1944 Par ch=14 c=7 v=89
1952 Par ch=14 c=7 v=88
1960 Par ch=14 c=7 v=87
1969 Par ch=14 c=7 v=86
1977 Par ch=14 c=7 v=85
1985 Par ch=14 c=7 v=84
1993 Par ch=14 c=7 v=83
2001 Par ch=14 c=7 v=82
2009 Par ch=14 c=7 v=81
2018 Par ch=14 c=7 v=80
2026 Par ch=14 c=7 v=79
2034 Par ch=14 c=7 v=78
2042 Par ch=14 c=7 v=77
2050 Par ch=14 c=7 v=76
2058 Par ch=14 c=7 v=75
2067 Par ch=14 c=7 v=74
2075 Par ch=14 c=7 v=73
2083 Par ch=14 c=7 v=72
2091 Par ch=14 c=7 v=71
2099 Par ch=14 c=7 v=70
2107 Par ch=14 c=7 v=69
2116 Par ch=14 c=7 v=68
2124 Par ch=14 c=7 v=67
2132 Par ch=14 c=7 v=66
2140 Par ch=14 c=7 v=65
2148 Par ch=14 c=7 v=64
2156 Par ch=14 c=7 v=63
2165 Par ch=14 c=7 v=62
2173 Par ch=14 c=7 v=61
2181 Par ch=14 c=7 v=60
2189 Par ch=14 c=7 v=59
2197 Par ch=14 c=7 v=58
2205 Par ch=14 c=7 v=57
2214 Par ch=14 c=7 v=56
2222 Par ch=14 c=7 v=55
2230 Par ch=14 c=7 v=54
2238 Par ch=14 c=7 v=53
2246 Par ch=14 c=7 v=52
2254 Par ch=14 c=7 v=51
2263 Par ch=14 c=7 v=50
2271 Par ch=14 c=7 v=49
2279 Par ch=14 c=7 v=48
2287 Par ch=14 c=7 v=47
2295 Par ch=14 c=7 v=46
2304 On ch=14 n=d#4 v=0
2304 Par ch=14 c=7 v=45
2304 On ch=14 n=g#4 v=110
2688 Par ch=14 c=7 v=45
2713 Par ch=14 c=7 v=44
2739 Par ch=14 c=7 v=43
2764 Par ch=14 c=7 v=42
2790 Par ch=14 c=7 v=41
2816 Par ch=14 c=7 v=40
2841 Par ch=14 c=7 v=39
2867 Par ch=14 c=7 v=38
2892 Par ch=14 c=7 v=37
2918 Par ch=14 c=7 v=36
2944 Par ch=14 c=7 v=35
2969 Par ch=14 c=7 v=34
2995 Par ch=14 c=7 v=33
3020 Par ch=14 c=7 v=32
3046 Par ch=14 c=7 v=31
3072 On ch=14 n=g#4 v=0
3072 Par ch=14 c=7 v=30
3072 On ch=14 n=g#4 v=110
3072 On ch=14 n=b4 v=110
3110 Par ch=14 c=7 v=29
3148 Par ch=14 c=7 v=28
3187 Par ch=14 c=7 v=27
3225 Par ch=14 c=7 v=26
3264 Par ch=14 c=7 v=25
3302 Par ch=14 c=7 v=24
3340 Par ch=14 c=7 v=23
3379 Par ch=14 c=7 v=22
3417 Par ch=14 c=7 v=21
3456 Par ch=14 c=7 v=20
3494 Par ch=14 c=7 v=19
3532 Par ch=14 c=7 v=18
3571 Par ch=14 c=7 v=17
3609 Par ch=14 c=7 v=16
3616 On ch=14 n=g#4 v=0
3616 On ch=14 n=b4 v=0
3648 Par ch=14 c=7 v=15
18432 PrCh ch=14 p=50
19200 Par ch=14 c=7 v=30
19200 On ch=14 n=e5 v=110
19200 On ch=14 n=e6 v=110
19200 On ch=14 n=g#5 v=110
19776 On ch=14 n=e5 v=0
19776 On ch=14 n=e6 v=0
19776 On ch=14 n=d5 v=110
19776 On ch=14 n=d6 v=110
19968 On ch=14 n=g#5 v=0
19968 On ch=14 n=d5 v=0
19968 On ch=14 n=d6 v=0
19968 On ch=14 n=c#5 v=110
19968 On ch=14 n=c#6 v=110
19968 On ch=14 n=a5 v=110
20544 On ch=14 n=c#5 v=0
20544 On ch=14 n=c#6 v=0
20544 On ch=14 n=c5 v=110
20544 On ch=14 n=c6 v=110
20736 On ch=14 n=a5 v=0
20736 On ch=14 n=c5 v=0
20736 On ch=14 n=c6 v=0
20736 On ch=14 n=b4 v=110
20736 On ch=14 n=g#5 v=110
20736 On ch=14 n=b5 v=110
21504 On ch=14 n=b4 v=0
21504 On ch=14 n=g#5 v=0
21504 On ch=14 n=b5 v=0
21504 On ch=14 n=a#4 v=110
21504 On ch=14 n=a#5 v=110
21504 On ch=14 n=f#5 v=110
21888 On ch=14 n=a#4 v=0
21888 On ch=14 n=a#5 v=0
21888 On ch=14 n=a4 v=110
21888 On ch=14 n=a5 v=110
22272 On ch=14 n=f#5 v=0
22272 On ch=14 n=a4 v=0
22272 On ch=14 n=a5 v=0
22272 On ch=14 n=g#4 v=110
22272 On ch=14 n=g#5 v=110
22272 On ch=14 n=e5 v=110
22656 On ch=14 n=g#4 v=0
22656 On ch=14 n=g#5 v=0
22656 Par ch=14 c=7 v=30
22656 On ch=14 n=b4 v=110
22656 On ch=14 n=b5 v=110
22681 Par ch=14 c=7 v=31
22707 Par ch=14 c=7 v=32
22732 Par ch=14 c=7 v=33
22758 Par ch=14 c=7 v=34
22784 Par ch=14 c=7 v=35
22809 Par ch=14 c=7 v=36
22835 Par ch=14 c=7 v=37
22860 Par ch=14 c=7 v=38
22886 Par ch=14 c=7 v=39
22912 Par ch=14 c=7 v=40
22937 Par ch=14 c=7 v=41
22963 Par ch=14 c=7 v=42
22988 Par ch=14 c=7 v=43
22992 On ch=14 n=e5 v=0
23014 Par ch=14 c=7 v=44
23040 On ch=14 n=b4 v=0
23040 On ch=14 n=b5 v=0
23040 Par ch=14 c=7 v=45
23040 On ch=14 n=a4 v=110
23040 On ch=14 n=a5 v=110
23040 On ch=14 n=c#5 v=110
23065 Par ch=14 c=7 v=44
23091 Par ch=14 c=7 v=43
23116 Par ch=14 c=7 v=42
23142 Par ch=14 c=7 v=41
23168 Par ch=14 c=7 v=40
23193 Par ch=14 c=7 v=39
23219 Par ch=14 c=7 v=38
23244 Par ch=14 c=7 v=37
23270 Par ch=14 c=7 v=36
23296 Par ch=14 c=7 v=35
23321 Par ch=14 c=7 v=34
23328 On ch=14 n=c#5 v=0
23328 On ch=14 n=b4 v=110
23347 Par ch=14 c=7 v=33
23372 Par ch=14 c=7 v=32
23398 Par ch=14 c=7 v=31
23422 On ch=14 n=b4 v=0
23424 On ch=14 n=a4 v=0
23424 On ch=14 n=a5 v=0
23424 Par ch=14 c=7 v=30
23424 Par ch=14 c=7 v=30
23424 On ch=14 n=g#4 v=110
23424 On ch=14 n=b4 v=110
23424 On ch=14 n=g#5 v=110
23449 Par ch=14 c=7 v=31
23475 Par ch=14 c=7 v=32
23500 Par ch=14 c=7 v=33
23526 Par ch=14 c=7 v=34
23552 Par ch=14 c=7 v=35
23577 Par ch=14 c=7 v=36
23603 Par ch=14 c=7 v=37
23628 Par ch=14 c=7 v=38
23654 Par ch=14 c=7 v=39
23680 Par ch=14 c=7 v=40
23705 Par ch=14 c=7 v=41
23731 Par ch=14 c=7 v=42
23756 Par ch=14 c=7 v=43
23782 Par ch=14 c=7 v=44
23808 On ch=14 n=g#4 v=0
23808 On ch=14 n=b4 v=0
23808 On ch=14 n=g#5 v=0
23808 Par ch=14 c=7 v=45
23808 On ch=14 n=g#4 v=110
23808 On ch=14 n=c5 v=110
23808 On ch=14 n=g#5 v=110
23833 Par ch=14 c=7 v=44
23859 Par ch=14 c=7 v=43
23884 Par ch=14 c=7 v=42
23910 Par ch=14 c=7 v=41
23936 Par ch=14 c=7 v=40
23961 Par ch=14 c=7 v=39
23987 Par ch=14 c=7 v=38
24012 Par ch=14 c=7 v=37
24038 Par ch=14 c=7 v=36
24064 Par ch=14 c=7 v=35
24089 Par ch=14 c=7 v=34
24115 Par ch=14 c=7 v=33
24140 Par ch=14 c=7 v=32
24166 Par ch=14 c=7 v=31
24192 On ch=14 n=g#4 v=0
24192 On ch=14 n=c5 v=0
24192 On ch=14 n=g#5 v=0
24192 Par ch=14 c=7 v=30
24192 On ch=14 n=g#4 v=110
24192 On ch=14 n=b4 v=110
24192 On ch=14 n=g#5 v=110
24670 On ch=14 n=g#4 v=0
24670 On ch=14 n=b4 v=0
24670 On ch=14 n=g#5 v=0
25344 Par ch=14 c=7 v=30
25344 On ch=14 n=a4 v=110
25344 On ch=14 n=e5 v=110
25344 On ch=14 n=a5 v=110
25344 On ch=14 n=e5 v=110
25369 Par ch=14 c=7 v=31
25395 Par ch=14 c=7 v=32
25420 Par ch=14 c=7 v=33
25446 Par ch=14 c=7 v=34
25472 Par ch=14 c=7 v=35
25497 Par ch=14 c=7 v=36
25523 Par ch=14 c=7 v=37
25548 Par ch=14 c=7 v=38
25574 Par ch=14 c=7 v=39
25600 Par ch=14 c=7 v=40
25625 Par ch=14 c=7 v=41
25651 Par ch=14 c=7 v=42
25676 Par ch=14 c=7 v=43
25680 On ch=14 n=e5 v=0
25702 Par ch=14 c=7 v=44
25728 On ch=14 n=a4 v=0
25728 On ch=14 n=a5 v=0
25728 On ch=14 n=e5 v=0
25728 Par ch=14 c=7 v=45
25728 On ch=14 n=g#4 v=110
25728 On ch=14 n=g#5 v=110
25728 On ch=14 n=f5 v=110
25753 Par ch=14 c=7 v=44
25779 Par ch=14 c=7 v=43
25804 Par ch=14 c=7 v=42
25830 Par ch=14 c=7 v=41
25856 Par ch=14 c=7 v=40
25881 Par ch=14 c=7 v=39
25907 Par ch=14 c=7 v=38
25932 Par ch=14 c=7 v=37
25958 Par ch=14 c=7 v=36
25984 Par ch=14 c=7 v=35
26009 Par ch=14 c=7 v=34
26016 On ch=14 n=f5 v=0
26016 On ch=14 n=e5 v=110
26035 Par ch=14 c=7 v=33
26060 Par ch=14 c=7 v=32
26086 Par ch=14 c=7 v=31
26110 On ch=14 n=e5 v=0
26112 On ch=14 n=g#4 v=0
26112 On ch=14 n=g#5 v=0
26112 Par ch=14 c=7 v=30
26112 Par ch=14 c=7 v=30
26112 On ch=14 n=a4 v=110
26112 On ch=14 n=e5 v=110
26112 On ch=14 n=a5 v=110
26137 Par ch=14 c=7 v=31
26163 Par ch=14 c=7 v=32
26188 Par ch=14 c=7 v=33
26214 Par ch=14 c=7 v=34
26240 Par ch=14 c=7 v=35
26265 Par ch=14 c=7 v=36
26291 Par ch=14 c=7 v=37
26316 Par ch=14 c=7 v=38
26342 Par ch=14 c=7 v=39
26368 Par ch=14 c=7 v=40
26393 Par ch=14 c=7 v=41
26419 Par ch=14 c=7 v=42
26444 Par ch=14 c=7 v=43
26470 Par ch=14 c=7 v=44
26496 On ch=14 n=a4 v=0
26496 On ch=14 n=e5 v=0
26496 On ch=14 n=a5 v=0
26496 Par ch=14 c=7 v=45
26496 On ch=14 n=g4 v=110
26496 On ch=14 n=c#5 v=110
26496 On ch=14 n=g5 v=110
26521 Par ch=14 c=7 v=44
26547 Par ch=14 c=7 v=43
26572 Par ch=14 c=7 v=42
26598 Par ch=14 c=7 v=41
26624 Par ch=14 c=7 v=40
26649 Par ch=14 c=7 v=39
26675 Par ch=14 c=7 v=38
26700 Par ch=14 c=7 v=37
26726 Par ch=14 c=7 v=36
26752 Par ch=14 c=7 v=35
26777 Par ch=14 c=7 v=34
26803 Par ch=14 c=7 v=33
26828 Par ch=14 c=7 v=32
26854 Par ch=14 c=7 v=31
26880 On ch=14 n=g4 v=0
26880 On ch=14 n=c#5 v=0
26880 On ch=14 n=g5 v=0
26880 Par ch=14 c=7 v=30
26880 On ch=14 n=g#4 v=110
26880 On ch=14 n=c#5 v=110
26880 On ch=14 n=g#5 v=110
27358 On ch=14 n=g#4 v=0
27358 On ch=14 n=c#5 v=0
27358 On ch=14 n=g#5 v=0
27648 On ch=14 n=b4 v=110
27648 On ch=14 n=e5 v=110
27648 On ch=14 n=b5 v=110
28032 On ch=14 n=b4 v=0
28032 On ch=14 n=e5 v=0
28032 On ch=14 n=b5 v=0
28032 Par ch=14 c=7 v=30
28032 On ch=14 n=e5 v=110
28032 On ch=14 n=e6 v=110
28032 On ch=14 n=g#5 v=110
28057 Par ch=14 c=7 v=31
28083 Par ch=14 c=7 v=32
28108 Par ch=14 c=7 v=33
28134 Par ch=14 c=7 v=34
28160 Par ch=14 c=7 v=35
28185 Par ch=14 c=7 v=36
28211 Par ch=14 c=7 v=37
28224 On ch=14 n=e5 v=0
28224 On ch=14 n=e6 v=0
28224 On ch=14 n=d#5 v=110
28224 On ch=14 n=d#6 v=110
28236 Par ch=14 c=7 v=38
28262 Par ch=14 c=7 v=39
28288 Par ch=14 c=7 v=40
28313 Par ch=14 c=7 v=41
28339 Par ch=14 c=7 v=42
28364 Par ch=14 c=7 v=43
28390 Par ch=14 c=7 v=44
28416 On ch=14 n=g#5 v=0
28416 On ch=14 n=d#5 v=0
28416 On ch=14 n=d#6 v=0
28416 Par ch=14 c=7 v=45
28416 On ch=14 n=c#5 v=110
28416 On ch=14 n=c#6 v=110
28416 On ch=14 n=a5 v=110
28441 Par ch=14 c=7 v=44
28467 Par ch=14 c=7 v=43
28492 Par ch=14 c=7 v=42
28518 Par ch=14 c=7 v=41
28544 Par ch=14 c=7 v=40
28569 Par ch=14 c=7 v=39
28595 Par ch=14 c=7 v=38
28620 Par ch=14 c=7 v=37
28646 Par ch=14 c=7 v=36
28672 Par ch=14 c=7 v=35
28697 Par ch=14 c=7 v=34
28704 On ch=14 n=c#5 v=0
28704 On ch=14 n=c#6 v=0
28704 On ch=14 n=b4 v=110
28704 On ch=14 n=b5 v=110
28723 Par ch=14 c=7 v=33
28748 Par ch=14 c=7 v=32
28774 Par ch=14 c=7 v=31
28798 On ch=14 n=b4 v=0
28798 On ch=14 n=b5 v=0
28800 On ch=14 n=a5 v=0
28800 Par ch=14 c=7 v=30
28800 Par ch=14 c=7 v=30
28800 On ch=14 n=b4 v=110
28800 On ch=14 n=g#5 v=110
28800 On ch=14 n=b5 v=110
28812 Par ch=14 c=7 v=31
28825 Par ch=14 c=7 v=32
28838 Par ch=14 c=7 v=33
28851 Par ch=14 c=7 v=34
28864 Par ch=14 c=7 v=35
28876 Par ch=14 c=7 v=36
28889 Par ch=14 c=7 v=37
28902 Par ch=14 c=7 v=38
28915 Par ch=14 c=7 v=39
28928 Par ch=14 c=7 v=40
28940 Par ch=14 c=7 v=41
28953 Par ch=14 c=7 v=42
28966 Par ch=14 c=7 v=43
28979 Par ch=14 c=7 v=44
28992 Par ch=14 c=7 v=45
29004 Par ch=14 c=7 v=46
29017 Par ch=14 c=7 v=47
29030 Par ch=14 c=7 v=48
29043 Par ch=14 c=7 v=49
29056 Par ch=14 c=7 v=50
29068 Par ch=14 c=7 v=51
29081 Par ch=14 c=7 v=52
29094 Par ch=14 c=7 v=53
29107 Par ch=14 c=7 v=54
29120 Par ch=14 c=7 v=55
29132 Par ch=14 c=7 v=56
29145 Par ch=14 c=7 v=57
29158 Par ch=14 c=7 v=58
29171 Par ch=14 c=7 v=59
29184 On ch=14 n=b4 v=0
29184 On ch=14 n=g#5 v=0
29184 On ch=14 n=b5 v=0
29184 Par ch=14 c=7 v=60
29184 On ch=14 n=g#5 v=110
29184 On ch=14 n=g#6 v=110
29184 On ch=14 n=b5 v=110
29376 On ch=14 n=g#5 v=0
29376 On ch=14 n=g#6 v=0
29376 On ch=14 n=f#5 v=110
29376 On ch=14 n=f#6 v=110
29568 On ch=14 n=b5 v=0
29568 On ch=14 n=f#5 v=0
29568 On ch=14 n=f#6 v=0
29568 Par ch=14 c=7 v=60
29568 On ch=14 n=f#5 v=110
29568 On ch=14 n=f#6 v=110
29568 On ch=14 n=b5 v=110
29580 Par ch=14 c=7 v=59
29593 Par ch=14 c=7 v=58
29606 Par ch=14 c=7 v=57
29619 Par ch=14 c=7 v=56
29632 Par ch=14 c=7 v=55
29644 Par ch=14 c=7 v=54
29657 Par ch=14 c=7 v=53
29670 Par ch=14 c=7 v=52
29683 Par ch=14 c=7 v=51
29696 Par ch=14 c=7 v=50
29708 Par ch=14 c=7 v=49
29721 Par ch=14 c=7 v=48
29734 Par ch=14 c=7 v=47
29747 Par ch=14 c=7 v=46
29760 Par ch=14 c=7 v=45
29772 Par ch=14 c=7 v=44
29785 Par ch=14 c=7 v=43
29798 Par ch=14 c=7 v=42
29811 Par ch=14 c=7 v=41
29824 Par ch=14 c=7 v=40
29836 Par ch=14 c=7 v=39
29849 Par ch=14 c=7 v=38
29856 On ch=14 n=f#5 v=0
29856 On ch=14 n=f#6 v=0
29856 On ch=14 n=f6 v=110
29856 On ch=14 n=f5 v=110
29862 Par ch=14 c=7 v=37
29875 Par ch=14 c=7 v=36
29888 Par ch=14 c=7 v=35
29900 Par ch=14 c=7 v=34
29913 Par ch=14 c=7 v=33
29926 Par ch=14 c=7 v=32
29939 Par ch=14 c=7 v=31
29950 On ch=14 n=f6 v=0
29950 On ch=14 n=f5 v=0
29952 On ch=14 n=b5 v=0
29952 Par ch=14 c=7 v=30
29952 On ch=14 n=f#5 v=110
29952 On ch=14 n=f#6 v=110
29952 On ch=14 n=a5 v=110
30336 On ch=14 n=f#5 v=0
30336 On ch=14 n=f#6 v=0
30336 On ch=14 n=a5 v=0
30336 Par ch=14 c=7 v=30
30336 On ch=14 n=e5 v=110
30336 On ch=14 n=e6 v=110
30336 On ch=14 n=c6 v=110
30361 Par ch=14 c=7 v=31
30387 Par ch=14 c=7 v=32
30412 Par ch=14 c=7 v=33
30438 Par ch=14 c=7 v=34
30464 Par ch=14 c=7 v=35
30489 Par ch=14 c=7 v=36
30515 Par ch=14 c=7 v=37
30540 Par ch=14 c=7 v=38
30566 Par ch=14 c=7 v=39
30592 Par ch=14 c=7 v=40
30617 Par ch=14 c=7 v=41
30624 On ch=14 n=e5 v=0
30624 On ch=14 n=e6 v=0
30624 On ch=14 n=d#5 v=110
30624 On ch=14 n=d#6 v=110
30643 Par ch=14 c=7 v=42
30668 Par ch=14 c=7 v=43
30694 Par ch=14 c=7 v=44
30718 On ch=14 n=d#5 v=0
30718 On ch=14 n=d#6 v=0
30720 On ch=14 n=c6 v=0
30720 Par ch=14 c=7 v=45
30720 On ch=14 n=e5 v=110
30720 On ch=14 n=b5 v=110
30720 On ch=14 n=e6 v=110
30745 Par ch=14 c=7 v=44
30771 Par ch=14 c=7 v=43
30796 Par ch=14 c=7 v=42
30822 Par ch=14 c=7 v=41
30848 Par ch=14 c=7 v=40
30873 Par ch=14 c=7 v=39
30899 Par ch=14 c=7 v=38
30912 On ch=14 n=e5 v=0
30912 On ch=14 n=b5 v=0
30912 On ch=14 n=e6 v=0
30912 On ch=14 n=b4 v=110
30912 On ch=14 n=e5 v=110
30912 On ch=14 n=b5 v=110
30924 Par ch=14 c=7 v=37
30950 Par ch=14 c=7 v=36
30976 Par ch=14 c=7 v=35
31001 Par ch=14 c=7 v=34
31027 Par ch=14 c=7 v=33
31052 Par ch=14 c=7 v=32
31078 Par ch=14 c=7 v=31
31104 On ch=14 n=b4 v=0
31104 On ch=14 n=e5 v=0
31104 On ch=14 n=b5 v=0
31104 Par ch=14 c=7 v=30
31104 Par ch=14 c=7 v=30
31104 On ch=14 n=a#4 v=110
31104 On ch=14 n=d5 v=110
31104 On ch=14 n=a#5 v=110
31129 Par ch=14 c=7 v=31
31155 Par ch=14 c=7 v=32
31180 Par ch=14 c=7 v=33
31206 Par ch=14 c=7 v=34
31232 Par ch=14 c=7 v=35
31257 Par ch=14 c=7 v=36
31283 Par ch=14 c=7 v=37
31296 On ch=14 n=a#4 v=0
31296 On ch=14 n=d5 v=0
31296 On ch=14 n=a#5 v=0
31296 On ch=14 n=b4 v=110
31296 On ch=14 n=c5 v=110
31296 On ch=14 n=b5 v=110
31308 Par ch=14 c=7 v=38
31334 Par ch=14 c=7 v=39
31360 Par ch=14 c=7 v=40
31385 Par ch=14 c=7 v=41
31411 Par ch=14 c=7 v=42
31436 Par ch=14 c=7 v=43
31462 Par ch=14 c=7 v=44
31488 On ch=14 n=b4 v=0
31488 On ch=14 n=c5 v=0
31488 On ch=14 n=b5 v=0
31488 Par ch=14 c=7 v=45
31488 On ch=14 n=b4 v=110
31488 On ch=14 n=d#5 v=110
31488 On ch=14 n=b5 v=110
31513 Par ch=14 c=7 v=44
31539 Par ch=14 c=7 v=43
31564 Par ch=14 c=7 v=42
31590 Par ch=14 c=7 v=41
31616 Par ch=14 c=7 v=40
31641 Par ch=14 c=7 v=39
31667 Par ch=14 c=7 v=38
31692 Par ch=14 c=7 v=37
31718 Par ch=14 c=7 v=36
31744 Par ch=14 c=7 v=35
31769 Par ch=14 c=7 v=34
31795 Par ch=14 c=7 v=33
31820 Par ch=14 c=7 v=32
31846 Par ch=14 c=7 v=31
31872 On ch=14 n=b4 v=0
31872 On ch=14 n=d#5 v=0
31872 On ch=14 n=b5 v=0
31872 Par ch=14 c=7 v=30
31872 Par ch=14 c=7 v=30
31872 On ch=14 n=a#4 v=110
31872 On ch=14 n=e5 v=110
31872 On ch=14 n=a#5 v=110
31897 Par ch=14 c=7 v=29
31923 Par ch=14 c=7 v=28
31948 Par ch=14 c=7 v=27
31974 Par ch=14 c=7 v=26
32000 Par ch=14 c=7 v=25
32025 Par ch=14 c=7 v=24
32051 Par ch=14 c=7 v=23
32076 Par ch=14 c=7 v=22
32102 Par ch=14 c=7 v=21
32128 Par ch=14 c=7 v=20
32153 Par ch=14 c=7 v=19
32179 Par ch=14 c=7 v=18
32204 Par ch=14 c=7 v=17
32230 Par ch=14 c=7 v=16
32256 On ch=14 n=a#4 v=0
32256 On ch=14 n=e5 v=0
32256 On ch=14 n=a#5 v=0
32256 Par ch=14 c=7 v=15
32256 On ch=14 n=b4 v=110
32256 On ch=14 n=d#5 v=110
32256 On ch=14 n=b5 v=110
32734 On ch=14 n=b4 v=0
32734 On ch=14 n=d#5 v=0
32734 On ch=14 n=b5 v=0
44544 PrCh ch=14 p=48
44736 Par ch=14 c=7 v=45
44736 On ch=14 n=a4 v=110
44748 Par ch=14 c=7 v=46
44761 Par ch=14 c=7 v=47
44774 Par ch=14 c=7 v=48
44787 Par ch=14 c=7 v=49
44800 Par ch=14 c=7 v=50
44812 Par ch=14 c=7 v=51
44825 Par ch=14 c=7 v=52
44838 Par ch=14 c=7 v=53
44851 Par ch=14 c=7 v=54
44864 Par ch=14 c=7 v=55
44876 Par ch=14 c=7 v=56
44889 Par ch=14 c=7 v=57
44902 Par ch=14 c=7 v=58
44915 Par ch=14 c=7 v=59
44928 On ch=14 n=a4 v=0
44928 Par ch=14 c=7 v=60
44928 On ch=14 n=a#4 v=110
44940 Par ch=14 c=7 v=59
44953 Par ch=14 c=7 v=58
44966 Par ch=14 c=7 v=57
44979 Par ch=14 c=7 v=56
44992 Par ch=14 c=7 v=55
45004 Par ch=14 c=7 v=54
45017 Par ch=14 c=7 v=53
45030 Par ch=14 c=7 v=52
45043 Par ch=14 c=7 v=51
45056 Par ch=14 c=7 v=50
45068 Par ch=14 c=7 v=49
45081 Par ch=14 c=7 v=48
45094 Par ch=14 c=7 v=47
45107 Par ch=14 c=7 v=46
45120 Par ch=14 c=7 v=45
45214 On ch=14 n=a#4 v=0
46272 Par ch=14 c=7 v=45
46272 On ch=14 n=a4 v=110
46284 Par ch=14 c=7 v=46
46297 Par ch=14 c=7 v=47
46310 Par ch=14 c=7 v=48
46323 Par ch=14 c=7 v=49
46336 Par ch=14 c=7 v=50
46348 Par ch=14 c=7 v=51
46361 Par ch=14 c=7 v=52
46374 Par ch=14 c=7 v=53
46387 Par ch=14 c=7 v=54
46400 Par ch=14 c=7 v=55
46412 Par ch=14 c=7 v=56
46425 Par ch=14 c=7 v=57
46438 Par ch=14 c=7 v=58
46451 Par ch=14 c=7 v=59
46464 On ch=14 n=a4 v=0
46464 Par ch=14 c=7 v=60
46464 On ch=14 n=a#4 v=110
46476 Par ch=14 c=7 v=59
46489 Par ch=14 c=7 v=58
46502 Par ch=14 c=7 v=57
46515 Par ch=14 c=7 v=56
46528 Par ch=14 c=7 v=55
46540 Par ch=14 c=7 v=54
46553 Par ch=14 c=7 v=53
46566 Par ch=14 c=7 v=52
46579 Par ch=14 c=7 v=51
46592 Par ch=14 c=7 v=50
46604 Par ch=14 c=7 v=49
46617 Par ch=14 c=7 v=48
46630 Par ch=14 c=7 v=47
46643 Par ch=14 c=7 v=46
46656 Par ch=14 c=7 v=45
46750 On ch=14 n=a#4 v=0
47808 Par ch=14 c=7 v=45
47808 On ch=14 n=g#4 v=110
47820 Par ch=14 c=7 v=46
47833 Par ch=14 c=7 v=47
47846 Par ch=14 c=7 v=48
47859 Par ch=14 c=7 v=49
47872 Par ch=14 c=7 v=50
47884 Par ch=14 c=7 v=51
47897 Par ch=14 c=7 v=52
47910 Par ch=14 c=7 v=53
47923 Par ch=14 c=7 v=54
47936 Par ch=14 c=7 v=55
47948 Par ch=14 c=7 v=56
47961 Par ch=14 c=7 v=57
47974 Par ch=14 c=7 v=58
47987 Par ch=14 c=7 v=59
48000 On ch=14 n=g#4 v=0
48000 Par ch=14 c=7 v=60
48000 On ch=14 n=a4 v=110
48012 Par ch=14 c=7 v=59
48025 Par ch=14 c=7 v=58
48038 Par ch=14 c=7 v=57
48051 Par ch=14 c=7 v=56
48064 Par ch=14 c=7 v=55
48076 Par ch=14 c=7 v=54
48089 Par ch=14 c=7 v=53
48102 Par ch=14 c=7 v=52
48115 Par ch=14 c=7 v=51
48128 Par ch=14 c=7 v=50
48140 Par ch=14 c=7 v=49
48153 Par ch=14 c=7 v=48
48166 Par ch=14 c=7 v=47
48179 Par ch=14 c=7 v=46
48192 Par ch=14 c=7 v=45
48286 On ch=14 n=a4 v=0
49344 Par ch=14 c=7 v=45
49344 On ch=14 n=g#4 v=110
49356 Par ch=14 c=7 v=46
49369 Par ch=14 c=7 v=47
49382 Par ch=14 c=7 v=48
49395 Par ch=14 c=7 v=49
49408 Par ch=14 c=7 v=50
49420 Par ch=14 c=7 v=51
49433 Par ch=14 c=7 v=52
49446 Par ch=14 c=7 v=53
49459 Par ch=14 c=7 v=54
49472 Par ch=14 c=7 v=55
49484 Par ch=14 c=7 v=56
49497 Par ch=14 c=7 v=57
49510 Par ch=14 c=7 v=58
49523 Par ch=14 c=7 v=59
49536 On ch=14 n=g#4 v=0
49536 Par ch=14 c=7 v=60
49536 On ch=14 n=a4 v=110
49548 Par ch=14 c=7 v=59
49561 Par ch=14 c=7 v=58
49574 Par ch=14 c=7 v=57
49587 Par ch=14 c=7 v=56
49600 Par ch=14 c=7 v=55
49612 Par ch=14 c=7 v=54
49625 Par ch=14 c=7 v=53
49638 Par ch=14 c=7 v=52
49651 Par ch=14 c=7 v=51
49664 Par ch=14 c=7 v=50
49676 Par ch=14 c=7 v=49
49689 Par ch=14 c=7 v=48
49702 Par ch=14 c=7 v=47
49715 Par ch=14 c=7 v=46
49728 Par ch=14 c=7 v=45
49822 On ch=14 n=a4 v=0
59904 Par ch=14 c=7 v=75
60480 On ch=14 n=d5 v=110
60864 On ch=14 n=d5 v=0
60864 On ch=14 n=c#5 v=110
61248 On ch=14 n=c#5 v=0
61248 On ch=14 n=b4 v=110
61344 On ch=14 n=b4 v=0
61344 On ch=14 n=c#5 v=110
61438 On ch=14 n=c#5 v=0
61440 Par ch=14 c=7 v=75
61440 On ch=14 n=b4 v=110
61462 Par ch=14 c=7 v=76
61485 Par ch=14 c=7 v=77
61507 Par ch=14 c=7 v=78
61530 Par ch=14 c=7 v=79
61552 Par ch=14 c=7 v=80
61575 Par ch=14 c=7 v=81
61598 Par ch=14 c=7 v=82
61620 Par ch=14 c=7 v=83
61643 Par ch=14 c=7 v=84
61665 Par ch=14 c=7 v=85
61688 Par ch=14 c=7 v=86
61711 Par ch=14 c=7 v=87
61733 Par ch=14 c=7 v=88
61756 Par ch=14 c=7 v=89
61778 Par ch=14 c=7 v=90
61801 Par ch=14 c=7 v=91
61824 Par ch=14 c=7 v=92
61846 Par ch=14 c=7 v=91
61869 Par ch=14 c=7 v=90
61891 Par ch=14 c=7 v=89
61914 Par ch=14 c=7 v=88
61936 Par ch=14 c=7 v=87
61959 Par ch=14 c=7 v=86
61982 Par ch=14 c=7 v=85
62004 Par ch=14 c=7 v=84
62016 On ch=14 n=b4 v=0
62016 On ch=14 n=a#4 v=110
62027 Par ch=14 c=7 v=83
62049 Par ch=14 c=7 v=82
62072 Par ch=14 c=7 v=81
62095 Par ch=14 c=7 v=80
62117 Par ch=14 c=7 v=79
62140 Par ch=14 c=7 v=78
62162 Par ch=14 c=7 v=77
62185 Par ch=14 c=7 v=76
62208 On ch=14 n=a#4 v=0
62208 Par ch=14 c=7 v=75
62208 On ch=14 n=b4 v=110
62220 Par ch=14 c=7 v=74
62233 Par ch=14 c=7 v=73
62246 Par ch=14 c=7 v=72
62259 Par ch=14 c=7 v=71
62272 Par ch=14 c=7 v=70
62284 Par ch=14 c=7 v=69
62297 Par ch=14 c=7 v=68
62310 Par ch=14 c=7 v=67
62323 Par ch=14 c=7 v=66
62336 Par ch=14 c=7 v=65
62348 Par ch=14 c=7 v=64
62361 Par ch=14 c=7 v=63
62374 Par ch=14 c=7 v=62
62387 Par ch=14 c=7 v=61
62400 Par ch=14 c=7 v=60
62412 Par ch=14 c=7 v=59
62425 Par ch=14 c=7 v=58
62438 Par ch=14 c=7 v=57
62451 Par ch=14 c=7 v=56
62464 Par ch=14 c=7 v=55
62476 Par ch=14 c=7 v=54
62489 Par ch=14 c=7 v=53
62502 Par ch=14 c=7 v=52
62515 Par ch=14 c=7 v=51
62528 Par ch=14 c=7 v=50
62540 Par ch=14 c=7 v=49
62553 Par ch=14 c=7 v=48
62566 Par ch=14 c=7 v=47
62579 Par ch=14 c=7 v=46
62592 Par ch=14 c=7 v=45
62604 Par ch=14 c=7 v=44
62617 Par ch=14 c=7 v=43
62630 Par ch=14 c=7 v=42
62643 Par ch=14 c=7 v=41
62656 Par ch=14 c=7 v=40
62668 Par ch=14 c=7 v=39
62681 Par ch=14 c=7 v=38
62694 Par ch=14 c=7 v=37
62707 Par ch=14 c=7 v=36
62720 Par ch=14 c=7 v=35
62732 Par ch=14 c=7 v=34
62745 Par ch=14 c=7 v=33
62752 On ch=14 n=b4 v=0
62758 Par ch=14 c=7 v=32
62771 Par ch=14 c=7 v=31
62784 Par ch=14 c=7 v=30
62976 Par ch=14 c=7 v=45
63360 On ch=14 n=f4 v=110
63936 Par ch=14 c=7 v=45
63948 Par ch=14 c=7 v=46
63961 Par ch=14 c=7 v=47
63974 Par ch=14 c=7 v=48
63987 Par ch=14 c=7 v=49
64000 Par ch=14 c=7 v=50
64012 Par ch=14 c=7 v=51
64025 Par ch=14 c=7 v=52
64038 Par ch=14 c=7 v=53
64051 Par ch=14 c=7 v=54
64064 Par ch=14 c=7 v=55
64076 Par ch=14 c=7 v=56
64080 On ch=14 n=f4 v=0
64089 Par ch=14 c=7 v=57
64102 Par ch=14 c=7 v=58
64115 Par ch=14 c=7 v=59
64128 Par ch=14 c=7 v=60
64128 On ch=14 n=f#4 v=110
64140 Par ch=14 c=7 v=59
64153 Par ch=14 c=7 v=58
64166 Par ch=14 c=7 v=57
64179 Par ch=14 c=7 v=56
64192 Par ch=14 c=7 v=55
64204 Par ch=14 c=7 v=54
64217 Par ch=14 c=7 v=53
64230 Par ch=14 c=7 v=52
64243 Par ch=14 c=7 v=51
64256 Par ch=14 c=7 v=50
64268 Par ch=14 c=7 v=49
64281 Par ch=14 c=7 v=48
64294 Par ch=14 c=7 v=47
64307 Par ch=14 c=7 v=46
64320 Par ch=14 c=7 v=45
64414 On ch=14 n=f#4 v=0
64896 On ch=14 n=f4 v=110
65472 Par ch=14 c=7 v=45
65478 Par ch=14 c=7 v=46
65484 Par ch=14 c=7 v=47
65491 Par ch=14 c=7 v=48
65497 Par ch=14 c=7 v=49
65504 Par ch=14 c=7 v=50
65510 Par ch=14 c=7 v=51
65516 Par ch=14 c=7 v=52
65523 Par ch=14 c=7 v=53
65529 Par ch=14 c=7 v=54
65536 Par ch=14 c=7 v=55
65542 Par ch=14 c=7 v=56
65548 Par ch=14 c=7 v=57
65555 Par ch=14 c=7 v=58
65561 Par ch=14 c=7 v=59
65568 Par ch=14 c=7 v=60
65574 Par ch=14 c=7 v=61
65580 Par ch=14 c=7 v=62
65587 Par ch=14 c=7 v=63
65593 Par ch=14 c=7 v=64
65600 Par ch=14 c=7 v=65
65606 Par ch=14 c=7 v=66
65612 Par ch=14 c=7 v=67
65616 On ch=14 n=f4 v=0
65619 Par ch=14 c=7 v=68
65625 Par ch=14 c=7 v=69
65632 Par ch=14 c=7 v=70
65638 Par ch=14 c=7 v=71
65644 Par ch=14 c=7 v=72
65651 Par ch=14 c=7 v=73
65657 Par ch=14 c=7 v=74
65664 Par ch=14 c=7 v=75
65664 On ch=14 n=g4 v=110
65670 Par ch=14 c=7 v=74
65676 Par ch=14 c=7 v=73
65683 Par ch=14 c=7 v=72
65689 Par ch=14 c=7 v=71
65696 Par ch=14 c=7 v=70
65702 Par ch=14 c=7 v=69
65708 Par ch=14 c=7 v=68
65715 Par ch=14 c=7 v=67
65721 Par ch=14 c=7 v=66
65728 Par ch=14 c=7 v=65
65734 Par ch=14 c=7 v=64
65740 Par ch=14 c=7 v=63
65747 Par ch=14 c=7 v=62
65753 Par ch=14 c=7 v=61
65760 Par ch=14 c=7 v=60
65766 Par ch=14 c=7 v=59
65772 Par ch=14 c=7 v=58
65779 Par ch=14 c=7 v=57
65785 Par ch=14 c=7 v=56
65792 Par ch=14 c=7 v=55
65798 Par ch=14 c=7 v=54
65804 Par ch=14 c=7 v=53
65811 Par ch=14 c=7 v=52
65817 Par ch=14 c=7 v=51
65824 Par ch=14 c=7 v=50
65830 Par ch=14 c=7 v=49
65836 Par ch=14 c=7 v=48
65843 Par ch=14 c=7 v=47
65849 Par ch=14 c=7 v=46
65856 On ch=14 n=g4 v=0
65856 Par ch=14 c=7 v=45
65856 On ch=14 n=g4 v=110
65950 On ch=14 n=g4 v=0
66432 On ch=14 n=d#4 v=110
67008 Par ch=14 c=7 v=45
67014 Par ch=14 c=7 v=46
67020 Par ch=14 c=7 v=47
67027 Par ch=14 c=7 v=48
67033 Par ch=14 c=7 v=49
67040 Par ch=14 c=7 v=50
67046 Par ch=14 c=7 v=51
67052 Par ch=14 c=7 v=52
67059 Par ch=14 c=7 v=53
67065 Par ch=14 c=7 v=54
67072 Par ch=14 c=7 v=55
67078 Par ch=14 c=7 v=56
67084 Par ch=14 c=7 v=57
67091 Par ch=14 c=7 v=58
67097 Par ch=14 c=7 v=59
67104 Par ch=14 c=7 v=60
67110 Par ch=14 c=7 v=61
67116 Par ch=14 c=7 v=62
67123 Par ch=14 c=7 v=63
67129 Par ch=14 c=7 v=64
67136 Par ch=14 c=7 v=65
67142 Par ch=14 c=7 v=66
67148 Par ch=14 c=7 v=67
67155 Par ch=14 c=7 v=68
67161 Par ch=14 c=7 v=69
67168 Par ch=14 c=7 v=70
67174 Par ch=14 c=7 v=71
67180 Par ch=14 c=7 v=72
67187 Par ch=14 c=7 v=73
67193 Par ch=14 c=7 v=74
67200 On ch=14 n=d#4 v=0
67200 Par ch=14 c=7 v=75
67200 On ch=14 n=c5 v=110
67206 Par ch=14 c=7 v=74
67212 Par ch=14 c=7 v=73
67219 Par ch=14 c=7 v=72
67225 Par ch=14 c=7 v=71
67232 Par ch=14 c=7 v=70
67238 Par ch=14 c=7 v=69
67244 Par ch=14 c=7 v=68
67251 Par ch=14 c=7 v=67
67257 Par ch=14 c=7 v=66
67264 Par ch=14 c=7 v=65
67270 Par ch=14 c=7 v=64
67276 Par ch=14 c=7 v=63
67283 Par ch=14 c=7 v=62
67289 Par ch=14 c=7 v=61
67296 Par ch=14 c=7 v=60
67302 Par ch=14 c=7 v=59
67308 Par ch=14 c=7 v=58
67315 Par ch=14 c=7 v=57
67321 Par ch=14 c=7 v=56
67328 Par ch=14 c=7 v=55
67334 Par ch=14 c=7 v=54
67340 Par ch=14 c=7 v=53
67347 Par ch=14 c=7 v=52
67353 Par ch=14 c=7 v=51
67360 Par ch=14 c=7 v=50
67366 Par ch=14 c=7 v=49
67372 Par ch=14 c=7 v=48
67379 Par ch=14 c=7 v=47
67385 Par ch=14 c=7 v=46
67392 Par ch=14 c=7 v=45
67486 On ch=14 n=c5 v=0
67968 On ch=14 n=d#4 v=110
68544 Par ch=14 c=7 v=45
68550 Par ch=14 c=7 v=46
68556 Par ch=14 c=7 v=47
68563 Par ch=14 c=7 v=48
68569 Par ch=14 c=7 v=49
68576 Par ch=14 c=7 v=50
68582 Par ch=14 c=7 v=51
68588 Par ch=14 c=7 v=52
68595 Par ch=14 c=7 v=53
68601 Par ch=14 c=7 v=54
68608 Par ch=14 c=7 v=55
68614 Par ch=14 c=7 v=56
68620 Par ch=14 c=7 v=57
68627 Par ch=14 c=7 v=58
68633 Par ch=14 c=7 v=59
68640 Par ch=14 c=7 v=60
68646 Par ch=14 c=7 v=61
68652 Par ch=14 c=7 v=62
68659 Par ch=14 c=7 v=63
68665 Par ch=14 c=7 v=64
68672 Par ch=14 c=7 v=65
68678 Par ch=14 c=7 v=66
68684 Par ch=14 c=7 v=67
68691 Par ch=14 c=7 v=68
68697 Par ch=14 c=7 v=69
68704 Par ch=14 c=7 v=70
68710 Par ch=14 c=7 v=71
68716 Par ch=14 c=7 v=72
68723 Par ch=14 c=7 v=73
68729 Par ch=14 c=7 v=74
68736 On ch=14 n=d#4 v=0
68736 Par ch=14 c=7 v=75
68736 On ch=14 n=c5 v=110
68742 Par ch=14 c=7 v=74
68748 Par ch=14 c=7 v=73
68755 Par ch=14 c=7 v=72
68761 Par ch=14 c=7 v=71
68768 Par ch=14 c=7 v=70
68774 Par ch=14 c=7 v=69
68780 Par ch=14 c=7 v=68
68787 Par ch=14 c=7 v=67
68793 Par ch=14 c=7 v=66
68800 Par ch=14 c=7 v=65
68806 Par ch=14 c=7 v=64
68812 Par ch=14 c=7 v=63
68819 Par ch=14 c=7 v=62
68825 Par ch=14 c=7 v=61
68832 Par ch=14 c=7 v=60
68838 Par ch=14 c=7 v=59
68844 Par ch=14 c=7 v=58
68851 Par ch=14 c=7 v=57
68857 Par ch=14 c=7 v=56
68864 Par ch=14 c=7 v=55
68870 Par ch=14 c=7 v=54
68876 Par ch=14 c=7 v=53
68883 Par ch=14 c=7 v=52
68889 Par ch=14 c=7 v=51
68896 Par ch=14 c=7 v=50
68902 Par ch=14 c=7 v=49
68908 Par ch=14 c=7 v=48
68915 Par ch=14 c=7 v=47
68921 Par ch=14 c=7 v=46
68928 Par ch=14 c=7 v=45
69022 On ch=14 n=c5 v=0
69504 Par ch=14 c=7 v=75
69504 On ch=14 n=f4 v=110
69504 On ch=14 n=f5 v=110
69529 Par ch=14 c=7 v=74
69555 Par ch=14 c=7 v=73
69580 Par ch=14 c=7 v=72
69606 Par ch=14 c=7 v=71
69632 Par ch=14 c=7 v=70
69657 Par ch=14 c=7 v=69
69683 Par ch=14 c=7 v=68
69708 Par ch=14 c=7 v=67
69734 Par ch=14 c=7 v=66
69760 Par ch=14 c=7 v=65
69785 Par ch=14 c=7 v=64
69811 Par ch=14 c=7 v=63
69836 Par ch=14 c=7 v=62
69862 Par ch=14 c=7 v=61
69888 On ch=14 n=f4 v=0
69888 On ch=14 n=f5 v=0
69888 Par ch=14 c=7 v=60
69888 On ch=14 n=g4 v=110
69888 On ch=14 n=g5 v=110
69982 On ch=14 n=g4 v=0
69982 On ch=14 n=g5 v=0
70272 Par ch=14 c=7 v=75
70272 On ch=14 n=f4 v=110
70272 On ch=14 n=f5 v=110
70297 Par ch=14 c=7 v=74
70323 Par ch=14 c=7 v=73
70348 Par ch=14 c=7 v=72
70374 Par ch=14 c=7 v=71
70400 Par ch=14 c=7 v=70
70425 Par ch=14 c=7 v=69
70451 Par ch=14 c=7 v=68
70476 Par ch=14 c=7 v=67
70502 Par ch=14 c=7 v=66
70528 Par ch=14 c=7 v=65
70553 Par ch=14 c=7 v=64
70579 Par ch=14 c=7 v=63
70604 Par ch=14 c=7 v=62
70630 Par ch=14 c=7 v=61
70656 On ch=14 n=f4 v=0
70656 On ch=14 n=f5 v=0
70656 Par ch=14 c=7 v=60
70656 Par ch=14 c=7 v=45
70656 On ch=14 n=d#4 v=110
70656 On ch=14 n=d#5 v=110
70686 Par ch=14 c=7 v=46
70716 Par ch=14 c=7 v=47
70747 Par ch=14 c=7 v=48
70777 Par ch=14 c=7 v=49
70808 Par ch=14 c=7 v=50
70838 Par ch=14 c=7 v=51
70869 Par ch=14 c=7 v=52
70899 Par ch=14 c=7 v=53
70930 Par ch=14 c=7 v=54
70960 Par ch=14 c=7 v=55
70991 Par ch=14 c=7 v=56
71021 Par ch=14 c=7 v=57
71040 On ch=14 n=d#4 v=0
71040 On ch=14 n=d#5 v=0
71040 On ch=14 n=f4 v=110
71040 On ch=14 n=f5 v=110
71052 Par ch=14 c=7 v=58
71082 Par ch=14 c=7 v=59
71113 Par ch=14 c=7 v=60
71143 Par ch=14 c=7 v=61
71174 Par ch=14 c=7 v=62
71204 Par ch=14 c=7 v=63
71235 Par ch=14 c=7 v=64
71265 Par ch=14 c=7 v=65
71296 Par ch=14 c=7 v=66
71326 Par ch=14 c=7 v=67
71356 Par ch=14 c=7 v=68
71387 Par ch=14 c=7 v=69
71417 Par ch=14 c=7 v=70
71424 On ch=14 n=f4 v=0
71424 On ch=14 n=f5 v=0
71424 On ch=14 n=d#4 v=110
71424 On ch=14 n=d#5 v=110
71448 Par ch=14 c=7 v=71
71478 Par ch=14 c=7 v=72
71509 Par ch=14 c=7 v=73
71539 Par ch=14 c=7 v=74
71570 Par ch=14 c=7 v=75
71600 Par ch=14 c=7 v=76
71631 Par ch=14 c=7 v=77
71661 Par ch=14 c=7 v=78
71692 Par ch=14 c=7 v=79
71722 Par ch=14 c=7 v=80
71753 Par ch=14 c=7 v=81
71783 Par ch=14 c=7 v=82
71814 Par ch=14 c=7 v=83
71844 Par ch=14 c=7 v=84
71875 Par ch=14 c=7 v=85
71905 Par ch=14 c=7 v=86
71936 Par ch=14 c=7 v=87
71966 Par ch=14 c=7 v=88
71996 Par ch=14 c=7 v=89
72027 Par ch=14 c=7 v=90
72057 Par ch=14 c=7 v=91
72088 Par ch=14 c=7 v=92
72118 Par ch=14 c=7 v=93
72149 Par ch=14 c=7 v=94
72179 Par ch=14 c=7 v=95
72192 On ch=14 n=d#4 v=0
72192 On ch=14 n=d#5 v=0
72192 On ch=14 n=d4 v=110
72192 On ch=14 n=d5 v=110
72210 Par ch=14 c=7 v=96
72240 Par ch=14 c=7 v=97
72271 Par ch=14 c=7 v=98
72301 Par ch=14 c=7 v=99
72332 Par ch=14 c=7 v=100
72362 Par ch=14 c=7 v=101
72393 Par ch=14 c=7 v=102
72423 Par ch=14 c=7 v=103
72454 Par ch=14 c=7 v=104
72484 Par ch=14 c=7 v=105
72515 Par ch=14 c=7 v=106
72545 Par ch=14 c=7 v=107
72576 On ch=14 n=d4 v=0
72576 On ch=14 n=d5 v=0
72576 Par ch=14 c=7 v=108
72576 On ch=14 n=a4 v=110
72576 On ch=14 n=d5 v=110
72594 Par ch=14 c=7 v=107
72612 Par ch=14 c=7 v=106
72630 Par ch=14 c=7 v=105
72649 Par ch=14 c=7 v=104
72667 Par ch=14 c=7 v=103
72685 Par ch=14 c=7 v=102
72704 Par ch=14 c=7 v=101
72722 Par ch=14 c=7 v=100
72740 Par ch=14 c=7 v=99
72758 Par ch=14 c=7 v=98
72777 Par ch=14 c=7 v=97
72795 Par ch=14 c=7 v=96
72813 Par ch=14 c=7 v=95
72832 Par ch=14 c=7 v=94
72850 Par ch=14 c=7 v=93
72868 Par ch=14 c=7 v=92
72886 Par ch=14 c=7 v=91
72905 Par ch=14 c=7 v=90
72923 Par ch=14 c=7 v=89
72941 Par ch=14 c=7 v=88
72960 On ch=14 n=a4 v=0
72960 On ch=14 n=d5 v=0
72960 Par ch=14 c=7 v=87
72960 On ch=14 n=g#4 v=110
72960 On ch=14 n=d5 v=110
72978 Par ch=14 c=7 v=86
72996 Par ch=14 c=7 v=85
73014 Par ch=14 c=7 v=84
73033 Par ch=14 c=7 v=83
73051 Par ch=14 c=7 v=82
73069 Par ch=14 c=7 v=81
73088 Par ch=14 c=7 v=80
73106 Par ch=14 c=7 v=79
73124 Par ch=14 c=7 v=78
73142 Par ch=14 c=7 v=77
73161 Par ch=14 c=7 v=76
73179 Par ch=14 c=7 v=75
73197 Par ch=14 c=7 v=74
73216 Par ch=14 c=7 v=73
73234 Par ch=14 c=7 v=72
73252 Par ch=14 c=7 v=71
73270 Par ch=14 c=7 v=70
73289 Par ch=14 c=7 v=69
73307 Par ch=14 c=7 v=68
73325 Par ch=14 c=7 v=67
73344 On ch=14 n=g#4 v=0
73344 On ch=14 n=d5 v=0
73344 Par ch=14 c=7 v=66
73344 On ch=14 n=g4 v=110
73344 On ch=14 n=d#5 v=110
73362 Par ch=14 c=7 v=65
73380 Par ch=14 c=7 v=64
73398 Par ch=14 c=7 v=63
73417 Par ch=14 c=7 v=62
73435 Par ch=14 c=7 v=61
73453 Par ch=14 c=7 v=60
73472 Par ch=14 c=7 v=59
73490 Par ch=14 c=7 v=58
73508 Par ch=14 c=7 v=57
73526 Par ch=14 c=7 v=56
73545 Par ch=14 c=7 v=55
73563 Par ch=14 c=7 v=54
73581 Par ch=14 c=7 v=53
73600 Par ch=14 c=7 v=52
73618 Par ch=14 c=7 v=51
73636 Par ch=14 c=7 v=50
73654 Par ch=14 c=7 v=49
73673 Par ch=14 c=7 v=48
73691 Par ch=14 c=7 v=47
73709 Par ch=14 c=7 v=46
73728 On ch=14 n=g4 v=0
73728 On ch=14 n=d#5 v=0
73728 Par ch=14 c=7 v=45
73728 On ch=14 n=a4 v=110
73728 On ch=14 n=d5 v=110
73822 On ch=14 n=a4 v=0
73822 On ch=14 n=d5 v=0
91776 Par ch=14 c=7 v=75
91776 On ch=14 n=a#5 v=110
91776 On ch=14 n=c#5 v=110
91788 Par ch=14 c=7 v=74
91801 Par ch=14 c=7 v=73
91814 Par ch=14 c=7 v=72
91827 Par ch=14 c=7 v=71
91840 Par ch=14 c=7 v=70
91852 Par ch=14 c=7 v=69
91865 Par ch=14 c=7 v=68
91878 Par ch=14 c=7 v=67
91891 Par ch=14 c=7 v=66
91904 Par ch=14 c=7 v=65
91916 Par ch=14 c=7 v=64
91929 Par ch=14 c=7 v=63
91942 Par ch=14 c=7 v=62
91955 Par ch=14 c=7 v=61
91968 On ch=14 n=a#5 v=0
91968 Par ch=14 c=7 v=60
91968 On ch=14 n=b5 v=110
92160 On ch=14 n=c#5 v=0
92160 On ch=14 n=b5 v=0
92160 Par ch=14 c=7 v=75
92160 On ch=14 n=a5 v=110
92160 On ch=14 n=c5 v=110
92172 Par ch=14 c=7 v=74
92185 Par ch=14 c=7 v=73
92198 Par ch=14 c=7 v=72
92211 Par ch=14 c=7 v=71
92224 Par ch=14 c=7 v=70
92236 Par ch=14 c=7 v=69
92249 Par ch=14 c=7 v=68
92262 Par ch=14 c=7 v=67
92275 Par ch=14 c=7 v=66
92288 Par ch=14 c=7 v=65
92300 Par ch=14 c=7 v=64
92313 Par ch=14 c=7 v=63
92326 Par ch=14 c=7 v=62
92339 Par ch=14 c=7 v=61
92352 On ch=14 n=a5 v=0
92352 Par ch=14 c=7 v=60
92352 On ch=14 n=a#5 v=110
92544 On ch=14 n=c5 v=0
92544 On ch=14 n=a#5 v=0
92544 Par ch=14 c=7 v=75
92544 On ch=14 n=g5 v=110
92544 On ch=14 n=e5 v=110
92556 Par ch=14 c=7 v=74
92569 Par ch=14 c=7 v=73
92582 Par ch=14 c=7 v=72
92595 Par ch=14 c=7 v=71
92608 Par ch=14 c=7 v=70
92620 Par ch=14 c=7 v=69
92633 Par ch=14 c=7 v=68
92646 Par ch=14 c=7 v=67
92659 Par ch=14 c=7 v=66
92672 Par ch=14 c=7 v=65
92684 Par ch=14 c=7 v=64
92697 Par ch=14 c=7 v=63
92710 Par ch=14 c=7 v=62
92723 Par ch=14 c=7 v=61
92736 On ch=14 n=g5 v=0
92736 Par ch=14 c=7 v=60
92736 On ch=14 n=g#5 v=110
92928 On ch=14 n=e5 v=0
92928 On ch=14 n=g#5 v=0
92928 Par ch=14 c=7 v=60
92928 On ch=14 n=d#5 v=110
92928 On ch=14 n=b4 v=110
92953 Par ch=14 c=7 v=59
92979 Par ch=14 c=7 v=58
93004 Par ch=14 c=7 v=57
93030 Par ch=14 c=7 v=56
93056 Par ch=14 c=7 v=55
93081 Par ch=14 c=7 v=54
93107 Par ch=14 c=7 v=53
93120 On ch=14 n=d#5 v=0
93120 On ch=14 n=e5 v=110
93132 Par ch=14 c=7 v=52
93158 Par ch=14 c=7 v=51
93184 Par ch=14 c=7 v=50
93209 Par ch=14 c=7 v=49
93235 Par ch=14 c=7 v=48
93260 Par ch=14 c=7 v=47
93280 On ch=14 n=e5 v=0
93286 Par ch=14 c=7 v=46
93312 On ch=14 n=b4 v=0
93312 Par ch=14 c=7 v=45
93312 On ch=14 n=c5 v=110
93312 On ch=14 n=g#4 v=110
93337 Par ch=14 c=7 v=44
93363 Par ch=14 c=7 v=43
93388 Par ch=14 c=7 v=42
93414 Par ch=14 c=7 v=41
93440 Par ch=14 c=7 v=40
93465 Par ch=14 c=7 v=39
93491 Par ch=14 c=7 v=38
93504 On ch=14 n=c5 v=0
93504 On ch=14 n=c#5 v=110
93516 Par ch=14 c=7 v=37
93542 Par ch=14 c=7 v=36
93568 Par ch=14 c=7 v=35
93593 Par ch=14 c=7 v=34
93619 Par ch=14 c=7 v=33
93644 Par ch=14 c=7 v=32
93664 On ch=14 n=c#5 v=0
93670 Par ch=14 c=7 v=31
93696 On ch=14 n=g#4 v=0
93696 Par ch=14 c=7 v=30
93696 On ch=14 n=g4 v=110
93696 On ch=14 n=e4 v=110
93888 On ch=14 n=g4 v=0
93888 On ch=14 n=g#4 v=110
94048 On ch=14 n=g#4 v=0
94080 On ch=14 n=e4 v=0
94080 On ch=14 n=d#5 v=110
94080 On ch=14 n=b4 v=110
94272 On ch=14 n=d#5 v=0
94272 On ch=14 n=e5 v=110
94432 On ch=14 n=e5 v=0
94464 On ch=14 n=b4 v=0
94464 On ch=14 n=b4 v=110
94464 On ch=14 n=e4 v=110
94750 On ch=14 n=b4 v=0
94750 On ch=14 n=e4 v=0
94848 On ch=14 n=b4 v=110
94848 On ch=14 n=e4 v=110
95134 On ch=14 n=b4 v=0
95134 On ch=14 n=e4 v=0
95616 On ch=14 n=b4 v=110
95776 On ch=14 n=b4 v=0
95808 Par ch=14 c=7 v=45
95808 On ch=14 n=b5 v=110
95810 Par ch=14 c=7 v=46
95812 Par ch=14 c=7 v=47
95815 Par ch=14 c=7 v=48
95817 Par ch=14 c=7 v=49
95819 Par ch=14 c=7 v=50
95822 Par ch=14 c=7 v=51
95824 Par ch=14 c=7 v=52
95826 Par ch=14 c=7 v=53
95829 Par ch=14 c=7 v=54
95831 Par ch=14 c=7 v=55
95833 Par ch=14 c=7 v=56
95836 Par ch=14 c=7 v=57
95838 Par ch=14 c=7 v=58
95840 Par ch=14 c=7 v=59
95843 Par ch=14 c=7 v=60
95845 Par ch=14 c=7 v=61
95847 Par ch=14 c=7 v=62
95850 Par ch=14 c=7 v=63
95852 Par ch=14 c=7 v=64
95854 Par ch=14 c=7 v=65
95857 Par ch=14 c=7 v=66
95859 Par ch=14 c=7 v=67
95861 Par ch=14 c=7 v=68
95864 Par ch=14 c=7 v=69
95866 Par ch=14 c=7 v=70
95868 Par ch=14 c=7 v=71
95871 Par ch=14 c=7 v=72
95873 Par ch=14 c=7 v=73
95875 Par ch=14 c=7 v=74
95878 Par ch=14 c=7 v=75
95880 Par ch=14 c=7 v=76
95882 Par ch=14 c=7 v=77
95885 Par ch=14 c=7 v=78
95887 Par ch=14 c=7 v=79
95889 Par ch=14 c=7 v=80
95892 Par ch=14 c=7 v=81
95894 Par ch=14 c=7 v=82
95896 Par ch=14 c=7 v=83
95899 Par ch=14 c=7 v=84
95901 Par ch=14 c=7 v=85
95903 Par ch=14 c=7 v=86
95906 Par ch=14 c=7 v=87
95908 Par ch=14 c=7 v=88
95911 Par ch=14 c=7 v=89
95913 Par ch=14 c=7 v=90
95915 Par ch=14 c=7 v=91
95918 Par ch=14 c=7 v=92
95920 Par ch=14 c=7 v=93
95922 Par ch=14 c=7 v=94
95925 Par ch=14 c=7 v=95
95927 Par ch=14 c=7 v=96
95929 Par ch=14 c=7 v=97
95932 Par ch=14 c=7 v=98
95934 Par ch=14 c=7 v=99
95936 Par ch=14 c=7 v=100
95939 Par ch=14 c=7 v=101
95941 Par ch=14 c=7 v=102
95943 Par ch=14 c=7 v=103
95946 Par ch=14 c=7 v=104
95948 Par ch=14 c=7 v=105
95950 Par ch=14 c=7 v=106
95953 Par ch=14 c=7 v=107
95955 Par ch=14 c=7 v=108
95957 Par ch=14 c=7 v=109
95960 Par ch=14 c=7 v=110
95962 Par ch=14 c=7 v=111
95964 Par ch=14 c=7 v=112
95967 Par ch=14 c=7 v=113
95968 On ch=14 n=b5 v=0
95969 Par ch=14 c=7 v=114
95971 Par ch=14 c=7 v=115
95974 Par ch=14 c=7 v=116
95976 Par ch=14 c=7 v=117
95978 Par ch=14 c=7 v=118
95981 Par ch=14 c=7 v=119
95983 Par ch=14 c=7 v=120
95985 Par ch=14 c=7 v=121
95988 Par ch=14 c=7 v=122
95990 Par ch=14 c=7 v=123
95992 Par ch=14 c=7 v=124
95995 Par ch=14 c=7 v=125
95997 Par ch=14 c=7 v=126
96000 Par ch=14 c=7 v=127
96000 On ch=14 n=c4 v=110
96000 On ch=14 n=a4 v=110
96000 On ch=14 n=f5 v=110
96000 On ch=14 n=c6 v=110
96094 On ch=14 n=c4 v=0
96094 On ch=14 n=a4 v=0
96094 On ch=14 n=f5 v=0
96094 On ch=14 n=c6 v=0
98304 Par ch=14 c=7 v=75
99072 PrCh ch=14 p=45
99456 On ch=14 n=f#4 v=110
99550 On ch=14 n=f#4 v=0
114048 PrCh ch=14 p=50
114048 PrCh ch=14 p=48
114432 Par ch=14 c=7 v=45
114624 On ch=14 n=d#5 v=110
114624 On ch=14 n=a5 v=110
114624 On ch=14 n=b4 v=110
114784 On ch=14 n=b4 v=0
114816 On ch=14 n=d#5 v=0
114816 On ch=14 n=a5 v=0
114816 On ch=14 n=b4 v=110
114816 On ch=14 n=e5 v=110
114816 On ch=14 n=g#5 v=110
115200 Par ch=14 c=7 v=45
115225 Par ch=14 c=7 v=46
115251 Par ch=14 c=7 v=47
115276 Par ch=14 c=7 v=48
115302 Par ch=14 c=7 v=49
115328 Par ch=14 c=7 v=50
115353 Par ch=14 c=7 v=51
115379 Par ch=14 c=7 v=52
115404 Par ch=14 c=7 v=53
115430 Par ch=14 c=7 v=54
115456 Par ch=14 c=7 v=55
115481 Par ch=14 c=7 v=56
115507 Par ch=14 c=7 v=57
115532 Par ch=14 c=7 v=58
115558 Par ch=14 c=7 v=59
115584 On ch=14 n=b4 v=0
115584 On ch=14 n=e5 v=0
115584 On ch=14 n=g#5 v=0
115584 Par ch=14 c=7 v=60
115584 On ch=14 n=d#5 v=110
115584 On ch=14 n=a5 v=110
115584 On ch=14 n=c#5 v=110
115609 Par ch=14 c=7 v=59
115635 Par ch=14 c=7 v=58
115660 Par ch=14 c=7 v=57
115686 Par ch=14 c=7 v=56
115712 Par ch=14 c=7 v=55
115737 Par ch=14 c=7 v=54
115763 Par ch=14 c=7 v=53
115788 Par ch=14 c=7 v=52
115814 Par ch=14 c=7 v=51
115840 Par ch=14 c=7 v=50
115865 Par ch=14 c=7 v=49
115872 On ch=14 n=c#5 v=0
115872 On ch=14 n=b4 v=110
115891 Par ch=14 c=7 v=48
115916 Par ch=14 c=7 v=47
115942 Par ch=14 c=7 v=46
115966 On ch=14 n=b4 v=0
115968 On ch=14 n=d#5 v=0
115968 On ch=14 n=a5 v=0
115968 Par ch=14 c=7 v=45
115968 Par ch=14 c=7 v=30
115968 On ch=14 n=b4 v=110
115968 On ch=14 n=e5 v=110
115968 On ch=14 n=g#5 v=110
115993 Par ch=14 c=7 v=31
116019 Par ch=14 c=7 v=32
116044 Par ch=14 c=7 v=33
116070 Par ch=14 c=7 v=34
116096 Par ch=14 c=7 v=35
116121 Par ch=14 c=7 v=36
116147 Par ch=14 c=7 v=37
116172 Par ch=14 c=7 v=38
116198 Par ch=14 c=7 v=39
116224 Par ch=14 c=7 v=40
116249 Par ch=14 c=7 v=41
116275 Par ch=14 c=7 v=42
116300 Par ch=14 c=7 v=43
116326 Par ch=14 c=7 v=44
116352 On ch=14 n=b4 v=0
116352 On ch=14 n=e5 v=0
116352 On ch=14 n=g#5 v=0
116352 Par ch=14 c=7 v=45
116352 On ch=14 n=c5 v=110
116352 On ch=14 n=f#5 v=110
116352 On ch=14 n=g#5 v=110
116377 Par ch=14 c=7 v=44
116403 Par ch=14 c=7 v=43
116428 Par ch=14 c=7 v=42
116454 Par ch=14 c=7 v=41
116480 Par ch=14 c=7 v=40
116505 Par ch=14 c=7 v=39
116531 Par ch=14 c=7 v=38
116556 Par ch=14 c=7 v=37
116582 Par ch=14 c=7 v=36
116608 Par ch=14 c=7 v=35
116633 Par ch=14 c=7 v=34
116659 Par ch=14 c=7 v=33
116684 Par ch=14 c=7 v=32
116710 Par ch=14 c=7 v=31
116736 On ch=14 n=c5 v=0
116736 On ch=14 n=f#5 v=0
116736 On ch=14 n=g#5 v=0
116736 Par ch=14 c=7 v=30
116736 On ch=14 n=c5 v=110
116736 On ch=14 n=e5 v=110
116736 On ch=14 n=g#5 v=110
117214 On ch=14 n=c5 v=0
117214 On ch=14 n=e5 v=0
117214 On ch=14 n=g#5 v=0
117888 Par ch=14 c=7 v=30
117888 On ch=14 n=c#5 v=110
117888 On ch=14 n=e5 v=110
117888 On ch=14 n=a5 v=110
117913 Par ch=14 c=7 v=31
117939 Par ch=14 c=7 v=32
117964 Par ch=14 c=7 v=33
117990 Par ch=14 c=7 v=34
118016 Par ch=14 c=7 v=35
118041 Par ch=14 c=7 v=36
118067 Par ch=14 c=7 v=37
118092 Par ch=14 c=7 v=38
118118 Par ch=14 c=7 v=39
118144 Par ch=14 c=7 v=40
118169 Par ch=14 c=7 v=41
118195 Par ch=14 c=7 v=42
118220 Par ch=14 c=7 v=43
118246 Par ch=14 c=7 v=44
118272 On ch=14 n=c#5 v=0
118272 On ch=14 n=e5 v=0
118272 On ch=14 n=a5 v=0
118272 Par ch=14 c=7 v=45
118272 On ch=14 n=d5 v=110
118272 On ch=14 n=g#5 v=110
118272 On ch=14 n=f#5 v=110
118297 Par ch=14 c=7 v=44
118323 Par ch=14 c=7 v=43
118348 Par ch=14 c=7 v=42
118374 Par ch=14 c=7 v=41
118400 Par ch=14 c=7 v=40
118425 Par ch=14 c=7 v=39
118451 Par ch=14 c=7 v=38
118476 Par ch=14 c=7 v=37
118502 Par ch=14 c=7 v=36
118528 Par ch=14 c=7 v=35
118553 Par ch=14 c=7 v=34
118560 On ch=14 n=f#5 v=0
118560 On ch=14 n=e5 v=110
118579 Par ch=14 c=7 v=33
118604 Par ch=14 c=7 v=32
118630 Par ch=14 c=7 v=31
118654 On ch=14 n=e5 v=0
118656 On ch=14 n=d5 v=0
118656 On ch=14 n=g#5 v=0
118656 Par ch=14 c=7 v=30
118656 Par ch=14 c=7 v=30
118656 On ch=14 n=c#5 v=110
118656 On ch=14 n=e5 v=110
118656 On ch=14 n=a5 v=110
118681 Par ch=14 c=7 v=31
118707 Par ch=14 c=7 v=32
118732 Par ch=14 c=7 v=33
118758 Par ch=14 c=7 v=34
118784 Par ch=14 c=7 v=35
118809 Par ch=14 c=7 v=36
118835 Par ch=14 c=7 v=37
118860 Par ch=14 c=7 v=38
118886 Par ch=14 c=7 v=39
118912 Par ch=14 c=7 v=40
118937 Par ch=14 c=7 v=41
118963 Par ch=14 c=7 v=42
118988 Par ch=14 c=7 v=43
119014 Par ch=14 c=7 v=44
119040 On ch=14 n=c#5 v=0
119040 On ch=14 n=e5 v=0
119040 On ch=14 n=a5 v=0
119040 Par ch=14 c=7 v=45
119040 On ch=14 n=a4 v=110
119040 On ch=14 n=c#5 v=110
119040 On ch=14 n=g5 v=110
119065 Par ch=14 c=7 v=44
119091 Par ch=14 c=7 v=43
119116 Par ch=14 c=7 v=42
119142 Par ch=14 c=7 v=41
119168 Par ch=14 c=7 v=40
119193 Par ch=14 c=7 v=39
119219 Par ch=14 c=7 v=38
119244 Par ch=14 c=7 v=37
119270 Par ch=14 c=7 v=36
119296 Par ch=14 c=7 v=35
119321 Par ch=14 c=7 v=34
119347 Par ch=14 c=7 v=33
119372 Par ch=14 c=7 v=32
119398 Par ch=14 c=7 v=31
119424 On ch=14 n=a4 v=0
119424 On ch=14 n=c#5 v=0
119424 On ch=14 n=g5 v=0
119424 Par ch=14 c=7 v=30
119424 On ch=14 n=g#4 v=110
119424 On ch=14 n=e5 v=110
119424 On ch=14 n=g#5 v=110
119902 On ch=14 n=g#4 v=0
119902 On ch=14 n=e5 v=0
119902 On ch=14 n=g#5 v=0
120576 Par ch=14 c=7 v=30
120576 On ch=14 n=e5 v=110
120576 On ch=14 n=g#5 v=110
120576 On ch=14 n=b4 v=110
120601 Par ch=14 c=7 v=31
120627 Par ch=14 c=7 v=32
120652 Par ch=14 c=7 v=33
120678 Par ch=14 c=7 v=34
120704 Par ch=14 c=7 v=35
120729 Par ch=14 c=7 v=36
120755 Par ch=14 c=7 v=37
120780 Par ch=14 c=7 v=38
120806 Par ch=14 c=7 v=39
120832 Par ch=14 c=7 v=40
120857 Par ch=14 c=7 v=41
120864 On ch=14 n=b4 v=0
120864 On ch=14 n=d#5 v=110
120883 Par ch=14 c=7 v=42
120908 Par ch=14 c=7 v=43
120934 Par ch=14 c=7 v=44
120958 On ch=14 n=d#5 v=0
120960 On ch=14 n=e5 v=0
120960 On ch=14 n=g#5 v=0
120960 Par ch=14 c=7 v=45
120960 On ch=14 n=d#5 v=110
120960 On ch=14 n=a5 v=110
120960 On ch=14 n=c#5 v=110
120985 Par ch=14 c=7 v=44
121011 Par ch=14 c=7 v=43
121036 Par ch=14 c=7 v=42
121062 Par ch=14 c=7 v=41
121088 Par ch=14 c=7 v=40
121113 Par ch=14 c=7 v=39
121139 Par ch=14 c=7 v=38
121164 Par ch=14 c=7 v=37
121190 Par ch=14 c=7 v=36
121216 Par ch=14 c=7 v=35
121241 Par ch=14 c=7 v=34
121248 On ch=14 n=c#5 v=0
121248 On ch=14 n=b4 v=110
121267 Par ch=14 c=7 v=33
121292 Par ch=14 c=7 v=32
121318 Par ch=14 c=7 v=31
121342 On ch=14 n=b4 v=0
121344 On ch=14 n=d#5 v=0
121344 On ch=14 n=a5 v=0
121344 Par ch=14 c=7 v=30
121344 Par ch=14 c=7 v=30
121344 On ch=14 n=e5 v=110
121344 On ch=14 n=g#5 v=110
121344 On ch=14 n=b4 v=110
121395 Par ch=14 c=7 v=31
121446 Par ch=14 c=7 v=32
121497 Par ch=14 c=7 v=33
121548 Par ch=14 c=7 v=34
121600 Par ch=14 c=7 v=35
121651 Par ch=14 c=7 v=36
121680 On ch=14 n=b4 v=0
121702 Par ch=14 c=7 v=37
121728 On ch=14 n=e5 v=0
121728 On ch=14 n=g#5 v=0
121728 On ch=14 n=g#5 v=110
121728 On ch=14 n=b5 v=110
121728 On ch=14 n=f#5 v=110
121753 Par ch=14 c=7 v=38
121804 Par ch=14 c=7 v=39
121856 Par ch=14 c=7 v=40
121907 Par ch=14 c=7 v=41
121958 Par ch=14 c=7 v=42
122009 Par ch=14 c=7 v=43
122060 Par ch=14 c=7 v=44
122112 On ch=14 n=g#5 v=0
122112 On ch=14 n=b5 v=0
122112 Par ch=14 c=7 v=45
122112 On ch=14 n=b5 v=110
122112 On ch=14 n=c#6 v=110
122188 Par ch=14 c=7 v=44
122265 Par ch=14 c=7 v=43
122342 Par ch=14 c=7 v=42
122368 On ch=14 n=f#5 v=0
122400 On ch=14 n=f5 v=110
122419 Par ch=14 c=7 v=41
122494 On ch=14 n=f5 v=0
122496 On ch=14 n=b5 v=0
122496 On ch=14 n=c#6 v=0
122496 Par ch=14 c=7 v=40
122496 On ch=14 n=a5 v=110
122496 On ch=14 n=c#6 v=110
122496 On ch=14 n=f#5 v=110
122572 Par ch=14 c=7 v=39
122649 Par ch=14 c=7 v=38
122726 Par ch=14 c=7 v=37
122803 Par ch=14 c=7 v=36
122832 On ch=14 n=f#5 v=0
122880 On ch=14 n=a5 v=0
122880 On ch=14 n=c#6 v=0
122880 Par ch=14 c=7 v=35
122880 On ch=14 n=a5 v=110
122880 On ch=14 n=c6 v=110
122880 On ch=14 n=e5 v=110
122956 Par ch=14 c=7 v=34
123033 Par ch=14 c=7 v=33
123110 Par ch=14 c=7 v=32
123168 On ch=14 n=e5 v=0
123168 On ch=14 n=d#5 v=110
123187 Par ch=14 c=7 v=31
123262 On ch=14 n=d#5 v=0
123264 On ch=14 n=a5 v=0
123264 On ch=14 n=c6 v=0
123264 Par ch=14 c=7 v=60
123264 Par ch=14 c=7 v=30
123264 On ch=14 n=e5 v=110
123264 On ch=14 n=b5 v=110
123276 Par ch=14 c=7 v=61
123288 Par ch=14 c=7 v=62
123300 Par ch=14 c=7 v=63
123312 Par ch=14 c=7 v=64
123324 Par ch=14 c=7 v=65
123336 Par ch=14 c=7 v=66
123348 Par ch=14 c=7 v=67
123360 Par ch=14 c=7 v=68
123372 Par ch=14 c=7 v=69
123384 Par ch=14 c=7 v=70
123396 Par ch=14 c=7 v=71
123408 Par ch=14 c=7 v=72
123420 Par ch=14 c=7 v=73
123432 Par ch=14 c=7 v=74
123444 Par ch=14 c=7 v=75
123456 Par ch=14 c=7 v=76
123456 On ch=14 n=d5 v=110
123468 Par ch=14 c=7 v=77
123480 Par ch=14 c=7 v=78
123492 Par ch=14 c=7 v=79
123504 Par ch=14 c=7 v=80
123516 Par ch=14 c=7 v=81
123528 Par ch=14 c=7 v=82
123540 Par ch=14 c=7 v=83
123552 Par ch=14 c=7 v=84
123564 Par ch=14 c=7 v=85
123576 Par ch=14 c=7 v=86
123588 Par ch=14 c=7 v=87
123600 Par ch=14 c=7 v=88
123612 Par ch=14 c=7 v=89
123624 Par ch=14 c=7 v=90
123636 Par ch=14 c=7 v=91
123648 On ch=14 n=e5 v=0
123648 On ch=14 n=b5 v=0
123648 On ch=14 n=d5 v=0
123648 Par ch=14 c=7 v=92
123648 On ch=14 n=f5 v=110
123648 On ch=14 n=b5 v=110
123648 On ch=14 n=c#5 v=110
123664 Par ch=14 c=7 v=91
123680 Par ch=14 c=7 v=90
123697 Par ch=14 c=7 v=89
123713 Par ch=14 c=7 v=88
123729 Par ch=14 c=7 v=87
123746 Par ch=14 c=7 v=86
123762 Par ch=14 c=7 v=85
123778 Par ch=14 c=7 v=84
123795 Par ch=14 c=7 v=83
123811 Par ch=14 c=7 v=82
123827 Par ch=14 c=7 v=81
123844 Par ch=14 c=7 v=80
123860 Par ch=14 c=7 v=79
123876 Par ch=14 c=7 v=78
123893 Par ch=14 c=7 v=77
123909 Par ch=14 c=7 v=76
123925 Par ch=14 c=7 v=75
123942 Par ch=14 c=7 v=74
123958 Par ch=14 c=7 v=73
123974 Par ch=14 c=7 v=72
123991 Par ch=14 c=7 v=71
124007 Par ch=14 c=7 v=70
124023 Par ch=14 c=7 v=69
124032 On ch=14 n=f5 v=0
124032 On ch=14 n=b5 v=0
124032 On ch=14 n=c#5 v=0
124032 On ch=14 n=a#5 v=110
124032 On ch=14 n=e5 v=110
124032 On ch=14 n=f#5 v=110
124040 Par ch=14 c=7 v=68
124056 Par ch=14 c=7 v=67
124072 Par ch=14 c=7 v=66
124089 Par ch=14 c=7 v=65
124105 Par ch=14 c=7 v=64
124121 Par ch=14 c=7 v=63
124138 Par ch=14 c=7 v=62
124154 Par ch=14 c=7 v=61
124170 Par ch=14 c=7 v=60
124187 Par ch=14 c=7 v=59
124203 Par ch=14 c=7 v=58
124219 Par ch=14 c=7 v=57
124224 On ch=14 n=a#5 v=0
124224 On ch=14 n=a5 v=110
124236 Par ch=14 c=7 v=56
124252 Par ch=14 c=7 v=55
124268 Par ch=14 c=7 v=54
124285 Par ch=14 c=7 v=53
124301 Par ch=14 c=7 v=52
124317 Par ch=14 c=7 v=51
124334 Par ch=14 c=7 v=50
124350 Par ch=14 c=7 v=49
124366 Par ch=14 c=7 v=48
124368 On ch=14 n=e5 v=0
124368 On ch=14 n=f#5 v=0
124383 Par ch=14 c=7 v=47
124399 Par ch=14 c=7 v=46
124416 On ch=14 n=a5 v=0
124416 Par ch=14 c=7 v=45
124416 On ch=14 n=a5 v=110
124416 On ch=14 n=d#5 v=110
124416 On ch=14 n=b5 v=110
124441 Par ch=14 c=7 v=46
124467 Par ch=14 c=7 v=47
124492 Par ch=14 c=7 v=48
124518 Par ch=14 c=7 v=49
124544 Par ch=14 c=7 v=50
124569 Par ch=14 c=7 v=51
124595 Par ch=14 c=7 v=52
124620 Par ch=14 c=7 v=53
124646 Par ch=14 c=7 v=54
124672 Par ch=14 c=7 v=55
124697 Par ch=14 c=7 v=56
124702 On ch=14 n=a5 v=0
124702 On ch=14 n=d#5 v=0
124702 On ch=14 n=b5 v=0
124723 Par ch=14 c=7 v=57
124748 Par ch=14 c=7 v=58
124774 Par ch=14 c=7 v=59
124800 Par ch=14 c=7 v=60
137088 Par ch=14 c=121 v=127
137088 Meta TrkEnd
TrkEnd
MTrk
0 Meta TrkName "Violoncelli"
0 Meta 0x21 00
0 Par ch=15 c=121 v=127
0 PrCh ch=15 p=48
0 Par ch=15 c=7 v=30
0 Par ch=15 c=10 v=64
0 Par ch=15 c=91 v=127
0 Par ch=15 c=7 v=30
0 On ch=15 n=c4 v=110
384 On ch=15 n=c4 v=0
384 On ch=15 n=a#3 v=110
672 On ch=15 n=a#3 v=0
672 On ch=15 n=g#3 v=110
768 On ch=15 n=g#3 v=0
768 Par ch=15 c=7 v=45
768 On ch=15 n=g3 v=110
786 Par ch=15 c=7 v=46
804 Par ch=15 c=7 v=47
822 Par ch=15 c=7 v=48
841 Par ch=15 c=7 v=49
859 Par ch=15 c=7 v=50
877 Par ch=15 c=7 v=51
896 Par ch=15 c=7 v=52
914 Par ch=15 c=7 v=53
932 Par ch=15 c=7 v=54
950 Par ch=15 c=7 v=55
969 Par ch=15 c=7 v=56
987 Par ch=15 c=7 v=57
1005 Par ch=15 c=7 v=58
1024 Par ch=15 c=7 v=59
1042 Par ch=15 c=7 v=60
1060 Par ch=15 c=7 v=61
1078 Par ch=15 c=7 v=62
1097 Par ch=15 c=7 v=63
1115 Par ch=15 c=7 v=64
1133 Par ch=15 c=7 v=65
1152 On ch=15 n=g3 v=0
1152 Par ch=15 c=7 v=66
1152 On ch=15 n=f3 v=110
1170 Par ch=15 c=7 v=67
1188 Par ch=15 c=7 v=68
1206 Par ch=15 c=7 v=69
1225 Par ch=15 c=7 v=70
1243 Par ch=15 c=7 v=71
1261 Par ch=15 c=7 v=72
1280 Par ch=15 c=7 v=73
1298 Par ch=15 c=7 v=74
1316 Par ch=15 c=7 v=75
1334 Par ch=15 c=7 v=76
1353 Par ch=15 c=7 v=77
1371 Par ch=15 c=7 v=78
1389 Par ch=15 c=7 v=79
1408 Par ch=15 c=7 v=80
1426 Par ch=15 c=7 v=81
1444 Par ch=15 c=7 v=82
1462 Par ch=15 c=7 v=83
1481 Par ch=15 c=7 v=84
1499 Par ch=15 c=7 v=85
1517 Par ch=15 c=7 v=86
1536 On ch=15 n=f3 v=0
1536 Par ch=15 c=7 v=87
1536 On ch=15 n=d#3 v=110
1554 Par ch=15 c=7 v=88
1572 Par ch=15 c=7 v=89
1590 Par ch=15 c=7 v=90
1609 Par ch=15 c=7 v=91
1627 Par ch=15 c=7 v=92
1645 Par ch=15 c=7 v=93
1664 Par ch=15 c=7 v=94
1682 Par ch=15 c=7 v=95
1700 Par ch=15 c=7 v=96
1718 Par ch=15 c=7 v=97
1728 On ch=15 n=d#3 v=0
1728 On ch=15 n=d#3 v=110
1737 Par ch=15 c=7 v=98
1755 Par ch=15 c=7 v=99
1773 Par ch=15 c=7 v=100
1792 Par ch=15 c=7 v=101
1810 Par ch=15 c=7 v=102
1828 Par ch=15 c=7 v=103
1846 Par ch=15 c=7 v=104
1865 Par ch=15 c=7 v=105
1883 Par ch=15 c=7 v=106
1901 Par ch=15 c=7 v=107
1920 On ch=15 n=d#3 v=0
1920 Par ch=15 c=7 v=108
1920 On ch=15 n=g#3 v=110
1928 Par ch=15 c=7 v=107
1936 Par ch=15 c=7 v=106
1944 Par ch=15 c=7 v=105
1952 Par ch=15 c=7 v=104
1960 Par ch=15 c=7 v=103
1968 Par ch=15 c=7 v=102
1976 Par ch=15 c=7 v=101
1984 Par ch=15 c=7 v=100
1992 Par ch=15 c=7 v=99
2000 Par ch=15 c=7 v=98
2008 Par ch=15 c=7 v=97
2016 Par ch=15 c=7 v=96
2024 Par ch=15 c=7 v=95
2032 Par ch=15 c=7 v=94
2040 Par ch=15 c=7 v=93
2048 Par ch=15 c=7 v=92
2056 Par ch=15 c=7 v=91
2064 Par ch=15 c=7 v=90
2072 Par ch=15 c=7 v=89
2080 Par ch=15 c=7 v=88
2088 Par ch=15 c=7 v=87
2096 Par ch=15 c=7 v=86
2104 Par ch=15 c=7 v=85
2112 Par ch=15 c=7 v=84
2120 Par ch=15 c=7 v=83
2128 Par ch=15 c=7 v=82
2136 Par ch=15 c=7 v=81
2144 Par ch=15 c=7 v=80
2152 Par ch=15 c=7 v=79
2160 Par ch=15 c=7 v=78
2168 Par ch=15 c=7 v=77
2176 Par ch=15 c=7 v=76
2184 Par ch=15 c=7 v=75
2192 Par ch=15 c=7 v=74
2200 Par ch=15 c=7 v=73
2208 Par ch=15 c=7 v=72
2216 Par ch=15 c=7 v=71
2224 Par ch=15 c=7 v=70
2232 Par ch=15 c=7 v=69
2240 Par ch=15 c=7 v=68
2248 Par ch=15 c=7 v=67
2256 Par ch=15 c=7 v=66
2264 Par ch=15 c=7 v=65
2272 Par ch=15 c=7 v=64
2280 Par ch=15 c=7 v=63
2288 Par ch=15 c=7 v=62
2296 Par ch=15 c=7 v=61
2304 Par ch=15 c=7 v=60
2688 On ch=15 n=g#3 v=0
2688 Par ch=15 c=7 v=60
2688 On ch=15 n=c#4 v=110
2713 Par ch=15 c=7 v=59
2739 Par ch=15 c=7 v=58
2764 Par ch=15 c=7 v=57
2790 Par ch=15 c=7 v=56
2816 Par ch=15 c=7 v=55
2841 Par ch=15 c=7 v=54
2867 Par ch=15 c=7 v=53
2880 On ch=15 n=c#4 v=0
2880 On ch=15 n=c4 v=110
2892 Par ch=15 c=7 v=52
2918 Par ch=15 c=7 v=51
2944 Par ch=15 c=7 v=50
2969 Par ch=15 c=7 v=49
2995 Par ch=15 c=7 v=48
3020 Par ch=15 c=7 v=47
3046 Par ch=15 c=7 v=46
3072 On ch=15 n=c4 v=0
3072 Par ch=15 c=7 v=45
3072 On ch=15 n=e3 v=110
3072 On ch=15 n=b3 v=110
3091 Par ch=15 c=7 v=44
3110 Par ch=15 c=7 v=43
3129 Par ch=15 c=7 v=42
3148 Par ch=15 c=7 v=41
3168 Par ch=15 c=7 v=40
3187 Par ch=15 c=7 v=39
3206 Par ch=15 c=7 v=38
3225 Par ch=15 c=7 v=37
3244 Par ch=15 c=7 v=36
3264 Par ch=15 c=7 v=35
3283 Par ch=15 c=7 v=34
3302 Par ch=15 c=7 v=33
3321 Par ch=15 c=7 v=32
3340 Par ch=15 c=7 v=31
3360 Par ch=15 c=7 v=30
3379 Par ch=15 c=7 v=29
3398 Par ch=15 c=7 v=28
3417 Par ch=15 c=7 v=27
3436 Par ch=15 c=7 v=26
3456 Par ch=15 c=7 v=25
3475 Par ch=15 c=7 v=24
3494 Par ch=15 c=7 v=23
3513 Par ch=15 c=7 v=22
3532 Par ch=15 c=7 v=21
3552 Par ch=15 c=7 v=20
3571 Par ch=15 c=7 v=19
3590 Par ch=15 c=7 v=18
3609 Par ch=15 c=7 v=17
3616 On ch=15 n=e3 v=0
3616 On ch=15 n=b3 v=0
3628 Par ch=15 c=7 v=16
3648 Par ch=15 c=7 v=15
7680 Par ch=15 c=7 v=45
8448 PrCh ch=15 p=45
9216 On ch=15 n=e4 v=110
9376 On ch=15 n=e4 v=0
10368 On ch=15 n=e4 v=110
10528 On ch=15 n=e4 v=0
11136 On ch=15 n=e4 v=110
11296 On ch=15 n=e4 v=0
13056 On ch=15 n=e4 v=110
13216 On ch=15 n=e4 v=0
13824 On ch=15 n=e4 v=110
13984 On ch=15 n=e4 v=0
15744 On ch=15 n=e4 v=110
15904 On ch=15 n=e4 v=0
16128 On ch=15 n=d4 v=110
16288 On ch=15 n=d4 v=0
16512 On ch=15 n=c#4 v=110
16672 On ch=15 n=c#4 v=0
16896 On ch=15 n=f#4 v=110
17056 On ch=15 n=f#4 v=0
17280 On ch=15 n=a3 v=110
17440 On ch=15 n=a3 v=0
17664 On ch=15 n=g#3 v=110
17824 On ch=15 n=g#3 v=0
18048 On ch=15 n=c#4 v=110
18208 On ch=15 n=c#4 v=0
18432 On ch=15 n=f#3 v=110
18592 On ch=15 n=f#3 v=0
18624 On ch=15 n=c4 v=110
18784 On ch=15 n=c4 v=0
18816 On ch=15 n=b3 v=110
18976 On ch=15 n=b3 v=0
19008 PrCh ch=15 p=50
19200 Par ch=15 c=7 v=30
19200 On ch=15 n=e3 v=110
19200 On ch=15 n=b3 v=110
19200 On ch=15 n=g#4 v=110
19968 On ch=15 n=e3 v=0
19968 On ch=15 n=b3 v=0
19968 On ch=15 n=g#4 v=0
19968 On ch=15 n=c#4 v=110
19968 On ch=15 n=a4 v=110
19968 On ch=15 n=e3 v=110
20544 On ch=15 n=c#4 v=0
20544 On ch=15 n=c4 v=110
20736 On ch=15 n=a4 v=0
20736 On ch=15 n=e3 v=0
20736 On ch=15 n=c4 v=0
20736 On ch=15 n=e3 v=110
20736 On ch=15 n=g#4 v=110
20736 On ch=15 n=b3 v=110
21312 On ch=15 n=b3 v=0
21312 On ch=15 n=d4 v=110
21504 On ch=15 n=e3 v=0
21504 On ch=15 n=g#4 v=0
21504 On ch=15 n=d4 v=0
21504 On ch=15 n=e3 v=110
21504 On ch=15 n=f#4 v=110
21504 On ch=15 n=c#4 v=110
21982 On ch=15 n=c#4 v=0
21984 On ch=15 n=c4 v=110
22078 On ch=15 n=c4 v=0
22080 On ch=15 n=b3 v=110
22272 On ch=15 n=e3 v=0
22272 On ch=15 n=f#4 v=0
22272 On ch=15 n=b3 v=0
22272 On ch=15 n=e4 v=110
22272 On ch=15 n=e3 v=110
22272 On ch=15 n=b3 v=110
22656 On ch=15 n=e4 v=0
22656 Par ch=15 c=7 v=30
22656 On ch=15 n=g#4 v=110
22681 Par ch=15 c=7 v=31
22707 Par ch=15 c=7 v=32
22732 Par ch=15 c=7 v=33
22758 Par ch=15 c=7 v=34
22784 Par ch=15 c=7 v=35
22809 Par ch=15 c=7 v=36
22835 Par ch=15 c=7 v=37
22860 Par ch=15 c=7 v=38
22886 Par ch=15 c=7 v=39
22912 Par ch=15 c=7 v=40
22937 Par ch=15 c=7 v=41
22963 Par ch=15 c=7 v=42
22988 Par ch=15 c=7 v=43
22992 On ch=15 n=e3 v=0
22992 On ch=15 n=b3 v=0
22992 On ch=15 n=g#4 v=0
23014 Par ch=15 c=7 v=44
23040 Par ch=15 c=7 v=45
23040 On ch=15 n=f#4 v=110
23040 On ch=15 n=e3 v=110
23040 On ch=15 n=b3 v=110
23065 Par ch=15 c=7 v=44
23091 Par ch=15 c=7 v=43
23116 Par ch=15 c=7 v=42
23142 Par ch=15 c=7 v=41
23168 Par ch=15 c=7 v=40
23193 Par ch=15 c=7 v=39
23219 Par ch=15 c=7 v=38
23244 Par ch=15 c=7 v=37
23270 Par ch=15 c=7 v=36
23296 Par ch=15 c=7 v=35
23321 Par ch=15 c=7 v=34
23347 Par ch=15 c=7 v=33
23372 Par ch=15 c=7 v=32
23376 On ch=15 n=f#4 v=0
23376 On ch=15 n=e3 v=0
23376 On ch=15 n=b3 v=0
23398 Par ch=15 c=7 v=31
23424 Par ch=15 c=7 v=30
23424 Par ch=15 c=7 v=30
23424 On ch=15 n=e3 v=110
23424 On ch=15 n=b3 v=110
23424 On ch=15 n=e4 v=110
23449 Par ch=15 c=7 v=31
23475 Par ch=15 c=7 v=32
23500 Par ch=15 c=7 v=33
23526 Par ch=15 c=7 v=34
23552 Par ch=15 c=7 v=35
23577 Par ch=15 c=7 v=36
23603 Par ch=15 c=7 v=37
23628 Par ch=15 c=7 v=38
23654 Par ch=15 c=7 v=39
23680 Par ch=15 c=7 v=40
23705 Par ch=15 c=7 v=41
23731 Par ch=15 c=7 v=42
23756 Par ch=15 c=7 v=43
23760 On ch=15 n=e3 v=0
23760 On ch=15 n=b3 v=0
23760 On ch=15 n=e4 v=0
23782 Par ch=15 c=7 v=44
23808 Par ch=15 c=7 v=45
23808 On ch=15 n=e3 v=110
23808 On ch=15 n=c4 v=110
23808 On ch=15 n=f#4 v=110
23833 Par ch=15 c=7 v=44
23859 Par ch=15 c=7 v=43
23884 Par ch=15 c=7 v=42
23910 Par ch=15 c=7 v=41
23936 Par ch=15 c=7 v=40
23961 Par ch=15 c=7 v=39
23987 Par ch=15 c=7 v=38
24012 Par ch=15 c=7 v=37
24038 Par ch=15 c=7 v=36
24064 Par ch=15 c=7 v=35
24089 Par ch=15 c=7 v=34
24115 Par ch=15 c=7 v=33
24140 Par ch=15 c=7 v=32
24144 On ch=15 n=e3 v=0
24144 On ch=15 n=c4 v=0
24144 On ch=15 n=f#4 v=0
24166 Par ch=15 c=7 v=31
24192 Par ch=15 c=7 v=30
24192 On ch=15 n=e3 v=110
24192 On ch=15 n=b3 v=110
24192 On ch=15 n=e4 v=110
24670 On ch=15 n=e3 v=0
24670 On ch=15 n=b3 v=0
24670 On ch=15 n=e4 v=0
25344 Par ch=15 c=7 v=30
25344 On ch=15 n=e3 v=110
25344 On ch=15 n=c#4 v=110
25344 On ch=15 n=e4 v=110
25369 Par ch=15 c=7 v=31
25395 Par ch=15 c=7 v=32
25420 Par ch=15 c=7 v=33
25446 Par ch=15 c=7 v=34
25472 Par ch=15 c=7 v=35
25497 Par ch=15 c=7 v=36
25523 Par ch=15 c=7 v=37
25548 Par ch=15 c=7 v=38
25574 Par ch=15 c=7 v=39
25600 Par ch=15 c=7 v=40
25625 Par ch=15 c=7 v=41
25651 Par ch=15 c=7 v=42
25676 Par ch=15 c=7 v=43
25702 Par ch=15 c=7 v=44
25728 On ch=15 n=e3 v=0
25728 On ch=15 n=c#4 v=0
25728 On ch=15 n=e4 v=0
25728 Par ch=15 c=7 v=45
25728 On ch=15 n=e3 v=110
25728 On ch=15 n=d4 v=110
25728 On ch=15 n=g#4 v=110
25753 Par ch=15 c=7 v=44
25779 Par ch=15 c=7 v=43
25804 Par ch=15 c=7 v=42
25830 Par ch=15 c=7 v=41
25856 Par ch=15 c=7 v=40
25881 Par ch=15 c=7 v=39
25907 Par ch=15 c=7 v=38
25932 Par ch=15 c=7 v=37
25958 Par ch=15 c=7 v=36
25984 Par ch=15 c=7 v=35
26009 Par ch=15 c=7 v=34
26035 Par ch=15 c=7 v=33
26060 Par ch=15 c=7 v=32
26086 Par ch=15 c=7 v=31
26112 On ch=15 n=e3 v=0
26112 On ch=15 n=d4 v=0
26112 On ch=15 n=g#4 v=0
26112 Par ch=15 c=7 v=30
26112 Par ch=15 c=7 v=30
26112 On ch=15 n=e3 v=110
26112 On ch=15 n=c#4 v=110
26112 On ch=15 n=e4 v=110
26137 Par ch=15 c=7 v=31
26163 Par ch=15 c=7 v=32
26188 Par ch=15 c=7 v=33
26214 Par ch=15 c=7 v=34
26240 Par ch=15 c=7 v=35
26265 Par ch=15 c=7 v=36
26291 Par ch=15 c=7 v=37
26316 Par ch=15 c=7 v=38
26342 Par ch=15 c=7 v=39
26368 Par ch=15 c=7 v=40
26393 Par ch=15 c=7 v=41
26419 Par ch=15 c=7 v=42
26444 Par ch=15 c=7 v=43
26470 Par ch=15 c=7 v=44
26496 On ch=15 n=e3 v=0
26496 On ch=15 n=c#4 v=0
26496 On ch=15 n=e4 v=0
26496 Par ch=15 c=7 v=45
26496 On ch=15 n=e3 v=110
26496 On ch=15 n=c#4 v=110
26496 On ch=15 n=a4 v=110
26521 Par ch=15 c=7 v=44
26547 Par ch=15 c=7 v=43
26572 Par ch=15 c=7 v=42
26598 Par ch=15 c=7 v=41
26624 Par ch=15 c=7 v=40
26649 Par ch=15 c=7 v=39
26675 Par ch=15 c=7 v=38
26700 Par ch=15 c=7 v=37
26726 Par ch=15 c=7 v=36
26752 Par ch=15 c=7 v=35
26777 Par ch=15 c=7 v=34
26803 Par ch=15 c=7 v=33
26828 Par ch=15 c=7 v=32
26854 Par ch=15 c=7 v=31
26880 On ch=15 n=e3 v=0
26880 On ch=15 n=c#4 v=0
26880 On ch=15 n=a4 v=0
26880 Par ch=15 c=7 v=30
26880 On ch=15 n=e3 v=110
26880 On ch=15 n=c#4 v=110
26880 On ch=15 n=g#4 v=110
27358 On ch=15 n=e3 v=0
27358 On ch=15 n=c#4 v=0
27358 On ch=15 n=g#4 v=0
27648 On ch=15 n=e3 v=110
27648 On ch=15 n=b3 v=110
27648 On ch=15 n=g#4 v=110
28032 Par ch=15 c=7 v=30
28057 Par ch=15 c=7 v=31
28083 Par ch=15 c=7 v=32
28108 Par ch=15 c=7 v=33
28134 Par ch=15 c=7 v=34
28160 Par ch=15 c=7 v=35
28185 Par ch=15 c=7 v=36
28211 Par ch=15 c=7 v=37
28236 Par ch=15 c=7 v=38
28262 Par ch=15 c=7 v=39
28288 Par ch=15 c=7 v=40
28313 Par ch=15 c=7 v=41
28339 Par ch=15 c=7 v=42
28364 Par ch=15 c=7 v=43
28390 Par ch=15 c=7 v=44
28416 On ch=15 n=e3 v=0
28416 On ch=15 n=b3 v=0
28416 On ch=15 n=g#4 v=0
28416 Par ch=15 c=7 v=45
28416 On ch=15 n=e3 v=110
28416 On ch=15 n=b3 v=110
28416 On ch=15 n=a4 v=110
28441 Par ch=15 c=7 v=44
28467 Par ch=15 c=7 v=43
28492 Par ch=15 c=7 v=42
28518 Par ch=15 c=7 v=41
28544 Par ch=15 c=7 v=40
28569 Par ch=15 c=7 v=39
28595 Par ch=15 c=7 v=38
28620 Par ch=15 c=7 v=37
28646 Par ch=15 c=7 v=36
28672 Par ch=15 c=7 v=35
28697 Par ch=15 c=7 v=34
28723 Par ch=15 c=7 v=33
28748 Par ch=15 c=7 v=32
28774 Par ch=15 c=7 v=31
28800 On ch=15 n=e3 v=0
28800 On ch=15 n=b3 v=0
28800 On ch=15 n=a4 v=0
28800 Par ch=15 c=7 v=30
28800 Par ch=15 c=7 v=30
28800 On ch=15 n=e3 v=110
28800 On ch=15 n=b3 v=110
28800 On ch=15 n=g#4 v=110
28812 Par ch=15 c=7 v=31
28825 Par ch=15 c=7 v=32
28838 Par ch=15 c=7 v=33
28851 Par ch=15 c=7 v=34
28864 Par ch=15 c=7 v=35
28876 Par ch=15 c=7 v=36
28889 Par ch=15 c=7 v=37
28902 Par ch=15 c=7 v=38
28915 Par ch=15 c=7 v=39
28928 Par ch=15 c=7 v=40
28940 Par ch=15 c=7 v=41
28953 Par ch=15 c=7 v=42
28966 Par ch=15 c=7 v=43
28979 Par ch=15 c=7 v=44
28992 Par ch=15 c=7 v=45
29004 Par ch=15 c=7 v=46
29017 Par ch=15 c=7 v=47
29030 Par ch=15 c=7 v=48
29043 Par ch=15 c=7 v=49
29056 Par ch=15 c=7 v=50
29068 Par ch=15 c=7 v=51
29081 Par ch=15 c=7 v=52
29094 Par ch=15 c=7 v=53
29107 Par ch=15 c=7 v=54
29120 Par ch=15 c=7 v=55
29132 Par ch=15 c=7 v=56
29145 Par ch=15 c=7 v=57
29158 Par ch=15 c=7 v=58
29171 Par ch=15 c=7 v=59
29184 On ch=15 n=e3 v=0
29184 On ch=15 n=b3 v=0
29184 On ch=15 n=g#4 v=0
29184 Par ch=15 c=7 v=60
29184 On ch=15 n=d4 v=110
29184 On ch=15 n=g#4 v=110
29184 On ch=15 n=b4 v=110
29568 On ch=15 n=d4 v=0
29568 On ch=15 n=g#4 v=0
29568 On ch=15 n=b4 v=0
29568 Par ch=15 c=7 v=60
29568 On ch=15 n=c#4 v=110
29568 On ch=15 n=g#4 v=110
29568 On ch=15 n=b4 v=110
29580 Par ch=15 c=7 v=59
29593 Par ch=15 c=7 v=58
29606 Par ch=15 c=7 v=57
29619 Par ch=15 c=7 v=56
29632 Par ch=15 c=7 v=55
29644 Par ch=15 c=7 v=54
29657 Par ch=15 c=7 v=53
29670 Par ch=15 c=7 v=52
29683 Par ch=15 c=7 v=51
29696 Par ch=15 c=7 v=50
29708 Par ch=15 c=7 v=49
29721 Par ch=15 c=7 v=48
29734 Par ch=15 c=7 v=47
29747 Par ch=15 c=7 v=46
29760 Par ch=15 c=7 v=45
29772 Par ch=15 c=7 v=44
29785 Par ch=15 c=7 v=43
29798 Par ch=15 c=7 v=42
29811 Par ch=15 c=7 v=41
29824 Par ch=15 c=7 v=40
29836 Par ch=15 c=7 v=39
29849 Par ch=15 c=7 v=38
29862 Par ch=15 c=7 v=37
29875 Par ch=15 c=7 v=36
29888 Par ch=15 c=7 v=35
29900 Par ch=15 c=7 v=34
29913 Par ch=15 c=7 v=33
29926 Par ch=15 c=7 v=32
29939 Par ch=15 c=7 v=31
29952 On ch=15 n=c#4 v=0
29952 On ch=15 n=g#4 v=0
29952 On ch=15 n=b4 v=0
29952 Par ch=15 c=7 v=30
29952 On ch=15 n=f#3 v=110
29952 On ch=15 n=f#4 v=110
29952 On ch=15 n=a4 v=110
30336 On ch=15 n=f#3 v=0
30336 On ch=15 n=f#4 v=0
30336 On ch=15 n=a4 v=0
30336 Par ch=15 c=7 v=30
30336 On ch=15 n=a3 v=110
30336 On ch=15 n=c5 v=110
30336 On ch=15 n=e4 v=110
30361 Par ch=15 c=7 v=31
30387 Par ch=15 c=7 v=32
30412 Par ch=15 c=7 v=33
30438 Par ch=15 c=7 v=34
30464 Par ch=15 c=7 v=35
30489 Par ch=15 c=7 v=36
30515 Par ch=15 c=7 v=37
30540 Par ch=15 c=7 v=38
30566 Par ch=15 c=7 v=39
30592 Par ch=15 c=7 v=40
30617 Par ch=15 c=7 v=41
30624 On ch=15 n=e4 v=0
30624 On ch=15 n=f#4 v=110
30643 Par ch=15 c=7 v=42
30668 Par ch=15 c=7 v=43
30694 Par ch=15 c=7 v=44
30718 On ch=15 n=f#4 v=0
30720 On ch=15 n=a3 v=0
30720 On ch=15 n=c5 v=0
30720 Par ch=15 c=7 v=45
30720 On ch=15 n=g#3 v=110
30720 On ch=15 n=e4 v=110
30720 On ch=15 n=b4 v=110
30745 Par ch=15 c=7 v=44
30771 Par ch=15 c=7 v=43
30796 Par ch=15 c=7 v=42
30822 Par ch=15 c=7 v=41
30848 Par ch=15 c=7 v=40
30873 Par ch=15 c=7 v=39
30899 Par ch=15 c=7 v=38
30924 Par ch=15 c=7 v=37
30950 Par ch=15 c=7 v=36
30976 Par ch=15 c=7 v=35
31001 Par ch=15 c=7 v=34
31027 Par ch=15 c=7 v=33
31052 Par ch=15 c=7 v=32
31078 Par ch=15 c=7 v=31
31104 On ch=15 n=g#3 v=0
31104 On ch=15 n=e4 v=0
31104 On ch=15 n=b4 v=0
31104 Par ch=15 c=7 v=30
31104 Par ch=15 c=7 v=30
31104 On ch=15 n=d4 v=110
31104 On ch=15 n=a#4 v=110
31104 On ch=15 n=f3 v=110
31129 Par ch=15 c=7 v=31
31155 Par ch=15 c=7 v=32
31180 Par ch=15 c=7 v=33
31206 Par ch=15 c=7 v=34
31232 Par ch=15 c=7 v=35
31257 Par ch=15 c=7 v=36
31283 Par ch=15 c=7 v=37
31296 On ch=15 n=d4 v=0
31296 On ch=15 n=a#4 v=0
31296 On ch=15 n=c#4 v=110
31296 On ch=15 n=g#4 v=110
31308 Par ch=15 c=7 v=38
31334 Par ch=15 c=7 v=39
31360 Par ch=15 c=7 v=40
31385 Par ch=15 c=7 v=41
31411 Par ch=15 c=7 v=42
31436 Par ch=15 c=7 v=43
31462 Par ch=15 c=7 v=44
31488 On ch=15 n=f3 v=0
31488 On ch=15 n=c#4 v=0
31488 On ch=15 n=g#4 v=0
31488 Par ch=15 c=7 v=45
31488 On ch=15 n=f#3 v=110
31488 On ch=15 n=d#4 v=110
31488 On ch=15 n=f#4 v=110
31513 Par ch=15 c=7 v=44
31539 Par ch=15 c=7 v=43
31564 Par ch=15 c=7 v=42
31590 Par ch=15 c=7 v=41
31616 Par ch=15 c=7 v=40
31641 Par ch=15 c=7 v=39
31667 Par ch=15 c=7 v=38
31692 Par ch=15 c=7 v=37
31718 Par ch=15 c=7 v=36
31744 Par ch=15 c=7 v=35
31769 Par ch=15 c=7 v=34
31795 Par ch=15 c=7 v=33
31820 Par ch=15 c=7 v=32
31846 Par ch=15 c=7 v=31
31872 On ch=15 n=f#3 v=0
31872 On ch=15 n=d#4 v=0
31872 On ch=15 n=f#4 v=0
31872 Par ch=15 c=7 v=30
31872 Par ch=15 c=7 v=30
31872 On ch=15 n=f#3 v=110
31872 On ch=15 n=c#4 v=110
31872 On ch=15 n=f#4 v=110
31897 Par ch=15 c=7 v=29
31923 Par ch=15 c=7 v=28
31948 Par ch=15 c=7 v=27
31974 Par ch=15 c=7 v=26
32000 Par ch=15 c=7 v=25
32025 Par ch=15 c=7 v=24
32051 Par ch=15 c=7 v=23
32076 Par ch=15 c=7 v=22
32102 Par ch=15 c=7 v=21
32128 Par ch=15 c=7 v=20
32153 Par ch=15 c=7 v=19
32179 Par ch=15 c=7 v=18
32204 Par ch=15 c=7 v=17
32230 Par ch=15 c=7 v=16
32256 On ch=15 n=f#3 v=0
32256 On ch=15 n=c#4 v=0
32256 On ch=15 n=f#4 v=0
32256 Par ch=15 c=7 v=15
32256 On ch=15 n=f#3 v=110
32256 On ch=15 n=b3 v=110
32256 On ch=15 n=f#4 v=110
32734 On ch=15 n=f#3 v=0
32734 On ch=15 n=b3 v=0
32734 On ch=15 n=f#4 v=0
37632 PrCh ch=15 p=45
37632 Par ch=15 c=7 v=75
38400 On ch=15 n=b3 v=110
38560 On ch=15 n=b3 v=0
43008 PrCh ch=15 p=48
43776 Par ch=15 c=7 v=45
44544 On ch=15 n=a3 v=110
44928 On ch=15 n=g4 v=110
45504 Par ch=15 c=7 v=45
45516 Par ch=15 c=7 v=46
45529 Par ch=15 c=7 v=47
45542 Par ch=15 c=7 v=48
45555 Par ch=15 c=7 v=49
45568 Par ch=15 c=7 v=50
45580 Par ch=15 c=7 v=51
45593 Par ch=15 c=7 v=52
45606 Par ch=15 c=7 v=53
45619 Par ch=15 c=7 v=54
45632 Par ch=15 c=7 v=55
45644 Par ch=15 c=7 v=56
45648 On ch=15 n=g4 v=0
45657 Par ch=15 c=7 v=57
45670 Par ch=15 c=7 v=58
45683 Par ch=15 c=7 v=59
45696 Par ch=15 c=7 v=60
45696 On ch=15 n=g#4 v=110
45708 Par ch=15 c=7 v=59
45721 Par ch=15 c=7 v=58
45734 Par ch=15 c=7 v=57
45747 Par ch=15 c=7 v=56
45760 Par ch=15 c=7 v=55
45772 Par ch=15 c=7 v=54
45785 Par ch=15 c=7 v=53
45790 On ch=15 n=a3 v=0
45798 Par ch=15 c=7 v=52
45811 Par ch=15 c=7 v=51
45824 Par ch=15 c=7 v=50
45836 Par ch=15 c=7 v=49
45849 Par ch=15 c=7 v=48
45862 Par ch=15 c=7 v=47
45875 Par ch=15 c=7 v=46
45888 Par ch=15 c=7 v=45
45982 On ch=15 n=g#4 v=0
46080 On ch=15 n=a3 v=110
46464 On ch=15 n=g4 v=110
47040 Par ch=15 c=7 v=45
47052 Par ch=15 c=7 v=46
47065 Par ch=15 c=7 v=47
47078 Par ch=15 c=7 v=48
47091 Par ch=15 c=7 v=49
47104 Par ch=15 c=7 v=50
47116 Par ch=15 c=7 v=51
47129 Par ch=15 c=7 v=52
47142 Par ch=15 c=7 v=53
47155 Par ch=15 c=7 v=54
47168 Par ch=15 c=7 v=55
47180 Par ch=15 c=7 v=56
47184 On ch=15 n=g4 v=0
47193 Par ch=15 c=7 v=57
47206 Par ch=15 c=7 v=58
47219 Par ch=15 c=7 v=59
47232 Par ch=15 c=7 v=60
47232 On ch=15 n=a4 v=110
47244 Par ch=15 c=7 v=59
47257 Par ch=15 c=7 v=58
47270 Par ch=15 c=7 v=57
47283 Par ch=15 c=7 v=56
47296 Par ch=15 c=7 v=55
47308 Par ch=15 c=7 v=54
47321 Par ch=15 c=7 v=53
47326 On ch=15 n=a3 v=0
47334 Par ch=15 c=7 v=52
47347 Par ch=15 c=7 v=51
47360 Par ch=15 c=7 v=50
47372 Par ch=15 c=7 v=49
47385 Par ch=15 c=7 v=48
47398 Par ch=15 c=7 v=47
47411 Par ch=15 c=7 v=46
47424 Par ch=15 c=7 v=45
47518 On ch=15 n=a4 v=0
47616 On ch=15 n=a3 v=110
48000 On ch=15 n=f4 v=110
48576 Par ch=15 c=7 v=45
48588 Par ch=15 c=7 v=46
48601 Par ch=15 c=7 v=47
48614 Par ch=15 c=7 v=48
48627 Par ch=15 c=7 v=49
48640 Par ch=15 c=7 v=50
48652 Par ch=15 c=7 v=51
48665 Par ch=15 c=7 v=52
48678 Par ch=15 c=7 v=53
48691 Par ch=15 c=7 v=54
48704 Par ch=15 c=7 v=55
48716 Par ch=15 c=7 v=56
48720 On ch=15 n=f4 v=0
48729 Par ch=15 c=7 v=57
48742 Par ch=15 c=7 v=58
48755 Par ch=15 c=7 v=59
48768 Par ch=15 c=7 v=60
48768 On ch=15 n=d5 v=110
48780 Par ch=15 c=7 v=59
48793 Par ch=15 c=7 v=58
48806 Par ch=15 c=7 v=57
48819 Par ch=15 c=7 v=56
48832 Par ch=15 c=7 v=55
48844 Par ch=15 c=7 v=54
48857 Par ch=15 c=7 v=53
48862 On ch=15 n=a3 v=0
48870 Par ch=15 c=7 v=52
48883 Par ch=15 c=7 v=51
48896 Par ch=15 c=7 v=50
48908 Par ch=15 c=7 v=49
48921 Par ch=15 c=7 v=48
48934 Par ch=15 c=7 v=47
48947 Par ch=15 c=7 v=46
48960 Par ch=15 c=7 v=45
49054 On ch=15 n=d5 v=0
49152 On ch=15 n=a3 v=110
49536 On ch=15 n=f4 v=110
50112 Par ch=15 c=7 v=45
50124 Par ch=15 c=7 v=46
50137 Par ch=15 c=7 v=47
50150 Par ch=15 c=7 v=48
50163 Par ch=15 c=7 v=49
50176 Par ch=15 c=7 v=50
50188 Par ch=15 c=7 v=51
50201 Par ch=15 c=7 v=52
50214 Par ch=15 c=7 v=53
50227 Par ch=15 c=7 v=54
50240 Par ch=15 c=7 v=55
50252 Par ch=15 c=7 v=56
50256 On ch=15 n=f4 v=0
50265 Par ch=15 c=7 v=57
50278 Par ch=15 c=7 v=58
50291 Par ch=15 c=7 v=59
50304 Par ch=15 c=7 v=60
50304 On ch=15 n=d5 v=110
50316 Par ch=15 c=7 v=59
50329 Par ch=15 c=7 v=58
50342 Par ch=15 c=7 v=57
50355 Par ch=15 c=7 v=56
50368 Par ch=15 c=7 v=55
50380 Par ch=15 c=7 v=54
50393 Par ch=15 c=7 v=53
50398 On ch=15 n=a3 v=0
50406 Par ch=15 c=7 v=52
50419 Par ch=15 c=7 v=51
50432 Par ch=15 c=7 v=50
50444 Par ch=15 c=7 v=49
50457 Par ch=15 c=7 v=48
50470 Par ch=15 c=7 v=47
50483 Par ch=15 c=7 v=46
50496 Par ch=15 c=7 v=45
50590 On ch=15 n=d5 v=0
50688 Par ch=15 c=7 v=45
50688 On ch=15 n=a4 v=110
50713 Par ch=15 c=7 v=46
50739 Par ch=15 c=7 v=47
50764 Par ch=15 c=7 v=48
50790 Par ch=15 c=7 v=49
50816 Par ch=15 c=7 v=50
50841 Par ch=15 c=7 v=51
50867 Par ch=15 c=7 v=52
50892 Par ch=15 c=7 v=53
50918 Par ch=15 c=7 v=54
50944 Par ch=15 c=7 v=55
50969 Par ch=15 c=7 v=56
50995 Par ch=15 c=7 v=57
51020 Par ch=15 c=7 v=58
51046 Par ch=15 c=7 v=59
51072 On ch=15 n=a4 v=0
51072 Par ch=15 c=7 v=60
51072 On ch=15 n=a#4 v=110
51084 Par ch=15 c=7 v=59
51097 Par ch=15 c=7 v=58
51110 Par ch=15 c=7 v=57
51123 Par ch=15 c=7 v=56
51136 Par ch=15 c=7 v=55
51148 Par ch=15 c=7 v=54
51161 Par ch=15 c=7 v=53
51174 Par ch=15 c=7 v=52
51187 Par ch=15 c=7 v=51
51200 Par ch=15 c=7 v=50
51212 Par ch=15 c=7 v=49
51225 Par ch=15 c=7 v=48
51238 Par ch=15 c=7 v=47
51251 Par ch=15 c=7 v=46
51264 Par ch=15 c=7 v=45
51456 On ch=15 n=a#4 v=0
51456 Par ch=15 c=7 v=45
51456 On ch=15 n=a4 v=110
51481 Par ch=15 c=7 v=46
51507 Par ch=15 c=7 v=47
51532 Par ch=15 c=7 v=48
51558 Par ch=15 c=7 v=49
51584 Par ch=15 c=7 v=50
51609 Par ch=15 c=7 v=51
51635 Par ch=15 c=7 v=52
51660 Par ch=15 c=7 v=53
51686 Par ch=15 c=7 v=54
51712 Par ch=15 c=7 v=55
51737 Par ch=15 c=7 v=56
51763 Par ch=15 c=7 v=57
51788 Par ch=15 c=7 v=58
51814 Par ch=15 c=7 v=59
51840 On ch=15 n=a4 v=0
51840 Par ch=15 c=7 v=60
51840 On ch=15 n=a#4 v=110
51852 Par ch=15 c=7 v=59
51865 Par ch=15 c=7 v=58
51878 Par ch=15 c=7 v=57
51891 Par ch=15 c=7 v=56
51904 Par ch=15 c=7 v=55
51916 Par ch=15 c=7 v=54
51929 Par ch=15 c=7 v=53
51942 Par ch=15 c=7 v=52
51955 Par ch=15 c=7 v=51
51968 Par ch=15 c=7 v=50
51980 Par ch=15 c=7 v=49
51993 Par ch=15 c=7 v=48
52006 Par ch=15 c=7 v=47
52019 Par ch=15 c=7 v=46
52032 Par ch=15 c=7 v=45
52224 On ch=15 n=a#4 v=0
52224 Par ch=15 c=7 v=45
52224 On ch=15 n=c5 v=110
52249 Par ch=15 c=7 v=46
52275 Par ch=15 c=7 v=47
52300 Par ch=15 c=7 v=48
52326 Par ch=15 c=7 v=49
52352 Par ch=15 c=7 v=50
52377 Par ch=15 c=7 v=51
52403 Par ch=15 c=7 v=52
52428 Par ch=15 c=7 v=53
52454 Par ch=15 c=7 v=54
52480 Par ch=15 c=7 v=55
52505 Par ch=15 c=7 v=56
52531 Par ch=15 c=7 v=57
52556 Par ch=15 c=7 v=58
52582 Par ch=15 c=7 v=59
52608 On ch=15 n=c5 v=0
52608 Par ch=15 c=7 v=60
52608 On ch=15 n=c#5 v=110
52620 Par ch=15 c=7 v=59
52633 Par ch=15 c=7 v=58
52646 Par ch=15 c=7 v=57
52659 Par ch=15 c=7 v=56
52672 Par ch=15 c=7 v=55
52684 Par ch=15 c=7 v=54
52697 Par ch=15 c=7 v=53
52710 Par ch=15 c=7 v=52
52723 Par ch=15 c=7 v=51
52736 Par ch=15 c=7 v=50
52748 Par ch=15 c=7 v=49
52761 Par ch=15 c=7 v=48
52774 Par ch=15 c=7 v=47
52787 Par ch=15 c=7 v=46
52800 Par ch=15 c=7 v=45
52992 On ch=15 n=c#5 v=0
52992 Par ch=15 c=7 v=45
52992 On ch=15 n=c5 v=110
53016 Par ch=15 c=7 v=46
53041 Par ch=15 c=7 v=47
53065 Par ch=15 c=7 v=48
53090 Par ch=15 c=7 v=49
53114 Par ch=15 c=7 v=50
53139 Par ch=15 c=7 v=51
53163 Par ch=15 c=7 v=52
53188 Par ch=15 c=7 v=53
53212 Par ch=15 c=7 v=54
53237 Par ch=15 c=7 v=55
53261 Par ch=15 c=7 v=56
53286 Par ch=15 c=7 v=57
53310 Par ch=15 c=7 v=58
53335 Par ch=15 c=7 v=59
53359 Par ch=15 c=7 v=60
53376 On ch=15 n=c5 v=0
53376 On ch=15 n=d5 v=110
53384 Par ch=15 c=7 v=61
53408 Par ch=15 c=7 v=62
53433 Par ch=15 c=7 v=63
53457 Par ch=15 c=7 v=64
53482 Par ch=15 c=7 v=65
53506 Par ch=15 c=7 v=66
53531 Par ch=15 c=7 v=67
53555 Par ch=15 c=7 v=68
53580 Par ch=15 c=7 v=69
53604 Par ch=15 c=7 v=70
53629 Par ch=15 c=7 v=71
53653 Par ch=15 c=7 v=72
53678 Par ch=15 c=7 v=73
53702 Par ch=15 c=7 v=74
53727 Par ch=15 c=7 v=75
53751 Par ch=15 c=7 v=76
53760 On ch=15 n=d5 v=0
53760 On ch=15 n=e5 v=110
53776 Par ch=15 c=7 v=77
53800 Par ch=15 c=7 v=78
53825 Par ch=15 c=7 v=79
53849 Par ch=15 c=7 v=80
53874 Par ch=15 c=7 v=81
53898 Par ch=15 c=7 v=82
53923 Par ch=15 c=7 v=83
53947 Par ch=15 c=7 v=84
53952 On ch=15 n=e5 v=0
53952 On ch=15 n=c#5 v=110
53972 Par ch=15 c=7 v=85
53996 Par ch=15 c=7 v=86
54021 Par ch=15 c=7 v=87
54045 Par ch=15 c=7 v=88
54070 Par ch=15 c=7 v=89
54094 Par ch=15 c=7 v=90
54119 Par ch=15 c=7 v=91
54144 On ch=15 n=c#5 v=0
54144 Par ch=15 c=7 v=92
54144 On ch=15 n=c#6 v=110
54336 On ch=15 n=c#6 v=0
54336 On ch=15 n=b5 v=110
54528 On ch=15 n=b5 v=0
54528 Par ch=15 c=7 v=92
54528 On ch=15 n=a#5 v=110
54536 Par ch=15 c=7 v=91
54544 Par ch=15 c=7 v=90
54552 Par ch=15 c=7 v=89
54560 Par ch=15 c=7 v=88
54568 Par ch=15 c=7 v=87
54577 Par ch=15 c=7 v=86
54585 Par ch=15 c=7 v=85
54593 Par ch=15 c=7 v=84
54601 Par ch=15 c=7 v=83
54609 Par ch=15 c=7 v=82
54617 Par ch=15 c=7 v=81
54626 Par ch=15 c=7 v=80
54634 Par ch=15 c=7 v=79
54642 Par ch=15 c=7 v=78
54650 Par ch=15 c=7 v=77
54658 Par ch=15 c=7 v=76
54666 Par ch=15 c=7 v=75
54675 Par ch=15 c=7 v=74
54683 Par ch=15 c=7 v=73
54691 Par ch=15 c=7 v=72
54699 Par ch=15 c=7 v=71
54707 Par ch=15 c=7 v=70
54715 Par ch=15 c=7 v=69
54724 Par ch=15 c=7 v=68
54732 Par ch=15 c=7 v=67
54740 Par ch=15 c=7 v=66
54748 Par ch=15 c=7 v=65
54756 Par ch=15 c=7 v=64
54764 Par ch=15 c=7 v=63
54773 Par ch=15 c=7 v=62
54781 Par ch=15 c=7 v=61
54789 Par ch=15 c=7 v=60
54797 Par ch=15 c=7 v=59
54805 Par ch=15 c=7 v=58
54813 Par ch=15 c=7 v=57
54822 Par ch=15 c=7 v=56
54830 Par ch=15 c=7 v=55
54838 Par ch=15 c=7 v=54
54846 Par ch=15 c=7 v=53
54854 Par ch=15 c=7 v=52
54862 Par ch=15 c=7 v=51
54871 Par ch=15 c=7 v=50
54879 Par ch=15 c=7 v=49
54887 Par ch=15 c=7 v=48
54895 Par ch=15 c=7 v=47
54903 Par ch=15 c=7 v=46
54912 On ch=15 n=a#5 v=0
54912 Par ch=15 c=7 v=45
54912 On ch=15 n=a5 v=110
55296 On ch=15 n=a5 v=0
55296 On ch=15 n=g#5 v=110
55390 On ch=15 n=g#5 v=0
56064 PrCh ch=15 p=45
56064 Par ch=15 c=7 v=75
56832 On ch=15 n=a3 v=110
56992 On ch=15 n=a3 v=0
62208 Par ch=15 c=7 v=45
62208 PrCh ch=15 p=48
62976 On ch=15 n=g3 v=110
64222 On ch=15 n=g3 v=0
64512 On ch=15 n=g3 v=110
65664 On ch=15 n=f5 v=110
65758 On ch=15 n=g3 v=0
65952 On ch=15 n=f5 v=0
65952 On ch=15 n=d#5 v=110
66046 On ch=15 n=d#5 v=0
66048 On ch=15 n=g5 v=110
66048 On ch=15 n=g3 v=110
66718 On ch=15 n=g5 v=0
67294 On ch=15 n=g3 v=0
67584 On ch=15 n=g3 v=110
68736 On ch=15 n=g5 v=110
68830 On ch=15 n=g3 v=0
69024 On ch=15 n=g5 v=0
69024 On ch=15 n=f5 v=110
69118 On ch=15 n=f5 v=0
69120 Par ch=15 c=7 v=75
69120 On ch=15 n=g5 v=110
69120 On ch=15 n=g3 v=110
69145 Par ch=15 c=7 v=74
69171 Par ch=15 c=7 v=73
69196 Par ch=15 c=7 v=72
69222 Par ch=15 c=7 v=71
69248 Par ch=15 c=7 v=70
69273 Par ch=15 c=7 v=69
69299 Par ch=15 c=7 v=68
69324 Par ch=15 c=7 v=67
69350 Par ch=15 c=7 v=66
69376 Par ch=15 c=7 v=65
69401 Par ch=15 c=7 v=64
69406 On ch=15 n=g5 v=0
69427 Par ch=15 c=7 v=63
69452 Par ch=15 c=7 v=62
69478 Par ch=15 c=7 v=61
69504 Par ch=15 c=7 v=60
69840 On ch=15 n=g3 v=0
69888 On ch=15 n=g3 v=110
70656 On ch=15 n=g3 v=0
70656 On ch=15 n=g3 v=110
71424 On ch=15 n=g3 v=0
71424 On ch=15 n=g3 v=110
72192 On ch=15 n=g3 v=0
72192 Par ch=15 c=7 v=75
72192 On ch=15 n=g3 v=110
72203 Par ch=15 c=7 v=76
72215 Par ch=15 c=7 v=77
72226 Par ch=15 c=7 v=78
72238 Par ch=15 c=7 v=79
72250 Par ch=15 c=7 v=80
72261 Par ch=15 c=7 v=81
72273 Par ch=15 c=7 v=82
72285 Par ch=15 c=7 v=83
72296 Par ch=15 c=7 v=84
72308 Par ch=15 c=7 v=85
72320 Par ch=15 c=7 v=86
72331 Par ch=15 c=7 v=87
72343 Par ch=15 c=7 v=88
72354 Par ch=15 c=7 v=89
72366 Par ch=15 c=7 v=90
72378 Par ch=15 c=7 v=91
72389 Par ch=15 c=7 v=92
72401 Par ch=15 c=7 v=93
72413 Par ch=15 c=7 v=94
72424 Par ch=15 c=7 v=95
72436 Par ch=15 c=7 v=96
72448 Par ch=15 c=7 v=97
72459 Par ch=15 c=7 v=98
72471 Par ch=15 c=7 v=99
72482 Par ch=15 c=7 v=100
72494 Par ch=15 c=7 v=101
72506 Par ch=15 c=7 v=102
72517 Par ch=15 c=7 v=103
72529 Par ch=15 c=7 v=104
72541 Par ch=15 c=7 v=105
72552 Par ch=15 c=7 v=106
72564 Par ch=15 c=7 v=107
72576 On ch=15 n=g3 v=0
72576 Par ch=15 c=7 v=108
72576 On ch=15 n=f3 v=110
72594 Par ch=15 c=7 v=107
72612 Par ch=15 c=7 v=106
72630 Par ch=15 c=7 v=105
72649 Par ch=15 c=7 v=104
72667 Par ch=15 c=7 v=103
72685 Par ch=15 c=7 v=102
72704 Par ch=15 c=7 v=101
72722 Par ch=15 c=7 v=100
72740 Par ch=15 c=7 v=99
72758 Par ch=15 c=7 v=98
72777 Par ch=15 c=7 v=97
72795 Par ch=15 c=7 v=96
72813 Par ch=15 c=7 v=95
72832 Par ch=15 c=7 v=94
72850 Par ch=15 c=7 v=93
72868 Par ch=15 c=7 v=92
72886 Par ch=15 c=7 v=91
72905 Par ch=15 c=7 v=90
72923 Par ch=15 c=7 v=89
72941 Par ch=15 c=7 v=88
72960 On ch=15 n=f3 v=0
72960 Par ch=15 c=7 v=87
72960 On ch=15 n=e3 v=110
72978 Par ch=15 c=7 v=86
72996 Par ch=15 c=7 v=85
73014 Par ch=15 c=7 v=84
73033 Par ch=15 c=7 v=83
73051 Par ch=15 c=7 v=82
73069 Par ch=15 c=7 v=81
73088 Par ch=15 c=7 v=80
73106 Par ch=15 c=7 v=79
73124 Par ch=15 c=7 v=78
73142 Par ch=15 c=7 v=77
73161 Par ch=15 c=7 v=76
73179 Par ch=15 c=7 v=75
73197 Par ch=15 c=7 v=74
73216 Par ch=15 c=7 v=73
73234 Par ch=15 c=7 v=72
73252 Par ch=15 c=7 v=71
73270 Par ch=15 c=7 v=70
73289 Par ch=15 c=7 v=69
73307 Par ch=15 c=7 v=68
73325 Par ch=15 c=7 v=67
73344 On ch=15 n=e3 v=0
73344 Par ch=15 c=7 v=66
73344 On ch=15 n=a3 v=110
73362 Par ch=15 c=7 v=65
73380 Par ch=15 c=7 v=64
73398 Par ch=15 c=7 v=63
73417 Par ch=15 c=7 v=62
73435 Par ch=15 c=7 v=61
73453 Par ch=15 c=7 v=60
73472 Par ch=15 c=7 v=59
73490 Par ch=15 c=7 v=58
73508 Par ch=15 c=7 v=57
73526 Par ch=15 c=7 v=56
73545 Par ch=15 c=7 v=55
73563 Par ch=15 c=7 v=54
73581 Par ch=15 c=7 v=53
73600 Par ch=15 c=7 v=52
73618 Par ch=15 c=7 v=51
73636 Par ch=15 c=7 v=50
73654 Par ch=15 c=7 v=49
73673 Par ch=15 c=7 v=48
73691 Par ch=15 c=7 v=47
73709 Par ch=15 c=7 v=46
73728 On ch=15 n=a3 v=0
73728 Par ch=15 c=7 v=45
73728 On ch=15 n=d4 v=110
73822 On ch=15 n=d4 v=0
83712 Par ch=15 c=7 v=92
83712 PrCh ch=15 p=45
84480 On ch=15 n=c#3 v=110
84640 On ch=15 n=c#3 v=0
86016 On ch=15 n=c#4 v=110
86176 On ch=15 n=c#4 v=0
86784 On ch=15 n=a3 v=110
86944 On ch=15 n=a3 v=0
87552 PrCh ch=15 p=48
88320 Par ch=15 c=7 v=30
88320 On ch=15 n=b3 v=110
89088 On ch=15 n=b3 v=0
89088 On ch=15 n=b3 v=110
89856 On ch=15 n=b3 v=0
89856 On ch=15 n=b3 v=110
90624 On ch=15 n=b3 v=0
90624 On ch=15 n=b3 v=110
91392 On ch=15 n=b3 v=0
91392 On ch=15 n=b3 v=110
91776 On ch=15 n=b3 v=0
91776 Par ch=15 c=7 v=75
91776 On ch=15 n=b3 v=110
92160 On ch=15 n=b3 v=0
92160 On ch=15 n=b3 v=110
92544 On ch=15 n=b3 v=0
92544 On ch=15 n=b3 v=110
92928 Par ch=15 c=7 v=75
92945 Par ch=15 c=7 v=74
92962 Par ch=15 c=7 v=73
92979 Par ch=15 c=7 v=72
92996 Par ch=15 c=7 v=71
93013 Par ch=15 c=7 v=70
93030 Par ch=15 c=7 v=69
93047 Par ch=15 c=7 v=68
93064 Par ch=15 c=7 v=67
93081 Par ch=15 c=7 v=66
93098 Par ch=15 c=7 v=65
93115 Par ch=15 c=7 v=64
93132 Par ch=15 c=7 v=63
93149 Par ch=15 c=7 v=62
93166 Par ch=15 c=7 v=61
93184 Par ch=15 c=7 v=60
93201 Par ch=15 c=7 v=59
93218 Par ch=15 c=7 v=58
93235 Par ch=15 c=7 v=57
93252 Par ch=15 c=7 v=56
93269 Par ch=15 c=7 v=55
93286 Par ch=15 c=7 v=54
93303 Par ch=15 c=7 v=53
93320 Par ch=15 c=7 v=52
93337 Par ch=15 c=7 v=51
93354 Par ch=15 c=7 v=50
93371 Par ch=15 c=7 v=49
93388 Par ch=15 c=7 v=48
93405 Par ch=15 c=7 v=47
93422 Par ch=15 c=7 v=46
93440 Par ch=15 c=7 v=45
93457 Par ch=15 c=7 v=44
93474 Par ch=15 c=7 v=43
93491 Par ch=15 c=7 v=42
93508 Par ch=15 c=7 v=41
93525 Par ch=15 c=7 v=40
93542 Par ch=15 c=7 v=39
93559 Par ch=15 c=7 v=38
93576 Par ch=15 c=7 v=37
93593 Par ch=15 c=7 v=36
93610 Par ch=15 c=7 v=35
93627 Par ch=15 c=7 v=34
93644 Par ch=15 c=7 v=33
93661 Par ch=15 c=7 v=32
93678 Par ch=15 c=7 v=31
93696 On ch=15 n=b3 v=0
93696 Par ch=15 c=7 v=30
93696 On ch=15 n=b3 v=110
94032 On ch=15 n=b3 v=0
94080 On ch=15 n=d#4 v=110
94080 On ch=15 n=b3 v=110
94272 On ch=15 n=d#4 v=0
94272 On ch=15 n=e4 v=110
94416 On ch=15 n=b3 v=0
94432 On ch=15 n=e4 v=0
94464 On ch=15 n=b3 v=110
94464 On ch=15 n=g3 v=110
94656 On ch=15 n=g3 v=0
94656 On ch=15 n=g#3 v=110
94750 On ch=15 n=b3 v=0
94750 On ch=15 n=g#3 v=0
94848 On ch=15 n=b3 v=110
94848 On ch=15 n=g3 v=110
95040 On ch=15 n=g3 v=0
95040 On ch=15 n=g#3 v=110
95134 On ch=15 n=b3 v=0
95134 On ch=15 n=g#3 v=0
95616 On ch=15 n=b3 v=110
95808 On ch=15 n=b3 v=0
95808 Par ch=15 c=7 v=45
95808 On ch=15 n=b4 v=110
95810 Par ch=15 c=7 v=46
95812 Par ch=15 c=7 v=47
95815 Par ch=15 c=7 v=48
95817 Par ch=15 c=7 v=49
95819 Par ch=15 c=7 v=50
95822 Par ch=15 c=7 v=51
95824 Par ch=15 c=7 v=52
95826 Par ch=15 c=7 v=53
95829 Par ch=15 c=7 v=54
95831 Par ch=15 c=7 v=55
95833 Par ch=15 c=7 v=56
95836 Par ch=15 c=7 v=57
95838 Par ch=15 c=7 v=58
95840 Par ch=15 c=7 v=59
95843 Par ch=15 c=7 v=60
95845 Par ch=15 c=7 v=61
95847 Par ch=15 c=7 v=62
95850 Par ch=15 c=7 v=63
95852 Par ch=15 c=7 v=64
95854 Par ch=15 c=7 v=65
95857 Par ch=15 c=7 v=66
95859 Par ch=15 c=7 v=67
95861 Par ch=15 c=7 v=68
95864 Par ch=15 c=7 v=69
95866 Par ch=15 c=7 v=70
95868 Par ch=15 c=7 v=71
95871 Par ch=15 c=7 v=72
95873 Par ch=15 c=7 v=73
95875 Par ch=15 c=7 v=74
95878 Par ch=15 c=7 v=75
95880 Par ch=15 c=7 v=76
95882 Par ch=15 c=7 v=77
95885 Par ch=15 c=7 v=78
95887 Par ch=15 c=7 v=79
95889 Par ch=15 c=7 v=80
95892 Par ch=15 c=7 v=81
95894 Par ch=15 c=7 v=82
95896 Par ch=15 c=7 v=83
95899 Par ch=15 c=7 v=84
95901 Par ch=15 c=7 v=85
95903 Par ch=15 c=7 v=86
95906 Par ch=15 c=7 v=87
95908 Par ch=15 c=7 v=88
95911 Par ch=15 c=7 v=89
95913 Par ch=15 c=7 v=90
95915 Par ch=15 c=7 v=91
95918 Par ch=15 c=7 v=92
95920 Par ch=15 c=7 v=93
95922 Par ch=15 c=7 v=94
95925 Par ch=15 c=7 v=95
95927 Par ch=15 c=7 v=96
95929 Par ch=15 c=7 v=97
95932 Par ch=15 c=7 v=98
95934 Par ch=15 c=7 v=99
95936 Par ch=15 c=7 v=100
95939 Par ch=15 c=7 v=101
95941 Par ch=15 c=7 v=102
95943 Par ch=15 c=7 v=103
95946 Par ch=15 c=7 v=104
95948 Par ch=15 c=7 v=105
95950 Par ch=15 c=7 v=106
95953 Par ch=15 c=7 v=107
95955 Par ch=15 c=7 v=108
95957 Par ch=15 c=7 v=109
95960 Par ch=15 c=7 v=110
95962 Par ch=15 c=7 v=111
95964 Par ch=15 c=7 v=112
95967 Par ch=15 c=7 v=113
95969 Par ch=15 c=7 v=114
95971 Par ch=15 c=7 v=115
95974 Par ch=15 c=7 v=116
95976 Par ch=15 c=7 v=117
95978 Par ch=15 c=7 v=118
95981 Par ch=15 c=7 v=119
95983 Par ch=15 c=7 v=120
95985 Par ch=15 c=7 v=121
95988 Par ch=15 c=7 v=122
95990 Par ch=15 c=7 v=123
95992 Par ch=15 c=7 v=124
95995 Par ch=15 c=7 v=125
95997 Par ch=15 c=7 v=126
96000 On ch=15 n=b4 v=0
96000 Par ch=15 c=7 v=127
96000 On ch=15 n=a3 v=110
96000 On ch=15 n=f4 v=110
96000 On ch=15 n=c5 v=110
96094 On ch=15 n=a3 v=0
96094 On ch=15 n=f4 v=0
96094 On ch=15 n=c5 v=0
98304 Par ch=15 c=7 v=75
99072 PrCh ch=15 p=45
99456 On ch=15 n=a3 v=110
99550 On ch=15 n=a3 v=0
114048 PrCh ch=15 p=45
114432 Par ch=15 c=7 v=30
114816 On ch=15 n=e4 v=110
114976 On ch=15 n=e4 v=0
115968 On ch=15 n=e4 v=110
116128 On ch=15 n=e4 v=0
116736 On ch=15 n=e4 v=110
116896 On ch=15 n=e4 v=0
118656 On ch=15 n=e4 v=110
118816 On ch=15 n=e4 v=0
119424 On ch=15 n=e4 v=110
119584 On ch=15 n=e4 v=0
121344 Par ch=15 c=7 v=45
121344 On ch=15 n=e4 v=110
121393 Par ch=15 c=7 v=46
121442 Par ch=15 c=7 v=47
121491 Par ch=15 c=7 v=48
121504 On ch=15 n=e4 v=0
121540 Par ch=15 c=7 v=49
121589 Par ch=15 c=7 v=50
121638 Par ch=15 c=7 v=51
121687 Par ch=15 c=7 v=52
121728 On ch=15 n=d4 v=110
121736 Par ch=15 c=7 v=53
121785 Par ch=15 c=7 v=54
121834 Par ch=15 c=7 v=55
121883 Par ch=15 c=7 v=56
121888 On ch=15 n=d4 v=0
121932 Par ch=15 c=7 v=57
121981 Par ch=15 c=7 v=58
122030 Par ch=15 c=7 v=59
122079 Par ch=15 c=7 v=60
122112 On ch=15 n=c#4 v=110
122128 Par ch=15 c=7 v=61
122177 Par ch=15 c=7 v=62
122226 Par ch=15 c=7 v=63
122272 On ch=15 n=c#4 v=0
122275 Par ch=15 c=7 v=64
122324 Par ch=15 c=7 v=65
122373 Par ch=15 c=7 v=66
122422 Par ch=15 c=7 v=67
122471 Par ch=15 c=7 v=68
122496 On ch=15 n=f#4 v=110
122520 Par ch=15 c=7 v=69
122569 Par ch=15 c=7 v=70
122618 Par ch=15 c=7 v=71
122656 On ch=15 n=f#4 v=0
122667 Par ch=15 c=7 v=72
122716 Par ch=15 c=7 v=73
122765 Par ch=15 c=7 v=74
122814 Par ch=15 c=7 v=75
122863 Par ch=15 c=7 v=76
122880 On ch=15 n=a4 v=110
122912 Par ch=15 c=7 v=77
122961 Par ch=15 c=7 v=78
123010 Par ch=15 c=7 v=79
123040 On ch=15 n=a4 v=0
123059 Par ch=15 c=7 v=80
123108 Par ch=15 c=7 v=81
123157 Par ch=15 c=7 v=82
123206 Par ch=15 c=7 v=83
123255 Par ch=15 c=7 v=84
123264 On ch=15 n=g#4 v=110
123304 Par ch=15 c=7 v=85
123353 Par ch=15 c=7 v=86
123402 Par ch=15 c=7 v=87
123424 On ch=15 n=g#4 v=0
123451 Par ch=15 c=7 v=88
123500 Par ch=15 c=7 v=89
123549 Par ch=15 c=7 v=90
123598 Par ch=15 c=7 v=91
123648 Par ch=15 c=7 v=92
123648 On ch=15 n=c#4 v=110
123808 On ch=15 n=c#4 v=0
124032 Par ch=15 c=7 v=45
124032 On ch=15 n=f#4 v=110
124192 On ch=15 n=f#4 v=0
124416 On ch=15 n=b3 v=110
124576 On ch=15 n=b3 v=0
124608 PrCh ch=15 p=48
124800 Par ch=15 c=7 v=30
124800 On ch=15 n=e3 v=110
125184 Par ch=15 c=7 v=30
125190 Par ch=15 c=7 v=31
125196 Par ch=15 c=7 v=32
125202 Par ch=15 c=7 v=33
125208 Par ch=15 c=7 v=34
125214 Par ch=15 c=7 v=35
125221 Par ch=15 c=7 v=36
125227 Par ch=15 c=7 v=37
125233 Par ch=15 c=7 v=38
125239 Par ch=15 c=7 v=39
125245 Par ch=15 c=7 v=40
125252 Par ch=15 c=7 v=41
125258 Par ch=15 c=7 v=42
125264 Par ch=15 c=7 v=43
125270 Par ch=15 c=7 v=44
125276 Par ch=15 c=7 v=45
125283 Par ch=15 c=7 v=46
125289 Par ch=15 c=7 v=47
125295 Par ch=15 c=7 v=48
125301 Par ch=15 c=7 v=49
125307 Par ch=15 c=7 v=50
125314 Par ch=15 c=7 v=51
125320 Par ch=15 c=7 v=52
125326 Par ch=15 c=7 v=53
125332 Par ch=15 c=7 v=54
125338 Par ch=15 c=7 v=55
125345 Par ch=15 c=7 v=56
125351 Par ch=15 c=7 v=57
125357 Par ch=15 c=7 v=58
125363 Par ch=15 c=7 v=59
125369 Par ch=15 c=7 v=60
125375 Par ch=15 c=7 v=61
125382 Par ch=15 c=7 v=62
125388 Par ch=15 c=7 v=63
125394 Par ch=15 c=7 v=64
125400 Par ch=15 c=7 v=65
125406 Par ch=15 c=7 v=66
125413 Par ch=15 c=7 v=67
125419 Par ch=15 c=7 v=68
125425 Par ch=15 c=7 v=69
125431 Par ch=15 c=7 v=70
125437 Par ch=15 c=7 v=71
125444 Par ch=15 c=7 v=72
125450 Par ch=15 c=7 v=73
125456 Par ch=15 c=7 v=74
125462 Par ch=15 c=7 v=75
125468 Par ch=15 c=7 v=76
125475 Par ch=15 c=7 v=77
125481 Par ch=15 c=7 v=78
125487 Par ch=15 c=7 v=79
125493 Par ch=15 c=7 v=80
125499 Par ch=15 c=7 v=81
125506 Par ch=15 c=7 v=82
125512 Par ch=15 c=7 v=83
125518 Par ch=15 c=7 v=84
125524 Par ch=15 c=7 v=85
125530 Par ch=15 c=7 v=86
125537 Par ch=15 c=7 v=87
125543 Par ch=15 c=7 v=88
125549 Par ch=15 c=7 v=89
125555 Par ch=15 c=7 v=90
125561 Par ch=15 c=7 v=91
125568 On ch=15 n=e3 v=0
125568 Par ch=15 c=7 v=92
125568 On ch=15 n=f#3 v=110
125952 On ch=15 n=f#3 v=0
125952 Par ch=15 c=7 v=92
125952 On ch=15 n=a3 v=110
125958 Par ch=15 c=7 v=91
125964 Par ch=15 c=7 v=90
125970 Par ch=15 c=7 v=89
125976 Par ch=15 c=7 v=88
125982 Par ch=15 c=7 v=87
125989 Par ch=15 c=7 v=86
125995 Par ch=15 c=7 v=85
126001 Par ch=15 c=7 v=84
126007 Par ch=15 c=7 v=83
126013 Par ch=15 c=7 v=82
126020 Par ch=15 c=7 v=81
126026 Par ch=15 c=7 v=80
126032 Par ch=15 c=7 v=79
126038 Par ch=15 c=7 v=78
126044 Par ch=15 c=7 v=77
126051 Par ch=15 c=7 v=76
126057 Par ch=15 c=7 v=75
126063 Par ch=15 c=7 v=74
126069 Par ch=15 c=7 v=73
126075 Par ch=15 c=7 v=72
126082 Par ch=15 c=7 v=71
126088 Par ch=15 c=7 v=70
126094 Par ch=15 c=7 v=69
126100 Par ch=15 c=7 v=68
126106 Par ch=15 c=7 v=67
126113 Par ch=15 c=7 v=66
126119 Par ch=15 c=7 v=65
126125 Par ch=15 c=7 v=64
126131 Par ch=15 c=7 v=63
126137 Par ch=15 c=7 v=62
126143 Par ch=15 c=7 v=61
126150 Par ch=15 c=7 v=60
126156 Par ch=15 c=7 v=59
126162 Par ch=15 c=7 v=58
126168 Par ch=15 c=7 v=57
126174 Par ch=15 c=7 v=56
126181 Par ch=15 c=7 v=55
126187 Par ch=15 c=7 v=54
126193 Par ch=15 c=7 v=53
126199 Par ch=15 c=7 v=52
126205 Par ch=15 c=7 v=51
126212 Par ch=15 c=7 v=50
126218 Par ch=15 c=7 v=49
126224 Par ch=15 c=7 v=48
126230 Par ch=15 c=7 v=47
126236 Par ch=15 c=7 v=46
126243 Par ch=15 c=7 v=45
126249 Par ch=15 c=7 v=44
126255 Par ch=15 c=7 v=43
126261 Par ch=15 c=7 v=42
126267 Par ch=15 c=7 v=41
126274 Par ch=15 c=7 v=40
126280 Par ch=15 c=7 v=39
126286 Par ch=15 c=7 v=38
126292 Par ch=15 c=7 v=37
126298 Par ch=15 c=7 v=36
126305 Par ch=15 c=7 v=35
126311 Par ch=15 c=7 v=34
126317 Par ch=15 c=7 v=33
126323 Par ch=15 c=7 v=32
126329 Par ch=15 c=7 v=31
126336 On ch=15 n=a3 v=0
126336 Par ch=15 c=7 v=30
126336 On ch=15 n=e3 v=110
126720 Par ch=15 c=7 v=30
126726 Par ch=15 c=7 v=31
126732 Par ch=15 c=7 v=32
126738 Par ch=15 c=7 v=33
126744 Par ch=15 c=7 v=34
126750 Par ch=15 c=7 v=35
126757 Par ch=15 c=7 v=36
126763 Par ch=15 c=7 v=37
126769 Par ch=15 c=7 v=38
126775 Par ch=15 c=7 v=39
126781 Par ch=15 c=7 v=40
126788 Par ch=15 c=7 v=41
126794 Par ch=15 c=7 v=42
126800 Par ch=15 c=7 v=43
126806 Par ch=15 c=7 v=44
126812 Par ch=15 c=7 v=45
126819 Par ch=15 c=7 v=46
126825 Par ch=15 c=7 v=47
126831 Par ch=15 c=7 v=48
126837 Par ch=15 c=7 v=49
126843 Par ch=15 c=7 v=50
126850 Par ch=15 c=7 v=51
126856 Par ch=15 c=7 v=52
126862 Par ch=15 c=7 v=53
126868 Par ch=15 c=7 v=54
126874 Par ch=15 c=7 v=55
126881 Par ch=15 c=7 v=56
126887 Par ch=15 c=7 v=57
126893 Par ch=15 c=7 v=58
126899 Par ch=15 c=7 v=59
126905 Par ch=15 c=7 v=60
126911 Par ch=15 c=7 v=61
126918 Par ch=15 c=7 v=62
126924 Par ch=15 c=7 v=63
126930 Par ch=15 c=7 v=64
126936 Par ch=15 c=7 v=65
126942 Par ch=15 c=7 v=66
126949 Par ch=15 c=7 v=67
126955 Par ch=15 c=7 v=68
126961 Par ch=15 c=7 v=69
126967 Par ch=15 c=7 v=70
126973 Par ch=15 c=7 v=71
126980 Par ch=15 c=7 v=72
126986 Par ch=15 c=7 v=73
126992 Par ch=15 c=7 v=74
126998 Par ch=15 c=7 v=75
127004 Par ch=15 c=7 v=76
127011 Par ch=15 c=7 v=77
127017 Par ch=15 c=7 v=78
127023 Par ch=15 c=7 v=79
127029 Par ch=15 c=7 v=80
127035 Par ch=15 c=7 v=81
127042 Par ch=15 c=7 v=82
127048 Par ch=15 c=7 v=83
127054 Par ch=15 c=7 v=84
127060 Par ch=15 c=7 v=85
127066 Par ch=15 c=7 v=86
127073 Par ch=15 c=7 v=87
127079 Par ch=15 c=7 v=88
127085 Par ch=15 c=7 v=89
127091 Par ch=15 c=7 v=90
127097 Par ch=15 c=7 v=91
127104 On ch=15 n=e3 v=0
127104 Par ch=15 c=7 v=92
127104 On ch=15 n=a3 v=110
127488 Par ch=15 c=7 v=92
127494 Par ch=15 c=7 v=91
127500 Par ch=15 c=7 v=90
127506 Par ch=15 c=7 v=89
127512 Par ch=15 c=7 v=88
127518 Par ch=15 c=7 v=87
127525 Par ch=15 c=7 v=86
127531 Par ch=15 c=7 v=85
127537 Par ch=15 c=7 v=84
127543 Par ch=15 c=7 v=83
127549 Par ch=15 c=7 v=82
127556 Par ch=15 c=7 v=81
127562 Par ch=15 c=7 v=80
127568 Par ch=15 c=7 v=79
127574 Par ch=15 c=7 v=78
127580 Par ch=15 c=7 v=77
127587 Par ch=15 c=7 v=76
127593 Par ch=15 c=7 v=75
127599 Par ch=15 c=7 v=74
127605 Par ch=15 c=7 v=73
127611 Par ch=15 c=7 v=72
127618 Par ch=15 c=7 v=71
127624 Par ch=15 c=7 v=70
127630 Par ch=15 c=7 v=69
127636 Par ch=15 c=7 v=68
127642 Par ch=15 c=7 v=67
127649 Par ch=15 c=7 v=66
127655 Par ch=15 c=7 v=65
127661 Par ch=15 c=7 v=64
127667 Par ch=15 c=7 v=63
127673 Par ch=15 c=7 v=62
127679 Par ch=15 c=7 v=61
127686 Par ch=15 c=7 v=60
127692 Par ch=15 c=7 v=59
127698 Par ch=15 c=7 v=58
127704 Par ch=15 c=7 v=57
127710 Par ch=15 c=7 v=56
127717 Par ch=15 c=7 v=55
127723 Par ch=15 c=7 v=54
127729 Par ch=15 c=7 v=53
127735 Par ch=15 c=7 v=52
127741 Par ch=15 c=7 v=51
127748 Par ch=15 c=7 v=50
127754 Par ch=15 c=7 v=49
127760 Par ch=15 c=7 v=48
127766 Par ch=15 c=7 v=47
127772 Par ch=15 c=7 v=46
127779 Par ch=15 c=7 v=45
127785 Par ch=15 c=7 v=44
127791 Par ch=15 c=7 v=43
127797 Par ch=15 c=7 v=42
127803 Par ch=15 c=7 v=41
127810 Par ch=15 c=7 v=40
127816 Par ch=15 c=7 v=39
127822 Par ch=15 c=7 v=38
127828 Par ch=15 c=7 v=37
127834 Par ch=15 c=7 v=36
127841 Par ch=15 c=7 v=35
127847 Par ch=15 c=7 v=34
127853 Par ch=15 c=7 v=33
127859 Par ch=15 c=7 v=32
127865 Par ch=15 c=7 v=31
127872 On ch=15 n=a3 v=0
127872 Par ch=15 c=7 v=30
127872 On ch=15 n=c#4 v=110
128256 On ch=15 n=c#4 v=0
128256 Par ch=15 c=7 v=30
128256 On ch=15 n=a3 v=110
128262 Par ch=15 c=7 v=31
128268 Par ch=15 c=7 v=32
128274 Par ch=15 c=7 v=33
128280 Par ch=15 c=7 v=34
128286 Par ch=15 c=7 v=35
128293 Par ch=15 c=7 v=36
128299 Par ch=15 c=7 v=37
128305 Par ch=15 c=7 v=38
128311 Par ch=15 c=7 v=39
128317 Par ch=15 c=7 v=40
128324 Par ch=15 c=7 v=41
128330 Par ch=15 c=7 v=42
128336 Par ch=15 c=7 v=43
128342 Par ch=15 c=7 v=44
128348 Par ch=15 c=7 v=45
128355 Par ch=15 c=7 v=46
128361 Par ch=15 c=7 v=47
128367 Par ch=15 c=7 v=48
128373 Par ch=15 c=7 v=49
128379 Par ch=15 c=7 v=50
128386 Par ch=15 c=7 v=51
128392 Par ch=15 c=7 v=52
128398 Par ch=15 c=7 v=53
128404 Par ch=15 c=7 v=54
128410 Par ch=15 c=7 v=55
128417 Par ch=15 c=7 v=56
128423 Par ch=15 c=7 v=57
128429 Par ch=15 c=7 v=58
128435 Par ch=15 c=7 v=59
128441 Par ch=15 c=7 v=60
128447 Par ch=15 c=7 v=61
128454 Par ch=15 c=7 v=62
128460 Par ch=15 c=7 v=63
128466 Par ch=15 c=7 v=64
128472 Par ch=15 c=7 v=65
128478 Par ch=15 c=7 v=66
128485 Par ch=15 c=7 v=67
128491 Par ch=15 c=7 v=68
128497 Par ch=15 c=7 v=69
128503 Par ch=15 c=7 v=70
128509 Par ch=15 c=7 v=71
128516 Par ch=15 c=7 v=72
128522 Par ch=15 c=7 v=73
128528 Par ch=15 c=7 v=74
128534 Par ch=15 c=7 v=75
128540 Par ch=15 c=7 v=76
128547 Par ch=15 c=7 v=77
128553 Par ch=15 c=7 v=78
128559 Par ch=15 c=7 v=79
128565 Par ch=15 c=7 v=80
128571 Par ch=15 c=7 v=81
128578 Par ch=15 c=7 v=82
128584 Par ch=15 c=7 v=83
128590 Par ch=15 c=7 v=84
128596 Par ch=15 c=7 v=85
128602 Par ch=15 c=7 v=86
128609 Par ch=15 c=7 v=87
128615 Par ch=15 c=7 v=88
128621 Par ch=15 c=7 v=89
128627 Par ch=15 c=7 v=90
128633 Par ch=15 c=7 v=91
128640 On ch=15 n=a3 v=0
128640 Par ch=15 c=7 v=92
128640 On ch=15 n=f#3 v=110
129024 On ch=15 n=f#3 v=0
129024 Par ch=15 c=7 v=92
129024 On ch=15 n=b3 v=110
129030 Par ch=15 c=7 v=91
129036 Par ch=15 c=7 v=90
129042 Par ch=15 c=7 v=89
129048 Par ch=15 c=7 v=88
129054 Par ch=15 c=7 v=87
129061 Par ch=15 c=7 v=86
129067 Par ch=15 c=7 v=85
129073 Par ch=15 c=7 v=84
129079 Par ch=15 c=7 v=83
129085 Par ch=15 c=7 v=82
129092 Par ch=15 c=7 v=81
129098 Par ch=15 c=7 v=80
129104 Par ch=15 c=7 v=79
129110 Par ch=15 c=7 v=78
129116 Par ch=15 c=7 v=77
129123 Par ch=15 c=7 v=76
129129 Par ch=15 c=7 v=75
129135 Par ch=15 c=7 v=74
129141 Par ch=15 c=7 v=73
129147 Par ch=15 c=7 v=72
129154 Par ch=15 c=7 v=71
129160 Par ch=15 c=7 v=70
129166 Par ch=15 c=7 v=69
129172 Par ch=15 c=7 v=68
129178 Par ch=15 c=7 v=67
129185 Par ch=15 c=7 v=66
129191 Par ch=15 c=7 v=65
129197 Par ch=15 c=7 v=64
129203 Par ch=15 c=7 v=63
129209 Par ch=15 c=7 v=62
129215 Par ch=15 c=7 v=61
129222 Par ch=15 c=7 v=60
129228 Par ch=15 c=7 v=59
129234 Par ch=15 c=7 v=58
129240 Par ch=15 c=7 v=57
129246 Par ch=15 c=7 v=56
129253 Par ch=15 c=7 v=55
129259 Par ch=15 c=7 v=54
129265 Par ch=15 c=7 v=53
129271 Par ch=15 c=7 v=52
129277 Par ch=15 c=7 v=51
129284 Par ch=15 c=7 v=50
129290 Par ch=15 c=7 v=49
129296 Par ch=15 c=7 v=48
129302 Par ch=15 c=7 v=47
129308 Par ch=15 c=7 v=46
129315 Par ch=15 c=7 v=45
129321 Par ch=15 c=7 v=44
129327 Par ch=15 c=7 v=43
129333 Par ch=15 c=7 v=42
129339 Par ch=15 c=7 v=41
129346 Par ch=15 c=7 v=40
129352 Par ch=15 c=7 v=39
129358 Par ch=15 c=7 v=38
129364 Par ch=15 c=7 v=37
129370 Par ch=15 c=7 v=36
129377 Par ch=15 c=7 v=35
129383 Par ch=15 c=7 v=34
129389 Par ch=15 c=7 v=33
129395 Par ch=15 c=7 v=32
129401 Par ch=15 c=7 v=31
129408 On ch=15 n=b3 v=0
129408 Par ch=15 c=7 v=30
129408 On ch=15 n=e3 v=110
129792 Par ch=15 c=7 v=30
129798 Par ch=15 c=7 v=31
129804 Par ch=15 c=7 v=32
129810 Par ch=15 c=7 v=33
129816 Par ch=15 c=7 v=34
129822 Par ch=15 c=7 v=35
129829 Par ch=15 c=7 v=36
129835 Par ch=15 c=7 v=37
129841 Par ch=15 c=7 v=38
129847 Par ch=15 c=7 v=39
129853 Par ch=15 c=7 v=40
129860 Par ch=15 c=7 v=41
129866 Par ch=15 c=7 v=42
129872 Par ch=15 c=7 v=43
129878 Par ch=15 c=7 v=44
129884 Par ch=15 c=7 v=45
129891 Par ch=15 c=7 v=46
129897 Par ch=15 c=7 v=47
129903 Par ch=15 c=7 v=48
129909 Par ch=15 c=7 v=49
129915 Par ch=15 c=7 v=50
129922 Par ch=15 c=7 v=51
129928 Par ch=15 c=7 v=52
129934 Par ch=15 c=7 v=53
129940 Par ch=15 c=7 v=54
129946 Par ch=15 c=7 v=55
129953 Par ch=15 c=7 v=56
129959 Par ch=15 c=7 v=57
129965 Par ch=15 c=7 v=58
129971 Par ch=15 c=7 v=59
129977 Par ch=15 c=7 v=60
129983 Par ch=15 c=7 v=61
129990 Par ch=15 c=7 v=62
129996 Par ch=15 c=7 v=63
130002 Par ch=15 c=7 v=64
130008 Par ch=15 c=7 v=65
130014 Par ch=15 c=7 v=66
130021 Par ch=15 c=7 v=67
130027 Par ch=15 c=7 v=68
130033 Par ch=15 c=7 v=69
130039 Par ch=15 c=7 v=70
130045 Par ch=15 c=7 v=71
130052 Par ch=15 c=7 v=72
130058 Par ch=15 c=7 v=73
130064 Par ch=15 c=7 v=74
130070 Par ch=15 c=7 v=75
130076 Par ch=15 c=7 v=76
130083 Par ch=15 c=7 v=77
130089 Par ch=15 c=7 v=78
130095 Par ch=15 c=7 v=79
130101 Par ch=15 c=7 v=80
130107 Par ch=15 c=7 v=81
130114 Par ch=15 c=7 v=82
130120 Par ch=15 c=7 v=83
130126 Par ch=15 c=7 v=84
130132 Par ch=15 c=7 v=85
130138 Par ch=15 c=7 v=86
130145 Par ch=15 c=7 v=87
130151 Par ch=15 c=7 v=88
130157 Par ch=15 c=7 v=89
130163 Par ch=15 c=7 v=90
130169 Par ch=15 c=7 v=91
130176 On ch=15 n=e3 v=0
130176 Par ch=15 c=7 v=92
130176 On ch=15 n=e3 v=110
130560 Par ch=15 c=7 v=92
130566 Par ch=15 c=7 v=91
130572 Par ch=15 c=7 v=90
130578 Par ch=15 c=7 v=89
130584 Par ch=15 c=7 v=88
130590 Par ch=15 c=7 v=87
130597 Par ch=15 c=7 v=86
130603 Par ch=15 c=7 v=85
130609 Par ch=15 c=7 v=84
130615 Par ch=15 c=7 v=83
130621 Par ch=15 c=7 v=82
130628 Par ch=15 c=7 v=81
130634 Par ch=15 c=7 v=80
130640 Par ch=15 c=7 v=79
130646 Par ch=15 c=7 v=78
130652 Par ch=15 c=7 v=77
130659 Par ch=15 c=7 v=76
130665 Par ch=15 c=7 v=75
130671 Par ch=15 c=7 v=74
130677 Par ch=15 c=7 v=73
130683 Par ch=15 c=7 v=72
130690 Par ch=15 c=7 v=71
130696 Par ch=15 c=7 v=70
130702 Par ch=15 c=7 v=69
130708 Par ch=15 c=7 v=68
130714 Par ch=15 c=7 v=67
130721 Par ch=15 c=7 v=66
130727 Par ch=15 c=7 v=65
130733 Par ch=15 c=7 v=64
130739 Par ch=15 c=7 v=63
130745 Par ch=15 c=7 v=62
130751 Par ch=15 c=7 v=61
130758 Par ch=15 c=7 v=60
130764 Par ch=15 c=7 v=59
130770 Par ch=15 c=7 v=58
130776 Par ch=15 c=7 v=57
130782 Par ch=15 c=7 v=56
130789 Par ch=15 c=7 v=55
130795 Par ch=15 c=7 v=54
130801 Par ch=15 c=7 v=53
130807 Par ch=15 c=7 v=52
130813 Par ch=15 c=7 v=51
130820 Par ch=15 c=7 v=50
130826 Par ch=15 c=7 v=49
130832 Par ch=15 c=7 v=48
130838 Par ch=15 c=7 v=47
130844 Par ch=15 c=7 v=46
130851 Par ch=15 c=7 v=45
130857 Par ch=15 c=7 v=44
130863 Par ch=15 c=7 v=43
130869 Par ch=15 c=7 v=42
130875 Par ch=15 c=7 v=41
130882 Par ch=15 c=7 v=40
130888 Par ch=15 c=7 v=39
130894 Par ch=15 c=7 v=38
130900 Par ch=15 c=7 v=37
130906 Par ch=15 c=7 v=36
130913 Par ch=15 c=7 v=35
130919 Par ch=15 c=7 v=34
130925 Par ch=15 c=7 v=33
130931 Par ch=15 c=7 v=32
130937 Par ch=15 c=7 v=31
130944 On ch=15 n=e3 v=0
130944 Par ch=15 c=7 v=30
130944 On ch=15 n=e3 v=110
131328 Par ch=15 c=7 v=30
131334 Par ch=15 c=7 v=31
131340 Par ch=15 c=7 v=32
131346 Par ch=15 c=7 v=33
131352 Par ch=15 c=7 v=34
131358 Par ch=15 c=7 v=35
131365 Par ch=15 c=7 v=36
131371 Par ch=15 c=7 v=37
131377 Par ch=15 c=7 v=38
131383 Par ch=15 c=7 v=39
131389 Par ch=15 c=7 v=40
131396 Par ch=15 c=7 v=41
131402 Par ch=15 c=7 v=42
131408 Par ch=15 c=7 v=43
131414 Par ch=15 c=7 v=44
131420 Par ch=15 c=7 v=45
131427 Par ch=15 c=7 v=46
131433 Par ch=15 c=7 v=47
131439 Par ch=15 c=7 v=48
131445 Par ch=15 c=7 v=49
131451 Par ch=15 c=7 v=50
131458 Par ch=15 c=7 v=51
131464 Par ch=15 c=7 v=52
131470 Par ch=15 c=7 v=53
131476 Par ch=15 c=7 v=54
131482 Par ch=15 c=7 v=55
131489 Par ch=15 c=7 v=56
131495 Par ch=15 c=7 v=57
131501 Par ch=15 c=7 v=58
131507 Par ch=15 c=7 v=59
131513 Par ch=15 c=7 v=60
131519 Par ch=15 c=7 v=61
131526 Par ch=15 c=7 v=62
131532 Par ch=15 c=7 v=63
131538 Par ch=15 c=7 v=64
131544 Par ch=15 c=7 v=65
131550 Par ch=15 c=7 v=66
131557 Par ch=15 c=7 v=67
131563 Par ch=15 c=7 v=68
131569 Par ch=15 c=7 v=69
131575 Par ch=15 c=7 v=70
131581 Par ch=15 c=7 v=71
131588 Par ch=15 c=7 v=72
131594 Par ch=15 c=7 v=73
131600 Par ch=15 c=7 v=74
131606 Par ch=15 c=7 v=75
131612 Par ch=15 c=7 v=76
131619 Par ch=15 c=7 v=77
131625 Par ch=15 c=7 v=78
131631 Par ch=15 c=7 v=79
131637 Par ch=15 c=7 v=80
131643 Par ch=15 c=7 v=81
131650 Par ch=15 c=7 v=82
131656 Par ch=15 c=7 v=83
131662 Par ch=15 c=7 v=84
131668 Par ch=15 c=7 v=85
131674 Par ch=15 c=7 v=86
131681 Par ch=15 c=7 v=87
131687 Par ch=15 c=7 v=88
131693 Par ch=15 c=7 v=89
131699 Par ch=15 c=7 v=90
131705 Par ch=15 c=7 v=91
131712 On ch=15 n=e3 v=0
131712 Par ch=15 c=7 v=92
131712 On ch=15 n=e3 v=110
132096 Par ch=15 c=7 v=92
132102 Par ch=15 c=7 v=91
132108 Par ch=15 c=7 v=90
132114 Par ch=15 c=7 v=89
132120 Par ch=15 c=7 v=88
132126 Par ch=15 c=7 v=87
132133 Par ch=15 c=7 v=86
132139 Par ch=15 c=7 v=85
132145 Par ch=15 c=7 v=84
132151 Par ch=15 c=7 v=83
132157 Par ch=15 c=7 v=82
132164 Par ch=15 c=7 v=81
132170 Par ch=15 c=7 v=80
132176 Par ch=15 c=7 v=79
132182 Par ch=15 c=7 v=78
132188 Par ch=15 c=7 v=77
132195 Par ch=15 c=7 v=76
132201 Par ch=15 c=7 v=75
132207 Par ch=15 c=7 v=74
132213 Par ch=15 c=7 v=73
132219 Par ch=15 c=7 v=72
132226 Par ch=15 c=7 v=71
132232 Par ch=15 c=7 v=70
132238 Par ch=15 c=7 v=69
132244 Par ch=15 c=7 v=68
132250 Par ch=15 c=7 v=67
132257 Par ch=15 c=7 v=66
132263 Par ch=15 c=7 v=65
132269 Par ch=15 c=7 v=64
132275 Par ch=15 c=7 v=63
132281 Par ch=15 c=7 v=62
132287 Par ch=15 c=7 v=61
132294 Par ch=15 c=7 v=60
132300 Par ch=15 c=7 v=59
132306 Par ch=15 c=7 v=58
132312 Par ch=15 c=7 v=57
132318 Par ch=15 c=7 v=56
132325 Par ch=15 c=7 v=55
132331 Par ch=15 c=7 v=54
132337 Par ch=15 c=7 v=53
132343 Par ch=15 c=7 v=52
132349 Par ch=15 c=7 v=51
132356 Par ch=15 c=7 v=50
132362 Par ch=15 c=7 v=49
132368 Par ch=15 c=7 v=48
132374 Par ch=15 c=7 v=47
132380 Par ch=15 c=7 v=46
132387 Par ch=15 c=7 v=45
132393 Par ch=15 c=7 v=44
132399 Par ch=15 c=7 v=43
132405 Par ch=15 c=7 v=42
132411 Par ch=15 c=7 v=41
132418 Par ch=15 c=7 v=40
132424 Par ch=15 c=7 v=39
132430 Par ch=15 c=7 v=38
132436 Par ch=15 c=7 v=37
132442 Par ch=15 c=7 v=36
132449 Par ch=15 c=7 v=35
132455 Par ch=15 c=7 v=34
132461 Par ch=15 c=7 v=33
132467 Par ch=15 c=7 v=32
132473 Par ch=15 c=7 v=31
132480 On ch=15 n=e3 v=0
132480 Par ch=15 c=7 v=30
132480 On ch=15 n=e3 v=110
134110 On ch=15 n=e3 v=0
137088 Par ch=15 c=121 v=127
137088 Meta TrkEnd
TrkEnd
MTrk
0 Meta TrkName "Contrabbassi"
0 Meta 0x21 00
0 Par ch=16 c=121 v=127
0 PrCh ch=16 p=48
0 Par ch=16 c=7 v=30
0 Par ch=16 c=10 v=84
0 Par ch=16 c=91 v=127
0 Par ch=16 c=7 v=45
1536 Par ch=16 c=7 v=45
1536 On ch=16 n=d#4 v=110
1542 Par ch=16 c=7 v=46
1548 Par ch=16 c=7 v=47
1554 Par ch=16 c=7 v=48
1560 Par ch=16 c=7 v=49
1566 Par ch=16 c=7 v=50
1572 Par ch=16 c=7 v=51
1578 Par ch=16 c=7 v=52
1584 Par ch=16 c=7 v=53
1590 Par ch=16 c=7 v=54
1596 Par ch=16 c=7 v=55
1603 Par ch=16 c=7 v=56
1609 Par ch=16 c=7 v=57
1615 Par ch=16 c=7 v=58
1621 Par ch=16 c=7 v=59
1627 Par ch=16 c=7 v=60
1633 Par ch=16 c=7 v=61
1639 Par ch=16 c=7 v=62
1645 Par ch=16 c=7 v=63
1651 Par ch=16 c=7 v=64
1657 Par ch=16 c=7 v=65
1664 Par ch=16 c=7 v=66
1670 Par ch=16 c=7 v=67
1676 Par ch=16 c=7 v=68
1682 Par ch=16 c=7 v=69
1688 Par ch=16 c=7 v=70
1694 Par ch=16 c=7 v=71
1700 Par ch=16 c=7 v=72
1706 Par ch=16 c=7 v=73
1712 Par ch=16 c=7 v=74
1718 Par ch=16 c=7 v=75
1724 Par ch=16 c=7 v=76
1728 On ch=16 n=d#4 v=0
1728 On ch=16 n=d#4 v=110
1731 Par ch=16 c=7 v=77
1737 Par ch=16 c=7 v=78
1743 Par ch=16 c=7 v=79
1749 Par ch=16 c=7 v=80
1755 Par ch=16 c=7 v=81
1761 Par ch=16 c=7 v=82
1767 Par ch=16 c=7 v=83
1773 Par ch=16 c=7 v=84
1779 Par ch=16 c=7 v=85
1785 Par ch=16 c=7 v=86
1792 Par ch=16 c=7 v=87
1798 Par ch=16 c=7 v=88
1804 Par ch=16 c=7 v=89
1810 Par ch=16 c=7 v=90
1816 Par ch=16 c=7 v=91
1822 Par ch=16 c=7 v=92
1828 Par ch=16 c=7 v=93
1834 Par ch=16 c=7 v=94
1840 Par ch=16 c=7 v=95
1846 Par ch=16 c=7 v=96
1852 Par ch=16 c=7 v=97
1859 Par ch=16 c=7 v=98
1865 Par ch=16 c=7 v=99
1871 Par ch=16 c=7 v=100
1877 Par ch=16 c=7 v=101
1883 Par ch=16 c=7 v=102
1889 Par ch=16 c=7 v=103
1895 Par ch=16 c=7 v=104
1901 Par ch=16 c=7 v=105
1907 Par ch=16 c=7 v=106
1913 Par ch=16 c=7 v=107
1920 On ch=16 n=d#4 v=0
1920 Par ch=16 c=7 v=108
1920 On ch=16 n=g#3 v=110
1924 Par ch=16 c=7 v=107
1928 Par ch=16 c=7 v=106
1932 Par ch=16 c=7 v=105
1936 Par ch=16 c=7 v=104
1940 Par ch=16 c=7 v=103
1944 Par ch=16 c=7 v=102
1948 Par ch=16 c=7 v=101
1952 Par ch=16 c=7 v=100
1956 Par ch=16 c=7 v=99
1960 Par ch=16 c=7 v=98
1964 Par ch=16 c=7 v=97
1968 Par ch=16 c=7 v=96
1972 Par ch=16 c=7 v=95
1976 Par ch=16 c=7 v=94
1980 Par ch=16 c=7 v=93
1984 Par ch=16 c=7 v=92
1988 Par ch=16 c=7 v=91
1992 Par ch=16 c=7 v=90
1996 Par ch=16 c=7 v=89
2000 Par ch=16 c=7 v=88
2004 Par ch=16 c=7 v=87
2008 Par ch=16 c=7 v=86
2012 Par ch=16 c=7 v=85
2016 Par ch=16 c=7 v=84
2020 Par ch=16 c=7 v=83
2024 Par ch=16 c=7 v=82
2028 Par ch=16 c=7 v=81
2032 Par ch=16 c=7 v=80
2036 Par ch=16 c=7 v=79
2040 Par ch=16 c=7 v=78
2044 Par ch=16 c=7 v=77
2048 Par ch=16 c=7 v=76
2052 Par ch=16 c=7 v=75
2056 Par ch=16 c=7 v=74
2060 Par ch=16 c=7 v=73
2064 Par ch=16 c=7 v=72
2068 Par ch=16 c=7 v=71
2072 Par ch=16 c=7 v=70
2076 Par ch=16 c=7 v=69
2080 Par ch=16 c=7 v=68
2084 Par ch=16 c=7 v=67
2088 Par ch=16 c=7 v=66
2092 Par ch=16 c=7 v=65
2096 Par ch=16 c=7 v=64
2100 Par ch=16 c=7 v=63
2104 Par ch=16 c=7 v=62
2108 Par ch=16 c=7 v=61
2112 On ch=16 n=g#3 v=0
2112 Par ch=16 c=7 v=60
2112 On ch=16 n=f#4 v=110
2304 On ch=16 n=f#4 v=0
2304 On ch=16 n=e4 v=110
2496 On ch=16 n=e4 v=0
2496 On ch=16 n=d#4 v=110
2688 On ch=16 n=d#4 v=0
2688 Par ch=16 c=7 v=60
2688 On ch=16 n=c#4 v=110
2713 Par ch=16 c=7 v=59
2739 Par ch=16 c=7 v=58
2764 Par ch=16 c=7 v=57
2790 Par ch=16 c=7 v=56
2816 Par ch=16 c=7 v=55
2841 Par ch=16 c=7 v=54
2867 Par ch=16 c=7 v=53
2880 On ch=16 n=c#4 v=0
2880 On ch=16 n=c4 v=110
2892 Par ch=16 c=7 v=52
2918 Par ch=16 c=7 v=51
2944 Par ch=16 c=7 v=50
2969 Par ch=16 c=7 v=49
2995 Par ch=16 c=7 v=48
3020 Par ch=16 c=7 v=47
3046 Par ch=16 c=7 v=46
3072 On ch=16 n=c4 v=0
3072 Par ch=16 c=7 v=45
3072 On ch=16 n=e3 v=110
3091 Par ch=16 c=7 v=44
3110 Par ch=16 c=7 v=43
3129 Par ch=16 c=7 v=42
3148 Par ch=16 c=7 v=41
3168 Par ch=16 c=7 v=40
3187 Par ch=16 c=7 v=39
3206 Par ch=16 c=7 v=38
3225 Par ch=16 c=7 v=37
3244 Par ch=16 c=7 v=36
3264 Par ch=16 c=7 v=35
3283 Par ch=16 c=7 v=34
3302 Par ch=16 c=7 v=33
3321 Par ch=16 c=7 v=32
3340 Par ch=16 c=7 v=31
3360 Par ch=16 c=7 v=30
3379 Par ch=16 c=7 v=29
3398 Par ch=16 c=7 v=28
3417 Par ch=16 c=7 v=27
3436 Par ch=16 c=7 v=26
3456 Par ch=16 c=7 v=25
3475 Par ch=16 c=7 v=24
3494 Par ch=16 c=7 v=23
3513 Par ch=16 c=7 v=22
3532 Par ch=16 c=7 v=21
3552 Par ch=16 c=7 v=20
3571 Par ch=16 c=7 v=19
3590 Par ch=16 c=7 v=18
3609 Par ch=16 c=7 v=17
3616 On ch=16 n=e3 v=0
3628 Par ch=16 c=7 v=16
3648 Par ch=16 c=7 v=15
7680 Par ch=16 c=7 v=45
8448 PrCh ch=16 p=45
9216 On ch=16 n=e4 v=110
9376 On ch=16 n=e4 v=0
10368 On ch=16 n=e4 v=110
10528 On ch=16 n=e4 v=0
11136 On ch=16 n=e4 v=110
11296 On ch=16 n=e4 v=0
13056 On ch=16 n=e4 v=110
13216 On ch=16 n=e4 v=0
13824 On ch=16 n=e4 v=110
13984 On ch=16 n=e4 v=0
15744 On ch=16 n=e4 v=110
15904 On ch=16 n=e4 v=0
16128 On ch=16 n=d4 v=110
16288 On ch=16 n=d4 v=0
16512 On ch=16 n=c#4 v=110
16672 On ch=16 n=c#4 v=0
16896 On ch=16 n=f#4 v=110
17056 On ch=16 n=f#4 v=0
17280 On ch=16 n=a3 v=110
17440 On ch=16 n=a3 v=0
17664 On ch=16 n=g#3 v=110
17824 On ch=16 n=g#3 v=0
18048 On ch=16 n=c#4 v=110
18208 On ch=16 n=c#4 v=0
18432 On ch=16 n=f#3 v=110
18592 On ch=16 n=f#3 v=0
18624 On ch=16 n=c4 v=110
18784 On ch=16 n=c4 v=0
18816 On ch=16 n=b3 v=110
18976 On ch=16 n=b3 v=0
19200 On ch=16 n=e4 v=110
19360 On ch=16 n=e4 v=0
26880 PrCh ch=16 p=48
26880 Par ch=16 c=7 v=30
27648 On ch=16 n=e4 v=110
28032 Par ch=16 c=7 v=30
28057 Par ch=16 c=7 v=31
28083 Par ch=16 c=7 v=32
28108 Par ch=16 c=7 v=33
28134 Par ch=16 c=7 v=34
28160 Par ch=16 c=7 v=35
28185 Par ch=16 c=7 v=36
28211 Par ch=16 c=7 v=37
28236 Par ch=16 c=7 v=38
28262 Par ch=16 c=7 v=39
28288 Par ch=16 c=7 v=40
28313 Par ch=16 c=7 v=41
28339 Par ch=16 c=7 v=42
28364 Par ch=16 c=7 v=43
28390 Par ch=16 c=7 v=44
28416 On ch=16 n=e4 v=0
28416 Par ch=16 c=7 v=45
28416 On ch=16 n=e4 v=110
28441 Par ch=16 c=7 v=44
28467 Par ch=16 c=7 v=43
28492 Par ch=16 c=7 v=42
28518 Par ch=16 c=7 v=41
28544 Par ch=16 c=7 v=40
28569 Par ch=16 c=7 v=39
28595 Par ch=16 c=7 v=38
28620 Par ch=16 c=7 v=37
28646 Par ch=16 c=7 v=36
28672 Par ch=16 c=7 v=35
28697 Par ch=16 c=7 v=34
28723 Par ch=16 c=7 v=33
28748 Par ch=16 c=7 v=32
28774 Par ch=16 c=7 v=31
28800 On ch=16 n=e4 v=0
28800 Par ch=16 c=7 v=30
28800 On ch=16 n=e4 v=110
29184 On ch=16 n=e4 v=0
29184 On ch=16 n=d4 v=110
29568 On ch=16 n=d4 v=0
29568 Par ch=16 c=7 v=60
29568 On ch=16 n=c#4 v=110
29580 Par ch=16 c=7 v=59
29593 Par ch=16 c=7 v=58
29606 Par ch=16 c=7 v=57
29619 Par ch=16 c=7 v=56
29632 Par ch=16 c=7 v=55
29644 Par ch=16 c=7 v=54
29657 Par ch=16 c=7 v=53
29670 Par ch=16 c=7 v=52
29683 Par ch=16 c=7 v=51
29696 Par ch=16 c=7 v=50
29708 Par ch=16 c=7 v=49
29721 Par ch=16 c=7 v=48
29734 Par ch=16 c=7 v=47
29747 Par ch=16 c=7 v=46
29760 Par ch=16 c=7 v=45
29772 Par ch=16 c=7 v=44
29785 Par ch=16 c=7 v=43
29798 Par ch=16 c=7 v=42
29811 Par ch=16 c=7 v=41
29824 Par ch=16 c=7 v=40
29836 Par ch=16 c=7 v=39
29849 Par ch=16 c=7 v=38
29862 Par ch=16 c=7 v=37
29875 Par ch=16 c=7 v=36
29888 Par ch=16 c=7 v=35
29900 Par ch=16 c=7 v=34
29913 Par ch=16 c=7 v=33
29926 Par ch=16 c=7 v=32
29939 Par ch=16 c=7 v=31
29952 On ch=16 n=c#4 v=0
29952 Par ch=16 c=7 v=30
29952 On ch=16 n=f#4 v=110
30336 On ch=16 n=f#4 v=0
30336 Par ch=16 c=7 v=30
30336 On ch=16 n=a4 v=110
30361 Par ch=16 c=7 v=31
30387 Par ch=16 c=7 v=32
30412 Par ch=16 c=7 v=33
30438 Par ch=16 c=7 v=34
30464 Par ch=16 c=7 v=35
30489 Par ch=16 c=7 v=36
30515 Par ch=16 c=7 v=37
30540 Par ch=16 c=7 v=38
30566 Par ch=16 c=7 v=39
30592 Par ch=16 c=7 v=40
30617 Par ch=16 c=7 v=41
30643 Par ch=16 c=7 v=42
30668 Par ch=16 c=7 v=43
30694 Par ch=16 c=7 v=44
30720 On ch=16 n=a4 v=0
30720 Par ch=16 c=7 v=45
30720 On ch=16 n=g#4 v=110
30745 Par ch=16 c=7 v=44
30771 Par ch=16 c=7 v=43
30796 Par ch=16 c=7 v=42
30822 Par ch=16 c=7 v=41
30848 Par ch=16 c=7 v=40
30873 Par ch=16 c=7 v=39
30899 Par ch=16 c=7 v=38
30924 Par ch=16 c=7 v=37
30950 Par ch=16 c=7 v=36
30976 Par ch=16 c=7 v=35
31001 Par ch=16 c=7 v=34
31027 Par ch=16 c=7 v=33
31052 Par ch=16 c=7 v=32
31078 Par ch=16 c=7 v=31
31104 On ch=16 n=g#4 v=0
31104 Par ch=16 c=7 v=30
31104 Par ch=16 c=7 v=30
31104 On ch=16 n=f4 v=110
31129 Par ch=16 c=7 v=31
31155 Par ch=16 c=7 v=32
31180 Par ch=16 c=7 v=33
31206 Par ch=16 c=7 v=34
31232 Par ch=16 c=7 v=35
31257 Par ch=16 c=7 v=36
31283 Par ch=16 c=7 v=37
31308 Par ch=16 c=7 v=38
31334 Par ch=16 c=7 v=39
31360 Par ch=16 c=7 v=40
31385 Par ch=16 c=7 v=41
31411 Par ch=16 c=7 v=42
31436 Par ch=16 c=7 v=43
31462 Par ch=16 c=7 v=44
31488 On ch=16 n=f4 v=0
31488 Par ch=16 c=7 v=45
31488 On ch=16 n=f#4 v=110
31513 Par ch=16 c=7 v=44
31539 Par ch=16 c=7 v=43
31564 Par ch=16 c=7 v=42
31590 Par ch=16 c=7 v=41
31616 Par ch=16 c=7 v=40
31641 Par ch=16 c=7 v=39
31667 Par ch=16 c=7 v=38
31692 Par ch=16 c=7 v=37
31718 Par ch=16 c=7 v=36
31744 Par ch=16 c=7 v=35
31769 Par ch=16 c=7 v=34
31795 Par ch=16 c=7 v=33
31820 Par ch=16 c=7 v=32
31846 Par ch=16 c=7 v=31
31872 Par ch=16 c=7 v=30
31872 Par ch=16 c=7 v=30
31897 Par ch=16 c=7 v=29
31923 Par ch=16 c=7 v=28
31948 Par ch=16 c=7 v=27
31974 Par ch=16 c=7 v=26
32000 Par ch=16 c=7 v=25
32025 Par ch=16 c=7 v=24
32051 Par ch=16 c=7 v=23
32076 Par ch=16 c=7 v=22
32102 Par ch=16 c=7 v=21
32128 Par ch=16 c=7 v=20
32153 Par ch=16 c=7 v=19
32179 Par ch=16 c=7 v=18
32204 Par ch=16 c=7 v=17
32230 Par ch=16 c=7 v=16
32256 On ch=16 n=f#4 v=0
32256 Par ch=16 c=7 v=15
32256 On ch=16 n=b3 v=110
32734 On ch=16 n=b3 v=0
37632 PrCh ch=16 p=45
37632 Par ch=16 c=7 v=75
38400 On ch=16 n=b3 v=110
38560 On ch=16 n=b3 v=0
43008 PrCh ch=16 p=48
43776 Par ch=16 c=7 v=45
44544 On ch=16 n=a3 v=110
45790 On ch=16 n=a3 v=0
46080 On ch=16 n=a3 v=110
47326 On ch=16 n=a3 v=0
47616 On ch=16 n=a3 v=110
48862 On ch=16 n=a3 v=0
49152 On ch=16 n=a3 v=110
50398 On ch=16 n=a3 v=0
50496 Par ch=16 c=7 v=75
50688 On ch=16 n=a3 v=110
51456 On ch=16 n=a3 v=0
51456 On ch=16 n=a3 v=110
52224 On ch=16 n=a3 v=0
52224 On ch=16 n=a3 v=110
52992 On ch=16 n=a3 v=0
52992 On ch=16 n=a3 v=110
53760 On ch=16 n=a3 v=0
53760 Par ch=16 c=7 v=75
53760 On ch=16 n=a3 v=110
53782 Par ch=16 c=7 v=76
53805 Par ch=16 c=7 v=77
53827 Par ch=16 c=7 v=78
53850 Par ch=16 c=7 v=79
53872 Par ch=16 c=7 v=80
53895 Par ch=16 c=7 v=81
53918 Par ch=16 c=7 v=82
53940 Par ch=16 c=7 v=83
53963 Par ch=16 c=7 v=84
53985 Par ch=16 c=7 v=85
54008 Par ch=16 c=7 v=86
54031 Par ch=16 c=7 v=87
54053 Par ch=16 c=7 v=88
54076 Par ch=16 c=7 v=89
54098 Par ch=16 c=7 v=90
54121 Par ch=16 c=7 v=91
54144 On ch=16 n=a3 v=0
54144 Par ch=16 c=7 v=92
54144 On ch=16 n=g3 v=110
54528 On ch=16 n=g3 v=0
54528 Par ch=16 c=7 v=92
54528 On ch=16 n=f#3 v=110
54536 Par ch=16 c=7 v=91
54544 Par ch=16 c=7 v=90
54552 Par ch=16 c=7 v=89
54560 Par ch=16 c=7 v=88
54568 Par ch=16 c=7 v=87
54577 Par ch=16 c=7 v=86
54585 Par ch=16 c=7 v=85
54593 Par ch=16 c=7 v=84
54601 Par ch=16 c=7 v=83
54609 Par ch=16 c=7 v=82
54617 Par ch=16 c=7 v=81
54626 Par ch=16 c=7 v=80
54634 Par ch=16 c=7 v=79
54642 Par ch=16 c=7 v=78
54650 Par ch=16 c=7 v=77
54658 Par ch=16 c=7 v=76
54666 Par ch=16 c=7 v=75
54675 Par ch=16 c=7 v=74
54683 Par ch=16 c=7 v=73
54691 Par ch=16 c=7 v=72
54699 Par ch=16 c=7 v=71
54707 Par ch=16 c=7 v=70
54715 Par ch=16 c=7 v=69
54724 Par ch=16 c=7 v=68
54732 Par ch=16 c=7 v=67
54740 Par ch=16 c=7 v=66
54748 Par ch=16 c=7 v=65
54756 Par ch=16 c=7 v=64
54764 Par ch=16 c=7 v=63
54773 Par ch=16 c=7 v=62
54781 Par ch=16 c=7 v=61
54789 Par ch=16 c=7 v=60
54797 Par ch=16 c=7 v=59
54805 Par ch=16 c=7 v=58
54813 Par ch=16 c=7 v=57
54822 Par ch=16 c=7 v=56
54830 Par ch=16 c=7 v=55
54838 Par ch=16 c=7 v=54
54846 Par ch=16 c=7 v=53
54854 Par ch=16 c=7 v=52
54862 Par ch=16 c=7 v=51
54871 Par ch=16 c=7 v=50
54879 Par ch=16 c=7 v=49
54887 Par ch=16 c=7 v=48
54895 Par ch=16 c=7 v=47
54903 Par ch=16 c=7 v=46
54912 On ch=16 n=f#3 v=0
54912 Par ch=16 c=7 v=45
54912 On ch=16 n=b3 v=110
55296 On ch=16 n=b3 v=0
55296 On ch=16 n=e4 v=110
55390 On ch=16 n=e4 v=0
56064 PrCh ch=16 p=45
56064 Par ch=16 c=7 v=75
56832 On ch=16 n=a3 v=110
56992 On ch=16 n=a3 v=0
62208 Par ch=16 c=7 v=45
62208 PrCh ch=16 p=48
62976 On ch=16 n=g3 v=110
64222 On ch=16 n=g3 v=0
64512 On ch=16 n=g3 v=110
65758 On ch=16 n=g3 v=0
66048 On ch=16 n=g3 v=110
67294 On ch=16 n=g3 v=0
67584 On ch=16 n=g3 v=110
68830 On ch=16 n=g3 v=0
69120 Par ch=16 c=7 v=75
69120 On ch=16 n=g3 v=110
69888 On ch=16 n=g3 v=0
69888 On ch=16 n=g3 v=110
70656 On ch=16 n=g3 v=0
70656 On ch=16 n=g3 v=110
71424 On ch=16 n=g3 v=0
71424 On ch=16 n=g3 v=110
72192 On ch=16 n=g3 v=0
72192 Par ch=16 c=7 v=75
72192 On ch=16 n=g3 v=110
72203 Par ch=16 c=7 v=76
72215 Par ch=16 c=7 v=77
72226 Par ch=16 c=7 v=78
72238 Par ch=16 c=7 v=79
72250 Par ch=16 c=7 v=80
72261 Par ch=16 c=7 v=81
72273 Par ch=16 c=7 v=82
72285 Par ch=16 c=7 v=83
72296 Par ch=16 c=7 v=84
72308 Par ch=16 c=7 v=85
72320 Par ch=16 c=7 v=86
72331 Par ch=16 c=7 v=87
72343 Par ch=16 c=7 v=88
72354 Par ch=16 c=7 v=89
72366 Par ch=16 c=7 v=90
72378 Par ch=16 c=7 v=91
72389 Par ch=16 c=7 v=92
72401 Par ch=16 c=7 v=93
72413 Par ch=16 c=7 v=94
72424 Par ch=16 c=7 v=95
72436 Par ch=16 c=7 v=96
72448 Par ch=16 c=7 v=97
72459 Par ch=16 c=7 v=98
72471 Par ch=16 c=7 v=99
72482 Par ch=16 c=7 v=100
72494 Par ch=16 c=7 v=101
72506 Par ch=16 c=7 v=102
72517 Par ch=16 c=7 v=103
72529 Par ch=16 c=7 v=104
72541 Par ch=16 c=7 v=105
72552 Par ch=16 c=7 v=106
72564 Par ch=16 c=7 v=107
72576 On ch=16 n=g3 v=0
72576 Par ch=16 c=7 v=108
72576 On ch=16 n=f3 v=110
72594 Par ch=16 c=7 v=107
72612 Par ch=16 c=7 v=106
72630 Par ch=16 c=7 v=105
72649 Par ch=16 c=7 v=104
72667 Par ch=16 c=7 v=103
72685 Par ch=16 c=7 v=102
72704 Par ch=16 c=7 v=101
72722 Par ch=16 c=7 v=100
72740 Par ch=16 c=7 v=99
72758 Par ch=16 c=7 v=98
72777 Par ch=16 c=7 v=97
72795 Par ch=16 c=7 v=96
72813 Par ch=16 c=7 v=95
72832 Par ch=16 c=7 v=94
72850 Par ch=16 c=7 v=93
72868 Par ch=16 c=7 v=92
72886 Par ch=16 c=7 v=91
72905 Par ch=16 c=7 v=90
72923 Par ch=16 c=7 v=89
72941 Par ch=16 c=7 v=88
72960 On ch=16 n=f3 v=0
72960 Par ch=16 c=7 v=87
72960 On ch=16 n=e3 v=110
72978 Par ch=16 c=7 v=86
72996 Par ch=16 c=7 v=85
73014 Par ch=16 c=7 v=84
73033 Par ch=16 c=7 v=83
73051 Par ch=16 c=7 v=82
73069 Par ch=16 c=7 v=81
73088 Par ch=16 c=7 v=80
73106 Par ch=16 c=7 v=79
73124 Par ch=16 c=7 v=78
73142 Par ch=16 c=7 v=77
73161 Par ch=16 c=7 v=76
73179 Par ch=16 c=7 v=75
73197 Par ch=16 c=7 v=74
73216 Par ch=16 c=7 v=73
73234 Par ch=16 c=7 v=72
73252 Par ch=16 c=7 v=71
73270 Par ch=16 c=7 v=70
73289 Par ch=16 c=7 v=69
73307 Par ch=16 c=7 v=68
73325 Par ch=16 c=7 v=67
73344 On ch=16 n=e3 v=0
73344 Par ch=16 c=7 v=66
73344 On ch=16 n=a3 v=110
73362 Par ch=16 c=7 v=65
73380 Par ch=16 c=7 v=64
73398 Par ch=16 c=7 v=63
73417 Par ch=16 c=7 v=62
73435 Par ch=16 c=7 v=61
73453 Par ch=16 c=7 v=60
73472 Par ch=16 c=7 v=59
73490 Par ch=16 c=7 v=58
73508 Par ch=16 c=7 v=57
73526 Par ch=16 c=7 v=56
73545 Par ch=16 c=7 v=55
73563 Par ch=16 c=7 v=54
73581 Par ch=16 c=7 v=53
73600 Par ch=16 c=7 v=52
73618 Par ch=16 c=7 v=51
73636 Par ch=16 c=7 v=50
73654 Par ch=16 c=7 v=49
73673 Par ch=16 c=7 v=48
73691 Par ch=16 c=7 v=47
73709 Par ch=16 c=7 v=46
73728 On ch=16 n=a3 v=0
73728 Par ch=16 c=7 v=45
73728 On ch=16 n=d4 v=110
73822 On ch=16 n=d4 v=0
83712 Par ch=16 c=7 v=92
83712 PrCh ch=16 p=45
84480 On ch=16 n=c#4 v=110
84640 On ch=16 n=c#4 v=0
86016 On ch=16 n=c#4 v=110
86176 On ch=16 n=c#4 v=0
86784 On ch=16 n=a3 v=110
86944 On ch=16 n=a3 v=0
87552 PrCh ch=16 p=48
88320 Par ch=16 c=7 v=30
88320 On ch=16 n=b3 v=110
89088 On ch=16 n=b3 v=0
89088 On ch=16 n=b3 v=110
89856 On ch=16 n=b3 v=0
89856 On ch=16 n=b3 v=110
90624 On ch=16 n=b3 v=0
90624 On ch=16 n=b3 v=110
91392 On ch=16 n=b3 v=0
91392 On ch=16 n=b3 v=110
91776 On ch=16 n=b3 v=0
91776 Par ch=16 c=7 v=75
91776 On ch=16 n=b3 v=110
92160 On ch=16 n=b3 v=0
92160 On ch=16 n=b3 v=110
92544 On ch=16 n=b3 v=0
92544 On ch=16 n=b3 v=110
92928 Par ch=16 c=7 v=75
92945 Par ch=16 c=7 v=74
92962 Par ch=16 c=7 v=73
92979 Par ch=16 c=7 v=72
92996 Par ch=16 c=7 v=71
93013 Par ch=16 c=7 v=70
93030 Par ch=16 c=7 v=69
93047 Par ch=16 c=7 v=68
93064 Par ch=16 c=7 v=67
93081 Par ch=16 c=7 v=66
93098 Par ch=16 c=7 v=65
93115 Par ch=16 c=7 v=64
93132 Par ch=16 c=7 v=63
93149 Par ch=16 c=7 v=62
93166 Par ch=16 c=7 v=61
93184 Par ch=16 c=7 v=60
93201 Par ch=16 c=7 v=59
93218 Par ch=16 c=7 v=58
93235 Par ch=16 c=7 v=57
93252 Par ch=16 c=7 v=56
93269 Par ch=16 c=7 v=55
93286 Par ch=16 c=7 v=54
93303 Par ch=16 c=7 v=53
93320 Par ch=16 c=7 v=52
93337 Par ch=16 c=7 v=51
93354 Par ch=16 c=7 v=50
93371 Par ch=16 c=7 v=49
93388 Par ch=16 c=7 v=48
93405 Par ch=16 c=7 v=47
93422 Par ch=16 c=7 v=46
93440 Par ch=16 c=7 v=45
93457 Par ch=16 c=7 v=44
93474 Par ch=16 c=7 v=43
93491 Par ch=16 c=7 v=42
93508 Par ch=16 c=7 v=41
93525 Par ch=16 c=7 v=40
93542 Par ch=16 c=7 v=39
93559 Par ch=16 c=7 v=38
93576 Par ch=16 c=7 v=37
93593 Par ch=16 c=7 v=36
93610 Par ch=16 c=7 v=35
93627 Par ch=16 c=7 v=34
93644 Par ch=16 c=7 v=33
93661 Par ch=16 c=7 v=32
93678 Par ch=16 c=7 v=31
93696 On ch=16 n=b3 v=0
93696 Par ch=16 c=7 v=30
93696 On ch=16 n=b3 v=110
94464 On ch=16 n=b3 v=0
94464 On ch=16 n=b3 v=110
94750 On ch=16 n=b3 v=0
94848 On ch=16 n=b3 v=110
95134 On ch=16 n=b3 v=0
95232 Par ch=16 c=7 v=127
96000 On ch=16 n=a4 v=110
96094 On ch=16 n=a4 v=0
98304 Par ch=16 c=7 v=75
99072 PrCh ch=16 p=45
99456 On ch=16 n=a3 v=110
99550 On ch=16 n=a3 v=0
114048 PrCh ch=16 p=45
114432 Par ch=16 c=7 v=30
114816 On ch=16 n=e4 v=110
114976 On ch=16 n=e4 v=0
115968 On ch=16 n=e4 v=110
116128 On ch=16 n=e4 v=0
116736 On ch=16 n=e4 v=110
116896 On ch=16 n=e4 v=0
118656 On ch=16 n=e4 v=110
118816 On ch=16 n=e4 v=0
119424 On ch=16 n=e4 v=110
119584 On ch=16 n=e4 v=0
121344 Par ch=16 c=7 v=45
121344 On ch=16 n=e4 v=110
121393 Par ch=16 c=7 v=46
121442 Par ch=16 c=7 v=47
121491 Par ch=16 c=7 v=48
121504 On ch=16 n=e4 v=0
121540 Par ch=16 c=7 v=49
121589 Par ch=16 c=7 v=50
121638 Par ch=16 c=7 v=51
121687 Par ch=16 c=7 v=52
121728 On ch=16 n=d4 v=110
121736 Par ch=16 c=7 v=53
121785 Par ch=16 c=7 v=54
121834 Par ch=16 c=7 v=55
121883 Par ch=16 c=7 v=56
121888 On ch=16 n=d4 v=0
121932 Par ch=16 c=7 v=57
121981 Par ch=16 c=7 v=58
122030 Par ch=16 c=7 v=59
122079 Par ch=16 c=7 v=60
122112 On ch=16 n=c#4 v=110
122128 Par ch=16 c=7 v=61
122177 Par ch=16 c=7 v=62
122226 Par ch=16 c=7 v=63
122272 On ch=16 n=c#4 v=0
122275 Par ch=16 c=7 v=64
122324 Par ch=16 c=7 v=65
122373 Par ch=16 c=7 v=66
122422 Par ch=16 c=7 v=67
122471 Par ch=16 c=7 v=68
122496 On ch=16 n=f#4 v=110
122520 Par ch=16 c=7 v=69
122569 Par ch=16 c=7 v=70
122618 Par ch=16 c=7 v=71
122656 On ch=16 n=f#4 v=0
122667 Par ch=16 c=7 v=72
122716 Par ch=16 c=7 v=73
122765 Par ch=16 c=7 v=74
122814 Par ch=16 c=7 v=75
122863 Par ch=16 c=7 v=76
122880 On ch=16 n=a4 v=110
122912 Par ch=16 c=7 v=77
122961 Par ch=16 c=7 v=78
123010 Par ch=16 c=7 v=79
123040 On ch=16 n=a4 v=0
123059 Par ch=16 c=7 v=80
123108 Par ch=16 c=7 v=81
123157 Par ch=16 c=7 v=82
123206 Par ch=16 c=7 v=83
123255 Par ch=16 c=7 v=84
123264 On ch=16 n=g#4 v=110
123304 Par ch=16 c=7 v=85
123353 Par ch=16 c=7 v=86
123402 Par ch=16 c=7 v=87
123424 On ch=16 n=g#4 v=0
123451 Par ch=16 c=7 v=88
123500 Par ch=16 c=7 v=89
123549 Par ch=16 c=7 v=90
123598 Par ch=16 c=7 v=91
123648 Par ch=16 c=7 v=92
123648 On ch=16 n=c#4 v=110
123808 On ch=16 n=c#4 v=0
124032 Par ch=16 c=7 v=45
124032 On ch=16 n=f#4 v=110
124192 On ch=16 n=f#4 v=0
124416 On ch=16 n=b3 v=110
124576 On ch=16 n=b3 v=0
124608 PrCh ch=16 p=48
124800 Par ch=16 c=7 v=30
124800 On ch=16 n=e3 v=110
125184 Par ch=16 c=7 v=30
125190 Par ch=16 c=7 v=31
125196 Par ch=16 c=7 v=32
125202 Par ch=16 c=7 v=33
125208 Par ch=16 c=7 v=34
125214 Par ch=16 c=7 v=35
125221 Par ch=16 c=7 v=36
125227 Par ch=16 c=7 v=37
125233 Par ch=16 c=7 v=38
125239 Par ch=16 c=7 v=39
125245 Par ch=16 c=7 v=40
125252 Par ch=16 c=7 v=41
125258 Par ch=16 c=7 v=42
125264 Par ch=16 c=7 v=43
125270 Par ch=16 c=7 v=44
125276 Par ch=16 c=7 v=45
125283 Par ch=16 c=7 v=46
125289 Par ch=16 c=7 v=47
125295 Par ch=16 c=7 v=48
125301 Par ch=16 c=7 v=49
125307 Par ch=16 c=7 v=50
125314 Par ch=16 c=7 v=51
125320 Par ch=16 c=7 v=52
125326 Par ch=16 c=7 v=53
125332 Par ch=16 c=7 v=54
125338 Par ch=16 c=7 v=55
125345 Par ch=16 c=7 v=56
125351 Par ch=16 c=7 v=57
125357 Par ch=16 c=7 v=58
125363 Par ch=16 c=7 v=59
125369 Par ch=16 c=7 v=60
125375 Par ch=16 c=7 v=61
125382 Par ch=16 c=7 v=62
125388 Par ch=16 c=7 v=63
125394 Par ch=16 c=7 v=64
125400 Par ch=16 c=7 v=65
125406 Par ch=16 c=7 v=66
125413 Par ch=16 c=7 v=67
125419 Par ch=16 c=7 v=68
125425 Par ch=16 c=7 v=69
125431 Par ch=16 c=7 v=70
125437 Par ch=16 c=7 v=71
125444 Par ch=16 c=7 v=72
125450 Par ch=16 c=7 v=73
125456 Par ch=16 c=7 v=74
125462 Par ch=16 c=7 v=75
125468 Par ch=16 c=7 v=76
125475 Par ch=16 c=7 v=77
125481 Par ch=16 c=7 v=78
125487 Par ch=16 c=7 v=79
125493 Par ch=16 c=7 v=80
125499 Par ch=16 c=7 v=81
125506 Par ch=16 c=7 v=82
125512 Par ch=16 c=7 v=83
125518 Par ch=16 c=7 v=84
125524 Par ch=16 c=7 v=85
125530 Par ch=16 c=7 v=86
125537 Par ch=16 c=7 v=87
125543 Par ch=16 c=7 v=88
125549 Par ch=16 c=7 v=89
125555 Par ch=16 c=7 v=90
125561 Par ch=16 c=7 v=91
125568 On ch=16 n=e3 v=0
125568 Par ch=16 c=7 v=92
125568 On ch=16 n=f#3 v=110
125952 On ch=16 n=f#3 v=0
125952 Par ch=16 c=7 v=92
125952 On ch=16 n=a3 v=110
125958 Par ch=16 c=7 v=91
125964 Par ch=16 c=7 v=90
125970 Par ch=16 c=7 v=89
125976 Par ch=16 c=7 v=88
125982 Par ch=16 c=7 v=87
125989 Par ch=16 c=7 v=86
125995 Par ch=16 c=7 v=85
126001 Par ch=16 c=7 v=84
126007 Par ch=16 c=7 v=83
126013 Par ch=16 c=7 v=82
126020 Par ch=16 c=7 v=81
126026 Par ch=16 c=7 v=80
126032 Par ch=16 c=7 v=79
126038 Par ch=16 c=7 v=78
126044 Par ch=16 c=7 v=77
126051 Par ch=16 c=7 v=76
126057 Par ch=16 c=7 v=75
126063 Par ch=16 c=7 v=74
126069 Par ch=16 c=7 v=73
126075 Par ch=16 c=7 v=72
126082 Par ch=16 c=7 v=71
126088 Par ch=16 c=7 v=70
126094 Par ch=16 c=7 v=69
126100 Par ch=16 c=7 v=68
126106 Par ch=16 c=7 v=67
126113 Par ch=16 c=7 v=66
126119 Par ch=16 c=7 v=65
126125 Par ch=16 c=7 v=64
126131 Par ch=16 c=7 v=63
126137 Par ch=16 c=7 v=62
126143 Par ch=16 c=7 v=61
126150 Par ch=16 c=7 v=60
126156 Par ch=16 c=7 v=59
126162 Par ch=16 c=7 v=58
126168 Par ch=16 c=7 v=57
126174 Par ch=16 c=7 v=56
126181 Par ch=16 c=7 v=55
126187 Par ch=16 c=7 v=54
126193 Par ch=16 c=7 v=53
126199 Par ch=16 c=7 v=52
126205 Par ch=16 c=7 v=51
126212 Par ch=16 c=7 v=50
126218 Par ch=16 c=7 v=49
126224 Par ch=16 c=7 v=48
126230 Par ch=16 c=7 v=47
126236 Par ch=16 c=7 v=46
126243 Par ch=16 c=7 v=45
126249 Par ch=16 c=7 v=44
126255 Par ch=16 c=7 v=43
126261 Par ch=16 c=7 v=42
126267 Par ch=16 c=7 v=41
126274 Par ch=16 c=7 v=40
126280 Par ch=16 c=7 v=39
126286 Par ch=16 c=7 v=38
126292 Par ch=16 c=7 v=37
126298 Par ch=16 c=7 v=36
126305 Par ch=16 c=7 v=35
126311 Par ch=16 c=7 v=34
126317 Par ch=16 c=7 v=33
126323 Par ch=16 c=7 v=32
126329 Par ch=16 c=7 v=31
126336 On ch=16 n=a3 v=0
126336 Par ch=16 c=7 v=30
126336 On ch=16 n=e3 v=110
126720 Par ch=16 c=7 v=30
126726 Par ch=16 c=7 v=31
126732 Par ch=16 c=7 v=32
126738 Par ch=16 c=7 v=33
126744 Par ch=16 c=7 v=34
126750 Par ch=16 c=7 v=35
126757 Par ch=16 c=7 v=36
126763 Par ch=16 c=7 v=37
126769 Par ch=16 c=7 v=38
126775 Par ch=16 c=7 v=39
126781 Par ch=16 c=7 v=40
126788 Par ch=16 c=7 v=41
126794 Par ch=16 c=7 v=42
126800 Par ch=16 c=7 v=43
126806 Par ch=16 c=7 v=44
126812 Par ch=16 c=7 v=45
126819 Par ch=16 c=7 v=46
126825 Par ch=16 c=7 v=47
126831 Par ch=16 c=7 v=48
126837 Par ch=16 c=7 v=49
126843 Par ch=16 c=7 v=50
126850 Par ch=16 c=7 v=51
126856 Par ch=16 c=7 v=52
126862 Par ch=16 c=7 v=53
126868 Par ch=16 c=7 v=54
126874 Par ch=16 c=7 v=55
126881 Par ch=16 c=7 v=56
126887 Par ch=16 c=7 v=57
126893 Par ch=16 c=7 v=58
126899 Par ch=16 c=7 v=59
126905 Par ch=16 c=7 v=60
126911 Par ch=16 c=7 v=61
126918 Par ch=16 c=7 v=62
126924 Par ch=16 c=7 v=63
126930 Par ch=16 c=7 v=64
126936 Par ch=16 c=7 v=65
126942 Par ch=16 c=7 v=66
126949 Par ch=16 c=7 v=67
126955 Par ch=16 c=7 v=68
126961 Par ch=16 c=7 v=69
126967 Par ch=16 c=7 v=70
126973 Par ch=16 c=7 v=71
126980 Par ch=16 c=7 v=72
126986 Par ch=16 c=7 v=73
126992 Par ch=16 c=7 v=74
126998 Par ch=16 c=7 v=75
127004 Par ch=16 c=7 v=76
127011 Par ch=16 c=7 v=77
127017 Par ch=16 c=7 v=78
127023 Par ch=16 c=7 v=79
127029 Par ch=16 c=7 v=80
127035 Par ch=16 c=7 v=81
127042 Par ch=16 c=7 v=82
127048 Par ch=16 c=7 v=83
127054 Par ch=16 c=7 v=84
127060 Par ch=16 c=7 v=85
127066 Par ch=16 c=7 v=86
127073 Par ch=16 c=7 v=87
127079 Par ch=16 c=7 v=88
127085 Par ch=16 c=7 v=89
127091 Par ch=16 c=7 v=90
127097 Par ch=16 c=7 v=91
127104 On ch=16 n=e3 v=0
127104 Par ch=16 c=7 v=92
127104 On ch=16 n=a3 v=110
127488 Par ch=16 c=7 v=92
127494 Par ch=16 c=7 v=91
127500 Par ch=16 c=7 v=90
127506 Par ch=16 c=7 v=89
127512 Par ch=16 c=7 v=88
127518 Par ch=16 c=7 v=87
127525 Par ch=16 c=7 v=86
127531 Par ch=16 c=7 v=85
127537 Par ch=16 c=7 v=84
127543 Par ch=16 c=7 v=83
127549 Par ch=16 c=7 v=82
127556 Par ch=16 c=7 v=81
127562 Par ch=16 c=7 v=80
127568 Par ch=16 c=7 v=79
127574 Par ch=16 c=7 v=78
127580 Par ch=16 c=7 v=77
127587 Par ch=16 c=7 v=76
127593 Par ch=16 c=7 v=75
127599 Par ch=16 c=7 v=74
127605 Par ch=16 c=7 v=73
127611 Par ch=16 c=7 v=72
127618 Par ch=16 c=7 v=71
127624 Par ch=16 c=7 v=70
127630 Par ch=16 c=7 v=69
127636 Par ch=16 c=7 v=68
127642 Par ch=16 c=7 v=67
127649 Par ch=16 c=7 v=66
127655 Par ch=16 c=7 v=65
127661 Par ch=16 c=7 v=64
127667 Par ch=16 c=7 v=63
127673 Par ch=16 c=7 v=62
127679 Par ch=16 c=7 v=61
127686 Par ch=16 c=7 v=60
127692 Par ch=16 c=7 v=59
127698 Par ch=16 c=7 v=58
127704 Par ch=16 c=7 v=57
127710 Par ch=16 c=7 v=56
127717 Par ch=16 c=7 v=55
127723 Par ch=16 c=7 v=54
127729 Par ch=16 c=7 v=53
127735 Par ch=16 c=7 v=52
127741 Par ch=16 c=7 v=51
127748 Par ch=16 c=7 v=50
127754 Par ch=16 c=7 v=49
127760 Par ch=16 c=7 v=48
127766 Par ch=16 c=7 v=47
127772 Par ch=16 c=7 v=46
127779 Par ch=16 c=7 v=45
127785 Par ch=16 c=7 v=44
127791 Par ch=16 c=7 v=43
127797 Par ch=16 c=7 v=42
127803 Par ch=16 c=7 v=41
127810 Par ch=16 c=7 v=40
127816 Par ch=16 c=7 v=39
127822 Par ch=16 c=7 v=38
127828 Par ch=16 c=7 v=37
127834 Par ch=16 c=7 v=36
127841 Par ch=16 c=7 v=35
127847 Par ch=16 c=7 v=34
127853 Par ch=16 c=7 v=33
127859 Par ch=16 c=7 v=32
127865 Par ch=16 c=7 v=31
127872 On ch=16 n=a3 v=0
127872 Par ch=16 c=7 v=30
127872 On ch=16 n=c#4 v=110
128256 On ch=16 n=c#4 v=0
128256 Par ch=16 c=7 v=30
128256 On ch=16 n=a3 v=110
128262 Par ch=16 c=7 v=31
128268 Par ch=16 c=7 v=32
128274 Par ch=16 c=7 v=33
128280 Par ch=16 c=7 v=34
128286 Par ch=16 c=7 v=35
128293 Par ch=16 c=7 v=36
128299 Par ch=16 c=7 v=37
128305 Par ch=16 c=7 v=38
128311 Par ch=16 c=7 v=39
128317 Par ch=16 c=7 v=40
128324 Par ch=16 c=7 v=41
128330 Par ch=16 c=7 v=42
128336 Par ch=16 c=7 v=43
128342 Par ch=16 c=7 v=44
128348 Par ch=16 c=7 v=45
128355 Par ch=16 c=7 v=46
128361 Par ch=16 c=7 v=47
128367 Par ch=16 c=7 v=48
128373 Par ch=16 c=7 v=49
128379 Par ch=16 c=7 v=50
128386 Par ch=16 c=7 v=51
128392 Par ch=16 c=7 v=52
128398 Par ch=16 c=7 v=53
128404 Par ch=16 c=7 v=54
128410 Par ch=16 c=7 v=55
128417 Par ch=16 c=7 v=56
128423 Par ch=16 c=7 v=57
128429 Par ch=16 c=7 v=58
128435 Par ch=16 c=7 v=59
128441 Par ch=16 c=7 v=60
128447 Par ch=16 c=7 v=61
128454 Par ch=16 c=7 v=62
128460 Par ch=16 c=7 v=63
128466 Par ch=16 c=7 v=64
128472 Par ch=16 c=7 v=65
128478 Par ch=16 c=7 v=66
128485 Par ch=16 c=7 v=67
128491 Par ch=16 c=7 v=68
128497 Par ch=16 c=7 v=69
128503 Par ch=16 c=7 v=70
128509 Par ch=16 c=7 v=71
128516 Par ch=16 c=7 v=72
128522 Par ch=16 c=7 v=73
128528 Par ch=16 c=7 v=74
128534 Par ch=16 c=7 v=75
128540 Par ch=16 c=7 v=76
128547 Par ch=16 c=7 v=77
128553 Par ch=16 c=7 v=78
128559 Par ch=16 c=7 v=79
128565 Par ch=16 c=7 v=80
128571 Par ch=16 c=7 v=81
128578 Par ch=16 c=7 v=82
128584 Par ch=16 c=7 v=83
128590 Par ch=16 c=7 v=84
128596 Par ch=16 c=7 v=85
128602 Par ch=16 c=7 v=86
128609 Par ch=16 c=7 v=87
128615 Par ch=16 c=7 v=88
128621 Par ch=16 c=7 v=89
128627 Par ch=16 c=7 v=90
128633 Par ch=16 c=7 v=91
128640 On ch=16 n=a3 v=0
128640 Par ch=16 c=7 v=92
128640 On ch=16 n=f#3 v=110
129024 On ch=16 n=f#3 v=0
129024 Par ch=16 c=7 v=92
129024 On ch=16 n=b3 v=110
129030 Par ch=16 c=7 v=91
129036 Par ch=16 c=7 v=90
129042 Par ch=16 c=7 v=89
129048 Par ch=16 c=7 v=88
129054 Par ch=16 c=7 v=87
129061 Par ch=16 c=7 v=86
129067 Par ch=16 c=7 v=85
129073 Par ch=16 c=7 v=84
129079 Par ch=16 c=7 v=83
129085 Par ch=16 c=7 v=82
129092 Par ch=16 c=7 v=81
129098 Par ch=16 c=7 v=80
129104 Par ch=16 c=7 v=79
129110 Par ch=16 c=7 v=78
129116 Par ch=16 c=7 v=77
129123 Par ch=16 c=7 v=76
129129 Par ch=16 c=7 v=75
129135 Par ch=16 c=7 v=74
129141 Par ch=16 c=7 v=73
129147 Par ch=16 c=7 v=72
129154 Par ch=16 c=7 v=71
129160 Par ch=16 c=7 v=70
129166 Par ch=16 c=7 v=69
129172 Par ch=16 c=7 v=68
129178 Par ch=16 c=7 v=67
129185 Par ch=16 c=7 v=66
129191 Par ch=16 c=7 v=65
129197 Par ch=16 c=7 v=64
129203 Par ch=16 c=7 v=63
129209 Par ch=16 c=7 v=62
129215 Par ch=16 c=7 v=61
129222 Par ch=16 c=7 v=60
129228 Par ch=16 c=7 v=59
129234 Par ch=16 c=7 v=58
129240 Par ch=16 c=7 v=57
129246 Par ch=16 c=7 v=56
129253 Par ch=16 c=7 v=55
129259 Par ch=16 c=7 v=54
129265 Par ch=16 c=7 v=53
129271 Par ch=16 c=7 v=52
129277 Par ch=16 c=7 v=51
129284 Par ch=16 c=7 v=50
129290 Par ch=16 c=7 v=49
129296 Par ch=16 c=7 v=48
129302 Par ch=16 c=7 v=47
129308 Par ch=16 c=7 v=46
129315 Par ch=16 c=7 v=45
129321 Par ch=16 c=7 v=44
129327 Par ch=16 c=7 v=43
129333 Par ch=16 c=7 v=42
129339 Par ch=16 c=7 v=41
129346 Par ch=16 c=7 v=40
129352 Par ch=16 c=7 v=39
129358 Par ch=16 c=7 v=38
129364 Par ch=16 c=7 v=37
129370 Par ch=16 c=7 v=36
129377 Par ch=16 c=7 v=35
129383 Par ch=16 c=7 v=34
129389 Par ch=16 c=7 v=33
129395 Par ch=16 c=7 v=32
129401 Par ch=16 c=7 v=31
129408 On ch=16 n=b3 v=0
129408 Par ch=16 c=7 v=30
129408 On ch=16 n=e3 v=110
129792 Par ch=16 c=7 v=30
129798 Par ch=16 c=7 v=31
129804 Par ch=16 c=7 v=32
129810 Par ch=16 c=7 v=33
129816 Par ch=16 c=7 v=34
129822 Par ch=16 c=7 v=35
129829 Par ch=16 c=7 v=36
129835 Par ch=16 c=7 v=37
129841 Par ch=16 c=7 v=38
129847 Par ch=16 c=7 v=39
129853 Par ch=16 c=7 v=40
129860 Par ch=16 c=7 v=41
129866 Par ch=16 c=7 v=42
129872 Par ch=16 c=7 v=43
129878 Par ch=16 c=7 v=44
129884 Par ch=16 c=7 v=45
129891 Par ch=16 c=7 v=46
129897 Par ch=16 c=7 v=47
129903 Par ch=16 c=7 v=48
129909 Par ch=16 c=7 v=49
129915 Par ch=16 c=7 v=50
129922 Par ch=16 c=7 v=51
129928 Par ch=16 c=7 v=52
129934 Par ch=16 c=7 v=53
129940 Par ch=16 c=7 v=54
129946 Par ch=16 c=7 v=55
129953 Par ch=16 c=7 v=56
129959 Par ch=16 c=7 v=57
129965 Par ch=16 c=7 v=58
129971 Par ch=16 c=7 v=59
129977 Par ch=16 c=7 v=60
129983 Par ch=16 c=7 v=61
129990 Par ch=16 c=7 v=62
129996 Par ch=16 c=7 v=63
130002 Par ch=16 c=7 v=64
130008 Par ch=16 c=7 v=65
130014 Par ch=16 c=7 v=66
130021 Par ch=16 c=7 v=67
130027 Par ch=16 c=7 v=68
130033 Par ch=16 c=7 v=69
130039 Par ch=16 c=7 v=70
130045 Par ch=16 c=7 v=71
130052 Par ch=16 c=7 v=72
130058 Par ch=16 c=7 v=73
130064 Par ch=16 c=7 v=74
130070 Par ch=16 c=7 v=75
130076 Par ch=16 c=7 v=76
130083 Par ch=16 c=7 v=77
130089 Par ch=16 c=7 v=78
130095 Par ch=16 c=7 v=79
130101 Par ch=16 c=7 v=80
130107 Par ch=16 c=7 v=81
130114 Par ch=16 c=7 v=82
130120 Par ch=16 c=7 v=83
130126 Par ch=16 c=7 v=84
130132 Par ch=16 c=7 v=85
130138 Par ch=16 c=7 v=86
130145 Par ch=16 c=7 v=87
130151 Par ch=16 c=7 v=88
130157 Par ch=16 c=7 v=89
130163 Par ch=16 c=7 v=90
130169 Par ch=16 c=7 v=91
130176 On ch=16 n=e3 v=0
130176 Par ch=16 c=7 v=92
130176 On ch=16 n=e3 v=110
130560 Par ch=16 c=7 v=92
130566 Par ch=16 c=7 v=91
130572 Par ch=16 c=7 v=90
130578 Par ch=16 c=7 v=89
130584 Par ch=16 c=7 v=88
130590 Par ch=16 c=7 v=87
130597 Par ch=16 c=7 v=86
130603 Par ch=16 c=7 v=85
130609 Par ch=16 c=7 v=84
130615 Par ch=16 c=7 v=83
130621 Par ch=16 c=7 v=82
130628 Par ch=16 c=7 v=81
130634 Par ch=16 c=7 v=80
130640 Par ch=16 c=7 v=79
130646 Par ch=16 c=7 v=78
130652 Par ch=16 c=7 v=77
130659 Par ch=16 c=7 v=76
130665 Par ch=16 c=7 v=75
130671 Par ch=16 c=7 v=74
130677 Par ch=16 c=7 v=73
130683 Par ch=16 c=7 v=72
130690 Par ch=16 c=7 v=71
130696 Par ch=16 c=7 v=70
130702 Par ch=16 c=7 v=69
130708 Par ch=16 c=7 v=68
130714 Par ch=16 c=7 v=67
130721 Par ch=16 c=7 v=66
130727 Par ch=16 c=7 v=65
130733 Par ch=16 c=7 v=64
130739 Par ch=16 c=7 v=63
130745 Par ch=16 c=7 v=62
130751 Par ch=16 c=7 v=61
130758 Par ch=16 c=7 v=60
130764 Par ch=16 c=7 v=59
130770 Par ch=16 c=7 v=58
130776 Par ch=16 c=7 v=57
130782 Par ch=16 c=7 v=56
130789 Par ch=16 c=7 v=55
130795 Par ch=16 c=7 v=54
130801 Par ch=16 c=7 v=53
130807 Par ch=16 c=7 v=52
130813 Par ch=16 c=7 v=51
130820 Par ch=16 c=7 v=50
130826 Par ch=16 c=7 v=49
130832 Par ch=16 c=7 v=48
130838 Par ch=16 c=7 v=47
130844 Par ch=16 c=7 v=46
130851 Par ch=16 c=7 v=45
130857 Par ch=16 c=7 v=44
130863 Par ch=16 c=7 v=43
130869 Par ch=16 c=7 v=42
130875 Par ch=16 c=7 v=41
130882 Par ch=16 c=7 v=40
130888 Par ch=16 c=7 v=39
130894 Par ch=16 c=7 v=38
130900 Par ch=16 c=7 v=37
130906 Par ch=16 c=7 v=36
130913 Par ch=16 c=7 v=35
130919 Par ch=16 c=7 v=34
130925 Par ch=16 c=7 v=33
130931 Par ch=16 c=7 v=32
130937 Par ch=16 c=7 v=31
130944 On ch=16 n=e3 v=0
130944 Par ch=16 c=7 v=30
130944 On ch=16 n=e3 v=110
131328 Par ch=16 c=7 v=30
131334 Par ch=16 c=7 v=31
131340 Par ch=16 c=7 v=32
131346 Par ch=16 c=7 v=33
131352 Par ch=16 c=7 v=34
131358 Par ch=16 c=7 v=35
131365 Par ch=16 c=7 v=36
131371 Par ch=16 c=7 v=37
131377 Par ch=16 c=7 v=38
131383 Par ch=16 c=7 v=39
131389 Par ch=16 c=7 v=40
131396 Par ch=16 c=7 v=41
131402 Par ch=16 c=7 v=42
131408 Par ch=16 c=7 v=43
131414 Par ch=16 c=7 v=44
131420 Par ch=16 c=7 v=45
131427 Par ch=16 c=7 v=46
131433 Par ch=16 c=7 v=47
131439 Par ch=16 c=7 v=48
131445 Par ch=16 c=7 v=49
131451 Par ch=16 c=7 v=50
131458 Par ch=16 c=7 v=51
131464 Par ch=16 c=7 v=52
131470 Par ch=16 c=7 v=53
131476 Par ch=16 c=7 v=54
131482 Par ch=16 c=7 v=55
131489 Par ch=16 c=7 v=56
131495 Par ch=16 c=7 v=57
131501 Par ch=16 c=7 v=58
131507 Par ch=16 c=7 v=59
131513 Par ch=16 c=7 v=60
131519 Par ch=16 c=7 v=61
131526 Par ch=16 c=7 v=62
131532 Par ch=16 c=7 v=63
131538 Par ch=16 c=7 v=64
131544 Par ch=16 c=7 v=65
131550 Par ch=16 c=7 v=66
131557 Par ch=16 c=7 v=67
131563 Par ch=16 c=7 v=68
131569 Par ch=16 c=7 v=69
131575 Par ch=16 c=7 v=70
131581 Par ch=16 c=7 v=71
131588 Par ch=16 c=7 v=72
131594 Par ch=16 c=7 v=73
131600 Par ch=16 c=7 v=74
131606 Par ch=16 c=7 v=75
131612 Par ch=16 c=7 v=76
131619 Par ch=16 c=7 v=77
131625 Par ch=16 c=7 v=78
131631 Par ch=16 c=7 v=79
131637 Par ch=16 c=7 v=80
131643 Par ch=16 c=7 v=81
131650 Par ch=16 c=7 v=82
131656 Par ch=16 c=7 v=83
131662 Par ch=16 c=7 v=84
131668 Par ch=16 c=7 v=85
131674 Par ch=16 c=7 v=86
131681 Par ch=16 c=7 v=87
131687 Par ch=16 c=7 v=88
131693 Par ch=16 c=7 v=89
131699 Par ch=16 c=7 v=90
131705 Par ch=16 c=7 v=91
131712 On ch=16 n=e3 v=0
131712 Par ch=16 c=7 v=92
131712 On ch=16 n=e3 v=110
132096 Par ch=16 c=7 v=92
132102 Par ch=16 c=7 v=91
132108 Par ch=16 c=7 v=90
132114 Par ch=16 c=7 v=89
132120 Par ch=16 c=7 v=88
132126 Par ch=16 c=7 v=87
132133 Par ch=16 c=7 v=86
132139 Par ch=16 c=7 v=85
132145 Par ch=16 c=7 v=84
132151 Par ch=16 c=7 v=83
132157 Par ch=16 c=7 v=82
132164 Par ch=16 c=7 v=81
132170 Par ch=16 c=7 v=80
132176 Par ch=16 c=7 v=79
132182 Par ch=16 c=7 v=78
132188 Par ch=16 c=7 v=77
132195 Par ch=16 c=7 v=76
132201 Par ch=16 c=7 v=75
132207 Par ch=16 c=7 v=74
132213 Par ch=16 c=7 v=73
132219 Par ch=16 c=7 v=72
132226 Par ch=16 c=7 v=71
132232 Par ch=16 c=7 v=70
132238 Par ch=16 c=7 v=69
132244 Par ch=16 c=7 v=68
132250 Par ch=16 c=7 v=67
132257 Par ch=16 c=7 v=66
132263 Par ch=16 c=7 v=65
132269 Par ch=16 c=7 v=64
132275 Par ch=16 c=7 v=63
132281 Par ch=16 c=7 v=62
132287 Par ch=16 c=7 v=61
132294 Par ch=16 c=7 v=60
132300 Par ch=16 c=7 v=59
132306 Par ch=16 c=7 v=58
132312 Par ch=16 c=7 v=57
132318 Par ch=16 c=7 v=56
132325 Par ch=16 c=7 v=55
132331 Par ch=16 c=7 v=54
132337 Par ch=16 c=7 v=53
132343 Par ch=16 c=7 v=52
132349 Par ch=16 c=7 v=51
132356 Par ch=16 c=7 v=50
132362 Par ch=16 c=7 v=49
132368 Par ch=16 c=7 v=48
132374 Par ch=16 c=7 v=47
132380 Par ch=16 c=7 v=46
132387 Par ch=16 c=7 v=45
132393 Par ch=16 c=7 v=44
132399 Par ch=16 c=7 v=43
132405 Par ch=16 c=7 v=42
132411 Par ch=16 c=7 v=41
132418 Par ch=16 c=7 v=40
132424 Par ch=16 c=7 v=39
132430 Par ch=16 c=7 v=38
132436 Par ch=16 c=7 v=37
132442 Par ch=16 c=7 v=36
132449 Par ch=16 c=7 v=35
132455 Par ch=16 c=7 v=34
132461 Par ch=16 c=7 v=33
132467 Par ch=16 c=7 v=32
132473 Par ch=16 c=7 v=31
132480 On ch=16 n=e3 v=0
132480 Par ch=16 c=7 v=30
132480 On ch=16 n=e3 v=110
134110 On ch=16 n=e3 v=0
137088 Par ch=16 c=121 v=127
137088 Meta TrkEnd
TrkEnd
MTrk
0 Meta TrkName "Sergej Vasil'evic Rachmaninov"
0 Meta 0x21 00
0 Meta TrkEnd
TrkEnd
MTrk
0 Meta TrkName "(Oneg 1873 - Beverly Hills 1943)"
0 Meta 0x21 00
0 Meta TrkEnd
TrkEnd
MTrk
0 Meta TrkName "Copyright \xffffffa9 2002 by Dario Galimberti"
0 Meta 0x21 00
0 Meta TrkEnd
TrkEnd
MTrk
0 Meta TrkName "email: dario.galimberti@poste.it"
0 Meta 0x21 00
0 Meta TrkEnd
TrkEnd
MTrk
0 Meta TrkName "All Rights Reserved"
0 Meta 0x21 00
0 Meta TrkEnd
TrkEnd
