MFile 1 2 480
MTrk
0 TimeSig 4/4 24 8
0 Tempo 500000
0 Meta TrkEnd
TrkEnd
MTrk
0 SeqSpec 43 00 01 00
0 SysEx f0 7e 7f 09 01 f7
0 Par ch=1 c=1 v=0
0 Par ch=1 c=11 v=0
0 Par ch=1 c=64 v=0
0 Par ch=1 c=66 v=0
0 Par ch=1 c=67 v=0
0 Par ch=1 c=121 v=0
0 Par ch=1 c=1 v=0
0 Par ch=1 c=11 v=0
0 Par ch=1 c=64 v=0
0 Par ch=1 c=66 v=0
0 Par ch=1 c=67 v=0
0 Par ch=1 c=121 v=0
1924 Par ch=1 c=64 v=127
3087 On ch=1 n=c#3 v=50
3771 Par ch=1 c=67 v=127
4171 On ch=1 n=f4 v=37
4507 On ch=1 n=c#5 v=34
4735 On ch=1 n=g#4 v=39
4745 On ch=1 n=c#5 v=0
5036 On ch=1 n=f5 v=38
5048 On ch=1 n=g#4 v=0
5205 On ch=1 n=f4 v=0
5281 On ch=1 n=c#5 v=34
5536 On ch=1 n=g#4 v=36
5576 On ch=1 n=c#5 v=0
5797 On ch=1 n=f4 v=37
5825 On ch=1 n=g#4 v=0
5960 On ch=1 n=f5 v=0
6075 On ch=1 n=c#5 v=34
6288 On ch=1 n=c#5 v=0
6295 On ch=1 n=g#4 v=35
6544 On ch=1 n=c#3 v=0
6544 On ch=1 n=f5 v=38
6721 On ch=1 n=g#4 v=0
6801 On ch=1 n=c#5 v=34
7036 On ch=1 n=f4 v=0
7056 On ch=1 n=c#5 v=0
7108 On ch=1 n=c#3 v=35
7476 On ch=1 n=f4 v=36
7584 On ch=1 n=f5 v=0
7772 On ch=1 n=c#5 v=32
8020 On ch=1 n=c#5 v=0
8020 On ch=1 n=g#4 v=33
8284 On ch=1 n=f5 v=38
8312 On ch=1 n=g#4 v=0
8477 On ch=1 n=f4 v=0
8532 On ch=1 n=c#5 v=34
8788 On ch=1 n=g#4 v=34
8868 On ch=1 n=c#5 v=0
9040 On ch=1 n=f4 v=35
9088 On ch=1 n=g#4 v=0
9141 On ch=1 n=c#3 v=0
9316 On ch=1 n=c#5 v=34
9321 On ch=1 n=f5 v=0
9589 On ch=1 n=g#4 v=34
9600 On ch=1 n=c#5 v=0
9832 On ch=1 n=f5 v=36
9841 On ch=1 n=g#4 v=0
10081 On ch=1 n=c#5 v=33
10241 On ch=1 n=f4 v=0
10264 On ch=1 n=f5 v=0
10308 On ch=1 n=c#5 v=0
10318 On ch=1 n=c#3 v=40
10662 On ch=1 n=f4 v=38
10958 On ch=1 n=c#5 v=37
11205 On ch=1 n=g#4 v=37
11242 On ch=1 n=c#5 v=0
11446 On ch=1 n=f5 v=38
11454 On ch=1 n=c#3 v=0
11472 On ch=1 n=g#4 v=0
11654 On ch=1 n=f4 v=0
11685 On ch=1 n=c#5 v=39
11941 On ch=1 n=g#4 v=32
12105 On ch=1 n=c#5 v=0
12174 On ch=1 n=f4 v=38
12226 On ch=1 n=g#4 v=0
12414 On ch=1 n=c#5 v=37
12585 On ch=1 n=f5 v=0
12658 On ch=1 n=c#5 v=0
12681 On ch=1 n=g#4 v=34
12774 On ch=1 n=f6 v=84
12942 On ch=1 n=g#4 v=0
13029 On ch=1 n=f5 v=39
13273 On ch=1 n=f6 v=0
13308 On ch=1 n=c#5 v=37
13657 Par ch=1 c=64 v=0
13705 On ch=1 n=f6 v=80
13733 Par ch=1 c=64 v=127
13754 On ch=1 n=c#5 v=0
13905 On ch=1 n=f4 v=0
14053 On ch=1 n=g4 v=39
14289 On ch=1 n=c#5 v=34
14294 On ch=1 n=f5 v=0
14572 On ch=1 n=a#4 v=33
14586 On ch=1 n=c#5 v=0
14745 On ch=1 n=f6 v=0
14774 On ch=1 n=f5 v=37
14874 On ch=1 n=a#4 v=0
15013 On ch=1 n=c#5 v=40
15209 On ch=1 n=f5 v=0
15225 On ch=1 n=a#5 v=63
15234 On ch=1 n=g4 v=0
15238 On ch=1 n=a#4 v=37
15418 On ch=1 n=c#5 v=0
15472 On ch=1 n=a#4 v=0
15472 On ch=1 n=g4 v=37
15612 On ch=1 n=c6 v=78
15718 On ch=1 n=c#5 v=40
15741 On ch=1 n=a#5 v=0
15965 On ch=1 n=c#6 v=87
15982 On ch=1 n=a#4 v=39
16033 On ch=1 n=c#5 v=0
16234 On ch=1 n=c6 v=0
16234 On ch=1 n=f5 v=36
16312 Par ch=1 c=64 v=0
16345 On ch=1 n=f6 v=88
16392 Par ch=1 c=64 v=127
16417 On ch=1 n=a#4 v=0
16454 On ch=1 n=f6 v=0
16478 On ch=1 n=c#5 v=40
16589 On ch=1 n=c#6 v=0
16665 On ch=1 n=f5 v=0
16709 On ch=1 n=c#5 v=0
16806 Par ch=1 c=67 v=0
16853 On ch=1 n=f6 v=81
16878 On ch=1 n=g4 v=0
17202 Par ch=1 c=67 v=127
17202 On ch=1 n=f#4 v=42
17265 Par ch=1 c=64 v=0
17453 Par ch=1 c=64 v=127
17457 On ch=1 n=c5 v=38
17637 On ch=1 n=f#4 v=0
17698 On ch=1 n=g#4 v=34
17909 On ch=1 n=f5 v=35
17937 On ch=1 n=c5 v=0
17949 On ch=1 n=f6 v=0
18089 On ch=1 n=g#4 v=0
18153 On ch=1 n=c5 v=37
18345 On ch=1 n=f5 v=0
18405 On ch=1 n=g#4 v=34
18518 On ch=1 n=c5 v=0
18654 On ch=1 n=f#4 v=42
18721 On ch=1 n=g#4 v=0
18754 On ch=1 n=d#6 v=59
18869 On ch=1 n=c5 v=37
19093 On ch=1 n=f#4 v=0
19158 On ch=1 n=g#4 v=40
19194 On ch=1 n=f6 v=65
19197 On ch=1 n=c5 v=0
19378 On ch=1 n=f6 v=0
19454 On ch=1 n=d#6 v=0
19454 On ch=1 n=d#5 v=35
19588 On ch=1 n=g#4 v=0
19633 On ch=1 n=d#6 v=62
19772 On ch=1 n=c5 v=37
19872 On ch=1 n=d#5 v=0
20189 On ch=1 n=c5 v=0
20233 On ch=1 n=c#3 v=44
20238 Par ch=1 c=64 v=0
20245 On ch=1 n=c#6 v=59
20474 On ch=1 n=d#6 v=0
20529 Par ch=1 c=64 v=127
20593 On ch=1 n=c#3 v=0
20892 On ch=1 n=f4 v=36
21228 On ch=1 n=c#5 v=34
21434 On ch=1 n=g#4 v=34
21654 On ch=1 n=f5 v=33
21661 On ch=1 n=c#5 v=0
21705 On ch=1 n=g#4 v=0
21788 On ch=1 n=f4 v=0
21885 On ch=1 n=c#5 v=34
22074 On ch=1 n=c#6 v=0
22089 On ch=1 n=f5 v=0
22154 On ch=1 n=g#4 v=33
22322 On ch=1 n=c#5 v=0
22392 On ch=1 n=f4 v=34
22409 On ch=1 n=g#4 v=0
22632 On ch=1 n=c#5 v=32
22809 On ch=1 n=f4 v=0
22906 On ch=1 n=g#4 v=33
22913 On ch=1 n=c#5 v=0
23022 On ch=1 n=f6 v=50
23181 On ch=1 n=f5 v=39
23198 On ch=1 n=c#6 v=52
23341 On ch=1 n=g#4 v=0
23378 On ch=1 n=a#6 v=57
23474 On ch=1 n=c#6 v=0
23474 On ch=1 n=c#5 v=32
23542 On ch=1 n=f6 v=0
23593 On ch=1 n=g#6 v=53
23613 On ch=1 n=f5 v=0
23761 On ch=1 n=a#6 v=0
23894 On ch=1 n=c#5 v=0
23958 On ch=1 n=f4 v=25
24225 On ch=1 n=c#5 v=26
24452 On ch=1 n=g#4 v=28
24612 On ch=1 n=c#5 v=0
24686 On ch=1 n=f5 v=33
24729 On ch=1 n=g#4 v=0
24906 On ch=1 n=c#5 v=33
25033 On ch=1 n=g#6 v=0
25098 On ch=1 n=f5 v=0
25145 On ch=1 n=g#4 v=34
25182 On ch=1 n=f4 v=0
25237 On ch=1 n=c#5 v=0
25402 On ch=1 n=f4 v=33
25425 On ch=1 n=g#4 v=0
25618 On ch=1 n=c#5 v=36
25813 On ch=1 n=f4 v=0
25869 On ch=1 n=g#4 v=32
25973 On ch=1 n=c#5 v=0
26009 On ch=1 n=f6 v=77
26137 On ch=1 n=f5 v=41
26253 On ch=1 n=g#4 v=0
26429 On ch=1 n=f6 v=0
26445 On ch=1 n=f5 v=0
26498 On ch=1 n=c#5 v=39
26541 Par ch=1 c=67 v=0
26922 On ch=1 n=c#5 v=0
26953 On ch=1 n=c#3 v=35
26986 Par ch=1 c=64 v=0
27105 On ch=1 n=f6 v=79
27169 Par ch=1 c=64 v=127
27369 On ch=1 n=c#3 v=0
27465 Par ch=1 c=67 v=127
27628 On ch=1 n=g4 v=38
27909 On ch=1 n=c#5 v=43
28121 On ch=1 n=a#4 v=46
28133 On ch=1 n=c#5 v=0
28332 On ch=1 n=f5 v=46
28394 On ch=1 n=a#4 v=0
28562 On ch=1 n=c#5 v=41
28754 On ch=1 n=g4 v=0
28754 On ch=1 n=a#5 v=66
28809 On ch=1 n=a#4 v=37
28905 On ch=1 n=c#5 v=0
28962 On ch=1 n=a#4 v=0
29025 On ch=1 n=g4 v=39
29129 On ch=1 n=c6 v=82
29253 On ch=1 n=a#5 v=0
29269 On ch=1 n=c#5 v=41
29357 On ch=1 n=f5 v=0
29466 On ch=1 n=c#6 v=87
29525 On ch=1 n=a#4 v=39
29558 On ch=1 n=c#5 v=0
29609 Par ch=1 c=67 v=0
29729 On ch=1 n=c6 v=0
29745 On ch=1 n=f5 v=38
29805 On ch=1 n=f6 v=0
29821 On ch=1 n=f6 v=87
29969 On ch=1 n=c#6 v=0
29979 On ch=1 n=c#5 v=34
30030 On ch=1 n=f6 v=0
30186 On ch=1 n=c#5 v=0
30222 On ch=1 n=a#4 v=0
30232 On ch=1 n=f6 v=87
30323 On ch=1 n=g4 v=0
30562 On ch=1 n=g4 v=41
30623 Par ch=1 c=64 v=0
30646 On ch=1 n=f5 v=0
30706 Par ch=1 c=67 v=127
30723 Par ch=1 c=64 v=127
30752 On ch=1 n=c#5 v=43
30999 On ch=1 n=c#5 v=0
31008 On ch=1 n=a#4 v=35
31199 On ch=1 n=f5 v=39
31243 Par ch=1 c=67 v=0
31419 On ch=1 n=c#5 v=41
31468 On ch=1 n=c#5 v=0
31483 On ch=1 n=f5 v=0
31543 On ch=1 n=a#4 v=0
31616 On ch=1 n=g4 v=0
31699 Par ch=1 c=64 v=0
31743 On ch=1 n=c3 v=58
31868 Par ch=1 c=64 v=127
31943 On ch=1 n=c3 v=0
32195 On ch=1 n=g4 v=46
32287 On ch=1 n=e6 v=81
32468 On ch=1 n=c#5 v=37
32547 On ch=1 n=c#5 v=0
32642 On ch=1 n=e6 v=0
32695 On ch=1 n=g#6 v=85
32707 On ch=1 n=a#4 v=42
32836 On ch=1 n=f6 v=0
32992 On ch=1 n=e5 v=39
33099 On ch=1 n=g6 v=83
33115 On ch=1 n=a#4 v=0
33195 On ch=1 n=g#6 v=0
33227 On ch=1 n=c5 v=46
33263 On ch=1 n=e5 v=0
33439 On ch=1 n=c5 v=0
33487 On ch=1 n=g4 v=0
33599 On ch=1 n=f3 v=53
33616 Par ch=1 c=64 v=0
33646 On ch=1 n=f6 v=83
33852 On ch=1 n=g6 v=0
33899 Par ch=1 c=64 v=127
33986 On ch=1 n=f3 v=0
34023 Par ch=1 c=67 v=127
34279 On ch=1 n=g#4 v=38
34508 On ch=1 n=f5 v=44
34660 On ch=1 n=f5 v=0
34747 On ch=1 n=c5 v=36
34783 On ch=1 n=g#4 v=0
34960 On ch=1 n=c5 v=0
34971 On ch=1 n=g#5 v=41
35199 On ch=1 n=f5 v=37
35243 On ch=1 n=g#5 v=0
35435 On ch=1 n=c5 v=38
35519 On ch=1 n=f5 v=0
35628 On ch=1 n=g#4 v=41
35632 On ch=1 n=f6 v=0
35643 On ch=1 n=c5 v=0
35859 On ch=1 n=f5 v=38
36059 On ch=1 n=c5 v=43
36099 On ch=1 n=f5 v=0
36135 On ch=1 n=g#4 v=0
36215 On ch=1 n=g#6 v=62
36307 On ch=1 n=c5 v=0
36339 On ch=1 n=g#5 v=30
36380 On ch=1 n=f6 v=63
36543 On ch=1 n=c#7 v=69
36586 On ch=1 n=g#5 v=0
36596 On ch=1 n=f6 v=0
36623 On ch=1 n=f5 v=29
36743 On ch=1 n=f5 v=0
36759 On ch=1 n=c#7 v=0
36759 On ch=1 n=g#6 v=0
36783 On ch=1 n=c7 v=62
37048 On ch=1 n=g#4 v=34
37266 On ch=1 n=f5 v=35
37379 On ch=1 n=g#4 v=0
37475 On ch=1 n=f5 v=0
37503 On ch=1 n=c5 v=33
37723 On ch=1 n=c5 v=0
37743 On ch=1 n=g#5 v=33
37923 On ch=1 n=g#5 v=0
37932 On ch=1 n=f5 v=34
38167 On ch=1 n=c5 v=34
38236 On ch=1 n=f5 v=0
38403 On ch=1 n=g#4 v=36
38415 On ch=1 n=c5 v=0
38439 On ch=1 n=c7 v=0
38627 On ch=1 n=f5 v=30
38772 On ch=1 n=g#4 v=0
38832 On ch=1 n=c5 v=35
38879 On ch=1 n=f5 v=0
39060 On ch=1 n=g#6 v=79
39183 On ch=1 n=g#5 v=36
39207 On ch=1 n=c5 v=0
39323 On ch=1 n=g#5 v=0
39488 Par ch=1 c=67 v=0
39546 On ch=1 n=g#6 v=0
39548 On ch=1 n=f5 v=28
39643 On ch=1 n=f5 v=0
39956 On ch=1 n=f3 v=43
39982 Par ch=1 c=64 v=0
40103 On ch=1 n=g#6 v=86
40166 Par ch=1 c=64 v=127
40295 On ch=1 n=f3 v=0
40552 Par ch=1 c=67 v=127
40559 On ch=1 n=g#4 v=36
40800 On ch=1 n=d5 v=40
41003 On ch=1 n=b4 v=42
41039 On ch=1 n=d5 v=0
41177 Par ch=1 c=67 v=0
41236 On ch=1 n=g#5 v=43
41279 On ch=1 n=b4 v=0
41409 On ch=1 n=d5 v=42
41425 On ch=1 n=g#5 v=0
41579 On ch=1 n=g#4 v=0
41596 On ch=1 n=b4 v=39
41605 On ch=1 n=d6 v=76
41660 On ch=1 n=d5 v=0
41849 On ch=1 n=g#4 v=35
41900 On ch=1 n=b4 v=0
41976 On ch=1 n=d#6 v=89
42109 On ch=1 n=d5 v=42
42156 On ch=1 n=d6 v=0
42332 On ch=1 n=f6 v=85
42336 On ch=1 n=b4 v=41
42360 On ch=1 n=d5 v=0
42528 On ch=1 n=d#6 v=0
42560 On ch=1 n=g#5 v=43
42636 On ch=1 n=g#6 v=0
42680 On ch=1 n=g#6 v=90
42696 On ch=1 n=g#5 v=0
42800 On ch=1 n=d5 v=47
42843 On ch=1 n=d5 v=0
42860 On ch=1 n=f6 v=0
42865 On ch=1 n=b4 v=0
43023 On ch=1 n=g#4 v=0
43065 On ch=1 n=g#6 v=0
43124 On ch=1 n=f#3 v=47
43124 On ch=1 n=g#6 v=83
43128 Par ch=1 c=64 v=0
43336 Par ch=1 c=64 v=127
43340 On ch=1 n=f#3 v=0
43604 On ch=1 n=f#4 v=44
43836 On ch=1 n=d#5 v=45
43997 On ch=1 n=d#5 v=0
44049 On ch=1 n=a#4 v=47
44233 Par ch=1 c=67 v=127
44273 On ch=1 n=f#5 v=39
44333 On ch=1 n=a#4 v=0
44440 On ch=1 n=f#4 v=0
44468 On ch=1 n=d#5 v=44
44500 On ch=1 n=f#5 v=0
44676 On ch=1 n=a#4 v=45
44812 On ch=1 n=d#5 v=0
44889 On ch=1 n=f#4 v=40
44960 On ch=1 n=a#4 v=0
45005 On ch=1 n=a#5 v=70
45136 On ch=1 n=d#5 v=39
45256 Par ch=1 c=67 v=0
45336 On ch=1 n=a#5 v=0
45345 On ch=1 n=c6 v=78
45349 On ch=1 n=a#4 v=43
45408 On ch=1 n=d#5 v=0
45468 On ch=1 n=f#4 v=0
45569 On ch=1 n=f#5 v=41
45680 On ch=1 n=d6 v=84
45745 On ch=1 n=f#5 v=0
45800 On ch=1 n=d#5 v=41
45897 On ch=1 n=c6 v=0
45956 On ch=1 n=g#6 v=0
45973 On ch=1 n=d#6 v=86
46116 On ch=1 n=d6 v=0
46144 On ch=1 n=d#6 v=0
46312 On ch=1 n=f6 v=88
46529 On ch=1 n=d#5 v=0
46600 On ch=1 n=f6 v=0
46648 On ch=1 n=f#6 v=92
46656 On ch=1 n=a#4 v=0
46700 Par ch=1 c=64 v=0
46805 Par ch=1 c=64 v=127
47032 On ch=1 n=f#6 v=0
47032 On ch=1 n=g#6 v=98
47265 On ch=1 n=g#6 v=0
47505 On ch=1 n=a6 v=90
47569 Par ch=1 c=64 v=0
47772 Par ch=1 c=64 v=127
48085 On ch=1 n=c7 v=90
48100 On ch=1 n=a6 v=0
48200 Par ch=1 c=64 v=0
48353 Par ch=1 c=64 v=127
48560 On ch=1 n=c7 v=0
49293 On ch=1 n=a#6 v=77
49716 On ch=1 n=a#6 v=0
49868 On ch=1 n=a#6 v=83
49883 Par ch=1 c=64 v=0
49908 On ch=1 n=g#3 v=45
50085 Par ch=1 c=64 v=127
50300 On ch=1 n=g#3 v=0
50504 Par ch=1 c=67 v=127
50660 On ch=1 n=f4 v=30
50976 On ch=1 n=c#5 v=30
51172 On ch=1 n=c#5 v=0
51203 On ch=1 n=g#4 v=35
51444 On ch=1 n=f5 v=35
51445 On ch=1 n=g#4 v=0
51584 On ch=1 n=f4 v=0
51683 On ch=1 n=c#5 v=32
51920 On ch=1 n=g#4 v=32
51956 On ch=1 n=c#5 v=0
52148 On ch=1 n=g#4 v=0
52165 On ch=1 n=f4 v=31
52169 On ch=1 n=g#6 v=65
52339 On ch=1 n=f5 v=0
52400 On ch=1 n=a#6 v=0
52433 On ch=1 n=c#5 v=31
52493 On ch=1 n=c#7 v=69
52660 On ch=1 n=g#6 v=0
52717 On ch=1 n=c#5 v=0
52745 On ch=1 n=c7 v=70
52745 On ch=1 n=g#4 v=31
52983 On ch=1 n=e6 v=61
53000 On ch=1 n=f5 v=35
53010 On ch=1 n=c7 v=0
53040 On ch=1 n=c#7 v=0
53196 On ch=1 n=f6 v=70
53206 On ch=1 n=c#5 v=36
53237 On ch=1 n=e6 v=0
53390 On ch=1 n=f5 v=0
53413 On ch=1 n=a#6 v=71
53593 On ch=1 n=f6 v=0
53629 On ch=1 n=g#6 v=71
53761 On ch=1 n=a#6 v=0
53777 On ch=1 n=g#6 v=0
53837 On ch=1 n=c6 v=69
54066 On ch=1 n=c#6 v=69
54097 On ch=1 n=c6 v=0
54114 Par ch=1 c=64 v=0
54260 Par ch=1 c=64 v=127
54277 On ch=1 n=f#6 v=67
54394 On ch=1 n=c#6 v=0
54453 On ch=1 n=c#5 v=0
54473 On ch=1 n=g#4 v=0
54482 On ch=1 n=f6 v=64
54621 On ch=1 n=f6 v=0
54662 On ch=1 n=f#6 v=0
54722 On ch=1 n=g5 v=59
54809 Par ch=1 c=64 v=0
54817 On ch=1 n=f4 v=0
54954 Par ch=1 c=64 v=127
54961 On ch=1 n=g#5 v=60
54997 On ch=1 n=g5 v=0
55174 On ch=1 n=a#5 v=70
55277 On ch=1 n=g#5 v=0
55326 On ch=1 n=a#5 v=0
55409 On ch=1 n=c6 v=70
55617 On ch=1 n=c#6 v=77
55649 Par ch=1 c=67 v=0
55797 On ch=1 n=c6 v=0
55876 On ch=1 n=f6 v=74
56146 Par ch=1 c=67 v=127
56157 On ch=1 n=c#6 v=0
56169 On ch=1 n=f6 v=0
56246 Par ch=1 c=64 v=0
56257 On ch=1 n=f6 v=74
56269 On ch=1 n=g#3 v=32
56457 Par ch=1 c=64 v=127
56480 On ch=1 n=g#3 v=0
56810 On ch=1 n=g4 v=35
57126 On ch=1 n=c#5 v=25
57377 On ch=1 n=c#5 v=0
57377 On ch=1 n=a#4 v=28
57597 On ch=1 n=f5 v=33
57873 On ch=1 n=f5 v=0
57873 On ch=1 n=c#5 v=36
57945 On ch=1 n=c#5 v=0
58066 On ch=1 n=a#4 v=0
58093 On ch=1 n=g4 v=0
58277 Par ch=1 c=64 v=0
58293 On ch=1 n=g#3 v=39
58457 Par ch=1 c=64 v=127
58545 On ch=1 n=g#3 v=0
58786 On ch=1 n=f6 v=0
58909 On ch=1 n=f#4 v=30
58960 On ch=1 n=d#6 v=58
59186 On ch=1 n=c5 v=34
59437 On ch=1 n=f6 v=59
59437 On ch=1 n=g#4 v=37
59466 On ch=1 n=c5 v=0
59702 On ch=1 n=d#6 v=0
59737 On ch=1 n=d#5 v=31
59894 On ch=1 n=d#6 v=56
59929 On ch=1 n=f6 v=0
59957 On ch=1 n=g#4 v=0
59973 On ch=1 n=d#5 v=0
60049 On ch=1 n=f#4 v=0
60106 On ch=1 n=c5 v=33
60182 On ch=1 n=c5 v=0
60585 Par ch=1 c=64 v=0
60613 On ch=1 n=c#3 v=41
60633 On ch=1 n=c#6 v=65
60881 On ch=1 n=d#6 v=0
60893 Par ch=1 c=64 v=127
61306 On ch=1 n=f4 v=41
61321 On ch=1 n=c#3 v=0
61617 On ch=1 n=c#5 v=29
61853 On ch=1 n=g#4 v=33
61869 On ch=1 n=c#5 v=0
62077 On ch=1 n=f5 v=34
62181 On ch=1 n=g#4 v=0
62313 On ch=1 n=c#6 v=0
62320 On ch=1 n=c#5 v=38
62481 On ch=1 n=f4 v=0
62569 On ch=1 n=g#4 v=34
62713 On ch=1 n=c#5 v=0
62821 On ch=1 n=f4 v=38
62836 On ch=1 n=g#4 v=0
63041 On ch=1 n=c#5 v=38
63189 On ch=1 n=f5 v=0
63273 On ch=1 n=g#4 v=35
63361 On ch=1 n=c#5 v=0
63510 On ch=1 n=f5 v=38
63717 On ch=1 n=c#5 v=38
63950 On ch=1 n=c#5 v=0
63986 On ch=1 n=g#4 v=0
64046 On ch=1 n=f4 v=0
64077 Par ch=1 c=67 v=0
64461 Par ch=1 c=64 v=0
64506 Par ch=1 c=67 v=127
64506 On ch=1 n=f4 v=38
64537 Par ch=1 c=64 v=127
64753 On ch=1 n=c#5 v=35
64997 On ch=1 n=g#4 v=37
65033 On ch=1 n=f5 v=0
65045 On ch=1 n=c#5 v=0
65222 On ch=1 n=f5 v=37
65250 On ch=1 n=g#4 v=0
65342 On ch=1 n=f4 v=0
65433 On ch=1 n=c#5 v=38
65682 On ch=1 n=g#4 v=34
65769 On ch=1 n=c#5 v=0
65901 On ch=1 n=f4 v=38
65989 On ch=1 n=g#4 v=0
66106 On ch=1 n=c#5 v=41
66273 Par ch=1 c=67 v=0
66293 On ch=1 n=f5 v=0
66353 On ch=1 n=g#4 v=35
66446 On ch=1 n=c#5 v=0
66502 On ch=1 n=f7 v=85
66502 On ch=1 n=f6 v=66
66693 On ch=1 n=f5 v=41
66740 On ch=1 n=g#4 v=0
66933 On ch=1 n=f5 v=0
66962 On ch=1 n=f6 v=0
66993 On ch=1 n=c#5 v=39
66997 On ch=1 n=f7 v=0
67045 On ch=1 n=c#5 v=0
67183 On ch=1 n=f4 v=0
67358 On ch=1 n=c#3 v=47
67486 On ch=1 n=f6 v=74
67486 On ch=1 n=f7 v=88
67683 On ch=1 n=c#3 v=0
68038 On ch=1 n=g4 v=41
68250 Par ch=1 c=67 v=127
68294 On ch=1 n=c#5 v=33
68558 On ch=1 n=a#4 v=31
68590 On ch=1 n=c#5 v=0
68650 On ch=1 n=f7 v=0
68734 On ch=1 n=a#4 v=0
68734 On ch=1 n=f6 v=0
68758 On ch=1 n=f5 v=36
68926 Par ch=1 c=67 v=0
68971 On ch=1 n=c#5 v=35
69030 On ch=1 n=f5 v=0
69117 On ch=1 n=g4 v=0
69163 On ch=1 n=a#6 v=75
69182 On ch=1 n=a#5 v=56
69210 On ch=1 n=a#4 v=35
69359 On ch=1 n=a#5 v=0
69359 On ch=1 n=c#5 v=0
69438 On ch=1 n=a#4 v=0
69442 On ch=1 n=g4 v=37
69554 On ch=1 n=a#6 v=0
69571 On ch=1 n=c7 v=84
69571 On ch=1 n=c6 v=68
69690 On ch=1 n=c6 v=0
69694 On ch=1 n=c#5 v=42
69727 On ch=1 n=c7 v=0
69927 On ch=1 n=c#7 v=90
69927 On ch=1 n=c#6 v=81
69979 On ch=1 n=a#4 v=36
69998 On ch=1 n=c#5 v=0
70170 On ch=1 n=f5 v=41
70226 On ch=1 n=c#7 v=0
70243 On ch=1 n=c#6 v=0
70287 On ch=1 n=f7 v=93
70287 On ch=1 n=f6 v=88
70423 On ch=1 n=c#5 v=39
70614 On ch=1 n=f5 v=0
70630 On ch=1 n=f7 v=0
70642 On ch=1 n=f6 v=0
70674 On ch=1 n=c#5 v=0
70703 On ch=1 n=f6 v=80
70706 On ch=1 n=f7 v=91
70706 Par ch=1 c=64 v=0
70731 On ch=1 n=a#4 v=0
70779 Par ch=1 c=64 v=127
70814 On ch=1 n=g4 v=0
71080 On ch=1 n=f#4 v=46
71296 On ch=1 n=c5 v=45
71324 Par ch=1 c=67 v=127
71467 On ch=1 n=f#4 v=0
71535 On ch=1 n=g#4 v=44
71731 On ch=1 n=f5 v=44
71743 On ch=1 n=c5 v=0
71830 On ch=1 n=g#4 v=0
71947 On ch=1 n=c5 v=45
72007 On ch=1 n=f5 v=0
72087 On ch=1 n=c5 v=0
72195 On ch=1 n=f7 v=0
72196 On ch=1 n=g#4 v=38
72231 On ch=1 n=f6 v=0
72407 On ch=1 n=f#4 v=43
72467 On ch=1 n=g#4 v=0
72510 On ch=1 n=d#6 v=85
72510 On ch=1 n=d#7 v=85
72644 On ch=1 n=c5 v=42
72751 Par ch=1 c=67 v=0
72803 On ch=1 n=c5 v=0
72896 On ch=1 n=f#4 v=0
72911 On ch=1 n=g#4 v=32
72940 On ch=1 n=f7 v=93
72940 On ch=1 n=f6 v=80
73011 On ch=1 n=d#7 v=0
73011 On ch=1 n=d#6 v=0
73167 On ch=1 n=f7 v=0
73174 On ch=1 n=f6 v=0
73184 On ch=1 n=d#5 v=33
73337 On ch=1 n=d#7 v=79
73337 On ch=1 n=d#6 v=65
73401 On ch=1 n=d#5 v=0
73457 On ch=1 n=c5 v=39
73500 On ch=1 n=g#4 v=0
73521 On ch=1 n=c5 v=0
73767 On ch=1 n=d#7 v=0
73771 On ch=1 n=d#6 v=0
73808 On ch=1 n=c#3 v=42
73872 On ch=1 n=c#7 v=75
73873 Par ch=1 c=64 v=0
73900 On ch=1 n=c#6 v=55
74064 On ch=1 n=c#3 v=0
74100 Par ch=1 c=64 v=127
74107 Par ch=1 c=67 v=127
74404 On ch=1 n=f4 v=30
74668 On ch=1 n=c#5 v=32
74892 On ch=1 n=c#5 v=0
74900 On ch=1 n=g#4 v=37
75064 On ch=1 n=c#7 v=0
75113 On ch=1 n=f5 v=37
75161 On ch=1 n=g#4 v=0
75280 On ch=1 n=f4 v=0
75308 On ch=1 n=c#6 v=0
75320 On ch=1 n=c#5 v=36
75536 On ch=1 n=g#4 v=38
75693 On ch=1 n=c#5 v=0
75728 On ch=1 n=f6 v=65
75771 On ch=1 n=f4 v=34
75813 On ch=1 n=g#4 v=0
75891 On ch=1 n=c#6 v=67
76007 On ch=1 n=c#5 v=41
76021 On ch=1 n=f5 v=0
76068 On ch=1 n=a#6 v=78
76072 On ch=1 n=c#6 v=0
76164 On ch=1 n=a#6 v=0
76225 On ch=1 n=f6 v=0
76225 On ch=1 n=g#4 v=43
76260 On ch=1 n=g#6 v=75
76264 On ch=1 n=c#5 v=0
76417 On ch=1 n=f7 v=79
76420 On ch=1 n=g#6 v=0
76473 On ch=1 n=f5 v=41
76588 On ch=1 n=c#7 v=82
76648 On ch=1 n=c#5 v=41
76740 Par ch=1 c=67 v=0
76757 On ch=1 n=a#7 v=83
76844 On ch=1 n=c#7 v=0
76920 On ch=1 n=g#4 v=0
76948 On ch=1 n=c#5 v=0
76977 On ch=1 n=f7 v=0
76993 Par ch=1 c=64 v=0
77024 On ch=1 n=g#7 v=78
77024 On ch=1 n=c#3 v=45
77044 On ch=1 n=f4 v=0
77064 Par ch=1 c=64 v=127
77151 Par ch=1 c=67 v=127
77273 On ch=1 n=c#3 v=0
77341 On ch=1 n=f5 v=0
77468 On ch=1 n=f4 v=36
77668 On ch=1 n=c#5 v=37
77871 On ch=1 n=g#4 v=42
77905 On ch=1 n=f4 v=0
78068 On ch=1 n=f5 v=42
78080 On ch=1 n=a#7 v=0
78084 On ch=1 n=c#5 v=0
78125 On ch=1 n=g#7 v=0
78244 On ch=1 n=c#5 v=41
78271 On ch=1 n=g#4 v=0
78472 On ch=1 n=f5 v=0
78472 On ch=1 n=g#4 v=41
78645 On ch=1 n=c#5 v=0
78696 On ch=1 n=f4 v=41
78888 On ch=1 n=g#4 v=0
78900 On ch=1 n=c#5 v=37
79120 On ch=1 n=f4 v=0
79152 On ch=1 n=g#4 v=41
79240 On ch=1 n=f7 v=85
79240 On ch=1 n=f6 v=70
79321 On ch=1 n=c#5 v=0
79391 Par ch=1 c=67 v=0
79480 On ch=1 n=f5 v=41
79553 On ch=1 n=g#4 v=0
79621 On ch=1 n=f6 v=0
79651 On ch=1 n=f7 v=0
79748 On ch=1 n=c#5 v=40
79884 On ch=1 n=f5 v=0
80020 Par ch=1 c=64 v=0
80051 On ch=1 n=c#3 v=45
80093 Par ch=1 c=64 v=127
80164 On ch=1 n=c#5 v=0
80171 On ch=1 n=f7 v=83
80171 On ch=1 n=f6 v=68
80317 On ch=1 n=c#3 v=0
80613 On ch=1 n=g4 v=37
80853 On ch=1 n=c#5 v=41
81093 On ch=1 n=a#4 v=35
81112 On ch=1 n=c#5 v=0
81251 On ch=1 n=f7 v=0
81261 On ch=1 n=f6 v=0
81289 On ch=1 n=f5 v=38
81321 On ch=1 n=a#4 v=0
81517 On ch=1 n=c#5 v=38
81690 On ch=1 n=g4 v=0
81701 On ch=1 n=a#6 v=76
81709 On ch=1 n=a#5 v=61
81761 On ch=1 n=a#4 v=37
81830 On ch=1 n=c#5 v=0
81869 On ch=1 n=a#5 v=0
81928 On ch=1 n=a#4 v=0
81981 On ch=1 n=g4 v=41
82058 On ch=1 n=a#6 v=0
82105 On ch=1 n=c7 v=85
82114 On ch=1 n=c6 v=75
82230 On ch=1 n=c6 v=0
82233 On ch=1 n=c#5 v=47
82241 On ch=1 n=c7 v=0
82434 On ch=1 n=f5 v=0
82441 On ch=1 n=c#7 v=87
82457 On ch=1 n=c#6 v=81
82481 On ch=1 n=a#4 v=45
82550 On ch=1 n=c#6 v=0
82550 On ch=1 n=c#5 v=0
82658 On ch=1 n=c#7 v=0
82697 On ch=1 n=f5 v=46
82778 On ch=1 n=f6 v=83
82778 On ch=1 n=f7 v=89
82928 On ch=1 n=c#5 v=45
82988 On ch=1 n=f6 v=0
83025 On ch=1 n=f7 v=0
83041 On ch=1 n=c#5 v=0
83093 On ch=1 n=a#4 v=0
83150 On ch=1 n=f7 v=91
83154 On ch=1 n=f6 v=81
83194 On ch=1 n=g4 v=0
83442 On ch=1 n=g4 v=45
83641 On ch=1 n=c#5 v=50
83765 On ch=1 n=f5 v=0
83865 On ch=1 n=a#4 v=46
83890 On ch=1 n=c#5 v=0
84069 On ch=1 n=f5 v=44
84249 On ch=1 n=f5 v=0
84265 On ch=1 n=c#5 v=37
84325 On ch=1 n=c#5 v=0
84370 On ch=1 n=a#4 v=0
84441 On ch=1 n=g4 v=0
84554 Par ch=1 c=64 v=0
84569 On ch=1 n=c3 v=63
84705 Par ch=1 c=64 v=127
84741 On ch=1 n=c3 v=0
85005 On ch=1 n=g4 v=50
85101 On ch=1 n=e6 v=74
85101 On ch=1 n=e7 v=86
85270 On ch=1 n=c#5 v=50
85297 On ch=1 n=e6 v=0
85307 On ch=1 n=f6 v=0
85339 On ch=1 n=c#5 v=0
85442 On ch=1 n=e7 v=0
85545 On ch=1 n=g#7 v=94
85545 On ch=1 n=a#4 v=41
85551 On ch=1 n=g#6 v=84
85578 On ch=1 n=f7 v=0
85844 On ch=1 n=e5 v=41
85919 On ch=1 n=g#7 v=0
85929 On ch=1 n=a#4 v=0
85936 On ch=1 n=g#6 v=0
85960 On ch=1 n=g7 v=95
85993 On ch=1 n=g6 v=68
86052 On ch=1 n=e5 v=0
86096 On ch=1 n=c5 v=43
86139 On ch=1 n=c5 v=0
86372 On ch=1 n=g4 v=0
86419 Par ch=1 c=64 v=0
86419 On ch=1 n=f7 v=88
86419 On ch=1 n=f3 v=48
86421 On ch=1 n=f6 v=77
86632 Par ch=1 c=64 v=127
86659 On ch=1 n=g7 v=0
86665 On ch=1 n=f3 v=0
86680 On ch=1 n=g6 v=0
86893 Par ch=1 c=67 v=127
86956 On ch=1 n=g#4 v=32
87212 On ch=1 n=f5 v=38
87336 On ch=1 n=f5 v=0
87432 On ch=1 n=c5 v=39
87553 On ch=1 n=g#4 v=0
87645 On ch=1 n=c5 v=0
87656 On ch=1 n=g#5 v=43
87885 On ch=1 n=g#5 v=0
87885 On ch=1 n=f5 v=37
87908 On ch=1 n=f7 v=0
87912 On ch=1 n=f6 v=0
88108 On ch=1 n=c5 v=39
88180 On ch=1 n=f5 v=0
88241 On ch=1 n=g#6 v=63
88332 On ch=1 n=c5 v=0
88332 On ch=1 n=g#4 v=37
88415 On ch=1 n=f6 v=63
88576 On ch=1 n=f6 v=0
88580 On ch=1 n=c#7 v=75
88580 On ch=1 n=f5 v=37
88689 On ch=1 n=g#6 v=0
88693 On ch=1 n=c#7 v=0
88705 On ch=1 n=f5 v=0
88753 On ch=1 n=c7 v=70
88761 On ch=1 n=c5 v=36
88764 On ch=1 n=g#4 v=0
88909 On ch=1 n=c7 v=0
88921 On ch=1 n=g#7 v=82
88981 On ch=1 n=g#5 v=37
89101 On ch=1 n=f7 v=78
89199 On ch=1 n=f5 v=37
89256 On ch=1 n=g#5 v=0
89268 On ch=1 n=c#8 v=78
89292 On ch=1 n=f7 v=0
89341 Par ch=1 c=67 v=0
89412 On ch=1 n=g#7 v=0
89428 On ch=1 n=f5 v=0
89428 On ch=1 n=c5 v=0
89505 On ch=1 n=c#8 v=0
89580 On ch=1 n=c8 v=76
89672 Par ch=1 c=67 v=127
89840 On ch=1 n=g#4 v=39
90072 On ch=1 n=f5 v=41
90299 On ch=1 n=f5 v=0
90299 On ch=1 n=g#4 v=0
90301 On ch=1 n=c5 v=41
90539 On ch=1 n=g#5 v=34
90585 On ch=1 n=c5 v=0
90752 On ch=1 n=g#5 v=0
90769 On ch=1 n=f5 v=34
90896 On ch=1 n=c8 v=0
91008 On ch=1 n=f5 v=0
91012 On ch=1 n=c5 v=37
91232 On ch=1 n=g#4 v=36
91269 On ch=1 n=c5 v=0
91480 On ch=1 n=f5 v=38
91736 On ch=1 n=c5 v=37
91785 On ch=1 n=f5 v=0
91801 On ch=1 n=g#4 v=0
91940 On ch=1 n=c6 v=81
92145 Par ch=1 c=67 v=0
92284 On ch=1 n=g#5 v=38
92605 On ch=1 n=f5 v=37
92661 On ch=1 n=g#5 v=0
92716 On ch=1 n=c5 v=0
92779 On ch=1 n=c6 v=0
92912 On ch=1 n=f5 v=0
92936 Par ch=1 c=64 v=0
92980 On ch=1 n=c6 v=70
93024 Par ch=1 c=64 v=127
93273 Par ch=1 c=67 v=127
93360 On ch=1 n=a#4 v=36
93580 On ch=1 n=e5 v=37
93840 On ch=1 n=c5 v=38
93869 On ch=1 n=e5 v=0
94036 On ch=1 n=g5 v=37
94045 On ch=1 n=c5 v=0
94053 On ch=1 n=a#4 v=0
94172 On ch=1 n=g5 v=0
94224 Par ch=1 c=67 v=0
94239 On ch=1 n=e5 v=42
94412 On ch=1 n=c6 v=0
94452 On ch=1 n=g5 v=72
94501 On ch=1 n=e5 v=0
94501 On ch=1 n=c5 v=35
94700 On ch=1 n=a#4 v=39
94740 On ch=1 n=c5 v=0
94836 On ch=1 n=g#5 v=86
94948 On ch=1 n=e5 v=43
95092 On ch=1 n=g5 v=0
95188 On ch=1 n=a#5 v=92
95216 On ch=1 n=c5 v=39
95236 On ch=1 n=e5 v=0
95469 On ch=1 n=g5 v=40
95572 On ch=1 n=c#6 v=91
95579 On ch=1 n=g#5 v=0
95740 On ch=1 n=e5 v=38
95781 On ch=1 n=a#5 v=0
95832 On ch=1 n=g5 v=0
96019 Par ch=1 c=64 v=0
96040 On ch=1 n=c6 v=76
96059 On ch=1 n=e5 v=0
96069 Par ch=1 c=64 v=127
96072 On ch=1 n=c5 v=0
96136 On ch=1 n=a#4 v=0
96213 On ch=1 n=c#6 v=0
96340 On ch=1 n=g#4 v=38
96549 Par ch=1 c=67 v=127
96568 On ch=1 n=f5 v=38
96809 On ch=1 n=c5 v=45
96825 On ch=1 n=f5 v=0
96976 On ch=1 n=c5 v=0
96976 On ch=1 n=g#4 v=0
97040 On ch=1 n=g#5 v=37
97216 On ch=1 n=g#5 v=0
97245 On ch=1 n=f5 v=44
97468 On ch=1 n=c5 v=43
97472 On ch=1 n=f5 v=0
97692 On ch=1 n=g#4 v=42
97709 On ch=1 n=c5 v=0
97900 On ch=1 n=f5 v=41
98099 On ch=1 n=f5 v=0
98105 On ch=1 n=c5 v=45
98141 On ch=1 n=g#4 v=0
98229 On ch=1 n=c7 v=81
98392 Par ch=1 c=67 v=0
98440 On ch=1 n=g#5 v=36
98529 On ch=1 n=g#5 v=0
98599 On ch=1 n=c5 v=0
98668 On ch=1 n=f5 v=38
98705 On ch=1 n=c6 v=0
98720 On ch=1 n=f5 v=0
98836 On ch=1 n=a#5 v=45
98976 On ch=1 n=e6 v=53
98999 On ch=1 n=a#5 v=0
99036 On ch=1 n=c7 v=0
99099 On ch=1 n=f3 v=37
99140 Par ch=1 c=64 v=0
99312 On ch=1 n=c7 v=84
99333 Par ch=1 c=64 v=127
99449 On ch=1 n=f3 v=0
99529 Par ch=1 c=67 v=127
99844 On ch=1 n=a#4 v=38
100076 On ch=1 n=e5 v=45
100288 On ch=1 n=e5 v=0
100312 On ch=1 n=c5 v=40
100499 On ch=1 n=a#4 v=0
100499 On ch=1 n=e6 v=0
100529 On ch=1 n=c5 v=0
100529 On ch=1 n=g5 v=36
100764 On ch=1 n=e5 v=38
100800 On ch=1 n=g5 v=0
100979 On ch=1 n=g6 v=64
100985 On ch=1 n=e6 v=52
101036 On ch=1 n=c5 v=38
101079 On ch=1 n=e5 v=0
101125 On ch=1 n=e6 v=0
101132 On ch=1 n=g6 v=0
101275 On ch=1 n=c5 v=0
101328 On ch=1 n=a#4 v=37
101359 On ch=1 n=f6 v=63
101359 On ch=1 n=g#6 v=78
101509 On ch=1 n=g#6 v=0
101509 On ch=1 n=f6 v=0
101540 On ch=1 n=e5 v=43
101649 On ch=1 n=c7 v=0
101748 On ch=1 n=a#6 v=76
101748 On ch=1 n=g6 v=77
101792 On ch=1 n=e5 v=0
101795 On ch=1 n=c5 v=38
101952 On ch=1 n=g6 v=0
101952 On ch=1 n=a#6 v=0
102059 On ch=1 n=g5 v=36
102120 On ch=1 n=c#7 v=77
102120 On ch=1 n=a#6 v=61
102312 On ch=1 n=e5 v=37
102321 On ch=1 n=c5 v=0
102325 On ch=1 n=g5 v=0
102361 On ch=1 n=e5 v=0
102379 On ch=1 n=a#4 v=0
102416 On ch=1 n=a#6 v=0
102416 On ch=1 n=c#7 v=0
102672 Par ch=1 c=64 v=0
102701 On ch=1 n=c7 v=72
102701 On ch=1 n=a6 v=70
102736 On ch=1 n=f3 v=36
102952 Par ch=1 c=64 v=127
102976 On ch=1 n=f3 v=0
103345 On ch=1 n=a4 v=37
103592 On ch=1 n=f5 v=36
103809 On ch=1 n=c5 v=39
103813 On ch=1 n=f5 v=0
104019 On ch=1 n=c5 v=0
104036 On ch=1 n=a5 v=39
104252 On ch=1 n=a5 v=0
104256 On ch=1 n=f5 v=37
104365 On ch=1 n=c7 v=0
104368 On ch=1 n=a6 v=0
104428 On ch=1 n=a4 v=0
104499 On ch=1 n=c5 v=38
104580 On ch=1 n=f5 v=0
104681 Par ch=1 c=67 v=0
104696 On ch=1 n=a4 v=40
104804 On ch=1 n=a#6 v=70
104804 On ch=1 n=d7 v=70
104819 On ch=1 n=c5 v=0
104848 On ch=1 n=a4 v=0
104944 On ch=1 n=f5 v=47
105108 On ch=1 n=f5 v=0
105153 On ch=1 n=f6 v=72
105156 On ch=1 n=a6 v=79
105160 On ch=1 n=c5 v=40
105295 On ch=1 n=a#6 v=0
105336 On ch=1 n=d7 v=0
105401 On ch=1 n=a5 v=39
105496 On ch=1 n=a#6 v=85
105496 On ch=1 n=d7 v=83
105508 On ch=1 n=f6 v=0
105540 On ch=1 n=a5 v=0
105608 On ch=1 n=a6 v=0
105612 On ch=1 n=c5 v=0
105628 On ch=1 n=f5 v=37
105705 On ch=1 n=f5 v=0
105889 On ch=1 n=a6 v=77
105889 On ch=1 n=c7 v=81
105889 On ch=1 n=f3 v=46
105969 On ch=1 n=f3 v=0
105996 On ch=1 n=a#6 v=0
106016 On ch=1 n=d7 v=0
106060 Par ch=1 c=67 v=127
106212 On ch=1 n=a4 v=41
106272 On ch=1 n=a#6 v=82
106280 On ch=1 n=d7 v=85
106352 On ch=1 n=a6 v=0
106420 On ch=1 n=c7 v=0
106432 On ch=1 n=f5 v=53
106465 Par ch=1 c=67 v=0
106595 On ch=1 n=f5 v=0
106609 On ch=1 n=f6 v=78
106609 On ch=1 n=a6 v=86
106636 On ch=1 n=c5 v=51
106704 On ch=1 n=a#6 v=0
106736 On ch=1 n=d7 v=0
106796 On ch=1 n=a4 v=0
106861 On ch=1 n=a5 v=46
106936 On ch=1 n=d7 v=90
106936 On ch=1 n=a#6 v=88
106945 On ch=1 n=c5 v=0
106956 On ch=1 n=a5 v=0
106972 On ch=1 n=f6 v=0
107052 On ch=1 n=a6 v=0
107128 On ch=1 n=f5 v=46
107221 On ch=1 n=f5 v=0
107288 Par ch=1 c=64 v=0
107296 On ch=1 n=a6 v=77
107296 On ch=1 n=c7 v=80
107296 On ch=1 n=f3 v=46
107393 Par ch=1 c=64 v=127
107400 On ch=1 n=f3 v=0
107429 On ch=1 n=a#6 v=0
107429 On ch=1 n=d7 v=0
107613 On ch=1 n=a4 v=48
107685 On ch=1 n=d7 v=85
107696 On ch=1 n=a#6 v=85
107819 On ch=1 n=a6 v=0
107836 On ch=1 n=f5 v=50
107852 On ch=1 n=c7 v=0
108029 On ch=1 n=f5 v=0
108041 On ch=1 n=a6 v=80
108049 On ch=1 n=f6 v=73
108056 On ch=1 n=c5 v=54
108148 On ch=1 n=d7 v=0
108158 On ch=1 n=a#6 v=0
108278 On ch=1 n=a4 v=0
108278 On ch=1 n=a5 v=51
108365 On ch=1 n=c5 v=0
108375 On ch=1 n=a#6 v=85
108379 On ch=1 n=d7 v=85
108413 On ch=1 n=f6 v=0
108419 On ch=1 n=a5 v=0
108493 On ch=1 n=a6 v=0
108499 On ch=1 n=f5 v=58
108554 On ch=1 n=f5 v=0
108770 On ch=1 n=a#6 v=0
108830 On ch=1 n=e3 v=60
108850 On ch=1 n=a6 v=79
108850 On ch=1 n=c7 v=81
108850 Par ch=1 c=64 v=0
108986 On ch=1 n=d7 v=0
109039 Par ch=1 c=64 v=127
109075 On ch=1 n=e3 v=0
109335 On ch=1 n=a4 v=40
109570 On ch=1 n=e5 v=47
109749 On ch=1 n=e5 v=0
109778 On ch=1 n=c5 v=55
109966 On ch=1 n=c5 v=0
109983 On ch=1 n=a5 v=59
110086 On ch=1 n=a6 v=0
110130 On ch=1 n=c7 v=0
110167 On ch=1 n=e5 v=58
110239 On ch=1 n=a5 v=0
110375 On ch=1 n=c5 v=58
110435 On ch=1 n=a4 v=0
110470 On ch=1 n=e5 v=0
110586 On ch=1 n=a4 v=54
110675 On ch=1 n=b6 v=100
110675 On ch=1 n=d7 v=108
110767 On ch=1 n=c5 v=0
110806 On ch=1 n=e5 v=58
110895 On ch=1 n=b6 v=0
110963 On ch=1 n=d7 v=0
111035 On ch=1 n=c5 v=51
111042 On ch=1 n=c7 v=106
111042 On ch=1 n=e7 v=107
111050 On ch=1 n=e5 v=0
111302 On ch=1 n=a5 v=48
111313 On ch=1 n=e7 v=0
111313 On ch=1 n=c7 v=0
111389 On ch=1 n=d7 v=110
111389 On ch=1 n=f7 v=110
111499 On ch=1 n=d7 v=0
111526 On ch=1 n=f7 v=0
111526 On ch=1 n=e5 v=50
111579 On ch=1 n=e5 v=0
111579 On ch=1 n=a5 v=0
111762 On ch=1 n=c5 v=0
111782 On ch=1 n=a4 v=0
111883 Par ch=1 c=64 v=0
111883 On ch=1 n=e7 v=109
111883 On ch=1 n=g7 v=115
111886 On ch=1 n=e3 v=57
112050 Par ch=1 c=64 v=127
112078 On ch=1 n=e3 v=0
112342 On ch=1 n=g#4 v=48
112587 On ch=1 n=e5 v=51
112715 On ch=1 n=e7 v=0
112790 On ch=1 n=e5 v=0
112822 On ch=1 n=d7 v=105
112822 On ch=1 n=f7 v=104
112832 On ch=1 n=b4 v=45
113071 On ch=1 n=g#5 v=44
113087 On ch=1 n=g7 v=0
113236 On ch=1 n=b4 v=0
113323 On ch=1 n=e5 v=36
113327 On ch=1 n=g#5 v=0
113404 On ch=1 n=d7 v=0
113487 Par ch=1 c=67 v=127
113612 On ch=1 n=e7 v=99
113612 On ch=1 n=c7 v=88
113836 On ch=1 n=f7 v=0
114103 On ch=1 n=c7 v=0
114210 On ch=1 n=e5 v=0
114250 On ch=1 n=g#4 v=0
114607 On ch=1 n=b6 v=79
114607 On ch=1 n=d7 v=87
114763 On ch=1 n=e7 v=0
115343 Par ch=1 c=67 v=0
115571 On ch=1 n=d7 v=0
115571 On ch=1 n=b6 v=0
115763 On ch=1 n=c7 v=75
115771 On ch=1 n=a6 v=71
115816 Par ch=1 c=64 v=0
115840 On ch=1 n=a3 v=38
115944 Par ch=1 c=67 v=127
116139 Par ch=1 c=64 v=127
116187 On ch=1 n=a3 v=0
116596 On ch=1 n=c5 v=37
116919 On ch=1 n=a5 v=38
117127 On ch=1 n=a5 v=0
117151 On ch=1 n=e5 v=37
117371 On ch=1 n=c6 v=37
117383 On ch=1 n=c5 v=0
117487 On ch=1 n=e5 v=0
117591 On ch=1 n=c6 v=0
117595 On ch=1 n=a5 v=37
117812 On ch=1 n=e5 v=38
117891 On ch=1 n=a5 v=0
118020 On ch=1 n=c5 v=38
118147 On ch=1 n=a6 v=0
118147 On ch=1 n=c7 v=0
118232 On ch=1 n=a5 v=39
118303 On ch=1 n=e5 v=0
118410 On ch=1 n=e5 v=38
118487 On ch=1 n=a5 v=0
118530 Par ch=1 c=67 v=0
118599 On ch=1 n=e6 v=90
118899 On ch=1 n=e6 v=0
118906 On ch=1 n=c6 v=40
119183 On ch=1 n=a5 v=38
119283 On ch=1 n=c6 v=0
119523 On ch=1 n=e6 v=92
119703 On ch=1 n=a5 v=0
119823 On ch=1 n=c5 v=0
119963 On ch=1 n=d5 v=45
119986 On ch=1 n=e5 v=0
120032 Par ch=1 c=64 v=0
120187 Par ch=1 c=67 v=127
120187 On ch=1 n=g#5 v=37
120231 Par ch=1 c=64 v=127
120271 On ch=1 n=e6 v=0
120410 On ch=1 n=e5 v=38
120470 On ch=1 n=g#5 v=0
120632 On ch=1 n=b5 v=36
120692 On ch=1 n=e5 v=0
120783 On ch=1 n=b5 v=0
120827 On ch=1 n=g#5 v=40
120927 On ch=1 n=d5 v=0
120931 Par ch=1 c=67 v=0
121040 On ch=1 n=b5 v=70
121063 On ch=1 n=e5 v=41
121123 On ch=1 n=g#5 v=0
121307 On ch=1 n=d5 v=38
121351 On ch=1 n=e5 v=0
121436 On ch=1 n=c6 v=88
121531 On ch=1 n=b5 v=0
121571 On ch=1 n=g#5 v=41
121799 On ch=1 n=e5 v=42
121799 On ch=1 n=d6 v=92
121843 On ch=1 n=g#5 v=0
122080 On ch=1 n=b5 v=45
122110 On ch=1 n=c6 v=0
122200 On ch=1 n=f6 v=90
122343 On ch=1 n=d6 v=0
122363 On ch=1 n=g#5 v=37
122583 On ch=1 n=f6 v=0
122690 On ch=1 n=e6 v=86
122763 On ch=1 n=b5 v=0
122779 On ch=1 n=g#5 v=0
122823 On ch=1 n=e5 v=0
122863 On ch=1 n=d5 v=0
123003 On ch=1 n=c5 v=45
123079 Par ch=1 c=64 v=0
123152 Par ch=1 c=67 v=127
123223 On ch=1 n=a5 v=38
123392 Par ch=1 c=64 v=127
123399 On ch=1 n=a5 v=0
123410 On ch=1 n=e5 v=44
123627 On ch=1 n=c6 v=47
123727 On ch=1 n=e5 v=0
123732 On ch=1 n=c6 v=0
123843 On ch=1 n=a5 v=42
124007 On ch=1 n=e6 v=0
124043 On ch=1 n=e5 v=38
124067 On ch=1 n=a5 v=0
124083 On ch=1 n=c5 v=0
124259 On ch=1 n=c5 v=37
124479 On ch=1 n=a5 v=41
124496 On ch=1 n=e5 v=0
124671 On ch=1 n=e5 v=36
124720 On ch=1 n=a5 v=0
124803 On ch=1 n=e7 v=80
124972 On ch=1 n=c6 v=40
125059 On ch=1 n=c6 v=0
125206 On ch=1 n=a5 v=40
125240 On ch=1 n=a5 v=0
125299 Par ch=1 c=67 v=0
125371 On ch=1 n=d6 v=53
125372 On ch=1 n=e5 v=0
125496 On ch=1 n=g#6 v=56
125523 On ch=1 n=c5 v=0
125540 Par ch=1 c=67 v=127
125600 Par ch=1 c=64 v=0
125643 On ch=1 n=a3 v=45
125652 On ch=1 n=e7 v=0
125832 On ch=1 n=e7 v=75
125864 Par ch=1 c=64 v=127
125892 On ch=1 n=a3 v=0
126130 On ch=1 n=d5 v=31
126360 On ch=1 n=g#5 v=40
126500 On ch=1 n=g#5 v=0
126511 On ch=1 n=g#6 v=0
126570 On ch=1 n=e5 v=39
126587 On ch=1 n=d6 v=0
126772 On ch=1 n=b5 v=40
126887 On ch=1 n=e5 v=0
126979 On ch=1 n=g#5 v=53
127072 On ch=1 n=b5 v=0
127183 On ch=1 n=b6 v=62
127187 On ch=1 n=g#6 v=48
127220 On ch=1 n=e5 v=38
127231 On ch=1 n=d5 v=0
127287 On ch=1 n=g#5 v=0
127430 On ch=1 n=e5 v=0
127440 On ch=1 n=d5 v=36
127460 On ch=1 n=g#6 v=0
127547 On ch=1 n=b6 v=0
127547 On ch=1 n=e7 v=0
127557 On ch=1 n=c7 v=73
127557 On ch=1 n=a6 v=71
127658 On ch=1 n=g#5 v=39
127694 On ch=1 n=a6 v=0
127730 On ch=1 n=c7 v=0
127914 On ch=1 n=g#5 v=0
127914 On ch=1 n=e5 v=36
127925 On ch=1 n=b6 v=71
127930 On ch=1 n=d7 v=77
128034 On ch=1 n=b6 v=0
128053 On ch=1 n=d7 v=0
128174 On ch=1 n=b5 v=40
128325 On ch=1 n=f7 v=70
128329 On ch=1 n=d7 v=69
128489 On ch=1 n=g#5 v=38
128521 On ch=1 n=b5 v=0
128550 On ch=1 n=g#5 v=0
128610 On ch=1 n=d7 v=0
128637 On ch=1 n=e5 v=0
128737 On ch=1 n=d5 v=0
128865 Par ch=1 c=64 v=0
128953 On ch=1 n=e7 v=58
128964 On ch=1 n=a3 v=40
128966 On ch=1 n=c#7 v=56
129085 On ch=1 n=f7 v=0
129137 Par ch=1 c=64 v=127
129144 On ch=1 n=a3 v=0
129477 On ch=1 n=c#5 v=39
129757 On ch=1 n=a5 v=37
129981 On ch=1 n=e5 v=40
130017 On ch=1 n=a5 v=0
130077 On ch=1 n=c#5 v=0
130184 On ch=1 n=c#6 v=47
130258 On ch=1 n=e5 v=0
130397 On ch=1 n=a5 v=43
130404 On ch=1 n=c#6 v=0
130590 On ch=1 n=e5 v=43
130674 On ch=1 n=a5 v=0
130754 On ch=1 n=c#7 v=0
130766 On ch=1 n=e7 v=0
130826 On ch=1 n=c#5 v=36
130930 On ch=1 n=f#7 v=77
130930 On ch=1 n=d7 v=77
130945 On ch=1 n=e5 v=0
131064 On ch=1 n=a5 v=44
131277 On ch=1 n=a6 v=72
131277 On ch=1 n=c#7 v=75
131286 On ch=1 n=e5 v=43
131290 On ch=1 n=a5 v=0
131441 On ch=1 n=d7 v=0
131441 On ch=1 n=f#7 v=0
131469 On ch=1 n=c#5 v=0
131517 On ch=1 n=c#7 v=0
131517 On ch=1 n=a6 v=0
131527 On ch=1 n=c#6 v=44
131621 On ch=1 n=f#7 v=84
131631 On ch=1 n=d7 v=79
131646 On ch=1 n=e5 v=0
131650 On ch=1 n=c#6 v=0
131730 On ch=1 n=a5 v=38
131790 On ch=1 n=a5 v=0
131851 Par ch=1 c=67 v=0
131986 Par ch=1 c=64 v=0
131986 On ch=1 n=c#7 v=75
131990 On ch=1 n=e7 v=77
132010 On ch=1 n=a3 v=50
132075 On ch=1 n=a3 v=0
132094 On ch=1 n=d7 v=0
132094 On ch=1 n=f#7 v=0
132114 Par ch=1 c=64 v=127
132354 On ch=1 n=c#5 v=37
132403 On ch=1 n=f#7 v=80
132403 On ch=1 n=d7 v=73
132495 On ch=1 n=e7 v=0
132495 On ch=1 n=c#7 v=0
132582 On ch=1 n=a5 v=42
132734 On ch=1 n=a5 v=0
132751 On ch=1 n=c#7 v=83
132758 On ch=1 n=a6 v=82
132781 On ch=1 n=e5 v=45
132821 On ch=1 n=c#5 v=0
132861 On ch=1 n=d7 v=0
132894 On ch=1 n=f#7 v=0
133002 On ch=1 n=c#6 v=49
133091 On ch=1 n=e5 v=0
133094 On ch=1 n=d7 v=87
133103 On ch=1 n=f#7 v=92
133106 On ch=1 n=c#6 v=0
133131 On ch=1 n=a6 v=0
133151 On ch=1 n=c#7 v=0
133207 On ch=1 n=a5 v=47
133242 On ch=1 n=a5 v=0
133434 On ch=1 n=c#7 v=80
133434 On ch=1 n=e7 v=80
133478 On ch=1 n=a3 v=43
133534 On ch=1 n=d7 v=0
133550 On ch=1 n=a3 v=0
133571 On ch=1 n=f#7 v=0
133762 On ch=1 n=c#5 v=47
133806 On ch=1 n=f#7 v=86
133810 On ch=1 n=d7 v=81
133882 On ch=1 n=e7 v=0
133914 On ch=1 n=c#7 v=0
133974 On ch=1 n=a5 v=51
134163 On ch=1 n=a5 v=0
134178 On ch=1 n=a6 v=80
134178 On ch=1 n=c#7 v=86
134194 On ch=1 n=e5 v=51
134290 On ch=1 n=d7 v=0
134301 On ch=1 n=c#5 v=0
134394 On ch=1 n=f#7 v=0
134406 On ch=1 n=e5 v=0
134421 On ch=1 n=c#6 v=51
134497 On ch=1 n=a6 v=0
134534 On ch=1 n=f#7 v=90
134538 On ch=1 n=d7 v=85
134570 On ch=1 n=c#6 v=0
134581 On ch=1 n=c#7 v=0
134667 On ch=1 n=a5 v=56
134701 On ch=1 n=a5 v=0
134701 On ch=1 n=d7 v=0
134803 On ch=1 n=f#7 v=0
134981 On ch=1 n=g#3 v=60
134991 On ch=1 n=f7 v=85
134991 Par ch=1 c=64 v=0
134991 On ch=1 n=c#7 v=82
135155 Par ch=1 c=64 v=127
135200 On ch=1 n=g#3 v=0
135458 On ch=1 n=c#5 v=51
135680 On ch=1 n=g#5 v=61
135879 On ch=1 n=f#6 v=79
135884 On ch=1 n=f#7 v=89
135887 On ch=1 n=d#7 v=83
135897 On ch=1 n=g#5 v=0
135905 On ch=1 n=f5 v=46
136072 On ch=1 n=f#6 v=0
136081 On ch=1 n=c#6 v=57
136101 On ch=1 n=f5 v=0
136115 On ch=1 n=f7 v=0
136121 On ch=1 n=d#7 v=0
136125 On ch=1 n=f#7 v=0
136257 On ch=1 n=c#7 v=0
136275 On ch=1 n=g#5 v=54
136292 On ch=1 n=c#6 v=0
136476 On ch=1 n=g#6 v=86
136477 On ch=1 n=g#5 v=0
136480 On ch=1 n=g#7 v=90
136480 On ch=1 n=f7 v=86
136480 On ch=1 n=f5 v=44
136532 On ch=1 n=f5 v=0
136696 On ch=1 n=g#6 v=0
136755 On ch=1 n=f7 v=0
136757 On ch=1 n=g#7 v=0
136768 On ch=1 n=c#5 v=0
136908 On ch=1 n=g#4 v=52
137116 On ch=1 n=g#4 v=0
137131 On ch=1 n=f4 v=53
137148 On ch=1 n=f#7 v=84
137152 On ch=1 n=a#7 v=88
137156 On ch=1 n=a#6 v=89
137416 On ch=1 n=c#5 v=49
137501 On ch=1 n=a#6 v=0
137537 On ch=1 n=a#7 v=0
137597 On ch=1 n=f#7 v=0
137676 On ch=1 n=g#4 v=54
137720 On ch=1 n=c#5 v=0
137737 On ch=1 n=g#4 v=0
137828 On ch=1 n=f4 v=0
138008 On ch=1 n=f#7 v=99
138012 On ch=1 n=a#7 v=100
138012 On ch=1 n=a#6 v=83
138024 On ch=1 n=g#3 v=80
138064 Par ch=1 c=64 v=0
138288 Par ch=1 c=64 v=127
138391 On ch=1 n=g#3 v=0
138617 On ch=1 n=f#4 v=39
138915 On ch=1 n=d#5 v=40
139164 On ch=1 n=c5 v=45
139172 On ch=1 n=d#5 v=0
139172 Par ch=1 c=67 v=127
139395 On ch=1 n=g#5 v=45
139435 On ch=1 n=c5 v=0
139464 On ch=1 n=f#4 v=0
139589 On ch=1 n=g#5 v=0
139612 On ch=1 n=d#5 v=47
139781 On ch=1 n=f#7 v=0
139788 On ch=1 n=a#7 v=0
139836 On ch=1 n=c5 v=43
139848 On ch=1 n=d#5 v=0
139925 On ch=1 n=a#6 v=0
139925 Par ch=1 c=67 v=0
140044 On ch=1 n=f#4 v=42
140060 On ch=1 n=c5 v=0
140112 On ch=1 n=g#7 v=82
140117 On ch=1 n=g#6 v=69
140117 On ch=1 n=f7 v=71
140288 On ch=1 n=d#5 v=45
140344 On ch=1 n=g#6 v=0
140388 On ch=1 n=f7 v=0
140504 On ch=1 n=d#5 v=0
140552 On ch=1 n=c5 v=39
140597 On ch=1 n=f#6 v=74
140597 On ch=1 n=d#7 v=72
140604 On ch=1 n=f#7 v=80
140748 On ch=1 n=d#7 v=0
140760 On ch=1 n=f#7 v=0
140760 On ch=1 n=f#6 v=0
140805 On ch=1 n=g#7 v=0
140888 On ch=1 n=g#5 v=39
141048 On ch=1 n=d#7 v=78
141052 On ch=1 n=d#6 v=72
141055 On ch=1 n=g#6 v=77
141072 On ch=1 n=g#5 v=0
141177 On ch=1 n=d#5 v=42
141229 On ch=1 n=d#6 v=0
141232 On ch=1 n=d#5 v=0
141244 On ch=1 n=g#6 v=0
141276 On ch=1 n=d#7 v=0
141317 On ch=1 n=c5 v=0
141537 On ch=1 n=f#4 v=0
141672 On ch=1 n=f6 v=79
141672 On ch=1 n=f7 v=86
141676 On ch=1 n=c#7 v=86
141677 On ch=1 n=c#3 v=46
141732 Par ch=1 c=64 v=0
141996 Par ch=1 c=64 v=127
142128 On ch=1 n=c#3 v=0
142481 On ch=1 n=f4 v=38
142628 Par ch=1 c=67 v=127
142764 On ch=1 n=c#5 v=36
142956 On ch=1 n=c#5 v=0
142988 On ch=1 n=f4 v=0
143015 On ch=1 n=g#4 v=42
143269 On ch=1 n=g#5 v=42
143312 On ch=1 n=g#4 v=0
143448 On ch=1 n=g#5 v=0
143492 On ch=1 n=c#5 v=38
143755 On ch=1 n=g#4 v=37
143776 On ch=1 n=c#5 v=0
143852 On ch=1 n=g#4 v=0
143941 On ch=1 n=f4 v=38
144177 On ch=1 n=c#5 v=38
144237 On ch=1 n=f4 v=0
144384 On ch=1 n=g#4 v=38
144421 On ch=1 n=c#5 v=0
144648 On ch=1 n=g#5 v=38
144676 On ch=1 n=f7 v=0
144752 On ch=1 n=f6 v=0
144762 On ch=1 n=c#7 v=0
144789 On ch=1 n=g#5 v=0
144861 On ch=1 n=c#5 v=37
145158 On ch=1 n=g#4 v=0
145166 On ch=1 n=c#3 v=57
145253 On ch=1 n=c#5 v=0
145622 On ch=1 n=f4 v=37
145857 On ch=1 n=c#5 v=38
145965 On ch=1 n=f4 v=0
146069 On ch=1 n=g#4 v=38
146073 On ch=1 n=c#5 v=0
146305 On ch=1 n=g#5 v=41
146373 On ch=1 n=g#4 v=0
146409 On ch=1 n=g#5 v=0
146549 On ch=1 n=c#5 v=36
146805 On ch=1 n=c#5 v=0
146805 On ch=1 n=g#4 v=37
147025 On ch=1 n=g#4 v=0
147034 On ch=1 n=f4 v=38
147174 On ch=1 n=c#3 v=0
147273 On ch=1 n=c#5 v=37
147398 On ch=1 n=f4 v=0
147513 On ch=1 n=g#4 v=38
147514 On ch=1 n=c#5 v=0
147752 On ch=1 n=f5 v=77
148169 On ch=1 n=g#5 v=37
148269 Par ch=1 c=67 v=0
148394 On ch=1 n=g#5 v=0
148434 On ch=1 n=c#5 v=35
148721 On ch=1 n=c#5 v=0
148738 On ch=1 n=f5 v=0
148909 On ch=1 n=f5 v=83
148977 On ch=1 n=g#4 v=0
149397 On ch=1 n=c#4 v=37
149429 Par ch=1 c=64 v=0
149509 Par ch=1 c=67 v=127
149662 On ch=1 n=a#4 v=38
149713 Par ch=1 c=64 v=127
149829 On ch=1 n=c#4 v=0
149885 On ch=1 n=a#4 v=0
149905 On ch=1 n=g4 v=37
150149 On ch=1 n=f5 v=0
150213 On ch=1 n=f5 v=38
150434 On ch=1 n=f5 v=0
150625 On ch=1 n=a#4 v=37
150845 On ch=1 n=a#4 v=0
151069 Par ch=1 c=67 v=0
151213 On ch=1 n=a#4 v=70
151409 On ch=1 n=g4 v=0
151665 On ch=1 n=a#4 v=0
151673 On ch=1 n=c5 v=79
152125 On ch=1 n=c#5 v=91
152141 Par ch=1 c=64 v=0
152253 Par ch=1 c=64 v=127
152442 On ch=1 n=c5 v=0
152565 On ch=1 n=f5 v=95
152789 On ch=1 n=c#5 v=0
153005 On ch=1 n=f5 v=0
153092 On ch=1 n=f5 v=95
153538 Par ch=1 c=64 v=0
153545 Par ch=1 c=67 v=127
153553 On ch=1 n=c#4 v=36
153809 Par ch=1 c=64 v=127
153841 On ch=1 n=c#4 v=0
153882 On ch=1 n=c5 v=36
154153 On ch=1 n=g#4 v=38
154154 On ch=1 n=c5 v=0
154485 On ch=1 n=f#5 v=37
154505 Par ch=1 c=64 v=0
154629 Par ch=1 c=64 v=127
154782 On ch=1 n=f#5 v=0
154874 On ch=1 n=c5 v=38
155393 Par ch=1 c=64 v=0
155425 On ch=1 n=c5 v=0
155472 Par ch=1 c=64 v=127
155625 On ch=1 n=f5 v=0
155672 On ch=1 n=d#5 v=59
155989 On ch=1 n=d#5 v=0
156298 On ch=1 n=g#4 v=0
156342 On ch=1 n=f5 v=63
156826 On ch=1 n=f5 v=0
156942 On ch=1 n=d#5 v=47
157162 On ch=1 n=d#5 v=0
157638 On ch=1 n=c#5 v=57
158058 Par ch=1 c=64 v=0
158086 On ch=1 n=c#4 v=37
158333 On ch=1 n=g#4 v=38
158369 Par ch=1 c=64 v=127
158582 On ch=1 n=f5 v=37
158725 On ch=1 n=c#5 v=0
158814 On ch=1 n=c#5 v=36
158997 On ch=1 n=c#5 v=0
159029 On ch=1 n=a#5 v=50
159085 On ch=1 n=a#5 v=0
159122 On ch=1 n=f5 v=0
159253 On ch=1 n=g#5 v=52
159389 On ch=1 n=g#5 v=0
159462 On ch=1 n=f6 v=60
159669 On ch=1 n=c#6 v=60
159902 On ch=1 n=a#6 v=75
160009 On ch=1 n=c#6 v=0
160062 On ch=1 n=f6 v=0
160109 On ch=1 n=g#6 v=65
160322 On ch=1 n=f6 v=57
160425 On ch=1 n=g#6 v=0
160514 On ch=1 n=f6 v=0
160529 On ch=1 n=a#6 v=0
160529 On ch=1 n=c#6 v=55
160594 On ch=1 n=c#6 v=0
160749 On ch=1 n=a#5 v=52
160978 On ch=1 n=g#5 v=44
160989 On ch=1 n=a#5 v=0
161209 On ch=1 n=f5 v=41
161233 On ch=1 n=g#5 v=0
161265 On ch=1 n=g#4 v=0
161373 On ch=1 n=c#4 v=0
161454 On ch=1 n=c#5 v=38
161685 On ch=1 n=g#4 v=42
161861 On ch=1 n=c#5 v=0
161909 On ch=1 n=g#4 v=0
161926 On ch=1 n=f4 v=43
162005 On ch=1 n=f5 v=0
162173 On ch=1 n=c#5 v=42
162354 On ch=1 n=f4 v=0
162398 On ch=1 n=c#5 v=0
162401 On ch=1 n=g#4 v=41
162573 Par ch=1 c=67 v=0
162706 On ch=1 n=f5 v=40
162797 On ch=1 n=g#4 v=0
162845 On ch=1 n=f7 v=85
162845 On ch=1 n=f6 v=80
163065 On ch=1 n=c#5 v=38
163125 On ch=1 n=f5 v=0
163382 On ch=1 n=g#4 v=37
163441 On ch=1 n=c#5 v=0
163451 On ch=1 n=g#4 v=0
163530 On ch=1 n=f6 v=0
163530 On ch=1 n=f7 v=0
163870 On ch=1 n=c#3 v=40
163902 On ch=1 n=f7 v=78
163918 On ch=1 n=f6 v=69
163918 Par ch=1 c=64 v=0
164126 Par ch=1 c=64 v=127
164303 On ch=1 n=c#3 v=0
164405 Par ch=1 c=67 v=127
164678 On ch=1 n=g4 v=38
165005 On ch=1 n=c#5 v=37
165262 On ch=1 n=a#4 v=40
165290 On ch=1 n=c#5 v=0
165449 On ch=1 n=a#4 v=0
165466 On ch=1 n=f7 v=0
165478 On ch=1 n=f5 v=36
165542 On ch=1 n=f6 v=0
165719 On ch=1 n=c#5 v=38
165791 On ch=1 n=g4 v=0
165906 On ch=1 n=a#6 v=77
165911 On ch=1 n=a#5 v=62
165959 On ch=1 n=a#4 v=38
166029 On ch=1 n=c#5 v=0
166106 On ch=1 n=a#5 v=0
166155 On ch=1 n=a#4 v=0
166209 On ch=1 n=g4 v=37
166330 On ch=1 n=a#6 v=0
166362 On ch=1 n=c7 v=84
166362 On ch=1 n=c6 v=75
166469 On ch=1 n=c#5 v=36
166498 On ch=1 n=c6 v=0
166522 On ch=1 n=c7 v=0
166646 On ch=1 n=f5 v=0
166751 On ch=1 n=a#4 v=38
166751 On ch=1 n=c#7 v=86
166755 On ch=1 n=c#6 v=78
166810 On ch=1 n=c#5 v=0
166851 On ch=1 n=c#6 v=0
166922 On ch=1 n=c#7 v=0
167031 On ch=1 n=f5 v=37
167195 On ch=1 n=f7 v=82
167195 On ch=1 n=f6 v=84
167290 On ch=1 n=c#5 v=38
167426 Par ch=1 c=67 v=0
167446 On ch=1 n=f6 v=0
167446 On ch=1 n=f7 v=0
167550 On ch=1 n=c#5 v=0
167671 On ch=1 n=a#4 v=0
167766 On ch=1 n=g4 v=0
167770 On ch=1 n=f6 v=85
167770 On ch=1 n=f7 v=85
167770 Par ch=1 c=64 v=0
167775 On ch=1 n=c#3 v=59
167866 Par ch=1 c=64 v=127
168071 On ch=1 n=c#3 v=0
168071 Par ch=1 c=67 v=127
168131 On ch=1 n=f#4 v=39
168258 On ch=1 n=f6 v=0
168266 On ch=1 n=f7 v=0
168283 On ch=1 n=f5 v=0
168371 On ch=1 n=c5 v=37
168583 On ch=1 n=g#4 v=36
168718 On ch=1 n=c5 v=0
168818 On ch=1 n=f5 v=38
168883 On ch=1 n=f#4 v=0
168894 On ch=1 n=g#4 v=0
169062 On ch=1 n=c5 v=37
169326 On ch=1 n=g#4 v=38
169429 On ch=1 n=c5 v=0
169562 On ch=1 n=f#4 v=42
169623 On ch=1 n=g#4 v=0
169689 On ch=1 n=d#7 v=62
169689 On ch=1 n=d#6 v=60
169766 On ch=1 n=f5 v=0
169862 On ch=1 n=c5 v=42
170035 On ch=1 n=d#6 v=0
170039 On ch=1 n=d#7 v=0
170115 On ch=1 n=c5 v=0
170130 On ch=1 n=g#4 v=38
170178 On ch=1 n=f7 v=67
170178 On ch=1 n=f6 v=67
170238 On ch=1 n=f#4 v=0
170458 On ch=1 n=d#5 v=38
170549 On ch=1 n=f6 v=0
170549 On ch=1 n=f7 v=0
170611 On ch=1 n=d#7 v=65
170611 On ch=1 n=d#6 v=61
170654 On ch=1 n=d#5 v=0
170786 On ch=1 n=c5 v=37
170851 On ch=1 n=c5 v=0
170878 On ch=1 n=g#4 v=0
171306 On ch=1 n=c#3 v=38
171326 Par ch=1 c=64 v=0
171398 On ch=1 n=c#7 v=64
171415 On ch=1 n=c#6 v=50
171626 On ch=1 n=d#6 v=0
171629 On ch=1 n=d#7 v=0
171659 Par ch=1 c=64 v=127
171698 On ch=1 n=c#3 v=0
172029 On ch=1 n=f4 v=39
172346 On ch=1 n=c#5 v=38
172423 On ch=1 n=f4 v=0
172555 On ch=1 n=c#5 v=0
172626 On ch=1 n=b4 v=44
173038 On ch=1 n=g#5 v=38
173231 On ch=1 n=g#5 v=0
173235 On ch=1 n=b4 v=0
173279 On ch=1 n=c#5 v=40
173282 On ch=1 n=c#7 v=0
173485 On ch=1 n=c#5 v=0
173485 On ch=1 n=c#6 v=0
173542 On ch=1 n=b4 v=39
173694 On ch=1 n=f6 v=59
173755 On ch=1 n=b4 v=0
173762 On ch=1 n=f4 v=38
173882 On ch=1 n=c#6 v=63
174038 On ch=1 n=f4 v=0
174042 On ch=1 n=c#5 v=36
174059 On ch=1 n=a#6 v=72
174070 On ch=1 n=c#6 v=0
174178 On ch=1 n=a#6 v=0
174188 On ch=1 n=f6 v=0
174219 On ch=1 n=c#5 v=0
174247 On ch=1 n=b4 v=37
174263 On ch=1 n=g#6 v=72
174443 On ch=1 n=g#6 v=0
174443 On ch=1 n=f7 v=72
174576 On ch=1 n=g#5 v=40
174676 On ch=1 n=c#7 v=65
174859 On ch=1 n=g#5 v=0
174907 On ch=1 n=c#5 v=41
174912 On ch=1 n=a#7 v=60
174943 On ch=1 n=c#7 v=0
175112 On ch=1 n=f7 v=0
175175 On ch=1 n=c#5 v=0
175175 On ch=1 n=b4 v=0
175356 On ch=1 n=g#7 v=51
175532 On ch=1 n=a#7 v=0
175616 On ch=1 n=f4 v=37
175839 On ch=1 n=c#5 v=38
175859 On ch=1 n=f4 v=0
176027 On ch=1 n=c#5 v=0
176067 On ch=1 n=b4 v=44
176306 On ch=1 n=g#5 v=37
176468 On ch=1 n=b4 v=0
176528 On ch=1 n=g#5 v=0
176540 On ch=1 n=c#5 v=32
176739 On ch=1 n=c#5 v=0
176783 On ch=1 n=b4 v=39
177022 On ch=1 n=f4 v=43
177052 On ch=1 n=b4 v=0
177276 On ch=1 n=f4 v=0
177287 On ch=1 n=c#5 v=51
177496 On ch=1 n=c#5 v=0
177547 On ch=1 n=b4 v=40
177588 On ch=1 n=g#7 v=0
177819 On ch=1 n=g#5 v=38
177872 On ch=1 n=g#5 v=0
178199 On ch=1 n=c#5 v=75
178255 On ch=1 n=b4 v=0
178568 On ch=1 n=c#5 v=0
178628 Par ch=1 c=67 v=0
178780 On ch=1 n=c#3 v=38
178959 On ch=1 n=c#5 v=85
179156 Par ch=1 c=64 v=0
179255 Par ch=1 c=67 v=127
179347 Par ch=1 c=64 v=127
179452 On ch=1 n=c#3 v=0
179748 On ch=1 n=c#4 v=37
180063 On ch=1 n=a#4 v=38
180186 On ch=1 n=a#4 v=0
180235 On ch=1 n=c#4 v=0
180296 On ch=1 n=f#4 v=42
180323 On ch=1 n=c#5 v=0
180548 On ch=1 n=f#5 v=41
180655 On ch=1 n=f#5 v=0
180706 On ch=1 n=f#4 v=0
180788 On ch=1 n=a#4 v=38
180983 On ch=1 n=a#4 v=0
181043 On ch=1 n=f#4 v=37
181167 On ch=1 n=f#4 v=0
181216 On ch=1 n=a#5 v=56
181256 On ch=1 n=c#4 v=38
181423 On ch=1 n=f#5 v=52
181563 On ch=1 n=a#4 v=40
181606 On ch=1 n=f#5 v=0
181623 On ch=1 n=d#6 v=66
181716 On ch=1 n=a#4 v=0
181720 On ch=1 n=d#6 v=0
181732 On ch=1 n=a#5 v=0
181747 On ch=1 n=c#4 v=0
181788 On ch=1 n=f#4 v=39
181832 On ch=1 n=c#6 v=67
181959 On ch=1 n=c#6 v=0
182039 On ch=1 n=a#6 v=62
182160 On ch=1 n=f#5 v=38
182272 On ch=1 n=f#6 v=56
182379 On ch=1 n=f#5 v=0
182519 On ch=1 n=d#7 v=56
182539 On ch=1 n=f#6 v=0
182631 On ch=1 n=a#6 v=0
182980 On ch=1 n=c#7 v=46
183068 On ch=1 n=f#4 v=0
183183 On ch=1 n=d#7 v=0
183295 On ch=1 n=c#4 v=40
183566 On ch=1 n=a#4 v=38
183623 On ch=1 n=c#4 v=0
183663 On ch=1 n=a#4 v=0
183788 On ch=1 n=f#4 v=39
184020 On ch=1 n=f#5 v=38
184166 On ch=1 n=f#4 v=0
184215 On ch=1 n=f#5 v=0
184276 On ch=1 n=a#4 v=37
184502 On ch=1 n=f#4 v=39
184523 On ch=1 n=a#4 v=0
184703 On ch=1 n=f#4 v=0
184763 On ch=1 n=c#4 v=38
184967 On ch=1 n=c#7 v=0
185028 On ch=1 n=a#4 v=38
185087 On ch=1 n=c#4 v=0
185132 On ch=1 n=a#4 v=0
185227 On ch=1 n=f#4 v=40
185539 On ch=1 n=f#5 v=37
185686 On ch=1 n=c#6 v=67
185703 On ch=1 n=f#5 v=0
185903 On ch=1 n=a#4 v=41
185996 On ch=1 n=a#4 v=0
185996 Par ch=1 c=67 v=0
186116 On ch=1 n=e5 v=53
186163 On ch=1 n=f#4 v=0
186326 On ch=1 n=a5 v=56
186488 On ch=1 n=c#6 v=0
186559 On ch=1 n=c#3 v=37
186816 Par ch=1 c=64 v=0
186863 On ch=1 n=c#6 v=78
187103 Par ch=1 c=64 v=127
187163 Par ch=1 c=67 v=127
187312 On ch=1 n=c#3 v=0
187580 On ch=1 n=c#4 v=38
187912 On ch=1 n=a4 v=37
188080 On ch=1 n=c#4 v=0
188143 On ch=1 n=a4 v=0
188186 On ch=1 n=e4 v=39
188399 On ch=1 n=e5 v=0
188427 On ch=1 n=e4 v=0
188427 On ch=1 n=e5 v=38
188635 On ch=1 n=e5 v=0
188643 On ch=1 n=a4 v=43
188872 On ch=1 n=e4 v=37
188896 On ch=1 n=a4 v=0
189119 On ch=1 n=c#4 v=37
189126 On ch=1 n=e4 v=0
189382 On ch=1 n=c#4 v=0
189415 On ch=1 n=a4 v=38
189623 On ch=1 n=a4 v=0
189663 On ch=1 n=e4 v=37
189682 On ch=1 n=c#6 v=0
189759 On ch=1 n=a5 v=0
189872 On ch=1 n=e6 v=48
189983 On ch=1 n=e5 v=34
190023 On ch=1 n=e4 v=0
190071 On ch=1 n=e5 v=0
190086 On ch=1 n=e6 v=0
190168 On ch=1 n=c#6 v=49
190168 On ch=1 n=a5 v=39
190207 On ch=1 n=a4 v=41
190259 On ch=1 n=a4 v=0
190392 On ch=1 n=f#6 v=53
190439 On ch=1 n=a5 v=0
190439 On ch=1 n=c#6 v=0
190451 On ch=1 n=f#6 v=0
190635 On ch=1 n=e6 v=59
190827 On ch=1 n=e6 v=0
190855 On ch=1 n=a6 v=69
191036 On ch=1 n=e6 v=66
191048 On ch=1 n=a6 v=0
191048 On ch=1 n=c#6 v=44
191172 On ch=1 n=e6 v=0
191212 On ch=1 n=b6 v=69
191359 On ch=1 n=b6 v=0
191379 On ch=1 n=a6 v=64
191516 On ch=1 n=a6 v=0
191516 On ch=1 n=c#7 v=65
191652 On ch=1 n=c#7 v=0
191692 On ch=1 n=a6 v=62
191692 On ch=1 n=e6 v=53
191703 On ch=1 n=c#6 v=0
191787 On ch=1 n=a6 v=0
191791 On ch=1 n=e6 v=0
191859 On ch=1 n=d#7 v=58
191979 On ch=1 n=d#7 v=0
192008 On ch=1 n=c#7 v=64
192108 On ch=1 n=c#7 v=0
192159 On ch=1 n=e7 v=67
192227 On ch=1 n=e7 v=0
192307 On ch=1 n=c#7 v=69
192307 On ch=1 n=a6 v=52
192423 On ch=1 n=c#7 v=0
192440 On ch=1 n=a6 v=0
192462 On ch=1 n=f#7 v=71
192508 On ch=1 n=f#7 v=0
192607 On ch=1 n=e7 v=71
192726 On ch=1 n=e7 v=0
192759 On ch=1 n=a7 v=71
192879 On ch=1 n=a7 v=0
192915 On ch=1 n=c#7 v=48
192922 On ch=1 n=e7 v=65
193015 On ch=1 n=e7 v=0
193048 On ch=1 n=b7 v=72
193119 On ch=1 n=b7 v=0
193212 On ch=1 n=a7 v=77
193328 On ch=1 n=a7 v=0
193343 On ch=1 n=c#8 v=76
193479 On ch=1 n=c#8 v=0
193512 On ch=1 n=a7 v=69
193516 On ch=1 n=e7 v=48
193628 On ch=1 n=a7 v=0
193648 On ch=1 n=c#7 v=0
193656 On ch=1 n=d#8 v=72
193772 On ch=1 n=d#8 v=0
193823 On ch=1 n=e7 v=0
193832 On ch=1 n=a7 v=62
193940 On ch=1 n=a7 v=0
193986 On ch=1 n=c#8 v=53
194123 On ch=1 n=c#8 v=0
194148 On ch=1 n=e7 v=42
194148 On ch=1 n=a7 v=46
194276 On ch=1 n=a7 v=0
194306 On ch=1 n=d#8 v=60
194335 On ch=1 n=e7 v=0
194436 On ch=1 n=d#8 v=0
194499 On ch=1 n=a7 v=46
194607 On ch=1 n=a7 v=0
194655 On ch=1 n=c#8 v=47
194827 On ch=1 n=a7 v=41
194832 On ch=1 n=e7 v=35
194859 On ch=1 n=c#8 v=0
195016 On ch=1 n=d#8 v=53
195040 On ch=1 n=a7 v=0
195055 On ch=1 n=e7 v=0
195167 On ch=1 n=d#8 v=0
195219 On ch=1 n=a7 v=42
195399 On ch=1 n=c#8 v=48
195435 On ch=1 n=a7 v=0
195596 On ch=1 n=c#8 v=0
195596 On ch=1 n=a7 v=40
195596 On ch=1 n=e7 v=40
195775 On ch=1 n=d#8 v=51
195799 On ch=1 n=a7 v=0
195900 On ch=1 n=e7 v=0
195926 On ch=1 n=d#8 v=0
195995 On ch=1 n=a7 v=32
196207 On ch=1 n=c#8 v=43
196236 On ch=1 n=a7 v=0
196468 On ch=1 n=e7 v=34
196468 On ch=1 n=a7 v=38
196476 On ch=1 n=c#8 v=0
196759 On ch=1 n=d#8 v=42
196863 On ch=1 n=a7 v=0
197003 On ch=1 n=a7 v=40
197046 On ch=1 n=e7 v=0
197063 On ch=1 n=d#8 v=0
197308 On ch=1 n=c#8 v=42
197319 On ch=1 n=a7 v=0
197631 On ch=1 n=c#8 v=0
197667 On ch=1 n=e7 v=38
197667 On ch=1 n=a7 v=32
198151 On ch=1 n=d#8 v=40
198356 On ch=1 n=d#8 v=0
198371 On ch=1 n=e7 v=0
198399 On ch=1 n=a7 v=0
199248 On ch=1 n=f8 v=70
199266 On ch=1 n=c#8 v=55
199280 On ch=1 n=g#7 v=48
199283 On ch=1 n=f7 v=48
199299 On ch=1 n=c#3 v=38
199403 Par ch=1 c=64 v=0
199691 Par ch=1 c=64 v=127
199787 On ch=1 n=c#3 v=0
200223 On ch=1 n=f4 v=38
200611 On ch=1 n=c#5 v=37
200823 On ch=1 n=c#5 v=0
200879 On ch=1 n=g#4 v=38
201132 On ch=1 n=f5 v=37
201223 On ch=1 n=g#4 v=0
201368 On ch=1 n=c#5 v=38
201546 On ch=1 n=f4 v=0
201546 On ch=1 n=f8 v=0
201596 On ch=1 n=f7 v=0
201608 On ch=1 n=g#4 v=38
201639 On ch=1 n=c#8 v=0
201655 On ch=1 n=c#5 v=0
201727 On ch=1 n=g#7 v=0
201863 On ch=1 n=f4 v=37
201892 On ch=1 n=g#4 v=0
201895 On ch=1 n=f#7 v=69
201899 On ch=1 n=a#7 v=69
201952 On ch=1 n=f5 v=0
202128 On ch=1 n=c#5 v=37
202295 On ch=1 n=a#7 v=0
202295 On ch=1 n=f#7 v=0
202305 On ch=1 n=c#5 v=0
202309 On ch=1 n=f7 v=60
202312 On ch=1 n=c#7 v=60
202365 On ch=1 n=g#4 v=38
202409 On ch=1 n=c#7 v=0
202409 On ch=1 n=f7 v=0
202596 On ch=1 n=f5 v=37
202693 On ch=1 n=a#7 v=75
202693 On ch=1 n=f#7 v=75
202825 On ch=1 n=c#5 v=36
202885 On ch=1 n=f#7 v=0
202885 On ch=1 n=a#7 v=0
203032 On ch=1 n=f7 v=69
203036 On ch=1 n=g#7 v=69
203076 On ch=1 n=c#5 v=0
203129 On ch=1 n=g#4 v=0
203256 On ch=1 n=f4 v=0
203273 On ch=1 n=g#7 v=0
203273 On ch=1 n=f7 v=0
203316 On ch=1 n=f4 v=38
203423 On ch=1 n=f#7 v=69
203423 On ch=1 n=a#7 v=69
203460 On ch=1 n=f5 v=0
203600 On ch=1 n=c#5 v=37
203692 On ch=1 n=a#7 v=0
203692 On ch=1 n=f#7 v=0
203736 On ch=1 n=c#5 v=0
203783 On ch=1 n=f7 v=66
203783 On ch=1 n=c#7 v=66
203840 On ch=1 n=g#4 v=38
203900 On ch=1 n=c#7 v=0
203900 On ch=1 n=f7 v=0
204060 On ch=1 n=f5 v=35
204159 On ch=1 n=f#7 v=65
204163 On ch=1 n=a#7 v=65
204316 On ch=1 n=c#5 v=34
204379 On ch=1 n=f#7 v=0
204383 On ch=1 n=a#7 v=0
204516 On ch=1 n=f7 v=60
204516 On ch=1 n=g#7 v=60
204544 On ch=1 n=c#5 v=0
204596 On ch=1 n=g#4 v=0
204620 On ch=1 n=g#7 v=0
204620 On ch=1 n=f7 v=0
204724 On ch=1 n=f5 v=0
204863 On ch=1 n=f4 v=0
204912 On ch=1 n=f#7 v=65
204912 On ch=1 n=a#7 v=65
205200 On ch=1 n=a#7 v=0
205200 On ch=1 n=f#7 v=0
205325 On ch=1 n=f7 v=60
205325 On ch=1 n=c#7 v=60
205512 On ch=1 n=c#7 v=0
205512 On ch=1 n=f7 v=0
205716 On ch=1 n=f#7 v=63
205716 On ch=1 n=a#7 v=63
205913 On ch=1 n=a#7 v=0
205913 On ch=1 n=f#7 v=0
206112 On ch=1 n=f7 v=69
206112 On ch=1 n=g#7 v=69
206144 Par ch=1 c=64 v=0
206249 Par ch=1 c=64 v=127
206336 On ch=1 n=f7 v=0
206340 On ch=1 n=g#7 v=0
206552 On ch=1 n=c#7 v=55
206552 On ch=1 n=f7 v=55
206620 On ch=1 n=c#7 v=0
206629 On ch=1 n=f7 v=0
206920 On ch=1 n=a#6 v=53
206924 On ch=1 n=c#7 v=53
207023 On ch=1 n=a#6 v=0
207029 On ch=1 n=c#7 v=0
207289 On ch=1 n=f#6 v=52
207289 On ch=1 n=a#6 v=52
207396 On ch=1 n=f#6 v=0
207399 On ch=1 n=a#6 v=0
207696 On ch=1 n=g#6 v=51
207699 On ch=1 n=f6 v=51
207776 On ch=1 n=f6 v=0
207776 On ch=1 n=g#6 v=0
208085 On ch=1 n=c#6 v=42
208085 On ch=1 n=f6 v=42
208164 On ch=1 n=f6 v=0
208164 On ch=1 n=c#6 v=0
208509 On ch=1 n=c#6 v=50
208509 On ch=1 n=a#5 v=50
208579 On ch=1 n=a#5 v=0
208579 On ch=1 n=c#6 v=0
208973 On ch=1 n=a#5 v=42
208973 On ch=1 n=f#5 v=42
209121 On ch=1 n=a#5 v=0
209125 On ch=1 n=f#5 v=0
209493 Par ch=1 c=64 v=0
209560 On ch=1 n=g#5 v=42
209560 On ch=1 n=f5 v=41
209710 On ch=1 n=f5 v=0
209710 On ch=1 n=g#5 v=0
209746 Par ch=1 c=64 v=127
210553 On ch=1 n=f5 v=38
210553 On ch=1 n=c#5 v=37
210742 On ch=1 n=f5 v=0
210746 On ch=1 n=c#5 v=0
211669 On ch=1 n=c#5 v=38
211669 On ch=1 n=a#4 v=37
211921 On ch=1 n=a#4 v=0
211921 On ch=1 n=c#5 v=0
213093 On ch=1 n=a#4 v=34
213093 On ch=1 n=f#4 v=40
214070 On ch=1 n=f#4 v=0
214097 On ch=1 n=a#4 v=0
216302 On ch=1 n=g#4 v=35
216302 On ch=1 n=f4 v=35
216302 Par ch=1 c=64 v=0
216401 Par ch=1 c=64 v=127
217217 On ch=1 n=f4 v=0
217217 On ch=1 n=g#4 v=0
218617 Par ch=1 c=67 v=0
219006 Par ch=1 c=64 v=0
221886 Par ch=1 c=120 v=0
221889 Par ch=1 c=120 v=0
221899 SysEx f0 7e 7f 09 01 f7
221899 Meta TrkEnd
TrkEnd
