MFile 1 2 480
MTrk
0 Tempo 500000
0 TimeSig 6/8 24 8
0 Meta TrkEnd
TrkEnd
MTrk
0 SeqSpec 43 00 01 00
0 Meta TrkName "<Master Volume>"
0 Meta 0x21 00
0 SysEx f0 41 10 42 12 40 00 7f 00 41 f7
0 SysEx f0 41 10 42 12 40 00 04 64 58 f7
192 Meta Text "<Master Reverve>"
192 SysEx f0 41 10 42 12 40 01 30 03 0c f7
192 SysEx f0 41 10 42 12 40 01 33 3c 50 f7
192 SysEx f0 41 10 42 12 40 01 34 3c 4f f7
576 Par ch=1 c=0 v=0
580 Par ch=1 c=32 v=1
584 PrCh ch=1 p=0
642 Par ch=1 c=67 v=0
780 Par ch=1 c=7 v=100
972 Par ch=1 c=11 v=80
1164 Par ch=1 c=10 v=64
1356 Par ch=1 c=1 v=0
1356 Meta Text "<part reverve>"
1356 Par ch=1 c=91 v=80
1374 Par ch=1 c=67 v=0
1452 Par ch=1 c=99 v=1
1456 Par ch=1 c=98 v=32
1460 Par ch=1 c=6 v=62
1464 Par ch=1 c=99 v=1
1468 Par ch=1 c=98 v=33
1472 Par ch=1 c=6 v=54
1476 Par ch=1 c=99 v=1
1480 Par ch=1 c=98 v=99
1484 Par ch=1 c=6 v=62
1488 Par ch=1 c=99 v=1
1492 Par ch=1 c=98 v=100
1496 Par ch=1 c=6 v=60
1500 Par ch=1 c=99 v=1
1504 Par ch=1 c=98 v=102
1508 Par ch=1 c=6 v=70
4910 On ch=1 n=d#5 v=65
4918 On ch=1 n=e5 v=78
4932 On ch=1 n=g5 v=51
4934 On ch=1 n=b4 v=51
4982 Par ch=1 c=64 v=63
4984 Par ch=1 c=64 v=127
5072 On ch=1 n=e5 v=0
5210 On ch=1 n=g5 v=0
5254 On ch=1 n=a#5 v=88
5268 On ch=1 n=d#5 v=0
5294 On ch=1 n=b4 v=0
5326 On ch=1 n=a#5 v=0
5330 On ch=1 n=b5 v=85
5412 On ch=1 n=b5 v=0
5496 Par ch=1 c=64 v=63
5514 Par ch=1 c=64 v=0
5662 On ch=1 n=g#4 v=61
5664 On ch=1 n=d#6 v=105
5666 On ch=1 n=e5 v=59
5668 On ch=1 n=c5 v=55
5764 Par ch=1 c=64 v=63
5770 Par ch=1 c=64 v=127
6060 On ch=1 n=e5 v=0
6074 On ch=1 n=c5 v=0
6136 On ch=1 n=g#4 v=0
6452 On ch=1 n=e4 v=84
6454 On ch=1 n=a3 v=75
6494 On ch=1 n=e4 v=0
6518 On ch=1 n=a3 v=0
6684 On ch=1 n=d#6 v=0
6844 On ch=1 n=c6 v=71
6928 On ch=1 n=d#6 v=96
6956 On ch=1 n=c6 v=0
6998 On ch=1 n=d#6 v=0
7226 On ch=1 n=c6 v=90
7230 On ch=1 n=f5 v=80
7232 On ch=1 n=c#5 v=87
7238 On ch=1 n=a4 v=68
7350 Par ch=1 c=64 v=63
7390 Par ch=1 c=64 v=127
7528 On ch=1 n=a4 v=0
7528 On ch=1 n=c#5 v=0
7548 On ch=1 n=f5 v=0
7570 On ch=1 n=c6 v=0
7574 On ch=1 n=b5 v=84
7670 On ch=1 n=c#5 v=104
7674 On ch=1 n=b5 v=0
7726 On ch=1 n=c#5 v=0
7946 On ch=1 n=b5 v=92
7950 Par ch=1 c=64 v=63
7956 On ch=1 n=g#5 v=81
7958 On ch=1 n=f5 v=79
7964 Par ch=1 c=64 v=0
7988 Par ch=1 c=64 v=63
8014 Par ch=1 c=64 v=127
8064 On ch=1 n=g#5 v=0
8090 On ch=1 n=f5 v=0
8094 On ch=1 n=b5 v=0
8356 On ch=1 n=f#3 v=88
8384 On ch=1 n=c#5 v=88
8430 On ch=1 n=f#3 v=0
8456 On ch=1 n=c#5 v=0
8654 On ch=1 n=a4 v=59
8658 On ch=1 n=g#5 v=85
8672 On ch=1 n=c5 v=71
8676 On ch=1 n=e5 v=76
8686 Par ch=1 c=64 v=63
8758 Par ch=1 c=64 v=127
8846 On ch=1 n=a4 v=0
8848 On ch=1 n=c5 v=0
8916 On ch=1 n=g#5 v=0
8974 On ch=1 n=c5 v=85
9028 On ch=1 n=e5 v=0
9050 On ch=1 n=g#5 v=91
9056 On ch=1 n=b3 v=75
9066 On ch=1 n=d#5 v=93
9072 On ch=1 n=c5 v=0
9120 On ch=1 n=d#5 v=0
9148 On ch=1 n=b3 v=0
9158 On ch=1 n=g#5 v=0
9340 On ch=1 n=a#4 v=80
9358 Par ch=1 c=64 v=63
9360 On ch=1 n=f#5 v=94
9366 On ch=1 n=g4 v=54
9368 On ch=1 n=c#5 v=81
9370 Par ch=1 c=64 v=0
9496 Par ch=1 c=64 v=63
9514 Par ch=1 c=64 v=127
9556 On ch=1 n=f#5 v=0
9626 On ch=1 n=a#4 v=0
9630 On ch=1 n=g4 v=0
9796 On ch=1 n=b3 v=71
9800 On ch=1 n=e5 v=89
9856 On ch=1 n=c#5 v=0
9914 On ch=1 n=e5 v=0
9994 On ch=1 n=b3 v=0
10062 On ch=1 n=f#4 v=70
10068 On ch=1 n=a4 v=58
10074 Par ch=1 c=64 v=63
10082 On ch=1 n=e5 v=71
10082 On ch=1 n=c5 v=75
10084 Par ch=1 c=64 v=0
10188 Par ch=1 c=64 v=63
10214 Par ch=1 c=64 v=127
10384 On ch=1 n=f#5 v=88
10408 On ch=1 n=a4 v=0
10448 On ch=1 n=e5 v=0
10462 On ch=1 n=b3 v=71
10470 On ch=1 n=f#4 v=0
10484 On ch=1 n=d5 v=90
10520 On ch=1 n=c5 v=0
10532 On ch=1 n=f#5 v=0
10546 On ch=1 n=b3 v=0
10566 On ch=1 n=d5 v=0
10712 Par ch=1 c=64 v=63
10724 Par ch=1 c=64 v=0
10786 On ch=1 n=b3 v=65
10792 On ch=1 n=g4 v=70
10794 On ch=1 n=e3 v=60
10806 On ch=1 n=e5 v=86
10810 On ch=1 n=b4 v=75
10842 Par ch=1 c=64 v=63
10862 Par ch=1 c=64 v=127
10878 On ch=1 n=g4 v=0
10894 On ch=1 n=b4 v=0
10924 On ch=1 n=e5 v=0
11122 On ch=1 n=e3 v=0
11128 On ch=1 n=b3 v=0
11162 On ch=1 n=a#5 v=90
11202 Par ch=1 c=64 v=63
11208 Par ch=1 c=64 v=0
11252 On ch=1 n=b5 v=84
11258 On ch=1 n=a#5 v=0
11344 On ch=1 n=b5 v=0
11576 On ch=1 n=d#6 v=112
11578 On ch=1 n=c5 v=76
11590 On ch=1 n=e5 v=84
11598 On ch=1 n=g#4 v=81
11648 Par ch=1 c=64 v=63
11652 Par ch=1 c=64 v=127
11918 On ch=1 n=e5 v=0
11946 On ch=1 n=c5 v=0
12018 On ch=1 n=g#4 v=0
12382 On ch=1 n=a3 v=80
12384 On ch=1 n=e4 v=84
12424 On ch=1 n=e4 v=0
12448 On ch=1 n=a3 v=0
12482 On ch=1 n=d#6 v=0
12752 On ch=1 n=c6 v=84
12824 On ch=1 n=d#6 v=103
12852 On ch=1 n=c6 v=0
12896 On ch=1 n=d#6 v=0
13134 On ch=1 n=c6 v=92
13134 On ch=1 n=f5 v=76
13136 On ch=1 n=c#5 v=84
13144 On ch=1 n=a4 v=59
13190 Par ch=1 c=64 v=63
13248 Par ch=1 c=64 v=127
13394 On ch=1 n=a4 v=0
13406 On ch=1 n=c#5 v=0
13444 On ch=1 n=f5 v=0
13472 On ch=1 n=b5 v=84
13518 On ch=1 n=c6 v=0
13570 On ch=1 n=b5 v=0
13570 On ch=1 n=c#5 v=108
13632 On ch=1 n=c#5 v=0
13820 Par ch=1 c=64 v=63
13828 Par ch=1 c=64 v=0
13832 On ch=1 n=b5 v=84
13840 On ch=1 n=g#5 v=87
13848 On ch=1 n=f5 v=57
13898 Par ch=1 c=64 v=63
13924 Par ch=1 c=64 v=127
13944 On ch=1 n=g#5 v=0
13964 On ch=1 n=f5 v=0
13968 On ch=1 n=b5 v=0
14248 On ch=1 n=f#3 v=78
14272 On ch=1 n=c#5 v=98
14312 On ch=1 n=f#3 v=0
14340 On ch=1 n=c#5 v=0
14532 On ch=1 n=g#5 v=88
14534 On ch=1 n=a4 v=63
14538 Par ch=1 c=64 v=63
14544 On ch=1 n=c5 v=77
14552 Par ch=1 c=64 v=0
14556 On ch=1 n=e5 v=78
14622 Par ch=1 c=64 v=63
14654 Par ch=1 c=64 v=127
14714 On ch=1 n=c5 v=0
14726 On ch=1 n=a4 v=0
14794 On ch=1 n=g#5 v=0
14862 On ch=1 n=c5 v=73
14906 On ch=1 n=e5 v=0
14938 On ch=1 n=g#5 v=96
14944 On ch=1 n=d#5 v=94
14946 On ch=1 n=b3 v=72
14958 On ch=1 n=c5 v=0
15016 On ch=1 n=d#5 v=0
15060 On ch=1 n=g#5 v=0
15152 On ch=1 n=b3 v=0
15166 Par ch=1 c=64 v=63
15182 Par ch=1 c=64 v=0
15234 On ch=1 n=a#4 v=82
15238 On ch=1 n=g4 v=70
15250 On ch=1 n=c#5 v=92
15250 On ch=1 n=f#5 v=97
15356 Par ch=1 c=64 v=63
15376 Par ch=1 c=64 v=127
15456 On ch=1 n=f#5 v=0
15504 On ch=1 n=g4 v=0
15520 On ch=1 n=a#4 v=0
15682 On ch=1 n=c#5 v=0
15688 On ch=1 n=b3 v=77
15700 On ch=1 n=e5 v=94
15792 On ch=1 n=e5 v=0
15948 Par ch=1 c=64 v=63
15954 On ch=1 n=b3 v=0
15960 Par ch=1 c=64 v=0
15966 On ch=1 n=f#4 v=77
15974 On ch=1 n=a4 v=62
15976 On ch=1 n=e5 v=92
15986 On ch=1 n=c5 v=86
16076 Par ch=1 c=64 v=63
16096 Par ch=1 c=64 v=127
16098 On ch=1 n=a4 v=0
16098 On ch=1 n=f#4 v=0
16296 On ch=1 n=f#5 v=88
16364 On ch=1 n=e5 v=0
16378 On ch=1 n=b3 v=82
16384 On ch=1 n=d5 v=98
16406 On ch=1 n=c5 v=0
16440 On ch=1 n=f#5 v=0
16456 On ch=1 n=d5 v=0
16456 On ch=1 n=b3 v=0
16590 Par ch=1 c=64 v=63
16602 Par ch=1 c=64 v=0
16672 On ch=1 n=b3 v=85
16678 On ch=1 n=g4 v=84
16680 On ch=1 n=e5 v=93
16680 On ch=1 n=e3 v=78
16684 On ch=1 n=b4 v=86
16734 Par ch=1 c=64 v=63
16744 On ch=1 n=g4 v=0
16750 Par ch=1 c=64 v=127
16756 On ch=1 n=b4 v=0
16792 On ch=1 n=e5 v=0
16956 On ch=1 n=e3 v=0
16970 On ch=1 n=b3 v=0
17018 On ch=1 n=a#5 v=94
17096 On ch=1 n=b5 v=98
17098 Par ch=1 c=64 v=63
17102 On ch=1 n=a#5 v=0
17110 Par ch=1 c=64 v=0
17182 On ch=1 n=b5 v=0
17412 On ch=1 n=d#6 v=109
17422 On ch=1 n=c5 v=67
17426 On ch=1 n=e5 v=61
17438 On ch=1 n=g#4 v=74
17454 Par ch=1 c=64 v=63
17458 Par ch=1 c=64 v=127
17836 On ch=1 n=e5 v=0
17848 On ch=1 n=b5 v=98
17878 On ch=1 n=c5 v=0
17930 On ch=1 n=g#4 v=0
17932 On ch=1 n=b5 v=0
17944 On ch=1 n=b6 v=111
18000 On ch=1 n=d#6 v=0
18296 On ch=1 n=c#3 v=79
18298 On ch=1 n=g#3 v=82
18430 Par ch=1 c=64 v=63
18442 Par ch=1 c=64 v=0
18464 Par ch=1 c=64 v=63
18488 Par ch=1 c=64 v=127
18672 On ch=1 n=c#3 v=0
18688 On ch=1 n=c#6 v=85
18706 On ch=1 n=g#3 v=0
18776 On ch=1 n=c#6 v=0
18784 On ch=1 n=d#6 v=105
18866 On ch=1 n=d#6 v=0
19006 On ch=1 n=b6 v=0
19100 On ch=1 n=g#5 v=81
19104 On ch=1 n=b6 v=106
19108 On ch=1 n=b5 v=78
19114 On ch=1 n=d#5 v=80
19124 On ch=1 n=f5 v=46
19128 On ch=1 n=g#6 v=92
19412 On ch=1 n=b6 v=0
19444 On ch=1 n=g#6 v=0
19446 On ch=1 n=a#6 v=95
19486 On ch=1 n=d#5 v=0
19526 On ch=1 n=f5 v=0
19538 On ch=1 n=b5 v=0
19540 On ch=1 n=g#6 v=110
19544 On ch=1 n=c#5 v=93
19586 On ch=1 n=g#5 v=0
19610 On ch=1 n=a#6 v=0
19654 On ch=1 n=g#6 v=0
19670 On ch=1 n=c#5 v=0
19820 On ch=1 n=c#7 v=103
19830 On ch=1 n=a5 v=76
19840 On ch=1 n=f#6 v=91
19844 On ch=1 n=c#6 v=82
19846 Par ch=1 c=64 v=63
19852 On ch=1 n=f#5 v=61
19860 Par ch=1 c=64 v=0
19862 On ch=1 n=e5 v=63
19878 Par ch=1 c=64 v=63
19902 Par ch=1 c=64 v=127
19924 On ch=1 n=c#6 v=0
20000 On ch=1 n=a5 v=0
20056 On ch=1 n=f#5 v=0
20068 On ch=1 n=c#6 v=87
20090 On ch=1 n=e5 v=0
20128 On ch=1 n=f#6 v=0
20178 On ch=1 n=c#6 v=0
20272 On ch=1 n=c#5 v=82
20286 On ch=1 n=c#7 v=0
20288 On ch=1 n=e6 v=71
20408 On ch=1 n=e6 v=0
20426 On ch=1 n=c#5 v=0
20540 On ch=1 n=g#5 v=82
20542 On ch=1 n=g#6 v=103
20548 On ch=1 n=b5 v=76
20550 On ch=1 n=b6 v=85
20560 On ch=1 n=d#5 v=73
20562 On ch=1 n=f5 v=65
20594 Par ch=1 c=64 v=63
20608 Par ch=1 c=64 v=0
20680 Par ch=1 c=64 v=63
20708 Par ch=1 c=64 v=127
20886 On ch=1 n=a#6 v=95
20888 On ch=1 n=g#6 v=0
20912 On ch=1 n=b6 v=0
20974 On ch=1 n=g#6 v=105
20978 On ch=1 n=d#5 v=0
20984 On ch=1 n=c#5 v=86
21004 On ch=1 n=b5 v=0
21010 On ch=1 n=f5 v=0
21038 On ch=1 n=g#5 v=0
21040 On ch=1 n=a#6 v=0
21086 On ch=1 n=c#5 v=0
21092 On ch=1 n=g#6 v=0
21242 Par ch=1 c=64 v=63
21246 On ch=1 n=c#7 v=108
21256 Par ch=1 c=64 v=0
21256 On ch=1 n=a5 v=84
21262 On ch=1 n=c#6 v=101
21262 On ch=1 n=f#6 v=97
21270 On ch=1 n=f#5 v=60
21286 On ch=1 n=e5 v=65
21290 Par ch=1 c=64 v=63
21310 Par ch=1 c=64 v=127
21348 On ch=1 n=c#6 v=0
21388 On ch=1 n=a5 v=0
21444 On ch=1 n=f#5 v=0
21452 On ch=1 n=e5 v=0
21478 On ch=1 n=c#6 v=97
21530 On ch=1 n=f#6 v=0
21572 On ch=1 n=c#6 v=0
21650 On ch=1 n=c#5 v=83
21676 On ch=1 n=e6 v=101
21812 On ch=1 n=c#5 v=0
21842 On ch=1 n=e6 v=0
21888 Par ch=1 c=64 v=63
21898 Par ch=1 c=64 v=0
21908 On ch=1 n=f#6 v=96
21914 On ch=1 n=c#6 v=90
21922 On ch=1 n=a5 v=68
21930 On ch=1 n=f#5 v=77
21930 On ch=1 n=e5 v=69
21938 On ch=1 n=c#7 v=0
21940 Par ch=1 c=64 v=63
21958 Par ch=1 c=64 v=127
21992 On ch=1 n=e5 v=0
22016 On ch=1 n=a5 v=0
22022 On ch=1 n=f#5 v=0
22050 On ch=1 n=c#6 v=0
22074 On ch=1 n=f#6 v=0
22126 On ch=1 n=a6 v=97
22206 On ch=1 n=a6 v=0
22348 On ch=1 n=c#7 v=114
22350 On ch=1 n=g#6 v=90
22350 On ch=1 n=e6 v=81
22414 On ch=1 n=g#6 v=0
22430 On ch=1 n=c#7 v=0
22432 On ch=1 n=e6 v=0
22626 On ch=1 n=f#6 v=98
22628 On ch=1 n=e6 v=94
22634 On ch=1 n=a6 v=100
22636 On ch=1 n=e7 v=110
22642 On ch=1 n=c#6 v=88
22718 Par ch=1 c=64 v=63
22728 Par ch=1 c=64 v=0
23004 On ch=1 n=f#7 v=104
23032 On ch=1 n=e7 v=0
23060 Par ch=1 c=64 v=63
23066 Par ch=1 c=64 v=127
23092 On ch=1 n=d#7 v=104
23100 On ch=1 n=e6 v=0
23102 On ch=1 n=f#6 v=0
23120 On ch=1 n=a6 v=0
23142 On ch=1 n=f#7 v=0
23146 On ch=1 n=c#6 v=0
23172 On ch=1 n=d#7 v=0
23386 On ch=1 n=d#7 v=109
23390 On ch=1 n=d#6 v=88
23398 On ch=1 n=e6 v=84
23400 On ch=1 n=b5 v=79
23402 On ch=1 n=g#6 v=95
23418 Par ch=1 c=64 v=63
23434 Par ch=1 c=64 v=0
23642 Par ch=1 c=64 v=63
23656 Par ch=1 c=64 v=127
23814 On ch=1 n=d#7 v=0
23828 On ch=1 n=e6 v=0
23832 On ch=1 n=d#6 v=0
23836 On ch=1 n=b5 v=0
23840 On ch=1 n=e7 v=100
23890 On ch=1 n=g#6 v=0
23920 On ch=1 n=e7 v=0
24070 Par ch=1 c=64 v=63
24086 Par ch=1 c=64 v=0
24122 On ch=1 n=c#7 v=107
24122 On ch=1 n=c#6 v=93
24126 On ch=1 n=e6 v=88
24128 On ch=1 n=a5 v=80
24136 On ch=1 n=f#6 v=93
24258 Par ch=1 c=64 v=63
24276 Par ch=1 c=64 v=127
24432 On ch=1 n=e6 v=0
24480 On ch=1 n=d#7 v=91
24486 On ch=1 n=a5 v=0
24498 On ch=1 n=c#6 v=0
24528 On ch=1 n=f#6 v=0
24534 On ch=1 n=c#7 v=0
24568 On ch=1 n=b6 v=92
24578 On ch=1 n=d#7 v=0
24658 On ch=1 n=b6 v=0
24828 Par ch=1 c=64 v=63
24836 On ch=1 n=b5 v=81
24838 On ch=1 n=d#6 v=83
24840 On ch=1 n=b6 v=94
24842 Par ch=1 c=64 v=0
24844 On ch=1 n=g#5 v=71
24852 On ch=1 n=e6 v=84
24982 Par ch=1 c=64 v=63
25004 Par ch=1 c=64 v=127
25154 On ch=1 n=d#6 v=0
25202 On ch=1 n=b5 v=0
25248 On ch=1 n=g#5 v=0
25272 On ch=1 n=b6 v=0
25284 On ch=1 n=c#7 v=92
25352 On ch=1 n=e6 v=0
25388 On ch=1 n=c#7 v=0
25544 Par ch=1 c=64 v=63
25564 Par ch=1 c=64 v=0
25586 On ch=1 n=g#6 v=97
25590 On ch=1 n=f#5 v=72
25592 On ch=1 n=a5 v=66
25610 On ch=1 n=c#6 v=81
25612 On ch=1 n=e5 v=68
25692 Par ch=1 c=64 v=63
25716 Par ch=1 c=64 v=127
25870 On ch=1 n=a5 v=0
25900 On ch=1 n=c#6 v=0
25910 On ch=1 n=g#6 v=0
25932 On ch=1 n=a6 v=81
25934 On ch=1 n=f#5 v=0
25944 On ch=1 n=e5 v=0
26022 On ch=1 n=f#6 v=103
26058 On ch=1 n=a6 v=0
26098 On ch=1 n=f#6 v=0
26242 Par ch=1 c=64 v=63
26260 Par ch=1 c=64 v=0
26286 On ch=1 n=f#5 v=75
26292 On ch=1 n=e5 v=68
26294 On ch=1 n=c#5 v=77
26296 On ch=1 n=e6 v=96
26308 On ch=1 n=a5 v=76
26396 Par ch=1 c=64 v=63
26420 Par ch=1 c=64 v=127
26608 On ch=1 n=f#5 v=0
26612 On ch=1 n=e5 v=0
26618 On ch=1 n=f#6 v=88
26620 On ch=1 n=e6 v=0
26668 On ch=1 n=c#5 v=0
26740 On ch=1 n=c#6 v=85
26744 On ch=1 n=f#6 v=0
26746 On ch=1 n=a5 v=0
26778 On ch=1 n=c#6 v=0
27014 Par ch=1 c=64 v=63
27014 On ch=1 n=b5 v=94
27022 On ch=1 n=c#5 v=78
27022 On ch=1 n=e5 v=78
27022 On ch=1 n=g#4 v=70
27030 Par ch=1 c=64 v=0
27036 On ch=1 n=a4 v=65
27170 Par ch=1 c=64 v=63
27194 Par ch=1 c=64 v=127
27288 On ch=1 n=c#5 v=0
27324 On ch=1 n=a4 v=0
27346 On ch=1 n=c#6 v=82
27358 On ch=1 n=b5 v=0
27382 On ch=1 n=g#4 v=0
27416 On ch=1 n=e5 v=0
27426 On ch=1 n=a5 v=90
27444 On ch=1 n=c#6 v=0
27506 On ch=1 n=a5 v=0
27722 Par ch=1 c=64 v=63
27734 On ch=1 n=f#4 v=64
27738 On ch=1 n=g#5 v=99
27740 Par ch=1 c=64 v=0
27740 On ch=1 n=a4 v=42
27752 On ch=1 n=c#5 v=79
27758 On ch=1 n=e4 v=53
27888 Par ch=1 c=64 v=63
27916 Par ch=1 c=64 v=127
27958 On ch=1 n=c#5 v=0
28022 On ch=1 n=g#5 v=0
28058 On ch=1 n=f#5 v=92
28086 On ch=1 n=a4 v=0
28120 On ch=1 n=f#4 v=0
28152 On ch=1 n=c#5 v=93
28154 On ch=1 n=e4 v=0
28170 On ch=1 n=f#5 v=0
28226 On ch=1 n=c#5 v=0
28380 Par ch=1 c=64 v=63
28420 Par ch=1 c=64 v=0
28470 On ch=1 n=g#3 v=62
28478 On ch=1 n=g#4 v=65
28478 On ch=1 n=d#5 v=80
28502 On ch=1 n=c5 v=69
28628 Par ch=1 c=64 v=63
28654 Par ch=1 c=64 v=127
28790 On ch=1 n=c5 v=0
28804 On ch=1 n=g#4 v=0
28816 On ch=1 n=d#5 v=0
28834 On ch=1 n=g#3 v=0
28956 Par ch=1 c=64 v=63
29050 Par ch=1 c=64 v=0
29214 On ch=1 n=c#5 v=79
29230 On ch=1 n=d#3 v=62
29238 On ch=1 n=f#4 v=51
29246 On ch=1 n=a4 v=59
29374 Par ch=1 c=64 v=63
29400 Par ch=1 c=64 v=127
29584 On ch=1 n=f#4 v=0
29614 On ch=1 n=a4 v=0
29642 On ch=1 n=d#3 v=0
29654 On ch=1 n=c#5 v=0
29686 Par ch=1 c=64 v=63
29732 Par ch=1 c=64 v=0
30006 On ch=1 n=d#5 v=68
30010 On ch=1 n=g#2 v=66
30030 On ch=1 n=g#4 v=45
30032 On ch=1 n=c5 v=67
30838 On ch=1 n=g#3 v=48
30852 On ch=1 n=g#2 v=0
30970 Par ch=1 c=64 v=63
30992 Par ch=1 c=64 v=127
31148 On ch=1 n=g#4 v=0
31166 On ch=1 n=g#3 v=0
31190 On ch=1 n=c5 v=0
31224 On ch=1 n=d#5 v=0
31696 Par ch=1 c=64 v=63
31718 Par ch=1 c=64 v=0
31720 On ch=1 n=g#5 v=63
31724 On ch=1 n=d#6 v=76
31738 On ch=1 n=d#5 v=60
31738 On ch=1 n=b5 v=58
31744 On ch=1 n=b4 v=59
31840 Par ch=1 c=64 v=63
31860 Par ch=1 c=64 v=127
31874 On ch=1 n=g#4 v=5
31926 On ch=1 n=b5 v=0
31982 On ch=1 n=d#6 v=0
32016 On ch=1 n=g#5 v=0
32052 On ch=1 n=b4 v=0
32056 On ch=1 n=d#5 v=0
32086 On ch=1 n=g6 v=91
32112 On ch=1 n=g#4 v=0
32184 On ch=1 n=g#6 v=105
32204 On ch=1 n=g6 v=0
32284 On ch=1 n=g#6 v=0
32330 Par ch=1 c=64 v=63
32372 Par ch=1 c=64 v=0
32514 On ch=1 n=b4 v=43
32522 On ch=1 n=e5 v=51
32530 On ch=1 n=g4 v=39
32538 On ch=1 n=b6 v=91
32544 On ch=1 n=f4 v=48
32552 On ch=1 n=b5 v=55
32564 On ch=1 n=e6 v=71
32624 Par ch=1 c=64 v=63
32648 Par ch=1 c=64 v=127
32818 On ch=1 n=e5 v=0
32854 On ch=1 n=b4 v=0
32920 On ch=1 n=g4 v=0
32928 On ch=1 n=f4 v=0
33316 On ch=1 n=g3 v=66
33400 On ch=1 n=b5 v=0
33494 On ch=1 n=b6 v=0
33522 On ch=1 n=e6 v=0
33676 On ch=1 n=g#6 v=88
33754 On ch=1 n=g3 v=0
33774 On ch=1 n=b6 v=79
33788 On ch=1 n=g#6 v=0
33866 On ch=1 n=b6 v=0
34052 On ch=1 n=g#6 v=90
34062 On ch=1 n=c3 v=65
34130 On ch=1 n=c3 v=0
34304 On ch=1 n=g#6 v=0
34362 On ch=1 n=g6 v=85
34442 On ch=1 n=g6 v=0
34462 On ch=1 n=b5 v=84
34524 On ch=1 n=b5 v=0
34770 On ch=1 n=d#6 v=72
34776 On ch=1 n=g6 v=71
34782 On ch=1 n=f5 v=52
34786 On ch=1 n=g5 v=51
34790 On ch=1 n=b4 v=52
34798 Par ch=1 c=64 v=63
34812 Par ch=1 c=64 v=0
34944 Par ch=1 c=64 v=63
34966 Par ch=1 c=64 v=127
35078 On ch=1 n=g5 v=0
35100 On ch=1 n=f5 v=0
35144 On ch=1 n=b4 v=0
35200 On ch=1 n=d#6 v=0
35218 On ch=1 n=b5 v=83
35226 On ch=1 n=g6 v=0
35308 On ch=1 n=b5 v=0
35428 Par ch=1 c=64 v=63
35450 Par ch=1 c=64 v=0
35474 On ch=1 n=d#5 v=68
35480 On ch=1 n=g4 v=49
35484 On ch=1 n=a#5 v=72
35488 On ch=1 n=d6 v=77
35490 On ch=1 n=a#4 v=63
35598 Par ch=1 c=64 v=63
35630 Par ch=1 c=64 v=127
35718 On ch=1 n=g4 v=0
35718 On ch=1 n=c6 v=84
35726 On ch=1 n=a#5 v=0
35734 On ch=1 n=d6 v=0
35764 On ch=1 n=a#4 v=0
35774 On ch=1 n=d#5 v=0
35794 On ch=1 n=c6 v=0
35834 Par ch=1 c=64 v=63
35874 Par ch=1 c=64 v=0
35956 On ch=1 n=g5 v=75
36058 On ch=1 n=g5 v=0
36234 On ch=1 n=c#5 v=54
36238 On ch=1 n=f#5 v=54
36244 On ch=1 n=a5 v=54
36244 On ch=1 n=c#6 v=70
36246 On ch=1 n=a4 v=44
36246 On ch=1 n=f#4 v=29
36290 Par ch=1 c=64 v=63
36308 Par ch=1 c=64 v=127
36388 On ch=1 n=a5 v=0
36428 On ch=1 n=f#5 v=0
36470 On ch=1 n=c#6 v=0
36482 On ch=1 n=c#5 v=0
36502 On ch=1 n=a4 v=0
36552 On ch=1 n=f#4 v=0
36590 On ch=1 n=f6 v=88
36684 On ch=1 n=f#6 v=106
36698 On ch=1 n=f6 v=0
36698 Par ch=1 c=64 v=63
36716 Par ch=1 c=64 v=0
36780 On ch=1 n=f#6 v=0
37020 On ch=1 n=f4 v=40
37030 On ch=1 n=d#4 v=64
37046 On ch=1 n=a4 v=51
37060 On ch=1 n=d5 v=58
37076 On ch=1 n=a6 v=89
37080 On ch=1 n=a5 v=59
37104 On ch=1 n=d6 v=49
37112 Par ch=1 c=64 v=63
37132 Par ch=1 c=64 v=127
37326 On ch=1 n=d5 v=0
37378 On ch=1 n=a4 v=0
37402 On ch=1 n=a5 v=0
37424 On ch=1 n=f4 v=0
37464 On ch=1 n=d#4 v=0
37822 On ch=1 n=f3 v=65
37856 On ch=1 n=a6 v=0
37906 On ch=1 n=d6 v=0
37918 On ch=1 n=f3 v=0
38164 On ch=1 n=f#6 v=83
38266 On ch=1 n=f#6 v=0
38272 On ch=1 n=a6 v=72
38348 On ch=1 n=a6 v=0
38550 On ch=1 n=a#2 v=82
38568 On ch=1 n=f#6 v=77
38588 On ch=1 n=a#2 v=0
38792 On ch=1 n=f#6 v=0
38852 On ch=1 n=f6 v=81
38944 On ch=1 n=f6 v=0
38946 On ch=1 n=a5 v=76
39018 On ch=1 n=a5 v=0
39250 On ch=1 n=d#5 v=71
39262 On ch=1 n=f5 v=56
39264 On ch=1 n=f6 v=84
39266 On ch=1 n=c#6 v=76
39286 On ch=1 n=a4 v=38
39298 Par ch=1 c=64 v=63
39316 Par ch=1 c=64 v=0
39440 Par ch=1 c=64 v=63
39462 Par ch=1 c=64 v=127
39494 On ch=1 n=f5 v=0
39540 On ch=1 n=d#5 v=0
39572 On ch=1 n=a4 v=0
39630 On ch=1 n=c#6 v=0
39706 On ch=1 n=f6 v=0
39730 On ch=1 n=a5 v=76
39798 On ch=1 n=a5 v=0
39964 On ch=1 n=c#5 v=62
39984 On ch=1 n=g#4 v=57
39986 Par ch=1 c=64 v=63
39996 On ch=1 n=c6 v=78
40002 On ch=1 n=g#5 v=70
40008 Par ch=1 c=64 v=0
40024 On ch=1 n=f4 v=22
40136 Par ch=1 c=64 v=63
40176 Par ch=1 c=64 v=127
40230 On ch=1 n=a#5 v=80
40246 On ch=1 n=g#5 v=0
40254 On ch=1 n=c6 v=0
40276 Par ch=1 c=64 v=63
40310 Par ch=1 c=64 v=0
40328 On ch=1 n=a#5 v=0
40344 On ch=1 n=g#4 v=0
40384 On ch=1 n=f4 v=0
40416 On ch=1 n=c#5 v=0
40472 On ch=1 n=f5 v=76
40636 On ch=1 n=f5 v=0
40772 On ch=1 n=e5 v=74
40776 On ch=1 n=b4 v=63
40788 On ch=1 n=g4 v=60
40840 Par ch=1 c=64 v=63
40874 Par ch=1 c=64 v=127
41122 On ch=1 n=a#5 v=90
41170 Par ch=1 c=64 v=63
41184 Par ch=1 c=64 v=0
41200 On ch=1 n=b5 v=84
41208 On ch=1 n=a#5 v=0
41220 On ch=1 n=b4 v=0
41230 On ch=1 n=g4 v=0
41252 On ch=1 n=e5 v=0
41298 On ch=1 n=b5 v=0
41480 On ch=1 n=g#4 v=59
41484 On ch=1 n=d#6 v=108
41490 On ch=1 n=e5 v=68
41492 On ch=1 n=c5 v=64
41574 Par ch=1 c=64 v=63
41588 Par ch=1 c=64 v=127
41814 On ch=1 n=c5 v=0
41820 On ch=1 n=e5 v=0
41890 On ch=1 n=g#4 v=0
42240 On ch=1 n=e4 v=82
42242 On ch=1 n=a3 v=77
42278 On ch=1 n=e4 v=0
42284 On ch=1 n=d#6 v=0
42308 On ch=1 n=a3 v=0
42586 On ch=1 n=c6 v=89
42668 On ch=1 n=d#6 v=101
42692 On ch=1 n=c6 v=0
42736 On ch=1 n=d#6 v=0
42978 On ch=1 n=c6 v=90
42984 On ch=1 n=f5 v=83
42984 On ch=1 n=c#5 v=89
42988 On ch=1 n=a4 v=75
43250 On ch=1 n=a4 v=0
43260 On ch=1 n=c#5 v=0
43284 On ch=1 n=f5 v=0
43304 On ch=1 n=b5 v=85
43320 On ch=1 n=c6 v=0
43402 On ch=1 n=c#5 v=103
43412 On ch=1 n=b5 v=0
43462 On ch=1 n=c#5 v=0
43666 Par ch=1 c=64 v=63
43668 On ch=1 n=b5 v=91
43674 On ch=1 n=g#5 v=89
43676 On ch=1 n=f5 v=59
43682 Par ch=1 c=64 v=0
43768 Par ch=1 c=64 v=63
43790 On ch=1 n=g#5 v=0
43796 On ch=1 n=b5 v=0
43798 Par ch=1 c=64 v=127
43810 On ch=1 n=f5 v=0
44102 On ch=1 n=f#3 v=84
44114 On ch=1 n=c#5 v=103
44178 On ch=1 n=f#3 v=0
44198 On ch=1 n=c#5 v=0
44382 On ch=1 n=g#5 v=92
44388 Par ch=1 c=64 v=63
44396 On ch=1 n=a4 v=51
44402 On ch=1 n=e5 v=86
44402 Par ch=1 c=64 v=0
44410 On ch=1 n=c5 v=76
44490 Par ch=1 c=64 v=63
44516 Par ch=1 c=64 v=127
44564 On ch=1 n=c5 v=0
44570 On ch=1 n=a4 v=0
44672 On ch=1 n=g#5 v=0
44716 On ch=1 n=c5 v=79
44774 On ch=1 n=e5 v=0
44786 On ch=1 n=g#5 v=90
44786 On ch=1 n=b3 v=73
44798 On ch=1 n=d#5 v=90
44808 Par ch=1 c=64 v=63
44814 On ch=1 n=c5 v=0
44828 Par ch=1 c=64 v=0
44872 On ch=1 n=d#5 v=0
44914 On ch=1 n=g#5 v=0
45008 On ch=1 n=b3 v=0
45064 On ch=1 n=a#4 v=78
45076 On ch=1 n=g4 v=66
45086 On ch=1 n=c#5 v=88
45086 On ch=1 n=f#5 v=88
45146 Par ch=1 c=64 v=63
45156 Par ch=1 c=64 v=127
45230 On ch=1 n=f#5 v=0
45336 On ch=1 n=g4 v=0
45340 On ch=1 n=a#4 v=0
45490 On ch=1 n=c#5 v=0
45508 On ch=1 n=b3 v=71
45508 On ch=1 n=e5 v=91
45596 On ch=1 n=e5 v=0
45730 On ch=1 n=b3 v=0
45734 Par ch=1 c=64 v=63
45746 Par ch=1 c=64 v=0
45780 On ch=1 n=f#4 v=72
45786 On ch=1 n=a4 v=63
45792 On ch=1 n=e5 v=84
45812 On ch=1 n=c5 v=66
45874 Par ch=1 c=64 v=63
45892 Par ch=1 c=64 v=127
45968 On ch=1 n=a4 v=0
46078 On ch=1 n=f#5 v=80
46130 On ch=1 n=e5 v=0
46172 On ch=1 n=b3 v=71
46188 On ch=1 n=f#4 v=0
46188 On ch=1 n=d5 v=88
46206 On ch=1 n=c5 v=0
46234 On ch=1 n=f#5 v=0
46246 On ch=1 n=d5 v=0
46252 On ch=1 n=b3 v=0
46380 Par ch=1 c=64 v=63
46400 Par ch=1 c=64 v=0
46492 On ch=1 n=g4 v=63
46508 On ch=1 n=b3 v=59
46510 On ch=1 n=b4 v=74
46516 On ch=1 n=e3 v=50
46524 On ch=1 n=e5 v=77
46536 Par ch=1 c=64 v=63
46556 Par ch=1 c=64 v=127
46582 On ch=1 n=g4 v=0
46594 On ch=1 n=b4 v=0
46632 On ch=1 n=e5 v=0
46804 On ch=1 n=e3 v=0
46808 On ch=1 n=b3 v=0
46882 On ch=1 n=a#5 v=97
46966 On ch=1 n=b5 v=100
46970 Par ch=1 c=64 v=63
46974 On ch=1 n=a#5 v=0
46986 Par ch=1 c=64 v=0
47058 On ch=1 n=b5 v=0
47252 On ch=1 n=g#4 v=74
47254 On ch=1 n=d#6 v=118
47260 On ch=1 n=c5 v=77
47270 On ch=1 n=e5 v=84
47294 Par ch=1 c=64 v=63
47306 Par ch=1 c=64 v=127
47482 On ch=1 n=e5 v=0
47608 On ch=1 n=c5 v=0
47660 On ch=1 n=b5 v=89
47698 On ch=1 n=g#4 v=0
47728 On ch=1 n=d#6 v=0
47750 On ch=1 n=b5 v=0
47764 On ch=1 n=b6 v=101
48110 On ch=1 n=c#3 v=96
48110 On ch=1 n=g#3 v=96
48168 Par ch=1 c=64 v=63
48176 Par ch=1 c=64 v=0
48386 Par ch=1 c=64 v=63
48392 Par ch=1 c=64 v=127
48466 On ch=1 n=c#3 v=0
48504 On ch=1 n=g#3 v=0
48504 On ch=1 n=c#6 v=94
48570 On ch=1 n=d#6 v=107
48590 On ch=1 n=c#6 v=0
48616 On ch=1 n=b6 v=0
48650 On ch=1 n=d#6 v=0
48852 On ch=1 n=b6 v=98
48852 On ch=1 n=g#5 v=83
48860 On ch=1 n=b5 v=85
48862 On ch=1 n=g#6 v=99
48864 On ch=1 n=f5 v=68
48878 On ch=1 n=d#5 v=81
49136 On ch=1 n=b6 v=0
49172 On ch=1 n=g#6 v=0
49192 On ch=1 n=d#5 v=0
49192 On ch=1 n=a#6 v=97
49212 On ch=1 n=b5 v=0
49224 On ch=1 n=f5 v=0
49240 On ch=1 n=g#5 v=0
49272 On ch=1 n=g#6 v=108
49276 On ch=1 n=c#5 v=88
49334 On ch=1 n=a#6 v=0
49382 On ch=1 n=c#5 v=0
49416 On ch=1 n=g#6 v=0
49528 On ch=1 n=c#6 v=95
49532 On ch=1 n=c#7 v=110
49532 On ch=1 n=a5 v=74
49544 On ch=1 n=f#5 v=61
49546 On ch=1 n=f#6 v=95
49548 Par ch=1 c=64 v=63
49552 On ch=1 n=e5 v=66
49564 Par ch=1 c=64 v=0
49602 Par ch=1 c=64 v=63
49626 Par ch=1 c=64 v=127
49664 On ch=1 n=c#6 v=0
49718 On ch=1 n=a5 v=0
49764 On ch=1 n=f#5 v=0
49776 On ch=1 n=c#6 v=92
49778 On ch=1 n=e5 v=0
49828 On ch=1 n=f#6 v=0
49888 On ch=1 n=c#6 v=0
49966 On ch=1 n=c#5 v=81
49976 On ch=1 n=e6 v=89
49988 On ch=1 n=c#7 v=0
50094 On ch=1 n=c#5 v=0
50116 On ch=1 n=e6 v=0
50218 On ch=1 n=b6 v=94
50218 On ch=1 n=g#5 v=76
50220 On ch=1 n=g#6 v=94
50226 On ch=1 n=b5 v=74
50234 On ch=1 n=d#5 v=71
50242 On ch=1 n=f5 v=67
50262 Par ch=1 c=64 v=63
50274 Par ch=1 c=64 v=0
50364 Par ch=1 c=64 v=63
50388 Par ch=1 c=64 v=127
50482 On ch=1 n=b6 v=0
50508 On ch=1 n=g#6 v=0
50546 On ch=1 n=a#6 v=91
50562 On ch=1 n=b5 v=0
50568 On ch=1 n=d#5 v=0
50576 On ch=1 n=f5 v=0
50582 On ch=1 n=g#5 v=0
50612 On ch=1 n=g#6 v=107
50654 On ch=1 n=c#5 v=60
50676 On ch=1 n=a#6 v=0
50706 On ch=1 n=c#5 v=0
50714 On ch=1 n=g#6 v=0
50890 Par ch=1 c=64 v=63
50894 On ch=1 n=c#7 v=100
50902 Par ch=1 c=64 v=0
50904 On ch=1 n=c#6 v=91
50906 On ch=1 n=f#6 v=97
50916 On ch=1 n=a5 v=65
50918 On ch=1 n=f#5 v=59
50932 On ch=1 n=e5 v=60
50950 Par ch=1 c=64 v=63
50976 Par ch=1 c=64 v=127
50998 On ch=1 n=c#6 v=0
51066 On ch=1 n=a5 v=0
51110 On ch=1 n=f#5 v=0
51132 On ch=1 n=e5 v=0
51138 On ch=1 n=c#6 v=100
51202 On ch=1 n=f#6 v=0
51240 On ch=1 n=c#6 v=0
51324 On ch=1 n=c#5 v=87
51344 On ch=1 n=e6 v=99
51496 On ch=1 n=c#5 v=0
51508 On ch=1 n=e6 v=0
51552 Par ch=1 c=64 v=63
51562 Par ch=1 c=64 v=0
51572 On ch=1 n=f#6 v=101
51580 On ch=1 n=c#6 v=91
51588 On ch=1 n=a5 v=68
51590 On ch=1 n=f#5 v=72
51596 Par ch=1 c=64 v=63
51602 On ch=1 n=e5 v=70
51614 Par ch=1 c=64 v=127
51650 On ch=1 n=c#7 v=0
51658 On ch=1 n=e5 v=0
51688 On ch=1 n=f#5 v=0
51688 On ch=1 n=a5 v=0
51718 On ch=1 n=c#6 v=0
51732 On ch=1 n=f#6 v=0
51792 On ch=1 n=a6 v=94
51872 On ch=1 n=a6 v=0
52002 On ch=1 n=g#6 v=88
52004 On ch=1 n=e6 v=89
52008 On ch=1 n=c#7 v=112
52060 On ch=1 n=g#6 v=0
52062 On ch=1 n=e6 v=0
52088 On ch=1 n=c#7 v=0
52300 On ch=1 n=e7 v=108
52300 On ch=1 n=f#6 v=95
52302 On ch=1 n=e6 v=94
52314 On ch=1 n=a6 v=98
52320 On ch=1 n=c#6 v=91
52336 Par ch=1 c=64 v=63
52348 Par ch=1 c=64 v=0
52472 Par ch=1 c=64 v=63
52486 Par ch=1 c=64 v=127
52634 On ch=1 n=f#7 v=92
52656 On ch=1 n=e7 v=0
52734 On ch=1 n=d#7 v=114
52746 On ch=1 n=e6 v=0
52752 On ch=1 n=f#6 v=0
52784 On ch=1 n=a6 v=0
52786 On ch=1 n=c#6 v=0
52788 On ch=1 n=f#7 v=0
52836 On ch=1 n=d#7 v=0
53046 On ch=1 n=d#7 v=108
53054 On ch=1 n=b5 v=84
53054 On ch=1 n=d#6 v=94
53054 On ch=1 n=e6 v=89
53062 On ch=1 n=g#6 v=92
53108 Par ch=1 c=64 v=63
53118 Par ch=1 c=64 v=0
53258 Par ch=1 c=64 v=63
53274 Par ch=1 c=64 v=127
53504 On ch=1 n=b5 v=0
53512 On ch=1 n=e6 v=0
53528 On ch=1 n=d#6 v=0
53534 On ch=1 n=e7 v=100
53538 On ch=1 n=d#7 v=0
53614 On ch=1 n=e7 v=0
53620 On ch=1 n=g#6 v=0
53818 On ch=1 n=c#7 v=107
53822 On ch=1 n=e6 v=84
53826 On ch=1 n=c#6 v=88
53826 On ch=1 n=a5 v=73
53834 On ch=1 n=f#6 v=92
53840 Par ch=1 c=64 v=63
53852 Par ch=1 c=64 v=0
53954 Par ch=1 c=64 v=63
53974 Par ch=1 c=64 v=127
54116 On ch=1 n=e6 v=0
54154 On ch=1 n=d#7 v=89
54156 On ch=1 n=a5 v=0
54182 On ch=1 n=c#6 v=0
54204 On ch=1 n=f#6 v=0
54208 On ch=1 n=c#7 v=0
54238 On ch=1 n=d#7 v=0
54254 On ch=1 n=b6 v=96
54338 On ch=1 n=b6 v=0
54524 On ch=1 n=g#5 v=70
54530 On ch=1 n=b5 v=79
54538 On ch=1 n=d#6 v=81
54542 On ch=1 n=b6 v=101
54556 On ch=1 n=e6 v=87
54614 Par ch=1 c=64 v=63
54628 Par ch=1 c=64 v=0
54730 Par ch=1 c=64 v=63
54748 Par ch=1 c=64 v=127
54964 On ch=1 n=d#6 v=0
54990 On ch=1 n=b5 v=0
55012 On ch=1 n=c#7 v=96
55026 On ch=1 n=g#5 v=0
55046 On ch=1 n=b6 v=0
55068 On ch=1 n=e6 v=0
55090 On ch=1 n=c#7 v=0
55268 On ch=1 n=g#6 v=106
55268 On ch=1 n=a5 v=70
55274 On ch=1 n=f#5 v=76
55286 On ch=1 n=c#6 v=89
55292 On ch=1 n=e5 v=71
55372 Par ch=1 c=64 v=63
55374 Par ch=1 c=64 v=127
55568 On ch=1 n=a5 v=0
55624 On ch=1 n=c#6 v=0
55634 On ch=1 n=e5 v=0
55634 On ch=1 n=f#5 v=0
55636 On ch=1 n=g#6 v=0
55642 On ch=1 n=a6 v=89
55732 On ch=1 n=f#6 v=103
55768 On ch=1 n=a6 v=0
55802 On ch=1 n=f#6 v=0
55982 Par ch=1 c=64 v=63
55986 On ch=1 n=f#5 v=80
55992 Par ch=1 c=64 v=0
55994 On ch=1 n=e5 v=75
55998 On ch=1 n=c#5 v=80
56008 On ch=1 n=e6 v=98
56016 On ch=1 n=a5 v=75
56126 Par ch=1 c=64 v=63
56140 Par ch=1 c=64 v=127
56308 On ch=1 n=e5 v=0
56314 On ch=1 n=f#5 v=0
56326 On ch=1 n=f#6 v=91
56340 On ch=1 n=e6 v=0
56354 On ch=1 n=c#5 v=0
56428 On ch=1 n=a5 v=0
56430 On ch=1 n=c#6 v=104
56452 On ch=1 n=f#6 v=0
56500 On ch=1 n=c#6 v=0
56692 Par ch=1 c=64 v=63
56712 On ch=1 n=c#5 v=88
56714 Par ch=1 c=64 v=0
56720 On ch=1 n=g#4 v=73
56720 On ch=1 n=b5 v=99
56724 On ch=1 n=e5 v=88
56738 On ch=1 n=a4 v=84
56818 Par ch=1 c=64 v=63
56846 Par ch=1 c=64 v=127
57058 On ch=1 n=a4 v=0
57064 On ch=1 n=c#5 v=0
57076 On ch=1 n=c#6 v=87
57104 On ch=1 n=b5 v=0
57120 On ch=1 n=g#4 v=0
57158 On ch=1 n=e5 v=0
57160 On ch=1 n=a5 v=86
57208 On ch=1 n=c#6 v=0
57242 On ch=1 n=a5 v=0
57422 On ch=1 n=a4 v=68
57438 On ch=1 n=f#4 v=74
57438 On ch=1 n=e4 v=67
57444 On ch=1 n=g#5 v=96
57452 Par ch=1 c=64 v=63
57454 On ch=1 n=c#5 v=72
57472 Par ch=1 c=64 v=0
57582 Par ch=1 c=64 v=63
57612 Par ch=1 c=64 v=127
57682 On ch=1 n=c#5 v=0
57704 On ch=1 n=a4 v=0
57750 On ch=1 n=f#4 v=0
57770 On ch=1 n=e4 v=0
57782 On ch=1 n=f#5 v=95
57788 On ch=1 n=g#5 v=0
57868 On ch=1 n=f#5 v=0
57872 On ch=1 n=c#5 v=99
57948 On ch=1 n=c#5 v=0
58120 Par ch=1 c=64 v=63
58170 Par ch=1 c=64 v=0
58172 On ch=1 n=g#3 v=67
58188 On ch=1 n=g#4 v=56
58196 On ch=1 n=d#5 v=82
58196 On ch=1 n=c5 v=71
58330 Par ch=1 c=64 v=63
58366 Par ch=1 c=64 v=127
58536 On ch=1 n=c5 v=0
58546 On ch=1 n=d#5 v=0
58574 On ch=1 n=g#3 v=0
58582 On ch=1 n=g#4 v=0
58686 Par ch=1 c=64 v=63
58746 Par ch=1 c=64 v=0
58932 On ch=1 n=c#5 v=83
58938 On ch=1 n=d#3 v=74
58948 On ch=1 n=a4 v=60
58950 On ch=1 n=f#4 v=57
58970 Par ch=1 c=64 v=63
58998 Par ch=1 c=64 v=127
59250 On ch=1 n=f#4 v=0
59270 On ch=1 n=a4 v=0
59274 On ch=1 n=d#3 v=0
59286 On ch=1 n=c#5 v=0
59554 Par ch=1 c=64 v=63
59600 Par ch=1 c=64 v=0
59736 On ch=1 n=g#2 v=67
59746 On ch=1 n=d#5 v=72
59756 On ch=1 n=c5 v=68
59758 On ch=1 n=g#4 v=47
59838 Par ch=1 c=64 v=63
59876 Par ch=1 c=64 v=127
60344 On ch=1 n=g#2 v=0
60542 On ch=1 n=g#3 v=53
60730 On ch=1 n=g#4 v=0
60762 On ch=1 n=g#3 v=0
60780 On ch=1 n=c5 v=0
60798 On ch=1 n=d#5 v=0
61196 Par ch=1 c=67 v=127
61470 On ch=1 n=d#6 v=75
61476 On ch=1 n=g#5 v=54
61480 On ch=1 n=d#5 v=45
61488 On ch=1 n=b5 v=51
61490 On ch=1 n=b4 v=54
61500 On ch=1 n=g#4 v=22
61548 Par ch=1 c=64 v=63
61564 Par ch=1 c=64 v=0
61724 Par ch=1 c=64 v=63
61740 Par ch=1 c=64 v=127
61804 On ch=1 n=g#5 v=0
61836 On ch=1 n=d#5 v=0
61848 On ch=1 n=b5 v=0
61854 On ch=1 n=b4 v=0
61860 On ch=1 n=d#6 v=0
61864 On ch=1 n=g6 v=64
61894 On ch=1 n=g#4 v=0
61960 On ch=1 n=g#6 v=101
61984 On ch=1 n=g6 v=0
62060 On ch=1 n=g#6 v=0
62268 On ch=1 n=b4 v=46
62270 On ch=1 n=g4 v=51
62276 On ch=1 n=f4 v=29
62290 On ch=1 n=e5 v=46
62298 Par ch=1 c=64 v=63
62310 On ch=1 n=b6 v=87
62312 On ch=1 n=b5 v=69
62324 Par ch=1 c=64 v=0
62342 On ch=1 n=e6 v=61
62502 Par ch=1 c=64 v=63
62518 Par ch=1 c=64 v=127
62614 On ch=1 n=e5 v=0
62636 On ch=1 n=b4 v=0
62638 On ch=1 n=b5 v=0
62696 On ch=1 n=g4 v=0
62714 On ch=1 n=f4 v=0
62944 On ch=1 n=e6 v=0
63100 On ch=1 n=b6 v=0
63104 On ch=1 n=g3 v=60
63480 On ch=1 n=g#6 v=88
63590 On ch=1 n=g#6 v=0
63596 On ch=1 n=b6 v=63
63606 On ch=1 n=g3 v=0
63796 On ch=1 n=b6 v=0
63882 On ch=1 n=g#6 v=88
63888 On ch=1 n=c3 v=53
63906 Par ch=1 c=64 v=63
63960 Par ch=1 c=64 v=127
64086 On ch=1 n=c3 v=0
64150 On ch=1 n=g#6 v=0
64218 On ch=1 n=g6 v=88
64314 On ch=1 n=g6 v=0
64334 On ch=1 n=b5 v=75
64382 On ch=1 n=b5 v=0
64630 On ch=1 n=g6 v=89
64636 On ch=1 n=g5 v=44
64640 Par ch=1 c=64 v=63
64642 On ch=1 n=d#6 v=73
64644 On ch=1 n=f5 v=47
64654 Par ch=1 c=64 v=0
64656 On ch=1 n=b4 v=47
64710 On ch=1 n=d#6 v=0
64774 Par ch=1 c=64 v=63
64794 Par ch=1 c=64 v=127
64874 On ch=1 n=g5 v=0
64894 On ch=1 n=f5 v=0
64944 On ch=1 n=b4 v=0
65084 On ch=1 n=g6 v=0
65096 On ch=1 n=b5 v=85
65172 On ch=1 n=b5 v=0
65296 Par ch=1 c=64 v=63
65312 Par ch=1 c=64 v=0
65346 On ch=1 n=d#5 v=76
65350 On ch=1 n=a#4 v=66
65354 On ch=1 n=g4 v=60
65366 On ch=1 n=d6 v=82
65368 On ch=1 n=a#5 v=78
65448 Par ch=1 c=64 v=63
65470 Par ch=1 c=64 v=127
65560 On ch=1 n=a#5 v=0
65582 On ch=1 n=g4 v=0
65586 On ch=1 n=c6 v=78
65588 On ch=1 n=d6 v=0
65628 On ch=1 n=a#4 v=0
65656 On ch=1 n=d#5 v=0
65678 On ch=1 n=c6 v=0
65818 On ch=1 n=g5 v=77
65830 Par ch=1 c=64 v=63
65876 Par ch=1 c=64 v=0
65900 On ch=1 n=g5 v=0
66132 On ch=1 n=a4 v=46
66136 On ch=1 n=c#5 v=60
66140 On ch=1 n=f#4 v=39
66142 On ch=1 n=f#5 v=58
66150 On ch=1 n=c#6 v=72
66158 On ch=1 n=a5 v=42
66178 Par ch=1 c=64 v=63
66196 Par ch=1 c=64 v=127
66308 On ch=1 n=a5 v=0
66350 On ch=1 n=f#5 v=0
66366 On ch=1 n=c#6 v=0
66406 On ch=1 n=c#5 v=0
66434 On ch=1 n=a4 v=0
66488 On ch=1 n=f#4 v=0
66506 On ch=1 n=f6 v=83
66602 On ch=1 n=f#6 v=105
66618 On ch=1 n=f6 v=0
66644 Par ch=1 c=64 v=63
66654 Par ch=1 c=64 v=0
66700 On ch=1 n=f#6 v=0
66936 On ch=1 n=d#4 v=66
66956 On ch=1 n=f4 v=75
66968 On ch=1 n=a4 v=46
66984 On ch=1 n=a5 v=51
67014 On ch=1 n=d5 v=55
67028 On ch=1 n=d6 v=64
67030 On ch=1 n=a6 v=91
67070 Par ch=1 c=64 v=63
67082 Par ch=1 c=64 v=127
67158 On ch=1 n=a5 v=0
67236 On ch=1 n=d5 v=0
67276 On ch=1 n=a4 v=0
67336 On ch=1 n=f4 v=0
67382 On ch=1 n=d#4 v=0
67656 On ch=1 n=d6 v=0
67674 On ch=1 n=a6 v=0
67806 On ch=1 n=f3 v=68
68150 On ch=1 n=f#6 v=87
68252 On ch=1 n=a6 v=83
68260 On ch=1 n=f#6 v=0
68312 On ch=1 n=a6 v=0
68326 On ch=1 n=f3 v=0
68546 On ch=1 n=f#6 v=89
68558 On ch=1 n=a#2 v=67
68606 Par ch=1 c=64 v=63
68664 Par ch=1 c=64 v=127
68742 On ch=1 n=a#2 v=0
68812 On ch=1 n=f#6 v=0
68860 On ch=1 n=f6 v=90
68948 On ch=1 n=f6 v=0
68962 On ch=1 n=a5 v=81
69020 On ch=1 n=a5 v=0
69238 Par ch=1 c=64 v=63
69252 Par ch=1 c=64 v=0
69264 On ch=1 n=d#5 v=69
69268 On ch=1 n=f6 v=84
69280 On ch=1 n=c#6 v=70
69282 On ch=1 n=a4 v=41
69284 On ch=1 n=f5 v=46
69374 Par ch=1 c=64 v=63
69394 Par ch=1 c=64 v=127
69476 On ch=1 n=f5 v=0
69512 On ch=1 n=c#6 v=0
69536 On ch=1 n=d#5 v=0
69548 On ch=1 n=a4 v=0
69732 On ch=1 n=f6 v=0
69758 On ch=1 n=a5 v=77
69824 On ch=1 n=a5 v=0
70004 Par ch=1 c=64 v=63
70018 Par ch=1 c=64 v=0
70020 On ch=1 n=c#5 v=58
70024 On ch=1 n=g#5 v=63
70024 On ch=1 n=g#4 v=61
70036 On ch=1 n=c6 v=80
70048 On ch=1 n=f4 v=36
70110 Par ch=1 c=64 v=63
70134 Par ch=1 c=64 v=127
70274 On ch=1 n=a#5 v=82
70288 On ch=1 n=f4 v=0
70292 On ch=1 n=g#5 v=0
70292 On ch=1 n=c#5 v=0
70300 On ch=1 n=c6 v=0
70326 On ch=1 n=g#4 v=0
70360 On ch=1 n=a#5 v=0
70430 Par ch=1 c=67 v=0
70554 On ch=1 n=f5 v=73
70668 On ch=1 n=f5 v=0
70908 On ch=1 n=b4 v=60
70908 On ch=1 n=e5 v=55
70916 On ch=1 n=g4 v=59
70952 Par ch=1 c=64 v=63
70966 Par ch=1 c=64 v=0
71296 On ch=1 n=a#5 v=100
71378 On ch=1 n=a#5 v=0
71384 On ch=1 n=b5 v=83
71398 On ch=1 n=b4 v=0
71408 On ch=1 n=g4 v=0
71440 On ch=1 n=e5 v=0
71456 On ch=1 n=b5 v=0
71672 On ch=1 n=g#4 v=36
71700 On ch=1 n=c5 v=64
71706 On ch=1 n=d#6 v=108
71714 On ch=1 n=e5 v=65
71796 Par ch=1 c=64 v=63
71798 Par ch=1 c=64 v=127
72026 On ch=1 n=c5 v=0
72050 On ch=1 n=e5 v=0
72110 On ch=1 n=g#4 v=0
72458 On ch=1 n=e4 v=83
72472 On ch=1 n=a3 v=73
72528 On ch=1 n=d#6 v=0
72540 On ch=1 n=e4 v=0
72548 On ch=1 n=a3 v=0
72804 On ch=1 n=c6 v=86
72872 On ch=1 n=d#6 v=99
72900 On ch=1 n=c6 v=0
72944 On ch=1 n=d#6 v=0
73198 On ch=1 n=c#5 v=76
73208 On ch=1 n=f5 v=57
73212 On ch=1 n=a4 v=56
73214 On ch=1 n=c6 v=89
73238 Par ch=1 c=64 v=63
73248 Par ch=1 c=64 v=0
73304 Par ch=1 c=64 v=63
73334 Par ch=1 c=64 v=127
73426 On ch=1 n=a4 v=0
73440 On ch=1 n=c#5 v=0
73498 On ch=1 n=f5 v=0
73552 On ch=1 n=b5 v=84
73590 On ch=1 n=c6 v=0
73640 On ch=1 n=c#5 v=98
73648 On ch=1 n=b5 v=0
73702 On ch=1 n=c#5 v=0
73868 Par ch=1 c=64 v=63
73878 Par ch=1 c=64 v=0
73900 On ch=1 n=b5 v=102
73912 On ch=1 n=g#5 v=85
73926 On ch=1 n=f5 v=71
73976 Par ch=1 c=64 v=63
73994 On ch=1 n=b5 v=0
73996 Par ch=1 c=64 v=127
73998 On ch=1 n=g#5 v=0
74012 On ch=1 n=f5 v=0
74344 On ch=1 n=c#5 v=88
74346 On ch=1 n=f#3 v=83
74410 On ch=1 n=f#3 v=0
74430 On ch=1 n=c#5 v=0
74562 Par ch=1 c=64 v=63
74574 Par ch=1 c=64 v=0
74602 On ch=1 n=g#5 v=87
74618 On ch=1 n=a4 v=63
74620 On ch=1 n=e5 v=79
74622 On ch=1 n=c5 v=67
74672 Par ch=1 c=64 v=63
74692 Par ch=1 c=64 v=127
74786 On ch=1 n=c5 v=0
74794 On ch=1 n=a4 v=0
74890 On ch=1 n=g#5 v=0
74902 On ch=1 n=e5 v=0
74942 On ch=1 n=c5 v=82
75016 On ch=1 n=g#5 v=96
75022 On ch=1 n=d#5 v=99
75026 Par ch=1 c=64 v=63
75032 On ch=1 n=c5 v=0
75034 Par ch=1 c=64 v=0
75048 On ch=1 n=b3 v=74
75080 On ch=1 n=d#5 v=0
75102 On ch=1 n=g#5 v=0
75218 On ch=1 n=b3 v=0
75312 On ch=1 n=a#4 v=70
75318 On ch=1 n=f#5 v=93
75320 On ch=1 n=c#5 v=88
75332 On ch=1 n=g4 v=57
75390 Par ch=1 c=64 v=63
75392 Par ch=1 c=64 v=127
75518 On ch=1 n=f#5 v=0
75620 On ch=1 n=a#4 v=0
75626 On ch=1 n=g4 v=0
75770 On ch=1 n=b3 v=71
75778 On ch=1 n=e5 v=87
75818 On ch=1 n=c#5 v=0
75866 On ch=1 n=e5 v=0
75992 On ch=1 n=b3 v=0
76008 Par ch=1 c=64 v=63
76020 Par ch=1 c=64 v=0
76036 On ch=1 n=f#4 v=73
76044 On ch=1 n=a4 v=62
76058 On ch=1 n=e5 v=78
76072 On ch=1 n=c5 v=73
76132 Par ch=1 c=64 v=63
76150 Par ch=1 c=64 v=127
76258 On ch=1 n=f#4 v=0
76376 On ch=1 n=f#5 v=80
76394 On ch=1 n=e5 v=0
76410 On ch=1 n=a4 v=0
76470 On ch=1 n=d5 v=94
76470 On ch=1 n=b3 v=63
76492 On ch=1 n=c5 v=0
76524 On ch=1 n=f#5 v=0
76538 On ch=1 n=b3 v=0
76542 On ch=1 n=d5 v=0
76700 Par ch=1 c=64 v=63
76730 Par ch=1 c=64 v=0
76816 On ch=1 n=e5 v=70
76824 On ch=1 n=b3 v=48
76832 On ch=1 n=b4 v=60
76834 On ch=1 n=e3 v=41
76836 On ch=1 n=g4 v=34
76876 Par ch=1 c=64 v=63
76896 Par ch=1 c=64 v=127
77060 On ch=1 n=g4 v=0
77130 On ch=1 n=b4 v=0
77174 On ch=1 n=e5 v=0
77232 On ch=1 n=e3 v=0
77264 On ch=1 n=b3 v=0
77378 Par ch=1 c=64 v=63
77436 Par ch=1 c=64 v=0
77668 Par ch=1 c=67 v=127
77740 On ch=1 n=e3 v=46
77788 On ch=1 n=g7 v=69
77800 On ch=1 n=f#7 v=63
77866 Par ch=1 c=64 v=63
77880 Par ch=1 c=64 v=127
78162 On ch=1 n=e3 v=0
78196 On ch=1 n=e7 v=61
78250 On ch=1 n=f#7 v=0
78254 On ch=1 n=b3 v=55
78288 On ch=1 n=g7 v=0
78300 On ch=1 n=b6 v=74
78334 On ch=1 n=e7 v=0
78402 On ch=1 n=b6 v=0
78562 On ch=1 n=b3 v=0
78570 On ch=1 n=g4 v=65
78588 On ch=1 n=b6 v=74
78600 On ch=1 n=a6 v=74
78906 On ch=1 n=g4 v=0
78926 On ch=1 n=g6 v=76
78942 On ch=1 n=b6 v=0
78954 On ch=1 n=a6 v=0
79002 On ch=1 n=d6 v=91
79004 On ch=1 n=b3 v=69
79016 On ch=1 n=g6 v=0
79084 On ch=1 n=d6 v=0
79280 On ch=1 n=e3 v=72
79288 On ch=1 n=c#6 v=99
79292 On ch=1 n=d6 v=84
79344 On ch=1 n=b3 v=0
79610 On ch=1 n=b5 v=83
79624 On ch=1 n=d6 v=0
79676 On ch=1 n=c#6 v=0
79686 On ch=1 n=b3 v=72
79696 On ch=1 n=f#5 v=103
79710 On ch=1 n=e3 v=0
79716 On ch=1 n=b5 v=0
79776 On ch=1 n=f#5 v=0
79978 On ch=1 n=g4 v=73
79982 On ch=1 n=f#5 v=103
79984 On ch=1 n=g5 v=92
79986 On ch=1 n=b3 v=0
80112 Par ch=1 c=64 v=63
80180 Par ch=1 c=64 v=127
80274 On ch=1 n=g4 v=0
80352 On ch=1 n=e5 v=72
80358 On ch=1 n=g5 v=0
80382 On ch=1 n=f#5 v=0
80400 On ch=1 n=d5 v=87
80436 On ch=1 n=e5 v=0
80494 On ch=1 n=d5 v=0
80664 On ch=1 n=f#5 v=60
80706 On ch=1 n=f#5 v=0
80710 On ch=1 n=g5 v=79
80712 Par ch=1 c=64 v=63
80714 On ch=1 n=d6 v=58
80716 On ch=1 n=e6 v=60
80718 Par ch=1 c=64 v=0
80720 On ch=1 n=b5 v=63
80756 On ch=1 n=f#5 v=92
80778 Par ch=1 c=64 v=63
80796 Par ch=1 c=64 v=127
80844 On ch=1 n=g5 v=0
80964 On ch=1 n=e6 v=0
80990 On ch=1 n=d6 v=0
81012 On ch=1 n=e5 v=96
81032 On ch=1 n=b5 v=0
81054 On ch=1 n=f#5 v=0
81228 On ch=1 n=b4 v=100
81230 On ch=1 n=e5 v=0
81372 On ch=1 n=b4 v=0
81510 On ch=1 n=c#5 v=84
81512 On ch=1 n=e5 v=71
81518 On ch=1 n=g4 v=50
81524 On ch=1 n=b4 v=64
81532 On ch=1 n=a3 v=38
81586 Par ch=1 c=64 v=63
81594 Par ch=1 c=64 v=0
81650 Par ch=1 c=64 v=63
81672 Par ch=1 c=64 v=127
81742 On ch=1 n=a3 v=0
81774 On ch=1 n=g4 v=0
81952 On ch=1 n=c#5 v=0
81968 On ch=1 n=e5 v=0
81970 On ch=1 n=b4 v=0
81984 On ch=1 n=a4 v=71
82042 On ch=1 n=a4 v=0
82246 On ch=1 n=f#5 v=97
82316 On ch=1 n=g5 v=86
82318 On ch=1 n=f#5 v=0
82330 Par ch=1 c=64 v=63
82338 Par ch=1 c=64 v=0
82346 On ch=1 n=e6 v=63
82354 On ch=1 n=d6 v=65
82354 On ch=1 n=b5 v=63
82370 On ch=1 n=f#5 v=88
82400 Par ch=1 c=64 v=63
82422 Par ch=1 c=64 v=127
82434 On ch=1 n=g5 v=0
82618 On ch=1 n=e5 v=86
82622 On ch=1 n=e6 v=0
82670 On ch=1 n=f#5 v=0
82670 On ch=1 n=d6 v=0
82714 On ch=1 n=b5 v=0
82848 On ch=1 n=b4 v=99
82864 On ch=1 n=e5 v=0
82966 On ch=1 n=b4 v=0
83130 On ch=1 n=c#5 v=70
83138 On ch=1 n=e5 v=59
83150 On ch=1 n=b4 v=61
83152 On ch=1 n=g4 v=35
83166 On ch=1 n=a3 v=39
83212 Par ch=1 c=64 v=63
83224 Par ch=1 c=64 v=0
83288 Par ch=1 c=64 v=63
83316 Par ch=1 c=64 v=127
83554 On ch=1 n=g4 v=0
83614 On ch=1 n=a4 v=65
83616 On ch=1 n=c#5 v=0
83618 On ch=1 n=e5 v=0
83632 On ch=1 n=b4 v=0
83660 On ch=1 n=a3 v=0
83662 On ch=1 n=a4 v=0
84044 On ch=1 n=e3 v=60
84080 On ch=1 n=g7 v=71
84090 On ch=1 n=f#7 v=64
84148 Par ch=1 c=64 v=63
84166 Par ch=1 c=64 v=0
84310 Par ch=1 c=64 v=63
84326 Par ch=1 c=64 v=127
84498 On ch=1 n=g7 v=0
84508 On ch=1 n=e7 v=68
84554 On ch=1 n=f#7 v=0
84610 On ch=1 n=b3 v=51
84610 On ch=1 n=b6 v=83
84612 On ch=1 n=e3 v=0
84622 On ch=1 n=e7 v=0
84706 On ch=1 n=b6 v=0
84848 On ch=1 n=b3 v=0
84874 On ch=1 n=g4 v=76
84888 On ch=1 n=b6 v=72
84900 On ch=1 n=a6 v=83
85246 On ch=1 n=g6 v=84
85254 On ch=1 n=g4 v=0
85258 On ch=1 n=b6 v=0
85300 On ch=1 n=a6 v=0
85320 On ch=1 n=b3 v=66
85322 On ch=1 n=d6 v=96
85342 On ch=1 n=g6 v=0
85406 On ch=1 n=d6 v=0
85602 On ch=1 n=e3 v=86
85604 On ch=1 n=c#6 v=94
85614 On ch=1 n=d6 v=73
85682 On ch=1 n=b3 v=0
85700 Par ch=1 c=64 v=63
85710 Par ch=1 c=64 v=0
85756 Par ch=1 c=64 v=63
85788 Par ch=1 c=64 v=127
85946 On ch=1 n=b5 v=84
85964 On ch=1 n=d6 v=0
85996 On ch=1 n=c#6 v=0
86018 On ch=1 n=b3 v=68
86032 On ch=1 n=e3 v=0
86032 On ch=1 n=f#5 v=101
86040 On ch=1 n=b5 v=0
86100 On ch=1 n=f#5 v=0
86286 On ch=1 n=g4 v=53
86292 On ch=1 n=f#5 v=86
86300 On ch=1 n=g5 v=78
86326 On ch=1 n=b3 v=0
86340 Par ch=1 c=64 v=63
86348 Par ch=1 c=64 v=0
86414 Par ch=1 c=64 v=63
86442 Par ch=1 c=64 v=127
86562 On ch=1 n=g4 v=0
86648 On ch=1 n=e5 v=71
86658 On ch=1 n=g5 v=0
86696 On ch=1 n=f#5 v=0
86732 On ch=1 n=d5 v=85
86742 On ch=1 n=e5 v=0
86816 On ch=1 n=d5 v=0
86966 On ch=1 n=f#5 v=85
87012 On ch=1 n=f#5 v=0
87024 Par ch=1 c=64 v=63
87030 Par ch=1 c=64 v=0
87032 On ch=1 n=e6 v=65
87034 On ch=1 n=g5 v=66
87040 On ch=1 n=d6 v=56
87052 On ch=1 n=b5 v=59
87086 On ch=1 n=f#5 v=88
87090 Par ch=1 c=64 v=63
87112 Par ch=1 c=64 v=127
87166 On ch=1 n=g5 v=0
87290 On ch=1 n=e6 v=0
87318 On ch=1 n=d6 v=0
87326 On ch=1 n=e5 v=80
87362 On ch=1 n=b5 v=0
87370 On ch=1 n=f#5 v=0
87518 On ch=1 n=e5 v=0
87526 On ch=1 n=b4 v=93
87634 On ch=1 n=b4 v=0
87786 On ch=1 n=c#5 v=80
87788 On ch=1 n=g4 v=62
87792 On ch=1 n=e5 v=76
87800 On ch=1 n=b4 v=75
87816 On ch=1 n=a3 v=39
87842 Par ch=1 c=64 v=63
87852 Par ch=1 c=64 v=0
87920 Par ch=1 c=64 v=63
87950 Par ch=1 c=64 v=127
88068 On ch=1 n=g4 v=0
88162 On ch=1 n=c#5 v=0
88186 On ch=1 n=a3 v=0
88206 On ch=1 n=e5 v=0
88216 On ch=1 n=a4 v=84
88232 On ch=1 n=b4 v=0
88308 On ch=1 n=a4 v=0
88494 Par ch=1 c=64 v=63
88504 Par ch=1 c=64 v=0
88516 On ch=1 n=a3 v=50
88526 On ch=1 n=f#5 v=91
88526 On ch=1 n=f#4 v=84
88532 On ch=1 n=d5 v=75
88534 On ch=1 n=d3 v=50
88626 Par ch=1 c=64 v=63
88642 Par ch=1 c=64 v=127
88710 On ch=1 n=d5 v=0
88728 On ch=1 n=f#5 v=0
88738 On ch=1 n=d3 v=0
88770 On ch=1 n=a3 v=0
88984 Par ch=1 c=64 v=63
89020 Par ch=1 c=64 v=127
89022 On ch=1 n=c#5 v=85
89028 On ch=1 n=a4 v=68
89032 On ch=1 n=c#4 v=67
89032 On ch=1 n=f#3 v=82
89110 On ch=1 n=f#3 v=0
89114 On ch=1 n=c#5 v=0
89122 On ch=1 n=c#4 v=0
89122 On ch=1 n=a4 v=0
89170 On ch=1 n=f#4 v=0
89388 On ch=1 n=f#3 v=52
89398 On ch=1 n=b4 v=75
89406 On ch=1 n=b2 v=52
89406 On ch=1 n=d#4 v=54
89412 On ch=1 n=f#4 v=61
89418 Par ch=1 c=64 v=63
89434 Par ch=1 c=64 v=0
89546 Par ch=1 c=64 v=63
89570 Par ch=1 c=64 v=127
89770 On ch=1 n=d#4 v=0
89824 On ch=1 n=f#4 v=0
89852 On ch=1 n=b4 v=0
89876 On ch=1 n=b2 v=0
89942 On ch=1 n=f#3 v=0
90310 Par ch=1 c=64 v=63
90368 Par ch=1 c=64 v=0
90520 On ch=1 n=e3 v=45
90562 On ch=1 n=f#7 v=76
90574 On ch=1 n=g7 v=60
90668 Par ch=1 c=64 v=63
90680 Par ch=1 c=64 v=127
90982 On ch=1 n=e7 v=64
91050 On ch=1 n=g7 v=0
91054 On ch=1 n=f#7 v=0
91102 On ch=1 n=b6 v=67
91114 On ch=1 n=e7 v=0
91114 On ch=1 n=b3 v=55
91138 On ch=1 n=e3 v=0
91202 On ch=1 n=b6 v=0
91378 On ch=1 n=b3 v=0
91406 On ch=1 n=g4 v=51
91414 On ch=1 n=b6 v=62
91418 On ch=1 n=a6 v=63
91774 On ch=1 n=g6 v=76
91778 On ch=1 n=b6 v=0
91808 On ch=1 n=g4 v=0
91810 On ch=1 n=a6 v=0
91842 On ch=1 n=b3 v=55
91852 On ch=1 n=d6 v=76
91860 On ch=1 n=g6 v=0
91934 On ch=1 n=d6 v=0
92130 On ch=1 n=e3 v=66
92140 On ch=1 n=c#6 v=79
92142 On ch=1 n=d6 v=76
92198 On ch=1 n=b3 v=0
92486 On ch=1 n=b5 v=82
92500 On ch=1 n=d6 v=0
92506 On ch=1 n=e3 v=0
92538 On ch=1 n=b3 v=66
92542 On ch=1 n=c#6 v=0
92566 On ch=1 n=f#5 v=97
92578 On ch=1 n=b5 v=0
92638 On ch=1 n=f#5 v=0
92818 On ch=1 n=g4 v=57
92826 On ch=1 n=f#5 v=88
92832 On ch=1 n=g5 v=82
92908 Par ch=1 c=64 v=63
92918 Par ch=1 c=64 v=0
92966 Par ch=1 c=64 v=63
92992 Par ch=1 c=64 v=127
93028 On ch=1 n=b3 v=0
93072 On ch=1 n=g4 v=0
93156 On ch=1 n=g5 v=0
93178 On ch=1 n=e5 v=75
93218 On ch=1 n=f#5 v=0
93254 On ch=1 n=d5 v=84
93268 On ch=1 n=e5 v=0
93348 On ch=1 n=d5 v=0
93476 On ch=1 n=f#5 v=93
93522 On ch=1 n=e6 v=59
93522 Par ch=1 c=64 v=63
93530 Par ch=1 c=64 v=0
93534 On ch=1 n=f#5 v=0
93534 On ch=1 n=d6 v=47
93544 On ch=1 n=g5 v=76
93550 On ch=1 n=b5 v=59
93590 On ch=1 n=f#5 v=92
93592 Par ch=1 c=64 v=63
93614 Par ch=1 c=64 v=127
93666 On ch=1 n=g5 v=0
93784 On ch=1 n=e6 v=0
93816 On ch=1 n=d6 v=0
93818 On ch=1 n=e5 v=87
93860 On ch=1 n=b5 v=0
93872 On ch=1 n=f#5 v=0
94012 On ch=1 n=e5 v=0
94020 On ch=1 n=b4 v=90
94142 On ch=1 n=b4 v=0
94278 On ch=1 n=g4 v=65
94280 On ch=1 n=c#5 v=78
94288 On ch=1 n=a3 v=55
94292 On ch=1 n=e5 v=70
94294 On ch=1 n=b4 v=69
94328 Par ch=1 c=64 v=63
94336 Par ch=1 c=64 v=0
94396 Par ch=1 c=64 v=63
94422 Par ch=1 c=64 v=127
94478 On ch=1 n=a3 v=0
94512 On ch=1 n=g4 v=0
94722 On ch=1 n=e5 v=0
94722 On ch=1 n=c#5 v=0
94734 On ch=1 n=b4 v=0
94744 On ch=1 n=a4 v=86
94820 On ch=1 n=a4 v=0
94968 On ch=1 n=f#5 v=89
95018 Par ch=1 c=64 v=63
95026 Par ch=1 c=64 v=0
95032 On ch=1 n=e6 v=62
95040 On ch=1 n=d6 v=63
95046 On ch=1 n=f#5 v=0
95052 On ch=1 n=g5 v=80
95058 On ch=1 n=b5 v=76
95092 On ch=1 n=f#5 v=101
95098 Par ch=1 c=64 v=63
95120 Par ch=1 c=64 v=127
95172 On ch=1 n=g5 v=0
95282 On ch=1 n=e6 v=0
95322 On ch=1 n=e5 v=91
95326 On ch=1 n=d6 v=0
95364 On ch=1 n=b5 v=0
95366 On ch=1 n=f#5 v=0
95512 On ch=1 n=e5 v=0
95518 On ch=1 n=b4 v=84
95628 On ch=1 n=b4 v=0
95796 On ch=1 n=g4 v=62
95796 On ch=1 n=c#5 v=78
95806 On ch=1 n=a3 v=58
95824 Par ch=1 c=64 v=63
95832 Par ch=1 c=64 v=0
95834 On ch=1 n=b4 v=33
95902 Par ch=1 c=64 v=63
95932 Par ch=1 c=64 v=127
95978 On ch=1 n=e5 v=5
96016 On ch=1 n=g4 v=0
96184 On ch=1 n=a3 v=0
96252 On ch=1 n=a4 v=72
96312 On ch=1 n=b4 v=0
96316 On ch=1 n=c#5 v=0
96338 On ch=1 n=a4 v=0
96350 On ch=1 n=e5 v=0
96692 On ch=1 n=e3 v=63
96720 On ch=1 n=f#7 v=68
96722 On ch=1 n=g7 v=73
96796 Par ch=1 c=64 v=63
96810 Par ch=1 c=64 v=0
96990 Par ch=1 c=64 v=63
97006 Par ch=1 c=64 v=127
97132 On ch=1 n=e7 v=76
97162 On ch=1 n=g7 v=0
97190 On ch=1 n=f#7 v=0
97216 On ch=1 n=b6 v=82
97232 On ch=1 n=e7 v=0
97248 On ch=1 n=b3 v=47
97256 On ch=1 n=e3 v=0
97302 On ch=1 n=b6 v=0
97482 On ch=1 n=b6 v=73
97482 On ch=1 n=g4 v=63
97488 On ch=1 n=a6 v=79
97504 On ch=1 n=b3 v=0
97840 On ch=1 n=g6 v=84
97858 On ch=1 n=b6 v=0
97860 On ch=1 n=g4 v=0
97880 On ch=1 n=a6 v=0
97908 On ch=1 n=d6 v=86
97912 On ch=1 n=b3 v=63
97926 On ch=1 n=g6 v=0
97988 On ch=1 n=d6 v=0
98194 On ch=1 n=d6 v=89
98196 On ch=1 n=e3 v=67
98196 On ch=1 n=c#6 v=90
98242 Par ch=1 c=64 v=63
98254 Par ch=1 c=64 v=0
98268 On ch=1 n=b3 v=0
98312 Par ch=1 c=64 v=63
98348 Par ch=1 c=64 v=127
98526 On ch=1 n=b5 v=60
98552 On ch=1 n=d6 v=0
98582 On ch=1 n=c#6 v=0
98604 On ch=1 n=f#5 v=98
98622 On ch=1 n=b5 v=0
98634 On ch=1 n=b3 v=54
98652 On ch=1 n=e3 v=0
98676 On ch=1 n=f#5 v=0
98884 On ch=1 n=g4 v=48
98888 On ch=1 n=f#5 v=86
98894 On ch=1 n=g5 v=80
98942 Par ch=1 c=64 v=63
98952 Par ch=1 c=64 v=0
99020 Par ch=1 c=64 v=63
99052 Par ch=1 c=64 v=127
99090 On ch=1 n=b3 v=0
99144 On ch=1 n=g4 v=0
99246 On ch=1 n=e5 v=67
99248 On ch=1 n=g5 v=0
99280 On ch=1 n=f#5 v=0
99310 On ch=1 n=d5 v=88
99328 On ch=1 n=e5 v=0
99394 On ch=1 n=d5 v=0
99516 On ch=1 n=f#5 v=98
99548 Par ch=1 c=64 v=63
99556 Par ch=1 c=64 v=0
99586 On ch=1 n=e6 v=60
99586 On ch=1 n=d6 v=60
99588 On ch=1 n=f#5 v=0
99588 On ch=1 n=g5 v=74
99594 On ch=1 n=b5 v=50
99638 Par ch=1 c=64 v=63
99642 On ch=1 n=f#5 v=78
99658 Par ch=1 c=64 v=127
99740 On ch=1 n=g5 v=0
99816 On ch=1 n=e6 v=0
99852 On ch=1 n=d6 v=0
99876 On ch=1 n=e5 v=88
99900 On ch=1 n=b5 v=0
99902 On ch=1 n=f#5 v=0
100062 On ch=1 n=e5 v=0
100086 On ch=1 n=b4 v=75
100190 On ch=1 n=b4 v=0
100348 On ch=1 n=g4 v=63
100350 On ch=1 n=c#5 v=67
100356 On ch=1 n=e5 v=69
100360 On ch=1 n=b4 v=73
100384 On ch=1 n=a3 v=42
100400 Par ch=1 c=64 v=63
100410 Par ch=1 c=64 v=0
100484 Par ch=1 c=64 v=63
100512 Par ch=1 c=64 v=127
100622 On ch=1 n=g4 v=0
100648 On ch=1 n=c#5 v=0
100740 On ch=1 n=a3 v=0
100790 On ch=1 n=e5 v=0
100810 On ch=1 n=a4 v=76
100840 On ch=1 n=b4 v=0
100900 On ch=1 n=a4 v=0
101098 On ch=1 n=a3 v=50
101098 Par ch=1 c=64 v=63
101108 Par ch=1 c=64 v=0
101108 On ch=1 n=f#5 v=84
101110 On ch=1 n=d3 v=55
101118 On ch=1 n=d5 v=72
101124 On ch=1 n=f#4 v=77
101186 Par ch=1 c=64 v=63
101214 Par ch=1 c=64 v=127
101222 On ch=1 n=d5 v=0
101256 On ch=1 n=f#5 v=0
101272 On ch=1 n=d3 v=0
101292 On ch=1 n=a3 v=0
101452 On ch=1 n=f#4 v=0
101516 Par ch=1 c=64 v=63
101530 Par ch=1 c=64 v=0
101562 Par ch=1 c=64 v=63
101574 On ch=1 n=c#5 v=90
101586 On ch=1 n=a4 v=67
101588 On ch=1 n=c#4 v=69
101592 On ch=1 n=f#3 v=79
101592 Par ch=1 c=64 v=127
101656 On ch=1 n=c#5 v=0
101658 On ch=1 n=a4 v=0
101666 On ch=1 n=c#4 v=0
101668 On ch=1 n=f#3 v=0
101864 Par ch=1 c=64 v=63
101878 Par ch=1 c=64 v=0
101924 On ch=1 n=f#3 v=68
101932 On ch=1 n=b2 v=65
101934 On ch=1 n=b4 v=66
101938 On ch=1 n=f#4 v=62
101958 On ch=1 n=d#4 v=42
101960 Par ch=1 c=64 v=63
101978 Par ch=1 c=64 v=127
102058 On ch=1 n=b2 v=0
102074 On ch=1 n=f#3 v=0
102136 On ch=1 n=d#4 v=0
102168 Par ch=1 c=67 v=0
102192 On ch=1 n=f#4 v=0
102208 On ch=1 n=b4 v=0
102516 Par ch=1 c=64 v=63
102522 Par ch=1 c=64 v=0
102564 On ch=1 n=f#4 v=64
102664 Par ch=1 c=64 v=63
102670 Par ch=1 c=64 v=127
102762 On ch=1 n=f#4 v=0
103066 On ch=1 n=f#6 v=74
103070 On ch=1 n=d#6 v=74
103082 On ch=1 n=a#5 v=27
103088 On ch=1 n=b5 v=49
103098 On ch=1 n=f#5 v=37
103100 On ch=1 n=d#5 v=36
103382 On ch=1 n=f#6 v=0
103458 On ch=1 n=e6 v=84
103472 On ch=1 n=b5 v=0
103512 On ch=1 n=a#5 v=0
103552 On ch=1 n=d#5 v=0
103554 On ch=1 n=f#5 v=0
103556 On ch=1 n=f#6 v=98
103562 On ch=1 n=d#6 v=0
103590 On ch=1 n=e6 v=0
103638 On ch=1 n=f#6 v=0
103714 On ch=1 n=f#6 v=44
103766 On ch=1 n=f#6 v=0
103848 On ch=1 n=d#5 v=70
103848 On ch=1 n=g5 v=59
103850 On ch=1 n=a#6 v=97
103858 On ch=1 n=b4 v=54
103880 On ch=1 n=g6 v=60
103880 On ch=1 n=d#6 v=58
104132 On ch=1 n=d#6 v=0
104178 On ch=1 n=a#6 v=0
104220 On ch=1 n=b6 v=78
104224 On ch=1 n=g5 v=0
104290 On ch=1 n=d#5 v=0
104318 On ch=1 n=a#6 v=105
104320 On ch=1 n=g6 v=0
104362 On ch=1 n=b6 v=0
104402 On ch=1 n=a#6 v=0
104592 On ch=1 n=g#5 v=70
104600 On ch=1 n=c#5 v=76
104608 On ch=1 n=g#6 v=95
104610 On ch=1 n=e5 v=71
104618 On ch=1 n=e6 v=80
104630 On ch=1 n=c#6 v=77
104660 On ch=1 n=b4 v=0
104912 On ch=1 n=g#6 v=0
104966 On ch=1 n=f#6 v=93
105036 On ch=1 n=c#6 v=0
105042 On ch=1 n=e5 v=0
105060 On ch=1 n=g#5 v=0
105060 On ch=1 n=g#6 v=106
105066 On ch=1 n=c#5 v=0
105080 On ch=1 n=e6 v=0
105108 On ch=1 n=f#6 v=0
105160 On ch=1 n=g#6 v=0
105368 On ch=1 n=c#5 v=74
105374 On ch=1 n=f5 v=74
105388 On ch=1 n=c#7 v=104
105392 On ch=1 n=a#6 v=91
105392 On ch=1 n=a#4 v=62
105402 On ch=1 n=f6 v=83
105468 Par ch=1 c=64 v=63
105480 Par ch=1 c=64 v=0
105926 On ch=1 n=f#4 v=91
105962 Par ch=1 c=64 v=127
106064 On ch=1 n=a#4 v=0
106074 On ch=1 n=f5 v=0
106074 On ch=1 n=c#5 v=0
106080 On ch=1 n=f#4 v=0
106090 On ch=1 n=f6 v=0
106108 On ch=1 n=c#7 v=0
106110 On ch=1 n=a#6 v=0
106312 On ch=1 n=b6 v=89
106324 On ch=1 n=f#6 v=80
106326 On ch=1 n=d#6 v=72
106326 On ch=1 n=a#5 v=71
106340 On ch=1 n=f#5 v=67
106356 On ch=1 n=d#5 v=65
106682 On ch=1 n=a#5 v=0
106698 On ch=1 n=f#5 v=0
106712 On ch=1 n=c#7 v=88
106718 On ch=1 n=b6 v=0
106752 On ch=1 n=d#5 v=0
106798 On ch=1 n=a#6 v=103
106832 On ch=1 n=c#7 v=0
106842 On ch=1 n=d#6 v=0
106852 On ch=1 n=f#6 v=0
106894 On ch=1 n=a#6 v=0
107060 On ch=1 n=f#5 v=78
107066 On ch=1 n=d#5 v=77
107070 On ch=1 n=g#4 v=72
107086 On ch=1 n=g#6 v=101
107098 On ch=1 n=d#6 v=72
107098 On ch=1 n=b5 v=57
107146 Par ch=1 c=64 v=63
107156 Par ch=1 c=64 v=0
107226 Par ch=1 c=64 v=63
107252 Par ch=1 c=64 v=127
107320 On ch=1 n=a#6 v=96
107372 On ch=1 n=g#6 v=0
107540 On ch=1 n=g#4 v=0
107542 On ch=1 n=f#6 v=95
107546 On ch=1 n=a#6 v=0
107566 On ch=1 n=b5 v=0
107566 On ch=1 n=d#5 v=0
107580 On ch=1 n=d#6 v=0
107604 On ch=1 n=f#5 v=0
107636 On ch=1 n=f#6 v=0
107774 On ch=1 n=d#6 v=97
107828 On ch=1 n=a#4 v=52
107830 On ch=1 n=f6 v=81
107842 On ch=1 n=d#6 v=0
107844 On ch=1 n=g#5 v=65
107848 On ch=1 n=f5 v=50
107890 On ch=1 n=d#6 v=96
107896 On ch=1 n=f6 v=0
107914 Par ch=1 c=64 v=63
107922 Par ch=1 c=64 v=0
108052 Par ch=1 c=64 v=63
108066 Par ch=1 c=64 v=127
108374 On ch=1 n=c#6 v=92
108382 On ch=1 n=d#6 v=0
108440 On ch=1 n=c#6 v=0
108444 On ch=1 n=g#5 v=0
108486 On ch=1 n=f5 v=0
108676 On ch=1 n=a#4 v=0
108688 On ch=1 n=d#5 v=64
108692 On ch=1 n=d#6 v=72
108694 On ch=1 n=a#5 v=67
108716 On ch=1 n=g5 v=40
108756 Par ch=1 c=64 v=63
108766 Par ch=1 c=64 v=0
108876 Par ch=1 c=64 v=63
108894 Par ch=1 c=64 v=127
109064 On ch=1 n=g5 v=0
109086 On ch=1 n=d#6 v=0
109122 On ch=1 n=a#5 v=0
109246 On ch=1 n=d#5 v=0
109254 On ch=1 n=d#4 v=73
109656 On ch=1 n=a#4 v=51
109664 On ch=1 n=f#5 v=77
109676 On ch=1 n=d#5 v=62
109798 Par ch=1 c=64 v=63
109822 Par ch=1 c=64 v=0
109942 Par ch=1 c=64 v=63
109970 Par ch=1 c=64 v=127
110042 On ch=1 n=f#5 v=0
110052 On ch=1 n=e5 v=76
110146 On ch=1 n=f#5 v=108
110186 On ch=1 n=e5 v=0
110196 On ch=1 n=d#5 v=0
110242 On ch=1 n=f#5 v=0
110432 On ch=1 n=a#5 v=98
110468 On ch=1 n=c#5 v=54
110482 On ch=1 n=f5 v=24
110516 Par ch=1 c=64 v=63
110518 On ch=1 n=a#4 v=0
110534 Par ch=1 c=64 v=0
110580 Par ch=1 c=64 v=63
110616 Par ch=1 c=64 v=127
110748 On ch=1 n=a#5 v=0
110774 On ch=1 n=c#5 v=0
110782 On ch=1 n=b5 v=69
110878 On ch=1 n=a#5 v=100
110924 On ch=1 n=b5 v=0
111096 On ch=1 n=a#5 v=0
111102 On ch=1 n=f5 v=0
111178 On ch=1 n=g#5 v=97
111186 On ch=1 n=d#5 v=79
111188 On ch=1 n=b4 v=60
111298 Par ch=1 c=64 v=63
111318 Par ch=1 c=64 v=0
111412 Par ch=1 c=64 v=63
111438 Par ch=1 c=64 v=127
111506 On ch=1 n=f#5 v=103
111534 On ch=1 n=g#5 v=0
111612 On ch=1 n=g#5 v=104
111646 On ch=1 n=d#5 v=0
111662 On ch=1 n=f#5 v=0
111708 On ch=1 n=g#5 v=0
111950 On ch=1 n=e5 v=69
111960 On ch=1 n=b4 v=0
112006 On ch=1 n=d#6 v=103
112012 On ch=1 n=a#5 v=80
112024 On ch=1 n=g5 v=62
112120 Par ch=1 c=64 v=63
112138 Par ch=1 c=64 v=0
112284 Par ch=1 c=64 v=63
112300 Par ch=1 c=64 v=127
112420 On ch=1 n=d#4 v=0
112490 On ch=1 n=g5 v=0
112526 On ch=1 n=d#4 v=90
112574 On ch=1 n=a#5 v=0
112618 On ch=1 n=d#6 v=0
112686 On ch=1 n=e5 v=0
112810 On ch=1 n=d#5 v=85
112828 On ch=1 n=c#6 v=84
112840 On ch=1 n=f#5 v=63
112848 On ch=1 n=a5 v=51
112898 Par ch=1 c=64 v=63
112916 Par ch=1 c=64 v=0
112986 Par ch=1 c=64 v=63
113020 Par ch=1 c=64 v=127
113200 On ch=1 n=d#6 v=87
113234 On ch=1 n=c#6 v=0
113238 On ch=1 n=d#5 v=0
113270 On ch=1 n=a5 v=0
113290 On ch=1 n=b5 v=93
113340 On ch=1 n=d#6 v=0
113346 On ch=1 n=f#5 v=0
113388 On ch=1 n=b5 v=0
113560 On ch=1 n=c5 v=68
113564 On ch=1 n=g#5 v=87
113604 On ch=1 n=d#5 v=54
113642 Par ch=1 c=64 v=63
113654 Par ch=1 c=64 v=0
113750 Par ch=1 c=64 v=63
113776 Par ch=1 c=64 v=127
113812 On ch=1 n=a#5 v=86
113830 On ch=1 n=g#5 v=0
113956 On ch=1 n=c5 v=0
114002 On ch=1 n=a#5 v=0
114024 On ch=1 n=d#4 v=0
114034 On ch=1 n=f#5 v=92
114078 On ch=1 n=d#5 v=0
114110 On ch=1 n=f#5 v=0
114280 On ch=1 n=d#5 v=97
114284 On ch=1 n=c#4 v=60
114304 On ch=1 n=g#4 v=60
114308 On ch=1 n=b4 v=70
114356 On ch=1 n=d#5 v=0
114368 Par ch=1 c=64 v=63
114368 On ch=1 n=c#5 v=88
114382 Par ch=1 c=64 v=0
114420 On ch=1 n=d#5 v=80
114464 On ch=1 n=c#5 v=0
114698 Par ch=1 c=64 v=63
114708 Par ch=1 c=64 v=127
114816 On ch=1 n=f5 v=70
114864 On ch=1 n=d#5 v=0
114890 On ch=1 n=b4 v=0
114898 On ch=1 n=g#4 v=0
114952 On ch=1 n=f5 v=0
115140 On ch=1 n=f#4 v=31
115142 On ch=1 n=f#5 v=65
115152 On ch=1 n=c#4 v=0
115156 On ch=1 n=c#5 v=63
115158 On ch=1 n=a#4 v=41
115192 Par ch=1 c=64 v=63
115216 Par ch=1 c=64 v=0
115312 Par ch=1 c=64 v=63
115332 Par ch=1 c=64 v=127
115558 On ch=1 n=a#4 v=0
115598 On ch=1 n=c#5 v=0
115652 On ch=1 n=f#5 v=0
115656 On ch=1 n=f#4 v=0
115742 On ch=1 n=f#3 v=56
116164 On ch=1 n=f#3 v=0
116198 Par ch=1 c=67 v=127
116270 On ch=1 n=e3 v=50
116272 On ch=1 n=g7 v=65
116288 On ch=1 n=f#7 v=51
116302 Par ch=1 c=64 v=63
116324 Par ch=1 c=64 v=0
116484 Par ch=1 c=64 v=63
116500 Par ch=1 c=64 v=127
116782 On ch=1 n=e7 v=69
116804 On ch=1 n=g7 v=0
116838 On ch=1 n=f#7 v=0
116872 On ch=1 n=b3 v=49
116894 On ch=1 n=b6 v=70
116900 On ch=1 n=e7 v=0
116952 On ch=1 n=e3 v=0
116998 On ch=1 n=b6 v=0
117194 On ch=1 n=g4 v=57
117206 On ch=1 n=b6 v=65
117222 On ch=1 n=b3 v=0
117222 On ch=1 n=a6 v=62
117594 On ch=1 n=g6 v=67
117600 On ch=1 n=b6 v=0
117608 On ch=1 n=g4 v=0
117628 On ch=1 n=a6 v=0
117632 On ch=1 n=b3 v=48
117684 On ch=1 n=d6 v=68
117690 On ch=1 n=g6 v=0
117766 On ch=1 n=d6 v=0
117940 On ch=1 n=e3 v=66
117946 On ch=1 n=c#6 v=76
117960 On ch=1 n=d6 v=63
118010 On ch=1 n=b3 v=0
118036 Par ch=1 c=64 v=63
118092 Par ch=1 c=64 v=127
118286 On ch=1 n=d6 v=0
118288 On ch=1 n=b5 v=78
118348 On ch=1 n=c#6 v=0
118360 On ch=1 n=b3 v=54
118362 On ch=1 n=e3 v=0
118382 On ch=1 n=b5 v=0
118382 On ch=1 n=f#5 v=96
118456 On ch=1 n=f#5 v=0
118642 On ch=1 n=g4 v=48
118658 On ch=1 n=f#5 v=80
118666 On ch=1 n=g5 v=76
118708 Par ch=1 c=64 v=63
118724 Par ch=1 c=64 v=0
118758 Par ch=1 c=64 v=63
118776 On ch=1 n=b3 v=0
118794 Par ch=1 c=64 v=127
118878 On ch=1 n=g4 v=0
118972 On ch=1 n=g5 v=0
118994 On ch=1 n=e5 v=74
119020 On ch=1 n=f#5 v=0
119078 On ch=1 n=d5 v=84
119084 On ch=1 n=e5 v=0
119166 On ch=1 n=d5 v=0
119320 On ch=1 n=f#5 v=83
119350 Par ch=1 c=64 v=63
119360 Par ch=1 c=64 v=0
119366 On ch=1 n=f#5 v=0
119376 On ch=1 n=e6 v=55
119378 On ch=1 n=d6 v=63
119382 On ch=1 n=g5 v=73
119400 On ch=1 n=b5 v=52
119418 On ch=1 n=f#5 v=93
119426 Par ch=1 c=64 v=63
119458 Par ch=1 c=64 v=127
119494 On ch=1 n=g5 v=0
119656 On ch=1 n=e6 v=0
119680 On ch=1 n=e5 v=84
119686 On ch=1 n=d6 v=0
119718 On ch=1 n=f#5 v=0
119726 On ch=1 n=b5 v=0
119840 On ch=1 n=e5 v=0
119856 On ch=1 n=b4 v=77
119960 On ch=1 n=b4 v=0
120120 On ch=1 n=c#5 v=77
120126 On ch=1 n=e5 v=69
120130 On ch=1 n=g4 v=63
120136 Par ch=1 c=64 v=63
120138 On ch=1 n=a3 v=67
120146 Par ch=1 c=64 v=0
120154 On ch=1 n=b4 v=63
120218 Par ch=1 c=64 v=63
120250 Par ch=1 c=64 v=127
120292 On ch=1 n=a3 v=0
120312 On ch=1 n=g4 v=0
120556 On ch=1 n=c#5 v=0
120562 On ch=1 n=b4 v=0
120572 On ch=1 n=e5 v=0
120590 On ch=1 n=a4 v=75
120646 On ch=1 n=a4 v=0
120830 On ch=1 n=f#5 v=97
120874 Par ch=1 c=64 v=63
120882 Par ch=1 c=64 v=0
120896 On ch=1 n=e6 v=63
120900 On ch=1 n=f#5 v=0
120900 On ch=1 n=d6 v=55
120912 On ch=1 n=g5 v=74
120914 On ch=1 n=b5 v=66
120950 On ch=1 n=f#5 v=93
120974 Par ch=1 c=64 v=63
120992 Par ch=1 c=64 v=127
121028 On ch=1 n=g5 v=0
121110 On ch=1 n=e6 v=0
121148 On ch=1 n=d6 v=0
121182 On ch=1 n=b5 v=0
121210 On ch=1 n=e5 v=79
121236 On ch=1 n=f#5 v=0
121394 On ch=1 n=e5 v=0
121416 On ch=1 n=b4 v=81
121530 On ch=1 n=b4 v=0
121668 On ch=1 n=g4 v=60
121670 On ch=1 n=c#5 v=79
121676 On ch=1 n=e5 v=68
121680 On ch=1 n=a3 v=51
121690 Par ch=1 c=64 v=63
121698 On ch=1 n=b4 v=66
121702 Par ch=1 c=64 v=0
121758 Par ch=1 c=64 v=63
121786 Par ch=1 c=64 v=127
121922 On ch=1 n=g4 v=0
122034 On ch=1 n=a3 v=0
122168 On ch=1 n=a4 v=73
122196 On ch=1 n=c#5 v=0
122206 On ch=1 n=e5 v=0
122212 On ch=1 n=b4 v=0
122232 On ch=1 n=a4 v=0
122604 On ch=1 n=e3 v=59
122632 On ch=1 n=f#7 v=79
122642 On ch=1 n=g7 v=74
122660 Par ch=1 c=64 v=63
122672 Par ch=1 c=64 v=0
122798 Par ch=1 c=64 v=63
122816 Par ch=1 c=64 v=127
123042 On ch=1 n=e7 v=76
123052 On ch=1 n=g7 v=0
123094 On ch=1 n=f#7 v=0
123118 On ch=1 n=b6 v=78
123126 On ch=1 n=e3 v=0
123126 On ch=1 n=b3 v=47
123134 On ch=1 n=e7 v=0
123210 On ch=1 n=b6 v=0
123368 On ch=1 n=g4 v=73
123374 On ch=1 n=b6 v=64
123390 On ch=1 n=a6 v=68
123486 On ch=1 n=b3 v=0
123716 On ch=1 n=g6 v=80
123732 On ch=1 n=b6 v=0
123766 On ch=1 n=a6 v=0
123766 On ch=1 n=g4 v=0
123804 On ch=1 n=g6 v=0
123804 On ch=1 n=d6 v=78
123816 On ch=1 n=b3 v=60
123872 On ch=1 n=d6 v=0
124076 On ch=1 n=c#6 v=83
124082 On ch=1 n=e3 v=62
124088 On ch=1 n=d6 v=69
124136 Par ch=1 c=64 v=63
124148 On ch=1 n=b3 v=0
124150 Par ch=1 c=64 v=0
124218 Par ch=1 c=64 v=63
124254 Par ch=1 c=64 v=127
124422 On ch=1 n=d6 v=0
124436 On ch=1 n=b5 v=71
124480 On ch=1 n=c#6 v=0
124488 On ch=1 n=e3 v=0
124492 On ch=1 n=b3 v=54
124514 On ch=1 n=f#5 v=95
124524 On ch=1 n=b5 v=0
124582 On ch=1 n=f#5 v=0
124768 On ch=1 n=f#5 v=82
124774 On ch=1 n=g4 v=52
124786 On ch=1 n=g5 v=77
124818 Par ch=1 c=64 v=63
124830 Par ch=1 c=64 v=0
124862 On ch=1 n=b3 v=0
124880 Par ch=1 c=64 v=63
124908 Par ch=1 c=64 v=127
125008 On ch=1 n=g4 v=0
125094 On ch=1 n=g5 v=0
125130 On ch=1 n=e5 v=68
125154 On ch=1 n=f#5 v=0
125210 On ch=1 n=d5 v=78
125214 On ch=1 n=e5 v=0
125288 On ch=1 n=d5 v=0
125422 On ch=1 n=f#5 v=72
125472 On ch=1 n=g5 v=71
125474 On ch=1 n=f#5 v=0
125508 Par ch=1 c=64 v=63
125516 On ch=1 n=e6 v=54
125518 Par ch=1 c=64 v=0
125520 On ch=1 n=d6 v=57
125530 On ch=1 n=f#5 v=40
125532 On ch=1 n=b5 v=57
125576 Par ch=1 c=64 v=63
125606 Par ch=1 c=64 v=127
125632 On ch=1 n=g5 v=0
125756 On ch=1 n=e6 v=0
125784 On ch=1 n=d6 v=0
125794 On ch=1 n=e5 v=82
125818 On ch=1 n=f#5 v=0
125828 On ch=1 n=b5 v=0
125992 On ch=1 n=e5 v=0
126006 On ch=1 n=b4 v=76
126124 On ch=1 n=b4 v=0
126264 On ch=1 n=e5 v=73
126270 On ch=1 n=c#5 v=67
126272 On ch=1 n=g4 v=60
126278 On ch=1 n=b4 v=70
126292 On ch=1 n=a3 v=50
126312 Par ch=1 c=64 v=63
126324 Par ch=1 c=64 v=0
126402 Par ch=1 c=64 v=63
126432 Par ch=1 c=64 v=127
126548 On ch=1 n=c#5 v=0
126570 On ch=1 n=g4 v=0
126696 On ch=1 n=a3 v=0
126702 On ch=1 n=e5 v=0
126726 On ch=1 n=a4 v=71
126746 On ch=1 n=b4 v=0
126806 On ch=1 n=a4 v=0
127008 Par ch=1 c=64 v=63
127016 On ch=1 n=f#5 v=87
127018 Par ch=1 c=64 v=0
127020 On ch=1 n=a3 v=52
127024 On ch=1 n=f#4 v=77
127034 On ch=1 n=d5 v=72
127036 On ch=1 n=d3 v=51
127104 Par ch=1 c=64 v=63
127128 Par ch=1 c=64 v=127
127176 On ch=1 n=d5 v=0
127192 On ch=1 n=d3 v=0
127200 On ch=1 n=f#5 v=0
127244 On ch=1 n=a3 v=0
127536 On ch=1 n=c#5 v=88
127546 On ch=1 n=f#3 v=70
127548 On ch=1 n=c#4 v=66
127552 On ch=1 n=a4 v=61
127612 On ch=1 n=c#4 v=0
127632 On ch=1 n=f#3 v=0
127642 On ch=1 n=c#5 v=0
127650 On ch=1 n=a4 v=0
127650 On ch=1 n=f#4 v=0
127904 On ch=1 n=f#3 v=56
127918 On ch=1 n=f#4 v=59
127922 On ch=1 n=b4 v=65
127926 On ch=1 n=b2 v=64
127926 On ch=1 n=d#4 v=58
127940 Par ch=1 c=64 v=63
127948 Par ch=1 c=64 v=0
128036 Par ch=1 c=64 v=63
128058 Par ch=1 c=64 v=127
128112 Par ch=1 c=67 v=0
128134 On ch=1 n=b2 v=0
128180 On ch=1 n=f#3 v=0
128238 On ch=1 n=d#4 v=0
128278 On ch=1 n=f#4 v=0
128282 On ch=1 n=b4 v=0
128570 On ch=1 n=f#4 v=94
128586 Par ch=1 c=64 v=63
128594 Par ch=1 c=64 v=0
128720 Par ch=1 c=64 v=63
128734 Par ch=1 c=64 v=127
128822 On ch=1 n=f#4 v=0
129064 On ch=1 n=f#6 v=87
129068 On ch=1 n=a#5 v=59
129070 On ch=1 n=d#6 v=76
129078 On ch=1 n=f#5 v=55
129088 On ch=1 n=b5 v=50
129088 On ch=1 n=d#5 v=55
129446 On ch=1 n=f#6 v=0
129494 On ch=1 n=e6 v=73
129562 On ch=1 n=b5 v=0
129576 On ch=1 n=a#5 v=0
129582 On ch=1 n=f#6 v=109
129608 On ch=1 n=d#6 v=0
129616 On ch=1 n=d#5 v=0
129630 On ch=1 n=e6 v=0
129672 On ch=1 n=f#5 v=0
129674 On ch=1 n=f#6 v=0
129868 On ch=1 n=d#5 v=76
129870 On ch=1 n=g5 v=68
129874 On ch=1 n=b4 v=51
129882 On ch=1 n=a#6 v=100
129908 On ch=1 n=d#6 v=69
129912 On ch=1 n=g6 v=59
130156 On ch=1 n=d#6 v=0
130222 On ch=1 n=a#6 v=0
130244 On ch=1 n=b6 v=83
130320 On ch=1 n=g6 v=0
130344 On ch=1 n=a#6 v=107
130346 On ch=1 n=g5 v=0
130354 On ch=1 n=d#5 v=0
130392 On ch=1 n=b6 v=0
130438 On ch=1 n=a#6 v=0
130634 On ch=1 n=b4 v=0
130636 On ch=1 n=c#5 v=79
130638 On ch=1 n=g#5 v=85
130644 On ch=1 n=g#6 v=98
130644 On ch=1 n=e5 v=70
130650 On ch=1 n=e6 v=88
130664 On ch=1 n=c#6 v=83
130958 On ch=1 n=g#6 v=0
131018 On ch=1 n=f#6 v=84
131070 On ch=1 n=c#6 v=0
131098 On ch=1 n=g#6 v=106
131102 On ch=1 n=g#5 v=0
131106 On ch=1 n=e5 v=0
131114 On ch=1 n=e6 v=0
131144 On ch=1 n=f#6 v=0
131146 On ch=1 n=c#5 v=0
131196 On ch=1 n=g#6 v=0
131406 On ch=1 n=c#5 v=75
131408 On ch=1 n=c#7 v=107
131412 On ch=1 n=f5 v=73
131416 On ch=1 n=a#4 v=61
131418 On ch=1 n=a#6 v=91
131430 On ch=1 n=f6 v=70
131578 Par ch=1 c=64 v=63
131592 Par ch=1 c=64 v=0
131802 On ch=1 n=c#5 v=0
131804 On ch=1 n=a#4 v=0
131952 On ch=1 n=f#4 v=96
131974 Par ch=1 c=64 v=63
131976 Par ch=1 c=64 v=127
132116 On ch=1 n=f#4 v=0
132126 On ch=1 n=f6 v=0
132146 On ch=1 n=f5 v=0
132154 On ch=1 n=a#6 v=0
132204 On ch=1 n=c#7 v=0
132334 On ch=1 n=b6 v=88
132346 On ch=1 n=a#5 v=70
132346 On ch=1 n=f#6 v=81
132348 On ch=1 n=d#6 v=72
132360 On ch=1 n=d#5 v=57
132362 On ch=1 n=f#5 v=60
132714 On ch=1 n=a#5 v=0
132724 On ch=1 n=c#7 v=88
132742 On ch=1 n=b6 v=0
132752 On ch=1 n=f#5 v=0
132812 On ch=1 n=d#5 v=0
132826 On ch=1 n=a#6 v=106
132860 On ch=1 n=c#7 v=0
132872 On ch=1 n=d#6 v=0
132876 On ch=1 n=f#6 v=0
132924 On ch=1 n=a#6 v=0
133088 On ch=1 n=f#5 v=82
133096 On ch=1 n=g#6 v=101
133098 On ch=1 n=g#4 v=70
133102 On ch=1 n=d#5 v=74
133106 On ch=1 n=d#6 v=78
133110 On ch=1 n=b5 v=71
133220 Par ch=1 c=64 v=63
133238 Par ch=1 c=64 v=0
133264 Par ch=1 c=64 v=63
133302 Par ch=1 c=64 v=127
133350 On ch=1 n=a#6 v=99
133414 On ch=1 n=g#6 v=0
133538 On ch=1 n=g#4 v=0
133552 On ch=1 n=f#6 v=97
133558 On ch=1 n=b5 v=0
133560 On ch=1 n=a#6 v=0
133566 On ch=1 n=d#6 v=0
133568 On ch=1 n=d#5 v=0
133610 On ch=1 n=f#5 v=0
133650 On ch=1 n=f#6 v=0
133738 On ch=1 n=d#6 v=99
133794 On ch=1 n=f6 v=85
133802 On ch=1 n=d#6 v=0
133820 On ch=1 n=a#4 v=27
133858 On ch=1 n=f5 v=54
133862 On ch=1 n=d#6 v=92
133872 On ch=1 n=g#5 v=66
133874 On ch=1 n=f6 v=0
133970 Par ch=1 c=64 v=63
133984 Par ch=1 c=64 v=0
134118 Par ch=1 c=64 v=63
134134 Par ch=1 c=64 v=127
134352 On ch=1 n=c#6 v=93
134362 On ch=1 n=d#6 v=0
134410 On ch=1 n=g#5 v=0
134432 On ch=1 n=c#6 v=0
134470 On ch=1 n=f5 v=0
134680 On ch=1 n=a#4 v=0
134682 On ch=1 n=d#6 v=77
134684 On ch=1 n=a#5 v=66
134694 On ch=1 n=d#5 v=52
134696 On ch=1 n=g5 v=37
134784 Par ch=1 c=64 v=63
134798 Par ch=1 c=64 v=0
134914 Par ch=1 c=64 v=63
134928 Par ch=1 c=64 v=127
135038 On ch=1 n=g5 v=0
135078 On ch=1 n=d#5 v=0
135102 On ch=1 n=d#6 v=0
135118 On ch=1 n=a#5 v=0
135328 On ch=1 n=d#4 v=53
135716 On ch=1 n=a#4 v=53
135716 On ch=1 n=f#5 v=75
135756 On ch=1 n=d#5 v=37
135852 Par ch=1 c=64 v=63
135870 Par ch=1 c=64 v=0
135980 Par ch=1 c=64 v=63
136002 Par ch=1 c=64 v=127
136098 On ch=1 n=e5 v=80
136116 On ch=1 n=f#5 v=0
136210 On ch=1 n=f#5 v=94
136248 On ch=1 n=e5 v=0
136316 On ch=1 n=d#5 v=0
136344 On ch=1 n=f#5 v=0
136508 On ch=1 n=a#5 v=92
136516 On ch=1 n=c#5 v=54
136530 On ch=1 n=f5 v=56
136644 Par ch=1 c=64 v=63
136666 Par ch=1 c=64 v=0
136756 Par ch=1 c=64 v=63
136784 Par ch=1 c=64 v=127
136794 On ch=1 n=a#4 v=0
136858 On ch=1 n=b5 v=79
136862 On ch=1 n=a#5 v=0
136970 On ch=1 n=a#5 v=91
136986 On ch=1 n=c#5 v=0
136988 On ch=1 n=b5 v=0
137038 On ch=1 n=f5 v=0
137232 On ch=1 n=a#5 v=0
137266 On ch=1 n=b4 v=43
137272 On ch=1 n=g#5 v=76
137292 On ch=1 n=d#5 v=65
137350 Par ch=1 c=64 v=63
137368 Par ch=1 c=64 v=0
137472 Par ch=1 c=64 v=63
137494 Par ch=1 c=64 v=127
137626 On ch=1 n=f#5 v=83
137632 On ch=1 n=g#5 v=0
137698 On ch=1 n=d#5 v=0
137728 On ch=1 n=g#5 v=100
137760 On ch=1 n=f#5 v=0
137798 On ch=1 n=g#5 v=0
138024 On ch=1 n=b4 v=0
138042 On ch=1 n=d#6 v=84
138042 On ch=1 n=e5 v=54
138050 On ch=1 n=a#5 v=67
138056 On ch=1 n=g5 v=55
138120 Par ch=1 c=64 v=63
138136 Par ch=1 c=64 v=0
138272 Par ch=1 c=64 v=63
138288 Par ch=1 c=64 v=127
138468 On ch=1 n=d#4 v=0
138604 On ch=1 n=d#4 v=75
138728 On ch=1 n=g5 v=0
138742 On ch=1 n=a#5 v=0
138818 On ch=1 n=d#6 v=0
138822 On ch=1 n=e5 v=0
138964 On ch=1 n=d#5 v=72
138982 On ch=1 n=f#5 v=73
138982 On ch=1 n=c#6 v=78
139002 On ch=1 n=a5 v=49
139044 Par ch=1 c=64 v=63
139060 Par ch=1 c=64 v=0
139132 Par ch=1 c=64 v=63
139166 Par ch=1 c=64 v=127
139370 On ch=1 n=d#6 v=86
139424 On ch=1 n=c#6 v=0
139446 On ch=1 n=a5 v=0
139456 On ch=1 n=d#5 v=0
139466 On ch=1 n=b5 v=86
139506 On ch=1 n=d#6 v=0
139570 On ch=1 n=f#5 v=0
139638 On ch=1 n=b5 v=0
139748 On ch=1 n=g#5 v=85
139756 On ch=1 n=d#5 v=70
139760 On ch=1 n=c5 v=61
139820 Par ch=1 c=64 v=63
139838 Par ch=1 c=64 v=0
139886 Par ch=1 c=64 v=63
139930 Par ch=1 c=64 v=127
140004 On ch=1 n=a#5 v=81
140036 On ch=1 n=g#5 v=0
140148 On ch=1 n=c5 v=0
140228 On ch=1 n=a#5 v=0
140234 On ch=1 n=f#5 v=88
140294 On ch=1 n=d#5 v=0
140302 On ch=1 n=f#5 v=0
140470 On ch=1 n=c#4 v=57
140482 On ch=1 n=d#5 v=93
140500 On ch=1 n=d#4 v=0
140512 On ch=1 n=g#4 v=60
140532 On ch=1 n=b4 v=47
140566 On ch=1 n=d#5 v=0
140574 On ch=1 n=c#5 v=88
140594 Par ch=1 c=64 v=63
140608 Par ch=1 c=64 v=0
140648 On ch=1 n=d#5 v=80
140690 On ch=1 n=c#5 v=0
140720 Par ch=1 c=64 v=63
140740 Par ch=1 c=64 v=127
141012 On ch=1 n=f5 v=75
141082 On ch=1 n=d#5 v=0
141134 On ch=1 n=g#4 v=0
141146 On ch=1 n=b4 v=0
141240 On ch=1 n=f5 v=0
141356 On ch=1 n=f#4 v=52
141358 On ch=1 n=f#5 v=65
141374 On ch=1 n=a#4 v=39
141382 On ch=1 n=c#5 v=60
141424 Par ch=1 c=64 v=63
141436 On ch=1 n=c#4 v=0
141436 Par ch=1 c=64 v=0
141522 Par ch=1 c=64 v=63
141546 Par ch=1 c=64 v=127
141822 On ch=1 n=a#4 v=0
141864 On ch=1 n=f#4 v=0
141886 On ch=1 n=c#5 v=0
141960 On ch=1 n=f#5 v=0
141992 On ch=1 n=f#3 v=54
142078 Par ch=1 c=67 v=127
142458 On ch=1 n=f#3 v=0
142510 On ch=1 n=e3 v=57
142518 On ch=1 n=g7 v=63
142536 On ch=1 n=f#7 v=62
142584 Par ch=1 c=64 v=63
142604 Par ch=1 c=64 v=0
142738 Par ch=1 c=64 v=63
142756 Par ch=1 c=64 v=127
143032 On ch=1 n=e7 v=71
143076 On ch=1 n=g7 v=0
143092 On ch=1 n=f#7 v=0
143124 On ch=1 n=e3 v=0
143126 On ch=1 n=b3 v=51
143146 On ch=1 n=b6 v=68
143148 On ch=1 n=e7 v=0
143246 On ch=1 n=b6 v=0
143418 On ch=1 n=g4 v=65
143422 On ch=1 n=b6 v=69
143424 On ch=1 n=b3 v=0
143430 On ch=1 n=a6 v=73
143774 On ch=1 n=g6 v=68
143780 On ch=1 n=b6 v=0
143814 On ch=1 n=a6 v=0
143838 On ch=1 n=g4 v=0
143864 On ch=1 n=b3 v=50
143866 On ch=1 n=d6 v=76
143870 On ch=1 n=g6 v=0
143948 On ch=1 n=d6 v=0
144134 On ch=1 n=c#6 v=80
144140 On ch=1 n=e3 v=74
144140 On ch=1 n=d6 v=71
144184 On ch=1 n=b3 v=0
144490 On ch=1 n=d6 v=0
144500 On ch=1 n=b5 v=71
144532 On ch=1 n=c#6 v=0
144576 On ch=1 n=f#5 v=94
144580 On ch=1 n=b3 v=55
144586 On ch=1 n=b5 v=0
144594 On ch=1 n=e3 v=0
144652 On ch=1 n=f#5 v=0
144826 On ch=1 n=f#5 v=77
144848 On ch=1 n=g4 v=57
144856 On ch=1 n=g5 v=83
144884 Par ch=1 c=64 v=63
144896 Par ch=1 c=64 v=0
144998 Par ch=1 c=64 v=63
145012 Par ch=1 c=64 v=127
145040 On ch=1 n=g5 v=0
145092 On ch=1 n=b3 v=0
145142 On ch=1 n=g4 v=0
145198 On ch=1 n=e5 v=82
145258 On ch=1 n=f#5 v=0
145294 On ch=1 n=d5 v=85
145302 On ch=1 n=e5 v=0
145392 On ch=1 n=d5 v=0
145504 On ch=1 n=f#5 v=94
145578 On ch=1 n=g5 v=82
145580 On ch=1 n=f#5 v=0
145610 On ch=1 n=e6 v=55
145612 On ch=1 n=d6 v=64
145618 On ch=1 n=b5 v=61
145632 On ch=1 n=f#5 v=97
145646 Par ch=1 c=64 v=63
145658 Par ch=1 c=64 v=0
145686 Par ch=1 c=64 v=63
145694 On ch=1 n=g5 v=0
145716 Par ch=1 c=64 v=127
145892 On ch=1 n=e6 v=0
145894 On ch=1 n=e5 v=92
145922 On ch=1 n=d6 v=0
145934 On ch=1 n=f#5 v=0
145960 On ch=1 n=b5 v=0
146078 On ch=1 n=e5 v=0
146090 On ch=1 n=b4 v=89
146198 On ch=1 n=b4 v=0
146362 On ch=1 n=c#5 v=73
146364 On ch=1 n=e5 v=64
146364 On ch=1 n=g4 v=66
146364 On ch=1 n=a3 v=54
146386 On ch=1 n=b4 v=71
146390 Par ch=1 c=64 v=63
146402 Par ch=1 c=64 v=0
146444 Par ch=1 c=64 v=63
146470 Par ch=1 c=64 v=127
146574 On ch=1 n=a3 v=0
146612 On ch=1 n=g4 v=0
146800 On ch=1 n=e5 v=0
146802 On ch=1 n=c#5 v=0
146816 On ch=1 n=a4 v=83
146820 On ch=1 n=b4 v=0
146894 On ch=1 n=a4 v=0
147126 On ch=1 n=g5 v=79
147130 Par ch=1 c=64 v=63
147140 Par ch=1 c=64 v=0
147150 On ch=1 n=e6 v=59
147156 On ch=1 n=d6 v=57
147168 On ch=1 n=b5 v=68
147184 On ch=1 n=f#5 v=105
147192 Par ch=1 c=64 v=63
147218 Par ch=1 c=64 v=127
147242 On ch=1 n=g5 v=0
147370 On ch=1 n=e6 v=0
147410 On ch=1 n=d6 v=0
147446 On ch=1 n=e5 v=94
147450 On ch=1 n=b5 v=0
147492 On ch=1 n=f#5 v=0
147640 On ch=1 n=b4 v=100
147644 On ch=1 n=e5 v=0
147774 On ch=1 n=b4 v=0
147896 On ch=1 n=c#5 v=74
147898 On ch=1 n=a3 v=36
147904 On ch=1 n=e5 v=71
147904 On ch=1 n=g4 v=49
147914 On ch=1 n=b4 v=71
147926 Par ch=1 c=64 v=63
147936 Par ch=1 c=64 v=0
148016 Par ch=1 c=64 v=63
148044 Par ch=1 c=64 v=127
148196 On ch=1 n=g4 v=0
148378 On ch=1 n=a3 v=0
148396 On ch=1 n=a4 v=71
148414 On ch=1 n=e5 v=0
148416 On ch=1 n=c#5 v=0
148432 On ch=1 n=b4 v=0
148448 On ch=1 n=a4 v=0
148824 On ch=1 n=e3 v=55
148844 On ch=1 n=g7 v=76
148846 On ch=1 n=f#7 v=69
148902 Par ch=1 c=64 v=63
148918 Par ch=1 c=64 v=0
149044 Par ch=1 c=64 v=63
149060 Par ch=1 c=64 v=127
149238 On ch=1 n=g7 v=0
149266 On ch=1 n=e7 v=82
149322 On ch=1 n=e3 v=0
149328 On ch=1 n=f#7 v=0
149348 On ch=1 n=b3 v=50
149374 On ch=1 n=b6 v=70
149382 On ch=1 n=e7 v=0
149458 On ch=1 n=b6 v=0
149634 On ch=1 n=g4 v=55
149654 On ch=1 n=b6 v=59
149660 On ch=1 n=a6 v=73
149706 Par ch=1 c=64 v=63
149754 Par ch=1 c=64 v=127
149904 On ch=1 n=b3 v=0
150016 On ch=1 n=g6 v=77
150026 On ch=1 n=b6 v=0
150054 On ch=1 n=a6 v=0
150054 On ch=1 n=g4 v=0
150098 On ch=1 n=g6 v=0
150102 On ch=1 n=d6 v=74
150122 On ch=1 n=b3 v=55
150168 On ch=1 n=d6 v=0
150362 On ch=1 n=c#6 v=79
150372 On ch=1 n=d6 v=67
150378 On ch=1 n=e3 v=61
150430 On ch=1 n=b3 v=0
150434 Par ch=1 c=64 v=63
150462 Par ch=1 c=64 v=0
150472 Par ch=1 c=64 v=63
150520 Par ch=1 c=64 v=127
150696 On ch=1 n=b5 v=77
150706 On ch=1 n=d6 v=0
150756 On ch=1 n=c#6 v=0
150790 On ch=1 n=e3 v=0
150794 On ch=1 n=b3 v=54
150804 On ch=1 n=b5 v=0
150810 On ch=1 n=f#5 v=97
150872 On ch=1 n=f#5 v=0
151082 On ch=1 n=g4 v=46
151088 On ch=1 n=f#5 v=84
151096 On ch=1 n=g5 v=73
151176 Par ch=1 c=64 v=63
151208 Par ch=1 c=64 v=127
151268 On ch=1 n=b3 v=0
151314 On ch=1 n=g4 v=0
151434 On ch=1 n=g5 v=0
151460 On ch=1 n=e5 v=77
151478 On ch=1 n=f#5 v=0
151546 On ch=1 n=d5 v=67
151560 On ch=1 n=e5 v=0
151632 On ch=1 n=d5 v=0
151782 On ch=1 n=f#5 v=88
151826 On ch=1 n=e6 v=57
151834 Par ch=1 c=64 v=63
151836 On ch=1 n=f#5 v=0
151838 On ch=1 n=d6 v=57
151846 On ch=1 n=g5 v=70
151848 Par ch=1 c=64 v=0
151852 On ch=1 n=b5 v=55
151876 Par ch=1 c=64 v=63
151890 On ch=1 n=f#5 v=88
151908 Par ch=1 c=64 v=127
151978 On ch=1 n=g5 v=0
152070 On ch=1 n=e6 v=0
152102 On ch=1 n=d6 v=0
152150 On ch=1 n=b5 v=0
152156 On ch=1 n=e5 v=76
152192 On ch=1 n=f#5 v=0
152314 On ch=1 n=e5 v=0
152338 On ch=1 n=b4 v=69
152434 On ch=1 n=b4 v=0
152612 On ch=1 n=e5 v=73
152614 On ch=1 n=g4 v=58
152620 On ch=1 n=c#5 v=70
152624 On ch=1 n=b4 v=73
152626 On ch=1 n=a3 v=55
152630 Par ch=1 c=64 v=63
152642 Par ch=1 c=64 v=0
152718 Par ch=1 c=64 v=63
152750 Par ch=1 c=64 v=127
152826 On ch=1 n=c#5 v=0
153004 On ch=1 n=g4 v=0
153046 On ch=1 n=a3 v=0
153074 On ch=1 n=e5 v=0
153086 On ch=1 n=a4 v=78
153092 On ch=1 n=b4 v=0
153172 On ch=1 n=a4 v=0
153380 On ch=1 n=f#5 v=84
153394 On ch=1 n=a4 v=32
153396 On ch=1 n=d4 v=52
153410 Par ch=1 c=64 v=63
153412 On ch=1 n=d5 v=68
153424 Par ch=1 c=64 v=0
153492 Par ch=1 c=64 v=63
153522 Par ch=1 c=64 v=127
153574 On ch=1 n=f#5 v=0
153578 On ch=1 n=d5 v=0
153584 On ch=1 n=a4 v=0
153590 On ch=1 n=d4 v=0
153910 Par ch=1 c=64 v=63
153922 On ch=1 n=c#5 v=90
153926 On ch=1 n=a4 v=68
153926 On ch=1 n=f#4 v=68
153928 Par ch=1 c=64 v=0
153930 On ch=1 n=b3 v=65
154036 Par ch=1 c=67 v=0
154048 On ch=1 n=a4 v=0
154058 On ch=1 n=b3 v=0
154162 On ch=1 n=c#5 v=0
154204 On ch=1 n=f#4 v=0
154276 Par ch=1 c=64 v=63
154280 On ch=1 n=g#4 v=66
154286 On ch=1 n=e5 v=79
154290 On ch=1 n=e4 v=69
154292 On ch=1 n=b4 v=70
154296 Par ch=1 c=64 v=127
154362 On ch=1 n=g#4 v=0
154364 On ch=1 n=b4 v=0
154366 On ch=1 n=e4 v=0
154392 On ch=1 n=e5 v=0
154696 Par ch=1 c=64 v=63
154714 Par ch=1 c=64 v=0
154742 On ch=1 n=a#5 v=93
154812 On ch=1 n=b5 v=103
154832 On ch=1 n=a#5 v=0
154900 On ch=1 n=b5 v=0
155152 On ch=1 n=g#4 v=62
155160 On ch=1 n=e5 v=59
155174 On ch=1 n=c5 v=59
155178 On ch=1 n=d#6 v=112
155282 Par ch=1 c=64 v=63
155286 Par ch=1 c=64 v=127
155514 On ch=1 n=c5 v=0
155518 On ch=1 n=e5 v=0
155556 On ch=1 n=g#4 v=0
156026 On ch=1 n=e4 v=72
156032 On ch=1 n=a3 v=79
156116 On ch=1 n=e4 v=0
156122 On ch=1 n=a3 v=0
156312 On ch=1 n=d#6 v=0
156380 On ch=1 n=c6 v=96
156464 On ch=1 n=d#6 v=106
156490 On ch=1 n=c6 v=0
156538 On ch=1 n=d#6 v=0
156776 On ch=1 n=c#5 v=80
156778 On ch=1 n=a4 v=66
156782 On ch=1 n=c6 v=98
156782 On ch=1 n=f5 v=76
156796 Par ch=1 c=64 v=63
156806 Par ch=1 c=64 v=0
156900 Par ch=1 c=64 v=63
156926 Par ch=1 c=64 v=127
157102 On ch=1 n=c#5 v=0
157106 On ch=1 n=a4 v=0
157118 On ch=1 n=c6 v=0
157134 On ch=1 n=f5 v=0
157160 On ch=1 n=b5 v=67
157244 On ch=1 n=c#5 v=109
157246 On ch=1 n=b5 v=0
157310 On ch=1 n=c#5 v=0
157510 On ch=1 n=g#5 v=83
157518 On ch=1 n=b5 v=96
157518 On ch=1 n=f5 v=67
157534 Par ch=1 c=64 v=63
157546 Par ch=1 c=64 v=0
157626 On ch=1 n=b5 v=0
157632 Par ch=1 c=64 v=63
157658 Par ch=1 c=64 v=127
157662 On ch=1 n=g#5 v=0
157696 On ch=1 n=f5 v=0
157958 On ch=1 n=f#3 v=87
157966 On ch=1 n=c#5 v=104
158048 On ch=1 n=c#5 v=0
158048 On ch=1 n=f#3 v=0
158120 Par ch=1 c=64 v=63
158138 Par ch=1 c=64 v=0
158234 On ch=1 n=g#5 v=90
158238 On ch=1 n=a4 v=71
158242 On ch=1 n=c5 v=78
158254 On ch=1 n=e5 v=84
158274 Par ch=1 c=64 v=63
158294 Par ch=1 c=64 v=127
158360 On ch=1 n=c5 v=0
158372 On ch=1 n=a4 v=0
158374 On ch=1 n=e5 v=0
158378 On ch=1 n=g#5 v=0
158588 On ch=1 n=c5 v=89
158642 Par ch=1 c=64 v=63
158658 Par ch=1 c=64 v=0
158664 On ch=1 n=g#5 v=91
158668 On ch=1 n=b3 v=65
158672 On ch=1 n=c5 v=0
158680 On ch=1 n=d#5 v=103
158748 On ch=1 n=d#5 v=0
158782 On ch=1 n=g#5 v=0
158830 On ch=1 n=b3 v=0
158964 On ch=1 n=a#4 v=69
158984 On ch=1 n=c#5 v=82
158986 On ch=1 n=f#5 v=90
158994 On ch=1 n=g4 v=59
159050 Par ch=1 c=64 v=63
159052 Par ch=1 c=64 v=127
159106 On ch=1 n=f#5 v=0
159186 On ch=1 n=c#5 v=0
159252 On ch=1 n=g4 v=0
159274 On ch=1 n=a#4 v=0
159424 On ch=1 n=b3 v=69
159434 On ch=1 n=e5 v=96
159512 On ch=1 n=e5 v=0
159518 Par ch=1 c=64 v=63
159540 Par ch=1 c=64 v=0
159664 On ch=1 n=b3 v=0
159710 On ch=1 n=f#4 v=76
159710 On ch=1 n=a4 v=68
159726 On ch=1 n=e5 v=91
159742 On ch=1 n=c5 v=82
159782 Par ch=1 c=64 v=63
159790 Par ch=1 c=64 v=127
159812 On ch=1 n=f#4 v=0
159822 On ch=1 n=a4 v=0
160098 On ch=1 n=f#5 v=88
160114 On ch=1 n=e5 v=0
160150 On ch=1 n=b3 v=75
160164 On ch=1 n=d5 v=93
160184 On ch=1 n=c5 v=0
160230 On ch=1 n=b3 v=0
160230 On ch=1 n=f#5 v=0
160238 On ch=1 n=d5 v=0
160306 Par ch=1 c=64 v=63
160342 Par ch=1 c=64 v=0
160464 On ch=1 n=g4 v=76
160464 On ch=1 n=e3 v=65
160470 On ch=1 n=b3 v=70
160472 On ch=1 n=b4 v=90
160482 Par ch=1 c=64 v=63
160498 On ch=1 n=e5 v=96
160500 Par ch=1 c=64 v=127
160532 On ch=1 n=g4 v=0
160540 On ch=1 n=b3 v=0
160542 On ch=1 n=b4 v=0
160548 On ch=1 n=e3 v=0
160580 On ch=1 n=e5 v=0
160844 On ch=1 n=a#5 v=105
160896 Par ch=1 c=64 v=63
160910 On ch=1 n=b5 v=99
160922 On ch=1 n=a#5 v=0
160926 Par ch=1 c=64 v=0
161010 On ch=1 n=b5 v=0
161236 On ch=1 n=b4 v=102
161238 On ch=1 n=d#6 v=119
161554 On ch=1 n=d#5 v=114
161578 On ch=1 n=b4 v=0
161646 On ch=1 n=d#5 v=0
161652 On ch=1 n=e5 v=103
161740 On ch=1 n=e5 v=0
162040 On ch=1 n=g#5 v=112
162048 On ch=1 n=c5 v=90
162050 On ch=1 n=e5 v=88
162084 Par ch=1 c=64 v=127
162170 On ch=1 n=d#6 v=0
162452 On ch=1 n=c6 v=96
162500 On ch=1 n=g#5 v=0
162504 On ch=1 n=c5 v=0
162520 On ch=1 n=d#6 v=107
162548 On ch=1 n=c6 v=0
162600 On ch=1 n=d#6 v=0
162648 On ch=1 n=e5 v=0
162816 On ch=1 n=c6 v=98
162822 On ch=1 n=a4 v=80
162882 On ch=1 n=a4 v=0
162894 On ch=1 n=c6 v=0
163158 On ch=1 n=b5 v=98
163182 On ch=1 n=f5 v=81
163262 On ch=1 n=c#5 v=105
163264 On ch=1 n=g#5 v=105
163274 On ch=1 n=b5 v=0
163290 On ch=1 n=f5 v=0
163314 On ch=1 n=c#5 v=0
163342 On ch=1 n=g#5 v=0
163572 On ch=1 n=b5 v=107
163572 On ch=1 n=f5 v=65
163598 Par ch=1 c=64 v=63
163614 Par ch=1 c=64 v=0
163658 Par ch=1 c=64 v=63
163698 Par ch=1 c=64 v=127
163740 On ch=1 n=f5 v=0
163864 On ch=1 n=b5 v=0
163920 On ch=1 n=e5 v=90
164014 On ch=1 n=c#5 v=105
164022 On ch=1 n=f#4 v=94
164034 On ch=1 n=e5 v=0
164090 On ch=1 n=c#5 v=0
164288 On ch=1 n=f#4 v=0
164300 Par ch=1 c=64 v=63
164314 Par ch=1 c=64 v=0
164314 On ch=1 n=g#5 v=105
164316 On ch=1 n=e5 v=98
164370 Par ch=1 c=64 v=63
164404 Par ch=1 c=64 v=127
164432 On ch=1 n=e5 v=0
164600 On ch=1 n=g#5 v=0
164638 On ch=1 n=c5 v=90
164718 On ch=1 n=c5 v=0
164726 On ch=1 n=g#5 v=104
164730 On ch=1 n=f#4 v=89
164736 On ch=1 n=d#5 v=98
164772 On ch=1 n=d#5 v=0
164782 On ch=1 n=f#4 v=0
164802 On ch=1 n=g#5 v=0
164990 Par ch=1 c=64 v=63
165004 Par ch=1 c=64 v=0
165014 On ch=1 n=f#5 v=107
165018 On ch=1 n=a#4 v=86
165024 On ch=1 n=c#5 v=105
165026 On ch=1 n=g4 v=69
165050 Par ch=1 c=64 v=63
165076 Par ch=1 c=64 v=127
165086 On ch=1 n=g4 v=0
165092 On ch=1 n=c#5 v=0
165102 On ch=1 n=a#4 v=0
165130 On ch=1 n=f#5 v=0
165362 On ch=1 n=e4 v=92
165424 On ch=1 n=b3 v=64
165428 On ch=1 n=e4 v=0
165456 On ch=1 n=c#5 v=109
165458 On ch=1 n=e5 v=103
165524 On ch=1 n=c#5 v=0
165532 On ch=1 n=e5 v=0
165704 On ch=1 n=b3 v=0
165740 On ch=1 n=e5 v=92
165740 On ch=1 n=f#4 v=80
165744 On ch=1 n=a4 v=73
165758 On ch=1 n=c5 v=85
165768 Par ch=1 c=64 v=63
165780 Par ch=1 c=64 v=0
165898 Par ch=1 c=64 v=63
165922 Par ch=1 c=64 v=127
166056 On ch=1 n=f#5 v=95
166106 On ch=1 n=c5 v=0
166118 On ch=1 n=e5 v=0
166142 On ch=1 n=a4 v=0
166148 On ch=1 n=d5 v=94
166152 On ch=1 n=b3 v=73
166166 On ch=1 n=f#4 v=0
166192 On ch=1 n=f#5 v=0
166214 On ch=1 n=d5 v=0
166220 On ch=1 n=b3 v=0
166464 On ch=1 n=g4 v=57
166472 Par ch=1 c=64 v=63
166484 On ch=1 n=e3 v=63
166488 On ch=1 n=b3 v=65
166490 On ch=1 n=b4 v=81
166492 Par ch=1 c=64 v=0
166524 On ch=1 n=e5 v=89
166674 On ch=1 n=g4 v=0
166728 On ch=1 n=b4 v=0
166752 On ch=1 n=e3 v=0
166766 On ch=1 n=b3 v=0
166780 On ch=1 n=e5 v=0
167112 On ch=1 n=f#6 v=70
167132 On ch=1 n=d6 v=42
167168 On ch=1 n=f#6 v=0
167184 On ch=1 n=d6 v=0
167498 On ch=1 n=f#6 v=71
167516 On ch=1 n=b5 v=51
167524 On ch=1 n=d6 v=60
167542 Par ch=1 c=64 v=63
167554 Par ch=1 c=64 v=127
167578 On ch=1 n=f#6 v=0
167578 On ch=1 n=g6 v=76
167652 On ch=1 n=f#6 v=60
167682 On ch=1 n=g6 v=0
167768 On ch=1 n=d6 v=0
167804 On ch=1 n=b5 v=0
167900 On ch=1 n=f#6 v=0
167994 On ch=1 n=c#6 v=72
167994 On ch=1 n=e6 v=75
168010 On ch=1 n=a5 v=44
168012 Par ch=1 c=64 v=63
168018 Par ch=1 c=64 v=0
168086 On ch=1 n=a5 v=0
168088 On ch=1 n=c#6 v=0
168094 On ch=1 n=e6 v=0
168290 On ch=1 n=f#6 v=86
168310 On ch=1 n=g5 v=62
168312 On ch=1 n=d6 v=63
168338 Par ch=1 c=64 v=63
168340 Par ch=1 c=64 v=127
168402 On ch=1 n=g5 v=0
168414 On ch=1 n=f#6 v=0
168416 On ch=1 n=d6 v=0
168740 Par ch=1 c=64 v=63
168748 On ch=1 n=b6 v=75
168750 Par ch=1 c=64 v=0
168754 On ch=1 n=f#5 v=80
168768 On ch=1 n=c#6 v=52
168770 On ch=1 n=e6 v=60
168812 On ch=1 n=f#5 v=0
168814 On ch=1 n=c#6 v=0
168820 On ch=1 n=e6 v=0
168832 On ch=1 n=b6 v=0
169074 On ch=1 n=b6 v=65
169092 On ch=1 n=f#5 v=82
169092 Par ch=1 c=64 v=63
169094 Par ch=1 c=64 v=127
169100 On ch=1 n=c#6 v=51
169106 On ch=1 n=e6 v=55
169128 On ch=1 n=f#5 v=0
169170 On ch=1 n=c#6 v=0
169188 On ch=1 n=b6 v=0
169198 On ch=1 n=e6 v=0
169602 On ch=1 n=a6 v=73
169610 On ch=1 n=c#6 v=55
169616 On ch=1 n=e6 v=52
169690 On ch=1 n=e6 v=0
169698 On ch=1 n=c#6 v=0
169708 On ch=1 n=a6 v=0
169958 On ch=1 n=c#7 v=76
169962 On ch=1 n=f#6 v=60
169972 On ch=1 n=f#7 v=45
169984 On ch=1 n=d6 v=44
170088 Par ch=1 c=64 v=63
170118 Par ch=1 c=64 v=127
170218 On ch=1 n=f#7 v=0
170264 On ch=1 n=c#7 v=0
170300 On ch=1 n=f#6 v=0
170310 On ch=1 n=d6 v=0
170546 On ch=1 n=f#6 v=91
170552 On ch=1 n=c#6 v=72
170558 On ch=1 n=d6 v=71
170594 On ch=1 n=c#6 v=0
170606 On ch=1 n=d6 v=0
170618 On ch=1 n=f#6 v=0
170710 Par ch=1 c=64 v=63
170744 Par ch=1 c=64 v=0
170882 On ch=1 n=f#6 v=91
170900 On ch=1 n=b5 v=68
170902 On ch=1 n=d6 v=65
170940 Par ch=1 c=64 v=63
170944 On ch=1 n=f#6 v=0
170954 Par ch=1 c=64 v=127
170964 On ch=1 n=g6 v=78
171030 On ch=1 n=f#6 v=69
171064 On ch=1 n=g6 v=0
171174 On ch=1 n=d6 v=0
171224 On ch=1 n=b5 v=0
171290 On ch=1 n=f#6 v=0
171372 On ch=1 n=c#6 v=85
171374 On ch=1 n=e6 v=82
171376 On ch=1 n=a5 v=54
171412 Par ch=1 c=64 v=63
171424 Par ch=1 c=64 v=0
171442 On ch=1 n=a5 v=0
171452 On ch=1 n=e6 v=0
171464 On ch=1 n=c#6 v=0
171666 Par ch=1 c=64 v=63
171670 On ch=1 n=f#6 v=82
171674 Par ch=1 c=64 v=127
171684 On ch=1 n=g5 v=65
171690 On ch=1 n=d6 v=65
171758 On ch=1 n=g5 v=0
171770 On ch=1 n=f#6 v=0
171772 On ch=1 n=d6 v=0
172116 On ch=1 n=f#5 v=72
172120 On ch=1 n=b6 v=82
172132 On ch=1 n=c#6 v=70
172136 On ch=1 n=e6 v=76
172164 Par ch=1 c=64 v=63
172178 On ch=1 n=f#5 v=0
172178 Par ch=1 c=64 v=0
172188 On ch=1 n=c#6 v=0
172190 On ch=1 n=e6 v=0
172198 On ch=1 n=b6 v=0
172430 On ch=1 n=d6 v=71
172432 On ch=1 n=a6 v=80
172442 On ch=1 n=b5 v=58
172444 On ch=1 n=e5 v=58
172460 Par ch=1 c=64 v=63
172466 Par ch=1 c=64 v=127
172570 On ch=1 n=a6 v=0
172584 On ch=1 n=b5 v=0
172584 On ch=1 n=d6 v=0
172678 On ch=1 n=f#6 v=77
172778 On ch=1 n=f#6 v=0
172798 On ch=1 n=e5 v=0
172942 On ch=1 n=g6 v=86
172954 On ch=1 n=d6 v=61
172968 Par ch=1 c=64 v=63
172968 On ch=1 n=b5 v=43
172974 Par ch=1 c=64 v=0
173036 On ch=1 n=b5 v=0
173050 On ch=1 n=d6 v=0
173054 Par ch=1 c=64 v=63
173058 On ch=1 n=g6 v=0
173068 Par ch=1 c=64 v=127
173118 On ch=1 n=a4 v=71
173184 On ch=1 n=a4 v=0
173342 On ch=1 n=e6 v=65
173362 On ch=1 n=a6 v=64
173368 On ch=1 n=c#6 v=70
173372 On ch=1 n=e7 v=71
173436 On ch=1 n=e6 v=0
173438 On ch=1 n=a6 v=0
173448 On ch=1 n=c#6 v=0
173454 On ch=1 n=e7 v=0
173992 On ch=1 n=e6 v=85
174000 On ch=1 n=b5 v=59
174008 On ch=1 n=c6 v=63
174056 On ch=1 n=c6 v=0
174064 On ch=1 n=e6 v=0
174126 On ch=1 n=b5 v=0
174280 Par ch=1 c=64 v=63
174294 Par ch=1 c=64 v=0
174344 On ch=1 n=e6 v=88
174348 On ch=1 n=a5 v=59
174358 On ch=1 n=c6 v=78
174394 On ch=1 n=e6 v=0
174394 On ch=1 n=f#6 v=86
174426 Par ch=1 c=64 v=63
174444 Par ch=1 c=64 v=127
174478 On ch=1 n=e6 v=76
174482 On ch=1 n=f#6 v=0
174640 On ch=1 n=c6 v=0
174800 On ch=1 n=a5 v=0
174816 On ch=1 n=d6 v=81
174824 On ch=1 n=b5 v=72
174826 On ch=1 n=g5 v=54
174828 On ch=1 n=e6 v=0
174880 On ch=1 n=g5 v=0
174886 On ch=1 n=b5 v=0
174932 On ch=1 n=d6 v=0
175088 Par ch=1 c=64 v=63
175106 On ch=1 n=e6 v=92
175116 On ch=1 n=f#5 v=73
175120 Par ch=1 c=64 v=0
175120 On ch=1 n=a5 v=62
175122 On ch=1 n=c6 v=73
175240 Par ch=1 c=64 v=63
175272 Par ch=1 c=64 v=127
175394 On ch=1 n=c6 v=0
175400 On ch=1 n=a5 v=0
175436 On ch=1 n=e6 v=0
175444 On ch=1 n=f#5 v=0
175572 On ch=1 n=f#6 v=103
175576 On ch=1 n=a5 v=68
175588 On ch=1 n=d5 v=55
175598 On ch=1 n=d6 v=81
175734 On ch=1 n=a5 v=0
175942 On ch=1 n=f#6 v=0
175944 On ch=1 n=g6 v=86
175946 On ch=1 n=e6 v=85
175958 On ch=1 n=d6 v=0
175958 On ch=1 n=b5 v=48
175964 On ch=1 n=g5 v=57
176008 On ch=1 n=d5 v=0
176106 Par ch=1 c=64 v=63
176122 Par ch=1 c=64 v=0
176176 Par ch=1 c=64 v=63
176210 Par ch=1 c=64 v=127
176300 On ch=1 n=g6 v=0
176388 On ch=1 n=f#6 v=92
176406 On ch=1 n=g5 v=0
176412 On ch=1 n=b5 v=0
176492 On ch=1 n=d6 v=88
176544 On ch=1 n=b5 v=54
176556 On ch=1 n=g5 v=55
176576 On ch=1 n=e6 v=0
176582 On ch=1 n=f#6 v=0
176702 On ch=1 n=b5 v=0
176838 On ch=1 n=g5 v=0
176880 On ch=1 n=c#6 v=79
176880 On ch=1 n=f#6 v=90
176886 On ch=1 n=a5 v=63
176904 On ch=1 n=b4 v=24
176918 On ch=1 n=d6 v=0
177058 Par ch=1 c=64 v=63
177086 Par ch=1 c=64 v=0
177796 Par ch=1 c=64 v=63
177798 Par ch=1 c=64 v=127
178038 On ch=1 n=b4 v=0
178040 On ch=1 n=a5 v=0
178076 On ch=1 n=f#6 v=0
178150 On ch=1 n=c#6 v=0
178200 On ch=1 n=a6 v=54
178282 On ch=1 n=a6 v=0
178294 On ch=1 n=f#6 v=77
178294 On ch=1 n=a5 v=49
178296 On ch=1 n=c#6 v=74
178298 On ch=1 n=b4 v=43
178362 On ch=1 n=a5 v=0
178370 On ch=1 n=c#6 v=0
178376 On ch=1 n=f#6 v=0
178396 On ch=1 n=b4 v=0
178600 On ch=1 n=f#5 v=60
178608 On ch=1 n=d6 v=71
178622 Par ch=1 c=64 v=63
178626 On ch=1 n=b4 v=36
178632 On ch=1 n=a5 v=51
178634 Par ch=1 c=64 v=0
178720 Par ch=1 c=64 v=63
178748 Par ch=1 c=64 v=127
178816 On ch=1 n=a5 v=0
178820 On ch=1 n=b4 v=0
178838 On ch=1 n=f#5 v=0
178854 On ch=1 n=d6 v=0
179076 On ch=1 n=b4 v=59
179080 On ch=1 n=a5 v=54
179080 On ch=1 n=f#6 v=72
179094 On ch=1 n=c#6 v=76
179154 On ch=1 n=c#6 v=0
179154 On ch=1 n=a5 v=0
179172 On ch=1 n=b4 v=0
179192 On ch=1 n=f#6 v=0
179340 Par ch=1 c=64 v=63
179356 Par ch=1 c=64 v=0
179366 On ch=1 n=b5 v=64
179372 On ch=1 n=e6 v=82
179376 On ch=1 n=g#5 v=70
179398 Par ch=1 c=64 v=63
179444 Par ch=1 c=64 v=127
179482 On ch=1 n=b5 v=0
179498 On ch=1 n=g#5 v=0
179512 On ch=1 n=e6 v=0
179528 On ch=1 n=f#6 v=80
179614 On ch=1 n=f#6 v=0
179622 On ch=1 n=e6 v=52
179628 On ch=1 n=e5 v=46
179646 On ch=1 n=g#5 v=64
179702 On ch=1 n=g#5 v=0
179702 On ch=1 n=f#6 v=90
179706 On ch=1 n=e5 v=0
179710 On ch=1 n=e6 v=0
179782 On ch=1 n=g#5 v=58
179782 On ch=1 n=e6 v=71
179802 On ch=1 n=f#6 v=0
179832 On ch=1 n=b4 v=57
179840 On ch=1 n=g#5 v=0
179850 On ch=1 n=f#6 v=95
179874 On ch=1 n=e6 v=0
179900 On ch=1 n=b4 v=0
179946 On ch=1 n=g#5 v=36
179952 On ch=1 n=f#6 v=0
179968 On ch=1 n=e6 v=43
180016 On ch=1 n=g#5 v=0
180018 On ch=1 n=f#6 v=85
180020 Par ch=1 c=64 v=63
180030 Par ch=1 c=64 v=0
180044 On ch=1 n=e6 v=0
180104 On ch=1 n=e6 v=84
180134 On ch=1 n=g#5 v=17
180136 On ch=1 n=f#6 v=0
180152 Par ch=1 c=64 v=63
180172 On ch=1 n=e4 v=48
180172 Par ch=1 c=64 v=127
180340 On ch=1 n=g#5 v=0
180348 On ch=1 n=e6 v=0
180360 On ch=1 n=e4 v=0
180570 Par ch=1 c=64 v=63
180624 Par ch=1 c=64 v=0
180684 On ch=1 n=f#6 v=83
180700 On ch=1 n=d6 v=61
180750 On ch=1 n=d6 v=0
180752 On ch=1 n=f#6 v=0
181108 On ch=1 n=f#6 v=71
181112 On ch=1 n=b5 v=40
181120 On ch=1 n=d6 v=65
181122 Par ch=1 c=64 v=63
181142 Par ch=1 c=64 v=127
181156 On ch=1 n=f#6 v=0
181160 On ch=1 n=g6 v=73
181218 On ch=1 n=f#6 v=81
181268 On ch=1 n=g6 v=0
181306 On ch=1 n=d6 v=0
181474 On ch=1 n=b5 v=0
181500 On ch=1 n=f#6 v=0
181534 Par ch=1 c=64 v=63
181580 Par ch=1 c=64 v=0
181612 On ch=1 n=a5 v=52
181614 On ch=1 n=c#6 v=72
181618 On ch=1 n=e6 v=68
181678 On ch=1 n=a5 v=0
181704 On ch=1 n=c#6 v=0
181712 On ch=1 n=e6 v=0
181896 Par ch=1 c=64 v=63
181908 On ch=1 n=f#6 v=77
181924 On ch=1 n=d6 v=60
181926 On ch=1 n=g5 v=58
181928 Par ch=1 c=64 v=127
182036 On ch=1 n=g5 v=0
182050 On ch=1 n=d6 v=0
182050 On ch=1 n=f#6 v=0
182308 Par ch=1 c=64 v=63
182348 Par ch=1 c=64 v=0
182370 On ch=1 n=b6 v=71
182374 On ch=1 n=f#5 v=76
182376 On ch=1 n=c#6 v=68
182392 On ch=1 n=e6 v=49
182434 On ch=1 n=f#5 v=0
182444 On ch=1 n=c#6 v=0
182450 On ch=1 n=e6 v=0
182460 On ch=1 n=b6 v=0
182678 On ch=1 n=b6 v=67
182682 Par ch=1 c=64 v=63
182704 Par ch=1 c=64 v=127
182704 On ch=1 n=f#5 v=70
182706 On ch=1 n=c#6 v=46
182712 On ch=1 n=e6 v=57
182786 On ch=1 n=f#5 v=0
182852 On ch=1 n=c#6 v=0
182958 On ch=1 n=e6 v=0
183090 On ch=1 n=b6 v=0
183224 On ch=1 n=a6 v=69
183232 On ch=1 n=c#6 v=44
183244 On ch=1 n=e6 v=51
183310 On ch=1 n=e6 v=0
183316 On ch=1 n=c#6 v=0
183336 On ch=1 n=a6 v=0
183592 On ch=1 n=c#7 v=78
183594 On ch=1 n=f#7 v=69
183606 On ch=1 n=f#6 v=51
183618 On ch=1 n=d6 v=36
183664 On ch=1 n=f#7 v=0
183734 On ch=1 n=c#7 v=0
183740 On ch=1 n=f#6 v=0
183804 On ch=1 n=d6 v=0
184140 On ch=1 n=f#6 v=90
184148 On ch=1 n=c#6 v=80
184156 On ch=1 n=d6 v=60
184190 On ch=1 n=c#6 v=0
184204 On ch=1 n=d6 v=0
184214 On ch=1 n=f#6 v=0
184450 On ch=1 n=f#6 v=63
184458 On ch=1 n=d6 v=65
184464 On ch=1 n=b5 v=69
184464 Par ch=1 c=64 v=63
184478 Par ch=1 c=64 v=0
184496 On ch=1 n=f#6 v=0
184518 On ch=1 n=g6 v=70
184574 On ch=1 n=f#6 v=58
184628 Par ch=1 c=64 v=63
184644 On ch=1 n=g6 v=0
184650 Par ch=1 c=64 v=127
184716 On ch=1 n=d6 v=0
184826 On ch=1 n=b5 v=0
184890 On ch=1 n=f#6 v=0
184954 On ch=1 n=a5 v=52
184954 On ch=1 n=c#6 v=76
184956 On ch=1 n=e6 v=80
185024 On ch=1 n=a5 v=0
185038 Par ch=1 c=64 v=63
185042 On ch=1 n=c#6 v=0
185052 On ch=1 n=e6 v=0
185070 Par ch=1 c=64 v=0
185218 Par ch=1 c=64 v=63
185250 On ch=1 n=f#6 v=79
185258 Par ch=1 c=64 v=127
185258 On ch=1 n=d6 v=64
185262 On ch=1 n=g5 v=65
185358 On ch=1 n=g5 v=0
185360 On ch=1 n=d6 v=0
185362 On ch=1 n=f#6 v=0
185684 On ch=1 n=b6 v=82
185690 On ch=1 n=f#5 v=80
185698 On ch=1 n=c#6 v=70
185710 On ch=1 n=e6 v=56
185754 On ch=1 n=e6 v=0
185760 On ch=1 n=c#6 v=0
185766 On ch=1 n=b6 v=0
185770 On ch=1 n=f#5 v=0
185972 Par ch=1 c=64 v=63
186002 On ch=1 n=a6 v=90
186002 Par ch=1 c=64 v=0
186014 On ch=1 n=e5 v=48
186018 On ch=1 n=d6 v=64
186034 On ch=1 n=b5 v=45
186148 Par ch=1 c=64 v=63
186172 Par ch=1 c=64 v=127
186270 On ch=1 n=a6 v=0
186310 On ch=1 n=f#6 v=97
186396 On ch=1 n=d6 v=0
186444 On ch=1 n=b5 v=0
186480 Par ch=1 c=64 v=63
186506 Par ch=1 c=64 v=127
186516 On ch=1 n=e5 v=0
186550 On ch=1 n=g6 v=96
186560 On ch=1 n=f#6 v=0
186582 On ch=1 n=d6 v=65
186582 On ch=1 n=b5 v=44
186626 On ch=1 n=d6 v=0
186630 On ch=1 n=b5 v=0
186644 On ch=1 n=g6 v=0
186684 On ch=1 n=a4 v=64
186762 On ch=1 n=a4 v=0
186896 On ch=1 n=e6 v=57
186926 On ch=1 n=a6 v=69
186932 On ch=1 n=e7 v=97
186932 On ch=1 n=c#6 v=88
186984 On ch=1 n=e6 v=0
186996 On ch=1 n=c#6 v=0
187002 On ch=1 n=a6 v=0
187034 On ch=1 n=e7 v=0
187524 On ch=1 n=e6 v=82
187530 On ch=1 n=c6 v=71
187546 On ch=1 n=b5 v=26
187582 On ch=1 n=c6 v=0
187604 On ch=1 n=e6 v=0
187852 On ch=1 n=e6 v=85
187862 On ch=1 n=b5 v=0
187866 On ch=1 n=c6 v=68
187866 On ch=1 n=a5 v=57
187896 On ch=1 n=e6 v=0
187898 Par ch=1 c=64 v=63
187908 On ch=1 n=f#6 v=82
187928 Par ch=1 c=64 v=0
187976 On ch=1 n=e6 v=71
188072 On ch=1 n=f#6 v=0
188080 Par ch=1 c=64 v=63
188108 Par ch=1 c=64 v=127
188226 On ch=1 n=c6 v=0
188358 On ch=1 n=g5 v=71
188362 On ch=1 n=d6 v=101
188372 On ch=1 n=b5 v=87
188390 On ch=1 n=a5 v=0
188444 On ch=1 n=e6 v=0
188494 On ch=1 n=b5 v=0
188654 On ch=1 n=e6 v=108
188662 On ch=1 n=a5 v=71
188664 On ch=1 n=f#5 v=76
188668 On ch=1 n=c6 v=82
188702 On ch=1 n=g5 v=0
188706 On ch=1 n=d6 v=0
188764 Par ch=1 c=64 v=63
188788 Par ch=1 c=64 v=0
188908 Par ch=1 c=64 v=63
188928 Par ch=1 c=64 v=127
189084 On ch=1 n=a5 v=0
189180 On ch=1 n=f#6 v=98
189190 On ch=1 n=c6 v=0
189202 On ch=1 n=d6 v=75
189204 On ch=1 n=a5 v=59
189212 On ch=1 n=d5 v=46
189236 On ch=1 n=e6 v=0
189288 On ch=1 n=f#5 v=0
189316 Par ch=1 c=64 v=63
189398 Par ch=1 c=64 v=127
189446 On ch=1 n=a5 v=0
189574 On ch=1 n=b5 v=64
189576 On ch=1 n=g6 v=77
189584 On ch=1 n=f#6 v=0
189584 On ch=1 n=e6 v=73
189596 On ch=1 n=d5 v=0
189596 On ch=1 n=g5 v=40
189598 On ch=1 n=d6 v=0
189660 Par ch=1 c=64 v=63
189684 Par ch=1 c=64 v=0
189800 Par ch=1 c=64 v=63
189822 Par ch=1 c=64 v=127
189904 On ch=1 n=g6 v=0
189982 On ch=1 n=g5 v=0
189992 On ch=1 n=b5 v=0
190012 On ch=1 n=f#6 v=79
190044 On ch=1 n=e6 v=0
190098 On ch=1 n=d6 v=74
190132 On ch=1 n=b5 v=38
190136 On ch=1 n=g5 v=45
190162 On ch=1 n=f#6 v=0
190290 On ch=1 n=b5 v=0
190426 On ch=1 n=d6 v=0
190444 On ch=1 n=g5 v=0
190446 On ch=1 n=f#6 v=76
190454 On ch=1 n=c#6 v=64
190454 On ch=1 n=a5 v=50
190456 On ch=1 n=b4 v=49
190596 Par ch=1 c=64 v=63
190626 Par ch=1 c=64 v=0
191408 Par ch=1 c=64 v=63
191410 Par ch=1 c=64 v=127
191662 On ch=1 n=b4 v=0
191664 On ch=1 n=a5 v=0
191674 On ch=1 n=f#6 v=0
191686 On ch=1 n=c#6 v=0
191832 On ch=1 n=a6 v=45
191914 On ch=1 n=f#6 v=71
191922 On ch=1 n=a6 v=0
191926 On ch=1 n=b4 v=49
191930 On ch=1 n=c#6 v=78
191932 On ch=1 n=a5 v=46
191938 Par ch=1 c=64 v=63
191950 Par ch=1 c=64 v=0
192000 On ch=1 n=f#6 v=0
192006 On ch=1 n=c#6 v=0
192008 On ch=1 n=a5 v=0
192038 On ch=1 n=b4 v=0
192230 On ch=1 n=f#5 v=68
192232 On ch=1 n=d6 v=66
192250 On ch=1 n=a5 v=47
192252 On ch=1 n=b4 v=45
192282 Par ch=1 c=64 v=63
192286 Par ch=1 c=64 v=127
192314 On ch=1 n=f#5 v=0
192322 On ch=1 n=a5 v=0
192332 On ch=1 n=b4 v=0
192344 On ch=1 n=d6 v=0
192706 On ch=1 n=f#6 v=68
192716 On ch=1 n=b4 v=49
192716 On ch=1 n=a5 v=41
192718 On ch=1 n=c#6 v=74
192760 Par ch=1 c=64 v=63
192770 On ch=1 n=c#6 v=0
192784 Par ch=1 c=64 v=0
192794 On ch=1 n=a5 v=0
192808 On ch=1 n=b4 v=0
192814 On ch=1 n=f#6 v=0
192928 Par ch=1 c=64 v=63
192958 Par ch=1 c=64 v=127
192994 On ch=1 n=b5 v=62
193006 On ch=1 n=e6 v=81
193016 On ch=1 n=g#5 v=66
193096 On ch=1 n=b5 v=0
193108 On ch=1 n=g#5 v=0
193152 On ch=1 n=e6 v=0
193196 On ch=1 n=f#6 v=79
193290 On ch=1 n=f#6 v=0
193292 On ch=1 n=e5 v=24
193296 On ch=1 n=e6 v=71
193312 On ch=1 n=g#5 v=56
193356 On ch=1 n=g#5 v=0
193378 On ch=1 n=f#6 v=87
193380 On ch=1 n=e5 v=0
193388 On ch=1 n=e6 v=0
193446 On ch=1 n=e6 v=83
193456 On ch=1 n=g#5 v=58
193460 On ch=1 n=b4 v=58
193466 On ch=1 n=f#6 v=0
193516 On ch=1 n=f#6 v=98
193520 On ch=1 n=g#5 v=0
193524 On ch=1 n=b4 v=0
193530 On ch=1 n=e6 v=0
193598 On ch=1 n=e6 v=84
193600 On ch=1 n=g#5 v=57
193618 On ch=1 n=f#6 v=0
193632 Par ch=1 c=64 v=63
193644 Par ch=1 c=64 v=0
193670 On ch=1 n=g#5 v=0
193690 On ch=1 n=f#6 v=85
193706 On ch=1 n=e6 v=0
193762 On ch=1 n=e6 v=87
193766 On ch=1 n=e4 v=61
193776 Par ch=1 c=64 v=63
193780 On ch=1 n=g#5 v=42
193790 On ch=1 n=f#6 v=0
193794 Par ch=1 c=64 v=127
193874 On ch=1 n=e6 v=0
193896 On ch=1 n=g#5 v=0
193910 On ch=1 n=e4 v=0
194212 Par ch=1 c=64 v=63
194246 Par ch=1 c=64 v=0
194258 On ch=1 n=b6 v=73
194282 On ch=1 n=g6 v=34
194302 On ch=1 n=b6 v=0
194324 On ch=1 n=g6 v=0
194584 On ch=1 n=b6 v=83
194584 On ch=1 n=e6 v=52
194588 On ch=1 n=g6 v=57
194608 Par ch=1 c=64 v=63
194624 Par ch=1 c=64 v=127
194640 On ch=1 n=g6 v=0
194646 On ch=1 n=c#7 v=85
194660 On ch=1 n=b6 v=0
194716 On ch=1 n=c#7 v=0
194720 On ch=1 n=b6 v=65
194730 On ch=1 n=g6 v=41
194800 On ch=1 n=b6 v=0
194828 On ch=1 n=g6 v=0
195012 On ch=1 n=e6 v=0
195060 Par ch=1 c=64 v=63
195074 On ch=1 n=f#6 v=69
195078 On ch=1 n=a6 v=55
195082 Par ch=1 c=64 v=0
195144 On ch=1 n=a6 v=0
195150 On ch=1 n=f#6 v=0
195368 On ch=1 n=b6 v=75
195380 On ch=1 n=e6 v=57
195382 On ch=1 n=g6 v=63
195396 Par ch=1 c=64 v=63
195408 Par ch=1 c=64 v=127
195442 On ch=1 n=g6 v=0
195468 On ch=1 n=b6 v=0
195486 On ch=1 n=e6 v=0
195848 On ch=1 n=c#7 v=88
195870 Par ch=1 c=64 v=63
195870 On ch=1 n=a6 v=66
195892 Par ch=1 c=64 v=0
195924 On ch=1 n=a6 v=0
195944 On ch=1 n=c#7 v=0
196144 Par ch=1 c=64 v=63
196154 On ch=1 n=d7 v=73
196160 On ch=1 n=b6 v=66
196164 Par ch=1 c=64 v=127
196168 On ch=1 n=e6 v=55
196178 On ch=1 n=g6 v=45
196336 On ch=1 n=d7 v=0
196386 On ch=1 n=b6 v=0
196404 On ch=1 n=g6 v=0
196524 On ch=1 n=e6 v=0
196524 On ch=1 n=c#7 v=84
196602 Par ch=1 c=64 v=63
196612 On ch=1 n=a6 v=73
196614 Par ch=1 c=64 v=0
196636 On ch=1 n=f#6 v=70
196658 On ch=1 n=c#7 v=0
196730 On ch=1 n=a6 v=0
196738 On ch=1 n=f#6 v=0
196928 On ch=1 n=e6 v=54
196932 On ch=1 n=c#7 v=70
196940 On ch=1 n=f#6 v=49
196946 On ch=1 n=a6 v=61
196952 Par ch=1 c=64 v=63
196962 Par ch=1 c=64 v=127
197060 On ch=1 n=f#6 v=0
197068 On ch=1 n=c#7 v=0
197078 On ch=1 n=a6 v=0
197182 On ch=1 n=e6 v=0
197422 On ch=1 n=b6 v=76
197422 Par ch=1 c=64 v=63
197426 On ch=1 n=g6 v=69
197442 Par ch=1 c=64 v=0
197480 On ch=1 n=g6 v=0
197492 On ch=1 n=b6 v=0
197706 On ch=1 n=b6 v=76
197720 On ch=1 n=g6 v=67
197728 On ch=1 n=e6 v=64
197744 On ch=1 n=c#7 v=90
197746 On ch=1 n=b6 v=0
197746 Par ch=1 c=64 v=63
197756 Par ch=1 c=64 v=127
197814 On ch=1 n=b6 v=68
197842 On ch=1 n=c#7 v=0
198028 On ch=1 n=g6 v=0
198056 On ch=1 n=b6 v=0
198208 On ch=1 n=e6 v=0
198214 Par ch=1 c=64 v=63
198224 On ch=1 n=a6 v=74
198228 On ch=1 n=f#6 v=62
198232 Par ch=1 c=64 v=0
198302 On ch=1 n=f#6 v=0
198338 On ch=1 n=a6 v=0
198508 On ch=1 n=b6 v=71
198524 On ch=1 n=g6 v=59
198528 On ch=1 n=e6 v=63
198534 Par ch=1 c=64 v=63
198546 Par ch=1 c=64 v=127
198624 On ch=1 n=e6 v=0
198668 On ch=1 n=g6 v=0
198678 On ch=1 n=b6 v=0
198988 On ch=1 n=c#7 v=80
199000 On ch=1 n=a6 v=59
199010 On ch=1 n=f#6 v=57
199010 On ch=1 n=a5 v=38
199142 On ch=1 n=a6 v=0
199154 On ch=1 n=f#6 v=0
199264 On ch=1 n=c#7 v=0
199278 On ch=1 n=d5 v=63
199288 On ch=1 n=d7 v=92
199302 Par ch=1 c=64 v=63
199306 On ch=1 n=f6 v=71
199322 Par ch=1 c=64 v=0
199324 On ch=1 n=a6 v=69
199342 On ch=1 n=a5 v=0
199420 Par ch=1 c=64 v=63
199438 Par ch=1 c=64 v=127
199490 On ch=1 n=f6 v=0
199508 On ch=1 n=a6 v=0
199518 On ch=1 n=d7 v=0
199524 On ch=1 n=a5 v=72
199696 On ch=1 n=d5 v=0
199748 On ch=1 n=e7 v=92
199760 On ch=1 n=d7 v=76
199762 On ch=1 n=a6 v=64
199764 On ch=1 n=a5 v=0
199778 On ch=1 n=d6 v=68
199874 On ch=1 n=d6 v=0
199894 On ch=1 n=a6 v=0
199934 On ch=1 n=d7 v=0
200052 On ch=1 n=e7 v=0
200078 On ch=1 n=a6 v=65
200078 On ch=1 n=f7 v=82
200086 On ch=1 n=d7 v=71
200154 On ch=1 n=a6 v=0
200186 On ch=1 n=d7 v=0
200206 On ch=1 n=f7 v=0
200580 On ch=1 n=f7 v=80
200598 On ch=1 n=a6 v=47
200600 On ch=1 n=c7 v=55
200642 On ch=1 n=c7 v=0
200650 On ch=1 n=a6 v=0
200652 On ch=1 n=f7 v=0
200872 On ch=1 n=f7 v=87
200890 On ch=1 n=a6 v=68
200894 On ch=1 n=d6 v=63
200894 On ch=1 n=c7 v=78
200922 On ch=1 n=e7 v=96
200954 On ch=1 n=f7 v=0
200956 Par ch=1 c=64 v=63
200970 Par ch=1 c=64 v=0
201008 On ch=1 n=f7 v=97
201032 On ch=1 n=e7 v=0
201184 Par ch=1 c=64 v=63
201200 Par ch=1 c=64 v=127
201310 On ch=1 n=f7 v=0
201322 On ch=1 n=c7 v=0
201336 On ch=1 n=a6 v=0
201442 On ch=1 n=e7 v=98
201446 On ch=1 n=d6 v=0
201458 On ch=1 n=b6 v=76
201462 On ch=1 n=g6 v=61
201512 On ch=1 n=g6 v=0
201522 On ch=1 n=b6 v=0
201536 On ch=1 n=e7 v=0
201738 On ch=1 n=f7 v=94
201742 Par ch=1 c=64 v=63
201748 On ch=1 n=g5 v=52
201758 On ch=1 n=c7 v=71
201760 On ch=1 n=a6 v=63
201762 Par ch=1 c=64 v=0
201856 Par ch=1 c=64 v=63
201878 Par ch=1 c=64 v=127
202028 On ch=1 n=f7 v=0
202058 On ch=1 n=a6 v=0
202236 On ch=1 n=g7 v=96
202242 On ch=1 n=c7 v=0
202256 On ch=1 n=d7 v=76
202258 On ch=1 n=b6 v=59
202346 On ch=1 n=b6 v=0
202392 On ch=1 n=g7 v=0
202478 On ch=1 n=g5 v=0
202506 On ch=1 n=d7 v=0
202546 On ch=1 n=e7 v=92
202550 On ch=1 n=c6 v=68
202558 On ch=1 n=g6 v=65
202564 On ch=1 n=c7 v=76
202608 Par ch=1 c=64 v=63
202624 Par ch=1 c=64 v=0
202726 Par ch=1 c=64 v=63
202748 Par ch=1 c=64 v=127
202928 On ch=1 n=c7 v=0
202946 On ch=1 n=g6 v=0
203046 On ch=1 n=f7 v=103
203052 On ch=1 n=d6 v=88
203066 On ch=1 n=g6 v=59
203072 On ch=1 n=c7 v=65
203092 On ch=1 n=e7 v=0
203110 On ch=1 n=c6 v=0
203162 On ch=1 n=g6 v=0
203186 On ch=1 n=f7 v=0
203202 On ch=1 n=c7 v=0
203368 On ch=1 n=g7 v=80
203384 On ch=1 n=e6 v=39
203402 On ch=1 n=g6 v=23
203434 On ch=1 n=c7 v=11
203436 On ch=1 n=d6 v=0
203472 Par ch=1 c=64 v=63
203490 Par ch=1 c=64 v=0
203592 Par ch=1 c=64 v=63
203612 Par ch=1 c=64 v=127
203688 On ch=1 n=g7 v=0
203738 On ch=1 n=g6 v=0
203790 On ch=1 n=e6 v=0
203800 On ch=1 n=c7 v=0
203908 On ch=1 n=c7 v=84
203910 On ch=1 n=f6 v=71
203914 On ch=1 n=a6 v=71
203994 On ch=1 n=a6 v=0
204004 On ch=1 n=c7 v=0
204024 On ch=1 n=f6 v=0
204286 On ch=1 n=c7 v=97
204304 On ch=1 n=f6 v=63
204312 On ch=1 n=a6 v=71
204334 Par ch=1 c=64 v=63
204352 Par ch=1 c=64 v=0
204360 On ch=1 n=c7 v=0
204370 On ch=1 n=b6 v=69
204422 On ch=1 n=b6 v=0
204426 On ch=1 n=c7 v=69
204542 Par ch=1 c=64 v=63
204580 Par ch=1 c=64 v=127
204658 On ch=1 n=a6 v=0
204690 On ch=1 n=f6 v=0
204772 On ch=1 n=c7 v=0
204792 On ch=1 n=d7 v=91
204818 On ch=1 n=f6 v=56
204900 On ch=1 n=d7 v=0
204904 On ch=1 n=f6 v=0
204994 On ch=1 n=c7 v=71
205018 Par ch=1 c=64 v=63
205036 Par ch=1 c=64 v=0
205044 On ch=1 n=b6 v=86
205044 On ch=1 n=g6 v=44
205052 On ch=1 n=c7 v=0
205102 On ch=1 n=b6 v=0
205118 On ch=1 n=c7 v=89
205152 Par ch=1 c=64 v=63
205178 Par ch=1 c=64 v=127
205188 On ch=1 n=c7 v=0
205188 On ch=1 n=b6 v=65
205494 On ch=1 n=g6 v=0
205496 On ch=1 n=b6 v=0
205502 On ch=1 n=a6 v=80
205588 On ch=1 n=b6 v=58
205592 On ch=1 n=a6 v=0
205606 On ch=1 n=g6 v=55
205640 Par ch=1 c=64 v=63
205672 Par ch=1 c=64 v=0
205778 On ch=1 n=g6 v=0
205914 On ch=1 n=b6 v=0
205930 On ch=1 n=e6 v=54
205930 On ch=1 n=g6 v=49
205934 On ch=1 n=c7 v=75
205954 On ch=1 n=c6 v=48
206010 Par ch=1 c=64 v=63
206036 Par ch=1 c=64 v=127
206214 On ch=1 n=g6 v=0
206322 On ch=1 n=e6 v=0
206364 On ch=1 n=c6 v=0
206366 On ch=1 n=d7 v=70
206394 On ch=1 n=c7 v=0
206456 On ch=1 n=e7 v=88
206488 On ch=1 n=d7 v=0
206540 On ch=1 n=e7 v=0
206856 On ch=1 n=f#7 v=70
206870 On ch=1 n=c#6 v=51
206876 Par ch=1 c=67 v=127
206880 On ch=1 n=f#5 v=43
206888 On ch=1 n=c#7 v=63
206892 On ch=1 n=a#6 v=52
206930 Par ch=1 c=64 v=63
206948 Par ch=1 c=64 v=0
207054 Par ch=1 c=64 v=63
207076 Par ch=1 c=64 v=127
207226 On ch=1 n=a#6 v=0
207244 On ch=1 n=f#7 v=0
207252 On ch=1 n=c#7 v=0
207292 On ch=1 n=f#5 v=0
207346 On ch=1 n=c#6 v=0
207450 Par ch=1 c=64 v=63
207474 Par ch=1 c=64 v=127
207490 On ch=1 n=f#7 v=73
207508 On ch=1 n=a#6 v=50
207542 On ch=1 n=c#7 v=40
207716 On ch=1 n=a#6 v=0
207720 On ch=1 n=f#7 v=0
207728 On ch=1 n=c#7 v=0
207794 On ch=1 n=f#6 v=65
207852 On ch=1 n=f#6 v=0
207870 On ch=1 n=g6 v=61
207890 On ch=1 n=f#7 v=84
207902 On ch=1 n=a#6 v=72
207910 On ch=1 n=c#7 v=63
207948 On ch=1 n=f#6 v=70
207988 On ch=1 n=g6 v=0
208008 On ch=1 n=a#6 v=0
208036 On ch=1 n=c#7 v=0
208078 On ch=1 n=f#7 v=0
208278 On ch=1 n=f#6 v=0
208358 On ch=1 n=e7 v=76
208370 On ch=1 n=c7 v=54
208372 On ch=1 n=a6 v=54
208456 On ch=1 n=c7 v=0
208476 On ch=1 n=a6 v=0
208562 On ch=1 n=e7 v=0
208658 On ch=1 n=f#7 v=86
208670 On ch=1 n=a#6 v=70
208672 On ch=1 n=f#6 v=57
208680 On ch=1 n=c#7 v=67
208758 On ch=1 n=c#7 v=0
208766 On ch=1 n=f#6 v=0
208774 On ch=1 n=f#7 v=0
208776 On ch=1 n=a#6 v=0
209186 On ch=1 n=e7 v=71
209202 On ch=1 n=a6 v=52
209204 On ch=1 n=c7 v=59
209256 On ch=1 n=c7 v=0
209270 On ch=1 n=a6 v=0
209288 On ch=1 n=e7 v=0
209388 On ch=1 n=f#6 v=90
209414 Par ch=1 c=64 v=63
209436 Par ch=1 c=64 v=0
209444 Par ch=1 c=64 v=63
209464 On ch=1 n=f#6 v=0
209472 On ch=1 n=g6 v=65
209494 Par ch=1 c=64 v=127
209508 On ch=1 n=e7 v=62
209524 On ch=1 n=a6 v=41
209524 On ch=1 n=c7 v=60
209556 On ch=1 n=f#6 v=67
209590 On ch=1 n=g6 v=0
209654 On ch=1 n=e7 v=0
209668 On ch=1 n=c7 v=0
209678 On ch=1 n=a6 v=0
209752 On ch=1 n=f#6 v=0
209996 On ch=1 n=d7 v=77
210006 On ch=1 n=b6 v=68
210010 On ch=1 n=f#6 v=58
210102 On ch=1 n=f#6 v=0
210116 On ch=1 n=b6 v=0
210116 On ch=1 n=d7 v=0
210304 On ch=1 n=f#6 v=54
210308 On ch=1 n=a6 v=47
210310 On ch=1 n=e7 v=56
210324 On ch=1 n=c7 v=60
210424 On ch=1 n=f#6 v=0
210430 On ch=1 n=a6 v=0
210436 On ch=1 n=e7 v=0
210442 On ch=1 n=c7 v=0
210800 On ch=1 n=d7 v=83
210802 On ch=1 n=b6 v=74
210906 On ch=1 n=b6 v=0
210916 On ch=1 n=f#6 v=84
210920 On ch=1 n=d7 v=0
210994 On ch=1 n=g6 v=75
211002 On ch=1 n=f#6 v=0
211006 Par ch=1 c=64 v=63
211024 Par ch=1 c=64 v=0
211080 Par ch=1 c=64 v=63
211088 On ch=1 n=f#6 v=67
211112 On ch=1 n=g6 v=0
211118 Par ch=1 c=64 v=127
211120 On ch=1 n=d7 v=86
211124 On ch=1 n=b6 v=71
211320 On ch=1 n=b6 v=0
211374 On ch=1 n=f#6 v=0
211524 On ch=1 n=d7 v=0
211606 On ch=1 n=c7 v=76
211624 On ch=1 n=e6 v=55
211630 On ch=1 n=a6 v=45
211708 On ch=1 n=a6 v=0
211718 On ch=1 n=e6 v=0
211860 On ch=1 n=c7 v=0
211930 On ch=1 n=d7 v=68
211930 On ch=1 n=b6 v=63
211934 On ch=1 n=f#6 v=55
212048 On ch=1 n=f#6 v=0
212068 On ch=1 n=b6 v=0
212068 On ch=1 n=d7 v=0
212440 On ch=1 n=c7 v=83
212460 On ch=1 n=e6 v=71
212548 On ch=1 n=c7 v=0
212556 On ch=1 n=e6 v=0
212582 On ch=1 n=f#6 v=80
212658 On ch=1 n=f#6 v=0
212664 On ch=1 n=g6 v=61
212700 Par ch=1 c=64 v=63
212722 Par ch=1 c=64 v=0
212746 On ch=1 n=f#6 v=60
212754 On ch=1 n=b6 v=79
212760 Par ch=1 c=64 v=63
212780 On ch=1 n=d6 v=65
212782 On ch=1 n=g6 v=0
212798 Par ch=1 c=64 v=127
212920 On ch=1 n=b6 v=0
212988 On ch=1 n=d6 v=0
213108 On ch=1 n=f#6 v=0
213216 On ch=1 n=a6 v=82
213236 On ch=1 n=c6 v=63
213240 On ch=1 n=e6 v=68
213298 On ch=1 n=a6 v=0
213312 On ch=1 n=e6 v=0
213328 On ch=1 n=c6 v=0
213574 On ch=1 n=f#6 v=45
213588 On ch=1 n=a#5 v=60
213596 On ch=1 n=c#6 v=63
213600 Par ch=1 c=64 v=63
213616 Par ch=1 c=64 v=0
213686 Par ch=1 c=64 v=63
213720 Par ch=1 c=64 v=127
213784 On ch=1 n=a#5 v=0
213826 On ch=1 n=f#6 v=0
213828 On ch=1 n=c#6 v=0
214138 On ch=1 n=f#7 v=87
214152 On ch=1 n=c#7 v=74
214222 On ch=1 n=c#7 v=0
214242 On ch=1 n=f#7 v=0
214348 Par ch=1 c=64 v=63
214368 Par ch=1 c=64 v=0
214464 On ch=1 n=f#6 v=69
214516 On ch=1 n=f#7 v=89
214530 On ch=1 n=f#6 v=0
214538 On ch=1 n=c#7 v=63
214552 On ch=1 n=g6 v=63
214554 Par ch=1 c=64 v=63
214560 Par ch=1 c=64 v=127
214612 On ch=1 n=f#6 v=69
214622 On ch=1 n=c#7 v=0
214630 On ch=1 n=g6 v=0
214702 On ch=1 n=f#6 v=0
214834 On ch=1 n=f#5 v=86
214844 On ch=1 n=a#6 v=67
214876 On ch=1 n=f#5 v=0
214908 On ch=1 n=a#6 v=0
214946 On ch=1 n=f#7 v=0
215056 On ch=1 n=c7 v=68
215058 On ch=1 n=e7 v=73
215108 On ch=1 n=c7 v=0
215214 On ch=1 n=e7 v=0
215214 Par ch=1 c=64 v=63
215224 Par ch=1 c=64 v=0
215278 On ch=1 n=f#6 v=53
215290 On ch=1 n=f#7 v=84
215306 On ch=1 n=c#7 v=67
215336 Par ch=1 c=64 v=63
215352 Par ch=1 c=64 v=127
215430 On ch=1 n=f#6 v=0
215454 On ch=1 n=f#7 v=0
215520 On ch=1 n=c#7 v=0
215534 On ch=1 n=a#6 v=70
215536 On ch=1 n=f#5 v=84
215574 On ch=1 n=f#5 v=0
215626 On ch=1 n=a#6 v=0
215766 On ch=1 n=e7 v=76
215772 On ch=1 n=c7 v=63
215832 On ch=1 n=c7 v=0
215862 On ch=1 n=e7 v=0
215868 Par ch=1 c=64 v=63
215878 Par ch=1 c=64 v=0
215954 On ch=1 n=f#6 v=88
215990 Par ch=1 c=64 v=63
216000 On ch=1 n=e7 v=90
216002 Par ch=1 c=64 v=127
216014 On ch=1 n=c7 v=79
216014 On ch=1 n=g6 v=70
216026 On ch=1 n=f#6 v=0
216076 On ch=1 n=f#6 v=83
216090 On ch=1 n=g6 v=0
216092 On ch=1 n=e7 v=0
216096 On ch=1 n=c7 v=0
216146 On ch=1 n=f#6 v=0
216244 On ch=1 n=f#5 v=83
216270 On ch=1 n=f#6 v=72
216288 On ch=1 n=f#5 v=0
216344 On ch=1 n=f#6 v=0
216444 On ch=1 n=d7 v=74
216466 On ch=1 n=b6 v=71
216574 On ch=1 n=b6 v=0
216576 On ch=1 n=d7 v=0
216660 Par ch=1 c=64 v=63
216676 Par ch=1 c=64 v=0
216690 On ch=1 n=e7 v=72
216692 On ch=1 n=f#6 v=73
216696 On ch=1 n=c7 v=67
216720 Par ch=1 c=64 v=63
216748 Par ch=1 c=64 v=127
216774 On ch=1 n=f#6 v=0
216814 On ch=1 n=e7 v=0
216818 On ch=1 n=c7 v=0
216926 On ch=1 n=f#6 v=65
216940 On ch=1 n=f#5 v=72
216980 On ch=1 n=f#5 v=0
216980 On ch=1 n=f#6 v=0
217130 On ch=1 n=d7 v=84
217140 On ch=1 n=b6 v=74
217242 On ch=1 n=d7 v=0
217246 On ch=1 n=b6 v=0
217260 Par ch=1 c=64 v=63
217270 Par ch=1 c=64 v=0
217310 On ch=1 n=f#6 v=83
217354 Par ch=1 c=64 v=63
217372 Par ch=1 c=64 v=127
217376 On ch=1 n=g6 v=75
217394 On ch=1 n=f#6 v=0
217410 On ch=1 n=d7 v=94
217422 On ch=1 n=b6 v=77
217448 On ch=1 n=f#6 v=79
217460 On ch=1 n=g6 v=0
217528 On ch=1 n=f#6 v=0
217570 On ch=1 n=b6 v=0
217608 On ch=1 n=d7 v=0
217664 On ch=1 n=f#5 v=81
217672 On ch=1 n=e6 v=72
217716 On ch=1 n=f#5 v=0
217770 On ch=1 n=e6 v=0
217862 On ch=1 n=c7 v=80
217876 On ch=1 n=a6 v=76
217932 On ch=1 n=a6 v=0
217958 On ch=1 n=c7 v=0
218072 Par ch=1 c=64 v=63
218084 Par ch=1 c=64 v=0
218096 On ch=1 n=d7 v=83
218108 On ch=1 n=f#6 v=67
218112 On ch=1 n=b6 v=58
218150 Par ch=1 c=64 v=63
218178 Par ch=1 c=64 v=127
218200 On ch=1 n=f#6 v=0
218316 On ch=1 n=d7 v=0
218322 On ch=1 n=b6 v=0
218330 On ch=1 n=e6 v=64
218344 On ch=1 n=f#5 v=70
218384 On ch=1 n=f#5 v=0
218422 On ch=1 n=e6 v=0
218556 On ch=1 n=c7 v=82
218578 On ch=1 n=a6 v=57
218662 On ch=1 n=a6 v=0
218680 On ch=1 n=c7 v=0
218750 Par ch=1 c=64 v=63
218760 Par ch=1 c=64 v=0
218780 On ch=1 n=f#6 v=74
218816 Par ch=1 c=64 v=63
218844 Par ch=1 c=64 v=127
218850 On ch=1 n=g6 v=72
218858 On ch=1 n=f#6 v=0
218864 On ch=1 n=b6 v=82
218950 On ch=1 n=f#6 v=36
218952 On ch=1 n=g6 v=0
219032 On ch=1 n=f#6 v=0
219114 On ch=1 n=b6 v=0
219140 On ch=1 n=d6 v=48
219196 On ch=1 n=f#5 v=72
219240 On ch=1 n=f#5 v=0
219244 On ch=1 n=d6 v=0
219384 On ch=1 n=a6 v=77
219398 On ch=1 n=e6 v=67
219406 On ch=1 n=c6 v=51
219466 On ch=1 n=a6 v=0
219474 On ch=1 n=e6 v=0
219482 On ch=1 n=c6 v=0
219760 On ch=1 n=f#6 v=38
219772 On ch=1 n=a#5 v=46
219782 On ch=1 n=c#6 v=58
219848 Par ch=1 c=64 v=63
219862 Par ch=1 c=64 v=0
220002 Par ch=1 c=64 v=63
220022 Par ch=1 c=64 v=127
220102 On ch=1 n=a#5 v=0
220120 On ch=1 n=f#6 v=0
220124 On ch=1 n=c#6 v=0
220444 Par ch=1 c=67 v=0
220538 On ch=1 n=c#6 v=68
220560 On ch=1 n=f#6 v=84
220570 On ch=1 n=d6 v=66
220612 On ch=1 n=c#6 v=0
220618 On ch=1 n=f#6 v=0
220624 On ch=1 n=d6 v=0
220902 Par ch=1 c=64 v=63
220924 Par ch=1 c=64 v=0
220952 On ch=1 n=f#6 v=80
220956 On ch=1 n=b5 v=51
220970 On ch=1 n=d6 v=61
221002 On ch=1 n=f#6 v=0
221014 On ch=1 n=g6 v=77
221024 Par ch=1 c=64 v=63
221046 Par ch=1 c=64 v=127
221078 On ch=1 n=f#6 v=71
221120 On ch=1 n=g6 v=0
221174 On ch=1 n=d6 v=0
221410 On ch=1 n=f#6 v=0
221448 On ch=1 n=b5 v=0
221460 On ch=1 n=c#6 v=72
221464 On ch=1 n=e6 v=74
221476 On ch=1 n=a5 v=41
221510 Par ch=1 c=64 v=63
221538 Par ch=1 c=64 v=0
221540 On ch=1 n=c#6 v=0
221548 On ch=1 n=e6 v=0
221550 On ch=1 n=a5 v=0
221758 On ch=1 n=f#6 v=83
221772 On ch=1 n=d6 v=59
221790 Par ch=1 c=64 v=63
221796 On ch=1 n=g5 v=50
221804 Par ch=1 c=64 v=127
221896 On ch=1 n=d6 v=0
221920 On ch=1 n=f#6 v=0
221938 On ch=1 n=g5 v=0
222230 On ch=1 n=b6 v=82
222236 Par ch=1 c=64 v=63
222238 On ch=1 n=f#5 v=79
222246 On ch=1 n=c#6 v=61
222248 Par ch=1 c=64 v=0
222258 On ch=1 n=e6 v=50
222286 On ch=1 n=c#6 v=0
222288 On ch=1 n=f#5 v=0
222304 On ch=1 n=e6 v=0
222310 On ch=1 n=b6 v=0
222536 On ch=1 n=b6 v=71
222556 On ch=1 n=f#5 v=74
222560 Par ch=1 c=64 v=63
222562 On ch=1 n=e6 v=66
222562 Par ch=1 c=64 v=127
222566 On ch=1 n=c#6 v=51
222646 On ch=1 n=c#6 v=0
222690 On ch=1 n=e6 v=0
222698 On ch=1 n=b6 v=0
223058 On ch=1 n=f#5 v=0
223070 On ch=1 n=a6 v=78
223082 On ch=1 n=c#6 v=63
223082 On ch=1 n=e6 v=59
223130 On ch=1 n=e6 v=0
223146 On ch=1 n=c#6 v=0
223166 On ch=1 n=a6 v=0
223378 On ch=1 n=c#7 v=87
223390 On ch=1 n=f#6 v=72
223400 On ch=1 n=f#7 v=57
223402 On ch=1 n=d6 v=34
223476 On ch=1 n=f#6 v=0
223498 On ch=1 n=c#7 v=0
223516 On ch=1 n=d6 v=0
223864 On ch=1 n=f#6 v=88
223864 On ch=1 n=c#6 v=79
223884 On ch=1 n=d6 v=52
223910 On ch=1 n=c#6 v=0
223918 On ch=1 n=f#6 v=0
223932 On ch=1 n=d6 v=0
224002 On ch=1 n=f#7 v=0
224098 Par ch=1 c=64 v=63
224110 Par ch=1 c=64 v=0
224166 On ch=1 n=f#6 v=88
224172 On ch=1 n=b5 v=71
224182 On ch=1 n=d6 v=68
224230 On ch=1 n=f#6 v=0
224238 On ch=1 n=g6 v=75
224286 Par ch=1 c=64 v=63
224298 On ch=1 n=f#6 v=80
224306 Par ch=1 c=64 v=127
224372 On ch=1 n=g6 v=0
224382 On ch=1 n=d6 v=0
224562 On ch=1 n=b5 v=0
224570 On ch=1 n=f#6 v=0
224648 On ch=1 n=c#6 v=80
224652 On ch=1 n=e6 v=79
224662 On ch=1 n=a5 v=44
224718 On ch=1 n=e6 v=0
224722 On ch=1 n=a5 v=0
224724 Par ch=1 c=64 v=63
224736 On ch=1 n=c#6 v=0
224746 Par ch=1 c=64 v=0
224946 Par ch=1 c=64 v=63
224948 On ch=1 n=f#6 v=80
224970 Par ch=1 c=64 v=127
224972 On ch=1 n=d6 v=55
224978 On ch=1 n=g5 v=57
225056 On ch=1 n=d6 v=0
225062 On ch=1 n=g5 v=0
225068 On ch=1 n=f#6 v=0
225394 On ch=1 n=b6 v=75
225400 On ch=1 n=f#5 v=72
225406 On ch=1 n=c#6 v=71
225422 On ch=1 n=e6 v=59
225480 On ch=1 n=f#5 v=0
225482 On ch=1 n=c#6 v=0
225484 On ch=1 n=b6 v=0
225488 On ch=1 n=e6 v=0
225496 Par ch=1 c=64 v=63
225526 Par ch=1 c=64 v=0
225692 On ch=1 n=a6 v=76
225696 Par ch=1 c=64 v=63
225696 On ch=1 n=b5 v=44
225708 On ch=1 n=d6 v=60
225716 On ch=1 n=e5 v=49
225718 Par ch=1 c=64 v=127
225860 On ch=1 n=d6 v=0
225874 On ch=1 n=a6 v=0
225950 On ch=1 n=f#6 v=67
226040 On ch=1 n=f#6 v=0
226110 On ch=1 n=b5 v=0
226182 Par ch=1 c=64 v=63
226192 Par ch=1 c=64 v=0
226204 On ch=1 n=b5 v=60
226208 On ch=1 n=g6 v=74
226234 On ch=1 n=d6 v=49
226256 On ch=1 n=e5 v=0
226266 On ch=1 n=b5 v=0
226290 Par ch=1 c=64 v=63
226296 On ch=1 n=g6 v=0
226304 On ch=1 n=d6 v=0
226306 Par ch=1 c=64 v=127
226414 On ch=1 n=a4 v=44
226494 On ch=1 n=a4 v=0
226592 On ch=1 n=e6 v=44
226628 On ch=1 n=a6 v=43
226664 On ch=1 n=c#6 v=49
226672 On ch=1 n=e7 v=74
226692 On ch=1 n=e6 v=0
226726 On ch=1 n=c#6 v=0
226734 On ch=1 n=a6 v=0
226762 On ch=1 n=e7 v=0
227224 On ch=1 n=b5 v=68
227242 On ch=1 n=c6 v=51
227246 On ch=1 n=e6 v=63
227316 On ch=1 n=c6 v=0
227320 On ch=1 n=e6 v=0
227426 On ch=1 n=b5 v=0
227604 On ch=1 n=a5 v=49
227604 Par ch=1 c=64 v=63
227606 On ch=1 n=e6 v=80
227620 On ch=1 n=c6 v=75
227622 Par ch=1 c=64 v=0
227650 On ch=1 n=e6 v=0
227658 On ch=1 n=f#6 v=83
227730 On ch=1 n=e6 v=70
227756 Par ch=1 c=64 v=63
227774 On ch=1 n=f#6 v=0
227776 Par ch=1 c=64 v=127
227908 On ch=1 n=c6 v=0
228106 On ch=1 n=d6 v=92
228110 On ch=1 n=g5 v=65
228116 On ch=1 n=b5 v=84
228142 On ch=1 n=a5 v=0
228176 On ch=1 n=e6 v=0
228268 On ch=1 n=b5 v=0
228414 On ch=1 n=f#5 v=73
228422 On ch=1 n=e6 v=103
228422 On ch=1 n=a5 v=68
228434 On ch=1 n=c6 v=76
228458 On ch=1 n=g5 v=0
228480 On ch=1 n=d6 v=0
228580 Par ch=1 c=64 v=63
228594 Par ch=1 c=64 v=0
228714 Par ch=1 c=64 v=63
228730 Par ch=1 c=64 v=127
228868 On ch=1 n=a5 v=0
228926 On ch=1 n=c6 v=0
228972 On ch=1 n=f#6 v=98
228988 On ch=1 n=a5 v=52
228988 On ch=1 n=d6 v=77
229022 On ch=1 n=e6 v=0
229048 On ch=1 n=d5 v=27
229056 On ch=1 n=f#5 v=0
229178 On ch=1 n=a5 v=0
229294 On ch=1 n=d6 v=0
229296 On ch=1 n=b5 v=69
229304 On ch=1 n=g6 v=79
229312 On ch=1 n=e6 v=71
229314 On ch=1 n=g5 v=50
229322 On ch=1 n=d5 v=0
229324 On ch=1 n=f#6 v=0
229362 Par ch=1 c=64 v=63
229376 Par ch=1 c=64 v=0
229504 Par ch=1 c=64 v=63
229520 Par ch=1 c=64 v=127
229580 On ch=1 n=g6 v=0
229692 On ch=1 n=e6 v=0
229712 On ch=1 n=g5 v=0
229718 On ch=1 n=b5 v=0
229728 On ch=1 n=f#6 v=80
229818 On ch=1 n=d6 v=77
229868 On ch=1 n=f#6 v=0
229874 On ch=1 n=b5 v=39
229876 On ch=1 n=g5 v=45
230018 On ch=1 n=b5 v=0
230092 On ch=1 n=g5 v=0
230150 On ch=1 n=d6 v=0
230286 On ch=1 n=f#6 v=79
230288 On ch=1 n=a5 v=47
230306 On ch=1 n=c#6 v=67
230326 On ch=1 n=b4 v=37
230416 Par ch=1 c=64 v=63
230444 Par ch=1 c=64 v=0
231284 Par ch=1 c=64 v=63
231286 Par ch=1 c=64 v=127
231514 On ch=1 n=b4 v=0
231558 On ch=1 n=a5 v=0
231562 On ch=1 n=f#6 v=0
231586 On ch=1 n=c#6 v=0
231666 On ch=1 n=a6 v=45
231732 On ch=1 n=a5 v=48
231736 On ch=1 n=b4 v=51
231744 On ch=1 n=f#6 v=67
231756 On ch=1 n=a6 v=0
231760 Par ch=1 c=64 v=63
231762 On ch=1 n=c#6 v=80
231772 Par ch=1 c=64 v=0
231832 On ch=1 n=f#6 v=0
231838 On ch=1 n=a5 v=0
231850 On ch=1 n=b4 v=0
231858 On ch=1 n=c#6 v=0
232054 On ch=1 n=f#5 v=70
232054 On ch=1 n=d6 v=60
232068 On ch=1 n=b4 v=54
232082 On ch=1 n=a5 v=51
232082 Par ch=1 c=64 v=63
232088 Par ch=1 c=64 v=127
232128 On ch=1 n=f#5 v=0
232134 On ch=1 n=a5 v=0
232134 On ch=1 n=b4 v=0
232150 On ch=1 n=d6 v=0
232526 On ch=1 n=f#6 v=73
232538 On ch=1 n=c#6 v=78
232548 On ch=1 n=b4 v=42
232548 On ch=1 n=a5 v=35
232584 Par ch=1 c=64 v=63
232590 On ch=1 n=c#6 v=0
232610 Par ch=1 c=64 v=0
232616 On ch=1 n=a5 v=0
232620 On ch=1 n=f#6 v=0
232630 On ch=1 n=b4 v=0
232764 Par ch=1 c=64 v=63
232790 Par ch=1 c=64 v=127
232810 On ch=1 n=b5 v=71
232834 On ch=1 n=e6 v=82
232836 On ch=1 n=g#5 v=76
232900 On ch=1 n=b5 v=0
232932 On ch=1 n=g#5 v=0
232974 On ch=1 n=e6 v=0
233018 On ch=1 n=f#6 v=75
233098 On ch=1 n=e5 v=51
233112 On ch=1 n=f#6 v=0
233120 On ch=1 n=e6 v=49
233142 On ch=1 n=g#5 v=71
233180 On ch=1 n=e5 v=0
233188 On ch=1 n=g#5 v=0
233200 On ch=1 n=f#6 v=89
233222 On ch=1 n=e6 v=0
233278 On ch=1 n=e6 v=89
233278 On ch=1 n=g#5 v=58
233290 On ch=1 n=b4 v=66
233296 On ch=1 n=f#6 v=0
233330 On ch=1 n=g#5 v=0
233342 On ch=1 n=b4 v=0
233356 On ch=1 n=f#6 v=71
233372 On ch=1 n=e6 v=0
233406 On ch=1 n=g#5 v=57
233468 On ch=1 n=e6 v=34
233470 Par ch=1 c=64 v=63
233482 Par ch=1 c=64 v=0
233484 On ch=1 n=g#5 v=0
233546 On ch=1 n=g#5 v=82
233556 On ch=1 n=f#6 v=0
233570 On ch=1 n=e5 v=81
233572 On ch=1 n=e4 v=78
233588 On ch=1 n=e6 v=0
233590 Par ch=1 c=64 v=63
233610 Par ch=1 c=64 v=127
233620 On ch=1 n=g#5 v=0
233794 Par ch=1 c=64 v=63
233818 Par ch=1 c=64 v=0
233906 On ch=1 n=e4 v=0
233926 On ch=1 n=a#5 v=104
233990 On ch=1 n=b5 v=96
234000 On ch=1 n=e5 v=0
234002 On ch=1 n=a#5 v=0
234068 On ch=1 n=b5 v=0
234302 On ch=1 n=e5 v=90
234314 On ch=1 n=d#6 v=112
234314 On ch=1 n=c5 v=74
234318 On ch=1 n=g#4 v=77
234420 Par ch=1 c=64 v=63
234444 Par ch=1 c=64 v=127
234694 On ch=1 n=c5 v=0
234750 On ch=1 n=g#4 v=0
234788 On ch=1 n=e5 v=0
235056 On ch=1 n=e4 v=82
235066 On ch=1 n=a3 v=71
235114 On ch=1 n=e4 v=0
235118 On ch=1 n=a3 v=0
235132 On ch=1 n=d#6 v=0
235398 On ch=1 n=c6 v=98
235486 On ch=1 n=d#6 v=108
235512 On ch=1 n=c6 v=0
235566 On ch=1 n=d#6 v=0
235788 On ch=1 n=f5 v=88
235792 On ch=1 n=c6 v=102
235794 On ch=1 n=a4 v=76
235800 On ch=1 n=c#5 v=89
235828 Par ch=1 c=64 v=63
235836 Par ch=1 c=64 v=0
235912 Par ch=1 c=64 v=63
235940 Par ch=1 c=64 v=127
236062 On ch=1 n=a4 v=0
236080 On ch=1 n=c#5 v=0
236138 On ch=1 n=f5 v=0
236150 On ch=1 n=c6 v=0
236164 On ch=1 n=b5 v=89
236268 On ch=1 n=c#5 v=110
236272 On ch=1 n=b5 v=0
236330 On ch=1 n=c#5 v=0
236430 Par ch=1 c=64 v=63
236444 Par ch=1 c=64 v=0
236530 On ch=1 n=b5 v=102
236536 On ch=1 n=g#5 v=95
236538 On ch=1 n=f5 v=78
236574 Par ch=1 c=64 v=63
236592 Par ch=1 c=64 v=127
236616 On ch=1 n=b5 v=0
236622 On ch=1 n=g#5 v=0
236630 On ch=1 n=f5 v=0
236950 On ch=1 n=f#3 v=93
236974 On ch=1 n=c#5 v=104
237024 On ch=1 n=f#3 v=0
237044 On ch=1 n=c#5 v=0
237204 Par ch=1 c=64 v=63
237222 Par ch=1 c=64 v=0
237232 On ch=1 n=g#5 v=93
237242 On ch=1 n=e5 v=88
237250 On ch=1 n=c5 v=70
237260 On ch=1 n=a4 v=57
237328 Par ch=1 c=64 v=63
237346 Par ch=1 c=64 v=127
237386 On ch=1 n=c5 v=0
237400 On ch=1 n=a4 v=0
237474 On ch=1 n=g#5 v=0
237592 On ch=1 n=e5 v=0
237598 On ch=1 n=c5 v=84
237642 On ch=1 n=g#5 v=97
237642 On ch=1 n=b3 v=72
237652 Par ch=1 c=64 v=63
237664 Par ch=1 c=64 v=0
237668 On ch=1 n=d#5 v=96
237676 On ch=1 n=c5 v=0
237726 On ch=1 n=d#5 v=0
237726 On ch=1 n=b3 v=0
237756 On ch=1 n=g#5 v=0
237920 On ch=1 n=a#4 v=78
237938 On ch=1 n=g4 v=65
237946 On ch=1 n=f#5 v=103
237948 On ch=1 n=c#5 v=101
238016 Par ch=1 c=64 v=63
238018 Par ch=1 c=64 v=127
238038 On ch=1 n=c#5 v=0
238064 On ch=1 n=f#5 v=0
238104 On ch=1 n=g4 v=0
238130 On ch=1 n=a#4 v=0
238384 On ch=1 n=e5 v=100
238390 On ch=1 n=b3 v=41
238478 On ch=1 n=e5 v=0
238586 Par ch=1 c=64 v=63
238604 Par ch=1 c=64 v=0
238642 On ch=1 n=b3 v=0
238662 On ch=1 n=f#4 v=80
238662 On ch=1 n=a4 v=64
238666 On ch=1 n=e5 v=101
238674 On ch=1 n=c5 v=96
238760 Par ch=1 c=64 v=63
238768 On ch=1 n=f#4 v=0
238776 Par ch=1 c=64 v=127
238808 On ch=1 n=a4 v=0
239034 On ch=1 n=f#5 v=96
239066 On ch=1 n=e5 v=0
239066 On ch=1 n=b3 v=75
239090 On ch=1 n=d5 v=94
239114 On ch=1 n=c5 v=0
239146 On ch=1 n=b3 v=0
239168 On ch=1 n=d5 v=0
239172 On ch=1 n=f#5 v=0
239272 Par ch=1 c=64 v=63
239286 Par ch=1 c=64 v=0
239380 On ch=1 n=g4 v=84
239380 On ch=1 n=b3 v=87
239386 On ch=1 n=b4 v=99
239388 On ch=1 n=e3 v=88
239406 On ch=1 n=e5 v=103
239422 Par ch=1 c=64 v=63
239434 Par ch=1 c=64 v=127
239448 On ch=1 n=g4 v=0
239460 On ch=1 n=b4 v=0
239502 On ch=1 n=e5 v=0
239516 On ch=1 n=e3 v=0
239524 On ch=1 n=b3 v=0
239712 Par ch=1 c=64 v=127
239768 On ch=1 n=a#5 v=105
239850 On ch=1 n=b5 v=106
239870 On ch=1 n=a#5 v=0
239886 Par ch=1 c=64 v=63
239888 Par ch=1 c=64 v=0
239950 On ch=1 n=b5 v=0
240160 On ch=1 n=b4 v=92
240180 On ch=1 n=d#6 v=119
240510 On ch=1 n=d#5 v=105
240618 On ch=1 n=e5 v=112
240632 On ch=1 n=b4 v=0
240672 Par ch=1 c=64 v=63
240674 On ch=1 n=d#5 v=0
240674 Par ch=1 c=64 v=127
240742 On ch=1 n=e5 v=0
240990 Par ch=1 c=64 v=63
240994 Par ch=1 c=64 v=0
241006 On ch=1 n=e5 v=90
241012 On ch=1 n=c5 v=91
241014 On ch=1 n=g#5 v=113
241094 Par ch=1 c=64 v=63
241102 Par ch=1 c=64 v=127
241290 On ch=1 n=d#6 v=0
241394 On ch=1 n=c6 v=92
241478 On ch=1 n=g#5 v=0
241478 On ch=1 n=d#6 v=109
241494 On ch=1 n=e5 v=0
241500 On ch=1 n=c6 v=0
241510 On ch=1 n=c5 v=0
241548 On ch=1 n=d#6 v=0
241760 On ch=1 n=c6 v=102
241778 On ch=1 n=a4 v=85
241844 On ch=1 n=c6 v=0
241848 On ch=1 n=a4 v=0
242092 On ch=1 n=b5 v=83
242106 On ch=1 n=f5 v=84
242188 On ch=1 n=c#5 v=107
242210 On ch=1 n=b5 v=0
242214 On ch=1 n=g#5 v=99
242226 On ch=1 n=f5 v=0
242246 On ch=1 n=c#5 v=0
242278 On ch=1 n=g#5 v=0
242462 Par ch=1 c=64 v=63
242472 Par ch=1 c=64 v=0
242486 On ch=1 n=b5 v=90
242492 On ch=1 n=f5 v=88
242552 Par ch=1 c=64 v=63
242576 Par ch=1 c=64 v=127
242600 On ch=1 n=f5 v=0
242658 On ch=1 n=b5 v=0
242832 On ch=1 n=e5 v=89
242896 Par ch=1 c=64 v=63
242902 Par ch=1 c=64 v=0
242920 On ch=1 n=c#5 v=98
242946 On ch=1 n=f#4 v=104
242980 On ch=1 n=e5 v=0
242988 On ch=1 n=c#5 v=0
243246 On ch=1 n=f#4 v=0
243246 On ch=1 n=g#5 v=107
243248 On ch=1 n=e5 v=103
243302 Par ch=1 c=64 v=63
243304 Par ch=1 c=64 v=127
243334 On ch=1 n=e5 v=0
243342 On ch=1 n=g#5 v=0
243596 On ch=1 n=c5 v=88
243666 On ch=1 n=f#4 v=97
243674 On ch=1 n=g#5 v=100
243678 On ch=1 n=c5 v=0
243690 On ch=1 n=d#5 v=99
243696 Par ch=1 c=64 v=63
243704 Par ch=1 c=64 v=0
243732 On ch=1 n=d#5 v=0
243756 On ch=1 n=g#5 v=0
243784 On ch=1 n=f#4 v=0
243950 On ch=1 n=f#5 v=109
243962 On ch=1 n=a#4 v=91
243966 On ch=1 n=g4 v=79
243966 On ch=1 n=c#5 v=105
243996 Par ch=1 c=64 v=63
243998 Par ch=1 c=64 v=127
244000 On ch=1 n=c#5 v=0
244014 On ch=1 n=g4 v=0
244020 On ch=1 n=a#4 v=0
244042 On ch=1 n=f#5 v=0
244318 On ch=1 n=e4 v=58
244364 On ch=1 n=e4 v=0
244372 On ch=1 n=b3 v=85
244376 On ch=1 n=e5 v=93
244386 On ch=1 n=c#5 v=104
244422 Par ch=1 c=64 v=63
244436 Par ch=1 c=64 v=0
244452 On ch=1 n=c#5 v=0
244458 On ch=1 n=e5 v=0
244674 On ch=1 n=f#4 v=92
244676 On ch=1 n=b3 v=0
244682 On ch=1 n=a4 v=83
244682 On ch=1 n=e5 v=98
244692 On ch=1 n=c5 v=92
244790 Par ch=1 c=64 v=63
244794 Par ch=1 c=64 v=127
245018 On ch=1 n=f#5 v=95
245060 On ch=1 n=e5 v=0
245090 On ch=1 n=c5 v=0
245122 On ch=1 n=d5 v=94
245124 On ch=1 n=b3 v=69
245152 On ch=1 n=a4 v=0
245168 On ch=1 n=f#5 v=0
245170 On ch=1 n=f#4 v=0
245174 Par ch=1 c=64 v=63
245198 On ch=1 n=d5 v=0
245198 Par ch=1 c=64 v=0
245222 On ch=1 n=b3 v=0
245468 On ch=1 n=g4 v=74
245478 On ch=1 n=b3 v=76
245480 On ch=1 n=b4 v=91
245480 On ch=1 n=e3 v=73
245492 On ch=1 n=e5 v=97
245504 Par ch=1 c=64 v=63
245506 On ch=1 n=g4 v=0
245520 Par ch=1 c=64 v=127
245524 On ch=1 n=b3 v=0
245548 On ch=1 n=b4 v=0
245556 On ch=1 n=e3 v=0
245590 On ch=1 n=e5 v=0
245844 On ch=1 n=a#5 v=110
245912 Par ch=1 c=64 v=63
245918 On ch=1 n=b5 v=104
245920 Par ch=1 c=64 v=0
245926 On ch=1 n=a#5 v=0
246022 On ch=1 n=b5 v=0
246266 On ch=1 n=d#6 v=119
246296 On ch=1 n=c5 v=93
246300 On ch=1 n=e5 v=88
246310 On ch=1 n=g#4 v=84
246344 Par ch=1 c=64 v=63
246344 Par ch=1 c=64 v=127
246446 On ch=1 n=e5 v=0
246492 On ch=1 n=c5 v=0
246554 On ch=1 n=g#4 v=0
246736 On ch=1 n=b5 v=84
246784 On ch=1 n=d#6 v=0
246818 On ch=1 n=b5 v=0
246850 On ch=1 n=b6 v=108
247188 On ch=1 n=c#3 v=84
247190 On ch=1 n=g#3 v=92
247492 On ch=1 n=c#3 v=0
247530 On ch=1 n=g#3 v=0
247572 On ch=1 n=c#6 v=87
247638 On ch=1 n=b6 v=0
247638 On ch=1 n=d#6 v=107
247654 On ch=1 n=c#6 v=0
247712 On ch=1 n=d#6 v=0
247938 On ch=1 n=b6 v=106
247940 On ch=1 n=g#5 v=95
247942 On ch=1 n=b5 v=98
247948 On ch=1 n=g#6 v=106
247962 On ch=1 n=f5 v=81
247962 On ch=1 n=d#5 v=84
248032 Par ch=1 c=64 v=63
248040 Par ch=1 c=64 v=0
248128 Par ch=1 c=64 v=63
248142 Par ch=1 c=64 v=127
248242 On ch=1 n=b6 v=0
248306 On ch=1 n=a#6 v=97
248340 On ch=1 n=g#6 v=0
248350 On ch=1 n=b5 v=0
248370 On ch=1 n=d#5 v=0
248378 On ch=1 n=f5 v=0
248390 On ch=1 n=g#6 v=98
248424 On ch=1 n=c#5 v=91
248432 On ch=1 n=g#5 v=0
248472 On ch=1 n=a#6 v=0
248500 On ch=1 n=c#5 v=0
248506 On ch=1 n=g#6 v=0
248674 On ch=1 n=c#7 v=113
248682 On ch=1 n=f#6 v=104
248690 Par ch=1 c=64 v=63
248692 On ch=1 n=c#6 v=94
248700 On ch=1 n=a5 v=65
248704 Par ch=1 c=64 v=0
248704 On ch=1 n=e5 v=71
248704 On ch=1 n=f#5 v=67
248754 Par ch=1 c=64 v=63
248780 Par ch=1 c=64 v=127
248792 On ch=1 n=c#6 v=0
248842 On ch=1 n=a5 v=0
248908 On ch=1 n=f#5 v=0
248916 On ch=1 n=c#6 v=87
248926 On ch=1 n=e5 v=0
249012 On ch=1 n=c#6 v=0
249112 On ch=1 n=f#6 v=0
249116 On ch=1 n=c#7 v=0
249120 On ch=1 n=e6 v=98
249128 On ch=1 n=c#5 v=68
249226 On ch=1 n=e6 v=0
249248 On ch=1 n=c#5 v=0
249370 On ch=1 n=b6 v=100
249374 On ch=1 n=g#5 v=84
249378 On ch=1 n=g#6 v=100
249382 On ch=1 n=b5 v=83
249392 On ch=1 n=d#5 v=79
249396 On ch=1 n=f5 v=74
249412 Par ch=1 c=64 v=63
249428 Par ch=1 c=64 v=0
249488 Par ch=1 c=64 v=63
249520 Par ch=1 c=64 v=127
249572 On ch=1 n=b6 v=0
249668 On ch=1 n=g#6 v=0
249712 On ch=1 n=a#6 v=94
249776 On ch=1 n=d#5 v=0
249788 On ch=1 n=g#6 v=112
249796 On ch=1 n=c#5 v=88
249804 On ch=1 n=f5 v=0
249810 On ch=1 n=b5 v=0
249842 On ch=1 n=g#5 v=0
249850 On ch=1 n=a#6 v=0
249884 On ch=1 n=c#5 v=0
249896 On ch=1 n=g#6 v=0
250052 Par ch=1 c=64 v=63
250060 On ch=1 n=c#7 v=109
250062 Par ch=1 c=64 v=0
250066 On ch=1 n=c#6 v=101
250070 On ch=1 n=f#6 v=100
250070 On ch=1 n=e5 v=82
250072 On ch=1 n=f#5 v=72
250078 On ch=1 n=a5 v=64
250116 Par ch=1 c=64 v=63
250144 Par ch=1 c=64 v=127
250148 On ch=1 n=c#6 v=0
250186 On ch=1 n=a5 v=0
250250 On ch=1 n=f#5 v=0
250264 On ch=1 n=e5 v=0
250284 On ch=1 n=c#6 v=97
250354 On ch=1 n=f#6 v=0
250386 On ch=1 n=c#6 v=0
250474 On ch=1 n=c#5 v=83
250496 On ch=1 n=e6 v=97
250622 On ch=1 n=c#5 v=0
250646 On ch=1 n=e6 v=0
250664 Par ch=1 c=64 v=63
250674 Par ch=1 c=64 v=0
250716 On ch=1 n=f#6 v=96
250718 On ch=1 n=c#6 v=96
250720 Par ch=1 c=64 v=63
250728 On ch=1 n=a5 v=67
250736 On ch=1 n=f#5 v=75
250736 On ch=1 n=e5 v=67
250746 Par ch=1 c=64 v=127
250792 On ch=1 n=e5 v=0
250794 On ch=1 n=c#7 v=0
250812 On ch=1 n=a5 v=0
250814 On ch=1 n=f#5 v=0
250832 On ch=1 n=c#6 v=0
250858 On ch=1 n=f#6 v=0
250924 On ch=1 n=a6 v=90
251004 On ch=1 n=a6 v=0
251130 On ch=1 n=c#7 v=118
251130 On ch=1 n=e6 v=81
251132 On ch=1 n=g#6 v=89
251200 On ch=1 n=g#6 v=0
251204 On ch=1 n=e6 v=0
251206 On ch=1 n=c#7 v=0
251402 On ch=1 n=e7 v=112
251410 On ch=1 n=f#6 v=98
251412 On ch=1 n=e6 v=93
251416 On ch=1 n=a6 v=94
251434 On ch=1 n=c#6 v=89
251462 Par ch=1 c=64 v=63
251474 Par ch=1 c=64 v=0
251530 Par ch=1 c=64 v=63
251558 Par ch=1 c=64 v=127
251750 On ch=1 n=f#7 v=98
251768 On ch=1 n=e7 v=0
251790 On ch=1 n=e6 v=0
251790 On ch=1 n=f#6 v=0
251822 On ch=1 n=c#6 v=0
251838 On ch=1 n=d#7 v=108
251866 On ch=1 n=a6 v=0
251890 On ch=1 n=f#7 v=0
251920 On ch=1 n=d#7 v=0
252124 On ch=1 n=d#7 v=114
252126 On ch=1 n=e6 v=101
252128 On ch=1 n=b5 v=90
252132 On ch=1 n=d#6 v=96
252136 On ch=1 n=g#6 v=104
252162 Par ch=1 c=64 v=63
252172 Par ch=1 c=64 v=0
252250 Par ch=1 c=64 v=63
252276 Par ch=1 c=64 v=127
252544 On ch=1 n=d#7 v=0
252566 On ch=1 n=g#6 v=0
252578 On ch=1 n=b5 v=0
252580 On ch=1 n=d#6 v=0
252594 On ch=1 n=e7 v=101
252606 On ch=1 n=e6 v=0
252670 On ch=1 n=e7 v=0
252856 Par ch=1 c=64 v=63
252866 Par ch=1 c=64 v=0
252894 On ch=1 n=c#7 v=112
252894 On ch=1 n=e6 v=96
252896 On ch=1 n=a5 v=86
252904 On ch=1 n=f#6 v=94
252904 On ch=1 n=c#6 v=93
253032 Par ch=1 c=64 v=63
253042 Par ch=1 c=64 v=127
253258 On ch=1 n=d#7 v=94
253286 On ch=1 n=c#7 v=0
253290 On ch=1 n=e6 v=0
253308 On ch=1 n=a5 v=0
253310 On ch=1 n=f#6 v=0
253318 On ch=1 n=c#6 v=0
253354 On ch=1 n=d#7 v=0
253364 On ch=1 n=b6 v=94
253448 On ch=1 n=b6 v=0
253634 On ch=1 n=b5 v=88
253636 On ch=1 n=d#6 v=98
253638 On ch=1 n=b6 v=103
253642 On ch=1 n=g#5 v=82
253644 Par ch=1 c=64 v=63
253652 Par ch=1 c=64 v=0
253654 On ch=1 n=e6 v=94
253746 Par ch=1 c=64 v=63
253766 Par ch=1 c=64 v=127
254036 On ch=1 n=d#6 v=0
254062 On ch=1 n=b5 v=0
254096 On ch=1 n=c#7 v=96
254104 On ch=1 n=g#5 v=0
254124 On ch=1 n=b6 v=0
254152 On ch=1 n=e6 v=0
254180 On ch=1 n=c#7 v=0
254320 Par ch=1 c=64 v=63
254328 Par ch=1 c=64 v=0
254384 On ch=1 n=g#6 v=104
254390 On ch=1 n=a5 v=79
254396 On ch=1 n=f#5 v=78
254400 On ch=1 n=c#6 v=91
254402 On ch=1 n=e5 v=76
254446 Par ch=1 c=64 v=63
254464 Par ch=1 c=64 v=127
254692 On ch=1 n=c#6 v=0
254736 On ch=1 n=g#6 v=0
254782 On ch=1 n=a6 v=81
254784 On ch=1 n=a5 v=0
254814 On ch=1 n=f#5 v=0
254824 On ch=1 n=e5 v=0
254872 On ch=1 n=f#6 v=99
254894 On ch=1 n=a6 v=0
254944 On ch=1 n=f#6 v=0
255112 Par ch=1 c=64 v=63
255124 Par ch=1 c=64 v=0
255124 On ch=1 n=e5 v=81
255128 On ch=1 n=e6 v=93
255128 On ch=1 n=f#5 v=84
255132 On ch=1 n=c#5 v=81
255148 On ch=1 n=a5 v=70
255234 Par ch=1 c=64 v=63
255256 Par ch=1 c=64 v=127
255440 On ch=1 n=e6 v=0
255440 On ch=1 n=f#6 v=90
255456 On ch=1 n=f#5 v=0
255460 On ch=1 n=e5 v=0
255498 On ch=1 n=c#5 v=0
255550 On ch=1 n=c#6 v=109
255574 On ch=1 n=f#6 v=0
255580 On ch=1 n=a5 v=0
255624 On ch=1 n=c#6 v=0
255832 Par ch=1 c=64 v=63
255842 Par ch=1 c=64 v=0
255856 On ch=1 n=c#5 v=82
255858 On ch=1 n=b5 v=99
255870 On ch=1 n=g#4 v=73
255872 On ch=1 n=a4 v=58
255874 On ch=1 n=e5 v=84
255950 Par ch=1 c=64 v=63
255974 Par ch=1 c=64 v=127
256162 On ch=1 n=c#5 v=0
256188 On ch=1 n=a4 v=0
256204 On ch=1 n=c#6 v=93
256216 On ch=1 n=g#4 v=0
256252 On ch=1 n=b5 v=0
256280 On ch=1 n=e5 v=0
256282 On ch=1 n=a5 v=86
256340 On ch=1 n=c#6 v=0
256362 On ch=1 n=a5 v=0
256560 On ch=1 n=a4 v=58
256560 On ch=1 n=f#4 v=71
256562 On ch=1 n=g#5 v=101
256564 On ch=1 n=e4 v=63
256574 On ch=1 n=c#5 v=74
256576 Par ch=1 c=64 v=63
256586 Par ch=1 c=64 v=0
256708 Par ch=1 c=64 v=63
256728 Par ch=1 c=64 v=127
256812 On ch=1 n=c#5 v=0
256882 On ch=1 n=a4 v=0
256896 On ch=1 n=f#5 v=94
256912 On ch=1 n=f#4 v=0
256922 On ch=1 n=g#5 v=0
256938 On ch=1 n=e4 v=0
256976 On ch=1 n=c#5 v=101
256986 On ch=1 n=f#5 v=0
257054 On ch=1 n=c#5 v=0
257234 Par ch=1 c=64 v=63
257258 Par ch=1 c=64 v=0
257268 On ch=1 n=g#3 v=73
257274 On ch=1 n=g#4 v=72
257284 On ch=1 n=d#5 v=84
257286 On ch=1 n=c5 v=84
257416 Par ch=1 c=64 v=63
257438 Par ch=1 c=64 v=127
257552 On ch=1 n=c5 v=0
257572 On ch=1 n=d#5 v=0
257574 On ch=1 n=g#3 v=0
257596 On ch=1 n=g#4 v=0
257848 Par ch=1 c=64 v=63
257870 Par ch=1 c=64 v=0
258032 On ch=1 n=c#5 v=76
258042 On ch=1 n=d#3 v=66
258046 Par ch=1 c=64 v=63
258054 On ch=1 n=f#4 v=59
258054 On ch=1 n=a4 v=60
258064 Par ch=1 c=64 v=127
258410 On ch=1 n=f#4 v=0
258436 On ch=1 n=a4 v=0
258456 On ch=1 n=d#3 v=0
258458 On ch=1 n=c#5 v=0
258642 Par ch=1 c=64 v=63
258678 Par ch=1 c=64 v=0
258814 On ch=1 n=d#5 v=75
258814 On ch=1 n=g#2 v=63
258826 On ch=1 n=g#4 v=58
258830 On ch=1 n=c5 v=71
258836 Par ch=1 c=64 v=63
258850 Par ch=1 c=64 v=127
258964 On ch=1 n=g#4 v=0
258970 On ch=1 n=c5 v=0
259020 On ch=1 n=d#5 v=0
259200 On ch=1 n=g#2 v=0
259660 On ch=1 n=g#3 v=47
260026 On ch=1 n=g#3 v=0
260598 Par ch=1 c=64 v=63
260606 Par ch=1 c=64 v=0
260614 On ch=1 n=d#5 v=49
260620 On ch=1 n=b4 v=56
260624 On ch=1 n=g#4 v=38
260626 On ch=1 n=g#5 v=52
260628 On ch=1 n=d#6 v=66
260650 On ch=1 n=b5 v=58
260702 Par ch=1 c=64 v=63
260720 Par ch=1 c=64 v=127
260862 On ch=1 n=b5 v=0
260908 On ch=1 n=g#5 v=0
260934 On ch=1 n=d#6 v=0
260958 On ch=1 n=d#5 v=0
260976 On ch=1 n=g6 v=86
260990 On ch=1 n=b4 v=0
261034 On ch=1 n=g#4 v=0
261078 On ch=1 n=g#6 v=106
261100 On ch=1 n=g6 v=0
261186 On ch=1 n=g#6 v=0
261400 On ch=1 n=g4 v=35
261418 On ch=1 n=b4 v=43
261424 On ch=1 n=f4 v=42
261474 On ch=1 n=e5 v=52
261490 On ch=1 n=b5 v=54
261496 On ch=1 n=b6 v=84
261508 Par ch=1 c=64 v=63
261510 On ch=1 n=e6 v=65
261522 Par ch=1 c=64 v=0
261698 Par ch=1 c=64 v=63
261708 Par ch=1 c=64 v=127
261778 On ch=1 n=e5 v=0
261794 On ch=1 n=b4 v=0
261834 On ch=1 n=b5 v=0
261848 On ch=1 n=g4 v=0
261870 On ch=1 n=f4 v=0
262254 On ch=1 n=g3 v=65
262318 On ch=1 n=b6 v=0
262486 On ch=1 n=g3 v=0
262504 On ch=1 n=e6 v=0
262620 On ch=1 n=g#6 v=84
262714 On ch=1 n=b6 v=80
262724 On ch=1 n=g#6 v=0
262798 On ch=1 n=b6 v=0
263034 On ch=1 n=g#6 v=85
263040 On ch=1 n=c3 v=68
263104 On ch=1 n=c3 v=0
263326 On ch=1 n=g#6 v=0
263390 On ch=1 n=g6 v=82
263472 On ch=1 n=g6 v=0
263486 On ch=1 n=b5 v=86
263550 On ch=1 n=b5 v=0
263798 On ch=1 n=g6 v=78
263802 On ch=1 n=d#6 v=77
263808 On ch=1 n=b4 v=41
263812 On ch=1 n=g5 v=45
263814 On ch=1 n=f5 v=40
263824 Par ch=1 c=64 v=63
263836 Par ch=1 c=64 v=0
263954 Par ch=1 c=64 v=63
263974 Par ch=1 c=64 v=127
264070 On ch=1 n=g5 v=0
264082 On ch=1 n=f5 v=0
264116 On ch=1 n=b4 v=0
264164 On ch=1 n=d#6 v=0
264252 On ch=1 n=g6 v=0
264254 On ch=1 n=b5 v=86
264328 On ch=1 n=b5 v=0
264502 Par ch=1 c=64 v=63
264512 On ch=1 n=a#4 v=62
264516 On ch=1 n=d#5 v=61
264518 Par ch=1 c=64 v=0
264528 On ch=1 n=g4 v=45
264534 On ch=1 n=d6 v=77
264538 On ch=1 n=a#5 v=61
264648 Par ch=1 c=64 v=63
264670 Par ch=1 c=64 v=127
264762 On ch=1 n=a#5 v=0
264782 On ch=1 n=d6 v=0
264782 On ch=1 n=c6 v=73
264800 On ch=1 n=g4 v=0
264810 On ch=1 n=d#5 v=0
264822 On ch=1 n=a#4 v=0
264868 On ch=1 n=c6 v=0
265028 On ch=1 n=g5 v=77
265124 On ch=1 n=g5 v=0
265250 On ch=1 n=f#4 v=41
265272 On ch=1 n=a4 v=51
265300 On ch=1 n=c#5 v=65
265336 Par ch=1 c=64 v=63
265348 Par ch=1 c=64 v=0
265368 On ch=1 n=c#6 v=78
265372 On ch=1 n=f#5 v=60
265372 Par ch=1 c=67 v=127
265374 On ch=1 n=a5 v=59
265512 Par ch=1 c=64 v=63
265524 Par ch=1 c=64 v=127
265666 On ch=1 n=f#5 v=0
265684 On ch=1 n=a5 v=0
265696 On ch=1 n=c#5 v=0
265722 On ch=1 n=c#6 v=0
265722 On ch=1 n=a4 v=0
265752 On ch=1 n=f#4 v=0
265802 On ch=1 n=f6 v=75
265904 On ch=1 n=f#6 v=99
265922 On ch=1 n=f6 v=0
266010 On ch=1 n=f#6 v=0
266186 On ch=1 n=f4 v=45
266188 On ch=1 n=d#4 v=73
266230 On ch=1 n=a4 v=47
266260 Par ch=1 c=64 v=63
266272 Par ch=1 c=64 v=0
266296 On ch=1 n=a5 v=55
266298 On ch=1 n=d5 v=50
266340 On ch=1 n=d6 v=66
266354 On ch=1 n=a6 v=86
266458 Par ch=1 c=64 v=63
266468 Par ch=1 c=64 v=127
266552 On ch=1 n=d5 v=0
266596 On ch=1 n=a4 v=0
266626 On ch=1 n=a5 v=0
266644 On ch=1 n=f4 v=0
266684 On ch=1 n=d#4 v=0
267020 On ch=1 n=d6 v=0
267056 On ch=1 n=a6 v=0
267078 On ch=1 n=f3 v=72
267170 On ch=1 n=f3 v=0
267442 On ch=1 n=f#6 v=95
267544 On ch=1 n=a6 v=82
267552 On ch=1 n=f#6 v=0
267622 On ch=1 n=a6 v=0
267832 On ch=1 n=a#2 v=86
267838 On ch=1 n=f#6 v=90
267900 On ch=1 n=a#2 v=0
268086 On ch=1 n=f#6 v=0
268164 On ch=1 n=f6 v=90
268248 On ch=1 n=f6 v=0
268260 On ch=1 n=a5 v=76
268308 On ch=1 n=a5 v=0
268410 Par ch=1 c=64 v=63
268422 Par ch=1 c=64 v=0
268552 On ch=1 n=f6 v=83
268560 On ch=1 n=d#5 v=72
268570 On ch=1 n=f5 v=51
268572 On ch=1 n=c#6 v=75
268574 On ch=1 n=a4 v=47
268658 Par ch=1 c=64 v=63
268662 Par ch=1 c=64 v=127
268738 On ch=1 n=f5 v=0
268802 On ch=1 n=d#5 v=0
268814 On ch=1 n=a4 v=0
268946 On ch=1 n=c#6 v=0
268986 On ch=1 n=f6 v=0
269008 On ch=1 n=a5 v=86
269024 Par ch=1 c=64 v=63
269036 Par ch=1 c=64 v=0
269094 On ch=1 n=a5 v=0
269262 On ch=1 n=c#5 v=64
269266 On ch=1 n=g#5 v=80
269270 On ch=1 n=g#4 v=65
269272 On ch=1 n=f4 v=54
269272 On ch=1 n=c6 v=84
269322 Par ch=1 c=64 v=63
269324 Par ch=1 c=64 v=127
269434 On ch=1 n=g#5 v=0
269478 On ch=1 n=g#4 v=0
269486 On ch=1 n=f4 v=0
269486 On ch=1 n=c#5 v=0
269492 On ch=1 n=c6 v=0
269492 On ch=1 n=a#5 v=88
269578 On ch=1 n=a#5 v=0
269722 On ch=1 n=f5 v=86
269744 Par ch=1 c=64 v=63
269770 Par ch=1 c=64 v=0
269804 On ch=1 n=f5 v=0
269942 Par ch=1 c=67 v=0
269974 On ch=1 n=b4 v=60
269982 On ch=1 n=g4 v=60
269986 On ch=1 n=e5 v=65
270008 Par ch=1 c=64 v=63
270016 Par ch=1 c=64 v=127
270322 On ch=1 n=a#5 v=92
270356 Par ch=1 c=64 v=63
270364 On ch=1 n=g4 v=0
270364 On ch=1 n=b4 v=0
270364 Par ch=1 c=64 v=0
270380 On ch=1 n=e5 v=0
270402 On ch=1 n=b5 v=93
270406 On ch=1 n=a#5 v=0
270494 On ch=1 n=b5 v=0
270734 On ch=1 n=g#4 v=58
270738 On ch=1 n=e5 v=84
270744 On ch=1 n=d#6 v=115
270744 On ch=1 n=c5 v=73
270764 Par ch=1 c=64 v=127
271046 On ch=1 n=c5 v=0
271048 On ch=1 n=e5 v=0
271130 On ch=1 n=g#4 v=0
271452 On ch=1 n=d#6 v=0
271464 On ch=1 n=e4 v=88
271472 On ch=1 n=a3 v=76
271524 On ch=1 n=e4 v=0
271528 On ch=1 n=a3 v=0
271806 On ch=1 n=c6 v=92
271888 On ch=1 n=d#6 v=108
271914 On ch=1 n=c6 v=0
271962 On ch=1 n=d#6 v=0
272188 On ch=1 n=c6 v=99
272200 On ch=1 n=f5 v=92
272200 On ch=1 n=a4 v=83
272200 On ch=1 n=c#5 v=95
272226 Par ch=1 c=64 v=63
272232 Par ch=1 c=64 v=0
272280 Par ch=1 c=64 v=63
272306 Par ch=1 c=64 v=127
272396 On ch=1 n=a4 v=0
272412 On ch=1 n=c#5 v=0
272466 On ch=1 n=f5 v=0
272518 On ch=1 n=b5 v=89
272524 On ch=1 n=c6 v=0
272610 On ch=1 n=c#5 v=109
272632 On ch=1 n=b5 v=0
272678 On ch=1 n=c#5 v=0
272848 Par ch=1 c=64 v=63
272856 Par ch=1 c=64 v=0
272876 On ch=1 n=b5 v=98
272884 On ch=1 n=f5 v=66
272890 On ch=1 n=g#5 v=93
272950 Par ch=1 c=64 v=63
272970 On ch=1 n=g#5 v=0
272972 Par ch=1 c=64 v=127
272976 On ch=1 n=b5 v=0
272988 On ch=1 n=f5 v=0
273300 On ch=1 n=f#3 v=94
273308 On ch=1 n=c#5 v=100
273370 On ch=1 n=f#3 v=0
273386 On ch=1 n=c#5 v=0
273510 Par ch=1 c=64 v=63
273522 Par ch=1 c=64 v=0
273576 On ch=1 n=g#5 v=98
273588 On ch=1 n=e5 v=93
273590 On ch=1 n=c5 v=92
273592 On ch=1 n=a4 v=78
273636 Par ch=1 c=64 v=63
273652 Par ch=1 c=64 v=127
273658 On ch=1 n=c5 v=0
273670 On ch=1 n=a4 v=0
273698 On ch=1 n=e5 v=0
273772 On ch=1 n=g#5 v=0
273914 On ch=1 n=c5 v=81
273976 On ch=1 n=g#5 v=97
274002 On ch=1 n=b3 v=83
274004 Par ch=1 c=64 v=63
274004 On ch=1 n=d#5 v=96
274010 On ch=1 n=c5 v=0
274016 Par ch=1 c=64 v=0
274056 On ch=1 n=d#5 v=0
274090 On ch=1 n=g#5 v=0
274202 On ch=1 n=b3 v=0
274288 On ch=1 n=c#5 v=108
274288 On ch=1 n=a#4 v=93
274294 On ch=1 n=f#5 v=104
274302 On ch=1 n=g4 v=71
274366 Par ch=1 c=64 v=63
274366 Par ch=1 c=64 v=127
274386 On ch=1 n=f#5 v=0
274430 On ch=1 n=c#5 v=0
274432 On ch=1 n=g4 v=0
274488 On ch=1 n=a#4 v=0
274702 On ch=1 n=b3 v=70
274718 On ch=1 n=e5 v=96
274826 On ch=1 n=e5 v=0
274874 Par ch=1 c=64 v=63
274888 Par ch=1 c=64 v=0
274980 On ch=1 n=f#4 v=85
274982 On ch=1 n=a4 v=82
274992 On ch=1 n=b3 v=0
274998 On ch=1 n=e5 v=99
275012 On ch=1 n=c5 v=89
275050 Par ch=1 c=64 v=63
275064 Par ch=1 c=64 v=127
275076 On ch=1 n=f#4 v=0
275082 On ch=1 n=a4 v=0
275356 On ch=1 n=f#5 v=83
275368 On ch=1 n=e5 v=0
275432 On ch=1 n=b3 v=77
275448 On ch=1 n=d5 v=94
275476 On ch=1 n=c5 v=0
275502 On ch=1 n=f#5 v=0
275508 On ch=1 n=b3 v=0
275522 On ch=1 n=d5 v=0
275582 Par ch=1 c=64 v=63
275610 Par ch=1 c=64 v=0
275768 On ch=1 n=b3 v=72
275770 On ch=1 n=e3 v=79
275772 On ch=1 n=g4 v=83
275774 On ch=1 n=e5 v=96
275780 Par ch=1 c=64 v=63
275782 On ch=1 n=b4 v=78
275794 Par ch=1 c=64 v=127
275838 On ch=1 n=b4 v=0
275838 On ch=1 n=b3 v=0
275842 On ch=1 n=g4 v=0
275852 On ch=1 n=e3 v=0
275890 On ch=1 n=e5 v=0
276282 Par ch=1 c=64 v=63
276292 Par ch=1 c=64 v=0
276374 On ch=1 n=b5 v=97
276378 On ch=1 n=g#5 v=106
276378 On ch=1 n=e5 v=98
276418 On ch=1 n=e5 v=0
276430 On ch=1 n=g#5 v=0
276442 On ch=1 n=b5 v=0
276762 On ch=1 n=b5 v=100
276772 On ch=1 n=e5 v=96
276772 On ch=1 n=g#5 v=105
276836 On ch=1 n=b5 v=0
276844 On ch=1 n=a5 v=65
276886 On ch=1 n=b5 v=89
276932 On ch=1 n=a5 v=0
277222 On ch=1 n=b4 v=89
277230 On ch=1 n=d#5 v=91
277240 On ch=1 n=g#4 v=77
277274 On ch=1 n=b4 v=0
277276 On ch=1 n=d#5 v=0
277282 On ch=1 n=g#4 v=0
277594 On ch=1 n=b4 v=103
277596 On ch=1 n=d#5 v=110
277600 On ch=1 n=g#4 v=97
277618 Par ch=1 c=64 v=127
277644 On ch=1 n=b4 v=0
277650 On ch=1 n=d#5 v=0
277652 On ch=1 n=g#4 v=0
277700 On ch=1 n=e5 v=0
277716 On ch=1 n=b5 v=0
277728 On ch=1 n=g#5 v=0
278072 On ch=1 n=e5 v=84
278078 On ch=1 n=c#5 v=84
278082 On ch=1 n=a4 v=66
278084 On ch=1 n=f#4 v=76
278086 On ch=1 n=c#6 v=99
278088 On ch=1 n=a5 v=92
278092 On ch=1 n=f#5 v=93
278120 On ch=1 n=c#5 v=0
278122 On ch=1 n=e5 v=0
278126 On ch=1 n=f#5 v=0
278126 On ch=1 n=a5 v=0
278134 Par ch=1 c=64 v=63
278136 On ch=1 n=a4 v=0
278138 On ch=1 n=f#4 v=0
278150 Par ch=1 c=64 v=0
278158 On ch=1 n=c#6 v=0
278376 On ch=1 n=f#4 v=90
278380 On ch=1 n=c#5 v=94
278382 On ch=1 n=e5 v=89
278386 On ch=1 n=c#6 v=106
278390 On ch=1 n=a4 v=74
278396 On ch=1 n=f#5 v=104
278398 On ch=1 n=a5 v=93
278402 Par ch=1 c=64 v=127
278428 On ch=1 n=e5 v=0
278436 On ch=1 n=c#5 v=0
278446 On ch=1 n=a5 v=0
278458 On ch=1 n=a4 v=0
278470 On ch=1 n=f#5 v=0
278480 On ch=1 n=f#4 v=0
278484 On ch=1 n=c#6 v=0
278730 On ch=1 n=b5 v=97
278756 On ch=1 n=b3 v=99
278758 On ch=1 n=e5 v=36
278798 On ch=1 n=e5 v=0
278798 On ch=1 n=f#4 v=78
278808 On ch=1 n=b5 v=0
278830 On ch=1 n=b3 v=0
278836 On ch=1 n=c#6 v=115
278840 On ch=1 n=f#5 v=99
278842 On ch=1 n=a5 v=94
278844 Par ch=1 c=64 v=63
278848 Par ch=1 c=64 v=0
278872 On ch=1 n=f#5 v=0
278882 On ch=1 n=c#5 v=92
278902 On ch=1 n=a5 v=0
278920 On ch=1 n=f#4 v=0
278936 On ch=1 n=c#5 v=0
278936 On ch=1 n=c#6 v=0
279096 On ch=1 n=b3 v=56
279148 On ch=1 n=f#4 v=92
279160 On ch=1 n=f#6 v=100
279162 On ch=1 n=b3 v=0
279164 On ch=1 n=e6 v=107
279168 On ch=1 n=a5 v=103
279190 On ch=1 n=c#5 v=109
279192 Par ch=1 c=64 v=127
279214 On ch=1 n=a5 v=0
279216 On ch=1 n=f#4 v=0
279230 On ch=1 n=c#5 v=0
279234 On ch=1 n=e6 v=0
279248 On ch=1 n=f#6 v=0
279618 Par ch=1 c=64 v=63
279624 On ch=1 n=e4 v=93
279624 On ch=1 n=a3 v=87
279628 Par ch=1 c=64 v=0
279638 On ch=1 n=a6 v=118
279646 On ch=1 n=c#6 v=115
279650 On ch=1 n=f#6 v=106
279674 On ch=1 n=e4 v=0
279682 On ch=1 n=f#6 v=0
279684 On ch=1 n=c#6 v=0
279696 On ch=1 n=a3 v=0
279708 On ch=1 n=a6 v=0
279934 On ch=1 n=a3 v=92
279938 On ch=1 n=a6 v=109
279942 On ch=1 n=f#6 v=113
279942 On ch=1 n=e4 v=96
279944 On ch=1 n=c#6 v=113
279950 On ch=1 n=g#6 v=107
279966 Par ch=1 c=64 v=127
279982 On ch=1 n=a6 v=0
280010 On ch=1 n=e4 v=0
280010 On ch=1 n=a3 v=0
280044 On ch=1 n=a6 v=73
280070 On ch=1 n=g#6 v=0
280434 On ch=1 n=a5 v=92
280438 On ch=1 n=c#5 v=99
280446 On ch=1 n=f#5 v=88
280482 On ch=1 n=f#5 v=0
280512 On ch=1 n=a5 v=0
280514 On ch=1 n=c#5 v=0
280710 On ch=1 n=a6 v=0
280734 On ch=1 n=f#6 v=0
280746 On ch=1 n=c#6 v=0
280760 On ch=1 n=a5 v=93
280760 On ch=1 n=c#5 v=109
280762 On ch=1 n=f#5 v=104
280792 On ch=1 n=a5 v=0
280798 On ch=1 n=f#5 v=0
280832 On ch=1 n=c#5 v=0
280894 On ch=1 n=d#6 v=24
280944 On ch=1 n=d#6 v=0
281100 On ch=1 n=g#6 v=95
281120 On ch=1 n=e6 v=70
281148 On ch=1 n=c#6 v=63
281162 On ch=1 n=e6 v=0
281186 On ch=1 n=c#6 v=0
281190 On ch=1 n=g#6 v=0
281210 On ch=1 n=c#6 v=97
281214 On ch=1 n=f#6 v=107
281214 On ch=1 n=f#3 v=91
281216 On ch=1 n=c#4 v=103
281218 On ch=1 n=a5 v=101
281262 On ch=1 n=f#3 v=0
281268 On ch=1 n=c#6 v=0
281278 On ch=1 n=f#6 v=0
281280 On ch=1 n=a5 v=0
281280 On ch=1 n=c#4 v=0
281500 Par ch=1 c=64 v=63
281510 On ch=1 n=c#6 v=116
281514 Par ch=1 c=64 v=0
281516 On ch=1 n=a5 v=102
281516 On ch=1 n=f#3 v=101
281518 On ch=1 n=c#4 v=110
281526 On ch=1 n=f#5 v=104
281558 Par ch=1 c=64 v=63
281578 On ch=1 n=c#4 v=0
281578 On ch=1 n=f#3 v=0
281580 Par ch=1 c=64 v=127
281586 On ch=1 n=a5 v=0
281590 On ch=1 n=f#5 v=0
281614 On ch=1 n=c#6 v=0
281874 On ch=1 n=b5 v=93
281896 On ch=1 n=e5 v=77
281940 On ch=1 n=e5 v=0
281972 On ch=1 n=b5 v=0
281978 On ch=1 n=a4 v=102
281982 On ch=1 n=b3 v=94
281984 On ch=1 n=c#6 v=114
282002 Par ch=1 c=64 v=63
282004 On ch=1 n=a5 v=76
282012 Par ch=1 c=64 v=0
282042 On ch=1 n=a5 v=0
282044 On ch=1 n=a4 v=0
282052 On ch=1 n=b3 v=0
282080 On ch=1 n=c#6 v=0
282296 On ch=1 n=b3 v=98
282298 On ch=1 n=f#6 v=107
282300 On ch=1 n=e3 v=89
282308 On ch=1 n=c#6 v=106
282308 On ch=1 n=g#5 v=99
282342 Par ch=1 c=64 v=127
282362 On ch=1 n=b3 v=0
282364 On ch=1 n=e3 v=0
282416 On ch=1 n=g#5 v=0
282416 On ch=1 n=f#6 v=0
282490 On ch=1 n=c#6 v=0
282562 On ch=1 n=e6 v=81
282630 On ch=1 n=e6 v=0
282806 On ch=1 n=b5 v=100
282814 On ch=1 n=g#5 v=96
282828 On ch=1 n=e5 v=58
282850 Par ch=1 c=64 v=63
282852 On ch=1 n=g#5 v=0
282860 Par ch=1 c=64 v=0
282874 On ch=1 n=b5 v=0
282878 On ch=1 n=e5 v=0
283112 On ch=1 n=b5 v=107
283120 On ch=1 n=e5 v=99
283124 On ch=1 n=g#5 v=105
283182 On ch=1 n=b5 v=0
283204 On ch=1 n=a5 v=82
283254 On ch=1 n=b5 v=89
283312 On ch=1 n=a5 v=0
283582 On ch=1 n=b4 v=81
283584 On ch=1 n=d#5 v=88
283600 On ch=1 n=g#4 v=72
283628 On ch=1 n=b4 v=0
283640 On ch=1 n=d#5 v=0
283642 On ch=1 n=g#4 v=0
283926 On ch=1 n=b4 v=100
283932 On ch=1 n=d#5 v=104
283934 On ch=1 n=g#4 v=93
283956 Par ch=1 c=64 v=127
283988 On ch=1 n=b4 v=0
283992 On ch=1 n=d#5 v=0
284000 On ch=1 n=e5 v=0
284002 On ch=1 n=g#4 v=0
284020 On ch=1 n=g#5 v=0
284022 On ch=1 n=b5 v=0
284378 On ch=1 n=e5 v=87
284384 On ch=1 n=c#5 v=85
284386 On ch=1 n=d#6 v=96
284390 On ch=1 n=b5 v=92
284400 On ch=1 n=g#5 v=79
284410 On ch=1 n=a4 v=29
284426 On ch=1 n=c#5 v=0
284430 On ch=1 n=b5 v=0
284434 On ch=1 n=g#5 v=0
284440 On ch=1 n=e5 v=0
284452 On ch=1 n=a4 v=0
284466 Par ch=1 c=64 v=63
284470 On ch=1 n=d#6 v=0
284480 Par ch=1 c=64 v=0
284714 On ch=1 n=f#4 v=94
284718 On ch=1 n=c#5 v=96
284718 On ch=1 n=e5 v=92
284724 On ch=1 n=d#6 v=108
284726 On ch=1 n=a4 v=75
284726 On ch=1 n=b5 v=102
284732 On ch=1 n=g#5 v=100
284754 Par ch=1 c=64 v=127
284756 On ch=1 n=e5 v=0
284762 On ch=1 n=c#5 v=0
284766 On ch=1 n=b5 v=0
284774 On ch=1 n=g#5 v=0
284776 On ch=1 n=a4 v=0
284794 On ch=1 n=d#6 v=0
284800 On ch=1 n=f#4 v=0
285094 On ch=1 n=c#6 v=87
285108 On ch=1 n=a5 v=63
285114 On ch=1 n=f#5 v=51
285118 On ch=1 n=b3 v=93
285156 On ch=1 n=f#5 v=0
285166 On ch=1 n=a5 v=0
285186 On ch=1 n=f#4 v=72
285194 On ch=1 n=d#6 v=109
285200 On ch=1 n=b3 v=0
285206 On ch=1 n=b5 v=97
285216 On ch=1 n=g#5 v=87
285238 On ch=1 n=c#5 v=106
285250 On ch=1 n=c#6 v=0
285252 On ch=1 n=g#5 v=0
285270 On ch=1 n=b5 v=0
285274 On ch=1 n=f#4 v=0
285292 On ch=1 n=d#6 v=0
285294 On ch=1 n=c#5 v=0
285430 On ch=1 n=b3 v=68
285470 Par ch=1 c=64 v=63
285480 Par ch=1 c=64 v=0
285496 On ch=1 n=f#4 v=93
285498 On ch=1 n=g#6 v=113
285502 On ch=1 n=b3 v=0
285502 On ch=1 n=a5 v=101
285502 On ch=1 n=c#6 v=112
285504 Par ch=1 c=64 v=63
285506 On ch=1 n=d#6 v=108
285524 Par ch=1 c=64 v=127
285528 On ch=1 n=c#5 v=123
285544 On ch=1 n=a5 v=0
285564 On ch=1 n=c#6 v=0
285568 On ch=1 n=d#6 v=0
285572 On ch=1 n=g#6 v=0
285574 On ch=1 n=f#4 v=0
285586 On ch=1 n=c#5 v=0
285978 On ch=1 n=e4 v=108
285980 On ch=1 n=d#6 v=88
285984 On ch=1 n=b6 v=93
285986 On ch=1 n=f#6 v=95
285986 On ch=1 n=a3 v=100
285988 On ch=1 n=c#6 v=106
285994 On ch=1 n=e6 v=98
286020 On ch=1 n=d#6 v=0
286022 Par ch=1 c=64 v=63
286026 On ch=1 n=e6 v=0
286032 Par ch=1 c=64 v=0
286036 On ch=1 n=a3 v=0
286038 On ch=1 n=c#6 v=0
286046 On ch=1 n=f#6 v=0
286048 On ch=1 n=e4 v=0
286062 On ch=1 n=b6 v=0
286304 On ch=1 n=b6 v=109
286308 On ch=1 n=a3 v=116
286308 On ch=1 n=f#6 v=105
286308 On ch=1 n=e4 v=120
286312 On ch=1 n=e6 v=107
286332 Par ch=1 c=64 v=127
286372 On ch=1 n=e4 v=0
286372 On ch=1 n=c#6 v=98
286378 On ch=1 n=a3 v=0
286380 On ch=1 n=b6 v=0
286394 On ch=1 n=f#6 v=0
286454 On ch=1 n=b6 v=80
286454 On ch=1 n=f#6 v=79
286830 On ch=1 n=f#5 v=96
286830 On ch=1 n=b5 v=99
286834 On ch=1 n=c#5 v=82
286852 On ch=1 n=e5 v=78
286892 On ch=1 n=c#5 v=0
286896 On ch=1 n=e5 v=0
286900 On ch=1 n=b5 v=0
286900 On ch=1 n=f#5 v=0
287094 On ch=1 n=b6 v=0
287134 On ch=1 n=c#6 v=0
287136 On ch=1 n=c#5 v=105
287136 On ch=1 n=b5 v=108
287138 On ch=1 n=f#5 v=105
287146 On ch=1 n=e5 v=91
287150 On ch=1 n=e6 v=0
287152 On ch=1 n=f#6 v=0
287192 On ch=1 n=b5 v=0
287206 On ch=1 n=f#5 v=0
287226 On ch=1 n=e5 v=0
287232 On ch=1 n=c#5 v=0
287506 On ch=1 n=a6 v=107
287518 On ch=1 n=c#6 v=89
287550 On ch=1 n=c#6 v=0
287568 On ch=1 n=a6 v=0
287602 On ch=1 n=g#6 v=101
287602 On ch=1 n=e6 v=89
287610 On ch=1 n=c#4 v=105
287612 On ch=1 n=f#3 v=96
287614 On ch=1 n=b5 v=91
287662 On ch=1 n=b5 v=0
287668 On ch=1 n=c#4 v=0
287668 On ch=1 n=e6 v=0
287676 On ch=1 n=f#3 v=0
287686 On ch=1 n=g#6 v=0
287790 On ch=1 n=f#6 v=66
287830 On ch=1 n=f#6 v=0
287892 On ch=1 n=f#6 v=101
287900 On ch=1 n=a5 v=107
287906 On ch=1 n=c#4 v=113
287908 On ch=1 n=f#3 v=105
287960 On ch=1 n=a5 v=0
287960 On ch=1 n=f#6 v=0
287972 On ch=1 n=f#3 v=0
287976 On ch=1 n=c#4 v=0
288274 On ch=1 n=c#6 v=97
288282 On ch=1 n=a5 v=84
288288 Par ch=1 c=64 v=63
288296 On ch=1 n=f#5 v=66
288304 Par ch=1 c=64 v=0
288332 On ch=1 n=f#5 v=0
288348 On ch=1 n=a5 v=0
288378 On ch=1 n=f#5 v=103
288384 On ch=1 n=b3 v=97
288384 On ch=1 n=a4 v=93
288386 On ch=1 n=b4 v=112
288386 On ch=1 n=d#6 v=110
288388 On ch=1 n=b5 v=100
288428 On ch=1 n=c#6 v=0
288446 On ch=1 n=b4 v=0
288452 On ch=1 n=a4 v=0
288456 On ch=1 n=b3 v=0
288464 On ch=1 n=b5 v=0
288466 On ch=1 n=f#5 v=0
288508 On ch=1 n=d#6 v=0
288658 On ch=1 n=b5 v=47
288698 On ch=1 n=b5 v=0
288702 On ch=1 n=e6 v=103
288706 On ch=1 n=b5 v=102
288706 On ch=1 n=g#5 v=112
288714 On ch=1 n=b3 v=114
288716 On ch=1 n=e3 v=117
288742 Par ch=1 c=64 v=127
288766 On ch=1 n=e3 v=0
288768 On ch=1 n=b5 v=0
288770 On ch=1 n=b3 v=0
288770 On ch=1 n=g#5 v=0
288778 On ch=1 n=e6 v=0
289332 Par ch=1 c=64 v=63
289346 Par ch=1 c=64 v=0
289382 On ch=1 n=d7 v=82
289388 On ch=1 n=g6 v=69
289390 On ch=1 n=b6 v=68
289434 On ch=1 n=b6 v=0
289442 On ch=1 n=g6 v=0
289450 On ch=1 n=d7 v=0
289746 On ch=1 n=d7 v=102
289760 On ch=1 n=g6 v=81
289766 On ch=1 n=b6 v=81
289840 On ch=1 n=c#7 v=93
289848 On ch=1 n=d7 v=0
289918 On ch=1 n=d7 v=81
289960 On ch=1 n=c#7 v=0
290318 On ch=1 n=f#6 v=80
290324 On ch=1 n=d6 v=76
290344 On ch=1 n=b5 v=58
290366 On ch=1 n=d6 v=0
290366 On ch=1 n=f#6 v=0
290392 On ch=1 n=b5 v=0
290694 On ch=1 n=f#6 v=100
290696 On ch=1 n=d6 v=93
290700 On ch=1 n=b5 v=89
290732 On ch=1 n=d6 v=0
290734 Par ch=1 c=64 v=127
290736 On ch=1 n=f#6 v=0
290756 On ch=1 n=b5 v=0
291216 On ch=1 n=b5 v=77
291218 On ch=1 n=a4 v=67
291222 On ch=1 n=e5 v=79
291292 On ch=1 n=b5 v=0
291300 On ch=1 n=e5 v=0
291308 On ch=1 n=a4 v=0
291526 On ch=1 n=a4 v=85
291528 On ch=1 n=b5 v=94
291536 On ch=1 n=e5 v=93
291592 On ch=1 n=a4 v=0
291602 On ch=1 n=b5 v=0
291604 On ch=1 n=e5 v=0
291876 On ch=1 n=d7 v=0
291916 On ch=1 n=g6 v=0
291924 On ch=1 n=b6 v=0
291944 On ch=1 n=e7 v=52
292002 On ch=1 n=e7 v=0
292030 On ch=1 n=f6 v=109
292034 On ch=1 n=c#6 v=106
292038 On ch=1 n=a#5 v=101
292042 On ch=1 n=c#7 v=112
292050 On ch=1 n=g#6 v=105
292054 On ch=1 n=a#6 v=103
292064 On ch=1 n=f6 v=0
292080 On ch=1 n=a#6 v=0
292080 On ch=1 n=g#6 v=0
292086 On ch=1 n=c#6 v=0
292100 On ch=1 n=a#5 v=0
292102 On ch=1 n=c#7 v=0
292350 Par ch=1 c=64 v=63
292364 Par ch=1 c=64 v=0
292370 On ch=1 n=c#7 v=103
292372 On ch=1 n=a#6 v=97
292372 On ch=1 n=f6 v=99
292374 On ch=1 n=d4 v=107
292376 On ch=1 n=a4 v=113
292378 On ch=1 n=c#6 v=114
292388 On ch=1 n=g#6 v=84
292432 On ch=1 n=a4 v=0
292438 On ch=1 n=d4 v=0
292438 Par ch=1 c=64 v=63
292446 Par ch=1 c=64 v=127
292474 On ch=1 n=c#6 v=0
292486 On ch=1 n=f6 v=0
292488 On ch=1 n=g#6 v=0
292526 On ch=1 n=a#6 v=0
292534 On ch=1 n=c#7 v=0
292916 On ch=1 n=c7 v=92
292918 Par ch=1 c=64 v=63
292920 On ch=1 n=a6 v=84
292922 On ch=1 n=f6 v=81
292926 Par ch=1 c=64 v=0
292956 On ch=1 n=a6 v=0
292960 On ch=1 n=c7 v=0
292962 On ch=1 n=f6 v=0
293256 On ch=1 n=c7 v=104
293266 On ch=1 n=a6 v=97
293266 On ch=1 n=f6 v=90
293326 On ch=1 n=b6 v=80
293330 On ch=1 n=c7 v=0
293386 On ch=1 n=c7 v=93
293434 On ch=1 n=b6 v=0
293772 On ch=1 n=a5 v=69
293778 On ch=1 n=e6 v=63
293784 On ch=1 n=c6 v=59
293828 On ch=1 n=a5 v=0
293830 On ch=1 n=c6 v=0
293840 On ch=1 n=e6 v=0
294142 On ch=1 n=e6 v=100
294146 On ch=1 n=a5 v=87
294146 On ch=1 n=c6 v=90
294170 Par ch=1 c=64 v=127
294186 On ch=1 n=c6 v=0
294192 On ch=1 n=e6 v=0
294218 On ch=1 n=a5 v=0
294662 On ch=1 n=a5 v=84
294666 On ch=1 n=g4 v=74
294676 On ch=1 n=d5 v=92
294744 On ch=1 n=d5 v=0
294752 On ch=1 n=a5 v=0
294784 On ch=1 n=g4 v=0
294960 On ch=1 n=g4 v=83
294968 On ch=1 n=a5 v=106
294968 On ch=1 n=d5 v=109
295022 On ch=1 n=d5 v=0
295034 On ch=1 n=g4 v=0
295036 On ch=1 n=a5 v=0
295360 On ch=1 n=c7 v=0
295392 On ch=1 n=d7 v=94
295394 On ch=1 n=a6 v=0
295446 On ch=1 n=f6 v=0
295470 On ch=1 n=b5 v=104
295472 On ch=1 n=e6 v=107
295476 On ch=1 n=g#5 v=99
295482 On ch=1 n=b6 v=107
295484 On ch=1 n=f6 v=87
295492 On ch=1 n=g#6 v=106
295504 On ch=1 n=d7 v=0
295512 On ch=1 n=e6 v=0
295516 On ch=1 n=b5 v=0
295528 On ch=1 n=f6 v=0
295530 On ch=1 n=g#6 v=0
295536 On ch=1 n=g#5 v=0
295546 On ch=1 n=b6 v=0
295804 Par ch=1 c=64 v=63
295814 On ch=1 n=g4 v=101
295816 On ch=1 n=e6 v=100
295818 On ch=1 n=c4 v=94
295820 Par ch=1 c=64 v=0
295820 On ch=1 n=g#6 v=96
295820 On ch=1 n=b6 v=102
295830 On ch=1 n=b5 v=98
295888 On ch=1 n=b5 v=0
295894 On ch=1 n=e6 v=0
295894 Par ch=1 c=64 v=63
295898 On ch=1 n=b6 v=0
295898 Par ch=1 c=64 v=127
295904 On ch=1 n=g#6 v=0
296324 On ch=1 n=g4 v=0
296328 On ch=1 n=c4 v=0
296372 On ch=1 n=b5 v=120
296380 On ch=1 n=e5 v=114
296386 On ch=1 n=g#5 v=104
296428 On ch=1 n=g#5 v=0
296434 On ch=1 n=e5 v=0
296440 On ch=1 n=b5 v=0
296718 On ch=1 n=b5 v=120
296736 On ch=1 n=e5 v=96
296738 On ch=1 n=g#5 v=104
296800 On ch=1 n=a5 v=85
296802 On ch=1 n=b5 v=0
296804 Par ch=1 c=64 v=63
296808 Par ch=1 c=64 v=0
296898 On ch=1 n=b5 v=113
296962 Par ch=1 c=64 v=63
296962 Par ch=1 c=64 v=127
296970 On ch=1 n=a5 v=0
297184 On ch=1 n=b5 v=0
297194 On ch=1 n=e5 v=0
297208 On ch=1 n=g#5 v=0
297436 On ch=1 n=f3 v=96
297438 On ch=1 n=b3 v=100
297440 On ch=1 n=b4 v=99
297446 On ch=1 n=d#5 v=106
297450 On ch=1 n=g#4 v=89
297484 On ch=1 n=g#4 v=0
297500 On ch=1 n=b3 v=0
297506 On ch=1 n=b4 v=0
297520 On ch=1 n=f3 v=0
297530 On ch=1 n=d#5 v=0
297784 On ch=1 n=d#5 v=114
297786 On ch=1 n=g#4 v=108
297788 On ch=1 n=b4 v=100
297790 On ch=1 n=b3 v=113
297792 On ch=1 n=f3 v=107
297848 On ch=1 n=g#4 v=0
297854 On ch=1 n=b3 v=0
297856 On ch=1 n=b4 v=0
297876 On ch=1 n=f3 v=0
297892 On ch=1 n=d#5 v=0
298266 On ch=1 n=c#3 v=109
298268 On ch=1 n=g#3 v=113
298282 On ch=1 n=c#6 v=118
298286 On ch=1 n=g#5 v=116
298286 On ch=1 n=d#5 v=120
298306 Par ch=1 c=64 v=63
298308 Par ch=1 c=64 v=0
298328 On ch=1 n=c#3 v=0
298332 On ch=1 n=g#3 v=0
298334 On ch=1 n=d#5 v=0
298344 On ch=1 n=g#5 v=0
298368 On ch=1 n=c#6 v=0
298630 On ch=1 n=b4 v=107
298630 On ch=1 n=f4 v=108
298640 On ch=1 n=c#6 v=114
298646 On ch=1 n=g#5 v=115
298648 On ch=1 n=d#5 v=114
298660 Par ch=1 c=64 v=127
298686 On ch=1 n=f4 v=0
298688 On ch=1 n=b4 v=0
298712 On ch=1 n=d#5 v=0
298826 On ch=1 n=g#5 v=0
298916 On ch=1 n=c#6 v=0
299032 On ch=1 n=b5 v=80
299124 On ch=1 n=b5 v=0
299138 On ch=1 n=f#3 v=100
299152 On ch=1 n=c#4 v=106
299152 On ch=1 n=c#6 v=119
299164 On ch=1 n=d#5 v=110
299168 On ch=1 n=g#5 v=101
299194 On ch=1 n=d#5 v=0
299196 On ch=1 n=g#5 v=0
299200 On ch=1 n=f#3 v=0
299206 On ch=1 n=c#4 v=0
299240 On ch=1 n=c#6 v=0
299628 On ch=1 n=c#5 v=60
299636 On ch=1 n=g#6 v=85
299644 On ch=1 n=c#6 v=50
299652 On ch=1 n=f5 v=47
299652 On ch=1 n=f6 v=61
299656 On ch=1 n=a4 v=29
299662 On ch=1 n=a5 v=39
299690 Par ch=1 c=67 v=127
299738 Par ch=1 c=64 v=63
299758 Par ch=1 c=64 v=0
299924 On ch=1 n=a5 v=0
299946 On ch=1 n=c#6 v=0
299954 On ch=1 n=a4 v=0
299970 On ch=1 n=f6 v=0
299990 On ch=1 n=c#5 v=0
299996 On ch=1 n=g#6 v=0
300016 On ch=1 n=f5 v=0
300446 On ch=1 n=b6 v=84
300446 On ch=1 n=g#6 v=78
300448 On ch=1 n=b5 v=67
300452 On ch=1 n=e6 v=80
300454 On ch=1 n=g#5 v=72
300456 On ch=1 n=c5 v=62
300476 On ch=1 n=e5 v=52
300480 On ch=1 n=c6 v=22
300500 On ch=1 n=e6 v=0
300508 On ch=1 n=g#5 v=0
300512 On ch=1 n=b5 v=0
300520 On ch=1 n=c6 v=0
300520 On ch=1 n=g#6 v=0
300528 On ch=1 n=e5 v=0
300528 On ch=1 n=b6 v=0
300534 On ch=1 n=c5 v=0
300854 On ch=1 n=b6 v=71
300854 On ch=1 n=g#6 v=79
300860 On ch=1 n=g#5 v=61
300862 On ch=1 n=b5 v=59
300864 On ch=1 n=e6 v=84
300876 On ch=1 n=e5 v=65
300884 Par ch=1 c=64 v=127
300884 On ch=1 n=c5 v=48
300920 On ch=1 n=c6 v=52
300930 On ch=1 n=g#6 v=0
300938 On ch=1 n=b6 v=0
300988 On ch=1 n=b5 v=0
300990 On ch=1 n=b6 v=66
300994 On ch=1 n=g#6 v=78
301006 On ch=1 n=g#5 v=0
301024 On ch=1 n=e5 v=0
301050 On ch=1 n=c5 v=0
301432 On ch=1 n=b3 v=86
301438 On ch=1 n=b2 v=86
301498 On ch=1 n=b2 v=0
301510 On ch=1 n=b3 v=0
301746 On ch=1 n=b2 v=86
301766 On ch=1 n=b3 v=78
301768 On ch=1 n=b6 v=0
301790 On ch=1 n=b2 v=0
301790 On ch=1 n=e6 v=0
301796 On ch=1 n=g#6 v=0
301812 On ch=1 n=c6 v=0
301824 On ch=1 n=b3 v=0
302132 On ch=1 n=a6 v=89
302142 On ch=1 n=f6 v=90
302154 On ch=1 n=a4 v=77
302162 On ch=1 n=c#5 v=90
302202 On ch=1 n=a6 v=0
302226 On ch=1 n=f5 v=91
302226 On ch=1 n=g#6 v=90
302230 On ch=1 n=f6 v=0
302244 On ch=1 n=c#5 v=0
302250 On ch=1 n=a4 v=0
302256 On ch=1 n=c#6 v=90
302290 On ch=1 n=c#6 v=0
302296 On ch=1 n=f5 v=0
302302 On ch=1 n=g#6 v=0
302308 Par ch=1 c=64 v=63
302320 Par ch=1 c=64 v=0
302560 On ch=1 n=f#6 v=98
302566 On ch=1 n=a5 v=88
302568 On ch=1 n=f#5 v=100
302570 On ch=1 n=c#6 v=90
302592 Par ch=1 c=64 v=63
302594 Par ch=1 c=64 v=127
302602 On ch=1 n=f#5 v=0
302604 On ch=1 n=c#6 v=0
302610 On ch=1 n=a5 v=0
302634 On ch=1 n=f#6 v=0
302936 On ch=1 n=c#6 v=95
302948 On ch=1 n=a5 v=66
302980 Par ch=1 c=64 v=63
302986 Par ch=1 c=64 v=0
302988 On ch=1 n=b2 v=82
303016 On ch=1 n=b3 v=76
303020 On ch=1 n=d#6 v=101
303036 On ch=1 n=c#6 v=0
303054 On ch=1 n=b2 v=0
303060 On ch=1 n=a5 v=0
303062 On ch=1 n=b3 v=0
303102 On ch=1 n=d#6 v=0
303350 On ch=1 n=g#5 v=82
303352 On ch=1 n=b5 v=77
303354 On ch=1 n=e6 v=85
303358 On ch=1 n=e3 v=82
303366 On ch=1 n=e4 v=67
303366 Par ch=1 c=64 v=63
303368 Par ch=1 c=64 v=127
303406 On ch=1 n=b5 v=0
303412 On ch=1 n=g#5 v=0
303434 On ch=1 n=e6 v=0
303440 On ch=1 n=e3 v=0
303450 On ch=1 n=e4 v=0
303896 Par ch=1 c=67 v=0
303952 On ch=1 n=d7 v=91
303954 On ch=1 n=g6 v=86
303956 On ch=1 n=b6 v=84
303992 On ch=1 n=b6 v=0
303992 Par ch=1 c=64 v=63
303998 On ch=1 n=g6 v=0
304000 Par ch=1 c=64 v=0
304012 On ch=1 n=d7 v=0
304354 On ch=1 n=d7 v=96
304362 On ch=1 n=g6 v=82
304376 On ch=1 n=b6 v=79
304404 Par ch=1 c=64 v=127
304428 On ch=1 n=c#7 v=88
304432 On ch=1 n=d7 v=0
304488 On ch=1 n=d7 v=92
304524 On ch=1 n=c#7 v=0
304948 On ch=1 n=f#6 v=79
304952 On ch=1 n=d6 v=62
304972 On ch=1 n=b5 v=50
304990 On ch=1 n=f#6 v=0
305000 On ch=1 n=d6 v=0
305028 On ch=1 n=b5 v=0
305300 On ch=1 n=f#6 v=100
305300 On ch=1 n=d6 v=93
305304 On ch=1 n=b5 v=92
305340 On ch=1 n=d6 v=0
305344 On ch=1 n=f#6 v=0
305378 On ch=1 n=b5 v=0
305804 On ch=1 n=b5 v=76
305810 On ch=1 n=a4 v=72
305814 On ch=1 n=e5 v=84
305884 On ch=1 n=b5 v=0
305894 On ch=1 n=e5 v=0
305908 On ch=1 n=a4 v=0
306122 On ch=1 n=a4 v=68
306134 On ch=1 n=e5 v=111
306138 On ch=1 n=b5 v=108
306190 On ch=1 n=e5 v=0
306194 On ch=1 n=a4 v=0
306204 On ch=1 n=b5 v=0
306468 On ch=1 n=d7 v=0
306470 On ch=1 n=g6 v=0
306486 On ch=1 n=b6 v=0
306526 On ch=1 n=e7 v=91
306602 On ch=1 n=e7 v=0
306640 On ch=1 n=c#7 v=112
306646 On ch=1 n=f6 v=103
306646 On ch=1 n=c#6 v=107
306656 On ch=1 n=g#6 v=103
306656 On ch=1 n=a#5 v=93
306670 On ch=1 n=a#6 v=76
306680 On ch=1 n=f6 v=0
306688 On ch=1 n=g#6 v=0
306692 On ch=1 n=c#6 v=0
306702 On ch=1 n=c#7 v=0
306704 On ch=1 n=a#5 v=0
306706 On ch=1 n=a#6 v=0
306968 Par ch=1 c=64 v=63
306982 Par ch=1 c=64 v=0
306992 On ch=1 n=c#7 v=101
306992 On ch=1 n=a4 v=103
306992 On ch=1 n=a#6 v=99
306996 On ch=1 n=d4 v=102
306996 On ch=1 n=f6 v=104
307000 On ch=1 n=c#6 v=113
307010 On ch=1 n=g#6 v=90
307052 On ch=1 n=d4 v=0
307056 On ch=1 n=a4 v=0
307074 Par ch=1 c=64 v=63
307076 Par ch=1 c=64 v=127
307210 On ch=1 n=g#6 v=0
307210 On ch=1 n=f6 v=0
307232 On ch=1 n=c#6 v=0
307262 On ch=1 n=a#6 v=0
307270 On ch=1 n=c#7 v=0
307566 On ch=1 n=a6 v=80
307566 On ch=1 n=c7 v=88
307572 On ch=1 n=f6 v=72
307600 Par ch=1 c=64 v=63
307608 Par ch=1 c=64 v=0
307612 On ch=1 n=a6 v=0
307616 On ch=1 n=f6 v=0
307634 On ch=1 n=c7 v=0
307886 On ch=1 n=c7 v=96
307894 On ch=1 n=f6 v=87
307900 On ch=1 n=a6 v=85
307944 On ch=1 n=b6 v=83
307958 On ch=1 n=c7 v=0
308016 On ch=1 n=c7 v=87
308058 On ch=1 n=b6 v=0
308420 On ch=1 n=e6 v=87
308430 On ch=1 n=a5 v=68
308434 On ch=1 n=c6 v=67
308476 On ch=1 n=c6 v=0
308476 On ch=1 n=e6 v=0
308488 On ch=1 n=a5 v=0
308788 On ch=1 n=a5 v=91
308788 On ch=1 n=e6 v=97
308790 On ch=1 n=c6 v=98
308818 Par ch=1 c=64 v=127
308834 On ch=1 n=e6 v=0
308836 On ch=1 n=c6 v=0
308858 On ch=1 n=a5 v=0
309300 On ch=1 n=a5 v=79
309306 On ch=1 n=g4 v=69
309308 On ch=1 n=d5 v=79
309376 On ch=1 n=d5 v=0
309378 On ch=1 n=a5 v=0
309404 On ch=1 n=g4 v=0
309606 Par ch=1 c=64 v=63
309612 Par ch=1 c=64 v=0
309630 On ch=1 n=a5 v=100
309632 On ch=1 n=g4 v=82
309638 On ch=1 n=d5 v=92
309656 Par ch=1 c=64 v=63
309678 Par ch=1 c=64 v=127
309710 On ch=1 n=g4 v=0
309714 On ch=1 n=a5 v=0
309726 On ch=1 n=d5 v=0
310004 On ch=1 n=c7 v=0
310030 On ch=1 n=d7 v=90
310040 On ch=1 n=a6 v=0
310090 On ch=1 n=f6 v=0
310142 On ch=1 n=d7 v=0
310142 On ch=1 n=b5 v=101
310144 On ch=1 n=e6 v=100
310148 On ch=1 n=g#5 v=97
310150 On ch=1 n=b6 v=104
310156 On ch=1 n=g#6 v=112
310172 On ch=1 n=e6 v=0
310190 On ch=1 n=b5 v=0
310214 On ch=1 n=b6 v=0
310216 On ch=1 n=g#6 v=0
310218 On ch=1 n=g#5 v=0
310500 On ch=1 n=g4 v=104
310504 On ch=1 n=c4 v=102
310506 Par ch=1 c=64 v=63
310508 On ch=1 n=e6 v=99
310510 On ch=1 n=g#6 v=98
310512 On ch=1 n=b6 v=100
310514 On ch=1 n=b5 v=109
310526 Par ch=1 c=64 v=0
310590 Par ch=1 c=64 v=63
310598 Par ch=1 c=64 v=127
310624 On ch=1 n=g4 v=0
310640 On ch=1 n=c4 v=0
310648 On ch=1 n=b6 v=0
310680 On ch=1 n=e6 v=0
310684 On ch=1 n=g#6 v=0
310686 On ch=1 n=b5 v=0
311086 On ch=1 n=b5 v=120
311096 On ch=1 n=e5 v=107
311098 On ch=1 n=g#5 v=109
311136 On ch=1 n=g#5 v=0
311140 On ch=1 n=e5 v=0
311156 On ch=1 n=b5 v=0
311460 On ch=1 n=b5 v=117
311482 On ch=1 n=e5 v=97
311498 On ch=1 n=g#5 v=83
311566 On ch=1 n=a5 v=70
311570 On ch=1 n=b5 v=0
311576 Par ch=1 c=64 v=63
311578 Par ch=1 c=64 v=0
311648 On ch=1 n=b5 v=109
311674 Par ch=1 c=64 v=63
311682 Par ch=1 c=64 v=127
311690 On ch=1 n=a5 v=0
311948 On ch=1 n=b5 v=0
311970 On ch=1 n=g#5 v=0
311976 On ch=1 n=e5 v=0
312198 On ch=1 n=b3 v=106
312200 On ch=1 n=f3 v=98
312206 On ch=1 n=b4 v=96
312208 On ch=1 n=g#4 v=86
312210 On ch=1 n=d#5 v=105
312262 On ch=1 n=g#4 v=0
312274 On ch=1 n=b4 v=0
312274 On ch=1 n=b3 v=0
312300 On ch=1 n=f3 v=0
312302 On ch=1 n=d#5 v=0
312558 On ch=1 n=d#5 v=114
312560 On ch=1 n=f3 v=112
312560 On ch=1 n=b3 v=117
312562 On ch=1 n=g#4 v=109
312564 On ch=1 n=b4 v=101
312622 On ch=1 n=g#4 v=0
312630 On ch=1 n=b4 v=0
312638 On ch=1 n=b3 v=0
312670 On ch=1 n=f3 v=0
312670 On ch=1 n=d#5 v=0
313052 Par ch=1 c=64 v=63
313058 On ch=1 n=c#3 v=108
313058 On ch=1 n=g#3 v=114
313064 Par ch=1 c=64 v=0
313064 On ch=1 n=c#6 v=116
313072 On ch=1 n=d#5 v=116
313074 On ch=1 n=g#5 v=114
313122 On ch=1 n=d#5 v=0
313122 On ch=1 n=g#3 v=0
313124 On ch=1 n=c#3 v=0
313132 On ch=1 n=g#5 v=0
313134 Par ch=1 c=64 v=63
313144 Par ch=1 c=64 v=127
313158 On ch=1 n=c#6 v=0
313338 Par ch=1 c=64 v=63
313342 Par ch=1 c=64 v=0
313400 On ch=1 n=b4 v=109
313404 On ch=1 n=f4 v=116
313406 On ch=1 n=c#6 v=113
313414 On ch=1 n=g#5 v=114
313416 Par ch=1 c=64 v=63
313418 On ch=1 n=d#5 v=113
313424 Par ch=1 c=64 v=127
313474 On ch=1 n=f4 v=0
313478 On ch=1 n=b4 v=0
313518 On ch=1 n=d#5 v=0
313664 On ch=1 n=g#5 v=0
313708 On ch=1 n=c#6 v=0
313784 On ch=1 n=b5 v=93
313894 On ch=1 n=b5 v=0
313902 On ch=1 n=f#3 v=101
313908 On ch=1 n=c#6 v=118
313910 On ch=1 n=c#4 v=107
313920 On ch=1 n=g#5 v=110
313920 On ch=1 n=d#5 v=113
313958 On ch=1 n=d#5 v=0
313962 On ch=1 n=f#3 v=0
313966 On ch=1 n=c#4 v=0
313982 On ch=1 n=g#5 v=0
314008 On ch=1 n=c#6 v=0
314308 On ch=1 n=g#6 v=104
314308 On ch=1 n=f6 v=84
314310 On ch=1 n=a5 v=88
314316 On ch=1 n=a4 v=93
314318 On ch=1 n=f5 v=97
314324 On ch=1 n=c#6 v=82
314330 On ch=1 n=c#5 v=94
314332 Par ch=1 c=64 v=63
314340 Par ch=1 c=64 v=0
314386 On ch=1 n=c#6 v=0
314394 Par ch=1 c=64 v=63
314414 Par ch=1 c=64 v=127
314434 On ch=1 n=a5 v=0
314522 On ch=1 n=a4 v=0
314534 On ch=1 n=c#5 v=0
314552 Par ch=1 c=67 v=127
314554 On ch=1 n=g#6 v=0
314556 On ch=1 n=f5 v=0
314556 On ch=1 n=f6 v=0
315172 On ch=1 n=g#6 v=68
315176 On ch=1 n=b6 v=76
315180 On ch=1 n=g#5 v=61
315188 On ch=1 n=e6 v=72
315190 On ch=1 n=b5 v=57
315190 On ch=1 n=c6 v=45
315194 Par ch=1 c=64 v=63
315196 On ch=1 n=c5 v=48
315200 On ch=1 n=e5 v=62
315212 Par ch=1 c=64 v=0
315234 On ch=1 n=e6 v=0
315240 On ch=1 n=c6 v=0
315244 On ch=1 n=b5 v=0
315246 On ch=1 n=g#6 v=0
315260 On ch=1 n=g#5 v=0
315260 On ch=1 n=b6 v=0
315268 On ch=1 n=c5 v=0
315276 On ch=1 n=e5 v=0
315620 On ch=1 n=g#5 v=52
315624 On ch=1 n=b6 v=67
315624 On ch=1 n=g#6 v=70
315634 On ch=1 n=e5 v=61
315634 On ch=1 n=b5 v=57
315638 On ch=1 n=e6 v=75
315646 Par ch=1 c=64 v=63
315648 Par ch=1 c=64 v=127
315650 On ch=1 n=c5 v=51
315692 On ch=1 n=g#6 v=0
315694 On ch=1 n=c6 v=59
315704 On ch=1 n=b6 v=0
315754 On ch=1 n=b5 v=0
315760 On ch=1 n=b6 v=59
315764 On ch=1 n=g#6 v=72
315768 On ch=1 n=g#5 v=0
315802 On ch=1 n=e5 v=0
315828 On ch=1 n=c5 v=0
316218 On ch=1 n=b3 v=81
316224 On ch=1 n=b2 v=76
316286 On ch=1 n=b3 v=0
316300 On ch=1 n=b2 v=0
316544 On ch=1 n=b2 v=84
316562 On ch=1 n=b3 v=80
316572 On ch=1 n=b6 v=0
316588 On ch=1 n=b2 v=0
316592 On ch=1 n=e6 v=0
316608 On ch=1 n=g#6 v=0
316622 On ch=1 n=b3 v=0
316622 On ch=1 n=c6 v=0
316936 On ch=1 n=a6 v=84
316948 On ch=1 n=f6 v=84
316958 On ch=1 n=a4 v=79
316974 On ch=1 n=c#5 v=88
317002 On ch=1 n=a6 v=0
317036 On ch=1 n=f6 v=0
317042 On ch=1 n=f5 v=93
317046 On ch=1 n=g#6 v=101
317056 On ch=1 n=a4 v=0
317060 On ch=1 n=c#6 v=89
317072 On ch=1 n=c#5 v=0
317092 Par ch=1 c=64 v=63
317098 On ch=1 n=c#6 v=0
317104 Par ch=1 c=64 v=0
317116 On ch=1 n=g#6 v=0
317116 On ch=1 n=f5 v=0
317378 On ch=1 n=f#6 v=96
317386 On ch=1 n=f#5 v=99
317388 On ch=1 n=a5 v=76
317390 On ch=1 n=c#6 v=85
317408 Par ch=1 c=64 v=63
317412 Par ch=1 c=64 v=127
317420 On ch=1 n=f#5 v=0
317424 On ch=1 n=c#6 v=0
317438 On ch=1 n=a5 v=0
317456 On ch=1 n=f#6 v=0
317774 On ch=1 n=c#6 v=87
317788 On ch=1 n=a5 v=62
317816 Par ch=1 c=64 v=63
317824 Par ch=1 c=64 v=0
317830 On ch=1 n=b2 v=85
317836 On ch=1 n=c#6 v=0
317854 On ch=1 n=b3 v=65
317858 On ch=1 n=d#6 v=101
317882 On ch=1 n=b5 v=67
317886 On ch=1 n=a5 v=0
317898 On ch=1 n=b2 v=0
317906 On ch=1 n=b3 v=0
317928 On ch=1 n=b5 v=0
317944 On ch=1 n=d#6 v=0
318220 On ch=1 n=e6 v=80
318226 On ch=1 n=g#5 v=65
318230 On ch=1 n=b5 v=71
318238 On ch=1 n=e4 v=76
318242 On ch=1 n=e3 v=71
318242 Par ch=1 c=64 v=63
318246 Par ch=1 c=64 v=127
318302 On ch=1 n=g#5 v=0
318318 On ch=1 n=b5 v=0
318330 On ch=1 n=e4 v=0
318334 On ch=1 n=e6 v=0
318340 On ch=1 n=e3 v=0
319162 Par ch=1 c=67 v=0
319170 Par ch=1 c=64 v=63
319180 Par ch=1 c=67 v=127
319214 Par ch=1 c=64 v=0
319230 On ch=1 n=d#5 v=59
319314 On ch=1 n=f5 v=48
319390 On ch=1 n=c6 v=68
319394 On ch=1 n=e7 v=77
319452 On ch=1 n=c7 v=80
319502 Par ch=1 c=64 v=127
319740 On ch=1 n=c6 v=0
319748 On ch=1 n=g#6 v=76
319908 On ch=1 n=e7 v=0
319950 On ch=1 n=f5 v=0
319954 On ch=1 n=c7 v=0
319968 On ch=1 n=a4 v=59
319972 On ch=1 n=d#5 v=0
319992 On ch=1 n=f6 v=72
320026 On ch=1 n=g#6 v=0
320104 On ch=1 n=f6 v=0
320162 On ch=1 n=a4 v=0
320166 On ch=1 n=c#5 v=73
320212 On ch=1 n=e5 v=37
320262 On ch=1 n=f#7 v=64
320272 Par ch=1 c=64 v=63
320304 On ch=1 n=a#5 v=76
320320 Par ch=1 c=64 v=127
320320 On ch=1 n=d#7 v=88
320454 On ch=1 n=a#5 v=0
320508 On ch=1 n=e5 v=0
320542 On ch=1 n=c#5 v=0
320556 On ch=1 n=a#6 v=79
320782 On ch=1 n=e4 v=82
320792 On ch=1 n=d#7 v=0
320800 On ch=1 n=f#7 v=0
320824 On ch=1 n=g6 v=69
320860 On ch=1 n=e4 v=0
320874 On ch=1 n=a#6 v=0
321042 On ch=1 n=g6 v=0
321046 On ch=1 n=d#5 v=67
321064 On ch=1 n=f5 v=49
321112 On ch=1 n=e7 v=87
321134 On ch=1 n=c6 v=59
321134 Par ch=1 c=64 v=63
321184 Par ch=1 c=64 v=127
321188 On ch=1 n=c7 v=68
321354 On ch=1 n=c6 v=0
321408 On ch=1 n=g#6 v=85
321594 On ch=1 n=d#5 v=0
321596 On ch=1 n=e7 v=0
321602 On ch=1 n=a4 v=60
321626 On ch=1 n=c7 v=0
321636 On ch=1 n=f6 v=78
321646 On ch=1 n=f5 v=0
321678 On ch=1 n=g#6 v=0
321728 On ch=1 n=f6 v=0
321768 On ch=1 n=a4 v=0
321772 On ch=1 n=c#5 v=80
321836 On ch=1 n=e5 v=55
321860 Par ch=1 c=64 v=63
321866 On ch=1 n=f#7 v=86
321894 On ch=1 n=a#5 v=80
321904 Par ch=1 c=64 v=127
321912 On ch=1 n=d#7 v=94
322000 On ch=1 n=a#5 v=0
322024 On ch=1 n=e5 v=0
322042 On ch=1 n=c#5 v=0
322146 On ch=1 n=a#6 v=85
322336 On ch=1 n=e4 v=77
322342 On ch=1 n=d#7 v=0
322354 On ch=1 n=f#7 v=0
322410 On ch=1 n=g6 v=68
322418 On ch=1 n=e4 v=0
322464 On ch=1 n=a#6 v=0
322574 On ch=1 n=d#5 v=61
322602 On ch=1 n=f5 v=46
322670 On ch=1 n=g6 v=0
322694 Par ch=1 c=64 v=63
322698 On ch=1 n=c6 v=63
322700 On ch=1 n=e7 v=88
322716 On ch=1 n=c7 v=76
322742 Par ch=1 c=64 v=127
322878 On ch=1 n=e7 v=0
322928 On ch=1 n=c6 v=0
323010 On ch=1 n=d7 v=91
323012 On ch=1 n=g#6 v=85
323046 On ch=1 n=c7 v=0
323154 On ch=1 n=d7 v=0
323200 On ch=1 n=f5 v=0
323214 On ch=1 n=g#6 v=0
323254 On ch=1 n=d#5 v=0
323254 On ch=1 n=a4 v=68
323260 On ch=1 n=c7 v=86
323272 On ch=1 n=f6 v=74
323354 On ch=1 n=a4 v=0
323380 On ch=1 n=c7 v=0
323384 On ch=1 n=f6 v=0
323524 On ch=1 n=b6 v=76
323528 On ch=1 n=e5 v=57
323552 On ch=1 n=e6 v=62
323562 On ch=1 n=f#5 v=70
323564 On ch=1 n=b5 v=67
323642 Par ch=1 c=64 v=63
323704 Par ch=1 c=64 v=127
323786 On ch=1 n=a6 v=90
323796 On ch=1 n=f#6 v=77
323828 On ch=1 n=b6 v=0
323880 On ch=1 n=e6 v=0
323922 On ch=1 n=b5 v=0
323982 On ch=1 n=b4 v=63
324010 On ch=1 n=e5 v=0
324010 On ch=1 n=b6 v=82
324026 On ch=1 n=a6 v=0
324028 On ch=1 n=e6 v=77
324050 On ch=1 n=f#6 v=0
324058 On ch=1 n=f#5 v=0
324130 On ch=1 n=e6 v=0
324210 On ch=1 n=e5 v=52
324216 On ch=1 n=b6 v=0
324228 On ch=1 n=f#5 v=67
324246 On ch=1 n=b4 v=0
324278 On ch=1 n=a5 v=56
324292 Par ch=1 c=64 v=63
324310 On ch=1 n=c#6 v=81
324310 On ch=1 n=f#6 v=76
324340 Par ch=1 c=64 v=127
324420 On ch=1 n=c#6 v=0
324480 On ch=1 n=f#6 v=0
324486 On ch=1 n=g6 v=65
324572 On ch=1 n=f#6 v=87
324580 On ch=1 n=g6 v=0
324636 On ch=1 n=g6 v=79
324650 On ch=1 n=f#6 v=0
324700 On ch=1 n=b4 v=56
324706 On ch=1 n=f#6 v=88
324764 On ch=1 n=e5 v=0
324774 On ch=1 n=f#6 v=0
324810 On ch=1 n=f#5 v=0
324824 On ch=1 n=a5 v=0
324828 On ch=1 n=f#6 v=94
324830 On ch=1 n=g6 v=0
324886 On ch=1 n=b4 v=0
324908 On ch=1 n=f#6 v=0
324916 On ch=1 n=e6 v=53
324946 On ch=1 n=f6 v=29
324962 On ch=1 n=f#6 v=76
324978 On ch=1 n=e5 v=65
324980 On ch=1 n=f6 v=0
324998 On ch=1 n=e6 v=0
325048 On ch=1 n=g5 v=48
325086 On ch=1 n=g6 v=91
325090 On ch=1 n=d6 v=72
325102 On ch=1 n=f#6 v=0
325102 Par ch=1 c=64 v=63
325110 Par ch=1 c=64 v=0
325146 On ch=1 n=b5 v=58
325166 Par ch=1 c=64 v=63
325186 Par ch=1 c=64 v=127
325302 On ch=1 n=d6 v=0
325304 On ch=1 n=e5 v=0
325316 On ch=1 n=g5 v=0
325348 On ch=1 n=b5 v=0
325378 On ch=1 n=b6 v=71
325428 On ch=1 n=g6 v=0
325632 On ch=1 n=f#6 v=65
325682 On ch=1 n=d7 v=74
325720 On ch=1 n=b6 v=0
325722 On ch=1 n=f#6 v=0
325788 On ch=1 n=d7 v=0
325964 On ch=1 n=d#5 v=51
326000 On ch=1 n=f5 v=60
326066 On ch=1 n=e7 v=76
326106 On ch=1 n=c6 v=45
326120 Par ch=1 c=64 v=63
326132 On ch=1 n=c7 v=79
326134 Par ch=1 c=64 v=0
326166 Par ch=1 c=64 v=63
326194 Par ch=1 c=64 v=127
326352 On ch=1 n=f5 v=0
326360 On ch=1 n=c6 v=0
326374 On ch=1 n=d#5 v=0
326412 On ch=1 n=g#6 v=78
326560 On ch=1 n=e7 v=0
326592 On ch=1 n=c7 v=0
326616 On ch=1 n=a4 v=57
326636 On ch=1 n=f6 v=71
326662 On ch=1 n=g#6 v=0
326768 On ch=1 n=a4 v=0
326772 On ch=1 n=f6 v=0
326776 On ch=1 n=c#5 v=78
326856 On ch=1 n=e5 v=47
326894 On ch=1 n=f#7 v=87
326900 Par ch=1 c=64 v=63
326930 On ch=1 n=a#5 v=69
326948 Par ch=1 c=64 v=127
326954 On ch=1 n=d#7 v=89
327036 On ch=1 n=a#5 v=0
327068 On ch=1 n=e5 v=0
327098 On ch=1 n=c#5 v=0
327172 On ch=1 n=a#6 v=81
327378 On ch=1 n=d#7 v=0
327384 On ch=1 n=f#7 v=0
327394 On ch=1 n=e4 v=86
327436 On ch=1 n=g6 v=62
327470 On ch=1 n=e4 v=0
327512 On ch=1 n=a#6 v=0
327650 On ch=1 n=g6 v=0
327664 On ch=1 n=d#5 v=63
327694 On ch=1 n=f5 v=38
327706 On ch=1 n=e7 v=85
327730 On ch=1 n=c6 v=76
327736 On ch=1 n=c7 v=79
327758 Par ch=1 c=64 v=63
327812 Par ch=1 c=64 v=127
327990 On ch=1 n=c6 v=0
327992 On ch=1 n=g#6 v=82
328142 On ch=1 n=e7 v=0
328188 On ch=1 n=c7 v=0
328228 On ch=1 n=f5 v=0
328240 On ch=1 n=a4 v=55
328246 On ch=1 n=d#5 v=0
328256 On ch=1 n=f6 v=55
328266 On ch=1 n=g#6 v=0
328320 On ch=1 n=f6 v=0
328420 On ch=1 n=a4 v=0
328438 On ch=1 n=c#5 v=71
328502 On ch=1 n=f#7 v=81
328540 On ch=1 n=e5 v=22
328550 Par ch=1 c=64 v=63
328560 On ch=1 n=d#7 v=88
328568 Par ch=1 c=64 v=0
328578 Par ch=1 c=64 v=63
328584 On ch=1 n=a#5 v=77
328608 Par ch=1 c=64 v=127
328698 On ch=1 n=a#5 v=0
328736 On ch=1 n=e5 v=0
328754 On ch=1 n=c#5 v=0
328802 On ch=1 n=a#6 v=75
329016 On ch=1 n=f#7 v=0
329022 On ch=1 n=d#7 v=0
329026 On ch=1 n=e4 v=63
329060 On ch=1 n=g6 v=60
329080 On ch=1 n=e4 v=0
329124 On ch=1 n=a#6 v=0
329264 On ch=1 n=d#5 v=56
329330 On ch=1 n=f5 v=40
329356 On ch=1 n=g6 v=0
329386 On ch=1 n=e7 v=76
329396 Par ch=1 c=64 v=63
329396 On ch=1 n=c6 v=58
329416 On ch=1 n=c7 v=70
329432 Par ch=1 c=64 v=127
329588 On ch=1 n=e7 v=0
329660 On ch=1 n=c6 v=0
329680 On ch=1 n=c7 v=0
329720 On ch=1 n=d7 v=76
329728 On ch=1 n=g#6 v=82
329836 On ch=1 n=f5 v=0
329874 On ch=1 n=d7 v=0
329966 On ch=1 n=a4 v=67
329982 On ch=1 n=g#6 v=0
329988 On ch=1 n=c7 v=84
329996 On ch=1 n=d#5 v=0
329996 On ch=1 n=f6 v=81
330052 On ch=1 n=a4 v=0
330104 On ch=1 n=c7 v=0
330124 On ch=1 n=f6 v=0
330294 On ch=1 n=e5 v=50
330300 On ch=1 n=f#5 v=80
330304 On ch=1 n=b6 v=85
330314 On ch=1 n=b5 v=58
330342 On ch=1 n=e6 v=60
330378 Par ch=1 c=64 v=63
330444 Par ch=1 c=64 v=127
330596 On ch=1 n=a6 v=85
330610 On ch=1 n=f#6 v=80
330632 On ch=1 n=b6 v=0
330694 On ch=1 n=e6 v=0
330712 On ch=1 n=b5 v=0
330834 On ch=1 n=b6 v=83
330842 On ch=1 n=b4 v=73
330854 On ch=1 n=a6 v=0
330862 On ch=1 n=e6 v=88
330864 On ch=1 n=e5 v=0
330894 On ch=1 n=f#6 v=0
330910 On ch=1 n=f#5 v=0
330970 On ch=1 n=e6 v=0
330974 On ch=1 n=b6 v=0
331064 On ch=1 n=e5 v=56
331072 On ch=1 n=f#5 v=75
331074 On ch=1 n=b4 v=0
331088 On ch=1 n=f#6 v=88
331098 On ch=1 n=c#6 v=78
331102 On ch=1 n=a5 v=61
331128 Par ch=1 c=64 v=63
331182 Par ch=1 c=64 v=127
331280 On ch=1 n=c#6 v=0
331290 On ch=1 n=f#6 v=0
331298 On ch=1 n=g6 v=65
331388 On ch=1 n=g6 v=0
331392 On ch=1 n=f#6 v=94
331448 On ch=1 n=g6 v=77
331466 On ch=1 n=f#6 v=0
331518 On ch=1 n=f#6 v=81
331522 On ch=1 n=g6 v=0
331532 On ch=1 n=b4 v=55
331570 On ch=1 n=g6 v=72
331582 On ch=1 n=f#6 v=0
331596 On ch=1 n=e5 v=0
331642 On ch=1 n=f#6 v=84
331648 On ch=1 n=g6 v=0
331680 On ch=1 n=a5 v=0
331706 On ch=1 n=f#5 v=0
331784 On ch=1 n=f#6 v=0
331790 On ch=1 n=g6 v=91
331794 On ch=1 n=b4 v=0
331884 On ch=1 n=f#6 v=80
331914 On ch=1 n=e5 v=5
331930 On ch=1 n=g6 v=0
331996 On ch=1 n=e6 v=76
331998 On ch=1 n=g5 v=56
332010 On ch=1 n=b5 v=45
332034 On ch=1 n=f#6 v=0
332114 Par ch=1 c=64 v=63
332128 Par ch=1 c=64 v=0
332248 Par ch=1 c=64 v=63
332268 Par ch=1 c=64 v=127
332420 On ch=1 n=g5 v=0
332446 On ch=1 n=b5 v=0
332478 On ch=1 n=e5 v=0
332516 On ch=1 n=e6 v=0
332984 On ch=1 n=a3 v=65
332990 Par ch=1 c=64 v=63
333016 Par ch=1 c=64 v=0
333066 On ch=1 n=e4 v=48
333106 Par ch=1 c=64 v=63
333130 Par ch=1 c=64 v=127
333148 On ch=1 n=a3 v=0
333274 On ch=1 n=d#6 v=76
333284 On ch=1 n=c5 v=55
333312 On ch=1 n=e4 v=0
333588 On ch=1 n=f5 v=61
333632 On ch=1 n=d#6 v=0
333838 On ch=1 n=c#5 v=68
333860 On ch=1 n=a#4 v=50
333866 On ch=1 n=c#6 v=83
333878 On ch=1 n=f#5 v=72
333894 On ch=1 n=c5 v=0
333928 On ch=1 n=f5 v=0
333934 On ch=1 n=a#4 v=0
333934 On ch=1 n=c#5 v=0
333978 On ch=1 n=c#6 v=0
334012 On ch=1 n=f#5 v=0
334048 On ch=1 n=a#4 v=54
334090 On ch=1 n=a#4 v=0
334118 On ch=1 n=e4 v=76
334166 On ch=1 n=b4 v=59
334170 On ch=1 n=f#6 v=97
334204 Par ch=1 c=64 v=63
334218 Par ch=1 c=64 v=0
334242 On ch=1 n=d5 v=55
334276 Par ch=1 c=64 v=63
334312 Par ch=1 c=64 v=127
334428 On ch=1 n=g5 v=58
334440 On ch=1 n=f#6 v=0
334482 On ch=1 n=b4 v=0
334502 On ch=1 n=d5 v=0
334650 On ch=1 n=c5 v=78
334650 On ch=1 n=d#5 v=87
334652 On ch=1 n=e4 v=0
334656 On ch=1 n=e6 v=84
334660 On ch=1 n=g#5 v=82
334702 On ch=1 n=c5 v=0
334706 On ch=1 n=d#5 v=0
334706 On ch=1 n=g5 v=0
334772 On ch=1 n=e6 v=0
334876 On ch=1 n=a3 v=43
334908 On ch=1 n=e4 v=47
334932 Par ch=1 c=64 v=63
334942 Par ch=1 c=64 v=0
334966 On ch=1 n=d#6 v=96
334978 Par ch=1 c=64 v=63
335002 On ch=1 n=a3 v=0
335002 Par ch=1 c=64 v=127
335064 On ch=1 n=c5 v=80
335112 On ch=1 n=e4 v=0
335244 On ch=1 n=d#6 v=0
335244 On ch=1 n=g#5 v=0
335252 On ch=1 n=f5 v=68
335484 On ch=1 n=c#5 v=81
335488 On ch=1 n=c#6 v=94
335492 On ch=1 n=f#5 v=85
335492 On ch=1 n=a#4 v=79
335508 On ch=1 n=c5 v=0
335510 On ch=1 n=f5 v=0
335548 On ch=1 n=c#5 v=0
335568 On ch=1 n=a#4 v=0
335610 On ch=1 n=f#5 v=0
335610 On ch=1 n=c#6 v=0
335728 On ch=1 n=e4 v=44
335732 On ch=1 n=b4 v=21
335768 On ch=1 n=f#6 v=101
335780 On ch=1 n=d5 v=77
335812 Par ch=1 c=64 v=63
335822 Par ch=1 c=64 v=0
335886 Par ch=1 c=64 v=63
335914 Par ch=1 c=64 v=127
335996 On ch=1 n=g5 v=65
336024 On ch=1 n=f#6 v=0
336058 On ch=1 n=d5 v=0
336088 On ch=1 n=b4 v=0
336214 On ch=1 n=e4 v=0
336244 On ch=1 n=d#5 v=82
336254 On ch=1 n=e6 v=81
336262 On ch=1 n=c5 v=57
336264 On ch=1 n=g#5 v=74
336266 On ch=1 n=g5 v=0
336308 On ch=1 n=c5 v=0
336320 On ch=1 n=d#5 v=0
336392 On ch=1 n=e6 v=0
336488 On ch=1 n=a3 v=84
336514 On ch=1 n=e4 v=64
336554 Par ch=1 c=64 v=63
336566 Par ch=1 c=64 v=0
336592 Par ch=1 c=64 v=63
336614 On ch=1 n=a3 v=0
336616 Par ch=1 c=64 v=127
336628 On ch=1 n=d#6 v=89
336674 On ch=1 n=c5 v=79
336680 On ch=1 n=e4 v=0
336904 On ch=1 n=g#5 v=0
336914 On ch=1 n=f5 v=55
336916 On ch=1 n=d#6 v=0
337106 On ch=1 n=c5 v=0
337110 On ch=1 n=f5 v=0
337144 On ch=1 n=a#4 v=74
337144 On ch=1 n=c#5 v=70
337164 On ch=1 n=c#6 v=80
337176 On ch=1 n=c#5 v=0
337178 On ch=1 n=f#5 v=59
337220 On ch=1 n=a#4 v=0
337348 On ch=1 n=c#6 v=0
337376 On ch=1 n=f#3 v=83
337432 On ch=1 n=c#4 v=54
337440 Par ch=1 c=64 v=63
337454 Par ch=1 c=64 v=0
337480 Par ch=1 c=64 v=63
337490 On ch=1 n=f#3 v=0
337492 On ch=1 n=b5 v=81
337506 Par ch=1 c=64 v=127
337536 On ch=1 n=f#5 v=0
337550 On ch=1 n=g#4 v=84
337758 On ch=1 n=b5 v=0
337782 On ch=1 n=c5 v=49
337846 On ch=1 n=g#4 v=0
337970 On ch=1 n=a4 v=54
337996 On ch=1 n=c5 v=0
338008 On ch=1 n=a5 v=72
338032 On ch=1 n=c#5 v=68
338044 On ch=1 n=a4 v=0
338144 On ch=1 n=a5 v=0
338248 On ch=1 n=c#4 v=0
338306 Par ch=1 c=64 v=63
338310 On ch=1 n=g#5 v=86
338316 Par ch=1 c=64 v=0
338338 On ch=1 n=d#3 v=73
338362 Par ch=1 c=64 v=63
338390 Par ch=1 c=64 v=127
338548 On ch=1 n=d#3 v=0
338586 On ch=1 n=a4 v=59
338592 On ch=1 n=g#5 v=0
338594 On ch=1 n=c#5 v=0
338850 On ch=1 n=f#5 v=72
338864 On ch=1 n=a4 v=0
338870 On ch=1 n=c#4 v=40
338876 On ch=1 n=f#4 v=57
338878 On ch=1 n=a#4 v=53
338992 On ch=1 n=f#4 v=0
339054 On ch=1 n=c#4 v=0
339180 On ch=1 n=a#4 v=0
339180 On ch=1 n=f#5 v=0
339260 On ch=1 n=g#4 v=43
339262 On ch=1 n=b4 v=63
339264 On ch=1 n=g#3 v=48
339292 On ch=1 n=d#5 v=67
339388 Par ch=1 c=64 v=63
339414 Par ch=1 c=64 v=0
339534 Par ch=1 c=64 v=63
339562 Par ch=1 c=64 v=127
339786 On ch=1 n=g#4 v=0
339796 On ch=1 n=b4 v=0
339804 On ch=1 n=g#3 v=0
339868 On ch=1 n=d#5 v=0
339926 Par ch=1 c=64 v=63
339986 Par ch=1 c=64 v=0
340554 On ch=1 n=c#3 v=70
340558 On ch=1 n=d#6 v=78
340564 Par ch=1 c=64 v=127
340690 On ch=1 n=c#3 v=0
340888 On ch=1 n=f5 v=49
341026 On ch=1 n=f5 v=0
341122 On ch=1 n=d#6 v=0
341146 On ch=1 n=b4 v=49
341172 On ch=1 n=g5 v=65
341180 On ch=1 n=c#6 v=76
341198 On ch=1 n=b4 v=0
341200 On ch=1 n=f4 v=27
341248 On ch=1 n=f4 v=0
341378 On ch=1 n=g5 v=0
341438 On ch=1 n=c#6 v=0
341450 Par ch=1 c=64 v=63
341458 Par ch=1 c=64 v=0
341468 On ch=1 n=d#3 v=68
341506 On ch=1 n=f#6 v=84
341526 Par ch=1 c=64 v=63
341546 Par ch=1 c=64 v=127
341564 On ch=1 n=d#3 v=0
341704 On ch=1 n=f#6 v=0
341742 On ch=1 n=a5 v=47
341962 On ch=1 n=f#5 v=77
341964 On ch=1 n=c#5 v=76
341974 On ch=1 n=e6 v=78
341992 On ch=1 n=a5 v=0
341994 On ch=1 n=g4 v=50
341994 On ch=1 n=a#5 v=72
342010 On ch=1 n=f#5 v=0
342042 On ch=1 n=c#5 v=0
342080 On ch=1 n=g4 v=0
342118 On ch=1 n=e6 v=0
342238 Par ch=1 c=64 v=63
342248 On ch=1 n=d#6 v=104
342250 Par ch=1 c=64 v=0
342258 On ch=1 n=c#3 v=81
342270 On ch=1 n=a#5 v=0
342296 Par ch=1 c=64 v=63
342320 Par ch=1 c=64 v=127
342506 On ch=1 n=f5 v=68
342546 On ch=1 n=d#6 v=0
342728 On ch=1 n=e5 v=68
342734 On ch=1 n=f5 v=0
342738 On ch=1 n=c#6 v=85
342740 On ch=1 n=b4 v=52
342746 On ch=1 n=c#3 v=0
342746 On ch=1 n=f4 v=67
342748 On ch=1 n=g5 v=51
342776 On ch=1 n=e5 v=0
342786 On ch=1 n=b4 v=0
342798 On ch=1 n=g5 v=0
342830 On ch=1 n=f4 v=0
342886 On ch=1 n=c#6 v=0
342972 Par ch=1 c=64 v=63
342980 Par ch=1 c=64 v=0
342988 On ch=1 n=d#3 v=86
343008 On ch=1 n=f#6 v=86
343036 Par ch=1 c=64 v=63
343060 Par ch=1 c=64 v=127
343090 On ch=1 n=d#3 v=0
343220 On ch=1 n=f#6 v=0
343270 On ch=1 n=a5 v=47
343476 On ch=1 n=f#5 v=79
343488 On ch=1 n=c#5 v=76
343488 On ch=1 n=e6 v=77
343496 On ch=1 n=g4 v=63
343504 On ch=1 n=a#5 v=78
343508 On ch=1 n=f#5 v=0
343510 On ch=1 n=a5 v=0
343534 On ch=1 n=c#5 v=0
343582 On ch=1 n=g4 v=0
343592 On ch=1 n=e6 v=0
343706 On ch=1 n=a#5 v=0
343742 Par ch=1 c=64 v=63
343752 Par ch=1 c=64 v=0
343764 On ch=1 n=c#3 v=105
343776 On ch=1 n=d#6 v=88
343808 Par ch=1 c=64 v=63
343834 Par ch=1 c=64 v=127
343856 On ch=1 n=c#3 v=0
344038 On ch=1 n=d#6 v=0
344048 On ch=1 n=f5 v=55
344284 On ch=1 n=c#6 v=83
344288 On ch=1 n=b4 v=51
344292 On ch=1 n=f5 v=0
344300 On ch=1 n=e5 v=42
344300 On ch=1 n=g5 v=60
344318 On ch=1 n=f4 v=49
344346 On ch=1 n=b4 v=0
344350 On ch=1 n=e5 v=0
344402 On ch=1 n=f4 v=0
344402 On ch=1 n=c#6 v=0
344508 On ch=1 n=g5 v=0
344558 On ch=1 n=f#3 v=103
344568 Par ch=1 c=64 v=63
344578 Par ch=1 c=64 v=0
344582 On ch=1 n=g#5 v=72
344592 On ch=1 n=b5 v=68
344632 Par ch=1 c=64 v=63
344654 Par ch=1 c=64 v=127
344732 On ch=1 n=f#3 v=0
344814 On ch=1 n=b5 v=0
344840 On ch=1 n=g#5 v=0
344868 On ch=1 n=c5 v=60
345082 On ch=1 n=c5 v=0
345148 On ch=1 n=a5 v=58
345168 On ch=1 n=c#5 v=76
345174 On ch=1 n=f5 v=51
345248 On ch=1 n=c#5 v=0
345342 On ch=1 n=a5 v=0
345454 On ch=1 n=f5 v=0
345518 On ch=1 n=f#5 v=79
345520 On ch=1 n=b3 v=69
345532 On ch=1 n=a4 v=56
345532 On ch=1 n=d5 v=60
345536 Par ch=1 c=64 v=63
345550 Par ch=1 c=64 v=0
345584 Par ch=1 c=64 v=63
345622 Par ch=1 c=64 v=127
345710 On ch=1 n=d5 v=0
345828 On ch=1 n=g#5 v=87
345838 On ch=1 n=f#5 v=0
345848 On ch=1 n=c#5 v=63
345874 On ch=1 n=a4 v=0
346054 On ch=1 n=c#5 v=0
346158 On ch=1 n=d#5 v=88
346160 On ch=1 n=g#5 v=0
346160 On ch=1 n=c5 v=57
346170 On ch=1 n=g#4 v=61
346200 Par ch=1 c=64 v=63
346230 On ch=1 n=b3 v=0
346240 Par ch=1 c=64 v=127
346316 On ch=1 n=g#4 v=0
346364 On ch=1 n=c5 v=0
346428 On ch=1 n=d#5 v=0
346632 On ch=1 n=b3 v=45
346640 On ch=1 n=e5 v=45
346648 On ch=1 n=g4 v=33
346652 On ch=1 n=e3 v=34
346658 On ch=1 n=b4 v=59
346730 Par ch=1 c=64 v=63
346748 Par ch=1 c=64 v=0
346832 Par ch=1 c=64 v=63
346860 Par ch=1 c=64 v=127
347264 On ch=1 n=e3 v=0
347294 On ch=1 n=b3 v=0
347306 On ch=1 n=g4 v=0
347392 On ch=1 n=b4 v=0
347396 On ch=1 n=e5 v=0
347954 Par ch=1 c=64 v=63
347984 Par ch=1 c=64 v=0
348262 On ch=1 n=e5 v=57
348364 On ch=1 n=e5 v=0
348706 On ch=1 n=a#5 v=67
348804 On ch=1 n=b5 v=82
348818 On ch=1 n=a#5 v=0
348892 On ch=1 n=b5 v=0
349188 On ch=1 n=c#5 v=64
349210 On ch=1 n=a4 v=28
349222 On ch=1 n=d#6 v=83
349224 On ch=1 n=f5 v=49
349236 Par ch=1 c=64 v=127
349248 On ch=1 n=d#5 v=37
349260 On ch=1 n=g5 v=63
349568 On ch=1 n=f5 v=0
349612 On ch=1 n=c#5 v=0
349664 On ch=1 n=a4 v=0
350214 On ch=1 n=b3 v=47
350420 On ch=1 n=d#6 v=0
350474 On ch=1 n=g5 v=0
350528 On ch=1 n=d#5 v=0
350590 On ch=1 n=b3 v=0
351200 On ch=1 n=e3 v=41
351222 On ch=1 n=e5 v=55
351224 On ch=1 n=g4 v=40
351242 Par ch=1 c=64 v=63
351242 On ch=1 n=b4 v=48
351254 Par ch=1 c=64 v=0
351306 Par ch=1 c=64 v=63
351336 Par ch=1 c=64 v=127
351382 On ch=1 n=g4 v=0
351400 On ch=1 n=b4 v=0
351422 On ch=1 n=e5 v=0
351426 On ch=1 n=e3 v=0
351722 On ch=1 n=a#5 v=90
351764 Par ch=1 c=64 v=63
351774 Par ch=1 c=64 v=0
351834 On ch=1 n=b5 v=89
351840 On ch=1 n=a#5 v=0
351924 On ch=1 n=b5 v=0
352390 On ch=1 n=d#6 v=68
352392 On ch=1 n=a4 v=37
352398 On ch=1 n=f5 v=42
352400 On ch=1 n=c5 v=47
352406 On ch=1 n=g#5 v=55
352414 Par ch=1 c=64 v=63
352416 Par ch=1 c=64 v=127
352420 On ch=1 n=d#5 v=41
352894 On ch=1 n=f5 v=0
352916 On ch=1 n=c5 v=0
352980 On ch=1 n=a4 v=0
353408 On ch=1 n=b3 v=41
353710 On ch=1 n=d#6 v=0
353760 On ch=1 n=d#5 v=0
353760 On ch=1 n=g#5 v=0
354192 On ch=1 n=b3 v=0
354696 On ch=1 n=e3 v=35
354722 On ch=1 n=g4 v=29
354730 On ch=1 n=e5 v=47
354744 On ch=1 n=b4 v=38
354748 Par ch=1 c=64 v=63
354772 Par ch=1 c=64 v=0
354784 Par ch=1 c=64 v=63
354826 Par ch=1 c=64 v=127
354850 On ch=1 n=g4 v=0
354868 On ch=1 n=b4 v=0
354882 On ch=1 n=e5 v=0
354886 On ch=1 n=e3 v=0
355192 On ch=1 n=a#5 v=75
355262 On ch=1 n=b5 v=78
355268 On ch=1 n=a#5 v=0
355270 Par ch=1 c=64 v=63
355286 Par ch=1 c=64 v=0
355328 On ch=1 n=b5 v=0
355570 Par ch=1 c=64 v=63
355592 Par ch=1 c=64 v=127
355594 On ch=1 n=d#6 v=82
355614 On ch=1 n=b5 v=58
355626 On ch=1 n=e6 v=62
355642 On ch=1 n=g5 v=36
355646 On ch=1 n=d#6 v=0
355716 On ch=1 n=b5 v=0
355720 On ch=1 n=e6 v=0
355724 On ch=1 n=g5 v=0
355840 Par ch=1 c=64 v=63
355890 Par ch=1 c=64 v=0
355958 On ch=1 n=a#6 v=70
356028 On ch=1 n=b6 v=86
356034 On ch=1 n=a#6 v=0
356098 On ch=1 n=b6 v=0
356350 Par ch=1 c=64 v=63
356374 On ch=1 n=b6 v=42
356378 On ch=1 n=d#7 v=86
356380 On ch=1 n=e7 v=66
356384 Par ch=1 c=64 v=127
356386 On ch=1 n=g6 v=35
356452 On ch=1 n=d#7 v=0
356478 On ch=1 n=g6 v=0
356484 On ch=1 n=e7 v=0
356486 On ch=1 n=b6 v=0
356586 Par ch=1 c=64 v=63
356672 Par ch=1 c=64 v=0
356788 On ch=1 n=a#7 v=67
356862 On ch=1 n=a#7 v=0
356862 On ch=1 n=b7 v=78
356938 On ch=1 n=b7 v=0
357214 Par ch=1 c=64 v=63
357286 Par ch=1 c=64 v=127
357300 On ch=1 n=d#8 v=66
357318 On ch=1 n=g7 v=49
357322 On ch=1 n=b7 v=41
357344 On ch=1 n=e8 v=48
357382 On ch=1 n=b7 v=0
357390 On ch=1 n=e8 v=0
357394 On ch=1 n=d#8 v=0
357396 On ch=1 n=g7 v=0
357578 Par ch=1 c=64 v=63
357676 Par ch=1 c=64 v=0
358822 On ch=1 n=b4 v=56
358868 On ch=1 n=e5 v=55
358890 On ch=1 n=b5 v=60
358914 On ch=1 n=b6 v=83
358944 On ch=1 n=e6 v=68
359026 On ch=1 n=a6 v=99
359066 On ch=1 n=b6 v=0
359126 On ch=1 n=b6 v=91
359182 On ch=1 n=a6 v=0
359204 Par ch=1 c=64 v=63
359222 Par ch=1 c=64 v=127
359946 On ch=1 n=b5 v=0
359988 On ch=1 n=e5 v=0
360028 On ch=1 n=b4 v=0
360450 On ch=1 n=b3 v=45
360452 On ch=1 n=e3 v=49
360592 On ch=1 n=b3 v=0
360618 On ch=1 n=e3 v=0
363716 On ch=1 n=e6 v=0
363746 On ch=1 n=b6 v=0
363956 Par ch=1 c=64 v=63
363992 Par ch=1 c=64 v=0
364098 Par ch=1 c=67 v=0
364098 Meta TrkEnd
TrkEnd
