MFile 1 2 480
MTrk
0 Tempo 500000
0 TimeSig 3/4 24 8
0 Meta TrkEnd
TrkEnd
MTrk
0 SeqSpec 43 00 01 00
0 Meta TrkName "<Master Volume>"
0 Meta 0x21 00
0 SysEx f0 41 10 42 12 40 00 7f 00 41 f7
0 SysEx f0 41 10 42 12 40 00 04 64 58 f7
192 Meta Text "<Master Reverve>"
192 SysEx f0 41 10 42 12 40 01 30 03 0c f7
192 SysEx f0 41 10 42 12 40 01 33 3c 50 f7
192 SysEx f0 41 10 42 12 40 01 34 3c 4f f7
576 Par ch=1 c=0 v=0
580 Par ch=1 c=32 v=1
584 PrCh ch=1 p=0
642 Par ch=1 c=67 v=0
780 Par ch=1 c=7 v=100
972 Par ch=1 c=11 v=80
1164 Par ch=1 c=10 v=64
1356 Par ch=1 c=1 v=0
1356 Meta Text "<part reverve>"
1356 Par ch=1 c=91 v=80
1374 Par ch=1 c=67 v=0
1452 Par ch=1 c=99 v=1
1456 Par ch=1 c=98 v=32
1460 Par ch=1 c=6 v=62
1464 Par ch=1 c=99 v=1
1468 Par ch=1 c=98 v=33
1472 Par ch=1 c=6 v=54
1476 Par ch=1 c=99 v=1
1480 Par ch=1 c=98 v=99
1484 Par ch=1 c=6 v=62
1488 Par ch=1 c=99 v=1
1492 Par ch=1 c=98 v=100
1496 Par ch=1 c=6 v=60
1500 Par ch=1 c=99 v=1
1504 Par ch=1 c=98 v=102
1508 Par ch=1 c=6 v=70
2504 On ch=1 n=d6 v=76
2580 On ch=1 n=e6 v=73
2582 On ch=1 n=d6 v=0
2636 On ch=1 n=b5 v=48
2658 On ch=1 n=g5 v=44
2662 On ch=1 n=d6 v=70
2694 On ch=1 n=e6 v=0
2798 Par ch=1 c=64 v=63
2814 Par ch=1 c=64 v=127
3002 On ch=1 n=g5 v=0
3030 On ch=1 n=b5 v=0
3050 On ch=1 n=d6 v=0
3268 On ch=1 n=c6 v=68
3278 On ch=1 n=b5 v=49
3280 On ch=1 n=g5 v=49
3308 On ch=1 n=e5 v=42
3536 On ch=1 n=d6 v=82
3542 On ch=1 n=g5 v=0
3566 On ch=1 n=c6 v=0
3568 On ch=1 n=b5 v=0
3618 On ch=1 n=e5 v=0
3686 On ch=1 n=d6 v=0
3802 On ch=1 n=d5 v=65
3806 On ch=1 n=d6 v=83
3822 On ch=1 n=b5 v=74
3824 On ch=1 n=g5 v=62
3984 On ch=1 n=d5 v=0
4026 On ch=1 n=d6 v=0
4028 On ch=1 n=b5 v=0
4062 On ch=1 n=g5 v=0
4338 On ch=1 n=g5 v=80
4338 On ch=1 n=c5 v=49
4348 On ch=1 n=d5 v=49
4350 On ch=1 n=e5 v=68
4466 Par ch=1 c=64 v=63
4580 Par ch=1 c=64 v=127
4724 On ch=1 n=d5 v=0
4790 On ch=1 n=c5 v=0
4854 On ch=1 n=d5 v=72
4864 On ch=1 n=b4 v=74
4980 On ch=1 n=g5 v=0
5040 On ch=1 n=e5 v=0
5074 On ch=1 n=a5 v=86
5080 On ch=1 n=f#5 v=80
5110 On ch=1 n=d5 v=0
5206 On ch=1 n=b4 v=0
5224 On ch=1 n=f#5 v=0
5326 On ch=1 n=a5 v=0
5358 On ch=1 n=b5 v=80
5372 On ch=1 n=g5 v=68
5374 On ch=1 n=c5 v=63
5378 On ch=1 n=a4 v=47
5384 On ch=1 n=e5 v=50
5404 Par ch=1 c=64 v=63
5478 Par ch=1 c=64 v=127
5528 On ch=1 n=c5 v=0
5576 On ch=1 n=a4 v=0
5596 On ch=1 n=e5 v=0
5612 On ch=1 n=g5 v=0
5616 On ch=1 n=b5 v=0
5882 On ch=1 n=b4 v=51
5888 On ch=1 n=a5 v=76
5898 On ch=1 n=f#5 v=67
5904 On ch=1 n=d4 v=46
5908 On ch=1 n=d5 v=49
5950 Par ch=1 c=64 v=63
5980 Par ch=1 c=64 v=0
6004 Par ch=1 c=64 v=63
6050 Par ch=1 c=64 v=127
6156 On ch=1 n=f#5 v=0
6174 On ch=1 n=a5 v=0
6188 On ch=1 n=d5 v=0
6314 On ch=1 n=b4 v=0
6324 On ch=1 n=g5 v=83
6396 On ch=1 n=a5 v=76
6404 On ch=1 n=g5 v=0
6432 On ch=1 n=a4 v=47
6452 On ch=1 n=g5 v=92
6456 On ch=1 n=c5 v=51
6496 On ch=1 n=a5 v=0
6520 Par ch=1 c=64 v=63
6540 Par ch=1 c=64 v=0
6622 Par ch=1 c=64 v=63
6650 Par ch=1 c=64 v=127
6700 On ch=1 n=e5 v=81
6768 On ch=1 n=g5 v=0
6956 On ch=1 n=f#5 v=91
7000 Par ch=1 c=64 v=63
7104 Par ch=1 c=64 v=127
7236 On ch=1 n=d4 v=0
7254 On ch=1 n=a4 v=0
7266 On ch=1 n=c5 v=0
7490 On ch=1 n=g3 v=59
7492 On ch=1 n=g5 v=71
7500 On ch=1 n=d5 v=63
7510 On ch=1 n=f#5 v=0
7518 On ch=1 n=b4 v=43
7536 On ch=1 n=e5 v=0
7610 Par ch=1 c=64 v=63
7636 Par ch=1 c=64 v=0
7752 Par ch=1 c=64 v=63
7772 Par ch=1 c=64 v=127
7994 On ch=1 n=b4 v=0
8018 On ch=1 n=g3 v=0
8044 On ch=1 n=d4 v=75
8132 On ch=1 n=d5 v=0
8192 On ch=1 n=g5 v=0
8626 On ch=1 n=a5 v=72
8630 On ch=1 n=f#5 v=66
8646 On ch=1 n=d5 v=59
8848 On ch=1 n=f#5 v=0
8888 On ch=1 n=a5 v=0
8920 On ch=1 n=d5 v=0
9146 On ch=1 n=c6 v=77
9154 On ch=1 n=a4 v=60
9158 On ch=1 n=e5 v=59
9188 On ch=1 n=d6 v=83
9192 On ch=1 n=c6 v=0
9216 Par ch=1 c=64 v=63
9236 Par ch=1 c=64 v=0
9268 On ch=1 n=c6 v=84
9278 On ch=1 n=d6 v=0
9460 Par ch=1 c=64 v=63
9474 Par ch=1 c=64 v=127
9586 On ch=1 n=d4 v=0
9682 On ch=1 n=d4 v=87
9936 On ch=1 n=b5 v=89
9998 On ch=1 n=c6 v=0
10032 On ch=1 n=e5 v=0
10210 On ch=1 n=c5 v=90
10216 On ch=1 n=a5 v=86
10218 On ch=1 n=f#5 v=92
10222 On ch=1 n=a4 v=0
10242 Par ch=1 c=64 v=63
10250 On ch=1 n=b5 v=0
10258 Par ch=1 c=64 v=0
10362 Par ch=1 c=64 v=63
10382 Par ch=1 c=64 v=127
10562 On ch=1 n=f#5 v=0
10714 On ch=1 n=b4 v=74
10730 On ch=1 n=e6 v=93
10730 On ch=1 n=g5 v=78
10774 On ch=1 n=c5 v=0
10792 On ch=1 n=a5 v=0
10838 Par ch=1 c=64 v=63
10858 Par ch=1 c=64 v=0
10954 Par ch=1 c=64 v=63
10974 Par ch=1 c=64 v=127
10992 On ch=1 n=d4 v=0
11238 On ch=1 n=e4 v=83
11240 On ch=1 n=d6 v=87
11242 On ch=1 n=e6 v=0
11338 Par ch=1 c=64 v=63
11364 Par ch=1 c=64 v=0
11482 On ch=1 n=e6 v=90
11482 Par ch=1 c=64 v=63
11512 Par ch=1 c=64 v=127
11516 On ch=1 n=d6 v=0
11628 On ch=1 n=b4 v=0
11760 On ch=1 n=e6 v=0
11774 On ch=1 n=b5 v=76
11782 Par ch=1 c=64 v=63
11788 On ch=1 n=d5 v=65
11808 Par ch=1 c=64 v=0
11904 Par ch=1 c=64 v=63
11934 Par ch=1 c=64 v=127
12016 On ch=1 n=b5 v=0
12036 On ch=1 n=d5 v=0
12100 On ch=1 n=e4 v=0
12140 On ch=1 n=g5 v=0
12298 On ch=1 n=a5 v=65
12302 On ch=1 n=f#5 v=58
12304 On ch=1 n=c#5 v=55
12322 On ch=1 n=f#4 v=50
12350 Par ch=1 c=64 v=63
12376 Par ch=1 c=64 v=0
12448 Par ch=1 c=64 v=63
12486 Par ch=1 c=64 v=127
12524 On ch=1 n=f#4 v=0
12528 On ch=1 n=f#5 v=0
12530 On ch=1 n=c#5 v=0
12554 On ch=1 n=a5 v=0
12782 Par ch=1 c=64 v=63
12808 Par ch=1 c=64 v=0
12862 On ch=1 n=e5 v=54
12864 On ch=1 n=b5 v=62
12874 On ch=1 n=b4 v=40
12884 On ch=1 n=g4 v=45
12950 Par ch=1 c=64 v=63
12974 Par ch=1 c=64 v=127
13086 On ch=1 n=b5 v=0
13106 On ch=1 n=g4 v=0
13118 On ch=1 n=e5 v=0
13128 On ch=1 n=b4 v=0
13286 Par ch=1 c=64 v=63
13336 Par ch=1 c=64 v=0
13410 On ch=1 n=c#5 v=52
13410 On ch=1 n=g5 v=62
13412 On ch=1 n=a4 v=42
13486 Par ch=1 c=64 v=63
13518 Par ch=1 c=64 v=127
13648 On ch=1 n=a4 v=0
13658 On ch=1 n=g5 v=0
13690 On ch=1 n=c#5 v=0
13734 Par ch=1 c=64 v=63
13800 Par ch=1 c=64 v=0
13980 On ch=1 n=f#5 v=64
13984 On ch=1 n=b4 v=39
13996 On ch=1 n=d#5 v=64
14038 Par ch=1 c=64 v=63
14070 Par ch=1 c=64 v=127
14210 On ch=1 n=b4 v=0
14268 On ch=1 n=d#5 v=0
14314 On ch=1 n=f#5 v=0
14596 On ch=1 n=f#5 v=42
14688 On ch=1 n=f#5 v=0
15218 On ch=1 n=b5 v=30
15308 On ch=1 n=b5 v=0
15768 On ch=1 n=d6 v=71
15848 On ch=1 n=d6 v=0
15858 On ch=1 n=e6 v=47
15916 On ch=1 n=e6 v=0
15924 Par ch=1 c=64 v=63
15930 On ch=1 n=d6 v=67
15934 On ch=1 n=b5 v=45
15944 On ch=1 n=g5 v=39
15946 Par ch=1 c=64 v=0
16074 Par ch=1 c=64 v=63
16092 Par ch=1 c=64 v=127
16270 On ch=1 n=d6 v=0
16296 On ch=1 n=b5 v=0
16310 On ch=1 n=g5 v=0
16526 On ch=1 n=b5 v=55
16526 On ch=1 n=c6 v=62
16534 On ch=1 n=g5 v=43
16540 On ch=1 n=e5 v=60
16804 On ch=1 n=d6 v=81
16862 On ch=1 n=c6 v=0
16898 On ch=1 n=e5 v=0
16936 On ch=1 n=b5 v=0
16956 On ch=1 n=g5 v=0
17004 On ch=1 n=d6 v=0
17076 On ch=1 n=d6 v=77
17080 On ch=1 n=d5 v=84
17094 On ch=1 n=g5 v=54
17096 On ch=1 n=b5 v=63
17204 On ch=1 n=d5 v=0
17254 On ch=1 n=d6 v=0
17274 On ch=1 n=b5 v=0
17312 On ch=1 n=g5 v=0
17612 On ch=1 n=g5 v=78
17634 On ch=1 n=e5 v=62
17636 On ch=1 n=d5 v=68
17640 On ch=1 n=c5 v=55
17740 Par ch=1 c=64 v=63
17764 Par ch=1 c=64 v=0
17840 Par ch=1 c=64 v=63
17872 Par ch=1 c=64 v=127
18024 On ch=1 n=d5 v=0
18104 On ch=1 n=c5 v=0
18160 On ch=1 n=b4 v=84
18164 On ch=1 n=d5 v=76
18264 Par ch=1 c=64 v=63
18304 Par ch=1 c=64 v=127
18434 On ch=1 n=a5 v=87
18438 On ch=1 n=f#5 v=87
18492 On ch=1 n=g5 v=0
18518 On ch=1 n=e5 v=0
18564 On ch=1 n=d5 v=0
18592 On ch=1 n=b4 v=0
18684 On ch=1 n=f#5 v=0
18720 On ch=1 n=c5 v=76
18722 On ch=1 n=a4 v=64
18730 On ch=1 n=b5 v=85
18736 On ch=1 n=a5 v=0
18744 On ch=1 n=g5 v=71
18756 On ch=1 n=e5 v=49
18762 Par ch=1 c=64 v=63
18840 Par ch=1 c=64 v=127
18918 On ch=1 n=c5 v=0
18982 On ch=1 n=a4 v=0
19006 On ch=1 n=e5 v=0
19048 On ch=1 n=g5 v=0
19146 On ch=1 n=b5 v=0
19234 On ch=1 n=a5 v=81
19242 On ch=1 n=f#5 v=72
19242 On ch=1 n=b4 v=68
19246 On ch=1 n=d5 v=64
19246 On ch=1 n=d4 v=68
19286 Par ch=1 c=64 v=63
19382 Par ch=1 c=64 v=127
19506 On ch=1 n=f#5 v=0
19508 On ch=1 n=a5 v=0
19516 On ch=1 n=d5 v=0
19666 On ch=1 n=g5 v=79
19728 On ch=1 n=a5 v=78
19730 On ch=1 n=b4 v=0
19732 On ch=1 n=g5 v=0
19788 On ch=1 n=g5 v=83
19792 On ch=1 n=a4 v=55
19800 On ch=1 n=c5 v=40
19830 On ch=1 n=a5 v=0
19840 Par ch=1 c=64 v=63
19860 Par ch=1 c=64 v=0
19990 Par ch=1 c=64 v=63
20020 Par ch=1 c=64 v=127
20028 On ch=1 n=e5 v=86
20134 On ch=1 n=g5 v=0
20298 On ch=1 n=f#5 v=97
20334 Par ch=1 c=64 v=63
20370 Par ch=1 c=64 v=0
20404 Par ch=1 c=64 v=63
20462 Par ch=1 c=64 v=127
20546 On ch=1 n=d4 v=0
20652 On ch=1 n=c5 v=0
20674 On ch=1 n=a4 v=0
20838 On ch=1 n=g3 v=65
20850 On ch=1 n=g5 v=76
20856 On ch=1 n=f#5 v=0
20864 On ch=1 n=d5 v=71
20874 On ch=1 n=b4 v=54
20890 On ch=1 n=e5 v=0
20968 Par ch=1 c=64 v=63
20990 Par ch=1 c=64 v=0
21122 Par ch=1 c=64 v=63
21138 Par ch=1 c=64 v=127
21306 On ch=1 n=b4 v=0
21366 On ch=1 n=d4 v=74
21386 On ch=1 n=g3 v=0
21442 On ch=1 n=d5 v=0
21500 On ch=1 n=d4 v=0
21502 On ch=1 n=g5 v=0
21990 On ch=1 n=a5 v=65
21994 On ch=1 n=f#5 v=54
22000 On ch=1 n=d5 v=54
22210 On ch=1 n=f#5 v=0
22336 On ch=1 n=d5 v=0
22340 On ch=1 n=a5 v=0
22534 On ch=1 n=a4 v=49
22536 On ch=1 n=c6 v=68
22540 On ch=1 n=e5 v=63
22576 On ch=1 n=d6 v=84
22590 On ch=1 n=c6 v=0
22664 On ch=1 n=c6 v=77
22686 On ch=1 n=d6 v=0
22848 Par ch=1 c=64 v=63
22872 Par ch=1 c=64 v=0
23072 On ch=1 n=d4 v=88
23204 Par ch=1 c=64 v=63
23208 Par ch=1 c=64 v=127
23290 On ch=1 n=b5 v=93
23330 On ch=1 n=c6 v=0
23410 On ch=1 n=e5 v=0
23578 On ch=1 n=c5 v=79
23580 On ch=1 n=a5 v=92
23590 On ch=1 n=b5 v=0
23596 On ch=1 n=a4 v=0
23602 On ch=1 n=f#5 v=82
23634 Par ch=1 c=64 v=63
23650 Par ch=1 c=64 v=0
23774 Par ch=1 c=64 v=63
23790 Par ch=1 c=64 v=127
23904 On ch=1 n=f#5 v=0
24090 On ch=1 n=b4 v=76
24102 On ch=1 n=e6 v=94
24106 On ch=1 n=g5 v=77
24168 On ch=1 n=a5 v=0
24202 On ch=1 n=c5 v=0
24252 Par ch=1 c=64 v=63
24276 Par ch=1 c=64 v=0
24362 On ch=1 n=d4 v=0
24384 Par ch=1 c=64 v=63
24410 Par ch=1 c=64 v=127
24640 On ch=1 n=d6 v=82
24648 On ch=1 n=e4 v=51
24660 On ch=1 n=e6 v=0
24748 Par ch=1 c=64 v=63
24774 Par ch=1 c=64 v=0
24864 On ch=1 n=e6 v=79
24882 On ch=1 n=d6 v=0
24902 Par ch=1 c=64 v=63
24930 Par ch=1 c=64 v=127
25146 On ch=1 n=e6 v=0
25148 On ch=1 n=b4 v=0
25152 Par ch=1 c=64 v=63
25158 On ch=1 n=b5 v=65
25162 On ch=1 n=d5 v=52
25178 Par ch=1 c=64 v=0
25268 Par ch=1 c=64 v=63
25300 Par ch=1 c=64 v=127
25380 On ch=1 n=e4 v=0
25382 On ch=1 n=b5 v=0
25410 On ch=1 n=d5 v=0
25490 On ch=1 n=g5 v=0
25686 On ch=1 n=a5 v=57
25692 On ch=1 n=c#5 v=53
25696 On ch=1 n=f#5 v=51
25710 Par ch=1 c=64 v=63
25718 On ch=1 n=f#4 v=58
25736 Par ch=1 c=64 v=0
25806 Par ch=1 c=64 v=63
25850 Par ch=1 c=64 v=0
25860 On ch=1 n=f#5 v=0
25876 On ch=1 n=f#4 v=0
25890 On ch=1 n=c#5 v=0
25900 On ch=1 n=a5 v=0
26216 On ch=1 n=b5 v=52
26222 Par ch=1 c=64 v=63
26228 On ch=1 n=e5 v=44
26244 Par ch=1 c=64 v=127
26246 On ch=1 n=b4 v=24
26250 On ch=1 n=g4 v=36
26394 On ch=1 n=b5 v=0
26430 On ch=1 n=e5 v=0
26444 On ch=1 n=g4 v=0
26454 Par ch=1 c=64 v=63
26458 On ch=1 n=b4 v=0
26502 Par ch=1 c=64 v=0
26734 Par ch=1 c=64 v=63
26742 On ch=1 n=g5 v=47
26750 On ch=1 n=a4 v=33
26756 On ch=1 n=c#5 v=41
26764 Par ch=1 c=64 v=127
26934 On ch=1 n=a4 v=0
26962 On ch=1 n=g5 v=0
26964 Par ch=1 c=64 v=63
26986 On ch=1 n=c#5 v=0
27026 Par ch=1 c=64 v=0
27306 On ch=1 n=f#5 v=57
27306 On ch=1 n=b4 v=33
27318 Par ch=1 c=64 v=63
27324 On ch=1 n=d#5 v=60
27338 Par ch=1 c=64 v=127
27512 On ch=1 n=b4 v=0
27608 On ch=1 n=d#5 v=0
27652 On ch=1 n=f#5 v=0
27948 On ch=1 n=f#5 v=51
28064 On ch=1 n=f#5 v=0
28558 On ch=1 n=b5 v=47
28680 On ch=1 n=b5 v=0
29140 On ch=1 n=d6 v=66
29172 On ch=1 n=e6 v=85
29196 On ch=1 n=d6 v=0
29276 Par ch=1 c=64 v=63
29280 On ch=1 n=e6 v=0
29284 On ch=1 n=d6 v=60
29290 Par ch=1 c=64 v=0
29292 On ch=1 n=f#5 v=60
29304 On ch=1 n=b5 v=68
29310 On ch=1 n=b4 v=56
29320 On ch=1 n=d5 v=63
29326 On ch=1 n=f#4 v=53
29424 Par ch=1 c=64 v=63
29442 Par ch=1 c=64 v=127
29602 On ch=1 n=f#5 v=0
29638 On ch=1 n=d5 v=0
29644 On ch=1 n=b4 v=0
29672 On ch=1 n=b5 v=0
29708 On ch=1 n=f#4 v=0
29970 On ch=1 n=c6 v=84
29994 On ch=1 n=b3 v=77
30010 On ch=1 n=d6 v=0
30166 On ch=1 n=b3 v=0
30240 On ch=1 n=d6 v=90
30268 On ch=1 n=c6 v=0
30396 On ch=1 n=d6 v=0
30490 On ch=1 n=d6 v=101
30700 On ch=1 n=d6 v=0
30956 On ch=1 n=e6 v=100
30968 On ch=1 n=c5 v=62
30970 On ch=1 n=a5 v=73
30972 On ch=1 n=e4 v=63
30976 On ch=1 n=e5 v=70
30978 On ch=1 n=a4 v=57
31020 Par ch=1 c=64 v=63
31038 Par ch=1 c=64 v=0
31138 Par ch=1 c=64 v=63
31158 Par ch=1 c=64 v=127
31272 On ch=1 n=c5 v=0
31274 On ch=1 n=a4 v=0
31308 On ch=1 n=e4 v=0
31356 On ch=1 n=e6 v=0
31508 On ch=1 n=a3 v=80
31594 On ch=1 n=a3 v=0
31742 On ch=1 n=c6 v=100
31996 On ch=1 n=b5 v=96
32052 On ch=1 n=c6 v=0
32222 On ch=1 n=e5 v=0
32256 On ch=1 n=a5 v=0
32500 On ch=1 n=b5 v=0
32514 On ch=1 n=a5 v=89
32516 On ch=1 n=a4 v=55
32522 On ch=1 n=d5 v=57
32530 On ch=1 n=f5 v=75
32654 Par ch=1 c=64 v=63
32682 Par ch=1 c=64 v=0
33062 On ch=1 n=b5 v=88
33066 On ch=1 n=d4 v=77
33250 Par ch=1 c=64 v=63
33254 Par ch=1 c=64 v=127
33478 On ch=1 n=d4 v=0
33554 On ch=1 n=a4 v=0
33560 On ch=1 n=d5 v=0
33594 On ch=1 n=c6 v=89
33658 On ch=1 n=b5 v=0
33670 On ch=1 n=a5 v=0
33682 On ch=1 n=f5 v=0
33710 On ch=1 n=c6 v=0
33938 On ch=1 n=d6 v=86
34008 On ch=1 n=e6 v=82
34018 On ch=1 n=d6 v=0
34080 On ch=1 n=f#5 v=72
34080 On ch=1 n=f#4 v=40
34098 On ch=1 n=b4 v=60
34098 On ch=1 n=d6 v=84
34098 On ch=1 n=d5 v=63
34118 Par ch=1 c=64 v=63
34124 On ch=1 n=b5 v=68
34134 On ch=1 n=e6 v=0
34134 Par ch=1 c=64 v=0
34194 Par ch=1 c=64 v=63
34226 Par ch=1 c=64 v=127
34322 On ch=1 n=f#5 v=0
34344 On ch=1 n=d5 v=0
34352 On ch=1 n=c6 v=104
34376 On ch=1 n=b4 v=0
34420 On ch=1 n=f#4 v=0
34434 On ch=1 n=d6 v=0
34624 On ch=1 n=d6 v=103
34624 On ch=1 n=b3 v=89
34700 On ch=1 n=c6 v=0
34714 On ch=1 n=b5 v=0
34720 On ch=1 n=b3 v=0
34774 On ch=1 n=d6 v=0
35144 On ch=1 n=a4 v=63
35146 On ch=1 n=f#6 v=108
35146 On ch=1 n=f#4 v=69
35152 On ch=1 n=c#5 v=89
35156 On ch=1 n=a5 v=82
35172 On ch=1 n=f#5 v=57
35220 Par ch=1 c=64 v=63
35316 Par ch=1 c=64 v=127
35416 On ch=1 n=f#6 v=0
35446 On ch=1 n=a4 v=0
35448 On ch=1 n=f#5 v=0
35450 On ch=1 n=c#5 v=0
35452 On ch=1 n=a5 v=0
35540 On ch=1 n=f#4 v=0
35754 On ch=1 n=e6 v=96
35754 On ch=1 n=c5 v=54
35758 On ch=1 n=a4 v=46
35762 On ch=1 n=e4 v=40
35770 On ch=1 n=a5 v=63
35774 On ch=1 n=e5 v=50
35822 Par ch=1 c=64 v=63
35840 Par ch=1 c=64 v=0
35936 Par ch=1 c=64 v=63
35952 Par ch=1 c=64 v=127
36040 On ch=1 n=c5 v=0
36070 On ch=1 n=a4 v=0
36094 On ch=1 n=e6 v=0
36116 On ch=1 n=e4 v=0
36300 On ch=1 n=a3 v=57
36392 On ch=1 n=a3 v=0
36522 On ch=1 n=a5 v=0
36540 On ch=1 n=c6 v=70
36642 On ch=1 n=e5 v=0
36776 On ch=1 n=c6 v=0
36800 On ch=1 n=b5 v=68
36814 On ch=1 n=g5 v=52
36818 On ch=1 n=e5 v=47
37058 On ch=1 n=e5 v=0
37114 On ch=1 n=g5 v=0
37314 On ch=1 n=b5 v=0
37342 On ch=1 n=a5 v=76
37350 On ch=1 n=a4 v=47
37352 On ch=1 n=f5 v=57
37370 On ch=1 n=d5 v=41
37432 Par ch=1 c=64 v=63
37454 Par ch=1 c=64 v=0
37588 Par ch=1 c=64 v=63
37612 Par ch=1 c=64 v=127
37912 On ch=1 n=d4 v=64
37920 On ch=1 n=b5 v=78
37998 Par ch=1 c=64 v=63
38024 Par ch=1 c=64 v=0
38114 Par ch=1 c=64 v=63
38138 Par ch=1 c=64 v=127
38248 On ch=1 n=a5 v=0
38260 On ch=1 n=f5 v=0
38464 On ch=1 n=c6 v=84
38470 On ch=1 n=b5 v=0
38476 On ch=1 n=a5 v=60
38488 On ch=1 n=d5 v=0
38490 On ch=1 n=f5 v=39
38576 On ch=1 n=d4 v=0
38612 On ch=1 n=a4 v=0
38686 On ch=1 n=a5 v=0
38692 On ch=1 n=f5 v=0
38726 On ch=1 n=c6 v=0
39072 On ch=1 n=d6 v=80
39084 On ch=1 n=b5 v=59
39086 On ch=1 n=f#5 v=47
39088 On ch=1 n=f#4 v=53
39090 On ch=1 n=b4 v=51
39092 On ch=1 n=d5 v=36
39154 Par ch=1 c=64 v=63
39174 Par ch=1 c=64 v=0
39256 Par ch=1 c=64 v=63
39278 Par ch=1 c=64 v=127
39424 On ch=1 n=b4 v=0
39436 On ch=1 n=d5 v=0
39484 On ch=1 n=f#4 v=0
39654 On ch=1 n=b3 v=90
39744 On ch=1 n=b3 v=0
39908 On ch=1 n=e6 v=96
39998 On ch=1 n=d6 v=0
40064 On ch=1 n=e6 v=0
40186 On ch=1 n=f#6 v=106
40466 On ch=1 n=f#5 v=0
40480 On ch=1 n=b5 v=0
40554 On ch=1 n=f#6 v=0
40748 On ch=1 n=f#6 v=108
40762 On ch=1 n=a5 v=84
40766 On ch=1 n=f#5 v=79
40768 On ch=1 n=c#5 v=75
40770 On ch=1 n=c#6 v=86
40778 On ch=1 n=a4 v=50
40802 Par ch=1 c=64 v=63
40818 Par ch=1 c=64 v=0
40858 Par ch=1 c=64 v=63
40890 Par ch=1 c=64 v=127
40986 On ch=1 n=f#5 v=0
41012 On ch=1 n=c#5 v=0
41028 On ch=1 n=a4 v=0
41106 On ch=1 n=f#6 v=0
41246 On ch=1 n=a5 v=0
41320 On ch=1 n=b3 v=96
41326 On ch=1 n=g6 v=108
41402 On ch=1 n=b3 v=0
41440 On ch=1 n=c#6 v=0
41500 On ch=1 n=g6 v=0
41906 On ch=1 n=a6 v=102
42094 On ch=1 n=a6 v=0
42514 On ch=1 n=d5 v=52
42516 On ch=1 n=g4 v=57
42546 On ch=1 n=f#6 v=107
42562 On ch=1 n=b5 v=77
42578 On ch=1 n=f#5 v=61
42666 Par ch=1 c=64 v=63
42682 Par ch=1 c=64 v=0
42722 Par ch=1 c=64 v=63
42752 Par ch=1 c=64 v=127
42826 On ch=1 n=d5 v=0
42890 On ch=1 n=g4 v=0
42950 On ch=1 n=f#5 v=0
43086 On ch=1 n=f#6 v=0
43210 On ch=1 n=e3 v=92
43448 On ch=1 n=g6 v=94
43526 On ch=1 n=e3 v=0
43602 On ch=1 n=g6 v=0
43736 On ch=1 n=b3 v=71
43740 On ch=1 n=e6 v=102
43750 On ch=1 n=g5 v=73
43866 On ch=1 n=b3 v=0
44040 On ch=1 n=g5 v=0
44062 On ch=1 n=e6 v=0
44276 On ch=1 n=d6 v=92
44290 On ch=1 n=a5 v=59
44292 On ch=1 n=b5 v=0
44300 On ch=1 n=f#5 v=86
44404 On ch=1 n=a5 v=0
44432 On ch=1 n=d6 v=0
44504 On ch=1 n=f#5 v=0
44834 On ch=1 n=a5 v=77
44848 On ch=1 n=c#5 v=45
44852 On ch=1 n=b4 v=52
45024 Par ch=1 c=64 v=63
45062 Par ch=1 c=64 v=0
45378 Par ch=1 c=64 v=63
45390 Par ch=1 c=64 v=127
45404 On ch=1 n=b5 v=76
45518 On ch=1 n=a5 v=0
45596 On ch=1 n=c#5 v=0
45632 On ch=1 n=b4 v=0
45674 On ch=1 n=b5 v=0
46028 On ch=1 n=d5 v=40
46034 On ch=1 n=g4 v=41
46038 On ch=1 n=f#6 v=89
46046 On ch=1 n=f#5 v=67
46046 On ch=1 n=b5 v=65
46078 Par ch=1 c=64 v=63
46104 Par ch=1 c=64 v=0
46144 Par ch=1 c=64 v=63
46176 Par ch=1 c=64 v=127
46272 On ch=1 n=d5 v=0
46328 On ch=1 n=g4 v=0
46408 On ch=1 n=f#5 v=0
46612 On ch=1 n=f#6 v=0
46696 On ch=1 n=e3 v=66
46946 On ch=1 n=e3 v=0
46968 On ch=1 n=g6 v=73
47094 On ch=1 n=g6 v=0
47224 On ch=1 n=b3 v=76
47228 On ch=1 n=e6 v=89
47236 On ch=1 n=g5 v=65
47312 On ch=1 n=b3 v=0
47484 On ch=1 n=d6 v=90
47592 On ch=1 n=e6 v=0
47596 On ch=1 n=b5 v=0
47630 On ch=1 n=g5 v=0
47758 On ch=1 n=a5 v=78
47766 On ch=1 n=d6 v=0
47766 On ch=1 n=f#5 v=87
47866 On ch=1 n=a5 v=0
47958 On ch=1 n=f#5 v=0
48310 On ch=1 n=b5 v=76
48312 On ch=1 n=c#5 v=75
48322 On ch=1 n=b4 v=68
48324 On ch=1 n=a5 v=67
48498 Par ch=1 c=64 v=63
48524 Par ch=1 c=64 v=0
48778 Par ch=1 c=64 v=63
48790 Par ch=1 c=64 v=127
48904 On ch=1 n=c#6 v=78
49062 On ch=1 n=c#5 v=0
49084 On ch=1 n=a5 v=0
49104 On ch=1 n=b5 v=0
49164 On ch=1 n=c#6 v=0
49232 On ch=1 n=b4 v=0
49514 On ch=1 n=f#6 v=82
49534 On ch=1 n=d5 v=45
49536 On ch=1 n=b5 v=55
49544 On ch=1 n=f#5 v=42
49546 On ch=1 n=g4 v=41
49580 Par ch=1 c=64 v=63
49598 Par ch=1 c=64 v=0
49648 Par ch=1 c=64 v=63
49680 Par ch=1 c=64 v=127
49782 On ch=1 n=d5 v=0
49834 On ch=1 n=g4 v=0
50126 On ch=1 n=e3 v=77
50352 On ch=1 n=f#6 v=0
50368 On ch=1 n=e3 v=0
50380 On ch=1 n=e6 v=78
50612 On ch=1 n=f#5 v=0
50684 On ch=1 n=b3 v=75
50688 On ch=1 n=f#6 v=100
50736 On ch=1 n=b5 v=0
50808 On ch=1 n=e6 v=0
50812 On ch=1 n=b3 v=0
51094 On ch=1 n=f#6 v=0
51244 On ch=1 n=g4 v=57
51250 On ch=1 n=g6 v=98
51260 On ch=1 n=d5 v=68
51268 On ch=1 n=g5 v=54
51270 On ch=1 n=b5 v=70
51284 On ch=1 n=d6 v=73
51546 On ch=1 n=g4 v=0
51550 On ch=1 n=b5 v=0
51552 On ch=1 n=d6 v=0
51590 On ch=1 n=d5 v=0
51610 On ch=1 n=g6 v=0
51626 On ch=1 n=g5 v=0
51858 On ch=1 n=b4 v=67
51862 On ch=1 n=b6 v=97
51868 On ch=1 n=b5 v=61
51870 On ch=1 n=f#5 v=67
51880 On ch=1 n=f#6 v=94
52144 On ch=1 n=f#6 v=0
52168 On ch=1 n=b6 v=0
52172 On ch=1 n=b4 v=0
52212 On ch=1 n=f#5 v=0
52268 On ch=1 n=b5 v=0
52514 On ch=1 n=d7 v=99
52516 On ch=1 n=b5 v=44
52524 On ch=1 n=d6 v=74
52528 On ch=1 n=g5 v=45
52538 On ch=1 n=d5 v=41
52828 On ch=1 n=d6 v=0
52868 On ch=1 n=d7 v=0
52886 On ch=1 n=b5 v=0
52932 On ch=1 n=g5 v=0
53102 On ch=1 n=d5 v=0
53296 On ch=1 n=f#6 v=74
53298 On ch=1 n=f#5 v=42
53298 On ch=1 n=c#5 v=61
53316 On ch=1 n=a5 v=40
53318 On ch=1 n=c#6 v=50
53452 Par ch=1 c=64 v=63
53466 Par ch=1 c=64 v=0
53562 Par ch=1 c=64 v=63
53574 Par ch=1 c=64 v=127
53660 On ch=1 n=a5 v=0
53686 On ch=1 n=f#5 v=0
53724 On ch=1 n=c#5 v=0
54014 On ch=1 n=a3 v=52
54124 On ch=1 n=c#6 v=0
54146 On ch=1 n=a3 v=0
54308 On ch=1 n=g6 v=62
54318 On ch=1 n=f#6 v=0
54578 On ch=1 n=g6 v=0
54586 On ch=1 n=e6 v=65
54602 On ch=1 n=b5 v=45
54602 On ch=1 n=b4 v=36
54606 On ch=1 n=g5 v=19
54626 On ch=1 n=e5 v=29
54792 On ch=1 n=g5 v=0
54792 On ch=1 n=b4 v=0
54812 On ch=1 n=e5 v=0
54832 On ch=1 n=b5 v=0
54904 On ch=1 n=e6 v=0
55162 On ch=1 n=f#5 v=49
55162 On ch=1 n=d6 v=60
55170 On ch=1 n=a5 v=38
55176 On ch=1 n=d5 v=64
55196 On ch=1 n=a4 v=34
55204 Par ch=1 c=64 v=63
55222 Par ch=1 c=64 v=0
55280 Par ch=1 c=64 v=63
55316 Par ch=1 c=64 v=127
55374 On ch=1 n=f#5 v=0
55418 On ch=1 n=d5 v=0
55466 On ch=1 n=a4 v=0
55798 On ch=1 n=d3 v=48
56008 On ch=1 n=d3 v=0
56432 On ch=1 n=a5 v=0
56500 On ch=1 n=d4 v=35
56568 On ch=1 n=d6 v=0
56632 On ch=1 n=d4 v=0
57220 On ch=1 n=e7 v=77
57272 On ch=1 n=e7 v=0
57280 On ch=1 n=f7 v=72
57338 On ch=1 n=g#5 v=33
57360 On ch=1 n=e7 v=84
57362 On ch=1 n=c6 v=54
57374 On ch=1 n=f7 v=0
57388 On ch=1 n=f6 v=46
57432 Par ch=1 c=64 v=63
57452 Par ch=1 c=64 v=0
57538 Par ch=1 c=64 v=63
57556 Par ch=1 c=64 v=127
57740 On ch=1 n=f6 v=0
57754 On ch=1 n=c6 v=0
57758 On ch=1 n=g#5 v=0
57984 On ch=1 n=d7 v=72
58004 On ch=1 n=e7 v=0
58014 On ch=1 n=d5 v=47
58182 On ch=1 n=d5 v=0
58236 On ch=1 n=e7 v=77
58254 On ch=1 n=d7 v=0
58406 On ch=1 n=e7 v=0
58520 On ch=1 n=e7 v=75
58598 On ch=1 n=e7 v=0
59056 On ch=1 n=f6 v=52
59058 On ch=1 n=a6 v=83
59058 On ch=1 n=a5 v=38
59060 On ch=1 n=c6 v=40
59102 Par ch=1 c=64 v=63
59194 Par ch=1 c=64 v=127
59334 On ch=1 n=f6 v=0
59348 On ch=1 n=a5 v=0
59350 On ch=1 n=c6 v=0
59608 On ch=1 n=d5 v=76
59764 On ch=1 n=a6 v=0
59852 On ch=1 n=c7 v=82
60120 On ch=1 n=c7 v=0
60120 On ch=1 n=b6 v=86
60184 On ch=1 n=d5 v=0
60228 On ch=1 n=b6 v=0
60630 On ch=1 n=b4 v=54
60658 On ch=1 n=a6 v=84
60672 On ch=1 n=f6 v=71
60674 On ch=1 n=d6 v=62
60730 Par ch=1 c=64 v=63
60834 Par ch=1 c=64 v=127
60970 On ch=1 n=f6 v=0
60986 On ch=1 n=d6 v=0
61012 On ch=1 n=a6 v=0
61196 On ch=1 n=f#6 v=100
61200 On ch=1 n=d6 v=81
61204 On ch=1 n=e5 v=61
61218 On ch=1 n=b5 v=76
61250 On ch=1 n=b4 v=0
61336 Par ch=1 c=64 v=63
61376 Par ch=1 c=64 v=0
61486 Par ch=1 c=64 v=63
61520 Par ch=1 c=64 v=127
61756 On ch=1 n=g#6 v=104
61764 On ch=1 n=e6 v=83
61766 On ch=1 n=d6 v=0
61816 On ch=1 n=f#6 v=0
61986 On ch=1 n=g#6 v=0
62056 On ch=1 n=b5 v=0
62314 On ch=1 n=a6 v=90
62322 On ch=1 n=f5 v=59
62336 On ch=1 n=c6 v=78
62340 On ch=1 n=a5 v=48
62342 On ch=1 n=a4 v=41
62346 On ch=1 n=e6 v=0
62406 On ch=1 n=e5 v=0
62466 Par ch=1 c=64 v=63
62498 Par ch=1 c=64 v=0
62608 Par ch=1 c=64 v=63
62630 Par ch=1 c=64 v=127
62900 On ch=1 n=e5 v=75
62902 On ch=1 n=a5 v=0
62978 On ch=1 n=c6 v=0
62988 On ch=1 n=f5 v=0
63052 On ch=1 n=a6 v=0
63396 On ch=1 n=a4 v=0
63520 On ch=1 n=d#5 v=65
63524 On ch=1 n=g5 v=41
63524 On ch=1 n=c7 v=63
63526 On ch=1 n=g6 v=55
63546 On ch=1 n=c6 v=17
63566 On ch=1 n=e5 v=0
63644 Par ch=1 c=64 v=63
63714 Par ch=1 c=64 v=127
63812 On ch=1 n=c6 v=0
63858 On ch=1 n=g6 v=0
63884 On ch=1 n=c7 v=0
63898 On ch=1 n=d#5 v=0
63916 On ch=1 n=g5 v=0
64156 On ch=1 n=d7 v=83
64236 On ch=1 n=e7 v=71
64240 On ch=1 n=d7 v=0
64314 On ch=1 n=d7 v=60
64320 On ch=1 n=e7 v=0
64324 On ch=1 n=b4 v=32
64326 On ch=1 n=d5 v=47
64326 On ch=1 n=a5 v=33
64332 On ch=1 n=f5 v=35
64352 On ch=1 n=f6 v=61
64368 On ch=1 n=a6 v=69
64376 Par ch=1 c=64 v=63
64402 Par ch=1 c=64 v=0
64484 Par ch=1 c=64 v=63
64504 Par ch=1 c=64 v=127
64694 On ch=1 n=a5 v=0
64700 On ch=1 n=f5 v=0
64738 On ch=1 n=d5 v=0
64766 On ch=1 n=b4 v=0
65008 On ch=1 n=d7 v=0
65010 On ch=1 n=c7 v=72
65052 On ch=1 n=g4 v=44
65204 On ch=1 n=c7 v=0
65296 On ch=1 n=g4 v=0
65302 On ch=1 n=d7 v=87
65328 On ch=1 n=a6 v=0
65428 On ch=1 n=d7 v=0
65498 On ch=1 n=a6 v=8
65544 On ch=1 n=a6 v=0
65568 On ch=1 n=d7 v=89
65600 On ch=1 n=f6 v=0
65676 On ch=1 n=d7 v=0
66076 On ch=1 n=b4 v=32
66090 On ch=1 n=e5 v=51
66090 On ch=1 n=g5 v=43
66116 On ch=1 n=g6 v=86
66130 On ch=1 n=b5 v=51
66132 On ch=1 n=e6 v=63
66282 Par ch=1 c=64 v=63
66294 Par ch=1 c=64 v=127
66368 On ch=1 n=g5 v=0
66410 On ch=1 n=e5 v=0
66446 On ch=1 n=b4 v=0
66682 On ch=1 n=c4 v=76
66794 On ch=1 n=c4 v=0
66928 On ch=1 n=a6 v=97
66960 On ch=1 n=g6 v=0
66976 On ch=1 n=e6 v=0
67010 On ch=1 n=b5 v=0
67060 On ch=1 n=a6 v=0
67214 On ch=1 n=a3 v=38
67226 On ch=1 n=b6 v=77
67234 On ch=1 n=b5 v=44
67248 On ch=1 n=g6 v=50
67258 On ch=1 n=e6 v=55
67298 Par ch=1 c=64 v=63
67398 Par ch=1 c=64 v=127
67550 On ch=1 n=b6 v=0
67564 On ch=1 n=g6 v=0
67576 On ch=1 n=e6 v=0
67638 On ch=1 n=b5 v=0
67796 On ch=1 n=a3 v=0
67832 On ch=1 n=d4 v=49
67836 On ch=1 n=f#6 v=71
67848 On ch=1 n=a6 v=65
67868 On ch=1 n=b5 v=34
67870 On ch=1 n=d6 v=47
67872 Par ch=1 c=64 v=63
67896 Par ch=1 c=64 v=0
67918 Par ch=1 c=64 v=63
67958 Par ch=1 c=64 v=127
68064 On ch=1 n=d4 v=0
68112 On ch=1 n=b5 v=0
68136 On ch=1 n=d6 v=0
68150 On ch=1 n=a6 v=0
68156 On ch=1 n=f#6 v=0
68318 On ch=1 n=g6 v=71
68364 On ch=1 n=a6 v=75
68376 On ch=1 n=g6 v=0
68452 On ch=1 n=g6 v=60
68458 On ch=1 n=a6 v=0
68458 On ch=1 n=a5 v=54
68466 On ch=1 n=c6 v=52
68736 On ch=1 n=e6 v=73
68778 On ch=1 n=g6 v=0
69006 On ch=1 n=f#6 v=76
69014 On ch=1 n=d5 v=55
69176 On ch=1 n=a5 v=0
69236 On ch=1 n=d5 v=0
69244 On ch=1 n=c6 v=0
69262 On ch=1 n=e6 v=0
69268 On ch=1 n=f#6 v=0
69652 On ch=1 n=g6 v=65
69656 On ch=1 n=g3 v=47
69660 On ch=1 n=d6 v=40
69666 On ch=1 n=g5 v=36
69678 On ch=1 n=b5 v=49
69810 Par ch=1 c=64 v=63
69856 Par ch=1 c=64 v=0
69912 Par ch=1 c=64 v=63
69946 Par ch=1 c=64 v=127
70100 On ch=1 n=g3 v=0
70232 On ch=1 n=d4 v=36
70406 On ch=1 n=d4 v=0
70908 On ch=1 n=d5 v=51
71038 On ch=1 n=d5 v=0
71060 On ch=1 n=g6 v=0
71086 On ch=1 n=g5 v=0
71128 On ch=1 n=b5 v=0
71244 On ch=1 n=d6 v=0
71604 On ch=1 n=f#4 v=43
71620 On ch=1 n=b4 v=54
71662 On ch=1 n=d5 v=42
71680 On ch=1 n=f#5 v=46
71682 On ch=1 n=d6 v=76
71684 On ch=1 n=b5 v=75
71742 Par ch=1 c=64 v=63
71744 On ch=1 n=e6 v=73
71748 On ch=1 n=d6 v=0
71762 Par ch=1 c=64 v=0
71810 Par ch=1 c=64 v=63
71838 On ch=1 n=d6 v=72
71848 Par ch=1 c=64 v=127
71870 On ch=1 n=e6 v=0
71978 On ch=1 n=f#5 v=0
72012 On ch=1 n=d5 v=0
72036 On ch=1 n=b4 v=0
72090 On ch=1 n=f#4 v=0
72356 On ch=1 n=c6 v=70
72370 On ch=1 n=b3 v=51
72384 On ch=1 n=d6 v=0
72566 On ch=1 n=b3 v=0
72584 On ch=1 n=d6 v=85
72610 On ch=1 n=c6 v=0
72756 On ch=1 n=d6 v=0
72850 On ch=1 n=b5 v=0
72856 On ch=1 n=d6 v=99
72986 On ch=1 n=d6 v=0
73356 On ch=1 n=e6 v=97
73358 On ch=1 n=a4 v=48
73360 On ch=1 n=e4 v=50
73362 On ch=1 n=c5 v=50
73370 On ch=1 n=e5 v=68
73376 On ch=1 n=a5 v=65
73424 Par ch=1 c=64 v=63
73440 Par ch=1 c=64 v=0
73526 Par ch=1 c=64 v=63
73546 Par ch=1 c=64 v=127
73662 On ch=1 n=a4 v=0
73666 On ch=1 n=c5 v=0
73692 On ch=1 n=e4 v=0
73804 On ch=1 n=e6 v=0
73898 On ch=1 n=a3 v=68
73984 On ch=1 n=a3 v=0
74148 On ch=1 n=c6 v=85
74258 On ch=1 n=a5 v=0
74374 On ch=1 n=c6 v=0
74412 On ch=1 n=b5 v=84
74536 On ch=1 n=e5 v=0
74624 On ch=1 n=b5 v=0
74934 On ch=1 n=a5 v=75
74942 On ch=1 n=a4 v=43
74946 On ch=1 n=d5 v=55
74948 On ch=1 n=f5 v=64
75056 Par ch=1 c=64 v=63
75082 Par ch=1 c=64 v=0
75212 Par ch=1 c=64 v=63
75232 Par ch=1 c=64 v=127
75494 On ch=1 n=b5 v=79
75494 On ch=1 n=d4 v=65
75612 Par ch=1 c=64 v=63
75634 Par ch=1 c=64 v=0
75724 Par ch=1 c=64 v=63
75744 Par ch=1 c=64 v=127
75888 On ch=1 n=d4 v=0
75930 On ch=1 n=d5 v=0
75966 On ch=1 n=a4 v=0
76014 On ch=1 n=b5 v=0
76056 On ch=1 n=c6 v=85
76100 On ch=1 n=a5 v=0
76116 On ch=1 n=f5 v=0
76172 On ch=1 n=c6 v=0
76432 On ch=1 n=d6 v=87
76500 On ch=1 n=e6 v=74
76502 On ch=1 n=d6 v=0
76560 On ch=1 n=f#4 v=33
76560 On ch=1 n=f#5 v=57
76560 On ch=1 n=b4 v=58
76564 On ch=1 n=d6 v=77
76572 On ch=1 n=d5 v=62
76590 On ch=1 n=b5 v=58
76592 Par ch=1 c=64 v=63
76604 On ch=1 n=e6 v=0
76606 Par ch=1 c=64 v=0
76658 Par ch=1 c=64 v=63
76692 Par ch=1 c=64 v=127
76792 On ch=1 n=f#5 v=0
76824 On ch=1 n=d5 v=0
76828 On ch=1 n=b4 v=0
76828 On ch=1 n=c6 v=96
76888 On ch=1 n=f#4 v=0
76928 On ch=1 n=d6 v=0
77080 On ch=1 n=d6 v=103
77090 On ch=1 n=b3 v=81
77148 On ch=1 n=c6 v=0
77156 On ch=1 n=b5 v=0
77208 On ch=1 n=b3 v=0
77228 On ch=1 n=d6 v=0
77588 On ch=1 n=f#6 v=105
77600 On ch=1 n=c#5 v=61
77604 On ch=1 n=a5 v=65
77606 On ch=1 n=a4 v=62
77610 On ch=1 n=f#4 v=67
77612 On ch=1 n=f#5 v=65
77698 On ch=1 n=a5 v=0
77810 On ch=1 n=f#5 v=0
77830 On ch=1 n=f#6 v=0
77858 On ch=1 n=a4 v=0
77884 On ch=1 n=c#5 v=0
77890 On ch=1 n=f#4 v=0
78138 On ch=1 n=e6 v=96
78142 On ch=1 n=a4 v=55
78156 On ch=1 n=c5 v=44
78158 On ch=1 n=e5 v=45
78162 On ch=1 n=a5 v=58
78162 On ch=1 n=e4 v=55
78204 Par ch=1 c=64 v=63
78216 Par ch=1 c=64 v=0
78298 Par ch=1 c=64 v=63
78320 Par ch=1 c=64 v=127
78428 On ch=1 n=c5 v=0
78444 On ch=1 n=a4 v=0
78492 On ch=1 n=e4 v=0
78664 On ch=1 n=e6 v=0
78700 On ch=1 n=a3 v=63
78812 On ch=1 n=a3 v=0
78942 On ch=1 n=c6 v=80
78960 On ch=1 n=a5 v=0
79042 On ch=1 n=e5 v=0
79180 On ch=1 n=c6 v=0
79210 On ch=1 n=b5 v=71
79244 On ch=1 n=g5 v=54
79248 On ch=1 n=e5 v=31
79438 On ch=1 n=g5 v=0
79454 On ch=1 n=e5 v=0
79758 On ch=1 n=b5 v=0
79758 On ch=1 n=a5 v=67
79768 On ch=1 n=f5 v=60
79770 On ch=1 n=d5 v=44
79774 On ch=1 n=a4 v=38
79836 Par ch=1 c=64 v=63
79878 Par ch=1 c=64 v=0
80314 On ch=1 n=d4 v=50
80320 On ch=1 n=b5 v=68
80362 Par ch=1 c=64 v=63
80366 Par ch=1 c=64 v=127
80626 On ch=1 n=a5 v=0
80656 On ch=1 n=f5 v=0
80820 On ch=1 n=b5 v=0
80898 On ch=1 n=a5 v=46
80900 On ch=1 n=c6 v=69
80914 On ch=1 n=f5 v=30
80936 On ch=1 n=d4 v=0
81006 On ch=1 n=a4 v=0
81048 On ch=1 n=d5 v=0
81128 On ch=1 n=f5 v=0
81192 On ch=1 n=a5 v=0
81236 On ch=1 n=c6 v=0
81554 On ch=1 n=b4 v=51
81556 On ch=1 n=f#4 v=29
81556 On ch=1 n=d5 v=38
81560 On ch=1 n=d6 v=64
81568 On ch=1 n=f#5 v=40
81574 On ch=1 n=b5 v=55
81598 Par ch=1 c=64 v=63
81616 Par ch=1 c=64 v=0
81690 Par ch=1 c=64 v=63
81712 Par ch=1 c=64 v=127
81838 On ch=1 n=b4 v=0
81846 On ch=1 n=d5 v=0
81884 On ch=1 n=f#4 v=0
81990 On ch=1 n=d6 v=0
82034 On ch=1 n=f#5 v=0
82168 On ch=1 n=b3 v=76
82274 On ch=1 n=b3 v=0
82434 On ch=1 n=e6 v=89
82552 On ch=1 n=e6 v=0
82600 On ch=1 n=b5 v=0
82682 On ch=1 n=f#6 v=101
82886 On ch=1 n=f#6 v=0
83196 On ch=1 n=f#5 v=77
83204 On ch=1 n=f#6 v=108
83208 On ch=1 n=c#5 v=71
83216 On ch=1 n=c#6 v=96
83218 On ch=1 n=a4 v=56
83218 On ch=1 n=a5 v=86
83284 On ch=1 n=f#5 v=0
83306 On ch=1 n=c#5 v=0
83342 On ch=1 n=a4 v=0
83560 On ch=1 n=f#6 v=0
83750 On ch=1 n=b3 v=97
83760 On ch=1 n=g6 v=103
83834 On ch=1 n=b3 v=0
83958 On ch=1 n=g6 v=0
83964 On ch=1 n=a5 v=0
84182 On ch=1 n=c#6 v=0
84300 On ch=1 n=a6 v=102
84424 On ch=1 n=a6 v=0
84902 On ch=1 n=d5 v=52
84920 On ch=1 n=f#6 v=107
84926 On ch=1 n=g4 v=55
84942 On ch=1 n=f#5 v=74
84942 On ch=1 n=b5 v=76
85012 Par ch=1 c=64 v=63
85026 Par ch=1 c=64 v=0
85062 Par ch=1 c=64 v=63
85092 Par ch=1 c=64 v=127
85184 On ch=1 n=d5 v=0
85244 On ch=1 n=g4 v=0
85304 On ch=1 n=f#5 v=0
85462 On ch=1 n=f#6 v=0
85548 On ch=1 n=e3 v=94
85808 On ch=1 n=e3 v=0
85814 On ch=1 n=g6 v=97
85960 On ch=1 n=g6 v=0
86096 On ch=1 n=b3 v=67
86100 On ch=1 n=e6 v=101
86116 On ch=1 n=g5 v=67
86242 On ch=1 n=b3 v=0
86352 On ch=1 n=g5 v=0
86526 On ch=1 n=b5 v=0
86602 On ch=1 n=d6 v=94
86604 On ch=1 n=a5 v=78
86616 On ch=1 n=f#5 v=86
86678 On ch=1 n=e6 v=0
86696 On ch=1 n=a5 v=0
86718 On ch=1 n=d6 v=0
86734 On ch=1 n=f#5 v=0
87182 On ch=1 n=a5 v=86
87184 On ch=1 n=b4 v=65
87196 On ch=1 n=c#5 v=66
87548 Par ch=1 c=64 v=63
87710 Par ch=1 c=64 v=0
87730 Par ch=1 c=64 v=63
87746 On ch=1 n=b5 v=78
87820 Par ch=1 c=64 v=127
87986 On ch=1 n=c#5 v=0
88036 On ch=1 n=a5 v=0
88098 On ch=1 n=b5 v=0
88156 On ch=1 n=b4 v=0
88374 On ch=1 n=g4 v=25
88402 On ch=1 n=d5 v=23
88410 On ch=1 n=f#6 v=85
88426 On ch=1 n=f#5 v=57
88432 On ch=1 n=b5 v=62
88500 Par ch=1 c=64 v=63
88586 Par ch=1 c=64 v=127
88702 On ch=1 n=d5 v=0
88758 On ch=1 n=g4 v=0
88778 On ch=1 n=f#5 v=0
88926 On ch=1 n=f#6 v=0
89068 On ch=1 n=e3 v=56
89310 On ch=1 n=g6 v=83
89334 On ch=1 n=e3 v=0
89432 On ch=1 n=g6 v=0
89574 On ch=1 n=b3 v=71
89584 On ch=1 n=e6 v=84
89588 On ch=1 n=g5 v=66
89662 On ch=1 n=b3 v=0
89832 On ch=1 n=d6 v=85
89852 On ch=1 n=b5 v=0
89912 On ch=1 n=e6 v=0
89974 On ch=1 n=d6 v=0
90094 On ch=1 n=a5 v=92
90100 On ch=1 n=g5 v=0
90100 On ch=1 n=f#5 v=82
90194 On ch=1 n=a5 v=0
90230 On ch=1 n=f#5 v=0
90662 On ch=1 n=b5 v=79
90666 On ch=1 n=c#5 v=76
90666 On ch=1 n=b4 v=60
90680 On ch=1 n=a5 v=60
90836 Par ch=1 c=64 v=63
90870 Par ch=1 c=64 v=0
91176 Par ch=1 c=64 v=63
91180 Par ch=1 c=64 v=127
91238 On ch=1 n=c#6 v=90
91310 On ch=1 n=b5 v=0
91430 On ch=1 n=c#5 v=0
91488 On ch=1 n=a5 v=0
91494 On ch=1 n=b4 v=0
91560 On ch=1 n=c#6 v=0
91856 On ch=1 n=g4 v=42
91882 On ch=1 n=f#6 v=91
91884 On ch=1 n=d5 v=35
91906 On ch=1 n=b5 v=62
91908 On ch=1 n=f#5 v=52
92000 Par ch=1 c=64 v=63
92024 Par ch=1 c=64 v=0
92040 Par ch=1 c=64 v=63
92074 Par ch=1 c=64 v=127
92168 On ch=1 n=d5 v=0
92214 On ch=1 n=g4 v=0
92268 On ch=1 n=f#5 v=0
92484 On ch=1 n=e3 v=91
92666 On ch=1 n=f#6 v=0
92744 On ch=1 n=e6 v=97
92830 On ch=1 n=e3 v=0
93008 On ch=1 n=b5 v=0
93032 On ch=1 n=f#6 v=107
93042 On ch=1 n=b3 v=99
93138 On ch=1 n=e6 v=0
93224 On ch=1 n=b3 v=0
93442 On ch=1 n=f#6 v=0
93606 On ch=1 n=g6 v=97
93612 On ch=1 n=g4 v=67
93616 On ch=1 n=d5 v=81
93616 On ch=1 n=g5 v=70
93628 On ch=1 n=b5 v=80
93638 On ch=1 n=d6 v=84
93874 On ch=1 n=b5 v=0
93898 On ch=1 n=d6 v=0
93898 On ch=1 n=g4 v=0
93942 On ch=1 n=d5 v=0
93942 On ch=1 n=g6 v=0
93982 On ch=1 n=g5 v=0
94218 On ch=1 n=b6 v=100
94220 On ch=1 n=b4 v=63
94224 On ch=1 n=b5 v=68
94232 On ch=1 n=f#6 v=98
94234 On ch=1 n=f#5 v=79
94478 On ch=1 n=b6 v=0
94540 On ch=1 n=b4 v=0
94562 On ch=1 n=f#5 v=0
94580 On ch=1 n=f#6 v=0
94626 On ch=1 n=b5 v=0
94890 On ch=1 n=d7 v=96
94892 On ch=1 n=b5 v=54
94898 On ch=1 n=d6 v=71
94900 On ch=1 n=g5 v=52
94908 On ch=1 n=d5 v=60
95142 On ch=1 n=d6 v=0
95192 On ch=1 n=d7 v=0
95254 On ch=1 n=b5 v=0
95306 On ch=1 n=g5 v=0
95472 On ch=1 n=d5 v=0
95650 On ch=1 n=f#5 v=46
95658 On ch=1 n=c#5 v=46
95680 On ch=1 n=f#6 v=70
95700 On ch=1 n=a5 v=34
95704 On ch=1 n=c#6 v=58
95796 Par ch=1 c=64 v=63
95812 Par ch=1 c=64 v=0
95882 Par ch=1 c=64 v=63
95904 Par ch=1 c=64 v=127
96030 On ch=1 n=a5 v=0
96070 On ch=1 n=f#5 v=0
96108 On ch=1 n=c#5 v=0
96414 On ch=1 n=a3 v=50
96450 On ch=1 n=c#6 v=0
96526 On ch=1 n=a3 v=0
96682 On ch=1 n=f#6 v=0
96692 On ch=1 n=g6 v=65
96918 On ch=1 n=g6 v=0
97018 On ch=1 n=e6 v=64
97026 On ch=1 n=b5 v=40
97028 On ch=1 n=b4 v=37
97038 On ch=1 n=g5 v=16
97068 On ch=1 n=e5 v=24
97212 On ch=1 n=b4 v=0
97222 On ch=1 n=g5 v=0
97246 On ch=1 n=b5 v=0
97308 On ch=1 n=e5 v=0
97310 On ch=1 n=e6 v=0
97626 On ch=1 n=d6 v=51
97636 On ch=1 n=a5 v=32
97640 On ch=1 n=d5 v=55
97640 On ch=1 n=f#5 v=43
97658 Par ch=1 c=64 v=63
97672 On ch=1 n=a4 v=17
97722 Par ch=1 c=64 v=127
97810 On ch=1 n=f#5 v=0
97840 On ch=1 n=d5 v=0
97900 On ch=1 n=a4 v=0
98320 On ch=1 n=d3 v=45
98486 On ch=1 n=d3 v=0
98806 On ch=1 n=a5 v=0
98960 On ch=1 n=d6 v=0
98968 On ch=1 n=d4 v=34
99130 On ch=1 n=d4 v=0
99680 On ch=1 n=e7 v=77
99712 On ch=1 n=g#5 v=41
99752 On ch=1 n=e7 v=0
99756 On ch=1 n=f7 v=63
99760 On ch=1 n=c6 v=54
99790 On ch=1 n=f6 v=43
99810 On ch=1 n=f7 v=0
99824 Par ch=1 c=64 v=63
99836 On ch=1 n=e7 v=68
99844 Par ch=1 c=64 v=0
99926 Par ch=1 c=64 v=63
99950 Par ch=1 c=64 v=127
100096 On ch=1 n=f6 v=0
100114 On ch=1 n=c6 v=0
100122 On ch=1 n=g#5 v=0
100386 On ch=1 n=d7 v=66
100402 On ch=1 n=e7 v=0
100416 On ch=1 n=d5 v=49
100648 On ch=1 n=d7 v=0
100654 On ch=1 n=e7 v=65
100810 On ch=1 n=e7 v=0
100844 On ch=1 n=d5 v=0
100912 On ch=1 n=e7 v=68
101006 On ch=1 n=e7 v=0
101438 On ch=1 n=a6 v=71
101442 On ch=1 n=c6 v=41
101450 On ch=1 n=a5 v=40
101452 On ch=1 n=f6 v=42
101464 Par ch=1 c=64 v=63
101540 Par ch=1 c=64 v=127
101668 On ch=1 n=f6 v=0
101680 On ch=1 n=c6 v=0
101694 On ch=1 n=a5 v=0
102004 On ch=1 n=d5 v=69
102038 On ch=1 n=a6 v=0
102064 On ch=1 n=d5 v=0
102288 On ch=1 n=c7 v=75
102544 On ch=1 n=b6 v=78
102602 On ch=1 n=c7 v=0
102690 On ch=1 n=b6 v=0
103054 On ch=1 n=b4 v=44
103056 On ch=1 n=a6 v=84
103074 On ch=1 n=d6 v=36
103074 On ch=1 n=f6 v=66
103226 Par ch=1 c=64 v=63
103260 Par ch=1 c=64 v=127
103388 On ch=1 n=f6 v=0
103428 On ch=1 n=d6 v=0
103438 On ch=1 n=a6 v=0
103634 On ch=1 n=f#6 v=100
103638 On ch=1 n=d6 v=83
103654 On ch=1 n=e5 v=54
103660 On ch=1 n=b5 v=68
103694 On ch=1 n=b4 v=0
103770 Par ch=1 c=64 v=63
103902 Par ch=1 c=64 v=127
104178 On ch=1 n=g#6 v=105
104208 On ch=1 n=e6 v=71
104232 Par ch=1 c=64 v=63
104248 Par ch=1 c=64 v=127
104252 On ch=1 n=f#6 v=0
104270 On ch=1 n=d6 v=0
104388 On ch=1 n=b5 v=0
104430 On ch=1 n=g#6 v=0
104708 On ch=1 n=a4 v=38
104720 On ch=1 n=f5 v=55
104724 On ch=1 n=a6 v=85
104742 On ch=1 n=c6 v=72
104746 On ch=1 n=a5 v=40
104772 On ch=1 n=e6 v=0
104818 Par ch=1 c=64 v=63
104820 On ch=1 n=e5 v=0
104844 Par ch=1 c=64 v=0
104942 Par ch=1 c=64 v=63
104960 Par ch=1 c=64 v=127
105276 On ch=1 n=a5 v=0
105284 On ch=1 n=e5 v=76
105318 On ch=1 n=c6 v=0
105342 On ch=1 n=f5 v=0
105394 On ch=1 n=a6 v=0
105900 On ch=1 n=c7 v=68
105904 On ch=1 n=d#5 v=63
105910 On ch=1 n=g6 v=52
105912 On ch=1 n=g5 v=30
105914 On ch=1 n=c6 v=39
105950 Par ch=1 c=64 v=63
105976 On ch=1 n=a4 v=0
105980 On ch=1 n=e5 v=0
106052 Par ch=1 c=64 v=127
106190 On ch=1 n=c6 v=0
106232 On ch=1 n=g6 v=0
106250 On ch=1 n=c7 v=0
106282 On ch=1 n=d#5 v=0
106302 On ch=1 n=g5 v=0
106586 On ch=1 n=d7 v=70
106654 On ch=1 n=d7 v=0
106672 On ch=1 n=e7 v=54
106718 On ch=1 n=b4 v=27
106728 On ch=1 n=d5 v=46
106732 On ch=1 n=f5 v=31
106738 On ch=1 n=a5 v=34
106748 On ch=1 n=e7 v=0
106756 On ch=1 n=d7 v=49
106772 On ch=1 n=f6 v=34
106776 On ch=1 n=a6 v=72
106812 Par ch=1 c=64 v=63
106866 Par ch=1 c=64 v=0
106882 Par ch=1 c=64 v=63
106922 Par ch=1 c=64 v=127
107132 On ch=1 n=f5 v=0
107142 On ch=1 n=a5 v=0
107158 On ch=1 n=d5 v=0
107206 On ch=1 n=b4 v=0
107424 On ch=1 n=c7 v=79
107442 On ch=1 n=d7 v=0
107460 On ch=1 n=g4 v=38
107656 On ch=1 n=c7 v=0
107682 On ch=1 n=d7 v=79
107858 On ch=1 n=d7 v=0
107964 On ch=1 n=g4 v=0
107992 On ch=1 n=d7 v=73
108068 On ch=1 n=a6 v=0
108108 On ch=1 n=d7 v=0
108114 On ch=1 n=f6 v=0
108508 On ch=1 n=g6 v=73
108516 On ch=1 n=e5 v=46
108520 On ch=1 n=g5 v=26
108530 On ch=1 n=e6 v=61
108532 On ch=1 n=b5 v=25
108534 On ch=1 n=b4 v=27
108574 Par ch=1 c=64 v=63
108628 Par ch=1 c=64 v=127
108712 On ch=1 n=g5 v=0
108762 On ch=1 n=e5 v=0
108808 On ch=1 n=b4 v=0
109106 On ch=1 n=c4 v=57
109348 On ch=1 n=a6 v=59
109364 On ch=1 n=c4 v=0
109376 On ch=1 n=g6 v=0
109384 On ch=1 n=e6 v=0
109400 On ch=1 n=b5 v=0
109466 On ch=1 n=a6 v=0
109652 On ch=1 n=g6 v=46
109660 On ch=1 n=b5 v=44
109662 On ch=1 n=a3 v=48
109666 On ch=1 n=b6 v=63
109678 On ch=1 n=e6 v=50
109702 Par ch=1 c=64 v=63
109782 Par ch=1 c=64 v=127
109938 On ch=1 n=b6 v=0
109956 On ch=1 n=g6 v=0
109962 On ch=1 n=e6 v=0
110006 On ch=1 n=a3 v=0
110010 On ch=1 n=b5 v=0
110278 On ch=1 n=f#6 v=54
110288 On ch=1 n=b5 v=36
110290 On ch=1 n=d4 v=48
110292 On ch=1 n=a6 v=56
110300 On ch=1 n=d6 v=54
110332 Par ch=1 c=64 v=63
110398 Par ch=1 c=64 v=127
110500 On ch=1 n=d4 v=0
110568 On ch=1 n=b5 v=0
110570 On ch=1 n=d6 v=0
110622 On ch=1 n=f#6 v=0
110626 On ch=1 n=a6 v=0
110852 On ch=1 n=g6 v=69
110882 On ch=1 n=g6 v=0
110890 On ch=1 n=a6 v=69
110942 On ch=1 n=g6 v=60
110948 On ch=1 n=a6 v=0
110958 On ch=1 n=a5 v=44
110974 On ch=1 n=c6 v=47
111230 On ch=1 n=e6 v=62
111298 On ch=1 n=g6 v=0
111536 On ch=1 n=f#6 v=73
111546 On ch=1 n=d5 v=49
111622 On ch=1 n=e6 v=0
111638 On ch=1 n=a5 v=0
111684 On ch=1 n=c6 v=0
111710 On ch=1 n=d5 v=0
111712 On ch=1 n=f#6 v=0
112248 On ch=1 n=g6 v=52
112256 On ch=1 n=g3 v=59
112272 On ch=1 n=d6 v=47
112272 On ch=1 n=b5 v=34
112290 On ch=1 n=g5 v=7
112430 Par ch=1 c=64 v=63
112460 Par ch=1 c=64 v=0
112574 Par ch=1 c=64 v=63
112596 Par ch=1 c=64 v=127
112884 On ch=1 n=d4 v=47
112900 On ch=1 n=g3 v=0
113050 On ch=1 n=d4 v=0
113238 Par ch=1 c=67 v=127
113450 On ch=1 n=g6 v=0
113462 On ch=1 n=d5 v=44
113488 On ch=1 n=b5 v=0
113496 On ch=1 n=d6 v=0
113518 On ch=1 n=g5 v=0
114130 On ch=1 n=a#5 v=83
114146 On ch=1 n=a#4 v=47
114166 On ch=1 n=f5 v=63
114242 Par ch=1 c=64 v=63
114276 Par ch=1 c=64 v=127
114690 On ch=1 n=d4 v=50
114812 On ch=1 n=a#5 v=0
114812 On ch=1 n=d5 v=0
114824 On ch=1 n=a#4 v=0
115094 On ch=1 n=f5 v=0
115208 On ch=1 n=a5 v=76
115228 On ch=1 n=a4 v=55
115230 On ch=1 n=d4 v=0
115232 On ch=1 n=c5 v=51
115242 On ch=1 n=e5 v=63
115420 On ch=1 n=e5 v=0
115428 On ch=1 n=a5 v=0
115492 On ch=1 n=c5 v=0
115506 On ch=1 n=a4 v=0
115756 On ch=1 n=d5 v=74
115758 On ch=1 n=g4 v=46
115758 On ch=1 n=a#4 v=67
115766 On ch=1 n=g5 v=82
115776 On ch=1 n=g3 v=44
115874 Par ch=1 c=64 v=63
115892 Par ch=1 c=64 v=0
116038 Par ch=1 c=64 v=63
116060 Par ch=1 c=64 v=127
116348 On ch=1 n=d4 v=60
116390 On ch=1 n=g4 v=0
116440 On ch=1 n=g5 v=0
116452 On ch=1 n=g3 v=0
116466 On ch=1 n=d5 v=0
116542 On ch=1 n=a#4 v=0
116740 On ch=1 n=d4 v=0
116912 On ch=1 n=f5 v=64
116924 On ch=1 n=d4 v=59
116934 On ch=1 n=a4 v=30
116938 On ch=1 n=c5 v=59
116938 On ch=1 n=f4 v=34
117046 On ch=1 n=c5 v=0
117048 On ch=1 n=a4 v=0
117080 On ch=1 n=f5 v=0
117090 On ch=1 n=d4 v=0
117092 On ch=1 n=f4 v=0
117528 On ch=1 n=d5 v=64
117540 On ch=1 n=a#5 v=94
117562 On ch=1 n=f5 v=70
117566 On ch=1 n=a#4 v=49
117648 Par ch=1 c=64 v=63
117660 Par ch=1 c=64 v=0
117782 Par ch=1 c=64 v=63
117796 Par ch=1 c=64 v=127
118034 On ch=1 n=a#4 v=0
118056 On ch=1 n=f5 v=0
118084 On ch=1 n=d4 v=84
118140 On ch=1 n=a#5 v=0
118252 On ch=1 n=d5 v=0
118588 On ch=1 n=d6 v=87
118594 On ch=1 n=d5 v=79
118604 On ch=1 n=f5 v=57
118614 On ch=1 n=a5 v=62
118642 On ch=1 n=d4 v=0
118670 On ch=1 n=a5 v=0
118674 On ch=1 n=d5 v=0
118688 On ch=1 n=d6 v=0
118690 On ch=1 n=f5 v=0
119130 On ch=1 n=a5 v=86
119132 On ch=1 n=a4 v=66
119146 On ch=1 n=e5 v=69
119150 On ch=1 n=c5 v=63
119152 On ch=1 n=g3 v=55
119154 Par ch=1 c=64 v=63
119170 Par ch=1 c=64 v=0
119252 Par ch=1 c=64 v=63
119280 Par ch=1 c=64 v=127
119400 On ch=1 n=e5 v=0
119410 On ch=1 n=a5 v=0
119432 On ch=1 n=c5 v=0
119478 On ch=1 n=a4 v=0
119704 On ch=1 n=a#5 v=91
119712 On ch=1 n=g3 v=0
119720 On ch=1 n=a#4 v=47
119722 On ch=1 n=d4 v=64
119728 On ch=1 n=d5 v=59
119748 On ch=1 n=f5 v=45
119776 Par ch=1 c=64 v=63
119848 Par ch=1 c=64 v=127
119998 On ch=1 n=a#5 v=0
120064 On ch=1 n=d5 v=0
120084 On ch=1 n=d4 v=0
120088 On ch=1 n=a#4 v=0
120154 On ch=1 n=f5 v=0
120258 On ch=1 n=d5 v=82
120270 On ch=1 n=a4 v=60
120278 On ch=1 n=f4 v=43
120280 On ch=1 n=d4 v=49
120356 Par ch=1 c=64 v=63
120426 Par ch=1 c=64 v=127
120504 On ch=1 n=a4 v=0
120564 On ch=1 n=f4 v=0
120716 On ch=1 n=d5 v=0
120920 On ch=1 n=e5 v=71
120924 On ch=1 n=a5 v=67
120936 On ch=1 n=a4 v=25
120938 On ch=1 n=c5 v=45
120942 On ch=1 n=d4 v=0
121024 Par ch=1 c=64 v=63
121050 Par ch=1 c=64 v=0
121106 Par ch=1 c=64 v=63
121138 Par ch=1 c=64 v=127
121498 On ch=1 n=d4 v=73
121500 On ch=1 n=a4 v=0
121510 On ch=1 n=a5 v=0
121588 On ch=1 n=c5 v=0
121646 On ch=1 n=e5 v=0
122004 On ch=1 n=a#5 v=87
122022 On ch=1 n=a#4 v=48
122040 On ch=1 n=d5 v=67
122042 On ch=1 n=f5 v=59
122200 On ch=1 n=a#5 v=0
122216 On ch=1 n=f5 v=0
122256 On ch=1 n=d4 v=0
122260 On ch=1 n=a#4 v=0
122300 On ch=1 n=d5 v=0
122602 On ch=1 n=g3 v=53
122610 On ch=1 n=a5 v=84
122620 On ch=1 n=a4 v=60
122624 On ch=1 n=e5 v=74
122632 On ch=1 n=c5 v=72
122712 Par ch=1 c=64 v=63
122726 Par ch=1 c=64 v=0
122850 Par ch=1 c=64 v=63
122872 Par ch=1 c=64 v=127
123180 On ch=1 n=a5 v=0
123182 On ch=1 n=d4 v=50
123232 On ch=1 n=c5 v=0
123238 On ch=1 n=a4 v=0
123248 On ch=1 n=e5 v=0
123334 On ch=1 n=g3 v=0
123674 On ch=1 n=g5 v=78
123692 On ch=1 n=d5 v=73
123692 On ch=1 n=g4 v=43
123698 On ch=1 n=a#4 v=63
123790 On ch=1 n=g5 v=0
123806 On ch=1 n=a#4 v=0
123814 On ch=1 n=d5 v=0
123824 On ch=1 n=d4 v=0
123858 On ch=1 n=g4 v=0
124246 On ch=1 n=f5 v=66
124260 On ch=1 n=a4 v=36
124262 On ch=1 n=c5 v=72
124266 On ch=1 n=f4 v=28
124308 Par ch=1 c=64 v=63
124328 Par ch=1 c=64 v=0
124368 Par ch=1 c=64 v=63
124406 Par ch=1 c=64 v=127
124502 On ch=1 n=f5 v=0
124538 On ch=1 n=a4 v=0
124664 On ch=1 n=c5 v=0
124780 On ch=1 n=f4 v=0
124816 On ch=1 n=d5 v=69
124826 On ch=1 n=g5 v=75
124830 On ch=1 n=a#4 v=55
124844 Par ch=1 c=64 v=63
124854 On ch=1 n=d4 v=38
124914 Par ch=1 c=64 v=127
125014 On ch=1 n=g5 v=0
125098 On ch=1 n=d4 v=0
125098 On ch=1 n=a#4 v=0
125148 On ch=1 n=d5 v=0
125408 On ch=1 n=c5 v=68
125408 On ch=1 n=e4 v=63
125410 On ch=1 n=g4 v=44
125420 On ch=1 n=c4 v=47
125606 On ch=1 n=c5 v=0
125704 On ch=1 n=c4 v=0
125708 On ch=1 n=e4 v=0
125720 On ch=1 n=g4 v=0
126032 On ch=1 n=d5 v=62
126036 On ch=1 n=g3 v=41
126042 On ch=1 n=a4 v=45
126046 On ch=1 n=d4 v=48
126054 On ch=1 n=f4 v=27
126134 Par ch=1 c=64 v=63
126152 Par ch=1 c=64 v=0
126294 Par ch=1 c=64 v=63
126314 Par ch=1 c=64 v=127
126440 On ch=1 n=d4 v=0
126622 On ch=1 n=d4 v=51
126894 On ch=1 n=d5 v=0
126942 On ch=1 n=g3 v=0
126960 On ch=1 n=d4 v=0
127024 On ch=1 n=f4 v=0
127154 On ch=1 n=d5 v=50
127228 On ch=1 n=a4 v=0
127412 On ch=1 n=d5 v=0
127864 On ch=1 n=a#5 v=65
127882 On ch=1 n=d5 v=54
127886 On ch=1 n=f5 v=52
127896 On ch=1 n=a#4 v=24
127996 Par ch=1 c=64 v=63
128012 Par ch=1 c=64 v=0
128152 Par ch=1 c=64 v=63
128166 Par ch=1 c=64 v=127
128416 On ch=1 n=d5 v=0
128446 On ch=1 n=d7 v=63
128464 On ch=1 n=f5 v=0
128488 On ch=1 n=a#5 v=0
128544 On ch=1 n=a#4 v=0
128954 On ch=1 n=d7 v=0
128954 On ch=1 n=a5 v=69
128966 On ch=1 n=d6 v=50
128968 On ch=1 n=a4 v=32
128976 On ch=1 n=c5 v=61
128978 On ch=1 n=e5 v=60
129060 On ch=1 n=d6 v=0
129072 On ch=1 n=c5 v=0
129074 On ch=1 n=a5 v=0
129078 On ch=1 n=e5 v=0
129126 On ch=1 n=a4 v=0
129516 On ch=1 n=g3 v=55
129522 On ch=1 n=g4 v=55
129528 On ch=1 n=a#4 v=57
129534 On ch=1 n=g5 v=68
129536 On ch=1 n=d5 v=64
129682 Par ch=1 c=64 v=63
129694 Par ch=1 c=64 v=0
129852 Par ch=1 c=64 v=63
129872 Par ch=1 c=64 v=127
130080 On ch=1 n=d4 v=73
130118 On ch=1 n=g5 v=0
130196 On ch=1 n=d5 v=0
130346 On ch=1 n=a#4 v=0
130454 On ch=1 n=g4 v=0
130456 On ch=1 n=d4 v=0
130592 On ch=1 n=f5 v=78
130592 On ch=1 n=f4 v=75
130594 On ch=1 n=d4 v=66
130594 On ch=1 n=a4 v=49
130598 On ch=1 n=g3 v=0
130610 On ch=1 n=c5 v=60
130650 On ch=1 n=d4 v=0
130676 On ch=1 n=f4 v=0
130716 On ch=1 n=a4 v=0
130840 On ch=1 n=c5 v=0
130874 On ch=1 n=f5 v=0
131156 On ch=1 n=a#5 v=97
131168 On ch=1 n=f5 v=70
131170 On ch=1 n=a#4 v=60
131176 On ch=1 n=d5 v=66
131368 Par ch=1 c=64 v=63
131382 Par ch=1 c=64 v=0
131502 Par ch=1 c=64 v=63
131512 Par ch=1 c=64 v=127
131748 On ch=1 n=d7 v=75
131838 On ch=1 n=d5 v=0
131860 On ch=1 n=a#4 v=0
131898 On ch=1 n=f5 v=0
131908 On ch=1 n=a#5 v=0
132044 On ch=1 n=d7 v=0
132316 On ch=1 n=a5 v=54
132316 On ch=1 n=d5 v=52
132320 On ch=1 n=f5 v=44
132324 On ch=1 n=d6 v=70
132444 On ch=1 n=f5 v=0
132452 On ch=1 n=a5 v=0
132468 On ch=1 n=d5 v=0
132486 On ch=1 n=d6 v=0
132908 On ch=1 n=g3 v=28
132916 On ch=1 n=a5 v=77
132938 On ch=1 n=e5 v=68
132940 On ch=1 n=a4 v=28
132940 On ch=1 n=c5 v=42
132982 Par ch=1 c=64 v=63
133000 Par ch=1 c=64 v=0
133020 Par ch=1 c=64 v=63
133056 Par ch=1 c=64 v=127
133192 On ch=1 n=e5 v=0
133204 On ch=1 n=a5 v=0
133254 On ch=1 n=c5 v=0
133450 On ch=1 n=a#5 v=92
133462 On ch=1 n=d4 v=65
133474 On ch=1 n=a#4 v=42
133484 On ch=1 n=d5 v=53
133486 On ch=1 n=f5 v=58
133672 On ch=1 n=a4 v=0
133680 On ch=1 n=a#5 v=0
133738 On ch=1 n=d4 v=0
133754 On ch=1 n=d5 v=0
133784 On ch=1 n=a#4 v=0
133796 On ch=1 n=f5 v=0
133946 On ch=1 n=g3 v=0
133978 On ch=1 n=d5 v=92
133982 On ch=1 n=a4 v=76
133994 On ch=1 n=d4 v=60
134000 On ch=1 n=f4 v=53
134016 Par ch=1 c=64 v=63
134042 Par ch=1 c=64 v=0
134060 Par ch=1 c=64 v=63
134108 Par ch=1 c=64 v=127
134230 On ch=1 n=a4 v=0
134278 On ch=1 n=f4 v=0
134484 On ch=1 n=d5 v=0
134516 Par ch=1 c=64 v=63
134520 On ch=1 n=a5 v=84
134522 On ch=1 n=a4 v=68
134528 On ch=1 n=e5 v=68
134528 Par ch=1 c=64 v=0
134540 On ch=1 n=d4 v=0
134542 On ch=1 n=c5 v=68
134586 Par ch=1 c=64 v=63
134610 Par ch=1 c=64 v=127
134698 On ch=1 n=c5 v=0
134764 On ch=1 n=e5 v=0
134816 On ch=1 n=a5 v=0
134880 On ch=1 n=a4 v=0
135130 On ch=1 n=d7 v=61
135414 On ch=1 n=d7 v=0
135618 On ch=1 n=a#5 v=80
135640 On ch=1 n=d6 v=57
135640 On ch=1 n=a#4 v=31
135660 On ch=1 n=d5 v=55
135660 On ch=1 n=f5 v=49
135704 On ch=1 n=a#5 v=0
135716 On ch=1 n=f5 v=0
135720 On ch=1 n=d5 v=0
135726 On ch=1 n=d6 v=0
135790 On ch=1 n=a#4 v=0
136178 On ch=1 n=a5 v=71
136188 On ch=1 n=a4 v=36
136192 On ch=1 n=g3 v=45
136202 On ch=1 n=c5 v=48
136204 On ch=1 n=e5 v=62
136208 On ch=1 n=g4 v=25
136256 On ch=1 n=g4 v=0
136334 Par ch=1 c=64 v=63
136350 Par ch=1 c=64 v=0
136432 Par ch=1 c=64 v=63
136458 Par ch=1 c=64 v=127
136718 On ch=1 n=d4 v=68
136774 On ch=1 n=a5 v=0
136776 On ch=1 n=e5 v=0
136898 On ch=1 n=c5 v=0
136948 On ch=1 n=a4 v=0
137196 On ch=1 n=g3 v=0
137214 On ch=1 n=g5 v=84
137218 On ch=1 n=a#4 v=65
137230 On ch=1 n=g4 v=56
137238 On ch=1 n=d4 v=0
137244 On ch=1 n=d5 v=59
137322 On ch=1 n=g4 v=0
137332 On ch=1 n=a#4 v=0
137398 On ch=1 n=d5 v=0
137478 On ch=1 n=g5 v=0
137750 On ch=1 n=f5 v=76
137752 On ch=1 n=c5 v=77
137754 On ch=1 n=a4 v=65
137766 On ch=1 n=f4 v=59
137862 Par ch=1 c=64 v=63
137936 Par ch=1 c=64 v=127
138070 On ch=1 n=a4 v=0
138076 On ch=1 n=f4 v=0
138106 On ch=1 n=c5 v=0
138160 On ch=1 n=f5 v=0
138318 On ch=1 n=g5 v=79
138326 On ch=1 n=d7 v=84
138328 On ch=1 n=a#4 v=61
138330 On ch=1 n=d5 v=71
138336 On ch=1 n=g4 v=50
138400 Par ch=1 c=64 v=63
138420 Par ch=1 c=64 v=127
138566 On ch=1 n=g5 v=0
138570 On ch=1 n=d5 v=0
138592 On ch=1 n=a#4 v=0
138616 On ch=1 n=g4 v=0
138916 On ch=1 n=d7 v=0
138924 On ch=1 n=c5 v=63
138926 On ch=1 n=e4 v=60
138930 On ch=1 n=d6 v=65
138948 On ch=1 n=g4 v=58
138960 On ch=1 n=c4 v=48
139126 On ch=1 n=d6 v=0
139252 On ch=1 n=c5 v=0
139256 On ch=1 n=g4 v=0
139300 On ch=1 n=e4 v=0
139332 On ch=1 n=c4 v=0
139570 On ch=1 n=a4 v=48
139576 On ch=1 n=d5 v=68
139590 On ch=1 n=d4 v=59
139590 On ch=1 n=g3 v=22
139592 On ch=1 n=f4 v=28
139736 Par ch=1 c=64 v=63
139758 Par ch=1 c=64 v=0
139896 Par ch=1 c=64 v=63
139914 Par ch=1 c=64 v=127
140008 On ch=1 n=d4 v=0
140154 On ch=1 n=d4 v=57
140362 On ch=1 n=d5 v=0
140454 On ch=1 n=g3 v=0
140480 On ch=1 n=f4 v=0
140502 On ch=1 n=d4 v=0
140716 On ch=1 n=d5 v=58
140760 On ch=1 n=a4 v=0
140872 On ch=1 n=d5 v=0
141466 On ch=1 n=c5 v=52
141476 On ch=1 n=g#4 v=57
141478 On ch=1 n=f5 v=45
141484 On ch=1 n=f6 v=86
141498 On ch=1 n=g#5 v=50
141510 Par ch=1 c=64 v=63
141518 On ch=1 n=c6 v=59
141526 Par ch=1 c=64 v=0
141592 Par ch=1 c=67 v=0
141608 Par ch=1 c=64 v=63
141632 Par ch=1 c=64 v=127
141716 On ch=1 n=f5 v=0
141750 On ch=1 n=c5 v=0
141804 On ch=1 n=g#4 v=0
142222 On ch=1 n=g2 v=66
142296 On ch=1 n=g2 v=0
142386 On ch=1 n=f6 v=0
142432 On ch=1 n=c6 v=0
142510 On ch=1 n=g#5 v=0
142894 On ch=1 n=a#4 v=45
142912 On ch=1 n=d#5 v=62
142916 On ch=1 n=d#6 v=89
142920 On ch=1 n=a#5 v=72
142928 On ch=1 n=g4 v=51
142934 On ch=1 n=g5 v=54
143110 On ch=1 n=a#5 v=0
143112 On ch=1 n=d#6 v=0
143138 On ch=1 n=d#5 v=0
143154 On ch=1 n=g5 v=0
143216 On ch=1 n=a#4 v=0
143270 On ch=1 n=g4 v=0
143452 On ch=1 n=d5 v=70
143460 On ch=1 n=d6 v=92
143462 On ch=1 n=a4 v=52
143468 On ch=1 n=f4 v=50
143476 On ch=1 n=f5 v=68
143476 On ch=1 n=a5 v=63
143570 On ch=1 n=d5 v=0
143588 On ch=1 n=a4 v=0
143652 On ch=1 n=f4 v=0
144006 On ch=1 n=g3 v=94
144082 Par ch=1 c=64 v=63
144130 Par ch=1 c=64 v=127
144244 On ch=1 n=d6 v=0
144256 On ch=1 n=a5 v=0
144280 On ch=1 n=g3 v=0
144296 On ch=1 n=f5 v=0
144600 On ch=1 n=c6 v=93
144604 On ch=1 n=c5 v=74
144612 On ch=1 n=d#5 v=73
144612 On ch=1 n=g4 v=63
144612 On ch=1 n=d#4 v=65
144622 On ch=1 n=g5 v=68
144864 On ch=1 n=g5 v=0
144874 On ch=1 n=c5 v=0
144880 On ch=1 n=g4 v=0
144882 On ch=1 n=c6 v=0
144910 On ch=1 n=d#4 v=0
144956 On ch=1 n=d#5 v=0
145118 On ch=1 n=f#4 v=71
145128 On ch=1 n=b5 v=101
145130 On ch=1 n=b4 v=70
145138 On ch=1 n=d#4 v=58
145140 On ch=1 n=f#5 v=89
145142 On ch=1 n=d#5 v=80
145200 Par ch=1 c=64 v=63
145260 Par ch=1 c=64 v=127
145338 On ch=1 n=b4 v=0
145346 On ch=1 n=f#4 v=0
145382 On ch=1 n=d#4 v=0
145688 On ch=1 n=g2 v=100
145772 On ch=1 n=g2 v=0
145818 On ch=1 n=d#5 v=0
145846 On ch=1 n=b5 v=0
145854 On ch=1 n=f#5 v=0
146314 On ch=1 n=c6 v=98
146336 On ch=1 n=d#4 v=70
146342 On ch=1 n=g4 v=62
146344 On ch=1 n=c5 v=62
146344 On ch=1 n=g5 v=72
146348 On ch=1 n=d#5 v=67
146496 On ch=1 n=g4 v=0
146498 On ch=1 n=d#5 v=0
146500 On ch=1 n=c5 v=0
146504 On ch=1 n=c6 v=0
146512 On ch=1 n=d#4 v=0
146536 On ch=1 n=g5 v=0
146824 On ch=1 n=d6 v=94
146832 On ch=1 n=d5 v=80
146832 On ch=1 n=a4 v=72
146844 On ch=1 n=f4 v=74
146844 On ch=1 n=f5 v=73
146846 On ch=1 n=a5 v=83
147006 On ch=1 n=f5 v=0
147028 On ch=1 n=a5 v=0
147046 On ch=1 n=a4 v=0
147056 On ch=1 n=f4 v=0
147058 On ch=1 n=d6 v=0
147074 On ch=1 n=d5 v=0
147412 On ch=1 n=d#6 v=99
147422 On ch=1 n=d#5 v=86
147424 On ch=1 n=b4 v=77
147432 On ch=1 n=b5 v=82
147434 On ch=1 n=g5 v=66
147442 On ch=1 n=g4 v=64
147532 Par ch=1 c=64 v=63
147548 Par ch=1 c=64 v=127
147728 On ch=1 n=d#6 v=0
147732 On ch=1 n=b5 v=0
147746 On ch=1 n=g5 v=0
147782 On ch=1 n=d#5 v=0
147786 On ch=1 n=g4 v=0
147786 On ch=1 n=b4 v=0
147948 On ch=1 n=c6 v=102
147948 On ch=1 n=c5 v=96
147952 On ch=1 n=d#5 v=99
147956 On ch=1 n=g5 v=84
147958 On ch=1 n=g4 v=77
147958 On ch=1 n=d#4 v=85
147998 Par ch=1 c=64 v=63
148030 Par ch=1 c=64 v=127
148132 On ch=1 n=g5 v=0
148158 On ch=1 n=d#5 v=0
148186 On ch=1 n=g4 v=0
148210 On ch=1 n=c6 v=0
148226 On ch=1 n=c5 v=0
148236 On ch=1 n=d#4 v=0
148596 On ch=1 n=d#5 v=89
148600 On ch=1 n=g#6 v=110
148606 On ch=1 n=g#5 v=104
148606 On ch=1 n=d#6 v=93
148614 On ch=1 n=c6 v=97
148616 On ch=1 n=g#4 v=84
148672 Par ch=1 c=64 v=63
148684 Par ch=1 c=64 v=0
148732 Par ch=1 c=64 v=63
148754 Par ch=1 c=64 v=127
148816 On ch=1 n=d#5 v=0
148854 On ch=1 n=g#4 v=0
149268 On ch=1 n=g2 v=103
149328 On ch=1 n=g2 v=0
149440 On ch=1 n=c6 v=0
149454 On ch=1 n=g#6 v=0
149466 On ch=1 n=g#5 v=0
149534 On ch=1 n=d#6 v=0
149812 On ch=1 n=g6 v=101
149814 On ch=1 n=g5 v=90
149814 On ch=1 n=g4 v=84
149820 On ch=1 n=d5 v=90
149822 On ch=1 n=d6 v=94
149826 On ch=1 n=a#5 v=92
149888 On ch=1 n=g5 v=0
149896 On ch=1 n=d5 v=0
149926 On ch=1 n=g4 v=0
149930 On ch=1 n=d6 v=0
149934 On ch=1 n=g6 v=0
149944 On ch=1 n=a#5 v=0
150308 On ch=1 n=f6 v=102
150316 On ch=1 n=f5 v=97
150320 On ch=1 n=g#5 v=92
150320 On ch=1 n=f4 v=84
150322 On ch=1 n=c6 v=96
150324 On ch=1 n=c5 v=93
150344 Par ch=1 c=64 v=63
150356 Par ch=1 c=64 v=0
150400 Par ch=1 c=64 v=63
150424 Par ch=1 c=64 v=127
150488 On ch=1 n=f5 v=0
150496 On ch=1 n=c5 v=0
150544 On ch=1 n=f4 v=0
150838 On ch=1 n=g3 v=111
150898 On ch=1 n=c6 v=0
150930 On ch=1 n=g3 v=0
150932 On ch=1 n=g#5 v=0
150936 On ch=1 n=f6 v=0
151440 On ch=1 n=d#6 v=114
151442 On ch=1 n=d#5 v=98
151442 On ch=1 n=a#4 v=90
151442 On ch=1 n=d#4 v=99
151454 On ch=1 n=a#5 v=100
151456 On ch=1 n=g5 v=91
151578 On ch=1 n=d#5 v=0
151580 On ch=1 n=a#4 v=0
151610 On ch=1 n=g5 v=0
151612 On ch=1 n=a#5 v=0
151622 On ch=1 n=d#6 v=0
151624 On ch=1 n=d#4 v=0
151966 On ch=1 n=d6 v=111
151970 On ch=1 n=a5 v=100
151972 On ch=1 n=d5 v=100
151972 On ch=1 n=d4 v=96
151976 On ch=1 n=a4 v=85
151980 On ch=1 n=f#5 v=100
151982 Par ch=1 c=64 v=63
152046 Par ch=1 c=64 v=127
152096 On ch=1 n=d5 v=0
152134 On ch=1 n=a4 v=0
152176 On ch=1 n=d4 v=0
152458 On ch=1 n=g2 v=118
152492 On ch=1 n=f#5 v=0
152504 On ch=1 n=d6 v=0
152508 On ch=1 n=a5 v=0
152540 On ch=1 n=g2 v=0
152980 On ch=1 n=d#6 v=115
152984 On ch=1 n=d#5 v=110
152986 On ch=1 n=a#4 v=93
152988 On ch=1 n=d#4 v=104
152990 On ch=1 n=a#5 v=112
152992 On ch=1 n=g5 v=103
153066 On ch=1 n=a#4 v=0
153068 On ch=1 n=g5 v=0
153076 On ch=1 n=d#5 v=0
153080 On ch=1 n=d#4 v=0
153116 On ch=1 n=a#5 v=0
153180 On ch=1 n=d#6 v=0
153492 On ch=1 n=f6 v=109
153504 On ch=1 n=f4 v=84
153504 On ch=1 n=c6 v=107
153506 On ch=1 n=g#5 v=103
153510 On ch=1 n=f5 v=109
153512 On ch=1 n=c5 v=104
153562 Par ch=1 c=64 v=63
153608 Par ch=1 c=64 v=127
153778 On ch=1 n=g#5 v=0
153778 On ch=1 n=f4 v=0
153798 On ch=1 n=f6 v=0
153810 On ch=1 n=c5 v=0
153864 On ch=1 n=f5 v=0
153866 On ch=1 n=c6 v=0
154016 On ch=1 n=g6 v=112
154022 On ch=1 n=g4 v=84
154024 On ch=1 n=d6 v=108
154026 On ch=1 n=g5 v=109
154026 On ch=1 n=b5 v=103
154028 On ch=1 n=d5 v=103
154056 Par ch=1 c=64 v=63
154102 Par ch=1 c=64 v=127
154216 On ch=1 n=g6 v=0
154238 On ch=1 n=g5 v=0
154256 On ch=1 n=d5 v=0
154262 On ch=1 n=d6 v=0
154264 On ch=1 n=b5 v=0
154274 On ch=1 n=g4 v=0
154614 On ch=1 n=d#6 v=113
154620 On ch=1 n=g5 v=113
154622 On ch=1 n=a#5 v=115
154624 On ch=1 n=d#4 v=113
154624 On ch=1 n=d#5 v=118
154626 On ch=1 n=a#4 v=106
154638 Par ch=1 c=64 v=63
154646 Par ch=1 c=64 v=0
154758 Par ch=1 c=64 v=63
154764 Par ch=1 c=64 v=127
154798 On ch=1 n=g5 v=0
154806 On ch=1 n=d#4 v=0
154828 On ch=1 n=a#5 v=0
154842 On ch=1 n=a#4 v=0
154880 On ch=1 n=d#5 v=0
154888 On ch=1 n=d#6 v=0
155290 On ch=1 n=g#5 v=120
155290 On ch=1 n=f6 v=111
155292 On ch=1 n=c#7 v=114
155292 On ch=1 n=f5 v=113
155294 On ch=1 n=c#6 v=120
155294 On ch=1 n=g#6 v=106
155302 On ch=1 n=c#5 v=105
155306 Par ch=1 c=64 v=63
155310 Par ch=1 c=64 v=0
155454 Par ch=1 c=64 v=63
155456 Par ch=1 c=64 v=127
155532 On ch=1 n=g#5 v=0
155540 On ch=1 n=f5 v=0
155586 On ch=1 n=c#5 v=0
156000 On ch=1 n=g3 v=121
156002 On ch=1 n=g2 v=117
156260 On ch=1 n=f6 v=0
156272 On ch=1 n=g2 v=0
156274 On ch=1 n=c#6 v=0
156286 On ch=1 n=g#6 v=0
156288 On ch=1 n=c#7 v=0
156314 On ch=1 n=g3 v=0
156728 On ch=1 n=c6 v=112
156730 On ch=1 n=c7 v=116
156732 On ch=1 n=g6 v=113
156732 On ch=1 n=c5 v=98
156734 On ch=1 n=g5 v=97
156738 On ch=1 n=e6 v=108
156738 On ch=1 n=e5 v=96
156982 On ch=1 n=e5 v=0
156990 On ch=1 n=g5 v=0
156994 On ch=1 n=c7 v=0
156998 On ch=1 n=c5 v=0
157000 On ch=1 n=c6 v=0
157006 On ch=1 n=e6 v=0
157008 On ch=1 n=g6 v=0
157298 On ch=1 n=b6 v=106
157304 On ch=1 n=f#6 v=109
157308 On ch=1 n=d#6 v=108
157308 On ch=1 n=b4 v=99
157308 On ch=1 n=b5 v=118
157314 On ch=1 n=d#5 v=108
157316 On ch=1 n=f#5 v=107
157460 On ch=1 n=d#6 v=0
157468 On ch=1 n=f#6 v=0
157478 On ch=1 n=b4 v=0
157488 On ch=1 n=d#5 v=0
157494 On ch=1 n=b6 v=0
157496 On ch=1 n=f#5 v=0
157544 On ch=1 n=b5 v=0
157834 On ch=1 n=c7 v=120
157840 On ch=1 n=c6 v=109
157840 On ch=1 n=g6 v=111
157842 On ch=1 n=c5 v=78
157844 On ch=1 n=g5 v=97
157844 On ch=1 n=e6 v=108
157854 On ch=1 n=e5 v=90
157898 On ch=1 n=g6 v=0
157902 On ch=1 n=e6 v=0
157912 On ch=1 n=c7 v=0
157914 On ch=1 n=c6 v=0
157916 On ch=1 n=g5 v=0
157946 On ch=1 n=e5 v=0
157950 On ch=1 n=c5 v=0
158340 On ch=1 n=g4 v=80
158346 On ch=1 n=g6 v=117
158346 On ch=1 n=g5 v=106
158348 On ch=1 n=e5 v=99
158350 On ch=1 n=c5 v=96
158356 On ch=1 n=c6 v=113
158356 On ch=1 n=e6 v=114
158410 On ch=1 n=c6 v=0
158412 On ch=1 n=e5 v=0
158414 On ch=1 n=c5 v=0
158414 On ch=1 n=g5 v=0
158414 On ch=1 n=g4 v=0
158420 On ch=1 n=e6 v=0
158440 On ch=1 n=g6 v=0
158960 On ch=1 n=a#6 v=118
158962 On ch=1 n=f6 v=116
158968 On ch=1 n=c#6 v=110
158970 Par ch=1 c=64 v=63
158972 On ch=1 n=a#5 v=118
158974 On ch=1 n=f5 v=103
158976 Par ch=1 c=64 v=0
158976 On ch=1 n=a#4 v=95
158984 On ch=1 n=c#5 v=95
159076 Par ch=1 c=64 v=63
159082 Par ch=1 c=64 v=127
159186 On ch=1 n=a#5 v=0
159202 On ch=1 n=f5 v=0
159232 On ch=1 n=c#5 v=0
159262 On ch=1 n=a#4 v=0
159660 On ch=1 n=g2 v=109
159660 On ch=1 n=g3 v=92
159920 On ch=1 n=g2 v=0
160018 On ch=1 n=g3 v=0
160096 On ch=1 n=f6 v=0
160152 On ch=1 n=c#6 v=0
160188 On ch=1 n=a#6 v=0
160398 On ch=1 n=g#5 v=98
160402 On ch=1 n=d#5 v=90
160404 On ch=1 n=g#6 v=115
160406 On ch=1 n=g#4 v=77
160408 On ch=1 n=c6 v=99
160410 On ch=1 n=d#6 v=104
160410 On ch=1 n=c5 v=68
160572 On ch=1 n=c5 v=0
160576 On ch=1 n=c6 v=0
160584 On ch=1 n=d#6 v=0
160584 On ch=1 n=g#6 v=0
160604 On ch=1 n=d#5 v=0
160624 On ch=1 n=g#5 v=0
160668 On ch=1 n=g#4 v=0
160956 On ch=1 n=g5 v=96
160958 On ch=1 n=g4 v=84
160958 On ch=1 n=g6 v=112
160960 On ch=1 n=d5 v=94
160964 On ch=1 n=d6 v=107
160966 On ch=1 n=b5 v=102
160972 On ch=1 n=b4 v=83
161116 On ch=1 n=b5 v=0
161138 On ch=1 n=b4 v=0
161148 On ch=1 n=g5 v=0
161160 On ch=1 n=g4 v=0
161164 On ch=1 n=d5 v=0
161164 On ch=1 n=g6 v=0
161286 On ch=1 n=d6 v=0
161482 On ch=1 n=g#6 v=112
161488 On ch=1 n=d#6 v=105
161490 On ch=1 n=g#5 v=101
161492 On ch=1 n=d#5 v=93
161498 On ch=1 n=c6 v=100
161506 On ch=1 n=c5 v=73
161512 On ch=1 n=g#4 v=72
161584 On ch=1 n=g#5 v=0
161606 On ch=1 n=g#6 v=0
161608 On ch=1 n=d#5 v=0
161616 On ch=1 n=c5 v=0
161618 On ch=1 n=d#6 v=0
161622 On ch=1 n=c6 v=0
161664 On ch=1 n=g#4 v=0
162128 On ch=1 n=b5 v=98
162128 On ch=1 n=d#6 v=101
162134 On ch=1 n=g#5 v=91
162134 On ch=1 n=d#5 v=87
162136 On ch=1 n=b4 v=80
162138 On ch=1 n=g#4 v=70
162150 On ch=1 n=d#4 v=66
162268 Par ch=1 c=64 v=63
162278 Par ch=1 c=64 v=0
162446 Par ch=1 c=64 v=63
162448 Par ch=1 c=64 v=127
162502 On ch=1 n=d#5 v=0
162508 On ch=1 n=b4 v=0
162534 On ch=1 n=g#4 v=0
162570 On ch=1 n=d#4 v=0
162838 On ch=1 n=g3 v=91
162916 On ch=1 n=g3 v=0
162920 On ch=1 n=b5 v=0
162932 On ch=1 n=d#6 v=0
162962 On ch=1 n=g#5 v=0
163418 On ch=1 n=g#4 v=54
163424 On ch=1 n=c#6 v=86
163428 On ch=1 n=g#5 v=69
163432 On ch=1 n=c#5 v=65
163434 On ch=1 n=c#4 v=63
163442 On ch=1 n=f5 v=71
163806 On ch=1 n=g#4 v=0
163850 On ch=1 n=c#5 v=0
163864 On ch=1 n=c#6 v=0
163878 On ch=1 n=f5 v=0
163938 On ch=1 n=g#5 v=0
163998 On ch=1 n=a#4 v=62
164002 On ch=1 n=a#3 v=63
164004 On ch=1 n=c#4 v=0
164012 On ch=1 n=c#5 v=72
164016 On ch=1 n=a#5 v=85
164026 On ch=1 n=f5 v=65
164056 On ch=1 n=f4 v=25
164110 On ch=1 n=a#4 v=0
164154 On ch=1 n=f4 v=0
164170 On ch=1 n=a#5 v=0
164192 On ch=1 n=f5 v=0
164218 On ch=1 n=c#5 v=0
164220 On ch=1 n=a#3 v=0
164728 On ch=1 n=g2 v=60
164728 On ch=1 n=f5 v=76
164732 On ch=1 n=g#4 v=61
164738 On ch=1 n=c#5 v=53
164750 On ch=1 n=f4 v=68
164886 Par ch=1 c=64 v=63
164904 Par ch=1 c=64 v=0
165006 Par ch=1 c=64 v=63
165030 Par ch=1 c=64 v=127
165340 On ch=1 n=f4 v=0
165364 On ch=1 n=g3 v=68
165368 On ch=1 n=f5 v=0
165402 On ch=1 n=g#4 v=0
165432 On ch=1 n=c#5 v=0
165434 On ch=1 n=g2 v=0
165906 On ch=1 n=g#5 v=79
165926 On ch=1 n=g#4 v=37
165934 On ch=1 n=b4 v=62
165960 On ch=1 n=e5 v=52
166252 On ch=1 n=g#5 v=0
166256 On ch=1 n=b4 v=0
166292 On ch=1 n=e5 v=0
166466 On ch=1 n=g#4 v=0
166478 On ch=1 n=g4 v=46
166488 On ch=1 n=d#5 v=70
166492 On ch=1 n=a#4 v=52
166556 Par ch=1 c=64 v=63
166572 Par ch=1 c=64 v=0
166644 Par ch=1 c=64 v=63
166672 Par ch=1 c=64 v=127
166806 On ch=1 n=g3 v=0
167040 On ch=1 n=g3 v=55
167112 On ch=1 n=a#4 v=0
167176 On ch=1 n=g4 v=0
167330 On ch=1 n=d#5 v=0
167500 On ch=1 n=g3 v=0
167562 On ch=1 n=c#5 v=80
167570 On ch=1 n=g#4 v=52
167584 On ch=1 n=f4 v=43
167780 On ch=1 n=g#4 v=0
167784 On ch=1 n=c#5 v=0
167816 On ch=1 n=f4 v=0
168134 On ch=1 n=c5 v=57
168138 On ch=1 n=g4 v=47
168144 On ch=1 n=g2 v=41
168152 On ch=1 n=e4 v=36
168178 Par ch=1 c=64 v=63
168192 Par ch=1 c=64 v=0
168244 Par ch=1 c=64 v=63
168268 Par ch=1 c=64 v=127
168720 On ch=1 n=g3 v=47
168840 On ch=1 n=e4 v=0
168848 On ch=1 n=c5 v=0
168902 On ch=1 n=g2 v=0
168916 On ch=1 n=g4 v=0
169360 On ch=1 n=d#5 v=55
169376 On ch=1 n=f#4 v=43
169396 On ch=1 n=b4 v=53
169424 On ch=1 n=g3 v=0
169572 On ch=1 n=f#4 v=0
169624 On ch=1 n=b4 v=0
169642 On ch=1 n=d#5 v=0
170076 Par ch=1 c=67 v=127
170188 On ch=1 n=a#5 v=45
170200 On ch=1 n=f5 v=60
170204 On ch=1 n=a#4 v=27
170220 On ch=1 n=d5 v=32
170320 Par ch=1 c=64 v=63
170334 Par ch=1 c=64 v=0
170406 Par ch=1 c=64 v=63
170430 Par ch=1 c=64 v=127
170828 On ch=1 n=d4 v=57
170932 On ch=1 n=d5 v=0
170968 On ch=1 n=f5 v=0
170982 On ch=1 n=a#4 v=0
171036 On ch=1 n=a#5 v=0
171360 On ch=1 n=a5 v=63
171370 On ch=1 n=a4 v=41
171384 On ch=1 n=c5 v=45
171388 On ch=1 n=e5 v=52
171420 On ch=1 n=d4 v=0
171504 On ch=1 n=e5 v=0
171504 On ch=1 n=a5 v=0
171516 On ch=1 n=c5 v=0
171556 On ch=1 n=a4 v=0
171884 On ch=1 n=a#4 v=60
171894 On ch=1 n=g3 v=35
171898 On ch=1 n=g4 v=40
171902 On ch=1 n=g5 v=63
171908 On ch=1 n=d5 v=60
172010 Par ch=1 c=64 v=63
172030 Par ch=1 c=64 v=0
172144 Par ch=1 c=64 v=63
172168 Par ch=1 c=64 v=127
172452 On ch=1 n=d4 v=57
172510 On ch=1 n=g5 v=0
172538 On ch=1 n=d5 v=0
172586 On ch=1 n=a#4 v=0
172660 On ch=1 n=g3 v=0
172690 On ch=1 n=g4 v=0
172972 On ch=1 n=f5 v=68
172992 On ch=1 n=a4 v=41
173006 On ch=1 n=c5 v=55
173016 On ch=1 n=f4 v=47
173116 On ch=1 n=c5 v=0
173116 On ch=1 n=a4 v=0
173162 On ch=1 n=f5 v=0
173180 On ch=1 n=f4 v=0
173552 On ch=1 n=a#5 v=83
173566 On ch=1 n=f5 v=60
173570 On ch=1 n=d4 v=0
173570 On ch=1 n=d5 v=50
173572 On ch=1 n=a#4 v=23
173640 Par ch=1 c=64 v=63
173654 Par ch=1 c=64 v=0
173752 Par ch=1 c=64 v=63
173772 Par ch=1 c=64 v=127
174078 On ch=1 n=a#4 v=0
174098 On ch=1 n=d4 v=65
174118 On ch=1 n=f5 v=0
174254 On ch=1 n=a#5 v=0
174262 On ch=1 n=d5 v=0
174626 On ch=1 n=d6 v=71
174628 On ch=1 n=d5 v=50
174654 On ch=1 n=f5 v=32
174656 On ch=1 n=a5 v=51
174732 On ch=1 n=d5 v=0
174798 On ch=1 n=d4 v=0
174808 On ch=1 n=d6 v=0
174814 On ch=1 n=a5 v=0
174818 On ch=1 n=f5 v=0
175148 On ch=1 n=a5 v=71
175168 On ch=1 n=a4 v=34
175170 On ch=1 n=g3 v=32
175188 On ch=1 n=e5 v=48
175192 On ch=1 n=c5 v=17
175218 Par ch=1 c=64 v=63
175256 Par ch=1 c=64 v=127
175404 On ch=1 n=e5 v=0
175414 On ch=1 n=a5 v=0
175446 On ch=1 n=c5 v=0
175704 On ch=1 n=a#5 v=76
175714 On ch=1 n=d4 v=53
175736 On ch=1 n=d5 v=54
175738 On ch=1 n=a#4 v=21
175744 On ch=1 n=f5 v=55
175786 On ch=1 n=a4 v=0
175976 On ch=1 n=a#5 v=0
176012 On ch=1 n=d4 v=0
176026 On ch=1 n=d5 v=0
176050 On ch=1 n=a#4 v=0
176188 On ch=1 n=f5 v=0
176224 On ch=1 n=d5 v=80
176228 On ch=1 n=g3 v=0
176234 On ch=1 n=a4 v=46
176240 On ch=1 n=d4 v=46
176260 On ch=1 n=f4 v=31
176406 On ch=1 n=a4 v=0
176450 On ch=1 n=f4 v=0
176706 On ch=1 n=d5 v=0
176772 On ch=1 n=a4 v=30
176774 On ch=1 n=a5 v=72
176788 On ch=1 n=e5 v=68
176796 On ch=1 n=c5 v=46
176856 On ch=1 n=d5 v=42
176890 Par ch=1 c=64 v=63
176976 Par ch=1 c=64 v=127
177172 On ch=1 n=d4 v=0
177254 On ch=1 n=a4 v=0
177340 On ch=1 n=d4 v=76
177396 On ch=1 n=a5 v=0
177420 On ch=1 n=c5 v=0
177480 On ch=1 n=e5 v=0
177536 On ch=1 n=d5 v=0
177866 On ch=1 n=a#5 v=90
177906 On ch=1 n=a#4 v=36
177908 On ch=1 n=d5 v=54
177916 On ch=1 n=f5 v=48
178100 On ch=1 n=f5 v=0
178102 On ch=1 n=a#4 v=0
178172 On ch=1 n=a#5 v=0
178356 On ch=1 n=d4 v=0
178414 On ch=1 n=d5 v=0
178436 On ch=1 n=a5 v=65
178450 On ch=1 n=a4 v=32
178454 On ch=1 n=e5 v=63
178464 On ch=1 n=g3 v=35
178466 On ch=1 n=c5 v=38
178544 Par ch=1 c=64 v=63
178564 Par ch=1 c=64 v=0
178608 Par ch=1 c=64 v=63
178658 Par ch=1 c=64 v=127
179002 On ch=1 n=d4 v=61
179076 On ch=1 n=g3 v=0
179080 On ch=1 n=a5 v=0
179148 On ch=1 n=c5 v=0
179160 On ch=1 n=a4 v=0
179204 On ch=1 n=e5 v=0
179524 On ch=1 n=g5 v=62
179534 On ch=1 n=g4 v=33
179542 On ch=1 n=a#4 v=36
179544 On ch=1 n=d5 v=55
179706 On ch=1 n=d5 v=0
179756 On ch=1 n=a#4 v=0
179768 On ch=1 n=g5 v=0
179804 On ch=1 n=g4 v=0
180094 On ch=1 n=c5 v=54
180098 On ch=1 n=f5 v=45
180102 On ch=1 n=a4 v=31
180112 On ch=1 n=f4 v=33
180132 Par ch=1 c=64 v=63
180186 Par ch=1 c=64 v=127
180374 On ch=1 n=d4 v=0
180400 On ch=1 n=a4 v=0
180566 On ch=1 n=f5 v=0
180568 On ch=1 n=c5 v=0
180648 On ch=1 n=g5 v=60
180652 On ch=1 n=a#4 v=44
180662 On ch=1 n=d4 v=41
180662 On ch=1 n=d5 v=63
180670 On ch=1 n=f4 v=0
180872 On ch=1 n=g5 v=0
180916 On ch=1 n=a#4 v=0
180924 Par ch=1 c=67 v=127
181106 On ch=1 n=d5 v=0
181220 On ch=1 n=d4 v=0
181226 On ch=1 n=c5 v=68
181234 On ch=1 n=g4 v=42
181248 On ch=1 n=c4 v=38
181252 On ch=1 n=e4 v=16
181434 On ch=1 n=c5 v=0
181550 On ch=1 n=g4 v=0
181812 On ch=1 n=d5 v=53
181820 On ch=1 n=g3 v=36
181830 On ch=1 n=a4 v=30
181852 On ch=1 n=f4 v=30
181908 On ch=1 n=c4 v=0
181940 Par ch=1 c=64 v=63
181956 On ch=1 n=e4 v=0
181964 Par ch=1 c=64 v=0
182036 Par ch=1 c=64 v=63
182064 Par ch=1 c=64 v=127
182326 On ch=1 n=g3 v=0
182386 On ch=1 n=f4 v=0
182394 On ch=1 n=d4 v=50
182438 On ch=1 n=d4 v=0
182442 On ch=1 n=d5 v=0
182606 On ch=1 n=a4 v=0
183102 On ch=1 n=d5 v=47
183260 On ch=1 n=d5 v=0
183636 On ch=1 n=b4 v=41
183666 On ch=1 n=d5 v=57
183700 On ch=1 n=f#5 v=53
183730 Par ch=1 c=67 v=0
183754 On ch=1 n=d7 v=74
183756 On ch=1 n=b5 v=45
183814 On ch=1 n=d7 v=0
183814 On ch=1 n=e7 v=85
183888 On ch=1 n=d7 v=84
183900 On ch=1 n=e7 v=0
183904 Par ch=1 c=64 v=63
183918 Par ch=1 c=64 v=127
184410 On ch=1 n=c7 v=80
184416 On ch=1 n=d7 v=0
184550 On ch=1 n=d5 v=0
184554 On ch=1 n=f#5 v=0
184588 On ch=1 n=b4 v=0
184626 On ch=1 n=d7 v=98
184662 On ch=1 n=c7 v=0
184664 On ch=1 n=b5 v=0
184808 On ch=1 n=d7 v=0
184872 On ch=1 n=a5 v=82
184884 On ch=1 n=d7 v=91
184888 On ch=1 n=a4 v=46
184890 On ch=1 n=e5 v=68
184894 On ch=1 n=c5 v=55
185054 On ch=1 n=d7 v=0
185066 On ch=1 n=c5 v=0
185078 On ch=1 n=e5 v=0
185084 On ch=1 n=a4 v=0
185138 On ch=1 n=a5 v=0
185376 On ch=1 n=g5 v=82
185390 On ch=1 n=d5 v=71
185396 On ch=1 n=g4 v=50
185396 On ch=1 n=b4 v=54
185402 On ch=1 n=g6 v=85
185416 Par ch=1 c=64 v=63
185470 Par ch=1 c=64 v=127
185586 On ch=1 n=d5 v=0
185588 On ch=1 n=g5 v=0
185628 On ch=1 n=b4 v=0
185642 On ch=1 n=g4 v=0
185938 On ch=1 n=d4 v=77
185944 On ch=1 n=g3 v=55
186006 On ch=1 n=g3 v=0
186024 On ch=1 n=d4 v=0
186148 On ch=1 n=g6 v=0
186218 On ch=1 n=a6 v=92
186438 On ch=1 n=a6 v=0
186454 On ch=1 n=f#5 v=91
186454 On ch=1 n=f#4 v=72
186456 On ch=1 n=d5 v=77
186462 On ch=1 n=b4 v=64
186466 On ch=1 n=b6 v=94
186570 On ch=1 n=f#4 v=0
186586 On ch=1 n=b4 v=0
186596 On ch=1 n=d5 v=0
186618 On ch=1 n=b6 v=0
186626 On ch=1 n=f#5 v=0
186890 On ch=1 n=b4 v=65
186930 On ch=1 n=d5 v=63
186950 On ch=1 n=g5 v=71
186982 On ch=1 n=b5 v=74
187012 On ch=1 n=a6 v=87
187044 Par ch=1 c=64 v=63
187090 Par ch=1 c=64 v=127
187344 On ch=1 n=a6 v=0
187516 On ch=1 n=g6 v=84
187540 On ch=1 n=b4 v=0
187556 On ch=1 n=a6 v=91
187570 On ch=1 n=d5 v=0
187584 On ch=1 n=g6 v=0
187604 On ch=1 n=g5 v=0
187646 On ch=1 n=b5 v=0
187654 On ch=1 n=g6 v=73
187660 On ch=1 n=a6 v=0
187854 On ch=1 n=e6 v=80
187882 On ch=1 n=g6 v=0
188042 On ch=1 n=e6 v=0
188088 On ch=1 n=f#6 v=100
188092 On ch=1 n=f#5 v=77
188094 On ch=1 n=d6 v=71
188096 On ch=1 n=d5 v=51
188096 On ch=1 n=a5 v=68
188182 On ch=1 n=d6 v=0
188194 On ch=1 n=a5 v=0
188218 On ch=1 n=f#5 v=0
188238 On ch=1 n=d5 v=0
188436 On ch=1 n=f#6 v=0
188572 On ch=1 n=a5 v=74
188572 On ch=1 n=g5 v=71
188584 On ch=1 n=d5 v=68
188586 On ch=1 n=a4 v=51
188600 On ch=1 n=g6 v=84
188664 Par ch=1 c=64 v=63
188720 Par ch=1 c=64 v=127
188818 On ch=1 n=d5 v=0
188838 On ch=1 n=a4 v=0
188936 On ch=1 n=g5 v=0
188946 On ch=1 n=a5 v=0
189096 On ch=1 n=b4 v=44
189098 On ch=1 n=b5 v=84
189102 On ch=1 n=g5 v=70
189122 On ch=1 n=d5 v=72
189186 On ch=1 n=g6 v=0
189192 On ch=1 n=b5 v=0
189198 On ch=1 n=g5 v=0
189222 On ch=1 n=d5 v=0
189252 On ch=1 n=b4 v=0
189590 On ch=1 n=d5 v=78
189598 On ch=1 n=b4 v=55
189600 On ch=1 n=d4 v=51
189614 On ch=1 n=a6 v=78
189616 On ch=1 n=f#6 v=80
189624 On ch=1 n=g4 v=57
189712 On ch=1 n=f#6 v=0
189730 On ch=1 n=a6 v=0
189740 On ch=1 n=d4 v=0
189756 On ch=1 n=g4 v=0
189768 On ch=1 n=b4 v=0
189846 On ch=1 n=d5 v=0
190086 On ch=1 n=a4 v=46
190098 On ch=1 n=c5 v=48
190132 On ch=1 n=e5 v=64
190160 On ch=1 n=a5 v=69
190172 On ch=1 n=c7 v=83
190200 Par ch=1 c=64 v=63
190206 On ch=1 n=e6 v=58
190210 Par ch=1 c=64 v=0
190220 On ch=1 n=d7 v=81
190228 On ch=1 n=c7 v=0
190260 Par ch=1 c=64 v=63
190284 Par ch=1 c=64 v=127
190306 On ch=1 n=c7 v=61
190324 On ch=1 n=d7 v=0
190410 On ch=1 n=a5 v=0
190416 On ch=1 n=e5 v=0
190450 On ch=1 n=c5 v=0
190482 On ch=1 n=a4 v=0
190774 On ch=1 n=g3 v=70
190782 On ch=1 n=d4 v=69
190838 On ch=1 n=g3 v=0
190870 On ch=1 n=d4 v=0
191036 On ch=1 n=e6 v=0
191038 On ch=1 n=b6 v=61
191046 On ch=1 n=c7 v=0
191172 On ch=1 n=b6 v=0
191292 On ch=1 n=b5 v=87
191294 On ch=1 n=f#5 v=74
191304 On ch=1 n=d5 v=66
191318 On ch=1 n=a6 v=80
191324 On ch=1 n=b4 v=26
191326 On ch=1 n=f#6 v=67
191426 On ch=1 n=f#6 v=0
191436 On ch=1 n=a6 v=0
191452 On ch=1 n=d5 v=0
191470 On ch=1 n=f#5 v=0
191480 On ch=1 n=b5 v=0
191494 On ch=1 n=b4 v=0
191838 On ch=1 n=a5 v=88
191846 On ch=1 n=a4 v=50
191854 On ch=1 n=e5 v=66
191854 On ch=1 n=e7 v=86
191860 On ch=1 n=e6 v=72
191862 On ch=1 n=c5 v=63
191998 Par ch=1 c=64 v=63
192042 Par ch=1 c=64 v=127
192300 On ch=1 n=e7 v=0
192378 On ch=1 n=d7 v=86
192432 On ch=1 n=c5 v=0
192468 On ch=1 n=a4 v=0
192472 On ch=1 n=a5 v=0
192478 On ch=1 n=e5 v=0
192596 On ch=1 n=d7 v=0
192622 On ch=1 n=e7 v=63
192810 On ch=1 n=e7 v=0
192914 On ch=1 n=g4 v=47
192916 On ch=1 n=g5 v=56
192918 On ch=1 n=b6 v=70
192920 On ch=1 n=e5 v=59
192932 On ch=1 n=b4 v=63
193028 On ch=1 n=g4 v=0
193034 On ch=1 n=b6 v=0
193036 On ch=1 n=e5 v=0
193038 On ch=1 n=g5 v=0
193058 On ch=1 n=b4 v=0
193062 On ch=1 n=e6 v=0
193462 On ch=1 n=c#5 v=71
193464 On ch=1 n=f#5 v=61
193464 On ch=1 n=a6 v=66
193466 On ch=1 n=f#6 v=61
193472 On ch=1 n=f#4 v=61
193486 Par ch=1 c=64 v=63
193490 On ch=1 n=c#6 v=37
193530 Par ch=1 c=64 v=127
193624 On ch=1 n=f#4 v=0
193626 On ch=1 n=c#5 v=0
193630 On ch=1 n=c#6 v=0
193632 On ch=1 n=f#6 v=0
193650 On ch=1 n=f#5 v=0
193660 On ch=1 n=a6 v=0
193994 On ch=1 n=g4 v=54
193998 On ch=1 n=g5 v=67
194008 On ch=1 n=d5 v=65
194014 Par ch=1 c=64 v=63
194020 On ch=1 n=b6 v=71
194024 On ch=1 n=b5 v=48
194034 On ch=1 n=g6 v=55
194072 Par ch=1 c=64 v=127
194160 On ch=1 n=g5 v=0
194168 On ch=1 n=d5 v=0
194184 On ch=1 n=g6 v=0
194192 On ch=1 n=b6 v=0
194196 On ch=1 n=g4 v=0
194244 On ch=1 n=b5 v=0
194588 On ch=1 n=c#4 v=61
194590 On ch=1 n=g6 v=85
194598 On ch=1 n=c#5 v=63
194604 On ch=1 n=a4 v=54
194608 On ch=1 n=c#6 v=67
194620 On ch=1 n=e4 v=70
194626 Par ch=1 c=64 v=63
194644 On ch=1 n=a5 v=27
194684 Par ch=1 c=64 v=127
194832 On ch=1 n=c#4 v=0
194842 On ch=1 n=a5 v=0
194864 On ch=1 n=a4 v=0
194866 On ch=1 n=e4 v=0
194884 On ch=1 n=c#6 v=0
194886 On ch=1 n=g6 v=0
194924 On ch=1 n=c#5 v=0
195242 On ch=1 n=f#4 v=53
195250 On ch=1 n=b4 v=50
195254 On ch=1 n=d#4 v=43
195266 On ch=1 n=f#6 v=61
195270 On ch=1 n=b5 v=44
195272 On ch=1 n=d#5 v=70
195282 On ch=1 n=d#6 v=72
195292 Par ch=1 c=64 v=63
195362 Par ch=1 c=64 v=127
195488 On ch=1 n=d#5 v=0
195522 On ch=1 n=b4 v=0
195578 On ch=1 n=f#4 v=0
195608 On ch=1 n=d#4 v=0
195902 On ch=1 n=b2 v=48
196476 On ch=1 n=b2 v=0
196582 On ch=1 n=b3 v=36
196600 On ch=1 n=b5 v=0
196774 On ch=1 n=b3 v=0
196844 On ch=1 n=d#6 v=0
196852 On ch=1 n=f#6 v=0
197374 On ch=1 n=f#6 v=69
197396 On ch=1 n=d#6 v=65
197402 On ch=1 n=a#5 v=30
197442 On ch=1 n=a#4 v=41
197448 On ch=1 n=f#6 v=0
197458 On ch=1 n=d#5 v=60
197462 On ch=1 n=g#6 v=60
197510 On ch=1 n=f#5 v=53
197514 On ch=1 n=f#6 v=85
197520 On ch=1 n=g#6 v=0
197540 Par ch=1 c=64 v=63
197552 Par ch=1 c=64 v=0
197672 Par ch=1 c=64 v=63
197684 Par ch=1 c=64 v=127
197880 On ch=1 n=d#5 v=0
197886 On ch=1 n=f#5 v=0
197908 On ch=1 n=a#4 v=0
198156 On ch=1 n=e6 v=71
198166 On ch=1 n=f#6 v=0
198166 On ch=1 n=d#4 v=58
198430 On ch=1 n=f#6 v=87
198518 On ch=1 n=e6 v=0
198620 On ch=1 n=f#6 v=0
198706 On ch=1 n=f#6 v=80
198746 On ch=1 n=d#4 v=0
198794 On ch=1 n=d#6 v=0
198852 On ch=1 n=a#5 v=0
198928 On ch=1 n=f#6 v=0
199210 On ch=1 n=c#5 v=44
199220 On ch=1 n=g#6 v=79
199224 On ch=1 n=g#4 v=40
199242 On ch=1 n=g#5 v=50
199254 On ch=1 n=e5 v=52
199262 On ch=1 n=c#6 v=58
199276 Par ch=1 c=64 v=63
199286 Par ch=1 c=64 v=0
199326 Par ch=1 c=64 v=63
199358 Par ch=1 c=64 v=127
199468 On ch=1 n=c#5 v=0
199476 On ch=1 n=e5 v=0
199498 On ch=1 n=g#4 v=0
199626 On ch=1 n=g#6 v=0
199766 On ch=1 n=c#4 v=73
199824 On ch=1 n=c#4 v=0
200020 On ch=1 n=e6 v=84
200310 On ch=1 n=d#6 v=95
200370 On ch=1 n=e6 v=0
200410 On ch=1 n=c#6 v=0
200506 On ch=1 n=g#5 v=0
200530 On ch=1 n=d#6 v=0
200806 On ch=1 n=c#6 v=90
200812 On ch=1 n=c#5 v=58
200814 On ch=1 n=f#5 v=57
200824 On ch=1 n=a5 v=59
200976 Par ch=1 c=64 v=63
201072 Par ch=1 c=64 v=127
201332 On ch=1 n=f#4 v=76
201348 On ch=1 n=d#6 v=98
201486 Par ch=1 c=64 v=63
201524 Par ch=1 c=64 v=127
201866 On ch=1 n=e6 v=98
201906 On ch=1 n=c#5 v=0
201908 On ch=1 n=f#5 v=0
201926 On ch=1 n=f#4 v=0
201952 On ch=1 n=a5 v=0
201956 On ch=1 n=d#6 v=0
201986 On ch=1 n=c#6 v=0
202006 On ch=1 n=e6 v=0
202232 On ch=1 n=a#4 v=42
202274 On ch=1 n=f#6 v=79
202290 On ch=1 n=d#5 v=65
202290 On ch=1 n=a#5 v=67
202308 On ch=1 n=d#6 v=72
202316 On ch=1 n=f#6 v=0
202336 On ch=1 n=f#5 v=56
202342 On ch=1 n=g#6 v=80
202400 Par ch=1 c=64 v=63
202410 On ch=1 n=f#6 v=94
202418 Par ch=1 c=64 v=0
202450 On ch=1 n=g#6 v=0
202452 Par ch=1 c=64 v=63
202492 Par ch=1 c=64 v=127
202616 On ch=1 n=f#5 v=0
202620 On ch=1 n=d#5 v=0
202646 On ch=1 n=a#4 v=0
202674 On ch=1 n=e6 v=99
202716 On ch=1 n=f#6 v=0
202912 On ch=1 n=f#6 v=103
202926 On ch=1 n=d#4 v=94
202964 On ch=1 n=d#6 v=0
203008 On ch=1 n=e6 v=0
203098 On ch=1 n=a#5 v=0
203106 On ch=1 n=d#4 v=0
203296 On ch=1 n=f#6 v=0
203436 On ch=1 n=c#5 v=72
203448 On ch=1 n=a#6 v=103
203450 On ch=1 n=a#4 v=59
203456 On ch=1 n=f5 v=68
203468 On ch=1 n=a#5 v=53
203470 On ch=1 n=c#6 v=73
203622 Par ch=1 c=64 v=63
203632 Par ch=1 c=64 v=127
203842 On ch=1 n=a#6 v=0
203864 On ch=1 n=a#5 v=0
203864 On ch=1 n=f5 v=0
203870 On ch=1 n=c#5 v=0
203910 On ch=1 n=c#6 v=0
204042 On ch=1 n=g#4 v=58
204044 On ch=1 n=c#5 v=59
204060 On ch=1 n=g#6 v=89
204078 On ch=1 n=a#4 v=0
204080 On ch=1 n=g#5 v=37
204082 On ch=1 n=c#6 v=66
204084 On ch=1 n=e5 v=35
204126 Par ch=1 c=64 v=63
204134 Par ch=1 c=64 v=0
204204 Par ch=1 c=64 v=63
204222 Par ch=1 c=64 v=127
204396 On ch=1 n=c#5 v=0
204414 On ch=1 n=e5 v=0
204420 On ch=1 n=g#4 v=0
204468 On ch=1 n=g#6 v=0
204660 On ch=1 n=c#4 v=66
204758 On ch=1 n=c#4 v=0
204920 On ch=1 n=c#6 v=0
204928 On ch=1 n=e6 v=69
205028 On ch=1 n=g#5 v=0
205116 On ch=1 n=e6 v=0
205214 On ch=1 n=d#6 v=70
205224 On ch=1 n=g#5 v=52
205240 On ch=1 n=b5 v=68
205490 On ch=1 n=b5 v=0
205554 On ch=1 n=g#5 v=0
205746 On ch=1 n=c#6 v=76
205748 On ch=1 n=f#5 v=57
205750 On ch=1 n=c#5 v=58
205770 On ch=1 n=a5 v=55
205806 On ch=1 n=d#6 v=0
205900 Par ch=1 c=64 v=63
205984 Par ch=1 c=64 v=127
206296 On ch=1 n=f#4 v=54
206302 On ch=1 n=d#6 v=78
206728 On ch=1 n=c#6 v=0
206730 On ch=1 n=a5 v=0
206860 On ch=1 n=d#6 v=0
206890 On ch=1 n=c#6 v=55
206890 On ch=1 n=e6 v=75
206892 On ch=1 n=a5 v=35
207058 On ch=1 n=f#4 v=0
207084 On ch=1 n=c#5 v=0
207120 On ch=1 n=f#5 v=0
207132 On ch=1 n=a5 v=0
207182 On ch=1 n=c#6 v=0
207202 On ch=1 n=e6 v=0
207542 On ch=1 n=d#5 v=59
207546 On ch=1 n=f#5 v=37
207554 On ch=1 n=f#6 v=76
207560 On ch=1 n=a#4 v=41
207576 On ch=1 n=a#5 v=53
207582 On ch=1 n=d#6 v=60
207656 Par ch=1 c=64 v=63
207676 Par ch=1 c=64 v=0
207702 Par ch=1 c=64 v=63
207748 Par ch=1 c=64 v=127
207904 On ch=1 n=d#5 v=0
207920 On ch=1 n=f#5 v=0
207928 On ch=1 n=a#4 v=0
208170 On ch=1 n=d#4 v=79
208252 On ch=1 n=d#4 v=0
208444 On ch=1 n=g#6 v=96
208528 On ch=1 n=f#6 v=0
208646 On ch=1 n=g#6 v=0
208732 On ch=1 n=a#6 v=106
208822 On ch=1 n=d#6 v=0
208882 On ch=1 n=a#5 v=0
209000 On ch=1 n=a#6 v=0
209270 On ch=1 n=c#5 v=70
209276 On ch=1 n=a#5 v=81
209280 On ch=1 n=a#6 v=106
209286 On ch=1 n=f6 v=93
209288 On ch=1 n=c#6 v=91
209290 On ch=1 n=f5 v=68
209342 Par ch=1 c=64 v=63
209358 Par ch=1 c=64 v=0
209378 Par ch=1 c=64 v=63
209414 Par ch=1 c=64 v=127
209498 On ch=1 n=a#5 v=0
209530 On ch=1 n=f5 v=0
209570 On ch=1 n=c#5 v=0
209802 On ch=1 n=a#6 v=0
209834 On ch=1 n=b6 v=91
209842 On ch=1 n=d#4 v=88
209942 On ch=1 n=d#4 v=0
210228 On ch=1 n=b6 v=0
210450 On ch=1 n=c#7 v=100
210590 On ch=1 n=c#6 v=0
210698 On ch=1 n=f6 v=0
210768 On ch=1 n=c#7 v=0
211082 On ch=1 n=b4 v=70
211096 On ch=1 n=f#5 v=67
211126 On ch=1 n=a#6 v=109
211136 On ch=1 n=d#6 v=86
211150 On ch=1 n=a#5 v=63
211214 Par ch=1 c=64 v=63
211230 Par ch=1 c=64 v=0
211254 Par ch=1 c=64 v=63
211282 Par ch=1 c=64 v=127
211374 On ch=1 n=f#5 v=0
211436 On ch=1 n=b4 v=0
211790 On ch=1 n=g#3 v=97
211798 On ch=1 n=a#5 v=0
211806 On ch=1 n=a#6 v=0
212082 On ch=1 n=b6 v=99
212244 On ch=1 n=b6 v=0
212258 On ch=1 n=g#3 v=0
212378 On ch=1 n=g#6 v=108
212386 On ch=1 n=d#4 v=86
212392 On ch=1 n=b5 v=84
212470 On ch=1 n=d#4 v=0
212572 On ch=1 n=b5 v=0
212582 On ch=1 n=g#6 v=0
212598 On ch=1 n=d#6 v=0
212918 On ch=1 n=f#6 v=108
212940 On ch=1 n=a#5 v=88
212944 On ch=1 n=c#6 v=78
212980 On ch=1 n=c#6 v=0
213042 On ch=1 n=f#6 v=0
213208 On ch=1 n=a#5 v=0
213524 On ch=1 n=c#6 v=95
213530 On ch=1 n=d#5 v=74
213540 On ch=1 n=f5 v=67
213938 Par ch=1 c=64 v=63
213980 Par ch=1 c=64 v=0
214136 On ch=1 n=d#6 v=89
214190 Par ch=1 c=64 v=63
214196 Par ch=1 c=64 v=127
214302 On ch=1 n=c#6 v=0
214374 On ch=1 n=f5 v=0
214420 On ch=1 n=d#6 v=0
214460 On ch=1 n=d#5 v=0
214810 On ch=1 n=f#5 v=57
214830 On ch=1 n=b4 v=46
214844 On ch=1 n=a#6 v=85
214862 Par ch=1 c=64 v=63
214866 On ch=1 n=d#6 v=58
214882 Par ch=1 c=64 v=0
214886 On ch=1 n=a#5 v=35
214922 Par ch=1 c=64 v=63
214958 Par ch=1 c=64 v=127
215046 On ch=1 n=f#5 v=0
215084 On ch=1 n=b4 v=0
215316 On ch=1 n=a#5 v=0
215512 On ch=1 n=g#3 v=61
215532 On ch=1 n=a#6 v=0
215786 On ch=1 n=b6 v=65
215860 On ch=1 n=g#3 v=0
215920 On ch=1 n=b6 v=0
216054 On ch=1 n=d#4 v=70
216060 On ch=1 n=g#6 v=80
216068 On ch=1 n=b5 v=63
216136 On ch=1 n=d#4 v=0
216314 On ch=1 n=f#6 v=92
216352 On ch=1 n=d#6 v=0
216416 On ch=1 n=g#6 v=0
216584 On ch=1 n=a#5 v=84
216590 On ch=1 n=c#6 v=98
216626 On ch=1 n=b5 v=0
216644 On ch=1 n=f#6 v=0
216754 On ch=1 n=c#6 v=0
217160 On ch=1 n=a#5 v=0
217200 On ch=1 n=d#6 v=85
217206 On ch=1 n=c#6 v=79
217216 On ch=1 n=d#5 v=69
217218 On ch=1 n=f5 v=51
217318 Par ch=1 c=64 v=63
217338 Par ch=1 c=64 v=0
217370 Par ch=1 c=64 v=63
217412 Par ch=1 c=64 v=127
217798 On ch=1 n=f6 v=71
217842 On ch=1 n=f5 v=0
218050 On ch=1 n=d#5 v=0
218052 On ch=1 n=c#6 v=0
218054 On ch=1 n=f6 v=0
218076 On ch=1 n=d#6 v=0
218440 On ch=1 n=a#6 v=70
218446 On ch=1 n=f#5 v=51
218454 On ch=1 n=d#6 v=56
218458 On ch=1 n=a#5 v=40
218466 On ch=1 n=b4 v=46
218506 Par ch=1 c=64 v=63
218524 Par ch=1 c=64 v=0
218548 Par ch=1 c=64 v=63
218584 Par ch=1 c=64 v=127
218652 On ch=1 n=f#5 v=0
218706 On ch=1 n=b4 v=0
219066 On ch=1 n=g#3 v=72
219290 On ch=1 n=g#3 v=0
219346 On ch=1 n=g#6 v=93
219384 On ch=1 n=a#6 v=0
219628 On ch=1 n=d#4 v=87
219648 On ch=1 n=a#6 v=101
219744 On ch=1 n=g#6 v=0
219754 On ch=1 n=d#4 v=0
219914 On ch=1 n=a#5 v=0
219942 On ch=1 n=d#6 v=0
220018 On ch=1 n=a#6 v=0
220264 On ch=1 n=b6 v=97
220274 On ch=1 n=f#5 v=66
220276 On ch=1 n=b5 v=61
220284 On ch=1 n=b4 v=57
220294 On ch=1 n=d#6 v=74
220298 On ch=1 n=f#6 v=79
220500 On ch=1 n=b4 v=0
220522 On ch=1 n=d#6 v=0
220558 On ch=1 n=f#6 v=0
220570 On ch=1 n=f#5 v=0
220578 On ch=1 n=b5 v=0
220616 On ch=1 n=b6 v=0
220952 On ch=1 n=d#7 v=101
220962 On ch=1 n=d#6 v=70
220972 On ch=1 n=a#5 v=65
220974 On ch=1 n=d#5 v=62
220976 On ch=1 n=a#6 v=80
221256 On ch=1 n=a#5 v=0
221308 On ch=1 n=d#5 v=0
221310 On ch=1 n=a#6 v=0
221312 On ch=1 n=d#6 v=0
221370 On ch=1 n=d#7 v=0
221678 On ch=1 n=f#5 v=46
221690 On ch=1 n=d#6 v=43
221696 On ch=1 n=f#7 v=88
221698 On ch=1 n=b5 v=49
221710 On ch=1 n=f#6 v=43
222112 On ch=1 n=f#7 v=0
222146 On ch=1 n=b5 v=0
222146 On ch=1 n=d#6 v=0
222266 On ch=1 n=f#5 v=0
222366 On ch=1 n=f#6 v=0
222400 On ch=1 n=f5 v=46
222406 On ch=1 n=a#5 v=49
222460 On ch=1 n=a#6 v=57
222486 On ch=1 n=c#6 v=38
222514 On ch=1 n=f6 v=41
222554 Par ch=1 c=64 v=63
222652 Par ch=1 c=64 v=127
222750 On ch=1 n=c#6 v=0
222778 On ch=1 n=a#5 v=0
222778 On ch=1 n=f5 v=0
223130 On ch=1 n=c#4 v=63
223236 On ch=1 n=c#4 v=0
223418 On ch=1 n=a#6 v=0
223424 On ch=1 n=b6 v=66
223458 On ch=1 n=f6 v=0
223584 On ch=1 n=b6 v=0
223696 On ch=1 n=g#5 v=61
223712 On ch=1 n=g#6 v=85
223714 On ch=1 n=b5 v=39
223720 On ch=1 n=d#5 v=58
223722 On ch=1 n=d#6 v=64
223842 On ch=1 n=d#6 v=0
223852 On ch=1 n=g#5 v=0
223856 On ch=1 n=d#5 v=0
223868 On ch=1 n=b5 v=0
223868 On ch=1 n=g#6 v=0
224302 On ch=1 n=c#6 v=49
224304 On ch=1 n=f#6 v=65
224304 On ch=1 n=a#5 v=58
224308 On ch=1 n=f#5 v=60
224334 On ch=1 n=c#5 v=50
224348 Par ch=1 c=64 v=63
224364 Par ch=1 c=64 v=0
224386 Par ch=1 c=64 v=63
224416 Par ch=1 c=64 v=127
224580 On ch=1 n=a#5 v=0
224612 On ch=1 n=f#5 v=0
224662 On ch=1 n=c#5 v=0
224990 On ch=1 n=f#3 v=50
225150 On ch=1 n=f#3 v=0
225688 On ch=1 n=c#6 v=0
225716 On ch=1 n=f#4 v=41
225798 On ch=1 n=f#6 v=0
225888 On ch=1 n=f#4 v=0
226596 On ch=1 n=e7 v=68
226646 On ch=1 n=f#7 v=80
226652 On ch=1 n=e7 v=0
226730 On ch=1 n=e7 v=77
226756 On ch=1 n=f#7 v=0
226756 On ch=1 n=c6 v=52
226764 On ch=1 n=e6 v=39
226788 On ch=1 n=a5 v=22
226800 Par ch=1 c=64 v=63
226820 Par ch=1 c=64 v=0
226872 Par ch=1 c=64 v=63
226904 Par ch=1 c=64 v=127
227394 On ch=1 n=f#5 v=55
227408 On ch=1 n=d7 v=59
227410 On ch=1 n=e7 v=0
227658 On ch=1 n=d7 v=0
227664 On ch=1 n=e7 v=82
227800 On ch=1 n=e7 v=0
227942 On ch=1 n=e7 v=72
228024 On ch=1 n=e7 v=0
228172 On ch=1 n=c6 v=0
228186 On ch=1 n=a5 v=0
228196 On ch=1 n=e6 v=0
228282 On ch=1 n=f#5 v=0
228506 On ch=1 n=a6 v=70
228512 On ch=1 n=a5 v=38
228520 On ch=1 n=e6 v=35
228528 On ch=1 n=c6 v=33
229078 On ch=1 n=f#5 v=73
229314 On ch=1 n=a6 v=0
229362 On ch=1 n=c7 v=87
229622 On ch=1 n=e6 v=0
229638 On ch=1 n=b6 v=90
229662 On ch=1 n=c6 v=0
229672 On ch=1 n=c7 v=0
229686 On ch=1 n=a5 v=0
229728 On ch=1 n=f#5 v=0
229758 On ch=1 n=b6 v=0
230160 On ch=1 n=f#5 v=59
230164 On ch=1 n=a6 v=98
230188 On ch=1 n=a5 v=41
230204 On ch=1 n=e6 v=45
230302 On ch=1 n=c6 v=5
230434 On ch=1 n=c6 v=0
230436 On ch=1 n=e6 v=0
230448 On ch=1 n=a6 v=0
230570 On ch=1 n=a5 v=0
230690 On ch=1 n=f#5 v=0
230734 On ch=1 n=f#6 v=103
230758 On ch=1 n=a5 v=41
230766 On ch=1 n=d#6 v=70
230770 On ch=1 n=b4 v=45
230776 On ch=1 n=b5 v=55
230898 Par ch=1 c=64 v=63
230914 Par ch=1 c=64 v=127
230978 On ch=1 n=a5 v=0
231018 On ch=1 n=b4 v=0
231060 On ch=1 n=d#6 v=0
231070 On ch=1 n=b5 v=0
231258 On ch=1 n=e4 v=72
231290 Par ch=1 c=64 v=63
231298 Par ch=1 c=64 v=127
231322 On ch=1 n=f#6 v=0
231350 On ch=1 n=g#6 v=92
231376 On ch=1 n=b5 v=49
231376 On ch=1 n=d6 v=68
231382 On ch=1 n=e4 v=0
231390 On ch=1 n=f5 v=65
231626 On ch=1 n=g#6 v=0
231650 On ch=1 n=d6 v=0
231676 On ch=1 n=b5 v=0
231868 On ch=1 n=f5 v=0
232056 On ch=1 n=a6 v=79
232068 On ch=1 n=a4 v=40
232070 On ch=1 n=f5 v=47
232076 On ch=1 n=a5 v=34
232088 On ch=1 n=c6 v=57
232248 Par ch=1 c=64 v=63
232280 Par ch=1 c=64 v=0
232366 Par ch=1 c=64 v=63
232382 Par ch=1 c=64 v=127
232686 On ch=1 n=e5 v=72
232750 On ch=1 n=a5 v=0
232772 On ch=1 n=c6 v=0
232852 On ch=1 n=a6 v=0
232858 On ch=1 n=f5 v=0
233064 On ch=1 n=a4 v=0
233162 On ch=1 n=e5 v=0
233380 On ch=1 n=c7 v=65
233384 On ch=1 n=d#5 v=59
233392 On ch=1 n=g5 v=39
233392 On ch=1 n=g6 v=51
233410 On ch=1 n=c6 v=22
233590 Par ch=1 c=67 v=127
233716 On ch=1 n=c6 v=0
233756 On ch=1 n=g6 v=0
233772 On ch=1 n=d#5 v=0
233782 On ch=1 n=c7 v=0
233826 On ch=1 n=g5 v=0
234022 Par ch=1 c=64 v=63
234036 Par ch=1 c=64 v=127
234150 On ch=1 n=d7 v=76
234218 On ch=1 n=d7 v=0
234226 On ch=1 n=e7 v=60
234308 On ch=1 n=d7 v=55
234310 On ch=1 n=e7 v=0
234322 On ch=1 n=a5 v=51
234330 On ch=1 n=b4 v=30
234332 On ch=1 n=f6 v=60
234340 On ch=1 n=d5 v=54
234342 On ch=1 n=f5 v=51
234348 On ch=1 n=a6 v=71
234368 Par ch=1 c=64 v=63
234464 Par ch=1 c=64 v=127
234688 On ch=1 n=f5 v=0
234692 On ch=1 n=a5 v=0
234714 On ch=1 n=d5 v=0
234756 On ch=1 n=b4 v=0
234998 On ch=1 n=c7 v=76
235006 On ch=1 n=g4 v=45
235036 On ch=1 n=d7 v=0
235270 On ch=1 n=d7 v=86
235330 On ch=1 n=c7 v=0
235448 On ch=1 n=d7 v=0
235502 On ch=1 n=g4 v=0
235526 On ch=1 n=d7 v=94
235596 On ch=1 n=a6 v=0
235618 On ch=1 n=f6 v=0
235650 On ch=1 n=d7 v=0
236038 On ch=1 n=b4 v=36
236046 On ch=1 n=g5 v=36
236056 On ch=1 n=e5 v=47
236062 On ch=1 n=g6 v=71
236070 On ch=1 n=e6 v=68
236074 On ch=1 n=b5 v=41
236112 Par ch=1 c=64 v=63
236180 Par ch=1 c=64 v=127
236260 On ch=1 n=g5 v=0
236270 On ch=1 n=e5 v=0
236316 On ch=1 n=b4 v=0
236642 On ch=1 n=c4 v=68
236758 On ch=1 n=c4 v=0
236896 On ch=1 n=a6 v=81
236952 On ch=1 n=e6 v=0
236962 On ch=1 n=g6 v=0
237010 On ch=1 n=b5 v=0
237126 On ch=1 n=a6 v=0
237180 On ch=1 n=a3 v=38
237188 On ch=1 n=b6 v=72
237206 On ch=1 n=b5 v=36
237214 On ch=1 n=g6 v=57
237220 On ch=1 n=e6 v=65
237228 Par ch=1 c=64 v=63
237304 Par ch=1 c=64 v=127
237456 On ch=1 n=g6 v=0
237472 On ch=1 n=e6 v=0
237486 On ch=1 n=b6 v=0
237540 On ch=1 n=b5 v=0
237586 On ch=1 n=a3 v=0
237778 On ch=1 n=f#6 v=71
237782 On ch=1 n=a6 v=78
237788 On ch=1 n=d4 v=59
237806 Par ch=1 c=64 v=63
237808 On ch=1 n=b5 v=41
237816 On ch=1 n=d6 v=54
237842 Par ch=1 c=64 v=0
237858 Par ch=1 c=64 v=63
237902 Par ch=1 c=64 v=127
238036 On ch=1 n=d4 v=0
238068 On ch=1 n=b5 v=0
238076 On ch=1 n=d6 v=0
238094 On ch=1 n=f#6 v=0
238112 On ch=1 n=a6 v=0
238280 On ch=1 n=g6 v=68
238322 On ch=1 n=a6 v=79
238332 On ch=1 n=g6 v=0
238404 On ch=1 n=g6 v=70
238408 On ch=1 n=a6 v=0
238440 On ch=1 n=c6 v=68
238442 On ch=1 n=a5 v=55
238704 On ch=1 n=e6 v=75
238766 On ch=1 n=g6 v=0
239074 On ch=1 n=f#6 v=62
239088 On ch=1 n=d5 v=36
239178 On ch=1 n=a5 v=0
239260 On ch=1 n=d5 v=0
239360 On ch=1 n=e6 v=0
239378 On ch=1 n=c6 v=0
239400 On ch=1 n=f#6 v=0
239856 On ch=1 n=g6 v=50
239862 On ch=1 n=g3 v=43
239878 On ch=1 n=b5 v=47
239878 On ch=1 n=d6 v=50
239878 On ch=1 n=g5 v=21
240030 Par ch=1 c=64 v=63
240146 Par ch=1 c=64 v=127
240284 On ch=1 n=d4 v=47
240334 On ch=1 n=g3 v=0
240456 On ch=1 n=d4 v=0
240524 On ch=1 n=b4 v=52
240592 On ch=1 n=g6 v=0
240636 On ch=1 n=d6 v=0
240642 On ch=1 n=b5 v=0
240668 On ch=1 n=g5 v=0
240744 On ch=1 n=b4 v=0
240746 On ch=1 n=d4 v=73
240998 On ch=1 n=a5 v=83
241006 On ch=1 n=f#5 v=70
241008 On ch=1 n=d5 v=54
241014 On ch=1 n=d4 v=0
241176 On ch=1 n=f#5 v=0
241182 On ch=1 n=a5 v=0
241210 On ch=1 n=d5 v=0
241240 On ch=1 n=d4 v=79
241326 On ch=1 n=d4 v=0
241444 On ch=1 n=c6 v=79
241502 On ch=1 n=d6 v=73
241508 On ch=1 n=c6 v=0
241556 On ch=1 n=g3 v=59
241556 On ch=1 n=e5 v=65
241576 On ch=1 n=c6 v=92
241596 On ch=1 n=d6 v=0
241688 Par ch=1 c=64 v=63
241708 Par ch=1 c=64 v=0
241820 Par ch=1 c=64 v=63
241842 Par ch=1 c=64 v=127
241904 On ch=1 n=d4 v=63
241980 On ch=1 n=g3 v=0
242100 On ch=1 n=d4 v=0
242120 On ch=1 n=a4 v=75
242276 On ch=1 n=e5 v=0
242306 On ch=1 n=c6 v=0
242330 On ch=1 n=b5 v=96
242330 On ch=1 n=d4 v=78
242340 On ch=1 n=a4 v=0
242562 On ch=1 n=b5 v=0
242580 On ch=1 n=c5 v=71
242582 On ch=1 n=a5 v=89
242598 On ch=1 n=f#5 v=80
242624 Par ch=1 c=64 v=63
242690 On ch=1 n=d4 v=0
242704 Par ch=1 c=64 v=127
242834 On ch=1 n=d4 v=85
242862 On ch=1 n=c5 v=0
242896 On ch=1 n=f#5 v=0
242934 On ch=1 n=d4 v=0
243138 On ch=1 n=e6 v=83
243146 On ch=1 n=g5 v=65
243148 On ch=1 n=g3 v=47
243186 On ch=1 n=a5 v=0
243250 Par ch=1 c=64 v=63
243274 Par ch=1 c=64 v=0
243356 Par ch=1 c=64 v=63
243376 Par ch=1 c=64 v=127
243484 On ch=1 n=d4 v=63
243576 On ch=1 n=g3 v=0
243678 On ch=1 n=d4 v=0
243700 On ch=1 n=e6 v=0
243716 On ch=1 n=d6 v=82
243724 On ch=1 n=b4 v=53
243926 On ch=1 n=g5 v=0
243930 On ch=1 n=d4 v=83
243936 On ch=1 n=b4 v=0
243950 On ch=1 n=e6 v=88
243972 On ch=1 n=d6 v=0
244156 On ch=1 n=d4 v=0
244178 On ch=1 n=e6 v=0
244182 On ch=1 n=b5 v=93
244184 On ch=1 n=d5 v=76
244194 On ch=1 n=f#5 v=83
244270 On ch=1 n=f#5 v=0
244276 On ch=1 n=b5 v=0
244346 On ch=1 n=d5 v=0
244380 On ch=1 n=d4 v=84
244464 On ch=1 n=d4 v=0
244528 On ch=1 n=c#6 v=96
244596 On ch=1 n=d6 v=72
244600 On ch=1 n=c#6 v=0
244678 On ch=1 n=c#6 v=88
244682 On ch=1 n=e5 v=70
244688 On ch=1 n=g3 v=65
244706 On ch=1 n=d6 v=0
244760 Par ch=1 c=64 v=63
244776 Par ch=1 c=64 v=0
244872 Par ch=1 c=64 v=63
244894 Par ch=1 c=64 v=127
245000 On ch=1 n=d4 v=58
245090 On ch=1 n=g3 v=0
245202 On ch=1 n=d4 v=0
245218 On ch=1 n=a4 v=65
245382 On ch=1 n=e5 v=0
245388 On ch=1 n=c#6 v=0
245416 On ch=1 n=a4 v=0
245434 On ch=1 n=b5 v=81
245434 On ch=1 n=d4 v=66
245612 On ch=1 n=b5 v=0
245644 On ch=1 n=d4 v=0
245690 On ch=1 n=a5 v=77
245700 On ch=1 n=f#5 v=72
245710 On ch=1 n=c#5 v=67
245850 On ch=1 n=c#5 v=0
245898 On ch=1 n=a5 v=0
245908 On ch=1 n=d4 v=73
245918 On ch=1 n=f#5 v=0
245996 On ch=1 n=d4 v=0
246226 On ch=1 n=e6 v=74
246230 On ch=1 n=g3 v=47
246234 On ch=1 n=g5 v=52
246274 Par ch=1 c=64 v=63
246292 Par ch=1 c=64 v=0
246406 Par ch=1 c=64 v=63
246424 Par ch=1 c=64 v=127
246538 On ch=1 n=d6 v=79
246548 On ch=1 n=d4 v=58
246586 On ch=1 n=e6 v=0
246602 On ch=1 n=g3 v=0
246702 On ch=1 n=d4 v=0
246762 On ch=1 n=b4 v=70
246998 On ch=1 n=b4 v=0
247012 On ch=1 n=e6 v=70
247018 On ch=1 n=d6 v=0
247018 On ch=1 n=d4 v=46
247052 On ch=1 n=g5 v=0
247300 On ch=1 n=d4 v=0
247300 On ch=1 n=d5 v=51
247302 On ch=1 n=e6 v=0
247316 On ch=1 n=b5 v=64
247320 On ch=1 n=f#5 v=48
247334 Par ch=1 c=64 v=63
247374 Par ch=1 c=64 v=127
247568 On ch=1 n=d5 v=0
247576 On ch=1 n=b5 v=0
247598 On ch=1 n=d4 v=65
247632 On ch=1 n=f#5 v=0
247688 On ch=1 n=d4 v=0
247692 Par ch=1 c=67 v=0
247770 On ch=1 n=c#6 v=50
247884 On ch=1 n=c#6 v=0
247894 On ch=1 n=d6 v=55
247978 On ch=1 n=c#6 v=70
247980 On ch=1 n=f#3 v=63
248032 On ch=1 n=d6 v=0
248132 Par ch=1 c=64 v=63
248214 Par ch=1 c=64 v=127
248324 On ch=1 n=c#4 v=60
248448 On ch=1 n=f#3 v=0
248558 On ch=1 n=e5 v=81
248562 On ch=1 n=a4 v=57
248572 On ch=1 n=c#4 v=0
248804 On ch=1 n=c#4 v=84
248806 On ch=1 n=b5 v=94
248822 On ch=1 n=e5 v=0
248828 On ch=1 n=a4 v=0
248838 On ch=1 n=c#6 v=0
249032 On ch=1 n=b5 v=0
249036 On ch=1 n=c#4 v=0
249062 On ch=1 n=a5 v=93
249066 On ch=1 n=c#5 v=88
249078 On ch=1 n=f#5 v=81
249160 On ch=1 n=c#5 v=0
249160 On ch=1 n=a5 v=0
249170 On ch=1 n=f#5 v=0
249268 On ch=1 n=c#4 v=97
249352 On ch=1 n=c#4 v=0
249472 On ch=1 n=f#6 v=97
249540 On ch=1 n=g6 v=76
249546 On ch=1 n=f#6 v=0
249608 On ch=1 n=f#6 v=87
249616 On ch=1 n=e3 v=96
249640 On ch=1 n=g6 v=0
249640 Par ch=1 c=64 v=63
249660 Par ch=1 c=64 v=0
249698 On ch=1 n=g5 v=36
249724 Par ch=1 c=64 v=63
249756 Par ch=1 c=64 v=127
249912 On ch=1 n=b3 v=85
249966 On ch=1 n=e3 v=0
250032 On ch=1 n=g5 v=0
250086 On ch=1 n=b3 v=0
250150 On ch=1 n=a5 v=92
250156 On ch=1 n=g4 v=71
250368 On ch=1 n=f#6 v=0
250382 On ch=1 n=b3 v=86
250412 On ch=1 n=e6 v=109
250442 On ch=1 n=g4 v=0
250456 On ch=1 n=a5 v=0
250690 On ch=1 n=b5 v=104
250690 On ch=1 n=b4 v=79
250770 On ch=1 n=e6 v=0
250786 On ch=1 n=b3 v=0
250908 On ch=1 n=b5 v=0
251008 On ch=1 n=b4 v=0
251010 On ch=1 n=b3 v=103
251128 On ch=1 n=b3 v=0
251410 On ch=1 n=b6 v=102
251460 On ch=1 n=c7 v=100
251484 On ch=1 n=b6 v=0
251516 On ch=1 n=c7 v=0
251536 On ch=1 n=b6 v=97
251712 Par ch=1 c=64 v=63
251716 On ch=1 n=c3 v=107
251746 Par ch=1 c=64 v=0
251892 Par ch=1 c=64 v=63
251916 Par ch=1 c=64 v=127
252052 On ch=1 n=g3 v=80
252116 On ch=1 n=c3 v=0
252264 On ch=1 n=e4 v=90
252272 On ch=1 n=g3 v=0
252388 On ch=1 n=e4 v=0
252476 On ch=1 n=g4 v=94
252718 On ch=1 n=c5 v=109
253014 On ch=1 n=e5 v=107
253304 On ch=1 n=b6 v=0
253634 On ch=1 n=a6 v=97
254004 On ch=1 n=a6 v=0
254054 On ch=1 n=e5 v=0
254090 On ch=1 n=c5 v=0
254220 On ch=1 n=g4 v=0
254252 On ch=1 n=b6 v=88
254954 On ch=1 n=a2 v=68
255072 Par ch=1 c=64 v=63
255092 Par ch=1 c=64 v=0
255166 Par ch=1 c=64 v=63
255194 Par ch=1 c=64 v=127
255370 On ch=1 n=e3 v=46
255498 On ch=1 n=a2 v=0
255634 On ch=1 n=g3 v=53
255828 On ch=1 n=e3 v=0
255888 On ch=1 n=c4 v=52
255898 On ch=1 n=g3 v=0
256024 On ch=1 n=c4 v=0
256136 On ch=1 n=e4 v=68
256364 On ch=1 n=g4 v=63
256678 On ch=1 n=e5 v=55
256868 On ch=1 n=b6 v=0
257234 On ch=1 n=a6 v=73
257520 On ch=1 n=e5 v=0
257628 On ch=1 n=g4 v=0
257686 On ch=1 n=e4 v=0
257820 On ch=1 n=b6 v=61
257920 On ch=1 n=a6 v=0
258362 On ch=1 n=a3 v=52
258484 Par ch=1 c=64 v=63
258590 Par ch=1 c=64 v=127
258652 On ch=1 n=e4 v=51
258772 On ch=1 n=a3 v=0
258886 On ch=1 n=g4 v=38
259026 On ch=1 n=e4 v=0
259128 On ch=1 n=g4 v=0
259144 On ch=1 n=c5 v=47
259332 On ch=1 n=c5 v=0
259382 On ch=1 n=e5 v=55
259612 On ch=1 n=g5 v=43
259938 On ch=1 n=c6 v=61
260026 On ch=1 n=b6 v=0
260518 On ch=1 n=a6 v=56
260680 On ch=1 n=a6 v=0
261050 On ch=1 n=b6 v=37
261108 On ch=1 n=c6 v=0
261112 On ch=1 n=g5 v=0
261434 On ch=1 n=e5 v=0
261598 On ch=1 n=e6 v=48
262098 On ch=1 n=b6 v=0
262182 On ch=1 n=a6 v=31
262770 On ch=1 n=b6 v=44
262918 On ch=1 n=a6 v=0
262954 On ch=1 n=e6 v=0
263116 On ch=1 n=b6 v=0
263444 On ch=1 n=c7 v=38
263456 On ch=1 n=e6 v=14
263464 On ch=1 n=g6 v=14
263472 On ch=1 n=a5 v=22
263472 On ch=1 n=c6 v=26
264722 On ch=1 n=c6 v=0
264730 On ch=1 n=a5 v=0
264744 On ch=1 n=e6 v=0
264786 On ch=1 n=c7 v=0
264964 On ch=1 n=g6 v=0
265304 On ch=1 n=g6 v=12
265310 On ch=1 n=b6 v=25
265318 On ch=1 n=e7 v=42
265318 On ch=1 n=e6 v=21
265332 On ch=1 n=c6 v=21
266686 On ch=1 n=b6 v=0
266712 On ch=1 n=e7 v=0
266820 On ch=1 n=e6 v=0
266838 On ch=1 n=g6 v=0
266956 On ch=1 n=c6 v=0
267460 On ch=1 n=e6 v=34
267464 On ch=1 n=g6 v=19
267474 On ch=1 n=g7 v=43
267488 On ch=1 n=c7 v=36
267494 On ch=1 n=a6 v=15
268676 On ch=1 n=e6 v=0
268720 On ch=1 n=a6 v=0
268906 On ch=1 n=c7 v=0
268906 On ch=1 n=g7 v=0
268938 On ch=1 n=g6 v=0
269510 On ch=1 n=d6 v=37
269676 On ch=1 n=g6 v=48
269754 On ch=1 n=d6 v=0
269754 On ch=1 n=b6 v=54
269840 On ch=1 n=e7 v=74
269868 On ch=1 n=g7 v=60
269924 On ch=1 n=b7 v=71
269960 On ch=1 n=d8 v=81
270008 On ch=1 n=b7 v=0
270026 On ch=1 n=g7 v=0
270042 On ch=1 n=g6 v=0
270052 On ch=1 n=e8 v=69
270054 On ch=1 n=d8 v=0
270106 On ch=1 n=e7 v=0
270112 On ch=1 n=b6 v=0
270118 On ch=1 n=d8 v=73
270152 On ch=1 n=e8 v=0
270288 On ch=1 n=d8 v=0
270688 On ch=1 n=c8 v=53
270694 On ch=1 n=g7 v=38
270710 On ch=1 n=e7 v=43
270718 On ch=1 n=b7 v=39
270870 On ch=1 n=e7 v=0
270876 On ch=1 n=c8 v=0
270936 On ch=1 n=b7 v=0
270936 On ch=1 n=d8 v=63
270982 On ch=1 n=g7 v=0
271048 On ch=1 n=d8 v=0
271204 On ch=1 n=d7 v=63
271208 On ch=1 n=d8 v=74
271218 On ch=1 n=b7 v=61
271220 On ch=1 n=g7 v=52
271254 On ch=1 n=d8 v=0
271258 On ch=1 n=b7 v=0
271268 On ch=1 n=d7 v=0
271278 On ch=1 n=g7 v=0
271544 On ch=1 n=g7 v=74
271616 On ch=1 n=e7 v=79
271680 On ch=1 n=g6 v=46
271730 On ch=1 n=d7 v=75
271736 On ch=1 n=b6 v=36
271948 On ch=1 n=g7 v=0
271954 On ch=1 n=g6 v=0
271970 On ch=1 n=e7 v=0
271974 On ch=1 n=d7 v=0
271986 On ch=1 n=b6 v=0
272224 On ch=1 n=e6 v=53
272234 On ch=1 n=c7 v=71
272250 On ch=1 n=b6 v=36
272334 On ch=1 n=e6 v=0
272454 On ch=1 n=c7 v=0
272470 On ch=1 n=d7 v=54
272478 On ch=1 n=b6 v=0
272616 On ch=1 n=d7 v=0
272740 On ch=1 n=d7 v=64
272754 On ch=1 n=d6 v=55
272756 On ch=1 n=g6 v=47
272764 On ch=1 n=b6 v=46
272798 On ch=1 n=d7 v=0
272814 On ch=1 n=b6 v=0
272820 On ch=1 n=g6 v=0
272820 On ch=1 n=d6 v=0
273106 On ch=1 n=g6 v=79
273176 On ch=1 n=e6 v=68
273246 On ch=1 n=g5 v=48
273272 On ch=1 n=b5 v=19
273280 On ch=1 n=d6 v=50
273546 On ch=1 n=g6 v=0
273572 On ch=1 n=e6 v=0
273576 On ch=1 n=d6 v=0
273584 On ch=1 n=b5 v=0
273590 On ch=1 n=g5 v=0
273826 On ch=1 n=g5 v=43
273840 On ch=1 n=c6 v=62
273846 On ch=1 n=e5 v=33
273852 On ch=1 n=b5 v=45
274052 On ch=1 n=e5 v=0
274086 On ch=1 n=d6 v=69
274166 On ch=1 n=c6 v=0
274224 On ch=1 n=b5 v=0
274238 On ch=1 n=g5 v=0
274250 On ch=1 n=d6 v=0
274414 On ch=1 n=d5 v=31
274414 On ch=1 n=d6 v=28
274418 On ch=1 n=g5 v=15
274426 On ch=1 n=b5 v=36
274600 On ch=1 n=d5 v=0
274798 On ch=1 n=g5 v=0
274856 On ch=1 n=d6 v=0
274916 On ch=1 n=b5 v=0
274942 On ch=1 n=g5 v=58
275068 On ch=1 n=g5 v=0
275498 On ch=1 n=e5 v=43
275606 On ch=1 n=e5 v=0
276078 On ch=1 n=d5 v=51
276186 On ch=1 n=d5 v=0
276682 On ch=1 n=g4 v=48
276746 Par ch=1 c=67 v=127
276760 Par ch=1 c=64 v=63
276866 On ch=1 n=g4 v=0
277008 Par ch=1 c=64 v=127
277322 On ch=1 n=e4 v=46
277462 On ch=1 n=e4 v=0
277970 Par ch=1 c=64 v=63
278106 On ch=1 n=d4 v=51
278114 On ch=1 n=g5 v=53
278128 On ch=1 n=c5 v=41
278150 On ch=1 n=e5 v=44
278158 Par ch=1 c=64 v=127
278236 On ch=1 n=c5 v=0
278258 On ch=1 n=d4 v=0
278266 On ch=1 n=e5 v=0
278288 On ch=1 n=g5 v=0
278356 On ch=1 n=e5 v=52
278358 On ch=1 n=c5 v=40
278388 On ch=1 n=a4 v=17
278490 Par ch=1 c=64 v=63
278638 Par ch=1 c=64 v=127
278796 On ch=1 n=c5 v=0
278832 On ch=1 n=e5 v=0
278922 On ch=1 n=a4 v=0
279312 On ch=1 n=g3 v=60
279348 On ch=1 n=d4 v=60
279468 On ch=1 n=f#5 v=70
279470 On ch=1 n=b4 v=58
279488 On ch=1 n=a5 v=61
279496 On ch=1 n=d5 v=58
279506 Par ch=1 c=64 v=63
279508 Par ch=1 c=64 v=127
279640 On ch=1 n=g3 v=0
279686 On ch=1 n=b4 v=0
279688 On ch=1 n=d4 v=0
279800 On ch=1 n=d5 v=0
279892 On ch=1 n=c5 v=47
279914 On ch=1 n=e5 v=50
280050 On ch=1 n=c5 v=0
280068 On ch=1 n=b4 v=41
280088 On ch=1 n=e5 v=0
280098 On ch=1 n=d5 v=52
280208 On ch=1 n=d5 v=0
280214 On ch=1 n=b4 v=0
280224 On ch=1 n=c5 v=44
280252 On ch=1 n=e5 v=58
280352 On ch=1 n=e5 v=0
280362 On ch=1 n=d5 v=54
280366 On ch=1 n=c5 v=0
280378 On ch=1 n=b4 v=38
280430 On ch=1 n=d5 v=0
280456 On ch=1 n=e5 v=46
280490 On ch=1 n=b4 v=0
280492 On ch=1 n=c5 v=55
280530 On ch=1 n=e5 v=0
280554 On ch=1 n=d5 v=52
280590 On ch=1 n=b4 v=48
280592 On ch=1 n=c5 v=0
280602 On ch=1 n=d5 v=0
280618 On ch=1 n=e5 v=56
280676 On ch=1 n=b4 v=0
280676 On ch=1 n=c5 v=61
280682 On ch=1 n=e5 v=0
280696 On ch=1 n=d5 v=60
280752 On ch=1 n=d5 v=0
280756 On ch=1 n=b4 v=64
280760 On ch=1 n=c5 v=0
280762 On ch=1 n=e5 v=66
280838 On ch=1 n=e5 v=0
280838 On ch=1 n=b4 v=0
280840 On ch=1 n=c5 v=60
280840 On ch=1 n=d5 v=69
280892 On ch=1 n=d5 v=0
280910 On ch=1 n=e5 v=73
280916 On ch=1 n=b4 v=62
280920 On ch=1 n=c5 v=0
280968 On ch=1 n=d5 v=68
280980 On ch=1 n=e5 v=0
280998 On ch=1 n=b4 v=0
281000 On ch=1 n=c5 v=58
281044 On ch=1 n=d5 v=0
281050 On ch=1 n=e5 v=76
281058 On ch=1 n=c5 v=0
281080 On ch=1 n=b4 v=58
281126 On ch=1 n=d5 v=72
281142 On ch=1 n=e5 v=0
281154 On ch=1 n=c5 v=47
281172 On ch=1 n=b4 v=0
281210 On ch=1 n=d5 v=0
281212 On ch=1 n=e5 v=67
281288 On ch=1 n=b4 v=41
281290 On ch=1 n=d5 v=69
281312 On ch=1 n=c5 v=0
281346 On ch=1 n=e5 v=0
281566 Par ch=1 c=64 v=63
285330 Par ch=1 c=64 v=0
285934 On ch=1 n=d5 v=0
285944 On ch=1 n=a5 v=0
285994 On ch=1 n=f#5 v=0
286072 On ch=1 n=b4 v=0
286318 Par ch=1 c=67 v=0
286318 Meta TrkEnd
TrkEnd
