MFile 1 2 480
MTrk
0 Tempo 500000
0 TimeSig 2/4 24 8
0 KeySig 1 major
0 Meta TrkEnd
TrkEnd
MTrk
0 SeqSpec 43 00 01 00
0 Meta TrkName "<Master Volume>"
0 Meta 0x21 00
0 SysEx f0 41 10 42 12 40 00 7f 00 41 f7
0 SysEx f0 41 10 42 12 40 00 04 64 58 f7
192 Meta Text "<Master Reverve>"
192 SysEx f0 41 10 42 12 40 01 30 03 0c f7
192 SysEx f0 41 10 42 12 40 01 33 3c 50 f7
192 SysEx f0 41 10 42 12 40 01 34 3c 4f f7
576 Par ch=1 c=0 v=0
580 Par ch=1 c=32 v=1
584 PrCh ch=1 p=0
642 Par ch=1 c=67 v=127
780 Par ch=1 c=7 v=100
972 Par ch=1 c=11 v=80
1164 Par ch=1 c=10 v=64
1356 Par ch=1 c=1 v=0
1356 Meta Text "<part reverve>"
1356 Par ch=1 c=91 v=80
1374 Par ch=1 c=67 v=0
1452 Par ch=1 c=99 v=1
1456 Par ch=1 c=98 v=32
1460 Par ch=1 c=6 v=62
1464 Par ch=1 c=99 v=1
1468 Par ch=1 c=98 v=33
1472 Par ch=1 c=6 v=54
1476 Par ch=1 c=99 v=1
1480 Par ch=1 c=98 v=99
1484 Par ch=1 c=6 v=62
1488 Par ch=1 c=99 v=1
1492 Par ch=1 c=98 v=100
1496 Par ch=1 c=6 v=60
1500 Par ch=1 c=99 v=1
1504 Par ch=1 c=98 v=102
1508 Par ch=1 c=6 v=70
2334 Par ch=1 c=67 v=127
3122 Par ch=1 c=64 v=63
3154 Par ch=1 c=64 v=127
3182 On ch=1 n=a5 v=59
3196 On ch=1 n=e5 v=48
3302 On ch=1 n=e5 v=0
3308 On ch=1 n=g5 v=68
3312 On ch=1 n=a5 v=0
3404 On ch=1 n=g5 v=0
3408 On ch=1 n=d5 v=60
3518 On ch=1 n=d5 v=0
3532 On ch=1 n=e5 v=57
3614 On ch=1 n=e5 v=0
3624 On ch=1 n=g5 v=59
3722 On ch=1 n=g5 v=0
3730 On ch=1 n=b5 v=68
3828 Par ch=1 c=64 v=63
3834 On ch=1 n=e5 v=59
3856 On ch=1 n=a5 v=66
3860 On ch=1 n=b5 v=0
3886 Par ch=1 c=64 v=127
3934 On ch=1 n=g5 v=59
3964 On ch=1 n=e5 v=0
3966 On ch=1 n=a5 v=0
4030 On ch=1 n=g5 v=0
4032 On ch=1 n=d5 v=77
4154 On ch=1 n=e5 v=76
4156 On ch=1 n=d5 v=0
4232 On ch=1 n=g5 v=68
4254 On ch=1 n=e5 v=0
4342 On ch=1 n=b5 v=63
4360 On ch=1 n=g5 v=0
4428 On ch=1 n=b5 v=0
4476 On ch=1 n=d5 v=70
4490 On ch=1 n=a5 v=79
4508 Par ch=1 c=64 v=63
4536 On ch=1 n=b5 v=80
4554 On ch=1 n=a5 v=0
4558 Par ch=1 c=64 v=0
4572 Par ch=1 c=64 v=63
4582 On ch=1 n=b5 v=0
4598 On ch=1 n=a5 v=62
4600 On ch=1 n=c5 v=74
4610 On ch=1 n=d5 v=0
4614 Par ch=1 c=64 v=127
4692 On ch=1 n=g5 v=65
4694 On ch=1 n=a5 v=0
4714 On ch=1 n=c5 v=0
4716 On ch=1 n=g4 v=52
4782 On ch=1 n=a5 v=74
4804 On ch=1 n=g5 v=0
4824 On ch=1 n=a4 v=67
4828 On ch=1 n=g4 v=0
4934 On ch=1 n=a5 v=0
4944 On ch=1 n=a4 v=0
4958 On ch=1 n=c5 v=54
5012 On ch=1 n=c5 v=0
5050 On ch=1 n=e5 v=69
5136 On ch=1 n=e5 v=0
5152 Par ch=1 c=64 v=63
5154 On ch=1 n=a5 v=74
5162 On ch=1 n=d5 v=66
5178 Par ch=1 c=64 v=0
5216 On ch=1 n=b5 v=80
5220 On ch=1 n=a5 v=0
5222 Par ch=1 c=64 v=63
5242 On ch=1 n=c5 v=76
5250 On ch=1 n=b5 v=0
5250 On ch=1 n=d5 v=0
5256 Par ch=1 c=64 v=127
5272 On ch=1 n=a5 v=68
5344 On ch=1 n=g5 v=62
5346 On ch=1 n=c5 v=0
5350 On ch=1 n=a5 v=0
5364 On ch=1 n=g4 v=55
5436 On ch=1 n=a5 v=75
5454 On ch=1 n=g5 v=0
5494 On ch=1 n=g4 v=0
5510 On ch=1 n=a4 v=62
5620 On ch=1 n=a4 v=0
5622 On ch=1 n=c5 v=60
5626 On ch=1 n=a5 v=0
5696 On ch=1 n=c5 v=0
5718 On ch=1 n=e5 v=70
5772 Par ch=1 c=64 v=63
5788 Par ch=1 c=64 v=0
5790 On ch=1 n=e5 v=0
5842 On ch=1 n=e5 v=68
5846 On ch=1 n=a5 v=64
5884 Par ch=1 c=64 v=63
5898 Par ch=1 c=64 v=127
5950 On ch=1 n=g5 v=65
5952 On ch=1 n=a5 v=0
6018 On ch=1 n=e5 v=0
6060 On ch=1 n=g5 v=0
6060 On ch=1 n=d5 v=71
6182 On ch=1 n=d5 v=0
6182 On ch=1 n=e5 v=70
6280 On ch=1 n=g5 v=60
6282 On ch=1 n=e5 v=0
6382 On ch=1 n=b5 v=71
6386 On ch=1 n=g5 v=0
6492 Par ch=1 c=64 v=63
6496 On ch=1 n=b5 v=0
6502 On ch=1 n=e5 v=71
6504 On ch=1 n=a5 v=76
6592 Par ch=1 c=64 v=127
6620 On ch=1 n=e5 v=0
6620 On ch=1 n=g5 v=56
6630 On ch=1 n=a5 v=0
6704 On ch=1 n=g5 v=0
6712 On ch=1 n=d5 v=82
6814 On ch=1 n=d5 v=0
6832 On ch=1 n=e5 v=76
6916 On ch=1 n=g5 v=76
6928 On ch=1 n=e5 v=0
7028 On ch=1 n=g5 v=0
7032 On ch=1 n=b5 v=71
7106 On ch=1 n=b5 v=0
7146 On ch=1 n=d5 v=72
7148 Par ch=1 c=64 v=63
7168 On ch=1 n=a5 v=82
7170 Par ch=1 c=64 v=0
7218 On ch=1 n=b5 v=86
7228 Par ch=1 c=64 v=63
7232 On ch=1 n=a5 v=0
7258 Par ch=1 c=64 v=127
7268 On ch=1 n=b5 v=0
7276 On ch=1 n=c5 v=70
7278 On ch=1 n=d5 v=0
7282 On ch=1 n=a5 v=68
7366 On ch=1 n=g5 v=71
7368 On ch=1 n=a5 v=0
7370 On ch=1 n=c5 v=0
7380 On ch=1 n=g4 v=44
7458 On ch=1 n=a5 v=72
7472 On ch=1 n=g5 v=0
7494 On ch=1 n=g4 v=0
7494 On ch=1 n=a4 v=65
7612 On ch=1 n=c5 v=59
7614 On ch=1 n=a4 v=0
7614 On ch=1 n=a5 v=0
7674 On ch=1 n=c5 v=0
7720 On ch=1 n=e5 v=59
7794 On ch=1 n=e5 v=0
7806 Par ch=1 c=64 v=63
7820 On ch=1 n=d5 v=68
7828 Par ch=1 c=64 v=0
7830 On ch=1 n=a5 v=76
7884 On ch=1 n=b5 v=81
7894 On ch=1 n=a5 v=0
7896 On ch=1 n=c5 v=76
7900 Par ch=1 c=64 v=63
7904 On ch=1 n=d5 v=0
7916 On ch=1 n=b5 v=0
7924 Par ch=1 c=64 v=127
7940 On ch=1 n=a5 v=58
7994 On ch=1 n=c5 v=0
8022 On ch=1 n=g5 v=51
8024 On ch=1 n=a5 v=0
8038 On ch=1 n=g4 v=46
8116 On ch=1 n=a5 v=71
8132 On ch=1 n=g5 v=0
8156 On ch=1 n=g4 v=0
8178 On ch=1 n=a4 v=59
8292 On ch=1 n=a4 v=0
8296 On ch=1 n=c5 v=51
8318 On ch=1 n=a5 v=0
8356 On ch=1 n=c5 v=0
8376 On ch=1 n=e5 v=65
8470 On ch=1 n=e5 v=0
8510 Par ch=1 c=64 v=63
8532 Par ch=1 c=64 v=0
8534 On ch=1 n=g5 v=59
8538 On ch=1 n=a5 v=59
8548 On ch=1 n=c6 v=78
8614 Par ch=1 c=64 v=63
8636 Par ch=1 c=64 v=127
8660 On ch=1 n=b5 v=77
8670 On ch=1 n=c6 v=0
8754 On ch=1 n=b5 v=0
8774 On ch=1 n=c6 v=78
8800 On ch=1 n=a5 v=0
8828 On ch=1 n=g5 v=0
8870 On ch=1 n=c6 v=0
8878 On ch=1 n=a5 v=82
8988 On ch=1 n=b5 v=89
8998 On ch=1 n=a5 v=0
9090 On ch=1 n=c6 v=89
9122 On ch=1 n=b5 v=0
9204 On ch=1 n=b5 v=87
9210 On ch=1 n=f#5 v=83
9214 On ch=1 n=d6 v=94
9236 On ch=1 n=c6 v=0
9244 Par ch=1 c=64 v=63
9326 Par ch=1 c=64 v=127
9328 On ch=1 n=c6 v=99
9352 On ch=1 n=b5 v=0
9354 On ch=1 n=d6 v=0
9426 On ch=1 n=d6 v=86
9464 On ch=1 n=c6 v=0
9542 On ch=1 n=d6 v=0
9542 On ch=1 n=b5 v=77
9656 On ch=1 n=d6 v=92
9672 On ch=1 n=b5 v=0
9676 On ch=1 n=f#5 v=0
9748 On ch=1 n=f#6 v=84
9760 On ch=1 n=d6 v=0
9840 Par ch=1 c=64 v=63
9860 Par ch=1 c=64 v=0
9882 On ch=1 n=a5 v=74
9892 On ch=1 n=e6 v=80
9894 On ch=1 n=f#6 v=0
9894 On ch=1 n=g5 v=71
9958 Par ch=1 c=64 v=63
9972 Par ch=1 c=64 v=127
9984 On ch=1 n=d6 v=89
10012 On ch=1 n=e6 v=0
10086 On ch=1 n=e6 v=104
10120 On ch=1 n=d6 v=0
10194 On ch=1 n=c6 v=92
10214 On ch=1 n=e6 v=0
10304 On ch=1 n=g5 v=0
10310 On ch=1 n=d6 v=106
10346 On ch=1 n=a5 v=0
10352 On ch=1 n=c6 v=0
10402 On ch=1 n=e6 v=103
10450 On ch=1 n=d6 v=0
10504 On ch=1 n=b5 v=101
10520 On ch=1 n=d5 v=89
10524 On ch=1 n=f#6 v=104
10546 On ch=1 n=e6 v=0
10614 Par ch=1 c=64 v=63
10644 On ch=1 n=e6 v=101
10658 On ch=1 n=f#6 v=0
10700 Par ch=1 c=64 v=127
10738 On ch=1 n=f#6 v=98
10776 On ch=1 n=e6 v=0
10854 On ch=1 n=d6 v=90
10858 On ch=1 n=f#6 v=0
10898 On ch=1 n=d5 v=0
10966 On ch=1 n=f#6 v=112
10976 On ch=1 n=b5 v=0
10986 On ch=1 n=d6 v=0
11066 On ch=1 n=a6 v=92
11094 On ch=1 n=f#6 v=0
11178 On ch=1 n=f#6 v=105
11182 On ch=1 n=d6 v=93
11204 On ch=1 n=e5 v=73
11212 On ch=1 n=a6 v=0
11218 Par ch=1 c=64 v=63
11284 Par ch=1 c=64 v=127
11286 On ch=1 n=g6 v=96
11302 On ch=1 n=f#6 v=0
11408 On ch=1 n=e6 v=94
11428 On ch=1 n=d6 v=0
11450 On ch=1 n=g6 v=0
11512 On ch=1 n=e6 v=0
11514 On ch=1 n=d6 v=87
11522 On ch=1 n=g5 v=83
11580 On ch=1 n=e5 v=0
11592 On ch=1 n=g5 v=0
11598 On ch=1 n=d6 v=0
11616 On ch=1 n=e6 v=83
11704 On ch=1 n=e6 v=0
11728 On ch=1 n=b5 v=91
11804 On ch=1 n=b5 v=0
11852 On ch=1 n=a5 v=78
11852 On ch=1 n=b4 v=76
11852 On ch=1 n=f#5 v=80
11918 Par ch=1 c=64 v=63
11932 Par ch=1 c=64 v=0
11974 On ch=1 n=c#5 v=84
11976 Par ch=1 c=64 v=63
11980 On ch=1 n=f#5 v=0
12010 On ch=1 n=b4 v=0
12010 Par ch=1 c=64 v=127
12054 On ch=1 n=b5 v=81
12058 On ch=1 n=a5 v=0
12066 On ch=1 n=e5 v=75
12070 On ch=1 n=c#5 v=0
12164 On ch=1 n=f#5 v=92
12172 On ch=1 n=e5 v=0
12224 On ch=1 n=b5 v=0
12286 On ch=1 n=a5 v=60
12298 On ch=1 n=c#6 v=84
12306 On ch=1 n=f#5 v=0
12368 On ch=1 n=c#6 v=0
12386 On ch=1 n=b5 v=80
12456 On ch=1 n=a5 v=0
12494 On ch=1 n=b5 v=0
12572 On ch=1 n=e5 v=48
12576 On ch=1 n=f#6 v=77
12590 On ch=1 n=d6 v=76
12658 Par ch=1 c=64 v=63
12686 On ch=1 n=g6 v=62
12690 On ch=1 n=f#6 v=0
12700 Par ch=1 c=64 v=127
12812 On ch=1 n=e6 v=68
12830 On ch=1 n=g6 v=0
12866 On ch=1 n=d6 v=0
12912 On ch=1 n=e6 v=0
12916 On ch=1 n=g5 v=76
12924 On ch=1 n=d6 v=79
12978 On ch=1 n=e5 v=0
12984 On ch=1 n=g5 v=0
13000 On ch=1 n=d6 v=0
13022 On ch=1 n=e6 v=70
13112 On ch=1 n=e6 v=0
13126 On ch=1 n=b5 v=79
13230 On ch=1 n=b5 v=0
13238 On ch=1 n=f#5 v=70
13240 On ch=1 n=a5 v=69
13242 On ch=1 n=b4 v=52
13318 Par ch=1 c=64 v=63
13334 On ch=1 n=f#5 v=0
13364 Par ch=1 c=64 v=127
13368 On ch=1 n=c#5 v=75
13402 On ch=1 n=b4 v=0
13454 On ch=1 n=e5 v=68
13456 On ch=1 n=a5 v=0
13458 On ch=1 n=c#5 v=0
13484 On ch=1 n=b5 v=61
13550 On ch=1 n=e5 v=0
13564 On ch=1 n=f#5 v=77
13686 On ch=1 n=a5 v=59
13688 On ch=1 n=c#6 v=80
13690 On ch=1 n=b5 v=0
13718 On ch=1 n=f#5 v=0
13802 On ch=1 n=b5 v=76
13822 On ch=1 n=a5 v=0
13832 On ch=1 n=c#6 v=0
13898 On ch=1 n=b5 v=0
13978 On ch=1 n=f#6 v=93
13980 On ch=1 n=d6 v=86
13982 On ch=1 n=e5 v=22
14070 Par ch=1 c=64 v=63
14094 Par ch=1 c=64 v=127
14098 On ch=1 n=g6 v=85
14120 On ch=1 n=f#6 v=0
14210 On ch=1 n=e6 v=91
14268 On ch=1 n=g6 v=0
14288 On ch=1 n=d6 v=0
14320 On ch=1 n=d6 v=71
14336 On ch=1 n=e6 v=0
14340 On ch=1 n=g5 v=79
14402 On ch=1 n=d6 v=0
14432 On ch=1 n=e6 v=96
14440 On ch=1 n=g5 v=0
14468 On ch=1 n=e5 v=0
14528 On ch=1 n=e6 v=0
14550 On ch=1 n=b5 v=96
14608 On ch=1 n=b5 v=0
14672 On ch=1 n=b5 v=89
14678 On ch=1 n=d5 v=73
14776 On ch=1 n=b5 v=0
14784 On ch=1 n=d6 v=89
14884 On ch=1 n=d6 v=0
14886 On ch=1 n=a5 v=92
14944 On ch=1 n=d5 v=0
14948 On ch=1 n=a5 v=0
14998 On ch=1 n=f#5 v=73
15000 On ch=1 n=c#5 v=80
15010 On ch=1 n=a5 v=65
15062 On ch=1 n=c#5 v=0
15088 On ch=1 n=a5 v=0
15108 On ch=1 n=b5 v=82
15184 On ch=1 n=b5 v=0
15210 On ch=1 n=e5 v=83
15270 On ch=1 n=f#5 v=0
15280 On ch=1 n=e5 v=0
15346 On ch=1 n=b4 v=63
15346 On ch=1 n=f#5 v=85
15360 On ch=1 n=d#5 v=76
15382 Par ch=1 c=64 v=63
15396 Par ch=1 c=64 v=127
15416 On ch=1 n=g5 v=76
15426 On ch=1 n=d#5 v=0
15446 On ch=1 n=b4 v=0
15460 On ch=1 n=a4 v=50
15492 On ch=1 n=g5 v=0
15494 On ch=1 n=d#5 v=55
15562 On ch=1 n=f#5 v=0
15570 On ch=1 n=c#5 v=81
15572 On ch=1 n=d#5 v=0
15584 On ch=1 n=a4 v=0
15584 On ch=1 n=e4 v=49
15638 On ch=1 n=c#5 v=0
15642 On ch=1 n=f#5 v=54
15652 On ch=1 n=d#5 v=49
15682 On ch=1 n=f#4 v=72
15684 On ch=1 n=e4 v=0
15760 On ch=1 n=a4 v=55
15800 On ch=1 n=f#4 v=0
15810 On ch=1 n=d#5 v=0
15828 On ch=1 n=f#5 v=0
15872 On ch=1 n=c#5 v=78
15876 On ch=1 n=a4 v=0
15944 On ch=1 n=c#5 v=0
16012 On ch=1 n=b4 v=73
16018 Par ch=1 c=64 v=63
16024 On ch=1 n=f#5 v=85
16030 On ch=1 n=d#5 v=87
16034 Par ch=1 c=64 v=0
16106 On ch=1 n=f#5 v=0
16110 On ch=1 n=d#5 v=0
16110 On ch=1 n=a4 v=60
16114 On ch=1 n=g5 v=64
16118 On ch=1 n=b4 v=0
16132 Par ch=1 c=64 v=63
16148 Par ch=1 c=64 v=127
16156 On ch=1 n=f#5 v=84
16182 On ch=1 n=g5 v=0
16206 On ch=1 n=d#5 v=60
16236 On ch=1 n=a4 v=0
16240 On ch=1 n=e4 v=48
16260 On ch=1 n=f#5 v=0
16276 On ch=1 n=d#5 v=0
16280 On ch=1 n=c#5 v=82
16316 On ch=1 n=f#4 v=67
16338 On ch=1 n=c#5 v=0
16340 On ch=1 n=e4 v=0
16350 On ch=1 n=f#5 v=83
16356 On ch=1 n=d#5 v=53
16426 On ch=1 n=a4 v=42
16454 On ch=1 n=f#4 v=0
16488 On ch=1 n=d#5 v=0
16496 On ch=1 n=f#5 v=0
16546 On ch=1 n=c#5 v=70
16550 On ch=1 n=a4 v=0
16612 On ch=1 n=c#5 v=0
16648 Par ch=1 c=64 v=63
16664 On ch=1 n=f#5 v=89
16666 Par ch=1 c=64 v=0
16668 On ch=1 n=b4 v=75
16678 On ch=1 n=d#5 v=87
16734 Par ch=1 c=64 v=63
16752 Par ch=1 c=64 v=127
16780 On ch=1 n=f#5 v=0
16782 On ch=1 n=e5 v=82
16808 On ch=1 n=b4 v=0
16812 On ch=1 n=d#5 v=0
16874 On ch=1 n=e5 v=0
16878 On ch=1 n=b4 v=70
16984 On ch=1 n=b4 v=0
16992 On ch=1 n=c#5 v=89
17086 On ch=1 n=e5 v=78
17090 On ch=1 n=c#5 v=0
17194 On ch=1 n=e5 v=0
17206 On ch=1 n=a5 v=78
17260 Par ch=1 c=64 v=63
17276 On ch=1 n=b4 v=73
17280 Par ch=1 c=64 v=0
17310 On ch=1 n=a5 v=0
17322 On ch=1 n=d#5 v=88
17330 On ch=1 n=f#5 v=86
17356 Par ch=1 c=64 v=63
17374 Par ch=1 c=64 v=127
17396 On ch=1 n=b4 v=0
17420 On ch=1 n=d#5 v=0
17426 On ch=1 n=e5 v=84
17444 On ch=1 n=f#5 v=0
17518 On ch=1 n=b4 v=84
17520 On ch=1 n=e5 v=0
17626 On ch=1 n=c#5 v=103
17638 On ch=1 n=b4 v=0
17718 On ch=1 n=c#5 v=0
17732 On ch=1 n=e5 v=76
17832 On ch=1 n=e5 v=0
17832 On ch=1 n=a5 v=65
17894 On ch=1 n=a5 v=0
17922 Par ch=1 c=64 v=63
17940 Par ch=1 c=64 v=0
17966 On ch=1 n=b4 v=54
17970 On ch=1 n=f#5 v=94
17994 On ch=1 n=d#5 v=92
18026 Par ch=1 c=64 v=63
18042 On ch=1 n=f#5 v=0
18044 Par ch=1 c=64 v=127
18068 On ch=1 n=g5 v=65
18078 On ch=1 n=a4 v=71
18082 On ch=1 n=d#5 v=0
18086 On ch=1 n=b4 v=0
18098 On ch=1 n=f#5 v=72
18144 On ch=1 n=g5 v=0
18158 On ch=1 n=d#5 v=58
18208 On ch=1 n=f#5 v=0
18216 On ch=1 n=a4 v=0
18220 On ch=1 n=c#5 v=90
18224 On ch=1 n=e4 v=49
18234 On ch=1 n=d#5 v=0
18294 On ch=1 n=c#5 v=0
18294 On ch=1 n=f#5 v=87
18302 On ch=1 n=d#5 v=63
18306 On ch=1 n=f#4 v=61
18328 On ch=1 n=e4 v=0
18394 On ch=1 n=a4 v=54
18432 On ch=1 n=f#4 v=0
18472 On ch=1 n=d#5 v=0
18478 On ch=1 n=f#5 v=0
18512 On ch=1 n=c#5 v=78
18520 On ch=1 n=a4 v=0
18580 On ch=1 n=c#5 v=0
18604 Par ch=1 c=64 v=63
18620 On ch=1 n=d#5 v=97
18622 Par ch=1 c=64 v=0
18632 On ch=1 n=f#5 v=70
18636 On ch=1 n=b4 v=70
18686 On ch=1 n=g5 v=61
18688 On ch=1 n=f#5 v=0
18694 On ch=1 n=d#5 v=0
18722 On ch=1 n=a4 v=65
18724 Par ch=1 c=64 v=63
18738 Par ch=1 c=64 v=127
18742 On ch=1 n=f#5 v=97
18744 On ch=1 n=b4 v=0
18780 On ch=1 n=d#5 v=69
18786 On ch=1 n=g5 v=0
18834 On ch=1 n=f#5 v=0
18850 On ch=1 n=c#5 v=90
18860 On ch=1 n=a4 v=0
18862 On ch=1 n=d#5 v=0
18864 On ch=1 n=e4 v=30
18906 On ch=1 n=f#5 v=48
18916 On ch=1 n=c#5 v=0
18930 On ch=1 n=d#5 v=76
18932 On ch=1 n=f#4 v=67
18960 On ch=1 n=e4 v=0
19032 On ch=1 n=a4 v=51
19072 On ch=1 n=f#4 v=0
19106 On ch=1 n=d#5 v=0
19106 On ch=1 n=f#5 v=0
19142 On ch=1 n=c#5 v=75
19150 On ch=1 n=a4 v=0
19220 On ch=1 n=c#5 v=0
19260 Par ch=1 c=64 v=63
19262 On ch=1 n=f#5 v=88
19272 Par ch=1 c=64 v=0
19276 On ch=1 n=b4 v=73
19282 On ch=1 n=d#5 v=80
19368 Par ch=1 c=64 v=63
19382 Par ch=1 c=64 v=127
19384 On ch=1 n=e5 v=78
19406 On ch=1 n=b4 v=0
19410 On ch=1 n=f#5 v=0
19418 On ch=1 n=d#5 v=0
19480 On ch=1 n=b4 v=72
19482 On ch=1 n=e5 v=0
19596 On ch=1 n=b4 v=0
19596 On ch=1 n=c#5 v=83
19682 On ch=1 n=e5 v=74
19688 On ch=1 n=c#5 v=0
19792 On ch=1 n=e5 v=0
19810 On ch=1 n=a5 v=66
19892 On ch=1 n=a5 v=0
19898 On ch=1 n=b4 v=68
19914 Par ch=1 c=64 v=63
19916 On ch=1 n=f#5 v=90
19930 Par ch=1 c=64 v=0
19936 On ch=1 n=d#5 v=86
20000 Par ch=1 c=64 v=63
20006 On ch=1 n=b4 v=0
20018 Par ch=1 c=64 v=127
20028 On ch=1 n=e5 v=81
20032 On ch=1 n=d#5 v=0
20046 On ch=1 n=f#5 v=0
20126 On ch=1 n=e5 v=0
20128 On ch=1 n=b4 v=77
20232 On ch=1 n=c#5 v=85
20234 On ch=1 n=b4 v=0
20324 On ch=1 n=c#5 v=0
20338 On ch=1 n=e5 v=71
20452 On ch=1 n=e5 v=0
20452 On ch=1 n=a5 v=69
20548 Par ch=1 c=64 v=63
20560 Par ch=1 c=64 v=0
20576 On ch=1 n=a5 v=0
20576 On ch=1 n=d#5 v=71
20580 On ch=1 n=f#5 v=91
20582 On ch=1 n=b4 v=42
20674 Par ch=1 c=64 v=63
20688 Par ch=1 c=64 v=127
20688 On ch=1 n=e5 v=67
20694 On ch=1 n=f#5 v=0
20784 On ch=1 n=f#5 v=94
20812 On ch=1 n=e5 v=0
20826 On ch=1 n=d#5 v=0
20870 On ch=1 n=f#5 v=0
20904 On ch=1 n=d5 v=90
20910 On ch=1 n=b4 v=0
20916 On ch=1 n=a#4 v=78
21020 On ch=1 n=e5 v=79
21060 Par ch=1 c=64 v=63
21092 Par ch=1 c=64 v=0
21118 On ch=1 n=f#5 v=106
21140 Par ch=1 c=64 v=63
21146 On ch=1 n=e5 v=0
21166 Par ch=1 c=64 v=127
21228 On ch=1 n=a4 v=68
21234 On ch=1 n=c#6 v=100
21246 On ch=1 n=f#5 v=0
21290 On ch=1 n=a#4 v=0
21346 On ch=1 n=c#6 v=0
21346 On ch=1 n=f#5 v=104
21388 Par ch=1 c=64 v=63
21430 On ch=1 n=c#6 v=98
21430 Par ch=1 c=64 v=0
21448 Par ch=1 c=64 v=63
21454 On ch=1 n=f#5 v=0
21480 Par ch=1 c=64 v=127
21538 On ch=1 n=c#5 v=76
21540 On ch=1 n=g#4 v=75
21554 On ch=1 n=b5 v=91
21556 On ch=1 n=c#6 v=0
21616 On ch=1 n=d5 v=0
21622 On ch=1 n=a4 v=0
21648 Par ch=1 c=64 v=63
21652 On ch=1 n=f5 v=81
21668 On ch=1 n=b5 v=0
21736 Par ch=1 c=64 v=127
21744 On ch=1 n=f5 v=0
21760 On ch=1 n=g#4 v=0
21760 On ch=1 n=b5 v=65
21834 On ch=1 n=b5 v=0
21868 On ch=1 n=e5 v=81
21902 On ch=1 n=c#5 v=0
21908 On ch=1 n=c5 v=65
21928 On ch=1 n=g4 v=59
21940 Par ch=1 c=64 v=63
21966 Par ch=1 c=64 v=0
21968 On ch=1 n=d5 v=86
21974 On ch=1 n=e5 v=0
22018 Par ch=1 c=64 v=63
22038 On ch=1 n=g4 v=0
22038 Par ch=1 c=64 v=127
22068 On ch=1 n=e5 v=91
22080 On ch=1 n=d5 v=0
22092 On ch=1 n=c5 v=0
22184 On ch=1 n=e5 v=0
22184 On ch=1 n=c5 v=93
22198 On ch=1 n=f#4 v=76
22294 On ch=1 n=d5 v=89
22336 Par ch=1 c=64 v=63
22360 Par ch=1 c=64 v=0
22388 On ch=1 n=e5 v=96
22408 On ch=1 n=d5 v=0
22424 Par ch=1 c=64 v=63
22442 Par ch=1 c=64 v=127
22488 On ch=1 n=f#4 v=0
22500 On ch=1 n=a5 v=92
22500 On ch=1 n=b4 v=80
22510 On ch=1 n=e5 v=0
22514 On ch=1 n=f4 v=70
22528 On ch=1 n=c5 v=0
22610 Par ch=1 c=64 v=63
22616 On ch=1 n=a5 v=0
22618 On ch=1 n=d#5 v=108
22676 Par ch=1 c=64 v=127
22688 On ch=1 n=f4 v=0
22700 On ch=1 n=a5 v=82
22706 On ch=1 n=d#5 v=0
22814 On ch=1 n=g5 v=93
22828 On ch=1 n=a#4 v=81
22842 On ch=1 n=e4 v=71
22844 On ch=1 n=a5 v=0
22866 On ch=1 n=b4 v=0
22892 Par ch=1 c=64 v=63
22916 Par ch=1 c=64 v=0
22926 On ch=1 n=g5 v=0
22928 On ch=1 n=d5 v=84
22966 Par ch=1 c=64 v=63
22992 Par ch=1 c=64 v=127
23020 On ch=1 n=g5 v=90
23028 On ch=1 n=d5 v=0
23110 On ch=1 n=g5 v=0
23138 On ch=1 n=a4 v=67
23140 On ch=1 n=c5 v=92
23142 On ch=1 n=e4 v=0
23164 On ch=1 n=f4 v=56
23182 On ch=1 n=a#4 v=0
23194 Par ch=1 c=64 v=63
23212 Par ch=1 c=64 v=0
23226 On ch=1 n=c5 v=0
23228 On ch=1 n=b4 v=77
23288 Par ch=1 c=64 v=63
23306 Par ch=1 c=64 v=127
23344 On ch=1 n=c5 v=91
23346 On ch=1 n=b4 v=0
23364 On ch=1 n=a4 v=0
23436 On ch=1 n=c5 v=0
23466 On ch=1 n=a4 v=68
23468 On ch=1 n=e4 v=77
23500 Par ch=1 c=64 v=63
23504 On ch=1 n=f4 v=0
23522 Par ch=1 c=64 v=0
23564 On ch=1 n=e4 v=0
23564 Par ch=1 c=64 v=63
23574 On ch=1 n=b4 v=86
23594 Par ch=1 c=64 v=127
23676 On ch=1 n=c5 v=94
23684 On ch=1 n=b4 v=0
23786 On ch=1 n=d5 v=93
23796 On ch=1 n=c5 v=0
23800 On ch=1 n=b3 v=55
23856 Par ch=1 c=64 v=63
23900 On ch=1 n=f5 v=91
23902 On ch=1 n=d5 v=0
23940 Par ch=1 c=64 v=127
23946 On ch=1 n=a4 v=0
24002 On ch=1 n=e5 v=88
24034 On ch=1 n=f5 v=0
24118 On ch=1 n=d5 v=91
24126 On ch=1 n=g#4 v=71
24132 On ch=1 n=b3 v=0
24136 On ch=1 n=e5 v=0
24150 On ch=1 n=e4 v=60
24162 Par ch=1 c=64 v=63
24190 Par ch=1 c=64 v=0
24206 On ch=1 n=e5 v=85
24220 On ch=1 n=d5 v=0
24238 Par ch=1 c=64 v=63
24268 Par ch=1 c=64 v=127
24296 On ch=1 n=g#4 v=0
24318 On ch=1 n=c5 v=96
24342 On ch=1 n=e5 v=0
24416 On ch=1 n=c5 v=0
24420 On ch=1 n=b4 v=86
24446 On ch=1 n=a3 v=49
24450 On ch=1 n=f#4 v=87
24472 Par ch=1 c=64 v=63
24484 Par ch=1 c=64 v=0
24492 On ch=1 n=e4 v=0
24504 On ch=1 n=b4 v=0
24520 On ch=1 n=c5 v=92
24564 Par ch=1 c=64 v=63
24580 Par ch=1 c=64 v=127
24642 On ch=1 n=c5 v=0
24644 On ch=1 n=a4 v=72
24672 On ch=1 n=f#4 v=0
24738 Par ch=1 c=64 v=63
24746 On ch=1 n=b4 v=84
24748 Par ch=1 c=64 v=0
24750 On ch=1 n=a3 v=0
24756 On ch=1 n=f4 v=63
24762 On ch=1 n=a4 v=0
24816 Par ch=1 c=64 v=63
24832 Par ch=1 c=64 v=127
24854 On ch=1 n=c5 v=80
24868 On ch=1 n=b4 v=0
24962 On ch=1 n=d5 v=75
24972 On ch=1 n=c5 v=0
24974 On ch=1 n=f4 v=0
25040 On ch=1 n=d5 v=0
25064 On ch=1 n=a4 v=59
25066 Par ch=1 c=64 v=63
25068 On ch=1 n=e4 v=57
25072 On ch=1 n=c5 v=71
25080 Par ch=1 c=64 v=0
25120 Par ch=1 c=64 v=63
25144 Par ch=1 c=64 v=127
25178 On ch=1 n=c5 v=0
25180 On ch=1 n=d5 v=84
25186 On ch=1 n=a4 v=0
25268 On ch=1 n=e5 v=68
25274 On ch=1 n=d5 v=0
25326 On ch=1 n=e5 v=0
25380 On ch=1 n=c5 v=66
25386 On ch=1 n=e5 v=64
25398 On ch=1 n=g5 v=89
25402 On ch=1 n=e4 v=0
25460 On ch=1 n=c5 v=0
25482 On ch=1 n=e5 v=0
25514 On ch=1 n=a5 v=60
25518 On ch=1 n=g5 v=0
25598 On ch=1 n=c6 v=78
25602 On ch=1 n=a5 v=0
25660 On ch=1 n=c6 v=0
25710 On ch=1 n=a5 v=64
25732 On ch=1 n=c6 v=73
25756 On ch=1 n=e6 v=97
25844 Par ch=1 c=64 v=63
25854 Par ch=1 c=64 v=0
25856 On ch=1 n=d6 v=97
25886 On ch=1 n=e6 v=0
25948 On ch=1 n=e6 v=103
25950 Par ch=1 c=64 v=63
25962 Par ch=1 c=64 v=127
25986 On ch=1 n=d6 v=0
26000 On ch=1 n=c6 v=0
26036 On ch=1 n=e6 v=0
26054 On ch=1 n=c6 v=88
26060 On ch=1 n=g#5 v=91
26122 On ch=1 n=a5 v=0
26154 On ch=1 n=d6 v=96
26252 On ch=1 n=e6 v=111
26290 On ch=1 n=d6 v=0
26358 On ch=1 n=g5 v=71
26364 On ch=1 n=b6 v=100
26392 On ch=1 n=e6 v=0
26410 On ch=1 n=g#5 v=0
26458 Par ch=1 c=64 v=63
26472 Par ch=1 c=64 v=0
26482 On ch=1 n=e6 v=107
26502 On ch=1 n=b6 v=0
26528 Par ch=1 c=64 v=63
26548 Par ch=1 c=64 v=127
26580 On ch=1 n=b6 v=92
26598 On ch=1 n=e6 v=0
26686 On ch=1 n=a6 v=98
26690 On ch=1 n=f#5 v=80
26694 On ch=1 n=b5 v=75
26720 On ch=1 n=b6 v=0
26732 On ch=1 n=g5 v=0
26750 On ch=1 n=c6 v=0
26804 On ch=1 n=d#6 v=113
26816 On ch=1 n=a6 v=0
26890 On ch=1 n=f#5 v=0
26898 On ch=1 n=a6 v=94
26904 On ch=1 n=d#6 v=0
26930 On ch=1 n=b5 v=0
26984 On ch=1 n=a6 v=0
27010 On ch=1 n=d6 v=100
27034 On ch=1 n=a#5 v=86
27042 On ch=1 n=f5 v=68
27122 On ch=1 n=c6 v=97
27126 Par ch=1 c=64 v=63
27134 Par ch=1 c=64 v=0
27142 On ch=1 n=d6 v=0
27204 Par ch=1 c=64 v=63
27224 Par ch=1 c=64 v=127
27226 On ch=1 n=f5 v=0
27228 On ch=1 n=d6 v=104
27256 On ch=1 n=a#5 v=0
27268 On ch=1 n=c6 v=0
27316 On ch=1 n=d6 v=0
27336 On ch=1 n=a#5 v=104
27342 On ch=1 n=e5 v=80
27436 On ch=1 n=c6 v=96
27518 On ch=1 n=e5 v=0
27530 On ch=1 n=d6 v=106
27572 On ch=1 n=c6 v=0
27650 On ch=1 n=g6 v=87
27656 On ch=1 n=a5 v=92
27664 On ch=1 n=d6 v=0
27668 On ch=1 n=d#5 v=100
27670 Par ch=1 c=64 v=63
27680 Par ch=1 c=64 v=0
27696 On ch=1 n=a#5 v=0
27746 Par ch=1 c=64 v=63
27770 Par ch=1 c=64 v=127
27772 On ch=1 n=c#6 v=107
27784 On ch=1 n=g6 v=0
27862 On ch=1 n=g6 v=89
27872 On ch=1 n=c#6 v=0
27918 On ch=1 n=a5 v=0
27964 On ch=1 n=d#5 v=0
27972 On ch=1 n=f6 v=91
27982 On ch=1 n=g#5 v=93
28004 On ch=1 n=d5 v=83
28028 On ch=1 n=g6 v=0
28056 Par ch=1 c=64 v=63
28078 On ch=1 n=c6 v=80
28098 On ch=1 n=f6 v=0
28134 Par ch=1 c=64 v=127
28176 On ch=1 n=f6 v=92
28198 On ch=1 n=c6 v=0
28266 On ch=1 n=f6 v=0
28298 On ch=1 n=g5 v=75
28298 On ch=1 n=a#5 v=104
28302 On ch=1 n=d5 v=0
28308 On ch=1 n=d#5 v=77
28322 On ch=1 n=g#5 v=0
28378 Par ch=1 c=64 v=63
28402 Par ch=1 c=64 v=0
28410 On ch=1 n=a#5 v=0
28416 On ch=1 n=a5 v=79
28456 Par ch=1 c=64 v=63
28482 Par ch=1 c=64 v=127
28508 On ch=1 n=g5 v=0
28514 On ch=1 n=a#5 v=105
28544 On ch=1 n=a5 v=0
28602 On ch=1 n=a#5 v=0
28618 On ch=1 n=d5 v=87
28630 On ch=1 n=g5 v=84
28674 On ch=1 n=d#5 v=0
28722 On ch=1 n=d5 v=0
28722 On ch=1 n=a5 v=89
28742 Par ch=1 c=64 v=63
28756 Par ch=1 c=64 v=127
28814 On ch=1 n=a#5 v=105
28844 On ch=1 n=a5 v=0
28928 On ch=1 n=a4 v=94
28930 On ch=1 n=c6 v=98
28956 On ch=1 n=a#5 v=0
29002 On ch=1 n=g5 v=0
29046 On ch=1 n=d#6 v=107
29066 On ch=1 n=c6 v=0
29164 On ch=1 n=d6 v=98
29178 On ch=1 n=d#6 v=0
29260 On ch=1 n=f#5 v=91
29274 On ch=1 n=d5 v=76
29280 On ch=1 n=c6 v=106
29308 On ch=1 n=d6 v=0
29380 On ch=1 n=d6 v=103
29406 On ch=1 n=c6 v=0
29454 On ch=1 n=a4 v=0
29484 On ch=1 n=a#5 v=115
29494 On ch=1 n=f#5 v=0
29514 On ch=1 n=d6 v=0
29594 On ch=1 n=a5 v=91
29610 On ch=1 n=a#5 v=0
29610 On ch=1 n=f5 v=102
29626 On ch=1 n=g4 v=83
29638 On ch=1 n=d5 v=0
29700 Par ch=1 c=64 v=63
29700 On ch=1 n=a#5 v=106
29710 Par ch=1 c=64 v=0
29726 On ch=1 n=a5 v=0
29798 Par ch=1 c=64 v=63
29812 Par ch=1 c=64 v=127
29816 On ch=1 n=g5 v=107
29840 On ch=1 n=a#5 v=0
29850 On ch=1 n=f5 v=0
29926 On ch=1 n=a5 v=91
29938 On ch=1 n=e5 v=97
29944 On ch=1 n=c5 v=88
29968 On ch=1 n=g5 v=0
29970 On ch=1 n=g4 v=0
30034 On ch=1 n=a#5 v=105
30086 Par ch=1 c=67 v=127
30088 On ch=1 n=a5 v=0
30142 On ch=1 n=c6 v=86
30164 On ch=1 n=a#5 v=0
30210 On ch=1 n=c5 v=0
30262 On ch=1 n=a5 v=88
30268 On ch=1 n=f4 v=89
30272 On ch=1 n=c6 v=0
30300 On ch=1 n=e5 v=0
30336 Par ch=1 c=64 v=63
30350 Par ch=1 c=64 v=0
30350 On ch=1 n=g5 v=93
30360 Par ch=1 c=64 v=63
30386 Par ch=1 c=64 v=127
30404 On ch=1 n=a5 v=0
30442 On ch=1 n=e5 v=84
30448 On ch=1 n=g5 v=0
30518 Par ch=1 c=67 v=0
30534 On ch=1 n=e5 v=0
30564 On ch=1 n=b4 v=71
30568 On ch=1 n=d5 v=91
30582 On ch=1 n=g4 v=45
30618 On ch=1 n=f4 v=0
30662 Par ch=1 c=67 v=127
30680 On ch=1 n=d5 v=0
30680 On ch=1 n=c5 v=84
30748 On ch=1 n=b4 v=0
30766 On ch=1 n=g4 v=0
30776 On ch=1 n=d5 v=92
30792 On ch=1 n=c5 v=0
30886 On ch=1 n=c4 v=73
30892 On ch=1 n=d5 v=0
30896 On ch=1 n=e5 v=90
30902 Par ch=1 c=67 v=0
30924 Par ch=1 c=64 v=63
30930 Par ch=1 c=64 v=0
30972 Par ch=1 c=64 v=63
30976 On ch=1 n=d5 v=89
30982 On ch=1 n=e5 v=0
30990 Par ch=1 c=64 v=127
31016 On ch=1 n=g4 v=65
31042 On ch=1 n=c4 v=0
31056 On ch=1 n=e5 v=99
31072 On ch=1 n=d5 v=0
31104 On ch=1 n=c5 v=75
31112 On ch=1 n=g4 v=0
31198 On ch=1 n=c5 v=0
31204 On ch=1 n=g4 v=75
31326 On ch=1 n=c5 v=97
31334 On ch=1 n=g4 v=0
31348 On ch=1 n=e5 v=0
31418 On ch=1 n=c5 v=0
31440 On ch=1 n=e5 v=89
31546 On ch=1 n=e5 v=0
31552 On ch=1 n=d5 v=77
31558 On ch=1 n=f#5 v=104
31586 Par ch=1 c=64 v=63
31642 On ch=1 n=c5 v=88
31648 Par ch=1 c=64 v=127
31660 On ch=1 n=d5 v=0
31716 On ch=1 n=c5 v=0
31748 On ch=1 n=f#5 v=0
31768 On ch=1 n=a4 v=51
31778 On ch=1 n=a5 v=90
31848 On ch=1 n=f#4 v=97
31888 On ch=1 n=a4 v=0
31980 On ch=1 n=f#4 v=0
31982 On ch=1 n=d6 v=97
31990 On ch=1 n=e4 v=59
32010 On ch=1 n=a5 v=0
32046 On ch=1 n=d4 v=78
32066 On ch=1 n=d6 v=0
32090 On ch=1 n=e4 v=0
32166 On ch=1 n=c4 v=87
32184 On ch=1 n=d4 v=0
32224 On ch=1 n=e5 v=98
32230 Par ch=1 c=64 v=63
32240 Par ch=1 c=64 v=0
32266 On ch=1 n=d5 v=86
32282 Par ch=1 c=64 v=63
32290 On ch=1 n=e5 v=0
32312 Par ch=1 c=64 v=127
32322 On ch=1 n=g4 v=75
32330 On ch=1 n=c4 v=0
32348 On ch=1 n=e5 v=82
32384 On ch=1 n=d5 v=0
32430 On ch=1 n=g4 v=0
32440 On ch=1 n=c5 v=68
32540 On ch=1 n=c5 v=0
32544 On ch=1 n=g4 v=67
32654 On ch=1 n=e5 v=0
32666 On ch=1 n=c5 v=87
32710 On ch=1 n=g4 v=0
32770 On ch=1 n=e5 v=76
32772 On ch=1 n=c5 v=0
32834 On ch=1 n=e5 v=0
32892 On ch=1 n=b3 v=91
32894 Par ch=1 c=64 v=63
32896 On ch=1 n=f#5 v=98
32904 Par ch=1 c=64 v=0
32958 Par ch=1 c=64 v=63
32960 On ch=1 n=e5 v=68
32978 On ch=1 n=f#5 v=0
32986 Par ch=1 c=64 v=127
32996 On ch=1 n=f#4 v=85
33000 On ch=1 n=b3 v=0
33048 On ch=1 n=f#5 v=96
33092 On ch=1 n=e5 v=0
33092 On ch=1 n=b4 v=65
33098 On ch=1 n=f#4 v=0
33194 On ch=1 n=f#4 v=89
33196 On ch=1 n=b4 v=0
33296 On ch=1 n=b4 v=84
33298 On ch=1 n=f#5 v=0
33340 On ch=1 n=f#4 v=0
33394 On ch=1 n=d5 v=73
33408 On ch=1 n=b4 v=0
33512 On ch=1 n=d5 v=0
33562 On ch=1 n=g4 v=76
33578 Par ch=1 c=64 v=63
33578 On ch=1 n=b5 v=88
33586 Par ch=1 c=64 v=0
33624 On ch=1 n=a5 v=71
33644 On ch=1 n=b5 v=0
33662 Par ch=1 c=64 v=63
33680 Par ch=1 c=64 v=127
33708 On ch=1 n=d5 v=75
33716 On ch=1 n=g4 v=0
33732 On ch=1 n=b5 v=88
33744 On ch=1 n=a5 v=0
33826 On ch=1 n=d5 v=0
33828 On ch=1 n=g5 v=52
33932 On ch=1 n=d5 v=92
33934 On ch=1 n=g5 v=0
34036 On ch=1 n=b5 v=0
34060 On ch=1 n=g5 v=87
34088 On ch=1 n=d5 v=0
34154 On ch=1 n=g5 v=0
34168 On ch=1 n=b5 v=93
34260 On ch=1 n=c#6 v=115
34270 On ch=1 n=b5 v=0
34288 On ch=1 n=a5 v=76
34366 On ch=1 n=c#6 v=0
34376 On ch=1 n=g5 v=84
34406 On ch=1 n=a5 v=0
34438 On ch=1 n=g5 v=0
34486 On ch=1 n=e5 v=83
34486 On ch=1 n=e6 v=113
34586 On ch=1 n=c#5 v=98
34600 On ch=1 n=e5 v=0
34684 On ch=1 n=b4 v=74
34694 On ch=1 n=a6 v=107
34696 On ch=1 n=c#5 v=0
34724 On ch=1 n=e6 v=0
34770 On ch=1 n=a4 v=78
34780 On ch=1 n=a6 v=0
34812 On ch=1 n=b4 v=0
34874 On ch=1 n=g4 v=88
34906 On ch=1 n=a4 v=0
34910 Par ch=1 c=64 v=63
34918 Par ch=1 c=64 v=0
34924 On ch=1 n=b5 v=111
34968 Par ch=1 c=64 v=63
34990 On ch=1 n=a5 v=71
34996 On ch=1 n=b5 v=0
34996 Par ch=1 c=64 v=127
35024 On ch=1 n=d5 v=88
35038 On ch=1 n=g4 v=0
35054 On ch=1 n=b5 v=92
35102 On ch=1 n=a5 v=0
35122 On ch=1 n=d5 v=0
35134 On ch=1 n=g5 v=72
35224 On ch=1 n=g5 v=0
35232 On ch=1 n=d5 v=88
35348 On ch=1 n=g5 v=88
35352 On ch=1 n=b5 v=0
35380 On ch=1 n=d5 v=0
35450 On ch=1 n=g5 v=0
35456 On ch=1 n=b5 v=64
35502 On ch=1 n=b5 v=0
35576 On ch=1 n=c#6 v=106
35580 Par ch=1 c=64 v=63
35584 On ch=1 n=f#4 v=103
35592 Par ch=1 c=64 v=0
35628 Par ch=1 c=64 v=63
35638 On ch=1 n=b5 v=66
35662 Par ch=1 c=64 v=127
35664 On ch=1 n=c#6 v=0
35674 On ch=1 n=c#5 v=88
35696 On ch=1 n=f#4 v=0
35736 On ch=1 n=c#6 v=113
35758 On ch=1 n=f#5 v=93
35770 On ch=1 n=c#5 v=0
35772 On ch=1 n=b5 v=0
35852 On ch=1 n=f#5 v=0
35862 On ch=1 n=c#5 v=94
35964 On ch=1 n=f#5 v=96
35972 On ch=1 n=c#6 v=0
36024 On ch=1 n=c#5 v=0
36060 On ch=1 n=a5 v=87
36120 On ch=1 n=f#5 v=0
36196 On ch=1 n=d5 v=106
36206 On ch=1 n=a5 v=0
36206 On ch=1 n=f#6 v=110
36210 Par ch=1 c=64 v=63
36218 Par ch=1 c=64 v=0
36256 Par ch=1 c=64 v=63
36278 On ch=1 n=e6 v=89
36284 Par ch=1 c=64 v=127
36300 On ch=1 n=f#6 v=0
36342 On ch=1 n=f#5 v=93
36372 On ch=1 n=f#6 v=103
36402 On ch=1 n=e6 v=0
36480 On ch=1 n=a5 v=84
36482 On ch=1 n=f#6 v=0
36550 On ch=1 n=b5 v=90
36654 On ch=1 n=d6 v=86
36676 On ch=1 n=b5 v=0
36730 On ch=1 n=d5 v=0
36744 On ch=1 n=a5 v=0
36758 On ch=1 n=e6 v=94
36776 On ch=1 n=d6 v=0
36788 On ch=1 n=f#5 v=0
36820 On ch=1 n=e6 v=0
36872 On ch=1 n=c5 v=118
36882 Par ch=1 c=64 v=63
36890 Par ch=1 c=64 v=0
36894 On ch=1 n=f#6 v=107
36940 Par ch=1 c=64 v=63
36966 Par ch=1 c=64 v=127
36986 On ch=1 n=e6 v=77
36992 On ch=1 n=f#6 v=0
37024 On ch=1 n=e5 v=81
37078 On ch=1 n=f#6 v=96
37082 On ch=1 n=e6 v=0
37136 On ch=1 n=f#6 v=0
37148 On ch=1 n=g5 v=96
37236 On ch=1 n=a5 v=96
37334 On ch=1 n=c6 v=94
37358 On ch=1 n=a5 v=0
37394 On ch=1 n=c5 v=0
37438 On ch=1 n=e5 v=0
37438 On ch=1 n=e6 v=71
37458 On ch=1 n=c6 v=0
37500 On ch=1 n=g5 v=0
37510 On ch=1 n=e6 v=0
37558 Par ch=1 c=64 v=63
37566 Par ch=1 c=64 v=0
37568 On ch=1 n=b4 v=121
37582 On ch=1 n=f#6 v=109
37620 Par ch=1 c=64 v=63
37644 Par ch=1 c=64 v=127
37658 On ch=1 n=e6 v=94
37662 On ch=1 n=f#6 v=0
37710 On ch=1 n=d5 v=90
37746 On ch=1 n=f#6 v=107
37758 On ch=1 n=e6 v=0
37814 On ch=1 n=f#6 v=0
37852 On ch=1 n=f#5 v=108
37942 On ch=1 n=a5 v=98
38026 On ch=1 n=f#5 v=0
38044 On ch=1 n=b5 v=103
38052 On ch=1 n=b4 v=0
38078 On ch=1 n=a5 v=0
38090 On ch=1 n=d5 v=0
38146 On ch=1 n=d6 v=102
38172 On ch=1 n=b5 v=0
38214 On ch=1 n=d6 v=0
38246 Par ch=1 c=64 v=63
38250 On ch=1 n=a4 v=116
38254 Par ch=1 c=64 v=0
38294 On ch=1 n=f#6 v=108
38304 Par ch=1 c=64 v=63
38326 Par ch=1 c=64 v=127
38368 On ch=1 n=f#6 v=0
38378 On ch=1 n=g6 v=76
38382 On ch=1 n=d5 v=88
38444 On ch=1 n=f#6 v=105
38474 On ch=1 n=g6 v=0
38512 On ch=1 n=f#6 v=0
38524 On ch=1 n=f#5 v=103
38614 On ch=1 n=d5 v=0
38620 On ch=1 n=f#5 v=0
38624 On ch=1 n=a5 v=101
38656 On ch=1 n=a4 v=0
38718 On ch=1 n=b5 v=97
38748 On ch=1 n=a5 v=0
38824 On ch=1 n=d6 v=97
38858 On ch=1 n=b5 v=0
38902 On ch=1 n=d6 v=0
38974 On ch=1 n=e4 v=117
38988 On ch=1 n=f#6 v=106
39068 On ch=1 n=a6 v=88
39092 Par ch=1 c=64 v=127
39104 On ch=1 n=f#6 v=0
39112 On ch=1 n=b4 v=77
39164 On ch=1 n=f#6 v=93
39230 On ch=1 n=a6 v=0
39262 On ch=1 n=d5 v=97
39268 On ch=1 n=f#6 v=0
39378 On ch=1 n=g5 v=90
39444 On ch=1 n=e4 v=0
39474 On ch=1 n=b4 v=0
39480 On ch=1 n=b5 v=101
39510 On ch=1 n=g5 v=0
39512 On ch=1 n=d5 v=0
39580 On ch=1 n=d6 v=102
39602 On ch=1 n=b5 v=0
39658 On ch=1 n=d6 v=0
39696 On ch=1 n=f#6 v=116
39746 On ch=1 n=f#6 v=0
39798 On ch=1 n=g6 v=89
39888 On ch=1 n=b6 v=100
39910 On ch=1 n=g6 v=0
39990 On ch=1 n=d7 v=98
40010 On ch=1 n=b6 v=0
40102 On ch=1 n=b6 v=96
40152 On ch=1 n=d7 v=0
40202 On ch=1 n=b6 v=0
40204 On ch=1 n=g6 v=90
40272 On ch=1 n=g6 v=0
40292 Par ch=1 c=64 v=63
40302 Par ch=1 c=64 v=0
40316 On ch=1 n=b5 v=100
40332 On ch=1 n=f#6 v=101
40346 Par ch=1 c=64 v=63
40360 Par ch=1 c=64 v=127
40428 On ch=1 n=f#6 v=0
40430 On ch=1 n=g6 v=91
40544 On ch=1 n=e6 v=90
40562 On ch=1 n=g6 v=0
40596 On ch=1 n=b5 v=0
40630 On ch=1 n=e6 v=0
40648 On ch=1 n=e5 v=101
40656 On ch=1 n=d6 v=82
40734 On ch=1 n=d6 v=0
40734 On ch=1 n=e5 v=0
40764 On ch=1 n=e6 v=92
40846 On ch=1 n=e6 v=0
40864 On ch=1 n=b5 v=93
40920 On ch=1 n=b5 v=0
40976 On ch=1 n=e5 v=85
40986 On ch=1 n=b5 v=86
40988 On ch=1 n=a4 v=71
41044 On ch=1 n=e5 v=0
41056 On ch=1 n=a4 v=0
41074 On ch=1 n=b5 v=0
41080 On ch=1 n=d6 v=73
41168 On ch=1 n=d6 v=0
41188 On ch=1 n=a5 v=78
41254 On ch=1 n=a5 v=0
41314 On ch=1 n=c5 v=86
41316 Par ch=1 c=64 v=63
41316 On ch=1 n=g5 v=76
41332 On ch=1 n=d4 v=52
41358 Par ch=1 c=64 v=127
41406 On ch=1 n=g5 v=0
41444 On ch=1 n=e5 v=71
41458 On ch=1 n=c5 v=0
41514 On ch=1 n=d4 v=0
41550 On ch=1 n=e5 v=0
41568 On ch=1 n=f#5 v=89
41656 On ch=1 n=f#5 v=0
41760 On ch=1 n=g3 v=85
41772 On ch=1 n=a5 v=80
41788 On ch=1 n=b4 v=71
41808 Par ch=1 c=67 v=127
41834 Par ch=1 c=64 v=63
41842 Par ch=1 c=64 v=0
41888 Par ch=1 c=64 v=63
41906 Par ch=1 c=64 v=127
41988 On ch=1 n=g5 v=71
41994 On ch=1 n=a5 v=0
42010 On ch=1 n=b4 v=0
42106 On ch=1 n=g5 v=0
42116 On ch=1 n=d5 v=76
42220 On ch=1 n=e5 v=84
42226 On ch=1 n=d5 v=0
42280 On ch=1 n=g3 v=0
42312 On ch=1 n=g5 v=80
42328 On ch=1 n=e5 v=0
42416 On ch=1 n=b5 v=84
42428 On ch=1 n=g5 v=0
42532 On ch=1 n=a5 v=87
42540 On ch=1 n=b5 v=0
42634 On ch=1 n=g5 v=69
42652 On ch=1 n=a5 v=0
42728 On ch=1 n=g5 v=0
42730 On ch=1 n=d5 v=76
42834 On ch=1 n=d5 v=0
42838 On ch=1 n=e5 v=82
42926 On ch=1 n=g5 v=78
42938 On ch=1 n=e5 v=0
43020 On ch=1 n=b5 v=86
43036 On ch=1 n=g5 v=0
43102 On ch=1 n=b5 v=0
43132 On ch=1 n=d5 v=89
43158 Par ch=1 c=64 v=63
43162 On ch=1 n=a5 v=84
43166 Par ch=1 c=64 v=0
43206 On ch=1 n=b5 v=89
43220 On ch=1 n=a5 v=0
43244 Par ch=1 c=64 v=63
43248 On ch=1 n=c5 v=82
43254 On ch=1 n=d5 v=0
43260 On ch=1 n=b5 v=0
43262 Par ch=1 c=64 v=127
43272 On ch=1 n=a5 v=71
43348 On ch=1 n=a5 v=0
43348 On ch=1 n=g5 v=68
43370 On ch=1 n=c5 v=0
43374 On ch=1 n=g4 v=54
43426 On ch=1 n=a5 v=58
43448 On ch=1 n=g5 v=0
43472 On ch=1 n=a4 v=63
43482 On ch=1 n=g4 v=0
43576 On ch=1 n=c5 v=71
43586 On ch=1 n=a4 v=0
43592 On ch=1 n=a5 v=0
43650 On ch=1 n=c5 v=0
43680 On ch=1 n=e5 v=72
43770 On ch=1 n=e5 v=0
43778 On ch=1 n=d5 v=80
43788 On ch=1 n=a5 v=93
43818 Par ch=1 c=64 v=63
43866 On ch=1 n=c5 v=75
43874 On ch=1 n=a5 v=0
43878 On ch=1 n=d5 v=0
43884 On ch=1 n=b5 v=82
43894 Par ch=1 c=64 v=127
43914 On ch=1 n=b5 v=0
43930 On ch=1 n=a5 v=63
43964 On ch=1 n=c5 v=0
43980 On ch=1 n=g4 v=41
44008 On ch=1 n=a5 v=0
44010 On ch=1 n=g5 v=65
44088 On ch=1 n=a5 v=81
44102 On ch=1 n=g5 v=0
44106 On ch=1 n=g4 v=0
44114 On ch=1 n=a4 v=59
44158 On ch=1 n=a5 v=0
44202 On ch=1 n=c5 v=63
44252 On ch=1 n=a4 v=0
44304 On ch=1 n=e5 v=71
44308 On ch=1 n=c5 v=0
44368 On ch=1 n=e5 v=0
44460 Par ch=1 c=64 v=63
44468 On ch=1 n=a5 v=77
44468 On ch=1 n=b4 v=71
44470 Par ch=1 c=64 v=0
44484 On ch=1 n=g3 v=80
44526 Par ch=1 c=64 v=63
44550 Par ch=1 c=64 v=127
44606 On ch=1 n=b4 v=0
44608 On ch=1 n=g5 v=74
44616 On ch=1 n=a5 v=0
44710 On ch=1 n=g5 v=0
44720 On ch=1 n=d5 v=72
44812 On ch=1 n=g3 v=0
44818 On ch=1 n=e5 v=76
44822 On ch=1 n=d5 v=0
44916 On ch=1 n=g5 v=74
44922 On ch=1 n=e5 v=0
45008 On ch=1 n=b5 v=66
45022 On ch=1 n=g5 v=0
45140 On ch=1 n=b5 v=0
45140 On ch=1 n=a5 v=66
45218 On ch=1 n=g5 v=75
45250 On ch=1 n=a5 v=0
45324 On ch=1 n=g5 v=0
45336 On ch=1 n=d5 v=72
45434 On ch=1 n=e5 v=81
45438 On ch=1 n=d5 v=0
45518 On ch=1 n=g5 v=73
45528 On ch=1 n=e5 v=0
45612 On ch=1 n=b5 v=73
45630 On ch=1 n=g5 v=0
45698 On ch=1 n=b5 v=0
45724 Par ch=1 c=64 v=63
45734 Par ch=1 c=64 v=0
45744 On ch=1 n=d5 v=77
45752 On ch=1 n=a5 v=82
45786 On ch=1 n=b5 v=86
45804 On ch=1 n=a5 v=0
45822 Par ch=1 c=64 v=63
45838 On ch=1 n=b5 v=0
45840 Par ch=1 c=64 v=127
45852 On ch=1 n=a5 v=69
45890 On ch=1 n=c5 v=69
45896 On ch=1 n=d5 v=0
45934 On ch=1 n=g5 v=63
45940 On ch=1 n=a5 v=0
45998 On ch=1 n=g4 v=51
46000 On ch=1 n=c5 v=0
46014 On ch=1 n=a5 v=71
46046 On ch=1 n=g5 v=0
46100 On ch=1 n=a4 v=67
46112 On ch=1 n=g4 v=0
46182 On ch=1 n=a5 v=0
46192 On ch=1 n=c5 v=69
46214 On ch=1 n=a4 v=0
46270 On ch=1 n=c5 v=0
46284 On ch=1 n=e5 v=76
46380 On ch=1 n=a5 v=94
46382 On ch=1 n=e5 v=0
46392 On ch=1 n=d5 v=73
46412 Par ch=1 c=64 v=63
46424 Par ch=1 c=64 v=0
46454 On ch=1 n=a5 v=0
46454 On ch=1 n=b5 v=84
46476 On ch=1 n=c5 v=70
46484 Par ch=1 c=64 v=63
46486 On ch=1 n=d5 v=0
46512 On ch=1 n=b5 v=0
46514 Par ch=1 c=64 v=127
46516 On ch=1 n=a5 v=71
46578 On ch=1 n=c5 v=0
46586 On ch=1 n=g5 v=68
46588 On ch=1 n=a5 v=0
46598 On ch=1 n=g4 v=44
46652 On ch=1 n=a5 v=69
46676 On ch=1 n=g5 v=0
46724 On ch=1 n=g4 v=0
46726 On ch=1 n=a4 v=65
46822 On ch=1 n=c5 v=57
46844 On ch=1 n=a5 v=0
46860 On ch=1 n=a4 v=0
46896 On ch=1 n=c5 v=0
46904 On ch=1 n=e5 v=71
47022 On ch=1 n=e5 v=0
47060 On ch=1 n=c6 v=82
47082 On ch=1 n=a5 v=71
47088 On ch=1 n=g5 v=76
47170 Par ch=1 c=64 v=63
47174 Par ch=1 c=64 v=127
47196 On ch=1 n=b5 v=85
47226 On ch=1 n=c6 v=0
47300 On ch=1 n=c6 v=87
47306 On ch=1 n=b5 v=0
47354 On ch=1 n=a5 v=0
47406 On ch=1 n=g5 v=0
47408 On ch=1 n=a5 v=73
47424 On ch=1 n=c6 v=0
47528 On ch=1 n=b5 v=94
47542 On ch=1 n=a5 v=0
47628 On ch=1 n=c6 v=96
47664 On ch=1 n=b5 v=0
47744 On ch=1 n=b5 v=97
47760 On ch=1 n=f#5 v=96
47762 On ch=1 n=d6 v=97
47776 Par ch=1 c=64 v=63
47786 On ch=1 n=c6 v=0
47790 Par ch=1 c=64 v=0
47818 Par ch=1 c=64 v=63
47846 Par ch=1 c=64 v=127
47880 On ch=1 n=c6 v=84
47890 On ch=1 n=d6 v=0
47974 On ch=1 n=b5 v=0
47978 On ch=1 n=d6 v=96
48004 On ch=1 n=c6 v=0
48090 On ch=1 n=d6 v=0
48092 On ch=1 n=b5 v=87
48176 On ch=1 n=f#5 v=0
48204 On ch=1 n=d6 v=103
48212 On ch=1 n=b5 v=0
48302 On ch=1 n=f#6 v=103
48328 On ch=1 n=d6 v=0
48418 On ch=1 n=a5 v=101
48420 On ch=1 n=g5 v=92
48420 On ch=1 n=e6 v=103
48446 On ch=1 n=f#6 v=0
48450 Par ch=1 c=64 v=63
48456 Par ch=1 c=64 v=0
48514 On ch=1 n=d6 v=103
48516 Par ch=1 c=64 v=63
48538 Par ch=1 c=64 v=127
48550 On ch=1 n=e6 v=0
48622 On ch=1 n=e6 v=109
48654 On ch=1 n=d6 v=0
48738 On ch=1 n=c6 v=99
48760 On ch=1 n=e6 v=0
48830 On ch=1 n=a5 v=0
48850 On ch=1 n=d6 v=109
48876 On ch=1 n=c6 v=0
48884 On ch=1 n=g5 v=0
48948 On ch=1 n=e6 v=107
48990 On ch=1 n=d6 v=0
49072 On ch=1 n=f#6 v=103
49080 On ch=1 n=b5 v=108
49084 On ch=1 n=d5 v=104
49102 On ch=1 n=e6 v=0
49120 Par ch=1 c=64 v=63
49192 Par ch=1 c=64 v=127
49192 On ch=1 n=e6 v=98
49206 On ch=1 n=f#6 v=0
49288 On ch=1 n=f#6 v=98
49338 On ch=1 n=e6 v=0
49406 On ch=1 n=d6 v=94
49426 On ch=1 n=f#6 v=0
49460 On ch=1 n=d5 v=0
49468 On ch=1 n=b5 v=0
49522 On ch=1 n=f#6 v=108
49558 On ch=1 n=d6 v=0
49630 On ch=1 n=a6 v=96
49666 On ch=1 n=f#6 v=0
49754 On ch=1 n=a6 v=0
49760 Par ch=1 c=64 v=63
49770 Par ch=1 c=64 v=0
49780 On ch=1 n=d6 v=103
49784 On ch=1 n=e5 v=97
49790 On ch=1 n=f#6 v=100
49806 Par ch=1 c=64 v=63
49832 Par ch=1 c=64 v=127
49910 On ch=1 n=g6 v=92
49916 On ch=1 n=f#6 v=0
50020 On ch=1 n=e6 v=88
50024 On ch=1 n=d6 v=0
50054 On ch=1 n=g6 v=0
50128 On ch=1 n=e6 v=0
50128 On ch=1 n=g5 v=92
50132 On ch=1 n=d6 v=84
50202 On ch=1 n=g5 v=0
50204 On ch=1 n=d6 v=0
50208 On ch=1 n=e5 v=0
50236 On ch=1 n=e6 v=91
50332 On ch=1 n=e6 v=0
50344 On ch=1 n=b5 v=94
50420 On ch=1 n=b5 v=0
50456 On ch=1 n=a5 v=90
50460 On ch=1 n=f#5 v=85
50464 On ch=1 n=b4 v=75
50516 Par ch=1 c=64 v=63
50524 Par ch=1 c=64 v=0
50576 On ch=1 n=f#5 v=0
50578 On ch=1 n=c#5 v=90
50578 Par ch=1 c=64 v=63
50600 Par ch=1 c=64 v=127
50624 On ch=1 n=b4 v=0
50676 On ch=1 n=a5 v=0
50684 On ch=1 n=c#5 v=0
50686 On ch=1 n=e5 v=80
50688 On ch=1 n=b5 v=76
50786 On ch=1 n=f#5 v=87
50792 On ch=1 n=e5 v=0
50894 On ch=1 n=b5 v=0
50902 On ch=1 n=a5 v=64
50912 On ch=1 n=c#6 v=85
50928 On ch=1 n=f#5 v=0
50988 On ch=1 n=c#6 v=0
51016 On ch=1 n=b5 v=75
51028 On ch=1 n=a5 v=0
51100 On ch=1 n=b5 v=0
51192 On ch=1 n=d6 v=64
51204 On ch=1 n=e5 v=55
51212 On ch=1 n=f#6 v=80
51232 Par ch=1 c=64 v=63
51276 Par ch=1 c=64 v=127
51322 On ch=1 n=g6 v=72
51340 On ch=1 n=f#6 v=0
51438 On ch=1 n=e6 v=67
51468 On ch=1 n=g6 v=0
51486 On ch=1 n=d6 v=0
51516 On ch=1 n=g5 v=71
51542 On ch=1 n=d6 v=71
51546 On ch=1 n=e6 v=0
51594 On ch=1 n=g5 v=0
51600 On ch=1 n=e5 v=0
51632 On ch=1 n=d6 v=0
51654 On ch=1 n=e6 v=73
51744 On ch=1 n=e6 v=0
51748 On ch=1 n=b5 v=79
51840 On ch=1 n=f#5 v=73
51846 On ch=1 n=b5 v=0
51854 On ch=1 n=a5 v=76
51860 On ch=1 n=b4 v=47
51888 Par ch=1 c=64 v=63
51900 Par ch=1 c=64 v=0
51914 Par ch=1 c=64 v=63
51940 Par ch=1 c=64 v=127
51954 On ch=1 n=f#5 v=0
51966 On ch=1 n=c#5 v=83
52010 On ch=1 n=b4 v=0
52054 On ch=1 n=a5 v=0
52066 On ch=1 n=e5 v=76
52068 On ch=1 n=c#5 v=0
52082 On ch=1 n=b5 v=81
52164 On ch=1 n=f#5 v=87
52180 On ch=1 n=e5 v=0
52286 On ch=1 n=c#6 v=107
52288 On ch=1 n=a5 v=85
52308 On ch=1 n=b5 v=0
52320 On ch=1 n=f#5 v=0
52362 On ch=1 n=c#6 v=0
52388 On ch=1 n=b5 v=98
52416 On ch=1 n=a5 v=0
52486 On ch=1 n=b5 v=0
52554 On ch=1 n=f#6 v=107
52564 On ch=1 n=d6 v=98
52570 On ch=1 n=e5 v=76
52614 Par ch=1 c=64 v=63
52656 Par ch=1 c=64 v=127
52664 On ch=1 n=g6 v=93
52706 On ch=1 n=f#6 v=0
52772 On ch=1 n=e6 v=91
52804 On ch=1 n=d6 v=0
52828 On ch=1 n=g6 v=0
52894 On ch=1 n=g5 v=91
52898 On ch=1 n=e6 v=0
52898 On ch=1 n=d6 v=86
52984 On ch=1 n=d6 v=0
52986 On ch=1 n=g5 v=0
53010 On ch=1 n=e6 v=90
53012 On ch=1 n=e5 v=0
53094 On ch=1 n=e6 v=0
53110 On ch=1 n=b5 v=97
53170 On ch=1 n=b5 v=0
53240 On ch=1 n=d5 v=85
53242 On ch=1 n=b5 v=91
53304 On ch=1 n=d5 v=0
53338 On ch=1 n=b5 v=0
53338 On ch=1 n=d6 v=85
53438 On ch=1 n=a5 v=91
53442 On ch=1 n=d6 v=0
53502 On ch=1 n=a5 v=0
53552 On ch=1 n=f#5 v=97
53556 On ch=1 n=c#5 v=98
53562 On ch=1 n=a5 v=84
53602 On ch=1 n=f#5 v=0
53610 On ch=1 n=c#5 v=0
53652 On ch=1 n=a5 v=0
53668 On ch=1 n=b5 v=76
53742 On ch=1 n=b5 v=0
53750 On ch=1 n=e5 v=78
53824 On ch=1 n=e5 v=0
53900 On ch=1 n=d#5 v=98
53906 On ch=1 n=f#5 v=92
53910 On ch=1 n=b4 v=82
53950 Par ch=1 c=64 v=63
53960 Par ch=1 c=64 v=0
53970 On ch=1 n=d#5 v=0
53986 On ch=1 n=f#5 v=0
53988 On ch=1 n=g5 v=74
53990 Par ch=1 c=64 v=63
53992 On ch=1 n=b4 v=0
53992 On ch=1 n=a4 v=66
54024 On ch=1 n=f#5 v=71
54026 Par ch=1 c=64 v=127
54048 On ch=1 n=d#5 v=93
54066 On ch=1 n=g5 v=0
54104 On ch=1 n=f#5 v=0
54112 On ch=1 n=a4 v=0
54118 On ch=1 n=e4 v=63
54124 On ch=1 n=c#5 v=77
54138 On ch=1 n=d#5 v=0
54196 On ch=1 n=c#5 v=0
54202 On ch=1 n=f#5 v=84
54208 On ch=1 n=d#5 v=54
54218 On ch=1 n=f#4 v=68
54224 On ch=1 n=e4 v=0
54324 On ch=1 n=a4 v=57
54344 On ch=1 n=f#4 v=0
54366 On ch=1 n=d#5 v=0
54370 On ch=1 n=f#5 v=0
54450 On ch=1 n=c#5 v=80
54452 On ch=1 n=a4 v=0
54514 On ch=1 n=c#5 v=0
54532 On ch=1 n=f#5 v=95
54534 On ch=1 n=d#5 v=96
54538 Par ch=1 c=64 v=63
54548 Par ch=1 c=64 v=0
54584 On ch=1 n=b4 v=71
54606 On ch=1 n=f#5 v=0
54608 On ch=1 n=d#5 v=0
54610 On ch=1 n=g5 v=59
54614 Par ch=1 c=64 v=63
54640 Par ch=1 c=64 v=127
54666 On ch=1 n=f#5 v=82
54678 On ch=1 n=a4 v=61
54686 On ch=1 n=b4 v=0
54686 On ch=1 n=d#5 v=45
54692 On ch=1 n=g5 v=0
54764 On ch=1 n=f#5 v=0
54770 On ch=1 n=c#5 v=78
54784 On ch=1 n=d#5 v=0
54800 On ch=1 n=a4 v=0
54818 On ch=1 n=e4 v=45
54856 On ch=1 n=c#5 v=0
54858 On ch=1 n=d#5 v=51
54858 On ch=1 n=f#5 v=80
54890 On ch=1 n=f#4 v=65
54920 On ch=1 n=e4 v=0
55008 On ch=1 n=a4 v=38
55020 On ch=1 n=d#5 v=0
55022 On ch=1 n=f#5 v=0
55026 On ch=1 n=f#4 v=0
55096 On ch=1 n=c#5 v=70
55112 On ch=1 n=a4 v=0
55174 On ch=1 n=c#5 v=0
55192 On ch=1 n=f#5 v=88
55194 Par ch=1 c=64 v=63
55206 On ch=1 n=d#5 v=84
55208 Par ch=1 c=64 v=0
55228 On ch=1 n=b4 v=81
55258 Par ch=1 c=64 v=63
55290 Par ch=1 c=64 v=127
55310 On ch=1 n=e5 v=84
55314 On ch=1 n=d#5 v=0
55324 On ch=1 n=f#5 v=0
55336 On ch=1 n=b4 v=0
55412 On ch=1 n=e5 v=0
55414 On ch=1 n=b4 v=81
55516 On ch=1 n=c#5 v=98
55522 On ch=1 n=b4 v=0
55606 On ch=1 n=c#5 v=0
55608 On ch=1 n=e5 v=74
55696 On ch=1 n=e5 v=0
55714 On ch=1 n=a5 v=83
55814 On ch=1 n=a5 v=0
55814 On ch=1 n=b4 v=81
55818 Par ch=1 c=64 v=63
55834 Par ch=1 c=64 v=0
55836 On ch=1 n=d#5 v=90
55856 On ch=1 n=f#5 v=76
55864 Par ch=1 c=64 v=63
55908 Par ch=1 c=64 v=127
55926 On ch=1 n=b4 v=0
55938 On ch=1 n=d#5 v=0
55942 On ch=1 n=e5 v=75
55970 On ch=1 n=f#5 v=0
56038 On ch=1 n=e5 v=0
56040 On ch=1 n=b4 v=87
56134 On ch=1 n=c#5 v=99
56146 On ch=1 n=b4 v=0
56228 On ch=1 n=c#5 v=0
56230 On ch=1 n=e5 v=76
56328 On ch=1 n=a5 v=76
56336 On ch=1 n=e5 v=0
56394 On ch=1 n=a5 v=0
56474 On ch=1 n=b4 v=78
56482 On ch=1 n=f#5 v=96
56490 Par ch=1 c=64 v=63
56502 Par ch=1 c=64 v=0
56504 On ch=1 n=d#5 v=88
56554 On ch=1 n=f#5 v=0
56562 On ch=1 n=g5 v=73
56564 On ch=1 n=d#5 v=0
56572 On ch=1 n=a4 v=71
56574 On ch=1 n=b4 v=0
56578 Par ch=1 c=64 v=63
56598 On ch=1 n=f#5 v=86
56600 Par ch=1 c=64 v=127
56628 On ch=1 n=d#5 v=46
56634 On ch=1 n=g5 v=0
56684 On ch=1 n=f#5 v=0
56704 On ch=1 n=a4 v=0
56710 On ch=1 n=c#5 v=88
56714 On ch=1 n=d#5 v=0
56716 On ch=1 n=e4 v=43
56786 On ch=1 n=f#5 v=75
56790 On ch=1 n=c#5 v=0
56794 On ch=1 n=d#5 v=65
56802 On ch=1 n=f#4 v=63
56806 On ch=1 n=e4 v=0
56888 On ch=1 n=a4 v=46
56920 On ch=1 n=f#4 v=0
56938 On ch=1 n=f#5 v=0
56942 On ch=1 n=d#5 v=0
57020 On ch=1 n=c#5 v=74
57024 On ch=1 n=a4 v=0
57096 On ch=1 n=c#5 v=0
57130 On ch=1 n=d#5 v=90
57136 On ch=1 n=f#5 v=85
57144 On ch=1 n=b4 v=76
57150 Par ch=1 c=64 v=63
57168 Par ch=1 c=64 v=0
57200 On ch=1 n=g5 v=73
57206 On ch=1 n=f#5 v=0
57208 On ch=1 n=d#5 v=0
57234 Par ch=1 c=64 v=63
57244 On ch=1 n=a4 v=62
57254 On ch=1 n=f#5 v=88
57256 Par ch=1 c=64 v=127
57258 On ch=1 n=b4 v=0
57290 On ch=1 n=d#5 v=78
57294 On ch=1 n=g5 v=0
57344 On ch=1 n=f#5 v=0
57364 On ch=1 n=c#5 v=73
57368 On ch=1 n=a4 v=0
57374 On ch=1 n=d#5 v=0
57378 On ch=1 n=e4 v=32
57436 On ch=1 n=f#4 v=60
57440 On ch=1 n=c#5 v=0
57446 On ch=1 n=f#5 v=78
57448 On ch=1 n=d#5 v=48
57466 On ch=1 n=e4 v=0
57538 On ch=1 n=a4 v=45
57568 On ch=1 n=f#4 v=0
57602 On ch=1 n=d#5 v=0
57604 On ch=1 n=f#5 v=0
57664 On ch=1 n=c#5 v=54
57678 On ch=1 n=a4 v=0
57744 On ch=1 n=c#5 v=0
57770 Par ch=1 c=64 v=63
57776 On ch=1 n=f#5 v=82
57784 Par ch=1 c=64 v=0
57786 On ch=1 n=d#5 v=81
57800 On ch=1 n=b4 v=72
57826 Par ch=1 c=64 v=63
57864 Par ch=1 c=64 v=127
57894 On ch=1 n=e5 v=78
57896 On ch=1 n=d#5 v=0
57934 On ch=1 n=f#5 v=0
57936 On ch=1 n=b4 v=0
57992 On ch=1 n=b4 v=66
57998 On ch=1 n=e5 v=0
58100 On ch=1 n=b4 v=0
58106 On ch=1 n=c#5 v=86
58196 On ch=1 n=e5 v=68
58208 On ch=1 n=c#5 v=0
58306 On ch=1 n=e5 v=0
58322 On ch=1 n=a5 v=57
58408 Par ch=1 c=64 v=63
58410 On ch=1 n=b4 v=71
58420 On ch=1 n=a5 v=0
58424 Par ch=1 c=64 v=0
58444 Par ch=1 c=64 v=63
58446 On ch=1 n=f#5 v=76
58448 On ch=1 n=d#5 v=65
58464 Par ch=1 c=64 v=63
58472 Par ch=1 c=64 v=127
58484 Par ch=1 c=64 v=127
58530 On ch=1 n=b4 v=0
58538 On ch=1 n=d#5 v=0
58540 On ch=1 n=e5 v=71
58560 On ch=1 n=f#5 v=0
58642 On ch=1 n=b4 v=72
58646 On ch=1 n=e5 v=0
58740 On ch=1 n=b4 v=0
58754 On ch=1 n=c#5 v=80
58844 On ch=1 n=c#5 v=0
58854 On ch=1 n=e5 v=71
58944 On ch=1 n=e5 v=0
58970 On ch=1 n=a5 v=59
59068 On ch=1 n=f#5 v=76
59090 On ch=1 n=a5 v=0
59098 On ch=1 n=d#5 v=54
59106 On ch=1 n=b4 v=47
59140 Par ch=1 c=64 v=63
59146 Par ch=1 c=64 v=0
59236 On ch=1 n=e5 v=63
59254 On ch=1 n=f#5 v=0
59308 Par ch=1 c=64 v=63
59314 Par ch=1 c=64 v=127
59334 On ch=1 n=f#5 v=74
59366 On ch=1 n=e5 v=0
59412 On ch=1 n=d#5 v=0
59448 On ch=1 n=d5 v=71
59450 On ch=1 n=f#5 v=0
59466 On ch=1 n=a#4 v=67
59488 On ch=1 n=b4 v=0
59556 On ch=1 n=e5 v=72
59658 On ch=1 n=f#5 v=98
59668 On ch=1 n=e5 v=0
59770 On ch=1 n=f#5 v=0
59778 On ch=1 n=c#6 v=97
59780 On ch=1 n=a4 v=59
59820 On ch=1 n=a#4 v=0
59838 Par ch=1 c=64 v=63
59860 Par ch=1 c=64 v=0
59878 On ch=1 n=c#6 v=0
59884 On ch=1 n=f#5 v=100
59930 Par ch=1 c=64 v=63
59958 Par ch=1 c=64 v=127
59972 On ch=1 n=c#6 v=88
59998 On ch=1 n=f#5 v=0
60094 On ch=1 n=g#4 v=72
60096 On ch=1 n=c#5 v=72
60110 On ch=1 n=b5 v=86
60120 On ch=1 n=c#6 v=0
60192 On ch=1 n=d5 v=0
60198 On ch=1 n=a4 v=0
60220 On ch=1 n=b5 v=0
60224 On ch=1 n=f5 v=81
60300 On ch=1 n=g#4 v=0
60330 On ch=1 n=b5 v=84
60346 On ch=1 n=f5 v=0
60420 On ch=1 n=b5 v=0
60428 On ch=1 n=c5 v=66
60440 On ch=1 n=g4 v=57
60440 On ch=1 n=e5 v=91
60456 Par ch=1 c=64 v=63
60472 On ch=1 n=c#5 v=0
60480 Par ch=1 c=64 v=0
60550 On ch=1 n=d5 v=94
60556 On ch=1 n=e5 v=0
60578 Par ch=1 c=64 v=63
60598 Par ch=1 c=64 v=127
60640 On ch=1 n=c5 v=0
60650 On ch=1 n=e5 v=91
60666 On ch=1 n=d5 v=0
60730 On ch=1 n=e5 v=0
60736 On ch=1 n=f#4 v=76
60742 On ch=1 n=c5 v=84
60778 On ch=1 n=g4 v=0
60846 On ch=1 n=d5 v=84
60870 Par ch=1 c=64 v=63
60944 On ch=1 n=e5 v=88
60954 On ch=1 n=d5 v=0
60970 Par ch=1 c=64 v=127
61056 On ch=1 n=a5 v=82
61056 On ch=1 n=b4 v=68
61060 On ch=1 n=e5 v=0
61068 On ch=1 n=f4 v=60
61086 On ch=1 n=c5 v=0
61108 On ch=1 n=f#4 v=0
61160 On ch=1 n=a5 v=0
61170 On ch=1 n=d#5 v=100
61188 Par ch=1 c=64 v=63
61216 On ch=1 n=f4 v=0
61266 On ch=1 n=d#5 v=0
61270 On ch=1 n=a5 v=76
61292 Par ch=1 c=64 v=127
61374 On ch=1 n=a#4 v=79
61382 On ch=1 n=g5 v=83
61394 On ch=1 n=e4 v=63
61408 On ch=1 n=a5 v=0
61426 On ch=1 n=b4 v=0
61450 Par ch=1 c=64 v=63
61478 Par ch=1 c=64 v=0
61486 On ch=1 n=d5 v=76
61492 On ch=1 n=g5 v=0
61584 On ch=1 n=g5 v=76
61600 On ch=1 n=d5 v=0
61688 On ch=1 n=g5 v=0
61702 On ch=1 n=c5 v=92
61720 On ch=1 n=a4 v=45
61730 On ch=1 n=e4 v=0
61740 On ch=1 n=f4 v=62
61792 On ch=1 n=a#4 v=0
61810 On ch=1 n=c5 v=0
61816 On ch=1 n=b4 v=84
61916 On ch=1 n=c5 v=92
61940 On ch=1 n=b4 v=0
61950 On ch=1 n=a4 v=0
62010 On ch=1 n=c5 v=0
62030 Par ch=1 c=64 v=63
62036 Par ch=1 c=64 v=127
62040 On ch=1 n=a4 v=68
62042 On ch=1 n=e4 v=80
62098 On ch=1 n=f4 v=0
62126 On ch=1 n=b4 v=75
62164 On ch=1 n=e4 v=0
62234 On ch=1 n=c5 v=84
62244 On ch=1 n=b4 v=0
62340 On ch=1 n=d5 v=87
62342 On ch=1 n=b3 v=63
62354 On ch=1 n=c5 v=0
62382 Par ch=1 c=64 v=63
62420 Par ch=1 c=64 v=0
62430 Par ch=1 c=64 v=63
62456 On ch=1 n=d5 v=0
62460 On ch=1 n=f5 v=80
62472 On ch=1 n=a4 v=0
62474 Par ch=1 c=64 v=127
62562 On ch=1 n=e5 v=76
62574 On ch=1 n=f5 v=0
62660 On ch=1 n=b3 v=0
62660 On ch=1 n=g#4 v=72
62668 On ch=1 n=d5 v=81
62670 On ch=1 n=e4 v=59
62680 On ch=1 n=e5 v=0
62688 Par ch=1 c=64 v=63
62764 Par ch=1 c=64 v=127
62770 On ch=1 n=e5 v=82
62786 On ch=1 n=d5 v=0
62850 On ch=1 n=g#4 v=0
62880 On ch=1 n=c5 v=86
62892 On ch=1 n=e5 v=0
62976 On ch=1 n=c5 v=0
62980 On ch=1 n=a3 v=43
62982 On ch=1 n=b4 v=84
63004 On ch=1 n=f#4 v=81
63022 Par ch=1 c=64 v=63
63040 Par ch=1 c=64 v=0
63042 On ch=1 n=e4 v=0
63068 On ch=1 n=b4 v=0
63080 On ch=1 n=c5 v=92
63112 Par ch=1 c=64 v=63
63132 Par ch=1 c=64 v=127
63200 On ch=1 n=c5 v=0
63202 On ch=1 n=a4 v=70
63250 On ch=1 n=f#4 v=0
63258 On ch=1 n=a3 v=0
63274 Par ch=1 c=64 v=63
63296 Par ch=1 c=64 v=0
63302 On ch=1 n=b4 v=84
63304 On ch=1 n=f4 v=70
63318 On ch=1 n=a4 v=0
63336 Par ch=1 c=64 v=63
63362 Par ch=1 c=64 v=127
63402 On ch=1 n=c5 v=83
63432 On ch=1 n=b4 v=0
63500 On ch=1 n=f4 v=0
63504 On ch=1 n=d5 v=89
63516 On ch=1 n=c5 v=0
63584 On ch=1 n=d5 v=0
63600 Par ch=1 c=64 v=63
63608 On ch=1 n=e4 v=54
63612 On ch=1 n=a4 v=61
63612 On ch=1 n=c5 v=71
63618 Par ch=1 c=64 v=0
63660 Par ch=1 c=64 v=63
63686 Par ch=1 c=64 v=127
63716 On ch=1 n=d5 v=91
63720 On ch=1 n=c5 v=0
63740 On ch=1 n=a4 v=0
63812 On ch=1 n=e5 v=85
63822 On ch=1 n=d5 v=0
63868 On ch=1 n=e5 v=0
63916 On ch=1 n=e4 v=0
63934 On ch=1 n=e5 v=63
63946 On ch=1 n=g5 v=71
64038 On ch=1 n=a5 v=79
64040 On ch=1 n=e5 v=0
64058 On ch=1 n=g5 v=0
64148 On ch=1 n=c6 v=90
64156 On ch=1 n=a5 v=0
64218 On ch=1 n=c6 v=0
64278 On ch=1 n=a5 v=75
64294 On ch=1 n=c6 v=88
64314 On ch=1 n=e6 v=96
64414 Par ch=1 c=64 v=63
64428 On ch=1 n=d6 v=100
64428 Par ch=1 c=64 v=0
64464 On ch=1 n=e6 v=0
64532 On ch=1 n=e6 v=106
64562 On ch=1 n=d6 v=0
64570 On ch=1 n=c6 v=0
64586 Par ch=1 c=64 v=63
64592 Par ch=1 c=64 v=127
64612 On ch=1 n=e6 v=0
64634 On ch=1 n=c6 v=96
64638 On ch=1 n=g#5 v=96
64698 On ch=1 n=a5 v=0
64726 On ch=1 n=d6 v=93
64828 On ch=1 n=e6 v=111
64874 On ch=1 n=d6 v=0
64944 On ch=1 n=g5 v=89
64954 On ch=1 n=b6 v=97
64984 On ch=1 n=e6 v=0
65002 On ch=1 n=g#5 v=0
65032 Par ch=1 c=64 v=63
65054 Par ch=1 c=64 v=0
65068 On ch=1 n=e6 v=108
65078 On ch=1 n=b6 v=0
65108 Par ch=1 c=64 v=63
65128 Par ch=1 c=64 v=127
65158 On ch=1 n=b6 v=97
65174 On ch=1 n=e6 v=0
65266 On ch=1 n=b5 v=84
65270 On ch=1 n=f#5 v=91
65284 On ch=1 n=a6 v=92
65302 On ch=1 n=b6 v=0
65308 On ch=1 n=c6 v=0
65330 On ch=1 n=g5 v=0
65406 On ch=1 n=a6 v=0
65414 On ch=1 n=d#6 v=101
65490 On ch=1 n=f#5 v=0
65498 On ch=1 n=a6 v=91
65508 On ch=1 n=d#6 v=0
65606 On ch=1 n=a6 v=0
65628 On ch=1 n=b5 v=0
65628 On ch=1 n=a#5 v=95
65634 On ch=1 n=f5 v=86
65636 On ch=1 n=d6 v=101
65756 Par ch=1 c=64 v=63
65758 On ch=1 n=c6 v=100
65772 Par ch=1 c=64 v=0
65774 On ch=1 n=d6 v=0
65850 On ch=1 n=d6 v=104
65864 Par ch=1 c=64 v=63
65880 Par ch=1 c=64 v=127
65884 On ch=1 n=f5 v=0
65886 On ch=1 n=c6 v=0
65890 On ch=1 n=a#5 v=0
65948 On ch=1 n=d6 v=0
65954 On ch=1 n=a#5 v=99
65960 On ch=1 n=e5 v=91
66062 On ch=1 n=c6 v=93
66130 Par ch=1 c=64 v=63
66156 On ch=1 n=d6 v=104
66180 Par ch=1 c=64 v=127
66186 On ch=1 n=e5 v=0
66190 On ch=1 n=c6 v=0
66272 On ch=1 n=g6 v=93
66278 On ch=1 n=a5 v=92
66284 On ch=1 n=d6 v=0
66292 On ch=1 n=d#5 v=94
66322 On ch=1 n=a#5 v=0
66390 On ch=1 n=c#6 v=108
66396 On ch=1 n=g6 v=0
66410 Par ch=1 c=64 v=63
66482 On ch=1 n=g6 v=88
66488 On ch=1 n=c#6 v=0
66490 Par ch=1 c=64 v=127
66540 On ch=1 n=d#5 v=0
66592 On ch=1 n=f6 v=90
66596 On ch=1 n=g#5 v=93
66608 On ch=1 n=d5 v=84
66636 On ch=1 n=g6 v=0
66648 On ch=1 n=a5 v=0
66700 Par ch=1 c=64 v=63
66710 On ch=1 n=c6 v=87
66716 On ch=1 n=f6 v=0
66766 Par ch=1 c=64 v=127
66810 On ch=1 n=f6 v=97
66834 On ch=1 n=c6 v=0
66908 On ch=1 n=f6 v=0
66914 On ch=1 n=d5 v=0
66918 On ch=1 n=d#5 v=84
66918 On ch=1 n=g5 v=79
66934 On ch=1 n=a#5 v=109
66954 On ch=1 n=g#5 v=0
67010 On ch=1 n=a#5 v=0
67046 On ch=1 n=a5 v=84
67074 Par ch=1 c=64 v=63
67094 Par ch=1 c=64 v=0
67128 On ch=1 n=g5 v=0
67134 On ch=1 n=a#5 v=103
67156 On ch=1 n=a5 v=0
67166 Par ch=1 c=64 v=63
67184 Par ch=1 c=64 v=127
67216 On ch=1 n=a#5 v=0
67238 On ch=1 n=d5 v=92
67254 On ch=1 n=g5 v=88
67298 On ch=1 n=d#5 v=0
67338 On ch=1 n=d5 v=0
67346 On ch=1 n=a5 v=85
67440 On ch=1 n=a#5 v=103
67454 On ch=1 n=a5 v=0
67558 On ch=1 n=a4 v=90
67560 On ch=1 n=c6 v=90
67576 On ch=1 n=a#5 v=0
67674 On ch=1 n=g5 v=0
67688 On ch=1 n=d#6 v=106
67700 On ch=1 n=c6 v=0
67806 On ch=1 n=d6 v=91
67818 On ch=1 n=d#6 v=0
67898 On ch=1 n=f#5 v=96
67902 On ch=1 n=c6 v=97
67916 On ch=1 n=d5 v=82
67924 On ch=1 n=d6 v=0
67930 On ch=1 n=a4 v=0
68006 On ch=1 n=d6 v=99
68030 On ch=1 n=c6 v=0
68112 On ch=1 n=a#5 v=110
68138 On ch=1 n=f#5 v=0
68146 On ch=1 n=d6 v=0
68224 On ch=1 n=a5 v=88
68232 On ch=1 n=f5 v=97
68234 On ch=1 n=a#5 v=0
68252 On ch=1 n=g4 v=78
68270 On ch=1 n=d5 v=0
68282 Par ch=1 c=64 v=63
68296 Par ch=1 c=64 v=0
68332 Par ch=1 c=64 v=63
68334 On ch=1 n=a5 v=0
68336 On ch=1 n=a#5 v=101
68358 Par ch=1 c=64 v=127
68450 On ch=1 n=g5 v=101
68470 On ch=1 n=a#5 v=0
68496 On ch=1 n=f5 v=0
68500 Par ch=1 c=67 v=127
68558 On ch=1 n=a5 v=90
68568 On ch=1 n=e5 v=94
68572 On ch=1 n=c5 v=91
68596 On ch=1 n=g4 v=0
68600 On ch=1 n=g5 v=0
68656 On ch=1 n=a#5 v=101
68700 On ch=1 n=a5 v=0
68742 Par ch=1 c=64 v=63
68756 On ch=1 n=c6 v=89
68756 Par ch=1 c=64 v=0
68782 On ch=1 n=a#5 v=0
68842 Par ch=1 c=64 v=63
68854 Par ch=1 c=64 v=127
68870 On ch=1 n=f4 v=92
68870 On ch=1 n=a5 v=93
68884 On ch=1 n=c6 v=0
68896 On ch=1 n=e5 v=0
68956 On ch=1 n=c5 v=0
68966 On ch=1 n=g5 v=94
69008 On ch=1 n=a5 v=0
69070 On ch=1 n=e5 v=91
69072 On ch=1 n=g5 v=0
69158 On ch=1 n=e5 v=0
69176 On ch=1 n=b4 v=81
69186 On ch=1 n=g4 v=67
69190 On ch=1 n=d5 v=85
69226 On ch=1 n=f4 v=0
69238 Par ch=1 c=64 v=63
69274 Par ch=1 c=64 v=127
69292 On ch=1 n=d5 v=0
69292 Par ch=1 c=67 v=0
69300 On ch=1 n=c5 v=87
69338 On ch=1 n=b4 v=0
69364 On ch=1 n=g4 v=0
69400 On ch=1 n=c5 v=0
69400 On ch=1 n=d5 v=89
69506 On ch=1 n=d5 v=0
69540 On ch=1 n=c4 v=76
69580 On ch=1 n=e5 v=82
69652 On ch=1 n=d5 v=81
69662 On ch=1 n=e5 v=0
69680 Par ch=1 c=64 v=63
69690 Par ch=1 c=64 v=0
69718 On ch=1 n=g4 v=63
69734 On ch=1 n=e5 v=84
69738 Par ch=1 c=64 v=63
69748 On ch=1 n=d5 v=0
69760 On ch=1 n=c4 v=0
69760 Par ch=1 c=64 v=127
69822 On ch=1 n=c5 v=76
69836 On ch=1 n=g4 v=0
69916 On ch=1 n=c5 v=0
69916 On ch=1 n=g4 v=71
70026 On ch=1 n=e5 v=0
70046 On ch=1 n=c5 v=90
70060 On ch=1 n=g4 v=0
70132 On ch=1 n=c5 v=0
70156 On ch=1 n=e5 v=81
70268 On ch=1 n=d5 v=78
70270 On ch=1 n=e5 v=0
70284 On ch=1 n=f#5 v=91
70330 Par ch=1 c=64 v=63
70344 Par ch=1 c=64 v=0
70360 On ch=1 n=c5 v=82
70380 On ch=1 n=d5 v=0
70388 Par ch=1 c=64 v=63
70414 Par ch=1 c=64 v=127
70442 On ch=1 n=c5 v=0
70450 On ch=1 n=f#5 v=0
70476 On ch=1 n=a5 v=88
70490 On ch=1 n=a4 v=69
70594 On ch=1 n=f#4 v=98
70616 On ch=1 n=a4 v=0
70694 On ch=1 n=d6 v=88
70716 On ch=1 n=e4 v=67
70718 On ch=1 n=f#4 v=0
70722 On ch=1 n=a5 v=0
70782 On ch=1 n=d6 v=0
70794 On ch=1 n=d4 v=83
70832 On ch=1 n=e4 v=0
70900 On ch=1 n=c4 v=89
70920 On ch=1 n=d4 v=0
70936 On ch=1 n=e5 v=93
70964 Par ch=1 c=64 v=63
70974 Par ch=1 c=64 v=0
70984 On ch=1 n=d5 v=80
71014 On ch=1 n=e5 v=0
71028 Par ch=1 c=64 v=63
71052 Par ch=1 c=64 v=127
71062 On ch=1 n=g4 v=73
71070 On ch=1 n=e5 v=88
71076 On ch=1 n=c4 v=0
71096 On ch=1 n=d5 v=0
71162 On ch=1 n=g4 v=0
71164 On ch=1 n=c5 v=77
71248 On ch=1 n=g4 v=79
71254 On ch=1 n=c5 v=0
71326 On ch=1 n=e5 v=0
71370 On ch=1 n=c5 v=100
71394 On ch=1 n=g4 v=0
71464 On ch=1 n=c5 v=0
71476 On ch=1 n=e5 v=90
71548 On ch=1 n=e5 v=0
71562 Par ch=1 c=64 v=63
71568 Par ch=1 c=64 v=0
71574 On ch=1 n=f#5 v=103
71596 On ch=1 n=b3 v=99
71632 On ch=1 n=e5 v=83
71654 On ch=1 n=f#5 v=0
71672 Par ch=1 c=64 v=63
71678 Par ch=1 c=64 v=127
71708 On ch=1 n=f#4 v=89
71708 On ch=1 n=f#5 v=92
71710 On ch=1 n=b3 v=0
71758 On ch=1 n=e5 v=0
71804 On ch=1 n=b4 v=70
71806 On ch=1 n=f#4 v=0
71892 On ch=1 n=f#4 v=99
71904 On ch=1 n=b4 v=0
71960 On ch=1 n=f#5 v=0
72008 On ch=1 n=b4 v=85
72040 On ch=1 n=f#4 v=0
72094 On ch=1 n=d5 v=93
72114 On ch=1 n=b4 v=0
72200 On ch=1 n=d5 v=0
72220 On ch=1 n=g4 v=98
72236 Par ch=1 c=64 v=63
72238 On ch=1 n=b5 v=107
72244 Par ch=1 c=64 v=0
72280 On ch=1 n=a5 v=79
72310 On ch=1 n=b5 v=0
72346 On ch=1 n=d5 v=87
72362 Par ch=1 c=64 v=63
72366 Par ch=1 c=64 v=127
72374 On ch=1 n=g4 v=0
72382 On ch=1 n=b5 v=107
72402 On ch=1 n=a5 v=0
72454 On ch=1 n=d5 v=0
72454 On ch=1 n=g5 v=69
72554 On ch=1 n=g5 v=0
72558 On ch=1 n=d5 v=99
72676 On ch=1 n=b5 v=0
72684 On ch=1 n=g5 v=94
72708 On ch=1 n=d5 v=0
72786 On ch=1 n=g5 v=0
72788 On ch=1 n=b5 v=94
72880 Par ch=1 c=64 v=63
72884 On ch=1 n=c#6 v=105
72890 Par ch=1 c=64 v=0
72902 On ch=1 n=a5 v=85
72912 On ch=1 n=b5 v=0
72930 Par ch=1 c=64 v=63
72954 Par ch=1 c=64 v=127
72984 On ch=1 n=g5 v=88
73024 On ch=1 n=a5 v=0
73050 On ch=1 n=g5 v=0
73054 On ch=1 n=c#6 v=0
73096 On ch=1 n=e6 v=108
73100 On ch=1 n=e5 v=82
73200 On ch=1 n=c#5 v=101
73202 On ch=1 n=e5 v=0
73298 On ch=1 n=c#5 v=0
73300 On ch=1 n=b4 v=71
73310 On ch=1 n=a6 v=107
73314 On ch=1 n=e6 v=0
73386 On ch=1 n=a6 v=0
73394 On ch=1 n=a4 v=81
73452 On ch=1 n=b4 v=0
73492 Par ch=1 c=64 v=63
73496 On ch=1 n=g4 v=91
73500 Par ch=1 c=64 v=0
73526 On ch=1 n=b5 v=113
73538 On ch=1 n=a4 v=0
73588 On ch=1 n=a5 v=71
73592 Par ch=1 c=64 v=63
73598 Par ch=1 c=64 v=127
73600 On ch=1 n=b5 v=0
73634 On ch=1 n=d5 v=93
73648 On ch=1 n=b5 v=75
73650 On ch=1 n=g4 v=0
73702 On ch=1 n=a5 v=0
73734 On ch=1 n=d5 v=0
73750 On ch=1 n=g5 v=76
73834 On ch=1 n=g5 v=0
73834 On ch=1 n=d5 v=89
73896 On ch=1 n=b5 v=0
73950 On ch=1 n=g5 v=89
73996 On ch=1 n=d5 v=0
74040 On ch=1 n=b5 v=89
74058 On ch=1 n=g5 v=0
74102 On ch=1 n=b5 v=0
74166 Par ch=1 c=64 v=63
74174 On ch=1 n=c#6 v=113
74178 Par ch=1 c=64 v=0
74188 On ch=1 n=f#4 v=100
74222 Par ch=1 c=64 v=63
74232 On ch=1 n=b5 v=73
74248 Par ch=1 c=64 v=127
74270 On ch=1 n=c#6 v=0
74278 On ch=1 n=c#5 v=88
74310 On ch=1 n=f#4 v=0
74332 On ch=1 n=c#6 v=108
74360 On ch=1 n=f#5 v=95
74370 On ch=1 n=b5 v=0
74384 On ch=1 n=c#5 v=0
74458 On ch=1 n=f#5 v=0
74470 On ch=1 n=c#5 v=86
74494 On ch=1 n=c#6 v=0
74566 On ch=1 n=f#5 v=100
74624 On ch=1 n=c#5 v=0
74658 On ch=1 n=a5 v=88
74716 On ch=1 n=f#5 v=0
74774 On ch=1 n=d5 v=101
74780 Par ch=1 c=64 v=63
74782 On ch=1 n=f#6 v=116
74790 Par ch=1 c=64 v=0
74792 On ch=1 n=a5 v=0
74856 Par ch=1 c=64 v=63
74856 On ch=1 n=e6 v=93
74874 Par ch=1 c=64 v=127
74882 On ch=1 n=f#6 v=0
74904 On ch=1 n=f#5 v=96
74952 On ch=1 n=f#6 v=103
74964 On ch=1 n=e6 v=0
75024 On ch=1 n=a5 v=91
75030 On ch=1 n=f#6 v=0
75126 On ch=1 n=b5 v=98
75218 On ch=1 n=d6 v=98
75240 On ch=1 n=b5 v=0
75240 On ch=1 n=a5 v=0
75258 On ch=1 n=f#5 v=0
75258 On ch=1 n=d5 v=0
75316 On ch=1 n=e6 v=99
75334 On ch=1 n=d6 v=0
75378 On ch=1 n=e6 v=0
75432 On ch=1 n=c5 v=121
75438 Par ch=1 c=64 v=63
75446 Par ch=1 c=64 v=0
75456 On ch=1 n=f#6 v=110
75512 Par ch=1 c=64 v=63
75530 Par ch=1 c=64 v=127
75536 On ch=1 n=e6 v=92
75540 On ch=1 n=f#6 v=0
75572 On ch=1 n=e5 v=84
75624 On ch=1 n=e6 v=0
75630 On ch=1 n=f#6 v=95
75666 On ch=1 n=f#6 v=0
75688 On ch=1 n=g5 v=89
75776 On ch=1 n=a5 v=96
75858 On ch=1 n=c6 v=93
75876 On ch=1 n=a5 v=0
75902 On ch=1 n=e5 v=0
75932 On ch=1 n=c5 v=0
75962 On ch=1 n=g5 v=0
75966 On ch=1 n=e6 v=65
75972 On ch=1 n=d6 v=84
75988 On ch=1 n=c6 v=0
76006 On ch=1 n=d6 v=0
76034 On ch=1 n=e6 v=0
76074 Par ch=1 c=64 v=63
76080 Par ch=1 c=64 v=0
76088 On ch=1 n=b4 v=122
76104 On ch=1 n=f#6 v=112
76156 Par ch=1 c=64 v=63
76168 Par ch=1 c=64 v=127
76188 On ch=1 n=e6 v=90
76192 On ch=1 n=f#6 v=0
76220 On ch=1 n=d5 v=91
76268 On ch=1 n=f#6 v=104
76282 On ch=1 n=e6 v=0
76332 On ch=1 n=f#6 v=0
76362 On ch=1 n=f#5 v=109
76406 On ch=1 n=b4 v=0
76434 On ch=1 n=a5 v=103
76516 On ch=1 n=f#5 v=0
76532 On ch=1 n=d5 v=0
76532 On ch=1 n=b5 v=88
76556 On ch=1 n=a5 v=0
76610 On ch=1 n=d6 v=97
76640 On ch=1 n=b5 v=0
76682 On ch=1 n=d6 v=0
76724 Par ch=1 c=64 v=63
76732 On ch=1 n=a4 v=121
76734 Par ch=1 c=64 v=0
76766 On ch=1 n=f#6 v=113
76792 Par ch=1 c=64 v=63
76806 Par ch=1 c=64 v=127
76858 On ch=1 n=f#6 v=0
76860 On ch=1 n=g6 v=94
76862 On ch=1 n=d5 v=93
76924 On ch=1 n=f#6 v=95
76958 On ch=1 n=g6 v=0
76990 On ch=1 n=f#6 v=0
77014 On ch=1 n=f#5 v=108
77100 On ch=1 n=a5 v=104
77134 On ch=1 n=f#5 v=0
77144 On ch=1 n=d5 v=0
77184 On ch=1 n=a4 v=0
77184 On ch=1 n=b5 v=97
77220 On ch=1 n=a5 v=0
77278 On ch=1 n=d6 v=103
77316 On ch=1 n=b5 v=0
77364 On ch=1 n=d6 v=0
77450 Par ch=1 c=64 v=63
77452 Par ch=1 c=64 v=0
77456 On ch=1 n=e4 v=124
77472 On ch=1 n=f#6 v=114
77560 On ch=1 n=a6 v=99
77564 Par ch=1 c=64 v=63
77568 Par ch=1 c=64 v=127
77570 On ch=1 n=f#6 v=0
77588 On ch=1 n=b4 v=98
77638 On ch=1 n=f#6 v=90
77672 On ch=1 n=a6 v=0
77706 On ch=1 n=f#6 v=0
77732 On ch=1 n=d5 v=100
77814 On ch=1 n=e4 v=0
77838 On ch=1 n=b4 v=0
77844 On ch=1 n=g5 v=101
77880 On ch=1 n=d5 v=0
77940 On ch=1 n=b5 v=102
77968 On ch=1 n=g5 v=0
78040 On ch=1 n=d6 v=85
78064 On ch=1 n=b5 v=0
78110 On ch=1 n=d6 v=0
78150 On ch=1 n=f#6 v=120
78228 On ch=1 n=f#6 v=0
78262 On ch=1 n=g6 v=80
78354 On ch=1 n=b6 v=101
78370 On ch=1 n=g6 v=0
78462 On ch=1 n=d7 v=104
78486 On ch=1 n=b6 v=0
78566 On ch=1 n=b6 v=104
78618 On ch=1 n=d7 v=0
78682 On ch=1 n=g6 v=100
78684 On ch=1 n=b6 v=0
78768 On ch=1 n=g6 v=0
78802 On ch=1 n=b5 v=113
78812 On ch=1 n=f#6 v=112
78906 On ch=1 n=f#6 v=0
78914 On ch=1 n=g6 v=102
78942 On ch=1 n=b5 v=0
79016 On ch=1 n=e6 v=97
79042 On ch=1 n=g6 v=0
79110 On ch=1 n=d6 v=83
79110 On ch=1 n=e5 v=107
79120 On ch=1 n=e6 v=0
79198 On ch=1 n=e5 v=0
79222 On ch=1 n=e6 v=93
79230 On ch=1 n=d6 v=0
79308 On ch=1 n=e6 v=0
79326 On ch=1 n=b5 v=96
79388 On ch=1 n=b5 v=0
79434 On ch=1 n=a4 v=87
79436 On ch=1 n=e5 v=87
79456 On ch=1 n=b5 v=72
79502 On ch=1 n=e5 v=0
79522 On ch=1 n=a4 v=0
79550 On ch=1 n=b5 v=0
79554 On ch=1 n=d6 v=76
79638 On ch=1 n=d6 v=0
79662 On ch=1 n=a5 v=58
79702 On ch=1 n=a5 v=0
79780 On ch=1 n=c5 v=82
79786 On ch=1 n=d4 v=81
79792 On ch=1 n=g5 v=81
79800 Par ch=1 c=64 v=63
79810 Par ch=1 c=64 v=0
79858 Par ch=1 c=64 v=63
79882 Par ch=1 c=64 v=127
79890 On ch=1 n=g5 v=0
79906 On ch=1 n=e5 v=81
79920 On ch=1 n=c5 v=0
79964 On ch=1 n=d4 v=0
79990 On ch=1 n=e5 v=0
80022 On ch=1 n=f#5 v=103
80154 On ch=1 n=a5 v=81
80164 On ch=1 n=b4 v=72
80168 On ch=1 n=g3 v=66
80170 On ch=1 n=f#5 v=0
80226 Par ch=1 c=64 v=63
80228 Par ch=1 c=64 v=127
80314 Par ch=1 c=67 v=127
80336 On ch=1 n=g5 v=76
80358 On ch=1 n=a5 v=0
80390 On ch=1 n=b4 v=0
80492 On ch=1 n=g5 v=0
80492 On ch=1 n=d5 v=80
80620 On ch=1 n=e5 v=78
80718 On ch=1 n=g5 v=78
80748 On ch=1 n=e5 v=0
80830 On ch=1 n=b5 v=80
80832 Par ch=1 c=64 v=63
80838 Par ch=1 c=64 v=0
80854 On ch=1 n=g5 v=0
80908 Par ch=1 c=64 v=63
80922 Par ch=1 c=64 v=127
80946 On ch=1 n=a5 v=77
80948 On ch=1 n=d5 v=0
80964 On ch=1 n=b5 v=0
81056 On ch=1 n=g5 v=72
81094 On ch=1 n=a5 v=0
81170 On ch=1 n=d5 v=71
81178 On ch=1 n=g3 v=0
81180 On ch=1 n=g5 v=0
81288 On ch=1 n=e5 v=77
81294 On ch=1 n=d5 v=0
81370 On ch=1 n=g5 v=79
81394 On ch=1 n=e5 v=0
81466 On ch=1 n=b5 v=74
81484 On ch=1 n=g5 v=0
81580 Par ch=1 c=64 v=63
81590 Par ch=1 c=64 v=0
81594 On ch=1 n=d5 v=85
81602 On ch=1 n=g4 v=71
81606 On ch=1 n=b5 v=0
81616 On ch=1 n=a5 v=62
81654 Par ch=1 c=64 v=63
81676 Par ch=1 c=64 v=127
81714 On ch=1 n=g5 v=64
81736 On ch=1 n=a5 v=0
81736 On ch=1 n=d5 v=0
81816 On ch=1 n=g5 v=0
81828 On ch=1 n=d5 v=39
81934 On ch=1 n=e5 v=62
81946 On ch=1 n=d5 v=0
82026 On ch=1 n=g5 v=71
82038 On ch=1 n=e5 v=0
82128 On ch=1 n=b5 v=54
82140 On ch=1 n=g5 v=0
82246 On ch=1 n=a5 v=55
82256 On ch=1 n=b5 v=0
82356 On ch=1 n=g4 v=0
82360 On ch=1 n=g5 v=63
82374 On ch=1 n=a5 v=0
82468 On ch=1 n=g5 v=0
82470 On ch=1 n=d5 v=71
82550 Par ch=1 c=67 v=127
82580 On ch=1 n=d5 v=0
82580 On ch=1 n=e5 v=65
82668 On ch=1 n=g5 v=70
82680 On ch=1 n=e5 v=0
82774 On ch=1 n=b5 v=60
82796 On ch=1 n=g5 v=0
82826 Par ch=1 c=64 v=63
82890 On ch=1 n=g4 v=71
82892 On ch=1 n=d5 v=81
82896 Par ch=1 c=64 v=127
82898 On ch=1 n=a5 v=66
82902 On ch=1 n=b5 v=0
82962 On ch=1 n=d5 v=0
82972 On ch=1 n=g4 v=0
82988 On ch=1 n=g5 v=60
83022 On ch=1 n=a5 v=0
83096 On ch=1 n=g5 v=0
83096 On ch=1 n=d5 v=64
83216 On ch=1 n=e5 v=58
83218 On ch=1 n=d5 v=0
83324 On ch=1 n=g5 v=64
83332 On ch=1 n=e5 v=0
83386 On ch=1 n=b5 v=69
83428 On ch=1 n=g5 v=0
83526 On ch=1 n=a5 v=77
83532 On ch=1 n=b5 v=0
83546 On ch=1 n=d5 v=70
83658 On ch=1 n=g5 v=65
83662 On ch=1 n=a5 v=0
83668 On ch=1 n=d5 v=0
83760 On ch=1 n=g5 v=0
83778 On ch=1 n=d5 v=71
83888 On ch=1 n=d5 v=0
83890 On ch=1 n=e5 v=61
84000 On ch=1 n=g5 v=50
84008 On ch=1 n=e5 v=0
84112 On ch=1 n=b5 v=57
84116 On ch=1 n=g5 v=0
84190 On ch=1 n=d5 v=85
84216 On ch=1 n=b5 v=0
84222 On ch=1 n=a5 v=62
84250 On ch=1 n=d5 v=0
84314 On ch=1 n=g5 v=55
84330 On ch=1 n=a5 v=0
84406 On ch=1 n=g5 v=0
84418 On ch=1 n=d5 v=63
84526 On ch=1 n=e5 v=68
84536 On ch=1 n=d5 v=0
84622 On ch=1 n=g5 v=70
84628 On ch=1 n=e5 v=0
84728 On ch=1 n=b5 v=44
84732 On ch=1 n=g5 v=0
84838 On ch=1 n=d5 v=84
84842 On ch=1 n=b5 v=0
84844 On ch=1 n=a5 v=50
84910 On ch=1 n=d5 v=0
84936 On ch=1 n=g5 v=55
84954 On ch=1 n=a5 v=0
85034 On ch=1 n=g5 v=0
85046 On ch=1 n=d5 v=64
85160 On ch=1 n=d5 v=0
85162 On ch=1 n=e5 v=60
85264 On ch=1 n=e5 v=0
85264 On ch=1 n=g5 v=62
85378 On ch=1 n=b5 v=54
85388 On ch=1 n=g5 v=0
85420 On ch=1 n=c4 v=75
85456 On ch=1 n=g4 v=40
85474 Par ch=1 c=64 v=63
85484 Par ch=1 c=64 v=0
85496 On ch=1 n=d5 v=77
85518 On ch=1 n=b5 v=0
85520 Par ch=1 c=64 v=63
85544 Par ch=1 c=64 v=127
85554 On ch=1 n=a5 v=57
85628 On ch=1 n=d5 v=0
85658 On ch=1 n=g5 v=60
85682 On ch=1 n=a5 v=0
85760 On ch=1 n=g5 v=0
85766 On ch=1 n=d5 v=63
85870 On ch=1 n=e5 v=76
85888 On ch=1 n=d5 v=0
85898 On ch=1 n=c4 v=0
85946 On ch=1 n=g4 v=0
85954 On ch=1 n=g5 v=76
85970 On ch=1 n=e5 v=0
86050 On ch=1 n=b5 v=64
86068 On ch=1 n=g5 v=0
86148 On ch=1 n=d5 v=76
86176 On ch=1 n=b5 v=0
86178 On ch=1 n=a5 v=77
86212 On ch=1 n=d5 v=0
86274 On ch=1 n=g5 v=74
86320 On ch=1 n=a5 v=0
86360 On ch=1 n=d5 v=77
86382 On ch=1 n=g5 v=0
86478 On ch=1 n=e5 v=89
86518 On ch=1 n=d5 v=0
86566 On ch=1 n=g5 v=79
86606 On ch=1 n=e5 v=0
86652 On ch=1 n=b5 v=75
86694 On ch=1 n=g5 v=0
86740 On ch=1 n=b5 v=0
86788 On ch=1 n=f3 v=95
86798 On ch=1 n=a5 v=73
86814 On ch=1 n=d5 v=68
86844 Par ch=1 c=64 v=63
86848 Par ch=1 c=64 v=127
86858 On ch=1 n=a5 v=0
86858 On ch=1 n=b5 v=79
86912 On ch=1 n=a5 v=83
86942 On ch=1 n=c4 v=68
86948 On ch=1 n=b5 v=0
86952 Par ch=1 c=64 v=63
86958 Par ch=1 c=64 v=0
86998 On ch=1 n=f3 v=0
87008 On ch=1 n=g5 v=82
87010 Par ch=1 c=64 v=63
87020 Par ch=1 c=64 v=127
87022 On ch=1 n=a5 v=0
87064 On ch=1 n=g4 v=65
87070 On ch=1 n=c4 v=0
87082 On ch=1 n=a5 v=76
87106 On ch=1 n=d5 v=0
87114 On ch=1 n=g5 v=0
87152 On ch=1 n=g4 v=0
87172 On ch=1 n=a4 v=78
87228 On ch=1 n=a5 v=0
87260 On ch=1 n=c5 v=81
87264 On ch=1 n=a4 v=0
87326 On ch=1 n=c5 v=0
87346 On ch=1 n=e5 v=85
87410 On ch=1 n=e5 v=0
87486 On ch=1 n=a5 v=76
87496 On ch=1 n=f3 v=93
87504 On ch=1 n=d5 v=67
87544 Par ch=1 c=64 v=63
87550 Par ch=1 c=64 v=0
87564 On ch=1 n=a5 v=0
87568 On ch=1 n=b5 v=68
87594 On ch=1 n=d5 v=0
87594 On ch=1 n=a5 v=63
87600 Par ch=1 c=64 v=63
87618 Par ch=1 c=64 v=127
87624 On ch=1 n=c4 v=78
87638 On ch=1 n=f3 v=0
87646 On ch=1 n=b5 v=0
87694 On ch=1 n=g5 v=77
87702 On ch=1 n=a5 v=0
87714 On ch=1 n=c4 v=0
87724 On ch=1 n=g4 v=51
87778 On ch=1 n=g5 v=0
87778 On ch=1 n=a5 v=69
87812 On ch=1 n=g4 v=0
87824 On ch=1 n=a4 v=70
87868 On ch=1 n=a5 v=0
87934 On ch=1 n=c5 v=62
87944 On ch=1 n=a4 v=0
88022 On ch=1 n=c5 v=0
88024 On ch=1 n=e5 v=72
88098 On ch=1 n=e5 v=0
88164 On ch=1 n=c4 v=32
88180 On ch=1 n=b3 v=29
88212 On ch=1 n=b3 v=0
88216 Par ch=1 c=64 v=63
88226 Par ch=1 c=64 v=0
88236 On ch=1 n=g4 v=56
88268 Par ch=1 c=64 v=63
88284 Par ch=1 c=64 v=127
88294 On ch=1 n=a5 v=76
88308 On ch=1 n=d5 v=86
88396 On ch=1 n=c4 v=0
88426 On ch=1 n=g5 v=60
88428 On ch=1 n=a5 v=0
88438 On ch=1 n=d5 v=0
88516 On ch=1 n=g4 v=0
88534 On ch=1 n=g5 v=0
88538 On ch=1 n=d5 v=75
88634 On ch=1 n=e5 v=81
88636 On ch=1 n=d5 v=0
88720 On ch=1 n=g5 v=89
88738 On ch=1 n=e5 v=0
88802 On ch=1 n=b5 v=93
88824 On ch=1 n=g5 v=0
88922 On ch=1 n=d5 v=97
88934 On ch=1 n=a5 v=91
88938 On ch=1 n=b5 v=0
88974 On ch=1 n=d5 v=0
89034 On ch=1 n=g5 v=79
89056 On ch=1 n=a5 v=0
89136 On ch=1 n=d5 v=79
89138 On ch=1 n=g5 v=0
89244 On ch=1 n=e5 v=89
89258 On ch=1 n=d5 v=0
89330 On ch=1 n=g5 v=84
89362 On ch=1 n=e5 v=0
89420 On ch=1 n=b5 v=90
89432 On ch=1 n=g5 v=0
89498 On ch=1 n=b5 v=0
89550 Par ch=1 c=64 v=63
89560 Par ch=1 c=64 v=0
89570 On ch=1 n=f3 v=101
89600 On ch=1 n=a5 v=89
89602 Par ch=1 c=64 v=63
89616 On ch=1 n=d5 v=87
89634 Par ch=1 c=64 v=127
89656 On ch=1 n=b5 v=81
89662 On ch=1 n=a5 v=0
89684 On ch=1 n=c4 v=79
89690 On ch=1 n=d5 v=0
89692 On ch=1 n=f3 v=0
89706 On ch=1 n=a5 v=84
89760 On ch=1 n=b5 v=0
89776 On ch=1 n=c4 v=0
89796 On ch=1 n=g4 v=31
89808 On ch=1 n=g5 v=75
89816 On ch=1 n=a5 v=0
89852 On ch=1 n=g4 v=0
89880 On ch=1 n=a4 v=79
89894 On ch=1 n=a5 v=74
89906 On ch=1 n=g5 v=0
89986 On ch=1 n=a4 v=0
90002 On ch=1 n=c5 v=62
90004 On ch=1 n=a5 v=0
90086 On ch=1 n=c5 v=0
90098 On ch=1 n=e5 v=71
90132 On ch=1 n=e5 v=0
90252 On ch=1 n=f3 v=97
90252 Par ch=1 c=64 v=63
90254 On ch=1 n=a5 v=87
90262 Par ch=1 c=64 v=0
90266 On ch=1 n=d5 v=78
90306 Par ch=1 c=64 v=63
90322 On ch=1 n=b5 v=77
90326 On ch=1 n=a5 v=0
90326 Par ch=1 c=64 v=127
90344 On ch=1 n=d5 v=0
90370 On ch=1 n=f3 v=0
90372 On ch=1 n=c4 v=71
90380 On ch=1 n=a5 v=79
90412 On ch=1 n=b5 v=0
90464 On ch=1 n=c4 v=0
90468 On ch=1 n=g5 v=71
90472 On ch=1 n=a5 v=0
90502 On ch=1 n=g4 v=32
90536 On ch=1 n=a5 v=74
90556 On ch=1 n=g4 v=0
90556 On ch=1 n=g5 v=0
90582 On ch=1 n=a4 v=74
90616 On ch=1 n=a5 v=0
90710 On ch=1 n=a4 v=0
90712 On ch=1 n=c5 v=59
90814 On ch=1 n=c5 v=0
90830 On ch=1 n=e5 v=49
90876 On ch=1 n=e6 v=94
90878 Par ch=1 c=64 v=63
90888 Par ch=1 c=64 v=0
90916 On ch=1 n=e5 v=0
90938 On ch=1 n=d6 v=86
90952 On ch=1 n=e6 v=0
90990 Par ch=1 c=64 v=63
90996 Par ch=1 c=64 v=127
91006 On ch=1 n=e6 v=85
91028 On ch=1 n=d6 v=0
91132 On ch=1 n=a5 v=87
91142 On ch=1 n=e6 v=0
91210 On ch=1 n=a5 v=0
91272 On ch=1 n=d5 v=63
91326 On ch=1 n=d5 v=0
91410 On ch=1 n=e5 v=51
91500 On ch=1 n=e5 v=0
91526 On ch=1 n=c5 v=42
91596 On ch=1 n=c5 v=0
91602 On ch=1 n=a4 v=54
91704 On ch=1 n=f4 v=76
91718 On ch=1 n=a4 v=0
91736 On ch=1 n=d6 v=74
91780 Par ch=1 c=64 v=63
91822 Par ch=1 c=64 v=127
91842 On ch=1 n=g4 v=65
91890 On ch=1 n=f4 v=0
91922 On ch=1 n=d6 v=0
91950 On ch=1 n=g6 v=97
91960 On ch=1 n=b4 v=63
92004 On ch=1 n=g4 v=0
92056 On ch=1 n=b4 v=0
92058 On ch=1 n=d5 v=76
92144 On ch=1 n=d5 v=0
92168 On ch=1 n=b6 v=96
92170 On ch=1 n=e5 v=78
92182 On ch=1 n=g6 v=0
92224 On ch=1 n=b6 v=0
92254 On ch=1 n=e5 v=0
92276 On ch=1 n=g5 v=81
92342 On ch=1 n=g5 v=0
92360 On ch=1 n=e6 v=100
92384 Par ch=1 c=64 v=63
92392 Par ch=1 c=64 v=0
92418 On ch=1 n=d6 v=89
92422 Par ch=1 c=64 v=63
92438 Par ch=1 c=64 v=127
92440 On ch=1 n=e6 v=0
92488 On ch=1 n=e6 v=86
92508 On ch=1 n=d6 v=0
92592 On ch=1 n=e6 v=0
92610 On ch=1 n=a5 v=52
92656 On ch=1 n=a5 v=0
92720 On ch=1 n=d5 v=80
92794 On ch=1 n=d5 v=0
92846 On ch=1 n=e5 v=83
92940 On ch=1 n=e5 v=0
92944 On ch=1 n=c5 v=50
93020 On ch=1 n=a4 v=63
93022 On ch=1 n=c5 v=0
93138 On ch=1 n=f4 v=64
93140 On ch=1 n=a4 v=0
93146 On ch=1 n=d6 v=83
93180 Par ch=1 c=64 v=63
93196 Par ch=1 c=64 v=0
93204 Par ch=1 c=64 v=63
93230 Par ch=1 c=64 v=127
93264 On ch=1 n=g4 v=67
93336 On ch=1 n=f4 v=0
93360 On ch=1 n=d6 v=0
93368 On ch=1 n=g6 v=94
93372 On ch=1 n=b4 v=69
93418 On ch=1 n=g4 v=0
93470 On ch=1 n=b4 v=0
93474 On ch=1 n=d5 v=77
93552 On ch=1 n=d5 v=0
93562 On ch=1 n=b6 v=88
93578 On ch=1 n=g6 v=0
93582 On ch=1 n=e5 v=79
93620 On ch=1 n=b6 v=0
93674 On ch=1 n=e5 v=0
93682 On ch=1 n=g5 v=79
93732 Par ch=1 c=64 v=63
93740 Par ch=1 c=64 v=0
93750 On ch=1 n=g5 v=0
93756 On ch=1 n=e6 v=99
93784 Par ch=1 c=64 v=63
93800 Par ch=1 c=64 v=127
93812 On ch=1 n=d6 v=90
93830 On ch=1 n=e6 v=0
93880 On ch=1 n=e6 v=86
93908 On ch=1 n=d6 v=0
93976 On ch=1 n=e6 v=0
93988 On ch=1 n=a5 v=94
94052 On ch=1 n=a5 v=0
94102 On ch=1 n=d5 v=83
94170 On ch=1 n=d5 v=0
94208 On ch=1 n=e5 v=71
94318 On ch=1 n=e5 v=0
94332 On ch=1 n=c5 v=51
94402 On ch=1 n=a4 v=62
94408 On ch=1 n=c5 v=0
94502 On ch=1 n=f4 v=75
94516 On ch=1 n=a4 v=0
94516 On ch=1 n=d6 v=96
94518 Par ch=1 c=64 v=63
94526 Par ch=1 c=64 v=0
94562 Par ch=1 c=64 v=63
94570 On ch=1 n=c6 v=84
94578 Par ch=1 c=64 v=127
94580 On ch=1 n=d6 v=0
94628 On ch=1 n=g4 v=55
94632 On ch=1 n=d6 v=91
94654 On ch=1 n=c6 v=0
94680 On ch=1 n=f4 v=0
94766 On ch=1 n=b4 v=63
94804 On ch=1 n=g4 v=0
94852 On ch=1 n=b4 v=0
94862 On ch=1 n=d5 v=75
94940 On ch=1 n=d6 v=0
94958 On ch=1 n=d5 v=0
94974 On ch=1 n=e5 v=72
95088 On ch=1 n=g5 v=75
95090 On ch=1 n=e5 v=0
95170 On ch=1 n=g5 v=0
95182 Par ch=1 c=64 v=63
95190 Par ch=1 c=64 v=0
95218 On ch=1 n=d6 v=102
95232 Par ch=1 c=64 v=63
95248 Par ch=1 c=64 v=127
95278 On ch=1 n=c6 v=93
95296 On ch=1 n=d6 v=0
95348 On ch=1 n=d6 v=79
95364 On ch=1 n=c6 v=0
95434 On ch=1 n=g5 v=75
95440 On ch=1 n=d6 v=0
95492 On ch=1 n=g5 v=0
95556 On ch=1 n=c5 v=55
95596 On ch=1 n=c5 v=0
95640 On ch=1 n=d5 v=71
95718 On ch=1 n=a#4 v=70
95740 On ch=1 n=d5 v=0
95826 On ch=1 n=a#4 v=0
95842 On ch=1 n=g4 v=16
95890 On ch=1 n=g4 v=0
95922 On ch=1 n=d#4 v=75
95956 On ch=1 n=c6 v=81
95986 Par ch=1 c=64 v=63
95994 Par ch=1 c=64 v=0
96022 Par ch=1 c=64 v=63
96042 Par ch=1 c=64 v=127
96058 On ch=1 n=d#4 v=0
96068 On ch=1 n=f4 v=84
96152 On ch=1 n=c6 v=0
96164 On ch=1 n=f6 v=100
96174 On ch=1 n=a4 v=71
96204 On ch=1 n=f4 v=0
96268 On ch=1 n=a4 v=0
96268 On ch=1 n=c5 v=80
96340 On ch=1 n=c5 v=0
96372 On ch=1 n=a6 v=98
96380 On ch=1 n=d5 v=86
96394 On ch=1 n=f6 v=0
96426 On ch=1 n=a6 v=0
96486 On ch=1 n=d5 v=0
96488 On ch=1 n=f5 v=77
96560 On ch=1 n=f5 v=0
96572 Par ch=1 c=64 v=63
96574 On ch=1 n=d6 v=97
96584 Par ch=1 c=64 v=0
96618 Par ch=1 c=64 v=63
96622 On ch=1 n=c6 v=91
96632 Par ch=1 c=64 v=127
96652 On ch=1 n=d6 v=0
96696 On ch=1 n=d6 v=88
96722 On ch=1 n=c6 v=0
96802 On ch=1 n=g5 v=80
96810 On ch=1 n=d6 v=0
96880 On ch=1 n=g5 v=0
96926 On ch=1 n=c5 v=60
96982 On ch=1 n=c5 v=0
97022 On ch=1 n=d5 v=75
97114 On ch=1 n=a#4 v=77
97128 On ch=1 n=d5 v=0
97222 On ch=1 n=a#4 v=0
97236 On ch=1 n=g4 v=41
97340 On ch=1 n=d#4 v=76
97348 On ch=1 n=c6 v=81
97362 On ch=1 n=g4 v=0
97382 Par ch=1 c=64 v=63
97390 Par ch=1 c=64 v=0
97420 Par ch=1 c=64 v=63
97442 Par ch=1 c=64 v=127
97474 On ch=1 n=f4 v=63
97510 On ch=1 n=d#4 v=0
97548 On ch=1 n=c6 v=0
97566 On ch=1 n=f6 v=91
97596 On ch=1 n=a4 v=60
97634 On ch=1 n=f4 v=0
97680 On ch=1 n=c5 v=84
97684 On ch=1 n=a4 v=0
97760 On ch=1 n=c5 v=0
97772 On ch=1 n=a6 v=86
97786 On ch=1 n=f6 v=0
97798 On ch=1 n=d5 v=78
97816 On ch=1 n=a6 v=0
97898 On ch=1 n=d5 v=0
97904 On ch=1 n=f5 v=53
97944 Par ch=1 c=64 v=63
97952 Par ch=1 c=64 v=0
97956 On ch=1 n=f5 v=0
97972 On ch=1 n=d6 v=98
97992 Par ch=1 c=64 v=63
98008 Par ch=1 c=64 v=127
98028 On ch=1 n=c6 v=92
98058 On ch=1 n=d6 v=0
98094 On ch=1 n=d6 v=65
98122 On ch=1 n=c6 v=0
98180 On ch=1 n=g5 v=90
98182 On ch=1 n=d6 v=0
98248 On ch=1 n=g5 v=0
98294 On ch=1 n=c5 v=87
98364 On ch=1 n=c5 v=0
98382 On ch=1 n=d5 v=71
98474 On ch=1 n=a#4 v=78
98496 On ch=1 n=d5 v=0
98572 On ch=1 n=a#4 v=0
98574 On ch=1 n=g4 v=55
98680 On ch=1 n=d#4 v=82
98692 Par ch=1 c=64 v=63
98700 Par ch=1 c=64 v=0
98708 On ch=1 n=g4 v=0
98708 On ch=1 n=c6 v=93
98746 Par ch=1 c=64 v=63
98766 Par ch=1 c=64 v=127
98768 On ch=1 n=a#5 v=99
98782 On ch=1 n=c6 v=0
98812 On ch=1 n=d#4 v=0
98814 On ch=1 n=f4 v=51
98846 On ch=1 n=c6 v=86
98856 On ch=1 n=a#5 v=0
98934 On ch=1 n=a4 v=63
98970 On ch=1 n=f4 v=0
99030 On ch=1 n=a4 v=0
99034 On ch=1 n=c5 v=75
99072 On ch=1 n=c6 v=0
99114 On ch=1 n=c5 v=0
99142 On ch=1 n=d5 v=81
99248 On ch=1 n=f5 v=76
99258 On ch=1 n=d5 v=0
99322 On ch=1 n=f5 v=0
99322 On ch=1 n=a5 v=91
99376 Par ch=1 c=64 v=63
99384 On ch=1 n=g5 v=83
99386 Par ch=1 c=64 v=0
99396 On ch=1 n=a5 v=0
99432 Par ch=1 c=64 v=63
99444 On ch=1 n=a5 v=85
99450 Par ch=1 c=64 v=127
99466 On ch=1 n=g5 v=0
99572 On ch=1 n=f#5 v=83
99702 On ch=1 n=d5 v=60
99800 On ch=1 n=a5 v=0
99810 On ch=1 n=b4 v=75
99812 On ch=1 n=d5 v=0
99832 On ch=1 n=f#5 v=0
99922 On ch=1 n=b4 v=0
99934 On ch=1 n=a4 v=50
100018 On ch=1 n=f#4 v=80
100060 On ch=1 n=a4 v=0
100096 On ch=1 n=f#4 v=0
100158 On ch=1 n=e4 v=66
100262 On ch=1 n=e4 v=0
100264 On ch=1 n=d4 v=67
100370 On ch=1 n=a3 v=63
100392 On ch=1 n=d4 v=0
100428 On ch=1 n=b3 v=66
100442 On ch=1 n=a3 v=0
100562 On ch=1 n=d4 v=72
100690 On ch=1 n=f#4 v=77
100806 On ch=1 n=a4 v=68
100812 Par ch=1 c=64 v=63
100822 Par ch=1 c=64 v=0
100862 On ch=1 n=e5 v=83
100932 On ch=1 n=b3 v=0
100934 Par ch=1 c=64 v=63
100950 Par ch=1 c=64 v=127
100966 On ch=1 n=a4 v=0
100972 On ch=1 n=d5 v=86
100984 On ch=1 n=e5 v=0
101008 On ch=1 n=d4 v=0
101036 On ch=1 n=f#4 v=0
101064 On ch=1 n=d5 v=0
101064 On ch=1 n=a4 v=69
101164 On ch=1 n=b4 v=85
101170 On ch=1 n=a4 v=0
101258 On ch=1 n=b4 v=0
101260 On ch=1 n=d5 v=84
101348 On ch=1 n=f#5 v=91
101350 On ch=1 n=d5 v=0
101474 On ch=1 n=f#5 v=0
101474 On ch=1 n=e5 v=78
101486 Par ch=1 c=64 v=63
101538 Par ch=1 c=64 v=0
101572 On ch=1 n=d5 v=85
101602 On ch=1 n=e5 v=0
101668 On ch=1 n=a4 v=65
101676 On ch=1 n=d5 v=0
101706 Par ch=1 c=64 v=63
101740 Par ch=1 c=64 v=127
101764 On ch=1 n=b4 v=78
101772 On ch=1 n=a4 v=0
101858 On ch=1 n=b4 v=0
101868 On ch=1 n=d5 v=69
101958 On ch=1 n=d5 v=0
101966 On ch=1 n=f#5 v=72
101990 Par ch=1 c=67 v=127
102090 On ch=1 n=f#5 v=0
102094 On ch=1 n=a4 v=44
102112 On ch=1 n=e5 v=60
102198 On ch=1 n=d5 v=76
102206 On ch=1 n=a4 v=0
102212 On ch=1 n=e5 v=0
102296 On ch=1 n=d5 v=0
102300 On ch=1 n=a4 v=61
102406 On ch=1 n=a4 v=0
102410 On ch=1 n=b4 v=54
102488 On ch=1 n=b4 v=0
102492 On ch=1 n=d5 v=75
102582 On ch=1 n=d5 v=0
102596 On ch=1 n=f#5 v=74
102676 On ch=1 n=a4 v=46
102686 Par ch=1 c=64 v=63
102698 On ch=1 n=e5 v=63
102706 On ch=1 n=f#5 v=0
102706 Par ch=1 c=64 v=127
102784 On ch=1 n=d5 v=79
102804 On ch=1 n=e5 v=0
102832 On ch=1 n=a4 v=0
102888 On ch=1 n=a4 v=63
102902 On ch=1 n=d5 v=0
103008 On ch=1 n=a4 v=0
103008 On ch=1 n=b4 v=67
103100 On ch=1 n=d5 v=74
103104 On ch=1 n=b4 v=0
103194 On ch=1 n=d5 v=0
103220 On ch=1 n=f#5 v=69
103316 On ch=1 n=f#5 v=0
103402 On ch=1 n=g3 v=75
103424 Par ch=1 c=64 v=63
103430 On ch=1 n=e5 v=74
103436 Par ch=1 c=64 v=0
103452 On ch=1 n=a4 v=48
103476 Par ch=1 c=64 v=63
103506 On ch=1 n=f#5 v=89
103510 On ch=1 n=e5 v=0
103510 Par ch=1 c=64 v=127
103542 On ch=1 n=g3 v=0
103562 On ch=1 n=g4 v=60
103564 On ch=1 n=a4 v=0
103576 On ch=1 n=e5 v=68
103582 On ch=1 n=f#5 v=0
103638 On ch=1 n=g4 v=0
103648 On ch=1 n=d5 v=93
103664 On ch=1 n=d4 v=80
103670 On ch=1 n=e5 v=0
103720 On ch=1 n=e5 v=86
103732 On ch=1 n=d5 v=0
103752 On ch=1 n=e4 v=69
103762 On ch=1 n=d4 v=0
103772 On ch=1 n=e5 v=0
103820 On ch=1 n=g4 v=82
103834 On ch=1 n=e4 v=0
103898 On ch=1 n=b4 v=87
103908 On ch=1 n=g4 v=0
103974 On ch=1 n=b4 v=0
104008 Par ch=1 c=64 v=63
104016 On ch=1 n=g3 v=104
104018 Par ch=1 c=64 v=0
104038 On ch=1 n=e5 v=88
104048 On ch=1 n=a4 v=76
104090 On ch=1 n=f#5 v=96
104100 On ch=1 n=e5 v=0
104100 Par ch=1 c=64 v=63
104112 On ch=1 n=g3 v=0
104124 On ch=1 n=a4 v=0
104126 Par ch=1 c=64 v=127
104156 On ch=1 n=g4 v=50
104168 On ch=1 n=f#5 v=0
104168 On ch=1 n=e5 v=85
104220 On ch=1 n=g4 v=0
104248 On ch=1 n=d4 v=81
104248 On ch=1 n=d5 v=101
104272 On ch=1 n=e5 v=0
104318 On ch=1 n=e5 v=87
104336 On ch=1 n=d5 v=0
104340 On ch=1 n=e4 v=71
104362 On ch=1 n=d4 v=0
104376 On ch=1 n=e5 v=0
104426 On ch=1 n=g4 v=76
104436 On ch=1 n=e4 v=0
104514 On ch=1 n=b4 v=77
104518 On ch=1 n=g4 v=0
104578 Par ch=1 c=64 v=63
104592 Par ch=1 c=64 v=0
104614 On ch=1 n=b4 v=0
104652 On ch=1 n=a4 v=68
104664 On ch=1 n=d4 v=62
104680 On ch=1 n=e5 v=89
104758 On ch=1 n=a4 v=0
104770 Par ch=1 c=64 v=63
104776 On ch=1 n=d5 v=84
104784 Par ch=1 c=64 v=127
104786 On ch=1 n=e5 v=0
104870 On ch=1 n=d5 v=0
104874 On ch=1 n=a4 v=68
104974 On ch=1 n=a4 v=0
104976 On ch=1 n=b4 v=76
105060 On ch=1 n=b4 v=0
105066 On ch=1 n=d5 v=72
105168 On ch=1 n=d5 v=0
105174 On ch=1 n=f#5 v=77
105254 Par ch=1 c=64 v=63
105266 Par ch=1 c=64 v=0
105278 On ch=1 n=f#5 v=0
105280 On ch=1 n=a4 v=63
105302 On ch=1 n=e5 v=78
105366 Par ch=1 c=64 v=63
105388 Par ch=1 c=64 v=127
105396 On ch=1 n=d5 v=77
105412 On ch=1 n=e5 v=0
105450 On ch=1 n=a4 v=0
105494 On ch=1 n=d5 v=0
105500 On ch=1 n=a4 v=74
105538 On ch=1 n=d4 v=0
105610 On ch=1 n=b4 v=72
105616 On ch=1 n=a4 v=0
105696 On ch=1 n=b4 v=0
105698 On ch=1 n=d5 v=77
105782 On ch=1 n=d5 v=0
105818 On ch=1 n=f#5 v=70
105890 On ch=1 n=f#5 v=0
105954 Par ch=1 c=64 v=63
105966 Par ch=1 c=64 v=0
105972 On ch=1 n=c3 v=89
105996 On ch=1 n=e5 v=75
106028 Par ch=1 c=64 v=63
106028 On ch=1 n=a4 v=61
106058 Par ch=1 c=64 v=127
106066 On ch=1 n=e5 v=0
106066 On ch=1 n=f#5 v=91
106090 On ch=1 n=g3 v=78
106118 On ch=1 n=c3 v=0
106122 On ch=1 n=e5 v=72
106134 On ch=1 n=f#5 v=0
106174 On ch=1 n=a4 v=0
106184 On ch=1 n=g3 v=0
106188 On ch=1 n=d4 v=66
106210 On ch=1 n=d5 v=93
106240 On ch=1 n=e5 v=0
106262 On ch=1 n=d4 v=0
106300 On ch=1 n=e5 v=79
106302 On ch=1 n=e4 v=86
106314 On ch=1 n=d5 v=0
106360 On ch=1 n=e5 v=0
106398 On ch=1 n=g4 v=72
106404 On ch=1 n=e4 v=0
106484 On ch=1 n=b4 v=86
106490 On ch=1 n=g4 v=0
106556 On ch=1 n=b4 v=0
106630 Par ch=1 c=64 v=63
106640 Par ch=1 c=64 v=0
106648 On ch=1 n=c3 v=93
106652 On ch=1 n=e5 v=71
106670 On ch=1 n=a4 v=47
106686 Par ch=1 c=64 v=63
106706 On ch=1 n=f#5 v=92
106718 On ch=1 n=e5 v=0
106722 Par ch=1 c=64 v=127
106728 On ch=1 n=a4 v=0
106772 On ch=1 n=e5 v=79
106776 On ch=1 n=c3 v=0
106782 On ch=1 n=g3 v=76
106790 On ch=1 n=f#5 v=0
106850 On ch=1 n=d5 v=91
106860 On ch=1 n=g3 v=0
106876 On ch=1 n=d4 v=60
106878 On ch=1 n=e5 v=0
106950 On ch=1 n=d5 v=0
106962 On ch=1 n=d4 v=0
106964 On ch=1 n=e5 v=81
106988 On ch=1 n=e4 v=79
107040 On ch=1 n=e5 v=0
107116 On ch=1 n=g4 v=49
107168 On ch=1 n=e4 v=0
107264 On ch=1 n=b4 v=70
107270 On ch=1 n=g4 v=0
107340 Par ch=1 c=64 v=63
107350 Par ch=1 c=64 v=0
107382 On ch=1 n=a#5 v=104
107446 On ch=1 n=b4 v=0
107460 On ch=1 n=a5 v=78
107478 On ch=1 n=a#5 v=0
107478 Par ch=1 c=64 v=63
107488 Par ch=1 c=64 v=127
107542 On ch=1 n=a#5 v=90
107560 On ch=1 n=a5 v=0
107664 On ch=1 n=f#5 v=81
107758 On ch=1 n=f#5 v=0
107788 On ch=1 n=e5 v=54
107870 On ch=1 n=e5 v=0
107892 On ch=1 n=d5 v=71
108006 On ch=1 n=d5 v=0
108006 On ch=1 n=a#4 v=68
108098 On ch=1 n=f#4 v=74
108114 On ch=1 n=a#4 v=0
108214 On ch=1 n=f#4 v=0
108214 On ch=1 n=c4 v=76
108224 On ch=1 n=a#5 v=0
108236 On ch=1 n=d5 v=86
108258 Par ch=1 c=64 v=63
108266 Par ch=1 c=64 v=0
108334 Par ch=1 c=64 v=63
108348 On ch=1 n=g4 v=69
108354 On ch=1 n=c4 v=0
108360 Par ch=1 c=64 v=127
108402 On ch=1 n=d5 v=0
108464 On ch=1 n=a#4 v=82
108470 On ch=1 n=g5 v=93
108492 On ch=1 n=g4 v=0
108572 On ch=1 n=a#4 v=0
108598 On ch=1 n=d5 v=36
108602 On ch=1 n=e5 v=35
108628 On ch=1 n=g5 v=0
108650 On ch=1 n=e5 v=0
108658 On ch=1 n=d5 v=0
108686 On ch=1 n=c6 v=90
108702 On ch=1 n=e5 v=78
108748 On ch=1 n=c6 v=0
108842 On ch=1 n=a5 v=66
108906 Par ch=1 c=64 v=63
108914 Par ch=1 c=64 v=0
108940 On ch=1 n=a5 v=0
108944 On ch=1 n=a#5 v=103
108952 Par ch=1 c=64 v=63
108968 On ch=1 n=e5 v=0
108974 Par ch=1 c=64 v=127
109010 On ch=1 n=a5 v=73
109020 On ch=1 n=a#5 v=0
109082 On ch=1 n=a#5 v=94
109094 On ch=1 n=a5 v=0
109176 On ch=1 n=f#5 v=78
109260 On ch=1 n=f#5 v=0
109274 On ch=1 n=e5 v=63
109350 On ch=1 n=e5 v=0
109368 On ch=1 n=d5 v=53
109478 On ch=1 n=d5 v=0
109480 On ch=1 n=a#4 v=65
109568 On ch=1 n=a#4 v=0
109570 On ch=1 n=f#4 v=72
109670 On ch=1 n=f#4 v=0
109692 On ch=1 n=c4 v=66
109718 On ch=1 n=a#5 v=0
109722 Par ch=1 c=64 v=63
109722 On ch=1 n=d5 v=87
109734 Par ch=1 c=64 v=0
109764 Par ch=1 c=64 v=63
109800 Par ch=1 c=64 v=127
109804 On ch=1 n=g4 v=74
109822 On ch=1 n=c4 v=0
109892 On ch=1 n=d5 v=0
109924 On ch=1 n=a#4 v=88
109934 On ch=1 n=g5 v=100
109964 On ch=1 n=g4 v=0
110024 On ch=1 n=d5 v=79
110036 On ch=1 n=a#4 v=0
110102 On ch=1 n=g5 v=0
110132 On ch=1 n=d5 v=0
110138 On ch=1 n=c6 v=93
110146 On ch=1 n=e5 v=71
110186 On ch=1 n=c6 v=0
110278 On ch=1 n=a5 v=68
110416 On ch=1 n=a5 v=0
110438 On ch=1 n=e5 v=0
110442 Par ch=1 c=64 v=63
110450 Par ch=1 c=64 v=0
110452 On ch=1 n=e5 v=85
110466 On ch=1 n=g#4 v=109
110498 Par ch=1 c=64 v=63
110524 Par ch=1 c=64 v=127
110566 On ch=1 n=g#4 v=0
110568 On ch=1 n=a#4 v=91
110624 On ch=1 n=g#4 v=67
110648 On ch=1 n=a#4 v=0
110700 On ch=1 n=g4 v=63
110714 On ch=1 n=g#4 v=0
110786 On ch=1 n=g#4 v=91
110812 On ch=1 n=e4 v=68
110822 On ch=1 n=g4 v=0
110852 On ch=1 n=e5 v=0
110892 On ch=1 n=g#4 v=0
110938 On ch=1 n=c4 v=75
110966 On ch=1 n=e4 v=0
111004 On ch=1 n=f3 v=98
111060 On ch=1 n=c4 v=0
111112 Par ch=1 c=64 v=63
111116 On ch=1 n=d#5 v=115
111120 Par ch=1 c=64 v=0
111120 On ch=1 n=g#4 v=112
111160 On ch=1 n=f3 v=0
111176 Par ch=1 c=64 v=63
111194 On ch=1 n=g#4 v=0
111202 Par ch=1 c=64 v=127
111212 On ch=1 n=a#4 v=84
111246 On ch=1 n=g#4 v=60
111304 On ch=1 n=a#4 v=0
111344 On ch=1 n=g#4 v=0
111346 On ch=1 n=g4 v=63
111434 On ch=1 n=g#4 v=93
111452 On ch=1 n=g4 v=0
111452 On ch=1 n=d#4 v=69
111504 On ch=1 n=d#5 v=0
111512 On ch=1 n=g#4 v=0
111542 On ch=1 n=d#4 v=0
111574 On ch=1 n=c4 v=65
111674 On ch=1 n=f3 v=86
111730 On ch=1 n=c4 v=0
111734 On ch=1 n=g#5 v=99
111736 Par ch=1 c=64 v=63
111746 Par ch=1 c=64 v=0
111780 Par ch=1 c=64 v=63
111792 On ch=1 n=g5 v=81
111806 Par ch=1 c=64 v=127
111808 On ch=1 n=f3 v=0
111832 On ch=1 n=g#5 v=0
111872 On ch=1 n=g#5 v=101
111894 On ch=1 n=g5 v=0
111998 On ch=1 n=e5 v=65
112110 On ch=1 n=b4 v=84
112112 On ch=1 n=e5 v=0
112194 On ch=1 n=b4 v=0
112242 On ch=1 n=d5 v=71
112320 On ch=1 n=g#4 v=79
112354 On ch=1 n=d5 v=0
112428 On ch=1 n=f4 v=82
112440 On ch=1 n=g#4 v=0
112546 On ch=1 n=a#3 v=99
112548 On ch=1 n=c5 v=97
112550 On ch=1 n=g#5 v=0
112564 Par ch=1 c=64 v=63
112566 On ch=1 n=f4 v=0
112572 Par ch=1 c=64 v=0
112630 Par ch=1 c=64 v=63
112650 On ch=1 n=f4 v=71
112660 Par ch=1 c=64 v=127
112676 On ch=1 n=a#3 v=0
112698 On ch=1 n=c5 v=0
112750 On ch=1 n=g#4 v=95
112758 On ch=1 n=f5 v=93
112796 On ch=1 n=f4 v=0
112860 On ch=1 n=c5 v=55
112866 On ch=1 n=g#4 v=0
112894 On ch=1 n=f5 v=0
112960 On ch=1 n=c5 v=0
112998 On ch=1 n=d5 v=78
113000 On ch=1 n=a#5 v=96
113052 On ch=1 n=a#5 v=0
113150 On ch=1 n=g5 v=76
113260 Par ch=1 c=64 v=63
113270 Par ch=1 c=64 v=0
113274 On ch=1 n=d5 v=0
113292 On ch=1 n=g#5 v=94
113298 Par ch=1 c=64 v=63
113304 On ch=1 n=g5 v=0
113326 Par ch=1 c=64 v=127
113354 On ch=1 n=g5 v=68
113380 On ch=1 n=g#5 v=0
113436 On ch=1 n=g#5 v=89
113468 On ch=1 n=g5 v=0
113556 On ch=1 n=e5 v=56
113660 On ch=1 n=b4 v=76
113678 On ch=1 n=e5 v=0
113748 On ch=1 n=b4 v=0
113790 On ch=1 n=d5 v=54
113872 On ch=1 n=g#4 v=68
113892 On ch=1 n=d5 v=0
113962 On ch=1 n=f4 v=71
113974 On ch=1 n=g#4 v=0
114080 On ch=1 n=a#3 v=90
114082 On ch=1 n=c5 v=84
114086 On ch=1 n=f4 v=0
114090 Par ch=1 c=64 v=63
114104 Par ch=1 c=64 v=0
114132 Par ch=1 c=64 v=63
114172 Par ch=1 c=64 v=127
114202 On ch=1 n=f4 v=65
114228 On ch=1 n=a#3 v=0
114256 On ch=1 n=g#5 v=0
114258 On ch=1 n=c5 v=0
114312 On ch=1 n=g#4 v=93
114314 On ch=1 n=f5 v=96
114364 On ch=1 n=f4 v=0
114412 On ch=1 n=c5 v=90
114430 On ch=1 n=g#4 v=0
114474 On ch=1 n=f5 v=0
114514 On ch=1 n=c5 v=0
114540 On ch=1 n=d5 v=86
114562 On ch=1 n=a#5 v=96
114604 On ch=1 n=a#5 v=0
114690 On ch=1 n=g5 v=68
114822 On ch=1 n=g5 v=0
114858 On ch=1 n=d5 v=0
114870 On ch=1 n=d5 v=84
114888 On ch=1 n=f#4 v=104
114890 Par ch=1 c=64 v=63
114904 Par ch=1 c=64 v=0
114920 Par ch=1 c=64 v=63
114956 Par ch=1 c=64 v=127
114972 On ch=1 n=f#4 v=0
115002 On ch=1 n=g#4 v=86
115048 On ch=1 n=f#4 v=70
115082 On ch=1 n=g#4 v=0
115140 On ch=1 n=f4 v=73
115142 On ch=1 n=f#4 v=0
115216 On ch=1 n=f#4 v=101
115242 On ch=1 n=f4 v=0
115258 On ch=1 n=d5 v=0
115262 On ch=1 n=d4 v=82
115294 On ch=1 n=f#4 v=0
115342 On ch=1 n=a#3 v=91
115378 On ch=1 n=d4 v=0
115438 On ch=1 n=d#3 v=107
115472 On ch=1 n=a#3 v=0
115524 On ch=1 n=c#5 v=110
115528 Par ch=1 c=64 v=63
115532 On ch=1 n=f#4 v=110
115534 Par ch=1 c=64 v=0
115600 On ch=1 n=f#4 v=0
115604 On ch=1 n=d#3 v=0
115620 On ch=1 n=g#4 v=89
115666 On ch=1 n=f#4 v=67
115692 Par ch=1 c=64 v=63
115698 Par ch=1 c=64 v=127
115720 On ch=1 n=g#4 v=0
115750 On ch=1 n=f4 v=79
115756 On ch=1 n=f#4 v=0
115832 On ch=1 n=f#4 v=92
115860 On ch=1 n=f4 v=0
115876 On ch=1 n=c#4 v=74
115886 On ch=1 n=c#5 v=0
115918 On ch=1 n=f#4 v=0
116002 On ch=1 n=a#3 v=77
116012 On ch=1 n=c#4 v=0
116036 On ch=1 n=d#3 v=76
116084 On ch=1 n=a#3 v=0
116106 On ch=1 n=d#3 v=0
116266 On ch=1 n=g#2 v=104
116284 On ch=1 n=d#4 v=114
116298 Par ch=1 c=64 v=63
116306 Par ch=1 c=64 v=0
116340 On ch=1 n=a#4 v=96
116350 Par ch=1 c=64 v=63
116360 On ch=1 n=d#4 v=0
116376 Par ch=1 c=64 v=127
116424 Par ch=1 c=67 v=0
116428 On ch=1 n=d#4 v=75
116446 On ch=1 n=d#3 v=74
116564 On ch=1 n=f#3 v=79
116596 On ch=1 n=a#4 v=0
116596 On ch=1 n=g#2 v=0
116620 On ch=1 n=d#3 v=0
116628 On ch=1 n=d#4 v=0
116652 On ch=1 n=f#3 v=0
116662 On ch=1 n=b3 v=76
116752 On ch=1 n=d#4 v=84
116766 On ch=1 n=b3 v=0
116866 On ch=1 n=f#4 v=80
116904 On ch=1 n=d#4 v=0
116964 On ch=1 n=d#3 v=93
116974 On ch=1 n=f#4 v=0
117060 Par ch=1 c=64 v=63
117074 On ch=1 n=b3 v=67
117092 Par ch=1 c=64 v=127
117116 On ch=1 n=d#3 v=0
117184 On ch=1 n=f#4 v=95
117228 On ch=1 n=b3 v=0
117274 On ch=1 n=g#4 v=83
117320 On ch=1 n=f#4 v=0
117366 On ch=1 n=g#4 v=0
117372 On ch=1 n=b4 v=84
117482 On ch=1 n=c#5 v=106
117512 On ch=1 n=b4 v=0
117560 On ch=1 n=c#5 v=0
117646 On ch=1 n=g#3 v=95
117708 On ch=1 n=d#5 v=105
117742 Par ch=1 c=64 v=63
117754 Par ch=1 c=64 v=0
117774 On ch=1 n=a#5 v=97
117782 Par ch=1 c=64 v=63
117788 On ch=1 n=d#5 v=0
117814 Par ch=1 c=64 v=127
117852 On ch=1 n=d#4 v=65
117852 On ch=1 n=d#5 v=86
117926 On ch=1 n=a#5 v=0
117974 On ch=1 n=f#4 v=72
117990 On ch=1 n=d#5 v=0
117992 On ch=1 n=g#3 v=0
118028 On ch=1 n=d#4 v=0
118064 On ch=1 n=f#4 v=0
118072 On ch=1 n=b4 v=77
118162 On ch=1 n=d#5 v=95
118192 On ch=1 n=b4 v=0
118270 On ch=1 n=f#5 v=103
118294 On ch=1 n=d#5 v=0
118354 On ch=1 n=f#5 v=0
118354 On ch=1 n=d#4 v=99
118476 On ch=1 n=b4 v=77
118518 On ch=1 n=d#4 v=0
118582 On ch=1 n=f#5 v=95
118620 On ch=1 n=b4 v=0
118684 On ch=1 n=g#5 v=72
118692 On ch=1 n=f#5 v=0
118794 On ch=1 n=g#5 v=0
118826 On ch=1 n=b5 v=63
118942 On ch=1 n=b5 v=0
118946 On ch=1 n=c#6 v=73
119072 On ch=1 n=c#6 v=0
119104 On ch=1 n=g#4 v=67
119112 Par ch=1 c=67 v=127
119154 On ch=1 n=d#6 v=72
119232 Par ch=1 c=64 v=63
119244 Par ch=1 c=64 v=0
119274 On ch=1 n=c#6 v=80
119288 On ch=1 n=d#6 v=0
119296 Par ch=1 c=64 v=63
119328 Par ch=1 c=64 v=127
119386 On ch=1 n=d#6 v=80
119418 On ch=1 n=c#6 v=0
119490 On ch=1 n=d#5 v=78
119494 On ch=1 n=b5 v=76
119510 On ch=1 n=d#6 v=0
119526 On ch=1 n=g#4 v=0
119590 On ch=1 n=c#6 v=105
119598 On ch=1 n=b5 v=0
119688 On ch=1 n=d#6 v=106
119712 On ch=1 n=c#6 v=0
119776 On ch=1 n=d#6 v=0
119784 On ch=1 n=a#6 v=101
119790 On ch=1 n=a#5 v=87
119824 On ch=1 n=d#5 v=0
119878 On ch=1 n=d#6 v=107
119890 On ch=1 n=a#6 v=0
119896 On ch=1 n=a#5 v=0
119958 On ch=1 n=a#6 v=92
119982 On ch=1 n=d#6 v=0
120052 On ch=1 n=a#6 v=0
120070 On ch=1 n=a6 v=76
120076 On ch=1 n=a#5 v=92
120096 On ch=1 n=c5 v=68
120106 On ch=1 n=e5 v=60
120160 On ch=1 n=a#5 v=0
120184 On ch=1 n=e5 v=0
120194 On ch=1 n=a6 v=0
120202 On ch=1 n=d6 v=80
120228 On ch=1 n=c5 v=0
120280 On ch=1 n=d6 v=0
120290 On ch=1 n=a6 v=73
120412 On ch=1 n=a6 v=0
120418 On ch=1 n=c#6 v=88
120436 On ch=1 n=f#4 v=84
120462 Par ch=1 c=64 v=63
120474 Par ch=1 c=64 v=0
120516 On ch=1 n=b5 v=58
120518 On ch=1 n=c#6 v=0
120552 Par ch=1 c=64 v=63
120578 Par ch=1 c=64 v=127
120614 On ch=1 n=c#6 v=88
120626 On ch=1 n=b5 v=0
120708 On ch=1 n=c#6 v=0
120728 On ch=1 n=a5 v=88
120728 On ch=1 n=c#5 v=89
120752 On ch=1 n=f#4 v=0
120822 On ch=1 n=b5 v=103
120846 On ch=1 n=a5 v=0
120918 On ch=1 n=c#6 v=107
120938 On ch=1 n=b5 v=0
120984 On ch=1 n=c#6 v=0
121006 On ch=1 n=c#5 v=0
121016 On ch=1 n=g#5 v=86
121028 On ch=1 n=g#6 v=107
121118 On ch=1 n=g#5 v=0
121120 On ch=1 n=c#6 v=109
121134 On ch=1 n=g#6 v=0
121212 On ch=1 n=g#6 v=103
121228 On ch=1 n=c#6 v=0
121312 On ch=1 n=g#5 v=83
121324 On ch=1 n=a#4 v=71
121324 On ch=1 n=g6 v=91
121330 On ch=1 n=d5 v=71
121332 On ch=1 n=g#6 v=0
121346 Par ch=1 c=64 v=63
121362 Par ch=1 c=64 v=0
121386 Par ch=1 c=64 v=63
121416 On ch=1 n=g#5 v=0
121430 Par ch=1 c=64 v=127
121436 On ch=1 n=d5 v=0
121440 On ch=1 n=c6 v=86
121450 On ch=1 n=g6 v=0
121482 On ch=1 n=a#4 v=0
121524 On ch=1 n=c6 v=0
121536 On ch=1 n=g6 v=80
121628 On ch=1 n=g6 v=0
121658 Par ch=1 c=64 v=63
121668 On ch=1 n=b5 v=81
121674 Par ch=1 c=64 v=0
121686 On ch=1 n=e4 v=63
121728 Par ch=1 c=64 v=63
121758 Par ch=1 c=64 v=127
121786 On ch=1 n=b5 v=0
121798 On ch=1 n=a5 v=56
121894 On ch=1 n=b5 v=56
121910 On ch=1 n=a5 v=0
121960 On ch=1 n=b5 v=0
122002 On ch=1 n=e4 v=0
122018 On ch=1 n=b4 v=64
122034 On ch=1 n=g5 v=81
122128 On ch=1 n=b4 v=0
122138 On ch=1 n=g5 v=0
122138 On ch=1 n=a5 v=84
122234 On ch=1 n=a5 v=0
122244 On ch=1 n=b5 v=81
122328 On ch=1 n=b5 v=0
122346 On ch=1 n=f#5 v=98
122348 On ch=1 n=c#6 v=103
122352 On ch=1 n=a4 v=73
122376 Par ch=1 c=64 v=63
122442 On ch=1 n=b5 v=89
122450 Par ch=1 c=64 v=127
122452 On ch=1 n=c#6 v=0
122524 On ch=1 n=c#6 v=99
122526 On ch=1 n=f#5 v=0
122558 On ch=1 n=b5 v=0
122630 On ch=1 n=c#6 v=0
122638 On ch=1 n=a5 v=91
122644 On ch=1 n=e5 v=91
122684 Par ch=1 c=64 v=63
122728 Par ch=1 c=64 v=127
122738 On ch=1 n=c#6 v=112
122748 On ch=1 n=a5 v=0
122758 On ch=1 n=e5 v=0
122772 On ch=1 n=a4 v=0
122830 On ch=1 n=e6 v=92
122842 On ch=1 n=c#6 v=0
122922 Par ch=1 c=64 v=63
122934 On ch=1 n=c#6 v=103
122954 On ch=1 n=f#5 v=98
122962 On ch=1 n=b4 v=76
122968 On ch=1 n=e6 v=0
122974 Par ch=1 c=64 v=127
123042 On ch=1 n=d6 v=97
123046 On ch=1 n=f#5 v=0
123052 On ch=1 n=c#6 v=0
123070 On ch=1 n=b4 v=0
123142 On ch=1 n=b5 v=84
123174 On ch=1 n=d6 v=0
123212 Par ch=1 c=64 v=63
123242 On ch=1 n=b5 v=0
123244 On ch=1 n=a5 v=83
123246 On ch=1 n=d5 v=88
123248 On ch=1 n=g4 v=71
123248 Par ch=1 c=64 v=127
123314 On ch=1 n=d5 v=0
123316 On ch=1 n=a5 v=0
123330 On ch=1 n=g4 v=0
123344 On ch=1 n=b5 v=87
123434 On ch=1 n=b5 v=0
123438 On ch=1 n=g5 v=71
123500 On ch=1 n=g5 v=0
123528 Par ch=1 c=64 v=63
123530 On ch=1 n=b4 v=81
123534 On ch=1 n=e4 v=76
123538 On ch=1 n=f#5 v=98
123568 Par ch=1 c=64 v=127
123596 On ch=1 n=b4 v=0
123612 On ch=1 n=e4 v=0
123628 On ch=1 n=f#5 v=0
123642 On ch=1 n=g5 v=82
123732 On ch=1 n=e5 v=84
123740 On ch=1 n=g5 v=0
123790 On ch=1 n=e5 v=0
123820 Par ch=1 c=64 v=63
123842 On ch=1 n=g4 v=80
123854 On ch=1 n=d5 v=84
123856 On ch=1 n=a3 v=61
123902 Par ch=1 c=64 v=127
123936 On ch=1 n=d5 v=0
123954 On ch=1 n=b4 v=76
123968 On ch=1 n=g4 v=0
124010 On ch=1 n=a3 v=0
124052 On ch=1 n=b4 v=0
124058 On ch=1 n=c#5 v=94
124144 On ch=1 n=c#5 v=0
124198 On ch=1 n=d3 v=72
124200 Par ch=1 c=64 v=63
124218 On ch=1 n=d5 v=78
124220 Par ch=1 c=64 v=0
124278 Par ch=1 c=64 v=63
124306 Par ch=1 c=64 v=127
124346 On ch=1 n=a4 v=57
124448 On ch=1 n=f#4 v=86
124482 On ch=1 n=a4 v=0
124482 On ch=1 n=d5 v=0
124540 On ch=1 n=f#4 v=0
124578 On ch=1 n=a3 v=66
124582 On ch=1 n=d3 v=0
124586 Par ch=1 c=67 v=127
124646 On ch=1 n=a3 v=0
124652 On ch=1 n=d4 v=83
124752 On ch=1 n=d4 v=0
124770 On ch=1 n=f#4 v=103
124810 On ch=1 n=f#4 v=0
124866 On ch=1 n=a4 v=77
124964 On ch=1 n=d5 v=89
124976 On ch=1 n=a4 v=0
125056 On ch=1 n=f#5 v=103
125062 On ch=1 n=d5 v=0
125122 On ch=1 n=f#5 v=0
125136 Par ch=1 c=64 v=63
125162 Par ch=1 c=64 v=127
125172 On ch=1 n=a5 v=80
125262 On ch=1 n=d6 v=101
125274 On ch=1 n=a5 v=0
125372 On ch=1 n=f#6 v=105
125376 On ch=1 n=d6 v=0
125484 On ch=1 n=f#6 v=0
125498 On ch=1 n=a6 v=78
125520 On ch=1 n=d5 v=55
125614 On ch=1 n=g6 v=76
125636 Par ch=1 c=64 v=63
125642 On ch=1 n=a6 v=0
125696 Par ch=1 c=64 v=127
125726 On ch=1 n=a6 v=97
125768 On ch=1 n=g6 v=0
125842 On ch=1 n=f6 v=92
125854 On ch=1 n=a6 v=0
125854 On ch=1 n=a5 v=73
125884 On ch=1 n=d5 v=0
125928 On ch=1 n=a5 v=0
125944 On ch=1 n=g6 v=104
125954 On ch=1 n=f6 v=0
126038 On ch=1 n=a6 v=102
126066 On ch=1 n=g6 v=0
126116 On ch=1 n=a6 v=0
126168 On ch=1 n=f6 v=89
126168 On ch=1 n=e7 v=104
126262 On ch=1 n=f6 v=0
126264 On ch=1 n=e7 v=0
126272 On ch=1 n=a6 v=103
126356 On ch=1 n=a6 v=0
126364 On ch=1 n=e7 v=81
126468 On ch=1 n=d#7 v=103
126480 On ch=1 n=e7 v=0
126488 On ch=1 n=f#6 v=90
126488 Par ch=1 c=64 v=63
126492 On ch=1 n=g#5 v=70
126498 On ch=1 n=c6 v=74
126524 Par ch=1 c=64 v=127
126568 On ch=1 n=d#7 v=0
126580 On ch=1 n=f#6 v=0
126592 On ch=1 n=g#6 v=93
126608 On ch=1 n=c6 v=0
126644 On ch=1 n=g#5 v=0
126688 On ch=1 n=g#6 v=0
126688 On ch=1 n=d#7 v=95
126756 On ch=1 n=d#7 v=0
126846 On ch=1 n=c5 v=85
126870 On ch=1 n=g6 v=90
126926 Par ch=1 c=64 v=63
126966 Par ch=1 c=64 v=127
126986 On ch=1 n=f6 v=97
127012 On ch=1 n=g6 v=0
127086 On ch=1 n=f6 v=0
127094 On ch=1 n=g6 v=87
127200 On ch=1 n=g5 v=88
127200 On ch=1 n=d#6 v=104
127202 On ch=1 n=g6 v=0
127214 On ch=1 n=c5 v=0
127266 On ch=1 n=g5 v=0
127298 On ch=1 n=f6 v=100
127302 On ch=1 n=d#6 v=0
127398 On ch=1 n=g6 v=101
127414 On ch=1 n=f6 v=0
127468 On ch=1 n=g6 v=0
127510 On ch=1 n=d#6 v=107
127538 On ch=1 n=d7 v=108
127610 On ch=1 n=d#6 v=0
127626 On ch=1 n=d7 v=0
127630 On ch=1 n=g6 v=103
127712 On ch=1 n=g6 v=0
127722 On ch=1 n=d7 v=101
127826 On ch=1 n=e6 v=92
127830 On ch=1 n=c#7 v=106
127838 On ch=1 n=a#5 v=83
127840 On ch=1 n=f#5 v=74
127848 On ch=1 n=d7 v=0
127850 Par ch=1 c=64 v=63
127876 Par ch=1 c=64 v=127
127908 On ch=1 n=e6 v=0
127936 On ch=1 n=f#6 v=106
127938 On ch=1 n=a#5 v=0
127946 On ch=1 n=c#7 v=0
127968 On ch=1 n=f#5 v=0
128010 On ch=1 n=f#6 v=0
128036 On ch=1 n=c#7 v=106
128108 On ch=1 n=c#7 v=0
128190 On ch=1 n=a#4 v=77
128220 On ch=1 n=f6 v=98
128290 Par ch=1 c=64 v=63
128344 Par ch=1 c=64 v=127
128356 On ch=1 n=d#6 v=101
128382 On ch=1 n=f6 v=0
128450 On ch=1 n=d#6 v=0
128476 On ch=1 n=f6 v=85
128544 On ch=1 n=f6 v=0
128590 On ch=1 n=f5 v=76
128590 On ch=1 n=c#6 v=114
128618 On ch=1 n=a#4 v=0
128654 On ch=1 n=f5 v=0
128684 On ch=1 n=c#6 v=0
128688 On ch=1 n=d#6 v=105
128774 On ch=1 n=d#6 v=0
128786 On ch=1 n=f6 v=97
128872 On ch=1 n=f6 v=0
128890 On ch=1 n=c6 v=103
128894 On ch=1 n=d#5 v=106
128904 On ch=1 n=g6 v=96
128914 Par ch=1 c=64 v=63
129004 Par ch=1 c=64 v=127
129010 On ch=1 n=f6 v=96
129028 On ch=1 n=g6 v=0
129104 On ch=1 n=g6 v=93
129118 On ch=1 n=f6 v=0
129166 On ch=1 n=g6 v=0
129202 On ch=1 n=a#5 v=105
129214 On ch=1 n=d#6 v=94
129224 On ch=1 n=c6 v=0
129286 On ch=1 n=d#6 v=0
129306 On ch=1 n=g6 v=77
129332 On ch=1 n=a#5 v=0
129398 On ch=1 n=d#5 v=0
129400 On ch=1 n=a#6 v=101
129422 On ch=1 n=g6 v=0
129508 On ch=1 n=a#6 v=0
129522 On ch=1 n=g6 v=96
129526 On ch=1 n=c6 v=85
129528 Par ch=1 c=64 v=63
129530 On ch=1 n=f5 v=78
129616 Par ch=1 c=64 v=127
129636 On ch=1 n=g#6 v=99
129642 On ch=1 n=g6 v=0
129690 On ch=1 n=c6 v=0
129720 On ch=1 n=g#6 v=0
129724 On ch=1 n=f6 v=79
129810 On ch=1 n=f6 v=0
129816 Par ch=1 c=64 v=63
129826 On ch=1 n=g#5 v=88
129828 On ch=1 n=d#6 v=101
129832 On ch=1 n=c#5 v=85
129834 Par ch=1 c=64 v=127
129848 On ch=1 n=f5 v=0
129902 On ch=1 n=g#5 v=0
129926 On ch=1 n=d#6 v=0
129930 On ch=1 n=c#5 v=0
129930 On ch=1 n=f6 v=86
130032 On ch=1 n=c#6 v=95
130046 On ch=1 n=f6 v=0
130108 Par ch=1 c=64 v=63
130118 On ch=1 n=c#6 v=0
130130 On ch=1 n=c6 v=85
130136 Par ch=1 c=64 v=127
130140 On ch=1 n=f5 v=77
130144 On ch=1 n=a#4 v=80
130210 On ch=1 n=c6 v=0
130214 On ch=1 n=f5 v=0
130226 On ch=1 n=a#4 v=0
130230 On ch=1 n=c#6 v=98
130326 On ch=1 n=c#6 v=0
130330 On ch=1 n=a#5 v=97
130384 On ch=1 n=a#5 v=0
130440 On ch=1 n=c#5 v=101
130444 Par ch=1 c=64 v=63
130446 On ch=1 n=d#4 v=89
130448 On ch=1 n=g#5 v=106
130474 Par ch=1 c=64 v=127
130534 On ch=1 n=c#5 v=0
130542 On ch=1 n=g#5 v=0
130552 On ch=1 n=d#4 v=0
130552 On ch=1 n=f5 v=85
130642 On ch=1 n=g5 v=88
130654 On ch=1 n=f5 v=0
130764 On ch=1 n=g5 v=0
130776 On ch=1 n=g#3 v=84
130806 On ch=1 n=g#5 v=92
130826 Par ch=1 c=64 v=63
130844 Par ch=1 c=64 v=0
130918 Par ch=1 c=64 v=63
130940 Par ch=1 c=64 v=127
130950 On ch=1 n=d#5 v=95
131026 On ch=1 n=g#5 v=0
131068 On ch=1 n=g#3 v=0
131070 On ch=1 n=c5 v=76
131114 On ch=1 n=d#5 v=0
131162 On ch=1 n=c5 v=0
131168 On ch=1 n=g#4 v=85
131270 On ch=1 n=d#4 v=83
131286 On ch=1 n=g#4 v=0
131380 On ch=1 n=c4 v=81
131392 On ch=1 n=d#4 v=0
131430 On ch=1 n=c4 v=0
131536 On ch=1 n=g#2 v=94
131602 Par ch=1 c=64 v=63
131614 Par ch=1 c=64 v=0
131662 On ch=1 n=d#3 v=77
131682 Par ch=1 c=64 v=63
131704 Par ch=1 c=64 v=127
131798 On ch=1 n=g#3 v=59
131842 On ch=1 n=g#2 v=0
131888 On ch=1 n=d#3 v=0
131940 On ch=1 n=c4 v=70
131946 On ch=1 n=g#3 v=0
131982 Par ch=1 c=67 v=0
132066 On ch=1 n=d#4 v=72
132090 On ch=1 n=c4 v=0
132240 On ch=1 n=g#4 v=72
132254 On ch=1 n=d#4 v=0
132384 On ch=1 n=g#4 v=0
132504 On ch=1 n=f#3 v=78
132596 On ch=1 n=c#5 v=93
132618 Par ch=1 c=64 v=63
132638 Par ch=1 c=64 v=0
132658 Par ch=1 c=64 v=63
132678 On ch=1 n=c#5 v=0
132684 On ch=1 n=b4 v=76
132698 Par ch=1 c=64 v=127
132772 On ch=1 n=c#5 v=98
132794 On ch=1 n=c#4 v=80
132800 On ch=1 n=f#3 v=0
132820 On ch=1 n=b4 v=0
132920 On ch=1 n=c#4 v=0
132930 On ch=1 n=f#4 v=88
133006 On ch=1 n=f#4 v=0
133036 On ch=1 n=c#4 v=88
133112 On ch=1 n=c#5 v=0
133142 On ch=1 n=f#4 v=94
133164 On ch=1 n=c#4 v=0
133244 On ch=1 n=f#4 v=0
133248 On ch=1 n=a4 v=84
133350 On ch=1 n=d#5 v=101
133380 On ch=1 n=b4 v=93
133394 Par ch=1 c=64 v=63
133398 On ch=1 n=a4 v=0
133470 On ch=1 n=b4 v=0
133482 Par ch=1 c=64 v=127
133484 On ch=1 n=a4 v=86
133550 On ch=1 n=d#5 v=0
133590 On ch=1 n=f#5 v=108
133592 On ch=1 n=f#4 v=98
133612 On ch=1 n=a4 v=0
133704 On ch=1 n=d#4 v=93
133718 On ch=1 n=f#4 v=0
133738 On ch=1 n=f#5 v=0
133792 On ch=1 n=b5 v=96
133830 On ch=1 n=c#4 v=61
133874 On ch=1 n=b5 v=0
133884 On ch=1 n=d#4 v=0
133900 On ch=1 n=b3 v=72
133942 On ch=1 n=c#4 v=0
133980 On ch=1 n=b3 v=0
134074 On ch=1 n=g#3 v=95
134080 On ch=1 n=d#5 v=92
134142 Par ch=1 c=64 v=63
134160 Par ch=1 c=64 v=0
134166 On ch=1 n=c#5 v=91
134170 On ch=1 n=d#5 v=0
134186 On ch=1 n=d#4 v=72
134220 On ch=1 n=g#3 v=0
134236 Par ch=1 c=64 v=63
134248 On ch=1 n=d#5 v=97
134254 Par ch=1 c=64 v=127
134272 On ch=1 n=c#5 v=0
134286 On ch=1 n=d#4 v=0
134294 On ch=1 n=g#4 v=78
134384 On ch=1 n=g#4 v=0
134396 On ch=1 n=d#4 v=90
134404 On ch=1 n=d#5 v=0
134494 On ch=1 n=g#4 v=90
134516 On ch=1 n=d#4 v=0
134596 On ch=1 n=g#4 v=0
134596 On ch=1 n=b4 v=78
134684 Par ch=1 c=64 v=63
134698 On ch=1 n=b4 v=0
134698 Par ch=1 c=64 v=0
134708 On ch=1 n=c#4 v=94
134720 On ch=1 n=f5 v=100
134786 Par ch=1 c=64 v=63
134792 On ch=1 n=d#5 v=95
134802 Par ch=1 c=64 v=127
134808 On ch=1 n=f5 v=0
134846 On ch=1 n=c#4 v=0
134846 On ch=1 n=g#4 v=68
134872 On ch=1 n=f5 v=85
134878 On ch=1 n=d#5 v=0
134930 On ch=1 n=g#4 v=0
134946 On ch=1 n=c#5 v=78
135020 On ch=1 n=c#5 v=0
135046 On ch=1 n=g#4 v=83
135098 On ch=1 n=f5 v=0
135156 On ch=1 n=c#5 v=80
135174 On ch=1 n=g#4 v=0
135262 On ch=1 n=c#5 v=0
135264 On ch=1 n=f5 v=54
135330 On ch=1 n=f5 v=0
135448 On ch=1 n=b3 v=75
135510 Par ch=1 c=64 v=63
135512 On ch=1 n=f#5 v=95
135522 Par ch=1 c=64 v=0
135580 On ch=1 n=f#5 v=0
135580 On ch=1 n=e5 v=67
135600 On ch=1 n=f#4 v=65
135606 Par ch=1 c=64 v=63
135616 On ch=1 n=b3 v=0
135626 Par ch=1 c=64 v=127
135652 On ch=1 n=f#5 v=86
135682 On ch=1 n=e5 v=0
135706 On ch=1 n=f#4 v=0
135714 On ch=1 n=b4 v=60
135804 On ch=1 n=f#4 v=87
135812 On ch=1 n=b4 v=0
135910 On ch=1 n=b4 v=87
135916 On ch=1 n=f#5 v=0
135946 On ch=1 n=f#4 v=0
136006 On ch=1 n=d5 v=94
136022 On ch=1 n=b4 v=0
136116 On ch=1 n=g#5 v=103
136128 On ch=1 n=e5 v=91
136136 On ch=1 n=d5 v=0
136152 Par ch=1 c=64 v=63
136168 Par ch=1 c=64 v=0
136220 On ch=1 n=e5 v=0
136222 On ch=1 n=d5 v=99
136238 Par ch=1 c=64 v=63
136262 Par ch=1 c=64 v=127
136280 On ch=1 n=g#5 v=0
136334 On ch=1 n=b5 v=103
136336 On ch=1 n=b4 v=93
136340 On ch=1 n=d5 v=0
136432 On ch=1 n=g#4 v=94
136452 On ch=1 n=b4 v=0
136540 On ch=1 n=e6 v=107
136562 On ch=1 n=b5 v=0
136562 On ch=1 n=f#4 v=79
136596 On ch=1 n=g#4 v=0
136632 On ch=1 n=e6 v=0
136648 On ch=1 n=e4 v=84
136656 On ch=1 n=f#4 v=0
136726 On ch=1 n=e4 v=0
136804 On ch=1 n=g#5 v=98
136806 On ch=1 n=c#4 v=100
136822 Par ch=1 c=64 v=63
136838 Par ch=1 c=64 v=0
136874 On ch=1 n=f#5 v=98
136886 On ch=1 n=g#5 v=0
136902 Par ch=1 c=64 v=63
136916 On ch=1 n=g#4 v=78
136926 On ch=1 n=c#4 v=0
136928 Par ch=1 c=64 v=127
136944 On ch=1 n=g#5 v=101
136978 On ch=1 n=f#5 v=0
137006 On ch=1 n=g#4 v=0
137012 On ch=1 n=c#5 v=81
137082 On ch=1 n=c#5 v=0
137100 On ch=1 n=g#4 v=92
137158 On ch=1 n=g#5 v=0
137200 On ch=1 n=c#5 v=98
137224 On ch=1 n=g#4 v=0
137308 On ch=1 n=e5 v=96
137312 On ch=1 n=c#5 v=0
137378 On ch=1 n=e5 v=0
137424 On ch=1 n=f#4 v=100
137428 Par ch=1 c=64 v=63
137440 Par ch=1 c=64 v=0
137448 On ch=1 n=a#5 v=112
137508 Par ch=1 c=64 v=63
137512 On ch=1 n=g#5 v=97
137526 On ch=1 n=a#5 v=0
137530 Par ch=1 c=64 v=127
137556 On ch=1 n=c#5 v=84
137570 On ch=1 n=f#4 v=0
137588 On ch=1 n=a#5 v=104
137614 On ch=1 n=g#5 v=0
137654 On ch=1 n=c#5 v=0
137666 On ch=1 n=f#5 v=86
137718 On ch=1 n=a#5 v=0
137746 On ch=1 n=f#5 v=0
137758 On ch=1 n=c#5 v=95
137866 On ch=1 n=f#5 v=91
137910 On ch=1 n=c#5 v=0
137958 On ch=1 n=a#5 v=97
137984 On ch=1 n=f#5 v=0
138014 On ch=1 n=a#5 v=0
138130 On ch=1 n=e4 v=88
138138 On ch=1 n=b5 v=98
138208 On ch=1 n=a5 v=68
138220 On ch=1 n=b5 v=0
138230 Par ch=1 c=64 v=127
138250 On ch=1 n=b4 v=71
138296 On ch=1 n=b5 v=107
138318 On ch=1 n=a5 v=0
138332 On ch=1 n=e4 v=0
138362 On ch=1 n=e5 v=71
138378 On ch=1 n=b4 v=0
138450 On ch=1 n=e5 v=0
138460 On ch=1 n=b4 v=103
138576 On ch=1 n=e5 v=102
138590 On ch=1 n=b5 v=0
138670 On ch=1 n=g5 v=84
138714 On ch=1 n=b4 v=0
138734 On ch=1 n=e5 v=0
138792 Par ch=1 c=64 v=63
138794 On ch=1 n=g5 v=0
138796 Par ch=1 c=64 v=0
138800 On ch=1 n=a4 v=108
138830 On ch=1 n=c#6 v=110
138872 On ch=1 n=b5 v=74
138888 Par ch=1 c=64 v=63
138892 Par ch=1 c=64 v=127
138906 On ch=1 n=c#6 v=0
138926 On ch=1 n=e5 v=90
138966 On ch=1 n=a4 v=0
138976 On ch=1 n=c#6 v=110
138996 On ch=1 n=b5 v=0
139032 On ch=1 n=e5 v=0
139044 On ch=1 n=a5 v=69
139128 On ch=1 n=a5 v=0
139154 On ch=1 n=e5 v=97
139200 On ch=1 n=c#6 v=0
139276 On ch=1 n=a5 v=90
139414 On ch=1 n=c#6 v=100
139444 On ch=1 n=a5 v=0
139492 On ch=1 n=c#6 v=0
139580 On ch=1 n=e5 v=0
139640 On ch=1 n=d5 v=72
139668 Par ch=1 c=64 v=63
139676 Par ch=1 c=64 v=0
139682 On ch=1 n=f#6 v=94
139776 Par ch=1 c=64 v=63
139776 On ch=1 n=e6 v=71
139778 On ch=1 n=f#6 v=0
139780 Par ch=1 c=64 v=127
139808 On ch=1 n=f#5 v=72
139878 On ch=1 n=f#6 v=78
139948 On ch=1 n=e6 v=0
139972 On ch=1 n=a5 v=65
140014 On ch=1 n=f#6 v=0
140110 On ch=1 n=b5 v=86
140182 On ch=1 n=a5 v=0
140196 On ch=1 n=d5 v=0
140208 On ch=1 n=f#5 v=0
140222 On ch=1 n=d6 v=83
140224 On ch=1 n=b5 v=0
140350 On ch=1 n=e6 v=89
140360 On ch=1 n=d6 v=0
140410 On ch=1 n=e6 v=0
140478 On ch=1 n=c5 v=103
140490 Par ch=1 c=64 v=63
140498 Par ch=1 c=64 v=0
140498 On ch=1 n=f#6 v=104
140544 Par ch=1 c=64 v=63
140562 Par ch=1 c=64 v=127
140580 On ch=1 n=f#6 v=0
140584 On ch=1 n=e6 v=81
140616 On ch=1 n=e5 v=74
140668 On ch=1 n=e6 v=0
140670 On ch=1 n=f#6 v=87
140706 On ch=1 n=f#6 v=0
140734 On ch=1 n=g5 v=94
140840 On ch=1 n=a5 v=91
140934 On ch=1 n=c6 v=93
140938 On ch=1 n=c5 v=0
140948 On ch=1 n=e5 v=0
140950 On ch=1 n=a5 v=0
140974 On ch=1 n=g5 v=0
141044 On ch=1 n=e6 v=100
141068 On ch=1 n=c6 v=0
141120 On ch=1 n=e6 v=0
141178 On ch=1 n=b4 v=111
141180 Par ch=1 c=64 v=63
141186 Par ch=1 c=64 v=0
141198 On ch=1 n=f#6 v=112
141260 Par ch=1 c=64 v=63
141272 Par ch=1 c=64 v=127
141286 On ch=1 n=f#6 v=0
141292 On ch=1 n=e6 v=94
141306 On ch=1 n=d#5 v=100
141370 On ch=1 n=e6 v=0
141376 On ch=1 n=f#6 v=82
141414 On ch=1 n=f#6 v=0
141446 On ch=1 n=f#5 v=109
141554 On ch=1 n=b5 v=68
141592 On ch=1 n=f#5 v=0
141624 On ch=1 n=d#5 v=0
141638 On ch=1 n=b5 v=0
141648 On ch=1 n=b4 v=0
141650 On ch=1 n=c#6 v=101
141740 On ch=1 n=d#6 v=101
141758 On ch=1 n=c#6 v=0
141800 On ch=1 n=d#6 v=0
141866 On ch=1 n=a4 v=107
141872 Par ch=1 c=64 v=63
141880 Par ch=1 c=64 v=0
141882 On ch=1 n=f#6 v=109
141942 Par ch=1 c=64 v=63
141956 Par ch=1 c=64 v=127
141962 On ch=1 n=g6 v=94
141964 On ch=1 n=f#6 v=0
141992 On ch=1 n=d#5 v=100
142036 On ch=1 n=f#6 v=93
142066 On ch=1 n=g6 v=0
142106 On ch=1 n=f#6 v=0
142134 On ch=1 n=f#5 v=101
142224 On ch=1 n=b5 v=100
142254 On ch=1 n=f#5 v=0
142280 On ch=1 n=d#5 v=0
142320 On ch=1 n=c#6 v=107
142328 On ch=1 n=a4 v=0
142342 On ch=1 n=b5 v=0
142414 On ch=1 n=d#6 v=108
142442 On ch=1 n=c#6 v=0
142482 On ch=1 n=d#6 v=0
142542 Par ch=1 c=64 v=63
142548 On ch=1 n=g4 v=118
142552 Par ch=1 c=64 v=0
142572 On ch=1 n=b6 v=106
142584 On ch=1 n=d6 v=82
142606 Par ch=1 c=64 v=63
142622 Par ch=1 c=64 v=127
142628 On ch=1 n=a6 v=100
142648 On ch=1 n=b6 v=0
142658 On ch=1 n=d6 v=0
142664 On ch=1 n=b4 v=97
142704 On ch=1 n=b6 v=96
142724 On ch=1 n=a6 v=0
142776 On ch=1 n=b6 v=0
142782 On ch=1 n=d5 v=106
142902 On ch=1 n=g5 v=104
143002 On ch=1 n=a5 v=98
143030 On ch=1 n=g5 v=0
143046 On ch=1 n=b4 v=0
143056 On ch=1 n=d5 v=0
143060 On ch=1 n=g4 v=0
143098 On ch=1 n=b5 v=107
143124 On ch=1 n=a5 v=0
143166 On ch=1 n=b5 v=0
143260 Par ch=1 c=64 v=63
143262 On ch=1 n=f4 v=122
143270 Par ch=1 c=64 v=0
143282 On ch=1 n=b6 v=104
143288 On ch=1 n=d6 v=107
143328 Par ch=1 c=64 v=63
143346 Par ch=1 c=64 v=127
143354 On ch=1 n=a6 v=92
143364 On ch=1 n=b6 v=0
143374 On ch=1 n=b4 v=101
143436 On ch=1 n=b6 v=100
143458 On ch=1 n=a6 v=0
143464 On ch=1 n=d6 v=0
143488 On ch=1 n=d5 v=111
143508 On ch=1 n=b6 v=0
143618 On ch=1 n=g5 v=106
143718 On ch=1 n=a5 v=100
143744 On ch=1 n=g5 v=0
143760 On ch=1 n=d5 v=0
143760 On ch=1 n=b4 v=0
143762 On ch=1 n=f4 v=0
143812 On ch=1 n=b5 v=106
143836 On ch=1 n=a5 v=0
143872 On ch=1 n=b5 v=0
143966 Par ch=1 c=64 v=63
143976 Par ch=1 c=64 v=0
143978 On ch=1 n=e4 v=125
143996 On ch=1 n=b6 v=99
143998 On ch=1 n=e6 v=106
144024 Par ch=1 c=64 v=63
144042 Par ch=1 c=64 v=127
144066 On ch=1 n=a6 v=100
144080 On ch=1 n=b6 v=0
144106 On ch=1 n=g#4 v=108
144148 On ch=1 n=b6 v=97
144152 On ch=1 n=e6 v=0
144184 On ch=1 n=a6 v=0
144216 On ch=1 n=b6 v=0
144236 On ch=1 n=b4 v=114
144366 On ch=1 n=e5 v=92
144468 On ch=1 n=g#5 v=107
144498 On ch=1 n=e5 v=0
144508 On ch=1 n=e4 v=0
144534 On ch=1 n=b4 v=0
144534 On ch=1 n=g#4 v=0
144572 On ch=1 n=b5 v=99
144580 On ch=1 n=g#5 v=0
144642 On ch=1 n=b5 v=0
144734 Par ch=1 c=64 v=63
144738 On ch=1 n=d4 v=125
144744 Par ch=1 c=64 v=0
144758 On ch=1 n=b6 v=111
144764 On ch=1 n=e6 v=108
144802 Par ch=1 c=64 v=63
144816 Par ch=1 c=64 v=127
144840 On ch=1 n=b6 v=0
144846 On ch=1 n=c7 v=93
144872 On ch=1 n=g#4 v=99
144910 On ch=1 n=b6 v=107
144936 On ch=1 n=e6 v=0
144968 On ch=1 n=c7 v=0
145000 On ch=1 n=b6 v=0
145028 On ch=1 n=b4 v=113
145166 On ch=1 n=e5 v=104
145294 On ch=1 n=g#5 v=112
145298 On ch=1 n=b4 v=0
145314 On ch=1 n=g#4 v=0
145322 On ch=1 n=e5 v=0
145368 On ch=1 n=d4 v=0
145422 On ch=1 n=g#5 v=0
145442 On ch=1 n=b5 v=107
145518 On ch=1 n=b5 v=0
145722 On ch=1 n=a2 v=126
145732 On ch=1 n=b6 v=108
145740 On ch=1 n=g6 v=98
145742 On ch=1 n=e6 v=100
145780 Par ch=1 c=64 v=63
145786 Par ch=1 c=64 v=0
145836 On ch=1 n=d7 v=107
145848 On ch=1 n=c3 v=102
145870 Par ch=1 c=64 v=63
145874 On ch=1 n=b6 v=0
145878 Par ch=1 c=64 v=127
145960 On ch=1 n=b6 v=96
145964 On ch=1 n=d7 v=0
145998 On ch=1 n=g6 v=0
146004 On ch=1 n=e3 v=111
146040 On ch=1 n=e6 v=0
146068 On ch=1 n=c3 v=0
146084 On ch=1 n=b6 v=0
146144 On ch=1 n=a2 v=0
146154 On ch=1 n=g3 v=104
146184 On ch=1 n=e3 v=0
146260 On ch=1 n=g3 v=0
146302 On ch=1 n=b3 v=109
146424 On ch=1 n=d4 v=94
146458 On ch=1 n=b3 v=0
146554 On ch=1 n=d4 v=0
146570 On ch=1 n=a3 v=113
146648 Par ch=1 c=64 v=63
146656 Par ch=1 c=64 v=0
146696 On ch=1 n=c4 v=92
146806 On ch=1 n=e4 v=98
146856 Par ch=1 c=64 v=127
146952 On ch=1 n=g4 v=90
146968 On ch=1 n=a3 v=0
146992 On ch=1 n=c4 v=0
147028 On ch=1 n=e4 v=0
147066 On ch=1 n=b4 v=94
147098 On ch=1 n=g4 v=0
147162 On ch=1 n=d5 v=107
147188 On ch=1 n=b4 v=0
147240 On ch=1 n=d5 v=0
147272 On ch=1 n=a4 v=93
147350 Par ch=1 c=64 v=63
147362 Par ch=1 c=64 v=0
147372 On ch=1 n=c5 v=78
147388 Par ch=1 c=64 v=63
147412 Par ch=1 c=64 v=127
147480 On ch=1 n=e5 v=96
147562 On ch=1 n=a4 v=0
147574 On ch=1 n=c5 v=0
147576 On ch=1 n=g5 v=91
147606 On ch=1 n=e5 v=0
147680 On ch=1 n=b5 v=101
147702 On ch=1 n=g5 v=0
147790 On ch=1 n=d6 v=103
147820 On ch=1 n=b5 v=0
147850 On ch=1 n=d6 v=0
147896 On ch=1 n=a5 v=101
147988 On ch=1 n=c6 v=88
148084 On ch=1 n=e6 v=101
148182 On ch=1 n=g6 v=97
148184 On ch=1 n=a5 v=0
148200 On ch=1 n=c6 v=0
148222 On ch=1 n=e6 v=0
148288 On ch=1 n=b6 v=102
148320 On ch=1 n=g6 v=0
148386 On ch=1 n=d7 v=107
148414 On ch=1 n=b6 v=0
148458 On ch=1 n=d7 v=0
148510 On ch=1 n=f#7 v=118
148636 On ch=1 n=a7 v=87
148742 On ch=1 n=c8 v=109
148748 On ch=1 n=a7 v=0
148830 On ch=1 n=e8 v=111
148854 On ch=1 n=f#7 v=0
148862 On ch=1 n=c8 v=0
148930 On ch=1 n=g8 v=107
148954 On ch=1 n=e8 v=0
149018 On ch=1 n=e8 v=111
149066 On ch=1 n=g8 v=0
149114 On ch=1 n=d8 v=108
149158 On ch=1 n=e8 v=0
149160 On ch=1 n=g7 v=109
149164 On ch=1 n=a6 v=85
149228 On ch=1 n=e8 v=107
149248 On ch=1 n=d8 v=0
149342 On ch=1 n=c8 v=93
149348 On ch=1 n=g7 v=0
149358 On ch=1 n=e8 v=0
149418 On ch=1 n=c8 v=0
149446 On ch=1 n=e7 v=98
149458 On ch=1 n=b7 v=99
149552 On ch=1 n=b7 v=0
149556 On ch=1 n=c8 v=100
149570 On ch=1 n=e7 v=0
149650 On ch=1 n=a7 v=99
149680 On ch=1 n=c8 v=0
149700 On ch=1 n=a6 v=0
149744 On ch=1 n=g7 v=89
149754 On ch=1 n=a7 v=0
149754 On ch=1 n=c7 v=77
149820 On ch=1 n=g7 v=0
149834 On ch=1 n=c7 v=0
149848 On ch=1 n=a7 v=87
149950 On ch=1 n=f#7 v=96
149962 On ch=1 n=a7 v=0
150046 On ch=1 n=f#7 v=0
150052 On ch=1 n=e7 v=84
150054 On ch=1 n=a6 v=83
150112 On ch=1 n=a6 v=0
150124 On ch=1 n=e7 v=0
150138 On ch=1 n=f#7 v=99
150244 On ch=1 n=d7 v=90
150260 On ch=1 n=f#7 v=0
150358 On ch=1 n=d7 v=0
150358 On ch=1 n=c7 v=85
150366 On ch=1 n=g6 v=86
150390 On ch=1 n=a5 v=54
150428 On ch=1 n=c7 v=0
150444 On ch=1 n=d7 v=92
150550 On ch=1 n=d7 v=0
150560 On ch=1 n=g6 v=0
150560 On ch=1 n=b6 v=91
150656 On ch=1 n=b6 v=0
150666 On ch=1 n=a6 v=89
150676 On ch=1 n=e6 v=74
150748 On ch=1 n=a6 v=0
150758 On ch=1 n=e6 v=0
150772 On ch=1 n=b6 v=84
150878 On ch=1 n=b6 v=0
150882 On ch=1 n=g6 v=71
150962 On ch=1 n=a5 v=0
150978 On ch=1 n=f#6 v=97
150978 On ch=1 n=c6 v=62
150986 On ch=1 n=g6 v=0
151042 On ch=1 n=c6 v=0
151072 On ch=1 n=f#6 v=0
151080 On ch=1 n=g6 v=77
151188 On ch=1 n=g6 v=0
151190 On ch=1 n=e6 v=50
151278 On ch=1 n=e6 v=0
151278 On ch=1 n=d6 v=65
151282 On ch=1 n=a5 v=73
151344 On ch=1 n=a5 v=0
151348 On ch=1 n=d6 v=0
151378 On ch=1 n=e6 v=78
151482 On ch=1 n=c6 v=78
151492 On ch=1 n=e6 v=0
151590 On ch=1 n=g5 v=72
151594 On ch=1 n=c6 v=0
151594 On ch=1 n=b5 v=77
151600 On ch=1 n=a4 v=48
151660 Par ch=1 c=64 v=63
151674 On ch=1 n=b5 v=0
151674 Par ch=1 c=64 v=127
151692 On ch=1 n=c6 v=81
151734 On ch=1 n=g5 v=0
151796 On ch=1 n=a5 v=68
151810 On ch=1 n=c6 v=0
151894 On ch=1 n=a5 v=0
151894 On ch=1 n=g5 v=69
151908 On ch=1 n=e5 v=60
151958 On ch=1 n=e5 v=0
151976 On ch=1 n=g5 v=0
151992 On ch=1 n=a5 v=75
152108 On ch=1 n=f#5 v=87
152110 On ch=1 n=a5 v=0
152194 On ch=1 n=f#5 v=0
152202 On ch=1 n=a4 v=0
152212 On ch=1 n=e5 v=63
152234 On ch=1 n=c5 v=55
152272 On ch=1 n=c5 v=0
152308 On ch=1 n=f#5 v=88
152320 On ch=1 n=e5 v=0
152416 On ch=1 n=f#5 v=0
152418 On ch=1 n=d5 v=76
152510 On ch=1 n=d5 v=0
152534 On ch=1 n=g4 v=70
152546 On ch=1 n=c5 v=74
152554 On ch=1 n=a3 v=44
152646 On ch=1 n=c5 v=0
152652 On ch=1 n=d5 v=76
152746 On ch=1 n=b4 v=70
152758 On ch=1 n=d5 v=0
152784 On ch=1 n=g4 v=0
152860 On ch=1 n=b4 v=0
152862 On ch=1 n=a4 v=67
152868 On ch=1 n=e4 v=61
152948 On ch=1 n=a4 v=0
152956 On ch=1 n=b4 v=79
152986 On ch=1 n=e4 v=0
153080 On ch=1 n=g4 v=65
153086 On ch=1 n=b4 v=0
153214 On ch=1 n=g4 v=0
153218 On ch=1 n=f#4 v=86
153228 On ch=1 n=b3 v=45
153244 On ch=1 n=a3 v=0
153330 On ch=1 n=f#4 v=0
153330 On ch=1 n=g4 v=58
153358 Par ch=1 c=64 v=63
153378 Par ch=1 c=64 v=0
153476 On ch=1 n=d4 v=68
153488 Par ch=1 c=64 v=63
153504 On ch=1 n=g4 v=0
153504 Par ch=1 c=64 v=127
153536 On ch=1 n=b3 v=0
153744 On ch=1 n=e3 v=61
153760 On ch=1 n=d4 v=0
153776 On ch=1 n=g4 v=57
153780 On ch=1 n=e5 v=65
153818 Par ch=1 c=64 v=63
153842 Par ch=1 c=64 v=127
153980 On ch=1 n=d5 v=71
154018 On ch=1 n=e5 v=0
154048 On ch=1 n=g4 v=0
154066 Par ch=1 c=67 v=127
154122 On ch=1 n=d5 v=0
154148 On ch=1 n=a4 v=52
154150 On ch=1 n=g4 v=49
154224 On ch=1 n=g4 v=0
154236 On ch=1 n=b3 v=63
154250 On ch=1 n=b4 v=80
154262 On ch=1 n=a4 v=0
154324 On ch=1 n=e3 v=0
154350 On ch=1 n=d5 v=86
154360 On ch=1 n=b4 v=0
154448 On ch=1 n=d5 v=0
154460 On ch=1 n=f#5 v=82
154558 On ch=1 n=b3 v=0
154562 On ch=1 n=g4 v=77
154570 On ch=1 n=f#5 v=0
154582 On ch=1 n=e5 v=88
154600 Par ch=1 c=64 v=63
154616 Par ch=1 c=64 v=0
154642 Par ch=1 c=64 v=63
154670 On ch=1 n=d5 v=93
154676 Par ch=1 c=64 v=127
154692 On ch=1 n=g4 v=0
154710 On ch=1 n=e5 v=0
154768 On ch=1 n=a4 v=80
154780 On ch=1 n=d5 v=0
154882 On ch=1 n=b3 v=71
154886 On ch=1 n=a4 v=0
154892 On ch=1 n=b4 v=87
154970 On ch=1 n=b3 v=0
154984 On ch=1 n=d5 v=89
154992 On ch=1 n=b4 v=0
155068 On ch=1 n=d5 v=0
155078 On ch=1 n=f#5 v=88
155144 On ch=1 n=f#5 v=0
155200 Par ch=1 c=64 v=63
155208 Par ch=1 c=64 v=0
155226 On ch=1 n=a3 v=82
155252 On ch=1 n=e5 v=88
155252 On ch=1 n=b4 v=86
155258 On ch=1 n=c5 v=87
155278 Par ch=1 c=64 v=63
155294 Par ch=1 c=64 v=127
155312 On ch=1 n=e5 v=0
155316 On ch=1 n=f#5 v=94
155320 On ch=1 n=b4 v=0
155324 On ch=1 n=a3 v=0
155362 On ch=1 n=a4 v=52
155370 On ch=1 n=c5 v=0
155378 On ch=1 n=e5 v=92
155386 On ch=1 n=f#5 v=0
155452 On ch=1 n=d5 v=90
155464 On ch=1 n=a4 v=0
155476 On ch=1 n=e5 v=0
155486 On ch=1 n=e4 v=68
155518 On ch=1 n=e5 v=83
155544 On ch=1 n=d5 v=0
155586 On ch=1 n=f#4 v=75
155604 Par ch=1 c=64 v=63
155614 Par ch=1 c=64 v=0
155638 On ch=1 n=e4 v=0
155640 Par ch=1 c=64 v=63
155660 Par ch=1 c=64 v=127
155668 On ch=1 n=a4 v=72
155692 On ch=1 n=e5 v=0
155746 On ch=1 n=f#4 v=0
155792 On ch=1 n=d5 v=83
155808 On ch=1 n=a4 v=0
155862 On ch=1 n=d5 v=0
155952 On ch=1 n=a3 v=85
155980 On ch=1 n=e5 v=34
155984 On ch=1 n=c5 v=57
155990 On ch=1 n=b4 v=37
155996 Par ch=1 c=64 v=63
156002 Par ch=1 c=64 v=0
156026 On ch=1 n=f#5 v=91
156028 On ch=1 n=e5 v=0
156058 Par ch=1 c=64 v=63
156066 On ch=1 n=b4 v=0
156068 On ch=1 n=a3 v=0
156074 On ch=1 n=c5 v=0
156074 Par ch=1 c=64 v=127
156086 On ch=1 n=e5 v=75
156092 On ch=1 n=f#5 v=0
156106 On ch=1 n=a4 v=55
156172 On ch=1 n=d5 v=85
156188 On ch=1 n=a4 v=0
156190 On ch=1 n=e5 v=0
156238 On ch=1 n=e4 v=57
156250 On ch=1 n=e5 v=66
156266 On ch=1 n=d5 v=0
156350 On ch=1 n=f#4 v=63
156378 On ch=1 n=e4 v=0
156394 On ch=1 n=e5 v=0
156428 On ch=1 n=a4 v=60
156478 On ch=1 n=f#4 v=0
156562 On ch=1 n=a4 v=0
156566 On ch=1 n=d5 v=78
156628 On ch=1 n=d5 v=0
156840 On ch=1 n=e3 v=71
156846 On ch=1 n=e5 v=64
156862 On ch=1 n=g4 v=44
156908 Par ch=1 c=64 v=63
156922 Par ch=1 c=64 v=0
156954 Par ch=1 c=64 v=63
156984 Par ch=1 c=64 v=127
157006 On ch=1 n=d5 v=75
157028 On ch=1 n=e5 v=0
157042 On ch=1 n=g4 v=0
157120 On ch=1 n=d5 v=0
157138 On ch=1 n=a4 v=68
157206 On ch=1 n=e3 v=0
157224 On ch=1 n=b3 v=69
157234 On ch=1 n=a4 v=0
157236 On ch=1 n=b4 v=73
157320 On ch=1 n=d5 v=86
157332 On ch=1 n=b4 v=0
157428 On ch=1 n=f#5 v=97
157430 On ch=1 n=d5 v=0
157518 On ch=1 n=b3 v=0
157534 On ch=1 n=g4 v=64
157540 On ch=1 n=f#5 v=0
157548 On ch=1 n=e5 v=83
157574 Par ch=1 c=64 v=63
157590 Par ch=1 c=64 v=0
157636 On ch=1 n=g4 v=0
157648 Par ch=1 c=64 v=63
157650 On ch=1 n=d5 v=94
157674 Par ch=1 c=64 v=127
157686 On ch=1 n=e5 v=0
157754 On ch=1 n=d5 v=0
157758 On ch=1 n=a4 v=79
157864 On ch=1 n=a4 v=0
157866 On ch=1 n=b3 v=73
157876 On ch=1 n=b4 v=79
157942 On ch=1 n=b3 v=0
157960 On ch=1 n=d5 v=85
157968 On ch=1 n=b4 v=0
158038 On ch=1 n=d5 v=0
158062 On ch=1 n=f#5 v=89
158130 On ch=1 n=f#5 v=0
158202 Par ch=1 c=64 v=63
158214 Par ch=1 c=64 v=0
158216 On ch=1 n=a3 v=79
158246 On ch=1 n=e5 v=78
158248 On ch=1 n=b4 v=73
158256 On ch=1 n=c5 v=71
158276 Par ch=1 c=64 v=63
158296 On ch=1 n=e5 v=0
158298 Par ch=1 c=64 v=127
158306 On ch=1 n=f#5 v=92
158332 On ch=1 n=b4 v=0
158344 On ch=1 n=a3 v=0
158368 On ch=1 n=e5 v=87
158380 On ch=1 n=f#5 v=0
158390 On ch=1 n=a4 v=29
158396 On ch=1 n=c5 v=0
158462 On ch=1 n=d5 v=88
158482 On ch=1 n=a4 v=0
158488 On ch=1 n=e5 v=0
158498 On ch=1 n=e4 v=66
158522 On ch=1 n=e5 v=57
158562 On ch=1 n=d5 v=0
158604 On ch=1 n=f#4 v=65
158626 On ch=1 n=e5 v=0
158640 On ch=1 n=e4 v=0
158686 On ch=1 n=a4 v=60
158738 On ch=1 n=f#4 v=0
158814 On ch=1 n=d5 v=74
158818 On ch=1 n=a4 v=0
158888 On ch=1 n=d5 v=0
158990 On ch=1 n=a3 v=58
158990 Par ch=1 c=64 v=63
158996 On ch=1 n=g3 v=61
159006 Par ch=1 c=64 v=0
159010 On ch=1 n=e5 v=52
159012 On ch=1 n=b4 v=53
159016 On ch=1 n=c5 v=43
159032 On ch=1 n=g3 v=0
159036 Par ch=1 c=64 v=63
159054 On ch=1 n=f#5 v=89
159058 On ch=1 n=e5 v=0
159066 Par ch=1 c=64 v=127
159100 On ch=1 n=a3 v=0
159106 On ch=1 n=b4 v=0
159120 On ch=1 n=e5 v=68
159128 On ch=1 n=f#5 v=0
159136 On ch=1 n=a4 v=41
159164 On ch=1 n=c5 v=0
159198 On ch=1 n=d5 v=87
159218 On ch=1 n=e5 v=0
159242 On ch=1 n=a4 v=0
159282 On ch=1 n=e4 v=37
159288 On ch=1 n=e5 v=70
159298 On ch=1 n=d5 v=0
159378 On ch=1 n=f#4 v=80
159440 Par ch=1 c=64 v=63
159454 Par ch=1 c=64 v=127
159508 On ch=1 n=a4 v=57
159532 On ch=1 n=e5 v=0
159556 On ch=1 n=e4 v=0
159676 On ch=1 n=d5 v=66
159690 On ch=1 n=a4 v=0
159694 On ch=1 n=f#4 v=0
159746 On ch=1 n=d5 v=0
159962 On ch=1 n=e5 v=66
159962 On ch=1 n=g4 v=56
159982 On ch=1 n=e3 v=65
160020 Par ch=1 c=64 v=63
160036 Par ch=1 c=64 v=0
160074 Par ch=1 c=64 v=63
160106 Par ch=1 c=64 v=127
160152 On ch=1 n=d5 v=72
160194 On ch=1 n=e5 v=0
160198 On ch=1 n=g4 v=0
160266 On ch=1 n=d5 v=0
160294 On ch=1 n=a4 v=75
160392 On ch=1 n=e3 v=0
160396 On ch=1 n=b3 v=63
160406 On ch=1 n=a4 v=0
160412 On ch=1 n=b4 v=73
160494 On ch=1 n=b4 v=0
160516 On ch=1 n=d5 v=71
160586 On ch=1 n=d5 v=0
160648 On ch=1 n=f#5 v=73
160678 On ch=1 n=b3 v=0
160710 On ch=1 n=f#5 v=0
160758 On ch=1 n=g4 v=59
160774 On ch=1 n=e5 v=80
160830 On ch=1 n=g4 v=0
160898 On ch=1 n=e5 v=0
160910 On ch=1 n=g5 v=76
161010 On ch=1 n=a5 v=80
161014 On ch=1 n=g5 v=0
161066 On ch=1 n=a5 v=0
161102 On ch=1 n=b4 v=71
161136 On ch=1 n=b5 v=73
161234 On ch=1 n=d6 v=97
161250 On ch=1 n=b5 v=0
161338 On ch=1 n=d6 v=0
161354 On ch=1 n=f#6 v=90
161456 On ch=1 n=f#6 v=0
161550 On ch=1 n=g5 v=62
161566 On ch=1 n=e6 v=93
161638 Par ch=1 c=64 v=63
161704 Par ch=1 c=64 v=127
161742 On ch=1 n=g5 v=0
161744 On ch=1 n=d6 v=75
161792 On ch=1 n=e6 v=0
161802 On ch=1 n=b4 v=0
161864 On ch=1 n=a5 v=70
161870 On ch=1 n=d6 v=0
161942 On ch=1 n=a5 v=0
161972 On ch=1 n=b5 v=80
162108 On ch=1 n=a5 v=65
162118 On ch=1 n=b5 v=0
162216 On ch=1 n=d5 v=68
162242 On ch=1 n=a5 v=0
162302 On ch=1 n=d5 v=0
162334 On ch=1 n=e5 v=69
162430 On ch=1 n=d5 v=79
162448 On ch=1 n=e5 v=0
162516 On ch=1 n=d5 v=0
162524 On ch=1 n=a4 v=76
162594 On ch=1 n=a4 v=0
162632 On ch=1 n=b4 v=83
162758 On ch=1 n=a4 v=68
162776 On ch=1 n=b4 v=0
162856 On ch=1 n=d4 v=71
162890 On ch=1 n=a4 v=0
162912 Par ch=1 c=64 v=63
162926 Par ch=1 c=64 v=0
162930 On ch=1 n=d4 v=0
162950 Par ch=1 c=64 v=63
162970 On ch=1 n=e4 v=80
162980 Par ch=1 c=64 v=127
163056 On ch=1 n=d4 v=80
163060 On ch=1 n=e4 v=0
163156 On ch=1 n=d4 v=0
163176 On ch=1 n=a3 v=59
163236 On ch=1 n=a3 v=0
163284 On ch=1 n=b3 v=87
163400 On ch=1 n=a3 v=65
163418 On ch=1 n=b3 v=0
163502 On ch=1 n=d3 v=71
163522 Par ch=1 c=64 v=63
163536 Par ch=1 c=64 v=0
163540 On ch=1 n=a3 v=0
163586 On ch=1 n=d3 v=0
163616 Par ch=1 c=64 v=63
163634 Par ch=1 c=64 v=127
163634 On ch=1 n=e3 v=73
163728 On ch=1 n=e3 v=0
163738 On ch=1 n=d3 v=52
163780 On ch=1 n=d3 v=0
163826 On ch=1 n=a2 v=74
163912 On ch=1 n=a2 v=0
163984 On ch=1 n=b2 v=60
164108 On ch=1 n=a2 v=63
164124 On ch=1 n=b2 v=0
164248 On ch=1 n=a2 v=0
164248 On ch=1 n=d2 v=70
164264 Par ch=1 c=64 v=63
164332 Par ch=1 c=64 v=0
164444 On ch=1 n=d2 v=0
164488 On ch=1 n=e2 v=84
165328 Par ch=1 c=64 v=63
165338 Par ch=1 c=64 v=0
166522 Par ch=1 c=64 v=63
166528 Par ch=1 c=64 v=127
166968 On ch=1 n=g2 v=43
167118 On ch=1 n=a2 v=48
167234 On ch=1 n=b2 v=42
167302 On ch=1 n=d3 v=56
167312 On ch=1 n=e2 v=0
167348 On ch=1 n=g2 v=0
167352 On ch=1 n=a2 v=0
167354 On ch=1 n=b2 v=0
167386 On ch=1 n=d3 v=0
167398 On ch=1 n=e3 v=51
167508 On ch=1 n=e3 v=0
167524 On ch=1 n=g3 v=50
167564 On ch=1 n=a3 v=55
167618 On ch=1 n=b3 v=49
167656 On ch=1 n=g3 v=0
167662 On ch=1 n=d4 v=70
167710 On ch=1 n=a3 v=0
167716 On ch=1 n=e4 v=69
167724 On ch=1 n=b3 v=0
167734 On ch=1 n=d4 v=0
167822 On ch=1 n=g4 v=79
167894 On ch=1 n=a4 v=65
167946 On ch=1 n=b4 v=78
167950 On ch=1 n=e4 v=0
167994 On ch=1 n=d5 v=85
168020 On ch=1 n=g4 v=0
168032 On ch=1 n=a4 v=0
168044 On ch=1 n=b4 v=0
168062 On ch=1 n=d5 v=0
168088 On ch=1 n=e5 v=50
168138 On ch=1 n=g5 v=77
168184 On ch=1 n=e5 v=0
168190 On ch=1 n=a5 v=76
168224 On ch=1 n=b5 v=73
168268 On ch=1 n=d6 v=76
168280 On ch=1 n=g5 v=0
168312 On ch=1 n=a5 v=0
168322 On ch=1 n=b5 v=0
168322 On ch=1 n=e6 v=82
168326 On ch=1 n=d6 v=0
168420 On ch=1 n=g6 v=75
168500 On ch=1 n=a6 v=75
168588 On ch=1 n=b6 v=74
168672 On ch=1 n=e6 v=0
168680 On ch=1 n=d7 v=78
168682 On ch=1 n=a6 v=0
168700 On ch=1 n=g6 v=0
168732 On ch=1 n=b6 v=0
168796 On ch=1 n=e6 v=77
168798 On ch=1 n=e7 v=92
168806 On ch=1 n=b6 v=57
168808 On ch=1 n=g6 v=63
168940 On ch=1 n=d7 v=0
168978 On ch=1 n=d7 v=38
168988 On ch=1 n=e6 v=0
169002 On ch=1 n=b6 v=0
169020 On ch=1 n=e7 v=0
169022 On ch=1 n=g6 v=0
169024 On ch=1 n=f#7 v=84
169084 On ch=1 n=d7 v=0
169106 On ch=1 n=b6 v=41
169112 On ch=1 n=f#7 v=0
169112 On ch=1 n=e6 v=41
169120 On ch=1 n=g6 v=21
169124 On ch=1 n=e7 v=73
169182 On ch=1 n=d7 v=71
169188 On ch=1 n=b6 v=0
169192 On ch=1 n=g6 v=0
169194 On ch=1 n=e6 v=0
169194 On ch=1 n=f#7 v=85
169198 On ch=1 n=e7 v=0
169274 On ch=1 n=f#7 v=0
169274 On ch=1 n=d7 v=0
169276 On ch=1 n=e7 v=89
169276 On ch=1 n=b6 v=67
169288 On ch=1 n=g6 v=38
169294 On ch=1 n=e6 v=61
169336 On ch=1 n=e6 v=0
169338 On ch=1 n=d7 v=74
169340 On ch=1 n=g6 v=0
169340 On ch=1 n=f#7 v=87
169356 On ch=1 n=b6 v=0
169358 On ch=1 n=e7 v=0
169404 On ch=1 n=e7 v=90
169410 On ch=1 n=f#7 v=0
169426 On ch=1 n=d7 v=0
169428 On ch=1 n=b6 v=76
169438 On ch=1 n=g6 v=62
169444 On ch=1 n=e6 v=56
169464 On ch=1 n=f#7 v=94
169484 On ch=1 n=e6 v=0
169486 On ch=1 n=e7 v=0
169488 On ch=1 n=g6 v=0
169492 On ch=1 n=d7 v=86
169506 On ch=1 n=b6 v=0
169534 On ch=1 n=e7 v=86
169536 On ch=1 n=f#7 v=0
169570 On ch=1 n=b6 v=71
169574 On ch=1 n=g6 v=71
169578 On ch=1 n=d7 v=0
169580 On ch=1 n=e6 v=68
169584 On ch=1 n=f#7 v=93
169610 On ch=1 n=e7 v=0
169620 On ch=1 n=e6 v=0
169620 On ch=1 n=g6 v=0
169626 On ch=1 n=d7 v=98
169640 On ch=1 n=b6 v=0
169648 On ch=1 n=e7 v=97
169654 On ch=1 n=f#7 v=0
169688 On ch=1 n=b6 v=69
169700 On ch=1 n=g6 v=82
169700 On ch=1 n=f#7 v=99
169706 On ch=1 n=d7 v=0
169710 On ch=1 n=e6 v=68
169724 On ch=1 n=e7 v=0
169746 On ch=1 n=e6 v=0
169748 On ch=1 n=g6 v=0
169752 On ch=1 n=d7 v=100
169768 On ch=1 n=e7 v=97
169770 On ch=1 n=b6 v=0
169776 On ch=1 n=f#7 v=0
169820 On ch=1 n=b6 v=67
169822 On ch=1 n=f#7 v=100
169824 On ch=1 n=g6 v=76
169834 On ch=1 n=d7 v=0
169836 On ch=1 n=e6 v=63
169846 On ch=1 n=e7 v=0
169872 On ch=1 n=e6 v=0
169882 On ch=1 n=g6 v=0
169882 On ch=1 n=d7 v=94
169892 On ch=1 n=e7 v=85
169902 On ch=1 n=f#7 v=0
169908 On ch=1 n=b6 v=0
169942 On ch=1 n=f#7 v=95
169956 On ch=1 n=d7 v=0
169958 On ch=1 n=b6 v=60
169964 On ch=1 n=e7 v=0
170006 On ch=1 n=d7 v=85
170008 On ch=1 n=e7 v=81
170012 On ch=1 n=f#7 v=0
170038 On ch=1 n=b6 v=0
170066 On ch=1 n=f#7 v=92
170088 On ch=1 n=e7 v=0
170090 On ch=1 n=b6 v=60
170098 On ch=1 n=d7 v=0
170104 On ch=1 n=g6 v=59
170106 On ch=1 n=e6 v=65
170138 On ch=1 n=e7 v=83
170140 On ch=1 n=f#7 v=0
170144 On ch=1 n=d7 v=84
170146 On ch=1 n=g6 v=0
170154 On ch=1 n=e6 v=0
170164 On ch=1 n=b6 v=0
170198 On ch=1 n=f#7 v=88
170218 On ch=1 n=e7 v=0
170222 On ch=1 n=b6 v=60
170236 On ch=1 n=d7 v=0
170236 On ch=1 n=g6 v=63
170252 On ch=1 n=e6 v=52
170262 On ch=1 n=e7 v=74
170268 On ch=1 n=f#7 v=0
170282 On ch=1 n=d7 v=86
170292 On ch=1 n=e6 v=0
170294 On ch=1 n=g6 v=0
170298 On ch=1 n=b6 v=0
170324 On ch=1 n=f#7 v=88
170348 On ch=1 n=e7 v=0
170360 On ch=1 n=b6 v=59
170368 On ch=1 n=d7 v=0
170370 On ch=1 n=e6 v=58
170372 On ch=1 n=g6 v=57
170394 On ch=1 n=e7 v=68
170400 On ch=1 n=f#7 v=0
170416 On ch=1 n=g6 v=0
170416 On ch=1 n=d7 v=79
170420 On ch=1 n=e6 v=0
170438 On ch=1 n=b6 v=0
170448 On ch=1 n=f#7 v=86
170472 On ch=1 n=e7 v=0
170492 On ch=1 n=b6 v=63
170500 On ch=1 n=g6 v=60
170502 On ch=1 n=d7 v=0
170502 On ch=1 n=e6 v=64
170526 On ch=1 n=e7 v=71
170528 On ch=1 n=f#7 v=0
170552 On ch=1 n=d7 v=76
170554 On ch=1 n=g6 v=0
170558 On ch=1 n=e6 v=0
170574 On ch=1 n=b6 v=0
170580 On ch=1 n=f#7 v=80
170604 On ch=1 n=e7 v=0
170630 On ch=1 n=b6 v=66
170632 On ch=1 n=d7 v=0
170644 On ch=1 n=e6 v=63
170648 On ch=1 n=g6 v=33
170648 On ch=1 n=e7 v=51
170658 On ch=1 n=f#7 v=0
170684 On ch=1 n=d7 v=76
170692 On ch=1 n=e6 v=0
170694 On ch=1 n=g6 v=0
170706 On ch=1 n=f#7 v=78
170714 On ch=1 n=b6 v=0
170726 On ch=1 n=e7 v=0
170768 On ch=1 n=b6 v=58
170770 On ch=1 n=e7 v=41
170772 On ch=1 n=d7 v=0
170784 On ch=1 n=f#7 v=0
170788 On ch=1 n=e6 v=48
170790 On ch=1 n=g6 v=27
170822 On ch=1 n=d7 v=76
170832 On ch=1 n=e6 v=0
170832 On ch=1 n=f#7 v=79
170840 On ch=1 n=g6 v=0
170850 On ch=1 n=e7 v=0
170852 On ch=1 n=b6 v=0
170898 On ch=1 n=e7 v=33
170914 On ch=1 n=f#7 v=0
170914 On ch=1 n=d7 v=0
170914 On ch=1 n=b6 v=60
170934 On ch=1 n=e6 v=60
170944 On ch=1 n=g6 v=29
170968 On ch=1 n=f#7 v=71
170974 On ch=1 n=d7 v=78
170984 On ch=1 n=e7 v=0
170990 On ch=1 n=e6 v=0
171002 On ch=1 n=g6 v=0
171002 On ch=1 n=b6 v=0
171026 On ch=1 n=e7 v=30
171044 On ch=1 n=f#7 v=0
171068 On ch=1 n=d7 v=0
171078 On ch=1 n=b6 v=39
171102 On ch=1 n=e6 v=37
171104 On ch=1 n=f#7 v=72
171110 On ch=1 n=g6 v=16
171120 On ch=1 n=e7 v=0
171122 On ch=1 n=d7 v=69
171154 On ch=1 n=e6 v=0
171166 On ch=1 n=b6 v=0
171166 On ch=1 n=e7 v=35
171168 On ch=1 n=g6 v=0
171180 On ch=1 n=f#7 v=0
171230 On ch=1 n=d7 v=0
171236 On ch=1 n=f#7 v=68
171244 On ch=1 n=e7 v=0
171246 On ch=1 n=b6 v=33
171282 On ch=1 n=e6 v=19
171292 On ch=1 n=d7 v=54
171310 On ch=1 n=e7 v=45
171312 On ch=1 n=f#7 v=0
171330 On ch=1 n=e6 v=0
171338 On ch=1 n=b6 v=0
171386 On ch=1 n=f#7 v=70
171394 On ch=1 n=e7 v=0
171414 On ch=1 n=d7 v=0
171430 On ch=1 n=b6 v=22
171448 On ch=1 n=e6 v=32
171452 On ch=1 n=e7 v=45
171464 On ch=1 n=f#7 v=0
171480 On ch=1 n=d7 v=60
171506 On ch=1 n=b6 v=0
171508 On ch=1 n=e6 v=0
171534 On ch=1 n=f#7 v=67
171540 On ch=1 n=e7 v=0
171608 On ch=1 n=f#7 v=0
171610 On ch=1 n=e7 v=44
171630 On ch=1 n=d7 v=0
171632 On ch=1 n=b6 v=39
171668 On ch=1 n=f#7 v=58
171690 On ch=1 n=e7 v=0
171702 On ch=1 n=d7 v=49
171710 On ch=1 n=b6 v=0
171774 On ch=1 n=f#7 v=0
171784 On ch=1 n=e7 v=40
171842 On ch=1 n=f#7 v=60
171870 On ch=1 n=e7 v=0
171896 On ch=1 n=b6 v=40
171916 On ch=1 n=g6 v=20
171934 On ch=1 n=e6 v=27
171940 On ch=1 n=e7 v=48
171950 On ch=1 n=f#7 v=0
172910 On ch=1 n=e7 v=0
172910 On ch=1 n=b6 v=0
172916 On ch=1 n=e6 v=0
172918 On ch=1 n=d7 v=0
172932 On ch=1 n=g6 v=0
173040 Par ch=1 c=64 v=63
173086 Par ch=1 c=64 v=0
173860 Par ch=1 c=67 v=0
173860 Meta TrkEnd
TrkEnd
