MFile 1 2 480
MTrk
0 Tempo 500000
0 TimeSig 2/4 24 8
0 Meta TrkEnd
TrkEnd
MTrk
0 SeqSpec 43 00 01 00
0 Meta TrkName "<Master Volume>"
0 Meta 0x21 00
0 SysEx f0 41 10 42 12 40 00 7f 00 41 f7
0 SysEx f0 41 10 42 12 40 00 04 64 58 f7
192 Meta Text "<Master Reverve>"
192 SysEx f0 41 10 42 12 40 01 30 03 0c f7
192 SysEx f0 41 10 42 12 40 01 33 3c 50 f7
192 SysEx f0 41 10 42 12 40 01 34 3c 4f f7
576 Par ch=1 c=0 v=0
580 Par ch=1 c=32 v=1
584 PrCh ch=1 p=0
642 Par ch=1 c=67 v=0
780 Par ch=1 c=7 v=100
972 Par ch=1 c=11 v=80
1164 Par ch=1 c=10 v=64
1356 Par ch=1 c=1 v=0
1356 Meta Text "<part reverve>"
1356 Par ch=1 c=91 v=80
1374 Par ch=1 c=67 v=0
1452 Par ch=1 c=99 v=1
1456 Par ch=1 c=98 v=32
1460 Par ch=1 c=6 v=62
1464 Par ch=1 c=99 v=1
1468 Par ch=1 c=98 v=33
1472 Par ch=1 c=6 v=54
1476 Par ch=1 c=99 v=1
1480 Par ch=1 c=98 v=99
1484 Par ch=1 c=6 v=62
1488 Par ch=1 c=99 v=1
1492 Par ch=1 c=98 v=100
1496 Par ch=1 c=6 v=60
1500 Par ch=1 c=99 v=1
1504 Par ch=1 c=98 v=102
1508 Par ch=1 c=6 v=70
2326 Par ch=1 c=64 v=63
2418 Par ch=1 c=64 v=0
3282 On ch=1 n=e5 v=120
3284 On ch=1 n=a5 v=127
3284 On ch=1 n=c5 v=114
3288 On ch=1 n=f4 v=106
3302 Par ch=1 c=64 v=127
3326 On ch=1 n=c5 v=0
3336 On ch=1 n=e5 v=0
3344 On ch=1 n=a5 v=0
3358 On ch=1 n=f4 v=0
3526 On ch=1 n=g5 v=102
3536 Par ch=1 c=64 v=63
3550 Par ch=1 c=64 v=0
3590 On ch=1 n=g5 v=0
3610 On ch=1 n=a5 v=99
3658 On ch=1 n=a5 v=0
3690 Par ch=1 c=64 v=63
3718 On ch=1 n=d4 v=50
3730 Par ch=1 c=64 v=127
3742 On ch=1 n=a4 v=108
3748 On ch=1 n=e5 v=116
3750 On ch=1 n=f4 v=96
3750 On ch=1 n=a5 v=117
3752 On ch=1 n=e6 v=107
3754 On ch=1 n=g6 v=92
3770 On ch=1 n=a5 v=0
3776 On ch=1 n=e6 v=0
3776 On ch=1 n=c6 v=28
3798 On ch=1 n=c6 v=0
3800 On ch=1 n=g6 v=0
3800 On ch=1 n=a4 v=0
3802 On ch=1 n=e5 v=0
3824 On ch=1 n=f4 v=0
3838 On ch=1 n=d4 v=0
4162 Par ch=1 c=64 v=63
4174 Par ch=1 c=64 v=0
4194 On ch=1 n=g3 v=91
4204 On ch=1 n=c6 v=112
4204 On ch=1 n=d4 v=89
4208 On ch=1 n=e6 v=104
4268 On ch=1 n=d4 v=0
4268 On ch=1 n=g3 v=0
4274 On ch=1 n=c6 v=0
4282 On ch=1 n=e6 v=0
4302 On ch=1 n=a5 v=100
4370 On ch=1 n=a5 v=0
4426 On ch=1 n=f5 v=101
4440 On ch=1 n=a4 v=90
4448 On ch=1 n=d4 v=75
4472 On ch=1 n=a4 v=0
4474 On ch=1 n=d4 v=0
4482 On ch=1 n=f5 v=0
4534 On ch=1 n=d5 v=83
4574 On ch=1 n=d5 v=0
4614 On ch=1 n=c3 v=87
4638 On ch=1 n=g3 v=87
4640 Par ch=1 c=64 v=63
4654 On ch=1 n=g5 v=104
4660 Par ch=1 c=64 v=127
4660 On ch=1 n=c6 v=88
4662 On ch=1 n=e5 v=97
4670 On ch=1 n=c5 v=76
4678 On ch=1 n=c3 v=0
4682 On ch=1 n=e4 v=113
4684 On ch=1 n=e5 v=0
4690 On ch=1 n=c6 v=0
4694 On ch=1 n=g5 v=0
4700 On ch=1 n=c5 v=0
4704 On ch=1 n=g3 v=0
4730 On ch=1 n=e4 v=0
4902 On ch=1 n=g5 v=103
4928 Par ch=1 c=64 v=63
4966 On ch=1 n=g5 v=0
4966 Par ch=1 c=64 v=0
5000 On ch=1 n=a5 v=100
5068 On ch=1 n=a5 v=0
5112 On ch=1 n=g5 v=104
5114 On ch=1 n=e5 v=102
5120 On ch=1 n=c6 v=107
5120 On ch=1 n=e6 v=106
5128 On ch=1 n=b5 v=100
5156 On ch=1 n=g5 v=0
5166 On ch=1 n=e5 v=0
5212 On ch=1 n=e6 v=0
5242 On ch=1 n=a5 v=88
5244 On ch=1 n=c6 v=0
5268 On ch=1 n=b5 v=0
5338 On ch=1 n=g5 v=94
5342 On ch=1 n=g6 v=87
5344 On ch=1 n=a5 v=0
5384 On ch=1 n=g6 v=0
5410 On ch=1 n=g5 v=0
5434 On ch=1 n=a5 v=93
5522 On ch=1 n=a5 v=0
5574 On ch=1 n=g5 v=104
5576 On ch=1 n=e6 v=106
5576 On ch=1 n=d5 v=100
5576 On ch=1 n=c6 v=104
5580 On ch=1 n=e5 v=94
5582 On ch=1 n=b5 v=100
5622 On ch=1 n=g5 v=0
5624 On ch=1 n=b5 v=0
5626 On ch=1 n=d5 v=0
5634 On ch=1 n=e5 v=0
5636 On ch=1 n=c6 v=0
5642 On ch=1 n=e6 v=0
5822 On ch=1 n=g6 v=93
5824 On ch=1 n=g5 v=97
5866 On ch=1 n=g6 v=0
5884 On ch=1 n=g5 v=0
5918 On ch=1 n=a5 v=97
5986 On ch=1 n=a5 v=0
6036 On ch=1 n=g5 v=101
6038 On ch=1 n=e5 v=98
6042 On ch=1 n=c6 v=106
6042 On ch=1 n=c5 v=94
6042 On ch=1 n=e6 v=103
6050 On ch=1 n=b5 v=97
6078 On ch=1 n=e5 v=0
6088 On ch=1 n=g5 v=0
6100 On ch=1 n=c5 v=0
6148 On ch=1 n=e6 v=0
6154 On ch=1 n=a5 v=98
6170 On ch=1 n=c6 v=0
6190 On ch=1 n=b5 v=0
6244 On ch=1 n=a5 v=0
6266 On ch=1 n=g5 v=96
6278 On ch=1 n=g6 v=92
6320 On ch=1 n=g6 v=0
6342 On ch=1 n=g5 v=0
6364 On ch=1 n=a5 v=91
6452 On ch=1 n=a5 v=0
6500 On ch=1 n=b4 v=99
6502 On ch=1 n=e5 v=108
6504 On ch=1 n=g5 v=107
6504 On ch=1 n=c6 v=111
6510 On ch=1 n=e6 v=104
6510 On ch=1 n=c5 v=94
6512 On ch=1 n=b5 v=102
6548 On ch=1 n=g5 v=0
6550 On ch=1 n=e5 v=0
6560 On ch=1 n=b5 v=0
6566 On ch=1 n=c5 v=0
6576 On ch=1 n=c6 v=0
6578 On ch=1 n=b4 v=0
6586 On ch=1 n=e6 v=0
6746 On ch=1 n=g6 v=109
6756 On ch=1 n=g5 v=93
6790 On ch=1 n=g6 v=0
6812 On ch=1 n=g5 v=0
6852 On ch=1 n=a5 v=97
6914 On ch=1 n=a5 v=0
6962 On ch=1 n=g5 v=103
6962 On ch=1 n=e5 v=97
6966 On ch=1 n=a4 v=66
6970 On ch=1 n=e6 v=103
6970 On ch=1 n=c6 v=102
6972 On ch=1 n=b5 v=104
6972 On ch=1 n=c5 v=88
7012 On ch=1 n=e5 v=0
7014 On ch=1 n=g5 v=0
7016 On ch=1 n=c5 v=0
7042 On ch=1 n=a4 v=0
7076 On ch=1 n=e6 v=0
7078 On ch=1 n=a5 v=99
7096 On ch=1 n=c6 v=0
7112 On ch=1 n=b5 v=0
7168 On ch=1 n=a5 v=0
7194 On ch=1 n=g5 v=92
7208 On ch=1 n=g6 v=111
7258 On ch=1 n=g6 v=0
7268 On ch=1 n=g5 v=0
7290 On ch=1 n=a5 v=91
7370 On ch=1 n=a5 v=0
7422 On ch=1 n=e5 v=104
7422 On ch=1 n=g4 v=94
7424 On ch=1 n=c5 v=103
7424 On ch=1 n=c6 v=112
7428 On ch=1 n=e6 v=107
7428 On ch=1 n=a4 v=84
7432 On ch=1 n=b5 v=102
7460 On ch=1 n=c5 v=0
7468 On ch=1 n=e5 v=0
7478 On ch=1 n=a4 v=0
7490 On ch=1 n=g4 v=0
7520 On ch=1 n=e6 v=0
7558 On ch=1 n=a5 v=99
7580 On ch=1 n=c6 v=0
7608 On ch=1 n=b5 v=0
7662 On ch=1 n=g6 v=114
7668 On ch=1 n=g5 v=94
7684 On ch=1 n=a5 v=0
7694 Par ch=1 c=64 v=63
7704 On ch=1 n=g6 v=0
7736 On ch=1 n=g5 v=0
7772 On ch=1 n=e5 v=76
7814 On ch=1 n=e5 v=0
7814 Par ch=1 c=64 v=0
7886 On ch=1 n=a4 v=93
7886 On ch=1 n=e4 v=97
7886 On ch=1 n=g4 v=88
7888 On ch=1 n=c5 v=117
7888 On ch=1 n=e5 v=109
7918 On ch=1 n=g4 v=0
7920 On ch=1 n=a4 v=0
7938 On ch=1 n=e5 v=0
7938 On ch=1 n=c5 v=0
7946 On ch=1 n=e4 v=0
7988 On ch=1 n=b4 v=100
8052 On ch=1 n=b4 v=0
8110 On ch=1 n=a4 v=107
8110 On ch=1 n=g5 v=112
8160 On ch=1 n=g5 v=0
8178 On ch=1 n=a4 v=0
8210 On ch=1 n=b4 v=94
8280 On ch=1 n=b4 v=0
8332 On ch=1 n=e5 v=112
8332 On ch=1 n=e4 v=113
8332 On ch=1 n=g4 v=109
8332 On ch=1 n=a3 v=108
8334 On ch=1 n=c5 v=117
8380 On ch=1 n=e4 v=0
8384 On ch=1 n=g4 v=0
8396 On ch=1 n=a3 v=0
8422 On ch=1 n=c5 v=0
8422 On ch=1 n=e5 v=0
8430 On ch=1 n=b4 v=96
8516 On ch=1 n=b4 v=0
8562 On ch=1 n=g5 v=116
8564 On ch=1 n=c5 v=106
8606 On ch=1 n=g5 v=0
8648 On ch=1 n=e5 v=100
8672 On ch=1 n=c5 v=0
8722 On ch=1 n=e5 v=0
8774 On ch=1 n=g5 v=109
8776 On ch=1 n=c5 v=113
8776 On ch=1 n=a4 v=99
8780 On ch=1 n=d4 v=94
8780 On ch=1 n=g4 v=91
8812 On ch=1 n=g4 v=0
8818 On ch=1 n=c5 v=0
8828 On ch=1 n=g5 v=0
8830 On ch=1 n=a4 v=0
8834 On ch=1 n=d4 v=0
9010 On ch=1 n=a4 v=92
9014 On ch=1 n=d5 v=94
9022 On ch=1 n=g5 v=106
9038 On ch=1 n=d5 v=0
9042 On ch=1 n=a4 v=0
9106 On ch=1 n=e5 v=99
9110 On ch=1 n=g5 v=0
9180 On ch=1 n=e5 v=0
9232 On ch=1 n=g3 v=80
9244 On ch=1 n=g5 v=113
9244 On ch=1 n=d5 v=114
9246 On ch=1 n=d4 v=109
9250 On ch=1 n=b4 v=99
9250 Par ch=1 c=64 v=63
9252 On ch=1 n=g4 v=106
9268 Par ch=1 c=64 v=127
9274 On ch=1 n=b4 v=0
9288 On ch=1 n=d5 v=0
9292 On ch=1 n=d4 v=0
9292 On ch=1 n=g3 v=0
9304 On ch=1 n=g5 v=0
9312 On ch=1 n=g4 v=0
9470 Par ch=1 c=64 v=63
9494 Par ch=1 c=64 v=0
9686 On ch=1 n=e5 v=18
9720 On ch=1 n=c6 v=104
9722 Par ch=1 c=64 v=63
9724 On ch=1 n=e6 v=112
9728 On ch=1 n=a5 v=89
9728 On ch=1 n=e7 v=118
9732 On ch=1 n=c7 v=116
9732 On ch=1 n=g6 v=116
9738 Par ch=1 c=64 v=127
9778 On ch=1 n=c6 v=0
9784 On ch=1 n=e6 v=0
9800 On ch=1 n=a5 v=0
9814 On ch=1 n=g6 v=0
9820 On ch=1 n=e5 v=0
9874 Par ch=1 c=64 v=63
9886 On ch=1 n=e7 v=0
9918 Par ch=1 c=64 v=0
9996 On ch=1 n=d7 v=83
10014 On ch=1 n=c7 v=0
10060 On ch=1 n=e7 v=91
10068 On ch=1 n=d7 v=0
10116 On ch=1 n=e7 v=0
10134 On ch=1 n=d5 v=57
10180 On ch=1 n=b5 v=114
10182 Par ch=1 c=64 v=63
10184 On ch=1 n=g5 v=99
10188 On ch=1 n=g7 v=108
10188 On ch=1 n=b7 v=108
10190 On ch=1 n=b6 v=112
10190 On ch=1 n=e6 v=114
10196 On ch=1 n=d6 v=112
10196 On ch=1 n=e7 v=84
10200 Par ch=1 c=64 v=127
10206 On ch=1 n=d7 v=63
10210 On ch=1 n=b6 v=0
10222 On ch=1 n=e7 v=0
10224 On ch=1 n=g7 v=0
10234 On ch=1 n=b7 v=0
10240 On ch=1 n=d7 v=0
10344 On ch=1 n=e6 v=0
10350 On ch=1 n=d6 v=0
10376 On ch=1 n=b5 v=0
10396 On ch=1 n=g5 v=0
10436 On ch=1 n=d5 v=0
10438 Par ch=1 c=64 v=63
10460 Par ch=1 c=64 v=0
10654 Par ch=1 c=64 v=63
10656 On ch=1 n=c5 v=117
10658 On ch=1 n=f4 v=113
10664 On ch=1 n=a5 v=117
10670 On ch=1 n=e5 v=113
10670 Par ch=1 c=64 v=127
10706 On ch=1 n=c5 v=0
10732 On ch=1 n=f4 v=0
10796 Par ch=1 c=64 v=63
10814 On ch=1 n=a5 v=0
10816 On ch=1 n=e5 v=0
10824 Par ch=1 c=64 v=0
10902 On ch=1 n=g5 v=84
10976 On ch=1 n=g5 v=0
10984 On ch=1 n=a5 v=101
11034 On ch=1 n=a5 v=0
11034 On ch=1 n=d4 v=43
11078 On ch=1 n=f4 v=35
11108 On ch=1 n=a4 v=93
11112 Par ch=1 c=64 v=63
11120 On ch=1 n=e5 v=114
11124 On ch=1 n=a5 v=120
11126 On ch=1 n=e6 v=112
11126 On ch=1 n=g6 v=104
11132 Par ch=1 c=64 v=127
11134 On ch=1 n=c6 v=90
11152 On ch=1 n=e6 v=0
11152 On ch=1 n=a5 v=0
11160 On ch=1 n=c6 v=0
11164 On ch=1 n=g6 v=0
11226 On ch=1 n=e5 v=0
11266 On ch=1 n=a4 v=0
11308 On ch=1 n=f4 v=0
11322 On ch=1 n=d4 v=0
11368 Par ch=1 c=64 v=63
11424 Par ch=1 c=64 v=0
11580 Par ch=1 c=64 v=63
11582 On ch=1 n=g3 v=92
11586 On ch=1 n=d4 v=94
11596 Par ch=1 c=64 v=127
11598 On ch=1 n=c6 v=111
11600 On ch=1 n=e6 v=107
11652 On ch=1 n=d4 v=0
11658 On ch=1 n=g3 v=0
11688 On ch=1 n=e6 v=0
11690 On ch=1 n=a5 v=101
11700 On ch=1 n=c6 v=0
11702 Par ch=1 c=64 v=63
11740 Par ch=1 c=64 v=0
11766 On ch=1 n=a5 v=0
11808 On ch=1 n=f5 v=102
11810 On ch=1 n=a4 v=88
11816 On ch=1 n=d4 v=79
11838 On ch=1 n=a4 v=0
11840 On ch=1 n=d4 v=0
11862 On ch=1 n=f5 v=0
11908 On ch=1 n=d5 v=100
11956 On ch=1 n=d5 v=0
11994 On ch=1 n=c3 v=75
12028 Par ch=1 c=64 v=63
12028 On ch=1 n=g3 v=77
12036 On ch=1 n=g5 v=99
12038 On ch=1 n=e5 v=103
12040 On ch=1 n=c6 v=83
12042 Par ch=1 c=64 v=127
12044 On ch=1 n=c5 v=98
12054 On ch=1 n=c3 v=0
12056 On ch=1 n=e4 v=113
12060 On ch=1 n=e5 v=0
12062 On ch=1 n=g5 v=0
12066 On ch=1 n=c5 v=0
12070 On ch=1 n=c6 v=0
12078 On ch=1 n=g3 v=0
12104 On ch=1 n=e4 v=0
12290 On ch=1 n=g5 v=93
12296 Par ch=1 c=64 v=63
12330 Par ch=1 c=64 v=0
12358 On ch=1 n=g5 v=0
12382 On ch=1 n=a5 v=92
12450 On ch=1 n=a5 v=0
12494 On ch=1 n=g5 v=102
12496 On ch=1 n=e5 v=98
12500 On ch=1 n=c6 v=109
12504 On ch=1 n=e6 v=104
12506 On ch=1 n=b5 v=106
12536 On ch=1 n=g5 v=0
12546 On ch=1 n=e5 v=0
12602 On ch=1 n=a5 v=98
12620 On ch=1 n=c6 v=0
12632 On ch=1 n=b5 v=0
12640 On ch=1 n=e6 v=0
12694 On ch=1 n=a5 v=0
12716 On ch=1 n=g5 v=85
12724 On ch=1 n=g6 v=103
12768 On ch=1 n=g6 v=0
12786 On ch=1 n=g5 v=0
12814 On ch=1 n=a5 v=84
12892 On ch=1 n=a5 v=0
12942 On ch=1 n=g5 v=100
12942 On ch=1 n=d5 v=103
12946 On ch=1 n=e5 v=94
12950 On ch=1 n=e6 v=103
12950 On ch=1 n=c6 v=100
12954 On ch=1 n=b5 v=96
12978 On ch=1 n=g5 v=0
12990 On ch=1 n=b5 v=0
12998 On ch=1 n=e5 v=0
12998 On ch=1 n=d5 v=0
13008 On ch=1 n=c6 v=0
13018 On ch=1 n=e6 v=0
13186 On ch=1 n=g6 v=112
13200 On ch=1 n=g5 v=90
13232 On ch=1 n=g6 v=0
13270 On ch=1 n=g5 v=0
13288 On ch=1 n=a5 v=96
13366 On ch=1 n=a5 v=0
13412 On ch=1 n=g5 v=112
13414 On ch=1 n=c5 v=114
13416 On ch=1 n=e5 v=108
13420 On ch=1 n=e6 v=103
13420 On ch=1 n=c6 v=102
13422 On ch=1 n=b5 v=101
13454 On ch=1 n=e5 v=0
13456 On ch=1 n=g5 v=0
13480 On ch=1 n=c5 v=0
13526 On ch=1 n=e6 v=0
13526 On ch=1 n=a5 v=88
13540 On ch=1 n=c6 v=0
13548 On ch=1 n=b5 v=0
13636 On ch=1 n=g5 v=87
13646 On ch=1 n=a5 v=0
13658 On ch=1 n=g6 v=113
13704 On ch=1 n=g6 v=0
13708 On ch=1 n=g5 v=0
13740 On ch=1 n=a5 v=88
13824 On ch=1 n=a5 v=0
13874 On ch=1 n=b4 v=103
13882 On ch=1 n=g5 v=106
13882 On ch=1 n=e5 v=103
13884 On ch=1 n=e6 v=108
13886 On ch=1 n=c6 v=100
13886 On ch=1 n=c5 v=101
13890 On ch=1 n=b5 v=98
13926 On ch=1 n=g5 v=0
13928 On ch=1 n=e5 v=0
13936 On ch=1 n=b5 v=0
13938 On ch=1 n=c5 v=0
13950 On ch=1 n=c6 v=0
13960 On ch=1 n=b4 v=0
13962 On ch=1 n=e6 v=0
14120 On ch=1 n=g6 v=116
14134 On ch=1 n=g5 v=94
14168 On ch=1 n=g6 v=0
14194 On ch=1 n=g5 v=0
14230 On ch=1 n=a5 v=97
14300 On ch=1 n=a5 v=0
14346 On ch=1 n=e5 v=99
14346 On ch=1 n=g5 v=106
14348 On ch=1 n=a4 v=73
14350 On ch=1 n=c5 v=96
14352 On ch=1 n=e6 v=108
14354 On ch=1 n=c6 v=104
14360 On ch=1 n=b5 v=96
14392 On ch=1 n=e5 v=0
14394 On ch=1 n=g5 v=0
14400 On ch=1 n=c5 v=0
14436 On ch=1 n=a4 v=0
14464 On ch=1 n=e6 v=0
14482 On ch=1 n=a5 v=99
14496 On ch=1 n=c6 v=0
14520 On ch=1 n=b5 v=0
14582 On ch=1 n=g6 v=118
14594 On ch=1 n=g5 v=93
14596 On ch=1 n=a5 v=0
14626 On ch=1 n=g6 v=0
14664 On ch=1 n=g5 v=0
14684 On ch=1 n=a5 v=92
14764 On ch=1 n=a5 v=0
14802 On ch=1 n=g4 v=99
14808 On ch=1 n=e5 v=102
14808 On ch=1 n=c5 v=102
14812 On ch=1 n=a4 v=84
14814 On ch=1 n=c6 v=107
14818 On ch=1 n=e6 v=102
14824 On ch=1 n=b5 v=100
14848 On ch=1 n=c5 v=0
14852 On ch=1 n=e5 v=0
14872 On ch=1 n=a4 v=0
14894 On ch=1 n=g4 v=0
14936 On ch=1 n=a5 v=101
14944 On ch=1 n=e6 v=0
14958 On ch=1 n=c6 v=0
14988 On ch=1 n=b5 v=0
15042 On ch=1 n=g5 v=89
15042 On ch=1 n=g6 v=120
15058 On ch=1 n=a5 v=0
15088 On ch=1 n=g6 v=0
15114 On ch=1 n=g5 v=0
15156 On ch=1 n=e5 v=79
15186 On ch=1 n=e5 v=0
15270 On ch=1 n=c5 v=117
15270 On ch=1 n=e5 v=112
15272 On ch=1 n=g4 v=86
15274 On ch=1 n=e4 v=89
15274 On ch=1 n=a4 v=83
15304 On ch=1 n=a4 v=0
15306 On ch=1 n=g4 v=0
15334 On ch=1 n=c5 v=0
15338 On ch=1 n=e5 v=0
15340 On ch=1 n=e4 v=0
15374 On ch=1 n=b4 v=99
15444 On ch=1 n=b4 v=0
15494 On ch=1 n=a4 v=101
15500 On ch=1 n=g5 v=118
15544 On ch=1 n=g5 v=0
15566 On ch=1 n=a4 v=0
15594 On ch=1 n=b4 v=87
15666 On ch=1 n=b4 v=0
15714 On ch=1 n=a3 v=104
15716 On ch=1 n=g4 v=109
15718 On ch=1 n=e4 v=111
15718 On ch=1 n=e5 v=107
15720 On ch=1 n=c5 v=113
15772 On ch=1 n=e4 v=0
15774 On ch=1 n=g4 v=0
15794 On ch=1 n=a3 v=0
15798 On ch=1 n=c5 v=0
15820 On ch=1 n=b4 v=90
15830 On ch=1 n=e5 v=0
15908 On ch=1 n=b4 v=0
15948 On ch=1 n=g5 v=122
15956 On ch=1 n=c5 v=107
15996 On ch=1 n=g5 v=0
16046 On ch=1 n=e5 v=100
16060 On ch=1 n=c5 v=0
16114 On ch=1 n=e5 v=0
16172 On ch=1 n=g5 v=113
16172 On ch=1 n=g4 v=96
16172 On ch=1 n=d4 v=94
16174 On ch=1 n=e4 v=89
16176 On ch=1 n=c5 v=112
16202 On ch=1 n=e4 v=0
16204 On ch=1 n=d4 v=0
16210 On ch=1 n=g4 v=0
16216 On ch=1 n=c5 v=0
16222 On ch=1 n=g5 v=0
16406 On ch=1 n=g5 v=111
16412 On ch=1 n=c5 v=107
16414 On ch=1 n=d5 v=118
16422 On ch=1 n=a4 v=88
16424 On ch=1 n=g4 v=84
16454 On ch=1 n=d5 v=0
16454 On ch=1 n=c5 v=0
16456 On ch=1 n=g4 v=0
16458 On ch=1 n=a4 v=0
16474 On ch=1 n=g5 v=0
16502 On ch=1 n=e5 v=101
16574 On ch=1 n=e5 v=0
16642 On ch=1 n=g4 v=89
16644 On ch=1 n=g5 v=120
16644 Par ch=1 c=64 v=63
16648 On ch=1 n=d4 v=84
16648 On ch=1 n=b4 v=117
16648 On ch=1 n=d5 v=116
16650 On ch=1 n=g3 v=70
16656 Par ch=1 c=64 v=127
16676 On ch=1 n=d4 v=0
16682 On ch=1 n=g3 v=0
16686 On ch=1 n=b4 v=0
16688 On ch=1 n=d5 v=0
16690 On ch=1 n=g4 v=0
16714 On ch=1 n=g5 v=0
17042 On ch=1 n=d5 v=79
17140 Par ch=1 c=64 v=127
17146 On ch=1 n=a5 v=74
17148 On ch=1 n=e7 v=118
17150 On ch=1 n=c7 v=120
17156 On ch=1 n=c6 v=109
17156 On ch=1 n=g6 v=99
17160 On ch=1 n=a6 v=112
17160 On ch=1 n=e6 v=114
17250 On ch=1 n=a6 v=0
17256 On ch=1 n=g6 v=0
17376 On ch=1 n=e7 v=0
17386 On ch=1 n=a5 v=0
17390 On ch=1 n=e6 v=0
17392 On ch=1 n=c6 v=0
17418 On ch=1 n=d7 v=99
17426 On ch=1 n=d5 v=0
17462 On ch=1 n=c7 v=0
17506 On ch=1 n=e7 v=104
17532 On ch=1 n=d7 v=0
17564 On ch=1 n=d5 v=65
17572 On ch=1 n=e7 v=0
17616 On ch=1 n=g5 v=17
17630 On ch=1 n=b5 v=116
17632 Par ch=1 c=64 v=63
17638 On ch=1 n=g7 v=114
17640 On ch=1 n=b6 v=120
17640 On ch=1 n=e6 v=117
17642 On ch=1 n=b7 v=112
17642 On ch=1 n=d6 v=114
17644 On ch=1 n=e7 v=108
17656 Par ch=1 c=64 v=127
17662 On ch=1 n=e7 v=0
17672 On ch=1 n=b6 v=0
17684 On ch=1 n=b7 v=0
17686 On ch=1 n=g7 v=0
17746 On ch=1 n=e6 v=0
17754 On ch=1 n=b5 v=0
17756 On ch=1 n=d6 v=0
17772 Par ch=1 c=64 v=63
17776 On ch=1 n=d5 v=0
17778 Par ch=1 c=64 v=0
17780 On ch=1 n=g5 v=0
18052 Par ch=1 c=64 v=127
18074 On ch=1 n=c5 v=88
18124 On ch=1 n=c5 v=0
18180 On ch=1 n=d7 v=116
18182 On ch=1 n=a#6 v=121
18182 On ch=1 n=f6 v=117
18186 On ch=1 n=a#5 v=106
18188 On ch=1 n=d6 v=100
18188 On ch=1 n=g5 v=83
18188 On ch=1 n=f5 v=86
18228 On ch=1 n=g5 v=0
18230 On ch=1 n=f5 v=0
18238 On ch=1 n=f6 v=0
18244 On ch=1 n=a#5 v=0
18256 On ch=1 n=d6 v=0
18282 On ch=1 n=a#6 v=0
18320 On ch=1 n=d7 v=0
18470 On ch=1 n=c7 v=107
18544 On ch=1 n=d7 v=104
18578 On ch=1 n=c7 v=0
18580 On ch=1 n=e5 v=71
18620 On ch=1 n=d7 v=0
18660 On ch=1 n=c6 v=117
18662 On ch=1 n=a5 v=100
18662 On ch=1 n=e7 v=113
18664 On ch=1 n=e6 v=124
18668 On ch=1 n=g6 v=118
18670 On ch=1 n=c7 v=109
18670 On ch=1 n=g7 v=113
18694 On ch=1 n=c7 v=0
18696 On ch=1 n=g6 v=0
18698 Par ch=1 c=64 v=63
18704 Par ch=1 c=64 v=0
18706 On ch=1 n=e7 v=0
18712 On ch=1 n=g7 v=0
18726 On ch=1 n=e6 v=0
18730 On ch=1 n=c6 v=0
18746 On ch=1 n=a5 v=0
18752 On ch=1 n=e5 v=0
18970 On ch=1 n=c5 v=87
19070 On ch=1 n=d5 v=98
19118 On ch=1 n=c5 v=0
19182 On ch=1 n=d#6 v=108
19184 On ch=1 n=d#5 v=98
19186 On ch=1 n=g#5 v=94
19186 On ch=1 n=c6 v=98
19190 On ch=1 n=d5 v=0
19224 Par ch=1 c=64 v=63
19226 Par ch=1 c=64 v=127
19278 On ch=1 n=d#5 v=0
19296 On ch=1 n=d5 v=92
19386 On ch=1 n=d5 v=0
19408 On ch=1 n=c5 v=86
19470 On ch=1 n=c6 v=0
19496 On ch=1 n=g#5 v=0
19514 On ch=1 n=d#6 v=0
19516 On ch=1 n=d5 v=100
19520 On ch=1 n=c5 v=0
19586 On ch=1 n=d5 v=0
19618 Par ch=1 c=64 v=63
19624 Par ch=1 c=64 v=0
19640 On ch=1 n=d#5 v=113
19684 On ch=1 n=d#5 v=0
19866 On ch=1 n=f5 v=100
19868 On ch=1 n=f6 v=96
19870 On ch=1 n=c6 v=88
19872 On ch=1 n=a5 v=83
19904 On ch=1 n=c6 v=0
19910 On ch=1 n=f6 v=0
19916 On ch=1 n=a5 v=0
19918 On ch=1 n=f5 v=0
20092 On ch=1 n=d6 v=94
20094 On ch=1 n=d5 v=101
20094 On ch=1 n=a5 v=84
20102 On ch=1 n=f#5 v=80
20128 On ch=1 n=a5 v=0
20132 On ch=1 n=f#5 v=0
20132 On ch=1 n=d5 v=0
20140 On ch=1 n=d6 v=0
20328 On ch=1 n=c5 v=112
20328 On ch=1 n=c6 v=91
20330 On ch=1 n=g5 v=81
20332 On ch=1 n=e5 v=76
20358 On ch=1 n=g5 v=0
20366 On ch=1 n=e5 v=0
20370 On ch=1 n=c5 v=0
20374 On ch=1 n=c6 v=0
20562 On ch=1 n=d6 v=90
20562 On ch=1 n=a5 v=88
20564 On ch=1 n=d5 v=97
20566 On ch=1 n=f#5 v=92
20600 On ch=1 n=f#5 v=0
20600 On ch=1 n=a5 v=0
20606 On ch=1 n=d5 v=0
20618 On ch=1 n=d6 v=0
20790 On ch=1 n=f5 v=92
20790 On ch=1 n=d5 v=91
20794 On ch=1 n=a#5 v=97
20796 On ch=1 n=a#4 v=107
20816 On ch=1 n=d5 v=0
20818 On ch=1 n=f5 v=0
20838 On ch=1 n=a#5 v=0
20848 On ch=1 n=a#4 v=0
21028 On ch=1 n=f5 v=99
21030 On ch=1 n=b4 v=86
21030 On ch=1 n=d6 v=99
21030 On ch=1 n=a5 v=91
21032 On ch=1 n=g4 v=77
21040 On ch=1 n=d5 v=84
21054 Par ch=1 c=64 v=63
21056 Par ch=1 c=64 v=127
21060 On ch=1 n=a5 v=0
21060 On ch=1 n=b4 v=0
21072 On ch=1 n=d5 v=0
21074 On ch=1 n=f5 v=0
21086 On ch=1 n=d6 v=0
21096 On ch=1 n=g4 v=0
21262 On ch=1 n=e5 v=87
21272 On ch=1 n=e6 v=94
21344 On ch=1 n=e5 v=0
21358 On ch=1 n=e6 v=0
21360 On ch=1 n=d6 v=91
21362 On ch=1 n=d5 v=99
21402 On ch=1 n=d5 v=0
21406 On ch=1 n=d6 v=0
21462 Par ch=1 c=64 v=63
21470 Par ch=1 c=64 v=0
21478 On ch=1 n=c5 v=109
21478 On ch=1 n=c6 v=107
21480 On ch=1 n=g5 v=88
21484 On ch=1 n=e5 v=85
21508 On ch=1 n=g5 v=0
21514 On ch=1 n=e5 v=0
21528 On ch=1 n=c5 v=0
21534 On ch=1 n=c6 v=0
21712 On ch=1 n=a#5 v=101
21712 On ch=1 n=f5 v=88
21712 On ch=1 n=d5 v=94
21716 On ch=1 n=a#4 v=106
21746 On ch=1 n=f5 v=0
21754 On ch=1 n=d5 v=0
21762 On ch=1 n=a#4 v=0
21762 On ch=1 n=a#5 v=0
21942 On ch=1 n=g5 v=93
21948 On ch=1 n=e5 v=81
21950 On ch=1 n=g4 v=94
21952 On ch=1 n=c5 v=85
21958 On ch=1 n=c4 v=97
21980 On ch=1 n=e5 v=0
21986 On ch=1 n=c5 v=0
21988 On ch=1 n=g4 v=0
22002 On ch=1 n=g5 v=0
22006 On ch=1 n=c4 v=0
22178 On ch=1 n=d4 v=102
22180 On ch=1 n=g3 v=92
22180 On ch=1 n=a#4 v=97
22182 On ch=1 n=d5 v=90
22184 On ch=1 n=f5 v=89
22202 On ch=1 n=d4 v=0
22208 On ch=1 n=d5 v=0
22230 On ch=1 n=g3 v=0
22232 On ch=1 n=a#4 v=0
22236 On ch=1 n=f5 v=0
22410 On ch=1 n=g4 v=91
22412 On ch=1 n=c3 v=96
22414 On ch=1 n=g3 v=99
22414 On ch=1 n=g5 v=76
22416 On ch=1 n=c5 v=90
22424 On ch=1 n=e5 v=71
22434 Par ch=1 c=64 v=63
22438 On ch=1 n=g4 v=0
22438 Par ch=1 c=64 v=127
22440 On ch=1 n=c5 v=0
22442 On ch=1 n=g3 v=0
22452 On ch=1 n=e5 v=0
22458 On ch=1 n=c3 v=0
22468 On ch=1 n=g5 v=0
22660 On ch=1 n=c5 v=106
22744 On ch=1 n=d5 v=104
22770 On ch=1 n=c5 v=0
22842 On ch=1 n=d5 v=0
22870 On ch=1 n=d#6 v=116
22870 On ch=1 n=c6 v=109
22874 On ch=1 n=d#5 v=103
22874 On ch=1 n=g#5 v=101
22904 Par ch=1 c=64 v=63
22912 Par ch=1 c=64 v=0
22964 On ch=1 n=d#5 v=0
22982 On ch=1 n=d5 v=93
23070 On ch=1 n=d5 v=0
23096 On ch=1 n=c5 v=88
23206 On ch=1 n=d5 v=88
23214 On ch=1 n=c5 v=0
23278 On ch=1 n=c6 v=0
23306 On ch=1 n=g#5 v=0
23308 On ch=1 n=d#6 v=0
23320 On ch=1 n=d5 v=0
23320 On ch=1 n=d#5 v=116
23374 On ch=1 n=d#5 v=0
23550 On ch=1 n=f5 v=103
23550 On ch=1 n=f6 v=99
23552 On ch=1 n=a5 v=97
23552 On ch=1 n=c6 v=96
23578 On ch=1 n=c6 v=0
23586 On ch=1 n=f6 v=0
23596 On ch=1 n=a5 v=0
23602 On ch=1 n=f5 v=0
23778 On ch=1 n=d6 v=101
23778 On ch=1 n=d5 v=98
23782 On ch=1 n=f5 v=97
23786 On ch=1 n=a#5 v=88
23790 On ch=1 n=a#4 v=94
23812 On ch=1 n=a#5 v=0
23818 On ch=1 n=a#4 v=0
23818 On ch=1 n=f5 v=0
23824 On ch=1 n=d5 v=0
23832 On ch=1 n=d6 v=0
24008 On ch=1 n=c6 v=107
24012 On ch=1 n=f5 v=103
24014 On ch=1 n=c5 v=99
24016 On ch=1 n=a5 v=86
24018 On ch=1 n=f4 v=91
24044 On ch=1 n=c5 v=0
24046 On ch=1 n=a5 v=0
24056 On ch=1 n=f4 v=0
24062 On ch=1 n=f5 v=0
24072 On ch=1 n=c6 v=0
24248 On ch=1 n=f4 v=106
24248 On ch=1 n=a#5 v=109
24250 On ch=1 n=d5 v=99
24252 On ch=1 n=a#3 v=100
24254 On ch=1 n=f5 v=92
24286 Par ch=1 c=64 v=63
24288 On ch=1 n=f4 v=0
24288 Par ch=1 c=64 v=127
24294 On ch=1 n=d5 v=0
24296 On ch=1 n=f5 v=0
24310 On ch=1 n=a#3 v=0
24318 On ch=1 n=a#5 v=0
24512 Par ch=1 c=64 v=63
24516 Par ch=1 c=64 v=0
24740 On ch=1 n=a#2 v=108
24748 On ch=1 n=f3 v=103
24754 On ch=1 n=g5 v=107
24756 On ch=1 n=a#4 v=105
24758 On ch=1 n=c5 v=103
24760 On ch=1 n=d#5 v=95
24764 Par ch=1 c=64 v=127
24800 On ch=1 n=f3 v=0
24806 On ch=1 n=a#2 v=0
24850 On ch=1 n=a#4 v=0
24922 On ch=1 n=g5 v=0
24926 On ch=1 n=d#5 v=0
24934 On ch=1 n=c5 v=0
24998 On ch=1 n=f5 v=84
25090 On ch=1 n=g5 v=87
25106 On ch=1 n=f5 v=0
25132 On ch=1 n=g5 v=0
25194 On ch=1 n=f4 v=96
25204 On ch=1 n=a#4 v=103
25206 Par ch=1 c=64 v=63
25208 On ch=1 n=d6 v=117
25208 On ch=1 n=d5 v=98
25214 On ch=1 n=a#5 v=107
25214 On ch=1 n=f5 v=106
25216 Par ch=1 c=64 v=0
25238 On ch=1 n=f5 v=0
25238 On ch=1 n=a#5 v=0
25248 On ch=1 n=a#4 v=0
25248 On ch=1 n=f4 v=0
25250 On ch=1 n=d5 v=0
25260 On ch=1 n=d6 v=0
25464 On ch=1 n=f5 v=93
25550 On ch=1 n=g5 v=99
25592 On ch=1 n=f5 v=0
25668 On ch=1 n=g5 v=0
25680 On ch=1 n=g#6 v=120
25680 On ch=1 n=g#5 v=110
25688 On ch=1 n=f6 v=109
25690 On ch=1 n=c#6 v=110
25698 Par ch=1 c=64 v=127
25768 On ch=1 n=g#5 v=0
25794 On ch=1 n=g5 v=93
25876 On ch=1 n=g5 v=0
25890 On ch=1 n=f5 v=79
26012 On ch=1 n=g5 v=103
26056 On ch=1 n=f5 v=0
26104 On ch=1 n=f6 v=0
26126 On ch=1 n=g#5 v=116
26130 On ch=1 n=c#6 v=0
26136 On ch=1 n=g#6 v=0
26158 On ch=1 n=g5 v=0
26158 Par ch=1 c=64 v=63
26166 Par ch=1 c=64 v=0
26188 On ch=1 n=g#5 v=0
26348 On ch=1 n=a#6 v=107
26352 On ch=1 n=f6 v=97
26356 On ch=1 n=a#5 v=119
26356 On ch=1 n=d6 v=89
26386 On ch=1 n=f6 v=0
26392 On ch=1 n=d6 v=0
26402 On ch=1 n=a#6 v=0
26412 On ch=1 n=a#5 v=0
26578 On ch=1 n=f#5 v=120
26578 On ch=1 n=a#5 v=104
26578 On ch=1 n=f#6 v=99
26592 On ch=1 n=c#6 v=76
26616 On ch=1 n=c#6 v=0
26626 On ch=1 n=a#5 v=0
26626 On ch=1 n=f#5 v=0
26628 On ch=1 n=f#6 v=0
26802 On ch=1 n=e6 v=101
26802 On ch=1 n=b5 v=97
26806 On ch=1 n=g5 v=86
26808 On ch=1 n=e5 v=113
26840 On ch=1 n=g5 v=0
26850 On ch=1 n=b5 v=0
26860 On ch=1 n=e6 v=0
26868 On ch=1 n=e5 v=0
27046 On ch=1 n=f#6 v=108
27048 On ch=1 n=a#5 v=108
27048 On ch=1 n=f#5 v=115
27058 On ch=1 n=c#6 v=85
27080 On ch=1 n=c#6 v=0
27084 On ch=1 n=a#5 v=0
27098 On ch=1 n=f#5 v=0
27106 On ch=1 n=f#6 v=0
27268 On ch=1 n=a#5 v=108
27276 On ch=1 n=g5 v=82
27276 On ch=1 n=d#6 v=97
27278 On ch=1 n=d#5 v=110
27300 On ch=1 n=a#5 v=0
27304 On ch=1 n=g5 v=0
27318 On ch=1 n=d#6 v=0
27320 On ch=1 n=d#5 v=0
27500 On ch=1 n=b4 v=86
27502 On ch=1 n=d#5 v=100
27506 On ch=1 n=f#5 v=106
27510 On ch=1 n=f#6 v=115
27512 On ch=1 n=c#6 v=118
27512 On ch=1 n=a5 v=114
27520 Par ch=1 c=64 v=63
27520 Par ch=1 c=64 v=127
27546 On ch=1 n=b4 v=0
27550 On ch=1 n=d#5 v=0
27552 On ch=1 n=a5 v=0
27552 On ch=1 n=f#5 v=0
27560 On ch=1 n=c#6 v=0
27578 On ch=1 n=f#6 v=0
27752 On ch=1 n=g#6 v=101
27752 On ch=1 n=g#5 v=88
27822 On ch=1 n=f#6 v=91
27830 On ch=1 n=g#6 v=0
27832 On ch=1 n=g#5 v=0
27848 On ch=1 n=f#5 v=97
27884 On ch=1 n=f#6 v=0
27918 On ch=1 n=f#5 v=0
27972 On ch=1 n=e5 v=102
27974 On ch=1 n=g#5 v=93
27974 On ch=1 n=e6 v=100
27974 On ch=1 n=b5 v=96
27976 Par ch=1 c=64 v=63
27978 Par ch=1 c=64 v=0
28018 On ch=1 n=b5 v=0
28030 On ch=1 n=e5 v=0
28032 On ch=1 n=g#5 v=0
28038 On ch=1 n=e6 v=0
28196 On ch=1 n=d#5 v=112
28200 On ch=1 n=c5 v=96
28202 On ch=1 n=g#4 v=96
28210 On ch=1 n=d#6 v=106
28218 On ch=1 n=f#5 v=94
28242 On ch=1 n=f#5 v=0
28242 On ch=1 n=d#5 v=0
28244 On ch=1 n=c5 v=0
28258 On ch=1 n=d#6 v=0
28258 On ch=1 n=g#4 v=0
28440 On ch=1 n=c#6 v=108
28440 On ch=1 n=c#5 v=109
28442 On ch=1 n=g#4 v=103
28442 On ch=1 n=f5 v=93
28444 On ch=1 n=g#5 v=101
28444 On ch=1 n=c#4 v=104
28466 On ch=1 n=g#4 v=0
28470 On ch=1 n=f5 v=0
28470 On ch=1 n=c#5 v=0
28474 On ch=1 n=g#5 v=0
28492 On ch=1 n=c#4 v=0
28496 On ch=1 n=c#6 v=0
28676 On ch=1 n=b5 v=102
28678 On ch=1 n=d#5 v=108
28678 On ch=1 n=g#4 v=113
28680 On ch=1 n=g#3 v=109
28682 On ch=1 n=f#5 v=103
28714 On ch=1 n=f#5 v=0
28720 On ch=1 n=g#4 v=0
28722 On ch=1 n=d#5 v=0
28722 On ch=1 n=b5 v=0
28730 On ch=1 n=g#3 v=0
28914 On ch=1 n=f5 v=106
28914 On ch=1 n=g#5 v=108
28914 On ch=1 n=c#5 v=112
28914 On ch=1 n=c#3 v=114
28916 On ch=1 n=c#4 v=120
28932 Par ch=1 c=64 v=127
28952 On ch=1 n=c#5 v=0
28954 On ch=1 n=c#3 v=0
28956 On ch=1 n=c#4 v=0
28958 On ch=1 n=f5 v=0
28978 On ch=1 n=g#5 v=0
29164 On ch=1 n=g#5 v=97
29258 On ch=1 n=g#5 v=0
29272 On ch=1 n=a#5 v=97
29360 On ch=1 n=a#5 v=0
29386 On ch=1 n=b6 v=117
29388 On ch=1 n=b5 v=100
29392 On ch=1 n=g#6 v=118
29396 On ch=1 n=e6 v=107
29402 Par ch=1 c=64 v=63
29408 Par ch=1 c=64 v=0
29466 On ch=1 n=b5 v=0
29496 On ch=1 n=a#5 v=101
29572 On ch=1 n=a#5 v=0
29604 On ch=1 n=g#5 v=103
29698 On ch=1 n=a#5 v=115
29734 On ch=1 n=g#5 v=0
29736 Par ch=1 c=64 v=63
29738 Par ch=1 c=64 v=127
29816 On ch=1 n=a#5 v=0
29828 On ch=1 n=e6 v=0
29834 On ch=1 n=b5 v=118
29836 On ch=1 n=g#6 v=0
29840 On ch=1 n=b6 v=0
29874 Par ch=1 c=64 v=63
29880 Par ch=1 c=64 v=0
29902 On ch=1 n=b5 v=0
30058 On ch=1 n=c#7 v=107
30062 On ch=1 n=c#6 v=118
30062 On ch=1 n=g#6 v=99
30064 On ch=1 n=f6 v=94
30092 On ch=1 n=g#6 v=0
30098 On ch=1 n=f6 v=0
30108 On ch=1 n=c#7 v=0
30122 On ch=1 n=c#6 v=0
30292 On ch=1 n=a#6 v=106
30294 On ch=1 n=a#5 v=114
30298 On ch=1 n=f#5 v=106
30298 On ch=1 n=c#6 v=104
30300 On ch=1 n=f#6 v=91
30330 On ch=1 n=f#6 v=0
30334 On ch=1 n=c#6 v=0
30336 On ch=1 n=a#5 v=0
30344 On ch=1 n=f#5 v=0
30346 On ch=1 n=a#6 v=0
30514 On ch=1 n=g#6 v=100
30518 On ch=1 n=g#5 v=120
30520 On ch=1 n=f6 v=94
30522 On ch=1 n=c#5 v=113
30522 On ch=1 n=c#6 v=95
30550 On ch=1 n=f6 v=0
30558 On ch=1 n=c#6 v=0
30562 On ch=1 n=c#5 v=0
30564 On ch=1 n=g#5 v=0
30566 On ch=1 n=g#6 v=0
30764 On ch=1 n=f#5 v=127
30766 On ch=1 n=f#6 v=116
30768 On ch=1 n=f#4 v=119
30770 On ch=1 n=a#5 v=120
30770 On ch=1 n=c#5 v=108
30774 On ch=1 n=c#6 v=112
30790 Par ch=1 c=64 v=63
30790 Par ch=1 c=64 v=127
30792 On ch=1 n=c#5 v=0
30806 On ch=1 n=a#5 v=0
30806 On ch=1 n=f#5 v=0
30812 On ch=1 n=f#6 v=0
30816 On ch=1 n=c#6 v=0
30816 On ch=1 n=f#4 v=0
31046 Par ch=1 c=64 v=63
31052 Par ch=1 c=64 v=0
31272 On ch=1 n=c#4 v=114
31272 On ch=1 n=b4 v=103
31272 On ch=1 n=f#3 v=108
31274 On ch=1 n=d#5 v=109
31276 On ch=1 n=g#4 v=108
31294 Par ch=1 c=64 v=63
31294 Par ch=1 c=64 v=127
31318 On ch=1 n=c#4 v=0
31326 On ch=1 n=f#3 v=0
31478 On ch=1 n=g#4 v=0
31494 On ch=1 n=d#5 v=0
31532 On ch=1 n=c#5 v=101
31584 On ch=1 n=b4 v=0
31620 On ch=1 n=d#5 v=103
31644 On ch=1 n=c#5 v=0
31678 On ch=1 n=d#5 v=0
31708 On ch=1 n=c#4 v=65
31722 Par ch=1 c=64 v=63
31726 Par ch=1 c=64 v=0
31732 On ch=1 n=a#4 v=109
31742 On ch=1 n=c#5 v=114
31748 On ch=1 n=c#6 v=116
31752 On ch=1 n=f5 v=113
31768 On ch=1 n=c#4 v=0
31770 Par ch=1 c=64 v=63
31776 On ch=1 n=f5 v=0
31776 On ch=1 n=a#4 v=0
31786 On ch=1 n=c#5 v=0
31788 Par ch=1 c=64 v=127
31802 On ch=1 n=c#6 v=0
32002 Par ch=1 c=64 v=63
32010 Par ch=1 c=64 v=0
32242 On ch=1 n=c#3 v=100
32252 On ch=1 n=g#3 v=93
32264 On ch=1 n=a#5 v=113
32266 On ch=1 n=f#5 v=116
32286 Par ch=1 c=64 v=63
32286 Par ch=1 c=64 v=127
32294 On ch=1 n=g#3 v=0
32296 On ch=1 n=c#3 v=0
32358 On ch=1 n=a#5 v=0
32358 On ch=1 n=d#5 v=109
32386 On ch=1 n=f#5 v=0
32466 On ch=1 n=d#5 v=0
32478 On ch=1 n=b4 v=85
32480 On ch=1 n=d#4 v=83
32518 On ch=1 n=d#4 v=0
32536 On ch=1 n=b4 v=0
32574 On ch=1 n=g#4 v=106
32622 On ch=1 n=g#4 v=0
32694 Par ch=1 c=64 v=63
32700 On ch=1 n=f#3 v=80
32702 Par ch=1 c=64 v=0
32706 On ch=1 n=c#4 v=97
32706 On ch=1 n=a#4 v=108
32708 On ch=1 n=f#5 v=108
32708 On ch=1 n=c#5 v=110
32708 On ch=1 n=f#4 v=110
32736 Par ch=1 c=64 v=63
32740 On ch=1 n=a#4 v=0
32744 On ch=1 n=c#4 v=0
32744 On ch=1 n=f#3 v=0
32750 Par ch=1 c=64 v=127
32752 On ch=1 n=c#5 v=0
32760 On ch=1 n=f#4 v=0
32768 On ch=1 n=f#5 v=0
33154 On ch=1 n=c#7 v=86
33262 On ch=1 n=c#7 v=0
33270 Par ch=1 c=64 v=63
33274 On ch=1 n=d#7 v=80
33350 On ch=1 n=d#7 v=0
33352 Par ch=1 c=64 v=0
33392 On ch=1 n=f#5 v=67
33396 On ch=1 n=e7 v=84
33404 On ch=1 n=c#7 v=78
33412 On ch=1 n=a6 v=73
33448 Par ch=1 c=64 v=63
33476 Par ch=1 c=64 v=127
33492 On ch=1 n=e7 v=0
33492 On ch=1 n=d#7 v=95
33508 On ch=1 n=c#6 v=67
33510 On ch=1 n=f#5 v=0
33526 On ch=1 n=c#7 v=0
33540 On ch=1 n=a6 v=0
33564 Par ch=1 c=64 v=63
33582 On ch=1 n=d#7 v=0
33596 Par ch=1 c=64 v=0
33606 On ch=1 n=c#6 v=0
33624 On ch=1 n=c#7 v=100
33634 On ch=1 n=a6 v=72
33636 On ch=1 n=e6 v=68
33678 On ch=1 n=a6 v=0
33702 On ch=1 n=c#7 v=0
33724 On ch=1 n=e6 v=0
33738 On ch=1 n=c#6 v=72
33744 On ch=1 n=d#7 v=96
33828 On ch=1 n=d#7 v=0
33854 On ch=1 n=f#5 v=88
33856 On ch=1 n=c#6 v=0
33860 On ch=1 n=c#7 v=83
33866 On ch=1 n=e7 v=91
33880 On ch=1 n=a6 v=33
33906 On ch=1 n=a6 v=0
33912 On ch=1 n=c#7 v=0
33924 On ch=1 n=e7 v=0
33962 On ch=1 n=f#5 v=0
33970 On ch=1 n=c#6 v=67
34076 On ch=1 n=c#6 v=0
34088 On ch=1 n=d#7 v=95
34088 On ch=1 n=f#7 v=96
34092 On ch=1 n=b6 v=76
34096 On ch=1 n=f#6 v=88
34112 On ch=1 n=d#7 v=0
34120 On ch=1 n=b6 v=0
34128 On ch=1 n=f#7 v=0
34154 On ch=1 n=f#6 v=0
34206 On ch=1 n=b5 v=48
34314 On ch=1 n=d#7 v=100
34326 On ch=1 n=b6 v=77
34328 On ch=1 n=g6 v=72
34342 On ch=1 n=b5 v=0
34342 On ch=1 n=e5 v=55
34354 On ch=1 n=b6 v=0
34360 On ch=1 n=g6 v=0
34376 On ch=1 n=d#7 v=0
34438 On ch=1 n=e5 v=0
34440 On ch=1 n=b5 v=61
34574 On ch=1 n=b5 v=0
34574 On ch=1 n=b6 v=89
34578 On ch=1 n=g6 v=78
34580 On ch=1 n=d#6 v=88
34610 On ch=1 n=b6 v=0
34612 On ch=1 n=g6 v=0
34654 On ch=1 n=d#6 v=0
34666 On ch=1 n=b5 v=62
34798 On ch=1 n=d#7 v=98
34798 On ch=1 n=e5 v=65
34808 On ch=1 n=b6 v=67
34812 On ch=1 n=g6 v=60
34814 On ch=1 n=b5 v=0
34840 On ch=1 n=b6 v=0
34848 On ch=1 n=g6 v=0
34858 On ch=1 n=d#7 v=0
34892 On ch=1 n=e5 v=0
34902 On ch=1 n=b5 v=71
35024 On ch=1 n=b5 v=0
35050 On ch=1 n=d6 v=71
35054 On ch=1 n=b6 v=89
35062 On ch=1 n=g6 v=68
35104 On ch=1 n=g6 v=0
35138 On ch=1 n=d6 v=0
35152 On ch=1 n=b5 v=49
35156 On ch=1 n=c#7 v=90
35184 On ch=1 n=b6 v=0
35226 On ch=1 n=c#7 v=0
35278 On ch=1 n=e5 v=57
35280 On ch=1 n=d7 v=92
35280 On ch=1 n=b6 v=78
35282 On ch=1 n=b5 v=0
35284 On ch=1 n=g6 v=76
35374 On ch=1 n=c#7 v=99
35390 On ch=1 n=e5 v=0
35392 On ch=1 n=b5 v=63
35408 On ch=1 n=d7 v=0
35410 On ch=1 n=g6 v=0
35416 On ch=1 n=b6 v=0
35462 On ch=1 n=c#7 v=0
35496 On ch=1 n=b6 v=102
35506 On ch=1 n=b5 v=0
35508 On ch=1 n=g6 v=81
35510 On ch=1 n=d6 v=75
35566 On ch=1 n=g6 v=0
35588 On ch=1 n=c#7 v=107
35594 On ch=1 n=b5 v=76
35612 On ch=1 n=d6 v=0
35632 On ch=1 n=b6 v=0
35674 On ch=1 n=c#7 v=0
35720 On ch=1 n=e5 v=80
35724 On ch=1 n=d7 v=102
35724 On ch=1 n=b6 v=99
35728 On ch=1 n=b5 v=0
35730 On ch=1 n=g6 v=84
35766 On ch=1 n=g6 v=0
35780 On ch=1 n=b6 v=0
35798 On ch=1 n=d7 v=0
35830 On ch=1 n=b5 v=68
35850 On ch=1 n=e5 v=0
35954 On ch=1 n=b5 v=0
35958 On ch=1 n=c#7 v=108
35960 On ch=1 n=e7 v=99
35968 On ch=1 n=e6 v=83
35968 On ch=1 n=a6 v=79
35998 On ch=1 n=a6 v=0
36002 On ch=1 n=e7 v=0
36006 On ch=1 n=c#7 v=0
36050 On ch=1 n=e6 v=0
36076 On ch=1 n=a5 v=82
36186 On ch=1 n=c#7 v=94
36192 On ch=1 n=a6 v=80
36198 On ch=1 n=d5 v=76
36198 On ch=1 n=f6 v=67
36216 On ch=1 n=a5 v=0
36220 On ch=1 n=a6 v=0
36232 On ch=1 n=f6 v=0
36244 On ch=1 n=c#7 v=0
36296 On ch=1 n=a5 v=58
36298 On ch=1 n=d5 v=0
36432 On ch=1 n=a6 v=101
36436 On ch=1 n=a5 v=0
36436 On ch=1 n=f6 v=85
36438 On ch=1 n=c#6 v=87
36470 On ch=1 n=f6 v=0
36482 On ch=1 n=a6 v=0
36502 On ch=1 n=c#6 v=0
36520 On ch=1 n=a5 v=65
36652 On ch=1 n=d5 v=84
36664 On ch=1 n=a5 v=0
36666 On ch=1 n=c#7 v=95
36672 On ch=1 n=a6 v=76
36676 On ch=1 n=f6 v=65
36702 On ch=1 n=a6 v=0
36704 On ch=1 n=c#7 v=0
36712 On ch=1 n=f6 v=0
36760 On ch=1 n=d5 v=0
36760 On ch=1 n=a5 v=52
36894 On ch=1 n=a6 v=98
36902 On ch=1 n=a5 v=0
36902 On ch=1 n=f6 v=81
36914 On ch=1 n=c6 v=61
36936 On ch=1 n=f6 v=0
36968 On ch=1 n=a6 v=0
36992 On ch=1 n=a5 v=58
36998 On ch=1 n=b6 v=87
36998 On ch=1 n=a6 v=17
37000 On ch=1 n=c6 v=0
37038 On ch=1 n=a6 v=0
37066 On ch=1 n=b6 v=0
37110 On ch=1 n=d5 v=66
37114 On ch=1 n=c7 v=93
37116 On ch=1 n=a5 v=0
37118 On ch=1 n=a6 v=84
37128 On ch=1 n=f6 v=69
37210 On ch=1 n=b6 v=91
37228 On ch=1 n=f6 v=0
37234 On ch=1 n=d5 v=0
37236 On ch=1 n=c7 v=0
37238 On ch=1 n=a5 v=59
37244 On ch=1 n=a6 v=0
37294 On ch=1 n=b6 v=0
37344 On ch=1 n=a6 v=103
37346 On ch=1 n=a5 v=0
37352 On ch=1 n=f6 v=86
37354 On ch=1 n=c6 v=77
37438 On ch=1 n=b6 v=90
37442 On ch=1 n=a5 v=76
37456 On ch=1 n=c6 v=0
37476 On ch=1 n=f6 v=0
37476 On ch=1 n=a6 v=0
37522 On ch=1 n=b6 v=0
37566 On ch=1 n=d5 v=87
37570 On ch=1 n=a6 v=101
37572 On ch=1 n=c7 v=101
37576 On ch=1 n=f6 v=90
37584 On ch=1 n=a5 v=0
37610 On ch=1 n=f6 v=0
37620 On ch=1 n=a6 v=0
37630 On ch=1 n=c7 v=0
37678 On ch=1 n=a5 v=61
37680 On ch=1 n=d5 v=0
37812 On ch=1 n=a5 v=0
37814 On ch=1 n=g6 v=104
37820 On ch=1 n=e6 v=91
37822 On ch=1 n=b5 v=75
37872 On ch=1 n=e6 v=0
37906 On ch=1 n=g5 v=82
37910 On ch=1 n=a6 v=98
37912 On ch=1 n=b5 v=0
37946 On ch=1 n=g6 v=0
37994 On ch=1 n=a6 v=0
38028 On ch=1 n=b6 v=97
38030 On ch=1 n=c5 v=96
38032 On ch=1 n=g6 v=84
38040 On ch=1 n=e6 v=82
38056 On ch=1 n=g5 v=0
38120 On ch=1 n=a6 v=102
38144 On ch=1 n=g5 v=85
38164 On ch=1 n=b6 v=0
38174 On ch=1 n=e6 v=0
38174 On ch=1 n=g6 v=0
38204 On ch=1 n=c5 v=0
38226 On ch=1 n=a6 v=0
38248 On ch=1 n=g6 v=97
38258 On ch=1 n=g5 v=0
38258 On ch=1 n=e6 v=88
38268 On ch=1 n=b5 v=94
38350 On ch=1 n=a6 v=101
38354 On ch=1 n=g5 v=88
38384 On ch=1 n=b5 v=0
38398 On ch=1 n=g6 v=0
38402 On ch=1 n=e6 v=0
38448 On ch=1 n=a6 v=0
38472 On ch=1 n=g6 v=89
38476 On ch=1 n=b6 v=88
38478 On ch=1 n=c5 v=109
38478 On ch=1 n=e6 v=84
38484 On ch=1 n=g5 v=0
38522 On ch=1 n=e6 v=0
38526 On ch=1 n=g6 v=0
38538 On ch=1 n=b6 v=0
38586 On ch=1 n=g5 v=97
38646 On ch=1 n=c5 v=0
38710 On ch=1 n=g6 v=103
38714 On ch=1 n=b5 v=86
38714 On ch=1 n=e6 v=91
38716 On ch=1 n=g5 v=0
38804 On ch=1 n=g5 v=88
38806 On ch=1 n=a6 v=94
38814 Par ch=1 c=64 v=63
38832 Par ch=1 c=64 v=127
38838 On ch=1 n=b5 v=0
38852 On ch=1 n=g6 v=0
38888 On ch=1 n=g5 v=0
38924 On ch=1 n=b4 v=120
38930 On ch=1 n=a6 v=0
38934 On ch=1 n=b6 v=89
38986 On ch=1 n=b4 v=0
39040 On ch=1 n=a6 v=93
39046 On ch=1 n=g5 v=89
39072 On ch=1 n=e6 v=0
39078 On ch=1 n=b6 v=0
39108 On ch=1 n=g5 v=0
39162 On ch=1 n=g6 v=103
39164 On ch=1 n=b5 v=79
39200 On ch=1 n=a6 v=0
39230 On ch=1 n=g5 v=71
39246 On ch=1 n=b5 v=0
39266 On ch=1 n=a6 v=90
39296 On ch=1 n=g5 v=0
39306 On ch=1 n=g6 v=0
39346 On ch=1 n=a6 v=0
39362 On ch=1 n=a4 v=124
39372 Par ch=1 c=64 v=63
39374 On ch=1 n=g6 v=99
39374 On ch=1 n=b6 v=94
39376 On ch=1 n=e6 v=93
39382 Par ch=1 c=64 v=0
39418 Par ch=1 c=64 v=63
39422 On ch=1 n=e6 v=0
39428 On ch=1 n=g6 v=0
39442 Par ch=1 c=64 v=127
39446 On ch=1 n=b6 v=0
39474 On ch=1 n=e5 v=100
39558 On ch=1 n=e5 v=0
39604 On ch=1 n=g5 v=84
39604 On ch=1 n=g6 v=111
39690 On ch=1 n=e5 v=89
39700 On ch=1 n=a6 v=102
39704 On ch=1 n=g5 v=0
39716 On ch=1 n=a4 v=0
39742 On ch=1 n=g6 v=0
39762 On ch=1 n=e5 v=0
39794 On ch=1 n=a6 v=0
39814 On ch=1 n=g4 v=125
39816 Par ch=1 c=64 v=63
39820 On ch=1 n=b6 v=101
39822 On ch=1 n=g6 v=101
39828 On ch=1 n=e6 v=90
39830 Par ch=1 c=64 v=0
39838 Par ch=1 c=64 v=63
39862 Par ch=1 c=64 v=127
39876 On ch=1 n=e6 v=0
39920 On ch=1 n=g6 v=0
39930 On ch=1 n=a4 v=99
39930 On ch=1 n=a6 v=101
39994 On ch=1 n=b6 v=0
40034 On ch=1 n=a4 v=0
40046 On ch=1 n=g6 v=99
40048 On ch=1 n=e5 v=93
40094 On ch=1 n=a6 v=0
40134 On ch=1 n=a4 v=88
40136 On ch=1 n=e6 v=85
40140 On ch=1 n=g6 v=0
40148 On ch=1 n=e5 v=0
40160 On ch=1 n=g4 v=0
40184 On ch=1 n=e6 v=0
40196 On ch=1 n=a4 v=0
40254 On ch=1 n=e4 v=127
40276 On ch=1 n=b5 v=90
40292 Par ch=1 c=64 v=63
40328 Par ch=1 c=64 v=127
40364 On ch=1 n=a5 v=106
40364 On ch=1 n=g4 v=99
40478 On ch=1 n=g4 v=0
40484 On ch=1 n=a5 v=0
40486 On ch=1 n=c5 v=99
40490 On ch=1 n=g5 v=104
40514 On ch=1 n=b5 v=0
40570 On ch=1 n=g4 v=104
40582 On ch=1 n=e5 v=99
40584 On ch=1 n=c5 v=0
40596 On ch=1 n=g5 v=0
40602 On ch=1 n=e4 v=0
40646 On ch=1 n=e5 v=0
40656 On ch=1 n=g4 v=0
40700 On ch=1 n=d4 v=126
40714 On ch=1 n=c5 v=118
40752 Par ch=1 c=64 v=63
40762 Par ch=1 c=64 v=0
40788 Par ch=1 c=64 v=63
40806 On ch=1 n=b4 v=109
40814 Par ch=1 c=64 v=127
40816 On ch=1 n=e4 v=106
40848 On ch=1 n=c5 v=0
40926 On ch=1 n=e4 v=0
40926 On ch=1 n=a4 v=109
40940 On ch=1 n=g4 v=88
40966 On ch=1 n=b4 v=0
41014 On ch=1 n=d4 v=0
41018 On ch=1 n=e4 v=99
41020 On ch=1 n=b4 v=101
41048 On ch=1 n=a4 v=0
41060 On ch=1 n=g4 v=0
41096 On ch=1 n=b4 v=0
41106 On ch=1 n=e4 v=0
41142 On ch=1 n=c4 v=127
41150 On ch=1 n=c5 v=121
41152 Par ch=1 c=64 v=63
41158 Par ch=1 c=64 v=0
41220 Par ch=1 c=64 v=63
41238 On ch=1 n=c5 v=0
41238 Par ch=1 c=64 v=127
41252 On ch=1 n=b4 v=98
41256 On ch=1 n=e4 v=106
41332 On ch=1 n=b4 v=0
41354 On ch=1 n=e4 v=0
41368 On ch=1 n=c5 v=112
41374 On ch=1 n=g4 v=91
41444 On ch=1 n=e4 v=88
41456 On ch=1 n=e5 v=107
41458 On ch=1 n=c4 v=0
41474 On ch=1 n=c5 v=0
41486 On ch=1 n=g4 v=0
41512 On ch=1 n=e4 v=0
41528 On ch=1 n=e5 v=0
41580 On ch=1 n=g5 v=112
41584 On ch=1 n=c5 v=112
41588 On ch=1 n=g4 v=104
41588 On ch=1 n=a3 v=101
41590 On ch=1 n=d4 v=104
41610 Par ch=1 c=64 v=63
41618 Par ch=1 c=64 v=0
41622 On ch=1 n=c5 v=0
41630 On ch=1 n=g5 v=0
41652 On ch=1 n=d4 v=0
41654 On ch=1 n=g4 v=0
41818 On ch=1 n=d4 v=113
41820 On ch=1 n=g4 v=107
41822 On ch=1 n=g5 v=121
41826 On ch=1 n=d5 v=121
41832 On ch=1 n=c5 v=112
41856 On ch=1 n=c5 v=0
41864 On ch=1 n=a3 v=0
41868 On ch=1 n=d4 v=0
41872 On ch=1 n=g4 v=0
41900 On ch=1 n=g5 v=0
41918 On ch=1 n=e5 v=99
41952 On ch=1 n=d5 v=0
41994 On ch=1 n=e5 v=0
42048 On ch=1 n=g5 v=122
42054 On ch=1 n=b4 v=120
42054 On ch=1 n=g4 v=120
42056 On ch=1 n=d4 v=120
42058 On ch=1 n=g3 v=104
42062 On ch=1 n=f3 v=104
42070 Par ch=1 c=64 v=127
42094 On ch=1 n=b4 v=0
42100 On ch=1 n=d4 v=0
42108 On ch=1 n=g5 v=0
42110 On ch=1 n=f3 v=0
42110 On ch=1 n=g4 v=0
42136 On ch=1 n=g3 v=0
42242 Par ch=1 c=64 v=63
42248 Par ch=1 c=64 v=0
42420 On ch=1 n=f3 v=93
42442 On ch=1 n=c4 v=91
42490 Par ch=1 c=64 v=127
42504 On ch=1 n=f3 v=0
42516 On ch=1 n=a4 v=113
42518 On ch=1 n=a5 v=120
42522 On ch=1 n=e5 v=121
42524 On ch=1 n=c5 v=120
42536 On ch=1 n=c4 v=0
42578 On ch=1 n=a4 v=0
42682 On ch=1 n=a5 v=0
42712 On ch=1 n=c5 v=0
42776 On ch=1 n=g5 v=94
42836 On ch=1 n=e5 v=0
42840 On ch=1 n=d4 v=78
42852 On ch=1 n=a5 v=98
42890 On ch=1 n=f4 v=64
42894 On ch=1 n=g5 v=0
42916 On ch=1 n=a5 v=0
42966 On ch=1 n=a4 v=9
42978 On ch=1 n=e5 v=118
42992 On ch=1 n=g6 v=112
42994 On ch=1 n=a5 v=117
42996 On ch=1 n=c6 v=109
42998 On ch=1 n=e6 v=109
43014 On ch=1 n=a5 v=0
43020 On ch=1 n=e6 v=0
43022 Par ch=1 c=64 v=63
43022 Par ch=1 c=64 v=0
43026 On ch=1 n=c6 v=0
43040 On ch=1 n=g6 v=0
43142 On ch=1 n=e5 v=0
43180 On ch=1 n=a4 v=0
43200 On ch=1 n=f4 v=0
43210 On ch=1 n=d4 v=0
43470 On ch=1 n=g3 v=109
43472 On ch=1 n=d4 v=114
43476 On ch=1 n=c6 v=114
43478 On ch=1 n=e6 v=111
43480 Par ch=1 c=64 v=127
43570 On ch=1 n=a5 v=104
43592 On ch=1 n=g3 v=0
43608 On ch=1 n=e6 v=0
43614 On ch=1 n=c6 v=0
43688 On ch=1 n=a4 v=100
43694 On ch=1 n=f5 v=99
43696 On ch=1 n=a5 v=0
43716 On ch=1 n=d4 v=0
43726 On ch=1 n=a4 v=0
43750 On ch=1 n=f5 v=0
43796 On ch=1 n=d5 v=104
43848 On ch=1 n=d5 v=0
43880 On ch=1 n=c3 v=93
43904 On ch=1 n=g3 v=100
43916 Par ch=1 c=64 v=63
43920 On ch=1 n=g5 v=100
43924 Par ch=1 c=64 v=0
43924 On ch=1 n=c6 v=101
43926 On ch=1 n=e5 v=104
43930 On ch=1 n=c5 v=111
43954 On ch=1 n=c3 v=0
43958 On ch=1 n=e5 v=0
43958 Par ch=1 c=64 v=63
43958 On ch=1 n=e4 v=113
43962 On ch=1 n=c5 v=0
43966 On ch=1 n=g5 v=0
43968 Par ch=1 c=64 v=127
43970 On ch=1 n=c6 v=0
43976 On ch=1 n=g3 v=0
44004 On ch=1 n=e4 v=0
44218 Par ch=1 c=64 v=63
44232 Par ch=1 c=64 v=0
44344 On ch=1 n=c5 v=88
44388 Par ch=1 c=64 v=63
44396 On ch=1 n=f5 v=76
44400 Par ch=1 c=64 v=127
44418 On ch=1 n=c5 v=0
44430 On ch=1 n=d7 v=117
44434 On ch=1 n=a#6 v=124
44436 On ch=1 n=f6 v=117
44444 On ch=1 n=a#5 v=109
44448 On ch=1 n=d6 v=116
44462 On ch=1 n=f5 v=0
44486 On ch=1 n=f6 v=0
44494 On ch=1 n=a#5 v=0
44514 On ch=1 n=d6 v=0
44598 On ch=1 n=a#6 v=0
44676 On ch=1 n=c7 v=101
44678 On ch=1 n=d7 v=0
44766 On ch=1 n=d7 v=104
44804 On ch=1 n=c7 v=0
44836 On ch=1 n=d7 v=0
44836 On ch=1 n=e5 v=66
44850 Par ch=1 c=64 v=63
44862 Par ch=1 c=64 v=0
44870 On ch=1 n=a5 v=98
44870 On ch=1 n=c6 v=114
44872 On ch=1 n=e6 v=122
44874 Par ch=1 c=64 v=63
44876 On ch=1 n=g7 v=112
44876 On ch=1 n=e7 v=101
44878 On ch=1 n=c7 v=111
44880 On ch=1 n=g6 v=109
44898 Par ch=1 c=64 v=127
44900 On ch=1 n=e7 v=0
44902 On ch=1 n=g6 v=0
44902 On ch=1 n=c7 v=0
44910 Par ch=1 c=64 v=127
44920 On ch=1 n=g7 v=0
44920 On ch=1 n=c6 v=0
44922 On ch=1 n=e6 v=0
44938 On ch=1 n=a5 v=0
44950 On ch=1 n=e5 v=0
45026 Par ch=1 c=64 v=63
45028 Par ch=1 c=64 v=0
45168 On ch=1 n=c5 v=108
45252 On ch=1 n=d5 v=106
45300 On ch=1 n=c5 v=0
45384 On ch=1 n=d5 v=0
45384 On ch=1 n=d#5 v=97
45386 On ch=1 n=d#6 v=114
45392 On ch=1 n=c6 v=103
45392 On ch=1 n=g#5 v=99
45476 On ch=1 n=d#5 v=0
45486 On ch=1 n=d5 v=91
45574 On ch=1 n=d5 v=0
45594 On ch=1 n=c5 v=88
45698 On ch=1 n=d5 v=94
45706 On ch=1 n=c5 v=0
45740 On ch=1 n=c6 v=0
45774 On ch=1 n=d5 v=0
45782 On ch=1 n=d#6 v=0
45784 On ch=1 n=g#5 v=0
45818 On ch=1 n=d#5 v=108
45864 On ch=1 n=d#5 v=0
46056 On ch=1 n=a5 v=98
46058 On ch=1 n=f5 v=102
46060 On ch=1 n=c6 v=98
46060 On ch=1 n=f6 v=97
46088 On ch=1 n=c6 v=0
46092 On ch=1 n=f6 v=0
46108 On ch=1 n=f5 v=0
46110 On ch=1 n=a5 v=0
46292 On ch=1 n=d5 v=107
46294 On ch=1 n=a5 v=87
46296 On ch=1 n=d6 v=89
46300 On ch=1 n=f#5 v=85
46326 On ch=1 n=a5 v=0
46330 On ch=1 n=f#5 v=0
46340 On ch=1 n=d5 v=0
46342 On ch=1 n=d6 v=0
46528 On ch=1 n=c6 v=94
46530 On ch=1 n=g5 v=85
46534 On ch=1 n=e5 v=81
46538 On ch=1 n=c5 v=101
46558 On ch=1 n=g5 v=0
46566 On ch=1 n=e5 v=0
46578 On ch=1 n=c6 v=0
46582 On ch=1 n=c5 v=0
46758 On ch=1 n=d6 v=96
46762 On ch=1 n=f#5 v=97
46772 On ch=1 n=d5 v=91
46800 On ch=1 n=d5 v=0
46800 On ch=1 n=f#5 v=0
46812 On ch=1 n=d6 v=0
46986 On ch=1 n=d5 v=99
46992 On ch=1 n=f5 v=91
46994 On ch=1 n=a#5 v=94
46994 On ch=1 n=a#4 v=109
47018 On ch=1 n=f5 v=0
47020 On ch=1 n=d5 v=0
47040 On ch=1 n=a#4 v=0
47042 On ch=1 n=a#5 v=0
47226 On ch=1 n=b4 v=100
47226 On ch=1 n=f5 v=103
47228 On ch=1 n=a5 v=101
47228 On ch=1 n=d6 v=106
47230 On ch=1 n=d5 v=97
47232 On ch=1 n=g4 v=84
47252 Par ch=1 c=64 v=63
47254 On ch=1 n=a5 v=0
47258 Par ch=1 c=64 v=127
47260 On ch=1 n=f5 v=0
47260 On ch=1 n=b4 v=0
47268 On ch=1 n=d5 v=0
47280 On ch=1 n=d6 v=0
47296 On ch=1 n=g4 v=0
47458 On ch=1 n=e5 v=84
47466 On ch=1 n=e6 v=97
47534 On ch=1 n=e5 v=0
47546 On ch=1 n=d6 v=93
47550 On ch=1 n=e6 v=0
47554 On ch=1 n=d5 v=84
47582 On ch=1 n=d5 v=0
47596 On ch=1 n=d6 v=0
47634 Par ch=1 c=64 v=63
47640 Par ch=1 c=64 v=0
47668 On ch=1 n=c6 v=102
47670 On ch=1 n=g5 v=91
47670 On ch=1 n=e5 v=92
47672 On ch=1 n=c5 v=103
47696 On ch=1 n=g5 v=0
47698 On ch=1 n=e5 v=0
47714 On ch=1 n=c6 v=0
47720 On ch=1 n=c5 v=0
47910 On ch=1 n=d5 v=98
47910 On ch=1 n=f5 v=92
47910 On ch=1 n=a#5 v=97
47916 On ch=1 n=a#4 v=97
47938 On ch=1 n=f5 v=0
47942 On ch=1 n=d5 v=0
47950 On ch=1 n=a#5 v=0
47952 On ch=1 n=a#4 v=0
48140 On ch=1 n=g5 v=91
48140 On ch=1 n=g4 v=93
48144 On ch=1 n=c5 v=94
48148 On ch=1 n=c4 v=99
48154 On ch=1 n=e5 v=51
48180 On ch=1 n=c5 v=0
48180 On ch=1 n=g4 v=0
48190 On ch=1 n=e5 v=0
48190 On ch=1 n=c4 v=0
48198 On ch=1 n=g5 v=0
48372 On ch=1 n=d4 v=96
48372 On ch=1 n=d5 v=89
48374 On ch=1 n=g3 v=85
48378 On ch=1 n=a#4 v=88
48380 On ch=1 n=f5 v=69
48394 On ch=1 n=d4 v=0
48400 On ch=1 n=d5 v=0
48412 On ch=1 n=a#4 v=0
48416 On ch=1 n=f5 v=0
48418 On ch=1 n=g3 v=0
48604 Par ch=1 c=64 v=63
48612 On ch=1 n=c3 v=96
48612 Par ch=1 c=64 v=127
48614 On ch=1 n=g3 v=91
48614 On ch=1 n=g4 v=84
48616 On ch=1 n=g5 v=84
48616 On ch=1 n=c5 v=87
48620 On ch=1 n=e5 v=65
48642 On ch=1 n=c5 v=0
48642 On ch=1 n=g3 v=0
48644 On ch=1 n=g4 v=0
48646 On ch=1 n=c3 v=0
48654 On ch=1 n=e5 v=0
48672 On ch=1 n=g5 v=0
48844 Par ch=1 c=64 v=63
48850 Par ch=1 c=64 v=0
48858 On ch=1 n=c5 v=104
48938 On ch=1 n=d5 v=99
48982 On ch=1 n=c5 v=0
49044 On ch=1 n=d5 v=0
49062 On ch=1 n=d#5 v=108
49064 On ch=1 n=d#6 v=115
49068 On ch=1 n=c6 v=109
49070 On ch=1 n=g#5 v=107
49092 Par ch=1 c=64 v=63
49094 Par ch=1 c=64 v=127
49140 On ch=1 n=d#5 v=0
49166 On ch=1 n=d5 v=101
49196 Par ch=1 c=64 v=63
49206 Par ch=1 c=64 v=0
49246 On ch=1 n=d5 v=0
49262 On ch=1 n=c5 v=84
49366 On ch=1 n=d5 v=100
49394 On ch=1 n=c5 v=0
49444 On ch=1 n=d5 v=0
49476 On ch=1 n=c6 v=0
49480 On ch=1 n=d#5 v=112
49498 On ch=1 n=g#5 v=0
49516 On ch=1 n=d#6 v=0
49524 On ch=1 n=d#5 v=0
49712 On ch=1 n=f5 v=112
49716 On ch=1 n=a5 v=90
49718 On ch=1 n=f6 v=89
49718 On ch=1 n=c6 v=86
49744 On ch=1 n=c6 v=0
49752 On ch=1 n=f6 v=0
49756 On ch=1 n=a5 v=0
49764 On ch=1 n=f5 v=0
49942 On ch=1 n=d6 v=102
49942 On ch=1 n=d5 v=111
49944 On ch=1 n=f5 v=106
49946 On ch=1 n=a#5 v=98
49950 On ch=1 n=a#4 v=106
49978 On ch=1 n=a#5 v=0
49986 On ch=1 n=f5 v=0
49988 On ch=1 n=d6 v=0
49992 On ch=1 n=d5 v=0
49996 On ch=1 n=a#4 v=0
50162 On ch=1 n=c5 v=108
50164 On ch=1 n=c6 v=111
50168 On ch=1 n=f4 v=106
50168 On ch=1 n=f5 v=104
50176 On ch=1 n=a5 v=76
50204 On ch=1 n=a5 v=0
50208 On ch=1 n=f5 v=0
50208 On ch=1 n=c5 v=0
50220 On ch=1 n=f4 v=0
50226 On ch=1 n=c6 v=0
50408 On ch=1 n=f5 v=106
50410 On ch=1 n=d5 v=103
50410 On ch=1 n=a#5 v=112
50412 On ch=1 n=a#3 v=101
50412 On ch=1 n=f4 v=106
50414 On ch=1 n=a#4 v=118
50436 Par ch=1 c=64 v=63
50436 Par ch=1 c=64 v=127
50448 On ch=1 n=d5 v=0
50450 On ch=1 n=a#4 v=0
50452 On ch=1 n=f5 v=0
50456 On ch=1 n=f4 v=0
50472 On ch=1 n=a#3 v=0
50472 On ch=1 n=a#5 v=0
50666 Par ch=1 c=64 v=63
50672 Par ch=1 c=64 v=0
50896 On ch=1 n=a#2 v=105
50910 On ch=1 n=a#3 v=116
50912 On ch=1 n=g5 v=107
50912 On ch=1 n=f3 v=107
50914 On ch=1 n=d#5 v=98
50914 On ch=1 n=a#4 v=105
50918 On ch=1 n=c5 v=99
50940 Par ch=1 c=64 v=127
50952 On ch=1 n=a#2 v=0
50962 On ch=1 n=f3 v=0
50964 On ch=1 n=a#3 v=0
51022 On ch=1 n=a#4 v=0
51074 On ch=1 n=g5 v=0
51080 On ch=1 n=c5 v=0
51130 On ch=1 n=d#5 v=0
51160 On ch=1 n=f5 v=88
51238 On ch=1 n=g5 v=93
51264 On ch=1 n=f5 v=0
51290 On ch=1 n=g5 v=0
51336 On ch=1 n=f4 v=101
51346 Par ch=1 c=64 v=63
51354 Par ch=1 c=64 v=0
51358 On ch=1 n=a#4 v=107
51362 On ch=1 n=d6 v=117
51362 On ch=1 n=d5 v=108
51368 On ch=1 n=a#5 v=107
51372 On ch=1 n=f5 v=94
51396 On ch=1 n=f5 v=0
51402 On ch=1 n=a#5 v=0
51406 On ch=1 n=a#4 v=0
51408 On ch=1 n=f4 v=0
51414 On ch=1 n=d5 v=0
51416 On ch=1 n=d6 v=0
51608 On ch=1 n=f5 v=92
51708 On ch=1 n=g5 v=77
51718 On ch=1 n=f5 v=0
51794 On ch=1 n=g5 v=0
51826 On ch=1 n=g#6 v=119
51828 On ch=1 n=g#5 v=92
51834 On ch=1 n=c#6 v=109
51836 On ch=1 n=f6 v=107
51878 Par ch=1 c=64 v=63
51880 Par ch=1 c=64 v=127
51912 On ch=1 n=g#5 v=0
51928 On ch=1 n=g5 v=79
52026 On ch=1 n=g5 v=0
52040 On ch=1 n=f5 v=76
52140 On ch=1 n=g5 v=86
52186 On ch=1 n=f5 v=0
52248 Par ch=1 c=64 v=63
52250 On ch=1 n=g#5 v=110
52252 On ch=1 n=g5 v=0
52256 Par ch=1 c=64 v=0
52264 On ch=1 n=f6 v=0
52304 On ch=1 n=g#5 v=0
52304 On ch=1 n=g#6 v=0
52312 On ch=1 n=c#6 v=0
52492 On ch=1 n=f6 v=102
52492 On ch=1 n=d6 v=98
52494 On ch=1 n=a#6 v=106
52496 On ch=1 n=a#5 v=113
52522 On ch=1 n=f6 v=0
52526 On ch=1 n=d6 v=0
52528 On ch=1 n=a#6 v=0
52542 On ch=1 n=a#5 v=0
52724 On ch=1 n=a#5 v=101
52724 On ch=1 n=f#6 v=98
52726 On ch=1 n=f#5 v=112
52736 On ch=1 n=c#6 v=67
52752 On ch=1 n=a#5 v=0
52760 On ch=1 n=f#6 v=0
52764 On ch=1 n=c#6 v=0
52770 On ch=1 n=f#5 v=0
52946 On ch=1 n=b5 v=100
52950 On ch=1 n=g5 v=89
52950 On ch=1 n=e6 v=97
52950 On ch=1 n=e5 v=106
52982 On ch=1 n=g5 v=0
52988 On ch=1 n=b5 v=0
52994 On ch=1 n=e6 v=0
52998 On ch=1 n=e5 v=0
53178 On ch=1 n=f#6 v=104
53180 On ch=1 n=a#5 v=108
53184 On ch=1 n=f#5 v=105
53186 On ch=1 n=c#6 v=92
53212 On ch=1 n=c#6 v=0
53224 On ch=1 n=a#5 v=0
53230 On ch=1 n=f#5 v=0
53236 On ch=1 n=f#6 v=0
53410 On ch=1 n=a#5 v=98
53412 On ch=1 n=g5 v=84
53416 On ch=1 n=d#6 v=94
53416 On ch=1 n=d#5 v=105
53436 On ch=1 n=a#5 v=0
53442 On ch=1 n=g5 v=0
53456 On ch=1 n=d#5 v=0
53458 On ch=1 n=d#6 v=0
53646 On ch=1 n=b4 v=84
53652 On ch=1 n=f#5 v=96
53654 On ch=1 n=d#5 v=84
53654 On ch=1 n=f#6 v=113
53654 On ch=1 n=a5 v=108
53656 On ch=1 n=c#6 v=109
53680 On ch=1 n=f#5 v=0
53680 Par ch=1 c=64 v=127
53682 On ch=1 n=d#5 v=0
53688 On ch=1 n=c#6 v=0
53694 On ch=1 n=a5 v=0
53696 On ch=1 n=b4 v=0
53710 On ch=1 n=f#6 v=0
53890 On ch=1 n=g#5 v=95
53896 On ch=1 n=g#6 v=88
53962 On ch=1 n=f#6 v=83
53970 On ch=1 n=g#5 v=0
53974 On ch=1 n=g#6 v=0
53988 On ch=1 n=f#5 v=95
54002 On ch=1 n=f#6 v=0
54052 On ch=1 n=f#5 v=0
54104 Par ch=1 c=64 v=63
54110 On ch=1 n=g#5 v=99
54112 On ch=1 n=c#5 v=110
54112 On ch=1 n=e5 v=97
54116 Par ch=1 c=64 v=0
54116 On ch=1 n=e6 v=96
54118 On ch=1 n=b5 v=88
54148 On ch=1 n=b5 v=0
54154 On ch=1 n=c#5 v=0
54160 On ch=1 n=e5 v=0
54164 On ch=1 n=g#5 v=0
54176 On ch=1 n=e6 v=0
54338 On ch=1 n=d#5 v=110
54342 On ch=1 n=g#4 v=96
54348 On ch=1 n=c5 v=93
54350 On ch=1 n=d#6 v=104
54350 On ch=1 n=a#5 v=104
54352 On ch=1 n=f#5 v=99
54370 On ch=1 n=c5 v=0
54380 On ch=1 n=f#5 v=0
54380 On ch=1 n=a#5 v=0
54384 On ch=1 n=d#5 v=0
54388 On ch=1 n=d#6 v=0
54394 On ch=1 n=g#4 v=0
54592 On ch=1 n=c#5 v=118
54592 On ch=1 n=c#6 v=110
54592 On ch=1 n=g#5 v=106
54594 On ch=1 n=f5 v=100
54596 On ch=1 n=g#4 v=105
54598 On ch=1 n=c#4 v=106
54618 On ch=1 n=g#4 v=0
54622 On ch=1 n=f5 v=0
54626 On ch=1 n=g#5 v=0
54630 On ch=1 n=c#5 v=0
54644 On ch=1 n=c#4 v=0
54646 On ch=1 n=c#6 v=0
54832 On ch=1 n=b5 v=100
54836 On ch=1 n=d#5 v=103
54840 On ch=1 n=f#5 v=101
54842 On ch=1 n=g#3 v=107
54842 On ch=1 n=g#4 v=106
54870 On ch=1 n=f#5 v=0
54870 On ch=1 n=d#5 v=0
54878 On ch=1 n=g#4 v=0
54884 On ch=1 n=b5 v=0
54888 On ch=1 n=g#3 v=0
55068 On ch=1 n=c#5 v=108
55070 On ch=1 n=f5 v=101
55072 On ch=1 n=g#5 v=101
55072 On ch=1 n=c#3 v=103
55074 On ch=1 n=c#4 v=114
55090 Par ch=1 c=64 v=63
55092 Par ch=1 c=64 v=127
55098 On ch=1 n=c#3 v=0
55108 On ch=1 n=f5 v=0
55108 On ch=1 n=c#5 v=0
55110 On ch=1 n=c#4 v=0
55130 On ch=1 n=g#5 v=0
55316 On ch=1 n=g#5 v=100
55412 On ch=1 n=a#5 v=115
55448 On ch=1 n=g#5 v=0
55516 On ch=1 n=b6 v=118
55522 On ch=1 n=g#6 v=118
55524 On ch=1 n=b5 v=108
55524 On ch=1 n=e6 v=114
55532 On ch=1 n=a#5 v=0
55538 Par ch=1 c=64 v=63
55542 Par ch=1 c=64 v=0
55618 On ch=1 n=b5 v=0
55636 On ch=1 n=a#5 v=107
55696 Par ch=1 c=64 v=63
55698 Par ch=1 c=64 v=127
55720 On ch=1 n=a#5 v=0
55738 On ch=1 n=g#5 v=105
55836 On ch=1 n=a#5 v=112
55840 On ch=1 n=g#5 v=0
55930 On ch=1 n=a#5 v=0
55964 On ch=1 n=b5 v=118
55966 On ch=1 n=e6 v=0
55972 Par ch=1 c=64 v=63
55976 Par ch=1 c=64 v=0
55982 On ch=1 n=g#6 v=0
55982 On ch=1 n=b6 v=0
56026 On ch=1 n=b5 v=0
56192 On ch=1 n=c#7 v=115
56194 On ch=1 n=g#6 v=112
56196 On ch=1 n=f6 v=111
56198 On ch=1 n=c#6 v=123
56232 On ch=1 n=f6 v=0
56236 On ch=1 n=g#6 v=0
56240 On ch=1 n=c#7 v=0
56262 On ch=1 n=c#6 v=0
56418 On ch=1 n=a#5 v=116
56422 On ch=1 n=c#6 v=114
56424 On ch=1 n=f#6 v=105
56424 On ch=1 n=a#6 v=104
56428 On ch=1 n=f#5 v=101
56458 On ch=1 n=f#6 v=0
56462 On ch=1 n=c#6 v=0
56464 On ch=1 n=f#5 v=0
56464 On ch=1 n=a#5 v=0
56470 On ch=1 n=a#6 v=0
56640 On ch=1 n=g#5 v=112
56644 On ch=1 n=g#6 v=103
56646 On ch=1 n=c#6 v=106
56646 On ch=1 n=f6 v=98
56650 On ch=1 n=c#5 v=110
56670 On ch=1 n=f6 v=0
56686 On ch=1 n=g#5 v=0
56688 On ch=1 n=c#5 v=0
56690 On ch=1 n=c#6 v=0
56696 On ch=1 n=g#6 v=0
56880 On ch=1 n=f#6 v=119
56882 On ch=1 n=f#5 v=124
56882 On ch=1 n=f#4 v=116
56882 On ch=1 n=a#5 v=119
56886 On ch=1 n=c#6 v=113
56888 On ch=1 n=c#5 v=103
56910 Par ch=1 c=64 v=63
56910 Par ch=1 c=64 v=127
56914 On ch=1 n=c#5 v=0
56916 On ch=1 n=f#5 v=0
56920 On ch=1 n=a#5 v=0
56930 On ch=1 n=c#6 v=0
56934 On ch=1 n=f#6 v=0
56944 On ch=1 n=f#4 v=0
57166 Par ch=1 c=64 v=63
57172 Par ch=1 c=64 v=0
57384 On ch=1 n=f#4 v=121
57384 On ch=1 n=f#3 v=114
57384 On ch=1 n=g#4 v=109
57386 On ch=1 n=d#5 v=113
57386 On ch=1 n=b4 v=106
57388 On ch=1 n=c#4 v=107
57396 Par ch=1 c=64 v=127
57408 On ch=1 n=c#4 v=0
57422 On ch=1 n=f#3 v=0
57422 On ch=1 n=f#4 v=0
57564 On ch=1 n=g#4 v=0
57600 On ch=1 n=d#5 v=0
57636 On ch=1 n=c#5 v=104
57684 On ch=1 n=b4 v=0
57730 On ch=1 n=d#5 v=105
57752 On ch=1 n=c#5 v=0
57788 On ch=1 n=d#5 v=0
57802 On ch=1 n=c#4 v=58
57826 Par ch=1 c=64 v=63
57832 Par ch=1 c=64 v=0
57840 On ch=1 n=a#4 v=105
57848 On ch=1 n=c#5 v=113
57856 On ch=1 n=c#6 v=115
57862 On ch=1 n=f5 v=103
57870 On ch=1 n=c#4 v=0
57876 Par ch=1 c=64 v=63
57884 On ch=1 n=f5 v=0
57884 On ch=1 n=a#4 v=0
57886 Par ch=1 c=64 v=127
57892 On ch=1 n=c#5 v=0
57912 On ch=1 n=c#6 v=0
58116 Par ch=1 c=64 v=63
58120 Par ch=1 c=64 v=0
58322 On ch=1 n=c#3 v=112
58328 On ch=1 n=g#3 v=103
58330 On ch=1 n=a#5 v=114
58334 On ch=1 n=f#5 v=116
58344 Par ch=1 c=64 v=127
58398 On ch=1 n=g#3 v=0
58402 On ch=1 n=c#3 v=0
58426 On ch=1 n=d#5 v=108
58432 On ch=1 n=a#5 v=0
58464 On ch=1 n=f#5 v=0
58540 On ch=1 n=d#5 v=0
58546 On ch=1 n=b4 v=93
58548 On ch=1 n=d#4 v=107
58602 On ch=1 n=d#4 v=0
58606 On ch=1 n=b4 v=0
58646 On ch=1 n=g#4 v=112
58698 On ch=1 n=g#4 v=0
58748 Par ch=1 c=64 v=63
58754 Par ch=1 c=64 v=0
58784 On ch=1 n=f#3 v=96
58786 On ch=1 n=c#4 v=114
58786 On ch=1 n=a#4 v=116
58786 On ch=1 n=f#5 v=113
58788 On ch=1 n=f#4 v=123
58790 On ch=1 n=c#5 v=106
58804 Par ch=1 c=64 v=63
58814 Par ch=1 c=64 v=127
58816 On ch=1 n=c#5 v=0
58828 On ch=1 n=a#4 v=0
58830 On ch=1 n=c#4 v=0
58838 On ch=1 n=f#3 v=0
58852 On ch=1 n=f#5 v=0
58856 On ch=1 n=f#4 v=0
59282 Par ch=1 c=64 v=63
59304 Par ch=1 c=64 v=0
59314 On ch=1 n=c#7 v=76
59430 On ch=1 n=d#7 v=76
59448 On ch=1 n=c#7 v=0
59524 On ch=1 n=d#7 v=0
59536 On ch=1 n=f#5 v=79
59548 On ch=1 n=e7 v=88
59558 On ch=1 n=c#7 v=78
59564 On ch=1 n=a6 v=77
59648 On ch=1 n=d#7 v=100
59658 On ch=1 n=c#6 v=73
59664 On ch=1 n=f#5 v=0
59666 On ch=1 n=e7 v=0
59692 On ch=1 n=c#7 v=0
59698 On ch=1 n=a6 v=0
59746 On ch=1 n=d#7 v=0
59764 On ch=1 n=c#6 v=0
59768 On ch=1 n=c#7 v=100
59778 On ch=1 n=a6 v=78
59782 On ch=1 n=e6 v=76
59838 On ch=1 n=a6 v=0
59862 On ch=1 n=c#7 v=0
59872 On ch=1 n=e6 v=0
59876 On ch=1 n=d#7 v=96
59878 On ch=1 n=c#6 v=70
59984 On ch=1 n=c#6 v=0
59992 On ch=1 n=f#5 v=80
60002 On ch=1 n=e7 v=83
60006 On ch=1 n=c#7 v=79
60014 On ch=1 n=d#7 v=0
60014 On ch=1 n=a6 v=51
60050 On ch=1 n=c#7 v=0
60052 On ch=1 n=a6 v=0
60060 On ch=1 n=e7 v=0
60094 On ch=1 n=f#5 v=0
60110 On ch=1 n=c#6 v=57
60204 On ch=1 n=c#6 v=0
60220 On ch=1 n=f#7 v=99
60226 On ch=1 n=d#7 v=88
60226 On ch=1 n=b6 v=83
60234 On ch=1 n=f#6 v=81
60252 On ch=1 n=d#7 v=0
60258 On ch=1 n=b6 v=0
60278 On ch=1 n=f#7 v=0
60292 On ch=1 n=f#6 v=0
60344 On ch=1 n=b5 v=48
60450 On ch=1 n=d#7 v=94
60454 On ch=1 n=b6 v=83
60462 On ch=1 n=g6 v=66
60462 On ch=1 n=e5 v=63
60466 On ch=1 n=b5 v=0
60488 On ch=1 n=b6 v=0
60496 On ch=1 n=g6 v=0
60508 On ch=1 n=d#7 v=0
60558 On ch=1 n=e5 v=0
60566 On ch=1 n=b5 v=66
60676 On ch=1 n=b5 v=0
60694 On ch=1 n=b6 v=97
60698 On ch=1 n=d#6 v=90
60698 On ch=1 n=g6 v=84
60730 On ch=1 n=g6 v=0
60740 On ch=1 n=b6 v=0
60756 On ch=1 n=d#6 v=0
60784 On ch=1 n=b5 v=44
60910 On ch=1 n=d#7 v=93
60916 On ch=1 n=g6 v=73
60918 On ch=1 n=b6 v=76
60926 On ch=1 n=e5 v=62
60932 On ch=1 n=b5 v=0
60950 On ch=1 n=b6 v=0
60960 On ch=1 n=g6 v=0
60972 On ch=1 n=d#7 v=0
61016 On ch=1 n=e5 v=0
61022 On ch=1 n=b5 v=58
61156 On ch=1 n=b5 v=0
61162 On ch=1 n=b6 v=97
61164 On ch=1 n=d6 v=68
61170 On ch=1 n=g6 v=73
61216 On ch=1 n=g6 v=0
61254 On ch=1 n=b5 v=54
61258 On ch=1 n=d6 v=0
61258 On ch=1 n=c#7 v=96
61280 On ch=1 n=b6 v=0
61334 On ch=1 n=c#7 v=0
61378 On ch=1 n=b5 v=0
61380 On ch=1 n=e5 v=63
61382 On ch=1 n=b6 v=89
61386 On ch=1 n=d7 v=89
61390 On ch=1 n=g6 v=77
61476 On ch=1 n=c#7 v=97
61482 On ch=1 n=e5 v=0
61484 On ch=1 n=b5 v=64
61506 On ch=1 n=d7 v=0
61518 On ch=1 n=g6 v=0
61522 On ch=1 n=b6 v=0
61560 On ch=1 n=c#7 v=0
61596 On ch=1 n=b5 v=0
61600 On ch=1 n=b6 v=94
61610 On ch=1 n=g6 v=76
61612 On ch=1 n=d6 v=68
61664 On ch=1 n=g6 v=0
61688 On ch=1 n=c#7 v=103
61694 On ch=1 n=b5 v=71
61712 On ch=1 n=d6 v=0
61722 On ch=1 n=b6 v=0
61780 On ch=1 n=c#7 v=0
61826 On ch=1 n=d7 v=102
61826 On ch=1 n=e5 v=79
61828 On ch=1 n=b6 v=94
61832 On ch=1 n=g6 v=84
61834 On ch=1 n=b5 v=0
61864 On ch=1 n=g6 v=0
61874 On ch=1 n=b6 v=0
61898 On ch=1 n=d7 v=0
61920 On ch=1 n=b5 v=78
61946 On ch=1 n=e5 v=0
62042 On ch=1 n=b5 v=0
62044 On ch=1 n=e7 v=107
62048 On ch=1 n=c#7 v=99
62054 On ch=1 n=e6 v=84
62054 On ch=1 n=a6 v=83
62084 On ch=1 n=a6 v=0
62090 On ch=1 n=c#7 v=0
62098 On ch=1 n=e7 v=0
62130 On ch=1 n=e6 v=0
62160 On ch=1 n=a5 v=84
62276 On ch=1 n=c#7 v=101
62282 On ch=1 n=d5 v=76
62284 On ch=1 n=a6 v=80
62288 On ch=1 n=f6 v=71
62292 On ch=1 n=a5 v=0
62314 On ch=1 n=a6 v=0
62320 On ch=1 n=f6 v=0
62332 On ch=1 n=c#7 v=0
62380 On ch=1 n=a5 v=62
62382 On ch=1 n=d5 v=0
62502 On ch=1 n=a5 v=0
62514 On ch=1 n=a6 v=100
62516 On ch=1 n=c#6 v=88
62522 On ch=1 n=f6 v=78
62552 On ch=1 n=f6 v=0
62564 On ch=1 n=a6 v=0
62580 On ch=1 n=c#6 v=0
62596 On ch=1 n=a5 v=55
62734 On ch=1 n=d5 v=81
62746 On ch=1 n=c#7 v=101
62750 On ch=1 n=a6 v=82
62752 On ch=1 n=f6 v=73
62754 On ch=1 n=a5 v=0
62778 On ch=1 n=a6 v=0
62786 On ch=1 n=f6 v=0
62794 On ch=1 n=c#7 v=0
62838 On ch=1 n=d5 v=0
62842 On ch=1 n=a5 v=58
62970 On ch=1 n=a5 v=0
62978 On ch=1 n=a6 v=99
62982 On ch=1 n=c6 v=64
62984 On ch=1 n=f6 v=82
63024 On ch=1 n=f6 v=0
63056 On ch=1 n=a6 v=0
63066 On ch=1 n=a5 v=52
63078 On ch=1 n=c6 v=0
63080 On ch=1 n=b6 v=87
63150 On ch=1 n=b6 v=0
63182 On ch=1 n=d5 v=63
63186 On ch=1 n=a5 v=0
63196 On ch=1 n=c7 v=96
63198 On ch=1 n=a6 v=88
63206 On ch=1 n=f6 v=77
63280 On ch=1 n=d5 v=0
63290 On ch=1 n=b6 v=87
63292 On ch=1 n=a5 v=59
63304 On ch=1 n=c7 v=0
63320 On ch=1 n=f6 v=0
63336 On ch=1 n=a6 v=0
63366 On ch=1 n=b6 v=0
63404 On ch=1 n=a6 v=102
63414 On ch=1 n=a5 v=0
63416 On ch=1 n=f6 v=88
63424 On ch=1 n=c6 v=69
63470 On ch=1 n=f6 v=0
63498 On ch=1 n=b6 v=93
63500 On ch=1 n=a5 v=67
63516 On ch=1 n=c6 v=0
63538 On ch=1 n=a6 v=0
63592 On ch=1 n=b6 v=0
63632 On ch=1 n=d5 v=91
63638 On ch=1 n=a6 v=104
63640 On ch=1 n=c7 v=100
63644 On ch=1 n=a5 v=0
63646 On ch=1 n=f6 v=86
63676 On ch=1 n=f6 v=0
63686 On ch=1 n=a6 v=0
63696 On ch=1 n=c7 v=0
63732 On ch=1 n=a5 v=83
63744 On ch=1 n=d5 v=0
63862 On ch=1 n=a5 v=0
63864 On ch=1 n=g6 v=101
63874 On ch=1 n=b5 v=75
63874 On ch=1 n=e6 v=87
63960 On ch=1 n=a6 v=97
63962 On ch=1 n=g5 v=84
63972 On ch=1 n=b5 v=0
64018 On ch=1 n=g6 v=0
64028 On ch=1 n=e6 v=0
64082 On ch=1 n=c5 v=102
64084 On ch=1 n=a6 v=0
64084 On ch=1 n=b6 v=93
64094 On ch=1 n=g6 v=85
64094 On ch=1 n=e6 v=75
64120 On ch=1 n=g5 v=0
64190 On ch=1 n=a6 v=102
64202 On ch=1 n=g5 v=92
64230 On ch=1 n=c5 v=0
64242 On ch=1 n=b6 v=0
64244 On ch=1 n=g6 v=0
64248 On ch=1 n=e6 v=0
64310 On ch=1 n=g5 v=0
64310 On ch=1 n=a6 v=0
64316 On ch=1 n=g6 v=94
64324 On ch=1 n=e6 v=85
64326 On ch=1 n=b5 v=90
64394 On ch=1 n=e6 v=0
64412 On ch=1 n=a6 v=99
64414 On ch=1 n=g5 v=91
64442 On ch=1 n=b5 v=0
64456 On ch=1 n=g6 v=0
64518 On ch=1 n=a6 v=0
64528 On ch=1 n=g5 v=0
64532 On ch=1 n=g6 v=97
64536 On ch=1 n=c5 v=112
64538 On ch=1 n=b6 v=94
64540 On ch=1 n=e6 v=87
64572 On ch=1 n=e6 v=0
64582 On ch=1 n=g6 v=0
64596 On ch=1 n=b6 v=0
64642 On ch=1 n=g5 v=96
64670 On ch=1 n=c5 v=0
64742 On ch=1 n=g5 v=0
64762 On ch=1 n=g6 v=103
64768 On ch=1 n=b5 v=79
64768 On ch=1 n=e6 v=87
64860 On ch=1 n=a6 v=98
64860 On ch=1 n=g5 v=71
64882 On ch=1 n=b5 v=0
64908 On ch=1 n=g6 v=0
64930 On ch=1 n=g5 v=0
64956 On ch=1 n=e6 v=0
64974 Par ch=1 c=64 v=63
64982 On ch=1 n=a6 v=0
64982 Par ch=1 c=64 v=127
64984 On ch=1 n=b4 v=124
64996 On ch=1 n=b6 v=84
65050 On ch=1 n=b4 v=0
65102 On ch=1 n=a6 v=87
65110 On ch=1 n=g5 v=89
65120 On ch=1 n=b6 v=0
65168 On ch=1 n=g5 v=0
65228 On ch=1 n=g6 v=99
65228 On ch=1 n=b5 v=85
65248 On ch=1 n=a6 v=0
65300 On ch=1 n=g5 v=60
65308 On ch=1 n=b5 v=0
65318 On ch=1 n=a6 v=96
65360 On ch=1 n=g6 v=0
65362 On ch=1 n=g5 v=0
65410 Par ch=1 c=64 v=63
65412 On ch=1 n=a6 v=0
65420 Par ch=1 c=64 v=0
65434 On ch=1 n=a4 v=125
65440 On ch=1 n=b6 v=93
65440 On ch=1 n=g6 v=94
65446 On ch=1 n=e6 v=86
65482 On ch=1 n=e6 v=0
65488 Par ch=1 c=64 v=63
65494 On ch=1 n=g6 v=0
65504 Par ch=1 c=64 v=127
65510 On ch=1 n=b6 v=0
65556 On ch=1 n=e5 v=76
65640 On ch=1 n=e5 v=0
65680 On ch=1 n=g5 v=73
65682 On ch=1 n=g6 v=106
65734 On ch=1 n=a4 v=0
65748 On ch=1 n=e5 v=85
65766 On ch=1 n=g5 v=0
65774 On ch=1 n=a6 v=101
65816 On ch=1 n=g6 v=0
65824 On ch=1 n=e5 v=0
65862 Par ch=1 c=64 v=63
65866 On ch=1 n=a6 v=0
65870 Par ch=1 c=64 v=0
65886 On ch=1 n=g4 v=125
65890 On ch=1 n=b6 v=107
65912 On ch=1 n=g6 v=77
65922 Par ch=1 c=64 v=63
65940 Par ch=1 c=64 v=127
65944 On ch=1 n=g6 v=0
66002 On ch=1 n=a6 v=102
66008 On ch=1 n=a4 v=94
66058 On ch=1 n=b6 v=0
66116 On ch=1 n=a4 v=0
66120 On ch=1 n=g6 v=106
66122 On ch=1 n=e5 v=91
66168 On ch=1 n=a6 v=0
66200 On ch=1 n=a4 v=92
66218 On ch=1 n=e6 v=94
66222 On ch=1 n=e5 v=0
66226 On ch=1 n=g6 v=0
66226 On ch=1 n=g4 v=0
66266 On ch=1 n=a4 v=0
66268 On ch=1 n=e6 v=0
66326 On ch=1 n=e4 v=125
66346 On ch=1 n=b5 v=113
66358 Par ch=1 c=64 v=63
66368 Par ch=1 c=64 v=0
66416 Par ch=1 c=64 v=63
66434 Par ch=1 c=64 v=127
66442 On ch=1 n=g4 v=102
66442 On ch=1 n=a5 v=102
66480 On ch=1 n=b5 v=0
66544 On ch=1 n=g4 v=0
66556 On ch=1 n=g5 v=102
66566 On ch=1 n=c5 v=91
66584 On ch=1 n=a5 v=0
66644 On ch=1 n=c5 v=0
66644 On ch=1 n=g5 v=0
66646 On ch=1 n=g4 v=94
66648 On ch=1 n=e5 v=93
66674 On ch=1 n=e4 v=0
66706 On ch=1 n=e5 v=0
66714 On ch=1 n=g4 v=0
66782 On ch=1 n=d4 v=126
66790 On ch=1 n=c5 v=114
66816 Par ch=1 c=64 v=63
66824 Par ch=1 c=64 v=0
66874 Par ch=1 c=64 v=63
66892 Par ch=1 c=64 v=127
66900 On ch=1 n=b4 v=104
66910 On ch=1 n=e4 v=101
66928 On ch=1 n=c5 v=0
67008 On ch=1 n=e4 v=0
67018 On ch=1 n=a4 v=104
67030 On ch=1 n=g4 v=83
67054 On ch=1 n=b4 v=0
67082 On ch=1 n=d4 v=0
67104 On ch=1 n=e4 v=96
67108 On ch=1 n=b4 v=97
67138 On ch=1 n=g4 v=0
67146 On ch=1 n=a4 v=0
67184 On ch=1 n=e4 v=0
67192 On ch=1 n=b4 v=0
67222 Par ch=1 c=64 v=63
67228 Par ch=1 c=64 v=0
67230 On ch=1 n=c4 v=127
67240 On ch=1 n=c5 v=117
67312 Par ch=1 c=64 v=63
67322 On ch=1 n=c5 v=0
67322 Par ch=1 c=64 v=127
67340 On ch=1 n=b4 v=99
67358 On ch=1 n=e4 v=90
67430 On ch=1 n=b4 v=0
67438 On ch=1 n=e4 v=0
67460 On ch=1 n=c5 v=106
67472 On ch=1 n=g4 v=82
67536 On ch=1 n=e4 v=76
67550 On ch=1 n=c4 v=0
67550 On ch=1 n=e5 v=103
67566 On ch=1 n=c5 v=0
67574 On ch=1 n=g4 v=0
67586 On ch=1 n=e4 v=0
67622 On ch=1 n=e5 v=0
67670 On ch=1 n=c5 v=114
67672 On ch=1 n=g5 v=109
67674 On ch=1 n=a3 v=113
67678 On ch=1 n=g4 v=111
67682 On ch=1 n=d4 v=111
67702 Par ch=1 c=64 v=63
67706 Par ch=1 c=64 v=0
67712 On ch=1 n=c5 v=0
67720 On ch=1 n=g5 v=0
67734 On ch=1 n=d4 v=0
67742 On ch=1 n=g4 v=0
67912 On ch=1 n=g4 v=106
67914 On ch=1 n=d4 v=107
67916 On ch=1 n=g5 v=117
67916 On ch=1 n=d5 v=122
67920 On ch=1 n=c5 v=113
67938 On ch=1 n=a3 v=0
67954 On ch=1 n=c5 v=0
67958 On ch=1 n=d4 v=0
67964 On ch=1 n=g4 v=0
67966 On ch=1 n=d5 v=0
67982 On ch=1 n=g5 v=0
68006 On ch=1 n=e5 v=106
68082 On ch=1 n=e5 v=0
68152 On ch=1 n=g5 v=121
68156 On ch=1 n=g3 v=94
68158 On ch=1 n=g4 v=114
68158 On ch=1 n=b4 v=118
68160 On ch=1 n=d4 v=118
68174 Par ch=1 c=64 v=127
68200 On ch=1 n=b4 v=0
68208 On ch=1 n=d4 v=0
68208 On ch=1 n=g5 v=0
68224 On ch=1 n=g4 v=0
68240 On ch=1 n=g3 v=0
68396 Par ch=1 c=64 v=63
68402 Par ch=1 c=64 v=0
68556 On ch=1 n=f3 v=87
68588 On ch=1 n=c4 v=85
68616 Par ch=1 c=64 v=127
68642 On ch=1 n=f3 v=0
68652 On ch=1 n=c4 v=0
68654 On ch=1 n=a5 v=118
68656 On ch=1 n=a4 v=103
68658 On ch=1 n=e5 v=118
68660 On ch=1 n=c5 v=118
68702 On ch=1 n=a4 v=0
68770 On ch=1 n=c5 v=0
68824 On ch=1 n=a5 v=0
68914 On ch=1 n=g5 v=100
68970 On ch=1 n=e5 v=0
68996 On ch=1 n=d4 v=81
68996 On ch=1 n=a5 v=98
69032 On ch=1 n=g5 v=0
69050 On ch=1 n=a5 v=0
69054 On ch=1 n=f4 v=62
69104 On ch=1 n=a4 v=93
69114 On ch=1 n=e5 v=108
69120 On ch=1 n=d5 v=117
69122 On ch=1 n=g6 v=116
69124 On ch=1 n=a5 v=109
69128 On ch=1 n=e6 v=106
69130 On ch=1 n=c6 v=107
69132 Par ch=1 c=64 v=63
69136 Par ch=1 c=64 v=0
69148 On ch=1 n=e6 v=0
69150 On ch=1 n=c6 v=0
69166 On ch=1 n=a5 v=0
69168 On ch=1 n=g6 v=0
69212 Par ch=1 c=64 v=63
69214 Par ch=1 c=64 v=127
69242 On ch=1 n=d5 v=0
69316 On ch=1 n=e5 v=0
69358 On ch=1 n=a4 v=0
69380 On ch=1 n=f4 v=0
69390 On ch=1 n=d4 v=0
69394 Par ch=1 c=64 v=63
69398 Par ch=1 c=64 v=0
69622 On ch=1 n=g3 v=116
69624 On ch=1 n=d4 v=117
69632 On ch=1 n=c6 v=118
69634 On ch=1 n=e6 v=112
69650 Par ch=1 c=64 v=127
69734 On ch=1 n=a5 v=102
69742 On ch=1 n=g3 v=0
69762 On ch=1 n=e6 v=0
69788 On ch=1 n=c6 v=0
69832 On ch=1 n=d4 v=0
69854 On ch=1 n=a4 v=103
69856 On ch=1 n=f5 v=109
69858 On ch=1 n=a5 v=0
69894 On ch=1 n=a4 v=0
69916 On ch=1 n=f5 v=0
69968 On ch=1 n=d5 v=108
70012 On ch=1 n=d5 v=0
70024 Par ch=1 c=64 v=63
70036 Par ch=1 c=64 v=0
70072 On ch=1 n=c3 v=86
70096 On ch=1 n=g3 v=97
70128 Par ch=1 c=64 v=63
70132 On ch=1 n=c3 v=0
70134 Par ch=1 c=64 v=127
70136 On ch=1 n=g5 v=98
70138 On ch=1 n=e5 v=103
70138 On ch=1 n=c5 v=109
70142 On ch=1 n=c6 v=84
70144 On ch=1 n=e4 v=117
70170 On ch=1 n=c5 v=0
70174 On ch=1 n=g3 v=0
70180 On ch=1 n=e5 v=0
70180 On ch=1 n=g5 v=0
70186 On ch=1 n=c6 v=0
70212 On ch=1 n=e4 v=0
70680 Par ch=1 c=64 v=63
70710 Par ch=1 c=64 v=0
71066 Par ch=1 c=67 v=127
71092 On ch=1 n=c4 v=50
71092 On ch=1 n=g4 v=55
71256 Par ch=1 c=64 v=63
71258 Par ch=1 c=64 v=127
71358 On ch=1 n=c4 v=0
71402 On ch=1 n=g4 v=0
71684 On ch=1 n=d6 v=57
71714 On ch=1 n=d#5 v=66
71806 On ch=1 n=d#5 v=0
71812 On ch=1 n=d6 v=0
72104 On ch=1 n=d#5 v=76
72162 On ch=1 n=g5 v=91
72166 On ch=1 n=d6 v=90
72190 On ch=1 n=d#5 v=0
72246 On ch=1 n=g5 v=0
72254 On ch=1 n=g#5 v=84
72264 On ch=1 n=d6 v=0
72324 On ch=1 n=g5 v=72
72386 On ch=1 n=g#5 v=0
72620 On ch=1 n=g4 v=39
72696 On ch=1 n=g4 v=0
72978 On ch=1 n=g4 v=55
72980 On ch=1 n=c4 v=60
73000 Par ch=1 c=64 v=63
73072 Par ch=1 c=64 v=127
73184 On ch=1 n=c4 v=0
73302 On ch=1 n=d5 v=66
73306 On ch=1 n=f5 v=77
73316 On ch=1 n=c6 v=60
73378 On ch=1 n=d5 v=0
73388 On ch=1 n=f5 v=0
73432 On ch=1 n=c6 v=0
73690 On ch=1 n=c6 v=68
73700 On ch=1 n=d5 v=47
73702 On ch=1 n=f5 v=60
73782 On ch=1 n=d5 v=0
73802 On ch=1 n=f5 v=0
73878 On ch=1 n=c6 v=0
73892 On ch=1 n=g4 v=0
74052 On ch=1 n=g4 v=53
74052 On ch=1 n=c4 v=53
74118 On ch=1 n=g4 v=0
74140 On ch=1 n=c4 v=0
74396 On ch=1 n=g4 v=47
74406 On ch=1 n=c4 v=41
74414 Par ch=1 c=64 v=63
74442 Par ch=1 c=64 v=0
74472 Par ch=1 c=64 v=63
74526 Par ch=1 c=64 v=127
74752 On ch=1 n=a#5 v=69
74756 On ch=1 n=c4 v=0
74764 On ch=1 n=c5 v=39
74776 On ch=1 n=d#5 v=39
74840 On ch=1 n=c5 v=0
74854 On ch=1 n=d#5 v=0
74874 On ch=1 n=a#5 v=0
75194 On ch=1 n=c5 v=26
75198 On ch=1 n=d#5 v=25
75200 On ch=1 n=a#5 v=57
75342 On ch=1 n=g4 v=0
75374 On ch=1 n=d#5 v=0
75398 On ch=1 n=c5 v=0
75486 On ch=1 n=a#5 v=0
75606 On ch=1 n=f5 v=77
75608 On ch=1 n=g4 v=32
75652 On ch=1 n=c4 v=14
75744 On ch=1 n=g5 v=0
75750 On ch=1 n=g4 v=0
75780 On ch=1 n=c4 v=0
75900 On ch=1 n=f5 v=0
75966 On ch=1 n=g4 v=43
75970 On ch=1 n=c4 v=30
76058 On ch=1 n=a#5 v=96
76060 Par ch=1 c=64 v=63
76076 Par ch=1 c=64 v=0
76104 Par ch=1 c=64 v=63
76134 Par ch=1 c=64 v=127
76154 On ch=1 n=c4 v=0
76170 On ch=1 n=g4 v=0
76234 On ch=1 n=c6 v=99
76248 On ch=1 n=a#5 v=0
76384 On ch=1 n=c6 v=0
76432 On ch=1 n=d6 v=94
76446 On ch=1 n=a#4 v=67
76448 On ch=1 n=g#5 v=75
76450 On ch=1 n=d5 v=57
76500 On ch=1 n=d6 v=0
76504 On ch=1 n=d5 v=0
76510 On ch=1 n=g#5 v=0
76514 On ch=1 n=a#4 v=0
76720 Par ch=1 c=64 v=63
76738 Par ch=1 c=64 v=0
76750 On ch=1 n=g#5 v=81
76764 On ch=1 n=a#4 v=70
76774 Par ch=1 c=64 v=63
76774 On ch=1 n=a#5 v=114
76778 On ch=1 n=d5 v=46
76796 On ch=1 n=g#5 v=0
76810 Par ch=1 c=64 v=127
76824 On ch=1 n=d5 v=0
76860 On ch=1 n=a#4 v=0
76896 On ch=1 n=c6 v=99
76902 On ch=1 n=a#5 v=0
77070 On ch=1 n=d6 v=106
77070 On ch=1 n=g4 v=80
77100 Par ch=1 c=64 v=63
77110 On ch=1 n=c4 v=39
77132 On ch=1 n=c6 v=0
77178 Par ch=1 c=64 v=0
77184 On ch=1 n=g4 v=0
77198 On ch=1 n=d6 v=0
77222 On ch=1 n=c4 v=0
77396 On ch=1 n=c4 v=82
77410 On ch=1 n=g4 v=71
77420 On ch=1 n=c6 v=106
77426 Par ch=1 c=64 v=63
77432 Par ch=1 c=64 v=127
77488 On ch=1 n=c4 v=0
77492 On ch=1 n=g4 v=0
77556 On ch=1 n=c6 v=0
77800 On ch=1 n=d#5 v=42
77844 On ch=1 n=g5 v=59
77860 On ch=1 n=d#6 v=113
77900 On ch=1 n=d6 v=25
77954 On ch=1 n=d#6 v=0
77960 On ch=1 n=d6 v=0
77980 On ch=1 n=g5 v=0
78024 On ch=1 n=d#5 v=0
78208 On ch=1 n=d6 v=72
78216 On ch=1 n=d#5 v=70
78218 On ch=1 n=g5 v=61
78234 On ch=1 n=g6 v=112
78250 On ch=1 n=d6 v=0
78282 On ch=1 n=g5 v=0
78320 On ch=1 n=d#5 v=0
78630 On ch=1 n=g4 v=76
78630 On ch=1 n=c4 v=54
78814 On ch=1 n=c4 v=0
78824 On ch=1 n=g4 v=0
79012 On ch=1 n=c4 v=63
79018 On ch=1 n=g4 v=55
79060 Par ch=1 c=64 v=63
79074 Par ch=1 c=64 v=0
79094 Par ch=1 c=64 v=63
79124 Par ch=1 c=64 v=127
79188 On ch=1 n=c4 v=0
79218 On ch=1 n=g4 v=0
79362 On ch=1 n=g6 v=0
79534 On ch=1 n=f5 v=46
79552 On ch=1 n=d5 v=58
79556 On ch=1 n=c6 v=45
79570 On ch=1 n=a#6 v=92
79728 On ch=1 n=f5 v=0
79756 On ch=1 n=d5 v=0
79762 On ch=1 n=c6 v=0
79928 On ch=1 n=a#6 v=0
79936 On ch=1 n=c6 v=50
79944 On ch=1 n=d5 v=60
79948 On ch=1 n=f5 v=54
79962 On ch=1 n=g6 v=108
79988 On ch=1 n=c6 v=0
79996 On ch=1 n=f5 v=0
80028 On ch=1 n=d5 v=0
80268 On ch=1 n=g4 v=72
80270 On ch=1 n=c4 v=72
80272 On ch=1 n=a#6 v=110
80304 On ch=1 n=g6 v=0
80386 On ch=1 n=g4 v=0
80402 On ch=1 n=c4 v=0
80434 On ch=1 n=a#6 v=0
80484 On ch=1 n=c4 v=65
80524 On ch=1 n=g4 v=59
80540 On ch=1 n=f6 v=93
80598 On ch=1 n=g6 v=97
80616 On ch=1 n=f6 v=0
80622 Par ch=1 c=64 v=63
80632 Par ch=1 c=64 v=0
80646 On ch=1 n=g6 v=0
80660 Par ch=1 c=64 v=63
80662 On ch=1 n=f6 v=104
80686 Par ch=1 c=64 v=127
80708 On ch=1 n=c4 v=0
80740 On ch=1 n=g4 v=0
81034 On ch=1 n=f6 v=0
81034 On ch=1 n=d#6 v=103
81038 On ch=1 n=a#5 v=73
81038 On ch=1 n=c5 v=73
81044 On ch=1 n=d#5 v=72
81116 On ch=1 n=a#5 v=0
81130 On ch=1 n=d#6 v=0
81158 On ch=1 n=c5 v=0
81172 On ch=1 n=d#5 v=0
81348 On ch=1 n=d#5 v=66
81350 On ch=1 n=a#5 v=61
81374 On ch=1 n=c5 v=57
81384 On ch=1 n=g6 v=100
81388 On ch=1 n=a#5 v=0
81436 On ch=1 n=d#5 v=0
81456 On ch=1 n=c5 v=0
81714 On ch=1 n=g4 v=71
81718 On ch=1 n=c4 v=70
81808 On ch=1 n=g4 v=0
81816 On ch=1 n=c4 v=0
82022 Par ch=1 c=64 v=63
82032 Par ch=1 c=64 v=0
82048 On ch=1 n=c4 v=68
82060 On ch=1 n=g4 v=62
82068 Par ch=1 c=64 v=63
82098 Par ch=1 c=64 v=127
82156 On ch=1 n=c4 v=0
82172 On ch=1 n=g4 v=0
82280 On ch=1 n=g6 v=0
82522 On ch=1 n=g#5 v=44
82524 On ch=1 n=a#6 v=84
82546 On ch=1 n=b4 v=47
82546 On ch=1 n=d5 v=28
82618 On ch=1 n=d5 v=0
82630 On ch=1 n=g#5 v=0
82634 On ch=1 n=b4 v=0
82766 On ch=1 n=a#6 v=0
82872 On ch=1 n=g#5 v=67
82886 On ch=1 n=g6 v=99
82902 On ch=1 n=b4 v=54
82908 On ch=1 n=g#5 v=0
82976 On ch=1 n=b4 v=0
83192 On ch=1 n=g4 v=60
83194 On ch=1 n=a#6 v=98
83200 On ch=1 n=c4 v=67
83214 On ch=1 n=g6 v=0
83304 On ch=1 n=g4 v=0
83328 On ch=1 n=a#6 v=0
83338 On ch=1 n=c4 v=0
83460 On ch=1 n=f6 v=94
83534 On ch=1 n=g6 v=72
83542 On ch=1 n=c4 v=34
83546 On ch=1 n=f6 v=0
83590 Par ch=1 c=64 v=63
83598 Par ch=1 c=64 v=0
83608 On ch=1 n=f6 v=90
83612 On ch=1 n=g6 v=0
83658 Par ch=1 c=64 v=63
83682 Par ch=1 c=64 v=127
83784 On ch=1 n=c4 v=0
84110 On ch=1 n=g#5 v=46
84114 On ch=1 n=d#5 v=58
84116 On ch=1 n=f6 v=0
84172 On ch=1 n=d#5 v=0
84172 On ch=1 n=g#5 v=0
84506 On ch=1 n=d#5 v=54
84506 On ch=1 n=g#5 v=49
84516 On ch=1 n=d#6 v=86
84530 On ch=1 n=c5 v=51
84532 Par ch=1 c=64 v=63
84548 Par ch=1 c=64 v=0
84606 Par ch=1 c=64 v=63
84642 Par ch=1 c=64 v=127
84646 On ch=1 n=g#5 v=0
84676 On ch=1 n=d#5 v=0
84706 On ch=1 n=c5 v=0
84890 On ch=1 n=a#3 v=81
84944 On ch=1 n=a#3 v=0
85254 Par ch=1 c=64 v=63
85268 Par ch=1 c=64 v=0
85272 On ch=1 n=a#3 v=93
85290 Par ch=1 c=64 v=63
85320 Par ch=1 c=64 v=127
85378 On ch=1 n=a#3 v=0
85728 On ch=1 n=g#5 v=58
85730 On ch=1 n=d#5 v=61
85744 On ch=1 n=c5 v=51
85830 On ch=1 n=d#5 v=0
85846 On ch=1 n=g#5 v=0
85868 On ch=1 n=c5 v=0
86086 On ch=1 n=g#5 v=76
86106 On ch=1 n=c5 v=68
86106 On ch=1 n=d#5 v=66
86140 On ch=1 n=g#5 v=0
86146 On ch=1 n=d#5 v=0
86176 On ch=1 n=c5 v=0
86374 On ch=1 n=g#3 v=89
86662 On ch=1 n=g#3 v=0
86728 On ch=1 n=g#3 v=103
86766 Par ch=1 c=64 v=63
86778 Par ch=1 c=64 v=0
86808 Par ch=1 c=64 v=63
86832 Par ch=1 c=64 v=127
86920 On ch=1 n=g#3 v=0
87210 On ch=1 n=f6 v=103
87216 On ch=1 n=g#5 v=57
87230 On ch=1 n=c5 v=55
87244 On ch=1 n=d#5 v=40
87246 On ch=1 n=d#6 v=0
87366 On ch=1 n=g#5 v=0
87376 On ch=1 n=d#5 v=0
87376 On ch=1 n=c5 v=0
87566 On ch=1 n=g#5 v=80
87584 On ch=1 n=d#5 v=69
87592 On ch=1 n=d#6 v=113
87594 On ch=1 n=c5 v=68
87618 On ch=1 n=g#5 v=0
87622 On ch=1 n=f6 v=0
87632 On ch=1 n=d#5 v=0
87664 On ch=1 n=c5 v=0
87900 On ch=1 n=a#5 v=118
87922 On ch=1 n=g3 v=97
87934 On ch=1 n=d#6 v=0
88014 On ch=1 n=a#5 v=0
88078 On ch=1 n=g3 v=0
88250 On ch=1 n=a#5 v=95
88266 On ch=1 n=g3 v=76
88312 Par ch=1 c=64 v=63
88320 Par ch=1 c=64 v=0
88334 On ch=1 n=c6 v=86
88338 On ch=1 n=a#5 v=0
88404 On ch=1 n=a#5 v=84
88428 Par ch=1 c=64 v=63
88436 Par ch=1 c=64 v=127
88460 On ch=1 n=c6 v=0
88520 On ch=1 n=g3 v=0
88780 On ch=1 n=a#5 v=0
88854 On ch=1 n=d#5 v=50
88860 On ch=1 n=c5 v=53
88928 On ch=1 n=d#5 v=0
88930 On ch=1 n=c5 v=0
89224 On ch=1 n=d#5 v=75
89228 On ch=1 n=g#5 v=91
89244 On ch=1 n=c5 v=61
89300 On ch=1 n=d#5 v=0
89302 On ch=1 n=c5 v=0
89622 On ch=1 n=f3 v=71
89742 On ch=1 n=f3 v=0
89944 Par ch=1 c=64 v=63
89952 Par ch=1 c=64 v=0
89976 On ch=1 n=f3 v=73
90012 Par ch=1 c=64 v=63
90034 Par ch=1 c=64 v=127
90110 On ch=1 n=f3 v=0
90448 On ch=1 n=a#5 v=75
90476 On ch=1 n=c5 v=36
90486 On ch=1 n=d#5 v=17
90504 On ch=1 n=g#5 v=0
90558 On ch=1 n=c5 v=0
90594 On ch=1 n=d#5 v=0
90832 On ch=1 n=g#5 v=81
90834 On ch=1 n=d#5 v=72
90860 On ch=1 n=a#5 v=0
90888 On ch=1 n=d#5 v=0
91110 On ch=1 n=g#5 v=0
91244 On ch=1 n=f5 v=78
91256 On ch=1 n=d#3 v=72
91346 On ch=1 n=f5 v=0
91394 On ch=1 n=d#3 v=0
91754 On ch=1 n=c#3 v=68
91758 Par ch=1 c=64 v=63
91772 Par ch=1 c=64 v=0
91772 On ch=1 n=f5 v=68
91824 Par ch=1 c=64 v=63
91844 On ch=1 n=c#3 v=0
91866 Par ch=1 c=64 v=127
91930 On ch=1 n=f5 v=0
91944 On ch=1 n=g5 v=73
92032 On ch=1 n=g5 v=0
92162 On ch=1 n=g#5 v=91
92164 On ch=1 n=f4 v=72
92184 Par ch=1 c=64 v=63
92198 On ch=1 n=c5 v=39
92202 Par ch=1 c=64 v=0
92238 On ch=1 n=f4 v=0
92256 On ch=1 n=c5 v=0
92258 On ch=1 n=g#5 v=0
92462 Par ch=1 c=64 v=63
92488 On ch=1 n=g#3 v=78
92488 Par ch=1 c=64 v=127
92502 On ch=1 n=f5 v=76
92568 On ch=1 n=g#3 v=0
92618 On ch=1 n=f5 v=0
92626 On ch=1 n=g5 v=76
92722 On ch=1 n=g5 v=0
92782 Par ch=1 c=64 v=63
92804 On ch=1 n=g#5 v=94
92806 Par ch=1 c=64 v=0
92812 On ch=1 n=f4 v=74
92834 On ch=1 n=c5 v=50
92880 On ch=1 n=c5 v=0
92880 On ch=1 n=f4 v=0
92906 On ch=1 n=g#5 v=0
93026 On ch=1 n=g5 v=72
93062 Par ch=1 c=64 v=63
93078 On ch=1 n=c#4 v=71
93078 Par ch=1 c=64 v=127
93098 On ch=1 n=g#5 v=89
93104 On ch=1 n=g5 v=0
93136 On ch=1 n=c#4 v=0
93182 On ch=1 n=g#5 v=0
93184 On ch=1 n=g5 v=65
93236 On ch=1 n=g5 v=0
93358 Par ch=1 c=64 v=63
93382 Par ch=1 c=64 v=0
93448 On ch=1 n=a#4 v=75
93458 On ch=1 n=d#5 v=92
93468 On ch=1 n=g4 v=57
93520 On ch=1 n=g4 v=0
93528 On ch=1 n=a#4 v=0
93530 On ch=1 n=d#5 v=0
93768 On ch=1 n=f3 v=83
93784 On ch=1 n=c5 v=84
93786 Par ch=1 c=64 v=63
93794 Par ch=1 c=64 v=127
93866 On ch=1 n=f3 v=0
93886 On ch=1 n=c5 v=0
93936 On ch=1 n=d5 v=65
94032 On ch=1 n=d5 v=0
94104 On ch=1 n=g4 v=56
94120 On ch=1 n=d#5 v=90
94130 Par ch=1 c=64 v=63
94148 Par ch=1 c=64 v=0
94182 On ch=1 n=d#5 v=0
94186 On ch=1 n=g4 v=0
94442 On ch=1 n=c4 v=62
94456 On ch=1 n=c5 v=77
94504 Par ch=1 c=64 v=63
94512 Par ch=1 c=64 v=127
94568 On ch=1 n=c5 v=0
94574 On ch=1 n=c4 v=0
94624 On ch=1 n=d5 v=63
94736 On ch=1 n=d5 v=0
94828 On ch=1 n=d#5 v=83
94834 On ch=1 n=a4 v=48
94884 On ch=1 n=d#5 v=0
94894 On ch=1 n=a4 v=0
94912 Par ch=1 c=64 v=63
94946 Par ch=1 c=64 v=0
95094 On ch=1 n=d5 v=76
95130 On ch=1 n=d#5 v=85
95138 On ch=1 n=d5 v=0
95196 On ch=1 n=g3 v=68
95214 On ch=1 n=d#5 v=0
95230 On ch=1 n=d5 v=63
95254 Par ch=1 c=64 v=63
95266 Par ch=1 c=64 v=127
95306 On ch=1 n=g3 v=0
95440 On ch=1 n=d5 v=0
95620 Par ch=1 c=64 v=63
95638 Par ch=1 c=64 v=0
95670 On ch=1 n=a#4 v=62
95696 On ch=1 n=f4 v=40
95730 Par ch=1 c=64 v=63
95756 Par ch=1 c=64 v=127
95844 On ch=1 n=f4 v=0
95888 On ch=1 n=a#4 v=0
96292 On ch=1 n=c3 v=40
96296 Par ch=1 c=64 v=63
96320 Par ch=1 c=64 v=0
96336 On ch=1 n=g4 v=54
96458 Par ch=1 c=64 v=63
96476 Par ch=1 c=64 v=127
96572 On ch=1 n=c3 v=0
96708 On ch=1 n=g4 v=0
96804 Par ch=1 c=67 v=0
97222 On ch=1 n=d#5 v=43
97230 On ch=1 n=d6 v=17
97410 On ch=1 n=d6 v=0
97422 On ch=1 n=d#5 v=0
97708 On ch=1 n=d#5 v=18
97810 On ch=1 n=d6 v=41
97862 On ch=1 n=g5 v=67
97918 On ch=1 n=d6 v=0
97922 On ch=1 n=g#5 v=79
97930 On ch=1 n=g5 v=0
97984 On ch=1 n=d#5 v=0
98020 On ch=1 n=g5 v=69
98034 On ch=1 n=g#5 v=0
98488 On ch=1 n=g4 v=41
98492 On ch=1 n=c4 v=38
98696 On ch=1 n=g4 v=0
98712 On ch=1 n=c4 v=0
98912 On ch=1 n=c4 v=40
98928 On ch=1 n=g4 v=41
98972 Par ch=1 c=64 v=63
99000 Par ch=1 c=64 v=0
99106 Par ch=1 c=64 v=63
99136 Par ch=1 c=64 v=127
99288 On ch=1 n=d5 v=45
99304 On ch=1 n=c6 v=57
99310 On ch=1 n=f5 v=51
99314 On ch=1 n=c4 v=0
99366 On ch=1 n=d5 v=0
99368 On ch=1 n=f5 v=0
99382 On ch=1 n=c6 v=0
99696 On ch=1 n=c6 v=65
99698 On ch=1 n=f5 v=45
99698 Par ch=1 c=64 v=63
99702 On ch=1 n=d5 v=38
99796 Par ch=1 c=64 v=127
99902 On ch=1 n=g4 v=0
100014 On ch=1 n=c6 v=0
100032 On ch=1 n=d5 v=0
100044 On ch=1 n=c4 v=43
100048 On ch=1 n=f5 v=0
100112 On ch=1 n=c4 v=0
100380 Par ch=1 c=64 v=63
100394 On ch=1 n=g4 v=51
100400 Par ch=1 c=64 v=0
100406 On ch=1 n=c4 v=45
100462 Par ch=1 c=64 v=63
100504 Par ch=1 c=64 v=127
100724 On ch=1 n=c5 v=50
100726 On ch=1 n=c4 v=0
100730 On ch=1 n=a#5 v=63
100732 On ch=1 n=d#5 v=45
100786 On ch=1 n=c5 v=0
100806 On ch=1 n=d#5 v=0
100842 On ch=1 n=a#5 v=0
101164 On ch=1 n=a#5 v=57
101166 On ch=1 n=d#5 v=26
101174 On ch=1 n=c5 v=38
101280 On ch=1 n=g4 v=0
101316 On ch=1 n=c5 v=0
101374 On ch=1 n=d#5 v=0
101474 On ch=1 n=a#5 v=0
101642 On ch=1 n=g4 v=25
101650 On ch=1 n=c4 v=19
101684 On ch=1 n=f5 v=84
101794 On ch=1 n=g5 v=0
101854 On ch=1 n=g4 v=0
101862 On ch=1 n=c4 v=0
102022 On ch=1 n=c4 v=55
102046 On ch=1 n=g4 v=49
102058 On ch=1 n=f5 v=0
102112 Par ch=1 c=64 v=63
102128 Par ch=1 c=64 v=0
102142 On ch=1 n=a#5 v=101
102154 Par ch=1 c=64 v=63
102190 Par ch=1 c=64 v=127
102246 On ch=1 n=c4 v=0
102262 On ch=1 n=g4 v=0
102318 On ch=1 n=a#5 v=0
102326 On ch=1 n=c6 v=92
102456 On ch=1 n=c6 v=0
102542 On ch=1 n=d6 v=87
102542 On ch=1 n=d5 v=59
102544 On ch=1 n=g#5 v=75
102556 On ch=1 n=a#4 v=54
102610 On ch=1 n=d6 v=0
102614 On ch=1 n=a#4 v=0
102622 On ch=1 n=g#5 v=0
102634 On ch=1 n=d5 v=0
102844 Par ch=1 c=64 v=63
102856 On ch=1 n=g#5 v=80
102866 Par ch=1 c=64 v=0
102870 On ch=1 n=a#4 v=67
102872 On ch=1 n=a#5 v=104
102874 On ch=1 n=d5 v=62
102892 Par ch=1 c=64 v=63
102926 On ch=1 n=d5 v=0
102928 On ch=1 n=g#5 v=0
102944 Par ch=1 c=64 v=127
102980 On ch=1 n=a#4 v=0
102994 On ch=1 n=c6 v=93
103010 On ch=1 n=a#5 v=0
103170 Par ch=1 c=64 v=63
103180 On ch=1 n=g4 v=76
103186 On ch=1 n=d6 v=101
103188 On ch=1 n=c4 v=76
103232 Par ch=1 c=64 v=127
103236 On ch=1 n=c6 v=0
103336 On ch=1 n=g4 v=0
103340 On ch=1 n=d6 v=0
103362 On ch=1 n=c4 v=0
103440 Par ch=1 c=64 v=63
103440 On ch=1 n=c4 v=83
103464 Par ch=1 c=64 v=0
103480 On ch=1 n=g4 v=69
103486 Par ch=1 c=64 v=63
103520 On ch=1 n=c6 v=106
103522 Par ch=1 c=64 v=127
103582 On ch=1 n=c4 v=0
103602 On ch=1 n=g4 v=0
103700 On ch=1 n=c6 v=0
103850 On ch=1 n=d#5 v=69
103860 On ch=1 n=g5 v=76
103864 On ch=1 n=d#6 v=118
103954 On ch=1 n=d6 v=14
103988 On ch=1 n=d#6 v=0
103994 On ch=1 n=d#5 v=0
103996 On ch=1 n=g5 v=0
104042 On ch=1 n=d6 v=0
104146 On ch=1 n=d#5 v=31
104180 On ch=1 n=g5 v=48
104218 On ch=1 n=d6 v=92
104252 On ch=1 n=g6 v=113
104292 On ch=1 n=d6 v=0
104308 On ch=1 n=g5 v=0
104346 On ch=1 n=d#5 v=0
104634 On ch=1 n=c4 v=87
104642 On ch=1 n=f3 v=87
104962 On ch=1 n=f3 v=0
104964 On ch=1 n=c4 v=0
105026 On ch=1 n=f3 v=93
105032 On ch=1 n=c4 v=100
105048 Par ch=1 c=64 v=63
105054 Par ch=1 c=64 v=0
105134 Par ch=1 c=64 v=63
105144 Par ch=1 c=64 v=127
105228 On ch=1 n=f3 v=0
105266 On ch=1 n=c4 v=0
105368 On ch=1 n=g6 v=0
105612 On ch=1 n=g5 v=75
105620 On ch=1 n=d#5 v=84
105632 On ch=1 n=c6 v=76
105636 On ch=1 n=a#6 v=110
105878 On ch=1 n=d#5 v=0
105886 On ch=1 n=c6 v=0
105908 On ch=1 n=g5 v=0
106032 On ch=1 n=a#6 v=0
106038 On ch=1 n=c6 v=78
106044 On ch=1 n=d#5 v=88
106050 On ch=1 n=g5 v=57
106058 On ch=1 n=g6 v=112
106074 On ch=1 n=c6 v=0
106098 On ch=1 n=g5 v=0
106134 On ch=1 n=d#5 v=0
106386 On ch=1 n=c4 v=84
106396 On ch=1 n=f3 v=67
106402 On ch=1 n=a#6 v=112
106434 On ch=1 n=g6 v=0
106530 On ch=1 n=f3 v=0
106546 On ch=1 n=c4 v=0
106592 On ch=1 n=f3 v=88
106608 On ch=1 n=a#6 v=0
106644 On ch=1 n=c4 v=45
106694 On ch=1 n=f6 v=88
106734 Par ch=1 c=64 v=63
106740 On ch=1 n=g6 v=96
106742 Par ch=1 c=64 v=0
106760 On ch=1 n=f6 v=0
106800 On ch=1 n=g6 v=0
106800 Par ch=1 c=64 v=63
106808 On ch=1 n=f6 v=108
106820 Par ch=1 c=64 v=127
106876 On ch=1 n=f3 v=0
106912 On ch=1 n=c4 v=0
107230 On ch=1 n=a#5 v=76
107236 On ch=1 n=d#5 v=74
107238 On ch=1 n=d#6 v=101
107246 On ch=1 n=f6 v=0
107260 On ch=1 n=c5 v=25
107382 On ch=1 n=d#5 v=0
107388 On ch=1 n=a#5 v=0
107410 On ch=1 n=c5 v=0
107496 On ch=1 n=d#6 v=0
107574 On ch=1 n=a#5 v=78
107592 On ch=1 n=d#5 v=60
107596 On ch=1 n=c5 v=65
107620 On ch=1 n=g6 v=106
107630 On ch=1 n=a#5 v=0
107642 On ch=1 n=d#5 v=0
107682 On ch=1 n=c5 v=0
107950 On ch=1 n=c4 v=81
107954 On ch=1 n=f3 v=73
108070 On ch=1 n=c4 v=0
108074 On ch=1 n=f3 v=0
108294 Par ch=1 c=64 v=63
108298 On ch=1 n=f3 v=61
108304 Par ch=1 c=64 v=0
108310 On ch=1 n=c4 v=63
108340 Par ch=1 c=64 v=63
108362 Par ch=1 c=64 v=127
108430 On ch=1 n=f3 v=0
108462 On ch=1 n=c4 v=0
108756 On ch=1 n=d#5 v=60
108772 On ch=1 n=g6 v=0
108788 On ch=1 n=a5 v=48
108794 On ch=1 n=c5 v=34
108804 On ch=1 n=f6 v=84
108896 On ch=1 n=d#5 v=0
108944 On ch=1 n=c5 v=0
108948 On ch=1 n=a5 v=0
109138 On ch=1 n=a5 v=54
109142 On ch=1 n=d#5 v=70
109146 On ch=1 n=c5 v=59
109156 On ch=1 n=d6 v=102
109194 On ch=1 n=a5 v=0
109198 On ch=1 n=f6 v=0
109218 On ch=1 n=d#5 v=0
109236 On ch=1 n=c5 v=0
109478 On ch=1 n=c6 v=106
109480 On ch=1 n=c4 v=72
109486 On ch=1 n=f3 v=68
109532 On ch=1 n=d6 v=0
109576 On ch=1 n=c6 v=0
109618 On ch=1 n=f3 v=0
109642 On ch=1 n=c4 v=0
109674 On ch=1 n=f3 v=92
109714 On ch=1 n=c4 v=66
109824 On ch=1 n=g5 v=84
109838 Par ch=1 c=64 v=63
109846 Par ch=1 c=64 v=0
109896 Par ch=1 c=64 v=63
109910 On ch=1 n=a#5 v=92
109920 On ch=1 n=g5 v=0
109920 Par ch=1 c=64 v=127
109978 On ch=1 n=f3 v=0
109978 On ch=1 n=g5 v=79
110004 On ch=1 n=c4 v=0
110042 On ch=1 n=a#5 v=0
110290 On ch=1 n=d#5 v=66
110296 On ch=1 n=c5 v=55
110328 On ch=1 n=g#4 v=43
110358 On ch=1 n=c5 v=0
110362 On ch=1 n=d#5 v=0
110382 On ch=1 n=g#4 v=0
110460 On ch=1 n=g5 v=0
110696 On ch=1 n=d#5 v=43
110712 On ch=1 n=g#4 v=41
110714 On ch=1 n=c5 v=50
110722 On ch=1 n=f5 v=90
110832 On ch=1 n=d#5 v=0
110842 On ch=1 n=c5 v=0
110884 On ch=1 n=g#4 v=0
111146 On ch=1 n=f3 v=73
111254 On ch=1 n=f3 v=0
111580 On ch=1 n=f3 v=68
111592 Par ch=1 c=64 v=63
111658 Par ch=1 c=64 v=127
111726 On ch=1 n=f3 v=0
112054 On ch=1 n=g5 v=69
112068 On ch=1 n=d#5 v=45
112078 On ch=1 n=c5 v=40
112084 On ch=1 n=f5 v=0
112092 On ch=1 n=g#4 v=48
112206 On ch=1 n=g#4 v=0
112214 On ch=1 n=d#5 v=0
112216 On ch=1 n=c5 v=0
112420 On ch=1 n=d#5 v=63
112444 On ch=1 n=f5 v=92
112454 On ch=1 n=g5 v=0
112458 On ch=1 n=g#4 v=58
112470 On ch=1 n=d#5 v=0
112518 On ch=1 n=g#4 v=0
112746 On ch=1 n=f3 v=70
112752 On ch=1 n=c5 v=97
112766 On ch=1 n=f5 v=0
112844 On ch=1 n=f3 v=0
112902 On ch=1 n=c5 v=0
113060 On ch=1 n=a#3 v=78
113064 Par ch=1 c=64 v=63
113078 Par ch=1 c=64 v=0
113088 On ch=1 n=d5 v=100
113116 Par ch=1 c=64 v=63
113144 On ch=1 n=a#3 v=0
113156 Par ch=1 c=64 v=127
113206 On ch=1 n=d5 v=0
113210 On ch=1 n=d#5 v=95
113296 On ch=1 n=d#5 v=0
113366 On ch=1 n=g#4 v=58
113370 On ch=1 n=f4 v=69
113372 On ch=1 n=c5 v=75
113386 On ch=1 n=f5 v=89
113428 On ch=1 n=c5 v=0
113428 Par ch=1 c=64 v=63
113448 On ch=1 n=g#4 v=0
113464 On ch=1 n=f5 v=0
113466 On ch=1 n=f4 v=0
113488 Par ch=1 c=64 v=0
113600 Par ch=1 c=64 v=63
113644 Par ch=1 c=64 v=127
113658 On ch=1 n=a#3 v=71
113706 On ch=1 n=d5 v=87
113750 On ch=1 n=a#3 v=0
113788 On ch=1 n=d5 v=0
113830 On ch=1 n=d#5 v=93
113904 On ch=1 n=d#5 v=0
113932 Par ch=1 c=64 v=63
113952 Par ch=1 c=64 v=0
113984 On ch=1 n=d#5 v=89
114020 On ch=1 n=f5 v=90
114020 Par ch=1 c=64 v=63
114022 On ch=1 n=g#4 v=45
114052 Par ch=1 c=64 v=127
114058 On ch=1 n=d#5 v=0
114096 On ch=1 n=g#4 v=0
114098 On ch=1 n=f5 v=0
114282 Par ch=1 c=64 v=63
114302 Par ch=1 c=64 v=0
114342 On ch=1 n=d#3 v=77
114368 Par ch=1 c=64 v=63
114370 On ch=1 n=g5 v=78
114402 Par ch=1 c=64 v=127
114434 On ch=1 n=d#3 v=0
114488 On ch=1 n=g5 v=0
114724 Par ch=1 c=64 v=63
114794 On ch=1 n=a#4 v=41
114820 On ch=1 n=d5 v=92
114820 On ch=1 n=g4 v=73
114846 Par ch=1 c=64 v=127
114906 On ch=1 n=d5 v=0
114906 On ch=1 n=a#4 v=0
114912 On ch=1 n=g4 v=0
115152 Par ch=1 c=64 v=63
115168 On ch=1 n=g#3 v=88
115182 On ch=1 n=c5 v=88
115254 Par ch=1 c=64 v=127
115262 On ch=1 n=g#3 v=0
115298 On ch=1 n=c5 v=0
115300 On ch=1 n=d5 v=98
115406 On ch=1 n=d5 v=0
115462 Par ch=1 c=64 v=63
115480 On ch=1 n=c5 v=82
115480 On ch=1 n=g4 v=63
115480 On ch=1 n=d#5 v=108
115516 Par ch=1 c=64 v=127
115542 On ch=1 n=c5 v=0
115552 On ch=1 n=d#5 v=0
115552 On ch=1 n=g4 v=0
115804 Par ch=1 c=64 v=63
115820 On ch=1 n=f3 v=96
115826 On ch=1 n=c5 v=97
115830 Par ch=1 c=64 v=0
115844 Par ch=1 c=64 v=63
115888 Par ch=1 c=64 v=127
115920 On ch=1 n=f3 v=0
115960 On ch=1 n=c5 v=0
115976 On ch=1 n=d5 v=97
116094 On ch=1 n=d5 v=0
116206 On ch=1 n=g#4 v=69
116210 On ch=1 n=c5 v=69
116214 On ch=1 n=d#5 v=97
116228 On ch=1 n=d#4 v=64
116232 Par ch=1 c=64 v=63
116292 Par ch=1 c=64 v=127
116304 On ch=1 n=c5 v=0
116312 On ch=1 n=d#5 v=0
116312 On ch=1 n=g#4 v=0
116356 On ch=1 n=d#4 v=0
116484 On ch=1 n=d5 v=91
116534 On ch=1 n=d#5 v=77
116542 On ch=1 n=d5 v=0
116630 On ch=1 n=d#5 v=0
116632 On ch=1 n=d5 v=74
116652 Par ch=1 c=64 v=63
116664 Par ch=1 c=64 v=0
116710 On ch=1 n=d3 v=81
116744 Par ch=1 c=64 v=63
116772 Par ch=1 c=64 v=127
116830 On ch=1 n=d3 v=0
116922 On ch=1 n=d5 v=0
117186 On ch=1 n=a#4 v=82
117204 On ch=1 n=f#4 v=54
117298 On ch=1 n=a#4 v=0
117306 On ch=1 n=f#4 v=0
117788 On ch=1 n=g2 v=59
117872 On ch=1 n=g4 v=76
117996 Par ch=1 c=64 v=63
118008 Par ch=1 c=64 v=0
118118 Par ch=1 c=64 v=63
118136 Par ch=1 c=64 v=127
118386 On ch=1 n=g2 v=0
118468 On ch=1 n=d5 v=50
118476 On ch=1 n=b4 v=46
118652 On ch=1 n=b4 v=0
118656 On ch=1 n=d5 v=0
118902 On ch=1 n=d5 v=41
118908 On ch=1 n=b4 v=36
119104 On ch=1 n=d5 v=0
119108 On ch=1 n=b4 v=0
119256 On ch=1 n=g3 v=55
119352 On ch=1 n=g3 v=0
119628 On ch=1 n=g3 v=57
119678 On ch=1 n=g3 v=0
120012 On ch=1 n=d5 v=40
120014 On ch=1 n=b4 v=34
120112 On ch=1 n=b4 v=0
120118 On ch=1 n=d5 v=0
120398 On ch=1 n=b4 v=51
120412 On ch=1 n=d5 v=37
120464 On ch=1 n=b4 v=0
120466 On ch=1 n=d5 v=0
120488 On ch=1 n=g4 v=0
120812 On ch=1 n=g3 v=61
120914 On ch=1 n=g3 v=0
121234 On ch=1 n=g3 v=31
121306 On ch=1 n=g3 v=0
121682 On ch=1 n=d5 v=36
121702 On ch=1 n=b4 v=23
121778 On ch=1 n=d5 v=0
121816 On ch=1 n=b4 v=0
122126 On ch=1 n=d5 v=20
122138 On ch=1 n=b4 v=11
122392 On ch=1 n=b4 v=0
122394 On ch=1 n=d5 v=0
122640 On ch=1 n=g3 v=25
122800 On ch=1 n=g3 v=0
123322 On ch=1 n=d#3 v=35
123462 Par ch=1 c=67 v=127
123466 Par ch=1 c=64 v=63
123480 Par ch=1 c=64 v=0
123598 Par ch=1 c=64 v=63
123610 Par ch=1 c=64 v=127
123746 On ch=1 n=d#3 v=0
124132 On ch=1 n=c#4 v=43
124144 On ch=1 n=f#4 v=59
124156 On ch=1 n=a4 v=29
124294 On ch=1 n=c#4 v=0
124316 On ch=1 n=f#4 v=0
124364 On ch=1 n=a4 v=0
124546 On ch=1 n=c#4 v=24
124584 On ch=1 n=f#4 v=38
124644 On ch=1 n=a4 v=34
124730 On ch=1 n=c#6 v=82
124800 On ch=1 n=c#6 v=0
124808 On ch=1 n=d#6 v=68
124826 On ch=1 n=f#4 v=0
124852 On ch=1 n=a4 v=0
124868 On ch=1 n=c#4 v=0
124876 On ch=1 n=c#6 v=72
124924 On ch=1 n=d#6 v=0
125292 On ch=1 n=d#3 v=43
125430 On ch=1 n=d#3 v=0
125638 On ch=1 n=d#3 v=76
125734 On ch=1 n=d#3 v=0
126010 On ch=1 n=f#4 v=57
126018 On ch=1 n=c#4 v=53
126026 On ch=1 n=a4 v=43
126138 On ch=1 n=f#4 v=0
126152 On ch=1 n=c#4 v=0
126156 On ch=1 n=a4 v=0
126354 On ch=1 n=a4 v=53
126358 On ch=1 n=f#4 v=53
126372 On ch=1 n=c#4 v=49
126412 On ch=1 n=f#4 v=0
126420 On ch=1 n=a4 v=0
126424 On ch=1 n=c#4 v=0
126686 On ch=1 n=d#3 v=64
126732 Par ch=1 c=64 v=63
126806 Par ch=1 c=64 v=127
126824 On ch=1 n=d#3 v=0
127020 On ch=1 n=d#3 v=74
127076 On ch=1 n=d#3 v=0
127158 On ch=1 n=c#6 v=0
127452 On ch=1 n=f#4 v=50
127458 On ch=1 n=c#4 v=32
127472 On ch=1 n=a4 v=34
127492 On ch=1 n=b5 v=76
127578 On ch=1 n=f#4 v=0
127580 On ch=1 n=c#4 v=0
127622 On ch=1 n=a4 v=0
127710 On ch=1 n=b5 v=0
127854 On ch=1 n=a4 v=50
127856 On ch=1 n=f#4 v=58
127856 On ch=1 n=c#4 v=60
127890 On ch=1 n=a5 v=88
127920 On ch=1 n=f#4 v=0
127920 On ch=1 n=a4 v=0
127954 On ch=1 n=c#4 v=0
128162 On ch=1 n=a5 v=0
128202 On ch=1 n=b5 v=101
128212 On ch=1 n=d#3 v=60
128258 On ch=1 n=d#3 v=0
128274 On ch=1 n=b5 v=0
128546 On ch=1 n=d#3 v=77
128572 Par ch=1 c=64 v=63
128586 Par ch=1 c=64 v=0
128630 On ch=1 n=d#3 v=0
128664 On ch=1 n=c#6 v=85
128680 Par ch=1 c=64 v=63
128706 Par ch=1 c=64 v=127
128812 On ch=1 n=d#6 v=85
128828 On ch=1 n=c#6 v=0
128924 On ch=1 n=d#6 v=0
128962 On ch=1 n=a#4 v=74
128972 On ch=1 n=g4 v=54
128990 On ch=1 n=c#4 v=73
129000 On ch=1 n=e6 v=98
129010 On ch=1 n=a#4 v=0
129020 On ch=1 n=g4 v=0
129060 Par ch=1 c=64 v=63
129072 On ch=1 n=c#4 v=0
129084 On ch=1 n=e6 v=0
129106 Par ch=1 c=64 v=0
129328 On ch=1 n=b2 v=79
129350 On ch=1 n=d#6 v=91
129356 Par ch=1 c=64 v=63
129362 Par ch=1 c=64 v=127
129372 On ch=1 n=b2 v=0
129456 On ch=1 n=d#6 v=0
129486 On ch=1 n=e6 v=84
129602 On ch=1 n=e6 v=0
129650 On ch=1 n=c#5 v=99
129662 On ch=1 n=d#4 v=85
129666 On ch=1 n=f#6 v=101
129702 Par ch=1 c=64 v=63
129710 On ch=1 n=c#5 v=0
129716 Par ch=1 c=64 v=0
129742 On ch=1 n=f#6 v=0
129748 On ch=1 n=d#4 v=0
129980 On ch=1 n=e3 v=88
129982 On ch=1 n=g#6 v=95
129996 Par ch=1 c=64 v=63
130000 Par ch=1 c=64 v=127
130056 On ch=1 n=e3 v=0
130110 On ch=1 n=g#6 v=0
130110 On ch=1 n=f#6 v=95
130252 On ch=1 n=f#6 v=0
130282 On ch=1 n=g#4 v=83
130282 On ch=1 n=e6 v=98
130286 On ch=1 n=b4 v=85
130294 On ch=1 n=d#4 v=87
130332 Par ch=1 c=64 v=63
130340 On ch=1 n=b4 v=0
130340 On ch=1 n=g#4 v=0
130348 Par ch=1 c=64 v=0
130366 On ch=1 n=d#4 v=0
130424 On ch=1 n=d#6 v=101
130456 On ch=1 n=e6 v=0
130496 On ch=1 n=d#6 v=0
130626 Par ch=1 c=64 v=63
130628 Par ch=1 c=64 v=127
130628 On ch=1 n=g#3 v=67
130632 On ch=1 n=c#6 v=97
130670 On ch=1 n=g#3 v=0
130686 On ch=1 n=d#6 v=88
130698 On ch=1 n=c#6 v=0
130754 On ch=1 n=d#6 v=0
130760 On ch=1 n=c#6 v=76
131046 On ch=1 n=d#5 v=70
131056 On ch=1 n=f#4 v=68
131068 On ch=1 n=b4 v=40
131076 On ch=1 n=b5 v=84
131096 On ch=1 n=c#6 v=0
131122 On ch=1 n=b4 v=0
131126 On ch=1 n=d#5 v=0
131172 On ch=1 n=b5 v=0
131176 On ch=1 n=f#4 v=0
131514 On ch=1 n=c#3 v=79
131514 Par ch=1 c=64 v=63
131524 Par ch=1 c=64 v=0
131532 On ch=1 n=g#5 v=90
131596 Par ch=1 c=64 v=63
131622 Par ch=1 c=64 v=127
131636 On ch=1 n=c#3 v=0
131678 On ch=1 n=g#5 v=0
131962 On ch=1 n=b5 v=101
131966 On ch=1 n=g#4 v=76
131976 On ch=1 n=b4 v=63
131982 On ch=1 n=d#5 v=80
132084 On ch=1 n=d#5 v=0
132222 On ch=1 n=b4 v=0
132290 On ch=1 n=c#4 v=85
132362 Par ch=1 c=64 v=63
132364 On ch=1 n=d#6 v=112
132374 Par ch=1 c=64 v=0
132422 On ch=1 n=b5 v=0
132430 On ch=1 n=g#4 v=0
132484 Par ch=1 c=64 v=63
132506 Par ch=1 c=64 v=127
132728 On ch=1 n=c#5 v=82
132728 On ch=1 n=f5 v=93
132740 On ch=1 n=g#4 v=73
132764 On ch=1 n=c#5 v=0
132788 On ch=1 n=g#4 v=0
132800 On ch=1 n=c#4 v=0
132818 On ch=1 n=f5 v=0
133004 On ch=1 n=d#6 v=0
133122 On ch=1 n=d#3 v=72
133158 On ch=1 n=c#6 v=91
133166 Par ch=1 c=64 v=63
133178 Par ch=1 c=64 v=0
133250 Par ch=1 c=64 v=63
133274 Par ch=1 c=64 v=127
133278 On ch=1 n=d#3 v=0
133364 On ch=1 n=d#6 v=88
133426 On ch=1 n=c#6 v=0
133538 On ch=1 n=d#6 v=0
133606 On ch=1 n=a#4 v=63
133608 On ch=1 n=d#5 v=53
133610 On ch=1 n=g5 v=68
133630 On ch=1 n=b5 v=76
133696 On ch=1 n=d#5 v=0
133718 On ch=1 n=a#4 v=0
133728 On ch=1 n=g5 v=0
133808 On ch=1 n=a#5 v=88
133848 On ch=1 n=b5 v=0
133906 On ch=1 n=a#5 v=0
134072 On ch=1 n=g#3 v=61
134164 On ch=1 n=g#5 v=76
134372 Par ch=1 c=64 v=63
134398 Par ch=1 c=64 v=0
134600 Par ch=1 c=64 v=63
134620 Par ch=1 c=64 v=127
134626 On ch=1 n=d#5 v=60
134640 On ch=1 n=c5 v=48
134734 On ch=1 n=d#5 v=0
134752 On ch=1 n=c5 v=0
134942 On ch=1 n=g#3 v=0
135026 On ch=1 n=d#5 v=52
135034 On ch=1 n=c5 v=42
135216 On ch=1 n=d#5 v=0
135230 On ch=1 n=c5 v=0
135344 On ch=1 n=g#3 v=68
135460 On ch=1 n=g#3 v=0
135712 On ch=1 n=g#3 v=72
135762 On ch=1 n=g#3 v=0
136048 Par ch=1 c=67 v=0
136184 On ch=1 n=d#5 v=30
136200 On ch=1 n=c5 v=28
136376 On ch=1 n=c5 v=0
136452 On ch=1 n=d#5 v=0
136502 On ch=1 n=g#5 v=0
136830 On ch=1 n=g#4 v=52
136876 On ch=1 n=d#6 v=51
136958 Par ch=1 c=64 v=63
136976 Par ch=1 c=64 v=0
137054 On ch=1 n=d#6 v=0
137064 Par ch=1 c=64 v=63
137082 On ch=1 n=f6 v=50
137090 Par ch=1 c=64 v=127
137250 On ch=1 n=f#5 v=76
137252 On ch=1 n=g#4 v=0
137270 On ch=1 n=f#6 v=84
137282 On ch=1 n=d5 v=52
137298 On ch=1 n=f6 v=0
137312 On ch=1 n=f#5 v=0
137326 On ch=1 n=d5 v=0
137364 On ch=1 n=f#6 v=0
137568 On ch=1 n=e4 v=82
137576 On ch=1 n=g#6 v=86
137578 Par ch=1 c=64 v=63
137636 Par ch=1 c=64 v=127
137648 On ch=1 n=e4 v=0
137710 On ch=1 n=a6 v=98
137794 On ch=1 n=g#6 v=0
137890 On ch=1 n=b6 v=99
137892 On ch=1 n=f#5 v=88
137900 On ch=1 n=d5 v=73
137902 On ch=1 n=b4 v=76
137948 On ch=1 n=a6 v=0
137992 On ch=1 n=f#5 v=0
137994 On ch=1 n=b6 v=0
138012 On ch=1 n=d5 v=0
138108 On ch=1 n=b4 v=0
138194 On ch=1 n=a4 v=68
138216 On ch=1 n=c#7 v=98
138266 Par ch=1 c=64 v=63
138294 Par ch=1 c=64 v=0
138334 Par ch=1 c=64 v=63
138374 Par ch=1 c=64 v=127
138384 On ch=1 n=b6 v=94
138394 On ch=1 n=c#7 v=0
138530 On ch=1 n=a4 v=0
138548 On ch=1 n=a6 v=104
138556 On ch=1 n=e5 v=59
138562 On ch=1 n=g#5 v=62
138564 On ch=1 n=c#5 v=70
138592 On ch=1 n=b6 v=0
138656 On ch=1 n=e5 v=0
138666 On ch=1 n=g#5 v=0
138668 On ch=1 n=c#5 v=0
138696 On ch=1 n=g#6 v=103
138726 On ch=1 n=a6 v=0
138778 On ch=1 n=g#6 v=0
138848 On ch=1 n=f#6 v=93
138876 On ch=1 n=c#5 v=65
138886 On ch=1 n=g#6 v=94
138898 On ch=1 n=f#6 v=0
138948 On ch=1 n=g#6 v=0
138958 Par ch=1 c=64 v=63
138960 On ch=1 n=f#6 v=80
138976 Par ch=1 c=64 v=0
139028 Par ch=1 c=64 v=63
139070 Par ch=1 c=64 v=127
139214 On ch=1 n=g#5 v=49
139228 On ch=1 n=b5 v=59
139244 On ch=1 n=e6 v=85
139250 On ch=1 n=e5 v=54
139280 On ch=1 n=f#6 v=0
139328 On ch=1 n=g#5 v=0
139334 On ch=1 n=b5 v=0
139342 On ch=1 n=e6 v=0
139356 On ch=1 n=e5 v=0
139390 On ch=1 n=c#5 v=0
139550 On ch=1 n=b4 v=55
139576 On ch=1 n=d6 v=74
139642 Par ch=1 c=64 v=63
139660 Par ch=1 c=64 v=0
139688 Par ch=1 c=64 v=63
139708 On ch=1 n=d6 v=0
139708 On ch=1 n=e6 v=76
139730 Par ch=1 c=64 v=127
139898 On ch=1 n=f#5 v=61
139910 On ch=1 n=f#6 v=80
139912 On ch=1 n=a5 v=43
139916 On ch=1 n=d5 v=43
139944 On ch=1 n=e6 v=0
140006 On ch=1 n=f#6 v=0
140008 On ch=1 n=f#5 v=0
140022 On ch=1 n=a5 v=0
140026 On ch=1 n=d5 v=0
140048 On ch=1 n=b4 v=0
140286 Par ch=1 c=64 v=63
140294 On ch=1 n=g#6 v=93
140310 On ch=1 n=e4 v=63
140352 Par ch=1 c=64 v=127
140406 On ch=1 n=e4 v=0
140634 On ch=1 n=g#6 v=0
140704 On ch=1 n=e5 v=82
140706 On ch=1 n=g#5 v=50
140710 On ch=1 n=e6 v=82
140712 On ch=1 n=b5 v=55
140788 On ch=1 n=b5 v=0
140794 On ch=1 n=g#5 v=0
140808 On ch=1 n=e6 v=0
140810 On ch=1 n=e5 v=0
140942 On ch=1 n=a6 v=85
141014 On ch=1 n=b6 v=74
141020 On ch=1 n=a6 v=0
141074 Par ch=1 c=64 v=63
141078 On ch=1 n=a4 v=56
141082 On ch=1 n=a6 v=70
141086 Par ch=1 c=64 v=0
141096 On ch=1 n=b6 v=0
141118 Par ch=1 c=64 v=63
141148 Par ch=1 c=64 v=127
141216 On ch=1 n=a4 v=0
141332 On ch=1 n=g#6 v=76
141378 On ch=1 n=a6 v=0
141556 On ch=1 n=g#5 v=63
141564 On ch=1 n=g#6 v=0
141574 On ch=1 n=e6 v=69
141576 On ch=1 n=e5 v=55
141592 On ch=1 n=c#6 v=52
141654 On ch=1 n=g#5 v=0
141694 On ch=1 n=c#6 v=0
141714 On ch=1 n=e5 v=0
141734 On ch=1 n=e6 v=0
141760 On ch=1 n=f#6 v=78
141984 On ch=1 n=c#5 v=44
141990 On ch=1 n=f#6 v=0
141996 On ch=1 n=c#6 v=67
142036 Par ch=1 c=64 v=63
142056 Par ch=1 c=64 v=0
142070 Par ch=1 c=64 v=63
142110 Par ch=1 c=64 v=127
142200 On ch=1 n=c#6 v=0
142242 On ch=1 n=c#5 v=0
142462 On ch=1 n=g#5 v=34
142496 On ch=1 n=e6 v=70
142502 On ch=1 n=b5 v=47
142630 On ch=1 n=e6 v=0
142676 On ch=1 n=g#5 v=0
142690 On ch=1 n=b5 v=0
143144 On ch=1 n=f#6 v=65
143156 On ch=1 n=f#4 v=50
143440 Par ch=1 c=64 v=63
143464 Par ch=1 c=64 v=127
143848 On ch=1 n=c#6 v=57
143856 On ch=1 n=a#5 v=46
143870 On ch=1 n=f#5 v=43
143976 On ch=1 n=f#5 v=0
143992 On ch=1 n=a#5 v=0
144014 On ch=1 n=c#6 v=0
144348 On ch=1 n=a#5 v=42
144350 On ch=1 n=c#6 v=55
144364 On ch=1 n=f#5 v=38
144476 On ch=1 n=f#5 v=0
144502 On ch=1 n=a#5 v=0
144524 On ch=1 n=c#6 v=0
144558 On ch=1 n=f#4 v=0
144786 On ch=1 n=f#4 v=57
144878 On ch=1 n=f#4 v=0
145182 On ch=1 n=f#4 v=52
145554 On ch=1 n=c#6 v=46
145556 On ch=1 n=f#5 v=40
145562 On ch=1 n=a#5 v=43
145592 On ch=1 n=f#4 v=0
145650 On ch=1 n=a#5 v=0
145676 On ch=1 n=f#5 v=0
145702 On ch=1 n=c#6 v=0
145920 On ch=1 n=c#6 v=43
145934 On ch=1 n=a#5 v=50
145946 On ch=1 n=f#5 v=34
146036 On ch=1 n=a#5 v=0
146096 On ch=1 n=f#5 v=0
146110 On ch=1 n=c#6 v=0
146300 On ch=1 n=f#4 v=45
146418 On ch=1 n=f#4 v=0
146682 On ch=1 n=f#4 v=43
146908 On ch=1 n=f#4 v=0
147054 On ch=1 n=a#5 v=46
147076 On ch=1 n=f#5 v=30
147106 On ch=1 n=c#5 v=27
147178 On ch=1 n=c#5 v=0
147178 On ch=1 n=a#5 v=0
147180 On ch=1 n=f#5 v=0
147446 On ch=1 n=c#5 v=32
147452 On ch=1 n=a#5 v=45
147482 On ch=1 n=f#5 v=18
147556 On ch=1 n=a#5 v=0
147572 On ch=1 n=c#5 v=0
147590 On ch=1 n=f#5 v=0
147844 On ch=1 n=f#4 v=44
147934 On ch=1 n=f#4 v=0
148252 On ch=1 n=f#4 v=30
148642 On ch=1 n=a#5 v=31
148644 On ch=1 n=c#5 v=32
148656 On ch=1 n=f#5 v=15
148732 On ch=1 n=c#5 v=0
148744 On ch=1 n=f#5 v=0
148754 On ch=1 n=a#5 v=0
148856 On ch=1 n=f#4 v=0
149090 On ch=1 n=a#5 v=32
149096 On ch=1 n=c#5 v=31
149110 On ch=1 n=f#5 v=19
149232 On ch=1 n=c#5 v=0
149260 On ch=1 n=f#5 v=0
149556 On ch=1 n=a#5 v=0
149562 On ch=1 n=f#4 v=27
149572 On ch=1 n=f#6 v=0
149728 On ch=1 n=f#4 v=0
150184 On ch=1 n=c#5 v=46
150186 On ch=1 n=f#4 v=26
150194 On ch=1 n=c#6 v=70
150802 On ch=1 n=f#5 v=36
150826 On ch=1 n=a5 v=31
150968 On ch=1 n=f#5 v=0
151012 On ch=1 n=a5 v=0
151034 On ch=1 n=c#5 v=0
151290 On ch=1 n=c#5 v=44
151310 On ch=1 n=a5 v=24
151310 On ch=1 n=f#5 v=25
151540 On ch=1 n=f#4 v=0
151682 On ch=1 n=f#4 v=57
151736 On ch=1 n=c#6 v=0
151762 On ch=1 n=c#5 v=0
151772 On ch=1 n=a5 v=0
151802 On ch=1 n=f#5 v=0
151816 On ch=1 n=f#4 v=0
152166 On ch=1 n=b3 v=62
152234 On ch=1 n=d#6 v=96
152254 On ch=1 n=d#5 v=58
152324 Par ch=1 c=64 v=63
152398 Par ch=1 c=64 v=127
152752 On ch=1 n=b5 v=54
152764 On ch=1 n=f#5 v=45
152910 On ch=1 n=f#5 v=0
152928 On ch=1 n=d#5 v=0
152942 On ch=1 n=b5 v=0
153154 On ch=1 n=b5 v=58
153168 On ch=1 n=f#5 v=57
153182 On ch=1 n=d#5 v=22
153230 On ch=1 n=b3 v=0
153552 On ch=1 n=b3 v=71
153558 Par ch=1 c=67 v=127
153608 On ch=1 n=b5 v=0
153626 On ch=1 n=f#5 v=0
153642 On ch=1 n=d#6 v=0
153644 On ch=1 n=d#5 v=0
154106 On ch=1 n=e6 v=88
154122 On ch=1 n=e4 v=57
154138 On ch=1 n=e5 v=43
154180 On ch=1 n=b3 v=0
154224 Par ch=1 c=64 v=63
154240 Par ch=1 c=64 v=0
154364 Par ch=1 c=64 v=63
154380 Par ch=1 c=64 v=127
154540 On ch=1 n=e5 v=0
154722 On ch=1 n=b5 v=42
154734 On ch=1 n=e5 v=12
154742 On ch=1 n=g5 v=51
154888 On ch=1 n=e6 v=0
154912 On ch=1 n=g5 v=0
154920 On ch=1 n=b5 v=0
154954 On ch=1 n=e5 v=0
155176 On ch=1 n=d6 v=80
155182 On ch=1 n=b5 v=63
155184 On ch=1 n=d5 v=66
155192 On ch=1 n=f#5 v=49
155410 On ch=1 n=e4 v=0
155500 On ch=1 n=d6 v=0
155526 On ch=1 n=b5 v=0
155570 On ch=1 n=e4 v=55
155574 On ch=1 n=f#5 v=0
155588 On ch=1 n=d5 v=0
155690 On ch=1 n=e4 v=0
155938 On ch=1 n=e4 v=55
155942 On ch=1 n=b5 v=84
155964 On ch=1 n=b4 v=61
156072 Par ch=1 c=64 v=63
156156 Par ch=1 c=64 v=127
156330 On ch=1 n=g5 v=58
156344 On ch=1 n=d5 v=55
156434 On ch=1 n=b5 v=0
156470 On ch=1 n=d5 v=0
156494 On ch=1 n=g5 v=0
156626 On ch=1 n=b4 v=0
156714 On ch=1 n=a5 v=76
156724 On ch=1 n=a4 v=41
156728 On ch=1 n=c#5 v=46
156730 On ch=1 n=f#5 v=67
156742 On ch=1 n=e4 v=0
157028 Par ch=1 c=64 v=63
157072 Par ch=1 c=64 v=127
157090 On ch=1 n=e4 v=58
157232 On ch=1 n=a4 v=0
157246 On ch=1 n=c#5 v=0
157258 On ch=1 n=f#5 v=0
157308 On ch=1 n=a5 v=0
157370 On ch=1 n=e4 v=0
157634 On ch=1 n=e5 v=80
157638 On ch=1 n=e3 v=74
158162 On ch=1 n=b4 v=36
158162 On ch=1 n=d5 v=49
158170 On ch=1 n=g4 v=38
158204 Par ch=1 c=64 v=63
158354 Par ch=1 c=64 v=127
158494 On ch=1 n=b4 v=0
158514 On ch=1 n=g4 v=0
158516 On ch=1 n=d5 v=0
158652 On ch=1 n=d5 v=47
158652 On ch=1 n=b4 v=47
158664 On ch=1 n=g4 v=20
158680 On ch=1 n=e3 v=0
158984 On ch=1 n=b4 v=0
159006 On ch=1 n=d5 v=0
159042 On ch=1 n=g4 v=0
159048 On ch=1 n=e3 v=54
159142 On ch=1 n=e3 v=0
159416 On ch=1 n=e3 v=51
159518 Par ch=1 c=64 v=63
159660 Par ch=1 c=64 v=127
159778 On ch=1 n=b4 v=28
159784 On ch=1 n=g4 v=22
159796 On ch=1 n=d5 v=33
159990 On ch=1 n=g4 v=0
159992 On ch=1 n=b4 v=0
160036 On ch=1 n=d5 v=0
160138 On ch=1 n=e3 v=0
160198 On ch=1 n=d5 v=41
160210 On ch=1 n=b4 v=23
160228 On ch=1 n=g4 v=10
160562 On ch=1 n=e3 v=39
160616 On ch=1 n=b4 v=0
160620 On ch=1 n=e5 v=0
160652 On ch=1 n=g4 v=0
160652 On ch=1 n=d5 v=0
160674 On ch=1 n=e3 v=0
160954 On ch=1 n=f#5 v=66
161010 On ch=1 n=e3 v=28
161114 Par ch=1 c=64 v=63
161232 Par ch=1 c=64 v=127
161362 On ch=1 n=d5 v=41
161368 On ch=1 n=b4 v=47
161372 On ch=1 n=g4 v=25
161552 On ch=1 n=g4 v=0
161558 On ch=1 n=d5 v=0
161560 On ch=1 n=b4 v=0
161772 On ch=1 n=e3 v=0
161828 On ch=1 n=b4 v=32
161828 On ch=1 n=d5 v=36
161832 On ch=1 n=g4 v=12
162212 On ch=1 n=g4 v=0
162226 On ch=1 n=d5 v=0
162230 On ch=1 n=e3 v=41
162236 On ch=1 n=b4 v=0
162272 On ch=1 n=f#5 v=0
162650 On ch=1 n=d5 v=53
162662 On ch=1 n=e3 v=0
162696 On ch=1 n=d5 v=0
162712 On ch=1 n=e5 v=49
162756 On ch=1 n=a3 v=21
162776 On ch=1 n=d5 v=46
162816 Par ch=1 c=64 v=63
162838 On ch=1 n=e5 v=0
162854 Par ch=1 c=64 v=0
162914 Par ch=1 c=64 v=63
162950 Par ch=1 c=64 v=127
163260 On ch=1 n=b4 v=31
163262 On ch=1 n=g4 v=24
163348 Par ch=1 c=67 v=127
163458 On ch=1 n=b4 v=0
163464 On ch=1 n=g4 v=0
163768 On ch=1 n=c#5 v=57
163792 On ch=1 n=d5 v=0
163816 On ch=1 n=b4 v=24
163824 On ch=1 n=g4 v=21
163872 Par ch=1 c=64 v=63
163986 Par ch=1 c=64 v=127
164050 On ch=1 n=a3 v=0
164330 On ch=1 n=g4 v=0
164390 On ch=1 n=b4 v=0
164422 On ch=1 n=c#5 v=0
164468 On ch=1 n=a3 v=10
164620 On ch=1 n=a3 v=0
165262 On ch=1 n=d3 v=106
165270 On ch=1 n=a3 v=107
165286 Par ch=1 c=67 v=0
165352 On ch=1 n=d3 v=0
165378 On ch=1 n=a5 v=96
165382 On ch=1 n=f4 v=116
165384 On ch=1 n=a4 v=112
165384 On ch=1 n=e5 v=111
165386 On ch=1 n=c5 v=113
165400 Par ch=1 c=64 v=127
165412 On ch=1 n=a3 v=0
165446 On ch=1 n=f4 v=0
165490 On ch=1 n=a4 v=0
165508 On ch=1 n=c5 v=0
165548 On ch=1 n=e5 v=0
165632 On ch=1 n=a5 v=0
165640 On ch=1 n=g5 v=103
165724 On ch=1 n=a5 v=100
165726 On ch=1 n=d4 v=84
165744 On ch=1 n=g5 v=0
165770 On ch=1 n=f4 v=69
165776 On ch=1 n=a5 v=0
165776 On ch=1 n=a4 v=63
165794 Par ch=1 c=64 v=63
165800 Par ch=1 c=64 v=0
165840 On ch=1 n=e5 v=113
165860 Par ch=1 c=64 v=63
165862 On ch=1 n=a5 v=124
165862 On ch=1 n=g6 v=116
165864 On ch=1 n=c6 v=116
165866 On ch=1 n=e6 v=116
165868 On ch=1 n=d4 v=0
165872 Par ch=1 c=64 v=127
165892 On ch=1 n=e6 v=0
165900 On ch=1 n=c6 v=0
165900 On ch=1 n=a5 v=0
165912 On ch=1 n=g6 v=0
165996 On ch=1 n=e5 v=0
166030 On ch=1 n=a4 v=0
166050 On ch=1 n=f4 v=0
166090 Par ch=1 c=64 v=63
166098 Par ch=1 c=64 v=0
166304 On ch=1 n=g3 v=102
166312 On ch=1 n=d4 v=103
166316 On ch=1 n=c6 v=116
166320 On ch=1 n=e6 v=104
166324 Par ch=1 c=64 v=63
166326 Par ch=1 c=64 v=127
166408 On ch=1 n=g3 v=0
166410 On ch=1 n=a5 v=104
166436 On ch=1 n=e6 v=0
166436 On ch=1 n=c6 v=0
166490 On ch=1 n=a5 v=0
166504 Par ch=1 c=64 v=63
166520 Par ch=1 c=64 v=0
166520 On ch=1 n=f5 v=101
166524 On ch=1 n=a4 v=93
166538 On ch=1 n=d4 v=0
166570 On ch=1 n=a4 v=0
166582 On ch=1 n=f5 v=0
166622 On ch=1 n=d5 v=108
166668 On ch=1 n=d5 v=0
166726 Par ch=1 c=64 v=63
166740 On ch=1 n=c3 v=107
166742 Par ch=1 c=64 v=127
166744 On ch=1 n=g3 v=108
166746 On ch=1 n=g5 v=112
166748 On ch=1 n=c5 v=117
166750 On ch=1 n=e5 v=104
166750 On ch=1 n=c6 v=96
166770 On ch=1 n=e5 v=0
166772 On ch=1 n=c5 v=0
166772 On ch=1 n=b5 v=45
166774 On ch=1 n=d5 v=43
166778 On ch=1 n=g5 v=0
166788 On ch=1 n=c6 v=0
166790 On ch=1 n=c3 v=0
166796 On ch=1 n=g3 v=0
166798 On ch=1 n=b5 v=0
166804 On ch=1 n=d5 v=0
166940 Par ch=1 c=64 v=63
166968 Par ch=1 c=64 v=0
166982 On ch=1 n=g5 v=98
167036 On ch=1 n=g5 v=0
167066 On ch=1 n=a5 v=96
167132 On ch=1 n=a5 v=0
167184 On ch=1 n=c6 v=102
167184 On ch=1 n=b5 v=104
167186 On ch=1 n=g5 v=87
167190 On ch=1 n=e5 v=81
167192 On ch=1 n=e6 v=93
167216 On ch=1 n=g5 v=0
167228 On ch=1 n=e5 v=0
167250 On ch=1 n=c6 v=0
167254 On ch=1 n=b5 v=0
167286 On ch=1 n=a5 v=96
167290 On ch=1 n=e6 v=0
167348 On ch=1 n=a5 v=0
167398 On ch=1 n=g5 v=85
167422 On ch=1 n=g6 v=75
167462 On ch=1 n=g6 v=0
167466 On ch=1 n=g5 v=0
167482 On ch=1 n=a5 v=94
167552 On ch=1 n=a5 v=0
167606 On ch=1 n=d5 v=102
167608 On ch=1 n=e6 v=103
167608 On ch=1 n=g5 v=101
167610 On ch=1 n=c6 v=97
167610 On ch=1 n=b5 v=102
167618 On ch=1 n=e5 v=83
167638 On ch=1 n=g5 v=0
167646 On ch=1 n=e5 v=0
167650 On ch=1 n=b5 v=0
167658 On ch=1 n=d5 v=0
167660 On ch=1 n=c6 v=0
167672 On ch=1 n=e6 v=0
167844 On ch=1 n=g6 v=91
167848 On ch=1 n=g5 v=91
167892 On ch=1 n=g6 v=0
167904 On ch=1 n=g5 v=0
167930 On ch=1 n=a5 v=98
167998 On ch=1 n=a5 v=0
168052 On ch=1 n=e6 v=106
168052 On ch=1 n=g5 v=106
168054 On ch=1 n=c5 v=104
168054 On ch=1 n=c6 v=99
168056 On ch=1 n=b5 v=98
168058 On ch=1 n=e5 v=93
168086 On ch=1 n=e5 v=0
168100 On ch=1 n=g5 v=0
168112 On ch=1 n=c5 v=0
168158 On ch=1 n=a5 v=96
168164 On ch=1 n=e6 v=0
168190 On ch=1 n=b5 v=0
168194 On ch=1 n=c6 v=0
168230 On ch=1 n=a5 v=0
168270 On ch=1 n=g5 v=89
168294 On ch=1 n=g6 v=106
168332 On ch=1 n=g5 v=0
168350 On ch=1 n=g6 v=0
168360 On ch=1 n=a5 v=92
168422 On ch=1 n=a5 v=0
168474 On ch=1 n=g5 v=108
168476 On ch=1 n=b4 v=96
168478 On ch=1 n=e5 v=100
168478 On ch=1 n=b5 v=107
168478 On ch=1 n=c6 v=102
168480 On ch=1 n=c5 v=97
168480 On ch=1 n=e6 v=104
168518 On ch=1 n=e5 v=0
168520 On ch=1 n=g5 v=0
168526 On ch=1 n=b5 v=0
168528 On ch=1 n=c5 v=0
168540 On ch=1 n=c6 v=0
168546 On ch=1 n=b4 v=0
168548 On ch=1 n=e6 v=0
168708 On ch=1 n=g5 v=96
168714 On ch=1 n=g6 v=109
168762 On ch=1 n=g5 v=0
168766 On ch=1 n=g6 v=0
168802 On ch=1 n=a5 v=92
168860 On ch=1 n=a5 v=0
168912 On ch=1 n=a4 v=75
168912 On ch=1 n=g5 v=103
168914 On ch=1 n=e6 v=108
168916 On ch=1 n=e5 v=93
168918 On ch=1 n=b5 v=103
168918 On ch=1 n=c6 v=102
168918 On ch=1 n=c5 v=90
168960 On ch=1 n=e5 v=0
168960 On ch=1 n=g5 v=0
168966 On ch=1 n=c5 v=0
169000 On ch=1 n=a4 v=0
169016 On ch=1 n=a5 v=101
169024 On ch=1 n=e6 v=0
169054 On ch=1 n=b5 v=0
169066 On ch=1 n=c6 v=0
169128 On ch=1 n=g5 v=92
169130 On ch=1 n=a5 v=0
169144 On ch=1 n=g6 v=118
169198 On ch=1 n=g6 v=0
169198 On ch=1 n=g5 v=0
169218 On ch=1 n=a5 v=88
169288 On ch=1 n=a5 v=0
169332 On ch=1 n=g4 v=89
169334 On ch=1 n=e5 v=104
169334 On ch=1 n=c5 v=102
169340 On ch=1 n=e6 v=100
169340 On ch=1 n=c6 v=101
169340 On ch=1 n=b5 v=101
169340 On ch=1 n=a4 v=71
169382 On ch=1 n=e5 v=0
169384 On ch=1 n=c5 v=0
169398 On ch=1 n=a4 v=0
169414 On ch=1 n=g4 v=0
169438 On ch=1 n=e6 v=0
169446 On ch=1 n=a5 v=92
169496 On ch=1 n=c6 v=0
169500 On ch=1 n=b5 v=0
169558 On ch=1 n=g5 v=91
169560 On ch=1 n=g6 v=117
169576 On ch=1 n=a5 v=0
169608 On ch=1 n=g6 v=0
169624 On ch=1 n=g5 v=0
169650 On ch=1 n=e5 v=89
169696 On ch=1 n=e5 v=0
169772 On ch=1 n=a4 v=98
169774 On ch=1 n=g4 v=94
169776 On ch=1 n=e4 v=94
169782 On ch=1 n=e5 v=113
169782 On ch=1 n=c5 v=117
169806 On ch=1 n=g4 v=0
169824 On ch=1 n=a4 v=0
169838 On ch=1 n=e5 v=0
169842 On ch=1 n=e4 v=0
169874 On ch=1 n=b4 v=102
169876 On ch=1 n=c5 v=0
169950 On ch=1 n=b4 v=0
170000 On ch=1 n=a4 v=103
170002 On ch=1 n=g5 v=121
170050 On ch=1 n=g5 v=0
170068 On ch=1 n=a4 v=0
170086 On ch=1 n=b4 v=94
170160 On ch=1 n=b4 v=0
170202 On ch=1 n=a3 v=108
170202 On ch=1 n=g4 v=113
170206 On ch=1 n=e5 v=114
170208 On ch=1 n=e4 v=109
170208 On ch=1 n=c5 v=116
170252 On ch=1 n=e4 v=0
170254 On ch=1 n=g4 v=0
170268 On ch=1 n=a3 v=0
170284 On ch=1 n=c5 v=0
170302 On ch=1 n=b4 v=94
170308 On ch=1 n=e5 v=0
170382 On ch=1 n=b4 v=0
170424 On ch=1 n=g5 v=111
170426 On ch=1 n=c5 v=108
170468 On ch=1 n=g5 v=0
170504 On ch=1 n=c5 v=0
170514 On ch=1 n=e5 v=99
170572 On ch=1 n=e5 v=0
170634 On ch=1 n=g5 v=114
170636 On ch=1 n=g4 v=102
170636 On ch=1 n=e4 v=106
170638 On ch=1 n=c5 v=116
170678 On ch=1 n=c5 v=0
170680 On ch=1 n=g4 v=0
170682 On ch=1 n=e4 v=0
170686 On ch=1 n=g5 v=0
170866 On ch=1 n=g5 v=111
170868 On ch=1 n=g4 v=99
170872 On ch=1 n=c5 v=106
170880 On ch=1 n=e4 v=93
170902 On ch=1 n=e4 v=0
170918 On ch=1 n=c5 v=0
170920 On ch=1 n=g4 v=0
170936 On ch=1 n=g5 v=0
170958 On ch=1 n=e5 v=99
171024 On ch=1 n=e5 v=0
171080 On ch=1 n=g3 v=98
171082 On ch=1 n=d4 v=116
171084 On ch=1 n=g5 v=120
171084 On ch=1 n=g4 v=108
171086 On ch=1 n=d5 v=122
171088 On ch=1 n=b4 v=117
171108 Par ch=1 c=64 v=127
171122 On ch=1 n=d5 v=0
171124 On ch=1 n=b4 v=0
171124 On ch=1 n=d4 v=0
171132 On ch=1 n=g3 v=0
171146 On ch=1 n=g4 v=0
171148 On ch=1 n=g5 v=0
171262 Par ch=1 c=64 v=63
171270 Par ch=1 c=64 v=0
171440 On ch=1 n=e5 v=41
171512 On ch=1 n=a5 v=55
171516 On ch=1 n=c6 v=109
171526 On ch=1 n=e6 v=113
171530 On ch=1 n=e7 v=120
171532 On ch=1 n=c7 v=121
171534 On ch=1 n=g6 v=118
171542 Par ch=1 c=64 v=127
171618 On ch=1 n=e6 v=0
171624 On ch=1 n=g6 v=0
171628 On ch=1 n=c6 v=0
171644 On ch=1 n=a5 v=0
171658 On ch=1 n=e5 v=0
171734 On ch=1 n=e7 v=0
171774 On ch=1 n=d7 v=89
171820 On ch=1 n=c7 v=0
171840 On ch=1 n=e7 v=104
171876 On ch=1 n=d7 v=0
171880 On ch=1 n=d5 v=60
171906 On ch=1 n=e7 v=0
171948 On ch=1 n=b5 v=117
171950 On ch=1 n=g5 v=101
171954 On ch=1 n=e6 v=118
171958 On ch=1 n=g7 v=109
171958 On ch=1 n=b7 v=111
171960 On ch=1 n=d6 v=112
171962 On ch=1 n=b6 v=111
171982 On ch=1 n=b6 v=0
171984 On ch=1 n=g7 v=0
172002 On ch=1 n=b7 v=0
172122 On ch=1 n=e6 v=0
172128 Par ch=1 c=64 v=63
172130 On ch=1 n=d6 v=0
172132 On ch=1 n=b5 v=0
172142 Par ch=1 c=64 v=0
172150 On ch=1 n=g5 v=0
172152 On ch=1 n=d5 v=0
172324 On ch=1 n=c5 v=53
172372 On ch=1 n=c5 v=0
172392 Par ch=1 c=64 v=63
172394 Par ch=1 c=64 v=127
172408 On ch=1 n=f5 v=102
172416 On ch=1 n=a#5 v=109
172418 On ch=1 n=d7 v=121
172420 On ch=1 n=d6 v=106
172422 On ch=1 n=a#6 v=124
172422 On ch=1 n=f6 v=120
172458 On ch=1 n=a#5 v=0
172462 On ch=1 n=d6 v=0
172462 On ch=1 n=f5 v=0
172464 On ch=1 n=f6 v=0
172580 On ch=1 n=d7 v=0
172668 On ch=1 n=c7 v=84
172670 On ch=1 n=a#6 v=0
172730 On ch=1 n=d7 v=101
172758 On ch=1 n=e5 v=65
172770 On ch=1 n=c7 v=0
172802 On ch=1 n=d7 v=0
172846 On ch=1 n=a5 v=101
172848 On ch=1 n=c6 v=117
172848 On ch=1 n=e6 v=122
172854 On ch=1 n=e7 v=108
172854 On ch=1 n=c7 v=114
172854 On ch=1 n=g7 v=111
172856 On ch=1 n=g6 v=108
172862 On ch=1 n=a6 v=93
172878 On ch=1 n=g6 v=0
172882 On ch=1 n=e7 v=0
172886 On ch=1 n=c7 v=0
172888 On ch=1 n=a6 v=0
172900 On ch=1 n=g7 v=0
172902 On ch=1 n=e6 v=0
172904 On ch=1 n=c6 v=0
172924 On ch=1 n=a5 v=0
172926 On ch=1 n=e5 v=0
173078 On ch=1 n=c5 v=103
173092 Par ch=1 c=64 v=63
173102 Par ch=1 c=64 v=0
173172 On ch=1 n=d5 v=92
173204 On ch=1 n=c5 v=0
173288 On ch=1 n=d#5 v=108
173292 On ch=1 n=d5 v=0
173296 On ch=1 n=d#6 v=119
173302 On ch=1 n=g#5 v=110
173304 On ch=1 n=c6 v=107
173320 Par ch=1 c=64 v=63
173326 Par ch=1 c=64 v=127
173384 On ch=1 n=d#5 v=0
173400 On ch=1 n=d5 v=96
173492 On ch=1 n=d5 v=0
173510 On ch=1 n=c5 v=96
173618 On ch=1 n=d5 v=97
173648 On ch=1 n=c6 v=0
173652 On ch=1 n=c5 v=0
173666 On ch=1 n=g#5 v=0
173680 On ch=1 n=d#6 v=0
173718 Par ch=1 c=64 v=63
173728 Par ch=1 c=64 v=0
173738 On ch=1 n=d#5 v=118
173760 On ch=1 n=d5 v=0
173788 On ch=1 n=d#5 v=0
173952 On ch=1 n=f5 v=106
173952 On ch=1 n=c6 v=111
173954 On ch=1 n=a5 v=102
173954 On ch=1 n=f6 v=104
173988 On ch=1 n=f6 v=0
173996 On ch=1 n=c6 v=0
174000 On ch=1 n=a5 v=0
174004 On ch=1 n=f5 v=0
174176 On ch=1 n=d6 v=99
174176 On ch=1 n=d5 v=102
174178 On ch=1 n=a5 v=81
174178 On ch=1 n=f#5 v=104
174208 On ch=1 n=a5 v=0
174226 On ch=1 n=f#5 v=0
174228 On ch=1 n=d6 v=0
174230 On ch=1 n=d5 v=0
174396 On ch=1 n=g5 v=96
174396 On ch=1 n=c5 v=111
174396 On ch=1 n=c6 v=100
174402 On ch=1 n=e5 v=86
174430 On ch=1 n=g5 v=0
174432 On ch=1 n=e5 v=0
174446 On ch=1 n=c5 v=0
174452 On ch=1 n=c6 v=0
174616 On ch=1 n=d6 v=92
174618 On ch=1 n=f#5 v=101
174618 On ch=1 n=a5 v=85
174620 On ch=1 n=d5 v=106
174648 On ch=1 n=a5 v=0
174660 On ch=1 n=f#5 v=0
174666 On ch=1 n=d5 v=0
174666 On ch=1 n=d6 v=0
174836 On ch=1 n=a#5 v=101
174836 On ch=1 n=d5 v=93
174836 On ch=1 n=f5 v=89
174840 On ch=1 n=a#4 v=104
174864 On ch=1 n=f5 v=0
174864 On ch=1 n=d5 v=0
174888 On ch=1 n=a#5 v=0
174890 On ch=1 n=a#4 v=0
175058 On ch=1 n=g4 v=93
175064 On ch=1 n=d6 v=107
175064 On ch=1 n=a5 v=103
175064 On ch=1 n=b4 v=89
175066 On ch=1 n=f5 v=104
175066 On ch=1 n=d5 v=99
175092 Par ch=1 c=64 v=63
175094 On ch=1 n=b4 v=0
175100 On ch=1 n=a5 v=0
175100 Par ch=1 c=64 v=127
175106 On ch=1 n=f5 v=0
175110 On ch=1 n=d5 v=0
175122 On ch=1 n=d6 v=0
175130 On ch=1 n=g4 v=0
175286 On ch=1 n=e5 v=88
175300 On ch=1 n=e6 v=61
175362 On ch=1 n=d6 v=98
175374 On ch=1 n=e5 v=0
175378 On ch=1 n=e6 v=0
175382 On ch=1 n=d5 v=90
175416 On ch=1 n=d5 v=0
175418 On ch=1 n=d6 v=0
175470 Par ch=1 c=64 v=63
175478 Par ch=1 c=64 v=0
175492 On ch=1 n=c6 v=100
175494 On ch=1 n=g5 v=96
175494 On ch=1 n=e5 v=99
175494 On ch=1 n=c5 v=114
175520 On ch=1 n=g5 v=0
175522 On ch=1 n=e5 v=0
175544 On ch=1 n=c6 v=0
175546 On ch=1 n=c5 v=0
175708 On ch=1 n=a#5 v=107
175712 On ch=1 n=f5 v=97
175716 On ch=1 n=a#4 v=105
175718 On ch=1 n=d5 v=93
175740 On ch=1 n=f5 v=0
175750 On ch=1 n=d5 v=0
175760 On ch=1 n=a#5 v=0
175762 On ch=1 n=a#4 v=0
175924 On ch=1 n=g5 v=100
175930 On ch=1 n=c5 v=98
175930 On ch=1 n=e5 v=86
175930 On ch=1 n=g4 v=94
175938 On ch=1 n=c4 v=87
175958 On ch=1 n=e5 v=0
175962 On ch=1 n=g4 v=0
175966 On ch=1 n=c4 v=0
175970 On ch=1 n=c5 v=0
175984 On ch=1 n=g5 v=0
176148 On ch=1 n=d5 v=94
176150 On ch=1 n=a#4 v=99
176152 On ch=1 n=f5 v=87
176156 On ch=1 n=d4 v=72
176156 On ch=1 n=c4 v=73
176168 On ch=1 n=g3 v=48
176168 On ch=1 n=f3 v=47
176174 On ch=1 n=d5 v=0
176184 On ch=1 n=d4 v=0
176188 On ch=1 n=c4 v=0
176192 On ch=1 n=a#4 v=0
176202 On ch=1 n=f3 v=0
176204 On ch=1 n=f5 v=0
176206 On ch=1 n=g3 v=0
176370 On ch=1 n=g5 v=93
176370 On ch=1 n=g4 v=100
176372 On ch=1 n=c3 v=98
176372 On ch=1 n=c5 v=97
176376 On ch=1 n=e5 v=85
176378 On ch=1 n=g3 v=97
176398 On ch=1 n=g4 v=0
176400 On ch=1 n=c5 v=0
176404 On ch=1 n=e5 v=0
176404 Par ch=1 c=64 v=63
176410 On ch=1 n=g3 v=0
176410 Par ch=1 c=64 v=127
176418 On ch=1 n=c3 v=0
176430 On ch=1 n=g5 v=0
176580 Par ch=1 c=64 v=63
176592 Par ch=1 c=64 v=0
176610 On ch=1 n=c5 v=91
176684 On ch=1 n=d5 v=100
176718 On ch=1 n=c5 v=0
176774 On ch=1 n=d5 v=0
176796 On ch=1 n=d#5 v=113
176798 On ch=1 n=d#6 v=121
176804 On ch=1 n=g#5 v=114
176804 On ch=1 n=c6 v=111
176826 Par ch=1 c=64 v=63
176826 Par ch=1 c=64 v=127
176868 On ch=1 n=d#5 v=0
176906 On ch=1 n=d5 v=101
176990 On ch=1 n=d5 v=0
176996 On ch=1 n=c5 v=94
177066 On ch=1 n=c6 v=0
177094 On ch=1 n=d5 v=99
177106 On ch=1 n=g#5 v=0
177120 On ch=1 n=c5 v=0
177128 On ch=1 n=d#6 v=0
177178 On ch=1 n=d5 v=0
177190 On ch=1 n=d#5 v=114
177230 Par ch=1 c=64 v=63
177238 Par ch=1 c=64 v=0
177252 On ch=1 n=d#5 v=0
177420 On ch=1 n=f5 v=97
177422 On ch=1 n=c6 v=103
177422 On ch=1 n=a5 v=102
177424 On ch=1 n=f6 v=106
177450 On ch=1 n=c6 v=0
177462 On ch=1 n=f6 v=0
177464 On ch=1 n=a5 v=0
177466 On ch=1 n=f5 v=0
177634 On ch=1 n=d6 v=102
177634 On ch=1 n=a#5 v=106
177638 On ch=1 n=d5 v=98
177638 On ch=1 n=f5 v=101
177648 On ch=1 n=a#4 v=90
177670 On ch=1 n=f5 v=0
177674 On ch=1 n=a#4 v=0
177676 On ch=1 n=a#5 v=0
177684 On ch=1 n=d5 v=0
177692 On ch=1 n=d6 v=0
177850 On ch=1 n=c5 v=101
177850 On ch=1 n=c6 v=109
177852 On ch=1 n=f4 v=97
177856 On ch=1 n=f5 v=103
177862 On ch=1 n=a5 v=82
177886 On ch=1 n=c5 v=0
177888 On ch=1 n=a5 v=0
177902 On ch=1 n=f4 v=0
177906 On ch=1 n=f5 v=0
177918 On ch=1 n=c6 v=0
178074 On ch=1 n=f5 v=106
178074 On ch=1 n=a#5 v=113
178076 On ch=1 n=a#4 v=119
178076 On ch=1 n=f4 v=107
178076 On ch=1 n=a#3 v=104
178078 On ch=1 n=d5 v=99
178108 On ch=1 n=d5 v=0
178112 Par ch=1 c=64 v=63
178114 On ch=1 n=a#4 v=0
178116 On ch=1 n=f5 v=0
178116 Par ch=1 c=64 v=127
178122 On ch=1 n=f4 v=0
178130 On ch=1 n=a#3 v=0
178130 On ch=1 n=a#5 v=0
178296 Par ch=1 c=64 v=63
178304 Par ch=1 c=64 v=0
178510 On ch=1 n=a#2 v=107
178526 On ch=1 n=a#3 v=121
178528 On ch=1 n=f3 v=108
178530 On ch=1 n=g5 v=104
178532 On ch=1 n=a#4 v=109
178534 On ch=1 n=d#5 v=97
178536 On ch=1 n=c5 v=97
178552 Par ch=1 c=64 v=63
178552 Par ch=1 c=64 v=127
178584 On ch=1 n=a#2 v=0
178592 On ch=1 n=f3 v=0
178608 On ch=1 n=a#3 v=0
178650 On ch=1 n=a#4 v=0
178694 On ch=1 n=g5 v=0
178726 On ch=1 n=c5 v=0
178774 On ch=1 n=f5 v=79
178800 On ch=1 n=d#5 v=0
178846 On ch=1 n=g5 v=84
178872 On ch=1 n=f5 v=0
178890 On ch=1 n=g5 v=0
178928 On ch=1 n=f4 v=74
178952 Par ch=1 c=64 v=63
178958 On ch=1 n=a#4 v=107
178960 Par ch=1 c=64 v=0
178966 On ch=1 n=d5 v=112
178968 On ch=1 n=d6 v=113
178974 On ch=1 n=f5 v=104
178978 On ch=1 n=a#5 v=93
178992 Par ch=1 c=64 v=63
178998 On ch=1 n=f5 v=0
179004 Par ch=1 c=64 v=127
179006 On ch=1 n=a#5 v=0
179010 On ch=1 n=f4 v=0
179012 On ch=1 n=a#4 v=0
179014 On ch=1 n=d6 v=0
179020 On ch=1 n=d5 v=0
179084 Par ch=1 c=64 v=63
179090 Par ch=1 c=64 v=0
179204 On ch=1 n=f5 v=89
179288 On ch=1 n=g5 v=83
179312 On ch=1 n=f5 v=0
179380 On ch=1 n=g5 v=0
179408 On ch=1 n=g#6 v=120
179418 On ch=1 n=f6 v=108
179418 On ch=1 n=c#6 v=113
179420 On ch=1 n=g#5 v=93
179432 Par ch=1 c=64 v=63
179432 Par ch=1 c=64 v=127
179496 On ch=1 n=g#5 v=0
179520 On ch=1 n=g5 v=76
179608 On ch=1 n=g5 v=0
179620 On ch=1 n=f5 v=78
179714 On ch=1 n=g5 v=92
179766 On ch=1 n=f5 v=0
179816 On ch=1 n=g#5 v=113
179834 On ch=1 n=f6 v=0
179838 On ch=1 n=g5 v=0
179850 On ch=1 n=c#6 v=0
179856 On ch=1 n=g#6 v=0
179870 On ch=1 n=g#5 v=0
179872 Par ch=1 c=64 v=63
179880 Par ch=1 c=64 v=0
180048 On ch=1 n=a#6 v=109
180050 On ch=1 n=f6 v=98
180052 On ch=1 n=a#5 v=118
180052 On ch=1 n=d6 v=93
180080 On ch=1 n=f6 v=0
180082 On ch=1 n=d6 v=0
180100 On ch=1 n=a#6 v=0
180104 On ch=1 n=a#5 v=0
180260 On ch=1 n=f#5 v=116
180262 On ch=1 n=f#6 v=103
180262 On ch=1 n=a#5 v=104
180270 On ch=1 n=c#6 v=89
180296 On ch=1 n=c#6 v=0
180298 On ch=1 n=a#5 v=0
180310 On ch=1 n=f#5 v=0
180312 On ch=1 n=f#6 v=0
180474 On ch=1 n=b5 v=87
180478 On ch=1 n=g5 v=80
180480 On ch=1 n=e5 v=108
180480 On ch=1 n=e6 v=83
180510 On ch=1 n=g5 v=0
180512 On ch=1 n=b5 v=0
180520 On ch=1 n=e6 v=0
180536 On ch=1 n=e5 v=0
180696 On ch=1 n=f#6 v=104
180696 On ch=1 n=a#5 v=106
180704 On ch=1 n=f#5 v=106
180708 On ch=1 n=c#6 v=87
180734 On ch=1 n=c#6 v=0
180738 On ch=1 n=a#5 v=0
180750 On ch=1 n=f#5 v=0
180754 On ch=1 n=f#6 v=0
180920 On ch=1 n=a#5 v=95
180926 On ch=1 n=d#5 v=104
180926 On ch=1 n=d#6 v=94
180944 On ch=1 n=a#5 v=0
180944 On ch=1 n=g5 v=26
180968 On ch=1 n=d#5 v=0
180970 On ch=1 n=d#6 v=0
180972 On ch=1 n=g5 v=0
181144 On ch=1 n=f#5 v=103
181146 On ch=1 n=d#5 v=93
181148 On ch=1 n=b4 v=72
181148 On ch=1 n=f#6 v=115
181150 On ch=1 n=c#6 v=116
181152 On ch=1 n=a5 v=104
181178 Par ch=1 c=64 v=63
181178 Par ch=1 c=64 v=127
181180 On ch=1 n=b4 v=0
181182 On ch=1 n=a5 v=0
181184 On ch=1 n=d#5 v=0
181188 On ch=1 n=f#5 v=0
181194 On ch=1 n=c#6 v=0
181216 On ch=1 n=f#6 v=0
181374 On ch=1 n=g#6 v=91
181386 On ch=1 n=g#5 v=90
181448 On ch=1 n=f#6 v=82
181464 On ch=1 n=g#6 v=0
181466 On ch=1 n=g#5 v=0
181468 On ch=1 n=f#5 v=90
181500 On ch=1 n=f#6 v=0
181536 On ch=1 n=f#5 v=0
181594 On ch=1 n=c#5 v=115
181594 On ch=1 n=g#5 v=94
181596 On ch=1 n=e5 v=99
181596 On ch=1 n=b5 v=99
181598 Par ch=1 c=64 v=63
181598 On ch=1 n=e6 v=100
181608 Par ch=1 c=64 v=0
181636 On ch=1 n=c#5 v=0
181644 On ch=1 n=e5 v=0
181644 On ch=1 n=g#5 v=0
181648 On ch=1 n=b5 v=0
181668 On ch=1 n=e6 v=0
181816 On ch=1 n=g#4 v=95
181820 On ch=1 n=d#5 v=99
181820 On ch=1 n=c5 v=92
181822 On ch=1 n=d#6 v=100
181828 On ch=1 n=a#5 v=93
181828 On ch=1 n=f#5 v=89
181844 On ch=1 n=c5 v=0
181848 On ch=1 n=d#5 v=0
181854 On ch=1 n=a#5 v=0
181856 On ch=1 n=f#5 v=0
181864 On ch=1 n=d#6 v=0
181868 On ch=1 n=g#4 v=0
182044 On ch=1 n=c#6 v=108
182046 On ch=1 n=c#5 v=112
182048 On ch=1 n=g#5 v=101
182048 On ch=1 n=f5 v=94
182050 On ch=1 n=g#4 v=100
182050 On ch=1 n=c#4 v=104
182072 On ch=1 n=g#4 v=0
182078 On ch=1 n=f5 v=0
182082 On ch=1 n=g#5 v=0
182082 On ch=1 n=c#5 v=0
182098 On ch=1 n=c#4 v=0
182100 On ch=1 n=c#6 v=0
182268 On ch=1 n=b5 v=102
182272 On ch=1 n=d#5 v=103
182276 On ch=1 n=f#5 v=100
182276 On ch=1 n=g#4 v=96
182278 On ch=1 n=g#3 v=101
182300 On ch=1 n=g#4 v=0
182310 On ch=1 n=f#5 v=0
182312 On ch=1 n=d#5 v=0
182318 On ch=1 n=b5 v=0
182324 On ch=1 n=g#3 v=0
182488 On ch=1 n=c#3 v=104
182494 On ch=1 n=c#5 v=107
182494 On ch=1 n=c#4 v=112
182496 On ch=1 n=f5 v=103
182496 On ch=1 n=g#5 v=108
182524 Par ch=1 c=64 v=127
182530 On ch=1 n=c#3 v=0
182534 On ch=1 n=c#5 v=0
182540 On ch=1 n=c#4 v=0
182544 On ch=1 n=f5 v=0
182568 On ch=1 n=g#5 v=0
182722 On ch=1 n=g#5 v=100
182734 Par ch=1 c=64 v=63
182742 Par ch=1 c=64 v=0
182804 On ch=1 n=g#5 v=0
182822 On ch=1 n=a#5 v=99
182882 On ch=1 n=a#5 v=0
182930 On ch=1 n=b6 v=117
182932 On ch=1 n=b5 v=103
182936 On ch=1 n=g#6 v=119
182940 On ch=1 n=e6 v=111
182958 Par ch=1 c=64 v=63
182960 Par ch=1 c=64 v=127
183006 On ch=1 n=b5 v=0
183030 On ch=1 n=a#5 v=101
183104 On ch=1 n=a#5 v=0
183138 On ch=1 n=g#5 v=95
183228 On ch=1 n=a#5 v=110
183234 On ch=1 n=e6 v=0
183258 On ch=1 n=g#5 v=0
183258 On ch=1 n=b6 v=0
183292 On ch=1 n=g#6 v=0
183318 On ch=1 n=a#5 v=0
183360 On ch=1 n=b5 v=117
183422 On ch=1 n=b5 v=0
183426 Par ch=1 c=64 v=63
183432 Par ch=1 c=64 v=0
183580 On ch=1 n=c#7 v=110
183582 On ch=1 n=c#6 v=120
183584 On ch=1 n=g#6 v=108
183586 On ch=1 n=f6 v=98
183614 On ch=1 n=f6 v=0
183628 On ch=1 n=g#6 v=0
183630 On ch=1 n=c#7 v=0
183638 On ch=1 n=c#6 v=0
183798 On ch=1 n=a#5 v=120
183802 On ch=1 n=a#6 v=101
183808 On ch=1 n=c#6 v=100
183808 On ch=1 n=f#6 v=87
183810 On ch=1 n=f#5 v=104
183836 On ch=1 n=f#5 v=0
183836 On ch=1 n=f#6 v=0
183842 On ch=1 n=a#5 v=0
183844 On ch=1 n=c#6 v=0
183866 On ch=1 n=a#6 v=0
184014 On ch=1 n=g#6 v=98
184016 On ch=1 n=g#5 v=120
184020 On ch=1 n=f6 v=96
184020 On ch=1 n=c#6 v=99
184020 On ch=1 n=c#5 v=114
184048 On ch=1 n=f6 v=0
184060 On ch=1 n=c#6 v=0
184060 On ch=1 n=g#5 v=0
184062 On ch=1 n=c#5 v=0
184072 On ch=1 n=g#6 v=0
184248 On ch=1 n=f#5 v=125
184252 On ch=1 n=f#6 v=115
184254 On ch=1 n=f#4 v=113
184254 On ch=1 n=a#5 v=112
184256 On ch=1 n=c#5 v=105
184258 On ch=1 n=c#6 v=112
184272 Par ch=1 c=64 v=127
184276 On ch=1 n=c#5 v=0
184292 On ch=1 n=f#5 v=0
184294 On ch=1 n=a#5 v=0
184296 On ch=1 n=f#4 v=0
184300 On ch=1 n=c#6 v=0
184300 On ch=1 n=f#6 v=0
184506 Par ch=1 c=64 v=63
184514 Par ch=1 c=64 v=0
184712 On ch=1 n=f#3 v=83
184722 On ch=1 n=c#4 v=100
184722 On ch=1 n=f#4 v=109
184726 On ch=1 n=d#5 v=107
184728 On ch=1 n=b4 v=102
184732 On ch=1 n=g#4 v=101
184734 Par ch=1 c=64 v=63
184736 Par ch=1 c=64 v=127
184746 On ch=1 n=c#4 v=0
184760 On ch=1 n=f#4 v=0
184762 On ch=1 n=f#3 v=0
184862 On ch=1 n=g#4 v=0
184958 On ch=1 n=c#5 v=105
184962 On ch=1 n=d#5 v=0
184996 On ch=1 n=b4 v=0
185044 On ch=1 n=d#5 v=109
185076 On ch=1 n=c#5 v=0
185086 On ch=1 n=c#4 v=68
185104 On ch=1 n=d#5 v=0
185136 Par ch=1 c=64 v=63
185142 Par ch=1 c=64 v=0
185152 On ch=1 n=a#4 v=112
185160 On ch=1 n=c#5 v=116
185168 On ch=1 n=c#4 v=0
185172 On ch=1 n=c#6 v=101
185174 On ch=1 n=a#5 v=103
185176 On ch=1 n=f5 v=102
185178 Par ch=1 c=64 v=63
185192 On ch=1 n=a#4 v=0
185192 Par ch=1 c=64 v=127
185198 On ch=1 n=f5 v=0
185206 On ch=1 n=c#5 v=0
185214 On ch=1 n=a#5 v=0
185232 On ch=1 n=c#6 v=0
185432 Par ch=1 c=64 v=63
185438 Par ch=1 c=64 v=0
185618 On ch=1 n=c#3 v=91
185632 On ch=1 n=g#3 v=97
185638 On ch=1 n=a#5 v=112
185642 On ch=1 n=f#5 v=113
185652 Par ch=1 c=64 v=63
185652 Par ch=1 c=64 v=127
185674 On ch=1 n=c#3 v=0
185678 On ch=1 n=g#3 v=0
185730 On ch=1 n=a#5 v=0
185738 On ch=1 n=d#5 v=114
185764 On ch=1 n=f#5 v=0
185822 On ch=1 n=d#5 v=0
185854 On ch=1 n=d#4 v=95
185854 On ch=1 n=b4 v=86
185894 Par ch=1 c=64 v=63
185902 Par ch=1 c=64 v=0
185906 On ch=1 n=b4 v=0
185906 On ch=1 n=d#4 v=0
185946 On ch=1 n=g#4 v=112
185994 On ch=1 n=g#4 v=0
186074 On ch=1 n=a#4 v=114
186074 On ch=1 n=c#4 v=103
186074 On ch=1 n=f#4 v=110
186076 On ch=1 n=f#5 v=109
186076 On ch=1 n=f#3 v=81
186078 On ch=1 n=c#5 v=106
186082 Par ch=1 c=64 v=63
186084 Par ch=1 c=64 v=127
186098 On ch=1 n=f#3 v=0
186098 On ch=1 n=a#4 v=0
186100 On ch=1 n=c#4 v=0
186110 On ch=1 n=c#5 v=0
186124 On ch=1 n=f#4 v=0
186128 On ch=1 n=f#5 v=0
186464 Par ch=1 c=64 v=63
186470 On ch=1 n=c#7 v=87
186516 Par ch=1 c=64 v=0
186552 On ch=1 n=c#7 v=0
186578 On ch=1 n=d#7 v=81
186660 On ch=1 n=d#7 v=0
186698 On ch=1 n=e7 v=94
186700 On ch=1 n=f#5 v=85
186702 On ch=1 n=c#7 v=92
186716 On ch=1 n=a6 v=76
186792 On ch=1 n=d#7 v=103
186802 On ch=1 n=e7 v=0
186810 On ch=1 n=f#5 v=0
186810 On ch=1 n=c#6 v=79
186830 On ch=1 n=a6 v=0
186830 On ch=1 n=c#7 v=0
186876 On ch=1 n=d#7 v=0
186900 On ch=1 n=c#6 v=0
186912 On ch=1 n=c#7 v=103
186922 On ch=1 n=e6 v=77
186922 On ch=1 n=a6 v=80
186974 On ch=1 n=a6 v=0
187006 On ch=1 n=d#7 v=96
187010 On ch=1 n=c#7 v=0
187014 On ch=1 n=e6 v=0
187020 On ch=1 n=c#6 v=63
187080 On ch=1 n=d#7 v=0
187106 On ch=1 n=c#6 v=0
187118 On ch=1 n=f#5 v=75
187130 On ch=1 n=e7 v=81
187134 On ch=1 n=c#7 v=70
187146 On ch=1 n=a6 v=29
187170 On ch=1 n=c#7 v=0
187172 On ch=1 n=a6 v=0
187184 On ch=1 n=e7 v=0
187214 On ch=1 n=f#5 v=0
187236 On ch=1 n=c#6 v=43
187326 On ch=1 n=c#6 v=0
187338 On ch=1 n=d#7 v=96
187344 On ch=1 n=f#7 v=87
187348 On ch=1 n=f#6 v=84
187352 On ch=1 n=b6 v=60
187370 On ch=1 n=d#7 v=0
187378 On ch=1 n=f#7 v=0
187386 On ch=1 n=b6 v=0
187404 On ch=1 n=f#6 v=0
187458 On ch=1 n=b5 v=52
187560 On ch=1 n=d#7 v=105
187566 On ch=1 n=b6 v=84
187572 On ch=1 n=g6 v=73
187578 On ch=1 n=b5 v=0
187578 On ch=1 n=e5 v=63
187594 On ch=1 n=b6 v=0
187602 On ch=1 n=g6 v=0
187622 On ch=1 n=d#7 v=0
187662 On ch=1 n=e5 v=0
187678 On ch=1 n=b5 v=63
187780 On ch=1 n=b5 v=0
187790 On ch=1 n=b6 v=87
187794 On ch=1 n=g6 v=72
187802 On ch=1 n=d#6 v=80
187822 On ch=1 n=b6 v=0
187826 On ch=1 n=g6 v=0
187868 On ch=1 n=d#6 v=0
187882 On ch=1 n=b5 v=58
188014 On ch=1 n=d#7 v=98
188016 On ch=1 n=e5 v=65
188018 On ch=1 n=b5 v=0
188030 On ch=1 n=b6 v=38
188062 On ch=1 n=d#7 v=0
188064 On ch=1 n=b6 v=0
188108 On ch=1 n=b5 v=54
188114 On ch=1 n=e5 v=0
188236 On ch=1 n=d6 v=72
188240 On ch=1 n=b6 v=93
188244 On ch=1 n=b5 v=0
188248 On ch=1 n=g6 v=67
188284 On ch=1 n=g6 v=0
188332 On ch=1 n=d6 v=0
188332 On ch=1 n=b5 v=58
188334 On ch=1 n=c#7 v=96
188370 On ch=1 n=b6 v=0
188406 On ch=1 n=c#7 v=0
188448 On ch=1 n=e5 v=62
188448 On ch=1 n=d7 v=102
188450 On ch=1 n=b5 v=0
188450 On ch=1 n=b6 v=85
188454 On ch=1 n=g6 v=80
188538 On ch=1 n=c#7 v=100
188552 On ch=1 n=e5 v=0
188552 On ch=1 n=b5 v=65
188564 On ch=1 n=d7 v=0
188570 On ch=1 n=g6 v=0
188582 On ch=1 n=b6 v=0
188622 On ch=1 n=c#7 v=0
188656 On ch=1 n=b5 v=0
188660 On ch=1 n=b6 v=100
188668 On ch=1 n=g6 v=83
188672 On ch=1 n=d6 v=67
188748 On ch=1 n=c#7 v=108
188752 On ch=1 n=b5 v=67
188768 On ch=1 n=d6 v=0
188794 On ch=1 n=b6 v=0
188796 On ch=1 n=g6 v=0
188838 On ch=1 n=c#7 v=0
188872 On ch=1 n=e5 v=81
188872 On ch=1 n=d7 v=107
188878 On ch=1 n=b6 v=90
188882 On ch=1 n=b5 v=0
188882 On ch=1 n=g6 v=82
188910 On ch=1 n=g6 v=0
188912 On ch=1 n=b6 v=0
188940 On ch=1 n=d7 v=0
188972 On ch=1 n=e5 v=0
188972 On ch=1 n=b5 v=69
189082 On ch=1 n=b5 v=0
189090 On ch=1 n=e7 v=107
189096 On ch=1 n=c#7 v=94
189096 On ch=1 n=e6 v=80
189110 On ch=1 n=a6 v=43
189122 On ch=1 n=c#7 v=0
189142 On ch=1 n=a6 v=0
189150 On ch=1 n=e7 v=0
189172 On ch=1 n=e6 v=0
189202 On ch=1 n=a5 v=80
189310 On ch=1 n=c#7 v=109
189316 On ch=1 n=a6 v=93
189318 On ch=1 n=f6 v=87
189324 On ch=1 n=d5 v=80
189338 On ch=1 n=a5 v=0
189342 On ch=1 n=a6 v=0
189346 On ch=1 n=f6 v=0
189374 On ch=1 n=c#7 v=0
189420 On ch=1 n=a5 v=68
189428 On ch=1 n=d5 v=0
189538 On ch=1 n=a5 v=0
189544 On ch=1 n=a6 v=94
189546 On ch=1 n=c#6 v=87
189548 On ch=1 n=f6 v=77
189578 On ch=1 n=f6 v=0
189578 On ch=1 n=a6 v=0
189618 On ch=1 n=c#6 v=0
189624 On ch=1 n=a5 v=55
189760 On ch=1 n=d5 v=79
189768 On ch=1 n=c#7 v=97
189774 On ch=1 n=a6 v=76
189776 On ch=1 n=a5 v=0
189784 On ch=1 n=f6 v=41
189800 On ch=1 n=c#7 v=0
189804 On ch=1 n=a6 v=0
189814 On ch=1 n=f6 v=0
189868 On ch=1 n=d5 v=0
189868 On ch=1 n=a5 v=51
189990 On ch=1 n=a5 v=0
189992 On ch=1 n=a6 v=94
189998 On ch=1 n=f6 v=79
190002 On ch=1 n=c6 v=58
190040 On ch=1 n=f6 v=0
190082 On ch=1 n=a5 v=49
190094 On ch=1 n=b6 v=84
190110 On ch=1 n=c6 v=0
190130 On ch=1 n=a6 v=0
190164 On ch=1 n=b6 v=0
190200 On ch=1 n=a5 v=0
190200 On ch=1 n=d5 v=65
190208 On ch=1 n=a6 v=92
190212 On ch=1 n=c7 v=97
190216 On ch=1 n=f6 v=84
190306 On ch=1 n=b6 v=93
190308 On ch=1 n=d5 v=0
190308 On ch=1 n=a5 v=60
190332 On ch=1 n=f6 v=0
190348 On ch=1 n=c7 v=0
190352 On ch=1 n=a6 v=0
190396 On ch=1 n=b6 v=0
190422 On ch=1 n=a5 v=0
190432 On ch=1 n=a6 v=102
190436 On ch=1 n=c6 v=71
190442 On ch=1 n=f6 v=84
190512 On ch=1 n=a5 v=70
190514 On ch=1 n=f6 v=0
190522 On ch=1 n=b6 v=92
190544 On ch=1 n=c6 v=0
190558 On ch=1 n=a6 v=0
190608 On ch=1 n=b6 v=0
190642 On ch=1 n=d5 v=94
190642 On ch=1 n=a6 v=98
190646 On ch=1 n=c7 v=96
190648 On ch=1 n=f6 v=82
190650 On ch=1 n=a5 v=0
190678 On ch=1 n=f6 v=0
190680 On ch=1 n=a6 v=0
190692 On ch=1 n=c7 v=0
190740 On ch=1 n=a5 v=71
190770 On ch=1 n=d5 v=0
190864 On ch=1 n=g6 v=101
190866 On ch=1 n=a5 v=0
190874 On ch=1 n=e6 v=68
190876 On ch=1 n=b5 v=77
190906 On ch=1 n=e6 v=0
190952 On ch=1 n=a6 v=86
190964 On ch=1 n=g5 v=73
190984 On ch=1 n=b5 v=0
190994 On ch=1 n=g6 v=0
191022 On ch=1 n=a6 v=0
191074 On ch=1 n=b6 v=89
191074 On ch=1 n=c5 v=74
191076 On ch=1 n=g6 v=81
191082 On ch=1 n=g5 v=0
191088 On ch=1 n=e6 v=72
191174 On ch=1 n=a6 v=96
191186 On ch=1 n=g5 v=57
191192 On ch=1 n=c5 v=0
191206 On ch=1 n=b6 v=0
191208 On ch=1 n=e6 v=0
191220 On ch=1 n=g6 v=0
191256 On ch=1 n=a6 v=0
191292 On ch=1 n=g6 v=97
191298 On ch=1 n=e6 v=86
191302 On ch=1 n=g5 v=0
191306 On ch=1 n=b5 v=80
191382 On ch=1 n=a6 v=100
191394 On ch=1 n=g5 v=84
191414 On ch=1 n=e6 v=0
191432 On ch=1 n=g6 v=0
191440 On ch=1 n=b5 v=0
191484 On ch=1 n=a6 v=0
191512 On ch=1 n=b6 v=97
191514 On ch=1 n=c5 v=92
191516 On ch=1 n=g6 v=88
191534 On ch=1 n=g5 v=0
191534 On ch=1 n=e6 v=35
191552 On ch=1 n=g6 v=0
191566 On ch=1 n=e6 v=0
191574 On ch=1 n=b6 v=0
191614 On ch=1 n=g5 v=71
191732 On ch=1 n=g6 v=99
191740 On ch=1 n=g5 v=0
191740 On ch=1 n=d6 v=78
191740 On ch=1 n=a#5 v=88
191814 On ch=1 n=a#5 v=0
191814 On ch=1 n=c5 v=0
191828 On ch=1 n=g5 v=64
191834 On ch=1 n=a6 v=91
191856 On ch=1 n=d6 v=0
191886 On ch=1 n=g6 v=0
191944 On ch=1 n=a#6 v=93
191944 On ch=1 n=c5 v=100
191946 On ch=1 n=d6 v=83
191948 On ch=1 n=a6 v=0
191948 On ch=1 n=g6 v=82
191962 Par ch=1 c=64 v=63
191968 Par ch=1 c=64 v=127
191974 On ch=1 n=g5 v=0
192000 On ch=1 n=d6 v=0
192016 On ch=1 n=g6 v=0
192036 On ch=1 n=a#6 v=0
192048 On ch=1 n=c5 v=0
192054 On ch=1 n=a6 v=103
192056 On ch=1 n=g5 v=71
192130 On ch=1 n=g5 v=0
192142 On ch=1 n=a6 v=0
192178 On ch=1 n=g6 v=108
192194 On ch=1 n=d6 v=46
192200 On ch=1 n=e6 v=44
192238 On ch=1 n=e6 v=0
192260 On ch=1 n=a6 v=103
192270 On ch=1 n=d6 v=0
192272 On ch=1 n=g6 v=0
192274 On ch=1 n=g5 v=81
192338 On ch=1 n=g5 v=0
192340 On ch=1 n=a6 v=0
192354 Par ch=1 c=64 v=63
192362 Par ch=1 c=64 v=0
192386 On ch=1 n=g6 v=108
192390 Par ch=1 c=64 v=63
192390 On ch=1 n=a#6 v=107
192392 On ch=1 n=g4 v=113
192398 On ch=1 n=d6 v=86
192404 Par ch=1 c=64 v=127
192432 On ch=1 n=d6 v=0
192440 On ch=1 n=g6 v=0
192474 On ch=1 n=a#6 v=0
192482 On ch=1 n=g4 v=0
192492 On ch=1 n=d5 v=98
192554 On ch=1 n=d5 v=0
192626 On ch=1 n=g6 v=109
192626 On ch=1 n=a#5 v=105
192632 On ch=1 n=d6 v=97
192686 On ch=1 n=d6 v=0
192698 On ch=1 n=a#5 v=0
192720 On ch=1 n=d5 v=92
192722 On ch=1 n=a6 v=108
192762 On ch=1 n=g6 v=0
192776 On ch=1 n=d5 v=0
192808 On ch=1 n=a6 v=0
192822 Par ch=1 c=64 v=63
192830 Par ch=1 c=64 v=0
192840 On ch=1 n=c4 v=124
192848 On ch=1 n=g6 v=109
192850 On ch=1 n=a#6 v=108
192858 Par ch=1 c=64 v=63
192858 On ch=1 n=d6 v=99
192874 Par ch=1 c=64 v=127
192892 On ch=1 n=d6 v=0
192930 On ch=1 n=g4 v=94
192936 On ch=1 n=a6 v=107
192954 On ch=1 n=g6 v=0
192966 On ch=1 n=c4 v=0
192974 On ch=1 n=a#6 v=0
193030 On ch=1 n=g4 v=0
193052 On ch=1 n=g6 v=113
193060 On ch=1 n=d5 v=77
193090 On ch=1 n=a6 v=0
193124 On ch=1 n=d5 v=0
193138 On ch=1 n=g4 v=97
193142 On ch=1 n=g6 v=0
193150 On ch=1 n=d6 v=98
193192 On ch=1 n=g4 v=0
193200 On ch=1 n=d6 v=0
193256 Par ch=1 c=64 v=63
193264 On ch=1 n=g3 v=124
193268 On ch=1 n=a#5 v=120
193284 Par ch=1 c=64 v=127
193354 On ch=1 n=a5 v=106
193356 On ch=1 n=a#5 v=0
193364 On ch=1 n=d4 v=98
193376 On ch=1 n=g3 v=0
193434 On ch=1 n=a5 v=0
193442 On ch=1 n=d4 v=0
193470 On ch=1 n=g5 v=111
193494 On ch=1 n=a#4 v=101
193538 On ch=1 n=g5 v=0
193562 On ch=1 n=a#4 v=0
193572 On ch=1 n=d5 v=99
193584 On ch=1 n=d4 v=89
193618 On ch=1 n=d4 v=0
193626 On ch=1 n=d5 v=0
193700 On ch=1 n=c3 v=126
193704 On ch=1 n=a#4 v=113
193730 Par ch=1 c=64 v=63
193744 Par ch=1 c=64 v=0
193760 Par ch=1 c=64 v=63
193788 Par ch=1 c=64 v=127
193800 On ch=1 n=a4 v=102
193810 On ch=1 n=g3 v=92
193834 On ch=1 n=a#4 v=0
193850 On ch=1 n=c3 v=0
193914 On ch=1 n=g3 v=0
193924 On ch=1 n=g4 v=101
193928 On ch=1 n=d4 v=83
193932 On ch=1 n=a4 v=0
194020 On ch=1 n=d4 v=0
194022 On ch=1 n=g3 v=97
194026 On ch=1 n=a4 v=102
194032 On ch=1 n=g4 v=0
194074 On ch=1 n=g3 v=0
194096 On ch=1 n=a4 v=0
194142 On ch=1 n=g3 v=125
194146 On ch=1 n=a#4 v=116
194162 Par ch=1 c=64 v=63
194204 Par ch=1 c=64 v=127
194236 On ch=1 n=a#4 v=0
194246 On ch=1 n=a4 v=91
194258 On ch=1 n=d4 v=96
194320 On ch=1 n=a4 v=0
194352 On ch=1 n=d4 v=0
194364 On ch=1 n=g4 v=82
194372 On ch=1 n=a#4 v=112
194444 On ch=1 n=a#4 v=0
194468 On ch=1 n=d4 v=89
194472 On ch=1 n=g4 v=0
194474 On ch=1 n=d5 v=100
194538 On ch=1 n=d4 v=0
194552 On ch=1 n=d5 v=0
194598 On ch=1 n=a#4 v=118
194598 On ch=1 n=f5 v=109
194600 On ch=1 n=g3 v=0
194606 On ch=1 n=c4 v=103
194612 On ch=1 n=g4 v=93
194616 Par ch=1 c=64 v=63
194620 Par ch=1 c=64 v=0
194640 On ch=1 n=a#4 v=0
194652 On ch=1 n=f5 v=0
194654 On ch=1 n=g4 v=0
194656 On ch=1 n=c4 v=0
194838 On ch=1 n=g4 v=109
194840 On ch=1 n=f5 v=113
194844 On ch=1 n=a#4 v=116
194884 On ch=1 n=a#4 v=0
194898 On ch=1 n=g4 v=0
194902 On ch=1 n=f5 v=0
194946 On ch=1 n=d5 v=101
195020 On ch=1 n=d5 v=0
195084 On ch=1 n=f3 v=106
195088 On ch=1 n=f4 v=122
195090 On ch=1 n=c4 v=121
195090 On ch=1 n=f5 v=117
195090 On ch=1 n=a4 v=121
195102 Par ch=1 c=64 v=63
195104 Par ch=1 c=64 v=127
195134 On ch=1 n=a4 v=0
195150 On ch=1 n=f5 v=0
195278 On ch=1 n=f3 v=0
195280 On ch=1 n=c4 v=0
195292 On ch=1 n=f4 v=0
195338 Par ch=1 c=64 v=63
195346 Par ch=1 c=64 v=0
195496 On ch=1 n=d3 v=96
195524 Par ch=1 c=64 v=127
195526 On ch=1 n=a3 v=91
195568 On ch=1 n=d3 v=0
195578 On ch=1 n=a3 v=0
195592 On ch=1 n=a5 v=118
195596 On ch=1 n=e5 v=120
195596 On ch=1 n=c5 v=120
195596 On ch=1 n=f4 v=112
195642 On ch=1 n=f4 v=0
195706 On ch=1 n=c5 v=0
195788 On ch=1 n=a5 v=0
195846 On ch=1 n=g5 v=89
195898 On ch=1 n=e5 v=0
195914 On ch=1 n=d4 v=93
195930 On ch=1 n=a5 v=99
195962 On ch=1 n=g5 v=0
195964 On ch=1 n=f4 v=65
195982 On ch=1 n=a5 v=0
195986 On ch=1 n=a4 v=55
196034 Par ch=1 c=64 v=63
196038 On ch=1 n=e5 v=108
196056 On ch=1 n=g6 v=120
196060 On ch=1 n=d4 v=0
196060 On ch=1 n=c6 v=114
196060 On ch=1 n=a5 v=111
196072 Par ch=1 c=64 v=127
196084 On ch=1 n=a5 v=0
196094 On ch=1 n=c6 v=0
196102 On ch=1 n=g6 v=0
196246 On ch=1 n=e5 v=0
196282 On ch=1 n=a4 v=0
196298 On ch=1 n=f4 v=0
196312 Par ch=1 c=64 v=63
196320 Par ch=1 c=64 v=0
196558 On ch=1 n=g3 v=112
196562 Par ch=1 c=64 v=63
196562 Par ch=1 c=64 v=127
196564 On ch=1 n=d4 v=112
196570 On ch=1 n=c6 v=117
196572 On ch=1 n=e6 v=113
196646 On ch=1 n=g3 v=0
196656 On ch=1 n=d4 v=0
196678 On ch=1 n=a5 v=108
196692 On ch=1 n=e6 v=0
196704 On ch=1 n=c6 v=0
196742 On ch=1 n=a5 v=0
196810 On ch=1 n=a4 v=99
196820 On ch=1 n=f5 v=102
196862 On ch=1 n=a4 v=0
196870 On ch=1 n=f5 v=0
196944 On ch=1 n=d5 v=121
196990 On ch=1 n=d5 v=0
197090 On ch=1 n=c3 v=88
197122 On ch=1 n=g3 v=89
197184 On ch=1 n=c3 v=0
197218 On ch=1 n=e5 v=103
197220 On ch=1 n=g5 v=99
197220 On ch=1 n=c5 v=100
197220 On ch=1 n=c6 v=103
197222 On ch=1 n=e4 v=116
197264 Par ch=1 c=64 v=63
197270 Par ch=1 c=64 v=0
197408 Par ch=1 c=64 v=63
197432 Par ch=1 c=64 v=127
197848 On ch=1 n=g3 v=0
197858 On ch=1 n=e5 v=0
197862 On ch=1 n=e4 v=0
197862 On ch=1 n=g5 v=0
197868 On ch=1 n=c5 v=0
197890 On ch=1 n=c6 v=0
198108 Par ch=1 c=64 v=63
198114 Par ch=1 c=64 v=0
198114 Meta TrkEnd
TrkEnd
