MFile 1 2 480
MTrk
0 Tempo 500000
0 TimeSig 4/4 24 8
0 Meta TrkEnd
TrkEnd
MTrk
0 SeqSpec 43 00 01 00
0 Meta TrkName "<Master Volume>"
0 Meta 0x21 00
0 SysEx f0 41 10 42 12 40 00 7f 00 41 f7
0 SysEx f0 41 10 42 12 40 00 04 64 58 f7
192 Meta Text "<Master Reverve>"
192 SysEx f0 41 10 42 12 40 01 30 03 0c f7
192 SysEx f0 41 10 42 12 40 01 33 3c 50 f7
192 SysEx f0 41 10 42 12 40 01 34 3c 4f f7
576 Par ch=1 c=0 v=0
580 Par ch=1 c=32 v=1
584 PrCh ch=1 p=0
642 Par ch=1 c=67 v=127
780 Par ch=1 c=7 v=100
972 Par ch=1 c=11 v=80
1164 Par ch=1 c=10 v=64
1356 Par ch=1 c=1 v=0
1356 Meta Text "<part reverve>"
1356 Par ch=1 c=91 v=80
1374 Par ch=1 c=67 v=0
1452 Par ch=1 c=99 v=1
1456 Par ch=1 c=98 v=32
1460 Par ch=1 c=6 v=62
1464 Par ch=1 c=99 v=1
1468 Par ch=1 c=98 v=33
1472 Par ch=1 c=6 v=54
1476 Par ch=1 c=99 v=1
1480 Par ch=1 c=98 v=99
1484 Par ch=1 c=6 v=62
1488 Par ch=1 c=99 v=1
1492 Par ch=1 c=98 v=100
1496 Par ch=1 c=6 v=60
1500 Par ch=1 c=99 v=1
1504 Par ch=1 c=98 v=102
1508 Par ch=1 c=6 v=70
1578 Par ch=1 c=67 v=127
2472 Par ch=1 c=64 v=63
2516 Par ch=1 c=64 v=127
2800 Par ch=1 c=64 v=63
2850 Par ch=1 c=64 v=0
3386 On ch=1 n=a6 v=45
3860 On ch=1 n=g6 v=37
3898 On ch=1 n=a6 v=0
4306 On ch=1 n=g6 v=0
4776 On ch=1 n=b6 v=57
5210 On ch=1 n=b6 v=0
5216 On ch=1 n=g6 v=42
5690 On ch=1 n=e6 v=34
5694 On ch=1 n=g6 v=0
6134 On ch=1 n=e6 v=0
6650 On ch=1 n=a6 v=55
7098 On ch=1 n=g6 v=40
7126 On ch=1 n=a6 v=0
7574 On ch=1 n=g6 v=0
7990 On ch=1 n=b6 v=62
8414 On ch=1 n=g6 v=64
8428 On ch=1 n=b6 v=0
8848 On ch=1 n=b6 v=62
8940 On ch=1 n=g6 v=0
9264 On ch=1 n=g6 v=52
9316 On ch=1 n=b6 v=0
9688 On ch=1 n=e6 v=40
9760 On ch=1 n=g6 v=0
10140 On ch=1 n=f#6 v=50
10228 On ch=1 n=e6 v=0
10576 On ch=1 n=e6 v=56
11018 On ch=1 n=d6 v=39
11042 On ch=1 n=e6 v=0
11438 On ch=1 n=f#6 v=0
11460 On ch=1 n=d6 v=0
11460 On ch=1 n=g6 v=36
11908 On ch=1 n=f#6 v=52
11926 On ch=1 n=a6 v=65
12002 On ch=1 n=g6 v=0
12356 On ch=1 n=d6 v=50
12386 On ch=1 n=f#6 v=0
12792 On ch=1 n=b5 v=48
12798 On ch=1 n=b6 v=45
12834 On ch=1 n=a6 v=0
12838 On ch=1 n=d6 v=0
13288 On ch=1 n=b5 v=0
13722 On ch=1 n=e6 v=62
14006 On ch=1 n=b6 v=0
14166 On ch=1 n=b6 v=61
14184 On ch=1 n=d6 v=43
14202 On ch=1 n=e6 v=0
14610 On ch=1 n=d6 v=0
14622 On ch=1 n=c#7 v=60
14632 On ch=1 n=b6 v=0
15026 On ch=1 n=f#6 v=72
15036 On ch=1 n=a6 v=52
15064 On ch=1 n=c#7 v=0
15486 On ch=1 n=b6 v=59
15494 On ch=1 n=f#6 v=0
15514 On ch=1 n=d6 v=46
15540 On ch=1 n=a6 v=0
15804 On ch=1 n=a6 v=53
15810 On ch=1 n=b6 v=0
15812 On ch=1 n=d6 v=0
15948 On ch=1 n=f#6 v=63
16094 On ch=1 n=g6 v=66
16138 On ch=1 n=a6 v=0
16198 Par ch=1 c=64 v=63
16276 On ch=1 n=f#6 v=0
16362 Par ch=1 c=64 v=0
16380 On ch=1 n=f#6 v=52
16382 On ch=1 n=d6 v=50
16400 On ch=1 n=g6 v=0
16778 On ch=1 n=b5 v=59
16780 On ch=1 n=d6 v=0
16802 On ch=1 n=a6 v=57
16836 On ch=1 n=f#6 v=0
17236 On ch=1 n=e6 v=59
17288 On ch=1 n=a6 v=0
17630 On ch=1 n=a5 v=66
18062 On ch=1 n=g5 v=54
18068 On ch=1 n=a5 v=0
18446 On ch=1 n=g5 v=0
18482 On ch=1 n=f#6 v=63
18488 On ch=1 n=e6 v=0
18746 On ch=1 n=b5 v=0
18904 On ch=1 n=b5 v=76
18932 On ch=1 n=f#6 v=0
18936 On ch=1 n=d6 v=43
19318 On ch=1 n=g5 v=68
19738 On ch=1 n=g5 v=0
19740 On ch=1 n=d6 v=0
19766 On ch=1 n=e6 v=47
19768 On ch=1 n=e5 v=47
20194 On ch=1 n=e5 v=0
20616 On ch=1 n=b5 v=0
20690 On ch=1 n=b6 v=68
20696 On ch=1 n=a5 v=60
20990 On ch=1 n=e6 v=0
21136 On ch=1 n=e6 v=53
21144 On ch=1 n=g5 v=43
21148 On ch=1 n=a5 v=0
21550 On ch=1 n=g5 v=0
21552 On ch=1 n=f#6 v=67
21576 On ch=1 n=e6 v=0
21942 On ch=1 n=b6 v=0
21952 On ch=1 n=f#6 v=0
21956 On ch=1 n=b5 v=73
21960 On ch=1 n=a6 v=50
21970 On ch=1 n=d6 v=48
22378 On ch=1 n=a6 v=0
22378 On ch=1 n=b5 v=0
22392 On ch=1 n=b6 v=53
22396 On ch=1 n=d6 v=0
22398 On ch=1 n=g5 v=50
22430 On ch=1 n=e6 v=47
22676 On ch=1 n=g5 v=0
22700 On ch=1 n=d6 v=62
22720 On ch=1 n=e6 v=0
22788 Par ch=1 c=64 v=63
22826 On ch=1 n=b5 v=77
22848 Par ch=1 c=64 v=127
22852 On ch=1 n=d6 v=0
22964 On ch=1 n=c6 v=63
22994 On ch=1 n=b5 v=0
23116 On ch=1 n=c6 v=0
23224 Par ch=1 c=64 v=63
23244 On ch=1 n=g5 v=71
23262 On ch=1 n=b5 v=37
23288 Par ch=1 c=64 v=0
23394 On ch=1 n=b6 v=0
23514 Par ch=1 c=64 v=63
23656 On ch=1 n=a6 v=44
23680 On ch=1 n=e5 v=49
23692 On ch=1 n=d6 v=43
23702 On ch=1 n=g5 v=0
23766 On ch=1 n=b5 v=0
23824 Par ch=1 c=64 v=0
24112 On ch=1 n=b5 v=46
24120 On ch=1 n=d5 v=59
24156 On ch=1 n=d6 v=0
24208 On ch=1 n=e5 v=0
24572 On ch=1 n=f#6 v=79
24580 On ch=1 n=a6 v=0
24626 Par ch=1 c=64 v=63
24752 Par ch=1 c=64 v=0
24984 On ch=1 n=g6 v=56
24994 On ch=1 n=c#5 v=80
25014 On ch=1 n=f#6 v=0
25066 On ch=1 n=d5 v=0
25326 Par ch=1 c=64 v=63
25440 Par ch=1 c=64 v=127
25448 On ch=1 n=e6 v=76
25498 On ch=1 n=g6 v=0
25622 On ch=1 n=b5 v=0
25682 On ch=1 n=e6 v=0
25872 On ch=1 n=f#6 v=73
25918 On ch=1 n=a5 v=34
26034 Par ch=1 c=64 v=63
26120 Par ch=1 c=64 v=0
26164 On ch=1 n=e6 v=49
26192 On ch=1 n=f#6 v=0
26448 On ch=1 n=d6 v=66
26466 On ch=1 n=e6 v=0
26720 On ch=1 n=c#5 v=0
26724 On ch=1 n=f#5 v=59
26734 On ch=1 n=c#6 v=68
26740 On ch=1 n=d6 v=0
27180 On ch=1 n=d6 v=63
27230 On ch=1 n=c#6 v=0
27242 Par ch=1 c=64 v=63
27324 Par ch=1 c=64 v=0
27598 On ch=1 n=b5 v=59
27614 On ch=1 n=d6 v=0
27624 On ch=1 n=b4 v=38
27648 On ch=1 n=f#5 v=0
27942 On ch=1 n=a5 v=0
28038 On ch=1 n=f#5 v=59
28354 Par ch=1 c=64 v=63
28474 On ch=1 n=b4 v=0
28486 On ch=1 n=g#5 v=69
28492 Par ch=1 c=64 v=127
28526 On ch=1 n=f#5 v=0
28890 On ch=1 n=g#5 v=0
28894 On ch=1 n=e5 v=60
28896 Par ch=1 c=64 v=63
28922 Par ch=1 c=64 v=0
28924 On ch=1 n=d5 v=52
29006 Par ch=1 c=64 v=63
29048 Par ch=1 c=64 v=127
29202 On ch=1 n=b5 v=0
29206 On ch=1 n=e5 v=0
29222 On ch=1 n=d5 v=0
29344 On ch=1 n=b5 v=69
29372 On ch=1 n=c5 v=33
29528 Par ch=1 c=64 v=63
29584 Par ch=1 c=64 v=0
29656 On ch=1 n=a5 v=64
29666 On ch=1 n=b5 v=0
29720 Par ch=1 c=64 v=63
29764 Par ch=1 c=64 v=127
29780 On ch=1 n=e6 v=73
29926 On ch=1 n=c5 v=0
29928 On ch=1 n=g5 v=65
29986 On ch=1 n=a5 v=0
30096 On ch=1 n=e6 v=0
30208 Par ch=1 c=64 v=63
30230 On ch=1 n=f#5 v=55
30232 Par ch=1 c=64 v=0
30236 On ch=1 n=f#6 v=69
30262 On ch=1 n=d5 v=45
30314 On ch=1 n=g5 v=0
30332 Par ch=1 c=64 v=63
30372 Par ch=1 c=64 v=127
30492 On ch=1 n=f#5 v=0
30658 On ch=1 n=f#6 v=0
30704 On ch=1 n=d6 v=49
30706 On ch=1 n=a5 v=32
30708 Par ch=1 c=64 v=63
30714 On ch=1 n=f#5 v=53
30728 On ch=1 n=d5 v=0
30746 Par ch=1 c=64 v=0
31206 On ch=1 n=e6 v=67
31218 On ch=1 n=d6 v=0
31224 On ch=1 n=e5 v=32
31246 On ch=1 n=f#5 v=0
31404 On ch=1 n=a5 v=0
31686 On ch=1 n=a5 v=72
31802 Par ch=1 c=64 v=63
31896 Par ch=1 c=64 v=127
31928 Par ch=1 c=64 v=63
32058 Par ch=1 c=64 v=0
32126 On ch=1 n=g5 v=49
32148 On ch=1 n=c5 v=30
32156 On ch=1 n=a5 v=0
32222 On ch=1 n=e5 v=0
32420 Par ch=1 c=64 v=63
32512 Par ch=1 c=64 v=127
32518 On ch=1 n=e6 v=0
32540 On ch=1 n=d#6 v=66
32548 On ch=1 n=c5 v=0
32690 On ch=1 n=g5 v=0
32774 On ch=1 n=d#6 v=0
32982 On ch=1 n=g4 v=49
32990 On ch=1 n=d6 v=54
32990 On ch=1 n=b5 v=65
33062 Par ch=1 c=64 v=63
33118 Par ch=1 c=64 v=0
33418 On ch=1 n=g5 v=52
33440 On ch=1 n=b5 v=0
33872 On ch=1 n=e5 v=48
33882 On ch=1 n=a4 v=23
33906 On ch=1 n=g5 v=0
33944 On ch=1 n=g4 v=0
34288 On ch=1 n=d6 v=0
34288 On ch=1 n=c#6 v=67
34356 On ch=1 n=e5 v=0
34358 Par ch=1 c=64 v=63
34440 Par ch=1 c=64 v=127
34480 On ch=1 n=a4 v=0
34620 On ch=1 n=c#6 v=0
34678 Par ch=1 c=64 v=63
34720 On ch=1 n=c6 v=66
34722 On ch=1 n=a5 v=59
34798 Par ch=1 c=64 v=0
35158 On ch=1 n=a5 v=0
35164 On ch=1 n=e5 v=32
35172 On ch=1 n=g5 v=45
35562 On ch=1 n=g5 v=0
35584 On ch=1 n=e5 v=0
35592 On ch=1 n=f#5 v=49
35598 On ch=1 n=d6 v=57
35612 On ch=1 n=c6 v=0
36016 On ch=1 n=f#5 v=0
36034 On ch=1 n=b5 v=73
36042 On ch=1 n=d5 v=37
36132 Par ch=1 c=64 v=63
36176 Par ch=1 c=64 v=127
36384 On ch=1 n=b5 v=0
36446 On ch=1 n=d6 v=0
36486 On ch=1 n=g5 v=68
36496 On ch=1 n=d5 v=0
36502 On ch=1 n=e5 v=33
36512 On ch=1 n=b5 v=46
36548 Par ch=1 c=64 v=63
36606 Par ch=1 c=64 v=0
36722 Par ch=1 c=64 v=63
36774 Par ch=1 c=64 v=127
36778 On ch=1 n=d5 v=62
36812 On ch=1 n=b5 v=0
36826 On ch=1 n=e5 v=0
36870 On ch=1 n=g5 v=0
36920 Par ch=1 c=64 v=63
36944 On ch=1 n=b5 v=83
36996 Par ch=1 c=64 v=0
37092 On ch=1 n=c5 v=72
37124 On ch=1 n=d5 v=0
37396 On ch=1 n=g5 v=65
37400 On ch=1 n=b4 v=64
37420 On ch=1 n=c5 v=0
37438 On ch=1 n=b5 v=0
37860 On ch=1 n=b4 v=0
37860 On ch=1 n=e5 v=49
37868 On ch=1 n=g5 v=0
37870 On ch=1 n=d5 v=30
38096 Par ch=1 c=64 v=63
38132 Par ch=1 c=64 v=127
38304 On ch=1 n=e5 v=0
38368 On ch=1 n=f#5 v=54
38392 On ch=1 n=b4 v=41
38410 Par ch=1 c=64 v=63
38430 On ch=1 n=d5 v=0
38468 Par ch=1 c=64 v=0
38852 On ch=1 n=e6 v=65
39318 On ch=1 n=d6 v=58
39344 On ch=1 n=e6 v=0
39460 On ch=1 n=b4 v=0
39716 On ch=1 n=a#5 v=70
39884 Par ch=1 c=64 v=63
39996 Par ch=1 c=64 v=127
40044 On ch=1 n=d6 v=0
40142 On ch=1 n=a#5 v=0
40148 Par ch=1 c=64 v=63
40152 On ch=1 n=f#6 v=64
40180 On ch=1 n=a5 v=41
40236 Par ch=1 c=64 v=0
40524 Par ch=1 c=64 v=63
40568 Par ch=1 c=64 v=127
40592 On ch=1 n=f#6 v=0
40624 On ch=1 n=d6 v=64
40706 On ch=1 n=a5 v=0
40720 On ch=1 n=d6 v=0
41080 On ch=1 n=b5 v=65
41082 On ch=1 n=e5 v=39
41124 Par ch=1 c=64 v=63
41162 Par ch=1 c=64 v=0
41172 On ch=1 n=f#5 v=0
41528 On ch=1 n=g#5 v=82
41612 Par ch=1 c=64 v=63
41644 Par ch=1 c=64 v=127
41656 On ch=1 n=b5 v=0
41984 On ch=1 n=g5 v=57
41992 Par ch=1 c=64 v=63
41994 On ch=1 n=g#5 v=0
41996 On ch=1 n=e6 v=81
42016 Par ch=1 c=64 v=0
42112 Par ch=1 c=64 v=63
42158 Par ch=1 c=64 v=127
42192 On ch=1 n=e5 v=0
42378 On ch=1 n=e6 v=0
42406 On ch=1 n=b5 v=84
42410 On ch=1 n=d6 v=82
42436 Par ch=1 c=64 v=63
42476 Par ch=1 c=64 v=0
42822 On ch=1 n=f#5 v=80
42832 On ch=1 n=b5 v=0
42836 On ch=1 n=c#6 v=89
42874 On ch=1 n=g5 v=0
42922 Par ch=1 c=64 v=63
42948 On ch=1 n=d6 v=0
42956 Par ch=1 c=64 v=127
43252 Par ch=1 c=64 v=63
43258 On ch=1 n=f#6 v=88
43278 On ch=1 n=c#6 v=0
43280 On ch=1 n=a5 v=57
43288 Par ch=1 c=64 v=0
43398 Par ch=1 c=64 v=63
43432 Par ch=1 c=64 v=127
43696 On ch=1 n=f#5 v=0
43700 On ch=1 n=f#6 v=0
43702 On ch=1 n=d6 v=72
43706 On ch=1 n=b5 v=74
43770 On ch=1 n=a5 v=0
43788 Par ch=1 c=64 v=63
43830 Par ch=1 c=64 v=0
43948 Par ch=1 c=64 v=63
43994 Par ch=1 c=64 v=127
44042 On ch=1 n=a5 v=65
44136 On ch=1 n=b5 v=0
44160 On ch=1 n=d6 v=0
44170 On ch=1 n=f#6 v=80
44246 Par ch=1 c=64 v=63
44314 Par ch=1 c=64 v=127
44360 On ch=1 n=g5 v=60
44404 On ch=1 n=a5 v=0
44520 On ch=1 n=f#6 v=0
44624 Par ch=1 c=64 v=63
44658 On ch=1 n=d6 v=64
44664 On ch=1 n=f#5 v=55
44664 Par ch=1 c=64 v=0
44696 Par ch=1 c=64 v=63
44706 On ch=1 n=g5 v=0
44738 Par ch=1 c=64 v=127
44864 On ch=1 n=f#5 v=0
45068 On ch=1 n=d6 v=0
45120 On ch=1 n=b5 v=61
45132 On ch=1 n=a5 v=37
45132 On ch=1 n=b4 v=48
45146 Par ch=1 c=64 v=63
45182 Par ch=1 c=64 v=0
45228 Par ch=1 c=64 v=63
45282 Par ch=1 c=64 v=127
45384 On ch=1 n=a5 v=0
45670 On ch=1 n=c5 v=71
45684 Par ch=1 c=64 v=63
45694 On ch=1 n=e5 v=36
45710 On ch=1 n=b4 v=0
45724 Par ch=1 c=64 v=0
45954 On ch=1 n=b5 v=0
46044 Par ch=1 c=64 v=63
46070 Par ch=1 c=64 v=127
46154 On ch=1 n=a5 v=64
46532 On ch=1 n=c5 v=0
46542 On ch=1 n=b5 v=75
46562 On ch=1 n=d5 v=73
46586 On ch=1 n=a5 v=0
46656 Par ch=1 c=64 v=63
46716 Par ch=1 c=64 v=0
46936 Par ch=1 c=64 v=63
46956 On ch=1 n=e5 v=0
46980 Par ch=1 c=64 v=127
47000 On ch=1 n=f#5 v=64
47392 On ch=1 n=d5 v=0
47452 On ch=1 n=f#5 v=0
47460 On ch=1 n=e5 v=74
47466 On ch=1 n=g5 v=60
47522 Par ch=1 c=64 v=63
47564 Par ch=1 c=64 v=0
47692 On ch=1 n=b5 v=0
47714 Par ch=1 c=64 v=63
47760 Par ch=1 c=64 v=127
47794 On ch=1 n=a5 v=68
48084 On ch=1 n=b5 v=82
48086 Par ch=1 c=64 v=63
48146 On ch=1 n=a5 v=0
48234 Par ch=1 c=64 v=127
48408 Par ch=1 c=64 v=63
48412 On ch=1 n=c6 v=87
48422 On ch=1 n=g5 v=0
48424 On ch=1 n=a5 v=57
48446 On ch=1 n=b5 v=0
48548 Par ch=1 c=64 v=127
48776 On ch=1 n=a5 v=0
48792 On ch=1 n=e5 v=0
48846 Par ch=1 c=64 v=63
48850 On ch=1 n=g5 v=51
48852 On ch=1 n=c6 v=0
48852 On ch=1 n=b5 v=67
48854 On ch=1 n=e6 v=66
48910 Par ch=1 c=64 v=0
49288 On ch=1 n=b5 v=0
49302 On ch=1 n=a5 v=44
49314 On ch=1 n=f#5 v=60
49374 On ch=1 n=g5 v=0
49716 On ch=1 n=e6 v=0
49734 On ch=1 n=d6 v=81
50132 On ch=1 n=g5 v=76
50134 On ch=1 n=e6 v=77
50174 On ch=1 n=d6 v=0
50204 On ch=1 n=f#5 v=0
50530 On ch=1 n=a5 v=0
50556 On ch=1 n=b5 v=83
50990 On ch=1 n=a5 v=83
51010 On ch=1 n=c6 v=72
51028 On ch=1 n=b5 v=0
51076 On ch=1 n=g5 v=0
51180 On ch=1 n=e6 v=0
51312 On ch=1 n=d6 v=89
51588 On ch=1 n=e6 v=86
51638 On ch=1 n=d6 v=0
51810 On ch=1 n=c6 v=0
51906 On ch=1 n=f#6 v=88
51924 On ch=1 n=d6 v=58
51926 On ch=1 n=e6 v=0
52346 On ch=1 n=d6 v=0
52390 On ch=1 n=e6 v=49
52392 On ch=1 n=f#6 v=0
52400 On ch=1 n=c6 v=48
52402 On ch=1 n=g6 v=64
52468 On ch=1 n=a5 v=0
52962 On ch=1 n=e5 v=51
52964 On ch=1 n=c6 v=0
52982 On ch=1 n=g5 v=26
53032 On ch=1 n=e6 v=0
53036 Par ch=1 c=64 v=63
53064 Par ch=1 c=64 v=127
53080 On ch=1 n=g6 v=0
53418 On ch=1 n=c6 v=74
53790 On ch=1 n=c6 v=0
53828 On ch=1 n=b5 v=65
53850 On ch=1 n=f#5 v=53
53850 On ch=1 n=d5 v=44
53866 On ch=1 n=e5 v=0
53866 Par ch=1 c=64 v=63
53888 On ch=1 n=g5 v=0
53912 Par ch=1 c=64 v=0
54160 On ch=1 n=b5 v=0
54250 On ch=1 n=c5 v=67
54282 On ch=1 n=d5 v=0
54702 On ch=1 n=b4 v=60
54712 On ch=1 n=c5 v=0
54722 On ch=1 n=d6 v=57
54758 Par ch=1 c=64 v=63
55134 On ch=1 n=b5 v=72
55156 On ch=1 n=d6 v=0
55242 Par ch=1 c=64 v=127
55388 On ch=1 n=f#5 v=0
55566 On ch=1 n=g5 v=76
55578 On ch=1 n=b4 v=0
55578 On ch=1 n=e5 v=66
55600 On ch=1 n=b5 v=0
55604 On ch=1 n=c5 v=43
55642 Par ch=1 c=64 v=63
55714 Par ch=1 c=64 v=0
55944 On ch=1 n=b4 v=76
55980 On ch=1 n=c5 v=0
56008 On ch=1 n=g5 v=0
56322 Par ch=1 c=64 v=63
56410 On ch=1 n=c6 v=70
56412 On ch=1 n=a4 v=37
56490 On ch=1 n=b4 v=0
56740 On ch=1 n=e5 v=0
56822 On ch=1 n=b5 v=74
56832 On ch=1 n=g5 v=59
56834 On ch=1 n=c6 v=0
57126 Par ch=1 c=64 v=0
57218 On ch=1 n=a4 v=0
57270 On ch=1 n=a5 v=68
57286 Par ch=1 c=64 v=63
57296 On ch=1 n=d5 v=71
57298 On ch=1 n=g5 v=0
57308 On ch=1 n=b5 v=0
57370 Par ch=1 c=64 v=127
57722 Par ch=1 c=64 v=63
57734 On ch=1 n=f#5 v=76
57740 On ch=1 n=d6 v=73
57756 Par ch=1 c=64 v=0
57776 On ch=1 n=a5 v=0
57848 Par ch=1 c=64 v=63
57898 Par ch=1 c=64 v=127
58008 On ch=1 n=d6 v=0
58058 On ch=1 n=f#5 v=0
58124 On ch=1 n=d5 v=0
58132 Par ch=1 c=64 v=63
58138 On ch=1 n=g4 v=50
58150 On ch=1 n=b5 v=70
58162 On ch=1 n=g5 v=55
58166 Par ch=1 c=64 v=0
58238 Par ch=1 c=64 v=63
58284 Par ch=1 c=64 v=127
58470 On ch=1 n=f#5 v=63
58574 On ch=1 n=g5 v=0
58604 On ch=1 n=f#5 v=0
58620 On ch=1 n=d6 v=62
58644 On ch=1 n=b5 v=0
58772 On ch=1 n=g4 v=0
58780 On ch=1 n=e5 v=67
58910 On ch=1 n=e5 v=0
59066 On ch=1 n=d6 v=0
59112 On ch=1 n=b5 v=65
59120 On ch=1 n=d5 v=57
59126 Par ch=1 c=64 v=63
59148 On ch=1 n=e4 v=35
59150 Par ch=1 c=64 v=0
59206 Par ch=1 c=64 v=63
59258 Par ch=1 c=64 v=127
59422 On ch=1 n=b5 v=0
59524 On ch=1 n=d5 v=0
59584 On ch=1 n=g5 v=53
59598 On ch=1 n=f#5 v=50
59748 On ch=1 n=f#5 v=0
59782 On ch=1 n=g5 v=0
60132 On ch=1 n=a5 v=47
60134 On ch=1 n=c#5 v=43
60140 On ch=1 n=f#4 v=52
60184 Par ch=1 c=64 v=63
60200 Par ch=1 c=64 v=0
60218 On ch=1 n=e4 v=0
60278 Par ch=1 c=64 v=63
60310 Par ch=1 c=64 v=127
60344 On ch=1 n=c#5 v=0
60404 On ch=1 n=f#4 v=0
60656 On ch=1 n=g5 v=78
61060 On ch=1 n=a5 v=0
61068 On ch=1 n=f#5 v=77
61132 On ch=1 n=g5 v=0
61410 Par ch=1 c=64 v=63
61492 Par ch=1 c=64 v=0
61498 On ch=1 n=d6 v=72
61584 On ch=1 n=f#5 v=0
61944 On ch=1 n=a5 v=68
61960 On ch=1 n=f#6 v=70
61974 On ch=1 n=d6 v=0
61986 On ch=1 n=c#6 v=69
62386 On ch=1 n=f#5 v=68
62482 On ch=1 n=a5 v=0
62842 On ch=1 n=d5 v=63
62858 On ch=1 n=f#5 v=0
63266 On ch=1 n=c#6 v=0
63272 On ch=1 n=d6 v=57
63410 On ch=1 n=d5 v=0
63706 On ch=1 n=g5 v=78
63722 On ch=1 n=b5 v=41
63768 On ch=1 n=d6 v=0
64136 On ch=1 n=f#5 v=70
64140 On ch=1 n=d6 v=53
64144 On ch=1 n=g5 v=0
64148 On ch=1 n=b5 v=0
64536 On ch=1 n=f#6 v=0
64562 On ch=1 n=e6 v=71
64634 On ch=1 n=f#5 v=0
64980 On ch=1 n=a5 v=63
65012 Par ch=1 c=64 v=63
65018 On ch=1 n=c#6 v=72
65020 On ch=1 n=d6 v=0
65094 Par ch=1 c=64 v=127
65242 On ch=1 n=e6 v=0
65336 On ch=1 n=c#6 v=0
65478 On ch=1 n=f#5 v=71
65518 On ch=1 n=a5 v=0
65520 On ch=1 n=a6 v=88
65530 On ch=1 n=d6 v=62
65590 Par ch=1 c=64 v=63
65704 Par ch=1 c=64 v=127
65830 On ch=1 n=c#6 v=81
65862 On ch=1 n=d6 v=0
65960 On ch=1 n=a5 v=59
66028 On ch=1 n=f#5 v=0
66084 On ch=1 n=b5 v=87
66090 On ch=1 n=a5 v=0
66140 On ch=1 n=c#6 v=0
66212 On ch=1 n=b5 v=0
66354 On ch=1 n=f#5 v=79
66372 On ch=1 n=a5 v=68
66424 Par ch=1 c=64 v=63
66446 Par ch=1 c=64 v=0
66552 Par ch=1 c=64 v=63
66582 Par ch=1 c=64 v=127
66654 On ch=1 n=a5 v=0
66674 On ch=1 n=a6 v=0
66798 On ch=1 n=d5 v=57
66800 On ch=1 n=a6 v=96
66812 On ch=1 n=b5 v=71
66878 Par ch=1 c=64 v=63
66882 On ch=1 n=f#5 v=0
66906 Par ch=1 c=64 v=0
66982 Par ch=1 c=64 v=63
67024 Par ch=1 c=64 v=127
67140 On ch=1 n=b5 v=0
67320 On ch=1 n=c6 v=85
67340 On ch=1 n=e5 v=75
67384 Par ch=1 c=64 v=63
67396 On ch=1 n=d5 v=0
67430 Par ch=1 c=64 v=0
67596 Par ch=1 c=64 v=63
67646 Par ch=1 c=64 v=127
67826 On ch=1 n=g6 v=92
67874 On ch=1 n=a6 v=0
68252 On ch=1 n=a6 v=90
68260 On ch=1 n=d#5 v=83
68326 On ch=1 n=g6 v=0
68328 On ch=1 n=e5 v=0
68374 Par ch=1 c=64 v=63
68406 Par ch=1 c=64 v=0
68544 Par ch=1 c=64 v=63
68584 Par ch=1 c=64 v=127
68668 On ch=1 n=f#6 v=96
68706 On ch=1 n=a6 v=0
69020 Par ch=1 c=64 v=63
69050 Par ch=1 c=64 v=0
69060 On ch=1 n=e5 v=63
69062 On ch=1 n=g6 v=83
69110 On ch=1 n=d#5 v=0
69114 On ch=1 n=f#6 v=0
69168 Par ch=1 c=64 v=63
69212 Par ch=1 c=64 v=127
69368 On ch=1 n=f#6 v=90
69426 On ch=1 n=g6 v=0
69492 On ch=1 n=g5 v=71
69580 On ch=1 n=c6 v=0
69632 On ch=1 n=e5 v=0
69642 On ch=1 n=e6 v=89
69694 On ch=1 n=f#6 v=0
69860 On ch=1 n=f#5 v=61
69898 On ch=1 n=b4 v=50
69906 On ch=1 n=d6 v=83
69922 Par ch=1 c=64 v=63
69952 Par ch=1 c=64 v=0
69966 On ch=1 n=g5 v=0
69972 On ch=1 n=e6 v=0
70104 Par ch=1 c=64 v=63
70138 Par ch=1 c=64 v=127
70356 On ch=1 n=a5 v=70
70366 On ch=1 n=d6 v=0
70450 On ch=1 n=f#5 v=0
70800 On ch=1 n=e6 v=65
70802 On ch=1 n=g#5 v=40
70822 On ch=1 n=a5 v=0
70874 Par ch=1 c=64 v=63
70916 Par ch=1 c=64 v=0
71206 On ch=1 n=d5 v=66
71234 On ch=1 n=b4 v=0
71244 Par ch=1 c=64 v=63
71274 Par ch=1 c=64 v=127
71294 On ch=1 n=e6 v=0
71512 On ch=1 n=g#5 v=0
71640 On ch=1 n=b5 v=60
71654 On ch=1 n=d5 v=0
71654 On ch=1 n=g5 v=41
71656 On ch=1 n=e5 v=50
71738 Par ch=1 c=64 v=63
71768 Par ch=1 c=64 v=0
72060 On ch=1 n=b4 v=53
72066 On ch=1 n=d6 v=73
72086 Par ch=1 c=64 v=63
72106 Par ch=1 c=64 v=127
72128 On ch=1 n=b5 v=0
72130 On ch=1 n=e5 v=0
72272 On ch=1 n=d6 v=0
72296 On ch=1 n=g5 v=0
72492 On ch=1 n=a5 v=77
72510 On ch=1 n=b4 v=0
72514 On ch=1 n=e5 v=46
72518 On ch=1 n=c5 v=40
72658 Par ch=1 c=64 v=63
72724 Par ch=1 c=64 v=0
72820 On ch=1 n=b4 v=68
72876 On ch=1 n=c5 v=0
73080 Par ch=1 c=64 v=63
73120 On ch=1 n=a4 v=65
73146 Par ch=1 c=64 v=127
73172 On ch=1 n=b4 v=0
73248 On ch=1 n=e5 v=0
73452 On ch=1 n=f#5 v=76
73460 On ch=1 n=d5 v=49
73466 On ch=1 n=b4 v=55
73488 Par ch=1 c=64 v=63
73504 On ch=1 n=a5 v=0
73506 On ch=1 n=a4 v=0
73548 Par ch=1 c=64 v=0
73934 On ch=1 n=a5 v=54
74032 On ch=1 n=f#5 v=0
74312 On ch=1 n=d5 v=0
74352 On ch=1 n=e5 v=62
74362 On ch=1 n=c5 v=44
74396 On ch=1 n=b4 v=0
74654 On ch=1 n=a5 v=0
74762 On ch=1 n=g5 v=60
74778 Par ch=1 c=64 v=63
74804 Par ch=1 c=64 v=127
74920 On ch=1 n=e5 v=0
75190 On ch=1 n=g5 v=0
75198 On ch=1 n=a5 v=66
75200 On ch=1 n=d#5 v=63
75268 Par ch=1 c=64 v=63
75316 Par ch=1 c=64 v=0
75634 On ch=1 n=f#5 v=79
75650 On ch=1 n=a5 v=0
76024 On ch=1 n=c5 v=0
76096 On ch=1 n=b5 v=71
76126 On ch=1 n=g4 v=41
76170 Par ch=1 c=64 v=63
76180 Par ch=1 c=64 v=127
76236 On ch=1 n=f#5 v=0
76364 On ch=1 n=g4 v=0
76540 On ch=1 n=d5 v=41
76614 On ch=1 n=d#5 v=0
76710 On ch=1 n=b5 v=0
77032 On ch=1 n=a#5 v=66
77094 On ch=1 n=e5 v=25
77186 On ch=1 n=d5 v=0
77204 Par ch=1 c=64 v=63
77554 On ch=1 n=c#5 v=41
77568 Par ch=1 c=64 v=127
78046 On ch=1 n=a#5 v=0
78048 On ch=1 n=e5 v=0
78098 On ch=1 n=c#5 v=0
78206 On ch=1 n=f5 v=54
78208 On ch=1 n=a5 v=58
78236 Par ch=1 c=67 v=127
78806 On ch=1 n=a4 v=56
78908 Par ch=1 c=64 v=63
78918 Par ch=1 c=64 v=127
78932 On ch=1 n=f5 v=0
79312 On ch=1 n=b4 v=74
79326 Par ch=1 c=64 v=63
79332 On ch=1 n=d4 v=46
79336 Par ch=1 c=64 v=0
79362 On ch=1 n=a4 v=0
79508 On ch=1 n=a5 v=0
79612 On ch=1 n=d4 v=0
79792 On ch=1 n=g5 v=45
79826 On ch=1 n=b4 v=0
80214 On ch=1 n=g4 v=69
80230 On ch=1 n=e5 v=61
80232 On ch=1 n=e4 v=51
80276 On ch=1 n=g5 v=0
80662 On ch=1 n=b4 v=96
80710 On ch=1 n=g4 v=0
80974 Par ch=1 c=64 v=63
81076 Par ch=1 c=64 v=127
81088 On ch=1 n=d5 v=97
81112 On ch=1 n=f4 v=70
81114 On ch=1 n=e4 v=0
81122 On ch=1 n=e5 v=0
81152 On ch=1 n=b4 v=0
81206 Par ch=1 c=64 v=63
81248 Par ch=1 c=64 v=0
81546 On ch=1 n=d5 v=0
81550 On ch=1 n=a5 v=71
81944 On ch=1 n=f4 v=0
81998 On ch=1 n=a4 v=86
82018 On ch=1 n=f5 v=73
82466 On ch=1 n=b4 v=75
82576 On ch=1 n=f5 v=0
82852 On ch=1 n=e5 v=97
82868 On ch=1 n=a4 v=0
82930 On ch=1 n=b4 v=0
83234 On ch=1 n=g4 v=60
83250 On ch=1 n=b5 v=91
83300 On ch=1 n=a5 v=0
83524 On ch=1 n=e5 v=0
83682 On ch=1 n=b4 v=80
83696 On ch=1 n=g5 v=85
83714 On ch=1 n=d5 v=67
83728 On ch=1 n=b5 v=0
83758 On ch=1 n=g4 v=0
84116 On ch=1 n=g4 v=89
84316 On ch=1 n=b4 v=0
84448 On ch=1 n=d5 v=0
84544 On ch=1 n=f5 v=90
84546 On ch=1 n=b4 v=82
84562 On ch=1 n=g#4 v=80
84616 On ch=1 n=g4 v=0
84640 On ch=1 n=g5 v=0
85036 On ch=1 n=d5 v=84
85438 On ch=1 n=d5 v=0
85464 On ch=1 n=g#4 v=0
85534 On ch=1 n=f5 v=0
85538 On ch=1 n=d5 v=55
85560 On ch=1 n=e5 v=57
85580 On ch=1 n=a4 v=21
85584 On ch=1 n=b4 v=0
85740 Par ch=1 c=64 v=63
85758 Par ch=1 c=64 v=127
85966 On ch=1 n=e5 v=0
86006 On ch=1 n=d6 v=79
86084 On ch=1 n=d5 v=0
86354 On ch=1 n=a4 v=0
86460 On ch=1 n=e6 v=85
86468 On ch=1 n=a5 v=60
86476 On ch=1 n=c5 v=68
86480 On ch=1 n=d6 v=0
86540 Par ch=1 c=64 v=63
86558 Par ch=1 c=64 v=0
86870 On ch=1 n=b4 v=87
86940 On ch=1 n=c5 v=0
86944 Par ch=1 c=64 v=63
86972 Par ch=1 c=64 v=127
87252 On ch=1 n=e6 v=0
87278 On ch=1 n=a4 v=86
87294 On ch=1 n=c6 v=91
87310 Par ch=1 c=64 v=63
87332 Par ch=1 c=64 v=0
87342 On ch=1 n=b4 v=0
87480 Par ch=1 c=64 v=63
87500 Par ch=1 c=64 v=127
87534 On ch=1 n=a5 v=0
87676 On ch=1 n=g5 v=81
87688 On ch=1 n=e6 v=106
87716 On ch=1 n=c6 v=0
87724 Par ch=1 c=64 v=63
87746 Par ch=1 c=64 v=0
87822 Par ch=1 c=64 v=63
87856 Par ch=1 c=64 v=127
88120 On ch=1 n=f#5 v=70
88140 On ch=1 n=g6 v=94
88152 On ch=1 n=c6 v=86
88166 On ch=1 n=g5 v=0
88180 On ch=1 n=a4 v=0
88188 Par ch=1 c=64 v=63
88212 On ch=1 n=e6 v=0
88222 Par ch=1 c=64 v=0
88550 On ch=1 n=e5 v=63
88582 On ch=1 n=f#5 v=0
88686 On ch=1 n=g6 v=0
88916 On ch=1 n=c6 v=0
88942 On ch=1 n=f#5 v=76
88950 On ch=1 n=d6 v=97
88964 On ch=1 n=a5 v=73
89012 On ch=1 n=e5 v=0
89368 On ch=1 n=e6 v=106
89426 On ch=1 n=d6 v=0
89696 Par ch=1 c=64 v=63
89700 On ch=1 n=a5 v=0
89722 On ch=1 n=g5 v=99
89732 Par ch=1 c=64 v=127
89754 On ch=1 n=f#5 v=0
89756 On ch=1 n=e6 v=0
90138 On ch=1 n=c6 v=113
90158 On ch=1 n=b5 v=96
90264 Par ch=1 c=64 v=63
90308 Par ch=1 c=64 v=0
90488 On ch=1 n=b5 v=0
90576 On ch=1 n=a5 v=86
90608 On ch=1 n=e6 v=104
90632 Par ch=1 c=64 v=63
90634 On ch=1 n=g5 v=0
90654 Par ch=1 c=64 v=127
90816 On ch=1 n=c6 v=0
90940 On ch=1 n=e6 v=0
91070 On ch=1 n=c6 v=102
91468 On ch=1 n=g5 v=78
91476 On ch=1 n=e6 v=113
91508 On ch=1 n=a5 v=0
91768 On ch=1 n=c6 v=0
91872 On ch=1 n=g6 v=108
91878 On ch=1 n=b5 v=87
91888 On ch=1 n=d6 v=87
91930 On ch=1 n=e6 v=0
91952 Par ch=1 c=64 v=63
91976 Par ch=1 c=64 v=0
92000 On ch=1 n=g5 v=0
92016 Par ch=1 c=64 v=63
92072 Par ch=1 c=64 v=127
92170 On ch=1 n=d6 v=0
92248 On ch=1 n=g6 v=0
92436 On ch=1 n=a5 v=83
92480 On ch=1 n=c7 v=106
92498 On ch=1 n=e6 v=80
92508 On ch=1 n=b5 v=0
92568 Par ch=1 c=64 v=63
92592 Par ch=1 c=64 v=0
92702 Par ch=1 c=64 v=63
92728 Par ch=1 c=64 v=127
92926 On ch=1 n=c6 v=93
93294 On ch=1 n=g6 v=98
93304 On ch=1 n=b5 v=97
93348 On ch=1 n=c7 v=0
93372 Par ch=1 c=64 v=63
93384 On ch=1 n=c6 v=0
93390 On ch=1 n=a5 v=0
93404 Par ch=1 c=64 v=0
93470 Par ch=1 c=64 v=63
93510 Par ch=1 c=64 v=127
93676 On ch=1 n=d6 v=101
93762 On ch=1 n=b5 v=0
94100 On ch=1 n=c6 v=103
94116 On ch=1 n=a6 v=96
94176 Par ch=1 c=64 v=63
94184 On ch=1 n=d6 v=0
94186 On ch=1 n=g6 v=0
94196 Par ch=1 c=64 v=0
94222 On ch=1 n=e6 v=0
94304 Par ch=1 c=64 v=63
94322 Par ch=1 c=64 v=127
94420 On ch=1 n=d6 v=109
94504 On ch=1 n=c6 v=0
94674 On ch=1 n=e6 v=106
94698 On ch=1 n=d6 v=0
94794 On ch=1 n=e6 v=0
94990 On ch=1 n=f#6 v=101
94996 On ch=1 n=b5 v=82
95090 Par ch=1 c=64 v=63
95102 Par ch=1 c=64 v=0
95204 Par ch=1 c=64 v=63
95224 Par ch=1 c=64 v=127
95476 On ch=1 n=d6 v=72
95482 On ch=1 n=f#6 v=0
95724 On ch=1 n=b5 v=0
95984 On ch=1 n=e5 v=87
96124 Par ch=1 c=64 v=63
96144 Par ch=1 c=64 v=0
96230 Par ch=1 c=64 v=63
96260 Par ch=1 c=64 v=127
96336 On ch=1 n=a6 v=0
96414 On ch=1 n=a6 v=116
96830 On ch=1 n=g5 v=77
96858 On ch=1 n=b6 v=97
96866 On ch=1 n=e5 v=0
96932 On ch=1 n=a6 v=0
96960 Par ch=1 c=64 v=63
96978 Par ch=1 c=64 v=0
97062 Par ch=1 c=64 v=63
97092 Par ch=1 c=64 v=127
97242 On ch=1 n=f#6 v=98
97286 On ch=1 n=b6 v=0
97412 On ch=1 n=d6 v=0
97622 On ch=1 n=f#6 v=0
97682 On ch=1 n=g6 v=80
97690 On ch=1 n=c6 v=59
97700 On ch=1 n=a5 v=51
97776 Par ch=1 c=64 v=63
97794 Par ch=1 c=64 v=0
97820 On ch=1 n=g5 v=0
97922 Par ch=1 c=64 v=63
97952 Par ch=1 c=64 v=127
98002 On ch=1 n=f#6 v=87
98086 On ch=1 n=g6 v=0
98274 On ch=1 n=e6 v=89
98352 On ch=1 n=f#6 v=0
98582 On ch=1 n=d6 v=76
98594 On ch=1 n=b5 v=63
98610 On ch=1 n=e6 v=0
98626 Par ch=1 c=64 v=63
98642 Par ch=1 c=64 v=0
98666 On ch=1 n=c6 v=0
98682 On ch=1 n=a5 v=0
98748 Par ch=1 c=64 v=63
98768 Par ch=1 c=64 v=127
98878 On ch=1 n=d6 v=0
99056 On ch=1 n=f#6 v=90
99080 On ch=1 n=g5 v=51
99330 On ch=1 n=f#6 v=0
99372 On ch=1 n=b5 v=0
99586 On ch=1 n=c5 v=79
99594 On ch=1 n=e6 v=69
99726 Par ch=1 c=64 v=63
99756 Par ch=1 c=64 v=0
100020 On ch=1 n=e5 v=88
100226 Par ch=1 c=64 v=63
100256 Par ch=1 c=64 v=127
100418 On ch=1 n=b5 v=92
100422 On ch=1 n=d5 v=75
100434 On ch=1 n=c5 v=0
100450 On ch=1 n=e6 v=0
100490 On ch=1 n=e5 v=0
100574 Par ch=1 c=64 v=63
100618 Par ch=1 c=64 v=0
100818 On ch=1 n=f#5 v=86
100898 On ch=1 n=d5 v=0
101234 On ch=1 n=e5 v=72
101236 On ch=1 n=c6 v=85
101264 On ch=1 n=f#5 v=0
101300 Par ch=1 c=64 v=63
101322 On ch=1 n=b5 v=0
101342 Par ch=1 c=64 v=127
101510 On ch=1 n=g5 v=0
101544 On ch=1 n=f#5 v=77
101586 On ch=1 n=e5 v=0
101808 On ch=1 n=g5 v=74
101816 On ch=1 n=f#5 v=0
102094 On ch=1 n=g5 v=0
102100 On ch=1 n=a5 v=56
102108 On ch=1 n=d5 v=60
102170 Par ch=1 c=64 v=63
102196 Par ch=1 c=64 v=0
102396 Par ch=1 c=64 v=63
102444 Par ch=1 c=64 v=127
102586 On ch=1 n=f#5 v=78
102624 On ch=1 n=a5 v=0
103082 On ch=1 n=g5 v=71
103092 On ch=1 n=f#5 v=0
103104 Par ch=1 c=64 v=63
103122 Par ch=1 c=64 v=0
103238 Par ch=1 c=64 v=63
103266 Par ch=1 c=64 v=127
103420 On ch=1 n=g5 v=0
103564 On ch=1 n=c6 v=0
103574 On ch=1 n=a5 v=68
103602 On ch=1 n=g4 v=72
104044 On ch=1 n=f#4 v=86
104046 On ch=1 n=b5 v=58
104054 On ch=1 n=a5 v=0
104094 On ch=1 n=g4 v=0
104102 Par ch=1 c=64 v=63
104132 Par ch=1 c=64 v=0
104330 On ch=1 n=d5 v=0
104390 Par ch=1 c=64 v=63
104426 Par ch=1 c=64 v=127
104536 On ch=1 n=d5 v=75
104544 On ch=1 n=b5 v=0
104930 On ch=1 n=f#4 v=0
104954 On ch=1 n=d5 v=0
104964 On ch=1 n=e4 v=80
104970 On ch=1 n=b4 v=59
104982 On ch=1 n=e5 v=65
105102 Par ch=1 c=64 v=63
105144 Par ch=1 c=64 v=0
105418 On ch=1 n=g4 v=72
105460 On ch=1 n=e4 v=0
105604 Par ch=1 c=64 v=63
105874 Par ch=1 c=64 v=0
105918 On ch=1 n=b4 v=0
105962 On ch=1 n=a4 v=46
105964 On ch=1 n=c#5 v=56
105990 On ch=1 n=g4 v=0
106114 Par ch=1 c=64 v=63
106528 On ch=1 n=a3 v=76
106756 Par ch=1 c=64 v=127
106898 On ch=1 n=a3 v=0
107086 On ch=1 n=c#5 v=0
107200 On ch=1 n=a4 v=0
107258 On ch=1 n=b3 v=61
107274 On ch=1 n=f#4 v=61
107276 On ch=1 n=d#5 v=68
107298 On ch=1 n=e5 v=0
107394 Par ch=1 c=64 v=63
107448 Par ch=1 c=64 v=0
107846 Par ch=1 c=64 v=63
107876 Par ch=1 c=64 v=127
107930 On ch=1 n=b4 v=46
108062 On ch=1 n=d#5 v=0
108392 On ch=1 n=c5 v=74
108462 Par ch=1 c=64 v=63
108488 On ch=1 n=b4 v=0
108512 Par ch=1 c=64 v=0
108770 Par ch=1 c=64 v=63
108774 On ch=1 n=a4 v=74
108780 On ch=1 n=e4 v=58
108814 Par ch=1 c=64 v=127
108848 On ch=1 n=f#4 v=0
108854 On ch=1 n=c5 v=0
109196 On ch=1 n=b4 v=78
109202 Par ch=1 c=64 v=63
109218 On ch=1 n=d4 v=71
109240 Par ch=1 c=64 v=0
109250 On ch=1 n=e4 v=0
109256 On ch=1 n=a4 v=0
109492 On ch=1 n=d4 v=0
109536 On ch=1 n=a4 v=71
109610 On ch=1 n=b4 v=0
109788 On ch=1 n=g4 v=76
109842 On ch=1 n=a4 v=0
110056 On ch=1 n=f#4 v=68
110086 Par ch=1 c=64 v=63
110124 On ch=1 n=g4 v=0
110124 Par ch=1 c=64 v=127
110474 Par ch=1 c=64 v=63
110480 On ch=1 n=a4 v=60
110486 On ch=1 n=d4 v=59
110520 Par ch=1 c=64 v=0
110540 On ch=1 n=f#4 v=0
110808 Par ch=1 c=64 v=63
110810 On ch=1 n=b3 v=0
110846 Par ch=1 c=64 v=127
110948 On ch=1 n=b3 v=65
111112 On ch=1 n=d4 v=0
111128 Par ch=1 c=64 v=63
111170 Par ch=1 c=64 v=0
111284 On ch=1 n=a4 v=0
111420 On ch=1 n=g4 v=72
111498 Par ch=1 c=64 v=63
111528 Par ch=1 c=64 v=127
111848 On ch=1 n=a4 v=80
111938 On ch=1 n=g4 v=0
111994 Par ch=1 c=64 v=63
112030 Par ch=1 c=64 v=0
112214 On ch=1 n=f#4 v=85
112232 On ch=1 n=c5 v=81
112270 On ch=1 n=a4 v=0
112324 Par ch=1 c=64 v=63
112356 Par ch=1 c=64 v=127
112676 On ch=1 n=b4 v=92
112678 On ch=1 n=g4 v=58
112702 On ch=1 n=c5 v=0
112724 On ch=1 n=f#4 v=0
112724 Par ch=1 c=64 v=63
112756 Par ch=1 c=64 v=0
112910 Par ch=1 c=64 v=63
112946 Par ch=1 c=64 v=127
112976 On ch=1 n=f#4 v=100
113038 On ch=1 n=g4 v=0
113094 On ch=1 n=b4 v=0
113200 Par ch=1 c=64 v=63
113232 On ch=1 n=e4 v=96
113240 Par ch=1 c=64 v=0
113266 On ch=1 n=f#4 v=0
113524 On ch=1 n=d5 v=96
113546 On ch=1 n=d4 v=80
113618 On ch=1 n=e4 v=0
113626 Par ch=1 c=64 v=63
113658 Par ch=1 c=64 v=127
113876 Par ch=1 c=64 v=63
113904 Par ch=1 c=64 v=0
113958 Par ch=1 c=64 v=63
113960 On ch=1 n=b4 v=96
113982 On ch=1 n=f#4 v=80
113998 On ch=1 n=d5 v=0
114010 Par ch=1 c=64 v=127
114022 On ch=1 n=d4 v=0
114274 On ch=1 n=b3 v=0
114296 On ch=1 n=f#4 v=0
114430 On ch=1 n=g4 v=97
114524 On ch=1 n=b4 v=0
114886 On ch=1 n=e5 v=87
114892 On ch=1 n=e4 v=77
115046 Par ch=1 c=64 v=127
115318 On ch=1 n=d4 v=89
115318 On ch=1 n=f#5 v=103
115346 On ch=1 n=e5 v=0
115362 On ch=1 n=e4 v=0
115366 Par ch=1 c=64 v=63
115376 Par ch=1 c=64 v=0
115444 Par ch=1 c=64 v=63
115472 Par ch=1 c=64 v=127
115732 On ch=1 n=g4 v=0
115734 On ch=1 n=d5 v=99
115734 On ch=1 n=a4 v=91
115744 On ch=1 n=f#4 v=92
115756 On ch=1 n=f#5 v=0
115768 On ch=1 n=d4 v=0
115788 Par ch=1 c=64 v=63
115802 Par ch=1 c=64 v=0
115858 Par ch=1 c=64 v=63
115896 Par ch=1 c=64 v=127
116012 On ch=1 n=a4 v=0
116094 On ch=1 n=f#4 v=0
116230 On ch=1 n=d5 v=0
116236 On ch=1 n=g4 v=89
116246 On ch=1 n=b3 v=74
116250 On ch=1 n=e5 v=83
116402 Par ch=1 c=64 v=63
116418 Par ch=1 c=64 v=0
116564 Par ch=1 c=64 v=63
116584 On ch=1 n=d5 v=96
116588 Par ch=1 c=64 v=127
116622 On ch=1 n=e5 v=0
116768 Par ch=1 c=64 v=63
116776 Par ch=1 c=64 v=0
116828 On ch=1 n=g4 v=0
116846 On ch=1 n=c5 v=103
116898 On ch=1 n=d5 v=0
117146 On ch=1 n=b4 v=102
117204 Par ch=1 c=64 v=63
117206 Par ch=1 c=64 v=127
117216 On ch=1 n=c5 v=0
117578 On ch=1 n=g4 v=87
117580 Par ch=1 c=64 v=63
117588 Par ch=1 c=64 v=0
117590 On ch=1 n=d5 v=83
117606 On ch=1 n=b4 v=0
117730 Par ch=1 c=64 v=63
117746 Par ch=1 c=64 v=127
117900 On ch=1 n=b3 v=0
118108 On ch=1 n=g4 v=0
118158 On ch=1 n=f#4 v=59
118166 On ch=1 n=b4 v=98
118176 On ch=1 n=b3 v=39
118194 On ch=1 n=d5 v=0
118202 Par ch=1 c=64 v=63
118210 Par ch=1 c=64 v=0
118352 Par ch=1 c=64 v=63
118370 Par ch=1 c=64 v=127
118562 On ch=1 n=b3 v=0
118566 On ch=1 n=f#4 v=0
118798 On ch=1 n=b5 v=85
119264 On ch=1 n=c6 v=90
119266 On ch=1 n=b5 v=0
119296 Par ch=1 c=64 v=63
119350 Par ch=1 c=64 v=0
119680 On ch=1 n=a5 v=92
119700 On ch=1 n=e5 v=80
119794 On ch=1 n=c6 v=0
120110 On ch=1 n=a5 v=0
120124 On ch=1 n=d5 v=67
120128 On ch=1 n=b5 v=87
120172 On ch=1 n=e5 v=0
120202 Par ch=1 c=64 v=63
120252 Par ch=1 c=64 v=127
120418 On ch=1 n=d5 v=0
120420 On ch=1 n=b5 v=0
120484 On ch=1 n=a5 v=65
120630 On ch=1 n=d6 v=97
120802 Par ch=1 c=64 v=63
120816 On ch=1 n=g5 v=74
120832 On ch=1 n=a5 v=0
120838 Par ch=1 c=64 v=0
120914 Par ch=1 c=64 v=63
120972 Par ch=1 c=64 v=127
121082 On ch=1 n=f#5 v=76
121096 On ch=1 n=e6 v=85
121148 On ch=1 n=g5 v=0
121158 On ch=1 n=d6 v=0
121158 Par ch=1 c=64 v=63
121178 Par ch=1 c=64 v=0
121302 Par ch=1 c=64 v=63
121332 Par ch=1 c=64 v=127
121536 On ch=1 n=c6 v=74
121548 On ch=1 n=e6 v=0
121552 On ch=1 n=a5 v=51
121608 On ch=1 n=f#5 v=0
121724 On ch=1 n=a5 v=0
121778 On ch=1 n=c6 v=0
121932 Par ch=1 c=64 v=63
121946 Par ch=1 c=64 v=0
121982 Par ch=1 c=64 v=63
122002 On ch=1 n=d6 v=77
122010 On ch=1 n=g5 v=68
122022 Par ch=1 c=64 v=127
122090 On ch=1 n=b4 v=0
122100 On ch=1 n=g5 v=0
122134 On ch=1 n=d6 v=0
122280 On ch=1 n=c6 v=83
122470 On ch=1 n=d5 v=73
122474 On ch=1 n=f#6 v=76
122506 On ch=1 n=c6 v=0
122648 On ch=1 n=b5 v=98
122750 On ch=1 n=d5 v=0
122998 On ch=1 n=b5 v=0
123002 On ch=1 n=a5 v=96
123010 On ch=1 n=g6 v=74
123014 On ch=1 n=f#6 v=0
123018 On ch=1 n=c5 v=65
123130 Par ch=1 c=64 v=63
123154 Par ch=1 c=64 v=0
123244 Par ch=1 c=64 v=63
123284 Par ch=1 c=64 v=127
123332 On ch=1 n=c5 v=0
123468 On ch=1 n=g6 v=0
123478 On ch=1 n=c6 v=89
123488 On ch=1 n=a5 v=0
123492 On ch=1 n=e6 v=79
123506 On ch=1 n=e5 v=43
123512 Par ch=1 c=64 v=63
123538 Par ch=1 c=64 v=0
123588 Par ch=1 c=64 v=63
123646 Par ch=1 c=64 v=127
123668 On ch=1 n=c6 v=0
123896 On ch=1 n=e5 v=0
123956 Par ch=1 c=64 v=63
123974 Par ch=1 c=64 v=0
124006 On ch=1 n=f#6 v=60
124012 On ch=1 n=b5 v=81
124016 Par ch=1 c=64 v=63
124028 On ch=1 n=e6 v=0
124034 On ch=1 n=d5 v=55
124056 Par ch=1 c=64 v=127
124152 On ch=1 n=d5 v=0
124242 On ch=1 n=b5 v=0
124380 On ch=1 n=f#6 v=0
124384 On ch=1 n=e6 v=84
124562 On ch=1 n=b6 v=97
124708 On ch=1 n=e6 v=0
124722 On ch=1 n=d6 v=88
125092 On ch=1 n=b6 v=0
125098 On ch=1 n=d6 v=0
125152 On ch=1 n=e6 v=76
125178 On ch=1 n=c7 v=82
125184 On ch=1 n=b5 v=55
125288 Par ch=1 c=64 v=63
125308 Par ch=1 c=64 v=0
125444 Par ch=1 c=64 v=63
125492 Par ch=1 c=64 v=127
125820 On ch=1 n=c6 v=54
125824 On ch=1 n=a6 v=69
125862 On ch=1 n=e6 v=0
125870 On ch=1 n=c7 v=0
125898 Par ch=1 c=64 v=63
125930 Par ch=1 c=64 v=0
126034 Par ch=1 c=64 v=63
126082 Par ch=1 c=64 v=127
126220 On ch=1 n=b5 v=0
126532 On ch=1 n=a6 v=0
126646 On ch=1 n=b5 v=44
126670 On ch=1 n=b6 v=59
126738 Par ch=1 c=64 v=63
126774 Par ch=1 c=64 v=0
126796 On ch=1 n=c6 v=0
127366 On ch=1 n=a6 v=44
127436 Par ch=1 c=64 v=63
127452 Par ch=1 c=64 v=127
127878 On ch=1 n=a6 v=0
127914 On ch=1 n=g6 v=40
128046 Par ch=1 c=64 v=63
128080 Par ch=1 c=64 v=0
128302 On ch=1 n=g6 v=0
128354 On ch=1 n=b6 v=0
128388 On ch=1 n=e6 v=52
128832 On ch=1 n=b6 v=50
128842 On ch=1 n=d6 v=41
128888 On ch=1 n=e6 v=0
129328 On ch=1 n=g6 v=51
129384 On ch=1 n=d6 v=0
129444 On ch=1 n=b6 v=0
129766 On ch=1 n=e6 v=74
129836 On ch=1 n=g6 v=0
130178 On ch=1 n=e6 v=0
130220 On ch=1 n=d6 v=45
130558 On ch=1 n=b5 v=0
130708 On ch=1 n=b5 v=50
130724 On ch=1 n=a6 v=63
130784 On ch=1 n=d6 v=0
131178 On ch=1 n=g6 v=47
131228 On ch=1 n=a6 v=0
131512 On ch=1 n=g6 v=0
131600 On ch=1 n=e6 v=83
132044 On ch=1 n=b6 v=63
132050 On ch=1 n=e6 v=0
132068 On ch=1 n=d6 v=25
132530 On ch=1 n=g6 v=53
132534 On ch=1 n=b6 v=0
132594 On ch=1 n=d6 v=0
132654 Par ch=1 c=64 v=63
132764 Par ch=1 c=64 v=0
132796 On ch=1 n=b5 v=0
132948 On ch=1 n=d6 v=50
132954 On ch=1 n=g6 v=0
132956 On ch=1 n=f#6 v=53
132956 On ch=1 n=b6 v=71
133024 Par ch=1 c=64 v=63
133062 Par ch=1 c=64 v=127
133194 On ch=1 n=d6 v=0
133284 On ch=1 n=f#6 v=0
133308 On ch=1 n=b6 v=0
133444 On ch=1 n=b5 v=45
133452 On ch=1 n=g6 v=64
133466 On ch=1 n=d6 v=40
133492 Par ch=1 c=64 v=63
133514 Par ch=1 c=64 v=0
133584 Par ch=1 c=64 v=63
133648 Par ch=1 c=64 v=127
133846 On ch=1 n=d6 v=0
133928 Par ch=1 c=64 v=63
133934 On ch=1 n=f#6 v=76
133948 On ch=1 n=a5 v=41
133950 On ch=1 n=b5 v=0
133952 Par ch=1 c=64 v=0
133982 On ch=1 n=g6 v=0
134084 Par ch=1 c=64 v=63
134122 Par ch=1 c=64 v=127
134392 On ch=1 n=a5 v=0
134392 Par ch=1 c=64 v=63
134394 On ch=1 n=d6 v=55
134406 On ch=1 n=b5 v=43
134410 Par ch=1 c=64 v=0
134474 Par ch=1 c=64 v=63
134514 Par ch=1 c=64 v=127
134582 On ch=1 n=f#6 v=0
134700 On ch=1 n=d6 v=0
134712 On ch=1 n=b5 v=0
134928 On ch=1 n=f#6 v=70
134928 On ch=1 n=b5 v=52
135114 Par ch=1 c=64 v=63
135146 Par ch=1 c=64 v=127
135442 On ch=1 n=g6 v=85
135532 Par ch=1 c=64 v=63
135536 On ch=1 n=f#6 v=0
135554 Par ch=1 c=64 v=0
135698 Par ch=1 c=64 v=63
135730 Par ch=1 c=64 v=127
135872 On ch=1 n=e6 v=84
135874 On ch=1 n=g6 v=0
135904 Par ch=1 c=64 v=63
135918 On ch=1 n=g5 v=57
135932 Par ch=1 c=64 v=0
136072 Par ch=1 c=64 v=63
136198 Par ch=1 c=64 v=0
136266 On ch=1 n=b5 v=0
136358 On ch=1 n=f#6 v=85
136362 On ch=1 n=d5 v=59
136418 On ch=1 n=e6 v=0
136526 On ch=1 n=g5 v=0
136672 On ch=1 n=e6 v=82
136700 On ch=1 n=f#6 v=0
136820 On ch=1 n=b5 v=71
136838 On ch=1 n=e5 v=64
136876 On ch=1 n=d5 v=0
136976 On ch=1 n=d6 v=84
137048 On ch=1 n=e6 v=0
137216 On ch=1 n=b5 v=0
137308 On ch=1 n=c#6 v=92
137358 On ch=1 n=d6 v=0
137758 On ch=1 n=e6 v=70
137762 On ch=1 n=f#5 v=61
137772 On ch=1 n=a5 v=58
137778 On ch=1 n=c#6 v=0
137828 On ch=1 n=e5 v=0
138006 Par ch=1 c=64 v=63
138020 Par ch=1 c=64 v=127
138092 On ch=1 n=a5 v=0
138202 Par ch=1 c=64 v=63
138216 Par ch=1 c=64 v=0
138264 On ch=1 n=b5 v=71
138334 Par ch=1 c=64 v=63
138336 On ch=1 n=f#5 v=0
138350 Par ch=1 c=64 v=127
138588 Par ch=1 c=64 v=63
138610 On ch=1 n=a5 v=57
138622 Par ch=1 c=64 v=0
138688 On ch=1 n=b5 v=0
138910 On ch=1 n=g5 v=61
138956 On ch=1 n=a5 v=0
139208 On ch=1 n=f#5 v=59
139218 On ch=1 n=d6 v=66
139264 On ch=1 n=e6 v=0
139276 On ch=1 n=g5 v=0
139658 On ch=1 n=a5 v=63
139714 On ch=1 n=f#5 v=0
140090 On ch=1 n=g5 v=54
140126 On ch=1 n=a5 v=0
140434 On ch=1 n=c6 v=56
140448 On ch=1 n=d6 v=0
140768 On ch=1 n=b5 v=57
140840 On ch=1 n=c6 v=0
141110 On ch=1 n=f#5 v=36
141114 On ch=1 n=a5 v=50
141134 On ch=1 n=b5 v=0
141176 On ch=1 n=g5 v=0
141618 On ch=1 n=b5 v=50
141626 On ch=1 n=d5 v=36
141656 On ch=1 n=a5 v=0
141708 On ch=1 n=f#5 v=0
142186 On ch=1 n=d5 v=0
142204 On ch=1 n=b5 v=0
142216 On ch=1 n=e5 v=32
142874 On ch=1 n=b4 v=48
142878 On ch=1 n=g5 v=28
142932 Par ch=1 c=64 v=63
143052 Par ch=1 c=64 v=127
143160 Par ch=1 c=64 v=63
143368 Par ch=1 c=64 v=0
143406 On ch=1 n=a5 v=39
143412 On ch=1 n=c5 v=54
143424 On ch=1 n=g5 v=0
143430 On ch=1 n=b4 v=0
143522 Par ch=1 c=64 v=63
143558 Par ch=1 c=64 v=127
143744 On ch=1 n=e5 v=0
143760 Par ch=1 c=64 v=63
143788 Par ch=1 c=64 v=0
143878 On ch=1 n=a5 v=0
143900 On ch=1 n=d6 v=68
143922 Par ch=1 c=64 v=63
143926 On ch=1 n=f#5 v=33
143944 On ch=1 n=c5 v=0
143948 Par ch=1 c=64 v=127
144056 On ch=1 n=f#5 v=0
144114 On ch=1 n=d6 v=0
144402 On ch=1 n=a4 v=30
144442 On ch=1 n=e6 v=73
144458 Par ch=1 c=64 v=63
144478 Par ch=1 c=64 v=0
144496 On ch=1 n=g5 v=7
144556 Par ch=1 c=64 v=63
144586 Par ch=1 c=64 v=127
144822 On ch=1 n=e6 v=0
144822 On ch=1 n=f#5 v=50
144890 On ch=1 n=g5 v=0
144948 On ch=1 n=c5 v=65
144964 On ch=1 n=a4 v=0
145110 On ch=1 n=e5 v=68
145138 On ch=1 n=c5 v=0
145176 On ch=1 n=f#5 v=0
145312 On ch=1 n=e5 v=0
145426 On ch=1 n=c6 v=74
145440 On ch=1 n=e5 v=74
145582 Par ch=1 c=64 v=63
145622 Par ch=1 c=64 v=0
145880 On ch=1 n=e6 v=89
145910 Par ch=1 c=64 v=63
145936 On ch=1 n=c6 v=0
145936 Par ch=1 c=64 v=127
146346 On ch=1 n=g6 v=80
146348 On ch=1 n=b4 v=42
146382 Par ch=1 c=64 v=63
146400 On ch=1 n=e6 v=0
146412 Par ch=1 c=64 v=0
146490 On ch=1 n=e5 v=0
146748 On ch=1 n=b4 v=0
146758 On ch=1 n=c5 v=62
146776 On ch=1 n=e5 v=70
146862 Par ch=1 c=64 v=63
146874 Par ch=1 c=64 v=127
147260 Par ch=1 c=64 v=63
147266 On ch=1 n=g6 v=0
147270 On ch=1 n=f#5 v=78
147276 On ch=1 n=d6 v=83
147276 Par ch=1 c=64 v=0
147300 On ch=1 n=e5 v=0
147368 Par ch=1 c=64 v=63
147388 Par ch=1 c=64 v=127
147680 On ch=1 n=f#5 v=0
147742 On ch=1 n=c5 v=0
147750 On ch=1 n=e6 v=90
147756 On ch=1 n=a4 v=53
147764 On ch=1 n=g5 v=64
147774 On ch=1 n=d6 v=0
147802 Par ch=1 c=64 v=63
147818 Par ch=1 c=64 v=0
147920 Par ch=1 c=64 v=63
147946 Par ch=1 c=64 v=127
148186 On ch=1 n=g5 v=0
148226 On ch=1 n=a5 v=86
148234 On ch=1 n=c5 v=66
148240 Par ch=1 c=64 v=63
148256 On ch=1 n=a4 v=0
148260 Par ch=1 c=64 v=0
148404 Par ch=1 c=64 v=63
148428 Par ch=1 c=64 v=127
148686 On ch=1 n=a4 v=35
148702 On ch=1 n=c6 v=96
148704 Par ch=1 c=64 v=63
148718 On ch=1 n=c5 v=0
148722 Par ch=1 c=64 v=0
148774 On ch=1 n=e6 v=0
148818 Par ch=1 c=64 v=63
148844 Par ch=1 c=64 v=127
149086 Par ch=1 c=64 v=63
149106 Par ch=1 c=64 v=0
149130 On ch=1 n=c5 v=53
149142 On ch=1 n=e6 v=85
149166 On ch=1 n=a4 v=0
149196 Par ch=1 c=64 v=63
149220 Par ch=1 c=64 v=127
149224 On ch=1 n=a5 v=0
149412 On ch=1 n=c6 v=0
149414 On ch=1 n=g5 v=75
149448 On ch=1 n=e6 v=0
149588 On ch=1 n=e5 v=48
149596 On ch=1 n=c5 v=0
149604 On ch=1 n=c6 v=85
149782 On ch=1 n=g5 v=0
149810 On ch=1 n=f#5 v=63
149968 On ch=1 n=f#5 v=0
150122 Par ch=1 c=64 v=63
150138 Par ch=1 c=64 v=0
150148 On ch=1 n=g5 v=54
150150 On ch=1 n=e6 v=83
150172 On ch=1 n=c6 v=0
150268 Par ch=1 c=64 v=63
150286 Par ch=1 c=64 v=127
150434 On ch=1 n=g5 v=0
150558 On ch=1 n=e5 v=0
150706 On ch=1 n=e6 v=0
150714 On ch=1 n=g6 v=78
150718 On ch=1 n=e5 v=69
150722 On ch=1 n=b5 v=68
150798 Par ch=1 c=64 v=63
150820 Par ch=1 c=64 v=0
150870 Par ch=1 c=64 v=63
150912 Par ch=1 c=64 v=127
151110 On ch=1 n=b5 v=0
151252 On ch=1 n=c6 v=87
151256 On ch=1 n=a6 v=89
151276 On ch=1 n=g6 v=0
151332 Par ch=1 c=64 v=63
151350 Par ch=1 c=64 v=0
151484 Par ch=1 c=64 v=63
151510 Par ch=1 c=64 v=127
151748 On ch=1 n=f#6 v=103
151786 On ch=1 n=d5 v=56
151820 On ch=1 n=a6 v=0
151878 On ch=1 n=e5 v=0
152052 On ch=1 n=c6 v=0
152288 Par ch=1 c=64 v=63
152302 Par ch=1 c=64 v=0
152318 On ch=1 n=g6 v=85
152326 On ch=1 n=b5 v=62
152378 On ch=1 n=f#6 v=0
152410 Par ch=1 c=64 v=63
152430 Par ch=1 c=64 v=127
152690 On ch=1 n=f#6 v=82
152742 On ch=1 n=g6 v=0
152828 On ch=1 n=b5 v=0
152862 On ch=1 n=c5 v=78
152872 On ch=1 n=g5 v=51
152914 On ch=1 n=d5 v=0
153054 On ch=1 n=e6 v=83
153066 On ch=1 n=f#6 v=0
153288 On ch=1 n=c5 v=0
153394 On ch=1 n=b4 v=80
153410 On ch=1 n=d6 v=83
153470 Par ch=1 c=64 v=63
153494 Par ch=1 c=64 v=0
153498 On ch=1 n=e6 v=0
153546 Par ch=1 c=64 v=63
153588 Par ch=1 c=64 v=127
153906 On ch=1 n=d5 v=53
153906 On ch=1 n=f#5 v=80
153908 On ch=1 n=b4 v=0
153908 On ch=1 n=b5 v=88
153940 On ch=1 n=g5 v=0
153970 Par ch=1 c=64 v=63
153984 On ch=1 n=d6 v=0
153990 Par ch=1 c=64 v=0
154036 Par ch=1 c=64 v=63
154082 Par ch=1 c=64 v=127
154462 On ch=1 n=c5 v=59
154470 On ch=1 n=e6 v=81
154536 On ch=1 n=d5 v=0
154554 Par ch=1 c=64 v=63
154574 Par ch=1 c=64 v=0
154610 On ch=1 n=b5 v=0
154640 On ch=1 n=f#5 v=0
154678 Par ch=1 c=64 v=63
154704 Par ch=1 c=64 v=127
154804 On ch=1 n=d5 v=66
154960 On ch=1 n=g5 v=80
155108 On ch=1 n=e5 v=76
155126 On ch=1 n=d5 v=0
155308 On ch=1 n=c5 v=0
155388 On ch=1 n=e6 v=0
155398 On ch=1 n=g5 v=0
155408 On ch=1 n=f#5 v=85
155424 On ch=1 n=e5 v=0
155426 On ch=1 n=d6 v=93
155510 Par ch=1 c=64 v=63
155522 Par ch=1 c=64 v=0
155646 Par ch=1 c=64 v=63
155662 Par ch=1 c=64 v=127
155884 On ch=1 n=d5 v=73
155884 On ch=1 n=c6 v=85
155888 On ch=1 n=f#5 v=0
155894 On ch=1 n=a5 v=51
155936 On ch=1 n=d6 v=0
155956 Par ch=1 c=64 v=63
155972 Par ch=1 c=64 v=0
156034 Par ch=1 c=64 v=63
156068 Par ch=1 c=64 v=127
156150 On ch=1 n=a5 v=0
156360 On ch=1 n=b5 v=82
156364 On ch=1 n=g5 v=54
156380 On ch=1 n=d5 v=0
156382 On ch=1 n=e5 v=42
156386 On ch=1 n=c6 v=0
156408 Par ch=1 c=64 v=63
156424 Par ch=1 c=64 v=0
156536 Par ch=1 c=64 v=63
156558 Par ch=1 c=64 v=127
156716 On ch=1 n=a5 v=81
156774 On ch=1 n=b5 v=0
157000 On ch=1 n=b5 v=84
157012 On ch=1 n=a5 v=0
157132 On ch=1 n=b5 v=0
157286 On ch=1 n=e5 v=0
157344 On ch=1 n=a4 v=47
157348 On ch=1 n=f#5 v=65
157352 On ch=1 n=c#6 v=68
157382 On ch=1 n=g5 v=0
157388 Par ch=1 c=64 v=63
157406 Par ch=1 c=64 v=0
157508 Par ch=1 c=64 v=63
157536 Par ch=1 c=64 v=127
157818 On ch=1 n=f#5 v=0
157834 On ch=1 n=a5 v=53
157846 On ch=1 n=e5 v=37
157900 On ch=1 n=c#6 v=0
158370 On ch=1 n=e5 v=0
158402 On ch=1 n=d6 v=45
158402 On ch=1 n=b4 v=44
158410 On ch=1 n=a4 v=0
158454 On ch=1 n=d5 v=9
158526 Par ch=1 c=64 v=63
158554 Par ch=1 c=64 v=0
158608 On ch=1 n=a5 v=0
158994 On ch=1 n=g5 v=80
159006 On ch=1 n=d6 v=0
159064 Par ch=1 c=64 v=63
159074 Par ch=1 c=64 v=127
159458 On ch=1 n=a4 v=49
159478 On ch=1 n=f#5 v=88
159506 On ch=1 n=b4 v=0
159508 Par ch=1 c=64 v=63
159532 Par ch=1 c=64 v=0
159544 On ch=1 n=g5 v=0
159612 Par ch=1 c=64 v=63
159646 Par ch=1 c=64 v=127
159680 On ch=1 n=d5 v=0
159938 Par ch=1 c=64 v=63
159942 On ch=1 n=d5 v=58
159964 Par ch=1 c=64 v=0
159984 On ch=1 n=g4 v=50
160006 On ch=1 n=a4 v=0
160052 Par ch=1 c=64 v=63
160086 Par ch=1 c=64 v=127
160158 On ch=1 n=f#5 v=0
160482 On ch=1 n=a5 v=60
160484 On ch=1 n=g4 v=0
160498 On ch=1 n=c#5 v=63
160510 On ch=1 n=a4 v=33
160550 On ch=1 n=d5 v=0
160628 Par ch=1 c=64 v=63
160650 Par ch=1 c=64 v=0
160810 Par ch=1 c=64 v=63
160830 Par ch=1 c=64 v=127
160954 On ch=1 n=f#5 v=83
160976 On ch=1 n=a4 v=0
160978 On ch=1 n=a5 v=0
161020 On ch=1 n=c#5 v=0
161256 On ch=1 n=f#5 v=0
161388 On ch=1 n=d5 v=92
161410 Par ch=1 c=64 v=63
161426 Par ch=1 c=64 v=0
161570 Par ch=1 c=64 v=63
161590 Par ch=1 c=64 v=127
161832 On ch=1 n=e5 v=59
161904 On ch=1 n=d5 v=0
162346 Par ch=1 c=64 v=63
162398 On ch=1 n=f5 v=34
162446 Par ch=1 c=64 v=0
162508 On ch=1 n=e5 v=0
162982 On ch=1 n=a5 v=55
163094 Par ch=1 c=64 v=63
163114 Par ch=1 c=64 v=127
163416 On ch=1 n=f5 v=0
163444 Par ch=1 c=64 v=63
163462 On ch=1 n=a5 v=0
163464 On ch=1 n=g#5 v=67
163470 Par ch=1 c=64 v=0
163472 On ch=1 n=e5 v=29
163514 Par ch=1 c=64 v=63
163560 Par ch=1 c=64 v=127
163800 Par ch=1 c=64 v=63
163910 Par ch=1 c=64 v=127
163958 On ch=1 n=c5 v=78
163962 On ch=1 n=e5 v=0
164202 On ch=1 n=c5 v=0
164450 On ch=1 n=d5 v=72
164472 On ch=1 n=b5 v=73
164492 On ch=1 n=g#4 v=51
164536 On ch=1 n=g#5 v=0
164586 Par ch=1 c=64 v=63
164614 Par ch=1 c=64 v=0
164802 Par ch=1 c=64 v=63
164828 Par ch=1 c=64 v=127
164892 On ch=1 n=b5 v=0
164910 On ch=1 n=g#5 v=72
164996 On ch=1 n=d5 v=0
165006 On ch=1 n=g#5 v=0
165360 On ch=1 n=b4 v=84
165376 On ch=1 n=e5 v=76
165418 Par ch=1 c=64 v=63
165436 Par ch=1 c=64 v=0
165642 Par ch=1 c=64 v=63
165658 Par ch=1 c=64 v=127
165772 On ch=1 n=d5 v=102
165802 On ch=1 n=b4 v=0
165818 On ch=1 n=e5 v=0
165872 On ch=1 n=d5 v=0
165976 On ch=1 n=g#4 v=0
166222 On ch=1 n=c5 v=51
166226 On ch=1 n=a5 v=82
166234 On ch=1 n=f5 v=79
166286 Par ch=1 c=64 v=63
166304 Par ch=1 c=64 v=0
166422 Par ch=1 c=64 v=63
166448 Par ch=1 c=64 v=127
166518 On ch=1 n=a5 v=0
166622 Par ch=1 c=64 v=63
166638 Par ch=1 c=64 v=0
166660 On ch=1 n=c5 v=0
166690 On ch=1 n=b4 v=81
166708 On ch=1 n=g#5 v=76
166760 Par ch=1 c=64 v=63
166786 Par ch=1 c=64 v=127
166998 On ch=1 n=b4 v=0
167012 On ch=1 n=f5 v=0
167184 On ch=1 n=e4 v=81
167194 On ch=1 n=c5 v=77
167196 Par ch=1 c=64 v=63
167226 Par ch=1 c=64 v=0
167380 Par ch=1 c=64 v=63
167402 Par ch=1 c=64 v=127
167562 On ch=1 n=c5 v=0
167722 On ch=1 n=g#5 v=0
167732 On ch=1 n=b5 v=91
167740 On ch=1 n=d5 v=88
168196 On ch=1 n=f#4 v=96
168200 On ch=1 n=g#5 v=90
168252 Par ch=1 c=64 v=63
168254 On ch=1 n=b5 v=0
168256 On ch=1 n=d5 v=0
168256 On ch=1 n=e4 v=0
168272 Par ch=1 c=64 v=0
168388 Par ch=1 c=64 v=63
168412 Par ch=1 c=64 v=127
168616 Par ch=1 c=64 v=63
168630 On ch=1 n=b5 v=101
168634 Par ch=1 c=64 v=0
168642 On ch=1 n=b4 v=79
168694 On ch=1 n=g#5 v=0
168736 Par ch=1 c=64 v=63
168762 Par ch=1 c=64 v=127
168826 On ch=1 n=b5 v=0
169084 On ch=1 n=g#5 v=98
169100 On ch=1 n=d5 v=75
169108 On ch=1 n=b4 v=0
169152 Par ch=1 c=64 v=63
169174 Par ch=1 c=64 v=0
169250 Par ch=1 c=64 v=63
169290 Par ch=1 c=64 v=127
169502 Par ch=1 c=64 v=63
169512 On ch=1 n=g#4 v=93
169518 Par ch=1 c=64 v=0
169522 On ch=1 n=g#5 v=0
169524 On ch=1 n=d5 v=0
169530 On ch=1 n=e5 v=85
169530 On ch=1 n=b4 v=76
169614 On ch=1 n=f#4 v=0
169622 Par ch=1 c=64 v=63
169650 Par ch=1 c=64 v=127
169810 On ch=1 n=b4 v=0
170036 On ch=1 n=b5 v=79
170042 On ch=1 n=a4 v=59
170046 On ch=1 n=d5 v=78
170072 On ch=1 n=e5 v=0
170130 On ch=1 n=g#4 v=0
170170 Par ch=1 c=64 v=63
170196 Par ch=1 c=64 v=0
170546 On ch=1 n=f5 v=83
170576 On ch=1 n=d5 v=0
170634 Par ch=1 c=64 v=63
170638 Par ch=1 c=64 v=127
170924 On ch=1 n=f5 v=0
170954 On ch=1 n=e5 v=91
171052 On ch=1 n=b5 v=0
171388 On ch=1 n=c6 v=106
171506 Par ch=1 c=64 v=63
171526 Par ch=1 c=64 v=0
171908 On ch=1 n=d6 v=86
171940 Par ch=1 c=64 v=63
171946 Par ch=1 c=64 v=127
171966 On ch=1 n=c6 v=0
172194 On ch=1 n=e5 v=0
172332 On ch=1 n=d5 v=69
172342 On ch=1 n=d6 v=0
172344 On ch=1 n=b5 v=80
172422 Par ch=1 c=64 v=63
172440 Par ch=1 c=64 v=0
172548 Par ch=1 c=64 v=63
172568 Par ch=1 c=64 v=127
172798 Par ch=1 c=64 v=63
172818 Par ch=1 c=64 v=0
172824 On ch=1 n=b5 v=0
172828 On ch=1 n=c6 v=60
172832 On ch=1 n=c5 v=60
172862 On ch=1 n=a4 v=0
172880 On ch=1 n=d5 v=0
172892 Par ch=1 c=64 v=63
172928 Par ch=1 c=64 v=127
173126 On ch=1 n=b5 v=69
173142 On ch=1 n=c5 v=0
173154 On ch=1 n=c6 v=0
173274 On ch=1 n=e5 v=46
173276 Par ch=1 c=64 v=63
173282 On ch=1 n=c5 v=46
173296 Par ch=1 c=64 v=0
173384 Par ch=1 c=64 v=63
173414 On ch=1 n=a5 v=68
173416 Par ch=1 c=64 v=127
173488 On ch=1 n=b5 v=0
173586 On ch=1 n=e5 v=0
173746 On ch=1 n=g5 v=64
173746 On ch=1 n=d5 v=41
173748 On ch=1 n=a5 v=0
173756 Par ch=1 c=64 v=63
173762 On ch=1 n=c5 v=0
173764 On ch=1 n=b4 v=40
173776 Par ch=1 c=64 v=0
173860 Par ch=1 c=64 v=63
173888 Par ch=1 c=64 v=127
174062 On ch=1 n=d5 v=0
174074 On ch=1 n=e5 v=59
174244 On ch=1 n=b4 v=0
174248 On ch=1 n=d5 v=75
174384 On ch=1 n=f5 v=72
174390 On ch=1 n=e5 v=0
174710 On ch=1 n=d5 v=0
174732 On ch=1 n=g5 v=0
174734 On ch=1 n=f5 v=0
174748 On ch=1 n=c5 v=55
174764 On ch=1 n=a5 v=75
174770 On ch=1 n=e5 v=63
174854 Par ch=1 c=64 v=63
174872 Par ch=1 c=64 v=0
174978 Par ch=1 c=64 v=63
175008 Par ch=1 c=64 v=127
175036 On ch=1 n=b4 v=56
175096 On ch=1 n=c5 v=0
175220 On ch=1 n=c6 v=83
175290 On ch=1 n=a5 v=0
175346 On ch=1 n=a4 v=65
175406 On ch=1 n=b4 v=0
175628 On ch=1 n=a4 v=0
175674 On ch=1 n=b5 v=78
175690 On ch=1 n=g4 v=46
175742 On ch=1 n=c6 v=0
175744 Par ch=1 c=64 v=63
175762 Par ch=1 c=64 v=0
175934 Par ch=1 c=64 v=63
175970 Par ch=1 c=64 v=127
176056 Par ch=1 c=64 v=63
176078 Par ch=1 c=64 v=0
176172 On ch=1 n=c6 v=73
176214 On ch=1 n=b5 v=0
176322 Par ch=1 c=64 v=63
176350 Par ch=1 c=64 v=127
176620 On ch=1 n=c6 v=0
176656 On ch=1 n=a5 v=48
176668 On ch=1 n=a4 v=32
176704 Par ch=1 c=64 v=63
176720 Par ch=1 c=64 v=0
176748 On ch=1 n=g4 v=0
176834 Par ch=1 c=64 v=63
176864 Par ch=1 c=64 v=127
176900 On ch=1 n=e5 v=0
177176 On ch=1 n=b4 v=27
177188 On ch=1 n=g5 v=48
177196 On ch=1 n=d5 v=23
177212 Par ch=1 c=64 v=63
177226 On ch=1 n=a5 v=0
177232 Par ch=1 c=64 v=0
177270 On ch=1 n=a4 v=0
177352 Par ch=1 c=64 v=63
177388 Par ch=1 c=64 v=127
177588 On ch=1 n=d5 v=0
177788 Par ch=1 c=64 v=63
177792 On ch=1 n=c5 v=28
177800 On ch=1 n=e5 v=47
177810 Par ch=1 c=64 v=0
177942 On ch=1 n=b4 v=0
177942 Par ch=1 c=64 v=63
177962 Par ch=1 c=64 v=127
178014 On ch=1 n=g5 v=0
178256 On ch=1 n=e5 v=0
178450 On ch=1 n=e6 v=81
178704 On ch=1 n=e6 v=0
179054 On ch=1 n=b4 v=35
179066 On ch=1 n=d#6 v=94
179072 On ch=1 n=g5 v=80
179124 On ch=1 n=c5 v=0
179194 Par ch=1 c=64 v=63
179216 Par ch=1 c=64 v=0
179568 Par ch=1 c=64 v=63
179578 On ch=1 n=g5 v=0
179584 Par ch=1 c=64 v=127
179594 On ch=1 n=a5 v=82
179764 On ch=1 n=d#6 v=0
179990 On ch=1 n=a5 v=0
180062 On ch=1 n=f#6 v=94
180072 On ch=1 n=d#5 v=85
180088 On ch=1 n=b4 v=0
180096 Par ch=1 c=64 v=63
180112 Par ch=1 c=64 v=0
180244 Par ch=1 c=64 v=63
180270 Par ch=1 c=64 v=127
180358 On ch=1 n=f#6 v=0
180568 On ch=1 n=d#6 v=96
180570 On ch=1 n=f#5 v=96
180776 On ch=1 n=f#5 v=0
181040 On ch=1 n=b5 v=96
181048 On ch=1 n=a5 v=76
181082 On ch=1 n=d#6 v=0
181086 Par ch=1 c=64 v=63
181100 Par ch=1 c=64 v=0
181476 On ch=1 n=a5 v=0
181548 On ch=1 n=e5 v=77
181552 On ch=1 n=c6 v=76
181558 On ch=1 n=b5 v=0
181626 On ch=1 n=d#5 v=0
181688 Par ch=1 c=64 v=63
181698 Par ch=1 c=64 v=127
181870 On ch=1 n=c6 v=0
182010 On ch=1 n=c5 v=100
182012 On ch=1 n=e6 v=89
182050 On ch=1 n=e5 v=0
182090 Par ch=1 c=64 v=63
182106 Par ch=1 c=64 v=0
182464 On ch=1 n=e6 v=0
182492 On ch=1 n=d#6 v=106
182506 On ch=1 n=g5 v=88
182566 Par ch=1 c=64 v=63
182574 Par ch=1 c=64 v=127
182826 On ch=1 n=g5 v=0
182918 On ch=1 n=a5 v=91
182976 Par ch=1 c=64 v=63
182988 Par ch=1 c=64 v=0
183084 Par ch=1 c=64 v=63
183104 Par ch=1 c=64 v=127
183226 On ch=1 n=a5 v=0
183308 On ch=1 n=d#6 v=0
183314 Par ch=1 c=64 v=63
183328 Par ch=1 c=64 v=0
183368 On ch=1 n=f#6 v=104
183446 Par ch=1 c=64 v=63
183464 Par ch=1 c=64 v=127
183846 On ch=1 n=d#6 v=104
183850 Par ch=1 c=64 v=63
183852 On ch=1 n=f#5 v=96
183864 Par ch=1 c=64 v=0
183868 On ch=1 n=f#6 v=0
183986 Par ch=1 c=64 v=63
184002 Par ch=1 c=64 v=127
184106 On ch=1 n=f#5 v=0
184264 On ch=1 n=b4 v=84
184266 On ch=1 n=f#6 v=99
184270 On ch=1 n=a5 v=91
184282 Par ch=1 c=64 v=63
184304 Par ch=1 c=64 v=0
184320 On ch=1 n=d#6 v=0
184362 On ch=1 n=c5 v=0
184388 Par ch=1 c=64 v=63
184410 Par ch=1 c=64 v=127
184552 On ch=1 n=a5 v=0
184634 On ch=1 n=f#6 v=0
184712 On ch=1 n=c#5 v=101
184718 On ch=1 n=f#5 v=100
184720 On ch=1 n=d#6 v=99
184772 Par ch=1 c=64 v=63
184780 On ch=1 n=b4 v=0
184790 Par ch=1 c=64 v=0
184900 Par ch=1 c=64 v=63
184922 Par ch=1 c=64 v=127
184968 On ch=1 n=f#5 v=0
185150 On ch=1 n=d#5 v=107
185154 On ch=1 n=a5 v=92
185166 On ch=1 n=b5 v=92
185170 Par ch=1 c=64 v=63
185184 Par ch=1 c=64 v=0
185204 On ch=1 n=d#6 v=0
185242 On ch=1 n=c#5 v=0
185300 Par ch=1 c=64 v=63
185320 Par ch=1 c=64 v=127
185496 On ch=1 n=a5 v=0
185694 On ch=1 n=e5 v=98
185722 On ch=1 n=c6 v=76
185742 On ch=1 n=b5 v=0
185764 On ch=1 n=d#5 v=0
185878 Par ch=1 c=64 v=63
185896 Par ch=1 c=64 v=0
186234 On ch=1 n=g6 v=112
186296 Par ch=1 c=64 v=63
186304 Par ch=1 c=64 v=127
186682 On ch=1 n=f#6 v=100
186696 On ch=1 n=d5 v=102
186716 On ch=1 n=e5 v=0
186738 Par ch=1 c=64 v=63
186752 On ch=1 n=g6 v=0
186752 Par ch=1 c=64 v=0
186870 Par ch=1 c=64 v=63
186890 Par ch=1 c=64 v=127
186962 On ch=1 n=c6 v=0
187070 Par ch=1 c=64 v=63
187084 Par ch=1 c=64 v=0
187122 On ch=1 n=b5 v=108
187188 Par ch=1 c=64 v=63
187212 Par ch=1 c=64 v=127
187400 On ch=1 n=b5 v=0
187534 On ch=1 n=d5 v=0
187536 On ch=1 n=f#6 v=0
187558 On ch=1 n=a6 v=104
187564 On ch=1 n=c6 v=98
187622 Par ch=1 c=64 v=63
187634 Par ch=1 c=64 v=0
187974 On ch=1 n=a5 v=112
187984 On ch=1 n=f#6 v=93
187986 On ch=1 n=a6 v=0
188142 Par ch=1 c=64 v=63
188150 Par ch=1 c=64 v=127
188382 On ch=1 n=f#6 v=0
188482 On ch=1 n=c6 v=0
188500 On ch=1 n=a5 v=0
188504 On ch=1 n=d6 v=98
188506 On ch=1 n=b5 v=91
188650 Par ch=1 c=64 v=63
188676 Par ch=1 c=64 v=0
188920 On ch=1 n=b5 v=0
189006 On ch=1 n=g5 v=100
189300 Par ch=1 c=64 v=63
189304 Par ch=1 c=64 v=127
189338 On ch=1 n=g5 v=0
189524 On ch=1 n=c5 v=82
189564 On ch=1 n=e5 v=65
189650 Par ch=1 c=64 v=63
189662 Par ch=1 c=64 v=0
189802 Par ch=1 c=64 v=63
189824 Par ch=1 c=64 v=127
189928 On ch=1 n=e5 v=0
189976 On ch=1 n=c5 v=0
189992 On ch=1 n=e5 v=76
190002 On ch=1 n=c6 v=99
190008 On ch=1 n=d6 v=0
190416 On ch=1 n=e5 v=0
190428 On ch=1 n=b5 v=87
190454 On ch=1 n=g5 v=52
190472 Par ch=1 c=64 v=63
190476 On ch=1 n=c6 v=0
190484 Par ch=1 c=64 v=0
190864 On ch=1 n=g5 v=0
190876 On ch=1 n=e5 v=99
190934 Par ch=1 c=64 v=63
190938 Par ch=1 c=64 v=127
191122 On ch=1 n=e5 v=0
191334 On ch=1 n=d6 v=84
191336 On ch=1 n=f#5 v=80
191366 On ch=1 n=b5 v=0
191420 Par ch=1 c=64 v=63
191434 Par ch=1 c=64 v=0
191706 On ch=1 n=d6 v=0
191764 On ch=1 n=d5 v=106
191766 On ch=1 n=b5 v=75
191832 Par ch=1 c=64 v=63
191838 Par ch=1 c=64 v=127
191972 On ch=1 n=f#5 v=0
192176 On ch=1 n=d5 v=0
192240 On ch=1 n=g5 v=76
192250 On ch=1 n=e5 v=63
192264 On ch=1 n=b5 v=0
192304 Par ch=1 c=64 v=63
192318 Par ch=1 c=64 v=0
192678 On ch=1 n=c5 v=99
192746 Par ch=1 c=64 v=63
192752 Par ch=1 c=64 v=127
192878 On ch=1 n=e5 v=0
193230 On ch=1 n=a4 v=60
193280 Par ch=1 c=64 v=63
193292 Par ch=1 c=64 v=0
193412 Par ch=1 c=64 v=63
193432 Par ch=1 c=64 v=127
193658 On ch=1 n=c5 v=0
193718 On ch=1 n=f5 v=80
193740 On ch=1 n=b4 v=39
193780 Par ch=1 c=64 v=63
193794 On ch=1 n=g5 v=0
193794 Par ch=1 c=64 v=0
193888 Par ch=1 c=64 v=63
193918 Par ch=1 c=64 v=127
193974 On ch=1 n=f5 v=0
194162 On ch=1 n=b4 v=0
194188 Par ch=1 c=64 v=63
194204 On ch=1 n=e5 v=84
194206 Par ch=1 c=64 v=0
194208 On ch=1 n=c5 v=62
194226 On ch=1 n=a4 v=0
194232 Par ch=1 c=64 v=63
194268 Par ch=1 c=64 v=127
194374 On ch=1 n=c5 v=0
194670 On ch=1 n=f#4 v=83
195064 On ch=1 n=f#4 v=0
195128 On ch=1 n=g#4 v=69
195286 On ch=1 n=e5 v=0
195566 On ch=1 n=d5 v=89
195600 On ch=1 n=e4 v=57
195648 Par ch=1 c=64 v=63
195664 Par ch=1 c=64 v=0
195742 Par ch=1 c=64 v=63
195780 Par ch=1 c=64 v=127
196048 On ch=1 n=e4 v=0
196078 On ch=1 n=c5 v=83
196096 On ch=1 n=f4 v=46
196128 On ch=1 n=d5 v=0
196160 Par ch=1 c=64 v=63
196174 Par ch=1 c=64 v=0
196286 Par ch=1 c=64 v=63
196306 Par ch=1 c=64 v=127
196410 On ch=1 n=g#4 v=0
196612 On ch=1 n=c4 v=72
196872 On ch=1 n=c4 v=0
197042 On ch=1 n=d4 v=86
197544 On ch=1 n=a#4 v=82
197552 On ch=1 n=f4 v=0
197556 On ch=1 n=b3 v=46
197568 On ch=1 n=c5 v=0
197586 Par ch=1 c=64 v=63
197604 Par ch=1 c=64 v=0
197700 Par ch=1 c=64 v=63
197728 Par ch=1 c=64 v=127
197756 On ch=1 n=d4 v=0
198116 On ch=1 n=g4 v=60
198120 On ch=1 n=c4 v=18
198120 On ch=1 n=d#4 v=55
198128 On ch=1 n=a#4 v=0
198130 On ch=1 n=b3 v=0
198240 Par ch=1 c=64 v=63
198278 Par ch=1 c=64 v=0
198586 Par ch=1 c=64 v=63
198604 On ch=1 n=g3 v=71
198638 Par ch=1 c=64 v=127
198762 On ch=1 n=c4 v=0
199180 On ch=1 n=a3 v=74
199212 Par ch=1 c=64 v=63
199264 On ch=1 n=g3 v=0
199280 Par ch=1 c=64 v=0
199800 On ch=1 n=a4 v=46
199870 Par ch=1 c=64 v=63
199888 Par ch=1 c=64 v=127
199890 On ch=1 n=g4 v=0
200202 On ch=1 n=d#4 v=0
200454 On ch=1 n=f#4 v=61
200474 On ch=1 n=d4 v=38
200506 On ch=1 n=a4 v=0
200654 Par ch=1 c=64 v=63
200716 Par ch=1 c=64 v=0
200984 Par ch=1 c=64 v=63
201062 Par ch=1 c=64 v=127
201162 Par ch=1 c=64 v=63
201176 On ch=1 n=b3 v=52
201212 Par ch=1 c=64 v=0
201252 On ch=1 n=a3 v=0
202174 On ch=1 n=e3 v=57
202356 On ch=1 n=b3 v=0
202942 On ch=1 n=e4 v=59
202954 Par ch=1 c=64 v=63
202986 Par ch=1 c=64 v=127
203102 On ch=1 n=d4 v=0
203404 On ch=1 n=f#4 v=0
203486 On ch=1 n=d4 v=76
203504 On ch=1 n=e4 v=0
203978 On ch=1 n=f#4 v=72
203980 On ch=1 n=a4 v=61
204006 On ch=1 n=d4 v=0
204014 Par ch=1 c=64 v=63
204048 Par ch=1 c=64 v=0
204102 Par ch=1 c=64 v=63
204150 Par ch=1 c=64 v=127
204264 On ch=1 n=f#4 v=0
204466 Par ch=1 c=64 v=63
204478 Par ch=1 c=64 v=0
204514 On ch=1 n=a4 v=0
204520 On ch=1 n=g4 v=77
204526 Par ch=1 c=64 v=63
204540 On ch=1 n=e4 v=64
204554 Par ch=1 c=64 v=127
204608 On ch=1 n=e3 v=0
204890 On ch=1 n=e4 v=0
204924 On ch=1 n=f#4 v=87
204962 On ch=1 n=g4 v=0
205082 Par ch=1 c=64 v=63
205088 On ch=1 n=e5 v=69
205090 On ch=1 n=b4 v=70
205108 Par ch=1 c=64 v=127
205228 On ch=1 n=f#4 v=0
205270 On ch=1 n=g4 v=97
205456 On ch=1 n=e5 v=0
205480 On ch=1 n=b4 v=0
205578 On ch=1 n=d5 v=96
205582 On ch=1 n=a4 v=93
205590 Par ch=1 c=64 v=63
205606 Par ch=1 c=64 v=0
205644 On ch=1 n=g4 v=0
205720 Par ch=1 c=64 v=63
205740 Par ch=1 c=64 v=127
205906 On ch=1 n=b4 v=96
206002 On ch=1 n=a4 v=0
206010 On ch=1 n=d5 v=0
206062 On ch=1 n=f#4 v=74
206064 On ch=1 n=f#5 v=106
206094 On ch=1 n=b4 v=0
206170 On ch=1 n=f#4 v=0
206230 On ch=1 n=c5 v=106
206334 On ch=1 n=f#5 v=0
206488 On ch=1 n=c5 v=0
206602 On ch=1 n=d5 v=107
206622 On ch=1 n=e5 v=74
206636 On ch=1 n=b4 v=81
206672 Par ch=1 c=64 v=63
206686 Par ch=1 c=64 v=0
206788 Par ch=1 c=64 v=63
206808 Par ch=1 c=64 v=127
206930 On ch=1 n=b4 v=0
206958 On ch=1 n=f#5 v=108
207022 On ch=1 n=e5 v=0
207024 On ch=1 n=d5 v=0
207092 On ch=1 n=b4 v=100
207112 On ch=1 n=e4 v=77
207260 On ch=1 n=g5 v=112
207278 On ch=1 n=b4 v=0
207312 On ch=1 n=f#5 v=0
207450 On ch=1 n=e4 v=0
207600 On ch=1 n=a5 v=86
207626 On ch=1 n=e5 v=96
207634 On ch=1 n=c5 v=88
207662 On ch=1 n=g5 v=0
207762 Par ch=1 c=64 v=63
207774 Par ch=1 c=64 v=0
207910 Par ch=1 c=64 v=63
207930 Par ch=1 c=64 v=127
208140 On ch=1 n=d5 v=92
208150 On ch=1 n=f#5 v=98
208186 On ch=1 n=e5 v=0
208216 On ch=1 n=a5 v=0
208240 Par ch=1 c=64 v=63
208266 Par ch=1 c=64 v=0
208362 Par ch=1 c=64 v=63
208392 Par ch=1 c=64 v=127
208496 On ch=1 n=c5 v=0
208786 On ch=1 n=b5 v=90
208804 On ch=1 n=g4 v=60
208842 On ch=1 n=f#5 v=0
208852 Par ch=1 c=64 v=63
208868 Par ch=1 c=64 v=0
209064 Par ch=1 c=64 v=63
209078 Par ch=1 c=64 v=127
209220 On ch=1 n=a4 v=69
209250 On ch=1 n=g4 v=0
209526 On ch=1 n=b5 v=0
209542 On ch=1 n=b4 v=66
209604 On ch=1 n=a4 v=0
209656 On ch=1 n=d5 v=0
209782 On ch=1 n=b4 v=0
209890 On ch=1 n=g5 v=56
209914 On ch=1 n=e5 v=63
209918 On ch=1 n=c5 v=55
209930 Par ch=1 c=64 v=63
209946 Par ch=1 c=64 v=0
210032 Par ch=1 c=64 v=63
210054 Par ch=1 c=64 v=127
210270 On ch=1 n=e5 v=0
210410 On ch=1 n=g5 v=0
210434 On ch=1 n=c5 v=0
210498 On ch=1 n=d5 v=64
210516 On ch=1 n=f#5 v=57
210522 On ch=1 n=a4 v=39
210572 Par ch=1 c=64 v=63
210588 Par ch=1 c=64 v=0
210634 Par ch=1 c=64 v=63
210674 Par ch=1 c=64 v=127
210888 On ch=1 n=a4 v=0
210996 On ch=1 n=f#5 v=0
210998 On ch=1 n=d5 v=0
211340 On ch=1 n=e4 v=51
211350 On ch=1 n=e5 v=56
211432 Par ch=1 c=64 v=63
211442 Par ch=1 c=64 v=0
211570 Par ch=1 c=64 v=63
211582 Par ch=1 c=64 v=127
211954 On ch=1 n=e5 v=0
212194 On ch=1 n=g4 v=64
212610 On ch=1 n=e4 v=0
212732 On ch=1 n=g4 v=0
212770 On ch=1 n=f4 v=80
213240 On ch=1 n=f4 v=0
213320 On ch=1 n=c5 v=84
213330 On ch=1 n=a4 v=84
213356 On ch=1 n=d4 v=42
213386 Par ch=1 c=64 v=63
213398 Par ch=1 c=64 v=0
213510 Par ch=1 c=64 v=63
213530 Par ch=1 c=64 v=127
213578 On ch=1 n=d4 v=0
213762 On ch=1 n=a4 v=0
213890 On ch=1 n=c5 v=0
213908 On ch=1 n=g4 v=85
213910 On ch=1 n=b4 v=89
213930 Par ch=1 c=64 v=63
213942 Par ch=1 c=64 v=0
213990 Par ch=1 c=64 v=63
214020 Par ch=1 c=64 v=127
214140 On ch=1 n=b4 v=0
214194 Par ch=1 c=64 v=63
214212 Par ch=1 c=64 v=127
214352 On ch=1 n=a4 v=77
214354 On ch=1 n=g4 v=0
214514 On ch=1 n=g5 v=92
214530 On ch=1 n=d5 v=76
214624 Par ch=1 c=64 v=63
214628 Par ch=1 c=64 v=0
214716 On ch=1 n=b4 v=92
214728 Par ch=1 c=64 v=63
214740 Par ch=1 c=64 v=127
214784 On ch=1 n=a4 v=0
214922 On ch=1 n=d5 v=0
215066 On ch=1 n=b4 v=0
215092 On ch=1 n=g5 v=0
215124 On ch=1 n=f5 v=87
215132 Par ch=1 c=64 v=63
215138 Par ch=1 c=64 v=0
215140 On ch=1 n=c5 v=69
215144 On ch=1 n=a4 v=84
215214 Par ch=1 c=64 v=63
215230 Par ch=1 c=64 v=127
215320 On ch=1 n=a4 v=0
215454 On ch=1 n=c5 v=0
215492 On ch=1 n=d5 v=96
215540 On ch=1 n=f5 v=0
215666 On ch=1 n=c6 v=94
215678 On ch=1 n=a5 v=88
215786 Par ch=1 c=64 v=63
215794 Par ch=1 c=64 v=0
215870 On ch=1 n=e5 v=87
215872 Par ch=1 c=64 v=63
215890 Par ch=1 c=64 v=127
215964 On ch=1 n=d5 v=0
216074 On ch=1 n=c6 v=0
216100 On ch=1 n=a5 v=0
216228 On ch=1 n=e5 v=0
216246 On ch=1 n=b5 v=94
216268 On ch=1 n=f5 v=90
216270 Par ch=1 c=64 v=63
216270 On ch=1 n=g5 v=89
216276 Par ch=1 c=64 v=0
216482 Par ch=1 c=64 v=63
216490 Par ch=1 c=64 v=127
216638 On ch=1 n=a5 v=101
216672 On ch=1 n=g5 v=0
216770 On ch=1 n=f5 v=0
216826 On ch=1 n=d6 v=98
216830 On ch=1 n=b5 v=0
216838 On ch=1 n=g5 v=77
216954 Par ch=1 c=64 v=63
216962 Par ch=1 c=64 v=0
216970 On ch=1 n=a5 v=0
217024 Par ch=1 c=64 v=63
217032 On ch=1 n=b5 v=113
217046 Par ch=1 c=64 v=127
217178 On ch=1 n=d6 v=0
217206 On ch=1 n=g5 v=0
217226 On ch=1 n=b5 v=0
217460 On ch=1 n=c6 v=106
217494 On ch=1 n=e5 v=83
217520 Par ch=1 c=64 v=63
217526 Par ch=1 c=64 v=0
217578 Par ch=1 c=64 v=63
217600 Par ch=1 c=64 v=127
217766 On ch=1 n=e5 v=0
217840 On ch=1 n=c6 v=0
217868 On ch=1 n=d6 v=83
217946 On ch=1 n=d6 v=0
218088 On ch=1 n=g6 v=94
218112 On ch=1 n=a#5 v=75
218266 On ch=1 n=a#5 v=0
218294 On ch=1 n=e6 v=70
218322 On ch=1 n=g6 v=0
218586 On ch=1 n=e6 v=0
218748 On ch=1 n=f6 v=90
218750 On ch=1 n=a5 v=65
218770 On ch=1 n=d6 v=74
218794 Par ch=1 c=64 v=63
218802 Par ch=1 c=64 v=0
218854 Par ch=1 c=64 v=63
218880 Par ch=1 c=64 v=127
218966 On ch=1 n=a5 v=0
219156 On ch=1 n=f6 v=0
219176 On ch=1 n=d6 v=0
219178 On ch=1 n=g6 v=99
219320 On ch=1 n=g6 v=0
219392 On ch=1 n=f6 v=80
219402 On ch=1 n=c6 v=74
219640 On ch=1 n=a6 v=97
219806 On ch=1 n=c6 v=0
219906 On ch=1 n=a6 v=0
219998 On ch=1 n=f6 v=0
220188 On ch=1 n=b6 v=78
220194 On ch=1 n=f#6 v=55
220210 On ch=1 n=b5 v=35
220348 Par ch=1 c=64 v=63
220366 Par ch=1 c=64 v=0
220580 Par ch=1 c=64 v=63
220596 Par ch=1 c=64 v=127
221048 On ch=1 n=d7 v=60
221282 On ch=1 n=b6 v=0
222260 On ch=1 n=e7 v=63
222392 On ch=1 n=d7 v=0
222414 Par ch=1 c=64 v=63
222462 Par ch=1 c=64 v=0
222840 On ch=1 n=f#6 v=0
222888 On ch=1 n=b5 v=0
223334 On ch=1 n=a6 v=43
223414 Par ch=1 c=64 v=63
223436 Par ch=1 c=64 v=127
223638 On ch=1 n=e7 v=0
223684 On ch=1 n=a6 v=0
224178 On ch=1 n=g6 v=45
224192 On ch=1 n=e6 v=32
224362 Par ch=1 c=64 v=63
224396 Par ch=1 c=64 v=0
224782 On ch=1 n=d6 v=52
224792 On ch=1 n=a5 v=51
224798 On ch=1 n=e6 v=0
224840 Par ch=1 c=64 v=63
224866 Par ch=1 c=64 v=127
225298 On ch=1 n=a5 v=0
225426 On ch=1 n=g5 v=38
225430 On ch=1 n=b6 v=48
225432 On ch=1 n=g6 v=0
225500 Par ch=1 c=64 v=63
225534 Par ch=1 c=64 v=0
225570 On ch=1 n=d6 v=0
225730 Par ch=1 c=64 v=63
225752 Par ch=1 c=64 v=127
225926 On ch=1 n=g5 v=0
225964 On ch=1 n=b6 v=0
226066 On ch=1 n=g6 v=66
226068 On ch=1 n=f#6 v=63
226104 Par ch=1 c=64 v=63
226140 Par ch=1 c=64 v=0
226586 On ch=1 n=g6 v=0
226606 On ch=1 n=f#6 v=0
226620 On ch=1 n=b5 v=50
226632 On ch=1 n=d6 v=24
226636 On ch=1 n=e6 v=58
226702 Par ch=1 c=64 v=63
226710 Par ch=1 c=64 v=127
226882 On ch=1 n=d6 v=0
226926 On ch=1 n=b5 v=0
227198 On ch=1 n=b5 v=58
227216 On ch=1 n=g5 v=40
227256 Par ch=1 c=64 v=63
227276 Par ch=1 c=64 v=0
227358 Par ch=1 c=64 v=63
227386 Par ch=1 c=64 v=127
227524 On ch=1 n=b5 v=0
227580 On ch=1 n=e6 v=0
227686 On ch=1 n=g5 v=0
227850 On ch=1 n=e5 v=31
227878 On ch=1 n=a6 v=50
227918 Par ch=1 c=64 v=63
227960 Par ch=1 c=64 v=0
228200 Par ch=1 c=64 v=63
228216 Par ch=1 c=64 v=127
228532 On ch=1 n=g6 v=73
228548 On ch=1 n=e6 v=54
228558 On ch=1 n=a6 v=0
228604 On ch=1 n=e5 v=0
228944 On ch=1 n=e6 v=0
229052 On ch=1 n=a5 v=57
229060 On ch=1 n=d6 v=48
229084 Par ch=1 c=64 v=63
229118 Par ch=1 c=64 v=0
229226 Par ch=1 c=64 v=63
229256 Par ch=1 c=64 v=127
229474 On ch=1 n=d6 v=0
229678 On ch=1 n=g6 v=0
229732 On ch=1 n=g5 v=49
229738 On ch=1 n=a5 v=0
229738 On ch=1 n=b6 v=75
229830 Par ch=1 c=64 v=63
229862 Par ch=1 c=64 v=0
229934 Par ch=1 c=64 v=63
229972 Par ch=1 c=64 v=127
230242 On ch=1 n=b6 v=0
230268 On ch=1 n=g6 v=76
230294 On ch=1 n=g5 v=0
230302 On ch=1 n=f#6 v=61
230848 On ch=1 n=b6 v=90
230862 On ch=1 n=e5 v=50
230868 On ch=1 n=d6 v=51
230892 On ch=1 n=f#6 v=0
230904 On ch=1 n=g6 v=0
230934 Par ch=1 c=64 v=63
230958 Par ch=1 c=64 v=0
231052 Par ch=1 c=64 v=63
231074 Par ch=1 c=64 v=127
231384 On ch=1 n=b6 v=0
231430 On ch=1 n=g6 v=75
231444 On ch=1 n=f#6 v=68
231460 On ch=1 n=g5 v=39
231496 On ch=1 n=d6 v=0
231512 Par ch=1 c=64 v=63
231538 On ch=1 n=e5 v=0
231546 Par ch=1 c=64 v=0
231580 Par ch=1 c=64 v=63
231624 Par ch=1 c=64 v=127
232126 On ch=1 n=d6 v=16
232132 On ch=1 n=e6 v=48
232134 On ch=1 n=a5 v=33
232146 Par ch=1 c=64 v=63
232164 On ch=1 n=g6 v=0
232172 On ch=1 n=g5 v=0
232178 Par ch=1 c=64 v=0
232230 On ch=1 n=f#6 v=0
232274 Par ch=1 c=64 v=63
232308 Par ch=1 c=64 v=127
232532 Par ch=1 c=64 v=63
232562 Par ch=1 c=64 v=0
232646 Par ch=1 c=64 v=63
232674 Par ch=1 c=64 v=127
232872 On ch=1 n=b5 v=48
232942 On ch=1 n=d6 v=0
232992 On ch=1 n=e6 v=0
233206 On ch=1 n=a5 v=0
233726 On ch=1 n=b6 v=63
233898 Par ch=1 c=64 v=63
233914 Par ch=1 c=64 v=127
234108 Par ch=1 c=64 v=63
234116 Par ch=1 c=64 v=0
234194 Par ch=1 c=64 v=63
234214 Par ch=1 c=64 v=127
234474 On ch=1 n=c7 v=76
234564 On ch=1 n=b6 v=0
235038 On ch=1 n=a6 v=71
235040 On ch=1 n=c7 v=0
235052 On ch=1 n=c6 v=50
235060 On ch=1 n=e6 v=46
235136 Par ch=1 c=64 v=63
235138 On ch=1 n=b5 v=0
235164 Par ch=1 c=64 v=127
235566 On ch=1 n=e6 v=0
235600 On ch=1 n=a6 v=0
235622 On ch=1 n=b6 v=62
235624 On ch=1 n=d6 v=44
235652 On ch=1 n=f#6 v=50
235690 Par ch=1 c=64 v=63
235780 Par ch=1 c=64 v=127
236004 On ch=1 n=c6 v=0
236030 On ch=1 n=d6 v=0
236044 On ch=1 n=a6 v=70
236066 On ch=1 n=b6 v=0
236212 On ch=1 n=d6 v=50
236232 On ch=1 n=b5 v=38
236256 On ch=1 n=f#6 v=0
236348 Par ch=1 c=64 v=63
236430 Par ch=1 c=64 v=127
236454 On ch=1 n=g6 v=70
236534 On ch=1 n=a6 v=0
236710 On ch=1 n=d6 v=0
236768 On ch=1 n=b5 v=0
236876 On ch=1 n=f#6 v=63
236900 On ch=1 n=e6 v=49
236904 Par ch=1 c=64 v=63
236908 On ch=1 n=c6 v=36
236910 On ch=1 n=g6 v=0
236978 Par ch=1 c=64 v=127
237128 On ch=1 n=e6 v=0
237190 On ch=1 n=c6 v=0
237354 On ch=1 n=d6 v=62
237402 On ch=1 n=f#6 v=0
237520 On ch=1 n=d6 v=0
237548 On ch=1 n=a5 v=47
237550 On ch=1 n=a6 v=54
237776 On ch=1 n=a5 v=0
237780 On ch=1 n=a6 v=0
237784 On ch=1 n=c6 v=74
238042 On ch=1 n=c6 v=0
238320 On ch=1 n=b5 v=52
238328 On ch=1 n=e6 v=65
238414 Par ch=1 c=64 v=63
238512 Par ch=1 c=64 v=127
238754 On ch=1 n=a5 v=47
238766 On ch=1 n=b5 v=0
238970 On ch=1 n=d6 v=68
238994 On ch=1 n=a5 v=0
239178 On ch=1 n=g5 v=57
239350 On ch=1 n=d6 v=0
239384 On ch=1 n=g5 v=0
239664 On ch=1 n=a5 v=32
239704 On ch=1 n=f#5 v=52
239836 Par ch=1 c=64 v=63
239868 Par ch=1 c=64 v=0
239946 Par ch=1 c=64 v=63
239980 Par ch=1 c=64 v=127
240374 On ch=1 n=a5 v=0
240670 On ch=1 n=a5 v=31
240690 On ch=1 n=f#5 v=0
241784 On ch=1 n=e6 v=0
241844 On ch=1 n=a5 v=0
242292 On ch=1 n=e6 v=32
242298 On ch=1 n=b5 v=39
242346 On ch=1 n=e5 v=16
242426 Par ch=1 c=64 v=63
242550 Par ch=1 c=64 v=0
245612 On ch=1 n=e6 v=0
245616 On ch=1 n=b5 v=0
245656 On ch=1 n=e5 v=0
245656 Meta TrkEnd
TrkEnd
