MFile 1 2 480
MTrk
0 Tempo 500000
0 TimeSig 2/4 24 8
0 Meta TrkEnd
TrkEnd
MTrk
0 SeqSpec 43 00 01 00
0 Meta TrkName "<Master Volume>"
0 Meta 0x21 00
0 SysEx f0 41 10 42 12 40 00 7f 00 41 f7
0 SysEx f0 41 10 42 12 40 00 04 64 58 f7
192 Meta Text "<Master Reverve>"
192 SysEx f0 41 10 42 12 40 01 30 03 0c f7
192 SysEx f0 41 10 42 12 40 01 33 3c 50 f7
192 SysEx f0 41 10 42 12 40 01 34 3c 4f f7
576 Par ch=1 c=0 v=0
580 Par ch=1 c=32 v=1
584 PrCh ch=1 p=0
642 Par ch=1 c=67 v=0
780 Par ch=1 c=7 v=100
972 Par ch=1 c=11 v=100
1164 Par ch=1 c=10 v=64
1356 Par ch=1 c=1 v=0
1356 Meta Text "<part reverve>"
1356 Par ch=1 c=91 v=80
1374 Par ch=1 c=67 v=0
1452 Par ch=1 c=99 v=1
1456 Par ch=1 c=98 v=32
1460 Par ch=1 c=6 v=62
1464 Par ch=1 c=99 v=1
1468 Par ch=1 c=98 v=33
1472 Par ch=1 c=6 v=54
1476 Par ch=1 c=99 v=1
1480 Par ch=1 c=98 v=99
1484 Par ch=1 c=6 v=62
1488 Par ch=1 c=99 v=1
1492 Par ch=1 c=98 v=100
1496 Par ch=1 c=6 v=60
1500 Par ch=1 c=99 v=1
1504 Par ch=1 c=98 v=102
1508 Par ch=1 c=6 v=70
1604 Par ch=1 c=67 v=127
1946 On ch=1 n=e6 v=115
1990 On ch=1 n=e6 v=0
2078 On ch=1 n=e6 v=71
2112 On ch=1 n=e6 v=0
2192 On ch=1 n=e6 v=90
2242 On ch=1 n=e6 v=0
2292 On ch=1 n=e6 v=79
2348 On ch=1 n=e6 v=0
2406 On ch=1 n=e6 v=113
2444 On ch=1 n=e6 v=0
2506 On ch=1 n=e6 v=79
2556 On ch=1 n=e6 v=0
2626 On ch=1 n=e6 v=85
2676 On ch=1 n=e6 v=0
2722 On ch=1 n=e6 v=75
2778 On ch=1 n=e6 v=0
2850 On ch=1 n=e6 v=116
2886 On ch=1 n=e6 v=0
2948 On ch=1 n=e6 v=83
2996 On ch=1 n=e6 v=0
3066 On ch=1 n=e6 v=88
3116 On ch=1 n=e6 v=0
3170 On ch=1 n=e6 v=72
3226 On ch=1 n=e6 v=0
3286 On ch=1 n=e6 v=116
3326 On ch=1 n=e6 v=0
3394 On ch=1 n=e6 v=90
3442 On ch=1 n=e6 v=0
3504 On ch=1 n=e6 v=80
3560 On ch=1 n=e6 v=0
3600 On ch=1 n=e6 v=77
3676 On ch=1 n=e6 v=0
3728 On ch=1 n=g6 v=82
3730 On ch=1 n=b6 v=80
3734 On ch=1 n=f#6 v=84
3820 On ch=1 n=g6 v=0
3826 On ch=1 n=e6 v=70
3858 On ch=1 n=f#6 v=0
3892 On ch=1 n=b6 v=0
3908 On ch=1 n=e6 v=0
3966 On ch=1 n=d6 v=83
3966 On ch=1 n=b5 v=76
4028 On ch=1 n=b5 v=0
4032 On ch=1 n=d6 v=0
4062 On ch=1 n=e6 v=81
4132 On ch=1 n=e6 v=0
4182 On ch=1 n=b6 v=86
4184 On ch=1 n=g6 v=82
4184 On ch=1 n=f#6 v=89
4280 On ch=1 n=e6 v=78
4292 On ch=1 n=g6 v=0
4302 On ch=1 n=f#6 v=0
4330 On ch=1 n=b6 v=0
4340 On ch=1 n=e6 v=0
4410 On ch=1 n=d6 v=82
4416 On ch=1 n=b5 v=62
4468 On ch=1 n=b5 v=0
4482 On ch=1 n=d6 v=0
4500 On ch=1 n=e6 v=86
4566 On ch=1 n=e6 v=0
4626 On ch=1 n=f#6 v=88
4626 On ch=1 n=g6 v=79
4630 On ch=1 n=b6 v=68
4722 On ch=1 n=e6 v=78
4754 On ch=1 n=f#6 v=0
4760 On ch=1 n=g6 v=0
4780 On ch=1 n=b6 v=0
4788 On ch=1 n=e6 v=0
4846 On ch=1 n=d6 v=83
4850 On ch=1 n=b5 v=65
4918 On ch=1 n=b5 v=0
4922 On ch=1 n=d6 v=0
4942 On ch=1 n=e6 v=84
5006 On ch=1 n=e6 v=0
5068 On ch=1 n=b6 v=84
5070 On ch=1 n=g6 v=81
5074 On ch=1 n=f#6 v=87
5160 On ch=1 n=b6 v=0
5166 On ch=1 n=e6 v=81
5168 On ch=1 n=g6 v=0
5180 On ch=1 n=f#6 v=0
5224 On ch=1 n=e6 v=0
5292 On ch=1 n=b5 v=62
5292 On ch=1 n=d6 v=68
5352 On ch=1 n=b5 v=0
5354 On ch=1 n=d6 v=0
5388 On ch=1 n=e6 v=80
5464 On ch=1 n=e6 v=0
5514 On ch=1 n=b5 v=87
5516 On ch=1 n=d7 v=102
5520 On ch=1 n=g6 v=71
5522 On ch=1 n=b6 v=85
5524 On ch=1 n=e5 v=71
5526 On ch=1 n=f#6 v=100
5546 On ch=1 n=b5 v=0
5554 On ch=1 n=e5 v=0
5566 On ch=1 n=g6 v=0
5576 On ch=1 n=b6 v=0
5592 On ch=1 n=f#6 v=0
5592 On ch=1 n=d7 v=0
5618 On ch=1 n=e6 v=60
5690 On ch=1 n=e6 v=0
5758 On ch=1 n=d6 v=88
5806 On ch=1 n=d6 v=0
5836 On ch=1 n=e6 v=76
5906 On ch=1 n=e6 v=0
5956 On ch=1 n=b5 v=81
5960 On ch=1 n=b6 v=77
5962 On ch=1 n=f#6 v=90
5962 On ch=1 n=d7 v=80
5966 On ch=1 n=e5 v=76
5972 On ch=1 n=g6 v=74
5980 On ch=1 n=b5 v=0
6002 On ch=1 n=e5 v=0
6020 On ch=1 n=g6 v=0
6022 On ch=1 n=d7 v=0
6026 On ch=1 n=b6 v=0
6028 On ch=1 n=f#6 v=0
6044 On ch=1 n=e6 v=69
6136 On ch=1 n=e6 v=0
6176 On ch=1 n=b4 v=83
6176 On ch=1 n=f#5 v=94
6182 On ch=1 n=a5 v=73
6186 On ch=1 n=a6 v=87
6188 On ch=1 n=e7 v=76
6188 On ch=1 n=c#7 v=80
6190 On ch=1 n=f#6 v=94
6206 On ch=1 n=b4 v=0
6208 On ch=1 n=f#5 v=0
6220 On ch=1 n=a5 v=0
6230 On ch=1 n=f#6 v=0
6248 On ch=1 n=e7 v=0
6262 On ch=1 n=a6 v=0
6270 On ch=1 n=c#7 v=0
6276 On ch=1 n=e6 v=75
6376 On ch=1 n=e6 v=0
6408 On ch=1 n=b5 v=107
6414 On ch=1 n=e5 v=88
6416 On ch=1 n=b6 v=87
6416 On ch=1 n=d7 v=97
6416 On ch=1 n=g6 v=99
6418 On ch=1 n=f#6 v=101
6444 On ch=1 n=b5 v=0
6446 On ch=1 n=e5 v=0
6462 On ch=1 n=g6 v=0
6494 On ch=1 n=d7 v=0
6494 On ch=1 n=b6 v=0
6504 On ch=1 n=f#6 v=0
6512 On ch=1 n=e6 v=46
6598 On ch=1 n=e6 v=0
6648 On ch=1 n=d6 v=90
6706 On ch=1 n=d6 v=0
6736 On ch=1 n=e6 v=74
6816 On ch=1 n=e6 v=0
6848 On ch=1 n=g6 v=90
6858 On ch=1 n=b5 v=90
6866 On ch=1 n=b6 v=78
6868 On ch=1 n=f#6 v=86
6870 On ch=1 n=e5 v=80
6874 On ch=1 n=d7 v=78
6886 On ch=1 n=b5 v=0
6888 On ch=1 n=g6 v=0
6910 On ch=1 n=e5 v=0
6930 On ch=1 n=d7 v=0
6936 On ch=1 n=f#6 v=0
6944 On ch=1 n=b6 v=0
6946 On ch=1 n=e6 v=75
7048 On ch=1 n=e6 v=0
7078 On ch=1 n=f#6 v=103
7084 On ch=1 n=e7 v=84
7086 On ch=1 n=b4 v=86
7086 On ch=1 n=f#5 v=96
7086 On ch=1 n=a6 v=82
7088 On ch=1 n=c#7 v=80
7090 On ch=1 n=a5 v=80
7120 On ch=1 n=f#6 v=0
7124 On ch=1 n=f#5 v=0
7128 On ch=1 n=b4 v=0
7130 On ch=1 n=a5 v=0
7146 On ch=1 n=e7 v=0
7168 On ch=1 n=a6 v=0
7180 On ch=1 n=c#7 v=0
7182 On ch=1 n=e6 v=67
7278 On ch=1 n=e6 v=0
7306 On ch=1 n=g6 v=101
7308 On ch=1 n=b5 v=106
7316 On ch=1 n=e5 v=85
7316 On ch=1 n=b6 v=84
7318 On ch=1 n=f#6 v=99
7320 On ch=1 n=d7 v=91
7346 On ch=1 n=e5 v=0
7350 On ch=1 n=b5 v=0
7352 On ch=1 n=g6 v=0
7392 On ch=1 n=d7 v=0
7396 On ch=1 n=b6 v=0
7400 On ch=1 n=e6 v=75
7406 On ch=1 n=f#6 v=0
7470 On ch=1 n=e6 v=0
7544 On ch=1 n=d6 v=90
7598 On ch=1 n=d6 v=0
7628 On ch=1 n=e6 v=71
7706 On ch=1 n=e6 v=0
7744 On ch=1 n=b5 v=97
7750 On ch=1 n=f#6 v=96
7750 On ch=1 n=b6 v=82
7754 On ch=1 n=g6 v=96
7758 On ch=1 n=d7 v=85
7758 On ch=1 n=e5 v=82
7776 On ch=1 n=b5 v=0
7792 On ch=1 n=e5 v=0
7800 On ch=1 n=g6 v=0
7826 On ch=1 n=b6 v=0
7830 On ch=1 n=d7 v=0
7830 On ch=1 n=f#6 v=0
7838 On ch=1 n=e6 v=75
7936 On ch=1 n=e6 v=0
7974 On ch=1 n=f#5 v=92
7974 On ch=1 n=b4 v=80
7976 On ch=1 n=a6 v=86
7978 On ch=1 n=c#7 v=84
7978 On ch=1 n=e7 v=76
7980 On ch=1 n=a5 v=75
7988 On ch=1 n=f#6 v=98
8010 On ch=1 n=b4 v=0
8010 On ch=1 n=f#5 v=0
8018 On ch=1 n=a5 v=0
8030 On ch=1 n=f#6 v=0
8040 On ch=1 n=e7 v=0
8048 On ch=1 n=a6 v=0
8060 On ch=1 n=c#7 v=0
8066 On ch=1 n=e6 v=70
8174 On ch=1 n=e6 v=0
8200 On ch=1 n=b5 v=96
8202 On ch=1 n=b6 v=84
8202 On ch=1 n=g6 v=96
8206 On ch=1 n=f#6 v=89
8208 On ch=1 n=d7 v=86
8208 On ch=1 n=e5 v=84
8232 On ch=1 n=b5 v=0
8248 On ch=1 n=e5 v=0
8248 On ch=1 n=g6 v=0
8280 On ch=1 n=d7 v=0
8280 On ch=1 n=b6 v=0
8282 On ch=1 n=f#6 v=0
8284 On ch=1 n=e6 v=76
8384 On ch=1 n=e6 v=0
8420 On ch=1 n=f#6 v=107
8424 On ch=1 n=a5 v=93
8426 On ch=1 n=b4 v=97
8428 On ch=1 n=f#5 v=106
8428 On ch=1 n=e7 v=71
8430 On ch=1 n=c#7 v=81
8432 On ch=1 n=a6 v=82
8464 On ch=1 n=f#6 v=0
8466 On ch=1 n=f#5 v=0
8466 On ch=1 n=b4 v=0
8466 On ch=1 n=a5 v=0
8484 On ch=1 n=e7 v=0
8496 On ch=1 n=c#7 v=0
8502 On ch=1 n=a6 v=0
8518 On ch=1 n=e6 v=75
8626 On ch=1 n=e6 v=0
8638 On ch=1 n=g6 v=97
8646 On ch=1 n=b5 v=100
8652 On ch=1 n=e5 v=83
8654 On ch=1 n=b6 v=83
8658 On ch=1 n=f#6 v=89
8662 On ch=1 n=d7 v=85
8674 On ch=1 n=b5 v=0
8682 On ch=1 n=g6 v=0
8688 On ch=1 n=e5 v=0
8728 On ch=1 n=f#6 v=0
8728 On ch=1 n=b6 v=0
8736 On ch=1 n=e6 v=68
8746 On ch=1 n=d7 v=0
8832 On ch=1 n=e6 v=0
8856 On ch=1 n=f#6 v=108
8866 On ch=1 n=f#5 v=104
8870 On ch=1 n=b4 v=90
8872 On ch=1 n=a5 v=81
8874 On ch=1 n=e7 v=83
8876 On ch=1 n=c#7 v=82
8880 On ch=1 n=a6 v=82
8896 On ch=1 n=f#6 v=0
8902 On ch=1 n=b4 v=0
8904 On ch=1 n=a5 v=0
8906 On ch=1 n=f#5 v=0
8938 On ch=1 n=e7 v=0
8960 On ch=1 n=e6 v=78
8964 On ch=1 n=c#7 v=0
8968 On ch=1 n=a6 v=0
9012 On ch=1 n=e6 v=0
9078 On ch=1 n=b6 v=77
9104 On ch=1 n=b5 v=97
9108 On ch=1 n=e5 v=83
9110 On ch=1 n=d7 v=72
9112 On ch=1 n=f#7 v=94
9148 On ch=1 n=b5 v=0
9160 On ch=1 n=e5 v=0
9180 On ch=1 n=d7 v=0
9182 On ch=1 n=b6 v=0
9184 On ch=1 n=f#7 v=0
9196 On ch=1 n=f#6 v=86
9250 On ch=1 n=f#6 v=0
9322 On ch=1 n=f#6 v=97
9324 On ch=1 n=g5 v=68
9354 On ch=1 n=g5 v=0
9374 On ch=1 n=f#6 v=0
9406 On ch=1 n=f#6 v=87
9496 On ch=1 n=f#6 v=0
9534 On ch=1 n=b5 v=89
9538 On ch=1 n=f#7 v=88
9540 On ch=1 n=d7 v=83
9580 On ch=1 n=b5 v=0
9604 On ch=1 n=d7 v=0
9624 On ch=1 n=f#7 v=0
9642 On ch=1 n=f#6 v=59
9702 On ch=1 n=f#6 v=0
9752 On ch=1 n=f#6 v=88
9754 On ch=1 n=d6 v=87
9796 On ch=1 n=d6 v=0
9806 On ch=1 n=f#6 v=0
9842 On ch=1 n=f#6 v=75
9932 On ch=1 n=f#6 v=0
9974 On ch=1 n=e6 v=85
9976 On ch=1 n=f#7 v=88
9982 On ch=1 n=d7 v=82
10032 On ch=1 n=e6 v=0
10044 On ch=1 n=d7 v=0
10052 On ch=1 n=f#7 v=0
10070 On ch=1 n=f#6 v=73
10134 On ch=1 n=f#6 v=0
10196 On ch=1 n=f#6 v=93
10202 On ch=1 n=g6 v=66
10242 On ch=1 n=g6 v=0
10244 On ch=1 n=f#6 v=0
10286 On ch=1 n=f#6 v=60
10376 On ch=1 n=f#6 v=0
10410 On ch=1 n=f#7 v=82
10418 On ch=1 n=b6 v=84
10420 On ch=1 n=d7 v=79
10472 On ch=1 n=b6 v=0
10474 On ch=1 n=d7 v=0
10488 On ch=1 n=f#7 v=0
10502 On ch=1 n=f#6 v=68
10552 On ch=1 n=f#6 v=0
10632 On ch=1 n=f#6 v=96
10634 On ch=1 n=d7 v=91
10678 On ch=1 n=d7 v=0
10682 On ch=1 n=f#6 v=0
10730 On ch=1 n=f#6 v=63
10814 On ch=1 n=f#6 v=0
10876 On ch=1 n=f#6 v=95
10882 On ch=1 n=f#7 v=97
10884 On ch=1 n=b6 v=85
10890 On ch=1 n=d7 v=72
10910 On ch=1 n=b6 v=0
10914 On ch=1 n=d7 v=0
10920 On ch=1 n=f#6 v=0
10936 On ch=1 n=f#7 v=0
10988 On ch=1 n=f#6 v=83
11036 On ch=1 n=f#6 v=0
11110 On ch=1 n=a7 v=97
11116 On ch=1 n=a6 v=90
11116 On ch=1 n=f#7 v=91
11120 On ch=1 n=d7 v=97
11140 On ch=1 n=d7 v=0
11160 On ch=1 n=f#7 v=0
11164 On ch=1 n=a7 v=0
11168 On ch=1 n=a6 v=0
11224 On ch=1 n=a6 v=74
11272 On ch=1 n=a6 v=0
11340 On ch=1 n=f#7 v=104
11344 On ch=1 n=b6 v=91
11346 On ch=1 n=f#6 v=105
11346 On ch=1 n=d7 v=92
11372 On ch=1 n=d7 v=0
11378 On ch=1 n=b6 v=0
11394 On ch=1 n=f#6 v=0
11404 On ch=1 n=f#7 v=0
11452 On ch=1 n=f#6 v=84
11498 On ch=1 n=f#6 v=0
11572 On ch=1 n=g6 v=93
11572 On ch=1 n=g7 v=108
11580 On ch=1 n=d7 v=93
11582 On ch=1 n=b6 v=87
11602 On ch=1 n=d7 v=0
11608 On ch=1 n=b6 v=0
11630 On ch=1 n=g7 v=0
11630 On ch=1 n=g6 v=0
11680 On ch=1 n=g6 v=72
11740 On ch=1 n=g6 v=0
11798 On ch=1 n=d7 v=98
11800 On ch=1 n=e7 v=99
11800 On ch=1 n=b6 v=90
11800 On ch=1 n=e6 v=98
11844 On ch=1 n=b6 v=0
11846 On ch=1 n=d7 v=0
11854 On ch=1 n=e7 v=0
11856 On ch=1 n=e6 v=0
11904 On ch=1 n=e6 v=86
11968 On ch=1 n=e6 v=0
12034 On ch=1 n=d7 v=103
12036 On ch=1 n=d6 v=102
12038 On ch=1 n=b6 v=84
12038 On ch=1 n=g6 v=92
12066 On ch=1 n=b6 v=0
12080 On ch=1 n=g6 v=0
12084 On ch=1 n=d6 v=0
12086 On ch=1 n=d7 v=0
12138 On ch=1 n=d6 v=84
12214 On ch=1 n=d6 v=0
12262 On ch=1 n=b6 v=97
12266 On ch=1 n=g6 v=87
12268 On ch=1 n=e6 v=91
12268 On ch=1 n=b5 v=83
12296 On ch=1 n=e6 v=0
12300 On ch=1 n=g6 v=0
12320 On ch=1 n=b5 v=0
12320 On ch=1 n=b6 v=0
12364 On ch=1 n=b5 v=85
12436 On ch=1 n=b5 v=0
12496 On ch=1 n=d6 v=98
12498 On ch=1 n=d7 v=94
12498 On ch=1 n=b6 v=84
12500 On ch=1 n=g6 v=89
12526 On ch=1 n=b6 v=0
12532 On ch=1 n=g6 v=0
12542 On ch=1 n=d7 v=0
12552 On ch=1 n=d6 v=0
12596 On ch=1 n=d6 v=80
12660 On ch=1 n=d6 v=0
12718 On ch=1 n=a6 v=109
12718 On ch=1 n=a5 v=111
12724 On ch=1 n=e6 v=106
12726 On ch=1 n=g6 v=96
12750 On ch=1 n=e6 v=0
12772 On ch=1 n=g6 v=0
12772 On ch=1 n=a6 v=0
12776 On ch=1 n=a5 v=0
12836 On ch=1 n=a5 v=79
12878 On ch=1 n=a5 v=0
12948 On ch=1 n=a5 v=76
13002 On ch=1 n=a5 v=0
13040 On ch=1 n=a5 v=81
13116 On ch=1 n=a5 v=0
13172 On ch=1 n=b5 v=114
13174 On ch=1 n=b6 v=106
13178 On ch=1 n=g6 v=102
13180 On ch=1 n=e6 v=106
13214 On ch=1 n=e6 v=0
13220 On ch=1 n=g6 v=0
13230 On ch=1 n=b5 v=0
13232 On ch=1 n=b6 v=0
13278 On ch=1 n=b5 v=91
13340 On ch=1 n=b5 v=0
13404 On ch=1 n=b5 v=84
13456 On ch=1 n=b5 v=0
13502 On ch=1 n=b5 v=92
13568 On ch=1 n=b5 v=0
13622 On ch=1 n=f#7 v=103
13626 On ch=1 n=b6 v=88
13630 On ch=1 n=d7 v=84
13630 On ch=1 n=f#6 v=96
13664 On ch=1 n=f#6 v=0
13684 On ch=1 n=d7 v=0
13688 On ch=1 n=b6 v=0
13704 On ch=1 n=f#7 v=0
13742 On ch=1 n=f#6 v=85
13806 On ch=1 n=f#6 v=0
13858 On ch=1 n=e5 v=84
13858 On ch=1 n=f#6 v=93
13900 On ch=1 n=e5 v=0
13906 On ch=1 n=f#6 v=0
13950 On ch=1 n=f#6 v=81
14028 On ch=1 n=f#6 v=0
14074 On ch=1 n=b5 v=94
14080 On ch=1 n=f#7 v=90
14088 On ch=1 n=b6 v=84
14092 On ch=1 n=d7 v=73
14124 On ch=1 n=b5 v=0
14144 On ch=1 n=d7 v=0
14150 On ch=1 n=b6 v=0
14154 On ch=1 n=f#7 v=0
14198 On ch=1 n=f#6 v=83
14256 On ch=1 n=f#6 v=0
14314 On ch=1 n=d6 v=81
14316 On ch=1 n=f#6 v=90
14358 On ch=1 n=f#6 v=0
14358 On ch=1 n=d6 v=0
14400 On ch=1 n=f#6 v=80
14460 On ch=1 n=f#6 v=0
14538 On ch=1 n=f#6 v=107
14542 On ch=1 n=f#7 v=104
14544 On ch=1 n=b6 v=88
14546 On ch=1 n=d7 v=93
14572 On ch=1 n=d7 v=0
14576 On ch=1 n=b6 v=0
14580 On ch=1 n=f#6 v=0
14598 On ch=1 n=f#7 v=0
14638 On ch=1 n=f#6 v=93
14696 On ch=1 n=f#6 v=0
14774 On ch=1 n=a7 v=92
14774 On ch=1 n=a6 v=93
14776 On ch=1 n=d7 v=99
14780 On ch=1 n=f#7 v=86
14802 On ch=1 n=d7 v=0
14816 On ch=1 n=f#7 v=0
14822 On ch=1 n=a7 v=0
14826 On ch=1 n=a6 v=0
14884 On ch=1 n=a6 v=72
14928 On ch=1 n=a6 v=0
15004 On ch=1 n=f#7 v=96
15004 On ch=1 n=b6 v=86
15006 On ch=1 n=f#6 v=96
15008 On ch=1 n=d7 v=82
15032 On ch=1 n=d7 v=0
15040 On ch=1 n=b6 v=0
15050 On ch=1 n=f#6 v=0
15050 On ch=1 n=f#7 v=0
15112 On ch=1 n=f#6 v=86
15170 On ch=1 n=f#6 v=0
15234 On ch=1 n=g7 v=101
15238 On ch=1 n=g6 v=91
15238 On ch=1 n=b6 v=91
15238 On ch=1 n=d7 v=97
15264 On ch=1 n=d7 v=0
15274 On ch=1 n=b6 v=0
15284 On ch=1 n=g7 v=0
15292 On ch=1 n=g6 v=0
15340 On ch=1 n=g6 v=77
15400 On ch=1 n=g6 v=0
15468 On ch=1 n=e7 v=100
15470 On ch=1 n=e6 v=91
15470 On ch=1 n=d7 v=89
15474 On ch=1 n=b6 v=75
15500 On ch=1 n=d7 v=0
15510 On ch=1 n=b6 v=0
15518 On ch=1 n=e7 v=0
15520 On ch=1 n=e6 v=0
15576 On ch=1 n=e6 v=84
15636 On ch=1 n=e6 v=0
15708 On ch=1 n=d7 v=101
15710 On ch=1 n=b6 v=92
15714 On ch=1 n=g6 v=92
15714 On ch=1 n=d6 v=104
15750 On ch=1 n=b6 v=0
15754 On ch=1 n=g6 v=0
15760 On ch=1 n=d6 v=0
15760 On ch=1 n=d7 v=0
15806 On ch=1 n=d6 v=74
15882 On ch=1 n=d6 v=0
15940 On ch=1 n=e6 v=92
15940 On ch=1 n=b6 v=88
15940 On ch=1 n=b5 v=98
15942 On ch=1 n=g6 v=90
15976 On ch=1 n=g6 v=0
15984 On ch=1 n=e6 v=0
15994 On ch=1 n=b5 v=0
16004 On ch=1 n=b6 v=0
16040 On ch=1 n=b5 v=85
16112 On ch=1 n=b5 v=0
16166 On ch=1 n=d6 v=97
16168 On ch=1 n=d7 v=97
16168 On ch=1 n=b6 v=90
16172 On ch=1 n=g6 v=88
16198 On ch=1 n=g6 v=0
16218 On ch=1 n=d7 v=0
16220 On ch=1 n=b6 v=0
16224 On ch=1 n=d6 v=0
16278 On ch=1 n=d6 v=76
16336 On ch=1 n=d6 v=0
16396 On ch=1 n=a6 v=99
16398 On ch=1 n=a5 v=108
16400 On ch=1 n=g6 v=85
16402 On ch=1 n=e6 v=93
16430 On ch=1 n=g6 v=0
16432 On ch=1 n=e6 v=0
16444 On ch=1 n=a6 v=0
16456 On ch=1 n=a5 v=0
16510 On ch=1 n=a5 v=66
16554 On ch=1 n=a5 v=0
16626 On ch=1 n=a5 v=78
16668 On ch=1 n=a5 v=0
16728 On ch=1 n=a5 v=74
16790 On ch=1 n=a5 v=0
16844 On ch=1 n=b6 v=106
16846 On ch=1 n=g6 v=103
16846 On ch=1 n=b5 v=111
16848 On ch=1 n=e6 v=106
16882 On ch=1 n=e6 v=0
16892 On ch=1 n=g6 v=0
16892 On ch=1 n=b6 v=0
16900 On ch=1 n=b5 v=0
16950 On ch=1 n=b5 v=88
17008 On ch=1 n=b5 v=0
17066 On ch=1 n=b5 v=97
17120 On ch=1 n=b5 v=0
17176 On ch=1 n=b5 v=104
17234 On ch=1 n=b5 v=0
17284 On ch=1 n=f#7 v=105
17294 On ch=1 n=b6 v=84
17294 On ch=1 n=d7 v=80
17298 On ch=1 n=f#6 v=88
17320 On ch=1 n=f#6 v=0
17338 On ch=1 n=d7 v=0
17340 On ch=1 n=b6 v=0
17360 On ch=1 n=f#7 v=0
17404 On ch=1 n=f#6 v=87
17464 On ch=1 n=f#6 v=0
17526 On ch=1 n=e5 v=102
17528 On ch=1 n=a4 v=90
17528 On ch=1 n=f#6 v=106
17574 On ch=1 n=f#6 v=0
17574 On ch=1 n=e5 v=0
17590 On ch=1 n=a4 v=0
17622 On ch=1 n=f#6 v=81
17692 On ch=1 n=f#6 v=0
17748 On ch=1 n=b5 v=106
17754 On ch=1 n=f#7 v=84
17758 On ch=1 n=b6 v=82
17766 On ch=1 n=d7 v=71
17810 On ch=1 n=d7 v=0
17810 On ch=1 n=b5 v=0
17816 On ch=1 n=b6 v=0
17830 On ch=1 n=f#7 v=0
17850 On ch=1 n=f#6 v=78
17916 On ch=1 n=f#6 v=0
17974 On ch=1 n=f#6 v=91
17974 On ch=1 n=d6 v=108
18018 On ch=1 n=d6 v=0
18020 On ch=1 n=f#6 v=0
18060 On ch=1 n=f#6 v=79
18134 On ch=1 n=f#6 v=0
18194 On ch=1 n=f#6 v=112
18204 On ch=1 n=d7 v=94
18206 On ch=1 n=f#7 v=100
18210 On ch=1 n=b6 v=84
18242 On ch=1 n=f#6 v=0
18244 On ch=1 n=b6 v=0
18252 On ch=1 n=d7 v=0
18266 On ch=1 n=f#7 v=0
18308 On ch=1 n=f#6 v=88
18368 On ch=1 n=f#6 v=0
18432 On ch=1 n=a7 v=98
18436 On ch=1 n=f#7 v=93
18436 On ch=1 n=d7 v=98
18438 On ch=1 n=a6 v=101
18464 On ch=1 n=d7 v=0
18484 On ch=1 n=a7 v=0
18488 On ch=1 n=f#7 v=0
18490 On ch=1 n=a6 v=0
18530 On ch=1 n=a6 v=73
18586 On ch=1 n=a6 v=0
18656 On ch=1 n=f#7 v=100
18662 On ch=1 n=b6 v=88
18662 On ch=1 n=d7 v=89
18668 On ch=1 n=f#6 v=97
18688 On ch=1 n=d7 v=0
18698 On ch=1 n=b6 v=0
18708 On ch=1 n=f#6 v=0
18714 On ch=1 n=f#7 v=0
18768 On ch=1 n=f#6 v=83
18822 On ch=1 n=f#6 v=0
18894 On ch=1 n=g7 v=84
18896 On ch=1 n=g6 v=94
18896 On ch=1 n=d7 v=92
18896 On ch=1 n=b6 v=89
18920 On ch=1 n=d7 v=0
18936 On ch=1 n=b6 v=0
18944 On ch=1 n=g7 v=0
18952 On ch=1 n=g6 v=0
18996 On ch=1 n=g6 v=68
19058 On ch=1 n=g6 v=0
19126 On ch=1 n=e7 v=97
19126 On ch=1 n=b6 v=90
19128 On ch=1 n=d7 v=88
19132 On ch=1 n=e6 v=96
19152 On ch=1 n=d7 v=0
19166 On ch=1 n=b6 v=0
19176 On ch=1 n=e7 v=0
19182 On ch=1 n=e6 v=0
19226 On ch=1 n=e6 v=81
19298 On ch=1 n=e6 v=0
19356 On ch=1 n=d7 v=97
19360 On ch=1 n=b6 v=84
19362 On ch=1 n=g6 v=88
19364 On ch=1 n=d6 v=98
19388 On ch=1 n=b6 v=0
19398 On ch=1 n=g6 v=0
19404 On ch=1 n=d6 v=0
19412 On ch=1 n=d7 v=0
19460 On ch=1 n=d6 v=84
19526 On ch=1 n=d6 v=0
19584 On ch=1 n=b6 v=88
19584 On ch=1 n=e6 v=91
19586 On ch=1 n=g6 v=87
19590 On ch=1 n=b5 v=98
19616 On ch=1 n=g6 v=0
19620 On ch=1 n=e6 v=0
19642 On ch=1 n=b5 v=0
19642 On ch=1 n=b6 v=0
19686 On ch=1 n=b5 v=76
19768 On ch=1 n=b5 v=0
19804 On ch=1 n=d7 v=101
19810 On ch=1 n=b6 v=90
19812 On ch=1 n=g6 v=90
19832 On ch=1 n=d6 v=99
19840 On ch=1 n=g6 v=0
19856 On ch=1 n=d7 v=0
19860 On ch=1 n=b6 v=0
19880 On ch=1 n=d6 v=0
19914 On ch=1 n=d6 v=86
19970 On ch=1 n=d6 v=0
20094 On ch=1 n=a4 v=89
20098 On ch=1 n=d4 v=87
20106 On ch=1 n=b6 v=91
20116 On ch=1 n=g6 v=86
20118 On ch=1 n=e6 v=89
20178 On ch=1 n=e6 v=0
20186 On ch=1 n=b6 v=0
20194 On ch=1 n=d4 v=0
20202 On ch=1 n=a4 v=0
20208 On ch=1 n=g6 v=0
20250 On ch=1 n=b5 v=73
20312 On ch=1 n=b5 v=0
20374 On ch=1 n=a6 v=92
20376 On ch=1 n=c6 v=86
20378 On ch=1 n=e6 v=85
20388 On ch=1 n=a5 v=87
20416 On ch=1 n=c6 v=0
20420 On ch=1 n=a6 v=0
20426 On ch=1 n=e6 v=0
20442 On ch=1 n=a5 v=0
20474 On ch=1 n=a5 v=94
20542 On ch=1 n=a5 v=0
20596 On ch=1 n=e6 v=99
20598 On ch=1 n=a5 v=86
20600 On ch=1 n=e5 v=99
20604 On ch=1 n=c6 v=81
20630 On ch=1 n=c6 v=0
20646 On ch=1 n=a5 v=0
20656 On ch=1 n=e5 v=0
20660 On ch=1 n=e6 v=0
20700 On ch=1 n=e5 v=84
20766 On ch=1 n=e5 v=0
20814 On ch=1 n=g5 v=94
20816 On ch=1 n=g6 v=94
20820 On ch=1 n=e6 v=88
20826 On ch=1 n=c6 v=87
20848 On ch=1 n=c6 v=0
20862 On ch=1 n=e6 v=0
20868 On ch=1 n=g5 v=0
20872 On ch=1 n=g6 v=0
20926 On ch=1 n=g5 v=76
20978 On ch=1 n=g5 v=0
21048 On ch=1 n=e6 v=98
21050 On ch=1 n=c6 v=96
21050 On ch=1 n=a5 v=90
21060 On ch=1 n=e5 v=92
21096 On ch=1 n=a5 v=0
21098 On ch=1 n=c6 v=0
21102 On ch=1 n=e6 v=0
21116 On ch=1 n=e5 v=0
21164 On ch=1 n=e5 v=84
21226 On ch=1 n=e5 v=0
21284 On ch=1 n=d6 v=93
21288 On ch=1 n=b5 v=89
21288 On ch=1 n=f#5 v=99
21292 On ch=1 n=d5 v=93
21324 On ch=1 n=b5 v=0
21332 On ch=1 n=d6 v=0
21336 On ch=1 n=f#5 v=0
21346 On ch=1 n=d5 v=0
21380 On ch=1 n=d5 v=94
21456 On ch=1 n=d5 v=0
21508 On ch=1 n=a4 v=90
21510 On ch=1 n=b5 v=98
21514 On ch=1 n=g5 v=90
21516 On ch=1 n=d4 v=81
21518 On ch=1 n=e5 v=88
21554 On ch=1 n=g5 v=0
21564 On ch=1 n=e5 v=0
21568 On ch=1 n=b5 v=0
21568 On ch=1 n=a4 v=0
21582 On ch=1 n=d4 v=0
21630 On ch=1 n=c5 v=81
21700 On ch=1 n=c5 v=0
21756 On ch=1 n=a5 v=90
21758 On ch=1 n=a4 v=84
21760 On ch=1 n=c5 v=96
21760 On ch=1 n=f#5 v=87
21764 On ch=1 n=d4 v=76
21766 On ch=1 n=e5 v=83
21806 On ch=1 n=c5 v=0
21808 On ch=1 n=e5 v=0
21810 On ch=1 n=a4 v=0
21812 On ch=1 n=d4 v=0
21824 On ch=1 n=f#5 v=0
21870 On ch=1 n=c5 v=89
21882 On ch=1 n=a5 v=0
21932 On ch=1 n=c5 v=0
22026 On ch=1 n=d5 v=89
22026 On ch=1 n=a4 v=76
22028 On ch=1 n=b4 v=74
22034 On ch=1 n=d4 v=81
22044 On ch=1 n=g3 v=49
22086 On ch=1 n=d4 v=0
22092 On ch=1 n=g3 v=0
22118 On ch=1 n=b4 v=0
22132 On ch=1 n=a4 v=0
22148 On ch=1 n=g4 v=52
22154 On ch=1 n=d5 v=0
22194 On ch=1 n=g4 v=0
22264 On ch=1 n=e4 v=83
22318 On ch=1 n=e4 v=0
22348 On ch=1 n=g4 v=65
22416 On ch=1 n=g4 v=0
22474 On ch=1 n=g3 v=77
22478 On ch=1 n=d5 v=88
22480 On ch=1 n=d4 v=75
22482 On ch=1 n=a4 v=72
22484 On ch=1 n=b4 v=76
22506 On ch=1 n=d4 v=0
22510 On ch=1 n=g3 v=0
22544 On ch=1 n=b4 v=0
22546 On ch=1 n=a4 v=0
22574 On ch=1 n=g4 v=69
22582 On ch=1 n=d5 v=0
22658 On ch=1 n=g4 v=0
22710 On ch=1 n=a4 v=84
22712 On ch=1 n=d4 v=86
22720 On ch=1 n=e5 v=92
22724 On ch=1 n=c#5 v=90
22744 On ch=1 n=a4 v=0
22756 On ch=1 n=d4 v=0
22796 On ch=1 n=c#5 v=0
22798 On ch=1 n=a4 v=60
22804 On ch=1 n=e5 v=0
22912 On ch=1 n=a4 v=0
22950 On ch=1 n=d4 v=89
22950 On ch=1 n=d5 v=92
22954 On ch=1 n=a4 v=57
22954 On ch=1 n=g3 v=81
22956 On ch=1 n=b4 v=75
22978 On ch=1 n=d4 v=0
22988 On ch=1 n=g3 v=0
23038 On ch=1 n=b4 v=0
23056 On ch=1 n=g4 v=63
23058 On ch=1 n=a4 v=0
23120 On ch=1 n=d5 v=0
23126 On ch=1 n=g4 v=0
23184 On ch=1 n=e4 v=92
23236 On ch=1 n=e4 v=0
23272 On ch=1 n=g4 v=73
23350 On ch=1 n=g4 v=0
23398 On ch=1 n=d5 v=92
23402 On ch=1 n=a4 v=72
23402 On ch=1 n=b4 v=78
23404 On ch=1 n=g3 v=72
23404 On ch=1 n=d4 v=76
23432 On ch=1 n=d4 v=0
23438 On ch=1 n=g3 v=0
23478 On ch=1 n=b4 v=0
23484 On ch=1 n=a4 v=0
23496 On ch=1 n=d5 v=0
23502 On ch=1 n=g4 v=60
23586 On ch=1 n=g4 v=0
23632 On ch=1 n=a4 v=84
23638 On ch=1 n=d4 v=86
23640 On ch=1 n=e5 v=90
23640 On ch=1 n=c#5 v=95
23672 On ch=1 n=a4 v=0
23684 On ch=1 n=d4 v=0
23720 On ch=1 n=c#5 v=0
23720 On ch=1 n=a4 v=54
23730 On ch=1 n=e5 v=0
23824 On ch=1 n=a4 v=0
23866 On ch=1 n=d5 v=91
23868 On ch=1 n=d4 v=92
23872 On ch=1 n=b4 v=78
23872 On ch=1 n=g3 v=82
23872 On ch=1 n=a4 v=63
23910 On ch=1 n=d4 v=0
23916 On ch=1 n=g3 v=0
23956 On ch=1 n=b4 v=0
23976 On ch=1 n=a4 v=0
23976 On ch=1 n=g4 v=43
24054 On ch=1 n=d5 v=0
24080 On ch=1 n=g4 v=0
24108 On ch=1 n=e4 v=86
24160 On ch=1 n=e4 v=0
24204 On ch=1 n=g4 v=67
24276 On ch=1 n=g4 v=0
24318 On ch=1 n=g3 v=86
24322 On ch=1 n=d4 v=85
24332 On ch=1 n=d5 v=87
24334 On ch=1 n=a4 v=73
24336 On ch=1 n=b4 v=76
24352 On ch=1 n=d4 v=0
24370 On ch=1 n=g3 v=0
24406 On ch=1 n=b4 v=0
24414 On ch=1 n=a4 v=0
24420 On ch=1 n=d5 v=0
24430 On ch=1 n=g4 v=70
24518 On ch=1 n=g4 v=0
24556 On ch=1 n=a4 v=86
24564 On ch=1 n=d4 v=82
24566 On ch=1 n=e5 v=88
24568 On ch=1 n=c#5 v=95
24604 On ch=1 n=a4 v=0
24608 On ch=1 n=d4 v=0
24632 On ch=1 n=c#5 v=0
24642 On ch=1 n=e5 v=0
24644 On ch=1 n=a4 v=65
24750 On ch=1 n=a4 v=0
24776 On ch=1 n=b3 v=85
24780 On ch=1 n=f#4 v=88
24784 On ch=1 n=f#5 v=100
24788 On ch=1 n=d5 v=96
24822 On ch=1 n=b3 v=0
24828 On ch=1 n=f#4 v=0
24876 On ch=1 n=d5 v=0
24888 On ch=1 n=b4 v=51
24896 On ch=1 n=f#5 v=0
24992 On ch=1 n=b4 v=0
25020 On ch=1 n=g5 v=91
25020 On ch=1 n=b4 v=82
25022 On ch=1 n=e5 v=91
25024 On ch=1 n=e4 v=83
25064 On ch=1 n=b4 v=0
25072 On ch=1 n=e4 v=0
25102 On ch=1 n=b4 v=79
25104 On ch=1 n=e5 v=0
25120 On ch=1 n=g5 v=0
25192 On ch=1 n=b4 v=0
25240 On ch=1 n=a4 v=87
25244 On ch=1 n=a5 v=90
25246 On ch=1 n=d4 v=85
25248 On ch=1 n=f#5 v=97
25292 On ch=1 n=a4 v=0
25304 On ch=1 n=d4 v=0
25350 On ch=1 n=c#5 v=95
25418 On ch=1 n=c#5 v=0
25418 On ch=1 n=a5 v=0
25434 On ch=1 n=f#5 v=0
25474 On ch=1 n=c5 v=94
25482 On ch=1 n=f#4 v=94
25482 On ch=1 n=b5 v=98
25490 On ch=1 n=e5 v=82
25510 On ch=1 n=c5 v=0
25520 On ch=1 n=f#4 v=0
25552 On ch=1 n=b5 v=0
25572 On ch=1 n=e5 v=0
25578 On ch=1 n=c5 v=87
25634 On ch=1 n=c5 v=0
25706 On ch=1 n=d4 v=85
25710 On ch=1 n=g3 v=65
25718 On ch=1 n=d5 v=96
25720 On ch=1 n=b4 v=84
25722 On ch=1 n=a4 v=81
25732 On ch=1 n=d4 v=0
25744 On ch=1 n=g3 v=0
25764 On ch=1 n=b4 v=0
25774 On ch=1 n=d5 v=0
25812 On ch=1 n=a4 v=0
25818 On ch=1 n=g4 v=63
25886 On ch=1 n=g4 v=0
25950 On ch=1 n=e4 v=85
26000 On ch=1 n=e4 v=0
26044 On ch=1 n=g4 v=65
26122 On ch=1 n=g4 v=0
26164 On ch=1 n=g3 v=84
26168 On ch=1 n=d5 v=93
26176 On ch=1 n=d4 v=76
26176 On ch=1 n=a4 v=69
26178 On ch=1 n=b4 v=76
26200 On ch=1 n=d4 v=0
26208 On ch=1 n=g3 v=0
26240 On ch=1 n=d5 v=0
26242 On ch=1 n=b4 v=0
26254 On ch=1 n=a4 v=0
26270 On ch=1 n=g4 v=68
26352 On ch=1 n=g4 v=0
26402 On ch=1 n=a4 v=89
26406 On ch=1 n=e5 v=90
26410 On ch=1 n=d4 v=86
26410 On ch=1 n=c#5 v=88
26446 On ch=1 n=a4 v=0
26448 On ch=1 n=d4 v=0
26476 On ch=1 n=c#5 v=0
26490 On ch=1 n=e5 v=0
26492 On ch=1 n=a4 v=57
26604 On ch=1 n=a4 v=0
26630 On ch=1 n=b3 v=88
26630 On ch=1 n=f#5 v=99
26632 On ch=1 n=f#4 v=91
26636 On ch=1 n=d5 v=88
26674 On ch=1 n=b3 v=0
26680 On ch=1 n=f#4 v=0
26726 On ch=1 n=b4 v=65
26730 On ch=1 n=d5 v=0
26736 On ch=1 n=f#5 v=0
26832 On ch=1 n=b4 v=0
26856 On ch=1 n=g5 v=91
26864 On ch=1 n=b4 v=91
26864 On ch=1 n=e5 v=84
26868 On ch=1 n=e4 v=82
26902 On ch=1 n=b4 v=0
26920 On ch=1 n=e4 v=0
26938 On ch=1 n=e5 v=0
26942 On ch=1 n=b4 v=84
26952 On ch=1 n=g5 v=0
27036 On ch=1 n=b4 v=0
27074 On ch=1 n=a5 v=88
27074 On ch=1 n=a4 v=94
27078 On ch=1 n=d4 v=99
27078 On ch=1 n=f#5 v=99
27122 On ch=1 n=a4 v=0
27138 On ch=1 n=d4 v=0
27170 On ch=1 n=c#5 v=107
27234 On ch=1 n=f#5 v=0
27244 On ch=1 n=c#5 v=0
27250 On ch=1 n=a5 v=0
27300 On ch=1 n=c5 v=90
27310 On ch=1 n=b5 v=102
27310 On ch=1 n=f#4 v=90
27320 On ch=1 n=e5 v=72
27332 On ch=1 n=c5 v=0
27334 On ch=1 n=f#4 v=0
27374 On ch=1 n=b5 v=0
27398 On ch=1 n=e5 v=0
27404 On ch=1 n=c5 v=86
27468 On ch=1 n=c5 v=0
27528 On ch=1 n=f4 v=93
27530 On ch=1 n=a#3 v=93
27532 On ch=1 n=f5 v=78
27538 On ch=1 n=d5 v=67
27546 On ch=1 n=c5 v=72
27568 On ch=1 n=f4 v=0
27582 On ch=1 n=d5 v=0
27586 On ch=1 n=a#3 v=0
27594 On ch=1 n=f5 v=0
27648 On ch=1 n=a#4 v=90
27658 On ch=1 n=c5 v=0
27718 On ch=1 n=a#4 v=0
27764 On ch=1 n=g4 v=96
27816 On ch=1 n=g4 v=0
27866 On ch=1 n=a#4 v=74
27962 On ch=1 n=a#4 v=0
27978 On ch=1 n=a#3 v=91
27986 On ch=1 n=f4 v=82
27994 On ch=1 n=f5 v=78
28002 On ch=1 n=c5 v=71
28014 On ch=1 n=d5 v=63
28020 On ch=1 n=f4 v=0
28024 On ch=1 n=a#3 v=0
28062 On ch=1 n=f5 v=0
28078 On ch=1 n=c5 v=0
28084 On ch=1 n=a#4 v=81
28088 On ch=1 n=d5 v=0
28164 On ch=1 n=a#4 v=0
28212 On ch=1 n=c5 v=96
28216 On ch=1 n=f4 v=81
28218 On ch=1 n=g5 v=93
28224 On ch=1 n=e5 v=90
28256 On ch=1 n=c5 v=0
28262 On ch=1 n=f4 v=0
28300 On ch=1 n=e5 v=0
28300 On ch=1 n=g5 v=0
28310 On ch=1 n=c5 v=80
28392 On ch=1 n=c5 v=0
28442 On ch=1 n=f5 v=96
28450 On ch=1 n=a#3 v=82
28452 On ch=1 n=d5 v=76
28456 On ch=1 n=c5 v=76
28458 On ch=1 n=f4 v=57
28462 On ch=1 n=e4 v=47
28486 On ch=1 n=f4 v=0
28496 On ch=1 n=e4 v=0
28500 On ch=1 n=a#3 v=0
28530 On ch=1 n=f5 v=0
28536 On ch=1 n=d5 v=0
28542 On ch=1 n=c5 v=0
28558 On ch=1 n=a#4 v=88
28624 On ch=1 n=a#4 v=0
28678 On ch=1 n=g4 v=88
28730 On ch=1 n=g4 v=0
28772 On ch=1 n=a#4 v=82
28852 On ch=1 n=a#4 v=0
28886 On ch=1 n=a#3 v=89
28888 On ch=1 n=f4 v=85
28890 On ch=1 n=f5 v=83
28898 On ch=1 n=c5 v=74
28912 On ch=1 n=d5 v=57
28926 On ch=1 n=f4 v=0
28928 On ch=1 n=a#3 v=0
28954 On ch=1 n=f5 v=0
28966 On ch=1 n=c5 v=0
28970 On ch=1 n=d5 v=0
28972 On ch=1 n=a#4 v=80
29030 On ch=1 n=a#4 v=0
29114 On ch=1 n=g5 v=93
29118 On ch=1 n=f4 v=79
29122 On ch=1 n=e5 v=89
29166 On ch=1 n=f4 v=0
29190 On ch=1 n=e5 v=0
29198 On ch=1 n=g5 v=0
29206 On ch=1 n=c5 v=85
29278 On ch=1 n=c5 v=0
29330 On ch=1 n=f4 v=102
29330 On ch=1 n=f5 v=84
29332 On ch=1 n=a#3 v=94
29340 On ch=1 n=d5 v=71
29340 On ch=1 n=c5 v=72
29376 On ch=1 n=f4 v=0
29390 On ch=1 n=a#3 v=0
29396 On ch=1 n=f5 v=0
29414 On ch=1 n=d5 v=0
29424 On ch=1 n=c5 v=0
29438 On ch=1 n=a#4 v=87
29494 On ch=1 n=a#4 v=0
29562 On ch=1 n=g4 v=78
29606 On ch=1 n=g4 v=0
29650 On ch=1 n=a#4 v=81
29734 On ch=1 n=a#4 v=0
29756 On ch=1 n=a#3 v=89
29768 On ch=1 n=f4 v=77
29776 On ch=1 n=f5 v=68
29784 On ch=1 n=c5 v=71
29794 On ch=1 n=d5 v=51
29802 On ch=1 n=f4 v=0
29804 On ch=1 n=a#3 v=0
29830 On ch=1 n=f5 v=0
29850 On ch=1 n=d5 v=0
29852 On ch=1 n=a#4 v=80
29858 On ch=1 n=c5 v=0
29904 On ch=1 n=a#4 v=0
29982 On ch=1 n=g5 v=97
29986 On ch=1 n=f4 v=86
29992 On ch=1 n=e5 v=85
29998 On ch=1 n=c5 v=62
30012 On ch=1 n=b4 v=24
30022 On ch=1 n=f4 v=0
30024 On ch=1 n=c5 v=0
30034 On ch=1 n=b4 v=0
30060 On ch=1 n=e5 v=0
30076 On ch=1 n=g5 v=0
30082 On ch=1 n=c5 v=84
30158 On ch=1 n=c5 v=0
30198 On ch=1 n=d4 v=78
30204 On ch=1 n=a5 v=89
30206 On ch=1 n=a4 v=67
30212 On ch=1 n=f5 v=71
30216 On ch=1 n=e5 v=69
30244 On ch=1 n=a4 v=0
30246 On ch=1 n=e5 v=0
30256 On ch=1 n=d4 v=0
30262 On ch=1 n=f5 v=0
30290 On ch=1 n=d5 v=78
30296 On ch=1 n=a5 v=0
30392 On ch=1 n=d5 v=0
30426 On ch=1 n=g4 v=80
30428 On ch=1 n=d5 v=92
30434 On ch=1 n=a#5 v=95
30436 On ch=1 n=g5 v=84
30462 On ch=1 n=d5 v=0
30478 On ch=1 n=g4 v=0
30512 On ch=1 n=d5 v=63
30590 On ch=1 n=d5 v=0
30598 On ch=1 n=g5 v=0
30604 On ch=1 n=a#5 v=0
30650 On ch=1 n=f4 v=82
30652 On ch=1 n=c5 v=93
30654 On ch=1 n=c6 v=97
30656 On ch=1 n=a5 v=87
30696 On ch=1 n=f4 v=0
30698 On ch=1 n=c5 v=0
30730 On ch=1 n=a5 v=0
30742 On ch=1 n=e5 v=83
30758 On ch=1 n=c6 v=0
30826 On ch=1 n=e5 v=0
30862 On ch=1 n=d#5 v=108
30862 On ch=1 n=d6 v=100
30864 On ch=1 n=a5 v=100
30872 On ch=1 n=a4 v=78
30900 On ch=1 n=a4 v=0
30902 On ch=1 n=d#5 v=0
30972 On ch=1 n=d#5 v=93
30984 On ch=1 n=d6 v=0
30988 On ch=1 n=a5 v=0
31030 On ch=1 n=d#5 v=0
31100 On ch=1 n=f4 v=91
31102 On ch=1 n=f5 v=102
31104 On ch=1 n=a#3 v=86
31108 On ch=1 n=d5 v=91
31108 On ch=1 n=c5 v=98
31146 On ch=1 n=f4 v=0
31148 On ch=1 n=a#3 v=0
31154 On ch=1 n=f5 v=0
31156 On ch=1 n=c5 v=0
31156 On ch=1 n=d5 v=0
31220 On ch=1 n=a#4 v=99
31268 On ch=1 n=a#4 v=0
31340 On ch=1 n=g4 v=88
31390 On ch=1 n=g4 v=0
31442 On ch=1 n=a#4 v=96
31506 On ch=1 n=a#4 v=0
31542 On ch=1 n=a#3 v=88
31554 On ch=1 n=f4 v=84
31558 On ch=1 n=f5 v=81
31572 On ch=1 n=c5 v=44
31586 On ch=1 n=f4 v=0
31586 On ch=1 n=b4 v=22
31602 On ch=1 n=a#3 v=0
31610 On ch=1 n=b4 v=0
31620 On ch=1 n=c5 v=0
31626 On ch=1 n=f5 v=0
31640 On ch=1 n=a#4 v=91
31686 On ch=1 n=a#4 v=0
31760 On ch=1 n=g5 v=100
31768 On ch=1 n=e5 v=93
31770 On ch=1 n=c5 v=91
31772 On ch=1 n=f4 v=82
31816 On ch=1 n=c5 v=0
31832 On ch=1 n=e5 v=0
31848 On ch=1 n=f4 v=0
31854 On ch=1 n=c5 v=89
31856 On ch=1 n=g5 v=0
31928 On ch=1 n=c5 v=0
31976 On ch=1 n=a4 v=89
31980 On ch=1 n=a5 v=96
31980 On ch=1 n=d4 v=82
31984 On ch=1 n=f5 v=97
32022 On ch=1 n=a4 v=0
32024 On ch=1 n=d4 v=0
32046 On ch=1 n=a5 v=0
32050 On ch=1 n=f5 v=0
32064 On ch=1 n=d5 v=84
32160 On ch=1 n=d5 v=0
32192 On ch=1 n=d5 v=104
32196 On ch=1 n=g4 v=84
32214 On ch=1 n=a#5 v=93
32218 On ch=1 n=g5 v=68
32236 On ch=1 n=d5 v=0
32240 On ch=1 n=g4 v=0
32292 On ch=1 n=d5 v=70
32296 On ch=1 n=g5 v=0
32324 On ch=1 n=a#5 v=0
32374 On ch=1 n=d5 v=0
32424 On ch=1 n=c5 v=97
32424 On ch=1 n=c6 v=104
32426 On ch=1 n=f4 v=78
32430 On ch=1 n=a5 v=93
32470 On ch=1 n=f4 v=0
32474 On ch=1 n=c5 v=0
32506 On ch=1 n=a5 v=0
32518 On ch=1 n=e5 v=72
32524 On ch=1 n=c6 v=0
32590 On ch=1 n=e5 v=0
32634 On ch=1 n=d6 v=94
32642 On ch=1 n=d#5 v=94
32644 On ch=1 n=g5 v=75
32670 On ch=1 n=d#5 v=0
32720 On ch=1 n=g5 v=0
32722 On ch=1 n=d6 v=0
32730 On ch=1 n=d#5 v=92
32776 On ch=1 n=d#5 v=0
32868 On ch=1 n=d5 v=113
32876 On ch=1 n=f6 v=96
32878 On ch=1 n=d6 v=84
32886 On ch=1 n=a5 v=76
32914 On ch=1 n=d5 v=0
32942 On ch=1 n=f6 v=0
32990 On ch=1 n=f5 v=63
32994 On ch=1 n=a5 v=0
33008 On ch=1 n=d6 v=0
33042 On ch=1 n=f5 v=0
33114 On ch=1 n=d5 v=107
33154 On ch=1 n=d5 v=0
33230 On ch=1 n=f5 v=46
33274 On ch=1 n=f5 v=0
33342 On ch=1 n=d6 v=84
33344 On ch=1 n=f6 v=90
33348 On ch=1 n=a5 v=90
33402 On ch=1 n=f6 v=0
33418 On ch=1 n=a5 v=0
33418 On ch=1 n=d6 v=0
33446 On ch=1 n=f5 v=39
33488 On ch=1 n=f5 v=0
33580 On ch=1 n=g6 v=90
33586 On ch=1 n=g5 v=94
33590 On ch=1 n=b5 v=79
33590 On ch=1 n=d6 v=73
33636 On ch=1 n=g5 v=0
33644 On ch=1 n=g6 v=0
33648 On ch=1 n=d6 v=0
33654 On ch=1 n=b5 v=0
33680 On ch=1 n=g5 v=58
33732 On ch=1 n=g5 v=0
33804 On ch=1 n=e6 v=94
33806 On ch=1 n=c5 v=112
33806 On ch=1 n=g5 v=94
33808 On ch=1 n=c6 v=87
33848 On ch=1 n=c5 v=0
33876 On ch=1 n=e6 v=0
33910 On ch=1 n=c6 v=0
33918 On ch=1 n=g5 v=0
34046 On ch=1 n=c5 v=101
34090 On ch=1 n=c5 v=0
34160 On ch=1 n=e5 v=41
34214 On ch=1 n=e5 v=0
34270 On ch=1 n=d6 v=97
34270 On ch=1 n=d5 v=87
34274 On ch=1 n=b5 v=85
34274 On ch=1 n=g4 v=82
34278 On ch=1 n=g5 v=82
34302 On ch=1 n=d5 v=0
34318 On ch=1 n=g4 v=0
34348 On ch=1 n=d6 v=0
34356 On ch=1 n=g5 v=0
34372 On ch=1 n=e5 v=49
34376 On ch=1 n=b5 v=0
34450 On ch=1 n=e5 v=0
34500 On ch=1 n=c6 v=103
34504 On ch=1 n=g5 v=97
34508 On ch=1 n=c5 v=107
34554 On ch=1 n=c5 v=0
34572 On ch=1 n=g5 v=0
34574 On ch=1 n=c6 v=0
34580 On ch=1 n=e5 v=76
34646 On ch=1 n=e5 v=0
34718 On ch=1 n=f6 v=100
34724 On ch=1 n=d5 v=114
34726 On ch=1 n=d6 v=90
34730 On ch=1 n=a5 v=91
34772 On ch=1 n=d5 v=0
34788 On ch=1 n=f6 v=0
34834 On ch=1 n=f5 v=76
34846 On ch=1 n=a5 v=0
34854 On ch=1 n=d6 v=0
34890 On ch=1 n=f5 v=0
34966 On ch=1 n=d5 v=108
35014 On ch=1 n=d5 v=0
35064 On ch=1 n=f5 v=69
35122 On ch=1 n=f5 v=0
35186 On ch=1 n=d6 v=88
35188 On ch=1 n=f6 v=94
35188 On ch=1 n=a5 v=94
35250 On ch=1 n=f6 v=0
35264 On ch=1 n=d6 v=0
35274 On ch=1 n=a5 v=0
35280 On ch=1 n=f5 v=63
35334 On ch=1 n=f5 v=0
35426 On ch=1 n=g6 v=90
35428 On ch=1 n=g5 v=99
35432 On ch=1 n=d6 v=83
35436 On ch=1 n=b5 v=83
35478 On ch=1 n=g5 v=0
35486 On ch=1 n=g6 v=0
35498 On ch=1 n=d6 v=0
35512 On ch=1 n=g5 v=72
35518 On ch=1 n=b5 v=0
35580 On ch=1 n=g5 v=0
35646 On ch=1 n=e6 v=88
35646 On ch=1 n=g5 v=88
35648 On ch=1 n=c5 v=106
35650 On ch=1 n=c6 v=86
35650 On ch=1 n=e5 v=98
35680 On ch=1 n=e5 v=0
35694 On ch=1 n=c5 v=0
35706 On ch=1 n=e6 v=0
35724 On ch=1 n=c6 v=0
35748 On ch=1 n=g5 v=0
35876 On ch=1 n=d5 v=112
35876 On ch=1 n=d6 v=96
35878 On ch=1 n=g4 v=99
35878 On ch=1 n=b5 v=86
35880 On ch=1 n=g5 v=85
35918 On ch=1 n=g4 v=0
35918 On ch=1 n=d5 v=0
35954 On ch=1 n=g5 v=0
35954 On ch=1 n=d6 v=0
35956 On ch=1 n=b5 v=0
35974 On ch=1 n=e5 v=51
36002 On ch=1 n=e5 v=0
36114 On ch=1 n=g4 v=80
36114 On ch=1 n=c4 v=93
36114 On ch=1 n=c5 v=85
36114 On ch=1 n=c6 v=99
36118 On ch=1 n=e5 v=86
36118 On ch=1 n=g5 v=78
36142 On ch=1 n=e5 v=0
36144 On ch=1 n=g5 v=0
36144 On ch=1 n=g4 v=0
36146 On ch=1 n=c5 v=0
36148 On ch=1 n=c6 v=0
36176 On ch=1 n=c4 v=0
36222 On ch=1 n=c5 v=89
36272 On ch=1 n=c5 v=0
36338 On ch=1 n=c5 v=83
36370 On ch=1 n=c5 v=0
36438 On ch=1 n=c5 v=83
36476 On ch=1 n=c5 v=0
36558 On ch=1 n=e6 v=103
36562 On ch=1 n=c6 v=96
36562 On ch=1 n=a5 v=93
36566 On ch=1 n=a4 v=65
36566 On ch=1 n=c5 v=70
36568 On ch=1 n=e5 v=73
36594 On ch=1 n=c5 v=0
36600 On ch=1 n=c6 v=0
36602 On ch=1 n=a5 v=0
36606 On ch=1 n=e5 v=0
36608 On ch=1 n=a4 v=0
36608 On ch=1 n=e6 v=0
36662 On ch=1 n=e5 v=82
36716 On ch=1 n=e5 v=0
36776 On ch=1 n=c5 v=90
36832 On ch=1 n=c5 v=0
36860 On ch=1 n=e5 v=81
36922 On ch=1 n=e5 v=0
36994 On ch=1 n=e6 v=101
36996 On ch=1 n=c6 v=94
36996 On ch=1 n=a5 v=93
37040 On ch=1 n=a5 v=0
37042 On ch=1 n=c6 v=0
37054 On ch=1 n=e6 v=0
37102 On ch=1 n=e5 v=79
37146 On ch=1 n=e5 v=0
37212 On ch=1 n=c#5 v=99
37216 On ch=1 n=f#4 v=89
37216 On ch=1 n=f#6 v=101
37220 On ch=1 n=f#5 v=104
37222 On ch=1 n=a#5 v=94
37228 On ch=1 n=c#6 v=82
37242 On ch=1 n=f#5 v=0
37254 On ch=1 n=c#5 v=0
37256 On ch=1 n=f#4 v=0
37262 On ch=1 n=a#5 v=0
37280 On ch=1 n=c#6 v=0
37296 On ch=1 n=f#6 v=0
37328 On ch=1 n=f#5 v=88
37386 On ch=1 n=f#5 v=0
37448 On ch=1 n=d5 v=98
37450 On ch=1 n=b4 v=96
37456 On ch=1 n=d6 v=91
37460 On ch=1 n=b5 v=87
37462 On ch=1 n=f#5 v=92
37494 On ch=1 n=d5 v=0
37496 On ch=1 n=b4 v=0
37504 On ch=1 n=f#5 v=0
37526 On ch=1 n=d6 v=0
37534 On ch=1 n=b5 v=0
37550 On ch=1 n=f#5 v=63
37626 On ch=1 n=f#5 v=0
37670 On ch=1 n=c#5 v=104
37674 On ch=1 n=f#4 v=99
37676 On ch=1 n=a#5 v=105
37684 On ch=1 n=c#6 v=92
37690 On ch=1 n=f#5 v=73
37708 On ch=1 n=c#5 v=0
37712 On ch=1 n=f#5 v=0
37722 On ch=1 n=f#4 v=0
37776 On ch=1 n=f#5 v=93
37794 On ch=1 n=c#6 v=0
37808 On ch=1 n=a#5 v=0
37844 On ch=1 n=f#5 v=0
37900 On ch=1 n=f#4 v=95
37902 On ch=1 n=b4 v=90
37904 On ch=1 n=b3 v=80
37910 On ch=1 n=b5 v=99
37912 On ch=1 n=f#5 v=106
37912 On ch=1 n=d5 v=100
37936 On ch=1 n=b3 v=0
37940 On ch=1 n=f#4 v=0
37946 On ch=1 n=b4 v=0
37954 On ch=1 n=d5 v=0
37954 On ch=1 n=f#5 v=0
37962 On ch=1 n=b5 v=0
38022 On ch=1 n=b4 v=75
38070 On ch=1 n=b4 v=0
38138 On ch=1 n=b4 v=76
38174 On ch=1 n=b4 v=0
38222 On ch=1 n=b4 v=68
38292 On ch=1 n=b4 v=0
38334 On ch=1 n=c#6 v=105
38336 On ch=1 n=c#5 v=104
38340 On ch=1 n=g#4 v=97
38340 On ch=1 n=c#4 v=90
38340 On ch=1 n=f5 v=87
38342 On ch=1 n=g#5 v=84
38364 On ch=1 n=c#5 v=0
38380 On ch=1 n=f5 v=0
38384 On ch=1 n=g#4 v=0
38388 On ch=1 n=c#4 v=0
38398 On ch=1 n=c#6 v=0
38406 On ch=1 n=g#5 v=0
38440 On ch=1 n=c#5 v=90
38492 On ch=1 n=c#5 v=0
38552 On ch=1 n=c#5 v=83
38598 On ch=1 n=c#5 v=0
38644 On ch=1 n=c#5 v=58
38714 On ch=1 n=c#5 v=0
38772 On ch=1 n=g#4 v=97
38774 On ch=1 n=c#4 v=90
38780 On ch=1 n=g#5 v=95
38784 On ch=1 n=b4 v=94
38788 On ch=1 n=e5 v=89
38814 On ch=1 n=g#4 v=0
38822 On ch=1 n=c#4 v=0
38826 On ch=1 n=b4 v=0
38832 On ch=1 n=e5 v=0
38838 On ch=1 n=g#5 v=0
38904 On ch=1 n=g#4 v=72
38940 On ch=1 n=g#4 v=0
39032 On ch=1 n=g#4 v=77
39096 On ch=1 n=g#4 v=0
39124 On ch=1 n=g#4 v=61
39178 On ch=1 n=g#4 v=0
39232 Par ch=1 c=64 v=63
39238 On ch=1 n=f#5 v=94
39240 On ch=1 n=f#3 v=99
39240 On ch=1 n=f#4 v=90
39244 Par ch=1 c=64 v=127
39246 On ch=1 n=a#4 v=88
39248 On ch=1 n=c#5 v=93
39282 On ch=1 n=f#4 v=0
39286 On ch=1 n=f#3 v=0
39290 On ch=1 n=f#5 v=0
39292 On ch=1 n=c#5 v=0
39292 On ch=1 n=a#4 v=0
39450 On ch=1 n=f#4 v=70
39484 On ch=1 n=f#4 v=0
39548 On ch=1 n=f#4 v=94
39586 On ch=1 n=f#4 v=0
39666 Par ch=1 c=67 v=127
39674 On ch=1 n=f#4 v=115
39678 Par ch=1 c=64 v=63
39682 Par ch=1 c=64 v=0
39712 On ch=1 n=f#4 v=0
39784 On ch=1 n=f#4 v=83
39814 On ch=1 n=f#4 v=0
39896 On ch=1 n=f#4 v=89
39940 On ch=1 n=f#4 v=0
40006 On ch=1 n=f#4 v=91
40038 On ch=1 n=f#4 v=0
40104 On ch=1 n=f#4 v=112
40142 On ch=1 n=f#4 v=0
40206 On ch=1 n=f#4 v=80
40254 On ch=1 n=f#4 v=0
40326 On ch=1 n=f#4 v=94
40372 On ch=1 n=f#4 v=0
40430 On ch=1 n=f#4 v=84
40478 On ch=1 n=f#4 v=0
40528 On ch=1 n=f#4 v=95
40568 On ch=1 n=f#4 v=0
40620 On ch=1 n=f#4 v=79
40672 On ch=1 n=f#4 v=0
40746 On ch=1 n=f#4 v=91
40776 On ch=1 n=f#4 v=0
40842 On ch=1 n=f#4 v=82
40896 On ch=1 n=f#4 v=0
40962 On ch=1 n=f4 v=79
40968 On ch=1 n=g4 v=71
40976 On ch=1 n=b4 v=65
41052 On ch=1 n=f4 v=0
41064 On ch=1 n=f#4 v=73
41080 Par ch=1 c=67 v=0
41138 On ch=1 n=g4 v=0
41180 On ch=1 n=d4 v=73
41186 On ch=1 n=b3 v=63
41194 On ch=1 n=f#4 v=0
41220 On ch=1 n=b4 v=0
41282 On ch=1 n=e4 v=84
41304 On ch=1 n=d4 v=0
41322 On ch=1 n=b3 v=0
41384 On ch=1 n=e4 v=0
41402 On ch=1 n=b4 v=76
41404 On ch=1 n=g4 v=72
41404 On ch=1 n=f4 v=78
41498 On ch=1 n=f#4 v=84
41504 On ch=1 n=f4 v=0
41558 On ch=1 n=g4 v=0
41628 On ch=1 n=d4 v=81
41630 On ch=1 n=b3 v=71
41670 On ch=1 n=b4 v=0
41702 On ch=1 n=d4 v=0
41708 On ch=1 n=f#4 v=0
41718 On ch=1 n=b3 v=0
41724 On ch=1 n=e4 v=92
41810 On ch=1 n=e4 v=0
41830 On ch=1 n=f#3 v=108
41932 Par ch=1 c=64 v=63
41934 Par ch=1 c=64 v=127
41940 On ch=1 n=f#3 v=0
41946 On ch=1 n=f#4 v=94
41996 On ch=1 n=f#4 v=0
42038 Par ch=1 c=64 v=63
42042 Par ch=1 c=64 v=0
42066 On ch=1 n=f#4 v=98
42116 On ch=1 n=f#4 v=0
42150 On ch=1 n=f#4 v=97
42200 On ch=1 n=f#4 v=0
42264 On ch=1 n=f#4 v=113
42280 Par ch=1 c=64 v=63
42280 Par ch=1 c=64 v=127
42330 On ch=1 n=f#4 v=0
42380 On ch=1 n=f#5 v=106
42426 On ch=1 n=f#5 v=0
42490 On ch=1 n=f#5 v=114
42506 Par ch=1 c=64 v=63
42510 Par ch=1 c=64 v=0
42530 On ch=1 n=f#5 v=0
42580 On ch=1 n=f#5 v=97
42636 On ch=1 n=f#5 v=0
42700 Par ch=1 c=64 v=63
42700 Par ch=1 c=64 v=127
42710 On ch=1 n=f5 v=77
42716 On ch=1 n=b5 v=73
42716 On ch=1 n=g5 v=74
42780 On ch=1 n=f5 v=0
42814 On ch=1 n=f#5 v=87
42860 On ch=1 n=g5 v=0
42878 On ch=1 n=b5 v=0
42894 On ch=1 n=f#5 v=0
42926 On ch=1 n=b4 v=60
42928 On ch=1 n=d5 v=58
43020 On ch=1 n=e5 v=99
43040 On ch=1 n=d5 v=0
43050 On ch=1 n=b4 v=0
43050 Par ch=1 c=64 v=63
43056 Par ch=1 c=64 v=0
43134 On ch=1 n=e5 v=0
43138 On ch=1 n=g5 v=101
43144 On ch=1 n=f5 v=94
43144 On ch=1 n=b5 v=91
43178 Par ch=1 c=64 v=63
43180 Par ch=1 c=64 v=127
43242 On ch=1 n=f#5 v=98
43246 On ch=1 n=f5 v=0
43292 On ch=1 n=g5 v=0
43322 On ch=1 n=b5 v=0
43338 On ch=1 n=f#5 v=0
43358 On ch=1 n=d5 v=100
43362 On ch=1 n=b4 v=88
43378 Par ch=1 c=64 v=63
43384 Par ch=1 c=64 v=0
43418 On ch=1 n=d5 v=0
43432 On ch=1 n=b4 v=0
43450 On ch=1 n=e5 v=100
43516 On ch=1 n=e5 v=0
43560 On ch=1 n=f#4 v=114
43562 Par ch=1 c=64 v=127
43616 On ch=1 n=f#4 v=0
43670 On ch=1 n=f#5 v=110
43726 On ch=1 n=f#5 v=0
43792 On ch=1 n=f#5 v=104
43838 On ch=1 n=f#5 v=0
43870 On ch=1 n=f#5 v=101
43916 On ch=1 n=f#5 v=0
43988 On ch=1 n=f#5 v=114
44064 On ch=1 n=f#5 v=0
44102 On ch=1 n=f#6 v=118
44156 On ch=1 n=f#6 v=0
44198 On ch=1 n=f#6 v=103
44246 On ch=1 n=f#6 v=0
44292 On ch=1 n=f#6 v=101
44342 On ch=1 n=f#6 v=0
44390 Par ch=1 c=64 v=63
44398 Par ch=1 c=64 v=0
44448 On ch=1 n=f6 v=120
44448 On ch=1 n=g6 v=117
44448 On ch=1 n=b6 v=113
44464 Par ch=1 c=64 v=63
44472 Par ch=1 c=64 v=127
44488 On ch=1 n=f6 v=0
44554 On ch=1 n=f#6 v=107
44612 On ch=1 n=g6 v=0
44650 On ch=1 n=b6 v=0
44656 On ch=1 n=f#6 v=0
44674 On ch=1 n=d6 v=101
44676 On ch=1 n=b5 v=92
44756 On ch=1 n=e6 v=103
44778 On ch=1 n=d6 v=0
44852 On ch=1 n=b5 v=0
44874 On ch=1 n=b6 v=98
44876 On ch=1 n=g6 v=102
44876 On ch=1 n=f6 v=108
44878 On ch=1 n=e6 v=0
44930 On ch=1 n=f6 v=0
44982 On ch=1 n=f#6 v=106
45014 On ch=1 n=g6 v=0
45030 On ch=1 n=b6 v=0
45052 On ch=1 n=f#6 v=0
45104 On ch=1 n=d6 v=77
45112 On ch=1 n=b5 v=65
45188 On ch=1 n=e6 v=90
45210 On ch=1 n=d6 v=0
45222 On ch=1 n=b5 v=0
45256 On ch=1 n=e6 v=0
45260 Par ch=1 c=64 v=63
45268 Par ch=1 c=64 v=0
45318 On ch=1 n=b5 v=81
45324 On ch=1 n=g5 v=73
45326 On ch=1 n=f5 v=70
45348 Par ch=1 c=64 v=63
45356 Par ch=1 c=64 v=127
45426 On ch=1 n=f#5 v=95
45432 On ch=1 n=f5 v=0
45506 On ch=1 n=g5 v=0
45536 On ch=1 n=f#5 v=0
45546 On ch=1 n=b5 v=0
45558 On ch=1 n=b4 v=45
45568 On ch=1 n=d5 v=51
45640 On ch=1 n=e5 v=82
45650 On ch=1 n=d5 v=0
45750 On ch=1 n=b4 v=0
45752 On ch=1 n=f5 v=87
45752 On ch=1 n=g5 v=84
45752 On ch=1 n=b5 v=82
45772 On ch=1 n=e5 v=0
45790 Par ch=1 c=64 v=63
45818 Par ch=1 c=64 v=127
45852 On ch=1 n=f5 v=0
45854 On ch=1 n=f#5 v=87
45920 On ch=1 n=g5 v=0
45934 On ch=1 n=b5 v=0
45954 On ch=1 n=f#5 v=0
45974 On ch=1 n=d5 v=59
45984 On ch=1 n=b4 v=51
46062 On ch=1 n=d5 v=0
46064 On ch=1 n=b4 v=0
46088 On ch=1 n=e5 v=79
46162 Par ch=1 c=64 v=63
46164 On ch=1 n=e5 v=0
46170 Par ch=1 c=64 v=0
46204 On ch=1 n=f#4 v=81
46244 Par ch=1 c=64 v=63
46252 Par ch=1 c=64 v=127
46320 On ch=1 n=f#5 v=95
46368 On ch=1 n=f#5 v=0
46386 On ch=1 n=f#4 v=0
46424 On ch=1 n=f#5 v=95
46522 On ch=1 n=f#5 v=0
46534 On ch=1 n=f#6 v=110
46604 On ch=1 n=f#6 v=0
46650 On ch=1 n=f#5 v=89
46720 On ch=1 n=f#5 v=0
46754 On ch=1 n=f#6 v=113
46806 On ch=1 n=f#6 v=0
46868 On ch=1 n=f#6 v=112
46930 On ch=1 n=f#6 v=0
46966 On ch=1 n=f#7 v=112
47038 On ch=1 n=f#7 v=0
47088 On ch=1 n=f#7 v=106
47188 On ch=1 n=f#6 v=113
47212 On ch=1 n=f#7 v=0
47246 On ch=1 n=f#6 v=0
47286 On ch=1 n=f#5 v=98
47336 On ch=1 n=f#5 v=0
47388 On ch=1 n=f#5 v=92
47458 On ch=1 n=f#5 v=0
47512 On ch=1 n=f#4 v=107
47580 On ch=1 n=f#4 v=0
47604 On ch=1 n=f#5 v=100
47668 On ch=1 n=f#5 v=0
47720 On ch=1 n=f#4 v=95
47792 On ch=1 n=f#4 v=0
47840 On ch=1 n=f#4 v=83
47890 On ch=1 n=f#4 v=0
47970 On ch=1 n=f#3 v=104
47998 On ch=1 n=f#3 v=0
48154 On ch=1 n=f#3 v=90
48196 On ch=1 n=f#3 v=0
48254 On ch=1 n=f#3 v=100
48304 On ch=1 n=f#3 v=0
48350 On ch=1 n=f#3 v=88
48394 On ch=1 n=f#3 v=0
48456 On ch=1 n=f#3 v=114
48478 Par ch=1 c=64 v=63
48484 Par ch=1 c=64 v=0
48496 On ch=1 n=f#3 v=0
48564 On ch=1 n=f#3 v=96
48614 On ch=1 n=f#3 v=0
48684 On ch=1 n=f#3 v=103
48732 On ch=1 n=f#3 v=0
48788 On ch=1 n=f#3 v=95
48840 On ch=1 n=f#3 v=0
48922 On ch=1 n=f#3 v=93
48930 Par ch=1 c=64 v=63
48932 Par ch=1 c=64 v=127
48952 On ch=1 n=f#3 v=0
49022 On ch=1 n=f#3 v=62
49030 On ch=1 n=a3 v=54
49046 On ch=1 n=f#3 v=0
49066 On ch=1 n=a3 v=0
49156 On ch=1 n=c#4 v=88
49200 On ch=1 n=c#4 v=0
49248 On ch=1 n=c#4 v=77
49258 On ch=1 n=e4 v=84
49304 On ch=1 n=c#4 v=0
49312 On ch=1 n=e4 v=0
49372 On ch=1 n=f#4 v=94
49416 On ch=1 n=f#4 v=0
49480 On ch=1 n=a4 v=78
49480 On ch=1 n=f#4 v=83
49526 On ch=1 n=f#4 v=0
49534 On ch=1 n=a4 v=0
49594 On ch=1 n=c#5 v=103
49638 On ch=1 n=c#5 v=0
49710 On ch=1 n=c#5 v=93
49714 On ch=1 n=e5 v=83
49752 On ch=1 n=c#5 v=0
49766 On ch=1 n=e5 v=0
49796 Par ch=1 c=64 v=63
49812 Par ch=1 c=64 v=0
49844 On ch=1 n=c#4 v=95
49846 Par ch=1 c=64 v=63
49876 Par ch=1 c=64 v=127
49892 On ch=1 n=c#4 v=0
49956 On ch=1 n=e4 v=81
49962 On ch=1 n=c#4 v=84
50002 On ch=1 n=c#4 v=0
50012 On ch=1 n=e4 v=0
50082 On ch=1 n=f#4 v=99
50120 On ch=1 n=f#4 v=0
50188 On ch=1 n=a4 v=84
50190 On ch=1 n=f#4 v=95
50230 On ch=1 n=f#4 v=0
50238 On ch=1 n=a4 v=0
50300 On ch=1 n=c#5 v=101
50338 On ch=1 n=c#5 v=0
50404 On ch=1 n=c#5 v=89
50404 On ch=1 n=e5 v=87
50438 On ch=1 n=c#5 v=0
50456 On ch=1 n=e5 v=0
50522 On ch=1 n=f#5 v=91
50560 On ch=1 n=f#5 v=0
50632 On ch=1 n=a5 v=82
50634 On ch=1 n=f#5 v=85
50682 On ch=1 n=f#5 v=0
50688 On ch=1 n=a5 v=0
50772 Par ch=1 c=64 v=63
50794 On ch=1 n=f#4 v=90
50812 Par ch=1 c=64 v=127
50832 On ch=1 n=f#4 v=0
50920 On ch=1 n=a4 v=73
50928 On ch=1 n=f#4 v=71
50962 On ch=1 n=f#4 v=0
50980 On ch=1 n=a4 v=0
51056 On ch=1 n=c#5 v=84
51096 On ch=1 n=c#5 v=0
51156 On ch=1 n=c#5 v=55
51158 On ch=1 n=e5 v=71
51212 On ch=1 n=c#5 v=0
51222 On ch=1 n=e5 v=0
51280 On ch=1 n=c#5 v=82
51310 On ch=1 n=c#5 v=0
51392 On ch=1 n=c#5 v=72
51398 On ch=1 n=e5 v=67
51432 On ch=1 n=c#5 v=0
51446 On ch=1 n=e5 v=0
51520 On ch=1 n=f#5 v=76
51558 On ch=1 n=f#5 v=0
51624 On ch=1 n=a5 v=68
51630 On ch=1 n=f#5 v=70
51680 On ch=1 n=f#5 v=0
51692 On ch=1 n=a5 v=0
51758 On ch=1 n=f#5 v=85
51792 On ch=1 n=f#5 v=0
51886 On ch=1 n=f#5 v=75
51888 On ch=1 n=a5 v=68
51928 On ch=1 n=f#5 v=0
51946 On ch=1 n=a5 v=0
52030 On ch=1 n=c#6 v=85
52072 On ch=1 n=c#6 v=0
52154 On ch=1 n=c#6 v=72
52156 On ch=1 n=e6 v=77
52222 On ch=1 n=c#6 v=0
52246 On ch=1 n=e6 v=0
52312 On ch=1 n=c#6 v=79
52348 On ch=1 n=c#6 v=0
52478 On ch=1 n=e6 v=72
52486 On ch=1 n=c#6 v=65
52526 On ch=1 n=c#6 v=0
52526 Par ch=1 c=67 v=127
52548 On ch=1 n=e6 v=0
52656 On ch=1 n=f#6 v=70
52696 On ch=1 n=f#6 v=0
52878 On ch=1 n=a6 v=50
52880 On ch=1 n=f#6 v=42
52940 On ch=1 n=f#6 v=0
52950 On ch=1 n=a6 v=0
53200 On ch=1 n=f#6 v=50
53208 On ch=1 n=c#7 v=67
53224 On ch=1 n=d6 v=45
53234 On ch=1 n=c#6 v=51
53242 Par ch=1 c=64 v=63
53252 Par ch=1 c=64 v=127
53348 On ch=1 n=f#6 v=0
53388 On ch=1 n=d6 v=0
53418 On ch=1 n=f#6 v=48
53424 On ch=1 n=c#6 v=0
53478 On ch=1 n=c#7 v=0
53572 On ch=1 n=f#6 v=0
53594 On ch=1 n=d6 v=71
53598 On ch=1 n=b5 v=60
53672 On ch=1 n=d6 v=0
53676 On ch=1 n=b5 v=0
53732 On ch=1 n=b6 v=82
53834 On ch=1 n=b6 v=0
53888 Par ch=1 c=64 v=63
53898 On ch=1 n=f#6 v=67
53900 On ch=1 n=c#7 v=96
53902 Par ch=1 c=64 v=127
53912 On ch=1 n=d6 v=58
53918 On ch=1 n=c#6 v=58
53990 On ch=1 n=f#6 v=0
54032 On ch=1 n=f#6 v=89
54034 On ch=1 n=d6 v=0
54082 On ch=1 n=c#7 v=0
54088 On ch=1 n=c#6 v=0
54170 On ch=1 n=f#6 v=0
54190 On ch=1 n=d6 v=97
54196 On ch=1 n=b5 v=63
54234 On ch=1 n=b5 v=0
54294 On ch=1 n=d6 v=0
54318 On ch=1 n=b6 v=98
54430 Par ch=1 c=64 v=63
54442 Par ch=1 c=64 v=127
54456 On ch=1 n=a6 v=100
54466 On ch=1 n=d6 v=68
54466 On ch=1 n=a5 v=63
54470 On ch=1 n=b5 v=68
54480 On ch=1 n=b6 v=0
54580 On ch=1 n=g5 v=83
54592 On ch=1 n=g6 v=97
54620 On ch=1 n=b5 v=0
54622 On ch=1 n=d6 v=0
54622 On ch=1 n=a6 v=0
54624 On ch=1 n=a5 v=0
54668 On ch=1 n=g5 v=0
54722 On ch=1 n=g6 v=0
54784 On ch=1 n=f#6 v=81
54790 On ch=1 n=d6 v=71
54794 On ch=1 n=f#5 v=81
54902 On ch=1 n=d6 v=0
54906 On ch=1 n=f#6 v=0
54910 On ch=1 n=f#5 v=0
54962 On ch=1 n=b5 v=57
55056 On ch=1 n=b5 v=0
55198 On ch=1 n=b6 v=82
55208 On ch=1 n=c6 v=59
55210 On ch=1 n=b5 v=58
55210 On ch=1 n=e6 v=52
55236 Par ch=1 c=64 v=63
55268 Par ch=1 c=64 v=127
55340 On ch=1 n=c6 v=0
55356 On ch=1 n=b6 v=0
55358 On ch=1 n=b5 v=0
55446 On ch=1 n=e6 v=0
55524 On ch=1 n=c6 v=79
55530 On ch=1 n=a5 v=74
55606 On ch=1 n=c6 v=0
55626 On ch=1 n=a5 v=0
55662 On ch=1 n=a6 v=92
55766 Par ch=1 c=64 v=63
55776 On ch=1 n=a6 v=0
55802 On ch=1 n=b6 v=84
55806 On ch=1 n=e6 v=76
55810 Par ch=1 c=64 v=127
55810 On ch=1 n=b5 v=67
55810 On ch=1 n=c6 v=71
55922 On ch=1 n=e6 v=0
55936 On ch=1 n=a6 v=97
55944 On ch=1 n=c6 v=0
55944 On ch=1 n=a5 v=81
55960 On ch=1 n=b6 v=0
55964 On ch=1 n=b5 v=0
55990 On ch=1 n=a5 v=0
56002 On ch=1 n=a6 v=0
56114 On ch=1 n=d6 v=83
56130 On ch=1 n=d5 v=75
56136 On ch=1 n=c6 v=68
56176 Par ch=1 c=64 v=63
56206 Par ch=1 c=64 v=127
56248 On ch=1 n=d6 v=0
56284 On ch=1 n=a5 v=68
56296 On ch=1 n=c6 v=0
56314 On ch=1 n=d5 v=0
56360 On ch=1 n=a5 v=0
56458 On ch=1 n=c6 v=66
56466 On ch=1 n=e6 v=80
56466 On ch=1 n=e5 v=60
56468 On ch=1 n=a5 v=40
56482 Par ch=1 c=64 v=63
56512 Par ch=1 c=64 v=127
56576 On ch=1 n=e5 v=0
56586 On ch=1 n=a5 v=0
56602 On ch=1 n=c6 v=0
56610 On ch=1 n=e6 v=0
56634 On ch=1 n=b5 v=68
56706 On ch=1 n=b5 v=0
56862 On ch=1 n=f#6 v=67
56876 On ch=1 n=a#5 v=61
56878 On ch=1 n=f#5 v=61
56882 On ch=1 n=c#6 v=66
56902 Par ch=1 c=64 v=63
56942 Par ch=1 c=64 v=127
57036 On ch=1 n=c#6 v=0
57036 On ch=1 n=a#5 v=0
57078 On ch=1 n=f#5 v=0
57098 On ch=1 n=f#6 v=0
57110 On ch=1 n=c#6 v=51
57178 On ch=1 n=c#6 v=0
57430 On ch=1 n=c#6 v=79
57436 On ch=1 n=f#5 v=31
57450 On ch=1 n=c#5 v=50
57456 On ch=1 n=d5 v=52
57466 Par ch=1 c=64 v=63
57508 Par ch=1 c=64 v=127
57540 On ch=1 n=f#5 v=0
57590 On ch=1 n=d5 v=0
57626 On ch=1 n=c#5 v=0
57630 On ch=1 n=f#5 v=74
57664 On ch=1 n=c#6 v=0
57766 On ch=1 n=f#5 v=0
57796 On ch=1 n=d5 v=63
57802 On ch=1 n=b4 v=76
57862 On ch=1 n=d5 v=0
57888 On ch=1 n=b4 v=0
57912 On ch=1 n=b5 v=98
58006 On ch=1 n=b5 v=0
58074 On ch=1 n=c#6 v=99
58076 On ch=1 n=f#5 v=80
58084 On ch=1 n=c#5 v=75
58088 On ch=1 n=d5 v=75
58092 Par ch=1 c=64 v=63
58144 Par ch=1 c=64 v=127
58150 On ch=1 n=f#5 v=0
58182 On ch=1 n=d5 v=0
58198 On ch=1 n=f#5 v=79
58246 On ch=1 n=c#6 v=0
58266 On ch=1 n=c#5 v=0
58348 On ch=1 n=b4 v=73
58356 On ch=1 n=d5 v=93
58360 On ch=1 n=f#5 v=0
58406 On ch=1 n=b4 v=0
58450 On ch=1 n=d5 v=0
58470 On ch=1 n=b5 v=94
58574 Par ch=1 c=64 v=63
58612 On ch=1 n=a5 v=98
58618 Par ch=1 c=64 v=127
58632 On ch=1 n=a4 v=60
58634 On ch=1 n=b5 v=0
58642 On ch=1 n=d5 v=30
58644 On ch=1 n=b4 v=46
58682 On ch=1 n=b4 v=0
58702 On ch=1 n=a4 v=0
58750 On ch=1 n=g5 v=98
58756 On ch=1 n=g4 v=76
58788 On ch=1 n=a5 v=0
58822 On ch=1 n=g4 v=0
58852 On ch=1 n=d5 v=0
58888 On ch=1 n=g5 v=0
58920 On ch=1 n=f#5 v=100
58922 On ch=1 n=f#4 v=88
58924 On ch=1 n=d5 v=68
58926 Par ch=1 c=64 v=63
58962 Par ch=1 c=64 v=127
58984 On ch=1 n=f#5 v=0
59010 On ch=1 n=d5 v=0
59018 On ch=1 n=f#4 v=0
59062 On ch=1 n=b4 v=68
59146 On ch=1 n=b4 v=0
59246 On ch=1 n=e5 v=65
59248 On ch=1 n=b4 v=58
59250 On ch=1 n=b5 v=84
59252 On ch=1 n=c5 v=55
59284 Par ch=1 c=64 v=63
59338 Par ch=1 c=64 v=127
59372 On ch=1 n=c5 v=0
59382 On ch=1 n=b4 v=0
59386 On ch=1 n=b5 v=0
59476 On ch=1 n=e5 v=0
59558 On ch=1 n=c5 v=76
59564 On ch=1 n=a4 v=66
59624 On ch=1 n=c5 v=0
59646 On ch=1 n=a4 v=0
59684 On ch=1 n=a5 v=89
59764 On ch=1 n=a5 v=0
59788 Par ch=1 c=64 v=63
59814 On ch=1 n=b4 v=64
59818 On ch=1 n=b5 v=83
59820 On ch=1 n=c5 v=67
59822 On ch=1 n=e5 v=51
59840 Par ch=1 c=64 v=127
59922 On ch=1 n=c5 v=0
59928 On ch=1 n=b4 v=0
59936 On ch=1 n=e5 v=0
59948 On ch=1 n=b5 v=0
59950 On ch=1 n=a5 v=83
59962 On ch=1 n=a4 v=52
60000 On ch=1 n=a4 v=0
60016 On ch=1 n=a5 v=0
60130 On ch=1 n=d5 v=68
60130 On ch=1 n=c5 v=76
60140 On ch=1 n=d4 v=71
60172 Par ch=1 c=64 v=63
60212 On ch=1 n=d5 v=0
60218 Par ch=1 c=64 v=127
60262 On ch=1 n=d4 v=0
60276 On ch=1 n=c5 v=0
60288 On ch=1 n=a4 v=65
60398 On ch=1 n=a4 v=0
60490 On ch=1 n=e5 v=74
60492 On ch=1 n=e4 v=63
60498 On ch=1 n=a4 v=31
60502 On ch=1 n=c5 v=55
60512 Par ch=1 c=64 v=63
60564 Par ch=1 c=64 v=127
60626 On ch=1 n=e4 v=0
60632 On ch=1 n=a4 v=0
60642 On ch=1 n=c5 v=0
60648 On ch=1 n=e5 v=0
60688 On ch=1 n=c5 v=59
60748 On ch=1 n=c5 v=0
60938 On ch=1 n=f#5 v=70
60958 On ch=1 n=a#4 v=43
60960 On ch=1 n=f#4 v=51
60962 On ch=1 n=c#5 v=45
60978 Par ch=1 c=64 v=63
61038 Par ch=1 c=64 v=127
61134 On ch=1 n=c#5 v=0
61156 On ch=1 n=a#4 v=0
61168 On ch=1 n=f#5 v=0
61188 On ch=1 n=c#5 v=55
61190 On ch=1 n=f#4 v=0
61256 On ch=1 n=c#5 v=0
61520 On ch=1 n=b4 v=61
61526 On ch=1 n=d4 v=45
61538 On ch=1 n=b3 v=51
61590 Par ch=1 c=64 v=63
61606 Par ch=1 c=64 v=0
61644 Par ch=1 c=64 v=63
61662 On ch=1 n=d4 v=0
61676 Par ch=1 c=64 v=127
61738 On ch=1 n=f#4 v=63
61820 On ch=1 n=b3 v=0
61906 On ch=1 n=d4 v=71
61920 On ch=1 n=a3 v=46
61982 On ch=1 n=f#4 v=0
62004 On ch=1 n=b4 v=0
62010 On ch=1 n=d4 v=0
62032 On ch=1 n=a3 v=0
62046 On ch=1 n=a4 v=88
62200 On ch=1 n=b4 v=94
62210 On ch=1 n=d4 v=69
62212 On ch=1 n=b3 v=65
62226 Par ch=1 c=64 v=63
62238 Par ch=1 c=64 v=0
62244 On ch=1 n=a4 v=0
62284 Par ch=1 c=64 v=63
62290 On ch=1 n=d4 v=0
62314 Par ch=1 c=64 v=127
62332 On ch=1 n=f#4 v=82
62398 On ch=1 n=b3 v=0
62468 On ch=1 n=a3 v=86
62482 On ch=1 n=d4 v=96
62528 On ch=1 n=b4 v=0
62538 On ch=1 n=a3 v=0
62546 On ch=1 n=f#4 v=0
62576 On ch=1 n=d4 v=0
62600 On ch=1 n=a4 v=101
62728 On ch=1 n=a4 v=0
62772 On ch=1 n=d5 v=103
62772 On ch=1 n=e4 v=84
62774 On ch=1 n=d4 v=87
62794 Par ch=1 c=64 v=63
62810 Par ch=1 c=64 v=0
62832 Par ch=1 c=64 v=63
62858 On ch=1 n=e4 v=0
62868 Par ch=1 c=64 v=127
62890 On ch=1 n=g4 v=91
62944 On ch=1 n=d4 v=0
62984 On ch=1 n=d5 v=0
63050 On ch=1 n=g4 v=0
63052 On ch=1 n=e4 v=88
63060 On ch=1 n=c#4 v=99
63174 On ch=1 n=e4 v=0
63184 On ch=1 n=c#5 v=112
63232 On ch=1 n=c#4 v=0
63354 On ch=1 n=a4 v=90
63356 On ch=1 n=a3 v=80
63358 On ch=1 n=e4 v=82
63360 On ch=1 n=g4 v=83
63368 Par ch=1 c=64 v=63
63372 On ch=1 n=c#5 v=0
63384 Par ch=1 c=64 v=0
63408 Par ch=1 c=64 v=63
63444 Par ch=1 c=64 v=127
63476 On ch=1 n=b4 v=100
63476 On ch=1 n=b3 v=84
63502 On ch=1 n=a3 v=0
63516 On ch=1 n=a4 v=0
63564 On ch=1 n=g4 v=0
63640 On ch=1 n=c#5 v=107
63648 On ch=1 n=c#4 v=80
63662 On ch=1 n=b3 v=0
63664 On ch=1 n=b4 v=0
63684 Par ch=1 c=64 v=63
63702 Par ch=1 c=64 v=0
63722 Par ch=1 c=64 v=63
63754 Par ch=1 c=64 v=127
63808 On ch=1 n=g4 v=65
63860 On ch=1 n=e4 v=0
63904 On ch=1 n=c#4 v=0
63946 On ch=1 n=g4 v=0
64004 On ch=1 n=c#5 v=0
64008 On ch=1 n=f#4 v=80
64012 On ch=1 n=e5 v=83
64018 On ch=1 n=e4 v=68
64052 Par ch=1 c=64 v=63
64114 Par ch=1 c=64 v=127
64182 On ch=1 n=a4 v=68
64196 On ch=1 n=f#4 v=0
64226 On ch=1 n=e5 v=0
64302 On ch=1 n=e4 v=0
64338 On ch=1 n=f#4 v=96
64344 On ch=1 n=d4 v=87
64356 On ch=1 n=a4 v=0
64446 On ch=1 n=d5 v=102
64448 On ch=1 n=f#4 v=0
64560 On ch=1 n=d4 v=0
64586 On ch=1 n=b3 v=91
64588 Par ch=1 c=64 v=63
64596 On ch=1 n=b4 v=97
64600 Par ch=1 c=64 v=0
64600 On ch=1 n=f#4 v=94
64622 On ch=1 n=d5 v=0
64638 Par ch=1 c=64 v=63
64668 Par ch=1 c=64 v=127
64706 On ch=1 n=d4 v=99
64728 On ch=1 n=d5 v=100
64736 On ch=1 n=b3 v=0
64744 On ch=1 n=f#4 v=0
64754 On ch=1 n=b4 v=0
64844 On ch=1 n=d5 v=0
64874 On ch=1 n=f#4 v=103
64878 On ch=1 n=f#5 v=107
64908 Par ch=1 c=64 v=63
64932 On ch=1 n=d4 v=0
64966 Par ch=1 c=64 v=127
65020 On ch=1 n=c#5 v=88
65120 On ch=1 n=f#4 v=0
65128 On ch=1 n=f#5 v=0
65150 On ch=1 n=c#5 v=0
65164 On ch=1 n=e5 v=91
65178 On ch=1 n=e4 v=89
65194 Par ch=1 c=64 v=63
65206 Par ch=1 c=64 v=0
65288 On ch=1 n=b4 v=78
65302 Par ch=1 c=64 v=63
65320 Par ch=1 c=64 v=127
65414 On ch=1 n=b4 v=0
65424 On ch=1 n=e5 v=0
65454 On ch=1 n=g5 v=99
65468 On ch=1 n=g4 v=74
65490 On ch=1 n=e4 v=0
65666 On ch=1 n=d5 v=72
65756 On ch=1 n=d5 v=0
65812 On ch=1 n=b4 v=80
65876 On ch=1 n=g4 v=0
65956 On ch=1 n=d5 v=65
66018 On ch=1 n=g5 v=0
66120 On ch=1 n=a5 v=83
66122 On ch=1 n=c#5 v=57
66150 On ch=1 n=b4 v=0
66164 Par ch=1 c=64 v=63
66168 On ch=1 n=d5 v=0
66184 Par ch=1 c=64 v=0
66192 Par ch=1 c=64 v=63
66234 Par ch=1 c=64 v=127
66310 On ch=1 n=e5 v=49
66442 On ch=1 n=e5 v=0
66464 On ch=1 n=a5 v=0
66470 On ch=1 n=c#5 v=0
66522 On ch=1 n=b4 v=54
66528 On ch=1 n=d5 v=45
66538 On ch=1 n=b5 v=84
66602 Par ch=1 c=64 v=63
66648 Par ch=1 c=64 v=127
66704 On ch=1 n=d5 v=0
66704 On ch=1 n=f#5 v=64
66842 On ch=1 n=b4 v=0
66854 On ch=1 n=a4 v=60
66866 On ch=1 n=d5 v=56
66926 On ch=1 n=f#5 v=0
66940 On ch=1 n=b5 v=0
66972 On ch=1 n=d5 v=0
66980 On ch=1 n=a5 v=98
67074 On ch=1 n=a5 v=0
67116 On ch=1 n=a4 v=0
67130 On ch=1 n=d6 v=102
67130 On ch=1 n=d5 v=81
67134 On ch=1 n=e5 v=77
67150 Par ch=1 c=64 v=63
67202 Par ch=1 c=64 v=127
67222 On ch=1 n=e5 v=0
67252 On ch=1 n=g5 v=84
67324 On ch=1 n=d5 v=0
67376 On ch=1 n=g5 v=0
67400 On ch=1 n=c#5 v=108
67402 On ch=1 n=e5 v=44
67416 On ch=1 n=d6 v=0
67460 On ch=1 n=e5 v=0
67508 On ch=1 n=c#6 v=112
67542 On ch=1 n=c#5 v=0
67638 On ch=1 n=c#6 v=0
67646 Par ch=1 c=64 v=63
67664 On ch=1 n=f#5 v=103
67666 On ch=1 n=e6 v=104
67670 On ch=1 n=e5 v=90
67694 Par ch=1 c=64 v=127
67750 On ch=1 n=f#5 v=0
67774 On ch=1 n=e5 v=0
67794 On ch=1 n=a5 v=86
67914 On ch=1 n=f#5 v=105
67922 On ch=1 n=a5 v=0
67924 On ch=1 n=d5 v=111
67982 On ch=1 n=f#5 v=0
67982 On ch=1 n=e6 v=0
68028 On ch=1 n=d6 v=94
68030 On ch=1 n=d5 v=0
68146 Par ch=1 c=64 v=63
68162 On ch=1 n=b4 v=92
68168 On ch=1 n=d6 v=0
68168 On ch=1 n=b5 v=98
68180 On ch=1 n=f#5 v=95
68194 Par ch=1 c=64 v=127
68258 On ch=1 n=f#5 v=0
68264 On ch=1 n=d5 v=97
68290 On ch=1 n=d6 v=93
68294 On ch=1 n=b4 v=0
68316 On ch=1 n=b5 v=0
68378 On ch=1 n=d6 v=0
68414 Par ch=1 c=64 v=63
68420 On ch=1 n=f#6 v=106
68422 On ch=1 n=f#5 v=113
68450 Par ch=1 c=64 v=127
68450 On ch=1 n=c#6 v=99
68456 On ch=1 n=d5 v=0
68506 On ch=1 n=f#5 v=0
68522 On ch=1 n=f#6 v=0
68540 On ch=1 n=c#6 v=0
68568 On ch=1 n=a5 v=66
68588 On ch=1 n=b5 v=49
68622 On ch=1 n=b5 v=0
68622 On ch=1 n=a5 v=0
68698 On ch=1 n=a6 v=113
68704 On ch=1 n=a5 v=106
68710 Par ch=1 c=64 v=63
68710 On ch=1 n=b5 v=108
68736 Par ch=1 c=64 v=127
68826 On ch=1 n=d6 v=97
68860 On ch=1 n=b5 v=0
68906 On ch=1 n=a5 v=0
68956 On ch=1 n=g5 v=109
68956 On ch=1 n=b5 v=97
68962 On ch=1 n=d6 v=0
69016 On ch=1 n=a6 v=0
69024 On ch=1 n=b5 v=0
69064 On ch=1 n=g6 v=106
69068 On ch=1 n=g5 v=0
69168 Par ch=1 c=64 v=63
69190 On ch=1 n=g5 v=102
69192 On ch=1 n=e5 v=100
69196 On ch=1 n=e6 v=108
69198 Par ch=1 c=64 v=127
69230 On ch=1 n=g6 v=0
69266 On ch=1 n=g5 v=0
69288 On ch=1 n=g6 v=104
69292 On ch=1 n=e5 v=0
69318 On ch=1 n=e6 v=0
69396 On ch=1 n=g6 v=0
69400 Par ch=1 c=64 v=63
69436 On ch=1 n=f#5 v=109
69438 On ch=1 n=c6 v=113
69438 Par ch=1 c=64 v=127
69438 On ch=1 n=f#6 v=114
69438 On ch=1 n=b6 v=107
69438 Par ch=1 c=67 v=127
69442 On ch=1 n=d5 v=100
69498 On ch=1 n=f#5 v=0
69508 On ch=1 n=c6 v=0
69510 On ch=1 n=d5 v=0
69552 On ch=1 n=b6 v=0
69554 On ch=1 n=f#6 v=0
69556 On ch=1 n=d6 v=86
69616 Par ch=1 c=64 v=63
69630 On ch=1 n=d6 v=0
69632 Par ch=1 c=64 v=0
69740 Par ch=1 c=67 v=0
69740 On ch=1 n=d6 v=116
69742 On ch=1 n=g5 v=103
69746 On ch=1 n=e5 v=107
69748 On ch=1 n=d7 v=118
69752 On ch=1 n=g6 v=112
69784 Par ch=1 c=64 v=127
69844 On ch=1 n=d6 v=0
69872 On ch=1 n=g5 v=0
69876 On ch=1 n=d7 v=0
69896 On ch=1 n=d6 v=80
69902 On ch=1 n=e6 v=68
69908 On ch=1 n=e5 v=0
69914 On ch=1 n=g6 v=0
69930 On ch=1 n=e6 v=0
69942 On ch=1 n=d6 v=0
70034 On ch=1 n=d6 v=101
70038 On ch=1 n=g5 v=94
70094 On ch=1 n=g5 v=0
70112 On ch=1 n=d6 v=0
70130 On ch=1 n=d5 v=82
70134 On ch=1 n=e5 v=78
70180 On ch=1 n=e5 v=0
70180 On ch=1 n=d5 v=0
70238 On ch=1 n=d5 v=96
70240 On ch=1 n=c4 v=118
70240 On ch=1 n=g4 v=114
70240 On ch=1 n=e5 v=96
70292 On ch=1 n=g4 v=0
70298 On ch=1 n=c4 v=0
70320 On ch=1 n=d5 v=0
70322 On ch=1 n=e5 v=0
70344 On ch=1 n=g5 v=87
70352 On ch=1 n=d6 v=93
70390 On ch=1 n=g5 v=0
70416 On ch=1 n=d6 v=0
70474 On ch=1 n=d6 v=70
70478 On ch=1 n=e6 v=94
70518 On ch=1 n=e6 v=0
70524 On ch=1 n=d6 v=0
70574 On ch=1 n=d7 v=103
70578 On ch=1 n=g6 v=94
70628 On ch=1 n=g6 v=0
70632 On ch=1 n=d7 v=0
70684 On ch=1 n=d7 v=103
70686 On ch=1 n=d6 v=98
70688 On ch=1 n=g5 v=87
70688 On ch=1 n=g6 v=107
70694 On ch=1 n=e5 v=79
70704 Par ch=1 c=64 v=63
70708 Par ch=1 c=64 v=0
70724 On ch=1 n=d6 v=0
70732 On ch=1 n=g5 v=0
70732 On ch=1 n=d7 v=0
70750 On ch=1 n=g6 v=0
70758 On ch=1 n=e5 v=0
70802 On ch=1 n=c6 v=92
70848 On ch=1 n=c6 v=0
70916 On ch=1 n=g5 v=91
70922 On ch=1 n=c5 v=76
70924 On ch=1 n=e5 v=77
70968 On ch=1 n=e5 v=0
70980 On ch=1 n=c5 v=0
70980 On ch=1 n=g5 v=0
71014 On ch=1 n=a5 v=83
71062 On ch=1 n=a5 v=0
71140 On ch=1 n=g5 v=93
71142 On ch=1 n=e5 v=87
71142 On ch=1 n=d6 v=101
71142 On ch=1 n=d7 v=113
71146 On ch=1 n=g6 v=107
71184 On ch=1 n=g5 v=0
71188 On ch=1 n=g6 v=0
71188 On ch=1 n=d7 v=0
71194 On ch=1 n=d6 v=0
71200 On ch=1 n=e5 v=0
71264 On ch=1 n=c6 v=98
71308 On ch=1 n=c6 v=0
71366 On ch=1 n=c5 v=82
71368 On ch=1 n=g5 v=80
71378 On ch=1 n=e5 v=65
71406 On ch=1 n=e5 v=0
71420 On ch=1 n=g5 v=0
71422 On ch=1 n=c5 v=0
71466 On ch=1 n=a5 v=98
71520 On ch=1 n=a5 v=0
71602 On ch=1 n=e5 v=103
71602 On ch=1 n=g5 v=106
71604 On ch=1 n=d6 v=113
71608 On ch=1 n=d7 v=113
71612 On ch=1 n=g6 v=106
71616 Par ch=1 c=64 v=127
71644 On ch=1 n=d6 v=0
71652 On ch=1 n=g5 v=0
71662 On ch=1 n=g6 v=0
71666 On ch=1 n=d7 v=0
71684 On ch=1 n=e5 v=0
71732 On ch=1 n=c6 v=65
71734 On ch=1 n=d6 v=60
71766 On ch=1 n=d6 v=0
71770 On ch=1 n=c6 v=0
71860 On ch=1 n=g5 v=102
71862 On ch=1 n=d6 v=97
71916 On ch=1 n=g5 v=0
71950 On ch=1 n=d6 v=0
71962 On ch=1 n=d5 v=76
71964 On ch=1 n=e5 v=77
72022 On ch=1 n=e5 v=0
72022 On ch=1 n=d5 v=0
72074 On ch=1 n=a3 v=122
72076 On ch=1 n=e4 v=127
72086 On ch=1 n=d5 v=82
72088 On ch=1 n=e5 v=83
72120 On ch=1 n=e4 v=0
72130 On ch=1 n=a3 v=0
72154 On ch=1 n=d5 v=0
72158 On ch=1 n=e5 v=0
72196 On ch=1 n=g5 v=75
72204 On ch=1 n=d6 v=83
72226 On ch=1 n=g5 v=0
72258 On ch=1 n=d6 v=0
72322 On ch=1 n=d6 v=96
72372 On ch=1 n=d6 v=0
72432 On ch=1 n=d7 v=102
72432 On ch=1 n=g6 v=103
72482 On ch=1 n=g6 v=0
72488 On ch=1 n=d7 v=0
72534 On ch=1 n=d7 v=102
72534 On ch=1 n=g6 v=111
72546 On ch=1 n=d6 v=104
72550 On ch=1 n=g5 v=89
72552 On ch=1 n=e5 v=87
72588 On ch=1 n=g5 v=0
72596 On ch=1 n=d6 v=0
72602 On ch=1 n=d7 v=0
72604 On ch=1 n=e5 v=0
72614 On ch=1 n=g6 v=0
72662 On ch=1 n=c6 v=96
72710 On ch=1 n=c6 v=0
72770 On ch=1 n=g5 v=94
72772 On ch=1 n=c5 v=73
72772 Par ch=1 c=64 v=63
72774 Par ch=1 c=64 v=0
72778 On ch=1 n=e5 v=77
72808 On ch=1 n=e5 v=0
72818 On ch=1 n=g5 v=0
72828 On ch=1 n=c5 v=0
72872 On ch=1 n=a5 v=97
72918 On ch=1 n=a5 v=0
72988 On ch=1 n=g5 v=92
72992 On ch=1 n=d6 v=98
72992 On ch=1 n=e5 v=87
72998 Par ch=1 c=64 v=63
72998 On ch=1 n=d7 v=108
73002 On ch=1 n=g6 v=104
73004 Par ch=1 c=64 v=127
73032 On ch=1 n=g5 v=0
73044 On ch=1 n=d7 v=0
73048 On ch=1 n=d6 v=0
73050 On ch=1 n=g6 v=0
73060 On ch=1 n=e5 v=0
73112 On ch=1 n=c6 v=102
73164 On ch=1 n=c6 v=0
73218 On ch=1 n=g5 v=88
73224 On ch=1 n=e5 v=76
73224 On ch=1 n=c5 v=68
73236 Par ch=1 c=64 v=63
73242 Par ch=1 c=64 v=0
73260 On ch=1 n=c5 v=0
73268 On ch=1 n=e5 v=0
73272 On ch=1 n=g5 v=0
73308 On ch=1 n=a5 v=90
73356 On ch=1 n=a5 v=0
73446 On ch=1 n=a5 v=92
73450 On ch=1 n=d6 v=100
73450 On ch=1 n=f5 v=91
73452 Par ch=1 c=64 v=127
73460 On ch=1 n=d7 v=100
73462 On ch=1 n=a6 v=97
73464 On ch=1 n=f6 v=106
73490 On ch=1 n=a5 v=0
73492 On ch=1 n=d6 v=0
73494 On ch=1 n=f6 v=0
73500 On ch=1 n=d7 v=0
73504 On ch=1 n=a6 v=0
73510 On ch=1 n=f5 v=0
73596 On ch=1 n=c6 v=66
73636 On ch=1 n=c6 v=0
73698 On ch=1 n=f4 v=85
73706 On ch=1 n=c5 v=88
73714 On ch=1 n=a5 v=108
73736 On ch=1 n=f4 v=0
73738 On ch=1 n=c5 v=0
73760 On ch=1 n=a5 v=0
73806 On ch=1 n=c6 v=90
73864 On ch=1 n=c6 v=0
73926 On ch=1 n=d7 v=96
73928 On ch=1 n=f6 v=104
73928 On ch=1 n=a6 v=94
73928 On ch=1 n=a5 v=90
73932 On ch=1 n=f5 v=82
73934 On ch=1 n=d6 v=88
73936 Par ch=1 c=64 v=63
73938 Par ch=1 c=64 v=0
73956 On ch=1 n=d6 v=0
73962 On ch=1 n=a5 v=0
73962 On ch=1 n=d7 v=0
73964 On ch=1 n=a6 v=0
73964 On ch=1 n=f6 v=0
73976 On ch=1 n=f5 v=0
74030 On ch=1 n=c6 v=79
74086 On ch=1 n=c6 v=0
74158 On ch=1 n=c5 v=104
74160 On ch=1 n=b5 v=107
74162 On ch=1 n=g6 v=103
74164 On ch=1 n=g5 v=100
74164 On ch=1 n=e7 v=90
74168 On ch=1 n=b6 v=79
74190 On ch=1 n=g5 v=0
74194 On ch=1 n=b6 v=0
74200 On ch=1 n=e7 v=0
74202 On ch=1 n=b5 v=0
74204 On ch=1 n=c5 v=0
74206 On ch=1 n=g6 v=0
74256 On ch=1 n=d6 v=87
74308 On ch=1 n=d6 v=0
74374 On ch=1 n=a5 v=108
74376 On ch=1 n=d6 v=109
74378 Par ch=1 c=64 v=127
74378 On ch=1 n=f5 v=98
74380 On ch=1 n=d7 v=103
74382 On ch=1 n=a6 v=94
74382 On ch=1 n=f6 v=107
74412 On ch=1 n=d6 v=0
74414 On ch=1 n=a5 v=0
74422 On ch=1 n=d7 v=0
74424 On ch=1 n=f6 v=0
74428 On ch=1 n=a6 v=0
74430 On ch=1 n=f5 v=0
74494 On ch=1 n=c6 v=82
74552 On ch=1 n=c6 v=0
74620 On ch=1 n=f4 v=87
74626 On ch=1 n=c5 v=85
74630 On ch=1 n=a5 v=100
74654 On ch=1 n=c5 v=0
74664 On ch=1 n=f4 v=0
74678 On ch=1 n=a5 v=0
74722 On ch=1 n=c6 v=92
74782 On ch=1 n=c6 v=0
74844 On ch=1 n=a5 v=97
74846 Par ch=1 c=64 v=63
74848 On ch=1 n=f5 v=87
74850 On ch=1 n=d6 v=91
74854 On ch=1 n=d7 v=100
74854 Par ch=1 c=64 v=0
74856 On ch=1 n=f6 v=71
74858 On ch=1 n=g6 v=74
74864 On ch=1 n=a6 v=48
74868 On ch=1 n=b6 v=38
74874 On ch=1 n=d6 v=0
74878 On ch=1 n=a5 v=0
74884 On ch=1 n=f6 v=0
74884 On ch=1 n=d7 v=0
74886 On ch=1 n=g6 v=0
74896 On ch=1 n=a6 v=0
74896 On ch=1 n=f5 v=0
74900 On ch=1 n=b6 v=0
74946 On ch=1 n=c6 v=97
74996 On ch=1 n=c6 v=0
75070 On ch=1 n=c5 v=112
75070 On ch=1 n=g6 v=98
75070 On ch=1 n=e7 v=89
75072 On ch=1 n=b6 v=89
75072 On ch=1 n=b5 v=112
75072 On ch=1 n=g5 v=111
75094 On ch=1 n=d7 v=40
75108 On ch=1 n=g5 v=0
75112 On ch=1 n=b5 v=0
75120 On ch=1 n=e7 v=0
75120 On ch=1 n=g6 v=0
75122 On ch=1 n=d7 v=0
75122 On ch=1 n=c5 v=0
75124 On ch=1 n=b6 v=0
75164 On ch=1 n=d6 v=94
75218 On ch=1 n=d6 v=0
75282 On ch=1 n=a5 v=101
75282 On ch=1 n=f5 v=100
75282 On ch=1 n=d6 v=101
75286 On ch=1 n=d7 v=116
75290 On ch=1 n=a6 v=104
75290 On ch=1 n=f6 v=112
75292 Par ch=1 c=64 v=127
75308 On ch=1 n=d6 v=0
75324 On ch=1 n=a5 v=0
75338 On ch=1 n=a6 v=0
75340 On ch=1 n=f5 v=0
75342 On ch=1 n=d7 v=0
75346 On ch=1 n=f6 v=0
75398 On ch=1 n=c6 v=70
75458 On ch=1 n=c6 v=0
75514 On ch=1 n=f4 v=76
75526 On ch=1 n=c5 v=79
75542 On ch=1 n=a5 v=50
75554 On ch=1 n=c5 v=0
75558 On ch=1 n=f4 v=0
75580 On ch=1 n=a5 v=0
75610 On ch=1 n=c6 v=78
75670 On ch=1 n=c6 v=0
75744 On ch=1 n=d7 v=108
75746 On ch=1 n=a5 v=91
75746 On ch=1 n=a6 v=102
75746 On ch=1 n=f6 v=111
75748 On ch=1 n=d6 v=97
75748 On ch=1 n=f5 v=88
75752 Par ch=1 c=64 v=0
75774 On ch=1 n=d6 v=0
75782 On ch=1 n=a5 v=0
75786 On ch=1 n=f6 v=0
75790 On ch=1 n=a6 v=0
75794 On ch=1 n=d7 v=0
75806 On ch=1 n=f5 v=0
75850 On ch=1 n=c6 v=82
75894 On ch=1 n=c6 v=0
75978 On ch=1 n=c5 v=97
75980 On ch=1 n=e7 v=103
75980 On ch=1 n=g6 v=103
75982 On ch=1 n=g5 v=96
75982 On ch=1 n=b5 v=96
75986 On ch=1 n=b6 v=80
76010 On ch=1 n=b6 v=0
76012 On ch=1 n=g5 v=0
76016 On ch=1 n=b5 v=0
76022 On ch=1 n=g6 v=0
76028 On ch=1 n=e7 v=0
76028 On ch=1 n=c5 v=0
76088 On ch=1 n=d6 v=75
76120 On ch=1 n=d6 v=0
76198 On ch=1 n=a5 v=97
76198 On ch=1 n=d7 v=104
76200 On ch=1 n=d6 v=97
76200 On ch=1 n=f5 v=91
76202 On ch=1 n=f6 v=103
76202 On ch=1 n=a6 v=92
76226 On ch=1 n=d6 v=0
76240 On ch=1 n=a5 v=0
76258 On ch=1 n=f5 v=0
76262 On ch=1 n=a6 v=0
76262 On ch=1 n=d7 v=0
76270 On ch=1 n=f6 v=0
76294 On ch=1 n=c6 v=91
76356 On ch=1 n=c6 v=0
76424 On ch=1 n=c5 v=98
76426 On ch=1 n=e7 v=99
76428 On ch=1 n=b5 v=97
76428 On ch=1 n=g5 v=97
76428 On ch=1 n=g6 v=99
76430 On ch=1 n=b6 v=86
76458 On ch=1 n=g5 v=0
76468 On ch=1 n=g6 v=0
76470 On ch=1 n=b5 v=0
76472 On ch=1 n=c5 v=0
76480 On ch=1 n=b6 v=0
76484 On ch=1 n=e7 v=0
76530 On ch=1 n=d6 v=91
76586 On ch=1 n=d6 v=0
76642 On ch=1 n=a5 v=100
76644 On ch=1 n=d6 v=102
76644 On ch=1 n=d7 v=96
76644 On ch=1 n=f5 v=92
76648 On ch=1 n=a6 v=87
76652 On ch=1 n=f6 v=85
76676 On ch=1 n=d6 v=0
76686 On ch=1 n=a5 v=0
76700 On ch=1 n=f5 v=0
76700 On ch=1 n=d7 v=0
76716 On ch=1 n=a6 v=0
76740 On ch=1 n=c6 v=87
76754 On ch=1 n=f6 v=0
76794 On ch=1 n=c6 v=0
76854 On ch=1 n=c5 v=92
76860 On ch=1 n=b5 v=98
76862 On ch=1 n=g5 v=94
76866 On ch=1 n=b6 v=84
76866 On ch=1 n=e7 v=80
76868 On ch=1 n=g6 v=90
76900 On ch=1 n=g5 v=0
76908 On ch=1 n=b5 v=0
76916 On ch=1 n=c5 v=0
76924 On ch=1 n=e7 v=0
76936 On ch=1 n=b6 v=0
76940 On ch=1 n=g6 v=0
76970 On ch=1 n=d6 v=75
77016 On ch=1 n=d6 v=0
77108 Par ch=1 c=64 v=127
77116 On ch=1 n=f#7 v=106
77120 On ch=1 n=b6 v=92
77222 On ch=1 n=f#6 v=93
77234 On ch=1 n=f#7 v=0
77260 On ch=1 n=b6 v=0
77274 On ch=1 n=f#6 v=0
77346 On ch=1 n=b6 v=92
77350 On ch=1 n=f#6 v=94
77388 On ch=1 n=b6 v=0
77436 On ch=1 n=f#6 v=0
77454 On ch=1 n=b5 v=93
77504 On ch=1 n=b5 v=0
77558 On ch=1 n=f#6 v=86
77562 On ch=1 n=b5 v=75
77664 On ch=1 n=f#5 v=97
77696 On ch=1 n=f#6 v=0
77736 On ch=1 n=b5 v=0
77740 On ch=1 n=f#5 v=0
77784 On ch=1 n=f#5 v=79
77784 On ch=1 n=b5 v=90
77854 On ch=1 n=b5 v=0
77854 On ch=1 n=f#5 v=0
77880 On ch=1 n=b4 v=104
77964 On ch=1 n=b4 v=0
77992 On ch=1 n=b5 v=107
77994 On ch=1 n=f#6 v=108
78096 On ch=1 n=f#5 v=109
78140 On ch=1 n=f#6 v=0
78148 On ch=1 n=b5 v=0
78150 On ch=1 n=f#5 v=0
78208 On ch=1 n=b5 v=85
78212 On ch=1 n=f#5 v=77
78280 On ch=1 n=f#5 v=0
78280 On ch=1 n=b5 v=0
78308 On ch=1 n=b4 v=102
78368 On ch=1 n=b4 v=0
78424 On ch=1 n=f#5 v=92
78426 On ch=1 n=b4 v=69
78512 On ch=1 n=f#4 v=86
78534 On ch=1 n=f#5 v=0
78562 On ch=1 n=f#4 v=0
78574 On ch=1 n=b4 v=0
78632 On ch=1 n=b4 v=72
78638 On ch=1 n=f#4 v=83
78690 On ch=1 n=f#4 v=0
78696 On ch=1 n=b4 v=0
78726 On ch=1 n=b3 v=111
78826 On ch=1 n=b3 v=0
78852 Par ch=1 c=64 v=63
78858 On ch=1 n=b4 v=103
78858 On ch=1 n=f#5 v=109
78860 Par ch=1 c=64 v=0
78894 Par ch=1 c=64 v=63
78908 Par ch=1 c=64 v=127
78958 On ch=1 n=f#4 v=106
78994 On ch=1 n=f#5 v=0
79002 On ch=1 n=b4 v=0
79016 On ch=1 n=f#4 v=0
79068 On ch=1 n=b4 v=96
79070 On ch=1 n=f#4 v=78
79126 On ch=1 n=f#4 v=0
79134 On ch=1 n=b4 v=0
79152 On ch=1 n=b3 v=99
79210 On ch=1 n=b3 v=0
79268 On ch=1 n=f#4 v=83
79276 On ch=1 n=b3 v=72
79352 On ch=1 n=f#3 v=94
79370 On ch=1 n=f#4 v=0
79394 On ch=1 n=b3 v=0
79396 On ch=1 n=f#3 v=0
79472 On ch=1 n=b3 v=88
79480 On ch=1 n=f#3 v=82
79546 On ch=1 n=b3 v=0
79568 On ch=1 n=f#3 v=0
79568 On ch=1 n=b2 v=88
79620 On ch=1 n=b2 v=0
79722 On ch=1 n=b1 v=120
79776 On ch=1 n=b1 v=0
79888 On ch=1 n=b3 v=80
79936 On ch=1 n=b3 v=0
80004 On ch=1 n=b3 v=96
80050 On ch=1 n=b3 v=0
80084 On ch=1 n=b3 v=84
80138 On ch=1 n=b3 v=0
80196 On ch=1 n=b3 v=108
80232 On ch=1 n=b3 v=0
80234 Par ch=1 c=64 v=63
80250 Par ch=1 c=64 v=0
80300 On ch=1 n=b3 v=91
80356 On ch=1 n=b3 v=0
80410 On ch=1 n=b3 v=86
80466 On ch=1 n=b3 v=0
80500 On ch=1 n=b3 v=90
80556 On ch=1 n=b3 v=0
80612 On ch=1 n=b3 v=107
80660 On ch=1 n=b3 v=0
80718 On ch=1 n=b3 v=85
80768 On ch=1 n=b3 v=0
80840 On ch=1 n=b3 v=60
80886 On ch=1 n=b3 v=0
80922 On ch=1 n=b3 v=83
80984 On ch=1 n=b3 v=0
81038 On ch=1 n=b3 v=107
81088 On ch=1 n=b3 v=0
81144 On ch=1 n=b3 v=76
81194 On ch=1 n=b3 v=0
81264 On ch=1 n=b3 v=89
81316 On ch=1 n=b3 v=0
81356 On ch=1 n=b3 v=76
81414 On ch=1 n=b3 v=0
81468 On ch=1 n=b3 v=102
81512 On ch=1 n=b3 v=0
81578 On ch=1 n=b3 v=78
81630 On ch=1 n=b3 v=0
81696 On ch=1 n=b3 v=85
81750 On ch=1 n=b3 v=0
81788 On ch=1 n=b3 v=76
81846 On ch=1 n=b3 v=0
81896 On ch=1 n=b3 v=93
81940 On ch=1 n=b3 v=0
82004 On ch=1 n=b3 v=71
82054 On ch=1 n=b3 v=0
82122 On ch=1 n=b3 v=81
82174 On ch=1 n=b3 v=0
82214 On ch=1 n=b3 v=76
82268 On ch=1 n=b3 v=0
82324 On ch=1 n=b3 v=91
82372 On ch=1 n=b3 v=0
82436 On ch=1 n=b3 v=73
82490 On ch=1 n=b3 v=0
82552 On ch=1 n=b3 v=76
82602 On ch=1 n=b3 v=0
82646 On ch=1 n=b3 v=71
82702 On ch=1 n=b3 v=0
82756 On ch=1 n=b3 v=87
82804 On ch=1 n=b3 v=0
82860 On ch=1 n=b3 v=63
82912 On ch=1 n=b3 v=0
82982 On ch=1 n=b3 v=68
83026 On ch=1 n=b3 v=0
83066 On ch=1 n=b3 v=72
83120 On ch=1 n=b3 v=0
83152 Par ch=1 c=67 v=127
83178 On ch=1 n=b3 v=88
83224 On ch=1 n=b3 v=0
83290 On ch=1 n=b3 v=60
83338 On ch=1 n=b3 v=0
83410 On ch=1 n=b3 v=82
83464 On ch=1 n=b3 v=0
83502 On ch=1 n=b3 v=68
83550 On ch=1 n=b3 v=0
83594 On ch=1 n=b3 v=84
83646 On ch=1 n=b3 v=0
83704 On ch=1 n=b3 v=71
83756 On ch=1 n=b3 v=0
83824 On ch=1 n=b3 v=71
83876 On ch=1 n=b3 v=0
83910 On ch=1 n=b3 v=83
83972 On ch=1 n=b3 v=0
84028 On ch=1 n=b3 v=59
84042 On ch=1 n=b4 v=80
84064 On ch=1 n=f#4 v=65
84090 On ch=1 n=b3 v=0
84130 On ch=1 n=b4 v=0
84152 On ch=1 n=d4 v=75
84154 On ch=1 n=f#4 v=0
84216 On ch=1 n=d4 v=0
84262 On ch=1 n=d4 v=82
84310 On ch=1 n=d4 v=0
84358 On ch=1 n=d4 v=68
84444 On ch=1 n=d4 v=0
84476 On ch=1 n=b3 v=82
84482 On ch=1 n=f#4 v=80
84484 On ch=1 n=b4 v=63
84532 On ch=1 n=b3 v=0
84548 On ch=1 n=f#4 v=0
84566 On ch=1 n=b4 v=0
84570 On ch=1 n=d4 v=67
84648 On ch=1 n=d4 v=0
84688 On ch=1 n=d#4 v=97
84692 On ch=1 n=f3 v=78
84692 On ch=1 n=c5 v=88
84700 On ch=1 n=g4 v=75
84734 On ch=1 n=f3 v=0
84736 On ch=1 n=d#4 v=0
84776 On ch=1 n=c5 v=0
84794 On ch=1 n=d#4 v=90
84804 On ch=1 n=g4 v=0
84872 On ch=1 n=d#4 v=0
84924 On ch=1 n=d4 v=82
84926 On ch=1 n=b4 v=84
84926 On ch=1 n=b3 v=77
84934 On ch=1 n=f#4 v=87
84972 On ch=1 n=d4 v=0
84978 On ch=1 n=b3 v=0
85022 On ch=1 n=b4 v=0
85030 On ch=1 n=d4 v=71
85038 On ch=1 n=f#4 v=0
85092 On ch=1 n=d4 v=0
85146 On ch=1 n=d4 v=92
85184 On ch=1 n=d4 v=0
85242 On ch=1 n=d4 v=72
85308 On ch=1 n=d4 v=0
85364 On ch=1 n=b4 v=89
85366 On ch=1 n=d4 v=80
85372 On ch=1 n=f#4 v=89
85374 On ch=1 n=b3 v=67
85400 On ch=1 n=d4 v=0
85406 On ch=1 n=b3 v=0
85436 On ch=1 n=b4 v=0
85444 On ch=1 n=f#4 v=0
85454 On ch=1 n=d4 v=39
85542 On ch=1 n=d4 v=0
85586 On ch=1 n=d#4 v=99
85586 On ch=1 n=c5 v=75
85588 On ch=1 n=f3 v=92
85590 On ch=1 n=g4 v=68
85624 On ch=1 n=d#4 v=0
85634 On ch=1 n=f3 v=0
85668 On ch=1 n=d#4 v=76
85674 On ch=1 n=g4 v=0
85680 On ch=1 n=c5 v=0
85772 On ch=1 n=d#4 v=0
85818 On ch=1 n=d4 v=81
85820 On ch=1 n=f#4 v=83
85822 On ch=1 n=b4 v=74
85824 On ch=1 n=b3 v=74
85860 On ch=1 n=d4 v=0
85864 On ch=1 n=b3 v=0
85918 On ch=1 n=b4 v=0
85918 On ch=1 n=d4 v=68
85924 On ch=1 n=f#4 v=0
85980 On ch=1 n=d4 v=0
86046 On ch=1 n=d4 v=91
86086 On ch=1 n=d4 v=0
86130 On ch=1 n=d4 v=77
86198 On ch=1 n=d4 v=0
86250 On ch=1 n=b4 v=80
86258 On ch=1 n=f#4 v=89
86262 On ch=1 n=d4 v=77
86270 On ch=1 n=b3 v=65
86294 On ch=1 n=d4 v=0
86302 On ch=1 n=b3 v=0
86320 On ch=1 n=b4 v=0
86334 On ch=1 n=f#4 v=0
86344 On ch=1 n=d4 v=63
86430 On ch=1 n=d4 v=0
86478 On ch=1 n=d#4 v=107
86482 On ch=1 n=f3 v=92
86490 On ch=1 n=c5 v=71
86492 On ch=1 n=g4 v=73
86516 On ch=1 n=d#4 v=0
86528 On ch=1 n=f3 v=0
86574 On ch=1 n=d#4 v=78
86582 On ch=1 n=g4 v=0
86590 On ch=1 n=c5 v=0
86656 On ch=1 n=d#4 v=0
86712 On ch=1 n=d4 v=79
86712 On ch=1 n=b4 v=84
86714 On ch=1 n=b3 v=65
86716 On ch=1 n=f#4 v=87
86750 On ch=1 n=d4 v=0
86752 On ch=1 n=b3 v=0
86790 On ch=1 n=b4 v=0
86800 On ch=1 n=d4 v=65
86822 On ch=1 n=f#4 v=0
86888 On ch=1 n=d4 v=0
86930 On ch=1 n=d#4 v=105
86938 On ch=1 n=f3 v=80
86940 On ch=1 n=c5 v=74
86946 On ch=1 n=g4 v=66
86976 On ch=1 n=d#4 v=0
86978 On ch=1 n=f3 v=0
87026 On ch=1 n=c5 v=0
87026 On ch=1 n=d#4 v=74
87040 On ch=1 n=g4 v=0
87090 On ch=1 n=d#4 v=0
87154 On ch=1 n=c4 v=81
87158 On ch=1 n=a3 v=74
87162 On ch=1 n=e4 v=83
87168 On ch=1 n=a4 v=71
87192 On ch=1 n=c4 v=0
87202 On ch=1 n=a3 v=0
87234 On ch=1 n=a4 v=0
87236 On ch=1 n=e4 v=0
87248 On ch=1 n=c4 v=61
87322 On ch=1 n=c4 v=0
87382 On ch=1 n=c#4 v=100
87390 On ch=1 n=d#3 v=90
87390 On ch=1 n=a#4 v=85
87402 On ch=1 n=f4 v=75
87424 On ch=1 n=c#4 v=0
87440 On ch=1 n=d#3 v=0
87470 On ch=1 n=f4 v=0
87482 On ch=1 n=c#4 v=81
87498 On ch=1 n=a#4 v=0
87560 On ch=1 n=c#4 v=0
87576 Par ch=1 c=67 v=127
87614 On ch=1 n=a#3 v=93
87620 On ch=1 n=g3 v=83
87622 On ch=1 n=d4 v=70
87628 On ch=1 n=g4 v=57
87662 On ch=1 n=a#3 v=0
87668 On ch=1 n=g3 v=0
87718 On ch=1 n=a#3 v=67
87736 On ch=1 n=d4 v=0
87752 On ch=1 n=g4 v=0
87772 On ch=1 n=a#3 v=0
87850 On ch=1 n=a#3 v=91
87884 On ch=1 n=a#3 v=0
87938 On ch=1 n=a#3 v=70
88024 On ch=1 n=a#3 v=0
88062 On ch=1 n=a#3 v=86
88062 On ch=1 n=g4 v=73
88064 On ch=1 n=g3 v=84
88070 On ch=1 n=d4 v=75
88086 On ch=1 n=a#3 v=0
88094 On ch=1 n=g3 v=0
88164 On ch=1 n=g4 v=0
88166 On ch=1 n=d4 v=0
88168 On ch=1 n=a#3 v=74
88260 On ch=1 n=a#3 v=0
88290 On ch=1 n=g#4 v=93
88294 On ch=1 n=b3 v=88
88296 On ch=1 n=c#3 v=93
88296 On ch=1 n=d#4 v=85
88330 On ch=1 n=b3 v=0
88356 On ch=1 n=c#3 v=0
88376 On ch=1 n=b3 v=66
88380 On ch=1 n=g#4 v=0
88386 On ch=1 n=d#4 v=0
88446 On ch=1 n=b3 v=0
88508 On ch=1 n=g4 v=76
88508 On ch=1 n=a#3 v=97
88524 On ch=1 n=g3 v=72
88524 On ch=1 n=d4 v=64
88544 On ch=1 n=a#3 v=0
88550 On ch=1 n=g3 v=0
88598 On ch=1 n=a#3 v=65
88622 On ch=1 n=d4 v=0
88622 On ch=1 n=g4 v=0
88656 On ch=1 n=a#3 v=0
88736 On ch=1 n=a#3 v=93
88780 On ch=1 n=a#3 v=0
88822 On ch=1 n=a#3 v=71
88914 On ch=1 n=a#3 v=0
88950 On ch=1 n=g4 v=72
88954 On ch=1 n=g3 v=77
88962 On ch=1 n=d4 v=65
89000 On ch=1 n=g3 v=0
89032 On ch=1 n=a#3 v=74
89034 On ch=1 n=g4 v=0
89100 On ch=1 n=d4 v=0
89132 On ch=1 n=a#3 v=0
89164 On ch=1 n=g#4 v=89
89166 On ch=1 n=b3 v=90
89172 On ch=1 n=c#3 v=88
89178 On ch=1 n=d#4 v=80
89218 On ch=1 n=b3 v=0
89228 On ch=1 n=c#3 v=0
89256 On ch=1 n=b3 v=57
89266 On ch=1 n=g#4 v=0
89304 On ch=1 n=d#4 v=0
89342 On ch=1 n=b3 v=0
89392 On ch=1 n=a#3 v=88
89394 On ch=1 n=g4 v=77
89404 On ch=1 n=g3 v=63
89418 On ch=1 n=d4 v=55
89430 On ch=1 n=a#3 v=0
89432 On ch=1 n=g3 v=0
89496 On ch=1 n=a#3 v=67
89518 On ch=1 n=d4 v=0
89528 On ch=1 n=g4 v=0
89564 On ch=1 n=a#3 v=0
89628 On ch=1 n=a#3 v=92
89672 On ch=1 n=a#3 v=0
89714 On ch=1 n=a#3 v=66
89802 On ch=1 n=a#3 v=0
89836 On ch=1 n=a#3 v=81
89842 On ch=1 n=g4 v=80
89848 On ch=1 n=g3 v=71
89852 On ch=1 n=d4 v=75
89882 On ch=1 n=g3 v=0
89882 On ch=1 n=a#3 v=0
89922 On ch=1 n=a#3 v=70
89926 On ch=1 n=g4 v=0
90018 On ch=1 n=a#3 v=0
90018 On ch=1 n=d4 v=0
90058 On ch=1 n=b3 v=85
90060 On ch=1 n=g#4 v=83
90062 On ch=1 n=c#3 v=89
90078 On ch=1 n=d#4 v=79
90114 On ch=1 n=b3 v=0
90124 On ch=1 n=c#3 v=0
90134 On ch=1 n=b3 v=44
90166 On ch=1 n=g#4 v=0
90212 On ch=1 n=b3 v=0
90222 On ch=1 n=d#4 v=0
90272 On ch=1 n=g4 v=68
90290 On ch=1 n=d4 v=71
90290 On ch=1 n=a#3 v=82
90296 On ch=1 n=g3 v=62
90330 On ch=1 n=g3 v=0
90332 On ch=1 n=a#3 v=0
90340 On ch=1 n=g4 v=0
90356 On ch=1 n=a#3 v=51
90398 On ch=1 n=d4 v=0
90444 On ch=1 n=a#3 v=0
90500 On ch=1 n=g#4 v=87
90500 On ch=1 n=b3 v=86
90506 On ch=1 n=c#3 v=88
90512 On ch=1 n=d#4 v=79
90556 On ch=1 n=b3 v=0
90562 On ch=1 n=c#3 v=0
90582 On ch=1 n=b3 v=52
90586 On ch=1 n=g#4 v=0
90588 On ch=1 n=d#4 v=0
90662 On ch=1 n=b3 v=0
90710 On ch=1 n=g#3 v=85
90720 On ch=1 n=f4 v=68
90726 On ch=1 n=f3 v=71
90740 On ch=1 n=c4 v=72
90752 On ch=1 n=g#3 v=0
90766 On ch=1 n=f3 v=0
90822 On ch=1 n=g#3 v=62
90838 On ch=1 n=f4 v=0
90914 On ch=1 n=g#3 v=0
90914 On ch=1 n=c4 v=0
90976 On ch=1 n=a3 v=68
90980 On ch=1 n=f#4 v=86
90984 On ch=1 n=b2 v=78
90998 On ch=1 n=c#4 v=71
91032 On ch=1 n=a3 v=0
91050 On ch=1 n=b2 v=0
91098 On ch=1 n=f#4 v=0
91104 On ch=1 n=a3 v=50
91112 On ch=1 n=c#4 v=0
91196 On ch=1 n=a3 v=0
91270 On ch=1 n=d#3 v=68
91274 Par ch=1 c=64 v=63
91274 Par ch=1 c=64 v=127
91278 On ch=1 n=d#4 v=76
91390 On ch=1 n=d#3 v=0
91392 On ch=1 n=d#4 v=0
91440 On ch=1 n=f#3 v=67
91494 On ch=1 n=f#3 v=0
91586 On ch=1 n=a#3 v=83
91634 On ch=1 n=a#3 v=0
91692 On ch=1 n=a#3 v=61
91696 On ch=1 n=c#4 v=78
91746 On ch=1 n=a#3 v=0
91750 On ch=1 n=c#4 v=0
91814 On ch=1 n=d#4 v=90
91856 On ch=1 n=d#4 v=0
91926 On ch=1 n=d#4 v=90
91928 On ch=1 n=f#4 v=86
91956 On ch=1 n=d#4 v=0
91968 On ch=1 n=f#4 v=0
92046 On ch=1 n=a#4 v=93
92094 On ch=1 n=a#4 v=0
92158 On ch=1 n=a#4 v=73
92160 On ch=1 n=c#5 v=88
92204 On ch=1 n=a#4 v=0
92214 On ch=1 n=c#5 v=0
92280 On ch=1 n=a#4 v=87
92330 On ch=1 n=a#4 v=0
92382 On ch=1 n=a#4 v=72
92390 On ch=1 n=c#5 v=88
92426 On ch=1 n=c#5 v=0
92426 On ch=1 n=a#4 v=0
92510 On ch=1 n=d#5 v=90
92552 On ch=1 n=d#5 v=0
92610 On ch=1 n=d#5 v=70
92614 On ch=1 n=f#5 v=91
92648 On ch=1 n=d#5 v=0
92668 On ch=1 n=f#5 v=0
92732 On ch=1 n=a#5 v=82
92780 On ch=1 n=a#5 v=0
92834 On ch=1 n=a#5 v=67
92838 On ch=1 n=c#6 v=85
92868 On ch=1 n=a#5 v=0
92888 On ch=1 n=c#6 v=0
92956 On ch=1 n=d#6 v=82
93000 On ch=1 n=d#6 v=0
93068 On ch=1 n=d#6 v=77
93072 On ch=1 n=f#6 v=73
93120 On ch=1 n=d#6 v=0
93128 On ch=1 n=f#6 v=0
93252 On ch=1 n=a#6 v=100
93304 On ch=1 n=a#6 v=0
93408 On ch=1 n=f#6 v=68
93410 On ch=1 n=d#6 v=75
93478 On ch=1 n=d#6 v=0
93488 On ch=1 n=f#6 v=0
93548 On ch=1 n=d#6 v=91
93594 On ch=1 n=d#6 v=0
93652 On ch=1 n=c#6 v=82
93660 On ch=1 n=a#5 v=60
93698 On ch=1 n=a#5 v=0
93706 On ch=1 n=c#6 v=0
93780 On ch=1 n=a#5 v=92
93828 On ch=1 n=a#5 v=0
93896 On ch=1 n=f#5 v=64
93954 On ch=1 n=f#5 v=0
94018 On ch=1 n=d#5 v=76
94054 On ch=1 n=d#5 v=0
94112 On ch=1 n=c#5 v=67
94136 On ch=1 n=a#4 v=57
94156 On ch=1 n=c#5 v=0
94182 On ch=1 n=a#4 v=0
94236 On ch=1 n=a#4 v=67
94244 On ch=1 n=d#4 v=79
94288 On ch=1 n=d#4 v=0
94302 On ch=1 n=a#4 v=0
94330 On ch=1 n=c#5 v=84
94344 On ch=1 n=a#4 v=44
94374 On ch=1 n=a#4 v=0
94414 On ch=1 n=c#5 v=0
94466 On ch=1 n=d#5 v=98
94506 On ch=1 n=d#5 v=0
94552 On ch=1 n=d#5 v=77
94568 On ch=1 n=f#5 v=73
94604 On ch=1 n=d#5 v=0
94610 On ch=1 n=f#5 v=0
94678 On ch=1 n=a#5 v=70
94742 On ch=1 n=a#5 v=0
94782 On ch=1 n=a#5 v=56
94784 On ch=1 n=c#6 v=80
94828 On ch=1 n=a#5 v=0
94844 On ch=1 n=c#6 v=0
94916 On ch=1 n=d#6 v=93
94956 On ch=1 n=d#6 v=0
95026 On ch=1 n=d#6 v=71
95030 On ch=1 n=f#6 v=75
95082 On ch=1 n=d#6 v=0
95110 On ch=1 n=f#6 v=0
95208 On ch=1 n=a#6 v=103
95268 On ch=1 n=a#6 v=0
95340 On ch=1 n=f#6 v=70
95348 On ch=1 n=d#6 v=65
95394 On ch=1 n=d#6 v=0
95420 On ch=1 n=f#6 v=0
95468 On ch=1 n=d#6 v=94
95500 On ch=1 n=d#6 v=0
95574 On ch=1 n=c#6 v=77
95580 On ch=1 n=a#5 v=62
95622 On ch=1 n=a#5 v=0
95630 On ch=1 n=c#6 v=0
95702 On ch=1 n=a#5 v=90
95736 On ch=1 n=a#5 v=0
95800 On ch=1 n=d#5 v=87
95804 On ch=1 n=f#5 v=80
95874 On ch=1 n=d#5 v=0
95886 On ch=1 n=f#5 v=0
95910 On ch=1 n=d#5 v=72
95956 On ch=1 n=d#5 v=0
96022 On ch=1 n=c#5 v=76
96024 On ch=1 n=a#4 v=67
96062 On ch=1 n=a#4 v=0
96076 On ch=1 n=c#5 v=0
96138 On ch=1 n=a#4 v=69
96140 On ch=1 n=d#4 v=84
96202 On ch=1 n=d#4 v=0
96206 On ch=1 n=a#4 v=0
96232 On ch=1 n=c#5 v=85
96236 On ch=1 n=a#4 v=56
96266 On ch=1 n=a#4 v=0
96296 On ch=1 n=c#5 v=0
96362 On ch=1 n=d#5 v=93
96400 On ch=1 n=d#5 v=0
96448 On ch=1 n=d#5 v=76
96460 On ch=1 n=f#5 v=79
96498 On ch=1 n=d#5 v=0
96510 On ch=1 n=f#5 v=0
96572 On ch=1 n=a#5 v=76
96626 On ch=1 n=a#5 v=0
96672 On ch=1 n=a#5 v=54
96682 On ch=1 n=c#6 v=84
96728 On ch=1 n=a#5 v=0
96746 On ch=1 n=c#6 v=0
96806 On ch=1 n=d#6 v=75
96844 On ch=1 n=d#6 v=0
96912 On ch=1 n=f#6 v=79
96916 On ch=1 n=d#6 v=71
96982 On ch=1 n=d#6 v=0
96996 On ch=1 n=f#6 v=0
97040 On ch=1 n=a#6 v=61
97100 On ch=1 n=a#6 v=0
97148 On ch=1 n=f#6 v=72
97160 On ch=1 n=d#6 v=62
97232 On ch=1 n=f#6 v=0
97238 On ch=1 n=d#6 v=0
97264 On ch=1 n=d#6 v=62
97314 On ch=1 n=d#6 v=0
97384 On ch=1 n=a#5 v=63
97386 On ch=1 n=c#6 v=70
97424 On ch=1 n=a#5 v=0
97450 On ch=1 n=c#6 v=0
97552 On ch=1 n=a#6 v=107
97624 On ch=1 n=a#6 v=0
97696 On ch=1 n=c#6 v=69
97718 On ch=1 n=a#5 v=34
97752 On ch=1 n=a#5 v=0
97790 On ch=1 n=c#6 v=0
97842 On ch=1 n=d#6 v=88
97882 On ch=1 n=d#6 v=0
97928 On ch=1 n=d#6 v=69
97932 On ch=1 n=f#6 v=71
98006 On ch=1 n=d#6 v=0
98030 On ch=1 n=f#6 v=0
98062 On ch=1 n=a#6 v=100
98144 On ch=1 n=a#6 v=0
98170 On ch=1 n=f#6 v=72
98180 On ch=1 n=d#6 v=69
98242 On ch=1 n=f#6 v=0
98250 On ch=1 n=d#6 v=0
98292 On ch=1 n=d#6 v=85
98334 On ch=1 n=d#6 v=0
98388 On ch=1 n=c#6 v=71
98394 On ch=1 n=a#5 v=55
98436 On ch=1 n=a#5 v=0
98452 On ch=1 n=c#6 v=0
98494 On ch=1 n=a#5 v=68
98498 On ch=1 n=d#5 v=78
98548 On ch=1 n=d#5 v=0
98550 On ch=1 n=a#5 v=0
98592 On ch=1 n=c#6 v=67
98596 On ch=1 n=a#5 v=57
98624 On ch=1 n=a#5 v=0
98664 On ch=1 n=c#6 v=0
98720 On ch=1 n=d#6 v=92
98764 On ch=1 n=d#6 v=0
98824 On ch=1 n=d#6 v=72
98830 On ch=1 n=f#6 v=80
98894 On ch=1 n=d#6 v=0
98914 On ch=1 n=f#6 v=0
98986 On ch=1 n=g#6 v=107
99052 On ch=1 n=g#6 v=0
99120 On ch=1 n=f#6 v=64
99122 On ch=1 n=d#6 v=73
99202 On ch=1 n=d#6 v=0
99204 On ch=1 n=f#6 v=0
99246 On ch=1 n=d#6 v=85
99276 On ch=1 n=d#6 v=0
99332 On ch=1 n=f#6 v=72
99342 On ch=1 n=d#6 v=49
99366 On ch=1 n=c6 v=29
99388 On ch=1 n=f#6 v=0
99420 On ch=1 n=c6 v=0
99420 On ch=1 n=d#6 v=0
99432 On ch=1 n=d#5 v=81
99442 On ch=1 n=g#5 v=74
99494 On ch=1 n=g#5 v=0
99498 On ch=1 n=d#5 v=0
99540 On ch=1 n=g#5 v=51
99550 On ch=1 n=c6 v=58
99598 On ch=1 n=g#5 v=0
99644 On ch=1 n=c6 v=0
99668 On ch=1 n=d#6 v=92
99716 On ch=1 n=d#6 v=0
99778 On ch=1 n=d#6 v=61
99802 On ch=1 n=f#6 v=52
99842 On ch=1 n=f#6 v=0
99856 On ch=1 n=d#6 v=0
99910 On ch=1 n=g#6 v=60
99962 On ch=1 n=g#6 v=0
100010 On ch=1 n=f#6 v=65
100018 On ch=1 n=d#6 v=67
100100 On ch=1 n=f#6 v=0
100176 On ch=1 n=d#6 v=0
100242 On ch=1 n=g#5 v=46
100248 On ch=1 n=c6 v=47
100284 On ch=1 n=g#5 v=0
100298 On ch=1 n=c6 v=0
100368 On ch=1 n=a#6 v=113
100430 On ch=1 n=a#6 v=0
100470 On ch=1 n=f#6 v=74
100488 On ch=1 n=d#6 v=74
100542 On ch=1 n=f#6 v=0
100580 On ch=1 n=d#6 v=0
100610 On ch=1 n=d#6 v=87
100668 On ch=1 n=d#6 v=0
100708 On ch=1 n=a#5 v=70
100722 On ch=1 n=c6 v=60
100752 On ch=1 n=c6 v=0
100766 On ch=1 n=a#5 v=0
100832 On ch=1 n=d#6 v=107
100882 On ch=1 n=d#6 v=0
100936 On ch=1 n=c6 v=71
100940 On ch=1 n=g#5 v=67
101006 On ch=1 n=c6 v=0
101016 On ch=1 n=g#5 v=0
101062 On ch=1 n=g#5 v=91
101122 On ch=1 n=g#5 v=0
101182 On ch=1 n=f#5 v=77
101182 On ch=1 n=d#5 v=61
101224 On ch=1 n=d#5 v=0
101252 On ch=1 n=f#5 v=0
101300 On ch=1 n=f6 v=93
101380 On ch=1 n=f6 v=0
101396 On ch=1 n=g#5 v=85
101400 On ch=1 n=c6 v=72
101486 On ch=1 n=g#5 v=0
101510 On ch=1 n=c6 v=0
101514 On ch=1 n=g#5 v=76
101562 On ch=1 n=g#5 v=0
101624 On ch=1 n=f#5 v=80
101638 On ch=1 n=f5 v=35
101672 On ch=1 n=f5 v=0
101678 On ch=1 n=f#5 v=0
101804 On ch=1 n=a#6 v=106
101884 On ch=1 n=a#6 v=0
101956 On ch=1 n=f#6 v=74
101974 On ch=1 n=d#6 v=63
102018 On ch=1 n=d#6 v=0
102034 On ch=1 n=f#6 v=0
102068 On ch=1 n=d#6 v=88
102116 On ch=1 n=d#6 v=0
102180 On ch=1 n=c6 v=68
102184 On ch=1 n=g#5 v=61
102242 On ch=1 n=g#5 v=0
102256 On ch=1 n=c6 v=0
102290 On ch=1 n=a#5 v=83
102292 On ch=1 n=d#5 v=85
102336 On ch=1 n=a#5 v=0
102340 On ch=1 n=d#5 v=0
102388 On ch=1 n=c6 v=64
102390 On ch=1 n=g#5 v=49
102422 On ch=1 n=g#5 v=0
102462 On ch=1 n=c6 v=0
102502 On ch=1 n=d#6 v=88
102544 On ch=1 n=d#6 v=0
102596 On ch=1 n=d#6 v=49
102602 On ch=1 n=f#6 v=68
102688 On ch=1 n=d#6 v=0
102692 On ch=1 n=f#6 v=0
102758 On ch=1 n=g#6 v=112
102828 On ch=1 n=g#6 v=0
102896 On ch=1 n=f#6 v=65
102902 On ch=1 n=d#6 v=73
102990 On ch=1 n=f#6 v=0
103056 On ch=1 n=d#6 v=0
103130 On ch=1 n=c6 v=50
103130 On ch=1 n=g#5 v=37
103180 On ch=1 n=g#5 v=0
103180 On ch=1 n=c6 v=0
103216 On ch=1 n=g#5 v=46
103220 On ch=1 n=d#5 v=65
103264 On ch=1 n=d#5 v=0
103266 On ch=1 n=g#5 v=0
103336 On ch=1 n=c6 v=58
103404 On ch=1 n=c6 v=0
103450 On ch=1 n=d#6 v=95
103496 On ch=1 n=d#6 v=0
103546 On ch=1 n=d#6 v=50
103556 On ch=1 n=f#6 v=69
103640 On ch=1 n=f#6 v=0
103648 On ch=1 n=d#6 v=0
103678 On ch=1 n=g#6 v=62
103734 On ch=1 n=g#6 v=0
103788 On ch=1 n=f#6 v=49
103792 On ch=1 n=d#6 v=73
103876 On ch=1 n=f#6 v=0
103954 On ch=1 n=d#6 v=0
104030 On ch=1 n=c6 v=43
104034 On ch=1 n=g#5 v=27
104076 On ch=1 n=g#5 v=0
104086 On ch=1 n=c6 v=0
104134 On ch=1 n=a#6 v=104
104192 On ch=1 n=a#6 v=0
104240 On ch=1 n=f#6 v=71
104244 On ch=1 n=d#6 v=88
104330 On ch=1 n=f#6 v=0
104336 On ch=1 n=d#6 v=0
104354 On ch=1 n=d#6 v=79
104408 On ch=1 n=d#6 v=0
104450 On ch=1 n=c6 v=84
104466 On ch=1 n=a#5 v=68
104502 On ch=1 n=a#5 v=0
104506 On ch=1 n=c6 v=0
104568 On ch=1 n=d#6 v=110
104624 On ch=1 n=d#6 v=0
104624 Par ch=1 c=67 v=127
104674 On ch=1 n=g#5 v=76
104676 On ch=1 n=c6 v=74
104744 On ch=1 n=g#5 v=0
104760 On ch=1 n=c6 v=0
104788 On ch=1 n=g#5 v=95
104842 On ch=1 n=g#5 v=0
104894 Par ch=1 c=67 v=127
104906 On ch=1 n=f#5 v=86
104914 On ch=1 n=d#5 v=74
104944 On ch=1 n=d#5 v=0
104990 On ch=1 n=f#5 v=0
105034 On ch=1 n=f6 v=99
105114 On ch=1 n=f6 v=0
105126 On ch=1 n=c6 v=84
105126 On ch=1 n=g#5 v=80
105282 On ch=1 n=c6 v=0
105300 On ch=1 n=g#5 v=0
105358 On ch=1 n=f#5 v=88
105378 On ch=1 n=f5 v=45
105410 On ch=1 n=f#5 v=0
105414 On ch=1 n=f5 v=0
105486 On ch=1 n=g#6 v=108
105500 Par ch=1 c=64 v=127
105550 On ch=1 n=g#6 v=0
105608 On ch=1 n=e6 v=75
105628 On ch=1 n=c#6 v=71
105702 On ch=1 n=e6 v=0
105716 On ch=1 n=c#6 v=0
105748 On ch=1 n=g#5 v=86
105750 On ch=1 n=c#5 v=79
105776 On ch=1 n=c#5 v=0
105782 On ch=1 n=g#5 v=0
105848 On ch=1 n=b5 v=65
105848 On ch=1 n=g#5 v=55
105902 On ch=1 n=g#5 v=0
105914 On ch=1 n=b5 v=0
106020 On ch=1 n=d#7 v=103
106090 On ch=1 n=d#7 v=0
106148 On ch=1 n=g#6 v=72
106154 On ch=1 n=b6 v=59
106188 On ch=1 n=g#6 v=0
106192 On ch=1 n=b6 v=0
106260 On ch=1 n=g#6 v=95
106302 On ch=1 n=g#6 v=0
106364 On ch=1 n=e6 v=77
106370 On ch=1 n=d#6 v=76
106394 On ch=1 n=d#6 v=0
106430 On ch=1 n=e6 v=0
106484 On ch=1 n=c#7 v=112
106544 On ch=1 n=c#7 v=0
106586 On ch=1 n=b6 v=77
106588 On ch=1 n=g#6 v=80
106644 On ch=1 n=b6 v=0
106672 On ch=1 n=g#6 v=0
106710 On ch=1 n=g#6 v=88
106748 On ch=1 n=g#6 v=0
106818 On ch=1 n=e6 v=76
106826 On ch=1 n=c#6 v=65
106848 On ch=1 n=e6 v=0
106872 On ch=1 n=c#6 v=0
106914 Par ch=1 c=64 v=63
106924 Par ch=1 c=64 v=0
106924 On ch=1 n=a#6 v=100
106932 Par ch=1 c=64 v=63
106950 Par ch=1 c=64 v=127
106986 On ch=1 n=a#6 v=0
107038 On ch=1 n=g#6 v=76
107040 On ch=1 n=e6 v=74
107098 On ch=1 n=e6 v=0
107124 On ch=1 n=g#6 v=0
107164 On ch=1 n=e6 v=90
107208 On ch=1 n=e6 v=0
107278 On ch=1 n=c#6 v=75
107280 On ch=1 n=a#5 v=70
107314 On ch=1 n=c#6 v=0
107326 On ch=1 n=a#5 v=0
107376 Par ch=1 c=64 v=63
107402 Par ch=1 c=64 v=127
107404 On ch=1 n=g#6 v=109
107466 On ch=1 n=g#6 v=0
107524 On ch=1 n=e6 v=74
107540 On ch=1 n=c#6 v=71
107598 On ch=1 n=e6 v=0
107602 On ch=1 n=c#6 v=0
107658 On ch=1 n=c#6 v=99
107700 On ch=1 n=c#6 v=0
107762 On ch=1 n=b5 v=82
107780 On ch=1 n=g#5 v=65
107830 On ch=1 n=g#5 v=0
107836 On ch=1 n=b5 v=0
107874 On ch=1 n=g#5 v=79
107882 On ch=1 n=c#5 v=77
107930 On ch=1 n=c#5 v=0
107938 On ch=1 n=g#5 v=0
107968 On ch=1 n=b5 v=71
107974 On ch=1 n=g#5 v=63
108022 On ch=1 n=g#5 v=0
108038 On ch=1 n=b5 v=0
108118 On ch=1 n=c#6 v=84
108156 On ch=1 n=c#6 v=0
108224 On ch=1 n=c#6 v=49
108234 On ch=1 n=e6 v=46
108280 On ch=1 n=c#6 v=0
108292 On ch=1 n=e6 v=0
108372 On ch=1 n=f#6 v=113
108442 On ch=1 n=f#6 v=0
108498 On ch=1 n=e6 v=67
108514 On ch=1 n=c#6 v=57
108564 On ch=1 n=c#6 v=0
108568 On ch=1 n=e6 v=0
108624 On ch=1 n=c#6 v=86
108664 On ch=1 n=c#6 v=0
108724 On ch=1 n=b5 v=68
108732 On ch=1 n=f#5 v=63
108782 On ch=1 n=f#5 v=0
108794 On ch=1 n=b5 v=0
108824 On ch=1 n=c#5 v=69
108830 On ch=1 n=f#5 v=48
108882 On ch=1 n=f#5 v=0
108894 On ch=1 n=c#5 v=0
108924 On ch=1 n=b5 v=55
108930 On ch=1 n=f#5 v=40
108960 On ch=1 n=f#5 v=0
108998 On ch=1 n=b5 v=0
109066 On ch=1 n=c#6 v=91
109102 On ch=1 n=c#6 v=0
109182 On ch=1 n=c#6 v=62
109184 On ch=1 n=e6 v=54
109238 On ch=1 n=c#6 v=0
109268 On ch=1 n=e6 v=0
109326 Par ch=1 c=64 v=63
109352 On ch=1 n=g#6 v=108
109360 Par ch=1 c=64 v=127
109422 On ch=1 n=g#6 v=0
109496 On ch=1 n=e6 v=72
109498 On ch=1 n=c#6 v=71
109570 On ch=1 n=e6 v=0
109576 On ch=1 n=c#6 v=0
109622 On ch=1 n=c#5 v=87
109626 On ch=1 n=g#5 v=86
109662 On ch=1 n=g#5 v=0
109670 On ch=1 n=c#5 v=0
109726 On ch=1 n=b5 v=84
109784 On ch=1 n=b5 v=0
109934 On ch=1 n=d#7 v=113
110002 On ch=1 n=d#7 v=0
110100 On ch=1 n=b6 v=71
110106 On ch=1 n=g#6 v=71
110152 On ch=1 n=g#6 v=0
110160 On ch=1 n=b6 v=0
110234 On ch=1 n=g#6 v=95
110272 On ch=1 n=g#6 v=0
110334 On ch=1 n=e6 v=77
110334 On ch=1 n=d#6 v=76
110376 On ch=1 n=e6 v=0
110378 On ch=1 n=d#6 v=0
110438 On ch=1 n=c#7 v=108
110494 On ch=1 n=c#7 v=0
110532 On ch=1 n=g#6 v=91
110536 On ch=1 n=b6 v=72
110586 On ch=1 n=b6 v=0
110610 On ch=1 n=g#6 v=0
110656 On ch=1 n=g#6 v=89
110702 On ch=1 n=g#6 v=0
110758 On ch=1 n=e6 v=84
110770 On ch=1 n=c#6 v=72
110800 On ch=1 n=e6 v=0
110824 On ch=1 n=c#6 v=0
110874 On ch=1 n=a#6 v=101
110930 On ch=1 n=a#6 v=0
110988 On ch=1 n=g#6 v=85
110996 On ch=1 n=e6 v=69
111032 On ch=1 n=e6 v=0
111052 On ch=1 n=g#6 v=0
111102 On ch=1 n=e6 v=85
111150 On ch=1 n=e6 v=0
111220 On ch=1 n=c#6 v=84
111226 On ch=1 n=a#5 v=66
111256 On ch=1 n=a#5 v=0
111270 On ch=1 n=c#6 v=0
111376 Par ch=1 c=64 v=127
111376 On ch=1 n=g#6 v=108
111460 On ch=1 n=g#6 v=0
111558 On ch=1 n=e6 v=64
111568 On ch=1 n=c#6 v=63
111620 On ch=1 n=e6 v=0
111632 On ch=1 n=c#6 v=0
111700 On ch=1 n=c#6 v=88
111740 On ch=1 n=c#6 v=0
111820 On ch=1 n=g#5 v=57
111820 On ch=1 n=b5 v=58
111882 On ch=1 n=g#5 v=0
111884 On ch=1 n=b5 v=0
111940 On ch=1 n=g#5 v=80
111948 On ch=1 n=c#5 v=73
111984 On ch=1 n=c#5 v=0
111996 On ch=1 n=g#5 v=0
112038 On ch=1 n=b5 v=69
112038 On ch=1 n=g#5 v=73
112080 On ch=1 n=g#5 v=0
112108 On ch=1 n=b5 v=0
112156 On ch=1 n=c#6 v=99
112206 On ch=1 n=c#6 v=0
112260 On ch=1 n=e6 v=72
112264 On ch=1 n=c#6 v=51
112338 On ch=1 n=c#6 v=0
112352 On ch=1 n=e6 v=0
112370 Par ch=1 c=64 v=63
112376 Par ch=1 c=64 v=0
112398 On ch=1 n=f#6 v=105
112416 Par ch=1 c=64 v=63
112428 Par ch=1 c=64 v=127
112466 On ch=1 n=f#6 v=0
112542 On ch=1 n=e6 v=65
112552 On ch=1 n=c#6 v=61
112624 On ch=1 n=e6 v=0
112632 On ch=1 n=c#6 v=0
112676 On ch=1 n=c#6 v=77
112726 On ch=1 n=c#6 v=0
112788 On ch=1 n=a#5 v=78
112808 On ch=1 n=f#5 v=64
112866 On ch=1 n=a#5 v=0
112872 On ch=1 n=f#5 v=0
112910 On ch=1 n=c#5 v=73
112914 On ch=1 n=f#5 v=69
112970 On ch=1 n=c#5 v=0
112978 On ch=1 n=f#5 v=0
113012 On ch=1 n=a#5 v=67
113016 On ch=1 n=f#5 v=57
113050 On ch=1 n=f#5 v=0
113082 On ch=1 n=a#5 v=0
113154 On ch=1 n=c#6 v=72
113206 On ch=1 n=c#6 v=0
113272 On ch=1 n=c#6 v=61
113280 On ch=1 n=a#5 v=77
113340 On ch=1 n=a#5 v=0
113344 On ch=1 n=c#6 v=0
113480 On ch=1 n=d#6 v=107
113482 Par ch=1 c=64 v=63
113508 Par ch=1 c=64 v=127
113588 On ch=1 n=d#6 v=0
113646 On ch=1 n=a#5 v=66
113658 On ch=1 n=f#5 v=59
113716 On ch=1 n=f#5 v=0
113720 On ch=1 n=a#5 v=0
113820 On ch=1 n=f#5 v=79
113862 On ch=1 n=f#5 v=0
113952 On ch=1 n=f#5 v=65
113954 On ch=1 n=d#5 v=72
114012 On ch=1 n=d#5 v=0
114022 On ch=1 n=f#5 v=0
114080 On ch=1 n=d#5 v=58
114086 On ch=1 n=b4 v=46
114124 On ch=1 n=d#5 v=0
114130 On ch=1 n=b4 v=0
114182 On ch=1 n=d#5 v=65
114190 On ch=1 n=f#5 v=66
114232 On ch=1 n=d#5 v=0
114242 On ch=1 n=f#5 v=0
114294 On ch=1 n=f#5 v=66
114348 On ch=1 n=f#5 v=0
114402 On ch=1 n=f#5 v=48
114402 On ch=1 n=a#5 v=69
114464 On ch=1 n=a#5 v=0
114468 On ch=1 n=f#5 v=0
114518 On ch=1 n=a#5 v=69
114576 On ch=1 n=a#5 v=0
114634 On ch=1 n=a#5 v=48
114644 On ch=1 n=f#5 v=67
114644 Par ch=1 c=67 v=127
114684 On ch=1 n=f#5 v=0
114698 On ch=1 n=a#5 v=0
114768 On ch=1 n=f#5 v=74
114804 On ch=1 n=f#5 v=0
114864 On ch=1 n=f#5 v=56
114878 On ch=1 n=d#5 v=70
114942 On ch=1 n=d#5 v=0
114948 On ch=1 n=f#5 v=0
115002 On ch=1 n=d#5 v=63
115012 On ch=1 n=b4 v=24
115040 On ch=1 n=d#5 v=0
115052 On ch=1 n=b4 v=0
115106 On ch=1 n=d#5 v=60
115108 On ch=1 n=f#5 v=72
115158 On ch=1 n=d#5 v=0
115178 On ch=1 n=f#5 v=0
115240 On ch=1 n=f#5 v=64
115274 On ch=1 n=f#5 v=0
115334 On ch=1 n=a#5 v=76
115340 On ch=1 n=f#5 v=59
115392 On ch=1 n=f#5 v=0
115404 On ch=1 n=a#5 v=0
115458 On ch=1 n=a#5 v=68
115516 On ch=1 n=a#5 v=0
115574 On ch=1 n=a#5 v=52
115596 On ch=1 n=f#5 v=47
115632 On ch=1 n=f#5 v=0
115646 On ch=1 n=a#5 v=0
115712 On ch=1 n=f#5 v=66
115742 On ch=1 n=f#5 v=0
115828 On ch=1 n=f#5 v=70
115828 On ch=1 n=d#5 v=65
115858 On ch=1 n=d#5 v=0
115860 On ch=1 n=f#5 v=0
115982 On ch=1 n=d#5 v=79
115988 On ch=1 n=g#4 v=78
116044 Par ch=1 c=64 v=63
116054 Par ch=1 c=64 v=0
116066 Par ch=1 c=64 v=63
116078 On ch=1 n=f6 v=104
116088 Par ch=1 c=64 v=127
116152 On ch=1 n=d#5 v=0
116234 On ch=1 n=f6 v=0
116250 On ch=1 n=f#5 v=80
116298 On ch=1 n=g#4 v=0
116352 On ch=1 n=f#5 v=0
116418 On ch=1 n=f#5 v=61
116424 On ch=1 n=a#5 v=72
116468 On ch=1 n=f#5 v=0
116470 On ch=1 n=a#5 v=0
116592 On ch=1 n=c#6 v=98
116654 On ch=1 n=c#6 v=0
116726 On ch=1 n=a#5 v=66
116728 On ch=1 n=f#5 v=55
116780 On ch=1 n=f#5 v=0
116790 On ch=1 n=a#5 v=0
116852 On ch=1 n=f#5 v=86
116884 On ch=1 n=f#5 v=0
116948 On ch=1 n=f#5 v=56
117018 On ch=1 n=f#5 v=0
117106 On ch=1 n=g#4 v=70
117106 On ch=1 n=d#5 v=76
117164 Par ch=1 c=64 v=63
117178 On ch=1 n=c6 v=94
117198 Par ch=1 c=64 v=127
117226 On ch=1 n=d#5 v=0
117328 On ch=1 n=g#4 v=0
117334 On ch=1 n=f#5 v=48
117370 On ch=1 n=f#5 v=0
117414 On ch=1 n=f#5 v=68
117454 On ch=1 n=f#5 v=0
117534 On ch=1 n=c6 v=0
117540 On ch=1 n=a#5 v=64
117546 On ch=1 n=f#5 v=55
117588 On ch=1 n=f#5 v=0
117612 On ch=1 n=a#5 v=0
117778 On ch=1 n=c#6 v=99
117796 Par ch=1 c=64 v=63
117830 Par ch=1 c=64 v=127
117922 On ch=1 n=c#6 v=0
117944 On ch=1 n=g#5 v=73
117972 On ch=1 n=e5 v=43
118014 On ch=1 n=e5 v=0
118018 On ch=1 n=g#5 v=0
118084 On ch=1 n=g#5 v=80
118142 On ch=1 n=g#5 v=0
118202 On ch=1 n=c#5 v=74
118202 On ch=1 n=e5 v=58
118256 On ch=1 n=c#5 v=0
118262 On ch=1 n=e5 v=0
118324 On ch=1 n=e5 v=76
118360 On ch=1 n=e5 v=0
118414 On ch=1 n=c#5 v=78
118424 On ch=1 n=g#4 v=70
118490 On ch=1 n=c#5 v=0
118500 On ch=1 n=g#4 v=0
118534 On ch=1 n=c#5 v=76
118582 On ch=1 n=c#5 v=0
118638 On ch=1 n=g#4 v=74
118706 On ch=1 n=g#4 v=0
118764 On ch=1 n=c#5 v=80
118774 On ch=1 n=g#4 v=62
118776 On ch=1 n=c#4 v=70
118786 On ch=1 n=e4 v=58
118792 Par ch=1 c=64 v=63
118792 Par ch=1 c=64 v=127
118822 On ch=1 n=e4 v=0
118834 On ch=1 n=c#4 v=0
118870 On ch=1 n=g#4 v=0
118886 On ch=1 n=e4 v=52
118896 On ch=1 n=c#5 v=0
118914 Par ch=1 c=64 v=63
118916 Par ch=1 c=64 v=0
118922 On ch=1 n=e4 v=0
118996 On ch=1 n=e4 v=92
119042 On ch=1 n=e4 v=0
119098 On ch=1 n=e4 v=46
119160 On ch=1 n=e4 v=0
119214 On ch=1 n=e4 v=84
119218 On ch=1 n=c#4 v=84
119238 On ch=1 n=c#5 v=89
119242 On ch=1 n=g#4 v=81
119250 On ch=1 n=e4 v=0
119258 On ch=1 n=c#4 v=0
119314 On ch=1 n=g#4 v=0
119326 On ch=1 n=e4 v=61
119332 On ch=1 n=c#5 v=0
119388 On ch=1 n=e4 v=0
119440 On ch=1 n=f3 v=71
119444 On ch=1 n=d#4 v=92
119448 On ch=1 n=d5 v=85
119454 On ch=1 n=a4 v=68
119488 On ch=1 n=d#4 v=0
119490 On ch=1 n=f3 v=0
119516 On ch=1 n=a4 v=0
119518 On ch=1 n=d5 v=0
119530 On ch=1 n=f4 v=60
119630 On ch=1 n=f4 v=0
119674 On ch=1 n=c#4 v=79
119680 On ch=1 n=e4 v=67
119684 On ch=1 n=g#4 v=73
119688 On ch=1 n=c#5 v=74
119708 On ch=1 n=e4 v=0
119708 On ch=1 n=c#4 v=0
119776 On ch=1 n=g#4 v=0
119778 On ch=1 n=c#5 v=0
119778 On ch=1 n=e4 v=55
119832 On ch=1 n=e4 v=0
119904 On ch=1 n=e4 v=91
119942 On ch=1 n=e4 v=0
119988 On ch=1 n=e4 v=68
120072 On ch=1 n=e4 v=0
120118 On ch=1 n=c#4 v=82
120122 On ch=1 n=c#5 v=87
120124 On ch=1 n=e4 v=71
120126 On ch=1 n=g#4 v=78
120152 On ch=1 n=e4 v=0
120156 On ch=1 n=c#4 v=0
120204 On ch=1 n=e4 v=56
120206 On ch=1 n=g#4 v=0
120216 On ch=1 n=c#5 v=0
120276 On ch=1 n=e4 v=0
120336 On ch=1 n=f3 v=68
120336 On ch=1 n=d#4 v=92
120338 On ch=1 n=d5 v=86
120346 On ch=1 n=a4 v=71
120380 On ch=1 n=f3 v=0
120382 On ch=1 n=d#4 v=0
120408 On ch=1 n=a4 v=0
120408 On ch=1 n=d5 v=0
120428 On ch=1 n=f4 v=59
120512 On ch=1 n=f4 v=0
120556 On ch=1 n=c#4 v=80
120560 On ch=1 n=e4 v=75
120562 On ch=1 n=c#5 v=86
120566 On ch=1 n=g#4 v=74
120588 On ch=1 n=c#4 v=0
120596 On ch=1 n=e4 v=0
120644 On ch=1 n=e4 v=62
120646 On ch=1 n=g#4 v=0
120656 On ch=1 n=c#5 v=0
120700 On ch=1 n=e4 v=0
120766 On ch=1 n=e4 v=86
120812 On ch=1 n=e4 v=0
120854 On ch=1 n=e4 v=71
120922 On ch=1 n=e4 v=0
120966 On ch=1 n=c#4 v=84
120968 On ch=1 n=c#5 v=85
120974 On ch=1 n=g#4 v=80
121010 On ch=1 n=c#4 v=0
121042 On ch=1 n=g#4 v=0
121046 On ch=1 n=c#5 v=0
121050 On ch=1 n=e4 v=57
121130 On ch=1 n=e4 v=0
121180 On ch=1 n=d#4 v=88
121182 On ch=1 n=f3 v=65
121190 On ch=1 n=d5 v=83
121200 On ch=1 n=a4 v=63
121220 On ch=1 n=f3 v=0
121224 On ch=1 n=d#4 v=0
121246 On ch=1 n=d5 v=0
121248 On ch=1 n=a4 v=0
121274 On ch=1 n=f4 v=61
121358 On ch=1 n=f4 v=0
121410 On ch=1 n=c#4 v=80
121414 On ch=1 n=e4 v=73
121414 On ch=1 n=g#4 v=86
121416 On ch=1 n=c#5 v=86
121446 On ch=1 n=e4 v=0
121446 On ch=1 n=c#4 v=0
121486 On ch=1 n=g#4 v=0
121490 On ch=1 n=c#5 v=0
121500 On ch=1 n=e4 v=42
121572 On ch=1 n=e4 v=0
121634 On ch=1 n=d5 v=88
121634 On ch=1 n=f3 v=76
121634 On ch=1 n=d#4 v=88
121638 On ch=1 n=a4 v=74
121676 On ch=1 n=d#4 v=0
121684 On ch=1 n=f3 v=0
121690 On ch=1 n=d5 v=0
121700 On ch=1 n=a4 v=0
121718 On ch=1 n=f4 v=64
121788 On ch=1 n=f4 v=0
121852 On ch=1 n=b4 v=85
121858 On ch=1 n=d4 v=70
121860 On ch=1 n=f#4 v=88
121862 On ch=1 n=b3 v=67
121886 On ch=1 n=d4 v=0
121890 On ch=1 n=b3 v=0
121916 On ch=1 n=b4 v=0
121930 On ch=1 n=d4 v=66
121932 On ch=1 n=f#4 v=0
121990 On ch=1 n=d4 v=0
122066 On ch=1 n=c5 v=76
122070 On ch=1 n=g4 v=71
122078 On ch=1 n=c#4 v=91
122082 On ch=1 n=d#3 v=88
122124 On ch=1 n=c#4 v=0
122136 On ch=1 n=d#3 v=0
122142 On ch=1 n=g4 v=0
122150 On ch=1 n=c5 v=0
122156 On ch=1 n=d#4 v=81
122224 On ch=1 n=d#4 v=0
122290 On ch=1 n=c4 v=76
122292 On ch=1 n=a3 v=70
122300 On ch=1 n=e4 v=66
122304 On ch=1 n=a4 v=65
122324 On ch=1 n=a3 v=0
122326 On ch=1 n=c4 v=0
122376 On ch=1 n=a4 v=0
122376 On ch=1 n=e4 v=0
122382 On ch=1 n=c4 v=50
122462 On ch=1 n=c4 v=0
122506 On ch=1 n=c4 v=87
122558 On ch=1 n=c4 v=0
122604 On ch=1 n=c4 v=68
122688 On ch=1 n=c4 v=0
122728 On ch=1 n=a4 v=69
122734 On ch=1 n=c4 v=43
122734 On ch=1 n=e4 v=68
122736 On ch=1 n=a3 v=48
122768 On ch=1 n=c4 v=0
122770 On ch=1 n=a3 v=0
122788 On ch=1 n=a4 v=0
122802 On ch=1 n=e4 v=0
122814 On ch=1 n=c4 v=67
122888 On ch=1 n=c4 v=0
122944 On ch=1 n=b3 v=87
122946 On ch=1 n=a#4 v=76
122948 On ch=1 n=c#3 v=91
122954 On ch=1 n=f4 v=53
122984 On ch=1 n=b3 v=0
122996 On ch=1 n=c#3 v=0
123020 On ch=1 n=a#4 v=0
123022 On ch=1 n=f4 v=0
123022 On ch=1 n=c#4 v=73
123102 On ch=1 n=c#4 v=0
123166 On ch=1 n=a4 v=52
123168 On ch=1 n=c4 v=41
123168 On ch=1 n=e4 v=66
123172 On ch=1 n=a3 v=50
123198 On ch=1 n=c4 v=0
123204 On ch=1 n=a3 v=0
123252 On ch=1 n=c4 v=60
123272 On ch=1 n=e4 v=0
123278 On ch=1 n=a4 v=0
123332 On ch=1 n=c4 v=0
123372 On ch=1 n=c4 v=84
123424 On ch=1 n=c4 v=0
123462 On ch=1 n=c4 v=66
123542 On ch=1 n=c4 v=0
123584 On ch=1 n=a4 v=72
123588 On ch=1 n=c4 v=65
123594 On ch=1 n=e4 v=70
123598 On ch=1 n=a3 v=55
123622 On ch=1 n=c4 v=0
123630 On ch=1 n=a3 v=0
123652 On ch=1 n=a4 v=0
123668 On ch=1 n=e4 v=0
123672 On ch=1 n=c4 v=63
123742 On ch=1 n=c4 v=0
123804 On ch=1 n=c#3 v=92
123804 On ch=1 n=b3 v=84
123812 On ch=1 n=a#4 v=74
123824 On ch=1 n=f4 v=54
123848 On ch=1 n=b3 v=0
123850 On ch=1 n=c#3 v=0
123868 On ch=1 n=f4 v=0
123878 On ch=1 n=c#4 v=75
123892 On ch=1 n=a#4 v=0
123954 On ch=1 n=c#4 v=0
124024 On ch=1 n=e4 v=64
124024 On ch=1 n=a4 v=59
124026 On ch=1 n=c4 v=59
124044 On ch=1 n=a3 v=38
124060 On ch=1 n=c4 v=0
124078 On ch=1 n=a3 v=0
124114 On ch=1 n=a4 v=0
124114 On ch=1 n=c4 v=54
124130 On ch=1 n=e4 v=0
124186 On ch=1 n=c4 v=0
124234 On ch=1 n=c4 v=81
124284 On ch=1 n=c4 v=0
124330 On ch=1 n=c4 v=48
124422 On ch=1 n=c4 v=0
124442 On ch=1 n=a4 v=59
124450 On ch=1 n=a3 v=68
124460 On ch=1 n=e4 v=59
124490 On ch=1 n=a3 v=0
124510 On ch=1 n=a4 v=0
124530 On ch=1 n=c4 v=55
124536 On ch=1 n=e4 v=0
124592 On ch=1 n=c4 v=0
124648 On ch=1 n=c#3 v=88
124658 On ch=1 n=a#4 v=67
124658 On ch=1 n=b3 v=60
124692 On ch=1 n=b3 v=0
124698 On ch=1 n=f4 v=21
124710 On ch=1 n=c#3 v=0
124732 On ch=1 n=c#4 v=59
124734 On ch=1 n=a#4 v=0
124736 On ch=1 n=f4 v=0
124812 On ch=1 n=c#4 v=0
124868 On ch=1 n=a4 v=54
124872 On ch=1 n=e4 v=59
124876 On ch=1 n=c4 v=68
124886 On ch=1 n=a3 v=49
124908 On ch=1 n=c4 v=0
124920 On ch=1 n=a3 v=0
124922 On ch=1 n=a4 v=0
124942 On ch=1 n=c4 v=39
124948 On ch=1 n=e4 v=0
125004 On ch=1 n=c4 v=0
125078 On ch=1 n=b3 v=77
125080 On ch=1 n=a#4 v=63
125082 On ch=1 n=c#3 v=81
125126 On ch=1 n=b3 v=0
125150 On ch=1 n=c#3 v=0
125150 On ch=1 n=a#4 v=0
125168 On ch=1 n=c#4 v=70
125240 On ch=1 n=c#4 v=0
125272 Par ch=1 c=67 v=127
125296 On ch=1 n=a#3 v=72
125296 On ch=1 n=g3 v=74
125300 On ch=1 n=d4 v=68
125306 On ch=1 n=g4 v=65
125334 On ch=1 n=g3 v=0
125336 On ch=1 n=a#3 v=0
125380 On ch=1 n=d4 v=0
125380 On ch=1 n=a#3 v=60
125386 On ch=1 n=g4 v=0
125466 On ch=1 n=a#3 v=0
125512 On ch=1 n=b2 v=83
125522 On ch=1 n=a3 v=63
125522 On ch=1 n=g#4 v=87
125538 On ch=1 n=d#4 v=72
125560 On ch=1 n=a3 v=0
125566 On ch=1 n=b2 v=0
125616 On ch=1 n=b3 v=57
125620 On ch=1 n=d#4 v=0
125710 On ch=1 n=b3 v=0
125714 On ch=1 n=g#4 v=0
125764 On ch=1 n=f4 v=78
125772 On ch=1 n=f3 v=79
125804 Par ch=1 c=64 v=63
125806 Par ch=1 c=64 v=127
125914 On ch=1 n=g#3 v=50
125950 On ch=1 n=f3 v=0
126010 On ch=1 n=g#3 v=0
126010 On ch=1 n=f4 v=0
126012 On ch=1 n=c4 v=87
126072 On ch=1 n=c4 v=0
126120 On ch=1 n=c4 v=76
126124 On ch=1 n=d#4 v=87
126160 On ch=1 n=c4 v=0
126182 On ch=1 n=d#4 v=0
126228 On ch=1 n=f4 v=94
126272 On ch=1 n=f4 v=0
126344 On ch=1 n=g#4 v=95
126344 On ch=1 n=f4 v=82
126372 On ch=1 n=f4 v=0
126400 On ch=1 n=g#4 v=0
126458 On ch=1 n=c5 v=99
126514 On ch=1 n=c5 v=0
126558 On ch=1 n=d#5 v=109
126560 On ch=1 n=c5 v=90
126598 On ch=1 n=c5 v=0
126626 On ch=1 n=d#5 v=0
126662 On ch=1 n=c5 v=103
126712 On ch=1 n=c5 v=0
126766 On ch=1 n=d#5 v=110
126768 On ch=1 n=c5 v=106
126798 On ch=1 n=c5 v=0
126824 On ch=1 n=d#5 v=0
126878 On ch=1 n=f5 v=102
126932 On ch=1 n=f5 v=0
126980 On ch=1 n=f5 v=103
126982 On ch=1 n=g#5 v=112
127020 On ch=1 n=f5 v=0
127042 On ch=1 n=g#5 v=0
127102 On ch=1 n=c6 v=116
127144 On ch=1 n=c6 v=0
127216 On ch=1 n=c6 v=111
127218 On ch=1 n=d#6 v=116
127258 On ch=1 n=c6 v=0
127278 On ch=1 n=d#6 v=0
127346 On ch=1 n=f6 v=121
127380 On ch=1 n=f6 v=0
127474 On ch=1 n=g#6 v=114
127478 On ch=1 n=f6 v=108
127500 On ch=1 n=f6 v=0
127532 On ch=1 n=g#6 v=0
127698 On ch=1 n=d#7 v=119
127706 Par ch=1 c=64 v=63
127706 On ch=1 n=b6 v=94
127710 On ch=1 n=g#6 v=100
127718 Par ch=1 c=64 v=0
127744 Par ch=1 c=64 v=63
127754 Par ch=1 c=64 v=127
127758 Par ch=1 c=67 v=0
127898 On ch=1 n=d#6 v=92
127944 On ch=1 n=d#6 v=0
127950 On ch=1 n=g#6 v=0
127954 On ch=1 n=b6 v=0
127958 On ch=1 n=d#7 v=0
128026 On ch=1 n=d#6 v=100
128036 On ch=1 n=b5 v=78
128042 On ch=1 n=g#5 v=68
128096 On ch=1 n=d#6 v=0
128134 On ch=1 n=d#5 v=97
128146 On ch=1 n=b5 v=0
128160 On ch=1 n=g#5 v=0
128200 On ch=1 n=d#5 v=0
128246 On ch=1 n=d#6 v=104
128256 On ch=1 n=b5 v=81
128260 On ch=1 n=g#5 v=90
128348 On ch=1 n=d#5 v=99
128384 On ch=1 n=d#6 v=0
128394 On ch=1 n=b5 v=0
128396 On ch=1 n=d#5 v=0
128400 On ch=1 n=g#5 v=0
128470 On ch=1 n=d#5 v=89
128476 On ch=1 n=g#4 v=69
128482 On ch=1 n=b4 v=66
128544 On ch=1 n=d#5 v=0
128592 On ch=1 n=f4 v=96
128596 On ch=1 n=b4 v=0
128628 On ch=1 n=g#4 v=0
128654 On ch=1 n=f4 v=0
128742 On ch=1 n=f4 v=112
128850 On ch=1 n=f4 v=0
128902 On ch=1 n=d#5 v=94
128902 On ch=1 n=b4 v=70
128946 On ch=1 n=b4 v=0
128964 On ch=1 n=d#5 v=0
129018 On ch=1 n=b4 v=81
129020 On ch=1 n=d#5 v=80
129110 On ch=1 n=d#5 v=0
129112 On ch=1 n=g#5 v=98
129134 On ch=1 n=b4 v=0
129158 On ch=1 n=g#5 v=0
129218 On ch=1 n=f5 v=98
129292 On ch=1 n=f5 v=0
129328 On ch=1 n=b5 v=86
129332 On ch=1 n=d#6 v=98
129372 On ch=1 n=b5 v=0
129406 On ch=1 n=d#6 v=0
129440 On ch=1 n=d#6 v=88
129442 On ch=1 n=b5 v=78
129540 On ch=1 n=g#6 v=91
129550 On ch=1 n=d#6 v=0
129566 On ch=1 n=g#6 v=0
129594 On ch=1 n=b5 v=0
129702 Par ch=1 c=64 v=63
129710 Par ch=1 c=64 v=0
129712 On ch=1 n=c#7 v=113
129720 On ch=1 n=g#6 v=86
129720 On ch=1 n=f6 v=102
129752 Par ch=1 c=64 v=63
129760 Par ch=1 c=64 v=127
129872 On ch=1 n=c#6 v=94
129904 On ch=1 n=f6 v=0
129908 On ch=1 n=g#6 v=0
129912 On ch=1 n=c#7 v=0
129920 On ch=1 n=c#6 v=0
129990 On ch=1 n=c#6 v=99
129992 On ch=1 n=g#5 v=75
130006 On ch=1 n=f5 v=59
130052 On ch=1 n=c#6 v=0
130076 On ch=1 n=c#5 v=95
130092 On ch=1 n=f5 v=0
130094 On ch=1 n=g#5 v=0
130144 On ch=1 n=c#5 v=0
130194 On ch=1 n=c#6 v=96
130204 On ch=1 n=f5 v=84
130206 On ch=1 n=g#5 v=69
130304 On ch=1 n=c#5 v=103
130350 On ch=1 n=g#5 v=0
130354 On ch=1 n=f5 v=0
130360 On ch=1 n=c#5 v=0
130374 On ch=1 n=c#6 v=0
130400 On ch=1 n=c#5 v=86
130410 On ch=1 n=g#4 v=80
130498 On ch=1 n=c#5 v=0
130504 On ch=1 n=f4 v=87
130526 On ch=1 n=g#4 v=0
130562 On ch=1 n=f4 v=0
130632 On ch=1 n=f6 v=82
130634 On ch=1 n=g#6 v=92
130726 On ch=1 n=c#6 v=84
130770 On ch=1 n=f6 v=0
130774 On ch=1 n=c#6 v=0
130782 On ch=1 n=g#6 v=0
130850 On ch=1 n=f6 v=85
130856 On ch=1 n=c#6 v=78
130946 On ch=1 n=f6 v=0
130952 On ch=1 n=g#5 v=104
130988 On ch=1 n=c#6 v=0
131032 Par ch=1 c=64 v=63
131038 Par ch=1 c=64 v=0
131078 Par ch=1 c=64 v=63
131078 On ch=1 n=d#7 v=110
131082 On ch=1 n=g#5 v=0
131082 On ch=1 n=b6 v=91
131084 On ch=1 n=g#6 v=103
131088 Par ch=1 c=64 v=127
131222 On ch=1 n=d#6 v=81
131232 On ch=1 n=d#7 v=0
131240 On ch=1 n=b6 v=0
131256 On ch=1 n=d#6 v=0
131256 On ch=1 n=g#6 v=0
131326 On ch=1 n=d#6 v=95
131336 On ch=1 n=b5 v=76
131340 On ch=1 n=g#5 v=75
131386 On ch=1 n=d#6 v=0
131414 On ch=1 n=b5 v=0
131418 On ch=1 n=d#5 v=99
131434 On ch=1 n=g#5 v=0
131472 On ch=1 n=d#5 v=0
131522 On ch=1 n=g#6 v=104
131524 On ch=1 n=b5 v=94
131528 On ch=1 n=d#6 v=80
131632 On ch=1 n=g#6 v=0
131632 On ch=1 n=g#5 v=97
131660 On ch=1 n=d#6 v=0
131664 On ch=1 n=b5 v=0
131686 On ch=1 n=g#5 v=0
131754 On ch=1 n=g#5 v=97
131756 On ch=1 n=d#5 v=88
131760 On ch=1 n=b4 v=76
131846 On ch=1 n=g#4 v=103
131864 On ch=1 n=g#5 v=0
131906 On ch=1 n=b4 v=0
131910 Par ch=1 c=64 v=63
131912 On ch=1 n=d#5 v=0
131942 Par ch=1 c=64 v=127
131950 On ch=1 n=g#4 v=0
131960 On ch=1 n=a#6 v=120
131968 On ch=1 n=f#6 v=101
131970 On ch=1 n=d#6 v=112
132080 On ch=1 n=a#5 v=90
132124 On ch=1 n=d#6 v=0
132128 On ch=1 n=f#6 v=0
132132 On ch=1 n=a#5 v=0
132156 On ch=1 n=a#6 v=0
132188 On ch=1 n=a#5 v=98
132194 On ch=1 n=f#5 v=82
132200 On ch=1 n=d#5 v=76
132252 On ch=1 n=a#5 v=0
132288 On ch=1 n=a#4 v=100
132314 On ch=1 n=f#5 v=0
132328 On ch=1 n=d#5 v=0
132378 Par ch=1 c=64 v=63
132382 On ch=1 n=a#4 v=0
132388 Par ch=1 c=64 v=0
132406 On ch=1 n=c#7 v=119
132410 On ch=1 n=a6 v=99
132412 On ch=1 n=f#6 v=107
132416 Par ch=1 c=64 v=63
132430 Par ch=1 c=64 v=127
132544 On ch=1 n=c#6 v=103
132630 On ch=1 n=c#6 v=0
132646 On ch=1 n=f#6 v=0
132664 On ch=1 n=f#5 v=95
132666 On ch=1 n=a6 v=0
132666 On ch=1 n=a5 v=88
132674 On ch=1 n=c#5 v=94
132692 On ch=1 n=c#7 v=0
132704 On ch=1 n=a5 v=0
132718 On ch=1 n=f#5 v=0
132734 On ch=1 n=c#5 v=0
132790 On ch=1 n=d#4 v=121
132824 On ch=1 n=d#4 v=0
132966 On ch=1 n=g#7 v=120
132970 On ch=1 n=c#7 v=112
133138 On ch=1 n=a6 v=88
133228 On ch=1 n=a6 v=0
133266 On ch=1 n=c#7 v=0
133266 On ch=1 n=g#6 v=108
133276 On ch=1 n=c#6 v=88
133278 On ch=1 n=g#7 v=0
133358 On ch=1 n=g#6 v=0
133364 On ch=1 n=g#5 v=106
133396 On ch=1 n=c#6 v=0
133464 On ch=1 n=g#5 v=0
133474 On ch=1 n=f#7 v=120
133478 On ch=1 n=c#7 v=113
133610 On ch=1 n=f#6 v=93
133624 On ch=1 n=f#7 v=0
133660 On ch=1 n=f#6 v=0
133662 On ch=1 n=c#7 v=0
133712 On ch=1 n=f#6 v=105
133720 On ch=1 n=c#6 v=91
133768 On ch=1 n=f#6 v=0
133790 On ch=1 n=f#5 v=107
133816 On ch=1 n=c#6 v=0
133874 On ch=1 n=f#5 v=0
133888 On ch=1 n=d#7 v=119
133896 On ch=1 n=b6 v=94
133902 On ch=1 n=g#6 v=97
134006 On ch=1 n=d#6 v=92
134054 On ch=1 n=d#6 v=0
134054 On ch=1 n=g#6 v=0
134054 On ch=1 n=d#7 v=0
134058 On ch=1 n=b6 v=0
134126 On ch=1 n=d#6 v=101
134132 On ch=1 n=b5 v=79
134144 On ch=1 n=g#5 v=73
134194 On ch=1 n=d#6 v=0
134232 On ch=1 n=d#5 v=100
134236 On ch=1 n=b5 v=0
134264 On ch=1 n=g#5 v=0
134330 On ch=1 n=c#7 v=112
134334 Par ch=1 c=64 v=63
134336 On ch=1 n=a6 v=87
134338 On ch=1 n=f#6 v=103
134344 On ch=1 n=d#5 v=0
134352 Par ch=1 c=64 v=127
134448 On ch=1 n=c#6 v=91
134468 On ch=1 n=c#7 v=0
134476 On ch=1 n=a6 v=0
134494 On ch=1 n=c#6 v=0
134494 On ch=1 n=f#6 v=0
134558 On ch=1 n=c#6 v=93
134566 On ch=1 n=a5 v=61
134578 On ch=1 n=f#5 v=72
134620 On ch=1 n=c#6 v=0
134650 On ch=1 n=a5 v=0
134656 On ch=1 n=c#5 v=103
134686 On ch=1 n=f#5 v=0
134722 On ch=1 n=c#5 v=0
134770 On ch=1 n=c#6 v=91
134782 On ch=1 n=f#5 v=96
134784 On ch=1 n=a5 v=53
134872 On ch=1 n=c#5 v=99
134932 On ch=1 n=f#5 v=0
134934 On ch=1 n=c#5 v=0
134936 On ch=1 n=a5 v=0
134960 On ch=1 n=c#6 v=0
134990 On ch=1 n=c#5 v=91
134994 On ch=1 n=a4 v=72
135072 On ch=1 n=d#4 v=105
135164 On ch=1 n=c#5 v=0
135168 On ch=1 n=a4 v=0
135176 Par ch=1 c=64 v=63
135182 Par ch=1 c=64 v=0
135196 On ch=1 n=d#4 v=0
135214 On ch=1 n=b6 v=113
135214 Par ch=1 c=64 v=63
135218 On ch=1 n=f#6 v=108
135222 On ch=1 n=d#6 v=115
135228 Par ch=1 c=64 v=127
135334 On ch=1 n=b6 v=0
135338 On ch=1 n=b5 v=83
135368 On ch=1 n=f#6 v=0
135372 On ch=1 n=d#6 v=0
135384 On ch=1 n=b5 v=0
135454 On ch=1 n=b5 v=89
135462 On ch=1 n=f#5 v=88
135500 On ch=1 n=d#5 v=35
135528 On ch=1 n=b5 v=0
135552 On ch=1 n=f#5 v=0
135576 On ch=1 n=b4 v=82
135588 On ch=1 n=d#5 v=0
135636 On ch=1 n=b4 v=0
135686 On ch=1 n=f#5 v=107
135686 On ch=1 n=b5 v=102
135690 On ch=1 n=d#5 v=109
135766 On ch=1 n=b5 v=0
135780 On ch=1 n=b4 v=93
135818 On ch=1 n=f#5 v=0
135824 On ch=1 n=d#5 v=0
135832 On ch=1 n=b4 v=0
135892 On ch=1 n=b4 v=90
135900 On ch=1 n=f#4 v=88
135972 On ch=1 n=b4 v=0
135986 On ch=1 n=d#4 v=100
136004 On ch=1 n=f#4 v=0
136036 On ch=1 n=d#4 v=0
136134 On ch=1 n=g#6 v=115
136140 Par ch=1 c=64 v=63
136140 On ch=1 n=d#6 v=105
136142 On ch=1 n=b5 v=111
136176 Par ch=1 c=64 v=127
136284 On ch=1 n=g#5 v=86
136288 On ch=1 n=g#6 v=0
136320 On ch=1 n=b5 v=0
136326 On ch=1 n=d#6 v=0
136336 On ch=1 n=g#5 v=0
136416 On ch=1 n=g#5 v=89
136422 On ch=1 n=d#5 v=71
136440 On ch=1 n=b4 v=59
136526 On ch=1 n=g#4 v=92
136540 On ch=1 n=d#5 v=0
136542 On ch=1 n=g#5 v=0
136558 On ch=1 n=b4 v=0
136596 On ch=1 n=g#4 v=0
136642 On ch=1 n=g#5 v=98
136656 On ch=1 n=d#5 v=80
136658 On ch=1 n=b4 v=91
136750 On ch=1 n=g#4 v=97
136762 On ch=1 n=g#5 v=0
136800 On ch=1 n=b4 v=0
136804 On ch=1 n=g#4 v=0
136806 On ch=1 n=d#5 v=0
136862 On ch=1 n=b4 v=98
136866 On ch=1 n=g#4 v=95
136950 On ch=1 n=b4 v=0
136952 On ch=1 n=g#4 v=0
136958 On ch=1 n=d#4 v=104
137010 On ch=1 n=d#4 v=0
137068 On ch=1 n=b4 v=92
137070 On ch=1 n=g#4 v=95
137144 On ch=1 n=g#4 v=0
137182 On ch=1 n=d#5 v=100
137184 On ch=1 n=b4 v=0
137240 On ch=1 n=d#5 v=0
137294 On ch=1 n=d#5 v=82
137416 On ch=1 n=g#5 v=88
137418 On ch=1 n=b5 v=85
137482 On ch=1 n=b5 v=0
137502 On ch=1 n=g#5 v=0
137534 On ch=1 n=d#5 v=0
137566 On ch=1 n=a#6 v=114
137578 On ch=1 n=f#6 v=83
137586 On ch=1 n=d#6 v=93
137662 On ch=1 n=d#6 v=0
137684 On ch=1 n=f#6 v=0
137718 On ch=1 n=a#5 v=72
137730 On ch=1 n=a#6 v=0
137748 On ch=1 n=a#5 v=0
137820 On ch=1 n=a#5 v=97
137830 On ch=1 n=f#5 v=81
137840 On ch=1 n=d#5 v=73
137872 On ch=1 n=a#5 v=0
137906 On ch=1 n=a#4 v=103
137918 On ch=1 n=f#5 v=0
137928 On ch=1 n=d#5 v=0
138008 On ch=1 n=a#4 v=0
138016 On ch=1 n=b5 v=103
138018 On ch=1 n=f#6 v=104
138024 On ch=1 n=d#6 v=96
138026 Par ch=1 c=64 v=63
138034 Par ch=1 c=64 v=0
138060 Par ch=1 c=64 v=63
138074 Par ch=1 c=64 v=127
138130 On ch=1 n=f#5 v=95
138200 On ch=1 n=f#5 v=0
138202 On ch=1 n=b5 v=0
138208 On ch=1 n=f#6 v=0
138214 On ch=1 n=d#6 v=0
138262 On ch=1 n=f#5 v=97
138264 On ch=1 n=d#5 v=83
138270 On ch=1 n=b4 v=65
138362 On ch=1 n=f#5 v=0
138364 On ch=1 n=f#4 v=100
138400 On ch=1 n=d#5 v=0
138416 On ch=1 n=b4 v=0
138478 On ch=1 n=f#4 v=0
138490 On ch=1 n=f6 v=114
138494 On ch=1 n=b5 v=107
138494 On ch=1 n=d6 v=98
138496 Par ch=1 c=64 v=63
138504 Par ch=1 c=64 v=0
138526 Par ch=1 c=64 v=63
138540 Par ch=1 c=64 v=127
138608 On ch=1 n=f5 v=79
138678 On ch=1 n=f5 v=0
138738 On ch=1 n=b5 v=0
138742 On ch=1 n=f6 v=0
138742 On ch=1 n=f5 v=87
138748 On ch=1 n=d5 v=70
138750 On ch=1 n=b4 v=79
138758 On ch=1 n=d6 v=0
138806 On ch=1 n=f5 v=0
138842 On ch=1 n=d5 v=0
138866 On ch=1 n=f4 v=84
138904 On ch=1 n=b4 v=0
138974 On ch=1 n=f4 v=0
139014 Par ch=1 c=64 v=127
139030 On ch=1 n=f#6 v=99
139040 On ch=1 n=d6 v=82
139044 On ch=1 n=c6 v=76
139162 On ch=1 n=f#5 v=95
139218 On ch=1 n=f#5 v=0
139222 On ch=1 n=f#6 v=0
139242 On ch=1 n=c6 v=0
139242 On ch=1 n=d6 v=0
139280 On ch=1 n=f#5 v=98
139302 On ch=1 n=d5 v=54
139302 On ch=1 n=c5 v=59
139338 On ch=1 n=f#5 v=0
139378 On ch=1 n=f#4 v=98
139382 On ch=1 n=d5 v=0
139406 On ch=1 n=c5 v=0
139464 On ch=1 n=f#4 v=0
139488 On ch=1 n=f#5 v=103
139584 On ch=1 n=f#4 v=88
139624 On ch=1 n=f#5 v=0
139640 On ch=1 n=f#4 v=0
139698 On ch=1 n=f#4 v=88
139756 On ch=1 n=f#4 v=0
139794 On ch=1 n=f#4 v=85
139848 On ch=1 n=f#4 v=0
139912 On ch=1 n=f#3 v=106
139932 On ch=1 n=f#3 v=0
140022 On ch=1 n=f#3 v=88
140060 On ch=1 n=f#3 v=0
140128 On ch=1 n=f#3 v=94
140168 On ch=1 n=f#3 v=0
140214 On ch=1 n=f#3 v=89
140262 On ch=1 n=f#3 v=0
140338 On ch=1 n=f#3 v=104
140380 On ch=1 n=f#3 v=0
140380 Par ch=1 c=64 v=63
140406 Par ch=1 c=64 v=0
140442 On ch=1 n=f#3 v=75
140492 On ch=1 n=f#3 v=0
140554 On ch=1 n=f#3 v=83
140604 On ch=1 n=f#3 v=0
140644 On ch=1 n=f#3 v=80
140690 On ch=1 n=f#3 v=0
140752 On ch=1 n=f#3 v=88
140798 On ch=1 n=f#3 v=0
140854 On ch=1 n=f#3 v=67
140902 On ch=1 n=f#3 v=0
140972 On ch=1 n=f#3 v=84
141020 On ch=1 n=f#3 v=0
141068 On ch=1 n=f#3 v=74
141118 On ch=1 n=f#3 v=0
141180 On ch=1 n=f#3 v=77
141228 On ch=1 n=f#3 v=0
141284 On ch=1 n=f#3 v=62
141334 On ch=1 n=f#3 v=0
141404 On ch=1 n=f#3 v=85
141432 Par ch=1 c=64 v=63
141452 On ch=1 n=f#3 v=0
141468 Par ch=1 c=64 v=0
141492 On ch=1 n=f#3 v=72
141534 Par ch=1 c=67 v=127
141560 On ch=1 n=f#3 v=0
141608 On ch=1 n=f#3 v=76
141654 On ch=1 n=f#3 v=0
141692 On ch=1 n=f#3 v=73
141802 On ch=1 n=f#3 v=0
141826 On ch=1 n=c4 v=52
141834 On ch=1 n=d4 v=59
141896 On ch=1 n=f#3 v=83
141926 On ch=1 n=c4 v=0
141930 On ch=1 n=d4 v=0
141962 On ch=1 n=f#3 v=0
142004 On ch=1 n=f#3 v=88
142050 On ch=1 n=f#3 v=0
142104 On ch=1 n=f#3 v=74
142208 On ch=1 n=f#3 v=0
142226 On ch=1 n=c4 v=63
142234 On ch=1 n=d4 v=71
142310 On ch=1 n=f#3 v=72
142342 On ch=1 n=c4 v=0
142354 On ch=1 n=d4 v=0
142378 On ch=1 n=f#3 v=0
142420 On ch=1 n=f#3 v=94
142458 On ch=1 n=f#3 v=0
142514 On ch=1 n=f#3 v=72
142628 On ch=1 n=f#3 v=0
142644 On ch=1 n=d4 v=66
142652 On ch=1 n=c4 v=43
142714 On ch=1 n=f#3 v=61
142750 On ch=1 n=c4 v=0
142754 On ch=1 n=d4 v=0
142788 On ch=1 n=f#3 v=0
142822 On ch=1 n=f#3 v=92
142852 On ch=1 n=f#3 v=0
142902 On ch=1 n=f#3 v=60
143032 On ch=1 n=f#3 v=0
143042 On ch=1 n=d4 v=66
143058 On ch=1 n=c4 v=37
143104 On ch=1 n=f#3 v=55
143134 On ch=1 n=d4 v=0
143146 On ch=1 n=c4 v=0
143206 On ch=1 n=f#3 v=0
143238 On ch=1 n=g#3 v=78
143274 On ch=1 n=g#3 v=0
143340 On ch=1 n=f#3 v=81
143350 On ch=1 n=d4 v=76
143374 On ch=1 n=c4 v=56
143430 On ch=1 n=f#3 v=0
143454 On ch=1 n=d3 v=88
143458 On ch=1 n=c4 v=0
143464 On ch=1 n=d4 v=0
143504 On ch=1 n=d3 v=0
143532 On ch=1 n=e3 v=82
143566 On ch=1 n=c4 v=40
143592 On ch=1 n=e3 v=0
143626 On ch=1 n=c4 v=0
143644 On ch=1 n=g#3 v=93
143696 On ch=1 n=g#3 v=0
143738 On ch=1 n=f#3 v=98
143796 On ch=1 n=f#3 v=0
143848 On ch=1 n=d3 v=99
143902 On ch=1 n=d3 v=0
143946 On ch=1 n=e3 v=81
143958 On ch=1 n=c4 v=79
144000 On ch=1 n=e3 v=0
144038 On ch=1 n=c4 v=0
144062 On ch=1 n=g#3 v=97
144110 On ch=1 n=g#3 v=0
144160 On ch=1 n=f#3 v=81
144170 On ch=1 n=c4 v=73
144180 On ch=1 n=d4 v=55
144218 On ch=1 n=f#3 v=0
144232 On ch=1 n=d4 v=0
144246 On ch=1 n=c4 v=0
144272 On ch=1 n=d3 v=94
144312 On ch=1 n=d3 v=0
144376 On ch=1 n=d4 v=68
144378 On ch=1 n=e3 v=57
144384 On ch=1 n=c4 v=80
144422 On ch=1 n=e3 v=0
144436 On ch=1 n=d4 v=0
144458 On ch=1 n=c4 v=0
144480 On ch=1 n=g#3 v=93
144532 On ch=1 n=g#3 v=0
144592 On ch=1 n=f#3 v=69
144592 On ch=1 n=c4 v=71
144606 On ch=1 n=d4 v=54
144646 On ch=1 n=f#3 v=0
144668 On ch=1 n=d4 v=0
144678 On ch=1 n=c4 v=0
144692 On ch=1 n=d3 v=77
144722 On ch=1 n=d3 v=0
144806 On ch=1 n=c4 v=58
144812 On ch=1 n=d4 v=27
144842 On ch=1 n=c4 v=0
144848 On ch=1 n=d4 v=0
144978 On ch=1 n=f#3 v=76
144978 On ch=1 n=c4 v=86
144980 On ch=1 n=a3 v=68
144990 Par ch=1 c=64 v=63
145000 On ch=1 n=e4 v=96
145014 On ch=1 n=a3 v=0
145014 On ch=1 n=c4 v=0
145020 Par ch=1 c=64 v=127
145030 Par ch=1 c=64 v=63
145032 On ch=1 n=f#3 v=0
145060 Par ch=1 c=64 v=0
145100 On ch=1 n=e4 v=0
145116 On ch=1 n=c4 v=46
145186 On ch=1 n=c4 v=0
145208 On ch=1 n=a3 v=73
145286 On ch=1 n=a3 v=0
145312 On ch=1 n=c4 v=63
145398 On ch=1 n=c4 v=0
145416 On ch=1 n=c4 v=73
145418 On ch=1 n=f#3 v=96
145430 On ch=1 n=a3 v=65
145430 On ch=1 n=e4 v=92
145460 On ch=1 n=a3 v=0
145460 On ch=1 n=c4 v=0
145464 On ch=1 n=f#3 v=0
145516 On ch=1 n=c4 v=71
145518 On ch=1 n=e4 v=0
145570 On ch=1 n=c4 v=0
145648 On ch=1 n=b3 v=80
145658 On ch=1 n=d4 v=49
145658 On ch=1 n=f#4 v=107
145688 On ch=1 n=d4 v=0
145706 On ch=1 n=b3 v=0
145730 On ch=1 n=f#4 v=0
145748 On ch=1 n=d4 v=78
145800 On ch=1 n=d4 v=0
145856 On ch=1 n=f#3 v=94
145856 On ch=1 n=c4 v=91
145868 On ch=1 n=e4 v=109
145872 On ch=1 n=a3 v=57
145890 On ch=1 n=c4 v=0
145904 On ch=1 n=a3 v=0
145906 On ch=1 n=f#3 v=0
145936 On ch=1 n=e4 v=0
145960 On ch=1 n=c4 v=72
146026 On ch=1 n=c4 v=0
146058 On ch=1 n=a3 v=52
146116 On ch=1 n=a3 v=0
146156 On ch=1 n=c4 v=53
146228 On ch=1 n=c4 v=0
146266 On ch=1 n=c4 v=87
146270 On ch=1 n=f#3 v=88
146272 On ch=1 n=e4 v=98
146278 On ch=1 n=a3 v=69
146308 On ch=1 n=c4 v=0
146316 On ch=1 n=f#3 v=0
146318 On ch=1 n=a3 v=0
146342 On ch=1 n=e4 v=0
146370 On ch=1 n=c4 v=70
146418 On ch=1 n=c4 v=0
146498 On ch=1 n=b3 v=74
146500 On ch=1 n=d4 v=78
146500 On ch=1 n=f#4 v=105
146528 On ch=1 n=d4 v=0
146546 On ch=1 n=b3 v=0
146578 On ch=1 n=f#4 v=0
146588 On ch=1 n=d4 v=70
146644 On ch=1 n=d4 v=0
146706 On ch=1 n=f#3 v=84
146708 On ch=1 n=c4 v=80
146712 On ch=1 n=c#4 v=56
146716 On ch=1 n=e4 v=104
146724 On ch=1 n=a3 v=56
146738 On ch=1 n=c#4 v=0
146738 On ch=1 n=c4 v=0
146748 On ch=1 n=f#3 v=0
146754 On ch=1 n=a3 v=0
146800 On ch=1 n=c4 v=76
146802 On ch=1 n=e4 v=0
146868 On ch=1 n=c4 v=0
146904 On ch=1 n=a3 v=58
146960 On ch=1 n=a3 v=0
146996 On ch=1 n=c4 v=59
147066 On ch=1 n=c4 v=0
147116 On ch=1 n=e4 v=96
147118 On ch=1 n=c4 v=79
147118 On ch=1 n=f#3 v=88
147130 On ch=1 n=a3 v=60
147164 On ch=1 n=c4 v=0
147174 On ch=1 n=f#3 v=0
147176 On ch=1 n=a3 v=0
147194 On ch=1 n=e4 v=0
147212 On ch=1 n=c4 v=68
147262 On ch=1 n=c4 v=0
147334 On ch=1 n=d4 v=81
147338 On ch=1 n=b3 v=72
147338 On ch=1 n=f#4 v=96
147370 On ch=1 n=d4 v=0
147392 On ch=1 n=b3 v=0
147416 On ch=1 n=d4 v=72
147418 On ch=1 n=f#4 v=0
147480 On ch=1 n=d4 v=0
147538 On ch=1 n=f#3 v=89
147548 On ch=1 n=c4 v=59
147552 On ch=1 n=e4 v=88
147558 On ch=1 n=a3 v=55
147580 On ch=1 n=c4 v=0
147600 On ch=1 n=a3 v=0
147606 On ch=1 n=f#3 v=0
147608 On ch=1 n=e4 v=0
147632 On ch=1 n=c4 v=54
147706 On ch=1 n=c4 v=0
147764 On ch=1 n=f#4 v=106
147772 On ch=1 n=d4 v=75
147774 On ch=1 n=b3 v=64
147804 On ch=1 n=d4 v=0
147810 On ch=1 n=b3 v=0
147860 On ch=1 n=f#4 v=0
147868 On ch=1 n=d4 v=94
147924 On ch=1 n=d4 v=0
147980 On ch=1 n=a4 v=107
147984 On ch=1 n=c4 v=93
147986 On ch=1 n=e4 v=91
148028 On ch=1 n=e4 v=0
148068 On ch=1 n=c4 v=0
148068 On ch=1 n=e4 v=85
148124 On ch=1 n=a4 v=0
148136 On ch=1 n=e4 v=0
148186 On ch=1 n=b4 v=113
148188 On ch=1 n=d4 v=92
148192 On ch=1 n=f#4 v=110
148238 On ch=1 n=d4 v=0
148246 On ch=1 n=f#4 v=0
148284 On ch=1 n=f#4 v=83
148310 On ch=1 n=b4 v=0
148332 On ch=1 n=f#4 v=0
148520 On ch=1 n=e5 v=116
148540 On ch=1 n=c5 v=84
148552 Par ch=1 c=64 v=63
148558 Par ch=1 c=64 v=127
148578 On ch=1 n=c5 v=0
148674 On ch=1 n=a4 v=43
148720 On ch=1 n=a4 v=0
148824 On ch=1 n=a4 v=30
148832 On ch=1 n=b4 v=27
148864 On ch=1 n=b4 v=0
148894 On ch=1 n=a4 v=0
148912 On ch=1 n=e4 v=71
148972 On ch=1 n=e4 v=0
149042 On ch=1 n=a4 v=72
149086 On ch=1 n=e5 v=0
149136 On ch=1 n=e4 v=82
149198 On ch=1 n=e4 v=0
149224 On ch=1 n=a4 v=0
149260 On ch=1 n=c4 v=84
149262 On ch=1 n=e4 v=84
149344 On ch=1 n=f#3 v=105
149390 On ch=1 n=e4 v=0
149434 On ch=1 n=c4 v=0
149458 On ch=1 n=f#3 v=0
149490 On ch=1 n=d5 v=114
149498 On ch=1 n=c5 v=103
149500 Par ch=1 c=64 v=63
149506 Par ch=1 c=64 v=0
149572 Par ch=1 c=64 v=63
149580 Par ch=1 c=64 v=127
149612 On ch=1 n=a4 v=83
149630 On ch=1 n=c5 v=0
149670 On ch=1 n=a4 v=0
149730 On ch=1 n=a4 v=77
149818 On ch=1 n=a4 v=0
149836 On ch=1 n=d4 v=84
149874 On ch=1 n=d4 v=0
149956 On ch=1 n=a4 v=75
150030 On ch=1 n=d5 v=0
150056 On ch=1 n=d4 v=52
150114 On ch=1 n=d4 v=0
150146 On ch=1 n=a4 v=0
150198 On ch=1 n=d4 v=45
150200 On ch=1 n=c4 v=40
150270 On ch=1 n=f#3 v=85
150326 On ch=1 n=c4 v=0
150326 On ch=1 n=d4 v=0
150350 On ch=1 n=f#3 v=0
150410 On ch=1 n=c5 v=99
150502 On ch=1 n=a4 v=76
150520 On ch=1 n=c5 v=0
150556 On ch=1 n=a4 v=0
150626 On ch=1 n=a4 v=79
150726 On ch=1 n=a4 v=0
150728 On ch=1 n=d4 v=82
150812 On ch=1 n=d4 v=0
150834 Par ch=1 c=64 v=63
150842 Par ch=1 c=64 v=0
150858 On ch=1 n=e5 v=117
150870 On ch=1 n=c5 v=101
150882 Par ch=1 c=64 v=63
150900 Par ch=1 c=64 v=127
150974 On ch=1 n=c5 v=0
150980 On ch=1 n=a4 v=36
151014 On ch=1 n=a4 v=0
151018 On ch=1 n=e5 v=0
151068 On ch=1 n=a4 v=69
151158 On ch=1 n=a4 v=0
151174 On ch=1 n=e4 v=90
151234 On ch=1 n=e4 v=0
151296 On ch=1 n=a4 v=109
151308 On ch=1 n=e4 v=101
151368 On ch=1 n=e4 v=0
151404 On ch=1 n=c4 v=76
151456 On ch=1 n=c4 v=0
151472 On ch=1 n=a4 v=0
151532 On ch=1 n=c4 v=88
151628 On ch=1 n=a3 v=102
151662 On ch=1 n=c4 v=0
151716 On ch=1 n=a3 v=0
151732 Par ch=1 c=64 v=63
151738 Par ch=1 c=64 v=0
151748 On ch=1 n=c5 v=125
151758 On ch=1 n=a4 v=101
151800 Par ch=1 c=64 v=63
151808 Par ch=1 c=64 v=127
151856 On ch=1 n=e4 v=68
151910 On ch=1 n=e4 v=0
151926 On ch=1 n=a4 v=0
151952 On ch=1 n=c5 v=0
151972 On ch=1 n=e4 v=101
152062 On ch=1 n=c4 v=109
152106 On ch=1 n=e4 v=0
152178 On ch=1 n=c4 v=0
152238 On ch=1 n=e5 v=120
152242 Par ch=1 c=64 v=63
152248 Par ch=1 c=64 v=0
152252 On ch=1 n=c#5 v=98
152300 Par ch=1 c=64 v=63
152310 Par ch=1 c=64 v=127
152392 On ch=1 n=a#4 v=77
152434 On ch=1 n=c#5 v=0
152446 On ch=1 n=a#4 v=0
152454 On ch=1 n=e5 v=0
152508 On ch=1 n=a#4 v=86
152592 On ch=1 n=a#4 v=0
152610 On ch=1 n=e4 v=74
152682 On ch=1 n=e4 v=0
152726 On ch=1 n=e4 v=82
152834 On ch=1 n=c#4 v=85
152846 On ch=1 n=e4 v=0
152884 On ch=1 n=c#4 v=0
152960 On ch=1 n=c#4 v=86
153064 On ch=1 n=a#3 v=70
153086 On ch=1 n=c#4 v=0
153104 On ch=1 n=a#3 v=0
153174 On ch=1 n=f#3 v=88
153196 On ch=1 n=f#3 v=0
153202 Par ch=1 c=64 v=63
153218 Par ch=1 c=64 v=0
153276 On ch=1 n=f#3 v=81
153378 On ch=1 n=f#3 v=0
153406 On ch=1 n=c#4 v=70
153418 On ch=1 n=a#3 v=60
153492 On ch=1 n=a#3 v=0
153494 On ch=1 n=c#4 v=0
153494 On ch=1 n=f#3 v=76
153554 On ch=1 n=f#3 v=0
153624 On ch=1 n=f#3 v=93
153658 On ch=1 n=f#3 v=0
153706 On ch=1 n=f#3 v=65
153800 On ch=1 n=f#3 v=0
153828 On ch=1 n=c#4 v=71
153834 On ch=1 n=a#3 v=67
153916 On ch=1 n=a#3 v=0
153922 On ch=1 n=f#3 v=59
153924 On ch=1 n=c#4 v=0
153976 On ch=1 n=f#3 v=0
154040 On ch=1 n=f#3 v=95
154072 On ch=1 n=f#3 v=0
154132 On ch=1 n=f#3 v=70
154214 On ch=1 n=f#3 v=0
154266 On ch=1 n=c#4 v=61
154268 On ch=1 n=a#3 v=62
154356 On ch=1 n=f#3 v=66
154358 On ch=1 n=c#4 v=0
154372 On ch=1 n=a#3 v=0
154424 On ch=1 n=f#3 v=0
154476 On ch=1 n=f#3 v=88
154508 On ch=1 n=f#3 v=0
154558 On ch=1 n=f#3 v=67
154668 On ch=1 n=f#3 v=0
154686 On ch=1 n=a#3 v=58
154690 On ch=1 n=c#4 v=55
154766 On ch=1 n=f#3 v=61
154778 On ch=1 n=c#4 v=0
154790 On ch=1 n=a#3 v=0
154848 On ch=1 n=f#3 v=0
154890 On ch=1 n=g3 v=84
154944 On ch=1 n=g3 v=0
154996 On ch=1 n=f#3 v=74
155012 On ch=1 n=c#4 v=65
155024 On ch=1 n=a#3 v=39
155060 On ch=1 n=a#3 v=0
155092 On ch=1 n=f#3 v=0
155116 On ch=1 n=d3 v=82
155126 On ch=1 n=c#4 v=0
155150 On ch=1 n=d3 v=0
155210 On ch=1 n=e3 v=63
155212 On ch=1 n=a#3 v=59
155226 On ch=1 n=c#4 v=49
155276 On ch=1 n=c#4 v=0
155280 On ch=1 n=e3 v=0
155290 On ch=1 n=a#3 v=0
155330 On ch=1 n=g3 v=86
155388 On ch=1 n=g3 v=0
155418 On ch=1 n=f#3 v=75
155420 On ch=1 n=c#4 v=62
155420 On ch=1 n=a#3 v=70
155482 On ch=1 n=f#3 v=0
155496 On ch=1 n=a#3 v=0
155500 On ch=1 n=c#4 v=0
155542 On ch=1 n=d3 v=86
155576 On ch=1 n=d3 v=0
155640 On ch=1 n=a#3 v=66
155640 On ch=1 n=c#4 v=65
155644 On ch=1 n=e3 v=63
155690 On ch=1 n=e3 v=0
155708 On ch=1 n=c#4 v=0
155720 On ch=1 n=a#3 v=0
155762 On ch=1 n=g3 v=77
155806 On ch=1 n=g3 v=0
155864 On ch=1 n=c#4 v=66
155864 On ch=1 n=f#3 v=67
155868 On ch=1 n=a#3 v=65
155916 On ch=1 n=f#3 v=0
155934 On ch=1 n=c#4 v=0
155936 On ch=1 n=a#3 v=0
155974 On ch=1 n=d3 v=85
156016 On ch=1 n=d3 v=0
156072 On ch=1 n=a#3 v=63
156074 On ch=1 n=c#4 v=63
156082 On ch=1 n=e3 v=40
156128 On ch=1 n=e3 v=0
156146 On ch=1 n=c#4 v=0
156156 On ch=1 n=a#3 v=0
156192 On ch=1 n=g3 v=71
156240 On ch=1 n=g3 v=0
156284 On ch=1 n=f#3 v=63
156286 On ch=1 n=c#4 v=57
156288 On ch=1 n=a#3 v=65
156324 On ch=1 n=f#3 v=0
156336 On ch=1 n=c#4 v=0
156338 On ch=1 n=a#3 v=0
156386 On ch=1 n=d3 v=80
156420 On ch=1 n=d3 v=0
156494 On ch=1 n=c#4 v=74
156498 On ch=1 n=e3 v=54
156502 On ch=1 n=a#3 v=65
156528 On ch=1 n=e3 v=0
156532 On ch=1 n=a#3 v=0
156548 On ch=1 n=c#4 v=0
156728 On ch=1 n=a#3 v=78
156732 On ch=1 n=e4 v=76
156736 On ch=1 n=f#3 v=77
156742 Par ch=1 c=64 v=63
156744 On ch=1 n=g4 v=84
156748 Par ch=1 c=64 v=127
156770 On ch=1 n=a#3 v=0
156788 On ch=1 n=e4 v=0
156790 On ch=1 n=f#3 v=0
156856 On ch=1 n=g4 v=0
156870 On ch=1 n=e4 v=66
156872 Par ch=1 c=64 v=63
156882 Par ch=1 c=64 v=0
156936 On ch=1 n=e4 v=0
156998 On ch=1 n=c#4 v=62
157036 On ch=1 n=c#4 v=0
157096 On ch=1 n=e4 v=54
157172 On ch=1 n=e4 v=0
157208 On ch=1 n=f#3 v=82
157208 On ch=1 n=a#3 v=76
157210 On ch=1 n=g4 v=81
157212 On ch=1 n=e4 v=75
157250 On ch=1 n=a#3 v=0
157254 On ch=1 n=e4 v=0
157258 On ch=1 n=f#3 v=0
157300 On ch=1 n=g4 v=0
157444 On ch=1 n=d#4 v=100
157444 On ch=1 n=a4 v=88
157450 On ch=1 n=f#4 v=90
157490 On ch=1 n=d#4 v=0
157498 On ch=1 n=f#4 v=0
157532 On ch=1 n=a4 v=0
157540 On ch=1 n=f#4 v=76
157618 On ch=1 n=f#4 v=0
157668 On ch=1 n=e4 v=101
157670 On ch=1 n=f#3 v=98
157674 On ch=1 n=g4 v=87
157674 On ch=1 n=a#3 v=95
157676 Par ch=1 c=64 v=63
157680 Par ch=1 c=64 v=127
157700 Par ch=1 c=64 v=63
157706 On ch=1 n=a#3 v=0
157710 On ch=1 n=e4 v=0
157716 Par ch=1 c=64 v=0
157718 On ch=1 n=f#3 v=0
157756 On ch=1 n=g4 v=0
157762 On ch=1 n=e4 v=65
157842 On ch=1 n=e4 v=0
157870 On ch=1 n=c#4 v=74
157876 Par ch=1 c=67 v=127
157932 On ch=1 n=c#4 v=0
157970 On ch=1 n=e4 v=58
158046 On ch=1 n=e4 v=0
158082 On ch=1 n=a#3 v=91
158084 On ch=1 n=f#3 v=88
158086 On ch=1 n=e4 v=86
158094 On ch=1 n=g4 v=88
158132 On ch=1 n=e4 v=0
158132 On ch=1 n=a#3 v=0
158134 On ch=1 n=f#3 v=0
158180 On ch=1 n=g4 v=0
158196 On ch=1 n=e4 v=64
158278 On ch=1 n=e4 v=0
158322 On ch=1 n=a4 v=85
158322 On ch=1 n=d#4 v=99
158326 On ch=1 n=f#4 v=93
158368 On ch=1 n=d#4 v=0
158372 On ch=1 n=f#4 v=0
158414 On ch=1 n=f#4 v=74
158422 On ch=1 n=a4 v=0
158516 On ch=1 n=f#4 v=0
158548 On ch=1 n=g4 v=93
158552 On ch=1 n=e4 v=102
158554 On ch=1 n=a#3 v=98
158556 On ch=1 n=f#3 v=100
158560 Par ch=1 c=64 v=63
158564 Par ch=1 c=64 v=127
158584 On ch=1 n=a#3 v=0
158590 On ch=1 n=e4 v=0
158596 On ch=1 n=f#3 v=0
158612 Par ch=1 c=64 v=63
158624 Par ch=1 c=64 v=0
158640 On ch=1 n=e4 v=65
158654 On ch=1 n=g4 v=0
158742 On ch=1 n=e4 v=0
158746 On ch=1 n=c#4 v=77
158824 On ch=1 n=c#4 v=0
158852 On ch=1 n=e4 v=55
158946 On ch=1 n=e4 v=0
158962 On ch=1 n=a#3 v=89
158966 On ch=1 n=f#3 v=89
158970 On ch=1 n=g4 v=85
158972 On ch=1 n=e4 v=57
159006 On ch=1 n=a#3 v=0
159012 On ch=1 n=e4 v=0
159016 On ch=1 n=f#3 v=0
159060 On ch=1 n=g4 v=0
159068 On ch=1 n=e4 v=55
159154 On ch=1 n=e4 v=0
159184 On ch=1 n=d#4 v=92
159186 On ch=1 n=a4 v=86
159186 On ch=1 n=f#4 v=88
159224 On ch=1 n=d#4 v=0
159240 On ch=1 n=f#4 v=0
159284 On ch=1 n=f#4 v=71
159294 On ch=1 n=a4 v=0
159378 On ch=1 n=f#4 v=0
159404 On ch=1 n=f#3 v=84
159404 On ch=1 n=g4 v=80
159406 On ch=1 n=a#3 v=85
159406 On ch=1 n=e4 v=75
159442 On ch=1 n=e4 v=0
159444 On ch=1 n=f#3 v=0
159446 On ch=1 n=a#3 v=0
159484 On ch=1 n=g4 v=0
159630 On ch=1 n=a4 v=76
159634 On ch=1 n=d#4 v=91
159640 Par ch=1 c=64 v=63
159644 Par ch=1 c=64 v=127
159656 On ch=1 n=f#4 v=64
159686 On ch=1 n=d#4 v=0
159704 On ch=1 n=f#4 v=0
159726 On ch=1 n=a4 v=0
159730 On ch=1 n=f#4 v=54
159804 Par ch=1 c=64 v=63
159812 On ch=1 n=f#4 v=0
159814 Par ch=1 c=64 v=0
159856 On ch=1 n=a#4 v=90
159860 On ch=1 n=g4 v=86
159862 On ch=1 n=e4 v=88
159862 Par ch=1 c=64 v=63
159874 Par ch=1 c=64 v=127
159914 On ch=1 n=e4 v=0
159966 On ch=1 n=a#4 v=0
160066 On ch=1 n=g4 v=0
160096 Par ch=1 c=64 v=63
160106 Par ch=1 c=64 v=0
160112 On ch=1 n=f#4 v=67
160114 On ch=1 n=c#5 v=91
160136 On ch=1 n=a4 v=44
160172 Par ch=1 c=64 v=63
160184 Par ch=1 c=64 v=127
160206 Par ch=1 c=67 v=0
160284 On ch=1 n=f#4 v=0
160296 On ch=1 n=a4 v=0
160296 On ch=1 n=c#5 v=0
160448 Par ch=1 c=67 v=0
160456 On ch=1 n=e6 v=100
160462 On ch=1 n=a#5 v=77
160468 Par ch=1 c=64 v=63
160468 On ch=1 n=c6 v=79
160474 Par ch=1 c=64 v=127
160578 On ch=1 n=e6 v=0
160648 On ch=1 n=e5 v=61
160746 On ch=1 n=e5 v=0
160772 On ch=1 n=c6 v=0
160776 On ch=1 n=a#5 v=0
160792 On ch=1 n=e5 v=78
160826 On ch=1 n=c5 v=44
160828 On ch=1 n=a#4 v=31
160850 On ch=1 n=e5 v=0
160900 On ch=1 n=c5 v=0
160908 On ch=1 n=e4 v=82
160936 On ch=1 n=a#4 v=0
160966 On ch=1 n=e4 v=0
161034 On ch=1 n=a#4 v=76
161036 On ch=1 n=e5 v=78
161038 On ch=1 n=c5 v=78
161116 On ch=1 n=e5 v=0
161138 On ch=1 n=e4 v=86
161192 On ch=1 n=e4 v=0
161230 On ch=1 n=a#4 v=0
161236 On ch=1 n=c5 v=0
161260 On ch=1 n=e4 v=91
161350 On ch=1 n=f#3 v=99
161396 On ch=1 n=e4 v=0
161466 Par ch=1 c=64 v=63
161474 Par ch=1 c=64 v=0
161500 On ch=1 n=f#3 v=0
161514 Par ch=1 c=64 v=63
161516 On ch=1 n=c6 v=91
161518 On ch=1 n=d6 v=93
161526 On ch=1 n=a#5 v=85
161530 Par ch=1 c=64 v=127
161646 On ch=1 n=d5 v=63
161658 On ch=1 n=d6 v=0
161702 On ch=1 n=c6 v=0
161704 On ch=1 n=d5 v=0
161704 On ch=1 n=a#5 v=0
161764 On ch=1 n=c5 v=55
161764 On ch=1 n=d5 v=64
161772 On ch=1 n=a#4 v=62
161830 On ch=1 n=d5 v=0
161834 On ch=1 n=c5 v=0
161868 On ch=1 n=a#4 v=0
161870 On ch=1 n=d4 v=70
161926 On ch=1 n=d4 v=0
161994 On ch=1 n=d5 v=76
162000 On ch=1 n=a#4 v=72
162000 On ch=1 n=c5 v=83
162108 On ch=1 n=d4 v=70
162164 On ch=1 n=d4 v=0
162186 On ch=1 n=a#4 v=0
162186 On ch=1 n=d5 v=0
162188 On ch=1 n=c5 v=0
162234 On ch=1 n=d4 v=86
162312 On ch=1 n=f#3 v=98
162376 On ch=1 n=d4 v=0
162390 Par ch=1 c=64 v=63
162398 Par ch=1 c=64 v=0
162430 Par ch=1 c=64 v=63
162436 On ch=1 n=f#3 v=0
162446 Par ch=1 c=64 v=127
162458 On ch=1 n=c6 v=101
162466 On ch=1 n=a#5 v=92
162566 On ch=1 n=d5 v=75
162630 On ch=1 n=d5 v=0
162678 On ch=1 n=a#5 v=0
162696 On ch=1 n=d5 v=76
162698 On ch=1 n=c5 v=75
162702 On ch=1 n=a#4 v=74
162712 On ch=1 n=c6 v=0
162782 On ch=1 n=d5 v=0
162786 On ch=1 n=c5 v=0
162792 On ch=1 n=d4 v=99
162818 On ch=1 n=a#4 v=0
162876 On ch=1 n=d4 v=0
162880 Par ch=1 c=64 v=63
162906 Par ch=1 c=64 v=127
162922 On ch=1 n=e6 v=99
162924 On ch=1 n=c6 v=91
162924 On ch=1 n=a#5 v=95
163008 On ch=1 n=e6 v=0
163028 On ch=1 n=e5 v=60
163082 On ch=1 n=e5 v=0
163098 On ch=1 n=a#5 v=0
163112 On ch=1 n=c6 v=0
163154 On ch=1 n=e5 v=76
163164 On ch=1 n=c5 v=65
163166 On ch=1 n=a#4 v=65
163216 On ch=1 n=e5 v=0
163242 On ch=1 n=c5 v=0
163260 On ch=1 n=e4 v=72
163262 On ch=1 n=a#4 v=0
163316 On ch=1 n=e4 v=0
163380 On ch=1 n=e5 v=82
163382 On ch=1 n=g5 v=79
163384 On ch=1 n=c5 v=91
163388 Par ch=1 c=64 v=63
163406 Par ch=1 c=64 v=127
163458 On ch=1 n=g5 v=0
163492 On ch=1 n=g4 v=74
163556 On ch=1 n=g4 v=0
163576 On ch=1 n=c5 v=0
163600 On ch=1 n=e5 v=0
163626 On ch=1 n=g4 v=55
163678 On ch=1 n=g4 v=0
163722 On ch=1 n=f#3 v=94
163818 Par ch=1 c=64 v=63
163840 On ch=1 n=a#5 v=88
163844 Par ch=1 c=64 v=127
163848 On ch=1 n=e5 v=77
163850 On ch=1 n=f#3 v=0
163852 On ch=1 n=g5 v=60
163934 On ch=1 n=a#4 v=82
164000 On ch=1 n=a#4 v=0
164002 On ch=1 n=e5 v=0
164026 On ch=1 n=a#5 v=0
164028 On ch=1 n=g5 v=0
164048 On ch=1 n=e5 v=70
164168 On ch=1 n=a#4 v=63
164184 On ch=1 n=e5 v=0
164244 On ch=1 n=a#4 v=0
164262 Par ch=1 c=64 v=63
164300 Par ch=1 c=64 v=127
164308 On ch=1 n=d6 v=80
164314 On ch=1 n=e6 v=86
164320 On ch=1 n=g#5 v=74
164424 On ch=1 n=e5 v=72
164426 On ch=1 n=e6 v=0
164432 On ch=1 n=d6 v=0
164472 On ch=1 n=g#5 v=0
164482 On ch=1 n=e5 v=0
164536 On ch=1 n=e5 v=72
164596 On ch=1 n=e5 v=0
164634 On ch=1 n=e4 v=84
164690 On ch=1 n=e4 v=0
164740 On ch=1 n=e5 v=84
164822 On ch=1 n=e5 v=0
164828 On ch=1 n=e4 v=87
164880 On ch=1 n=e4 v=0
164946 On ch=1 n=e4 v=94
165030 On ch=1 n=e4 v=0
165048 On ch=1 n=e3 v=91
165094 On ch=1 n=e3 v=0
165162 Par ch=1 c=64 v=63
165166 Par ch=1 c=64 v=127
165186 On ch=1 n=g#4 v=69
165190 On ch=1 n=e4 v=64
165198 On ch=1 n=e5 v=65
165214 On ch=1 n=d5 v=48
165224 Par ch=1 c=64 v=63
165230 Par ch=1 c=64 v=0
165244 On ch=1 n=g#4 v=0
165246 On ch=1 n=d5 v=0
165254 On ch=1 n=e4 v=0
165266 On ch=1 n=e5 v=0
165302 On ch=1 n=e4 v=70
165376 On ch=1 n=e4 v=0
165438 On ch=1 n=g4 v=78
165438 On ch=1 n=g5 v=71
165440 On ch=1 n=b4 v=66
165448 On ch=1 n=f5 v=53
165472 On ch=1 n=b4 v=0
165476 On ch=1 n=g5 v=0
165478 On ch=1 n=f5 v=0
165488 On ch=1 n=g4 v=0
165534 On ch=1 n=g4 v=61
165590 On ch=1 n=g4 v=0
165662 On ch=1 n=e5 v=88
165664 On ch=1 n=g#4 v=85
165668 On ch=1 n=e4 v=79
165704 On ch=1 n=g#4 v=0
165708 On ch=1 n=e4 v=0
165732 On ch=1 n=e5 v=0
165768 On ch=1 n=e4 v=76
165828 On ch=1 n=e4 v=0
165886 On ch=1 n=f5 v=86
165888 On ch=1 n=f4 v=83
165892 On ch=1 n=a4 v=71
165894 On ch=1 n=d#5 v=76
165922 On ch=1 n=d#5 v=0
165936 On ch=1 n=a4 v=0
165938 On ch=1 n=f4 v=0
165938 On ch=1 n=f5 v=0
165984 On ch=1 n=f4 v=68
166044 On ch=1 n=f4 v=0
166112 On ch=1 n=f#4 v=86
166114 On ch=1 n=d5 v=86
166114 On ch=1 n=d4 v=87
166130 On ch=1 n=c5 v=60
166156 On ch=1 n=c5 v=0
166156 On ch=1 n=f#4 v=0
166162 On ch=1 n=d4 v=0
166170 On ch=1 n=d5 v=0
166210 On ch=1 n=d4 v=74
166272 On ch=1 n=d4 v=0
166350 On ch=1 n=a#4 v=84
166352 On ch=1 n=c5 v=85
166358 On ch=1 n=c4 v=71
166360 On ch=1 n=e4 v=63
166390 On ch=1 n=c4 v=0
166390 On ch=1 n=c5 v=0
166400 On ch=1 n=a#4 v=0
166418 On ch=1 n=e4 v=0
166446 On ch=1 n=c4 v=65
166512 On ch=1 n=c4 v=0
166586 On ch=1 n=a4 v=85
166590 On ch=1 n=c#4 v=89
166598 On ch=1 n=a3 v=76
166598 On ch=1 n=g4 v=55
166618 On ch=1 n=c#4 v=0
166630 On ch=1 n=g4 v=0
166648 On ch=1 n=a4 v=0
166652 On ch=1 n=a3 v=0
166694 On ch=1 n=a3 v=73
166770 On ch=1 n=a3 v=0
166812 On ch=1 n=c5 v=87
166814 On ch=1 n=e4 v=85
166818 On ch=1 n=a#4 v=67
166828 On ch=1 n=c4 v=82
166848 On ch=1 n=a#4 v=0
166854 On ch=1 n=c5 v=0
166864 On ch=1 n=e4 v=0
166882 On ch=1 n=c4 v=0
166914 On ch=1 n=c4 v=86
166974 On ch=1 n=c4 v=0
167042 On ch=1 n=g4 v=84
167050 On ch=1 n=e4 v=82
167050 On ch=1 n=a#3 v=94
167058 On ch=1 n=c4 v=44
167060 On ch=1 n=e3 v=82
167088 On ch=1 n=e4 v=0
167098 On ch=1 n=c4 v=0
167100 On ch=1 n=e3 v=0
167100 On ch=1 n=a#3 v=0
167106 On ch=1 n=g4 v=0
167172 On ch=1 n=g3 v=85
167214 On ch=1 n=g3 v=0
167282 On ch=1 n=g3 v=80
167322 On ch=1 n=g3 v=0
167372 On ch=1 n=g3 v=70
167444 On ch=1 n=g3 v=0
167492 On ch=1 n=a4 v=76
167498 On ch=1 n=a3 v=83
167500 On ch=1 n=c#4 v=92
167500 On ch=1 n=g4 v=82
167538 On ch=1 n=c#4 v=0
167546 On ch=1 n=a3 v=0
167552 On ch=1 n=a4 v=0
167556 On ch=1 n=g4 v=0
167604 On ch=1 n=a3 v=80
167650 On ch=1 n=a3 v=0
167726 On ch=1 n=a3 v=79
167762 On ch=1 n=a3 v=0
167816 On ch=1 n=a3 v=77
167864 On ch=1 n=a3 v=0
167942 On ch=1 n=e5 v=77
167942 Par ch=1 c=64 v=63
167946 On ch=1 n=d5 v=94
167950 On ch=1 n=e4 v=90
167954 Par ch=1 c=64 v=127
167954 On ch=1 n=g#4 v=87
168000 On ch=1 n=e4 v=0
168024 On ch=1 n=e5 v=0
168026 On ch=1 n=g#4 v=0
168026 On ch=1 n=d5 v=0
168070 Par ch=1 c=64 v=63
168072 On ch=1 n=e4 v=65
168082 Par ch=1 c=64 v=0
168120 On ch=1 n=e4 v=0
168180 On ch=1 n=b3 v=83
168198 On ch=1 n=e4 v=64
168216 On ch=1 n=b3 v=0
168234 On ch=1 n=e4 v=0
168290 On ch=1 n=e4 v=71
168342 On ch=1 n=e4 v=0
168406 On ch=1 n=e3 v=75
168416 On ch=1 n=e4 v=69
168458 On ch=1 n=e4 v=0
168470 On ch=1 n=e3 v=0
168522 On ch=1 n=e4 v=60
168556 On ch=1 n=e4 v=0
168622 On ch=1 n=b3 v=75
168624 On ch=1 n=e4 v=35
168658 On ch=1 n=e4 v=0
168664 On ch=1 n=b3 v=0
168714 On ch=1 n=e4 v=63
168752 On ch=1 n=e4 v=0
168854 Par ch=1 c=64 v=63
168872 Par ch=1 c=64 v=0
168872 On ch=1 n=e4 v=71
168882 On ch=1 n=g#4 v=89
168882 On ch=1 n=e5 v=74
168888 On ch=1 n=d5 v=83
168912 On ch=1 n=e4 v=0
168916 On ch=1 n=g#4 v=0
168926 On ch=1 n=d5 v=0
168940 On ch=1 n=e5 v=0
168982 On ch=1 n=e4 v=79
169042 On ch=1 n=e4 v=0
169104 On ch=1 n=g5 v=84
169110 On ch=1 n=b4 v=79
169114 On ch=1 n=f5 v=81
169116 On ch=1 n=g4 v=81
169146 On ch=1 n=f5 v=0
169146 On ch=1 n=b4 v=0
169148 On ch=1 n=g4 v=0
169154 On ch=1 n=g5 v=0
169198 On ch=1 n=g4 v=80
169260 On ch=1 n=g4 v=0
169334 On ch=1 n=e5 v=82
169334 On ch=1 n=g#4 v=82
169336 On ch=1 n=e4 v=78
169338 On ch=1 n=d5 v=74
169364 On ch=1 n=d5 v=0
169364 On ch=1 n=g#4 v=0
169378 On ch=1 n=e4 v=0
169394 On ch=1 n=e5 v=0
169428 On ch=1 n=e4 v=74
169490 On ch=1 n=e4 v=0
169554 On ch=1 n=f5 v=81
169554 On ch=1 n=a4 v=80
169556 On ch=1 n=d#5 v=79
169560 On ch=1 n=f4 v=81
169592 On ch=1 n=d#5 v=0
169598 On ch=1 n=a4 v=0
169600 On ch=1 n=f5 v=0
169608 On ch=1 n=f4 v=0
169652 On ch=1 n=f4 v=74
169710 On ch=1 n=f4 v=0
169776 On ch=1 n=d5 v=96
169782 On ch=1 n=f#4 v=82
169784 On ch=1 n=d4 v=83
169798 On ch=1 n=c5 v=57
169814 On ch=1 n=f#4 v=0
169818 On ch=1 n=d4 v=0
169826 On ch=1 n=c5 v=0
169836 On ch=1 n=d5 v=0
169884 On ch=1 n=d4 v=78
169944 On ch=1 n=d4 v=0
170012 On ch=1 n=c5 v=88
170012 On ch=1 n=a#4 v=85
170016 On ch=1 n=e4 v=76
170020 On ch=1 n=c4 v=85
170050 On ch=1 n=c5 v=0
170052 On ch=1 n=a#4 v=0
170054 On ch=1 n=e4 v=0
170068 On ch=1 n=c4 v=0
170118 On ch=1 n=c4 v=66
170188 On ch=1 n=c4 v=0
170244 On ch=1 n=a4 v=79
170246 On ch=1 n=a3 v=82
170248 On ch=1 n=c#4 v=85
170266 On ch=1 n=g4 v=41
170280 On ch=1 n=c#4 v=0
170302 On ch=1 n=g4 v=0
170302 On ch=1 n=a3 v=0
170304 On ch=1 n=a4 v=0
170360 On ch=1 n=a3 v=59
170442 On ch=1 n=a3 v=0
170470 On ch=1 n=a#4 v=80
170476 On ch=1 n=e4 v=83
170476 On ch=1 n=c5 v=81
170484 On ch=1 n=c4 v=71
170510 On ch=1 n=c5 v=0
170510 On ch=1 n=a#4 v=0
170524 On ch=1 n=e4 v=0
170528 On ch=1 n=c4 v=0
170574 On ch=1 n=c4 v=68
170638 On ch=1 n=c4 v=0
170694 On ch=1 n=g4 v=76
170698 On ch=1 n=f4 v=76
170698 On ch=1 n=g3 v=82
170732 On ch=1 n=f4 v=0
170736 On ch=1 n=g4 v=0
170748 On ch=1 n=g3 v=0
170796 On ch=1 n=g3 v=59
170846 On ch=1 n=g3 v=0
170928 On ch=1 n=a#4 v=86
170932 On ch=1 n=a#3 v=87
170932 On ch=1 n=g#4 v=83
170968 On ch=1 n=g#4 v=0
170980 On ch=1 n=a#3 v=0
170986 On ch=1 n=a#4 v=0
171036 On ch=1 n=a#3 v=67
171112 On ch=1 n=a#3 v=0
171160 On ch=1 n=g4 v=70
171162 On ch=1 n=f4 v=66
171170 On ch=1 n=g3 v=77
171200 On ch=1 n=f4 v=0
171200 On ch=1 n=g4 v=0
171214 On ch=1 n=g3 v=0
171268 On ch=1 n=g3 v=68
171316 On ch=1 n=g3 v=0
171398 On ch=1 n=e4 v=76
171402 On ch=1 n=d4 v=68
171402 On ch=1 n=f3 v=60
171430 On ch=1 n=d4 v=0
171444 On ch=1 n=e4 v=0
171452 On ch=1 n=f3 v=0
171500 On ch=1 n=f3 v=65
171554 On ch=1 n=f3 v=0
171618 On ch=1 n=f3 v=82
171618 On ch=1 n=d#4 v=92
171670 On ch=1 n=f3 v=0
171690 On ch=1 n=d#4 v=0
171722 On ch=1 n=b3 v=60
171776 On ch=1 n=b3 v=0
171850 On ch=1 n=f4 v=77
171852 On ch=1 n=g#3 v=85
171888 On ch=1 n=g#3 v=0
171912 On ch=1 n=f4 v=0
171954 On ch=1 n=c#4 v=70
172016 On ch=1 n=c#4 v=0
172084 On ch=1 n=d#4 v=81
172086 On ch=1 n=f3 v=76
172120 On ch=1 n=f3 v=0
172146 On ch=1 n=d#4 v=0
172198 On ch=1 n=b3 v=54
172258 On ch=1 n=b3 v=0
172328 On ch=1 n=e3 v=69
172330 On ch=1 n=c4 v=76
172366 On ch=1 n=e3 v=0
172410 On ch=1 n=c4 v=0
172442 On ch=1 n=g#3 v=60
172484 On ch=1 n=g#3 v=0
172534 Par ch=1 c=64 v=63
172542 Par ch=1 c=64 v=127
172640 On ch=1 n=e4 v=75
172642 On ch=1 n=a3 v=54
172642 On ch=1 n=d3 v=61
172676 On ch=1 n=a3 v=0
172680 On ch=1 n=d3 v=0
172712 Par ch=1 c=64 v=63
172716 Par ch=1 c=64 v=0
172756 On ch=1 n=c4 v=38
172774 On ch=1 n=e4 v=0
172818 Par ch=1 c=67 v=127
172860 On ch=1 n=c4 v=0
172870 On ch=1 n=a3 v=58
172950 On ch=1 n=a3 v=0
172992 On ch=1 n=c4 v=51
173072 On ch=1 n=c4 v=0
173092 On ch=1 n=d3 v=85
173094 On ch=1 n=a3 v=75
173098 On ch=1 n=e4 v=80
173124 On ch=1 n=a3 v=0
173132 On ch=1 n=d3 v=0
173188 On ch=1 n=c4 v=69
173192 On ch=1 n=e4 v=0
173246 On ch=1 n=c4 v=0
173336 On ch=1 n=b3 v=85
173338 On ch=1 n=d4 v=86
173352 On ch=1 n=f#4 v=93
173374 On ch=1 n=b3 v=0
173378 On ch=1 n=d4 v=0
173432 On ch=1 n=f#4 v=0
173442 On ch=1 n=d4 v=70
173504 On ch=1 n=d4 v=0
173572 Par ch=1 c=64 v=63
173576 Par ch=1 c=64 v=127
173578 On ch=1 n=a3 v=84
173582 On ch=1 n=e4 v=101
173586 On ch=1 n=d3 v=74
173600 Par ch=1 c=64 v=63
173608 On ch=1 n=a3 v=0
173610 Par ch=1 c=64 v=0
173618 On ch=1 n=d3 v=0
173654 On ch=1 n=e4 v=0
173680 On ch=1 n=c4 v=44
173774 On ch=1 n=c4 v=0
173778 On ch=1 n=a3 v=65
173854 On ch=1 n=a3 v=0
173886 On ch=1 n=c4 v=78
173956 On ch=1 n=c4 v=0
174000 On ch=1 n=d3 v=78
174002 On ch=1 n=a3 v=77
174008 On ch=1 n=e4 v=98
174044 On ch=1 n=a3 v=0
174052 On ch=1 n=d3 v=0
174088 On ch=1 n=e4 v=0
174096 On ch=1 n=c4 v=81
174156 On ch=1 n=c4 v=0
174228 On ch=1 n=f#4 v=105
174232 On ch=1 n=d4 v=80
174232 On ch=1 n=b3 v=77
174266 On ch=1 n=b3 v=0
174272 On ch=1 n=d4 v=0
174308 On ch=1 n=f#4 v=0
174324 On ch=1 n=d4 v=68
174382 On ch=1 n=d4 v=0
174468 On ch=1 n=e4 v=101
174470 On ch=1 n=a3 v=87
174484 On ch=1 n=d3 v=74
174484 Par ch=1 c=64 v=63
174502 Par ch=1 c=64 v=0
174516 On ch=1 n=a3 v=0
174518 On ch=1 n=d3 v=0
174548 On ch=1 n=e4 v=0
174564 On ch=1 n=c4 v=73
174622 On ch=1 n=c4 v=0
174680 On ch=1 n=a3 v=70
174748 On ch=1 n=a3 v=0
174776 On ch=1 n=c4 v=69
174812 On ch=1 n=c4 v=0
174884 On ch=1 n=e4 v=97
174888 On ch=1 n=a3 v=71
174890 On ch=1 n=d3 v=63
174924 On ch=1 n=a3 v=0
174930 On ch=1 n=d3 v=0
174950 On ch=1 n=e4 v=0
174980 On ch=1 n=c4 v=73
175044 On ch=1 n=c4 v=0
175116 On ch=1 n=b3 v=77
175118 On ch=1 n=f#4 v=96
175122 On ch=1 n=d4 v=68
175152 On ch=1 n=b3 v=0
175162 On ch=1 n=d4 v=0
175204 On ch=1 n=f#4 v=0
175232 On ch=1 n=d4 v=15
175262 On ch=1 n=d4 v=0
175328 On ch=1 n=c4 v=68
175330 On ch=1 n=d#4 v=86
175334 On ch=1 n=g4 v=84
175370 On ch=1 n=d#4 v=0
175396 On ch=1 n=c4 v=0
175432 On ch=1 n=g4 v=0
175436 On ch=1 n=d#4 v=94
175496 On ch=1 n=d#4 v=0
175562 On ch=1 n=g#4 v=106
175566 On ch=1 n=c#4 v=90
175568 On ch=1 n=e4 v=84
175608 On ch=1 n=c#4 v=0
175614 On ch=1 n=e4 v=0
175650 On ch=1 n=g#4 v=0
175654 On ch=1 n=e4 v=78
175716 On ch=1 n=e4 v=0
175782 On ch=1 n=d4 v=102
175784 On ch=1 n=a4 v=107
175786 On ch=1 n=f4 v=88
175824 On ch=1 n=f4 v=0
175826 On ch=1 n=d4 v=0
175876 On ch=1 n=f4 v=91
175894 On ch=1 n=a4 v=0
175924 On ch=1 n=f4 v=0
176018 On ch=1 n=c5 v=101
176018 On ch=1 n=d#4 v=96
176026 On ch=1 n=g#4 v=87
176054 On ch=1 n=g#4 v=0
176056 On ch=1 n=d#4 v=0
176114 On ch=1 n=c5 v=0
176140 On ch=1 n=g4 v=80
176196 On ch=1 n=g4 v=0
176332 On ch=1 n=a3 v=86
176336 On ch=1 n=d3 v=81
176352 On ch=1 n=e4 v=93
176364 On ch=1 n=a3 v=0
176364 Par ch=1 c=64 v=63
176370 Par ch=1 c=64 v=127
176388 On ch=1 n=d3 v=0
176410 Par ch=1 c=64 v=63
176422 Par ch=1 c=64 v=0
176444 On ch=1 n=e4 v=0
176444 On ch=1 n=c4 v=67
176550 On ch=1 n=c4 v=0
176564 On ch=1 n=a3 v=59
176644 On ch=1 n=a3 v=0
176678 On ch=1 n=c4 v=66
176764 On ch=1 n=c4 v=0
176790 On ch=1 n=e4 v=94
176800 On ch=1 n=d3 v=75
176800 On ch=1 n=a3 v=70
176842 On ch=1 n=a3 v=0
176846 On ch=1 n=d3 v=0
176884 On ch=1 n=e4 v=0
176886 On ch=1 n=c4 v=83
176948 On ch=1 n=c4 v=0
177016 On ch=1 n=b3 v=87
177016 On ch=1 n=f#4 v=105
177022 On ch=1 n=d4 v=83
177052 On ch=1 n=b3 v=0
177076 On ch=1 n=d4 v=0
177090 On ch=1 n=f#4 v=0
177118 On ch=1 n=d4 v=68
177168 On ch=1 n=d4 v=0
177236 On ch=1 n=c4 v=93
177242 On ch=1 n=d#4 v=98
177246 On ch=1 n=g4 v=102
177284 On ch=1 n=d#4 v=0
177302 On ch=1 n=c4 v=0
177332 On ch=1 n=d#4 v=90
177334 On ch=1 n=g4 v=0
177400 On ch=1 n=d#4 v=0
177460 On ch=1 n=g#4 v=115
177470 On ch=1 n=e4 v=100
177470 On ch=1 n=c#4 v=105
177520 On ch=1 n=c#4 v=0
177520 On ch=1 n=e4 v=0
177556 On ch=1 n=e4 v=91
177560 On ch=1 n=g#4 v=0
177610 On ch=1 n=e4 v=0
177686 On ch=1 n=a4 v=113
177688 On ch=1 n=f4 v=103
177688 On ch=1 n=d4 v=114
177728 On ch=1 n=d4 v=0
177728 On ch=1 n=f4 v=0
177790 On ch=1 n=f4 v=91
177828 On ch=1 n=a4 v=0
177850 On ch=1 n=f4 v=0
177920 On ch=1 n=c5 v=111
177922 On ch=1 n=d#4 v=100
177922 On ch=1 n=g#4 v=106
177964 On ch=1 n=d#4 v=0
177972 On ch=1 n=g#4 v=0
178016 On ch=1 n=g4 v=67
178036 On ch=1 n=c5 v=0
178056 On ch=1 n=g4 v=0
178208 On ch=1 n=g4 v=64
178208 On ch=1 n=b4 v=76
178212 On ch=1 n=d4 v=81
178220 On ch=1 n=e5 v=88
178234 Par ch=1 c=64 v=63
178234 Par ch=1 c=64 v=127
178240 On ch=1 n=g4 v=0
178248 On ch=1 n=b4 v=0
178274 On ch=1 n=d4 v=0
178328 On ch=1 n=e5 v=0
178458 Par ch=1 c=64 v=63
178462 Par ch=1 c=64 v=0
178468 On ch=1 n=g4 v=62
178476 On ch=1 n=d3 v=93
178522 On ch=1 n=d3 v=0
178544 On ch=1 n=g4 v=0
178578 On ch=1 n=b4 v=79
178642 On ch=1 n=b4 v=0
178692 On ch=1 n=e5 v=106
178696 On ch=1 n=d4 v=93
178710 On ch=1 n=g4 v=55
178744 On ch=1 n=g4 v=0
178756 On ch=1 n=d4 v=0
178778 On ch=1 n=b4 v=88
178798 On ch=1 n=e5 v=0
178828 On ch=1 n=b4 v=0
178908 On ch=1 n=f#5 v=109
178916 On ch=1 n=a#4 v=103
178920 On ch=1 n=c#5 v=94
178942 On ch=1 n=a#4 v=0
178948 On ch=1 n=c#5 v=0
178996 On ch=1 n=f#5 v=0
179014 On ch=1 n=c#5 v=101
179042 Par ch=1 c=67 v=127
179062 On ch=1 n=c#5 v=0
179140 On ch=1 n=b4 v=100
179142 On ch=1 n=g4 v=90
179144 On ch=1 n=d4 v=100
179146 On ch=1 n=e5 v=118
179158 Par ch=1 c=64 v=63
179158 Par ch=1 c=64 v=127
179162 On ch=1 n=b4 v=0
179166 On ch=1 n=g4 v=0
179188 On ch=1 n=d4 v=0
179238 On ch=1 n=b4 v=84
179266 On ch=1 n=e5 v=0
179314 On ch=1 n=b4 v=0
179374 On ch=1 n=g4 v=81
179376 On ch=1 n=d3 v=92
179406 Par ch=1 c=64 v=63
179408 On ch=1 n=d3 v=0
179408 Par ch=1 c=64 v=0
179426 On ch=1 n=g4 v=0
179472 On ch=1 n=b4 v=91
179524 On ch=1 n=b4 v=0
179588 On ch=1 n=e5 v=108
179588 On ch=1 n=b4 v=91
179590 On ch=1 n=g4 v=84
179592 On ch=1 n=d4 v=91
179618 On ch=1 n=g4 v=0
179622 On ch=1 n=b4 v=0
179638 On ch=1 n=d4 v=0
179676 On ch=1 n=b4 v=92
179678 On ch=1 n=e5 v=0
179728 On ch=1 n=b4 v=0
179826 On ch=1 n=d#5 v=112
179826 On ch=1 n=f#5 v=107
179826 On ch=1 n=a#4 v=99
179862 On ch=1 n=a#4 v=0
179862 On ch=1 n=d#5 v=0
179934 On ch=1 n=d#5 v=92
179956 On ch=1 n=f#5 v=0
179982 On ch=1 n=d#5 v=0
180054 On ch=1 n=g4 v=90
180056 On ch=1 n=b4 v=83
180058 On ch=1 n=d4 v=97
180060 Par ch=1 c=64 v=63
180062 Par ch=1 c=64 v=127
180066 On ch=1 n=e5 v=113
180066 On ch=1 n=a4 v=50
180076 On ch=1 n=g4 v=0
180080 On ch=1 n=b4 v=0
180100 On ch=1 n=a4 v=0
180102 On ch=1 n=d4 v=0
180150 On ch=1 n=b4 v=86
180170 On ch=1 n=e5 v=0
180238 On ch=1 n=b4 v=0
180284 On ch=1 n=g4 v=88
180286 On ch=1 n=d3 v=109
180326 On ch=1 n=d3 v=0
180344 On ch=1 n=g4 v=0
180378 On ch=1 n=b4 v=102
180454 On ch=1 n=b4 v=0
180488 Par ch=1 c=64 v=63
180492 Par ch=1 c=64 v=0
180498 On ch=1 n=e5 v=101
180508 On ch=1 n=d4 v=84
180512 On ch=1 n=g4 v=71
180522 On ch=1 n=b4 v=49
180542 On ch=1 n=g4 v=0
180544 On ch=1 n=d4 v=0
180556 On ch=1 n=b4 v=0
180590 On ch=1 n=b4 v=93
180596 On ch=1 n=e5 v=0
180642 On ch=1 n=b4 v=0
180726 On ch=1 n=d#5 v=103
180734 On ch=1 n=a#4 v=76
180740 On ch=1 n=f#5 v=100
180760 On ch=1 n=a#4 v=0
180772 On ch=1 n=d#5 v=0
180844 On ch=1 n=d#5 v=101
180866 On ch=1 n=f#5 v=0
180896 On ch=1 n=d#5 v=0
180960 On ch=1 n=b4 v=88
180962 On ch=1 n=g5 v=111
180962 On ch=1 n=e5 v=88
180998 On ch=1 n=e5 v=0
181004 On ch=1 n=b4 v=0
181050 On ch=1 n=g5 v=0
181072 On ch=1 n=e5 v=93
181136 On ch=1 n=e5 v=0
181198 On ch=1 n=f#5 v=96
181200 On ch=1 n=d#5 v=106
181206 On ch=1 n=a#5 v=121
181230 On ch=1 n=f#5 v=0
181244 On ch=1 n=d#5 v=0
181292 On ch=1 n=a#5 v=0
181326 On ch=1 n=f#5 v=95
181362 On ch=1 n=f#5 v=0
181456 On ch=1 n=b5 v=114
181458 On ch=1 n=g5 v=91
181458 On ch=1 n=e5 v=88
181488 On ch=1 n=e5 v=0
181496 On ch=1 n=g5 v=0
181502 Par ch=1 c=67 v=0
181536 On ch=1 n=b5 v=0
181570 On ch=1 n=g5 v=81
181636 On ch=1 n=g5 v=0
181750 On ch=1 n=d6 v=101
181760 On ch=1 n=f#5 v=93
181760 On ch=1 n=a#5 v=98
181786 On ch=1 n=a#5 v=0
181788 On ch=1 n=f#5 v=0
181934 On ch=1 n=a#5 v=41
181950 On ch=1 n=d6 v=0
181976 On ch=1 n=a#5 v=0
182186 Par ch=1 c=67 v=0
182210 On ch=1 n=d5 v=71
182222 On ch=1 n=b4 v=54
182232 Par ch=1 c=64 v=63
182232 On ch=1 n=g4 v=29
182240 Par ch=1 c=64 v=127
182352 On ch=1 n=d5 v=0
182444 On ch=1 n=d4 v=60
182512 On ch=1 n=d4 v=0
182524 On ch=1 n=g4 v=0
182548 On ch=1 n=b4 v=0
182614 On ch=1 n=d4 v=55
182664 On ch=1 n=d4 v=0
182744 On ch=1 n=c#3 v=74
182774 On ch=1 n=c#3 v=0
182870 On ch=1 n=b4 v=72
182876 On ch=1 n=g4 v=61
182974 On ch=1 n=d4 v=76
182984 On ch=1 n=b4 v=0
182988 On ch=1 n=g4 v=0
183036 On ch=1 n=d4 v=0
183108 On ch=1 n=e4 v=85
183114 On ch=1 n=b4 v=85
183116 On ch=1 n=e5 v=88
183144 On ch=1 n=g#4 v=57
183152 On ch=1 n=e4 v=0
183182 On ch=1 n=b4 v=0
183192 On ch=1 n=e5 v=0
183210 On ch=1 n=g#4 v=0
183230 On ch=1 n=e4 v=79
183290 On ch=1 n=e4 v=0
183376 On ch=1 n=c#5 v=96
183388 On ch=1 n=a4 v=48
183390 Par ch=1 c=64 v=63
183390 On ch=1 n=e4 v=70
183398 Par ch=1 c=64 v=0
183482 Par ch=1 c=64 v=63
183488 Par ch=1 c=64 v=127
183514 On ch=1 n=c#4 v=85
183556 On ch=1 n=c#5 v=0
183594 On ch=1 n=e4 v=0
183598 On ch=1 n=c#4 v=0
183622 On ch=1 n=a4 v=0
183654 On ch=1 n=c#4 v=72
183728 On ch=1 n=c#4 v=0
183760 On ch=1 n=c#3 v=79
183810 On ch=1 n=c#3 v=0
183892 On ch=1 n=b4 v=78
183900 On ch=1 n=b3 v=81
183902 On ch=1 n=e4 v=76
183906 On ch=1 n=g4 v=59
183940 On ch=1 n=b3 v=0
183952 On ch=1 n=g4 v=0
183962 On ch=1 n=b4 v=0
183978 On ch=1 n=e4 v=0
184004 On ch=1 n=b3 v=49
184088 On ch=1 n=b3 v=0
184124 Par ch=1 c=64 v=63
184132 Par ch=1 c=64 v=0
184136 On ch=1 n=a3 v=90
184140 On ch=1 n=e4 v=86
184144 On ch=1 n=a4 v=83
184160 On ch=1 n=c#4 v=76
184164 Par ch=1 c=64 v=63
184182 Par ch=1 c=64 v=127
184184 On ch=1 n=a3 v=0
184218 On ch=1 n=a4 v=0
184236 On ch=1 n=e4 v=0
184250 On ch=1 n=a3 v=54
184262 On ch=1 n=c#4 v=0
184288 On ch=1 n=a3 v=0
184362 Par ch=1 c=64 v=63
184372 Par ch=1 c=64 v=0
184424 On ch=1 n=d5 v=89
184430 On ch=1 n=b4 v=75
184436 On ch=1 n=g4 v=62
184438 Par ch=1 c=64 v=63
184452 Par ch=1 c=64 v=127
184526 On ch=1 n=d5 v=0
184572 On ch=1 n=d4 v=67
184634 On ch=1 n=g4 v=0
184638 On ch=1 n=d4 v=0
184656 On ch=1 n=b4 v=0
184702 On ch=1 n=d4 v=84
184746 On ch=1 n=d4 v=0
184802 On ch=1 n=c#3 v=96
184850 On ch=1 n=c#3 v=0
184920 On ch=1 n=b4 v=89
184920 On ch=1 n=g4 v=91
185000 On ch=1 n=g4 v=0
185006 On ch=1 n=d4 v=88
185014 On ch=1 n=b4 v=0
185062 On ch=1 n=d4 v=0
185120 Par ch=1 c=64 v=63
185146 On ch=1 n=e4 v=94
185154 On ch=1 n=b4 v=90
185158 On ch=1 n=e5 v=90
185170 Par ch=1 c=64 v=127
185178 On ch=1 n=g#4 v=67
185192 On ch=1 n=e4 v=0
185220 On ch=1 n=b4 v=0
185228 On ch=1 n=e5 v=0
185248 On ch=1 n=g#4 v=0
185260 On ch=1 n=e4 v=78
185336 On ch=1 n=e4 v=0
185346 Par ch=1 c=64 v=63
185358 Par ch=1 c=64 v=0
185396 On ch=1 n=c#4 v=101
185398 Par ch=1 c=64 v=63
185400 On ch=1 n=c#5 v=93
185406 On ch=1 n=e4 v=76
185410 On ch=1 n=a4 v=59
185418 Par ch=1 c=64 v=127
185446 On ch=1 n=c#4 v=0
185486 On ch=1 n=c#5 v=0
185506 On ch=1 n=c#4 v=65
185542 On ch=1 n=e4 v=0
185578 On ch=1 n=c#4 v=0
185584 On ch=1 n=a4 v=0
185618 Par ch=1 c=64 v=63
185634 Par ch=1 c=64 v=0
185644 On ch=1 n=b3 v=85
185652 On ch=1 n=b4 v=79
185656 Par ch=1 c=64 v=63
185656 On ch=1 n=g4 v=71
185666 On ch=1 n=e4 v=69
185684 Par ch=1 c=64 v=127
185690 On ch=1 n=b3 v=0
185722 On ch=1 n=b4 v=0
185730 On ch=1 n=g4 v=0
185750 On ch=1 n=e4 v=0
185764 On ch=1 n=b3 v=49
185858 On ch=1 n=b3 v=0
185870 Par ch=1 c=64 v=63
185884 Par ch=1 c=64 v=0
185902 On ch=1 n=a4 v=79
185906 On ch=1 n=e4 v=60
185922 On ch=1 n=c#4 v=70
185940 Par ch=1 c=64 v=63
185962 Par ch=1 c=64 v=127
186010 On ch=1 n=a4 v=0
186022 On ch=1 n=a3 v=54
186072 On ch=1 n=c#4 v=0
186072 On ch=1 n=e4 v=0
186078 On ch=1 n=a3 v=0
186156 On ch=1 n=a3 v=58
186258 On ch=1 n=c#3 v=63
186262 On ch=1 n=a3 v=0
186350 On ch=1 n=c#3 v=0
186444 Par ch=1 c=64 v=63
186456 Par ch=1 c=64 v=0
186482 On ch=1 n=g5 v=99
186492 On ch=1 n=e5 v=81
186494 On ch=1 n=b4 v=75
186538 Par ch=1 c=64 v=63
186550 Par ch=1 c=64 v=127
186642 On ch=1 n=g4 v=64
186690 On ch=1 n=b4 v=0
186718 On ch=1 n=g4 v=0
186724 On ch=1 n=e5 v=0
186780 On ch=1 n=g4 v=83
186790 On ch=1 n=e4 v=68
186814 On ch=1 n=g4 v=0
186820 On ch=1 n=e4 v=0
186898 On ch=1 n=c#3 v=110
186924 On ch=1 n=c#3 v=0
186928 On ch=1 n=g5 v=0
187028 On ch=1 n=b4 v=98
187030 On ch=1 n=e5 v=91
187102 On ch=1 n=b4 v=0
187108 On ch=1 n=g4 v=87
187124 On ch=1 n=e5 v=0
187164 On ch=1 n=g4 v=0
187252 On ch=1 n=a4 v=85
187252 On ch=1 n=a5 v=98
187256 On ch=1 n=e5 v=92
187258 Par ch=1 c=64 v=63
187260 On ch=1 n=e4 v=79
187272 On ch=1 n=c#5 v=93
187300 On ch=1 n=a4 v=0
187304 Par ch=1 c=64 v=127
187312 On ch=1 n=e4 v=0
187324 On ch=1 n=a5 v=0
187328 On ch=1 n=e5 v=0
187352 On ch=1 n=c#5 v=0
187364 On ch=1 n=a4 v=78
187432 On ch=1 n=a4 v=0
187510 On ch=1 n=f#5 v=112
187512 Par ch=1 c=64 v=63
187518 Par ch=1 c=64 v=0
187528 On ch=1 n=c#5 v=80
187532 On ch=1 n=a#4 v=75
187614 Par ch=1 c=64 v=63
187624 Par ch=1 c=64 v=127
187650 On ch=1 n=f#4 v=76
187672 On ch=1 n=c#5 v=0
187674 On ch=1 n=a#4 v=0
187710 On ch=1 n=f#4 v=0
187732 On ch=1 n=f#5 v=0
187764 On ch=1 n=f#4 v=93
187776 On ch=1 n=c#4 v=82
187808 On ch=1 n=f#4 v=0
187810 On ch=1 n=c#4 v=0
187878 On ch=1 n=c#3 v=101
187912 On ch=1 n=c#3 v=0
187994 On ch=1 n=e5 v=91
188000 On ch=1 n=b4 v=76
188006 On ch=1 n=b3 v=93
188008 On ch=1 n=e4 v=89
188008 On ch=1 n=g4 v=84
188040 On ch=1 n=e4 v=0
188040 On ch=1 n=b3 v=0
188060 On ch=1 n=e5 v=0
188064 On ch=1 n=b4 v=0
188068 On ch=1 n=g4 v=0
188118 On ch=1 n=e4 v=58
188172 On ch=1 n=e4 v=0
188234 Par ch=1 c=64 v=63
188242 Par ch=1 c=64 v=0
188246 On ch=1 n=c#5 v=104
188252 On ch=1 n=c#4 v=97
188254 On ch=1 n=a#3 v=92
188256 On ch=1 n=a#4 v=86
188262 On ch=1 n=f#4 v=87
188276 Par ch=1 c=64 v=63
188282 On ch=1 n=a#3 v=0
188284 On ch=1 n=c#4 v=0
188296 Par ch=1 c=64 v=127
188342 On ch=1 n=c#4 v=82
188352 On ch=1 n=c#5 v=0
188362 On ch=1 n=a#4 v=0
188364 On ch=1 n=f#4 v=0
188384 On ch=1 n=c#4 v=0
188442 Par ch=1 c=64 v=63
188444 On ch=1 n=d#5 v=70
188448 Par ch=1 c=64 v=0
188474 On ch=1 n=d#5 v=0
188534 On ch=1 n=g5 v=94
188538 On ch=1 n=e5 v=88
188544 On ch=1 n=b4 v=74
188562 Par ch=1 c=64 v=63
188568 Par ch=1 c=64 v=127
188646 On ch=1 n=g5 v=0
188672 On ch=1 n=g4 v=72
188698 On ch=1 n=b4 v=0
188734 On ch=1 n=g4 v=0
188744 On ch=1 n=e5 v=0
188766 On ch=1 n=g4 v=86
188776 On ch=1 n=e4 v=75
188806 On ch=1 n=g4 v=0
188808 On ch=1 n=e4 v=0
188888 On ch=1 n=c#3 v=107
188926 On ch=1 n=c#3 v=0
189000 On ch=1 n=e5 v=99
189002 On ch=1 n=b4 v=101
189054 On ch=1 n=b4 v=0
189078 On ch=1 n=g4 v=89
189086 On ch=1 n=e5 v=0
189136 On ch=1 n=g4 v=0
189216 On ch=1 n=a4 v=94
189218 On ch=1 n=a5 v=100
189220 On ch=1 n=e4 v=89
189222 On ch=1 n=e5 v=97
189242 On ch=1 n=c#5 v=85
189252 On ch=1 n=a4 v=0
189262 On ch=1 n=e4 v=0
189278 On ch=1 n=e5 v=0
189286 On ch=1 n=a5 v=0
189294 On ch=1 n=c#5 v=0
189330 On ch=1 n=a4 v=51
189380 On ch=1 n=a4 v=0
189454 Par ch=1 c=64 v=63
189460 Par ch=1 c=64 v=0
189472 On ch=1 n=f#5 v=110
189484 On ch=1 n=a#4 v=89
189484 On ch=1 n=c#5 v=88
189524 On ch=1 n=f#4 v=68
189524 On ch=1 n=c#4 v=66
189548 On ch=1 n=f#4 v=0
189552 On ch=1 n=c#4 v=0
189552 Par ch=1 c=64 v=63
189558 Par ch=1 c=64 v=127
189584 On ch=1 n=c#5 v=0
189584 On ch=1 n=f#5 v=0
189586 On ch=1 n=f#4 v=69
189610 On ch=1 n=a#4 v=0
189648 On ch=1 n=f#4 v=0
189712 On ch=1 n=b4 v=94
189714 On ch=1 n=e4 v=93
189716 On ch=1 n=e5 v=91
189720 On ch=1 n=b3 v=83
189766 On ch=1 n=e4 v=0
189770 On ch=1 n=b3 v=0
189812 On ch=1 n=b4 v=0
189824 On ch=1 n=e5 v=0
189830 On ch=1 n=g4 v=46
189880 On ch=1 n=g4 v=0
189996 On ch=1 n=c#5 v=103
190008 On ch=1 n=a#4 v=79
190020 On ch=1 n=f#4 v=70
190026 Par ch=1 c=64 v=63
190030 Par ch=1 c=64 v=0
190124 On ch=1 n=c#4 v=72
190140 Par ch=1 c=64 v=63
190146 Par ch=1 c=64 v=127
190194 On ch=1 n=c#4 v=0
190220 On ch=1 n=f#4 v=0
190242 On ch=1 n=a#4 v=0
190250 On ch=1 n=c#5 v=0
190252 On ch=1 n=c#4 v=70
190262 On ch=1 n=a#3 v=68
190312 On ch=1 n=c#4 v=0
190314 On ch=1 n=a#3 v=0
190352 On ch=1 n=c#3 v=89
190392 On ch=1 n=c#3 v=0
190490 Par ch=1 c=64 v=63
190496 Par ch=1 c=64 v=0
190552 On ch=1 n=a5 v=100
190560 On ch=1 n=f5 v=93
190562 On ch=1 n=d5 v=104
190628 Par ch=1 c=64 v=63
190630 Par ch=1 c=64 v=127
190714 On ch=1 n=a4 v=66
190762 On ch=1 n=a5 v=0
190808 On ch=1 n=d5 v=0
190816 On ch=1 n=a4 v=0
190856 On ch=1 n=f5 v=0
190868 On ch=1 n=b2 v=79
190868 On ch=1 n=b3 v=88
190894 On ch=1 n=b2 v=0
190910 On ch=1 n=b3 v=0
190986 On ch=1 n=a4 v=77
191050 On ch=1 n=a4 v=0
191114 On ch=1 n=f5 v=107
191116 On ch=1 n=d5 v=109
191200 On ch=1 n=a4 v=73
191204 On ch=1 n=d5 v=0
191214 On ch=1 n=f5 v=0
191254 On ch=1 n=a4 v=0
191302 Par ch=1 c=64 v=63
191306 Par ch=1 c=64 v=0
191346 On ch=1 n=b5 v=103
191350 On ch=1 n=b4 v=101
191350 On ch=1 n=f#5 v=104
191358 On ch=1 n=f#4 v=89
191358 On ch=1 n=d#5 v=104
191370 Par ch=1 c=64 v=63
191376 Par ch=1 c=64 v=127
191396 On ch=1 n=b4 v=0
191406 On ch=1 n=f#4 v=0
191422 On ch=1 n=b5 v=0
191440 On ch=1 n=f#5 v=0
191456 On ch=1 n=b4 v=63
191460 On ch=1 n=d#5 v=0
191530 On ch=1 n=b4 v=0
191618 Par ch=1 c=64 v=63
191624 Par ch=1 c=64 v=0
191626 On ch=1 n=g5 v=102
191632 On ch=1 n=g4 v=87
191634 On ch=1 n=e5 v=91
191634 On ch=1 n=b4 v=103
191636 On ch=1 n=d4 v=86
191660 Par ch=1 c=64 v=63
191674 Par ch=1 c=64 v=127
191676 On ch=1 n=d4 v=0
191678 On ch=1 n=g4 v=0
191682 On ch=1 n=e5 v=0
191768 On ch=1 n=g5 v=0
191778 On ch=1 n=g4 v=54
191802 On ch=1 n=b4 v=0
191852 On ch=1 n=g4 v=0
191906 On ch=1 n=b2 v=88
191916 On ch=1 n=b3 v=91
191930 On ch=1 n=b2 v=0
191950 On ch=1 n=b3 v=0
191998 On ch=1 n=g4 v=74
192068 On ch=1 n=g4 v=0
192152 On ch=1 n=d5 v=98
192154 On ch=1 n=f#5 v=106
192162 On ch=1 n=d4 v=97
192166 On ch=1 n=f#4 v=103
192166 Par ch=1 c=64 v=63
192176 Par ch=1 c=64 v=0
192188 Par ch=1 c=64 v=63
192204 On ch=1 n=f#4 v=0
192210 Par ch=1 c=64 v=127
192214 On ch=1 n=d4 v=0
192264 On ch=1 n=b4 v=74
192276 On ch=1 n=d5 v=0
192284 On ch=1 n=f#5 v=0
192318 Par ch=1 c=64 v=63
192326 Par ch=1 c=64 v=0
192342 On ch=1 n=b4 v=0
192386 Par ch=1 c=64 v=63
192398 On ch=1 n=e5 v=102
192398 On ch=1 n=e4 v=108
192400 Par ch=1 c=64 v=127
192400 On ch=1 n=b4 v=102
192402 On ch=1 n=b3 v=107
192452 On ch=1 n=e4 v=0
192464 On ch=1 n=b3 v=0
192472 On ch=1 n=g4 v=75
192478 On ch=1 n=b4 v=0
192488 On ch=1 n=e5 v=0
192522 On ch=1 n=g4 v=0
192644 Par ch=1 c=64 v=63
192650 Par ch=1 c=64 v=0
192682 On ch=1 n=d6 v=98
192686 On ch=1 n=f4 v=79
192686 On ch=1 n=d5 v=103
192690 On ch=1 n=a5 v=93
192690 On ch=1 n=a4 v=86
192698 On ch=1 n=f5 v=86
192716 Par ch=1 c=64 v=63
192724 On ch=1 n=a4 v=0
192726 On ch=1 n=d5 v=0
192726 Par ch=1 c=64 v=127
192748 On ch=1 n=f4 v=0
192782 On ch=1 n=d6 v=0
192834 On ch=1 n=d5 v=74
192868 On ch=1 n=f5 v=0
192888 On ch=1 n=a5 v=0
192906 On ch=1 n=d5 v=0
192952 On ch=1 n=b2 v=83
192962 On ch=1 n=b3 v=100
192988 On ch=1 n=b2 v=0
193002 On ch=1 n=b3 v=0
193070 On ch=1 n=d5 v=79
193132 On ch=1 n=d5 v=0
193194 On ch=1 n=a5 v=98
193202 On ch=1 n=f5 v=100
193272 On ch=1 n=d5 v=98
193284 On ch=1 n=f5 v=0
193284 On ch=1 n=a5 v=0
193328 On ch=1 n=d5 v=0
193382 Par ch=1 c=64 v=63
193388 Par ch=1 c=64 v=0
193418 On ch=1 n=e6 v=97
193420 On ch=1 n=g#4 v=105
193422 On ch=1 n=e5 v=107
193422 On ch=1 n=b5 v=96
193422 On ch=1 n=b4 v=100
193430 Par ch=1 c=64 v=63
193436 On ch=1 n=g#5 v=96
193448 Par ch=1 c=64 v=127
193466 On ch=1 n=e5 v=0
193468 On ch=1 n=b4 v=0
193476 On ch=1 n=b5 v=0
193484 On ch=1 n=g#4 v=0
193488 On ch=1 n=e6 v=0
193506 On ch=1 n=g#5 v=0
193524 On ch=1 n=e5 v=55
193590 On ch=1 n=e5 v=0
193600 On ch=1 n=g#5 v=32
193628 On ch=1 n=g#5 v=0
193628 Par ch=1 c=64 v=63
193634 Par ch=1 c=64 v=0
193660 On ch=1 n=c5 v=114
193660 On ch=1 n=e4 v=108
193662 On ch=1 n=g4 v=100
193664 On ch=1 n=c6 v=113
193668 On ch=1 n=g5 v=101
193672 On ch=1 n=e5 v=104
193676 Par ch=1 c=64 v=63
193690 Par ch=1 c=64 v=127
193692 On ch=1 n=g4 v=0
193698 On ch=1 n=c5 v=0
193720 On ch=1 n=e4 v=0
193814 On ch=1 n=c5 v=39
193832 On ch=1 n=c6 v=0
193854 On ch=1 n=g5 v=0
193858 On ch=1 n=e5 v=0
193886 On ch=1 n=c5 v=0
193912 On ch=1 n=b2 v=99
193918 On ch=1 n=b3 v=99
193956 On ch=1 n=b2 v=0
193968 On ch=1 n=b3 v=0
194020 On ch=1 n=c5 v=78
194084 On ch=1 n=c5 v=0
194146 On ch=1 n=b5 v=103
194146 Par ch=1 c=64 v=63
194148 On ch=1 n=b4 v=103
194148 On ch=1 n=d4 v=97
194152 On ch=1 n=f#4 v=99
194152 On ch=1 n=f#5 v=96
194156 On ch=1 n=d5 v=92
194178 Par ch=1 c=64 v=127
194192 On ch=1 n=b4 v=0
194196 On ch=1 n=f#4 v=0
194206 On ch=1 n=d5 v=0
194208 On ch=1 n=d4 v=0
194252 On ch=1 n=d5 v=71
194258 On ch=1 n=b5 v=0
194260 On ch=1 n=f#5 v=0
194322 On ch=1 n=d5 v=0
194378 On ch=1 n=c4 v=102
194378 On ch=1 n=e4 v=102
194382 On ch=1 n=a5 v=97
194382 On ch=1 n=e5 v=94
194388 On ch=1 n=c5 v=104
194392 Par ch=1 c=64 v=63
194398 Par ch=1 c=64 v=127
194424 On ch=1 n=e4 v=0
194440 On ch=1 n=c4 v=0
194452 On ch=1 n=a5 v=0
194478 On ch=1 n=a4 v=86
194492 On ch=1 n=e5 v=0
194498 On ch=1 n=c5 v=0
194524 On ch=1 n=a4 v=0
194624 Par ch=1 c=64 v=63
194630 Par ch=1 c=64 v=0
194678 On ch=1 n=f6 v=107
194680 On ch=1 n=f5 v=106
194680 On ch=1 n=a4 v=90
194680 On ch=1 n=d5 v=102
194684 On ch=1 n=d6 v=98
194688 On ch=1 n=a5 v=101
194708 Par ch=1 c=64 v=63
194714 Par ch=1 c=64 v=127
194718 On ch=1 n=f5 v=0
194720 On ch=1 n=d5 v=0
194738 On ch=1 n=a4 v=0
194774 On ch=1 n=f6 v=0
194836 On ch=1 n=f5 v=84
194882 On ch=1 n=a5 v=0
194914 On ch=1 n=f5 v=0
194920 On ch=1 n=d6 v=0
194948 On ch=1 n=b2 v=83
194956 On ch=1 n=b3 v=109
194986 On ch=1 n=b2 v=0
195000 On ch=1 n=b3 v=0
195064 On ch=1 n=f5 v=74
195110 On ch=1 n=f5 v=0
195176 On ch=1 n=d6 v=111
195184 On ch=1 n=a5 v=104
195254 On ch=1 n=f5 v=91
195270 On ch=1 n=a5 v=0
195274 On ch=1 n=d6 v=0
195312 On ch=1 n=f5 v=0
195380 Par ch=1 c=64 v=63
195390 Par ch=1 c=64 v=0
195404 On ch=1 n=b4 v=98
195406 On ch=1 n=g5 v=103
195406 On ch=1 n=d5 v=102
195410 Par ch=1 c=64 v=63
195410 On ch=1 n=g6 v=99
195412 On ch=1 n=d6 v=98
195420 On ch=1 n=b5 v=98
195432 Par ch=1 c=64 v=127
195448 On ch=1 n=g5 v=0
195450 On ch=1 n=d5 v=0
195464 On ch=1 n=b4 v=0
195474 On ch=1 n=g6 v=0
195480 On ch=1 n=d6 v=0
195498 On ch=1 n=b5 v=0
195510 On ch=1 n=g5 v=72
195574 On ch=1 n=g5 v=0
195586 Par ch=1 c=64 v=63
195598 Par ch=1 c=64 v=0
195628 Par ch=1 c=64 v=63
195642 On ch=1 n=b4 v=109
195644 On ch=1 n=g#4 v=109
195644 On ch=1 n=e5 v=106
195650 On ch=1 n=b5 v=94
195650 On ch=1 n=e6 v=88
195652 Par ch=1 c=64 v=127
195656 On ch=1 n=g#5 v=101
195684 On ch=1 n=e5 v=0
195686 On ch=1 n=b4 v=0
195706 On ch=1 n=g#4 v=0
195708 On ch=1 n=e6 v=0
195716 On ch=1 n=b5 v=0
195746 On ch=1 n=g#5 v=0
195746 On ch=1 n=e5 v=77
195814 On ch=1 n=e5 v=0
195828 Par ch=1 c=64 v=63
195838 Par ch=1 c=64 v=0
195870 Par ch=1 c=64 v=63
195880 On ch=1 n=f4 v=109
195882 On ch=1 n=a5 v=94
195882 On ch=1 n=d6 v=96
195882 On ch=1 n=d5 v=116
195882 On ch=1 n=a4 v=107
195888 On ch=1 n=f5 v=96
195892 Par ch=1 c=64 v=127
195922 On ch=1 n=d5 v=0
195928 On ch=1 n=a4 v=0
195944 On ch=1 n=d6 v=0
195946 On ch=1 n=f4 v=0
195948 On ch=1 n=a5 v=0
195980 On ch=1 n=f5 v=0
195982 On ch=1 n=d5 v=76
196040 Par ch=1 c=64 v=63
196044 Par ch=1 c=64 v=0
196050 On ch=1 n=d5 v=0
196112 On ch=1 n=c6 v=103
196114 On ch=1 n=e4 v=114
196114 On ch=1 n=c5 v=117
196116 On ch=1 n=g5 v=97
196118 Par ch=1 c=64 v=63
196118 On ch=1 n=g4 v=101
196120 On ch=1 n=e5 v=91
196124 Par ch=1 c=64 v=127
196142 On ch=1 n=g4 v=0
196150 On ch=1 n=c5 v=0
196168 On ch=1 n=e4 v=0
196184 On ch=1 n=c6 v=0
196238 On ch=1 n=c5 v=75
196306 On ch=1 n=g5 v=0
196310 On ch=1 n=e5 v=0
196328 On ch=1 n=c5 v=0
196362 On ch=1 n=b2 v=89
196368 On ch=1 n=b3 v=112
196398 On ch=1 n=b2 v=0
196414 On ch=1 n=b3 v=0
196480 On ch=1 n=c5 v=94
196524 On ch=1 n=c5 v=0
196604 On ch=1 n=a6 v=116
196608 On ch=1 n=f6 v=106
196612 On ch=1 n=d6 v=112
196642 Par ch=1 c=64 v=127
196730 Par ch=1 c=64 v=63
196734 Par ch=1 c=64 v=0
196746 On ch=1 n=a5 v=85
196780 Par ch=1 c=64 v=63
196786 Par ch=1 c=64 v=127
196856 On ch=1 n=a5 v=0
196870 On ch=1 n=a6 v=0
196880 On ch=1 n=f6 v=0
196884 On ch=1 n=a5 v=103
196888 On ch=1 n=f5 v=89
196890 On ch=1 n=d6 v=0
196900 On ch=1 n=d5 v=84
196948 On ch=1 n=a5 v=0
196982 On ch=1 n=a4 v=83
196992 On ch=1 n=f5 v=0
197002 On ch=1 n=d5 v=0
197050 On ch=1 n=a4 v=0
197090 Par ch=1 c=64 v=63
197090 Par ch=1 c=64 v=0
197114 On ch=1 n=e6 v=113
197116 On ch=1 n=a5 v=109
197118 On ch=1 n=c6 v=100
197164 Par ch=1 c=64 v=63
197168 Par ch=1 c=64 v=127
197218 On ch=1 n=e5 v=85
197248 On ch=1 n=e6 v=0
197284 On ch=1 n=e5 v=0
197284 On ch=1 n=a5 v=0
197312 On ch=1 n=c6 v=0
197348 On ch=1 n=e5 v=108
197348 On ch=1 n=c5 v=98
197358 On ch=1 n=a4 v=74
197438 On ch=1 n=f4 v=104
197504 On ch=1 n=a4 v=0
197520 Par ch=1 c=64 v=63
197522 Par ch=1 c=64 v=0
197546 On ch=1 n=c5 v=0
197558 On ch=1 n=e5 v=0
197570 On ch=1 n=f4 v=0
197578 On ch=1 n=b6 v=117
197580 On ch=1 n=f#6 v=116
197582 On ch=1 n=d#6 v=120
197606 Par ch=1 c=64 v=63
197610 Par ch=1 c=64 v=127
197702 On ch=1 n=b6 v=0
197712 On ch=1 n=b5 v=77
197736 On ch=1 n=f#6 v=0
197750 On ch=1 n=d#6 v=0
197756 On ch=1 n=b5 v=0
197838 On ch=1 n=b5 v=107
197846 On ch=1 n=f#5 v=95
197852 On ch=1 n=d#5 v=88
197914 On ch=1 n=b5 v=0
197916 On ch=1 n=f#5 v=0
197942 On ch=1 n=b4 v=106
197956 On ch=1 n=d#5 v=0
197996 On ch=1 n=b4 v=0
198056 On ch=1 n=b5 v=107
198060 On ch=1 n=f#5 v=98
198064 On ch=1 n=d#5 v=109
198168 On ch=1 n=b5 v=0
198170 On ch=1 n=b4 v=86
198212 On ch=1 n=f#5 v=0
198228 On ch=1 n=b4 v=0
198228 On ch=1 n=d#5 v=0
198308 On ch=1 n=b3 v=114
198448 On ch=1 n=b2 v=121
198532 Par ch=1 c=64 v=63
198536 Par ch=1 c=64 v=0
198610 On ch=1 n=b2 v=0
198616 On ch=1 n=b3 v=0
198644 On ch=1 n=c7 v=106
198646 On ch=1 n=e6 v=104
198648 On ch=1 n=c6 v=104
198662 Par ch=1 c=64 v=127
198726 On ch=1 n=e6 v=0
198738 On ch=1 n=c7 v=0
198752 On ch=1 n=c6 v=0
198852 On ch=1 n=e5 v=101
198856 On ch=1 n=b5 v=100
198858 On ch=1 n=a#5 v=104
198894 On ch=1 n=e5 v=0
198902 On ch=1 n=a#5 v=0
198902 On ch=1 n=b5 v=0
199006 On ch=1 n=g5 v=103
199008 On ch=1 n=g6 v=85
199012 On ch=1 n=e6 v=92
199056 On ch=1 n=g5 v=0
199070 On ch=1 n=e6 v=0
199092 On ch=1 n=g6 v=0
199136 On ch=1 n=b4 v=101
199144 On ch=1 n=a5 v=108
199146 On ch=1 n=c5 v=99
199146 On ch=1 n=e5 v=102
199192 On ch=1 n=e5 v=0
199194 On ch=1 n=c5 v=0
199196 On ch=1 n=b4 v=0
199206 On ch=1 n=a5 v=0
199262 On ch=1 n=e6 v=102
199266 On ch=1 n=c6 v=99
199266 On ch=1 n=c7 v=80
199318 On ch=1 n=c7 v=0
199318 On ch=1 n=c6 v=0
199318 On ch=1 n=e6 v=0
199382 On ch=1 n=b5 v=101
199382 On ch=1 n=a#5 v=108
199394 On ch=1 n=e5 v=74
199424 On ch=1 n=e5 v=0
199430 On ch=1 n=a#5 v=0
199430 On ch=1 n=b5 v=0
199498 On ch=1 n=g5 v=103
199504 On ch=1 n=g6 v=69
199510 On ch=1 n=e6 v=70
199510 On ch=1 n=f6 v=86
199522 On ch=1 n=d6 v=65
199548 On ch=1 n=f6 v=0
199550 On ch=1 n=g5 v=0
199554 On ch=1 n=d6 v=0
199558 On ch=1 n=e6 v=0
199580 On ch=1 n=g6 v=0
199614 On ch=1 n=b4 v=100
199616 On ch=1 n=a5 v=109
199616 On ch=1 n=c5 v=103
199616 On ch=1 n=e5 v=103
199686 On ch=1 n=e5 v=0
199704 On ch=1 n=a5 v=0
199710 On ch=1 n=c5 v=0
199720 On ch=1 n=b4 v=0
199720 Par ch=1 c=64 v=63
199722 Par ch=1 c=64 v=0
199770 On ch=1 n=b6 v=116
199774 On ch=1 n=f#6 v=113
199778 On ch=1 n=d#6 v=120
199818 Par ch=1 c=64 v=63
199820 Par ch=1 c=64 v=127
199892 On ch=1 n=b6 v=0
199912 On ch=1 n=b5 v=91
199938 On ch=1 n=f#6 v=0
199946 On ch=1 n=d#6 v=0
199948 On ch=1 n=b5 v=0
200020 On ch=1 n=b5 v=108
200020 On ch=1 n=f#5 v=101
200028 On ch=1 n=d#5 v=92
200080 On ch=1 n=b5 v=0
200084 On ch=1 n=f#5 v=0
200110 On ch=1 n=b4 v=107
200114 On ch=1 n=d#5 v=0
200166 On ch=1 n=b4 v=0
200238 On ch=1 n=b5 v=111
200246 On ch=1 n=f#5 v=106
200248 On ch=1 n=d#5 v=108
200310 On ch=1 n=b5 v=0
200344 On ch=1 n=b4 v=100
200348 On ch=1 n=f#5 v=0
200372 On ch=1 n=d#5 v=0
200396 On ch=1 n=b4 v=0
200464 On ch=1 n=b3 v=116
200568 On ch=1 n=b2 v=121
200622 On ch=1 n=b3 v=0
200622 Par ch=1 c=64 v=63
200624 Par ch=1 c=64 v=0
200648 On ch=1 n=b2 v=0
200732 On ch=1 n=c7 v=103
200732 On ch=1 n=e6 v=107
200736 On ch=1 n=c6 v=93
200738 Par ch=1 c=64 v=63
200740 Par ch=1 c=64 v=127
200782 On ch=1 n=c6 v=0
200786 On ch=1 n=e6 v=0
200802 On ch=1 n=c7 v=0
200908 On ch=1 n=b5 v=104
200912 On ch=1 n=a#5 v=101
200914 On ch=1 n=e5 v=92
200950 On ch=1 n=e5 v=0
200952 On ch=1 n=a#5 v=0
200954 On ch=1 n=b5 v=0
201038 On ch=1 n=g5 v=98
201038 On ch=1 n=g6 v=97
201044 On ch=1 n=e6 v=93
201086 On ch=1 n=g5 v=0
201098 On ch=1 n=e6 v=0
201116 On ch=1 n=g6 v=0
201160 On ch=1 n=b4 v=99
201168 On ch=1 n=a5 v=108
201168 On ch=1 n=c5 v=98
201170 On ch=1 n=e5 v=99
201212 On ch=1 n=e5 v=0
201216 On ch=1 n=c5 v=0
201220 On ch=1 n=a5 v=0
201226 On ch=1 n=b4 v=0
201284 On ch=1 n=c7 v=104
201286 On ch=1 n=e6 v=103
201286 On ch=1 n=c6 v=98
201336 On ch=1 n=e6 v=0
201342 On ch=1 n=c7 v=0
201344 On ch=1 n=c6 v=0
201398 On ch=1 n=b5 v=99
201400 On ch=1 n=a#5 v=106
201410 On ch=1 n=e5 v=71
201438 On ch=1 n=e5 v=0
201438 On ch=1 n=b5 v=0
201444 On ch=1 n=a#5 v=0
201520 On ch=1 n=g5 v=101
201520 On ch=1 n=g6 v=87
201526 On ch=1 n=e6 v=92
201538 On ch=1 n=f6 v=65
201566 On ch=1 n=g5 v=0
201568 On ch=1 n=e6 v=0
201572 On ch=1 n=f6 v=0
201598 On ch=1 n=g6 v=0
201632 On ch=1 n=b4 v=102
201636 On ch=1 n=a5 v=112
201636 On ch=1 n=c5 v=102
201638 On ch=1 n=e5 v=101
201702 On ch=1 n=e5 v=0
201714 Par ch=1 c=64 v=63
201718 On ch=1 n=a5 v=0
201720 Par ch=1 c=64 v=0
201722 On ch=1 n=c5 v=0
201736 On ch=1 n=b4 v=0
201784 On ch=1 n=b6 v=113
201786 On ch=1 n=f#6 v=114
201790 On ch=1 n=d#6 v=118
201802 Par ch=1 c=64 v=63
201804 Par ch=1 c=64 v=127
201882 On ch=1 n=b6 v=0
201918 On ch=1 n=b5 v=87
201940 On ch=1 n=f#6 v=0
201948 On ch=1 n=d#6 v=0
201952 On ch=1 n=b5 v=0
202022 On ch=1 n=f#5 v=106
202022 On ch=1 n=b5 v=111
202026 On ch=1 n=d#5 v=97
202074 On ch=1 n=b5 v=0
202076 On ch=1 n=f#5 v=0
202098 On ch=1 n=d#5 v=0
202114 On ch=1 n=b4 v=96
202158 On ch=1 n=b4 v=0
202240 On ch=1 n=b5 v=107
202246 On ch=1 n=f#5 v=103
202248 On ch=1 n=d#5 v=110
202302 On ch=1 n=b5 v=0
202334 On ch=1 n=b4 v=90
202336 On ch=1 n=f#5 v=0
202368 On ch=1 n=d#5 v=0
202384 On ch=1 n=b4 v=0
202470 On ch=1 n=b3 v=116
202578 On ch=1 n=b2 v=118
202640 Par ch=1 c=64 v=63
202642 Par ch=1 c=64 v=0
202672 On ch=1 n=b2 v=0
202682 On ch=1 n=b3 v=0
202758 Par ch=1 c=64 v=127
202768 On ch=1 n=c7 v=106
202770 On ch=1 n=e6 v=102
202770 On ch=1 n=c6 v=99
202818 On ch=1 n=c6 v=0
202826 On ch=1 n=e6 v=0
202832 On ch=1 n=c7 v=0
202954 On ch=1 n=b5 v=97
202958 On ch=1 n=e5 v=88
202958 On ch=1 n=a#5 v=96
202990 On ch=1 n=a#5 v=0
202994 On ch=1 n=b5 v=0
202998 On ch=1 n=e5 v=0
203104 On ch=1 n=g5 v=92
203106 On ch=1 n=g6 v=92
203112 On ch=1 n=e6 v=84
203152 On ch=1 n=g5 v=0
203162 On ch=1 n=e6 v=0
203178 On ch=1 n=g6 v=0
203236 On ch=1 n=b4 v=96
203248 On ch=1 n=a5 v=93
203248 On ch=1 n=c5 v=91
203250 On ch=1 n=e5 v=90
203278 On ch=1 n=e5 v=0
203282 On ch=1 n=c5 v=0
203288 On ch=1 n=a5 v=0
203290 On ch=1 n=b4 v=0
203376 On ch=1 n=c7 v=101
203380 On ch=1 n=e6 v=99
203382 On ch=1 n=c6 v=91
203424 On ch=1 n=c7 v=0
203430 On ch=1 n=e6 v=0
203438 On ch=1 n=c6 v=0
203504 On ch=1 n=b5 v=101
203506 On ch=1 n=a#5 v=104
203516 On ch=1 n=e5 v=71
203542 On ch=1 n=b5 v=0
203544 On ch=1 n=e5 v=0
203548 On ch=1 n=a#5 v=0
203618 On ch=1 n=g5 v=92
203620 On ch=1 n=g6 v=90
203626 On ch=1 n=e6 v=89
203664 On ch=1 n=g5 v=0
203678 On ch=1 n=e6 v=0
203698 On ch=1 n=g6 v=0
203738 On ch=1 n=b4 v=101
203742 On ch=1 n=a5 v=113
203744 On ch=1 n=c5 v=102
203746 On ch=1 n=e5 v=97
203780 On ch=1 n=e5 v=0
203786 On ch=1 n=b4 v=0
203790 On ch=1 n=c5 v=0
203790 On ch=1 n=a5 v=0
203860 On ch=1 n=c7 v=98
203860 On ch=1 n=e6 v=101
203862 On ch=1 n=c6 v=94
203912 On ch=1 n=e6 v=0
203914 On ch=1 n=c7 v=0
203916 On ch=1 n=c6 v=0
203982 On ch=1 n=b5 v=108
203984 On ch=1 n=a#5 v=109
203992 On ch=1 n=e5 v=90
204020 On ch=1 n=e5 v=0
204024 On ch=1 n=b5 v=0
204030 On ch=1 n=a#5 v=0
204098 On ch=1 n=g5 v=100
204102 On ch=1 n=g6 v=83
204106 On ch=1 n=e6 v=96
204148 On ch=1 n=g5 v=0
204154 On ch=1 n=e6 v=0
204172 On ch=1 n=g6 v=0
204220 On ch=1 n=b4 v=107
204222 On ch=1 n=a5 v=120
204222 On ch=1 n=c5 v=107
204226 On ch=1 n=e5 v=106
204266 On ch=1 n=e5 v=0
204272 On ch=1 n=a5 v=0
204274 On ch=1 n=b4 v=0
204278 On ch=1 n=c5 v=0
204336 On ch=1 n=e6 v=100
204336 On ch=1 n=c7 v=88
204336 On ch=1 n=c6 v=98
204390 On ch=1 n=c7 v=0
204390 On ch=1 n=e6 v=0
204404 On ch=1 n=c6 v=0
204456 On ch=1 n=b5 v=118
204458 On ch=1 n=a#5 v=115
204462 On ch=1 n=e5 v=106
204496 On ch=1 n=e5 v=0
204500 On ch=1 n=b5 v=0
204504 On ch=1 n=a#5 v=0
204572 On ch=1 n=g5 v=97
204574 On ch=1 n=g6 v=94
204580 On ch=1 n=e6 v=98
204620 On ch=1 n=g5 v=0
204630 On ch=1 n=e6 v=0
204648 On ch=1 n=g6 v=0
204692 On ch=1 n=b4 v=108
204694 On ch=1 n=a5 v=116
204738 On ch=1 n=a5 v=0
204746 On ch=1 n=b4 v=0
204806 On ch=1 n=b6 v=108
204810 On ch=1 n=b5 v=118
204810 On ch=1 n=f#6 v=115
204812 On ch=1 n=d#6 v=115
204856 Par ch=1 c=64 v=127
204926 On ch=1 n=b5 v=0
204926 On ch=1 n=b6 v=0
204944 On ch=1 n=d#6 v=0
204954 On ch=1 n=f#6 v=0
204986 On ch=1 n=b4 v=71
204998 On ch=1 n=f#5 v=106
204998 On ch=1 n=b5 v=112
205000 On ch=1 n=d#5 v=104
205034 On ch=1 n=f#5 v=0
205038 On ch=1 n=d#5 v=0
205038 On ch=1 n=b5 v=0
205068 On ch=1 n=b4 v=0
205154 On ch=1 n=d#5 v=114
205156 On ch=1 n=f#5 v=114
205192 On ch=1 n=d#5 v=0
205210 On ch=1 n=f#5 v=0
205252 On ch=1 n=b3 v=82
205260 On ch=1 n=b4 v=106
205302 On ch=1 n=b3 v=0
205310 On ch=1 n=b4 v=0
205376 Par ch=1 c=64 v=63
205382 Par ch=1 c=64 v=0
205392 On ch=1 n=b6 v=100
205392 On ch=1 n=f#6 v=99
205394 On ch=1 n=b5 v=102
205394 On ch=1 n=d#6 v=103
205408 Par ch=1 c=64 v=63
205420 Par ch=1 c=64 v=127
205444 On ch=1 n=b5 v=0
205446 On ch=1 n=d#6 v=0
205456 On ch=1 n=f#6 v=0
205470 On ch=1 n=b6 v=0
205520 On ch=1 n=b5 v=94
205522 On ch=1 n=f#5 v=90
205524 On ch=1 n=b4 v=62
205524 On ch=1 n=d#5 v=92
205538 Par ch=1 c=64 v=63
205548 Par ch=1 c=64 v=0
205562 On ch=1 n=f#5 v=0
205568 On ch=1 n=b5 v=0
205570 On ch=1 n=d#5 v=0
205572 On ch=1 n=b4 v=0
205638 On ch=1 n=c7 v=104
205640 On ch=1 n=g6 v=106
205640 On ch=1 n=c6 v=106
205658 Par ch=1 c=64 v=63
205662 Par ch=1 c=64 v=127
205702 On ch=1 n=g6 v=0
205704 On ch=1 n=c7 v=0
205708 On ch=1 n=c6 v=0
205752 On ch=1 n=c6 v=108
205752 On ch=1 n=d#5 v=98
205754 On ch=1 n=g5 v=90
205758 On ch=1 n=c#5 v=90
205774 Par ch=1 c=64 v=63
205776 Par ch=1 c=64 v=0
205800 On ch=1 n=g5 v=0
205800 On ch=1 n=c6 v=0
205826 On ch=1 n=c#5 v=0
205828 On ch=1 n=d#5 v=0
205884 On ch=1 n=b6 v=108
205888 On ch=1 n=f#6 v=114
205890 On ch=1 n=b5 v=111
205890 On ch=1 n=d#6 v=112
205894 Par ch=1 c=64 v=127
205952 On ch=1 n=b5 v=0
205962 On ch=1 n=b6 v=0
205966 On ch=1 n=d#6 v=0
205976 On ch=1 n=f#6 v=0
206048 On ch=1 n=b5 v=104
206050 On ch=1 n=d#5 v=95
206050 On ch=1 n=f#5 v=97
206052 On ch=1 n=b4 v=70
206066 On ch=1 n=b5 v=0
206086 On ch=1 n=f#5 v=0
206088 On ch=1 n=d#5 v=0
206114 On ch=1 n=b4 v=0
206186 On ch=1 n=f#5 v=115
206190 On ch=1 n=d#5 v=108
206220 On ch=1 n=d#5 v=0
206236 On ch=1 n=f#5 v=0
206290 On ch=1 n=b3 v=87
206296 On ch=1 n=b4 v=104
206342 On ch=1 n=b3 v=0
206346 On ch=1 n=b4 v=0
206422 On ch=1 n=f#6 v=104
206422 On ch=1 n=b6 v=103
206424 On ch=1 n=b5 v=107
206426 On ch=1 n=d#6 v=103
206466 On ch=1 n=d#6 v=0
206466 On ch=1 n=b5 v=0
206474 On ch=1 n=f#6 v=0
206492 On ch=1 n=b6 v=0
206516 Par ch=1 c=64 v=63
206522 Par ch=1 c=64 v=0
206542 On ch=1 n=b5 v=109
206542 On ch=1 n=b4 v=88
206546 On ch=1 n=d#5 v=99
206548 On ch=1 n=f#5 v=96
206594 On ch=1 n=f#5 v=0
206600 On ch=1 n=b4 v=0
206602 On ch=1 n=b5 v=0
206612 On ch=1 n=d#5 v=0
206614 Par ch=1 c=64 v=63
206622 Par ch=1 c=64 v=127
206658 On ch=1 n=c7 v=104
206660 On ch=1 n=g6 v=106
206660 On ch=1 n=c6 v=104
206700 On ch=1 n=g#5 v=53
206716 On ch=1 n=g6 v=0
206720 On ch=1 n=c7 v=0
206722 On ch=1 n=c6 v=0
206728 On ch=1 n=g#5 v=0
206766 Par ch=1 c=64 v=63
206768 On ch=1 n=c6 v=106
206768 On ch=1 n=d#5 v=96
206770 On ch=1 n=g5 v=93
206772 Par ch=1 c=64 v=0
206776 On ch=1 n=c#5 v=85
206814 On ch=1 n=c6 v=0
206818 On ch=1 n=g5 v=0
206838 On ch=1 n=d#5 v=0
206844 On ch=1 n=c#5 v=0
206850 Par ch=1 c=64 v=63
206856 Par ch=1 c=64 v=127
206884 On ch=1 n=b6 v=107
206888 On ch=1 n=b5 v=108
206888 On ch=1 n=f#6 v=112
206890 On ch=1 n=d#6 v=112
206934 On ch=1 n=b5 v=0
206942 On ch=1 n=b6 v=0
206948 On ch=1 n=d#6 v=0
206950 On ch=1 n=f#6 v=0
207016 On ch=1 n=b4 v=87
207018 On ch=1 n=b5 v=111
207020 On ch=1 n=f#5 v=98
207022 On ch=1 n=d#5 v=96
207052 On ch=1 n=f#5 v=0
207058 On ch=1 n=b5 v=0
207066 On ch=1 n=d#5 v=0
207082 On ch=1 n=b4 v=0
207158 On ch=1 n=f#5 v=116
207164 On ch=1 n=d#5 v=107
207184 On ch=1 n=d#5 v=0
207202 On ch=1 n=f#5 v=0
207278 On ch=1 n=b3 v=80
207282 On ch=1 n=b4 v=107
207324 On ch=1 n=b3 v=0
207332 On ch=1 n=b4 v=0
207424 On ch=1 n=f#6 v=105
207424 On ch=1 n=b6 v=103
207426 On ch=1 n=b5 v=104
207430 On ch=1 n=d#6 v=104
207438 Par ch=1 c=64 v=63
207442 Par ch=1 c=64 v=0
207484 Par ch=1 c=64 v=63
207492 On ch=1 n=b5 v=0
207498 Par ch=1 c=64 v=127
207502 On ch=1 n=d#6 v=0
207508 On ch=1 n=f#6 v=0
207518 On ch=1 n=b6 v=0
207556 On ch=1 n=b4 v=86
207558 On ch=1 n=b5 v=103
207564 On ch=1 n=d#5 v=97
207564 On ch=1 n=f#5 v=92
207592 On ch=1 n=f#5 v=0
207610 On ch=1 n=b5 v=0
207616 On ch=1 n=b4 v=0
207618 On ch=1 n=d#5 v=0
207676 On ch=1 n=c7 v=103
207680 On ch=1 n=g6 v=102
207680 On ch=1 n=c6 v=90
207738 On ch=1 n=g6 v=0
207742 On ch=1 n=c6 v=0
207744 On ch=1 n=c7 v=0
207798 On ch=1 n=d#5 v=98
207798 On ch=1 n=g5 v=92
207798 On ch=1 n=c6 v=109
207800 On ch=1 n=c#5 v=96
207848 On ch=1 n=c6 v=0
207852 On ch=1 n=g5 v=0
207876 On ch=1 n=c#5 v=0
207878 On ch=1 n=d#5 v=0
207896 Par ch=1 c=64 v=63
207906 Par ch=1 c=64 v=0
207918 Par ch=1 c=64 v=63
207920 On ch=1 n=b6 v=106
207924 On ch=1 n=f#6 v=108
207924 On ch=1 n=b5 v=106
207926 On ch=1 n=d#6 v=107
207938 Par ch=1 c=64 v=127
207990 On ch=1 n=b5 v=0
208002 On ch=1 n=d#6 v=0
208004 On ch=1 n=f#6 v=0
208012 On ch=1 n=b6 v=0
208042 On ch=1 n=b4 v=79
208044 On ch=1 n=f#5 v=96
208046 On ch=1 n=d#5 v=90
208046 On ch=1 n=b5 v=100
208056 On ch=1 n=c#5 v=88
208080 On ch=1 n=c#5 v=0
208080 On ch=1 n=b4 v=0
208088 On ch=1 n=f#5 v=0
208090 On ch=1 n=b5 v=0
208096 On ch=1 n=d#5 v=0
208166 On ch=1 n=c7 v=106
208166 On ch=1 n=g6 v=106
208170 On ch=1 n=c6 v=102
208242 On ch=1 n=c7 v=0
208244 On ch=1 n=c6 v=0
208244 On ch=1 n=g6 v=0
208288 On ch=1 n=c6 v=111
208290 On ch=1 n=d#5 v=92
208294 On ch=1 n=g5 v=91
208298 On ch=1 n=c#5 v=96
208354 On ch=1 n=c6 v=0
208362 On ch=1 n=g5 v=0
208382 On ch=1 n=c#5 v=0
208382 Par ch=1 c=64 v=63
208386 On ch=1 n=d#5 v=0
208390 Par ch=1 c=64 v=0
208412 Par ch=1 c=64 v=63
208424 On ch=1 n=b6 v=104
208426 On ch=1 n=f#6 v=109
208428 On ch=1 n=b5 v=101
208430 On ch=1 n=d#6 v=105
208432 Par ch=1 c=64 v=127
208480 On ch=1 n=b5 v=0
208490 On ch=1 n=d#6 v=0
208504 On ch=1 n=f#6 v=0
208506 On ch=1 n=b6 v=0
208560 On ch=1 n=b4 v=78
208562 On ch=1 n=b5 v=103
208564 On ch=1 n=c#5 v=98
208564 On ch=1 n=f#5 v=97
208566 On ch=1 n=a#4 v=73
208590 On ch=1 n=a#4 v=0
208594 On ch=1 n=b4 v=0
208596 On ch=1 n=f#5 v=0
208604 On ch=1 n=c#5 v=0
208610 On ch=1 n=b5 v=0
208728 On ch=1 n=d7 v=108
208730 On ch=1 n=a6 v=107
208730 On ch=1 n=f6 v=109
208730 Par ch=1 c=64 v=63
208732 On ch=1 n=d6 v=109
208734 Par ch=1 c=64 v=0
208802 Par ch=1 c=64 v=63
208810 Par ch=1 c=64 v=127
208900 On ch=1 n=f6 v=0
208902 On ch=1 n=d6 v=0
208910 On ch=1 n=a6 v=0
208924 On ch=1 n=d7 v=0
208940 On ch=1 n=d#5 v=103
208944 On ch=1 n=f5 v=94
208944 On ch=1 n=d6 v=117
208944 On ch=1 n=a5 v=102
208984 On ch=1 n=d6 v=0
208996 On ch=1 n=a5 v=0
209010 On ch=1 n=f5 v=0
209026 On ch=1 n=d#5 v=0
209506 Par ch=1 c=64 v=63
209518 Par ch=1 c=64 v=0
209666 Par ch=1 c=67 v=127
210112 Par ch=1 c=67 v=0
210182 On ch=1 n=b1 v=65
210184 On ch=1 n=b2 v=65
210214 Par ch=1 c=64 v=63
210218 Par ch=1 c=64 v=127
210264 On ch=1 n=b2 v=0
210272 On ch=1 n=b1 v=0
210376 On ch=1 n=f#3 v=77
210392 On ch=1 n=d3 v=48
210434 On ch=1 n=d3 v=0
210440 On ch=1 n=f#3 v=0
210522 On ch=1 n=d#2 v=86
210532 On ch=1 n=d#3 v=69
210574 On ch=1 n=d#3 v=0
210578 On ch=1 n=d#2 v=0
210634 On ch=1 n=f3 v=77
210640 On ch=1 n=a3 v=40
210666 On ch=1 n=f3 v=0
210678 On ch=1 n=a3 v=0
210766 On ch=1 n=f#3 v=100
210768 On ch=1 n=f#2 v=81
210782 Par ch=1 c=64 v=63
210796 Par ch=1 c=64 v=0
210812 On ch=1 n=f#2 v=0
210812 Par ch=1 c=64 v=63
210820 On ch=1 n=f#3 v=0
210840 Par ch=1 c=64 v=127
210872 On ch=1 n=g#3 v=91
210874 On ch=1 n=c4 v=89
210918 On ch=1 n=g#3 v=0
210932 On ch=1 n=c4 v=0
210998 On ch=1 n=a3 v=103
211000 On ch=1 n=a2 v=102
211010 Par ch=1 c=64 v=63
211048 Par ch=1 c=64 v=127
211056 On ch=1 n=a3 v=0
211060 On ch=1 n=a2 v=0
211114 On ch=1 n=a#3 v=106
211116 On ch=1 n=d#4 v=106
211156 On ch=1 n=a#3 v=0
211174 On ch=1 n=d#4 v=0
211244 On ch=1 n=b2 v=89
211246 On ch=1 n=b3 v=108
211268 Par ch=1 c=64 v=63
211278 Par ch=1 c=64 v=127
211298 On ch=1 n=b2 v=0
211308 On ch=1 n=b3 v=0
211354 On ch=1 n=d4 v=98
211354 On ch=1 n=f#4 v=106
211408 On ch=1 n=d4 v=0
211416 On ch=1 n=f#4 v=0
211484 Par ch=1 c=64 v=63
211488 On ch=1 n=d#4 v=119
211490 On ch=1 n=d#3 v=114
211516 Par ch=1 c=64 v=127
211546 On ch=1 n=d#3 v=0
211550 On ch=1 n=d#4 v=0
211592 On ch=1 n=a4 v=97
211598 On ch=1 n=f4 v=101
211640 On ch=1 n=f4 v=0
211654 On ch=1 n=a4 v=0
211720 On ch=1 n=f#4 v=121
211720 On ch=1 n=f#3 v=108
211740 On ch=1 n=g#3 v=71
211746 Par ch=1 c=64 v=63
211762 On ch=1 n=g#3 v=0
211794 On ch=1 n=f#4 v=0
211796 Par ch=1 c=64 v=127
211800 On ch=1 n=f#3 v=0
211832 On ch=1 n=c5 v=112
211836 On ch=1 n=g#4 v=110
211880 On ch=1 n=g#4 v=0
211892 On ch=1 n=c5 v=0
211966 On ch=1 n=a4 v=113
211968 On ch=1 n=a3 v=102
211984 Par ch=1 c=64 v=63
212022 On ch=1 n=a3 v=0
212022 Par ch=1 c=64 v=127
212024 On ch=1 n=a4 v=0
212080 On ch=1 n=a#4 v=113
212080 On ch=1 n=d#5 v=114
212118 On ch=1 n=a#4 v=0
212142 On ch=1 n=d#5 v=0
212190 Par ch=1 c=64 v=63
212206 On ch=1 n=b3 v=94
212208 On ch=1 n=b4 v=109
212220 Par ch=1 c=64 v=127
212262 On ch=1 n=b3 v=0
212266 On ch=1 n=b4 v=0
212318 On ch=1 n=d5 v=107
212318 On ch=1 n=f#5 v=114
212380 On ch=1 n=f#5 v=0
212380 On ch=1 n=d5 v=0
212454 On ch=1 n=d#5 v=116
212454 On ch=1 n=d#4 v=110
212500 On ch=1 n=d#5 v=0
212502 On ch=1 n=d#4 v=0
212556 On ch=1 n=a5 v=106
212560 On ch=1 n=f5 v=104
212596 On ch=1 n=f5 v=0
212616 On ch=1 n=a5 v=0
212696 On ch=1 n=f#5 v=112
212702 On ch=1 n=f#4 v=112
212740 On ch=1 n=f#5 v=0
212746 On ch=1 n=f#4 v=0
212808 On ch=1 n=c6 v=113
212816 On ch=1 n=g#5 v=114
212858 On ch=1 n=g#5 v=0
212870 On ch=1 n=c6 v=0
212944 On ch=1 n=a5 v=114
212948 On ch=1 n=a4 v=107
212992 On ch=1 n=a4 v=0
212992 On ch=1 n=a5 v=0
213062 On ch=1 n=d#6 v=115
213062 On ch=1 n=a#5 v=116
213098 On ch=1 n=a#5 v=0
213124 On ch=1 n=d#6 v=0
213180 Par ch=1 c=64 v=63
213188 Par ch=1 c=64 v=0
213194 On ch=1 n=b5 v=118
213194 On ch=1 n=b4 v=111
213214 Par ch=1 c=64 v=63
213232 Par ch=1 c=64 v=127
213264 On ch=1 n=b4 v=0
213282 On ch=1 n=b5 v=0
213324 On ch=1 n=f#6 v=116
213326 On ch=1 n=d6 v=107
213386 On ch=1 n=d6 v=0
213390 On ch=1 n=f#6 v=0
213462 On ch=1 n=d#6 v=116
213464 On ch=1 n=d#5 v=114
213506 On ch=1 n=d#6 v=0
213520 On ch=1 n=d#5 v=0
213600 On ch=1 n=a6 v=113
213606 On ch=1 n=f6 v=112
213646 On ch=1 n=f6 v=0
213666 On ch=1 n=a6 v=0
213752 Par ch=1 c=64 v=63
213752 On ch=1 n=b5 v=117
213752 On ch=1 n=b4 v=101
213760 On ch=1 n=f#5 v=109
213760 Par ch=1 c=64 v=0
213802 Par ch=1 c=64 v=63
213818 Par ch=1 c=64 v=127
213874 On ch=1 n=b4 v=0
213904 On ch=1 n=f#5 v=0
213920 On ch=1 n=b5 v=0
213928 On ch=1 n=c#7 v=119
213932 On ch=1 n=c#6 v=119
213934 On ch=1 n=f#6 v=107
213982 On ch=1 n=c#6 v=0
214002 On ch=1 n=f#6 v=0
214032 On ch=1 n=c#7 v=0
214114 On ch=1 n=d5 v=82
214120 On ch=1 n=d6 v=117
214120 On ch=1 n=a5 v=108
214376 On ch=1 n=d#7 v=105
214380 On ch=1 n=a6 v=110
214382 On ch=1 n=d#6 v=110
214428 On ch=1 n=d#6 v=0
214440 On ch=1 n=d5 v=0
214442 On ch=1 n=a6 v=0
214458 On ch=1 n=a5 v=0
214460 On ch=1 n=d#7 v=0
214472 On ch=1 n=d6 v=0
214716 On ch=1 n=g#5 v=88
214718 On ch=1 n=b5 v=104
214718 On ch=1 n=f#6 v=127
214718 On ch=1 n=f#5 v=95
214766 Par ch=1 c=64 v=127
214916 On ch=1 n=f#6 v=0
214936 On ch=1 n=b5 v=0
214964 On ch=1 n=g#5 v=0
214974 On ch=1 n=f#5 v=0
215038 On ch=1 n=f#7 v=113
215044 On ch=1 n=b6 v=96
215044 On ch=1 n=f#6 v=103
215050 On ch=1 n=g#6 v=112
215262 On ch=1 n=b4 v=125
215262 On ch=1 n=e4 v=124
215264 On ch=1 n=g#6 v=0
215270 On ch=1 n=f#7 v=0
215274 On ch=1 n=b6 v=0
215274 Par ch=1 c=64 v=63
215280 Par ch=1 c=64 v=0
215292 On ch=1 n=f#6 v=0
215306 Par ch=1 c=64 v=63
215318 Par ch=1 c=64 v=127
215400 On ch=1 n=e4 v=0
215416 On ch=1 n=b4 v=0
215458 On ch=1 n=b6 v=91
215460 On ch=1 n=e7 v=104
215462 On ch=1 n=e6 v=102
215464 On ch=1 n=g#6 v=96
215502 On ch=1 n=e6 v=0
215510 On ch=1 n=g#6 v=0
215512 On ch=1 n=b6 v=0
215536 On ch=1 n=e7 v=0
215628 On ch=1 n=f#6 v=125
215632 On ch=1 n=b5 v=99
215632 On ch=1 n=f#5 v=100
215634 On ch=1 n=g#5 v=92
215702 On ch=1 n=f#6 v=0
215714 On ch=1 n=b5 v=0
215730 On ch=1 n=g#5 v=0
215730 On ch=1 n=f#5 v=0
215800 On ch=1 n=f#7 v=112
215802 On ch=1 n=b6 v=97
215802 On ch=1 n=f#6 v=109
215856 On ch=1 n=b6 v=0
215860 On ch=1 n=f#7 v=0
215870 On ch=1 n=f#6 v=0
215944 On ch=1 n=b5 v=109
215946 On ch=1 n=e6 v=114
215948 On ch=1 n=e5 v=100
215952 On ch=1 n=g#5 v=95
216032 On ch=1 n=b5 v=0
216036 On ch=1 n=g#5 v=0
216040 On ch=1 n=e6 v=0
216044 On ch=1 n=e5 v=0
216088 On ch=1 n=e7 v=92
216090 On ch=1 n=b6 v=90
216090 On ch=1 n=g#6 v=103
216100 On ch=1 n=e6 v=66
216130 On ch=1 n=e6 v=0
216130 On ch=1 n=b6 v=0
216132 On ch=1 n=g#6 v=0
216132 On ch=1 n=e7 v=0
216236 On ch=1 n=d6 v=111
216238 On ch=1 n=g#5 v=103
216238 On ch=1 n=d5 v=101
216242 On ch=1 n=e5 v=94
216254 Par ch=1 c=64 v=63
216270 Par ch=1 c=64 v=127
216366 On ch=1 n=d6 v=0
216384 On ch=1 n=g#5 v=0
216386 On ch=1 n=e5 v=0
216392 On ch=1 n=c7 v=98
216392 On ch=1 n=g#6 v=96
216394 On ch=1 n=c6 v=100
216400 On ch=1 n=d5 v=0
216424 On ch=1 n=c6 v=0
216426 On ch=1 n=c7 v=0
216436 On ch=1 n=g#6 v=0
216526 On ch=1 n=b6 v=98
216528 On ch=1 n=b5 v=106
216528 On ch=1 n=g#6 v=103
216552 On ch=1 n=b5 v=0
216554 On ch=1 n=b6 v=0
216570 On ch=1 n=g#6 v=0
216652 On ch=1 n=b4 v=91
216660 On ch=1 n=e5 v=108
216662 On ch=1 n=b5 v=109
216706 On ch=1 n=e5 v=0
216708 On ch=1 n=b4 v=0
216718 On ch=1 n=b5 v=0
216864 On ch=1 n=e5 v=85
216866 On ch=1 n=a5 v=108
216868 On ch=1 n=e6 v=113
216872 On ch=1 n=f5 v=94
216872 Par ch=1 c=64 v=63
216878 Par ch=1 c=64 v=0
216912 Par ch=1 c=64 v=63
216926 Par ch=1 c=64 v=127
216996 On ch=1 n=e6 v=0
217012 On ch=1 n=a5 v=0
217034 On ch=1 n=f5 v=0
217040 On ch=1 n=e5 v=0
217084 On ch=1 n=e7 v=106
217090 On ch=1 n=a6 v=101
217100 On ch=1 n=e6 v=71
217102 On ch=1 n=f6 v=78
217128 On ch=1 n=e6 v=0
217130 On ch=1 n=f6 v=0
217138 On ch=1 n=a6 v=0
217144 On ch=1 n=e7 v=0
217228 On ch=1 n=e4 v=97
217236 On ch=1 n=a4 v=107
217238 On ch=1 n=d5 v=100
217238 On ch=1 n=e5 v=106
217282 On ch=1 n=a4 v=0
217282 On ch=1 n=e4 v=0
217294 On ch=1 n=d5 v=0
217302 On ch=1 n=e5 v=0
217372 On ch=1 n=d7 v=101
217376 On ch=1 n=d6 v=78
217380 On ch=1 n=a6 v=87
217382 On ch=1 n=f6 v=71
217392 On ch=1 n=e6 v=61
217424 On ch=1 n=e6 v=0
217426 On ch=1 n=f6 v=0
217428 On ch=1 n=d6 v=0
217436 On ch=1 n=a6 v=0
217454 On ch=1 n=d7 v=0
217522 On ch=1 n=a5 v=99
217526 On ch=1 n=e6 v=109
217526 On ch=1 n=e5 v=74
217528 On ch=1 n=f5 v=86
217530 Par ch=1 c=64 v=63
217544 Par ch=1 c=64 v=127
217572 On ch=1 n=e6 v=0
217584 On ch=1 n=a5 v=0
217620 On ch=1 n=f5 v=0
217632 On ch=1 n=e5 v=0
217658 On ch=1 n=d7 v=90
217664 On ch=1 n=d6 v=79
217668 On ch=1 n=a6 v=69
217672 On ch=1 n=f6 v=71
217716 On ch=1 n=d7 v=0
217722 On ch=1 n=a6 v=0
217728 On ch=1 n=f6 v=0
217732 On ch=1 n=d6 v=0
217822 On ch=1 n=g5 v=116
217824 On ch=1 n=g6 v=106
217844 On ch=1 n=g6 v=0
217860 On ch=1 n=g5 v=0
217968 On ch=1 n=g4 v=71
217976 On ch=1 n=d5 v=107
217982 On ch=1 n=g5 v=93
217982 On ch=1 n=f5 v=98
218020 On ch=1 n=d5 v=0
218030 On ch=1 n=g4 v=0
218038 On ch=1 n=f5 v=0
218040 On ch=1 n=g5 v=0
218124 On ch=1 n=a4 v=51
218146 On ch=1 n=f5 v=112
218146 On ch=1 n=d5 v=102
218148 On ch=1 n=a5 v=118
218174 Par ch=1 c=64 v=63
218182 Par ch=1 c=64 v=0
218198 Par ch=1 c=64 v=63
218220 Par ch=1 c=64 v=127
218230 On ch=1 n=a5 v=0
218240 On ch=1 n=f5 v=0
218250 On ch=1 n=d5 v=0
218274 On ch=1 n=a4 v=0
218288 On ch=1 n=a5 v=103
218290 On ch=1 n=a6 v=89
218298 On ch=1 n=f6 v=92
218298 On ch=1 n=d6 v=88
218314 On ch=1 n=g6 v=34
218332 On ch=1 n=d6 v=0
218338 On ch=1 n=g6 v=0
218338 On ch=1 n=a5 v=0
218352 On ch=1 n=f6 v=0
218366 On ch=1 n=a6 v=0
218420 On ch=1 n=b4 v=5
218434 On ch=1 n=d#5 v=98
218438 On ch=1 n=f#5 v=106
218440 On ch=1 n=b5 v=108
218482 On ch=1 n=b5 v=0
218482 On ch=1 n=f#5 v=0
218492 On ch=1 n=d#5 v=0
218510 On ch=1 n=b4 v=0
218564 On ch=1 n=b6 v=106
218568 On ch=1 n=b5 v=104
218568 On ch=1 n=f#6 v=106
218570 On ch=1 n=d#6 v=101
218612 On ch=1 n=b5 v=0
218616 On ch=1 n=d#6 v=0
218624 On ch=1 n=b6 v=0
218626 On ch=1 n=f#6 v=0
218722 Par ch=1 c=64 v=63
218726 Par ch=1 c=64 v=0
218732 On ch=1 n=f#5 v=125
218732 On ch=1 n=b4 v=107
218734 On ch=1 n=g#4 v=97
218738 On ch=1 n=f#4 v=100
218794 Par ch=1 c=64 v=63
218798 Par ch=1 c=64 v=127
218828 On ch=1 n=f#5 v=0
218842 On ch=1 n=b4 v=0
218868 On ch=1 n=g#4 v=0
218880 On ch=1 n=f#4 v=0
218920 On ch=1 n=f#6 v=108
218926 On ch=1 n=f#5 v=109
218928 On ch=1 n=b5 v=101
218984 On ch=1 n=b5 v=0
218996 On ch=1 n=f#5 v=0
218996 On ch=1 n=f#6 v=0
219072 On ch=1 n=e3 v=103
219074 On ch=1 n=b3 v=111
219122 On ch=1 n=e3 v=0
219126 On ch=1 n=b3 v=0
219198 On ch=1 n=b5 v=91
219200 On ch=1 n=e6 v=97
219202 On ch=1 n=g#5 v=95
219202 On ch=1 n=e5 v=87
219232 On ch=1 n=e5 v=0
219242 On ch=1 n=g#5 v=0
219246 On ch=1 n=b5 v=0
219268 On ch=1 n=e6 v=0
219334 On ch=1 n=b4 v=101
219336 On ch=1 n=f#4 v=92
219336 On ch=1 n=f#5 v=119
219338 On ch=1 n=g#4 v=88
219340 Par ch=1 c=64 v=63
219372 Par ch=1 c=64 v=127
219404 On ch=1 n=f#5 v=0
219416 On ch=1 n=b4 v=0
219434 On ch=1 n=g#4 v=0
219438 On ch=1 n=f#4 v=0
219466 On ch=1 n=f#6 v=106
219472 On ch=1 n=f#5 v=101
219474 On ch=1 n=b5 v=89
219520 On ch=1 n=b5 v=0
219530 On ch=1 n=f#6 v=0
219540 On ch=1 n=f#5 v=0
219590 On ch=1 n=e5 v=107
219592 On ch=1 n=b4 v=100
219592 On ch=1 n=e4 v=100
219596 On ch=1 n=g#4 v=89
219638 On ch=1 n=b4 v=0
219640 On ch=1 n=g#4 v=0
219640 On ch=1 n=e5 v=0
219660 On ch=1 n=e4 v=0
219714 On ch=1 n=e6 v=101
219718 On ch=1 n=g#5 v=98
219722 On ch=1 n=e5 v=85
219722 On ch=1 n=b5 v=80
219752 On ch=1 n=b5 v=0
219760 On ch=1 n=e6 v=0
219768 On ch=1 n=g#5 v=0
219778 On ch=1 n=e5 v=0
219878 On ch=1 n=d5 v=111
219884 On ch=1 n=d4 v=77
219894 On ch=1 n=e4 v=84
219898 Par ch=1 c=64 v=63
219906 Par ch=1 c=64 v=0
219926 On ch=1 n=e4 v=0
219936 Par ch=1 c=64 v=63
219948 Par ch=1 c=64 v=127
220024 On ch=1 n=c6 v=104
220026 On ch=1 n=g#5 v=103
220028 On ch=1 n=c5 v=100
220056 On ch=1 n=d5 v=0
220062 On ch=1 n=c5 v=0
220082 On ch=1 n=g#5 v=0
220084 On ch=1 n=d4 v=0
220086 On ch=1 n=c6 v=0
220166 On ch=1 n=b5 v=107
220168 On ch=1 n=b4 v=109
220172 On ch=1 n=g#5 v=106
220198 On ch=1 n=b4 v=0
220208 On ch=1 n=b5 v=0
220214 On ch=1 n=g#5 v=0
220298 On ch=1 n=b3 v=66
220300 On ch=1 n=b4 v=111
220340 On ch=1 n=b3 v=0
220350 On ch=1 n=b4 v=0
220480 On ch=1 n=e4 v=92
220482 On ch=1 n=e5 v=114
220482 On ch=1 n=a4 v=106
220486 Par ch=1 c=64 v=63
220492 Par ch=1 c=64 v=0
220492 On ch=1 n=f4 v=93
220524 Par ch=1 c=64 v=63
220536 Par ch=1 c=64 v=127
220596 On ch=1 n=e5 v=0
220600 On ch=1 n=a4 v=0
220640 On ch=1 n=f4 v=0
220646 On ch=1 n=e4 v=0
220676 On ch=1 n=e6 v=108
220680 On ch=1 n=a5 v=101
220684 On ch=1 n=e5 v=87
220690 On ch=1 n=f5 v=93
220722 On ch=1 n=f5 v=0
220734 On ch=1 n=a5 v=0
220738 On ch=1 n=e6 v=0
220744 On ch=1 n=e5 v=0
220824 On ch=1 n=e3 v=106
220828 On ch=1 n=a3 v=106
220880 On ch=1 n=e3 v=0
220886 On ch=1 n=a3 v=0
220948 On ch=1 n=d5 v=101
220952 On ch=1 n=d6 v=88
220954 On ch=1 n=f5 v=90
220956 On ch=1 n=a5 v=80
221020 On ch=1 n=d5 v=0
221028 On ch=1 n=f5 v=0
221038 On ch=1 n=a5 v=0
221046 On ch=1 n=d6 v=0
221090 On ch=1 n=e4 v=59
221092 On ch=1 n=a4 v=102
221094 On ch=1 n=f4 v=71
221096 On ch=1 n=e5 v=117
221102 Par ch=1 c=64 v=63
221108 Par ch=1 c=64 v=0
221132 Par ch=1 c=64 v=63
221150 Par ch=1 c=64 v=127
221158 On ch=1 n=e5 v=0
221176 On ch=1 n=a4 v=0
221194 On ch=1 n=e4 v=0
221200 On ch=1 n=f4 v=0
221210 On ch=1 n=d6 v=97
221214 On ch=1 n=a5 v=92
221216 On ch=1 n=d5 v=102
221216 On ch=1 n=f5 v=94
221270 On ch=1 n=d6 v=0
221276 On ch=1 n=f5 v=0
221278 On ch=1 n=a5 v=0
221284 On ch=1 n=d5 v=0
221372 On ch=1 n=g4 v=118
221372 On ch=1 n=g5 v=104
221380 On ch=1 n=f5 v=94
221412 On ch=1 n=f5 v=0
221420 On ch=1 n=g5 v=0
221420 On ch=1 n=g4 v=0
221514 On ch=1 n=g3 v=71
221522 On ch=1 n=d4 v=99
221522 On ch=1 n=g4 v=99
221522 On ch=1 n=f4 v=97
221570 On ch=1 n=d4 v=0
221574 On ch=1 n=g3 v=0
221592 On ch=1 n=f4 v=0
221594 On ch=1 n=g4 v=0
221674 On ch=1 n=a3 v=54
221684 On ch=1 n=d4 v=103
221684 On ch=1 n=f4 v=111
221686 On ch=1 n=a4 v=116
221706 Par ch=1 c=64 v=63
221712 Par ch=1 c=64 v=0
221750 Par ch=1 c=64 v=63
221766 Par ch=1 c=64 v=127
221784 On ch=1 n=a4 v=0
221798 On ch=1 n=f4 v=0
221808 On ch=1 n=d4 v=0
221818 On ch=1 n=a3 v=0
221844 On ch=1 n=a4 v=101
221844 On ch=1 n=a5 v=100
221850 On ch=1 n=d5 v=98
221854 On ch=1 n=f5 v=79
221896 On ch=1 n=d5 v=0
221898 On ch=1 n=a4 v=0
221910 On ch=1 n=f5 v=0
221942 On ch=1 n=a5 v=0
222028 On ch=1 n=b3 v=48
222040 On ch=1 n=d#4 v=105
222042 On ch=1 n=f#4 v=113
222042 On ch=1 n=b4 v=117
222064 Par ch=1 c=64 v=63
222068 Par ch=1 c=64 v=0
222116 Par ch=1 c=64 v=63
222130 Par ch=1 c=64 v=127
222194 On ch=1 n=b4 v=0
222206 On ch=1 n=f#4 v=0
222230 On ch=1 n=d#4 v=0
222242 On ch=1 n=b5 v=106
222244 On ch=1 n=b4 v=104
222246 On ch=1 n=f#5 v=110
222248 On ch=1 n=d#5 v=110
222256 On ch=1 n=b3 v=0
222288 On ch=1 n=b4 v=0
222292 On ch=1 n=d#5 v=0
222296 On ch=1 n=b5 v=0
222300 On ch=1 n=f#5 v=0
222476 On ch=1 n=e5 v=116
222478 On ch=1 n=g#4 v=120
222480 On ch=1 n=e3 v=107
222480 On ch=1 n=e4 v=117
222482 On ch=1 n=b3 v=111
222536 Par ch=1 c=64 v=127
222624 On ch=1 n=e4 v=0
222638 On ch=1 n=e5 v=0
222642 On ch=1 n=b3 v=0
222668 On ch=1 n=e3 v=0
222730 On ch=1 n=e4 v=108
222818 On ch=1 n=g#4 v=0
222882 Par ch=1 c=64 v=63
222886 On ch=1 n=e3 v=121
222886 On ch=1 n=e2 v=113
222888 Par ch=1 c=64 v=0
222906 On ch=1 n=e4 v=0
222914 Par ch=1 c=64 v=63
222926 Par ch=1 c=64 v=127
222932 On ch=1 n=e2 v=0
222940 On ch=1 n=e3 v=0
223018 On ch=1 n=d4 v=109
223070 On ch=1 n=d4 v=0
223172 Par ch=1 c=64 v=63
223172 On ch=1 n=e4 v=112
223174 On ch=1 n=b3 v=103
223176 On ch=1 n=e3 v=96
223180 On ch=1 n=g#4 v=115
223182 On ch=1 n=e5 v=112
223204 Par ch=1 c=64 v=127
223214 On ch=1 n=b3 v=0
223216 On ch=1 n=e4 v=0
223240 On ch=1 n=e3 v=0
223292 On ch=1 n=e5 v=0
223346 On ch=1 n=e4 v=93
223398 On ch=1 n=g#4 v=0
223420 On ch=1 n=e4 v=0
223472 On ch=1 n=e2 v=79
223480 On ch=1 n=e3 v=114
223518 On ch=1 n=e2 v=0
223526 On ch=1 n=e3 v=0
223584 On ch=1 n=d4 v=107
223628 On ch=1 n=d4 v=0
223752 Par ch=1 c=64 v=63
223758 Par ch=1 c=64 v=0
223760 On ch=1 n=g4 v=108
223764 On ch=1 n=c4 v=103
223764 On ch=1 n=g3 v=97
223768 On ch=1 n=g5 v=114
223768 On ch=1 n=c5 v=118
223792 Par ch=1 c=64 v=63
223806 On ch=1 n=c4 v=0
223806 On ch=1 n=g4 v=0
223808 Par ch=1 c=64 v=127
223836 On ch=1 n=g3 v=0
223958 On ch=1 n=g4 v=100
223960 On ch=1 n=a4 v=99
223968 On ch=1 n=g5 v=0
223992 On ch=1 n=c5 v=0
224012 On ch=1 n=a4 v=0
224014 On ch=1 n=g4 v=0
224088 On ch=1 n=e3 v=118
224088 On ch=1 n=e2 v=107
224134 On ch=1 n=e2 v=0
224136 On ch=1 n=e3 v=0
224236 On ch=1 n=f#4 v=115
224238 On ch=1 n=f#5 v=109
224288 On ch=1 n=f#4 v=0
224290 On ch=1 n=f#5 v=0
224376 On ch=1 n=d3 v=107
224378 Par ch=1 c=64 v=63
224378 On ch=1 n=d4 v=118
224380 On ch=1 n=a3 v=112
224388 Par ch=1 c=64 v=0
224426 Par ch=1 c=64 v=63
224440 Par ch=1 c=64 v=127
224482 On ch=1 n=d4 v=0
224496 On ch=1 n=a3 v=0
224518 On ch=1 n=e5 v=100
224524 On ch=1 n=a4 v=77
224526 On ch=1 n=d3 v=0
224526 On ch=1 n=e4 v=88
224570 On ch=1 n=e5 v=0
224572 On ch=1 n=e4 v=0
224572 On ch=1 n=a4 v=0
224686 On ch=1 n=f#4 v=114
224686 On ch=1 n=f#5 v=114
224726 On ch=1 n=f#4 v=0
224744 On ch=1 n=f#5 v=0
224796 On ch=1 n=e2 v=88
224804 On ch=1 n=e3 v=114
224838 On ch=1 n=e2 v=0
224848 On ch=1 n=e3 v=0
224992 On ch=1 n=a5 v=120
224994 Par ch=1 c=64 v=63
224994 On ch=1 n=a3 v=81
224996 On ch=1 n=d4 v=104
224998 On ch=1 n=d5 v=121
224998 On ch=1 n=a4 v=109
225004 Par ch=1 c=64 v=0
225038 Par ch=1 c=64 v=63
225052 Par ch=1 c=64 v=127
225072 On ch=1 n=a4 v=0
225088 On ch=1 n=d4 v=0
225112 On ch=1 n=a3 v=0
225188 On ch=1 n=a4 v=93
225190 On ch=1 n=b4 v=97
225206 On ch=1 n=a5 v=0
225236 On ch=1 n=d5 v=0
225250 On ch=1 n=b4 v=0
225252 On ch=1 n=a4 v=0
225316 On ch=1 n=e2 v=103
225318 On ch=1 n=e3 v=114
225344 On ch=1 n=e3 v=0
225356 On ch=1 n=e2 v=0
225452 On ch=1 n=g5 v=99
225454 On ch=1 n=g4 v=107
225518 On ch=1 n=g4 v=0
225532 On ch=1 n=g5 v=0
225574 Par ch=1 c=64 v=63
225580 Par ch=1 c=64 v=0
225580 On ch=1 n=e4 v=116
225582 On ch=1 n=b3 v=109
225582 On ch=1 n=e3 v=108
225610 Par ch=1 c=64 v=63
225626 Par ch=1 c=64 v=127
225648 On ch=1 n=e4 v=0
225650 On ch=1 n=b3 v=0
225690 On ch=1 n=e3 v=0
225712 On ch=1 n=g5 v=106
225714 On ch=1 n=g4 v=99
225720 On ch=1 n=d5 v=96
225750 On ch=1 n=d5 v=0
225760 On ch=1 n=g4 v=0
225776 On ch=1 n=g5 v=0
225880 On ch=1 n=b5 v=107
225882 On ch=1 n=f#5 v=114
225884 On ch=1 n=b4 v=111
225916 On ch=1 n=b4 v=0
225920 On ch=1 n=f#5 v=0
225924 On ch=1 n=b5 v=0
226008 On ch=1 n=e2 v=104
226010 On ch=1 n=e3 v=116
226044 On ch=1 n=e2 v=0
226052 On ch=1 n=e3 v=0
226188 On ch=1 n=a4 v=117
226188 On ch=1 n=e4 v=116
226192 On ch=1 n=a3 v=90
226200 Par ch=1 c=64 v=63
226206 Par ch=1 c=64 v=0
226238 On ch=1 n=e4 v=0
226242 Par ch=1 c=64 v=63
226246 On ch=1 n=a4 v=0
226258 Par ch=1 c=64 v=127
226264 On ch=1 n=a3 v=0
226340 On ch=1 n=a4 v=111
226340 On ch=1 n=a5 v=106
226344 On ch=1 n=e5 v=107
226370 On ch=1 n=a4 v=0
226392 On ch=1 n=e5 v=0
226408 On ch=1 n=a5 v=0
226488 On ch=1 n=c4 v=93
226488 On ch=1 n=g4 v=109
226490 On ch=1 n=c5 v=120
226496 Par ch=1 c=64 v=63
226502 Par ch=1 c=64 v=0
226528 Par ch=1 c=64 v=63
226538 On ch=1 n=c5 v=0
226540 Par ch=1 c=64 v=127
226558 On ch=1 n=g4 v=0
226588 On ch=1 n=c4 v=0
226632 On ch=1 n=c6 v=90
226636 On ch=1 n=g5 v=98
226638 On ch=1 n=c5 v=84
226680 On ch=1 n=c5 v=0
226684 On ch=1 n=g5 v=0
226684 On ch=1 n=c6 v=0
226782 On ch=1 n=e2 v=100
226782 On ch=1 n=e3 v=120
226784 Par ch=1 c=64 v=63
226790 Par ch=1 c=64 v=0
226822 Par ch=1 c=64 v=63
226832 Par ch=1 c=64 v=127
226840 On ch=1 n=e2 v=0
226856 On ch=1 n=e3 v=0
226918 On ch=1 n=g5 v=114
226922 On ch=1 n=e5 v=113
226922 On ch=1 n=c5 v=114
226958 On ch=1 n=c5 v=0
226968 On ch=1 n=e5 v=0
226994 On ch=1 n=g5 v=0
227076 On ch=1 n=d4 v=92
227078 On ch=1 n=a4 v=103
227080 On ch=1 n=d5 v=114
227084 On ch=1 n=f#4 v=101
227120 On ch=1 n=d5 v=0
227150 On ch=1 n=a4 v=0
227160 On ch=1 n=f#4 v=0
227180 On ch=1 n=d4 v=0
227230 On ch=1 n=d6 v=103
227232 On ch=1 n=a5 v=100
227232 On ch=1 n=f#5 v=109
227234 On ch=1 n=d5 v=111
227258 On ch=1 n=d5 v=0
227272 On ch=1 n=f#5 v=0
227274 On ch=1 n=a5 v=0
227292 On ch=1 n=d6 v=0
227416 Par ch=1 c=64 v=63
227424 Par ch=1 c=64 v=0
227436 On ch=1 n=e6 v=117
227436 On ch=1 n=e4 v=97
227438 On ch=1 n=b4 v=102
227438 On ch=1 n=g#5 v=121
227438 On ch=1 n=e5 v=104
227462 Par ch=1 c=64 v=63
227478 Par ch=1 c=64 v=127
227506 On ch=1 n=e5 v=0
227512 On ch=1 n=b4 v=0
227544 On ch=1 n=e4 v=0
227578 On ch=1 n=e6 v=0
227624 On ch=1 n=e5 v=101
227674 On ch=1 n=g#5 v=0
227694 On ch=1 n=e5 v=0
227760 On ch=1 n=e4 v=111
227762 On ch=1 n=e3 v=99
227768 On ch=1 n=d3 v=75
227792 On ch=1 n=d3 v=0
227802 On ch=1 n=e3 v=0
227806 On ch=1 n=e4 v=0
227862 On ch=1 n=d5 v=103
227904 On ch=1 n=d5 v=0
228014 Par ch=1 c=64 v=63
228020 Par ch=1 c=64 v=0
228024 On ch=1 n=g5 v=116
228024 On ch=1 n=g4 v=97
228028 On ch=1 n=c5 v=112
228028 On ch=1 n=g6 v=114
228030 On ch=1 n=c6 v=118
228062 Par ch=1 c=64 v=63
228074 Par ch=1 c=64 v=127
228096 On ch=1 n=g5 v=0
228106 On ch=1 n=c5 v=0
228138 On ch=1 n=g4 v=0
228210 On ch=1 n=g5 v=103
228212 On ch=1 n=a5 v=109
228228 On ch=1 n=g6 v=0
228276 On ch=1 n=c6 v=0
228286 On ch=1 n=a5 v=0
228290 On ch=1 n=g5 v=0
228350 On ch=1 n=e4 v=112
228354 On ch=1 n=e3 v=114
228396 On ch=1 n=e4 v=0
228406 On ch=1 n=e3 v=0
228474 On ch=1 n=f#5 v=124
228532 On ch=1 n=f#5 v=0
228614 On ch=1 n=a5 v=121
228614 On ch=1 n=a4 v=92
228616 On ch=1 n=a6 v=121
228618 On ch=1 n=d5 v=116
228618 On ch=1 n=d6 v=124
228646 Par ch=1 c=64 v=127
228692 On ch=1 n=a5 v=0
228698 On ch=1 n=d5 v=0
228726 On ch=1 n=a4 v=0
228812 On ch=1 n=a5 v=90
228814 On ch=1 n=b5 v=100
228852 On ch=1 n=a6 v=0
228884 On ch=1 n=b5 v=0
228888 On ch=1 n=a5 v=0
228890 On ch=1 n=d6 v=0
228952 On ch=1 n=e3 v=116
228954 On ch=1 n=e4 v=117
228998 On ch=1 n=e3 v=0
229014 On ch=1 n=e4 v=0
229084 On ch=1 n=g5 v=109
229086 On ch=1 n=g6 v=104
229140 On ch=1 n=g5 v=0
229158 On ch=1 n=g6 v=0
229222 Par ch=1 c=64 v=63
229228 Par ch=1 c=64 v=0
229228 On ch=1 n=e5 v=116
229228 On ch=1 n=e4 v=112
229230 On ch=1 n=b4 v=111
229302 Par ch=1 c=64 v=63
229308 Par ch=1 c=64 v=127
229356 On ch=1 n=g6 v=96
229356 On ch=1 n=g5 v=99
229398 On ch=1 n=e4 v=0
229406 On ch=1 n=g5 v=0
229418 On ch=1 n=g6 v=0
229432 On ch=1 n=b4 v=0
229444 On ch=1 n=e5 v=0
229518 On ch=1 n=b6 v=107
229522 On ch=1 n=b5 v=108
229522 On ch=1 n=f#6 v=107
229542 On ch=1 n=b5 v=0
229562 On ch=1 n=f#6 v=0
229570 On ch=1 n=b6 v=0
229672 On ch=1 n=e3 v=84
229680 On ch=1 n=e4 v=107
229702 On ch=1 n=e3 v=0
229722 On ch=1 n=e4 v=0
229890 On ch=1 n=d7 v=121
229890 On ch=1 n=g6 v=120
229892 Par ch=1 c=64 v=63
229896 On ch=1 n=d5 v=65
229898 On ch=1 n=g5 v=91
229900 On ch=1 n=d6 v=107
229906 Par ch=1 c=64 v=0
229906 On ch=1 n=e5 v=87
229944 Par ch=1 c=64 v=63
229954 Par ch=1 c=64 v=127
230034 On ch=1 n=d6 v=0
230062 On ch=1 n=g5 v=0
230076 On ch=1 n=d5 v=0
230076 On ch=1 n=d7 v=0
230078 On ch=1 n=e5 v=0
230090 On ch=1 n=d6 v=101
230094 On ch=1 n=e6 v=106
230138 On ch=1 n=g6 v=0
230146 On ch=1 n=e6 v=0
230154 On ch=1 n=d6 v=0
230224 On ch=1 n=c5 v=103
230224 On ch=1 n=e5 v=109
230224 On ch=1 n=c6 v=121
230224 On ch=1 n=g5 v=113
230270 On ch=1 n=g5 v=0
230270 On ch=1 n=c6 v=0
230292 On ch=1 n=e5 v=0
230304 On ch=1 n=c5 v=0
230382 On ch=1 n=c7 v=109
230384 On ch=1 n=c6 v=111
230386 On ch=1 n=g6 v=101
230456 On ch=1 n=c6 v=0
230476 On ch=1 n=a4 v=93
230488 Par ch=1 c=64 v=63
230492 Par ch=1 c=64 v=0
230494 On ch=1 n=c7 v=0
230524 On ch=1 n=g6 v=0
230528 Par ch=1 c=64 v=63
230548 Par ch=1 c=64 v=127
230596 On ch=1 n=e5 v=114
230596 On ch=1 n=a5 v=121
230732 On ch=1 n=a4 v=0
230758 On ch=1 n=a5 v=0
230762 On ch=1 n=c7 v=112
230764 On ch=1 n=c6 v=111
230766 On ch=1 n=g6 v=102
230776 On ch=1 n=e5 v=0
230808 On ch=1 n=c6 v=0
230822 On ch=1 n=g6 v=0
230834 On ch=1 n=c7 v=0
230838 On ch=1 n=g4 v=90
230938 On ch=1 n=g4 v=0
230974 On ch=1 n=f5 v=106
230980 On ch=1 n=b5 v=116
230984 On ch=1 n=e7 v=116
230986 On ch=1 n=b6 v=113
230998 Par ch=1 c=64 v=63
231024 Par ch=1 c=64 v=127
231176 On ch=1 n=f5 v=0
231190 On ch=1 n=b5 v=0
231196 On ch=1 n=e6 v=109
231244 On ch=1 n=e6 v=0
231246 On ch=1 n=b6 v=0
231258 On ch=1 n=e7 v=0
231454 On ch=1 n=a5 v=112
231456 On ch=1 n=g6 v=120
231458 On ch=1 n=c6 v=117
231462 On ch=1 n=g7 v=118
231462 On ch=1 n=c7 v=122
231488 On ch=1 n=b5 v=38
231498 Par ch=1 c=64 v=127
231514 On ch=1 n=b5 v=0
231644 On ch=1 n=g6 v=0
231662 On ch=1 n=g7 v=0
231672 On ch=1 n=g6 v=88
231676 On ch=1 n=a6 v=100
231680 On ch=1 n=c6 v=0
231704 On ch=1 n=a5 v=0
231708 On ch=1 n=c7 v=0
231710 On ch=1 n=a6 v=0
231734 On ch=1 n=g6 v=0
231824 On ch=1 n=g6 v=116
231830 On ch=1 n=c6 v=108
231942 On ch=1 n=a5 v=96
231944 On ch=1 n=g5 v=97
231998 On ch=1 n=c6 v=0
232022 On ch=1 n=g5 v=0
232022 On ch=1 n=g6 v=0
232024 On ch=1 n=a5 v=0
232070 On ch=1 n=f3 v=127
232072 On ch=1 n=c4 v=127
232078 On ch=1 n=a5 v=98
232078 On ch=1 n=g5 v=98
232172 On ch=1 n=g5 v=0
232180 On ch=1 n=a5 v=0
232194 On ch=1 n=g6 v=91
232196 On ch=1 n=c6 v=71
232226 On ch=1 n=c6 v=0
232258 On ch=1 n=g6 v=0
232268 On ch=1 n=f3 v=0
232288 On ch=1 n=c4 v=0
232332 On ch=1 n=a6 v=91
232334 On ch=1 n=g6 v=91
232382 On ch=1 n=a6 v=0
232384 On ch=1 n=g6 v=0
232446 On ch=1 n=g7 v=101
232448 On ch=1 n=c7 v=101
232514 On ch=1 n=g7 v=0
232524 On ch=1 n=c7 v=0
232570 On ch=1 n=g7 v=90
232578 On ch=1 n=c7 v=91
232580 On ch=1 n=g6 v=87
232600 On ch=1 n=c7 v=0
232612 On ch=1 n=g6 v=0
232614 On ch=1 n=g7 v=0
232698 On ch=1 n=f6 v=108
232700 On ch=1 n=c6 v=103
232704 On ch=1 n=a5 v=90
232746 On ch=1 n=c6 v=0
232750 On ch=1 n=f6 v=0
232772 On ch=1 n=a5 v=0
232836 On ch=1 n=f6 v=99
232838 On ch=1 n=c6 v=106
232840 On ch=1 n=c7 v=100
232860 On ch=1 n=c6 v=0
232862 On ch=1 n=c7 v=0
232870 On ch=1 n=f6 v=0
232948 On ch=1 n=a5 v=103
232950 On ch=1 n=f5 v=99
232952 On ch=1 n=d6 v=109
232994 On ch=1 n=a5 v=0
233012 On ch=1 n=f5 v=0
233016 On ch=1 n=d6 v=0
233082 On ch=1 n=c7 v=101
233086 On ch=1 n=g7 v=104
233090 On ch=1 n=g6 v=89
233120 On ch=1 n=g6 v=0
233124 On ch=1 n=g7 v=0
233126 On ch=1 n=c7 v=0
233202 On ch=1 n=f6 v=113
233204 On ch=1 n=c6 v=101
233204 On ch=1 n=a5 v=98
233244 On ch=1 n=c6 v=0
233246 On ch=1 n=f6 v=0
233268 On ch=1 n=a5 v=0
233332 On ch=1 n=f6 v=100
233336 On ch=1 n=c6 v=108
233338 On ch=1 n=c7 v=99
233364 On ch=1 n=c7 v=0
233374 On ch=1 n=c6 v=0
233376 On ch=1 n=f6 v=0
233446 On ch=1 n=a5 v=103
233446 On ch=1 n=f5 v=104
233448 On ch=1 n=d6 v=111
233488 On ch=1 n=a5 v=0
233494 On ch=1 n=d6 v=0
233498 On ch=1 n=f5 v=0
233582 Par ch=1 c=64 v=63
233584 Par ch=1 c=64 v=0
233586 On ch=1 n=c7 v=120
233588 On ch=1 n=a5 v=113
233588 On ch=1 n=g6 v=122
233588 On ch=1 n=g7 v=117
233588 On ch=1 n=c6 v=118
233622 Par ch=1 c=64 v=63
233634 Par ch=1 c=64 v=127
233676 On ch=1 n=g6 v=0
233696 On ch=1 n=c6 v=0
233714 On ch=1 n=a5 v=0
233726 On ch=1 n=g7 v=0
233726 On ch=1 n=g6 v=93
233732 On ch=1 n=a6 v=92
233752 On ch=1 n=c7 v=0
233864 On ch=1 n=c6 v=93
233932 On ch=1 n=a6 v=0
233962 On ch=1 n=g5 v=103
233962 On ch=1 n=a5 v=108
234040 On ch=1 n=a5 v=0
234042 On ch=1 n=g5 v=0
234044 On ch=1 n=c6 v=0
234050 On ch=1 n=g6 v=0
234100 On ch=1 n=a3 v=127
234100 On ch=1 n=g5 v=100
234100 On ch=1 n=d3 v=127
234100 On ch=1 n=a5 v=108
234200 On ch=1 n=g5 v=0
234214 On ch=1 n=a5 v=0
234218 On ch=1 n=c6 v=57
234222 On ch=1 n=g6 v=84
234252 On ch=1 n=c6 v=0
234286 On ch=1 n=g6 v=0
234326 On ch=1 n=d3 v=0
234346 On ch=1 n=a3 v=0
234348 On ch=1 n=g6 v=76
234348 On ch=1 n=a6 v=92
234396 On ch=1 n=a6 v=0
234402 On ch=1 n=g6 v=0
234452 On ch=1 n=c7 v=104
234454 On ch=1 n=g7 v=102
234534 On ch=1 n=g7 v=0
234550 On ch=1 n=c7 v=0
234588 On ch=1 n=c7 v=102
234588 On ch=1 n=g7 v=108
234592 On ch=1 n=g6 v=90
234598 On ch=1 n=f6 v=85
234622 On ch=1 n=f6 v=0
234630 On ch=1 n=g6 v=0
234630 On ch=1 n=c7 v=0
234646 On ch=1 n=g7 v=0
234702 On ch=1 n=a5 v=100
234704 On ch=1 n=f6 v=111
234706 On ch=1 n=c6 v=106
234752 On ch=1 n=c6 v=0
234760 On ch=1 n=f6 v=0
234778 On ch=1 n=a5 v=0
234828 On ch=1 n=f6 v=96
234838 On ch=1 n=c7 v=97
234838 On ch=1 n=c6 v=96
234864 On ch=1 n=c6 v=0
234866 On ch=1 n=c7 v=0
234872 On ch=1 n=f6 v=0
234940 On ch=1 n=d6 v=116
234940 On ch=1 n=f5 v=107
234942 On ch=1 n=a5 v=103
234988 On ch=1 n=a5 v=0
235004 On ch=1 n=f5 v=0
235006 On ch=1 n=d6 v=0
235068 On ch=1 n=g7 v=109
235070 On ch=1 n=g6 v=99
235072 On ch=1 n=c7 v=97
235086 On ch=1 n=c#7 v=46
235106 On ch=1 n=g7 v=0
235112 On ch=1 n=c#7 v=0
235112 On ch=1 n=g6 v=0
235114 On ch=1 n=c7 v=0
235186 On ch=1 n=f6 v=114
235188 On ch=1 n=a5 v=102
235188 On ch=1 n=c6 v=104
235230 On ch=1 n=c6 v=0
235230 On ch=1 n=f6 v=0
235248 On ch=1 n=a5 v=0
235314 On ch=1 n=f6 v=98
235316 On ch=1 n=c6 v=106
235320 On ch=1 n=c7 v=85
235348 On ch=1 n=c6 v=0
235356 On ch=1 n=f6 v=0
235358 On ch=1 n=c7 v=0
235418 On ch=1 n=f5 v=101
235422 On ch=1 n=a5 v=91
235430 On ch=1 n=d6 v=71
235434 On ch=1 n=c6 v=76
235454 On ch=1 n=a5 v=0
235458 On ch=1 n=d6 v=0
235462 On ch=1 n=c6 v=0
235482 On ch=1 n=f5 v=0
235482 On ch=1 n=d#7 v=40
235524 On ch=1 n=d#7 v=0
235550 Par ch=1 c=64 v=63
235558 Par ch=1 c=64 v=0
235560 On ch=1 n=d6 v=114
235566 On ch=1 n=g7 v=104
235566 On ch=1 n=a#5 v=112
235572 Par ch=1 c=64 v=63
235574 On ch=1 n=d7 v=92
235574 On ch=1 n=a#6 v=101
235590 Par ch=1 c=64 v=127
235602 On ch=1 n=d6 v=0
235618 On ch=1 n=a#5 v=0
235638 On ch=1 n=g7 v=0
235650 On ch=1 n=d7 v=0
235684 On ch=1 n=a#6 v=0
235700 On ch=1 n=f6 v=100
235742 On ch=1 n=f6 v=0
235804 On ch=1 n=a#3 v=103
235810 On ch=1 n=a#4 v=121
235832 On ch=1 n=d6 v=93
235838 On ch=1 n=a#3 v=0
235858 On ch=1 n=a#4 v=0
235876 On ch=1 n=d6 v=0
235914 On ch=1 n=f6 v=71
235964 On ch=1 n=f6 v=0
236062 On ch=1 n=d6 v=109
236062 On ch=1 n=g6 v=112
236064 On ch=1 n=a#5 v=110
236074 On ch=1 n=d7 v=101
236078 On ch=1 n=g7 v=87
236084 On ch=1 n=a#6 v=94
236100 On ch=1 n=g6 v=0
236102 On ch=1 n=d6 v=0
236116 On ch=1 n=a#5 v=0
236140 On ch=1 n=g7 v=0
236162 On ch=1 n=d7 v=0
236188 On ch=1 n=f6 v=65
236192 On ch=1 n=a#6 v=0
236244 On ch=1 n=f6 v=0
236310 On ch=1 n=f5 v=104
236314 On ch=1 n=c6 v=104
236318 On ch=1 n=e6 v=90
236320 On ch=1 n=f6 v=99
236322 On ch=1 n=c7 v=89
236324 On ch=1 n=e7 v=79
236332 On ch=1 n=a7 v=120
236338 On ch=1 n=c6 v=0
236340 On ch=1 n=f6 v=0
236344 On ch=1 n=e6 v=0
236346 On ch=1 n=c7 v=0
236360 On ch=1 n=f5 v=0
236364 On ch=1 n=e7 v=0
236370 On ch=1 n=a7 v=0
236434 On ch=1 n=g6 v=61
236480 On ch=1 n=g6 v=0
236514 Par ch=1 c=64 v=63
236522 Par ch=1 c=64 v=0
236548 On ch=1 n=d6 v=118
236550 On ch=1 n=g6 v=117
236552 On ch=1 n=a#5 v=113
236554 Par ch=1 c=64 v=63
236562 On ch=1 n=g7 v=107
236562 On ch=1 n=d7 v=107
236564 Par ch=1 c=64 v=127
236572 On ch=1 n=a#6 v=107
236588 On ch=1 n=g6 v=0
236590 On ch=1 n=d6 v=0
236610 On ch=1 n=a#5 v=0
236630 On ch=1 n=g7 v=0
236642 On ch=1 n=d7 v=0
236678 On ch=1 n=a#6 v=0
236708 On ch=1 n=f6 v=38
236762 On ch=1 n=f6 v=0
236808 On ch=1 n=a#3 v=116
236810 On ch=1 n=a#4 v=127
236830 On ch=1 n=d6 v=92
236840 On ch=1 n=a#3 v=0
236858 On ch=1 n=a#4 v=0
236880 On ch=1 n=d6 v=0
236908 On ch=1 n=f6 v=85
236968 On ch=1 n=f6 v=0
237062 On ch=1 n=d6 v=116
237064 On ch=1 n=g7 v=102
237064 On ch=1 n=g6 v=107
237066 On ch=1 n=d7 v=104
237066 On ch=1 n=a#5 v=112
237072 On ch=1 n=f6 v=101
237074 On ch=1 n=a#6 v=100
237096 On ch=1 n=f6 v=0
237102 On ch=1 n=g6 v=0
237102 On ch=1 n=d6 v=0
237124 On ch=1 n=a#5 v=0
237128 On ch=1 n=g7 v=0
237150 On ch=1 n=d7 v=0
237180 On ch=1 n=f6 v=74
237192 On ch=1 n=a#6 v=0
237234 On ch=1 n=f6 v=0
237300 On ch=1 n=f5 v=103
237302 On ch=1 n=e6 v=116
237306 On ch=1 n=c6 v=108
237316 On ch=1 n=c7 v=83
237318 On ch=1 n=e7 v=88
237318 On ch=1 n=a7 v=94
237342 On ch=1 n=c7 v=0
237342 On ch=1 n=c6 v=0
237348 On ch=1 n=e6 v=0
237354 On ch=1 n=f5 v=0
237364 On ch=1 n=e7 v=0
237366 On ch=1 n=a7 v=0
237418 On ch=1 n=g6 v=83
237474 On ch=1 n=g6 v=0
237506 Par ch=1 c=64 v=63
237516 Par ch=1 c=64 v=0
237540 On ch=1 n=d6 v=118
237540 On ch=1 n=g6 v=116
237542 On ch=1 n=a#5 v=113
237546 On ch=1 n=g7 v=108
237548 On ch=1 n=d7 v=109
237548 Par ch=1 c=64 v=63
237556 On ch=1 n=a#6 v=108
237560 Par ch=1 c=64 v=127
237576 On ch=1 n=g6 v=0
237582 On ch=1 n=d6 v=0
237604 On ch=1 n=a#5 v=0
237612 On ch=1 n=g7 v=0
237628 On ch=1 n=d7 v=0
237652 On ch=1 n=a#6 v=0
237700 On ch=1 n=f6 v=78
237744 On ch=1 n=f6 v=0
237790 On ch=1 n=a#3 v=107
237796 On ch=1 n=a#4 v=127
237822 On ch=1 n=a#3 v=0
237822 On ch=1 n=d6 v=58
237842 On ch=1 n=a#4 v=0
237866 On ch=1 n=d6 v=0
237906 On ch=1 n=f6 v=74
237958 On ch=1 n=f6 v=0
238052 On ch=1 n=d6 v=116
238052 On ch=1 n=g6 v=109
238054 On ch=1 n=g7 v=104
238054 On ch=1 n=a#5 v=112
238054 On ch=1 n=d7 v=108
238060 On ch=1 n=a#6 v=109
238066 On ch=1 n=f6 v=65
238068 On ch=1 n=f7 v=73
238092 On ch=1 n=g6 v=0
238092 On ch=1 n=d6 v=0
238096 On ch=1 n=f7 v=0
238098 On ch=1 n=f6 v=0
238116 On ch=1 n=a#5 v=0
238118 On ch=1 n=g7 v=0
238144 On ch=1 n=d7 v=0
238164 On ch=1 n=f6 v=85
238198 On ch=1 n=a#6 v=0
238230 On ch=1 n=f6 v=0
238294 On ch=1 n=f5 v=107
238296 On ch=1 n=e6 v=112
238296 On ch=1 n=e7 v=109
238298 On ch=1 n=a7 v=107
238298 On ch=1 n=c6 v=107
238302 On ch=1 n=c7 v=97
238336 On ch=1 n=c7 v=0
238340 On ch=1 n=c6 v=0
238344 On ch=1 n=e6 v=0
238354 On ch=1 n=e7 v=0
238358 On ch=1 n=a7 v=0
238360 On ch=1 n=f5 v=0
238412 On ch=1 n=g6 v=73
238448 On ch=1 n=g6 v=0
238540 On ch=1 n=d7 v=104
238540 On ch=1 n=a#6 v=112
238548 On ch=1 n=g7 v=82
238580 On ch=1 n=a#6 v=0
238582 On ch=1 n=d7 v=0
238584 On ch=1 n=g7 v=0
238662 On ch=1 n=d6 v=90
238664 On ch=1 n=f6 v=99
238664 On ch=1 n=a#5 v=86
238666 On ch=1 n=f5 v=56
238732 On ch=1 n=a#5 v=0
238750 On ch=1 n=d6 v=0
238786 On ch=1 n=f6 v=0
238792 Par ch=1 c=64 v=63
238796 On ch=1 n=a7 v=92
238798 On ch=1 n=a6 v=91
238800 On ch=1 n=e7 v=84
238802 On ch=1 n=c7 v=83
238808 Par ch=1 c=64 v=0
238840 Par ch=1 c=64 v=63
238846 On ch=1 n=a6 v=0
238848 On ch=1 n=c7 v=0
238854 Par ch=1 c=64 v=127
238858 On ch=1 n=e7 v=0
238866 On ch=1 n=a7 v=0
238870 On ch=1 n=f5 v=0
238910 On ch=1 n=e6 v=96
238912 On ch=1 n=g6 v=100
238914 On ch=1 n=c6 v=87
238962 On ch=1 n=g6 v=0
238962 On ch=1 n=e6 v=0
238982 On ch=1 n=c6 v=0
239038 On ch=1 n=g7 v=89
239038 On ch=1 n=g6 v=93
239040 On ch=1 n=d7 v=89
239040 On ch=1 n=a#6 v=93
239068 On ch=1 n=a#6 v=0
239070 On ch=1 n=g6 v=0
239080 On ch=1 n=d7 v=0
239092 On ch=1 n=g7 v=0
239158 On ch=1 n=a#5 v=95
239158 On ch=1 n=d6 v=102
239160 On ch=1 n=f6 v=109
239168 On ch=1 n=f5 v=62
239226 On ch=1 n=a#5 v=0
239232 On ch=1 n=d6 v=0
239248 On ch=1 n=f6 v=0
239260 On ch=1 n=f5 v=0
239276 On ch=1 n=a6 v=106
239278 On ch=1 n=a7 v=97
239280 On ch=1 n=e7 v=98
239282 On ch=1 n=c7 v=97
239318 On ch=1 n=a6 v=0
239324 On ch=1 n=c7 v=0
239334 On ch=1 n=e7 v=0
239334 On ch=1 n=a7 v=0
239400 On ch=1 n=g6 v=106
239402 On ch=1 n=e6 v=102
239416 On ch=1 n=c6 v=76
239458 On ch=1 n=e6 v=0
239464 On ch=1 n=g6 v=0
239472 On ch=1 n=c6 v=0
239518 On ch=1 n=g7 v=101
239520 On ch=1 n=a#6 v=105
239522 On ch=1 n=d7 v=94
239528 On ch=1 n=g6 v=68
239556 On ch=1 n=a#6 v=0
239564 On ch=1 n=g6 v=0
239566 On ch=1 n=d7 v=0
239574 On ch=1 n=g7 v=0
239640 On ch=1 n=a#5 v=98
239640 On ch=1 n=d6 v=108
239640 On ch=1 n=f6 v=117
239658 On ch=1 n=f5 v=77
239708 On ch=1 n=d6 v=0
239714 On ch=1 n=a#5 v=0
239728 On ch=1 n=f6 v=0
239734 On ch=1 n=f5 v=0
239760 On ch=1 n=a6 v=102
239760 On ch=1 n=a7 v=90
239762 On ch=1 n=c7 v=98
239762 On ch=1 n=e7 v=98
239804 On ch=1 n=c7 v=0
239804 On ch=1 n=a6 v=0
239812 On ch=1 n=e7 v=0
239818 On ch=1 n=a7 v=0
239876 On ch=1 n=e6 v=107
239878 On ch=1 n=g6 v=114
239878 On ch=1 n=c6 v=97
239924 On ch=1 n=e6 v=0
239930 On ch=1 n=g6 v=0
239944 On ch=1 n=c6 v=0
240000 On ch=1 n=g7 v=93
240000 On ch=1 n=a#6 v=109
240002 On ch=1 n=d7 v=101
240010 On ch=1 n=g6 v=69
240010 On ch=1 n=f7 v=92
240034 On ch=1 n=f7 v=0
240042 On ch=1 n=g6 v=0
240044 On ch=1 n=a#6 v=0
240050 On ch=1 n=d7 v=0
240056 On ch=1 n=g7 v=0
240112 On ch=1 n=f5 v=57
240116 On ch=1 n=a#5 v=109
240122 On ch=1 n=f6 v=117
240122 On ch=1 n=d6 v=111
240180 On ch=1 n=a#5 v=0
240192 On ch=1 n=d6 v=0
240220 On ch=1 n=f6 v=0
240242 On ch=1 n=a7 v=106
240244 On ch=1 n=c7 v=109
240246 On ch=1 n=e7 v=103
240254 On ch=1 n=f5 v=0
240286 On ch=1 n=c7 v=0
240296 On ch=1 n=e7 v=0
240306 On ch=1 n=a7 v=0
240366 On ch=1 n=e6 v=107
240366 On ch=1 n=g6 v=113
240368 On ch=1 n=c6 v=94
240426 On ch=1 n=e6 v=0
240440 On ch=1 n=g6 v=0
240444 On ch=1 n=c6 v=0
240504 On ch=1 n=g7 v=108
240504 On ch=1 n=d7 v=113
240512 On ch=1 n=a#6 v=115
240564 On ch=1 n=a#6 v=0
240564 On ch=1 n=d7 v=0
240588 On ch=1 n=g7 v=0
240628 On ch=1 n=a#5 v=105
240632 On ch=1 n=f6 v=114
240632 On ch=1 n=d6 v=108
240646 On ch=1 n=f5 v=74
240708 On ch=1 n=d6 v=0
240710 On ch=1 n=f5 v=0
240710 On ch=1 n=a#5 v=0
240728 On ch=1 n=f6 v=0
240764 On ch=1 n=a7 v=117
240766 On ch=1 n=e7 v=120
240768 On ch=1 n=c7 v=113
240808 On ch=1 n=e7 v=0
240818 On ch=1 n=c7 v=0
240840 On ch=1 n=a7 v=0
240872 On ch=1 n=e6 v=111
240874 On ch=1 n=g6 v=114
240874 On ch=1 n=c6 v=99
240938 On ch=1 n=e6 v=0
240940 On ch=1 n=g6 v=0
240956 On ch=1 n=c6 v=0
241000 On ch=1 n=d7 v=114
241002 On ch=1 n=g7 v=116
241006 On ch=1 n=a#6 v=118
241074 On ch=1 n=d7 v=0
241078 On ch=1 n=a#6 v=0
241096 On ch=1 n=g7 v=0
241120 On ch=1 n=f5 v=72
241122 On ch=1 n=a#5 v=105
241126 On ch=1 n=d6 v=112
241126 On ch=1 n=f6 v=118
241214 On ch=1 n=d6 v=0
241214 On ch=1 n=a#5 v=0
241220 On ch=1 n=f5 v=0
241232 On ch=1 n=f6 v=0
241256 On ch=1 n=a7 v=118
241260 On ch=1 n=e7 v=118
241262 On ch=1 n=c7 v=117
241330 On ch=1 n=c7 v=0
241342 On ch=1 n=e7 v=0
241352 On ch=1 n=a7 v=0
241380 On ch=1 n=e6 v=107
241382 On ch=1 n=g6 v=112
241382 On ch=1 n=c6 v=96
241468 On ch=1 n=e6 v=0
241474 On ch=1 n=c6 v=0
241490 On ch=1 n=g6 v=0
241520 Par ch=1 c=64 v=63
241528 Par ch=1 c=64 v=0
241532 On ch=1 n=b7 v=120
241534 On ch=1 n=g#7 v=115
241536 On ch=1 n=e7 v=121
241560 Par ch=1 c=64 v=63
241572 Par ch=1 c=64 v=127
241662 On ch=1 n=b7 v=0
241680 On ch=1 n=b6 v=102
241710 On ch=1 n=g#7 v=0
241716 On ch=1 n=e7 v=0
241722 On ch=1 n=b6 v=0
241804 On ch=1 n=b6 v=112
241808 On ch=1 n=g#6 v=106
241810 On ch=1 n=e6 v=94
241872 On ch=1 n=b6 v=0
241882 On ch=1 n=g#6 v=0
241922 On ch=1 n=e6 v=0
241924 On ch=1 n=b5 v=99
241948 On ch=1 n=b5 v=0
242044 On ch=1 n=b5 v=108
242050 On ch=1 n=e5 v=106
242056 On ch=1 n=g#5 v=99
242134 On ch=1 n=b5 v=0
242154 On ch=1 n=b4 v=97
242162 On ch=1 n=g#5 v=0
242172 On ch=1 n=e5 v=0
242204 On ch=1 n=b4 v=0
242286 On ch=1 n=b4 v=109
242304 On ch=1 n=e4 v=80
242304 On ch=1 n=g#4 v=76
242374 On ch=1 n=b4 v=0
242412 On ch=1 n=b3 v=99
242484 On ch=1 n=g#4 v=0
242504 On ch=1 n=e4 v=0
242528 On ch=1 n=b3 v=0
242530 On ch=1 n=e3 v=127
242530 On ch=1 n=e2 v=121
242538 Par ch=1 c=64 v=63
242546 Par ch=1 c=64 v=0
242584 Par ch=1 c=64 v=63
242594 Par ch=1 c=64 v=127
242626 On ch=1 n=e2 v=0
242654 On ch=1 n=e3 v=0
242668 On ch=1 n=b3 v=87
242754 On ch=1 n=b3 v=0
242814 On ch=1 n=b3 v=111
242814 On ch=1 n=b2 v=100
242820 On ch=1 n=b4 v=93
242830 On ch=1 n=g#4 v=84
242836 On ch=1 n=e4 v=57
242860 On ch=1 n=b2 v=0
242864 On ch=1 n=b3 v=0
242868 On ch=1 n=e4 v=0
242872 On ch=1 n=g#4 v=0
242880 On ch=1 n=b4 v=0
242930 On ch=1 n=b4 v=93
242998 On ch=1 n=b4 v=0
243046 On ch=1 n=e3 v=100
243046 On ch=1 n=e4 v=113
243062 On ch=1 n=b5 v=97
243062 On ch=1 n=e5 v=97
243084 On ch=1 n=g#5 v=70
243090 On ch=1 n=e3 v=0
243092 On ch=1 n=e4 v=0
243104 On ch=1 n=e5 v=0
243124 On ch=1 n=g#5 v=0
243132 On ch=1 n=b5 v=0
243180 On ch=1 n=b5 v=98
243232 On ch=1 n=b5 v=0
243290 On ch=1 n=g#4 v=120
243290 On ch=1 n=g#3 v=115
243306 On ch=1 n=b6 v=94
243314 On ch=1 n=g#6 v=90
243316 On ch=1 n=e6 v=59
243328 On ch=1 n=g#4 v=0
243350 On ch=1 n=e6 v=0
243350 On ch=1 n=g#3 v=0
243360 On ch=1 n=g#6 v=0
243362 On ch=1 n=b6 v=0
243424 On ch=1 n=b6 v=65
243474 On ch=1 n=b6 v=0
243542 On ch=1 n=b7 v=109
243542 On ch=1 n=e7 v=113
243544 On ch=1 n=b2 v=113
243544 On ch=1 n=b3 v=111
243546 On ch=1 n=g#7 v=104
243582 On ch=1 n=b2 v=0
243588 On ch=1 n=b3 v=0
243630 On ch=1 n=b7 v=0
243654 On ch=1 n=g#7 v=0
243666 On ch=1 n=b6 v=72
243674 On ch=1 n=e7 v=0
243710 On ch=1 n=b6 v=0
243780 On ch=1 n=e3 v=88
243784 On ch=1 n=e4 v=109
243794 On ch=1 n=b6 v=102
243802 On ch=1 n=g#6 v=86
243810 On ch=1 n=e6 v=73
243830 On ch=1 n=e3 v=0
243832 On ch=1 n=e4 v=0
243872 On ch=1 n=b6 v=0
243898 On ch=1 n=b5 v=92
243928 On ch=1 n=g#6 v=0
243962 On ch=1 n=b5 v=0
243962 On ch=1 n=e6 v=0
244028 On ch=1 n=b5 v=104
244048 On ch=1 n=g#4 v=110
244048 On ch=1 n=g#3 v=114
244062 On ch=1 n=g#3 v=0
244066 On ch=1 n=g#4 v=0
244102 On ch=1 n=b5 v=0
244150 On ch=1 n=b6 v=82
244162 On ch=1 n=g#6 v=70
244200 On ch=1 n=g#6 v=0
244210 On ch=1 n=b6 v=0
244286 On ch=1 n=b4 v=118
244290 On ch=1 n=b6 v=84
244290 On ch=1 n=b3 v=111
244308 On ch=1 n=c4 v=59
244318 On ch=1 n=b4 v=0
244328 On ch=1 n=b3 v=0
244340 On ch=1 n=b6 v=0
244342 On ch=1 n=c4 v=0
244404 On ch=1 n=b7 v=91
244406 On ch=1 n=e7 v=87
244412 On ch=1 n=g#7 v=80
244440 On ch=1 n=e7 v=0
244458 On ch=1 n=b7 v=0
244468 On ch=1 n=g#7 v=0
244524 On ch=1 n=b7 v=106
244526 On ch=1 n=g#7 v=110
244526 On ch=1 n=e3 v=116
244526 On ch=1 n=e4 v=111
244526 On ch=1 n=e7 v=117
244544 On ch=1 n=e3 v=0
244564 On ch=1 n=e4 v=0
244596 On ch=1 n=b7 v=0
244628 On ch=1 n=b6 v=70
244630 On ch=1 n=g#7 v=0
244636 On ch=1 n=e7 v=0
244672 On ch=1 n=b6 v=0
244764 On ch=1 n=b6 v=101
244774 On ch=1 n=b3 v=87
244774 On ch=1 n=g#6 v=89
244776 On ch=1 n=b4 v=106
244778 On ch=1 n=e6 v=92
244796 On ch=1 n=b3 v=0
244814 On ch=1 n=b4 v=0
244830 On ch=1 n=b6 v=0
244862 On ch=1 n=b5 v=94
244876 On ch=1 n=g#6 v=0
244934 On ch=1 n=b5 v=0
244958 On ch=1 n=e6 v=0
244986 On ch=1 n=b5 v=97
244994 On ch=1 n=e4 v=109
244994 On ch=1 n=e5 v=109
245034 On ch=1 n=e4 v=0
245042 On ch=1 n=e5 v=0
245066 On ch=1 n=b5 v=0
245106 On ch=1 n=b6 v=85
245116 On ch=1 n=g#6 v=80
245118 On ch=1 n=e6 v=51
245154 On ch=1 n=e6 v=0
245172 On ch=1 n=g#6 v=0
245172 On ch=1 n=b6 v=0
245230 On ch=1 n=g#5 v=120
245232 On ch=1 n=g#4 v=115
245238 On ch=1 n=b6 v=92
245270 On ch=1 n=g#5 v=0
245288 On ch=1 n=b6 v=0
245288 On ch=1 n=g#4 v=0
245354 On ch=1 n=b7 v=94
245358 On ch=1 n=g#7 v=92
245360 On ch=1 n=e7 v=90
245392 On ch=1 n=e7 v=0
245410 On ch=1 n=b7 v=0
245416 On ch=1 n=g#7 v=0
245476 On ch=1 n=b7 v=109
245478 On ch=1 n=g#7 v=113
245480 On ch=1 n=e7 v=114
245482 On ch=1 n=b4 v=112
245482 On ch=1 n=b3 v=92
245504 On ch=1 n=b3 v=0
245518 On ch=1 n=b4 v=0
245534 On ch=1 n=b7 v=0
245562 On ch=1 n=g#7 v=0
245580 On ch=1 n=e7 v=0
245586 On ch=1 n=b6 v=78
245628 On ch=1 n=b6 v=0
245710 On ch=1 n=e4 v=97
245712 On ch=1 n=e5 v=113
245720 On ch=1 n=b6 v=59
245722 On ch=1 n=g#6 v=79
245726 On ch=1 n=e6 v=76
245748 On ch=1 n=e5 v=0
245760 On ch=1 n=e4 v=0
245766 On ch=1 n=b6 v=0
245810 On ch=1 n=b5 v=94
245828 On ch=1 n=g#6 v=0
245870 On ch=1 n=e6 v=0
245876 On ch=1 n=b5 v=0
245940 On ch=1 n=b5 v=92
245944 On ch=1 n=g#5 v=123
245946 On ch=1 n=g#4 v=110
245992 On ch=1 n=g#4 v=0
245998 On ch=1 n=b5 v=0
246004 On ch=1 n=g#5 v=0
246054 On ch=1 n=b6 v=88
246076 On ch=1 n=g#6 v=41
246086 On ch=1 n=b6 v=0
246102 On ch=1 n=g#6 v=0
246172 On ch=1 n=b5 v=114
246174 On ch=1 n=b6 v=87
246178 On ch=1 n=b4 v=109
246214 On ch=1 n=b5 v=0
246222 On ch=1 n=b4 v=0
246222 On ch=1 n=b6 v=0
246284 On ch=1 n=b7 v=97
246286 On ch=1 n=e7 v=98
246286 On ch=1 n=g#7 v=94
246310 On ch=1 n=e7 v=0
246332 On ch=1 n=b7 v=0
246342 On ch=1 n=g#7 v=0
246410 On ch=1 n=g#7 v=112
246410 On ch=1 n=b7 v=109
246412 On ch=1 n=e7 v=120
246412 On ch=1 n=e5 v=108
246414 On ch=1 n=e4 v=88
246440 On ch=1 n=e4 v=0
246450 On ch=1 n=e5 v=0
246470 On ch=1 n=b7 v=0
246492 On ch=1 n=e7 v=0
246502 On ch=1 n=g#7 v=0
246520 On ch=1 n=b6 v=78
246582 On ch=1 n=b6 v=0
246648 On ch=1 n=b5 v=120
246650 On ch=1 n=b4 v=113
246658 On ch=1 n=g#6 v=108
246658 On ch=1 n=b6 v=89
246692 On ch=1 n=b4 v=0
246700 On ch=1 n=b5 v=0
246702 On ch=1 n=g#6 v=0
246708 On ch=1 n=b6 v=0
246750 On ch=1 n=b6 v=82
246814 On ch=1 n=b6 v=0
246868 On ch=1 n=e6 v=121
246872 On ch=1 n=e5 v=116
246876 On ch=1 n=b7 v=104
246880 On ch=1 n=e7 v=108
246880 On ch=1 n=g#7 v=100
246926 On ch=1 n=e6 v=0
246938 On ch=1 n=b7 v=0
246946 On ch=1 n=e5 v=0
246950 On ch=1 n=e7 v=0
246954 On ch=1 n=g#7 v=0
246984 On ch=1 n=b6 v=59
247028 On ch=1 n=b6 v=0
247114 On ch=1 n=b5 v=126
247116 On ch=1 n=b6 v=107
247122 On ch=1 n=g#6 v=108
247166 On ch=1 n=g#6 v=0
247166 On ch=1 n=b5 v=0
247168 On ch=1 n=b6 v=0
247234 On ch=1 n=b6 v=51
247274 On ch=1 n=b6 v=0
247356 On ch=1 n=e6 v=117
247358 On ch=1 n=g#6 v=124
247360 On ch=1 n=b7 v=107
247366 On ch=1 n=g#7 v=106
247366 On ch=1 n=e7 v=109
247388 On ch=1 n=e7 v=0
247404 On ch=1 n=b7 v=0
247412 On ch=1 n=g#7 v=0
247422 On ch=1 n=g#6 v=0
247428 On ch=1 n=e6 v=0
247856 Par ch=1 c=64 v=63
247866 Par ch=1 c=64 v=0
247950 On ch=1 n=c5 v=113
247952 On ch=1 n=c6 v=109
247952 On ch=1 n=g#5 v=109
247990 On ch=1 n=c5 v=0
247994 Par ch=1 c=64 v=127
248010 On ch=1 n=g#5 v=0
248016 On ch=1 n=c6 v=0
248056 On ch=1 n=b3 v=76
248066 On ch=1 n=e4 v=109
248066 On ch=1 n=b4 v=114
248126 On ch=1 n=d#5 v=55
248154 On ch=1 n=d#5 v=0
248170 On ch=1 n=g#5 v=105
248170 On ch=1 n=g#4 v=120
248176 On ch=1 n=e5 v=100
248204 On ch=1 n=b4 v=0
248204 On ch=1 n=b3 v=0
248208 On ch=1 n=g#4 v=0
248212 On ch=1 n=e4 v=0
248228 On ch=1 n=e5 v=0
248242 On ch=1 n=g#5 v=0
248250 On ch=1 n=b3 v=88
248270 On ch=1 n=e4 v=103
248272 On ch=1 n=b4 v=113
248310 On ch=1 n=e4 v=0
248312 On ch=1 n=b3 v=0
248336 On ch=1 n=b4 v=0
248430 On ch=1 n=g#4 v=83
248438 On ch=1 n=b4 v=85
248444 On ch=1 n=e6 v=106
248444 On ch=1 n=g#6 v=114
248446 On ch=1 n=g#5 v=123
248458 On ch=1 n=e5 v=104
248464 Par ch=1 c=64 v=63
248468 Par ch=1 c=64 v=0
248506 Par ch=1 c=64 v=63
248516 Par ch=1 c=64 v=127
248626 On ch=1 n=g#6 v=0
248628 On ch=1 n=g#5 v=0
248632 On ch=1 n=e6 v=0
248644 On ch=1 n=g#4 v=0
248646 On ch=1 n=e5 v=0
248646 On ch=1 n=b4 v=0
248746 Par ch=1 c=64 v=63
248750 Par ch=1 c=64 v=0
248994 On ch=1 n=e4 v=127
249028 Par ch=1 c=64 v=127
249040 On ch=1 n=e4 v=0
249066 On ch=1 n=e2 v=106
249068 On ch=1 n=e3 v=122
249498 On ch=1 n=e2 v=0
249500 On ch=1 n=e3 v=0
250332 Par ch=1 c=64 v=63
250350 Par ch=1 c=64 v=0
250350 Meta TrkEnd
TrkEnd
