MFile 1 2 1024
MTrk
0 TimeSig 1/4 24 8
0 KeySig 0 major
0 Tempo 1000000
1024 TimeSig 3/4 72 8
1024 KeySig 4 major
1024 Tempo 1333333
1536 Tempo 1200000
2048 Tempo 1000000
3584 Tempo 1200000
4096 Tempo 1333333
4864 Tempo 1200000
5120 Tempo 1000000
6656 Tempo 1200000
7168 Tempo 1333333
7680 Tempo 1000000
8192 Tempo 1000000
9728 Tempo 1333333
10240 Tempo 1333333
11008 Tempo 1200000
11264 Tempo 1000000
13312 Tempo 1200000
13824 Tempo 1000000
15872 Tempo 1200000
16384 Tempo 1333333
17152 Tempo 1200000
17408 Tempo 1000000
18432 Tempo 1200000
18944 Tempo 1000000
19456 Tempo 1200000
19968 Tempo 1000000
20480 Tempo 1200000
21504 Tempo 1333333
22528 Tempo 1200000
23552 Tempo 1333333
24064 Tempo 1200000
25088 Tempo 1333333
25600 Tempo 1200000
26112 Tempo 1000000
26624 Tempo 1090909
27136 Tempo 1000000
28160 Tempo 1200000
28672 Tempo 1333333
29184 Tempo 1000000
29440 Tempo 1090909
29696 Tempo 1200000
30720 Tempo 1000000
31232 Tempo 1200000
31744 Tempo 1333333
32256 Tempo 1000000
32768 Tempo 1090909
33280 Tempo 1000000
34304 Tempo 1333333
34816 Tempo 1333333
35328 Tempo 1000000
35840 Tempo 1200000
36864 Tempo 1000000
37376 Tempo 1200000
37888 KeySig -6 minor
37888 Tempo 1200000
38400 Tempo 1000000
40448 Tempo 1200000
40960 Tempo 1333333
41728 Tempo 1200000
41984 Tempo 1000000
43008 Tempo 1200000
43520 Tempo 1000000
44032 Tempo 1200000
44544 Tempo 1000000
45056 Tempo 1200000
46080 Tempo 1333333
47616 Tempo 1200000
49664 Tempo 1333333
50176 KeySig -3 minor
50176 Tempo 1333333
50688 Tempo 1000000
51200 Tempo 1200000
51712 Tempo 1000000
52736 Tempo 1200000
53248 Tempo 1200000
53760 Tempo 1000000
54272 Tempo 1200000
54784 Tempo 1000000
56320 Tempo 1200000
56832 Tempo 1000000
57344 Tempo 1200000
57856 Tempo 1000000
58368 Tempo 1333333
58709 Tempo 1200000
59051 Tempo 1333333
59392 Tempo 1333333
59904 Tempo 1200000
60416 Tempo 1200000
60928 Tempo 1000000
62464 Tempo 1200000
62976 Tempo 1000000
63488 Tempo 923076
64512 Tempo 1200000
65024 Tempo 1000000
65536 Tempo 1200000
66048 Tempo 923076
68608 Tempo 1200000
69120 Tempo 923076
70656 Tempo 1090909
71168 Tempo 923076
71680 Tempo 1000000
72192 Tempo 923076
72704 Tempo 909090
74240 Tempo 1090909
74752 KeySig 4 minor
74752 Tempo 1333333
75264 Tempo 923076
75776 Tempo 1000000
76800 Tempo 1200000
77312 Tempo 1500000
77824 KeySig 4 major
77824 Tempo 1333333
78336 Tempo 1200000
78848 Tempo 1000000
80384 Tempo 1200000
80896 Tempo 1333333
81664 Tempo 1200000
81920 Tempo 1000000
83456 Tempo 1200000
83968 Tempo 1333333
84480 Tempo 1000000
84992 Tempo 1000000
86528 Tempo 1333333
87040 Tempo 1333333
87808 Tempo 1200000
88064 Tempo 1000000
90112 KeySig 4 minor
90112 Tempo 1200000
90624 Tempo 1000000
91904 Tempo 1200000
92160 Tempo 1200000
92672 Tempo 1200000
93184 Tempo 1333333
93952 Tempo 1200000
94208 Tempo 1000000
95232 Tempo 1200000
95488 Tempo 1000000
96256 Tempo 1333333
96512 Tempo 1000000
97024 Tempo 1200000
97536 Tempo 1000000
98304 Tempo 1200000
98304 Tempo 1333333
99072 Tempo 1500000
99328 Tempo 1200000
100352 Tempo 1333333
100864 Tempo 1200000
101888 Tempo 1333333
102400 Tempo 1200000
102912 Tempo 1000000
103424 Tempo 1200000
103936 Tempo 1000000
104960 Tempo 1200000
105472 Tempo 1200000
105984 Tempo 1000000
106496 Tempo 1200000
107008 Tempo 1000000
108544 Tempo 1200000
109056 Tempo 1000000
109568 Tempo 1200000
110080 Tempo 1000000
110592 Tempo 1333333
110933 Tempo 1200000
111275 Tempo 1333333
111616 Tempo 1333333
112128 Tempo 1200000
112640 Tempo 1200000
113152 Tempo 1000000
114688 Tempo 1200000
115200 Tempo 909090
115712 Tempo 1090909
116224 Tempo 909090
116736 Tempo 1090909
117248 Tempo 1200000
118272 Tempo 1000000
118784 Tempo 909090
119808 Tempo 1200000
120320 Tempo 1000000
120832 Tempo 1200000
121344 Tempo 1000000
122880 Tempo 1333333
123392 Tempo 1200000
123904 Tempo 1333333
124416 Tempo 1200000
125440 Tempo 1333333
125952 Tempo 1500000
126464 Tempo 1714285
127488 Tempo 1200000
128000 Tempo 1090909
129024 Tempo 1200000
129536 Tempo 1333333
130048 Tempo 1333333
130560 Tempo 1200000
131072 Tempo 1090909
132096 Tempo 1200000
133120 Tempo 1333333
133632 Tempo 1200000
134144 Tempo 1333333
135168 Tempo 1500000
135680 Tempo 1714285
136192 Tempo 2000000
137216 Tempo 3000000
139264 Tempo 270270
142339 Meta TrkEnd
TrkEnd
MTrk
0 Meta TrkName "Instrument  1"
0 PrCh ch=1 p=1
854 On ch=1 n=c#3 v=32
939 On ch=1 n=g#3 v=32
1024 Par ch=1 c=64 v=127
1024 Par ch=1 c=64 v=127
1024 Par ch=1 c=64 v=0
1024 On ch=1 n=e4 v=38
1024 On ch=1 n=c#5 v=55
1024 On ch=1 n=g#4 v=44
1210 Par ch=1 c=64 v=0
1256 Par ch=1 c=64 v=127
1536 Off ch=1 n=e4 v=0
1536 Off ch=1 n=c#5 v=0
1536 On ch=1 n=d#5 v=57
1536 On ch=1 n=e4 v=34
1536 Off ch=1 n=g#3 v=0
1536 Off ch=1 n=g#4 v=0
1536 On ch=1 n=g#3 v=29
1536 On ch=1 n=g#4 v=41
2048 Off ch=1 n=d#5 v=0
2048 On ch=1 n=c#5 v=42
2048 On ch=1 n=e5 v=56
2048 Off ch=1 n=g#3 v=0
2048 Off ch=1 n=g#4 v=0
2048 On ch=1 n=g#3 v=30
2048 On ch=1 n=g#4 v=42
2095 Par ch=1 c=64 v=0
2281 Par ch=1 c=64 v=127
2560 Off ch=1 n=e4 v=0
2560 On ch=1 n=c#5 v=34
2560 Off ch=1 n=c#5 v=0
2560 Off ch=1 n=e5 v=0
2560 On ch=1 n=f#5 v=59
2560 Off ch=1 n=g#3 v=0
2560 Off ch=1 n=g#4 v=0
2560 On ch=1 n=g#3 v=31
2560 On ch=1 n=g#4 v=43
3072 Off ch=1 n=f#5 v=0
3072 On ch=1 n=e5 v=45
3072 On ch=1 n=g#5 v=61
3072 Off ch=1 n=c#3 v=0
3072 Off ch=1 n=g#4 v=0
3072 On ch=1 n=c#3 v=32
3150 Par ch=1 c=64 v=0
3305 Par ch=1 c=64 v=127
3584 Off ch=1 n=c#5 v=0
3584 Off ch=1 n=e5 v=0
3584 Off ch=1 n=g#5 v=0
3584 On ch=1 n=c#5 v=49
3584 On ch=1 n=e5 v=49
3584 On ch=1 n=c#6 v=66
3584 Off ch=1 n=c#3 v=0
3584 Off ch=1 n=g#3 v=0
3584 On ch=1 n=g#3 v=34
3584 On ch=1 n=g#4 v=46
3904 On ch=1 n=c#3 v=35
3968 On ch=1 n=f#3 v=35
4032 On ch=1 n=c#4 v=35
4096 Off ch=1 n=c#5 v=0
4096 Off ch=1 n=e5 v=0
4096 Off ch=1 n=c#6 v=0
4096 Off ch=1 n=g#3 v=0
4096 Off ch=1 n=g#4 v=0
4096 On ch=1 n=b5 v=69
4096 On ch=1 n=b4 v=27
4096 On ch=1 n=c#5 v=27
4096 On ch=1 n=f#5 v=34
4096 On ch=1 n=f#4 v=47
4236 Par ch=1 c=64 v=0
4365 Par ch=1 c=64 v=127
4608 Off ch=1 n=b4 v=0
4608 Off ch=1 n=c#5 v=0
4608 Off ch=1 n=f#5 v=0
4608 On ch=1 n=b4 v=27
4608 On ch=1 n=f#5 v=34
4608 Off ch=1 n=f#3 v=0
4608 Off ch=1 n=c#4 v=0
4608 Off ch=1 n=f#4 v=0
4608 On ch=1 n=c#4 v=28
4608 On ch=1 n=f#4 v=28
4608 On ch=1 n=c#5 v=40
4864 Off ch=1 n=b5 v=0
4864 On ch=1 n=a5 v=52
5120 Off ch=1 n=b4 v=0
5120 Off ch=1 n=f#5 v=0
5120 On ch=1 n=a4 v=27
5120 On ch=1 n=f#5 v=34
5120 Off ch=1 n=a5 v=0
5120 On ch=1 n=a5 v=56
5120 Off ch=1 n=c#4 v=0
5120 Off ch=1 n=f#4 v=0
5120 Off ch=1 n=c#5 v=0
5120 On ch=1 n=c#4 v=28
5120 On ch=1 n=f#4 v=28
5120 On ch=1 n=c#5 v=40
5632 Off ch=1 n=a4 v=0
5632 Off ch=1 n=f#5 v=0
5632 On ch=1 n=a4 v=27
5632 On ch=1 n=f#5 v=34
5632 Off ch=1 n=c#4 v=0
5632 Off ch=1 n=f#4 v=0
5632 Off ch=1 n=c#5 v=0
5632 On ch=1 n=c#4 v=28
5632 On ch=1 n=f#4 v=28
5632 On ch=1 n=c#5 v=40
6144 Off ch=1 n=a4 v=0
6144 Off ch=1 n=f#5 v=0
6144 On ch=1 n=a4 v=27
6144 On ch=1 n=f#5 v=34
6144 Off ch=1 n=c#4 v=0
6144 Off ch=1 n=f#4 v=0
6144 Off ch=1 n=c#5 v=0
6144 On ch=1 n=c#4 v=28
6144 On ch=1 n=f#4 v=28
6144 On ch=1 n=c#5 v=40
6656 Off ch=1 n=a4 v=0
6656 Off ch=1 n=f#5 v=0
6656 On ch=1 n=a4 v=27
6656 On ch=1 n=f#5 v=34
6656 Off ch=1 n=c#3 v=0
6656 Off ch=1 n=c#4 v=0
6656 Off ch=1 n=f#4 v=0
6656 Off ch=1 n=c#5 v=0
6656 On ch=1 n=c#4 v=28
6656 On ch=1 n=f#4 v=28
6656 On ch=1 n=c#5 v=40
7168 Par ch=1 c=64 v=127
7168 Par ch=1 c=64 v=127
7168 Off ch=1 n=a4 v=0
7168 Off ch=1 n=f#5 v=0
7168 Off ch=1 n=a5 v=0
7168 Off ch=1 n=c#4 v=0
7168 Off ch=1 n=f#4 v=0
7168 Off ch=1 n=c#5 v=0
7168 On ch=1 n=f#4 v=38
7168 On ch=1 n=c#5 v=38
7168 On ch=1 n=f#5 v=61
7168 On ch=1 n=a3 v=28
7168 On ch=1 n=a4 v=40
7168 On ch=1 n=c#4 v=40
7354 Par ch=1 c=64 v=0
7400 Par ch=1 c=64 v=127
7680 Off ch=1 n=f#4 v=0
7680 Off ch=1 n=c#5 v=0
7680 Off ch=1 n=f#5 v=0
7680 On ch=1 n=g#4 v=40
7680 On ch=1 n=g#5 v=62
7680 On ch=1 n=c#5 v=34
7680 Off ch=1 n=a3 v=0
7680 Off ch=1 n=a4 v=0
7680 Off ch=1 n=c#4 v=0
7680 On ch=1 n=c#4 v=40
7680 On ch=1 n=g#3 v=31
7680 On ch=1 n=g#4 v=43
8192 Off ch=1 n=g#4 v=0
8192 Off ch=1 n=g#5 v=0
8192 On ch=1 n=f#5 v=42
8192 On ch=1 n=a5 v=64
8192 Off ch=1 n=g#3 v=0
8192 Off ch=1 n=g#4 v=0
8192 On ch=1 n=f#3 v=34
8192 On ch=1 n=f#4 v=46
8239 Par ch=1 c=64 v=0
8425 Par ch=1 c=64 v=127
8704 Off ch=1 n=c#5 v=0
8704 On ch=1 n=c#5 v=34
8704 Off ch=1 n=f#5 v=0
8704 Off ch=1 n=a5 v=0
8704 On ch=1 n=b5 v=67
8704 Off ch=1 n=c#4 v=0
8704 On ch=1 n=a3 v=40
8704 Off ch=1 n=f#3 v=0
8704 Off ch=1 n=f#4 v=0
8704 On ch=1 n=e3 v=37
8704 On ch=1 n=e4 v=49
9216 Off ch=1 n=b5 v=0
9216 On ch=1 n=f#5 v=55
9216 On ch=1 n=c#6 v=70
9216 Off ch=1 n=e3 v=0
9216 Off ch=1 n=e4 v=0
9216 On ch=1 n=d#3 v=41
9216 On ch=1 n=d#4 v=53
9294 Par ch=1 c=64 v=0
9449 Par ch=1 c=64 v=127
9728 Off ch=1 n=c#5 v=0
9728 Off ch=1 n=f#5 v=0
9728 Off ch=1 n=c#6 v=0
9728 On ch=1 n=f#5 v=49
9728 On ch=1 n=c#6 v=49
9728 On ch=1 n=f#6 v=71
9728 Off ch=1 n=a3 v=0
9728 Off ch=1 n=d#3 v=0
9728 Off ch=1 n=d#4 v=0
9728 On ch=1 n=d#4 v=38
9728 On ch=1 n=a4 v=38
9728 On ch=1 n=c#5 v=50
10070 On ch=1 n=g#3 v=47
10155 On ch=1 n=f#4 v=47
10240 Par ch=1 c=64 v=127
10240 Off ch=1 n=f#5 v=0
10240 Off ch=1 n=c#6 v=0
10240 Off ch=1 n=f#6 v=0
10240 Off ch=1 n=d#4 v=0
10240 Off ch=1 n=a4 v=0
10240 Off ch=1 n=c#5 v=0
10240 On ch=1 n=e5 v=60
10240 On ch=1 n=e6 v=69
10240 On ch=1 n=a5 v=34
10240 On ch=1 n=c#5 v=47
10380 Par ch=1 c=64 v=0
10509 Par ch=1 c=64 v=127
10752 Off ch=1 n=a5 v=0
10752 On ch=1 n=a5 v=34
10752 Off ch=1 n=f#4 v=0
10752 Off ch=1 n=c#5 v=0
10752 On ch=1 n=f#4 v=42
10752 On ch=1 n=c#5 v=42
11008 Off ch=1 n=e5 v=0
11008 Off ch=1 n=e6 v=0
11008 On ch=1 n=d#5 v=37
11008 On ch=1 n=d#6 v=57
11078 Par ch=1 c=64 v=127
11264 Off ch=1 n=a5 v=0
11264 On ch=1 n=a5 v=37
11264 Off ch=1 n=d#5 v=0
11264 Off ch=1 n=d#6 v=0
11264 On ch=1 n=d#5 v=37
11264 On ch=1 n=d#6 v=60
11264 Off ch=1 n=f#4 v=0
11264 Off ch=1 n=c#5 v=0
11264 On ch=1 n=f#4 v=40
11264 On ch=1 n=c#5 v=40
11326 Par ch=1 c=64 v=0
11466 Par ch=1 c=64 v=127
11776 Off ch=1 n=a5 v=0
11776 On ch=1 n=a5 v=34
11776 Off ch=1 n=f#4 v=0
11776 Off ch=1 n=c#5 v=0
11776 On ch=1 n=f#4 v=38
11776 On ch=1 n=c#5 v=38
12288 Off ch=1 n=a5 v=0
12288 On ch=1 n=g#5 v=34
12288 Off ch=1 n=f#4 v=0
12288 Off ch=1 n=c#5 v=0
12288 On ch=1 n=f#4 v=36
12288 On ch=1 n=c5 v=36
12304 Par ch=1 c=64 v=0
12474 Par ch=1 c=64 v=127
12800 Off ch=1 n=g#5 v=0
12800 On ch=1 n=g#5 v=34
12800 Off ch=1 n=g#3 v=0
12800 Off ch=1 n=f#4 v=0
12800 Off ch=1 n=c5 v=0
12800 On ch=1 n=f#4 v=34
12800 On ch=1 n=c5 v=34
13312 Par ch=1 c=64 v=127
13312 Off ch=1 n=g#5 v=0
13312 Off ch=1 n=d#5 v=0
13312 Off ch=1 n=d#6 v=0
13312 Off ch=1 n=f#4 v=0
13312 Off ch=1 n=c5 v=0
13312 On ch=1 n=e5 v=35
13312 On ch=1 n=g#5 v=35
13312 On ch=1 n=c#6 v=56
13312 On ch=1 n=c#5 v=38
13312 On ch=1 n=c#4 v=34
13498 Par ch=1 c=64 v=0
13575 Par ch=1 c=64 v=127
13824 Off ch=1 n=e5 v=0
13824 Off ch=1 n=g#5 v=0
13824 Off ch=1 n=c#6 v=0
13824 On ch=1 n=e5 v=37
13824 On ch=1 n=d#6 v=59
13824 On ch=1 n=g#5 v=41
13824 Off ch=1 n=c#5 v=0
13824 On ch=1 n=b4 v=38
13954 Par ch=1 c=64 v=0
14178 Par ch=1 c=64 v=127
14336 Off ch=1 n=e5 v=0
14336 Off ch=1 n=d#6 v=0
14336 On ch=1 n=c#6 v=39
14336 On ch=1 n=e6 v=61
14336 Off ch=1 n=b4 v=0
14336 On ch=1 n=a#4 v=38
14457 Par ch=1 c=64 v=0
14653 Par ch=1 c=64 v=127
14848 Off ch=1 n=g#5 v=0
14848 On ch=1 n=c#6 v=44
14848 Off ch=1 n=c#6 v=0
14848 Off ch=1 n=e6 v=0
14848 On ch=1 n=f#6 v=63
14848 On ch=1 n=g#5 v=38
14892 Par ch=1 c=64 v=0
15331 Par ch=1 c=64 v=127
15360 Off ch=1 n=f#6 v=0
15360 On ch=1 n=e6 v=43
15360 On ch=1 n=g#6 v=63
15872 Off ch=1 n=c#6 v=0
15872 Off ch=1 n=e6 v=0
15872 Off ch=1 n=g#6 v=0
15872 On ch=1 n=c#6 v=45
15872 On ch=1 n=g#6 v=45
15872 On ch=1 n=c#7 v=67
15872 Off ch=1 n=a#4 v=0
15872 Off ch=1 n=g#5 v=0
15872 On ch=1 n=e5 v=42
16384 Par ch=1 c=64 v=127
16384 Off ch=1 n=c#6 v=0
16384 Off ch=1 n=g#6 v=0
16384 Off ch=1 n=c#7 v=0
16384 Off ch=1 n=c#4 v=0
16384 Off ch=1 n=e5 v=0
16384 On ch=1 n=b6 v=67
16384 On ch=1 n=b5 v=36
16384 On ch=1 n=g#6 v=36
16384 On ch=1 n=e5 v=43
16384 On ch=1 n=d#4 v=33
16384 On ch=1 n=g#4 v=33
16647 Par ch=1 c=64 v=0
16709 Par ch=1 c=64 v=127
16896 Off ch=1 n=b5 v=0
16896 Off ch=1 n=g#6 v=0
16896 On ch=1 n=g#5 v=30
16896 On ch=1 n=b5 v=36
16896 Off ch=1 n=e5 v=0
16896 On ch=1 n=d#5 v=39
17152 Off ch=1 n=b6 v=0
17152 On ch=1 n=g#6 v=57
17408 Off ch=1 n=g#5 v=0
17408 Off ch=1 n=b5 v=0
17408 On ch=1 n=g#5 v=27
17408 On ch=1 n=b5 v=33
17408 Off ch=1 n=g#6 v=0
17408 On ch=1 n=g#6 v=60
17408 Off ch=1 n=d#5 v=0
17408 On ch=1 n=d5 v=39
17920 Off ch=1 n=g#5 v=0
17920 Off ch=1 n=b5 v=0
17920 On ch=1 n=g#5 v=30
17920 On ch=1 n=b5 v=36
17920 Off ch=1 n=d5 v=0
17920 On ch=1 n=d#5 v=41
18432 Off ch=1 n=g#5 v=0
18432 Off ch=1 n=b5 v=0
18432 On ch=1 n=e5 v=21
18432 On ch=1 n=g#5 v=27
18432 Off ch=1 n=g#6 v=0
18432 On ch=1 n=e6 v=59
18432 Off ch=1 n=d#4 v=0
18432 Off ch=1 n=g#4 v=0
18432 On ch=1 n=c#4 v=35
18432 Off ch=1 n=d#5 v=0
18432 On ch=1 n=d#5 v=46
18566 Par ch=1 c=64 v=0
18796 Par ch=1 c=64 v=127
18944 Off ch=1 n=e5 v=0
18944 Off ch=1 n=g#5 v=0
18944 On ch=1 n=e5 v=25
18944 On ch=1 n=g#5 v=31
18944 Off ch=1 n=d#5 v=0
18944 On ch=1 n=g#4 v=39
19456 Par ch=1 c=64 v=127
19456 Off ch=1 n=e5 v=0
19456 Off ch=1 n=g#5 v=0
19456 Off ch=1 n=e6 v=0
19456 Off ch=1 n=c#4 v=0
19456 Off ch=1 n=g#4 v=0
19456 On ch=1 n=d#6 v=62
19456 On ch=1 n=d#5 v=38
19456 On ch=1 n=g#5 v=38
19456 On ch=1 n=a#4 v=42
19456 On ch=1 n=b3 v=35
19595 Par ch=1 c=64 v=0
19688 Par ch=1 c=64 v=127
19968 Off ch=1 n=d#5 v=0
19968 Off ch=1 n=g#5 v=0
19968 On ch=1 n=g#5 v=33
19968 Off ch=1 n=a#4 v=0
19968 On ch=1 n=b4 v=47
20224 Off ch=1 n=d#6 v=0
20224 On ch=1 n=b5 v=50
20480 Off ch=1 n=g#5 v=0
20480 On ch=1 n=g#5 v=30
20480 Off ch=1 n=b5 v=0
20480 On ch=1 n=b5 v=47
20480 Off ch=1 n=b4 v=0
20480 On ch=1 n=e5 v=52
20587 Par ch=1 c=64 v=0
20757 Par ch=1 c=64 v=127
20992 Off ch=1 n=g#5 v=0
20992 On ch=1 n=g#5 v=28
20992 Off ch=1 n=e5 v=0
20992 On ch=1 n=d#5 v=47
21504 Off ch=1 n=g#5 v=0
21504 On ch=1 n=e5 v=24
21504 On ch=1 n=g5 v=24
21504 On ch=1 n=c#6 v=22
21504 Off ch=1 n=b5 v=0
21504 On ch=1 n=d#6 v=57
21504 Off ch=1 n=b3 v=0
21504 On ch=1 n=c#4 v=35
21504 Off ch=1 n=d#5 v=0
21504 On ch=1 n=b4 v=38
21611 Par ch=1 c=64 v=0
21824 Par ch=1 c=64 v=127
22016 Off ch=1 n=e5 v=0
22016 Off ch=1 n=g5 v=0
22016 Off ch=1 n=c#6 v=0
22016 On ch=1 n=e5 v=17
22016 On ch=1 n=g5 v=17
22016 On ch=1 n=c#6 v=15
22016 Off ch=1 n=b4 v=0
22016 On ch=1 n=a#4 v=29
22528 Par ch=1 c=64 v=127
22528 Off ch=1 n=e5 v=0
22528 Off ch=1 n=g5 v=0
22528 Off ch=1 n=c#6 v=0
22528 Off ch=1 n=d#6 v=0
22528 Off ch=1 n=c#4 v=0
22528 Off ch=1 n=a#4 v=0
22528 On ch=1 n=b5 v=47
22528 On ch=1 n=b4 v=19
22528 On ch=1 n=d#5 v=28
22528 On ch=1 n=d#4 v=22
22528 On ch=1 n=g#4 v=22
22528 On ch=1 n=g#3 v=15
22714 Par ch=1 c=64 v=0
22807 Par ch=1 c=64 v=127
23040 Off ch=1 n=b4 v=0
23040 Off ch=1 n=d#5 v=0
23040 On ch=1 n=b4 v=17
23040 On ch=1 n=d#5 v=26
23040 Off ch=1 n=d#4 v=0
23040 Off ch=1 n=g#4 v=0
23040 On ch=1 n=d#4 v=19
23040 On ch=1 n=g#4 v=19
23296 Off ch=1 n=b5 v=0
23296 On ch=1 n=g#5 v=40
23552 Off ch=1 n=b4 v=0
23552 Off ch=1 n=d#5 v=0
23552 On ch=1 n=f#4 v=15
23552 On ch=1 n=c5 v=24
23552 Off ch=1 n=g#5 v=0
23552 On ch=1 n=g#5 v=37
23552 Off ch=1 n=g#3 v=0
23552 On ch=1 n=g#3 v=25
23552 Off ch=1 n=d#4 v=0
23552 Off ch=1 n=g#4 v=0
23552 On ch=1 n=d4 v=42
23573 Par ch=1 c=64 v=0
23800 Par ch=1 c=64 v=0
23862 Par ch=1 c=64 v=127
24043 Par ch=1 c=64 v=0
24064 Off ch=1 n=f#4 v=0
24064 Off ch=1 n=c5 v=0
24064 On ch=1 n=f#4 v=18
24064 On ch=1 n=c5 v=27
24064 Off ch=1 n=d4 v=0
24064 On ch=1 n=e4 v=42
24234 Par ch=1 c=64 v=0
24312 Par ch=1 c=64 v=127
24576 Off ch=1 n=f#4 v=0
24576 Off ch=1 n=c5 v=0
24576 On ch=1 n=f#4 v=16
24576 On ch=1 n=c5 v=25
25067 Par ch=1 c=64 v=0
25088 Off ch=1 n=f#4 v=0
25088 Off ch=1 n=c5 v=0
25088 On ch=1 n=f#4 v=14
25088 On ch=1 n=c5 v=23
25088 Off ch=1 n=e4 v=0
25088 On ch=1 n=d#4 v=34
25196 Par ch=1 c=64 v=0
25227 Par ch=1 c=64 v=127
25600 Par ch=1 c=64 v=127
25600 Par ch=1 c=64 v=127
25600 Par ch=1 c=64 v=0
25600 Off ch=1 n=f#4 v=0
25600 Off ch=1 n=c5 v=0
25600 Off ch=1 n=g#5 v=0
25600 Off ch=1 n=g#3 v=0
25600 Off ch=1 n=d#4 v=0
25600 On ch=1 n=e4 v=33
25600 On ch=1 n=g#4 v=33
25600 On ch=1 n=c#5 v=50
25600 On ch=1 n=c#3 v=28
25600 On ch=1 n=c#4 v=38
25786 Par ch=1 c=64 v=0
25832 Par ch=1 c=64 v=127
26112 Off ch=1 n=e4 v=0
26112 Off ch=1 n=g#4 v=0
26112 Off ch=1 n=c#5 v=0
26112 On ch=1 n=e4 v=35
26112 On ch=1 n=d#5 v=52
26112 On ch=1 n=g#4 v=29
26112 Off ch=1 n=c#3 v=0
26112 Off ch=1 n=c#4 v=0
26112 On ch=1 n=b2 v=28
26112 On ch=1 n=b3 v=39
26624 Off ch=1 n=e4 v=0
26624 Off ch=1 n=d#5 v=0
26624 On ch=1 n=c#5 v=37
26624 On ch=1 n=e5 v=51
26624 Off ch=1 n=b2 v=0
26624 Off ch=1 n=b3 v=0
26624 On ch=1 n=a#2 v=31
26624 On ch=1 n=a#3 v=42
26671 Par ch=1 c=64 v=0
26857 Par ch=1 c=64 v=127
27136 Off ch=1 n=g#4 v=0
27136 On ch=1 n=c#5 v=29
27136 Off ch=1 n=c#5 v=0
27136 Off ch=1 n=e5 v=0
27136 On ch=1 n=g#4 v=40
27136 On ch=1 n=f#5 v=54
27136 Off ch=1 n=a#2 v=0
27136 Off ch=1 n=a#3 v=0
27136 On ch=1 n=a#3 v=48
27648 Off ch=1 n=g#4 v=0
27648 Off ch=1 n=f#5 v=0
27648 On ch=1 n=e5 v=40
27648 On ch=1 n=g#5 v=56
27726 Par ch=1 c=64 v=0
27881 Par ch=1 c=64 v=127
28160 Off ch=1 n=c#5 v=0
28160 Off ch=1 n=e5 v=0
28160 Off ch=1 n=g#5 v=0
28160 On ch=1 n=c#5 v=44
28160 On ch=1 n=c#6 v=60
28672 Off ch=1 n=c#5 v=0
28672 Off ch=1 n=c#6 v=0
28672 Off ch=1 n=a#3 v=0
28672 On ch=1 n=c#5 v=32
28672 On ch=1 n=e5 v=32
28672 On ch=1 n=g#5 v=39
28672 On ch=1 n=b5 v=63
28672 On ch=1 n=d#4 v=28
28672 On ch=1 n=b4 v=47
28812 Par ch=1 c=64 v=0
28941 Par ch=1 c=64 v=127
29184 Off ch=1 n=c#5 v=0
29184 Off ch=1 n=e5 v=0
29184 Off ch=1 n=g#5 v=0
29184 On ch=1 n=c#5 v=28
29184 On ch=1 n=e5 v=28
29184 On ch=1 n=g#5 v=35
29184 Off ch=1 n=d#4 v=0
29184 On ch=1 n=d#4 v=28
29440 Off ch=1 n=b5 v=0
29440 On ch=1 n=a#5 v=50
29440 Off ch=1 n=b4 v=0
29440 On ch=1 n=a#4 v=40
29696 Off ch=1 n=a#5 v=0
29696 On ch=1 n=a#5 v=54
29696 Off ch=1 n=c#5 v=0
29696 Off ch=1 n=e5 v=0
29696 Off ch=1 n=g#5 v=0
29696 On ch=1 n=c#5 v=23
29696 On ch=1 n=e5 v=23
29696 On ch=1 n=g#5 v=30
29696 Off ch=1 n=a#4 v=0
29696 On ch=1 n=a#4 v=37
29696 Off ch=1 n=d#4 v=0
29696 On ch=1 n=d#4 v=25
29751 Par ch=1 c=64 v=0
29973 Par ch=1 c=64 v=127
30208 Off ch=1 n=c#5 v=0
30208 Off ch=1 n=e5 v=0
30208 Off ch=1 n=g#5 v=0
30208 On ch=1 n=c#5 v=17
30208 On ch=1 n=g5 v=24
30208 Off ch=1 n=d#4 v=0
30208 On ch=1 n=d#4 v=28
30208 On ch=1 n=e5 v=54
30277 Par ch=1 c=64 v=0
30554 Par ch=1 c=64 v=127
30720 Off ch=1 n=c#5 v=0
30720 Off ch=1 n=g5 v=0
30720 On ch=1 n=c#5 v=16
30720 On ch=1 n=g5 v=22
31232 Off ch=1 n=c#5 v=0
31232 Off ch=1 n=g5 v=0
31232 On ch=1 n=c#5 v=15
31232 On ch=1 n=g5 v=20
31232 Off ch=1 n=d#4 v=0
31232 Off ch=1 n=e5 v=0
31232 On ch=1 n=d#4 v=19
31232 On ch=1 n=d#5 v=42
31301 Par ch=1 c=64 v=0
31495 Par ch=1 c=64 v=127
31744 Par ch=1 c=64 v=127
31744 Par ch=1 c=64 v=127
31744 Off ch=1 n=a#5 v=0
31744 Off ch=1 n=c#5 v=0
31744 Off ch=1 n=g5 v=0
31744 Off ch=1 n=a#4 v=0
31744 Off ch=1 n=d#4 v=0
31744 Off ch=1 n=d#5 v=0
31744 On ch=1 n=b4 v=30
31744 On ch=1 n=d#5 v=30
31744 On ch=1 n=g#5 v=49
31744 On ch=1 n=g#3 v=28
31744 On ch=1 n=g#4 v=40
31930 Par ch=1 c=64 v=0
31976 Par ch=1 c=64 v=127
32256 Off ch=1 n=b4 v=0
32256 Off ch=1 n=d#5 v=0
32256 Off ch=1 n=g#5 v=0
32256 On ch=1 n=b4 v=34
32256 On ch=1 n=a#5 v=52
32256 On ch=1 n=d#5 v=29
32256 Off ch=1 n=g#3 v=0
32256 Off ch=1 n=g#4 v=0
32256 On ch=1 n=f#3 v=31
32256 On ch=1 n=f#4 v=43
32768 Off ch=1 n=b4 v=0
32768 Off ch=1 n=a#5 v=0
32768 On ch=1 n=g#5 v=37
32768 On ch=1 n=b5 v=56
32768 Off ch=1 n=f#3 v=0
32768 Off ch=1 n=f#4 v=0
32768 On ch=1 n=f3 v=34
32768 On ch=1 n=f4 v=46
32815 Par ch=1 c=64 v=0
33001 Par ch=1 c=64 v=127
33280 Off ch=1 n=d#5 v=0
33280 On ch=1 n=g#5 v=29
33280 Off ch=1 n=g#5 v=0
33280 Off ch=1 n=b5 v=0
33280 On ch=1 n=d#5 v=39
33280 On ch=1 n=c#6 v=59
33280 Off ch=1 n=f3 v=0
33280 Off ch=1 n=f4 v=0
33280 On ch=1 n=f4 v=50
33792 Off ch=1 n=d#5 v=0
33792 Off ch=1 n=c#6 v=0
33792 On ch=1 n=b5 v=50
33792 On ch=1 n=d#6 v=64
33870 Par ch=1 c=64 v=0
34025 Par ch=1 c=64 v=127
34304 Off ch=1 n=g#5 v=0
34304 Off ch=1 n=b5 v=0
34304 Off ch=1 n=d#6 v=0
34304 On ch=1 n=g#5 v=52
34304 On ch=1 n=g#6 v=68
34816 Par ch=1 c=64 v=127
34816 Off ch=1 n=g#5 v=0
34816 Off ch=1 n=g#6 v=0
34816 Off ch=1 n=f4 v=0
34816 On ch=1 n=g#5 v=39
34816 On ch=1 n=b5 v=39
34816 On ch=1 n=d#6 v=46
34816 On ch=1 n=f#6 v=70
34816 On ch=1 n=a#4 v=35
34816 On ch=1 n=f#5 v=54
34956 Par ch=1 c=64 v=0
34956 Par ch=1 c=64 v=0
35085 Par ch=1 c=64 v=127
35085 Par ch=1 c=64 v=127
35328 Off ch=1 n=g#5 v=0
35328 Off ch=1 n=b5 v=0
35328 Off ch=1 n=d#6 v=0
35328 On ch=1 n=g#5 v=35
35328 On ch=1 n=b5 v=35
35328 On ch=1 n=d#6 v=42
35328 Off ch=1 n=a#4 v=0
35328 On ch=1 n=a#4 v=35
35584 Off ch=1 n=f#6 v=0
35584 On ch=1 n=f6 v=61
35584 Off ch=1 n=f#5 v=0
35584 On ch=1 n=f5 v=47
35654 Par ch=1 c=64 v=127
35840 Off ch=1 n=f6 v=0
35840 On ch=1 n=f6 v=59
35840 Off ch=1 n=g#5 v=0
35840 Off ch=1 n=b5 v=0
35840 Off ch=1 n=d#6 v=0
35840 On ch=1 n=g#5 v=28
35840 On ch=1 n=b5 v=28
35840 On ch=1 n=d#6 v=35
35840 Off ch=1 n=f5 v=0
35840 On ch=1 n=f5 v=47
35840 Off ch=1 n=a#4 v=0
35840 On ch=1 n=a#4 v=28
35895 Par ch=1 c=64 v=0
35902 Par ch=1 c=64 v=0
36042 Par ch=1 c=64 v=127
36117 Par ch=1 c=64 v=127
36352 Off ch=1 n=g#5 v=0
36352 Off ch=1 n=b5 v=0
36352 Off ch=1 n=d#6 v=0
36352 On ch=1 n=g#5 v=33
36352 On ch=1 n=d6 v=40
36352 Off ch=1 n=a#4 v=0
36352 On ch=1 n=a#4 v=35
36352 On ch=1 n=b5 v=61
36421 Par ch=1 c=64 v=0
36698 Par ch=1 c=64 v=127
36864 Off ch=1 n=g#5 v=0
36864 Off ch=1 n=d6 v=0
36864 On ch=1 n=g#5 v=33
36864 On ch=1 n=d6 v=40
36880 Par ch=1 c=64 v=0
37050 Par ch=1 c=64 v=127
37376 Off ch=1 n=g#5 v=0
37376 Off ch=1 n=d6 v=0
37376 On ch=1 n=g#5 v=33
37376 On ch=1 n=d6 v=40
37376 Off ch=1 n=a#4 v=0
37376 Off ch=1 n=b5 v=0
37376 On ch=1 n=a#4 v=26
37376 On ch=1 n=a#5 v=45
37445 Par ch=1 c=64 v=0
37639 Par ch=1 c=64 v=127
37888 Par ch=1 c=64 v=127
37888 Off ch=1 n=f6 v=0
37888 Off ch=1 n=g#5 v=0
37888 Off ch=1 n=d6 v=0
37888 Off ch=1 n=f5 v=0
37888 Off ch=1 n=a#4 v=0
37888 Off ch=1 n=a#5 v=0
37888 On ch=1 n=f#5 v=47
37888 On ch=1 n=a#5 v=47
37888 On ch=1 n=d#6 v=64
37888 On ch=1 n=d#5 v=47
37888 On ch=1 n=d#4 v=43
38074 Par ch=1 c=64 v=0
38151 Par ch=1 c=64 v=127
38400 Off ch=1 n=f#5 v=0
38400 Off ch=1 n=a#5 v=0
38400 Off ch=1 n=d#6 v=0
38400 On ch=1 n=f#5 v=46
38400 On ch=1 n=f6 v=64
38400 On ch=1 n=a#5 v=50
38400 Off ch=1 n=d#5 v=0
38400 On ch=1 n=c#5 v=47
38912 Off ch=1 n=f#5 v=0
38912 Off ch=1 n=f6 v=0
38912 On ch=1 n=d#6 v=48
38912 On ch=1 n=f#6 v=66
38912 Off ch=1 n=c#5 v=0
38912 On ch=1 n=c5 v=47
39424 Off ch=1 n=a#5 v=0
39424 On ch=1 n=d#6 v=47
39424 Off ch=1 n=d#6 v=0
39424 Off ch=1 n=f#6 v=0
39424 On ch=1 n=g#6 v=68
39424 On ch=1 n=a#5 v=44
39468 Par ch=1 c=64 v=0
39907 Par ch=1 c=64 v=127
39936 Off ch=1 n=g#6 v=0
39936 On ch=1 n=f#6 v=54
39936 On ch=1 n=a#6 v=74
40448 Off ch=1 n=d#6 v=0
40448 Off ch=1 n=f#6 v=0
40448 Off ch=1 n=a#6 v=0
40448 On ch=1 n=d#6 v=52
40448 On ch=1 n=a#6 v=52
40448 On ch=1 n=d#7 v=74
40448 Off ch=1 n=c5 v=0
40448 Off ch=1 n=a#5 v=0
40448 On ch=1 n=f#5 v=51
40960 Par ch=1 c=64 v=127
40960 Off ch=1 n=d#6 v=0
40960 Off ch=1 n=a#6 v=0
40960 Off ch=1 n=d#7 v=0
40960 Off ch=1 n=d#4 v=0
40960 Off ch=1 n=f#5 v=0
40960 On ch=1 n=c#7 v=80
40960 On ch=1 n=c#6 v=45
40960 On ch=1 n=a#6 v=45
40960 On ch=1 n=f#5 v=48
40960 On ch=1 n=f4 v=47
40960 On ch=1 n=a#4 v=47
41223 Par ch=1 c=64 v=0
41285 Par ch=1 c=64 v=127
41472 Off ch=1 n=c#6 v=0
41472 Off ch=1 n=a#6 v=0
41472 On ch=1 n=a#5 v=45
41472 On ch=1 n=c#6 v=45
41472 Off ch=1 n=f#5 v=0
41472 On ch=1 n=f5 v=48
41728 Off ch=1 n=c#7 v=0
41728 On ch=1 n=a#6 v=70
41984 Off ch=1 n=a#5 v=0
41984 Off ch=1 n=c#6 v=0
41984 On ch=1 n=a#5 v=45
41984 On ch=1 n=c#6 v=45
41984 Off ch=1 n=a#6 v=0
41984 On ch=1 n=a#6 v=70
41984 Off ch=1 n=f5 v=0
41984 On ch=1 n=e5 v=48
42496 Off ch=1 n=a#5 v=0
42496 Off ch=1 n=c#6 v=0
42496 On ch=1 n=a#5 v=45
42496 On ch=1 n=c#6 v=45
42496 Off ch=1 n=e5 v=0
42496 On ch=1 n=f5 v=50
43008 Off ch=1 n=a#5 v=0
43008 Off ch=1 n=c#6 v=0
43008 On ch=1 n=f#5 v=45
43008 On ch=1 n=a#5 v=45
43008 Off ch=1 n=a#6 v=0
43008 On ch=1 n=f#6 v=70
43008 Off ch=1 n=f4 v=0
43008 Off ch=1 n=a#4 v=0
43008 On ch=1 n=d#4 v=49
43008 Off ch=1 n=f5 v=0
43008 On ch=1 n=f5 v=55
43142 Par ch=1 c=64 v=0
43372 Par ch=1 c=64 v=127
43520 Off ch=1 n=f#5 v=0
43520 Off ch=1 n=a#5 v=0
43520 On ch=1 n=f#5 v=45
43520 On ch=1 n=a#5 v=45
43520 Off ch=1 n=f5 v=0
43520 On ch=1 n=a#4 v=48
44032 Par ch=1 c=64 v=127
44032 Off ch=1 n=f#5 v=0
44032 Off ch=1 n=a#5 v=0
44032 Off ch=1 n=f#6 v=0
44032 Off ch=1 n=d#4 v=0
44032 Off ch=1 n=a#4 v=0
44032 On ch=1 n=f6 v=66
44032 On ch=1 n=f5 v=47
44032 On ch=1 n=a#5 v=47
44032 On ch=1 n=c5 v=51
44032 On ch=1 n=c#4 v=51
44171 Par ch=1 c=64 v=0
44264 Par ch=1 c=64 v=127
44544 Off ch=1 n=f5 v=0
44544 Off ch=1 n=a#5 v=0
44544 On ch=1 n=a#5 v=42
44544 Off ch=1 n=c5 v=0
44544 On ch=1 n=c#5 v=56
44800 Off ch=1 n=f6 v=0
44800 On ch=1 n=c#6 v=59
45056 Off ch=1 n=a#5 v=0
45056 On ch=1 n=a#5 v=42
45056 Off ch=1 n=c#6 v=0
45056 On ch=1 n=c#6 v=56
45056 Off ch=1 n=c#5 v=0
45056 On ch=1 n=f#5 v=61
45163 Par ch=1 c=64 v=0
45333 Par ch=1 c=64 v=127
45568 Off ch=1 n=a#5 v=0
45568 On ch=1 n=a#5 v=37
45568 Off ch=1 n=f#5 v=0
45568 On ch=1 n=f5 v=56
46080 Off ch=1 n=a#5 v=0
46080 On ch=1 n=f#5 v=33
46080 On ch=1 n=a5 v=33
46080 On ch=1 n=d#6 v=31
46080 Off ch=1 n=c#6 v=0
46080 On ch=1 n=f6 v=61
46080 Off ch=1 n=c#4 v=0
46080 On ch=1 n=d#4 v=44
46080 Off ch=1 n=f5 v=0
46080 On ch=1 n=c#5 v=47
46187 Par ch=1 c=64 v=0
46400 Par ch=1 c=64 v=127
46592 Off ch=1 n=f#5 v=0
46592 Off ch=1 n=a5 v=0
46592 Off ch=1 n=d#6 v=0
46592 On ch=1 n=f#5 v=26
46592 On ch=1 n=a5 v=26
46592 On ch=1 n=d#6 v=24
46592 Off ch=1 n=c#5 v=0
46592 On ch=1 n=c5 v=38
46682 Par ch=1 c=64 v=0
46869 Par ch=1 c=64 v=127
47104 Par ch=1 c=64 v=127
47104 Off ch=1 n=f#5 v=0
47104 Off ch=1 n=a5 v=0
47104 Off ch=1 n=d#6 v=0
47104 Off ch=1 n=f6 v=0
47104 Off ch=1 n=d#4 v=0
47104 Off ch=1 n=c5 v=0
47104 On ch=1 n=c#5 v=35
47104 On ch=1 n=f5 v=35
47104 On ch=1 n=c#6 v=55
47104 On ch=1 n=a#3 v=27
47104 On ch=1 n=f4 v=20
47104 On ch=1 n=a#4 v=20
47290 Par ch=1 c=64 v=0
47339 Par ch=1 c=64 v=0
47484 Par ch=1 c=64 v=127
47616 Off ch=1 n=c#5 v=0
47616 Off ch=1 n=f5 v=0
47616 On ch=1 n=c#5 v=35
47616 On ch=1 n=f5 v=35
47616 Off ch=1 n=f4 v=0
47616 Off ch=1 n=a#4 v=0
47616 On ch=1 n=f4 v=27
47616 On ch=1 n=a#4 v=27
47872 Off ch=1 n=c#6 v=0
47872 On ch=1 n=a#5 v=49
47952 Par ch=1 c=64 v=127
48128 Off ch=1 n=a#5 v=0
48128 On ch=1 n=a#5 v=48
48128 Off ch=1 n=c#5 v=0
48128 Off ch=1 n=f5 v=0
48128 On ch=1 n=c#5 v=35
48128 On ch=1 n=f5 v=35
48128 Off ch=1 n=f4 v=0
48128 Off ch=1 n=a#4 v=0
48128 On ch=1 n=f4 v=26
48128 On ch=1 n=a#4 v=26
48640 Off ch=1 n=c#5 v=0
48640 Off ch=1 n=f5 v=0
48640 On ch=1 n=f5 v=33
48640 Off ch=1 n=a#3 v=0
48640 Off ch=1 n=f4 v=0
48640 Off ch=1 n=a#4 v=0
48640 On ch=1 n=f4 v=24
49152 Off ch=1 n=a#5 v=0
49152 Off ch=1 n=f5 v=0
49152 On ch=1 n=f5 v=33
49152 Off ch=1 n=f4 v=0
49152 On ch=1 n=f4 v=23
49664 Off ch=1 n=f5 v=0
49664 On ch=1 n=f5 v=33
49664 Off ch=1 n=f4 v=0
49664 On ch=1 n=f4 v=22
50176 Par ch=1 c=64 v=127
50176 Off ch=1 n=f5 v=0
50176 Off ch=1 n=f4 v=0
50176 On ch=1 n=d5 v=23
50176 On ch=1 n=g#5 v=23
50176 On ch=1 n=a#5 v=44
50176 On ch=1 n=a#3 v=24
50176 On ch=1 n=f4 v=19
50326 Par ch=1 c=64 v=0
50476 Par ch=1 c=64 v=127
50688 Off ch=1 n=d5 v=0
50688 Off ch=1 n=g#5 v=0
50688 Off ch=1 n=a#5 v=0
50688 On ch=1 n=d#5 v=26
50688 On ch=1 n=g#5 v=26
50688 On ch=1 n=c6 v=47
50688 Off ch=1 n=f4 v=0
50688 On ch=1 n=f4 v=19
50825 Par ch=1 c=64 v=0
51050 Par ch=1 c=64 v=127
51072 On ch=1 n=d6 v=40
51200 Off ch=1 n=d#5 v=0
51200 Off ch=1 n=g#5 v=0
51200 Off ch=1 n=c6 v=0
51200 Off ch=1 n=d6 v=0
51200 On ch=1 n=d#5 v=29
51200 On ch=1 n=g#5 v=29
51200 On ch=1 n=c6 v=50
51200 Off ch=1 n=f4 v=0
51200 On ch=1 n=f4 v=19
51325 Par ch=1 c=64 v=0
51525 Par ch=1 c=64 v=127
51712 Off ch=1 n=d#5 v=0
51712 Off ch=1 n=g#5 v=0
51712 Off ch=1 n=c6 v=0
51712 On ch=1 n=d#5 v=26
51712 On ch=1 n=g#5 v=26
51712 On ch=1 n=b5 v=48
51712 Off ch=1 n=f4 v=0
51712 On ch=1 n=f4 v=19
51849 Par ch=1 c=64 v=0
52024 Par ch=1 c=64 v=127
52224 Off ch=1 n=d#5 v=0
52224 Off ch=1 n=g#5 v=0
52224 Off ch=1 n=b5 v=0
52224 On ch=1 n=d#5 v=29
52224 On ch=1 n=g#5 v=29
52224 On ch=1 n=c6 v=50
52224 Off ch=1 n=f4 v=0
52224 On ch=1 n=f4 v=19
52349 Par ch=1 c=64 v=0
52624 Par ch=1 c=64 v=127
52666 Off ch=1 n=d#5 v=0
52676 On ch=1 n=d#5 v=31
52736 Off ch=1 n=g#5 v=0
52736 Off ch=1 n=c6 v=0
52736 On ch=1 n=g#5 v=31
52736 On ch=1 n=c6 v=38
52736 On ch=1 n=f6 v=52
52736 Off ch=1 n=f4 v=0
52736 On ch=1 n=f4 v=19
53248 Off ch=1 n=d#5 v=0
53248 Off ch=1 n=g#5 v=0
53248 Off ch=1 n=c6 v=0
53248 Off ch=1 n=f6 v=0
53248 Off ch=1 n=a#3 v=0
53248 Off ch=1 n=f4 v=0
53248 On ch=1 n=d#5 v=28
53248 On ch=1 n=g#5 v=33
53248 On ch=1 n=c6 v=55
53248 On ch=1 n=a#3 v=24
53248 On ch=1 n=f4 v=19
53276 Par ch=1 c=64 v=127
53414 Par ch=1 c=64 v=0
53608 Par ch=1 c=64 v=127
53760 Off ch=1 n=d#5 v=0
53760 Off ch=1 n=g#5 v=0
53760 On ch=1 n=d#5 v=26
53760 On ch=1 n=g#5 v=31
53760 Off ch=1 n=f4 v=0
53760 On ch=1 n=f4 v=19
54016 Off ch=1 n=c6 v=0
54016 On ch=1 n=a#5 v=47
54272 Off ch=1 n=a#5 v=0
54272 On ch=1 n=a#5 v=46
54272 Off ch=1 n=d#5 v=0
54272 Off ch=1 n=g#5 v=0
54272 On ch=1 n=d5 v=20
54272 On ch=1 n=g#5 v=25
54272 Off ch=1 n=f4 v=0
54272 On ch=1 n=f4 v=19
54383 Par ch=1 c=64 v=0
54632 Par ch=1 c=64 v=127
54784 Off ch=1 n=d5 v=0
54784 Off ch=1 n=g#5 v=0
54784 On ch=1 n=d5 v=20
54784 On ch=1 n=g#5 v=24
54784 Off ch=1 n=f4 v=0
54784 On ch=1 n=f4 v=19
55296 Off ch=1 n=d5 v=0
55296 Off ch=1 n=g#5 v=0
55296 On ch=1 n=d5 v=18
55296 On ch=1 n=g#5 v=23
55296 Off ch=1 n=f4 v=0
55296 On ch=1 n=f4 v=19
55808 Off ch=1 n=d5 v=0
55808 Off ch=1 n=g#5 v=0
55808 On ch=1 n=d5 v=18
55808 On ch=1 n=g#5 v=22
55808 Off ch=1 n=f4 v=0
55808 On ch=1 n=f4 v=19
56320 Par ch=1 c=64 v=127
56320 Off ch=1 n=a#5 v=0
56320 Off ch=1 n=d5 v=0
56320 Off ch=1 n=g#5 v=0
56320 Off ch=1 n=a#3 v=0
56320 Off ch=1 n=f4 v=0
56320 On ch=1 n=d5 v=23
56320 On ch=1 n=g#5 v=23
56320 On ch=1 n=a#5 v=44
56320 On ch=1 n=a#3 v=17
56320 On ch=1 n=f4 v=12
56470 Par ch=1 c=64 v=0
56620 Par ch=1 c=64 v=127
56832 Off ch=1 n=d5 v=0
56832 Off ch=1 n=g#5 v=0
56832 Off ch=1 n=a#5 v=0
56832 On ch=1 n=d#5 v=19
56832 On ch=1 n=g#5 v=19
56832 On ch=1 n=c6 v=40
56832 Off ch=1 n=f4 v=0
56832 On ch=1 n=f4 v=12
56969 Par ch=1 c=64 v=0
57194 Par ch=1 c=64 v=127
57216 On ch=1 n=d6 v=33
57344 Off ch=1 n=d#5 v=0
57344 Off ch=1 n=g#5 v=0
57344 Off ch=1 n=c6 v=0
57344 Off ch=1 n=d6 v=0
57344 On ch=1 n=d#5 v=22
57344 On ch=1 n=g#5 v=22
57344 On ch=1 n=c6 v=43
57344 Off ch=1 n=f4 v=0
57344 On ch=1 n=f4 v=12
57469 Par ch=1 c=64 v=0
57669 Par ch=1 c=64 v=127
57856 Off ch=1 n=d#5 v=0
57856 Off ch=1 n=g#5 v=0
57856 Off ch=1 n=c6 v=0
57856 On ch=1 n=d#5 v=19
57856 On ch=1 n=g#5 v=19
57856 On ch=1 n=b5 v=41
57856 Off ch=1 n=f4 v=0
57856 On ch=1 n=f4 v=12
57993 Par ch=1 c=64 v=0
58168 Par ch=1 c=64 v=127
58368 Off ch=1 n=d#5 v=0
58368 Off ch=1 n=g#5 v=0
58368 Off ch=1 n=b5 v=0
58368 On ch=1 n=d#5 v=19
58368 On ch=1 n=g#5 v=19
58368 On ch=1 n=c6 v=45
58368 Off ch=1 n=f4 v=0
58368 On ch=1 n=f4 v=12
58493 Par ch=1 c=64 v=0
58709 Off ch=1 n=c6 v=0
58709 On ch=1 n=g6 v=48
58768 Par ch=1 c=64 v=127
58880 Off ch=1 n=d#5 v=0
58880 Off ch=1 n=g#5 v=0
58880 On ch=1 n=d#5 v=17
58880 On ch=1 n=g#5 v=17
58880 On ch=1 n=c6 v=24
58880 Off ch=1 n=f4 v=0
58880 On ch=1 n=f4 v=12
59051 Off ch=1 n=g6 v=0
59051 On ch=1 n=f6 v=48
59231 Off ch=1 n=d#5 v=0
59231 Off ch=1 n=g#5 v=0
59232 On ch=1 n=d#5 v=21
59312 On ch=1 n=g#5 v=26
59392 Off ch=1 n=f6 v=0
59392 Off ch=1 n=c6 v=0
59392 Off ch=1 n=a#3 v=0
59392 Off ch=1 n=f4 v=0
59392 On ch=1 n=c6 v=21
59392 On ch=1 n=f6 v=50
59392 On ch=1 n=a#3 v=17
59392 On ch=1 n=f4 v=12
59420 Par ch=1 c=64 v=127
59558 Par ch=1 c=64 v=0
59752 Par ch=1 c=64 v=127
59904 Off ch=1 n=d#5 v=0
59904 Off ch=1 n=g#5 v=0
59904 Off ch=1 n=c6 v=0
59904 On ch=1 n=d#5 v=19
59904 On ch=1 n=g#5 v=24
59904 On ch=1 n=c6 v=19
59904 Off ch=1 n=f4 v=0
59904 On ch=1 n=f4 v=12
60160 Off ch=1 n=f6 v=0
60160 On ch=1 n=a#5 v=43
60416 Off ch=1 n=a#5 v=0
60416 On ch=1 n=a#5 v=42
60416 Off ch=1 n=d#5 v=0
60416 Off ch=1 n=g#5 v=0
60416 Off ch=1 n=c6 v=0
60416 On ch=1 n=d5 v=13
60416 On ch=1 n=g#5 v=18
60416 Off ch=1 n=f4 v=0
60416 On ch=1 n=f4 v=12
60527 Par ch=1 c=64 v=0
60776 Par ch=1 c=64 v=127
60928 Off ch=1 n=d5 v=0
60928 Off ch=1 n=g#5 v=0
60928 On ch=1 n=d5 v=13
60928 On ch=1 n=g#5 v=17
60928 Off ch=1 n=f4 v=0
60928 On ch=1 n=f4 v=12
61440 Off ch=1 n=d5 v=0
61440 Off ch=1 n=g#5 v=0
61440 On ch=1 n=d5 v=11
61440 On ch=1 n=g#5 v=16
61440 Off ch=1 n=f4 v=0
61440 On ch=1 n=f4 v=12
61952 Off ch=1 n=d5 v=0
61952 Off ch=1 n=g#5 v=0
61952 On ch=1 n=d5 v=11
61952 On ch=1 n=g#5 v=15
61952 Off ch=1 n=f4 v=0
61952 On ch=1 n=f4 v=12
62464 Par ch=1 c=64 v=127
62464 Off ch=1 n=a#5 v=0
62464 Off ch=1 n=d5 v=0
62464 Off ch=1 n=g#5 v=0
62464 Off ch=1 n=a#3 v=0
62464 Off ch=1 n=f4 v=0
62464 On ch=1 n=c#5 v=37
62464 On ch=1 n=a#5 v=47
62464 On ch=1 n=d#6 v=55
62464 On ch=1 n=d#4 v=16
62464 On ch=1 n=g4 v=22
62614 Par ch=1 c=64 v=0
62764 Par ch=1 c=64 v=127
62976 Off ch=1 n=c#5 v=0
62976 Off ch=1 n=a#5 v=0
62976 On ch=1 n=c#5 v=37
62976 On ch=1 n=c6 v=48
62976 Off ch=1 n=g4 v=0
62976 On ch=1 n=g4 v=23
63113 Par ch=1 c=64 v=0
63338 Par ch=1 c=64 v=127
63360 On ch=1 n=c#6 v=42
63488 Off ch=1 n=c#5 v=0
63488 Off ch=1 n=c6 v=0
63488 Off ch=1 n=c#6 v=0
63488 On ch=1 n=c#5 v=38
63488 On ch=1 n=c6 v=48
63488 Off ch=1 n=g4 v=0
63488 On ch=1 n=g4 v=24
63613 Par ch=1 c=64 v=0
63813 Par ch=1 c=64 v=127
64000 Off ch=1 n=c#5 v=0
64000 Off ch=1 n=c6 v=0
64000 On ch=1 n=c#5 v=34
64000 On ch=1 n=a#5 v=45
64000 Off ch=1 n=g4 v=0
64000 On ch=1 n=g4 v=26
64137 Par ch=1 c=64 v=0
64312 Par ch=1 c=64 v=127
64512 Off ch=1 n=d#6 v=0
64512 On ch=1 n=d#6 v=50
64512 Off ch=1 n=c#5 v=0
64512 Off ch=1 n=a#5 v=0
64512 On ch=1 n=c#5 v=39
64512 On ch=1 n=a5 v=50
64512 Off ch=1 n=d#4 v=0
64512 Off ch=1 n=g4 v=0
64512 On ch=1 n=f#4 v=27
64512 On ch=1 n=g#3 v=16
64637 Par ch=1 c=64 v=0
64912 Par ch=1 c=64 v=127
65024 Off ch=1 n=c#5 v=0
65024 Off ch=1 n=a5 v=0
65024 On ch=1 n=c5 v=31
65024 On ch=1 n=g#5 v=40
65024 Off ch=1 n=f#4 v=0
65024 On ch=1 n=f#4 v=29
65161 Par ch=1 c=64 v=0
65395 Par ch=1 c=64 v=127
65536 Par ch=1 c=64 v=127
65536 Off ch=1 n=d#6 v=0
65536 Off ch=1 n=c5 v=0
65536 Off ch=1 n=g#5 v=0
65536 Off ch=1 n=f#4 v=0
65536 Off ch=1 n=g#3 v=0
65536 On ch=1 n=b4 v=40
65536 On ch=1 n=g#5 v=51
65536 On ch=1 n=d6 v=58
65536 On ch=1 n=c#4 v=19
65536 On ch=1 n=f4 v=30
65686 Par ch=1 c=64 v=0
65836 Par ch=1 c=64 v=127
66048 Off ch=1 n=b4 v=0
66048 Off ch=1 n=g#5 v=0
66048 On ch=1 n=b4 v=40
66048 On ch=1 n=a5 v=52
66048 Off ch=1 n=f4 v=0
66048 On ch=1 n=f4 v=31
66185 Par ch=1 c=64 v=0
66410 Par ch=1 c=64 v=127
66432 On ch=1 n=b5 v=46
66560 Off ch=1 n=d6 v=0
66560 On ch=1 n=c#6 v=59
66560 Off ch=1 n=b4 v=0
66560 Off ch=1 n=a5 v=0
66560 Off ch=1 n=b5 v=0
66560 On ch=1 n=b4 v=41
66560 On ch=1 n=a5 v=52
66560 Off ch=1 n=f4 v=0
66560 On ch=1 n=f4 v=32
66685 Par ch=1 c=64 v=0
66885 Par ch=1 c=64 v=127
67072 Off ch=1 n=b4 v=0
67072 Off ch=1 n=a5 v=0
67072 On ch=1 n=b4 v=37
67072 On ch=1 n=g#5 v=49
67072 Off ch=1 n=f4 v=0
67072 On ch=1 n=f4 v=35
67209 Par ch=1 c=64 v=0
67384 Par ch=1 c=64 v=127
67584 Off ch=1 n=c#6 v=0
67584 On ch=1 n=c#6 v=61
67584 Off ch=1 n=b4 v=0
67584 Off ch=1 n=g#5 v=0
67584 On ch=1 n=b4 v=42
67584 On ch=1 n=g#5 v=54
67584 Off ch=1 n=c#4 v=0
67584 Off ch=1 n=f4 v=0
67584 On ch=1 n=c#4 v=25
67584 On ch=1 n=f4 v=36
67584 On ch=1 n=f#3 v=25
67709 Par ch=1 c=64 v=0
67984 Par ch=1 c=64 v=127
68096 Off ch=1 n=b4 v=0
68096 Off ch=1 n=g#5 v=0
68096 On ch=1 n=a#4 v=34
68096 On ch=1 n=f#5 v=44
68096 Off ch=1 n=c#4 v=0
68096 Off ch=1 n=f4 v=0
68096 On ch=1 n=c#4 v=26
68096 On ch=1 n=f#4 v=38
68233 Par ch=1 c=64 v=0
68467 Par ch=1 c=64 v=127
68608 Par ch=1 c=64 v=127
68608 Off ch=1 n=c#6 v=0
68608 Off ch=1 n=a#4 v=0
68608 Off ch=1 n=f#5 v=0
68608 Off ch=1 n=c#4 v=0
68608 Off ch=1 n=f#4 v=0
68608 Off ch=1 n=f#3 v=0
68608 On ch=1 n=f#4 v=42
68608 On ch=1 n=c5 v=42
68608 On ch=1 n=f5 v=52
68608 On ch=1 n=g#3 v=28
68758 Par ch=1 c=64 v=0
68908 Par ch=1 c=64 v=127
69120 Off ch=1 n=f#4 v=0
69120 Off ch=1 n=c5 v=0
69120 Off ch=1 n=f5 v=0
69120 On ch=1 n=f#4 v=38
69120 On ch=1 n=c5 v=38
69120 On ch=1 n=d#5 v=48
69120 Off ch=1 n=g#3 v=0
69120 On ch=1 n=g#3 v=31
69257 Par ch=1 c=64 v=0
69482 Par ch=1 c=64 v=127
69504 On ch=1 n=f5 v=44
69632 Off ch=1 n=f#4 v=0
69632 Off ch=1 n=c5 v=0
69632 Off ch=1 n=d#5 v=0
69632 Off ch=1 n=f5 v=0
69632 On ch=1 n=f#4 v=39
69632 On ch=1 n=c5 v=39
69632 On ch=1 n=d#5 v=50
69632 Off ch=1 n=g#3 v=0
69632 On ch=1 n=g#3 v=34
69757 Par ch=1 c=64 v=0
69957 Par ch=1 c=64 v=127
70144 Off ch=1 n=f#4 v=0
70144 Off ch=1 n=c5 v=0
70144 Off ch=1 n=d#5 v=0
70144 On ch=1 n=f#4 v=35
70144 On ch=1 n=c5 v=35
70144 On ch=1 n=d5 v=47
70144 Off ch=1 n=g#3 v=0
70144 On ch=1 n=g#3 v=35
70281 Par ch=1 c=64 v=0
70456 Par ch=1 c=64 v=127
70656 Off ch=1 n=f#4 v=0
70656 Off ch=1 n=c5 v=0
70656 Off ch=1 n=d5 v=0
70656 On ch=1 n=f#4 v=41
70656 On ch=1 n=c5 v=41
70656 On ch=1 n=d5 v=52
70656 Off ch=1 n=g#3 v=0
70656 On ch=1 n=a3 v=43
70781 Par ch=1 c=64 v=0
71056 Par ch=1 c=64 v=127
71168 Off ch=1 n=f#4 v=0
71168 Off ch=1 n=c5 v=0
71168 Off ch=1 n=d5 v=0
71168 On ch=1 n=f#4 v=37
71168 On ch=1 n=c5 v=37
71168 On ch=1 n=d#5 v=49
71168 Off ch=1 n=a3 v=0
71168 On ch=1 n=a3 v=39
71305 Par ch=1 c=64 v=0
71539 Par ch=1 c=64 v=127
71680 Par ch=1 c=64 v=127
71680 Off ch=1 n=f#4 v=0
71680 Off ch=1 n=c5 v=0
71680 Off ch=1 n=d#5 v=0
71680 Off ch=1 n=a3 v=0
71680 On ch=1 n=f#4 v=47
71680 On ch=1 n=c5 v=47
71680 On ch=1 n=f5 v=58
71680 On ch=1 n=g#3 v=31
71830 Par ch=1 c=64 v=0
71980 Par ch=1 c=64 v=127
72192 Off ch=1 n=f#4 v=0
72192 Off ch=1 n=c5 v=0
72192 Off ch=1 n=f5 v=0
72192 On ch=1 n=f#4 v=42
72192 On ch=1 n=c5 v=42
72192 On ch=1 n=d#5 v=54
72192 Off ch=1 n=g#3 v=0
72192 On ch=1 n=g#3 v=34
72329 Par ch=1 c=64 v=0
72554 Par ch=1 c=64 v=127
72576 On ch=1 n=f5 v=48
72704 Off ch=1 n=f#4 v=0
72704 Off ch=1 n=c5 v=0
72704 Off ch=1 n=d#5 v=0
72704 Off ch=1 n=f5 v=0
72704 On ch=1 n=f#4 v=43
72704 On ch=1 n=c5 v=43
72704 On ch=1 n=d#5 v=56
72704 Off ch=1 n=g#3 v=0
72704 On ch=1 n=g#3 v=36
72829 Par ch=1 c=64 v=0
73029 Par ch=1 c=64 v=127
73216 Off ch=1 n=f#4 v=0
73216 Off ch=1 n=c5 v=0
73216 Off ch=1 n=d#5 v=0
73216 On ch=1 n=f#4 v=40
73216 On ch=1 n=c5 v=40
73216 On ch=1 n=d5 v=52
73216 Off ch=1 n=g#3 v=0
73216 On ch=1 n=g#3 v=38
73353 Par ch=1 c=64 v=0
73528 Par ch=1 c=64 v=127
73728 Off ch=1 n=f#4 v=0
73728 Off ch=1 n=c5 v=0
73728 Off ch=1 n=d5 v=0
73728 On ch=1 n=f#4 v=46
73728 On ch=1 n=c5 v=46
73728 On ch=1 n=d5 v=59
73728 Off ch=1 n=g#3 v=0
73728 On ch=1 n=a3 v=46
73853 Par ch=1 c=64 v=0
74128 Par ch=1 c=64 v=127
74240 Off ch=1 n=f#4 v=0
74240 Off ch=1 n=c5 v=0
74240 Off ch=1 n=d5 v=0
74240 On ch=1 n=f#4 v=42
74240 On ch=1 n=c5 v=42
74240 On ch=1 n=d#5 v=56
74240 Off ch=1 n=a3 v=0
74240 On ch=1 n=a3 v=41
74377 Par ch=1 c=64 v=0
74611 Par ch=1 c=64 v=127
74752 Par ch=1 c=64 v=127
74752 Off ch=1 n=f#4 v=0
74752 Off ch=1 n=c5 v=0
74752 Off ch=1 n=d#5 v=0
74752 Off ch=1 n=a3 v=0
74752 On ch=1 n=f#4 v=53
74752 On ch=1 n=c5 v=53
74752 On ch=1 n=e5 v=66
74752 On ch=1 n=g#3 v=33
74752 On ch=1 n=a4 v=59
74902 Par ch=1 c=64 v=0
75052 Par ch=1 c=64 v=127
75264 Off ch=1 n=f#4 v=0
75264 Off ch=1 n=c5 v=0
75264 Off ch=1 n=e5 v=0
75264 On ch=1 n=f#4 v=47
75264 On ch=1 n=c5 v=47
75264 On ch=1 n=d#5 v=61
75264 Off ch=1 n=g#3 v=0
75264 On ch=1 n=g#3 v=35
75401 Par ch=1 c=64 v=0
75626 Par ch=1 c=64 v=127
75648 On ch=1 n=e5 v=53
75776 Off ch=1 n=f#4 v=0
75776 Off ch=1 n=c5 v=0
75776 Off ch=1 n=d#5 v=0
75776 Off ch=1 n=e5 v=0
75776 On ch=1 n=f#4 v=48
75776 On ch=1 n=c5 v=48
75776 On ch=1 n=d#5 v=61
75776 Off ch=1 n=g#3 v=0
75776 On ch=1 n=g#3 v=38
75901 Par ch=1 c=64 v=0
76101 Par ch=1 c=64 v=127
76288 Off ch=1 n=f#4 v=0
76288 Off ch=1 n=c5 v=0
76288 Off ch=1 n=d#5 v=0
76288 On ch=1 n=f#4 v=43
76288 On ch=1 n=c5 v=43
76288 On ch=1 n=d5 v=56
76288 Off ch=1 n=g#3 v=0
76288 On ch=1 n=g#3 v=40
76425 Par ch=1 c=64 v=0
76600 Par ch=1 c=64 v=127
76800 Off ch=1 n=f#4 v=0
76800 Off ch=1 n=c5 v=0
76800 Off ch=1 n=d5 v=0
76800 On ch=1 n=f#4 v=49
76800 On ch=1 n=c5 v=49
76800 On ch=1 n=d#5 v=63
76800 Off ch=1 n=a4 v=0
76800 On ch=1 n=g#4 v=49
76800 Off ch=1 n=g#3 v=0
76800 On ch=1 n=g#3 v=43
76925 Par ch=1 c=64 v=0
77200 Par ch=1 c=64 v=127
77312 Off ch=1 n=f#4 v=0
77312 Off ch=1 n=c5 v=0
77312 Off ch=1 n=d#5 v=0
77312 On ch=1 n=f#4 v=53
77312 On ch=1 n=c5 v=53
77312 On ch=1 n=e5 v=67
77312 Off ch=1 n=g#3 v=0
77312 On ch=1 n=g#3 v=39
77449 Par ch=1 c=64 v=0
77564 Off ch=1 n=g#4 v=0
77564 Off ch=1 n=g#3 v=0
77654 On ch=1 n=c#3 v=47
77683 Par ch=1 c=64 v=127
77739 On ch=1 n=g#3 v=47
77824 Par ch=1 c=64 v=127
77824 Par ch=1 c=64 v=127
77824 Par ch=1 c=64 v=0
77824 Off ch=1 n=f#4 v=0
77824 Off ch=1 n=c5 v=0
77824 Off ch=1 n=e5 v=0
77824 On ch=1 n=e4 v=47
77824 On ch=1 n=c#5 v=64
77824 On ch=1 n=g#4 v=59
78010 Par ch=1 c=64 v=0
78056 Par ch=1 c=64 v=127
78336 Off ch=1 n=e4 v=0
78336 Off ch=1 n=c#5 v=0
78336 On ch=1 n=d#5 v=66
78336 On ch=1 n=e4 v=43
78336 Off ch=1 n=g#3 v=0
78336 Off ch=1 n=g#4 v=0
78336 On ch=1 n=g#3 v=38
78336 On ch=1 n=g#4 v=50
78848 Off ch=1 n=d#5 v=0
78848 On ch=1 n=c#5 v=51
78848 On ch=1 n=e5 v=65
78848 Off ch=1 n=g#3 v=0
78848 Off ch=1 n=g#4 v=0
78848 On ch=1 n=g#3 v=39
78848 On ch=1 n=g#4 v=51
78895 Par ch=1 c=64 v=0
79081 Par ch=1 c=64 v=127
79360 Off ch=1 n=e4 v=0
79360 On ch=1 n=c#5 v=43
79360 Off ch=1 n=c#5 v=0
79360 Off ch=1 n=e5 v=0
79360 On ch=1 n=f#5 v=68
79360 Off ch=1 n=g#3 v=0
79360 Off ch=1 n=g#4 v=0
79360 On ch=1 n=g#3 v=40
79360 On ch=1 n=g#4 v=52
79872 Off ch=1 n=f#5 v=0
79872 On ch=1 n=e5 v=54
79872 On ch=1 n=g#5 v=70
79872 Off ch=1 n=c#3 v=0
79872 Off ch=1 n=g#4 v=0
79872 On ch=1 n=c#3 v=41
79950 Par ch=1 c=64 v=0
80105 Par ch=1 c=64 v=127
80384 Off ch=1 n=c#5 v=0
80384 Off ch=1 n=e5 v=0
80384 Off ch=1 n=g#5 v=0
80384 On ch=1 n=c#5 v=58
80384 On ch=1 n=e5 v=58
80384 On ch=1 n=c#6 v=75
80384 Off ch=1 n=c#3 v=0
80384 Off ch=1 n=g#3 v=0
80384 On ch=1 n=g#3 v=43
80384 On ch=1 n=g#4 v=55
80704 On ch=1 n=c#3 v=44
80768 On ch=1 n=f#3 v=44
80832 On ch=1 n=c#4 v=44
80896 Off ch=1 n=c#5 v=0
80896 Off ch=1 n=e5 v=0
80896 Off ch=1 n=c#6 v=0
80896 Off ch=1 n=g#3 v=0
80896 Off ch=1 n=g#4 v=0
80896 On ch=1 n=b5 v=78
80896 On ch=1 n=b4 v=43
80896 On ch=1 n=c#5 v=43
80896 On ch=1 n=f#5 v=43
80896 On ch=1 n=f#4 v=56
81036 Par ch=1 c=64 v=0
81165 Par ch=1 c=64 v=127
81408 Off ch=1 n=b4 v=0
81408 Off ch=1 n=c#5 v=0
81408 Off ch=1 n=f#5 v=0
81408 On ch=1 n=b4 v=43
81408 On ch=1 n=f#5 v=43
81408 Off ch=1 n=f#3 v=0
81408 Off ch=1 n=c#4 v=0
81408 Off ch=1 n=f#4 v=0
81408 On ch=1 n=c#4 v=37
81408 On ch=1 n=f#4 v=37
81408 On ch=1 n=c#5 v=49
81664 Off ch=1 n=b5 v=0
81664 On ch=1 n=a5 v=67
81920 Off ch=1 n=b4 v=0
81920 Off ch=1 n=f#5 v=0
81920 On ch=1 n=a4 v=43
81920 On ch=1 n=f#5 v=43
81920 Off ch=1 n=a5 v=0
81920 On ch=1 n=a5 v=67
81920 Off ch=1 n=c#4 v=0
81920 Off ch=1 n=f#4 v=0
81920 Off ch=1 n=c#5 v=0
81920 On ch=1 n=c#4 v=37
81920 On ch=1 n=f#4 v=37
81920 On ch=1 n=c#5 v=49
82432 Off ch=1 n=a4 v=0
82432 Off ch=1 n=f#5 v=0
82432 On ch=1 n=a4 v=43
82432 On ch=1 n=f#5 v=43
82432 Off ch=1 n=c#4 v=0
82432 Off ch=1 n=f#4 v=0
82432 Off ch=1 n=c#5 v=0
82432 On ch=1 n=c#4 v=37
82432 On ch=1 n=f#4 v=37
82432 On ch=1 n=c#5 v=49
82944 Off ch=1 n=a4 v=0
82944 Off ch=1 n=f#5 v=0
82944 On ch=1 n=a4 v=43
82944 On ch=1 n=f#5 v=43
82944 Off ch=1 n=c#4 v=0
82944 Off ch=1 n=f#4 v=0
82944 Off ch=1 n=c#5 v=0
82944 On ch=1 n=c#4 v=37
82944 On ch=1 n=f#4 v=37
82944 On ch=1 n=c#5 v=49
83456 Off ch=1 n=a4 v=0
83456 Off ch=1 n=f#5 v=0
83456 On ch=1 n=a4 v=43
83456 On ch=1 n=f#5 v=43
83456 Off ch=1 n=c#3 v=0
83456 Off ch=1 n=c#4 v=0
83456 Off ch=1 n=f#4 v=0
83456 Off ch=1 n=c#5 v=0
83456 On ch=1 n=c#4 v=37
83456 On ch=1 n=f#4 v=37
83456 On ch=1 n=c#5 v=49
83968 Par ch=1 c=64 v=127
83968 Par ch=1 c=64 v=127
83968 Off ch=1 n=a4 v=0
83968 Off ch=1 n=f#5 v=0
83968 Off ch=1 n=a5 v=0
83968 Off ch=1 n=c#4 v=0
83968 Off ch=1 n=f#4 v=0
83968 Off ch=1 n=c#5 v=0
83968 On ch=1 n=f#4 v=47
83968 On ch=1 n=c#5 v=47
83968 On ch=1 n=f#5 v=70
83968 On ch=1 n=a3 v=37
83968 On ch=1 n=a4 v=56
83968 On ch=1 n=c#4 v=49
84154 Par ch=1 c=64 v=0
84200 Par ch=1 c=64 v=127
84480 Off ch=1 n=f#4 v=0
84480 Off ch=1 n=c#5 v=0
84480 Off ch=1 n=f#5 v=0
84480 On ch=1 n=g#4 v=49
84480 On ch=1 n=g#5 v=71
84480 On ch=1 n=c#5 v=43
84480 Off ch=1 n=a3 v=0
84480 Off ch=1 n=a4 v=0
84480 Off ch=1 n=c#4 v=0
84480 On ch=1 n=c#4 v=49
84480 On ch=1 n=g#3 v=40
84480 On ch=1 n=g#4 v=57
84992 Off ch=1 n=g#4 v=0
84992 Off ch=1 n=g#5 v=0
84992 On ch=1 n=f#5 v=51
84992 On ch=1 n=a5 v=73
84992 Off ch=1 n=g#3 v=0
84992 Off ch=1 n=g#4 v=0
84992 On ch=1 n=f#3 v=43
84992 On ch=1 n=f#4 v=58
85039 Par ch=1 c=64 v=0
85225 Par ch=1 c=64 v=127
85504 Off ch=1 n=c#5 v=0
85504 On ch=1 n=c#5 v=43
85504 Off ch=1 n=f#5 v=0
85504 Off ch=1 n=a5 v=0
85504 On ch=1 n=b5 v=76
85504 Off ch=1 n=c#4 v=0
85504 On ch=1 n=a3 v=49
85504 Off ch=1 n=f#3 v=0
85504 Off ch=1 n=f#4 v=0
85504 On ch=1 n=e3 v=46
85504 On ch=1 n=e4 v=58
86016 Off ch=1 n=b5 v=0
86016 On ch=1 n=f#5 v=64
86016 On ch=1 n=c#6 v=79
86016 Off ch=1 n=e3 v=0
86016 Off ch=1 n=e4 v=0
86016 On ch=1 n=d#3 v=50
86016 On ch=1 n=d#4 v=62
86094 Par ch=1 c=64 v=0
86249 Par ch=1 c=64 v=127
86528 Off ch=1 n=c#5 v=0
86528 Off ch=1 n=f#5 v=0
86528 Off ch=1 n=c#6 v=0
86528 On ch=1 n=f#5 v=58
86528 On ch=1 n=c#6 v=58
86528 On ch=1 n=f#6 v=80
86528 Off ch=1 n=a3 v=0
86528 Off ch=1 n=d#3 v=0
86528 Off ch=1 n=d#4 v=0
86528 On ch=1 n=d#4 v=47
86528 On ch=1 n=a4 v=47
86528 On ch=1 n=c#5 v=59
86870 On ch=1 n=g#3 v=56
86955 On ch=1 n=f#4 v=56
87040 Par ch=1 c=64 v=127
87040 Off ch=1 n=f#5 v=0
87040 Off ch=1 n=c#6 v=0
87040 Off ch=1 n=f#6 v=0
87040 Off ch=1 n=d#4 v=0
87040 Off ch=1 n=a4 v=0
87040 Off ch=1 n=c#5 v=0
87040 On ch=1 n=e5 v=69
87040 On ch=1 n=e6 v=78
87040 On ch=1 n=a5 v=43
87040 On ch=1 n=c#5 v=56
87180 Par ch=1 c=64 v=0
87309 Par ch=1 c=64 v=127
87552 Off ch=1 n=a5 v=0
87552 On ch=1 n=a5 v=43
87552 Off ch=1 n=f#4 v=0
87552 Off ch=1 n=c#5 v=0
87552 On ch=1 n=f#4 v=51
87552 On ch=1 n=c#5 v=51
87808 Off ch=1 n=e5 v=0
87808 Off ch=1 n=e6 v=0
87808 On ch=1 n=d#5 v=58
87808 On ch=1 n=d#6 v=73
87878 Par ch=1 c=64 v=127
88064 Off ch=1 n=a5 v=0
88064 On ch=1 n=a5 v=43
88064 Off ch=1 n=d#5 v=0
88064 Off ch=1 n=d#6 v=0
88064 On ch=1 n=d#5 v=58
88064 On ch=1 n=d#6 v=73
88064 Off ch=1 n=f#4 v=0
88064 Off ch=1 n=c#5 v=0
88064 On ch=1 n=f#4 v=49
88064 On ch=1 n=c#5 v=49
88126 Par ch=1 c=64 v=0
88266 Par ch=1 c=64 v=127
88576 Off ch=1 n=a5 v=0
88576 On ch=1 n=a5 v=43
88576 Off ch=1 n=f#4 v=0
88576 Off ch=1 n=c#5 v=0
88576 On ch=1 n=f#4 v=47
88576 On ch=1 n=c#5 v=47
89088 Off ch=1 n=a5 v=0
89088 On ch=1 n=g#5 v=43
89088 Off ch=1 n=f#4 v=0
89088 Off ch=1 n=c#5 v=0
89088 On ch=1 n=f#4 v=45
89088 On ch=1 n=c5 v=45
89104 Par ch=1 c=64 v=0
89274 Par ch=1 c=64 v=127
89600 Off ch=1 n=g#5 v=0
89600 On ch=1 n=g#5 v=43
89600 Off ch=1 n=g#3 v=0
89600 Off ch=1 n=f#4 v=0
89600 Off ch=1 n=c5 v=0
89600 On ch=1 n=f#4 v=43
89600 On ch=1 n=c5 v=43
90112 Par ch=1 c=64 v=127
90112 Off ch=1 n=g#5 v=0
90112 Off ch=1 n=d#5 v=0
90112 Off ch=1 n=d#6 v=0
90112 Off ch=1 n=f#4 v=0
90112 Off ch=1 n=c5 v=0
90112 On ch=1 n=e5 v=43
90112 On ch=1 n=g#5 v=43
90112 On ch=1 n=c#6 v=64
90112 On ch=1 n=c#4 v=41
90112 On ch=1 n=c#5 v=58
90298 Par ch=1 c=64 v=0
90368 On ch=1 n=g#4 v=56
90375 Par ch=1 c=64 v=127
90624 Off ch=1 n=e5 v=0
90624 Off ch=1 n=g#5 v=0
90624 Off ch=1 n=c#6 v=0
90624 On ch=1 n=e5 v=45
90624 On ch=1 n=d#6 v=67
90624 On ch=1 n=g#5 v=49
90624 Off ch=1 n=g#4 v=0
90624 Off ch=1 n=c#5 v=0
90624 On ch=1 n=c#5 v=55
90754 Par ch=1 c=64 v=0
90880 Off ch=1 n=c#5 v=0
90880 On ch=1 n=b4 v=53
90978 Par ch=1 c=64 v=127
91136 Off ch=1 n=e5 v=0
91136 Off ch=1 n=d#6 v=0
91136 On ch=1 n=c#6 v=47
91136 On ch=1 n=e6 v=69
91136 Off ch=1 n=b4 v=0
91136 On ch=1 n=a#4 v=59
91257 Par ch=1 c=64 v=0
91453 Par ch=1 c=64 v=127
91493 Par ch=1 c=64 v=127
91648 Off ch=1 n=g#5 v=0
91648 On ch=1 n=c#6 v=52
91648 Off ch=1 n=c#6 v=0
91648 Off ch=1 n=e6 v=0
91648 On ch=1 n=f#6 v=71
91904 Off ch=1 n=a#4 v=0
91904 On ch=1 n=g#5 v=63
92160 Off ch=1 n=f#6 v=0
92160 On ch=1 n=e6 v=51
92160 On ch=1 n=g#6 v=71
92160 Off ch=1 n=g#5 v=0
92160 On ch=1 n=g#5 v=62
92672 Off ch=1 n=c#6 v=0
92672 Off ch=1 n=e6 v=0
92672 Off ch=1 n=g#6 v=0
92672 On ch=1 n=c#6 v=53
92672 On ch=1 n=g#6 v=53
92672 On ch=1 n=c#7 v=75
92672 Off ch=1 n=g#5 v=0
92672 On ch=1 n=f#5 v=59
92928 Off ch=1 n=f#5 v=0
92928 On ch=1 n=e5 v=58
93184 Par ch=1 c=64 v=127
93184 Off ch=1 n=c#6 v=0
93184 Off ch=1 n=g#6 v=0
93184 Off ch=1 n=c#7 v=0
93184 Off ch=1 n=c#4 v=0
93184 Off ch=1 n=e5 v=0
93184 On ch=1 n=b6 v=75
93184 On ch=1 n=b5 v=44
93184 On ch=1 n=g#6 v=44
93184 On ch=1 n=d#4 v=41
93184 On ch=1 n=g#4 v=41
93184 On ch=1 n=e5 v=63
93440 On ch=1 n=d#5 v=62
93447 Par ch=1 c=64 v=0
93509 Par ch=1 c=64 v=127
93696 Off ch=1 n=b5 v=0
93696 Off ch=1 n=g#6 v=0
93696 On ch=1 n=g#5 v=44
93696 On ch=1 n=b5 v=44
93696 Off ch=1 n=d#5 v=0
93696 Off ch=1 n=e5 v=0
93696 On ch=1 n=d#5 v=60
93952 Off ch=1 n=b6 v=0
93952 On ch=1 n=g#6 v=69
93952 Off ch=1 n=d#5 v=0
93952 On ch=1 n=d5 v=59
94208 Off ch=1 n=g#5 v=0
94208 Off ch=1 n=b5 v=0
94208 On ch=1 n=g#5 v=44
94208 On ch=1 n=b5 v=44
94208 Off ch=1 n=g#6 v=0
94208 On ch=1 n=g#6 v=69
94208 Off ch=1 n=d5 v=0
94208 On ch=1 n=d5 v=58
94464 Off ch=1 n=d5 v=0
94464 On ch=1 n=d#5 v=60
94720 Off ch=1 n=g#5 v=0
94720 Off ch=1 n=b5 v=0
94720 On ch=1 n=g#5 v=44
94720 On ch=1 n=b5 v=44
94720 Off ch=1 n=d#5 v=0
94720 On ch=1 n=d#5 v=62
94976 Off ch=1 n=d#5 v=0
94976 On ch=1 n=e5 v=64
95232 Off ch=1 n=g#5 v=0
95232 Off ch=1 n=b5 v=0
95232 On ch=1 n=d#5 v=48
95232 On ch=1 n=g#5 v=44
95232 Off ch=1 n=g#6 v=0
95232 On ch=1 n=e6 v=69
95232 Off ch=1 n=d#4 v=0
95232 Off ch=1 n=g#4 v=0
95232 Off ch=1 n=e5 v=0
95232 On ch=1 n=e5 v=64
95232 On ch=1 n=c#4 v=41
95366 Par ch=1 c=64 v=0
95488 On ch=1 n=g#4 v=61
95596 Par ch=1 c=64 v=127
95744 Off ch=1 n=d#5 v=0
95744 Off ch=1 n=g#5 v=0
95744 On ch=1 n=e5 v=44
95744 On ch=1 n=g#5 v=44
95744 Off ch=1 n=g#4 v=0
95744 Off ch=1 n=e5 v=0
95744 On ch=1 n=g#4 v=62
96000 Off ch=1 n=g#4 v=0
96000 On ch=1 n=a#4 v=63
96256 Par ch=1 c=64 v=127
96256 Off ch=1 n=e5 v=0
96256 Off ch=1 n=g#5 v=0
96256 Off ch=1 n=e6 v=0
96256 Off ch=1 n=a#4 v=0
96256 Off ch=1 n=c#4 v=0
96256 On ch=1 n=d#6 v=70
96256 On ch=1 n=d#5 v=46
96256 On ch=1 n=g#5 v=46
96256 On ch=1 n=b3 v=41
96256 On ch=1 n=a#4 v=64
96395 Par ch=1 c=64 v=0
96488 Par ch=1 c=64 v=127
96512 On ch=1 n=b4 v=64
96768 Off ch=1 n=d#5 v=0
96768 Off ch=1 n=g#5 v=0
96768 On ch=1 n=g#5 v=40
96768 Off ch=1 n=a#4 v=0
96768 Off ch=1 n=b4 v=0
96768 On ch=1 n=b4 v=65
97024 Off ch=1 n=d#6 v=0
97024 On ch=1 n=b5 v=56
97024 Off ch=1 n=b4 v=0
97024 On ch=1 n=e5 v=64
97280 Off ch=1 n=g#5 v=0
97280 On ch=1 n=g#5 v=39
97280 Off ch=1 n=b5 v=0
97280 On ch=1 n=b5 v=52
97280 Off ch=1 n=e5 v=0
97280 On ch=1 n=e5 v=62
97387 Par ch=1 c=64 v=0
97536 On ch=1 n=d#5 v=60
97557 Par ch=1 c=64 v=127
97792 Off ch=1 n=g#5 v=0
97792 On ch=1 n=g#5 v=33
97792 Off ch=1 n=d#5 v=0
97792 Off ch=1 n=e5 v=0
97792 On ch=1 n=d#5 v=58
98048 Off ch=1 n=d#5 v=0
98048 On ch=1 n=b4 v=55
98304 Off ch=1 n=g#5 v=0
98304 On ch=1 n=e5 v=29
98304 On ch=1 n=g5 v=29
98304 On ch=1 n=c#6 v=33
98304 Off ch=1 n=b5 v=0
98304 On ch=1 n=d#6 v=61
98304 Off ch=1 n=b3 v=0
98304 Off ch=1 n=b4 v=0
98304 On ch=1 n=b4 v=54
98304 On ch=1 n=c#4 v=37
98411 Par ch=1 c=64 v=0
98560 On ch=1 n=a#4 v=51
98624 Par ch=1 c=64 v=127
98816 Off ch=1 n=e5 v=0
98816 Off ch=1 n=g5 v=0
98816 Off ch=1 n=c#6 v=0
98816 On ch=1 n=e5 v=22
98816 On ch=1 n=g5 v=22
98816 On ch=1 n=c#6 v=20
98816 Off ch=1 n=a#4 v=0
98816 Off ch=1 n=b4 v=0
98816 On ch=1 n=a#4 v=49
99072 Off ch=1 n=a#4 v=0
99072 On ch=1 n=g#4 v=47
99328 Par ch=1 c=64 v=127
99328 Off ch=1 n=e5 v=0
99328 Off ch=1 n=g5 v=0
99328 Off ch=1 n=c#6 v=0
99328 Off ch=1 n=d#6 v=0
99328 Off ch=1 n=g#4 v=0
99328 Off ch=1 n=c#4 v=0
99328 On ch=1 n=b5 v=48
99328 On ch=1 n=b4 v=20
99328 On ch=1 n=d#5 v=29
99328 On ch=1 n=g#3 v=30
99328 On ch=1 n=d#4 v=30
99328 On ch=1 n=g#4 v=44
99514 Par ch=1 c=64 v=0
99607 Par ch=1 c=64 v=127
99840 Off ch=1 n=b4 v=0
99840 Off ch=1 n=d#5 v=0
99840 On ch=1 n=b4 v=18
99840 On ch=1 n=d#5 v=27
100096 Off ch=1 n=b5 v=0
100096 On ch=1 n=g#5 v=41
100352 Off ch=1 n=b4 v=0
100352 Off ch=1 n=d#5 v=0
100352 On ch=1 n=b4 v=16
100352 On ch=1 n=d#5 v=25
100352 Off ch=1 n=g#5 v=0
100352 On ch=1 n=g#5 v=38
100373 Par ch=1 c=64 v=0
100600 Par ch=1 c=64 v=0
100662 Par ch=1 c=64 v=127
100843 Par ch=1 c=64 v=0
100864 Off ch=1 n=b4 v=0
100864 Off ch=1 n=d#5 v=0
100864 On ch=1 n=d#5 v=25
100864 Off ch=1 n=g#3 v=0
100864 Off ch=1 n=d#4 v=0
100864 Off ch=1 n=g#4 v=0
100864 On ch=1 n=d#4 v=22
101034 Par ch=1 c=64 v=0
101112 Par ch=1 c=64 v=127
101376 Off ch=1 n=d#5 v=0
101376 On ch=1 n=d#5 v=23
101376 Off ch=1 n=d#4 v=0
101376 On ch=1 n=d#4 v=22
101867 Par ch=1 c=64 v=0
101888 Off ch=1 n=d#5 v=0
101888 On ch=1 n=d#5 v=21
101888 Off ch=1 n=d#4 v=0
101888 On ch=1 n=d#4 v=22
101996 Par ch=1 c=64 v=0
102027 Par ch=1 c=64 v=127
102400 Par ch=1 c=64 v=127
102400 Off ch=1 n=d#5 v=0
102400 Off ch=1 n=g#5 v=0
102400 Off ch=1 n=d#4 v=0
102400 On ch=1 n=c5 v=23
102400 On ch=1 n=f#5 v=23
102400 On ch=1 n=g#5 v=44
102400 On ch=1 n=g#3 v=18
102400 On ch=1 n=d#4 v=13
102550 Par ch=1 c=64 v=0
102700 Par ch=1 c=64 v=127
102912 Off ch=1 n=c5 v=0
102912 Off ch=1 n=f#5 v=0
102912 Off ch=1 n=g#5 v=0
102912 On ch=1 n=c#5 v=19
102912 On ch=1 n=f#5 v=19
102912 On ch=1 n=a5 v=40
102912 Off ch=1 n=d#4 v=0
102912 On ch=1 n=d#4 v=13
103049 Par ch=1 c=64 v=0
103274 Par ch=1 c=64 v=127
103296 On ch=1 n=b5 v=33
103424 Off ch=1 n=c#5 v=0
103424 Off ch=1 n=f#5 v=0
103424 Off ch=1 n=a5 v=0
103424 Off ch=1 n=b5 v=0
103424 On ch=1 n=c#5 v=22
103424 On ch=1 n=f#5 v=22
103424 On ch=1 n=a5 v=43
103424 Off ch=1 n=d#4 v=0
103424 On ch=1 n=d#4 v=13
103549 Par ch=1 c=64 v=0
103749 Par ch=1 c=64 v=127
103936 Off ch=1 n=c#5 v=0
103936 Off ch=1 n=f#5 v=0
103936 Off ch=1 n=a5 v=0
103936 On ch=1 n=c#5 v=19
103936 On ch=1 n=f#5 v=19
103936 On ch=1 n=g#5 v=41
103936 Off ch=1 n=d#4 v=0
103936 On ch=1 n=d#4 v=13
104073 Par ch=1 c=64 v=0
104248 Par ch=1 c=64 v=127
104448 Off ch=1 n=c#5 v=0
104448 Off ch=1 n=f#5 v=0
104448 Off ch=1 n=g#5 v=0
104448 On ch=1 n=c#5 v=22
104448 On ch=1 n=f#5 v=22
104448 On ch=1 n=a5 v=43
104448 Off ch=1 n=d#4 v=0
104448 On ch=1 n=d#4 v=13
104573 Par ch=1 c=64 v=0
104848 Par ch=1 c=64 v=127
104890 Off ch=1 n=c#5 v=0
104900 On ch=1 n=c#5 v=24
104960 Off ch=1 n=f#5 v=0
104960 Off ch=1 n=a5 v=0
104960 On ch=1 n=f#5 v=24
104960 On ch=1 n=a5 v=31
104960 On ch=1 n=d#6 v=50
104960 Off ch=1 n=d#4 v=0
104960 On ch=1 n=d#4 v=13
105472 Off ch=1 n=c#5 v=0
105472 Off ch=1 n=f#5 v=0
105472 Off ch=1 n=a5 v=0
105472 Off ch=1 n=d#6 v=0
105472 Off ch=1 n=g#3 v=0
105472 Off ch=1 n=d#4 v=0
105472 On ch=1 n=c#5 v=21
105472 On ch=1 n=f#5 v=26
105472 On ch=1 n=a5 v=48
105472 On ch=1 n=g#3 v=18
105472 On ch=1 n=d#4 v=13
105500 Par ch=1 c=64 v=127
105638 Par ch=1 c=64 v=0
105832 Par ch=1 c=64 v=127
105984 Off ch=1 n=c#5 v=0
105984 Off ch=1 n=f#5 v=0
105984 On ch=1 n=c#5 v=19
105984 On ch=1 n=f#5 v=24
105984 Off ch=1 n=d#4 v=0
105984 On ch=1 n=d#4 v=13
106240 Off ch=1 n=a5 v=0
106240 On ch=1 n=g#5 v=40
106496 Off ch=1 n=g#5 v=0
106496 On ch=1 n=g#5 v=39
106496 Off ch=1 n=c#5 v=0
106496 Off ch=1 n=f#5 v=0
106496 On ch=1 n=c5 v=13
106496 On ch=1 n=f#5 v=18
106496 Off ch=1 n=d#4 v=0
106496 On ch=1 n=d#4 v=13
106607 Par ch=1 c=64 v=0
106856 Par ch=1 c=64 v=127
107008 Off ch=1 n=c5 v=0
107008 Off ch=1 n=f#5 v=0
107008 On ch=1 n=c5 v=20
107008 On ch=1 n=f#5 v=24
107008 Off ch=1 n=d#4 v=0
107008 On ch=1 n=d#4 v=13
107520 Off ch=1 n=c5 v=0
107520 Off ch=1 n=f#5 v=0
107520 On ch=1 n=c5 v=18
107520 On ch=1 n=f#5 v=23
107520 Off ch=1 n=d#4 v=0
107520 On ch=1 n=d#4 v=13
108032 Off ch=1 n=c5 v=0
108032 Off ch=1 n=f#5 v=0
108032 On ch=1 n=c5 v=18
108032 On ch=1 n=f#5 v=22
108032 Off ch=1 n=d#4 v=0
108032 On ch=1 n=d#4 v=13
108544 Par ch=1 c=64 v=127
108544 Off ch=1 n=g#5 v=0
108544 Off ch=1 n=c5 v=0
108544 Off ch=1 n=f#5 v=0
108544 Off ch=1 n=g#3 v=0
108544 Off ch=1 n=d#4 v=0
108544 On ch=1 n=c5 v=23
108544 On ch=1 n=f#5 v=23
108544 On ch=1 n=g#5 v=44
108544 On ch=1 n=g#3 v=17
108544 On ch=1 n=d#4 v=12
108694 Par ch=1 c=64 v=0
108844 Par ch=1 c=64 v=127
109056 Off ch=1 n=c5 v=0
109056 Off ch=1 n=f#5 v=0
109056 Off ch=1 n=g#5 v=0
109056 On ch=1 n=c#5 v=19
109056 On ch=1 n=f#5 v=19
109056 On ch=1 n=a5 v=40
109056 Off ch=1 n=d#4 v=0
109056 On ch=1 n=d#4 v=12
109193 Par ch=1 c=64 v=0
109418 Par ch=1 c=64 v=127
109440 On ch=1 n=b5 v=33
109568 Off ch=1 n=c#5 v=0
109568 Off ch=1 n=f#5 v=0
109568 Off ch=1 n=a5 v=0
109568 Off ch=1 n=b5 v=0
109568 On ch=1 n=c#5 v=22
109568 On ch=1 n=f#5 v=22
109568 On ch=1 n=a5 v=43
109568 Off ch=1 n=d#4 v=0
109568 On ch=1 n=d#4 v=12
109693 Par ch=1 c=64 v=0
109893 Par ch=1 c=64 v=127
110080 Off ch=1 n=c#5 v=0
110080 Off ch=1 n=f#5 v=0
110080 Off ch=1 n=a5 v=0
110080 On ch=1 n=c#5 v=19
110080 On ch=1 n=f#5 v=19
110080 On ch=1 n=g#5 v=41
110080 Off ch=1 n=d#4 v=0
110080 On ch=1 n=d#4 v=12
110217 Par ch=1 c=64 v=0
110392 Par ch=1 c=64 v=127
110592 Off ch=1 n=c#5 v=0
110592 Off ch=1 n=f#5 v=0
110592 Off ch=1 n=g#5 v=0
110592 On ch=1 n=c#5 v=19
110592 On ch=1 n=f#5 v=19
110592 On ch=1 n=a5 v=45
110592 Off ch=1 n=d#4 v=0
110592 On ch=1 n=d#4 v=12
110717 Par ch=1 c=64 v=0
110832 Par ch=1 c=64 v=127
110933 On ch=1 n=e6 v=48
111003 Off ch=1 n=a5 v=0
111104 Off ch=1 n=c#5 v=0
111104 Off ch=1 n=f#5 v=0
111104 On ch=1 n=c#5 v=17
111104 On ch=1 n=f#5 v=17
111104 On ch=1 n=a5 v=24
111104 Off ch=1 n=d#4 v=0
111104 On ch=1 n=d#4 v=12
111275 On ch=1 n=d#6 v=48
111345 Off ch=1 n=e6 v=0
111616 Off ch=1 n=d#6 v=0
111616 Off ch=1 n=c#5 v=0
111616 Off ch=1 n=f#5 v=0
111616 Off ch=1 n=a5 v=0
111616 Off ch=1 n=g#3 v=0
111616 Off ch=1 n=d#4 v=0
111616 On ch=1 n=c#5 v=21
111616 On ch=1 n=f#5 v=26
111616 On ch=1 n=a5 v=21
111616 On ch=1 n=d#6 v=55
111616 On ch=1 n=g#3 v=17
111616 On ch=1 n=d#4 v=12
111644 Par ch=1 c=64 v=127
111782 Par ch=1 c=64 v=0
111976 Par ch=1 c=64 v=127
112128 Off ch=1 n=c#5 v=0
112128 Off ch=1 n=f#5 v=0
112128 Off ch=1 n=a5 v=0
112128 On ch=1 n=c#5 v=13
112128 On ch=1 n=f#5 v=18
112128 Off ch=1 n=d#4 v=0
112128 On ch=1 n=d#4 v=12
112384 Off ch=1 n=d#6 v=0
112384 On ch=1 n=g#5 v=37
112640 Off ch=1 n=g#5 v=0
112640 On ch=1 n=g#5 v=36
112640 Off ch=1 n=c#5 v=0
112640 Off ch=1 n=f#5 v=0
112640 On ch=1 n=c5 v=13
112640 On ch=1 n=f#5 v=18
112640 Off ch=1 n=d#4 v=0
112640 On ch=1 n=d#4 v=12
112751 Par ch=1 c=64 v=0
113000 Par ch=1 c=64 v=127
113152 Off ch=1 n=c5 v=0
113152 Off ch=1 n=f#5 v=0
113152 On ch=1 n=c5 v=13
113152 On ch=1 n=f#5 v=17
113152 Off ch=1 n=d#4 v=0
113152 On ch=1 n=d#4 v=12
113664 Off ch=1 n=c5 v=0
113664 Off ch=1 n=f#5 v=0
113664 On ch=1 n=c5 v=11
113664 On ch=1 n=f#5 v=16
113664 Off ch=1 n=d#4 v=0
113664 On ch=1 n=d#4 v=12
114176 Off ch=1 n=c5 v=0
114176 Off ch=1 n=f#5 v=0
114176 On ch=1 n=c5 v=11
114176 On ch=1 n=f#5 v=15
114176 Off ch=1 n=d#4 v=0
114176 On ch=1 n=d#4 v=12
114688 Off ch=1 n=g#5 v=0
114688 Off ch=1 n=c5 v=0
114688 Off ch=1 n=f#5 v=0
114688 Off ch=1 n=g#3 v=0
114688 Off ch=1 n=d#4 v=0
114688 On ch=1 n=c#5 v=27
114688 On ch=1 n=e5 v=27
114688 On ch=1 n=g#5 v=43
114688 On ch=1 n=b3 v=24
114688 On ch=1 n=c#4 v=12
114762 Par ch=1 c=64 v=127
114958 Par ch=1 c=64 v=0
115057 Par ch=1 c=64 v=127
115200 Off ch=1 n=c#5 v=0
115200 Off ch=1 n=e5 v=0
115200 Off ch=1 n=g#5 v=0
115200 On ch=1 n=c#5 v=23
115200 On ch=1 n=e5 v=23
115200 On ch=1 n=a5 v=39
115200 Off ch=1 n=c#4 v=0
115200 On ch=1 n=c#4 v=12
115584 On ch=1 n=b5 v=23
115712 Off ch=1 n=c#5 v=0
115712 Off ch=1 n=e5 v=0
115712 Off ch=1 n=a5 v=0
115712 Off ch=1 n=b5 v=0
115712 On ch=1 n=c#5 v=28
115712 On ch=1 n=e5 v=28
115712 On ch=1 n=a5 v=44
115712 Off ch=1 n=c#4 v=0
115712 On ch=1 n=c#4 v=12
116224 Off ch=1 n=c#5 v=0
116224 Off ch=1 n=e5 v=0
116224 Off ch=1 n=a5 v=0
116224 On ch=1 n=c#5 v=26
116224 On ch=1 n=e5 v=26
116224 On ch=1 n=g#5 v=42
116224 Off ch=1 n=c#4 v=0
116224 On ch=1 n=c#4 v=12
116736 Off ch=1 n=c#5 v=0
116736 Off ch=1 n=e5 v=0
116736 Off ch=1 n=g#5 v=0
116736 On ch=1 n=c#5 v=31
116736 On ch=1 n=g#5 v=31
116736 On ch=1 n=c#6 v=47
116736 Off ch=1 n=b3 v=0
116736 Off ch=1 n=c#4 v=0
116736 On ch=1 n=c#4 v=12
116736 On ch=1 n=a3 v=25
116777 Par ch=1 c=64 v=0
116974 Par ch=1 c=64 v=127
117248 Off ch=1 n=c#5 v=0
117248 Off ch=1 n=g#5 v=0
117248 Off ch=1 n=c#6 v=0
117248 On ch=1 n=f#4 v=25
117248 On ch=1 n=c#5 v=25
117248 On ch=1 n=f#5 v=42
117248 Off ch=1 n=c#4 v=0
117248 On ch=1 n=c#4 v=12
117760 Off ch=1 n=f#4 v=0
117760 Off ch=1 n=c#5 v=0
117760 Off ch=1 n=f#5 v=0
117760 Off ch=1 n=c#4 v=0
117760 Off ch=1 n=a3 v=0
117760 On ch=1 n=a4 v=28
117760 On ch=1 n=c#5 v=28
117760 On ch=1 n=e5 v=45
117760 On ch=1 n=g#3 v=25
117760 On ch=1 n=c#4 v=13
117834 Par ch=1 c=64 v=127
118030 Par ch=1 c=64 v=0
118129 Par ch=1 c=64 v=127
118272 Off ch=1 n=a4 v=0
118272 Off ch=1 n=c#5 v=0
118272 Off ch=1 n=e5 v=0
118272 On ch=1 n=a4 v=24
118272 On ch=1 n=c#5 v=24
118272 On ch=1 n=f#5 v=41
118272 Off ch=1 n=c#4 v=0
118272 On ch=1 n=c#4 v=13
118656 On ch=1 n=g#5 v=28
118784 Off ch=1 n=a4 v=0
118784 Off ch=1 n=c#5 v=0
118784 Off ch=1 n=f#5 v=0
118784 Off ch=1 n=g#5 v=0
118784 On ch=1 n=a4 v=32
118784 On ch=1 n=c#5 v=32
118784 On ch=1 n=f#5 v=49
118784 Off ch=1 n=c#4 v=0
118784 On ch=1 n=c#4 v=13
119296 Off ch=1 n=a4 v=0
119296 Off ch=1 n=c#5 v=0
119296 Off ch=1 n=f#5 v=0
119296 On ch=1 n=a4 v=27
119296 On ch=1 n=c#5 v=27
119296 On ch=1 n=e5 v=44
119296 Off ch=1 n=c#4 v=0
119296 On ch=1 n=c#4 v=13
119808 Off ch=1 n=a4 v=0
119808 Off ch=1 n=c#5 v=0
119808 Off ch=1 n=e5 v=0
119808 On ch=1 n=a4 v=32
119808 On ch=1 n=c#5 v=32
119808 On ch=1 n=a5 v=50
119808 Off ch=1 n=g#3 v=0
119808 Off ch=1 n=c#4 v=0
119808 On ch=1 n=c#4 v=13
119808 On ch=1 n=f#3 v=26
119849 Par ch=1 c=64 v=0
120046 Par ch=1 c=64 v=127
120320 Off ch=1 n=a4 v=0
120320 Off ch=1 n=c#5 v=0
120320 Off ch=1 n=a5 v=0
120320 On ch=1 n=a4 v=26
120320 On ch=1 n=c#5 v=26
120320 On ch=1 n=d#5 v=44
120320 Off ch=1 n=c#4 v=0
120320 On ch=1 n=c#4 v=13
120832 Off ch=1 n=a4 v=0
120832 Off ch=1 n=c#5 v=0
120832 Off ch=1 n=d#5 v=0
120832 Off ch=1 n=c#4 v=0
120832 Off ch=1 n=f#3 v=0
120832 On ch=1 n=a4 v=33
120832 On ch=1 n=c5 v=33
120832 On ch=1 n=d#5 v=49
120832 On ch=1 n=f#3 v=30
120832 On ch=1 n=c#4 v=18
120906 Par ch=1 c=64 v=127
121102 Par ch=1 c=64 v=0
121201 Par ch=1 c=64 v=127
121344 Off ch=1 n=a4 v=0
121344 Off ch=1 n=c5 v=0
121344 Off ch=1 n=d#5 v=0
121344 On ch=1 n=a4 v=29
121344 On ch=1 n=c5 v=29
121344 On ch=1 n=e5 v=45
121344 Off ch=1 n=c#4 v=0
121344 On ch=1 n=c#4 v=18
121728 On ch=1 n=f#5 v=29
121856 Off ch=1 n=a4 v=0
121856 Off ch=1 n=c5 v=0
121856 Off ch=1 n=e5 v=0
121856 Off ch=1 n=f#5 v=0
121856 On ch=1 n=a4 v=33
121856 On ch=1 n=c5 v=33
121856 On ch=1 n=e5 v=49
121856 Off ch=1 n=c#4 v=0
121856 On ch=1 n=c#4 v=18
122368 Off ch=1 n=a4 v=0
122368 Off ch=1 n=c5 v=0
122368 Off ch=1 n=e5 v=0
122368 On ch=1 n=a4 v=31
122368 On ch=1 n=c5 v=31
122368 On ch=1 n=d#5 v=47
122368 Off ch=1 n=c#4 v=0
122368 On ch=1 n=c#4 v=18
122880 Off ch=1 n=a4 v=0
122880 Off ch=1 n=c5 v=0
122880 Off ch=1 n=d#5 v=0
122880 On ch=1 n=g#4 v=29
122880 On ch=1 n=c#5 v=29
122880 On ch=1 n=g#5 v=49
122880 Off ch=1 n=f#3 v=0
122880 Off ch=1 n=c#4 v=0
122880 On ch=1 n=c#4 v=11
122880 On ch=1 n=e3 v=23
122921 Par ch=1 c=64 v=0
123118 Par ch=1 c=64 v=127
123392 Off ch=1 n=g#4 v=0
123392 Off ch=1 n=c#5 v=0
123392 Off ch=1 n=g#5 v=0
123392 On ch=1 n=g#4 v=23
123392 On ch=1 n=c#5 v=43
123392 Off ch=1 n=c#4 v=0
123392 On ch=1 n=c#4 v=11
123904 Off ch=1 n=g#4 v=0
123904 Off ch=1 n=c#5 v=0
123904 Off ch=1 n=c#4 v=0
123904 Off ch=1 n=e3 v=0
123904 On ch=1 n=a4 v=27
123904 On ch=1 n=c#5 v=27
123904 On ch=1 n=e5 v=46
123904 On ch=1 n=f#3 v=31
123904 On ch=1 n=c#4 v=22
123958 Par ch=1 c=64 v=127
124121 Par ch=1 c=64 v=0
124230 Par ch=1 c=64 v=127
124416 Off ch=1 n=a4 v=0
124416 Off ch=1 n=c#5 v=0
124416 On ch=1 n=a4 v=25
124416 On ch=1 n=c#5 v=25
124416 Off ch=1 n=c#4 v=0
124416 On ch=1 n=c#4 v=21
124672 Off ch=1 n=e5 v=0
124672 On ch=1 n=d#5 v=39
124928 Off ch=1 n=d#5 v=0
124928 On ch=1 n=d#5 v=38
124928 Off ch=1 n=a4 v=0
124928 Off ch=1 n=c#5 v=0
124928 On ch=1 n=a4 v=23
124928 On ch=1 n=c#5 v=23
124928 Off ch=1 n=c#4 v=0
124928 On ch=1 n=c#4 v=20
125440 Off ch=1 n=a4 v=0
125440 Off ch=1 n=c#5 v=0
125440 On ch=1 n=a4 v=21
125440 On ch=1 n=c#5 v=21
125440 Off ch=1 n=c#4 v=0
125440 On ch=1 n=c#4 v=18
125943 Par ch=1 c=64 v=0
125952 Off ch=1 n=d#5 v=0
125952 On ch=1 n=e5 v=34
125952 Off ch=1 n=a4 v=0
125952 Off ch=1 n=c#5 v=0
125952 On ch=1 n=a4 v=19
125952 On ch=1 n=c#5 v=19
125952 Off ch=1 n=f#3 v=0
125952 Off ch=1 n=c#4 v=0
125952 On ch=1 n=c#4 v=17
125952 On ch=1 n=g3 v=26
126106 Par ch=1 c=64 v=127
126464 Off ch=1 n=a4 v=0
126464 Off ch=1 n=c#5 v=0
126464 On ch=1 n=a4 v=17
126464 On ch=1 n=c#5 v=17
126464 Off ch=1 n=c#4 v=0
126464 On ch=1 n=c#4 v=16
126976 Par ch=1 c=64 v=127
126976 Off ch=1 n=e5 v=0
126976 Off ch=1 n=a4 v=0
126976 Off ch=1 n=c#5 v=0
126976 Off ch=1 n=c#4 v=0
126976 Off ch=1 n=g3 v=0
126976 On ch=1 n=e4 v=15
126976 On ch=1 n=g#4 v=15
126976 On ch=1 n=c#5 v=36
126976 On ch=1 n=c#3 v=25
126976 On ch=1 n=g#3 v=16
126976 On ch=1 n=c#4 v=16
127088 Par ch=1 c=64 v=0
127255 Par ch=1 c=64 v=127
127488 Off ch=1 n=e4 v=0
127488 Off ch=1 n=g#4 v=0
127488 Off ch=1 n=c#5 v=0
127488 On ch=1 n=g#4 v=18
127488 On ch=1 n=d#5 v=35
127488 On ch=1 n=e4 v=12
127488 Off ch=1 n=c#4 v=0
127488 On ch=1 n=c#4 v=17
128000 Off ch=1 n=g#4 v=0
128000 Off ch=1 n=d#5 v=0
128000 On ch=1 n=c#5 v=20
128000 On ch=1 n=e5 v=34
128000 Off ch=1 n=c#4 v=0
128000 On ch=1 n=c#4 v=18
128512 Off ch=1 n=e4 v=0
128512 On ch=1 n=c#5 v=15
128512 Off ch=1 n=c#5 v=0
128512 Off ch=1 n=e5 v=0
128512 On ch=1 n=f#5 v=38
128512 Off ch=1 n=c#4 v=0
128512 On ch=1 n=c#4 v=20
129024 Off ch=1 n=f#5 v=0
129024 On ch=1 n=e5 v=23
129024 On ch=1 n=g#5 v=39
129024 Off ch=1 n=c#3 v=0
129024 Off ch=1 n=g#3 v=0
129024 Off ch=1 n=c#4 v=0
129024 On ch=1 n=c#4 v=21
129024 On ch=1 n=g#4 v=28
129536 Off ch=1 n=c#5 v=0
129536 Off ch=1 n=e5 v=0
129536 Off ch=1 n=g#5 v=0
129536 On ch=1 n=c#5 v=29
129536 On ch=1 n=e5 v=29
129536 On ch=1 n=c#6 v=46
129536 Off ch=1 n=c#4 v=0
129536 On ch=1 n=c#4 v=22
130048 Par ch=1 c=64 v=127
130048 Off ch=1 n=c#5 v=0
130048 Off ch=1 n=e5 v=0
130048 Off ch=1 n=c#6 v=0
130048 Off ch=1 n=c#4 v=0
130048 Off ch=1 n=g#4 v=0
130048 On ch=1 n=c#5 v=28
130048 On ch=1 n=e5 v=28
130048 On ch=1 n=b5 v=44
130048 On ch=1 n=c#4 v=16
130048 On ch=1 n=g4 v=25
130203 Par ch=1 c=64 v=0
130358 Par ch=1 c=64 v=127
130560 Off ch=1 n=c#4 v=0
130560 On ch=1 n=c#4 v=15
130816 Off ch=1 n=b5 v=0
130816 On ch=1 n=a5 v=40
131072 Off ch=1 n=a5 v=0
131072 On ch=1 n=g#5 v=38
131072 Off ch=1 n=g4 v=0
131072 On ch=1 n=g#4 v=24
131072 Off ch=1 n=c#4 v=0
131072 On ch=1 n=c#4 v=15
131158 Par ch=1 c=64 v=0
131339 Par ch=1 c=64 v=127
131584 Off ch=1 n=c#4 v=0
131584 On ch=1 n=c#4 v=14
132096 Off ch=1 n=c#5 v=0
132096 Off ch=1 n=e5 v=0
132096 Off ch=1 n=g#5 v=0
132096 On ch=1 n=c#5 v=17
132096 On ch=1 n=f#5 v=33
132096 Off ch=1 n=g#4 v=0
132096 On ch=1 n=a4 v=23
132096 Off ch=1 n=c#4 v=0
132096 On ch=1 n=c#4 v=14
132139 Par ch=1 c=64 v=0
132294 Par ch=1 c=64 v=127
132608 Off ch=1 n=c#4 v=0
132608 On ch=1 n=c#4 v=13
133120 Par ch=1 c=64 v=127
133120 Off ch=1 n=c#5 v=0
133120 Off ch=1 n=f#5 v=0
133120 Off ch=1 n=a4 v=0
133120 Off ch=1 n=c#4 v=0
133120 On ch=1 n=g#4 v=24
133120 On ch=1 n=c#5 v=24
133120 On ch=1 n=e5 v=40
133120 On ch=1 n=c#4 v=19
133285 Par ch=1 c=64 v=0
133477 Par ch=1 c=64 v=127
133632 On ch=1 n=c#4 v=12
133888 Off ch=1 n=c#5 v=0
133888 Off ch=1 n=e5 v=0
133888 On ch=1 n=c#5 v=32
134144 Off ch=1 n=g#4 v=0
134144 Off ch=1 n=c#5 v=0
134144 On ch=1 n=g#4 v=15
134144 On ch=1 n=c#5 v=31
134144 Off ch=1 n=c#4 v=0
134144 Off ch=1 n=c#4 v=0
134144 On ch=1 n=c#4 v=11
134144 On ch=1 n=b3 v=22
134207 Par ch=1 c=64 v=0
134425 Par ch=1 c=64 v=127
134656 Off ch=1 n=c#4 v=0
134656 On ch=1 n=c#4 v=11
135168 Off ch=1 n=g#4 v=0
135168 Off ch=1 n=c#5 v=0
135168 On ch=1 n=f#4 v=12
135168 On ch=1 n=c#5 v=12
135168 On ch=1 n=f#5 v=33
135168 Off ch=1 n=c#4 v=0
135168 On ch=1 n=c#4 v=10
135168 Off ch=1 n=b3 v=0
135168 On ch=1 n=a3 v=21
135186 Par ch=1 c=64 v=0
135431 Par ch=1 c=64 v=127
135680 Off ch=1 n=c#4 v=0
135680 On ch=1 n=c#4 v=10
136192 Par ch=1 c=64 v=127
136192 Off ch=1 n=f#4 v=0
136192 Off ch=1 n=c#5 v=0
136192 Off ch=1 n=f#5 v=0
136192 Off ch=1 n=c#4 v=0
136192 Off ch=1 n=a3 v=0
136192 On ch=1 n=e4 v=16
136192 On ch=1 n=g#4 v=16
136192 On ch=1 n=e5 v=32
136192 On ch=1 n=c#3 v=9
136192 On ch=1 n=g#3 v=16
136192 On ch=1 n=c#4 v=9
136344 Par ch=1 c=64 v=0
136571 Par ch=1 c=64 v=127
136704 Off ch=1 n=e5 v=0
136704 On ch=1 n=c#5 v=27
137216 Off ch=1 n=c#5 v=0
137216 On ch=1 n=c#5 v=22
139264 Par ch=1 c=64 v=0
139264 Par ch=1 c=64 v=0
139264 Off ch=1 n=e4 v=0
139264 Off ch=1 n=g#4 v=0
139264 Off ch=1 n=c#5 v=0
139264 Off ch=1 n=c#3 v=0
139264 Off ch=1 n=g#3 v=0
139264 Off ch=1 n=c#4 v=0
142336 Par ch=1 c=64 v=0
142336 Par ch=1 c=64 v=0
142339 Meta TrkEnd
TrkEnd
