MFile 1 2 1024
MTrk
0 TimeSig 1/4 24 8
0 KeySig 4 major
0 Tempo 666666
1024 TimeSig 3/8 36 8
1024 Tempo 666666
1280 Tempo 428571
2560 TimeSig 6/8 36 8
2560 Tempo 500000
2816 Tempo 428571
5120 Tempo 600000
5888 Tempo 428571
6656 Tempo 600000
7424 Tempo 428571
8704 Tempo 500000
8960 Tempo 428571
11264 Tempo 600000
12032 Tempo 428571
17664 Tempo 600000
18176 Tempo 428571
19456 Tempo 666666
19968 Tempo 545454
20480 Tempo 500000
20992 Tempo 666666
21248 Tempo 461538
22528 Tempo 545454
22784 Tempo 428571
24064 Tempo 600000
24320 Tempo 428571
25344 Tempo 600000
25856 Tempo 461538
27136 Tempo 500000
27392 Tempo 428571
29952 Tempo 600000
30464 Tempo 428571
32000 Tempo 428571
33280 Tempo 500000
33536 Tempo 428571
34304 Tempo 500000
35328 Tempo 428571
36352 Tempo 600000
36864 Tempo 461538
37888 Tempo 500000
38400 Tempo 500000
38912 Tempo 545454
39424 Tempo 545454
39680 Tempo 428571
45568 Tempo 666666
45824 Tempo 461538
47104 Tempo 545454
47360 Tempo 428571
48128 Tempo 461538
48640 Tempo 600000
48896 Tempo 428571
49664 Tempo 545454
50432 Tempo 428571
51712 Tempo 500000
51968 Tempo 428571
54272 Tempo 600000
55040 Tempo 428571
56576 Tempo 428571
57856 Tempo 500000
58112 Tempo 428571
60416 Tempo 600000
61184 Tempo 428571
64000 Tempo 545454
64256 Tempo 500000
64512 Tempo 461538
65024 Tempo 428571
66816 Tempo 600000
67328 Tempo 428571
68608 Tempo 666666
69120 Tempo 545454
69632 Tempo 500000
70144 Tempo 666666
70400 Tempo 461538
71680 Tempo 545454
71936 Tempo 428571
73472 Tempo 428571
74240 Tempo 545454
75008 Tempo 461538
76288 Tempo 500000
76544 Tempo 428571
79104 Tempo 500000
79616 Tempo 428571
80896 Tempo 500000
81152 Tempo 428571
82432 Tempo 500000
82688 Tempo 428571
83456 Tempo 666666
84480 Tempo 500000
84992 Tempo 461538
87040 Tempo 500000
88064 Tempo 545454
88576 Tempo 500000
88832 Tempo 428571
91392 Tempo 500000
91904 Tempo 428571
93184 Tempo 500000
93440 Tempo 428571
94720 Tempo 500000
94976 Tempo 428571
96000 Tempo 666666
96768 Tempo 500000
97280 Tempo 461538
97792 Tempo 545454
98304 Tempo 461538
99328 Tempo 600000
99584 Tempo 461538
100352 Tempo 500000
100864 Tempo 428571
102400 Tempo 500000
102912 Tempo 428571
107008 Tempo 500000
107264 Tempo 428571
109056 Tempo 500000
109568 Tempo 461538
110080 Tempo 545454
110592 Tempo 461538
111616 Tempo 600000
111872 Tempo 461538
112640 Tempo 500000
113152 Tempo 428571
114688 Tempo 500000
115200 Tempo 428571
116480 Tempo 428571
119296 Tempo 500000
119552 Tempo 428571
120320 Tempo 400000
123904 Tempo 600000
124160 Tempo 545454
124416 Tempo 500000
124672 Tempo 461538
125440 Tempo 600000
125696 Tempo 428571
127488 Tempo 500000
128000 Tempo 461538
128512 Tempo 600000
129024 Tempo 461538
130048 Tempo 666666
130560 Tempo 500000
131584 Tempo 545454
131840 Tempo 428571
133120 Tempo 600000
133632 Tempo 500000
134656 Tempo 545454
134912 Tempo 428571
135680 Tempo 500000
136192 Tempo 461538
137472 Tempo 500000
137728 Tempo 600000
137984 Tempo 428571
139776 Tempo 545454
140288 Tempo 500000
140800 Tempo 600000
141312 Tempo 461538
141824 Tempo 545454
142336 Tempo 666666
142848 Tempo 600000
143360 Tempo 500000
143872 Tempo 545454
144128 Tempo 428571
145408 Tempo 600000
146944 Tempo 545454
147200 Tempo 500000
147712 Tempo 461538
148480 Tempo 545454
148736 Tempo 500000
150016 Tempo 600000
150272 Tempo 428571
152064 Tempo 500000
152576 Tempo 461538
153088 Tempo 600000
153600 Tempo 461538
154624 Tempo 666666
155136 Tempo 500000
156160 Tempo 545454
156416 Tempo 428571
157696 Tempo 600000
158208 Tempo 500000
159232 Tempo 545454
159488 Tempo 428571
160256 Tempo 500000
160768 Tempo 461538
161792 Tempo 545454
162304 Tempo 545454
162816 Tempo 428571
164352 Tempo 500000
164864 Tempo 461538
165376 Tempo 500000
165888 Tempo 428571
166912 Tempo 545454
167424 Tempo 428571
168448 Tempo 600000
168960 Tempo 428571
170496 Tempo 500000
171008 Tempo 461538
171520 Tempo 500000
172032 Tempo 428571
173056 Tempo 545454
173568 Tempo 428571
174592 Tempo 666666
175104 Tempo 428571
176640 Tempo 500000
177152 Tempo 461538
177664 Tempo 666666
178176 Tempo 428571
179712 Tempo 500000
180224 Tempo 461538
180736 Tempo 666666
180992 Tempo 545454
181760 Tempo 500000
182272 Tempo 461538
182784 Tempo 428571
183296 Tempo 500000
183808 Tempo 545454
184064 Tempo 500000
184832 Tempo 545454
185344 Tempo 857142
185600 Tempo 500000
186112 Tempo 461538
186880 Tempo 666666
187136 Tempo 461538
189440 Tempo 600000
189952 Tempo 857142
190208 Tempo 461538
193024 Tempo 666666
193280 Tempo 461538
195584 Tempo 666666
196096 Tempo 857142
196352 Tempo 461538
198656 Tempo 545454
199168 Tempo 857142
199424 Tempo 461538
201728 Tempo 600000
202240 Tempo 857142
202496 Tempo 461538
203776 Tempo 666666
204288 Tempo 545454
205312 Tempo 666666
205568 Tempo 461538
206848 Tempo 545454
207104 Tempo 461538
210176 Tempo 428571
211456 Tempo 666666
211712 Tempo 428571
212992 Tempo 500000
213248 Tempo 428571
214528 Tempo 750000
214784 Tempo 500000
215296 Tempo 461538
216064 Tempo 600000
216320 Tempo 428571
217600 Tempo 666666
217856 Tempo 500000
218112 Tempo 428571
219136 Tempo 545454
219648 Tempo 500000
220672 Tempo 600000
221184 Tempo 500000
221696 Tempo 461538
222208 Tempo 500000
222720 Tempo 461538
223744 Tempo 857142
224000 Tempo 461538
226816 Tempo 600000
227072 Tempo 461538
232960 Tempo 750000
233216 Tempo 500000
233728 Tempo 461538
235520 Tempo 857142
236032 Tempo 600000
236288 Tempo 428571
237568 Tempo 500000
237824 Tempo 428571
238080 Tempo 500000
238592 Tempo 461538
239104 Tempo 666666
239616 Tempo 461538
240640 Tempo 600000
241152 Tempo 461538
242176 Tempo 666666
242432 Tempo 428571
243456 Tempo 500000
243712 Tempo 600000
244224 Tempo 500000
245248 Tempo 666666
245760 Tempo 428571
246272 Tempo 545454
246528 Tempo 500000
246784 Tempo 666666
247296 Tempo 545454
247808 Tempo 500000
248320 Tempo 600000
248576 Tempo 428571
249856 Tempo 500000
250112 Tempo 428571
250368 Tempo 500000
250880 Tempo 461538
251392 Tempo 666666
251904 Tempo 461538
252928 Tempo 600000
253440 Tempo 461538
254464 Tempo 666666
254720 Tempo 428571
255744 Tempo 500000
256000 Tempo 600000
256512 Tempo 500000
257024 Tempo 545454
257536 Tempo 666666
258048 Tempo 500000
258560 Tempo 545454
258816 Tempo 500000
259072 Tempo 666666
259584 Tempo 545454
260096 Tempo 500000
260608 Tempo 600000
260864 Tempo 428571
261888 Tempo 461538
262144 Tempo 500000
262400 Tempo 428571
262656 Tempo 500000
263168 Tempo 461538
263680 Tempo 666666
264192 Tempo 461538
264960 Tempo 500000
265216 Tempo 600000
265728 Tempo 461538
266752 Tempo 666666
267008 Tempo 428571
268032 Tempo 500000
268288 Tempo 600000
268800 Tempo 500000
269824 Tempo 666666
270336 Tempo 428571
270848 Tempo 545454
271104 Tempo 500000
271360 Tempo 666666
271872 Tempo 545454
272384 Tempo 500000
272896 Tempo 600000
273152 Tempo 428571
274432 Tempo 500000
274688 Tempo 428571
274944 Tempo 500000
275456 Tempo 461538
275968 Tempo 666666
276480 Tempo 461538
277504 Tempo 666666
278016 Tempo 461538
278784 Tempo 545454
279040 Tempo 666666
279296 Tempo 428571
280320 Tempo 500000
280576 Tempo 600000
281088 Tempo 545454
281600 Tempo 600000
282112 Tempo 750000
282624 Tempo 500000
283136 Tempo 461538
283392 Tempo 500000
283648 Tempo 500000
283904 Tempo 461538
284672 Tempo 666666
285184 Tempo 666666
285440 Tempo 428571
286720 Tempo 500000
286976 Tempo 428571
287744 Tempo 545454
288256 Tempo 750000
288512 Tempo 500000
289024 Tempo 461538
289792 Tempo 600000
290048 Tempo 428571
291328 Tempo 666666
291584 Tempo 545454
291840 Tempo 500000
292352 Tempo 461538
294400 Tempo 600000
294912 Tempo 500000
295424 Tempo 461538
295936 Tempo 500000
296704 Tempo 545454
296960 Tempo 600000
297216 Tempo 666666
297472 Tempo 857142
297728 Tempo 500000
299008 Tempo 666666
299264 Tempo 461538
303616 Tempo 750000
303872 Tempo 600000
304384 Tempo 500000
305152 Tempo 1000000
305408 Tempo 600000
305664 Tempo 500000
305920 Tempo 461538
309760 Tempo 666666
310016 Tempo 428571
311296 Tempo 500000
311552 Tempo 428571
312320 Tempo 545454
312832 Tempo 750000
313088 Tempo 500000
313600 Tempo 461538
314368 Tempo 600000
314624 Tempo 428571
315904 Tempo 666666
316160 Tempo 545454
316416 Tempo 500000
316928 Tempo 461538
318976 Tempo 600000
319488 Tempo 500000
320000 Tempo 461538
320512 Tempo 500000
321280 Tempo 545454
321536 Tempo 600000
321792 Tempo 666666
322048 Tempo 857142
322304 Tempo 500000
323584 Tempo 666666
323840 Tempo 461538
328192 Tempo 600000
328448 Tempo 545454
328960 Tempo 500000
329728 Tempo 600000
329984 Tempo 600000
330240 Tempo 500000
330496 Tempo 461538
334336 Tempo 600000
334592 Tempo 545454
335104 Tempo 500000
335872 Tempo 750000
336128 Tempo 666666
336384 Tempo 500000
336640 Tempo 461538
340480 Tempo 545454
340736 Tempo 461538
342016 Tempo 600000
342272 Tempo 500000
343552 Tempo 666666
343808 Tempo 545454
345088 Tempo 750000
345344 Tempo 600000
345856 Tempo 666666
346112 Tempo 1000000
346624 Tempo 1200000
346880 Tempo 1000000
349696 Tempo 1200000
352768 Tempo 270270
355843 Meta TrkEnd
TrkEnd
MTrk
0 Meta TrkName "Instrument  1"
0 PrCh ch=1 p=1
0 Par ch=1 c=64 v=0
0 Par ch=1 c=64 v=0
1024 Par ch=1 c=64 v=0
1024 Par ch=1 c=64 v=0
1024 On ch=1 n=a4 v=28
1024 On ch=1 n=c#5 v=28
1024 On ch=1 n=g#5 v=44
1024 On ch=1 n=e4 v=33
1120 Par ch=1 c=64 v=127
1280 On ch=1 n=g#4 v=32
1536 Off ch=1 n=e4 v=0
1536 Off ch=1 n=g#4 v=0
1536 On ch=1 n=e4 v=30
1792 Off ch=1 n=e4 v=0
1792 On ch=1 n=a3 v=28
2048 Off ch=1 n=c#5 v=0
2048 On ch=1 n=e5 v=36
2048 Off ch=1 n=a3 v=0
2048 On ch=1 n=c#4 v=26
2304 Off ch=1 n=c#4 v=0
2304 On ch=1 n=c#3 v=35
2560 Par ch=1 c=64 v=127
2560 Par ch=1 c=64 v=0
2560 Off ch=1 n=a4 v=0
2560 Off ch=1 n=e5 v=0
2560 Off ch=1 n=g#5 v=0
2560 On ch=1 n=a4 v=32
2560 On ch=1 n=c#5 v=32
2560 On ch=1 n=g5 v=51
2560 On ch=1 n=e4 v=38
2691 Par ch=1 c=64 v=0
2778 Par ch=1 c=64 v=127
2816 On ch=1 n=g4 v=35
3072 Off ch=1 n=c#3 v=0
3072 Off ch=1 n=e4 v=0
3072 Off ch=1 n=g4 v=0
3072 On ch=1 n=e4 v=33
3328 Off ch=1 n=e4 v=0
3328 On ch=1 n=a3 v=29
3584 Off ch=1 n=c#5 v=0
3584 On ch=1 n=e5 v=37
3584 Off ch=1 n=a3 v=0
3584 On ch=1 n=c#4 v=27
3840 Off ch=1 n=c#4 v=0
3840 On ch=1 n=c#3 v=35
4085 Par ch=1 c=64 v=0
4096 Off ch=1 n=e5 v=0
4096 On ch=1 n=c#5 v=31
4096 On ch=1 n=e4 v=37
4216 Par ch=1 c=64 v=127
4352 On ch=1 n=g4 v=34
4608 Off ch=1 n=c#3 v=0
4608 Off ch=1 n=e4 v=0
4608 Off ch=1 n=g4 v=0
4608 On ch=1 n=e4 v=32
4864 Off ch=1 n=e4 v=0
4864 On ch=1 n=a3 v=28
5120 Off ch=1 n=c#5 v=0
5120 Off ch=1 n=g5 v=0
5120 On ch=1 n=e5 v=36
5120 On ch=1 n=c#6 v=48
5120 Off ch=1 n=a3 v=0
5120 On ch=1 n=c#4 v=26
5376 Off ch=1 n=c#4 v=0
5376 On ch=1 n=c#3 v=35
5632 Par ch=1 c=64 v=127
5632 Par ch=1 c=64 v=0
5632 Par ch=1 c=64 v=0
5632 Off ch=1 n=a4 v=0
5632 Off ch=1 n=e5 v=0
5632 Off ch=1 n=c#6 v=0
5632 On ch=1 n=a#4 v=30
5632 On ch=1 n=c#5 v=30
5632 On ch=1 n=f#5 v=47
5632 On ch=1 n=e4 v=35
5763 Par ch=1 c=64 v=0
5850 Par ch=1 c=64 v=127
5888 On ch=1 n=f#4 v=33
6144 Off ch=1 n=c#3 v=0
6144 Off ch=1 n=e4 v=0
6144 Off ch=1 n=f#4 v=0
6144 On ch=1 n=e4 v=33
6400 Off ch=1 n=e4 v=0
6400 On ch=1 n=a#3 v=28
6656 Off ch=1 n=c#5 v=0
6656 On ch=1 n=e5 v=35
6656 Off ch=1 n=a#3 v=0
6656 On ch=1 n=c#4 v=25
6912 Off ch=1 n=c#4 v=0
6912 On ch=1 n=c#3 v=35
7157 Par ch=1 c=64 v=0
7168 Off ch=1 n=a#4 v=0
7168 Off ch=1 n=e5 v=0
7168 Off ch=1 n=f#5 v=0
7168 On ch=1 n=a4 v=29
7168 On ch=1 n=c#5 v=29
7168 On ch=1 n=g#5 v=46
7168 On ch=1 n=e4 v=34
7288 Par ch=1 c=64 v=127
7424 On ch=1 n=g#4 v=32
7680 Off ch=1 n=c#3 v=0
7680 Off ch=1 n=e4 v=0
7680 Off ch=1 n=g#4 v=0
7680 On ch=1 n=e4 v=30
7936 Off ch=1 n=e4 v=0
7936 On ch=1 n=a3 v=27
8192 Off ch=1 n=c#5 v=0
8192 On ch=1 n=e5 v=33
8192 Off ch=1 n=a3 v=0
8192 On ch=1 n=c#4 v=24
8448 Off ch=1 n=c#4 v=0
8448 On ch=1 n=c#3 v=35
8704 Par ch=1 c=64 v=127
8704 Par ch=1 c=64 v=0
8704 Par ch=1 c=64 v=0
8704 Par ch=1 c=64 v=0
8704 Off ch=1 n=a4 v=0
8704 Off ch=1 n=e5 v=0
8704 Off ch=1 n=g#5 v=0
8704 On ch=1 n=a4 v=32
8704 On ch=1 n=c#5 v=32
8704 On ch=1 n=g5 v=51
8704 On ch=1 n=e4 v=38
8835 Par ch=1 c=64 v=0
8922 Par ch=1 c=64 v=127
8960 On ch=1 n=g4 v=35
9216 Off ch=1 n=c#3 v=0
9216 Off ch=1 n=e4 v=0
9216 Off ch=1 n=g4 v=0
9216 On ch=1 n=e4 v=33
9472 Off ch=1 n=e4 v=0
9472 On ch=1 n=a3 v=29
9728 Off ch=1 n=c#5 v=0
9728 On ch=1 n=e5 v=37
9728 Off ch=1 n=a3 v=0
9728 On ch=1 n=c#4 v=27
9984 Off ch=1 n=c#4 v=0
9984 On ch=1 n=c#3 v=35
10229 Par ch=1 c=64 v=0
10240 Off ch=1 n=e5 v=0
10240 On ch=1 n=c#5 v=31
10240 On ch=1 n=e4 v=37
10360 Par ch=1 c=64 v=127
10496 On ch=1 n=g4 v=34
10752 Off ch=1 n=c#3 v=0
10752 Off ch=1 n=e4 v=0
10752 Off ch=1 n=g4 v=0
10752 On ch=1 n=e4 v=32
11008 Off ch=1 n=e4 v=0
11008 On ch=1 n=a3 v=28
11264 Off ch=1 n=c#5 v=0
11264 Off ch=1 n=g5 v=0
11264 On ch=1 n=e5 v=36
11264 On ch=1 n=c#6 v=48
11264 Off ch=1 n=a3 v=0
11264 On ch=1 n=c#4 v=26
11520 Off ch=1 n=c#4 v=0
11520 On ch=1 n=c#3 v=35
11776 Par ch=1 c=64 v=127
11776 Par ch=1 c=64 v=0
11776 Par ch=1 c=64 v=0
11776 Par ch=1 c=64 v=0
11776 Par ch=1 c=64 v=0
11776 Par ch=1 c=64 v=0
11776 Off ch=1 n=a4 v=0
11776 Off ch=1 n=e5 v=0
11776 Off ch=1 n=c#6 v=0
11776 On ch=1 n=a#4 v=30
11776 On ch=1 n=c#5 v=30
11776 On ch=1 n=f#5 v=47
11776 On ch=1 n=e4 v=35
11907 Par ch=1 c=64 v=0
11994 Par ch=1 c=64 v=127
12032 On ch=1 n=f#4 v=33
12288 Off ch=1 n=c#3 v=0
12288 Off ch=1 n=e4 v=0
12288 Off ch=1 n=f#4 v=0
12288 On ch=1 n=e4 v=32
12544 Off ch=1 n=e4 v=0
12544 On ch=1 n=a#3 v=29
12800 Off ch=1 n=c#5 v=0
12800 On ch=1 n=e5 v=36
12800 Off ch=1 n=a#3 v=0
12800 On ch=1 n=c#4 v=26
13056 Off ch=1 n=c#4 v=0
13056 On ch=1 n=c#3 v=36
13301 Par ch=1 c=64 v=0
13312 Off ch=1 n=a#4 v=0
13312 Off ch=1 n=e5 v=0
13312 Off ch=1 n=f#5 v=0
13312 On ch=1 n=a4 v=30
13312 On ch=1 n=c#5 v=30
13312 On ch=1 n=g#5 v=48
13312 On ch=1 n=e4 v=36
13432 Par ch=1 c=64 v=127
13568 On ch=1 n=g#4 v=34
13824 Off ch=1 n=c#3 v=0
13824 Off ch=1 n=e4 v=0
13824 Off ch=1 n=g#4 v=0
13824 On ch=1 n=e4 v=32
14080 Off ch=1 n=e4 v=0
14080 On ch=1 n=a3 v=29
14336 Off ch=1 n=c#5 v=0
14336 On ch=1 n=e5 v=36
14336 Off ch=1 n=a3 v=0
14336 On ch=1 n=c#4 v=26
14592 Off ch=1 n=c#4 v=0
14592 On ch=1 n=c#3 v=38
14848 Par ch=1 c=64 v=127
14848 Par ch=1 c=64 v=0
14848 Par ch=1 c=64 v=0
14848 Par ch=1 c=64 v=0
14848 Par ch=1 c=64 v=0
14848 Par ch=1 c=64 v=0
14848 Off ch=1 n=a4 v=0
14848 Off ch=1 n=e5 v=0
14848 Off ch=1 n=g#5 v=0
14848 Off ch=1 n=c#3 v=0
14848 On ch=1 n=a4 v=33
14848 On ch=1 n=c5 v=33
14848 On ch=1 n=g#5 v=52
14848 On ch=1 n=e4 v=39
14979 Par ch=1 c=64 v=0
15066 Par ch=1 c=64 v=127
15104 On ch=1 n=g#4 v=36
15360 Off ch=1 n=e4 v=0
15360 Off ch=1 n=g#4 v=0
15360 On ch=1 n=e4 v=34
15616 Off ch=1 n=e4 v=0
15616 On ch=1 n=a3 v=31
15872 Off ch=1 n=c5 v=0
15872 On ch=1 n=e5 v=39
15872 Off ch=1 n=a3 v=0
15872 On ch=1 n=c4 v=29
16128 Off ch=1 n=c4 v=0
16128 On ch=1 n=c3 v=40
16373 Par ch=1 c=64 v=0
16384 Off ch=1 n=e5 v=0
16384 On ch=1 n=c5 v=32
16384 On ch=1 n=e4 v=38
16504 Par ch=1 c=64 v=127
16640 On ch=1 n=g#4 v=36
16896 Off ch=1 n=c3 v=0
16896 Off ch=1 n=e4 v=0
16896 Off ch=1 n=g#4 v=0
16896 On ch=1 n=e4 v=34
17152 Off ch=1 n=e4 v=0
17152 On ch=1 n=a3 v=31
17408 Off ch=1 n=c5 v=0
17408 On ch=1 n=e5 v=36
17408 Off ch=1 n=a3 v=0
17408 On ch=1 n=c4 v=27
17664 On ch=1 n=e6 v=61
17664 Off ch=1 n=c4 v=0
17664 On ch=1 n=c3 v=41
17920 Par ch=1 c=64 v=127
17920 Par ch=1 c=64 v=0
17920 Par ch=1 c=64 v=0
17920 Par ch=1 c=64 v=0
17920 Par ch=1 c=64 v=0
17920 Par ch=1 c=64 v=0
17920 Par ch=1 c=64 v=0
17920 Par ch=1 c=64 v=0
17920 Par ch=1 c=64 v=0
17920 Off ch=1 n=a4 v=0
17920 Off ch=1 n=e5 v=0
17920 Off ch=1 n=g#5 v=0
17920 Off ch=1 n=e6 v=0
17920 On ch=1 n=a4 v=37
17920 On ch=1 n=c5 v=37
17920 On ch=1 n=g#5 v=54
17920 On ch=1 n=e4 v=43
18051 Par ch=1 c=64 v=0
18138 Par ch=1 c=64 v=127
18176 On ch=1 n=g#4 v=41
18432 Off ch=1 n=c3 v=0
18432 Off ch=1 n=e4 v=0
18432 Off ch=1 n=g#4 v=0
18432 On ch=1 n=e4 v=39
18688 Off ch=1 n=e4 v=0
18688 On ch=1 n=a3 v=36
18944 Off ch=1 n=c5 v=0
18944 On ch=1 n=e5 v=42
18944 Off ch=1 n=a3 v=0
18944 On ch=1 n=c4 v=33
19200 Off ch=1 n=c4 v=0
19200 On ch=1 n=c3 v=44
19445 Par ch=1 c=64 v=0
19456 Off ch=1 n=a4 v=0
19456 Off ch=1 n=e5 v=0
19456 Off ch=1 n=g#5 v=0
19456 On ch=1 n=a4 v=36
19456 On ch=1 n=b4 v=36
19456 On ch=1 n=f5 v=53
19456 Off ch=1 n=c3 v=0
19456 On ch=1 n=d#4 v=43
19576 Par ch=1 c=64 v=127
19712 On ch=1 n=f#4 v=41
19968 Off ch=1 n=f5 v=0
19968 On ch=1 n=f#5 v=56
19968 Off ch=1 n=d#4 v=0
19968 Off ch=1 n=f#4 v=0
19968 On ch=1 n=d#4 v=39
20059 Par ch=1 c=64 v=0
20218 Par ch=1 c=64 v=127
20224 Off ch=1 n=d#4 v=0
20224 On ch=1 n=a3 v=36
20480 Off ch=1 n=f#5 v=0
20480 On ch=1 n=g5 v=58
20480 Off ch=1 n=a3 v=0
20480 On ch=1 n=b3 v=33
20605 Par ch=1 c=64 v=0
20719 Par ch=1 c=64 v=127
20736 Off ch=1 n=b3 v=0
20736 On ch=1 n=b2 v=45
20992 Par ch=1 c=64 v=127
20992 Par ch=1 c=64 v=0
20992 Par ch=1 c=64 v=0
20992 Par ch=1 c=64 v=0
20992 Par ch=1 c=64 v=0
20992 Par ch=1 c=64 v=0
20992 Par ch=1 c=64 v=0
20992 Off ch=1 n=a4 v=0
20992 Off ch=1 n=b4 v=0
20992 Off ch=1 n=g5 v=0
20992 Off ch=1 n=b2 v=0
20992 On ch=1 n=g#4 v=49
20992 On ch=1 n=d#5 v=49
20992 On ch=1 n=g#5 v=61
20992 On ch=1 n=d#4 v=41
21123 Par ch=1 c=64 v=0
21210 Par ch=1 c=64 v=127
21248 On ch=1 n=g#4 v=39
21504 Off ch=1 n=d#4 v=0
21504 Off ch=1 n=g#4 v=0
21504 On ch=1 n=d#4 v=37
21760 Off ch=1 n=d#4 v=0
21760 On ch=1 n=g#3 v=35
22016 Off ch=1 n=g#3 v=0
22016 On ch=1 n=c4 v=33
22272 Off ch=1 n=c4 v=0
22272 On ch=1 n=c3 v=51
22517 Par ch=1 c=64 v=0
22528 Off ch=1 n=g#4 v=0
22528 Off ch=1 n=d#5 v=0
22528 Off ch=1 n=g#5 v=0
22528 On ch=1 n=g#4 v=28
22528 On ch=1 n=e5 v=40
22528 Off ch=1 n=c3 v=0
22528 On ch=1 n=c3 v=51
22648 Par ch=1 c=64 v=127
22784 Off ch=1 n=e5 v=0
22784 On ch=1 n=d#5 v=43
22784 On ch=1 n=g#3 v=38
23040 Off ch=1 n=d#5 v=0
23040 On ch=1 n=g#5 v=46
23040 Off ch=1 n=c3 v=0
23040 Off ch=1 n=g#3 v=0
23040 On ch=1 n=d#4 v=40
23296 Off ch=1 n=g#4 v=0
23296 On ch=1 n=e5 v=49
23296 Off ch=1 n=d#4 v=0
23296 On ch=1 n=c4 v=43
23552 Off ch=1 n=g#5 v=0
23552 On ch=1 n=g#5 v=40
23552 On ch=1 n=e6 v=52
23552 Off ch=1 n=c4 v=0
23552 On ch=1 n=g#4 v=45
23808 Off ch=1 n=g#5 v=0
23808 Off ch=1 n=e6 v=0
23808 On ch=1 n=d#5 v=37
23808 On ch=1 n=d#6 v=49
23808 Off ch=1 n=e5 v=0
23808 Off ch=1 n=g#4 v=0
24064 Par ch=1 c=64 v=127
24064 Par ch=1 c=64 v=0
24064 Par ch=1 c=64 v=0
24064 Par ch=1 c=64 v=0
24064 Par ch=1 c=64 v=0
24064 Par ch=1 c=64 v=0
24064 Par ch=1 c=64 v=0
24064 Par ch=1 c=64 v=0
24064 Off ch=1 n=d#5 v=0
24064 Off ch=1 n=d#6 v=0
24064 On ch=1 n=d#5 v=35
24064 On ch=1 n=a5 v=47
24064 On ch=1 n=c4 v=45
24195 Par ch=1 c=64 v=0
24282 Par ch=1 c=64 v=127
24320 Off ch=1 n=a5 v=0
24320 On ch=1 n=g#5 v=50
24320 On ch=1 n=g#4 v=41
24576 Off ch=1 n=g#5 v=0
24576 On ch=1 n=d#6 v=53
24576 Off ch=1 n=c4 v=0
24576 Off ch=1 n=g#4 v=0
24576 On ch=1 n=d#5 v=43
24832 Off ch=1 n=d#5 v=0
24832 On ch=1 n=a5 v=56
24832 Off ch=1 n=d#5 v=0
24832 On ch=1 n=c5 v=46
25088 Off ch=1 n=d#6 v=0
25088 On ch=1 n=d#6 v=47
25088 On ch=1 n=a6 v=59
25088 Off ch=1 n=c5 v=0
25088 On ch=1 n=c6 v=48
25344 Off ch=1 n=d#6 v=0
25344 Off ch=1 n=a6 v=0
25344 On ch=1 n=g#5 v=44
25344 On ch=1 n=g#6 v=56
25344 Off ch=1 n=a5 v=0
25344 Off ch=1 n=c6 v=0
25589 Par ch=1 c=64 v=0
25600 Off ch=1 n=g#5 v=0
25600 Off ch=1 n=g#6 v=0
25600 On ch=1 n=g#4 v=41
25600 On ch=1 n=d#5 v=41
25600 On ch=1 n=g#5 v=55
25600 On ch=1 n=d#4 v=45
25720 Par ch=1 c=64 v=127
25856 On ch=1 n=g#4 v=43
26112 Off ch=1 n=d#4 v=0
26112 Off ch=1 n=g#4 v=0
26112 On ch=1 n=d#4 v=42
26368 Off ch=1 n=d#4 v=0
26368 On ch=1 n=g#3 v=40
26624 Off ch=1 n=g#3 v=0
26624 On ch=1 n=c4 v=39
26880 Off ch=1 n=c4 v=0
26880 On ch=1 n=c3 v=37
27136 Par ch=1 c=64 v=127
27136 Par ch=1 c=64 v=0
27136 Par ch=1 c=64 v=0
27136 Par ch=1 c=64 v=0
27136 Par ch=1 c=64 v=0
27136 Par ch=1 c=64 v=0
27136 Par ch=1 c=64 v=0
27136 Par ch=1 c=64 v=127
27136 Par ch=1 c=64 v=0
27136 Par ch=1 c=64 v=0
27136 Par ch=1 c=64 v=0
27136 Off ch=1 n=g#4 v=0
27136 Off ch=1 n=d#5 v=0
27136 Off ch=1 n=g#5 v=0
27136 Off ch=1 n=c3 v=0
27136 On ch=1 n=f4 v=20
27136 On ch=1 n=b4 v=43
27136 On ch=1 n=a5 v=55
27136 On ch=1 n=d#4 v=38
27267 Par ch=1 c=64 v=0
27267 Par ch=1 c=64 v=0
27354 Par ch=1 c=64 v=127
27354 Par ch=1 c=64 v=127
27392 On ch=1 n=a4 v=35
27648 Off ch=1 n=d#4 v=0
27648 Off ch=1 n=a4 v=0
27648 On ch=1 n=d#4 v=33
27904 Off ch=1 n=d#4 v=0
27904 On ch=1 n=f3 v=30
28160 Off ch=1 n=b4 v=0
28160 On ch=1 n=d#5 v=43
28160 Off ch=1 n=f3 v=0
28160 On ch=1 n=b3 v=28
28416 Off ch=1 n=b3 v=0
28416 On ch=1 n=b2 v=39
28661 Par ch=1 c=64 v=0
28661 Par ch=1 c=64 v=0
28672 Off ch=1 n=d#5 v=0
28672 On ch=1 n=b4 v=43
28672 On ch=1 n=d#4 v=38
28792 Par ch=1 c=64 v=127
28792 Par ch=1 c=64 v=127
28928 On ch=1 n=a4 v=35
29184 Off ch=1 n=b2 v=0
29184 Off ch=1 n=d#4 v=0
29184 Off ch=1 n=a4 v=0
29184 On ch=1 n=d#4 v=34
29440 Off ch=1 n=d#4 v=0
29440 On ch=1 n=f3 v=29
29696 Off ch=1 n=b4 v=0
29696 On ch=1 n=d#5 v=43
29696 Off ch=1 n=f3 v=0
29696 On ch=1 n=b3 v=28
29952 Off ch=1 n=a5 v=0
29952 On ch=1 n=a5 v=55
29952 Off ch=1 n=b3 v=0
29952 On ch=1 n=b2 v=40
30208 Par ch=1 c=64 v=127
30208 Par ch=1 c=64 v=0
30208 Par ch=1 c=64 v=0
30208 Par ch=1 c=64 v=0
30208 Par ch=1 c=64 v=0
30208 Par ch=1 c=64 v=0
30208 Par ch=1 c=64 v=0
30208 Par ch=1 c=64 v=127
30208 Par ch=1 c=64 v=0
30208 Par ch=1 c=64 v=0
30208 Par ch=1 c=64 v=0
30208 Par ch=1 c=64 v=0
30208 Off ch=1 n=f4 v=0
30208 Off ch=1 n=d#5 v=0
30208 Off ch=1 n=a5 v=0
30208 On ch=1 n=f4 v=18
30208 On ch=1 n=b4 v=43
30208 On ch=1 n=a5 v=55
30208 On ch=1 n=d4 v=37
30339 Par ch=1 c=64 v=0
30339 Par ch=1 c=64 v=0
30426 Par ch=1 c=64 v=127
30426 Par ch=1 c=64 v=127
30464 On ch=1 n=a4 v=35
30720 Off ch=1 n=b2 v=0
30720 Off ch=1 n=d4 v=0
30720 Off ch=1 n=a4 v=0
30720 On ch=1 n=d4 v=36
30976 Off ch=1 n=d4 v=0
30976 On ch=1 n=f3 v=31
31232 Off ch=1 n=b4 v=0
31232 On ch=1 n=d5 v=43
31232 Off ch=1 n=f3 v=0
31232 On ch=1 n=b3 v=27
31488 Off ch=1 n=b3 v=0
31488 On ch=1 n=b2 v=42
31733 Par ch=1 c=64 v=0
31733 Par ch=1 c=64 v=0
31744 Off ch=1 n=f4 v=0
31744 Off ch=1 n=d5 v=0
31744 Off ch=1 n=a5 v=0
31744 On ch=1 n=b4 v=43
31744 On ch=1 n=f5 v=55
31744 On ch=1 n=a4 v=17
31744 On ch=1 n=d4 v=37
31864 Par ch=1 c=64 v=127
31864 Par ch=1 c=64 v=127
32000 On ch=1 n=f4 v=36
32256 Off ch=1 n=b2 v=0
32256 Off ch=1 n=d4 v=0
32256 Off ch=1 n=f4 v=0
32256 On ch=1 n=d4 v=33
32512 Off ch=1 n=d4 v=0
32512 On ch=1 n=a3 v=30
32768 Off ch=1 n=b4 v=0
32768 On ch=1 n=d5 v=43
32768 Off ch=1 n=a3 v=0
32768 On ch=1 n=b3 v=27
33024 Off ch=1 n=b3 v=0
33024 On ch=1 n=b2 v=40
33280 Par ch=1 c=64 v=127
33280 Par ch=1 c=64 v=0
33280 Par ch=1 c=64 v=0
33280 Par ch=1 c=64 v=0
33280 Par ch=1 c=64 v=0
33280 Par ch=1 c=64 v=0
33280 Par ch=1 c=64 v=0
33280 Par ch=1 c=64 v=127
33280 Par ch=1 c=64 v=0
33280 Par ch=1 c=64 v=0
33280 Par ch=1 c=64 v=0
33280 Par ch=1 c=64 v=0
33280 Par ch=1 c=64 v=0
33280 Off ch=1 n=d5 v=0
33280 Off ch=1 n=f5 v=0
33280 Off ch=1 n=a4 v=0
33280 Off ch=1 n=b2 v=0
33280 On ch=1 n=f4 v=44
33280 On ch=1 n=a4 v=49
33280 On ch=1 n=g#5 v=61
33280 On ch=1 n=c#4 v=43
33411 Par ch=1 c=64 v=0
33411 Par ch=1 c=64 v=0
33498 Par ch=1 c=64 v=127
33498 Par ch=1 c=64 v=127
33536 On ch=1 n=g#4 v=40
33792 Off ch=1 n=c#4 v=0
33792 Off ch=1 n=g#4 v=0
33792 On ch=1 n=c#4 v=38
34048 Off ch=1 n=c#4 v=0
34048 On ch=1 n=f3 v=34
34304 Off ch=1 n=a4 v=0
34304 Off ch=1 n=g#5 v=0
34304 On ch=1 n=c#5 v=55
34304 Off ch=1 n=f3 v=0
34304 On ch=1 n=a3 v=32
34560 Off ch=1 n=a3 v=0
34560 On ch=1 n=a2 v=52
34805 Par ch=1 c=64 v=0
34805 Par ch=1 c=64 v=0
34816 Off ch=1 n=f4 v=0
34816 On ch=1 n=a4 v=44
34816 On ch=1 n=c#4 v=45
34936 Par ch=1 c=64 v=127
34936 Par ch=1 c=64 v=127
35072 On ch=1 n=g#4 v=42
35328 Off ch=1 n=c#5 v=0
35328 On ch=1 n=d#5 v=59
35328 Off ch=1 n=a2 v=0
35328 Off ch=1 n=c#4 v=0
35328 Off ch=1 n=g#4 v=0
35328 On ch=1 n=c#4 v=40
35584 Off ch=1 n=c#4 v=0
35584 On ch=1 n=g#3 v=35
35840 Off ch=1 n=a4 v=0
35840 Off ch=1 n=d#5 v=0
35840 On ch=1 n=c#5 v=48
35840 On ch=1 n=f5 v=61
35840 Off ch=1 n=g#3 v=0
35840 On ch=1 n=a3 v=33
36096 Off ch=1 n=a3 v=0
36096 On ch=1 n=a2 v=54
36352 Par ch=1 c=64 v=127
36352 Par ch=1 c=64 v=0
36352 Par ch=1 c=64 v=0
36352 Par ch=1 c=64 v=0
36352 Par ch=1 c=64 v=0
36352 Par ch=1 c=64 v=0
36352 Par ch=1 c=64 v=0
36352 Par ch=1 c=64 v=0
36352 Par ch=1 c=64 v=0
36352 Off ch=1 n=c#5 v=0
36352 Off ch=1 n=f5 v=0
36352 On ch=1 n=a4 v=50
36352 On ch=1 n=f#5 v=63
36352 On ch=1 n=c#4 v=51
36483 Par ch=1 c=64 v=0
36570 Par ch=1 c=64 v=127
36608 Off ch=1 n=c#4 v=0
36608 On ch=1 n=f#4 v=49
36864 Off ch=1 n=f#5 v=0
36864 On ch=1 n=g#5 v=65
36864 Off ch=1 n=a2 v=0
36864 Off ch=1 n=f#4 v=0
36864 On ch=1 n=c#4 v=47
37120 Off ch=1 n=c#4 v=0
37120 On ch=1 n=f#3 v=44
37376 Off ch=1 n=a4 v=0
37376 Off ch=1 n=g#5 v=0
37376 On ch=1 n=c#5 v=53
37376 On ch=1 n=a5 v=66
37376 Off ch=1 n=f#3 v=0
37376 On ch=1 n=a3 v=42
37632 Off ch=1 n=a3 v=0
37632 On ch=1 n=a2 v=48
37877 Par ch=1 c=64 v=0
37888 Off ch=1 n=c#5 v=0
37888 Off ch=1 n=a5 v=0
37888 On ch=1 n=c5 v=55
37888 On ch=1 n=f#5 v=55
37888 On ch=1 n=c6 v=68
37888 On ch=1 n=c#4 v=56
38008 Par ch=1 c=64 v=127
38144 On ch=1 n=a4 v=54
38400 Off ch=1 n=c5 v=0
38400 Off ch=1 n=c6 v=0
38400 On ch=1 n=c#5 v=57
38400 On ch=1 n=c#6 v=70
38400 Off ch=1 n=a2 v=0
38400 Off ch=1 n=c#4 v=0
38400 Off ch=1 n=a4 v=0
38400 On ch=1 n=c#4 v=52
38656 Off ch=1 n=c#4 v=0
38656 On ch=1 n=f#3 v=50
38912 Off ch=1 n=c#5 v=0
38912 Off ch=1 n=f#5 v=0
38912 Off ch=1 n=c#6 v=0
38912 On ch=1 n=f#5 v=59
38912 On ch=1 n=c#6 v=59
38912 On ch=1 n=f#6 v=72
38912 Off ch=1 n=f#3 v=0
38912 On ch=1 n=a3 v=48
39168 Off ch=1 n=a3 v=0
39168 On ch=1 n=a2 v=54
39424 Par ch=1 c=64 v=127
39424 Par ch=1 c=64 v=0
39424 Par ch=1 c=64 v=0
39424 Par ch=1 c=64 v=0
39424 Par ch=1 c=64 v=0
39424 Par ch=1 c=64 v=0
39424 Par ch=1 c=64 v=0
39424 Par ch=1 c=64 v=0
39424 Par ch=1 c=64 v=0
39424 Off ch=1 n=f#5 v=0
39424 Off ch=1 n=c#6 v=0
39424 Off ch=1 n=f#6 v=0
39424 Off ch=1 n=a2 v=0
39424 On ch=1 n=a5 v=66
39424 On ch=1 n=c#6 v=66
39424 On ch=1 n=f#6 v=66
39424 On ch=1 n=a6 v=79
39424 On ch=1 n=d4 v=63
39555 Par ch=1 c=64 v=0
39642 Par ch=1 c=64 v=127
39680 On ch=1 n=a4 v=61
39936 Off ch=1 n=d4 v=0
39936 Off ch=1 n=a4 v=0
39936 On ch=1 n=d4 v=59
40192 Off ch=1 n=d4 v=0
40192 On ch=1 n=f#3 v=55
40448 Off ch=1 n=f#3 v=0
40448 On ch=1 n=f#3 v=53
40704 Off ch=1 n=f#3 v=0
40704 On ch=1 n=f#2 v=59
40949 Par ch=1 c=64 v=0
40960 On ch=1 n=d4 v=63
41080 Par ch=1 c=64 v=127
41216 On ch=1 n=a4 v=61
41472 Off ch=1 n=f#2 v=0
41472 Off ch=1 n=d4 v=0
41472 Off ch=1 n=a4 v=0
41472 On ch=1 n=d4 v=59
41728 Off ch=1 n=d4 v=0
41728 On ch=1 n=f#3 v=55
41984 Off ch=1 n=f#3 v=0
41984 On ch=1 n=f#3 v=53
42240 Off ch=1 n=f#3 v=0
42240 On ch=1 n=f#2 v=59
42496 Par ch=1 c=64 v=127
42496 Par ch=1 c=64 v=0
42496 Par ch=1 c=64 v=0
42496 Par ch=1 c=64 v=0
42496 Par ch=1 c=64 v=0
42496 Par ch=1 c=64 v=0
42496 Par ch=1 c=64 v=0
42496 Par ch=1 c=64 v=0
42496 Par ch=1 c=64 v=0
42496 Off ch=1 n=a5 v=0
42496 Off ch=1 n=c#6 v=0
42496 Off ch=1 n=f#6 v=0
42496 Off ch=1 n=a6 v=0
42496 On ch=1 n=c#5 v=55
42496 On ch=1 n=d#5 v=55
42496 On ch=1 n=a5 v=55
42496 On ch=1 n=c#6 v=71
42496 On ch=1 n=d#4 v=63
42627 Par ch=1 c=64 v=0
42714 Par ch=1 c=64 v=127
42752 On ch=1 n=a4 v=61
43008 Off ch=1 n=f#2 v=0
43008 Off ch=1 n=d#4 v=0
43008 Off ch=1 n=a4 v=0
43008 On ch=1 n=d#4 v=59
43264 Off ch=1 n=d#4 v=0
43264 On ch=1 n=g3 v=55
43520 Off ch=1 n=g3 v=0
43520 On ch=1 n=g3 v=53
43776 Off ch=1 n=g3 v=0
43776 On ch=1 n=g2 v=59
44021 Par ch=1 c=64 v=0
44032 On ch=1 n=d#4 v=63
44152 Par ch=1 c=64 v=127
44288 On ch=1 n=a4 v=61
44544 Off ch=1 n=g2 v=0
44544 Off ch=1 n=d#4 v=0
44544 Off ch=1 n=a4 v=0
44544 On ch=1 n=d#4 v=59
44800 Off ch=1 n=d#4 v=0
44800 On ch=1 n=g3 v=55
45056 Off ch=1 n=g3 v=0
45056 On ch=1 n=g3 v=53
45312 Off ch=1 n=g3 v=0
45312 On ch=1 n=g2 v=59
45568 Par ch=1 c=64 v=127
45568 Par ch=1 c=64 v=0
45568 Par ch=1 c=64 v=0
45568 Par ch=1 c=64 v=0
45568 Par ch=1 c=64 v=0
45568 Par ch=1 c=64 v=0
45568 Par ch=1 c=64 v=0
45568 Par ch=1 c=64 v=0
45568 Par ch=1 c=64 v=0
45568 Off ch=1 n=c#5 v=0
45568 Off ch=1 n=d#5 v=0
45568 Off ch=1 n=a5 v=0
45568 Off ch=1 n=c#6 v=0
45568 Off ch=1 n=g2 v=0
45568 On ch=1 n=c5 v=45
45568 On ch=1 n=d#5 v=45
45568 On ch=1 n=g#5 v=45
45568 On ch=1 n=c6 v=60
45568 On ch=1 n=d#4 v=53
45699 Par ch=1 c=64 v=0
45786 Par ch=1 c=64 v=127
45824 Off ch=1 n=d#4 v=0
45824 On ch=1 n=g#4 v=51
46080 Off ch=1 n=g#4 v=0
46080 On ch=1 n=d#4 v=49
46336 Off ch=1 n=d#4 v=0
46336 On ch=1 n=g#3 v=47
46592 Off ch=1 n=g#3 v=0
46592 On ch=1 n=g#3 v=45
46848 Off ch=1 n=g#3 v=0
46848 On ch=1 n=g#2 v=51
47093 Par ch=1 c=64 v=0
47104 Off ch=1 n=c5 v=0
47104 Off ch=1 n=d#5 v=0
47104 Off ch=1 n=g#5 v=0
47104 Off ch=1 n=c6 v=0
47104 On ch=1 n=g#4 v=43
47104 On ch=1 n=e5 v=55
47104 Off ch=1 n=g#2 v=0
47104 On ch=1 n=g#3 v=51
47224 Par ch=1 c=64 v=127
47360 Off ch=1 n=e5 v=0
47360 On ch=1 n=d#5 v=58
47360 Off ch=1 n=g#3 v=0
47360 On ch=1 n=d#4 v=50
47616 Off ch=1 n=d#5 v=0
47616 On ch=1 n=g#5 v=61
47616 Off ch=1 n=d#4 v=0
47616 On ch=1 n=c5 v=52
47872 Off ch=1 n=g#4 v=0
47872 On ch=1 n=e5 v=64
47872 Off ch=1 n=c5 v=0
47872 On ch=1 n=g#4 v=55
48128 Off ch=1 n=g#5 v=0
48128 On ch=1 n=c6 v=55
48128 On ch=1 n=e6 v=67
48128 Off ch=1 n=g#4 v=0
48128 On ch=1 n=g#5 v=57
48384 Off ch=1 n=c6 v=0
48384 Off ch=1 n=e6 v=0
48384 On ch=1 n=d#5 v=52
48384 On ch=1 n=d#6 v=64
48384 Off ch=1 n=e5 v=0
48384 Off ch=1 n=g#5 v=0
48640 Par ch=1 c=64 v=127
48640 Par ch=1 c=64 v=0
48640 Par ch=1 c=64 v=0
48640 Par ch=1 c=64 v=0
48640 Par ch=1 c=64 v=0
48640 Par ch=1 c=64 v=0
48640 Par ch=1 c=64 v=0
48640 Par ch=1 c=64 v=0
48640 Par ch=1 c=64 v=0
48640 Par ch=1 c=64 v=0
48640 Off ch=1 n=d#5 v=0
48640 Off ch=1 n=d#6 v=0
48640 On ch=1 n=d#5 v=50
48640 On ch=1 n=a5 v=62
48640 On ch=1 n=g#3 v=57
48771 Par ch=1 c=64 v=0
48858 Par ch=1 c=64 v=127
48896 Off ch=1 n=a5 v=0
48896 On ch=1 n=g#5 v=65
48896 Off ch=1 n=g#3 v=0
48896 On ch=1 n=d#4 v=53
49152 Off ch=1 n=g#5 v=0
49152 On ch=1 n=d#6 v=68
49152 Off ch=1 n=d#4 v=0
49152 On ch=1 n=c5 v=55
49408 Off ch=1 n=d#5 v=0
49408 On ch=1 n=a5 v=71
49408 Off ch=1 n=c5 v=0
49408 On ch=1 n=c5 v=58
49664 Off ch=1 n=d#6 v=0
49664 On ch=1 n=d#6 v=62
49664 On ch=1 n=a6 v=74
49664 Off ch=1 n=c5 v=0
49664 On ch=1 n=c6 v=60
49892 Par ch=1 c=64 v=0
49920 Off ch=1 n=d#6 v=0
49920 Off ch=1 n=a6 v=0
49920 On ch=1 n=g#5 v=59
49920 On ch=1 n=g#6 v=71
49920 Off ch=1 n=a5 v=0
49920 Off ch=1 n=c6 v=0
50165 Par ch=1 c=64 v=0
50176 Off ch=1 n=g#5 v=0
50176 Off ch=1 n=g#6 v=0
50176 On ch=1 n=a4 v=34
50176 On ch=1 n=g#5 v=53
50176 On ch=1 n=c#5 v=38
50176 On ch=1 n=e4 v=45
50278 Par ch=1 c=64 v=0
50415 Par ch=1 c=64 v=0
50432 Off ch=1 n=c#5 v=0
50432 On ch=1 n=c5 v=37
50432 On ch=1 n=g#4 v=43
50688 Off ch=1 n=c5 v=0
50688 On ch=1 n=d#5 v=39
50688 Off ch=1 n=e4 v=0
50688 Off ch=1 n=g#4 v=0
50688 On ch=1 n=e4 v=42
50944 Off ch=1 n=d#5 v=0
50944 On ch=1 n=c#5 v=42
50944 Off ch=1 n=e4 v=0
50944 On ch=1 n=a3 v=40
51200 Off ch=1 n=c#5 v=0
51200 On ch=1 n=f#5 v=44
51200 Off ch=1 n=a3 v=0
51200 On ch=1 n=c#4 v=39
51456 Off ch=1 n=f#5 v=0
51456 On ch=1 n=e5 v=47
51456 Off ch=1 n=c#4 v=0
51456 On ch=1 n=c#3 v=39
51712 Par ch=1 c=64 v=0
51712 Par ch=1 c=64 v=0
51712 Par ch=1 c=64 v=0
51712 Off ch=1 n=a4 v=0
51712 Off ch=1 n=e5 v=0
51712 On ch=1 n=a4 v=27
51712 On ch=1 n=g5 v=53
51712 On ch=1 n=c#5 v=27
51712 On ch=1 n=e4 v=38
51752 Off ch=1 n=g#5 v=0
51917 Par ch=1 c=64 v=127
51968 Off ch=1 n=c#5 v=0
51968 On ch=1 n=c5 v=29
51968 On ch=1 n=g4 v=35
52224 Off ch=1 n=c5 v=0
52224 On ch=1 n=d#5 v=31
52224 Off ch=1 n=e4 v=0
52224 Off ch=1 n=g4 v=0
52224 On ch=1 n=e4 v=33
52480 Off ch=1 n=d#5 v=0
52480 On ch=1 n=c#5 v=33
52480 Off ch=1 n=e4 v=0
52480 On ch=1 n=a3 v=29
52668 Par ch=1 c=64 v=0
52736 Off ch=1 n=c#5 v=0
52736 On ch=1 n=f#5 v=35
52736 Off ch=1 n=a3 v=0
52736 On ch=1 n=c#4 v=27
52992 Off ch=1 n=f#5 v=0
52992 On ch=1 n=e5 v=37
52992 Off ch=1 n=c#4 v=0
52992 On ch=1 n=c#3 v=39
53248 Off ch=1 n=e5 v=0
53248 On ch=1 n=c#5 v=27
53248 Off ch=1 n=c#3 v=0
53248 On ch=1 n=e4 v=37
53441 Par ch=1 c=64 v=127
53504 Off ch=1 n=c#5 v=0
53504 On ch=1 n=c5 v=29
53504 On ch=1 n=g4 v=34
53760 Off ch=1 n=c5 v=0
53760 On ch=1 n=d#5 v=31
53760 Off ch=1 n=e4 v=0
53760 Off ch=1 n=g4 v=0
53760 On ch=1 n=e4 v=32
54016 Off ch=1 n=d#5 v=0
54016 On ch=1 n=c#5 v=33
54016 Off ch=1 n=e4 v=0
54016 On ch=1 n=a3 v=28
54147 Par ch=1 c=64 v=0
54272 Off ch=1 n=c#5 v=0
54272 On ch=1 n=f#5 v=55
54272 On ch=1 n=c#6 v=44
54272 Off ch=1 n=a3 v=0
54272 On ch=1 n=c#4 v=26
54312 Off ch=1 n=g5 v=0
54528 Off ch=1 n=f#5 v=0
54528 On ch=1 n=e5 v=37
54528 Off ch=1 n=c#4 v=0
54528 On ch=1 n=c#3 v=39
54556 Par ch=1 c=64 v=127
54784 Par ch=1 c=64 v=127
54784 Par ch=1 c=64 v=0
54784 Par ch=1 c=64 v=0
54784 Off ch=1 n=e5 v=0
54784 Off ch=1 n=a4 v=0
54784 Off ch=1 n=c#3 v=0
54784 On ch=1 n=a#4 v=27
54784 On ch=1 n=f#5 v=53
54784 On ch=1 n=c#5 v=27
54784 On ch=1 n=e4 v=35
54824 Off ch=1 n=c#6 v=0
54852 Par ch=1 c=64 v=0
54989 Par ch=1 c=64 v=127
55040 Off ch=1 n=c#5 v=0
55040 On ch=1 n=c5 v=29
55040 On ch=1 n=f#4 v=33
55296 Off ch=1 n=c5 v=0
55296 On ch=1 n=d#5 v=31
55296 Off ch=1 n=e4 v=0
55296 Off ch=1 n=f#4 v=0
55296 On ch=1 n=e4 v=33
55552 Off ch=1 n=d#5 v=0
55552 On ch=1 n=c#5 v=33
55552 Off ch=1 n=e4 v=0
55552 On ch=1 n=a#3 v=28
55740 Par ch=1 c=64 v=0
55808 Off ch=1 n=c#5 v=0
55808 On ch=1 n=f#5 v=35
55808 Off ch=1 n=a#3 v=0
55808 On ch=1 n=c#4 v=25
56064 Off ch=1 n=f#5 v=0
56064 On ch=1 n=e5 v=37
56064 Off ch=1 n=c#4 v=0
56064 On ch=1 n=c#3 v=39
56320 Off ch=1 n=a#4 v=0
56320 Off ch=1 n=e5 v=0
56320 On ch=1 n=c#5 v=27
56320 On ch=1 n=a4 v=27
56320 On ch=1 n=g#5 v=53
56320 Off ch=1 n=c#3 v=0
56320 On ch=1 n=e4 v=34
56360 Off ch=1 n=f#5 v=0
56513 Par ch=1 c=64 v=127
56576 Off ch=1 n=c#5 v=0
56576 On ch=1 n=c5 v=29
56576 On ch=1 n=g#4 v=32
56832 Off ch=1 n=c5 v=0
56832 On ch=1 n=d#5 v=31
56832 Off ch=1 n=e4 v=0
56832 Off ch=1 n=g#4 v=0
56832 On ch=1 n=e4 v=30
57088 Off ch=1 n=d#5 v=0
57088 On ch=1 n=c#5 v=33
57088 Off ch=1 n=e4 v=0
57088 On ch=1 n=a3 v=27
57219 Par ch=1 c=64 v=0
57344 Off ch=1 n=c#5 v=0
57344 On ch=1 n=f#5 v=33
57344 Off ch=1 n=a3 v=0
57344 On ch=1 n=c#4 v=24
57600 Off ch=1 n=f#5 v=0
57600 On ch=1 n=e5 v=34
57600 Off ch=1 n=c#4 v=0
57600 On ch=1 n=c#3 v=35
57856 Par ch=1 c=64 v=0
57856 Par ch=1 c=64 v=0
57856 Par ch=1 c=64 v=0
57856 Par ch=1 c=64 v=0
57856 Par ch=1 c=64 v=0
57856 Par ch=1 c=64 v=0
57856 Par ch=1 c=64 v=0
57856 Off ch=1 n=e5 v=0
57856 Off ch=1 n=a4 v=0
57856 Off ch=1 n=c#3 v=0
57856 On ch=1 n=a4 v=27
57856 On ch=1 n=g5 v=53
57856 On ch=1 n=c#5 v=27
57856 On ch=1 n=e4 v=38
57896 Off ch=1 n=g#5 v=0
58061 Par ch=1 c=64 v=127
58112 Off ch=1 n=c#5 v=0
58112 On ch=1 n=c5 v=29
58112 On ch=1 n=g4 v=35
58368 Off ch=1 n=c5 v=0
58368 On ch=1 n=d#5 v=31
58368 Off ch=1 n=c#3 v=0
58368 Off ch=1 n=e4 v=0
58368 Off ch=1 n=g4 v=0
58368 On ch=1 n=e4 v=33
58624 Off ch=1 n=d#5 v=0
58624 On ch=1 n=c#5 v=33
58624 Off ch=1 n=e4 v=0
58624 On ch=1 n=a3 v=29
58812 Par ch=1 c=64 v=0
58880 Off ch=1 n=c#5 v=0
58880 On ch=1 n=f#5 v=35
58880 Off ch=1 n=a3 v=0
58880 On ch=1 n=c#4 v=27
59136 Off ch=1 n=f#5 v=0
59136 On ch=1 n=e5 v=37
59136 Off ch=1 n=c#4 v=0
59136 On ch=1 n=c#3 v=35
59392 Off ch=1 n=e5 v=0
59392 On ch=1 n=c#5 v=27
59392 On ch=1 n=e4 v=37
59585 Par ch=1 c=64 v=127
59648 Off ch=1 n=c#5 v=0
59648 On ch=1 n=c5 v=29
59648 On ch=1 n=g4 v=34
59904 Off ch=1 n=c5 v=0
59904 On ch=1 n=d#5 v=31
59904 Off ch=1 n=c#3 v=0
59904 Off ch=1 n=e4 v=0
59904 Off ch=1 n=g4 v=0
59904 On ch=1 n=e4 v=32
60160 Off ch=1 n=d#5 v=0
60160 On ch=1 n=c#5 v=33
60160 Off ch=1 n=e4 v=0
60160 On ch=1 n=a3 v=28
60291 Par ch=1 c=64 v=0
60416 Off ch=1 n=c#5 v=0
60416 On ch=1 n=f#5 v=55
60416 On ch=1 n=c#6 v=44
60416 Off ch=1 n=a3 v=0
60416 On ch=1 n=c#4 v=26
60456 Off ch=1 n=g5 v=0
60672 Off ch=1 n=f#5 v=0
60672 On ch=1 n=e5 v=30
60672 Off ch=1 n=c#4 v=0
60672 On ch=1 n=c#3 v=35
60700 Par ch=1 c=64 v=127
60928 Par ch=1 c=64 v=127
60928 Par ch=1 c=64 v=0
60928 Par ch=1 c=64 v=0
60928 Par ch=1 c=64 v=0
60928 Par ch=1 c=64 v=0
60928 Off ch=1 n=e5 v=0
60928 Off ch=1 n=a4 v=0
60928 On ch=1 n=a#4 v=27
60928 On ch=1 n=f#5 v=53
60928 On ch=1 n=c#5 v=27
60928 On ch=1 n=e4 v=35
60968 Off ch=1 n=c#6 v=0
60996 Par ch=1 c=64 v=0
61133 Par ch=1 c=64 v=127
61184 Off ch=1 n=c#5 v=0
61184 On ch=1 n=c5 v=29
61184 On ch=1 n=f#4 v=33
61440 Off ch=1 n=c5 v=0
61440 On ch=1 n=d#5 v=31
61440 Off ch=1 n=c#3 v=0
61440 Off ch=1 n=e4 v=0
61440 Off ch=1 n=f#4 v=0
61440 On ch=1 n=e4 v=32
61696 Off ch=1 n=d#5 v=0
61696 On ch=1 n=c#5 v=33
61696 Off ch=1 n=e4 v=0
61696 On ch=1 n=a#3 v=29
61884 Par ch=1 c=64 v=0
61952 Off ch=1 n=c#5 v=0
61952 On ch=1 n=f#5 v=35
61952 Off ch=1 n=a#3 v=0
61952 On ch=1 n=c#4 v=26
62208 Off ch=1 n=f#5 v=0
62208 On ch=1 n=e5 v=37
62208 Off ch=1 n=c#4 v=0
62208 On ch=1 n=c#3 v=36
62464 Off ch=1 n=a#4 v=0
62464 Off ch=1 n=e5 v=0
62464 On ch=1 n=c#5 v=27
62464 On ch=1 n=a4 v=27
62464 On ch=1 n=g#5 v=53
62464 On ch=1 n=e4 v=36
62504 Off ch=1 n=f#5 v=0
62657 Par ch=1 c=64 v=127
62720 Off ch=1 n=c#5 v=0
62720 On ch=1 n=c5 v=29
62720 On ch=1 n=g#4 v=34
62976 Off ch=1 n=c5 v=0
62976 On ch=1 n=d#5 v=31
62976 Off ch=1 n=c#3 v=0
62976 Off ch=1 n=e4 v=0
62976 Off ch=1 n=g#4 v=0
62976 On ch=1 n=e4 v=32
63232 Off ch=1 n=d#5 v=0
63232 On ch=1 n=c#5 v=33
63232 Off ch=1 n=e4 v=0
63232 On ch=1 n=a3 v=29
63363 Par ch=1 c=64 v=0
63488 Off ch=1 n=c#5 v=0
63488 On ch=1 n=f#5 v=33
63488 Off ch=1 n=a3 v=0
63488 On ch=1 n=c#4 v=26
63744 Off ch=1 n=f#5 v=0
63744 On ch=1 n=e5 v=34
63744 Off ch=1 n=c#4 v=0
63744 On ch=1 n=c#3 v=38
64000 Par ch=1 c=64 v=127
64000 Par ch=1 c=64 v=0
64000 Par ch=1 c=64 v=0
64000 Par ch=1 c=64 v=0
64000 Par ch=1 c=64 v=0
64000 Par ch=1 c=64 v=0
64000 Par ch=1 c=64 v=0
64000 Off ch=1 n=e5 v=0
64000 Off ch=1 n=a4 v=0
64000 Off ch=1 n=g#5 v=0
64000 Off ch=1 n=c#3 v=0
64000 On ch=1 n=a4 v=27
64000 On ch=1 n=g#5 v=53
64000 On ch=1 n=c5 v=27
64000 On ch=1 n=e4 v=39
64131 Par ch=1 c=64 v=0
64218 Par ch=1 c=64 v=127
64256 Off ch=1 n=c5 v=0
64256 On ch=1 n=b4 v=29
64256 On ch=1 n=g#4 v=36
64512 Off ch=1 n=b4 v=0
64512 On ch=1 n=d5 v=31
64512 Off ch=1 n=e4 v=0
64512 Off ch=1 n=g#4 v=0
64512 On ch=1 n=e4 v=34
64768 Off ch=1 n=d5 v=0
64768 On ch=1 n=c5 v=33
64768 Off ch=1 n=e4 v=0
64768 On ch=1 n=a3 v=31
65024 Off ch=1 n=c5 v=0
65024 On ch=1 n=f#5 v=35
65024 Off ch=1 n=a3 v=0
65024 On ch=1 n=c4 v=29
65280 Off ch=1 n=f#5 v=0
65280 On ch=1 n=e5 v=37
65280 Off ch=1 n=c4 v=0
65280 On ch=1 n=c3 v=40
65525 Par ch=1 c=64 v=0
65536 Off ch=1 n=e5 v=0
65536 On ch=1 n=c5 v=27
65536 On ch=1 n=e4 v=38
65656 Par ch=1 c=64 v=127
65792 Off ch=1 n=c5 v=0
65792 On ch=1 n=b4 v=29
65792 On ch=1 n=g#4 v=36
66048 Off ch=1 n=b4 v=0
66048 On ch=1 n=d5 v=31
66048 Off ch=1 n=c3 v=0
66048 Off ch=1 n=e4 v=0
66048 Off ch=1 n=g#4 v=0
66048 On ch=1 n=e4 v=34
66304 Off ch=1 n=d5 v=0
66304 On ch=1 n=c5 v=33
66304 Off ch=1 n=e4 v=0
66304 On ch=1 n=a3 v=31
66560 Off ch=1 n=c5 v=0
66560 On ch=1 n=f#5 v=33
66560 Off ch=1 n=a3 v=0
66560 On ch=1 n=c4 v=27
66816 Off ch=1 n=f#5 v=0
66816 On ch=1 n=e5 v=34
66816 Off ch=1 n=a4 v=0
66816 Off ch=1 n=g#5 v=0
66816 On ch=1 n=e6 v=61
66816 Off ch=1 n=c4 v=0
66816 On ch=1 n=c3 v=41
67072 Par ch=1 c=64 v=127
67072 Par ch=1 c=64 v=0
67072 Par ch=1 c=64 v=0
67072 Par ch=1 c=64 v=0
67072 Par ch=1 c=64 v=0
67072 Par ch=1 c=64 v=0
67072 Par ch=1 c=64 v=0
67072 Par ch=1 c=64 v=0
67072 Par ch=1 c=64 v=0
67072 Par ch=1 c=64 v=0
67072 Off ch=1 n=e5 v=0
67072 On ch=1 n=g#5 v=48
67072 On ch=1 n=c5 v=33
67072 On ch=1 n=e4 v=43
67112 Off ch=1 n=e6 v=0
67203 Par ch=1 c=64 v=0
67290 Par ch=1 c=64 v=127
67328 Off ch=1 n=c5 v=0
67328 On ch=1 n=b4 v=35
67328 On ch=1 n=g#4 v=41
67584 Off ch=1 n=b4 v=0
67584 On ch=1 n=d5 v=37
67584 Off ch=1 n=c3 v=0
67584 Off ch=1 n=e4 v=0
67584 Off ch=1 n=g#4 v=0
67584 On ch=1 n=e4 v=39
67840 Off ch=1 n=d5 v=0
67840 On ch=1 n=c5 v=40
67840 Off ch=1 n=e4 v=0
67840 On ch=1 n=a3 v=36
68096 Off ch=1 n=c5 v=0
68096 On ch=1 n=f#5 v=42
68096 Off ch=1 n=a3 v=0
68096 On ch=1 n=c4 v=33
68352 Off ch=1 n=f#5 v=0
68352 On ch=1 n=e5 v=38
68352 Off ch=1 n=c4 v=0
68352 On ch=1 n=c3 v=44
68597 Par ch=1 c=64 v=0
68608 Off ch=1 n=e5 v=0
68608 On ch=1 n=b4 v=33
68608 On ch=1 n=f5 v=54
68608 Off ch=1 n=c3 v=0
68608 On ch=1 n=d#4 v=43
68648 Off ch=1 n=g#5 v=0
68728 Par ch=1 c=64 v=127
68864 Off ch=1 n=b4 v=0
68864 On ch=1 n=a4 v=35
68864 On ch=1 n=f#4 v=41
69120 Off ch=1 n=a4 v=0
69120 On ch=1 n=c#5 v=37
69120 On ch=1 n=f#5 v=56
69120 Off ch=1 n=d#4 v=0
69120 Off ch=1 n=f#4 v=0
69120 On ch=1 n=d#4 v=39
69160 Off ch=1 n=f5 v=0
69211 Par ch=1 c=64 v=0
69370 Par ch=1 c=64 v=127
69376 Off ch=1 n=c#5 v=0
69376 On ch=1 n=b4 v=40
69376 Off ch=1 n=d#4 v=0
69376 On ch=1 n=a3 v=36
69632 Off ch=1 n=b4 v=0
69632 On ch=1 n=e5 v=42
69632 On ch=1 n=g5 v=58
69632 Off ch=1 n=a3 v=0
69632 On ch=1 n=b3 v=33
69672 Off ch=1 n=f#5 v=0
69757 Par ch=1 c=64 v=0
69871 Par ch=1 c=64 v=127
69888 On ch=1 n=d#5 v=38
69888 Off ch=1 n=b3 v=0
69888 On ch=1 n=b2 v=45
69928 Off ch=1 n=e5 v=0
70144 Par ch=1 c=64 v=127
70144 Par ch=1 c=64 v=0
70144 Par ch=1 c=64 v=0
70144 Par ch=1 c=64 v=0
70144 Par ch=1 c=64 v=0
70144 Par ch=1 c=64 v=0
70144 Par ch=1 c=64 v=0
70144 Par ch=1 c=64 v=0
70144 Off ch=1 n=d#5 v=0
70144 Off ch=1 n=g5 v=0
70144 Off ch=1 n=b2 v=0
70144 On ch=1 n=g#5 v=63
70144 On ch=1 n=c5 v=35
70144 On ch=1 n=d#4 v=41
70275 Par ch=1 c=64 v=0
70362 Par ch=1 c=64 v=127
70400 Off ch=1 n=c5 v=0
70400 On ch=1 n=b4 v=37
70400 On ch=1 n=g#4 v=39
70656 Off ch=1 n=b4 v=0
70656 On ch=1 n=c#5 v=39
70656 Off ch=1 n=d#4 v=0
70656 Off ch=1 n=g#4 v=0
70656 On ch=1 n=d#4 v=37
70912 Off ch=1 n=c#5 v=0
70912 On ch=1 n=c5 v=41
70912 Off ch=1 n=d#4 v=0
70912 On ch=1 n=g#3 v=35
71168 Off ch=1 n=c5 v=0
71168 On ch=1 n=e5 v=43
71168 Off ch=1 n=g#3 v=0
71168 On ch=1 n=c4 v=33
71424 Off ch=1 n=e5 v=0
71424 On ch=1 n=d#5 v=39
71424 Off ch=1 n=c4 v=0
71424 On ch=1 n=c3 v=58
71669 Par ch=1 c=64 v=0
71680 Off ch=1 n=g#5 v=0
71680 Off ch=1 n=d#5 v=0
71680 On ch=1 n=e5 v=47
71680 On ch=1 n=g#4 v=35
71680 Off ch=1 n=c3 v=0
71680 On ch=1 n=c3 v=53
71800 Par ch=1 c=64 v=127
71936 Off ch=1 n=e5 v=0
71936 On ch=1 n=d#5 v=50
71936 On ch=1 n=g#3 v=38
72192 Off ch=1 n=d#5 v=0
72192 On ch=1 n=g#5 v=53
72192 Off ch=1 n=c3 v=0
72192 Off ch=1 n=g#3 v=0
72192 On ch=1 n=d#4 v=40
72448 Off ch=1 n=g#4 v=0
72448 On ch=1 n=e5 v=56
72448 Off ch=1 n=d#4 v=0
72448 On ch=1 n=c4 v=43
72704 Off ch=1 n=g#5 v=0
72704 On ch=1 n=g#5 v=47
72704 On ch=1 n=e6 v=59
72704 Off ch=1 n=c4 v=0
72704 On ch=1 n=g#4 v=45
72960 Off ch=1 n=g#5 v=0
72960 Off ch=1 n=e6 v=0
72960 On ch=1 n=d#5 v=44
72960 On ch=1 n=d#6 v=56
72960 Off ch=1 n=e5 v=0
72960 Off ch=1 n=g#4 v=0
73216 Par ch=1 c=64 v=127
73216 Par ch=1 c=64 v=0
73216 Par ch=1 c=64 v=0
73216 Par ch=1 c=64 v=0
73216 Par ch=1 c=64 v=0
73216 Par ch=1 c=64 v=0
73216 Par ch=1 c=64 v=0
73216 Par ch=1 c=64 v=0
73216 Off ch=1 n=d#5 v=0
73216 Off ch=1 n=d#6 v=0
73216 On ch=1 n=d#5 v=39
73216 On ch=1 n=a5 v=51
73216 On ch=1 n=c4 v=45
73347 Par ch=1 c=64 v=0
73434 Par ch=1 c=64 v=127
73472 Off ch=1 n=a5 v=0
73472 On ch=1 n=g#5 v=53
73472 On ch=1 n=g#4 v=41
73728 Off ch=1 n=g#5 v=0
73728 On ch=1 n=d#6 v=55
73728 Off ch=1 n=c4 v=0
73728 Off ch=1 n=g#4 v=0
73728 On ch=1 n=d#5 v=43
73984 Off ch=1 n=d#5 v=0
73984 On ch=1 n=a5 v=46
73984 Off ch=1 n=d#5 v=0
73984 On ch=1 n=c5 v=46
74240 Off ch=1 n=d#6 v=0
74240 On ch=1 n=d#6 v=48
74240 On ch=1 n=a6 v=60
74240 Off ch=1 n=c5 v=0
74240 On ch=1 n=c6 v=48
74496 Off ch=1 n=d#6 v=0
74496 Off ch=1 n=a6 v=0
74496 On ch=1 n=g#5 v=45
74496 On ch=1 n=g#6 v=57
74496 Off ch=1 n=a5 v=0
74496 Off ch=1 n=c6 v=0
74741 Par ch=1 c=64 v=0
74752 Off ch=1 n=g#5 v=0
74752 Off ch=1 n=g#6 v=0
74752 On ch=1 n=c5 v=25
74752 On ch=1 n=g#5 v=48
74752 On ch=1 n=d#4 v=45
74872 Par ch=1 c=64 v=127
74877 Par ch=1 c=64 v=0
75008 Off ch=1 n=c5 v=0
75008 On ch=1 n=b4 v=27
75008 On ch=1 n=g#4 v=43
75264 Off ch=1 n=b4 v=0
75264 On ch=1 n=c#5 v=29
75264 Off ch=1 n=d#4 v=0
75264 Off ch=1 n=g#4 v=0
75264 On ch=1 n=d#4 v=42
75520 Off ch=1 n=c#5 v=0
75520 On ch=1 n=c5 v=31
75520 Off ch=1 n=d#4 v=0
75520 On ch=1 n=g#3 v=40
75776 Off ch=1 n=c5 v=0
75776 On ch=1 n=e5 v=33
75776 Off ch=1 n=g#3 v=0
75776 On ch=1 n=c4 v=39
76032 Off ch=1 n=e5 v=0
76032 On ch=1 n=d#5 v=28
76032 Off ch=1 n=c4 v=0
76032 On ch=1 n=c3 v=37
76288 Par ch=1 c=64 v=0
76288 Par ch=1 c=64 v=0
76288 Par ch=1 c=64 v=0
76288 Par ch=1 c=64 v=0
76288 Par ch=1 c=64 v=0
76288 Par ch=1 c=64 v=0
76288 Par ch=1 c=64 v=0
76288 Off ch=1 n=d#5 v=0
76288 Off ch=1 n=g#5 v=0
76288 Off ch=1 n=c3 v=0
76288 On ch=1 n=f4 v=30
76288 On ch=1 n=a5 v=54
76288 On ch=1 n=b4 v=30
76288 On ch=1 n=d#4 v=38
76493 Par ch=1 c=64 v=127
76544 Off ch=1 n=b4 v=0
76544 On ch=1 n=a#4 v=32
76544 On ch=1 n=a4 v=35
76800 Off ch=1 n=a#4 v=0
76800 On ch=1 n=c#5 v=33
76800 Off ch=1 n=d#4 v=0
76800 Off ch=1 n=a4 v=0
76800 On ch=1 n=d#4 v=33
77056 Off ch=1 n=c#5 v=0
77056 On ch=1 n=b4 v=35
77056 Off ch=1 n=d#4 v=0
77056 On ch=1 n=f3 v=30
77244 Par ch=1 c=64 v=0
77312 Off ch=1 n=b4 v=0
77312 On ch=1 n=e5 v=37
77312 Off ch=1 n=f3 v=0
77312 On ch=1 n=b3 v=28
77568 Off ch=1 n=e5 v=0
77568 On ch=1 n=d#5 v=32
77568 Off ch=1 n=b3 v=0
77568 On ch=1 n=b2 v=39
77824 Off ch=1 n=f4 v=0
77824 Off ch=1 n=d#5 v=0
77824 On ch=1 n=b4 v=30
77824 On ch=1 n=d#4 v=38
78017 Par ch=1 c=64 v=127
78080 Off ch=1 n=b4 v=0
78080 On ch=1 n=a#4 v=32
78080 On ch=1 n=a4 v=35
78336 Off ch=1 n=a#4 v=0
78336 On ch=1 n=c#5 v=34
78336 Off ch=1 n=d#4 v=0
78336 Off ch=1 n=a4 v=0
78336 On ch=1 n=d#4 v=34
78592 Off ch=1 n=c#5 v=0
78592 On ch=1 n=b4 v=36
78592 Off ch=1 n=d#4 v=0
78592 On ch=1 n=f3 v=29
78723 Par ch=1 c=64 v=0
78848 Off ch=1 n=b4 v=0
78848 On ch=1 n=e5 v=38
78848 Off ch=1 n=f3 v=0
78848 On ch=1 n=b3 v=28
79104 Off ch=1 n=e5 v=0
79104 On ch=1 n=d#5 v=34
79104 Off ch=1 n=a5 v=0
79104 On ch=1 n=a5 v=54
79104 Off ch=1 n=b2 v=0
79104 Off ch=1 n=b3 v=0
79104 On ch=1 n=b2 v=40
79360 Par ch=1 c=64 v=0
79360 Par ch=1 c=64 v=0
79360 Par ch=1 c=64 v=0
79360 Par ch=1 c=64 v=0
79360 Par ch=1 c=64 v=0
79360 Par ch=1 c=64 v=0
79360 Par ch=1 c=64 v=0
79360 Off ch=1 n=d#5 v=0
79360 Off ch=1 n=a5 v=0
79360 On ch=1 n=a5 v=55
79360 On ch=1 n=b4 v=30
79360 On ch=1 n=d4 v=37
79565 Par ch=1 c=64 v=127
79616 Off ch=1 n=b4 v=0
79616 On ch=1 n=a#4 v=32
79616 On ch=1 n=a4 v=35
79872 Off ch=1 n=a#4 v=0
79872 On ch=1 n=c#5 v=33
79872 Off ch=1 n=d4 v=0
79872 Off ch=1 n=a4 v=0
79872 On ch=1 n=d4 v=36
80128 Off ch=1 n=c#5 v=0
80128 On ch=1 n=b4 v=35
80128 Off ch=1 n=d4 v=0
80128 On ch=1 n=f3 v=31
80316 Par ch=1 c=64 v=0
80384 Off ch=1 n=b4 v=0
80384 On ch=1 n=e5 v=37
80384 Off ch=1 n=f3 v=0
80384 On ch=1 n=b3 v=27
80640 Off ch=1 n=e5 v=0
80640 On ch=1 n=d5 v=32
80640 Off ch=1 n=b2 v=0
80640 Off ch=1 n=b3 v=0
80640 On ch=1 n=b2 v=42
80896 Off ch=1 n=d5 v=0
80896 On ch=1 n=b4 v=30
80896 On ch=1 n=f5 v=50
80896 On ch=1 n=d4 v=37
80936 Off ch=1 n=a5 v=0
81089 Par ch=1 c=64 v=127
81152 Off ch=1 n=b4 v=0
81152 On ch=1 n=a#4 v=32
81152 On ch=1 n=f4 v=36
81408 Off ch=1 n=a#4 v=0
81408 On ch=1 n=c#5 v=34
81408 Off ch=1 n=d4 v=0
81408 Off ch=1 n=f4 v=0
81408 On ch=1 n=d4 v=33
81664 Off ch=1 n=c#5 v=0
81664 On ch=1 n=b4 v=36
81664 Off ch=1 n=d4 v=0
81664 On ch=1 n=a3 v=30
81795 Par ch=1 c=64 v=0
81920 Off ch=1 n=b4 v=0
81920 On ch=1 n=e5 v=38
81920 Off ch=1 n=a3 v=0
81920 On ch=1 n=b3 v=27
82176 Off ch=1 n=e5 v=0
82176 On ch=1 n=d5 v=34
82176 Off ch=1 n=b2 v=0
82176 Off ch=1 n=b3 v=0
82176 On ch=1 n=b2 v=40
82432 Par ch=1 c=64 v=0
82432 Par ch=1 c=64 v=0
82432 Par ch=1 c=64 v=0
82432 Par ch=1 c=64 v=0
82432 Par ch=1 c=64 v=0
82432 Par ch=1 c=64 v=0
82432 Par ch=1 c=64 v=0
82432 Off ch=1 n=d5 v=0
82432 Off ch=1 n=b2 v=0
82432 On ch=1 n=g#5 v=55
82432 On ch=1 n=a4 v=30
82432 On ch=1 n=c#4 v=43
82472 Off ch=1 n=f5 v=0
82672 Par ch=1 c=64 v=127
82688 Off ch=1 n=a4 v=0
82688 On ch=1 n=g#4 v=32
82688 On ch=1 n=g#4 v=40
82944 Off ch=1 n=g#4 v=0
82944 On ch=1 n=b4 v=33
82944 Off ch=1 n=c#4 v=0
82944 Off ch=1 n=g#4 v=0
82944 On ch=1 n=c#4 v=38
83200 Off ch=1 n=b4 v=0
83200 On ch=1 n=a4 v=35
83200 Off ch=1 n=c#4 v=0
83200 On ch=1 n=f3 v=34
83456 Off ch=1 n=a4 v=0
83456 On ch=1 n=d5 v=37
83456 Off ch=1 n=f3 v=0
83456 On ch=1 n=a3 v=32
83712 Off ch=1 n=d5 v=0
83712 On ch=1 n=c#5 v=57
83712 Off ch=1 n=a3 v=0
83712 On ch=1 n=a2 v=48
83752 Off ch=1 n=g#5 v=0
83935 Par ch=1 c=64 v=0
83968 On ch=1 n=a4 v=30
83968 On ch=1 n=c#4 v=45
84197 Par ch=1 c=64 v=127
84224 Off ch=1 n=a4 v=0
84224 On ch=1 n=g#4 v=32
84224 On ch=1 n=g#4 v=42
84480 Off ch=1 n=g#4 v=0
84480 On ch=1 n=b4 v=34
84480 On ch=1 n=d#5 v=55
84480 Off ch=1 n=a2 v=0
84480 Off ch=1 n=c#4 v=0
84480 Off ch=1 n=g#4 v=0
84480 On ch=1 n=c#4 v=40
84520 Off ch=1 n=c#5 v=0
84736 Off ch=1 n=b4 v=0
84736 On ch=1 n=a4 v=36
84736 Off ch=1 n=c#4 v=0
84736 On ch=1 n=g#3 v=35
84992 Off ch=1 n=a4 v=0
84992 On ch=1 n=d5 v=38
84992 On ch=1 n=f5 v=56
84992 Off ch=1 n=g#3 v=0
84992 On ch=1 n=a3 v=33
85032 Off ch=1 n=d#5 v=0
85248 Off ch=1 n=d5 v=0
85248 On ch=1 n=c#5 v=34
85248 Off ch=1 n=a3 v=0
85248 On ch=1 n=a2 v=50
85504 Par ch=1 c=64 v=127
85504 Par ch=1 c=64 v=0
85504 Par ch=1 c=64 v=0
85504 Par ch=1 c=64 v=0
85504 Par ch=1 c=64 v=0
85504 Off ch=1 n=c#5 v=0
85504 On ch=1 n=f#5 v=58
85504 On ch=1 n=a4 v=30
85504 On ch=1 n=c#4 v=43
85544 Off ch=1 n=f5 v=0
85613 Par ch=1 c=64 v=0
85760 Off ch=1 n=a4 v=0
85760 On ch=1 n=g#4 v=32
85760 On ch=1 n=f#4 v=40
85874 Par ch=1 c=64 v=127
86016 Off ch=1 n=g#4 v=0
86016 On ch=1 n=b4 v=33
86016 On ch=1 n=g#5 v=60
86016 Off ch=1 n=a2 v=0
86016 Off ch=1 n=c#4 v=0
86016 Off ch=1 n=f#4 v=0
86016 On ch=1 n=c#4 v=38
86056 Off ch=1 n=f#5 v=0
86272 Off ch=1 n=b4 v=0
86272 On ch=1 n=a4 v=35
86272 Off ch=1 n=c#4 v=0
86272 On ch=1 n=f#3 v=34
86528 Off ch=1 n=a4 v=0
86528 On ch=1 n=d5 v=37
86528 On ch=1 n=a5 v=61
86528 Off ch=1 n=f#3 v=0
86528 On ch=1 n=a3 v=32
86568 Off ch=1 n=g#5 v=0
86784 Off ch=1 n=d5 v=0
86784 On ch=1 n=c#5 v=32
86784 Off ch=1 n=a3 v=0
86784 On ch=1 n=a2 v=48
87040 Off ch=1 n=c#5 v=0
87040 On ch=1 n=f#5 v=30
87040 On ch=1 n=d6 v=63
87040 On ch=1 n=c#4 v=38
87051 Par ch=1 c=64 v=0
87080 Off ch=1 n=a5 v=0
87291 Par ch=1 c=64 v=127
87296 Off ch=1 n=f#5 v=0
87296 On ch=1 n=f5 v=32
87296 On ch=1 n=a4 v=35
87552 Off ch=1 n=f5 v=0
87552 On ch=1 n=g#5 v=34
87552 Off ch=1 n=a2 v=0
87552 Off ch=1 n=c#4 v=0
87552 Off ch=1 n=a4 v=0
87552 On ch=1 n=c#4 v=33
87808 Off ch=1 n=g#5 v=0
87808 On ch=1 n=f#5 v=36
87808 Off ch=1 n=c#4 v=0
87808 On ch=1 n=f#3 v=28
88064 Off ch=1 n=f#5 v=0
88064 On ch=1 n=c#6 v=54
88064 Off ch=1 n=f#3 v=0
88064 On ch=1 n=a3 v=26
88104 Off ch=1 n=d6 v=0
88320 Off ch=1 n=a3 v=0
88320 On ch=1 n=a2 v=22
88423 Par ch=1 c=64 v=0
88576 Par ch=1 c=64 v=0
88576 Par ch=1 c=64 v=0
88576 Par ch=1 c=64 v=0
88576 Par ch=1 c=64 v=0
88576 Par ch=1 c=64 v=0
88576 Par ch=1 c=64 v=0
88576 Par ch=1 c=64 v=0
88576 Par ch=1 c=64 v=0
88576 Par ch=1 c=64 v=0
88576 Par ch=1 c=64 v=0
88576 Off ch=1 n=c#6 v=0
88576 Off ch=1 n=a2 v=0
88576 On ch=1 n=b5 v=57
88576 On ch=1 n=c#5 v=30
88576 On ch=1 n=f4 v=38
88781 Par ch=1 c=64 v=127
88832 Off ch=1 n=c#5 v=0
88832 On ch=1 n=c5 v=32
88832 On ch=1 n=b4 v=35
89088 Off ch=1 n=c5 v=0
89088 On ch=1 n=d#5 v=33
89088 Off ch=1 n=f4 v=0
89088 Off ch=1 n=b4 v=0
89088 On ch=1 n=f4 v=33
89344 Off ch=1 n=d#5 v=0
89344 On ch=1 n=c#5 v=35
89344 Off ch=1 n=f4 v=0
89344 On ch=1 n=g3 v=30
89532 Par ch=1 c=64 v=0
89600 Off ch=1 n=c#5 v=0
89600 On ch=1 n=f#5 v=37
89600 Off ch=1 n=g3 v=0
89600 On ch=1 n=c#4 v=29
89856 Off ch=1 n=f#5 v=0
89856 On ch=1 n=f5 v=32
89856 Off ch=1 n=c#4 v=0
89856 On ch=1 n=c#3 v=40
90112 Off ch=1 n=f5 v=0
90112 On ch=1 n=c#5 v=30
90112 On ch=1 n=f4 v=39
90305 Par ch=1 c=64 v=127
90368 Off ch=1 n=c#5 v=0
90368 On ch=1 n=c5 v=32
90368 On ch=1 n=b4 v=36
90624 Off ch=1 n=c5 v=0
90624 On ch=1 n=d#5 v=34
90624 Off ch=1 n=c#3 v=0
90624 Off ch=1 n=f4 v=0
90624 Off ch=1 n=b4 v=0
90624 On ch=1 n=f4 v=35
90880 Off ch=1 n=d#5 v=0
90880 On ch=1 n=c#5 v=36
90880 Off ch=1 n=f4 v=0
90880 On ch=1 n=g3 v=30
91011 Par ch=1 c=64 v=0
91136 Off ch=1 n=c#5 v=0
91136 On ch=1 n=f#5 v=38
91136 Off ch=1 n=g3 v=0
91136 On ch=1 n=c#4 v=29
91392 Off ch=1 n=f#5 v=0
91392 On ch=1 n=f5 v=34
91392 Off ch=1 n=b5 v=0
91392 On ch=1 n=b5 v=54
91392 Off ch=1 n=c#4 v=0
91392 On ch=1 n=c#3 v=42
91648 Par ch=1 c=64 v=0
91648 Par ch=1 c=64 v=0
91648 Par ch=1 c=64 v=0
91648 Par ch=1 c=64 v=0
91648 Par ch=1 c=64 v=0
91648 Par ch=1 c=64 v=0
91648 Par ch=1 c=64 v=0
91648 Par ch=1 c=64 v=0
91648 Par ch=1 c=64 v=0
91648 Off ch=1 n=f5 v=0
91648 Off ch=1 n=b5 v=0
91648 On ch=1 n=b5 v=58
91648 On ch=1 n=c#5 v=30
91648 On ch=1 n=e4 v=39
91853 Par ch=1 c=64 v=127
91904 Off ch=1 n=c#5 v=0
91904 On ch=1 n=c5 v=32
91904 Off ch=1 n=c#3 v=0
91904 On ch=1 n=c#3 v=55
91904 On ch=1 n=b4 v=37
92160 Off ch=1 n=c5 v=0
92160 On ch=1 n=d#5 v=33
92160 Off ch=1 n=c#3 v=0
92160 Off ch=1 n=e4 v=0
92160 Off ch=1 n=b4 v=0
92160 On ch=1 n=e4 v=38
92416 Off ch=1 n=d#5 v=0
92416 On ch=1 n=c#5 v=35
92416 Off ch=1 n=e4 v=0
92416 On ch=1 n=g3 v=33
92604 Par ch=1 c=64 v=0
92672 Off ch=1 n=c#5 v=0
92672 On ch=1 n=f#5 v=37
92672 Off ch=1 n=g3 v=0
92672 On ch=1 n=c#4 v=29
92928 Off ch=1 n=f#5 v=0
92928 On ch=1 n=e5 v=32
92928 Off ch=1 n=c#4 v=0
92928 On ch=1 n=c#3 v=45
93184 Off ch=1 n=b5 v=0
93184 Off ch=1 n=e5 v=0
93184 On ch=1 n=c#5 v=31
93184 On ch=1 n=g5 v=52
93184 On ch=1 n=e4 v=40
93377 Par ch=1 c=64 v=127
93440 Off ch=1 n=c#5 v=0
93440 On ch=1 n=c5 v=34
93440 On ch=1 n=g4 v=39
93696 Off ch=1 n=c5 v=0
93696 On ch=1 n=d#5 v=36
93696 Off ch=1 n=c#3 v=0
93696 Off ch=1 n=e4 v=0
93696 Off ch=1 n=g4 v=0
93696 On ch=1 n=e4 v=36
93952 Off ch=1 n=d#5 v=0
93952 On ch=1 n=c#5 v=38
93952 Off ch=1 n=e4 v=0
93952 On ch=1 n=b3 v=33
94083 Par ch=1 c=64 v=0
94208 Off ch=1 n=c#5 v=0
94208 On ch=1 n=f#5 v=40
94208 Off ch=1 n=b3 v=0
94208 On ch=1 n=c#4 v=29
94464 Off ch=1 n=f#5 v=0
94464 On ch=1 n=e5 v=36
94464 Off ch=1 n=c#4 v=0
94464 On ch=1 n=c#3 v=44
94720 Par ch=1 c=64 v=0
94720 Par ch=1 c=64 v=0
94720 Par ch=1 c=64 v=0
94720 Par ch=1 c=64 v=0
94720 Par ch=1 c=64 v=0
94720 Par ch=1 c=64 v=0
94720 Par ch=1 c=64 v=0
94720 Par ch=1 c=64 v=0
94720 Par ch=1 c=64 v=0
94720 Off ch=1 n=e5 v=0
94720 Off ch=1 n=g5 v=0
94720 On ch=1 n=a#5 v=59
94720 On ch=1 n=b4 v=32
94720 On ch=1 n=d#4 v=47
94960 Par ch=1 c=64 v=127
94976 Off ch=1 n=b4 v=0
94976 On ch=1 n=a#4 v=35
94976 Off ch=1 n=c#3 v=0
94976 On ch=1 n=a#4 v=44
95232 Off ch=1 n=a#4 v=0
95232 On ch=1 n=c#5 v=36
95232 Off ch=1 n=d#4 v=0
95232 Off ch=1 n=a#4 v=0
95232 On ch=1 n=d#4 v=42
95488 Off ch=1 n=c#5 v=0
95488 On ch=1 n=b4 v=38
95488 Off ch=1 n=d#4 v=0
95488 On ch=1 n=g3 v=38
95744 Off ch=1 n=b4 v=0
95744 On ch=1 n=e5 v=41
95744 Off ch=1 n=g3 v=0
95744 On ch=1 n=b3 v=36
96000 Off ch=1 n=e5 v=0
96000 Off ch=1 n=a#5 v=0
96000 On ch=1 n=d#5 v=60
96000 Off ch=1 n=b3 v=0
96000 On ch=1 n=b2 v=54
96223 Par ch=1 c=64 v=0
96256 On ch=1 n=b4 v=33
96256 On ch=1 n=d#4 v=51
96485 Par ch=1 c=64 v=127
96512 Off ch=1 n=b4 v=0
96512 On ch=1 n=a#4 v=36
96512 On ch=1 n=a#4 v=47
96768 Off ch=1 n=a#4 v=0
96768 On ch=1 n=c#5 v=38
96768 Off ch=1 n=d#5 v=0
96768 On ch=1 n=f5 v=62
96768 Off ch=1 n=b2 v=0
96768 Off ch=1 n=d#4 v=0
96768 Off ch=1 n=a#4 v=0
96768 On ch=1 n=d#4 v=46
97024 Off ch=1 n=c#5 v=0
97024 On ch=1 n=b4 v=41
97024 Off ch=1 n=d#4 v=0
97024 On ch=1 n=a#3 v=40
97280 Off ch=1 n=b4 v=0
97280 On ch=1 n=e5 v=43
97280 Off ch=1 n=f5 v=0
97280 On ch=1 n=g5 v=63
97280 Off ch=1 n=a#3 v=0
97280 On ch=1 n=b3 v=38
97536 Off ch=1 n=e5 v=0
97536 On ch=1 n=d#5 v=39
97536 Off ch=1 n=b3 v=0
97536 On ch=1 n=b2 v=58
97792 Par ch=1 c=64 v=127
97792 Par ch=1 c=64 v=0
97792 Par ch=1 c=64 v=0
97792 Par ch=1 c=64 v=0
97792 Par ch=1 c=64 v=0
97792 Par ch=1 c=64 v=0
97792 Par ch=1 c=64 v=0
97792 Off ch=1 n=d#5 v=0
97792 Off ch=1 n=g5 v=0
97792 On ch=1 n=g#5 v=66
97792 On ch=1 n=b4 v=34
97792 On ch=1 n=d#4 v=55
97901 Par ch=1 c=64 v=0
98048 Off ch=1 n=b4 v=0
98048 On ch=1 n=a#4 v=37
98048 On ch=1 n=g#4 v=53
98162 Par ch=1 c=64 v=127
98304 Off ch=1 n=g#5 v=0
98304 Off ch=1 n=a#4 v=0
98304 On ch=1 n=c#5 v=38
98304 On ch=1 n=a#5 v=69
98304 Off ch=1 n=b2 v=0
98304 Off ch=1 n=d#4 v=0
98304 Off ch=1 n=g#4 v=0
98304 On ch=1 n=d#4 v=51
98560 Off ch=1 n=c#5 v=0
98560 On ch=1 n=b4 v=41
98560 Off ch=1 n=d#4 v=0
98560 On ch=1 n=g#3 v=48
98816 Off ch=1 n=b4 v=0
98816 On ch=1 n=e5 v=43
98816 Off ch=1 n=a#5 v=0
98816 On ch=1 n=b5 v=71
98816 Off ch=1 n=g#3 v=0
98816 On ch=1 n=b3 v=46
99072 Off ch=1 n=e5 v=0
99072 On ch=1 n=d#5 v=37
99072 Off ch=1 n=b3 v=0
99072 On ch=1 n=b2 v=56
99328 Off ch=1 n=d#5 v=0
99328 On ch=1 n=g#5 v=35
99328 Off ch=1 n=b5 v=0
99328 On ch=1 n=e6 v=74
99328 On ch=1 n=g#4 v=55
99339 Par ch=1 c=64 v=0
99579 Par ch=1 c=64 v=127
99584 Off ch=1 n=g#5 v=0
99584 On ch=1 n=g5 v=38
99584 On ch=1 n=d5 v=52
99840 Off ch=1 n=g5 v=0
99840 On ch=1 n=a#5 v=40
99840 Off ch=1 n=b2 v=0
99840 Off ch=1 n=g#4 v=0
99840 Off ch=1 n=d5 v=0
99840 On ch=1 n=g#4 v=49
100096 Off ch=1 n=a#5 v=0
100096 On ch=1 n=g#5 v=43
100096 Off ch=1 n=g#4 v=0
100096 On ch=1 n=d4 v=47
100352 Off ch=1 n=g#5 v=0
100352 Off ch=1 n=e6 v=0
100352 On ch=1 n=d#5 v=65
100352 On ch=1 n=d#6 v=77
100352 Off ch=1 n=d4 v=0
100352 On ch=1 n=d#4 v=44
100608 Off ch=1 n=d#4 v=0
100608 On ch=1 n=b3 v=55
100711 Par ch=1 c=64 v=0
100864 Par ch=1 c=64 v=127
100864 Par ch=1 c=64 v=0
100864 Par ch=1 c=64 v=0
100864 Par ch=1 c=64 v=0
100864 Off ch=1 n=d#5 v=0
100864 Off ch=1 n=d#6 v=0
100864 Off ch=1 n=b3 v=0
100864 On ch=1 n=d5 v=59
100864 On ch=1 n=d6 v=75
100864 On ch=1 n=g#5 v=44
100864 On ch=1 n=g#4 v=55
100973 Par ch=1 c=64 v=0
101120 Off ch=1 n=g#5 v=0
101120 On ch=1 n=g5 v=46
101120 On ch=1 n=e5 v=53
101234 Par ch=1 c=64 v=127
101376 Off ch=1 n=g5 v=0
101376 On ch=1 n=a#5 v=48
101376 Off ch=1 n=g#4 v=0
101376 Off ch=1 n=e5 v=0
101376 On ch=1 n=g#4 v=51
101632 Off ch=1 n=a#5 v=0
101632 On ch=1 n=g#5 v=51
101632 Off ch=1 n=g#4 v=0
101632 On ch=1 n=a#3 v=48
101888 Off ch=1 n=g#5 v=0
101888 On ch=1 n=b5 v=53
101888 Off ch=1 n=a#3 v=0
101888 On ch=1 n=a#3 v=46
102144 Off ch=1 n=b5 v=0
102144 On ch=1 n=a#5 v=55
102144 Off ch=1 n=a#3 v=0
102144 On ch=1 n=a#2 v=60
102400 Off ch=1 n=d5 v=0
102400 Off ch=1 n=d6 v=0
102400 Off ch=1 n=a#5 v=0
102400 On ch=1 n=a#5 v=64
102400 On ch=1 n=d6 v=64
102400 On ch=1 n=a#6 v=79
102400 On ch=1 n=g#4 v=55
102411 Par ch=1 c=64 v=0
102651 Par ch=1 c=64 v=127
102656 Off ch=1 n=g#4 v=0
102656 On ch=1 n=e5 v=53
102912 Off ch=1 n=a#2 v=0
102912 Off ch=1 n=e5 v=0
102912 On ch=1 n=g#4 v=51
103168 Off ch=1 n=g#4 v=0
103168 On ch=1 n=a#3 v=48
103424 Off ch=1 n=a#3 v=0
103424 On ch=1 n=a#3 v=46
103680 Off ch=1 n=a#3 v=0
103680 On ch=1 n=a#2 v=60
103783 Par ch=1 c=64 v=0
103936 Par ch=1 c=64 v=127
103936 Par ch=1 c=64 v=0
103936 Par ch=1 c=64 v=0
103936 Par ch=1 c=64 v=0
103936 On ch=1 n=e4 v=55
104045 Par ch=1 c=64 v=0
104192 On ch=1 n=d5 v=52
104306 Par ch=1 c=64 v=127
104448 Off ch=1 n=a#2 v=0
104448 Off ch=1 n=e4 v=0
104448 Off ch=1 n=d5 v=0
104448 On ch=1 n=e4 v=48
104704 Off ch=1 n=e4 v=0
104704 On ch=1 n=a#3 v=45
104960 Off ch=1 n=a#3 v=0
104960 On ch=1 n=a#3 v=42
105216 Off ch=1 n=a#3 v=0
105216 On ch=1 n=a#2 v=53
105472 Off ch=1 n=a#5 v=0
105472 Off ch=1 n=d6 v=0
105472 Off ch=1 n=a#6 v=0
105472 On ch=1 n=g#5 v=54
105472 On ch=1 n=d6 v=54
105472 On ch=1 n=g#6 v=69
105472 On ch=1 n=e4 v=47
105483 Par ch=1 c=64 v=0
105723 Par ch=1 c=64 v=127
105728 Off ch=1 n=e4 v=0
105728 On ch=1 n=d5 v=45
105984 Off ch=1 n=a#2 v=0
105984 Off ch=1 n=d5 v=0
105984 On ch=1 n=e4 v=42
106240 Off ch=1 n=e4 v=0
106240 On ch=1 n=a#3 v=38
106496 Off ch=1 n=a#3 v=0
106496 On ch=1 n=a#3 v=35
106752 Off ch=1 n=a#3 v=0
106752 On ch=1 n=a#2 v=45
106855 Par ch=1 c=64 v=0
107008 Par ch=1 c=64 v=127
107008 Par ch=1 c=64 v=0
107008 Par ch=1 c=64 v=0
107008 Par ch=1 c=64 v=0
107008 Off ch=1 n=g#5 v=0
107008 Off ch=1 n=d6 v=0
107008 Off ch=1 n=g#6 v=0
107008 On ch=1 n=g5 v=45
107008 On ch=1 n=d#6 v=45
107008 On ch=1 n=g6 v=59
107008 On ch=1 n=d#4 v=47
107117 Par ch=1 c=64 v=0
107264 Off ch=1 n=a#2 v=0
107264 Off ch=1 n=d#4 v=0
107264 On ch=1 n=d#5 v=44
107378 Par ch=1 c=64 v=127
107520 Off ch=1 n=d#5 v=0
107520 On ch=1 n=g4 v=42
107776 Off ch=1 n=g4 v=0
107776 On ch=1 n=a#3 v=38
108032 Off ch=1 n=g5 v=0
108032 Off ch=1 n=d#6 v=0
108032 Off ch=1 n=g6 v=0
108032 On ch=1 n=a#4 v=54
108032 Off ch=1 n=a#3 v=0
108032 On ch=1 n=d#4 v=36
108288 Off ch=1 n=d#4 v=0
108288 On ch=1 n=d#3 v=54
108544 On ch=1 n=g4 v=33
108544 On ch=1 n=a#3 v=51
108555 Par ch=1 c=64 v=0
108795 Par ch=1 c=64 v=127
108800 Off ch=1 n=g4 v=0
108800 On ch=1 n=f4 v=36
108800 Off ch=1 n=d#3 v=0
108800 Off ch=1 n=a#3 v=0
108800 On ch=1 n=d#4 v=47
109056 Off ch=1 n=a#4 v=0
109056 Off ch=1 n=f4 v=0
109056 On ch=1 n=g#4 v=38
109056 On ch=1 n=c5 v=62
109056 Off ch=1 n=d#4 v=0
109056 On ch=1 n=a#3 v=46
109312 Off ch=1 n=g#4 v=0
109312 On ch=1 n=g4 v=41
109312 Off ch=1 n=a#3 v=0
109312 On ch=1 n=d#3 v=40
109568 Off ch=1 n=g4 v=0
109568 On ch=1 n=b4 v=43
109568 Off ch=1 n=c5 v=0
109568 On ch=1 n=d5 v=63
109568 Off ch=1 n=d#3 v=0
109568 On ch=1 n=d#3 v=38
109824 Off ch=1 n=b4 v=0
109824 On ch=1 n=a#4 v=39
109824 Off ch=1 n=d#3 v=0
109824 On ch=1 n=d#2 v=58
109927 Par ch=1 c=64 v=0
110080 Par ch=1 c=64 v=127
110080 Par ch=1 c=64 v=0
110080 Par ch=1 c=64 v=0
110080 Par ch=1 c=64 v=0
110080 Off ch=1 n=a#4 v=0
110080 Off ch=1 n=d5 v=0
110080 On ch=1 n=d#5 v=66
110080 On ch=1 n=g4 v=34
110080 On ch=1 n=a#3 v=55
110189 Par ch=1 c=64 v=0
110336 Off ch=1 n=g4 v=0
110336 On ch=1 n=f4 v=37
110336 Off ch=1 n=d#2 v=0
110336 Off ch=1 n=a#3 v=0
110336 On ch=1 n=d#4 v=53
110450 Par ch=1 c=64 v=127
110592 Off ch=1 n=d#5 v=0
110592 Off ch=1 n=f4 v=0
110592 On ch=1 n=g#4 v=38
110592 On ch=1 n=f5 v=69
110592 Off ch=1 n=d#4 v=0
110592 On ch=1 n=a#3 v=51
110848 Off ch=1 n=g#4 v=0
110848 On ch=1 n=g4 v=41
110848 Off ch=1 n=a#3 v=0
110848 On ch=1 n=d#3 v=48
111104 Off ch=1 n=g4 v=0
111104 On ch=1 n=b4 v=43
111104 Off ch=1 n=f5 v=0
111104 On ch=1 n=g5 v=71
111104 Off ch=1 n=d#3 v=0
111104 On ch=1 n=a#3 v=46
111360 Off ch=1 n=b4 v=0
111360 On ch=1 n=a#4 v=37
111360 Off ch=1 n=a#3 v=0
111360 On ch=1 n=g4 v=56
111616 Off ch=1 n=a#4 v=0
111616 On ch=1 n=d#5 v=35
111616 Off ch=1 n=g5 v=0
111616 On ch=1 n=b5 v=74
111616 Off ch=1 n=g4 v=0
111616 On ch=1 n=g4 v=55
111627 Par ch=1 c=64 v=0
111867 Par ch=1 c=64 v=127
111872 Off ch=1 n=d#5 v=0
111872 On ch=1 n=c#5 v=38
111872 On ch=1 n=a#4 v=52
112128 Off ch=1 n=c#5 v=0
112128 On ch=1 n=e5 v=40
112128 Off ch=1 n=g4 v=0
112128 Off ch=1 n=a#4 v=0
112128 On ch=1 n=g4 v=49
112384 Off ch=1 n=e5 v=0
112384 On ch=1 n=d#5 v=43
112384 Off ch=1 n=g4 v=0
112384 On ch=1 n=a#3 v=47
112640 Off ch=1 n=d#5 v=0
112640 On ch=1 n=g#5 v=55
112640 Off ch=1 n=b5 v=0
112640 On ch=1 n=a#5 v=70
112640 Off ch=1 n=a#3 v=0
112640 On ch=1 n=d#4 v=44
112896 Off ch=1 n=g#5 v=0
112896 On ch=1 n=g5 v=55
112896 Off ch=1 n=d#4 v=0
112896 On ch=1 n=d#3 v=55
112999 Par ch=1 c=64 v=0
113152 Par ch=1 c=64 v=127
113152 Par ch=1 c=64 v=0
113152 Par ch=1 c=64 v=0
113152 Par ch=1 c=64 v=0
113152 Par ch=1 c=64 v=0
113152 Par ch=1 c=64 v=0
113152 Off ch=1 n=g5 v=0
113152 Off ch=1 n=a#5 v=0
113152 On ch=1 n=d5 v=59
113152 On ch=1 n=d6 v=75
113152 On ch=1 n=g#5 v=44
113152 On ch=1 n=g#4 v=55
113261 Par ch=1 c=64 v=0
113408 Off ch=1 n=g#5 v=0
113408 On ch=1 n=g5 v=46
113408 Off ch=1 n=g#4 v=0
113408 On ch=1 n=e5 v=53
113522 Par ch=1 c=64 v=127
113664 Off ch=1 n=g5 v=0
113664 On ch=1 n=a#5 v=48
113664 Off ch=1 n=d#3 v=0
113664 Off ch=1 n=e5 v=0
113664 On ch=1 n=g#4 v=51
113920 Off ch=1 n=a#5 v=0
113920 On ch=1 n=g#5 v=51
113920 Off ch=1 n=g#4 v=0
113920 On ch=1 n=a#3 v=48
114176 Off ch=1 n=g#5 v=0
114176 On ch=1 n=b5 v=53
114176 Off ch=1 n=a#3 v=0
114176 On ch=1 n=a#3 v=46
114432 Off ch=1 n=b5 v=0
114432 On ch=1 n=a#5 v=55
114432 Off ch=1 n=a#3 v=0
114432 On ch=1 n=a#2 v=60
114688 Off ch=1 n=d5 v=0
114688 Off ch=1 n=d6 v=0
114688 Off ch=1 n=a#5 v=0
114688 On ch=1 n=a#5 v=64
114688 On ch=1 n=d6 v=64
114688 On ch=1 n=a#6 v=79
114688 On ch=1 n=g#4 v=55
114699 Par ch=1 c=64 v=0
114939 Par ch=1 c=64 v=127
114944 On ch=1 n=e5 v=53
115200 Off ch=1 n=a#2 v=0
115200 Off ch=1 n=g#4 v=0
115200 Off ch=1 n=e5 v=0
115200 On ch=1 n=g#4 v=51
115456 Off ch=1 n=g#4 v=0
115456 On ch=1 n=a#3 v=48
115712 Off ch=1 n=a#3 v=0
115712 On ch=1 n=a#3 v=46
115968 Off ch=1 n=a#3 v=0
115968 On ch=1 n=a#2 v=60
116071 Par ch=1 c=64 v=0
116224 Par ch=1 c=64 v=127
116224 Par ch=1 c=64 v=0
116224 Par ch=1 c=64 v=0
116224 Par ch=1 c=64 v=0
116224 Par ch=1 c=64 v=0
116224 Par ch=1 c=64 v=0
116224 On ch=1 n=e4 v=55
116333 Par ch=1 c=64 v=0
116480 On ch=1 n=d5 v=52
116594 Par ch=1 c=64 v=127
116736 Off ch=1 n=a#2 v=0
116736 Off ch=1 n=e4 v=0
116736 Off ch=1 n=d5 v=0
116736 On ch=1 n=e4 v=48
116992 Off ch=1 n=e4 v=0
116992 On ch=1 n=a#3 v=45
117248 Off ch=1 n=a#3 v=0
117248 On ch=1 n=a#3 v=42
117504 Off ch=1 n=a#3 v=0
117504 On ch=1 n=a#2 v=53
117760 Off ch=1 n=a#5 v=0
117760 Off ch=1 n=d6 v=0
117760 Off ch=1 n=a#6 v=0
117760 On ch=1 n=g#5 v=54
117760 On ch=1 n=d6 v=54
117760 On ch=1 n=g#6 v=69
117760 On ch=1 n=e4 v=47
117771 Par ch=1 c=64 v=0
118011 Par ch=1 c=64 v=127
118016 On ch=1 n=d5 v=45
118272 Off ch=1 n=a#2 v=0
118272 Off ch=1 n=e4 v=0
118272 Off ch=1 n=d5 v=0
118272 On ch=1 n=e4 v=42
118528 Off ch=1 n=e4 v=0
118528 On ch=1 n=a#3 v=38
118784 Off ch=1 n=a#3 v=0
118784 On ch=1 n=a#3 v=35
119040 Off ch=1 n=a#3 v=0
119040 On ch=1 n=a#2 v=45
119143 Par ch=1 c=64 v=0
119296 Par ch=1 c=64 v=127
119296 Par ch=1 c=64 v=0
119296 Par ch=1 c=64 v=0
119296 Par ch=1 c=64 v=0
119296 Par ch=1 c=64 v=127
119296 Par ch=1 c=64 v=0
119296 Par ch=1 c=64 v=0
119296 Par ch=1 c=64 v=0
119296 Par ch=1 c=64 v=0
119296 Par ch=1 c=64 v=0
119296 Off ch=1 n=g#5 v=0
119296 Off ch=1 n=d6 v=0
119296 Off ch=1 n=g#6 v=0
119296 Off ch=1 n=a#2 v=0
119296 On ch=1 n=g5 v=45
119296 On ch=1 n=d#6 v=45
119296 On ch=1 n=g6 v=59
119296 On ch=1 n=d#4 v=47
119405 Par ch=1 c=64 v=0
119405 Par ch=1 c=64 v=0
119552 Off ch=1 n=d#4 v=0
119552 On ch=1 n=d#5 v=44
119666 Par ch=1 c=64 v=127
119666 Par ch=1 c=64 v=127
119808 Off ch=1 n=d#5 v=0
119808 On ch=1 n=g4 v=42
120064 Off ch=1 n=g4 v=0
120064 On ch=1 n=a#3 v=38
120320 Off ch=1 n=a#3 v=0
120320 On ch=1 n=d#4 v=36
120576 Off ch=1 n=d#4 v=0
120576 On ch=1 n=d#3 v=54
120832 Off ch=1 n=g5 v=0
120832 Off ch=1 n=d#6 v=0
120832 Off ch=1 n=g6 v=0
120832 Off ch=1 n=d#3 v=0
120832 On ch=1 n=g4 v=51
120843 Par ch=1 c=64 v=0
120843 Par ch=1 c=64 v=0
121083 Par ch=1 c=64 v=127
121083 Par ch=1 c=64 v=127
121088 Off ch=1 n=g4 v=0
121088 On ch=1 n=g5 v=47
121344 Off ch=1 n=g5 v=0
121344 On ch=1 n=a#4 v=46
121600 Off ch=1 n=a#4 v=0
121600 On ch=1 n=d#4 v=40
121856 Off ch=1 n=d#4 v=0
121856 On ch=1 n=g4 v=38
121890 Par ch=1 c=64 v=127
122112 Off ch=1 n=g4 v=0
122112 On ch=1 n=a#3 v=58
122368 Par ch=1 c=64 v=127
122368 Par ch=1 c=64 v=127
122368 Off ch=1 n=a#3 v=0
122368 On ch=1 n=a#4 v=61
122624 Off ch=1 n=a#4 v=0
122624 On ch=1 n=a#5 v=59
122880 Off ch=1 n=a#5 v=0
122880 On ch=1 n=d#5 v=57
123136 Off ch=1 n=d#5 v=0
123136 On ch=1 n=g4 v=54
123392 Off ch=1 n=g4 v=0
123392 On ch=1 n=a#4 v=52
123648 Off ch=1 n=a#4 v=0
123648 On ch=1 n=d#4 v=50
123904 On ch=1 n=d#5 v=55
123904 On ch=1 n=d#6 v=71
123904 Off ch=1 n=d#4 v=0
123904 On ch=1 n=g4 v=64
124160 Off ch=1 n=g4 v=0
124160 On ch=1 n=g5 v=66
124416 Off ch=1 n=g5 v=0
124416 On ch=1 n=a#4 v=62
124672 Off ch=1 n=a#4 v=0
124672 On ch=1 n=g4 v=58
124928 Off ch=1 n=g4 v=0
124928 On ch=1 n=a#3 v=54
125184 Off ch=1 n=a#3 v=0
125184 On ch=1 n=d#3 v=50
125440 Par ch=1 c=64 v=127
125440 Par ch=1 c=64 v=0
125440 Off ch=1 n=d#5 v=0
125440 Off ch=1 n=d#6 v=0
125440 Off ch=1 n=d#3 v=0
125440 On ch=1 n=d#5 v=55
125440 On ch=1 n=d#6 v=67
125440 On ch=1 n=e3 v=55
125554 Par ch=1 c=64 v=0
125696 On ch=1 n=c4 v=43
125736 Par ch=1 c=64 v=127
125952 Off ch=1 n=d#5 v=0
125952 Off ch=1 n=d#6 v=0
125952 On ch=1 n=g#5 v=62
125952 Off ch=1 n=e3 v=0
125952 Off ch=1 n=c4 v=0
125952 On ch=1 n=g#4 v=45
126208 Off ch=1 n=g#4 v=0
126208 On ch=1 n=e4 v=48
126464 Off ch=1 n=g#5 v=0
126464 Off ch=1 n=e4 v=0
126464 On ch=1 n=c5 v=50
126720 Off ch=1 n=c5 v=0
126720 On ch=1 n=g#5 v=53
126976 Off ch=1 n=g#5 v=0
126976 On ch=1 n=g#5 v=55
127232 Off ch=1 n=g#5 v=0
127232 On ch=1 n=c5 v=52
127488 On ch=1 n=d#5 v=55
127488 On ch=1 n=g#5 v=55
127488 On ch=1 n=d#6 v=69
127488 Off ch=1 n=c5 v=0
127488 On ch=1 n=e4 v=49
127744 Off ch=1 n=e4 v=0
127744 On ch=1 n=g#4 v=46
128000 Off ch=1 n=d#5 v=0
128000 Off ch=1 n=d#6 v=0
128000 On ch=1 n=c5 v=50
128000 On ch=1 n=c6 v=64
128000 Off ch=1 n=g#4 v=0
128000 On ch=1 n=c4 v=43
128256 Off ch=1 n=c4 v=0
128256 On ch=1 n=e3 v=40
128512 Par ch=1 c=64 v=127
128512 Par ch=1 c=64 v=0
128512 Par ch=1 c=64 v=0
128512 Off ch=1 n=c5 v=0
128512 Off ch=1 n=g#5 v=0
128512 Off ch=1 n=c6 v=0
128512 Off ch=1 n=e3 v=0
128512 On ch=1 n=d#5 v=55
128512 On ch=1 n=g#5 v=55
128512 On ch=1 n=d#6 v=69
128512 On ch=1 n=e3 v=57
128626 Par ch=1 c=64 v=0
128768 On ch=1 n=c#4 v=43
128808 Par ch=1 c=64 v=127
129024 Off ch=1 n=d#5 v=0
129024 Off ch=1 n=d#6 v=0
129024 On ch=1 n=c#5 v=50
129024 On ch=1 n=c#6 v=64
129024 Off ch=1 n=e3 v=0
129024 Off ch=1 n=c#4 v=0
129024 On ch=1 n=g#4 v=45
129280 Off ch=1 n=g#4 v=0
129280 On ch=1 n=e4 v=48
129536 Off ch=1 n=c#5 v=0
129536 Off ch=1 n=g#5 v=0
129536 Off ch=1 n=c#6 v=0
129536 On ch=1 n=e5 v=55
129536 On ch=1 n=c#6 v=55
129536 On ch=1 n=e6 v=69
129536 Off ch=1 n=e4 v=0
129536 On ch=1 n=c#5 v=50
129792 Off ch=1 n=c#5 v=0
129792 On ch=1 n=g#5 v=53
130048 Off ch=1 n=e5 v=0
130048 Off ch=1 n=c#6 v=0
130048 Off ch=1 n=e6 v=0
130048 On ch=1 n=b5 v=61
130048 On ch=1 n=c#6 v=61
130048 On ch=1 n=b6 v=75
130048 Off ch=1 n=g#5 v=0
130048 On ch=1 n=g#5 v=55
130304 Off ch=1 n=g#5 v=0
130304 On ch=1 n=c#5 v=52
130560 Off ch=1 n=b5 v=0
130560 Off ch=1 n=b6 v=0
130560 On ch=1 n=a#5 v=58
130560 On ch=1 n=a#6 v=72
130560 Off ch=1 n=c#5 v=0
130560 On ch=1 n=e4 v=49
130816 Off ch=1 n=e4 v=0
130816 On ch=1 n=g#4 v=46
131072 Off ch=1 n=a#5 v=0
131072 Off ch=1 n=c#6 v=0
131072 Off ch=1 n=a#6 v=0
131072 On ch=1 n=g#5 v=55
131072 On ch=1 n=b5 v=55
131072 On ch=1 n=g#6 v=69
131072 Off ch=1 n=g#4 v=0
131072 On ch=1 n=c#4 v=43
131328 Off ch=1 n=c#4 v=0
131328 On ch=1 n=e3 v=40
131584 Par ch=1 c=64 v=127
131584 Par ch=1 c=64 v=0
131584 Par ch=1 c=64 v=0
131584 Off ch=1 n=g#5 v=0
131584 Off ch=1 n=b5 v=0
131584 Off ch=1 n=g#6 v=0
131584 Off ch=1 n=e3 v=0
131584 On ch=1 n=g#5 v=56
131584 On ch=1 n=b5 v=56
131584 On ch=1 n=g#6 v=70
131584 On ch=1 n=f#3 v=49
131698 Par ch=1 c=64 v=0
131840 On ch=1 n=c#4 v=43
131880 Par ch=1 c=64 v=127
132096 Off ch=1 n=f#3 v=0
132096 Off ch=1 n=c#4 v=0
132096 On ch=1 n=e4 v=45
132352 Off ch=1 n=e4 v=0
132352 On ch=1 n=f#4 v=48
132608 Off ch=1 n=b5 v=0
132608 On ch=1 n=a#5 v=55
132608 Off ch=1 n=f#4 v=0
132608 On ch=1 n=c#5 v=50
132864 Off ch=1 n=c#5 v=0
132864 On ch=1 n=e5 v=53
133120 Off ch=1 n=g#5 v=0
133120 Off ch=1 n=a#5 v=0
133120 Off ch=1 n=g#6 v=0
133120 On ch=1 n=c5 v=43
133120 On ch=1 n=g#5 v=43
133120 On ch=1 n=c6 v=61
133120 Off ch=1 n=e5 v=0
133120 On ch=1 n=e5 v=55
133177 Par ch=1 c=64 v=0
133376 Off ch=1 n=e5 v=0
133376 On ch=1 n=a#4 v=52
133404 Par ch=1 c=64 v=127
133632 Off ch=1 n=c5 v=0
133632 Off ch=1 n=c6 v=0
133632 On ch=1 n=c#5 v=46
133632 On ch=1 n=c#6 v=60
133632 Off ch=1 n=a#4 v=0
133632 On ch=1 n=f#4 v=49
133888 Off ch=1 n=f#4 v=0
133888 On ch=1 n=e4 v=46
134144 Off ch=1 n=c#5 v=0
134144 Off ch=1 n=g#5 v=0
134144 Off ch=1 n=c#6 v=0
134144 On ch=1 n=d5 v=50
134144 On ch=1 n=f#5 v=50
134144 On ch=1 n=d6 v=64
134144 Off ch=1 n=e4 v=0
134144 On ch=1 n=a#3 v=43
134400 Off ch=1 n=a#3 v=0
134400 On ch=1 n=f#3 v=40
134656 Par ch=1 c=64 v=127
134656 Par ch=1 c=64 v=0
134656 Par ch=1 c=64 v=0
134656 Off ch=1 n=d5 v=0
134656 Off ch=1 n=f#5 v=0
134656 Off ch=1 n=d6 v=0
134656 Off ch=1 n=f#3 v=0
134656 On ch=1 n=e5 v=54
134656 On ch=1 n=f#5 v=54
134656 On ch=1 n=e6 v=69
134656 On ch=1 n=b2 v=49
134770 Par ch=1 c=64 v=0
134912 On ch=1 n=f#3 v=43
134952 Par ch=1 c=64 v=127
135168 Off ch=1 n=b2 v=0
135168 Off ch=1 n=f#3 v=0
135168 On ch=1 n=c#4 v=45
135424 Off ch=1 n=c#4 v=0
135424 On ch=1 n=b3 v=48
135680 Off ch=1 n=e5 v=0
135680 Off ch=1 n=e6 v=0
135680 On ch=1 n=d#5 v=48
135680 On ch=1 n=d#6 v=62
135680 Off ch=1 n=b3 v=0
135680 On ch=1 n=f#4 v=50
135936 Off ch=1 n=f#4 v=0
135936 On ch=1 n=d#5 v=53
136192 Off ch=1 n=d#5 v=0
136192 Off ch=1 n=f#5 v=0
136192 Off ch=1 n=d#6 v=0
136192 On ch=1 n=f#5 v=55
136192 Off ch=1 n=d#5 v=0
136192 On ch=1 n=d#5 v=55
136249 Par ch=1 c=64 v=0
136448 Off ch=1 n=d#5 v=0
136448 On ch=1 n=f#4 v=52
136545 Par ch=1 c=64 v=127
136704 On ch=1 n=c#5 v=46
136704 On ch=1 n=c#6 v=60
136704 Off ch=1 n=f#4 v=0
136704 On ch=1 n=b3 v=49
136960 Off ch=1 n=b3 v=0
136960 On ch=1 n=d#4 v=46
137216 Off ch=1 n=c#5 v=0
137216 Off ch=1 n=c#6 v=0
137216 Off ch=1 n=d#4 v=0
137216 On ch=1 n=f#3 v=43
137472 On ch=1 n=b4 v=48
137472 On ch=1 n=b5 v=62
137472 Off ch=1 n=f#3 v=0
137472 On ch=1 n=b2 v=40
137728 Par ch=1 c=64 v=127
137728 Par ch=1 c=64 v=0
137728 Par ch=1 c=64 v=0
137728 Par ch=1 c=64 v=0
137728 Off ch=1 n=b4 v=0
137728 Off ch=1 n=f#5 v=0
137728 Off ch=1 n=b5 v=0
137728 Off ch=1 n=b2 v=0
137728 On ch=1 n=b4 v=55
137728 On ch=1 n=e5 v=55
137728 On ch=1 n=b5 v=66
137728 On ch=1 n=c#3 v=55
137842 Par ch=1 c=64 v=0
137984 Off ch=1 n=c#3 v=0
137984 On ch=1 n=g#3 v=43
138024 Par ch=1 c=64 v=127
138240 Off ch=1 n=b4 v=0
138240 Off ch=1 n=e5 v=0
138240 Off ch=1 n=b5 v=0
138240 On ch=1 n=e5 v=63
138240 Off ch=1 n=g#3 v=0
138240 On ch=1 n=e4 v=45
138496 Off ch=1 n=e4 v=0
138496 On ch=1 n=c#4 v=48
138752 Off ch=1 n=e5 v=0
138752 Off ch=1 n=c#4 v=0
138752 On ch=1 n=g#4 v=50
139008 Off ch=1 n=g#4 v=0
139008 On ch=1 n=e5 v=53
139264 Off ch=1 n=e5 v=0
139264 On ch=1 n=e5 v=55
139520 Off ch=1 n=e5 v=0
139520 On ch=1 n=g#4 v=52
139776 On ch=1 n=b4 v=55
139776 On ch=1 n=e5 v=55
139776 On ch=1 n=b5 v=69
139776 Off ch=1 n=g#4 v=0
139776 On ch=1 n=c#4 v=49
140032 Off ch=1 n=c#4 v=0
140032 On ch=1 n=e4 v=46
140288 Off ch=1 n=b4 v=0
140288 Off ch=1 n=b5 v=0
140288 On ch=1 n=g#4 v=50
140288 On ch=1 n=g#5 v=64
140288 Off ch=1 n=e4 v=0
140288 On ch=1 n=g#3 v=43
140544 Off ch=1 n=g#3 v=0
140544 On ch=1 n=c#3 v=40
140800 Par ch=1 c=64 v=127
140800 Par ch=1 c=64 v=0
140800 Par ch=1 c=64 v=0
140800 Par ch=1 c=64 v=0
140800 Par ch=1 c=64 v=0
140800 Off ch=1 n=g#4 v=0
140800 Off ch=1 n=e5 v=0
140800 Off ch=1 n=g#5 v=0
140800 Off ch=1 n=c#3 v=0
140800 On ch=1 n=b4 v=55
140800 On ch=1 n=e5 v=55
140800 On ch=1 n=b5 v=69
140800 On ch=1 n=c#3 v=57
140914 Par ch=1 c=64 v=0
141056 Off ch=1 n=c#3 v=0
141056 On ch=1 n=a3 v=43
141096 Par ch=1 c=64 v=127
141312 Off ch=1 n=b4 v=0
141312 Off ch=1 n=b5 v=0
141312 On ch=1 n=a4 v=50
141312 On ch=1 n=a5 v=64
141312 Off ch=1 n=a3 v=0
141312 On ch=1 n=e4 v=45
141568 Off ch=1 n=e4 v=0
141568 On ch=1 n=c#4 v=48
141824 Off ch=1 n=a4 v=0
141824 Off ch=1 n=e5 v=0
141824 Off ch=1 n=a5 v=0
141824 On ch=1 n=c#5 v=55
141824 On ch=1 n=a5 v=55
141824 On ch=1 n=c#6 v=69
141824 Off ch=1 n=c#4 v=0
141824 On ch=1 n=a4 v=50
142080 Off ch=1 n=a4 v=0
142080 On ch=1 n=e5 v=41
142336 Off ch=1 n=c#5 v=0
142336 Off ch=1 n=a5 v=0
142336 Off ch=1 n=c#6 v=0
142336 On ch=1 n=g#5 v=51
142336 On ch=1 n=a5 v=52
142336 On ch=1 n=g#6 v=66
142336 Off ch=1 n=e5 v=0
142336 On ch=1 n=e5 v=43
142592 Off ch=1 n=e5 v=0
142592 On ch=1 n=a4 v=40
142848 Off ch=1 n=g#5 v=0
142848 Off ch=1 n=g#6 v=0
142848 On ch=1 n=f#5 v=48
142848 On ch=1 n=f#6 v=62
142848 Off ch=1 n=a4 v=0
142848 On ch=1 n=c#4 v=37
143104 Off ch=1 n=c#4 v=0
143104 On ch=1 n=e4 v=34
143360 Off ch=1 n=f#5 v=0
143360 Off ch=1 n=a5 v=0
143360 Off ch=1 n=f#6 v=0
143360 On ch=1 n=e5 v=45
143360 On ch=1 n=g#5 v=45
143360 On ch=1 n=e6 v=59
143360 Off ch=1 n=e4 v=0
143360 On ch=1 n=a3 v=31
143616 Off ch=1 n=a3 v=0
143616 On ch=1 n=c#3 v=28
143872 Par ch=1 c=64 v=127
143872 Par ch=1 c=64 v=0
143872 Par ch=1 c=64 v=0
143872 Par ch=1 c=64 v=0
143872 Par ch=1 c=64 v=0
143872 Off ch=1 n=e5 v=0
143872 Off ch=1 n=g#5 v=0
143872 Off ch=1 n=e6 v=0
143872 Off ch=1 n=c#3 v=0
143872 On ch=1 n=e5 v=47
143872 On ch=1 n=g#5 v=47
143872 On ch=1 n=e6 v=61
143872 On ch=1 n=d#3 v=37
143986 Par ch=1 c=64 v=0
144128 Off ch=1 n=d#3 v=0
144128 On ch=1 n=a#3 v=31
144168 Par ch=1 c=64 v=127
144384 Off ch=1 n=a#3 v=0
144384 On ch=1 n=c#4 v=33
144640 Off ch=1 n=c#4 v=0
144640 On ch=1 n=d#4 v=36
144896 Off ch=1 n=g#5 v=0
144896 On ch=1 n=g5 v=46
144896 Off ch=1 n=d#4 v=0
144896 On ch=1 n=a#4 v=38
145152 Off ch=1 n=a#4 v=0
145152 On ch=1 n=c#5 v=41
145408 Off ch=1 n=e5 v=0
145408 Off ch=1 n=g5 v=0
145408 Off ch=1 n=e6 v=0
145408 On ch=1 n=a4 v=38
145408 On ch=1 n=g5 v=38
145408 On ch=1 n=a5 v=54
145408 Off ch=1 n=c#5 v=0
145408 On ch=1 n=c#5 v=43
145419 Par ch=1 c=64 v=0
145647 Par ch=1 c=64 v=127
145664 Off ch=1 n=c#5 v=0
145664 On ch=1 n=g4 v=40
145920 Off ch=1 n=g4 v=0
145920 On ch=1 n=d#4 v=37
146176 Off ch=1 n=d#4 v=0
146176 On ch=1 n=c#4 v=34
146432 Off ch=1 n=a4 v=0
146432 Off ch=1 n=a5 v=0
146432 On ch=1 n=a#4 v=40
146432 On ch=1 n=a#5 v=54
146432 Off ch=1 n=c#4 v=0
146432 On ch=1 n=g3 v=31
146688 Off ch=1 n=g3 v=0
146688 On ch=1 n=d#3 v=28
146944 Par ch=1 c=64 v=127
146944 Par ch=1 c=64 v=0
146944 Par ch=1 c=64 v=0
146944 Par ch=1 c=64 v=0
146944 Par ch=1 c=64 v=0
146944 Off ch=1 n=a#4 v=0
146944 Off ch=1 n=g5 v=0
146944 Off ch=1 n=a#5 v=0
146944 Off ch=1 n=d#3 v=0
146944 On ch=1 n=c#5 v=45
146944 On ch=1 n=g5 v=45
146944 On ch=1 n=c#6 v=60
146944 On ch=1 n=g#2 v=34
147058 Par ch=1 c=64 v=0
147200 Off ch=1 n=g#2 v=0
147200 On ch=1 n=e3 v=28
147240 Par ch=1 c=64 v=127
147456 Off ch=1 n=e3 v=0
147456 On ch=1 n=a#3 v=30
147712 Off ch=1 n=a#3 v=0
147712 On ch=1 n=g#3 v=33
147968 Off ch=1 n=g#3 v=0
147968 On ch=1 n=e4 v=35
148224 Off ch=1 n=e4 v=0
148224 On ch=1 n=a#4 v=38
148480 Off ch=1 n=c#5 v=0
148480 Off ch=1 n=g5 v=0
148480 Off ch=1 n=c#6 v=0
148480 On ch=1 n=b4 v=38
148480 On ch=1 n=g#5 v=38
148480 On ch=1 n=b5 v=50
148480 Off ch=1 n=a#4 v=0
148491 Par ch=1 c=64 v=0
148736 On ch=1 n=d#4 v=37
148833 Par ch=1 c=64 v=127
148992 Off ch=1 n=d#4 v=0
148992 On ch=1 n=g#3 v=34
149248 Off ch=1 n=g#3 v=0
149248 On ch=1 n=d#3 v=31
149504 Off ch=1 n=b4 v=0
149504 Off ch=1 n=b5 v=0
149504 On ch=1 n=d#5 v=55
149504 On ch=1 n=d#6 v=71
149504 Off ch=1 n=d#3 v=0
149504 On ch=1 n=b3 v=28
149760 Off ch=1 n=b3 v=0
149760 On ch=1 n=g#4 v=25
150016 Par ch=1 c=64 v=127
150016 Par ch=1 c=64 v=0
150016 Par ch=1 c=64 v=0
150016 Par ch=1 c=64 v=0
150016 Off ch=1 n=d#5 v=0
150016 Off ch=1 n=g#5 v=0
150016 Off ch=1 n=d#6 v=0
150016 Off ch=1 n=g#4 v=0
150016 On ch=1 n=d#5 v=55
150016 On ch=1 n=d#6 v=67
150016 On ch=1 n=e3 v=55
150130 Par ch=1 c=64 v=0
150272 Off ch=1 n=e3 v=0
150272 On ch=1 n=c4 v=43
150312 Par ch=1 c=64 v=127
150528 Off ch=1 n=d#5 v=0
150528 Off ch=1 n=d#6 v=0
150528 On ch=1 n=g#5 v=62
150528 Off ch=1 n=c4 v=0
150528 On ch=1 n=g#4 v=45
150784 Off ch=1 n=g#4 v=0
150784 On ch=1 n=e4 v=48
151040 Off ch=1 n=g#5 v=0
151040 Off ch=1 n=e4 v=0
151040 On ch=1 n=c5 v=50
151296 Off ch=1 n=c5 v=0
151296 On ch=1 n=g#5 v=53
151495 Par ch=1 c=64 v=0
151552 Off ch=1 n=g#5 v=0
151552 On ch=1 n=g#5 v=55
151808 Off ch=1 n=g#5 v=0
151808 On ch=1 n=c5 v=52
152064 On ch=1 n=d#5 v=55
152064 On ch=1 n=g#5 v=55
152064 On ch=1 n=d#6 v=69
152064 Off ch=1 n=c5 v=0
152064 On ch=1 n=e4 v=49
152320 Off ch=1 n=e4 v=0
152320 On ch=1 n=g#4 v=46
152576 On ch=1 n=c5 v=50
152576 On ch=1 n=c6 v=64
152576 Off ch=1 n=g#4 v=0
152576 On ch=1 n=c4 v=43
152616 Off ch=1 n=d#5 v=0
152616 Off ch=1 n=d#6 v=0
152832 Off ch=1 n=c4 v=0
152832 On ch=1 n=e3 v=40
153088 Par ch=1 c=64 v=127
153088 Par ch=1 c=64 v=0
153088 Par ch=1 c=64 v=0
153088 Par ch=1 c=64 v=0
153088 Par ch=1 c=64 v=0
153088 Off ch=1 n=e3 v=0
153088 On ch=1 n=d#5 v=55
153088 On ch=1 n=g#5 v=55
153088 On ch=1 n=d#6 v=69
153088 On ch=1 n=e3 v=57
153128 Off ch=1 n=c5 v=0
153128 Off ch=1 n=g#5 v=0
153128 Off ch=1 n=c6 v=0
153202 Par ch=1 c=64 v=0
153344 Off ch=1 n=e3 v=0
153344 On ch=1 n=c#4 v=43
153384 Par ch=1 c=64 v=127
153600 Off ch=1 n=d#5 v=0
153600 Off ch=1 n=d#6 v=0
153600 On ch=1 n=c#5 v=50
153600 On ch=1 n=c#6 v=64
153600 Off ch=1 n=c#4 v=0
153600 On ch=1 n=g#4 v=45
153856 Off ch=1 n=g#4 v=0
153856 On ch=1 n=e4 v=48
154112 Off ch=1 n=c#5 v=0
154112 Off ch=1 n=g#5 v=0
154112 Off ch=1 n=c#6 v=0
154112 On ch=1 n=e5 v=55
154112 On ch=1 n=c#6 v=55
154112 On ch=1 n=e6 v=69
154112 Off ch=1 n=e4 v=0
154112 On ch=1 n=c#5 v=50
154368 Off ch=1 n=c#5 v=0
154368 On ch=1 n=g#5 v=53
154624 Off ch=1 n=e5 v=0
154624 Off ch=1 n=c#6 v=0
154624 Off ch=1 n=e6 v=0
154624 On ch=1 n=b5 v=61
154624 On ch=1 n=c#6 v=61
154624 On ch=1 n=b6 v=75
154624 Off ch=1 n=g#5 v=0
154624 On ch=1 n=g#5 v=55
154880 Off ch=1 n=g#5 v=0
154880 On ch=1 n=c#5 v=52
155136 Off ch=1 n=b5 v=0
155136 Off ch=1 n=b6 v=0
155136 On ch=1 n=a#5 v=58
155136 On ch=1 n=a#6 v=72
155136 Off ch=1 n=c#5 v=0
155136 On ch=1 n=e4 v=49
155392 Off ch=1 n=e4 v=0
155392 On ch=1 n=g#4 v=46
155648 Off ch=1 n=a#5 v=0
155648 Off ch=1 n=c#6 v=0
155648 Off ch=1 n=a#6 v=0
155648 On ch=1 n=g#5 v=55
155648 On ch=1 n=b5 v=55
155648 On ch=1 n=g#6 v=69
155648 Off ch=1 n=g#4 v=0
155648 On ch=1 n=c#4 v=43
155904 Off ch=1 n=c#4 v=0
155904 On ch=1 n=e3 v=40
156160 Par ch=1 c=64 v=127
156160 Par ch=1 c=64 v=0
156160 Par ch=1 c=64 v=0
156160 Par ch=1 c=64 v=0
156160 Par ch=1 c=64 v=0
156160 Off ch=1 n=g#5 v=0
156160 Off ch=1 n=b5 v=0
156160 Off ch=1 n=g#6 v=0
156160 Off ch=1 n=e3 v=0
156160 On ch=1 n=g#5 v=56
156160 On ch=1 n=b5 v=56
156160 On ch=1 n=g#6 v=70
156160 On ch=1 n=f#3 v=49
156274 Par ch=1 c=64 v=0
156416 Off ch=1 n=f#3 v=0
156416 On ch=1 n=c#4 v=43
156456 Par ch=1 c=64 v=127
156672 Off ch=1 n=c#4 v=0
156672 On ch=1 n=e4 v=45
156928 Off ch=1 n=e4 v=0
156928 On ch=1 n=f#4 v=48
157184 Off ch=1 n=b5 v=0
157184 On ch=1 n=a#5 v=55
157184 Off ch=1 n=f#4 v=0
157184 On ch=1 n=c#5 v=50
157440 Off ch=1 n=c#5 v=0
157440 On ch=1 n=e5 v=53
157696 Off ch=1 n=g#5 v=0
157696 Off ch=1 n=a#5 v=0
157696 Off ch=1 n=g#6 v=0
157696 On ch=1 n=c5 v=43
157696 On ch=1 n=g#5 v=43
157696 On ch=1 n=c6 v=61
157696 Off ch=1 n=e5 v=0
157696 On ch=1 n=e5 v=55
157753 Par ch=1 c=64 v=0
157952 Off ch=1 n=e5 v=0
157952 On ch=1 n=a#4 v=52
157980 Par ch=1 c=64 v=127
158208 Off ch=1 n=c5 v=0
158208 Off ch=1 n=c6 v=0
158208 On ch=1 n=c#5 v=46
158208 On ch=1 n=c#6 v=60
158208 Off ch=1 n=a#4 v=0
158208 On ch=1 n=f#4 v=49
158464 Off ch=1 n=f#4 v=0
158464 On ch=1 n=e4 v=46
158720 Off ch=1 n=c#5 v=0
158720 Off ch=1 n=g#5 v=0
158720 Off ch=1 n=c#6 v=0
158720 On ch=1 n=d5 v=50
158720 On ch=1 n=f#5 v=50
158720 On ch=1 n=d6 v=64
158720 Off ch=1 n=e4 v=0
158720 On ch=1 n=a#3 v=43
158976 Off ch=1 n=a#3 v=0
158976 On ch=1 n=f#3 v=40
159232 Par ch=1 c=64 v=127
159232 Par ch=1 c=64 v=0
159232 Par ch=1 c=64 v=0
159232 Par ch=1 c=64 v=0
159232 Par ch=1 c=64 v=0
159232 Off ch=1 n=d5 v=0
159232 Off ch=1 n=f#5 v=0
159232 Off ch=1 n=d6 v=0
159232 Off ch=1 n=f#3 v=0
159232 On ch=1 n=e5 v=54
159232 On ch=1 n=f#5 v=54
159232 On ch=1 n=e6 v=69
159232 On ch=1 n=b2 v=49
159346 Par ch=1 c=64 v=0
159488 Off ch=1 n=b2 v=0
159488 On ch=1 n=f#3 v=43
159528 Par ch=1 c=64 v=127
159744 Off ch=1 n=f#3 v=0
159744 On ch=1 n=c#4 v=45
160000 Off ch=1 n=c#4 v=0
160000 On ch=1 n=b3 v=48
160256 Off ch=1 n=e5 v=0
160256 Off ch=1 n=e6 v=0
160256 On ch=1 n=d#5 v=48
160256 On ch=1 n=d#6 v=62
160256 Off ch=1 n=b3 v=0
160256 On ch=1 n=f#4 v=50
160512 Off ch=1 n=f#4 v=0
160512 On ch=1 n=d#5 v=53
160768 Off ch=1 n=d#5 v=0
160768 Off ch=1 n=f#5 v=0
160768 Off ch=1 n=d#6 v=0
160768 On ch=1 n=f#5 v=55
160768 Off ch=1 n=d#5 v=0
160768 On ch=1 n=d#5 v=55
160825 Par ch=1 c=64 v=0
161024 Off ch=1 n=d#5 v=0
161024 On ch=1 n=f#4 v=52
161121 Par ch=1 c=64 v=127
161280 On ch=1 n=c#5 v=46
161280 On ch=1 n=c#6 v=60
161280 Off ch=1 n=f#4 v=0
161280 On ch=1 n=b3 v=49
161536 Off ch=1 n=b3 v=0
161536 On ch=1 n=d#4 v=46
161792 Off ch=1 n=c#5 v=0
161792 Off ch=1 n=c#6 v=0
161792 On ch=1 n=b4 v=55
161792 On ch=1 n=b5 v=55
161792 Off ch=1 n=d#4 v=0
161792 On ch=1 n=f#3 v=43
162048 Off ch=1 n=f#3 v=0
162048 On ch=1 n=b2 v=40
162304 Par ch=1 c=64 v=127
162304 Par ch=1 c=64 v=0
162304 Off ch=1 n=b4 v=0
162304 Off ch=1 n=f#5 v=0
162304 Off ch=1 n=b5 v=0
162304 Off ch=1 n=b2 v=0
162304 On ch=1 n=d5 v=41
162304 On ch=1 n=b5 v=53
162304 On ch=1 n=f#3 v=39
162418 Par ch=1 c=64 v=0
162560 Off ch=1 n=f#3 v=0
162560 On ch=1 n=d4 v=27
162577 Par ch=1 c=64 v=127
162816 Off ch=1 n=d5 v=0
162816 Off ch=1 n=b5 v=0
162816 On ch=1 n=d5 v=48
162816 Off ch=1 n=d4 v=0
162816 On ch=1 n=g#4 v=29
163072 Off ch=1 n=g#4 v=0
163072 On ch=1 n=f#4 v=32
163328 Off ch=1 n=d5 v=0
163328 Off ch=1 n=f#4 v=0
163328 On ch=1 n=d5 v=34
163584 Off ch=1 n=d5 v=0
163584 On ch=1 n=g#5 v=37
163829 Par ch=1 c=64 v=0
163840 Off ch=1 n=g#5 v=0
163840 On ch=1 n=g#5 v=39
164096 Off ch=1 n=g#5 v=0
164096 On ch=1 n=d5 v=36
164352 On ch=1 n=b5 v=54
164352 Off ch=1 n=d5 v=0
164352 On ch=1 n=f#4 v=33
164608 Off ch=1 n=f#4 v=0
164608 On ch=1 n=g#4 v=30
164671 Par ch=1 c=64 v=127
164864 On ch=1 n=f#5 v=49
164864 Off ch=1 n=g#4 v=0
164864 On ch=1 n=d4 v=27
164904 Off ch=1 n=b5 v=0
165120 Off ch=1 n=d4 v=0
165120 On ch=1 n=f#3 v=24
165376 Par ch=1 c=64 v=127
165376 Par ch=1 c=64 v=0
165376 Par ch=1 c=64 v=0
165376 Off ch=1 n=f#3 v=0
165376 On ch=1 n=d5 v=38
165376 On ch=1 n=f#5 v=38
165376 On ch=1 n=b5 v=50
165376 On ch=1 n=f#3 v=48
165416 Off ch=1 n=f#5 v=0
165490 Par ch=1 c=64 v=0
165632 Off ch=1 n=f#3 v=0
165632 On ch=1 n=d4 v=34
165649 Par ch=1 c=64 v=127
165888 On ch=1 n=a5 v=53
165888 Off ch=1 n=d4 v=0
165888 On ch=1 n=a4 v=36
165928 Off ch=1 n=b5 v=0
166144 Off ch=1 n=a4 v=0
166144 On ch=1 n=f#4 v=39
166400 Off ch=1 n=d5 v=0
166400 Off ch=1 n=f#5 v=0
166400 On ch=1 n=c#6 v=55
166400 Off ch=1 n=f#4 v=0
166400 On ch=1 n=d5 v=41
166440 Off ch=1 n=a5 v=0
166656 Off ch=1 n=d5 v=0
166656 On ch=1 n=a5 v=44
166901 Par ch=1 c=64 v=0
166912 On ch=1 n=e6 v=61
166912 Off ch=1 n=a5 v=0
166912 On ch=1 n=a5 v=46
166952 Off ch=1 n=c#6 v=0
167060 Par ch=1 c=64 v=127
167168 Off ch=1 n=a5 v=0
167168 On ch=1 n=d5 v=43
167424 On ch=1 n=d6 v=58
167424 Off ch=1 n=d5 v=0
167424 On ch=1 n=f#4 v=40
167464 Off ch=1 n=e6 v=0
167680 Off ch=1 n=f#4 v=0
167680 On ch=1 n=a4 v=37
167743 Par ch=1 c=64 v=127
167936 On ch=1 n=c#6 v=55
167936 Off ch=1 n=a4 v=0
167936 On ch=1 n=d4 v=34
167976 Off ch=1 n=d6 v=0
168192 Off ch=1 n=d4 v=0
168192 On ch=1 n=f#3 v=31
168448 Par ch=1 c=64 v=127
168448 Par ch=1 c=64 v=0
168448 Par ch=1 c=64 v=0
168448 Off ch=1 n=c#6 v=0
168448 Off ch=1 n=f#3 v=0
168448 On ch=1 n=d#5 v=47
168448 On ch=1 n=f#5 v=47
168448 On ch=1 n=c#6 v=59
168448 On ch=1 n=g#3 v=46
168562 Par ch=1 c=64 v=0
168704 Off ch=1 n=g#3 v=0
168704 On ch=1 n=d#4 v=34
168721 Par ch=1 c=64 v=127
168960 On ch=1 n=c6 v=43
168960 Off ch=1 n=d#4 v=0
168960 On ch=1 n=g#4 v=36
169000 Off ch=1 n=c#6 v=0
169216 Off ch=1 n=g#4 v=0
169216 On ch=1 n=g#4 v=39
169472 Off ch=1 n=d#5 v=0
169472 Off ch=1 n=f#5 v=0
169472 Off ch=1 n=c6 v=0
169472 Off ch=1 n=g#4 v=0
169472 On ch=1 n=d#5 v=41
169728 Off ch=1 n=d#5 v=0
169728 On ch=1 n=g#5 v=44
169973 Par ch=1 c=64 v=0
169984 Off ch=1 n=g#5 v=0
169984 On ch=1 n=g#5 v=46
170240 Off ch=1 n=g#5 v=0
170240 On ch=1 n=d5 v=43
170496 On ch=1 n=b5 v=47
170496 Off ch=1 n=d5 v=0
170496 On ch=1 n=f#4 v=40
170752 Off ch=1 n=f#4 v=0
170752 On ch=1 n=g#4 v=37
170815 Par ch=1 c=64 v=127
171008 On ch=1 n=f#5 v=43
171008 Off ch=1 n=g#4 v=0
171008 On ch=1 n=d4 v=34
171048 Off ch=1 n=b5 v=0
171264 Off ch=1 n=d4 v=0
171264 On ch=1 n=f#3 v=31
171520 Par ch=1 c=64 v=127
171520 Par ch=1 c=64 v=0
171520 Par ch=1 c=64 v=127
171520 Par ch=1 c=64 v=0
171520 Par ch=1 c=64 v=0
171520 Off ch=1 n=f#5 v=0
171520 Off ch=1 n=f#3 v=0
171520 On ch=1 n=d5 v=38
171520 On ch=1 n=f#5 v=38
171520 On ch=1 n=b5 v=50
171520 On ch=1 n=f#3 v=48
171634 Par ch=1 c=64 v=0
171634 Par ch=1 c=64 v=0
171776 Off ch=1 n=f#3 v=0
171776 On ch=1 n=d4 v=34
171793 Par ch=1 c=64 v=127
171793 Par ch=1 c=64 v=127
172032 Off ch=1 n=b5 v=0
172032 On ch=1 n=a5 v=53
172032 Off ch=1 n=d4 v=0
172032 On ch=1 n=a4 v=36
172288 Off ch=1 n=a4 v=0
172288 On ch=1 n=f#4 v=39
172544 Off ch=1 n=d5 v=0
172544 Off ch=1 n=f#5 v=0
172544 Off ch=1 n=a5 v=0
172544 On ch=1 n=c#6 v=55
172544 Off ch=1 n=f#4 v=0
172544 On ch=1 n=d5 v=41
172800 Off ch=1 n=d5 v=0
172800 On ch=1 n=a5 v=44
173045 Par ch=1 c=64 v=0
173045 Par ch=1 c=64 v=0
173056 Off ch=1 n=c#6 v=0
173056 On ch=1 n=e6 v=57
173056 Off ch=1 n=a5 v=0
173056 On ch=1 n=a5 v=46
173204 Par ch=1 c=64 v=127
173312 Off ch=1 n=a5 v=0
173312 On ch=1 n=d5 v=43
173568 Off ch=1 n=e6 v=0
173568 On ch=1 n=d6 v=58
173568 Off ch=1 n=d5 v=0
173568 On ch=1 n=f#4 v=40
173824 Off ch=1 n=f#4 v=0
173824 On ch=1 n=a4 v=37
173887 Par ch=1 c=64 v=127
173887 Par ch=1 c=64 v=127
174080 Off ch=1 n=d6 v=0
174080 On ch=1 n=c#6 v=61
174080 Off ch=1 n=a4 v=0
174080 On ch=1 n=d4 v=34
174336 Off ch=1 n=d4 v=0
174336 On ch=1 n=f#3 v=31
174592 Par ch=1 c=64 v=127
174592 Par ch=1 c=64 v=0
174592 Par ch=1 c=64 v=0
174592 Par ch=1 c=64 v=0
174592 Off ch=1 n=c#6 v=0
174592 Off ch=1 n=f#3 v=0
174592 On ch=1 n=d#5 v=49
174592 On ch=1 n=f#5 v=49
174592 On ch=1 n=c#6 v=61
174592 On ch=1 n=g#3 v=46
174706 Par ch=1 c=64 v=0
174848 Off ch=1 n=g#3 v=0
174848 On ch=1 n=d#4 v=34
174865 Par ch=1 c=64 v=127
175104 On ch=1 n=c6 v=52
175104 Off ch=1 n=d#4 v=0
175104 On ch=1 n=g#4 v=36
175144 Off ch=1 n=c#6 v=0
175360 Off ch=1 n=g#4 v=0
175360 On ch=1 n=g#4 v=39
175616 Off ch=1 n=d#5 v=0
175616 Off ch=1 n=f#5 v=0
175616 Off ch=1 n=c6 v=0
175616 Off ch=1 n=g#4 v=0
175616 On ch=1 n=d#5 v=41
175872 Off ch=1 n=d#5 v=0
175872 On ch=1 n=g#5 v=44
176117 Par ch=1 c=64 v=0
176128 Off ch=1 n=g#5 v=0
176128 On ch=1 n=a5 v=46
176384 Off ch=1 n=a5 v=0
176384 On ch=1 n=d#5 v=43
176640 On ch=1 n=c#6 v=55
176640 Off ch=1 n=d#5 v=0
176640 On ch=1 n=g#4 v=40
176896 Off ch=1 n=g#4 v=0
176896 On ch=1 n=a4 v=37
176959 Par ch=1 c=64 v=127
177152 On ch=1 n=f#5 v=55
177152 Off ch=1 n=a4 v=0
177152 On ch=1 n=d#4 v=34
177192 Off ch=1 n=c#6 v=0
177408 Off ch=1 n=d#4 v=0
177408 On ch=1 n=g#3 v=31
177664 Par ch=1 c=64 v=127
177664 Par ch=1 c=64 v=0
177664 Par ch=1 c=64 v=0
177664 Par ch=1 c=64 v=0
177664 Par ch=1 c=64 v=0
177664 Off ch=1 n=f#5 v=0
177664 Off ch=1 n=g#3 v=0
177664 On ch=1 n=d#5 v=49
177664 On ch=1 n=f#5 v=49
177664 On ch=1 n=c#6 v=61
177664 On ch=1 n=g#3 v=46
177778 Par ch=1 c=64 v=0
177920 Off ch=1 n=g#3 v=0
177920 On ch=1 n=d#4 v=34
177937 Par ch=1 c=64 v=127
178176 On ch=1 n=c6 v=52
178176 Off ch=1 n=d#4 v=0
178176 On ch=1 n=g#4 v=36
178226 Off ch=1 n=c#6 v=0
178432 Off ch=1 n=g#4 v=0
178432 On ch=1 n=g#4 v=39
178688 Off ch=1 n=d#5 v=0
178688 Off ch=1 n=f#5 v=0
178688 Off ch=1 n=c6 v=0
178688 Off ch=1 n=g#4 v=0
178688 On ch=1 n=d#5 v=41
178944 Off ch=1 n=d#5 v=0
178944 On ch=1 n=g#5 v=44
179189 Par ch=1 c=64 v=0
179200 Off ch=1 n=g#5 v=0
179200 On ch=1 n=a5 v=46
179456 Off ch=1 n=a5 v=0
179456 On ch=1 n=d#5 v=43
179712 On ch=1 n=c#6 v=55
179712 Off ch=1 n=d#5 v=0
179712 On ch=1 n=g#4 v=40
179968 Off ch=1 n=g#4 v=0
179968 On ch=1 n=a4 v=37
180031 Par ch=1 c=64 v=127
180224 On ch=1 n=f#5 v=55
180224 Off ch=1 n=a4 v=0
180224 On ch=1 n=d#4 v=34
180264 Off ch=1 n=c#6 v=0
180480 Off ch=1 n=d#4 v=0
180480 On ch=1 n=g#3 v=31
180736 Par ch=1 c=64 v=127
180736 Par ch=1 c=64 v=0
180736 Off ch=1 n=f#5 v=0
180736 Off ch=1 n=g#3 v=0
180736 On ch=1 n=d#5 v=44
180736 On ch=1 n=f#5 v=44
180736 On ch=1 n=c#6 v=57
180736 On ch=1 n=g#4 v=44
180918 Par ch=1 c=64 v=0
180992 On ch=1 n=d#4 v=38
181146 Par ch=1 c=64 v=127
181248 Off ch=1 n=d#4 v=0
181248 On ch=1 n=g#3 v=39
181504 Off ch=1 n=g#3 v=0
181504 Off ch=1 n=g#4 v=0
181504 On ch=1 n=g#4 v=48
181760 Off ch=1 n=d#5 v=0
181760 Off ch=1 n=f#5 v=0
181760 Off ch=1 n=c#6 v=0
181760 On ch=1 n=d#5 v=47
181760 On ch=1 n=f#5 v=47
181760 On ch=1 n=c6 v=60
181760 On ch=1 n=d#4 v=41
182016 Off ch=1 n=d#4 v=0
182016 On ch=1 n=g#3 v=42
182261 Par ch=1 c=64 v=0
182272 Off ch=1 n=d#5 v=0
182272 Off ch=1 n=f#5 v=0
182272 Off ch=1 n=c6 v=0
182272 On ch=1 n=d#5 v=48
182272 On ch=1 n=f#5 v=48
182272 On ch=1 n=b5 v=62
182272 Off ch=1 n=g#3 v=0
182272 Off ch=1 n=g#4 v=0
182272 On ch=1 n=a4 v=52
182443 Par ch=1 c=64 v=127
182528 On ch=1 n=d#4 v=44
182784 Off ch=1 n=d#4 v=0
182784 On ch=1 n=g#3 v=45
183040 Off ch=1 n=g#3 v=0
183040 Off ch=1 n=a4 v=0
183040 On ch=1 n=a#4 v=56
183057 Par ch=1 c=64 v=0
183262 Par ch=1 c=64 v=127
183296 Off ch=1 n=d#5 v=0
183296 Off ch=1 n=f#5 v=0
183296 Off ch=1 n=b5 v=0
183296 On ch=1 n=d#5 v=51
183296 On ch=1 n=f#5 v=51
183296 On ch=1 n=a#5 v=66
183296 On ch=1 n=d#4 v=48
183552 Off ch=1 n=d#4 v=0
183552 On ch=1 n=g#3 v=49
183808 Par ch=1 c=64 v=127
183808 Par ch=1 c=64 v=0
183808 Par ch=1 c=64 v=0
183808 Off ch=1 n=d#5 v=0
183808 Off ch=1 n=f#5 v=0
183808 Off ch=1 n=a#5 v=0
183808 Off ch=1 n=g#3 v=0
183808 Off ch=1 n=a#4 v=0
183808 On ch=1 n=d#5 v=52
183808 On ch=1 n=f#5 v=52
183808 On ch=1 n=a5 v=67
183808 On ch=1 n=b4 v=60
183990 Par ch=1 c=64 v=0
184064 On ch=1 n=d#4 v=51
184218 Par ch=1 c=64 v=127
184320 Off ch=1 n=d#4 v=0
184320 On ch=1 n=g#3 v=52
184576 Off ch=1 n=g#3 v=0
184576 Off ch=1 n=b4 v=0
184576 On ch=1 n=c5 v=64
184832 Off ch=1 n=d#5 v=0
184832 Off ch=1 n=f#5 v=0
184832 Off ch=1 n=a5 v=0
184832 On ch=1 n=g#4 v=55
184832 On ch=1 n=d#5 v=55
184832 On ch=1 n=g#5 v=71
184832 On ch=1 n=f#4 v=54
185088 Off ch=1 n=f#4 v=0
185088 On ch=1 n=g#3 v=55
185333 Par ch=1 c=64 v=0
185344 Off ch=1 n=g#4 v=0
185344 Off ch=1 n=d#5 v=0
185344 Off ch=1 n=g#5 v=0
185344 On ch=1 n=g#4 v=54
185344 On ch=1 n=c#5 v=54
185344 On ch=1 n=g#5 v=66
185344 Off ch=1 n=g#3 v=0
185344 Off ch=1 n=c5 v=0
185344 On ch=1 n=a3 v=55
185344 On ch=1 n=e4 v=55
185344 On ch=1 n=a4 v=67
185515 Par ch=1 c=64 v=127
185600 Off ch=1 n=g#5 v=0
185600 On ch=1 n=e5 v=64
185856 Off ch=1 n=g#4 v=0
185856 Off ch=1 n=c#5 v=0
185856 Off ch=1 n=e5 v=0
185856 On ch=1 n=e5 v=63
185856 On ch=1 n=g#4 v=54
185856 On ch=1 n=c#5 v=54
185970 Par ch=1 c=64 v=127
186112 Off ch=1 n=e5 v=0
186112 On ch=1 n=g#5 v=64
186112 Off ch=1 n=a3 v=0
186112 Off ch=1 n=e4 v=0
186112 Off ch=1 n=a4 v=0
186112 On ch=1 n=c#2 v=47
186112 On ch=1 n=c#3 v=59
186368 Off ch=1 n=g#5 v=0
186368 On ch=1 n=g#5 v=66
186368 Off ch=1 n=g#4 v=0
186368 Off ch=1 n=c#5 v=0
186368 On ch=1 n=g#4 v=54
186368 On ch=1 n=c#5 v=54
186624 Off ch=1 n=g#5 v=0
186624 On ch=1 n=e5 v=58
186880 Par ch=1 c=64 v=127
186880 Par ch=1 c=64 v=0
186880 Off ch=1 n=e5 v=0
186880 Off ch=1 n=g#4 v=0
186880 Off ch=1 n=c#5 v=0
186880 On ch=1 n=g4 v=44
186880 On ch=1 n=c#5 v=44
186880 On ch=1 n=g5 v=68
186880 On ch=1 n=a3 v=55
186880 On ch=1 n=e4 v=55
186880 On ch=1 n=a4 v=67
187033 Par ch=1 c=64 v=0
187136 Off ch=1 n=g5 v=0
187136 On ch=1 n=e5 v=63
187294 Par ch=1 c=64 v=127
187392 Off ch=1 n=g4 v=0
187392 Off ch=1 n=c#5 v=0
187392 Off ch=1 n=e5 v=0
187392 On ch=1 n=e5 v=63
187392 On ch=1 n=g4 v=44
187392 On ch=1 n=c#5 v=44
187648 Off ch=1 n=e5 v=0
187648 On ch=1 n=g5 v=65
187648 Off ch=1 n=c#2 v=0
187648 Off ch=1 n=c#3 v=0
187648 Off ch=1 n=a3 v=0
187648 Off ch=1 n=e4 v=0
187648 Off ch=1 n=a4 v=0
187648 On ch=1 n=c#2 v=47
187648 On ch=1 n=c#3 v=59
187904 Off ch=1 n=g5 v=0
187904 On ch=1 n=g5 v=68
187904 Off ch=1 n=g4 v=0
187904 Off ch=1 n=c#5 v=0
187904 On ch=1 n=g4 v=44
187904 On ch=1 n=c#5 v=44
188160 Off ch=1 n=g5 v=0
188160 On ch=1 n=e5 v=63
188416 Off ch=1 n=e5 v=0
188416 On ch=1 n=e5 v=63
188416 Off ch=1 n=g4 v=0
188416 Off ch=1 n=c#5 v=0
188416 On ch=1 n=g4 v=44
188416 On ch=1 n=c#5 v=44
188416 On ch=1 n=a3 v=55
188416 On ch=1 n=e4 v=55
188416 On ch=1 n=a4 v=67
188427 Par ch=1 c=64 v=0
188645 Par ch=1 c=64 v=127
188672 Off ch=1 n=e5 v=0
188672 On ch=1 n=g5 v=65
188928 Off ch=1 n=g5 v=0
188928 On ch=1 n=g5 v=68
188928 Off ch=1 n=g4 v=0
188928 Off ch=1 n=c#5 v=0
188928 On ch=1 n=g4 v=44
188928 On ch=1 n=c#5 v=44
189184 Off ch=1 n=g5 v=0
189184 On ch=1 n=e5 v=63
189184 Off ch=1 n=c#2 v=0
189184 Off ch=1 n=c#3 v=0
189184 Off ch=1 n=a3 v=0
189184 Off ch=1 n=e4 v=0
189184 Off ch=1 n=a4 v=0
189184 On ch=1 n=c#2 v=47
189184 On ch=1 n=c#3 v=59
189440 Off ch=1 n=e5 v=0
189440 On ch=1 n=e6 v=74
189440 Off ch=1 n=g4 v=0
189440 Off ch=1 n=c#5 v=0
189440 On ch=1 n=c#5 v=44
189696 Off ch=1 n=e6 v=0
189696 On ch=1 n=e5 v=63
189952 Par ch=1 c=64 v=127
189952 Par ch=1 c=64 v=0
189952 Par ch=1 c=64 v=0
189952 Par ch=1 c=64 v=0
189952 Off ch=1 n=e5 v=0
189952 Off ch=1 n=c#5 v=0
189952 On ch=1 n=f#4 v=44
189952 On ch=1 n=c#5 v=44
189952 On ch=1 n=f#5 v=68
189952 On ch=1 n=a#3 v=55
189952 On ch=1 n=e4 v=55
189952 On ch=1 n=a#4 v=67
190105 Par ch=1 c=64 v=0
190208 Off ch=1 n=f#5 v=0
190208 On ch=1 n=e5 v=63
190366 Par ch=1 c=64 v=127
190464 Off ch=1 n=f#4 v=0
190464 Off ch=1 n=c#5 v=0
190464 Off ch=1 n=e5 v=0
190464 On ch=1 n=e5 v=63
190464 On ch=1 n=f#4 v=44
190464 On ch=1 n=c#5 v=44
190720 Off ch=1 n=e5 v=0
190720 On ch=1 n=f#5 v=65
190720 Off ch=1 n=c#2 v=0
190720 Off ch=1 n=c#3 v=0
190720 Off ch=1 n=a#3 v=0
190720 Off ch=1 n=e4 v=0
190720 Off ch=1 n=a#4 v=0
190720 On ch=1 n=c#2 v=47
190720 On ch=1 n=c#3 v=59
190976 Off ch=1 n=f#5 v=0
190976 On ch=1 n=f#5 v=68
190976 Off ch=1 n=f#4 v=0
190976 Off ch=1 n=c#5 v=0
190976 On ch=1 n=f#4 v=44
190976 On ch=1 n=c#5 v=44
191232 Off ch=1 n=f#5 v=0
191232 On ch=1 n=e5 v=63
191488 Off ch=1 n=e5 v=0
191488 On ch=1 n=g#5 v=63
191488 Off ch=1 n=f#4 v=0
191488 Off ch=1 n=c#5 v=0
191488 On ch=1 n=g#4 v=44
191488 On ch=1 n=c#5 v=44
191488 On ch=1 n=a3 v=55
191488 On ch=1 n=e4 v=55
191488 On ch=1 n=a4 v=67
191499 Par ch=1 c=64 v=0
191717 Par ch=1 c=64 v=127
191744 Off ch=1 n=g#5 v=0
191744 On ch=1 n=e5 v=65
192000 Off ch=1 n=e5 v=0
192000 On ch=1 n=e5 v=68
192000 Off ch=1 n=g#4 v=0
192000 Off ch=1 n=c#5 v=0
192000 On ch=1 n=g#4 v=44
192000 On ch=1 n=c#5 v=44
192256 Off ch=1 n=e5 v=0
192256 On ch=1 n=g#5 v=63
192256 Off ch=1 n=c#2 v=0
192256 Off ch=1 n=c#3 v=0
192256 Off ch=1 n=a3 v=0
192256 Off ch=1 n=e4 v=0
192256 Off ch=1 n=a4 v=0
192256 On ch=1 n=c#2 v=47
192256 On ch=1 n=c#3 v=59
192512 Off ch=1 n=g#5 v=0
192512 On ch=1 n=g#5 v=67
192512 Off ch=1 n=g#4 v=0
192512 Off ch=1 n=c#5 v=0
192512 On ch=1 n=g#4 v=37
192512 On ch=1 n=c#5 v=37
192768 Off ch=1 n=g#5 v=0
192768 On ch=1 n=e5 v=56
193024 Par ch=1 c=64 v=127
193024 Par ch=1 c=64 v=0
193024 Par ch=1 c=64 v=0
193024 Par ch=1 c=64 v=0
193024 Off ch=1 n=e5 v=0
193024 Off ch=1 n=g#4 v=0
193024 Off ch=1 n=c#5 v=0
193024 On ch=1 n=g4 v=44
193024 On ch=1 n=c#5 v=44
193024 On ch=1 n=g5 v=68
193024 On ch=1 n=a3 v=55
193024 On ch=1 n=e4 v=55
193024 On ch=1 n=a4 v=67
193177 Par ch=1 c=64 v=0
193280 Off ch=1 n=g5 v=0
193280 On ch=1 n=e5 v=63
193438 Par ch=1 c=64 v=127
193536 Off ch=1 n=g4 v=0
193536 Off ch=1 n=c#5 v=0
193536 Off ch=1 n=e5 v=0
193536 On ch=1 n=e5 v=63
193536 On ch=1 n=g4 v=44
193536 On ch=1 n=c#5 v=44
193792 Off ch=1 n=e5 v=0
193792 On ch=1 n=g5 v=65
193792 Off ch=1 n=c#2 v=0
193792 Off ch=1 n=c#3 v=0
193792 Off ch=1 n=a3 v=0
193792 Off ch=1 n=e4 v=0
193792 Off ch=1 n=a4 v=0
193792 On ch=1 n=c#2 v=47
193792 On ch=1 n=c#3 v=59
194048 Off ch=1 n=g5 v=0
194048 On ch=1 n=g5 v=68
194048 Off ch=1 n=g4 v=0
194048 Off ch=1 n=c#5 v=0
194048 On ch=1 n=g4 v=44
194048 On ch=1 n=c#5 v=44
194304 Off ch=1 n=g5 v=0
194304 On ch=1 n=e5 v=63
194560 Off ch=1 n=e5 v=0
194560 On ch=1 n=e5 v=63
194560 Off ch=1 n=g4 v=0
194560 Off ch=1 n=c#5 v=0
194560 On ch=1 n=g4 v=44
194560 On ch=1 n=c#5 v=44
194560 On ch=1 n=a3 v=55
194560 On ch=1 n=e4 v=55
194560 On ch=1 n=a4 v=67
194571 Par ch=1 c=64 v=0
194789 Par ch=1 c=64 v=127
194816 Off ch=1 n=e5 v=0
194816 On ch=1 n=g5 v=65
195072 Off ch=1 n=g5 v=0
195072 On ch=1 n=g5 v=68
195072 Off ch=1 n=g4 v=0
195072 Off ch=1 n=c#5 v=0
195072 On ch=1 n=g4 v=44
195072 On ch=1 n=c#5 v=44
195328 Off ch=1 n=g5 v=0
195328 On ch=1 n=e5 v=63
195328 Off ch=1 n=c#2 v=0
195328 Off ch=1 n=c#3 v=0
195328 Off ch=1 n=a3 v=0
195328 Off ch=1 n=e4 v=0
195328 Off ch=1 n=a4 v=0
195328 On ch=1 n=c#2 v=47
195328 On ch=1 n=c#3 v=59
195584 Off ch=1 n=e5 v=0
195584 On ch=1 n=e6 v=74
195584 Off ch=1 n=g4 v=0
195584 Off ch=1 n=c#5 v=0
195584 On ch=1 n=c#5 v=44
195840 Off ch=1 n=e6 v=0
195840 On ch=1 n=e5 v=63
196096 Par ch=1 c=64 v=127
196096 Par ch=1 c=64 v=0
196096 Par ch=1 c=64 v=0
196096 Par ch=1 c=64 v=0
196096 Off ch=1 n=e5 v=0
196096 Off ch=1 n=c#5 v=0
196096 On ch=1 n=f#4 v=44
196096 On ch=1 n=c#5 v=44
196096 On ch=1 n=f#5 v=68
196096 On ch=1 n=a#3 v=55
196096 On ch=1 n=e4 v=55
196096 On ch=1 n=a#4 v=67
196249 Par ch=1 c=64 v=0
196352 Off ch=1 n=f#5 v=0
196352 On ch=1 n=e5 v=63
196510 Par ch=1 c=64 v=127
196608 Off ch=1 n=f#4 v=0
196608 Off ch=1 n=c#5 v=0
196608 Off ch=1 n=e5 v=0
196608 On ch=1 n=e5 v=63
196608 On ch=1 n=f#4 v=44
196608 On ch=1 n=c#5 v=44
196864 Off ch=1 n=e5 v=0
196864 On ch=1 n=f#5 v=65
196864 Off ch=1 n=c#2 v=0
196864 Off ch=1 n=c#3 v=0
196864 Off ch=1 n=a#3 v=0
196864 Off ch=1 n=e4 v=0
196864 Off ch=1 n=a#4 v=0
196864 On ch=1 n=c#2 v=47
196864 On ch=1 n=c#3 v=59
197120 Off ch=1 n=f#5 v=0
197120 On ch=1 n=f#5 v=68
197120 Off ch=1 n=f#4 v=0
197120 Off ch=1 n=c#5 v=0
197120 On ch=1 n=f#4 v=44
197120 On ch=1 n=c#5 v=44
197376 Off ch=1 n=f#5 v=0
197376 On ch=1 n=e5 v=63
197632 Off ch=1 n=e5 v=0
197632 On ch=1 n=g#5 v=63
197632 Off ch=1 n=f#4 v=0
197632 Off ch=1 n=c#5 v=0
197632 On ch=1 n=g#4 v=44
197632 On ch=1 n=c#5 v=44
197632 On ch=1 n=a3 v=55
197632 On ch=1 n=e4 v=55
197632 On ch=1 n=a4 v=67
197643 Par ch=1 c=64 v=0
197861 Par ch=1 c=64 v=127
197888 Off ch=1 n=g#5 v=0
197888 On ch=1 n=e5 v=65
198144 Off ch=1 n=e5 v=0
198144 On ch=1 n=e5 v=68
198144 Off ch=1 n=g#4 v=0
198144 Off ch=1 n=c#5 v=0
198144 On ch=1 n=g#4 v=44
198144 On ch=1 n=c#5 v=44
198400 Off ch=1 n=e5 v=0
198400 On ch=1 n=g#5 v=63
198400 Off ch=1 n=c#2 v=0
198400 Off ch=1 n=c#3 v=0
198400 Off ch=1 n=a3 v=0
198400 Off ch=1 n=e4 v=0
198400 Off ch=1 n=a4 v=0
198400 On ch=1 n=c#2 v=47
198400 On ch=1 n=c#3 v=59
198656 Off ch=1 n=g#5 v=0
198656 On ch=1 n=g#5 v=67
198656 Off ch=1 n=g#4 v=0
198656 Off ch=1 n=c#5 v=0
198656 On ch=1 n=g#4 v=37
198656 On ch=1 n=c#5 v=37
198912 Off ch=1 n=g#5 v=0
198912 On ch=1 n=e5 v=56
199168 Par ch=1 c=64 v=127
199168 Par ch=1 c=64 v=0
199168 Par ch=1 c=64 v=0
199168 Par ch=1 c=64 v=0
199168 Off ch=1 n=e5 v=0
199168 Off ch=1 n=g#4 v=0
199168 Off ch=1 n=c#5 v=0
199168 Off ch=1 n=c#2 v=0
199168 Off ch=1 n=c#3 v=0
199168 On ch=1 n=g#4 v=44
199168 On ch=1 n=c5 v=44
199168 On ch=1 n=g#5 v=68
199168 On ch=1 n=a3 v=55
199168 On ch=1 n=e4 v=55
199168 On ch=1 n=a4 v=67
199321 Par ch=1 c=64 v=0
199424 Off ch=1 n=g#5 v=0
199424 On ch=1 n=e5 v=63
199582 Par ch=1 c=64 v=127
199680 Off ch=1 n=g#4 v=0
199680 Off ch=1 n=c5 v=0
199680 Off ch=1 n=e5 v=0
199680 On ch=1 n=e5 v=63
199680 On ch=1 n=g#4 v=44
199680 On ch=1 n=c5 v=44
199936 Off ch=1 n=e5 v=0
199936 On ch=1 n=g#5 v=65
199936 Off ch=1 n=a3 v=0
199936 Off ch=1 n=e4 v=0
199936 Off ch=1 n=a4 v=0
199936 On ch=1 n=c2 v=47
199936 On ch=1 n=c3 v=59
200192 Off ch=1 n=g#5 v=0
200192 On ch=1 n=g#5 v=68
200192 Off ch=1 n=g#4 v=0
200192 Off ch=1 n=c5 v=0
200192 On ch=1 n=g#4 v=44
200192 On ch=1 n=c5 v=44
200448 Off ch=1 n=g#5 v=0
200448 On ch=1 n=e5 v=63
200704 Off ch=1 n=e5 v=0
200704 On ch=1 n=e5 v=63
200704 Off ch=1 n=g#4 v=0
200704 Off ch=1 n=c5 v=0
200704 On ch=1 n=g#4 v=44
200704 On ch=1 n=c5 v=44
200704 On ch=1 n=a3 v=55
200704 On ch=1 n=e4 v=55
200704 On ch=1 n=a4 v=67
200715 Par ch=1 c=64 v=0
200933 Par ch=1 c=64 v=127
200960 Off ch=1 n=e5 v=0
200960 On ch=1 n=g#5 v=65
201216 Off ch=1 n=g#5 v=0
201216 On ch=1 n=g#5 v=68
201216 Off ch=1 n=g#4 v=0
201216 Off ch=1 n=c5 v=0
201216 On ch=1 n=g#4 v=44
201216 On ch=1 n=c5 v=44
201472 Off ch=1 n=g#5 v=0
201472 On ch=1 n=e5 v=63
201472 Off ch=1 n=c2 v=0
201472 Off ch=1 n=c3 v=0
201472 Off ch=1 n=a3 v=0
201472 Off ch=1 n=e4 v=0
201472 Off ch=1 n=a4 v=0
201472 On ch=1 n=c2 v=47
201472 On ch=1 n=c3 v=59
201728 Off ch=1 n=e5 v=0
201728 On ch=1 n=g#5 v=74
201728 Off ch=1 n=g#4 v=0
201728 Off ch=1 n=c5 v=0
201728 On ch=1 n=e5 v=44
201984 Off ch=1 n=g#5 v=0
201984 On ch=1 n=e6 v=78
202240 Par ch=1 c=64 v=127
202240 Par ch=1 c=64 v=0
202240 Par ch=1 c=64 v=0
202240 Par ch=1 c=64 v=0
202240 Par ch=1 c=64 v=0
202240 Par ch=1 c=64 v=0
202240 Off ch=1 n=e6 v=0
202240 Off ch=1 n=e5 v=0
202240 On ch=1 n=g#4 v=44
202240 On ch=1 n=c5 v=44
202240 On ch=1 n=g#5 v=71
202240 On ch=1 n=a3 v=55
202240 On ch=1 n=e4 v=55
202240 On ch=1 n=a4 v=67
202393 Par ch=1 c=64 v=0
202496 On ch=1 n=e5 v=63
202654 Par ch=1 c=64 v=127
202752 Off ch=1 n=g#4 v=0
202752 Off ch=1 n=c5 v=0
202752 Off ch=1 n=e5 v=0
202752 Off ch=1 n=g#5 v=0
202752 On ch=1 n=e5 v=63
202752 On ch=1 n=g#4 v=44
202752 On ch=1 n=c5 v=44
203008 Off ch=1 n=e5 v=0
203008 On ch=1 n=g#5 v=65
203008 Off ch=1 n=c2 v=0
203008 Off ch=1 n=c3 v=0
203008 Off ch=1 n=a3 v=0
203008 Off ch=1 n=e4 v=0
203008 Off ch=1 n=a4 v=0
203008 On ch=1 n=c2 v=47
203008 On ch=1 n=c3 v=59
203264 Off ch=1 n=g#5 v=0
203264 On ch=1 n=g#5 v=68
203264 Off ch=1 n=g#4 v=0
203264 Off ch=1 n=c5 v=0
203264 On ch=1 n=g#4 v=44
203264 On ch=1 n=c5 v=44
203520 Off ch=1 n=g#5 v=0
203520 On ch=1 n=e5 v=63
203776 Off ch=1 n=e5 v=0
203776 On ch=1 n=f5 v=71
203776 Off ch=1 n=g#4 v=0
203776 Off ch=1 n=c5 v=0
203776 On ch=1 n=f4 v=44
203776 On ch=1 n=b4 v=44
203776 On ch=1 n=a3 v=55
203776 On ch=1 n=d#4 v=55
203776 On ch=1 n=a4 v=67
203787 Par ch=1 c=64 v=0
204005 Par ch=1 c=64 v=127
204032 Off ch=1 n=f5 v=0
204032 On ch=1 n=d#5 v=65
204288 Off ch=1 n=d#5 v=0
204288 On ch=1 n=f#5 v=73
204288 Off ch=1 n=f4 v=0
204288 Off ch=1 n=b4 v=0
204288 On ch=1 n=f#4 v=44
204288 On ch=1 n=b4 v=44
204544 Off ch=1 n=f#5 v=0
204544 On ch=1 n=d#5 v=63
204544 Off ch=1 n=c2 v=0
204544 Off ch=1 n=c3 v=0
204544 Off ch=1 n=a3 v=0
204544 Off ch=1 n=d#4 v=0
204544 Off ch=1 n=a4 v=0
204544 On ch=1 n=b1 v=56
204544 On ch=1 n=b2 v=68
204800 Off ch=1 n=d#5 v=0
204800 On ch=1 n=g5 v=75
204800 Off ch=1 n=f#4 v=0
204800 Off ch=1 n=b4 v=0
204800 On ch=1 n=g4 v=37
204800 On ch=1 n=b4 v=37
205056 Off ch=1 n=g5 v=0
205056 On ch=1 n=d#5 v=56
205312 Par ch=1 c=64 v=127
205312 Par ch=1 c=64 v=0
205312 Par ch=1 c=64 v=0
205312 Par ch=1 c=64 v=0
205312 Par ch=1 c=64 v=0
205312 Par ch=1 c=64 v=0
205312 Off ch=1 n=d#5 v=0
205312 Off ch=1 n=g4 v=0
205312 Off ch=1 n=b4 v=0
205312 Off ch=1 n=b1 v=0
205312 Off ch=1 n=b2 v=0
205312 On ch=1 n=g#4 v=44
205312 On ch=1 n=c5 v=44
205312 On ch=1 n=g#5 v=68
205312 On ch=1 n=g#3 v=55
205312 On ch=1 n=d#4 v=55
205312 On ch=1 n=g#4 v=67
205465 Par ch=1 c=64 v=0
205568 On ch=1 n=d#5 v=63
205726 Par ch=1 c=64 v=127
205824 Off ch=1 n=g#4 v=0
205824 Off ch=1 n=c5 v=0
205824 Off ch=1 n=d#5 v=0
205824 Off ch=1 n=g#5 v=0
205824 On ch=1 n=d#5 v=63
205824 On ch=1 n=g#4 v=44
205824 On ch=1 n=c5 v=44
206080 Off ch=1 n=d#5 v=0
206080 On ch=1 n=g#5 v=65
206080 Off ch=1 n=g#3 v=0
206080 Off ch=1 n=d#4 v=0
206080 Off ch=1 n=g#4 v=0
206080 On ch=1 n=c2 v=47
206080 On ch=1 n=c3 v=59
206336 Off ch=1 n=g#5 v=0
206336 On ch=1 n=g#5 v=68
206336 Off ch=1 n=g#4 v=0
206336 Off ch=1 n=c5 v=0
206336 On ch=1 n=g#4 v=44
206336 On ch=1 n=c5 v=44
206592 Off ch=1 n=g#5 v=0
206592 On ch=1 n=d#5 v=63
206848 Off ch=1 n=d#5 v=0
206848 On ch=1 n=e5 v=63
206848 Off ch=1 n=g#4 v=0
206848 Off ch=1 n=c5 v=0
206848 On ch=1 n=g#4 v=44
206848 On ch=1 n=g#3 v=55
206848 On ch=1 n=d#4 v=55
206859 Par ch=1 c=64 v=0
207077 Par ch=1 c=64 v=127
207104 Off ch=1 n=e5 v=0
207104 On ch=1 n=d#5 v=65
207360 Off ch=1 n=d#5 v=0
207360 On ch=1 n=g#5 v=68
207616 Off ch=1 n=g#4 v=0
207616 On ch=1 n=e5 v=55
207616 Off ch=1 n=c2 v=0
207616 Off ch=1 n=c3 v=0
207616 Off ch=1 n=g#3 v=0
207616 Off ch=1 n=d#4 v=0
207616 On ch=1 n=c2 v=47
207616 On ch=1 n=c3 v=59
207872 Off ch=1 n=g#5 v=0
207872 On ch=1 n=g#5 v=62
207872 On ch=1 n=e6 v=74
208128 Off ch=1 n=g#5 v=0
208128 Off ch=1 n=e6 v=0
208128 On ch=1 n=d#5 v=56
208128 On ch=1 n=d#6 v=68
208128 Off ch=1 n=e5 v=0
208384 Par ch=1 c=64 v=127
208384 Par ch=1 c=64 v=0
208384 Par ch=1 c=64 v=0
208384 Par ch=1 c=64 v=0
208384 Par ch=1 c=64 v=0
208384 Off ch=1 n=d#5 v=0
208384 Off ch=1 n=d#6 v=0
208384 On ch=1 n=d#5 v=50
208384 On ch=1 n=a5 v=62
208384 On ch=1 n=g#3 v=55
208384 On ch=1 n=d#4 v=55
208384 On ch=1 n=g#4 v=67
208537 Par ch=1 c=64 v=0
208640 Off ch=1 n=a5 v=0
208640 On ch=1 n=g#5 v=64
208798 Par ch=1 c=64 v=127
208896 Off ch=1 n=g#5 v=0
208896 On ch=1 n=d#6 v=66
209152 Off ch=1 n=d#5 v=0
209152 On ch=1 n=a5 v=69
209152 Off ch=1 n=c2 v=0
209152 Off ch=1 n=c3 v=0
209152 Off ch=1 n=g#3 v=0
209152 Off ch=1 n=d#4 v=0
209152 Off ch=1 n=g#4 v=0
209152 On ch=1 n=c2 v=43
209152 On ch=1 n=c3 v=55
209408 Off ch=1 n=d#6 v=0
209408 On ch=1 n=d#6 v=59
209408 On ch=1 n=a6 v=71
209664 Off ch=1 n=d#6 v=0
209664 Off ch=1 n=a6 v=0
209664 On ch=1 n=g#5 v=61
209664 On ch=1 n=g#6 v=73
209664 Off ch=1 n=a5 v=0
209920 Off ch=1 n=g#5 v=0
209920 Off ch=1 n=g#6 v=0
209920 On ch=1 n=g#5 v=64
209920 On ch=1 n=g#4 v=46
209920 On ch=1 n=c5 v=46
209920 On ch=1 n=g#3 v=48
209920 On ch=1 n=d#4 v=60
209931 Par ch=1 c=64 v=0
210149 Par ch=1 c=64 v=127
210176 Off ch=1 n=g#5 v=0
210176 On ch=1 n=d#5 v=57
210432 Off ch=1 n=d#5 v=0
210432 On ch=1 n=d#5 v=57
210432 Off ch=1 n=g#4 v=0
210432 Off ch=1 n=c5 v=0
210432 On ch=1 n=g#4 v=46
210432 On ch=1 n=c5 v=46
210688 Off ch=1 n=d#5 v=0
210688 On ch=1 n=g#5 v=60
210688 Off ch=1 n=c2 v=0
210688 Off ch=1 n=c3 v=0
210688 Off ch=1 n=g#3 v=0
210688 Off ch=1 n=d#4 v=0
210688 On ch=1 n=c2 v=36
210688 On ch=1 n=c3 v=48
210944 Off ch=1 n=g#5 v=0
210944 On ch=1 n=g#5 v=64
210944 Off ch=1 n=g#4 v=0
210944 Off ch=1 n=c5 v=0
210944 On ch=1 n=g#4 v=46
210944 On ch=1 n=c5 v=46
211200 Off ch=1 n=g#5 v=0
211200 On ch=1 n=d#5 v=57
211456 Par ch=1 c=64 v=127
211456 Par ch=1 c=64 v=0
211456 Par ch=1 c=64 v=0
211456 Par ch=1 c=64 v=0
211456 Off ch=1 n=d#5 v=0
211456 Off ch=1 n=g#4 v=0
211456 Off ch=1 n=c5 v=0
211456 Off ch=1 n=c2 v=0
211456 Off ch=1 n=c3 v=0
211456 On ch=1 n=a4 v=46
211456 On ch=1 n=b4 v=46
211456 On ch=1 n=a5 v=71
211456 On ch=1 n=f3 v=58
211456 On ch=1 n=d#4 v=58
211456 On ch=1 n=f4 v=70
211609 Par ch=1 c=64 v=0
211712 Off ch=1 n=a5 v=0
211712 On ch=1 n=d#5 v=66
211870 Par ch=1 c=64 v=127
211968 Off ch=1 n=a4 v=0
211968 Off ch=1 n=b4 v=0
211968 Off ch=1 n=d#5 v=0
211968 On ch=1 n=d#5 v=66
211968 On ch=1 n=a4 v=46
211968 On ch=1 n=b4 v=46
212224 Off ch=1 n=d#5 v=0
212224 On ch=1 n=a5 v=69
212224 Off ch=1 n=f3 v=0
212224 Off ch=1 n=d#4 v=0
212224 Off ch=1 n=f4 v=0
212224 On ch=1 n=b1 v=50
212224 On ch=1 n=b2 v=63
212480 Off ch=1 n=a5 v=0
212480 On ch=1 n=a5 v=72
212480 Off ch=1 n=a4 v=0
212480 Off ch=1 n=b4 v=0
212480 On ch=1 n=a4 v=47
212480 On ch=1 n=b4 v=47
212736 Off ch=1 n=a5 v=0
212736 On ch=1 n=d#5 v=67
212992 Off ch=1 n=d#5 v=0
212992 On ch=1 n=d#5 v=67
212992 Off ch=1 n=a4 v=0
212992 Off ch=1 n=b4 v=0
212992 On ch=1 n=a4 v=47
212992 On ch=1 n=b4 v=47
212992 Off ch=1 n=b1 v=0
212992 Off ch=1 n=b2 v=0
212992 On ch=1 n=f3 v=58
212992 On ch=1 n=d#4 v=58
212992 On ch=1 n=f4 v=71
213003 Par ch=1 c=64 v=0
213221 Par ch=1 c=64 v=127
213248 Off ch=1 n=d#5 v=0
213248 On ch=1 n=a5 v=69
213504 Off ch=1 n=a5 v=0
213504 On ch=1 n=a5 v=73
213504 Off ch=1 n=a4 v=0
213504 Off ch=1 n=b4 v=0
213504 On ch=1 n=a4 v=47
213504 On ch=1 n=b4 v=47
213760 Off ch=1 n=a5 v=0
213760 On ch=1 n=d#5 v=67
213760 Off ch=1 n=f3 v=0
213760 Off ch=1 n=d#4 v=0
213760 Off ch=1 n=f4 v=0
213760 On ch=1 n=b1 v=50
213760 On ch=1 n=b2 v=63
214016 Off ch=1 n=d#5 v=0
214016 On ch=1 n=d#5 v=73
214016 Off ch=1 n=a4 v=0
214016 Off ch=1 n=b4 v=0
214016 On ch=1 n=a4 v=47
214016 On ch=1 n=b4 v=41
214272 Off ch=1 n=d#5 v=0
214272 On ch=1 n=a5 v=61
214528 Par ch=1 c=64 v=127
214528 Par ch=1 c=64 v=0
214528 Par ch=1 c=64 v=0
214528 Par ch=1 c=64 v=0
214528 Par ch=1 c=64 v=0
214528 Par ch=1 c=64 v=0
214528 Off ch=1 n=a5 v=0
214528 Off ch=1 n=a4 v=0
214528 Off ch=1 n=b4 v=0
214528 Off ch=1 n=b1 v=0
214528 Off ch=1 n=b2 v=0
214528 On ch=1 n=a4 v=48
214528 On ch=1 n=b4 v=48
214528 On ch=1 n=a5 v=73
214528 On ch=1 n=f3 v=59
214528 On ch=1 n=d4 v=59
214528 On ch=1 n=f4 v=72
214681 Par ch=1 c=64 v=0
214784 Off ch=1 n=a5 v=0
214784 On ch=1 n=d5 v=68
214942 Par ch=1 c=64 v=127
215040 Off ch=1 n=a4 v=0
215040 Off ch=1 n=b4 v=0
215040 Off ch=1 n=d5 v=0
215040 On ch=1 n=d5 v=68
215040 On ch=1 n=a4 v=48
215040 On ch=1 n=b4 v=48
215296 Off ch=1 n=d5 v=0
215296 On ch=1 n=a5 v=70
215296 Off ch=1 n=f3 v=0
215296 Off ch=1 n=d4 v=0
215296 Off ch=1 n=f4 v=0
215296 On ch=1 n=b1 v=51
215296 On ch=1 n=b2 v=64
215552 Off ch=1 n=a5 v=0
215552 On ch=1 n=a5 v=73
215552 Off ch=1 n=a4 v=0
215552 Off ch=1 n=b4 v=0
215552 On ch=1 n=a4 v=48
215552 On ch=1 n=b4 v=48
215808 Off ch=1 n=a5 v=0
215808 On ch=1 n=d5 v=69
216064 Off ch=1 n=d5 v=0
216064 On ch=1 n=d5 v=69
216064 Off ch=1 n=a4 v=0
216064 Off ch=1 n=b4 v=0
216064 On ch=1 n=f4 v=48
216064 On ch=1 n=b4 v=48
216064 Off ch=1 n=b1 v=0
216064 Off ch=1 n=b2 v=0
216064 On ch=1 n=a3 v=60
216064 On ch=1 n=d4 v=60
216064 On ch=1 n=a4 v=73
216075 Par ch=1 c=64 v=0
216293 Par ch=1 c=64 v=127
216320 Off ch=1 n=d5 v=0
216320 On ch=1 n=f5 v=71
216576 Off ch=1 n=f5 v=0
216576 On ch=1 n=f5 v=74
216576 Off ch=1 n=f4 v=0
216576 Off ch=1 n=b4 v=0
216576 On ch=1 n=f4 v=48
216576 On ch=1 n=b4 v=48
216832 Off ch=1 n=f5 v=0
216832 On ch=1 n=d5 v=69
216832 Off ch=1 n=a3 v=0
216832 Off ch=1 n=d4 v=0
216832 Off ch=1 n=a4 v=0
216832 On ch=1 n=b1 v=51
216832 On ch=1 n=b2 v=64
217088 Off ch=1 n=d5 v=0
217088 On ch=1 n=d5 v=74
217088 Off ch=1 n=f4 v=0
217088 Off ch=1 n=b4 v=0
217088 On ch=1 n=f4 v=41
217088 On ch=1 n=b4 v=41
217344 Off ch=1 n=d5 v=0
217344 On ch=1 n=f5 v=62
217600 Par ch=1 c=64 v=127
217600 Par ch=1 c=64 v=0
217600 Par ch=1 c=64 v=0
217600 Par ch=1 c=64 v=0
217600 Par ch=1 c=64 v=0
217600 Off ch=1 n=f5 v=0
217600 Off ch=1 n=f4 v=0
217600 Off ch=1 n=b4 v=0
217600 Off ch=1 n=b1 v=0
217600 Off ch=1 n=b2 v=0
217600 On ch=1 n=g#4 v=44
217600 On ch=1 n=g#5 v=68
217600 On ch=1 n=f3 v=55
217600 On ch=1 n=c#4 v=55
217600 On ch=1 n=f4 v=67
217753 Par ch=1 c=64 v=0
217856 Off ch=1 n=g#5 v=0
217856 On ch=1 n=c#5 v=63
218014 Par ch=1 c=64 v=127
218112 Off ch=1 n=g#4 v=0
218112 Off ch=1 n=c#5 v=0
218112 On ch=1 n=c#5 v=63
218112 On ch=1 n=g#4 v=44
218368 Off ch=1 n=c#5 v=0
218368 On ch=1 n=g#5 v=65
218368 Off ch=1 n=f3 v=0
218368 Off ch=1 n=c#4 v=0
218368 Off ch=1 n=f4 v=0
218368 On ch=1 n=a1 v=47
218368 On ch=1 n=a2 v=59
218624 Off ch=1 n=g#5 v=0
218624 On ch=1 n=g#5 v=68
218624 Off ch=1 n=g#4 v=0
218624 On ch=1 n=g#4 v=44
218880 Off ch=1 n=g#5 v=0
218880 On ch=1 n=c#5 v=63
219136 Off ch=1 n=c#5 v=0
219136 Off ch=1 n=g#4 v=0
219136 On ch=1 n=c#5 v=66
219136 Off ch=1 n=a1 v=0
219136 Off ch=1 n=a2 v=0
219136 On ch=1 n=g#3 v=55
219136 On ch=1 n=c#4 v=55
219136 On ch=1 n=g#4 v=67
219147 Par ch=1 c=64 v=0
219365 Par ch=1 c=64 v=127
219392 On ch=1 n=g#4 v=50
219648 Off ch=1 n=c#5 v=0
219648 On ch=1 n=d#5 v=68
219904 Off ch=1 n=g#4 v=0
219904 On ch=1 n=g#4 v=50
219904 Off ch=1 n=g#3 v=0
219904 Off ch=1 n=c#4 v=0
219904 Off ch=1 n=g#4 v=0
219904 On ch=1 n=a1 v=56
219904 On ch=1 n=a2 v=68
220160 Off ch=1 n=g#4 v=0
220160 On ch=1 n=c#5 v=50
220160 Off ch=1 n=d#5 v=0
220160 On ch=1 n=f5 v=71
220416 Off ch=1 n=c#5 v=0
220416 On ch=1 n=g#4 v=50
220672 Par ch=1 c=64 v=127
220672 Par ch=1 c=64 v=0
220672 Par ch=1 c=64 v=0
220672 Par ch=1 c=64 v=0
220672 Par ch=1 c=64 v=0
220672 Off ch=1 n=g#4 v=0
220672 Off ch=1 n=f5 v=0
220672 Off ch=1 n=a1 v=0
220672 Off ch=1 n=a2 v=0
220672 On ch=1 n=c#5 v=55
220672 On ch=1 n=f#5 v=73
220672 On ch=1 n=f#3 v=64
220672 On ch=1 n=c#4 v=64
220672 On ch=1 n=f#4 v=76
220825 Par ch=1 c=64 v=0
220928 Off ch=1 n=c#5 v=0
220928 On ch=1 n=f#4 v=56
221086 Par ch=1 c=64 v=127
221184 Off ch=1 n=f#5 v=0
221184 On ch=1 n=g#5 v=75
221184 Off ch=1 n=f#4 v=0
221184 On ch=1 n=c#5 v=57
221440 Off ch=1 n=c#5 v=0
221440 On ch=1 n=g#4 v=58
221440 Off ch=1 n=f#3 v=0
221440 Off ch=1 n=c#4 v=0
221440 Off ch=1 n=f#4 v=0
221440 On ch=1 n=a1 v=65
221440 On ch=1 n=a2 v=77
221696 Off ch=1 n=g#5 v=0
221696 On ch=1 n=a5 v=77
221696 Off ch=1 n=g#4 v=0
221696 On ch=1 n=c#5 v=59
221787 Par ch=1 c=64 v=127
221952 Off ch=1 n=c#5 v=0
221952 On ch=1 n=a4 v=60
222208 Off ch=1 n=a5 v=0
222208 On ch=1 n=c6 v=80
222208 Off ch=1 n=a4 v=0
222208 On ch=1 n=f#5 v=61
222208 Off ch=1 n=a1 v=0
222208 Off ch=1 n=a2 v=0
222208 On ch=1 n=f#4 v=76
222464 Off ch=1 n=f#5 v=0
222464 On ch=1 n=c5 v=62
222720 Off ch=1 n=c6 v=0
222720 On ch=1 n=c#6 v=82
222720 Off ch=1 n=c5 v=0
222720 On ch=1 n=f#5 v=63
222976 Off ch=1 n=f#5 v=0
222976 On ch=1 n=c#5 v=64
222976 Off ch=1 n=f#4 v=0
222976 On ch=1 n=a2 v=68
222976 On ch=1 n=a3 v=80
223232 Off ch=1 n=c#6 v=0
223232 On ch=1 n=f#6 v=84
223232 Off ch=1 n=c#5 v=0
223232 On ch=1 n=c#6 v=65
223488 Off ch=1 n=c#6 v=0
223488 On ch=1 n=f#5 v=66
223744 Par ch=1 c=64 v=127
223744 Par ch=1 c=64 v=0
223744 Par ch=1 c=64 v=0
223744 Par ch=1 c=64 v=0
223744 Par ch=1 c=64 v=0
223744 Par ch=1 c=64 v=0
223744 Off ch=1 n=f#6 v=0
223744 Off ch=1 n=f#5 v=0
223744 Off ch=1 n=a2 v=0
223744 Off ch=1 n=a3 v=0
223744 On ch=1 n=a5 v=59
223744 On ch=1 n=c#6 v=59
223744 On ch=1 n=a6 v=77
223744 On ch=1 n=f#3 v=70
223744 On ch=1 n=d4 v=70
223744 On ch=1 n=a4 v=82
223897 Par ch=1 c=64 v=0
224000 On ch=1 n=f#6 v=71
224158 Par ch=1 c=64 v=127
224256 Off ch=1 n=a5 v=0
224256 Off ch=1 n=c#6 v=0
224256 Off ch=1 n=f#6 v=0
224256 Off ch=1 n=a6 v=0
224256 On ch=1 n=f#6 v=71
224256 On ch=1 n=a5 v=58
224256 On ch=1 n=c#6 v=58
224512 Off ch=1 n=f#6 v=0
224512 On ch=1 n=a6 v=72
224512 Off ch=1 n=f#3 v=0
224512 Off ch=1 n=d4 v=0
224512 Off ch=1 n=a4 v=0
224512 On ch=1 n=f#2 v=62
224512 On ch=1 n=f#3 v=74
224768 Off ch=1 n=a6 v=0
224768 On ch=1 n=a6 v=75
224768 Off ch=1 n=a5 v=0
224768 Off ch=1 n=c#6 v=0
224768 On ch=1 n=a5 v=57
224768 On ch=1 n=c#6 v=57
224996 Par ch=1 c=64 v=127
225024 Off ch=1 n=a6 v=0
225024 On ch=1 n=f#6 v=69
225280 Off ch=1 n=f#6 v=0
225280 On ch=1 n=f#6 v=69
225280 Off ch=1 n=a5 v=0
225280 Off ch=1 n=c#6 v=0
225280 On ch=1 n=a5 v=56
225280 On ch=1 n=c#6 v=56
225280 Off ch=1 n=f#2 v=0
225280 Off ch=1 n=f#3 v=0
225280 On ch=1 n=d3 v=62
225280 On ch=1 n=d4 v=74
225536 Off ch=1 n=f#6 v=0
225536 On ch=1 n=a6 v=70
225792 Off ch=1 n=a6 v=0
225792 On ch=1 n=a6 v=72
225792 Off ch=1 n=a5 v=0
225792 Off ch=1 n=c#6 v=0
225792 On ch=1 n=a5 v=54
225792 On ch=1 n=c#6 v=54
226048 Off ch=1 n=a6 v=0
226048 On ch=1 n=f#6 v=67
226048 Off ch=1 n=d3 v=0
226048 Off ch=1 n=d4 v=0
226048 On ch=1 n=f#2 v=62
226048 On ch=1 n=f#3 v=74
226304 Off ch=1 n=f#6 v=0
226304 On ch=1 n=f#6 v=66
226304 Off ch=1 n=a5 v=0
226304 Off ch=1 n=c#6 v=0
226304 On ch=1 n=a5 v=53
226304 On ch=1 n=c#6 v=53
226560 Off ch=1 n=f#6 v=0
226560 On ch=1 n=a6 v=71
226816 Par ch=1 c=64 v=127
226816 Par ch=1 c=64 v=0
226816 Par ch=1 c=64 v=0
226816 Par ch=1 c=64 v=0
226816 Par ch=1 c=64 v=0
226816 Par ch=1 c=64 v=0
226816 Off ch=1 n=a6 v=0
226816 Off ch=1 n=a5 v=0
226816 Off ch=1 n=c#6 v=0
226816 Off ch=1 n=f#2 v=0
226816 Off ch=1 n=f#3 v=0
226816 On ch=1 n=c#5 v=52
226816 On ch=1 n=d#5 v=52
226816 On ch=1 n=c#6 v=75
226816 On ch=1 n=g3 v=70
226816 On ch=1 n=d#4 v=70
226816 On ch=1 n=a4 v=82
226969 Par ch=1 c=64 v=0
227072 On ch=1 n=a5 v=65
227230 Par ch=1 c=64 v=127
227328 Off ch=1 n=c#5 v=0
227328 Off ch=1 n=d#5 v=0
227328 Off ch=1 n=a5 v=0
227328 Off ch=1 n=c#6 v=0
227328 On ch=1 n=a5 v=64
227328 On ch=1 n=c#5 v=51
227328 On ch=1 n=d#5 v=51
227584 Off ch=1 n=a5 v=0
227584 On ch=1 n=c#6 v=65
227584 Off ch=1 n=g3 v=0
227584 Off ch=1 n=d#4 v=0
227584 Off ch=1 n=a4 v=0
227584 On ch=1 n=g2 v=62
227584 On ch=1 n=g3 v=74
227840 Off ch=1 n=c#6 v=0
227840 On ch=1 n=c#6 v=68
227840 Off ch=1 n=c#5 v=0
227840 Off ch=1 n=d#5 v=0
227840 On ch=1 n=c#5 v=50
227840 On ch=1 n=d#5 v=50
228096 Off ch=1 n=c#6 v=0
228096 On ch=1 n=a5 v=62
228352 Off ch=1 n=a5 v=0
228352 On ch=1 n=a5 v=62
228352 Off ch=1 n=c#5 v=0
228352 Off ch=1 n=d#5 v=0
228352 On ch=1 n=c#5 v=49
228352 On ch=1 n=d#5 v=49
228352 Off ch=1 n=g2 v=0
228352 Off ch=1 n=g3 v=0
228352 On ch=1 n=d#3 v=62
228352 On ch=1 n=d#4 v=74
228363 Par ch=1 c=64 v=0
228581 Par ch=1 c=64 v=127
228608 Off ch=1 n=a5 v=0
228608 On ch=1 n=c#6 v=63
228864 Off ch=1 n=c#6 v=0
228864 On ch=1 n=c#6 v=66
228864 Off ch=1 n=c#5 v=0
228864 Off ch=1 n=d#5 v=0
228864 On ch=1 n=c#5 v=48
228864 On ch=1 n=d#5 v=48
229120 Off ch=1 n=c#6 v=0
229120 On ch=1 n=a5 v=60
229120 Off ch=1 n=d#3 v=0
229120 Off ch=1 n=d#4 v=0
229120 On ch=1 n=g2 v=62
229120 On ch=1 n=g3 v=74
229376 Off ch=1 n=a5 v=0
229376 On ch=1 n=a5 v=59
229376 Off ch=1 n=c#5 v=0
229376 Off ch=1 n=d#5 v=0
229376 On ch=1 n=c#5 v=46
229376 On ch=1 n=d#5 v=46
229632 Off ch=1 n=a5 v=0
229632 On ch=1 n=c#6 v=61
229888 Par ch=1 c=64 v=127
229888 Par ch=1 c=64 v=0
229888 Par ch=1 c=64 v=0
229888 Par ch=1 c=64 v=0
229888 Par ch=1 c=64 v=0
229888 Par ch=1 c=64 v=0
229888 Par ch=1 c=64 v=0
229888 Off ch=1 n=c#6 v=0
229888 Off ch=1 n=c#5 v=0
229888 Off ch=1 n=d#5 v=0
229888 Off ch=1 n=g2 v=0
229888 Off ch=1 n=g3 v=0
229888 On ch=1 n=c#5 v=45
229888 On ch=1 n=d#5 v=51
229888 On ch=1 n=c#6 v=69
229888 On ch=1 n=g#3 v=59
229888 On ch=1 n=d#4 v=59
229888 On ch=1 n=g#4 v=71
230041 Par ch=1 c=64 v=0
230144 On ch=1 n=g#5 v=58
230302 Par ch=1 c=64 v=127
230400 Off ch=1 n=c#5 v=0
230400 Off ch=1 n=d#5 v=0
230400 Off ch=1 n=g#5 v=0
230400 Off ch=1 n=c#6 v=0
230400 On ch=1 n=g#5 v=57
230400 On ch=1 n=c#5 v=44
230400 On ch=1 n=d#5 v=44
230656 Off ch=1 n=g#5 v=0
230656 On ch=1 n=c#6 v=58
230656 Off ch=1 n=g#3 v=0
230656 Off ch=1 n=d#4 v=0
230656 Off ch=1 n=g#4 v=0
230656 On ch=1 n=g#2 v=58
230656 On ch=1 n=g#3 v=69
230912 Off ch=1 n=c#6 v=0
230912 On ch=1 n=c#6 v=61
230912 Off ch=1 n=c#5 v=0
230912 Off ch=1 n=d#5 v=0
230912 On ch=1 n=c#5 v=43
230912 On ch=1 n=d#5 v=43
231168 Off ch=1 n=c#6 v=0
231168 On ch=1 n=g#5 v=55
231424 Off ch=1 n=g#5 v=0
231424 On ch=1 n=g#5 v=55
231424 Off ch=1 n=c#5 v=0
231424 Off ch=1 n=d#5 v=0
231424 On ch=1 n=c#5 v=42
231424 On ch=1 n=d#5 v=42
231424 Off ch=1 n=g#2 v=0
231424 Off ch=1 n=g#3 v=0
231424 On ch=1 n=d#3 v=57
231424 On ch=1 n=d#4 v=67
231435 Par ch=1 c=64 v=0
231653 Par ch=1 c=64 v=127
231680 Off ch=1 n=g#5 v=0
231680 On ch=1 n=c#6 v=56
231936 Off ch=1 n=c#6 v=0
231936 On ch=1 n=c#6 v=59
231936 Off ch=1 n=c#5 v=0
231936 Off ch=1 n=d#5 v=0
231936 On ch=1 n=c#5 v=41
231936 On ch=1 n=d#5 v=41
232192 Off ch=1 n=c#6 v=0
232192 On ch=1 n=g#5 v=53
232192 Off ch=1 n=d#3 v=0
232192 Off ch=1 n=d#4 v=0
232192 On ch=1 n=g#2 v=55
232192 On ch=1 n=g#3 v=65
232448 Off ch=1 n=g#5 v=0
232448 On ch=1 n=g#5 v=52
232448 Off ch=1 n=c#5 v=0
232448 Off ch=1 n=d#5 v=0
232448 On ch=1 n=c#5 v=39
232448 On ch=1 n=d#5 v=39
232704 Off ch=1 n=g#5 v=0
232704 On ch=1 n=c#6 v=57
232960 Par ch=1 c=64 v=127
232960 Par ch=1 c=64 v=0
232960 Par ch=1 c=64 v=0
232960 Par ch=1 c=64 v=0
232960 Par ch=1 c=64 v=0
232960 Par ch=1 c=64 v=0
232960 Par ch=1 c=64 v=0
232960 Off ch=1 n=c#6 v=0
232960 Off ch=1 n=c#5 v=0
232960 Off ch=1 n=d#5 v=0
232960 Off ch=1 n=g#2 v=0
232960 Off ch=1 n=g#3 v=0
232960 On ch=1 n=e5 v=38
232960 On ch=1 n=f#5 v=48
232960 On ch=1 n=e6 v=66
232960 On ch=1 n=g#3 v=54
232960 On ch=1 n=f#4 v=54
232960 On ch=1 n=c5 v=64
233113 Par ch=1 c=64 v=0
233216 On ch=1 n=c6 v=51
233374 Par ch=1 c=64 v=127
233472 Off ch=1 n=e5 v=0
233472 Off ch=1 n=f#5 v=0
233472 Off ch=1 n=c6 v=0
233472 Off ch=1 n=e6 v=0
233472 On ch=1 n=c6 v=50
233472 On ch=1 n=e5 v=37
233472 On ch=1 n=f#5 v=37
233728 Off ch=1 n=c6 v=0
233728 On ch=1 n=e6 v=52
233728 Off ch=1 n=g#3 v=0
233728 Off ch=1 n=f#4 v=0
233728 Off ch=1 n=c5 v=0
233728 On ch=1 n=g#2 v=52
233728 On ch=1 n=g#3 v=62
233984 Off ch=1 n=e6 v=0
233984 On ch=1 n=e6 v=54
233984 Off ch=1 n=e5 v=0
233984 Off ch=1 n=f#5 v=0
233984 On ch=1 n=e5 v=36
233984 On ch=1 n=f#5 v=36
234240 Off ch=1 n=e6 v=0
234240 On ch=1 n=c6 v=48
234496 Off ch=1 n=c6 v=0
234496 On ch=1 n=c6 v=48
234496 Off ch=1 n=e5 v=0
234496 Off ch=1 n=f#5 v=0
234496 On ch=1 n=d#5 v=35
234496 On ch=1 n=f#5 v=35
234496 Off ch=1 n=g#2 v=0
234496 Off ch=1 n=g#3 v=0
234496 On ch=1 n=g#3 v=51
234496 On ch=1 n=g#4 v=61
234507 Par ch=1 c=64 v=0
234725 Par ch=1 c=64 v=127
234752 Off ch=1 n=c6 v=0
234752 On ch=1 n=e6 v=49
235008 Off ch=1 n=e6 v=0
235008 On ch=1 n=e6 v=52
235008 Off ch=1 n=d#5 v=0
235008 Off ch=1 n=f#5 v=0
235008 On ch=1 n=d#5 v=34
235008 On ch=1 n=f#5 v=34
235264 Off ch=1 n=e6 v=0
235264 On ch=1 n=c6 v=46
235264 Off ch=1 n=g#3 v=0
235264 Off ch=1 n=g#4 v=0
235264 On ch=1 n=g#2 v=49
235264 On ch=1 n=g#3 v=59
235520 Off ch=1 n=c6 v=0
235520 On ch=1 n=g#6 v=63
235520 Off ch=1 n=d#5 v=0
235520 Off ch=1 n=f#5 v=0
235520 On ch=1 n=c6 v=45
235776 Off ch=1 n=g#6 v=0
235776 On ch=1 n=c6 v=45
236032 Par ch=1 c=64 v=127
236032 Par ch=1 c=64 v=0
236032 Off ch=1 n=c6 v=0
236032 Off ch=1 n=c6 v=0
236032 Off ch=1 n=g#2 v=0
236032 Off ch=1 n=g#3 v=0
236032 On ch=1 n=c#6 v=55
236032 On ch=1 n=g#6 v=67
236032 On ch=1 n=a3 v=53
236214 Par ch=1 c=64 v=0
236288 On ch=1 n=g#5 v=55
236288 On ch=1 n=f4 v=47
236351 Par ch=1 c=64 v=127
236544 Off ch=1 n=g#5 v=0
236544 Off ch=1 n=c#6 v=0
236544 Off ch=1 n=g#6 v=0
236544 On ch=1 n=c#6 v=67
236544 Off ch=1 n=a3 v=0
236544 Off ch=1 n=f4 v=0
236544 On ch=1 n=c#5 v=50
236800 Off ch=1 n=c#5 v=0
236800 On ch=1 n=a4 v=54
237056 Off ch=1 n=c#6 v=0
237056 Off ch=1 n=a4 v=0
237056 On ch=1 n=f5 v=57
237312 Off ch=1 n=f5 v=0
237312 On ch=1 n=c#6 v=60
237568 Off ch=1 n=c#6 v=0
237568 On ch=1 n=c#6 v=60
237824 Off ch=1 n=c#6 v=0
237824 On ch=1 n=f5 v=57
238080 On ch=1 n=c#6 v=50
238080 On ch=1 n=g#6 v=66
238080 Off ch=1 n=f5 v=0
238080 On ch=1 n=a4 v=54
238336 Off ch=1 n=c#6 v=0
238336 Off ch=1 n=g#6 v=0
238336 On ch=1 n=g#5 v=51
238336 Off ch=1 n=a4 v=0
238336 On ch=1 n=c#5 v=50
238592 Off ch=1 n=g#5 v=0
238592 On ch=1 n=c#6 v=52
238592 On ch=1 n=f6 v=68
238592 Off ch=1 n=c#5 v=0
238592 On ch=1 n=f4 v=47
238848 Off ch=1 n=c#6 v=0
238848 Off ch=1 n=f6 v=0
238848 On ch=1 n=f5 v=53
238848 Off ch=1 n=f4 v=0
238848 On ch=1 n=a3 v=44
239104 Par ch=1 c=64 v=127
239104 Par ch=1 c=64 v=0
239104 Par ch=1 c=64 v=0
239104 Off ch=1 n=f5 v=0
239104 Off ch=1 n=a3 v=0
239104 On ch=1 n=c#6 v=54
239104 On ch=1 n=g#6 v=70
239104 On ch=1 n=a3 v=53
239286 Par ch=1 c=64 v=0
239360 On ch=1 n=g#5 v=54
239360 On ch=1 n=f#4 v=47
239423 Par ch=1 c=64 v=127
239616 Off ch=1 n=g#5 v=0
239616 Off ch=1 n=c#6 v=0
239616 Off ch=1 n=g#6 v=0
239616 On ch=1 n=c#6 v=50
239616 On ch=1 n=f#6 v=66
239616 Off ch=1 n=a3 v=0
239616 Off ch=1 n=f#4 v=0
239616 On ch=1 n=c#5 v=50
239872 Off ch=1 n=c#6 v=0
239872 Off ch=1 n=f#6 v=0
239872 On ch=1 n=f#5 v=51
239872 Off ch=1 n=c#5 v=0
239872 On ch=1 n=a4 v=54
240128 Off ch=1 n=f#5 v=0
240128 On ch=1 n=f#6 v=57
240128 On ch=1 n=a6 v=73
240128 Off ch=1 n=a4 v=0
240128 On ch=1 n=f#5 v=57
240384 Off ch=1 n=f#6 v=0
240384 Off ch=1 n=a6 v=0
240384 On ch=1 n=a5 v=58
240384 Off ch=1 n=f#5 v=0
240384 On ch=1 n=c#6 v=60
240640 Off ch=1 n=a5 v=0
240640 On ch=1 n=f#6 v=58
240640 On ch=1 n=e7 v=74
240640 Off ch=1 n=c#6 v=0
240640 On ch=1 n=c#6 v=60
240896 Off ch=1 n=f#6 v=0
240896 Off ch=1 n=e7 v=0
240896 On ch=1 n=e6 v=56
240896 Off ch=1 n=c#6 v=0
240896 On ch=1 n=f#5 v=57
241152 Off ch=1 n=e6 v=0
241152 On ch=1 n=f#6 v=54
241152 On ch=1 n=d#7 v=70
241152 Off ch=1 n=f#5 v=0
241152 On ch=1 n=a4 v=54
241408 Off ch=1 n=f#6 v=0
241408 Off ch=1 n=d#7 v=0
241408 On ch=1 n=d#6 v=52
241408 Off ch=1 n=a4 v=0
241408 On ch=1 n=c#5 v=50
241664 Off ch=1 n=d#6 v=0
241664 On ch=1 n=f#6 v=50
241664 On ch=1 n=c#7 v=66
241664 Off ch=1 n=c#5 v=0
241664 On ch=1 n=f#4 v=47
241920 Off ch=1 n=f#6 v=0
241920 Off ch=1 n=c#7 v=0
241920 On ch=1 n=c#6 v=48
241920 Off ch=1 n=f#4 v=0
241920 On ch=1 n=a3 v=44
242176 Par ch=1 c=64 v=127
242176 Par ch=1 c=64 v=0
242176 Par ch=1 c=64 v=0
242176 Off ch=1 n=c#6 v=0
242176 Off ch=1 n=a3 v=0
242176 On ch=1 n=e6 v=46
242176 On ch=1 n=c#7 v=62
242176 On ch=1 n=b3 v=53
242358 Par ch=1 c=64 v=0
242432 Off ch=1 n=e6 v=0
242432 On ch=1 n=c#6 v=44
242432 On ch=1 n=f#4 v=47
242495 Par ch=1 c=64 v=127
242688 Off ch=1 n=c#6 v=0
242688 Off ch=1 n=c#7 v=0
242688 Off ch=1 n=b3 v=0
242688 Off ch=1 n=f#4 v=0
242688 On ch=1 n=a4 v=50
242944 On ch=1 n=c#6 v=44
242944 Off ch=1 n=a4 v=0
242944 On ch=1 n=b4 v=54
243200 Off ch=1 n=c#6 v=0
243200 On ch=1 n=d#6 v=45
243200 Off ch=1 n=b4 v=0
243200 On ch=1 n=f#5 v=57
243456 Off ch=1 n=d#6 v=0
243456 On ch=1 n=c#6 v=45
243456 Off ch=1 n=f#5 v=0
243456 On ch=1 n=a5 v=55
243712 Off ch=1 n=c#6 v=0
243712 On ch=1 n=c#6 v=46
243712 On ch=1 n=f6 v=62
243712 Off ch=1 n=a5 v=0
243712 On ch=1 n=a5 v=55
243968 Off ch=1 n=c#6 v=0
243968 Off ch=1 n=f6 v=0
243968 On ch=1 n=f5 v=47
243968 Off ch=1 n=a5 v=0
243968 On ch=1 n=d#5 v=57
244224 Off ch=1 n=f5 v=0
244224 On ch=1 n=c#6 v=48
244224 On ch=1 n=f#6 v=64
244224 Off ch=1 n=d#5 v=0
244224 On ch=1 n=b4 v=54
244480 Off ch=1 n=c#6 v=0
244480 Off ch=1 n=f#6 v=0
244480 On ch=1 n=f#5 v=48
244480 Off ch=1 n=b4 v=0
244480 On ch=1 n=a4 v=50
244736 Off ch=1 n=f#5 v=0
244736 On ch=1 n=c#6 v=49
244736 On ch=1 n=g6 v=65
244736 Off ch=1 n=a4 v=0
244736 On ch=1 n=d#4 v=47
244992 Off ch=1 n=c#6 v=0
244992 Off ch=1 n=g6 v=0
244992 On ch=1 n=g5 v=50
244992 Off ch=1 n=d#4 v=0
244992 On ch=1 n=b3 v=44
245248 Par ch=1 c=64 v=127
245248 Par ch=1 c=64 v=0
245248 Par ch=1 c=64 v=0
245248 Off ch=1 n=g5 v=0
245248 Off ch=1 n=b3 v=0
245248 On ch=1 n=b5 v=50
245248 On ch=1 n=a6 v=66
245248 On ch=1 n=e3 v=53
245430 Par ch=1 c=64 v=0
245504 Off ch=1 n=b5 v=0
245504 On ch=1 n=a5 v=51
245504 On ch=1 n=b3 v=47
245567 Par ch=1 c=64 v=127
245760 Off ch=1 n=a5 v=0
245760 Off ch=1 n=a6 v=0
245760 Off ch=1 n=e3 v=0
245760 Off ch=1 n=b3 v=0
245760 On ch=1 n=f#4 v=50
246016 On ch=1 n=a5 v=43
246016 Off ch=1 n=f#4 v=0
246016 On ch=1 n=e4 v=54
246272 Off ch=1 n=a5 v=0
246272 On ch=1 n=b5 v=43
246272 On ch=1 n=g#6 v=60
246272 Off ch=1 n=e4 v=0
246272 On ch=1 n=b4 v=57
246528 Off ch=1 n=b5 v=0
246528 Off ch=1 n=g#6 v=0
246528 On ch=1 n=g#5 v=43
246528 Off ch=1 n=b4 v=0
246528 On ch=1 n=g#5 v=55
246784 Off ch=1 n=g#5 v=0
246784 On ch=1 n=b5 v=44
246784 Off ch=1 n=g#5 v=0
246784 On ch=1 n=g#5 v=55
247040 Off ch=1 n=b5 v=0
247040 On ch=1 n=g#5 v=42
247040 Off ch=1 n=g#5 v=0
247040 On ch=1 n=b4 v=57
247296 Off ch=1 n=g#5 v=0
247296 On ch=1 n=b5 v=47
247296 On ch=1 n=f#6 v=62
247296 Off ch=1 n=b4 v=0
247296 On ch=1 n=e4 v=54
247552 Off ch=1 n=b5 v=0
247552 Off ch=1 n=f#6 v=0
247552 On ch=1 n=f#5 v=46
247552 Off ch=1 n=e4 v=0
247552 On ch=1 n=g#4 v=50
247808 Off ch=1 n=f#5 v=0
247808 On ch=1 n=b5 v=45
247808 On ch=1 n=e6 v=59
247808 Off ch=1 n=g#4 v=0
247808 On ch=1 n=b3 v=47
248064 Off ch=1 n=b5 v=0
248064 Off ch=1 n=e6 v=0
248064 On ch=1 n=e5 v=44
248064 Off ch=1 n=b3 v=0
248064 On ch=1 n=e3 v=44
248320 Par ch=1 c=64 v=127
248320 Par ch=1 c=64 v=0
248320 Par ch=1 c=64 v=0
248320 Par ch=1 c=64 v=0
248320 Off ch=1 n=e5 v=0
248320 Off ch=1 n=e3 v=0
248320 On ch=1 n=a5 v=55
248320 On ch=1 n=e6 v=67
248320 On ch=1 n=f#3 v=53
248502 Par ch=1 c=64 v=0
248576 Off ch=1 n=a5 v=0
248576 On ch=1 n=e5 v=50
248576 On ch=1 n=c#4 v=47
248639 Par ch=1 c=64 v=127
248832 Off ch=1 n=e5 v=0
248832 Off ch=1 n=e6 v=0
248832 On ch=1 n=a5 v=67
248832 Off ch=1 n=f#3 v=0
248832 Off ch=1 n=c#4 v=0
248832 On ch=1 n=a4 v=50
249088 Off ch=1 n=a4 v=0
249088 On ch=1 n=f#4 v=54
249344 Off ch=1 n=a5 v=0
249344 Off ch=1 n=f#4 v=0
249344 On ch=1 n=c#5 v=57
249600 Off ch=1 n=c#5 v=0
249600 On ch=1 n=a5 v=60
249856 Off ch=1 n=a5 v=0
249856 On ch=1 n=a5 v=60
250112 Off ch=1 n=a5 v=0
250112 On ch=1 n=c#5 v=57
250368 On ch=1 n=a5 v=50
250368 On ch=1 n=e6 v=66
250368 Off ch=1 n=c#5 v=0
250368 On ch=1 n=f#4 v=54
250624 Off ch=1 n=a5 v=0
250624 Off ch=1 n=e6 v=0
250624 On ch=1 n=e5 v=51
250624 Off ch=1 n=f#4 v=0
250624 On ch=1 n=a4 v=50
250880 Off ch=1 n=e5 v=0
250880 On ch=1 n=a5 v=52
250880 On ch=1 n=c#6 v=68
250880 Off ch=1 n=a4 v=0
250880 On ch=1 n=c#4 v=47
251136 Off ch=1 n=a5 v=0
251136 Off ch=1 n=c#6 v=0
251136 On ch=1 n=c#5 v=53
251136 Off ch=1 n=c#4 v=0
251136 On ch=1 n=f#3 v=44
251392 Par ch=1 c=64 v=127
251392 Par ch=1 c=64 v=0
251392 Par ch=1 c=64 v=0
251392 Par ch=1 c=64 v=0
251392 Par ch=1 c=64 v=0
251392 Off ch=1 n=c#5 v=0
251392 Off ch=1 n=f#3 v=0
251392 On ch=1 n=a5 v=54
251392 On ch=1 n=e6 v=70
251392 On ch=1 n=f#3 v=53
251574 Par ch=1 c=64 v=0
251648 Off ch=1 n=a5 v=0
251648 On ch=1 n=e5 v=54
251648 On ch=1 n=d4 v=47
251711 Par ch=1 c=64 v=127
251904 Off ch=1 n=e5 v=0
251904 Off ch=1 n=e6 v=0
251904 On ch=1 n=a5 v=50
251904 On ch=1 n=d6 v=66
251904 Off ch=1 n=f#3 v=0
251904 Off ch=1 n=d4 v=0
251904 On ch=1 n=a4 v=50
252160 Off ch=1 n=a5 v=0
252160 Off ch=1 n=d6 v=0
252160 On ch=1 n=d5 v=51
252160 Off ch=1 n=a4 v=0
252160 On ch=1 n=f#4 v=54
252416 Off ch=1 n=d5 v=0
252416 On ch=1 n=d6 v=57
252416 On ch=1 n=f#6 v=73
252416 Off ch=1 n=f#4 v=0
252416 On ch=1 n=d5 v=57
252672 Off ch=1 n=d6 v=0
252672 Off ch=1 n=f#6 v=0
252672 On ch=1 n=f#5 v=58
252672 Off ch=1 n=d5 v=0
252672 On ch=1 n=a5 v=60
252928 Off ch=1 n=f#5 v=0
252928 On ch=1 n=d6 v=58
252928 On ch=1 n=c#7 v=74
252928 Off ch=1 n=a5 v=0
252928 On ch=1 n=a5 v=60
253184 Off ch=1 n=d6 v=0
253184 Off ch=1 n=c#7 v=0
253184 On ch=1 n=c#6 v=56
253184 Off ch=1 n=a5 v=0
253184 On ch=1 n=d5 v=57
253440 Off ch=1 n=c#6 v=0
253440 On ch=1 n=d6 v=54
253440 On ch=1 n=b6 v=70
253440 Off ch=1 n=d5 v=0
253440 On ch=1 n=f#4 v=54
253696 Off ch=1 n=d6 v=0
253696 Off ch=1 n=b6 v=0
253696 On ch=1 n=b5 v=52
253696 Off ch=1 n=f#4 v=0
253696 On ch=1 n=a4 v=50
253952 Off ch=1 n=b5 v=0
253952 On ch=1 n=c#6 v=50
253952 On ch=1 n=a6 v=66
253952 Off ch=1 n=a4 v=0
253952 On ch=1 n=d4 v=47
254208 Off ch=1 n=c#6 v=0
254208 Off ch=1 n=a6 v=0
254208 On ch=1 n=a5 v=48
254208 Off ch=1 n=d4 v=0
254208 On ch=1 n=f#3 v=44
254464 Par ch=1 c=64 v=127
254464 Par ch=1 c=64 v=0
254464 Par ch=1 c=64 v=0
254464 Par ch=1 c=64 v=0
254464 Par ch=1 c=64 v=0
254464 Off ch=1 n=a5 v=0
254464 Off ch=1 n=f#3 v=0
254464 On ch=1 n=c#6 v=46
254464 On ch=1 n=a6 v=62
254464 On ch=1 n=g#3 v=53
254646 Par ch=1 c=64 v=0
254720 Off ch=1 n=c#6 v=0
254720 On ch=1 n=a5 v=44
254720 On ch=1 n=d#4 v=47
254783 Par ch=1 c=64 v=127
254976 Off ch=1 n=a5 v=0
254976 Off ch=1 n=a6 v=0
254976 Off ch=1 n=g#3 v=0
254976 Off ch=1 n=d#4 v=0
254976 On ch=1 n=f#4 v=50
255232 On ch=1 n=a5 v=44
255232 Off ch=1 n=f#4 v=0
255232 On ch=1 n=g#4 v=54
255488 Off ch=1 n=a5 v=0
255488 On ch=1 n=c6 v=45
255488 Off ch=1 n=g#4 v=0
255488 On ch=1 n=d#5 v=57
255744 Off ch=1 n=c6 v=0
255744 On ch=1 n=a5 v=45
255744 Off ch=1 n=d#5 v=0
255744 On ch=1 n=f#5 v=55
256000 Off ch=1 n=a5 v=0
256000 On ch=1 n=c6 v=46
256000 On ch=1 n=d6 v=62
256000 Off ch=1 n=f#5 v=0
256000 On ch=1 n=f#5 v=55
256256 Off ch=1 n=c6 v=0
256256 Off ch=1 n=d6 v=0
256256 On ch=1 n=d5 v=47
256256 Off ch=1 n=f#5 v=0
256256 On ch=1 n=c5 v=57
256512 Off ch=1 n=d5 v=0
256512 Off ch=1 n=c5 v=0
256512 On ch=1 n=g#4 v=54
256768 Off ch=1 n=g#4 v=0
256768 On ch=1 n=f#4 v=50
257024 On ch=1 n=c6 v=49
257024 On ch=1 n=d#6 v=65
257024 Off ch=1 n=f#4 v=0
257024 On ch=1 n=c4 v=47
257280 Off ch=1 n=c6 v=0
257280 Off ch=1 n=d#6 v=0
257280 On ch=1 n=d#5 v=50
257280 Off ch=1 n=c4 v=0
257280 On ch=1 n=g#3 v=44
257536 Par ch=1 c=64 v=127
257536 Par ch=1 c=64 v=0
257536 Par ch=1 c=64 v=0
257536 Par ch=1 c=64 v=0
257536 Par ch=1 c=64 v=0
257536 Off ch=1 n=d#5 v=0
257536 Off ch=1 n=g#3 v=0
257536 On ch=1 n=c6 v=50
257536 On ch=1 n=f#6 v=66
257536 On ch=1 n=c#3 v=53
257718 Par ch=1 c=64 v=0
257792 Off ch=1 n=c6 v=0
257792 On ch=1 n=f#5 v=51
257792 On ch=1 n=a3 v=47
257855 Par ch=1 c=64 v=127
258048 Off ch=1 n=f#5 v=0
258048 Off ch=1 n=f#6 v=0
258048 Off ch=1 n=c#3 v=0
258048 Off ch=1 n=a3 v=0
258048 On ch=1 n=d#4 v=50
258304 On ch=1 n=f#5 v=43
258304 Off ch=1 n=d#4 v=0
258304 On ch=1 n=c#4 v=54
258560 Off ch=1 n=f#5 v=0
258560 On ch=1 n=c6 v=43
258560 Off ch=1 n=c#4 v=0
258560 On ch=1 n=a4 v=57
258816 Off ch=1 n=c6 v=0
258816 On ch=1 n=f#5 v=43
258816 Off ch=1 n=a4 v=0
258816 On ch=1 n=d#5 v=55
259072 Off ch=1 n=f#5 v=0
259072 On ch=1 n=c#6 v=44
259072 On ch=1 n=e6 v=60
259072 Off ch=1 n=d#5 v=0
259072 On ch=1 n=e5 v=55
259328 Off ch=1 n=c#6 v=0
259328 Off ch=1 n=e6 v=0
259328 On ch=1 n=e5 v=42
259328 Off ch=1 n=e5 v=0
259328 On ch=1 n=g#4 v=57
259584 Off ch=1 n=e5 v=0
259584 Off ch=1 n=g#4 v=0
259584 On ch=1 n=c#4 v=54
259840 Off ch=1 n=c#4 v=0
259840 On ch=1 n=g#3 v=50
260096 On ch=1 n=c#6 v=45
260096 On ch=1 n=g#6 v=59
260096 Off ch=1 n=g#3 v=0
260096 On ch=1 n=e4 v=47
260352 Off ch=1 n=c#6 v=0
260352 Off ch=1 n=g#6 v=0
260352 On ch=1 n=g#5 v=44
260352 Off ch=1 n=e4 v=0
260352 On ch=1 n=c#5 v=44
260608 Par ch=1 c=64 v=127
260608 Par ch=1 c=64 v=0
260608 Par ch=1 c=64 v=0
260608 Par ch=1 c=64 v=0
260608 Off ch=1 n=g#5 v=0
260608 Off ch=1 n=c#5 v=0
260608 On ch=1 n=c#6 v=55
260608 On ch=1 n=g#6 v=67
260608 On ch=1 n=a3 v=53
260790 Par ch=1 c=64 v=0
260864 Off ch=1 n=c#6 v=0
260864 On ch=1 n=g#5 v=50
260864 On ch=1 n=f4 v=47
260927 Par ch=1 c=64 v=127
261120 Off ch=1 n=g#5 v=0
261120 Off ch=1 n=g#6 v=0
261120 On ch=1 n=c#6 v=67
261120 Off ch=1 n=a3 v=0
261120 Off ch=1 n=f4 v=0
261120 On ch=1 n=c#5 v=50
261376 Off ch=1 n=c#5 v=0
261376 On ch=1 n=a4 v=54
261632 Off ch=1 n=c#6 v=0
261632 Off ch=1 n=a4 v=0
261632 On ch=1 n=f5 v=57
261888 Off ch=1 n=f5 v=0
261888 On ch=1 n=c#6 v=60
262144 Off ch=1 n=c#6 v=0
262144 On ch=1 n=c#6 v=60
262400 Off ch=1 n=c#6 v=0
262400 On ch=1 n=f5 v=57
262656 On ch=1 n=c#6 v=50
262656 On ch=1 n=g#6 v=66
262656 Off ch=1 n=f5 v=0
262656 On ch=1 n=a4 v=54
262912 Off ch=1 n=c#6 v=0
262912 Off ch=1 n=g#6 v=0
262912 On ch=1 n=g#5 v=63
262912 Off ch=1 n=a4 v=0
262912 On ch=1 n=c#5 v=50
263168 Off ch=1 n=g#5 v=0
263168 On ch=1 n=f5 v=64
263168 Off ch=1 n=c#5 v=0
263168 On ch=1 n=f4 v=47
263424 Off ch=1 n=f5 v=0
263424 On ch=1 n=c#6 v=53
263424 On ch=1 n=f6 v=69
263424 Off ch=1 n=f4 v=0
263424 On ch=1 n=a3 v=44
263680 Par ch=1 c=64 v=127
263680 Par ch=1 c=64 v=0
263680 Par ch=1 c=64 v=0
263680 Par ch=1 c=64 v=0
263680 Par ch=1 c=64 v=0
263680 Off ch=1 n=c#6 v=0
263680 Off ch=1 n=f6 v=0
263680 Off ch=1 n=a3 v=0
263680 On ch=1 n=c#6 v=54
263680 On ch=1 n=g#6 v=70
263680 On ch=1 n=a3 v=53
263862 Par ch=1 c=64 v=0
263936 Off ch=1 n=c#6 v=0
263936 On ch=1 n=g#5 v=66
263936 On ch=1 n=f#4 v=47
263999 Par ch=1 c=64 v=127
264192 Off ch=1 n=g#5 v=0
264192 Off ch=1 n=g#6 v=0
264192 On ch=1 n=f#5 v=62
264192 Off ch=1 n=a3 v=0
264192 Off ch=1 n=f#4 v=0
264192 On ch=1 n=c#5 v=50
264448 Off ch=1 n=f#5 v=0
264448 On ch=1 n=c#6 v=51
264448 On ch=1 n=f#6 v=67
264448 Off ch=1 n=c#5 v=0
264448 On ch=1 n=a4 v=54
264704 Off ch=1 n=c#6 v=0
264704 Off ch=1 n=f#6 v=0
264704 On ch=1 n=f#6 v=57
264704 On ch=1 n=a6 v=73
264704 Off ch=1 n=a4 v=0
264704 On ch=1 n=f#5 v=57
264960 Off ch=1 n=f#6 v=0
264960 Off ch=1 n=a6 v=0
264960 On ch=1 n=a5 v=70
264960 Off ch=1 n=f#5 v=0
264960 On ch=1 n=c#6 v=60
265216 Off ch=1 n=a5 v=0
265216 On ch=1 n=e6 v=70
265216 Off ch=1 n=c#6 v=0
265216 On ch=1 n=c#6 v=60
265472 Off ch=1 n=e6 v=0
265472 On ch=1 n=f#6 v=60
265472 On ch=1 n=e7 v=76
265472 Off ch=1 n=c#6 v=0
265472 On ch=1 n=f#5 v=57
265728 Off ch=1 n=f#6 v=0
265728 Off ch=1 n=e7 v=0
265728 On ch=1 n=f#6 v=58
265728 On ch=1 n=d#7 v=74
265728 Off ch=1 n=f#5 v=0
265728 On ch=1 n=a4 v=54
265984 Off ch=1 n=f#6 v=0
265984 Off ch=1 n=d#7 v=0
265984 On ch=1 n=d#6 v=68
265984 Off ch=1 n=a4 v=0
265984 On ch=1 n=c#5 v=50
266240 Off ch=1 n=d#6 v=0
266240 On ch=1 n=c#6 v=66
266240 Off ch=1 n=c#5 v=0
266240 On ch=1 n=f#4 v=47
266496 Off ch=1 n=c#6 v=0
266496 On ch=1 n=f#6 v=52
266496 On ch=1 n=c#7 v=68
266496 Off ch=1 n=f#4 v=0
266496 On ch=1 n=a3 v=44
266752 Par ch=1 c=64 v=127
266752 Par ch=1 c=64 v=0
266752 Par ch=1 c=64 v=0
266752 Par ch=1 c=64 v=0
266752 Par ch=1 c=64 v=0
266752 Off ch=1 n=f#6 v=0
266752 Off ch=1 n=c#7 v=0
266752 Off ch=1 n=a3 v=0
266752 On ch=1 n=e6 v=50
266752 On ch=1 n=c#7 v=66
266752 On ch=1 n=b3 v=53
266934 Par ch=1 c=64 v=0
267008 Off ch=1 n=e6 v=0
267008 On ch=1 n=c#6 v=44
267008 On ch=1 n=f#4 v=47
267071 Par ch=1 c=64 v=127
267264 Off ch=1 n=c#6 v=0
267264 Off ch=1 n=c#7 v=0
267264 Off ch=1 n=b3 v=0
267264 Off ch=1 n=f#4 v=0
267264 On ch=1 n=a4 v=50
267520 On ch=1 n=c#6 v=44
267520 Off ch=1 n=a4 v=0
267520 On ch=1 n=b4 v=54
267776 Off ch=1 n=c#6 v=0
267776 On ch=1 n=d#6 v=51
267776 Off ch=1 n=b4 v=0
267776 On ch=1 n=f#5 v=57
268032 Off ch=1 n=d#6 v=0
268032 On ch=1 n=c#6 v=45
268032 Off ch=1 n=f#5 v=0
268032 On ch=1 n=a5 v=55
268288 Off ch=1 n=c#6 v=0
268288 On ch=1 n=c#6 v=49
268288 On ch=1 n=f6 v=65
268288 Off ch=1 n=a5 v=0
268288 On ch=1 n=a5 v=55
268544 Off ch=1 n=c#6 v=0
268544 Off ch=1 n=f6 v=0
268544 On ch=1 n=f5 v=62
268544 Off ch=1 n=a5 v=0
268544 On ch=1 n=d#5 v=57
268800 Off ch=1 n=f5 v=0
268800 On ch=1 n=f#5 v=63
268800 Off ch=1 n=d#5 v=0
268800 On ch=1 n=b4 v=54
269056 Off ch=1 n=f#5 v=0
269056 On ch=1 n=f#6 v=63
269056 Off ch=1 n=b4 v=0
269056 On ch=1 n=a4 v=50
269312 Off ch=1 n=f#6 v=0
269312 On ch=1 n=b5 v=52
269312 On ch=1 n=g6 v=68
269312 Off ch=1 n=a4 v=0
269312 On ch=1 n=d#4 v=47
269568 Off ch=1 n=b5 v=0
269568 Off ch=1 n=g6 v=0
269568 On ch=1 n=g5 v=65
269568 Off ch=1 n=d#4 v=0
269568 On ch=1 n=b3 v=44
269824 Par ch=1 c=64 v=127
269824 Par ch=1 c=64 v=0
269824 Par ch=1 c=64 v=0
269824 Par ch=1 c=64 v=0
269824 Par ch=1 c=64 v=0
269824 Off ch=1 n=g5 v=0
269824 Off ch=1 n=b3 v=0
269824 On ch=1 n=b5 v=53
269824 On ch=1 n=a6 v=69
269824 On ch=1 n=e3 v=53
270006 Par ch=1 c=64 v=0
270080 Off ch=1 n=b5 v=0
270080 On ch=1 n=a5 v=54
270080 On ch=1 n=b3 v=47
270143 Par ch=1 c=64 v=127
270336 Off ch=1 n=a5 v=0
270336 Off ch=1 n=a6 v=0
270336 Off ch=1 n=e3 v=0
270336 Off ch=1 n=b3 v=0
270336 On ch=1 n=f#4 v=50
270592 On ch=1 n=a5 v=43
270592 Off ch=1 n=f#4 v=0
270592 On ch=1 n=e4 v=54
270848 Off ch=1 n=a5 v=0
270848 On ch=1 n=b5 v=43
270848 On ch=1 n=g#6 v=60
270848 Off ch=1 n=e4 v=0
270848 On ch=1 n=b4 v=57
271104 Off ch=1 n=b5 v=0
271104 Off ch=1 n=g#6 v=0
271104 On ch=1 n=g#5 v=55
271104 Off ch=1 n=b4 v=0
271104 On ch=1 n=g#5 v=55
271360 Off ch=1 n=g#5 v=0
271360 On ch=1 n=b5 v=56
271360 Off ch=1 n=g#5 v=0
271360 On ch=1 n=g#5 v=55
271616 Off ch=1 n=b5 v=0
271616 On ch=1 n=g#5 v=54
271616 Off ch=1 n=g#5 v=0
271616 On ch=1 n=b4 v=57
271872 Off ch=1 n=g#5 v=0
271872 On ch=1 n=f#5 v=59
271872 Off ch=1 n=b4 v=0
271872 On ch=1 n=e4 v=54
272128 Off ch=1 n=f#5 v=0
272128 On ch=1 n=b5 v=46
272128 On ch=1 n=f#6 v=62
272128 Off ch=1 n=e4 v=0
272128 On ch=1 n=g#4 v=50
272384 Off ch=1 n=b5 v=0
272384 Off ch=1 n=f#6 v=0
272384 On ch=1 n=b5 v=45
272384 On ch=1 n=e6 v=59
272384 Off ch=1 n=g#4 v=0
272384 On ch=1 n=b3 v=47
272640 Off ch=1 n=b5 v=0
272640 Off ch=1 n=e6 v=0
272640 On ch=1 n=e5 v=56
272640 Off ch=1 n=b3 v=0
272640 On ch=1 n=e3 v=44
272896 Par ch=1 c=64 v=127
272896 Par ch=1 c=64 v=0
272896 Par ch=1 c=64 v=0
272896 Par ch=1 c=64 v=0
272896 Par ch=1 c=64 v=0
272896 Par ch=1 c=64 v=0
272896 Off ch=1 n=e5 v=0
272896 Off ch=1 n=e3 v=0
272896 On ch=1 n=a5 v=55
272896 On ch=1 n=e6 v=67
272896 On ch=1 n=f#3 v=53
273078 Par ch=1 c=64 v=0
273152 Off ch=1 n=a5 v=0
273152 On ch=1 n=e5 v=50
273152 On ch=1 n=c#4 v=47
273215 Par ch=1 c=64 v=127
273408 Off ch=1 n=e5 v=0
273408 Off ch=1 n=e6 v=0
273408 On ch=1 n=a5 v=67
273408 Off ch=1 n=f#3 v=0
273408 Off ch=1 n=c#4 v=0
273408 On ch=1 n=a4 v=50
273664 Off ch=1 n=a4 v=0
273664 On ch=1 n=f#4 v=54
273920 Off ch=1 n=a5 v=0
273920 Off ch=1 n=f#4 v=0
273920 On ch=1 n=c#5 v=57
274176 Off ch=1 n=c#5 v=0
274176 On ch=1 n=a5 v=60
274432 Off ch=1 n=a5 v=0
274432 On ch=1 n=a5 v=60
274688 Off ch=1 n=a5 v=0
274688 On ch=1 n=c#5 v=57
274944 On ch=1 n=a5 v=50
274944 On ch=1 n=e6 v=66
274944 Off ch=1 n=c#5 v=0
274944 On ch=1 n=f#4 v=54
275200 Off ch=1 n=a5 v=0
275200 Off ch=1 n=e6 v=0
275200 On ch=1 n=e5 v=63
275200 Off ch=1 n=f#4 v=0
275200 On ch=1 n=a4 v=50
275456 Off ch=1 n=e5 v=0
275456 On ch=1 n=c#5 v=64
275456 Off ch=1 n=a4 v=0
275456 On ch=1 n=c#4 v=47
275712 Off ch=1 n=c#5 v=0
275712 On ch=1 n=a5 v=53
275712 On ch=1 n=c#6 v=69
275712 Off ch=1 n=c#4 v=0
275712 On ch=1 n=f#3 v=44
275968 Par ch=1 c=64 v=127
275968 Par ch=1 c=64 v=0
275968 Par ch=1 c=64 v=0
275968 Par ch=1 c=64 v=0
275968 Par ch=1 c=64 v=0
275968 Par ch=1 c=64 v=0
275968 Par ch=1 c=64 v=0
275968 Off ch=1 n=a5 v=0
275968 Off ch=1 n=c#6 v=0
275968 Off ch=1 n=f#3 v=0
275968 On ch=1 n=a5 v=54
275968 On ch=1 n=e6 v=70
275968 On ch=1 n=f#3 v=53
276150 Par ch=1 c=64 v=0
276224 Off ch=1 n=a5 v=0
276224 Off ch=1 n=e6 v=0
276224 On ch=1 n=e5 v=66
276224 On ch=1 n=d4 v=47
276287 Par ch=1 c=64 v=127
276480 Off ch=1 n=e5 v=0
276480 On ch=1 n=d5 v=62
276480 Off ch=1 n=f#3 v=0
276480 Off ch=1 n=d4 v=0
276480 On ch=1 n=a4 v=50
276736 Off ch=1 n=d5 v=0
276736 On ch=1 n=a5 v=51
276736 On ch=1 n=d6 v=67
276736 Off ch=1 n=a4 v=0
276736 On ch=1 n=f#4 v=54
276992 Off ch=1 n=a5 v=0
276992 Off ch=1 n=d6 v=0
276992 On ch=1 n=d6 v=57
276992 On ch=1 n=f#6 v=73
276992 Off ch=1 n=f#4 v=0
276992 On ch=1 n=d5 v=57
277248 Off ch=1 n=d6 v=0
277248 Off ch=1 n=f#6 v=0
277248 On ch=1 n=f#5 v=70
277248 Off ch=1 n=d5 v=0
277248 On ch=1 n=a5 v=60
277504 Off ch=1 n=f#5 v=0
277504 On ch=1 n=c#6 v=70
277504 Off ch=1 n=a5 v=0
277504 On ch=1 n=a5 v=60
277760 Off ch=1 n=c#6 v=0
277760 On ch=1 n=d6 v=60
277760 On ch=1 n=c#7 v=76
277760 Off ch=1 n=a5 v=0
277760 On ch=1 n=d5 v=57
278016 Off ch=1 n=d6 v=0
278016 Off ch=1 n=c#7 v=0
278016 On ch=1 n=d6 v=58
278016 On ch=1 n=b6 v=74
278016 Off ch=1 n=d5 v=0
278016 On ch=1 n=f#4 v=54
278272 Off ch=1 n=d6 v=0
278272 Off ch=1 n=b6 v=0
278272 On ch=1 n=b5 v=68
278272 Off ch=1 n=f#4 v=0
278272 On ch=1 n=a4 v=50
278528 Off ch=1 n=b5 v=0
278528 On ch=1 n=a5 v=66
278528 Off ch=1 n=a4 v=0
278528 On ch=1 n=d4 v=47
278784 Off ch=1 n=a5 v=0
278784 On ch=1 n=d6 v=47
278784 On ch=1 n=a6 v=63
278784 Off ch=1 n=d4 v=0
278784 On ch=1 n=f#3 v=44
279040 Par ch=1 c=64 v=127
279040 Par ch=1 c=64 v=0
279040 Par ch=1 c=64 v=0
279040 Par ch=1 c=64 v=0
279040 Par ch=1 c=64 v=0
279040 Par ch=1 c=64 v=0
279040 Par ch=1 c=64 v=0
279040 Off ch=1 n=d6 v=0
279040 Off ch=1 n=a6 v=0
279040 Off ch=1 n=f#3 v=0
279040 On ch=1 n=c#6 v=54
279040 On ch=1 n=a6 v=70
279040 On ch=1 n=g#3 v=53
279222 Par ch=1 c=64 v=0
279296 Off ch=1 n=c#6 v=0
279296 On ch=1 n=a5 v=48
279296 On ch=1 n=d#4 v=47
279359 Par ch=1 c=64 v=127
279552 Off ch=1 n=a5 v=0
279552 Off ch=1 n=a6 v=0
279552 Off ch=1 n=g#3 v=0
279552 Off ch=1 n=d#4 v=0
279552 On ch=1 n=f#4 v=50
279808 On ch=1 n=a5 v=44
279808 Off ch=1 n=f#4 v=0
279808 On ch=1 n=g#4 v=54
280064 Off ch=1 n=a5 v=0
280064 On ch=1 n=c6 v=51
280064 Off ch=1 n=g#4 v=0
280064 On ch=1 n=d#5 v=57
280320 Off ch=1 n=c6 v=0
280320 On ch=1 n=a5 v=45
280320 Off ch=1 n=d#5 v=0
280320 On ch=1 n=f#5 v=55
280576 Off ch=1 n=a5 v=0
280576 On ch=1 n=g#5 v=49
280576 On ch=1 n=e6 v=65
280576 Off ch=1 n=f#5 v=0
280576 On ch=1 n=f#5 v=55
280832 Off ch=1 n=g#5 v=0
280832 Off ch=1 n=e6 v=0
280832 On ch=1 n=e5 v=62
280832 Off ch=1 n=f#5 v=0
280832 On ch=1 n=c5 v=57
281088 Off ch=1 n=e5 v=0
281088 Off ch=1 n=c5 v=0
281088 On ch=1 n=g#4 v=54
281344 On ch=1 n=e5 v=63
281344 Off ch=1 n=g#4 v=0
281344 On ch=1 n=f#4 v=50
281600 Off ch=1 n=e5 v=0
281600 On ch=1 n=g#5 v=52
281600 On ch=1 n=d#6 v=68
281600 Off ch=1 n=f#4 v=0
281600 On ch=1 n=c4 v=47
281856 Off ch=1 n=g#5 v=0
281856 Off ch=1 n=d#6 v=0
281856 On ch=1 n=d#5 v=65
281856 Off ch=1 n=c4 v=0
281856 On ch=1 n=g#3 v=44
282112 Par ch=1 c=64 v=127
282112 Par ch=1 c=64 v=0
282112 Par ch=1 c=64 v=0
282112 Par ch=1 c=64 v=0
282112 Par ch=1 c=64 v=0
282112 Par ch=1 c=64 v=0
282112 Par ch=1 c=64 v=0
282112 Off ch=1 n=d#5 v=0
282112 Off ch=1 n=g#3 v=0
282112 On ch=1 n=g#5 v=53
282112 On ch=1 n=d#6 v=69
282112 On ch=1 n=c#3 v=53
282294 Par ch=1 c=64 v=0
282368 Off ch=1 n=g#5 v=0
282368 On ch=1 n=d#5 v=54
282368 Off ch=1 n=c#3 v=0
282368 On ch=1 n=g#3 v=47
282431 Par ch=1 c=64 v=127
282624 Off ch=1 n=d#5 v=0
282624 Off ch=1 n=d#6 v=0
282624 Off ch=1 n=g#3 v=0
282624 On ch=1 n=e4 v=50
282880 Off ch=1 n=e4 v=0
282880 On ch=1 n=c#4 v=54
283136 Off ch=1 n=c#4 v=0
283136 On ch=1 n=g#4 v=57
283392 Off ch=1 n=g#4 v=0
283392 On ch=1 n=e5 v=55
283648 Off ch=1 n=e5 v=0
283648 On ch=1 n=e5 v=55
283904 Off ch=1 n=e5 v=0
283904 On ch=1 n=g#4 v=57
284160 Off ch=1 n=g#4 v=0
284160 On ch=1 n=c#4 v=54
284416 Off ch=1 n=c#4 v=0
284416 On ch=1 n=e4 v=50
284672 On ch=1 n=c#5 v=45
284672 On ch=1 n=e5 v=59
284672 On ch=1 n=c#6 v=76
284672 Off ch=1 n=e4 v=0
284672 On ch=1 n=g#3 v=47
284928 Off ch=1 n=c#6 v=0
284928 On ch=1 n=g#5 v=55
284928 Off ch=1 n=g#3 v=0
284928 On ch=1 n=c#3 v=44
285184 Par ch=1 c=64 v=127
285184 Par ch=1 c=64 v=0
285184 Par ch=1 c=64 v=0
285184 Par ch=1 c=64 v=0
285184 Par ch=1 c=64 v=0
285184 Par ch=1 c=64 v=0
285184 Off ch=1 n=c#5 v=0
285184 Off ch=1 n=e5 v=0
285184 Off ch=1 n=g#5 v=0
285184 Off ch=1 n=c#3 v=0
285184 On ch=1 n=b4 v=46
285184 On ch=1 n=d#5 v=46
285184 On ch=1 n=b5 v=71
285184 On ch=1 n=a3 v=58
285184 On ch=1 n=d#4 v=58
285184 On ch=1 n=f#4 v=70
285337 Par ch=1 c=64 v=0
285440 On ch=1 n=f#5 v=66
285598 Par ch=1 c=64 v=127
285696 Off ch=1 n=b4 v=0
285696 Off ch=1 n=d#5 v=0
285696 Off ch=1 n=f#5 v=0
285696 Off ch=1 n=b5 v=0
285696 On ch=1 n=f#5 v=66
285696 On ch=1 n=b4 v=46
285696 On ch=1 n=d#5 v=46
285952 Off ch=1 n=f#5 v=0
285952 On ch=1 n=b5 v=69
286208 Off ch=1 n=b5 v=0
286208 On ch=1 n=b5 v=72
286208 Off ch=1 n=b4 v=0
286208 Off ch=1 n=d#5 v=0
286208 On ch=1 n=b4 v=47
286208 On ch=1 n=d#5 v=47
286208 Off ch=1 n=a3 v=0
286208 Off ch=1 n=d#4 v=0
286208 Off ch=1 n=f#4 v=0
286208 On ch=1 n=c#2 v=55
286208 On ch=1 n=c#3 v=55
286464 Off ch=1 n=b5 v=0
286464 On ch=1 n=f#5 v=67
286720 Off ch=1 n=f#5 v=0
286720 On ch=1 n=f#5 v=67
286720 Off ch=1 n=b4 v=0
286720 Off ch=1 n=d#5 v=0
286720 On ch=1 n=b4 v=47
286720 On ch=1 n=d#5 v=47
286720 Off ch=1 n=c#2 v=0
286720 Off ch=1 n=c#3 v=0
286720 On ch=1 n=a2 v=58
286720 On ch=1 n=a3 v=58
286731 Par ch=1 c=64 v=0
286949 Par ch=1 c=64 v=127
286976 Off ch=1 n=f#5 v=0
286976 On ch=1 n=b5 v=69
287232 Off ch=1 n=b5 v=0
287232 On ch=1 n=b5 v=73
287232 Off ch=1 n=b4 v=0
287232 Off ch=1 n=d#5 v=0
287232 On ch=1 n=b4 v=47
287232 On ch=1 n=d#5 v=47
287488 Off ch=1 n=b5 v=0
287488 On ch=1 n=f#5 v=67
287744 Off ch=1 n=f#5 v=0
287744 On ch=1 n=f#6 v=80
287744 Off ch=1 n=b4 v=0
287744 Off ch=1 n=d#5 v=0
287744 On ch=1 n=d#5 v=54
288000 Off ch=1 n=f#6 v=0
288000 On ch=1 n=b5 v=68
288256 Par ch=1 c=64 v=127
288256 Par ch=1 c=64 v=0
288256 Par ch=1 c=64 v=0
288256 Par ch=1 c=64 v=0
288256 Par ch=1 c=64 v=0
288256 Par ch=1 c=64 v=0
288256 Par ch=1 c=64 v=0
288256 Par ch=1 c=64 v=0
288256 Off ch=1 n=b5 v=0
288256 Off ch=1 n=d#5 v=0
288256 Off ch=1 n=a2 v=0
288256 Off ch=1 n=a3 v=0
288256 On ch=1 n=b4 v=48
288256 On ch=1 n=d#5 v=48
288256 On ch=1 n=b5 v=73
288256 On ch=1 n=a3 v=59
288256 On ch=1 n=d#4 v=59
288256 On ch=1 n=f#4 v=72
288409 Par ch=1 c=64 v=0
288512 On ch=1 n=f#5 v=68
288670 Par ch=1 c=64 v=127
288768 Off ch=1 n=b4 v=0
288768 Off ch=1 n=d#5 v=0
288768 Off ch=1 n=f#5 v=0
288768 Off ch=1 n=b5 v=0
288768 On ch=1 n=f#5 v=68
288768 On ch=1 n=b4 v=48
288768 On ch=1 n=d#5 v=48
289024 Off ch=1 n=f#5 v=0
289024 On ch=1 n=b5 v=70
289024 Off ch=1 n=a3 v=0
289024 Off ch=1 n=d#4 v=0
289024 Off ch=1 n=f#4 v=0
289024 On ch=1 n=c#2 v=51
289024 On ch=1 n=c#3 v=64
289280 Off ch=1 n=b5 v=0
289280 On ch=1 n=b5 v=73
289280 Off ch=1 n=b4 v=0
289280 Off ch=1 n=d#5 v=0
289280 On ch=1 n=b4 v=48
289280 On ch=1 n=d#5 v=48
289536 Off ch=1 n=b5 v=0
289536 On ch=1 n=f#5 v=69
289792 Off ch=1 n=f#5 v=0
289792 On ch=1 n=c6 v=69
289792 Off ch=1 n=b4 v=0
289792 Off ch=1 n=d#5 v=0
289792 On ch=1 n=c5 v=48
289792 On ch=1 n=d#5 v=48
289792 Off ch=1 n=c#2 v=0
289792 Off ch=1 n=c#3 v=0
289792 On ch=1 n=g#3 v=60
289792 On ch=1 n=d#4 v=60
289792 On ch=1 n=f#4 v=73
289803 Par ch=1 c=64 v=0
290021 Par ch=1 c=64 v=127
290048 Off ch=1 n=c6 v=0
290048 On ch=1 n=f#5 v=71
290304 Off ch=1 n=f#5 v=0
290304 On ch=1 n=f#5 v=74
290304 Off ch=1 n=c5 v=0
290304 Off ch=1 n=d#5 v=0
290304 On ch=1 n=c5 v=48
290304 On ch=1 n=d#5 v=48
290560 Off ch=1 n=f#5 v=0
290560 On ch=1 n=c6 v=69
290560 Off ch=1 n=g#3 v=0
290560 Off ch=1 n=d#4 v=0
290560 Off ch=1 n=f#4 v=0
290560 On ch=1 n=c#2 v=51
290560 On ch=1 n=c#3 v=64
290816 Off ch=1 n=c6 v=0
290816 On ch=1 n=c6 v=74
290816 Off ch=1 n=c5 v=0
290816 Off ch=1 n=d#5 v=0
290816 On ch=1 n=c5 v=41
290816 On ch=1 n=d#5 v=41
291072 Off ch=1 n=c6 v=0
291072 On ch=1 n=f#5 v=62
291328 Par ch=1 c=64 v=127
291328 Par ch=1 c=64 v=0
291328 Par ch=1 c=64 v=0
291328 Par ch=1 c=64 v=0
291328 Par ch=1 c=64 v=0
291328 Par ch=1 c=64 v=0
291328 Par ch=1 c=64 v=0
291328 Off ch=1 n=f#5 v=0
291328 Off ch=1 n=c5 v=0
291328 Off ch=1 n=d#5 v=0
291328 Off ch=1 n=c#2 v=0
291328 Off ch=1 n=c#3 v=0
291328 On ch=1 n=d#5 v=53
291328 On ch=1 n=d#6 v=77
291328 On ch=1 n=g#3 v=64
291328 On ch=1 n=e4 v=76
291481 Par ch=1 c=64 v=0
291584 On ch=1 n=e5 v=72
291742 Par ch=1 c=64 v=127
291840 Off ch=1 n=d#5 v=0
291840 Off ch=1 n=e5 v=0
291840 Off ch=1 n=d#6 v=0
291840 On ch=1 n=e5 v=72
291840 On ch=1 n=d#5 v=53
292096 Off ch=1 n=e5 v=0
292096 On ch=1 n=d#6 v=65
292352 Off ch=1 n=d#6 v=0
292352 On ch=1 n=d#6 v=68
292352 Off ch=1 n=d#5 v=0
292352 On ch=1 n=d#5 v=44
292352 Off ch=1 n=g#3 v=0
292352 Off ch=1 n=e4 v=0
292352 On ch=1 n=c#2 v=64
292352 On ch=1 n=c#3 v=76
292608 Off ch=1 n=d#6 v=0
292608 On ch=1 n=g#5 v=63
292864 Off ch=1 n=g#5 v=0
292864 On ch=1 n=e5 v=54
292864 On ch=1 n=g#5 v=71
292864 Off ch=1 n=d#5 v=0
292864 Off ch=1 n=c#2 v=0
292864 Off ch=1 n=c#3 v=0
292864 On ch=1 n=g#2 v=64
292864 On ch=1 n=g#3 v=76
292875 Par ch=1 c=64 v=0
293093 Par ch=1 c=64 v=127
293120 Off ch=1 n=e5 v=0
293120 Off ch=1 n=g#5 v=0
293120 On ch=1 n=g#4 v=59
293376 Off ch=1 n=g#4 v=0
293376 On ch=1 n=e5 v=55
293376 On ch=1 n=a#5 v=74
293632 Off ch=1 n=e5 v=0
293632 Off ch=1 n=a#5 v=0
293632 On ch=1 n=a#4 v=59
293632 Off ch=1 n=g#2 v=0
293632 Off ch=1 n=g#3 v=0
293632 On ch=1 n=c#2 v=65
293632 On ch=1 n=c#3 v=77
293888 Off ch=1 n=a#4 v=0
293888 On ch=1 n=d#5 v=50
293888 On ch=1 n=c6 v=76
294144 Off ch=1 n=d#5 v=0
294144 Off ch=1 n=c6 v=0
294144 On ch=1 n=c5 v=59
294400 Par ch=1 c=64 v=127
294400 Par ch=1 c=64 v=0
294400 Par ch=1 c=64 v=0
294400 Par ch=1 c=64 v=0
294400 Par ch=1 c=64 v=0
294400 Par ch=1 c=64 v=0
294400 Par ch=1 c=64 v=0
294400 Off ch=1 n=c5 v=0
294400 Off ch=1 n=c#2 v=0
294400 Off ch=1 n=c#3 v=0
294400 On ch=1 n=g#5 v=55
294400 On ch=1 n=c#6 v=70
294400 On ch=1 n=g#3 v=64
294400 On ch=1 n=e4 v=64
294400 On ch=1 n=g#4 v=76
294553 Par ch=1 c=64 v=0
294656 Off ch=1 n=g#5 v=0
294656 On ch=1 n=c#5 v=70
294814 Par ch=1 c=64 v=127
294912 Off ch=1 n=c#5 v=0
294912 Off ch=1 n=c#6 v=0
294912 On ch=1 n=d#5 v=71
295168 Off ch=1 n=d#5 v=0
295168 On ch=1 n=g#5 v=58
295168 On ch=1 n=d#6 v=74
295168 Off ch=1 n=g#3 v=0
295168 Off ch=1 n=e4 v=0
295168 Off ch=1 n=g#4 v=0
295168 On ch=1 n=c#2 v=65
295168 On ch=1 n=c#3 v=77
295424 Off ch=1 n=g#5 v=0
295424 Off ch=1 n=d#6 v=0
295424 On ch=1 n=g#5 v=59
295424 On ch=1 n=e6 v=76
295515 Par ch=1 c=64 v=127
295680 Off ch=1 n=g#5 v=0
295680 Off ch=1 n=e6 v=0
295680 On ch=1 n=e5 v=74
295936 Off ch=1 n=e5 v=0
295936 On ch=1 n=g5 v=75
295936 Off ch=1 n=c#2 v=0
295936 Off ch=1 n=c#3 v=0
295936 On ch=1 n=g#3 v=76
295936 On ch=1 n=e4 v=76
295936 On ch=1 n=c#5 v=85
296192 Off ch=1 n=g5 v=0
296192 On ch=1 n=c#6 v=62
296192 On ch=1 n=g6 v=78
296448 Off ch=1 n=c#6 v=0
296448 Off ch=1 n=g6 v=0
296448 On ch=1 n=c#6 v=63
296448 On ch=1 n=g#6 v=81
296704 Off ch=1 n=c#6 v=0
296704 Off ch=1 n=g#6 v=0
296704 On ch=1 n=g#5 v=78
296704 Off ch=1 n=g#3 v=0
296704 Off ch=1 n=e4 v=0
296704 Off ch=1 n=c#5 v=0
296704 On ch=1 n=c#2 v=68
296704 On ch=1 n=c#3 v=80
296960 Off ch=1 n=g#5 v=0
296960 On ch=1 n=c#6 v=79
297216 Off ch=1 n=c#6 v=0
297216 On ch=1 n=g#6 v=66
297216 On ch=1 n=c#7 v=82
297302 On ch=1 n=g3 v=91
297387 On ch=1 n=e4 v=79
297472 Par ch=1 c=64 v=127
297472 Par ch=1 c=64 v=0
297472 Par ch=1 c=64 v=0
297472 Par ch=1 c=64 v=0
297472 Par ch=1 c=64 v=0
297472 Par ch=1 c=64 v=0
297472 Par ch=1 c=64 v=0
297472 Par ch=1 c=64 v=0
297472 Off ch=1 n=g#6 v=0
297472 Off ch=1 n=c#7 v=0
297472 Off ch=1 n=c#2 v=0
297472 Off ch=1 n=c#3 v=0
297472 On ch=1 n=e6 v=71
297472 On ch=1 n=a6 v=71
297472 On ch=1 n=e7 v=89
297472 On ch=1 n=c#5 v=79
297625 Par ch=1 c=64 v=0
297728 On ch=1 n=c#7 v=83
297886 Par ch=1 c=64 v=127
297984 Off ch=1 n=e6 v=0
297984 Off ch=1 n=a6 v=0
297984 Off ch=1 n=c#7 v=0
297984 Off ch=1 n=e7 v=0
297984 On ch=1 n=c#7 v=83
297984 On ch=1 n=e6 v=70
297984 On ch=1 n=a6 v=70
298240 Off ch=1 n=c#7 v=0
298240 On ch=1 n=e7 v=84
298496 Off ch=1 n=e7 v=0
298496 On ch=1 n=e7 v=87
298496 Off ch=1 n=e6 v=0
298496 Off ch=1 n=a6 v=0
298496 On ch=1 n=e6 v=69
298496 On ch=1 n=a6 v=69
298496 Off ch=1 n=g3 v=0
298496 Off ch=1 n=e4 v=0
298496 Off ch=1 n=c#5 v=0
298496 On ch=1 n=c#2 v=64
298496 On ch=1 n=c#3 v=76
298724 Par ch=1 c=64 v=127
298752 Off ch=1 n=e7 v=0
298752 On ch=1 n=c#7 v=81
299008 Off ch=1 n=c#7 v=0
299008 On ch=1 n=c#7 v=81
299008 Off ch=1 n=e6 v=0
299008 Off ch=1 n=a6 v=0
299008 On ch=1 n=e6 v=68
299008 On ch=1 n=a6 v=68
299008 Off ch=1 n=c#2 v=0
299008 Off ch=1 n=c#3 v=0
299008 On ch=1 n=g2 v=71
299008 On ch=1 n=g3 v=83
299264 Off ch=1 n=c#7 v=0
299264 On ch=1 n=e7 v=82
299520 Off ch=1 n=e7 v=0
299520 On ch=1 n=e7 v=84
299520 Off ch=1 n=e6 v=0
299520 Off ch=1 n=a6 v=0
299520 On ch=1 n=e6 v=66
299520 On ch=1 n=a6 v=66
299776 Off ch=1 n=e7 v=0
299776 On ch=1 n=c#7 v=79
300032 Off ch=1 n=c#7 v=0
300032 On ch=1 n=c#7 v=78
300032 Off ch=1 n=e6 v=0
300032 Off ch=1 n=a6 v=0
300032 On ch=1 n=e6 v=65
300032 On ch=1 n=a6 v=65
300288 Off ch=1 n=c#7 v=0
300288 On ch=1 n=e7 v=83
300544 Par ch=1 c=64 v=127
300544 Par ch=1 c=64 v=127
300544 Off ch=1 n=e7 v=0
300544 Off ch=1 n=e6 v=0
300544 Off ch=1 n=a6 v=0
300544 Off ch=1 n=g2 v=0
300544 Off ch=1 n=g3 v=0
300544 On ch=1 n=e6 v=71
300544 On ch=1 n=a6 v=71
300544 On ch=1 n=e7 v=89
300544 On ch=1 n=e4 v=73
300544 On ch=1 n=g4 v=73
300544 On ch=1 n=a4 v=73
300544 On ch=1 n=c#5 v=73
300544 On ch=1 n=e5 v=85
300800 On ch=1 n=c#7 v=83
301056 Off ch=1 n=e6 v=0
301056 Off ch=1 n=a6 v=0
301056 Off ch=1 n=c#7 v=0
301056 Off ch=1 n=e7 v=0
301056 On ch=1 n=c#7 v=83
301056 On ch=1 n=e6 v=70
301056 On ch=1 n=a6 v=70
301312 Off ch=1 n=c#7 v=0
301312 On ch=1 n=e7 v=84
301312 Off ch=1 n=e4 v=0
301312 Off ch=1 n=g4 v=0
301312 Off ch=1 n=a4 v=0
301312 Off ch=1 n=c#5 v=0
301312 Off ch=1 n=e5 v=0
301312 On ch=1 n=c#2 v=64
301312 On ch=1 n=c#3 v=76
301568 Off ch=1 n=e7 v=0
301568 On ch=1 n=e7 v=87
301568 Off ch=1 n=e6 v=0
301568 Off ch=1 n=a6 v=0
301568 On ch=1 n=e6 v=69
301568 On ch=1 n=a6 v=69
301824 Off ch=1 n=e7 v=0
301824 On ch=1 n=c#7 v=81
302080 Off ch=1 n=c#7 v=0
302080 On ch=1 n=c#7 v=81
302080 Off ch=1 n=e6 v=0
302080 Off ch=1 n=a6 v=0
302080 On ch=1 n=e6 v=68
302080 On ch=1 n=a6 v=68
302080 Off ch=1 n=c#2 v=0
302080 Off ch=1 n=c#3 v=0
302080 On ch=1 n=e4 v=64
302080 On ch=1 n=g4 v=64
302080 On ch=1 n=a4 v=64
302080 On ch=1 n=c#5 v=64
302080 On ch=1 n=e5 v=76
302336 Off ch=1 n=c#7 v=0
302336 On ch=1 n=e7 v=82
302592 Off ch=1 n=e7 v=0
302592 On ch=1 n=e7 v=84
302592 Off ch=1 n=e6 v=0
302592 Off ch=1 n=a6 v=0
302592 On ch=1 n=e6 v=66
302592 On ch=1 n=a6 v=66
302848 Off ch=1 n=e7 v=0
302848 On ch=1 n=c#7 v=79
302848 Off ch=1 n=e4 v=0
302848 Off ch=1 n=g4 v=0
302848 Off ch=1 n=a4 v=0
302848 Off ch=1 n=c#5 v=0
302848 Off ch=1 n=e5 v=0
302848 On ch=1 n=c#2 v=64
302848 On ch=1 n=c#3 v=76
303104 Off ch=1 n=c#7 v=0
303104 On ch=1 n=c#7 v=78
303104 Off ch=1 n=e6 v=0
303104 Off ch=1 n=a6 v=0
303104 On ch=1 n=e6 v=65
303104 On ch=1 n=a6 v=65
303360 Off ch=1 n=c#7 v=0
303360 On ch=1 n=e7 v=83
303616 Par ch=1 c=64 v=127
303616 Par ch=1 c=64 v=0
303616 Par ch=1 c=64 v=0
303616 Par ch=1 c=64 v=0
303616 Par ch=1 c=64 v=0
303616 Par ch=1 c=64 v=0
303616 Par ch=1 c=64 v=0
303616 Par ch=1 c=64 v=0
303616 Off ch=1 n=e7 v=0
303616 Off ch=1 n=e6 v=0
303616 Off ch=1 n=a6 v=0
303616 Off ch=1 n=c#2 v=0
303616 Off ch=1 n=c#3 v=0
303616 On ch=1 n=g#6 v=75
303616 On ch=1 n=g#7 v=87
303616 On ch=1 n=e4 v=71
303616 On ch=1 n=g#4 v=71
303616 On ch=1 n=c#5 v=71
303616 On ch=1 n=e5 v=83
303769 Par ch=1 c=64 v=0
303872 On ch=1 n=c#7 v=81
304030 Par ch=1 c=64 v=127
304128 Off ch=1 n=g#6 v=0
304128 Off ch=1 n=c#7 v=0
304128 Off ch=1 n=g#7 v=0
304128 On ch=1 n=c#7 v=81
304128 On ch=1 n=g#6 v=75
304384 Off ch=1 n=c#7 v=0
304384 On ch=1 n=g#7 v=83
304640 Off ch=1 n=g#7 v=0
304640 On ch=1 n=g#7 v=87
304640 Off ch=1 n=g#6 v=0
304640 On ch=1 n=g#6 v=75
304640 Off ch=1 n=e4 v=0
304640 Off ch=1 n=g#4 v=0
304640 Off ch=1 n=c#5 v=0
304640 Off ch=1 n=e5 v=0
304640 On ch=1 n=c#2 v=62
304640 On ch=1 n=c#3 v=74
304868 Par ch=1 c=64 v=127
304896 Off ch=1 n=g#7 v=0
304896 On ch=1 n=c#7 v=81
305152 Off ch=1 n=c#7 v=0
305152 On ch=1 n=f#6 v=84
305152 Off ch=1 n=g#6 v=0
305152 Off ch=1 n=c#2 v=0
305152 Off ch=1 n=c#3 v=0
305152 On ch=1 n=g#2 v=62
305152 On ch=1 n=g#3 v=74
305408 On ch=1 n=g#6 v=67
305408 On ch=1 n=f#7 v=83
305664 Off ch=1 n=f#6 v=0
305664 Off ch=1 n=g#6 v=0
305664 Off ch=1 n=f#7 v=0
305664 On ch=1 n=g#6 v=66
305664 On ch=1 n=e7 v=82
305920 Off ch=1 n=g#6 v=0
305920 Off ch=1 n=e7 v=0
305920 On ch=1 n=e6 v=82
306176 Off ch=1 n=e6 v=0
306176 On ch=1 n=d#6 v=81
306432 Off ch=1 n=d#6 v=0
306432 On ch=1 n=g#6 v=64
306432 On ch=1 n=d#7 v=80
306688 Par ch=1 c=64 v=127
306688 Par ch=1 c=64 v=0
306688 Par ch=1 c=64 v=0
306688 Par ch=1 c=64 v=0
306688 Par ch=1 c=64 v=0
306688 Par ch=1 c=64 v=0
306688 Par ch=1 c=64 v=0
306688 Par ch=1 c=64 v=0
306688 Par ch=1 c=64 v=0
306688 Off ch=1 n=g#6 v=0
306688 Off ch=1 n=d#7 v=0
306688 Off ch=1 n=g#2 v=0
306688 Off ch=1 n=g#3 v=0
306688 On ch=1 n=g#6 v=63
306688 On ch=1 n=c#7 v=79
306688 On ch=1 n=e4 v=61
306688 On ch=1 n=c#5 v=61
306688 On ch=1 n=g#5 v=74
306841 Par ch=1 c=64 v=0
306944 Off ch=1 n=g#6 v=0
306944 Off ch=1 n=c#7 v=0
306944 On ch=1 n=c#6 v=78
307102 Par ch=1 c=64 v=127
307200 Off ch=1 n=c#6 v=0
307200 On ch=1 n=a5 v=77
307456 Off ch=1 n=a5 v=0
307456 On ch=1 n=c#6 v=61
307456 On ch=1 n=a6 v=77
307712 Off ch=1 n=c#6 v=0
307712 Off ch=1 n=a6 v=0
307712 On ch=1 n=c#6 v=60
307712 On ch=1 n=g#6 v=76
307940 Par ch=1 c=64 v=127
307968 Off ch=1 n=c#6 v=0
307968 Off ch=1 n=g#6 v=0
307968 On ch=1 n=g#5 v=75
308224 Off ch=1 n=g#5 v=0
308224 On ch=1 n=f#5 v=74
308224 Off ch=1 n=e4 v=0
308224 Off ch=1 n=c#5 v=0
308224 Off ch=1 n=g#5 v=0
308224 On ch=1 n=g#4 v=57
308224 On ch=1 n=c#5 v=70
308281 Par ch=1 c=64 v=0
308463 Par ch=1 c=64 v=127
308480 Off ch=1 n=f#5 v=0
308480 On ch=1 n=g#5 v=57
308480 On ch=1 n=f#6 v=73
308736 Off ch=1 n=g#5 v=0
308736 Off ch=1 n=f#6 v=0
308736 On ch=1 n=g#5 v=56
308736 On ch=1 n=e6 v=72
308992 Off ch=1 n=g#5 v=0
308992 Off ch=1 n=e6 v=0
308992 On ch=1 n=e5 v=72
309248 Off ch=1 n=e5 v=0
309248 On ch=1 n=c#5 v=71
309248 Off ch=1 n=g#4 v=0
309248 Off ch=1 n=c#5 v=0
309248 On ch=1 n=g#3 v=55
309248 On ch=1 n=e4 v=55
309248 On ch=1 n=g#4 v=67
309504 Off ch=1 n=c#5 v=0
309504 On ch=1 n=g#5 v=54
309504 On ch=1 n=c#6 v=70
309760 Par ch=1 c=64 v=127
309760 Par ch=1 c=64 v=0
309760 Par ch=1 c=64 v=0
309760 Par ch=1 c=64 v=0
309760 Par ch=1 c=64 v=0
309760 Par ch=1 c=64 v=0
309760 Off ch=1 n=g#5 v=0
309760 Off ch=1 n=c#6 v=0
309760 Off ch=1 n=g#3 v=0
309760 Off ch=1 n=e4 v=0
309760 Off ch=1 n=g#4 v=0
309760 On ch=1 n=b4 v=46
309760 On ch=1 n=d#5 v=46
309760 On ch=1 n=b5 v=71
309760 On ch=1 n=a3 v=58
309760 On ch=1 n=d#4 v=58
309760 On ch=1 n=f#4 v=70
309913 Par ch=1 c=64 v=0
310016 On ch=1 n=f#5 v=66
310174 Par ch=1 c=64 v=127
310272 Off ch=1 n=b4 v=0
310272 Off ch=1 n=d#5 v=0
310272 Off ch=1 n=f#5 v=0
310272 Off ch=1 n=b5 v=0
310272 On ch=1 n=f#5 v=66
310272 On ch=1 n=b4 v=46
310272 On ch=1 n=d#5 v=46
310528 Off ch=1 n=f#5 v=0
310528 On ch=1 n=b5 v=69
310784 Off ch=1 n=b5 v=0
310784 On ch=1 n=b5 v=72
310784 Off ch=1 n=b4 v=0
310784 Off ch=1 n=d#5 v=0
310784 On ch=1 n=b4 v=47
310784 On ch=1 n=d#5 v=47
310784 Off ch=1 n=a3 v=0
310784 Off ch=1 n=d#4 v=0
310784 Off ch=1 n=f#4 v=0
310784 On ch=1 n=c#2 v=55
310784 On ch=1 n=c#3 v=55
311040 Off ch=1 n=b5 v=0
311040 On ch=1 n=f#5 v=67
311296 Off ch=1 n=f#5 v=0
311296 On ch=1 n=f#5 v=67
311296 Off ch=1 n=b4 v=0
311296 Off ch=1 n=d#5 v=0
311296 On ch=1 n=b4 v=47
311296 On ch=1 n=d#5 v=47
311296 Off ch=1 n=c#2 v=0
311296 Off ch=1 n=c#3 v=0
311296 On ch=1 n=a2 v=58
311296 On ch=1 n=a3 v=58
311307 Par ch=1 c=64 v=0
311525 Par ch=1 c=64 v=127
311552 Off ch=1 n=f#5 v=0
311552 On ch=1 n=b5 v=69
311808 Off ch=1 n=b5 v=0
311808 On ch=1 n=b5 v=73
311808 Off ch=1 n=b4 v=0
311808 Off ch=1 n=d#5 v=0
311808 On ch=1 n=b4 v=47
311808 On ch=1 n=d#5 v=47
312064 Off ch=1 n=b5 v=0
312064 On ch=1 n=f#5 v=67
312320 Off ch=1 n=f#5 v=0
312320 On ch=1 n=f#6 v=80
312320 Off ch=1 n=b4 v=0
312320 Off ch=1 n=d#5 v=0
312320 On ch=1 n=d#5 v=54
312576 Off ch=1 n=f#6 v=0
312576 On ch=1 n=b5 v=68
312832 Par ch=1 c=64 v=127
312832 Par ch=1 c=64 v=0
312832 Par ch=1 c=64 v=0
312832 Par ch=1 c=64 v=0
312832 Par ch=1 c=64 v=0
312832 Par ch=1 c=64 v=0
312832 Par ch=1 c=64 v=0
312832 Par ch=1 c=64 v=0
312832 Off ch=1 n=b5 v=0
312832 Off ch=1 n=d#5 v=0
312832 Off ch=1 n=a2 v=0
312832 Off ch=1 n=a3 v=0
312832 On ch=1 n=b4 v=48
312832 On ch=1 n=d#5 v=48
312832 On ch=1 n=b5 v=73
312832 On ch=1 n=a3 v=59
312832 On ch=1 n=d#4 v=59
312832 On ch=1 n=f#4 v=72
312985 Par ch=1 c=64 v=0
313088 On ch=1 n=f#5 v=68
313246 Par ch=1 c=64 v=127
313344 Off ch=1 n=b4 v=0
313344 Off ch=1 n=d#5 v=0
313344 Off ch=1 n=f#5 v=0
313344 Off ch=1 n=b5 v=0
313344 On ch=1 n=f#5 v=68
313344 On ch=1 n=b4 v=48
313344 On ch=1 n=d#5 v=48
313600 Off ch=1 n=f#5 v=0
313600 On ch=1 n=b5 v=70
313600 Off ch=1 n=a3 v=0
313600 Off ch=1 n=d#4 v=0
313600 Off ch=1 n=f#4 v=0
313600 On ch=1 n=c#2 v=51
313600 On ch=1 n=c#3 v=64
313856 Off ch=1 n=b5 v=0
313856 On ch=1 n=b5 v=73
313856 Off ch=1 n=b4 v=0
313856 Off ch=1 n=d#5 v=0
313856 On ch=1 n=b4 v=48
313856 On ch=1 n=d#5 v=48
314112 Off ch=1 n=b5 v=0
314112 On ch=1 n=f#5 v=69
314368 Off ch=1 n=f#5 v=0
314368 On ch=1 n=c6 v=69
314368 Off ch=1 n=b4 v=0
314368 Off ch=1 n=d#5 v=0
314368 On ch=1 n=c5 v=48
314368 On ch=1 n=d#5 v=48
314368 Off ch=1 n=c#2 v=0
314368 Off ch=1 n=c#3 v=0
314368 On ch=1 n=g#3 v=60
314368 On ch=1 n=d#4 v=60
314368 On ch=1 n=f#4 v=73
314379 Par ch=1 c=64 v=0
314597 Par ch=1 c=64 v=127
314624 Off ch=1 n=c6 v=0
314624 On ch=1 n=f#5 v=71
314880 Off ch=1 n=f#5 v=0
314880 On ch=1 n=f#5 v=74
314880 Off ch=1 n=c5 v=0
314880 Off ch=1 n=d#5 v=0
314880 On ch=1 n=c5 v=48
314880 On ch=1 n=d#5 v=48
315136 Off ch=1 n=f#5 v=0
315136 On ch=1 n=c6 v=69
315136 Off ch=1 n=g#3 v=0
315136 Off ch=1 n=d#4 v=0
315136 Off ch=1 n=f#4 v=0
315136 On ch=1 n=c#2 v=51
315136 On ch=1 n=c#3 v=64
315392 Off ch=1 n=c6 v=0
315392 On ch=1 n=c6 v=74
315392 Off ch=1 n=c5 v=0
315392 Off ch=1 n=d#5 v=0
315392 On ch=1 n=c5 v=41
315392 On ch=1 n=d#5 v=41
315648 Off ch=1 n=c6 v=0
315648 On ch=1 n=f#5 v=62
315904 Par ch=1 c=64 v=127
315904 Par ch=1 c=64 v=0
315904 Par ch=1 c=64 v=0
315904 Par ch=1 c=64 v=0
315904 Par ch=1 c=64 v=0
315904 Par ch=1 c=64 v=0
315904 Par ch=1 c=64 v=0
315904 Off ch=1 n=f#5 v=0
315904 Off ch=1 n=c5 v=0
315904 Off ch=1 n=d#5 v=0
315904 Off ch=1 n=c#2 v=0
315904 Off ch=1 n=c#3 v=0
315904 On ch=1 n=d#5 v=53
315904 On ch=1 n=d#6 v=77
315904 On ch=1 n=g#3 v=64
315904 On ch=1 n=e4 v=76
316057 Par ch=1 c=64 v=0
316160 On ch=1 n=e5 v=72
316318 Par ch=1 c=64 v=127
316416 Off ch=1 n=d#5 v=0
316416 Off ch=1 n=e5 v=0
316416 Off ch=1 n=d#6 v=0
316416 On ch=1 n=e5 v=72
316416 On ch=1 n=d#5 v=53
316672 Off ch=1 n=e5 v=0
316672 On ch=1 n=d#6 v=65
316928 Off ch=1 n=d#6 v=0
316928 On ch=1 n=d#6 v=68
316928 Off ch=1 n=d#5 v=0
316928 On ch=1 n=d#5 v=44
316928 Off ch=1 n=g#3 v=0
316928 Off ch=1 n=e4 v=0
316928 On ch=1 n=c#2 v=64
316928 On ch=1 n=c#3 v=76
317184 Off ch=1 n=d#6 v=0
317184 On ch=1 n=g#5 v=63
317440 Off ch=1 n=g#5 v=0
317440 On ch=1 n=e5 v=54
317440 On ch=1 n=g#5 v=71
317440 Off ch=1 n=d#5 v=0
317440 Off ch=1 n=c#2 v=0
317440 Off ch=1 n=c#3 v=0
317440 On ch=1 n=g#2 v=64
317440 On ch=1 n=g#3 v=76
317451 Par ch=1 c=64 v=0
317669 Par ch=1 c=64 v=127
317696 Off ch=1 n=e5 v=0
317696 Off ch=1 n=g#5 v=0
317696 On ch=1 n=g#4 v=59
317952 Off ch=1 n=g#4 v=0
317952 On ch=1 n=e5 v=55
317952 On ch=1 n=a#5 v=74
318208 Off ch=1 n=e5 v=0
318208 Off ch=1 n=a#5 v=0
318208 On ch=1 n=a#4 v=59
318208 Off ch=1 n=g#2 v=0
318208 Off ch=1 n=g#3 v=0
318208 On ch=1 n=c#2 v=65
318208 On ch=1 n=c#3 v=77
318464 Off ch=1 n=a#4 v=0
318464 On ch=1 n=d#5 v=50
318464 On ch=1 n=c6 v=76
318720 Off ch=1 n=d#5 v=0
318720 Off ch=1 n=c6 v=0
318720 On ch=1 n=c5 v=59
318976 Par ch=1 c=64 v=127
318976 Par ch=1 c=64 v=0
318976 Par ch=1 c=64 v=0
318976 Par ch=1 c=64 v=0
318976 Par ch=1 c=64 v=0
318976 Par ch=1 c=64 v=0
318976 Par ch=1 c=64 v=0
318976 Off ch=1 n=c5 v=0
318976 Off ch=1 n=c#2 v=0
318976 Off ch=1 n=c#3 v=0
318976 On ch=1 n=g#5 v=55
318976 On ch=1 n=c#6 v=70
318976 On ch=1 n=g#3 v=64
318976 On ch=1 n=e4 v=64
318976 On ch=1 n=g#4 v=76
319129 Par ch=1 c=64 v=0
319232 Off ch=1 n=g#5 v=0
319232 On ch=1 n=c#5 v=70
319390 Par ch=1 c=64 v=127
319488 Off ch=1 n=c#5 v=0
319488 Off ch=1 n=c#6 v=0
319488 On ch=1 n=d#5 v=71
319744 Off ch=1 n=d#5 v=0
319744 On ch=1 n=g#5 v=58
319744 On ch=1 n=d#6 v=74
319744 Off ch=1 n=g#3 v=0
319744 Off ch=1 n=e4 v=0
319744 Off ch=1 n=g#4 v=0
319744 On ch=1 n=c#2 v=65
319744 On ch=1 n=c#3 v=77
320000 Off ch=1 n=g#5 v=0
320000 Off ch=1 n=d#6 v=0
320000 On ch=1 n=g#5 v=59
320000 On ch=1 n=e6 v=76
320091 Par ch=1 c=64 v=127
320256 Off ch=1 n=g#5 v=0
320256 Off ch=1 n=e6 v=0
320256 On ch=1 n=e5 v=74
320512 Off ch=1 n=e5 v=0
320512 On ch=1 n=g5 v=75
320512 Off ch=1 n=c#2 v=0
320512 Off ch=1 n=c#3 v=0
320512 On ch=1 n=g#3 v=76
320512 On ch=1 n=e4 v=76
320512 On ch=1 n=c#5 v=85
320768 Off ch=1 n=g5 v=0
320768 On ch=1 n=c#6 v=62
320768 On ch=1 n=g6 v=78
321024 Off ch=1 n=c#6 v=0
321024 Off ch=1 n=g6 v=0
321024 On ch=1 n=c#6 v=63
321024 On ch=1 n=g#6 v=81
321280 Off ch=1 n=c#6 v=0
321280 Off ch=1 n=g#6 v=0
321280 On ch=1 n=g#5 v=78
321280 Off ch=1 n=g#3 v=0
321280 Off ch=1 n=e4 v=0
321280 Off ch=1 n=c#5 v=0
321280 On ch=1 n=c#2 v=68
321280 On ch=1 n=c#3 v=80
321536 Off ch=1 n=g#5 v=0
321536 On ch=1 n=c#6 v=79
321792 Off ch=1 n=c#6 v=0
321792 On ch=1 n=g#6 v=66
321792 On ch=1 n=c#7 v=82
321878 On ch=1 n=g3 v=91
321963 On ch=1 n=e4 v=79
322048 Par ch=1 c=64 v=127
322048 Par ch=1 c=64 v=0
322048 Par ch=1 c=64 v=0
322048 Par ch=1 c=64 v=0
322048 Par ch=1 c=64 v=0
322048 Par ch=1 c=64 v=0
322048 Par ch=1 c=64 v=0
322048 Par ch=1 c=64 v=0
322048 Off ch=1 n=g#6 v=0
322048 Off ch=1 n=c#7 v=0
322048 Off ch=1 n=c#2 v=0
322048 Off ch=1 n=c#3 v=0
322048 On ch=1 n=e6 v=71
322048 On ch=1 n=a6 v=71
322048 On ch=1 n=e7 v=89
322048 On ch=1 n=c#5 v=79
322201 Par ch=1 c=64 v=0
322304 On ch=1 n=c#7 v=83
322462 Par ch=1 c=64 v=127
322560 Off ch=1 n=e6 v=0
322560 Off ch=1 n=a6 v=0
322560 Off ch=1 n=c#7 v=0
322560 Off ch=1 n=e7 v=0
322560 On ch=1 n=c#7 v=83
322560 On ch=1 n=e6 v=70
322560 On ch=1 n=a6 v=70
322816 Off ch=1 n=c#7 v=0
322816 On ch=1 n=e7 v=84
323072 Off ch=1 n=e7 v=0
323072 On ch=1 n=e7 v=87
323072 Off ch=1 n=e6 v=0
323072 Off ch=1 n=a6 v=0
323072 On ch=1 n=e6 v=69
323072 On ch=1 n=a6 v=69
323072 Off ch=1 n=g3 v=0
323072 Off ch=1 n=e4 v=0
323072 Off ch=1 n=c#5 v=0
323072 On ch=1 n=c#2 v=64
323072 On ch=1 n=c#3 v=76
323300 Par ch=1 c=64 v=127
323328 Off ch=1 n=e7 v=0
323328 On ch=1 n=c#7 v=81
323584 Off ch=1 n=c#7 v=0
323584 On ch=1 n=c#7 v=81
323584 Off ch=1 n=e6 v=0
323584 Off ch=1 n=a6 v=0
323584 On ch=1 n=e6 v=68
323584 On ch=1 n=a6 v=68
323584 Off ch=1 n=c#2 v=0
323584 Off ch=1 n=c#3 v=0
323584 On ch=1 n=g2 v=71
323584 On ch=1 n=g3 v=83
323840 Off ch=1 n=c#7 v=0
323840 On ch=1 n=e7 v=82
324096 Off ch=1 n=e7 v=0
324096 On ch=1 n=e7 v=84
324096 Off ch=1 n=e6 v=0
324096 Off ch=1 n=a6 v=0
324096 On ch=1 n=e6 v=66
324096 On ch=1 n=a6 v=66
324352 Off ch=1 n=e7 v=0
324352 On ch=1 n=c#7 v=79
324608 Off ch=1 n=c#7 v=0
324608 On ch=1 n=c#7 v=78
324608 Off ch=1 n=e6 v=0
324608 Off ch=1 n=a6 v=0
324608 On ch=1 n=e6 v=65
324608 On ch=1 n=a6 v=65
324864 Off ch=1 n=c#7 v=0
324864 On ch=1 n=e7 v=83
325120 Par ch=1 c=64 v=127
325120 Par ch=1 c=64 v=127
325120 Off ch=1 n=e7 v=0
325120 Off ch=1 n=e6 v=0
325120 Off ch=1 n=a6 v=0
325120 Off ch=1 n=g2 v=0
325120 Off ch=1 n=g3 v=0
325120 On ch=1 n=e6 v=71
325120 On ch=1 n=a6 v=71
325120 On ch=1 n=e7 v=89
325120 On ch=1 n=e4 v=73
325120 On ch=1 n=g4 v=73
325120 On ch=1 n=a4 v=73
325120 On ch=1 n=c#5 v=73
325120 On ch=1 n=e5 v=85
325376 On ch=1 n=c#7 v=83
325632 Off ch=1 n=e6 v=0
325632 Off ch=1 n=a6 v=0
325632 Off ch=1 n=c#7 v=0
325632 Off ch=1 n=e7 v=0
325632 On ch=1 n=c#7 v=83
325632 On ch=1 n=e6 v=70
325632 On ch=1 n=a6 v=70
325888 Off ch=1 n=c#7 v=0
325888 On ch=1 n=e7 v=84
325888 Off ch=1 n=e4 v=0
325888 Off ch=1 n=g4 v=0
325888 Off ch=1 n=a4 v=0
325888 Off ch=1 n=c#5 v=0
325888 Off ch=1 n=e5 v=0
325888 On ch=1 n=c#2 v=64
325888 On ch=1 n=c#3 v=76
326144 Off ch=1 n=e7 v=0
326144 On ch=1 n=e7 v=87
326144 Off ch=1 n=e6 v=0
326144 Off ch=1 n=a6 v=0
326144 On ch=1 n=e6 v=69
326144 On ch=1 n=a6 v=69
326400 Off ch=1 n=e7 v=0
326400 On ch=1 n=c#7 v=81
326656 Off ch=1 n=c#7 v=0
326656 On ch=1 n=c#7 v=81
326656 Off ch=1 n=e6 v=0
326656 Off ch=1 n=a6 v=0
326656 On ch=1 n=e6 v=68
326656 On ch=1 n=a6 v=68
326656 Off ch=1 n=c#2 v=0
326656 Off ch=1 n=c#3 v=0
326656 On ch=1 n=e4 v=64
326656 On ch=1 n=g4 v=64
326656 On ch=1 n=a4 v=64
326656 On ch=1 n=c#5 v=64
326656 On ch=1 n=e5 v=76
326912 Off ch=1 n=c#7 v=0
326912 On ch=1 n=e7 v=82
327168 Off ch=1 n=e7 v=0
327168 On ch=1 n=e7 v=84
327168 Off ch=1 n=e6 v=0
327168 Off ch=1 n=a6 v=0
327168 On ch=1 n=e6 v=66
327168 On ch=1 n=a6 v=66
327424 Off ch=1 n=e7 v=0
327424 On ch=1 n=c#7 v=79
327424 Off ch=1 n=e4 v=0
327424 Off ch=1 n=g4 v=0
327424 Off ch=1 n=a4 v=0
327424 Off ch=1 n=c#5 v=0
327424 Off ch=1 n=e5 v=0
327424 On ch=1 n=c#2 v=64
327424 On ch=1 n=c#3 v=76
327680 Off ch=1 n=c#7 v=0
327680 On ch=1 n=c#7 v=78
327680 Off ch=1 n=e6 v=0
327680 Off ch=1 n=a6 v=0
327680 On ch=1 n=e6 v=65
327680 On ch=1 n=a6 v=65
327936 Off ch=1 n=c#7 v=0
327936 On ch=1 n=e7 v=83
328192 Par ch=1 c=64 v=127
328192 Par ch=1 c=64 v=0
328192 Par ch=1 c=64 v=0
328192 Par ch=1 c=64 v=0
328192 Par ch=1 c=64 v=0
328192 Par ch=1 c=64 v=0
328192 Par ch=1 c=64 v=0
328192 Par ch=1 c=64 v=0
328192 Off ch=1 n=e7 v=0
328192 Off ch=1 n=e6 v=0
328192 Off ch=1 n=a6 v=0
328192 Off ch=1 n=c#2 v=0
328192 Off ch=1 n=c#3 v=0
328192 On ch=1 n=g#6 v=75
328192 On ch=1 n=g#7 v=87
328192 On ch=1 n=e4 v=71
328192 On ch=1 n=g#4 v=71
328192 On ch=1 n=c#5 v=71
328192 On ch=1 n=e5 v=83
328345 Par ch=1 c=64 v=0
328448 On ch=1 n=c#7 v=81
328606 Par ch=1 c=64 v=127
328704 Off ch=1 n=g#6 v=0
328704 Off ch=1 n=c#7 v=0
328704 Off ch=1 n=g#7 v=0
328704 On ch=1 n=c#7 v=81
328704 On ch=1 n=g#6 v=75
328960 Off ch=1 n=c#7 v=0
328960 On ch=1 n=g#7 v=83
329216 Off ch=1 n=g#7 v=0
329216 On ch=1 n=g#7 v=87
329216 Off ch=1 n=g#6 v=0
329216 On ch=1 n=g#6 v=75
329216 Off ch=1 n=e4 v=0
329216 Off ch=1 n=g#4 v=0
329216 Off ch=1 n=c#5 v=0
329216 Off ch=1 n=e5 v=0
329216 On ch=1 n=c#2 v=62
329216 On ch=1 n=c#3 v=74
329444 Par ch=1 c=64 v=127
329472 Off ch=1 n=g#7 v=0
329472 On ch=1 n=c#7 v=81
329728 Off ch=1 n=c#7 v=0
329728 On ch=1 n=f#6 v=84
329728 Off ch=1 n=g#6 v=0
329728 Off ch=1 n=c#2 v=0
329728 Off ch=1 n=c#3 v=0
329728 On ch=1 n=g#2 v=62
329728 On ch=1 n=g#3 v=74
329984 On ch=1 n=g#6 v=67
329984 On ch=1 n=f#7 v=83
330240 Off ch=1 n=f#6 v=0
330240 Off ch=1 n=g#6 v=0
330240 Off ch=1 n=f#7 v=0
330240 On ch=1 n=g#6 v=66
330240 On ch=1 n=e7 v=82
330496 Off ch=1 n=g#6 v=0
330496 Off ch=1 n=e7 v=0
330496 On ch=1 n=e6 v=82
330752 Off ch=1 n=e6 v=0
330752 On ch=1 n=d#6 v=81
331008 Off ch=1 n=d#6 v=0
331008 On ch=1 n=g#6 v=64
331008 On ch=1 n=d#7 v=80
331094 On ch=1 n=e4 v=61
331179 On ch=1 n=c#5 v=61
331264 Par ch=1 c=64 v=127
331264 Par ch=1 c=64 v=0
331264 Par ch=1 c=64 v=0
331264 Par ch=1 c=64 v=0
331264 Par ch=1 c=64 v=0
331264 Par ch=1 c=64 v=0
331264 Par ch=1 c=64 v=0
331264 Par ch=1 c=64 v=0
331264 Par ch=1 c=64 v=0
331264 Off ch=1 n=g#6 v=0
331264 Off ch=1 n=d#7 v=0
331264 Off ch=1 n=g#2 v=0
331264 Off ch=1 n=g#3 v=0
331264 On ch=1 n=g#6 v=63
331264 On ch=1 n=c#7 v=79
331264 On ch=1 n=g#5 v=74
331417 Par ch=1 c=64 v=0
331520 Off ch=1 n=g#6 v=0
331520 Off ch=1 n=c#7 v=0
331520 On ch=1 n=c#6 v=78
331678 Par ch=1 c=64 v=127
331776 Off ch=1 n=c#6 v=0
331776 On ch=1 n=a5 v=77
332032 Off ch=1 n=a5 v=0
332032 On ch=1 n=c#6 v=61
332032 On ch=1 n=a6 v=77
332288 Off ch=1 n=c#6 v=0
332288 Off ch=1 n=a6 v=0
332288 On ch=1 n=c#6 v=60
332288 On ch=1 n=g#6 v=76
332516 Par ch=1 c=64 v=127
332544 Off ch=1 n=c#6 v=0
332544 Off ch=1 n=g#6 v=0
332544 On ch=1 n=g#5 v=75
332800 Off ch=1 n=g#5 v=0
332800 On ch=1 n=f#5 v=74
332800 Off ch=1 n=e4 v=0
332800 Off ch=1 n=c#5 v=0
332800 Off ch=1 n=g#5 v=0
332800 On ch=1 n=g#4 v=57
332800 On ch=1 n=c#5 v=70
332857 Par ch=1 c=64 v=0
333039 Par ch=1 c=64 v=127
333056 Off ch=1 n=f#5 v=0
333056 On ch=1 n=g#5 v=57
333056 On ch=1 n=f#6 v=73
333312 Off ch=1 n=g#5 v=0
333312 Off ch=1 n=f#6 v=0
333312 On ch=1 n=g#5 v=56
333312 On ch=1 n=e6 v=72
333568 Off ch=1 n=g#5 v=0
333568 Off ch=1 n=e6 v=0
333568 On ch=1 n=e5 v=72
333824 Off ch=1 n=e5 v=0
333824 On ch=1 n=c#5 v=71
333824 Off ch=1 n=g#4 v=0
333824 Off ch=1 n=c#5 v=0
333824 On ch=1 n=g#3 v=55
333824 On ch=1 n=e4 v=55
333824 On ch=1 n=g#4 v=67
334080 Off ch=1 n=c#5 v=0
334080 On ch=1 n=g#5 v=54
334080 On ch=1 n=c#6 v=70
334336 Par ch=1 c=64 v=127
334336 Par ch=1 c=64 v=0
334336 Par ch=1 c=64 v=0
334336 Par ch=1 c=64 v=0
334336 Par ch=1 c=64 v=0
334336 Par ch=1 c=64 v=0
334336 Par ch=1 c=64 v=0
334336 Par ch=1 c=64 v=0
334336 Par ch=1 c=64 v=0
334336 Par ch=1 c=64 v=0
334336 Off ch=1 n=g#5 v=0
334336 Off ch=1 n=c#6 v=0
334336 Off ch=1 n=g#3 v=0
334336 Off ch=1 n=e4 v=0
334336 Off ch=1 n=g#4 v=0
334336 On ch=1 n=g#5 v=66
334336 On ch=1 n=g#6 v=78
334336 On ch=1 n=e4 v=62
334336 On ch=1 n=g#4 v=62
334336 On ch=1 n=c#5 v=62
334336 On ch=1 n=e5 v=74
334489 Par ch=1 c=64 v=0
334592 Off ch=1 n=g#6 v=0
334592 On ch=1 n=c#6 v=72
334750 Par ch=1 c=64 v=127
334848 Off ch=1 n=g#5 v=0
334848 Off ch=1 n=c#6 v=0
334848 On ch=1 n=c#6 v=72
334848 On ch=1 n=g#5 v=66
335104 Off ch=1 n=c#6 v=0
335104 On ch=1 n=g#6 v=74
335360 Off ch=1 n=g#6 v=0
335360 On ch=1 n=g#6 v=78
335360 Off ch=1 n=g#5 v=0
335360 On ch=1 n=g#5 v=66
335360 Off ch=1 n=e4 v=0
335360 Off ch=1 n=g#4 v=0
335360 Off ch=1 n=c#5 v=0
335360 Off ch=1 n=e5 v=0
335360 On ch=1 n=c#2 v=62
335360 On ch=1 n=c#3 v=74
335588 Par ch=1 c=64 v=127
335616 Off ch=1 n=g#6 v=0
335616 On ch=1 n=c#6 v=72
335872 Off ch=1 n=c#6 v=0
335872 On ch=1 n=f#5 v=75
335872 Off ch=1 n=g#5 v=0
335872 Off ch=1 n=c#2 v=0
335872 Off ch=1 n=c#3 v=0
335872 On ch=1 n=g#2 v=71
335872 On ch=1 n=g#3 v=83
336128 Off ch=1 n=f#5 v=0
336128 On ch=1 n=g#5 v=58
336128 On ch=1 n=f#6 v=74
336384 Off ch=1 n=g#5 v=0
336384 Off ch=1 n=f#6 v=0
336384 On ch=1 n=g#5 v=57
336384 On ch=1 n=e6 v=73
336640 Off ch=1 n=g#5 v=0
336640 Off ch=1 n=e6 v=0
336640 On ch=1 n=e5 v=73
336896 Off ch=1 n=e5 v=0
336896 On ch=1 n=d#5 v=72
337152 Off ch=1 n=d#5 v=0
337152 On ch=1 n=g#5 v=55
337152 On ch=1 n=d#6 v=71
337408 Par ch=1 c=64 v=127
337408 Par ch=1 c=64 v=0
337408 Par ch=1 c=64 v=0
337408 Par ch=1 c=64 v=0
337408 Par ch=1 c=64 v=0
337408 Par ch=1 c=64 v=0
337408 Par ch=1 c=64 v=0
337408 Par ch=1 c=64 v=0
337408 Par ch=1 c=64 v=0
337408 Par ch=1 c=64 v=0
337408 Par ch=1 c=64 v=0
337408 Off ch=1 n=g#5 v=0
337408 Off ch=1 n=d#6 v=0
337408 Off ch=1 n=g#2 v=0
337408 Off ch=1 n=g#3 v=0
337408 On ch=1 n=g#5 v=54
337408 On ch=1 n=c#6 v=70
337408 On ch=1 n=e4 v=64
337561 Par ch=1 c=64 v=0
337664 Off ch=1 n=g#5 v=0
337664 Off ch=1 n=c#6 v=0
337664 On ch=1 n=c#5 v=69
337822 Par ch=1 c=64 v=127
337920 Off ch=1 n=c#5 v=0
337920 On ch=1 n=a4 v=68
338176 Off ch=1 n=a4 v=0
338176 On ch=1 n=c#5 v=52
338176 On ch=1 n=a5 v=68
338432 Off ch=1 n=c#5 v=0
338432 Off ch=1 n=a5 v=0
338432 On ch=1 n=c#5 v=51
338432 On ch=1 n=g#5 v=67
338660 Par ch=1 c=64 v=127
338688 Off ch=1 n=c#5 v=0
338688 Off ch=1 n=g#5 v=0
338688 On ch=1 n=g#4 v=66
338944 Off ch=1 n=g#4 v=0
338944 On ch=1 n=f#4 v=65
338944 Off ch=1 n=e4 v=0
338944 On ch=1 n=g#3 v=44
338944 On ch=1 n=c#4 v=57
339001 Par ch=1 c=64 v=0
339183 Par ch=1 c=64 v=127
339200 Off ch=1 n=f#4 v=0
339200 On ch=1 n=g#4 v=48
339200 On ch=1 n=f#5 v=64
339456 Off ch=1 n=g#4 v=0
339456 Off ch=1 n=f#5 v=0
339456 On ch=1 n=g#4 v=47
339456 On ch=1 n=e5 v=63
339712 Off ch=1 n=g#4 v=0
339712 Off ch=1 n=e5 v=0
339712 On ch=1 n=e4 v=63
339968 Off ch=1 n=e4 v=0
339968 On ch=1 n=c#4 v=62
340224 Off ch=1 n=c#4 v=0
340224 On ch=1 n=g#4 v=45
340224 On ch=1 n=c#5 v=61
340480 Par ch=1 c=64 v=127
340480 Par ch=1 c=64 v=0
340480 Par ch=1 c=64 v=0
340480 Par ch=1 c=64 v=0
340480 Par ch=1 c=64 v=0
340480 Par ch=1 c=64 v=0
340480 Par ch=1 c=64 v=0
340480 Par ch=1 c=64 v=0
340480 Par ch=1 c=64 v=0
340480 Par ch=1 c=64 v=0
340480 Par ch=1 c=64 v=0
340480 Off ch=1 n=g#4 v=0
340480 Off ch=1 n=c#5 v=0
340480 Off ch=1 n=g#3 v=0
340480 Off ch=1 n=c#4 v=0
340480 On ch=1 n=f#4 v=59
340480 On ch=1 n=c#3 v=54
340480 On ch=1 n=g#3 v=66
340633 Par ch=1 c=64 v=0
340736 On ch=1 n=g#4 v=49
340736 On ch=1 n=f#5 v=57
340776 Off ch=1 n=f#4 v=0
340894 Par ch=1 c=64 v=127
340902 Off ch=1 n=g#4 v=0
340902 Off ch=1 n=f#5 v=0
340992 On ch=1 n=g#4 v=47
340992 On ch=1 n=e5 v=56
341248 On ch=1 n=e4 v=54
341288 Off ch=1 n=g#4 v=0
341288 Off ch=1 n=e5 v=0
341394 Par ch=1 c=64 v=0
341414 Off ch=1 n=e4 v=0
341504 On ch=1 n=c#4 v=53
341732 Par ch=1 c=64 v=127
341760 On ch=1 n=g#4 v=43
341760 On ch=1 n=c#5 v=52
341800 Off ch=1 n=c#4 v=0
341926 Off ch=1 n=g#4 v=0
341926 Off ch=1 n=c#5 v=0
342016 On ch=1 n=f#4 v=55
342073 Par ch=1 c=64 v=0
342255 Par ch=1 c=64 v=127
342272 On ch=1 n=g#4 v=45
342272 On ch=1 n=f#5 v=54
342312 Off ch=1 n=f#4 v=0
342438 Off ch=1 n=g#4 v=0
342438 Off ch=1 n=f#5 v=0
342528 On ch=1 n=g#4 v=44
342528 On ch=1 n=e5 v=52
342784 On ch=1 n=e4 v=51
342802 Par ch=1 c=64 v=0
342824 Off ch=1 n=g#4 v=0
342824 Off ch=1 n=e5 v=0
342950 Off ch=1 n=e4 v=0
343040 On ch=1 n=c#4 v=49
343079 Par ch=1 c=64 v=127
343296 On ch=1 n=g#4 v=40
343296 On ch=1 n=c#5 v=48
343336 Off ch=1 n=c#4 v=0
343462 Off ch=1 n=g#4 v=0
343462 Off ch=1 n=c#5 v=0
343552 Par ch=1 c=64 v=127
343552 Par ch=1 c=64 v=0
343552 Par ch=1 c=64 v=0
343552 Par ch=1 c=64 v=0
343552 Par ch=1 c=64 v=0
343552 Par ch=1 c=64 v=0
343552 Par ch=1 c=64 v=0
343552 Par ch=1 c=64 v=0
343552 Par ch=1 c=64 v=0
343552 Par ch=1 c=64 v=0
343552 Par ch=1 c=64 v=0
343552 Par ch=1 c=64 v=0
343552 On ch=1 n=f#4 v=48
343705 Par ch=1 c=64 v=0
343808 On ch=1 n=g#4 v=39
343808 On ch=1 n=f#5 v=46
343848 Off ch=1 n=f#4 v=0
343966 Par ch=1 c=64 v=127
343974 Off ch=1 n=g#4 v=0
343974 Off ch=1 n=f#5 v=0
344064 On ch=1 n=g#4 v=37
344064 On ch=1 n=e5 v=45
344320 On ch=1 n=e4 v=44
344360 Off ch=1 n=g#4 v=0
344360 Off ch=1 n=e5 v=0
344466 Par ch=1 c=64 v=0
344486 Off ch=1 n=e4 v=0
344576 On ch=1 n=c#4 v=42
344804 Par ch=1 c=64 v=127
344832 On ch=1 n=g#4 v=34
344832 On ch=1 n=c#5 v=41
344872 Off ch=1 n=c#4 v=0
344998 Off ch=1 n=g#4 v=0
344998 Off ch=1 n=c#5 v=0
345088 On ch=1 n=f#4 v=44
345145 Par ch=1 c=64 v=0
345327 Par ch=1 c=64 v=127
345344 On ch=1 n=g#4 v=36
345344 On ch=1 n=f#5 v=43
345384 Off ch=1 n=f#4 v=0
345510 Off ch=1 n=g#4 v=0
345510 Off ch=1 n=f#5 v=0
345600 On ch=1 n=g#4 v=34
345600 On ch=1 n=e5 v=41
345856 On ch=1 n=e4 v=40
345874 Par ch=1 c=64 v=0
345896 Off ch=1 n=g#4 v=0
345896 Off ch=1 n=e5 v=0
346022 Off ch=1 n=e4 v=0
346112 On ch=1 n=c#4 v=39
346151 Par ch=1 c=64 v=127
346368 On ch=1 n=g#4 v=31
346368 On ch=1 n=c#5 v=38
346408 Off ch=1 n=c#4 v=0
346624 Par ch=1 c=64 v=127
346624 Par ch=1 c=64 v=127
346624 Off ch=1 n=c#3 v=0
346624 Off ch=1 n=g#3 v=0
346624 On ch=1 n=c#2 v=24
346624 On ch=1 n=c#3 v=24
346880 Off ch=1 n=g#4 v=0
346880 Off ch=1 n=c#5 v=0
346880 On ch=1 n=g#4 v=23
346880 On ch=1 n=c#5 v=23
346880 On ch=1 n=g#5 v=39
346880 Off ch=1 n=c#3 v=0
346880 On ch=1 n=c#3 v=12
346880 On ch=1 n=c#4 v=12
349696 Par ch=1 c=64 v=127
349696 Par ch=1 c=64 v=127
352768 Par ch=1 c=64 v=0
352768 Par ch=1 c=64 v=0
352768 Off ch=1 n=g#4 v=0
352768 Off ch=1 n=c#5 v=0
352768 Off ch=1 n=g#5 v=0
352768 Off ch=1 n=c#2 v=0
352768 Off ch=1 n=c#3 v=0
352768 Off ch=1 n=c#4 v=0
355843 Meta TrkEnd
TrkEnd
